<svg xmlns="http://www.w3.org/2000/svg" width="117.1" height="8.5" xmlns:v="https://vecta.io/nano"><path d="M5.5 6.1l-.8 2.4h-.9c-.1-.4-.3-1.2-.6-1.7L.9 1.6C.6 1 .3.8 0 .7V.2h3.8v.6c-.8 0-.9.4-.6 1L5.1 6l1.4-3.4c.4-1 .3-1.7-.7-1.8V.2h2.6v.6c-.4 0-.6.4-.9 1l-2 4.3zm4.4-4.3c0-.7-.2-1.1-1.1-1.1V.2h4.3v.6c-.8 0-1.1.3-1.1 1v3.5c0 1.5.6 2.3 2.2 2.3 1.1 0 2.4-.5 2.4-2.3v-3c0-1.1-.3-1.5-1.3-1.6V.2h3v.6c-.8.1-1.1.5-1.1 1.3v3.4c0 2.4-1.7 3-3.6 3-2.1 0-3.8-.7-3.8-3V1.8zm12.2 4.6c0 1 .3 1.4 1.2 1.4 1 0 1.8-.5 2.7-1.5h.7l-.3 2H19v-.5c.7 0 1-.3 1-1V1.7c0-.6-.3-.9-1-.9V.2h4.2v.6c-.8 0-1.1.3-1.1 1v4.6zm8.2 0c0 1 .3 1.4 1.2 1.4 1 0 1.8-.5 2.7-1.5h.7l-.3 2h-7.4v-.5c.7 0 1-.3 1-1V1.7c0-.6-.3-.9-1-.9V.2h4.2v.6c-.8 0-1.1.3-1.1 1v4.6zm15.4-1h-.8c-.3-.9-.7-1.1-1.6-1.1h-1.4v2.3c0 .7.2 1.2 1.5 1.2 1.1 0 1.8-.2 2.9-1.5h.8l-.4 2h-8v-.5c.7 0 1.1-.3 1.1-1v-5c0-.6-.3-1-1.1-1V.2h7.9v1.7h-.8C45.1 1 44.6.7 43.6.7h-1.7v3h1.4c1 0 1.4-.3 1.6-1h.8v2.7zm5.1 2.9h-3.3v-.5h.1c.9 0 1.2-.6 1.2-1.6V1.4c-.4-.4-.8-.6-1.2-.7V.2h3L55 5.3V3c0-1.9-.2-2.2-1.4-2.3V.2h3.1v.6c-.9.1-1.1.4-1.1 1.7v3.9c0 1.2.2 1.5.2 2.1H55L49.3 2v3.6c0 1.6.3 2.2 1.3 2.2h.1v.5zm15.1-2.6v2c-.9.5-2.2.8-3.5.8-2.6 0-5-1.3-5-4.1C57.4 2.2 59 0 62.3 0c1.2 0 2.3.3 3.3.7l.2 1.9H65C64.5 1.5 63.6.5 62.3.5c-1.5 0-2.5 1.3-2.5 3.5 0 2.3 1.1 3.9 2.8 3.9 1.2 0 2.1-.8 2.5-2.3h.8zm3.2-.4l-.4 1.1c-.3.8-.1 1.3.7 1.4v.6h-2.8v-.6c.8-.2 1-.5 1.3-1.1l2.4-6-.3-.6h2.2l2.6 6.6c.3.7.6 1 1.1 1v.6h-4.1v-.5c.8-.1 1-.4.7-1.1L72 5.3h-2.9zm1.4-3.8l-1.1 3h2.3l-1.2-3zm8.8 6.8H76v-.5h.1c.9 0 1.2-.6 1.2-1.6V1.4c-.4-.4-.8-.6-1.2-.6V.2h3l4.5 5.1V3c0-1.9-.2-2.2-1.4-2.3V.2h3.1v.6c-.9.1-1.1.4-1.1 1.7v3.9c0 1.2.2 1.5.2 2.1h-.8L77.8 2v3.6c0 1.6.3 2.2 1.3 2.2h.1v.5zM88.8.7h-.4c-.7 0-1.4.4-1.9 1.2h-.8V.2H94V2h-.8C92.6 1.2 92 .8 91.3.8h-.4v6c0 .8.2 1.1 1 1.1v.6h-4.2v-.7c.8 0 1-.3 1-1.1v-6zm12.8 4.7h-.8c-.3-.9-.7-1.1-1.6-1.1h-1.4v2.3c0 .7.2 1.2 1.5 1.2 1.1 0 1.8-.2 2.9-1.5h.8l-.4 2h-8v-.5c.7 0 1.1-.3 1.1-1v-5c0-.6-.3-1-1.1-1V.2h7.9v1.7h-.8C101 1 100.5.7 99.5.7h-1.7v3h1.4c1 0 1.4-.3 1.6-1h.8v2.7zm5.2 1.3c0 .7.2 1.1 1 1.1v.6h-4.2v-.6c.9 0 1.1-.3 1.1-1v-5c0-.7-.3-1-1.1-1V.2h5.5c2.1 0 2.6 1.3 2.6 2.1 0 1-.9 1.9-2.1 2.1l2 2.5c.6.7.7.8 1 .9v.6h-2.4c-.2-.1-1.1-1.4-1.8-2.4-.8-1.1-.9-1.3-1.3-1.3h-.3v2zm0-2.6h.7c1.4 0 1.9-.5 1.9-1.7 0-1-.5-1.7-1.8-1.7h-.9v3.4zm10.3 4.2h-4.2v-.5c.8 0 1-.3 1-1v-5c0-.7-.2-1.1-1-1.1V.2h4.2v.6c-.9 0-1.1.4-1.1 1.1v5c0 .6.2 1 1.1 1v.4z"/></svg>