<?xml version="1.0" encoding="utf-8"?>
<!-- Generator: Adobe Illustrator 22.0.0, SVG Export Plug-In . SVG Version: 6.00 Build 0)  -->
<svg version="1.1" id="Laag_1" xmlns="http://www.w3.org/2000/svg" xmlns:xlink="http://www.w3.org/1999/xlink" x="0px" y="0px"
	 viewBox="0 0 656.2 768" style="enable-background:new 0 0 656.2 768;" xml:space="preserve">
<style type="text/css">
	.st0{clip-path:url(#SVGID_2_);fill:#FFFFFF;}
</style>
<g>
	<polygon points="0,0.3 0,763.7 641.2,0.3 	"/>
	<g>
		<defs>
			<rect id="SVGID_1_" x="29.6" y="35.4" width="390.6" height="243"/>
		</defs>
		<clipPath id="SVGID_2_">
			<use xlink:href="#SVGID_1_"  style="overflow:visible;"/>
		</clipPath>
		<path class="st0" d="M101,128v-0.2H79.6v0.2l8.8,11.6c0.3,0.4,0.6,0.8,0.7,1v32.3l-28.9-45.1H39.9v0.2l8.4,10.4v38.2
			c-0.1,0.1-0.1,0.1-0.2,0.2l-8.6,11.6v0.2h21.4v-0.2l-8.9-11.7c-0.4-0.5-0.6-0.8-0.8-1.2v-32.7l29.4,45.7h10.5v-0.1h0.9v-48.6
			c0.1-0.1,0.1-0.2,0.2-0.3L101,128z"/>
		<path class="st0" d="M67.7,108.9l-5.6-5.4c-0.8-0.7-0.9-0.9-0.9-2.1V80.8H81v20.7c0,1.1-0.2,1.4-0.9,2.1l-5.6,5.4v0.2h28.3v-0.2
			l-5.6-5.4c-0.7-0.7-0.8-0.9-0.8-2.1V56.5c0-1.1,0.1-1.4,0.8-2.1l5.6-5.4v-0.2H74.5v0.2l5.6,5.4c0.8,0.7,0.9,0.9,0.9,2.1v20.9H61.2
			V56.5c0-1.1,0.1-1.4,0.9-2.1l5.6-5.4v-0.2H39.3v0.2l5.7,5.4c0.7,0.7,0.8,0.9,0.8,2.1v44.9c0,1.1-0.1,1.4-0.8,2.1l-5.7,5.4v0.2
			h28.4V108.9z"/>
		<path class="st0" d="M125.4,109.8c10,0,16.6-5,18.8-15.8h-0.2c-2.8,5.6-7.8,7.9-13,7.9c-6.6,0-12.2-4.5-12.2-15.7V86h25.6
			c0.1-1,0.1-1.6,0.1-1.9C144.6,70.3,135,66,126,66c-11.3,0-21.4,6.3-21.4,22.2C104.6,103.3,114.7,109.8,125.4,109.8 M125.8,67.7
			c3.5,0,5.8,3,5.8,14.2c0,0.1,0,0.2,0,0.4H119C119.4,71.5,121.8,67.7,125.8,67.7"/>
		<path class="st0" d="M151.4,98.1c0,7.7,3.7,11.7,11.1,11.7c8.1,0,11.6-5,12.4-9.8l-0.2-0.1c-0.9,1.7-2.7,3.2-4.9,3.2
			c-2.8,0-4.5-2.2-4.5-6.1V69.7h10.5v-1.3v-1.7v-0.1h-10.5V52.4h-0.2l-11.9,13.4c-0.5,0.6-0.9,0.8-1.4,0.9h-5.2v3h4.7V98.1z"/>
		<path class="st0" d="M121.6,166.4c-2.3-1.6-5.4-2.3-9-2.3c-7,0-14.3,4.5-14.3,12.9c0,7.9,5.4,12.1,11.6,12.1
			c5.5,0,9.9-3.3,11.6-8.3c0.3,5.4,4.4,8.3,9.3,8.3c4.1,0,7-1.9,8.4-4.7c0.5-1,0.7-2.3,0.7-3.1h-0.2c-0.5,1-1.3,1.5-2.4,1.5
			c-1.7,0-2.5-1.6-2.3-5l0.5-12.2c0-0.3,0.1-2.2,0.1-3.1c0-6.6-1.5-10.8-4.3-13.4c-3.1-2.9-7.5-3.9-13.2-3.9
			c-5.5,0-11.5,1.2-17.2,3.3l5.4,12.2h0.2l6.9-12.8c0.5-0.9,0.6-1,2.3-1c4.4,0,6.2,3.9,6.2,9.8v0.4L121.6,166.4z M121.4,179.8
			L121.4,179.8c-1.1,1.8-3,3.1-4.9,3.1c-2.9,0-5-2.6-5-7.3c0-5,2.5-8.8,6.9-8.8c1.1,0,2.1,0.2,3.2,0.5L121.4,179.8z"/>
		<path class="st0" d="M156,189.1c8.1,0,11.6-5,12.4-9.8l-0.2-0.1c-0.9,1.7-2.7,3.2-4.9,3.2c-2.8,0-4.5-2.2-4.5-6.1v-27.2h14.3
			l1.3,1.4c0.7,0.8,0.8,1,0.8,2.1v29.6c0,1.1,0,1.4-0.8,2.1l-4.2,3.9v0.2h23.9v-0.2l-4.2-3.9c-0.8-0.7-0.8-0.9-0.8-2.1v-36.2h-18.9
			v0h-1v0h-10.5v-14.4h-0.2l-11.9,13.4c-0.9,0.9-1.3,0.9-2.6,0.9h-3.8v0h0v3h4.7v28.3C145,185.1,148.6,189.1,156,189.1"/>
		<path class="st0" d="M182,141.4c3.8,0,6.9-2.5,6.9-6.3c0-4.1-3.1-6.7-6.9-6.7c-3.7,0-6.8,2.6-6.8,6.7
			C175.2,138.9,178.4,141.4,182,141.4"/>
		<path class="st0" d="M218.8,189.1c13.5,0,22.5-7.4,22.5-21.8c0-14.6-9-21.9-22.5-21.9c-13.5,0-22.4,7.4-22.4,21.8
			C196.4,181.8,205.4,189.1,218.8,189.1 M218.8,147c4.3,0,6.9,3.8,6.9,20.3c0,16.6-2.6,20.3-6.9,20.3c-4.3,0-6.9-3.9-6.9-20.4
			C211.9,150.6,214.6,147,218.8,147"/>
		<path class="st0" d="M267.8,188.3l-4.2-3.9c-0.8-0.7-0.8-0.9-0.8-2.1v-26c1.5-2.2,3.6-3.8,6.3-3.8c5.3,0,6.5,5.1,6.5,12.9
			c0,4.1-0.3,15.7-0.3,16.9c0,0.9-0.1,1.3-0.8,2l-4.1,3.9v0.2h23.9v-0.2l-4.3-3.9c-0.7-0.7-0.8-0.9-0.8-2.1
			c0.1-6.8,0.3-13.5,0.3-18.8c0-11.8-4.8-18.1-13.3-18.1c-6.9,0-11.4,3.8-13.5,9.8v-9.1H244v0.2l4.2,4.3c0.7,0.8,0.8,1,0.8,2.1v29.6
			c0,1.1,0,1.4-0.8,2.1l-4.2,3.9v0.2h23.9V188.3z"/>
		<path class="st0" d="M319.6,166.4c-2.3-1.6-5.4-2.3-9-2.3c-7,0-14.3,4.5-14.3,12.9c0,7.9,5.4,12.1,11.6,12.1
			c5.5,0,9.9-3.3,11.6-8.3c0.3,5.4,4.4,8.3,9.3,8.3c4.1,0,7-1.9,8.4-4.7c0.5-1,0.7-2.3,0.7-3.1h-0.2c-0.5,1-1.3,1.5-2.4,1.5
			c-1.7,0-2.5-1.6-2.3-5l0.5-12.2c0-0.3,0.1-2.2,0.1-3.1c0-6.6-1.5-10.8-4.3-13.4c-3.1-2.9-7.5-3.9-13.2-3.9
			c-5.5,0-11.5,1.2-17.2,3.3l5.4,12.2h0.2l6.9-12.8c0.5-0.9,0.6-1,2.3-1c4.4,0,6.2,3.9,6.2,9.8v0.4L319.6,166.4z M319.5,179.8
			L319.5,179.8c-1.1,1.8-3,3.1-4.9,3.1c-2.9,0-5-2.6-5-7.3c0-5,2.5-8.8,6.9-8.8c1.1,0,2.1,0.2,3.2,0.5L319.5,179.8z"/>
		<path class="st0" d="M358,182.3V126l-18.8,2.2v0.2l4.2,3.9c0.7,0.7,0.8,1,0.8,2.1v47.8c0,1.1-0.1,1.4-0.8,2.1l-4.2,3.9v0.2H363
			v-0.2l-4.2-3.9C358.1,183.6,358,183.4,358,182.3"/>
		<path class="st0" d="M138.8,263.5c0.1-6.8,0.3-13.5,0.3-18.8c0-11.8-4.7-18.1-13.3-18.1c-7,0-11.4,3.9-13.5,10v-29.4l-18.8,2.2
			v0.2l4.2,3.9c0.7,0.7,0.8,1,0.8,2.1v47.8c0,1.1-0.1,1.4-0.8,2.1l-4.2,3.9v0.2h23.9v-0.2l-4.2-3.9c-0.8-0.7-0.9-0.9-0.9-2.1v-25.9
			c1.5-2.2,3.5-3.9,6.4-3.9c5.2,0,6.5,5.1,6.5,12.9c0,4.1-0.3,15.7-0.3,16.9c0,0.9-0.1,1.3-0.9,2l-4,3.9v0.2h23.9v-0.2l-4.2-3.9
			C138.9,264.9,138.8,264.6,138.8,263.5"/>
		<path class="st0" d="M167.2,226.6c-11.3,0-21.4,6.3-21.4,22.2c0,15.1,10.1,21.6,20.9,21.6c10,0,16.6-5.1,18.8-15.8h-0.2
			c-2.8,5.6-7.8,7.9-13,7.9c-6.6,0-12.2-4.5-12.2-15.7v-0.2h25.6c0.1-1,0.1-1.6,0.1-1.9C185.8,230.9,176.2,226.6,167.2,226.6
			 M167,228.2c3.5,0,5.8,3,5.8,14.2c0,0.1,0,0.4,0,0.7h-12.6C160.6,232.2,163,228.2,167,228.2"/>
		<path class="st0" d="M228.3,264.1c-1.7,0-2.5-1.6-2.3-5l0.5-12.2c0-0.3,0.1-2.2,0.1-3.1c0-6.6-1.5-10.8-4.3-13.4
			c-3.1-2.9-7.5-3.9-13.2-3.9c-5.5,0-11.5,1.2-17.2,3.3l5.4,12.2h0.2l6.9-12.8c0.5-0.9,0.6-1,2.3-1c4.4,0,6.2,3.9,6.2,9.8v0.4
			l-0.2,9.2c-2.3-1.6-5.4-2.3-9-2.3c-7,0-14.3,4.5-14.3,12.9c0,7.9,5.4,12.1,11.6,12.1c5.5,0,9.9-3.3,11.6-8.3
			c0.3,5.4,4.4,8.3,9.3,8.3c4.1,0,7-1.9,8.4-4.7c0.5-1,0.7-2.3,0.7-3.1h-0.2C230.2,263.6,229.4,264.1,228.3,264.1 M212.5,261
			L212.5,261c-1.1,1.8-3,3.1-4.9,3.1c-2.9,0-5-2.6-5-7.3c0-5,2.5-8.8,6.9-8.8c1.1,0,2.1,0.2,3.2,0.5L212.5,261z"/>
		<path class="st0" d="M249.9,212.9h-0.2l-11.9,13.4c-0.9,0.9-1.3,0.9-2.6,0.9h-3.8v0.2h-0.1v3h4.8v28.1c0,7.7,3.7,11.7,11.1,11.7
			c8.1,0,11.6-5,12.4-9.8l-0.2-0.1c-0.9,1.7-2.7,3.2-4.9,3.2c-2.8,0-4.5-2.2-4.5-6.1v-27.1h10.4V229h0v-1.7h-10.5V212.9z"/>
		<path class="st0" d="M282.4,226.6c-11.3,0-21.4,6.3-21.4,22.2c0,15.1,10.1,21.6,20.9,21.6c10,0,16.6-5.1,18.8-15.8h-0.2
			c-2.8,5.6-7.8,7.9-13,7.9c-6.6,0-12.2-4.5-12.2-15.7v-0.2H301c0.1-1,0.1-1.6,0.1-1.9C301.1,230.9,291.4,226.6,282.4,226.6
			 M282.2,228.2c3.5,0,5.8,3,5.8,14.2c0,0.1,0,0.4,0,0.7h-12.6C275.8,232.2,278.2,228.2,282.2,228.2"/>
		<path class="st0" d="M333.8,226.6c-6,0-9.5,5.6-11,11.6v-11h-18.9v0.2l4.2,4.3c0.7,0.8,0.8,1,0.8,2.1v29.6c0,1.1,0,1.4-0.8,2.1
			l-4.2,3.9v0.2h28.5v-0.2l-8.4-4.9c-1.2-0.8-1.3-1.2-1.3-2.1v-23.1c1.3-2.4,2.2-3.9,3.7-5c0.6-0.4,1.1-0.1,1.5,0.4l6.7,8h0.2
			l4.7-13.4C338.3,227.7,336.3,226.6,333.8,226.6"/>
		<path class="st0" d="M402.5,165.3L402.5,165.3l2.3,0c0.1-1,0.1-1.6,0.1-1.9c0-13.8-9.6-18.1-18.7-18.1c-11.3,0-21.4,6.3-21.4,22.2
			c0,15.1,10.1,21.6,20.9,21.6c10,0,16.6-5,18.8-15.8h-0.2c-2.8,5.6-7.8,7.9-13,7.9c-6.6,0-12.2-4.5-12.2-15.7v-0.2H402.5z
			 M386.1,147c3.5,0,5.8,3,5.8,14.2c0,0.2,0,0.6,0,1.1h-12.6C379.7,151,382,147,386.1,147"/>
		<path class="st0" d="M48.1,209.4h-8.1v23.3h0.2l10.6-20.2c0,0,0,0,0-0.1h7.1v49.4c0,1.3-0.2,1.5-0.9,2.2l-6.4,5.9v0.2h30.1v-0.2
			l-6.4-5.9c-0.9-0.8-0.9-1-0.9-2.2v-49.4h7.1c0,0,0,0,0,0.1l10.6,20.2h0.2v-23.3h-1.5H48.1z"/>
	</g>
</g>
</svg>
