<?xml version="1.0" encoding="utf-8"?>
<!-- Generator: Adobe Illustrator 24.3.0, SVG Export Plug-In . SVG Version: 6.00 Build 0)  -->
<svg version="1.1" id="Laag_1" xmlns="http://www.w3.org/2000/svg" xmlns:xlink="http://www.w3.org/1999/xlink" x="0px" y="0px"
	 width="116.7px" height="20.3px" viewBox="0 0 116.7 20.3" style="enable-background:new 0 0 116.7 20.3;" xml:space="preserve">
<g>
	<g>
		<path d="M8.5,20.3c-1.3,0-2.4-0.2-3.4-0.7c-1-0.4-1.9-1-2.7-1.8c-0.8-0.9-1.4-1.9-1.8-3C0.2,13.6,0,12.4,0,11s0.2-2.7,0.7-3.9
			s1.1-2.2,2-3.1c0.8-0.8,1.6-1.3,2.7-1.8c1-0.4,2.2-0.6,3.5-0.6c1.2,0,2.2,0.1,3.1,0.4c0.9,0.3,1.7,0.7,2.4,1.2s1.2,1.2,1.6,2
			c0.4,0.8,0.7,1.6,0.8,2.5h-4.3C12.3,7,12,6.4,11.4,5.9S10,5.2,9.1,5.2C8.2,5.3,7.5,5.4,7,5.7C6.4,6,6,6.4,5.6,6.9S5,8,4.8,8.7
			C4.6,9.4,4.5,10.2,4.5,11s0.1,1.6,0.3,2.3C5,14,5.3,14.6,5.7,15.1c0.4,0.5,0.9,0.9,1.4,1.2c0.6,0.3,1.2,0.4,1.9,0.4
			c0.6,0,1.1-0.1,1.6-0.3c0.5-0.2,0.9-0.4,1.2-0.7s0.6-0.6,0.8-1s0.3-0.8,0.4-1.2l0,0H9.5v-3.2H17v9.6h-3.1l-0.2-2.2l0,0
			c-0.6,0.9-1.3,1.6-2.2,2S9.6,20.3,8.5,20.3z"/>
		<path d="M19,2h4.1v17.9H19V2z"/>
		<path d="M28.9,20.2c-0.6,0-1.2-0.1-1.8-0.2c-0.5-0.2-1-0.4-1.4-0.8S25,18.5,24.8,18c-0.2-0.5-0.3-1-0.3-1.7c0-0.7,0.1-1.3,0.4-1.8
			s0.6-0.9,1.1-1.2c0.4-0.3,1-0.5,1.6-0.7s1.2-0.3,1.9-0.4c1.2-0.2,2-0.3,2.5-0.5c0.5-0.2,0.7-0.5,0.7-0.9s-0.1-0.8-0.4-1
			S31.6,9.4,31,9.4c-0.6,0-1.1,0.1-1.5,0.4c-0.3,0.3-0.5,0.7-0.6,1.2h-3.8c0-0.6,0.1-1.2,0.4-1.7c0.2-0.5,0.6-1,1.1-1.4
			s1.1-0.7,1.8-1s1.6-0.4,2.5-0.4c1,0,1.8,0.1,2.5,0.3c0.6,0.4,1.2,0.6,1.6,1c0.6,0.4,1,0.9,1.2,1.5c0.3,0.6,0.4,1.3,0.4,2.1v6.5
			c0,0.5,0,0.9,0.1,1.2c0.1,0.3,0.2,0.5,0.4,0.6v0.2h-4c-0.1-0.1-0.2-0.3-0.2-0.6c-0.1-0.2-0.1-0.5-0.2-0.9l0,0
			c-0.4,0.5-0.9,1-1.5,1.3S29.9,20.2,28.9,20.2z M30.2,17.6c0.8,0,1.4-0.2,1.9-0.6c0.5-0.4,0.7-1,0.7-1.7v-1.5
			c-0.3,0.1-0.6,0.3-0.9,0.4s-0.7,0.2-1.2,0.3c-0.8,0.2-1.3,0.4-1.7,0.6c-0.4,0.2-0.5,0.6-0.5,1.1s0.2,0.9,0.5,1.1
			C29.3,17.5,29.7,17.6,30.2,17.6z"/>
		<path d="M44.1,20.3c-1.9,0-3.4-0.4-4.5-1.2s-1.7-1.9-1.8-3.3h3.8c0.1,0.6,0.3,1.1,0.7,1.4c0.4,0.3,0.9,0.5,1.6,0.5
			c0.6,0,1.1-0.1,1.5-0.3c0.4-0.2,0.5-0.5,0.5-1c0-0.3-0.1-0.5-0.3-0.7s-0.4-0.3-0.7-0.4S44.4,15,44,15c-0.4-0.1-0.8-0.1-1.2-0.2
			c-0.5-0.1-1.1-0.2-1.7-0.4c-0.5-0.1-1-0.4-1.5-0.6s-0.8-0.7-1.1-1.1c-0.3-0.5-0.4-1.1-0.4-1.8s0.1-1.3,0.4-1.8
			c0.3-0.5,0.7-0.9,1.2-1.3c0.5-0.3,1.1-0.6,1.8-0.8c0.7-0.2,1.4-0.3,2.1-0.3c1.8,0,3.2,0.4,4.2,1.1s1.5,1.7,1.6,3h-3.8
			c-0.1-0.6-0.3-1-0.7-1.2s-0.8-0.3-1.4-0.3c-0.5,0-0.9,0.1-1.3,0.3c-0.3,0.2-0.5,0.5-0.5,0.9c0,0.2,0.1,0.4,0.2,0.6
			c0.2,0.1,0.4,0.2,0.7,0.3s0.6,0.2,1,0.2c0.4,0.1,0.8,0.1,1.2,0.2c0.6,0.1,1.1,0.2,1.7,0.4c0.6,0.1,1.1,0.4,1.6,0.7
			s0.9,0.7,1.2,1.2s0.5,1.2,0.5,2c0,0.7-0.1,1.3-0.4,1.8s-0.7,1-1.2,1.3s-1.1,0.6-1.9,0.8S44.9,20.3,44.1,20.3z"/>
		<path d="M51.2,2h4.1v6.7h0.1c0.5-0.6,1-1.1,1.6-1.4s1.3-0.5,2.2-0.5c0.7,0,1.3,0.1,1.9,0.4c0.6,0.2,1,0.6,1.4,1
			c0.4,0.4,0.7,0.9,0.9,1.5s0.3,1.2,0.3,2V20h-4.1v-7.5c0-0.7-0.2-1.2-0.5-1.7c-0.3-0.4-0.8-0.6-1.5-0.6S56.4,10.4,56,11
			c-0.4,0.5-0.6,1.2-0.6,2v7.1h-4.1V2H51.2z"/>
		<path d="M69.3,20.2c-0.6,0-1.2-0.1-1.8-0.2c-0.5-0.2-1-0.4-1.4-0.8c-0.4-0.3-0.7-0.7-0.9-1.2c-0.2-0.5-0.3-1-0.3-1.7
			c0-0.7,0.1-1.3,0.4-1.8s0.6-0.9,1.1-1.2s1-0.5,1.6-0.7s1.2-0.3,1.9-0.4c1.2-0.2,2-0.3,2.5-0.5s0.7-0.5,0.7-0.9s-0.1-0.8-0.4-1
			S72,9.4,71.4,9.4c-0.7,0-1.1,0.1-1.5,0.4c-0.3,0.3-0.5,0.7-0.6,1.2h-3.8c0-0.6,0.2-1.2,0.4-1.7c0.2-0.5,0.6-1,1.1-1.4
			s1.1-0.7,1.8-1c0.7-0.2,1.6-0.4,2.5-0.4s1.8,0.1,2.5,0.3C74.5,7,75,7.2,75.5,7.6c0.5,0.4,1,0.9,1.2,1.5c0.3,0.6,0.4,1.3,0.4,2.1
			v6.5c0,0.5,0,0.9,0.1,1.2c0.1,0.3,0.2,0.5,0.4,0.6v0.2h-4c-0.1-0.1-0.2-0.3-0.2-0.6c-0.1-0.2-0.1-0.5-0.2-0.9h-0.1
			c-0.4,0.5-0.9,1-1.5,1.3C71,20,70.2,20.2,69.3,20.2z M70.6,17.6c0.8,0,1.4-0.2,1.9-0.6s0.7-1,0.7-1.7v-1.5
			c-0.3,0.1-0.6,0.3-0.9,0.4s-0.7,0.2-1.2,0.3c-0.8,0.2-1.4,0.4-1.7,0.6c-0.3,0.2-0.5,0.6-0.5,1.1s0.2,0.9,0.5,1.1
			C69.7,17.5,70.1,17.6,70.6,17.6z"/>
		<path d="M79,7.1h3.9v2H83c0.5-0.8,1-1.3,1.5-1.7c0.5-0.4,1.2-0.5,2-0.5c0.4,0,0.7,0,0.8,0.1v3.5h-0.1c-1.2-0.2-2.2,0-3,0.6
			c-0.7,0.6-1.1,1.6-1.1,3v5.8H79V7.1z"/>
		<path d="M93.4,20.3c-0.8,0-1.6-0.2-2.2-0.5s-1.3-0.8-1.8-1.3c-0.5-0.6-0.9-1.3-1.2-2.1c-0.3-0.8-0.4-1.8-0.4-2.9
			c0-1,0.1-1.9,0.4-2.8c0.3-0.8,0.7-1.5,1.2-2.1c0.5-0.6,1.1-1.1,1.8-1.4c0.7-0.3,1.4-0.5,2.3-0.5s1.6,0.2,2.2,0.5s1,0.8,1.4,1.3H97
			V2h4.1v17.9h-3.9v-1.7l0,0c-0.4,0.7-0.9,1.2-1.5,1.6S94.2,20.3,93.4,20.3z M94.4,17c0.9,0,1.5-0.3,2-1c0.5-0.7,0.7-1.5,0.7-2.6
			c0-0.5-0.1-1-0.2-1.5s-0.3-0.8-0.5-1.2c-0.2-0.3-0.5-0.6-0.8-0.8s-0.7-0.3-1.2-0.3c-0.8,0-1.5,0.3-1.9,1c-0.5,0.7-0.7,1.6-0.7,2.6
			c0,1.1,0.2,2,0.7,2.7C93,16.7,93.6,17,94.4,17z"/>
	</g>
	<g>
		<path d="M108.3,0h3.4v3.8l3.3-1.9l1.7,2.9l-3.3,1.9l3.3,1.9l-1.7,2.9l-3.3-1.9v3.8h-3.4V9.7l-3.3,1.9l-1.7-2.9l3.3-1.9l-3.3-1.9
			L105,2l3.3,1.9V0z"/>
	</g>
</g>
</svg>
