<?xml version="1.0" encoding="utf-8"?>
<!-- Generator: Adobe Illustrator 24.0.0, SVG Export Plug-In . SVG Version: 6.00 Build 0)  -->
<svg version="1.1" id="Laag_1" xmlns="http://www.w3.org/2000/svg" xmlns:xlink="http://www.w3.org/1999/xlink" x="0px" y="0px"
	 width="142.1px" height="18.2px" viewBox="0 0 142.1 18.2" style="enable-background:new 0 0 142.1 18.2;" xml:space="preserve">
<style type="text/css">
	.st0{fill:#FFFFFF;}
</style>
<g>
	<path class="st0" d="M0,0h3.6v14.8H12v3H0V0z"/>
	<path class="st0" d="M21.9,17.9c-0.1-0.1-0.2-0.3-0.2-0.6c-0.1-0.3-0.1-0.5-0.1-0.8h0c-0.2,0.2-0.4,0.5-0.6,0.7
		c-0.2,0.2-0.5,0.4-0.8,0.5c-0.3,0.2-0.6,0.3-1,0.4s-0.9,0.1-1.4,0.1c-1.3,0-2.4-0.3-3.2-1c-0.8-0.7-1.2-1.6-1.2-2.9
		c0-0.7,0.1-1.3,0.4-1.8c0.3-0.5,0.6-0.9,1.1-1.2c0.5-0.3,1-0.6,1.6-0.7s1.3-0.3,2-0.4c1.1-0.2,1.9-0.3,2.4-0.5
		c0.5-0.2,0.8-0.5,0.8-1c0-0.5-0.2-0.8-0.5-1.1S20,7.2,19.3,7.2c-0.8,0-1.4,0.1-1.8,0.4c-0.4,0.3-0.6,0.7-0.7,1.4h-3
		c0-0.6,0.1-1.1,0.4-1.6c0.2-0.5,0.6-1,1-1.3c0.4-0.4,1-0.7,1.7-0.9c0.7-0.2,1.5-0.3,2.4-0.3c1.9,0,3.3,0.4,4.1,1.2
		c0.8,0.8,1.3,2,1.3,3.5V16c0,1,0.1,1.6,0.5,1.8v0.1H21.9z M18.5,15.8c0.5,0,0.9-0.1,1.3-0.2c0.4-0.1,0.7-0.3,1-0.6
		c0.3-0.2,0.5-0.5,0.6-0.8c0.1-0.3,0.2-0.6,0.2-0.9v-1.9c-0.3,0.2-0.7,0.3-1.1,0.4c-0.4,0.1-0.9,0.2-1.3,0.3c-0.9,0.2-1.6,0.4-2,0.7
		c-0.4,0.3-0.6,0.7-0.6,1.3c0,0.6,0.2,1,0.6,1.3C17.4,15.7,17.9,15.8,18.5,15.8z"/>
	<path class="st0" d="M34.9,17.9c-0.1-0.1-0.2-0.3-0.2-0.6c-0.1-0.3-0.1-0.5-0.1-0.8h0c-0.2,0.2-0.4,0.5-0.6,0.7
		c-0.2,0.2-0.5,0.4-0.8,0.5c-0.3,0.2-0.6,0.3-1,0.4s-0.9,0.1-1.4,0.1c-1.3,0-2.4-0.3-3.2-1c-0.8-0.7-1.2-1.6-1.2-2.9
		c0-0.7,0.1-1.3,0.4-1.8c0.3-0.5,0.6-0.9,1.1-1.2c0.5-0.3,1-0.6,1.6-0.7s1.3-0.3,2-0.4c1.1-0.2,1.9-0.3,2.4-0.5
		c0.5-0.2,0.8-0.5,0.8-1c0-0.5-0.2-0.8-0.5-1.1s-0.9-0.4-1.6-0.4c-0.8,0-1.4,0.1-1.8,0.4c-0.4,0.3-0.6,0.7-0.7,1.4h-3
		c0-0.6,0.1-1.1,0.4-1.6c0.2-0.5,0.6-1,1-1.3c0.4-0.4,1-0.7,1.7-0.9c0.7-0.2,1.5-0.3,2.4-0.3c1.9,0,3.3,0.4,4.1,1.2
		c0.8,0.8,1.3,2,1.3,3.5V16c0,1,0.1,1.6,0.5,1.8v0.1H34.9z M31.5,15.8c0.5,0,0.9-0.1,1.3-0.2c0.4-0.1,0.7-0.3,1-0.6
		c0.3-0.2,0.5-0.5,0.6-0.8c0.1-0.3,0.2-0.6,0.2-0.9v-1.9c-0.3,0.2-0.7,0.3-1.1,0.4c-0.4,0.1-0.9,0.2-1.3,0.3c-0.9,0.2-1.6,0.4-2,0.7
		c-0.4,0.3-0.6,0.7-0.6,1.3c0,0.6,0.2,1,0.6,1.3C30.5,15.7,30.9,15.8,31.5,15.8z"/>
	<path class="st0" d="M38.9,5h1.8V1H44v4h2.2v2.2H44v6.8c0,0.5,0.1,0.8,0.3,1s0.5,0.3,0.9,0.3H46c0.1,0,0.2,0,0.4,0v2.5
		c-0.2,0-0.4,0-0.6,0c-0.2,0-0.4,0-0.7,0s-0.6,0-0.9,0c-0.4,0-0.8,0-1.2-0.1s-0.8-0.3-1.1-0.5c-0.3-0.2-0.6-0.6-0.8-1
		c-0.2-0.4-0.3-0.9-0.3-1.5V7.3h-1.8V5z"/>
	<path class="st0" d="M53.3,18.2c-1.9,0-3.3-0.4-4.3-1.2c-1-0.8-1.6-1.9-1.7-3.3h3.2c0.1,0.8,0.4,1.3,0.9,1.6s1.1,0.5,1.9,0.5
		c0.8,0,1.3-0.1,1.7-0.4c0.4-0.3,0.6-0.6,0.6-1.1c0-0.3-0.1-0.5-0.3-0.7c-0.2-0.2-0.4-0.3-0.8-0.5c-0.3-0.1-0.7-0.2-1.1-0.3
		s-0.8-0.2-1.3-0.2c-0.6-0.1-1.1-0.2-1.7-0.4c-0.5-0.2-1-0.4-1.5-0.7c-0.4-0.3-0.8-0.7-1-1.1c-0.3-0.5-0.4-1-0.4-1.7
		c0-0.7,0.1-1.3,0.4-1.8c0.3-0.5,0.6-0.9,1.1-1.3s1-0.6,1.7-0.8c0.6-0.2,1.3-0.2,2-0.2c1.7,0,3,0.4,3.9,1.2c0.9,0.8,1.4,1.8,1.6,3.1
		h-3.1c-0.1-0.7-0.3-1.2-0.8-1.5c-0.4-0.3-1-0.4-1.7-0.4c-0.7,0-1.2,0.1-1.6,0.4S50.6,8,50.6,8.5c0,0.3,0.1,0.5,0.3,0.7
		c0.2,0.2,0.5,0.3,0.8,0.4c0.3,0.1,0.7,0.2,1.1,0.3c0.4,0.1,0.9,0.2,1.3,0.2c0.5,0.1,1.1,0.2,1.6,0.4c0.5,0.2,1,0.4,1.5,0.7
		c0.4,0.3,0.8,0.7,1,1.2s0.4,1.1,0.4,1.8c0,0.7-0.1,1.2-0.4,1.7c-0.3,0.5-0.6,0.9-1.1,1.3c-0.5,0.3-1,0.6-1.7,0.8
		S54.1,18.2,53.3,18.2z"/>
	<path class="st0" d="M59.2,5H61V1h3.3v4h2.2v2.2h-2.2v6.8c0,0.5,0.1,0.8,0.3,1s0.5,0.3,0.9,0.3h0.6c0.1,0,0.2,0,0.4,0v2.5
		c-0.2,0-0.4,0-0.6,0c-0.2,0-0.4,0-0.7,0s-0.6,0-0.9,0c-0.4,0-0.8,0-1.2-0.1s-0.8-0.3-1.1-0.5c-0.3-0.2-0.6-0.6-0.8-1
		S61,15.4,61,14.8V7.3h-1.8V5z"/>
	<path class="st0" d="M74.2,18.2c-1.1,0-2-0.2-2.8-0.5s-1.5-0.8-2.1-1.4c-0.6-0.6-1-1.3-1.3-2.2s-0.4-1.7-0.4-2.7
		c0-0.9,0.2-1.8,0.5-2.7c0.3-0.8,0.7-1.5,1.3-2.1c0.6-0.6,1.2-1.1,2-1.4s1.6-0.5,2.6-0.5c1,0,1.9,0.2,2.7,0.6s1.4,0.9,2,1.6
		c0.5,0.7,0.9,1.5,1.2,2.4c0.3,0.9,0.4,2,0.4,3.1h-9.3c0.1,1,0.5,1.8,1,2.4c0.5,0.6,1.3,0.8,2.3,0.8c0.7,0,1.2-0.1,1.6-0.4
		c0.4-0.3,0.7-0.7,0.9-1.2H80c-0.1,0.6-0.3,1.1-0.6,1.6s-0.7,1-1.2,1.3c-0.5,0.4-1.1,0.7-1.7,0.9S75,18.2,74.2,18.2z M73.9,7.3
		c-0.9,0-1.6,0.2-2,0.7s-0.8,1.2-0.9,2h5.7c-0.1-0.8-0.3-1.5-0.8-2C75.4,7.6,74.7,7.3,73.9,7.3z"/>
	<path class="st0" d="M90.8,12l-1.5,1.5v4.3H86V0h3.4v9.9L93.9,5H98l-4.7,4.9l5.3,8h-4.1L90.8,12z"/>
	<path class="st0" d="M107.4,17.9c-0.1-0.1-0.2-0.3-0.2-0.6c-0.1-0.3-0.1-0.5-0.2-0.8h0c-0.2,0.2-0.4,0.5-0.6,0.7
		c-0.2,0.2-0.5,0.4-0.8,0.5c-0.3,0.2-0.6,0.3-1,0.4c-0.4,0.1-0.9,0.1-1.4,0.1c-1.3,0-2.4-0.3-3.2-1c-0.8-0.7-1.2-1.6-1.2-2.9
		c0-0.7,0.1-1.3,0.4-1.8c0.3-0.5,0.6-0.9,1.1-1.2s1-0.6,1.6-0.7s1.3-0.3,2-0.4c1.1-0.2,1.8-0.3,2.3-0.5c0.5-0.2,0.8-0.5,0.8-1
		c0-0.5-0.2-0.8-0.5-1.1s-0.9-0.4-1.6-0.4c-0.8,0-1.4,0.1-1.8,0.4c-0.4,0.3-0.6,0.7-0.7,1.4h-3c0-0.6,0.1-1.1,0.4-1.6
		c0.2-0.5,0.6-1,1-1.3s1-0.7,1.7-0.9c0.7-0.2,1.5-0.3,2.4-0.3c1.9,0,3.3,0.4,4.1,1.2c0.8,0.8,1.3,2,1.3,3.5V16c0,1,0.1,1.6,0.5,1.8
		v0.1H107.4z M104,15.8c0.5,0,0.9-0.1,1.3-0.2c0.4-0.1,0.7-0.3,1-0.6c0.3-0.2,0.5-0.5,0.6-0.8c0.1-0.3,0.2-0.6,0.2-0.9v-1.9
		c-0.3,0.2-0.7,0.3-1.1,0.4c-0.4,0.1-0.9,0.2-1.3,0.3c-0.9,0.2-1.6,0.4-2,0.7c-0.4,0.3-0.7,0.7-0.7,1.3c0,0.6,0.2,1,0.6,1.3
		C102.9,15.7,103.4,15.8,104,15.8z"/>
	<path class="st0" d="M115.7,6.8L115.7,6.8c0.5-0.7,1-1.2,1.6-1.6s1.4-0.5,2.2-0.5c0.7,0,1.3,0.1,1.8,0.4c0.5,0.2,1,0.6,1.4,1
		c0.4,0.4,0.7,0.9,0.9,1.5c0.2,0.6,0.3,1.2,0.3,1.9v8.4h-3.4V10c0-0.7-0.2-1.3-0.6-1.7c-0.4-0.4-0.9-0.6-1.6-0.6
		c-0.8,0-1.4,0.3-1.9,0.8c-0.5,0.5-0.7,1.3-0.7,2.1v7.3h-3.4V5h3.3V6.8z"/>
	<path class="st0" d="M131.3,18.2c-1.9,0-3.3-0.4-4.3-1.2c-1-0.8-1.6-1.9-1.7-3.3h3.2c0.1,0.8,0.4,1.3,0.9,1.6
		c0.5,0.3,1.1,0.5,1.9,0.5c0.8,0,1.3-0.1,1.7-0.4c0.4-0.3,0.6-0.6,0.6-1.1c0-0.3-0.1-0.5-0.3-0.7c-0.2-0.2-0.4-0.3-0.8-0.5
		c-0.3-0.1-0.7-0.2-1.1-0.3s-0.8-0.2-1.3-0.2c-0.6-0.1-1.1-0.2-1.7-0.4c-0.5-0.2-1-0.4-1.5-0.7c-0.4-0.3-0.8-0.7-1-1.1
		c-0.3-0.5-0.4-1-0.4-1.7c0-0.7,0.1-1.3,0.4-1.8c0.3-0.5,0.6-0.9,1.1-1.3c0.5-0.3,1-0.6,1.7-0.8c0.6-0.2,1.3-0.2,2-0.2
		c1.7,0,3,0.4,3.9,1.2c0.9,0.8,1.4,1.8,1.6,3.1h-3.1c-0.1-0.7-0.3-1.2-0.8-1.5c-0.4-0.3-1-0.4-1.7-0.4c-0.7,0-1.2,0.1-1.6,0.4
		c-0.4,0.2-0.6,0.6-0.6,1.1c0,0.3,0.1,0.5,0.3,0.7c0.2,0.2,0.5,0.3,0.8,0.4c0.3,0.1,0.7,0.2,1.1,0.3s0.9,0.2,1.3,0.2
		c0.5,0.1,1.1,0.2,1.6,0.4s1,0.4,1.5,0.7c0.4,0.3,0.8,0.7,1,1.2s0.4,1.1,0.4,1.8c0,0.7-0.1,1.2-0.4,1.7c-0.3,0.5-0.6,0.9-1.1,1.3
		c-0.5,0.3-1,0.6-1.7,0.8S132.1,18.2,131.3,18.2z"/>
	<path class="st0" d="M138.4,14.2h3.6v3.6h-3.6V14.2z M138.5,3.9V0h3.5v3.9l-1,8.7h-1.6L138.5,3.9z"/>
</g>
</svg>
