<?xml version="1.0" encoding="utf-8"?>
<!-- Generator: Adobe Illustrator 24.0.0, SVG Export Plug-In . SVG Version: 6.00 Build 0)  -->
<svg version="1.1" id="Laag_1" xmlns="http://www.w3.org/2000/svg" xmlns:xlink="http://www.w3.org/1999/xlink" x="0px" y="0px"
	 width="122.5px" height="71.7px" viewBox="0 0 122.5 71.7" style="enable-background:new 0 0 122.5 71.7;" xml:space="preserve">
<g>
	<path d="M0.3,1.8h5.5l2,7.2C7.9,9.3,8,9.6,8.1,10s0.2,0.8,0.3,1.2c0.1,0.5,0.2,1,0.4,1.5l0,0c0.1-0.5,0.2-1,0.3-1.5
		c0.1-0.4,0.2-0.8,0.3-1.2s0.2-0.8,0.3-1l2-7.2h5.5v16.4h-3.7V10c0-0.2,0-0.4,0-0.8c0-0.4,0-0.7,0-1.1c0-0.4,0-0.9,0-1.4l0,0
		c-0.1,0.5-0.2,0.9-0.3,1.3C13.1,8.3,13,8.7,13,9c-0.1,0.3-0.1,0.6-0.2,0.7l-2.4,8.5H7.1L4.7,9.8c0-0.2-0.1-0.4-0.2-0.7
		C4.4,8.7,4.3,8.3,4.3,8C4.2,7.6,4.1,7.2,4,6.7l0,0c0,0.5,0,1,0,1.4s0,0.7,0,1.1S4,9.8,4,10v8.2H0.3V1.8z"/>
	<path d="M22.7,18.5c-0.6,0-1.1-0.1-1.6-0.2c-0.5-0.2-0.9-0.4-1.3-0.7c-0.4-0.3-0.6-0.7-0.8-1.1c-0.2-0.4-0.3-1-0.3-1.5
		c0-0.6,0.1-1.2,0.4-1.6c0.2-0.4,0.6-0.8,1-1.1s0.9-0.5,1.4-0.7s1.1-0.3,1.7-0.3c1.1-0.1,1.9-0.3,2.3-0.5s0.7-0.5,0.7-0.8
		c0-0.4-0.1-0.7-0.4-0.9s-0.7-0.3-1.2-0.3c-0.6,0-1,0.1-1.4,0.4c-0.3,0.3-0.5,0.6-0.5,1.1h-3.4c0-0.5,0.1-1.1,0.4-1.6
		c0.2-0.5,0.6-0.9,1-1.3s1-0.7,1.6-0.9c0.7-0.2,1.4-0.3,2.3-0.3s1.6,0.1,2.2,0.2c0.6,0.2,1.1,0.4,1.6,0.7c0.5,0.4,0.9,0.8,1.1,1.4
		s0.4,1.2,0.4,1.9v5.9c0,0.5,0,0.8,0.1,1.1c0.1,0.3,0.2,0.5,0.3,0.6v0.2h-3.6c-0.1-0.1-0.2-0.3-0.2-0.5c-0.1-0.2-0.1-0.5-0.2-0.8
		l0,0c-0.4,0.5-0.8,0.9-1.3,1.2C24.3,18.4,23.6,18.5,22.7,18.5z M23.9,16.1c0.7,0,1.3-0.2,1.7-0.6c0.4-0.4,0.7-0.9,0.7-1.5v-1.4
		c-0.2,0.1-0.5,0.2-0.9,0.3s-0.7,0.2-1.1,0.3c-0.7,0.2-1.2,0.4-1.6,0.6c-0.3,0.2-0.5,0.6-0.5,1c0,0.5,0.2,0.8,0.5,1
		C23,16,23.4,16.1,23.9,16.1z"/>
	<path d="M37.1,22.3c-1.6,0-2.9-0.3-3.9-1s-1.6-1.6-1.8-2.8H35c0.1,0.3,0.3,0.6,0.6,0.8c0.3,0.2,0.8,0.3,1.4,0.3
		c0.8,0,1.4-0.2,1.7-0.6c0.4-0.4,0.5-0.9,0.5-1.7v-1.2h-0.1c-0.4,0.4-0.8,0.7-1.2,1c-0.5,0.3-1.1,0.4-1.8,0.4s-1.3-0.1-1.9-0.4
		c-0.6-0.2-1.2-0.6-1.6-1.1c-0.5-0.5-0.9-1-1.1-1.7c-0.3-0.7-0.4-1.5-0.4-2.4c0-0.9,0.1-1.6,0.4-2.4c0.2-0.7,0.6-1.3,1-1.9
		c0.4-0.5,1-0.9,1.6-1.2s1.3-0.4,2-0.4c0.8,0,1.4,0.1,2,0.4c0.5,0.3,1,0.7,1.3,1.2l0,0V6.5H43v10.6c0,0.9-0.1,1.6-0.4,2.3
		c-0.3,0.6-0.7,1.2-1.1,1.6c-0.5,0.5-1.1,0.8-1.9,1C38.8,22.2,37.9,22.3,37.1,22.3z M37.1,14.8c0.8,0,1.4-0.3,1.8-0.8
		c0.4-0.6,0.6-1.3,0.6-2.1c0-0.4,0-0.8-0.1-1.1c-0.1-0.4-0.3-0.7-0.5-0.9c-0.2-0.3-0.5-0.5-0.8-0.6C37.8,9,37.4,9,37.1,9
		c-0.7,0-1.3,0.3-1.7,0.8s-0.6,1.2-0.6,2.1s0.2,1.6,0.6,2.1C35.8,14.5,36.4,14.8,37.1,14.8z"/>
	<path d="M44.7,1.8h3.7v3h-3.7V1.8z M44.7,6.5h3.7v11.7h-3.7V6.5z"/>
	<path d="M55.2,18.6c-1.7,0-3.1-0.4-4.1-1.1s-1.5-1.8-1.6-3.1H53c0.1,0.6,0.3,1,0.7,1.3s0.9,0.4,1.5,0.4s1-0.1,1.3-0.3
		s0.5-0.5,0.5-0.9c0-0.3-0.1-0.5-0.3-0.6c-0.2-0.2-0.4-0.3-0.7-0.4c-0.3-0.1-0.6-0.2-1-0.2c-0.4-0.1-0.7-0.1-1.1-0.2
		c-0.5-0.1-1-0.2-1.5-0.3s-1-0.3-1.4-0.6s-0.7-0.6-1-1c-0.2-0.4-0.4-1-0.4-1.7c0-0.6,0.1-1.2,0.4-1.6c0.3-0.5,0.6-0.9,1.1-1.2
		c0.5-0.3,1-0.5,1.6-0.7s1.3-0.2,2-0.2c1.7,0,2.9,0.3,3.8,1c0.9,0.7,1.4,1.6,1.5,2.7h-3.4C56.5,9.4,56.3,9,56,8.8s-0.8-0.3-1.3-0.3
		s-0.8,0.1-1.2,0.3C53.2,9,53,9.2,53,9.6c0,0.2,0.1,0.4,0.2,0.5c0.2,0.1,0.4,0.2,0.6,0.3c0.3,0.1,0.6,0.2,0.9,0.2
		c0.3,0.1,0.7,0.1,1.1,0.2c0.5,0.1,1,0.2,1.6,0.3c0.5,0.1,1,0.3,1.4,0.6s0.8,0.6,1.1,1.1s0.4,1.1,0.4,1.8c0,0.6-0.1,1.2-0.4,1.7
		c-0.3,0.5-0.6,0.9-1.1,1.2c-0.5,0.3-1,0.6-1.7,0.7C56.7,18.5,56,18.6,55.2,18.6z"/>
	<path d="M67.6,18.6c-0.9,0-1.8-0.2-2.6-0.5c-0.8-0.3-1.4-0.7-2-1.3c-0.5-0.6-1-1.2-1.3-2s-0.4-1.6-0.4-2.5s0.1-1.7,0.4-2.5
		c0.3-0.8,0.7-1.4,1.2-2s1.2-1,1.9-1.3C65.6,6.2,66.4,6,67.3,6c0.8,0,1.5,0.1,2.2,0.3c0.6,0.2,1.2,0.5,1.7,0.9s0.9,0.9,1.1,1.4
		c0.3,0.5,0.5,1.2,0.6,1.8h-3.6c-0.1-0.5-0.3-1-0.7-1.3c-0.3-0.3-0.7-0.5-1.3-0.5c-0.8,0-1.4,0.3-1.8,0.9c-0.4,0.6-0.6,1.5-0.6,2.5
		c0,1.1,0.2,1.9,0.6,2.5s1,0.9,1.8,0.9c1.2,0,1.9-0.7,2-2h3.6c0,0.7-0.2,1.3-0.4,1.9c-0.3,0.6-0.6,1.1-1.1,1.5s-1.1,0.8-1.7,1
		C69.2,18.5,68.4,18.6,67.6,18.6z"/>
	<path d="M74.4,1.8h3.7v6.1h0.1c0.4-0.6,0.9-1,1.4-1.3s1.2-0.5,2-0.5c0.6,0,1.2,0.1,1.7,0.3c0.5,0.2,0.9,0.5,1.3,0.9
		s0.6,0.9,0.8,1.4c0.2,0.5,0.3,1.1,0.3,1.8v7.6H82v-6.9c0-0.6-0.2-1.1-0.5-1.5s-0.8-0.6-1.4-0.6S79,9.3,78.6,9.8S78,10.9,78,11.6
		v6.5h-3.7L74.4,1.8L74.4,1.8z"/>
	<path d="M93.2,18.6c-1,0-1.8-0.2-2.6-0.5c-0.8-0.3-1.4-0.7-2-1.3c-0.5-0.6-0.9-1.2-1.2-2C87.1,14,87,13.2,87,12.3s0.1-1.7,0.4-2.4
		c0.3-0.8,0.7-1.4,1.2-2s1.2-1,1.9-1.3c0.7-0.3,1.6-0.5,2.5-0.5c0.8,0,1.6,0.1,2.3,0.4c0.7,0.3,1.2,0.6,1.8,1.1
		c0.7,0.6,1.2,1.5,1.6,2.4c0.3,1,0.5,2.1,0.5,3.3h-8.4c0.1,0.8,0.4,1.4,0.8,1.9s1,0.7,1.8,0.7c0.5,0,0.9-0.1,1.2-0.3
		c0.3-0.2,0.6-0.5,0.7-0.9h3.6c-0.1,0.5-0.4,1-0.7,1.5c-0.3,0.5-0.8,0.9-1.3,1.2c-0.5,0.4-1,0.6-1.6,0.8
		C94.6,18.5,93.9,18.6,93.2,18.6z M95.2,11.1c-0.1-0.7-0.3-1.3-0.7-1.7C94.1,9,93.6,8.8,93,8.8c-0.7,0-1.3,0.2-1.6,0.6
		c-0.4,0.4-0.6,1-0.8,1.7H95.2z"/>
	<path d="M6.6,44.8c-0.9,0-1.8-0.2-2.6-0.5C3.2,44,2.6,43.5,2,43c-0.5-0.6-1-1.2-1.3-2s-0.4-1.6-0.4-2.5c0-0.9,0.1-1.7,0.4-2.5
		s0.7-1.4,1.2-2c0.5-0.6,1.2-1,1.9-1.3c0.8-0.3,1.6-0.5,2.5-0.5c0.8,0,1.5,0.1,2.2,0.3c0.6,0.2,1.2,0.5,1.7,0.9
		c0.5,0.4,0.9,0.9,1.1,1.4c0.3,0.5,0.5,1.2,0.6,1.8H8.3c-0.1-0.5-0.3-1-0.7-1.3c-0.3-0.3-0.7-0.5-1.3-0.5c-0.8,0-1.4,0.3-1.8,0.9
		c-0.4,0.6-0.6,1.5-0.6,2.5c0,1.1,0.2,1.9,0.6,2.5c0.4,0.6,1,0.9,1.8,0.9c1.2,0,1.9-0.7,2-2h3.6c0,0.7-0.2,1.3-0.4,1.9
		c-0.3,0.6-0.6,1.1-1.1,1.5c-0.5,0.4-1.1,0.8-1.7,1C8.2,44.6,7.5,44.8,6.6,44.8z"/>
	<path d="M19.2,44.8c-0.9,0-1.8-0.2-2.6-0.5c-0.8-0.3-1.4-0.7-2-1.3c-0.6-0.6-1-1.2-1.3-2s-0.4-1.6-0.4-2.5c0-0.9,0.1-1.7,0.4-2.5
		s0.7-1.4,1.3-2c0.5-0.6,1.2-1,2-1.3c0.8-0.3,1.6-0.5,2.6-0.5c0.9,0,1.8,0.2,2.6,0.5c0.8,0.3,1.4,0.7,2,1.3c0.5,0.6,1,1.2,1.3,2
		s0.4,1.6,0.4,2.5c0,0.9-0.1,1.7-0.4,2.5c-0.3,0.8-0.7,1.4-1.3,2c-0.5,0.6-1.2,1-2,1.3C21,44.5,20.1,44.8,19.2,44.8z M19.1,42
		c0.8,0,1.4-0.3,1.9-1c0.4-0.6,0.6-1.5,0.6-2.6c0-1.1-0.2-1.9-0.6-2.6s-1-1-1.9-1c-0.8,0-1.4,0.3-1.9,1c-0.4,0.7-0.6,1.5-0.6,2.6
		c0,1.1,0.2,1.9,0.6,2.6C17.7,41.8,18.3,42,19.1,42z"/>
	<path d="M26.7,27.9h3.8v16.4h-3.8V27.9z"/>
	<path d="M32.3,27.9h3.8v16.4h-3.8V27.9z"/>
	<path d="M41.4,44.6c-0.6,0-1.1-0.1-1.6-0.2c-0.5-0.2-0.9-0.4-1.3-0.7c-0.4-0.3-0.6-0.7-0.8-1.1c-0.2-0.4-0.3-1-0.3-1.5
		c0-0.6,0.1-1.2,0.4-1.6c0.2-0.4,0.6-0.8,1-1.1s0.9-0.5,1.4-0.7s1.1-0.3,1.7-0.3c1.1-0.1,1.9-0.3,2.3-0.5c0.4-0.2,0.7-0.5,0.7-0.8
		c0-0.4-0.1-0.7-0.4-0.9c-0.3-0.2-0.7-0.3-1.2-0.3c-0.6,0-1,0.1-1.4,0.4c-0.3,0.3-0.5,0.6-0.5,1.1H38c0-0.5,0.1-1.1,0.4-1.6
		c0.2-0.5,0.6-0.9,1-1.3s1-0.7,1.6-0.9c0.7-0.2,1.4-0.3,2.3-0.3s1.6,0.1,2.2,0.2c0.6,0.2,1.1,0.4,1.6,0.7c0.5,0.4,0.9,0.8,1.1,1.4
		c0.2,0.6,0.4,1.2,0.4,1.9v5.9c0,0.5,0,0.8,0.1,1.1c0.1,0.3,0.2,0.5,0.3,0.6v0.2h-3.6c-0.1-0.1-0.2-0.3-0.2-0.5
		c-0.1-0.2-0.1-0.5-0.2-0.8l0,0c-0.4,0.5-0.8,0.9-1.3,1.2C43,44.5,42.2,44.6,41.4,44.6z M42.5,42.2c0.7,0,1.3-0.2,1.7-0.6
		c0.4-0.4,0.7-0.9,0.7-1.5v-1.4C44.7,38.8,44.4,39,44,39c-0.3,0.1-0.7,0.2-1.1,0.3c-0.7,0.2-1.2,0.4-1.6,0.6c-0.3,0.2-0.5,0.6-0.5,1
		c0,0.5,0.2,0.8,0.5,1C41.7,42.1,42.1,42.2,42.5,42.2z"/>
	<path d="M55.7,48.4c-1.6,0-2.9-0.3-3.9-1c-1-0.6-1.6-1.6-1.8-2.8h3.6c0.1,0.3,0.3,0.6,0.6,0.8c0.3,0.2,0.8,0.3,1.4,0.3
		c0.8,0,1.4-0.2,1.7-0.6c0.4-0.4,0.5-0.9,0.5-1.7v-1.2h-0.1c-0.4,0.4-0.8,0.7-1.2,1c-0.5,0.3-1.1,0.4-1.8,0.4s-1.3-0.1-1.9-0.4
		c-0.6-0.2-1.2-0.6-1.6-1.1c-0.5-0.5-0.9-1-1.1-1.7c-0.3-0.7-0.4-1.5-0.4-2.4s0.1-1.6,0.4-2.4c0.2-0.7,0.6-1.3,1-1.9
		c0.4-0.5,1-0.9,1.6-1.2s1.3-0.4,2-0.4c0.8,0,1.4,0.1,2,0.4c0.5,0.3,1,0.7,1.3,1.2l0,0v-1.1h3.6v10.6c0,0.9-0.1,1.6-0.4,2.3
		c-0.3,0.6-0.7,1.2-1.1,1.6c-0.5,0.5-1.1,0.8-1.9,1C57.4,48.3,56.6,48.4,55.7,48.4z M55.7,41c0.8,0,1.4-0.3,1.8-0.8
		c0.4-0.6,0.6-1.3,0.6-2.1c0-0.4,0-0.8-0.1-1.1c-0.1-0.4-0.3-0.7-0.5-0.9c-0.2-0.3-0.5-0.5-0.8-0.6c-0.3-0.3-0.6-0.3-1-0.3
		c-0.7,0-1.3,0.3-1.7,0.8s-0.6,1.2-0.6,2.1c0,0.9,0.2,1.6,0.6,2.1C54.5,40.6,55,41,55.7,41z"/>
	<path d="M69.1,44.8c-1,0-1.8-0.2-2.6-0.5s-1.4-0.7-2-1.3c-0.5-0.6-0.9-1.2-1.2-2s-0.4-1.6-0.4-2.5c0-0.9,0.1-1.7,0.4-2.4
		c0.3-0.8,0.7-1.4,1.2-2c0.5-0.6,1.2-1,1.9-1.3s1.6-0.5,2.5-0.5c0.8,0,1.6,0.1,2.3,0.4c0.7,0.3,1.2,0.6,1.8,1.1
		c0.7,0.6,1.2,1.5,1.6,2.4c0.3,1,0.5,2.1,0.5,3.3h-8.4c0.1,0.8,0.4,1.4,0.8,1.9c0.4,0.5,1,0.7,1.8,0.7c0.5,0,0.9-0.1,1.2-0.3
		s0.6-0.5,0.7-0.9h3.6c-0.1,0.5-0.4,1-0.7,1.5c-0.3,0.5-0.8,0.9-1.3,1.2c-0.5,0.4-1,0.6-1.6,0.8C70.6,44.6,69.9,44.8,69.1,44.8z
		 M71.2,37.2c-0.1-0.7-0.3-1.3-0.7-1.7C70.1,35.2,69.6,35,69,35c-0.7,0-1.3,0.2-1.6,0.6c-0.4,0.4-0.6,1-0.8,1.7H71.2z"/>
	<path d="M81.2,44.8c-1.7,0-3.1-0.4-4.1-1.1s-1.5-1.8-1.6-3.1H79c0.1,0.6,0.3,1,0.7,1.3s0.9,0.4,1.5,0.4s1-0.1,1.3-0.3
		c0.3-0.2,0.5-0.5,0.5-0.9c0-0.3-0.1-0.5-0.3-0.6c-0.2-0.2-0.4-0.3-0.7-0.4s-0.6-0.2-1-0.2c-0.4-0.1-0.7-0.1-1.1-0.2
		c-0.5-0.1-1-0.2-1.5-0.3c-0.5-0.1-1-0.3-1.4-0.6s-0.7-0.6-1-1c-0.2-0.4-0.4-1-0.4-1.7c0-0.6,0.1-1.2,0.4-1.6
		c0.3-0.5,0.6-0.9,1.1-1.2s1-0.5,1.6-0.7s1.3-0.2,2-0.2c1.7,0,2.9,0.3,3.8,1C85.4,34,85.9,35,86,36h-3.4c-0.1-0.5-0.3-0.9-0.6-1.1
		s-0.8-0.3-1.3-0.3s-0.8,0.1-1.2,0.3c-0.3,0.2-0.5,0.4-0.5,0.8c0,0.2,0.1,0.4,0.2,0.5c0.2,0.1,0.4,0.2,0.6,0.3
		c0.3,0.1,0.6,0.2,0.9,0.2c0.3,0.1,0.7,0.1,1.1,0.2c0.5,0.1,1,0.2,1.6,0.3c0.5,0.1,1,0.3,1.4,0.6c0.4,0.3,0.8,0.6,1.1,1.1
		s0.4,1.1,0.4,1.8c0,0.6-0.1,1.2-0.4,1.7c-0.3,0.5-0.6,0.9-1.1,1.2c-0.5,0.3-1,0.6-1.7,0.7C82.7,44.6,82,44.8,81.2,44.8z"/>
	<g>
		<path d="M93.4,26.1h3.1v3.5l3-1.8l1.5,2.7l-3,1.8l3,1.8l-1.5,2.7l-3-1.8v3.5h-3.1V35l-3,1.8l-1.6-2.6l3-1.8l-3-1.8l1.5-2.7l3,1.8
			v-3.5H93.4z"/>
	</g>
</g>
<g>
	<path d="M0.3,60.7h1.1v-2.4h1.2v2.4h1.5v1H2.6v5c0,0.3,0.1,0.5,0.2,0.6c0.1,0.1,0.3,0.2,0.6,0.2c0.1,0,0.2,0,0.4,0
		c0.1,0,0.2,0,0.3-0.1l0,0v1.1c-0.1,0-0.3,0.1-0.5,0.1s-0.3,0-0.5,0c-0.5,0-0.9-0.1-1.2-0.3c-0.3-0.2-0.5-0.6-0.5-1.2v-5.3H0.3V60.7
		z"/>
	<path d="M9,57.7h1.3L6,68.4H4.8L9,57.7z"/>
	<path d="M10.7,60.7h1.2v1.1l0,0c0.2-0.4,0.6-0.7,1-0.9s0.8-0.4,1.3-0.4s0.9,0.1,1.2,0.4c0.3,0.2,0.6,0.6,0.8,1l0,0
		c0.2-0.5,0.6-0.8,1-1s0.9-0.4,1.4-0.4c0.7,0,1.3,0.2,1.7,0.6c0.4,0.4,0.7,1,0.7,1.9v5.4h-1.2V63c0-0.5-0.1-0.9-0.4-1.1
		c-0.3-0.3-0.6-0.4-1-0.4c-0.2,0-0.5,0.1-0.7,0.2c-0.2,0.1-0.4,0.2-0.6,0.4s-0.3,0.4-0.4,0.7s-0.2,0.5-0.2,0.8v4.8h-1.2V63
		c0-0.5-0.1-0.9-0.4-1.1c-0.2-0.3-0.6-0.4-1-0.4c-0.2,0-0.5,0.1-0.7,0.2c-0.2,0.1-0.4,0.2-0.6,0.4s-0.3,0.4-0.5,0.7
		c-0.1,0.3-0.2,0.5-0.2,0.8v4.8h-1.2C10.7,68.4,10.7,60.7,10.7,60.7z"/>
	<path d="M26.9,61h-2.2v-0.8c0.3,0,0.6,0,0.9-0.1c0.3-0.1,0.5-0.2,0.8-0.3c0.2-0.2,0.4-0.4,0.6-0.6c0.2-0.3,0.2-0.6,0.3-1h1v10.3H27
		L26.9,61C27,61,26.9,61,26.9,61z"/>
	<path d="M33.6,68.7c-0.5,0-1-0.1-1.4-0.2c-0.4-0.1-0.8-0.3-1.1-0.6c-0.3-0.3-0.6-0.6-0.7-1c-0.2-0.4-0.3-0.8-0.3-1.2h1.3
		c0,0.6,0.3,1,0.6,1.4c0.4,0.4,0.9,0.5,1.6,0.5c0.4,0,0.7-0.1,1-0.2c0.3-0.1,0.5-0.3,0.7-0.5c0.3-0.3,0.5-0.8,0.7-1.3
		c0.1-0.6,0.2-1.2,0.2-2l0,0c-0.3,0.4-0.7,0.7-1.2,1c-0.5,0.2-1,0.3-1.6,0.3c-0.5,0-0.9-0.1-1.3-0.3c-0.4-0.2-0.8-0.4-1.1-0.7
		c-0.3-0.3-0.6-0.7-0.7-1.1c-0.2-0.4-0.3-0.9-0.3-1.3c0-0.5,0.1-0.9,0.3-1.4s0.4-0.8,0.8-1.1c0.3-0.3,0.7-0.6,1.1-0.8
		c0.4-0.2,0.9-0.3,1.4-0.3s1,0.1,1.3,0.2c0.4,0.1,0.7,0.3,1,0.6c0.6,0.5,1,1.1,1.2,1.8c0.2,0.8,0.3,1.7,0.3,2.9c0,1-0.1,1.9-0.3,2.7
		c-0.2,0.8-0.6,1.3-1.1,1.8C35.4,68.4,34.6,68.7,33.6,68.7z M33.5,63.9c0.4,0,0.7-0.1,1-0.2c0.3-0.1,0.6-0.3,0.8-0.5
		s0.4-0.5,0.5-0.8s0.2-0.6,0.2-1c0-0.4-0.1-0.7-0.2-1s-0.3-0.6-0.5-0.8s-0.5-0.4-0.8-0.5c-0.3-0.1-0.6-0.2-1-0.2s-0.7,0.1-1,0.2
		c-0.3,0.1-0.5,0.3-0.8,0.5s-0.4,0.5-0.5,0.8S31,61,31,61.4c0,0.4,0.1,0.7,0.2,1s0.3,0.6,0.5,0.8s0.5,0.4,0.8,0.5
		C32.9,63.8,33.2,63.9,33.5,63.9z"/>
	<path d="M40.7,70.6c-0.1,0-0.3,0-0.4,0s-0.2,0-0.3,0v-1l0,0c0.1,0,0.3,0,0.4,0c0.5,0,0.8-0.2,0.8-0.8v-8.2h1.2v8.3
		c0,0.4,0,0.7-0.1,0.9c-0.1,0.2-0.2,0.4-0.4,0.5s-0.3,0.2-0.6,0.2C41.2,70.6,41,70.6,40.7,70.6z M41.3,57.7h1.2v1.5h-1.2V57.7z"/>
	<path d="M50.2,68.5c-0.8,0-1.2-0.4-1.3-1.2l0,0c-0.1,0.2-0.3,0.3-0.4,0.4c-0.2,0.1-0.3,0.3-0.6,0.4c-0.3,0.1-0.4,0.2-0.7,0.3
		s-0.6,0.1-0.9,0.1c-0.4,0-0.7,0-1-0.1s-0.6-0.2-0.8-0.4c-0.2-0.2-0.4-0.4-0.6-0.7c-0.1-0.3-0.2-0.6-0.2-1c0-0.5,0.1-0.8,0.3-1.1
		c0.2-0.3,0.4-0.5,0.7-0.7c0.3-0.2,0.7-0.3,1.1-0.4c0.4-0.1,0.9-0.2,1.3-0.3c0.3,0,0.5-0.1,0.8-0.1c0.2,0,0.4-0.1,0.6-0.2
		s0.3-0.2,0.4-0.3s0.1-0.3,0.1-0.5c0-0.4-0.2-0.8-0.5-1s-0.7-0.4-1.3-0.4s-1.1,0.1-1.4,0.4c-0.3,0.3-0.5,0.7-0.5,1.3h-1.2
		c0-0.4,0.1-0.7,0.2-1c0.1-0.3,0.3-0.6,0.6-0.8s0.6-0.4,1-0.5c0.4-0.1,0.8-0.2,1.3-0.2c0.4,0,0.8,0,1.1,0.1c0.4,0.1,0.7,0.2,0.9,0.4
		c0.3,0.2,0.5,0.4,0.6,0.8c0.1,0.3,0.2,0.7,0.2,1.2v3.7c0,0.3,0.1,0.6,0.2,0.7c0.1,0.2,0.3,0.2,0.7,0.1l0,0v0.9
		c-0.1,0-0.2,0.1-0.3,0.1C50.5,68.5,50.4,68.5,50.2,68.5z M46.6,67.7c0.4,0,0.8-0.1,1-0.2c0.2-0.1,0.5-0.3,0.7-0.5
		c0.2-0.2,0.3-0.4,0.4-0.7c0.1-0.2,0.1-0.5,0.1-0.7v-1.3c-0.2,0.1-0.5,0.2-0.8,0.3s-0.7,0.2-1,0.2c-0.3,0.1-0.6,0.1-0.9,0.2
		c-0.3,0.1-0.5,0.1-0.7,0.3c-0.2,0.1-0.3,0.3-0.5,0.4c-0.1,0.2-0.2,0.4-0.2,0.7c0,0.3,0,0.5,0.1,0.6s0.2,0.3,0.4,0.4
		c0.1,0.1,0.3,0.2,0.5,0.2C46.2,67.6,46.4,67.7,46.6,67.7z"/>
	<path d="M53,61.7L53,61.7c0.3-0.4,0.6-0.7,1-0.9c0.4-0.2,0.9-0.3,1.4-0.3c0.8,0,1.4,0.2,1.9,0.6c0.5,0.4,0.7,1,0.7,1.9v5.4h-1.2
		v-5.3c0-0.5-0.2-0.9-0.5-1.2s-0.7-0.4-1.3-0.4c-0.3,0-0.6,0.1-0.9,0.2c-0.3,0.1-0.5,0.2-0.7,0.4s-0.3,0.4-0.4,0.7s-0.2,0.6-0.2,0.9
		v4.8h-1v-7.8H53V61.7z"/>
	<path d="M64.6,68.4v-1.1l0,0c-0.3,0.4-0.6,0.7-1,0.9c-0.4,0.2-0.8,0.3-1.4,0.3c-0.8,0-1.4-0.2-1.9-0.7s-0.7-1.1-0.7-1.9v-5.4h1.2
		v5.3c0,0.5,0.2,0.9,0.5,1.2c0.3,0.3,0.7,0.4,1.3,0.4c0.3,0,0.6-0.1,0.8-0.2c0.2-0.1,0.5-0.3,0.6-0.5c0.2-0.2,0.3-0.4,0.4-0.7
		c0.1-0.3,0.1-0.5,0.1-0.9v-4.8h1.2v7.8h-1.1C64.6,68.1,64.6,68.4,64.6,68.4z"/>
	<path d="M73.6,68.5c-0.8,0-1.2-0.4-1.3-1.2l0,0c-0.1,0.2-0.3,0.3-0.4,0.4c-0.2,0.1-0.3,0.3-0.6,0.4c-0.3,0.1-0.4,0.2-0.7,0.3
		c-0.3,0.1-0.6,0.1-0.9,0.1c-0.4,0-0.7,0-1-0.1s-0.6-0.2-0.8-0.4c-0.2-0.2-0.4-0.4-0.6-0.7c-0.1-0.3-0.2-0.6-0.2-1
		c0-0.5,0.1-0.8,0.3-1.1c0.2-0.3,0.4-0.5,0.7-0.7c0.3-0.2,0.7-0.3,1.1-0.4c0.4-0.1,0.9-0.2,1.3-0.3c0.3,0,0.5-0.1,0.8-0.1
		c0.2,0,0.4-0.1,0.6-0.2s0.3-0.2,0.4-0.3s0.1-0.3,0.1-0.5c0-0.4-0.2-0.8-0.5-1s-0.7-0.4-1.3-0.4c-0.6,0-1.1,0.1-1.4,0.4
		s-0.5,0.7-0.5,1.3h-1.2c0-0.4,0.1-0.7,0.2-1s0.3-0.6,0.6-0.8c0.3-0.2,0.6-0.4,1-0.5c0.4-0.1,0.8-0.2,1.3-0.2c0.4,0,0.8,0,1.1,0.1
		c0.3,0.1,0.7,0.2,0.9,0.4c0.3,0.2,0.5,0.4,0.6,0.8c0.1,0.3,0.2,0.7,0.2,1.2v3.7c0,0.3,0.1,0.6,0.2,0.7c0.1,0.2,0.3,0.2,0.7,0.1l0,0
		v0.9c-0.1,0-0.2,0.1-0.3,0.1C73.9,68.5,73.8,68.5,73.6,68.5z M69.9,67.7c0.4,0,0.8-0.1,1.1-0.2c0.3-0.1,0.5-0.3,0.7-0.5
		c0.2-0.2,0.3-0.4,0.4-0.7c0.1-0.3,0.1-0.5,0.1-0.7v-1.3c-0.2,0.1-0.5,0.2-0.8,0.3s-0.7,0.2-1,0.2c-0.3,0.1-0.6,0.1-0.9,0.2
		s-0.5,0.1-0.7,0.3c-0.2,0.1-0.4,0.3-0.5,0.4c-0.1,0.2-0.2,0.4-0.2,0.7c0,0.3,0,0.5,0.1,0.6c0.1,0.2,0.2,0.3,0.4,0.4
		c0.2,0.1,0.3,0.2,0.5,0.2C69.5,67.6,69.7,67.7,69.9,67.7z"/>
	<path d="M76.4,62L76.4,62c0.3-0.4,0.6-0.7,1-1s0.9-0.4,1.4-0.4c0.1,0,0.2,0,0.3,0c0.1,0,0.1,0,0.2,0.1v1.2l0,0
		c-0.1,0-0.2,0-0.2-0.1c-0.1,0-0.2,0-0.3,0c-0.3,0-0.6,0.1-0.9,0.2s-0.5,0.3-0.7,0.5s-0.4,0.4-0.5,0.7s-0.2,0.6-0.2,1v4.3h-1.2v-7.8
		h1.2V62C76.5,62,76.4,62,76.4,62z"/>
	<path d="M80.3,57.7h1.2v1.5h-1.2V57.7z M80.3,60.7h1.2v7.8h-1.2V60.7z"/>
	<path d="M85.6,66.7c0.2-0.5,0.5-0.9,0.9-1.3s0.8-0.7,1.2-1c0.4-0.3,0.9-0.5,1.3-0.8c0.3-0.2,0.6-0.4,0.9-0.5
		c0.3-0.2,0.5-0.4,0.7-0.6c0.2-0.2,0.3-0.4,0.4-0.6c0.1-0.2,0.1-0.5,0.1-0.8c0-0.6-0.2-1.1-0.6-1.5c-0.4-0.4-0.9-0.6-1.6-0.6
		c-0.4,0-0.7,0.1-0.9,0.2c-0.3,0.1-0.5,0.3-0.7,0.5s-0.3,0.5-0.4,0.8c-0.1,0.3-0.1,0.7-0.1,1.3h-1.3c0-0.7,0.1-1.2,0.2-1.7
		c0.2-0.4,0.4-0.8,0.7-1.1c0.3-0.3,0.7-0.6,1.2-0.7c0.5-0.1,1-0.2,1.5-0.2s1,0.1,1.4,0.2c0.4,0.2,0.8,0.4,1.1,0.7
		c0.3,0.3,0.5,0.6,0.7,1c0.2,0.4,0.2,0.8,0.2,1.3s-0.1,0.9-0.2,1.3c-0.2,0.3-0.4,0.6-0.6,0.9c-0.3,0.3-0.6,0.5-1,0.7
		c-0.4,0.2-0.8,0.4-1.2,0.7c-0.3,0.2-0.6,0.3-0.9,0.5c-0.3,0.2-0.6,0.4-0.8,0.6c-0.3,0.2-0.5,0.4-0.7,0.7c-0.2,0.2-0.3,0.5-0.4,0.8
		h5.6v1.2h-7.1C85.2,67.7,85.4,67.2,85.6,66.7z"/>
	<path d="M97.7,68.7c-0.6,0-1.2-0.1-1.7-0.4s-0.9-0.6-1.3-1.1s-0.6-1-0.8-1.7c-0.2-0.7-0.3-1.4-0.3-2.2s0.1-1.6,0.3-2.2
		c0.2-0.7,0.5-1.2,0.8-1.7c0.4-0.5,0.8-0.8,1.3-1.1c0.5-0.2,1-0.4,1.6-0.4s1.2,0.1,1.7,0.4c0.5,0.2,0.9,0.6,1.3,1.1
		c0.3,0.5,0.6,1,0.8,1.7s0.3,1.4,0.3,2.3c0,0.8-0.1,1.6-0.3,2.2c-0.2,0.6-0.4,1.2-0.8,1.7s-0.8,0.8-1.3,1.1
		C98.8,68.7,98.4,68.7,97.7,68.7z M97.7,67.6c0.9,0,1.6-0.4,2-1.1c0.4-0.8,0.7-1.8,0.7-3.1c0-0.7-0.1-1.2-0.2-1.8
		c-0.1-0.5-0.3-1-0.5-1.4c-0.2-0.4-0.5-0.7-0.8-0.9c-0.3-0.2-0.7-0.3-1.2-0.3c-0.9,0-1.6,0.4-2,1.1c-0.4,0.8-0.7,1.8-0.7,3.1
		c0,0.6,0.1,1.2,0.2,1.8c0.1,0.5,0.3,1,0.5,1.3c0.2,0.4,0.5,0.7,0.8,0.9C96.8,67.4,97.3,67.6,97.7,67.6z"/>
	<path d="M103.2,66.7c0.2-0.5,0.5-0.9,0.9-1.3s0.8-0.7,1.2-1c0.4-0.3,0.9-0.5,1.3-0.8c0.3-0.2,0.6-0.4,0.9-0.5
		c0.3-0.2,0.5-0.4,0.7-0.6c0.2-0.2,0.3-0.4,0.4-0.6c0.1-0.2,0.2-0.5,0.2-0.8c0-0.6-0.2-1.1-0.6-1.5c-0.4-0.4-0.9-0.6-1.6-0.6
		c-0.4,0-0.7,0.1-0.9,0.2c-0.3,0.1-0.5,0.3-0.7,0.5s-0.3,0.5-0.4,0.8s-0.1,0.7-0.1,1.3h-1.3c0-0.7,0.1-1.2,0.2-1.7
		c0.2-0.4,0.4-0.8,0.7-1.1c0.3-0.3,0.7-0.6,1.2-0.7c0.5-0.1,1-0.2,1.5-0.2s1,0.1,1.4,0.2c0.4,0.1,0.8,0.4,1.1,0.7
		c0.3,0.3,0.5,0.6,0.7,1c0.2,0.4,0.2,0.8,0.2,1.3s-0.1,0.9-0.2,1.3c-0.2,0.3-0.4,0.6-0.6,0.9c-0.3,0.3-0.6,0.5-1,0.7
		c-0.4,0.2-0.8,0.4-1.2,0.7c-0.3,0.2-0.6,0.3-0.9,0.5c-0.3,0.2-0.6,0.4-0.8,0.6s-0.5,0.4-0.7,0.7c-0.2,0.3-0.3,0.5-0.4,0.8h5.6v1.2
		h-7.2C102.8,67.7,102.9,67.2,103.2,66.7z"/>
	<path d="M115.3,68.7c-0.6,0-1.2-0.1-1.7-0.4s-0.9-0.6-1.3-1.1s-0.6-1-0.8-1.7c-0.2-0.7-0.3-1.4-0.3-2.2s0.1-1.6,0.3-2.2
		c0.2-0.7,0.5-1.2,0.8-1.7s0.8-0.8,1.3-1.1c0.5-0.3,1-0.4,1.7-0.4c0.6,0,1.2,0.1,1.6,0.4s0.9,0.6,1.3,1.1s0.6,1,0.8,1.7
		s0.3,1.4,0.3,2.3c0,0.8-0.1,1.6-0.3,2.2c-0.2,0.6-0.4,1.2-0.8,1.7s-0.8,0.8-1.3,1.1C116.4,68.7,115.9,68.7,115.3,68.7z M115.3,67.6
		c0.9,0,1.6-0.4,2-1.1c0.4-0.8,0.7-1.8,0.7-3.1c0-0.7-0.1-1.2-0.2-1.8c-0.1-0.5-0.3-1-0.5-1.4c-0.2-0.4-0.5-0.7-0.8-0.9
		c-0.3-0.2-0.7-0.3-1.2-0.3c-0.9,0-1.6,0.4-2,1.1c-0.4,0.8-0.7,1.8-0.7,3.1c0,0.6,0.1,1.2,0.2,1.8c0.1,0.5,0.3,1,0.5,1.3
		c0.2,0.4,0.5,0.7,0.8,0.9C114.4,67.4,114.9,67.6,115.3,67.6z"/>
</g>
</svg>
