<?xml version="1.0" encoding="utf-8"?>
<!-- Generator: Adobe Illustrator 22.1.0, SVG Export Plug-In . SVG Version: 6.00 Build 0)  -->
<svg version="1.1" id="Laag_1" xmlns="http://www.w3.org/2000/svg" xmlns:xlink="http://www.w3.org/1999/xlink" x="0px" y="0px"
	 viewBox="0 0 64.5 6.1" style="enable-background:new 0 0 64.5 6.1;" xml:space="preserve">
<style type="text/css">
	.st0{fill:#EAEDE1;}
</style>
<g>
	<path class="st0" d="M3.1,2.9C3.5,3,3.8,3.2,4,3.4c0.2,0.2,0.3,0.6,0.3,1c0,0.6-0.2,1-0.6,1.2S2.9,6.1,2.3,6.1H0v-6h2.1
		c0.5,0,1,0.1,1.3,0.4C3.8,0.7,4,1.1,4,1.6C4,2.2,3.7,2.6,3.1,2.9L3.1,2.9z M1.1,1.1v1.4h1c0.3,0,0.5-0.1,0.6-0.2
		C2.8,2.2,2.9,2,2.9,1.8c0-0.2-0.1-0.4-0.2-0.5S2.3,1.1,2.1,1.1H1.1z M2.1,5.1c0.3,0,0.6-0.1,0.8-0.2c0.2-0.1,0.3-0.3,0.3-0.6
		c0-0.2-0.1-0.5-0.3-0.6S2.5,3.4,2.1,3.4h-1v1.7H2.1z"/>
	<path class="st0" d="M6.4,5h2.9v1h-4v-6h4v1H6.4v1.4h2.4v1H6.4V5z"/>
	<path class="st0" d="M14.1,4.5c0,0.5-0.2,1-0.6,1.2c-0.4,0.3-0.9,0.4-1.5,0.4c-0.7,0-1.2-0.2-1.6-0.6C10,5.2,9.8,4.7,9.8,4.1H11
		c0,0.3,0.1,0.6,0.3,0.8s0.5,0.3,0.8,0.3c0.3,0,0.5-0.1,0.6-0.2C12.9,4.9,13,4.7,13,4.5s-0.1-0.4-0.3-0.5c-0.2-0.1-0.5-0.3-0.9-0.4
		c-0.6-0.2-1-0.4-1.3-0.7C10.2,2.5,10,2.2,10,1.7c0-0.5,0.2-0.9,0.5-1.3C10.9,0.2,11.4,0,12,0c0.6,0,1.1,0.2,1.5,0.5
		C13.8,0.9,14,1.3,14,1.8h-1.1c0-0.2-0.1-0.4-0.3-0.6C12.5,1.1,12.3,1,12,1c-0.2,0-0.4,0.1-0.6,0.2c-0.1,0.1-0.2,0.3-0.2,0.5
		c0,0.2,0.1,0.4,0.3,0.5s0.5,0.3,0.8,0.4c0.6,0.2,1.1,0.5,1.4,0.8C14,3.6,14.1,4,14.1,4.5z"/>
	<path class="st0" d="M19.1,0.1v1.1h-1.7v4.9h-1.1V1.1h-1.6V0.1H19.1z"/>
	<path class="st0" d="M21,5h2.9v1h-4v-6h4v1H21v1.4h2.4v1H21V5z"/>
	<path class="st0" d="M26,4.9h2.9v1.1h-4.1v-6H26V4.9z"/>
	<path class="st0" d="M36,0.1v1.1h-1.7v4.9h-1.1V1.1h-1.6V0.1H36z"/>
	<path class="st0" d="M38.1,0.1v6h-1.2v-6H38.1z"/>
	<path class="st0" d="M44.5,4.1c-0.1,0.6-0.4,1.1-0.9,1.5c-0.5,0.4-1,0.5-1.7,0.5c-0.9,0-1.6-0.3-2.1-0.9C39.3,4.7,39,4,39,3.1
		c0-0.9,0.3-1.6,0.8-2.2C40.3,0.3,41,0,41.8,0c0.7,0,1.2,0.2,1.7,0.5C44,0.8,44.3,1.3,44.4,2h-1.2c-0.1-0.3-0.2-0.5-0.5-0.7
		c-0.2-0.2-0.5-0.2-0.9-0.2c-0.5,0-0.9,0.2-1.2,0.6c-0.3,0.4-0.4,0.9-0.4,1.4c0,0.6,0.1,1.1,0.4,1.4s0.7,0.5,1.2,0.5
		c0.3,0,0.6-0.1,0.9-0.3c0.2-0.2,0.4-0.4,0.5-0.7H44.5z"/>
	<path class="st0" d="M48.7,6.1l-1.9-2.5h-0.4v2.5h-1.2v-6h1.2v2.3h0.4l1.6-2.3h1.3l-2,2.9V3l2.2,3H48.7z"/>
	<path class="st0" d="M51.8,5h2.9v1h-4v-6h4v1h-2.8v1.4h2.4v1h-2.4V5z"/>
	<path class="st0" d="M59.7,0.1v1.1H58v4.9h-1.1V1.1h-1.6V0.1H59.7z"/>
	<path class="st0" d="M64.5,4.5c0,0.5-0.2,1-0.6,1.2C63.5,6,63,6.1,62.4,6.1c-0.7,0-1.2-0.2-1.6-0.6c-0.4-0.4-0.6-0.9-0.6-1.5h1.1
		c0,0.3,0.1,0.6,0.3,0.8s0.5,0.3,0.8,0.3c0.3,0,0.5-0.1,0.6-0.2c0.2-0.1,0.2-0.3,0.2-0.5S63.2,4.1,63,3.9c-0.2-0.1-0.5-0.3-0.9-0.4
		c-0.6-0.2-1-0.4-1.3-0.7c-0.3-0.3-0.5-0.6-0.5-1.1c0-0.5,0.2-0.9,0.5-1.3C61.3,0.2,61.7,0,62.3,0c0.6,0,1.1,0.2,1.5,0.5
		c0.4,0.4,0.5,0.8,0.6,1.3h-1.1c0-0.2-0.1-0.4-0.3-0.6C62.8,1.1,62.6,1,62.3,1c-0.2,0-0.4,0.1-0.6,0.2c-0.1,0.1-0.2,0.3-0.2,0.5
		c0,0.2,0.1,0.4,0.3,0.5s0.5,0.3,0.8,0.4C63.2,2.8,63.7,3,64,3.3C64.3,3.6,64.5,4,64.5,4.5z"/>
</g>
</svg>
