<?xml version="1.0" encoding="utf-8"?>
<!-- Generator: Adobe Illustrator 24.3.0, SVG Export Plug-In . SVG Version: 6.00 Build 0)  -->
<svg version="1.1" id="Laag_1" xmlns="http://www.w3.org/2000/svg" xmlns:xlink="http://www.w3.org/1999/xlink" x="0px" y="0px"
	 width="157.4px" height="157.4px" viewBox="0 0 157.4 157.4" style="enable-background:new 0 0 157.4 157.4;" xml:space="preserve"
	>
<style type="text/css">
	.st0{fill:#A32725;}
	.st1{fill:#FFFFFF;}
</style>
<g>
	<g>
		<path class="st0" d="M66.4,156.4c42.9,6.8,83.2-22.5,90-65.4C163.2,48.1,133.9,7.8,91,1S7.8,23.5,1,66.4S23.5,149.6,66.4,156.4"/>
	</g>
</g>
<g>
	<path class="st1" d="M61.1,55.8l-3.9-0.6l-5.7-10.3L50.1,54l-3.9-0.6l2.4-14.9l3.9,0.6l5.7,10.2l1.4-9.1l3.9,0.6L61.1,55.8z"/>
	<path class="st1" d="M68.1,56.9l-3.9-0.6l2.4-14.9l3.9,0.6L68.1,56.9z"/>
	<path class="st1" d="M79.8,58.7l-8.5-1.3l2.4-14.9l8.5,1.3L81.6,47L77,46.3l-0.4,2.5l4.4,0.7l-0.5,3.2l-4.4-0.7l-0.4,2.7l4.6,0.7
		L79.8,58.7z"/>
	<path class="st1" d="M96.2,54.9c-0.1,0.9-0.3,1.6-0.6,2.3c-0.4,0.9-1.1,1.8-2,2.4c-1.4,1-3.1,1.3-5.1,0.9c-2.1-0.3-3.6-1.2-4.6-2.5
		c-0.5-0.7-0.8-1.5-0.9-2.5c-0.1-0.7,0-1.6,0.2-2.7l1.4-8.6l3.9,0.6l-1.3,8.1C87.1,53.5,87,54,87,54.3c-0.1,1,0.3,1.8,1.1,2.3
		c0.3,0.2,0.7,0.4,1.1,0.4c0.9,0.1,1.7-0.1,2.3-0.7c0.4-0.4,0.8-1.3,1-2.7l1.3-8.1l3.9,0.6L96.2,54.9z"/>
	<path class="st1" d="M121.8,50.1l-7.1,14.2l-4-0.6l-1.4-9.1l-4.2,8.2l-3.9-0.6l-2.1-15.6l4.1,0.6l1.1,10l4.7-9.1l3.1,0.5l1.4,10.1
		l4.3-9.2L121.8,50.1z"/>
	<path class="st1" d="M45.4,68.8l-3.2-0.5L40.3,80l-3.9-0.6l1.8-11.7l-3.2-0.5l0.5-3.2l10.2,1.6L45.4,68.8z"/>
	<path class="st1" d="M58.6,82.9l-3.9-0.6l1-6.2l-5.6-0.9l-1,6.2l-3.9-0.6l2.4-14.9l3.9,0.6l-0.9,5.8l5.6,0.9l0.9-5.8L61,68
		L58.6,82.9z"/>
	<path class="st1" d="M70.2,84.7l-8.5-1.3l2.4-14.9l8.5,1.3L72.1,73l-4.6-0.7l-0.4,2.5l4.4,0.7l-0.5,3.2l-4.4-0.7l-0.4,2.7l4.6,0.7
		L70.2,84.7z"/>
	<path class="st1" d="M86.9,87.4l-4.1-0.7L82.2,84l-5.4-0.8l-1.4,2.4l-4.1-0.6l8.1-14l4.2,0.7L86.9,87.4z M81.6,80.8l-0.9-5
		l-2.4,4.5L81.6,80.8z"/>
	<path class="st1" d="M99.3,77.4L96,76.8l-1.8,11.7l-3.9-0.6l1.8-11.7L89,75.7l0.5-3.2l10.2,1.6L99.3,77.4z"/>
	<path class="st1" d="M107.6,90.6l-8.5-1.3l2.4-14.9l8.5,1.3l-0.5,3.2l-4.6-0.7l-0.4,2.5l4.4,0.7l-0.5,3.2l-4.4-0.7l-0.4,2.7
		l4.6,0.7L107.6,90.6z"/>
	<path class="st1" d="M122.4,93l-4.8-0.8l-2.8-6.3l-0.9,5.7l-3.9-0.6l2.4-14.9l6,1c1.8,0.3,3,1,3.7,2.2c0.5,1,0.7,2,0.6,3.2
		c-0.2,1.3-0.8,2.3-1.7,3c-0.6,0.4-1.3,0.7-2.2,0.7L122.4,93z M118.6,82c0.1-0.5,0-1-0.4-1.4c-0.3-0.4-0.9-0.7-1.7-0.8l-0.7-0.1
		l-0.6,3.7l0.7,0.1c0.8,0.1,1.4,0.1,1.8-0.2C118.3,83,118.5,82.6,118.6,82z"/>
	<path class="st1" d="M40.2,102.4c-0.4,2.5-1.8,4-4.1,4.4c-0.8,0.1-1.7,0.2-2.6,0c-1.9-0.3-3.5-1.1-4.9-2.5l2.2-2.9
		c1,1.2,2.1,1.9,3.2,2.1c0.5,0.1,0.9,0,1.3-0.2c0.5-0.2,0.7-0.5,0.8-1c0.1-0.4-0.1-0.8-0.5-1.2c-0.3-0.3-0.8-0.6-1.6-0.9
		c-0.9-0.4-1.5-0.7-1.7-0.9c-0.4-0.2-0.7-0.5-0.9-0.7c-0.7-0.8-0.9-1.8-0.7-3.2c0.2-1.4,0.8-2.5,1.8-3.2c1.1-0.9,2.5-1.2,4.1-1
		c1.6,0.3,3.1,0.9,4.5,2L39,96c-0.7-0.8-1.5-1.3-2.4-1.4c-0.4-0.1-0.8,0-1.2,0.1c-0.4,0.2-0.6,0.5-0.7,0.9c-0.1,0.4,0.1,0.8,0.6,1.1
		c0.2,0.2,0.8,0.5,1.9,1c1.3,0.6,2.2,1.3,2.7,2.2C40.2,100.6,40.4,101.4,40.2,102.4z"/>
	<path class="st1" d="M50.4,109.1l-8.5-1.3l2.4-14.9l8.5,1.3l-0.5,3.2l-4.6-0.7l-0.4,2.5l4.4,0.7l-0.5,3.2l-4.4-0.7l-0.4,2.7
		l4.6,0.7L50.4,109.1z"/>
	<path class="st1" d="M56.7,110.1l-3.9-0.6l2.4-14.9l3.9,0.6L56.7,110.1z"/>
	<path class="st1" d="M74.4,97.6l-8.9,10.6l6.3,1l-0.5,3.2l-12.8-2l8.9-10.6l-5.9-0.9l0.5-3.2L74.4,97.6z"/>
	<path class="st1" d="M91,107.9c-0.3,2-1.3,3.7-2.9,5c-1.8,1.5-4,2-6.7,1.6c-2.6-0.4-4.6-1.6-5.8-3.6c-1.1-1.7-1.5-3.6-1.2-5.7
		c0.1-0.9,0.5-1.8,1-2.8c0.5-0.9,1.1-1.7,1.9-2.3c1.8-1.5,4-2,6.7-1.6c2.6,0.4,4.6,1.6,5.8,3.6C90.9,104,91.3,105.9,91,107.9z
		 M86.9,107.3c0.2-1.1,0-2-0.6-2.9c-0.7-1.1-1.7-1.8-3-2c-0.9-0.1-1.7,0-2.5,0.4c-0.8,0.4-1.4,1-1.9,1.8c-0.2,0.4-0.4,0.9-0.5,1.4
		c-0.2,1,0,2,0.6,2.9c0.7,1.1,1.7,1.8,3,2c1.3,0.2,2.5-0.1,3.5-1C86.3,109.2,86.8,108.3,86.9,107.3z"/>
	<path class="st1" d="M100.7,117.1l-8.5-1.3l2.4-14.9l8.5,1.3l-0.5,3.2l-4.6-0.7l-0.4,2.5l4.4,0.7l-0.5,3.2l-4.4-0.7l-0.4,2.7
		l4.6,0.7L100.7,117.1z"/>
	<path class="st1" d="M118.1,119.8l-3.9-0.6l-5.7-10.3l-1.4,9.1l-3.9-0.6l2.4-14.9l3.9,0.6l5.7,10.2l1.4-9.1l3.9,0.6L118.1,119.8z"
		/>
</g>
</svg>
