<?xml version="1.0" encoding="utf-8"?>
<!-- Generator: Adobe Illustrator 24.3.0, SVG Export Plug-In . SVG Version: 6.00 Build 0)  -->
<svg version="1.1" id="Laag_1" xmlns="http://www.w3.org/2000/svg" xmlns:xlink="http://www.w3.org/1999/xlink" x="0px" y="0px"
	 width="267.5px" height="112px" viewBox="0 0 267.5 112" style="enable-background:new 0 0 267.5 112;" xml:space="preserve">
<style type="text/css">
	.st0{fill:#3D3188;}
</style>
<g>
	<path class="st0" d="M9.1,31.4h18v6.7H-0.1v-5.8L17.4,8.2H0V1.6h26.4v5.8L9.1,31.4z"/>
	<path class="st0" d="M57.5,24.8c0,8.2-6,13.8-13.9,13.8c-7.9,0-13.8-5.6-13.8-13.8s5.9-13.8,13.8-13.8
		C51.6,11.1,57.5,16.7,57.5,24.8z M36.7,24.8c0,4.4,2.8,7.7,6.9,7.7s6.9-3.3,6.9-7.7s-2.8-7.6-6.9-7.6S36.7,20.5,36.7,24.8z"/>
	<path class="st0" d="M83.9,20.9v17.2h-6.7V22.4c0-3.1-1.3-4.8-3.9-4.8c-2.6,0-4.6,2-4.6,6.5v14h-6.7V11.6h5.8l0.5,3.4
		c1.2-2.2,3.7-4,7.2-4C80.9,11.1,83.9,14.9,83.9,20.9z"/>
	<path class="st0" d="M108.9,38.1l-0.5-3.5c-1.5,2.1-3.9,4.1-8.5,4.1c-7.1,0-12.3-6.1-12.3-13.8c0-7.8,5.2-13.8,12.3-13.8
		c3.8,0,6.6,1.6,7.9,3.5V0h6.7v38.1H108.9z M94.7,24.8c0,4.6,2.9,7.5,6.7,7.5c3.3,0,6.7-2.6,6.7-7.4v-0.3c-0.1-4.7-3.4-7.3-6.7-7.3
		C97.7,17.4,94.7,20.3,94.7,24.8z"/>
	<path class="st0" d="M141.1,20.7v17.4h-5.8l-0.4-3.2c-1.4,2.1-3.8,3.8-7.6,3.8c-4.7,0-8-2.9-8-7.6c0-5.2,3.5-7.2,8.2-7.9l6.8-1.2
		v-1c0-2.7-1.3-4-3.7-4c-2.2,0-4,1.4-4,3.5h-6.5c0.3-5.4,4.3-9.3,10.5-9.3C136.8,11.1,141.1,14.3,141.1,20.7z M126,30.5
		c0,1.6,1.1,2.6,3.1,2.6c1.7,0,3.3-0.8,4.2-2.4c0.6-0.9,0.9-2.2,0.9-3.5v-0.8l-5.3,1.1C127.3,27.9,126,28.7,126,30.5z"/>
	<path class="st0" d="M170.3,17.4h-3.9c0.3,0.9,0.5,2,0.5,3.1c0,5.3-4.3,9.2-10.4,9.2c-1.6,0-3.1-0.3-4.4-0.7
		c-0.4,0.5-0.7,1.1-0.7,1.9c0,1.4,1,2.2,2.7,2.2h6.3c5.4,0,8.7,2.7,8.7,7.6c0,6-4.6,9.2-11.7,9.2c-7.9,0-12-2.9-12-8.1
		c0-2.3,1.4-3.8,2.7-4.6c-1.6-1.1-3.1-3.1-3.1-5.7s1.1-4.3,2.8-5.6c-1.2-1.5-1.8-3.3-1.8-5.4c0-5.5,4.4-9.4,10.6-9.4
		c1.4,0,2.7,0.2,3.8,0.6h10V17.4z M151.9,41.2c0,2.4,2.1,3.6,5.4,3.6c3.2,0,5.1-1.3,5.1-3.7c0-2-1.4-2.9-3.8-2.9h-4
		C153.1,38.4,151.9,39.4,151.9,41.2z M160.3,20.5c0-2.6-1.6-4.3-4-4.3c-2.5,0-4,1.7-4,4.3c0,2.5,1.6,4.2,4,4.2
		C158.7,24.7,160.3,22.9,160.3,20.5z"/>
</g>
<g>
	<path class="st0" d="M7,100.7V75.4h-7.7v-6.1C5,69.3,8,68.1,9,64.2h5.2v36.5H7z"/>
	<path class="st0" d="M40.9,74.1c0,4.4-2,7.6-4.5,10.6l-7.7,9.3H41v6.7H18.8v-5.2L30,82.2c2.4-2.9,3.7-4.8,3.7-7.8
		c0-2.6-1.3-4.2-3.8-4.2s-4.2,1.6-4.2,5.1h-7.2c-0.1-7.2,4.5-11.8,11.4-11.8C37.2,63.5,40.9,67.8,40.9,74.1z"/>
	<path class="st0" d="M72.3,82.1h-6.7c-0.1-1.9-1-3-3-3c-2,0-2.9,1.1-2.9,2.6c0,1.6,0.9,2.4,4.6,3.1c6.4,1,8.7,3.7,8.7,8
		c0,6-4.8,8.6-10.2,8.6c-6.5,0-10.1-3.4-10.3-8.6h6.7c0.1,2.1,1.5,3.3,3.8,3.3c2.1,0,3.3-1,3.3-2.6c0-1.6-0.8-2.6-4.8-3.3
		c-5.8-1-8.4-3.5-8.4-7.9c0-4.5,3.2-8.6,9.7-8.6C68.3,73.7,72.2,77,72.3,82.1z"/>
	<path class="st0" d="M100.7,89.6H82.3c0.2,3.5,2.6,6,6.3,6c2.7,0,4.6-1,5.4-3.1h6.6c-1.6,5.6-5.7,8.9-12.1,8.9
		c-7.8,0-13.2-5.4-13.2-13.8c0-8,5.3-13.8,13.2-13.8c7,0,12.3,4.4,12.3,13.7V89.6z M93.9,84.9c-0.1-3.4-2.3-5.6-5.6-5.6
		c-3.4,0-5.7,2.3-6,5.6H93.9z"/>
	<path class="st0" d="M132.1,87.5c0,7.8-5.2,13.8-12.3,13.8c-3.8,0-6.6-1.6-7.9-3.5V112h-6.7V74.3h5.8l0.5,3.5
		c1.5-2.1,3.9-4.1,8.5-4.1C127,73.7,132.1,79.7,132.1,87.5z M111.7,87.4v0.3c0.1,4.7,3.4,7.3,6.7,7.3c3.7,0,6.7-2.9,6.7-7.5
		c0-4.5-2.9-7.5-6.7-7.5C115.1,80,111.7,82.6,111.7,87.4z"/>
	<path class="st0" d="M150.7,74.3v6.2h-6.1l-0.1,10.8c0,2.7,0.8,3.8,3.5,3.8c1.3,0,2-0.2,2.7-0.4v5.9c-0.8,0.3-2.1,0.6-4.2,0.6
		c-5.8,0-8.8-2.3-8.7-8.4l0.1-12.3h-4.3v-6.2h4.4l0.1-6.4h6.8l-0.1,6.4H150.7z"/>
	<path class="st0" d="M162.1,97.2c0,2.3-1.9,4.1-4.2,4.1c-2.3,0-4.2-1.8-4.2-4.1c0-2.3,1.8-4.1,4.2-4.1
		C160.2,93.1,162.1,94.9,162.1,97.2z"/>
	<path class="st0" d="M196,74.1c0,4.4-2,7.6-4.5,10.6l-7.7,9.3h12.3v6.7h-22.2v-5.2l11.2-13.3c2.4-2.9,3.7-4.8,3.7-7.8
		c0-2.6-1.3-4.2-3.8-4.2s-4.2,1.6-4.2,5.1h-7.2c-0.1-7.2,4.5-11.8,11.4-11.8C192.3,63.5,196,67.8,196,74.1z"/>
	<path class="st0" d="M224.4,82.4c0,11.7-4.6,19-12.9,19c-8.4,0-12.9-7.3-12.9-19c0-11.6,4.6-18.9,12.9-18.9
		C219.8,63.5,224.4,70.8,224.4,82.4z M205.7,82.4c0,7.8,1.9,12.3,5.7,12.3c3.9,0,5.7-4.5,5.7-12.3c0-7.7-1.9-12.2-5.7-12.2
		C207.7,70.2,205.7,74.7,205.7,82.4z"/>
	<path class="st0" d="M249.5,74.1c0,4.4-2,7.6-4.5,10.6l-7.7,9.3h12.3v6.7h-22.2v-5.2l11.2-13.3c2.4-2.9,3.7-4.8,3.7-7.8
		c0-2.6-1.3-4.2-3.8-4.2s-4.2,1.6-4.2,5.1h-7.2c-0.1-7.2,4.5-11.8,11.4-11.8C245.8,63.5,249.5,67.8,249.5,74.1z"/>
	<path class="st0" d="M259.5,100.7V75.4h-7.7v-6.1c5.6,0,8.6-1.2,9.6-5.1h5.2v36.5H259.5z"/>
</g>
</svg>
