<?xml version="1.0" encoding="utf-8"?>
<!-- Generator: Adobe Illustrator 24.0.0, SVG Export Plug-In . SVG Version: 6.00 Build 0)  -->
<svg version="1.1" id="Laag_1" xmlns="http://www.w3.org/2000/svg" xmlns:xlink="http://www.w3.org/1999/xlink" x="0px" y="0px"
	 width="144.4px" height="13.1px" viewBox="0 0 144.4 13.1" style="enable-background:new 0 0 144.4 13.1;" xml:space="preserve">
<style type="text/css">
	.st0{fill:#E30613;}
</style>
<g>
	<path class="st0" d="M0,0.9h3.5c0.8,0,1.5,0.2,1.9,0.6C5.8,1.9,6,2.5,6,3.2C6,3.7,6,4.1,5.8,4.4C5.6,4.7,5.4,4.9,5.1,5.1
		c0.3,0.1,0.6,0.2,0.9,0.3c0.2,0.1,0.4,0.3,0.6,0.5c0.1,0.2,0.3,0.4,0.3,0.6s0.1,0.5,0.1,0.8c0,0.4-0.1,0.8-0.2,1.1S6.3,9.1,6.1,9.3
		s-0.6,0.4-1,0.5C4.7,9.9,4.3,10,3.8,10H0V0.9z M2.4,4.5h0.4c0.7,0,1.1-0.3,1.1-0.9S3.5,2.7,2.8,2.7H2.4V4.5z M2.4,8.1h0.5
		c0.6,0,1-0.1,1.3-0.2c0.3-0.2,0.4-0.4,0.4-0.7S4.4,6.6,4.1,6.4C3.9,6.3,3.5,6.2,2.9,6.2H2.4V8.1z"/>
	<path class="st0" d="M10.1,7.2c0,0.9,0.4,1.4,1.3,1.4c0.5,0,0.8-0.2,1.1-0.6h2.1c-0.4,1.4-1.5,2.1-3.2,2.1c-0.5,0-1-0.1-1.4-0.2
		C9.5,9.8,9.1,9.6,8.8,9.3C8.5,9,8.3,8.7,8.1,8.3C7.9,7.9,7.9,7.4,7.9,6.9c0-0.5,0.1-1,0.2-1.4c0.2-0.4,0.4-0.8,0.7-1
		C9.1,4.2,9.4,4,9.9,3.8c0.4-0.2,0.9-0.2,1.4-0.2c0.5,0,1,0.1,1.4,0.2c0.4,0.2,0.8,0.4,1.1,0.7c0.3,0.3,0.5,0.7,0.7,1.1
		C14.6,6,14.6,6.5,14.6,7v0.2H10.1z M12.6,6c-0.1-0.3-0.2-0.5-0.4-0.7C11.9,5.1,11.7,5,11.3,5c-0.3,0-0.6,0.1-0.8,0.3
		c-0.2,0.2-0.3,0.4-0.4,0.7H12.6z"/>
	<path class="st0" d="M18,0v6l2.3-2.2h3l-3.1,2.8l3.3,3.3h-3L18,7.5V10h-2.2V0H18z"/>
	<path class="st0" d="M24.1,1.4c0-0.2,0-0.3,0.1-0.5c0.1-0.1,0.2-0.3,0.3-0.4c0.1-0.1,0.2-0.2,0.4-0.3c0.1-0.1,0.3-0.1,0.5-0.1
		c0.2,0,0.3,0,0.5,0.1s0.3,0.2,0.4,0.3c0.1,0.1,0.2,0.2,0.3,0.4c0.1,0.1,0.1,0.3,0.1,0.5s0,0.3-0.1,0.5c-0.1,0.1-0.2,0.3-0.3,0.4
		c-0.1,0.1-0.2,0.2-0.4,0.3c-0.1,0.1-0.3,0.1-0.5,0.1c-0.2,0-0.3,0-0.5-0.1c-0.1-0.1-0.3-0.2-0.4-0.3c-0.1-0.1-0.2-0.2-0.3-0.4
		S24.1,1.6,24.1,1.4z M26.4,3.8V10h-2.2V3.8H26.4z M28,1.4c0-0.2,0-0.3,0.1-0.5c0.1-0.1,0.2-0.3,0.3-0.4c0.1-0.1,0.2-0.2,0.4-0.3
		c0.1-0.1,0.3-0.1,0.5-0.1s0.3,0,0.5,0.1s0.3,0.2,0.4,0.3c0.1,0.1,0.2,0.2,0.3,0.4c0.1,0.1,0.1,0.3,0.1,0.5s0,0.3-0.1,0.5
		c-0.1,0.1-0.2,0.3-0.3,0.4c-0.1,0.1-0.2,0.2-0.4,0.3c-0.1,0.1-0.3,0.1-0.5,0.1s-0.3,0-0.5-0.1c-0.1-0.1-0.3-0.2-0.4-0.3
		c-0.1-0.1-0.2-0.2-0.3-0.4S28,1.6,28,1.4z M30.3,3.8V13h-2.2V3.8H30.3z"/>
	<path class="st0" d="M33.9,0v6l2.3-2.2h3l-3.1,2.8l3.3,3.3h-3l-2.4-2.5V10h-2.2V0H33.9z"/>
	<path class="st0" d="M44.2,0h2.2v4.6C46.7,4.2,47,4,47.3,3.9s0.7-0.2,1.1-0.2c0.8,0,1.4,0.2,1.8,0.6c0.4,0.4,0.6,1,0.6,1.7V10h-2.2
		V6.9c0-0.3,0-0.6-0.1-0.8c0-0.2-0.1-0.3-0.2-0.4c-0.2-0.2-0.4-0.3-0.7-0.3c-0.4,0-0.7,0.1-0.8,0.3c-0.2,0.2-0.3,0.5-0.3,0.9V10
		h-2.2V0z"/>
	<path class="st0" d="M54.1,7.2c0,0.9,0.4,1.4,1.3,1.4c0.5,0,0.8-0.2,1.1-0.6h2.1c-0.4,1.4-1.5,2.1-3.2,2.1c-0.5,0-1-0.1-1.4-0.2
		c-0.4-0.2-0.8-0.4-1.1-0.7c-0.3-0.3-0.5-0.6-0.7-1c-0.2-0.4-0.3-0.8-0.3-1.3c0-0.5,0.1-1,0.2-1.4c0.2-0.4,0.4-0.8,0.7-1
		c0.3-0.3,0.7-0.5,1.1-0.7c0.4-0.2,0.9-0.2,1.4-0.2c0.5,0,1,0.1,1.4,0.2c0.4,0.2,0.8,0.4,1.1,0.7c0.3,0.3,0.5,0.7,0.7,1.1
		C58.6,6,58.7,6.5,58.7,7v0.2H54.1z M56.7,6c-0.1-0.3-0.2-0.5-0.4-0.7C56,5.1,55.7,5,55.4,5c-0.3,0-0.6,0.1-0.8,0.3
		c-0.2,0.2-0.3,0.4-0.4,0.7H56.7z"/>
	<path class="st0" d="M62.5,5.6V10h-2.2V5.6h-0.7V3.8h0.7V2h2.2v1.8h1.2v1.8H62.5z"/>
	<path class="st0" d="M70.8,13h-2.2V3.8h2.2v0.7c0.5-0.6,1.1-0.9,1.9-0.9c0.4,0,0.9,0.1,1.2,0.3s0.7,0.4,1,0.7
		c0.3,0.3,0.5,0.6,0.7,1c0.2,0.4,0.2,0.8,0.2,1.3s-0.1,0.9-0.2,1.3c-0.2,0.4-0.4,0.7-0.6,1s-0.6,0.5-1,0.7c-0.4,0.2-0.8,0.3-1.2,0.3
		c-0.8,0-1.4-0.3-1.9-0.8V13z M73.5,6.9c0-0.2,0-0.4-0.1-0.5S73.2,6,73.1,5.9c-0.1-0.1-0.3-0.2-0.4-0.3c-0.2-0.1-0.4-0.1-0.6-0.1
		c-0.2,0-0.4,0-0.5,0.1c-0.2,0.1-0.3,0.2-0.4,0.3s-0.2,0.3-0.3,0.4c-0.1,0.2-0.1,0.4-0.1,0.5c0,0.2,0,0.4,0.1,0.5
		c0.1,0.2,0.2,0.3,0.3,0.4c0.1,0.1,0.3,0.2,0.4,0.3s0.4,0.1,0.5,0.1c0.2,0,0.4,0,0.5-0.1C72.8,8.1,73,8,73.1,7.9s0.2-0.3,0.3-0.4
		C73.5,7.3,73.5,7.1,73.5,6.9z"/>
	<path class="st0" d="M77,3.8h2.2v1C79.4,4.4,79.7,4.2,80,4c0.3-0.2,0.7-0.3,1.2-0.3c0.1,0,0.1,0,0.2,0s0.1,0,0.2,0v2.1
		c-0.3-0.1-0.6-0.2-0.9-0.2c-0.5,0-0.9,0.1-1.1,0.4c-0.3,0.3-0.4,0.7-0.4,1.3V10H77V3.8z"/>
	<path class="st0" d="M82.4,6.8c0-0.5,0.1-0.9,0.3-1.3c0.2-0.4,0.4-0.7,0.8-1s0.7-0.5,1.2-0.7s0.9-0.3,1.5-0.3c0.5,0,1,0.1,1.5,0.2
		C88,4,88.4,4.2,88.7,4.5s0.6,0.6,0.8,1c0.2,0.4,0.3,0.9,0.3,1.3c0,0.5-0.1,0.9-0.3,1.3c-0.2,0.4-0.4,0.8-0.8,1S88,9.8,87.6,9.9
		c-0.5,0.2-1,0.2-1.5,0.2c-0.5,0-1-0.1-1.5-0.2c-0.4-0.2-0.8-0.4-1.2-0.7s-0.6-0.6-0.8-1.1C82.5,7.8,82.4,7.3,82.4,6.8z M84.7,6.9
		c0,0.2,0,0.4,0.1,0.6c0.1,0.2,0.2,0.3,0.3,0.5s0.3,0.2,0.4,0.3c0.2,0.1,0.4,0.1,0.5,0.1c0.2,0,0.4,0,0.5-0.1
		C86.8,8.1,87,8,87.1,7.9c0.1-0.1,0.2-0.3,0.3-0.5c0.1-0.2,0.1-0.4,0.1-0.6c0-0.2,0-0.4-0.1-0.5c-0.1-0.2-0.2-0.3-0.3-0.4
		c-0.1-0.1-0.3-0.2-0.4-0.3c-0.2-0.1-0.4-0.1-0.5-0.1c-0.2,0-0.4,0-0.5,0.1c-0.2,0.1-0.3,0.2-0.4,0.3s-0.2,0.3-0.3,0.4
		S84.7,6.7,84.7,6.9z"/>
	<path class="st0" d="M97.9,3.8v5.7c0,0.3,0,0.7-0.1,0.9s-0.1,0.5-0.2,0.7c-0.1,0.3-0.2,0.5-0.5,0.7s-0.5,0.4-0.7,0.6
		s-0.6,0.3-1,0.4c-0.4,0.1-0.8,0.1-1.2,0.1c-0.5,0-0.9-0.1-1.3-0.2c-0.4-0.1-0.8-0.3-1.1-0.5c-0.3-0.2-0.5-0.5-0.7-0.7
		c-0.2-0.3-0.3-0.6-0.4-0.9h2.4c0.2,0.4,0.5,0.6,1,0.6c0.5,0,0.8-0.1,1-0.4c0.2-0.3,0.4-0.6,0.4-1.1V9.3c-0.2,0.2-0.3,0.3-0.5,0.4
		c-0.1,0.1-0.3,0.2-0.5,0.2S94.5,10,94.4,10c-0.2,0-0.4,0-0.6,0c-0.4,0-0.8-0.1-1.2-0.2s-0.7-0.4-1-0.6c-0.3-0.3-0.5-0.6-0.6-1
		c-0.1-0.4-0.2-0.8-0.2-1.3c0-0.5,0.1-0.9,0.2-1.3c0.2-0.4,0.4-0.8,0.7-1.1c0.3-0.3,0.6-0.5,1-0.7s0.8-0.3,1.2-0.3
		c0.7,0,1.3,0.3,1.8,0.8V3.8H97.9z M93.1,6.9c0,0.2,0,0.4,0.1,0.6c0.1,0.2,0.2,0.3,0.3,0.4s0.3,0.2,0.4,0.3c0.2,0.1,0.4,0.1,0.6,0.1
		c0.2,0,0.4,0,0.5-0.1c0.2-0.1,0.3-0.2,0.4-0.3s0.2-0.3,0.3-0.4c0.1-0.2,0.1-0.4,0.1-0.5c0-0.2,0-0.4-0.1-0.6S95.6,6,95.4,5.9
		c-0.1-0.1-0.3-0.2-0.5-0.3c-0.2-0.1-0.4-0.1-0.5-0.1c-0.2,0-0.4,0-0.5,0.1c-0.2,0.1-0.3,0.2-0.4,0.3s-0.2,0.3-0.3,0.4
		S93.1,6.7,93.1,6.9z"/>
	<path class="st0" d="M99.6,3.8h2.2v1c0.2-0.4,0.5-0.6,0.9-0.8c0.3-0.2,0.7-0.3,1.2-0.3c0.1,0,0.1,0,0.2,0s0.1,0,0.2,0v2.1
		c-0.3-0.1-0.6-0.2-0.9-0.2c-0.5,0-0.9,0.1-1.1,0.4c-0.3,0.3-0.4,0.7-0.4,1.3V10h-2.2V3.8z"/>
	<path class="st0" d="M110,3.8h2.2V10H110V9.3c-0.5,0.6-1.1,0.9-1.9,0.9c-0.4,0-0.9-0.1-1.2-0.2c-0.4-0.2-0.7-0.4-1-0.7
		c-0.3-0.3-0.5-0.6-0.7-1c-0.2-0.4-0.2-0.8-0.2-1.3c0-0.4,0.1-0.9,0.2-1.3c0.2-0.4,0.4-0.7,0.6-1c0.3-0.3,0.6-0.5,1-0.7
		s0.8-0.3,1.2-0.3c0.8,0,1.4,0.3,1.9,0.8V3.8z M107.3,6.9c0,0.2,0,0.4,0.1,0.6c0.1,0.2,0.2,0.3,0.3,0.5s0.3,0.2,0.4,0.3
		c0.2,0.1,0.4,0.1,0.6,0.1c0.2,0,0.4,0,0.5-0.1c0.2-0.1,0.3-0.2,0.4-0.3s0.2-0.3,0.3-0.4c0.1-0.2,0.1-0.3,0.1-0.5
		c0-0.2,0-0.4-0.1-0.5c-0.1-0.2-0.2-0.3-0.3-0.4s-0.3-0.2-0.4-0.3c-0.2-0.1-0.4-0.1-0.5-0.1c-0.2,0-0.4,0-0.6,0.1
		c-0.2,0.1-0.3,0.2-0.4,0.3s-0.2,0.3-0.3,0.4S107.3,6.7,107.3,6.9z"/>
	<path class="st0" d="M113.7,3.8h2.2v0.8c0.6-0.6,1.3-0.9,2-0.9c0.9,0,1.6,0.4,2.1,1.2c0.5-0.8,1.2-1.2,2.1-1.2c0.3,0,0.6,0,0.8,0.1
		c0.3,0.1,0.5,0.2,0.7,0.4c0.2,0.2,0.3,0.4,0.4,0.7s0.2,0.6,0.2,1v4h-2.2v-3c0-0.3,0-0.6-0.1-0.8c0-0.2-0.1-0.4-0.2-0.5
		c-0.1-0.1-0.2-0.2-0.3-0.2c-0.1,0-0.2-0.1-0.4-0.1c-0.7,0-1,0.5-1,1.5v3h-2.2v-3c0-0.3,0-0.6-0.1-0.8s-0.1-0.4-0.2-0.5
		s-0.2-0.2-0.3-0.2s-0.3-0.1-0.4-0.1c-0.1,0-0.3,0-0.4,0.1s-0.2,0.1-0.3,0.2c-0.1,0.1-0.2,0.3-0.2,0.5c-0.1,0.2-0.1,0.5-0.1,0.8v3
		h-2.2V3.8z"/>
	<path class="st0" d="M125.6,3.8h2.2v0.8c0.6-0.6,1.3-0.9,2-0.9c0.9,0,1.6,0.4,2.1,1.2c0.5-0.8,1.2-1.2,2.1-1.2c0.3,0,0.6,0,0.8,0.1
		c0.3,0.1,0.5,0.2,0.7,0.4c0.2,0.2,0.3,0.4,0.4,0.7s0.2,0.6,0.2,1v4h-2.2v-3c0-0.3,0-0.6-0.1-0.8c0-0.2-0.1-0.4-0.2-0.5
		c-0.1-0.1-0.2-0.2-0.3-0.2c-0.1,0-0.2-0.1-0.4-0.1c-0.7,0-1,0.5-1,1.5v3h-2.2v-3c0-0.3,0-0.6-0.1-0.8s-0.1-0.4-0.2-0.5
		s-0.2-0.2-0.3-0.2s-0.3-0.1-0.4-0.1c-0.1,0-0.3,0-0.4,0.1s-0.2,0.1-0.3,0.2c-0.1,0.1-0.2,0.3-0.2,0.5c-0.1,0.2-0.1,0.5-0.1,0.8v3
		h-2.2V3.8z"/>
	<path class="st0" d="M142.3,3.8h2.2V10h-2.2V9.3c-0.5,0.6-1.1,0.9-1.9,0.9c-0.4,0-0.9-0.1-1.2-0.2c-0.4-0.2-0.7-0.4-1-0.7
		c-0.3-0.3-0.5-0.6-0.7-1c-0.2-0.4-0.2-0.8-0.2-1.3c0-0.4,0.1-0.9,0.2-1.3c0.2-0.4,0.4-0.7,0.6-1c0.3-0.3,0.6-0.5,1-0.7
		s0.8-0.3,1.2-0.3c0.8,0,1.4,0.3,1.9,0.8V3.8z M139.5,6.9c0,0.2,0,0.4,0.1,0.6c0.1,0.2,0.2,0.3,0.3,0.5s0.3,0.2,0.4,0.3
		c0.2,0.1,0.4,0.1,0.6,0.1c0.2,0,0.4,0,0.5-0.1c0.2-0.1,0.3-0.2,0.4-0.3s0.2-0.3,0.3-0.4c0.1-0.2,0.1-0.3,0.1-0.5
		c0-0.2,0-0.4-0.1-0.5c-0.1-0.2-0.2-0.3-0.3-0.4s-0.3-0.2-0.4-0.3c-0.2-0.1-0.4-0.1-0.5-0.1c-0.2,0-0.4,0-0.6,0.1
		c-0.2,0.1-0.3,0.2-0.4,0.3s-0.2,0.3-0.3,0.4S139.5,6.7,139.5,6.9z"/>
</g>
</svg>
