<?xml version="1.0" encoding="utf-8"?>
<!-- Generator: Adobe Illustrator 24.0.0, SVG Export Plug-In . SVG Version: 6.00 Build 0)  -->
<svg version="1.1" id="Laag_1" xmlns="http://www.w3.org/2000/svg" xmlns:xlink="http://www.w3.org/1999/xlink" x="0px" y="0px"
	 width="74.7px" height="26.9px" viewBox="0 0 74.7 26.9" style="enable-background:new 0 0 74.7 26.9;" xml:space="preserve">
<style type="text/css">
	.st0{fill:#FFFFFF;}
</style>
<g>
	<path class="st0" d="M0.7,0.9h7.6c2,0,3.1,1.1,3.1,2.6s-1.2,2.4-3.1,2.4h-1c2.3,0.2,3.2,1.5,4.9,4.7H9.9c-1.8-3.2-2.3-4.1-4-4.1
		H2.7v4.1h-2C0.7,10.6,0.7,0.9,0.7,0.9z M7.9,4.8c1.1,0,1.6-0.4,1.6-1.1c0-0.9-0.5-1.2-1.6-1.2H2.7v2.4h5.2V4.8z"/>
	<path class="st0" d="M12.9,8.9c0-2,3.9-2.3,6.2-2.5c0-1.1-0.6-1.5-2-1.5c-1.1,0-2.4,0.4-3.3,0.8V4.1c1.2-0.4,2.6-0.7,3.9-0.7
		c2.5,0,3.4,1.3,3.4,3.2v3.9h-1.9l0.4-2.3h-0.1c-0.4,1.8-1.8,2.6-3.9,2.6C14.5,10.8,12.9,10.5,12.9,8.9z M19.1,7.4
		C17.5,7.6,15,7.6,15,8.6c0,0.5,0.5,0.7,1.3,0.7C17.7,9.4,19.1,8.7,19.1,7.4z"/>
	<path class="st0" d="M23.3,12.7V11c0.7,0.5,2,0.8,3.4,0.8c2,0,2.8-0.8,2.8-2.4V8.5c-0.4,1.4-1.8,2.2-3.4,2.2
		c-2.3,0-3.9-1.4-3.9-3.7c0-2.2,1.6-3.6,3.6-3.6c1.7,0,3.3,0.8,3.6,2.5h0.2l-0.2-2.2h1.9v6.1c0,2.5-1.8,3.6-4.5,3.6
		C25.3,13.3,24.4,13.1,23.3,12.7z M29.2,7.1C29.2,5.8,28,5,26.7,5c-1.4,0-2.5,0.8-2.5,2.1c0,1.4,1,2.2,2.5,2.2
		C28,9.2,29.2,8.4,29.2,7.1z"/>
	<path class="st0" d="M32.7,8.9c0-2,3.9-2.3,6.2-2.5c0-1.1-0.6-1.5-2-1.5c-1.1,0-2.4,0.4-3.3,0.8V4.1c1.2-0.4,2.6-0.7,3.9-0.7
		c2.5,0,3.4,1.3,3.4,3.2v3.9H39l0.4-2.3h-0.1c-0.4,1.8-1.8,2.6-3.9,2.6C34.2,10.8,32.7,10.5,32.7,8.9z M38.9,7.4
		c-1.6,0.1-4.1,0.2-4.1,1.2c0,0.5,0.5,0.7,1.3,0.7C37.4,9.4,38.8,8.7,38.9,7.4z"/>
	<path class="st0" d="M41.7,9.7l5.6-4.6h-5.5V3.6h9v0.8l-5.6,4.7h5.5v1.5h-8.9V9.7H41.7z"/>
	<path class="st0" d="M51.4,9.7L57,5.1h-5.5V3.6h9v0.8l-5.6,4.7h5.5v1.5h-8.9L51.4,9.7L51.4,9.7z"/>
	<path class="st0" d="M61.3,7.1c0-2.2,1.7-3.7,4.2-3.7s4.1,1.3,4.2,3.1v1.1h-6.4c0.2,1.1,1.1,1.6,2.9,1.6c1.7,0,2.4-0.4,3.2-0.8V10
		c-1.3,0.5-2.1,0.7-3.9,0.7C63,10.8,61.3,9.3,61.3,7.1z M67.8,6.6c0-1-1-1.7-2.3-1.7c-1.2,0-2.1,0.7-2.2,1.8L67.8,6.6z"/>
	<path class="st0" d="M11.8,25.5l-1.6-1c-1,0.7-2.4,1.1-4.1,1.1c-3.8,0-6.1-2-6.1-5.1s2.3-5.1,6.1-5.1c3.8,0,6.1,2,6.1,5.1
		c0,1.1-0.3,2-0.8,2.7l1.3,0.8L11.8,25.5z M8.5,23.5L6,22l0.8-1.4l3,1.7c0.3-0.5,0.5-1.1,0.5-1.8c0-2.1-1.6-3.4-4.2-3.4
		c-2.5,0-4.2,1.3-4.2,3.4s1.6,3.4,4.2,3.4C7,24,7.8,23.8,8.5,23.5z"/>
	<path class="st0" d="M21.8,25.4h-2.2l0.3-2.9h-0.1c-0.3,1.8-1.3,3.1-3.4,3.1c-2,0-2.9-1.1-2.9-4.1v-3h2v2.8c0,2.1,0.6,2.9,1.9,2.9
		c1.5,0,2.4-1.5,2.4-3.8v-1.9h2C21.8,18.5,21.8,25.4,21.8,25.4z"/>
	<path class="st0" d="M23.1,23.8c0-2,3.9-2.3,6.2-2.5c0-1.1-0.6-1.5-2-1.5c-1.1,0-2.4,0.4-3.3,0.8V19c1.2-0.4,2.6-0.7,3.9-0.7
		c2.5,0,3.4,1.3,3.4,3.2v3.9h-1.9l0.4-2.3h-0.1c-0.4,1.8-1.8,2.6-3.9,2.6C24.7,25.7,23.1,25.4,23.1,23.8z M29.3,22.3
		c-1.6,0.1-4.1,0.2-4.1,1.2c0,0.5,0.5,0.7,1.3,0.7C27.9,24.3,29.3,23.6,29.3,22.3z"/>
	<path class="st0" d="M32.6,18.5h2.2l-0.3,2.6h0.1c0.4-2,1.4-2.8,4-2.8v1.6c-2.9,0-4.1,0.9-4.1,3.2v2.3h-2v-6.9H32.6z"/>
	<path class="st0" d="M40.5,22.9v-3h-1v-1.4h1.1v-1.6l1.9-0.3v1.9h2v1.4h-2v2.6c0,1.4,0,1.8,1.3,1.8c0.2,0,0.4,0,0.7,0v1
		c-0.6,0.2-1.1,0.3-1.9,0.3C40.7,25.6,40.5,24.9,40.5,22.9z"/>
	<path class="st0" d="M45.3,22c0-2.2,1.7-3.7,4.2-3.7s4.1,1.3,4.2,3.1v1.1h-6.4c0.2,1.1,1.1,1.6,2.9,1.6c1.7,0,2.4-0.4,3.2-0.8v1.6
		c-1.3,0.5-2.1,0.7-3.9,0.7C47,25.7,45.3,24.2,45.3,22z M51.8,21.5c0-1-1-1.7-2.3-1.7c-1.2,0-2.1,0.7-2.2,1.8L51.8,21.5z"/>
	<path class="st0" d="M55.6,22.9v-3h-1v-1.4h1.1v-1.6l1.9-0.3v1.9h2v1.4h-2v2.6c0,1.4,0,1.8,1.3,1.8c0.2,0,0.4,0,0.7,0v1
		c-0.6,0.2-1.1,0.3-1.9,0.3C55.9,25.6,55.6,24.9,55.6,22.9z"/>
</g>
</svg>
