<?xml version="1.0" encoding="utf-8"?>
<!-- Generator: Adobe Illustrator 24.3.0, SVG Export Plug-In . SVG Version: 6.00 Build 0)  -->
<svg version="1.1" id="Laag_1" xmlns="http://www.w3.org/2000/svg" xmlns:xlink="http://www.w3.org/1999/xlink" x="0px" y="0px"
	 width="153px" height="45.4px" viewBox="0 0 153 45.4" style="enable-background:new 0 0 153 45.4;" xml:space="preserve">
<style type="text/css">
	.st0{fill:#FFFFFF;}
</style>
<polygon points="10.1,7.1 153,0 153,45.4 0,39.7 "/>
<g>
	<path class="st0" d="M30.9,21.3V18c0.3,0,0.6-0.1,1-0.2c0.4-0.2,0.8-0.4,1.1-0.7c0.4-0.3,0.6-0.6,0.6-0.9h1.8v13.2h-1.3v-9.7
		c-0.2,0.4-0.7,0.7-1.4,1.1C32,21.2,31.4,21.3,30.9,21.3z"/>
	<path class="st0" d="M42.2,19.5v-3.3h9.2v3.3h-3.9v10h-1.3v-10H42.2z"/>
	<path class="st0" d="M52.7,33.1l5.1-18l1.3,0L54,33.1H52.7z"/>
	<path class="st0" d="M61.5,29.5V16.3h2.9l3.4,11.1l3.5-11.1h2.8v13.2h-1.3V18.9L69,29.5h-2.2l-4.1-10.7v10.7H61.5z"/>
	<path class="st0" d="M80.8,19.5v-3.3h8v2.6c-0.7,0.8-1.4,1.7-2,2.5c-0.6,0.8-1.1,1.7-1.6,2.6c-0.5,0.9-0.8,1.8-1.1,2.8
		c-0.3,0.9-0.4,1.8-0.4,2.7h-1.3c0-0.8,0.1-1.7,0.4-2.7c0.3-1,0.6-2,1.1-2.9c0.4-0.9,0.9-1.8,1.4-2.5c0.5-0.8,1-1.4,1.4-1.8H80.8z"
		/>
	<path class="st0" d="M94.9,23c0-1.2,0.1-2.3,0.4-3.2c0.3-0.9,0.6-1.6,1.1-2.1c0.5-0.5,1-0.9,1.7-1.2c0.6-0.3,1.4-0.4,2.2-0.4
		c0.6,0,1.2,0.1,1.8,0.2c0.5,0.2,1,0.4,1.5,0.8c0.4,0.3,0.8,0.8,1.1,1.3s0.5,1.2,0.7,2c0.2,0.8,0.3,1.6,0.3,2.6c0,1.1-0.1,2.1-0.4,3
		s-0.6,1.6-1.1,2.1c-0.5,0.5-1,0.9-1.7,1.2s-1.4,0.4-2.2,0.4c-0.6,0-1.2-0.1-1.8-0.2s-1-0.4-1.5-0.8c-0.5-0.4-0.8-0.8-1.2-1.3
		c-0.3-0.5-0.6-1.1-0.7-1.9C95,24.7,94.9,23.9,94.9,23z M96.1,23C96.1,23,96.1,23,96.1,23c0,0.8,0.1,1.4,0.3,2
		c0.2,0.6,0.5,1,0.9,1.3c0.4,0.3,0.9,0.6,1.3,0.7c0.5,0.1,1,0.2,1.6,0.2c0.6,0,1.2-0.1,1.7-0.2s0.9-0.4,1.3-0.7
		c0.4-0.3,0.7-0.8,0.9-1.3c0.2-0.5,0.3-1.2,0.3-1.9c0,0,0,0,0-0.1c0-1.1-0.4-2-1.1-2.6c-0.7-0.7-1.8-1-3.1-1c-1.4,0-2.4,0.3-3.1,1
		C96.4,21,96.1,21.9,96.1,23z"/>
	<path class="st0" d="M108.5,29.5V16.3h1.3v5.8l5.1-5.8h3.6l-5.7,6.2l5,7.1h-1.6l-4.3-6l-2.1,2.2v3.8H108.5z"/>
	<path class="st0" d="M119,19.5v-3.3h9.2v3.3h-3.9v10h-1.3v-10H119z"/>
</g>
</svg>
