<?xml version="1.0" encoding="utf-8"?>
<!-- Generator: Adobe Illustrator 22.0.0, SVG Export Plug-In . SVG Version: 6.00 Build 0)  -->
<svg version="1.1" id="Laag_1" xmlns="http://www.w3.org/2000/svg" xmlns:xlink="http://www.w3.org/1999/xlink" x="0px" y="0px"
	 viewBox="0 0 202.8 33.2" style="enable-background:new 0 0 202.8 33.2;" xml:space="preserve">
<g>
	<path d="M4.5,19.2v9.5H1.1V0.3h4.6c2.7,0,4.5,1,4.5,2.9v13.1c0,2-1.9,3-4.5,3L4.5,19.2L4.5,19.2z M6.7,16.1V3.3
		c0-0.7-0.5-1.1-1.3-1.1h-1v14.9h1C6.3,17.2,6.7,16.8,6.7,16.1z"/>
	<path d="M17.9,28.7l-1.1-11.6h-1.5v11.6H12V0.3h4.6c2.7,0,4.4,0.9,4.4,2.9v10.9c0,1-0.5,1.7-1.2,2.1l1.5,12.5H17.9z M16.2,15.1
		c0.9,0,1.3-0.3,1.3-1.1V3.4c0-0.7-0.5-1.1-1.3-1.1h-0.9v12.9L16.2,15.1L16.2,15.1z"/>
	<path d="M29.7,26.7v2H23V0.3h6.6v2h-3.2V13h3v2h-3v11.8L29.7,26.7L29.7,26.7z"/>
	<path d="M36.7,10.7V2.9c0-0.5-0.4-0.8-1.1-0.8c-0.7,0-1.1,0.3-1.1,0.7v7.7c0,0.9,0.3,1.3,1.3,1.7l1.5,0.5c1.8,0.7,2.8,1.4,2.8,3.2
		v9.9c0,1.9-1.7,2.9-4.5,2.9s-4.6-1-4.6-2.8v-9.4h3.4v9.3c0,0.5,0.4,0.9,1.2,0.9c0.7,0,1.1-0.4,1.1-0.8v-9.3c0-1-0.4-1.4-1.4-1.8
		l-1.6-0.6c-1.8-0.7-2.7-1.5-2.7-3.3V2.7C31,1.1,32.5,0,35.6,0C38.5,0,40,1,40,2.7v7.9h-3.3V10.7z"/>
	<path d="M48.8,26.7v2h-6.7V0.3h6.6v2h-3.2V13h3v2h-3v11.8L48.8,26.7L48.8,26.7z"/>
	<path d="M56.4,8.1V0.3h3v28.5h-3.2l-3-18.5H53l0.4,9.7v8.8h-3V0.3h3.3l2.9,17.5h0.3L56.4,8.1z"/>
	<path d="M69.3,2.3h-2.7v26.5h-3.4V2.3h-2.7v-2h8.8V2.3z"/>
	<path d="M77.1,26.7v2h-6.7V0.3H77v2h-3.2V13h3v2h-3v11.8L77.1,26.7L77.1,26.7z"/>
	<path d="M84.6,28.7l-1.1-11.6H82v11.6h-3.3V0.3h4.6c2.7,0,4.4,0.9,4.4,2.9v10.9c0,1-0.5,1.7-1.2,2.1L88,28.7H84.6z M82.9,15.1
		c0.9,0,1.3-0.3,1.3-1.1V3.4c0-0.7-0.5-1.1-1.3-1.1H82v12.9L82.9,15.1L82.9,15.1z"/>
	<path d="M96.4,26.7v2h-6.7V0.3h6.6v2h-3.2V13h3v2h-3v11.8L96.4,26.7L96.4,26.7z"/>
	<path d="M103.9,8.1V0.3h3v28.5h-3.2l-3-18.5h-0.3l0.4,9.7v8.8h-3V0.3h3.3l2.9,17.5h0.3L103.9,8.1z"/>
	<path d="M0,32.5V31h108v1.5H0z"/>
</g>
</svg>
