<svg xmlns="http://www.w3.org/2000/svg" xmlns:xlink="http://www.w3.org/1999/xlink" width="347.7" height="185.3" xmlns:v="https://vecta.io/nano"><g fill="#6a3f24"><path d="M14.9 34.5c-2.1 0-4-.3-5.6-.8S6.2 32.3 5 31.2s-2.2-2.6-2.8-4.3-1-3.9-1-6.3V0h7.2v20.5c0 4.9 2.2 7.3 6.5 7.3s6.5-2.4 6.5-7.3V0h7.1v20.5c0 4.7-1.2 8.2-3.6 10.5s-5.7 3.5-10 3.5zM47.4 8c3.3 0 5.8.9 7.5 2.8s2.6 4.6 2.6 8.1v15h-6.9V19.6c0-1.9-.3-3.4-.9-4.3S47.9 14 46.3 14s-2.8.5-3.7 1.5-1.3 2.4-1.3 4.2v14.2h-6.9V8.5h5.2c.3 0 .5.1.7.3s.3.4.3.7v1.9C42.4 9.1 44.7 8 47.4 8zM94 0h6.9v33.9h-5.2c-.3 0-.5-.1-.7-.3s-.3-.4-.3-.7v-2.2c-2.1 2.4-4.8 3.6-7.9 3.6-3.5 0-6.3-1.2-8.4-3.6s-3.1-5.6-3.1-9.6c0-4.2 1-7.4 3.1-9.7s5-3.5 8.7-3.5c2.7 0 5 .8 6.8 2.3V0zm-5.9 28.4c1.8 0 3.3-.6 4.3-1.9s1.6-2.9 1.6-5.1V21c0-2.1-.5-3.8-1.6-5.1S89.9 14 88.1 14s-3.2.7-4.3 2-1.5 3.1-1.5 5.2.5 3.9 1.6 5.2 2.4 2 4.2 2zm39.6 2.5c-2.3 2.4-5.4 3.6-9.3 3.6s-7-1.2-9.3-3.6-3.5-5.6-3.5-9.7 1.2-7.3 3.5-9.7 5.4-3.6 9.3-3.6 7 1.2 9.3 3.6 3.5 5.6 3.5 9.7c0 4-1.2 7.3-3.5 9.7zm-13.6-4.5c1 1.3 2.5 2 4.3 2s3.3-.7 4.3-2 1.5-3.1 1.5-5.2-.5-3.9-1.5-5.2-2.5-2-4.3-2-3.3.7-4.3 2-1.5 3.1-1.5 5.2.4 3.9 1.5 5.2zM148.9 8c3.3 0 5.8.9 7.5 2.8s2.6 4.6 2.6 8.1v15h-7V19.6c0-1.9-.3-3.4-.9-4.3s-1.8-1.4-3.4-1.4-2.8.5-3.7 1.5-1.3 2.4-1.3 4.2v14.2h-6.9V8.5h5.2c.3 0 .5.1.7.3s.3.4.3.7v1.9c1.8-2.3 4.1-3.4 6.9-3.4zm36.5 22.9c-2.3 2.4-5.4 3.6-9.3 3.6s-7-1.2-9.3-3.6-3.5-5.6-3.5-9.7 1.2-7.3 3.5-9.7 5.4-3.6 9.3-3.6 7 1.2 9.3 3.6 3.5 5.6 3.5 9.7c-.1 4-1.2 7.3-3.5 9.7zm-13.7-4.5c1 1.3 2.5 2 4.3 2s3.3-.7 4.3-2 1.5-3.1 1.5-5.2-.5-3.9-1.5-5.2-2.5-2-4.3-2-3.3.7-4.3 2-1.5 3.1-1.5 5.2.5 3.9 1.5 5.2zM12.8 82.5c-3.9 0-7-1.2-9.3-3.6S0 73.2 0 69.3c0-4.1 1.1-7.3 3.4-9.7S8.8 56 12.7 56c3.1 0 5.6.8 7.8 2.3 2.1 1.5 3.5 3.8 4.2 6.7l-5.3 1c-1 .2-1.7-.1-2.1-.9-.8-2.1-2.4-3.1-4.6-3.1-1.9 0-3.3.7-4.4 2s-1.5 3.1-1.5 5.3c0 2.1.5 3.8 1.5 5.1s2.5 2 4.3 2c1.3 0 2.3-.3 3-.8s1.3-1.4 1.7-2.5a1.96 1.96 0 0 1 .9-.9c.4-.2.8-.2 1.3-.1l5.2 1c-.6 3.1-2 5.4-4.2 7-2 1.5-4.6 2.4-7.7 2.4zM42.1 56c3.3 0 5.8.9 7.5 2.8s2.6 4.6 2.6 8.1v15h-6.9V67.6c0-1.9-.3-3.4-.9-4.3S42.6 62 41 62s-2.8.5-3.8 1.5-1.4 2.4-1.4 4.2v14.2H29V48h6.9v10.5c1.7-1.7 3.8-2.5 6.2-2.5zm27.5-.1c3.8 0 7 1.3 9.3 3.8s3.6 5.8 3.6 9.9v1.1a1.08 1.08 0 0 1-.3.7c-.2.2-.4.3-.7.3H63.7c.4 1.4 1.1 2.6 2.1 3.4s2.2 1.3 3.8 1.3c1.1 0 2.1-.3 2.9-.8s1.4-1.2 1.8-1.9c.3-.5.8-.6 1.3-.4l5.7 2c-.9 2.2-2.3 4-4.3 5.2s-4.5 1.9-7.5 1.9c-3.9 0-7-1.2-9.4-3.6s-3.6-5.6-3.6-9.5c0-4 1.2-7.2 3.6-9.7s5.6-3.7 9.5-3.7zm0 6c-1.4 0-2.6.4-3.5 1.1s-1.7 1.8-2.1 3.1h11.2c-.5-1.3-1.2-2.3-2.1-3.1s-2.2-1.1-3.5-1.1zm46.7-5.4h7.5l-9.5 25.4H107l-9.5-25.4h7.6l5.2 14.4c.1.2.1.3.1.5v.6c0 .2.1.2.2.2h.1l5.6-15.7zm14.4-2.7c-1.1 0-2-.3-2.7-1s-1-1.6-1-2.7.3-2 1-2.7a3.69 3.69 0 0 1 2.7-1.1 3.69 3.69 0 0 1 3.8 3.8 3.69 3.69 0 0 1-1.1 2.7c-.7.7-1.6 1-2.7 1zm-3.5 28.1V56.5h6.9v25.4h-6.9zm24.6-26c3.8 0 7 1.3 9.3 3.8s3.6 5.8 3.6 9.9v1.1a1.08 1.08 0 0 1-.3.7c-.2.2-.4.3-.7.3H146c.4 1.4 1.1 2.6 2.1 3.4s2.2 1.3 3.8 1.3c1.1 0 2.1-.3 2.9-.8s1.4-1.2 1.8-1.9c.3-.5.8-.6 1.3-.4l5.7 2c-.9 2.2-2.3 4-4.3 5.2s-4.5 1.9-7.5 1.9c-3.9 0-7-1.2-9.4-3.6s-3.6-5.6-3.6-9.5c0-4 1.2-7.2 3.6-9.7s5.6-3.7 9.4-3.7zm0 6c-1.4 0-2.6.4-3.5 1.1s-1.7 1.8-2.1 3.1h11.2c-.5-1.3-1.2-2.3-2.1-3.1s-2.1-1.1-3.5-1.1zm30.6-5.9c3.3 0 5.8.9 7.5 2.8s2.6 4.6 2.6 8.1v15h-6.9V67.6c0-1.9-.3-3.4-.9-4.3s-1.8-1.4-3.4-1.4-2.8.5-3.7 1.5-1.3 2.4-1.3 4.2v14.2h-6.9V56.5h5.2c.3 0 .5.1.7.3s.3.4.3.7v1.9c1.8-2.3 4-3.4 6.8-3.4zm27.5-.1c3.8 0 7 1.3 9.3 3.8s3.6 5.8 3.6 9.9v1.1a1.08 1.08 0 0 1-.3.7c-.2.2-.4.3-.7.3H204c.4 1.4 1.1 2.6 2.1 3.4s2.2 1.3 3.8 1.3c1.1 0 2.1-.3 2.9-.8s1.4-1.2 1.8-1.9c.3-.5.8-.6 1.3-.4l5.7 2c-.9 2.2-2.3 4-4.3 5.2s-4.5 1.9-7.5 1.9c-3.9 0-7-1.2-9.4-3.6s-3.6-5.6-3.6-9.5c0-4 1.2-7.2 3.6-9.7s5.6-3.7 9.5-3.7zm0 6c-1.4 0-2.6.4-3.5 1.1s-1.7 1.8-2.1 3.1h11.2c-.5-1.3-1.2-2.3-2.1-3.1s-2.2-1.1-3.5-1.1zM18.6 96h6.9v33.9h-5.2c-.3 0-.5-.1-.7-.3s-.3-.4-.3-.7v-2.2c-2.1 2.4-4.8 3.6-7.9 3.6-3.5 0-6.3-1.2-8.4-3.6s-3-5.5-3-9.5c0-4.2 1-7.4 3.1-9.7s5-3.5 8.7-3.5c2.7 0 5 .8 6.8 2.3V96zm-5.8 28.4c1.8 0 3.3-.6 4.3-1.9s1.6-2.9 1.6-5.1v-.4c0-2.1-.5-3.8-1.6-5.1s-2.5-1.9-4.3-1.9-3.2.7-4.3 2-1.5 3.1-1.5 5.2.5 3.9 1.6 5.2 2.3 2 4.2 2zm41.2-1c.3.3.5.9.5 1.7v4.9h-.7c-3 0-5.1-1-6.4-2.9-2.1 2.2-5.1 3.3-9 3.3-2.5 0-4.5-.7-6-2s-2.2-3.2-2.2-5.5c0-2.2.7-4 2.1-5.5s3.6-2.4 6.5-2.8c3.7-.4 6.1-1 7.4-1.7v-.1c0-.8-.4-1.5-1.2-2s-1.7-.8-2.9-.8c-.6 0-1.2 0-1.7.1s-1 .2-1.5.4l-1 .4c-.2.1-.5.3-1 .6l-.7.4c-.6.3-1.1.4-1.7.3s-1-.4-1.3-.8l-2.1-2.9c.3-.4.8-.9 1.3-1.3s1.3-.9 2.2-1.4 1.9-.9 3.1-1.3 2.5-.5 3.8-.5c3.7 0 6.6.9 8.5 2.6s2.9 4.3 2.9 7.7v7.2c.1.8.5 1.5 1.1 1.9h0zm-14.6 1.2c.7 0 1.4 0 2-.1s1.2-.3 1.8-.5 1.2-.6 1.6-1 .8-1 1.1-1.7.4-1.5.4-2.4v-.7c-1.3 1.1-3.3 1.6-5.9 1.7-1.2.1-2.1.4-2.7.8s-.9 1-.9 1.8c0 .7.2 1.2.7 1.6s1 .5 1.9.5z"/><path d="M67.5 130c-2.6 0-4.7-.7-6.2-2.2s-2.2-3.5-2.2-6.2V96H66v25.6c0 .6.2 1.1.6 1.5s.9.6 1.5.6h1.3c.5 0 .9.2 1.3.5s.5.8.5 1.3v4.6h-3.7zm32.2.5c-3.9 0-7-1.2-9.3-3.6s-3.4-5.6-3.4-9.5c0-4.1 1.1-7.3 3.4-9.7s5.4-3.6 9.3-3.6c3.1 0 5.6.8 7.8 2.3s3.5 3.8 4.2 6.7l-5.3 1c-1 .2-1.7-.1-2.1-.9-.8-2.1-2.4-3.1-4.6-3.1-1.9 0-3.3.7-4.4 2s-1.5 3.1-1.5 5.3c0 2.1.5 3.8 1.5 5.1s2.5 2 4.3 2c1.3 0 2.3-.3 3-.8s1.3-1.4 1.7-2.5a1.96 1.96 0 0 1 .9-.9c.4-.2.8-.2 1.3-.1l5.2 1c-.6 3.1-2 5.4-4.2 7s-4.7 2.3-7.8 2.3zm32.4-26h6.9v25.4h-5.2c-.3 0-.5-.1-.7-.3s-.3-.4-.3-.7V127c-1.8 2.2-4.1 3.3-6.8 3.3-3.3 0-5.8-.9-7.5-2.6s-2.5-4.4-2.5-7.9v-15.3h6.9v14.2c0 1.9.3 3.4.9 4.3s1.8 1.4 3.4 1.4 2.8-.5 3.7-1.5 1.3-2.4 1.3-4.2v-14.2zm33.6 22.4c-2.3 2.4-5.4 3.6-9.3 3.6s-7-1.2-9.3-3.6-3.5-5.6-3.5-9.7 1.2-7.3 3.5-9.7 5.4-3.6 9.3-3.6 7 1.2 9.3 3.6 3.5 5.6 3.5 9.7c0 4-1.2 7.3-3.5 9.7zm-13.6-4.5c1 1.3 2.5 2 4.3 2s3.3-.7 4.3-2 1.5-3.1 1.5-5.2-.5-3.9-1.5-5.2-2.5-2-4.3-2-3.3.7-4.3 2-1.5 3.1-1.5 5.2.5 3.9 1.5 5.2zm35.5-17.9h.4v3.9c0 .5-.2 1-.5 1.3s-.7.5-1.2.5h-.3c-2 0-3.4.6-4.4 1.8s-1.5 2.8-1.5 5v12.9h-6.9v-25.4h5.2c.3 0 .5.1.7.3s.3.4.3.7v2.5c2-2.4 4.8-3.5 8.2-3.5zm14.9-.6c3.8 0 7 1.3 9.3 3.8s3.6 5.8 3.6 9.9v1.1a1.08 1.08 0 0 1-.3.7c-.2.2-.4.3-.7.3h-17.8c.4 1.4 1.1 2.6 2.1 3.4s2.2 1.3 3.8 1.3c1.1 0 2.1-.3 2.9-.8s1.4-1.2 1.8-1.9c.3-.5.8-.6 1.3-.4l5.7 2c-.9 2.2-2.3 4-4.3 5.2s-4.5 1.9-7.5 1.9c-3.9 0-7-1.2-9.4-3.6s-3.6-5.6-3.6-9.5c0-4 1.2-7.2 3.6-9.7s5.6-3.7 9.5-3.7zm0 6c-1.4 0-2.6.4-3.5 1.1s-1.7 1.8-2.1 3.1h11.2c-.5-1.3-1.2-2.3-2.1-3.1s-2.2-1.1-3.5-1.1zm19.3 1.6a3.69 3.69 0 0 1-3.8-3.8 3.69 3.69 0 0 1 1.1-2.7c.7-.7 1.6-1 2.7-1s2 .3 2.7 1 1 1.6 1 2.7-.3 2-1 2.7a3.69 3.69 0 0 1-2.7 1.1zm0 19a3.69 3.69 0 0 1-3.8-3.8 3.69 3.69 0 0 1 1.1-2.7c.7-.7 1.6-1 2.7-1s2 .3 2.7 1 1 1.6 1 2.7-.3 2-1 2.7a3.69 3.69 0 0 1-2.7 1.1zM5.2 182h12.6v2.9H2v-25.4h3.2V182zm23.9-16.6c2.8 0 5.1.9 6.8 2.8s2.5 4.3 2.5 7.3v.2c0 .2-.1.4-.2.5s-.3.2-.5.2H22.9c.2 1.9.8 3.3 1.9 4.4s2.5 1.7 4.3 1.7c1.3 0 2.4-.3 3.4-.9s1.7-1.4 2.2-2.6c.2-.4.4-.5.8-.4l2.4.6c-.6 1.9-1.7 3.4-3.3 4.5s-3.4 1.6-5.5 1.6c-2.9 0-5.2-.9-6.8-2.7-1.7-1.8-2.5-4.2-2.5-7.2s.8-5.4 2.5-7.3c1.7-1.8 3.9-2.7 6.8-2.7zm0 2.8c-1.7 0-3 .5-4.1 1.4s-1.7 2.2-2 3.9h12.2c-.3-1.7-1-3-2.1-3.9s-2.4-1.4-4-1.4zm23.5.4h-6.4v10.5c0 .9.3 1.6.8 2.1s1.2.8 2 .8h2.9c.2 0 .4.1.5.2s.2.3.2.5v2.1H49c-1.8 0-3.2-.5-4.2-1.6s-1.6-2.5-1.6-4.2v-10.5h-2.3c-.2 0-.4-.1-.5-.2s-.2-.3-.2-.5v-2.1h3v-6.4h3v6.4h6.4v2.9zm13.9 0h-6.4v10.5c0 .9.3 1.6.8 2.1s1.2.8 2 .8h2.9c.2 0 .4.1.5.2s.2.3.2.5v2.1H63c-1.8 0-3.2-.5-4.2-1.6s-1.6-2.5-1.6-4.2v-10.5h-2.3c-.2 0-.4-.1-.5-.2s-.2-.3-.2-.5v-2.1h3v-6.4h3v6.4h6.4v2.9zm11.6-3.2c2.8 0 5.1.9 6.8 2.8s2.5 4.3 2.5 7.3v.2c0 .2-.1.4-.2.5s-.3.2-.5.2H71.8c.2 1.9.8 3.3 1.9 4.4s2.5 1.7 4.3 1.7c1.3 0 2.4-.3 3.4-.9s1.7-1.4 2.2-2.6c.2-.4.4-.5.8-.4l2.4.6c-.6 1.9-1.7 3.4-3.3 4.5s-3.4 1.6-5.5 1.6c-2.9 0-5.2-.9-6.8-2.7s-2.5-4.2-2.5-7.2.8-5.4 2.5-7.3 4-2.7 6.9-2.7zm0 2.8c-1.7 0-3 .5-4.1 1.4s-1.7 2.2-2 3.9h12.2c-.3-1.7-1-3-2.1-3.9s-2.4-1.4-4-1.4zm22.5-2.4h.3v2.1c0 .2-.1.4-.2.5s-.3.2-.5.2h-.5c-1.8 0-3.2.6-4.1 1.7s-1.5 2.7-1.5 4.7v9.8h-3v-19.1h2.2c.2 0 .4.1.5.2s.2.3.2.5v2.3c1.5-1.9 3.8-2.9 6.6-2.9zm18.5 16.3c.2 0 .3.1.4.2s.2.3.2.5v2.2h-.6c-1 0-1.9-.3-2.6-.8s-1.1-1.2-1.2-2.1c-1.4 2.2-3.8 3.3-7 3.3-1.9 0-3.4-.5-4.5-1.4s-1.6-2.3-1.6-4 .7-3.1 2-4.2 3.2-1.7 5.7-1.9l2.4-.3c.6-.1 1.2-.3 1.6-.4s.6-.3.8-.4.3-.3.4-.4.1-.2.1-.4v-.2c0-.9-.4-1.7-1.2-2.4s-2-1-3.5-1c-.4 0-.8 0-1.2.1l-1 .3c-.3.1-.5.3-.8.5s-.5.4-.6.5l-.5.5c-.2.2-.3.3-.3.4-.2.2-.4.3-.7.3s-.5 0-.7-.2l-1.5-1c.8-1.2 1.8-2.1 3-2.9s2.6-1.2 4.3-1.2c2.4 0 4.3.6 5.7 1.8s2.2 3 2.2 5.3v8.5c0 .3.1.5.2.7s.1.1.5.1h0zm-10.5.4c2.2 0 3.9-.6 4.9-1.7s1.6-2.9 1.6-5.3v-.9c-.7 1-2.3 1.6-4.8 1.8-1.9.2-3.2.5-4 1s-1.2 1.3-1.2 2.3c0 .8.3 1.5.9 2s1.6.8 2.6.8z"/><use xlink:href="#B"/><path d="M159.8 162.4c-.4.4-.8.5-1.4.5s-1-.2-1.4-.5-.5-.8-.5-1.4.2-1 .5-1.4.8-.6 1.4-.6 1 .2 1.4.6.5.8.5 1.4-.2 1-.5 1.4zm-2.9 22.5v-19.1h3v19.1h-3z"/><use xlink:href="#B" x="42.4"/><use xlink:href="#C"/><use xlink:href="#D"/><path d="M256.2 182.1c.2 0 .3.1.4.2s.2.3.2.5v2.2h-.6c-1 0-1.9-.3-2.6-.8s-1.1-1.2-1.2-2.1c-1.4 2.2-3.8 3.3-7 3.3-1.9 0-3.4-.5-4.5-1.4s-1.6-2.3-1.6-4 .7-3.1 2-4.2 3.2-1.7 5.7-1.9l2.4-.3c.6-.1 1.2-.3 1.6-.4s.6-.3.8-.4.3-.3.4-.4.1-.2.1-.4v-.2c0-.9-.4-1.7-1.2-2.4s-2-1-3.5-1c-.4 0-.8 0-1.2.1l-1 .3c-.3.1-.5.3-.8.5s-.5.4-.6.5l-.5.5c-.2.2-.3.3-.3.4-.2.2-.4.3-.7.3s-.5 0-.7-.2l-1.5-1c.8-1.2 1.8-2.1 3-2.9s2.6-1.2 4.3-1.2c2.4 0 4.3.6 5.7 1.8s2.2 3 2.2 5.3v8.5c0 .3.1.5.2.7s.2.1.5.1h0zm-10.5.4c2.2 0 3.9-.6 4.9-1.7s1.6-2.9 1.6-5.3v-.9c-.7 1-2.3 1.6-4.8 1.8-1.9.2-3.2.5-4 1s-1.2 1.3-1.2 2.3c0 .8.3 1.5.9 2s1.6.8 2.6.8zm29.1-16.7v2.8L263.1 182h11.7v2.8h-15.6V182l11.7-13.4h-11.7v-2.8h15.6zm7.4-3.4c-.4.4-.8.5-1.4.5s-1-.2-1.4-.5-.5-.8-.5-1.4.2-1 .5-1.4.8-.6 1.4-.6 1 .2 1.4.6.5.8.5 1.4-.1 1-.5 1.4zm-2.9 22.5v-19.1h3v19.1h-3z"/><use xlink:href="#C" x="89.7"/><use xlink:href="#D" x="89.7"/><path d="M338.4 165.4c2.8 0 5.1.9 6.8 2.8s2.5 4.3 2.5 7.3v.2c0 .2-.1.4-.2.5s-.3.2-.5.2h-14.8c.2 1.9.8 3.3 1.9 4.4s2.5 1.7 4.3 1.7c1.3 0 2.4-.3 3.4-.9s1.7-1.4 2.2-2.6c.2-.4.4-.5.8-.4l2.4.6c-.6 1.9-1.7 3.4-3.3 4.5s-3.4 1.6-5.5 1.6c-2.9 0-5.2-.9-6.8-2.7s-2.5-4.2-2.5-7.2.8-5.4 2.5-7.3 3.9-2.7 6.8-2.7zm0 2.8c-1.7 0-3 .5-4.1 1.4s-1.7 2.2-2 3.9h12.2c-.3-1.7-1-3-2.1-3.9s-2.4-1.4-4-1.4z"/></g><defs ><path id="B" d="M147.4 159.5h3v25.4h-2.2c-.2 0-.4-.1-.5-.2s-.2-.3-.2-.5v-2.1c-.8 1-1.7 1.7-2.7 2.3s-2.2.9-3.4.9c-2.8 0-4.9-.9-6.5-2.6s-2.4-4.1-2.4-7.1c0-3.1.8-5.5 2.3-7.3s3.7-2.7 6.5-2.7c2.4 0 4.5.9 6.1 2.7v-8.8zm-5.9 23c1.9 0 3.4-.6 4.4-1.8s1.5-3 1.5-5.3v-.2c0-2.2-.5-3.9-1.6-5.1s-2.6-1.8-4.4-1.8-3.3.6-4.2 1.9-1.5 3-1.5 5.2.5 3.9 1.6 5.2 2.3 1.9 4.2 1.9z"/><path id="C" d="M206.2 185.3c-2.8 0-4.9-.9-6.5-2.7s-2.4-4.2-2.4-7.3.8-5.5 2.4-7.3 3.8-2.7 6.5-2.7 4.9.9 6.5 2.7 2.4 4.2 2.4 7.3-.8 5.5-2.4 7.3-3.8 2.7-6.5 2.7zm0-2.8c1.9 0 3.3-.6 4.4-1.9s1.6-3 1.6-5.2-.5-3.9-1.6-5.2-2.5-1.9-4.4-1.9-3.3.6-4.3 1.9-1.6 3-1.6 5.2.5 3.9 1.6 5.2 2.4 1.9 4.3 1.9z"/><path id="D" d="M228 165.5c2.6 0 4.4.7 5.6 2s1.7 3.4 1.7 6.1v11.3h-3v-11.3c0-1.9-.3-3.3-.9-4.1s-1.7-1.3-3.4-1.3c-1.8 0-3.2.5-4.1 1.4s-1.4 2.3-1.4 4v11.3h-3v-19.1h2.2c.2 0 .4.1.5.2s.2.3.2.5v2c1.3-2 3.2-3 5.6-3z"/></defs></svg>