<svg xmlns="http://www.w3.org/2000/svg" xmlns:xlink="http://www.w3.org/1999/xlink" width="323.8" height="139.4" xmlns:v="https://vecta.io/nano"><g fill="#6a3f24"><path d="M18.1 0c3.3 0 6 .9 7.9 2.8s2.9 4.4 2.9 7.7-1 5.8-2.9 7.7-4.5 2.8-7.9 2.8H9.5v12.8H2.3V0h15.8zm-.8 14.4c1.4 0 2.5-.3 3.2-1s1.2-1.7 1.2-2.9-.4-2.1-1.2-2.8-1.9-1-3.2-1H9.5v7.8h7.8zm25.8-6.5c3.8 0 7 1.3 9.3 3.8s3.6 5.8 3.6 9.9v1.1a1.08 1.08 0 0 1-.3.7c-.2.2-.4.3-.7.3H37.3c.4 1.4 1.1 2.6 2.1 3.4s2.2 1.3 3.8 1.3c1.1 0 2.1-.3 2.9-.8s1.4-1.2 1.8-1.9c.3-.5.8-.6 1.3-.4l5.7 2c-.9 2.2-2.3 4-4.3 5.2s-4.5 1.9-7.5 1.9c-3.9 0-7-1.2-9.4-3.6s-3.6-5.6-3.6-9.5c0-4 1.2-7.2 3.6-9.7s5.6-3.7 9.4-3.7zm0 6c-1.4 0-2.6.4-3.5 1.1s-1.7 1.8-2.1 3.1h11.2c-.5-1.3-1.2-2.3-2.1-3.1s-2.1-1.1-3.5-1.1zm31.4-5.4h.4v3.9c0 .5-.2 1-.5 1.3s-.7.5-1.2.5h-.3c-2 0-3.4.6-4.4 1.8S67 18.8 67 21v12.9h-6.9V8.5h5.2c.3 0 .5.1.7.3s.3.4.3.7V12c1.9-2.4 4.7-3.5 8.2-3.5zM114.7 0h7.2v33.9h-7.6L99.1 10.6H99c-.1 0-.1 0-.2.1s-.1.1 0 .2c.3 1 .5 2 .5 2.9v20h-7.1V0h7.6l15.1 23.2h.1c.1 0 .1 0 .2-.1s.1-.1 0-.2c-.3-1-.5-2-.5-2.9V0z"/><use xlink:href="#B"/><path d="M171.1 14.5h-7.4v10.3c0 .8.2 1.5.8 2.1s1.2.8 2 .8h2.9c.5 0 1 .2 1.3.5s.5.8.5 1.3V34H166c-2.8 0-5-.8-6.6-2.4s-2.4-3.9-2.4-6.8V14.5h-2.2c-.5 0-1-.2-1.3-.5s-.5-.8-.5-1.3V8.5h4V0h6.9v8.5h7.4v6z"/><use xlink:href="#B" x="47.7"/><path d="M211.8 34c-2.6 0-4.7-.7-6.2-2.2s-2.2-3.5-2.2-6.2V0h6.9v25.6c0 .6.2 1.1.6 1.5s.9.6 1.5.6h1.3c.5 0 .9.2 1.3.5s.5.8.5 1.3V34h-3.7zm18.9-26.1c3.8 0 7 1.3 9.3 3.8s3.6 5.8 3.6 9.9v1.1a1.08 1.08 0 0 1-.3.7c-.2.2-.4.3-.7.3h-17.8c.4 1.4 1.1 2.6 2.1 3.4s2.2 1.3 3.8 1.3c1.1 0 2.1-.3 2.9-.8s1.4-1.2 1.8-1.9c.3-.5.8-.6 1.3-.4l5.7 2c-.9 2.2-2.3 4-4.3 5.2s-4.5 1.9-7.5 1.9c-3.9 0-7-1.2-9.4-3.6s-3.6-5.6-3.6-9.5c0-4 1.2-7.2 3.6-9.7s5.6-3.7 9.5-3.7zm0 6c-1.4 0-2.6.4-3.5 1.1s-1.7 1.8-2.1 3.1h11.2c-.5-1.3-1.2-2.3-2.1-3.1s-2.2-1.1-3.5-1.1zM12.8 82.5c-3.9 0-7-1.2-9.3-3.6S0 73.2 0 69.3c0-4.1 1.1-7.3 3.4-9.7S8.8 56 12.7 56c3.1 0 5.6.8 7.8 2.3 2.1 1.5 3.5 3.8 4.2 6.7l-5.3 1c-1 .2-1.7-.1-2.1-.9-.8-2.1-2.4-3.1-4.6-3.1-1.9 0-3.3.7-4.4 2s-1.5 3.1-1.5 5.3c0 2.1.5 3.8 1.5 5.1s2.5 2 4.3 2c1.3 0 2.3-.3 3-.8s1.3-1.4 1.7-2.5a1.96 1.96 0 0 1 .9-.9c.4-.2.8-.2 1.3-.1l5.2 1c-.6 3.1-2 5.4-4.2 7-1.9 1.5-4.6 2.4-7.7 2.4zm36.6-3.6c-2.3 2.4-5.4 3.6-9.3 3.6s-7-1.2-9.3-3.6-3.5-5.6-3.5-9.7 1.2-7.3 3.5-9.7 5.4-3.6 9.3-3.6 7 1.2 9.3 3.6 3.5 5.6 3.5 9.7c0 4-1.2 7.3-3.5 9.7zm-13.6-4.5c1 1.3 2.5 2 4.3 2s3.3-.7 4.3-2 1.5-3.1 1.5-5.2-.5-3.9-1.5-5.2-2.5-2-4.3-2-3.3.7-4.3 2-1.5 3.1-1.5 5.2.5 3.9 1.5 5.2zM70.6 56c3.3 0 5.8.9 7.5 2.8s2.6 4.6 2.6 8.1v15h-6.9V67.6c0-1.9-.3-3.4-.9-4.3S71.1 62 69.4 62c-1.6 0-2.8.5-3.7 1.5s-1.3 2.4-1.3 4.2v14.2h-6.9V56.5h5.2c.3 0 .5.1.7.3s.3.4.3.7v1.9c1.8-2.3 4.1-3.4 6.9-3.4zm38.3 26c-2.6 0-4.7-.7-6.2-2.2s-2.2-3.5-2.2-6.2V48h6.9v25.6c0 .6.2 1.1.6 1.5s.9.6 1.5.6h1.3c.5 0 .9.2 1.3.5s.5.8.5 1.3V82h-3.7zm29.7-6.6c.3.3.5.9.5 1.7V82h-.7c-3 0-5.1-1-6.4-2.9-2.1 2.2-5.1 3.3-9 3.3-2.5 0-4.5-.7-6-2s-2.2-3.2-2.2-5.5c0-2.2.7-4 2.1-5.5s3.6-2.4 6.5-2.8c3.7-.4 6.1-1 7.4-1.7v-.1c0-.8-.4-1.5-1.2-2s-1.7-.8-2.9-.8c-.6 0-1.2 0-1.7.1s-1 .2-1.5.4l-1 .4c-.2.1-.5.3-1 .6l-.7.4c-.6.3-1.1.4-1.7.3s-1-.4-1.3-.8l-2.1-2.9c.3-.4.8-.9 1.3-1.3s1.3-.9 2.2-1.4 1.9-.9 3.1-1.3 2.5-.5 3.8-.5c3.7 0 6.6.9 8.5 2.6s2.9 4.3 2.9 7.7v7.2c.1.8.4 1.5 1.1 1.9h0zm-14.7 1.2c.7 0 1.4 0 2-.1s1.2-.3 1.8-.5 1.2-.6 1.6-1 .8-1 1.1-1.7.4-1.5.4-2.4v-.7c-1.3 1.1-3.3 1.6-5.9 1.7-1.2.1-2.1.4-2.7.8s-.9 1-.9 1.8c0 .7.2 1.2.7 1.6s1.1.5 1.9.5zm48.7-14.1h-7.4v10.3c0 .8.2 1.5.8 2.1s1.2.8 2 .8h2.9c.5 0 1 .2 1.3.5s.5.8.5 1.3V82h-5.2c-2.8 0-5-.8-6.6-2.4s-2.4-3.9-2.4-6.8V62.5h-2.2c-.5 0-1-.2-1.3-.5s-.5-.8-.5-1.3v-4.2h4V48h6.9v8.5h7.4v6zm21.3-6h6.9v25.4h-5.2c-.3 0-.5-.1-.7-.3s-.3-.4-.3-.7V79c-1.8 2.2-4.1 3.3-6.8 3.3-3.3 0-5.8-.9-7.5-2.6s-2.5-4.4-2.5-7.9V56.5h6.9v14.2c0 1.9.3 3.4.9 4.3s1.8 1.4 3.4 1.4 2.8-.5 3.7-1.5 1.3-2.4 1.3-4.2V56.5zm35.3 18.9c.3.3.5.9.5 1.7V82h-.7c-3 0-5.1-1-6.4-2.9-2.1 2.2-5.1 3.3-9 3.3-2.5 0-4.5-.7-6-2s-2.2-3.2-2.2-5.5c0-2.2.7-4 2.1-5.5s3.6-2.4 6.5-2.8c3.7-.4 6.1-1 7.4-1.7v-.1c0-.8-.4-1.5-1.2-2s-1.7-.8-2.9-.8c-.6 0-1.2 0-1.7.1s-1 .2-1.5.4l-1 .4c-.2.1-.5.3-1 .6l-.7.4c-.6.3-1.1.4-1.7.3s-1-.4-1.3-.8l-2.1-2.9c.3-.4.8-.9 1.3-1.3s1.3-.9 2.2-1.4 1.9-.9 3.1-1.3 2.5-.5 3.8-.5c3.7 0 6.6.9 8.5 2.6s2.9 4.3 2.9 7.7v7.2c.2.8.5 1.5 1.1 1.9h0zm-14.6 1.2c.7 0 1.4 0 2-.1s1.2-.3 1.8-.5 1.2-.6 1.6-1 .8-1 1.1-1.7.4-1.5.4-2.4v-.7c-1.3 1.1-3.3 1.6-5.9 1.7-1.2.1-2.1.4-2.7.8s-.9 1-.9 1.8c0 .7.2 1.2.7 1.6s1.1.5 1.9.5zM23.8 123.4c.3.3.5.9.5 1.7v4.9h-.7c-3 0-5.1-1-6.4-2.9-2.1 2.2-5.1 3.3-9 3.3-2.5 0-4.5-.7-6-2S0 125.2 0 122.9c0-2.2.7-4 2.1-5.5s3.6-2.4 6.5-2.8c3.7-.4 6.1-1 7.4-1.7v-.1c0-.8-.4-1.5-1.2-2s-1.7-.8-2.9-.8c-.6 0-1.2 0-1.7.1s-1 .2-1.5.4l-1 .4c-.2.1-.5.3-1 .6s-.7.3-.7.3c-.6.3-1.1.4-1.7.3s-1-.4-1.3-.8l-2.1-2.9c.3-.4.8-.9 1.3-1.3s1.3-.9 2.2-1.4 1.9-.9 3.1-1.3 2.5-.5 3.8-.5c3.7 0 6.6.9 8.5 2.6s2.9 4.3 2.9 7.7v7.2c.1.9.4 1.6 1.1 2h0zm-14.7 1.2c.7 0 1.4 0 2-.1s1.2-.3 1.8-.5 1.2-.6 1.6-1 .8-1 1.1-1.7.4-1.5.4-2.4v-.7c-1.3 1.1-3.3 1.6-5.9 1.7-1.2.1-2.1.4-2.7.8s-.9 1-.9 1.8c0 .7.2 1.2.7 1.6s1.1.5 1.9.5zm38.7-20.1v6L36 123.9h11.8v6H26.9v-6l12-13.4h-12v-6h20.9z"/><use xlink:href="#C"/><path d="M77 103.9c3.8 0 7 1.3 9.3 3.8s3.6 5.8 3.6 9.9v1.1a1.08 1.08 0 0 1-.3.7c-.2.2-.4.3-.7.3H71.2c.4 1.4 1.1 2.6 2.1 3.4s2.2 1.3 3.8 1.3c1.1 0 2.1-.3 2.9-.8s1.4-1.2 1.8-1.9c.3-.5.8-.6 1.3-.4l5.7 2c-.9 2.2-2.3 4-4.3 5.2s-4.5 1.9-7.5 1.9c-3.9 0-7-1.2-9.4-3.6s-3.6-5.6-3.6-9.5c0-4 1.2-7.2 3.6-9.7s5.6-3.7 9.4-3.7zm0 6c-1.4 0-2.6.4-3.5 1.1s-1.7 1.8-2.1 3.1h11.2c-.5-1.3-1.2-2.3-2.1-3.1s-2.1-1.1-3.5-1.1zm30.6-5.9c3.3 0 5.8.9 7.5 2.8s2.6 4.6 2.6 8.1v15h-6.9v-14.2c0-1.9-.3-3.4-.9-4.3s-1.8-1.4-3.4-1.4-2.8.5-3.7 1.5-1.3 2.4-1.3 4.2v14.2h-6.9v-25.4h5.2c.3 0 .5.1.7.3s.3.4.3.7v1.9c1.8-2.3 4.1-3.4 6.8-3.4zm33.1-8h6.9v33.9h-5.2c-.3 0-.5-.1-.7-.3s-.3-.4-.3-.7v-2.2c-2.1 2.4-4.8 3.6-7.9 3.6-3.5 0-6.3-1.2-8.4-3.6s-3.1-5.6-3.1-9.6c0-4.2 1-7.4 3.1-9.7s5-3.5 8.7-3.5c2.7 0 5 .8 6.8 2.3V96zm-5.9 28.4c1.8 0 3.3-.6 4.3-1.9s1.6-2.9 1.6-5.1v-.4c0-2.1-.5-3.8-1.6-5.1s-2.5-1.9-4.3-1.9-3.2.7-4.3 2-1.5 3.1-1.5 5.2.5 3.9 1.6 5.2 2.4 2 4.2 2zm41.3-1c.3.3.5.9.5 1.7v4.9h-.6c-3 0-5.1-1-6.4-2.9-2.1 2.2-5.1 3.3-9 3.3-2.5 0-4.5-.7-6-2s-2.2-3.2-2.2-5.5c0-2.2.7-4 2.1-5.5s3.6-2.4 6.5-2.8c3.7-.4 6.1-1 7.4-1.7v-.1c0-.8-.4-1.5-1.2-2s-1.7-.8-2.9-.8c-.6 0-1.2 0-1.7.1s-1 .2-1.5.4l-1 .4c-.2.1-.5.3-1 .6l-.7.4c-.6.3-1.1.4-1.7.3s-1-.4-1.3-.8l-2.1-2.9c.3-.4.8-.9 1.3-1.3s1.3-.9 2.2-1.4 1.9-.9 3.1-1.3 2.5-.5 3.8-.5c3.7 0 6.6.9 8.5 2.6s2.9 4.3 2.9 7.7v7.2c0 .8.3 1.5 1 1.9h0zm-14.7 1.2c.7 0 1.4 0 2-.1s1.2-.3 1.8-.5 1.2-.6 1.6-1 .8-1 1.1-1.7.4-1.5.4-2.4v-.7c-1.3 1.1-3.3 1.6-5.9 1.7-1.2.1-2.1.4-2.7.8s-.9 1-.9 1.8c0 .7.2 1.2.7 1.6s1.1.5 1.9.5zm41.6 5.8c-2.2 0-4.2-.3-6-.9s-3.4-1.4-4.5-2.4l2.7-4.1c.2-.3.5-.5.8-.5s.7 0 1 .2c2 1.2 4 1.7 5.9 1.7 1.2 0 2.1-.2 2.7-.6s.9-.9.9-1.6c0-.5-.2-1-.6-1.3s-.9-.6-1.7-.8c-.6-.2-1.5-.4-2.6-.6s-2.1-.5-2.8-.7c-1.8-.5-3.2-1.3-4.2-2.6s-1.5-2.7-1.5-4.5c0-2.4.9-4.3 2.7-5.8s4.1-2.2 7.1-2.2c1.9 0 3.7.3 5.4.9s3 1.4 4.1 2.2l-2.5 4.1c-.4.7-1 .8-1.7.4-2-1.2-4-1.8-6-1.8-.8 0-1.4.2-1.8.5s-.7.7-.7 1.2c0 .4.1.7.4 1s.7.5 1.2.6l4.5 1.2c2.5.6 4.4 1.6 5.6 3s1.9 3.1 1.9 5c0 2.5-.9 4.4-2.7 5.9s-4.5 2.5-7.6 2.5zm25.3.1c-3.9 0-7-1.2-9.3-3.6s-3.4-5.6-3.4-9.5c0-4.1 1.1-7.3 3.4-9.7s5.4-3.6 9.3-3.6c3.1 0 5.6.8 7.8 2.3s3.5 3.8 4.2 6.7l-5.3 1c-1 .2-1.7-.1-2.1-.9-.8-2.1-2.4-3.1-4.6-3.1-1.9 0-3.3.7-4.4 2s-1.5 3.1-1.5 5.3c0 2.1.5 3.8 1.5 5.1s2.5 2 4.3 2c1.3 0 2.3-.3 3-.8s1.3-1.4 1.7-2.5a1.96 1.96 0 0 1 .9-.9c.4-.2.8-.2 1.3-.1l5.2 1c-.6 3.1-2 5.4-4.2 7s-4.7 2.3-7.8 2.3zm27.6-26.6c3.8 0 7 1.3 9.3 3.8s3.6 5.8 3.6 9.9v1.1a1.08 1.08 0 0 1-.3.7c-.2.2-.4.3-.7.3H250c.4 1.4 1.1 2.6 2.1 3.4s2.2 1.3 3.8 1.3c1.1 0 2.1-.3 2.9-.8s1.4-1.2 1.8-1.9c.3-.5.8-.6 1.3-.4l5.7 2c-.9 2.2-2.3 4-4.3 5.2s-4.5 1.9-7.5 1.9c-3.9 0-7-1.2-9.4-3.6s-3.6-5.6-3.6-9.5c0-4 1.2-7.2 3.6-9.7s5.6-3.7 9.5-3.7zm0 6c-1.4 0-2.6.4-3.5 1.1s-1.7 1.8-2.1 3.1h11.2c-.5-1.3-1.2-2.3-2.1-3.1s-2.2-1.1-3.5-1.1zm32 15.3c2.8 0 5 .6 6.5 1.7s2.2 2.8 2.2 5-1 4.1-3.1 5.4-5.3 2.1-9.6 2.1c-3.9 0-6.9-.7-9.1-2.2s-3.3-3.2-3.3-5.4c0-1.4.3-2.5 1-3.5s1.4-1.6 2.1-1.8c-.4-.1-.8-.4-1.2-1s-.7-1.3-.7-2.2c0-1.7.7-2.9 2.2-3.8-1.7-1.7-2.6-3.8-2.6-6.3 0-3 1-5.3 2.9-6.9s4.6-2.4 7.9-2.4c2.6 0 4.8.5 6.5 1.5.6-.6 1.5-.9 2.6-.9h3.5v3.9c0 .5-.1.8-.4 1.1s-.6.4-1.1.4h-.7c.3 1 .5 2.1.5 3.3 0 3-1 5.3-3.1 6.9s-4.8 2.4-8.4 2.4h-1.7c-.6 0-1.2.1-1.5.3s-.6.6-.6 1c0 .9.9 1.4 2.7 1.4h6.5zm-4 8.5c2.3 0 3.9-.2 5-.6s1.6-.9 1.6-1.5c0-1-.9-1.5-2.8-1.5h-7c-2 0-2.9.5-2.9 1.5 0 .6.6 1.1 1.7 1.5s2.7.6 4.4.6zm2.4-23.1c-.8-.6-1.9-.9-3.3-.9s-2.4.3-3.2.9-1.2 1.4-1.2 2.5.4 2 1.2 2.6 1.9.9 3.2.9c1.4 0 2.5-.3 3.3-.9s1.2-1.5 1.2-2.6c0-1-.4-1.9-1.2-2.5zm22.4 19.4c-2.6 0-4.7-.7-6.2-2.2s-2.2-3.5-2.2-6.2V96h6.9v25.6c0 .6.2 1.1.6 1.5s.9.6 1.5.6h1.3c.5 0 .9.2 1.3.5s.5.8.5 1.3v4.6h-3.7z"/><use xlink:href="#C" x="264.1"/></g><defs ><path id="B" d="M150.6 27.4c.3.3.5.9.5 1.7V34h-.7c-3 0-5.1-1-6.4-2.9-2.1 2.2-5.1 3.3-9 3.3-2.5 0-4.5-.7-6-2s-2.2-3.2-2.2-5.5c0-2.2.7-4 2.1-5.5s3.6-2.4 6.5-2.8c3.7-.4 6.1-1 7.4-1.7v-.1c0-.8-.4-1.5-1.2-2s-1.7-.8-2.9-.8c-.6 0-1.2 0-1.7.1s-1 .2-1.5.4l-1 .4c-.2.1-.5.3-1 .6l-.7.4c-.6.3-1.1.4-1.7.3s-1-.4-1.3-.8l-2.1-2.9c.3-.4.8-.9 1.3-1.3s1.3-.9 2.2-1.4 1.9-.9 3.1-1.3 2.5-.5 3.8-.5c3.7 0 6.6.9 8.5 2.6s2.9 4.3 2.9 7.7v7.2c.1.8.4 1.5 1.1 1.9h0zm-14.7 1.2c.7 0 1.4 0 2-.1s1.2-.3 1.8-.5 1.2-.6 1.6-1 .8-1 1.1-1.7.4-1.5.4-2.4v-.7c-1.3 1.1-3.3 1.6-5.9 1.7-1.2.1-2.1.4-2.7.8s-.9 1-.9 1.8c0 .7.2 1.2.7 1.6s1.1.5 1.9.5z"/><path id="C" d="M55.9 101.8c-1.1 0-2-.3-2.7-1s-1-1.6-1-2.7.3-2 1-2.7a3.69 3.69 0 0 1 2.7-1.1 3.69 3.69 0 0 1 3.8 3.8 3.69 3.69 0 0 1-1.1 2.7c-.7.7-1.6 1-2.7 1zm-3.4 28.1v-25.4h6.9v25.4h-6.9z"/></defs></svg>