<?xml version="1.0" encoding="utf-8"?>
<!-- Generator: Adobe Illustrator 23.0.2, SVG Export Plug-In . SVG Version: 6.00 Build 0)  -->
<svg version="1.1" id="Laag_1" xmlns="http://www.w3.org/2000/svg" xmlns:xlink="http://www.w3.org/1999/xlink" x="0px" y="0px"
	 width="368.2px" height="22.3px" viewBox="0 0 368.2 22.3" style="enable-background:new 0 0 368.2 22.3;" xml:space="preserve">
<style type="text/css">
	.st0{fill:#224B9B;}
</style>
<g>
	<path class="st0" d="M1.3,15.6l7.1-9.3H1.6V4.8h8.8v1.3l-7.1,9.3h7.2v1.4H1.3V15.6z"/>
	<path class="st0" d="M22.1,16.9v-1.5c-0.5,0.8-2.1,1.8-4.1,1.8c-2.9,0-4.6-1.6-4.6-3.8c0-2.3,1.9-3.8,4.8-3.8
		c1.9,0,3.2,0.8,3.9,1.5V8.9C22,7.2,20.9,6,19,6c-1.5,0-2.5,0.7-3,1.8h-1.6c0.6-2,2.3-3.2,4.7-3.2c3,0,4.8,2,4.8,4.3v8H22.1z
		 M22,13.4c0-1.5-1.8-2.6-3.6-2.6c-2,0-3.3,0.9-3.3,2.6c0,1.7,1.4,2.6,3.3,2.6C20.2,16,22,14.9,22,13.4z"/>
	<path class="st0" d="M32,16.9c-2.3,0-3.3-1.2-3.3-3.2V6.3h-2V4.8h2V1.4h1.8v3.5h3.1v1.5h-3.1v7.4c0,1.2,0.4,1.7,1.8,1.7h1.2v1.5H32
		z"/>
	<path class="st0" d="M36.3,11.9V10c0-3.3,1.9-5.4,5.3-5.4c3.4,0,5.1,2.3,5.1,5.3v1.8H38V12c0,2.1,1.1,3.8,3.6,3.8
		c1.8,0,2.9-1,3.3-2.3h1.6c-0.4,2.2-2.4,3.7-4.9,3.7C38.5,17.2,36.3,15.2,36.3,11.9z M38,10.2h7V9.7c0-2.1-1.1-3.7-3.4-3.7
		C39,5.9,38,7.6,38,9.9V10.2z"/>
	<path class="st0" d="M50.4,4.8h1.7v2.8c0.4-1.9,1.7-2.9,3.9-2.9h0.3v1.7H56c-2.3,0-3.7,1.5-3.7,4.5v5.9h-1.8V4.8z"/>
	<path class="st0" d="M69.3-0.3v17.2h-1.7V15c-0.5,1.1-2.1,2.2-4.1,2.2c-3.2,0-5-2.4-5-5.4V9.9c0-3.1,2-5.4,5-5.4
		c1.9,0,3.3,0.8,4,2.1v-6.9H69.3z M60.2,11.7c0,2.2,1.1,4,3.6,4c2.4,0,3.7-1.8,3.7-4.1V10c0-2.5-1.7-4-3.7-4c-2.3,0-3.5,1.8-3.5,4
		V11.7z"/>
	<path class="st0" d="M81.7,16.9v-1.5c-0.5,0.8-2.1,1.8-4.1,1.8c-2.9,0-4.6-1.6-4.6-3.8c0-2.3,1.9-3.8,4.8-3.8
		c1.9,0,3.2,0.8,3.9,1.5V8.9c0-1.6-1.1-2.9-3-2.9c-1.5,0-2.5,0.7-3,1.8H74c0.6-2,2.3-3.2,4.7-3.2c3,0,4.8,2,4.8,4.3v8H81.7z
		 M81.6,13.4c0-1.5-1.8-2.6-3.6-2.6c-2,0-3.3,0.9-3.3,2.6c0,1.7,1.4,2.6,3.3,2.6C79.8,16,81.6,14.9,81.6,13.4z"/>
	<path class="st0" d="M87.2,18.2H89c0.7,1.2,1.8,1.7,3.5,1.7c2.1,0,3.5-1.2,3.5-3v-2.7c-0.4,1.1-2,2.3-4.1,2.3
		c-3.1,0-4.9-2.2-4.9-4.9v-2c0-2.7,1.8-4.9,4.9-4.9c2.3,0,3.6,1.2,4.1,2.3v-2h1.7v12.1c0,2.5-2.3,4.4-5.3,4.4
		C90,21.3,87.9,20.2,87.2,18.2z M96,11.3V9.7c0-2-1.6-3.7-3.6-3.7c-2.4,0-3.6,1.3-3.6,3.6v1.7c0,2.3,1.2,3.6,3.5,3.6
		C94.3,14.9,96,13.6,96,11.3z"/>
</g>
<g>
	<path class="st0" d="M109.9,3.7L106.4,5V2.1l4.1-1.7h2.7v16.5h-3.3V3.7z"/>
	<path class="st0" d="M116.8,14.4l6.7-6.6c0.9-0.9,1.5-1.7,1.5-2.9c0-1.4-1-2.2-2.4-2.2c-1.6,0-2.5,0.9-2.5,2.5v0.3h-3.1V5.1
		c0-3.3,2.1-5,5.5-5s5.7,1.9,5.7,4.9c0,2.4-1.7,4-3.2,5.4l-4.3,3.9h7.4v2.7h-11.4V14.4z"/>
	<path class="st0" d="M136.9,11.6V9.9c0-3.1,2.1-5.5,5.8-5.5s5.8,2.4,5.8,5.5v1.7c0,3.1-2.1,5.5-5.8,5.5S136.9,14.8,136.9,11.6z
		 M145.4,9.7c0-1.6-0.8-2.8-2.7-2.8S140,8.1,140,9.7v2.2c0,1.6,0.8,2.8,2.7,2.8s2.7-1.2,2.7-2.8V9.7z"/>
	<path class="st0" d="M151.6-0.3h3.2v10.6l3.9-5.7h3.7l-4.2,6l4.4,6.3h-3.7l-4-6v6h-3.2V-0.3z"/>
	<path class="st0" d="M165.5,13.4V7.2h-1.7V4.6h1.7V1.3h3.2v3.3h2.6v2.6h-2.6v5.9c0,0.8,0.3,1.1,1.2,1.1h1.3v2.6H169
		C166.6,16.9,165.5,15.6,165.5,13.4z"/>
	<path class="st0" d="M175.5,13.4c1.1,0,1.8,0.8,1.8,1.8c0,1.1-0.7,1.8-1.8,1.8s-1.8-0.8-1.8-1.8C173.7,14.2,174.4,13.4,175.5,13.4z
		"/>
</g>
<g>
	<path class="st0" d="M186.3,8.7h6.6v1.6h-6.6V8.7z"/>
</g>
<g>
	<path class="st0" d="M204.2,15.6l7.1-9.3h-6.8V4.8h8.8v1.3l-7.1,9.3h7.2v1.4h-9.2V15.6z"/>
	<path class="st0" d="M216.2,11.9v-2c0-3,2-5.3,5.4-5.3s5.4,2.4,5.4,5.3v2c0,3-2,5.3-5.4,5.3C218.1,17.2,216.2,14.8,216.2,11.9z
		 M221.5,6c-2.4,0-3.7,1.6-3.7,3.9v1.9c0,2.3,1.3,3.9,3.7,3.9c2.4,0,3.7-1.6,3.7-3.9V9.9C225.2,7.6,223.9,6,221.5,6z"/>
	<path class="st0" d="M230.6,4.8h1.7v2c0.6-1.4,1.9-2.3,4-2.3c2.7,0,4.4,1.8,4.4,4.7v7.6H239V9.5c0-2-0.9-3.4-3.1-3.4
		c-2,0-3.5,1.2-3.5,3.7v7.1h-1.8V4.8z"/>
	<path class="st0" d="M255.1-0.3v17.2h-1.7V15c-0.5,1.1-2.1,2.2-4.1,2.2c-3.2,0-5-2.4-5-5.4V9.9c0-3.1,2-5.4,5-5.4
		c1.9,0,3.3,0.8,4,2.1v-6.9H255.1z M246.1,11.7c0,2.2,1.1,4,3.6,4c2.4,0,3.7-1.8,3.7-4.1V10c0-2.5-1.7-4-3.7-4c-2.3,0-3.5,1.8-3.5,4
		V11.7z"/>
	<path class="st0" d="M267.6,16.9v-1.5c-0.5,0.8-2.1,1.8-4.1,1.8c-2.8,0-4.6-1.6-4.6-3.8c0-2.3,1.9-3.8,4.8-3.8
		c1.9,0,3.2,0.8,3.9,1.5V8.9c0-1.6-1.1-2.9-3-2.9c-1.5,0-2.5,0.7-3,1.8h-1.6c0.6-2,2.3-3.2,4.7-3.2c3,0,4.8,2,4.8,4.3v8H267.6z
		 M267.5,13.4c0-1.5-1.8-2.6-3.6-2.6c-2,0-3.3,0.9-3.3,2.6c0,1.7,1.4,2.6,3.3,2.6C265.7,16,267.5,14.9,267.5,13.4z"/>
	<path class="st0" d="M273.1,18.2h1.8c0.7,1.2,1.8,1.7,3.5,1.7c2.1,0,3.5-1.2,3.5-3v-2.7c-0.4,1.1-2,2.3-4.1,2.3
		c-3.1,0-4.9-2.2-4.9-4.9v-2c0-2.7,1.8-4.9,4.9-4.9c2.3,0,3.6,1.2,4.1,2.3v-2h1.7v12.1c0,2.5-2.3,4.4-5.3,4.4
		C275.9,21.3,273.7,20.2,273.1,18.2z M281.8,11.3V9.7c0-2-1.6-3.7-3.6-3.7c-2.4,0-3.6,1.3-3.6,3.6v1.7c0,2.3,1.2,3.6,3.5,3.6
		C280.2,14.9,281.8,13.6,281.8,11.3z"/>
</g>
<g>
	<path class="st0" d="M295.8,3.7L292.3,5V2.1l4.1-1.7h2.7v16.5h-3.3V3.7z"/>
	<path class="st0" d="M303.6,0.4h10.4V3l-4.2,4.2c2.7,0.1,4.9,1.7,4.9,4.8c0,3-2.8,5.2-6.1,5.2c-3.2,0-5.9-1.8-5.9-5.2h3
		c0.1,1.6,1.2,2.5,2.9,2.5c1.8,0,2.9-1.1,2.9-2.5c0-1.5-1-2.4-2.9-2.4h-2.4V7.1L310,3h-6.4V0.4z"/>
	<path class="st0" d="M323,11.6V9.9c0-3.1,2.1-5.5,5.8-5.5c3.7,0,5.8,2.4,5.8,5.5v1.7c0,3.1-2.1,5.5-5.8,5.5
		C325.1,17.2,323,14.8,323,11.6z M331.5,9.7c0-1.6-0.8-2.8-2.7-2.8s-2.7,1.2-2.7,2.8v2.2c0,1.6,0.8,2.8,2.7,2.8s2.7-1.2,2.7-2.8V9.7
		z"/>
	<path class="st0" d="M337.7-0.3h3.2v10.6l3.9-5.7h3.7l-4.2,6l4.4,6.3h-3.7l-4-6v6h-3.2V-0.3z"/>
	<path class="st0" d="M351.6,13.4V7.2h-1.7V4.6h1.7V1.3h3.2v3.3h2.6v2.6h-2.6v5.9c0,0.8,0.3,1.1,1.2,1.1h1.3v2.6h-2.2
		C352.7,16.9,351.6,15.6,351.6,13.4z"/>
	<path class="st0" d="M361.7,13.4c1.1,0,1.8,0.8,1.8,1.8c0,1.1-0.7,1.8-1.8,1.8s-1.8-0.8-1.8-1.8C359.8,14.2,360.6,13.4,361.7,13.4z
		"/>
</g>
</svg>
