<?xml version="1.0" encoding="utf-8"?>
<!-- Generator: Adobe Illustrator 24.0.0, SVG Export Plug-In . SVG Version: 6.00 Build 0)  -->
<svg version="1.1" id="Laag_1" xmlns="http://www.w3.org/2000/svg" xmlns:xlink="http://www.w3.org/1999/xlink" x="0px" y="0px"
	 width="286.9px" height="119.2px" viewBox="0 0 286.9 119.2" style="enable-background:new 0 0 286.9 119.2;" xml:space="preserve"
	>
<g>
	<g>
		<path d="M223.7,68c-4.2,0-7.4,1.1-9.5,3.4c-2.1,2.2-3.2,4.6-3.2,7.1c0,1.6,0.4,2.8,1.1,3.7c0.8,0.8,1.6,1.3,2.6,1.3
			c0.8,0,1.5-0.3,2.1-0.9c0.6-0.6,0.9-1.3,0.9-2.1c0-1-0.5-2-1.5-3.1c-1-1.1-1.5-2-1.5-2.5c0-0.9,0.7-1.9,2-3s2.9-1.6,4.9-1.6
			c2.8,0,4.9,1,6.2,3c1.3,2,2,4.3,2,6.9c0,1.5-0.3,3.2-0.8,5c-0.5,1.8-1.2,3.6-2,5.5c-1.5,3.6-2.5,6-2.9,7.2c-0.4,1.2-0.7,2.7-1,4.3
			c-0.3,1.6-0.4,2.9-0.4,3.8h1.3c0.7-4.6,3-9.4,7-14.5c3.6-4.7,5.4-8.6,5.4-11.7c0-3.7-1.2-6.6-3.6-8.7C230.5,69,227.4,68,223.7,68
			 M227.5,114.9c0-1.1-0.4-2-1.2-2.8c-0.8-0.8-1.8-1.2-2.9-1.2c-1,0-1.9,0.4-2.7,1.1c-0.8,0.8-1.2,1.7-1.2,2.8c0,1.1,0.4,2,1.2,2.8
			c0.8,0.8,1.7,1.1,2.8,1.1c1.1,0,2-0.4,2.8-1.2C227.1,116.9,227.5,116,227.5,114.9 M187,116.2c-8.2,0-11.4-10.9-11.4-18.6
			c0-8.7,3.9-14.8,9.8-14.8c8.3,0,11.4,10.8,11.4,18.6C196.9,110,193.1,116.2,187,116.2 M186,119.2c9.5,0,17.5-8.1,17.5-20.3
			c0-11-6.8-19-17.1-19c-9.5,0-17.5,8.2-17.5,20.5C169,111.2,175.7,119.2,186,119.2 M160.8,112V92.2c0-8.3-4.9-12.4-10.9-12.4
			c-4.4,0-8.2,2.5-12.3,8.4V65.6h-1.4l-10.2,3v1.6l1.2,0.1c2.8,0.3,4,1.5,4,4.2V112c0,3.2-2.2,3.9-5.2,4.5v1.7h16.7v-1.7
			c-2.9-0.5-5.1-1.3-5.1-4.5V90.4c3.6-4.2,6.4-5.6,9.7-5.6c4.3,0,7.2,2.5,7.2,8.1v19c0,3.2-2.2,3.9-5,4.5v1.7H166v-1.7
			C163,115.9,160.8,115.2,160.8,112 M107.4,68.5v1.7c7,0.4,7.7,1.9,6.2,6.7l-11,33l-10.4-33c-1.3-4.2-1-6.2,5.8-6.7v-1.7H78.3v1.7
			c3.3,0.4,4.6,1.2,5.4,3.8l1.5,4.6L74.8,110l-10.3-33c-1.3-4.2-1-6.2,5.8-6.7v-1.7H50.5v1.7c3.3,0.4,4.6,1.2,5.5,3.8L71.2,119h3.4
			l12.2-36l12.2,36h3.4l15.1-44.6c1-3,2.9-3.6,5.9-4.1v-1.7H107.4z"/>
		<path d="M273.1,12.3c-8,0-13.1,4.2-13,10.8c0.1,12.4,21.3,9.3,21.4,19.3c0,3.7-3.1,6.7-7.6,6.7c-4.1,0-7.6-3.2-9.4-8.9l-5.9,4.3
			c2.6,4.2,8.4,7.2,14.8,7.2c8.4,0,13.7-5.3,13.6-11.5c-0.1-14-21.7-9.9-21.7-19.5c0-3.5,3-5.8,7.3-5.8c4,0,7,2.8,8.6,7.9l5.6-4.7
			C285.3,16,281.4,12.3,273.1,12.3 M241.1,12.3c-8,0-13.1,4.2-13,10.8c0.1,12.4,21.3,9.3,21.4,19.3c0,3.7-3.1,6.7-7.6,6.7
			c-4.1,0-7.6-3.2-9.4-8.9l-5.9,4.3c2.6,4.2,8.4,7.2,14.8,7.2c8.4,0,13.7-5.3,13.6-11.5c-0.1-14-21.7-9.9-21.7-19.5
			c0-3.5,3-5.8,7.3-5.8c4,0,7,2.8,8.6,7.9l5.6-4.7C253.3,16,249.5,12.3,241.1,12.3 M207,15.1c5.8,0,8,5.2,8.5,12.2H197
			C197.7,20.1,200.8,15.1,207,15.1 M208.2,12.3c-10.1,0-17.5,7.7-17.5,20.7c0,9.9,6.3,18.6,16.5,18.6c7.6,0,13-5,14.9-11.1l-1.3-0.6
			c-2.4,3.3-5.9,6.3-11.1,6.3c-7.4,0-12.4-6.3-12.7-16.3h25.3C222.3,20.5,217.7,12.3,208.2,12.3 M185.4,46.8c-3.4,0-4.3-1.6-4.3-4.7
			V12.3h-1.4l-10.1,3v1.6l0.7,0.1c3.5,0.2,4.4,1.9,4.4,4.7v19.5c-3.6,4.1-6.3,5.6-9.7,5.6c-4.3,0-7.2-2.5-7.2-8.2V12.3h-1.4l-10.2,3
			v1.6l0.8,0.1c3.5,0.2,4.4,1.9,4.4,4.7v17.7c0,8.2,4.9,12.3,11,12.3c4.3,0,8.2-2.5,12.3-8.4v8.4h1.4l10.3-3.1v-1.7H185.4z
			 M144.8,25.6h-20.6v1.7c5.4,0.3,7.1,1.7,7.1,5.7v12.1c-2.8,1.7-7.3,2.5-10.9,2.5c-10.8,0-18.3-10-18.3-22.6C102.1,11,108,3,118,3
			c6.5,0,12.1,4.8,13.8,11.3l6.8-3.8C136.9,4.5,129.2,0,118.8,0c-14.5,0-24.2,11.5-24.2,27c0.1,14.2,9.5,24.6,23.4,24.6
			c9,0,16.7-3.9,20.1-8.2V33c0-3.8,1.9-5.4,6.7-5.7V25.6z M57.9,15.1c5.8,0,8,5.2,8.5,12.2H47.9C48.5,20.1,51.6,15.1,57.9,15.1
			 M59,12.3C48.9,12.3,41.6,20,41.6,33c0,9.9,6.3,18.6,16.5,18.6c7.6,0,13-5,14.9-11.1L71.6,40c-2.4,3.3-5.9,6.3-11.1,6.3
			c-7.4,0-12.4-6.3-12.7-16.3h25.3C73.2,20.5,68.5,12.3,59,12.3 M37.8,39h-1.7c-2.5,6.3-3.9,8.8-9.5,8.8h-5.7
			c-4.3,0-7.6-0.4-7.6-4.2V8.5c0-4.4,1.9-5.5,6.6-5.7V1H0v1.7C4.7,3,6.6,4.1,6.6,8.5v34.9c0,4.1-1.9,5.3-6.6,5.6v1.7h37.1L37.8,39z"
			/>
	</g>
</g>
</svg>
