<?xml version="1.0" encoding="utf-8"?>
<!-- Generator: Adobe Illustrator 24.0.0, SVG Export Plug-In . SVG Version: 6.00 Build 0)  -->
<svg version="1.1" id="Laag_1" xmlns="http://www.w3.org/2000/svg" xmlns:xlink="http://www.w3.org/1999/xlink" x="0px" y="0px"
	 width="90.1px" height="60px" viewBox="0 0 90.1 60" style="enable-background:new 0 0 90.1 60;" xml:space="preserve">
<g>
	<path d="M13.5,9.2c-0.9,0-1.6-0.3-2.2-0.9S10.5,7,10.5,5.9c0-1.1,0.3-1.9,0.8-2.5s1.3-0.9,2.2-0.9c0.3,0,0.6,0,0.9,0.1
		s0.6,0.1,0.7,0.2l-0.3,0.8c-0.2-0.1-0.4-0.2-0.7-0.2s-0.5-0.1-0.7-0.1c-1.3,0-2,0.8-2,2.5c0,0.8,0.2,1.4,0.5,1.8s0.8,0.6,1.4,0.6
		c0.5,0,1.1-0.1,1.6-0.3v0.9C14.6,9.1,14.1,9.2,13.5,9.2z"/>
	<path d="M17.5,2.7v4.2c0,0.5,0.1,0.9,0.4,1.2s0.6,0.4,1.1,0.4c0.7,0,1.2-0.2,1.5-0.6s0.5-1,0.5-1.8V2.7h1v6.4h-0.8L21,8.3h-0.1
		c-0.2,0.3-0.5,0.6-0.8,0.7s-0.8,0.3-1.2,0.3c-0.8,0-1.4-0.2-1.8-0.6s-0.6-1-0.6-1.8V2.7H17.5z"/>
	<path d="M26.9,2.6c0.3,0,0.5,0,0.8,0.1l-0.1,0.9c-0.3-0.1-0.5-0.1-0.7-0.1c-0.5,0-1,0.2-1.3,0.6S24.9,5,24.9,5.7v3.4h-1V2.7h0.8
		l0.1,1.2h0c0.2-0.4,0.5-0.7,0.9-1S26.5,2.6,26.9,2.6z"/>
	<path d="M32.8,9.1l-0.2-0.9h0c-0.3,0.4-0.6,0.7-1,0.8s-0.7,0.2-1.2,0.2c-0.6,0-1.1-0.2-1.5-0.5s-0.5-0.8-0.5-1.4c0-1.3,1-2,3.1-2
		l1.1,0V4.9c0-0.5-0.1-0.9-0.3-1.1s-0.6-0.4-1-0.4c-0.5,0-1.1,0.2-1.8,0.5l-0.3-0.7c0.3-0.2,0.7-0.3,1-0.4s0.8-0.1,1.1-0.1
		c0.8,0,1.3,0.2,1.7,0.5s0.6,0.9,0.6,1.6v4.4H32.8z M30.6,8.4c0.6,0,1.1-0.2,1.4-0.5s0.5-0.8,0.5-1.4V6l-1,0c-0.8,0-1.3,0.1-1.7,0.4
		s-0.5,0.5-0.5,1c0,0.4,0.1,0.6,0.3,0.8S30.2,8.4,30.6,8.4z"/>
	<path d="M37.6,8.4c0.2,0,0.3,0,0.5,0s0.3-0.1,0.4-0.1v0.7c-0.1,0.1-0.3,0.1-0.5,0.1s-0.4,0-0.6,0c-1.2,0-1.9-0.7-1.9-2V3.5h-0.9V3
		l0.9-0.4L36,1.2h0.6v1.5h1.9v0.8h-1.9v3.8c0,0.4,0.1,0.7,0.3,0.9S37.3,8.4,37.6,8.4z"/>
	<path d="M42.5,9.2c-0.9,0-1.7-0.3-2.2-0.9S39.4,7,39.4,6c0-1,0.3-1.9,0.8-2.5s1.2-0.9,2.1-0.9c0.8,0,1.4,0.3,1.9,0.8
		s0.7,1.2,0.7,2.1v0.6h-4.4c0,0.8,0.2,1.3,0.6,1.7s0.9,0.6,1.5,0.6c0.7,0,1.4-0.1,2.1-0.4v0.9c-0.3,0.1-0.7,0.3-1,0.3
		S42.9,9.2,42.5,9.2z M42.2,3.4c-0.5,0-0.9,0.2-1.2,0.5s-0.5,0.8-0.5,1.4h3.4c0-0.6-0.1-1.1-0.4-1.4S42.7,3.4,42.2,3.4z"/>
	<path d="M50.9,8.3L50.9,8.3c-0.5,0.7-1.2,1-2.1,1c-0.8,0-1.5-0.3-2-0.9S46.1,7,46.1,5.9s0.2-1.9,0.7-2.5s1.1-0.9,2-0.9
		c0.9,0,1.5,0.3,2,0.9h0.1l0-0.5l0-0.5V0h1v9.1H51L50.9,8.3z M48.9,8.4c0.7,0,1.1-0.2,1.4-0.5s0.4-0.9,0.4-1.7V5.9
		c0-0.9-0.2-1.6-0.5-1.9s-0.8-0.6-1.5-0.6c-0.6,0-1,0.2-1.3,0.7s-0.5,1.1-0.5,1.9c0,0.8,0.2,1.4,0.5,1.9S48.3,8.4,48.9,8.4z"/>
	<path d="M62.2,9.1L61,5.3c-0.1-0.2-0.2-0.8-0.4-1.6h0c-0.2,0.7-0.3,1.2-0.4,1.6L59,9.1h-1.1l-1.8-6.4h1c0.4,1.6,0.7,2.8,0.9,3.7
		s0.3,1.4,0.4,1.7h0c0-0.2,0.1-0.5,0.2-0.9s0.2-0.6,0.2-0.8l1.2-3.7h1.1l1.1,3.7c0.2,0.7,0.4,1.2,0.4,1.7h0c0-0.1,0.1-0.4,0.1-0.7
		s0.5-1.9,1.2-4.7h1l-1.8,6.4H62.2z"/>
	<path d="M66.2,1c0-0.2,0.1-0.4,0.2-0.5s0.2-0.2,0.4-0.2c0.2,0,0.3,0.1,0.4,0.2s0.2,0.3,0.2,0.5s-0.1,0.4-0.2,0.5S67,1.6,66.8,1.6
		c-0.2,0-0.3-0.1-0.4-0.2S66.2,1.2,66.2,1z M67.3,9.1h-1V2.7h1V9.1z"/>
	<path d="M71.4,8.4c0.2,0,0.3,0,0.5,0s0.3-0.1,0.4-0.1v0.7c-0.1,0.1-0.3,0.1-0.5,0.1s-0.4,0-0.6,0c-1.2,0-1.9-0.7-1.9-2V3.5h-0.9V3
		l0.9-0.4l0.4-1.4h0.6v1.5h1.9v0.8h-1.9v3.8c0,0.4,0.1,0.7,0.3,0.9S71.1,8.4,71.4,8.4z"/>
	<path d="M78,9.1V5c0-0.5-0.1-0.9-0.4-1.2S77,3.4,76.5,3.4c-0.7,0-1.2,0.2-1.5,0.6s-0.5,1-0.5,1.8v3.4h-1V0h1v2.8c0,0.3,0,0.6,0,0.8
		h0.1C74.8,3.3,75,3,75.4,2.9s0.8-0.3,1.2-0.3c0.8,0,1.4,0.2,1.8,0.6s0.6,1,0.6,1.8v4.2H78z"/>
	<path d="M14.3,25.1l-2.9-7.6h0c0.1,0.6,0.1,1.3,0.1,2.1v5.4h-0.9v-8.6H12l2.7,7.1h0l2.7-7.1H19v8.6h-1v-5.5c0-0.6,0-1.3,0.1-2.1h0
		l-2.9,7.6H14.3z"/>
	<path d="M26.7,21.9c0,1-0.3,1.9-0.8,2.5s-1.3,0.9-2.2,0.9c-0.6,0-1.1-0.1-1.5-0.4s-0.8-0.7-1-1.2s-0.4-1.1-0.4-1.8
		c0-1,0.3-1.9,0.8-2.4s1.2-0.9,2.2-0.9c0.9,0,1.6,0.3,2.1,0.9S26.7,20.9,26.7,21.9z M21.8,21.9c0,0.8,0.2,1.4,0.5,1.9
		s0.8,0.6,1.4,0.6s1.1-0.2,1.5-0.6s0.5-1.1,0.5-1.9c0-0.8-0.2-1.4-0.5-1.9s-0.8-0.6-1.5-0.6c-0.6,0-1.1,0.2-1.4,0.6
		S21.8,21.1,21.8,21.9z"/>
	<path d="M29.3,18.7v4.2c0,0.5,0.1,0.9,0.4,1.2s0.6,0.4,1.1,0.4c0.7,0,1.2-0.2,1.5-0.6s0.5-1,0.5-1.8v-3.4h1v6.4h-0.8l-0.1-0.9h-0.1
		c-0.2,0.3-0.5,0.6-0.8,0.7s-0.8,0.3-1.2,0.3c-0.8,0-1.4-0.2-1.8-0.6s-0.6-1-0.6-1.8v-4.2H29.3z"/>
	<path d="M40.2,25.1V21c0-0.5-0.1-0.9-0.4-1.2s-0.6-0.4-1.1-0.4c-0.7,0-1.2,0.2-1.5,0.5s-0.5,1-0.5,1.8v3.4h-1v-6.4h0.8l0.2,0.9h0
		c0.2-0.3,0.5-0.6,0.8-0.7s0.8-0.3,1.2-0.3c0.8,0,1.4,0.2,1.7,0.6s0.6,1,0.6,1.8v4.2H40.2z"/>
	<path d="M45.2,24.4c0.2,0,0.3,0,0.5,0s0.3-0.1,0.4-0.1v0.7c-0.1,0.1-0.3,0.1-0.5,0.1s-0.4,0-0.6,0c-1.2,0-1.9-0.7-1.9-2v-3.8h-0.9
		V19l0.9-0.4l0.4-1.4h0.6v1.5H46v0.8h-1.9v3.8c0,0.4,0.1,0.7,0.3,0.9S44.9,24.4,45.2,24.4z"/>
	<path d="M55.4,25.1h-4.8v-8.6h4.8v0.9h-3.8v2.8h3.6v0.9h-3.6v3.2h3.8V25.1z"/>
	<path d="M59.9,25.2c-0.9,0-1.7-0.3-2.2-0.9S56.8,23,56.8,22c0-1,0.3-1.9,0.8-2.5s1.2-0.9,2.1-0.9c0.8,0,1.4,0.3,1.9,0.8
		s0.7,1.2,0.7,2.1v0.6h-4.4c0,0.8,0.2,1.3,0.6,1.7s0.9,0.6,1.5,0.6c0.7,0,1.4-0.1,2.1-0.4v0.9c-0.3,0.1-0.7,0.3-1,0.3
		S60.3,25.2,59.9,25.2z M59.6,19.4c-0.5,0-0.9,0.2-1.2,0.5s-0.5,0.8-0.5,1.4h3.4c0-0.6-0.1-1.1-0.4-1.4S60.1,19.4,59.6,19.4z"/>
	<path d="M66.8,18.6c0.3,0,0.5,0,0.8,0.1l-0.1,0.9c-0.3-0.1-0.5-0.1-0.7-0.1c-0.5,0-1,0.2-1.3,0.6s-0.6,0.9-0.6,1.6v3.4h-1v-6.4h0.8
		l0.1,1.2h0c0.2-0.4,0.5-0.7,0.9-1S66.4,18.6,66.8,18.6z"/>
	<path d="M68.7,17c0-0.2,0.1-0.4,0.2-0.5s0.2-0.2,0.4-0.2c0.2,0,0.3,0.1,0.4,0.2s0.2,0.3,0.2,0.5s-0.1,0.4-0.2,0.5s-0.2,0.2-0.4,0.2
		c-0.2,0-0.3-0.1-0.4-0.2S68.7,17.2,68.7,17z M69.8,25.1h-1v-6.4h1V25.1z"/>
	<path d="M74.5,25.2c-0.9,0-1.7-0.3-2.2-0.9S71.5,23,71.5,22c0-1,0.3-1.9,0.8-2.5s1.2-0.9,2.1-0.9c0.8,0,1.4,0.3,1.9,0.8
		s0.7,1.2,0.7,2.1v0.6h-4.4c0,0.8,0.2,1.3,0.6,1.7s0.9,0.6,1.5,0.6c0.7,0,1.4-0.1,2.1-0.4v0.9c-0.3,0.1-0.7,0.3-1,0.3
		S75,25.2,74.5,25.2z M74.3,19.4c-0.5,0-0.9,0.2-1.2,0.5s-0.5,0.8-0.5,1.4h3.4c0-0.6-0.1-1.1-0.4-1.4S74.8,19.4,74.3,19.4z"/>
	<path d="M79.6,23.7l0.1,0.1c-0.1,0.4-0.2,0.8-0.4,1.4s-0.4,1-0.6,1.4h-0.7c0.1-0.4,0.2-0.9,0.3-1.5s0.2-1.1,0.3-1.4H79.6z"/>
	<path d="M3.8,41.1l-2.9-7.6h0c0.1,0.6,0.1,1.3,0.1,2.1v5.4H0v-8.6h1.5l2.7,7.1h0L7,32.6h1.5v8.6h-1v-5.5c0-0.6,0-1.3,0.1-2.1h0
		l-2.9,7.6H3.8z"/>
	<path d="M14.6,41.1l-0.2-0.9h0c-0.3,0.4-0.6,0.7-1,0.8s-0.7,0.2-1.2,0.2c-0.6,0-1.1-0.2-1.5-0.5s-0.5-0.8-0.5-1.4c0-1.3,1-2,3.1-2
		l1.1,0v-0.4c0-0.5-0.1-0.9-0.3-1.1s-0.6-0.4-1-0.4c-0.5,0-1.1,0.2-1.8,0.5l-0.3-0.7c0.3-0.2,0.7-0.3,1-0.4s0.8-0.1,1.1-0.1
		c0.8,0,1.3,0.2,1.7,0.5s0.6,0.9,0.6,1.6v4.4H14.6z M12.4,40.4c0.6,0,1.1-0.2,1.4-0.5s0.5-0.8,0.5-1.4V38l-1,0
		c-0.8,0-1.3,0.1-1.7,0.4s-0.5,0.5-0.5,1c0,0.4,0.1,0.6,0.3,0.8S12.1,40.4,12.4,40.4z"/>
	<path d="M19.4,40.4c0.2,0,0.3,0,0.5,0s0.3-0.1,0.4-0.1v0.7c-0.1,0.1-0.3,0.1-0.5,0.1s-0.4,0-0.6,0c-1.2,0-1.9-0.7-1.9-2v-3.8h-0.9
		V35l0.9-0.4l0.4-1.4h0.6v1.5h1.9v0.8h-1.9v3.8c0,0.4,0.1,0.7,0.3,0.9S19.1,40.4,19.4,40.4z"/>
	<path d="M25.5,41.1l-0.2-0.9h0c-0.3,0.4-0.6,0.7-1,0.8s-0.7,0.2-1.2,0.2c-0.6,0-1.1-0.2-1.5-0.5s-0.5-0.8-0.5-1.4c0-1.3,1-2,3.1-2
		l1.1,0v-0.4c0-0.5-0.1-0.9-0.3-1.1s-0.6-0.4-1-0.4c-0.5,0-1.1,0.2-1.8,0.5l-0.3-0.7c0.3-0.2,0.7-0.3,1-0.4s0.8-0.1,1.1-0.1
		c0.8,0,1.3,0.2,1.7,0.5s0.6,0.9,0.6,1.6v4.4H25.5z M23.3,40.4c0.6,0,1.1-0.2,1.4-0.5s0.5-0.8,0.5-1.4V38l-1,0
		c-0.8,0-1.3,0.1-1.7,0.4s-0.5,0.5-0.5,1c0,0.4,0.1,0.6,0.3,0.8S23,40.4,23.3,40.4z"/>
	<path d="M32.7,41.1V37c0-0.5-0.1-0.9-0.4-1.2s-0.6-0.4-1.1-0.4c-0.7,0-1.2,0.2-1.5,0.5s-0.5,1-0.5,1.8v3.4h-1v-6.4h0.8l0.2,0.9h0
		c0.2-0.3,0.5-0.6,0.8-0.7s0.8-0.3,1.2-0.3c0.8,0,1.4,0.2,1.7,0.6s0.6,1,0.6,1.8v4.2H32.7z"/>
	<path d="M39.6,41.1l-0.2-0.9h0c-0.3,0.4-0.6,0.7-1,0.8s-0.7,0.2-1.2,0.2c-0.6,0-1.1-0.2-1.5-0.5s-0.5-0.8-0.5-1.4c0-1.3,1-2,3.1-2
		l1.1,0v-0.4c0-0.5-0.1-0.9-0.3-1.1s-0.6-0.4-1-0.4c-0.5,0-1.1,0.2-1.8,0.5l-0.3-0.7c0.3-0.2,0.7-0.3,1-0.4s0.8-0.1,1.1-0.1
		c0.8,0,1.3,0.2,1.7,0.5s0.6,0.9,0.6,1.6v4.4H39.6z M37.4,40.4c0.6,0,1.1-0.2,1.4-0.5s0.5-0.8,0.5-1.4V38l-1,0
		c-0.8,0-1.3,0.1-1.7,0.4s-0.5,0.5-0.5,1c0,0.4,0.1,0.6,0.3,0.8S37,40.4,37.4,40.4z"/>
	<path d="M46.6,37.6v3.6h-1v-8.6h2.3c1.1,0,1.8,0.2,2.3,0.6s0.8,1,0.8,1.8c0,1.1-0.6,1.9-1.7,2.3l2.3,3.8h-1.2l-2.1-3.6H46.6z
		 M46.6,36.7h1.4c0.7,0,1.2-0.1,1.5-0.4S50,35.6,50,35c0-0.6-0.2-1-0.5-1.2s-0.9-0.4-1.6-0.4h-1.3V36.7z"/>
	<path d="M58.4,37.9c0,1-0.3,1.9-0.8,2.5s-1.3,0.9-2.2,0.9c-0.6,0-1.1-0.1-1.5-0.4s-0.8-0.7-1-1.2s-0.4-1.1-0.4-1.8
		c0-1,0.3-1.9,0.8-2.4s1.2-0.9,2.2-0.9c0.9,0,1.6,0.3,2.1,0.9S58.4,36.9,58.4,37.9z M53.5,37.9c0,0.8,0.2,1.4,0.5,1.9
		s0.8,0.6,1.4,0.6s1.1-0.2,1.5-0.6s0.5-1.1,0.5-1.9c0-0.8-0.2-1.4-0.5-1.9s-0.8-0.6-1.5-0.6c-0.6,0-1.1,0.2-1.4,0.6
		S53.5,37.1,53.5,37.9z"/>
	<path d="M63.1,34.6c0.8,0,1.5,0.3,2,0.9s0.7,1.4,0.7,2.4s-0.2,1.9-0.7,2.5s-1.1,0.9-2,0.9c-0.4,0-0.8-0.1-1.1-0.2s-0.6-0.4-0.9-0.7
		H61l-0.2,0.8h-0.7V32h1v2.2c0,0.5,0,0.9,0,1.3h0C61.5,34.9,62.2,34.6,63.1,34.6z M62.9,35.4c-0.7,0-1.1,0.2-1.4,0.6s-0.4,1-0.4,1.9
		s0.2,1.5,0.5,1.9s0.8,0.6,1.4,0.6c0.6,0,1-0.2,1.3-0.7s0.4-1.1,0.4-1.9c0-0.8-0.1-1.5-0.4-1.9S63.6,35.4,62.9,35.4z"/>
	<path d="M70.2,41.2c-0.9,0-1.7-0.3-2.2-0.9S67.1,39,67.1,38c0-1,0.3-1.9,0.8-2.5s1.2-0.9,2.1-0.9c0.8,0,1.4,0.3,1.9,0.8
		s0.7,1.2,0.7,2.1v0.6h-4.4c0,0.8,0.2,1.3,0.6,1.7s0.9,0.6,1.5,0.6c0.7,0,1.4-0.1,2.1-0.4v0.9c-0.3,0.1-0.7,0.3-1,0.3
		S70.6,41.2,70.2,41.2z M69.9,35.4c-0.5,0-0.9,0.2-1.2,0.5s-0.5,0.8-0.5,1.4h3.4c0-0.6-0.1-1.1-0.4-1.4S70.4,35.4,69.9,35.4z"/>
	<path d="M77.1,34.6c0.3,0,0.5,0,0.8,0.1l-0.1,0.9c-0.3-0.1-0.5-0.1-0.7-0.1c-0.5,0-1,0.2-1.3,0.6s-0.6,0.9-0.6,1.6v3.4h-1v-6.4H75
		l0.1,1.2h0c0.2-0.4,0.5-0.7,0.9-1S76.7,34.6,77.1,34.6z"/>
	<path d="M81.2,40.4c0.2,0,0.3,0,0.5,0s0.3-0.1,0.4-0.1v0.7c-0.1,0.1-0.3,0.1-0.5,0.1s-0.4,0-0.6,0c-1.2,0-1.9-0.7-1.9-2v-3.8h-0.9
		V35l0.9-0.4l0.4-1.4h0.6v1.5H82v0.8h-1.9v3.8c0,0.4,0.1,0.7,0.3,0.9S80.8,40.4,81.2,40.4z"/>
	<path d="M87.5,39.4c0,0.6-0.2,1.1-0.7,1.4s-1.1,0.5-1.9,0.5c-0.9,0-1.5-0.1-2-0.4v-0.9c0.3,0.2,0.6,0.3,1,0.4s0.7,0.1,1,0.1
		c0.5,0,0.9-0.1,1.2-0.2s0.4-0.4,0.4-0.7c0-0.2-0.1-0.5-0.3-0.6s-0.6-0.4-1.3-0.6c-0.6-0.2-1-0.4-1.3-0.6s-0.4-0.4-0.6-0.6
		s-0.2-0.5-0.2-0.8c0-0.5,0.2-0.9,0.6-1.2s1-0.5,1.8-0.5c0.7,0,1.4,0.1,2,0.4L87,35.8c-0.6-0.3-1.2-0.4-1.8-0.4
		c-0.5,0-0.8,0.1-1,0.2s-0.4,0.3-0.4,0.6c0,0.2,0,0.3,0.1,0.4s0.2,0.2,0.4,0.3s0.6,0.3,1.1,0.5c0.8,0.3,1.3,0.6,1.5,0.8
		S87.5,38.9,87.5,39.4z"/>
	<path d="M90.1,39.7l0.1,0.1c-0.1,0.4-0.2,0.8-0.4,1.4s-0.4,1-0.6,1.4h-0.7c0.1-0.4,0.2-0.9,0.3-1.5s0.2-1.1,0.3-1.4H90.1z"/>
	<path d="M12.8,59.4c-0.4,0-0.7-0.1-0.9-0.2v-0.8c0.3,0.1,0.6,0.1,0.9,0.1c0.4,0,0.7-0.1,0.9-0.4s0.3-0.6,0.3-1v-8.6h1V57
		c0,0.7-0.2,1.3-0.6,1.7S13.5,59.4,12.8,59.4z"/>
	<path d="M22.6,53.9c0,1-0.3,1.9-0.8,2.5s-1.3,0.9-2.2,0.9c-0.6,0-1.1-0.1-1.5-0.4s-0.8-0.7-1-1.2s-0.4-1.1-0.4-1.8
		c0-1,0.3-1.9,0.8-2.4s1.2-0.9,2.2-0.9c0.9,0,1.6,0.3,2.1,0.9S22.6,52.9,22.6,53.9z M17.7,53.9c0,0.8,0.2,1.4,0.5,1.9
		s0.8,0.6,1.4,0.6s1.1-0.2,1.5-0.6s0.5-1.1,0.5-1.9c0-0.8-0.2-1.4-0.5-1.9s-0.8-0.6-1.5-0.6c-0.6,0-1.1,0.2-1.4,0.6
		S17.7,53.1,17.7,53.9z"/>
	<path d="M28.7,57.1V53c0-0.5-0.1-0.9-0.4-1.2s-0.6-0.4-1.1-0.4c-0.7,0-1.2,0.2-1.5,0.6s-0.5,1-0.5,1.8v3.4h-1V48h1v2.8
		c0,0.3,0,0.6,0,0.8h0.1c0.2-0.3,0.5-0.6,0.8-0.7s0.8-0.3,1.2-0.3c0.8,0,1.4,0.2,1.8,0.6s0.6,1,0.6,1.8v4.2H28.7z"/>
	<path d="M36.1,57.1V53c0-0.5-0.1-0.9-0.4-1.2s-0.6-0.4-1.1-0.4c-0.7,0-1.2,0.2-1.5,0.5s-0.5,1-0.5,1.8v3.4h-1v-6.4h0.8l0.2,0.9h0
		c0.2-0.3,0.5-0.6,0.8-0.7s0.8-0.3,1.2-0.3c0.8,0,1.4,0.2,1.7,0.6s0.6,1,0.6,1.8v4.2H36.1z"/>
	<path d="M49.2,52.8c0,1.4-0.4,2.5-1.2,3.2s-1.9,1.1-3.3,1.1h-2.4v-8.6H45c1.3,0,2.4,0.4,3.1,1.1S49.2,51.4,49.2,52.8z M48.1,52.8
		c0-1.1-0.3-2-0.8-2.5s-1.4-0.8-2.5-0.8h-1.4v6.8h1.2c1.2,0,2.1-0.3,2.7-0.9S48.1,53.9,48.1,52.8z"/>
	<path d="M56.2,57.1L55,53.3c-0.1-0.2-0.2-0.8-0.4-1.6h0c-0.2,0.7-0.3,1.2-0.4,1.6l-1.2,3.8h-1.1L50,50.7h1c0.4,1.6,0.7,2.8,0.9,3.7
		s0.3,1.4,0.4,1.7h0c0-0.2,0.1-0.5,0.2-0.9s0.2-0.6,0.2-0.8l1.2-3.7h1.1l1.1,3.7c0.2,0.7,0.4,1.2,0.4,1.7h0c0-0.1,0.1-0.4,0.1-0.7
		s0.5-1.9,1.2-4.7h1l-1.8,6.4H56.2z"/>
	<path d="M59.2,50.7h1l1.4,3.7c0.3,0.8,0.5,1.4,0.6,1.8h0c0.1-0.2,0.2-0.5,0.3-1s0.7-2,1.6-4.5h1L62.5,58c-0.3,0.7-0.6,1.2-1,1.5
		S60.7,60,60.2,60c-0.3,0-0.6,0-0.9-0.1v-0.8c0.2,0,0.5,0.1,0.7,0.1c0.7,0,1.1-0.4,1.4-1.1l0.4-0.9L59.2,50.7z"/>
	<path d="M69,57.2c-0.9,0-1.7-0.3-2.2-0.9S66,55,66,54c0-1,0.3-1.9,0.8-2.5s1.2-0.9,2.1-0.9c0.8,0,1.4,0.3,1.9,0.8s0.7,1.2,0.7,2.1
		v0.6H67c0,0.8,0.2,1.3,0.6,1.7s0.9,0.6,1.5,0.6c0.7,0,1.4-0.1,2.1-0.4v0.9c-0.3,0.1-0.7,0.3-1,0.3S69.5,57.2,69,57.2z M68.8,51.4
		c-0.5,0-0.9,0.2-1.2,0.5S67,52.7,67,53.3h3.4c0-0.6-0.1-1.1-0.4-1.4S69.3,51.4,68.8,51.4z"/>
	<path d="M76,50.6c0.3,0,0.5,0,0.8,0.1l-0.1,0.9c-0.3-0.1-0.5-0.1-0.7-0.1c-0.5,0-1,0.2-1.3,0.6S74,53,74,53.7v3.4h-1v-6.4h0.8
		l0.1,1.2h0c0.2-0.4,0.5-0.7,0.9-1S75.6,50.6,76,50.6z"/>
</g>
</svg>
