<?xml version="1.0" encoding="utf-8"?>
<!-- Generator: Adobe Illustrator 22.1.0, SVG Export Plug-In . SVG Version: 6.00 Build 0)  -->
<svg version="1.1" id="Laag_1" xmlns="http://www.w3.org/2000/svg" xmlns:xlink="http://www.w3.org/1999/xlink" x="0px" y="0px"
	 width="1162.1px" height="146.8px" viewBox="0 0 1162.1 146.8" style="enable-background:new 0 0 1162.1 146.8;"
	 xml:space="preserve">
<style type="text/css">
	.st0{fill:#FFFFFF;}
</style>
<path class="st0" d="M910.4,73.4c0,35.9-19,66.4-41.8,66.4c-23.1,0-42-30.5-42-66.4c0-35.9,18.8-66.4,42-66.4
	C891.3,7,910.4,37.5,910.4,73.4 M932.4,73.4c0-39.7-28.6-73.4-63.8-73.4c-35.2,0-64,33.7-64,73.4s28.8,73.4,64,73.4
	C903.8,146.8,932.4,113.1,932.4,73.4 M758.8,37.6c0.6,11.1-3.4,18.4-11.7,22.4c-5.3,2.4-13.9,3.8-26.2,3.6V10.7
	C745.2,9.8,757.8,18.8,758.8,37.6 M807.9,144.9v-3.6c-8.1,0.6-19.2-5.5-23.5-12.4l-37.4-58.5c19.4-4,29-14.9,29.2-32.9
	c0-14.9-6-25-17.9-30.3c-7.9-3.6-20.1-5.3-36.9-5.3h-30.9v3.6c5.8-0.2,10.7,4.5,10.7,10.4V131c0,5.8-4.9,10.5-10.7,10.3v3.6h41.2
	v-3.6c-5.8,0.2-10.7-4.5-10.7-10.3V72.1h3.4l46.7,72.8H807.9z M680.2,32.4l-6.4-30.5H557.8l-6.4,30.5h5.1c0-11.3,8.5-19.2,21.5-19.2
	h28V131c0,5.8-4.9,10.5-10.7,10.3v3.6h41.2v-3.6c-5.8,0.2-10.7-4.5-10.7-10.3V13.2h27.9c13,0,21.5,7.9,21.5,19.2H680.2z M543,109.3
	c0.6-2.8,0.8-5.5,0.8-7.9c0-11.3-4.7-21.1-13.9-29.2c-3.2-2.8-12.4-8.8-27.3-17.7c-10.5-6.2-16.7-12.2-18.4-17.9
	c-0.6-1.9-0.8-3.8-0.8-5.6c0-11.3,10.2-20.9,21.6-21.8c13.7-0.9,25.2,9.8,28.2,25.6h4.3V7.3c-7.2-4.7-15.4-7-24.7-7
	c-11.3,0-21.1,3.2-29.4,9.4c-8.8,6.8-13.7,15.6-14.5,26.7c-0.8,10.9,3.8,20.3,13.4,28.4c9.2,6,18.4,12,27.7,18.3
	c10.3,7.5,15.6,16,16.2,25.4c0.8,15.6-10.4,28.4-25.6,29.4c-17.9,1.3-32.6-15.4-34.2-35.8h-4.3v36.3c8.5,5.1,18.3,7.7,29.7,7.7
	c12.4,0,23.3-3,32.7-9C534.9,130.4,541.1,121.2,543,109.3 M450.8,118.4h-4c-3.6,6-6.2,9.8-8.1,11.3c-3.2,2.6-8.1,4-14.7,4h-47V76.4
	h31.6c10,0,15.1,5.1,15.1,15.1h4V52.1h-4c0,10-5.1,15.1-15.1,15.1H377v-54h41.2c10,0,15.1,4.7,15.1,14.3v7.3h4V1.9h-90.7v3.6
	c5.8-0.2,10.7,4.5,10.7,10.4V131c0,5.8-4.9,10.5-10.7,10.3v3.6h92.6L450.8,118.4z M275.9,83.2h-52.5l25.4-56.3L275.9,83.2z
	 M333.3,144.9v-3.6c-5.5,0.2-11.9-4.9-14.7-10.3L258.2,1.9h-30.5v3.6c6.2-0.2,13.4,5.1,16.2,11.1L190.9,131
	c-2.4,5.5-9,10.5-14.5,10.3v3.6h32.2v-3.6c-4.7,0.2-7.2-1.9-7.2-6.2c0-2.1,0.6-4.3,1.5-6.8l16.7-36.9h60.2l17.7,36.9
	c1.1,2.3,1.7,4.5,1.7,6.6c0,4.5-2.4,6.6-7.2,6.4v3.6H333.3z M164.9,144.9v-3.6c-5.8,0.2-12.8-4.5-13-10.3l-7.2-110.1
	c0.6-10.2,5.1-15.2,13.5-15.4V1.9h-32.4l-39,105.2L35.2,1.9H0v3.6c12.6,0.2,23.3,9.2,23.1,21.3L20.7,131c0,5.8-4.7,10.5-10.5,10.3
	v3.6h31.6v-3.6c-5.8,0.2-10.9-4.5-10.7-10.3l2.4-95L83,146.4l44.2-120.6l7.2,105.2c0.6,5.8-4.7,10.5-10.7,10.3v3.6H164.9z"/>
</svg>
