<?xml version="1.0" encoding="utf-8"?>
<!-- Generator: Adobe Illustrator 24.3.0, SVG Export Plug-In . SVG Version: 6.00 Build 0)  -->
<svg version="1.1" id="Laag_1" xmlns="http://www.w3.org/2000/svg" xmlns:xlink="http://www.w3.org/1999/xlink" x="0px" y="0px"
	 width="217.2px" height="34.9px" viewBox="0 0 217.2 34.9" style="enable-background:new 0 0 217.2 34.9;" xml:space="preserve">
<style type="text/css">
	.st0{fill:#1A1D56;}
</style>
<g>
	<path class="st0" d="M23.9,11.4h-0.8c0.2-1.9-0.4-3.2-0.9-3.8c-0.5-0.7-2-2.4-5.2-2.4c-2.5,0-4.6,1.1-6.2,2.6
		c-3,3-4.4,7.5-4.4,10.3c0,4.6,2.9,7.9,7.1,7.9c3.5,0,6.2-2.4,8.2-7.2h0.7l-1.3,5.4c-2.6,1.8-5.3,2.7-8,2.7c-5.6,0-9.9-3.8-9.9-8.8
		c0-6.6,6.2-13.8,13.9-13.8c2.5,0,4.9,0.6,7.9,2.2L23.9,11.4z"/>
	<path class="st0" d="M34.8,22.3c-1.7,3-3.9,4.6-6.2,4.6c-2.4,0-4-1.7-4-4.1c0-4.8,5-10.5,8.4-10.5c1.5,0,2.4,1,2.4,2.5
		c0,0.9-0.4,2-1.3,2.9c-1.6,1.6-4.6,2.8-7,3c-0.1,0.2-0.2,0.7-0.2,1.3c0,1.8,1.1,3.1,2.8,3.1c1.3,0,3.1-1,4.2-2.9h0.9V22.3z
		 M31.8,13.6c-1.6,0-3.4,2.4-4.6,6.4c2.1-0.3,4-1,5.3-2.3c0.3-0.3,1.1-1.2,1.1-2.3C33.5,14.4,32.8,13.6,31.8,13.6z"/>
	<path class="st0" d="M38.4,24.4c-0.2,0.7,0,1,0.4,1c0.6,0,2-1.4,2.9-2.9h1.1c-1.4,2.5-3.6,4.4-5.2,4.4c-0.9,0-1.6-0.7-1.6-1.6
		c0-0.5,0.1-0.9,0.5-2.5L41.1,8c0.4-1.1,0.4-1.3,0.4-1.6c0-0.7-0.3-0.9-2.8-0.8l0.2-0.8c3.5,0.1,4.9-0.3,5.2-0.4h0.4L38.4,24.4z"/>
	<path class="st0" d="M53.5,22.3c-1.7,3-3.9,4.6-6.2,4.6c-2.4,0-4-1.7-4-4.1c0-4.8,5-10.5,8.4-10.5c1.5,0,2.4,1,2.4,2.5
		c0,0.9-0.4,2-1.3,2.9c-1.6,1.6-4.6,2.8-7,3c-0.1,0.2-0.2,0.7-0.2,1.3c0,1.8,1.1,3.1,2.8,3.1c1.3,0,3.1-1,4.2-2.9h0.9V22.3z
		 M50.5,13.6c-1.6,0-3.4,2.4-4.6,6.4c2.1-0.3,4-1,5.3-2.3c0.3-0.3,1.1-1.2,1.1-2.3C52.3,14.4,51.5,13.6,50.5,13.6z"/>
	<path class="st0" d="M59.2,16L59.2,16c2-2.7,3.2-3.6,5-3.6c2.1,0,3.5,1.7,3.5,4.1c0,2.7-1.4,5.5-3.8,7.9c-1.5,1.5-3.3,2.5-5.2,2.5
		c-2.2,0-3.7-1.5-3.7-3.6c0-0.8,0.1-1.5,0.5-2.8l4-13.2c0.1-0.4,0.2-0.7,0.2-0.9c0-0.6-0.3-0.9-2.5-0.8l0.3-0.8c2.4,0,3.4,0,4.8-0.4
		h0.4L59.2,16z M60.4,15.8c-1.6,1.6-3.1,5.6-3.1,7.5c0,1.5,0.9,2.4,2.4,2.4c1,0,1.9-0.4,2.8-1.2c1.7-1.7,3-5.1,3-7.2
		c0-1.8-1-2.9-2.4-2.9C62.1,14.3,61.5,14.7,60.4,15.8z"/>
	<path class="st0" d="M72.2,16.3c0.2-0.9,0.3-1.3,0.3-1.7s-0.3-0.7-0.6-0.7c-0.7,0-1.7,1-2.5,2.7h-0.9c1.3-2.6,3-4.2,4.4-4.2
		c1,0,1.6,0.8,1.6,1.9c0,1-0.2,2.2-0.9,4.7l0.1,0.1c2.3-5,3.8-6.6,5.2-6.6c0.9,0,1.4,0.7,1.4,1.9c0,1.3-0.5,2.2-1.2,2.2
		c-1.6,0-0.2-2.4-1.2-2.4c-0.1,0-0.4,0.1-0.7,0.4c-1.8,1.8-3.7,6-4.4,8.9L72,26.7h-2.2L72.2,16.3z"/>
	<path class="st0" d="M89.4,22.3c-1.7,3-3.9,4.6-6.2,4.6c-2.4,0-4-1.7-4-4.1c0-4.8,5-10.5,8.4-10.5c1.5,0,2.4,1,2.4,2.5
		c0,0.9-0.4,2-1.3,2.9c-1.6,1.6-4.6,2.8-7,3c-0.1,0.2-0.2,0.7-0.2,1.3c0,1.8,1.1,3.1,2.8,3.1c1.3,0,3.1-1,4.2-2.9h0.9V22.3z
		 M86.5,13.6c-1.6,0-3.4,2.4-4.6,6.4c2.1-0.3,4-1,5.3-2.3c0.3-0.3,1.1-1.2,1.1-2.3C88.2,14.4,87.5,13.6,86.5,13.6z"/>
	<path class="st0" d="M94.4,15.5c0.4-1.5,0.3-1.9-0.1-1.9c-0.7,0-1.6,1-2.6,2.7h-0.9c1.4-2.7,2.9-4,4.6-4c0.9,0,1.5,0.5,1.5,1.3
		c0,0.5-0.2,1.6-0.5,2.3l-2.1,6l0.1,0.1c4.6-8.1,6.8-9.7,8.8-9.7c1,0,1.7,0.6,1.7,1.6c0,0.4-0.2,1.2-0.5,2.1l-1.9,5.7l0.1,0.1
		c4.2-7.3,6.5-9.4,8.5-9.4c1,0,1.8,0.8,1.8,1.8c0,0.6-0.2,1.4-0.5,2.5l-2.5,7.1c-0.4,1.1-0.2,1.5,0.2,1.5c0.5,0,1.6-1.1,2.6-2.8h1
		c-1.5,2.8-3.4,4.5-4.8,4.5c-0.8,0-1.5-0.7-1.5-1.7c0-0.4,0.2-1.1,0.4-1.9l2.6-7.3c0.4-1.1,0.4-1.4,0.4-1.8c0-0.4-0.3-0.7-0.6-0.7
		c-0.4,0-1,0.3-1.9,1.2c-2.1,2.1-5.9,8-7,11.8h-2.2l3.4-11.1c0.1-0.4,0.4-1.3,0.4-1.5c0-0.3-0.3-0.5-0.5-0.5c-0.4,0-1.1,0.4-1.9,1.2
		c-2.1,2.1-5.9,8-7,11.9H91L94.4,15.5z"/>
	<path class="st0" d="M125.2,24.4c-0.2,0.7,0,1,0.4,1c0.6,0,2-1.4,2.9-2.9h1.1c-1.4,2.5-3.6,4.4-5.2,4.4c-0.9,0-1.6-0.7-1.6-1.6
		c0-0.5,0.1-0.9,0.5-2.5L127.9,8c0.4-1.1,0.4-1.3,0.4-1.6c0-0.7-0.3-0.9-2.8-0.8l0.2-0.8c3.5,0.1,4.9-0.3,5.2-0.4h0.4L125.2,24.4z"
		/>
	<path class="st0" d="M140.9,24.1c-0.3,1-0.1,1.3,0.4,1.3c0.6,0,1.5-1,2.6-2.9h0.9c-1.2,2.6-3,4.5-4.5,4.5c-1,0-1.6-0.9-1.6-2.1
		c0-0.7,0.1-1.4,0.6-2.8l-0.1-0.1c-1.8,3.5-3.9,4.9-6,4.9c-1.8,0-3.2-1.5-3.2-3.6c0-5.3,6-11,9.2-11c1.7,0,2.6,0.5,3.3,1.7
		c0.4-0.4,0.7-0.8,1.2-1.6h0.8L140.9,24.1z M137.2,23.7c1.9-1.9,3.8-6,3.8-8.3c0-1.3-0.8-2.2-2.1-2.2c-1.5,0-2.7,1.1-3.2,1.6
		c-2,2-3.5,5.3-3.5,7.4c0,1.6,0.9,2.7,2.4,2.7C135,25,136.2,24.7,137.2,23.7z"/>
	<path class="st0" d="M159.6,17.7c-1.3,2.8-1.7,3.9-1.7,5c0,1.4,1.2,2.5,2.7,2.5c1.1,0,2.1-0.4,3.2-1.5c1.5-1.5,2.9-4.6,2.9-6.4
		s-1.4-2.1-1.4-3.6c0-0.8,0.5-1.4,1.2-1.4c1,0,1.6,1.1,1.6,2.8c0,4.1-3.2,11.7-8.5,11.7c-2.3,0-4.1-1.6-4.1-3.8
		c0-2.4,2.1-3.7,4.8-8.5c-0.2,0-0.6,0-0.7,0c-0.6,0-2.8-0.2-3.6-0.2c-0.9,0-1.4,0.5-1.4,1.2s1.2,0.4,1.2,1.6c0,0.7-0.5,1.3-1.1,1.3
		c-0.7,0-1.2-0.6-1.2-1.6c0-1.7,1.2-4.4,4.2-4.4h3.5c0.4,0,0.7,0,1.1-0.1L159.6,17.7z"/>
	<path class="st0" d="M168.8,16.7c1.2-2.5,3.2-4.3,4.8-4.3c1,0,1.6,0.7,1.6,1.7c0,0.6-0.2,1.5-0.5,2.4l-2.8,7.9
		c-0.3,0.8,0,1.2,0.3,1.2c0.7,0,2.2-1.5,3-3.1h1c-1.2,2.5-3.3,4.5-4.9,4.5c-1,0-1.6-0.7-1.6-1.8c0-0.5,0.1-1.2,0.3-1.7l2.7-7.9
		c0.5-1.5,0.3-1.8-0.1-1.8c-0.8,0-2,1.3-2.9,2.9H168.8z M176.3,4.4c0.9,0,1.6,0.7,1.6,1.6s-0.7,1.6-1.6,1.6c-0.9,0-1.6-0.7-1.6-1.6
		S175.4,4.4,176.3,4.4z"/>
	<path class="st0" d="M190.4,8.1c0.1-0.4,0.4-1.3,0.4-1.7c0-0.4-0.3-0.8-1.8-0.8h-1.2l0.3-0.8c3.1,0.1,4.7-0.2,5.1-0.4h0.4
		l-5.5,19.8c-0.2,0.8-0.2,1.2,0.4,1.2c0.7,0,1.7-1.1,2.5-2.9h0.9c-0.9,2.6-2.8,4.5-4.4,4.5c-0.9,0-1.6-0.8-1.6-1.9
		c0-0.7,0.2-1.7,0.6-3.4l-0.1-0.1c-1.7,3.5-3.9,5.3-6.2,5.3c-1.9,0-3.4-1.6-3.4-3.6c0-4.4,5.3-10.9,9.3-10.9c1,0,1.7,0.3,2.6,0.9
		L190.4,8.1z M184.4,23.5c1.8-1.8,3.7-6.2,3.7-8.1c0-1.2-0.9-2.1-2.2-2.1c-1.1,0-2.2,0.6-3.2,1.6c-2,2-3.4,5.2-3.4,7.5
		c0,1.7,0.9,2.8,2.3,2.8C182.5,25.1,183.4,24.6,184.4,23.5z"/>
	<path class="st0" d="M203.5,24.1c-0.3,1-0.1,1.3,0.4,1.3c0.6,0,1.5-1,2.6-2.9h0.9c-1.2,2.6-3,4.5-4.5,4.5c-1,0-1.6-0.9-1.6-2.1
		c0-0.7,0.1-1.4,0.6-2.8l-0.1-0.1c-1.8,3.5-3.9,4.9-6,4.9c-1.8,0-3.2-1.5-3.2-3.6c0-5.3,6-11,9.2-11c1.7,0,2.6,0.5,3.3,1.7
		c0.4-0.4,0.7-0.8,1.2-1.6h0.8L203.5,24.1z M199.7,23.7c1.9-1.9,3.8-6,3.8-8.3c0-1.3-0.8-2.2-2.1-2.2c-1.5,0-2.7,1.1-3.2,1.6
		c-2,2-3.5,5.3-3.5,7.4c0,1.6,0.9,2.7,2.4,2.7C197.5,25,198.7,24.7,199.7,23.7z"/>
	<path class="st0" d="M211.5,25.1c0,1-0.8,1.8-1.8,1.8s-1.8-0.8-1.8-1.8s0.8-1.8,1.8-1.8S211.5,24.1,211.5,25.1z M210.8,20.2l3.1-14
		c0.4-1.6,0.6-1.9,1.9-1.9c1.1,0,1.5,0.3,1.5,0.9c0,0.3-0.1,0.6-0.4,1.5l-5.2,13.4h-0.9V20.2z"/>
</g>
</svg>
