<?xml version="1.0" encoding="utf-8"?>
<!-- Generator: Adobe Illustrator 24.0.0, SVG Export Plug-In . SVG Version: 6.00 Build 0)  -->
<svg version="1.1" id="Laag_1" xmlns="http://www.w3.org/2000/svg" xmlns:xlink="http://www.w3.org/1999/xlink" x="0px" y="0px"
	 width="100.4px" height="39.6px" viewBox="0 0 100.4 39.6" style="enable-background:new 0 0 100.4 39.6;" xml:space="preserve">
<style type="text/css">
	.st0{clip-path:url(#SVGID_1_);}
	.st1{fill:#1D1D1B;}
	.st2{fill:#34B080;}
</style>
<g>
	<defs>
		<rect id="SVGID_3_" width="127" height="20.3"/>
	</defs>
	<clipPath id="SVGID_1_">
		<use xlink:href="#SVGID_3_"  style="overflow:visible;"/>
	</clipPath>
	<g class="st0">
		<path class="st1" d="M15.5,15.5V1.4h3.3v14.2H15.5z"/>
		<path class="st1" d="M24.8,15.7c-1.6,0-2.9-0.4-3.9-1.3c-1-0.9-1.5-2.1-1.5-3.7v-0.2C19.5,9,20,7.8,21,6.8c1-0.9,2.3-1.4,3.8-1.4
			c1.4,0,2.6,0.4,3.6,1.3c0.9,0.9,1.4,2.1,1.4,3.8v0.9h-6.9c0,0.7,0.3,1.2,0.6,1.5s0.8,0.5,1.4,0.5c1,0,1.6-0.4,1.7-1.2h3.2
			c-0.2,1.1-0.6,2-1.5,2.6C27.5,15.4,26.3,15.7,24.8,15.7z M22.9,9.5h3.6c-0.1-1.2-0.6-1.8-1.7-1.8c-0.5,0-0.9,0.2-1.3,0.5
			C23.2,8.4,23,8.9,22.9,9.5z"/>
		<path class="st1" d="M35.2,15.7c-1.6,0-2.9-0.4-3.9-1.3c-1-0.9-1.5-2.1-1.5-3.7v-0.2c0-1.5,0.5-2.8,1.5-3.7c1-0.9,2.3-1.4,3.8-1.4
			c1.4,0,2.6,0.4,3.6,1.3c0.9,0.9,1.4,2.1,1.4,3.8v0.9h-6.9c0,0.7,0.3,1.2,0.6,1.5s0.8,0.5,1.4,0.5c1,0,1.6-0.4,1.7-1.2h3.2
			c-0.2,1.1-0.6,2-1.5,2.6C37.8,15.4,36.6,15.7,35.2,15.7z M33.3,9.5h3.6c-0.1-1.2-0.6-1.8-1.7-1.8c-0.5,0-0.9,0.2-1.3,0.5
			C33.5,8.4,33.3,8.9,33.3,9.5z"/>
		<path class="st1" d="M47.9,14.9c-0.8,0.6-1.9,0.8-3.3,0.8s-2.5-0.3-3.3-0.9s-1.2-1.4-1.2-2.5h3.1c0.1,0.4,0.2,0.7,0.4,0.8
			c0.2,0.2,0.5,0.3,1,0.3c0.8,0,1.2-0.3,1.2-0.8c0-0.2-0.1-0.4-0.4-0.5c-0.3-0.1-0.7-0.2-1.4-0.3c-1.3-0.2-2.3-0.5-2.9-1
			c-0.6-0.5-0.9-1.2-0.9-2.2c0-1,0.4-1.8,1.2-2.4c0.8-0.6,1.8-0.8,3-0.8c2.7,0,4.1,1.1,4.3,3.2h-3c-0.1-0.7-0.5-1-1.3-1
			c-0.4,0-0.6,0.1-0.8,0.2c-0.2,0.1-0.3,0.3-0.3,0.6c0,0.2,0.1,0.4,0.4,0.5s0.7,0.2,1.3,0.3c1.4,0.2,2.5,0.5,3.1,0.9
			c0.6,0.5,0.9,1.2,0.9,2.2C49.1,13.5,48.7,14.3,47.9,14.9z"/>
		<path class="st1" d="M52.3,15.5V5.7h3.4v1.5c0.3-0.5,0.7-0.9,1.2-1.3s1.1-0.5,1.9-0.5c1.3,0,2.2,0.5,2.7,1.6
			c0.8-1.1,1.9-1.6,3.3-1.6c1,0,1.7,0.3,2.3,0.9c0.6,0.6,0.9,1.5,0.9,2.7v6.4h-3.4V9.6c0-0.5-0.1-0.9-0.3-1.1s-0.5-0.4-0.9-0.4
			c-0.5,0-0.8,0.1-1.1,0.4c-0.3,0.3-0.4,0.7-0.4,1.2v5.7h-3.3V9.6c0-0.5-0.1-0.9-0.3-1.1c-0.2-0.3-0.5-0.4-0.9-0.4
			c-0.5,0-0.8,0.1-1.1,0.4c-0.3,0.3-0.4,0.7-0.4,1.2v5.7H52.3z"/>
		<path class="st1" d="M73.7,15.7c-1.6,0-2.9-0.4-3.9-1.3s-1.5-2.1-1.5-3.7v-0.2c0-1.5,0.5-2.8,1.5-3.7c1-0.9,2.3-1.4,3.8-1.4
			c1.4,0,2.6,0.4,3.6,1.3c0.9,0.9,1.4,2.1,1.4,3.8v0.9h-6.9c0,0.7,0.3,1.2,0.6,1.5s0.8,0.5,1.4,0.5c1,0,1.6-0.4,1.7-1.2h3.2
			c-0.2,1.1-0.6,2-1.5,2.6C76.3,15.4,75.2,15.7,73.7,15.7z M71.8,9.5h3.6c-0.1-1.2-0.6-1.8-1.7-1.8c-0.5,0-0.9,0.2-1.3,0.5
			C72.1,8.4,71.9,8.9,71.8,9.5z"/>
		<path class="st1" d="M84,15.7c-1.6,0-2.9-0.4-3.9-1.3c-1-0.9-1.5-2.1-1.5-3.7v-0.2c0-1.5,0.5-2.8,1.5-3.7c1-0.9,2.3-1.4,3.8-1.4
			c1.4,0,2.6,0.4,3.6,1.3c0.9,0.9,1.4,2.1,1.4,3.8v0.9h-6.9c0,0.7,0.3,1.2,0.6,1.5s0.8,0.5,1.4,0.5c1,0,1.6-0.4,1.7-1.2H89
			c-0.2,1.1-0.6,2-1.5,2.6C86.7,15.4,85.5,15.7,84,15.7z M82.1,9.5h3.6c-0.1-1.2-0.6-1.8-1.7-1.8c-0.5,0-0.9,0.2-1.3,0.5
			C82.4,8.4,82.2,8.9,82.1,9.5z"/>
		<path class="st1" d="M89.5,15.5V5.7h3.4v2c0.6-1.4,1.7-2.1,3.2-2.1v3.1c-2.1-0.1-3.2,0.7-3.2,2.2v4.7H89.5z"/>
	</g>
</g>
<polygon class="st2" points="0,15.5 9.4,10.6 0,5.6 "/>
</svg>
