<?xml version="1.0" encoding="utf-8"?>
<!-- Generator: Adobe Illustrator 24.0.0, SVG Export Plug-In . SVG Version: 6.00 Build 0)  -->
<svg version="1.1" id="Laag_1" xmlns="http://www.w3.org/2000/svg" xmlns:xlink="http://www.w3.org/1999/xlink" x="0px" y="0px"
	 width="298.4px" height="66.5px" viewBox="0 0 298.4 66.5" style="enable-background:new 0 0 298.4 66.5;" xml:space="preserve">
<style type="text/css">
	.st0{fill:#1D1D1B;}
	.st1{fill:#34B080;}
</style>
<g>
	<path class="st0" d="M1,20.2V1h8.6c2.2,0,3.8,0.4,4.9,1.3C15.5,3.2,16,4.5,16,6v0.1c0,2.2-1.1,3.6-3.2,4.1c2.6,0.4,3.8,1.9,3.8,4.5
		v0.1c0,3.6-2.3,5.3-7,5.3H1z M6.4,8.6h2.1c0.9,0,1.5-0.2,1.8-0.5c0.4-0.3,0.5-0.8,0.5-1.5V6.6c0-0.7-0.2-1.1-0.6-1.4
		c-0.4-0.3-1-0.5-1.8-0.5H6.4V8.6z M6.4,16.5h2.3c1.7,0,2.5-0.7,2.5-2.2v-0.1c0-1.5-0.9-2.2-2.7-2.2H6.4V16.5z"/>
	<path class="st0" d="M24.5,20.5c-2.3,0-4.1-0.6-5.5-1.9c-1.4-1.3-2.1-3-2.1-5.3v-0.2c0-2.2,0.7-4,2.2-5.3s3.3-2,5.4-2
		c2.1,0,3.8,0.6,5.1,1.8c1.3,1.2,2,3,2,5.4v1.3h-9.9c0.1,0.9,0.4,1.6,0.9,2.2c0.5,0.5,1.2,0.8,2.1,0.8c1.4,0,2.2-0.6,2.4-1.7h4.5
		c-0.2,1.6-0.9,2.8-2.1,3.7C28.2,20.1,26.6,20.5,24.5,20.5z M21.7,11.6h5.1c-0.1-1.8-0.9-2.6-2.5-2.6c-0.7,0-1.3,0.2-1.8,0.7
		C22.2,10.1,21.9,10.7,21.7,11.6z"/>
	<path class="st0" d="M36.4,20.5c-1.4,0-2.5-0.3-3.4-1c-0.9-0.7-1.3-1.8-1.3-3.2c0-3.1,2.5-4.6,7.5-4.6h1.3v-0.3
		c0-0.7-0.1-1.3-0.4-1.7s-0.7-0.6-1.5-0.6c-1.1,0-1.8,0.6-1.9,1.7h-4.5c0.1-1.6,0.8-2.9,2-3.8c1.2-0.9,2.8-1.3,4.7-1.3
		c2,0,3.6,0.4,4.7,1.3c1.1,0.9,1.7,2.2,1.7,4v9.1h-4.7v-1.6C39.7,19.9,38.3,20.5,36.4,20.5z M38,17.3c0.7,0,1.3-0.2,1.7-0.5
		c0.4-0.4,0.7-0.8,0.7-1.4v-0.9h-1.3c-1,0-1.7,0.1-2.1,0.3c-0.4,0.2-0.7,0.6-0.7,1.2C36.4,16.8,36.9,17.3,38,17.3z"/>
	<path class="st0" d="M46.6,20.2v-14h4.8v2.8c0.9-2,2.4-3,4.5-3v4.5c-3-0.1-4.5,0.9-4.5,3.1v6.6H46.6z"/>
</g>
<g>
	<path class="st1" d="M60.6,20.2v-14h4.8v2.8c0.9-2,2.4-3,4.5-3v4.5c-3-0.1-4.5,0.9-4.5,3.1v6.6H60.6z"/>
	<path class="st1" d="M77.5,20.5c-2.3,0-4.1-0.6-5.5-1.9c-1.4-1.3-2.1-3-2.1-5.3v-0.2c0-2.2,0.7-4,2.2-5.3s3.3-2,5.4-2
		c2.1,0,3.8,0.6,5.1,1.8c1.3,1.2,2,3,2,5.4v1.3h-9.9c0.1,0.9,0.4,1.6,0.9,2.2c0.5,0.5,1.2,0.8,2.1,0.8c1.4,0,2.2-0.6,2.4-1.7h4.5
		c-0.2,1.6-0.9,2.8-2.1,3.7C81.3,20.1,79.6,20.5,77.5,20.5z M74.8,11.6h5.1c-0.1-1.8-0.9-2.6-2.5-2.6c-0.7,0-1.3,0.2-1.8,0.7
		C75.2,10.1,74.9,10.7,74.8,11.6z"/>
	<path class="st1" d="M90.6,20.5c-1.7,0-3.1-0.6-4.2-1.8c-1.1-1.2-1.7-3-1.7-5.3v-0.2c0-2.3,0.6-4.1,1.7-5.4
		c1.1-1.3,2.5-1.9,4.3-1.9c2,0,3.4,0.8,4.3,2.4V0h4.8v20.2h-4.8v-2.3c-0.4,0.8-0.9,1.4-1.7,1.9S91.6,20.5,90.6,20.5z M92.3,16.8
		c0.9,0,1.6-0.3,2.1-0.9c0.5-0.6,0.7-1.5,0.7-2.7V13c0-1.2-0.2-2.1-0.7-2.7c-0.5-0.6-1.2-0.9-2.1-0.9c-1.8,0-2.8,1.2-2.8,3.6v0.2
		c0,1.2,0.2,2,0.7,2.7S91.4,16.8,92.3,16.8z"/>
	<path class="st1" d="M106.4,20.5c-1.7,0-3.1-0.6-4.2-1.8c-1.1-1.2-1.7-3-1.7-5.3v-0.2c0-2.3,0.6-4.1,1.7-5.4s2.5-1.9,4.3-1.9
		c2,0,3.4,0.8,4.3,2.4V0h4.8v20.2h-4.8v-2.3c-0.4,0.8-0.9,1.4-1.7,1.9S107.5,20.5,106.4,20.5z M108.1,16.8c0.9,0,1.6-0.3,2.1-0.9
		c0.5-0.6,0.7-1.5,0.7-2.7V13c0-1.2-0.2-2.1-0.7-2.7c-0.5-0.6-1.2-0.9-2.1-0.9c-1.8,0-2.8,1.2-2.8,3.6v0.2c0,1.2,0.2,2,0.7,2.7
		C106.6,16.5,107.3,16.8,108.1,16.8z"/>
	<path class="st1" d="M124,20.5c-2.3,0-4.1-0.6-5.5-1.9c-1.4-1.3-2.1-3-2.1-5.3v-0.2c0-2.2,0.7-4,2.2-5.3c1.4-1.3,3.3-2,5.4-2
		c2.1,0,3.8,0.6,5.1,1.8c1.3,1.2,2,3,2,5.4v1.3h-9.9c0.1,0.9,0.4,1.6,0.9,2.2c0.5,0.5,1.2,0.8,2.1,0.8c1.4,0,2.2-0.6,2.4-1.7h4.5
		c-0.2,1.6-0.9,2.8-2.1,3.7C127.8,20.1,126.1,20.5,124,20.5z M121.3,11.6h5.1c-0.1-1.8-0.9-2.6-2.5-2.6c-0.7,0-1.3,0.2-1.8,0.7
		C121.7,10.1,121.4,10.7,121.3,11.6z"/>
</g>
<g>
	<path class="st0" d="M135.7,20.2v-14h4.8v2.1c0.4-0.7,1-1.3,1.7-1.8s1.6-0.7,2.7-0.7c1.9,0,3.1,0.8,3.8,2.3
		c1.1-1.6,2.7-2.3,4.6-2.3c1.4,0,2.5,0.4,3.3,1.3s1.3,2.2,1.3,3.9v9.2h-4.8v-8.4c0-0.7-0.2-1.2-0.5-1.6c-0.3-0.4-0.8-0.5-1.3-0.5
		c-0.7,0-1.2,0.2-1.6,0.6c-0.4,0.4-0.6,1-0.6,1.7v8.1h-4.7v-8.4c0-0.7-0.2-1.2-0.5-1.6s-0.8-0.5-1.3-0.5c-0.7,0-1.2,0.2-1.6,0.6
		c-0.4,0.4-0.6,1-0.6,1.7v8.1H135.7z"/>
	<path class="st0" d="M166.2,20.5c-2.3,0-4.1-0.6-5.5-1.9c-1.4-1.3-2.1-3-2.1-5.3v-0.2c0-2.2,0.7-4,2.2-5.3c1.4-1.3,3.3-2,5.4-2
		c2.1,0,3.8,0.6,5.1,1.8c1.3,1.2,2,3,2,5.4v1.3h-9.9c0.1,0.9,0.4,1.6,0.9,2.2c0.5,0.5,1.2,0.8,2.1,0.8c1.4,0,2.2-0.6,2.4-1.7h4.5
		c-0.2,1.6-0.9,2.8-2.1,3.7C170,20.1,168.3,20.5,166.2,20.5z M163.5,11.6h5.1c-0.1-1.8-0.9-2.6-2.5-2.6c-0.7,0-1.3,0.2-1.8,0.7
		C163.9,10.1,163.6,10.7,163.5,11.6z"/>
	<path class="st0" d="M180.9,20.5c-2.3,0-4.1-0.6-5.5-1.9c-1.4-1.3-2.1-3-2.1-5.3v-0.2c0-2.2,0.7-4,2.2-5.3c1.4-1.3,3.3-2,5.4-2
		c2.1,0,3.8,0.6,5.1,1.8c1.3,1.2,2,3,2,5.4v1.3h-9.9c0.1,0.9,0.4,1.6,0.9,2.2c0.5,0.5,1.2,0.8,2.1,0.8c1.4,0,2.2-0.6,2.4-1.7h4.5
		c-0.2,1.6-0.9,2.8-2.1,3.7C184.7,20.1,183.1,20.5,180.9,20.5z M178.2,11.6h5.1c-0.1-1.8-0.9-2.6-2.5-2.6c-0.7,0-1.3,0.2-1.8,0.7
		C178.7,10.1,178.4,10.7,178.2,11.6z"/>
	<path class="st0" d="M188.8,20.2v-14h4.8v2.8c0.9-2,2.4-3,4.5-3v4.5c-3-0.1-4.5,0.9-4.5,3.1v6.6H188.8z"/>
	<path class="st0" d="M208.1,20.5c-1.7,0-3.1-0.6-4.2-1.8c-1.1-1.2-1.7-3-1.7-5.3v-0.2c0-2.3,0.6-4.1,1.7-5.4s2.5-1.9,4.3-1.9
		c2,0,3.4,0.8,4.3,2.4V0h4.8v20.2h-4.8v-2.3c-0.4,0.8-0.9,1.4-1.7,1.9S209.1,20.5,208.1,20.5z M209.8,16.8c0.9,0,1.6-0.3,2.1-0.9
		c0.5-0.6,0.7-1.5,0.7-2.7V13c0-1.2-0.2-2.1-0.7-2.7c-0.5-0.6-1.2-0.9-2.1-0.9c-1.8,0-2.8,1.2-2.8,3.6v0.2c0,1.2,0.2,2,0.7,2.7
		C208.3,16.5,208.9,16.8,209.8,16.8z"/>
	<path class="st0" d="M222.7,20.5c-1.4,0-2.5-0.3-3.4-1s-1.3-1.8-1.3-3.2c0-3.1,2.5-4.6,7.5-4.6h1.3v-0.3c0-0.7-0.1-1.3-0.4-1.7
		c-0.3-0.4-0.7-0.6-1.5-0.6c-1.1,0-1.8,0.6-1.9,1.7h-4.5c0.1-1.6,0.8-2.9,2-3.8c1.2-0.9,2.8-1.3,4.7-1.3c2,0,3.6,0.4,4.7,1.3
		s1.7,2.2,1.7,4v9.1h-4.7v-1.6C226,19.9,224.7,20.5,222.7,20.5z M224.4,17.3c0.7,0,1.3-0.2,1.7-0.5c0.4-0.4,0.7-0.8,0.7-1.4v-0.9
		h-1.3c-1,0-1.7,0.1-2.1,0.3c-0.4,0.2-0.7,0.6-0.7,1.2C222.7,16.8,223.3,17.3,224.4,17.3z"/>
	<path class="st0" d="M233,20.2v-14h4.8v2.3c0.4-0.8,1-1.4,1.8-1.9c0.8-0.5,1.7-0.7,2.8-0.7c1.4,0,2.5,0.4,3.4,1.3s1.2,2.2,1.2,3.9
		v9.1h-4.8V12c0-1.6-0.7-2.4-2-2.4c-0.7,0-1.3,0.2-1.7,0.7c-0.4,0.4-0.6,1.1-0.6,2v7.9H233z"/>
</g>
<g>
	<path class="st0" d="M3.6,43.2V29.4L0,31.7v-4.6L4.4,24h4.7v19.2H3.6z"/>
	<path class="st0" d="M19.6,43.5c-2.7,0-4.8-0.8-6.4-2.5c-1.6-1.7-2.3-4-2.3-7v-0.8c0-2.9,0.8-5.3,2.5-6.9s3.8-2.5,6.4-2.5
		c2.6,0,4.8,0.8,6.4,2.4c1.6,1.6,2.5,3.9,2.5,6.9v0.8c0,3-0.8,5.4-2.4,7.1C24.5,42.7,22.3,43.5,19.6,43.5z M19.7,39.2
		c1.2,0,2-0.4,2.5-1.3c0.5-0.9,0.8-2.2,0.8-4v-0.8c0-1.8-0.3-3.1-0.8-4c-0.5-0.9-1.4-1.3-2.5-1.3c-2.2,0-3.4,1.8-3.4,5.3V34
		c0,1.8,0.3,3.1,0.8,4C17.7,38.8,18.6,39.2,19.7,39.2z"/>
	<path class="st0" d="M37.9,43.5c-2.7,0-4.8-0.8-6.4-2.5c-1.6-1.7-2.3-4-2.3-7v-0.8c0-2.9,0.8-5.3,2.5-6.9s3.8-2.5,6.4-2.5
		c2.6,0,4.8,0.8,6.4,2.4c1.6,1.6,2.5,3.9,2.5,6.9v0.8c0,3-0.8,5.4-2.4,7.1C42.8,42.7,40.6,43.5,37.9,43.5z M38,39.2
		c1.2,0,2-0.4,2.5-1.3c0.5-0.9,0.8-2.2,0.8-4v-0.8c0-1.8-0.3-3.1-0.8-4c-0.5-0.9-1.4-1.3-2.5-1.3c-2.2,0-3.4,1.8-3.4,5.3V34
		c0,1.8,0.3,3.1,0.8,4C36,38.8,36.8,39.2,38,39.2z"/>
</g>
<g>
	<path class="st1" d="M51.8,43.2V23h4.8v11.7l3.8-5.5h5l-4.6,6.3l5,7.7h-5.4L56.6,37v6.1H51.8z"/>
	<path class="st1" d="M77.7,41.5c-1.4,1.3-3.3,2-5.5,2s-4-0.6-5.5-1.9s-2.2-3-2.2-5.2v-0.2c0-2.2,0.7-4,2.2-5.3c1.5-1.3,3.3-2,5.5-2
		c2.2,0,4,0.7,5.5,2s2.2,3.1,2.2,5.2v0.2C79.9,38.4,79.1,40.2,77.7,41.5z M72.2,39.9c0.9,0,1.6-0.3,2.1-1c0.5-0.6,0.7-1.5,0.7-2.7
		v-0.2c0-2.4-0.9-3.7-2.8-3.7c-0.9,0-1.6,0.3-2.1,0.9c-0.5,0.6-0.7,1.5-0.7,2.7v0.2C69.4,38.7,70.4,39.9,72.2,39.9z"/>
	<path class="st1" d="M84.6,43.5c-1.4,0-2.5-0.3-3.4-1c-0.9-0.7-1.3-1.8-1.3-3.2c0-3.1,2.5-4.6,7.5-4.6h1.3v-0.3
		c0-0.7-0.1-1.3-0.4-1.7c-0.3-0.4-0.7-0.6-1.5-0.6c-1.1,0-1.8,0.6-1.9,1.7h-4.5c0.1-1.6,0.8-2.9,2-3.8c1.2-0.9,2.8-1.3,4.7-1.3
		c2,0,3.6,0.4,4.7,1.3s1.7,2.2,1.7,4v9.1h-4.7v-1.6C87.9,42.9,86.5,43.5,84.6,43.5z M86.2,40.3c0.7,0,1.3-0.2,1.7-0.5
		c0.4-0.4,0.7-0.8,0.7-1.4v-0.9h-1.3c-1,0-1.7,0.1-2.1,0.3c-0.4,0.2-0.7,0.6-0.7,1.2C84.6,39.8,85.1,40.3,86.2,40.3z"/>
	<path class="st1" d="M94.9,43.2V23h4.8v20.2H94.9z"/>
	<path class="st1" d="M105.3,43.5c-1.4,0-2.5-0.3-3.4-1c-0.9-0.7-1.3-1.8-1.3-3.2c0-3.1,2.5-4.6,7.5-4.6h1.3v-0.3
		c0-0.7-0.1-1.3-0.4-1.7c-0.3-0.4-0.7-0.6-1.5-0.6c-1.1,0-1.8,0.6-1.9,1.7h-4.5c0.1-1.6,0.8-2.9,2-3.8c1.2-0.9,2.8-1.3,4.7-1.3
		c2,0,3.6,0.4,4.7,1.3c1.1,0.9,1.7,2.2,1.7,4v9.1h-4.7v-1.6C108.6,42.9,107.2,43.5,105.3,43.5z M107,40.3c0.7,0,1.3-0.2,1.7-0.5
		c0.4-0.4,0.7-0.8,0.7-1.4v-0.9h-1.3c-1,0-1.7,0.1-2.1,0.3c-0.4,0.2-0.7,0.6-0.7,1.2C105.3,39.8,105.9,40.3,107,40.3z"/>
	<path class="st1" d="M117,31.7l-2.7-1l2.1-7l4.2,1.4L117,31.7z"/>
	<path class="st1" d="M129.2,42.3c-1.1,0.8-2.7,1.2-4.7,1.2c-2,0-3.6-0.4-4.7-1.2c-1.1-0.8-1.7-2-1.8-3.6h4.4
		c0.1,0.5,0.3,0.9,0.6,1.2c0.3,0.3,0.8,0.4,1.4,0.4c1.1,0,1.7-0.4,1.7-1.2c0-0.3-0.2-0.6-0.6-0.8s-1.1-0.3-2-0.5
		c-1.9-0.2-3.3-0.7-4.1-1.4c-0.8-0.7-1.2-1.7-1.2-3.1c0-1.5,0.6-2.6,1.7-3.4c1.1-0.8,2.6-1.2,4.3-1.2c3.8,0,5.9,1.5,6.2,4.5h-4.3
		c-0.2-0.9-0.8-1.4-1.8-1.4c-0.5,0-0.9,0.1-1.2,0.3c-0.3,0.2-0.4,0.5-0.4,0.8c0,0.3,0.2,0.6,0.5,0.7s1,0.3,1.8,0.4
		c2,0.2,3.5,0.7,4.4,1.4s1.4,1.7,1.4,3.2C130.9,40.3,130.4,41.5,129.2,42.3z"/>
</g>
<g>
	<path class="st0" d="M139.3,43.2l-5.1-14h5.1l2.9,9l2.9-9h4.6l-5.1,14H139.3z"/>
	<path class="st0" d="M153.4,43.5c-1.4,0-2.5-0.3-3.4-1s-1.3-1.8-1.3-3.2c0-3.1,2.5-4.6,7.5-4.6h1.3v-0.3c0-0.7-0.1-1.3-0.4-1.7
		c-0.3-0.4-0.7-0.6-1.5-0.6c-1.1,0-1.8,0.6-1.9,1.7h-4.5c0.1-1.6,0.8-2.9,2-3.8c1.2-0.9,2.8-1.3,4.7-1.3c2,0,3.6,0.4,4.7,1.3
		s1.7,2.2,1.7,4v9.1h-4.7v-1.6C156.7,42.9,155.3,43.5,153.4,43.5z M155,40.3c0.7,0,1.3-0.2,1.7-0.5c0.4-0.4,0.7-0.8,0.7-1.4v-0.9
		h-1.3c-1,0-1.7,0.1-2.1,0.3c-0.4,0.2-0.7,0.6-0.7,1.2C153.4,39.8,153.9,40.3,155,40.3z"/>
	<path class="st0" d="M163.6,43.2v-14h4.8v2.3c0.4-0.8,1-1.4,1.8-1.9c0.8-0.5,1.7-0.7,2.8-0.7c1.4,0,2.5,0.4,3.4,1.3
		c0.8,0.9,1.2,2.2,1.2,3.9v9.1h-4.8V35c0-1.6-0.7-2.4-2-2.4c-0.7,0-1.3,0.2-1.7,0.7c-0.4,0.4-0.6,1.1-0.6,2v7.9H163.6z"/>
	<path class="st0" d="M188.2,43.5c-1.7,0-3.1-0.6-4.2-1.8s-1.7-3-1.7-5.3v-0.2c0-2.3,0.6-4.1,1.7-5.4c1.1-1.3,2.5-1.9,4.3-1.9
		c2,0,3.4,0.8,4.3,2.4V23h4.8v20.2h-4.8v-2.3c-0.4,0.8-0.9,1.4-1.7,1.9S189.2,43.5,188.2,43.5z M189.8,39.8c0.9,0,1.6-0.3,2.1-0.9
		c0.5-0.6,0.7-1.5,0.7-2.7V36c0-1.2-0.2-2.1-0.7-2.7c-0.5-0.6-1.2-0.9-2.1-0.9c-1.8,0-2.8,1.2-2.8,3.6v0.2c0,1.2,0.2,2,0.7,2.7
		S189,39.8,189.8,39.8z"/>
	<path class="st0" d="M205.7,43.5c-2.3,0-4.1-0.6-5.5-1.9c-1.4-1.3-2.1-3-2.1-5.3v-0.2c0-2.2,0.7-4,2.2-5.3c1.4-1.3,3.3-2,5.4-2
		c2.1,0,3.8,0.6,5.1,1.8c1.3,1.2,2,3,2,5.4v1.3H203c0.1,0.9,0.4,1.6,0.9,2.2c0.5,0.5,1.2,0.8,2.1,0.8c1.4,0,2.2-0.6,2.4-1.7h4.5
		c-0.2,1.6-0.9,2.8-2.1,3.7C209.5,43.1,207.8,43.5,205.7,43.5z M203,34.6h5.1c-0.1-1.8-0.9-2.6-2.5-2.6c-0.7,0-1.3,0.2-1.8,0.7
		S203.1,33.7,203,34.6z"/>
</g>
<g>
	<path class="st0" d="M-0.5,66.2L5.6,47h7.1l6.1,19.2H13l-1-3.6H5.6l-1,3.6H-0.5z M8.8,51.5l-2.1,7.4h4.2L8.8,51.5z"/>
	<path class="st0" d="M23.5,66.5c-1.4,0-2.6-0.4-3.4-1.3c-0.9-0.9-1.3-2.2-1.3-3.9v-9.1h4.8v8.4c0,1.6,0.7,2.4,2,2.4
		c0.8,0,1.3-0.2,1.8-0.7c0.4-0.4,0.6-1.1,0.6-2v-8.1h4.8v14h-4.8V64C27.1,65.7,25.6,66.5,23.5,66.5z"/>
	<path class="st0" d="M44.4,65.3c-1.1,0.8-2.7,1.2-4.7,1.2c-2,0-3.6-0.4-4.7-1.2c-1.1-0.8-1.7-2-1.8-3.6h4.4
		c0.1,0.5,0.3,0.9,0.6,1.2c0.3,0.3,0.8,0.4,1.4,0.4c1.1,0,1.7-0.4,1.7-1.2c0-0.3-0.2-0.6-0.6-0.8c-0.4-0.2-1.1-0.3-2-0.5
		c-1.9-0.2-3.3-0.7-4.1-1.4c-0.8-0.7-1.2-1.7-1.2-3.1c0-1.5,0.6-2.6,1.7-3.4c1.1-0.8,2.6-1.2,4.3-1.2c3.8,0,5.9,1.5,6.2,4.5h-4.3
		c-0.2-0.9-0.8-1.4-1.8-1.4c-0.5,0-0.9,0.1-1.2,0.3C38.1,55.4,38,55.7,38,56c0,0.3,0.2,0.6,0.5,0.7s1,0.3,1.8,0.4
		c2,0.2,3.5,0.7,4.4,1.4s1.4,1.7,1.4,3.2C46.1,63.3,45.6,64.5,44.4,65.3z"/>
	<path class="st0" d="M52.3,66.5c-3.3,0-4.9-1.6-4.9-4.8v-6.2h-1.7v-3.3h1.7v-2.9h4.8v2.9H55v3.3h-2.8v5.8c0,1,0.5,1.5,1.4,1.5
		c0.5,0,0.9-0.1,1.4-0.2v3.6C54,66.4,53.1,66.5,52.3,66.5z"/>
	<path class="st0" d="M55.9,66.2v-14h4.8V55c0.9-2,2.4-3,4.5-3v4.5c-3-0.1-4.5,0.9-4.5,3.1v6.6H55.9z"/>
	<path class="st0" d="M69.7,66.5c-1.4,0-2.5-0.3-3.4-1c-0.9-0.7-1.3-1.8-1.3-3.2c0-3.1,2.5-4.6,7.5-4.6h1.3v-0.3
		c0-0.7-0.1-1.3-0.4-1.7s-0.7-0.6-1.5-0.6c-1.1,0-1.8,0.6-1.9,1.7h-4.5c0.1-1.6,0.8-2.9,2-3.8c1.2-0.9,2.8-1.3,4.7-1.3
		c2,0,3.6,0.4,4.7,1.3c1.1,0.9,1.7,2.2,1.7,4v9.1h-4.7v-1.6C73,65.9,71.6,66.5,69.7,66.5z M71.3,63.3c0.7,0,1.3-0.2,1.7-0.5
		c0.4-0.4,0.7-0.8,0.7-1.4v-0.9h-1.3c-1,0-1.7,0.1-2.1,0.3c-0.4,0.2-0.7,0.6-0.7,1.2C69.7,62.8,70.2,63.3,71.3,63.3z"/>
	<path class="st0" d="M80.1,66.2V46h4.8v20.2H80.1z"/>
	<path class="st0" d="M90.9,50.1c-0.5,0.5-1.1,0.7-1.9,0.7s-1.4-0.2-1.9-0.7s-0.8-1.1-0.8-1.8c0-0.7,0.3-1.3,0.8-1.8
		s1.1-0.7,1.9-0.7s1.4,0.2,1.9,0.7c0.5,0.5,0.8,1.1,0.8,1.8C91.7,49.1,91.4,49.7,90.9,50.1z M86.6,66.2v-14h4.8v14H86.6z"/>
	<path class="st0" d="M103.2,65.3c-1.1,0.8-2.7,1.2-4.7,1.2c-2,0-3.6-0.4-4.7-1.2c-1.1-0.8-1.7-2-1.8-3.6h4.4
		c0.1,0.5,0.3,0.9,0.6,1.2c0.3,0.3,0.8,0.4,1.4,0.4c1.1,0,1.7-0.4,1.7-1.2c0-0.3-0.2-0.6-0.6-0.8s-1.1-0.3-2-0.5
		c-1.9-0.2-3.3-0.7-4.1-1.4c-0.8-0.7-1.2-1.7-1.2-3.1c0-1.5,0.6-2.6,1.7-3.4c1.1-0.8,2.6-1.2,4.3-1.2c3.8,0,5.9,1.5,6.2,4.5h-4.3
		c-0.2-0.9-0.8-1.4-1.8-1.4c-0.5,0-0.9,0.1-1.2,0.3c-0.3,0.2-0.4,0.5-0.4,0.8c0,0.3,0.2,0.6,0.5,0.7s1,0.3,1.8,0.4
		c2,0.2,3.5,0.7,4.4,1.4s1.4,1.7,1.4,3.2C104.9,63.3,104.3,64.5,103.2,65.3z"/>
	<path class="st0" d="M112.3,66.5c-2.2,0-4-0.6-5.3-1.9c-1.4-1.2-2.1-3-2.1-5.3v-0.2c0-2.3,0.7-4.1,2.1-5.4s3.2-2,5.3-2
		c1.2,0,2.3,0.2,3.3,0.5c1,0.3,1.8,1,2.5,1.9c0.7,0.9,1.1,2,1.2,3.4h-4.5c-0.2-1.4-1-2-2.3-2c-0.9,0-1.5,0.3-2,0.9s-0.7,1.5-0.7,2.7
		v0.2c0,2.5,0.9,3.7,2.8,3.7c0.7,0,1.2-0.2,1.7-0.6s0.7-1,0.8-1.7h4.3c-0.1,1.8-0.7,3.2-1.9,4.3C116.2,66,114.5,66.5,112.3,66.5z"/>
	<path class="st0" d="M120,66.2V46h4.8v8.4c0.4-0.8,1-1.4,1.8-1.9c0.8-0.5,1.7-0.7,2.8-0.7c1.4,0,2.5,0.4,3.4,1.3
		c0.8,0.9,1.2,2.2,1.2,3.9v9.1h-4.8V58c0-1.6-0.7-2.4-2-2.4c-0.7,0-1.3,0.2-1.7,0.7c-0.4,0.4-0.6,1.1-0.6,2v7.9H120z"/>
	<path class="st0" d="M142.2,66.5c-2.3,0-4.1-0.6-5.5-1.9c-1.4-1.3-2.1-3-2.1-5.3v-0.2c0-2.2,0.7-4,2.2-5.3c1.4-1.3,3.3-2,5.4-2
		c2.1,0,3.8,0.6,5.1,1.8c1.3,1.2,2,3,2,5.4v1.3h-9.9c0.1,0.9,0.4,1.6,0.9,2.2c0.5,0.5,1.2,0.8,2.1,0.8c1.4,0,2.2-0.6,2.4-1.7h4.5
		c-0.2,1.6-0.9,2.8-2.1,3.7C146,66.1,144.3,66.5,142.2,66.5z M139.5,57.6h5.1c-0.1-1.8-0.9-2.6-2.5-2.6c-0.7,0-1.3,0.2-1.8,0.7
		C139.9,56.1,139.6,56.7,139.5,57.6z"/>
</g>
<g>
	<path class="st1" d="M163,66.5c-1,0-1.9-0.2-2.7-0.7s-1.3-1.1-1.7-1.8v2.2h-4.8V46h4.8v8.3c1-1.6,2.4-2.5,4.4-2.5
		c1.7,0,3.1,0.6,4.2,1.9c1.1,1.3,1.7,3.1,1.7,5.4v0.2c0,2.3-0.6,4.1-1.7,5.4S164.7,66.5,163,66.5z M159.2,61.9
		c0.5,0.6,1.2,0.9,2.1,0.9s1.6-0.3,2.1-0.9c0.5-0.6,0.7-1.5,0.7-2.7v-0.2c0-1.2-0.2-2.1-0.7-2.7c-0.5-0.6-1.2-0.9-2-0.9
		s-1.6,0.3-2.1,0.9c-0.5,0.6-0.7,1.5-0.7,2.7v0.2C158.5,60.4,158.7,61.3,159.2,61.9z"/>
	<path class="st1" d="M182.1,64.5c-1.4,1.3-3.3,2-5.5,2c-2.2,0-4-0.6-5.5-1.9c-1.4-1.3-2.2-3-2.2-5.2v-0.2c0-2.2,0.7-4,2.2-5.3
		c1.5-1.3,3.3-2,5.5-2c2.2,0,4,0.7,5.5,2c1.4,1.3,2.2,3.1,2.2,5.2v0.2C184.3,61.5,183.6,63.2,182.1,64.5z M176.7,62.9
		c0.9,0,1.6-0.3,2.1-1c0.5-0.6,0.7-1.5,0.7-2.7v-0.2c0-2.4-0.9-3.7-2.8-3.7c-0.9,0-1.6,0.3-2.1,0.9c-0.5,0.6-0.7,1.5-0.7,2.7v0.2
		C173.9,61.7,174.8,62.9,176.7,62.9z"/>
	<path class="st1" d="M195.4,65.3c-1.1,0.8-2.7,1.2-4.7,1.2c-2,0-3.6-0.4-4.7-1.2c-1.1-0.8-1.7-2-1.8-3.6h4.4
		c0.1,0.5,0.3,0.9,0.6,1.2c0.3,0.3,0.8,0.4,1.4,0.4c1.1,0,1.7-0.4,1.7-1.2c0-0.3-0.2-0.6-0.6-0.8s-1.1-0.3-2-0.5
		c-1.9-0.2-3.3-0.7-4.1-1.4c-0.8-0.7-1.2-1.7-1.2-3.1c0-1.5,0.6-2.6,1.7-3.4c1.1-0.8,2.6-1.2,4.3-1.2c3.8,0,5.9,1.5,6.2,4.5h-4.3
		c-0.2-0.9-0.8-1.4-1.8-1.4c-0.5,0-0.9,0.1-1.2,0.3c-0.3,0.2-0.4,0.5-0.4,0.8c0,0.3,0.2,0.6,0.5,0.7s1,0.3,1.8,0.4
		c2,0.2,3.5,0.7,4.4,1.4s1.4,1.7,1.4,3.2C197.1,63.3,196.5,64.5,195.4,65.3z"/>
	<path class="st1" d="M206.8,66.5c-1,0-1.9-0.2-2.7-0.7s-1.3-1.1-1.7-1.8v2.2h-4.8V46h4.8v8.3c1-1.6,2.4-2.5,4.4-2.5
		c1.7,0,3.1,0.6,4.2,1.9c1.1,1.3,1.7,3.1,1.7,5.4v0.2c0,2.3-0.6,4.1-1.7,5.4S208.6,66.5,206.8,66.5z M203.1,61.9
		c0.5,0.6,1.2,0.9,2.1,0.9s1.6-0.3,2.1-0.9s0.7-1.5,0.7-2.7v-0.2c0-1.2-0.2-2.1-0.7-2.7c-0.5-0.6-1.2-0.9-2-0.9
		c-0.9,0-1.6,0.3-2.1,0.9c-0.5,0.6-0.7,1.5-0.7,2.7v0.2C202.4,60.4,202.6,61.3,203.1,61.9z"/>
	<path class="st1" d="M213.6,66.2v-14h4.8V55c0.9-2,2.4-3,4.5-3v4.5c-3-0.1-4.5,0.9-4.5,3.1v6.6H213.6z"/>
	<path class="st1" d="M227.5,66.5c-1.4,0-2.5-0.3-3.4-1s-1.3-1.8-1.3-3.2c0-3.1,2.5-4.6,7.5-4.6h1.3v-0.3c0-0.7-0.1-1.3-0.4-1.7
		c-0.3-0.4-0.7-0.6-1.5-0.6c-1.1,0-1.8,0.6-1.9,1.7h-4.5c0.1-1.6,0.8-2.9,2-3.8c1.2-0.9,2.8-1.3,4.7-1.3c2,0,3.6,0.4,4.7,1.3
		s1.7,2.2,1.7,4v9.1h-4.7v-1.6C230.8,65.9,229.4,66.5,227.5,66.5z M229.1,63.3c0.7,0,1.3-0.2,1.7-0.5c0.4-0.4,0.7-0.8,0.7-1.4v-0.9
		h-1.3c-1,0-1.7,0.1-2.1,0.3c-0.4,0.2-0.7,0.6-0.7,1.2C227.5,62.8,228,63.3,229.1,63.3z"/>
	<path class="st1" d="M237.7,66.2v-14h4.8v2.3c0.4-0.8,1-1.4,1.8-1.9c0.8-0.5,1.7-0.7,2.8-0.7c1.4,0,2.5,0.4,3.4,1.3
		c0.8,0.9,1.2,2.2,1.2,3.9v9.1h-4.8V58c0-1.6-0.7-2.4-2-2.4c-0.7,0-1.3,0.2-1.7,0.7c-0.4,0.4-0.6,1.1-0.6,2v7.9H237.7z"/>
	<path class="st1" d="M258.3,66.5c-1.7,0-3.1-0.6-4.2-1.8c-1.1-1.2-1.7-3-1.7-5.3v-0.2c0-2.3,0.6-4.1,1.7-5.4s2.5-1.9,4.3-1.9
		c2,0,3.4,0.8,4.3,2.4V46h4.8v20.2h-4.8v-2.3c-0.4,0.8-0.9,1.4-1.7,1.9S259.3,66.5,258.3,66.5z M260,62.8c0.9,0,1.6-0.3,2.1-0.9
		c0.5-0.6,0.7-1.5,0.7-2.7V59c0-1.2-0.2-2.1-0.7-2.7c-0.5-0.6-1.2-0.9-2.1-0.9c-1.8,0-2.8,1.2-2.8,3.6v0.2c0,1.2,0.2,2,0.7,2.7
		C258.5,62.5,259.2,62.8,260,62.8z"/>
	<path class="st1" d="M275.8,66.5c-2.3,0-4.1-0.6-5.5-1.9c-1.4-1.3-2.1-3-2.1-5.3v-0.2c0-2.2,0.7-4,2.2-5.3c1.4-1.3,3.3-2,5.4-2
		c2.1,0,3.8,0.6,5.1,1.8c1.3,1.2,2,3,2,5.4v1.3h-9.9c0.1,0.9,0.4,1.6,0.9,2.2c0.5,0.5,1.2,0.8,2.1,0.8c1.4,0,2.2-0.6,2.4-1.7h4.5
		c-0.2,1.6-0.9,2.8-2.1,3.7C279.6,66.1,278,66.5,275.8,66.5z M273.1,57.6h5.1c-0.1-1.8-0.9-2.6-2.5-2.6c-0.7,0-1.3,0.2-1.8,0.7
		C273.6,56.1,273.3,56.7,273.1,57.6z"/>
	<path class="st1" d="M283.7,66.2v-14h4.8v2.3c0.4-0.8,1-1.4,1.8-1.9c0.8-0.5,1.7-0.7,2.8-0.7c1.4,0,2.5,0.4,3.4,1.3
		s1.2,2.2,1.2,3.9v9.1h-4.8V58c0-1.6-0.7-2.4-2-2.4c-0.7,0-1.3,0.2-1.7,0.7c-0.4,0.4-0.6,1.1-0.6,2v7.9H283.7z"/>
</g>
</svg>
