<?xml version="1.0" encoding="utf-8"?>
<!-- Generator: Adobe Illustrator 24.3.0, SVG Export Plug-In . SVG Version: 6.00 Build 0)  -->
<svg version="1.1" id="Laag_1" xmlns="http://www.w3.org/2000/svg" xmlns:xlink="http://www.w3.org/1999/xlink" x="0px" y="0px"
	 width="157.3px" height="14px" viewBox="0 0 157.3 14" style="enable-background:new 0 0 157.3 14;" xml:space="preserve">
<g>
	<path d="M0.1,3.1h1.2V0.5h1.3V3h1.6v1H2.6v5.2c0,0.3,0.1,0.5,0.2,0.6S3.1,10,3.4,10c0.1,0,0.2,0,0.4,0c0.1,0,0.2,0,0.3-0.1l0,0V11
		c-0.1,0-0.3,0.1-0.5,0.1s-0.3,0-0.5,0c-0.5,0-0.9-0.1-1.3-0.3c-0.3-0.2-0.5-0.6-0.5-1.2V4.1H0.1V3.1z"/>
	<path d="M9.2,0h1.3L6.1,11.1H4.8L9.2,0z"/>
	<path d="M10.9,3.1h1.3v1.2l0,0c0.2-0.4,0.6-0.7,1-1c0.4-0.2,0.9-0.4,1.4-0.4s0.9,0.1,1.3,0.4c0.4,0.2,0.6,0.6,0.8,1.1l0,0
		c0.3-0.5,0.6-0.8,1-1.1c0.4-0.2,0.9-0.4,1.4-0.4c0.7,0,1.3,0.2,1.8,0.7s0.7,1.1,0.7,1.9v5.6h-1.2V5.5c0-0.5-0.1-0.9-0.4-1.2
		c-0.3-0.3-0.6-0.4-1-0.4c-0.3,0-0.5,0.1-0.7,0.2s-0.4,0.3-0.6,0.5c-0.2,0.2-0.3,0.4-0.4,0.7c-0.1,0.3-0.2,0.6-0.2,0.9v5h-1.3V5.5
		c0-0.5-0.1-0.9-0.4-1.2c-0.3-0.3-0.6-0.4-1-0.4c-0.2,0-0.5,0.1-0.7,0.2S13.2,4.4,13,4.6c-0.3,0.2-0.5,0.4-0.6,0.6
		c-0.1,0.3-0.2,0.6-0.2,0.9v5h-1.3V3.1z"/>
	<path d="M27.8,3.4h-2.4V2.5c0.3,0,0.6,0,0.9-0.1c0.3-0.1,0.6-0.2,0.8-0.3c0.2-0.2,0.4-0.4,0.6-0.6c0.2-0.3,0.3-0.6,0.3-1h1v10.7
		h-1.3V3.4H27.8z"/>
	<path d="M31.2,9.3c0.2-0.5,0.5-1,0.9-1.3c0.4-0.4,0.8-0.7,1.3-1s0.9-0.6,1.4-0.8c0.3-0.2,0.6-0.4,0.9-0.6C36,5.4,36.2,5.2,36.4,5
		s0.3-0.4,0.5-0.7c0.1-0.2,0.2-0.5,0.2-0.8c0-0.7-0.2-1.2-0.6-1.6s-1-0.6-1.7-0.6c-0.4,0-0.7,0.1-1,0.2C33.4,1.6,33.2,1.8,33,2
		c-0.2,0.2-0.4,0.5-0.5,0.8s-0.1,0.8-0.1,1.3H31c0-0.7,0.1-1.3,0.3-1.7C31.4,2,31.7,1.6,32,1.2c0.3-0.3,0.8-0.6,1.2-0.7
		c0.5-0.2,1-0.2,1.5-0.2s1,0.1,1.5,0.2c0.4,0.2,0.8,0.4,1.1,0.7c0.3,0.3,0.5,0.6,0.7,1c0.3,0.4,0.4,0.8,0.4,1.3s-0.1,1-0.2,1.3
		c-0.2,0.4-0.4,0.7-0.7,0.9c-0.3,0.3-0.6,0.5-1,0.7s-0.8,0.5-1.2,0.7c-0.3,0.2-0.6,0.3-0.9,0.5S33.8,8,33.5,8.2S33,8.7,32.8,8.9
		c-0.2,0.3-0.3,0.5-0.4,0.8h5.8v1.2h-7.4C30.8,10.4,30.9,9.8,31.2,9.3z"/>
	<path d="M45.3,11.3c-1.1,0-2-0.2-2.6-0.7s-0.9-1.2-1-2.1H43c0,0.4,0.1,0.6,0.3,0.9c0.1,0.2,0.3,0.4,0.5,0.5s0.4,0.2,0.7,0.3
		c0.3,0.1,0.5,0.1,0.8,0.1c0.7,0,1.1-0.1,1.4-0.4C47,9.6,47.1,9.3,47.1,9c0-0.2,0-0.4-0.1-0.6c-0.1-0.1-0.2-0.3-0.4-0.4
		c-0.2-0.1-0.4-0.2-0.7-0.3c-0.3-0.1-0.6-0.2-1-0.2c-0.4-0.1-0.8-0.2-1.1-0.3c-0.4-0.1-0.7-0.2-1-0.4c-0.3-0.2-0.5-0.4-0.7-0.7
		c-0.2-0.3-0.2-0.6-0.2-1.1c0-0.7,0.2-1.2,0.7-1.6s1.2-0.6,2.2-0.6s1.8,0.2,2.3,0.7c0.5,0.4,0.8,1.1,0.9,1.8h-1.3
		c-0.1-0.5-0.2-0.9-0.5-1.2c-0.3-0.2-0.8-0.4-1.4-0.4s-1,0.1-1.2,0.3c-0.2,0.2-0.4,0.5-0.4,0.8c0,0.2,0,0.4,0.1,0.5s0.2,0.3,0.4,0.3
		c0.2,0.1,0.4,0.2,0.7,0.2S45,5.9,45.3,6c0.4,0.1,0.8,0.2,1.1,0.3c0.4,0.1,0.7,0.2,0.9,0.4c0.3,0.2,0.5,0.4,0.6,0.7
		c0.2,0.3,0.2,0.7,0.2,1.1c0,0.4-0.1,0.8-0.2,1.1c-0.2,0.3-0.4,0.6-0.7,0.8c-0.3,0.2-0.6,0.4-1,0.5C46.2,11.3,45.8,11.3,45.3,11.3z"
		/>
	<path d="M53.3,11.3c-0.6,0-1.2-0.1-1.6-0.3c-0.5-0.2-0.9-0.5-1.2-0.9c-0.3-0.4-0.6-0.8-0.8-1.3c-0.2-0.6-0.3-1.1-0.3-1.7
		s0.1-1.1,0.3-1.6c0.2-0.5,0.4-1,0.8-1.3c0.3-0.4,0.7-0.7,1.2-0.9s1-0.3,1.6-0.3s1.1,0.1,1.6,0.3s0.8,0.5,1.2,0.9
		c0.3,0.4,0.5,0.9,0.7,1.4C57,6.2,57,6.8,57,7.4h-6.2c0,0.4,0.1,0.8,0.2,1.1c0.1,0.4,0.3,0.7,0.5,0.9c0.2,0.3,0.5,0.5,0.8,0.6
		s0.7,0.2,1.1,0.2c0.6,0,1.1-0.1,1.4-0.4c0.4-0.3,0.6-0.7,0.8-1.2h1.2c-0.2,0.9-0.6,1.5-1.2,2C54.9,11.1,54.2,11.3,53.3,11.3z
		 M53.2,3.9c-0.4,0-0.7,0.1-1,0.2s-0.5,0.3-0.7,0.5S51.1,5.1,51,5.4s-0.2,0.7-0.3,1h4.8c0-0.8-0.3-1.4-0.7-1.9
		C54.5,4.1,53.9,3.9,53.2,3.9z"/>
	<path d="M58.1,3.1h1.3v1.1l0,0c0.3-0.4,0.7-0.7,1.1-1C60.9,3,61.4,2.9,62,2.9c0.5,0,1,0.1,1.4,0.3s0.8,0.5,1.1,0.8
		c0.3,0.4,0.5,0.8,0.7,1.3s0.3,1.1,0.3,1.8c0,0.6-0.1,1.2-0.2,1.7c-0.2,0.5-0.4,1-0.7,1.3c-0.3,0.4-0.7,0.7-1.1,0.8
		c-0.4,0.2-0.9,0.3-1.5,0.3c-0.5,0-1-0.1-1.4-0.3s-0.8-0.5-1.1-0.9l0,0v3.5h-1.3V3.1H58.1z M61.8,10.3c0.4,0,0.7-0.1,1-0.2
		c0.3-0.2,0.5-0.4,0.7-0.7s0.3-0.6,0.4-1C64,8,64,7.6,64,7.1c0-0.4,0-0.9-0.1-1.3c-0.1-0.4-0.2-0.7-0.4-1c-0.2-0.3-0.4-0.5-0.7-0.7
		C62.6,4,62.2,4,61.9,4c-0.5,0-0.9,0-1.2,0.2c-0.3,0.2-0.6,0.4-0.8,0.7c-0.2,0.3-0.4,0.6-0.5,1s-0.2,0.8-0.2,1.2
		c0,0.4,0,0.8,0.1,1.2s0.2,0.7,0.4,1c0.2,0.3,0.5,0.5,0.8,0.7C61,10.2,61.4,10.3,61.8,10.3z"/>
	<path d="M65.9,3.1h1.2V0.5h1.3V3H70v1h-1.6v5.2c0,0.3,0.1,0.5,0.2,0.6c0.1,0.1,0.3,0.2,0.6,0.2c0.1,0,0.2,0,0.4,0
		c0.1,0,0.2,0,0.3-0.1l0,0V11c-0.1,0-0.3,0.1-0.5,0.1s-0.3,0-0.5,0c-0.5,0-0.9-0.1-1.3-0.3c-0.3-0.2-0.5-0.6-0.5-1.2V4.1h-1.2V3.1z"
		/>
	<path d="M74.6,11.3c-0.6,0-1.2-0.1-1.6-0.3c-0.5-0.2-0.9-0.5-1.2-0.9S71.2,9.3,71,8.8c-0.2-0.5-0.3-1.1-0.3-1.6
		c0-0.6,0.1-1.1,0.3-1.6c0.2-0.5,0.4-1,0.8-1.3c0.3-0.4,0.7-0.7,1.2-0.9s1-0.3,1.6-0.3c0.6,0,1.1,0.1,1.6,0.3s0.8,0.5,1.2,0.9
		c0.3,0.4,0.5,0.9,0.7,1.4c0.2,0.6,0.2,1.2,0.2,1.8h-6.2c0,0.4,0.1,0.8,0.2,1.1c0.1,0.4,0.3,0.7,0.5,0.9c0.2,0.3,0.5,0.5,0.8,0.6
		s0.7,0.2,1.1,0.2c0.6,0,1.1-0.1,1.4-0.4c0.4-0.3,0.6-0.7,0.8-1.2h1.2c-0.2,0.9-0.6,1.5-1.2,2C76.2,11.1,75.5,11.3,74.6,11.3z
		 M74.5,3.9c-0.4,0-0.7,0.1-1,0.2S73,4.4,72.8,4.6s-0.4,0.5-0.5,0.8c-0.1,0.3-0.2,0.7-0.3,1h4.8c0-0.8-0.3-1.4-0.7-1.9
		C75.8,4.1,75.2,3.9,74.5,3.9z"/>
	<path d="M79.4,3.1h1.3v1.2l0,0c0.2-0.4,0.6-0.7,1-1c0.4-0.3,0.9-0.4,1.4-0.4S84,3,84.4,3.3c0.4,0.2,0.6,0.6,0.8,1.1l0,0
		c0.3-0.5,0.6-0.8,1-1.1c0.4-0.2,0.9-0.4,1.4-0.4c0.7,0,1.3,0.2,1.8,0.7s0.7,1.1,0.7,1.9v5.6h-1.3V5.5c0-0.5-0.1-0.9-0.4-1.2
		c-0.3-0.3-0.6-0.4-1-0.4c-0.3,0-0.5,0.1-0.7,0.2s-0.4,0.3-0.6,0.5S85.8,5,85.7,5.3c-0.3,0.2-0.3,0.5-0.3,0.8v5h-1.3V5.5
		c0-0.5-0.1-0.9-0.4-1.2c-0.3-0.3-0.6-0.4-1-0.4c-0.2,0-0.5,0.1-0.7,0.2s-0.5,0.3-0.7,0.5S80.9,5,80.8,5.3c-0.1,0.3-0.2,0.6-0.2,0.9
		v5h-1.2V3.1z"/>
	<path d="M95.6,11.3c-0.5,0-1-0.1-1.4-0.3s-0.8-0.5-1.1-1l0,0v1.1h-1.3V0h1.3v4.2l0,0c0.3-0.4,0.7-0.7,1.1-1s0.9-0.4,1.5-0.4
		c0.5,0,1,0.1,1.4,0.3s0.8,0.5,1.1,0.8c0.3,0.4,0.5,0.8,0.7,1.3s0.2,1.1,0.2,1.8c0,0.6-0.1,1.2-0.2,1.7c-0.2,0.5-0.4,1-0.7,1.3
		c-0.3,0.4-0.7,0.7-1.1,0.8C96.6,11.2,96.1,11.3,95.6,11.3z M95.5,10.3c0.4,0,0.7-0.1,1-0.2c0.3-0.2,0.5-0.4,0.7-0.7s0.3-0.6,0.4-1
		c0.1-0.4,0.1-0.8,0.1-1.3c0-0.4,0-0.9-0.1-1.3s-0.2-0.7-0.4-1s-0.4-0.5-0.7-0.7c-0.3-0.2-0.6-0.2-1-0.2S94.7,4,94.4,4.1
		c-0.3,0.2-0.6,0.4-0.8,0.7c-0.2,0.3-0.4,0.6-0.5,1S92.9,6.6,92.9,7c0,0.5,0.1,0.9,0.2,1.3c0.1,0.4,0.3,0.7,0.5,1s0.5,0.5,0.8,0.7
		S95.1,10.3,95.5,10.3z"/>
	<path d="M103.7,11.3c-0.6,0-1.2-0.1-1.6-0.3c-0.5-0.2-0.9-0.5-1.2-0.9s-0.6-0.8-0.8-1.3s-0.3-1.1-0.3-1.6c0-0.6,0.1-1.1,0.3-1.6
		s0.4-1,0.8-1.3c0.3-0.4,0.7-0.7,1.2-0.9s1-0.3,1.6-0.3s1.1,0.1,1.6,0.3s0.8,0.5,1.2,0.9c0.3,0.4,0.5,0.9,0.7,1.4
		c0.2,0.6,0.2,1.2,0.2,1.8h-6.2c0,0.4,0.1,0.8,0.2,1.1c0.1,0.4,0.3,0.7,0.5,0.9c0.2,0.3,0.5,0.5,0.8,0.6s0.7,0.2,1.1,0.2
		c0.6,0,1.1-0.1,1.4-0.4c0.4-0.3,0.6-0.7,0.8-1.2h1.2c-0.2,0.9-0.6,1.5-1.2,2C105.4,11.1,104.7,11.3,103.7,11.3z M103.7,3.9
		c-0.4,0-0.7,0.1-1,0.2s-0.5,0.3-0.7,0.5s-0.4,0.5-0.5,0.8s-0.2,0.7-0.3,1h4.8c0-0.8-0.3-1.4-0.7-1.9C105,4.1,104.4,3.9,103.7,3.9z"
		/>
	<path d="M109.9,4.4L109.9,4.4c0.3-0.4,0.6-0.7,1-1s0.9-0.4,1.4-0.4c0.1,0,0.2,0,0.3,0s0.1,0,0.2,0.1v1.2l0,0
		c-0.1,0-0.2-0.1-0.3-0.1s-0.2,0-0.3,0c-0.3,0-0.6,0.1-0.9,0.2c-0.3,0.1-0.5,0.3-0.7,0.5s-0.4,0.5-0.5,0.8s-0.2,0.6-0.2,1v4.5h-1.3
		v-8h1.3V4.4z"/>
	<path d="M116.4,9.3c0.2-0.5,0.6-0.9,0.9-1.3c0.4-0.4,0.8-0.7,1.3-1s0.9-0.6,1.4-0.8c0.4-0.2,0.7-0.4,0.9-0.6
		c0.3-0.2,0.5-0.4,0.7-0.6s0.3-0.4,0.5-0.7c0.1-0.2,0.2-0.5,0.2-0.8c0-0.7-0.2-1.2-0.6-1.6c-0.4-0.4-1-0.6-1.7-0.6
		c-0.4,0-0.7,0.1-1,0.2s-0.5,0.3-0.7,0.5s-0.4,0.5-0.5,0.8s-0.1,0.8-0.1,1.3h-1.4c0-0.7,0.1-1.3,0.3-1.7c0.2-0.5,0.4-0.8,0.8-1.2
		c0.3-0.3,0.8-0.6,1.2-0.7c0.5-0.2,1-0.2,1.5-0.2s1,0.1,1.5,0.2c0.4,0.2,0.8,0.4,1.1,0.7s0.5,0.6,0.7,1s0.2,0.8,0.2,1.3
		s-0.1,1-0.2,1.3c-0.2,0.4-0.4,0.7-0.7,0.9c-0.3,0.3-0.6,0.5-1,0.7s-0.8,0.5-1.2,0.7c-0.3,0.2-0.6,0.3-0.9,0.5
		c-0.3,0.2-0.6,0.4-0.9,0.6c-0.3,0.2-0.5,0.5-0.7,0.7c-0.2,0.3-0.3,0.5-0.4,0.8h5.8v1.2H116C116.1,10.4,116.2,9.8,116.4,9.3z"/>
	<path d="M129,11.3c-0.7,0-1.2-0.1-1.7-0.4c-0.5-0.3-0.9-0.6-1.3-1.1c-0.4-0.5-0.6-1.1-0.8-1.7c-0.2-0.7-0.3-1.5-0.3-2.3
		c0-0.9,0.1-1.6,0.3-2.3s0.5-1.3,0.8-1.8c0.4-0.5,0.8-0.8,1.3-1.1s1.1-0.4,1.7-0.4c0.6,0,1.2,0.1,1.7,0.4s0.9,0.6,1.3,1.1
		c0.4,0.5,0.6,1.1,0.8,1.7c0.2,0.7,0.3,1.5,0.3,2.3S133,7.3,132.8,8s-0.4,1.3-0.8,1.7c-0.4,0.5-0.8,0.9-1.3,1.1
		C130.3,11.2,129.7,11.3,129,11.3z M129,10.2c0.9,0,1.6-0.4,2.1-1.2s0.7-1.9,0.7-3.2c0-0.7-0.1-1.3-0.2-1.8c-0.1-0.5-0.3-1-0.5-1.4
		s-0.5-0.7-0.9-0.9c-0.3-0.2-0.7-0.3-1.2-0.3c-0.9,0-1.6,0.4-2.1,1.2s-0.7,1.9-0.7,3.3c0,0.7,0.1,1.3,0.2,1.8c0.1,0.5,0.3,1,0.5,1.4
		s0.5,0.7,0.9,0.9C128.1,10.1,128.6,10.2,129,10.2z"/>
	<path d="M134.6,9.3c0.2-0.5,0.6-0.9,0.9-1.3c0.4-0.4,0.8-0.7,1.3-1s0.9-0.6,1.4-0.8c0.4-0.2,0.7-0.4,0.9-0.6
		c0.3-0.2,0.5-0.4,0.7-0.6s0.3-0.4,0.5-0.7c0.1-0.2,0.2-0.5,0.2-0.8c0-0.7-0.2-1.2-0.6-1.6c-0.4-0.4-1-0.6-1.7-0.6
		c-0.4,0-0.7,0.1-1,0.2s-0.5,0.3-0.7,0.5s-0.4,0.5-0.5,0.8s-0.1,0.8-0.1,1.3h-1.4c0-0.7,0.1-1.3,0.3-1.7c0.2-0.5,0.4-0.8,0.8-1.2
		c0.3-0.3,0.8-0.6,1.2-0.7c0.5-0.2,1-0.2,1.5-0.2s1,0.1,1.5,0.2c0.4,0.2,0.8,0.4,1.1,0.7s0.5,0.6,0.7,1s0.2,0.8,0.2,1.3
		s-0.1,1-0.2,1.3c-0.2,0.4-0.4,0.7-0.7,0.9c-0.3,0.3-0.6,0.5-1,0.7s-0.8,0.5-1.2,0.7c-0.3,0.2-0.6,0.3-0.9,0.5
		c-0.3,0.2-0.6,0.4-0.9,0.6c-0.3,0.2-0.5,0.5-0.7,0.7c-0.2,0.3-0.3,0.5-0.4,0.8h5.8v1.2h-7.4C134.3,10.4,134.4,9.8,134.6,9.3z"/>
	<path d="M145.2,3.4h-2.3V2.5c0.3,0,0.6,0,0.9-0.1c0.3-0.1,0.6-0.2,0.8-0.3c0.2-0.2,0.4-0.4,0.6-0.6c0.2-0.3,0.3-0.6,0.3-1h1v10.7
		h-1.3V3.4z"/>
</g>
</svg>
