<?xml version="1.0" encoding="utf-8"?>
<!-- Generator: Adobe Illustrator 24.3.0, SVG Export Plug-In . SVG Version: 6.00 Build 0)  -->
<svg version="1.1" id="Laag_1" xmlns="http://www.w3.org/2000/svg" xmlns:xlink="http://www.w3.org/1999/xlink" x="0px" y="0px"
	 width="162.8px" height="23px" viewBox="0 0 162.8 23" style="enable-background:new 0 0 162.8 23;" xml:space="preserve">
<g>
	<path d="M8.9,22.4c-1.3,0-2.5-0.1-3.5-0.4c-1.1-0.3-2-0.7-2.7-1.3c-0.8-0.6-1.3-1.2-1.8-2.1c-0.4-0.8-0.7-1.8-0.7-2.9h4.9
		c0.1,1,0.5,1.7,1.1,2.1s1.5,0.7,2.7,0.7c0.4,0,0.8,0,1.2-0.1s0.7-0.2,1-0.4c0.3-0.2,0.5-0.4,0.7-0.6c0.2-0.3,0.3-0.6,0.3-0.9
		c0-0.4-0.1-0.7-0.3-1S11.3,15,11,14.8c-0.4-0.2-0.8-0.3-1.3-0.5S8.5,14.1,7.8,14c-0.9-0.2-1.7-0.4-2.5-0.7s-1.6-0.6-2.2-1
		s-1.2-1-1.6-1.7C1,9.9,0.8,9.1,0.8,8.1S1,6.2,1.4,5.4c0.4-0.8,1-1.4,1.7-1.9s1.5-0.8,2.4-1.1C6.4,2.2,7.5,2,8.6,2s2,0.1,3,0.4
		C12.5,2.6,13.3,3,14,3.5s1.2,1.1,1.6,1.9C16,6.2,16.2,7,16.3,8.1h-4.7c-0.1-0.8-0.4-1.3-1-1.7C10.1,6,9.3,5.8,8.4,5.8
		S6.9,6,6.4,6.3C5.9,6.6,5.6,7,5.6,7.5c0,0.3,0.1,0.6,0.3,0.9S6.4,8.8,6.7,9c0.4,0.2,0.8,0.3,1.4,0.4C8.7,9.6,9.3,9.7,10,9.9
		c0.9,0.2,1.8,0.5,2.6,0.7c0.8,0.3,1.6,0.6,2.2,1.1c0.6,0.5,1.1,1,1.5,1.7c0.4,0.7,0.6,1.6,0.6,2.6s-0.2,1.9-0.6,2.7
		c-0.4,0.8-1,1.5-1.7,2s-1.6,0.9-2.5,1.2C11.1,22.2,10.1,22.4,8.9,22.4z"/>
	<path d="M23.9,22.1c-0.7,0-1.2-0.1-1.8-0.2c-0.5-0.1-1-0.3-1.4-0.6c-0.4-0.3-0.7-0.7-0.9-1.2c-0.2-0.5-0.3-1.1-0.3-1.9v-7.5h-1.9V8
		h1.9V3.5h4.3V8h2.5v2.8h-2.5v6.5c0,0.5,0.1,0.9,0.4,1.1s0.7,0.3,1.1,0.3c0.2,0,0.4,0,0.6,0s0.3,0,0.4,0v3.2
		C26.1,22,25.8,22,25.4,22C25,22.1,24.5,22.1,23.9,22.1z"/>
	<path d="M32.3,22.3c-0.7,0-1.3-0.1-1.9-0.3c-0.6-0.2-1.1-0.5-1.5-0.8c-0.4-0.4-0.7-0.8-1-1.3c-0.2-0.5-0.4-1.1-0.4-1.8
		c0-0.8,0.1-1.4,0.4-1.9c0.3-0.5,0.7-0.9,1.2-1.3s1.1-0.6,1.7-0.8s1.3-0.3,2.1-0.4c1.3-0.2,2.2-0.3,2.8-0.5c0.5-0.2,0.8-0.5,0.8-1
		s-0.1-0.8-0.4-1.1s-0.8-0.4-1.5-0.4s-1.2,0.2-1.6,0.5c-0.4,0.3-0.6,0.8-0.7,1.3h-4.1c0-0.7,0.2-1.3,0.4-1.9
		c0.3-0.6,0.7-1.1,1.2-1.5s1.2-0.8,2-1c0.8-0.3,1.7-0.4,2.8-0.4s1.9,0.1,2.7,0.3c0.6,0,1.2,0.3,1.7,0.7c0.6,0.4,1,1,1.3,1.7
		s0.4,1.4,0.4,2.3v7c0,0.6,0,1,0.1,1.3s0.2,0.5,0.4,0.7v0.2H37c-0.1-0.1-0.2-0.3-0.3-0.6c-0.1-0.3-0.1-0.6-0.2-0.9h-0.1
		c-0.4,0.6-1,1-1.6,1.4C34.2,22.1,33.4,22.3,32.3,22.3z M33.7,19.4c0.8,0,1.5-0.2,2-0.7s0.8-1.1,0.8-1.8v-1.7
		c-0.3,0.1-0.6,0.3-1,0.4c-0.4,0.1-0.8,0.2-1.3,0.3c-0.9,0.2-1.5,0.4-1.9,0.7c-0.4,0.3-0.6,0.7-0.6,1.2c0,0.6,0.2,1,0.5,1.2
		C32.7,19.3,33.2,19.4,33.7,19.4z"/>
	<path d="M48.4,22.4c-0.9,0-1.7-0.2-2.5-0.5c-0.7-0.3-1.4-0.8-1.9-1.5c-0.5-0.6-1-1.4-1.3-2.3s-0.5-2-0.5-3.1s0.1-2.1,0.5-3
		c0.3-0.9,0.7-1.7,1.3-2.3c0.6-0.7,1.2-1.2,2-1.6c0.7-0.4,1.6-0.5,2.5-0.5c1,0,1.8,0.2,2.4,0.6c0.6,0.4,1.1,0.9,1.5,1.4h0.1V2.4h4.4
		v19.5h-4.3V20h-0.1c-0.4,0.7-1,1.3-1.7,1.7C50.2,22.2,49.4,22.4,48.4,22.4z M49.6,18.8c0.9,0,1.7-0.4,2.2-1.1s0.8-1.7,0.8-2.8
		c0-0.6-0.1-1.1-0.2-1.6c-0.1-0.5-0.3-0.9-0.5-1.3c-0.2-0.4-0.5-0.6-0.9-0.8s-0.8-0.3-1.3-0.3c-0.9,0-1.6,0.4-2.1,1.1
		c-0.5,0.7-0.7,1.7-0.7,2.9s0.2,2.2,0.7,2.9C48,18.5,48.7,18.8,49.6,18.8z"/>
	<path d="M64.9,22.4c-2.1,0-3.7-0.4-4.9-1.3s-1.8-2.1-1.9-3.6h4.2c0.1,0.7,0.4,1.2,0.8,1.6c0.4,0.3,1,0.5,1.8,0.5
		c0.7,0,1.2-0.1,1.6-0.4c0.4-0.2,0.6-0.6,0.6-1c0-0.3-0.1-0.6-0.3-0.8S66.3,17,66,16.9s-0.7-0.2-1.1-0.3c-0.4-0.1-0.9-0.1-1.3-0.2
		c-0.6-0.1-1.2-0.2-1.8-0.4c-0.6-0.2-1.1-0.4-1.6-0.7C59.6,15,59.3,14.5,59,14s-0.4-1.2-0.4-2c0-0.7,0.2-1.4,0.5-1.9
		c0.3-0.6,0.8-1,1.3-1.4s1.2-0.7,1.9-0.8c0.7-0.2,1.5-0.3,2.3-0.3c2,0,3.5,0.4,4.6,1.2s1.6,1.9,1.7,3.3h-4.1
		c-0.1-0.6-0.3-1.1-0.7-1.3c-0.4-0.2-0.9-0.3-1.5-0.3c-0.5,0-1,0.1-1.4,0.3s-0.6,0.5-0.6,1c0,0.3,0.1,0.5,0.3,0.6s0.4,0.3,0.7,0.4
		c0.3,0.1,0.7,0.2,1.1,0.3s0.8,0.1,1.3,0.2c0.6,0.1,1.2,0.2,1.9,0.4c0.6,0.2,1.2,0.4,1.7,0.7s0.9,0.8,1.3,1.3
		c0.3,0.6,0.5,1.3,0.5,2.2c0,0.8-0.2,1.4-0.5,2s-0.8,1.1-1.3,1.4c-0.6,0.4-1.2,0.7-2,0.9C66.7,22.3,65.9,22.4,64.9,22.4z"/>
	<path d="M79.7,22.4c-1.1,0-2.1-0.2-3.1-0.6c-0.9-0.4-1.7-0.9-2.3-1.6c-0.6-0.7-1.1-1.4-1.5-2.3C72.4,17,72.3,16,72.3,15
		c0-1.1,0.2-2,0.5-2.9s0.8-1.7,1.5-2.3c0.6-0.7,1.4-1.2,2.3-1.6s1.9-0.6,3-0.6c0.9,0,1.8,0.1,2.6,0.4c0.8,0.3,1.4,0.6,2,1.1
		s1,1,1.4,1.7c0.3,0.7,0.6,1.4,0.7,2.2H82c-0.1-0.6-0.4-1.1-0.8-1.5s-0.9-0.6-1.5-0.6c-1,0-1.7,0.4-2.2,1.1c-0.5,0.7-0.7,1.7-0.7,3
		c0,1.3,0.2,2.2,0.7,3c0.5,0.7,1.2,1.1,2.2,1.1c1.4,0,2.2-0.8,2.4-2.4h4.3c0,0.8-0.2,1.6-0.5,2.3c-0.3,0.7-0.8,1.3-1.3,1.8
		s-1.3,0.9-2.1,1.2C81.6,22.2,80.7,22.4,79.7,22.4z"/>
	<path d="M94.6,22.4c-1.1,0-2.2-0.2-3.1-0.6s-1.7-0.9-2.4-1.6c-0.7-0.7-1.2-1.4-1.5-2.3C87.3,17,87.1,16,87.1,15
		c0-1.1,0.2-2,0.5-2.9c0.4-0.9,0.9-1.7,1.5-2.3c0.7-0.7,1.4-1.2,2.4-1.6s1.9-0.6,3.1-0.6s2.2,0.2,3.1,0.6c0.9,0.4,1.7,0.9,2.3,1.6
		c0.6,0.7,1.1,1.4,1.5,2.3C101.9,13,102,14,102,15c0,1.1-0.2,2-0.5,2.9c-0.4,0.9-0.9,1.7-1.5,2.3c-0.6,0.7-1.4,1.2-2.3,1.6
		C96.7,22.2,95.7,22.4,94.6,22.4z M94.5,19.2c1,0,1.7-0.4,2.2-1.2c0.5-0.8,0.8-1.8,0.8-3.1s-0.2-2.3-0.8-3.1
		c-0.5-0.8-1.2-1.2-2.2-1.2s-1.7,0.4-2.2,1.2s-0.7,1.8-0.7,3.1s0.2,2.3,0.7,3.1C92.8,18.8,93.6,19.2,94.5,19.2z"/>
	<path d="M110.3,22.4c-1.1,0-2.1-0.2-3.1-0.6c-0.9-0.4-1.7-0.9-2.3-1.6c-0.6-0.7-1.1-1.4-1.5-2.3s-0.5-1.9-0.5-2.9
		c0-1.1,0.2-2,0.5-2.9s0.8-1.7,1.5-2.3c0.6-0.7,1.4-1.2,2.3-1.6c0.9-0.4,1.9-0.6,3-0.6c0.9,0,1.8,0.1,2.6,0.4c0.8,0.3,1.4,0.6,2,1.1
		s1,1,1.4,1.7c0.3,0.7,0.6,1.4,0.7,2.2h-4.3c-0.1-0.6-0.4-1.1-0.8-1.5s-0.9-0.6-1.5-0.6c-1,0-1.7,0.4-2.2,1.1
		c-0.5,0.7-0.7,1.7-0.7,3c0,1.3,0.2,2.2,0.7,3c0.5,0.7,1.2,1.1,2.2,1.1c1.4,0,2.2-0.8,2.4-2.4h4.3c0,0.8-0.2,1.6-0.5,2.3
		c-0.3,0.7-0.8,1.3-1.3,1.8s-1.3,0.9-2.1,1.2C112.2,22.2,111.3,22.4,110.3,22.4z"/>
	<path d="M125.2,22.4c-1.1,0-2.2-0.2-3.1-0.6s-1.7-0.9-2.4-1.6c-0.7-0.7-1.2-1.4-1.5-2.3c-0.4-0.9-0.5-1.9-0.5-2.9
		c0-1.1,0.2-2,0.5-2.9c0.4-0.9,0.9-1.7,1.5-2.3c0.7-0.7,1.4-1.2,2.4-1.6s1.9-0.6,3.1-0.6s2.2,0.2,3.1,0.6c0.9,0.4,1.7,0.9,2.3,1.6
		c0.6,0.7,1.1,1.4,1.5,2.3c0.4,0.9,0.5,1.9,0.5,2.9c0,1.1-0.2,2-0.5,2.9c-0.4,0.9-0.9,1.7-1.5,2.3c-0.6,0.7-1.4,1.2-2.3,1.6
		C127.4,22.2,126.3,22.4,125.2,22.4z M125.2,19.2c1,0,1.7-0.4,2.2-1.2c0.5-0.8,0.8-1.8,0.8-3.1s-0.2-2.3-0.8-3.1
		c-0.5-0.8-1.2-1.2-2.2-1.2s-1.7,0.4-2.2,1.2s-0.7,1.8-0.7,3.1s0.2,2.3,0.7,3.1C123.5,18.8,124.2,19.2,125.2,19.2z"/>
	<path d="M134.2,8h4.3v1.9h0.1c0.5-0.8,1.1-1.3,1.8-1.7c0.7-0.4,1.5-0.6,2.5-0.6c0.8,0,1.4,0.1,2,0.4s1.1,0.6,1.5,1.1s0.7,1,1,1.7
		c0.2,0.6,0.3,1.4,0.3,2.1V22h-4.4v-8.2c0-0.7-0.2-1.3-0.5-1.8c-0.4-0.5-0.9-0.7-1.6-0.7c-0.7,0-1.3,0.3-1.8,0.8
		c-0.4,0.5-0.7,1.3-0.7,2.1v7.7h-4.4V8H134.2z"/>
	<path d="M155.5,0.2h3.7v4.2l3.6-2.1l1.8,3.2L161,7.6l3.6,2.1l-1.8,3.2l-3.6-2.1V15h-3.7v-4.2l-3.6,2.1L150,9.7l3.6-2.1L150,5.5
		l1.8-3.2l3.6,2.1L155.5,0.2L155.5,0.2z"/>
</g>
</svg>
