<?xml version="1.0" encoding="utf-8"?>
<!-- Generator: Adobe Illustrator 24.3.0, SVG Export Plug-In . SVG Version: 6.00 Build 0)  -->
<svg version="1.1" id="Laag_1" xmlns="http://www.w3.org/2000/svg" xmlns:xlink="http://www.w3.org/1999/xlink" x="0px" y="0px"
	 width="400.4px" height="29.1px" viewBox="0 0 400.4 29.1" style="enable-background:new 0 0 400.4 29.1;" xml:space="preserve">
<style type="text/css">
	.st0{fill:#FFFFFF;}
</style>
<g>
	<path class="st0" d="M7.8,11.8v11.4H3.2v-21l12.9,11.9V2.8h4.6v20.9L7.8,11.8z"/>
	<path class="st0" d="M36,23.5c-6,0-8.4-3.7-8.4-8.2V3.1h4.6v11.8c0,3.1,1.1,4.5,3.8,4.5c2.7,0,3.6-1.4,3.6-4.5V3.1h4.6v12.2
		C44.2,19.6,42,23.5,36,23.5z"/>
	<path class="st0" d="M63.5,6.5v16.7h-4.6V6.5h-4.2V2.8h13.1v3.7H63.5z"/>
	<path class="st0" d="M72.5,23.2V2.8h11.9v3.7H77v4.4h6.5v3.7H77v4.7h8v3.9H72.5z"/>
	<path class="st0" d="M101.5,19.3h9.8v3.8H93.7l10.7-16.7h-9.2V2.8h16.7L101.5,19.3z"/>
	<path class="st0" d="M116.2,23.2V2.8h4.6v20.4H116.2z"/>
	<path class="st0" d="M126.9,23.2V2.8h11.9v3.7h-7.3v4.4h6.5v3.7h-6.5v4.7h8v3.9H126.9z"/>
	<path class="st0" d="M149.8,11.8v11.4h-4.6v-21l12.9,11.9V2.8h4.6v20.9L149.8,11.8z"/>
	<path class="st0" d="M175.9,23.2V2.8h4.6v20.4H175.9z"/>
	<path class="st0" d="M191.2,11.8v11.4h-4.6v-21l12.9,11.9V2.8h4.6v20.9L191.2,11.8z"/>
	<path class="st0" d="M224.1,23.2h-6.9V2.8h5.6c7.1,0,11.5,3,11.5,10.6C234.3,18.1,231.2,23.2,224.1,23.2z M222.8,6.5h-1v12.8h1.6
		c4,0,6.4-2.4,6.4-6.3C229.8,9.1,227.7,6.5,222.8,6.5z"/>
	<path class="st0" d="M248,23.6c-6.3,0-10.7-4.6-10.7-10.5c0-6,4.4-10.5,10.7-10.5c6.4,0,10.7,4.5,10.7,10.5
		C258.7,19,254.5,23.6,248,23.6z M248,6.6c-3.8,0-6.2,2.9-6.2,6.5c0,3.6,2.4,6.6,6.2,6.6c3.9,0,6.2-3,6.2-6.6
		C254.1,9.5,251.9,6.6,248,6.6z"/>
	<path class="st0" d="M274,23.2l-6.3-9.6v9.6h-4.6V2.8h6.8c4.3,0,7.5,2,7.5,6.1c0,3.4-2.1,5.1-4.2,5.6l6.5,8.8H274z M269.8,6.5h-2.1
		v5.2h2.1c2.4,0,3.1-1.5,3.1-2.8C272.9,7.6,272.1,6.5,269.8,6.5z"/>
	<path class="st0" d="M290.8,23.2h-6.9V2.8h5.6c7.1,0,11.5,3,11.5,10.6C301,18.1,297.9,23.2,290.8,23.2z M289.5,6.5h-1v12.8h1.6
		c4,0,6.4-2.4,6.4-6.3C296.4,9.1,294.3,6.5,289.5,6.5z"/>
	<path class="st0" d="M316.4,23.2l-6.3-9.6v9.6h-4.6V2.8h6.8c4.3,0,7.5,2,7.5,6.1c0,3.4-2.1,5.1-4.2,5.6l6.5,8.8H316.4z M312.2,6.5
		h-2.1v5.2h2.1c2.4,0,3.1-1.5,3.1-2.8C315.3,7.6,314.5,6.5,312.2,6.5z"/>
	<path class="st0" d="M326.3,23.2V2.8h11.9v3.7h-7.3v4.4h6.5v3.7h-6.5v4.7h8v3.9H326.3z"/>
	<path class="st0" d="M352.2,23.6c-6.2,0-10.5-4.3-10.5-10.6c0-6,4.6-10.4,10.5-10.4c2.9,0,5.9,0.7,7.8,3.2l-2.9,2.9
		c-0.8-1.2-2.6-2.1-4.9-2.1c-3.2,0-6,2.5-6,6.4c0,3.7,2.3,6.6,6.2,6.6c1.1,0,3.7-0.2,5.2-3l3.1,2.3
		C358.4,22.7,354.9,23.6,352.2,23.6z"/>
	<path class="st0" d="M377.3,23.2v-8.6h-7.2v8.6h-4.6V2.8h4.6v8.1h7.2V2.8h4.6v20.4H377.3z"/>
	<path class="st0" d="M395.4,6.5v16.7h-4.6V6.5h-4.2V2.8h13.1v3.7H395.4z"/>
</g>
</svg>
