<?xml version="1.0" encoding="utf-8"?>
<!-- Generator: Adobe Illustrator 24.3.0, SVG Export Plug-In . SVG Version: 6.00 Build 0)  -->
<svg version="1.1" id="Laag_1" xmlns="http://www.w3.org/2000/svg" xmlns:xlink="http://www.w3.org/1999/xlink" x="0px" y="0px"
	 width="250px" height="62.4px" viewBox="0 0 250 62.4" style="enable-background:new 0 0 250 62.4;" xml:space="preserve">
<style type="text/css">
	.st0{fill:#1D1D1B;}
	.st1{fill:#E30613;}
</style>
<g>
	<g>
		<path class="st0" d="M35,18.1c-3.6-2.6-6.3-3.8-9.3-3.8c-7.1,0-12.7,5.8-12.7,13.5v32.7H0V1.9h13v8.4L16,7c3.8-3.9,8-5.8,12.8-5.8
			c4.1,0,7.3,0.9,12.7,4.6L35,18.1z"/>
	</g>
	<g>
		<path class="st1" d="M81,62.1c-19.8,0-32-12.5-32-30.8c0-18.3,11.9-31,32-31c19.2,0,31.8,12,31.8,31
			C112.8,49.7,100.4,62.1,81,62.1z M81,11c-10.9,0-18.8,7.9-18.8,20.2c0,12.3,7.9,20.2,18.9,20.2c10.7,0,18.6-8,18.6-20.2
			C99.7,18.9,91.8,11,81,11z"/>
		<path class="st1" d="M159.7,62.1c-19.8,0-32-12.5-32-30.8c0-18.3,11.9-31,32-31c19.2,0,31.8,12,31.8,31
			C191.6,49.7,179.2,62.1,159.7,62.1z M159.7,11c-10.9,0-18.8,7.9-18.8,20.2c0,12.3,7.9,20.2,18.9,20.2c10.7,0,18.6-8,18.6-20.2
			C178.4,18.9,170.5,11,159.7,11z"/>
	</g>
	<g>
		<path class="st0" d="M227.3,62.4c-7,0-15.2-2.1-22.1-6l4.6-10.9c5.1,3.3,12.3,6.1,17.4,6.1c4.4,0,9.9-0.8,9.9-6.1
			c0-5.4-5.4-7.6-9.8-9.2l-6-2.1c-5.8-1.8-14.4-5.8-14.4-17.2C207,6.8,216.2,0,228,0c7.6,0,15.3,1.5,21.1,5.8l-6.1,9.3
			c-3.4-2.6-8.9-4.3-14.5-4.3c-5.8,0-8.7,2.4-8.7,5.5c0,4.8,3.3,5.9,8.3,7.8l6,2.3c7.5,2.9,16,7.3,16,18.2
			C250,56.5,241,62.4,227.3,62.4z"/>
	</g>
</g>
</svg>
