<?xml version="1.0" encoding="utf-8"?>
<!-- Generator: Adobe Illustrator 23.0.2, SVG Export Plug-In . SVG Version: 6.00 Build 0)  -->
<svg version="1.1" id="Laag_1" xmlns="http://www.w3.org/2000/svg" xmlns:xlink="http://www.w3.org/1999/xlink" x="0px" y="0px"
	 width="85.3px" height="18px" viewBox="0 0 85.3 18" style="enable-background:new 0 0 85.3 18;" xml:space="preserve">
<style type="text/css">
	.st0{fill:#1D1D1B;}
	.st1{fill:#FFFFFF;}
</style>
<rect x="13.5" y="16" class="st0" width="57.7" height="0.4"/>
<g>
	<path class="st1" d="M5.7,5c0,0.5,0,0.7-0.1,1C5.5,6.5,4.8,7.2,3.5,7.2c-0.9,0-1.8-0.3-2-1.2C1.4,5.7,1.4,5.5,1.4,4.9V1.7h1V5
		c0,0.3,0,0.4,0.1,0.6c0.1,0.3,0.4,0.6,1.1,0.6c0.1,0,0.9,0,1.1-0.6C4.7,5.5,4.7,5.3,4.7,5V1.7h1V5z"/>
	<path class="st1" d="M6.3,3.3h0.6V1.9h0.9v1.4h0.8v0.6H7.8v1.9c0,0.1,0,0.3,0.1,0.4C8,6.3,8.2,6.3,8.2,6.3c0.1,0,0.3,0,0.4,0v0.8
		c-0.1,0-0.3,0.1-0.7,0.1c-0.8,0-1.1-0.3-1.1-0.9V3.9H6.3V3.3z"/>
	<path class="st1" d="M10,3.3v0.5c0.3-0.6,1-0.6,1.1-0.6h0.1v0.9c-0.2,0-0.9,0-1.1,0.7C10,5.1,10,5.2,10,5.5v1.6H9.1V3.3H10z"/>
	<path class="st1" d="M12.5,5.4c0,0.2,0.2,0.9,1.1,0.9c0.6,0,0.9-0.4,1-0.5l0.8,0.4c-0.3,0.4-0.9,1-1.9,1c-1.1,0-2-0.8-2-2
		c0-1.4,0.9-2,1.9-2c1.5,0,1.9,1.2,1.9,2.2H12.5z M14.3,4.7c0-0.2-0.1-0.8-0.9-0.8c-0.8,0-0.9,0.6-0.9,0.8H14.3z"/>
	<path class="st1" d="M19.3,6c-0.3,0.8-1,1.2-1.7,1.2c-1.1,0-1.9-0.9-1.9-2c0-1,0.7-2,1.9-2c1,0,1.5,0.7,1.6,1.1l-0.8,0.4
		C18.4,4.3,18.1,4,17.6,4c-0.6,0-0.9,0.5-0.9,1.2c0,0.7,0.3,1.2,1,1.2c0.6,0,0.9-0.6,0.9-0.7L19.3,6z"/>
	<path class="st1" d="M22.5,7.1V4.9c0-0.6-0.3-0.8-0.7-0.8c-0.5,0-1,0.4-1,0.9v2.1h-0.9V1.7h0.9v2C21,3.4,21.5,3.2,22,3.2
		c0.8,0,1.4,0.5,1.4,1.3v2.6H22.5z"/>
	<path class="st1" d="M23.8,3.3h0.6V1.9h0.9v1.4h0.8v0.6h-0.8v1.9c0,0.1,0,0.3,0.1,0.4c0.1,0.1,0.3,0.1,0.3,0.1c0.1,0,0.3,0,0.4,0
		v0.8c-0.1,0-0.3,0.1-0.7,0.1c-0.8,0-1.1-0.3-1.1-0.9V3.9h-0.6V3.3z"/>
	<path class="st1" d="M27.7,7.2c0,0.6-0.4,0.8-1,0.9V7.7c0.4,0,0.4-0.3,0.4-0.6h-0.5v-1h1V7.2z"/>
	<path class="st1" d="M29.7,3.3h0.6V1.9h0.9v1.4H32v0.6h-0.8v1.9c0,0.1,0,0.3,0.1,0.4c0.1,0.1,0.3,0.1,0.3,0.1c0.1,0,0.3,0,0.4,0
		v0.8c-0.1,0-0.3,0.1-0.7,0.1c-0.8,0-1.1-0.3-1.1-0.9V3.9h-0.6V3.3z"/>
	<path class="st1" d="M35.1,7.1V4.9c0-0.6-0.3-0.8-0.7-0.8c-0.5,0-1,0.4-1,0.9v2.1h-0.9V1.7h0.9v2c0.2-0.2,0.6-0.5,1.2-0.5
		c0.8,0,1.4,0.5,1.4,1.3v2.6H35.1z"/>
	<path class="st1" d="M37.7,5.4c0,0.2,0.2,0.9,1.1,0.9c0.6,0,0.9-0.4,1-0.5l0.8,0.4c-0.3,0.4-0.9,1-1.9,1c-1.1,0-2-0.8-2-2
		c0-1.4,0.9-2,1.9-2c1.5,0,1.9,1.2,1.9,2.2H37.7z M39.5,4.7c0-0.2-0.1-0.8-0.9-0.8c-0.8,0-0.9,0.6-0.9,0.8H39.5z"/>
	<path class="st1" d="M46.3,7.1l-2.4-3.8c0,0,0.1,3.7,0.1,3.8h-1V1.7h0.9l2.4,3.8c0,0-0.1-3.7-0.1-3.8h1v5.4H46.3z"/>
	<path class="st1" d="M49,5.4c0,0.2,0.2,0.9,1.1,0.9c0.6,0,0.9-0.4,1-0.5l0.8,0.4c-0.3,0.4-0.9,1-1.9,1c-1.1,0-2-0.8-2-2
		c0-1.4,0.9-2,1.9-2c1.5,0,1.9,1.2,1.9,2.2H49z M50.8,4.7c0-0.2-0.1-0.8-0.9-0.8c-0.8,0-0.9,0.6-0.9,0.8H50.8z"/>
	<path class="st1" d="M52,3.3h0.6V1.9h0.9v1.4h0.8v0.6h-0.8v1.9c0,0.1,0,0.3,0.1,0.4c0.1,0.1,0.3,0.1,0.3,0.1c0.1,0,0.3,0,0.4,0v0.8
		c-0.1,0-0.3,0.1-0.7,0.1c-0.8,0-1.1-0.3-1.1-0.9V3.9H52V3.3z"/>
	<path class="st1" d="M57.4,7.1V4.9c0-0.6-0.3-0.8-0.7-0.8c-0.5,0-1,0.4-1,0.9v2.1h-0.9V1.7h0.9v2c0.2-0.2,0.6-0.5,1.2-0.5
		c0.8,0,1.4,0.5,1.4,1.3v2.6H57.4z"/>
	<path class="st1" d="M60,5.4c0,0.2,0.2,0.9,1.1,0.9c0.6,0,0.9-0.4,1-0.5l0.8,0.4c-0.3,0.4-0.9,1-1.9,1c-1.1,0-2-0.8-2-2
		c0-1.4,0.9-2,1.9-2c1.5,0,1.9,1.2,1.9,2.2H60z M61.8,4.7c0-0.2-0.1-0.8-0.9-0.8c-0.8,0-0.9,0.6-0.9,0.8H61.8z"/>
	<path class="st1" d="M64.3,3.3v0.5c0.3-0.6,1-0.6,1.1-0.6h0.1v0.9c-0.2,0-0.9,0-1.1,0.7c-0.1,0.2-0.1,0.4-0.1,0.6v1.6h-0.9V3.3
		H64.3z"/>
	<path class="st1" d="M66,7.1V1.7H67v5.4H66z"/>
	<path class="st1" d="M70.2,7.1l0-0.3C69.9,7,69.5,7.2,69,7.2c-0.9,0-1.4-0.5-1.4-1.2c0-0.8,0.6-1.2,1.4-1.3
		c0.6-0.1,0.9-0.2,1.2-0.3c0-0.3-0.1-0.6-0.7-0.6c-0.7,0-0.8,0.4-0.8,0.6l-0.9-0.1c0-0.3,0.1-1.2,1.7-1.2c1.1,0,1.6,0.4,1.6,1.1v2.2
		c0,0.3,0,0.4,0.2,0.6H70.2z M70.2,5.2c-0.2,0.1-0.4,0.2-0.7,0.2c-0.4,0.1-0.8,0.1-0.8,0.5c0,0.3,0.2,0.5,0.6,0.5
		c0.4,0,0.9-0.2,0.9-0.7V5.2z"/>
	<path class="st1" d="M72.9,3.3v0.4c0.3-0.5,1-0.6,1.2-0.6c0.8,0,1.2,0.5,1.2,1.3v2.7h-0.9V5c0-0.4-0.1-0.9-0.7-0.9
		c-0.1,0-0.3,0-0.5,0.2c-0.3,0.2-0.4,0.5-0.4,1.2v1.7h-0.9V3.3H72.9z"/>
	<path class="st1" d="M78.7,7.1V6.7c-0.1,0.1-0.4,0.5-1.1,0.5c-0.8,0-1.7-0.6-1.7-1.9c0-1.4,0.8-2.1,1.7-2.1c0.3,0,0.8,0.1,1,0.4
		V1.7h0.9v5.4H78.7z M77.8,6.4c0.5,0,0.9-0.4,0.9-1.1c0-0.6-0.2-1.2-0.9-1.2c-0.6,0-0.9,0.5-0.9,1.2C76.9,5.7,77.1,6.4,77.8,6.4z"/>
	<path class="st1" d="M83,4.5c-0.2-0.4-0.6-0.6-1-0.6c-0.2,0-0.6,0.1-0.6,0.4c0,0.3,0.2,0.3,0.8,0.4l0.6,0.1c0.6,0.1,1,0.4,1,1.1
		c0,0.7-0.7,1.3-1.7,1.3c-1.1,0-1.6-0.5-1.8-0.7L80.9,6c0.2,0.2,0.5,0.5,1.1,0.5c0.5,0,0.7-0.3,0.7-0.4c0-0.2-0.2-0.3-0.6-0.4
		l-0.5-0.1c-0.3-0.1-1.3-0.2-1.3-1.1c0-0.8,0.7-1.2,1.6-1.2c0.3,0,1.1,0,1.6,0.7L83,4.5z"/>
</g>
<g>
	<path class="st0" d="M14,14.6V9.2h0.9v5.4H14z"/>
	<path class="st0" d="M16.6,12.9c0,0.2,0.2,0.9,1.1,0.9c0.6,0,0.9-0.4,1-0.5l0.8,0.4c-0.3,0.4-0.9,1-1.9,1c-1.1,0-2-0.8-2-2
		c0-1.4,0.9-2,1.9-2c1.5,0,1.9,1.2,1.9,2.2H16.6z M18.4,12.2c0-0.2-0.1-0.8-0.9-0.8c-0.8,0-0.9,0.6-0.9,0.8H18.4z"/>
	<path class="st0" d="M23.5,14.4c0,1.1-0.8,1.5-1.8,1.5c-1.4,0-1.6-0.7-1.7-1.2h1c0.1,0.4,0.5,0.5,0.8,0.5c0.5,0,0.9-0.2,0.9-0.8V14
		c-0.4,0.4-1,0.4-1.2,0.4c-0.8,0-1.6-0.5-1.6-1.8c0-1.3,0.9-1.9,1.7-1.9c0.5,0,0.9,0.2,1.1,0.5v-0.4h0.9V14.4z M21.7,11.5
		c-0.5,0-0.9,0.3-0.9,1.1c0,0.6,0.3,1,0.9,1c0.6,0,0.9-0.4,0.9-1C22.7,12,22.3,11.5,21.7,11.5z"/>
	<path class="st0" d="M27,14.6v-0.4c-0.2,0.2-0.6,0.5-1.2,0.5c-0.6,0-0.9-0.3-1.1-0.5c-0.2-0.3-0.2-0.7-0.2-1v-2.4h0.9V13
		c0,0.4,0.1,0.8,0.7,0.8c0.4,0,0.7-0.3,0.7-0.4c0.1-0.3,0.1-0.6,0.1-0.9v-1.7h0.9v3.8H27z"/>
	<path class="st0" d="M29.6,12.9c0,0.2,0.2,0.9,1.1,0.9c0.6,0,0.9-0.4,1-0.5l0.8,0.4c-0.3,0.4-0.9,1-1.9,1c-1.1,0-2-0.8-2-2
		c0-1.4,0.9-2,1.9-2c1.5,0,1.9,1.2,1.9,2.2H29.6z M31.4,12.2c0-0.2-0.1-0.8-0.9-0.8c-0.8,0-0.9,0.6-0.9,0.8H31.4z"/>
	<path class="st0" d="M35.5,12c-0.2-0.4-0.6-0.6-1-0.6c-0.2,0-0.6,0.1-0.6,0.4c0,0.3,0.2,0.3,0.8,0.4l0.6,0.1c0.6,0.1,1,0.4,1,1.1
		c0,0.7-0.7,1.3-1.7,1.3S33,14.3,32.7,14l0.7-0.6c0.2,0.2,0.5,0.5,1.1,0.5c0.5,0,0.7-0.3,0.7-0.4c0-0.2-0.2-0.3-0.6-0.4l-0.5-0.1
		c-0.3-0.1-1.3-0.2-1.3-1.1c0-0.8,0.7-1.2,1.6-1.2c0.3,0,1.1,0,1.6,0.7L35.5,12z"/>
	<path class="st0" d="M39.4,12c-0.2-0.4-0.6-0.6-1-0.6c-0.2,0-0.6,0.1-0.6,0.4c0,0.3,0.2,0.3,0.8,0.4l0.6,0.1c0.6,0.1,1,0.4,1,1.1
		c0,0.7-0.7,1.3-1.7,1.3s-1.6-0.5-1.8-0.7l0.7-0.6c0.2,0.2,0.5,0.5,1.1,0.5c0.5,0,0.7-0.3,0.7-0.4c0-0.2-0.2-0.3-0.6-0.4l-0.5-0.1
		c-0.3-0.1-1.3-0.2-1.3-1.1c0-0.8,0.7-1.2,1.6-1.2c0.3,0,1.1,0,1.6,0.7L39.4,12z"/>
	<path class="st0" d="M44.8,14.6h-0.9l-0.7-2.4l-0.7,2.4h-0.9l-1.1-3.8h1l0.7,2.6l0.7-2.6h0.8l0.7,2.6l0.7-2.6h1L44.8,14.6z"/>
	<path class="st0" d="M49,14.6v-2.2c0-0.6-0.3-0.8-0.7-0.8c-0.5,0-1,0.4-1,0.9v2.1h-0.9V9.2h0.9v2c0.2-0.2,0.6-0.5,1.2-0.5
		c0.8,0,1.4,0.5,1.4,1.3v2.6H49z"/>
	<path class="st0" d="M52.6,14.7c-1.4,0-2-1.1-2-2c0-0.9,0.6-2,2-2c0.8,0,2,0.6,2,2C54.5,13.7,53.9,14.7,52.6,14.7z M52.6,13.9
		c0.7,0,1-0.6,1-1.2c0-0.6-0.3-1.2-1-1.2c-0.5,0-1,0.4-1,1.2C51.5,13.3,51.9,13.9,52.6,13.9z"/>
	<path class="st0" d="M55,14.6v-1h1v1H55z"/>
	<path class="st0" d="M60.1,13.5c-0.3,0.8-1,1.2-1.7,1.2c-1.1,0-1.9-0.9-1.9-2c0-1,0.7-2,1.9-2c1,0,1.5,0.7,1.6,1.1l-0.8,0.4
		c-0.1-0.3-0.4-0.6-0.9-0.6c-0.6,0-0.9,0.5-0.9,1.2c0,0.7,0.3,1.2,1,1.2c0.6,0,0.9-0.6,0.9-0.7L60.1,13.5z"/>
	<path class="st0" d="M62.5,14.7c-1.4,0-2-1.1-2-2c0-0.9,0.6-2,2-2c0.8,0,2,0.6,2,2C64.4,13.7,63.8,14.7,62.5,14.7z M62.5,13.9
		c0.7,0,1-0.6,1-1.2c0-0.6-0.3-1.2-1-1.2c-0.5,0-1,0.4-1,1.2C61.4,13.3,61.8,13.9,62.5,13.9z"/>
	<path class="st0" d="M66,10.8v0.4c0.2-0.2,0.6-0.5,1.2-0.5c0.4,0,0.8,0.2,1.1,0.6c0.2-0.3,0.6-0.6,1.2-0.6c0.8,0,1.3,0.4,1.3,1.3
		v2.6h-0.9v-2.3c0-0.1,0-0.7-0.6-0.7c-0.1,0-0.5,0.1-0.7,0.4c-0.2,0.3-0.2,0.6-0.2,0.9v1.8h-0.9v-2.3c0-0.3-0.1-0.7-0.6-0.7
		c-0.1,0-0.3,0-0.5,0.2C66,12.1,66,12.6,66,13v1.6h-0.9v-3.8H66z"/>
</g>
</svg>
