<?xml version="1.0" encoding="utf-8"?>
<!-- Generator: Adobe Illustrator 23.0.2, SVG Export Plug-In . SVG Version: 6.00 Build 0)  -->
<svg version="1.1" id="Laag_1" xmlns="http://www.w3.org/2000/svg" xmlns:xlink="http://www.w3.org/1999/xlink" x="0px" y="0px"
	 width="45.3px" height="59.4px" viewBox="0 0 45.3 59.4" style="enable-background:new 0 0 45.3 59.4;" xml:space="preserve">
<style type="text/css">
	.st0{fill:#1D1D1B;}
</style>
<g>
	<path class="st0" d="M18,1.9c-1.2,0.1-1.8,0.4-1.8,1.8v13.4h-1.2L5.8,4.7v10.1c0,1.3,0.8,1.7,2.3,1.8v0.5H2.9v-0.6
		c1.2-0.1,1.8-0.4,1.8-1.8V3.7c0-1.4-0.6-1.8-2.1-1.8V1.4h3.6l8.9,12.2V3.7c0-1.4-0.8-1.8-2.3-1.8V1.4H18V1.9z"/>
	<path class="st0" d="M18.1,11.5c0-3.9,2.6-6.5,5.6-6.5c3.3,0,5.5,2.6,5.5,6.1c0,3.9-2.6,6.5-5.7,6.5C20.2,17.5,18.1,15,18.1,11.5z
		 M27.1,11.8c0-2.5-1-5.9-3.7-5.9c-1.9,0-3.2,1.9-3.2,4.7c0,2.5,1,5.9,3.7,5.9C25.8,16.6,27.1,14.6,27.1,11.8z"/>
	<path class="st0" d="M41.5,5.8c-0.8,0.2-1.2,0.4-1.5,1l-4.5,10.6H35L30.4,6.8c-0.2-0.5-0.5-0.8-1.5-1V5.3h5.4v0.5
		c-1.6,0.2-1.9,0.5-1.5,1.5l3.1,7.2l3-7.2c0.4-1,0-1.3-1.6-1.5V5.3h4.1V5.8z"/>
	<path class="st0" d="M39.9,15.9c0-0.9,0.7-1.5,1.6-1.5c0.9,0,1.6,0.7,1.6,1.5c0,0.9-0.7,1.6-1.6,1.6C40.6,17.5,39.9,16.8,39.9,15.9
		z"/>
</g>
<g>
	<path class="st0" d="M14.9,22.3c-2.5,3.8-6.2,8.6-6.2,15.3H6.4c0-6.1,3.9-10.4,6.6-13.7H6.8c-1.2,0-1.9,0.4-2.1,1.9H4.1l0.1-4h10.7
		V22.3z"/>
	<path class="st0" d="M21.1,31.3h-7.9v-0.9h7.9V31.3z"/>
	<path class="st0" d="M28.7,37v0.5h-7V37c1.5-0.1,2.5-0.5,2.5-2V23.5h-2.5V23c1.7-0.3,3.2-0.9,4.2-1.5h0.5V35
		C26.4,36.6,27.2,36.9,28.7,37z"/>
	<path class="st0" d="M41.5,29.7c0,4.5-2.1,8.2-6.1,8.2c-4,0-6.2-3.7-6.2-8.2s2.1-8.2,6.2-8.2C39.4,21.4,41.5,25.1,41.5,29.7z
		 M31.6,28.4c0,3.3,1,8.5,4.2,8.5c2.1,0,3.5-2.3,3.5-6c0-3.3-1.1-8.5-4.2-8.5C32.9,22.4,31.6,24.7,31.6,28.4z"/>
</g>
<g>
	<path class="st0" d="M11,46.3c0,3.5-3.9,5.9-8,9.8h5.2c1.9,0,2.2-0.3,3-2.6h0.5L11.4,58H1v-1l3.3-3.3c3-3,4.3-5,4.3-6.9
		c0-2-1.2-3.2-3.2-3.2c-1.9,0-3,0.9-3.6,2.2l-0.5-0.2c0.5-1.8,2.2-3.7,5-3.7C9.2,41.8,11,43.6,11,46.3z"/>
	<path class="st0" d="M24.7,50.1c0,4.5-2.1,8.2-6.1,8.2c-4,0-6.2-3.7-6.2-8.2s2.1-8.2,6.2-8.2C22.5,41.8,24.7,45.5,24.7,50.1z
		 M14.7,48.8c0,3.3,1,8.5,4.2,8.5c2.1,0,3.5-2.3,3.5-6c0-3.3-1.1-8.5-4.2-8.5C16,42.8,14.7,45.1,14.7,48.8z"/>
	<path class="st0" d="M32.2,57.4V58h-7v-0.5c1.5-0.1,2.5-0.5,2.5-2V43.9h-2.5v-0.5c1.7-0.3,3.2-0.9,4.2-1.5H30v13.6
		C30,56.9,30.8,57.3,32.2,57.4z"/>
	<path class="st0" d="M44.3,49.9c0,6.1-3.4,8.4-6.5,8.4c-2,0-3.8-1-4.7-2.4l1.9-1.3c0.3,1.6,1.5,2.7,3,2.7c2,0,3.9-1.9,3.9-7.1v-0.4
		c-0.7,0.9-2.3,2.4-4.4,2.4c-2.7,0-4.7-2.1-4.7-5c0-3.1,2.3-5.4,5.4-5.4C42.2,41.8,44.3,45.2,44.3,49.9z M42,49.2
		c-0.2-3.5-1.3-6.4-3.9-6.4c-1.9,0-3,1.5-3,3.9c0,2.5,1.2,4,3.5,4C40,50.7,41.1,50.2,42,49.2z"/>
</g>
</svg>
