<?xml version="1.0" encoding="utf-8"?>
<!-- Generator: Adobe Illustrator 23.0.2, SVG Export Plug-In . SVG Version: 6.00 Build 0)  -->
<svg version="1.1" id="Laag_1" xmlns="http://www.w3.org/2000/svg" xmlns:xlink="http://www.w3.org/1999/xlink" x="0px" y="0px"
	 width="84.4px" height="83.2px" viewBox="0 0 84.4 83.2" style="enable-background:new 0 0 84.4 83.2;" xml:space="preserve">
<style type="text/css">
	.st0{fill:#FFFFFF;}
</style>
<g>
	<path class="st0" d="M42.7,24.1H26v-0.8c2.1-0.1,3-0.7,3-2.5V5.4c0-1.9-0.9-2.4-3-2.5V2.1h9v0.8c-2.1,0.1-3,0.6-3,2.5V21
		c0,1.7,1.5,1.9,3.4,1.9H38c2.5,0,3.2-1.1,4.3-3.9H43L42.7,24.1z"/>
	<path class="st0" d="M58.1,15H46.7c0.1,4.4,2.4,7.2,5.7,7.2c2.3,0,3.9-1.4,5-2.8l0.6,0.3c-0.9,2.7-3.3,4.9-6.7,4.9
		c-4.6,0-7.4-3.9-7.4-8.3c0-5.8,3.3-9.2,7.9-9.2C56,7.1,58.1,10.7,58.1,15z M46.7,13.8h8.3c-0.2-3.1-1.2-5.4-3.8-5.4
		C48.4,8.3,47,10.6,46.7,13.8z"/>
</g>
<g>
	<path class="st0" d="M24.2,41.7c-2.1,0.1-3,0.9-3,2.5v4.7c-1.6,1.9-5,3.6-9,3.6c-6.2,0-10.5-4.7-10.5-11c0-6.9,4.3-12,10.9-12
		c4.7,0,8.1,2,8.9,4.7l-3.1,1.7c-0.8-2.9-3.3-5-6.2-5c-4.5,0-7.1,3.6-7.1,9.8c0,5.6,3.4,10.1,8.2,10.1c1.6,0,3.6-0.3,4.9-1.1v-5.4
		c0-1.8-0.8-2.4-3.2-2.5v-0.8h9.2V41.7z"/>
	<path class="st0" d="M41.8,50.3v0.8l-4.6,1.4h-0.6v-3.7c-1.8,2.6-3.6,3.7-5.5,3.7c-2.7,0-4.9-1.8-4.9-5.5v-7.9c0-1.3-0.4-2-2-2.1
		l-0.4,0v-0.7l4.6-1.3h0.6v11.6c0,2.5,1.3,3.6,3.2,3.6c1.5,0,2.7-0.7,4.4-2.5v-8.7c0-1.3-0.4-2-2-2.1l-0.3,0v-0.7l4.6-1.3h0.6v13.3
		c0,1.4,0.4,2.1,1.9,2.1H41.8z"/>
	<path class="st0" d="M56,42.9H44.6c0.1,4.4,2.4,7.2,5.7,7.2c2.3,0,3.9-1.4,5-2.8l0.6,0.3c-0.9,2.7-3.3,4.9-6.7,4.9
		c-4.6,0-7.4-3.9-7.4-8.3c0-5.8,3.3-9.2,7.9-9.2C53.9,35,56,38.6,56,42.9z M44.6,41.7h8.3c-0.2-3.1-1.2-5.4-3.8-5.4
		C46.3,36.3,44.9,38.5,44.6,41.7z"/>
	<path class="st0" d="M69.4,37.6l-2.5,2.1c-0.7-2.2-2-3.5-3.9-3.5c-1.9,0-3.3,1-3.3,2.6c0,4.2,9.7,2.4,9.7,8.6
		c0,2.8-2.3,5.1-6.1,5.1c-2.8,0-5.4-1.4-6.6-3.2l2.7-1.9c0.8,2.5,2.4,4,4.2,4c2,0,3.4-1.3,3.4-3c-0.1-4.5-9.6-3.1-9.6-8.6
		c0-2.9,2.2-4.8,5.8-4.8C67,35,68.8,36.6,69.4,37.6z"/>
	<path class="st0" d="M82.6,37.6l-2.5,2.1c-0.7-2.2-2-3.5-3.9-3.5c-1.9,0-3.3,1-3.3,2.6c0,4.2,9.7,2.4,9.7,8.6
		c0,2.8-2.3,5.1-6.1,5.1c-2.8,0-5.4-1.4-6.6-3.2l2.7-1.9c0.8,2.5,2.4,4,4.2,4c2,0,3.4-1.3,3.4-3c-0.1-4.5-9.6-3.1-9.6-8.6
		c0-2.9,2.2-4.8,5.8-4.8C80.3,35,82,36.6,82.6,37.6z"/>
</g>
<g>
	<path class="st0" d="M35,57.9v0.8c-1.4,0.2-2.2,0.5-2.6,1.8l-6.8,19.8H24l-5.5-16l-5.5,16h-1.5l-6.8-20c-0.4-1.2-1-1.5-2.5-1.7
		v-0.8h8.9v0.8c-3,0.2-3.2,1.1-2.6,3l4.7,14.7l4.7-13.9l-0.7-2c-0.4-1.2-1-1.5-2.4-1.7v-0.8h8.8v0.8c-3,0.2-3.2,1.1-2.6,3l4.7,14.7
		l4.9-14.7c0.7-2.1,0.4-2.8-2.8-3v-0.8H35z"/>
	<path class="st0" d="M54,79.2v0.8h-7.5v-0.8c1.3-0.2,2.2-0.6,2.2-2v-8.4c0-2.5-1.3-3.6-3.2-3.6c-1.5,0-2.7,0.6-4.4,2.5v9.6
		c0,1.4,1,1.7,2.3,2v0.8H36v-0.8c1.4-0.2,2.3-0.6,2.3-2V60.5c0-1.2-0.5-1.7-1.8-1.8L36,58.6v-0.7l4.6-1.3h0.6v10.1
		c1.8-2.6,3.6-3.7,5.5-3.7c2.7,0,4.9,1.8,4.9,5.5v8.8C51.7,78.6,52.7,79,54,79.2z"/>
	<path class="st0" d="M54.1,72c0-5.5,3.6-9.1,7.9-9.1c4.7,0,7.7,3.6,7.7,8.4c0,5.4-3.6,9-7.9,9C57.1,80.4,54.1,76.9,54.1,72z
		 M66.6,72.5c0-3.4-1.4-8.2-5.1-8.2c-2.7,0-4.4,2.7-4.4,6.6c0,3.4,1.4,8.3,5.1,8.3C64.9,79.1,66.6,76.3,66.6,72.5z"/>
	<path class="st0" d="M78.4,62.3c0-2.1-1.4-3.5-3.3-3.5c-1.9,0-3.4,1.7-3.8,4.4l-2.9-1.5c0.7-2.2,3.3-4.3,6.7-4.3
		c3.6,0,6.1,2.1,6.1,5.3c0,5.4-6.1,6-5.9,10.6h-1.2C74,67.9,78.4,66.8,78.4,62.3z M72.7,78.2c0-1.2,1-2.1,2.1-2.1
		c1.3,0,2.2,1,2.2,2.1c0,1.3-1,2.2-2.2,2.2C73.6,80.4,72.7,79.5,72.7,78.2z"/>
</g>
</svg>
