<?xml version="1.0" encoding="utf-8"?>
<!-- Generator: Adobe Illustrator 23.0.2, SVG Export Plug-In . SVG Version: 6.00 Build 0)  -->
<svg version="1.1" id="Laag_1" xmlns="http://www.w3.org/2000/svg" xmlns:xlink="http://www.w3.org/1999/xlink" x="0px" y="0px"
	 width="78px" height="160.1px" viewBox="0 0 78 160.1" style="enable-background:new 0 0 78 160.1;" xml:space="preserve">
<style type="text/css">
	.st0{fill:#1D1D1B;}
</style>
<g>
	<path class="st0" d="M19,4.5c0-1.9,1.2-3.2,3-3.4v0.5c-0.9,0.2-1.9,1-1.9,2.1C21.1,3.3,22,4,22,4.8c0,0.8-0.6,1.4-1.4,1.4
		C19.7,6.2,19,5.5,19,4.5z M22.8,4.5c0-1.9,1.2-3.2,3-3.4v0.5c-0.9,0.2-1.9,1-1.9,2.1C25,3.3,25.8,4,25.8,4.8c0,0.8-0.6,1.4-1.4,1.4
		C23.5,6.2,22.8,5.5,22.8,4.5z"/>
	<path class="st0" d="M38.9,6.2h-0.5c-0.5-1.8-0.9-2.4-2.5-2.4h-2.2v11c0,1.1,0.5,1.5,1.8,1.5v0.5H30v-0.5c1.3-0.1,1.8-0.4,1.8-1.5
		v-11h-2.2c-1.6,0-2,0.7-2.5,2.4h-0.5L26.8,3h11.8L38.9,6.2z"/>
	<path class="st0" d="M50.3,16.3v0.5h-4.6v-0.5c0.8-0.1,1.4-0.4,1.4-1.2V9.8c0-1.6-0.8-2.2-2-2.2c-0.9,0-1.7,0.4-2.7,1.5v6
		c0,0.9,0.6,1.1,1.4,1.2v0.5h-4.7v-0.5c0.8-0.1,1.5-0.4,1.5-1.2V4.7c0-0.7-0.3-1.1-1.1-1.2l-0.4,0V3l2.9-0.8h0.4v6.3
		c1.2-1.6,2.2-2.3,3.5-2.3c1.7,0,3.1,1.1,3.1,3.4v5.5C48.9,15.9,49.5,16.1,50.3,16.3z"/>
	<path class="st0" d="M59.3,11.1h-7.1c0.1,2.8,1.5,4.5,3.6,4.5c1.4,0,2.4-0.8,3.1-1.7l0.4,0.2c-0.5,1.7-2.1,3.1-4.2,3.1
		c-2.8,0-4.6-2.4-4.6-5.2c0-3.6,2.1-5.7,4.9-5.7C58,6.2,59.3,8.4,59.3,11.1z M52.2,10.3h5.2c-0.1-2-0.8-3.4-2.4-3.4
		C53.3,6.9,52.4,8.3,52.2,10.3z"/>
</g>
<g>
	<path class="st0" d="M35.4,34v0.5h-4.6V34c0.8-0.1,1.4-0.3,1.4-1.2v-5.3c0-1.6-0.8-2.2-2-2.2c-0.9,0-1.7,0.4-2.7,1.6
		c0,0.1,0,0.3,0,0.5v5.5c0,0.9,0.6,1.1,1.5,1.2v0.5h-4.6V34c0.8-0.1,1.4-0.3,1.4-1.2v-5.3c0-1.6-0.8-2.2-2-2.2
		c-0.9,0-1.7,0.4-2.7,1.5v6c0,0.9,0.6,1.1,1.4,1.2v0.5h-4.7V34c0.8-0.1,1.5-0.3,1.5-1.2v-6.3c0-0.8-0.3-1.2-1.2-1.3l-0.2,0v-0.4
		l2.9-0.8h0.4v2.3c1.2-1.6,2.2-2.3,3.5-2.3c1.4,0,2.6,0.8,3,2.5c1.2-1.7,2.3-2.5,3.5-2.5c1.7,0,3.1,1.1,3.1,3.4v5.5
		C34,33.7,34.6,33.9,35.4,34z"/>
	<path class="st0" d="M35.8,29.5c0-3.4,2.2-5.7,4.9-5.7c2.9,0,4.8,2.2,4.8,5.3c0,3.4-2.2,5.6-4.9,5.6C37.6,34.8,35.8,32.6,35.8,29.5
		z M43.6,29.8c0-2.1-0.9-5.1-3.2-5.1c-1.7,0-2.8,1.7-2.8,4.1c0,2.1,0.9,5.2,3.2,5.2C42.5,33.9,43.6,32.2,43.6,29.8z"/>
	<path class="st0" d="M53.9,25.5l-1.6,1.3c-0.5-1.4-1.3-2.2-2.4-2.2c-1.2,0-2.1,0.6-2.1,1.6c0,2.6,6,1.5,6.1,5.4
		c0,1.7-1.5,3.2-3.8,3.2c-1.8,0-3.4-0.8-4.1-2l1.7-1.2c0.5,1.6,1.5,2.5,2.6,2.5c1.3,0,2.1-0.8,2.1-1.9c0-2.8-6-1.9-6-5.3
		c0-1.8,1.4-3,3.6-3C52.4,23.9,53.5,24.9,53.9,25.5z"/>
	<path class="st0" d="M61,33.5c-0.6,0.5-1.4,1.3-2.6,1.3c-1.7,0-2.6-1-2.6-3v-6.8h-1.7v-0.7h1.7v-2.1l1.8-0.8v2.9h3.2v0.7h-3.2v6.9
		c0,1.4,0.7,1.9,1.7,1.9c0.6,0,1-0.2,1.5-0.5L61,33.5z"/>
</g>
<g>
	<path class="st0" d="M17.8,51.2v0.5l-2.9,0.9h-0.4v-1.9c-0.6,0.9-1.7,1.9-3.2,1.9c-2.6,0-4.2-2.3-4.2-5.1c0-3.7,2.4-5.8,5.1-5.8
		c1.1,0,1.9,0.4,2.4,0.8v-2.2c0-0.9-0.3-1.3-1.2-1.3l-0.2,0v-0.4l2.8-0.8h0.4v12.2c0,0.9,0.3,1.3,1.2,1.3H17.8z M14.5,45.6
		c0-1.5-0.9-3.2-2.7-3.2c-1.6,0-2.8,1.7-2.8,4.3c0,2.2,0.9,4.6,3,4.6c1.1,0,2.1-0.6,2.6-1.2V45.6z"/>
	<path class="st0" d="M23,51.7v0.5h-4.7v-0.5c0.8-0.1,1.5-0.3,1.5-1.2v-6.3c0-0.8-0.3-1.2-1.2-1.3l-0.2,0v-0.4l2.9-0.8h0.4v8.9
		C21.6,51.4,22.2,51.6,23,51.7z M19.4,38.8c0-0.7,0.5-1.3,1.3-1.3c0.7,0,1.3,0.5,1.3,1.3c0,0.7-0.5,1.3-1.3,1.3
		C19.9,40,19.4,39.5,19.4,38.8z"/>
	<path class="st0" d="M33.6,42.3c-0.7,0.1-1,0.4-1.3,0.9l-3.9,9.3H28l-4-9.3c-0.2-0.5-0.5-0.7-1.3-0.9v-0.5h4.7v0.5
		c-1.4,0.2-1.6,0.5-1.3,1.3l2.7,6.3l2.6-6.3c0.4-0.9,0-1.1-1.4-1.3v-0.5h3.6V42.3z"/>
	<path class="st0" d="M42.2,46.5h-7.1c0.1,2.8,1.5,4.5,3.6,4.5c1.4,0,2.4-0.8,3.1-1.7l0.4,0.2c-0.5,1.7-2.1,3.1-4.2,3.1
		c-2.8,0-4.6-2.4-4.6-5.2c0-3.6,2.1-5.7,4.9-5.7C40.9,41.6,42.2,43.8,42.2,46.5z M35.1,45.8h5.2c-0.1-2-0.8-3.4-2.4-3.4
		C36.1,42.4,35.3,43.7,35.1,45.8z"/>
	<path class="st0" d="M50.1,41.7l-0.2,1.9c-0.4-0.2-0.9-0.4-1.4-0.4c-1,0-2,0.8-2.5,2.1v5.1c0,0.8,0.5,1.1,2,1.3v0.5h-5.3v-0.5
		c1.1-0.2,1.5-0.5,1.5-1.3v-6.3c0-0.8-0.3-1.2-1.2-1.3l-0.2,0v-0.4l2.9-0.8H46v3c0.7-2.1,1.8-3,2.9-3.1
		C49.4,41.5,49.8,41.6,50.1,41.7z"/>
	<path class="st0" d="M58.1,43.2l-1.6,1.3c-0.5-1.4-1.3-2.2-2.4-2.2c-1.2,0-2.1,0.6-2.1,1.6c0,2.6,6,1.5,6.1,5.4
		c0,1.7-1.5,3.2-3.8,3.2c-1.8,0-3.4-0.8-4.1-2l1.7-1.2c0.5,1.6,1.5,2.5,2.6,2.5c1.3,0,2.1-0.8,2.1-1.9c0-2.8-6-1.9-6-5.3
		c0-1.8,1.4-3,3.6-3C56.6,41.6,57.6,42.6,58.1,43.2z"/>
	<path class="st0" d="M67.7,46.5h-7.1c0.1,2.8,1.5,4.5,3.6,4.5c1.4,0,2.4-0.8,3.1-1.7l0.4,0.2c-0.5,1.7-2.1,3.1-4.2,3.1
		c-2.8,0-4.6-2.4-4.6-5.2c0-3.6,2.1-5.7,4.9-5.7C66.4,41.6,67.7,43.8,67.7,46.5z M60.7,45.8h5.2c-0.1-2-0.8-3.4-2.4-3.4
		C61.7,42.4,60.9,43.7,60.7,45.8z"/>
	<path class="st0" d="M71.4,51.6c0,1.9-1.2,3.2-3,3.4v-0.5c0.9-0.2,1.9-1,1.9-2.1c-1.1,0.4-1.9-0.3-1.9-1.2c0-0.8,0.6-1.4,1.4-1.4
		C70.7,49.8,71.4,50.5,71.4,51.6z"/>
</g>
<g>
	<path class="st0" d="M18.1,65c0-3.4,2.2-5.7,4.9-5.7c2.9,0,4.8,2.2,4.8,5.3c0,3.4-2.2,5.6-4.9,5.6C20,70.2,18.1,68,18.1,65z
		 M25.9,65.3c0-2.1-0.9-5.1-3.2-5.1c-1.7,0-2.8,1.7-2.8,4.1c0,2.1,0.9,5.2,3.2,5.2C24.8,69.4,25.9,67.7,25.9,65.3z"/>
	<path class="st0" d="M38.9,64.4c0,3.7-2.4,5.8-5.1,5.8c-1.1,0-1.8-0.3-2.3-0.8v2.9c0,0.9,0.7,1.1,1.5,1.2V74h-4.8v-0.5
		c0.8-0.1,1.5-0.4,1.5-1.2V61.9c0-0.9-0.3-1.2-1.2-1.3l-0.2,0v-0.4l2.9-0.8h0.4v1.8c0.6-0.8,1.7-1.8,3.2-1.8
		C37.2,59.3,38.9,61.6,38.9,64.4z M37,65.2c0-2.2-0.9-4.6-3-4.6c-1,0-2,0.5-2.6,1v4.6c0,1.5,0.9,3.2,2.7,3.2
		C35.8,69.5,37,67.7,37,65.2z"/>
	<path class="st0" d="M48.6,64.2h-7.1c0.1,2.8,1.5,4.5,3.6,4.5c1.4,0,2.4-0.8,3.1-1.7l0.4,0.2c-0.5,1.7-2.1,3.1-4.2,3.1
		c-2.8,0-4.6-2.4-4.6-5.2c0-3.6,2.1-5.7,4.9-5.7C47.3,59.3,48.6,61.6,48.6,64.2z M41.5,63.5h5.2c-0.1-2-0.8-3.4-2.4-3.4
		C42.6,60.1,41.7,61.5,41.5,63.5z"/>
	<path class="st0" d="M60.4,69.5v0.5h-4.6v-0.5c0.8-0.1,1.4-0.4,1.4-1.2V63c0-1.6-0.8-2.2-2-2.2c-0.9,0-1.7,0.4-2.7,1.5v6
		c0,0.9,0.6,1.1,1.4,1.2v0.5h-4.7v-0.5c0.8-0.1,1.5-0.4,1.5-1.2v-6.3c0-0.8-0.3-1.2-1.2-1.3l-0.2,0v-0.4l2.9-0.8h0.4v2.3
		c1.2-1.6,2.2-2.3,3.5-2.3c1.7,0,3.1,1.1,3.1,3.4v5.5C59,69.1,59.6,69.3,60.4,69.5z"/>
</g>
<g>
	<path class="st0" d="M32.9,86.6v0.5L30,87.9h-0.4v-2.3c-0.7,1.6-2,2.3-3.4,2.3c-1.5,0-2.8-0.9-2.8-2.7c0-2,1.6-2.9,4.8-3.6l1.4-0.3
		V81c0-2-0.9-3.2-2.5-3.2c-1.2,0-1.9,0.8-1.9,1.8c0,0.4,0.1,0.7,0.3,1.1l-1.7,0.6c-0.3-0.4-0.4-0.8-0.4-1.2c0-1.7,1.9-3.1,4.2-3.1
		c2.4,0,3.7,1.5,3.7,4v4.2c0,0.8,0.2,1.3,1.3,1.3H32.9z M29.6,85V82l-1.2,0.3c-2.3,0.5-3,1.3-3,2.6c0,1.1,0.8,1.7,1.7,1.7
		C28.1,86.6,29,86.1,29.6,85z"/>
	<path class="st0" d="M44.3,87.2v0.5h-4.6v-0.5c0.8-0.1,1.4-0.3,1.4-1.2v-5.3c0-1.6-0.8-2.2-2-2.2c-0.9,0-1.7,0.4-2.7,1.5v6
		c0,0.9,0.6,1.1,1.4,1.2v0.5h-4.7v-0.5c0.8-0.1,1.5-0.3,1.5-1.2v-6.3c0-0.8-0.3-1.2-1.2-1.3l-0.2,0v-0.4L36,77h0.4v2.3
		c1.2-1.6,2.2-2.3,3.5-2.3c1.7,0,3.1,1.1,3.1,3.4v5.5C42.9,86.8,43.5,87,44.3,87.2z"/>
	<path class="st0" d="M55.3,86.6v0.5l-2.9,0.9H52V86c-0.6,0.9-1.7,1.9-3.2,1.9c-2.6,0-4.2-2.3-4.2-5.1c0-3.7,2.4-5.8,5.1-5.8
		c1.1,0,1.9,0.4,2.4,0.8v-2.2c0-0.9-0.3-1.3-1.2-1.3l-0.2,0v-0.4l2.8-0.8h0.4v12.2c0,0.9,0.3,1.3,1.2,1.3H55.3z M52,81
		c0-1.5-0.9-3.2-2.7-3.2c-1.6,0-2.8,1.7-2.8,4.3c0,2.2,0.9,4.6,3,4.6c1.1,0,2.1-0.6,2.6-1.2V81z"/>
</g>
<g>
	<path class="st0" d="M6.1,104.9v0.5H1.4v-0.5c0.8-0.1,1.5-0.4,1.5-1.2v-6.3c0-0.8-0.3-1.2-1.2-1.3l-0.2,0v-0.4l2.9-0.8h0.4v8.9
		C4.6,104.5,5.2,104.7,6.1,104.9z M2.4,91.9c0-0.7,0.5-1.3,1.3-1.3c0.7,0,1.3,0.5,1.3,1.3c0,0.7-0.5,1.3-1.3,1.3
		C3,93.2,2.4,92.7,2.4,91.9z"/>
	<path class="st0" d="M17.9,104.9v0.5h-4.6v-0.5c0.8-0.1,1.4-0.4,1.4-1.2v-5.3c0-1.6-0.8-2.2-2-2.2c-0.9,0-1.7,0.4-2.7,1.5v6
		c0,0.9,0.6,1.1,1.4,1.2v0.5H6.6v-0.5c0.8-0.1,1.5-0.4,1.5-1.2v-6.3c0-0.8-0.3-1.2-1.2-1.3l-0.2,0v-0.4l2.9-0.8h0.4v2.3
		c1.2-1.6,2.2-2.3,3.5-2.3c1.7,0,3.1,1.1,3.1,3.4v5.5C16.4,104.5,17,104.7,17.9,104.9z"/>
	<path class="st0" d="M25.9,96.4l-1.6,1.3c-0.5-1.4-1.3-2.2-2.4-2.2c-1.2,0-2.1,0.6-2.1,1.6c0,2.6,6,1.5,6.1,5.4
		c0,1.7-1.5,3.2-3.8,3.2c-1.8,0-3.4-0.8-4.1-2l1.7-1.2c0.5,1.6,1.5,2.5,2.6,2.5c1.3,0,2.1-0.8,2.1-1.9c0-2.8-6-1.9-6-5.3
		c0-1.8,1.4-3,3.6-3C24.5,94.7,25.5,95.8,25.9,96.4z"/>
	<path class="st0" d="M36.7,99.8c0,3.7-2.4,5.8-5.1,5.8c-1.1,0-1.8-0.3-2.3-0.8v2.9c0,0.9,0.7,1.1,1.5,1.2v0.5H26V109
		c0.8-0.1,1.5-0.4,1.5-1.2V97.3c0-0.9-0.3-1.2-1.2-1.3L26,96v-0.4l2.9-0.8h0.4v1.8c0.6-0.8,1.7-1.8,3.2-1.8
		C35.1,94.7,36.7,97.1,36.7,99.8z M34.8,100.6c0-2.2-0.9-4.6-3-4.6c-1,0-2,0.5-2.6,1v4.6c0,1.5,0.9,3.2,2.7,3.2
		C33.6,104.9,34.8,103.2,34.8,100.6z"/>
	<path class="st0" d="M42,104.9v0.5h-4.7v-0.5c0.8-0.1,1.5-0.4,1.5-1.2v-6.3c0-0.8-0.3-1.2-1.2-1.3l-0.2,0v-0.4l2.9-0.8h0.4v8.9
		C40.6,104.5,41.2,104.7,42,104.9z M38.4,91.9c0-0.7,0.5-1.3,1.3-1.3s1.3,0.5,1.3,1.3c0,0.7-0.5,1.3-1.3,1.3S38.4,92.7,38.4,91.9z"
		/>
	<path class="st0" d="M50,94.8l-0.2,1.9c-0.4-0.2-0.9-0.4-1.4-0.4c-1,0-2,0.8-2.5,2.1v5.1c0,0.8,0.5,1.1,2,1.3v0.5h-5.3v-0.5
		c1.1-0.2,1.5-0.5,1.5-1.3v-6.3c0-0.8-0.3-1.2-1.2-1.3l-0.2,0v-0.4l2.9-0.8h0.4v3c0.7-2.1,1.8-3,2.9-3.1
		C49.3,94.7,49.7,94.7,50,94.8z"/>
	<path class="st0" d="M54.8,104.9v0.5h-4.7v-0.5c0.8-0.1,1.5-0.4,1.5-1.2v-6.3c0-0.8-0.3-1.2-1.2-1.3l-0.2,0v-0.4l2.9-0.8h0.4v8.9
		C53.4,104.5,54,104.7,54.8,104.9z M51.2,91.9c0-0.7,0.5-1.3,1.3-1.3c0.7,0,1.3,0.5,1.3,1.3c0,0.7-0.5,1.3-1.3,1.3
		C51.8,93.2,51.2,92.7,51.2,91.9z"/>
	<path class="st0" d="M66.6,104.9v0.5H62v-0.5c0.8-0.1,1.4-0.4,1.4-1.2v-5.3c0-1.6-0.8-2.2-2-2.2c-0.9,0-1.7,0.4-2.7,1.5v6
		c0,0.9,0.6,1.1,1.4,1.2v0.5h-4.7v-0.5c0.8-0.1,1.5-0.4,1.5-1.2v-6.3c0-0.8-0.3-1.2-1.2-1.3l-0.2,0v-0.4l2.9-0.8h0.4v2.3
		c1.2-1.6,2.2-2.3,3.5-2.3c1.7,0,3.1,1.1,3.1,3.4v5.5C65.2,104.5,65.8,104.7,66.6,104.9z"/>
	<path class="st0" d="M76.2,94.7v10.7c0,2.8-1.4,4.5-4.7,4.5c-2.4,0-3.6-0.9-4.1-1.6l1.9-1.1c0.4,0.9,1.2,1.9,2.7,1.9
		c1.7,0,2.5-1.1,2.5-3.2v-2.1c-0.6,0.8-1.7,1.8-3.2,1.8c-2.6,0-4.2-2.3-4.2-5.1c0-3.7,2.4-5.8,5.1-5.8c1.4,0,2.2,0.6,2.7,1.3
		l0.7-1.3H76.2z M74.4,103.3v-4.6c0-1.3-0.7-3.2-2.7-3.2c-1.6,0-2.8,1.7-2.8,4.3c0,2.2,0.9,4.6,3,4.6
		C72.9,104.4,73.9,103.9,74.4,103.3z"/>
</g>
<g>
	<path class="st0" d="M12.4,111.2v1.6h3v0.7h-3v7.8c0,1,0.7,1.2,2,1.3v0.5H9.1v-0.5c0.8-0.1,1.4-0.4,1.4-1.2v-7.9H8.8v-0.7h1.7v-1
		c0-2.8,1.7-4.1,3.8-4.1c1.3,0,2.3,0.5,2.8,1l-1.3,1.4c-0.3-0.9-0.9-1.7-1.7-1.7C13.1,108.4,12.4,109,12.4,111.2z"/>
	<path class="st0" d="M24.3,117.4h-7.1c0.1,2.8,1.5,4.5,3.6,4.5c1.4,0,2.4-0.8,3.1-1.7l0.4,0.2c-0.5,1.7-2.1,3.1-4.2,3.1
		c-2.8,0-4.6-2.4-4.6-5.2c0-3.6,2.1-5.7,4.9-5.7C23,112.5,24.3,114.7,24.3,117.4z M17.2,116.6h5.2c-0.1-2-0.8-3.4-2.4-3.4
		C18.3,113.3,17.4,114.6,17.2,116.6z"/>
	<path class="st0" d="M32.7,114.1l-1.6,1.3c-0.5-1.4-1.3-2.2-2.4-2.2c-1.2,0-2.1,0.6-2.1,1.6c0,2.6,6,1.5,6.1,5.4
		c0,1.7-1.5,3.2-3.8,3.2c-1.8,0-3.4-0.8-4.1-2l1.7-1.2c0.5,1.6,1.5,2.5,2.6,2.5c1.3,0,2.1-0.8,2.1-1.9c0-2.8-6-1.9-6-5.3
		c0-1.8,1.4-3,3.6-3C31.2,112.5,32.3,113.5,32.7,114.1z"/>
	<path class="st0" d="M39.8,122.1c-0.6,0.5-1.4,1.3-2.6,1.3c-1.7,0-2.6-1-2.6-3v-6.8h-1.7v-0.7h1.7v-2.1l1.8-0.8v2.9h3.2v0.7h-3.2
		v6.9c0,1.4,0.7,1.9,1.7,1.9c0.6,0,1-0.2,1.5-0.5L39.8,122.1z"/>
	<path class="st0" d="M44.8,122.6v0.5h-4.7v-0.5c0.8-0.1,1.5-0.4,1.5-1.2V115c0-0.8-0.3-1.2-1.2-1.3l-0.2,0v-0.4l2.9-0.8h0.4v8.9
		C43.3,122.3,44,122.5,44.8,122.6z M41.2,109.7c0-0.7,0.5-1.3,1.3-1.3c0.7,0,1.3,0.5,1.3,1.3c0,0.7-0.5,1.3-1.3,1.3
		C41.7,110.9,41.2,110.4,41.2,109.7z"/>
	<path class="st0" d="M55.4,113.2c-0.7,0.1-1,0.4-1.3,0.9l-3.9,9.3h-0.5l-4-9.3c-0.2-0.5-0.5-0.7-1.3-0.9v-0.5h4.7v0.5
		c-1.4,0.2-1.6,0.5-1.3,1.3l2.7,6.3l2.6-6.3c0.4-0.9,0-1.1-1.4-1.3v-0.5h3.6V113.2z"/>
	<path class="st0" d="M64.7,122v0.5l-2.9,0.9h-0.4v-2.3c-0.7,1.6-2,2.3-3.4,2.3c-1.5,0-2.8-0.9-2.8-2.7c0-2,1.6-2.9,4.8-3.6l1.4-0.3
		v-0.4c0-2-0.9-3.2-2.5-3.2c-1.2,0-1.9,0.8-1.9,1.8c0,0.4,0.1,0.7,0.3,1.1l-1.7,0.6c-0.3-0.4-0.4-0.8-0.4-1.2c0-1.7,1.9-3.1,4.2-3.1
		c2.4,0,3.7,1.5,3.7,4v4.2c0,0.8,0.2,1.3,1.3,1.3H64.7z M61.4,120.4v-2.9l-1.2,0.3c-2.3,0.5-3,1.3-3,2.6c0,1.1,0.8,1.7,1.7,1.7
		C59.9,122.1,60.8,121.6,61.4,120.4z"/>
	<path class="st0" d="M68.2,121.4c0,0.9,0.6,1.1,1.4,1.2v0.5h-4.7v-0.5c0.8-0.1,1.5-0.4,1.5-1.2v-10.3c0-0.8-0.3-1.3-1.2-1.3l-0.2,0
		v-0.4l2.9-0.8h0.4V121.4z"/>
</g>
<g>
	<path class="st0" d="M25.3,135.9c0-3.4,2.2-5.7,4.9-5.7c2.9,0,4.8,2.2,4.8,5.3c0,3.4-2.2,5.6-4.9,5.6
		C27.2,141.1,25.3,138.9,25.3,135.9z M33.2,136.2c0-2.1-0.9-5.1-3.2-5.1c-1.7,0-2.8,1.7-2.8,4.1c0,2.1,0.9,5.2,3.2,5.2
		C32.1,140.3,33.2,138.6,33.2,136.2z"/>
	<path class="st0" d="M46.7,139.8v0.5l-2.9,0.9h-0.4v-2.3c-1.2,1.6-2.2,2.3-3.4,2.3c-1.7,0-3.1-1.1-3.1-3.4v-4.9
		c0-0.8-0.3-1.2-1.2-1.3l-0.2,0V131l2.9-0.8h0.4v7.3c0,1.6,0.8,2.3,2,2.3c0.9,0,1.7-0.4,2.7-1.5v-5.4c0-0.8-0.3-1.2-1.2-1.3l-0.2,0
		V131l2.8-0.8h0.4v8.3c0,0.8,0.3,1.3,1.2,1.3H46.7z"/>
	<path class="st0" d="M53.4,139.8c-0.6,0.5-1.4,1.3-2.6,1.3c-1.7,0-2.6-1-2.6-3v-6.8h-1.7v-0.7h1.7v-2.1l1.8-0.8v2.9h3.2v0.7H50v6.9
		c0,1.4,0.7,1.9,1.7,1.9c0.6,0,1-0.2,1.5-0.5L53.4,139.8z"/>
</g>
<g>
	<path class="st0" d="M20.4,157.6c-0.6,0.5-1.4,1.3-2.6,1.3c-1.7,0-2.6-1-2.6-3v-6.8h-1.7v-0.7h1.7v-2.1l1.8-0.8v2.9h3.2v0.7H17v6.9
		c0,1.4,0.7,1.9,1.7,1.9c0.6,0,1-0.2,1.5-0.5L20.4,157.6z"/>
	<path class="st0" d="M31.7,158.1v0.5h-4.6v-0.5c0.8-0.1,1.4-0.3,1.4-1.2v-5.3c0-1.6-0.8-2.2-2-2.2c-0.9,0-1.7,0.4-2.7,1.5v6
		c0,0.9,0.6,1.1,1.4,1.2v0.5h-4.7v-0.5c0.8-0.1,1.5-0.3,1.5-1.2v-10.4c0-0.7-0.3-1.1-1.1-1.2l-0.4,0v-0.4l2.9-0.8h0.4v6.3
		c1.2-1.6,2.2-2.3,3.5-2.3c1.7,0,3.1,1.1,3.1,3.4v5.5C30.3,157.7,30.9,157.9,31.7,158.1z"/>
	<path class="st0" d="M40.7,152.8h-7.1c0.1,2.8,1.5,4.5,3.6,4.5c1.4,0,2.4-0.8,3.1-1.7l0.4,0.2c-0.5,1.7-2.1,3.1-4.2,3.1
		c-2.8,0-4.6-2.4-4.6-5.2c0-3.6,2.1-5.7,4.9-5.7C39.4,147.9,40.7,150.2,40.7,152.8z M33.6,152.1h5.2c-0.1-2-0.8-3.4-2.4-3.4
		C34.7,148.7,33.8,150.1,33.6,152.1z"/>
	<path class="st0" d="M48.7,148l-0.2,1.9c-0.4-0.2-0.9-0.4-1.4-0.4c-1,0-2,0.8-2.5,2.1v5.1c0,0.8,0.5,1.1,2,1.3v0.5h-5.3v-0.5
		c1.1-0.2,1.5-0.5,1.5-1.3v-6.3c0-0.8-0.3-1.2-1.2-1.3l-0.2,0v-0.4l2.9-0.8h0.4v3c0.7-2.1,1.8-3,2.9-3.1
		C48,147.9,48.4,147.9,48.7,148z"/>
	<path class="st0" d="M57.6,152.8h-7.1c0.1,2.8,1.5,4.5,3.6,4.5c1.4,0,2.4-0.8,3.1-1.7l0.4,0.2c-0.5,1.7-2.1,3.1-4.2,3.1
		c-2.8,0-4.6-2.4-4.6-5.2c0-3.6,2.1-5.7,4.9-5.7C56.3,147.9,57.6,150.2,57.6,152.8z M50.5,152.1h5.2c-0.1-2-0.8-3.4-2.4-3.4
		C51.5,148.7,50.7,150.1,50.5,152.1z"/>
	<path class="st0" d="M60.8,144.6c0,1.9-1.2,3.2-3,3.4v-0.5c0.9-0.2,1.9-1,1.9-2.1c-1.1,0.4-1.9-0.4-1.9-1.2c0-0.8,0.6-1.4,1.4-1.4
		C60.1,142.8,60.8,143.5,60.8,144.6z M64.6,144.6c0,1.9-1.2,3.2-3,3.4v-0.5c0.9-0.2,1.9-1,1.9-2.1c-1.1,0.4-1.9-0.4-1.9-1.2
		c0-0.8,0.6-1.4,1.4-1.4C63.9,142.8,64.6,143.5,64.6,144.6z"/>
</g>
</svg>
