<?xml version="1.0" encoding="utf-8"?>
<!-- Generator: Adobe Illustrator 24.0.0, SVG Export Plug-In . SVG Version: 6.00 Build 0)  -->
<svg version="1.1" id="Laag_1" xmlns="http://www.w3.org/2000/svg" xmlns:xlink="http://www.w3.org/1999/xlink" x="0px" y="0px"
	 width="354.2px" height="372.9px" viewBox="0 0 354.2 372.9" style="enable-background:new 0 0 354.2 372.9;" xml:space="preserve"
	>
<style type="text/css">
	.st0{fill:#F4D373;}
</style>
<g>
	<path class="st0" d="M108.8,176.8c-5.4,1.2-11,5.1-15.6,7.7c-15.7,8.7-31.3,16.9-44.8,28.9c-25.4,22.6-37.8,54.2-29,88
		c6.3,24.2,44.6,23,56.1,3.5c6.4-10.9,9.3-23.9,14.9-35.3c3-6.2,13.5-30.6,23.5-30c21.3,1.2-10.3,54.5-14.2,62.4
		c-8.7,17.7-11,50,7.6,62.4c26.1,17.5,66.6-8.6,63-38.9c-1.5-12.5-20.6-51-6.7-60.1c35.6,8.7,39.5,56.6,64.4,78.5
		c8,7.1,15.7,8.1,25.8,3.9c18.2-7.6,21.6-26.1,16.3-43.6c-5.6-18.6-19.5-26.4-34.1-37.3c-8.2-6.1-22.5-14.2-27.3-24.2
		c-2.1-4.5-5.2-14.5,1.2-15.1c3-0.3,11.8,11.2,13.5,12.7c9,8.2,19.2,17.1,29.6,23.3c21.8,13.1,76,19.5,70.9-21.7
		c-3.5-28.6-47.2-19.6-66.7-26.9c-4-1.5-9.6-3.7-8.9-9.1c0.9-6.6,14.9-4,18.5-3.3c9.3,2,17.2,7,26.8,8.2c11.7,1.5,30,0.8,40.4-5.6
		c24.3-14.8,31.6-69.4-5.1-72.4c-29.5-2.4-44,28.8-67.5,40.2c-4.9,2.4-20.6,8.5-25,4.1c-7.2-7.2,29.2-26.5,32.5-28.7
		c17.4-11.8,37.7-28.2,48.5-46.4c11-16.8,13.6-34.7,7.7-53.7c-7.7-14.7-19.2-18.9-34.5-12.7c-24.9,7.9-46.6,42.2-58.1,63.3
		c-11,20.1-14.7,38.4-19.5,60.2c-2.5,11.4-5.1,36.7-17.8,42.6c-11.7-14-1-35,4.2-49.3c8.9-24.4,68.4-162.8,0.3-151.7
		c-22,3.6-31.3,30.6-33,49.3c-2.2,23.9,7,47.7,7.7,71.6c0.4,13.7,1.5,28.2-4.3,40.9c-1.4,2.9-2.8,9.7-6.7,9.5
		c-4.5-7.6-5.1-25-6.3-33c-2.3-17.9-3.9-35.9-4.8-54c0.6-15.7-4.9-28.6-16.4-38.5c-16.9-12.2-51.3-11-61.4,10
		c-8,16.7,4.2,36.9,15.8,48.4c4.3,4.3,32,22.4,24.6,29.2c-0.8,0.8-9.5,2-10.5,2.1c-10,0.4-20.1-9.3-29.6-12.4
		c-10.7-3.5-25.4-7.5-36.3-2.8c-13.9,5.9-21.2,23.6-25.9,36.5c-2.3,6.4-12.2,30-6.4,37c5.1,6.2,19.2,5.4,26.1,4.5
		c18.1-2.3,30.3-14.8,47-21c5.2-1.9,22.4-7.8,25.3-0.4"/>
</g>
</svg>
