<?xml version="1.0" encoding="utf-8"?>
<!-- Generator: Adobe Illustrator 23.1.1, SVG Export Plug-In . SVG Version: 6.00 Build 0)  -->
<svg version="1.1" id="Layer_1" xmlns="http://www.w3.org/2000/svg" xmlns:xlink="http://www.w3.org/1999/xlink" x="0px" y="0px"
	 width="120px" height="27px" viewBox="0 0 120 27" style="enable-background:new 0 0 120 27;" xml:space="preserve">
<style type="text/css">
	.st0{fill:#069BBC;}
</style>
<g>
	<path class="st0" d="M15.3,16.9c-2.2,0-3.6-1-3.6-3l0.1-0.1h1l0.1,0.1c0,1.3,0.9,1.8,2.5,1.8c1.2,0,2.1-0.4,2.1-1.4
		c0-1.2-0.8-1.4-2.6-1.7c-1.8-0.3-3-1-3-2.6c0-1.2,0.9-2.5,3.3-2.5c1.9,0,3.4,0.8,3.4,2.7l-0.1,0.1h-1l-0.1-0.1c0-1-0.5-1.6-2.2-1.6
		c-1.2,0-1.8,0.5-1.8,1.3c0,1,0.6,1.3,2.5,1.6s3.1,0.9,3.1,2.7C18.8,15.8,17.8,16.9,15.3,16.9z"/>
	<path class="st0" d="M25.6,16.8h-1l-0.1-0.1v-3.8c0-0.8-0.3-1.6-1.3-1.6s-1.7,0.5-1.7,2.1v3.2l-0.1,0.1h-1l-0.1-0.1V7.8l0.1-0.1h1
		l0.1,0.1V11h0.1c0,0,0.5-0.8,1.7-0.8c2,0,2.5,1.3,2.5,2.7v3.8L25.6,16.8z"/>
	<path class="st0" d="M30,10.2c2,0,3.1,1.3,3.1,3.4s-1.2,3.4-3.1,3.4s-3.1-1.3-3.1-3.4S28,10.2,30,10.2z M30,15.8
		c1.2,0,1.8-0.8,1.8-2.2c0-1.4-0.7-2.2-1.8-2.2s-1.8,0.8-1.8,2.2C28.2,15,28.8,15.8,30,15.8z"/>
	<path class="st0" d="M37.4,16.9c-1.2,0-1.7-0.8-1.7-0.8h-0.1v3.1l-0.1,0.1h-1l-0.1-0.1v-8.8l0.1-0.1h0.9l0.1,0.1l0.1,0.5h0.1
		c0,0,0.5-0.8,1.7-0.8c1.8,0,2.9,1.4,2.9,3.4S39.2,16.9,37.4,16.9z M37.3,11.4c-1,0-1.7,0.6-1.7,2.2c0,1.6,0.7,2.2,1.7,2.2
		s1.7-0.8,1.7-2.2C38.9,12.1,38.3,11.4,37.3,11.4z"/>
	<path class="st0" d="M50.3,16.8h-0.9l-0.1-0.1l-0.1-0.5H49c0,0-0.5,0.8-1.7,0.8c-1.8,0-2.9-1.4-2.9-3.4s1-3.4,2.9-3.4
		c1.2,0,1.7,0.8,1.7,0.8h0.1V7.8l0.1-0.1h1l0.1,0.1v8.8L50.3,16.8z M47.4,11.4c-1,0-1.7,0.8-1.7,2.2c0,1.4,0.6,2.2,1.7,2.2
		s1.7-0.7,1.7-2.2C49.1,12,48.4,11.4,47.4,11.4z"/>
	<path class="st0" d="M51.6,13.6c0-1.8,0.9-3.4,3-3.4s3,1.6,3,3.4V14l-0.1,0.1h-4.3L53,14.2c0,0.3,0.1,1.6,1.7,1.6
		c0.5,0,1-0.1,1.3-0.8l0.1-0.1h1l0.1,0.1c-0.1,1-1,2-2.6,2C52.6,16.9,51.6,15.5,51.6,13.6z M56.1,12.9c0-0.4-0.1-1.6-1.6-1.6
		S53,12.5,53,12.9l0.1,0.1H56L56.1,12.9z"/>
	<path class="st0" d="M64.8,15.8c1,0,1.4-0.5,1.6-1l0.1-0.1h1l0.1,0.1c-0.1,1.2-1,2.2-2.9,2.2c-2,0-3.1-1.3-3.1-3.4s1.2-3.4,3.1-3.4
		c1.8,0,2.7,1,2.9,2.2l-0.1,0.1h-1l-0.1-0.1c-0.1-0.5-0.5-1-1.6-1c-1.2,0-1.8,0.8-1.8,2.2C63,15,63.6,15.8,64.8,15.8z"/>
	<path class="st0" d="M71.6,10.2c1.9,0,3.1,1.3,3.1,3.4s-1.2,3.4-3.1,3.4c-2,0-3.1-1.3-3.1-3.4S69.6,10.2,71.6,10.2z M71.6,15.8
		c1.2,0,1.8-0.8,1.8-2.2c0-1.4-0.6-2.2-1.8-2.2c-1.2,0-1.8,0.8-1.8,2.2C69.8,15,70.4,15.8,71.6,15.8z"/>
	<path class="st0" d="M77,16.8h-1l-0.1-0.1V7.8L76,7.7h1l0.1,0.1v8.8L77,16.8z"/>
	<path class="st0" d="M79.9,16.8h-1l-0.1-0.1V7.8l0.1-0.1h1L80,7.8v8.8L79.9,16.8z"/>
	<path class="st0" d="M81.2,13.6c0-1.8,0.9-3.4,3-3.4s3,1.6,3,3.4V14L87,14.1h-4.3l-0.1,0.1c0,0.3,0.1,1.6,1.7,1.6
		c0.5,0,1-0.1,1.3-0.8l0.1-0.1h1l0.1,0.1c-0.1,1-1,2-2.6,2C82.2,16.9,81.2,15.5,81.2,13.6z M85.7,12.9c0-0.4-0.1-1.6-1.6-1.6
		c-1.4,0-1.6,1.2-1.6,1.6l0.1,0.1h2.9L85.7,12.9z"/>
	<path class="st0" d="M91.1,15.8c1,0,1.4-0.5,1.6-1l0.1-0.1h1l0.1,0.1c-0.1,1.2-1,2.2-2.9,2.2c-2,0-3.1-1.3-3.1-3.4s1.2-3.4,3.1-3.4
		c1.8,0,2.7,1,2.9,2.2l-0.1,0.1h-1l-0.1-0.1c-0.1-0.5-0.5-1-1.6-1c-1.2,0-1.8,0.8-1.8,2.2C89.2,15,89.9,15.8,91.1,15.8z"/>
	<path class="st0" d="M98.5,16.8h-1c-0.9,0-1.8-0.5-1.8-1.7v-3.5l-0.1-0.1h-0.9l-0.1-0.1v-0.9l0.1-0.1h0.9l0.1-0.1V9l0.1-0.1h1
		L96.9,9v1.2l0.1,0.1h1.4l0.1,0.1v0.9l-0.1,0.1H97l-0.1,0.1v3.5c0,0.4,0.3,0.5,0.5,0.5h1l0.1,0.1v0.9L98.5,16.8z"/>
	<path class="st0" d="M101.1,9.3h-1l-0.1-0.1v-1L100,8h1l0.1,0.1v1L101.1,9.3z M101.1,16.8h-1l-0.1-0.1v-6.2l0.1-0.1h1l0.1,0.1v6.2
		L101.1,16.8z"/>
	<path class="st0" d="M102.4,13.6c0-1.8,0.9-3.4,3-3.4s3,1.6,3,3.4V14l-0.1,0.1h-4.3l-0.1,0.1c0,0.3,0.1,1.6,1.7,1.6
		c0.5,0,1-0.1,1.3-0.8l0.1-0.1h1l0.1,0.1c-0.1,1-1,2-2.6,2C103.4,16.9,102.4,15.5,102.4,13.6z M106.9,12.9c0-0.4-0.1-1.6-1.6-1.6
		c-1.4,0-1.6,1.2-1.6,1.6l0.1,0.1h2.9L106.9,12.9z"/>
</g>
</svg>
