<?xml version="1.0" encoding="utf-8"?>
<!-- Generator: Adobe Illustrator 19.1.0, SVG Export Plug-In . SVG Version: 6.00 Build 0)  -->
<svg version="1.1" id="Laag_1" xmlns="http://www.w3.org/2000/svg" xmlns:xlink="http://www.w3.org/1999/xlink" x="0px" y="0px"
	 viewBox="0 0 160.1 17.4" style="enable-background:new 0 0 160.1 17.4;" xml:space="preserve">
<g>
	<path d="M3.7,13.7c-1.3,0-1.8,0-1.8,0L2,13.5c0.3-0.6,0.4-0.8,0.4-6v-3C2.5,4.1,2.4,4,2,4H0c0.9-1.7,3.8-1.3,5.1-2.3
		c0,0-0.2,2.3-0.2,6.3c0,4.7,0.1,4.7,0.4,5.4l0.2,0.3C5.5,13.7,5,13.7,3.7,13.7z"/>
	<path d="M16.1,11h-0.2c0,0.8,0,1.8,0.4,2.4l0.2,0.3c0,0-0.5,0-1.8,0c-1.3,0-1.8,0-1.8,0l0.2-0.3c0.3-0.6,0.4-1.5,0.4-2.4H7.8
		c0-1.2,0.1-2.5,1.8-4.2l1.3-1.3c2.2-2.1,2.6-2.6,2.6-3.7c0-0.6-0.2-0.8-0.2-0.8s0.6,0,1.5,0s1.5,0,1.5,0v0.1c0,2.2-0.6,2.9-3.2,5
		l-1.4,1.1c-0.8,0.7-1.4,1.3-1.4,1.9h3.2V8.1c0.6-0.1,2.2-0.9,2.5-1.2v2.4h0.2c1,0,1.5-0.2,1.5-0.2s0,0.4,0,1.1c0,0.7,0,1.1,0,1.1
		S17.1,11,16.1,11z"/>
	<path d="M32.1,3.7c0,0-0.1-0.2-0.6-0.5c-0.4-0.2-1.1-0.4-1.9-0.4h-1v4.8c0,5.1,0.1,5.1,0.4,5.8l0.2,0.3c0,0-0.5,0-1.8,0
		c-1.3,0-1.9,0-1.9,0l0.2-0.3c0.3-0.7,0.4-0.8,0.4-6V2.8h-1c-0.8,0-1.5,0.2-1.9,0.4c-0.5,0.3-0.6,0.4-0.6,0.5c0,0,0.1-0.4,0.1-1.3
		c0-0.8,0-1.1,0-1.1h9.5c0,0,0,0.3,0,1.1C32.1,3.3,32.1,3.7,32.1,3.7z"/>
	<path d="M33.3,17.4h-1.5L34.6,0h1.5L33.3,17.4z"/>
	<path d="M48.7,13.7c-1.3,0-1.9,0-1.9,0l0.2-0.3c0.3-0.6,0.4-0.8,0.4-6V3.3c0,0.1-0.2,0.9-0.6,1.7l-3.1,7.1l-3-7
		c-0.4-0.9-0.6-1.6-0.6-1.7v4.3c0,5.1,0.1,5.1,0.4,5.8l0.2,0.3c0,0-0.5,0-1.5,0c-1,0-1.5,0-1.5,0l0.2-0.3c0.3-0.7,0.4-0.8,0.4-6
		c0-5.1-0.1-5.1-0.4-5.8l-0.2-0.3c0,0,0.7,0,2,0c1.2,0,1.8-0.1,1.8-0.1l2.3,5.3c0.2,0.5,0.2,0.7,0.2,0.7s0-0.2,0.2-0.7l2.3-5.3
		c0,0,0.6,0,1.9,0c1.3,0,2,0,2,0l-0.2,0.3c-0.3,0.6-0.4,0.8-0.4,6c0,5.1,0.1,5.1,0.4,5.8l0.2,0.3C50.5,13.7,50,13.7,48.7,13.7z"/>
	<path d="M63.9,11.1c0,0-0.1,0.8-0.1,1.8l0,0.9H56c0-1.6,0.5-2.5,1.8-3.6l1.5-1.4c1.5-1.3,1.9-2,1.9-3.2c0-1-0.4-2-2.1-2
		c-1.6,0-2.1,0.6-2.8,1.6c0,0,0-0.5,0-1.3c0-0.9,0-1.3,0-1.3s1-0.5,3.2-0.5c3.3,0,4.3,1.4,4.3,3.3c0,1.9-0.9,2.9-2.8,4.3l-1.2,0.9
		c-0.9,0.6-1.4,1.1-1.4,1.4h2.9c0.8,0,1.5-0.1,1.9-0.4C63.7,11.3,63.9,11.1,63.9,11.1z"/>
	<path d="M69.6,14.9c-3.1,0-3.3-2-3.3-2s0.7,0.6,2.3,0.6c2.2,0,3.7-1,3.7-5.5c0-3.5-0.5-4.5-2-4.5c-1.3,0-1.9,1-1.9,2.6
		c0,1.4,0.4,2.5,1.6,2.5c0.9,0,1.2-0.5,1.2-0.5c0,1-0.7,1.8-2.2,1.8c-2.2,0-3.1-1.6-3.1-3.6c0-2.4,1.3-4.3,4.4-4.3
		c3.5,0,4.5,2.4,4.5,6.1C74.8,14.4,71.1,14.9,69.6,14.9z"/>
	<path d="M86.4,14c-3.7,0-5.7-2.4-5.7-6.2c0-2.6,1-6.6,5.7-6.6c3.7,0,5.7,2.3,5.7,6.2C92.2,10,91.1,14,86.4,14z M86.4,2.7
		c-1.8,0-3,1.4-3,4.9c0,3.5,1.2,4.8,3,4.8c1.8,0,3-1.4,3-4.9C89.4,4,88.3,2.7,86.4,2.7z"/>
	<path d="M102.3,4.1L99.6,7l2.8,3.8c1.7,2.2,2.2,2.8,2.7,3c0,0-0.5,0-1.9,0h-1.7l-4.3-6.1c0,4.9,0.1,5.2,0.4,5.9l0.2,0.3
		c0,0-0.5,0-1.8,0c-1.3,0-1.9,0-1.9,0l0.2-0.3c0.3-0.7,0.4-0.8,0.4-6c0-5.1-0.1-5.1-0.4-5.8l-0.2-0.3c0,0,0.5,0,1.8,0
		c1.4,0,1.8,0,1.8,0l-0.2,0.3c-0.3,0.6-0.4,0.8-0.4,5.8l2.8-3.4c1-1.2,1.3-1.6,1.3-2.1c0-0.3-0.1-0.5-0.4-0.7c0,0,0.6,0,2,0
		c1.6,0,2.2,0,2.2,0C104.7,1.6,103.9,2.2,102.3,4.1z"/>
	<path d="M114.5,3.7c0,0-0.1-0.2-0.6-0.5c-0.4-0.2-1.1-0.4-1.9-0.4h-1v4.8c0,5.1,0.1,5.1,0.4,5.8l0.2,0.3c0,0-0.5,0-1.8,0
		c-1.3,0-1.9,0-1.9,0l0.2-0.3c0.3-0.7,0.4-0.8,0.4-6V2.8h-1c-0.8,0-1.5,0.2-1.9,0.4c-0.5,0.3-0.6,0.4-0.6,0.5c0,0,0.1-0.4,0.1-1.3
		c0-0.8,0-1.1,0-1.1h9.5c0,0,0,0.3,0,1.1C114.5,3.3,114.5,3.7,114.5,3.7z"/>
	<path d="M121.1,14c-3.7,0-5.7-2.4-5.7-6.2c0-2.6,1-6.6,5.7-6.6c3.7,0,5.7,2.3,5.7,6.2C126.8,10,125.7,14,121.1,14z M121.1,2.7
		c-1.8,0-3,1.4-3,4.9c0,3.5,1.2,4.8,3,4.8c1.8,0,3-1.4,3-4.9C124,4,122.9,2.7,121.1,2.7z"/>
	<path d="M135.9,13.4c-0.9,0.3-1.7,0.3-3.3,0.3c-0.6,0-1.7,0-2.3,0c-1.1,0-1.6,0-1.6,0l0.2-0.3c0.3-0.6,0.4-0.8,0.4-6
		c0-5.1-0.1-5.1-0.4-5.8l-0.2-0.3c0,0,0.5,0,1.4,0c0.5,0,1.6,0,2.2,0c2.7,0,5.3,0.2,5.3,3c0,2.1-1.6,2.8-2.8,3c1.5,0,3.2,0.7,3.2,3
		C138,12.2,136.8,13.1,135.9,13.4z M132.5,2.7c-0.5,0-0.8,0-0.8,0v4c0,0,0.3,0,0.9,0c0.3,0,0.7,0,1-0.1c0.8-0.2,1.4-0.8,1.4-2
		C135,2.9,133.9,2.7,132.5,2.7z M132.7,8.1c-0.5,0-1,0-1,0v4.2c0,0,0.2,0.1,1,0.1c0.7,0,1.2-0.1,1.6-0.2c0.5-0.2,1.1-0.7,1.1-2
		C135.3,8.5,134.2,8.1,132.7,8.1z"/>
	<path d="M147.6,13.1l0,0.6h-6.5c-0.9,0-1.3,0-1.3,0l0.2-0.3c0.3-0.7,0.4-0.8,0.4-6c0-5.1-0.1-5.1-0.4-5.8l-0.2-0.3c0,0,0.4,0,1.3,0
		h6.3c0,0,0,0.3,0,1.1c0,0.8,0,1.2,0,1.3c0,0-0.1-0.2-0.6-0.5c-0.4-0.2-1.1-0.4-1.9-0.4h-2v3.9h1.6c0.8,0,1.5-0.1,1.9-0.3
		C146.9,6.2,147,6,147,6c0,0-0.1,0.5-0.1,1.6c0,1,0.1,1.5,0.1,1.5c0,0-0.1-0.2-0.6-0.5c-0.4-0.2-1.1-0.3-1.9-0.3h-1.6v4h1.9
		c2.2,0,2.4-0.5,3.1-1.4C147.8,10.8,147.7,11.4,147.6,13.1z"/>
	<path d="M158.6,13.8c-1.4,0-1.9-0.5-2.7-1.9l-1.1-1.8c-0.9-1.5-1.1-1.9-1.9-1.9c-0.2,0-0.3,0-0.3,0c0,4.3,0.1,4.5,0.4,5.1l0.2,0.3
		c0,0-0.5,0-1.8,0s-1.8,0-1.8,0l0.2-0.3c0.3-0.6,0.4-0.8,0.4-6c0-5.1-0.1-5.1-0.4-5.8l-0.2-0.3c0,0,0.6,0,1.5,0c0.5,0,1.7,0,2.3,0
		c2.4,0,5.1,0.1,5.1,3.2c0,2.1-1.4,3.3-3.6,3.4c1.4,0.2,1.9,0.9,2.7,2.3l0.9,1.7c0.5,0.9,0.9,1.5,1.6,1.8
		C160.1,13.6,159.8,13.8,158.6,13.8z M153.5,2.7c-0.5,0-0.8,0-0.8,0V7c0,0,0.3,0,0.9,0c0.3,0,0.7,0,1-0.1c0.8-0.2,1.4-0.8,1.4-2.1
		C156,2.9,154.9,2.7,153.5,2.7z"/>
</g>
</svg>
