<?xml version="1.0" encoding="utf-8"?>
<!-- Generator: Adobe Illustrator 24.0.0, SVG Export Plug-In . SVG Version: 6.00 Build 0)  -->
<svg version="1.1" id="Laag_1" xmlns="http://www.w3.org/2000/svg" xmlns:xlink="http://www.w3.org/1999/xlink" x="0px" y="0px"
	 width="72.9px" height="34.8px" viewBox="0 0 72.9 34.8" style="enable-background:new 0 0 72.9 34.8;" xml:space="preserve">
<style type="text/css">
	.st0{fill:#FFFFFF;}
</style>
<g>
	<path class="st0" d="M15.2,2.6c0,0.9-0.4,1.5-1.2,1.9c0.9,0.4,1.4,1,1.4,1.9c0,1.7-1.6,2.5-3.2,2.5c-1.3,0-2.3-0.4-3-1.2l1.1-1.3
		c0.5,0.5,1.1,0.8,1.8,0.8c0.7,0,1.3-0.3,1.3-0.9c0-0.6-0.7-0.9-1.5-0.9h-0.9V3.6h1c0.7,0,1.3-0.3,1.3-0.9c0-0.6-0.5-0.8-1.2-0.8
		c-0.8,0-1.3,0.4-1.7,0.8L9.2,1.4c0.6-0.7,1.5-1.3,2.9-1.3C13.9,0.1,15.2,1.1,15.2,2.6z"/>
	<path class="st0" d="M25.4,5.7c0,1.8-1.4,3.1-3.2,3.1S19,7.5,19,5.7s1.3-3.1,3.2-3.1S25.4,4,25.4,5.7z M20.9,5.7
		c0,0.8,0.5,1.3,1.3,1.3c0.7,0,1.3-0.6,1.3-1.3s-0.5-1.3-1.3-1.3C21.5,4.4,20.9,4.9,20.9,5.7z"/>
	<path class="st0" d="M28.7,4.7l1.4-1.9h2.3l-2.2,2.8l2.2,3.1h-2.3l-1.5-2.3h-0.4v2.3h-1.9V0h1.9v4.7H28.7z"/>
	<path class="st0" d="M35.6,4.5v1.7c0,0.7,0.4,0.9,0.8,0.9c0.4,0,0.7-0.2,1-0.4l0.6,1.5c-0.6,0.4-1.1,0.7-2.1,0.7
		c-1.6,0-2.3-0.9-2.3-2.4v-2h-1.1V2.8h1.1V1.1h1.9v1.7h2v1.7H35.6z"/>
	<path class="st0" d="M44.7,5.7c0,1.8-1.4,3.1-3.2,3.1s-3.2-1.3-3.2-3.1s1.3-3.1,3.2-3.1S44.7,4,44.7,5.7z M40.3,5.7
		c0,0.8,0.5,1.3,1.3,1.3c0.7,0,1.3-0.6,1.3-1.3s-0.5-1.3-1.3-1.3C40.8,4.4,40.3,4.9,40.3,5.7z"/>
	<path class="st0" d="M52,5.7c0,1.7-1.2,3.1-2.7,3.1c-0.8,0-1.3-0.3-1.7-0.8v0.6h-1.8V0h1.9v3.3c0.4-0.4,0.9-0.7,1.6-0.7
		C50.8,2.6,52,4,52,5.7z M47.5,5.7c0,0.8,0.5,1.3,1.3,1.3c0.8,0,1.3-0.6,1.3-1.3s-0.5-1.3-1.3-1.3C48,4.4,47.5,5,47.5,5.7z"/>
	<path class="st0" d="M58.6,5.7c0,0.2,0,0.5,0,0.6h-4c0.2,0.6,0.6,0.9,1.3,0.9c0.4,0,0.9-0.2,1.3-0.5l1.2,1.1c-0.6,0.6-1.5,1-2.6,1
		c-1.8,0-3.1-1.2-3.1-3.1c0-1.8,1.2-3.1,3-3.1C57.4,2.6,58.6,3.9,58.6,5.7z M54.6,5.1h2.1c-0.1-0.6-0.5-0.9-1.1-0.9
		C55.1,4.2,54.8,4.5,54.6,5.1z"/>
	<path class="st0" d="M63.7,2.7l-0.2,1.9c-0.3-0.1-0.6-0.2-0.9-0.2c-0.7,0-1.1,0.3-1.1,1.1v3.2h-1.9V2.8h1.8v0.7
		c0.3-0.6,0.9-0.8,1.6-0.8C63.3,2.6,63.6,2.7,63.7,2.7z"/>
	<path class="st0" d="M28.4,17.5v1.7c0,0.7,0.4,0.9,0.8,0.9c0.4,0,0.7-0.2,1-0.4l0.6,1.5c-0.6,0.4-1.1,0.7-2.1,0.7
		c-1.6,0-2.3-0.9-2.3-2.4v-2h-1.1v-1.7h1.1v-1.7h1.9v1.7h2v1.7H28.4z"/>
	<path class="st0" d="M30.8,22.9l5.1-10.4h1.9l-5.1,10.4H30.8z"/>
	<path class="st0" d="M46.8,17.8v3.9h-1.9v-3.2c0-0.7-0.3-1.1-0.9-1.1c-0.5,0-1,0.3-1,1.1v3.2h-1.9v-3.2c0-0.7-0.3-1.1-0.9-1.1
		c-0.5,0-1,0.3-1,1.1v3.2h-1.9v-5.9h1.8v0.7c0.4-0.6,1-0.9,1.8-0.9c0.8,0,1.4,0.4,1.8,1c0.4-0.7,1-1,1.9-1
		C45.9,15.6,46.8,16.5,46.8,17.8z"/>
	<path class="st0" d="M3.1,26.1c1.8,0,2.9,1.1,2.9,2.7c0,1-0.4,1.6-1.3,2.5l-1.5,1.5h3v1.8H0.4v-1.5l2.9-2.8C3.7,29.9,4,29.5,4,29
		c0-0.6-0.5-1-1.1-1c-0.8,0-1.3,0.4-1.7,0.9L0,27.6C0.5,27,1.5,26.1,3.1,26.1z"/>
	<path class="st0" d="M10.1,31.9c-1.9,0-3-1.2-3-2.8c0-1.7,1.4-2.9,3.3-2.9c1.9,0,3.3,1.2,3.3,2.9c0,0.8-0.3,1.5-0.8,2.3l-2.2,3.3
		H8.2l2-2.8H10.1z M11.6,29c0-0.7-0.5-1.2-1.2-1.2c-0.7,0-1.2,0.5-1.2,1.2c0,0.7,0.5,1.2,1.2,1.2C11.1,30.2,11.6,29.7,11.6,29z"/>
	<path class="st0" d="M22.9,30.8v3.9h-1.9v-3.2c0-0.7-0.3-1.1-0.9-1.1c-0.5,0-1,0.3-1,1.1v3.2h-1.9v-5.9h1.8v0.7
		c0.4-0.6,1-0.9,1.8-0.9C22,28.6,22.9,29.5,22.9,30.8z"/>
	<path class="st0" d="M30.3,31.7c0,1.8-1.4,3.1-3.2,3.1s-3.2-1.3-3.2-3.1s1.3-3.1,3.2-3.1S30.3,30,30.3,31.7z M25.8,31.7
		c0,0.8,0.5,1.3,1.3,1.3c0.7,0,1.3-0.6,1.3-1.3s-0.5-1.3-1.3-1.3C26.4,30.4,25.8,30.9,25.8,31.7z"/>
	<path class="st0" d="M32.7,34.7l-2.3-5.9h2l1.3,3.8l1.3-3.8h2l-2.2,5.9H32.7z"/>
	<path class="st0" d="M43.2,31.7c0,0.2,0,0.5,0,0.6h-4c0.2,0.6,0.6,0.9,1.3,0.9c0.4,0,0.9-0.2,1.3-0.5l1.2,1.1c-0.6,0.6-1.5,1-2.6,1
		c-1.8,0-3.1-1.2-3.1-3.1c0-1.8,1.2-3.1,3-3.1C42.1,28.6,43.2,29.9,43.2,31.7z M39.2,31.1h2.1c-0.1-0.6-0.5-0.9-1.1-0.9
		C39.7,30.2,39.4,30.5,39.2,31.1z"/>
	<path class="st0" d="M53.7,30.8v3.9h-1.9v-3.2c0-0.7-0.3-1.1-0.9-1.1c-0.5,0-1,0.3-1,1.1v3.2H48v-3.2c0-0.7-0.3-1.1-0.9-1.1
		c-0.5,0-1,0.3-1,1.1v3.2h-1.9v-5.9h1.8v0.7c0.4-0.6,1-0.9,1.8-0.9c0.8,0,1.4,0.4,1.8,1c0.4-0.7,1-1,1.9-1
		C52.8,28.6,53.7,29.5,53.7,30.8z"/>
	<path class="st0" d="M61.2,31.7c0,1.7-1.2,3.1-2.7,3.1c-0.8,0-1.3-0.3-1.7-0.8v0.6h-1.8V26h1.9v3.3c0.4-0.4,0.9-0.7,1.6-0.7
		C60,28.6,61.2,30,61.2,31.7z M56.7,31.7c0,0.8,0.5,1.3,1.3,1.3c0.8,0,1.3-0.6,1.3-1.3s-0.5-1.3-1.3-1.3
		C57.3,30.4,56.7,31,56.7,31.7z"/>
	<path class="st0" d="M67.8,31.7c0,0.2,0,0.5,0,0.6h-4c0.2,0.6,0.6,0.9,1.3,0.9c0.4,0,0.9-0.2,1.3-0.5l1.2,1.1c-0.6,0.6-1.5,1-2.6,1
		c-1.8,0-3.1-1.2-3.1-3.1c0-1.8,1.2-3.1,3-3.1C66.6,28.6,67.8,29.9,67.8,31.7z M63.8,31.1H66c-0.1-0.6-0.5-0.9-1.1-0.9
		C64.3,30.2,64,30.5,63.8,31.1z"/>
	<path class="st0" d="M72.9,28.7l-0.2,1.9c-0.3-0.1-0.6-0.2-0.9-0.2c-0.7,0-1.1,0.3-1.1,1.1v3.2h-1.9v-5.9h1.8v0.7
		c0.3-0.6,0.9-0.8,1.6-0.8C72.5,28.6,72.8,28.7,72.9,28.7z"/>
</g>
</svg>
