<?xml version="1.0" encoding="utf-8"?>
<!-- Generator: Adobe Illustrator 24.0.0, SVG Export Plug-In . SVG Version: 6.00 Build 0)  -->
<svg version="1.1" id="Laag_1" xmlns="http://www.w3.org/2000/svg" xmlns:xlink="http://www.w3.org/1999/xlink" x="0px" y="0px"
	 width="124.2px" height="49.8px" viewBox="0 0 124.2 49.8" style="enable-background:new 0 0 124.2 49.8;" xml:space="preserve">
<style type="text/css">
	.st0{fill:#FFFFFF;}
</style>
<g>
	<path class="st0" d="M4.8,13.3h7.4V16H1v-2.4l7.2-9.9H1.1V1.1h10.8v2.4L4.8,13.3z"/>
	<path class="st0" d="M25.1,10.6c0,3.4-2.4,5.7-5.7,5.7c-3.3,0-5.7-2.3-5.7-5.7S16.1,5,19.4,5C22.6,5,25.1,7.2,25.1,10.6z
		 M16.6,10.6c0,1.8,1.1,3.1,2.8,3.1c1.7,0,2.8-1.3,2.8-3.1s-1.1-3.1-2.8-3.1C17.7,7.5,16.6,8.8,16.6,10.6z"/>
	<path class="st0" d="M36.3,9v7h-2.8V9.6c0-1.3-0.5-1.9-1.6-1.9c-1,0-1.9,0.8-1.9,2.7V16h-2.8V5.2h2.4l0.2,1.4
		C30.4,5.7,31.4,5,32.8,5C35.1,5,36.3,6.5,36.3,9z"/>
	<path class="st0" d="M47,16l-0.2-1.5c-0.6,0.9-1.6,1.7-3.5,1.7c-2.9,0-5-2.5-5-5.7s2.1-5.6,5-5.6c1.6,0,2.7,0.6,3.3,1.4v-6h2.8V16
		H47z M41.2,10.6c0,1.9,1.2,3.1,2.7,3.1c1.4,0,2.8-1.1,2.8-3v-0.1c0-1.9-1.4-3-2.8-3C42.4,7.5,41.2,8.7,41.2,10.6z"/>
	<path class="st0" d="M60.6,8.9V16h-2.4l-0.2-1.3c-0.6,0.9-1.6,1.6-3.1,1.6c-1.9,0-3.3-1.2-3.3-3.1c0-2.1,1.4-2.9,3.4-3.3l2.8-0.5V9
		c0-1.1-0.5-1.6-1.5-1.6c-0.9,0-1.6,0.6-1.6,1.4H52C52.1,6.6,53.7,5,56.3,5C58.8,5,60.6,6.3,60.6,8.9z M54.4,12.9
		c0,0.6,0.4,1.1,1.3,1.1c0.7,0,1.3-0.3,1.7-1c0.2-0.4,0.4-0.9,0.4-1.4v-0.3l-2.2,0.4C54.9,11.9,54.4,12.2,54.4,12.9z"/>
	<path class="st0" d="M72.9,7.5h-1.6c0.1,0.4,0.2,0.8,0.2,1.3c0,2.2-1.8,3.8-4.3,3.8c-0.6,0-1.3-0.1-1.8-0.3
		c-0.1,0.2-0.3,0.4-0.3,0.8c0,0.6,0.4,0.9,1.1,0.9h2.6c2.2,0,3.6,1.1,3.6,3.1c0,2.4-1.9,3.8-4.8,3.8c-3.2,0-4.9-1.2-4.9-3.3
		c0-0.9,0.6-1.6,1.1-1.9c-0.7-0.4-1.3-1.3-1.3-2.3s0.5-1.8,1.1-2.3c-0.5-0.6-0.7-1.3-0.7-2.2c0-2.2,1.8-3.9,4.4-3.9
		c0.6,0,1.1,0.1,1.6,0.2h4.1V7.5z M65.4,17.3c0,1,0.9,1.5,2.2,1.5c1.3,0,2.1-0.5,2.1-1.5c0-0.8-0.6-1.2-1.5-1.2h-1.6
		C65.9,16.2,65.4,16.6,65.4,17.3z M68.9,8.8c0-1-0.7-1.8-1.6-1.8c-1,0-1.6,0.7-1.6,1.8c0,1,0.6,1.7,1.6,1.7
		C68.2,10.5,68.9,9.8,68.9,8.8z"/>
	<path class="st0" d="M4,41.7V31.3H0.8v-2.5c2.3,0,3.5-0.5,3.9-2.1h2.1v15H4z"/>
	<path class="st0" d="M18.6,30.8c0,1.8-1,2.7-1.9,3.1c1.2,0.3,2.4,1.4,2.4,3.5c0,2.8-2,4.6-5,4.6c-3.1,0-5-1.8-5-4.9h2.9
		c0,1.5,0.9,2.1,2.2,2.1c1.1,0,1.9-0.7,1.9-1.9c0-1.4-1-2.1-2.6-2.1h-0.9v-2.5h0.9c1.4,0,2.1-0.6,2.1-1.8c0-1.1-0.6-1.8-1.6-1.8
		c-0.9,0-1.7,0.6-1.7,2H9.4c0-3,1.8-4.7,4.6-4.7C17,26.5,18.6,28.4,18.6,30.8z"/>
	<path class="st0" d="M33,34.1h-2.7c0-0.8-0.4-1.2-1.2-1.2c-0.8,0-1.2,0.4-1.2,1.1c0,0.7,0.4,1,1.9,1.3c2.6,0.4,3.6,1.5,3.6,3.3
		c0,2.5-1.9,3.5-4.2,3.5c-2.7,0-4.2-1.4-4.2-3.5h2.7c0,0.9,0.6,1.3,1.6,1.3c0.9,0,1.3-0.4,1.3-1c0-0.7-0.3-1-2-1.3
		c-2.4-0.4-3.4-1.4-3.4-3.2c0-1.9,1.3-3.5,4-3.5C31.4,30.6,33,32,33,34.1z"/>
	<path class="st0" d="M45.1,37.1h-7.6c0.1,1.4,1.1,2.4,2.6,2.4c1.1,0,1.9-0.4,2.2-1.3H45c-0.7,2.3-2.4,3.6-5,3.6
		c-3.2,0-5.4-2.2-5.4-5.6c0-3.3,2.2-5.7,5.4-5.7c2.9,0,5,1.8,5,5.6V37.1z M42.3,35.2c0-1.4-0.9-2.3-2.3-2.3c-1.4,0-2.3,1-2.5,2.3
		H42.3z"/>
	<path class="st0" d="M58.4,36.3c0,3.2-2.1,5.7-5,5.7c-1.6,0-2.7-0.6-3.3-1.4v5.8h-2.8V30.9h2.4l0.2,1.5c0.6-0.9,1.6-1.7,3.5-1.7
		C56.3,30.6,58.4,33.1,58.4,36.3z M50,36.2v0.1c0,1.9,1.4,3,2.8,3c1.5,0,2.7-1.2,2.7-3.1s-1.2-3.1-2.7-3.1
		C51.4,33.2,50,34.3,50,36.2z"/>
	<path class="st0" d="M66.4,30.9v2.5h-2.5l0,4.4c0,1.1,0.3,1.6,1.4,1.6c0.5,0,0.8-0.1,1.1-0.1v2.4c-0.3,0.1-0.9,0.2-1.7,0.2
		c-2.4,0-3.6-1-3.6-3.4l0-5h-1.8v-2.5h1.8l0-2.6H64l0,2.6H66.4z"/>
	<path class="st0" d="M71.5,40.3c0,0.9-0.8,1.7-1.7,1.7c-1,0-1.7-0.7-1.7-1.7c0-1,0.7-1.7,1.7-1.7C70.7,38.6,71.5,39.3,71.5,40.3z"
		/>
	<path class="st0" d="M86.2,30.8c0,1.8-0.8,3.1-1.9,4.3L81.2,39h5v2.7h-9.1v-2.1l4.6-5.5c1-1.2,1.5-2,1.5-3.2c0-1.1-0.5-1.7-1.6-1.7
		c-1,0-1.7,0.6-1.7,2.1h-2.9c0-3,1.9-4.8,4.7-4.8C84.7,26.5,86.2,28.2,86.2,30.8z"/>
	<path class="st0" d="M98.3,34.2c0,4.8-1.9,7.8-5.3,7.8c-3.4,0-5.3-3-5.3-7.8c0-4.8,1.9-7.7,5.3-7.7C96.4,26.5,98.3,29.4,98.3,34.2z
		 M90.7,34.2c0,3.2,0.8,5,2.4,5c1.6,0,2.4-1.9,2.4-5c0-3.2-0.8-5-2.4-5C91.4,29.2,90.7,31,90.7,34.2z"/>
	<path class="st0" d="M109,30.8c0,1.8-0.8,3.1-1.9,4.3L104,39h5v2.7H100v-2.1l4.6-5.5c1-1.2,1.5-2,1.5-3.2c0-1.1-0.5-1.7-1.6-1.7
		c-1,0-1.7,0.6-1.7,2.1h-2.9c0-3,1.9-4.8,4.7-4.8C107.5,26.5,109,28.2,109,30.8z"/>
	<path class="st0" d="M121.1,34.2c0,4.8-1.9,7.8-5.3,7.8c-3.4,0-5.3-3-5.3-7.8c0-4.8,1.9-7.7,5.3-7.7
		C119.2,26.5,121.1,29.4,121.1,34.2z M113.5,34.2c0,3.2,0.8,5,2.4,5c1.6,0,2.4-1.9,2.4-5c0-3.2-0.8-5-2.4-5
		C114.2,29.2,113.5,31,113.5,34.2z"/>
</g>
</svg>
