<?xml version="1.0" encoding="utf-8"?>
<!-- Generator: Adobe Illustrator 24.0.0, SVG Export Plug-In . SVG Version: 6.00 Build 0)  -->
<svg version="1.1" id="Laag_1" xmlns="http://www.w3.org/2000/svg" xmlns:xlink="http://www.w3.org/1999/xlink" x="0px" y="0px"
	 width="163.6px" height="346.5px" viewBox="0 0 163.6 346.5" style="enable-background:new 0 0 163.6 346.5;" xml:space="preserve"
	>
<style type="text/css">
	.st0{clip-path:url(#SVGID_1_);fill:#FBBF00;}
	.st1{fill:#1D1D1B;}
	.st2{clip-path:url(#SVGID_2_);fill:#1D1D1B;}
	.st3{clip-path:url(#SVGID_3_);fill:#1D1D1B;}
</style>
<g>
	<defs>
		<rect id="SVGID_9_" x="0" width="163.7" height="346.5"/>
	</defs>
	<clipPath id="SVGID_1_">
		<use xlink:href="#SVGID_9_"  style="overflow:visible;"/>
	</clipPath>
	<path class="st0" d="M67.1,207l60.7,25.1c2.3,1,3.7,3.2,3.7,5.6c0,0.8-0.1,1.6-0.5,2.3c-1.3,3.1-4.8,4.5-7.9,3.3l-82.6-34.1
		c-2.6-1.1-4.1-3.7-3.7-6.4c0.4-2.7,2.6-4.8,5.4-5.1l61.8-6.6l-65.9-32.4c-2.4-1.2-3.7-3.8-3.3-6.4c0.4-2.6,2.6-4.6,5.2-5l79.3-9.8
		V81.3L99.2,128c-1.1,2.5-3.6,3.9-6.3,3.6c-2.7-0.3-4.8-2.3-5.3-4.9l-9.4-53.1l-29.4,56.9c-1.2,2.4-3.9,3.7-6.5,3.2
		c-2.6-0.5-4.6-2.6-4.9-5.3l-8.6-75.7c-0.4-3.3,2-6.3,5.4-6.7c3.3-0.4,6.3,2,6.7,5.3l6.3,55.9l28.5-55.1c1.2-2.3,3.7-3.6,6.3-3.2
		c2.6,0.4,4.6,2.4,5.1,4.9l9,50.9l23.8-55.1c1.1-2.6,4-4.1,6.8-3.5c2.8,0.6,4.8,3,4.8,5.9v90.8c0,3-2.3,5.6-5.3,6l-64.5,7.9
		l66.5,32.6c2.4,1.2,3.7,3.8,3.3,6.5c-0.5,2.6-2.6,4.7-5.3,4.9L67.1,207z M163.7,0H0v346.5h163.7V0z"/>
</g>
<polygon class="st1" points="29.1,264.2 36.1,264.2 40.2,277.9 40.3,277.9 44.5,264.2 51.3,264.2 51.3,264.9 48.4,264.9 48.4,282.8 
	51.3,282.8 51.3,283.6 42.1,283.6 42.1,282.8 45.1,282.8 45.1,264.6 45,264.6 39.3,283.6 38.6,283.6 32.8,264.6 32.8,264.6 
	32.8,282.8 35.7,282.8 35.7,283.6 29.1,283.6 29.1,282.8 32,282.8 32,264.9 29.1,264.9 "/>
<g>
	<defs>
		<rect id="SVGID_11_" x="0" width="163.7" height="346.5"/>
	</defs>
	<clipPath id="SVGID_2_">
		<use xlink:href="#SVGID_11_"  style="overflow:visible;"/>
	</clipPath>
	<path class="st2" d="M70.5,264.9h-3.2v-0.7h6.9v0.7h-3.1v11.7c0,1.7-0.1,2.9-0.4,3.8c-0.3,0.8-0.7,1.5-1.4,2
		c-0.7,0.5-1.5,0.9-2.4,1.2c-0.9,0.2-1.9,0.4-2.9,0.4c-2.1,0-3.7-0.3-4.6-1c-1-0.7-1.6-1.5-1.8-2.5c-0.2-1-0.3-2.3-0.3-3.9v-11.7
		h-2.8v-0.7h9.3v0.7h-3.1v11.4c0,1.6,0.1,2.8,0.2,3.7c0.1,0.9,0.5,1.6,1.2,2.2c0.6,0.6,1.6,0.9,3,0.9c1.1,0,2.1-0.2,3-0.7
		c0.9-0.5,1.5-1.1,1.9-1.8c0.4-0.8,0.5-2.2,0.5-4.3V264.9z"/>
	<path class="st2" d="M88.6,264l0.1,5h-0.7c-1-3-2.7-4.5-5.1-4.5c-1.3,0-2.4,0.4-3.2,1.1c-0.7,0.7-1.1,1.5-1.1,2.3
		c0,0.7,0.3,1.4,0.9,1.9c0.6,0.5,1.8,0.9,3.4,1.2c1.7,0.3,2.9,0.6,3.8,1c0.9,0.4,1.6,1.1,2.2,2s0.9,2,0.9,3.3c0,1.9-0.6,3.5-1.9,4.7
		c-1.2,1.3-2.8,1.9-4.6,1.9c-1.5,0-3-0.6-4.5-1.7l-1.4,1.2h-0.5v-5.4h0.6c0.6,1.7,1.4,3,2.4,3.8c1,0.9,2.1,1.3,3.4,1.3
		c1.2,0,2.3-0.4,3.3-1.2c1-0.8,1.5-1.8,1.5-3c0-1-0.4-1.9-1.1-2.6c-0.7-0.7-1.8-1.2-3.4-1.4c-1.6-0.3-2.8-0.6-3.6-0.9
		c-0.8-0.4-1.6-1-2.2-1.8c-0.6-0.9-0.9-1.8-0.9-2.9c0-1.5,0.5-2.8,1.6-3.9c1-1.2,2.5-1.7,4.2-1.7c1.5,0,2.9,0.5,4.2,1.4
		c0.4-0.3,0.7-0.7,0.9-1.2H88.6z"/>
	<path class="st2" d="M99.5,264.9v8.3h1.7c0.6,0,1.1-0.1,1.6-0.2c0.4-0.1,0.8-0.4,1.2-1c0.3-0.5,0.5-1.4,0.6-2.5h0.8v8.2h-0.8
		c-0.1-1.6-0.4-2.6-0.9-3.1c-0.5-0.5-1.3-0.7-2.4-0.7h-1.7v8.9h3.9c2.2,0,3.8-0.5,4.6-1.4c0.9-0.9,1.4-2.4,1.5-4.3h0.8l-0.2,6.5H93
		v-0.7h3.1v-17.9H93v-0.7h16.5l0.3,5.2h-0.8c-0.2-1.6-0.8-2.7-1.5-3.4c-0.8-0.7-2.1-1-3.9-1H99.5z"/>
	<path class="st2" d="M122.5,284c-2.5,0-4.6-1-6.4-3.1c-1.7-2.1-2.6-4.3-2.6-6.7c0-2.9,0.9-5.3,2.8-7.3c1.8-2,4-3,6.4-3
		c2.3,0,4.3,1,6.1,3.1c1.8,2.1,2.7,4.4,2.7,7c0,2.7-0.9,5.1-2.7,7.1C127,283,124.9,284,122.5,284 M122.6,264.5c-1.1,0-2,0.2-2.9,0.7
		c-0.9,0.5-1.4,1.3-1.7,2.5c-0.3,1.2-0.5,3.3-0.5,6.3c0,2.1,0.1,3.7,0.3,5c0.2,1.2,0.6,2.3,1.3,3.1c0.7,0.8,1.8,1.2,3.3,1.2
		c0.9,0,1.8-0.2,2.8-0.7c0.9-0.5,1.5-1.5,1.8-2.9c0.3-1.4,0.4-3.7,0.4-6.6c0-2.7-0.2-4.6-0.5-5.6c-0.4-1-0.9-1.8-1.7-2.2
		C124.5,264.7,123.6,264.5,122.6,264.5"/>
</g>
<polygon class="st1" points="70.6,290.7 70.6,291.5 73.8,291.5 73.8,309.3 70.6,309.3 70.6,310.1 80.4,310.1 80.4,309.3 77.2,309.3 
	77.2,291.5 80.4,291.5 80.4,290.7 "/>
<g>
	<defs>
		<rect id="SVGID_13_" x="0" width="163.7" height="346.5"/>
	</defs>
	<clipPath id="SVGID_3_">
		<use xlink:href="#SVGID_13_"  style="overflow:visible;"/>
	</clipPath>
	<path class="st3" d="M97.7,310.1H82.8v-0.7L94,291.5h-4.6c-1.7,0-2.8,0.3-3.5,1c-0.7,0.7-1.1,1.8-1.4,3.4h-0.7l0.3-5.2H98v0.5
		l-11.3,18.1h4.7c1.4,0,2.4-0.1,3.1-0.4c0.7-0.3,1.3-0.9,1.8-2c0.5-1.1,0.8-2.1,1-3.2H98L97.7,310.1z"/>
</g>
<polygon class="st1" points="100.8,290.7 100.8,291.5 104,291.5 104,309.3 100.8,309.3 100.8,310.1 110.6,310.1 110.6,309.3 
	107.4,309.3 107.4,291.5 110.6,291.5 110.6,290.7 "/>
<g>
	<path class="st1" d="M122.5,310.5c-2.5,0-4.6-1-6.4-3.1c-1.8-2.1-2.6-4.3-2.6-6.7c0-2.9,0.9-5.3,2.8-7.3c1.8-2,4-3,6.4-3
		c2.3,0,4.3,1,6.1,3.1c1.8,2.1,2.7,4.4,2.7,7c0,2.7-0.9,5.1-2.7,7.1C127,309.5,124.9,310.5,122.5,310.5 M122.6,291
		c-1.1,0-2,0.2-2.9,0.7c-0.8,0.5-1.4,1.3-1.7,2.5c-0.3,1.2-0.5,3.3-0.5,6.3c0,2.1,0.1,3.7,0.3,5c0.2,1.2,0.6,2.3,1.3,3.1
		c0.7,0.8,1.8,1.2,3.3,1.2c0.9,0,1.8-0.2,2.8-0.7c0.9-0.5,1.5-1.5,1.8-2.9c0.3-1.4,0.4-3.7,0.4-6.6c0-2.7-0.2-4.6-0.5-5.6
		c-0.4-1-0.9-1.8-1.7-2.2C124.5,291.2,123.6,291,122.6,291"/>
	<path class="st1" d="M35.6,291.5v8.3h1.7c0.6,0,1.1-0.1,1.6-0.2c0.4-0.1,0.8-0.4,1.2-1c0.3-0.5,0.5-1.4,0.6-2.5h0.8v8.2h-0.8
		c-0.1-1.6-0.4-2.6-0.9-3.1c-0.5-0.5-1.3-0.7-2.4-0.7h-1.7v8.9h3.9c2.2,0,3.8-0.5,4.6-1.4c0.9-0.9,1.4-2.4,1.5-4.3h0.7l-0.2,6.5
		H29.1v-0.7h3.1v-17.9h-3.1v-0.7h16.5l0.3,5.2h-0.7c-0.2-1.6-0.8-2.7-1.5-3.4c-0.8-0.7-2.1-1-3.9-1H35.6z"/>
	<path class="st1" d="M61.9,303.6h-3.3v-0.7h10v0.7h-2.8c0,2.5-0.8,4.2-2.4,5.3c-1.6,1.1-3.3,1.6-5,1.6c-2.5,0-4.6-1-6.3-3
		c-1.7-2-2.5-4.4-2.5-7.1c0-2.7,0.9-5.1,2.6-7.1c1.7-2,3.9-3,6.5-3c1.3,0,2.6,0.4,3.8,1.2c0.4,0.2,0.6,0.3,0.8,0.3
		c0.3,0,0.6-0.3,0.9-0.8h0.7l0.2,5.3h-0.7c-0.8-3.5-2.7-5.2-5.7-5.2c-1.5,0-2.7,0.3-3.4,1c-0.7,0.7-1.1,1.6-1.3,2.6
		c-0.2,1.1-0.2,2.6-0.2,4.6c0,3.6,0.1,5.9,0.4,7.1c0.2,1.2,0.7,2,1.5,2.6c0.7,0.6,1.6,0.9,2.7,0.9c0.8,0,1.6-0.2,2.3-0.5
		c0.7-0.3,1.1-0.9,1.2-1.6c0.2-0.7,0.3-1.7,0.3-3.1V303.6z"/>
</g>
</svg>
