<?xml version="1.0" encoding="utf-8"?>
<!-- Generator: Adobe Illustrator 24.3.0, SVG Export Plug-In . SVG Version: 6.00 Build 0)  -->
<svg version="1.1" id="Laag_1" xmlns="http://www.w3.org/2000/svg" xmlns:xlink="http://www.w3.org/1999/xlink" x="0px" y="0px"
	 width="581px" height="211.4px" viewBox="0 0 581 211.4" style="enable-background:new 0 0 581 211.4;" xml:space="preserve">
<style type="text/css">
	.st0{fill:#FFFFFF;}
</style>
<g>
	<path class="st0" d="M2.2,5.5h12.7l20.3,26.1V5.5h13.5v49.3H36.8l-21.1-27v27H2.2V5.5z"/>
	<path class="st0" d="M55.2,35.9v-0.1c0-10.8,8.9-19.9,21.1-19.9c12.2,0,21,8.9,21,19.8v0.1c0,10.8-8.9,19.9-21.1,19.9
		C64,55.7,55.2,46.8,55.2,35.9z M84.3,35.9v-0.1c0-4.7-3.5-8.7-8.2-8.7c-4.9,0-8,3.9-8,8.5v0.1c0,4.6,3.4,8.6,8.1,8.6
		C81.1,44.4,84.3,40.5,84.3,35.9z"/>
	<path class="st0" d="M102.9,16.7h13.4V22c2.5-3.2,6-6.2,11.4-6.2c8.1,0,13,5.4,13,14v24.9h-13.3V34.2c0-4.2-2.2-6.5-5.4-6.5
		c-3.2,0-5.6,2.3-5.6,6.5v20.6h-13.4V16.7z"/>
	<path class="st0" d="M167,16.7h13.4v5.1c2.6-3.2,5.8-5.9,11.5-5.9c9.1,0,16.9,7.5,16.9,19.7v0.1c0,12.4-7.8,19.9-16.8,19.9
		c-5.8,0-9.2-2.6-11.6-5.5v15.9H167V16.7z M195.8,35.8v-0.1c0-5.1-3.5-8.7-7.8-8.7c-4.4,0-7.8,3.6-7.8,8.7v0.1
		c0,5.1,3.5,8.7,7.8,8.7C192.2,44.4,195.8,40.9,195.8,35.8z"/>
	<path class="st0" d="M213.2,35.9v-0.1c0-11.1,8-19.9,19.2-19.9c13.1,0,19.2,9.6,19.2,20.8c0,0.8,0,1.8-0.1,2.7H226
		c1.1,4.2,4.1,6.3,8.2,6.3c3.2,0,5.7-1.2,8.5-3.9l7.4,6.1c-3.7,4.6-8.9,7.7-16.5,7.7C221.6,55.7,213.2,47.7,213.2,35.9z M239.1,32.6
		c-0.5-4.2-3-6.9-6.7-6.9c-3.5,0-5.9,2.7-6.6,6.9H239.1z"/>
	<path class="st0" d="M257.3,16.7h13.4v7.7c2.2-5.2,5.7-8.6,12-8.3v14.1h-1.1c-7,0-10.9,4-10.9,12.7v11.9h-13.4V16.7z"/>
	<path class="st0" d="M285.3,35.9v-0.1c0-12.4,7.8-19.9,16.8-19.9c5.8,0,9.2,2.6,11.6,5.5v-18h13.4v51.4h-13.4v-5.1
		c-2.6,3.2-5.8,5.9-11.5,5.9C293.2,55.6,285.3,48.1,285.3,35.9z M314.1,35.8v-0.1c0-5-3.5-8.7-7.8-8.7c-4.3,0-7.8,3.6-7.8,8.7v0.1
		c0,5.1,3.5,8.7,7.8,8.7C310.6,44.4,314.1,40.8,314.1,35.8z"/>
	<path class="st0" d="M334.4,3.4h13.9v9.9h-13.9V3.4z M334.7,16.7H348v38.1h-13.3V16.7z"/>
	<path class="st0" d="M353.7,43.9v-0.1c0-8,6-12,14.9-12c3.5,0,7,0.6,9.2,1.5v-0.6c0-4-2.5-6.3-7.6-6.3c-4,0-7.1,0.8-10.6,2.1
		l-2.7-9.4c4.3-1.8,8.9-3,15.4-3c6.8,0,11.5,1.6,14.5,4.6c2.9,2.8,4.1,6.8,4.1,12.1v21.9h-13.2v-4c-2.7,2.9-6.3,4.9-11.3,4.9
		C359.2,55.6,353.7,51.4,353.7,43.9z M377.9,41v-1.8c-1.4-0.6-3.3-1-5.3-1c-3.9,0-6.1,1.8-6.1,4.7v0.1c0,2.6,2,4.2,4.7,4.2
		C375.2,47.2,377.9,44.8,377.9,41z"/>
	<path class="st0" d="M397.7,16.7h13.4v5.2c2.5-3.2,6-6.1,11.3-6.1c5.1,0,8.9,2.3,11,6.2c3.3-3.8,7.2-6.2,12.7-6.2
		c8.1,0,13,5.1,13,13.9v25h-13.4V34.1c0-4.2-2-6.4-5.2-6.4c-3.2,0-5.5,2.3-5.5,6.4v20.7h-13.3V34.1c0-4.2-2.1-6.4-5.3-6.4
		c-3.2,0-5.4,2.3-5.4,6.4v20.7h-13.4V16.7z"/>
	<path class="st0" d="M464.6,35.9v-0.1c0-10.8,8.9-19.9,21.1-19.9c12.2,0,21,8.9,21,19.8v0.1c0,10.8-8.9,19.9-21.1,19.9
		C473.4,55.7,464.6,46.8,464.6,35.9z M493.7,35.9v-0.1c0-4.7-3.5-8.7-8.2-8.7c-4.9,0-8,3.9-8,8.5v0.1c0,4.6,3.4,8.6,8.1,8.6
		C490.5,44.4,493.7,40.5,493.7,35.9z"/>
	<path class="st0" d="M510.8,35.9v-0.1c0-10.8,8.3-19.9,20.4-19.9c7.8,0,13,3.4,16.3,8.5l-9,6.8c-1.9-2.5-3.9-4-7.1-4
		c-4.4,0-7.5,3.9-7.5,8.5v0.1c0,4.9,3.1,8.7,7.6,8.7c3.2,0,5.3-1.5,7.3-3.9l8.9,6.5c-3.5,5.2-8.6,8.7-16.9,8.7
		C519.2,55.7,510.8,46.7,510.8,35.9z"/>
	<path class="st0" d="M552.4,3.4h13.9v9.9h-13.9V3.4z M552.7,16.7H566v38.1h-13.3V16.7z"/>
</g>
<g>
	<path class="st0" d="M0,112.7v-0.1c0-12.4,7.8-19.9,16.8-19.9c5.8,0,9.2,2.6,11.6,5.5v-18h13.4v51.4H28.4v-5.1
		c-2.6,3.2-5.8,5.9-11.5,5.9C7.8,132.5,0,124.9,0,112.7z M28.7,112.6v-0.1c0-5-3.5-8.7-7.8-8.7c-4.3,0-7.8,3.6-7.8,8.7v0.1
		c0,5.1,3.5,8.7,7.8,8.7C25.3,121.3,28.7,117.7,28.7,112.6z"/>
	<path class="st0" d="M49.1,80.2H63v9.9H49.1V80.2z M49.4,93.5h13.3v38.1H49.4V93.5z"/>
	<path class="st0" d="M86.8,93.5h14.1l7.3,22.3l7.4-22.3h13.8l-15.2,38.4H102L86.8,93.5z"/>
	<path class="st0" d="M133.8,80.2h13.9v9.9h-13.9V80.2z M134.1,93.5h13.3v38.1h-13.3V93.5z"/>
	<path class="st0" d="M152.1,126.8l5-8c4.4,2.9,9.1,4.4,13,4.4c2.3,0,3.5-0.7,3.5-2v-0.1c0-1.5-2.2-2.2-6.2-3.3
		c-7.5-2-13.5-4.5-13.5-12.1v-0.1c0-8.1,6.5-12.6,15.3-12.6c5.6,0,11.3,1.6,15.7,4.4l-4.6,8.5c-3.9-2.3-8.2-3.6-11.3-3.6
		c-2,0-3.1,0.8-3.1,1.9v0.1c0,1.5,2.3,2.2,6.2,3.4c7.5,2.1,13.5,4.7,13.5,12.1v0.1c0,8.4-6.3,12.7-15.6,12.7
		C163.7,132.5,157.3,130.6,152.1,126.8z"/>
	<path class="st0" d="M192.9,119.8v-15.6h-4.5V93.5h4.5v-9.6h13.3v9.6h8.9v10.7h-8.9v13c0,2.7,1.2,3.8,3.7,3.8
		c1.8,0,3.5-0.5,5.1-1.3v10.4c-2.4,1.3-5.6,2.3-9.3,2.3C197.6,132.4,192.9,128.9,192.9,119.8z"/>
	<path class="st0" d="M219,120.7v-0.1c0-8,6-12,14.9-12c3.5,0,7,0.6,9.2,1.5v-0.6c0-4-2.5-6.3-7.6-6.3c-4,0-7.1,0.8-10.6,2.1
		l-2.7-9.4c4.3-1.8,8.9-3,15.4-3c6.8,0,11.5,1.6,14.5,4.6c2.9,2.8,4.1,6.8,4.1,12.1v21.9H243v-4c-2.7,2.9-6.3,4.9-11.3,4.9
		C224.5,132.5,219,128.2,219,120.7z M243.2,117.8V116c-1.4-0.6-3.3-1-5.3-1c-3.9,0-6.1,1.8-6.1,4.7v0.1c0,2.6,2,4.2,4.7,4.2
		C240.5,124.1,243.2,121.6,243.2,117.8z"/>
	<path class="st0" d="M262.5,117.9h13.9v13.7h-13.9V117.9z"/>
</g>
<g>
	<path class="st0" d="M2.2,159.1h23.3c7.5,0,12.7,2,16.1,5.3c2.9,2.9,4.4,6.6,4.4,11.5v0.1c0,7.6-4,12.6-10.1,15.2l11.8,17.2H31.8
		l-9.9-14.9h-6.1v14.9H2.2V159.1z M24.9,182.8c4.6,0,7.3-2.3,7.3-5.8v-0.1c0-3.9-2.9-5.9-7.4-5.9h-9v11.9H24.9z"/>
	<path class="st0" d="M49.9,189.6v-0.1c0-11.1,8-19.9,19.2-19.9c13.1,0,19.2,9.6,19.2,20.8c0,0.8,0,1.8-0.1,2.7H62.7
		c1.1,4.2,4.1,6.3,8.2,6.3c3.2,0,5.7-1.2,8.5-3.9l7.4,6.1c-3.7,4.6-8.9,7.7-16.5,7.7C58.3,209.4,49.9,201.3,49.9,189.6z M75.8,186.3
		c-0.5-4.2-3-6.9-6.7-6.9c-3.5,0-5.9,2.7-6.6,6.9H75.8z"/>
	<path class="st0" d="M91.2,203.6l5-8c4.4,2.9,9.1,4.4,13,4.4c2.3,0,3.5-0.7,3.5-2v-0.1c0-1.5-2.2-2.2-6.2-3.3
		c-7.5-2-13.5-4.5-13.5-12.1v-0.1c0-8.1,6.5-12.6,15.3-12.6c5.6,0,11.3,1.6,15.7,4.4l-4.6,8.5c-3.9-2.3-8.2-3.6-11.3-3.6
		c-2,0-3.1,0.8-3.1,1.9v0.1c0,1.5,2.3,2.2,6.2,3.4c7.5,2.1,13.5,4.7,13.5,12.1v0.1c0,8.4-6.3,12.7-15.6,12.7
		C102.7,209.3,96.4,207.4,91.2,203.6z"/>
	<path class="st0" d="M132,196.6V181h-4.5v-10.7h4.5v-9.6h13.3v9.6h8.9V181h-8.9v13c0,2.7,1.2,3.8,3.7,3.8c1.8,0,3.5-0.5,5.1-1.3
		V207c-2.4,1.3-5.6,2.3-9.3,2.3C136.7,209.2,132,205.7,132,196.6z"/>
	<path class="st0" d="M158.1,197.5v-0.1c0-8,6-12,14.9-12c3.5,0,7,0.6,9.2,1.5v-0.6c0-4-2.5-6.3-7.6-6.3c-4,0-7.1,0.8-10.6,2.1
		l-2.7-9.4c4.3-1.8,8.9-3,15.4-3c6.8,0,11.5,1.6,14.5,4.6c2.9,2.8,4.1,6.8,4.1,12.1v21.9h-13.2v-4c-2.7,2.9-6.3,4.9-11.3,4.9
		C163.6,209.3,158.1,205.1,158.1,197.5z M182.3,194.6v-1.8c-1.4-0.6-3.3-1-5.3-1c-3.9,0-6.1,1.8-6.1,4.7v0.1c0,2.6,2,4.2,4.7,4.2
		C179.6,200.9,182.3,198.4,182.3,194.6z"/>
	<path class="st0" d="M220.8,183.9v-0.1c0-14.4,11-25.6,25.9-25.6c10.1,0,16.5,4.2,20.9,10.2l-10.3,8c-2.8-3.5-6.1-5.8-10.8-5.8
		c-6.9,0-11.8,5.9-11.8,13.1v0.1c0,7.4,4.9,13.2,11.8,13.2c5.1,0,8.2-2.4,11.1-6l10.3,7.3c-4.6,6.4-10.9,11.1-21.8,11.1
		C232.1,209.4,220.8,198.7,220.8,183.9z"/>
	<path class="st0" d="M271,189.6v-0.1c0-10.8,8.9-19.9,21.1-19.9c12.2,0,21,8.9,21,19.8v0.1c0,10.8-8.9,19.9-21.1,19.9
		C279.8,209.4,271,200.4,271,189.6z M300.1,189.6v-0.1c0-4.7-3.5-8.7-8.2-8.7c-4.9,0-8,3.9-8,8.5v0.1c0,4.6,3.4,8.6,8.1,8.6
		C296.9,198,300.1,194.1,300.1,189.6z"/>
	<path class="st0" d="M318.6,170.3H332v5.4c2.5-3.2,6-6.2,11.4-6.2c8.1,0,13,5.4,13,14v24.9h-13.3v-20.6c0-4.2-2.2-6.5-5.4-6.5
		s-5.6,2.3-5.6,6.5v20.6h-13.4V170.3z"/>
	<path class="st0" d="M363.3,170.3h13.4v5.4c2.5-3.2,6-6.2,11.4-6.2c8.1,0,13,5.4,13,14v24.9h-13.3v-20.6c0-4.2-2.2-6.5-5.4-6.5
		s-5.6,2.3-5.6,6.5v20.6h-13.4V170.3z"/>
	<path class="st0" d="M406.5,189.6v-0.1c0-11.1,8-19.9,19.2-19.9c13.1,0,19.2,9.6,19.2,20.8c0,0.8,0,1.8-0.1,2.7h-25.5
		c1.1,4.2,4.1,6.3,8.2,6.3c3.2,0,5.7-1.2,8.5-3.9l7.4,6.1c-3.7,4.6-8.9,7.7-16.5,7.7C414.9,209.4,406.5,201.3,406.5,189.6z
		 M432.4,186.3c-0.5-4.2-3-6.9-6.7-6.9c-3.5,0-5.9,2.7-6.6,6.9H432.4z"/>
	<path class="st0" d="M447.8,203.6l5-8c4.4,2.9,9.1,4.4,13,4.4c2.3,0,3.5-0.7,3.5-2v-0.1c0-1.5-2.2-2.2-6.2-3.3
		c-7.5-2-13.5-4.5-13.5-12.1v-0.1c0-8.1,6.5-12.6,15.3-12.6c5.6,0,11.3,1.6,15.7,4.4l-4.6,8.5c-3.9-2.3-8.2-3.6-11.3-3.6
		c-2,0-3.1,0.8-3.1,1.9v0.1c0,1.5,2.3,2.2,6.2,3.4c7.5,2.1,13.5,4.7,13.5,12.1v0.1c0,8.4-6.3,12.7-15.6,12.7
		C459.3,209.3,453,207.4,447.8,203.6z"/>
	<path class="st0" d="M483.4,203.6l5-8c4.4,2.9,9.1,4.4,13,4.4c2.3,0,3.5-0.7,3.5-2v-0.1c0-1.5-2.2-2.2-6.2-3.3
		c-7.5-2-13.5-4.5-13.5-12.1v-0.1c0-8.1,6.5-12.6,15.3-12.6c5.6,0,11.3,1.6,15.7,4.4l-4.6,8.5c-3.9-2.3-8.2-3.6-11.3-3.6
		c-2,0-3.1,0.8-3.1,1.9v0.1c0,1.5,2.3,2.2,6.2,3.4c7.5,2.1,13.5,4.7,13.5,12.1v0.1c0,8.4-6.3,12.7-15.6,12.7
		C494.9,209.3,488.6,207.4,483.4,203.6z"/>
	<path class="st0" d="M520.9,189.6v-0.1c0-10.8,8.9-19.9,21.1-19.9c12.2,0,21,8.9,21,19.8v0.1c0,10.8-8.9,19.9-21.1,19.9
		C529.7,209.4,520.9,200.4,520.9,189.6z M550,189.6v-0.1c0-4.7-3.5-8.7-8.2-8.7c-4.9,0-8,3.9-8,8.5v0.1c0,4.6,3.4,8.6,8.1,8.6
		C546.8,198,550,194.1,550,189.6z"/>
	<path class="st0" d="M567.1,194.7H581v13.7h-13.9V194.7z"/>
</g>
</svg>
