<?xml version="1.0" encoding="utf-8"?>
<!-- Generator: Adobe Illustrator 24.3.0, SVG Export Plug-In . SVG Version: 6.00 Build 0)  -->
<svg version="1.1" id="Laag_1" xmlns="http://www.w3.org/2000/svg" xmlns:xlink="http://www.w3.org/1999/xlink" x="0px" y="0px"
	 width="451.9px" height="95.2px" viewBox="0 0 451.9 95.2" style="enable-background:new 0 0 451.9 95.2;" xml:space="preserve">
<style type="text/css">
	.st0{fill:#FFFFFF;}
</style>
<g>
	<path class="st0" d="M400.9,78.2l2.4-0.2c4.5,6.7,7.5,11.7,8.9,14.8c0.3,0.7,0.5,1,0.8,1h6.7c0.3,0,0.5-0.1,0.5-0.4v-0.9
		c0-0.3-0.3-0.4-0.8-0.5c-0.7-0.1-1.1-0.2-1.5-0.5c-0.6-0.4-1.8-2-3.8-4.9s-4-6-6.1-9.3c2.3-0.6,4.1-1.6,5.4-3s1.9-3,1.9-4.9
		c0-1.4-0.4-2.7-1.3-4c-0.8-1.3-2-2.2-3.6-2.8c-1.5-0.6-3.2-0.9-4.9-0.9h-15.3c-0.3,0-0.5,0.1-0.5,0.3v0.8c0,0.4,0.3,0.6,0.9,0.6
		c1.2,0,2.1,0.1,2.5,0.2c0.5,0.2,0.8,0.7,0.9,1.6s0.2,2.7,0.2,5.3V84c0,1.8,0,3.3-0.1,4.6c-0.1,1.3-0.2,2.2-0.3,2.6
		c-0.2,0.5-1.2,0.7-3.1,0.7c-0.6,0-1,0.2-1,0.6v0.9c0,0.2,0.1,0.3,0.4,0.3h13.4c0.3,0,0.5-0.1,0.5-0.3v-1.1c0-0.2-0.2-0.4-0.6-0.4
		c-1.1,0-2,0-2.6-0.1s-1-0.2-1.2-0.3c-0.5-0.3-0.7-2.4-0.7-6.3v-7.1h2V78.2z M401.9,63.4c2.2,0,3.9,0.2,5,0.6
		c1.1,0.4,1.9,1.1,2.4,2.1s0.8,2.1,0.8,3.3c0,2.3-0.9,4-2.6,5.1s-4.4,1.7-8,1.7h-0.6V63.5L401.9,63.4z M369.4,68.1l0.1-2.2l0.1-2.2
		h11.3c1,0,1.8,0.3,2.2,0.8c0.4,0.6,0.6,1.7,0.6,3.5c0,0.4,0.1,0.5,0.4,0.5h1.1c0.2,0,0.2-0.2,0.2-0.6v-5.8c0-0.3-0.2-0.5-0.6-0.5
		h-24.5c-0.4,0-0.6,0.1-0.6,0.3V63c0,0.2,0.3,0.3,0.8,0.3c1.7,0,2.8,0.3,3.4,0.8s0.8,1.9,0.8,4.2v15.8c0,2.7-0.1,4.7-0.4,5.9
		c-0.1,0.6-0.2,1-0.4,1.2c-0.2,0.2-0.6,0.4-1.3,0.5c-0.7,0.2-1.5,0.2-2.4,0.2c-0.4,0-0.6,0.1-0.6,0.3v1c0,0.3,0.1,0.4,0.3,0.4h25.8
		c0.2,0,0.3-0.1,0.3-0.3v-7.1c0-0.3-0.1-0.4-0.3-0.4h-1.1c-0.2,0-0.3,0.2-0.3,0.7c0,0.9,0,1.7-0.1,2.3c-0.1,0.7-0.2,1.2-0.4,1.5
		c-0.2,0.3-0.6,0.6-1.2,0.8c-1.2,0.3-3.1,0.5-5.6,0.5h-7.5c-0.1-2.2-0.2-4.4-0.2-6.6v-7h9.4c1.4,0,2.3,0.3,2.8,0.8s0.7,1.6,0.7,3.1
		c0,0.4,0.1,0.6,0.3,0.6h1c0.3,0,0.4-0.2,0.4-0.5V72c0-0.4-0.1-0.5-0.4-0.5h-0.9c-0.3,0-0.5,0.3-0.5,0.9c0,1.6-0.3,2.6-0.8,3.1
		s-1.6,0.7-3.3,0.7h-8.7v-8.1H369.4z M327.2,62.4v7.9c0,0.2,0.1,0.3,0.3,0.3h0.9c0.3,0,0.4-0.3,0.5-1c0.2-1.4,0.4-2.5,0.6-3.3
		c0.2-0.7,0.5-1.3,0.8-1.6c0.3-0.3,0.9-0.4,1.7-0.4h7.4v20.4c0,2.2-0.2,3.9-0.5,5.3c-0.2,0.7-0.4,1.2-0.6,1.4
		c-0.3,0.2-0.7,0.4-1.3,0.5c-0.6,0.1-1.6,0.2-2.9,0.2c-0.3,0-0.5,0.1-0.5,0.4v0.9c0,0.3,0.1,0.4,0.4,0.4h15.3c0.2,0,0.3-0.1,0.3-0.3
		v-1.2c0-0.2-0.2-0.3-0.7-0.3c-1.4,0-2.3-0.1-2.9-0.2s-1-0.3-1.3-0.5c-0.5-0.5-0.7-3.2-0.7-8.2V64.3h7.3c1,0,1.7,0.3,2,0.8
		s0.7,2.1,1.1,4.8c0.1,0.4,0.1,0.6,0.1,0.6c0,0.1,0.1,0.1,0.2,0.1h1.1c0.2,0,0.3-0.2,0.3-0.5v-7.9c0-0.3-0.2-0.5-0.5-0.5h-28.1
		C327.4,61.7,327.2,61.9,327.2,62.4 M294.7,87.5c-1.4,3-2.8,4.5-4,4.5H290c-0.2,0-0.4,0.1-0.4,0.4v0.8c0,0.3,0.1,0.5,0.2,0.5h10.7
		c0.2,0,0.3-0.1,0.3-0.4v-0.8c0-0.3-0.2-0.5-0.5-0.5h-1.2c-1.5,0-2.3-0.6-2.3-1.7c0-0.4,0.1-0.8,0.3-1.3l2.3-5.5h14.1l1.9,4.8
		c0.3,0.8,0.5,1.5,0.5,2c0,1.1-0.8,1.7-2.4,1.7h-1.3c-0.3,0-0.4,0.1-0.4,0.4v0.8c0,0.3,0.1,0.5,0.4,0.5H325c0,0,0.1,0,0.2-0.1
		c0.1,0,0.1,0,0.1,0l0.2-0.2v-1.1c0-0.2-0.1-0.3-0.4-0.3h-0.7c-0.4,0-0.8-0.2-1.2-0.5c-0.4-0.3-0.8-0.8-1.2-1.6
		c-0.4-0.8-1.7-3.4-3.7-7.7l-9.2-21.1H307L294.7,87.5z M312.9,81.5h-12.4l6.3-14.4L312.9,81.5z M268.9,68.1l0.1-2.2l0.1-2.2h11.3
		c1,0,1.8,0.3,2.2,0.8c0.4,0.6,0.6,1.7,0.6,3.5c0,0.4,0.1,0.5,0.4,0.5h1.1c0.2,0,0.2-0.2,0.2-0.6v-5.8c0-0.3-0.2-0.5-0.6-0.5h-24.5
		c-0.4,0-0.6,0.1-0.6,0.3V63c0,0.2,0.3,0.3,0.8,0.3c1.7,0,2.8,0.3,3.4,0.8s0.8,1.9,0.8,4.2v15.8c0,2.7-0.1,4.7-0.4,5.9
		c-0.1,0.6-0.2,1-0.4,1.2c-0.2,0.2-0.6,0.4-1.3,0.5c-0.7,0.2-1.5,0.2-2.4,0.2c-0.4,0-0.6,0.1-0.6,0.3v1c0,0.3,0.1,0.4,0.3,0.4h25.8
		c0.2,0,0.3-0.1,0.3-0.3v-7.1c0-0.3-0.1-0.4-0.3-0.4h-1.1c-0.2,0-0.3,0.2-0.3,0.7c0,0.9,0,1.7-0.1,2.3c-0.1,0.7-0.2,1.2-0.4,1.5
		c-0.2,0.3-0.6,0.6-1.2,0.8c-1.2,0.3-3.1,0.5-5.6,0.5H269c-0.1-2.2-0.2-4.4-0.2-6.6v-7h9.4c1.4,0,2.3,0.3,2.8,0.8s0.7,1.6,0.7,3.1
		c0,0.4,0.1,0.6,0.3,0.6h1c0.3,0,0.4-0.2,0.4-0.5V72c0-0.4-0.1-0.5-0.4-0.5h-0.9c-0.3,0-0.5,0.3-0.5,0.9c0,1.6-0.3,2.6-0.8,3.1
		s-1.6,0.7-3.3,0.7h-8.7v-8.1H268.9z M224.1,90.8c-0.1,0.4-0.2,0.6-0.4,0.8c-0.1,0.1-0.5,0.3-1,0.3c-0.6,0.1-1.5,0.1-2.8,0.1
		c-0.3,0-0.5,0.1-0.5,0.4v1c0,0.2,0.1,0.3,0.2,0.3h14.3c0.2,0,0.3-0.1,0.3-0.4v-0.9c0-0.3-0.2-0.5-0.5-0.5c-0.1,0-0.2,0-0.2,0
		c-0.9,0-1.6,0-2.2-0.1c-0.6-0.1-1-0.2-1.2-0.3c-0.6-0.4-0.9-2.5-0.9-6.4v-7H246v7.6c0,2.2-0.1,3.8-0.2,4.8
		c-0.1,0.3-0.1,0.6-0.2,0.7c-0.1,0.2-0.4,0.4-0.9,0.6c-0.5,0.1-1.5,0.2-3.2,0.2c-0.3,0-0.5,0.1-0.5,0.4v1.1c0,0.1,0.1,0.2,0.3,0.2
		h14c0.3,0,0.4-0.2,0.4-0.5v-0.9c0-0.2-0.3-0.3-0.8-0.3c-0.7,0-1.4,0-1.9-0.1s-1-0.2-1.3-0.3c-0.3-0.1-0.5-0.5-0.7-1
		c-0.3-1-0.4-1.9-0.4-2.8V69.7c0-1.7,0.1-3,0.2-3.9c0.1-0.9,0.3-1.6,0.6-1.8c0.4-0.4,1.6-0.6,3.6-0.6c0.5,0,0.7-0.1,0.7-0.4v-1
		c0-0.2-0.2-0.2-0.6-0.2h-13.8c-0.2,0-0.3,0.1-0.3,0.4v1c0,0.2,0.3,0.3,0.8,0.3c1.2,0,2.1,0.1,2.7,0.2c0.6,0.2,1,0.5,1.1,1
		c0.3,0.8,0.4,2.3,0.4,4.6v6.4h-16.9v-5.1c0-1.8,0.1-3.3,0.2-4.4c0.1-1.1,0.3-1.9,0.6-2.2c0.3-0.4,1.5-0.6,3.7-0.6
		c0.4,0,0.6-0.2,0.6-0.5V62c0-0.2-0.1-0.3-0.4-0.3h-13.9c-0.3,0-0.4,0-0.4,0.1s-0.1,0.2-0.1,0.3v0.8c0,0.2,0.1,0.3,0.2,0.4
		c0.1,0.1,0.4,0.1,0.8,0.1c1.4,0,2.4,0.1,2.9,0.2c0.5,0.2,0.8,0.5,0.9,0.9c0.2,0.8,0.4,3,0.4,6.8v16.3
		C224.5,88.9,224.3,90,224.1,90.8 M186.5,62.4v7.9c0,0.2,0.1,0.3,0.3,0.3h0.9c0.3,0,0.4-0.3,0.5-1c0.2-1.4,0.4-2.5,0.6-3.3
		c0.2-0.7,0.5-1.3,0.8-1.6c0.3-0.3,0.9-0.4,1.7-0.4h7.4v20.4c0,2.2-0.2,3.9-0.5,5.3c-0.2,0.7-0.4,1.2-0.6,1.4
		c-0.3,0.2-0.7,0.4-1.3,0.5s-1.6,0.2-2.9,0.2c-0.3,0-0.5,0.1-0.5,0.4v0.9c0,0.3,0.1,0.4,0.4,0.4h15.3c0.2,0,0.3-0.1,0.3-0.3v-1.2
		c0-0.2-0.2-0.3-0.7-0.3c-1.4,0-2.3-0.1-2.9-0.2c-0.6-0.1-1-0.3-1.3-0.5c-0.5-0.5-0.7-3.2-0.7-8.2V64.3h7.3c1,0,1.7,0.3,2,0.8
		s0.7,2.1,1.1,4.8c0.1,0.4,0.1,0.6,0.1,0.6c0,0.1,0.1,0.1,0.2,0.1h1.1c0.2,0,0.3-0.2,0.3-0.5v-7.9c0-0.3-0.2-0.5-0.5-0.5H187
		C186.7,61.7,186.5,61.9,186.5,62.4 M140.1,62.4v7.9c0,0.2,0.1,0.3,0.3,0.3h0.9c0.3,0,0.4-0.3,0.5-1c0.2-1.4,0.4-2.5,0.6-3.3
		c0.2-0.7,0.5-1.3,0.8-1.6c0.3-0.3,0.9-0.4,1.7-0.4h7.4v20.4c0,2.2-0.2,3.9-0.5,5.3c-0.2,0.7-0.4,1.2-0.6,1.4
		c-0.3,0.2-0.7,0.4-1.3,0.5s-1.6,0.2-2.9,0.2c-0.3,0-0.5,0.1-0.5,0.4v0.9c0,0.3,0.1,0.4,0.4,0.4h15.3c0.2,0,0.3-0.1,0.3-0.3v-1.2
		c0-0.2-0.2-0.3-0.7-0.3c-1.4,0-2.3-0.1-2.9-0.2c-0.6-0.1-1-0.3-1.3-0.5c-0.5-0.5-0.7-3.2-0.7-8.2V64.3h7.3c1,0,1.7,0.3,2,0.8
		s0.7,2.1,1.1,4.8c0.1,0.4,0.1,0.6,0.1,0.6c0,0.1,0.1,0.1,0.2,0.1h1.1c0.2,0,0.3-0.2,0.3-0.5v-7.9c0-0.3-0.2-0.5-0.5-0.5h-28.1
		C140.2,61.7,140.1,61.9,140.1,62.4 M119,68.1l0.1-2.2l0.1-2.2h11.3c1,0,1.8,0.3,2.2,0.8c0.4,0.6,0.6,1.7,0.6,3.5
		c0,0.4,0.1,0.5,0.4,0.5h1.1c0.2,0,0.2-0.2,0.2-0.6v-5.8c0-0.3-0.2-0.5-0.6-0.5h-24.5c-0.4,0-0.6,0.1-0.6,0.3V63
		c0,0.2,0.3,0.3,0.8,0.3c1.7,0,2.8,0.3,3.4,0.8s0.8,1.9,0.8,4.2v15.8c0,2.7-0.1,4.7-0.4,5.9c-0.1,0.6-0.2,1-0.4,1.2
		c-0.2,0.2-0.6,0.4-1.3,0.5c-0.7,0.2-1.5,0.2-2.4,0.2c-0.4,0-0.6,0.1-0.6,0.3v1c0,0.3,0.1,0.4,0.3,0.4h25.8c0.2,0,0.3-0.1,0.3-0.3
		v-7.1c0-0.3-0.1-0.4-0.3-0.4h-1.1c-0.2,0-0.3,0.2-0.3,0.7c0,0.9-0.1,1.7-0.2,2.3c-0.1,0.7-0.2,1.2-0.4,1.5s-0.6,0.6-1.2,0.8
		c-1.2,0.3-3.1,0.5-5.6,0.5H119c-0.1-2.2-0.2-4.4-0.2-6.6v-7h9.4c1.4,0,2.3,0.3,2.8,0.8s0.7,1.6,0.7,3.1c0,0.4,0.1,0.6,0.3,0.6h1
		c0.3,0,0.4-0.2,0.4-0.5V72c0-0.4-0.1-0.5-0.4-0.5h-0.9c-0.3,0-0.5,0.3-0.5,0.9c0,1.6-0.3,2.6-0.8,3.1s-1.6,0.7-3.3,0.7H119V68.1z
		 M75,90.8c-0.1,0.4-0.2,0.6-0.4,0.8c-0.1,0.1-0.5,0.3-1,0.3C73,92,72,92,70.7,92c-0.3,0-0.5,0.1-0.5,0.4v1c0,0.2,0.1,0.3,0.2,0.3
		h14.3c0.2,0,0.3-0.1,0.3-0.4v-0.9c0-0.3-0.2-0.5-0.5-0.5c-0.1,0-0.2,0-0.2,0c-0.9,0-1.6,0-2.2-0.1s-1-0.2-1.2-0.3
		C80.3,91.1,80,89,80,85.1v-7h16.9v7.6c0,2.2-0.1,3.8-0.2,4.8c-0.1,0.3-0.1,0.6-0.2,0.7c-0.1,0.2-0.4,0.4-0.9,0.6
		C95,92,94,92,92.3,92c-0.3,0-0.5,0.1-0.5,0.4v1.1c0,0.1,0.1,0.2,0.3,0.2h14c0.3,0,0.4-0.2,0.4-0.5v-0.9c0-0.2-0.3-0.3-0.8-0.3
		c-0.7,0-1.4,0-1.9-0.1s-1-0.2-1.3-0.3c-0.3-0.1-0.5-0.5-0.7-1c-0.3-1-0.4-1.9-0.4-2.8V69.7c0-1.7,0.1-3,0.2-3.9s0.3-1.6,0.6-1.8
		c0.4-0.4,1.6-0.6,3.6-0.6c0.5,0,0.7-0.1,0.7-0.4v-1c0-0.2-0.2-0.2-0.6-0.2H92.2c-0.2,0-0.3,0.1-0.3,0.4v1c0,0.2,0.3,0.3,0.8,0.3
		c1.2,0,2.1,0.1,2.7,0.2c0.6,0.2,1,0.5,1.1,1c0.3,0.8,0.4,2.3,0.4,4.6v6.4H80v-5.1c0-1.8,0.1-3.3,0.2-4.4s0.3-1.9,0.6-2.2
		c0.3-0.4,1.5-0.6,3.7-0.6c0.4,0,0.6-0.2,0.6-0.5V62c0-0.2-0.1-0.3-0.4-0.3h-14c-0.3,0-0.4,0-0.4,0.1s-0.1,0.2-0.1,0.3v0.8
		c0,0.2,0.1,0.3,0.2,0.4c0.1,0.1,0.4,0.1,0.8,0.1c1.4,0,2.4,0.1,2.9,0.2c0.5,0.2,0.8,0.5,0.9,0.9c0.2,0.8,0.4,3,0.4,6.8v16.3
		C75.3,88.9,75.2,90,75,90.8 M22.7,90.5c-0.2,0.6-0.5,1-1.1,1.2c-0.5,0.2-1.5,0.3-3.1,0.3c-0.5,0-0.7,0.2-0.7,0.7v0.6
		c0,0.3,0.1,0.4,0.4,0.4h12.3c0.2,0,0.3-0.1,0.3-0.3v-0.8c0-0.4-0.3-0.5-0.8-0.5c-1.1,0-2-0.1-2.5-0.2s-0.9-0.3-1.2-0.5
		c-0.5-0.5-0.8-2.6-0.8-6.2V66.6l3.7,4.3l14,18.3l2.4,3.2l1.2,1.7h2c0.2,0,0.3-0.2,0.3-0.5V68.9c0-2.3,0.1-3.8,0.3-4.5
		c0.1-0.4,0.4-0.7,1-0.8c0.5-0.1,1.5-0.2,2.8-0.2c0.5,0,0.7-0.1,0.7-0.4v-0.9c0-0.3-0.1-0.5-0.4-0.5H41.8c-0.4,0-0.6,0.1-0.6,0.4
		v0.8c0,0.2,0.1,0.4,0.2,0.4c0.1,0.1,0.5,0.1,1,0.1c1.5,0,2.4,0.1,3,0.2c0.5,0.2,0.9,0.6,1,1.4c0.2,0.8,0.2,2,0.2,3.8v16.8l-4-5.1
		l-11.4-15l-2.9-4h-10c-0.2,0-0.4,0.2-0.4,0.6v0.7c0,0.2,0,0.4,0.1,0.4c0.1,0.1,0.2,0.1,0.5,0.1c2.4,0,3.8,0.3,4.1,0.8
		c0.3,0.6,0.4,2.1,0.4,4.6v18.5C23,88.9,22.9,89.9,22.7,90.5 M0.1,62v1.1c0,0.2,0.3,0.3,1,0.3c1.2,0,2.2,0.1,2.8,0.2
		c0.7,0.2,1.1,0.5,1.3,0.9s0.3,1.3,0.3,2.7v15.6c0,2.6,0,4.6-0.1,5.8C5.2,90,5,90.8,4.9,91.2C4.6,91.8,3.2,92,0.7,92
		c-0.1,0-0.1,0-0.2,0C0.2,92,0,92.1,0,92.4v0.9c0,0.3,0.1,0.4,0.3,0.4h14.6c0.2,0,0.3,0,0.4-0.1c0,0,0.1-0.2,0.1-0.5v-0.8
		c0-0.2-0.2-0.3-0.6-0.3c-1.8,0-3-0.1-3.5-0.2c-0.5-0.2-0.8-0.5-0.9-0.9c-0.2-0.8-0.3-2.2-0.3-4.2V69.6c0-1.7,0.1-2.9,0.2-3.7
		c0.1-0.8,0.3-1.3,0.5-1.6c0.4-0.6,1.8-0.9,4-0.9c0.5,0,0.8-0.1,0.8-0.3v-1c0-0.3-0.2-0.4-0.5-0.4H0.5C0.2,61.7,0.1,61.8,0.1,62"/>
	<path class="st0" d="M437.5,1.1V2c0,0.2,0.2,0.3,0.7,0.3c1.9,0,3,0.3,3.4,0.9s0.6,1.9,0.6,4v18.3c0,1.8-0.1,3.1-0.4,3.7
		c-0.2,0.7-0.6,1.1-1.2,1.4s-1.4,0.4-2.5,0.4h-1c-0.2,0-0.3,0-0.3,0.1c0,0,0,0.2,0,0.4v1c0,0.2,0.1,0.3,0.4,0.3h13.9
		c0.5,0,0.8-0.1,0.8-0.2v-1.1c0-0.3-0.1-0.4-0.3-0.4h-1.4c-1.4,0-2.3-0.3-2.9-1c-0.5-0.7-0.8-2-0.8-4V3.8c0-0.8,0-1.7,0.1-2.6
		c0-0.4,0.1-0.6,0.1-0.7c0-0.3-0.1-0.5-0.4-0.5c-0.1,0-0.2,0-0.5,0.1c-1.9,0.3-3.8,0.5-5.5,0.5H438C437.7,0.7,437.5,0.8,437.5,1.1
		 M410.5,7.5c0.1,0,0.3-0.1,0.5-0.4c1.7-2.5,3.9-3.8,6.7-3.8c1.7,0,3.1,0.6,4.3,1.9s1.7,2.8,1.7,4.6c0,2.5-1.1,5.3-3.4,8.4
		c-2.2,3.1-5.6,6.5-10,10.2c-0.9,0.7-1.6,1.4-2.1,1.8v2.1c0,0.2,0.1,0.3,0.4,0.3h20.3c0.2,0,0.3-0.2,0.3-0.6v-6.2
		c0-0.3-0.1-0.4-0.2-0.4h-1.1c-0.3,0-0.4,0.2-0.4,0.5c0,0.4,0,0.8-0.1,1.1c-0.1,0.3-0.2,0.6-0.3,0.8c-0.5,0.6-2.5,1-6.2,1h-8.2v-0.1
		c2-1.5,4.5-3.7,7.6-6.6c3-2.9,5.2-5.4,6.4-7.5c1.2-2.1,1.8-4.2,1.8-6.3c0-2.5-0.8-4.5-2.5-6.1c-1.8-1.4-4-2.2-6.7-2.2
		s-5.1,0.8-7.1,2.5c-0.8,0.7-1.5,1.5-2.1,2.4s-0.9,1.5-0.9,1.9c0,0.1,0,0.1,0.1,0.2l1,0.5C410.4,7.5,410.4,7.5,410.5,7.5 M387,27.6
		c-1.2-2.6-1.8-6.4-1.8-11.5c0-9.5,2.2-14.3,6.7-14.3c4.7,0,7,5.3,7,15.8c0,4.5-0.6,7.9-1.8,10.3c-1.2,2.4-2.9,3.6-5,3.6
		C389.9,31.6,388.2,30.3,387,27.6 M400.4,28.5c2.3-3.3,3.5-7.6,3.5-12.9c0-4.8-1-8.6-3.1-11.4c-2-2.8-4.7-4.2-8.1-4.2
		c-3.7,0-6.7,1.6-9,4.9s-3.4,7.7-3.4,13.2c0,4.8,1,8.6,3.1,11.3c2,2.7,4.8,4,8.2,4C395.1,33.4,398,31.8,400.4,28.5 M356.6,7.5
		c0.1,0,0.3-0.1,0.5-0.4c1.7-2.5,3.9-3.8,6.7-3.8c1.7,0,3.1,0.6,4.3,1.9s1.7,2.8,1.7,4.6c0,2.5-1.1,5.3-3.4,8.4
		c-2.2,3.1-5.6,6.5-10,10.2c-0.9,0.7-1.6,1.4-2.1,1.8v2.1c0,0.2,0.1,0.3,0.4,0.3H375c0.2,0,0.3-0.2,0.3-0.6v-6.2
		c0-0.3-0.1-0.4-0.2-0.4H374c-0.3,0-0.4,0.2-0.4,0.5c0,0.4,0,0.8-0.1,1.1c-0.1,0.3-0.2,0.6-0.3,0.8c-0.5,0.6-2.5,1-6.2,1h-8.2v-0.1
		c2-1.5,4.5-3.7,7.6-6.6c3-2.9,5.2-5.4,6.4-7.5c1.2-2.1,1.8-4.2,1.8-6.3c0-2.5-0.8-4.5-2.5-6.1s-3.9-2.3-6.5-2.3
		c-2.7,0-5.1,0.8-7.1,2.5c-0.8,0.7-1.5,1.5-2.1,2.4s-0.9,1.5-0.9,1.9c0,0.1,0,0.1,0.1,0.2l1,0.5C356.5,7.5,356.5,7.5,356.6,7.5
		 M305.5,29.5c-0.2,0.6-0.5,1-1.1,1.2c-0.5,0.2-1.5,0.3-3.1,0.3c-0.5,0-0.7,0.2-0.7,0.7v0.6c0,0.3,0.1,0.4,0.4,0.4h12.3
		c0.2,0,0.3-0.1,0.3-0.3v-0.8c0-0.4-0.3-0.5-0.8-0.5c-1.1,0-2-0.1-2.5-0.2s-0.9-0.3-1.2-0.5c-0.5-0.5-0.8-2.6-0.8-6.2V5.6l3.7,4.3
		l14,18.3l2.4,3.2l1.2,1.7h2c0.2,0,0.3-0.2,0.3-0.5V7.9c0-2.3,0.1-3.8,0.3-4.5c0.1-0.4,0.4-0.7,1-0.8c0.5-0.1,1.5-0.2,2.8-0.2
		c0.5,0,0.7-0.1,0.7-0.4V1.2c0-0.3-0.1-0.5-0.4-0.5h-11.8c-0.4,0-0.6,0.1-0.6,0.4v0.8c0,0.2,0.1,0.4,0.2,0.4c0.1,0.1,0.5,0.1,1,0.1
		c1.5,0,2.4,0.1,3,0.2c0.5,0.2,0.9,0.6,1,1.4c0.2,0.8,0.2,2,0.2,3.8v16.8l-4-5.1L314,4.7l-2.9-4h-10c-0.2,0-0.4,0.2-0.4,0.6V2
		c0,0.2,0,0.4,0.1,0.4c0.1,0.1,0.2,0.1,0.5,0.1c2.4,0,3.8,0.3,4.1,0.8c0.3,0.6,0.4,2.1,0.4,4.6v18.5
		C305.8,27.9,305.7,28.9,305.5,29.5 M282.8,1v1.1c0,0.2,0.3,0.3,1,0.3c1.2,0,2.2,0.1,2.8,0.2c0.7,0.2,1.1,0.5,1.3,0.9
		c0.2,0.4,0.3,1.3,0.3,2.7v15.6c0,2.6,0,4.6-0.1,5.8c-0.1,1.3-0.2,2.1-0.4,2.5c-0.3,0.5-1.6,0.8-4.1,0.8c-0.1,0-0.1,0-0.2,0
		c-0.3,0-0.5,0.1-0.5,0.4v0.9c0,0.3,0.1,0.4,0.3,0.4h14.6c0.2,0,0.3,0,0.4-0.1c0,0,0.1-0.2,0.1-0.5v-0.8c0-0.2-0.2-0.3-0.6-0.3
		c-1.8,0-3-0.1-3.5-0.2c-0.5-0.2-0.8-0.5-0.9-0.9c-0.2-0.8-0.3-2.2-0.3-4.2v-17c0-1.7,0-2.9,0.1-3.7s0.3-1.3,0.5-1.6
		c0.4-0.6,1.8-0.9,4-0.9c0.5,0,0.8-0.1,0.8-0.3v-1c0-0.3-0.2-0.4-0.5-0.4h-14.5C283,0.7,282.8,0.8,282.8,1 M279.7,17.5h-13.2
		c-0.3,0-0.4,0.1-0.4,0.4v0.9c0,0.3,0.3,0.4,0.8,0.4c1,0,1.8,0.1,2.5,0.2s1.1,0.4,1.3,0.8c0.3,0.7,0.5,2.1,0.5,4.3
		c0,2.1-0.1,4-0.2,5.8c-1.6,0.8-3.4,1.2-5.6,1.2c-3.7,0-6.7-1.4-9-4.2c-2.3-2.8-3.5-6.4-3.5-10.7S254,8.8,256.2,6
		c2.2-2.8,5.1-4.2,8.6-4.2c1.6,0,3.1,0.3,4.6,1c1.4,0.7,2.5,1.7,3.2,3c0.8,1.3,1.1,2.7,1.1,4.1c0,0.3,0.1,0.5,0.3,0.5h1
		c0.2,0,0.3-0.2,0.3-0.6V1.2c-1-0.3-2.4-0.6-4.1-0.8C269.8,0.1,268.3,0,267,0c-4,0-7.4,0.7-10.3,2.2c-2.9,1.4-5.2,3.5-6.8,6.3
		c-1.6,2.7-2.4,5.8-2.4,9.2c0,2.9,0.7,5.6,2.1,8.1c1.4,2.5,3.3,4.4,5.8,5.7s5.5,1.9,9.2,1.9c3.4,0,7.3-0.7,11.6-2.1
		c-0.2-2.7-0.2-5.5-0.2-8.3c0-1.3,0.1-2.1,0.3-2.5c0.2-0.4,0.5-0.7,1-1c0.5-0.2,1.2-0.4,2.1-0.4c0.5,0,0.7,0,0.8-0.1
		c0.1-0.1,0.2-0.2,0.2-0.5v-0.7C280.2,17.7,280,17.5,279.7,17.5 M226.5,7.1l0.1-2.2l0.1-2.2H238c1,0,1.8,0.3,2.2,0.8
		c0.4,0.6,0.6,1.7,0.6,3.5c0,0.4,0.1,0.5,0.4,0.5h1.1c0.2,0,0.2-0.2,0.2-0.6V1.2c0-0.3-0.2-0.5-0.6-0.5h-24.5
		c-0.4,0-0.6,0.1-0.6,0.3v1.1c0,0.2,0.3,0.3,0.8,0.3c1.7,0,2.8,0.3,3.4,0.8c0.6,0.5,0.8,1.9,0.8,4.2v15.8c0,2.7-0.1,4.7-0.4,5.9
		c-0.1,0.6-0.2,1-0.4,1.2s-0.6,0.4-1.3,0.5c-0.7,0.2-1.5,0.2-2.4,0.2c-0.4,0-0.6,0.1-0.6,0.3v1c0,0.3,0.1,0.4,0.3,0.4h25.8
		c0.2,0,0.3-0.1,0.3-0.3v-7.1c0-0.3-0.1-0.4-0.3-0.4h-1.1c-0.2,0-0.3,0.2-0.3,0.7c0,0.9-0.1,1.7-0.1,2.3c-0.1,0.7-0.2,1.2-0.4,1.5
		s-0.6,0.6-1.2,0.8c-1.2,0.3-3.1,0.5-5.6,0.5h-7.5c-0.1-2.2-0.2-4.4-0.2-6.6v-7h9.4c1.4,0,2.3,0.3,2.8,0.8s0.7,1.6,0.7,3.1
		c0,0.4,0.1,0.6,0.3,0.6h1c0.3,0,0.4-0.2,0.4-0.5V11c0-0.4-0.1-0.5-0.4-0.5h-0.9c-0.3,0-0.5,0.3-0.5,0.9c0,1.6-0.3,2.6-0.8,3.1
		s-1.6,0.7-3.3,0.7h-8.7V7.1H226.5z M187.6,2.4h1.6c1.6,0,2.4,1.3,2.4,3.8v20.3c0,3-0.9,4.5-2.6,4.5h-1.8c-0.3,0-0.5,0.1-0.5,0.3
		l0.1,1.2c0,0.1,0.1,0.2,0.4,0.2h14.4c2.5,0,4.6-0.3,6.1-1c1.6-0.7,2.8-1.7,3.7-3.1s1.4-2.8,1.4-4.3c0-2.4-0.8-4.3-2.5-5.8
		c-1.6-1.5-3.9-2.4-6.9-2.8v-0.1c2.5-0.5,4.5-1.4,5.8-2.7s2-3,2-4.9c0-2.3-0.8-4.1-2.5-5.4s-4-1.9-7-1.9h-14.2
		c-0.3,0-0.5,0.1-0.5,0.2v1.2C187.1,2.3,187.2,2.4,187.6,2.4 M198.7,17c2.8,0,5,0.6,6.5,1.8c1.6,1.2,2.3,2.9,2.3,5
		c0,2.2-0.8,3.9-2.4,5.2c-1.6,1.3-3.8,1.9-6.5,1.9c-0.8,0-1.6-0.1-2.4-0.2V17.2C197.1,17,197.9,17,198.7,17 M199.2,2.5
		c2.2,0,3.9,0.5,5.2,1.5s2,2.4,2,4.1c0,2.1-0.8,3.7-2.4,5c-1.6,1.3-3.7,1.9-6.3,1.9c-0.5,0-1,0-1.5-0.1V2.8
		C197.3,2.6,198.2,2.5,199.2,2.5 M163.1,17.4c0.9,0,1.6,0.1,2.1,0.3c0.5,0.2,0.9,0.7,1.1,1.5c0.2,0.8,0.3,1.7,0.3,2.7
		c0,0.4,0.1,0.7,0.4,0.7h1c0.3,0,0.4-0.2,0.4-0.5V11c0-0.4-0.2-0.6-0.5-0.6h-0.7c-0.2,0-0.3,0-0.4,0.1c0,0.1-0.1,0.3-0.1,0.7
		c0,0.9-0.1,1.7-0.3,2.5s-0.6,1.3-1.2,1.5c-0.6,0.2-1.6,0.3-3,0.3h-6.8V7.7c0-2.2,0-3.8,0.1-4.9h7.1c1.9,0,3.2,0.1,4.1,0.2
		c0.8,0.2,1.4,0.6,1.7,1.2c0.3,0.7,0.4,1.4,0.4,2.4c0,0.1,0,0.3,0,0.4v0.1c0,0.3,0.2,0.5,0.7,0.5h0.6c0.3,0,0.5-0.1,0.5-0.2V1.2
		c0-0.3-0.1-0.5-0.4-0.5h-23.6c-0.2,0-0.3,0.1-0.3,0.4v1.2c0,0.1,0.2,0.2,0.7,0.2c1.4,0,2.3,0.1,2.7,0.3s0.7,0.9,0.9,1.9
		c0.2,1.1,0.2,2.9,0.2,5.4v13.5c0,2.8-0.1,4.7-0.4,5.8c-0.1,0.3-0.2,0.6-0.3,0.7c-0.2,0.3-0.6,0.5-1.2,0.7c-0.6,0.2-1.4,0.3-2.3,0.3
		c-0.3,0-0.4,0.2-0.4,0.5v0.8c0,0.3,0.1,0.4,0.4,0.4h14.7c0.3,0,0.4-0.1,0.4-0.3v-1.2c0-0.2-0.2-0.3-0.5-0.3c-1.5,0-2.8-0.1-3.8-0.3
		c-0.5-0.1-0.9-0.2-1.1-0.4c-0.3-0.1-0.4-0.6-0.5-1.3c-0.2-1.3-0.3-3.2-0.3-5.7v-6L163.1,17.4L163.1,17.4z M112.7,26.5
		c-1.4,3-2.8,4.5-4,4.5H108c-0.2,0-0.4,0.1-0.4,0.4v0.8c0,0.3,0.1,0.5,0.2,0.5h10.7c0.2,0,0.3-0.1,0.3-0.4v-0.8
		c0-0.3-0.2-0.5-0.5-0.5h-1.2c-1.5,0-2.3-0.6-2.3-1.7c0-0.4,0.1-0.8,0.3-1.3l2.3-5.5h14.1l1.9,4.8c0.3,0.8,0.5,1.5,0.5,2
		c0,1.1-0.8,1.7-2.4,1.7h-1.3c-0.3,0-0.4,0.1-0.4,0.4v0.8c0,0.3,0.1,0.5,0.4,0.5H143c0,0,0.1,0,0.2-0.1c0.1,0,0.1,0,0.1,0l0.2-0.2
		v-1.1c0-0.2-0.1-0.3-0.4-0.3h-0.7c-0.4,0-0.8-0.2-1.2-0.5s-0.8-0.8-1.2-1.5c-0.4-0.8-1.7-3.4-3.7-7.7l-9.2-21.1H125L112.7,26.5z
		 M130.9,20.5h-12.4l6.3-14.4L130.9,20.5z M75.4,29.5c-0.2,0.6-0.5,1-1.1,1.2c-0.5,0.2-1.5,0.3-3.1,0.3c-0.5,0-0.7,0.2-0.7,0.7v0.6
		c0,0.3,0.1,0.4,0.4,0.4h12.3c0.2,0,0.3-0.1,0.3-0.3v-0.8c0-0.4-0.3-0.5-0.8-0.5c-1.1,0-2-0.1-2.5-0.2s-0.9-0.3-1.2-0.5
		c-0.5-0.5-0.8-2.6-0.8-6.2V5.6L82,10l14,18.3l2.4,3.2l1.2,1.7h2c0.2,0,0.3-0.2,0.3-0.5V7.9c0-2.3,0.1-3.8,0.3-4.5
		c0.1-0.4,0.4-0.7,1-0.8c0.5-0.1,1.5-0.2,2.8-0.2c0.5,0,0.7-0.1,0.7-0.4V1.2c0-0.3-0.1-0.5-0.4-0.5H94.5c-0.4,0-0.6,0.1-0.6,0.4v0.8
		c0,0.2,0.1,0.4,0.2,0.4c0.1,0.1,0.5,0.1,1,0.1c1.5,0,2.4,0.1,3,0.2c0.5,0.2,0.9,0.6,1,1.4c0.2,0.8,0.2,2,0.2,3.8v16.8l-4-5.1
		l-11.4-15l-2.9-4H71c-0.2,0-0.4,0.2-0.4,0.6v0.7c0,0.2,0,0.4,0.1,0.4c0.1,0.1,0.2,0.1,0.5,0.1c2.4,0,3.8,0.3,4.1,0.8
		c0.3,0.6,0.4,2.1,0.4,4.6v18.5C75.7,27.9,75.6,28.9,75.4,29.5 M36.9,26.5c-1.4,3-2.8,4.5-4,4.5h-0.7c-0.2,0-0.4,0.1-0.4,0.4v0.8
		c0,0.3,0.1,0.5,0.2,0.5h10.7c0.2,0,0.3-0.1,0.3-0.4v-0.8c0-0.3-0.2-0.5-0.5-0.5h-1.2c-1.5,0-2.3-0.6-2.3-1.7c0-0.4,0.1-0.8,0.3-1.3
		l2.3-5.5H56l1.9,4.8c0.3,0.8,0.5,1.5,0.5,2c0,1.1-0.8,1.7-2.4,1.7h-1.3c-0.3,0-0.4,0.1-0.4,0.4v0.8c0,0.3,0.1,0.5,0.4,0.5h12.6
		c0,0,0.1,0,0.2-0.1c0.1,0,0.1,0,0.1,0l0.2-0.2v-1.1c0-0.2-0.1-0.3-0.4-0.3h-0.7c-0.4,0-0.8-0.2-1.2-0.5c-0.4-0.3-0.8-0.8-1.2-1.5
		c-0.4-0.8-1.7-3.4-3.7-7.7L51.3,0.1h-2.1L36.9,26.5z M55.2,20.5H42.8L49,6.1L55.2,20.5z M14.9,32.6c0.2,0.5,0.4,0.8,0.7,0.8H17
		c0.3,0,0.4-0.1,0.6-0.2c0.1-0.1,0.3-0.5,0.5-1.1c0.3-0.7,0.5-1.4,0.7-2l1.5-3.6C24.6,15.9,27.4,9.3,28.4,7c1.1-2.3,1.9-3.7,2.4-4
		c0.4-0.3,1.1-0.5,2.1-0.5c0.2,0,0.3-0.2,0.3-0.7V1.2c0-0.3-0.2-0.5-0.6-0.5H22c-0.3,0-0.5,0.1-0.5,0.4V2c0,0.3,0.3,0.5,0.9,0.5
		c1.3,0,2.3,0.1,2.9,0.2c0.6,0.2,0.9,0.6,0.9,1.3c0,0.4-0.2,1.1-0.5,2l0,0c-1.2,3.5-3.2,8.6-5.9,15.5l-2.3,5.7
		c-1.1-2.7-2.2-5.5-3.3-8.3s-2.2-5.8-3.3-9s-1.5-5-1.5-5.8c0-0.7,0.3-1.2,1-1.3c0.7-0.2,1.7-0.3,3.1-0.3c0.6,0,0.8-0.2,0.8-0.5V1.1
		c0-0.3-0.2-0.4-0.7-0.4h-13c-0.3,0-0.4,0.2-0.4,0.5V2c0,0.3,0.2,0.5,0.6,0.5C1.5,2.5,2,2.7,2.4,3s1,1.3,1.8,3s1.6,3.5,2.3,5.4
		l8.2,21.1L14.9,32.6z"/>
</g>
</svg>
