<?xml version="1.0" encoding="utf-8"?>
<!-- Generator: Adobe Illustrator 24.0.0, SVG Export Plug-In . SVG Version: 6.00 Build 0)  -->
<svg version="1.1" id="Layer_1" xmlns="http://www.w3.org/2000/svg" xmlns:xlink="http://www.w3.org/1999/xlink" x="0px" y="0px"
	 width="120px" height="27px" viewBox="0 0 120 27" style="enable-background:new 0 0 120 27;" xml:space="preserve">
<style type="text/css">
	.st0{fill:#069BBC;}
</style>
<g>
	<path class="st0" d="M33,17.9l-0.1,0.1h-0.7l-0.1-0.1l-3.2-8.5V9.1L29,8.9h0.4l0.1,0.1l3,7.9h0.1l3-7.9l0.1-0.1h0.4l0.1,0.1v0.4
		L33,17.9z"/>
	<path class="st0" d="M38.1,10.5h-0.5l-0.1-0.1V9.6l0.1-0.1h0.5l0.1,0.1v0.8L38.1,10.5z M38.1,18.1h-0.5l-0.1-0.1v-6.2l0.1-0.1h0.5
		l0.1,0.1v6.2L38.1,18.1z"/>
	<path class="st0" d="M44.6,18.1h-0.3l-0.3-0.1l-2.3-3h-0.1l-0.9,0.9l-0.1,0.3v1.8l-0.1,0.1h-0.5l-0.1-0.1V9.1l0.1-0.1h0.5l0.1,0.1
		v5.7h0.1l3.1-3.1l0.3-0.1h0.3l0.1,0.1v0.4l-2.2,2.2v0.1l2.5,3.1v0.4L44.6,18.1z"/>
	<path class="st0" d="M49.1,18.1h-0.9c-0.9,0-1.6-0.5-1.6-1.4v-4.3l-0.1-0.1h-1l-0.1-0.1v-0.4l0.1-0.1h1l0.1-0.1v-1.2l0.1-0.1h0.5
		l0.1,0.1v1.2l0.1,0.1h1.6l0.1,0.1v0.4l-0.1,0.1h-1.6l-0.1,0.1v4.3c0,0.5,0.3,0.8,0.8,0.8h0.9l0.1,0.1v0.4L49.1,18.1z"/>
	<path class="st0" d="M49.9,14.8c0-2.2,1.3-3.4,3-3.4c1.7,0,3,1.2,3,3.4s-1.3,3.4-3,3.4C51.2,18.2,49.9,17,49.9,14.8z M50.7,14.8
		c0,1.7,0.9,2.7,2.2,2.7c1.3,0,2.2-1,2.2-2.7s-0.9-2.7-2.2-2.7C51.6,12.1,50.7,13.1,50.7,14.8z"/>
	<path class="st0" d="M60.3,11.6l0.1,0.1v0.4l-0.1,0.1h-0.7c-1.3,0-1.8,0.9-1.8,2.2v3.5l-0.1,0.1h-0.5l-0.1-0.1v-6.2l0.1-0.1h0.4
		l0.1,0.1l0.1,0.8H58c0.4-0.7,1-0.9,1.8-0.9H60.3z"/>
	<path class="st0" d="M69,17.9l-0.1,0.1h-0.3l-0.3-0.1L67.5,17h-0.1c-0.7,0.7-1.6,1.2-3.1,1.2c-1.8,0-3-1.2-3-2.7
		c0-1.4,0.9-2.2,2-2.6v-0.1c-0.4-0.4-0.9-1-0.9-2s0.5-2,2.1-2c1.4,0,2,1,2,1.8c0,1.4-0.9,2-1.7,2.3v0.1l2.6,2.6h0.1
		c0.3-0.5,0.4-1.3,0.4-2.6l0.1-0.1h0.5l0.1,0.1c0,1.6-0.3,2.5-0.7,3.1v0.1l1.2,1.2V17.9z M66.8,16.4l-3-3h-0.1
		c-1.2,0.4-1.7,1-1.7,2.1c0,1.2,0.8,2.1,2.2,2.1c1.2,0,2.1-0.4,2.6-1V16.4z M64.4,9.5c-0.9,0-1.3,0.5-1.3,1.3c0,0.7,0.3,1,0.9,1.7
		h0.3c0.8-0.4,1.3-0.8,1.3-1.7C65.5,10.1,65.3,9.5,64.4,9.5z"/>
	<path class="st0" d="M73.7,13.9h-2.2L71.4,14v3.9l-0.1,0.1h-0.5l-0.1-0.1V9.1l0.1-0.1h3.8c2,0,2.9,0.8,2.9,2.5
		c0,2.1-1.6,2.5-2.5,2.5V14l2.2,3.5v0.4L77,18.1h-0.3l-0.3-0.1L74,14L73.7,13.9z M74.6,9.6h-3.1l-0.1,0.1v3.4l0.1,0.1h3
		c1.3,0,2.1-0.4,2.1-1.8C76.6,10,75.8,9.6,74.6,9.6z"/>
	<path class="st0" d="M78.1,14.8c0-2.2,1.3-3.4,3-3.4s3,1.2,3,3.4s-1.3,3.4-3,3.4S78.1,17,78.1,14.8z M78.9,14.8
		c0,1.7,0.9,2.7,2.2,2.7s2.2-1,2.2-2.7s-0.9-2.7-2.2-2.7S78.9,13.1,78.9,14.8z"/>
	<path class="st0" d="M85.9,18.1h-0.5l-0.1-0.1V9.1l0.1-0.1h0.5l0.1,0.1v8.8L85.9,18.1z"/>
	<path class="st0" d="M91.1,9.6V10L91,10.1h-0.9c-0.5,0-0.8,0.3-0.8,0.8v0.5l0.1,0.1h1.4l0.1,0.1v0.4l-0.1,0.1h-1.4l-0.1,0.1v5.6
		l-0.1,0.1h-0.5l-0.1-0.1v-5.6l-0.1-0.1h-1l-0.1-0.1v-0.4l0.1-0.1h1l0.1-0.1v-0.5c0-0.9,0.6-1.4,1.6-1.4H91L91.1,9.6z"/>
</g>
</svg>
