<?xml version="1.0" encoding="utf-8"?>
<!-- Generator: Adobe Illustrator 24.0.0, SVG Export Plug-In . SVG Version: 6.00 Build 0)  -->
<svg version="1.1" id="Laag_1" xmlns="http://www.w3.org/2000/svg" xmlns:xlink="http://www.w3.org/1999/xlink" x="0px" y="0px"
	 width="25.1px" height="15.8px" viewBox="0 0 25.1 15.8" style="enable-background:new 0 0 25.1 15.8;" xml:space="preserve">
<style type="text/css">
	.st0{fill:#F7DBE9;}
</style>
<path class="st0" d="M7.3,5.2c-1,0-1.3,0-1.3,0S6,5.1,6,4.2V2.3C6,1.4,6,1.2,6,1.2s0.3,0,1.2,0c1.1,0,2.6,0,2.6,2
	C9.8,5.2,8.3,5.2,7.3,5.2z M7.5,2C7.2,2,7.2,2,7.2,2v2.5c0,0,0.1,0,0.4,0c0.6,0,1.1-0.2,1.1-1.3C8.6,2.1,8.1,2,7.5,2z M11.9,3.9
	c-0.4,0-0.6-0.1-0.6-0.1c0,0.5,0.3,0.9,1,0.9c0.6,0,0.8-0.3,0.8-0.3L13.3,5c0,0-0.3,0.3-1.3,0.3c-1.2,0-1.7-0.6-1.7-1.6
	C10.4,2.8,10.9,2,12,2c1,0,1.4,0.4,1.4,1C13.3,3.5,13,3.9,11.9,3.9z M12,2.4c-0.4,0-0.7,0.3-0.7,0.9c0,0,0.1,0,0.5,0
	c0.4,0,0.7-0.1,0.7-0.5C12.5,2.8,12.5,2.4,12,2.4z M5.8,5.6c0,0-0.1,0.1-0.2,1L5.4,8.5c0,0.3-0.1,0.7-0.1,1c0,0.1,0,0.1,0,0.1H4.2
	c0,0,0.1-0.1,0.2-1l0.3-2.2c0,0-0.1,0.4-0.2,0.6l-1,2.6H2.3L1.9,7c0-0.3,0-0.6,0-0.6L1.6,8.5c0,0.3-0.1,0.7-0.1,1v0.1h-1
	c0,0,0.1-0.1,0.2-1L1,6.8c0-0.3,0.1-0.7,0.1-1c0-0.1,0-0.1,0-0.1h1.6L3,8.1c0,0.3,0,0.7,0,0.7s0.1-0.3,0.2-0.7l1-2.5H5.8z M9.3,6.4
	L9,8.8c0,0.3,0,0.4,0,0.5c0,0.2,0,0.3,0,0.3L8.3,9.7c0,0,0-0.1,0-0.3c0-0.2,0-0.4,0-0.4S8,9.7,7.2,9.7c-0.8,0-1-0.5-1-0.9
	c0-0.6,0.2-1.6,0.2-2c0-0.2-0.1-0.3-0.1-0.3l0.7-0.1c0,0,0,0.1,0,0.3c0,0.4-0.2,1.4-0.2,1.9c0,0.2,0.1,0.5,0.5,0.5
	c0.7,0,0.9-0.7,0.9-0.7l0.3-2L9.3,6.4z M11.9,7.2c0,0-0.3-0.3-0.9-0.3c-0.4,0-0.5,0.2-0.5,0.4c0,0.2,0.1,0.3,0.6,0.6
	C11.5,8,12,8.2,12,8.8c0,0.5-0.3,0.9-1.2,0.9c-0.8,0-1.2-0.3-1.2-0.3l0.2-0.5c0,0,0.2,0.3,0.9,0.3c0.3,0,0.5-0.1,0.5-0.4
	c0-0.3-0.2-0.4-0.5-0.5c-0.4-0.2-0.9-0.4-0.9-1c0-0.4,0.2-0.9,1.1-0.9c0.7,0,1.1,0.3,1.1,0.3L11.9,7.2z M13.9,8.3
	c-0.4,0-0.6,0-0.6,0v0.2c0,0.4,0.2,0.8,0.9,0.8c0.6,0,0.8-0.3,0.8-0.3l0.2,0.5c0,0-0.3,0.3-1.1,0.3c-1.1,0-1.4-0.7-1.4-1.4
	c0-1.5,0.9-1.9,1.7-1.9c0.6,0,1.2,0.2,1.2,0.9C15.4,8,14.9,8.3,13.9,8.3z M14.2,6.8c-0.4,0-0.8,0.3-0.9,1c0,0,0.2,0,0.5,0
	c0.6,0,0.9-0.1,0.9-0.6C14.8,6.9,14.4,6.8,14.2,6.8z M19,6.4l-0.3,2.3c0,0.3,0,0.4,0,0.5c0,0.2,0,0.3,0,0.3L18,9.7c0,0,0-0.1,0-0.3
	c0-0.2,0-0.4,0-0.4s-0.3,0.6-1.1,0.6c-0.8,0-1-0.5-1-0.9c0-0.6,0.2-1.6,0.2-2c0-0.2-0.1-0.3-0.1-0.3l0.7-0.1c0,0,0,0.1,0,0.3
	c0,0.4-0.2,1.4-0.2,1.9c0,0.2,0.1,0.5,0.5,0.5c0.7,0,0.9-0.7,0.9-0.7l0.3-2L19,6.4z M24.4,9.3c0,0.2,0.1,0.3,0.1,0.3l-0.7,0.1
	c0,0-0.1-0.1-0.1-0.3c0-0.4,0.2-1.4,0.2-1.9c0-0.2,0-0.5-0.5-0.5c-0.6,0-0.9,0.7-0.9,0.7s0,0.3-0.1,0.4l-0.2,1.6h-0.7l0.2-1.6
	c0-0.2,0.1-0.5,0.1-0.6c0-0.3,0-0.6-0.5-0.6c-0.6,0-0.9,0.7-0.9,0.7l-0.3,2h-0.7l0.3-2.3c0-0.2,0-0.4,0-0.5c0-0.2,0-0.3,0-0.3
	l0.7-0.1c0,0,0.1,0.1,0.1,0.3c0,0.2,0,0.3,0,0.3s0.3-0.6,1-0.6c0.9,0,0.9,0.6,0.9,0.6s0.3-0.6,1.1-0.6c0.4,0,1,0.1,1,0.9
	C24.6,8,24.4,8.8,24.4,9.3z M5,11.4c0,0-0.3-0.1-1-0.1H3.6v0.9h0.3c0.7,0,1-0.1,1-0.1V13c0,0-0.2-0.1-1-0.1H3.6v0.6
	c0,0.9,0.1,1.1,0.1,1.1H2.4c0,0,0.1-0.1,0.1-1v-1.9c0-0.9-0.1-1.1-0.1-1.1H5V11.4z M7.9,14.6c0,0-0.1-0.1-0.1-0.4
	c-0.1,0.2-0.4,0.4-1,0.4c-1,0-1.4-0.8-1.4-1.6c0-0.9,0.4-1.7,1.6-1.7c0.6,0,0.9,0.2,0.9,0.2l0.7-0.2v2.3c0,0.7,0.1,0.9,0.1,0.9
	L7.9,14.6z M7.7,12.1c0,0-0.1-0.3-0.6-0.3c-0.7,0-0.8,0.6-0.8,1.1c0,0.6,0.2,1.1,0.8,1.1c0.5,0,0.6-0.3,0.6-0.3V12.1z M11.1,14.6
	c-0.6,0-0.9-0.2-0.9-0.2l-0.6,0.2V11c0-0.6-0.1-0.8-0.1-0.8l0.9-0.1v1.6c0.1-0.1,0.3-0.4,1-0.4c1,0,1.4,0.8,1.4,1.6
	C12.7,13.8,12.2,14.6,11.1,14.6z M11,11.9c-0.5,0-0.6,0.3-0.6,0.3v1.6c0,0,0.1,0.3,0.6,0.3c0.7,0,0.9-0.6,0.9-1.1
	C11.8,12.3,11.6,11.9,11,11.9z M15.3,12.1c0,0-0.1-0.2-0.5-0.2c-0.2,0-0.4,0.1-0.6,0.4v2.3h-0.8v-2.3c0-0.7-0.1-0.9-0.1-0.9l0.8-0.1
	c0,0,0.1,0.1,0.1,0.5c0.1-0.2,0.3-0.5,0.8-0.5c0.4,0,0.5,0.1,0.5,0.1L15.3,12.1z M16,14.6c0,0-0.2-0.1-0.2-0.7l0-1.7
	c0-0.6-0.1-0.8-0.1-0.8l0.9-0.1l0,2.4c0,0.6,0.2,0.7,0.2,0.7L16,14.6z M16.3,10.8c-0.3,0-0.5-0.1-0.5-0.4c0-0.3,0.2-0.4,0.5-0.4
	c0.3,0,0.5,0.1,0.5,0.3C16.8,10.7,16.6,10.8,16.3,10.8z M18.9,13.2c-0.4,0-0.6-0.1-0.6-0.1c0,0.5,0.3,0.9,1,0.9
	c0.6,0,0.8-0.3,0.8-0.3l0.3,0.5c0,0-0.3,0.3-1.3,0.3c-1.2,0-1.7-0.6-1.7-1.6c0-0.9,0.5-1.7,1.6-1.7c1,0,1.4,0.4,1.4,1
	C20.3,12.8,20,13.2,18.9,13.2z M19,11.8c-0.4,0-0.7,0.3-0.7,0.9c0,0,0.1,0,0.5,0c0.4,0,0.7-0.1,0.7-0.5C19.5,12.1,19.5,11.8,19,11.8
	z M23.9,11.3c0,0-0.2,0.2-0.4,0.5l-0.8,1c0.5,0.4,0.8,1.1,0.9,1.3c0.2,0.4,0.3,0.4,0.3,0.4l-1.1,0.1c-0.3-0.7-0.6-1.3-1.1-1.7v1.6
	h-0.8V11c0-0.6-0.1-0.8-0.1-0.8l0.9-0.1v2.7l0.8-1c0.3-0.4,0.3-0.5,0.3-0.5H23.9z"/>
</svg>
