<?xml version="1.0" encoding="utf-8"?>
<!-- Generator: Adobe Illustrator 24.0.0, SVG Export Plug-In . SVG Version: 6.00 Build 0)  -->
<svg version="1.1" id="Laag_1" xmlns="http://www.w3.org/2000/svg" xmlns:xlink="http://www.w3.org/1999/xlink" x="0px" y="0px"
	 width="66.9px" height="33.7px" viewBox="0 0 66.9 33.7" style="enable-background:new 0 0 66.9 33.7;" xml:space="preserve">
<style type="text/css">
	.st0{fill:#383684;}
</style>
<g>
	<g>
		<g>
			<path class="st0" d="M24.7,15.8c-0.8-0.5-0.9-1.2-0.9-3.6V4.2c0-2,0.1-4.2,0.1-4.2l-3.7,0.5l0.2,0.4c0.4,0.7,0.5,1.3,0.5,5v2.7
				c0,1.9-0.1,3.7-0.1,5.8c0,1,0.1,2,1.9,2C24,16.4,24.6,15.9,24.7,15.8 M20.4,4.5c0,0-0.6,0-1.9,0c-1.4,0-2.1,0-2.1,0
				C16.6,4.6,17,5,17,5.8c0,2.3-1.6,7.6-2.3,9c0,0-0.1-0.7-0.3-1.3l-1.2-4.5c-0.5-1.8-0.7-2.8-0.7-3.4c0-0.7,0.4-1.1,0.6-1.2
				c0,0-0.7,0-2.4,0c-1.6,0-2.3,0-2.3,0c0.7,0.6,1,1.8,1.9,4.8l2,7.1c0,0,0.7,0,2,0c1.3,0,1.9,0,1.9,0c2.3-4.4,2.9-9.4,3.4-10.7
				C19.9,5,20.1,4.7,20.4,4.5"/>
		</g>
	</g>
	<g>
		<g>
			<path class="st0" d="M50.2,8.7c0-1.3-0.7-2.2-1.1-2.5h0.6c1.2,0,2,0.2,2,0.2s0-0.3,0-1c0-0.7,0-1.1,0-1.1s-1.2,0.2-2.8,0.2h-1.5
				c0,0-0.7-0.3-2-0.3c-2.9,0-4.5,1.5-4.5,3.9c0,2.5,1.9,3.3,3.9,3.3c-1-0.6-1.3-1.5-1.3-3.1c0-1.2,0.3-2.7,1.9-2.7
				c0.8,0,2,0.1,2,2.7c0,1.4-0.2,2.6-1.8,3.2c-1.3,0.4-2.4,0.9-2.4,2.4c0,2,1.8,2.1,3.1,2.1h0.8c1.1,0,2,0.1,2,1.2
				c0,1.3-1.4,1.8-3.3,1.8c-2.5,0-3-0.8-3-1.7c0-0.7,0.3-1.2,0.9-1.5c-1.4,0-3.2,0.4-3.2,2.1c0,1.4,1.1,2.7,5.4,2.7
				c3.1,0,5.8-1,5.8-3.9c0-2.9-2.6-2.9-4.1-2.9H47c-0.8,0-1.2-0.1-1.2-0.6c0-0.4,0.2-0.5,0.9-0.7C48.7,12,50.2,11.1,50.2,8.7
				 M37.5,7.8c0,1.8-1.3,2-2.3,2c-1.3,0-1.8-0.2-1.8-0.2c0-2.7,0.7-3.8,2.3-3.8C37.3,5.8,37.5,7,37.5,7.8 M40.4,7.7
				c0-2.8-2.8-3.4-4.8-3.4c-2,0-5.2,0.9-5.2,6.3c0,3.4,1.5,6,5.5,6c3.2,0,4.4-1.6,4.4-3.2c-0.1,0.1-0.8,1.3-3.5,1.3
				c-2.8,0-3.3-2.2-3.3-3.6c0,0,0.9,0.2,2.2,0.2C39.3,11.3,40.4,9.8,40.4,7.7 M29.9,15.9c-0.8-0.5-1-1.1-1-3.6v-2.2
				c0-4.4,0.2-5.7,0.2-5.7l-3.8,0.5l0.2,0.4C25.8,5.8,26,6.4,26,10c0,1.4-0.1,3.3-0.1,4.5c0,1,0.1,2,1.9,2
				C29.4,16.4,29.9,15.9,29.9,15.9"/>
		</g>
	</g>
	<g>
		<g>
			<polygon class="st0" points="27.5,0.1 25.3,2 27.5,3.9 29.8,2 			"/>
		</g>
	</g>
</g>
</svg>
