<?xml version="1.0" encoding="utf-8"?>
<!-- Generator: Adobe Illustrator 24.0.0, SVG Export Plug-In . SVG Version: 6.00 Build 0)  -->
<svg version="1.1" id="Laag_1" xmlns="http://www.w3.org/2000/svg" xmlns:xlink="http://www.w3.org/1999/xlink" x="0px" y="0px"
	 width="53.1px" height="41.6px" viewBox="0 0 53.1 41.6" style="enable-background:new 0 0 53.1 41.6;" xml:space="preserve">
<style type="text/css">
	.st0{fill:none;}
	.st1{fill:#FFFFFF;}
</style>
<g>
	<path class="st0" d="M30.3,30.8C30.3,30.8,30.3,30.8,30.3,30.8c0.4-0.3,0.6-0.7,0.6-1.3c0-0.5-0.2-1-0.5-1.3
		c-0.4-0.3-0.9-0.5-1.7-0.5h-3.1v3.6h3C29.3,31.2,29.9,31.1,30.3,30.8z"/>
	<path class="st0" d="M10.7,34.7L9.5,31c-0.1-0.2-0.2-0.5-0.3-0.8c-0.1-0.2-0.1-0.4-0.2-0.6C9,29.8,9,30,8.9,30.2
		c-0.1,0.3-0.2,0.5-0.3,0.8l-1.2,3.7H10.7z"/>
	<path class="st1" d="M24.5,0.1C24.4,0,24.3,0,24.2,0h-4.5c-0.2,0-0.3,0.1-0.3,0.3l-1.8,7.2c-0.1,0.4-0.2,0.9-0.3,1.4
		c-0.1,0.5-0.2,1-0.3,1.4c-0.1-0.4-0.2-0.8-0.3-1.2c-0.1-0.5-0.2-0.9-0.3-1.4l-1.7-7.4c0-0.2-0.2-0.3-0.3-0.3h-4.2
		c-0.2,0-0.3,0.1-0.3,0.3L8.2,7.7C8.1,8.2,8,8.6,7.9,9.1c-0.1,0.4-0.2,0.8-0.3,1.2C7.5,9.8,7.4,9.4,7.4,8.9C7.3,8.4,7.2,8,7.1,7.5
		L5.2,0.3C5.2,0.1,5.1,0,4.9,0H0.4C0.3,0,0.2,0,0.1,0.1C0,0.2,0,0.3,0,0.4l5,17.4c0,0.1,0.2,0.2,0.3,0.2h4.4c0.2,0,0.3-0.1,0.3-0.3
		L12,9.5c0.1-0.3,0.2-0.7,0.2-1.1c0-0.2,0.1-0.4,0.1-0.5c0,0.2,0.1,0.3,0.1,0.5c0.1,0.4,0.1,0.8,0.2,1.1l1.9,8.3
		c0,0.2,0.2,0.3,0.3,0.3h4.4c0.1,0,0.3-0.1,0.3-0.2l5-17.4C24.6,0.3,24.6,0.2,24.5,0.1z"/>
	<path class="st1" d="M26.8,18h13.9c0.2,0,0.3-0.2,0.3-0.3v-3.6c0-0.2-0.2-0.3-0.3-0.3h-9.1v-3h7.6c0.2,0,0.3-0.2,0.3-0.3V7
		c0-0.2-0.2-0.3-0.3-0.3h-7.6V4.2h8.9c0.2,0,0.3-0.2,0.3-0.3V0.3c0-0.2-0.2-0.3-0.3-0.3H26.8c-0.2,0-0.3,0.2-0.3,0.3v17.4
		C26.4,17.9,26.6,18,26.8,18z"/>
	<path class="st1" d="M11.8,23.8c0-0.1-0.2-0.2-0.3-0.2H6.9c-0.1,0-0.3,0.1-0.3,0.2L0,41.2c0,0.1,0,0.2,0,0.3
		c0.1,0.1,0.2,0.1,0.3,0.1h4.5c0.1,0,0.3-0.1,0.3-0.2l1-2.9H12l1,2.9c0,0.1,0.2,0.2,0.3,0.2H18c0.1,0,0.2-0.1,0.3-0.1s0.1-0.2,0-0.3
		L11.8,23.8z M8.7,31c0.1-0.2,0.2-0.5,0.3-0.8C9,30,9,29.8,9.1,29.6c0.1,0.2,0.1,0.4,0.2,0.6c0.1,0.3,0.2,0.5,0.3,0.8l1.2,3.8H7.4
		L8.7,31z"/>
	<path class="st1" d="M36,40.7c0,0-0.1,0-0.1-0.3c0,0,0,0,0,0c-0.1-0.3-0.1-0.6-0.1-1c0-0.4-0.1-0.9-0.1-1.4c0-0.6-0.1-1.1-0.2-1.7
		c-0.1-0.9-0.4-1.7-0.9-2.2c-0.3-0.4-0.7-0.7-1.3-0.9c0.8-0.4,1.4-0.8,1.8-1.4c0.6-0.8,0.8-1.7,0.8-2.8c0-0.9-0.2-1.6-0.5-2.3
		c-0.3-0.7-0.8-1.2-1.4-1.7c-0.6-0.4-1.3-0.8-2.1-1c-0.8-0.2-1.7-0.3-2.6-0.3h-8.7c-0.2,0-0.3,0.2-0.3,0.3v17.4
		c0,0.2,0.2,0.3,0.3,0.3h4.5c0.2,0,0.3-0.2,0.3-0.3v-6.2h2.4c0.9,0,1.5,0.2,1.9,0.5c0.4,0.4,0.7,0.9,0.8,1.6
		c0.1,0.4,0.1,0.9,0.1,1.3c0,0.5,0.1,0.9,0.1,1.3c0,0.4,0.1,0.7,0.2,1c0.1,0.4,0.2,0.6,0.4,0.7c0,0,0.1,0,0.2,0h4.4
		c0.2,0,0.3-0.2,0.3-0.3v-0.2C36.2,40.9,36.1,40.8,36,40.7z M25.4,27.6h3.1c0.8,0,1.3,0.2,1.7,0.5c0.4,0.3,0.5,0.8,0.5,1.3
		c0,0.6-0.2,1-0.6,1.3c0,0,0,0,0,0c-0.4,0.3-1,0.5-1.8,0.5h-3V27.6z"/>
	<path class="st1" d="M52.8,37.3h-9.1v-3h7.6c0.2,0,0.3-0.2,0.3-0.3v-3.4c0-0.2-0.2-0.3-0.3-0.3h-7.6v-2.4h8.9
		c0.2,0,0.3-0.2,0.3-0.3v-3.5c0-0.2-0.2-0.3-0.3-0.3H38.9c-0.2,0-0.3,0.2-0.3,0.3v17.4c0,0.2,0.2,0.3,0.3,0.3h13.9
		c0.2,0,0.3-0.2,0.3-0.3v-3.6C53.1,37.4,53,37.3,52.8,37.3z"/>
</g>
</svg>
