<?xml version="1.0" encoding="utf-8"?>
<!-- Generator: Adobe Illustrator 24.3.0, SVG Export Plug-In . SVG Version: 6.00 Build 0)  -->
<svg version="1.1" id="Laag_1" xmlns="http://www.w3.org/2000/svg" xmlns:xlink="http://www.w3.org/1999/xlink" x="0px" y="0px"
	 width="460.2px" height="991.3px" viewBox="0 0 460.2 991.3" style="enable-background:new 0 0 460.2 991.3;" xml:space="preserve"
	>
<style type="text/css">
	.st0{fill:#FFFFFF;}
</style>
<g>
	<path class="st0" d="M132.6,32.1V18.5c0-7.8,3.8-11.1,11.3-12.6v5.2c-4.8,2-4.8,3.1-4.8,8h5.6v12.9H132.6z M148.6,32.1
		c0-4.8,0-9.5,0-14.2c0-3.9,0.7-6.5,3.9-8.9c2.2-1.7,4.9-2.4,7.6-2.6v5c-4.6,1.8-5.2,2.7-5.2,7.9h5.8v12.9H148.6z"/>
	<path class="st0" d="M171.6,73V6.8h47v11.1h-34.9v15.6h32v10.7h-32v17.7h37.2V73H171.6z"/>
	<path class="st0" d="M268.6,67.3c-2.6,2.4-8.9,7-18.6,7c-3,0-10.4-0.4-16.8-6.3C228,63,226,56.6,226,49.2c0-3.9,0.6-7.7,2.1-11.2
		c2.1-4.7,7.9-13.3,21.5-13.3c10.5,0,16,5.4,18.5,9c2.2,3.3,4.3,9,4.6,18.1h-34.7c0.2,1.4,0.7,4.3,3,7.1c1.6,2,4.4,4.5,10.2,4.5
		c5.8,0,9.2-2.7,10.7-4.3c0.4-0.4,0.9-1.1,1.6-2.2l9.6,5.5C272.2,63.5,270.9,65.3,268.6,67.3z M259.2,39.7c-1-2.2-3.5-6-9.6-6
		c-2.4,0-3.7,0.5-4.7,0.8c-5.2,2.2-6.5,7.4-6.7,9h21.9C260.2,43.5,259.9,41.3,259.2,39.7z"/>
	<path class="st0" d="M311.2,73V49.1c0-3.7,0-5.4-0.5-7.2c-1.3-5.4-5.5-6.2-7.8-6.2c-1.2,0-3.6,0.2-5.9,2.2
		c-3.4,2.8-4.4,6.7-4.4,14.8V73h-11.3V26.1h11.3v5.5c0.2-0.3,1.1-1.5,2.1-2.4c4.4-4.1,10.8-4.5,12.4-4.5c6.9,0,11,3.6,12.5,5.7
		c3,4.3,2.7,10.2,2.7,15V73H311.2z"/>
	<path class="st0" d="M115.7,185.4h-12l-15.2-46.8h11.6l9.7,32.2l9.6-32.2h11.7L115.7,185.4z"/>
	<path class="st0" d="M165.7,185.4l-0.3-3.7c-1.8,1.5-3.4,2.2-4.3,2.6c-3.1,1.4-6,2.2-9.5,2.2c-2.2,0-10.7-0.3-15-7.2
		c-0.7-1.2-2.2-3.7-2.1-7.5c0-2.6,0.7-7.9,6.4-11.7c3.8-2.6,7.5-3.2,11.8-4c6.9-1.4,9.5-2,12.9-3.2c0-1.2-0.1-2.7-0.7-3.8
		c-0.9-1.8-3.3-3.2-7.4-3.2c-4.3,0-7,1.3-8.2,2.9c-1.3,1.6-1.2,3.5-1.2,4.1l-11.4-0.7c0.1-2.1,0.5-7,5.1-10.8
		c2.9-2.4,7.3-4.3,15.5-4.3c7.7,0,12.2,1.6,15.1,3.7c2,1.4,3,3,3.4,3.7c1.2,2.4,1.2,5.7,1.2,8.3v24.9c0,3.6,0.2,4.6,2.1,7.6H165.7z
		 M165.7,162.1c-1.9,0.9-4.3,1.9-8.9,2.6c-2.5,0.5-5.2,0.6-7.6,2c-1.6,1-2.7,2.6-2.7,4.7c0,2.8,2.1,5.5,7.7,5.5
		c6.2,0,9.8-3.2,10.9-5.3c0.8-1.5,0.7-2.8,0.7-4.3V162.1z"/>
	<path class="st0" d="M218.8,185.4v-23.9c0-3.7,0-5.4-0.5-7.2c-1.3-5.4-5.5-6.2-7.8-6.2c-1.2,0-3.6,0.2-5.9,2.2
		c-3.4,2.8-4.4,6.7-4.4,14.8v20.3h-11.3v-46.8h11.3v5.5c0.2-0.3,1.1-1.5,2.1-2.4c4.4-4.1,10.8-4.5,12.4-4.5c6.9,0,11,3.6,12.5,5.7
		c3,4.3,2.7,10.2,2.7,15v27.5H218.8z"/>
	<path class="st0" d="M299.8,185.4v-4.5c-0.5,0.5-0.8,1-1.3,1.5c-1.8,1.7-5.6,4.4-11.7,4.4c-1.6,0-5-0.2-8.7-2
		c-5.1-2.3-12.1-8.4-12.1-21.9c0-14.3,7.8-21.7,13.1-24.2c1.5-0.7,4.2-1.6,8.2-1.6c1.6,0,5,0.1,8.5,2.1c0.7,0.4,1.2,0.7,2.3,1.5
		c0.8,0.7,1.5,1.5,1.7,1.7v-23.1H311v66.1H299.8z M297.7,152.5c-0.6-1-1.6-2.2-2.4-2.9c-1.9-1.5-3.9-2.1-6.3-2.1
		c-0.9,0-3.4,0.2-5.7,1.7c-5.3,3.5-5.5,11.1-5.5,12.5c0,6.9,2.9,14.9,11.1,14.9c3,0,5.3-0.9,7.3-3.2c2.9-3.2,3.7-7,3.6-11.2
		C299.7,159.1,299.3,155.3,297.7,152.5z"/>
	<path class="st0" d="M363.1,179.8c-2.6,2.4-8.9,7-18.6,7c-3,0-10.4-0.4-16.8-6.3c-5.3-5.1-7.3-11.5-7.3-18.8
		c0-3.9,0.6-7.7,2.1-11.2c2.1-4.7,7.9-13.3,21.5-13.3c10.5,0,16,5.4,18.5,9c2.2,3.3,4.3,9,4.6,18.1h-34.7c0.2,1.4,0.7,4.3,3,7.1
		c1.6,2,4.4,4.5,10.2,4.5c5.8,0,9.2-2.7,10.7-4.3c0.4-0.4,0.9-1.1,1.6-2.2l9.6,5.5C366.6,175.9,365.3,177.7,363.1,179.8z
		 M353.7,152.1c-1-2.2-3.5-6-9.6-6c-2.4,0-3.7,0.5-4.7,0.8c-5.2,2.2-6.5,7.4-6.7,9h21.9C354.6,156,354.3,153.7,353.7,152.1z"/>
	<path class="st0" d="M57.4,297.8l-0.3-3.7c-1.8,1.5-3.4,2.2-4.3,2.6c-3.1,1.4-6,2.2-9.5,2.2c-2.2,0-10.7-0.3-15-7.2
		c-0.7-1.2-2.2-3.7-2.1-7.5c0-2.6,0.7-7.9,6.4-11.7c3.8-2.6,7.5-3.2,11.8-4c6.9-1.4,9.5-2,12.9-3.2c0-1.2-0.1-2.7-0.7-3.8
		c-0.9-1.8-3.3-3.2-7.4-3.2c-4.3,0-7,1.3-8.2,2.9c-1.3,1.6-1.2,3.5-1.2,4.1l-11.4-0.7c0.1-2.1,0.5-7,5.1-10.8
		c2.9-2.4,7.3-4.3,15.5-4.3c7.7,0,12.2,1.6,15.1,3.7c2,1.4,3,3,3.4,3.7c1.2,2.4,1.2,5.7,1.2,8.3v24.9c0,3.6,0.2,4.6,2.1,7.6H57.4z
		 M57.4,274.5c-1.9,0.9-4.3,1.9-8.9,2.6c-2.5,0.5-5.2,0.6-7.6,2c-1.6,1-2.7,2.6-2.7,4.7c0,2.8,2.1,5.5,7.7,5.5
		c6.2,0,9.8-3.2,10.9-5.3c0.8-1.5,0.7-2.8,0.7-4.3V274.5z"/>
	<path class="st0" d="M103,297.8H91L75.8,251h11.6l9.7,32.2l9.6-32.2h11.7L103,297.8z"/>
	<path class="st0" d="M169.1,284.7c-1.9,4.8-8,14.5-21.9,14.5c-2,0-6-0.1-10.6-2.2c-4.9-2.2-13.8-8.7-13.8-22.9
		c0-5.1,1.4-8.8,2.1-10.5c2-4.7,8-14.1,21.9-14.1c1.8,0,5.9,0.2,10.3,2.2c5.1,2.2,13.8,8.4,13.9,22.5
		C170.9,275.9,170.9,280.3,169.1,284.7z M146.6,259.7c-1,0-3.8,0.2-6.4,1.8c-2.4,1.6-5.7,5.4-5.7,12.5c0,2.2,0.2,4.2,0.9,6.4
		c0.8,2.2,4,8.6,11.7,8.6c8.5,0,12.4-7.5,12.1-14.9C159,266.7,154.8,259.7,146.6,259.7z"/>
	<path class="st0" d="M209.9,297.8v-23.9c0-3.7,0-5.4-0.5-7.2c-1.3-5.4-5.5-6.2-7.8-6.2c-1.2,0-3.6,0.2-5.9,2.2
		c-3.4,2.8-4.4,6.7-4.4,14.8v20.3H180V251h11.3v5.5c0.2-0.3,1.1-1.5,2.1-2.4c4.4-4.1,10.8-4.5,12.4-4.5c6.9,0,11,3.6,12.5,5.7
		c3,4.3,2.7,10.2,2.7,15v27.5H209.9z"/>
	<path class="st0" d="M247.2,298.2c-6.2,0-9.4-1.5-11.2-3.7c-0.9-1.1-1.3-2.2-1.4-2.7c-0.5-1.5-0.6-4.8-0.6-8.9v-23.9h-6.8v-8h6.8
		v-16.7h11.2V251h10v8h-10v21.3c0,1.9-0.3,5.4,1.1,6.9c1.3,1.5,4,1.4,4.3,1.4c1.6,0,3.2-0.2,4.6-0.6v9.5
		C253.8,297.6,251.1,298.2,247.2,298.2z"/>
	<path class="st0" d="M293.3,297.8l-0.1-4.8c-2.3,2.2-6.9,5.9-15.1,5.9c-7.8,0-11.6-3.4-13.5-6.2c-3-4.4-2.7-9.7-2.7-14.8v-27h11.3
		v25.3c0,3.8-0.2,8.4,3.7,10.7c1.5,0.9,3.7,1.4,5.4,1.4c5.4,0,8.2-3.6,9.1-5.2c1.9-3.6,1.8-8.6,1.8-12.3V251h11.2v46.8H293.3z"/>
	<path class="st0" d="M347.9,297.8l-0.1-4.8c-2.3,2.2-6.9,5.9-15.1,5.9c-7.8,0-11.6-3.4-13.5-6.2c-3-4.4-2.7-9.7-2.7-14.8v-27h11.3
		v25.3c0,3.8-0.2,8.4,3.7,10.7c1.5,0.9,3.7,1.4,5.4,1.4c5.4,0,8.2-3.6,9.1-5.2c1.9-3.6,1.8-8.6,1.8-12.3V251h11.2v46.8H347.9z"/>
	<path class="st0" d="M383.1,270.1c-0.8,2.6-0.8,5-0.8,7.7v20.1h-10.9V251h10.9v6.7c0.7-1.4,1.7-2.8,2.8-3.8
		c3.7-3.7,9.8-3.8,11.1-3.8h0.9v11.5C394.8,261.5,385.8,261.5,383.1,270.1z"/>
	<path class="st0" d="M402.4,274.7v-10.6h27.1v10.6H402.4z"/>
	<path class="st0" d="M108.8,410.2v-66.1h11.4v66.1H108.8z"/>
	<path class="st0" d="M132.2,356.1v-11.3h11.1v11.3H132.2z M132.2,410.2v-46.8h11.1v46.8H132.2z"/>
	<path class="st0" d="M164.2,421.9c-1.9,1.8-5.9,3.7-12,3.7c-0.9,0-1.8-0.1-2.6-0.2v-10.2c0.5-0.1,2.7-0.1,4.3-1.1
		c2.2-1.3,1.9-3.1,1.9-7v-43.6h11.1v50.7C166.9,415.3,167.1,419.1,164.2,421.9z M155.8,356v-11.4h11.1V356H155.8z"/>
	<path class="st0" d="M210.8,410.2l-14.1-21l-6.6,6.5v14.5H179v-66.1h11.1v37.2l18.3-17.9h14.3l-17.9,17.9l19.7,29H210.8z"/>
	<path class="st0" d="M267.8,402c-2.2,4.3-8.1,9.7-19.5,9.7c-8.8,0-15.1-3-18-4.8c-1.6-1-3.1-2.2-4.5-3.7l8.4-6.8
		c0.4,0.5,0.9,1.3,2.2,2.3c4,3.5,10,3.7,11.3,3.7c2.8,0,6.1-0.7,8-2.8c0.8-0.7,1.2-1.8,1.2-2.7c0-0.4-0.1-1.1-0.7-2
		c-1.2-1.7-2.7-1.8-6.2-2.5c-3.1-0.7-6.2-1-9.2-1.8c-2.1-0.6-12.9-3.2-12.9-13.3c0-3.6,1.5-6.2,2.2-7.2c2.3-3.7,7.9-8.1,18-8.1
		c3.7,0,13.1,0.6,20.1,8.7l-8,7.4c-0.9-2-2.2-3.1-2.9-3.7c-2.9-2.5-6-3.4-9.8-3.4c-0.5,0-3.7,0-5.7,1.4c-1.7,1.1-2.1,2.6-2.1,3.5
		c0.1,1.6,1.2,2.7,1.5,2.9c1.2,0.9,4.3,1.7,8.1,2.3c2.5,0.5,5.1,0.8,7.6,1.4c2.5,0.6,5.3,1.4,7.4,2.9c1.7,1.2,5.2,4.5,5.2,10.2
		C269.4,397.9,268.8,400,267.8,402z"/>
	<path class="st0" d="M293,410.6c-6.2,0-9.4-1.5-11.2-3.7c-0.9-1.1-1.3-2.2-1.4-2.7c-0.5-1.5-0.6-4.8-0.6-8.9v-23.9h-6.8v-8h6.8
		v-16.7H291v16.7h10v8h-10v21.3c0,1.9-0.3,5.4,1.1,6.9c1.3,1.5,4,1.4,4.3,1.4c1.6,0,3.2-0.2,4.6-0.6v9.5
		C299.5,410.1,296.8,410.6,293,410.6z"/>
	<path class="st0" d="M347.7,404.6c-2.6,2.4-8.9,7-18.6,7c-3,0-10.4-0.4-16.8-6.3c-5.3-5.1-7.3-11.5-7.3-18.8
		c0-3.9,0.6-7.7,2.1-11.2c2.1-4.7,7.9-13.3,21.5-13.3c10.5,0,16,5.4,18.5,9c2.2,3.3,4.3,9,4.6,18.1H317c0.2,1.4,0.7,4.3,3,7.1
		c1.6,2,4.4,4.5,10.2,4.5c5.8,0,9.2-2.7,10.7-4.3c0.4-0.4,0.9-1.1,1.6-2.2l9.6,5.5C351.3,400.8,349.9,402.6,347.7,404.6z M338.3,377
		c-1-2.2-3.5-6-9.6-6c-2.4,0-3.7,0.5-4.7,0.8c-5.2,2.2-6.5,7.4-6.7,9h21.9C339.3,380.8,339,378.6,338.3,377z"/>
	<path class="st0" d="M122.8,522.7V494c0-1.8-0.4-9.1-7.9-9.1c-1.8,0-5.8,0.7-8.3,4.8c-2.2,3.4-2.2,7.2-2.2,11v22H93.2v-26.2
		c0-1-0.1-2.1-0.1-3.1c0-0.9,0-4.2-2.5-6.6c-1.9-1.7-4.2-1.8-5.1-1.8c-1.1,0-3.6,0.3-5.9,2.2c-4.6,3.9-4.7,10.5-4.7,15.7v19.7H63.7
		v-46.8H75l0.1,5.2c0.7-1,1-1.3,1.5-1.7c1.6-1.5,6.7-5,13.2-5c5.3,0,10.4,2.4,13,7.1c0.8-1,1.8-2.3,4.3-4c2-1.3,5.2-3.1,10.8-3.1
		c7.1,0,13.5,3.1,15.5,10.4c0.6,2.2,0.7,4,0.7,8.2v29.6H122.8z"/>
	<path class="st0" d="M177,522.7l-0.1-4.8c-2.3,2.2-6.9,5.9-15.1,5.9c-7.8,0-11.6-3.4-13.5-6.2c-3-4.4-2.7-9.7-2.7-14.8v-27h11.3
		v25.3c0,3.8-0.2,8.4,3.7,10.7c1.5,0.9,3.7,1.4,5.4,1.4c5.4,0,8.2-3.6,9.1-5.2c1.9-3.6,1.8-8.6,1.8-12.3v-19.9h11.2v46.8H177z"/>
	<path class="st0" d="M197.3,522.7v-8.6l25.3-28.2h-22.8v-10h37.6v8.7l-24.7,28.2h24.7v9.9H197.3z"/>
	<path class="st0" d="M247.4,468.5v-11.3h11.1v11.3H247.4z M247.4,522.7v-46.8h11.1v46.8H247.4z"/>
	<path class="st0" d="M310.5,517.1c-2.6,2.4-8.9,7-18.6,7c-3,0-10.4-0.4-16.8-6.3c-5.3-5.1-7.3-11.5-7.3-18.8
		c0-3.9,0.6-7.7,2.1-11.2c2.1-4.7,7.9-13.3,21.5-13.3c10.5,0,16,5.4,18.5,9c2.2,3.3,4.3,9,4.6,18.1h-34.7c0.2,1.4,0.7,4.3,3,7.1
		c1.6,2,4.4,4.5,10.2,4.5c5.8,0,9.2-2.7,10.7-4.3c0.4-0.4,0.9-1.1,1.6-2.2l9.6,5.5C314.1,513.2,312.7,515,310.5,517.1z M301.1,489.4
		c-1-2.2-3.5-6-9.6-6c-2.4,0-3.7,0.5-4.7,0.8c-5.2,2.2-6.5,7.4-6.7,9h21.9C302.1,493.3,301.8,491,301.1,489.4z"/>
	<path class="st0" d="M355.2,522.7l-14.1-21l-6.6,6.5v14.5h-11.1v-66.1h11.1v37.2l18.3-17.9h14.3l-17.9,17.9l19.7,29H355.2z"/>
	<path class="st0" d="M368.4,499.5v-10.6h27.1v10.6H368.4z"/>
	<path class="st0" d="M71.5,596.2v38.9H60.3v-38.9h-7v-8h7v-5.4c0-0.2-0.1-3.4,0.3-5.4c0.9-5.4,4.8-8.5,14.8-8.5
		c2.2,0,4.2,0.2,6.4,0.5v9.6c-0.3-0.1-2.2-0.3-3.6-0.3c-6.8,0-6.7,3.9-6.7,6.9v2.7h10.2v8H71.5z"/>
	<path class="st0" d="M128,629.5c-2.6,2.4-8.9,7-18.6,7c-3,0-10.4-0.4-16.8-6.3c-5.3-5.1-7.3-11.5-7.3-18.8c0-3.9,0.6-7.7,2.1-11.2
		c2.1-4.7,7.9-13.3,21.5-13.3c10.5,0,16,5.4,18.5,9c2.2,3.3,4.3,9,4.6,18.1H97.3c0.2,1.4,0.7,4.3,3,7.1c1.6,2,4.4,4.5,10.2,4.5
		c5.8,0,9.2-2.7,10.7-4.3c0.4-0.4,0.9-1.1,1.6-2.2l9.6,5.5C131.6,625.6,130.3,627.4,128,629.5z M118.7,601.8c-1-2.2-3.5-6-9.6-6
		c-2.4,0-3.7,0.5-4.7,0.8c-5.2,2.2-6.5,7.4-6.7,9h21.9C119.6,605.7,119.3,603.4,118.7,601.8z"/>
	<path class="st0" d="M178.9,626.9c-2.2,4.3-8.1,9.7-19.5,9.7c-8.8,0-15.1-3-18-4.8c-1.6-1-3.1-2.2-4.5-3.7l8.4-6.8
		c0.4,0.5,0.9,1.3,2.2,2.3c4,3.5,10,3.7,11.3,3.7c2.8,0,6.1-0.7,8-2.8c0.7-0.7,1.2-1.8,1.2-2.7c0-0.4-0.1-1.1-0.7-2
		c-1.2-1.7-2.7-1.8-6.2-2.5c-3.1-0.7-6.2-1-9.2-1.8c-2.1-0.6-12.9-3.2-12.9-13.3c0-3.6,1.5-6.2,2.2-7.2c2.3-3.7,7.9-8.1,18-8.1
		c3.7,0,13.1,0.6,20.1,8.7l-8,7.4c-0.9-2-2.2-3.1-2.9-3.7c-2.9-2.5-6-3.4-9.8-3.4c-0.5,0-3.7,0-5.7,1.4c-1.7,1.1-2.1,2.6-2.1,3.5
		c0.1,1.6,1.2,2.7,1.5,2.9c1.2,0.9,4.3,1.7,8.1,2.3c2.5,0.5,5.1,0.8,7.6,1.4c2.5,0.6,5.3,1.4,7.4,2.9c1.7,1.2,5.2,4.5,5.2,10.2
		C180.5,622.7,179.9,624.9,178.9,626.9z"/>
	<path class="st0" d="M204.1,635.5c-6.2,0-9.4-1.5-11.2-3.7c-0.9-1.1-1.3-2.2-1.4-2.7c-0.5-1.5-0.6-4.8-0.6-8.9v-23.9h-6.8v-8h6.8
		v-16.7h11.2v16.7h10v8h-10v21.3c0,1.9-0.3,5.4,1.1,6.9c1.3,1.5,4,1.4,4.3,1.4c1.6,0,3.2-0.2,4.6-0.6v9.5
		C210.7,634.9,208,635.5,204.1,635.5z"/>
	<path class="st0" d="M219.1,580.9v-11.3h11.1v11.3H219.1z M219.1,635.1v-46.8h11.1v46.8H219.1z"/>
	<path class="st0" d="M264.8,635.1h-12l-15.2-46.8h11.6l9.7,32.2l9.6-32.2h11.7L264.8,635.1z"/>
	<path class="st0" d="M314.9,635.1l-0.3-3.7c-1.8,1.5-3.4,2.2-4.3,2.6c-3.1,1.4-6,2.2-9.5,2.2c-2.2,0-10.7-0.3-15-7.2
		c-0.7-1.2-2.2-3.7-2.1-7.5c0-2.6,0.7-7.9,6.4-11.7c3.8-2.6,7.5-3.2,11.8-4c6.9-1.4,9.5-2,12.9-3.2c0-1.2-0.1-2.7-0.7-3.8
		c-0.9-1.8-3.3-3.2-7.4-3.2c-4.3,0-7,1.3-8.2,2.9c-1.3,1.6-1.2,3.5-1.2,4.1l-11.4-0.7c0.1-2.1,0.5-7,5.1-10.8
		c2.9-2.4,7.3-4.3,15.5-4.3c7.7,0,12.2,1.6,15.1,3.7c2,1.4,3,3,3.4,3.7c1.2,2.4,1.2,5.7,1.2,8.3v24.9c0,3.6,0.2,4.6,2.1,7.6H314.9z
		 M314.9,611.8c-1.9,0.9-4.3,1.9-8.9,2.6c-2.5,0.5-5.2,0.6-7.6,2c-1.6,1-2.7,2.6-2.7,4.7c0,2.8,2.1,5.5,7.7,5.5
		c6.2,0,9.8-3.2,10.9-5.3c0.7-1.5,0.7-2.8,0.7-4.3V611.8z"/>
	<path class="st0" d="M338.2,635.1V569h11.4v66.1H338.2z"/>
	<path class="st0" d="M399.5,626.9c-2.2,4.3-8.1,9.7-19.5,9.7c-8.8,0-15.1-3-18-4.8c-1.6-1-3.1-2.2-4.5-3.7l8.4-6.8
		c0.4,0.5,0.9,1.3,2.2,2.3c4,3.5,10,3.7,11.3,3.7c2.8,0,6.1-0.7,8-2.8c0.8-0.7,1.2-1.8,1.2-2.7c0-0.4-0.1-1.1-0.7-2
		c-1.2-1.7-2.7-1.8-6.2-2.5c-3.1-0.7-6.2-1-9.2-1.8c-2.1-0.6-12.9-3.2-12.9-13.3c0-3.6,1.5-6.2,2.2-7.2c2.3-3.7,7.9-8.1,18-8.1
		c3.7,0,13.1,0.6,20.1,8.7l-8,7.4c-0.9-2-2.2-3.1-2.9-3.7c-2.9-2.5-6-3.4-9.8-3.4c-0.5,0-3.7,0-5.7,1.4c-1.7,1.1-2.1,2.6-2.1,3.5
		c0.1,1.6,1.2,2.7,1.5,2.9c1.2,0.9,4.3,1.7,8.1,2.3c2.5,0.5,5.1,0.8,7.6,1.4c2.5,0.6,5.3,1.4,7.4,2.9c1.7,1.2,5.2,4.5,5.2,10.2
		C401.1,622.7,400.6,624.9,399.5,626.9z"/>
	<path class="st0" d="M20.1,747.9c-6.2,0-9.4-1.5-11.2-3.7c-0.9-1.1-1.3-2.2-1.4-2.7c-0.5-1.5-0.6-4.8-0.6-8.9v-23.9H0v-8h6.8V684
		h11.2v16.7h10v8h-10v21.3c0,1.9-0.3,5.4,1.1,6.9c1.3,1.5,4,1.4,4.3,1.4c1.6,0,3.2-0.2,4.6-0.6v9.5
		C26.6,747.3,23.9,747.9,20.1,747.9z"/>
	<path class="st0" d="M74.8,741.9c-2.6,2.4-8.9,7-18.6,7c-3,0-10.4-0.4-16.8-6.3c-5.3-5.1-7.3-11.5-7.3-18.8c0-3.9,0.6-7.7,2.1-11.2
		c2.1-4.7,7.9-13.3,21.5-13.3c10.5,0,16,5.4,18.5,9c2.2,3.3,4.3,9,4.6,18.1H44c0.2,1.4,0.7,4.3,3,7.1c1.6,2,4.4,4.5,10.2,4.5
		s9.2-2.7,10.7-4.3c0.4-0.4,0.9-1.1,1.6-2.2l9.6,5.5C78.3,738.1,77,739.9,74.8,741.9z M65.4,714.3c-1-2.2-3.5-6-9.6-6
		c-2.4,0-3.7,0.5-4.7,0.8c-5.2,2.2-6.5,7.4-6.7,9h21.9C66.3,718.1,66.1,715.9,65.4,714.3z"/>
	<path class="st0" d="M99.3,719.8c-0.8,2.6-0.8,5-0.8,7.7v20.1H87.6v-46.8h10.9v6.7c0.7-1.4,1.7-2.8,2.8-3.8
		c3.7-3.7,9.8-3.8,11.1-3.8h0.9v11.5C111,711.2,102,711.2,99.3,719.8z"/>
	<path class="st0" d="M196.6,747.5h-11.1l-8.4-29.9l-8.9,29.9h-11.1l-13.6-46.8h11.7l8.2,32l8.7-32h10l8.6,32l8.3-32h11.7
		L196.6,747.5z"/>
	<path class="st0" d="M257.8,741.9c-2.6,2.4-8.9,7-18.6,7c-3,0-10.4-0.4-16.8-6.3c-5.3-5.1-7.3-11.5-7.3-18.8
		c0-3.9,0.6-7.7,2.1-11.2c2.1-4.7,7.9-13.3,21.5-13.3c10.5,0,16,5.4,18.5,9c2.2,3.3,4.3,9,4.6,18.1h-34.7c0.2,1.4,0.7,4.3,3,7.1
		c1.6,2,4.4,4.5,10.2,4.5c5.8,0,9.2-2.7,10.7-4.3c0.4-0.4,0.9-1.1,1.6-2.2l9.6,5.5C261.4,738.1,260.1,739.9,257.8,741.9z
		 M248.5,714.3c-1-2.2-3.5-6-9.6-6c-2.4,0-3.7,0.5-4.7,0.8c-5.2,2.2-6.5,7.4-6.7,9h21.9C249.4,718.1,249.1,715.9,248.5,714.3z"/>
	<path class="st0" d="M282.4,719.8c-0.8,2.6-0.8,5-0.8,7.7v20.1h-10.9v-46.8h10.9v6.7c0.7-1.4,1.7-2.8,2.8-3.8
		c3.7-3.7,9.8-3.8,11.1-3.8h0.9v11.5C294.1,711.2,285.1,711.2,282.4,719.8z"/>
	<path class="st0" d="M343.7,741.9c-2.6,2.4-8.9,7-18.6,7c-3,0-10.4-0.4-16.8-6.3c-5.3-5.1-7.3-11.5-7.3-18.8
		c0-3.9,0.6-7.7,2.1-11.2c2.1-4.7,7.9-13.3,21.5-13.3c10.5,0,16,5.4,18.5,9c2.2,3.3,4.3,9,4.6,18.1h-34.7c0.2,1.4,0.7,4.3,3,7.1
		c1.6,2,4.4,4.5,10.2,4.5c5.8,0,9.2-2.7,10.7-4.3c0.4-0.4,0.9-1.1,1.6-2.2l9.6,5.5C347.2,738.1,345.9,739.9,343.7,741.9z
		 M334.3,714.3c-1-2.2-3.5-6-9.6-6c-2.4,0-3.7,0.5-4.7,0.8c-5.2,2.2-6.5,7.4-6.7,9h21.9C335.2,718.1,334.9,715.9,334.3,714.3z"/>
	<path class="st0" d="M356.6,747.5v-66.1H368v66.1H356.6z"/>
	<path class="st0" d="M411.1,747.5V743c-0.5,0.5-0.8,1-1.3,1.5c-1.8,1.7-5.6,4.4-11.7,4.4c-1.6,0-5-0.2-8.7-2
		c-5.1-2.3-12.1-8.4-12.1-21.9c0-14.3,7.8-21.7,13.1-24.2c1.5-0.7,4.2-1.6,8.2-1.6c1.6,0,5,0.1,8.5,2.1c0.7,0.4,1.2,0.7,2.3,1.5
		c0.8,0.7,1.5,1.5,1.7,1.7v-23.1h11.1v66.1H411.1z M409,714.6c-0.6-1-1.6-2.2-2.4-2.9c-1.9-1.5-3.9-2.1-6.3-2.1
		c-0.9,0-3.4,0.2-5.7,1.7c-5.3,3.5-5.5,11.1-5.5,12.5c0,6.9,2.9,14.9,11.1,14.9c3,0,5.3-0.9,7.3-3.2c2.9-3.2,3.7-7,3.6-11.2
		C411,721.3,410.6,717.5,409,714.6z"/>
	<path class="st0" d="M440.3,704.5c-2.1,1.6-4.9,2.7-7.6,2.6v-5c3.6-0.9,5.2-2.9,5.2-6.5c0-0.5-0.1-0.8-0.1-1.3H432v-13h12.2
		c0,4.9,0,9.7,0,14.5C444.2,699.7,443.3,702.2,440.3,704.5z M448.8,707.6v-5.2c4.8-1.5,4.9-3.5,4.9-8H448v-13h12.2v13.4
		C460.2,702.7,456.5,706.2,448.8,707.6z"/>
	<path class="st0" d="M5.3,885.3v-4.2h18.6v4.2H5.3z"/>
	<path class="st0" d="M83,898c-0.8,0.8-3.1,3.2-6.4,4.5c-3.3,1.3-6.5,1.3-13.3,1.3H50.4v-49.6h13.3c1.8,0,3.4,0,5.2,0.1
		c5.7,0.2,9.8,1,14,5.4c2.8,3,6.7,9.1,6.7,19.2C89.5,881.6,89.2,891.1,83,898z M79.8,863.2c-0.6-0.8-2.4-2.7-5.1-3.7
		c-2.7-1-5.3-1-10.9-1h-8.7v41.1h7.4c6.5,0,10.5-0.3,13.2-1.5c2.7-1.3,4.5-3.8,5-4.6c1.7-2.4,3.9-7.2,3.9-14.5
		C84.7,877.2,84.6,868.9,79.8,863.2z"/>
	<path class="st0" d="M124.1,899.4c-1.8,2.2-5.1,5.3-11.9,5.3c-1.2,0-4.6-0.1-7.7-1.8c-8-4.1-8.3-14-8.3-16.2c0-1.1,0-3.9,1.1-6.8
		c2.2-6.3,7.7-10.5,14.4-10.5c2,0,6.9,0.4,10.8,4.8c2.7,3,4.4,7.7,4.4,11.8v1.1h-26c-0.1,2.7,0.3,4.4,0.6,5.6
		c0.7,2.7,3.1,8.2,10.8,8.2c3,0,7.6-0.7,10.8-7l3.9,1.1C126.3,895.7,125.5,897.6,124.1,899.4z M111.5,873.2c-5.8,0-8.6,4-9.5,5.8
		c-0.6,1.4-1.1,3.2-1.3,4.6h21.2C120.9,875,115.2,873.2,111.5,873.2z"/>
	<path class="st0" d="M170.9,903.9h-4.2l-18.2-49.6h5.2l15.2,43.1l15.6-43.1h5L170.9,903.9z"/>
	<path class="st0" d="M219.3,893.7c-2.1,6.7-7.4,11-14.5,11c-2.3,0-7.7-0.4-11.6-5.6c-1.5-2-3.4-5.6-3.4-11.6c0-1.5,0.1-4.8,1.5-8.5
		c3.3-8.5,10.5-9.5,13.8-9.5c3.9,0,7,1.1,9.8,3.7c3.7,3.6,5.2,8.7,5.3,13.7C220.2,888,220.2,890.7,219.3,893.7z M205,873
		c-1.1,0-3.7,0.1-6,1.9c-2.6,2-4.8,5.6-4.8,12.6c0,1.3-0.1,8,4.4,11.6c1.1,0.8,3,2,6.3,2c4.9,0,10.8-3.1,10.9-13.7
		C215.9,876.5,210.4,873,205,873z"/>
	<path class="st0" d="M228.5,903.9v-49.6h4.2v49.6H228.5z"/>
	<path class="st0" d="M267.2,903.9l-12.8-17.4l-7.2,6.8v10.5h-4.1v-49.6h4.1V888l18.8-17.6h5.2l-14,13.4l15,20.2H267.2z"/>
	<path class="st0" d="M300.4,898.9c-1.3,2.5-4.7,5.8-11.5,5.8c-2,0-7.5-0.3-11.2-5.1c-1.1-1.3-1.6-2.5-2.2-3.9l4.1-1.4
		c0.6,2.3,3.1,6.6,9.3,6.6c3.2,0,5.2-0.9,6.2-1.7c1.5-1.1,2.4-3.1,2.4-4.8c0-1.1-0.4-2.1-0.9-3c-1.1-1.5-2.7-2.3-6.3-3.1
		c-3.3-0.8-8.5-1.3-10.9-4.2c-1.1-1.4-1.8-3.4-1.8-5.3c0-1.1,0.4-4.3,2.9-6.5c2.2-2.1,6.2-2.8,9.1-2.8c1,0,5.1,0,8.2,2.2
		c2.6,1.8,3.4,4.3,3.7,5.4l-3.9,1.1c-0.8-3.9-4.8-5-8.2-5c-2.7,0-4.6,0.6-5.5,1.3c-0.3,0.1-1,0.7-1.5,1.5c-0.7,1.2-0.8,2.4-0.8,2.9
		c0,3.9,4.1,4.8,7,5.4l3.5,0.7c3,0.6,5.8,1.8,7.7,4.4c1.5,2.1,1.6,4.1,1.6,5.1C301.4,895.1,301.4,897,300.4,898.9z"/>
	<path class="st0" d="M334.5,903.9l-12.8-17.4l-7.2,6.8v10.5h-4.1v-49.6h4.1V888l18.8-17.6h5.2l-14,13.4l15,20.2H334.5z"/>
	<path class="st0" d="M361.8,873.7c-0.8-0.1-1.6-0.2-2.6-0.2c-5.1,0-8.3,3-9.1,7.9c-0.3,1.8-0.4,4-0.4,7.9v14.5h-4.1v-33.5h4.1v5.3
		c0.2-0.6,0.6-1.2,0.9-1.7c0.4-0.6,1.8-2.4,3.9-3.3c0.9-0.4,2.4-0.8,4.8-0.8c0.6,0,1.3,0,2.5,0.1L361.8,873.7z"/>
	<path class="st0" d="M389.4,902.1c-1.3-1.3-1.4-2.7-1.5-4.4c-0.4,1.1-1,2-1.8,2.9c-1.3,1.5-4.8,3.9-10.1,3.9c-4.3,0-6.6-1.5-8-2.9
		c-0.8-0.8-2.5-3-2.5-6.3c0-1,0.1-3.2,1.8-5.3c2.5-3.1,6.7-4.1,10.3-5.1c2.1-0.6,4.2-1.2,6.3-1.6l3.9-0.8v-1.8c0-1.3,0.1-2-0.4-3.2
		c-0.7-2.2-2.6-4.5-7.7-4.4c-4.3,0-6.5,1.2-7.6,2.9c-1.1,1.6-1.2,3.4-1.3,5.2l-4.6-0.8c0.1-0.7,0.6-3.6,2-5.8
		c1.5-2.3,4.8-5.1,11.2-5.1c3.4,0,7.9,0.8,10.3,3.6c2.2,2.7,2,6.3,2,9.5v10.8c0,3.2-0.1,5.5,1.1,6.5c1.1,0.8,2.7,0.8,3.9,0.8v3.3
		C393,903.9,390.8,903.5,389.4,902.1z M387.9,886.1l-2.1,0.6c-6.5,1.8-12.2,3.1-14.2,4.6c-1.3,0.9-2.1,2.5-2.1,4.1
		c0,1.1,0.5,2.1,0.6,2.4c1.5,3.1,5.3,3.2,6.1,3.2c4.1,0,9.1-2.5,10.8-6.3c0.6-1.4,0.9-2.8,0.9-5.9V886.1z"/>
	<path class="st0" d="M424.7,903.9v-17.4c0-4.5,0-7.2-0.8-9.1c-0.7-1.8-1.9-2.5-2.5-2.9c-1.9-1.1-3.8-1.1-4.6-1.1
		c-0.8,0-2.6,0.1-4.4,0.9c-2.5,1.2-4.4,3.9-5.1,6.4c-0.4,1.6-0.4,4.5-0.4,8.5v14.7h-4.1v-33.5h4.1v6c0.3-0.8,0.8-2.2,2.4-3.7
		c1.3-1.3,3.7-3,8.2-3c6.3,0,9.1,3.4,10.2,5.8c1.3,2.7,1.2,5.3,1.2,11v17.4H424.7z"/>
	<path class="st0" d="M448.2,904.5c-0.4,0-0.8,0-1.1-0.1c-0.9-0.1-3.4-0.3-4.4-3c-0.6-1.5-0.5-5.1-0.5-6.7v-20.9h-7v-3.5h7v-14.3h4
		v14.3h7.4v3.5h-7.4v18.5c0,1.2,0,2.4,0,3.6c-0.1,2-0.1,4.9,2.7,4.9c1.7,0,3.4-1.2,4.6-2.1v4.2C452.7,903.6,451,904.5,448.2,904.5z"
		/>
</g>
</svg>
