<?xml version="1.0" encoding="utf-8"?>
<!-- Generator: Adobe Illustrator 24.3.0, SVG Export Plug-In . SVG Version: 6.00 Build 0)  -->
<svg version="1.1" id="Laag_1" xmlns="http://www.w3.org/2000/svg" xmlns:xlink="http://www.w3.org/1999/xlink" x="0px" y="0px"
	 width="80.5px" height="13.3px" viewBox="0 0 80.5 13.3" style="enable-background:new 0 0 80.5 13.3;" xml:space="preserve">
<style type="text/css">
	.st0{fill:#101010;}
</style>
<g>
	<path class="st0" d="M2.8,5.4c0,0.1-0.2,0.2-0.3,0.2h-1c-0.2,0-0.3-0.1-0.3-0.2L0,1.5h1l0.8,3c0,0.1,0.1,0.3,0.1,0.5h0.2
		c0-0.1,0.1-0.3,0.1-0.5l0.8-3h1L2.8,5.4z"/>
	<path class="st0" d="M6.6,4.5H5.1L4.8,5.6h-1l1.3-3.9c0-0.1,0.2-0.2,0.3-0.2h0.9c0.2,0,0.3,0.1,0.3,0.2l1.3,3.9H7L6.6,4.5z
		 M6.4,3.8L6.1,2.6C6,2.5,6,2.3,6,2.2H5.8L5.7,2.6L5.3,3.8H6.4z"/>
	<path class="st0" d="M8.4,1.9c0-0.2,0.1-0.3,0.4-0.3h0.6c0.2,0,0.3,0.1,0.4,0.3L10.9,4c0.1,0.2,0.2,0.4,0.3,0.7h0.1
		c0-0.2,0-0.5,0-0.7V1.5h0.9v3.8c0,0.2-0.1,0.3-0.3,0.3h-0.6c-0.2,0-0.3-0.1-0.4-0.3L9.6,3.2C9.5,3,9.4,2.7,9.4,2.5H9.3
		c0,0.2,0,0.4,0,0.7v2.4H8.4V1.9z"/>
	<path class="st0" d="M17.3,1.5v0.7c-0.4,0-1,0-1.4,0s-0.7,0-0.7,0.4c0,0.3,0.2,0.4,0.5,0.5l0.7,0.2c0.7,0.2,1,0.6,1,1.2
		c0,0.8-0.5,1.2-1.7,1.2c-0.2,0-0.9,0-1.5-0.1V4.9c0.8,0,1.2,0,1.4,0c0.5,0,0.7-0.1,0.7-0.4S16.1,4.1,15.8,4l-0.7-0.3
		c-0.7-0.2-1-0.6-1-1.2c0-0.9,0.5-1.1,1.7-1.1C16.2,1.4,16.8,1.5,17.3,1.5z"/>
	<path class="st0" d="M20.5,4.5H19l-0.3,1.1h-1L19,1.8c0-0.1,0.2-0.2,0.3-0.2h0.9c0.2,0,0.3,0.1,0.3,0.2l1.3,3.9h-1L20.5,4.5z
		 M20.3,3.8l-0.4-1.3c0-0.1-0.1-0.3-0.1-0.4h-0.2l-0.1,0.4l-0.4,1.3H20.3z"/>
	<path class="st0" d="M25.9,3.6c0,1.6-0.5,2.1-1.9,2.1c-0.7,0-1.2,0-1.7-0.1V1.5c0.5,0,1-0.1,1.7-0.1C25.4,1.5,25.9,2,25.9,3.6z
		 M24.9,3.6c0-1.1-0.2-1.4-0.9-1.4c-0.3,0-0.5,0-0.7,0V5c0.2,0,0.5,0,0.7,0C24.7,5,24.9,4.6,24.9,3.6z"/>
	<path class="st0" d="M29.6,4.9v0.7c-0.6,0-1.3,0-2,0c-0.6,0-1-0.3-1-0.8V2.3c0-0.5,0.4-0.8,1-0.8c0.7,0,1.4,0,2,0v0.7h-1.7
		c-0.2,0-0.3,0.1-0.3,0.3v0.6h1.8v0.7h-1.8v0.8c0,0.2,0.1,0.3,0.3,0.3H29.6z"/>
	<path class="st0" d="M33.6,2.3h-1.3v3.4h-1V2.3H30V1.5h3.6V2.3z"/>
	<path class="st0" d="M37.5,2.3h-1.3v3.4h-1V2.3h-1.3V1.5h3.6V2.3z"/>
	<path class="st0" d="M39,5.6h-1V1.5h1V5.6z"/>
	<path class="st0" d="M39.9,1.9c0-0.2,0.1-0.3,0.4-0.3h0.6c0.2,0,0.3,0.1,0.4,0.3L42.4,4c0.1,0.2,0.2,0.4,0.3,0.7h0.1
		c0-0.2,0-0.5,0-0.7V1.5h0.9v3.8c0,0.2-0.1,0.3-0.3,0.3h-0.6c-0.2,0-0.3-0.1-0.4-0.3l-1.2-2.2C41,3,40.9,2.7,40.8,2.5h-0.1
		c0,0.2,0,0.4,0,0.7v2.4h-0.9V1.9H39.9z"/>
	<path class="st0" d="M1.4,10.7H1c0,0.1,0,0.3,0,0.4v1.4H0V8.4h1v1.2c0,0.2,0,0.3,0,0.5h0.4l1.1-1.6h1.1l-1.1,1.6
		c-0.1,0.1-0.2,0.2-0.3,0.3l0,0c0.1,0.1,0.3,0.2,0.4,0.4l1.2,1.8H2.7L1.4,10.7z"/>
	<path class="st0" d="M5.1,12.5h-1V8.4h1V12.5z"/>
	<path class="st0" d="M9.5,12.5h-1l-0.3-1.3C8,11,7.9,10.9,7.6,10.9H6.9v1.6h-1V8.4c0.5,0,0.9-0.1,1.7-0.1c1.2,0,1.6,0.3,1.6,1.2
		c0,0.6-0.2,0.9-0.8,1l0,0c0.2,0,0.5,0.2,0.6,0.6L9.5,12.5z M8.3,9.6C8.3,9.1,8.1,9,7.6,9C7.3,9,7.1,9,6.9,9v1.2h0.7
		C8.2,10.2,8.3,10.1,8.3,9.6z"/>
	<path class="st0" d="M15,8.8l0.2,3.8h-1l-0.1-3.4H14l-0.7,2.5c0,0.2-0.2,0.3-0.4,0.3h-0.6c-0.2,0-0.4-0.1-0.4-0.3l-0.7-2.6h-0.1
		L11,12.5h-0.9l0.1-3.7c0-0.2,0.1-0.3,0.4-0.3h0.9c0.2,0,0.3,0.1,0.4,0.3l0.5,2c0.1,0.2,0.1,0.4,0.1,0.6h0.1c0-0.2,0.1-0.4,0.1-0.6
		l0.5-2c0.1-0.2,0.2-0.3,0.4-0.3h0.9C14.8,8.4,15,8.5,15,8.8z"/>
	<path class="st0" d="M16.9,12.5h-1V8.4h1V12.5z"/>
	<path class="st0" d="M17.6,11.8l1.9-2.5c0.1-0.1,0.1-0.2,0.2-0.2l0,0c-0.1,0-0.2,0-0.3,0h-1.8V8.4h3.1v0.7l-1.9,2.4
		c-0.1,0.1-0.1,0.2-0.3,0.3l0,0c0.1,0,0.2,0,0.3,0h1.9v0.7h-3.2v-0.7H17.6z"/>
	<path class="st0" d="M22.5,12.5h-1V8.4h1V12.5z"/>
	<path class="st0" d="M25.4,11.2v1.4h-1v-1.4l-1.5-2.7h1l0.8,1.4c0.1,0.2,0.1,0.4,0.2,0.5H25c0-0.2,0.1-0.4,0.2-0.5l0.7-1.5h1
		L25.4,11.2z"/>
	<path class="st0" d="M30.8,10.9c0,1.3-0.5,1.7-1.7,1.7c-1.4,0-1.9-0.5-1.9-1.7V8.4h1v2.5c0,0.8,0.2,1,0.8,1c0.6,0,0.8-0.2,0.8-1
		V8.4h1C30.8,8.4,30.8,10.9,30.8,10.9z M28.8,7.5v0.3c0,0.1-0.1,0.2-0.2,0.2h-0.3c-0.1,0-0.2-0.1-0.2-0.2V7.5c0-0.1,0.1-0.2,0.2-0.2
		h0.3C28.7,7.3,28.8,7.3,28.8,7.5z M29.9,7.5v0.3c0,0.1-0.1,0.2-0.2,0.2h-0.3c-0.1,0-0.2-0.1-0.2-0.2V7.5c0-0.1,0.1-0.2,0.2-0.2h0.3
		C29.9,7.3,29.9,7.3,29.9,7.5z"/>
	<path class="st0" d="M31.4,11.8l1.9-2.5c0.1-0.1,0.1-0.2,0.2-0.2l0,0c-0.1,0-0.2,0-0.3,0h-1.8V8.4h3.1v0.7l-1.9,2.4
		c-0.1,0.1-0.1,0.2-0.3,0.3l0,0c0.1,0,0.2,0,0.3,0h1.9v0.7h-3.2v-0.7H31.4z"/>
</g>
</svg>
