<?xml version="1.0" encoding="utf-8"?>
<!-- Generator: Adobe Illustrator 23.0.2, SVG Export Plug-In . SVG Version: 6.00 Build 0)  -->
<svg version="1.1" id="Laag_1" xmlns="http://www.w3.org/2000/svg" xmlns:xlink="http://www.w3.org/1999/xlink" x="0px" y="0px"
	 width="617.9px" height="41.3px" viewBox="0 0 617.9 41.3" style="enable-background:new 0 0 617.9 41.3;" xml:space="preserve">
<style type="text/css">
	.st0{fill:#FFFFFF;}
</style>
<g>
	<path class="st0" d="M313.9,27c2.9-2.9,4.4-6.2,4.4-10.6c0-4.1-1.1-7.4-4.1-10.4c-3.3-3.3-7.2-4.3-12.4-4.3h-15.1v1.7h0.9
		c2.3,0,3.4,1.4,3.4,3.8v19c0,2.5-1.1,3.8-3.4,3.8h-0.9v1.7h15.4C306.7,31.8,310.5,30.4,313.9,27z M295.7,25.8V3.4h2.3
		c2.8,0,7.5,0,11.4,4c3,3,3.6,7.4,3.6,10.1c0,4.4-0.9,7.1-3.2,9.4c-2,2.1-4.7,3.3-8.9,3.3C297,30.1,295.7,28.8,295.7,25.8z"/>
	<path class="st0" d="M555.9,27.2v-9.6c0-4-2.1-6.1-5.3-6.1c-2.6,0-4.6,1.7-6.6,3.3v-3.3h-0.9l-5.7,2v0.9l2.9,1.5v11.3
		c0,1.9-1.1,2.9-2.7,2.9h-0.4v1.7h9.8v-1.7h-0.4c-1.7,0-2.7-0.9-2.7-2.9V16.4c1.3-0.9,3.1-2,4.7-2c2.5,0,3.5,1.7,3.5,4v8.7
		c0,1.9-1.1,2.9-2.7,2.9h-0.3v1.7h9.7v-1.7h-0.3C557,30.1,555.9,29.1,555.9,27.2z"/>
	<path class="st0" d="M531.2,27.2v-9.6c0-4-2.1-6.1-5.3-6.1c-2.6,0-4.6,1.7-6.6,3.3v-3.3h-0.9l-5.7,2v0.9l2.9,1.5v11.3
		c0,1.9-1.1,2.9-2.7,2.9h-0.4v1.7h9.8v-1.7h-0.4c-1.7,0-2.7-0.9-2.7-2.9V16.4c1.3-0.9,3.1-2,4.7-2c2.5,0,3.5,1.7,3.5,4v8.7
		c0,1.9-1.1,2.9-2.7,2.9h-0.3v1.7h9.7v-1.7h-0.3C532.2,30.1,531.2,29.1,531.2,27.2z"/>
	<path class="st0" d="M569.1,27.2V11.4h-0.9l-5.6,2l0,0.9l2.8,1.5v11.4c0,1.9-1,2.9-2.7,2.9h-0.5v1.7h10.1v-1.7h-0.5
		C570.2,30.1,569.1,29.1,569.1,27.2z"/>
	<path class="st0" d="M472.2,11.8c-2.2,0-3.5,1.6-5.5,4.9h-0.1v-5.2l-1.2,0l-5.6,2.5v0.6l3.4,1.9v10.8c0,1.9-1.1,2.9-2.7,2.9h-0.7
		v1.7h11.3v-1.7h-1.5c-1.7,0-2.7-0.9-2.7-2.9v-8.9c0.6-1.1,1.8-3.2,3.3-3.2s1.5,1.9,3.2,1.9c1.3,0,1.7-2.8,1.7-2.9
		C475.2,13.2,474,11.8,472.2,11.8z"/>
	<path class="st0" d="M459.5,1.7h-27.2l-0.5,7h1.7c1.3-3.2,3.7-5.3,6.7-5.3h3.5v22.8c0,2.5-1.1,3.8-3.4,3.8h-0.9v1.7h13.4v-1.7h-0.9
		c-2.4,0-3.4-1.4-3.4-3.8V3.4h3.5c2.5,0,5.3,1.8,6.7,5.4h1.6L459.5,1.7z"/>
	<path class="st0" d="M485.6,27.2V11.4h-0.9l-5.6,2l0,0.9l2.8,1.5v11.4c0,1.9-1,2.9-2.7,2.9h-0.5v1.7h10.1v-1.7h-0.5
		C486.6,30.1,485.6,29.1,485.6,27.2z"/>
	<path class="st0" d="M331,32.2c3.2,0,6.3-1.9,8-4.7l-0.9-0.9c-1.8,1.5-3.8,2.3-5.6,2.3c-4,0-7-4.3-7-8.5H339c0-5.2-3-9-7.9-9
		c-3.9,0-8.9,3.3-8.9,10.4c0,3.6,1,6.1,2.9,8C326.6,31.3,328.5,32.2,331,32.2z M330.2,13c2.8,0,4.2,2.5,4.2,5.7h-8.9
		C325.5,16.2,327.2,13,330.2,13z"/>
	<path class="st0" d="M500.9,11.4c-3.9,0-8.9,3.3-8.9,10.4c0,3.6,1,6.1,2.9,8c1.4,1.4,3.3,2.3,5.8,2.3c3.2,0,6.3-1.9,8-4.7l-0.9-0.9
		c-1.8,1.5-3.8,2.3-5.6,2.3c-4,0-7-4.3-7-8.5h13.4C508.7,15.2,505.7,11.4,500.9,11.4z M495.3,18.7c0-2.6,1.7-5.7,4.7-5.7
		c2.8,0,4.2,2.5,4.2,5.7H495.3z"/>
	<path class="st0" d="M262,28c0,2.7,1,4.1,4.4,4.1c1.8,0,3.3-0.3,4.7-1.3v-2c-0.6,0.2-1.7,0.7-2.8,0.7c-2.4,0-2.7-1.4-2.7-2.8V14.1
		h5.3v-2.2h-5.3V6.8h-1.3c-1,2.8-2.5,4.7-4.9,5.9v1.4h2.6V28z"/>
	<path class="st0" d="M589.5,27.1v-9.8c0-2.2-0.8-6-5.7-6c-4.2,0-7.9,2-7.9,5.1c0,0.7,0.5,2.7,1.3,2.7c0.3,0,2.9-1.1,2.9-1.5
		c0-1-0.9-1.7-0.9-2.5c0-0.8,1.1-2,3.1-2c2.4,0,3.4,1.5,3.4,4v2.5c-1.4,0.5-7,2.2-9.1,4.3c-1,1.1-1.5,2.1-1.5,3.4
		c0,2.6,2,4.9,4.9,4.9c2.2,0,3.9-1.3,5.7-3.1c0.2,1.8,1.4,3.1,2.8,3.1s2.8-1,3.6-2.2v-1.7c-0.5,0.3-1,0.8-1.6,0.8
		C589.8,29,589.5,28.1,589.5,27.1z M585.9,27.1c-1.1,0.9-2.4,2.2-4.2,2.2c-1.4,0-2.4-1.1-2.4-2.6c0-1.1,0.3-1.8,1.1-2.6
		c1.2-1.2,3.3-2.2,5.4-2.9V27.1z"/>
	<path class="st0" d="M605.3,30.1c-1.6,0-2.6-0.9-2.6-2.9v-26h-0.8l-5.7,2v0.9l2.8,1.6v21.5c0,1.9-1.1,2.9-2.7,2.9h-0.5v1.7h10v-1.7
		H605.3z"/>
	<path class="st0" d="M241.2,30.1h-0.5c-1.7,0-2.7-0.9-2.7-2.9V14.3l-1.3,3.5v-8h-3.1v16.7l0.7-1.8v2.5c0,1.6-0.7,2.5-1.9,2.7
		l-0.7,1.8h9.5V30.1z"/>
	<path class="st0" d="M255.7,30.8v-2c-0.6,0.2-1.7,0.7-2.8,0.7c-2.4,0-2.7-1.4-2.7-2.8V14.1h5.3v-2.2h-5.3V6.8h-1.3
		c-1,2.8-2.5,4.7-4.9,5.9v1.4h2.6v14c0,2.7,1,4.1,4.4,4.1C252.9,32.2,254.3,31.9,255.7,30.8z"/>
	<path class="st0" d="M352.4,25.5c0.6,0.7,0.9,1.4,0.9,2.3c0,1.4-1.3,2.9-3.9,2.9c-2.3,0-4.3-1.5-4.7-5.3h-1.5v5.5
		c2,0.9,4.3,1.4,6.4,1.4c4.4,0,6.7-2.6,6.7-5.7c0-1.5-0.6-2.9-1.5-3.9c-3.1-3.1-8.9-3.4-8.9-6.9c0-1.3,0.9-2.8,3.1-2.8
		c2.3,0,3.9,1.4,4.6,5.1h1.4v-4.6c-1.7-1.3-3.7-2-5.7-2c-3.8,0-6.6,2.2-6.6,5.5c0,1,0.3,2.3,1.5,3.6
		C346.1,22.5,350.8,23.9,352.4,25.5z"/>
	<path class="st0" d="M567.3,6.1c1.3,0,2.4-1.1,2.4-2.4c0-1.3-1.1-2.4-2.4-2.4c-1.4,0-2.4,1.1-2.4,2.4C564.8,5,565.9,6.1,567.3,6.1z
		"/>
	<path class="st0" d="M366.6,27.2V11.4h-0.9l-5.6,2l0,0.9l2.8,1.5v11.4c0,1.9-1,2.9-2.7,2.9h-0.5v1.7h10.1v-1.7h-0.5
		C367.6,30.1,366.6,29.1,366.6,27.2z"/>
	<path class="st0" d="M483.7,6.1c1.3,0,2.4-1.1,2.4-2.4c0-1.3-1.1-2.4-2.4-2.4c-1.4,0-2.4,1.1-2.4,2.4C481.3,5,482.3,6.1,483.7,6.1z
		"/>
	<path class="st0" d="M364.7,6.1c1.3,0,2.4-1.1,2.4-2.4c0-1.3-1.1-2.4-2.4-2.4c-1.4,0-2.4,1.1-2.4,2.4C362.3,5,363.4,6.1,364.7,6.1z
		"/>
	<path class="st0" d="M413.6,27.2v-9.6c0-4-2.1-6.1-5.3-6.1c-2.6,0-4.6,1.7-6.6,3.3v-3.3h-0.9l-5.7,2v0.9l2.9,1.5v11.3
		c0,1.9-1.1,2.9-2.7,2.9h-0.4v1.7h9.8v-1.7h-0.4c-1.7,0-2.7-0.9-2.7-2.9V16.4c1.3-0.9,3.1-2,4.7-2c2.5,0,3.5,1.7,3.5,4v8.7
		c0,1.9-1.1,2.9-2.7,2.9h-0.3v1.7h9.7v-1.7h-0.3C414.6,30.1,413.6,29.1,413.6,27.2z"/>
	<path class="st0" d="M372.2,36.2c0,0.6,0.3,1.4,1.1,2.3c1.1,1.1,3,1.7,6.6,1.7c3.9,0,7.7-0.8,9.7-2.9c1-1,1.8-2.4,1.8-4
		c0-1.2-0.6-2.3-1.2-3c-1.7-1.7-5.7-1.6-8-1.6c-4.4,0-5.6-0.3-5.6-1.2c0-0.8,1-1.7,1.7-2.4c0.8,0.3,1.4,0.5,2.9,0.5
		c5.4,0,7.9-4.2,7.9-7.2c0-0.9-0.2-2-0.7-2.8l1.7,0.2h1.6l0.2-2.9h-1.9c-1.7,0-3.3-0.3-4.8-0.7c-1.5-0.3-2.9-0.7-4.3-0.7
		c-4.3,0-7.2,3.2-7.2,7.2c0,1.8,0.9,4.2,3.6,5.9c-1.4,1.1-3.7,2.7-3.7,4.4c0,1,1,2.1,2.6,2.6C374.4,32.5,372.2,34.1,372.2,36.2z
		 M380.9,13.2c1.7,0,4.2,1.5,4.2,5.8c0,3.4-1.9,4.7-3.6,4.7c-2.3,0-4.1-2-4.1-6C377.4,14.5,379.3,13.2,380.9,13.2z M377.2,31.8
		c6,0.8,9.3-0.2,10.8,1.4c0.5,0.5,0.6,1.1,0.6,1.3c0,2.3-2.7,3.5-7.5,3.5c-4.5,0-5.7-1.4-5.7-2.9C375.3,34.3,375.7,33.4,377.2,31.8z
		"/>
	<path class="st0" d="M128.7,20.5c0-5.3,2.5-7.9,6.5-7.9h0.6V9.7h-0.5c-3.8,0-6.1,1.7-6.8,4.9V9.8h-2.9v20.9h3.1V20.5z"/>
	<path class="st0" d="M187.5,31.2c4.4,0,7.9-2.7,8.5-6.4h-2.8c-0.7,2.4-2.6,4-5.8,4c-4.4,0-6.3-2.9-6.3-6.6v-0.7h15v-3.1
		c0-5.2-2.9-9.1-8.9-9.1c-5.9,0-9.1,3.8-9.1,9.5v3.4C178.2,27.8,182,31.2,187.5,31.2z M181.2,18.5c0-3.8,1.6-6.8,6.1-6.8
		c4.1,0,6,2.8,6,6.5v1h-12.1V18.5z"/>
	<path class="st0" d="M235.2,6.2c1.2,0,2-0.8,2-1.9s-0.8-1.9-2-1.9c-1.2,0-2,0.8-2,1.9S234,6.2,235.2,6.2z"/>
	<path class="st0" d="M80.9,27.6c1.3,2.1,3.7,3.6,7,3.6c5.3,0,8.7-3.9,8.7-9.4v-3.2c0-5.3-3.2-9.4-8.8-9.4c-3.5,0-6.2,1.8-7.1,3.8
		V9.8h-2.9v28.1h3.1V27.6z M80.9,19.1c0-4.1,2.2-7.2,6.4-7.2c4.3,0,6.2,3.1,6.2,7v2.9c0,3.8-2.2,7-6.1,7c-3.5,0-6.4-2.7-6.4-7V19.1z
		"/>
	<path class="st0" d="M110.8,31.2c4.4,0,7.9-2.7,8.5-6.4h-2.8c-0.7,2.4-2.6,4-5.8,4c-4.4,0-6.3-2.9-6.3-6.6v-0.7h15v-3.1
		c0-5.2-2.9-9.1-8.9-9.1c-5.9,0-9.1,3.8-9.1,9.5v3.4C101.5,27.8,105.3,31.2,110.8,31.2z M104.5,18.5c0-3.8,1.6-6.8,6.1-6.8
		c4.1,0,6,2.8,6,6.5v1h-12.1V18.5z"/>
	<polygon class="st0" points="153.5,17.8 168.6,17.8 168.6,30.8 171.8,30.8 171.8,2.1 168.6,2.1 168.6,15 153.5,15 153.5,2.1 
		150.3,2.1 150.3,30.8 153.5,30.8 	"/>
	<polygon class="st0" points="208.6,30.8 214.2,13.1 219.7,30.8 222.7,30.8 228.4,9.8 225.5,9.8 221,27 215.6,9.8 212.7,9.8 
		207.3,27 202.9,9.8 199.9,9.8 205.7,30.8 	"/>
	<path class="st0" d="M12.7,4.2c5.2,0,7.8,3.4,8.3,7.4H24c-0.5-5.4-4.7-10-11.3-10C4.9,1.6,0.8,6.9,0.8,14v4.8
		c0,7.1,4,12.5,11.9,12.5c6.6,0,10.8-4.6,11.3-10H21c-0.5,3.9-3.1,7.4-8.3,7.4C6.9,28.7,4,24.6,4,19v-5.1C4,8.3,6.9,4.2,12.7,4.2z"
		/>
	<path class="st0" d="M38.7,31.2c5.9,0,9.3-4.1,9.3-9.2v-3.4c0-5.2-3.4-9.2-9.3-9.2c-5.9,0-9.4,4.1-9.4,9.2V22
		C29.4,27.2,32.7,31.2,38.7,31.2z M32.4,18.6c0-4,2.2-6.8,6.3-6.8c4.1,0,6.3,2.8,6.3,6.8V22c0,4-2.2,6.8-6.3,6.8
		c-4.1,0-6.3-2.8-6.3-6.8V18.6z"/>
	<path class="st0" d="M62.4,31.2c5.9,0,9.3-4.1,9.3-9.2v-3.4c0-5.2-3.4-9.2-9.3-9.2c-5.9,0-9.4,4.1-9.4,9.2V22
		C53,27.2,56.4,31.2,62.4,31.2z M56.1,18.6c0-4,2.2-6.8,6.3-6.8c4.1,0,6.3,2.8,6.3,6.8V22c0,4-2.2,6.8-6.3,6.8
		c-4.1,0-6.3-2.8-6.3-6.8V18.6z"/>
</g>
</svg>
