<?xml version="1.0" encoding="utf-8"?>
<!-- Generator: Adobe Illustrator 24.3.0, SVG Export Plug-In . SVG Version: 6.00 Build 0)  -->
<svg version="1.1" id="Laag_1" xmlns="http://www.w3.org/2000/svg" xmlns:xlink="http://www.w3.org/1999/xlink" x="0px" y="0px"
	 width="383.3px" height="80.7px" viewBox="0 0 383.3 80.7" enable-background="new 0 0 383.3 80.7" xml:space="preserve">
<g>
	<path fill="#FFFFFF" d="M0,2.4h9.4l6.9,19.2l6.9-19.2h9.2L20.1,33h-7.8L0,2.4z"/>
	<path fill="#FFFFFF" d="M34.6,1.1h8.6v6.1h-8.6V1.1z M34.7,9.3h8.2v23.5h-8.2V9.3z"/>
	<path fill="#FFFFFF" d="M45.8,9.3h8.7L59,23l4.6-13.7h8.5L62.7,33h-7.5L45.8,9.3z"/>
	<path fill="#FFFFFF" d="M74.8,1.1h8.6v6.1h-8.6V1.1z M74.9,9.3h8.2v23.5h-8.2V9.3z"/>
	<path fill="#FFFFFF" d="M99.6,24.7V9.3h8.2v12.7c0,2.6,1.3,4,3.3,4c2,0,3.5-1.4,3.5-4V9.3h8.2v23.5h-8.2v-3.3c-1.5,2-3.7,3.8-7,3.8
		C102.7,33.3,99.6,30,99.6,24.7z"/>
	<path fill="#FFFFFF" d="M127.3,9.3h8.2v3.3c1.5-2,3.7-3.8,7-3.8c5,0,8,3.3,8,8.6v15.4h-8.2V20.1c0-2.6-1.3-4-3.3-4
		c-2,0-3.5,1.4-3.5,4v12.7h-8.2V9.3z"/>
	<path fill="#FFFFFF" d="M153.7,15c2.9-0.3,4.4-1.7,4.3-4.1h-3.3V2.4h8.6v6.9c0,6.4-3.5,8.6-8.9,8.8L153.7,15z"/>
	<path fill="#FFFFFF" d="M165.7,26.1L165.7,26.1c0-5,3.7-7.5,9.2-7.5c2.2,0,4.3,0.4,5.6,0.9v-0.4c0-2.5-1.5-3.9-4.7-3.9
		c-2.5,0-4.4,0.5-6.5,1.3l-1.7-5.8c2.6-1.1,5.5-1.8,9.5-1.8c4.2,0,7.1,1,8.9,2.9c1.8,1.7,2.5,4.2,2.5,7.5v13.5h-8.1v-2.5
		c-1.6,1.8-3.9,3-6.9,3C169,33.3,165.7,30.7,165.7,26.1z M180.6,24.3v-1.1c-0.9-0.3-2-0.6-3.3-0.6c-2.4,0-3.8,1.1-3.8,2.9v0.1
		c0,1.6,1.2,2.6,2.9,2.6C178.9,28.2,180.6,26.7,180.6,24.3z"/>
	<path fill="#FFFFFF" d="M189.8,9.3h8.7L203,23l4.6-13.7h8.5L206.7,33h-7.5L189.8,9.3z"/>
	<path fill="#FFFFFF" d="M216.4,9.3h8.7l4.5,13.7l4.6-13.7h8.5L233.2,33h-7.5L216.4,9.3z"/>
	<path fill="#FFFFFF" d="M243,21.2L243,21.2c0-6.9,4.9-12.4,11.9-12.4c8.1,0,11.8,5.9,11.8,12.8c0,0.5,0,1.1,0,1.7h-15.7
		c0.7,2.6,2.5,3.9,5.1,3.9c2,0,3.5-0.7,5.2-2.4l4.6,3.8c-2.3,2.9-5.5,4.8-10.2,4.8C248.2,33.4,243,28.4,243,21.2z M258.9,19.1
		c-0.3-2.6-1.9-4.3-4.1-4.3c-2.2,0-3.6,1.6-4.1,4.3H258.9z"/>
	<path fill="#FFFFFF" d="M270.2,9.3h8.2v3.3c1.5-2,3.7-3.8,7-3.8c5,0,8,3.3,8,8.6v15.4h-8.2V20.1c0-2.6-1.3-4-3.3-4
		c-2,0-3.5,1.4-3.5,4v12.7h-8.2V9.3z"/>
	<path fill="#FFFFFF" d="M299.2,25.5v-9.6h-2.8V9.3h2.8V3.4h8.2v5.9h5.5v6.6h-5.5v8c0,1.6,0.7,2.3,2.3,2.3c1.1,0,2.1-0.3,3.1-0.8
		v6.4c-1.5,0.8-3.4,1.4-5.7,1.4C302.1,33.3,299.2,31.1,299.2,25.5z"/>
	<path fill="#FFFFFF" d="M316.3,24.7V9.3h8.2v12.7c0,2.6,1.3,4,3.3,4c2,0,3.5-1.4,3.5-4V9.3h8.2v23.5h-8.2v-3.3
		c-1.5,2-3.7,3.8-7,3.8C319.3,33.3,316.3,30,316.3,24.7z"/>
	<path fill="#FFFFFF" d="M343.9,9.3h8.2v4.7c1.3-3.2,3.5-5.3,7.4-5.1v8.7h-0.7c-4.3,0-6.7,2.5-6.7,7.9v7.3h-8.2V9.3z"/>
	<path fill="#FFFFFF" d="M360.4,26.1L360.4,26.1c0-5,3.7-7.5,9.2-7.5c2.2,0,4.3,0.4,5.6,0.9v-0.4c0-2.5-1.5-3.9-4.7-3.9
		c-2.5,0-4.4,0.5-6.5,1.3l-1.7-5.8c2.6-1.1,5.5-1.8,9.5-1.8c4.2,0,7.1,1,8.9,2.9c1.8,1.7,2.5,4.2,2.5,7.5v13.5h-8.1v-2.5
		c-1.6,1.8-3.9,3-6.9,3C363.7,33.3,360.4,30.7,360.4,26.1z M375.3,24.3v-1.1c-0.9-0.3-2-0.6-3.3-0.6c-2.4,0-3.8,1.1-3.8,2.9v0.1
		c0,1.6,1.2,2.6,2.9,2.6C373.6,28.2,375.3,26.7,375.3,24.3z"/>
</g>
<g>
	<path fill="#FFFFFF" d="M1.9,56.7h8.2v3.2c1.5-2,3.7-3.7,7-3.7c3.1,0,5.5,1.4,6.8,3.8c2-2.3,4.4-3.8,7.9-3.8c5,0,8,3.1,8,8.6v15.4
		h-8.2V67.4c0-2.6-1.3-4-3.2-4s-3.4,1.4-3.4,4v12.8h-8.2V67.4c0-2.6-1.3-4-3.3-4s-3.3,1.4-3.3,4v12.8H1.9V56.7z"/>
	<path fill="#FFFFFF" d="M44.1,48.5h8.6v6.1h-8.6V48.5z M44.3,56.7h8.2v23.5h-8.2V56.7z"/>
	<path fill="#FFFFFF" d="M57.3,48.5h8.2v31.7h-8.2V48.5z"/>
	<path fill="#FFFFFF" d="M70.4,48.5h8.2v31.7h-8.2V48.5z"/>
	<path fill="#FFFFFF" d="M82.4,68.5L82.4,68.5c0-6.9,4.9-12.4,11.9-12.4c8.1,0,11.8,5.9,11.8,12.8c0,0.5,0,1.1,0,1.7H90.3
		c0.7,2.6,2.5,3.9,5.1,3.9c2,0,3.5-0.7,5.2-2.4l4.6,3.8c-2.3,2.9-5.5,4.8-10.2,4.8C87.6,80.7,82.4,75.8,82.4,68.5z M98.3,66.5
		c-0.3-2.6-1.9-4.3-4.1-4.3c-2.2,0-3.6,1.6-4.1,4.3H98.3z"/>
	<path fill="#FFFFFF" d="M109.6,56.7h8.2V60c1.5-2,3.7-3.8,7-3.8c5,0,8,3.3,8,8.6v15.4h-8.2V67.5c0-2.6-1.3-4-3.3-4
		c-2,0-3.5,1.4-3.5,4v12.7h-8.2V56.7z"/>
	<path fill="#FFFFFF" d="M136,73.4L136,73.4c0-5,3.7-7.5,9.2-7.5c2.2,0,4.3,0.4,5.6,0.9v-0.4c0-2.5-1.5-3.9-4.7-3.9
		c-2.5,0-4.4,0.5-6.5,1.3l-1.7-5.8c2.6-1.1,5.5-1.8,9.5-1.8c4.2,0,7.1,1,8.9,2.9c1.8,1.7,2.5,4.2,2.5,7.5v13.5h-8.1v-2.5
		c-1.6,1.8-3.9,3-6.9,3C139.4,80.7,136,78.1,136,73.4z M150.9,71.7v-1.1c-0.9-0.3-2-0.6-3.3-0.6c-2.4,0-3.8,1.1-3.8,2.9V73
		c0,1.6,1.2,2.6,2.9,2.6C149.2,75.5,150.9,74,150.9,71.7z"/>
	<path fill="#FFFFFF" d="M163.1,56.7h8.2v4.7c1.3-3.2,3.5-5.3,7.4-5.1V65h-0.7c-4.3,0-6.7,2.5-6.7,7.9v7.3h-8.2V56.7z"/>
	<path fill="#FFFFFF" d="M181.7,48.5h8.6v6.1h-8.6V48.5z M181.9,56.7h8.2v23.5h-8.2V56.7z"/>
	<path fill="#FFFFFF" d="M193.6,73.4L193.6,73.4c0-5,3.7-7.5,9.2-7.5c2.2,0,4.3,0.4,5.6,0.9v-0.4c0-2.5-1.5-3.9-4.7-3.9
		c-2.5,0-4.4,0.5-6.5,1.3l-1.7-5.8c2.6-1.1,5.5-1.8,9.5-1.8c4.2,0,7.1,1,8.9,2.9c1.8,1.7,2.5,4.2,2.5,7.5v13.5h-8.1v-2.5
		c-1.6,1.8-3.9,3-6.9,3C197,80.7,193.6,78.1,193.6,73.4z M208.5,71.7v-1.1c-0.9-0.3-2-0.6-3.3-0.6c-2.4,0-3.8,1.1-3.8,2.9V73
		c0,1.6,1.2,2.6,2.9,2.6C206.9,75.5,208.5,74,208.5,71.7z"/>
	<path fill="#FFFFFF" d="M220.4,71.7h8.6v8.5h-8.6V71.7z"/>
</g>
</svg>
