<?xml version="1.0" encoding="utf-8"?>
<!-- Generator: Adobe Illustrator 24.0.0, SVG Export Plug-In . SVG Version: 6.00 Build 0)  -->
<svg version="1.1" id="Laag_1" xmlns="http://www.w3.org/2000/svg" xmlns:xlink="http://www.w3.org/1999/xlink" x="0px" y="0px"
	 width="232.7px" height="14.8px" viewBox="0 0 232.7 14.8" style="enable-background:new 0 0 232.7 14.8;" xml:space="preserve">
<style type="text/css">
	.st0{fill:#FFFFFF;}
</style>
<g>
	<path class="st0" d="M0,0.6h11.2V4H3.9v2.4h6.6v3.2H3.9v5H0V0.6z"/>
	<path class="st0" d="M12.8,0h3.9v2.8h-3.9C12.8,2.8,12.8,0,12.8,0z M12.8,3.8h3.8v10.8h-3.8V3.8z"/>
	<path class="st0" d="M18.7,3.8h3.8v1.5c0.7-0.9,1.7-1.8,3.2-1.8c2.3,0,3.7,1.5,3.7,4v7.1h-3.8V8.7c0-1.2-0.6-1.8-1.5-1.8
		s-1.6,0.6-1.6,1.8v5.8h-3.8C18.7,14.5,18.7,3.8,18.7,3.8z"/>
	<path class="st0" d="M30.9,11.5L30.9,11.5c0-2.3,1.7-3.4,4.2-3.4c1,0,2,0.2,2.6,0.4V8.3c0-1.1-0.7-1.8-2.2-1.8c-1.1,0-2,0.2-3,0.6
		l-0.8-2.7C33,4,34.3,3.6,36.1,3.6c1.9,0,3.3,0.5,4.1,1.3s1.2,1.9,1.2,3.4v6.2h-3.7v-1.1c-0.8,0.8-1.8,1.4-3.2,1.4
		C32.4,14.8,30.9,13.6,30.9,11.5z M37.7,10.7v-0.5c-0.4-0.2-0.9-0.3-1.5-0.3c-1.1,0-1.7,0.5-1.7,1.3l0,0c0,0.7,0.6,1.2,1.3,1.2
		C37,12.4,37.7,11.7,37.7,10.7z"/>
	<path class="st0" d="M43.4,0h3.8v14.6h-3.8V0z"/>
	<path class="st0" d="M49.3,3.8h3.8v1.5c0.7-0.9,1.7-1.7,3.2-1.7c1.4,0,2.5,0.6,3.1,1.8c0.9-1.1,2-1.8,3.6-1.8c2.3,0,3.7,1.4,3.7,4
		v7.1H63v-6c0-1.2-0.6-1.8-1.5-1.8s-1.6,0.6-1.6,1.8v5.9h-3.8V8.7c0-1.2-0.6-1.8-1.5-1.8s-1.5,0.6-1.5,1.8v5.9h-3.8
		C49.3,14.6,49.3,3.8,49.3,3.8z"/>
	<path class="st0" d="M68.3,9.2L68.3,9.2c0-3.2,2.3-5.7,5.4-5.7c3.7,0,5.4,2.7,5.4,5.9c0,0.2,0,0.5,0,0.8h-7.2
		c0.3,1.2,1.2,1.8,2.3,1.8c0.9,0,1.6-0.3,2.4-1.1l2.1,1.7c-1,1.3-2.5,2.2-4.7,2.2C70.7,14.8,68.3,12.6,68.3,9.2z M75.6,8.3
		c-0.1-1.2-0.9-2-1.9-2s-1.7,0.8-1.9,2H75.6z"/>
	<path class="st0" d="M80.8,3.8h3.8v1.5c0.7-0.9,1.7-1.8,3.2-1.8c2.3,0,3.7,1.5,3.7,4v7.1h-3.8V8.7c0-1.2-0.6-1.8-1.5-1.8
		s-1.6,0.6-1.6,1.8v5.8h-3.8C80.8,14.5,80.8,3.8,80.8,3.8z"/>
	<path class="st0" d="M94.1,11.2V6.8h-1.3v-3h1.3V1h3.8v2.7h2.5v3h-2.5v3.7c0,0.8,0.3,1.1,1,1.1c0.5,0,1-0.1,1.4-0.4v3
		c-0.7,0.4-1.6,0.6-2.6,0.6C95.5,14.8,94.1,13.8,94.1,11.2z"/>
	<path class="st0" d="M101.4,9.2L101.4,9.2c0-3.2,2.3-5.7,5.4-5.7c3.7,0,5.4,2.7,5.4,5.9c0,0.2,0,0.5,0,0.8H105
		c0.3,1.2,1.2,1.8,2.3,1.8c0.9,0,1.6-0.3,2.4-1.1l2.1,1.7c-1,1.3-2.5,2.2-4.7,2.2C103.8,14.8,101.4,12.6,101.4,9.2z M108.7,8.3
		c-0.1-1.2-0.9-2-1.9-2s-1.7,0.8-1.9,2H108.7z"/>
	<path class="st0" d="M118.6,13.2l1.4-2.3c1.2,0.8,2.6,1.2,3.7,1.2c0.7,0,1-0.2,1-0.6l0,0c0-0.4-0.6-0.6-1.8-0.9
		c-2.1-0.6-3.8-1.3-3.8-3.4l0,0c0-2.3,1.8-3.6,4.3-3.6c1.6,0,3.2,0.5,4.4,1.3l-1.3,2.4c-1.1-0.6-2.3-1-3.2-1c-0.6,0-0.9,0.2-0.9,0.5
		l0,0c0,0.4,0.6,0.6,1.8,1c2.1,0.6,3.8,1.3,3.8,3.4l0,0c0,2.4-1.8,3.6-4.4,3.6C121.9,14.8,120.1,14.3,118.6,13.2z"/>
	<path class="st0" d="M129.2,9.2L129.2,9.2c0-3.2,2.3-5.7,5.4-5.7c3.7,0,5.4,2.7,5.4,5.9c0,0.2,0,0.5,0,0.8h-7.2
		c0.3,1.2,1.2,1.8,2.3,1.8c0.9,0,1.6-0.3,2.4-1.1l2.1,1.7c-1,1.3-2.5,2.2-4.7,2.2C131.6,14.8,129.2,12.6,129.2,9.2z M136.6,8.3
		c-0.1-1.2-0.9-2-1.9-2s-1.7,0.8-1.9,2H136.6z"/>
	<path class="st0" d="M141.8,3.8h3.8v1.5c0.7-0.9,1.7-1.8,3.2-1.8c2.3,0,3.7,1.5,3.7,4v7.1h-3.8V8.7c0-1.2-0.6-1.8-1.5-1.8
		s-1.6,0.6-1.6,1.8v5.8h-3.8L141.8,3.8L141.8,3.8z"/>
	<path class="st0" d="M154.1,12.1l5-5.3h-4.8v-3h9.8v2.5l-5,5.3h5v3h-10V12.1z"/>
	<path class="st0" d="M165.1,11.5L165.1,11.5c0-2.3,1.7-3.4,4.2-3.4c1,0,2,0.2,2.6,0.4V8.3c0-1.1-0.7-1.8-2.2-1.8
		c-1.1,0-2,0.2-3,0.6L166,4.4c1.2-0.5,2.5-0.8,4.4-0.8s3.3,0.5,4.1,1.3s1.2,1.9,1.2,3.4v6.2H172v-1.1c-0.8,0.8-1.8,1.4-3.2,1.4
		C166.7,14.8,165.1,13.6,165.1,11.5z M172,10.7v-0.5c-0.4-0.2-0.9-0.3-1.5-0.3c-1.1,0-1.7,0.5-1.7,1.3l0,0c0,0.7,0.6,1.2,1.3,1.2
		C171.2,12.4,172,11.7,172,10.7z"/>
	<path class="st0" d="M182.7,9.2L182.7,9.2c0-3.1,2.4-5.7,5.8-5.7c2.2,0,3.7,1,4.6,2.4l-2.6,1.9c-0.5-0.7-1.1-1.1-2-1.1
		c-1.2,0-2.1,1.1-2.1,2.4l0,0c0,1.4,0.9,2.5,2.2,2.5c0.9,0,1.5-0.4,2.1-1.1l2.5,1.8c-1,1.5-2.4,2.5-4.8,2.5
		C185.1,14.8,182.7,12.3,182.7,9.2z"/>
	<path class="st0" d="M193.8,9.2L193.8,9.2c0-3.1,2.5-5.7,6-5.7s5.9,2.5,5.9,5.6l0,0c0,3.1-2.5,5.6-6,5.6
		C196.3,14.8,193.8,12.3,193.8,9.2z M202,9.2L202,9.2c0-1.4-1-2.5-2.3-2.5c-1.4,0-2.3,1.1-2.3,2.4l0,0c0,1.3,1,2.4,2.3,2.4
		C201.1,11.6,202,10.5,202,9.2z"/>
	<path class="st0" d="M206.9,9.2L206.9,9.2c0-3.6,2.2-5.7,4.8-5.7c1.6,0,2.6,0.7,3.3,1.6V0h3.8v14.6H215v-1.4
		c-0.7,0.9-1.7,1.7-3.3,1.7C209.1,14.8,206.9,12.7,206.9,9.2z M215,9.2L215,9.2c0-1.5-1-2.5-2.2-2.5s-2.2,1-2.2,2.5l0,0
		c0,1.4,1,2.5,2.2,2.5C214,11.6,215,10.6,215,9.2z"/>
	<path class="st0" d="M220.3,9.2L220.3,9.2c0-3.2,2.3-5.7,5.4-5.7c3.7,0,5.4,2.7,5.4,5.9c0,0.2,0,0.5,0,0.8H224
		c0.3,1.2,1.2,1.8,2.3,1.8c0.9,0,1.6-0.3,2.4-1.1l2.1,1.7c-1,1.3-2.5,2.2-4.7,2.2C222.7,14.8,220.3,12.6,220.3,9.2z M227.7,8.3
		c-0.1-1.2-0.9-2-1.9-2s-1.7,0.8-1.9,2H227.7z"/>
</g>
</svg>
