
<!-- Generator: Adobe Illustrator 24.3.0, SVG Export Plug-In . SVG Version: 6.00 Build 0)  -->
<svg version="1.1" id="Laag_1" xmlns:v="https://vecta.io/nano"
	 xmlns="http://www.w3.org/2000/svg" xmlns:xlink="http://www.w3.org/1999/xlink" x="0px" y="0px" width="538.9px" height="137.9px"
	 viewBox="0 0 538.9 137.9" style="enable-background:new 0 0 538.9 137.9;" xml:space="preserve">
<style type="text/css">
	.st0{fill:#6A3F24;}
</style>
<g>
	<path class="st0" d="M14.9,36.1c-2.1,0-4-0.3-5.6-0.8S6.2,34,5,32.9s-2.2-2.6-2.8-4.3s-1-3.9-1-6.3V1.7h7.2l0,20.5
		c0,4.9,2.2,7.3,6.5,7.3s6.5-2.4,6.5-7.3V1.7h7.1v20.5c0,4.7-1.2,8.2-3.6,10.5S19.2,36.1,14.9,36.1z"/>
	<path class="st0" d="M47.5,9.7c3.3,0,5.8,0.9,7.5,2.8s2.6,4.6,2.6,8.1v15h-6.9V21.3c0-1.9-0.3-3.4-0.9-4.3s-1.8-1.4-3.4-1.4
		c-1.6,0-2.8,0.5-3.7,1.5s-1.3,2.4-1.3,4.2v14.2h-6.9V10.2h5.2c0.3,0,0.5,0.1,0.7,0.3s0.3,0.4,0.3,0.7V13
		C42.4,10.8,44.7,9.7,47.5,9.7z"/>
	<path class="st0" d="M91.5,9.7c3.5,0,6.3,1.2,8.3,3.6s3.1,5.6,3.1,9.6c0,4.2-1,7.4-3.1,9.7s-5,3.5-8.8,3.5c-2.7,0-5-0.8-6.7-2.2V44
		h-6.9V10.2h5.2c0.3,0,0.5,0.1,0.7,0.3s0.3,0.4,0.3,0.7v2.2C85.7,10.9,88.4,9.7,91.5,9.7z M90.2,30.1c1.8,0,3.2-0.7,4.3-2
		s1.6-3.1,1.6-5.2s-0.5-3.9-1.5-5.2s-2.4-2-4.3-2s-3.3,0.6-4.3,1.8s-1.6,2.9-1.7,5V23c0,2.2,0.5,3.9,1.6,5.2S88.4,30.1,90.2,30.1z"
		/>
	<path class="st0" d="M118.7,9.6c3.8,0,7,1.3,9.3,3.8s3.6,5.8,3.6,9.9v1.1c0,0.2-0.1,0.5-0.3,0.7s-0.4,0.3-0.7,0.3h-17.8
		c0.4,1.4,1.1,2.6,2.1,3.4s2.2,1.3,3.8,1.3c1.1,0,2.1-0.3,2.9-0.8s1.4-1.2,1.8-1.9c0.3-0.5,0.8-0.6,1.3-0.4l5.7,2
		c-0.9,2.2-2.3,4-4.3,5.2s-4.5,1.9-7.5,1.9c-3.9,0-7-1.2-9.4-3.6s-3.6-5.6-3.6-9.5c0-4,1.2-7.2,3.6-9.7S114.8,9.6,118.7,9.6z
		 M118.7,15.6c-1.4,0-2.6,0.4-3.5,1.1s-1.7,1.8-2.1,3.1h11.2c-0.5-1.3-1.2-2.3-2.1-3.1S120,15.6,118.7,15.6z"/>
	<path class="st0" d="M149.3,9.7c3.3,0,5.8,0.9,7.5,2.8s2.6,4.6,2.6,8.1v15h-6.9V21.3c0-1.9-0.3-3.4-0.9-4.3s-1.8-1.4-3.4-1.4
		c-1.6,0-2.8,0.5-3.7,1.5s-1.3,2.4-1.3,4.2v14.2h-6.9V10.2h5.2c0.3,0,0.5,0.1,0.7,0.3s0.3,0.4,0.3,0.7V13
		C144.2,10.8,146.5,9.7,149.3,9.7z"/>
	<path class="st0" d="M174,36.1c-2.2,0-4.2-0.3-6-0.9s-3.4-1.4-4.5-2.4l2.7-4.1c0.2-0.3,0.5-0.5,0.8-0.5s0.7,0,1,0.2
		c2,1.2,4,1.7,5.9,1.7c1.2,0,2.1-0.2,2.7-0.6s0.9-0.9,0.9-1.6c0-0.5-0.2-1-0.6-1.3s-0.9-0.6-1.7-0.8c-0.6-0.2-1.5-0.4-2.6-0.6
		s-2.1-0.5-2.8-0.7c-1.8-0.5-3.2-1.3-4.2-2.6s-1.5-2.7-1.5-4.5c0-2.4,0.9-4.3,2.7-5.8s4.1-2.2,7.1-2.2c1.9,0,3.7,0.3,5.4,0.9
		s3,1.4,4.1,2.2l-2.5,4.1c-0.4,0.7-1,0.8-1.7,0.4c-2-1.2-4-1.8-6-1.8c-0.8,0-1.4,0.2-1.8,0.5s-0.7,0.7-0.7,1.2c0,0.4,0.1,0.7,0.4,1
		s0.7,0.5,1.2,0.6c1.1,0.3,2.6,0.8,4.5,1.2c2.5,0.6,4.4,1.6,5.6,3s1.9,3.1,1.9,5c0,2.5-0.9,4.4-2.7,5.9S177.1,36.1,174,36.1z"/>
	<path class="st0" d="M191.8,7.5c-1.1,0-2-0.3-2.7-1s-1-1.6-1-2.7c0-1.1,0.3-2,1-2.7s1.6-1.1,2.7-1.1c1.1,0,2,0.4,2.7,1.1
		s1.1,1.6,1.1,2.7c0,1.1-0.4,2-1.1,2.7S192.9,7.5,191.8,7.5z M188.4,35.6V10.2h6.9v25.4H188.4z"/>
	<path class="st0" d="M213,9.6c3.8,0,7,1.3,9.3,3.8s3.6,5.8,3.6,9.9v1.1c0,0.2-0.1,0.5-0.3,0.7s-0.4,0.3-0.7,0.3h-17.8
		c0.4,1.4,1.1,2.6,2.1,3.4s2.2,1.3,3.7,1.3c1.1,0,2.1-0.3,2.9-0.8s1.4-1.2,1.8-1.9c0.3-0.5,0.8-0.6,1.3-0.4l5.7,2
		c-0.9,2.2-2.3,4-4.3,5.2s-4.5,1.9-7.5,1.9c-3.9,0-7-1.2-9.4-3.6S200,26.9,200,23c0-4,1.2-7.2,3.6-9.7S209.1,9.6,213,9.6z M213,15.6
		c-1.4,0-2.6,0.4-3.5,1.1s-1.7,1.8-2.1,3.1h11.2c-0.5-1.3-1.2-2.3-2.1-3.1S214.3,15.6,213,15.6z"/>
	<path class="st0" d="M244.3,10.2h0.4v3.9c0,0.5-0.2,1-0.5,1.3s-0.7,0.5-1.2,0.5h-0.3c-2,0-3.4,0.6-4.4,1.8s-1.5,2.8-1.5,5v12.9
		h-6.9V10.2h5.2c0.3,0,0.5,0.1,0.7,0.3s0.3,0.4,0.3,0.7v2.5C238.1,11.3,240.8,10.2,244.3,10.2z"/>
	<path class="st0" d="M268.2,32.5c-2.3,2.4-5.4,3.6-9.3,3.6s-7-1.2-9.3-3.6s-3.5-5.6-3.5-9.7s1.2-7.3,3.5-9.7s5.4-3.6,9.3-3.6
		s7,1.2,9.3,3.6s3.5,5.6,3.5,9.7C271.7,26.9,270.5,30.1,268.2,32.5z M254.6,28.1c1,1.3,2.5,2,4.3,2s3.3-0.7,4.3-2s1.5-3.1,1.5-5.2
		s-0.5-3.9-1.5-5.2s-2.5-2-4.3-2s-3.3,0.7-4.3,2s-1.5,3.1-1.5,5.2S253.5,26.8,254.6,28.1z"/>
	<path class="st0" d="M305.5,10.2h7.5l-9.5,25.4h-7.4l-9.5-25.4h7.6l5.2,14.4c0.1,0.2,0.1,0.3,0.1,0.5v0.7c0,0.2,0.1,0.2,0.2,0.2
		h0.1L305.5,10.2z"/>
	<path class="st0" d="M326.9,9.6c3.8,0,7,1.3,9.3,3.8s3.6,5.8,3.6,9.9v1.1c0,0.2-0.1,0.5-0.3,0.7s-0.4,0.3-0.7,0.3H321
		c0.4,1.4,1.1,2.6,2.1,3.4s2.2,1.3,3.8,1.3c1.1,0,2.1-0.3,2.9-0.8s1.4-1.2,1.8-1.9c0.3-0.5,0.8-0.6,1.3-0.4l5.7,2
		c-0.9,2.2-2.3,4-4.3,5.2s-4.5,1.9-7.5,1.9c-3.9,0-7-1.2-9.4-3.6s-3.6-5.6-3.6-9.5c0-4,1.2-7.2,3.6-9.7S323,9.6,326.9,9.6z
		 M326.9,15.6c-1.4,0-2.6,0.4-3.5,1.1s-1.7,1.8-2.1,3.1h11.2c-0.5-1.3-1.2-2.3-2.1-3.1S328.2,15.6,326.9,15.6z"/>
	<path class="st0" d="M352.9,35.7c-2.6,0-4.7-0.7-6.2-2.2s-2.2-3.5-2.2-6.2V1.7h6.9v25.6c0,0.6,0.2,1.1,0.6,1.5s0.9,0.6,1.5,0.6h1.3
		c0.5,0,0.9,0.2,1.3,0.5s0.5,0.8,0.5,1.3v4.6H352.9z"/>
	<path class="st0" d="M380.8,32.5c-2.3,2.4-5.4,3.6-9.3,3.6s-7-1.2-9.3-3.6s-3.5-5.6-3.5-9.7s1.2-7.3,3.5-9.7s5.4-3.6,9.3-3.6
		s7,1.2,9.3,3.6s3.5,5.6,3.5,9.7C384.3,26.9,383.2,30.1,380.8,32.5z M367.2,28.1c1,1.3,2.5,2,4.3,2s3.3-0.7,4.3-2s1.5-3.1,1.5-5.2
		s-0.5-3.9-1.5-5.2s-2.5-2-4.3-2s-3.3,0.7-4.3,2s-1.5,3.1-1.5,5.2S366.2,26.8,367.2,28.1z"/>
	<path class="st0" d="M399.8,36.1c-3.9,0-7-1.2-9.3-3.6S387,26.9,387,23c0-4.1,1.1-7.3,3.4-9.7s5.4-3.6,9.3-3.6
		c3.1,0,5.6,0.8,7.8,2.3s3.5,3.8,4.2,6.7l-5.3,1c-1,0.2-1.7-0.1-2.1-0.9c-0.8-2.1-2.4-3.1-4.6-3.1c-1.9,0-3.3,0.7-4.4,2
		s-1.5,3.1-1.5,5.3c0,2.1,0.5,3.8,1.5,5.1s2.5,2,4.3,2c1.3,0,2.3-0.3,3-0.8s1.3-1.4,1.7-2.5c0.2-0.4,0.5-0.7,0.9-0.9
		s0.8-0.2,1.3-0.1l5.2,1c-0.6,3.1-2,5.4-4.2,7S402.9,36.1,399.8,36.1z"/>
	<path class="st0" d="M427.3,9.6c3.8,0,7,1.3,9.3,3.8s3.6,5.8,3.6,9.9v1.1c0,0.2-0.1,0.5-0.3,0.7s-0.4,0.3-0.7,0.3h-17.8
		c0.4,1.4,1.1,2.6,2.1,3.4s2.2,1.3,3.8,1.3c1.1,0,2.1-0.3,2.9-0.8s1.4-1.2,1.8-1.9c0.3-0.5,0.8-0.6,1.3-0.4l5.7,2
		c-0.9,2.2-2.3,4-4.3,5.2s-4.5,1.9-7.5,1.9c-3.9,0-7-1.2-9.4-3.6s-3.6-5.6-3.6-9.5c0-4,1.2-7.2,3.6-9.7S423.5,9.6,427.3,9.6z
		 M427.3,15.6c-1.4,0-2.6,0.4-3.5,1.1s-1.7,1.8-2.1,3.1h11.2c-0.5-1.3-1.2-2.3-2.1-3.1S428.7,15.6,427.3,15.6z"/>
	<path class="st0" d="M469.2,36.1c-3.9,0-7-1.2-9.3-3.6s-3.4-5.6-3.4-9.5c0-4.1,1.1-7.3,3.4-9.7s5.4-3.6,9.3-3.6
		c3.1,0,5.6,0.8,7.8,2.3s3.5,3.8,4.2,6.7l-5.3,1c-1,0.2-1.7-0.1-2.1-0.9c-0.8-2.1-2.4-3.1-4.6-3.1c-1.9,0-3.3,0.7-4.4,2
		s-1.5,3.1-1.5,5.3c0,2.1,0.5,3.8,1.5,5.1s2.5,2,4.3,2c1.3,0,2.3-0.3,3-0.8s1.3-1.4,1.7-2.5c0.2-0.4,0.5-0.7,0.9-0.9
		s0.8-0.2,1.3-0.1l5.2,1c-0.6,3.1-2,5.4-4.2,7S472.3,36.1,469.2,36.1z"/>
	<path class="st0" d="M498.6,9.7c3.3,0,5.8,0.9,7.5,2.8s2.6,4.6,2.6,8.1v15h-6.9V21.3c0-1.9-0.3-3.4-0.9-4.3s-1.8-1.4-3.4-1.4
		c-1.6,0-2.8,0.5-3.8,1.5s-1.4,2.4-1.4,4.2v14.2h-6.9V1.7h6.9v10.5C494,10.5,496.1,9.7,498.6,9.7z"/>
	<path class="st0" d="M526,9.6c3.8,0,7,1.3,9.3,3.8s3.6,5.8,3.6,9.9v1.1c0,0.2-0.1,0.5-0.3,0.7s-0.4,0.3-0.7,0.3h-17.8
		c0.4,1.4,1.1,2.6,2.1,3.4s2.2,1.3,3.8,1.3c1.1,0,2.1-0.3,2.9-0.8s1.4-1.2,1.8-1.9c0.3-0.5,0.8-0.6,1.3-0.4l5.7,2
		c-0.9,2.2-2.3,4-4.3,5.2s-4.5,1.9-7.5,1.9c-3.9,0-7-1.2-9.4-3.6S513,26.9,513,23c0-4,1.2-7.2,3.6-9.7S522.1,9.6,526,9.6z M526,15.6
		c-1.4,0-2.6,0.4-3.5,1.1s-1.7,1.8-2.1,3.1h11.2c-0.5-1.3-1.2-2.3-2.1-3.1S527.3,15.6,526,15.6z"/>
	<path class="st0" d="M23.8,77.1c0.3,0.3,0.5,0.9,0.5,1.7v4.9h-0.7c-3,0-5.1-1-6.4-2.9c-2.1,2.2-5.1,3.3-9,3.3c-2.5,0-4.5-0.7-6-2
		S0,78.9,0,76.6c0-2.2,0.7-4,2.1-5.5s3.6-2.4,6.5-2.8c3.7-0.4,6.1-1,7.4-1.7v-0.1c0-0.8-0.4-1.5-1.2-2s-1.7-0.8-2.9-0.8
		c-0.6,0-1.2,0-1.7,0.1s-1,0.2-1.5,0.4s-0.8,0.3-1,0.4s-0.5,0.3-1,0.6S6,65.5,6,65.5c-0.6,0.3-1.1,0.4-1.7,0.3S3.3,65.5,3,65
		l-2.1-2.9c0.3-0.4,0.8-0.9,1.3-1.3s1.3-0.9,2.2-1.4s1.9-0.9,3.1-1.3s2.5-0.5,3.8-0.5c3.7,0,6.6,0.9,8.5,2.6s2.9,4.3,2.9,7.7v7.2
		C22.8,76,23.1,76.7,23.8,77.1L23.8,77.1z M9.1,78.3c0.7,0,1.4,0,2-0.1s1.2-0.3,1.8-0.5s1.2-0.6,1.6-1s0.8-1,1.1-1.7
		s0.4-1.5,0.4-2.4v-0.7c-1.3,1.1-3.3,1.6-5.9,1.7c-1.2,0.1-2.1,0.4-2.7,0.8s-0.9,1-0.9,1.8c0,0.7,0.2,1.2,0.7,1.6S8.3,78.3,9.1,78.3
		z"/>
	<path class="st0" d="M42.6,58.2h0.4v3.9c0,0.5-0.2,1-0.5,1.3s-0.7,0.5-1.2,0.5H41c-2,0-3.4,0.6-4.4,1.8s-1.5,2.8-1.5,5v12.9h-6.9
		V58.2h5.2c0.3,0,0.5,0.1,0.7,0.3s0.3,0.4,0.3,0.7v2.5C36.4,59.3,39.1,58.2,42.6,58.2z"/>
	<path class="st0" d="M60.2,58.2h0.4v3.9c0,0.5-0.2,1-0.5,1.3s-0.7,0.5-1.2,0.5h-0.3c-2,0-3.4,0.6-4.4,1.8s-1.5,2.8-1.5,5v12.9h-6.9
		V58.2H51c0.3,0,0.5,0.1,0.7,0.3s0.3,0.4,0.3,0.7v2.5C54,59.3,56.7,58.2,60.2,58.2z"/>
	<path class="st0" d="M67.5,55.5c-1.1,0-2-0.3-2.7-1s-1-1.6-1-2.7c0-1.1,0.3-2,1-2.7s1.6-1.1,2.7-1.1c1.1,0,2,0.4,2.7,1.1
		s1.1,1.6,1.1,2.7c0,1.1-0.4,2-1.1,2.7S68.6,55.5,67.5,55.5z M64.1,83.6V58.2h6.9v25.4H64.1z"/>
	<path class="st0" d="M93.3,58.2h7.5l-9.5,25.4H84l-9.5-25.4h7.6l5.2,14.4c0.1,0.2,0.1,0.3,0.1,0.5v0.7c0,0.2,0.1,0.2,0.2,0.2h0.1
		L93.3,58.2z"/>
	<path class="st0" d="M125.4,77.1c0.3,0.3,0.5,0.9,0.5,1.7v4.9h-0.7c-3,0-5.1-1-6.4-2.9c-2.1,2.2-5.1,3.3-9,3.3c-2.5,0-4.5-0.7-6-2
		s-2.2-3.2-2.2-5.5c0-2.2,0.7-4,2.1-5.5s3.6-2.4,6.5-2.8c3.7-0.4,6.1-1,7.4-1.7v-0.1c0-0.8-0.4-1.5-1.2-2s-1.7-0.8-2.9-0.8
		c-0.6,0-1.2,0-1.7,0.1s-1,0.2-1.5,0.4s-0.8,0.3-1,0.4s-0.5,0.3-1,0.6s-0.7,0.4-0.7,0.4c-0.6,0.3-1.1,0.4-1.7,0.3s-1-0.4-1.3-0.8
		l-2.1-2.9c0.3-0.4,0.8-0.9,1.3-1.3s1.3-0.9,2.2-1.4s1.9-0.9,3.1-1.3s2.5-0.5,3.8-0.5c3.7,0,6.6,0.9,8.5,2.6s2.9,4.3,2.9,7.7v7.2
		C124.5,76,124.8,76.7,125.4,77.1L125.4,77.1z M110.8,78.3c0.7,0,1.4,0,2-0.1s1.2-0.3,1.8-0.5s1.2-0.6,1.6-1s0.8-1,1.1-1.7
		s0.4-1.5,0.4-2.4v-0.7c-1.3,1.1-3.3,1.6-5.9,1.7c-1.2,0.1-2.1,0.4-2.7,0.8s-0.9,1-0.9,1.8c0,0.7,0.2,1.2,0.7,1.6
		S110,78.3,110.8,78.3z"/>
	<path class="st0" d="M160.7,49.7h6.9v33.9h-5.2c-0.3,0-0.5-0.1-0.7-0.3s-0.3-0.4-0.3-0.7v-2.2c-2.1,2.4-4.8,3.6-7.9,3.6
		c-3.5,0-6.3-1.2-8.4-3.6s-3.1-5.6-3.1-9.6c0-4.2,1-7.4,3.1-9.7s5-3.5,8.7-3.5c2.7,0,5,0.8,6.8,2.3V49.7z M154.8,78.1
		c1.8,0,3.3-0.6,4.3-1.9s1.6-2.9,1.6-5.1v-0.5c0-2.1-0.5-3.8-1.6-5.1s-2.5-1.9-4.3-1.9s-3.2,0.7-4.3,2s-1.5,3.1-1.5,5.2
		s0.5,3.9,1.6,5.2S153,78.1,154.8,78.1z"/>
	<path class="st0" d="M196.1,77.1c0.3,0.3,0.5,0.9,0.5,1.7v4.9h-0.7c-3,0-5.1-1-6.4-2.9c-2.1,2.2-5.1,3.3-9,3.3c-2.5,0-4.5-0.7-6-2
		s-2.2-3.2-2.2-5.5c0-2.2,0.7-4,2.1-5.5s3.6-2.4,6.5-2.8c3.7-0.4,6.1-1,7.4-1.7v-0.1c0-0.8-0.4-1.5-1.2-2s-1.7-0.8-2.9-0.8
		c-0.6,0-1.2,0-1.7,0.1s-1,0.2-1.5,0.4s-0.8,0.3-1,0.4s-0.5,0.3-1,0.6s-0.7,0.4-0.7,0.4c-0.6,0.3-1.1,0.4-1.7,0.3s-1-0.4-1.3-0.8
		l-2.1-2.9c0.3-0.4,0.8-0.9,1.3-1.3s1.3-0.9,2.2-1.4s1.9-0.9,3.1-1.3s2.5-0.5,3.8-0.5c3.7,0,6.6,0.9,8.5,2.6s2.9,4.3,2.9,7.7v7.2
		C195.1,76,195.4,76.7,196.1,77.1L196.1,77.1z M181.4,78.3c0.7,0,1.4,0,2-0.1s1.2-0.3,1.8-0.5s1.2-0.6,1.6-1s0.8-1,1.1-1.7
		s0.4-1.5,0.4-2.4v-0.7c-1.3,1.1-3.3,1.6-5.9,1.7c-1.2,0.1-2.1,0.4-2.7,0.8s-0.9,1-0.9,1.8c0,0.7,0.2,1.2,0.7,1.6
		S180.6,78.3,181.4,78.3z"/>
	<path class="st0" d="M215.2,57.7c3.5,0,6.3,1.2,8.3,3.6s3.1,5.6,3.1,9.6c0,4.2-1,7.4-3.1,9.7s-5,3.5-8.8,3.5c-2.7,0-5-0.8-6.7-2.2
		V92h-6.9V58.2h5.2c0.3,0,0.5,0.1,0.7,0.3s0.3,0.4,0.3,0.7v2.2C209.4,58.9,212.1,57.7,215.2,57.7z M213.9,78.1c1.8,0,3.2-0.7,4.3-2
		s1.6-3.1,1.6-5.2s-0.5-3.9-1.5-5.2s-2.4-2-4.3-2s-3.3,0.6-4.3,1.8s-1.6,2.9-1.7,5V71c0,2.2,0.5,3.9,1.6,5.2S212.1,78.1,213.9,78.1z
		"/>
	<path class="st0" d="M245.5,57.7c3.5,0,6.3,1.2,8.3,3.6s3.1,5.6,3.1,9.6c0,4.2-1,7.4-3.1,9.7s-5,3.5-8.8,3.5c-2.7,0-5-0.8-6.7-2.2
		V92h-6.9V58.2h5.2c0.3,0,0.5,0.1,0.7,0.3s0.3,0.4,0.3,0.7v2.2C239.7,58.9,242.3,57.7,245.5,57.7z M244.2,78.1c1.8,0,3.2-0.7,4.3-2
		s1.6-3.1,1.6-5.2s-0.5-3.9-1.5-5.2s-2.4-2-4.3-2s-3.3,0.6-4.3,1.8s-1.6,2.9-1.7,5V71c0,2.2,0.5,3.9,1.6,5.2S242.4,78.1,244.2,78.1z
		"/>
	<path class="st0" d="M272.6,57.6c3.8,0,7,1.3,9.3,3.8s3.6,5.8,3.6,9.9v1.1c0,0.2-0.1,0.5-0.3,0.7s-0.4,0.3-0.7,0.3h-17.8
		c0.4,1.4,1.1,2.6,2.1,3.4s2.2,1.3,3.8,1.3c1.1,0,2.1-0.3,2.9-0.8s1.4-1.2,1.8-1.9c0.3-0.5,0.8-0.6,1.3-0.4l5.7,2
		c-0.9,2.2-2.3,4-4.3,5.2s-4.5,1.9-7.5,1.9c-3.9,0-7-1.2-9.4-3.6s-3.6-5.6-3.6-9.5c0-4,1.2-7.2,3.6-9.7S268.8,57.6,272.6,57.6z
		 M272.6,63.6c-1.4,0-2.6,0.4-3.5,1.1s-1.7,1.8-2.1,3.1h11.2c-0.5-1.3-1.2-2.3-2.1-3.1S274,63.6,272.6,63.6z"/>
	<path class="st0" d="M304,58.2h0.4v3.9c0,0.5-0.2,1-0.5,1.3s-0.7,0.5-1.2,0.5h-0.3c-2,0-3.4,0.6-4.4,1.8s-1.5,2.8-1.5,5v12.9h-6.9
		V58.2h5.2c0.3,0,0.5,0.1,0.7,0.3s0.3,0.4,0.3,0.7v2.5C297.7,59.3,300.5,58.2,304,58.2z"/>
	<path class="st0" d="M323.2,64.2h-7.4v10.3c0,0.8,0.2,1.5,0.8,2.1s1.2,0.8,2,0.8h2.9c0.5,0,1,0.2,1.3,0.5s0.5,0.8,0.5,1.3v4.6H318
		c-2.8,0-5-0.8-6.6-2.4s-2.4-3.9-2.4-6.8V64.2h-2.2c-0.5,0-1-0.2-1.3-0.5s-0.5-0.8-0.5-1.3v-4.2h4v-8.5h6.9v8.5h7.4V64.2z"/>
	<path class="st0" d="M344.5,58.2h6.9v25.4h-5.2c-0.3,0-0.5-0.1-0.7-0.3s-0.3-0.4-0.3-0.7v-1.9c-1.8,2.2-4.1,3.3-6.8,3.3
		c-3.3,0-5.8-0.9-7.5-2.6s-2.5-4.4-2.5-7.9V58.2h6.9v14.2c0,1.9,0.3,3.4,0.9,4.3s1.8,1.4,3.4,1.4c1.6,0,2.8-0.5,3.7-1.5
		s1.3-2.4,1.3-4.2V58.2z"/>
	<path class="st0" d="M373.5,64.2h-7.4v10.3c0,0.8,0.2,1.5,0.8,2.1s1.2,0.8,2,0.8h2.9c0.5,0,1,0.2,1.3,0.5s0.5,0.8,0.5,1.3v4.6h-5.2
		c-2.8,0-5-0.8-6.6-2.4s-2.4-3.9-2.4-6.8V64.2H357c-0.5,0-1-0.2-1.3-0.5s-0.5-0.8-0.5-1.3v-4.2h4v-8.5h6.9v8.5h7.4V64.2z"/>
	<path class="st0" d="M394.4,64.2H387v10.3c0,0.8,0.2,1.5,0.8,2.1s1.2,0.8,2,0.8h2.9c0.5,0,1,0.2,1.3,0.5s0.5,0.8,0.5,1.3v4.6h-5.2
		c-2.8,0-5-0.8-6.6-2.4s-2.4-3.9-2.4-6.8V64.2h-2.2c-0.5,0-1-0.2-1.3-0.5s-0.5-0.8-0.5-1.3v-4.2h4v-8.5h6.9v8.5h7.4V64.2z"/>
	<path class="st0" d="M419.8,80.5c-2.3,2.4-5.4,3.6-9.3,3.6s-7-1.2-9.3-3.6s-3.5-5.6-3.5-9.7s1.2-7.3,3.5-9.7s5.4-3.6,9.3-3.6
		s7,1.2,9.3,3.6s3.5,5.6,3.5,9.7C423.3,74.9,422.1,78.1,419.8,80.5z M406.2,76.1c1,1.3,2.5,2,4.3,2s3.3-0.7,4.3-2s1.5-3.1,1.5-5.2
		s-0.5-3.9-1.5-5.2s-2.5-2-4.3-2s-3.3,0.7-4.3,2s-1.5,3.1-1.5,5.2S405.2,74.8,406.2,76.1z"/>
	<path class="st0" d="M429.7,65.2c-1.1,0-2-0.4-2.7-1.1s-1.1-1.6-1.1-2.7c0-1.1,0.4-2,1.1-2.7s1.6-1,2.7-1c1.1,0,2,0.3,2.7,1
		s1,1.6,1,2.7c0,1.1-0.3,2-1,2.7S430.8,65.2,429.7,65.2z M429.7,84.1c-1.1,0-2-0.4-2.7-1.1s-1.1-1.6-1.1-2.7c0-1.1,0.4-2,1.1-2.7
		s1.6-1,2.7-1c1.1,0,2,0.3,2.7,1s1,1.6,1,2.7c0,1.1-0.3,2-1,2.7S430.8,84.1,429.7,84.1z"/>
	<path class="st0" d="M17.8,118.4c2.4,1.1,3.6,3.2,3.6,6.1c0,2.2-0.7,4-2.2,5.2s-3.5,1.8-6.1,1.8H2v-25.4h10.8
		c2.5,0,4.5,0.6,5.8,1.8s2.1,2.8,2.1,5C20.7,115.4,19.7,117.3,17.8,118.4z M5.3,109.1v8.1h7.5c1.5,0,2.6-0.4,3.4-1.1
		s1.2-1.7,1.2-3.1c0-1.3-0.4-2.3-1.2-3s-1.9-1-3.4-1H5.3z M13.2,128.7c1.6,0,2.8-0.4,3.6-1.1s1.3-1.8,1.3-3.2c0-1.4-0.4-2.5-1.3-3.3
		s-2.1-1.2-3.6-1.2H5.3v8.8H13.2z"/>
	<path class="st0" d="M29.8,109.1c-0.4,0.4-0.8,0.5-1.4,0.5s-1-0.2-1.4-0.5s-0.5-0.8-0.5-1.4s0.2-1,0.5-1.4s0.8-0.6,1.4-0.6
		s1,0.2,1.4,0.6s0.5,0.8,0.5,1.4S30.2,108.7,29.8,109.1z M26.9,131.6v-19.1h3v19.1H26.9z"/>
	<path class="st0" d="M45.6,128.9c2.2,0,3.9,0.3,5.1,1s1.8,1.8,1.8,3.2c0,1.5-0.8,2.7-2.3,3.5s-3.8,1.3-6.8,1.3
		c-2.9,0-5.2-0.4-6.6-1.2s-2.2-2-2.2-3.6c0-1.5,0.8-2.5,2.3-3.3c-0.3-0.1-0.7-0.4-1.1-0.9s-0.6-1.1-0.6-1.7c0-1.5,0.8-2.5,2.5-3.3
		c-1.6-1.2-2.4-2.9-2.4-5.1s0.7-3.9,2.1-5s3.2-1.7,5.4-1.7c1.8,0,3.2,0.4,4.4,1.1c0.5-0.4,1.2-0.7,2-0.7h2v2.1
		c0,0.2-0.1,0.4-0.2,0.5s-0.3,0.2-0.5,0.2h-0.5c-0.2,0-0.4,0-0.6-0.1c0.6,1,0.9,2.2,0.9,3.6c0,1.1-0.2,2.1-0.6,2.9s-0.9,1.6-1.6,2.1
		s-1.5,1-2.4,1.3s-1.9,0.4-2.9,0.4H41c-1.9,0-2.9,0.5-2.9,1.5c0,0.6,0.2,1,0.7,1.3s1.2,0.4,2.2,0.4H45.6z M43.4,135.3
		c1.9,0,3.5-0.2,4.6-0.6s1.7-0.9,1.7-1.5c0-0.6-0.3-1-0.9-1.2s-1.5-0.3-2.8-0.3h-4.6c-1.3,0-2.2,0.1-2.9,0.3s-0.9,0.6-0.9,1.2
		c0,0.6,0.5,1.1,1.5,1.5S41.4,135.3,43.4,135.3z M42.8,114.8c-1.4,0-2.5,0.3-3.3,1s-1.3,1.7-1.3,3s0.4,2.3,1.3,3s2,1.1,3.3,1.1
		c1.4,0,2.5-0.4,3.3-1.1s1.3-1.7,1.3-3c0-1.3-0.4-2.3-1.3-3S44.1,114.8,42.8,114.8z"/>
	<path class="st0" d="M60.6,131.6c-1.4,0-2.5-0.4-3.3-1.2s-1.2-1.9-1.2-3.2v-21.1h3v21.1c0,0.5,0.1,0.8,0.4,1.1s0.7,0.4,1.1,0.4h2
		c0.2,0,0.4,0.1,0.5,0.2s0.2,0.3,0.2,0.5v2.1H60.6z"/>
	<path class="st0" d="M70.2,109.1c-0.4,0.4-0.8,0.5-1.4,0.5s-1-0.2-1.4-0.5s-0.5-0.8-0.5-1.4s0.2-1,0.5-1.4s0.8-0.6,1.4-0.6
		s1,0.2,1.4,0.6s0.5,0.8,0.5,1.4S70.6,108.7,70.2,109.1z M67.3,131.6v-19.1h3v19.1H67.3z"/>
	<path class="st0" d="M84.2,112.1c2.8,0,5.1,0.9,6.8,2.8s2.5,4.3,2.5,7.3v0.2c0,0.2-0.1,0.4-0.2,0.5s-0.3,0.2-0.5,0.2H78
		c0.2,1.9,0.8,3.3,1.9,4.4s2.5,1.7,4.3,1.7c1.3,0,2.4-0.3,3.4-0.9s1.7-1.4,2.2-2.6c0.2-0.4,0.4-0.5,0.8-0.4l2.4,0.6
		c-0.6,1.9-1.7,3.4-3.3,4.5s-3.4,1.6-5.5,1.6c-2.9,0-5.2-0.9-6.8-2.7s-2.5-4.2-2.5-7.2c0-3,0.8-5.4,2.5-7.3S81.4,112.1,84.2,112.1z
		 M84.2,114.9c-1.7,0-3,0.5-4.1,1.4s-1.7,2.2-2,3.9h12.2c-0.3-1.7-1-3-2.1-3.9S85.8,114.9,84.2,114.9z"/>
	<path class="st0" d="M107.7,115.3h-6.4v10.5c0,0.9,0.3,1.6,0.8,2.1s1.2,0.8,2,0.8h2.9c0.2,0,0.4,0.1,0.5,0.2s0.2,0.3,0.2,0.5v2.1
		h-3.6c-1.8,0-3.2-0.5-4.2-1.6s-1.6-2.5-1.6-4.2v-10.5H96c-0.2,0-0.4-0.1-0.5-0.2s-0.2-0.3-0.2-0.5v-2.1h3v-6.4h3v6.4h6.4V115.3z"/>
	<path class="st0" d="M121.6,115.3h-6.4v10.5c0,0.9,0.3,1.6,0.8,2.1s1.2,0.8,2,0.8h2.9c0.2,0,0.4,0.1,0.5,0.2s0.2,0.3,0.2,0.5v2.1
		h-3.6c-1.8,0-3.2-0.5-4.2-1.6s-1.6-2.5-1.6-4.2v-10.5h-2.3c-0.2,0-0.4-0.1-0.5-0.2s-0.2-0.3-0.2-0.5v-2.1h3v-6.4h3v6.4h6.4V115.3z"
		/>
	<path class="st0" d="M128.4,109.1c-0.4,0.4-0.8,0.5-1.4,0.5s-1-0.2-1.4-0.5s-0.5-0.8-0.5-1.4s0.2-1,0.5-1.4s0.8-0.6,1.4-0.6
		s1,0.2,1.4,0.6s0.5,0.8,0.5,1.4S128.8,108.7,128.4,109.1z M125.5,131.6v-19.1h3v19.1H125.5z"/>
	<path class="st0" d="M152.9,112.1c2.8,0,5.1,0.9,6.8,2.8s2.5,4.3,2.5,7.3v0.2c0,0.2-0.1,0.4-0.2,0.5s-0.3,0.2-0.5,0.2h-14.8
		c0.2,1.9,0.8,3.3,1.9,4.4s2.5,1.7,4.3,1.7c1.3,0,2.4-0.3,3.4-0.9s1.7-1.4,2.2-2.6c0.2-0.4,0.4-0.5,0.8-0.4l2.4,0.6
		c-0.6,1.9-1.7,3.4-3.3,4.5s-3.4,1.6-5.5,1.6c-2.9,0-5.2-0.9-6.8-2.7s-2.5-4.2-2.5-7.2c0-3,0.8-5.4,2.5-7.3S150.1,112.1,152.9,112.1
		z M152.9,114.9c-1.7,0-3,0.5-4.1,1.4s-1.7,2.2-2,3.9H159c-0.3-1.7-1-3-2.1-3.9S154.5,114.9,152.9,114.9z"/>
	<path class="st0" d="M171.3,131.6c-1.4,0-2.5-0.4-3.3-1.2s-1.2-1.9-1.2-3.2v-21.1h3v21.1c0,0.5,0.1,0.8,0.4,1.1s0.7,0.4,1.1,0.4h2
		c0.2,0,0.4,0.1,0.5,0.2s0.2,0.3,0.2,0.5v2.1H171.3z"/>
	<path class="st0" d="M185.3,112.1c2.8,0,5.1,0.9,6.8,2.8s2.5,4.3,2.5,7.3v0.2c0,0.2-0.1,0.4-0.2,0.5s-0.3,0.2-0.5,0.2H179
		c0.2,1.9,0.8,3.3,1.9,4.4s2.5,1.7,4.3,1.7c1.3,0,2.4-0.3,3.4-0.9s1.7-1.4,2.2-2.6c0.2-0.4,0.4-0.5,0.8-0.4l2.4,0.6
		c-0.6,1.9-1.7,3.4-3.3,4.5s-3.4,1.6-5.5,1.6c-2.9,0-5.2-0.9-6.8-2.7s-2.5-4.2-2.5-7.2c0-3,0.8-5.4,2.5-7.3S182.4,112.1,185.3,112.1
		z M185.3,114.9c-1.7,0-3,0.5-4.1,1.4s-1.7,2.2-2,3.9h12.2c-0.3-1.7-1-3-2.1-3.9S186.9,114.9,185.3,114.9z"/>
	<path class="st0" d="M208.8,115.3h-6.4v10.5c0,0.9,0.3,1.6,0.8,2.1s1.2,0.8,2,0.8h2.9c0.2,0,0.4,0.1,0.5,0.2s0.2,0.3,0.2,0.5v2.1
		h-3.6c-1.8,0-3.2-0.5-4.2-1.6s-1.6-2.5-1.6-4.2v-10.5h-2.3c-0.2,0-0.4-0.1-0.5-0.2s-0.2-0.3-0.2-0.5v-2.1h3v-6.4h3v6.4h6.4V115.3z"
		/>
	<path class="st0" d="M222.7,115.3h-6.4v10.5c0,0.9,0.3,1.6,0.8,2.1s1.2,0.8,2,0.8h2.9c0.2,0,0.4,0.1,0.5,0.2s0.2,0.3,0.2,0.5v2.1
		h-3.6c-1.8,0-3.2-0.5-4.2-1.6s-1.6-2.5-1.6-4.2v-10.5H211c-0.2,0-0.4-0.1-0.5-0.2s-0.2-0.3-0.2-0.5v-2.1h3v-6.4h3v6.4h6.4V115.3z"
		/>
	<path class="st0" d="M235.7,112.5h0.3v2.1c0,0.2-0.1,0.4-0.2,0.5s-0.3,0.2-0.5,0.2h-0.5c-1.8,0-3.2,0.6-4.1,1.7s-1.5,2.7-1.5,4.7
		v9.8h-3v-19.1h2.2c0.2,0,0.4,0.1,0.5,0.2s0.2,0.3,0.2,0.5v2.3C230.6,113.5,232.8,112.5,235.7,112.5z"/>
	<path class="st0" d="M246.2,132c-2.8,0-4.9-0.9-6.5-2.7s-2.4-4.2-2.4-7.3s0.8-5.5,2.4-7.3s3.8-2.7,6.5-2.7s4.9,0.9,6.5,2.7
		s2.4,4.2,2.4,7.3c0,3.1-0.8,5.5-2.4,7.3S249,132,246.2,132z M246.2,129.2c1.9,0,3.3-0.6,4.4-1.9s1.6-3,1.6-5.2s-0.5-3.9-1.6-5.2
		s-2.5-1.9-4.4-1.9c-1.9,0-3.3,0.6-4.3,1.9s-1.6,3-1.6,5.2s0.5,3.9,1.6,5.2S244.4,129.2,246.2,129.2z"/>
	<path class="st0" d="M268.1,112.2c2.6,0,4.4,0.7,5.6,2s1.7,3.4,1.7,6.1v11.3h-3v-11.3c0-1.9-0.3-3.3-0.9-4.1s-1.7-1.3-3.4-1.3
		c-1.8,0-3.2,0.5-4.1,1.4s-1.4,2.3-1.4,4v11.3h-3v-19.1h2.2c0.2,0,0.4,0.1,0.5,0.2s0.2,0.3,0.2,0.5v2
		C263.8,113.2,265.7,112.2,268.1,112.2z"/>
	<path class="st0" d="M284.4,109.1c-0.4,0.4-0.8,0.5-1.4,0.5s-1-0.2-1.4-0.5s-0.5-0.8-0.5-1.4s0.2-1,0.5-1.4s0.8-0.6,1.4-0.6
		s1,0.2,1.4,0.6s0.5,0.8,0.5,1.4S284.7,108.7,284.4,109.1z M281.5,131.6v-19.1h3v19.1H281.5z"/>
	<path class="st0" d="M298,132c-1.9,0-3.5-0.4-4.9-1.3s-2.4-2-3-3.5s-1-3.1-1-5c0-3.1,0.8-5.6,2.4-7.4s3.8-2.7,6.6-2.7
		c2.2,0,4,0.5,5.4,1.6s2.4,2.7,3,4.7l-2.3,0.7c-0.4,0.1-0.7,0-0.9-0.5c-1-2.5-2.7-3.7-5.3-3.7c-1.9,0-3.4,0.7-4.4,2
		s-1.5,3.1-1.5,5.3c0,2.1,0.5,3.8,1.6,5s2.5,1.9,4.3,1.9c2.7,0,4.6-1.3,5.4-4c0.1-0.2,0.2-0.4,0.3-0.5s0.3-0.1,0.5-0.1l2.3,0.6
		c-0.5,2.2-1.6,3.9-3,5.1S300.2,132,298,132z"/>
	<path class="st0" d="M313.7,109.1c-0.4,0.4-0.8,0.5-1.4,0.5s-1-0.2-1.4-0.5s-0.5-0.8-0.5-1.4s0.2-1,0.5-1.4s0.8-0.6,1.4-0.6
		s1,0.2,1.4,0.6s0.5,0.8,0.5,1.4S314,108.7,313.7,109.1z M310.8,131.6v-19.1h3v19.1H310.8z"/>
</g>
</svg>
