<?xml version="1.0" encoding="utf-8"?>
<!-- Generator: Adobe Illustrator 24.3.0, SVG Export Plug-In . SVG Version: 6.00 Build 0)  -->
<svg version="1.1" id="Laag_1" xmlns="http://www.w3.org/2000/svg" xmlns:xlink="http://www.w3.org/1999/xlink" x="0px" y="0px"
	 width="586.6px" height="213.1px" viewBox="0 0 586.6 213.1" style="enable-background:new 0 0 586.6 213.1;" xml:space="preserve"
	>
<style type="text/css">
	.st0{fill:#FBBF00;}
	.st1{fill:#1D1D1B;}
</style>
<rect class="st0" width="586.6" height="213.1"/>
<path class="st1" d="M86.1,92.8l-27,65.2c-1.1,2.5-3.4,4-6,4c-0.9,0-1.7-0.1-2.5-0.5c-3.3-1.4-4.8-5.2-3.5-8.5l36.6-88.7
	c1.2-2.8,4-4.4,6.9-4c2.9,0.4,5.2,2.8,5.5,5.8l7.1,66.4L138,61.7c1.3-2.6,4.1-4,6.9-3.5s4.9,2.8,5.4,5.6l10.5,85.2h60.4l-50.2-21.6
	c-2.7-1.2-4.2-3.9-3.9-6.8c0.3-2.9,2.5-5.2,5.3-5.7l57-10.1l-61.1-31.6c-2.6-1.3-4-4.2-3.4-7c0.5-2.8,2.8-4.9,5.7-5.3l81.3-9.2
	c3.5-0.4,6.8,2.1,7.2,5.8c0.4,3.5-2.1,6.8-5.7,7.2l-60.1,6.8l59.2,30.6c2.5,1.3,3.9,4,3.4,6.8c-0.4,2.8-2.6,4.9-5.3,5.5L196,124
	l59.2,25.6c2.8,1.2,4.4,4.3,3.8,7.3c-0.6,3-3.2,5.2-6.3,5.2H155c-3.2,0-6-2.5-6.4-5.7L140.1,87l-35,71.4c-1.3,2.6-4.1,4-7,3.5
	c-2.8-0.5-5-2.8-5.3-5.7L86.1,92.8z"/>
<polygon class="st1" points="295.3,52.8 311.7,52.8 321.4,85 321.6,85 331.4,52.8 347.4,52.8 347.4,54.5 340.6,54.5 340.6,96.5 
	347.4,96.5 347.4,98.3 325.8,98.3 325.8,96.5 332.8,96.5 332.8,53.8 332.6,53.8 319.2,98.3 317.6,98.3 304,53.8 304,53.8 304,96.5 
	310.8,96.5 310.8,98.3 295.3,98.3 295.3,96.5 302.1,96.5 302.1,54.5 295.3,54.5 "/>
<g>
	<g>
		<path class="st1" d="M392.4,54.5h-7.5v-1.6h16.2v1.6h-7.3v27.5c0,4-0.2,6.8-0.9,8.9c-0.7,1.9-1.6,3.5-3.3,4.7
			c-1.6,1.2-3.5,2.1-5.6,2.8c-2.1,0.5-4.5,0.9-6.8,0.9c-4.9,0-8.7-0.7-10.8-2.3c-2.3-1.6-3.8-3.5-4.2-5.9c-0.5-2.3-0.7-5.4-0.7-9.2
			V54.5h-6.6v-1.6h21.8v1.6h-7.3v26.7c0,3.8,0.2,6.6,0.5,8.7c0.2,2.1,1.2,3.8,2.8,5.2c1.4,1.4,3.8,2.1,7,2.1c2.6,0,4.9-0.5,7-1.6
			c2.1-1.2,3.5-2.6,4.5-4.2c0.9-1.9,1.2-5.2,1.2-10.1C392.4,81.2,392.4,54.5,392.4,54.5z"/>
	</g>
	<g>
		<path class="st1" d="M434.9,52.4l0.2,11.7h-1.6c-2.3-7-6.3-10.6-12-10.6c-3.1,0-5.6,0.9-7.5,2.6c-1.6,1.6-2.6,3.5-2.6,5.4
			c0,1.6,0.7,3.3,2.1,4.5c1.4,1.2,4.2,2.1,8,2.8c4,0.7,6.8,1.4,8.9,2.3c2.1,0.9,3.8,2.6,5.2,4.7c1.4,2.1,2.1,4.7,2.1,7.7
			c0,4.5-1.4,8.2-4.5,11c-2.8,3.1-6.6,4.5-10.8,4.5c-3.5,0-7-1.4-10.6-4l-3.3,2.8h-1.2V85.2h1.4c1.4,4,3.3,7,5.6,8.9
			c2.3,2.1,4.9,3.1,8,3.1c2.8,0,5.4-0.9,7.7-2.8c2.3-1.9,3.5-4.2,3.5-7c0-2.3-0.9-4.5-2.6-6.1s-4.2-2.8-8-3.3
			c-3.8-0.7-6.6-1.4-8.4-2.1c-1.9-0.9-3.8-2.3-5.2-4.2c-1.4-2.1-2.1-4.2-2.1-6.8c0-3.5,1.2-6.6,3.8-9.2c2.3-2.8,5.9-4,9.9-4
			c3.5,0,6.8,1.2,9.9,3.3c0.9-0.7,1.6-1.6,2.1-2.8h1.9V52.4z"/>
	</g>
	<g>
		<path class="st1" d="M460.5,54.5v19.5h4c1.4,0,2.6-0.2,3.8-0.5c0.9-0.2,1.9-0.9,2.8-2.3c0.7-1.2,1.2-3.3,1.4-5.9h1.9v19.2h-1.9
			c-0.2-3.8-0.9-6.1-2.1-7.3c-1.2-1.2-3.1-1.6-5.6-1.6h-4v20.9h9.2c5.2,0,8.9-1.2,10.8-3.3c2.1-2.1,3.3-5.6,3.5-10.1h1.9l-0.5,15.3
			h-40.4v-1.6h7.3v-42h-7.3v-1.6H484l0.7,12.2h-1.9c-0.5-3.8-1.9-6.3-3.5-8c-1.9-1.6-4.9-2.3-9.2-2.3h-9.6V54.5z"/>
	</g>
	<g>
		<path class="st1" d="M514.5,99.3c-5.9,0-10.8-2.3-15-7.3c-4-4.9-6.1-10.1-6.1-15.7c0-6.8,2.1-12.4,6.6-17.1c4.2-4.7,9.4-7,15-7
			c5.4,0,10.1,2.3,14.3,7.3c4.2,4.9,6.3,10.3,6.3,16.4c0,6.3-2.1,12-6.3,16.7C525,96.9,520.1,99.3,514.5,99.3 M514.7,53.5
			c-2.6,0-4.7,0.5-6.8,1.6c-2.1,1.2-3.3,3.1-4,5.9c-0.7,2.8-1.2,7.7-1.2,14.8c0,4.9,0.2,8.7,0.7,11.7c0.5,2.8,1.4,5.4,3.1,7.3
			c1.6,1.9,4.2,2.8,7.7,2.8c2.1,0,4.2-0.5,6.6-1.6c2.1-1.2,3.5-3.5,4.2-6.8c0.7-3.3,0.9-8.7,0.9-15.5c0-6.3-0.5-10.8-1.2-13.1
			c-0.9-2.3-2.1-4.2-4-5.2C519.1,54,517,53.5,514.7,53.5"/>
	</g>
</g>
<polygon class="st1" points="392.7,115 392.7,116.9 400.2,116.9 400.2,158.6 392.7,158.6 392.7,160.5 415.7,160.5 415.7,158.6 
	408.2,158.6 408.2,116.9 415.7,116.9 415.7,115 "/>
<g>
	<g>
		<path class="st1" d="M456.3,160.5h-35v-1.6l26.3-42h-10.8c-4,0-6.6,0.7-8.2,2.3c-1.6,1.6-2.6,4.2-3.3,8h-1.6l0.7-12.2H457v1.2
			l-26.5,42.5h11c3.3,0,5.6-0.2,7.3-0.9c1.6-0.7,3.1-2.1,4.2-4.7c1.2-2.6,1.9-4.9,2.3-7.5h1.6L456.3,160.5z"/>
	</g>
</g>
<polygon class="st1" points="463.5,115 463.5,116.9 471,116.9 471,158.6 463.5,158.6 463.5,160.5 486.5,160.5 486.5,158.6 
	479,158.6 479,116.9 486.5,116.9 486.5,115 "/>
<g>
	<path class="st1" d="M514.5,161.5c-5.9,0-10.8-2.3-15-7.3c-4.2-4.9-6.1-10.1-6.1-15.7c0-6.8,2.1-12.4,6.6-17.1c4.2-4.7,9.4-7,15-7
		c5.4,0,10.1,2.3,14.3,7.3c4.2,4.9,6.3,10.3,6.3,16.4c0,6.3-2.1,12-6.3,16.7C525,159.1,520.1,161.5,514.5,161.5 M514.7,115.7
		c-2.6,0-4.7,0.5-6.8,1.6c-1.9,1.2-3.3,3.1-4,5.9c-0.7,2.8-1.2,7.7-1.2,14.8c0,4.9,0.2,8.7,0.7,11.7c0.5,2.8,1.4,5.4,3.1,7.3
		c1.6,1.9,4.2,2.8,7.7,2.8c2.1,0,4.2-0.5,6.6-1.6c2.1-1.2,3.5-3.5,4.2-6.8c0.7-3.3,0.9-8.7,0.9-15.5c0-6.3-0.5-10.8-1.2-13.1
		c-0.9-2.3-2.1-4.2-4-5.2C519.1,116.2,517,115.7,514.7,115.7"/>
	<path class="st1" d="M310.6,116.9v19.5h4c1.4,0,2.6-0.2,3.8-0.5c0.9-0.2,1.9-0.9,2.8-2.3c0.7-1.2,1.2-3.3,1.4-5.9h1.9v19.2h-1.9
		c-0.2-3.8-0.9-6.1-2.1-7.3c-1.2-1.2-3.1-1.6-5.6-1.6h-4v20.9h9.2c5.2,0,8.9-1.2,10.8-3.3c2.1-2.1,3.3-5.6,3.5-10.1h1.6l-0.5,15.3
		h-40.1v-1.6h7.3v-42h-7.3v-1.6H334l0.7,12.2h-1.6c-0.5-3.8-1.9-6.3-3.5-8c-1.9-1.6-4.9-2.3-9.2-2.3h-9.9V116.9z"/>
	<path class="st1" d="M372.3,145.3h-7.7v-1.6H388v1.6h-6.6c0,5.9-1.9,9.9-5.6,12.4c-3.8,2.6-7.7,3.8-11.7,3.8
		c-5.9,0-10.8-2.3-14.8-7c-4-4.7-5.9-10.3-5.9-16.7c0-6.3,2.1-12,6.1-16.7c4-4.7,9.2-7,15.3-7c3.1,0,6.1,0.9,8.9,2.8
		c0.9,0.5,1.4,0.7,1.9,0.7c0.7,0,1.4-0.7,2.1-1.9h1.6l0.5,12.4h-1.6c-1.9-8.2-6.3-12.2-13.4-12.2c-3.5,0-6.3,0.7-8,2.3
		s-2.6,3.8-3.1,6.1c-0.5,2.6-0.5,6.1-0.5,10.8c0,8.4,0.2,13.8,0.9,16.7c0.5,2.8,1.6,4.7,3.5,6.1c1.6,1.4,3.8,2.1,6.3,2.1
		c1.9,0,3.8-0.5,5.4-1.2c1.6-0.7,2.6-2.1,2.8-3.8c0.5-1.6,0.7-4,0.7-7.3v-2.6H372.3z"/>
</g>
</svg>
