<?xml version="1.0" encoding="utf-8"?>
<!-- Generator: Adobe Illustrator 24.0.0, SVG Export Plug-In . SVG Version: 6.00 Build 0)  -->
<svg version="1.1" id="Laag_1" xmlns="http://www.w3.org/2000/svg" xmlns:xlink="http://www.w3.org/1999/xlink" x="0px" y="0px"
	 width="100.4px" height="39.6px" viewBox="0 0 100.4 39.6" style="enable-background:new 0 0 100.4 39.6;" xml:space="preserve">
<style type="text/css">
	.st0{fill:#007CF9;}
	.st1{fill:#1D1D1B;}
</style>
<polygon class="st0" points="0,15.5 9.4,10.6 0,5.6 "/>
<g>
	<path class="st1" d="M20.2,18.9c-3.1,0-4.9-1.2-5.2-3.6h3.3c0.2,0.9,0.8,1.3,1.8,1.3c1.4,0,2.1-0.7,2.1-2.1V13
		c-0.3,0.5-0.7,0.9-1.2,1.3c-0.5,0.3-1.1,0.5-1.8,0.5c-1.2,0-2.2-0.4-3-1.3s-1.2-2-1.2-3.5V9.9c0-1.4,0.4-2.6,1.2-3.4
		c0.8-0.9,1.8-1.3,3-1.3c1.4,0,2.4,0.6,3,1.7V5.4h3.4v9c0,1.5-0.5,2.6-1.4,3.3C23.4,18.5,22,18.9,20.2,18.9z M19,11.7
		c0.3,0.4,0.8,0.6,1.4,0.6c0.6,0,1.1-0.2,1.4-0.6c0.4-0.4,0.5-1,0.5-1.6V9.9c0-0.7-0.2-1.2-0.5-1.6c-0.3-0.4-0.8-0.6-1.4-0.6
		c-0.6,0-1.1,0.2-1.4,0.6c-0.3,0.4-0.5,0.9-0.5,1.6v0.2C18.5,10.8,18.7,11.3,19,11.7z"/>
	<path class="st1" d="M31.6,15.5c-1.6,0-2.9-0.4-3.9-1.3s-1.5-2.1-1.5-3.7v-0.2c0-1.5,0.5-2.8,1.5-3.7c1-0.9,2.3-1.4,3.8-1.4
		c1.4,0,2.6,0.4,3.6,1.3c0.9,0.9,1.4,2.1,1.4,3.8v0.9h-6.9c0,0.7,0.3,1.2,0.6,1.5s0.8,0.5,1.4,0.5c1,0,1.6-0.4,1.7-1.2h3.2
		c-0.2,1.1-0.6,2-1.5,2.6C34.2,15.2,33.1,15.5,31.6,15.5z M29.7,9.2h3.6c-0.1-1.2-0.6-1.8-1.7-1.8c-0.5,0-0.9,0.2-1.3,0.5
		C30,8.2,29.8,8.6,29.7,9.2z"/>
	<path class="st1" d="M41.9,15.5c-1.6,0-2.9-0.4-3.9-1.3c-1-0.9-1.5-2.1-1.5-3.7v-0.2c0-1.5,0.5-2.8,1.5-3.7c1-0.9,2.3-1.4,3.8-1.4
		c1.4,0,2.6,0.4,3.6,1.3c0.9,0.9,1.4,2.1,1.4,3.8v0.9H40c0,0.7,0.3,1.2,0.6,1.5s0.8,0.5,1.4,0.5c1,0,1.6-0.4,1.7-1.2h3.2
		c-0.2,1.1-0.6,2-1.5,2.6C44.5,15.2,43.4,15.5,41.9,15.5z M40,9.2h3.6C43.5,8,43,7.4,41.9,7.4c-0.5,0-0.9,0.2-1.3,0.5
		C40.3,8.2,40.1,8.6,40,9.2z"/>
	<path class="st1" d="M47.9,15.3V7.7h-1.2V5.4h1.2V4.6c0-1.2,0.3-2.1,1-2.7C49.6,1.3,50.6,1,51.8,1c0.5,0,1,0.1,1.5,0.2v2.5
		c-0.3-0.1-0.6-0.1-0.9-0.1c-0.8,0-1.1,0.4-1.1,1.1v0.9h2v2.3h-2v7.5H47.9z"/>
	<path class="st1" d="M56.5,15.3V5.4h3.4V7c0.3-0.6,0.7-1,1.3-1.3c0.5-0.3,1.2-0.5,2-0.5c1,0,1.8,0.3,2.4,0.9s0.9,1.5,0.9,2.8v6.4
		H63V9.6c0-1.1-0.5-1.7-1.4-1.7c-0.5,0-0.9,0.2-1.2,0.5s-0.5,0.8-0.5,1.4v5.5H56.5z"/>
	<path class="st1" d="M70.6,15.5c-1,0-1.8-0.3-2.4-0.9c-0.6-0.6-0.9-1.5-0.9-2.7V5.4h3.4v5.9c0,1.1,0.5,1.7,1.4,1.7
		c0.5,0,0.9-0.2,1.2-0.5c0.3-0.3,0.4-0.8,0.4-1.4V5.4h3.4v9.8h-3.4v-1.5C73.1,14.9,72,15.5,70.6,15.5z"/>
</g>
</svg>
