<?xml version="1.0" encoding="utf-8"?>
<!-- Generator: Adobe Illustrator 23.0.2, SVG Export Plug-In . SVG Version: 6.00 Build 0)  -->
<svg version="1.1" id="Laag_1" xmlns="http://www.w3.org/2000/svg" xmlns:xlink="http://www.w3.org/1999/xlink" x="0px" y="0px"
	 width="359.9px" height="20.1px" viewBox="0 0 359.9 20.1" style="enable-background:new 0 0 359.9 20.1;" xml:space="preserve">
<style type="text/css">
	.st0{fill:#F0D447;}
</style>
<g>
	<path class="st0" d="M14,14.8v3.6H1.4v-3.1l6.1-4.7C9,9.5,9.5,8.5,9.5,7.3c0-1.1-0.7-2.1-2.2-2.1c-2,0-2.8,1.2-2.8,3L0.9,7.6
		c0.1-3.7,2.5-6.1,6.5-6.1c4.2,0,6.2,2.6,6.2,5.5c0,2.1-0.7,3.8-3.3,5.7l-3.1,2.2H14z"/>
	<path class="st0" d="M16.8,10.9l0.8-9.2h10.6v3.6h-7.2l-0.2,2.8h1.2c4.3,0,6.8,1.5,6.8,4.8c0,3.9-2.8,5.8-7.1,5.8
		c-2.6,0-4.8-0.7-5.7-1.1l1-3.4c0.8,0.4,2.6,1,4.4,1c1.9,0,3.2-0.7,3.2-2.2c0-1.3-1.1-1.9-2.9-1.9h-4.7L16.8,10.9z"/>
	<path class="st0" d="M37.4,13.4c1.2,0.8,3.1,1.7,5.1,1.7c1.6,0,2.6-0.5,2.6-1.6c0-0.7-0.5-1.2-1.8-1.5l-2.6-0.7
		c-2.8-0.8-4.1-2.3-4.1-4.6c0-2.8,2.1-5.1,6.5-5.1c2.3,0,4.6,0.7,5.8,1.3l-1.1,3.5C46.5,5.6,44.5,5,42.8,5c-1.6,0-2.2,0.5-2.2,1.3
		c0,0.7,0.5,1,1.5,1.3L45,8.5c3,0.9,4.3,2.4,4.3,4.7c0,3.2-2.7,5.4-6.8,5.4c-2.4,0-4.9-0.8-6-1.4L37.4,13.4z"/>
	<path class="st0" d="M52.4,18.4V1.7h13v3.6h-9.2v2.9h7.4v3.4h-7.4v3.2h9.2v3.6H52.4z"/>
	<path class="st0" d="M68.7,1.7h8.1c3.2,0,6,1.9,6,6.2c0,3.8-2.8,6.1-6,6.1h-4.1v4.4h-4V1.7z M72.7,5.3v5.1h3.4c1.4,0,2.5-1,2.5-2.5
		c0-1.6-1.1-2.6-2.5-2.6H72.7z"/>
	<path class="st0" d="M102.6,14.8v3.6H89.9v-3.1l6.1-4.7c1.5-1.2,2.1-2.2,2.1-3.3c0-1.1-0.7-2.1-2.2-2.1c-2,0-2.8,1.2-2.8,3
		l-3.6-0.7c0.1-3.7,2.5-6.1,6.5-6.1c4.2,0,6.2,2.6,6.2,5.5c0,2.1-0.7,3.8-3.3,5.7l-3.1,2.2H102.6z"/>
	<path class="st0" d="M112,1.5c4.8,0,7.2,3.3,7.2,8.6c0,5.2-2.4,8.5-7.2,8.5c-4.7,0-7.2-3.3-7.2-8.5C104.8,4.8,107.2,1.5,112,1.5z
		 M112,14.8c2.6,0,3.3-2.2,3.3-4.8c0-2.7-0.7-4.8-3.3-4.8c-2.6,0-3.3,2.2-3.3,4.8C108.7,12.7,109.4,14.8,112,14.8z"/>
	<path class="st0" d="M127.4,1.7h2.9v16.6h-4v-12l-4.5,2.5l-1.5-3.1L127.4,1.7z"/>
	<path class="st0" d="M139.2,15.1c2.6,0,3.6-1.4,3.9-3.6c-0.9,0.6-2.1,1.2-4,1.2c-3.9,0-6-2-6-5.3c0-3.7,2.7-6,6.5-6
		c4.8,0,7.5,3.4,7.5,8.6c0,5.1-2.6,8.5-7.5,8.5c-2.6,0-4.8-0.8-5.7-1.2l1-3.4C135.9,14.5,137.6,15.1,139.2,15.1z M143.1,8.3
		c-0.4-1.8-1.3-3.1-3.3-3.1c-1.6,0-2.5,1-2.5,2.3c0,1.5,1,2.1,2.6,2.1C141.2,9.6,142.4,8.9,143.1,8.3z"/>
	<path class="st0" d="M162.8,5.3v13h-4v-13h-5V1.7h13.8v3.6H162.8z"/>
	<path class="st0" d="M176.2,1.7h2.7V2l-8.5,16.3h-2.7v-0.3L176.2,1.7z"/>
	<path class="st0" d="M195.9,8.2l-4.9,6h-0.7l-4.9-6v10.2h-4V1.7h3.5l5.8,6.9l5.8-6.9h3.5v16.6h-4V8.2z"/>
</g>
<g>
	<path class="st0" d="M208.4,13.8c0-2.3,1.1-3.6,3.4-4.1C210,9.3,209,7.8,209,6.2c0-3,2.3-4.7,6.7-4.7c4.4,0,6.7,1.6,6.7,4.7
		c0,1.6-1,3.1-2.9,3.5c2.4,0.5,3.4,1.8,3.4,4.1c0,2.9-2.5,4.8-7.3,4.8C210.8,18.6,208.4,16.7,208.4,13.8z M212.6,13.3
		c0,1.1,1.2,2,3.1,2c1.9,0,3.1-0.8,3.1-2c0-1-0.9-1.9-3.1-1.9C213.5,11.4,212.6,12.2,212.6,13.3z M213.1,6.5c0,0.9,0.7,1.7,2.6,1.7
		s2.6-0.8,2.6-1.7c0-1.1-1-1.7-2.6-1.7C214,4.8,213.1,5.4,213.1,6.5z"/>
	<path class="st0" d="M247.2,8.2l-5,6h-0.7l-5-6v10.2h-4.1V1.7h3.6l6,6.9l6-6.9h3.6v16.6h-4.1V8.2z"/>
	<path class="st0" d="M255.8,1.7h7.9c3.9,0,6.4,1.8,6.4,5.5c0,2.5-1.6,4.3-4,5l4.9,5.4v0.8h-4.4l-5.1-5.9H260v5.9h-4.1V1.7z
		 M260,5.3v4.1h3.7c1.4,0,2.2-0.8,2.2-2.1c0-1.3-0.9-2.1-2.2-2.1H260z"/>
	<path class="st0" d="M281.7,5.3v13h-4.1v-13h-5.1V1.7h14.3v3.6H281.7z"/>
	<path class="st0" d="M307.5,14.8v3.6h-13.1v-3.1l6.3-4.7c1.6-1.2,2.2-2.2,2.2-3.3c0-1.1-0.8-2.1-2.3-2.1c-2,0-2.9,1.2-2.9,3
		l-3.8-0.7c0.1-3.7,2.5-6.1,6.7-6.1c4.4,0,6.4,2.6,6.4,5.5c0,2.1-0.7,3.8-3.4,5.7l-3.1,2.2H307.5z"/>
	<path class="st0" d="M317.4,1.5c4.9,0,7.5,3.3,7.5,8.6c0,5.2-2.5,8.5-7.5,8.5c-4.9,0-7.4-3.3-7.4-8.5C310,4.8,312.5,1.5,317.4,1.5z
		 M317.4,14.8c2.7,0,3.4-2.2,3.4-4.8c0-2.7-0.7-4.8-3.4-4.8c-2.6,0-3.4,2.2-3.4,4.8C314,12.7,314.7,14.8,317.4,14.8z"/>
	<path class="st0" d="M340.8,14.8v3.6h-13.1v-3.1l6.3-4.7c1.6-1.2,2.2-2.2,2.2-3.3c0-1.1-0.8-2.1-2.3-2.1c-2,0-2.9,1.2-2.9,3
		l-3.8-0.7c0.1-3.7,2.5-6.1,6.7-6.1c4.4,0,6.4,2.6,6.4,5.5c0,2.1-0.7,3.8-3.4,5.7l-3.1,2.2H340.8z"/>
	<path class="st0" d="M350.7,1.5c4.9,0,7.5,3.3,7.5,8.6c0,5.2-2.5,8.5-7.5,8.5c-4.9,0-7.4-3.3-7.4-8.5
		C343.3,4.8,345.8,1.5,350.7,1.5z M350.7,14.8c2.7,0,3.4-2.2,3.4-4.8c0-2.7-0.7-4.8-3.4-4.8c-2.6,0-3.4,2.2-3.4,4.8
		C347.3,12.7,348,14.8,350.7,14.8z"/>
</g>
</svg>
