<?xml version="1.0" encoding="utf-8"?>
<!-- Generator: Adobe Illustrator 24.3.0, SVG Export Plug-In . SVG Version: 6.00 Build 0)  -->
<svg version="1.1" id="Laag_1" xmlns="http://www.w3.org/2000/svg" xmlns:xlink="http://www.w3.org/1999/xlink" x="0px" y="0px"
	 width="647.6px" height="368.7px" viewBox="0 0 647.6 368.7" style="enable-background:new 0 0 647.6 368.7;" xml:space="preserve"
	>
<style type="text/css">
	.st0{fill:#FFFFFF;}
</style>
<g>
	<path class="st0" d="M-0.3,30.6V19c0-6.6,3.3-9.4,9.7-10.7v4.5c-4.1,1.7-4.1,2.6-4.1,6.8h4.8v11H-0.3z M13.4,30.6
		c0-4.1,0-8.1,0-12.2c0-3.4,0.6-5.5,3.4-7.6c1.9-1.4,4.2-2.1,6.5-2.2v4.2c-3.9,1.5-4.4,2.3-4.4,6.7h5v11H13.4z"/>
	<path class="st0" d="M66.4,65.4l-3.3-11H41.9l-3.3,11H27.2L46.4,9h12l19.3,56.5H66.4z M52.5,19.1l-7.8,26h15.6L52.5,19.1z"/>
	<path class="st0" d="M109,65.4V45c0-3.1,0-4.6-0.4-6.2c-1.1-4.6-4.7-5.3-6.6-5.3c-1,0-3,0.2-5,1.8c-2.9,2.4-3.8,5.8-3.8,12.6v17.4
		h-9.7v-40h9.7v4.7c0.2-0.2,1-1.3,1.8-2.1c3.8-3.5,9.2-3.8,10.6-3.8c5.9,0,9.4,3,10.6,4.9c2.6,3.7,2.3,8.7,2.3,12.8v23.5H109z"/>
	<path class="st0" d="M188.8,54.2c-1.6,4.1-6.8,12.4-18.7,12.4c-1.7,0-5.1-0.1-9-1.8c-4.2-1.8-11.8-7.4-11.8-19.5
		c0-4.3,1.2-7.5,1.8-9c1.7-4,6.8-12.1,18.7-12.1c1.5,0,5,0.2,8.8,1.8c4.3,1.8,11.8,7.2,11.8,19.2C190.4,46.7,190.3,50.5,188.8,54.2z
		 M169.6,32.9c-0.9,0-3.3,0.2-5.4,1.5c-2.1,1.4-4.9,4.6-4.9,10.6c0,1.9,0.2,3.6,0.8,5.4c0.6,1.9,3.4,7.4,10,7.4
		c7.3,0,10.6-6.4,10.3-12.7C180.2,38.9,176.6,32.9,169.6,32.9z"/>
	<path class="st0" d="M232.9,59.3c-4.7,6.6-11.2,7.4-14.2,7.4c-2.4,0-6.6-0.5-10.9-4.5v16.3h-9.6v-53h9.6V29c1.6-1.7,4.9-4.8,11-4.8
		c2.6,0,8.2,0.5,12.8,5.8c2.1,2.5,5.4,7.7,5.4,15.7C236.9,47.9,236.8,53.9,232.9,59.3z M226.4,40.2c-1.4-3.9-4.9-6.7-9.1-6.7
		c-2.5,0-4.2,1-5,1.4c-2.1,1.4-4.5,4.4-4.6,10.3c0,1.6,0.2,3.2,0.6,4.7c1.2,4.5,4.5,7.6,9.3,7.6c1.7,0,3.5-0.5,5-1.4
		c2.3-1.5,4.6-4.7,4.6-10.8C227.1,44.6,227.1,42.3,226.4,40.2z"/>
	<path class="st0" d="M278.8,60.6c-2.2,2.1-7.6,6-15.8,6c-2.6,0-8.9-0.3-14.3-5.4c-4.6-4.3-6.2-9.8-6.2-16.1c0-3.4,0.5-6.6,1.8-9.6
		c1.8-4,6.7-11.4,18.3-11.4c9,0,13.7,4.6,15.8,7.7c1.8,2.8,3.7,7.7,3.9,15.4h-29.6c0.2,1.2,0.6,3.7,2.6,6.1c1.4,1.7,3.8,3.8,8.7,3.8
		c5,0,7.8-2.3,9.1-3.7c0.3-0.3,0.8-1,1.4-1.8l8.2,4.7C281.9,57.4,280.8,58.9,278.8,60.6z M270.8,37c-0.9-1.9-3-5.1-8.2-5.1
		c-2.1,0-3.2,0.4-4,0.7c-4.5,1.8-5.5,6.3-5.8,7.7h18.7C271.6,40.3,271.4,38.4,270.8,37z"/>
	<path class="st0" d="M315.2,65.4V45c0-3.1,0-4.6-0.4-6.2c-1.1-4.6-4.7-5.3-6.6-5.3c-1,0-3,0.2-5,1.8c-2.9,2.4-3.8,5.8-3.8,12.6
		v17.4h-9.7v-40h9.7v4.7c0.2-0.2,1-1.3,1.8-2.1c3.8-3.5,9.2-3.8,10.6-3.8c5.9,0,9.4,3,10.6,4.9c2.6,3.7,2.3,8.7,2.3,12.8v23.5H315.2
		z"/>
	<path class="st0" d="M332.9,45.7v-9H356v9H332.9z"/>
	<path class="st0" d="M414.9,65.4V41c0-1.5-0.3-7.8-6.7-7.8c-1.5,0-5,0.6-7.1,4.1c-1.8,2.9-1.9,6.2-1.9,9.4v18.8h-9.5V43
		c0-0.9-0.1-1.8-0.1-2.6c0-0.8,0-3.6-2.2-5.6c-1.6-1.4-3.6-1.5-4.3-1.5c-1,0-3,0.2-5,1.9c-3.9,3.4-4,9-4,13.4v16.8h-9.6v-40h9.6
		l0.1,4.5c0.6-0.9,0.9-1.1,1.3-1.4c1.4-1.3,5.7-4.2,11.3-4.2c4.6,0,8.9,2.1,11.1,6.1c0.7-0.9,1.5-2,3.7-3.4c1.7-1.1,4.5-2.6,9.2-2.6
		c6.1,0,11.5,2.6,13.2,8.9c0.5,1.8,0.6,3.4,0.6,7v25.3H414.9z"/>
	<path class="st0" d="M434.6,19.2V9.5h9.5v9.7H434.6z M434.6,65.4v-40h9.5v40H434.6z"/>
	<path class="st0" d="M480,65.4V45c0-3.1,0-4.6-0.4-6.2c-1.1-4.6-4.7-5.3-6.6-5.3c-1,0-3,0.2-5,1.8c-2.9,2.4-3.8,5.8-3.8,12.6v17.4
		h-9.7v-40h9.7v4.7c0.2-0.2,1-1.3,1.8-2.1c3.8-3.5,9.2-3.8,10.6-3.8c5.9,0,9.4,3,10.6,4.9c2.6,3.7,2.3,8.7,2.3,12.8v23.5H480z"/>
	<path class="st0" d="M526.1,65.4v-3.8c-0.4,0.4-0.7,0.9-1.1,1.3c-1.5,1.4-4.8,3.8-10,3.8c-1.4,0-4.2-0.2-7.4-1.7
		c-4.3-2-10.3-7.2-10.3-18.7c0-12.2,6.6-18.6,11.2-20.6c1.3-0.6,3.6-1.4,7-1.4c1.4,0,4.2,0.1,7.3,1.8c0.6,0.3,1,0.6,2,1.3
		c0.7,0.6,1.3,1.3,1.4,1.4V9h9.5v56.5H526.1z M524.3,37.4c-0.5-0.9-1.4-1.9-2.1-2.5c-1.6-1.3-3.4-1.8-5.4-1.8
		c-0.8,0-2.9,0.2-4.9,1.4c-4.6,3-4.7,9.4-4.7,10.6c0,5.9,2.5,12.7,9.5,12.7c2.6,0,4.6-0.8,6.2-2.7c2.5-2.7,3.1-6,3-9.6
		C526,43,525.6,39.8,524.3,37.4z"/>
	<path class="st0" d="M580.1,60.6c-2.2,2.1-7.6,6-15.8,6c-2.6,0-8.9-0.3-14.3-5.4c-4.6-4.3-6.2-9.8-6.2-16.1c0-3.4,0.5-6.6,1.8-9.6
		c1.8-4,6.7-11.4,18.3-11.4c9,0,13.7,4.6,15.8,7.7c1.8,2.8,3.7,7.7,3.9,15.4h-29.6c0.2,1.2,0.6,3.7,2.6,6.1c1.4,1.7,3.8,3.8,8.7,3.8
		c5,0,7.8-2.3,9.1-3.7c0.3-0.3,0.8-1,1.4-1.8l8.2,4.7C583.2,57.4,582,58.9,580.1,60.6z M572.1,37c-0.9-1.9-3-5.1-8.2-5.1
		c-2.1,0-3.2,0.4-4,0.7c-4.5,1.8-5.5,6.3-5.8,7.7h18.7C572.9,40.3,572.7,38.4,572.1,37z"/>
	<path class="st0" d="M617.7,65.4v-3.8c-0.4,0.4-0.7,0.9-1.1,1.3c-1.5,1.4-4.8,3.8-10,3.8c-1.4,0-4.2-0.2-7.4-1.7
		c-4.3-2-10.3-7.2-10.3-18.7c0-12.2,6.6-18.6,11.2-20.6c1.3-0.6,3.6-1.4,7-1.4c1.4,0,4.2,0.1,7.3,1.8c0.6,0.3,1,0.6,2,1.3
		c0.7,0.6,1.3,1.3,1.4,1.4V9h9.5v56.5H617.7z M615.9,37.4c-0.5-0.9-1.4-1.9-2.1-2.5c-1.6-1.3-3.4-1.8-5.4-1.8
		c-0.8,0-2.9,0.2-4.9,1.4c-4.6,3-4.7,9.4-4.7,10.6c0,5.9,2.5,12.7,9.5,12.7c2.6,0,4.6-0.8,6.2-2.7c2.5-2.7,3.1-6,3-9.6
		C617.6,43,617.2,39.8,615.9,37.4z"/>
	<path class="st0" d="M637.6,76.3c-0.5,0.1-0.9,0.2-1.4,0.3v-4.6c3.7-0.4,4.3-3.4,4.3-6.5h-5v-11h10.6v11.8v0.3
		C646.2,72.3,643,74.9,637.6,76.3z"/>
	<path class="st0" d="M118.9,150.2c-1.6,4.1-6.8,12.4-18.7,12.4c-1.7,0-5.1-0.1-9-1.8c-4.2-1.8-11.8-7.4-11.8-19.5
		c0-4.3,1.2-7.5,1.8-9c1.7-4,6.8-12.1,18.7-12.1c1.5,0,5,0.2,8.8,1.8c4.3,1.8,11.8,7.2,11.8,19.2
		C120.5,142.7,120.4,146.5,118.9,150.2z M99.7,128.9c-0.9,0-3.3,0.2-5.4,1.5c-2.1,1.4-4.9,4.6-4.9,10.6c0,1.9,0.2,3.6,0.8,5.4
		c0.6,1.9,3.4,7.4,10,7.4c7.3,0,10.6-6.4,10.3-12.7C110.3,134.9,106.7,128.9,99.7,128.9z"/>
	<path class="st0" d="M163,155.3c-4.7,6.6-11.2,7.4-14.2,7.4c-2.4,0-6.6-0.5-10.9-4.5v16.3h-9.6v-53h9.6v3.6c1.6-1.7,4.9-4.8,11-4.8
		c2.6,0,8.2,0.5,12.8,5.8c2.1,2.5,5.4,7.7,5.4,15.7C167,143.9,166.9,149.9,163,155.3z M156.5,136.2c-1.4-3.9-4.9-6.7-9.1-6.7
		c-2.5,0-4.2,1-5,1.4c-2.1,1.4-4.5,4.4-4.6,10.3c0,1.6,0.2,3.2,0.6,4.7c1.2,4.5,4.5,7.6,9.3,7.6c1.7,0,3.5-0.5,5-1.4
		c2.3-1.5,4.6-4.7,4.6-10.8C157.2,140.6,157.2,138.3,156.5,136.2z"/>
	<path class="st0" d="M209,156.6c-2.2,2.1-7.6,6-15.8,6c-2.6,0-8.9-0.3-14.3-5.4c-4.6-4.3-6.2-9.8-6.2-16.1c0-3.4,0.5-6.6,1.8-9.6
		c1.8-4,6.7-11.4,18.3-11.4c9,0,13.7,4.6,15.8,7.7c1.8,2.8,3.7,7.7,3.9,15.4h-29.6c0.2,1.2,0.6,3.7,2.6,6.1c1.4,1.7,3.8,3.8,8.7,3.8
		c5,0,7.8-2.3,9.1-3.7c0.3-0.3,0.8-1,1.4-1.8l8.2,4.7C212,153.4,210.9,154.9,209,156.6z M201,133c-0.9-1.9-3-5.1-8.2-5.1
		c-2.1,0-3.2,0.4-4,0.7c-4.5,1.8-5.5,6.3-5.8,7.7h18.7C201.8,136.3,201.5,134.4,201,133z"/>
	<path class="st0" d="M245.4,161.4V141c0-3.1,0-4.6-0.4-6.2c-1.1-4.6-4.7-5.3-6.6-5.3c-1,0-3,0.2-5,1.8c-2.9,2.4-3.8,5.8-3.8,12.6
		v17.4h-9.7v-40h9.7v4.7c0.2-0.2,1-1.3,1.8-2.1c3.8-3.5,9.2-3.8,10.6-3.8c5.9,0,9.4,3,10.6,4.9c2.6,3.7,2.3,8.7,2.3,12.8v23.5H245.4
		z"/>
	<path class="st0" d="M263,141.7v-9h23.1v9H263z"/>
	<path class="st0" d="M321.7,161.4v-22c0-3.2,0.2-6.1-2.6-8.4c-0.8-0.7-2.3-1.7-5-1.7c-3.3,0-5.9,1.4-7.9,3.8
		c-0.8,1-1.4,2.2-1.8,3.4c-0.3,1.2-0.3,2.2-0.3,3.4v21.4h-9.6V105h9.6v20.6c0.8-0.9,1.8-1.8,3.8-3c1.5-0.9,4.4-2.3,8.8-2.3
		c4.4,0,9.2,1.6,11.8,5.3c2.5,3.5,2.5,7.2,2.5,11.2v24.7H321.7z"/>
	<path class="st0" d="M375.3,156.6c-2.2,2.1-7.6,6-15.8,6c-2.6,0-8.9-0.3-14.3-5.4c-4.6-4.3-6.2-9.8-6.2-16.1c0-3.4,0.5-6.6,1.8-9.6
		c1.8-4,6.7-11.4,18.3-11.4c9,0,13.7,4.6,15.8,7.7c1.8,2.8,3.7,7.7,3.9,15.4H349c0.2,1.2,0.6,3.7,2.6,6.1c1.4,1.7,3.8,3.8,8.7,3.8
		c5,0,7.8-2.3,9.1-3.7c0.3-0.3,0.8-1,1.4-1.8l8.2,4.7C378.3,153.4,377.2,154.9,375.3,156.6z M367.3,133c-0.9-1.9-3-5.1-8.2-5.1
		c-2.1,0-3.2,0.4-4,0.7c-4.5,1.8-5.5,6.3-5.8,7.7h18.7C368.1,136.3,367.8,134.4,367.3,133z"/>
	<path class="st0" d="M409.8,161.4l-0.2-3.1c-1.5,1.3-2.9,1.9-3.7,2.2c-2.6,1.2-5.1,1.8-8.1,1.8c-1.9,0-9.1-0.2-12.8-6.2
		c-0.6-1-1.8-3.2-1.8-6.4c0-2.2,0.6-6.7,5.4-10c3.3-2.2,6.4-2.7,10.1-3.4c5.9-1.2,8.1-1.7,11-2.7c0-1-0.1-2.3-0.6-3.3
		c-0.8-1.5-2.8-2.7-6.3-2.7c-3.7,0-6,1.1-7,2.5c-1.1,1.4-1,3-1,3.5l-9.8-0.6c0.1-1.8,0.4-6,4.3-9.2c2.5-2.1,6.2-3.7,13.2-3.7
		c6.6,0,10.4,1.4,12.9,3.1c1.7,1.2,2.6,2.6,2.9,3.2c1,2.1,1,4.9,1,7.1V155c0,3,0.2,3.9,1.8,6.5H409.8z M409.8,141.5
		c-1.6,0.8-3.7,1.6-7.6,2.2c-2.2,0.4-4.5,0.5-6.5,1.7c-1.4,0.9-2.3,2.2-2.3,4c0,2.4,1.8,4.7,6.6,4.7c5.3,0,8.4-2.7,9.3-4.6
		c0.6-1.3,0.6-2.4,0.6-3.7V141.5z"/>
	<path class="st0" d="M439.6,137.8c-0.7,2.2-0.7,4.2-0.7,6.6v17.1h-9.3v-40h9.3v5.7c0.6-1.2,1.4-2.4,2.4-3.3
		c3.2-3.1,8.4-3.3,9.5-3.3h0.8v9.8C449.6,130.4,441.9,130.4,439.6,137.8z"/>
	<path class="st0" d="M470.2,161.8c-5.3,0-8-1.3-9.6-3.2c-0.8-1-1.1-1.9-1.2-2.3c-0.4-1.3-0.5-4.1-0.5-7.6v-20.4h-5.8v-6.8h5.8
		v-14.2h9.6v14.2h8.6v6.8h-8.6v18.2c0,1.6-0.2,4.6,1,5.9c1.1,1.3,3.4,1.2,3.7,1.2c1.4,0,2.7-0.2,3.9-0.5v8.1
		C475.8,161.3,473.5,161.8,470.2,161.8z"/>
	<path class="st0" d="M517,156.6c-2.2,2.1-7.6,6-15.8,6c-2.6,0-8.9-0.3-14.3-5.4c-4.6-4.3-6.2-9.8-6.2-16.1c0-3.4,0.5-6.6,1.8-9.6
		c1.8-4,6.7-11.4,18.3-11.4c9,0,13.7,4.6,15.8,7.7c1.8,2.8,3.7,7.7,3.9,15.4h-29.6c0.2,1.2,0.6,3.7,2.6,6.1c1.4,1.7,3.8,3.8,8.7,3.8
		c5,0,7.8-2.3,9.1-3.7c0.3-0.3,0.8-1,1.4-1.8l8.2,4.7C520,153.4,518.9,154.9,517,156.6z M509,133c-0.9-1.9-3-5.1-8.2-5.1
		c-2.1,0-3.2,0.4-4,0.7c-4.5,1.8-5.5,6.3-5.8,7.7h18.7C509.8,136.3,509.5,134.4,509,133z"/>
	<path class="st0" d="M554.6,161.4v-3.8c-0.4,0.4-0.7,0.9-1.1,1.3c-1.5,1.4-4.8,3.8-10,3.8c-1.4,0-4.2-0.2-7.4-1.7
		c-4.3-2-10.3-7.2-10.3-18.7c0-12.2,6.6-18.6,11.2-20.6c1.3-0.6,3.6-1.4,7-1.4c1.4,0,4.2,0.1,7.3,1.8c0.6,0.3,1,0.6,2,1.3
		c0.7,0.6,1.3,1.3,1.4,1.4V105h9.5v56.5H554.6z M552.7,133.4c-0.5-0.9-1.4-1.9-2.1-2.5c-1.6-1.3-3.4-1.8-5.4-1.8
		c-0.8,0-2.9,0.2-4.9,1.4c-4.6,3-4.7,9.4-4.7,10.6c0,5.9,2.5,12.7,9.5,12.7c2.6,0,4.6-0.8,6.2-2.7c2.5-2.7,3.1-6,3-9.6
		C554.5,139,554.1,135.8,552.7,133.4z"/>
	<path class="st0" d="M197.3,224.2v33.2h-9.6v-33.2h-6v-6.8h6v-4.6c0-0.2-0.1-2.9,0.2-4.6c0.8-4.6,4.1-7.3,12.6-7.3
		c1.8,0,3.6,0.2,5.4,0.4v8.2c-0.2-0.1-1.8-0.2-3-0.2c-5.8,0-5.7,3.4-5.7,5.9v2.3h8.7v6.8H197.3z"/>
	<path class="st0" d="M245.6,252.6c-2.2,2.1-7.6,6-15.8,6c-2.6,0-8.9-0.3-14.3-5.4c-4.6-4.3-6.2-9.8-6.2-16.1c0-3.4,0.5-6.6,1.8-9.6
		c1.8-4,6.7-11.4,18.3-11.4c9,0,13.7,4.6,15.8,7.7c1.8,2.8,3.7,7.7,3.9,15.4h-29.6c0.2,1.2,0.6,3.7,2.6,6.1c1.4,1.7,3.8,3.8,8.7,3.8
		s7.8-2.3,9.1-3.7c0.3-0.3,0.8-1,1.4-1.8l8.2,4.7C248.6,249.4,247.5,250.9,245.6,252.6z M237.6,229c-0.9-1.9-3-5.1-8.2-5.1
		c-2.1,0-3.2,0.4-4,0.7c-4.5,1.8-5.5,6.3-5.8,7.7h18.7C238.4,232.3,238.1,230.4,237.6,229z"/>
	<path class="st0" d="M289,250.4c-1.9,3.7-6.9,8.2-16.6,8.2c-7.5,0-12.9-2.6-15.4-4.1c-1.4-0.9-2.6-1.9-3.8-3.1l7.2-5.8
		c0.3,0.4,0.8,1.1,1.8,2c3.4,3,8.6,3.1,9.7,3.1c2.4,0,5.2-0.6,6.8-2.4c0.6-0.6,1-1.5,1-2.3c0-0.3-0.1-1-0.6-1.7
		c-1-1.4-2.3-1.5-5.3-2.2c-2.6-0.6-5.3-0.9-7.8-1.5c-1.8-0.5-11-2.7-11-11.4c0-3,1.3-5.3,1.8-6.2c2-3.1,6.7-6.9,15.4-6.9
		c3.1,0,11.2,0.5,17.2,7.4l-6.8,6.3c-0.8-1.7-1.8-2.6-2.5-3.2c-2.5-2.2-5.1-2.9-8.4-2.9c-0.4,0-3.1,0-4.9,1.2c-1.4,1-1.8,2.2-1.8,3
		c0.1,1.4,1,2.3,1.3,2.5c1,0.8,3.7,1.4,6.9,2c2.2,0.4,4.3,0.7,6.5,1.2c2.2,0.5,4.6,1.2,6.3,2.5c1.4,1,4.4,3.8,4.4,8.7
		C290.4,246.9,289.9,248.7,289,250.4z"/>
	<path class="st0" d="M310.5,257.8c-5.3,0-8-1.3-9.6-3.2c-0.8-1-1.1-1.9-1.2-2.3c-0.4-1.3-0.5-4.1-0.5-7.6v-20.4h-5.8v-6.8h5.8
		v-14.2h9.6v14.2h8.6v6.8h-8.6v18.2c0,1.6-0.2,4.6,1,5.9c1.1,1.3,3.4,1.2,3.7,1.2c1.4,0,2.7-0.2,3.9-0.5v8.1
		C316.1,257.3,313.8,257.8,310.5,257.8z"/>
	<path class="st0" d="M323.3,211.2v-9.7h9.5v9.7H323.3z M323.3,257.5v-40h9.5v40H323.3z"/>
	<path class="st0" d="M362.4,257.5h-10.2l-13-40h9.9l8.3,27.5l8.2-27.5h10L362.4,257.5z"/>
	<path class="st0" d="M405.1,257.5l-0.2-3.1c-1.5,1.3-2.9,1.9-3.7,2.2c-2.6,1.2-5.1,1.8-8.1,1.8c-1.9,0-9.1-0.2-12.8-6.2
		c-0.6-1-1.8-3.2-1.8-6.4c0-2.2,0.6-6.7,5.4-10c3.3-2.2,6.4-2.7,10.1-3.4c5.9-1.2,8.1-1.7,11-2.7c0-1-0.1-2.3-0.6-3.3
		c-0.8-1.5-2.8-2.7-6.3-2.7c-3.7,0-6,1.1-7,2.5c-1.1,1.4-1,3-1,3.5l-9.8-0.6c0.1-1.8,0.4-6,4.3-9.2c2.5-2.1,6.2-3.7,13.2-3.7
		c6.6,0,10.4,1.4,12.9,3.1c1.7,1.2,2.6,2.6,2.9,3.2c1,2.1,1,4.9,1,7.1V251c0,3,0.2,3.9,1.8,6.5H405.1z M405.1,237.5
		c-1.6,0.8-3.7,1.6-7.6,2.2c-2.2,0.4-4.5,0.5-6.5,1.7c-1.4,0.9-2.3,2.2-2.3,4c0,2.4,1.8,4.7,6.6,4.7c5.3,0,8.4-2.7,9.3-4.6
		c0.6-1.3,0.6-2.4,0.6-3.7V237.5z"/>
	<path class="st0" d="M425,257.5V201h9.8v56.5H425z"/>
	<path class="st0" d="M449.8,220.7c-1.8,1.4-4.2,2.3-6.5,2.2v-4.2c3-0.8,4.4-2.5,4.4-5.5c0-0.4-0.1-0.7-0.1-1.1h-4.9V201h10.4
		c0,4.2,0,8.3,0,12.4C453.2,216.6,452.4,218.7,449.8,220.7z M457.1,223.4v-4.5c4.1-1.3,4.2-3,4.2-6.8h-4.8V201h10.4v11.4
		C466.8,219.1,463.6,222.2,457.1,223.4z"/>
	<path class="st0" d="M105.1,333.6V330H121v3.6H105.1z"/>
	<path class="st0" d="M175.2,335.1c-0.1,3.9-0.7,7.6-3.3,10.7c-1.9,2.2-5.5,4.7-12.3,4.7c-1.6,0-6.7-0.1-10.9-3.3
		c-0.6-0.5-2-1.7-3.1-3.5c-2.2-3.9-2-8.2-2-17v-19.6h4v27.5c0,2.3,0.2,4.8,1.3,7c1.1,2.2,2.9,3.2,3.7,3.7c2.2,1.2,4.6,1.6,7,1.6
		c1.1,0,6.4,0,9.4-3.5c2.4-2.9,2.4-6.7,2.4-10.1v-26.1h4v19.3C175.3,329.3,175.3,332.2,175.2,335.1z"/>
	<path class="st0" d="M203.3,349.5v-14.9c0-3.8,0-6.1-0.7-7.8c-0.6-1.5-1.6-2.2-2.2-2.5c-1.6-1-3.2-0.9-3.9-0.9
		c-0.7,0-2.2,0.1-3.8,0.8c-2.1,1-3.8,3.3-4.3,5.5c-0.3,1.4-0.4,3.8-0.4,7.3v12.5h-3.5v-28.6h3.5v5.1c0.2-0.7,0.7-1.9,2-3.2
		c1.1-1.1,3.2-2.5,7-2.5c5.3,0,7.8,2.9,8.7,4.9c1.1,2.3,1,4.6,1,9.4v14.9H203.3z"/>
	<path class="st0" d="M235.5,347.4c-1.3,1.2-4,2.8-8.3,2.8c-1.6,0-5.5-0.1-8.8-3.2c-4.3-4-4.4-10-4.4-11.6c0-2.2,0.2-4,0.9-5.9
		c1.9-5.9,6.7-9.3,12.8-9.3c4.6,0,7,1.7,8.3,3.2c1.6,1.7,2.2,3.2,2.5,4l-3.3,0.8c-1.3-3.2-4.4-4.8-7.7-4.8c-1.1,0-3.6,0.1-5.9,2.1
		c-3.7,3.2-3.8,8.5-3.8,9.8c0,0.8,0.1,5.8,2.7,8.9c0.4,0.5,1.3,1.4,2.8,2.1c0.7,0.4,2,0.8,3.9,0.8c3.6,0,6.1-1.7,7.7-4.8l3.6,0.8
		C237.8,344.7,236.8,346.2,235.5,347.4z"/>
	<path class="st0" d="M263.3,349.5v-5.2c-0.5,1.1-0.8,1.7-1.1,2.1c-2.6,3.7-6.5,3.7-8,3.7c-0.5,0-1.9-0.1-3.4-0.5
		c-2.6-0.8-4.6-2.9-5.5-5.5c-0.6-2-0.8-4.7-0.8-9.2v-14h3.6v14.8c0,3.5,0.1,5.3,0.5,7c0.5,1.7,1.7,4.2,5.9,4.2
		c1.4,0,4.5-0.1,6.8-3.2c2.2-2.9,1.9-6.8,1.9-10.3v-12.5h3.5v28.6H263.3z"/>
	<path class="st0" d="M283.4,350c-0.3,0-0.7,0-1-0.1c-0.8-0.1-2.9-0.2-3.8-2.5c-0.5-1.3-0.4-4.3-0.4-5.7v-17.9h-6v-3h6v-12.2h3.4
		v12.2h6.3v3h-6.3v15.8c0,1,0,2,0,3.1c-0.1,1.7-0.1,4.2,2.3,4.2c1.4,0,2.9-1,4-1.8v3.6C287.2,349.2,285.7,350,283.4,350z"/>
	<path class="st0" d="M343,349.5l0.3-36l-13.8,36h-2.8l-14.1-36l0.5,36h-4v-42.4h4.7l14.3,35.9l13.7-35.9h5v42.4H343z"/>
	<path class="st0" d="M375,348c-1.1-1.1-1.2-2.3-1.3-3.7c-0.4,0.9-0.8,1.7-1.5,2.5c-1.1,1.3-4.1,3.4-8.6,3.4c-3.7,0-5.6-1.3-6.8-2.5
		c-0.7-0.7-2.2-2.6-2.2-5.3c0-0.8,0.1-2.8,1.6-4.5c2.2-2.6,5.7-3.5,8.8-4.4c1.8-0.5,3.6-1,5.4-1.4l3.4-0.7v-1.5
		c0-1.1,0.1-1.7-0.3-2.8c-0.6-1.9-2.2-3.8-6.5-3.8c-3.7,0-5.5,1-6.5,2.5c-0.9,1.4-1,2.9-1.1,4.4l-3.9-0.7c0.1-0.6,0.5-3.1,1.7-5
		c1.3-2,4.1-4.4,9.5-4.4c2.9,0,6.8,0.7,8.8,3.1c1.9,2.3,1.7,5.3,1.7,8.1v9.2c0,2.8-0.1,4.7,1,5.5c0.9,0.7,2.3,0.7,3.3,0.7v2.8
		C378,349.5,376.2,349.2,375,348z M373.7,334.3l-1.8,0.5c-5.6,1.5-10.4,2.6-12.1,3.9c-1.1,0.8-1.8,2.1-1.8,3.5c0,1,0.4,1.8,0.5,2
		c1.3,2.6,4.6,2.7,5.2,2.7c3.5,0,7.7-2.1,9.2-5.4c0.5-1.2,0.8-2.4,0.8-5V334.3z"/>
	<path class="st0" d="M409.7,353.3c-0.1,1-0.2,4.9-2.8,7.6c-1.6,1.6-4.7,3.2-9.8,3.2c-1.4,0-8.2,0-11.1-5.5c-1-1.9-1.2-4-1.3-4.7
		l3.7-0.7c0.5,3.2,1.4,7.8,9.1,7.8c1,0,5.8,0.1,7.7-3.9c1-2,0.9-4.2,1-8.6c0-1,0.1-2.1,0.1-3.1v-1.4c-0.1,0.2-0.3,1-0.6,1.6
		c-1,1.9-3.8,4.5-8.9,4.5c-2.9,0-4.9-0.9-5.8-1.4c-6.5-3.6-6.6-12-6.6-13.6c0-5,1.6-10.4,6.1-13.1c1.1-0.7,3.2-1.7,6.4-1.7
		c1.1,0,4.2,0.1,6.9,2.3c1.1,0.9,1.8,1.9,2,2.3c0.3,0.6,0.4,1,0.5,1.3v-5.3h3.4v25.6C409.8,348.7,409.9,351,409.7,353.3z
		 M404.3,326.4c-0.9-1.3-3-3.1-6.9-3.1c-0.5,0-1.9,0-3.3,0.5c-6.1,2.3-6,9.8-6,11.1c0,4.2,1.2,7.1,2.2,8.5c0.8,1.3,2.1,2.3,3.5,2.9
		c1.5,0.6,2.8,0.6,3.4,0.6c0.9,0,3.3,0,5.5-1.6c3.1-2.2,3.5-6.4,3.6-9.9C406.3,334.8,406.5,329.6,404.3,326.4z"/>
	<path class="st0" d="M437.5,348c-1.1-1.1-1.2-2.3-1.3-3.7c-0.4,0.9-0.8,1.7-1.5,2.5c-1.1,1.3-4.1,3.4-8.6,3.4
		c-3.7,0-5.6-1.3-6.8-2.5c-0.7-0.7-2.2-2.6-2.2-5.3c0-0.8,0.1-2.8,1.6-4.5c2.2-2.6,5.7-3.5,8.8-4.4c1.8-0.5,3.6-1,5.4-1.4l3.4-0.7
		v-1.5c0-1.1,0.1-1.7-0.3-2.8c-0.6-1.9-2.2-3.8-6.5-3.8c-3.7,0-5.5,1-6.5,2.5c-0.9,1.4-1,2.9-1.1,4.4l-3.9-0.7
		c0.1-0.6,0.5-3.1,1.7-5c1.3-2,4.1-4.4,9.5-4.4c2.9,0,6.8,0.7,8.8,3.1c1.9,2.3,1.7,5.3,1.7,8.1v9.2c0,2.8-0.1,4.7,1,5.5
		c0.9,0.7,2.3,0.7,3.3,0.7v2.8C440.5,349.5,438.7,349.2,437.5,348z M436.2,334.3l-1.8,0.5c-5.6,1.5-10.4,2.6-12.1,3.9
		c-1.1,0.8-1.8,2.1-1.8,3.5c0,1,0.4,1.8,0.5,2c1.3,2.6,4.6,2.7,5.2,2.7c3.5,0,7.7-2.1,9.2-5.4c0.5-1.2,0.8-2.4,0.8-5V334.3z"/>
	<path class="st0" d="M446.1,349.5v-2.2l15.5-23.3h-14.2v-3.1h19.1v2.1L451,346.3h15.9v3.2H446.1z"/>
	<path class="st0" d="M472.6,314.1v-5.5h3.5v5.5H472.6z M472.6,349.5v-28.6h3.5v28.6H472.6z"/>
	<path class="st0" d="M503.8,349.5v-14.9c0-3.8,0-6.1-0.7-7.8c-0.6-1.5-1.6-2.2-2.2-2.5c-1.6-1-3.2-0.9-3.9-0.9
		c-0.7,0-2.2,0.1-3.8,0.8c-2.1,1-3.8,3.3-4.3,5.5c-0.3,1.4-0.4,3.8-0.4,7.3v12.5h-3.5v-28.6h3.5v5.1c0.2-0.7,0.7-1.9,2-3.2
		c1.1-1.1,3.2-2.5,7-2.5c5.3,0,7.8,2.9,8.7,4.9c1.1,2.3,1,4.6,1,9.4v14.9H503.8z"/>
	<path class="st0" d="M538.4,345.6c-1.6,1.9-4.4,4.6-10.2,4.6c-1,0-3.9-0.1-6.6-1.5c-6.8-3.5-7.1-11.9-7.1-13.8c0-1,0-3.3,0.9-5.8
		c1.9-5.4,6.5-8.9,12.3-8.9c1.7,0,5.9,0.4,9.2,4.1c2.3,2.6,3.7,6.6,3.7,10.1v0.9h-22.2c-0.1,2.3,0.2,3.8,0.5,4.8
		c0.6,2.3,2.6,7,9.2,7c2.5,0,6.5-0.6,9.2-6l3.3,1C540.3,342.5,539.6,344.1,538.4,345.6z M527.7,323.3c-5,0-7.3,3.4-8.1,5
		c-0.5,1.2-0.9,2.7-1.1,4h18.1C535.7,324.9,530.8,323.3,527.7,323.3z"/>
</g>
</svg>
