<?xml version="1.0" encoding="utf-8"?>
<!-- Generator: Adobe Illustrator 24.3.0, SVG Export Plug-In . SVG Version: 6.00 Build 0)  -->
<svg version="1.1" id="Laag_1" xmlns="http://www.w3.org/2000/svg" xmlns:xlink="http://www.w3.org/1999/xlink" x="0px" y="0px"
	 width="124.4px" height="26.7px" viewBox="0 0 124.4 26.7" style="enable-background:new 0 0 124.4 26.7;" xml:space="preserve">
<style type="text/css">
	.st0{fill:#000B8C;}
</style>
<g>
	<path class="st0" d="M12.3,5.7h2.4v12.7h6.9v2.4h-9.3C12.3,20.8,12.3,5.7,12.3,5.7z"/>
	<path class="st0" d="M28.2,9.9c2.8,0,5.1,1.9,5.1,5.3c0,0.3,0,0.4,0,0.8H25c0.1,1.8,1.5,2.8,3.2,2.8c1.5,0,2.4-0.7,3-1.6l1.8,1.2
		c-0.9,1.5-2.6,2.4-4.9,2.4c-3.2,0-5.5-2.3-5.5-5.5C22.7,12.3,25,9.9,28.2,9.9z M25,14.2h6c-0.3-1.5-1.5-2.3-2.8-2.3
		S25.4,12.7,25,14.2z"/>
	<path class="st0" d="M40.5,9.9c2.8,0,5.1,1.9,5.1,5.3c0,0.3,0,0.4,0,0.8h-8.4c0.1,1.8,1.5,2.8,3.2,2.8c1.5,0,2.4-0.7,3-1.6l1.8,1.2
		C44.3,20,42.7,21,40.5,21c-3.2,0-5.5-2.3-5.5-5.5C35,12.3,37.3,9.9,40.5,9.9z M37.3,14.2h6c-0.3-1.5-1.5-2.3-2.8-2.3
		C39.1,11.9,37.7,12.7,37.3,14.2z"/>
	<path class="st0" d="M51.2,21c-1.8,0-3.4-0.7-4.2-2.2l1.8-1.2c0.4,0.9,1.5,1.5,2.6,1.5c0.9,0,1.6-0.4,1.6-1.1
		c0-0.7-0.4-0.9-1.8-1.4l-0.9-0.3c-1.8-0.5-2.7-1.6-2.7-3.2c0-1.8,1.6-3,3.7-3c1.5,0,2.7,0.5,3.5,1.5l-1.4,1.5
		c-0.5-0.7-1.4-0.9-2.2-0.9s-1.5,0.4-1.5,0.9c0,0.5,0.3,0.8,1.5,1.2l1.1,0.4c1.9,0.5,2.8,1.6,2.8,3.2C55.2,19.8,53.5,21,51.2,21z"/>
	<path class="st0" d="M62.6,10.2h2.3v1.5c0.5-0.9,1.6-1.6,3-1.6c1.6,0,2.7,0.8,3.2,2.2c0.7-1.4,2-2.2,3.4-2.2c2.4,0,3.8,1.8,3.8,4.5
		v6.4H76v-6c0-1.6-0.7-2.7-1.9-2.7c-1.5,0-2.6,1.2-2.6,3.5V21h-2.3v-6c0-1.6-0.7-2.7-1.9-2.7c-1.5,0-2.6,1.2-2.6,3.5v5.3h-2.3v-11
		H62.6z"/>
	<path class="st0" d="M86.3,9.9c2.8,0,5.1,1.9,5.1,5.3c0,0.3,0,0.4,0,0.8H83c0.1,1.8,1.5,2.8,3.2,2.8c1.5,0,2.4-0.7,3-1.6l1.8,1.2
		C90.1,20,88.5,21,86.3,21c-3.2,0-5.5-2.3-5.5-5.5C80.7,12.3,83,9.9,86.3,9.9z M83,14.2h6c-0.3-1.5-1.5-2.3-2.8-2.3
		S83.4,12.7,83,14.2z"/>
	<path class="st0" d="M98.6,9.9c2.8,0,5.1,1.9,5.1,5.3c0,0.3,0,0.4,0,0.8h-8.4c0.1,1.8,1.5,2.8,3.2,2.8c1.5,0,2.4-0.7,3-1.6l1.8,1.2
		c-0.9,1.5-2.6,2.4-4.9,2.4c-3.2,0-5.5-2.3-5.5-5.5C93.1,12.3,95.4,9.9,98.6,9.9z M95.4,14.2h6c-0.3-1.5-1.5-2.3-2.8-2.3
		C97.1,11.9,95.8,12.7,95.4,14.2z"/>
	<path class="st0" d="M106.1,10.2h2.3V12c0.4-1.2,1.6-2,2.8-2c0.3,0,0.5,0,0.9,0.1v2.4c-0.4-0.1-0.7-0.1-1.2-0.1
		c-1.4,0-2.6,1.1-2.6,3.2v5.1h-2.3C106.1,20.8,106.1,10.2,106.1,10.2z"/>
</g>
</svg>
