<?xml version="1.0" encoding="utf-8"?>
<!-- Generator: Adobe Illustrator 24.3.0, SVG Export Plug-In . SVG Version: 6.00 Build 0)  -->
<svg version="1.1" id="Laag_1" xmlns="http://www.w3.org/2000/svg" xmlns:xlink="http://www.w3.org/1999/xlink" x="0px" y="0px"
	 width="111.8px" height="40.8px" viewBox="0 0 111.8 40.8" style="enable-background:new 0 0 111.8 40.8;" xml:space="preserve">
<style type="text/css">
	.st0{fill:#FFFFFF;}
</style>
<g>
	<path class="st0" d="M4.8,5.2h4.6v5.4H8.4L8.2,9.5H8c-0.8,0.9-1.9,1.3-3.2,1.3c-1.5,0-2.6-0.5-3.4-1.4c-0.8-1-1.2-2.2-1.2-3.7
		c0-1.6,0.4-3,1.3-4C2.4,0.6,3.6,0,5,0c1.3,0,2.2,0.3,3,0.9c0.7,0.6,1.2,1.4,1.3,2.4H7.9c-0.1-0.6-0.4-1-0.9-1.4
		C6.5,1.5,5.9,1.3,5.1,1.3c-1,0-1.9,0.4-2.5,1.2C2,3.3,1.6,4.4,1.6,5.6c0,1.2,0.3,2.1,0.9,2.9C3.1,9.2,4,9.6,5.1,9.6
		c0.6,0,1.2-0.1,1.7-0.4S7.7,8.6,8,8.3V6.4H4.8V5.2z"/>
	<path class="st0" d="M15.4,3h0.5v1.4c-0.1,0-0.3-0.1-0.6-0.1c-0.6,0-1.1,0.2-1.5,0.6c-0.4,0.4-0.6,1-0.6,1.9v3.9h-1.4V3.2h1l0.2,1
		h0.1C13.7,3.4,14.5,3,15.4,3z"/>
	<path class="st0" d="M20.5,10.8c-1.1,0-2-0.4-2.7-1.1S16.7,8,16.7,6.9c0-1.1,0.4-2,1.1-2.8S19.4,3,20.5,3c1.1,0,2,0.4,2.7,1.1
		c0.7,0.7,1.1,1.7,1.1,2.8c0,1.1-0.4,2.1-1.1,2.8C22.6,10.5,21.7,10.8,20.5,10.8z M20.5,9.6c0.7,0,1.3-0.3,1.8-0.8
		C22.8,8.3,23,7.7,23,6.9c0-0.8-0.2-1.4-0.7-1.9s-1.1-0.8-1.8-0.8S19.2,4.5,18.8,5s-0.7,1.2-0.7,1.9c0,0.8,0.2,1.4,0.7,1.9
		C19.2,9.4,19.8,9.6,20.5,9.6z"/>
	<path class="st0" d="M28.7,10.8c-0.8,0-1.5-0.3-2-0.8C26.2,9.5,26,8.7,26,7.7V3.2h1.4v4.2c0,0.7,0.2,1.3,0.5,1.6s0.8,0.6,1.3,0.6
		c0.5,0,0.9-0.2,1.3-0.5C30.8,8.7,31,8.2,31,7.5V3.2h1.4v7.5h-1l-0.2-0.9H31C30.5,10.5,29.8,10.8,28.7,10.8z"/>
	<path class="st0" d="M38.1,3c0.8,0,1.5,0.3,2,0.8c0.5,0.5,0.8,1.3,0.8,2.3v4.5h-1.4V6.4c0-0.7-0.2-1.3-0.5-1.6s-0.8-0.6-1.3-0.6
		c-0.5,0-0.9,0.2-1.3,0.5c-0.4,0.4-0.5,0.9-0.5,1.6v4.3h-1.4V3.2h1l0.2,0.9h0.1C36.3,3.4,37.1,3,38.1,3z"/>
	<path class="st0" d="M48.4,0h1.3v10.7h-1l-0.2-1.1h-0.2c-0.6,0.8-1.3,1.2-2.4,1.2c-1,0-1.8-0.4-2.5-1.1c-0.7-0.7-1-1.7-1-2.8
		c0-1.1,0.3-2.1,1-2.8C44.2,3.4,45,3,46,3c1.1,0,1.9,0.4,2.4,1.2V0z M44.5,8.9c0.4,0.5,1,0.8,1.6,0.8s1.2-0.2,1.6-0.8s0.6-1.2,0.6-2
		c0-0.8-0.2-1.5-0.6-2c-0.4-0.5-1-0.7-1.6-0.7c-0.7,0-1.2,0.3-1.7,0.8s-0.6,1.2-0.6,1.9S44.1,8.4,44.5,8.9z"/>
	<path class="st0" d="M55.4,3c1,0,1.8,0.4,2.5,1.1c0.7,0.7,1,1.7,1,2.8c0,1.2-0.3,2.1-1,2.8c-0.7,0.7-1.5,1.1-2.5,1.1
		c-1,0-1.8-0.4-2.4-1.2H53l-0.2,1.1h-1V0h1.3v4.3C53.5,3.4,54.3,3,55.4,3z M53.7,8.9c0.4,0.5,1,0.8,1.6,0.8s1.2-0.3,1.7-0.8
		c0.4-0.5,0.6-1.2,0.6-1.9S57.4,5.5,57,5c-0.4-0.5-1-0.8-1.7-0.8c-0.7,0-1.2,0.2-1.6,0.7c-0.4,0.5-0.6,1.1-0.6,2
		C53.1,7.7,53.3,8.4,53.7,8.9z"/>
	<path class="st0" d="M64.2,3h0.5v1.4c-0.1,0-0.3-0.1-0.6-0.1c-0.6,0-1.1,0.2-1.5,0.6C62.2,5.4,62,6,62,6.8v3.9h-1.4V3.2h1l0.2,1H62
		C62.5,3.4,63.2,3,64.2,3z"/>
	<path class="st0" d="M69.1,3c1.1,0,1.9,0.4,2.6,1.1c0.7,0.7,0.9,1.8,0.8,3.1h-5.7c0,0.8,0.3,1.4,0.7,1.8c0.4,0.4,1,0.7,1.7,0.7
		c0.4,0,0.9-0.1,1.2-0.3c0.4-0.2,0.6-0.5,0.8-0.9h1.3c-0.2,0.8-0.6,1.3-1.2,1.7c-0.6,0.4-1.3,0.6-2.1,0.6c-1.1,0-2-0.4-2.7-1.1
		c-0.7-0.7-1-1.7-1-2.9c0-1.1,0.3-2,1-2.8C67.2,3.4,68.1,3,69.1,3z M66.9,6.2h4.4c0-0.6-0.2-1.1-0.6-1.5c-0.4-0.4-0.9-0.6-1.5-0.6
		c-0.6,0-1.1,0.2-1.5,0.6C67.2,5.1,67,5.6,66.9,6.2z"/>
	<path class="st0" d="M80.1,8.8c0,0.3,0.1,0.5,0.2,0.6c0.1,0.1,0.3,0.2,0.5,0.2v1.1h-0.2c-0.8,0-1.3-0.3-1.5-1
		c-0.3,0.4-0.7,0.6-1.1,0.9s-0.9,0.3-1.5,0.3c-0.7,0-1.3-0.2-1.8-0.5C74.2,9.9,74,9.4,74,8.7C74,8,74.3,7.4,74.9,7
		c0.6-0.4,1.4-0.7,2.5-0.7l1.4-0.1V6c0-0.6-0.1-1-0.4-1.4c-0.3-0.3-0.7-0.5-1.2-0.5c-0.5,0-0.9,0.1-1.2,0.4c-0.3,0.3-0.4,0.6-0.5,1
		h-1.3c0.1-0.7,0.4-1.3,0.9-1.8c0.5-0.5,1.2-0.7,2-0.7c0.9,0,1.6,0.3,2.1,0.8c0.5,0.5,0.8,1.3,0.8,2.2V8.8z M76.7,9.7
		c0.6,0,1.1-0.2,1.5-0.5c0.4-0.4,0.6-0.9,0.6-1.5V7.1l-1.2,0.1c-0.7,0.1-1.3,0.2-1.7,0.5c-0.4,0.2-0.6,0.6-0.6,1
		c0,0.4,0.1,0.6,0.4,0.8S76.3,9.7,76.7,9.7z"/>
	<path class="st0" d="M88.5,3.2l-3,3.2l3,4.3H87l-2.4-3.4l-1.1,1.1v2.3h-1.3V0h1.3v6.5h0.1l3.2-3.3H88.5z"/>
	<path class="st0" d="M91.5,1.7C91.3,1.9,91.1,2,90.8,2s-0.5-0.1-0.6-0.3s-0.3-0.4-0.3-0.6s0.1-0.5,0.3-0.6c0.2-0.2,0.4-0.3,0.6-0.3
		s0.5,0.1,0.6,0.3c0.2,0.2,0.3,0.4,0.3,0.6S91.6,1.6,91.5,1.7z M91.5,3.2v7.5h-1.3V3.2H91.5z"/>
	<path class="st0" d="M97.4,3c0.8,0,1.5,0.3,2,0.8c0.5,0.5,0.8,1.3,0.8,2.3v4.5h-1.4V6.4c0-0.7-0.2-1.3-0.5-1.6s-0.8-0.6-1.3-0.6
		c-0.5,0-0.9,0.2-1.3,0.5c-0.4,0.4-0.5,0.9-0.5,1.6v4.3h-1.4V3.2h1l0.2,0.9h0.1C95.6,3.4,96.3,3,97.4,3z"/>
	<path class="st0" d="M108.6,3.4c-0.2,0.3-0.6,0.6-1.2,0.8c0.3,0.4,0.4,0.9,0.4,1.4c0,0.7-0.3,1.3-0.8,1.8s-1.2,0.7-2.1,0.7
		c-0.5,0-0.9-0.1-1.2-0.2c-0.4,0.2-0.6,0.4-0.6,0.6c0,0.5,0.4,0.7,1.2,0.7h1.3c0.9,0,1.5,0.2,2,0.6c0.5,0.4,0.7,0.9,0.7,1.6
		c0,0.7-0.3,1.3-0.9,1.7s-1.4,0.6-2.4,0.6c-1.1,0-1.9-0.3-2.5-0.8c-0.6-0.5-0.9-1.2-0.9-1.9l1.2-0.9c-0.6-0.2-1-0.7-1-1.3
		c0-0.6,0.3-1.1,1-1.4c-0.5-0.5-0.8-1.1-0.8-1.8s0.3-1.4,0.8-1.9c0.5-0.5,1.2-0.7,2-0.7c0.7,0,1.4,0.2,1.9,0.6
		c0.4-0.3,0.8-0.6,1.1-1L108.6,3.4z M107,11.5c0-0.4-0.1-0.7-0.4-0.9c-0.3-0.2-0.7-0.3-1.1-0.3h-1.2l-1.2,0.9
		c0.1,0.4,0.3,0.8,0.6,1.1c0.3,0.3,0.8,0.4,1.5,0.4c0.5,0,1-0.1,1.3-0.3S107,11.9,107,11.5z M105,7.2c0.5,0,0.8-0.2,1.1-0.5
		c0.3-0.3,0.4-0.7,0.4-1.1c0-0.5-0.1-0.8-0.4-1.1C105.8,4.2,105.4,4,105,4c-0.5,0-0.9,0.1-1.2,0.5c-0.3,0.3-0.5,0.7-0.5,1.1
		c0,0.4,0.2,0.8,0.5,1.1C104.1,7,104.5,7.2,105,7.2z"/>
	<path class="st0" d="M110.8,9c0.3,0,0.5,0.1,0.7,0.3c0.2,0.2,0.2,0.5,0.2,0.9c0,0.5-0.1,1-0.4,1.4c-0.3,0.4-0.6,0.7-1,0.9l-0.3-0.4
		c0.6-0.4,0.8-0.9,0.9-1.3c-0.2,0-0.5,0-0.6-0.2c-0.2-0.2-0.3-0.4-0.3-0.7c0-0.3,0.1-0.5,0.3-0.7C110.4,9.1,110.6,9,110.8,9z"/>
	<path class="st0" d="M6.1,23.8c0,0.3,0.1,0.5,0.2,0.6c0.1,0.1,0.3,0.2,0.5,0.2v1.1H6.6c-0.8,0-1.3-0.3-1.5-1
		C4.8,25,4.4,25.3,4,25.5S3,25.8,2.5,25.8c-0.7,0-1.3-0.2-1.8-0.5C0.2,24.9,0,24.4,0,23.7C0,23,0.3,22.4,0.9,22
		c0.6-0.4,1.4-0.7,2.5-0.7l1.4-0.1V21c0-0.6-0.1-1-0.4-1.4c-0.3-0.3-0.7-0.5-1.2-0.5c-0.5,0-0.9,0.1-1.2,0.4c-0.3,0.3-0.4,0.6-0.5,1
		H0.3c0.1-0.7,0.3-1.3,0.9-1.8c0.5-0.5,1.2-0.7,2-0.7c0.9,0,1.6,0.3,2.1,0.8c0.5,0.5,0.8,1.3,0.8,2.2V23.8z M2.7,24.7
		c0.6,0,1.1-0.2,1.5-0.5c0.4-0.4,0.6-0.9,0.6-1.5v-0.5l-1.2,0.1c-0.7,0.1-1.3,0.2-1.7,0.5c-0.4,0.2-0.6,0.6-0.6,1
		c0,0.4,0.1,0.6,0.4,0.8S2.3,24.7,2.7,24.7z"/>
	<path class="st0" d="M13.8,15h1.3v10.7h-1l-0.2-1.1h-0.2c-0.6,0.8-1.3,1.2-2.4,1.2c-1,0-1.8-0.4-2.5-1.1c-0.7-0.7-1-1.7-1-2.8
		c0-1.1,0.3-2.1,1-2.8c0.7-0.7,1.5-1.1,2.5-1.1c1.1,0,1.9,0.4,2.4,1.2V15z M9.9,23.9c0.4,0.5,1,0.8,1.6,0.8s1.2-0.2,1.6-0.8
		s0.6-1.2,0.6-2c0-0.8-0.2-1.5-0.6-2c-0.4-0.5-1-0.7-1.6-0.7c-0.7,0-1.2,0.3-1.7,0.8s-0.6,1.2-0.6,1.9S9.5,23.4,9.9,23.9z"/>
	<path class="st0" d="M22.6,18.2H24l-2.7,7.5h-1.9l-2.7-7.5h1.4l2.2,6.3h0.1L22.6,18.2z"/>
	<path class="st0" d="M28.3,18c1.1,0,1.9,0.4,2.6,1.1s0.9,1.8,0.8,3.1h-5.7c0,0.8,0.3,1.4,0.7,1.8c0.4,0.4,1,0.7,1.7,0.7
		c0.5,0,0.9-0.1,1.2-0.3c0.4-0.2,0.6-0.5,0.8-0.9h1.3c-0.2,0.8-0.6,1.3-1.2,1.7c-0.6,0.4-1.3,0.6-2.1,0.6c-1.1,0-2-0.4-2.7-1.1
		c-0.7-0.7-1-1.7-1-2.9c0-1.1,0.3-2,1-2.8C26.5,18.4,27.3,18,28.3,18z M26.1,21.2h4.4c0-0.6-0.2-1.1-0.6-1.5
		c-0.4-0.4-0.9-0.6-1.5-0.6c-0.6,0-1.1,0.2-1.5,0.6C26.5,20.1,26.2,20.6,26.1,21.2z"/>
	<path class="st0" d="M37.2,18c0.8,0,1.5,0.3,2,0.8c0.5,0.5,0.8,1.3,0.8,2.3v4.5h-1.4v-4.2c0-0.7-0.2-1.3-0.5-1.6s-0.8-0.6-1.3-0.6
		c-0.5,0-0.9,0.2-1.3,0.5c-0.4,0.4-0.5,0.9-0.5,1.6v4.3h-1.4v-7.5h1l0.2,0.9h0.1C35.4,18.4,36.2,18,37.2,18z"/>
	<path class="st0" d="M45.6,25.5c-0.4,0.2-0.8,0.3-1.2,0.3c-1.2,0-1.8-0.7-1.8-2v-4.5H41v-1h0.4c0.8,0,1.2-0.3,1.2-1v-1h1.2v1.9h1.8
		v1.1h-1.8v4.4c0,0.6,0.2,0.9,0.8,0.9c0.2,0,0.5-0.1,0.7-0.2L45.6,25.5z"/>
	<path class="st0" d="M50,25.8c-0.8,0-1.5-0.3-2-0.8s-0.8-1.3-0.8-2.3v-4.5h1.4v4.2c0,0.7,0.2,1.3,0.5,1.6s0.8,0.6,1.3,0.6
		c0.5,0,0.9-0.2,1.3-0.5c0.3-0.4,0.5-0.9,0.5-1.6v-4.3h1.4v7.5h-1l-0.2-0.9h-0.1C51.8,25.5,51,25.8,50,25.8z"/>
	<path class="st0" d="M59.3,18h0.5v1.4c-0.1,0-0.3-0.1-0.6-0.1c-0.6,0-1.1,0.2-1.5,0.6c-0.4,0.4-0.6,1-0.6,1.9v3.9h-1.4v-7.5h1
		l0.2,1h0.1C57.6,18.4,58.3,18,59.3,18z"/>
	<path class="st0" d="M64.4,25.8c-1.1,0-2-0.4-2.7-1.1s-1.1-1.7-1.1-2.8c0-1.1,0.4-2,1.1-2.8s1.6-1.1,2.7-1.1c1.1,0,2,0.4,2.7,1.1
		c0.7,0.7,1.1,1.7,1.1,2.8c0,1.1-0.4,2.1-1.1,2.8C66.5,25.5,65.5,25.8,64.4,25.8z M64.4,24.6c0.7,0,1.3-0.3,1.8-0.8
		c0.5-0.5,0.7-1.2,0.7-1.9c0-0.8-0.2-1.4-0.7-1.9c-0.5-0.5-1.1-0.8-1.8-0.8s-1.3,0.3-1.8,0.8S62,21.2,62,21.9c0,0.8,0.2,1.4,0.7,1.9
		C63.1,24.4,63.7,24.6,64.4,24.6z"/>
	<path class="st0" d="M72.6,25.8c-0.8,0-1.5-0.3-2-0.8c-0.5-0.5-0.8-1.3-0.8-2.3v-4.5h1.4v4.2c0,0.7,0.2,1.3,0.5,1.6
		s0.8,0.6,1.3,0.6c0.5,0,0.9-0.2,1.3-0.5c0.4-0.4,0.5-0.9,0.5-1.6v-4.3h1.4v7.5h-1L75,24.7h-0.1C74.4,25.5,73.7,25.8,72.6,25.8z"/>
	<path class="st0" d="M83.6,23.7c0,0.6-0.3,1.2-0.8,1.5c-0.5,0.4-1.2,0.6-2,0.6c-0.9,0-1.6-0.2-2.1-0.7s-0.8-1.1-0.8-1.9h1.3
		c0,0.5,0.2,0.9,0.5,1.1c0.3,0.3,0.7,0.4,1.2,0.4c0.4,0,0.7-0.1,1-0.3c0.3-0.2,0.4-0.4,0.4-0.8c0-0.3-0.2-0.6-0.5-0.8
		s-0.7-0.4-1.3-0.6c-0.3-0.1-0.6-0.2-0.8-0.3c-0.2-0.1-0.5-0.2-0.7-0.4c-0.2-0.2-0.4-0.4-0.6-0.6c-0.1-0.2-0.2-0.5-0.2-0.8
		c0-0.6,0.2-1.2,0.7-1.5c0.5-0.4,1.1-0.6,1.9-0.6c0.8,0,1.4,0.2,1.9,0.7c0.5,0.4,0.7,1,0.7,1.6h-1.2c0-0.3-0.2-0.6-0.4-0.9
		c-0.3-0.2-0.6-0.3-1-0.3c-0.3,0-0.6,0.1-0.9,0.3c-0.2,0.2-0.4,0.4-0.4,0.7c0,0.3,0.1,0.6,0.4,0.8c0.3,0.2,0.7,0.4,1.2,0.6
		c0.8,0.3,1.4,0.6,1.9,0.9C83.4,22.6,83.6,23.1,83.6,23.7z"/>
	<path class="st0" d="M86.4,24c0.3,0,0.5,0.1,0.7,0.3c0.2,0.2,0.2,0.5,0.2,0.9c0,0.5-0.1,1-0.4,1.4c-0.3,0.4-0.6,0.7-1,0.9l-0.3-0.4
		c0.6-0.4,0.8-0.9,0.9-1.3c-0.2,0-0.5,0-0.6-0.2c-0.2-0.2-0.3-0.4-0.3-0.7c0-0.3,0.1-0.5,0.3-0.7C85.9,24.1,86.1,24,86.4,24z"/>
	<path class="st0" d="M5.9,30h1.3v10.7h-1L6,39.6H5.8c-0.6,0.8-1.3,1.2-2.4,1.2c-1,0-1.8-0.4-2.5-1.1c-0.7-0.7-1-1.7-1-2.8
		c0-1.1,0.3-2.1,1-2.8C1.7,33.4,2.5,33,3.5,33c1.1,0,1.9,0.4,2.4,1.2V30z M2,38.9c0.4,0.5,1,0.8,1.6,0.8s1.2-0.2,1.6-0.8
		s0.6-1.2,0.6-2c0-0.8-0.2-1.5-0.6-2c-0.4-0.5-1-0.7-1.6-0.7C3,34.2,2.4,34.5,2,35s-0.6,1.2-0.6,1.9S1.5,38.4,2,38.9z"/>
	<path class="st0" d="M10.6,31.7c-0.2,0.2-0.4,0.3-0.6,0.3c-0.2,0-0.5-0.1-0.6-0.3S9,31.4,9,31.1s0.1-0.5,0.3-0.6
		c0.2-0.2,0.4-0.3,0.6-0.3c0.2,0,0.5,0.1,0.6,0.3c0.2,0.2,0.3,0.4,0.3,0.6S10.7,31.6,10.6,31.7z M10.6,33.2v7.5H9.2v-7.5H10.6z"/>
	<path class="st0" d="M18.1,33.2h1.4l-2.7,7.5h-1.9l-2.7-7.5h1.4l2.2,6.3h0.1L18.1,33.2z"/>
	<path class="st0" d="M23.8,33c1.1,0,1.9,0.4,2.6,1.1s0.9,1.8,0.8,3.1h-5.7c0,0.8,0.3,1.4,0.7,1.8c0.4,0.4,1,0.7,1.7,0.7
		c0.5,0,0.9-0.1,1.2-0.3c0.4-0.2,0.6-0.5,0.8-0.9h1.3c-0.2,0.8-0.6,1.3-1.2,1.7c-0.6,0.4-1.3,0.6-2.1,0.6c-1.1,0-2-0.4-2.7-1.1
		c-0.7-0.7-1-1.7-1-2.9c0-1.1,0.3-2,1-2.8C21.9,33.4,22.8,33,23.8,33z M21.6,36.2H26c0-0.6-0.2-1.1-0.6-1.5
		c-0.4-0.4-0.9-0.6-1.5-0.6c-0.6,0-1.1,0.2-1.5,0.6C21.9,35.1,21.7,35.6,21.6,36.2z"/>
	<path class="st0" d="M32.6,33h0.5v1.4c-0.1,0-0.3-0.1-0.6-0.1c-0.6,0-1.1,0.2-1.5,0.6c-0.4,0.4-0.6,1-0.6,1.9v3.9H29v-7.5h1l0.2,1
		h0.1C30.9,33.4,31.7,33,32.6,33z"/>
	<path class="st0" d="M39.8,38.7c0,0.6-0.3,1.2-0.8,1.5c-0.5,0.4-1.2,0.6-2,0.6c-0.9,0-1.6-0.2-2.1-0.7s-0.8-1.1-0.8-1.9h1.3
		c0,0.5,0.2,0.9,0.5,1.1s0.7,0.4,1.2,0.4c0.4,0,0.7-0.1,1-0.3c0.3-0.2,0.4-0.4,0.4-0.8c0-0.3-0.2-0.6-0.5-0.8s-0.7-0.4-1.3-0.6
		c-0.3-0.1-0.6-0.2-0.8-0.3c-0.2-0.1-0.5-0.2-0.7-0.4c-0.2-0.2-0.4-0.4-0.6-0.6c-0.1-0.2-0.2-0.5-0.2-0.8c0-0.6,0.2-1.2,0.7-1.5
		c0.5-0.4,1.1-0.6,1.9-0.6c0.8,0,1.4,0.2,1.9,0.7c0.5,0.4,0.7,1,0.7,1.6h-1.2c0-0.3-0.2-0.6-0.4-0.9c-0.3-0.2-0.6-0.3-1-0.3
		c-0.3,0-0.6,0.1-0.9,0.3c-0.2,0.2-0.4,0.4-0.4,0.7c0,0.3,0.1,0.6,0.4,0.8c0.3,0.2,0.7,0.4,1.2,0.6c0.8,0.3,1.4,0.6,1.9,0.9
		C39.6,37.6,39.8,38.1,39.8,38.7z"/>
	<path class="st0" d="M44.7,33c1.1,0,1.9,0.4,2.6,1.1s0.9,1.8,0.8,3.1h-5.7c0,0.8,0.3,1.4,0.7,1.8c0.4,0.4,1,0.7,1.7,0.7
		c0.5,0,0.9-0.1,1.2-0.3c0.4-0.2,0.6-0.5,0.8-0.9h1.3c-0.2,0.8-0.6,1.3-1.2,1.7c-0.6,0.4-1.3,0.6-2.1,0.6c-1.1,0-2-0.4-2.7-1.1
		c-0.7-0.7-1-1.7-1-2.9c0-1.1,0.3-2,1-2.8C42.8,33.4,43.7,33,44.7,33z M42.5,36.2h4.4c0-0.6-0.2-1.1-0.6-1.5
		c-0.4-0.4-0.9-0.6-1.5-0.6c-0.6,0-1.1,0.2-1.5,0.6C42.8,35.1,42.6,35.6,42.5,36.2z"/>
</g>
</svg>
