<?xml version="1.0" encoding="utf-8"?>
<!-- Generator: Adobe Illustrator 24.3.0, SVG Export Plug-In . SVG Version: 6.00 Build 0)  -->
<svg version="1.1" id="Laag_1" xmlns="http://www.w3.org/2000/svg" xmlns:xlink="http://www.w3.org/1999/xlink" x="0px" y="0px"
	 width="902.9px" height="215px" viewBox="0 0 902.9 215" style="enable-background:new 0 0 902.9 215;" xml:space="preserve">
<style type="text/css">
	.st0{fill:#E5262B;}
</style>
<g>
	<path class="st0" d="M96.4,47.5C96.4,15.8,117.5,0,142.6,0c23.8,0,38.3,11.9,42.2,29l-1.3,1.3h-22l-1.7-1.3
		c-2.6-5.3-6.6-9.2-17.2-9.2c-11.9,0-22.4,6.6-22.4,27.7s10.6,27.7,22.4,27.7c10.6,0,14.5-4,17.2-10.6l1.7-1.3h22l1.3,1.3
		c-4,18.5-18.5,30.4-42.2,30.4C117.5,95,96.4,79.2,96.4,47.5z"/>
	<path class="st0" d="M248.2,77.9l-2.6-1.3h-30.4l-2.6,1.3l-5.3,14.5l-1.3,1.3h-15.8l-1.3-1.3V75.2l29-72.6l1.3-1.3h22.4l1.3,1.3
		l29,72.6v17.2l-1.3,1.3h-15.8l-1.3-1.3L248.2,77.9z M220.4,55.4l1.3,1.3h17.2l1.3-1.3L231,30.4h-1.3L220.4,55.4z"/>
	<path class="st0" d="M285.1,1.3h22.4l2.6,1.3l31.7,50.2h1.3V2.6l1.3-1.3h21.1l1.3,1.3v89.8l-1.3,1.3h-22.4l-2.6-1.3l-31.7-50.2
		h-1.3v50.2l-1.3,1.3h-21.1l-1.3-1.3V2.6L285.1,1.3z"/>
	<path class="st0" d="M380.2,47.5c0-31.7,21.1-47.5,46.2-47.5c23.8,0,38.3,11.9,42.2,29l-1.3,1.3h-22l-1.7-1.3
		c-2.6-5.3-6.6-9.2-17.2-9.2c-11.9,0-22.4,6.6-22.4,27.7s10.6,27.7,22.4,27.7c10.6,0,14.5-4,17.2-10.6l1.7-1.3h22l1.3,1.3
		c-4,18.5-18.5,30.4-42.2,30.4C401.3,95,380.2,79.2,380.2,47.5z"/>
	<path class="st0" d="M550.4,93.7h-67.3l-1.3-1.3V2.6l1.3-1.3h67.3l1.3,1.3v17.2l-1.3,1.3h-43.6l-1.3,1.3v13.2l1.3,1.3h40.9l1.3,1.3
		v17.2l-1.3,1.3h-40.9l-1.3,1.3v14.5l1.3,1.3h43.6l1.3,1.3v17.2L550.4,93.7z"/>
	<path class="st0" d="M631,93.7h-62l-1.3-1.3V2.6l1.3-1.3H590l1.3,1.3v70l1.3,1.3H631l1.3,1.3v17.2L631,93.7z"/>
	<path class="st0" d="M726,77.9l-2.6-1.3H693l-2.6,1.3l-5.3,14.5l-1.3,1.3h-15.8l-1.3-1.3V75.2l29-72.6l1.3-1.3h22.4l1.3,1.3
		l29,72.6v17.2l-1.3,1.3h-15.8l-1.3-1.3L726,77.9z M698.3,55.4l1.3,1.3h17.2l1.3-1.3l-9.2-25.1h-1.3L698.3,55.4z"/>
	<path class="st0" d="M825,93.7h-62l-1.3-1.3V2.6l1.3-1.3h21.1l1.3,1.3v70l1.3,1.3H825l1.3,1.3v17.2L825,93.7z"/>
	<path class="st0" d="M901.6,93.7h-62l-1.3-1.3V2.6l1.3-1.3h21.1l1.3,1.3v70l1.3,1.3h38.3l1.3,1.3v17.2L901.6,93.7z"/>
	<path class="st0" d="M50.2,180.7v31.7l-1.3,1.3H27.7l-1.3-1.3v-31.7L0,139.8v-17.2l1.3-1.3h11.9l2.6,1.3L37,158.3h2.6l21.1-35.6
		l2.6-1.3h11.9l1.3,1.3v17.2L50.2,180.7z"/>
	<path class="st0" d="M128,120c27.7,0,46.2,17.2,46.2,47.5c0,30.4-18.5,47.5-46.2,47.5c-27.7,0-46.2-17.2-46.2-47.5
		C81.8,137.2,100.3,120,128,120z M128,195.2c14.5,0,22.4-9.2,22.4-27.7s-7.9-27.7-22.4-27.7c-14.5,0-22.4,9.2-22.4,27.7
		S113.5,195.2,128,195.2z"/>
	<path class="st0" d="M265.3,178.1c0,23.8-14.5,37-39.6,37c-25.1,0-39.6-13.2-39.6-37v-55.4l1.3-1.3h21.1l1.3,1.3v55.4
		c0,13.2,5.3,17.2,15.8,17.2c10.6,0,15.8-4,15.8-17.2v-55.4l1.3-1.3H264l1.3,1.3V178.1z"/>
	<path class="st0" d="M345.8,176.8v1.3l14.5,17.2v17.2l-1.3,1.3h-10.6l-2.6-1.3l-26.4-31.7l-2.6-1.3h-9.2l-1.3,1.3v31.7l-1.3,1.3
		h-21.1l-1.3-1.3v-89.8l1.3-1.3H330c19.8,0,33,10.6,33,29C363,164.9,355.1,172.8,345.8,176.8z M330,141.1h-22.4l-1.3,1.3v15.8
		l1.3,1.3H330c5.3,0,9.2-1.3,9.2-9.2C339.2,142.4,335.3,141.1,330,141.1z"/>
	<path class="st0" d="M455.4,179.4H433l-1.3,1.3v31.7l-1.3,1.3h-21.1l-1.3-1.3v-89.8l1.3-1.3h46.2c19.8,0,33,10.6,33,29
		C488.4,168.8,475.2,179.4,455.4,179.4z M455.4,141.1H433l-1.3,1.3v15.8l1.3,1.3h22.4c5.3,0,9.2-1.3,9.2-9.2
		C464.6,142.4,460.7,141.1,455.4,141.1z"/>
	<path class="st0" d="M562.3,213.7h-62l-1.3-1.3v-89.8l1.3-1.3h21.1l1.3,1.3v70l1.3,1.3h38.3l1.3,1.3v17.2L562.3,213.7z"/>
	<path class="st0" d="M631,197.9l-2.6-1.3H598l-2.6,1.3l-5.3,14.5l-1.3,1.3h-15.8l-1.3-1.3v-17.2l29-72.6l1.3-1.3h22.4l1.3,1.3
		l29,72.6v17.2l-1.3,1.3h-15.8l-1.3-1.3L631,197.9z M603.2,175.4l1.3,1.3h17.2l1.3-1.3l-9.2-25.1h-1.3L603.2,175.4z"/>
	<path class="st0" d="M667.9,121.3h22.4l2.6,1.3l31.7,50.2h1.3v-50.2l1.3-1.3h21.1l1.3,1.3v89.8l-1.3,1.3H726l-2.6-1.3l-31.7-50.2
		h-1.3v50.2l-1.3,1.3h-21.1l-1.3-1.3v-89.8L667.9,121.3z"/>
	<path class="st0" d="M806.5,178.1l-9.2-1.3c-27.7-4-33-17.2-33-30.4c0-14.5,11.9-26.4,38.3-26.4c23.8,0,38.3,9.2,38.3,27.7
		l-1.3,1.3h-21.1l-1.3-1.3c0-5.3-4-9.2-14.5-9.2c-10.6,0-15.8,2.6-15.8,7.9s5.3,6.6,14.5,7.9l9.2,1.3c27.7,4,33,15.8,33,30.4
		s-10.6,29-39.6,29c-26.4,0-40.9-10.6-40.9-30.4l1.3-1.3h21.1l1.3,1.3c0,7.9,5.3,11.9,17.2,11.9c10.6,0,17.2-2.6,17.2-9.2
		C821,180.7,815.8,179.4,806.5,178.1z"/>
	<path class="st0" d="M887,213.7h-23.8l-1.3-1.3v-21.1l1.3-1.3H887l1.3,1.3v21.1L887,213.7z M884.4,178.1l-1.3,1.3h-15.8l-1.3-1.3
		l-2.6-27.7v-27.7l1.3-1.3h21.1l1.3,1.3v27.7L884.4,178.1z"/>
</g>
</svg>
