<?xml version="1.0" encoding="utf-8"?>
<!-- Generator: Adobe Illustrator 24.3.0, SVG Export Plug-In . SVG Version: 6.00 Build 0)  -->
<svg version="1.1" id="Laag_1" xmlns="http://www.w3.org/2000/svg" xmlns:xlink="http://www.w3.org/1999/xlink" x="0px" y="0px"
	 width="143px" height="61.5px" viewBox="0 0 143 61.5" style="enable-background:new 0 0 143 61.5;" xml:space="preserve">
<style type="text/css">
	.st0{fill-rule:evenodd;clip-rule:evenodd;fill:#E51D2D;}
	.st1{fill:#E51D2D;}
</style>
<g>
	<path class="st0" d="M13.4,28.3C5.1,28.3,0,22.9,0,14.1C0.1,5.3,5.3,0,14.2,0c6.5,0,11.3,3.2,12.5,8.5l-0.3,0.3h-6.5l-0.5-0.4
		c-0.8-1.4-1.9-2.8-5.2-2.8C9.3,5.6,7,8.3,7,14c0,7.6,4.2,8.4,7.2,8.4c3.9,0,5.7-2.3,5.7-4.5v-0.1l-0.5-0.5h-6.4l-0.4-0.2v-4.6
		l0.3-0.3h13.4l0.3,0.3v15l-0.3,0.3h-5L21,27.5l-0.4-1.6H20C19,26.9,17,28.3,13.4,28.3"/>
	<path class="st1" d="M45,5.7c-4.5,0-6.8,2.9-6.8,8.4c0,5.5,2.4,8.4,6.8,8.4s6.8-2.9,6.8-8.4C52,8.6,49.6,5.7,45,5.7 M45,28.3
		c-8.4,0-13.8-5.4-13.8-14.1C31.3,5.4,36.6,0,45,0s13.8,5.4,13.8,14.1C58.8,22.9,53.6,28.3,45,28.3"/>
	<path class="st0" d="M47.8,61.5l-0.4-0.3V50.9l-0.5-0.5h-9.2l-0.5,0.5v10.3l-0.3,0.3h-6.3l-0.3-0.3V34.4l0.3-0.3h6.3l0.3,0.3v9.9
		l0.5,0.5h9.2l0.5-0.5v-9.9l0.4-0.3h6.2l0.4,0.3v26.8l-0.4,0.3H47.8z M13.1,61.4c-8,0-12.1-3.1-12.1-8.9l0.3-0.3h6.3l0.3,0.3
		c0,2.5,1.7,3.6,5.3,3.6c3.5,0,5.3-0.9,5.3-2.9c0-2.1-1.7-2.5-4.5-2.8l-2.8-0.4c-6.7-0.9-9.8-3.7-9.8-9c0-4.8,4.3-7.8,11.4-7.8
		c7.3,0,11.3,2.8,11.4,8.2l-0.3,0.3h-6.3l-0.3-0.3c0-1.3-0.9-2.8-4.5-2.8c-3.2,0-4.8,0.9-4.8,2.5c0,1.7,1.8,2.1,4.5,2.5l2.8,0.4
		c8.6,1.2,9.8,5,9.8,9C24.8,54.9,24,61.4,13.1,61.4z"/>
	<path class="st1" d="M99,40.2V45l0.5,0.5h6.7c1.5,0,2.8-0.4,2.8-2.8c0-2.6-1.4-2.9-2.8-2.9h-6.7L99,40.2z M111.8,61.5l-0.8-0.4
		l-7.9-9.5l-0.9-0.4h-2.8L99,51.7v9.5l-0.3,0.3h-6.3l-0.3-0.3V34.4l0.3-0.3h13.8c6.1,0,9.8,3.3,9.8,8.6c0,4.6-2.8,6.8-5,7.8h-0.1V51
		l4.4,5.1v5l-0.3,0.3L111.8,61.5L111.8,61.5z M72.6,38.8c-4.5,0-6.8,2.9-6.8,8.4c0,5.5,2.4,8.4,6.8,8.4s6.8-2.9,6.8-8.4
		C79.4,41.8,77.1,38.8,72.6,38.8z M72.6,61.4c-8.4,0-13.8-5.4-13.8-14.1c0-8.7,5.2-14.1,13.8-14.1c8.4,0,13.8,5.4,13.8,14.1
		C86.3,56,81,61.4,72.6,61.4"/>
</g>
<polygon class="st0" points="63.5,2.8 72.5,14 63.5,25.2 74.3,25.2 83.4,14 74.3,2.8 "/>
<polygon class="st1" points="119.1,34.1 118.7,34.4 118.7,39.4 119.1,39.8 126.9,39.8 127.4,40.2 127.4,61.2 127.7,61.5 134,61.5 
	134.3,61.2 134.3,40.2 134.8,39.8 142.7,39.8 143,39.4 143,34.4 142.7,34.1 "/>
</svg>
