<?xml version="1.0" encoding="utf-8"?>
<!-- Generator: Adobe Illustrator 24.3.0, SVG Export Plug-In . SVG Version: 6.00 Build 0)  -->
<svg version="1.1" id="Laag_1" xmlns="http://www.w3.org/2000/svg" xmlns:xlink="http://www.w3.org/1999/xlink" x="0px" y="0px"
	 width="1230.2px" height="215px" viewBox="0 0 1230.2 215" style="enable-background:new 0 0 1230.2 215;" xml:space="preserve">
<style type="text/css">
	.st0{fill:#E5262B;}
</style>
<g>
	<path class="st0" d="M23.8,47.5c0,22.4,10.6,27.7,23.8,27.7S66,67.3,66,60.7l-1.3-1.3H43.6l-1.3-1.3V42.2l1.3-1.3h44.9l1.3,1.3
		v50.2l-1.3,1.3H71.3L70,92.4l-1.3-5.3h-1.3c-2.6,2.6-9.2,7.9-22.4,7.9C18.5,95,0,77.9,0,47.5S18.5,0,47.5,0
		c23.8,0,38.3,11.9,42.2,29l-1.3,1.3h-22L64.7,29c-2.6-5.3-6.6-9.2-17.2-9.2C33,19.8,23.8,26.4,23.8,47.5z"/>
	<path class="st0" d="M146.5,0c27.7,0,46.2,17.2,46.2,47.5S174.2,95,146.5,95c-27.7,0-46.2-17.2-46.2-47.5S118.8,0,146.5,0z
		 M146.5,75.2C161,75.2,169,66,169,47.5s-7.9-27.7-22.4-27.7c-14.5,0-22.4,9.2-22.4,27.7S132,75.2,146.5,75.2z"/>
	<path class="st0" d="M273.2,58.1l-9.2-1.3c-27.7-4-33-17.2-33-30.4C231,11.9,242.9,0,269.3,0c23.8,0,38.3,9.2,38.3,27.7l-1.3,1.3
		h-21.1l-1.3-1.3c0-5.3-4-9.2-14.5-9.2c-10.6,0-15.8,2.6-15.8,7.9c0,5.3,5.3,6.6,14.5,7.9l9.2,1.3c27.7,4,33,15.8,33,30.4
		s-10.6,29-39.6,29c-26.4,0-40.9-10.6-40.9-30.4l1.3-1.3h21.1l1.3,1.3c0,7.9,5.3,11.9,17.2,11.9c10.6,0,17.2-2.6,17.2-9.2
		S282.5,59.4,273.2,58.1z"/>
	<path class="st0" d="M402.6,93.7h-21.1l-1.3-1.3V58.1l-1.3-1.3h-30.4l-1.3,1.3v34.3l-1.3,1.3h-21.1l-1.3-1.3V2.6l1.3-1.3h21.1
		l1.3,1.3v33l1.3,1.3h30.4l1.3-1.3v-33l1.3-1.3h21.1l1.3,1.3v89.8L402.6,93.7z"/>
	<path class="st0" d="M463.3,0c27.7,0,46.2,17.2,46.2,47.5S491,95,463.3,95c-27.7,0-46.2-17.2-46.2-47.5S435.6,0,463.3,0z
		 M463.3,75.2c14.5,0,22.4-9.2,22.4-27.7s-7.9-27.7-22.4-27.7c-14.5,0-22.4,9.2-22.4,27.7S448.8,75.2,463.3,75.2z"/>
	<path class="st0" d="M586.1,56.8v1.3l14.5,17.2v17.2l-1.3,1.3h-10.6l-2.6-1.3l-26.4-31.7l-2.6-1.3h-9.2l-1.3,1.3v31.7l-1.3,1.3H524
		l-1.3-1.3V2.6l1.3-1.3h46.2c19.8,0,33,10.6,33,29C603.2,44.9,595.3,52.8,586.1,56.8z M570.2,21.1h-22.4l-1.3,1.3v15.8l1.3,1.3h22.4
		c5.3,0,9.2-1.3,9.2-9.2S575.5,21.1,570.2,21.1z"/>
	<path class="st0" d="M689,21.1h-26.4l-1.3,1.3v70l-1.3,1.3h-21.1l-1.3-1.3v-70l-1.3-1.3h-26.4l-1.3-1.3V2.6l1.3-1.3H689l1.3,1.3
		v17.2L689,21.1z"/>
	<path class="st0" d="M772.2,0c27.7,0,46.2,17.2,46.2,47.5S799.9,95,772.2,95C744.5,95,726,77.9,726,47.5S744.5,0,772.2,0z
		 M772.2,75.2c14.5,0,22.4-9.2,22.4-27.7s-7.9-27.7-22.4-27.7c-14.5,0-22.4,9.2-22.4,27.7S757.7,75.2,772.2,75.2z"/>
	<path class="st0" d="M832.9,1.3h22.4l2.6,1.3l31.7,50.2h1.3V2.6l1.3-1.3h21.1l1.3,1.3v89.8l-1.3,1.3H891l-2.6-1.3l-31.7-50.2h-1.3
		v50.2l-1.3,1.3h-21.1l-1.3-1.3V2.6L832.9,1.3z"/>
	<path class="st0" d="M996.6,93.7h-62l-1.3-1.3V2.6l1.3-1.3h21.1l1.3,1.3v70l1.3,1.3h38.3l1.3,1.3v17.2L996.6,93.7z"/>
	<path class="st0" d="M1032.2,93.7h-21.1l-1.3-1.3V2.6l1.3-1.3h21.1l1.3,1.3v89.8L1032.2,93.7z"/>
	<path class="st0" d="M1053.4,1.3h22.4l2.6,1.3l31.7,50.2h1.3V2.6l1.3-1.3h21.1l1.3,1.3v89.8l-1.3,1.3h-22.4l-2.6-1.3l-31.7-50.2
		h-1.3v50.2l-1.3,1.3h-21.1l-1.3-1.3V2.6L1053.4,1.3z"/>
	<path class="st0" d="M1222.3,93.7H1155l-1.3-1.3V2.6l1.3-1.3h67.3l1.3,1.3v17.2l-1.3,1.3h-43.6l-1.3,1.3v13.2l1.3,1.3h40.9l1.3,1.3
		v17.2l-1.3,1.3h-40.9l-1.3,1.3v14.5l1.3,1.3h43.6l1.3,1.3v17.2L1222.3,93.7z"/>
	<path class="st0" d="M452.8,186c0-11.9,6.6-18.5,13.2-21.1v-1.3c-5.3-2.6-10.6-9.2-10.6-18.5c0-11.9,10.6-25.1,34.3-25.1
		c23.8,0,34.3,13.2,34.3,25.1c0,9.2-5.3,15.8-10.6,18.5v1.3c6.6,2.6,13.2,9.2,13.2,21.1c0,14.5-11.9,29-37,29
		C464.6,215,452.8,200.5,452.8,186z M489.7,196.6c9.2,0,13.2-5.3,13.2-11.9c0-7.9-5.3-11.9-13.2-11.9c-7.9,0-13.2,4-13.2,11.9
		C476.5,191.3,480.5,196.6,489.7,196.6z M489.7,157c6.6,0,10.6-2.6,10.6-9.2s-4-9.2-10.6-9.2c-6.6,0-10.6,2.6-10.6,9.2
		S483.1,157,489.7,157z"/>
	<path class="st0" d="M613.8,176.8h-43.6l-1.3-1.3v-17.2l1.3-1.3h43.6l1.3,1.3v17.2L613.8,176.8z"/>
	<path class="st0" d="M723.4,213.7h-64.7l-1.3-1.3v-18.5l1.3-2.6l23.8-21.1c11.9-10.6,15.8-14.5,15.8-22.4c0-5.3-4-7.9-7.9-7.9
		c-6.7,0-9.2,4-9.2,9.2l-1.3,1.3h-21.1l-1.3-1.3c0-13.2,7.9-29,33-29c21.1,0,31.7,13.2,31.7,27.7c0,15.8-10.6,26.4-21.1,35.6
		l-10.6,9.2v1.3h33l1.3,1.3v17.2L723.4,213.7z"/>
	<path class="st0" d="M768.2,215c-22.4,0-33-10.6-34.3-26.4l1.3-1.3h21.1l1.3,1.3c1.3,6.6,5.3,7.9,10.6,7.9
		c7.9,0,11.9-5.3,11.9-14.5c0-7.9-2.6-13.2-10.6-13.2c-4,0-7.9,1.3-10.6,5.3l-2.6,1.3l-18.5-1.3l-1.3-1.3l2.6-50.2l1.3-1.3h58.1
		l1.3,1.3v17.2l-1.3,1.3h-36.3l-1.3,1.3l-0.7,11.9h1.3c4-2.6,9.2-4,14.5-4c21.1,0,27.7,15.8,27.7,30.4
		C803.9,203.2,790.7,215,768.2,215z"/>
	<path class="st0" d="M902.9,197.9l-2.6-1.3h-30.4l-2.6,1.3l-5.3,14.5l-1.3,1.3h-15.8l-1.3-1.3v-17.2l29-72.6l1.3-1.3h22.4l1.3,1.3
		l29,72.6v17.2l-1.3,1.3h-15.8l-1.3-1.3L902.9,197.9z M875.2,175.4l1.3,1.3h17.2l1.3-1.3l-9.2-25.1h-1.3L875.2,175.4z"/>
	<path class="st0" d="M986,179.4h-22.4l-1.3,1.3v31.7l-1.3,1.3h-21.1l-1.3-1.3v-89.8l1.3-1.3H986c19.8,0,33,10.6,33,29
		C1019,168.8,1005.8,179.4,986,179.4z M986,141.1h-22.4l-1.3,1.3v15.8l1.3,1.3H986c5.3,0,9.2-1.3,9.2-9.2
		C995.3,142.4,991.3,141.1,986,141.1z"/>
	<path class="st0" d="M1093,176.8v1.3l14.5,17.2v17.2l-1.3,1.3h-10.6l-2.6-1.3l-26.4-31.7l-2.6-1.3h-9.2l-1.3,1.3v31.7l-1.3,1.3
		h-21.1l-1.3-1.3v-89.8l1.3-1.3h46.2c19.8,0,33,10.6,33,29C1110.1,164.9,1102.2,172.8,1093,176.8z M1077.1,141.1h-22.4l-1.3,1.3
		v15.8l1.3,1.3h22.4c5.3,0,9.2-1.3,9.2-9.2C1086.4,142.4,1082.4,141.1,1077.1,141.1z"/>
	<path class="st0" d="M1145.8,213.7h-21.1l-1.3-1.3v-89.8l1.3-1.3h21.1l1.3,1.3v89.8L1145.8,213.7z"/>
	<path class="st0" d="M1228.9,213.7h-62l-1.3-1.3v-89.8l1.3-1.3h21.1l1.3,1.3v70l1.3,1.3h38.3l1.3,1.3v17.2L1228.9,213.7z"/>
</g>
</svg>
