<?xml version="1.0" encoding="utf-8"?>
<!-- Generator: Adobe Illustrator 24.3.0, SVG Export Plug-In . SVG Version: 6.00 Build 0)  -->
<svg version="1.1" id="Laag_1" xmlns="http://www.w3.org/2000/svg" xmlns:xlink="http://www.w3.org/1999/xlink" x="0px" y="0px"
	 width="153.1px" height="61.3px" viewBox="0 0 153.1 61.3" style="enable-background:new 0 0 153.1 61.3;" xml:space="preserve">
<style type="text/css">
	.st0{fill:#E51D2D;}
</style>
<g>
	<path class="st0" d="M74.8,0.5l0.2,0.2l2.5,9.4h0.2l2.1-9.4l0.2-0.2h3.2l0.2,0.2v3l-3.7,12.6l-0.2,0.2h-3.9l-0.2-0.2L73,6.9h-0.2
		l-2.5,9.4L70,16.5h-3.9l-0.2-0.2L62.3,3.7v-3l0.2-0.2h3.2l0.2,0.2l2.1,9.4h0.2l2.5-9.4l0.2-0.2H74.8z"/>
	<path class="st0" d="M99.8,16.5h-3.7l-0.2-0.2v-5.9l-0.2-0.2h-5.3l-0.2,0.2v5.9L90,16.5h-3.7l-0.2-0.2V0.7l0.2-0.2H90l0.2,0.2v5.7
		l0.2,0.2h5.3l0.2-0.2V0.7l0.2-0.2h3.7l0.2,0.2v15.5L99.8,16.5z"/>
	<path class="st0" d="M112.5,13.7l-0.5-0.2h-5.3l-0.5,0.2l-0.9,2.5l-0.2,0.2h-2.7l-0.2-0.2v-3l5-12.6l0.2-0.2h3.9l0.2,0.2l5,12.6v3
		l-0.2,0.2h-2.7l-0.2-0.2L112.5,13.7z M107.7,9.9l0.2,0.2h3l0.2-0.2l-1.6-4.3h-0.2L107.7,9.9z"/>
	<path class="st0" d="M130.2,3.9h-4.6l-0.2,0.2v12.1l-0.2,0.2h-3.7l-0.2-0.2V4.1L121,3.9h-4.6l-0.2-0.2v-3l0.2-0.2h13.7l0.2,0.2v3
		L130.2,3.9z"/>
	<path class="st0" d="M66.8,38.5h-3.7l-0.2-0.2V22.7l0.2-0.2h3.7l0.2,0.2v15.5L66.8,38.5z"/>
	<path class="st0" d="M77,32.3l-1.6-0.2c-4.8-0.7-5.7-3-5.7-5.3c0-2.5,2.1-4.6,6.6-4.6c4.1,0,6.6,1.6,6.6,4.8l-0.2,0.2H79l-0.2-0.2
		c0-0.9-0.7-1.6-2.5-1.6c-1.8,0-2.7,0.5-2.7,1.4s0.9,1.1,2.5,1.4l1.6,0.2c4.8,0.7,5.7,2.7,5.7,5.3c0,2.5-1.8,5-6.9,5
		c-4.6,0-7.1-1.8-7.1-5.3l0.2-0.2h3.7l0.2,0.2c0,1.4,0.9,2.1,3,2.1c1.8,0,3-0.5,3-1.6C79.5,32.8,78.6,32.5,77,32.3z"/>
	<path class="st0" d="M98.6,32.8v5.5l-0.2,0.2h-3.7l-0.2-0.2v-5.5L90,25.7v-3l0.2-0.2h2.1l0.5,0.2l3.7,6.2h0.5l3.7-6.2l0.5-0.2h2.1
		l0.2,0.2v3L98.6,32.8z"/>
	<path class="st0" d="M112.2,22.3c4.8,0,8,3,8,8.2c0,5.3-3.2,8.2-8,8.2c-4.8,0-8-3-8-8.2C104.2,25.2,107.4,22.3,112.2,22.3z
		 M112.2,35.3c2.5,0,3.9-1.6,3.9-4.8s-1.4-4.8-3.9-4.8c-2.5,0-3.9,1.6-3.9,4.8S109.7,35.3,112.2,35.3z"/>
	<path class="st0" d="M136.1,32.3c0,4.1-2.5,6.4-6.9,6.4s-6.9-2.3-6.9-6.4v-9.6l0.2-0.2h3.7l0.2,0.2v9.6c0,2.3,0.9,3,2.7,3
		c1.8,0,2.7-0.7,2.7-3v-9.6l0.2-0.2h3.7l0.2,0.2V32.3z"/>
	<path class="st0" d="M150.1,32.1v0.2l2.5,3v3l-0.2,0.2h-1.8l-0.5-0.2l-4.6-5.5l-0.5-0.2h-1.6l-0.2,0.2v5.5l-0.2,0.2h-3.7l-0.2-0.2
		V22.7l0.2-0.2h8c3.4,0,5.7,1.8,5.7,5C153.1,30,151.7,31.4,150.1,32.1z M147.4,25.9h-3.9l-0.2,0.2v2.7l0.2,0.2h3.9
		c0.9,0,1.6-0.2,1.6-1.6S148.3,25.9,147.4,25.9z"/>
	<path class="st0" d="M69.6,53.9L68,53.7c-4.8-0.7-5.7-3.1-5.7-5.5c0-2.6,2.1-4.8,6.7-4.8c4.1,0,6.7,1.7,6.7,5l-0.2,0.2h-3.7
		l-0.2-0.2c0-1-0.7-1.7-2.5-1.7c-1.8,0-2.8,0.5-2.8,1.4c0,1,0.9,1.2,2.5,1.4l1.6,0.2c4.8,0.7,5.7,2.9,5.7,5.5c0,2.6-1.8,5.2-6.9,5.2
		c-4.6,0-7.1-1.9-7.1-5.5l0.2-0.2h3.7l0.2,0.2c0,1.4,0.9,2.1,3,2.1c1.8,0,3-0.5,3-1.7C72.1,54.4,71.2,54.2,69.6,53.9z"/>
	<path class="st0" d="M91.1,47.2h-4.6l-0.2,0.2v12.6L86,60.3h-3.7l-0.2-0.2V47.5l-0.2-0.2h-4.6L77.1,47v-3.1l0.2-0.2h13.8l0.2,0.2
		V47L91.1,47.2z"/>
	<path class="st0" d="M100.1,43.4c4.8,0,8,3.1,8,8.6c0,5.5-3.2,8.6-8,8.6c-4.8,0-8-3.1-8-8.6C92.1,46.5,95.3,43.4,100.1,43.4z
		 M100.1,57c2.5,0,3.9-1.7,3.9-5c0-3.3-1.4-5-3.9-5c-2.5,0-3.9,1.7-3.9,5C96.2,55.3,97.6,57,100.1,57z"/>
	<path class="st0" d="M121.6,53.7v0.2l2.5,3.1v3.1l-0.2,0.2h-1.8l-0.5-0.2l-4.6-5.7l-0.5-0.2H115l-0.2,0.2v5.7l-0.2,0.2h-3.7
		l-0.2-0.2V43.9l0.2-0.2h8c3.4,0,5.7,1.9,5.7,5.2C124.6,51.5,123.2,53,121.6,53.7z M118.9,47.2H115l-0.2,0.2v2.9l0.2,0.2h3.9
		c0.9,0,1.6-0.2,1.6-1.7C120.5,47.5,119.8,47.2,118.9,47.2z"/>
	<path class="st0" d="M134.8,54.4v5.7l-0.2,0.2h-3.7l-0.2-0.2v-5.7l-4.6-7.4v-3.1l0.2-0.2h2.1l0.5,0.2l3.7,6.4h0.5l3.7-6.4l0.5-0.2
		h2.1l0.2,0.2V47L134.8,54.4z"/>
	<path class="st0" d="M148.9,54.2l-0.2,0.2h-3.2l-0.2-0.2c0.2-3.6,3.7-3.6,3.7-5.7c0-1-0.5-1.7-1.6-1.7c-1.4,0-1.8,0.7-1.8,2.1
		l-0.2,0.2h-3.7l-0.2-0.2c0-3.1,1.8-5.5,6-5.5c3.9,0,5.7,2.4,5.7,5C153.1,52,149.2,52.7,148.9,54.2z M149.2,60.3H145l-0.2-0.2v-3.8
		l0.2-0.2h4.1l0.2,0.2v3.8L149.2,60.3z"/>
</g>
<g>
	<path class="st0" d="M32.1,1.8V0.5l0.1-0.1H39l0.1,0.1v1.3L39,1.9h-6.8L32.1,1.8z"/>
	<path class="st0" d="M32.1,8.2V6.9l0.1-0.1h2.9C35.6,6.8,36,6.6,36,6c0-0.7-0.4-1.2-1.3-1.2h-2.5l-0.1-0.1V3.5l0.1-0.1H37l0.1,0.1
		v1.2L37,4.7l-0.3,0.1v0.1c0.2,0.2,0.5,0.6,0.5,1.4c0,1.3-0.8,2-2,2h-3L32.1,8.2z"/>
	<path class="st0" d="M33.6,11.4c-0.2,0-0.3,0.1-0.3,0.3v0.9l-0.1,0.1h-1l-0.1-0.1v-0.9c0-0.9,0.4-1.8,1.5-1.8h2.2l0.1-0.1V9.1L36,9
		h1l0.1,0.1v0.7l0.1,0.1h0.9l0.1,0.1v1.3l-0.1,0.1h-0.9l-0.1,0.1v1.2L37,12.8h-1l-0.1-0.1v-1.2l-0.1-0.1H33.6z"/>
	<path class="st0" d="M34.2,18.6l-0.1-0.1v-3.2L34,15.1c-0.2,0-0.8,0.2-0.8,1c0,0.3,0.1,0.6,0.3,0.7l0.1,0.1v1.3l-0.1,0.1
		c-0.6-0.1-1.5-0.6-1.5-2.2c0-1.8,1.2-2.6,2.6-2.6c1.4,0,2.6,0.8,2.6,2.5s-1.2,2.5-2.6,2.5H34.2z M35.2,17c0.1,0,0.8-0.1,0.8-0.9
		c0-0.8-0.7-0.9-0.8-0.9l-0.1,0.1v1.7L35.2,17z"/>
	<path class="st0" d="M35.9,22.9v-0.7c0-0.8-0.4-1.2-1.3-1.2h-2.4l-0.1-0.1v-1.3l0.1-0.1H37l0.1,0.1v1.2L37,20.9L36.7,21v0.1
		c0,0,0.4,0.2,0.4,1.2v0.6L37,23h-1L35.9,22.9z"/>
	<path class="st0" d="M32.1,28.6v-1.3l0.1-0.1h2.9c0.5,0,0.9-0.2,0.9-0.8c0-0.7-0.4-1.2-1.3-1.2h-2.5l-0.1-0.1v-1.3l0.1-0.1H37
		l0.1,0.1v1.2L37,25.2l-0.3,0.1v0.1c0.2,0.2,0.5,0.6,0.5,1.4c0,1.3-0.8,2-2,2h-3L32.1,28.6z"/>
	<path class="st0" d="M32.1,34.1v-1.2l0.1-0.1l0.2-0.1v-0.1c0,0-0.4-0.4-0.4-1.2c0-1.2,0.6-1.9,1.6-1.9c1.5,0,1.7,1.5,1.7,2.3
		c0,0.4-0.1,0.7-0.1,0.7l0.1,0.1h0.1c0.5,0,0.6-0.1,0.6-0.7c0-0.3,0-0.6-0.3-0.7l-0.1-0.1v-1.3l0.1-0.1c0.6,0,1.5,0.5,1.5,2.2
		c0,1.7-0.8,2.2-2.3,2.2h-2.7L32.1,34.1z M34.2,32.6c0,0,0.1-0.2,0.1-0.6c0-0.6-0.2-0.9-0.6-0.9c-0.3,0-0.5,0.2-0.5,0.7
		c0,0.5,0.3,0.9,0.7,0.9h0.2L34.2,32.6z"/>
	<path class="st0" d="M33.6,37.3c-0.2,0-0.3,0.1-0.3,0.3v0.9l-0.1,0.1h-1l-0.1-0.1v-0.9c0-0.9,0.4-1.8,1.5-1.8h2.2l0.1-0.1V35
		l0.1-0.1h1l0.1,0.1v0.7l0.1,0.1h0.9l0.1,0.1v1.3l-0.1,0.1h-0.9l-0.1,0.1v1.2L37,38.7h-1l-0.1-0.1v-1.2l-0.1-0.1H33.6z"/>
	<path class="st0" d="M32.1,41.1v-1.3l0.1-0.1H37l0.1,0.1v1.3L37,41.2h-4.8L32.1,41.1z M37.9,41.1v-1.3l0.1-0.1h1l0.1,0.1v1.3
		L39,41.2h-1L37.9,41.1z"/>
	<path class="st0" d="M32,44.8c0-1.6,1-2.6,2.6-2.6c1.6,0,2.6,1,2.6,2.6c0,1.6-1,2.6-2.6,2.6C33,47.4,32,46.3,32,44.8z M36,44.8
		c0-0.7-0.5-1.2-1.4-1.2c-0.9,0-1.4,0.4-1.4,1.2c0,0.7,0.5,1.2,1.4,1.2C35.5,45.9,36,45.5,36,44.8z"/>
	<path class="st0" d="M32.1,53.2v-1.3l0.1-0.1h2.9c0.5,0,0.9-0.2,0.9-0.8c0-0.7-0.4-1.2-1.3-1.2h-2.5l-0.1-0.1v-1.3l0.1-0.1H37
		l0.1,0.1v1.2L37,49.7l-0.3,0.1v0.1c0.2,0.2,0.5,0.6,0.5,1.4c0,1.3-0.8,2-2,2h-3L32.1,53.2z"/>
	<path class="st0" d="M32.1,58.6v-1.2l0.1-0.1l0.2-0.1v-0.1c0,0-0.4-0.4-0.4-1.2c0-1.2,0.6-1.9,1.6-1.9c1.5,0,1.7,1.5,1.7,2.3
		c0,0.4-0.1,0.7-0.1,0.7l0.1,0.1h0.1c0.5,0,0.6-0.1,0.6-0.7c0-0.3,0-0.6-0.3-0.7l-0.1-0.1v-1.3l0.1-0.1c0.6,0,1.5,0.5,1.5,2.2
		c0,1.7-0.8,2.2-2.3,2.2h-2.7L32.1,58.6z M34.2,57.1c0,0,0.1-0.2,0.1-0.6c0-0.6-0.2-0.9-0.6-0.9c-0.3,0-0.5,0.2-0.5,0.7
		c0,0.5,0.3,0.9,0.7,0.9h0.2L34.2,57.1z"/>
	<path class="st0" d="M32.1,61.2V60l0.1-0.1H39l0.1,0.1v1.3L39,61.3h-6.8L32.1,61.2z"/>
	<path class="st0" d="M22,3c0-2.1,1-3,2.3-3l0.1,0.1v1.3l-0.1,0.1c-0.7,0-1.1,0.4-1.1,1.7c0,0.9,0.3,1.5,0.9,1.5
		c0.7,0,0.9-0.4,1.1-1.9c0.2-1.5,0.7-2.6,2.1-2.6c1,0,1.9,0.8,1.9,2.8s-0.9,2.8-2.1,2.8L27,5.7V4.4l0.1-0.1C27.7,4.3,28,4,28,2.8
		c0-0.9-0.3-1.3-0.7-1.3c-0.6,0-0.8,0.4-1,1.9c-0.2,1.5-0.8,2.6-2.2,2.6C23,6.1,22,5.2,22,3z"/>
	<path class="st0" d="M22.1,12v-1.3l0.1-0.1h2.9c0.5,0,0.9-0.2,0.9-0.8c0-0.7-0.4-1.2-1.3-1.2h-2.5l-0.1-0.1V7.2l0.1-0.1H29l0.1,0.1
		v1.3L29,8.6h-2.3v0.1c0.2,0.2,0.5,0.6,0.5,1.4c0,1.3-0.8,2-2,2h-3L22.1,12z"/>
	<path class="st0" d="M22,15.6c0-1.6,1-2.6,2.6-2.6c1.6,0,2.6,1,2.6,2.6c0,1.6-1,2.6-2.6,2.6C23,18.2,22,17.2,22,15.6z M26,15.6
		c0-0.7-0.5-1.2-1.4-1.2c-0.9,0-1.4,0.4-1.4,1.2s0.5,1.2,1.4,1.2C25.5,16.8,26,16.4,26,15.6z"/>
	<path class="st0" d="M25.9,22.5v-0.7c0-0.8-0.4-1.2-1.3-1.2h-2.4l-0.1-0.1v-1.3l0.1-0.1H27l0.1,0.1v1.2L27,20.6l-0.3,0.1v0.1
		c0,0,0.4,0.2,0.4,1.2v0.6L27,22.6h-1L25.9,22.5z"/>
	<path class="st0" d="M23.6,25.5c-0.2,0-0.3,0.1-0.3,0.3v0.9l-0.1,0.1h-1l-0.1-0.1v-0.9c0-0.9,0.4-1.8,1.5-1.8h2.2l0.1-0.1v-0.7
		l0.1-0.1h1l0.1,0.1v0.7l0.1,0.1h0.9l0.1,0.1v1.3l-0.1,0.1h-0.9l-0.1,0.1v1.2L27,26.8h-1l-0.1-0.1v-1.2l-0.1-0.1H23.6z"/>
	<path class="st0" d="M27.9,35.7v-3.2l-0.1-0.1h-1.5l-0.1,0.1v3l-0.1,0.1h-1L25,35.4v-3l-0.1-0.1h-2.7l-0.1-0.1v-1.3l0.1-0.1H29
		l0.1,0.1v4.7L29,35.8h-1L27.9,35.7z"/>
	<path class="st0" d="M22.1,38.2v-1.3l0.1-0.1H27l0.1,0.1v1.3L27,38.3h-4.8L22.1,38.2z M27.9,38.2v-1.3l0.1-0.1h1l0.1,0.1v1.3
		L29,38.3h-1L27.9,38.2z"/>
	<path class="st0" d="M22.1,40.9v-1.3l0.1-0.1H29l0.1,0.1v1.3L29,41h-6.8L22.1,40.9z"/>
	<path class="st0" d="M22.1,50.1v-1.3l0.1-0.1h2.9c0.5,0,0.9-0.2,0.9-0.8S25.6,47,24.9,47h-2.7l-0.1-0.1v-1.3l0.1-0.1h2.9
		c0.5,0,0.9-0.2,0.9-0.8s-0.4-0.9-1.1-0.9h-2.7l-0.1-0.1v-1.3l0.1-0.1H27l0.1,0.1v1.2L27,43.6l-0.3,0.1v0.1c0,0,0.5,0.3,0.5,1.3
		c0,0.8-0.4,1.3-0.7,1.5v0.1c0,0,0.7,0.4,0.7,1.6c0,1.3-0.7,2-2,2h-3L22.1,50.1z"/>
	<path class="st0" d="M17.9,5.2V2l-0.1-0.1h-1.5L16.2,2v3l-0.1,0.1h-1L15,5V2l-0.1-0.1h-2.7l-0.1-0.1V0.5l0.1-0.1H19l0.1,0.1v4.7
		L19,5.3h-1L17.9,5.2z"/>
	<path class="st0" d="M14.2,11.1L14.1,11V7.8L14,7.7c-0.2,0-0.8,0.2-0.8,1c0,0.3,0.1,0.6,0.3,0.7l0.1,0.1v1.3l-0.1,0.1
		c-0.6-0.1-1.5-0.6-1.5-2.2c0-1.8,1.2-2.6,2.6-2.6c1.4,0,2.6,0.8,2.6,2.5s-1.2,2.5-2.6,2.5H14.2z M15.2,9.5c0.1,0,0.8-0.1,0.8-0.9
		c0-0.8-0.7-0.9-0.8-0.9l-0.1,0.1v1.7L15.2,9.5z"/>
	<path class="st0" d="M12,14c0-1.5,0.7-2.3,1.7-2.3l0.1,0.1v1.3l-0.1,0.1c-0.4,0-0.5,0.3-0.5,0.8c0,0.5,0.1,0.8,0.4,0.8
		c0.4,0,0.4-0.4,0.5-1s0.4-2,1.6-2c0.8,0,1.5,0.6,1.5,2.2c0,1.3-0.5,2.2-1.5,2.2l-0.1-0.1v-1.3l0.1-0.1c0.2,0,0.3-0.2,0.3-0.7
		c0-0.5-0.1-0.7-0.4-0.7c-0.4,0-0.4,0.6-0.5,1.3c-0.1,0.6-0.3,1.8-1.5,1.8C12.8,16.4,12,15.7,12,14z"/>
	<path class="st0" d="M13.6,19.3c-0.2,0-0.3,0.1-0.3,0.3v0.9l-0.1,0.1h-1l-0.1-0.1v-0.9c0-0.9,0.4-1.8,1.5-1.8h2.2l0.1-0.1V17
		l0.1-0.1h1l0.1,0.1v0.7l0.1,0.1h0.9l0.1,0.1v1.3l-0.1,0.1h-0.9l-0.1,0.1v1.2L17,20.7h-1l-0.1-0.1v-1.2l-0.1-0.1H13.6z"/>
	<path class="st0" d="M12.1,23.1v-1.3l0.1-0.1H17l0.1,0.1v1.3L17,23.2h-4.8L12.1,23.1z M17.9,23.1v-1.3l0.1-0.1h1l0.1,0.1v1.3
		L19,23.2h-1L17.9,23.1z"/>
	<path class="st0" d="M12.2,27.3l-0.1-0.1V26l0.1-0.1l3.8-1.8h1l0.1,0.1v0.9L17,25.3l-3.1,1.3v0.1l3.1,1.3l0.1,0.1v0.9L17,29h-1
		L12.2,27.3z"/>
	<path class="st0" d="M12.1,34.2V33l0.1-0.1l0.2-0.1v-0.1c0,0-0.4-0.4-0.4-1.2c0-1.2,0.6-1.9,1.6-1.9c1.5,0,1.7,1.5,1.7,2.3
		c0,0.4-0.1,0.7-0.1,0.7l0.1,0.1h0.1c0.5,0,0.6-0.1,0.6-0.7c0-0.3,0-0.6-0.3-0.7l-0.1-0.1V30l0.1-0.1c0.6,0,1.5,0.5,1.5,2.2
		c0,1.7-0.8,2.2-2.3,2.2h-2.7L12.1,34.2z M14.2,32.7c0,0,0.1-0.2,0.1-0.6c0-0.6-0.2-0.9-0.6-0.9c-0.3,0-0.5,0.2-0.5,0.7
		c0,0.5,0.3,0.9,0.7,0.9h0.2L14.2,32.7z"/>
	<path class="st0" d="M12.1,36.8v-1.3l0.1-0.1H19l0.1,0.1v1.3L19,36.9h-6.8L12.1,36.8z"/>
	<path class="st0" d="M9.1,0.5V2L9,2.2L4.4,5v0.1H9l0.1,0.1v1.3L9,6.6H2.2L2.1,6.5V5l0.1-0.2L6.8,2V1.9H2.2L2.1,1.8V0.5l0.1-0.1H9
		L9.1,0.5z"/>
	<path class="st0" d="M2.1,9.4V8.2l0.1-0.1H7l0.1,0.1v1.3L7,9.5H2.2L2.1,9.4z M7.9,9.4V8.2L8,8.1h1l0.1,0.1v1.3L9,9.5H8L7.9,9.4z"/>
	<path class="st0" d="M1.9,12.3c-1.2,0-1.6-0.6-1.6-1.8V9.9l0.1-0.1h1l0.1,0.1v0.5c0,0.3,0.1,0.4,0.4,0.4H7l0.1,0.1v1.3L7,12.3H1.9z
		 M7.9,12.2v-1.3L8,10.8h1l0.1,0.1v1.3L9,12.3H8L7.9,12.2z"/>
	<path class="st0" d="M2.1,21.4v-1.3L2.2,20h2.9C5.6,20,6,19.8,6,19.2s-0.4-0.9-1.1-0.9H2.2l-0.1-0.1v-1.3l0.1-0.1h2.9
		c0.5,0,0.9-0.2,0.9-0.8S5.6,15,4.9,15H2.2l-0.1-0.1v-1.3l0.1-0.1H7l0.1,0.1v1.2L7,14.9L6.7,15v0.1c0,0,0.5,0.3,0.5,1.3
		c0,0.8-0.4,1.3-0.7,1.5v0.1c0,0,0.7,0.4,0.7,1.6c0,1.3-0.7,2-2,2h-3L2.1,21.4z"/>
	<path class="st0" d="M4.2,27.4l-0.1-0.1V24L4,23.9c-0.2,0-0.8,0.2-0.8,1c0,0.3,0.1,0.6,0.3,0.7l0.1,0.1v1.3l-0.1,0.1
		C2.9,27.1,2,26.5,2,25c0-1.8,1.2-2.6,2.6-2.6c1.4,0,2.6,0.8,2.6,2.5c0,1.7-1.2,2.5-2.6,2.5H4.2z M5.2,25.8c0.1,0,0.8-0.1,0.8-0.9
		s-0.7-0.9-0.8-0.9L5.1,24v1.7L5.2,25.8z"/>
	<path class="st0" d="M2.6,33.2c-1.8,0-2.6-1.2-2.6-2.6c0-1.3,0.6-2.1,1.5-2.2l0.1,0.1v1.3l-0.1,0.1c-0.2,0.1-0.3,0.3-0.3,0.7
		c0,0.7,0.4,1.2,1.3,1.2v-0.1c0,0-0.5-0.4-0.5-1.4C2,29,3,28,4.6,28c1.6,0,2.6,1,2.6,2.3c0,0.9-0.5,1.4-0.5,1.4v0.1L7,31.9L7.1,32
		v1.2L7,33.2H2.6z M3.2,30.6c0,0.8,0.6,1.2,1.4,1.2c0.8,0,1.4-0.3,1.4-1.2c0-0.8-0.6-1.2-1.4-1.2C3.8,29.5,3.2,29.8,3.2,30.6z"/>
	<path class="st0" d="M4.2,39.2l-0.1-0.1v-3.2L4,35.8c-0.2,0-0.8,0.2-0.8,1c0,0.3,0.1,0.6,0.3,0.7l0.1,0.1v1.3L3.5,39
		C2.9,38.9,2,38.4,2,36.8c0-1.8,1.2-2.6,2.6-2.6c1.4,0,2.6,0.8,2.6,2.5c0,1.7-1.2,2.5-2.6,2.5H4.2z M5.2,37.6c0.1,0,0.8-0.1,0.8-0.9
		c0-0.8-0.7-0.9-0.8-0.9l-0.1,0.1v1.7L5.2,37.6z"/>
	<path class="st0" d="M2.1,45v-1.3l0.1-0.1h2.9c0.5,0,0.9-0.2,0.9-0.8c0-0.7-0.4-1.2-1.3-1.2H2.2l-0.1-0.1v-1.3l0.1-0.1H7l0.1,0.1
		v1.2L7,41.5l-0.3,0.1v0.1c0.2,0.2,0.5,0.6,0.5,1.4c0,1.3-0.8,2-2,2h-3L2.1,45z"/>
</g>
</svg>
