<?xml version="1.0" encoding="utf-8"?>
<!-- Generator: Adobe Illustrator 24.3.0, SVG Export Plug-In . SVG Version: 6.00 Build 0)  -->
<svg version="1.1" id="Laag_1" xmlns="http://www.w3.org/2000/svg" xmlns:xlink="http://www.w3.org/1999/xlink" x="0px" y="0px"
	 width="628.3px" height="215px" viewBox="0 0 628.3 215" style="enable-background:new 0 0 628.3 215;" xml:space="preserve">
<style type="text/css">
	.st0{fill:#E5262B;}
</style>
<g>
	<path class="st0" d="M37,93.7H15.8l-1.3-1.3V2.6l1.3-1.3H37l1.3,1.3v89.8L37,93.7z"/>
	<path class="st0" d="M130.7,21.1h-26.4l-1.3,1.3v70l-1.3,1.3H80.5l-1.3-1.3v-70l-1.3-1.3H51.5l-1.3-1.3V2.6l1.3-1.3h79.2l1.3,1.3
		v17.2L130.7,21.1z"/>
	<path class="st0" d="M170.3,29l-13.2,15.8l-2.6,1.3h-10.6v-2.6l10.6-15.8v-1.3l-1.3-1.3h-6.6l-1.3-1.3V2.6l1.3-1.3h23.8l1.3,1.3
		v22.4L170.3,29z"/>
	<path class="st0" d="M227,58.1l-9.2-1.3c-27.7-4-33-17.2-33-30.4c0-14.5,11.9-26.4,38.3-26.4c23.8,0,38.3,9.2,38.3,27.7L260,29
		h-21.1l-1.3-1.3c0-5.3-4-9.2-14.5-9.2c-10.6,0-15.8,2.6-15.8,7.9c0,5.3,5.3,6.6,14.5,7.9l9.2,1.3c27.7,4,33,15.8,33,30.4
		s-10.6,29-39.6,29c-26.4,0-40.9-10.6-40.9-30.4l1.3-1.3h21.1l1.3,1.3c0,7.9,5.3,11.9,17.2,11.9c10.6,0,17.2-2.6,17.2-9.2
		S236.3,59.4,227,58.1z"/>
	<path class="st0" d="M380.2,21.1h-26.4l-1.3,1.3v70l-1.3,1.3H330l-1.3-1.3v-70l-1.3-1.3H301l-1.3-1.3V2.6l1.3-1.3h79.2l1.3,1.3
		v17.2L380.2,21.1z"/>
	<path class="st0" d="M415.8,93.7h-21.1l-1.3-1.3V2.6l1.3-1.3h21.1l1.3,1.3v89.8L415.8,93.7z"/>
	<path class="st0" d="M538.6,93.7h-21.1l-1.3-1.3V50.2h-1.3l-17.2,42.2l-1.3,1.3h-17.2l-1.3-1.3l-17.2-42.2h-1.3v42.2l-1.3,1.3
		h-21.1l-1.3-1.3V2.6l1.3-1.3H462l1.3,1.3L487.1,62h1.3l23.8-59.4l1.3-1.3h25.1l1.3,1.3v89.8L538.6,93.7z"/>
	<path class="st0" d="M627,93.7h-67.3l-1.3-1.3V2.6l1.3-1.3H627l1.3,1.3v17.2l-1.3,1.3h-43.6l-1.3,1.3v13.2l1.3,1.3h40.9l1.3,1.3
		v17.2l-1.3,1.3h-40.9l-1.3,1.3v14.5l1.3,1.3H627l1.3,1.3v17.2L627,93.7z"/>
	<path class="st0" d="M80.5,141.1H54.1l-1.3,1.3v70l-1.3,1.3H30.4l-1.3-1.3v-70l-1.3-1.3H1.3L0,139.8v-17.2l1.3-1.3h79.2l1.3,1.3
		v17.2L80.5,141.1z"/>
	<path class="st0" d="M132,120c27.7,0,46.2,17.2,46.2,47.5c0,30.4-18.5,47.5-46.2,47.5c-27.7,0-46.2-17.2-46.2-47.5
		C85.8,137.2,104.3,120,132,120z M132,195.2c14.5,0,22.4-9.2,22.4-27.7s-7.9-27.7-22.4-27.7c-14.5,0-22.4,9.2-22.4,27.7
		S117.5,195.2,132,195.2z"/>
	<path class="st0" d="M274.6,213.7h-51.5l-1.3-1.3v-89.8l1.3-1.3h48.8c13.2,0,26.4,6.6,26.4,23.8c0,9.2-4,17.2-13.2,19.8v1.3
		c10.6,2.6,15.8,10.6,15.8,22.4C301,207.1,287.8,213.7,274.6,213.7z M265.3,141.1h-18.5l-1.3,1.3v13.2l1.3,1.3h18.5
		c7.9,0,9.2-4,9.2-7.9S273.2,141.1,265.3,141.1z M265.3,175.4h-18.5l-1.3,1.3v15.8l1.3,1.3h18.5c9.2,0,11.9-2.6,11.9-9.2
		C277.2,178.1,274.6,175.4,265.3,175.4z"/>
	<path class="st0" d="M336.6,213.7h-21.1l-1.3-1.3v-89.8l1.3-1.3h21.1l1.3,1.3v89.8L336.6,213.7z"/>
	<path class="st0" d="M357.7,121.3h22.4l2.6,1.3l31.7,50.2h1.3v-50.2l1.3-1.3h21.1l1.3,1.3v89.8l-1.3,1.3h-22.4l-2.6-1.3l-31.7-50.2
		h-1.3v50.2l-1.3,1.3h-21.1l-1.3-1.3v-89.8L357.7,121.3z"/>
	<path class="st0" d="M476.5,167.5c0,22.4,10.6,27.7,23.8,27.7s18.5-7.9,18.5-14.5l-1.3-1.3h-21.1l-1.3-1.3v-15.8l1.3-1.3h44.9
		l1.3,1.3v50.2l-1.3,1.3H524l-1.3-1.3l-1.3-5.3h-1.3c-2.6,2.6-9.2,7.9-22.4,7.9c-26.4,0-44.9-17.2-44.9-47.5
		c0-30.4,18.5-47.5,47.5-47.5c23.8,0,38.3,11.9,42.2,29l-1.3,1.3h-22l-1.7-1.3c-2.6-5.3-6.6-9.2-17.2-9.2
		C485.8,139.8,476.5,146.4,476.5,167.5z"/>
	<path class="st0" d="M627,213.7h-67.3l-1.3-1.3v-89.8l1.3-1.3H627l1.3,1.3v17.2l-1.3,1.3h-43.6l-1.3,1.3v13.2l1.3,1.3h40.9l1.3,1.3
		v17.2l-1.3,1.3h-40.9l-1.3,1.3v14.5l1.3,1.3H627l1.3,1.3v17.2L627,213.7z"/>
</g>
</svg>
