<?xml version="1.0" encoding="utf-8"?>
<!-- Generator: Adobe Illustrator 24.0.0, SVG Export Plug-In . SVG Version: 6.00 Build 0)  -->
<svg version="1.1" id="Laag_1" xmlns="http://www.w3.org/2000/svg" xmlns:xlink="http://www.w3.org/1999/xlink" x="0px" y="0px"
	 width="98.6px" height="12.1px" viewBox="0 0 98.6 12.1" style="enable-background:new 0 0 98.6 12.1;" xml:space="preserve">
<g>
	<path d="M17.9,10.6l-2.1-4.2l0,0v4.1H14v-9h1.8v3.7l0,0l1.8-3.7h2l-2.2,4.3l2.5,4.7h-2V10.6z"/>
	<path d="M26.3,8.1c0,0.4-0.1,0.7-0.2,1.1c-0.1,0.4-0.3,0.6-0.6,0.9c-0.2,0.2-0.5,0.4-0.9,0.6c-0.3,0.1-0.7,0.2-1.1,0.2
		c-0.4,0-0.7-0.1-1.1-0.2c-0.3-0.1-0.6-0.3-0.9-0.6s-0.3-0.6-0.4-0.9s-0.2-0.7-0.2-1.1V4c0-0.4,0.1-0.7,0.2-1.1
		c0.1-0.4,0.3-0.6,0.6-0.9c0.2-0.2,0.5-0.4,0.9-0.6c0.3-0.1,0.7-0.2,1.1-0.2c0.4,0,0.7,0.1,1.1,0.2c0.3,0.1,0.6,0.3,0.9,0.6
		c0.2,0.2,0.4,0.5,0.6,0.9s0.2,0.7,0.2,1.1v4.1H26.3z M24.6,4c0-0.3-0.1-0.5-0.3-0.7C24.1,3.1,23.9,3,23.6,3c-0.3,0-0.5,0.1-0.7,0.3
		c-0.2,0.2-0.3,0.4-0.3,0.7v4.1c0,0.3,0.1,0.5,0.3,0.7c0.2,0.2,0.4,0.3,0.7,0.3c0.3,0,0.5-0.1,0.7-0.3c0.2-0.2,0.3-0.4,0.3-0.7V4z"
		/>
	<path d="M33.4,8.1c0,0.4-0.1,0.7-0.2,1.1c-0.1,0.4-0.3,0.6-0.6,0.9c-0.2,0.2-0.5,0.4-0.9,0.6c-0.3,0.1-0.7,0.2-1.1,0.2
		s-0.7-0.1-1.1-0.2c-0.3-0.1-0.6-0.3-0.9-0.6S28.2,9.6,28,9.2s-0.2-0.7-0.2-1.1V4c0-0.4,0.1-0.7,0.2-1.1s0.3-0.6,0.6-0.9
		c0.2-0.2,0.5-0.4,0.9-0.6c0.3-0.1,0.7-0.2,1.1-0.2s0.7,0.1,1.1,0.2C32,1.5,32.3,1.7,32.6,2c0.2,0.2,0.4,0.5,0.6,0.9
		s0.2,0.7,0.2,1.1V8.1z M31.6,4c0-0.3-0.1-0.5-0.3-0.7C31.2,3.1,30.9,3,30.7,3S30.2,3.1,30,3.3S29.7,3.7,29.7,4v4.1
		c0,0.3,0.1,0.5,0.3,0.7c0.1,0.2,0.4,0.3,0.6,0.3c0.3,0,0.5-0.1,0.7-0.3s0.3-0.4,0.3-0.7V4z"/>
	<path d="M40.7,4.5c0,0.4-0.1,0.8-0.2,1.1c-0.2,0.3-0.4,0.6-0.6,0.9C39.6,6.8,39.3,7,39,7.1c-0.4,0.2-0.7,0.2-1.1,0.2h-1.1v3.2H35
		v-9h2.9c0.4,0,0.8,0.1,1.1,0.2c0.3,0.2,0.7,0.4,0.9,0.6c0.2,0.2,0.5,0.6,0.6,0.9C40.6,3.5,40.7,4.1,40.7,4.5z M39,4.5
		c0-0.2,0-0.3-0.1-0.4c-0.1-0.1-0.1-0.3-0.2-0.4c-0.1-0.1-0.2-0.2-0.4-0.2c-0.1-0.1-0.3-0.1-0.4-0.1h-1.1v2.2h1.1
		c0.2,0,0.3,0,0.4-0.1c0.1-0.1,0.3-0.1,0.4-0.2c0.1-0.1,0.2-0.2,0.2-0.4S39,4.6,39,4.5z"/>
	<path d="M47.9,3.3v7.2h-1.8V3.3h-1.7V1.6h5.2v1.8h-1.7V3.3z"/>
	<path d="M50.4,10.6v-9h1.8v9H50.4z"/>
	<path d="M59.2,8.1c0,0.4-0.1,0.7-0.2,1.1c-0.1,0.3-0.3,0.6-0.6,0.8s-0.5,0.4-0.9,0.6c-0.3,0.1-0.7,0.2-1.1,0.2
		c-0.4,0-0.7-0.1-1.1-0.2c-0.3-0.1-0.6-0.3-0.9-0.6S54,9.5,53.8,9.1S53.6,8.4,53.6,8V4c0-0.4,0.1-0.7,0.2-1.1s0.3-0.6,0.6-0.9
		c0.2-0.2,0.5-0.4,0.9-0.6c0.3-0.1,0.7-0.2,1.1-0.2s0.7,0.1,1.1,0.2c0.3,0.1,0.6,0.3,0.9,0.6c0.2,0.2,0.4,0.5,0.6,0.9
		c0.1,0.3,0.2,0.7,0.2,1.1v0.8h-1.8V4c0-0.3-0.1-0.5-0.3-0.7C57,3.1,56.8,3,56.5,3c-0.3,0-0.5,0.1-0.7,0.3S55.5,3.7,55.5,4v4.1
		c0,0.3,0.1,0.5,0.3,0.7s0.4,0.3,0.7,0.3S57,9,57.2,8.8s0.2-0.4,0.2-0.7V7.3h1.8V8.1z"/>
	<path d="M64.7,10.6l-2.1-4.1l0,0v4.1h-1.8v-9h1.8v3.7l0,0l1.8-3.7h2l-2.2,4.3l2.5,4.7H64.7z"/>
	<path d="M67.7,10.6v-9h4.4v1.8h-2.6v1.8h2.6V7h-2.6v1.8h2.6v1.8H67.7z"/>
	<path d="M76.4,3.3v7.2h-1.8V3.3h-1.7V1.6h5.2v1.8h-1.7V3.3z"/>
	<path d="M84.6,7.9c0,0.4-0.1,0.8-0.2,1.1c-0.1,0.4-0.3,0.7-0.6,0.9c-0.3,0.3-0.6,0.5-0.9,0.6c-0.4,0.2-0.8,0.2-1.2,0.2
		c-0.4,0-0.7-0.1-1.1-0.2c-0.3-0.1-0.6-0.3-0.9-0.6S79.3,9.4,79.1,9c-0.1-0.3-0.2-0.7-0.2-1.1V7.3h1.8v0.8c0,0.3,0.1,0.5,0.3,0.7
		c0.2,0.2,0.4,0.3,0.7,0.3c0.4,0,0.7-0.1,0.8-0.3c0.2-0.2,0.3-0.5,0.3-0.9c0-0.2,0-0.3-0.1-0.5c-0.1-0.1-0.1-0.2-0.2-0.3
		c-0.1,0-0.3-0.1-0.4-0.1c-0.1,0-0.3-0.1-0.5-0.1c-0.4-0.1-0.8-0.2-1.1-0.3c-0.3-0.1-0.6-0.3-0.9-0.6c-0.2-0.2-0.4-0.5-0.6-0.8
		c-0.1-0.3-0.2-0.7-0.2-1.1S78.9,3.4,79,3c0.1-0.3,0.3-0.6,0.6-0.9c0.2-0.3,0.5-0.5,0.9-0.6c0.3-0.1,0.7-0.2,1.1-0.2
		s0.7,0.1,1.1,0.2c0.3,0.1,0.6,0.3,0.9,0.6C83.8,2.3,84,2.6,84.2,3c0.1,0.3,0.2,0.6,0.2,1v0.5h-1.8V4c0-0.3-0.1-0.5-0.3-0.7
		C82.2,3.1,82,3,81.7,3c-0.3,0-0.5,0.1-0.7,0.3S80.7,3.7,80.7,4c0,0.2,0,0.4,0.1,0.5s0.1,0.2,0.2,0.3c0.1,0.1,0.2,0.1,0.3,0.2
		c0.1,0,0.3,0.1,0.5,0.1c0.4,0.1,0.7,0.2,1.1,0.3c0.3,0.1,0.6,0.3,0.9,0.6c0.3,0.2,0.5,0.5,0.6,0.8S84.6,7.5,84.6,7.9z"/>
</g>
</svg>
