<?xml version="1.0" encoding="utf-8"?>
<!-- Generator: Adobe Illustrator 24.0.0, SVG Export Plug-In . SVG Version: 6.00 Build 0)  -->
<svg version="1.1" id="Laag_1" xmlns="http://www.w3.org/2000/svg" xmlns:xlink="http://www.w3.org/1999/xlink" x="0px" y="0px"
	 width="630.5px" height="76.7px" viewBox="0 0 630.5 76.7" style="enable-background:new 0 0 630.5 76.7;" xml:space="preserve">
<style type="text/css">
	.st0{fill:#FCF4F7;}
</style>
<g>
	<path class="st0" d="M187,32.4v-1.5l2.5-0.3V4.5c-4.4,0-6.3,3.2-7.9,6.9l-1.2-0.2l1.6-8.9c0.8,0.3,1.6,0.4,2.4,0.5
		c0.8,0.1,1.7,0.1,2.9,0.1h8.6c2.3,0,3.6-0.1,5.3-0.6l1.6,8.9l-1.2,0.2c-1.6-3.7-3.5-6.9-7.9-6.9v26.1l2.5,0.3v1.5H187z"/>
	<path class="st0" d="M205.7,23.2c0.1,2.9,2,7,5.8,7c2.4,0,3.8-1.3,5.1-3.4l1.1,0.7c-1.3,3-3.8,5.5-7.4,5.5c-5.5,0-8.2-4.9-8.2-9.8
		c0-7,3.7-11.5,7.8-11.5c4.7,0,6.8,3.9,7.4,8.1L205.7,23.2z M211.1,19.7c1.3-0.4,2.2-0.8,2.2-2.7c0-1.6-0.8-3.8-3.2-3.8
		c-3.6,0-4.6,3.4-4.6,5.9c0,1.3,0,1.7,0,2.1L211.1,19.7z"/>
	<path class="st0" d="M220.8,32.4v-1.3l2.1-0.3V17.2c0-2.2-0.7-2.6-2.2-2.6v-1.1l4.3-1.8c0.5,1.1,1.1,2.2,1.3,3.2
		c1.9-1.6,3-3.2,6.4-3.2c4,0,6.6,2.3,6.6,7.5v11.6l2.1,0.3v1.3h-7.6v-1.3l2.1-0.3V19.4c0-3.1-1.3-5.2-4.4-5.2
		c-2.3,0-3.7,1.1-5.2,2.9v13.8l2.1,0.3v1.3H220.8z"/>
	<path class="st0" d="M255.4,12.3v1.8h-5.5v13.2c0,2.4,0.8,3.2,2.9,3.2c1,0,2.2-0.8,3.3-1.6l0.6,1.3c-1.8,1.7-3.4,2.7-6,2.7
		c-2.7,0-4.2-2.1-4.2-6V14.2h-2.6v-1.8h2.7V6.8l3.4-2.8v8.3H255.4z"/>
	<path class="st0" d="M267.5,11.7c5.5,0,9,5.7,9,10.7c0,5-3.5,10.6-9,10.6s-9-5.6-9-10.6C258.5,17.4,262,11.7,267.5,11.7z
		 M262.3,22.4c0,5,1.3,9.1,5.1,9.1c3.8,0,5.1-4.1,5.1-9.1c0-5-1.3-9.2-5.1-9.2C263.7,13.2,262.3,17.4,262.3,22.4z"/>
	<path class="st0" d="M288.7,11.7c5.5,0,9,5.7,9,10.7c0,5-3.5,10.6-9,10.6c-5.5,0-9-5.6-9-10.6C279.7,17.4,283.2,11.7,288.7,11.7z
		 M283.6,22.4c0,5,1.3,9.1,5.1,9.1c3.8,0,5.1-4.1,5.1-9.1c0-5-1.3-9.2-5.1-9.2C284.9,13.2,283.6,17.4,283.6,22.4z"/>
	<path class="st0" d="M301,32.4v-1.3l2.1-0.3V17.2c0-2.2-0.7-2.6-2.2-2.6v-1.1l4.3-1.8c0.5,1.1,1.1,2.2,1.3,3.2
		c1.9-1.6,3-3.2,6.4-3.2c4,0,6.6,2.3,6.6,7.5v11.6l2.1,0.3v1.3H314v-1.3l2.1-0.3V19.4c0-3.1-1.3-5.2-4.4-5.2c-2.3,0-3.7,1.1-5.2,2.9
		v13.8l2.1,0.3v1.3H301z"/>
	<path class="st0" d="M330.4,33c-3.3,0-6.3-1.6-6.3-3.7c0-1.4,0.8-2.2,2-2.2c3.2,0,1.3,4.3,4.5,4.3c2.3,0,4.4-1.1,4.4-3.3
		c0-5.3-9.7-4.3-9.7-10.7c0-3.5,2.8-5.8,7.6-5.8c2.4,0,3.7,1,3.7,2.4c0,1.4-0.8,2-2.1,2c-2,0-1.9-2.8-3.4-2.8
		c-1.7,0-2.9,1.2-2.9,2.9c0,4.7,9.7,3.1,9.7,10.8C337.7,30.1,335,33,330.4,33z"/>
	<path class="st0" d="M352.2,12.3v1.8h-5.5v13.2c0,2.4,0.8,3.2,2.9,3.2c1,0,2.2-0.8,3.3-1.6l0.6,1.3c-1.9,1.7-3.4,2.7-6,2.7
		c-2.7,0-4.2-2.1-4.2-6V14.2h-2.6v-1.8h2.7V6.8l3.4-2.8v8.3H352.2z"/>
	<path class="st0" d="M359.1,23.2c0.1,2.9,2,7,5.8,7c2.4,0,3.8-1.3,5.1-3.4l1.1,0.7c-1.3,3-3.8,5.5-7.4,5.5c-5.5,0-8.2-4.9-8.2-9.8
		c0-7,3.7-11.5,7.8-11.5c4.7,0,6.8,3.9,7.4,8.1L359.1,23.2z M364.5,19.7c1.3-0.4,2.2-0.8,2.2-2.7c0-1.6-0.8-3.8-3.2-3.8
		c-3.6,0-4.6,3.4-4.6,5.9c0,1.3,0,1.7,0,2.1L364.5,19.7z"/>
	<path class="st0" d="M380.3,0.9c0,0.9-0.1,1.6-0.1,2.6v27.3l2.1,0.3v1.3h-7.6v-1.3l2.1-0.3V7.6c0-2.9-0.4-3.7-1.3-3.7
		c-0.3,0-0.6,0-1.1,0.2V2.9L380.3,0.9z"/>
	<path class="st0" d="M392.2,0.9c0,0.9-0.1,1.6-0.1,2.6v27.3l2.1,0.3v1.3h-7.6v-1.3l2.1-0.3V7.6c0-2.9-0.4-3.7-1.3-3.7
		c-0.3,0-0.6,0-1.1,0.2V2.9L392.2,0.9z"/>
	<path class="st0" d="M398.5,32.4v-1.3l2.1-0.3V18.4c0-2.9-0.4-3.7-1.3-3.7c-0.3,0-0.6,0-1.1,0.2v-1.3l5.8-1.9
		c0,0.9-0.1,1.6-0.1,2.6v16.6l2.1,0.3v1.3H398.5z M404.6,4.5c0,1.2-0.8,2.2-2.3,2.2c-1.5,0-2.3-1-2.3-2.2c0-1.2,0.8-2.2,2.3-2.2
		C403.8,2.3,404.6,3.3,404.6,4.5z"/>
	<path class="st0" d="M409.9,32.4v-1.3l2.1-0.3V17.2c0-2.2-0.7-2.6-2.2-2.6v-1.1l4.3-1.8c0.5,1.1,1.1,2.2,1.3,3.2
		c1.9-1.6,3-3.2,6.4-3.2c4,0,6.6,2.3,6.6,7.5v11.6l2.1,0.3v1.3h-7.6v-1.3l2.1-0.3V19.4c0-3.1-1.3-5.2-4.4-5.2
		c-2.3,0-3.7,1.1-5.2,2.9v13.8l2.1,0.3v1.3H409.9z"/>
	<path class="st0" d="M433.1,35.8c0-1.9,2.3-2.9,3.7-3.8c-1.1-0.3-3.1-0.3-3.1-2.1c0-1.7,3.2-3.7,4.3-4.7c-2.4-1.3-3.9-3.3-3.9-6.2
		c0-4.2,3.4-7.3,7.7-7.3h1.4c1.7-1.7,3.7-4,6.3-4c1.3,0,2.2,0.9,2.2,1.9c0,1.3-0.7,2.1-2.2,2.1c-0.9,0-1.8-0.7-2.3-1.3
		c-1.1,0-1.6,1-2.4,1.6c3,1,5.3,3.4,5.3,6.8c0,4.4-3.6,7.5-8.2,7.5c-0.8,0-1.7-0.1-2.4-0.3c-0.4,0.3-2.1,1.3-2.1,1.9
		c0,0.8,1.5,1.2,6.2,1.2c5.1,0,8.1,1.6,8.1,5.2c0,3.4-3.1,5.6-10.6,5.6C438,39.9,433.1,39.6,433.1,35.8z M449.1,34.9
		c0-1-0.8-1.6-1.7-1.9c-1.9-0.7-4.4-0.7-8.7-0.7c-0.6,0.1-2.2,1.8-2.2,3c0,2.8,2.8,3.1,5.2,3.1C445.5,38.4,449.1,37.9,449.1,34.9z
		 M442.2,24.7c3.3,0,4.6-3.2,4.6-5.9c0-3.4-1.7-5.6-4.6-5.6c-3.3,0-4.6,2.9-4.6,5.6C437.6,21.1,438.9,24.7,442.2,24.7z"/>
</g>
<g>
	<path class="st0" d="M131.7,70.3c-0.6-0.2-1.1-0.4-1.8-0.5c-0.7-0.1-1.5-0.1-2.4-0.1h-8.7v-1.9c1.8-2.9,3.9-5.6,6.3-8.1
		c2.6-2.7,5-5.4,5-8.5c0-3.4-2.1-5.5-4.5-5.5c-1.7,0-3.5,0.8-3.5,2.3c0,0.7,1.1,1.2,1.1,2.7c0,0.9-0.3,2.1-1.7,2.1
		c-1.3,0-2.2-1.2-2.2-2.6c0-3.5,3.6-5.9,7.2-5.9c4.5,0,7.1,3.1,7.1,6.8c0,4.5-4.2,7.2-7.7,10.4c-2,1.8-4.4,4-4.4,5.2h6.1
		c3.2,0,3.9-1.4,4.9-3.8l1.2,0.2L131.7,70.3z"/>
	<path class="st0" d="M149.7,70.3c-0.6-0.2-1.1-0.4-1.8-0.5c-0.7-0.1-1.5-0.1-2.4-0.1h-8.7v-1.9c1.8-2.9,3.9-5.6,6.3-8.1
		c2.6-2.7,5-5.4,5-8.5c0-3.4-2.1-5.5-4.5-5.5c-1.7,0-3.5,0.8-3.5,2.3c0,0.7,1.1,1.2,1.1,2.7c0,0.9-0.3,2.1-1.7,2.1
		c-1.3,0-2.2-1.2-2.2-2.6c0-3.5,3.6-5.9,7.2-5.9c4.5,0,7.1,3.1,7.1,6.8c0,4.5-4.2,7.2-7.7,10.4c-2,1.8-4.4,4-4.4,5.2h6.1
		c3.2,0,3.9-1.4,4.9-3.8l1.2,0.2L149.7,70.3z"/>
	<path class="st0" d="M169,70.3c-2.8,0-5.4-1.3-5.4-3.1c0-1.2,0.7-1.8,1.7-1.8c2.7,0,1.1,3.7,3.8,3.7c1.9,0,3.7-1,3.7-2.8
		c0-4.4-8.2-3.7-8.2-9c0-3,2.3-4.9,6.4-4.9c2.1,0,3.1,0.9,3.1,2c0,1.2-0.7,1.7-1.7,1.7c-1.7,0-1.6-2.4-2.9-2.4c-1.5,0-2.4,1-2.4,2.4
		c0,4,8.2,2.6,8.2,9.1C175.1,67.8,172.8,70.3,169,70.3z"/>
	<path class="st0" d="M181.2,62c0.1,2.4,1.7,5.9,4.9,5.9c2,0,3.2-1.1,4.3-2.8l0.9,0.6c-1.1,2.5-3.2,4.6-6.2,4.6
		c-4.6,0-6.9-4.2-6.9-8.3c0-5.9,3.1-9.7,6.6-9.7c3.9,0,5.7,3.3,6.2,6.8L181.2,62z M185.8,59c1.1-0.3,1.9-0.7,1.9-2.3
		c0-1.3-0.7-3.2-2.7-3.2c-3,0-3.9,2.8-3.9,5c0,1.1,0,1.5,0,1.8L185.8,59z"/>
	<path class="st0" d="M193.6,75.8v-1.1l1.8-0.2V57.8c0-2.4-0.3-3.1-1.1-3.1c-0.2,0-0.5,0-0.9,0.1v-1.1l3.6-1.5
		c0.4,0.9,0.8,1.8,1.1,2.7c1.2-1.3,2.7-2.7,4.7-2.7c3.9,0,6.1,4.2,6.1,8.2c0,6.2-3.7,9.6-6.9,9.6c-1.6,0-2.7-0.2-3.8-0.9v5.3
		l1.8,0.2v1.1H193.6z M198.3,66.6c0,1,1.9,2.4,3.4,2.4c3.3,0,4.4-3.5,4.4-6.8c0-3.2-1.1-7.5-4.5-7.5c-1.6,0-2.6,1.1-3.3,2V66.6z"/>
	<path class="st0" d="M215,70.3c-1.3,0-2.2-1-2.2-2.3c0-1.3,0.9-2.3,2.2-2.3s2.2,1,2.2,2.3C217.2,69.3,216.3,70.3,215,70.3z"/>
	<path class="st0" d="M242.6,70.3c-0.6-0.2-1.1-0.4-1.8-0.5c-0.7-0.1-1.5-0.1-2.4-0.1h-8.7v-1.9c1.8-2.9,3.9-5.6,6.3-8.1
		c2.6-2.7,5-5.4,5-8.5c0-3.4-2.1-5.5-4.5-5.5c-1.7,0-3.5,0.8-3.5,2.3c0,0.7,1.1,1.2,1.1,2.7c0,0.9-0.3,2.1-1.7,2.1
		c-1.3,0-2.2-1.2-2.2-2.6c0-3.5,3.6-5.9,7.2-5.9c4.5,0,7.1,3.1,7.1,6.8c0,4.5-4.2,7.2-7.7,10.4c-2,1.8-4.4,4-4.4,5.2h6.1
		c3.2,0,3.9-1.4,4.9-3.8l1.2,0.2L242.6,70.3z"/>
	<path class="st0" d="M262.7,57.3c0,5.3-2.8,13-7.3,13s-7.3-6.1-7.3-13c0-7.2,3.6-13,7.3-13C259.7,44.4,262.7,50.2,262.7,57.3z
		 M251.6,57.3c0,8.9,0.7,11.8,3.9,11.8c2.8,0,3.9-3.6,3.9-11.8c0-8.2-0.8-11.8-3.9-11.8C253,45.6,251.6,49.1,251.6,57.3z"/>
	<path class="st0" d="M278.4,70.3c-0.6-0.2-1.1-0.4-1.8-0.5c-0.7-0.1-1.5-0.1-2.4-0.1h-8.7v-1.9c1.8-2.9,3.9-5.6,6.3-8.1
		c2.6-2.7,5-5.4,5-8.5c0-3.4-2.1-5.5-4.5-5.5c-1.7,0-3.5,0.8-3.5,2.3c0,0.7,1.1,1.2,1.1,2.7c0,0.9-0.3,2.1-1.7,2.1
		c-1.3,0-2.2-1.2-2.2-2.6c0-3.5,3.6-5.9,7.2-5.9c4.5,0,7.1,3.1,7.1,6.8c0,4.5-4.2,7.2-7.7,10.4c-2,1.8-4.4,4-4.4,5.2h6.1
		c3.2,0,3.9-1.4,4.9-3.8l1.2,0.2L278.4,70.3z"/>
	<path class="st0" d="M298.6,57.3c0,5.3-2.8,13-7.3,13c-4.5,0-7.3-6.1-7.3-13c0-7.2,3.6-13,7.3-13C295.6,44.4,298.6,50.2,298.6,57.3
		z M287.4,57.3c0,8.9,0.7,11.8,3.9,11.8c2.8,0,3.9-3.6,3.9-11.8c0-8.2-0.8-11.8-3.9-11.8C288.9,45.6,287.4,49.1,287.4,57.3z"/>
	<path class="st0" d="M309.4,62.2v-1.9h17.8v1.9H309.4z"/>
	<path class="st0" d="M350.3,70.3c-0.6-0.2-1.1-0.4-1.8-0.5c-0.7-0.1-1.5-0.1-2.4-0.1h-8.7v-1.9c1.8-2.9,3.9-5.6,6.3-8.1
		c2.6-2.7,5-5.4,5-8.5c0-3.4-2.1-5.5-4.5-5.5c-1.7,0-3.5,0.8-3.5,2.3c0,0.7,1.1,1.2,1.1,2.7c0,0.9-0.3,2.1-1.7,2.1
		c-1.3,0-2.2-1.2-2.2-2.6c0-3.5,3.5-5.9,7.2-5.9c4.5,0,7.1,3.1,7.1,6.8c0,4.5-4.2,7.2-7.7,10.4c-2,1.8-4.4,4-4.4,5.2h6.1
		c3.2,0,3.9-1.4,4.9-3.8l1.2,0.2L350.3,70.3z"/>
	<path class="st0" d="M357.7,69.8v-1.3l4.4-0.4V49.9c0-1.8-0.2-2.3-2.2-2.3c-0.7,0-1.4,0-2.1,0v-1.3l7.6-1.9v23.8l3.7,0.3v1.3H357.7
		z"/>
	<path class="st0" d="M390.6,52.8v1.6h-3.5v14.1l1.8,0.2v1.1h-6.4v-1.1l1.8-0.2V54.4h-2v-1.6h2c0.1-4.3,3.3-9.6,6.5-9.6
		c1.2,0,2.1,0.6,2.1,1.9c0,0.9-0.7,1.5-1.6,1.5c-0.8,0-1.2-0.2-1.5-0.5c-0.2-0.2-0.4-0.5-0.7-0.5c-1.1,0-2,2-2,4.2
		c0,1.2,0,2.2,0,3.1H390.6z"/>
	<path class="st0" d="M395.8,62c0.1,2.4,1.7,5.9,4.9,5.9c2,0,3.2-1.1,4.3-2.8l0.9,0.6c-1.1,2.5-3.2,4.6-6.2,4.6
		c-4.6,0-6.9-4.2-6.9-8.3c0-5.9,3.1-9.7,6.6-9.7c3.9,0,5.7,3.3,6.2,6.8L395.8,62z M400.4,59c1.1-0.3,1.9-0.7,1.9-2.3
		c0-1.3-0.7-3.2-2.7-3.2c-3,0-3.9,2.8-3.9,5c0,1.1,0,1.5,0,1.8L400.4,59z"/>
	<path class="st0" d="M412.8,43.2c0,0.7-0.1,1.4-0.1,2.2v9.2c1.2-1.2,2.6-2.3,4.2-2.3c4,0,6.6,3.3,6.6,8.3c0,4.6-2.7,9.7-7.3,9.7
		c-1.7,0-3.5-0.8-4.6-2.5l-2.2,2.5l-0.6-0.4c0.5-1.1,1-3.4,1-7.6V48.9c0-2.4-0.3-3.1-1.1-3.1c-0.2,0-0.5,0-0.9,0.1v-1.1L412.8,43.2z
		 M412.6,65.9c0,1.6,1.8,3.1,3.4,3.1c3.4,0,4.6-3.6,4.6-6.6c0-4.3-1.8-7.8-4.9-7.8c-1.2,0-2.5,0.9-3.1,1.7V65.9z"/>
	<path class="st0" d="M429.6,70.3c-1.3,0-2.2-1-2.2-2.3c0-1.3,0.9-2.3,2.2-2.3c1.3,0,2.2,1,2.2,2.3
		C431.8,69.3,430.9,70.3,429.6,70.3z"/>
	<path class="st0" d="M457.2,70.3c-0.6-0.2-1.1-0.4-1.8-0.5c-0.7-0.1-1.5-0.1-2.4-0.1h-8.7v-1.9c1.8-2.9,3.9-5.6,6.3-8.1
		c2.6-2.7,5-5.4,5-8.5c0-3.4-2.1-5.5-4.5-5.5c-1.7,0-3.5,0.8-3.5,2.3c0,0.7,1.1,1.2,1.1,2.7c0,0.9-0.3,2.1-1.7,2.1
		c-1.3,0-2.2-1.2-2.2-2.6c0-3.5,3.5-5.9,7.2-5.9c4.5,0,7.1,3.1,7.1,6.8c0,4.5-4.2,7.2-7.7,10.4c-2,1.8-4.4,4-4.4,5.2h6.1
		c3.2,0,3.9-1.4,4.9-3.8l1.2,0.2L457.2,70.3z"/>
	<path class="st0" d="M477.4,57.3c0,5.3-2.8,13-7.3,13c-4.5,0-7.3-6.1-7.3-13c0-7.2,3.6-13,7.3-13C474.4,44.4,477.4,50.2,477.4,57.3
		z M466.2,57.3c0,8.9,0.7,11.8,3.9,11.8c2.8,0,3.9-3.6,3.9-11.8c0-8.2-0.8-11.8-3.9-11.8C467.7,45.6,466.2,49.1,466.2,57.3z"/>
	<path class="st0" d="M493.1,70.3c-0.6-0.2-1.1-0.4-1.8-0.5c-0.7-0.1-1.5-0.1-2.4-0.1h-8.7v-1.9c1.8-2.9,3.9-5.6,6.3-8.1
		c2.6-2.7,5-5.4,5-8.5c0-3.4-2.1-5.5-4.5-5.5c-1.7,0-3.5,0.8-3.5,2.3c0,0.7,1.1,1.2,1.1,2.7c0,0.9-0.3,2.1-1.7,2.1
		c-1.3,0-2.2-1.2-2.2-2.6c0-3.5,3.5-5.9,7.2-5.9c4.5,0,7.1,3.1,7.1,6.8c0,4.5-4.2,7.2-7.7,10.4c-2,1.8-4.4,4-4.4,5.2h6.1
		c3.2,0,3.9-1.4,4.9-3.8l1.2,0.2L493.1,70.3z"/>
	<path class="st0" d="M500.5,69.8v-1.3l4.4-0.4V49.9c0-1.8-0.2-2.3-2.2-2.3c-0.7,0-1.4,0-2.1,0v-1.3l7.6-1.9v23.8l3.7,0.3v1.3H500.5
		z"/>
</g>
</svg>
