<?xml version="1.0" encoding="utf-8"?>
<!-- Generator: Adobe Illustrator 23.1.1, SVG Export Plug-In . SVG Version: 6.00 Build 0)  -->
<svg version="1.1" id="Laag_1" xmlns="http://www.w3.org/2000/svg" xmlns:xlink="http://www.w3.org/1999/xlink" x="0px" y="0px"
	 width="88.8px" height="17.6px" viewBox="0 0 88.8 17.6" style="enable-background:new 0 0 88.8 17.6;" xml:space="preserve">
<style type="text/css">
	.st0{fill:#FFFFFF;}
	.st1{font-family:'HelveticaNeueLTW01-83HvExObl';}
	.st2{font-size:8.1664px;}
	.st3{fill:none;}
</style>
<text transform="matrix(1 0 0 1.1958 69.6097 7.1875)" class="st0 st1 st2"> </text>
<g>
	<path class="st3" d="M60.2,1.8h-1.9L58,3.3h1.9c0.3,0,0.5-0.1,0.6-0.3c0.1-0.2,0.2-0.4,0.2-0.7c0-0.2-0.1-0.3-0.2-0.4
		C60.5,1.8,60.3,1.8,60.2,1.8z"/>
	<polygon class="st3" points="39.3,2 38.1,4.6 39.7,4.6 39.4,2 	"/>
	<path class="st3" d="M36.6,11.9h-1.8l-0.3,1.8h1.8c0.4,0,0.6-0.1,0.7-0.4c0.1-0.2,0.2-0.5,0.2-0.8C37.2,12,37,11.9,36.6,11.9z"/>
	<path class="st3" d="M79.2,12h-1.9L77,13.5h1.9c0.3,0,0.5-0.1,0.6-0.3c0.1-0.2,0.2-0.4,0.2-0.7c0-0.2-0.1-0.3-0.2-0.4
		C79.5,12,79.3,12,79.2,12z"/>
	<polygon class="st0" points="3.5,0.2 1.6,0.2 0.4,7.2 2.3,7.2 	"/>
	<polygon class="st0" points="5.4,7.2 6.1,2.8 6.2,2.8 8.2,7.2 10.3,7.2 11.5,0.2 9.7,0.2 8.9,4.6 8.9,4.6 6.9,0.2 4.7,0.2 3.5,7.2 
			"/>
	<polygon class="st0" points="18.2,7.2 19.1,1.8 21.2,1.8 21.5,0.2 15.3,0.2 15,1.8 17.2,1.8 16.2,7.2 	"/>
	<polygon class="st0" points="22.8,7.2 23.3,4.3 26.3,4.3 25.8,7.2 27.7,7.2 28.9,0.2 27,0.2 26.6,2.7 23.6,2.7 24,0.2 22.1,0.2 
		20.9,7.2 	"/>
	<polygon class="st0" points="34.7,7.2 35,5.7 31.1,5.7 31.3,4.4 35,4.4 35.2,3 31.6,3 31.8,1.7 35.7,1.7 35.9,0.2 30.1,0.2 
		28.9,7.2 	"/>
	<path class="st0" d="M38.5,0.2l-3.7,7h2.1l0.5-1.1h2.5l0.2,1.1h2.1l-1.3-7H38.5z M38.1,4.6L39.3,2h0l0.3,2.6H38.1z"/>
	<polygon class="st0" points="49.3,0.2 43.1,0.2 42.9,1.8 45,1.8 44.1,7.2 46,7.2 46.9,1.8 49.1,1.8 	"/>
	<polygon class="st0" points="54.8,5.7 50.9,5.7 51.1,4.4 54.8,4.4 55,3 51.4,3 51.6,1.7 55.5,1.7 55.8,0.2 49.9,0.2 48.7,7.2 
		54.6,7.2 	"/>
	<path class="st0" d="M61.3,0.2h-4.7l-1.2,7h1.9l0.4-2.3h1.8c0.2,0,0.4,0.1,0.5,0.2s0.1,0.3,0.1,0.5c0,0.2,0,0.4-0.1,0.7
		C60,6.5,60,6.7,60,6.9c0,0.1,0,0.2,0,0.3h2.1C62.1,7.1,62,6.8,62,6.6c0-0.2,0-0.5,0.1-1c0-0.5,0.1-0.7,0.1-0.8c0-0.5-0.2-0.8-0.5-1
		l0,0C62,3.6,62.3,3.4,62.6,3c0.2-0.4,0.3-0.9,0.3-1.4C62.9,0.7,62.4,0.2,61.3,0.2z M60.5,3c-0.1,0.2-0.4,0.3-0.6,0.3H58l0.3-1.5
		h1.9c0.2,0,0.3,0,0.4,0.1c0.1,0.1,0.2,0.2,0.2,0.4C60.7,2.6,60.7,2.8,60.5,3z"/>
	<path class="st0" d="M66,7.4c1.4,0,2.4-0.3,3-0.9c0.3-0.3,0.5-0.6,0.6-0.9s0.2-0.7,0.2-1c0-0.1,0-0.2,0-0.3c0-0.1,0-0.2-0.1-0.3
		c-0.1-0.1-0.1-0.3-0.2-0.4c-0.1-0.1-0.2-0.2-0.4-0.3S68.6,3.1,68.3,3l-2.2-0.4c-0.4-0.1-0.5-0.2-0.5-0.4c0-0.1,0-0.2,0.1-0.3
		s0.1-0.2,0.2-0.3c0.2-0.1,0.5-0.2,0.8-0.2c0.7,0,1.1,0.3,1.1,0.8v0.1H70C70,2.1,70,2,70,2c0-0.7-0.3-1.2-0.8-1.5
		C68.8,0.2,68,0,66.9,0c-0.5,0-1,0.1-1.4,0.2c-0.4,0.1-0.8,0.3-1,0.5C64.2,0.8,64,1,63.9,1.3c-0.2,0.3-0.3,0.5-0.3,0.7
		c-0.1,0.2-0.1,0.5-0.1,0.7c0,0.8,0.5,1.3,1.4,1.5l1.9,0.4c0.3,0.1,0.5,0.1,0.7,0.2c0.1,0.1,0.2,0.2,0.2,0.3c0,0,0,0.1,0,0.1
		c0,0,0,0.1-0.1,0.2c0,0.1-0.1,0.2-0.2,0.2c-0.1,0.1-0.2,0.1-0.3,0.2c-0.2,0.1-0.3,0.1-0.6,0.1c-0.4,0-0.7-0.1-0.9-0.2
		c-0.2-0.1-0.2-0.3-0.2-0.5c0-0.1,0-0.1,0-0.1h-2.3c0,0.1,0,0.3,0,0.4c0,0.3,0.1,0.6,0.2,0.8c0.1,0.2,0.2,0.4,0.4,0.6
		s0.4,0.3,0.7,0.3s0.6,0.1,0.9,0.2S65.6,7.4,66,7.4z"/>
	<path class="st0" d="M3.6,15.2c0.2-0.1,0.5-0.1,0.9-0.2c0.4-0.1,0.7-0.2,0.9-0.2c0.6-0.2,1-0.4,1.3-0.7c0.5-0.4,0.8-1,0.8-1.8
		c0-0.6-0.2-1.1-0.7-1.4c-0.5-0.3-1.1-0.5-2-0.5c-2.1,0-3.4,0.9-3.8,2.6h2c0.1-0.4,0.3-0.7,0.6-0.8C3.8,12.1,4.1,12,4.4,12
		c0.2,0,0.5,0,0.7,0.1c0.2,0.1,0.3,0.3,0.3,0.5c0,0.4-0.2,0.7-0.7,0.8c-0.5,0.2-0.9,0.3-1.4,0.5c-0.9,0.3-1.6,0.7-2.1,1.2
		c-0.5,0.6-0.9,1.3-1.1,2.3h6.5l0.3-1.5H2.3c0.1-0.1,0.3-0.3,0.5-0.4C3.1,15.3,3.3,15.3,3.6,15.2z"/>
	<path class="st0" d="M14.2,13.2c0.3-0.3,0.4-0.7,0.4-1.2c0-1-0.9-1.5-2.7-1.5c-0.4,0-0.8,0-1.2,0.1c-0.4,0.1-0.7,0.2-1,0.3
		c-0.3,0.1-0.6,0.3-0.9,0.6c-0.2,0.3-0.4,0.6-0.5,1h2c0.1-0.3,0.3-0.4,0.5-0.5c0.2-0.1,0.5-0.1,0.8-0.1c0.6,0,1,0.2,1,0.5
		c0,0.3-0.1,0.5-0.3,0.6c-0.1,0.1-0.4,0.1-0.7,0.1h-1.2l-0.2,1.4h1.1c0.7,0,1,0.2,1,0.6c0,0.3-0.1,0.5-0.4,0.7
		c-0.2,0.2-0.6,0.3-1.1,0.3c-0.8,0-1.2-0.3-1.2-0.8c0,0,0,0,0-0.1c0,0,0,0,0-0.1H7.7c0,0.2,0,0.4,0,0.5c0,0.7,0.2,1.1,0.7,1.5
		c0.4,0.3,1.2,0.5,2.3,0.5c1.3,0,2.3-0.3,2.9-0.8c0.2-0.2,0.4-0.4,0.5-0.7s0.2-0.5,0.2-0.6c0-0.2,0-0.3,0-0.4c0-0.3-0.1-0.6-0.2-0.8
		c-0.2-0.2-0.4-0.4-0.7-0.4v0C13.7,13.7,13.9,13.5,14.2,13.2z"/>
	<path class="st0" d="M24.3,10.7c-0.5-0.3-1.3-0.5-2.4-0.5c-0.5,0-1,0.1-1.4,0.2c-0.4,0.1-0.8,0.3-1,0.5c-0.2,0.2-0.5,0.4-0.6,0.6
		c-0.2,0.3-0.3,0.5-0.3,0.7c-0.1,0.2-0.1,0.5-0.1,0.7c0,0.8,0.5,1.3,1.4,1.5l1.9,0.4c0.3,0.1,0.5,0.1,0.7,0.2
		c0.1,0.1,0.2,0.2,0.2,0.3c0,0,0,0.1,0,0.1c0,0,0,0.1-0.1,0.2c0,0.1-0.1,0.2-0.2,0.2C22.3,15.9,22.1,16,22,16
		c-0.2,0.1-0.3,0.1-0.6,0.1c-0.4,0-0.7-0.1-0.9-0.2c-0.2-0.1-0.2-0.3-0.2-0.5c0-0.1,0-0.1,0-0.1H18c0,0.1,0,0.3,0,0.4
		c0,0.3,0.1,0.6,0.2,0.8c0.1,0.2,0.2,0.4,0.4,0.6s0.4,0.3,0.7,0.3s0.6,0.1,0.9,0.2s0.6,0,1,0c1.4,0,2.4-0.3,3-0.9
		c0.3-0.3,0.5-0.6,0.6-0.9s0.2-0.7,0.2-1c0-0.1,0-0.2,0-0.3c0-0.1,0-0.2-0.1-0.3c-0.1-0.1-0.1-0.3-0.2-0.4c-0.1-0.1-0.2-0.2-0.4-0.3
		s-0.4-0.2-0.7-0.2l-2.2-0.4c-0.4-0.1-0.5-0.2-0.5-0.4c0-0.1,0-0.2,0.1-0.3s0.1-0.2,0.2-0.3c0.2-0.1,0.5-0.2,0.8-0.2
		c0.7,0,1.1,0.3,1.1,0.8v0.1h2.2c0-0.2,0-0.3,0-0.3C25.1,11.5,24.9,11,24.3,10.7z"/>
	<polygon class="st0" points="31.3,14.6 31.6,13.2 27.9,13.2 28.2,11.9 32.1,11.9 32.3,10.4 26.5,10.4 25.3,17.4 31.1,17.4 
		31.4,15.9 27.5,15.9 27.7,14.6 	"/>
	<path class="st0" d="M37.5,10.4h-4.3l-1.2,7h1.9l0.4-2.3h2.4c0.8,0,1.5-0.3,1.9-1c0.2-0.3,0.3-0.6,0.4-1c0.1-0.4,0.2-0.7,0.2-1.1
		c0-0.6-0.2-1-0.5-1.2S38,10.4,37.5,10.4z M37,13.2c-0.1,0.3-0.4,0.4-0.7,0.4h-1.8l0.3-1.8h1.8c0.4,0,0.6,0.2,0.6,0.6
		C37.2,12.7,37.1,13,37,13.2z"/>
	<polygon class="st0" points="42.6,15.3 45.6,15.3 45.8,13.8 42.9,13.8 	"/>
	<path class="st0" d="M52.1,11.2c-0.1,0.2-0.3,0.3-0.4,0.4c-0.1,0.1-0.3,0.1-0.5,0.2c-0.2,0-0.4,0.1-0.5,0.1c-0.1,0-0.3,0-0.6,0
		L50,13.3h1.7L51,17.4h1.8l1.2-6.8h-1.4C52.4,10.9,52.3,11.1,52.1,11.2z"/>
	<path class="st0" d="M57.7,15.2c0.2-0.1,0.5-0.1,0.9-0.2c0.4-0.1,0.7-0.2,0.9-0.2c0.6-0.2,1-0.4,1.3-0.7c0.5-0.4,0.8-1,0.8-1.8
		c0-0.6-0.2-1.1-0.7-1.4c-0.5-0.3-1.1-0.5-2-0.5c-2.1,0-3.4,0.9-3.8,2.6h2c0.1-0.4,0.3-0.7,0.6-0.8c0.3-0.2,0.6-0.3,0.9-0.3
		c0.2,0,0.5,0,0.7,0.1c0.2,0.1,0.3,0.3,0.3,0.5c0,0.4-0.2,0.7-0.7,0.8c-0.5,0.2-0.9,0.3-1.4,0.5c-0.9,0.3-1.6,0.7-2.1,1.2
		c-0.5,0.6-0.9,1.3-1.1,2.3h6.5l0.3-1.5h-4.4c0.1-0.1,0.3-0.3,0.5-0.4C57.2,15.3,57.4,15.3,57.7,15.2z"/>
	<polygon class="st0" points="71.6,10.4 69.5,15 69.4,15 68.9,10.4 66.1,10.4 64.9,17.4 66.7,17.4 67.6,12.2 67.6,12.2 68.2,17.4 
		69.8,17.4 72.3,12.2 72.3,12.2 71.4,17.4 73.2,17.4 74.4,10.4 	"/>
	<path class="st0" d="M80.3,10.4h-4.7l-1.2,7h1.9l0.4-2.3h1.8c0.2,0,0.4,0.1,0.5,0.2s0.1,0.3,0.1,0.5c0,0.2,0,0.4-0.1,0.7
		c0,0.3-0.1,0.5-0.1,0.7c0,0.1,0,0.2,0,0.3h2.1C81.1,17.2,81,17,81,16.8c0-0.2,0-0.5,0.1-1c0-0.5,0.1-0.7,0.1-0.8
		c0-0.5-0.2-0.8-0.5-1l0,0c0.4-0.1,0.7-0.4,0.9-0.7c0.2-0.4,0.3-0.9,0.3-1.4C81.9,10.9,81.4,10.4,80.3,10.4z M79.5,13.2
		c-0.1,0.2-0.4,0.3-0.6,0.3H77l0.3-1.5h1.9c0.2,0,0.3,0,0.4,0.1c0.1,0.1,0.2,0.2,0.2,0.4C79.8,12.8,79.7,13,79.5,13.2z"/>
	<polygon class="st0" points="82.6,10.4 82.3,12 84.4,12 83.5,17.4 85.4,17.4 86.4,12 88.5,12 88.8,10.4 	"/>
</g>
</svg>
