<?xml version="1.0" encoding="utf-8"?>
<!-- Generator: Adobe Illustrator 24.0.0, SVG Export Plug-In . SVG Version: 6.00 Build 0)  -->
<svg version="1.1" id="Laag_1" xmlns="http://www.w3.org/2000/svg" xmlns:xlink="http://www.w3.org/1999/xlink" x="0px" y="0px"
	 width="86.7px" height="26px" viewBox="0 0 86.7 26" style="enable-background:new 0 0 86.7 26;" xml:space="preserve">
<style type="text/css">
	.st0{fill:#FFFFFF;}
</style>
<g>
	<path class="st0" d="M8.5,3.1H6.7C6.4,2.2,5.8,1.7,4.6,1.7c-1.5,0-2.5,1.2-2.5,2.8c0,1.6,1,2.8,2.5,2.8c1.2,0,2-0.6,2.1-1.6h-2V4.2
		h3.8V5c0,2.5-1.6,4-3.9,4c-2.5,0-4.2-1.8-4.2-4.4c0-2.5,1.7-4.3,4.2-4.3C6.8,0.2,8,1.4,8.5,3.1z"/>
	<path class="st0" d="M15.2,6.2H11c0,0.8,0.6,1.4,1.5,1.4c0.6,0,1.1-0.2,1.2-0.7h1.5c-0.4,1.3-1.3,2-2.8,2c-1.8,0-3-1.2-3-3.2
		c0-1.8,1.2-3.2,3-3.2c1.6,0,2.8,1,2.8,3.2V6.2z M13.7,5.1c0-0.8-0.5-1.3-1.3-1.3c-0.8,0-1.3,0.5-1.4,1.3H13.7z"/>
	<path class="st0" d="M21.5,4.8v3.9H20V5.1c0-0.7-0.3-1.1-0.9-1.1c-0.6,0-1.1,0.5-1.1,1.5v3.2h-1.5V2.7h1.3l0.1,0.8
		c0.3-0.5,0.8-0.9,1.6-0.9C20.9,2.5,21.5,3.4,21.5,4.8z"/>
	<path class="st0" d="M24.8,0.9c0,0.5-0.4,0.9-0.9,0.9c-0.5,0-0.9-0.4-0.9-0.9c0-0.5,0.4-0.9,0.9-0.9C24.4,0,24.8,0.4,24.8,0.9z
		 M23.1,8.8V2.7h1.5v6.1H23.1z"/>
	<path class="st0" d="M31.7,6.2h-4.2c0,0.8,0.6,1.4,1.5,1.4c0.6,0,1.1-0.2,1.2-0.7h1.5c-0.4,1.3-1.3,2-2.8,2c-1.8,0-3-1.2-3-3.2
		c0-1.8,1.2-3.2,3-3.2c1.6,0,2.8,1,2.8,3.2V6.2z M30.1,5.1c0-0.8-0.5-1.3-1.3-1.3c-0.8,0-1.3,0.5-1.4,1.3H30.1z"/>
	<path class="st0" d="M36.2,2.7v1.4h-1.4l0,2.5c0,0.6,0.2,0.9,0.8,0.9c0.3,0,0.5,0,0.6-0.1v1.4c-0.2,0.1-0.5,0.1-1,0.1
		c-1.3,0-2-0.5-2-1.9l0-2.8h-1V2.7h1l0-1.5h1.6l0,1.5H36.2z"/>
	<path class="st0" d="M48.3,4.8v3.9h-1.5V5.1c0-0.7-0.3-1.1-0.9-1.1c-0.6,0-1.1,0.5-1.1,1.5v3.2h-1.5V5.1c0-0.7-0.3-1.1-0.9-1.1
		c-0.6,0-1.1,0.5-1.1,1.5v3.2h-1.5V2.7h1.3l0.1,0.8C41.5,3,42,2.5,42.8,2.5c0.9,0,1.5,0.4,1.7,1.1c0.3-0.6,0.9-1.1,1.8-1.1
		C47.6,2.5,48.3,3.4,48.3,4.8z"/>
	<path class="st0" d="M55.2,6.2H51c0,0.8,0.6,1.4,1.5,1.4c0.6,0,1.1-0.2,1.2-0.7h1.5c-0.4,1.3-1.3,2-2.8,2c-1.8,0-3-1.2-3-3.2
		c0-1.8,1.2-3.2,3-3.2c1.6,0,2.8,1,2.8,3.2V6.2z M53.7,5.1c0-0.8-0.5-1.3-1.3-1.3c-0.8,0-1.3,0.5-1.4,1.3H53.7z"/>
	<path class="st0" d="M59.8,2.7v1.4h-1.4l0,2.5c0,0.6,0.2,0.9,0.8,0.9c0.3,0,0.5,0,0.6-0.1v1.4c-0.2,0.1-0.5,0.1-1,0.1
		c-1.3,0-2-0.5-2-1.9l0-2.8h-1V2.7h1l0-1.5h1.6l0,1.5H59.8z"/>
	<path class="st0" d="M3.9,16.9c1.3,0,2,0.9,2,2.3v3.9H4.3v-3.6c0-0.7-0.3-1.1-0.9-1.1c-0.6,0-1.1,0.5-1.1,1.5v3.2H0.8v-8.8h1.5v3.3
		C2.6,17.3,3.1,16.9,3.9,16.9z"/>
	<path class="st0" d="M12.8,20.6H8.6c0,0.8,0.6,1.4,1.5,1.4c0.6,0,1.1-0.2,1.2-0.7h1.5c-0.4,1.3-1.3,2-2.8,2c-1.8,0-3-1.2-3-3.2
		c0-1.8,1.2-3.2,3-3.2c1.6,0,2.8,1,2.8,3.2V20.6z M11.3,19.5c0-0.8-0.5-1.3-1.3-1.3c-0.8,0-1.3,0.5-1.4,1.3H11.3z"/>
	<path class="st0" d="M17.3,17.1v1.4h-1.4l0,2.5c0,0.6,0.2,0.9,0.8,0.9c0.3,0,0.5,0,0.6-0.1v1.4c-0.2,0.1-0.5,0.1-1,0.1
		c-1.3,0-2-0.5-2-1.9l0-2.8h-1v-1.4h1l0-1.5H16l0,1.5H17.3z"/>
	<path class="st0" d="M24,16.9c1.3,0,2,0.9,2,2.3v3.9h-1.5v-3.6c0-0.7-0.3-1.1-0.9-1.1c-0.6,0-1.1,0.5-1.1,1.5v3.2h-1.5v-8.8h1.5
		v3.3C22.7,17.3,23.2,16.9,24,16.9z"/>
	<path class="st0" d="M32.9,20.6h-4.2c0,0.8,0.6,1.4,1.5,1.4c0.6,0,1.1-0.2,1.2-0.7h1.5c-0.4,1.3-1.3,2-2.8,2c-1.8,0-3-1.2-3-3.2
		c0-1.8,1.2-3.2,3-3.2c1.6,0,2.8,1,2.8,3.2V20.6z M31.4,19.5c0-0.8-0.5-1.3-1.3-1.3c-0.8,0-1.3,0.5-1.4,1.3H31.4z"/>
	<path class="st0" d="M34.2,23.2v-8.8h1.5v8.8H34.2z"/>
	<path class="st0" d="M42.7,20.6h-4.2c0,0.8,0.6,1.4,1.5,1.4c0.6,0,1.1-0.2,1.2-0.7h1.5c-0.4,1.3-1.3,2-2.8,2c-1.8,0-3-1.2-3-3.2
		c0-1.8,1.2-3.2,3-3.2c1.6,0,2.8,1,2.8,3.2V20.6z M41.2,19.5c0-0.8-0.5-1.3-1.3-1.3c-0.8,0-1.3,0.5-1.4,1.3H41.2z"/>
	<path class="st0" d="M51.7,18.4h-0.9c0.1,0.2,0.1,0.5,0.1,0.7c0,1.2-1,2.1-2.4,2.1c-0.4,0-0.7-0.1-1-0.2c-0.1,0.1-0.2,0.3-0.2,0.4
		c0,0.3,0.2,0.5,0.6,0.5h1.4c1.2,0,2,0.6,2,1.8c0,1.4-1.1,2.1-2.7,2.1c-1.8,0-2.8-0.7-2.8-1.9c0-0.5,0.3-0.9,0.6-1.1
		c-0.4-0.3-0.7-0.7-0.7-1.3s0.3-1,0.6-1.3c-0.3-0.3-0.4-0.8-0.4-1.2c0-1.3,1-2.2,2.4-2.2c0.3,0,0.6,0,0.9,0.1h2.3V18.4z M47.5,23.9
		c0,0.6,0.5,0.8,1.2,0.8c0.7,0,1.2-0.3,1.2-0.9c0-0.5-0.3-0.7-0.9-0.7h-0.9C47.8,23.2,47.5,23.5,47.5,23.9z M49.5,19.1
		c0-0.6-0.4-1-0.9-1c-0.6,0-0.9,0.4-0.9,1c0,0.6,0.4,1,0.9,1C49.1,20.1,49.5,19.7,49.5,19.1z"/>
	<path class="st0" d="M58,20.6h-4.2c0,0.8,0.6,1.4,1.5,1.4c0.6,0,1.1-0.2,1.2-0.7H58c-0.4,1.3-1.3,2-2.8,2c-1.8,0-3-1.2-3-3.2
		c0-1.8,1.2-3.2,3-3.2c1.6,0,2.8,1,2.8,3.2V20.6z M56.4,19.5c0-0.8-0.5-1.3-1.3-1.3c-0.8,0-1.3,0.5-1.4,1.3H56.4z"/>
	<path class="st0" d="M60.8,21.8h2.9v1.4h-5V22l2.8-3.6h-2.7v-1.4h4.8v1.2L60.8,21.8z"/>
	<path class="st0" d="M66.6,15.3c0,0.5-0.4,0.9-0.9,0.9c-0.5,0-0.9-0.4-0.9-0.9c0-0.5,0.4-0.9,0.9-0.9
		C66.2,14.4,66.6,14.8,66.6,15.3z M64.9,23.2v-6.1h1.5v6.1H64.9z"/>
	<path class="st0" d="M73.1,19.2v3.9h-1.5v-3.6c0-0.7-0.3-1.1-0.9-1.1c-0.6,0-1.1,0.5-1.1,1.5v3.2h-1.5v-6.1h1.3l0.1,0.8
		c0.3-0.5,0.8-0.9,1.6-0.9C72.5,16.9,73.1,17.8,73.1,19.2z"/>
</g>
</svg>
