<?xml version="1.0" encoding="utf-8"?>
<!-- Generator: Adobe Illustrator 23.0.2, SVG Export Plug-In . SVG Version: 6.00 Build 0)  -->
<svg version="1.1" id="Laag_1" xmlns="http://www.w3.org/2000/svg" xmlns:xlink="http://www.w3.org/1999/xlink" x="0px" y="0px"
	 width="93.3px" height="12.1px" viewBox="0 0 93.3 12.1" style="enable-background:new 0 0 93.3 12.1;" xml:space="preserve">
<style type="text/css">
	.st0{fill:#FFFFFF;}
</style>
<g>
	<path class="st0" d="M5.4,9.9H1.7V2.2h3.7c1.4,0,2.2,0.9,2.2,1.9c0,0.8-0.3,1.4-1,1.7C7.4,6.1,8,6.7,8,7.7C8,9,6.9,9.9,5.4,9.9z
		 M4.9,5.3c0.5,0,0.8-0.3,0.8-0.8c0-0.5-0.3-0.7-0.8-0.7H3.5v1.6H4.9z M5.3,6.7H3.5v1.7h1.8c0.5,0,0.8-0.3,0.8-0.8
		C6.2,7,5.9,6.7,5.3,6.7z"/>
	<path class="st0" d="M9.2,2.2h5.5v1.6h-3.7v1.4h3.3v1.6h-3.3v1.5h3.7v1.6H9.2V2.2z"/>
	<path class="st0" d="M18.9,10c-1.8,0-3.1-0.9-3.1-2.4V7.4h1.8v0.2c0,0.6,0.4,1,1.3,1c0.8,0,1.3-0.3,1.3-0.9c0-0.3-0.1-0.6-0.5-0.7
		l-1.9-0.5c-1.2-0.3-1.8-0.8-1.8-2.1c0-1.5,1.1-2.4,2.9-2.4c1.7,0,2.8,0.9,2.8,2.3v0.2h-1.7V4.5c0-0.5-0.3-0.9-1.1-0.9
		c-0.7,0-1.1,0.2-1.1,0.8c0,0.4,0.2,0.5,0.5,0.6l2,0.5c1.2,0.3,1.7,1,1.7,2.1C22,9,20.6,10,18.9,10z"/>
	<path class="st0" d="M27.8,2.2h1.9V7c0,1.8-1.3,3-3.3,3c-2,0-3.3-1.2-3.3-3V2.2H25v4.8c0,0.9,0.5,1.4,1.4,1.4s1.4-0.5,1.4-1.4V2.2z
		"/>
	<path class="st0" d="M34.4,8.5c1,0,1.5-0.7,1.5-1.4h1.7c0,1.6-1.2,3-3.2,3c-2.4,0-3.5-1.5-3.5-3.5v-1c0-2,1.1-3.5,3.5-3.5
		c2,0,3.2,1.3,3.2,3h-1.7c0-0.8-0.5-1.4-1.5-1.4c-1.1,0-1.6,0.8-1.6,1.8v1.2C32.8,7.7,33.2,8.5,34.4,8.5z"/>
	<path class="st0" d="M43.4,9.9v-3h-2.7v3h-1.9V2.2h1.9v3h2.7v-3h1.9v7.6H43.4z"/>
	<path class="st0" d="M51.1,7.6v2.3h-1.9V2.2h3.3c1.8,0,3,1,3,2.6c0,1.6-1.2,2.7-3,2.7H51.1z M52.4,3.8h-1.3V6h1.3
		c0.8,0,1.2-0.5,1.2-1.1C53.6,4.2,53.2,3.8,52.4,3.8z"/>
	<path class="st0" d="M58.4,2.2v6.1h3.4v1.6h-5.3V2.2H58.4z"/>
	<path class="st0" d="M67.4,8.4h-2.8l-0.4,1.4h-1.9l2.7-7.6H67l2.7,7.6h-1.9L67.4,8.4z M65.1,6.9H67l-0.9-3L65.1,6.9z"/>
	<path class="st0" d="M75.4,9.9l-2.9-4.4v4.4h-1.8V2.2h1.8l2.9,4.4V2.2h1.8v7.6H75.4z"/>
	<path class="st0" d="M78.8,2.2h5.5v1.6h-3.7v1.4H84v1.6h-3.3v1.5h3.7v1.6h-5.6V2.2z"/>
	<path class="st0" d="M90.3,9.9l-2.9-4.4v4.4h-1.8V2.2h1.8l2.9,4.4V2.2h1.8v7.6H90.3z"/>
</g>
</svg>
