<?xml version="1.0" encoding="utf-8"?>
<!-- Generator: Adobe Illustrator 24.0.0, SVG Export Plug-In . SVG Version: 6.00 Build 0)  -->
<svg version="1.1" id="Laag_1" xmlns="http://www.w3.org/2000/svg" xmlns:xlink="http://www.w3.org/1999/xlink" x="0px" y="0px"
	 width="155.5px" height="71.8px" viewBox="0 0 155.5 71.8" style="enable-background:new 0 0 155.5 71.8;" xml:space="preserve">
<style type="text/css">
	.st0{fill:#FFFFFF;}
</style>
<g>
	<path class="st0" d="M4.4,26.3c0.9,0.3,1.4,0.9,1.4,1.8c0,0.6-0.2,1.1-0.7,1.5c-0.4,0.3-1,0.4-1.6,0.4H0.9v-7.2h2.3
		c0.7,0,1.2,0.2,1.6,0.5s0.6,0.8,0.6,1.3C5.5,25.4,5.1,25.9,4.4,26.3L4.4,26.3z M1.8,23.6v2.3h1.4c0.4,0,0.8-0.1,1-0.3
		c0.2-0.2,0.4-0.5,0.4-0.9s-0.1-0.6-0.4-0.8c-0.2-0.2-0.6-0.3-1-0.3C3.2,23.6,1.8,23.6,1.8,23.6z M3.3,29.2c0.5,0,0.8-0.1,1.1-0.3
		c0.3-0.2,0.4-0.5,0.4-0.9s-0.1-0.7-0.4-0.9c-0.2-0.3-0.6-0.4-1.1-0.4H1.8v2.5C1.8,29.2,3.3,29.2,3.3,29.2z"/>
	<path class="st0" d="M10.6,30.1c-1,0-1.9-0.4-2.6-1.1s-1-1.6-1-2.6s0.3-1.9,1-2.6s1.5-1.1,2.6-1.1s1.9,0.4,2.6,1.1
		c0.7,0.7,1,1.6,1,2.6s-0.3,1.9-1,2.6C12.4,29.8,11.6,30.1,10.6,30.1z M10.6,29.2c0.7,0,1.4-0.3,1.9-0.8s0.7-1.2,0.7-2
		s-0.2-1.4-0.7-2s-1.1-0.8-1.9-0.8s-1.4,0.3-1.9,0.8C8.2,25,8,25.6,8,26.4s0.2,1.4,0.7,2C9.2,28.9,9.8,29.2,10.6,29.2z"/>
	<path class="st0" d="M19.1,30.1c-1,0-1.9-0.4-2.6-1.1c-0.7-0.7-1-1.6-1-2.6s0.3-1.9,1-2.6c0.7-0.7,1.5-1.1,2.6-1.1
		c1,0,1.9,0.4,2.6,1.1s1,1.6,1,2.6s-0.3,1.9-1,2.6C20.9,29.8,20.1,30.1,19.1,30.1z M19.1,29.2c0.7,0,1.4-0.3,1.9-0.8s0.7-1.2,0.7-2
		s-0.2-1.4-0.7-2s-1.1-0.8-1.9-0.8c-0.7,0-1.4,0.3-1.9,0.8s-0.7,1.2-0.7,2s0.2,1.4,0.7,2S18.3,29.2,19.1,29.2z"/>
	<path class="st0" d="M27.1,26.3h3.2V30h-0.6l-0.2-0.8h-0.1c-0.6,0.6-1.3,0.9-2.2,0.9c-1,0-1.8-0.3-2.4-1c-0.5-0.6-0.8-1.5-0.8-2.5
		c0-1.1,0.3-2,0.9-2.8c0.6-0.7,1.4-1.1,2.4-1.1c0.9,0,1.6,0.2,2.1,0.6s0.8,1,0.9,1.6h-1c-0.1-0.4-0.3-0.7-0.6-1
		c-0.3-0.3-0.8-0.4-1.3-0.4c-0.7,0-1.3,0.3-1.7,0.8C25.2,25,25,25.7,25,26.5s0.2,1.5,0.6,2s1,0.8,1.8,0.8c0.4,0,0.8-0.1,1.2-0.3
		c0.3-0.2,0.6-0.4,0.8-0.6v-1.3h-2.2L27.1,26.3L27.1,26.3z"/>
	<path class="st0" d="M36.7,30l-0.6-1.8h-3L32.5,30h-1l2.5-7.2h1.3l2.4,7.2H36.7z M33.4,27.3h2.4l-1.2-3.4h-0.1L33.4,27.3z"/>
	<path class="st0" d="M39.8,29.1h3.8V30h-4.7v-7.2h4.6v0.9h-3.7V26H43v0.8h-3.2V29.1z"/>
	<path class="st0" d="M49.9,30h-1.1l-1.7-2.9l0,0h-1.4V30h-0.9v-7.2h2.5c0.7,0,1.2,0.2,1.7,0.6c0.4,0.4,0.6,0.9,0.6,1.5
		c0,0.5-0.1,0.9-0.4,1.2c-0.3,0.4-0.6,0.6-1.1,0.8L49.9,30z M45.7,23.7v2.5h1.4c0.5,0,0.9-0.1,1.1-0.3c0.3-0.2,0.4-0.5,0.4-0.9
		s-0.1-0.7-0.4-0.9c-0.3-0.2-0.6-0.3-1.1-0.3L45.7,23.7L45.7,23.7z"/>
	<path class="st0" d="M53.3,22.8c1.2,0,2.1,0.3,2.7,1c0.6,0.6,0.9,1.5,0.9,2.6s-0.3,2-0.9,2.7c-0.6,0.7-1.5,1-2.7,1h-2.1v-7.3H53.3z
		 M53.3,29.1c0.9,0,1.5-0.2,2-0.7c0.4-0.5,0.7-1.2,0.7-2s-0.2-1.4-0.7-1.9s-1.1-0.7-2-0.7h-1.2v5.4L53.3,29.1L53.3,29.1z"/>
	<path class="st0" d="M63.1,22.8v0.9H61V30h-1v-6.3h-2v-0.9C58,22.8,63.1,22.8,63.1,22.8z"/>
	<path class="st0" d="M68.6,22.3l-3.7,8.2h-1l3.7-8.2H68.6z"/>
	<path class="st0" d="M74.4,22.8h1L73,30h-1.4l-2.5-7.2h1l2.2,6.2h0.1L74.4,22.8z"/>
	<path class="st0" d="M81.3,30l-0.6-1.8h-3L77.1,30h-1l2.5-7.2h1.3l2.4,7.2H81.3z M78,27.3h2.4l-1.2-3.4h-0.1L78,27.3z"/>
	<path class="st0" d="M88.4,22.8h0.9V30h-1l-3.8-5.6h-0.1V30h-0.9v-7.2h1.1l3.7,5.6h0.1C88.4,28.4,88.4,22.8,88.4,22.8z"/>
	<path class="st0" d="M93.1,22.8c1.2,0,2.1,0.3,2.7,1c0.6,0.6,0.9,1.5,0.9,2.6s-0.3,2-0.9,2.7s-1.5,1-2.7,1H91v-7.3H93.1z
		 M93.1,29.1c0.9,0,1.5-0.2,2-0.7c0.4-0.5,0.7-1.2,0.7-2s-0.2-1.4-0.7-1.9s-1.1-0.7-2-0.7h-1.2v5.4L93.1,29.1L93.1,29.1z"/>
	<path class="st0" d="M99.2,29.1h3.8V30h-4.7v-7.2h4.6v0.9h-3.7V26h3.2v0.8h-3.2C99.2,26.8,99.2,29.1,99.2,29.1z"/>
	<path class="st0" d="M109.3,30h-1.1l-1.7-2.9l0,0h-1.4V30h-0.9v-7.2h2.5c0.7,0,1.3,0.2,1.7,0.6c0.4,0.4,0.6,0.9,0.6,1.5
		c0,0.5-0.1,0.9-0.4,1.2c-0.3,0.4-0.6,0.6-1.1,0.8L109.3,30z M105.1,23.7v2.5h1.4c0.5,0,0.9-0.1,1.1-0.3c0.3-0.2,0.4-0.5,0.4-0.9
		s-0.1-0.7-0.4-0.9c-0.3-0.2-0.6-0.3-1.1-0.3L105.1,23.7L105.1,23.7z"/>
	<path class="st0" d="M115.4,28.2c0,0.6-0.2,1.1-0.7,1.4c-0.4,0.3-1,0.5-1.8,0.5s-1.5-0.2-1.9-0.6c-0.5-0.4-0.7-1-0.7-1.6h1
		c0,0.4,0.2,0.8,0.4,1c0.3,0.3,0.7,0.4,1.2,0.4c0.4,0,0.8-0.1,1-0.3c0.3-0.2,0.4-0.5,0.4-0.8s-0.1-0.6-0.4-0.8
		c-0.2-0.2-0.7-0.4-1.3-0.6c-0.7-0.2-1.2-0.5-1.6-0.8s-0.6-0.7-0.6-1.3c0-0.6,0.2-1.1,0.6-1.4c0.4-0.4,1-0.5,1.6-0.5
		c0.7,0,1.3,0.2,1.8,0.6c0.4,0.4,0.7,0.9,0.7,1.5h-0.9c0-0.3-0.2-0.6-0.4-0.9c-0.3-0.2-0.6-0.4-1.1-0.4c-0.4,0-0.7,0.1-0.9,0.3
		c-0.2,0.2-0.4,0.5-0.4,0.8s0.1,0.6,0.4,0.8c0.2,0.2,0.7,0.4,1.2,0.6c0.8,0.3,1.3,0.6,1.7,0.9C115.3,27.2,115.4,27.7,115.4,28.2z"/>
	<path class="st0" d="M123.3,27.8c-0.1,0.7-0.5,1.2-1.1,1.7c-0.6,0.4-1.2,0.6-2,0.6c-1.1,0-1.9-0.3-2.5-1s-1-1.6-1-2.7
		s0.3-2,0.9-2.7s1.4-1.1,2.4-1.1c0.8,0,1.4,0.2,2,0.6s0.9,1,1,1.7h-1c-0.1-0.4-0.4-0.8-0.7-1.1c-0.3-0.3-0.8-0.4-1.3-0.4
		c-0.7,0-1.3,0.3-1.7,0.8s-0.7,1.2-0.7,2s0.2,1.5,0.7,2c0.4,0.5,1,0.8,1.8,0.8c0.5,0,0.9-0.1,1.3-0.4s0.6-0.6,0.8-1h1.1L123.3,27.8
		L123.3,27.8z"/>
	<path class="st0" d="M129.2,22.8h1V30h-1v-3.2h-3.5V30h-1v-7.2h1V26h3.5V22.8z"/>
	<path class="st0" d="M135.3,30.1c-1,0-1.9-0.4-2.6-1.1c-0.7-0.7-1-1.6-1-2.6s0.3-1.9,1-2.6s1.5-1.1,2.6-1.1s1.9,0.4,2.6,1.1
		c0.7,0.7,1,1.6,1,2.6s-0.3,1.9-1,2.6C137.2,29.8,136.3,30.1,135.3,30.1z M135.3,29.2c0.7,0,1.4-0.3,1.8-0.8c0.5-0.5,0.7-1.2,0.7-2
		s-0.2-1.4-0.7-2c-0.5-0.5-1.1-0.8-1.9-0.8s-1.4,0.3-1.8,0.8c-0.5,0.5-0.7,1.2-0.7,2s0.2,1.4,0.7,2
		C133.9,28.9,134.5,29.2,135.3,29.2z"/>
	<path class="st0" d="M143.8,30.1c-1,0-1.9-0.4-2.6-1.1c-0.7-0.7-1-1.6-1-2.6s0.3-1.9,1-2.6s1.5-1.1,2.6-1.1s1.9,0.4,2.6,1.1
		c0.7,0.7,1,1.6,1,2.6s-0.3,1.9-1,2.6C145.7,29.8,144.8,30.1,143.8,30.1z M143.8,29.2c0.7,0,1.4-0.3,1.8-0.8c0.5-0.5,0.7-1.2,0.7-2
		s-0.2-1.4-0.7-2c-0.5-0.5-1.1-0.8-1.9-0.8s-1.4,0.3-1.8,0.8c-0.5,0.5-0.7,1.2-0.7,2s0.2,1.4,0.7,2C142.4,28.9,143,29.2,143.8,29.2z
		"/>
	<path class="st0" d="M153.6,22.8v0.9h-2.1V30h-1v-6.3h-2.1v-0.9C148.4,22.8,153.6,22.8,153.6,22.8z"/>
	<path class="st0" d="M6.8,42.3h-1l-1-1c-0.3,0.4-0.6,0.6-1,0.8c-0.3,0.2-0.7,0.3-1.2,0.3c-0.6,0-1-0.2-1.4-0.5s-0.6-0.7-0.6-1.2
		s0.1-0.8,0.4-1.1c0.2-0.3,0.6-0.7,1.2-1C2,38.3,1.9,38.2,1.7,38c-0.1-0.1-0.2-0.3-0.4-0.6c-0.1-0.2-0.2-0.5-0.2-0.7
		c0-0.5,0.2-0.9,0.5-1.2S2.4,35,2.9,35c0.6,0,1,0.2,1.4,0.5S5,36.2,5,36.6c0,0.2,0,0.4-0.1,0.6s-0.2,0.4-0.4,0.5
		C4.3,37.9,4.2,38,4,38.1c-0.1,0.1-0.3,0.3-0.6,0.5L4.7,40l0.8-1.2h1l-1,1.6c0,0,0,0-0.1,0.1s-0.1,0.1-0.1,0.1L6.8,42.3z M2.7,41.6
		c0.5,0,1.1-0.3,1.6-0.9l-1.5-1.6c-0.4,0.3-0.7,0.6-0.9,0.8s-0.3,0.4-0.3,0.7s0.1,0.5,0.3,0.7S2.4,41.6,2.7,41.6z M3.1,35.8
		c-0.3,0-0.5,0.1-0.7,0.3s-0.3,0.4-0.3,0.7c0,0.2,0.1,0.4,0.2,0.6c0.1,0.2,0.3,0.4,0.6,0.7c0.3-0.2,0.5-0.4,0.7-0.5
		c0.1-0.1,0.3-0.3,0.4-0.4c0.1-0.2,0.2-0.3,0.2-0.5c0-0.3-0.1-0.5-0.3-0.6C3.6,35.9,3.4,35.8,3.1,35.8z"/>
	<path class="st0" d="M15.6,35.2V36h-2.1v6.3h-1V36h-2.1v-0.9L15.6,35.2L15.6,35.2z"/>
	<path class="st0" d="M20.3,42.4c-1,0-1.9-0.4-2.6-1.1s-1-1.6-1-2.6c0-1.1,0.3-1.9,1-2.6s1.5-1.1,2.6-1.1c1,0,1.9,0.4,2.6,1.1
		s1,1.6,1,2.6c0,1.1-0.3,1.9-1,2.6C22.2,42.1,21.3,42.4,20.3,42.4z M20.3,41.5c0.7,0,1.4-0.3,1.9-0.8s0.7-1.2,0.7-2s-0.2-1.4-0.7-2
		S21,36,20.3,36s-1.4,0.3-1.9,0.8s-0.7,1.2-0.7,2s0.2,1.4,0.7,2C18.9,41.3,19.6,41.5,20.3,41.5z"/>
	<path class="st0" d="M31.1,35.2v4.4c0,0.9-0.3,1.7-0.8,2.2s-1.2,0.8-2,0.8s-1.5-0.3-2.1-0.8c-0.5-0.5-0.8-1.2-0.8-2.2v-4.4h1v4.3
		c0,0.7,0.2,1.2,0.5,1.5c0.3,0.4,0.8,0.5,1.3,0.5s1-0.2,1.3-0.5s0.5-0.9,0.5-1.5v-4.3H31.1z"/>
	<path class="st0" d="M36.9,42.3l-2.7-3.2h-0.5v3.2h-1v-7.2h1v3h0.5l2.4-3h1.1L35,38.6v0.1l3,3.7L36.9,42.3L36.9,42.3z"/>
	<path class="st0" d="M40.2,35.2v7.2h-1v-7.2H40.2z"/>
	<path class="st0" d="M47,35.2c1.2,0,2.1,0.3,2.7,1c0.6,0.6,0.9,1.5,0.9,2.6s-0.3,2-0.9,2.7c-0.6,0.7-1.5,1-2.7,1h-2.1v-7.2L47,35.2
		L47,35.2z M46.9,41.4c0.9,0,1.5-0.2,2-0.7c0.4-0.5,0.7-1.2,0.7-2s-0.2-1.4-0.7-1.9s-1.1-0.7-2-0.7h-1.2v5.4L46.9,41.4L46.9,41.4z"
		/>
	<path class="st0" d="M53,41.5h3.8v0.9h-4.7v-7.2h4.6V36H53v2.2h3.2V39H53V41.5z"/>
	<path class="st0" d="M59,41.4h3.7v0.9H58v-7.2h1V41.4z"/>
	<path class="st0" d="M66.6,35.2c0.7,0,1.3,0.2,1.7,0.6c0.4,0.4,0.6,0.9,0.6,1.6c0,0.7-0.2,1.2-0.6,1.6s-1,0.6-1.8,0.6h-1.6v2.8H64
		v-7.2C64,35.2,66.6,35.2,66.6,35.2z M66.5,38.7c0.5,0,0.9-0.1,1.1-0.4c0.3-0.2,0.4-0.6,0.4-1s-0.1-0.7-0.4-1
		C67.3,36.1,67,36,66.5,36h-1.6v2.7H66.5z"/>
	<path class="st0" d="M75,35.2h1v7.2h-1v-3.2h-3.5v3.2h-1v-7.2h1v3.1H75V35.2z"/>
	<path class="st0" d="M78.6,35.2v7.2h-1v-7.2H78.6z"/>
	<path class="st0" d="M85.2,35.2h0.9v7.2h-1l-3.8-5.6h-0.1v5.6h-0.9v-7.2h1.1l3.7,5.6h0.1C85.2,40.8,85.2,35.2,85.2,35.2z"/>
	<path class="st0" d="M88.7,41.5h3.8v0.9h-4.7v-7.2h4.6V36h-3.7v2.2h3.2V39h-3.2C88.7,39,88.7,41.5,88.7,41.5z"/>
</g>
<g>
	<path class="st0" d="M4.4,56.4c-1,0-1.8-0.3-2.5-1s-1-1.6-1-2.6s0.3-1.9,1-2.6s1.5-1,2.5-1s1.8,0.3,2.5,1s1,1.6,1,2.6
		s-0.3,1.9-1,2.6S5.4,56.4,4.4,56.4z M4.4,55.5c0.7,0,1.3-0.3,1.8-0.8s0.7-1.2,0.7-1.9c0-0.8-0.2-1.4-0.7-1.9s-1.1-0.8-1.8-0.8
		s-1.3,0.3-1.8,0.8s-0.7,1.2-0.7,1.9c0,0.8,0.2,1.4,0.7,1.9S3.7,55.5,4.4,55.5z"/>
	<path class="st0" d="M11.7,49.3c0.7,0,1.2,0.2,1.6,0.6c0.4,0.4,0.6,0.9,0.6,1.5c0,0.7-0.2,1.2-0.6,1.6c-0.4,0.4-1,0.6-1.7,0.6H10
		v2.7H9.2v-7C9.2,49.3,11.7,49.3,11.7,49.3z M11.5,52.7c0.5,0,0.8-0.1,1.1-0.3s0.4-0.6,0.4-1s-0.1-0.7-0.4-1c-0.3-0.2-0.6-0.3-1-0.3
		h-1.5v2.6H11.5z"/>
	<path class="st0" d="M22.6,49.3v0.8h-2v6.2h-0.9v-6.2h-2v-0.8H22.6z"/>
	<path class="st0" d="M26.9,56.4c-1,0-1.8-0.3-2.5-1s-1-1.6-1-2.6s0.3-1.9,1-2.6s1.5-1,2.5-1s1.8,0.3,2.5,1s1,1.6,1,2.6
		s-0.3,1.9-1,2.6C28.7,56.1,27.9,56.4,26.9,56.4z M26.9,55.5c0.7,0,1.3-0.3,1.8-0.8s0.7-1.2,0.7-1.9c0-0.8-0.2-1.4-0.7-1.9
		s-1.1-0.8-1.8-0.8c-0.7,0-1.3,0.3-1.8,0.8s-0.7,1.2-0.7,1.9c0,0.8,0.2,1.4,0.7,1.9S26.2,55.5,26.9,55.5z"/>
	<path class="st0" d="M37.2,49.3v4.3c0,0.9-0.3,1.6-0.8,2.1s-1.2,0.7-2,0.7s-1.5-0.2-2-0.7s-0.8-1.2-0.8-2.1v-4.3h1v4.3
		c0,0.6,0.2,1.1,0.5,1.5c0.3,0.3,0.8,0.5,1.3,0.5s1-0.2,1.3-0.5s0.5-0.8,0.5-1.5v-4.3H37.2z"/>
	<path class="st0" d="M43.6,56.3h-1l-1.7-2.9l0,0h-1.4v2.9h-0.9v-7H41c0.7,0,1.3,0.2,1.7,0.6c0.4,0.4,0.6,0.9,0.6,1.5
		c0,0.5-0.1,0.9-0.4,1.2c-0.3,0.3-0.6,0.6-1.1,0.7L43.6,56.3z M39.6,50.1v2.5H41c0.5,0,0.8-0.1,1.1-0.3s0.4-0.5,0.4-0.9
		s-0.1-0.7-0.4-0.9c-0.3-0.2-0.6-0.3-1.1-0.3L39.6,50.1L39.6,50.1z"/>
	<path class="st0" d="M49.5,49.3h0.9v7h-1l-3.7-5.5h-0.1v5.5h-0.9v-7h1.1l3.6,5.4h0.1C49.5,54.7,49.5,49.3,49.5,49.3z"/>
	<path class="st0" d="M52.7,55.4h3.6v0.9h-4.5v-7h4.4v0.9h-3.5v2.2h3.1v0.8h-3.1V55.4z"/>
	<path class="st0" d="M58.3,55.4H62v0.9h-4.5v-7h4.4v0.9h-3.5v2.2h3.1v0.8h-3.1v2.2C58.4,55.4,58.3,55.4,58.3,55.4z"/>
	<path class="st0" d="M67.8,49.3c1.1,0,2,0.3,2.6,0.9c0.6,0.6,0.9,1.5,0.9,2.5c0,1.1-0.3,2-0.9,2.6s-1.5,1-2.6,1h-2.1v-7H67.8z
		 M67.8,55.4c0.9,0,1.5-0.2,1.9-0.7s0.6-1.1,0.6-2c0-0.8-0.2-1.4-0.7-1.9s-1.1-0.7-1.9-0.7h-1.1v5.3C66.6,55.4,67.8,55.4,67.8,55.4z
		"/>
	<path class="st0" d="M75.9,56.4c-1,0-1.8-0.3-2.5-1s-1-1.6-1-2.6s0.3-1.9,1-2.6s1.5-1,2.5-1s1.8,0.3,2.5,1s1,1.6,1,2.6
		s-0.3,1.9-1,2.6C77.7,56.1,76.9,56.4,75.9,56.4z M75.9,55.5c0.7,0,1.3-0.3,1.8-0.8s0.7-1.2,0.7-1.9c0-0.8-0.2-1.4-0.7-1.9
		s-1.1-0.8-1.8-0.8c-0.7,0-1.3,0.3-1.8,0.8s-0.7,1.2-0.7,1.9c0,0.8,0.2,1.4,0.7,1.9S75.2,55.5,75.9,55.5z"/>
	<path class="st0" d="M84,56.4c-1,0-1.8-0.3-2.5-1s-1-1.6-1-2.6s0.3-1.9,1-2.6s1.5-1,2.5-1s1.8,0.3,2.5,1s1,1.6,1,2.6
		s-0.3,1.9-1,2.6S85,56.4,84,56.4z M84,55.5c0.7,0,1.3-0.3,1.8-0.8s0.7-1.2,0.7-1.9c0-0.8-0.2-1.4-0.7-1.9s-1.1-0.8-1.8-0.8
		c-0.7,0-1.3,0.3-1.8,0.8s-0.7,1.2-0.7,1.9c0,0.8,0.2,1.4,0.7,1.9S83.3,55.5,84,55.5z"/>
	<path class="st0" d="M93.8,56.3h-1l-1.7-2.9l0,0h-1.4v2.9h-0.9v-7h2.4c0.7,0,1.3,0.2,1.7,0.6c0.4,0.4,0.6,0.9,0.6,1.5
		c0,0.5-0.1,0.9-0.4,1.2s-0.6,0.6-1.1,0.7L93.8,56.3z M89.7,50.1v2.5h1.4c0.5,0,0.8-0.1,1.1-0.3c0.3-0.2,0.4-0.5,0.4-0.9
		s-0.1-0.7-0.4-0.9s-0.6-0.3-1.1-0.3L89.7,50.1L89.7,50.1z"/>
	<path class="st0" d="M102.3,49.3h0.9v7h-1l-3.7-5.5h-0.1v5.5h-0.9v-7h1.1l3.6,5.4h0.1V49.3z"/>
	<path class="st0" d="M105.6,55.4h3.6v0.9h-4.5v-7h4.4v0.9h-3.5v2.2h3.1v0.8h-3.1V55.4z"/>
	<path class="st0" d="M112.3,49.3c1.1,0,2,0.3,2.6,0.9c0.6,0.6,0.9,1.5,0.9,2.5c0,1.1-0.3,2-0.9,2.6s-1.5,1-2.6,1h-2.1v-7H112.3z
		 M112.3,55.4c0.9,0,1.5-0.2,1.9-0.7s0.6-1.1,0.6-2c0-0.8-0.2-1.4-0.7-1.9c-0.4-0.5-1.1-0.7-1.9-0.7h-1.1v5.3
		C111.1,55.4,112.3,55.4,112.3,55.4z"/>
	<path class="st0" d="M118,55.4h3.6v0.9h-4.5v-7h4.4v0.9H118v2.2h3.1v0.8H118V55.4z"/>
	<path class="st0" d="M127.7,56.3h-1l-1.7-2.9l0,0h-1.4v2.9h-0.9v-7h2.4c0.7,0,1.3,0.2,1.7,0.6c0.4,0.4,0.6,0.9,0.6,1.5
		c0,0.5-0.1,0.9-0.4,1.2s-0.6,0.6-1.1,0.7L127.7,56.3z M123.6,50.1v2.5h1.4c0.5,0,0.8-0.1,1.1-0.3c0.3-0.2,0.4-0.5,0.4-0.9
		s-0.1-0.7-0.4-0.9s-0.6-0.3-1.1-0.3L123.6,50.1L123.6,50.1z"/>
	<path class="st0" d="M129.8,55.4h3.6v0.9h-4.6v-7h1V55.4z"/>
	<path class="st0" d="M139,56.3l-0.6-1.8h-2.9l-0.6,1.8h-1l2.4-7h1.2l2.4,7H139z M135.8,53.7h2.3l-1.1-3.4h-0.1L135.8,53.7z"/>
	<path class="st0" d="M145.7,49.3h0.9v7h-1l-3.7-5.5h-0.1v5.5h-0.9v-7h1.1l3.6,5.4h0.1L145.7,49.3L145.7,49.3z"/>
	<path class="st0" d="M150.1,49.3c1.1,0,2,0.3,2.6,0.9c0.6,0.6,0.9,1.5,0.9,2.5c0,1.1-0.3,2-0.9,2.6c-0.6,0.6-1.5,1-2.6,1H148v-7
		H150.1z M150.1,55.4c0.9,0,1.5-0.2,1.9-0.7s0.6-1.1,0.6-2c0-0.8-0.2-1.4-0.7-1.9s-1.1-0.7-1.9-0.7h-1v5.3
		C149,55.4,150.1,55.4,150.1,55.4z"/>
</g>
<g>
	<path class="st0" d="M3.4,63.8c0.7,0,1.2,0.2,1.6,0.6c0.4,0.4,0.6,1,0.6,1.7s-0.2,1.2-0.7,1.6c-0.4,0.4-1,0.6-1.7,0.6
		s-1.3-0.2-1.7-0.6C1.2,67.4,1,66.9,1,66.3h0.9c0,0.4,0.2,0.7,0.4,1c0.2,0.2,0.6,0.4,0.9,0.4c0.4,0,0.7-0.1,1-0.4s0.4-0.6,0.4-1
		s-0.1-0.8-0.4-1.1c-0.3-0.3-0.6-0.4-1-0.4c-0.6,0-1.1,0.2-1.4,0.7L1,65.3l0.4-3.6h3.8v0.9h-3L2,64.5C2.4,64,2.9,63.8,3.4,63.8z"/>
	<path class="st0" d="M14.5,61.8h-3.6v2.4H14v0.9h-3.1v3.2h-1v-7.5h4.6V61.8z"/>
	<path class="st0" d="M16.6,67.4h3.9v0.9h-4.8v-7.5h4.7v0.9h-3.7V64H20v1h-3.3L16.6,67.4L16.6,67.4z"/>
	<path class="st0" d="M25.3,64.4c1,0.3,1.4,0.9,1.4,1.9c0,0.7-0.2,1.2-0.7,1.5s-1,0.5-1.7,0.5h-2.6v-7.5h2.4c0.7,0,1.3,0.2,1.7,0.5
		c0.4,0.3,0.6,0.8,0.6,1.4C26.4,63.5,26,64.1,25.3,64.4L25.3,64.4z M22.6,61.7V64H24c0.5,0,0.8-0.1,1-0.3s0.4-0.5,0.4-0.9
		S25.3,62.1,25,62c-0.3-0.2-0.6-0.3-1-0.3H22.6z M24.2,67.5c0.5,0,0.8-0.1,1.1-0.3c0.3-0.2,0.4-0.5,0.4-0.9s-0.1-0.7-0.4-1
		s-0.6-0.4-1.1-0.4h-1.6v2.6C22.6,67.5,24.2,67.5,24.2,67.5z"/>
	<path class="st0" d="M30.4,64.6h3.8v0.8h-3.8C30.4,65.4,30.4,64.6,30.4,64.6z"/>
	<path class="st0" d="M40.8,65.5c-1,0.6-1.5,1.3-1.6,1.9h3.2v0.9H38v-0.4c0-1.1,0.6-2.1,1.9-2.9c0.7-0.4,1.1-0.8,1.3-0.9
		c0.2-0.2,0.4-0.5,0.4-0.8s-0.1-0.6-0.3-0.8s-0.5-0.3-0.9-0.3s-0.8,0.1-1,0.4c-0.2,0.3-0.3,0.6-0.4,1h-1c0-0.4,0.1-0.7,0.2-1.1
		c0.2-0.3,0.4-0.6,0.8-0.9c0.4-0.2,0.8-0.4,1.3-0.4c0.6,0,1.1,0.2,1.6,0.5c0.4,0.4,0.6,0.8,0.6,1.4c0,0.5-0.1,0.9-0.4,1.2
		C41.8,64.8,41.4,65.2,40.8,65.5z"/>
	<path class="st0" d="M45.8,65.9c-0.5,0-1-0.2-1.4-0.6s-0.6-0.9-0.6-1.6c0-0.7,0.2-1.2,0.6-1.6c0.4-0.4,1-0.6,1.7-0.6
		s1.3,0.2,1.7,0.6c0.4,0.4,0.6,1,0.6,1.7c0,0.4-0.1,0.7-0.2,1.1c-0.1,0.3-0.4,0.7-0.7,1.2L46,68.4h-1.1l1.9-2.8
		C46.6,65.8,46.2,65.9,45.8,65.9z M46.1,62.3c-0.4,0-0.7,0.1-1,0.4c-0.3,0.3-0.4,0.6-0.4,1c0,0.4,0.1,0.7,0.4,1
		c0.2,0.3,0.6,0.4,1,0.4s0.8-0.1,1-0.4s0.4-0.6,0.4-1s-0.1-0.7-0.4-1C46.8,62.4,46.5,62.3,46.1,62.3z"/>
	<path class="st0" d="M57.1,61.8h-3.6v2.4h3.1v0.9h-3.1v3.2h-1v-7.5h4.6V61.8z"/>
	<path class="st0" d="M59.3,67.4h3.9v0.9h-4.8v-7.5H63v0.9h-3.7V64h3.3v1h-3.3V67.4z"/>
	<path class="st0" d="M67.9,64.4c1,0.3,1.4,0.9,1.4,1.9c0,0.7-0.2,1.2-0.7,1.5s-1,0.5-1.7,0.5h-2.6v-7.5h2.4c0.7,0,1.3,0.2,1.7,0.5
		c0.4,0.3,0.6,0.8,0.6,1.4C69,63.5,68.7,64.1,67.9,64.4L67.9,64.4z M65.3,61.7V64h1.4c0.5,0,0.8-0.1,1-0.3s0.4-0.5,0.4-0.9
		S68,62.1,67.7,62c-0.3-0.2-0.6-0.3-1-0.3H65.3z M66.8,67.5c0.5,0,0.8-0.1,1.1-0.3c0.3-0.2,0.4-0.5,0.4-0.9s-0.1-0.7-0.4-1
		c-0.3-0.2-0.6-0.4-1.1-0.4h-1.6v2.6C65.2,67.5,66.8,67.5,66.8,67.5z"/>
</g>
<g>
	<path class="st0" d="M5.8,4.6c0.5,0.2,1,0.4,1.3,0.8C7.4,5.8,7.6,6.3,7.6,7c0,0.9-0.3,1.5-0.9,1.9C6.1,9.3,5.4,9.5,4.5,9.5H0.9V0.2
		h3.3c0.8,0,1.5,0.2,2.1,0.6c0.5,0.4,0.8,1,0.8,1.7c0,0.9-0.4,1.6-1.3,1.9V4.6z M2.6,1.8V4h1.5c0.4,0,0.7-0.1,0.9-0.3
		c0.2-0.2,0.3-0.5,0.3-0.8c0-0.3-0.1-0.6-0.3-0.8C4.8,1.9,4.5,1.8,4.2,1.8H2.6z M4.2,8c0.5,0,0.9-0.1,1.2-0.3
		c0.3-0.2,0.4-0.5,0.4-0.9c0-0.4-0.1-0.7-0.4-1C5.1,5.6,4.7,5.4,4.2,5.4H2.6V8H4.2z"/>
	<path class="st0" d="M14.7,8.7c-0.7,0.6-1.5,1-2.5,1s-1.8-0.3-2.5-1c-0.7-0.6-1-1.5-1-2.5c0-1,0.3-1.8,1-2.5c0.7-0.6,1.5-1,2.5-1
		s1.8,0.3,2.5,1s1,1.5,1,2.5C15.7,7.2,15.4,8.1,14.7,8.7z M12.2,8.1c0.5,0,0.9-0.2,1.3-0.6C13.8,7.2,14,6.8,14,6.2s-0.2-1-0.5-1.4
		c-0.3-0.4-0.8-0.6-1.3-0.6S11.3,4.5,11,4.8c-0.3,0.4-0.5,0.8-0.5,1.4s0.2,1,0.5,1.4C11.3,8,11.7,8.1,12.2,8.1z"/>
	<path class="st0" d="M21.4,9.3c-0.4,0.2-0.8,0.4-1.3,0.4c-1.3,0-2-0.7-2-2.1V4.3h-1.3V3h0.4c0.3,0,0.6-0.1,0.8-0.2s0.3-0.4,0.3-0.7
		V1.2h1.6v1.7h1.6v1.4h-1.6v3.1c0,0.5,0.2,0.8,0.6,0.8c0.2,0,0.4-0.1,0.6-0.2L21.4,9.3z"/>
	<path class="st0" d="M28.3,7.5c0,0.2,0,0.4,0.1,0.5c0.1,0.1,0.2,0.1,0.4,0.1v1.4h-0.3c-0.8,0-1.2-0.3-1.4-0.9c-0.5,0.7-1.3,1-2.3,1
		c-0.7,0-1.3-0.2-1.7-0.5c-0.4-0.3-0.6-0.8-0.6-1.4c0-1.3,1-2.1,3-2.2l1.2-0.1V5.3c0-0.4-0.1-0.7-0.3-0.9c-0.2-0.2-0.5-0.3-0.8-0.3
		c-0.4,0-0.6,0.1-0.8,0.3s-0.3,0.5-0.3,0.7h-1.6c0.1-0.7,0.3-1.3,0.8-1.7c0.5-0.4,1.2-0.7,2-0.7c0.8,0,1.5,0.2,2,0.7
		c0.5,0.5,0.8,1.1,0.8,2V7.5z M25.1,8.3c0.4,0,0.8-0.1,1.1-0.4s0.5-0.7,0.5-1.1V6.6l-0.8,0.1c-1.1,0.1-1.6,0.4-1.6,1
		c0,0.2,0.1,0.4,0.2,0.5C24.6,8.3,24.8,8.3,25.1,8.3z"/>
	<path class="st0" d="M34,2.8c0.8,0,1.4,0.3,1.9,0.8c0.5,0.5,0.7,1.3,0.7,2.2v3.8h-1.8V6.1c0-0.6-0.1-1-0.4-1.3
		c-0.3-0.3-0.6-0.4-1-0.4c-0.4,0-0.7,0.1-1,0.4c-0.3,0.3-0.4,0.7-0.4,1.3v3.5h-1.8V2.9h1.4l0.2,0.8h0.1c0.1-0.2,0.3-0.3,0.4-0.4
		c0.1-0.1,0.3-0.2,0.6-0.3C33.2,2.8,33.6,2.8,34,2.8z"/>
	<path class="st0" d="M39.2,2.1c-0.3,0-0.6-0.1-0.8-0.3c-0.2-0.2-0.3-0.5-0.3-0.8c0-0.3,0.1-0.6,0.3-0.8c0.2-0.2,0.5-0.3,0.8-0.3
		s0.6,0.1,0.8,0.3c0.2,0.2,0.3,0.5,0.3,0.8c0,0.3-0.1,0.5-0.3,0.8C39.7,2,39.5,2.1,39.2,2.1z M40,2.9v6.6h-1.7V2.9H40z"/>
	<path class="st0" d="M48.2,7.2c-0.1,0.7-0.4,1.3-1,1.8c-0.6,0.5-1.3,0.7-2.1,0.7c-1.1,0-1.9-0.3-2.5-1c-0.6-0.6-0.9-1.5-0.9-2.5
		c0-1,0.3-1.8,1-2.5c0.7-0.7,1.5-1,2.4-1c0.8,0,1.5,0.2,2.1,0.7c0.6,0.5,0.9,1.1,1,1.9h-1.7c-0.1-0.3-0.2-0.6-0.5-0.8
		c-0.2-0.2-0.6-0.3-1-0.3c-0.5,0-0.9,0.2-1.2,0.5c-0.3,0.4-0.5,0.8-0.5,1.4s0.1,1.1,0.4,1.4C44,8,44.4,8.2,45,8.2
		c0.4,0,0.7-0.1,0.9-0.3c0.2-0.2,0.4-0.4,0.5-0.7H48.2z"/>
	<path class="st0" d="M55.2,7.5c0,0.2,0,0.4,0.1,0.5c0.1,0.1,0.2,0.1,0.4,0.1v1.4h-0.3c-0.8,0-1.2-0.3-1.4-0.9c-0.5,0.7-1.3,1-2.3,1
		c-0.7,0-1.3-0.2-1.7-0.5c-0.4-0.3-0.6-0.8-0.6-1.4c0-1.3,1-2.1,3-2.2l1.2-0.1V5.3c0-0.4-0.1-0.7-0.3-0.9c-0.2-0.2-0.5-0.3-0.8-0.3
		c-0.4,0-0.6,0.1-0.8,0.3c-0.2,0.2-0.3,0.5-0.3,0.7h-1.6c0.1-0.7,0.3-1.3,0.8-1.7c0.5-0.4,1.1-0.7,2-0.7c0.8,0,1.5,0.2,2,0.7
		c0.5,0.5,0.8,1.1,0.8,2V7.5z M51.9,8.3c0.4,0,0.8-0.1,1.1-0.4c0.3-0.3,0.5-0.7,0.5-1.1V6.6l-0.8,0.1c-1.1,0.1-1.6,0.4-1.6,1
		c0,0.2,0.1,0.4,0.2,0.5C51.4,8.3,51.7,8.3,51.9,8.3z"/>
	<path class="st0" d="M57,0.1h1.8v9.4H57V0.1z"/>
	<path class="st0" d="M73.7,0.2h1.7l-1.7,9.3h-2.5l-1.5-6.1h-0.1L68,9.5h-2.5l-1.7-9.3h1.7l1.2,7h0.1l1.5-6.3h2.2l1.5,6.3h0.1
		L73.7,0.2z"/>
	<path class="st0" d="M82.2,7.5c0,0.2,0,0.4,0.1,0.5c0.1,0.1,0.2,0.1,0.4,0.1v1.4h-0.3c-0.8,0-1.2-0.3-1.4-0.9c-0.5,0.7-1.3,1-2.3,1
		c-0.7,0-1.3-0.2-1.7-0.5c-0.4-0.3-0.6-0.8-0.6-1.4c0-1.3,1-2.1,3-2.2l1.2-0.1V5.3c0-0.4-0.1-0.7-0.3-0.9c-0.2-0.2-0.5-0.3-0.8-0.3
		c-0.4,0-0.6,0.1-0.8,0.3c-0.2,0.2-0.3,0.5-0.3,0.7h-1.6c0.1-0.7,0.3-1.3,0.8-1.7c0.5-0.4,1.2-0.7,2-0.7c0.8,0,1.5,0.2,2,0.7
		c0.5,0.5,0.8,1.1,0.8,2V7.5z M78.9,8.3c0.4,0,0.8-0.1,1.1-0.4c0.3-0.3,0.5-0.7,0.5-1.1V6.6l-0.8,0.1c-1.1,0.1-1.6,0.4-1.6,1
		c0,0.2,0.1,0.4,0.2,0.5C78.4,8.3,78.6,8.3,78.9,8.3z"/>
	<path class="st0" d="M89.2,7.7c0,0.6-0.2,1.1-0.7,1.5c-0.5,0.3-1.1,0.5-1.9,0.5c-0.8,0-1.5-0.2-2-0.6c-0.5-0.4-0.8-1-0.8-1.7h1.7
		c0,0.4,0.1,0.6,0.4,0.8c0.2,0.2,0.5,0.3,0.8,0.3c0.3,0,0.5-0.1,0.6-0.2c0.2-0.1,0.3-0.3,0.3-0.5c0-0.2-0.1-0.4-0.3-0.6
		c-0.2-0.1-0.5-0.3-1-0.4c-0.3-0.1-0.6-0.2-0.8-0.3c-0.2-0.1-0.4-0.2-0.7-0.3c-0.3-0.2-0.5-0.3-0.6-0.6c-0.1-0.2-0.2-0.5-0.2-0.8
		c0-0.6,0.2-1.1,0.7-1.5c0.5-0.4,1.1-0.6,1.8-0.6c0.8,0,1.4,0.2,1.8,0.6C88.7,3.8,89,4.3,89,4.9h-1.6c0-0.2-0.1-0.4-0.3-0.6
		c-0.2-0.1-0.4-0.2-0.7-0.2c-0.2,0-0.4,0.1-0.6,0.2c-0.1,0.1-0.2,0.3-0.2,0.4c0,0.2,0.1,0.4,0.3,0.5c0.2,0.1,0.5,0.3,1,0.4
		c0.7,0.2,1.3,0.5,1.7,0.8C89,6.7,89.2,7.1,89.2,7.7z"/>
	<path class="st0" d="M94.8,9.3c-0.4,0.2-0.8,0.4-1.3,0.4c-1.3,0-2-0.7-2-2.1V4.3h-1.3V3h0.4c0.3,0,0.6-0.1,0.8-0.2s0.3-0.4,0.3-0.7
		V1.2h1.6v1.7h1.6v1.4h-1.6v3.1c0,0.5,0.2,0.8,0.6,0.8c0.2,0,0.4-0.1,0.6-0.2L94.8,9.3z"/>
	<path class="st0" d="M100.8,7.4h1.6c-0.2,0.7-0.5,1.2-1.1,1.6c-0.6,0.4-1.3,0.6-2,0.6c-1,0-1.9-0.3-2.5-1c-0.6-0.6-0.9-1.5-0.9-2.5
		c0-1,0.3-1.8,0.9-2.5c0.6-0.6,1.4-1,2.3-1c0.5,0,0.9,0.1,1.3,0.2c0.4,0.1,0.7,0.4,1.1,0.7c0.3,0.3,0.5,0.7,0.7,1.2s0.2,1.1,0.2,1.8
		h-4.8c0.2,1.1,0.7,1.6,1.8,1.6c0.3,0,0.6-0.1,0.9-0.2C100.5,7.9,100.7,7.7,100.8,7.4z M99.2,4.1c-0.4,0-0.8,0.1-1,0.3
		c-0.3,0.2-0.5,0.6-0.6,1h3.2c0-0.4-0.2-0.7-0.4-0.9C100,4.3,99.7,4.1,99.2,4.1z"/>
	<path class="st0" d="M103.9,0.1h1.8v9.4h-1.8V0.1z"/>
	<path class="st0" d="M113,7.5c0,0.2,0,0.4,0.1,0.5s0.2,0.1,0.4,0.1v1.4h-0.3c-0.8,0-1.2-0.3-1.4-0.9c-0.5,0.7-1.3,1-2.3,1
		c-0.7,0-1.3-0.2-1.7-0.5c-0.4-0.3-0.6-0.8-0.6-1.4c0-1.3,1-2.1,3-2.2l1.2-0.1V5.3c0-0.4-0.1-0.7-0.3-0.9c-0.2-0.2-0.5-0.3-0.8-0.3
		c-0.4,0-0.6,0.1-0.8,0.3c-0.2,0.2-0.3,0.5-0.3,0.7h-1.6c0.1-0.7,0.3-1.3,0.8-1.7c0.5-0.4,1.1-0.7,2-0.7c0.8,0,1.5,0.2,2,0.7
		c0.5,0.5,0.8,1.1,0.8,2V7.5z M109.7,8.3c0.4,0,0.8-0.1,1.1-0.4c0.3-0.3,0.5-0.7,0.5-1.1V6.6l-0.8,0.1c-1.1,0.1-1.6,0.4-1.6,1
		c0,0.2,0.1,0.4,0.2,0.5S109.4,8.3,109.7,8.3z"/>
	<path class="st0" d="M118.6,2.8c0.8,0,1.4,0.3,1.9,0.8c0.5,0.5,0.7,1.3,0.7,2.2v3.8h-1.8V6.1c0-0.6-0.1-1-0.4-1.3
		c-0.3-0.3-0.6-0.4-1-0.4c-0.4,0-0.7,0.1-1,0.4c-0.3,0.3-0.4,0.7-0.4,1.3v3.5h-1.8V2.9h1.4l0.2,0.8h0.1c0.1-0.2,0.3-0.3,0.4-0.4
		c0.1-0.1,0.3-0.2,0.6-0.3C117.9,2.8,118.2,2.8,118.6,2.8z"/>
	<path class="st0" d="M127.5,0.1h1.7v9.5h-1.3l-0.2-0.8h-0.2c-0.5,0.6-1.1,0.9-1.9,0.9c-0.9,0-1.6-0.3-2.2-0.9
		c-0.6-0.6-0.9-1.5-0.9-2.5c0-1,0.3-1.9,0.9-2.5c0.6-0.6,1.3-1,2.2-1c0.8,0,1.4,0.3,1.8,0.8V0.1z M124.7,7.6
		c0.3,0.4,0.7,0.5,1.2,0.5c0.5,0,0.9-0.2,1.2-0.5s0.4-0.8,0.4-1.4s-0.1-1-0.4-1.4s-0.7-0.5-1.2-0.5c-0.5,0-0.9,0.2-1.2,0.5
		s-0.5,0.8-0.5,1.4C124.3,6.8,124.4,7.2,124.7,7.6z"/>
</g>
</svg>
