<?xml version="1.0" encoding="utf-8"?>
<!-- Generator: Adobe Illustrator 24.3.0, SVG Export Plug-In . SVG Version: 6.00 Build 0)  -->
<svg version="1.1" id="Laag_1" xmlns="http://www.w3.org/2000/svg" xmlns:xlink="http://www.w3.org/1999/xlink" x="0px" y="0px"
	 width="52.3px" height="12.2px" viewBox="0 0 52.3 12.2" style="enable-background:new 0 0 52.3 12.2;" xml:space="preserve">
<style type="text/css">
	.st0{fill:#EAFF00;}
</style>
<g>
	<path class="st0" d="M7.1,0.1v1.1H4.4v8.3H3.1V1.3H0.4V0.1H7.1z"/>
	<path class="st0" d="M9.9,0.1v9.4H8.7V0.1H9.9z"/>
	<path class="st0" d="M20.2,6.7c-0.2,0.9-0.6,1.6-1.4,2.2c-0.7,0.5-1.6,0.8-2.6,0.8c-1.4,0-2.4-0.4-3.3-1.3s-1.2-2-1.2-3.5
		c0-1.4,0.4-2.5,1.2-3.5C13.8,0.5,14.9,0,16.2,0c1,0,1.8,0.3,2.6,0.8c0.7,0.5,1.2,1.3,1.3,2.3h-1.3c-0.2-0.6-0.5-1-0.9-1.4
		c-0.4-0.3-1-0.5-1.7-0.5c-0.9,0-1.7,0.4-2.2,1.1c-0.6,0.7-0.8,1.6-0.8,2.6c0,1.1,0.3,2,0.9,2.6c0.6,0.7,1.3,1,2.3,1
		c0.6,0,1.2-0.2,1.7-0.5c0.5-0.3,0.8-0.8,1-1.3H20.2z"/>
	<path class="st0" d="M27.4,9.5l-3.5-4.2h-0.7v4.2H22V0.1h1.2v4h0.7l3.1-4h1.5l-3.5,4.5v0.1l3.9,4.8H27.4z"/>
	<path class="st0" d="M31.4,8.4h4.9v1.1h-6.1V0.1h5.9v1.1h-4.7v2.9h4.2v1.1h-4.2V8.4z"/>
	<path class="st0" d="M44,0.1v1.1h-2.7v8.3H40V1.3h-2.7V0.1H44z"/>
	<path class="st0" d="M51.6,7.2c0,0.8-0.3,1.4-0.9,1.8s-1.3,0.6-2.3,0.6c-1.1,0-1.9-0.3-2.5-0.8S45.1,7.6,45,6.7h1.3
		c0,0.6,0.2,1,0.6,1.4s0.9,0.5,1.6,0.5c0.5,0,1-0.1,1.3-0.4c0.3-0.2,0.5-0.6,0.5-1.1c0-0.4-0.2-0.8-0.5-1.1
		c-0.3-0.3-0.9-0.6-1.7-0.8c-0.9-0.3-1.6-0.6-2.1-1s-0.7-0.9-0.7-1.6c0-0.8,0.3-1.4,0.8-1.9C46.7,0.2,47.4,0,48.3,0
		c1,0,1.7,0.3,2.3,0.8c0.6,0.5,0.8,1.2,0.9,2h-1.2c0-0.5-0.2-0.8-0.5-1.2s-0.8-0.5-1.4-0.5c-0.5,0-0.9,0.1-1.2,0.4
		c-0.3,0.3-0.5,0.6-0.5,1c0,0.4,0.2,0.7,0.5,1c0.3,0.2,0.9,0.5,1.6,0.7c1,0.3,1.7,0.7,2.2,1.2S51.6,6.5,51.6,7.2z"/>
	<path class="st0" d="M0,12.2v-0.7h52.3v0.7H0z"/>
</g>
</svg>
