<?xml version="1.0" encoding="utf-8"?>
<!-- Generator: Adobe Illustrator 24.3.0, SVG Export Plug-In . SVG Version: 6.00 Build 0)  -->
<svg version="1.1" id="Laag_1" xmlns="http://www.w3.org/2000/svg" xmlns:xlink="http://www.w3.org/1999/xlink" x="0px" y="0px"
	 width="712px" height="27.9px" viewBox="0 0 712 27.9" style="enable-background:new 0 0 712 27.9;" xml:space="preserve">
<style type="text/css">
	.st0{fill:#EAFF00;}
	.st1{fill:#55374C;}
</style>
<g>
	<g>
		<path class="st0" d="M10.5,2.7H12l-2.1,9h-2L6.1,5H5.9l-1.8,6.7h-2L0,2.7h1.5l1.6,7.3h0.1l1.8-6.7h1.9l1.8,6.7h0.1L10.5,2.7z"/>
		<path class="st0" d="M17.7,11.9c-1.3,0-2.4-0.4-3.3-1.3c-0.9-0.9-1.3-2-1.3-3.4c0-1.3,0.4-2.4,1.3-3.3c0.9-0.9,1.9-1.3,3.3-1.3
			C19,2.5,20.1,3,21,3.9c0.9,0.9,1.3,2,1.3,3.3c0,1.4-0.4,2.5-1.3,3.4C20.1,11.5,19,11.9,17.7,11.9z M17.7,10.5
			c0.9,0,1.6-0.3,2.1-0.9c0.6-0.6,0.8-1.4,0.8-2.3c0-0.9-0.3-1.7-0.8-2.3c-0.6-0.6-1.3-1-2.1-1c-0.9,0-1.6,0.3-2.1,1
			c-0.5,0.6-0.8,1.4-0.8,2.3c0,0.9,0.3,1.7,0.8,2.3C16.1,10.2,16.8,10.5,17.7,10.5z"/>
		<path class="st0" d="M34.7,5.6c0.6,0.2,1.1,0.6,1.4,1.1c0.4,0.5,0.5,1.1,0.5,1.8c0,1-0.3,1.8-1,2.5c-0.7,0.6-1.6,0.9-2.8,0.9
			c-1.2,0-2.2-0.3-2.8-1c-0.7-0.7-1-1.5-1.1-2.6h1.6c0,0.6,0.3,1.1,0.7,1.5s0.9,0.6,1.7,0.6c0.7,0,1.2-0.2,1.6-0.6
			C34.8,9.5,35,9,35,8.4c0-0.6-0.2-1.1-0.6-1.5c-0.4-0.4-1-0.6-1.7-0.6h-0.6V4.9h0.6c0.6,0,1.1-0.2,1.4-0.5s0.5-0.8,0.5-1.3
			c0-0.5-0.2-0.9-0.5-1.2c-0.3-0.3-0.8-0.5-1.4-0.5c-0.6,0-1,0.2-1.4,0.5s-0.5,0.7-0.6,1.3h-1.6c0-0.9,0.3-1.7,1-2.3
			C31.1,0.3,31.9,0,32.9,0c1,0,1.8,0.3,2.4,0.8c0.6,0.6,0.9,1.3,0.9,2.1c0,1.2-0.5,2-1.5,2.6V5.6z"/>
		<path class="st0" d="M5.1,18.5c1,0,1.8,0.3,2.4,1s0.9,1.6,0.9,2.8v5.4H6.8v-5.1c0-0.9-0.2-1.5-0.6-2C5.7,20.2,5.2,20,4.5,20
			c-0.6,0-1.1,0.2-1.6,0.6c-0.4,0.4-0.6,1.1-0.6,1.9v5.2H0.7v-9h1.2l0.3,1.1h0.1C2.9,19,3.8,18.5,5.1,18.5z"/>
		<path class="st0" d="M14.8,27.9c-1.3,0-2.4-0.4-3.3-1.3c-0.9-0.9-1.3-2-1.3-3.4c0-1.3,0.4-2.4,1.3-3.3c0.9-0.9,1.9-1.3,3.3-1.3
			c1.3,0,2.4,0.4,3.3,1.3c0.9,0.9,1.3,2,1.3,3.3c0,1.4-0.4,2.5-1.3,3.4C17.2,27.5,16.1,27.9,14.8,27.9z M14.7,26.5
			c0.9,0,1.6-0.3,2.1-0.9c0.6-0.6,0.8-1.4,0.8-2.3c0-0.9-0.3-1.7-0.8-2.3c-0.6-0.6-1.3-1-2.1-1c-0.9,0-1.6,0.3-2.1,1
			c-0.5,0.6-0.8,1.4-0.8,2.3c0,0.9,0.3,1.7,0.8,2.3C13.2,26.2,13.9,26.5,14.7,26.5z"/>
		<path class="st0" d="M27.1,18.7h1.7l-3.3,9h-2.3l-3.3-9h1.7l2.6,7.6h0.2L27.1,18.7z"/>
	</g>
	<g>
		<path class="st0" d="M683.4,10.4h4.6v1.3h-6.8v-1l4.6-6.6V4.1h-4.3V2.7h6.4v1l-4.6,6.6V10.4z"/>
		<path class="st0" d="M697.7,10.2l0.6,1c-0.1,0.2-0.3,0.3-0.5,0.5c-0.2,0.2-0.5,0.2-0.8,0.2c-0.5,0-0.8-0.1-1.1-0.4
			c-0.3-0.2-0.5-0.6-0.5-1c-0.8,0.9-1.8,1.3-3.1,1.3c-0.9,0-1.6-0.2-2.2-0.6c-0.6-0.4-0.9-1.1-0.9-1.9c0-0.9,0.4-1.6,1.1-2.1
			c0.7-0.5,1.7-0.8,3-0.9l1.7-0.1V6c0-0.7-0.2-1.2-0.5-1.6c-0.3-0.4-0.8-0.6-1.4-0.6c-0.6,0-1.1,0.2-1.4,0.5
			c-0.3,0.3-0.5,0.8-0.6,1.2h-1.5c0.1-0.9,0.4-1.6,1-2.2c0.6-0.6,1.4-0.9,2.4-0.9c1,0,1.9,0.3,2.5,0.9c0.6,0.6,0.9,1.5,0.9,2.6v3.5
			c0,0.6,0.2,1,0.6,1C697.3,10.6,697.5,10.4,697.7,10.2z M692.4,10.6c0.7,0,1.3-0.2,1.8-0.6c0.5-0.4,0.8-1,0.8-1.9V7.5l-1.5,0.1
			c-0.9,0.1-1.5,0.3-2,0.6c-0.5,0.3-0.7,0.7-0.7,1.2c0,0.4,0.2,0.8,0.5,1S692,10.6,692.4,10.6z"/>
		<path class="st0" d="M708.1,4.4c0.9,0,1.7,0.3,2.4,1c0.7,0.7,1,1.6,1,2.7c0,1.1-0.4,2-1.1,2.7c-0.7,0.7-1.7,1.1-2.8,1.1
			c-1.2,0-2.1-0.4-2.8-1.1c-0.7-0.7-1.1-1.7-1.1-2.8c0-0.6,0.1-1.3,0.4-1.8c0.2-0.6,0.6-1.2,1.1-2l2.5-3.9h1.9l-3.2,4.7
			C706.8,4.6,707.3,4.4,708.1,4.4z M707.6,10.5c0.7,0,1.3-0.2,1.7-0.7c0.4-0.5,0.6-1,0.6-1.7c0-0.7-0.2-1.2-0.6-1.7
			c-0.4-0.5-1-0.7-1.7-0.7c-0.7,0-1.3,0.2-1.7,0.7c-0.4,0.4-0.6,1-0.6,1.7c0,0.7,0.2,1.2,0.6,1.7S706.9,10.5,707.6,10.5z"/>
		<path class="st0" d="M688.3,18.5c1,0,1.8,0.3,2.4,1s0.9,1.6,0.9,2.8v5.4H690v-5.1c0-0.9-0.2-1.5-0.6-2c-0.4-0.5-0.9-0.7-1.6-0.7
			c-0.6,0-1.1,0.2-1.6,0.6c-0.4,0.4-0.6,1.1-0.6,1.9v5.2h-1.7v-9h1.2l0.3,1.1h0.1C686.1,19,687,18.5,688.3,18.5z"/>
		<path class="st0" d="M698,27.9c-1.3,0-2.4-0.4-3.3-1.3c-0.9-0.9-1.3-2-1.3-3.4c0-1.3,0.4-2.4,1.3-3.3c0.9-0.9,1.9-1.3,3.3-1.3
			c1.3,0,2.4,0.4,3.3,1.3c0.9,0.9,1.3,2,1.3,3.3c0,1.4-0.4,2.5-1.3,3.4C700.4,27.5,699.3,27.9,698,27.9z M698,26.5
			c0.9,0,1.6-0.3,2.1-0.9c0.6-0.6,0.8-1.4,0.8-2.3c0-0.9-0.3-1.7-0.8-2.3c-0.6-0.6-1.3-1-2.1-1s-1.6,0.3-2.1,1
			c-0.5,0.6-0.8,1.4-0.8,2.3c0,0.9,0.3,1.7,0.8,2.3C696.4,26.2,697.1,26.5,698,26.5z"/>
		<path class="st0" d="M710.3,18.7h1.7l-3.3,9h-2.3l-3.3-9h1.7l2.6,7.6h0.2L710.3,18.7z"/>
	</g>
	<rect x="42.9" y="5.5" class="st1" width="633" height="1.5"/>
</g>
</svg>
