<?xml version="1.0" encoding="utf-8"?>
<!-- Generator: Adobe Illustrator 24.3.0, SVG Export Plug-In . SVG Version: 6.00 Build 0)  -->
<svg version="1.1" id="Laag_1" xmlns="http://www.w3.org/2000/svg" xmlns:xlink="http://www.w3.org/1999/xlink" x="0px" y="0px"
	 width="183.2px" height="36.1px" viewBox="0 0 183.2 36.1" style="enable-background:new 0 0 183.2 36.1;" xml:space="preserve">
<style type="text/css">
	.st0{fill:#97825B;}
</style>
<g>
	<path class="st0" d="M2.6,0.2l2.3,7.1l2.3-7.1h1.7l2.3,7.1l2.3-7.1h2.6l-3.6,10.7h-2.1L8,4.4l-2.2,6.5H3.6L0,0.2H2.6z"/>
	<path class="st0" d="M22.6,0c1.7,0,3.1,0.5,4.1,1.6c0.6,0.4,1,1,1.3,1.7s0.4,1.4,0.4,2.3c0,0.7-0.1,1.4-0.4,2.1S27.3,9,26.7,9.6
		c-0.5,0.5-1.1,0.9-1.8,1.1c-0.7,0.3-1.5,0.4-2.4,0.4c-0.5,0-1,0-1.4-0.1s-0.8-0.2-1.1-0.4s-0.6-0.3-0.9-0.5s-0.5-0.4-0.7-0.6
		c-0.5-0.5-0.9-1.1-1.2-1.8c-0.3-0.7-0.4-1.4-0.4-2.2c0-0.4,0-0.8,0.1-1.1C17,4,17.1,3.7,17.2,3.3c0.1-0.4,0.3-0.7,0.5-1
		s0.4-0.6,0.7-0.8c0.2-0.2,0.4-0.4,0.7-0.6s0.6-0.4,0.9-0.5s0.7-0.3,1.2-0.4C21.6,0,22.1,0,22.6,0z M22.6,2.3
		c-0.5,0-0.9,0.1-1.3,0.2c-0.4,0.2-0.8,0.4-1,0.7c-0.2,0.2-0.5,0.5-0.7,0.9S19.3,5,19.3,5.6c0,1,0.3,1.8,1,2.4
		c0.3,0.3,0.7,0.6,1.1,0.7s0.8,0.2,1.2,0.2c0.5,0,1-0.1,1.4-0.3s0.7-0.4,1-0.6c0.2-0.2,0.4-0.5,0.6-0.9s0.3-0.9,0.3-1.5
		s-0.1-1-0.3-1.4c-0.2-0.4-0.4-0.7-0.7-1c-0.3-0.3-0.6-0.5-1-0.6S23.1,2.3,22.6,2.3z"/>
	<path class="st0" d="M36.8,2.3h-1.5V0.2h4v10.7h-2.5V2.3z"/>
	<path class="st0" d="M52.1,5.6c0,0.9-0.1,1.8-0.4,2.5c-0.3,0.8-0.6,1.4-1.2,1.9c-0.3,0.3-0.7,0.6-1.2,0.8s-1,0.3-1.7,0.3
		c-0.6,0-1.2-0.1-1.7-0.3S45,10.3,44.7,10c-0.5-0.5-0.9-1.2-1.2-1.9c-0.3-0.8-0.4-1.6-0.4-2.5s0.1-1.8,0.4-2.6
		c0.3-0.8,0.6-1.4,1.2-1.9c0.3-0.3,0.7-0.6,1.2-0.8C46.5,0.1,47,0,47.7,0s1.2,0.1,1.7,0.3s0.9,0.5,1.2,0.8c0.5,0.5,0.9,1.2,1.2,1.9
		C52,3.8,52.1,4.7,52.1,5.6z M47.7,2.1c-0.2,0-0.4,0-0.5,0.1s-0.3,0.2-0.4,0.3c-0.2,0.2-0.3,0.4-0.5,0.7S46,3.7,46,4
		c-0.1,0.3-0.1,0.6-0.1,0.8c0,0.3,0,0.5,0,0.7s0,0.5,0,0.7S46,6.8,46,7c0,0.4,0.1,0.7,0.2,1c0.1,0.3,0.3,0.5,0.5,0.7
		C46.9,8.8,47,8.9,47.2,9c0.1,0.1,0.3,0.1,0.5,0.1s0.4,0,0.5-0.1s0.3-0.2,0.4-0.3C48.9,8.5,49,8.3,49.2,8c0.1-0.3,0.2-0.5,0.3-0.8
		s0.1-0.6,0.1-0.8s0-0.5,0-0.7s0-0.4,0-0.7c0-0.3-0.1-0.5-0.1-0.8c-0.1-0.3-0.2-0.6-0.3-0.8c-0.1-0.3-0.3-0.5-0.5-0.7
		c-0.1-0.1-0.3-0.2-0.4-0.3C48.1,2.1,47.9,2.1,47.7,2.1z"/>
	<path class="st0" d="M57.7,10.9V0.2h2.2l5.7,6.9V0.2h2.5v10.7h-2.2L60.2,4v6.9H57.7z"/>
	<path class="st0" d="M75.9,0C77.6,0,79,0.5,80,1.6c0.6,0.4,1,1,1.3,1.7s0.4,1.4,0.4,2.3c0,0.7-0.1,1.4-0.4,2.1S80.6,9,80.1,9.6
		c-0.5,0.5-1.1,0.9-1.8,1.1c-0.7,0.3-1.5,0.4-2.4,0.4c-0.5,0-1,0-1.4-0.1s-0.8-0.2-1.1-0.4c-0.3-0.1-0.6-0.3-0.9-0.5
		C72.2,10,72,9.8,71.8,9.6c-0.5-0.5-0.9-1.1-1.2-1.8c-0.3-0.7-0.4-1.4-0.4-2.2c0-0.4,0-0.8,0.1-1.1c0.1-0.4,0.2-0.7,0.3-1.1
		c0.1-0.4,0.3-0.7,0.5-1s0.4-0.6,0.7-0.8C72,1.4,72.2,1.2,72.5,1c0.3-0.2,0.6-0.4,0.9-0.5s0.7-0.3,1.2-0.4C74.9,0,75.4,0,75.9,0z
		 M75.9,2.3c-0.5,0-0.9,0.1-1.3,0.2s-0.8,0.4-1,0.7c-0.2,0.2-0.5,0.5-0.7,0.9S72.6,5,72.6,5.6c0,1,0.3,1.8,1,2.4
		c0.3,0.3,0.7,0.6,1.1,0.7s0.8,0.2,1.2,0.2c0.5,0,1-0.1,1.4-0.3s0.7-0.4,1-0.6c0.2-0.2,0.4-0.5,0.6-0.9s0.3-0.9,0.3-1.5
		s-0.1-1-0.3-1.4c-0.2-0.4-0.4-0.7-0.7-1c-0.3-0.3-0.6-0.5-1-0.6S76.4,2.3,75.9,2.3z"/>
	<path class="st0" d="M85.3,0.2L88,7.1l2.7-6.8h2.7L88.9,11h-1.7L82.6,0.2H85.3z"/>
	<path class="st0" d="M100.8,2.3h-3.5v2.1h3.4v2.1h-3.4v2.4h3.5V11h-6V0.2h6V2.3z"/>
	<path class="st0" d="M102.4,10.9l1.7-10.7h2.1l2.6,6.4l2.6-6.4h2.1l1.7,10.7h-2.5l-0.8-6.4l-2.6,6.4h-0.9l-2.6-6.4l-0.8,6.4H102.4z
		"/>
	<path class="st0" d="M120.5,0.2c0.1,0,0.3,0,0.5,0s0.5,0,0.7,0.1c0.3,0.1,0.5,0.1,0.8,0.2c0.2,0.1,0.5,0.3,0.7,0.5s0.3,0.3,0.4,0.5
		s0.2,0.4,0.2,0.6s0.1,0.4,0.1,0.5c0,0.2,0,0.3,0,0.4c0,0.2,0,0.4-0.1,0.7c0,0.2-0.1,0.5-0.3,0.7c-0.1,0.2-0.3,0.4-0.5,0.5
		s-0.3,0.2-0.4,0.3c0.3,0,0.5,0.1,0.8,0.2s0.5,0.3,0.7,0.5s0.3,0.4,0.5,0.7s0.2,0.7,0.2,1.2s-0.1,1-0.3,1.3
		c-0.2,0.3-0.4,0.6-0.6,0.8s-0.5,0.4-0.7,0.5c-0.3,0.1-0.5,0.2-0.8,0.3s-0.5,0.1-0.7,0.1s-0.4,0-0.6,0h-4V0.2H120.5z M119.7,4.6h0.4
		c0.2,0,0.4,0,0.6-0.1c0.2,0,0.5-0.1,0.6-0.2s0.2-0.2,0.3-0.4c0.1-0.2,0.1-0.3,0.1-0.6s0-0.4-0.1-0.6c-0.1-0.1-0.2-0.3-0.3-0.3
		c-0.2-0.1-0.4-0.2-0.6-0.2s-0.4,0-0.7,0h-0.4L119.7,4.6L119.7,4.6z M119.7,9h0.6c0.3,0,0.6,0,1-0.1c0.3,0,0.6-0.2,0.8-0.4
		c0.2-0.2,0.3-0.5,0.3-0.9c0-0.2,0-0.4-0.1-0.5s-0.1-0.3-0.2-0.3c-0.1-0.1-0.2-0.2-0.4-0.2c-0.1-0.1-0.3-0.1-0.5-0.1s-0.3,0-0.5,0
		s-0.3,0-0.4,0h-0.7L119.7,9L119.7,9z"/>
	<path class="st0" d="M133,2.3h-3.5v2.1h3.4v2.1h-3.4v2.4h3.5V11h-6V0.2h6V2.3z"/>
	<path class="st0" d="M138.9,0.2c0.7,0,1.2,0.1,1.7,0.3c0.4,0.2,0.8,0.4,1,0.6s0.4,0.5,0.6,0.9c0.2,0.4,0.3,0.9,0.3,1.5
		c0,0.3-0.1,0.7-0.2,1.1c-0.1,0.4-0.3,0.7-0.7,1.1c-0.2,0.2-0.4,0.3-0.6,0.5c-0.3,0.1-0.5,0.3-0.8,0.3l3.3,4.4h-3l-2.9-4.2v4.2h-2.5
		V0.2H138.9z M137.6,5.1h0.6c0.2,0,0.5,0,0.7-0.1s0.5-0.2,0.7-0.4c0.1-0.1,0.2-0.2,0.3-0.4C140,4,140,3.8,140,3.5s-0.1-0.5-0.2-0.7
		s-0.2-0.3-0.3-0.4c-0.2-0.1-0.4-0.2-0.7-0.3S138.3,2,138.2,2h-0.6V5.1z"/>
	<path class="st0" d="M156.3,10.9h-8.2l3.2-3.5c0.1-0.2,0.3-0.3,0.5-0.5s0.3-0.4,0.5-0.6s0.3-0.4,0.5-0.6s0.3-0.3,0.3-0.5
		c0.1-0.1,0.1-0.2,0.2-0.3c0.1-0.1,0.1-0.3,0.2-0.4c0.1-0.2,0.1-0.3,0.2-0.5c0-0.2,0.1-0.4,0.1-0.5c0-0.2,0-0.4-0.1-0.6
		c-0.1-0.2-0.2-0.3-0.3-0.5c-0.2-0.2-0.5-0.3-1-0.3c-0.2,0-0.4,0-0.6,0.1c-0.2,0.1-0.3,0.2-0.4,0.3c-0.1,0.2-0.3,0.4-0.3,0.6
		S151,3.6,151,3.8h-2.5c0-0.5,0.2-0.9,0.3-1.4c0.2-0.5,0.4-0.9,0.8-1.2c0.1-0.1,0.3-0.3,0.5-0.4s0.4-0.2,0.6-0.4
		c0.2-0.1,0.5-0.2,0.8-0.3s0.6-0.1,1-0.1s0.7,0,1,0.1s0.6,0.2,0.8,0.3s0.4,0.2,0.6,0.3c0.2,0.1,0.3,0.2,0.4,0.3
		c0.3,0.3,0.5,0.6,0.7,1.1s0.3,0.9,0.3,1.5c0,0.5-0.1,0.9-0.2,1.3s-0.3,0.7-0.6,1.1c-0.2,0.3-0.5,0.6-0.8,0.9s-0.6,0.6-0.9,0.9
		l-1.1,1.1h3.7L156.3,10.9L156.3,10.9z"/>
	<path class="st0" d="M166.7,5.6c0,0.9-0.1,1.8-0.4,2.5c-0.2,0.8-0.6,1.4-1.2,1.9c-0.3,0.3-0.7,0.6-1.2,0.8s-1,0.3-1.7,0.3
		c-0.6,0-1.2-0.1-1.7-0.3s-0.9-0.5-1.2-0.8c-0.5-0.5-0.9-1.2-1.2-1.9s-0.4-1.6-0.4-2.5s0.1-1.8,0.4-2.6s0.6-1.4,1.2-1.9
		c0.3-0.3,0.7-0.6,1.2-0.8s1-0.3,1.7-0.3s1.2,0.1,1.7,0.3s0.9,0.5,1.2,0.8c0.5,0.5,0.9,1.2,1.2,1.9C166.5,3.8,166.7,4.7,166.7,5.6z
		 M162.3,2.1c-0.2,0-0.4,0-0.5,0.1s-0.3,0.2-0.4,0.3c-0.2,0.2-0.3,0.4-0.5,0.7c-0.1,0.3-0.2,0.6-0.3,0.8c-0.1,0.3-0.1,0.6-0.1,0.8
		c0,0.3,0,0.5,0,0.7s0,0.5,0,0.7c0,0.3,0.1,0.6,0.1,0.8c0.1,0.3,0.2,0.6,0.3,0.8c0.1,0.3,0.3,0.5,0.5,0.7c0.1,0.1,0.3,0.2,0.4,0.3
		c0.1,0.1,0.3,0.1,0.5,0.1s0.4,0,0.5-0.1s0.3-0.2,0.4-0.3c0.2-0.2,0.3-0.4,0.5-0.7c0.1-0.3,0.2-0.5,0.3-0.8s0.1-0.6,0.1-0.8
		s0-0.5,0-0.7s0-0.4,0-0.7c0-0.3-0.1-0.5-0.1-0.8c-0.1-0.3-0.2-0.6-0.3-0.8c-0.1-0.3-0.3-0.5-0.5-0.7c-0.1-0.1-0.3-0.2-0.4-0.3
		S162.5,2.1,162.3,2.1z"/>
	<path class="st0" d="M175.8,10.9h-8.2l3.2-3.5c0.1-0.2,0.3-0.3,0.5-0.5s0.3-0.4,0.5-0.6s0.3-0.4,0.5-0.6s0.3-0.3,0.3-0.5
		c0.1-0.1,0.1-0.2,0.2-0.3c0.1-0.1,0.1-0.3,0.2-0.4c0.1-0.2,0.1-0.3,0.2-0.5c0-0.2,0.1-0.4,0.1-0.5c0-0.2,0-0.4-0.1-0.6
		c-0.1-0.2-0.2-0.3-0.3-0.5c-0.2-0.2-0.5-0.3-1-0.3c-0.2,0-0.4,0-0.6,0.1c-0.2,0.1-0.3,0.2-0.4,0.3c-0.1,0.2-0.3,0.4-0.3,0.6
		s-0.1,0.5-0.1,0.7H168c0-0.5,0.2-0.9,0.3-1.4c0.2-0.5,0.4-0.9,0.8-1.2c0.1-0.1,0.3-0.3,0.5-0.4s0.4-0.2,0.6-0.4
		c0.2-0.1,0.5-0.2,0.8-0.3s0.6-0.1,1-0.1s0.7,0,1,0.1s0.6,0.2,0.8,0.3s0.4,0.2,0.6,0.3c0.2,0.1,0.3,0.2,0.4,0.3
		c0.3,0.3,0.5,0.6,0.7,1.1s0.3,0.9,0.3,1.5c0,0.5-0.1,0.9-0.2,1.3S175.3,5.6,175,6c-0.2,0.3-0.5,0.6-0.8,0.9s-0.6,0.6-0.9,0.9
		l-1.1,1.1h3.7L175.8,10.9L175.8,10.9z"/>
	<path class="st0" d="M180.7,2.3h-1.5V0.2h4v10.7h-2.5V2.3z"/>
	<path d="M8.1,21.8v14.3H4V21.8H0.1v-3.5h11.8v3.5H8.1z"/>
	<path d="M18.5,25.1h7v-6.8h4.1v17.8h-4.1v-7.5h-7v7.5h-4.1V18.3h4.1C18.5,18.3,18.5,25.1,18.5,25.1z"/>
	<path d="M43.7,21.8h-5.9v3.4h5.7v3.5h-5.6v4h5.9v3.5h-10V18.3h10v3.5H43.7z"/>
	<path d="M56.2,17.9c2.8,0,5.1,0.8,6.9,2.5c0.8,0.8,1.6,1.8,2.1,2.9c0.5,1.1,0.7,2.4,0.7,3.7c0,1.2-0.2,2.4-0.6,3.5
		c-0.5,1.2-1.1,2.2-2.1,3.1c-0.8,0.8-1.8,1.5-2.9,1.9c-1.1,0.5-2.4,0.7-4,0.7c-0.8,0-1.6-0.1-2.3-0.2c-0.7-0.1-1.3-0.4-1.9-0.6
		c-0.6-0.2-1.1-0.5-1.6-0.8c-0.5-0.4-0.8-0.6-1.2-1c-0.8-0.8-1.6-1.8-2.1-2.9c-0.5-1.1-0.7-2.4-0.7-3.6c0-0.6,0.1-1.3,0.2-1.9
		c0.1-0.6,0.4-1.2,0.6-1.8s0.5-1.1,0.8-1.7c0.4-0.6,0.7-1,1.1-1.3c0.2-0.2,0.7-0.6,1.1-1c0.5-0.4,1-0.6,1.5-0.8
		c0.5-0.2,1.2-0.5,1.9-0.6C54.5,18,55.4,17.9,56.2,17.9z M56.2,21.7c-0.8,0-1.6,0.1-2.2,0.4c-0.7,0.2-1.2,0.6-1.7,1.1
		c-0.4,0.4-0.7,0.8-1.1,1.6c-0.4,0.6-0.5,1.5-0.5,2.4c0,1.6,0.6,2.9,1.7,4c0.6,0.6,1.2,1,1.8,1.1c0.6,0.2,1.3,0.4,2.1,0.4
		c1,0,1.7-0.1,2.3-0.5c0.6-0.4,1.2-0.6,1.6-1.1c0.4-0.4,0.7-0.8,1.1-1.5c0.4-0.6,0.5-1.5,0.5-2.5c0-1-0.1-1.7-0.5-2.4
		c-0.4-0.7-0.7-1.2-1.1-1.6c-0.5-0.5-1-0.7-1.7-1.1C57.8,21.9,57,21.7,56.2,21.7z"/>
	<path d="M88.5,35.5c-0.8,0.4-1.6,0.7-2.2,0.7c-0.6,0.1-1.2,0.1-1.8,0.1c-1.6,0-3-0.2-4.1-0.7s-2.1-1.1-2.8-1.8
		c-0.8-0.7-1.5-1.7-1.9-2.9c-0.5-1.2-0.7-2.4-0.7-3.9c0-1.5,0.2-2.7,0.7-3.7c0.5-1.1,1.2-2.1,1.9-2.9c0.8-0.7,1.8-1.3,2.9-1.8
		c1.1-0.5,2.4-0.7,3.7-0.7c0.6,0,1.2,0.1,1.9,0.2c0.7,0.1,1.5,0.4,2.3,0.7v4.7c-0.5-0.5-1.1-1-1.7-1.3c-0.7-0.4-1.5-0.6-2.4-0.6
		c-1.5,0-2.7,0.5-3.6,1.5c-0.5,0.5-0.8,1.1-1.2,1.8c-0.4,0.7-0.5,1.5-0.5,2.3c0,1,0.1,1.7,0.5,2.4c0.4,0.6,0.7,1.2,1.1,1.6
		c0.1,0.1,0.2,0.2,0.5,0.4c0.2,0.1,0.5,0.4,0.8,0.5c0.4,0.1,0.7,0.4,1.1,0.5c0.5,0.1,1,0.2,1.5,0.2c0.2,0,0.6,0,0.8-0.1
		c0.2-0.1,0.6-0.1,1-0.2c0.4-0.1,0.7-0.4,1.1-0.6c0.4-0.2,0.7-0.6,1.2-1v4.7H88.5z"/>
	<path d="M98.3,18.3c1.1,0,2.1,0.1,2.8,0.5c0.7,0.4,1.3,0.7,1.7,1.1c0.4,0.4,0.7,0.8,1.1,1.5c0.4,0.6,0.5,1.5,0.5,2.4
		c0,0.6-0.1,1.2-0.2,1.8c-0.1,0.6-0.5,1.2-1.1,1.8c-0.2,0.2-0.6,0.6-1.1,0.8c-0.4,0.2-0.8,0.4-1.3,0.6l5.4,7.3h-5l-4.8-7v7h-4.1
		V18.3H98.3z M96.2,26.4h1c0.4,0,0.7,0,1.2-0.1s0.8-0.2,1.2-0.6c0.1-0.1,0.2-0.4,0.5-0.6c0.2-0.2,0.2-0.6,0.2-1.1s-0.1-1-0.2-1.2
		c-0.2-0.2-0.4-0.5-0.5-0.6c-0.4-0.2-0.7-0.4-1.2-0.5c-0.5-0.1-0.8-0.1-1.1-0.1h-1v4.8H96.2z"/>
	<path d="M117.3,17.9c2.8,0,5.1,0.8,6.9,2.5c0.8,0.8,1.6,1.8,2.1,2.9c0.5,1.1,0.7,2.4,0.7,3.7c0,1.2-0.2,2.4-0.7,3.5
		c-0.5,1.2-1.1,2.2-2.1,3.1c-0.8,0.8-1.8,1.5-2.9,1.9s-2.4,0.7-4,0.7c-0.8,0-1.6-0.1-2.3-0.2c-0.7-0.1-1.3-0.4-1.9-0.6
		s-1.1-0.5-1.6-0.8c-0.5-0.4-0.8-0.6-1.2-1c-0.8-0.8-1.6-1.8-2.1-2.9c-0.5-1.1-0.7-2.4-0.7-3.6c0-0.6,0.1-1.3,0.2-1.9
		c0.1-0.6,0.4-1.2,0.6-1.8c0.2-0.6,0.5-1.1,0.8-1.7c0.4-0.5,0.7-1,1.1-1.3c0.2-0.2,0.6-0.6,1.1-1s1-0.6,1.5-0.8
		c0.5-0.2,1.2-0.5,1.9-0.6C115.6,18,116.4,17.9,117.3,17.9z M117.3,21.7c-0.8,0-1.6,0.1-2.2,0.4c-0.6,0.2-1.2,0.6-1.7,1.1
		c-0.4,0.4-0.7,0.8-1.1,1.6c-0.4,0.6-0.5,1.5-0.5,2.4c0,1.6,0.6,2.9,1.7,4c0.6,0.6,1.2,1,1.8,1.1c0.6,0.2,1.3,0.4,2.1,0.4
		c1,0,1.7-0.1,2.3-0.5c0.6-0.2,1.2-0.6,1.6-1.1c0.4-0.4,0.7-0.8,1.1-1.5c0.4-0.6,0.5-1.5,0.5-2.5c0-1-0.1-1.7-0.5-2.4
		c-0.4-0.7-0.7-1.2-1.1-1.6c-0.5-0.5-1-0.7-1.7-1.1C118.8,21.9,118.1,21.7,117.3,21.7z"/>
	<path d="M134.4,25.8l6-7.4h5l-7.1,8.5l7.7,9.3h-5.3l-6.4-7.9v7.9h-4.1V18.3h4.1v7.5H134.4z"/>
	<path d="M158.4,21.8h-5.9v3.4h5.6v3.5h-5.6v4h5.9v3.5h-10V18.3h10V21.8z"/>
	<path d="M168.2,18.3c1.1,0,2.1,0.1,2.8,0.5c0.7,0.4,1.3,0.7,1.7,1.1c0.4,0.4,0.7,0.8,1.1,1.5c0.4,0.6,0.5,1.5,0.5,2.4
		c0,0.6-0.1,1.2-0.2,1.8c-0.1,0.6-0.5,1.2-1.1,1.8c-0.2,0.2-0.6,0.6-1.1,0.8c-0.4,0.2-0.8,0.4-1.3,0.6l5.4,7.3h-5l-4.8-7v7H162V18.3
		H168.2z M166.1,26.4h1c0.4,0,0.7,0,1.2-0.1c0.5-0.1,0.8-0.2,1.2-0.6c0.1-0.1,0.2-0.4,0.5-0.6c0.2-0.2,0.2-0.6,0.2-1.1
		s-0.1-1-0.2-1.2c-0.2-0.2-0.4-0.5-0.5-0.6c-0.4-0.2-0.7-0.4-1.2-0.5c-0.5-0.1-0.8-0.1-1.1-0.1h-1v4.8H166.1z"/>
</g>
</svg>
