<?xml version="1.0" encoding="utf-8"?>
<!-- Generator: Adobe Illustrator 24.3.0, SVG Export Plug-In . SVG Version: 6.00 Build 0)  -->
<svg version="1.1" id="Laag_1" xmlns="http://www.w3.org/2000/svg" xmlns:xlink="http://www.w3.org/1999/xlink" x="0px" y="0px"
	 width="433.2px" height="39px" viewBox="0 0 433.2 39" style="enable-background:new 0 0 433.2 39;" xml:space="preserve">
<style type="text/css">
	.st0{fill:#DC7B62;}
</style>
<g>
	<path class="st0" d="M0.8,11.6L0,4.2l8.2-0.5l0.5,0.5L8.2,28.9L18.3,27c0.6-12,0.2-17.8-3.6-21.9l0.4-0.6l9.6-1.1l0.9,1.1l-0.7,30
		L0,36.8L0.8,11.6z"/>
	<path class="st0" d="M49.4,18.8c0.2-2.3-0.7-4.1-2.3-5.2c-2.6,0-6.7,1.7-9.6,3.8l0.2,16.2l-7.8,2.8l-0.7-0.7
		c1.2-7.8,1.7-16.1,1.3-25.1l6.5-3.1l0.6,0.8l0.1,4.2l10.8-6.6l8.1,9c-0.4,6.3-2.3,13-4.1,19.1l-9.1,1.8l-0.7-1.1
		C44.5,32.8,48.9,25.1,49.4,18.8z"/>
	<path class="st0" d="M61.3,6.2l7.5-3.1l0.9,0.7c-0.7,2.4-1.2,5.5-1.4,8.9l0.3,0.1l8.3-4.2l0.4,0.4L74,20.4l-0.8,0.1l-5-2.1
		l-0.4,0.1c-0.1,5.3,0.3,10.7,1.2,14.6l-0.4,1.7l-8.5,0.6L61.3,6.2z"/>
	<path class="st0" d="M79.6,11.5l7.6-2.9L87.9,9c-0.8,6.7-1,16.1-0.7,24.8L79.9,36l-1-0.4C79.6,28.1,79.8,19.1,79.6,11.5z M79.8,2.6
		L87-0.1l0.7,0.5l0,2.6l-7,3.5l-1-0.3V2.6z"/>
	<path class="st0" d="M92.5,6.1l7.5-5l0.7,0.5c-1.3,12.4-1.3,22.5-0.9,31.1l-7,3.7l-1-0.4C92.5,26.1,92.7,17.3,92.5,6.1z"/>
	<path class="st0" d="M125.1,34.5l1-14.7l-2.2-2.7l-3.8,3.6l-1.2-1.5v-0.6l4.7-3.7l3.8-4.6l5.4-1l1.3,1.1l-0.7,22.8l-7.3,2
		L125.1,34.5z"/>
	<path class="st0" d="M143.8,38.5l11.6-21.7l-0.5-1.6c-6.3-0.4-11,2.6-14.6,7.7l-1.1-0.2l1.6-10.4l1.4-1.4l20.6-1.5l0.6,1.4
		c-5.2,7.3-8.5,15.2-6.4,22.9l-0.2,0.8c-2.9,0.8-8.5,1.9-11.6,4.5L143.8,38.5z"/>
	<path class="st0" d="M180.6,21.9l10.1-16.8l15.7-1.6l7.5,15.9l-8.8,15.6l-15.5,1.2L180.6,21.9z M194.9,30.7l3.7,0.6l7.6-11.7
		l-5.7-9.4l-2.5-0.7l-9.4,12.4L194.9,30.7z"/>
	<path class="st0" d="M215.8,23l5.6-13.7L237.6,8l0.6,1l-2.8,8.2l-1.2,0.2c-2.1-1.4-4.4-2.4-7.8-2.8l-2.9,7.7c1.1,3,2.5,5.5,4.2,7.6
		h0.8c4.8-2.5,7.5-5.9,9.7-9.4l1.3,0.3l-1.8,11.9l-15.9,2.9L215.8,23z"/>
	<path class="st0" d="M244.8,6.2l7.5-3.1l0.9,0.7c-0.7,2.4-1.2,5.5-1.4,8.9l0.3,0.1l8.3-4.2l0.4,0.4l-3.2,11.5l-0.8,0.1l-5-2.1
		l-0.4,0.1c-0.1,5.3,0.3,10.7,1.2,14.6l-0.4,1.7l-8.5,0.6L244.8,6.2z"/>
	<path class="st0" d="M261.1,24.8L268.5,8L281.6,7l7.1,10.8v1.3l-6.3,15.1l-13.3,1.8L261.1,24.8z M273,29.7l3,0.5l6.1-11.6
		c-1.9-2.6-4.2-4.4-7-5.5c-2.7,2.6-5.1,5.9-7.4,9.7L273,29.7z"/>
	<path class="st0" d="M291.8,4l8.8-1.6l0.4,0.4l-1.8,7.2l1.1,1l5.2-3.8h0.7l7.9,10.6l-5.4,15.6l-17.3,2.6l-0.7-0.5
		C292.8,24.7,293,14.1,291.8,4z M299.3,28.7l1.6,0.3l5.9-4.7c0.6-2.8,0.9-5.5,0.9-8.3c-2.9-1.9-6-1.7-9.1-0.8L299.3,28.7z"/>
	<path class="st0" d="M316.1,20.7L324,7.4l11.5-0.9l6.3,13l-0.7,1.9l-16.6,0.8l-0.3,0.8l5.4,6.7l10.6-5.3l0.5,0.8l-3.3,8.5
		l-14.3,1.8L316.1,20.7z M323.8,18l11.3-0.8l0.1-0.6l-4.9-5.7l-0.5-0.1l-6.1,6.8L323.8,18z"/>
	<path class="st0" d="M345.7,9.5l7.7-2.3l1.1,0.9l-0.2,4.9l0.4-0.1l4.6-5.6l0.9-0.2l4.3,5.6c-0.9,3.2-2.3,6.1-4,8.8l-1.3-0.2
		c0.1-2.7-0.7-4.7-3.9-5.2l-1.7,0.7c-0.6,4.7-0.1,10.7,0.7,17l-8.7,1.4l-0.8-0.9C346.4,24.8,347.4,15.8,345.7,9.5z"/>
</g>
</svg>
