<?xml version="1.0" encoding="utf-8"?>
<!-- Generator: Adobe Illustrator 24.3.0, SVG Export Plug-In . SVG Version: 6.00 Build 0)  -->
<svg version="1.1" id="Laag_1" xmlns="http://www.w3.org/2000/svg" xmlns:xlink="http://www.w3.org/1999/xlink" x="0px" y="0px"
	 width="587.7px" height="63.7px" viewBox="0 0 587.7 63.7" style="enable-background:new 0 0 587.7 63.7;" xml:space="preserve">
<style type="text/css">
	.st0{fill:#FFFFFF;}
</style>
<g>
	<path class="st0" d="M28.2,49.7l-18.3-22H6.5v22H0v-49h6.5v20.6h3.4L26.3,0.7H34L15.5,24.3v0.4l20.3,25H28.2z"/>
	<path class="st0" d="M53.9,50.4c-5.1,0-9.4-1.7-12.7-5.2c-3.4-3.5-5-7.8-5-13.1c0-5.2,1.7-9.5,5-13c3.3-3.5,7.6-5.2,12.7-5.2
		c5.1,0,9.4,1.7,12.7,5.2c3.4,3.5,5,7.8,5,13c0,5.3-1.7,9.6-5,13.1C63.3,48.7,59.1,50.4,53.9,50.4z M53.8,44.9
		c3.4,0,6.2-1.2,8.3-3.7c2.1-2.5,3.2-5.4,3.2-9c0-3.5-1.1-6.5-3.3-9c-2.2-2.5-4.9-3.7-8.3-3.7s-6.1,1.2-8.2,3.7
		c-2.1,2.5-3.2,5.5-3.2,9c0,3.5,1.1,6.5,3.2,9C47.7,43.6,50.5,44.9,53.8,44.9z"/>
	<path class="st0" d="M94.8,50.4c-5.1,0-9.4-1.7-12.7-5.2c-3.4-3.5-5-7.8-5-13.1c0-5.2,1.7-9.5,5-13c3.3-3.5,7.6-5.2,12.7-5.2
		c5.1,0,9.4,1.7,12.7,5.2c3.4,3.5,5,7.8,5,13c0,5.3-1.7,9.6-5,13.1C104.3,48.7,100,50.4,94.8,50.4z M94.8,44.9
		c3.4,0,6.2-1.2,8.3-3.7c2.1-2.5,3.2-5.4,3.2-9c0-3.5-1.1-6.5-3.3-9c-2.2-2.5-4.9-3.7-8.3-3.7s-6.1,1.2-8.2,3.7
		c-2.1,2.5-3.2,5.5-3.2,9c0,3.5,1.1,6.5,3.2,9C88.7,43.6,91.4,44.9,94.8,44.9z"/>
	<path class="st0" d="M136.9,14c4.6,0,8.4,1.7,11.5,5.1c3,3.4,4.5,7.8,4.5,13.1c0,5.4-1.5,9.7-4.6,13.1c-3.1,3.4-7,5.1-11.6,5.1
		c-5.3,0-8.9-1.9-11-5.8v19.1h-6.2v-49h4.6l1,5h0.7C128.5,15.9,132.2,14,136.9,14z M136.1,44.8c3.2,0,5.8-1.2,7.7-3.5
		c2-2.4,3-5.4,3-9.1c0-3.7-1-6.7-3-9.1c-2-2.4-4.6-3.5-7.7-3.5c-3.1,0-5.6,1.2-7.6,3.5c-1.9,2.3-2.9,5.4-2.9,9.1
		c0,3.8,1,6.8,2.9,9.1C130.4,43.6,133,44.8,136.1,44.8z"/>
	<path class="st0" d="M198.2,48.8c-1.7,1.1-3.6,1.6-5.7,1.6c-5.7,0-8.6-3.1-8.6-9.4V19.8H177v-4.5h2c3.6,0,5.4-1.6,5.4-4.9V5.9h5.5
		v8.8h8.3v5.1H190v20.6c0,2.9,1.2,4.4,3.5,4.4c1.1,0,2.1-0.3,3.1-1L198.2,48.8z"/>
	<path class="st0" d="M211.2,8c-0.8,0.8-1.8,1.2-3,1.2c-1.2,0-2.2-0.4-3-1.2c-0.8-0.8-1.3-1.8-1.3-3c0-1.2,0.4-2.2,1.3-3
		c0.8-0.8,1.8-1.2,3-1.2c1.2,0,2.2,0.4,3,1.2c0.8,0.8,1.2,1.8,1.2,3C212.4,6.2,212,7.2,211.2,8z M211.3,14.7v35H205v-35H211.3z"/>
	<path class="st0" d="M252.6,37.7c-0.5,3.7-2.3,6.8-5.2,9.2s-6.5,3.6-10.7,3.6c-5.5,0-9.8-1.7-12.9-5.1c-3.1-3.4-4.6-7.8-4.6-13.1
		c0-5.1,1.7-9.4,5-12.9c3.3-3.5,7.4-5.3,12.4-5.3c4.3,0,7.9,1.3,10.9,3.8s4.6,5.7,5,9.6h-6.2c-0.4-2.2-1.4-4.1-3.1-5.6
		c-1.7-1.5-4-2.2-6.8-2.2c-3.3,0-5.9,1.2-7.9,3.6c-2,2.4-3,5.4-3,9.1c0,3.8,1,6.8,2.9,9.2c1.9,2.4,4.7,3.5,8.3,3.5
		c2.5,0,4.6-0.7,6.3-2c1.7-1.4,2.8-3.1,3.4-5.3H252.6z"/>
	<path class="st0" d="M289.4,14.7l-14.2,14.7l14.2,20.3h-7.1l-11.3-16l-5,5.1v10.9H260V0h6.2v30.2h0.6l14.8-15.5H289.4z"/>
	<path class="st0" d="M308.5,14c4.9,0,8.9,1.7,12,5c3,3.3,4.3,8.2,3.9,14.5h-26.5c0.2,3.5,1.3,6.4,3.2,8.4c1.9,2.1,4.5,3.1,8,3.1
		c2.1,0,4-0.5,5.6-1.4c1.7-0.9,2.9-2.3,3.7-4.1h6c-0.9,3.5-2.7,6.2-5.5,8c-2.8,1.9-6,2.8-9.7,2.8c-5.3,0-9.5-1.7-12.6-5
		c-3.1-3.3-4.7-7.8-4.7-13.4c0-5.2,1.6-9.5,4.7-12.9C299.7,15.7,303.7,14,308.5,14z M298.1,28.8h20.5c-0.1-2.7-1-5-2.8-6.9
		c-1.8-1.9-4.1-2.8-7.1-2.8c-2.8,0-5.2,0.9-7.1,2.6C299.8,23.5,298.6,25.8,298.1,28.8z"/>
	<path class="st0" d="M349.4,48.8c-1.7,1.1-3.6,1.6-5.7,1.6c-5.7,0-8.6-3.1-8.6-9.4V19.8h-6.8v-4.5h2c3.6,0,5.4-1.6,5.4-4.9V5.9h5.5
		v8.8h8.3v5.1h-8.3v20.6c0,2.9,1.2,4.4,3.5,4.4c1.1,0,2.1-0.3,3.1-1L349.4,48.8z"/>
	<path class="st0" d="M380.7,40.7c0,3-1.2,5.4-3.6,7.1c-2.4,1.7-5.4,2.6-9.1,2.6c-4.2,0-7.5-1.1-10-3.3c-2.5-2.2-3.8-5.1-3.8-8.6h6
		c0,2.3,0.9,4.1,2.5,5.3c1.6,1.2,3.4,1.8,5.5,1.8c1.8,0,3.3-0.4,4.6-1.3c1.2-0.9,1.9-2.1,1.9-3.6c0-1.6-0.7-2.9-2.1-3.9
		c-1.4-1-3.4-1.8-6.1-2.6c-1.5-0.5-2.8-0.9-3.9-1.4c-1.1-0.5-2.3-1.1-3.4-1.9c-1.2-0.8-2.1-1.8-2.7-2.9c-0.6-1.2-0.9-2.5-0.9-3.9
		c0-3,1.1-5.4,3.4-7.2c2.3-1.8,5.2-2.7,8.8-2.7c3.7,0,6.6,1,8.8,3c2.2,2,3.3,4.5,3.4,7.4H374c-0.1-1.6-0.8-3-2-4
		c-1.3-1-2.8-1.5-4.8-1.5c-1.6,0-2.9,0.4-4,1.2c-1.1,0.8-1.6,1.9-1.6,3.3c0,1.4,0.6,2.6,1.8,3.5c1.2,0.9,3.1,1.8,5.7,2.6
		c3.8,1.2,6.7,2.6,8.7,4.2C379.7,35.4,380.7,37.7,380.7,40.7z"/>
	<path class="st0" d="M423.3,50.4c-5.1,0-9.4-1.7-12.7-5.2c-3.4-3.5-5-7.8-5-13.1c0-5.2,1.7-9.5,5-13c3.3-3.5,7.6-5.2,12.7-5.2
		c5.1,0,9.4,1.7,12.7,5.2c3.4,3.5,5,7.8,5,13c0,5.3-1.7,9.6-5,13.1C432.7,48.7,428.5,50.4,423.3,50.4z M423.2,44.9
		c3.4,0,6.2-1.2,8.3-3.7c2.1-2.5,3.2-5.4,3.2-9c0-3.5-1.1-6.5-3.3-9c-2.2-2.5-4.9-3.7-8.3-3.7c-3.4,0-6.1,1.2-8.2,3.7
		c-2.1,2.5-3.2,5.5-3.2,9c0,3.5,1.1,6.5,3.2,9C417.1,43.6,419.9,44.9,423.2,44.9z"/>
	<path class="st0" d="M465.1,14c3.8,0,6.9,1.3,9.3,3.9c2.4,2.6,3.6,6.2,3.6,10.9v20.9h-6.4V30c0-3.4-0.8-5.9-2.3-7.7
		s-3.7-2.6-6.3-2.6c-2.4,0-4.4,0.8-6.1,2.5c-1.7,1.7-2.5,4.1-2.5,7.5v20.1H448v-35h4.8l1,4.4h0.6C456.7,15.7,460.2,14,465.1,14z"/>
	<path class="st0" d="M487.1,0h6.3v49.7h-6.3V0z"/>
	<path class="st0" d="M508.4,8c-0.8,0.8-1.8,1.2-3,1.2c-1.2,0-2.2-0.4-3-1.2c-0.8-0.8-1.3-1.8-1.3-3c0-1.2,0.4-2.2,1.3-3
		c0.8-0.8,1.8-1.2,3-1.2c1.2,0,2.2,0.4,3,1.2c0.8,0.8,1.2,1.8,1.2,3C509.7,6.2,509.3,7.2,508.4,8z M508.5,14.7v35h-6.2v-35H508.5z"
		/>
	<path class="st0" d="M535.2,14c3.8,0,6.9,1.3,9.3,3.9c2.4,2.6,3.6,6.2,3.6,10.9v20.9h-6.4V30c0-3.4-0.8-5.9-2.3-7.7
		s-3.7-2.6-6.3-2.6c-2.4,0-4.4,0.8-6.1,2.5c-1.7,1.7-2.5,4.1-2.5,7.5v20.1h-6.4v-35h4.8l1,4.4h0.6C526.8,15.7,530.4,14,535.2,14z"/>
	<path class="st0" d="M571.8,14c4.9,0,8.9,1.7,12,5c3,3.3,4.3,8.2,3.9,14.5h-26.5c0.2,3.5,1.3,6.4,3.2,8.4c1.9,2.1,4.5,3.1,8,3.1
		c2.1,0,4-0.5,5.6-1.4c1.7-0.9,2.9-2.3,3.7-4.1h6c-0.9,3.5-2.7,6.2-5.5,8c-2.8,1.9-6,2.8-9.7,2.8c-5.3,0-9.5-1.7-12.6-5
		c-3.1-3.3-4.7-7.8-4.7-13.4c0-5.2,1.6-9.5,4.7-12.9C563,15.7,567,14,571.8,14z M561.3,28.8h20.5c-0.1-2.7-1-5-2.8-6.9
		c-1.8-1.9-4.1-2.8-7.1-2.8c-2.8,0-5.2,0.9-7.1,2.6C563,23.5,561.8,25.8,561.3,28.8z"/>
</g>
</svg>
