<?xml version="1.0" encoding="utf-8"?>
<!-- Generator: Adobe Illustrator 24.3.0, SVG Export Plug-In . SVG Version: 6.00 Build 0)  -->
<svg version="1.1" id="Laag_1" xmlns="http://www.w3.org/2000/svg" xmlns:xlink="http://www.w3.org/1999/xlink" x="0px" y="0px"
	 width="106.8px" height="23.4px" viewBox="0 0 106.8 23.4" style="enable-background:new 0 0 106.8 23.4;" xml:space="preserve">
<g>
	<path d="M0,4.6c0-0.8,0.1-1.5,0.3-2.1C0.4,1.9,0.7,1.4,1,1c0.3-0.4,0.7-0.6,1.1-0.8S3,0,3.6,0C4,0,4.4,0.1,4.8,0.2s0.7,0.3,1,0.5
		C6,0.9,6.3,1.2,6.5,1.5C6.7,1.9,6.8,2.3,7,2.8c0.1,0.5,0.2,1.1,0.2,1.7c0,0.8-0.1,1.4-0.3,2C6.7,7.1,6.4,7.6,6.1,8S5.4,8.6,5,8.7
		C4.6,8.9,4.1,9,3.6,9C3.2,9,2.8,8.9,2.4,8.8s-0.7-0.3-1-0.5C1.1,8.1,0.9,7.8,0.7,7.5C0.5,7.1,0.3,6.7,0.2,6.2C0.1,5.7,0,5.2,0,4.6z
		 M0.8,4.6C0.8,4.6,0.8,4.6,0.8,4.6c0,0.5,0.1,0.9,0.2,1.3c0.1,0.4,0.4,0.7,0.6,0.9c0.3,0.2,0.6,0.4,0.9,0.5
		c0.3,0.1,0.7,0.1,1.1,0.1c0.4,0,0.8,0,1.1-0.1C5,7.1,5.3,6.9,5.6,6.7C5.8,6.5,6,6.2,6.2,5.9c0.1-0.4,0.2-0.8,0.2-1.3c0,0,0,0,0,0
		c0-0.7-0.3-1.3-0.7-1.7C5.2,2.4,4.5,2.2,3.6,2.2C2.7,2.2,2,2.4,1.5,2.8C1,3.3,0.8,3.8,0.8,4.6z"/>
	<path d="M9.2,8.9V0.1h2l4,7.5V0.1H16v8.8h-1.8l-4.2-7.1v7.1H9.2z"/>
	<path d="M17.7,2.3V0.1h6.1v2.2h-2.6v6.6h-0.9V2.3H17.7z"/>
	<path d="M25.9,8.9V0.1h2.9c0.6,0,1,0.1,1.5,0.2s0.8,0.4,1.2,0.8c0.3,0.3,0.6,0.8,0.8,1.4c0.2,0.6,0.3,1.3,0.3,2
		c0,2.9-1.2,4.3-3.6,4.3H25.9z M26.8,7.1h2.5c0.4,0,0.8-0.1,1.2-0.3s0.7-0.5,0.9-0.9c0.2-0.4,0.4-0.8,0.4-1.3c0-0.7-0.2-1.3-0.7-1.8
		c-0.5-0.5-1.2-0.7-2-0.7h-2.3V7.1z"/>
	<path d="M34.7,8.9V0.1H40v2.2h-4.5v1.8h3.4v1h-3.4v2.2h4.5v1.5H34.7z"/>
	<path d="M42.3,8.9V0.1h0.9V4l3.4-3.8h2.4l-3.8,4.1l3.3,4.7h-1.1l-2.9-4l-1.4,1.5v2.5H42.3z"/>
	<path d="M53,8.9V0.1h0.9v3.4h4.7V0.1h0.9v8.8h-0.9V5.6h-4.7v3.3H53z"/>
	<path d="M61.9,8.9V0.1h5.3v2.2h-4.5v1.8h3.4v1h-3.4v2.2h4.5v1.5H61.9z"/>
	<path d="M68.8,2.3V0.1h6.1v2.2h-2.6v6.6h-0.9V2.3H68.8z"/>
	<path d="M0.4,23.3v-8.8h2l4,7.5v-7.5h0.9v8.8H5.5l-4.2-7.1v7.1H0.4z"/>
	<path d="M9.3,23.3v-1.7H11v-4.9H9.3v-2.2h4.2v2.2h-1.6v4.9h1.7v1.7H9.3z"/>
	<path d="M15.4,23.3v-8.8h5.3v2.2h-4.5v1.8h3.4v1h-3.4v2.2h4.5v1.5H15.4z"/>
	<path d="M22.8,19.8v-5.2h0.8v4.3c0,0.9,0.2,1.5,0.5,1.9c0.5,0.5,1.2,0.7,2.2,0.7c0.9,0,1.6-0.2,2.1-0.7c0.3-0.4,0.5-1,0.5-1.8v-4.4
		h0.8v5.2c0,1.2-0.3,2.2-0.9,2.8s-1.4,0.9-2.5,0.9c-0.5,0-1-0.1-1.4-0.2s-0.8-0.4-1.1-0.7c-0.3-0.3-0.5-0.7-0.7-1.1
		S22.8,20.4,22.8,19.8z"/>
	<path d="M30.5,14.5h0.9l2.1,7.1l1.9-5.5l0.7,0l1.7,5.4l2-7h1.5l-2.6,8.7h-1.3L36,18.8l-1.6,4.4H33L30.5,14.5z"/>
	<path d="M42.3,23.3v-8.8h5.3v2.2h-4.5v1.8h3.4v1h-3.4v2.2h4.5v1.5H42.3z"/>
	<path d="M52.4,21.8l0.5-1.6c0.2,0.4,0.6,0.8,1.2,1c0.6,0.3,1.2,0.4,1.9,0.4c0.8,0,1.3-0.1,1.7-0.3s0.6-0.5,0.6-0.8
		c0-0.3-0.2-0.6-0.6-0.8s-1-0.3-1.7-0.4c-0.6,0-1.1-0.1-1.6-0.3s-0.7-0.3-1-0.5s-0.4-0.5-0.5-0.8c-0.1-0.3-0.1-0.6-0.1-1
		c0-0.8,0.3-1.4,0.8-1.9s1.3-0.7,2.3-0.7c0.8,0,1.4,0.1,2,0.4s0.9,0.6,1.2,0.9l-0.4,1.6c-0.3-0.2-0.6-0.4-1.1-0.6
		c-0.5-0.2-1-0.3-1.6-0.3c-0.4,0-0.7,0-1,0.1c-0.3,0.1-0.5,0.2-0.7,0.3S54,16.8,53.9,17c-0.1,0.1-0.1,0.3-0.1,0.4
		c0,0.1,0,0.3,0.1,0.4s0.2,0.2,0.3,0.3s0.4,0.2,0.7,0.2c0.3,0.1,0.7,0.1,1.1,0.2c1.2,0.1,2.1,0.4,2.6,0.8c0.5,0.4,0.8,1,0.8,1.7
		c0,0,0,0,0,0c0,0.8-0.3,1.3-0.9,1.7s-1.4,0.6-2.5,0.6c-0.8,0-1.6-0.2-2.3-0.5C53,22.6,52.6,22.3,52.4,21.8z"/>
	<path d="M61.3,23.3v-8.8h5.3v2.2h-4.5v1.8h3.4v1h-3.4v2.2h4.5v1.5H61.3z"/>
	<path d="M68.5,23.3v-1.7h1.8v-4.9h-1.7v-2.2h4.2v2.2h-1.6v4.9h1.7v1.7H68.5z"/>
	<path d="M74.4,23.3v-0.5l4.7-6.1h-4.3v-2.2h6.7v0.4l-5,6.7h4.8v1.7H74.4z"/>
	<path d="M83.2,19c0-0.8,0.1-1.5,0.3-2.1c0.2-0.6,0.4-1.1,0.7-1.4c0.3-0.4,0.7-0.6,1.1-0.8s0.9-0.3,1.5-0.3c0.4,0,0.8,0.1,1.2,0.2
		s0.7,0.3,1,0.5c0.3,0.2,0.5,0.5,0.8,0.9c0.2,0.4,0.4,0.8,0.5,1.3c0.1,0.5,0.2,1.1,0.2,1.7c0,0.8-0.1,1.4-0.3,2
		c-0.2,0.6-0.4,1-0.7,1.4s-0.7,0.6-1.1,0.8c-0.4,0.2-0.9,0.3-1.4,0.3c-0.4,0-0.8-0.1-1.2-0.2s-0.7-0.3-1-0.5
		c-0.3-0.2-0.6-0.5-0.8-0.9c-0.2-0.3-0.4-0.8-0.5-1.3C83.2,20.1,83.2,19.6,83.2,19z M83.9,19C83.9,19,83.9,19,83.9,19
		c0,0.5,0.1,0.9,0.2,1.3c0.1,0.4,0.4,0.7,0.6,0.9c0.3,0.2,0.6,0.4,0.9,0.5c0.3,0.1,0.7,0.1,1.1,0.1c0.4,0,0.8,0,1.1-0.1
		c0.3-0.1,0.6-0.2,0.9-0.5c0.3-0.2,0.5-0.5,0.6-0.9c0.1-0.4,0.2-0.8,0.2-1.3c0,0,0,0,0,0c0-0.7-0.3-1.3-0.7-1.7
		c-0.5-0.4-1.2-0.7-2.1-0.7c-0.9,0-1.6,0.2-2.1,0.7C84.2,17.7,83.9,18.2,83.9,19z"/>
	<path d="M92.2,23.3v-8.8h5.3v2.2H93v1.8h3.4v1H93v2.2h4.5v1.5H92.2z"/>
	<path d="M99.9,23.3v-8.8h2l4,7.5v-7.5h0.9v8.8H105l-4.2-7.1v7.1H99.9z"/>
</g>
</svg>
