<?xml version="1.0" encoding="utf-8"?>
<!-- Generator: Adobe Illustrator 24.0.0, SVG Export Plug-In . SVG Version: 6.00 Build 0)  -->
<svg version="1.1" id="Laag_1" xmlns="http://www.w3.org/2000/svg" xmlns:xlink="http://www.w3.org/1999/xlink" x="0px" y="0px"
	 width="225px" height="23px" viewBox="0 0 225 23" style="enable-background:new 0 0 225 23;" xml:space="preserve">
<style type="text/css">
	.st0{font-family:'NHaasGroteskDSPro-75Bd';}
	.st1{font-size:25px;}
</style>
<g>
	<path d="M1.2,2.4h5.9l2.2,7.8c0.1,0.3,0.2,0.7,0.3,1.1c0.1,0.5,0.2,0.9,0.3,1.3c0.1,0.5,0.3,1.1,0.4,1.6l0,0
		c0.1-0.6,0.2-1.1,0.4-1.6c0.1-0.4,0.2-0.9,0.3-1.3c0.1-0.5,0.2-0.8,0.3-1.1l2.2-7.8h6v17.9h-4v-9c0-0.2,0-0.5,0-0.9s0-0.8,0-1.2
		c0-0.5,0-1,0-1.5l0,0c-0.1,0.5-0.2,1-0.4,1.4c-0.1,0.4-0.2,0.8-0.3,1.1s-0.2,0.6-0.2,0.8L12,20.2H8.6L6,11c0-0.2-0.1-0.4-0.2-0.8
		C5.7,9.9,5.6,9.5,5.5,9.1C5.4,8.7,5.3,8.2,5.2,7.7l0,0c0,0.5,0,1.1,0,1.5s0,0.8,0,1.2s0,0.7,0,0.9v9h-4C1.2,20.3,1.2,2.4,1.2,2.4z"
		/>
	<path d="M28.1,20.7c-1,0-2-0.2-2.8-0.5s-1.6-0.8-2.2-1.4s-1.1-1.3-1.4-2.2c-0.3-0.8-0.5-1.7-0.5-2.7s0.2-1.9,0.5-2.7
		s0.8-1.5,1.4-2.2c0.6-0.6,1.3-1.1,2.2-1.4c0.8-0.3,1.8-0.5,2.8-0.5s2,0.2,2.8,0.5C31.8,8,32.5,8.4,33.1,9s1.1,1.3,1.4,2.2
		c0.3,0.8,0.5,1.7,0.5,2.7s-0.2,1.9-0.5,2.7c-0.3,0.8-0.8,1.5-1.4,2.2c-0.6,0.6-1.3,1.1-2.1,1.4C30.1,20.5,29.2,20.7,28.1,20.7z
		 M28.1,17.8c0.9,0,1.6-0.4,2-1.1c0.5-0.7,0.7-1.6,0.7-2.8s-0.2-2.1-0.7-2.8c-0.5-0.7-1.1-1.1-2-1.1s-1.6,0.4-2,1.1
		c-0.5,0.7-0.7,1.7-0.7,2.8c0,1.2,0.2,2.1,0.7,2.8C26.5,17.4,27.2,17.8,28.1,17.8z"/>
	<path d="M41.3,20.7c-0.8,0-1.6-0.2-2.2-0.5c-0.7-0.3-1.3-0.8-1.8-1.3c-0.5-0.6-0.9-1.3-1.2-2.1c-0.3-0.8-0.4-1.8-0.4-2.9
		c0-1,0.1-1.9,0.4-2.8c0.3-0.8,0.7-1.5,1.1-2.1s1.1-1.1,1.8-1.4s1.4-0.5,2.3-0.5c0.9,0,1.6,0.2,2.2,0.5c0.6,0.3,1,0.8,1.4,1.3H45
		V2.4h4.1v17.9h-3.9v-1.7h-0.1c-0.4,0.7-0.9,1.2-1.5,1.6S42.2,20.7,41.3,20.7z M42.4,17.4c0.9,0,1.5-0.3,2-1
		c0.5-0.7,0.7-1.5,0.7-2.6c0-0.5-0.1-1-0.2-1.5c-0.1-0.5-0.3-0.8-0.5-1.2s-0.5-0.6-0.8-0.8S42.9,10,42.4,10c-0.8,0-1.5,0.3-1.9,1
		c-0.5,0.7-0.7,1.6-0.7,2.6c0,1.1,0.2,2,0.7,2.7C41,17.1,41.6,17.4,42.4,17.4z"/>
	<path d="M57.3,20.6c-1.1,0-2-0.2-2.9-0.5s-1.6-0.8-2.1-1.4c-0.6-0.6-1-1.3-1.4-2.2c-0.3-0.8-0.5-1.7-0.5-2.7s0.2-1.8,0.5-2.7
		c0.3-0.8,0.8-1.5,1.4-2.1c0.6-0.6,1.3-1.1,2.1-1.4C55.1,7.3,56,7.1,57,7.1c0.9,0,1.7,0.1,2.5,0.4s1.4,0.7,1.9,1.2
		c0.8,0.7,1.3,1.6,1.7,2.7s0.6,2.3,0.5,3.6h-9.2c0.1,0.9,0.4,1.5,0.9,2s1.1,0.8,2,0.8c0.5,0,1-0.1,1.3-0.3c0.4-0.2,0.6-0.5,0.8-0.9
		h4c-0.1,0.6-0.4,1.1-0.8,1.7c-0.4,0.5-0.8,1-1.4,1.4c-0.5,0.4-1.1,0.7-1.8,0.9C58.8,20.5,58.1,20.6,57.3,20.6z M59.5,12.5
		c-0.1-0.8-0.3-1.4-0.8-1.8c-0.4-0.5-1-0.7-1.7-0.7c-0.8,0-1.4,0.2-1.8,0.7c-0.4,0.4-0.7,1.1-0.8,1.8H59.5z"/>
	<path d="M70.5,20.7c-1.9,0-3.4-0.4-4.5-1.2c-1.1-0.8-1.7-1.9-1.8-3.3H68c0.1,0.6,0.3,1.1,0.7,1.4s0.9,0.5,1.6,0.5
		c0.6,0,1.1-0.1,1.5-0.3c0.4-0.2,0.5-0.5,0.5-1c0-0.3-0.1-0.5-0.3-0.7c-0.2-0.2-0.4-0.3-0.7-0.4c-0.3-0.1-0.6-0.2-1-0.2
		c-0.4-0.1-0.8-0.1-1.2-0.2c-0.5-0.1-1.1-0.2-1.6-0.4c-0.5-0.1-1-0.4-1.5-0.6c-0.4-0.3-0.8-0.7-1.1-1.1c-0.3-0.5-0.4-1.1-0.4-1.8
		s0.1-1.3,0.4-1.8s0.7-0.9,1.2-1.3c0.5-0.3,1.1-0.6,1.8-0.8c0.7-0.2,1.4-0.3,2.1-0.3c1.8,0,3.2,0.4,4.2,1.1s1.5,1.7,1.6,3H72
		c-0.1-0.6-0.3-1-0.7-1.2c-0.4-0.2-0.8-0.3-1.4-0.3c-0.5,0-0.9,0.1-1.3,0.3c-0.3,0.2-0.5,0.5-0.5,0.9c0,0.2,0.1,0.4,0.2,0.6
		c0.2,0.1,0.4,0.2,0.7,0.3c0.3,0.1,0.6,0.2,1,0.2c0.4,0.1,0.8,0.1,1.2,0.2c0.6,0.1,1.1,0.2,1.7,0.4c0.6,0.1,1.1,0.4,1.6,0.7
		s0.9,0.7,1.2,1.2c0.3,0.5,0.5,1.2,0.5,2c0,0.7-0.1,1.3-0.4,1.8s-0.7,1-1.2,1.3s-1.1,0.6-1.9,0.8C72.1,20.6,71.3,20.7,70.5,20.7z"/>
	<path d="M82.3,20.4c-0.6,0-1.1-0.1-1.6-0.2s-0.9-0.3-1.3-0.6c-0.4-0.3-0.6-0.6-0.9-1.1c-0.2-0.5-0.3-1-0.3-1.7V10h-1.7V7.5h1.7v-4
		h4v4h2.3V10h-2.3v6c0,0.5,0.1,0.8,0.4,1s0.6,0.2,1,0.2c0.2,0,0.4,0,0.5,0c0.2,0,0.3,0,0.4,0v3c-0.2,0-0.5,0.1-0.8,0.1
		C83.3,20.4,82.9,20.4,82.3,20.4z"/>
	<path d="M90.1,2.4h13.3v3.7h-8.9v3.6h7.4v3.6h-7.4v7h-4.4V2.4z"/>
	<path d="M107.5,20.6c-0.6,0-1.2-0.1-1.8-0.2c-0.5-0.2-1-0.4-1.4-0.8c-0.4-0.3-0.7-0.7-0.9-1.2c-0.2-0.5-0.3-1-0.3-1.7
		c0-0.7,0.1-1.3,0.4-1.8s0.6-0.9,1.1-1.2c0.4-0.3,1-0.5,1.6-0.7s1.2-0.3,1.9-0.4c1.2-0.2,2-0.3,2.5-0.5s0.7-0.5,0.7-0.9
		s-0.1-0.8-0.4-1s-0.7-0.4-1.3-0.4c-0.7,0-1.1,0.1-1.5,0.4c-0.3,0.3-0.5,0.7-0.6,1.2h-3.8c0-0.6,0.1-1.2,0.4-1.7
		c0.2-0.5,0.6-1,1.1-1.4c0.5-0.4,1.1-0.7,1.8-1c0.7-0.2,1.6-0.4,2.5-0.4s1.8,0.1,2.5,0.3c0.7,0.2,1.2,0.4,1.7,0.8s1,0.9,1.2,1.5
		c0.3,0.6,0.4,1.3,0.4,2.1v6.5c0,0.5,0,0.9,0.1,1.2c0.1,0.3,0.2,0.5,0.4,0.6v0.2h-4c-0.1-0.1-0.2-0.3-0.2-0.6
		c-0.1-0.2-0.1-0.5-0.2-0.9h-0.1c-0.4,0.5-0.9,1-1.5,1.3C109.2,20.4,108.5,20.6,107.5,20.6z M108.8,18c0.8,0,1.4-0.2,1.9-0.6
		s0.7-1,0.7-1.7v-1.5c-0.3,0.1-0.6,0.3-0.9,0.4s-0.7,0.2-1.2,0.3c-0.8,0.2-1.4,0.4-1.7,0.6c-0.3,0.2-0.5,0.6-0.5,1.1
		s0.2,0.9,0.5,1.1C107.9,17.9,108.3,18,108.8,18z"/>
	<path d="M122.7,20.7c-1.9,0-3.4-0.4-4.5-1.2c-1.1-0.8-1.7-1.9-1.8-3.3h3.8c0.1,0.6,0.3,1.1,0.7,1.4c0.4,0.3,0.9,0.5,1.6,0.5
		c0.6,0,1.1-0.1,1.5-0.3c0.4-0.2,0.5-0.5,0.5-1c0-0.3-0.1-0.5-0.3-0.7c-0.2-0.2-0.4-0.3-0.7-0.4c-0.3-0.1-0.6-0.2-1-0.2
		c-0.4-0.1-0.8-0.1-1.2-0.2c-0.5-0.1-1.1-0.2-1.6-0.4c-0.5-0.1-1-0.4-1.5-0.6c-0.4-0.3-0.8-0.7-1.1-1.1c-0.3-0.5-0.4-1.1-0.4-1.8
		s0.1-1.3,0.4-1.8s0.7-0.9,1.2-1.3c0.5-0.3,1.1-0.6,1.8-0.8c0.7-0.2,1.4-0.3,2.1-0.3c1.8,0,3.2,0.4,4.2,1.1s1.5,1.7,1.6,3h-3.8
		c-0.1-0.6-0.3-1-0.7-1.2c-0.4-0.2-0.8-0.3-1.4-0.3c-0.5,0-0.9,0.1-1.3,0.3s-0.5,0.5-0.5,0.9c0,0.2,0.1,0.4,0.2,0.6
		c0.2,0.1,0.4,0.2,0.7,0.3c0.3,0.1,0.6,0.2,1,0.2c0.4,0.1,0.8,0.1,1.2,0.2c0.6,0.1,1.1,0.2,1.7,0.4c0.6,0.1,1.1,0.4,1.6,0.7
		s0.9,0.7,1.2,1.2s0.5,1.2,0.5,2c0,0.7-0.1,1.3-0.4,1.8c-0.3,0.5-0.7,1-1.2,1.3s-1.1,0.6-1.8,0.8C124.3,20.6,123.5,20.7,122.7,20.7z
		"/>
	<path d="M129.8,2.4h4.1V9h0.1c0.5-0.6,1-1.1,1.6-1.4s1.3-0.5,2.2-0.5c0.7,0,1.3,0.1,1.9,0.4c0.6,0.2,1,0.6,1.4,1s0.7,0.9,0.9,1.5
		s0.3,1.2,0.3,2v8.3h-4.1v-7.5c0-0.7-0.2-1.2-0.5-1.7c-0.3-0.4-0.8-0.6-1.5-0.6s-1.2,0.2-1.6,0.8c-0.4,0.5-0.6,1.2-0.6,2v7.1h-4.1
		L129.8,2.4L129.8,2.4z"/>
	<path d="M144.1,2.4h4.1v3.3h-4.1V2.4z M144.1,7.5h4.1v12.8h-4.1V7.5z"/>
	<path d="M156.4,20.7c-1,0-2-0.2-2.8-0.5s-1.6-0.8-2.2-1.4c-0.6-0.6-1.1-1.3-1.4-2.2c-0.3-0.9-0.5-1.7-0.5-2.7s0.2-1.9,0.5-2.7
		s0.8-1.5,1.4-2.2c0.6-0.6,1.3-1.1,2.2-1.4c0.8-0.3,1.8-0.5,2.8-0.5s2,0.2,2.8,0.5s1.6,0.8,2.2,1.4c0.6,0.6,1,1.3,1.4,2.2
		s0.5,1.7,0.5,2.7s-0.2,1.9-0.5,2.7c-0.3,0.8-0.8,1.5-1.4,2.2c-0.6,0.6-1.3,1.1-2.2,1.4C158.4,20.5,157.4,20.7,156.4,20.7z
		 M156.4,17.8c0.9,0,1.6-0.4,2-1.1c0.5-0.7,0.7-1.6,0.7-2.8s-0.2-2.1-0.7-2.8c-0.5-0.7-1.1-1.1-2-1.1s-1.6,0.4-2,1.1
		c-0.5,0.7-0.7,1.7-0.7,2.8c0,1.2,0.2,2.1,0.7,2.8C154.8,17.4,155.5,17.8,156.4,17.8z"/>
	<path d="M164.6,7.5h3.9v1.8h0.1c0.5-0.7,1-1.2,1.7-1.6s1.4-0.5,2.3-0.5c0.7,0,1.3,0.1,1.9,0.4c0.5,0.2,1,0.6,1.4,1s0.7,0.9,0.9,1.5
		s0.3,1.2,0.3,2v8.3H173v-7.5c0-0.7-0.2-1.2-0.5-1.7c-0.3-0.4-0.8-0.6-1.5-0.6s-1.2,0.2-1.6,0.8s-0.6,1.2-0.6,2v7.1h-4.1L164.6,7.5
		L164.6,7.5z"/>
</g>
<g>
	<path d="M184.1,0.4h3.4v3.8l3.3-1.9l1.7,2.9l-3.3,1.9l3.3,1.9l-1.7,2.9l-3.3-1.9v3.8h-3.4V10l-3.3,1.9L179.1,9l3.3-1.9l-3.3-1.9
		l1.7-2.9l3.3,1.9V0.4z"/>
</g>
<text transform="matrix(1 0 0 1 193.7246 20.26)" class="st0 st1"> </text>
</svg>
