<?xml version="1.0" encoding="utf-8"?>
<!-- Generator: Adobe Illustrator 24.3.0, SVG Export Plug-In . SVG Version: 6.00 Build 0)  -->
<svg version="1.1" id="Laag_1" xmlns="http://www.w3.org/2000/svg" xmlns:xlink="http://www.w3.org/1999/xlink" x="0px" y="0px"
	 width="135.9px" height="66.7px" viewBox="0 0 135.9 66.7" style="enable-background:new 0 0 135.9 66.7;" xml:space="preserve">
<style type="text/css">
	.st0{fill:#EBEEE2;}
</style>
<g>
	<g>
		<g>
			<g>
				<path class="st0" d="M20.3,12c-1.4,0-2.6-0.5-3.5-1.4c-0.9-1-1.4-2.2-1.4-3.6s0.5-2.6,1.4-3.6S18.9,2,20.3,2s2.5,0.5,3.5,1.4
					s1.4,2.2,1.4,3.6s-0.5,2.6-1.4,3.6S21.7,12,20.3,12z M20.3,10.7c1,0,1.8-0.4,2.5-1.1c0.7-0.7,1-1.6,1-2.7s-0.3-2-1-2.7
					s-1.5-1.1-2.5-1.1s-1.8,0.4-2.5,1.1s-1,1.6-1,2.7s0.3,2,1,2.7C18.5,10.3,19.3,10.7,20.3,10.7z"/>
				<path class="st0" d="M33,11.8l-0.8-2.5h-4l-0.8,2.5H26L29.3,2H31l3.4,9.8H33z M28.6,8.2h3.2l-1.6-4.7h-0.1L28.6,8.2z"/>
				<path class="st0" d="M42.2,9.4c0,0.8-0.3,1.5-0.9,1.9S39.9,12,38.9,12c-1.1,0-2-0.3-2.6-0.9c-0.6-0.6-0.9-1.3-1-2.2h1.3
					c0,0.6,0.2,1.1,0.6,1.4c0.4,0.4,0.9,0.5,1.7,0.5c0.6,0,1-0.1,1.4-0.4s0.5-0.6,0.5-1.1s-0.2-0.8-0.5-1.1s-0.9-0.6-1.8-0.9
					c-0.9-0.3-1.6-0.7-2.2-1.1c-0.5-0.4-0.8-1-0.8-1.7c0-0.8,0.3-1.5,0.9-2C37,2,37.7,1.8,38.6,1.8c1,0,1.8,0.3,2.4,0.8s1,1.4,1,2.2
					h-1.2c0-0.5-0.2-0.9-0.6-1.2S39.4,3,38.7,3c-0.5,0-0.9,0.1-1.3,0.4S37,4.1,37,4.5s0.2,0.8,0.5,1s0.9,0.5,1.7,0.8
					c1,0.3,1.8,0.8,2.3,1.2S42.2,8.6,42.2,9.4z"/>
				<path class="st0" d="M45.5,10.6h5.1v1.2h-6.3V2h6.2v1.2h-4.9v3.1H50v1.2h-4.4L45.5,10.6L45.5,10.6z"/>
				<path class="st0" d="M62.8,11.8h-1.4l-2.3-4l0,0h-1.9v4H56V2h3.3c1,0,1.8,0.3,2.3,0.8c0.6,0.5,0.9,1.2,0.9,2.1
					c0,0.7-0.2,1.2-0.5,1.7c-0.4,0.5-0.9,0.8-1.5,1L62.8,11.8z M57.1,3.2v3.4H59c0.6,0,1.2-0.2,1.5-0.5C60.9,5.8,61,5.4,61,4.9
					s-0.2-1-0.5-1.3c-0.4-0.3-0.9-0.4-1.5-0.4H57.1z"/>
				<path class="st0" d="M68.7,12c-1.4,0-2.6-0.5-3.5-1.4c-0.9-1-1.4-2.2-1.4-3.6s0.5-2.6,1.4-3.6S67.3,2,68.7,2s2.5,0.5,3.5,1.4
					s1.4,2.2,1.4,3.6s-0.5,2.6-1.4,3.6S70.1,12,68.7,12z M68.7,10.7c1,0,1.8-0.4,2.5-1.1c0.7-0.7,1-1.6,1-2.7s-0.3-2-1-2.7
					s-1.5-1.1-2.5-1.1s-1.8,0.4-2.5,1.1s-1,1.6-1,2.7s0.3,2,1,2.7C66.8,10.3,67.7,10.7,68.7,10.7z"/>
				<path class="st0" d="M81.2,2v1.2h-2.9v8.6H77V3.2h-2.8V2H81.2z"/>
				<path class="st0" d="M89.5,2v1.2h-2.9v8.6h-1.3V3.2h-2.8V2H89.5z"/>
				<path class="st0" d="M92.4,10.6h5.1v1.2h-6.3V2h6.2v1.2h-4.9v3.1h4.4v1.2h-4.4L92.4,10.6L92.4,10.6z"/>
				<path class="st0" d="M106,11.8h-1.4l-2.3-4l0,0h-1.9v4h-1.2V2h3.3c1,0,1.8,0.3,2.3,0.8c0.6,0.5,0.9,1.2,0.9,2.1
					c0,0.7-0.2,1.2-0.5,1.7c-0.4,0.5-0.9,0.8-1.5,1L106,11.8z M100.3,3.2v3.4h1.9c0.6,0,1.2-0.2,1.5-0.5c0.4-0.3,0.5-0.7,0.5-1.3
					c0-0.5-0.2-1-0.5-1.3c-0.4-0.3-0.9-0.4-1.5-0.4L100.3,3.2L100.3,3.2z"/>
				<path class="st0" d="M110.5,2c1.6,0,2.8,0.4,3.6,1.3c0.8,0.9,1.3,2.1,1.3,3.5c0,1.5-0.4,2.7-1.2,3.6c-0.8,0.9-2,1.3-3.6,1.3
					h-2.9V2H110.5z M110.4,10.6c1.2,0,2.1-0.3,2.7-1S114,8,114,6.8c0-1.1-0.3-2-0.9-2.6s-1.5-1-2.7-1h-1.6v7.4H110.4z"/>
				<path class="st0" d="M123.2,11.8l-0.8-2.5h-4l-0.8,2.5h-1.4l3.4-9.8h1.7l3.4,9.8H123.2z M118.7,8.2h3.2l-1.6-4.7h-0.1L118.7,8.2
					z"/>
				<path class="st0" d="M135.9,2v9.8h-1.3V3.9h-0.1l-2.9,7h-1.4l-2.9-7h-0.1v7.9H126V2h1.8l3.1,7.4h0.1l3-7.4
					C134,2,135.9,2,135.9,2z"/>
			</g>
		</g>
		<g>
			<path class="st0" d="M5.3,14.2l-0.4-0.4C4.4,13.2,0,8.4,0,5.6c0-2.9,2.4-5.3,5.3-5.3s5.3,2.4,5.3,5.3c0,2.8-4.4,7.7-4.9,8.2
				L5.3,14.2z M5.3,1.3C2.9,1.3,1,3.2,1,5.6c0,1.8,2.8,5.4,4.3,7.1C6.8,11,9.6,7.4,9.6,5.6C9.6,3.2,7.7,1.3,5.3,1.3z"/>
			<path class="st0" d="M5.3,4.6c0.5,0,0.8,0.4,0.8,0.8c0,0.5-0.4,0.8-0.8,0.8c-0.5,0-0.8-0.4-0.8-0.8S4.9,4.6,5.3,4.6 M5.3,3.6
				c-1,0-1.9,0.8-1.9,1.9c0,1,0.8,1.9,1.9,1.9s1.9-0.8,1.9-1.9C7.2,4.4,6.3,3.6,5.3,3.6L5.3,3.6z"/>
		</g>
	</g>
</g>
<g>
	<g>
		<path class="st0" d="M7,40.5h1.4v11.2h-1l-0.2-1.1H6.9c-0.6,0.8-1.4,1.3-2.5,1.3c-1,0-1.9-0.4-2.6-1.1c-0.7-0.8-1-1.7-1-2.9
			c0-1.2,0.3-2.2,1-2.9s1.6-1.1,2.6-1.1c1.2,0,2,0.4,2.5,1.3V40.5z M2.9,49.8c0.5,0.5,1,0.8,1.7,0.8c0.7,0,1.3-0.3,1.7-0.8
			c0.4-0.5,0.6-1.2,0.6-2c0-0.8-0.2-1.5-0.6-2.1s-1-0.8-1.7-0.8c-0.7,0-1.3,0.3-1.7,0.8c-0.4,0.5-0.7,1.2-0.7,2
			C2.2,48.6,2.5,49.3,2.9,49.8z"/>
		<path class="st0" d="M13.4,51.9c-1.2,0-2.1-0.4-2.9-1.2c-0.8-0.8-1.1-1.8-1.1-2.9c0-1.2,0.4-2.1,1.1-2.9s1.7-1.2,2.9-1.2
			s2.1,0.4,2.9,1.2c0.8,0.8,1.1,1.7,1.1,2.9c0,1.2-0.4,2.2-1.1,2.9C15.5,51.5,14.5,51.9,13.4,51.9z M13.4,50.6
			c0.8,0,1.4-0.3,1.9-0.8s0.7-1.2,0.7-2c0-0.8-0.2-1.5-0.7-2c-0.5-0.6-1.1-0.8-1.9-0.8c-0.8,0-1.4,0.3-1.8,0.8
			c-0.5,0.6-0.7,1.2-0.7,2c0,0.8,0.2,1.5,0.7,2S12.6,50.6,13.4,50.6z"/>
		<path class="st0" d="M23.5,51.7v-7.3h-2v-1.1h0.9c0.8,0,1.2-0.4,1.2-1.1v-0.5h1.3v10.1H23.5z"/>
		<path class="st0" d="M33.2,50.5c-0.7,0.9-1.6,1.3-2.7,1.3c-1.1,0-2-0.4-2.7-1.3c-0.7-0.9-1-2.2-1-3.9c0-1.7,0.3-3,1-3.9
			c0.7-0.9,1.6-1.3,2.7-1.3c1.1,0,2,0.4,2.7,1.3c0.7,0.9,1,2.2,1,3.9C34.2,48.4,33.8,49.7,33.2,50.5z M28.9,49.6
			c0.4,0.6,0.9,1,1.6,1c0.7,0,1.2-0.3,1.6-1s0.6-1.6,0.6-2.9c0-1.3-0.2-2.2-0.6-2.9c-0.4-0.7-0.9-1-1.6-1c-0.7,0-1.2,0.3-1.6,1
			s-0.6,1.6-0.6,2.9C28.3,48,28.5,48.9,28.9,49.6z"/>
		<path class="st0" d="M3.5,57.6v1h2v1.1h-2v6.7H2.1v-6.7H0.7v-1.1h1.4v-1.1c0-0.7,0.2-1.2,0.6-1.6c0.4-0.4,0.9-0.6,1.5-0.6
			c0.7,0,1.2,0.2,1.6,0.6l-0.5,1.1c-0.3-0.3-0.6-0.4-0.9-0.4c-0.3,0-0.5,0.1-0.6,0.3S3.5,57.3,3.5,57.6z"/>
		<path class="st0" d="M9.3,58.4c1.1,0,2,0.4,2.7,1.1c0.7,0.7,1,1.8,0.9,3.3h-6c0.1,0.8,0.3,1.4,0.7,1.9c0.4,0.5,1,0.7,1.8,0.7
			c0.5,0,0.9-0.1,1.3-0.3c0.4-0.2,0.6-0.5,0.8-0.9h1.3c-0.2,0.8-0.6,1.4-1.2,1.8c-0.6,0.4-1.4,0.6-2.2,0.6c-1.2,0-2.1-0.4-2.8-1.1
			c-0.7-0.7-1-1.8-1-3c0-1.2,0.4-2.1,1.1-2.9S8.2,58.4,9.3,58.4z M7,61.8h4.6c0-0.6-0.2-1.1-0.6-1.5c-0.4-0.4-0.9-0.6-1.6-0.6
			c-0.6,0-1.2,0.2-1.6,0.6S7.1,61.1,7,61.8z"/>
		<path class="st0" d="M17.8,58.4c1,0,1.9,0.4,2.6,1.1s1,1.7,1,2.9c0,1.2-0.3,2.2-1,2.9c-0.7,0.8-1.5,1.1-2.6,1.1
			c-1.1,0-1.9-0.4-2.5-1.3h-0.2L15,66.5h-1V55.3h1.4v4.5C15.8,58.9,16.6,58.4,17.8,58.4z M15.9,64.6c0.4,0.5,1,0.8,1.7,0.8
			c0.7,0,1.3-0.3,1.7-0.8c0.5-0.5,0.7-1.2,0.7-2c0-0.8-0.2-1.5-0.7-2s-1-0.8-1.7-0.8c-0.7,0-1.3,0.3-1.7,0.8
			c-0.4,0.5-0.6,1.2-0.6,2.1C15.3,63.4,15.5,64,15.9,64.6z"/>
	</g>
	<g>
		<path class="st0" d="M112.2,50.6h4v1.2h-5.9v-0.9l4-5.7v-0.1h-3.8v-1.2h5.6v0.9L112.2,50.6L112.2,50.6z"/>
		<path class="st0" d="M124,50.4l0.5,0.9c-0.1,0.1-0.2,0.3-0.4,0.4c-0.2,0.1-0.4,0.2-0.7,0.2c-0.4,0-0.7-0.1-1-0.3
			c-0.2-0.2-0.4-0.5-0.4-0.9c-0.7,0.8-1.6,1.2-2.7,1.2c-0.8,0-1.4-0.2-1.9-0.6c-0.5-0.4-0.7-0.9-0.7-1.6c0-0.8,0.3-1.4,0.9-1.8
			c0.6-0.4,1.5-0.7,2.6-0.8l1.5-0.1v-0.2c0-0.6-0.1-1.1-0.4-1.4c-0.3-0.4-0.7-0.5-1.2-0.5c-0.5,0-0.9,0.2-1.2,0.5
			c-0.3,0.3-0.5,0.7-0.5,1.1H117c0.1-0.8,0.4-1.4,0.9-1.9c0.5-0.5,1.3-0.7,2.1-0.7c0.9,0,1.6,0.3,2.2,0.8c0.5,0.5,0.8,1.3,0.8,2.3v3
			c0,0.6,0.2,0.8,0.5,0.8C123.7,50.8,123.8,50.7,124,50.4z M119.4,50.8c0.6,0,1.1-0.2,1.6-0.6c0.5-0.4,0.7-0.9,0.7-1.6v-0.5
			l-1.3,0.1c-0.8,0.1-1.3,0.2-1.7,0.5c-0.4,0.3-0.6,0.6-0.6,1c0,0.4,0.1,0.7,0.4,0.8C118.7,50.7,119,50.8,119.4,50.8z"/>
		<path class="st0" d="M131.6,45.2c1,0,1.8,0.3,2.4,0.9c0.6,0.6,0.9,1.5,0.9,2.5c0,1-0.3,1.8-1,2.4s-1.5,0.9-2.5,0.9
			c-1,0-1.9-0.3-2.5-0.9c-0.6-0.6-0.9-1.4-1-2.3h1.4c0.1,0.6,0.3,1.1,0.6,1.4s0.8,0.5,1.4,0.5c0.6,0,1.1-0.2,1.5-0.6
			c0.4-0.4,0.6-0.9,0.6-1.5c0-0.6-0.2-1.2-0.6-1.6c-0.4-0.4-0.9-0.6-1.5-0.6c-0.9,0-1.6,0.4-2,1.1l-1.2-0.4l0.5-5.4h5.7V43h-4.4
			l-0.3,2.8C130.1,45.4,130.8,45.2,131.6,45.2z"/>
		<path class="st0" d="M121.7,58.5c0.8,0,1.5,0.3,2,0.8c0.5,0.5,0.7,1.3,0.7,2.4v4.8H123v-4.7c0-0.7-0.2-1.2-0.5-1.5
			c-0.3-0.3-0.7-0.5-1.2-0.5c-0.5,0-0.9,0.2-1.2,0.5c-0.3,0.4-0.5,0.9-0.5,1.5v4.7h-1.4v-4.6c0-0.7-0.2-1.2-0.5-1.6
			c-0.3-0.4-0.7-0.5-1.2-0.5c-0.5,0-0.9,0.2-1.2,0.5c-0.4,0.4-0.5,0.9-0.5,1.5v4.7h-1.4v-7.9h1.1l0.2,1h0.1c0.2-0.3,0.5-0.6,0.9-0.8
			s0.8-0.3,1.3-0.3c0.6,0,1,0.1,1.4,0.4s0.7,0.6,0.8,1h0.1c0.2-0.4,0.5-0.8,0.9-1C120.7,58.7,121.2,58.5,121.7,58.5z"/>
		<path class="st0" d="M129.5,58.5h0.5v1.4c-0.1,0-0.4-0.1-0.6-0.1c-0.6,0-1.1,0.2-1.5,0.7s-0.6,1.1-0.6,1.9v4.1h-1.4v-7.9h1.1
			l0.2,1.1h0.1C127.7,58.9,128.5,58.5,129.5,58.5z"/>
		<path class="st0" d="M135.2,66.3c-0.4,0.2-0.8,0.4-1.3,0.4c-1.3,0-1.9-0.7-1.9-2.1v-4.8h-1.5v-1h0.5c0.8,0,1.2-0.4,1.2-1.1v-1h1.2
			v2h1.9v1.1h-1.9v4.6c0,0.7,0.3,1,0.8,1c0.3,0,0.5-0.1,0.7-0.2L135.2,66.3z"/>
	</g>
	<rect x="45.7" y="52.9" class="st0" width="50.4" height="0.8"/>
</g>
</svg>
