<?xml version="1.0" encoding="utf-8"?>
<!-- Generator: Adobe Illustrator 24.3.0, SVG Export Plug-In . SVG Version: 6.00 Build 0)  -->
<svg version="1.1" id="Laag_1" xmlns="http://www.w3.org/2000/svg" xmlns:xlink="http://www.w3.org/1999/xlink" x="0px" y="0px"
	 width="134.8px" height="18.7px" viewBox="0 0 134.8 18.7" style="enable-background:new 0 0 134.8 18.7;" xml:space="preserve">
<g>
	<path style="fill:#B0AFAE;" d="M0,0.3h4v18H0V0.3z"/>
	<path style="fill:#B0AFAE;" d="M20.7,18.4L11.9,7.2v11.2h-4v-18h3.5l8.8,11.1V0.3h4.1v18H20.7z"/>
	<path style="fill:#B0AFAE;" d="M26.7,15.4l3.1-2.6c0.9,1.3,2.4,2.1,3.7,2.1c1.3,0,2.2-0.6,2.2-1.5c0-0.9-0.7-1.6-2.5-2.2l-1.3-0.4
		c-2.9-1-4.6-2.7-4.6-5.2C27.4,2.1,30,0,33.6,0c2.2,0,4.1,0.7,5.8,2.5l-2.6,2.8c-0.8-1-2-1.5-3.1-1.5c-1.1,0-2.2,0.4-2.2,1.4
		c0,1,0.9,1.4,2.8,2.1l1.3,0.5c2.6,0.9,4.3,2.7,4.3,5.4c0,3.3-2.6,5.6-6.5,5.6C30.5,18.7,28.1,17.5,26.7,15.4z"/>
	<path style="fill:#B0AFAE;" d="M41.6,9.3c0-5.1,4.2-9.3,9.3-9.3c3.8,0,6.9,2,8.4,4.9l-3.6,1.9c-1-1.8-2.6-2.9-4.9-2.9
		c-2.9,0-5.3,2.5-5.3,5.4c0,2.9,2.3,5.4,5.3,5.4c2.3,0,3.9-1.1,4.9-2.9l3.6,1.9c-1.6,3-4.7,4.9-8.4,4.9
		C45.8,18.7,41.6,14.5,41.6,9.3z"/>
	<path style="fill:#B0AFAE;" d="M61.7,0.3h4v18h-4V0.3z"/>
	<path style="fill:#B0AFAE;" d="M69.6,0.3H81v3.9h-7.4v3.2h5.9v3.9h-5.9v3.2H81v3.9H69.6V0.3z"/>
	<path style="fill:#B0AFAE;" d="M97,18.4L88.2,7.2v11.2h-4v-18h3.5l8.8,11.1V0.3h4.1v18H97z"/>
	<path style="fill:#B0AFAE;" d="M103.2,9.3c0-5.1,4.2-9.3,9.3-9.3c3.8,0,6.9,2,8.4,4.9l-3.6,1.9c-1-1.8-2.6-2.9-4.9-2.9
		c-2.9,0-5.3,2.5-5.3,5.4c0,2.9,2.3,5.4,5.3,5.4c2.3,0,3.9-1.1,4.9-2.9l3.6,1.9c-1.6,3-4.7,4.9-8.4,4.9
		C107.4,18.7,103.2,14.5,103.2,9.3z"/>
	<path style="fill:#B0AFAE;" d="M123.4,0.3h11.4v3.9h-7.4v3.2h5.9v3.9h-5.9v3.2h7.4v3.9h-11.4V0.3z"/>
</g>
</svg>
