<?xml version="1.0" encoding="utf-8"?>
<!-- Generator: Adobe Illustrator 24.0.0, SVG Export Plug-In . SVG Version: 6.00 Build 0)  -->
<svg version="1.1" id="Laag_1" xmlns="http://www.w3.org/2000/svg" xmlns:xlink="http://www.w3.org/1999/xlink" x="0px" y="0px"
	 width="211.3px" height="57px" viewBox="0 0 211.3 57" style="enable-background:new 0 0 211.3 57;" xml:space="preserve">
<style type="text/css">
	.st0{fill:#1961AC;}
	.st1{fill:#FFFFFF;}
	.st2{opacity:0.3;}
	.st3{fill:url(#SVGID_1_);}
</style>
<g>
	<g>
		<path class="st0" d="M207.9,36.6l-7.7-16.4l7.1-16c-5.3,0.5-17.8-0.6-22.1-1.3c0-0.2-3.3-0.4-3.6-0.4c-1.2-0.1-2.5-0.2-3.7-0.3
			C175.3,2,172.9,2,170.5,2c-4.8,0.1-9.7,0.5-14.5,1.1c-4.8,0.6-9.6,1.5-14.3,2.5c-4.8,1-9.5,2.2-14.2,3.4
			c-4.7,1.2-9.4,2.5-14.2,3.8c-4.7,1.3-9.4,2.5-14.2,3.6c-4.7,1.1-9.5,2.1-14.3,2.9c-4.8,0.8-9.6,1.3-14.4,1.6
			c-5.3,0.3-10.6,0.2-15.9-0.4c-2.2-0.2-4.4-0.5-6.6-0.8c-1-0.2-2.1-0.3-3.1-0.4c-0.6-0.1-1.1-0.1-1.7-0.2c-0.5,0-1.1-0.2-1.6-0.1
			c-1.5-0.1-3-0.1-4.5,0c0,0,4,32.4,4,32.4c0.1,0.2,2.7,0.2,3,0.2c1.1,0,2.1,0.1,3.2,0.1c2,0.1,4,0.4,6.1,0.6
			c4.2,0.5,8.4,1,12.6,1.1c4.2,0.1,8.4-0.1,12.6-0.5c3.2-0.3,6.5-0.6,9.7-1.2c7.6-1.2,15-2.9,22.5-4.8c7.5-1.9,14.9-4,22.3-5.9
			c7.4-1.9,14.9-3.7,22.4-4.9c7.5-1.2,15.2-1.9,22.8-1.7c4.2,0.1,8.3,0.5,12.5,1.1C194.5,36,200.8,36.8,207.9,36.6z"/>
	</g>
	<g>
		<g>
			<path class="st1" d="M52.2,39.8c1.9,0.4,3.7,0.7,5.6,0.9c0.1,0.5,0.1,0.9,0.2,1.4c-2.4-0.3-4.7-0.7-7.1-1.2
				c-0.4-3.3-0.8-6.7-1.2-10c-0.1-0.5-0.1-0.9-0.2-1.4c2.3,0.6,4.6,1,6.9,1.3c0.1,0.5,0.1,0.9,0.2,1.4c-1.8-0.3-3.6-0.6-5.5-1
				c0.1,1.2,0.3,2.3,0.4,3.5c1.7,0.4,3.3,0.6,5,0.9c0.1,0.5,0.1,0.9,0.2,1.4c-1.7-0.2-3.3-0.5-5-0.9C52,37.4,52.1,38.6,52.2,39.8z"
				/>
			<path class="st1" d="M62.7,34.6c1,0.1,1.8,0.4,2.3,1.1c0.6,0.7,0.9,1.6,1.1,2.7c0.2,1.4,0.3,2.9,0.5,4.3c-0.5,0-0.9,0-1.4,0
				c-0.2-1.3-0.3-2.6-0.5-3.8c0-0.4-0.1-0.8-0.2-1.1c-0.1-0.3-0.2-0.6-0.4-1c-0.2-0.3-0.4-0.6-0.6-0.8c-0.3-0.2-0.6-0.3-1-0.3
				c-0.6,0-1.1,0.1-1.4,0.5c-0.4,0.4-0.5,0.9-0.4,1.6c0.2,1.5,0.4,3.1,0.5,4.6c-0.5,0-0.9-0.1-1.4-0.1c-0.3-2.7-0.6-5.4-1-8
				c0.3,0,0.6,0.1,0.9,0.1c0.1,0.3,0.3,0.6,0.4,0.9c0.1,0,0.1,0,0.2,0C61,34.8,61.8,34.5,62.7,34.6z"/>
			<path class="st1" d="M77.2,31c0.4,0,0.9-0.1,1.3-0.1c0.5,3.7,0.9,7.4,1.4,11.1c-0.3,0-0.6,0.1-0.9,0.1c-0.1-0.3-0.3-0.6-0.4-1
				c-0.1,0-0.2,0-0.3,0c-0.5,0.8-1.2,1.2-2.1,1.3c-1,0.1-1.9-0.2-2.7-0.9c-0.8-0.7-1.3-1.7-1.4-2.8c-0.1-1.2,0.1-2.1,0.7-2.9
				c0.6-0.8,1.4-1.2,2.4-1.3c1-0.1,1.9,0.3,2.5,1C77.6,33.9,77.4,32.5,77.2,31z M74,36.6c-0.4,0.5-0.6,1.2-0.5,2
				c0.1,0.8,0.4,1.5,0.9,1.9c0.5,0.5,1.1,0.7,1.7,0.6c0.6-0.1,1.1-0.3,1.5-0.8c0.4-0.5,0.5-1.2,0.4-2.1c-0.1-0.9-0.4-1.5-0.9-2
				c-0.5-0.4-1.1-0.6-1.7-0.5C74.9,35.7,74.4,36,74,36.6z"/>
			<path class="st1" d="M82,34.7c0.6-0.8,1.5-1.3,2.5-1.5c1-0.2,1.9,0.1,2.7,0.7c0.8,0.6,1.3,1.6,1.3,3c-2,0.4-3.9,0.7-5.9,1
				c0.2,0.7,0.5,1.3,0.9,1.6c0.5,0.4,1.1,0.5,1.7,0.4c0.9-0.1,1.5-0.6,1.8-1.3c0.5-0.1,1-0.2,1.4-0.3c-0.2,0.8-0.6,1.4-1.2,1.9
				c-0.6,0.5-1.2,0.8-1.9,1c-1,0.2-1.9-0.1-2.8-0.7c-0.8-0.6-1.3-1.6-1.5-2.8C81.2,36.6,81.4,35.6,82,34.7z M86.2,34.7
				c-0.4-0.3-0.9-0.4-1.5-0.3c-0.6,0.1-1,0.4-1.4,0.8c-0.4,0.4-0.6,1-0.6,1.6c1.5-0.2,3-0.5,4.4-0.7C86.9,35.5,86.6,35,86.2,34.7z"
				/>
			<path class="st1" d="M98.2,30.4c1-0.3,1.9-0.1,2.7,0.5c0.8,0.6,1.3,1.4,1.4,2.5c0.1,1.1-0.1,2.2-0.7,3.1
				c-0.6,0.9-1.4,1.5-2.4,1.8c-1,0.2-1.8,0.1-2.4-0.5c-0.1,0-0.1,0-0.2,0.1c-0.1,0.4-0.1,0.7-0.2,1.1c-0.3,0.1-0.6,0.1-0.9,0.2
				c-0.5-3.7-0.9-7.3-1.4-11c0.4-0.1,0.9-0.2,1.3-0.3c0.2,1.5,0.4,2.9,0.5,4.4C96.5,31.2,97.2,30.6,98.2,30.4z M98.9,37
				c0.6-0.2,1.1-0.5,1.6-1.2c0.4-0.6,0.6-1.3,0.5-2.1c-0.1-0.8-0.4-1.4-0.9-1.7c-0.5-0.4-1.1-0.5-1.7-0.3c-0.6,0.1-1.1,0.5-1.5,1.1
				c-0.4,0.6-0.5,1.3-0.4,2.2c0.1,0.9,0.4,1.5,0.9,1.8C97.8,37.1,98.3,37.2,98.9,37z"/>
			<path class="st1" d="M103.3,25.8c0.5-0.1,0.9-0.2,1.4-0.4c0.5,3.6,0.9,7.3,1.4,10.9c-0.5,0.1-0.9,0.3-1.4,0.4
				C104.2,33.1,103.7,29.4,103.3,25.8z"/>
			<path class="st1" d="M107.7,26.5c-0.3,0.1-0.5,0.1-0.8-0.1c-0.2-0.1-0.4-0.3-0.4-0.6c0-0.3,0-0.5,0.2-0.8
				c0.2-0.2,0.4-0.4,0.7-0.5c0.3-0.1,0.5,0,0.7,0.1c0.2,0.1,0.4,0.3,0.4,0.6c0,0.3,0,0.5-0.2,0.8C108.2,26.3,108,26.4,107.7,26.5z
				 M108.5,27.7c0.3,2.6,0.6,5.1,1,7.7c-0.5,0.1-0.9,0.3-1.4,0.4c-0.3-2.6-0.6-5.1-1-7.7C107.6,27.9,108.1,27.8,108.5,27.7z"/>
			<path class="st1" d="M114.6,25.8c1-0.3,1.8-0.2,2.3,0.3c0.6,0.5,0.9,1.3,1.1,2.4c0.2,1.4,0.3,2.8,0.5,4.1
				c-0.5,0.1-0.9,0.3-1.4,0.4c-0.2-1.2-0.3-2.5-0.5-3.7c0-0.4-0.1-0.7-0.2-1c-0.1-0.3-0.2-0.6-0.4-0.8c-0.2-0.3-0.4-0.4-0.6-0.5
				c-0.3-0.1-0.6-0.1-1,0c-0.6,0.2-1.1,0.5-1.4,1.1c-0.4,0.5-0.5,1.1-0.4,1.8c0.2,1.5,0.4,2.9,0.5,4.4c-0.5,0.1-0.9,0.3-1.4,0.4
				c-0.3-2.6-0.6-5.1-1-7.7c0.3-0.1,0.6-0.2,0.9-0.3c0.1,0.3,0.3,0.5,0.4,0.8c0.1,0,0.1,0,0.2-0.1C112.9,26.6,113.7,26.1,114.6,25.8
				z"/>
			<path class="st1" d="M124.9,19.4c0.4-0.1,0.9-0.3,1.3-0.4c0.5,3.6,0.9,7.3,1.4,10.9c-0.3,0.1-0.6,0.2-0.9,0.3
				c-0.1-0.3-0.3-0.6-0.4-0.9c-0.1,0-0.2,0.1-0.3,0.1c-0.5,0.9-1.2,1.4-2.1,1.7c-1,0.3-1.9,0.2-2.7-0.3c-0.8-0.5-1.3-1.3-1.4-2.5
				c-0.1-1.1,0.1-2.2,0.7-3.1c0.6-1,1.4-1.6,2.4-1.9c1-0.3,1.9-0.1,2.5,0.5C125.3,22.3,125.1,20.8,124.9,19.4z M121.7,25.7
				c-0.4,0.6-0.6,1.3-0.5,2.1c0.1,0.8,0.4,1.4,0.9,1.7c0.5,0.3,1.1,0.4,1.7,0.2c0.6-0.2,1.1-0.6,1.5-1.2c0.4-0.6,0.5-1.3,0.4-2.2
				c-0.1-0.9-0.4-1.5-0.9-1.8c-0.5-0.3-1.1-0.4-1.7-0.2C122.6,24.7,122.1,25.1,121.7,25.7z"/>
			<path class="st1" d="M129.8,22.3c0.6-0.9,1.5-1.5,2.5-1.8c1-0.3,1.9-0.2,2.7,0.4c0.8,0.5,1.3,1.5,1.3,2.9c-2,0.6-3.9,1.1-5.9,1.7
				c0.2,0.7,0.5,1.2,0.9,1.5c0.5,0.3,1.1,0.3,1.7,0.1c0.9-0.3,1.5-0.8,1.8-1.5c0.5-0.1,1-0.3,1.4-0.4c-0.2,0.8-0.6,1.4-1.2,2
				c-0.6,0.6-1.2,1-1.9,1.2c-1,0.3-1.9,0.2-2.8-0.3c-0.8-0.5-1.3-1.4-1.5-2.5C128.9,24.3,129.1,23.2,129.8,22.3z M133.9,21.7
				c-0.4-0.3-0.9-0.3-1.5-0.1c-0.6,0.2-1,0.5-1.4,1c-0.4,0.5-0.6,1.1-0.6,1.7c1.5-0.4,3-0.9,4.4-1.3C134.6,22.4,134.3,22,133.9,21.7
				z"/>
			<path class="st1" d="M146,16.8c1-0.2,1.9-0.1,2.7,0.5c0.8,0.6,1.3,1.5,1.4,2.6c0.1,1.1-0.1,2.2-0.7,3.1c-0.6,0.9-1.4,1.5-2.4,1.7
				c-1,0.2-1.9,0-2.5-0.7c0.2,1.4,0.4,2.8,0.5,4.2c-0.4,0.1-0.9,0.2-1.3,0.3c-0.4-3.6-0.9-7.2-1.3-10.8c0.3-0.1,0.6-0.2,0.9-0.2
				c0.1,0.3,0.3,0.6,0.4,0.9c0.1,0,0.2,0,0.3-0.1C144.3,17.5,145,17,146,16.8z M146.7,23.4c0.6-0.1,1.1-0.5,1.6-1.1
				c0.4-0.6,0.6-1.3,0.5-2.1c-0.1-0.8-0.4-1.4-0.9-1.8c-0.5-0.4-1.1-0.5-1.7-0.4c-0.6,0.1-1.1,0.5-1.5,1.1c-0.4,0.6-0.5,1.3-0.4,2.2
				c0.1,0.9,0.4,1.5,0.9,1.8C145.5,23.5,146.1,23.6,146.7,23.4z"/>
			<path class="st1" d="M154.9,14.9c0.2,0,0.3-0.1,0.5-0.1c0.1,0.4,0.1,0.9,0.2,1.3c-0.2,0-0.4,0-0.7,0.1c-0.6,0.1-1,0.4-1.3,0.8
				c-0.3,0.4-0.5,0.9-0.4,1.6c0.2,1.5,0.4,3.1,0.6,4.6c-0.5,0.1-0.9,0.2-1.4,0.3c-0.3-2.6-0.6-5.2-1-7.8c0.3-0.1,0.6-0.1,0.9-0.2
				c0.1,0.3,0.2,0.5,0.4,0.8c0.1,0,0.1,0,0.2,0C153.4,15.5,154,15.1,154.9,14.9z"/>
			<path class="st1" d="M157.7,13.1c-0.3,0-0.5,0-0.8-0.2c-0.2-0.2-0.4-0.4-0.4-0.6c0-0.3,0-0.5,0.2-0.8c0.2-0.2,0.4-0.4,0.7-0.4
				c0.3,0,0.5,0,0.7,0.2c0.2,0.2,0.4,0.4,0.4,0.7c0,0.3,0,0.5-0.2,0.7C158.2,13,158,13.1,157.7,13.1z M158.6,14.4
				c0.3,2.6,0.6,5.2,1,7.8c-0.5,0.1-0.9,0.1-1.4,0.2c-0.3-2.6-0.6-5.2-1-7.8C157.7,14.5,158.1,14.5,158.6,14.4z"/>
			<path class="st1" d="M164.7,13.6c1-0.1,1.8,0.2,2.3,0.8c0.6,0.6,0.9,1.5,1.1,2.6c0.2,1.4,0.3,2.9,0.5,4.3c-0.5,0-0.9,0.1-1.4,0.1
				c-0.2-1.3-0.3-2.5-0.5-3.8c0-0.4-0.1-0.8-0.2-1.1c-0.1-0.3-0.2-0.6-0.4-0.9c-0.2-0.3-0.4-0.5-0.6-0.7c-0.3-0.1-0.6-0.2-1-0.2
				c-0.6,0.1-1.1,0.3-1.4,0.8c-0.4,0.5-0.5,1-0.4,1.7c0.2,1.5,0.4,3,0.5,4.5c-0.5,0-0.9,0.1-1.4,0.2c-0.3-2.6-0.6-5.2-1-7.8
				c0.3,0,0.6-0.1,0.9-0.1c0.1,0.3,0.3,0.6,0.4,0.9c0.1,0,0.1,0,0.2,0C163,14.1,163.7,13.6,164.7,13.6z"/>
			<path class="st1" d="M175.9,18.9c0.1,0.7-0.1,1.3-0.6,1.7c-0.5,0.4-1.1,0.6-1.9,0.6c-0.9,0-1.6-0.2-2.2-0.7
				c-0.6-0.5-1-1.1-1.1-1.8c0.4,0,0.8,0,1.3,0c0.1,0.5,0.3,0.8,0.6,1.1c0.4,0.3,0.8,0.4,1.2,0.4c0.4,0,0.7-0.1,1-0.3
				c0.3-0.2,0.4-0.5,0.3-0.8c0-0.4-0.2-0.6-0.5-0.8c-0.3-0.2-0.7-0.3-1.3-0.5c-0.3-0.1-0.5-0.1-0.7-0.2c-0.2-0.1-0.4-0.1-0.7-0.3
				c-0.3-0.1-0.5-0.2-0.7-0.4c-0.2-0.1-0.3-0.3-0.5-0.6c-0.1-0.2-0.2-0.5-0.3-0.8c-0.1-0.7,0.1-1.2,0.5-1.6c0.4-0.4,1-0.6,1.8-0.6
				c0.8,0,1.5,0.2,2.1,0.7c0.5,0.5,0.9,1,0.9,1.6c-0.4,0-0.8,0-1.3,0c0-0.3-0.2-0.6-0.5-0.8c-0.3-0.2-0.7-0.3-1.1-0.3
				c-0.4,0-0.7,0.1-0.9,0.3c-0.2,0.2-0.3,0.5-0.3,0.8c0,0.3,0.2,0.6,0.5,0.7c0.3,0.2,0.7,0.3,1.2,0.4c0.3,0.1,0.6,0.2,0.8,0.2
				c0.2,0.1,0.4,0.2,0.7,0.3c0.3,0.1,0.5,0.3,0.7,0.4c0.2,0.1,0.3,0.4,0.5,0.6C175.7,18.3,175.8,18.6,175.9,18.9z"/>
			<path class="st1" d="M178,14.3c0.6-0.7,1.5-1,2.5-0.9c1,0.1,1.9,0.6,2.7,1.4c0.8,0.9,1.3,2,1.3,3.4c-2-0.3-3.9-0.5-5.9-0.6
				c0.2,0.8,0.5,1.4,0.9,1.8c0.5,0.5,1.1,0.7,1.7,0.8c0.9,0.1,1.5-0.2,1.8-0.8c0.5,0.1,1,0.1,1.4,0.2c-0.2,0.7-0.6,1.2-1.2,1.5
				c-0.6,0.3-1.2,0.5-1.9,0.4c-1-0.1-1.9-0.5-2.8-1.4c-0.8-0.8-1.3-1.8-1.5-3C177.1,16,177.4,15,178,14.3z M182.1,15.3
				c-0.4-0.4-0.9-0.7-1.5-0.7c-0.6,0-1,0.1-1.4,0.5c-0.4,0.4-0.6,0.8-0.6,1.5c1.5,0.1,3,0.2,4.4,0.4
				C182.8,16.2,182.5,15.7,182.1,15.3z"/>
			<path class="st1" d="M192,21c0.1,0.7-0.1,1.3-0.6,1.6c-0.5,0.3-1.1,0.4-1.9,0.2c-0.9-0.2-1.6-0.6-2.2-1.2c-0.6-0.6-1-1.3-1.1-2.1
				c0.4,0.1,0.8,0.1,1.3,0.2c0.1,0.5,0.3,0.9,0.6,1.2c0.4,0.3,0.8,0.5,1.2,0.6c0.4,0.1,0.7,0.1,1-0.1c0.3-0.1,0.4-0.4,0.3-0.8
				c0-0.4-0.2-0.7-0.5-0.9c-0.3-0.2-0.7-0.5-1.3-0.8c-0.3-0.1-0.5-0.2-0.7-0.3c-0.2-0.1-0.4-0.2-0.7-0.4c-0.3-0.2-0.5-0.4-0.7-0.5
				c-0.2-0.2-0.3-0.4-0.5-0.7c-0.1-0.3-0.2-0.6-0.3-0.9c-0.1-0.7,0.1-1.2,0.5-1.5c0.4-0.3,1-0.4,1.8-0.3c0.8,0.2,1.5,0.5,2.1,1.1
				c0.5,0.6,0.9,1.2,0.9,1.8c-0.4-0.1-0.8-0.2-1.3-0.3c0-0.3-0.2-0.6-0.5-0.9c-0.3-0.3-0.7-0.5-1.1-0.6c-0.4-0.1-0.7,0-0.9,0.1
				c-0.2,0.2-0.3,0.4-0.3,0.7c0,0.3,0.2,0.6,0.5,0.8c0.3,0.2,0.7,0.4,1.2,0.7c0.3,0.1,0.6,0.3,0.8,0.4c0.2,0.1,0.4,0.2,0.7,0.4
				c0.3,0.2,0.5,0.4,0.7,0.6c0.2,0.2,0.3,0.4,0.5,0.7C191.8,20.3,191.9,20.6,192,21z"/>
		</g>
	</g>
	<polygon class="st1" points="37.1,19 20.3,30 3.6,41 1.9,38.2 19.5,28.6 	"/>
	<polygon class="st1" points="41,51.4 21.7,46.2 2.2,41.2 3.2,38 22.1,44.7 	"/>
	<g class="st2">
		<linearGradient id="SVGID_1_" gradientUnits="userSpaceOnUse" x1="37.0721" y1="27.6824" x2="207.8913" y2="27.6824">
			<stop  offset="0" style="stop-color:#13110C"/>
			<stop  offset="6.095338e-02" style="stop-color:#46423F;stop-opacity:0.7951"/>
			<stop  offset="0.122" style="stop-color:#7D7876;stop-opacity:0.5901"/>
			<stop  offset="0.1783" style="stop-color:#B0ACAB;stop-opacity:0.4007"/>
			<stop  offset="0.2282" style="stop-color:#D9D7D7;stop-opacity:0.2331"/>
			<stop  offset="0.2696" style="stop-color:#F5F4F5;stop-opacity:9.391028e-02"/>
			<stop  offset="0.2975" style="stop-color:#FFFFFF;stop-opacity:0"/>
			<stop  offset="0.3561" style="stop-color:#FBFBFB;stop-opacity:0.2123"/>
			<stop  offset="0.3946" style="stop-color:#EFEEEE;stop-opacity:0.3521"/>
			<stop  offset="0.4275" style="stop-color:#DBD8D8;stop-opacity:0.4711"/>
			<stop  offset="0.4571" style="stop-color:#C0BCBB;stop-opacity:0.5785"/>
			<stop  offset="0.4845" style="stop-color:#9E9A99;stop-opacity:0.678"/>
			<stop  offset="0.5103" style="stop-color:#7A7473;stop-opacity:0.7717"/>
			<stop  offset="0.535" style="stop-color:#534E4C;stop-opacity:0.8609"/>
			<stop  offset="0.558" style="stop-color:#2D2A27;stop-opacity:0.9443"/>
			<stop  offset="0.5733" style="stop-color:#13110C"/>
			<stop  offset="0.631" style="stop-color:#393532;stop-opacity:0.8649"/>
			<stop  offset="0.7015" style="stop-color:#696462;stop-opacity:0.6996"/>
			<stop  offset="0.7704" style="stop-color:#999493;stop-opacity:0.538"/>
			<stop  offset="0.8363" style="stop-color:#C2BFBF;stop-opacity:0.3837"/>
			<stop  offset="0.8981" style="stop-color:#E3E1E1;stop-opacity:0.2388"/>
			<stop  offset="0.9543" style="stop-color:#F8F7F8;stop-opacity:0.107"/>
			<stop  offset="1" style="stop-color:#FFFFFF;stop-opacity:0"/>
		</linearGradient>
		<path class="st3" d="M207.9,36.6l-7.7-16.4l7.1-16c-5.3,0.5-17.8-0.6-22.1-1.3c0-0.2-3.3-0.4-3.6-0.4c-1.2-0.1-2.5-0.2-3.7-0.3
			C175.3,2,172.9,2,170.5,2c-4.8,0.1-9.7,0.5-14.5,1.1c-4.8,0.6-9.6,1.5-14.3,2.5c-4.8,1-9.5,2.2-14.2,3.4
			c-4.7,1.2-9.4,2.5-14.2,3.8c-4.7,1.3-9.4,2.5-14.2,3.6c-4.7,1.1-9.5,2.1-14.3,2.9c-4.8,0.8-9.6,1.3-14.4,1.6
			c-5.3,0.3-10.6,0.2-15.9-0.4c-2.2-0.2-4.4-0.5-6.6-0.8c-1-0.2-2.1-0.3-3.1-0.4c-0.6-0.1-1.1-0.1-1.7-0.2c-0.5,0-1.1-0.2-1.6-0.1
			c-1.5-0.1-3-0.1-4.5,0c0,0,4,32.4,4,32.4c0.1,0.2,2.7,0.2,3,0.2c1.1,0,2.1,0.1,3.2,0.1c2,0.1,4,0.4,6.1,0.6
			c4.2,0.5,8.4,1,12.6,1.1c4.2,0.1,8.4-0.1,12.6-0.5c3.2-0.3,6.5-0.6,9.7-1.2c7.6-1.2,15-2.9,22.5-4.8c7.5-1.9,14.9-4,22.3-5.9
			c7.4-1.9,14.9-3.7,22.4-4.9c7.5-1.2,15.2-1.9,22.8-1.7c4.2,0.1,8.3,0.5,12.5,1.1C194.5,36,200.8,36.8,207.9,36.6z"/>
	</g>
</g>
</svg>
