<?xml version="1.0" encoding="utf-8"?>
<!-- Generator: Adobe Illustrator 24.3.0, SVG Export Plug-In . SVG Version: 6.00 Build 0)  -->
<svg version="1.1" id="Laag_1" xmlns="http://www.w3.org/2000/svg" xmlns:xlink="http://www.w3.org/1999/xlink" x="0px" y="0px"
	 width="84.4px" height="14.6px" viewBox="0 0 84.4 14.6" style="enable-background:new 0 0 84.4 14.6;" xml:space="preserve">
<style type="text/css">
	.st0{fill:#E3E8DA;}
</style>
<g>
	<path class="st0" d="M7.8,3.4L4.6,6.7l3.2,4.6H6.2L3.6,7.7L2.5,8.9v2.5H1.1V0h1.4v6.9h0.1L6,3.4H7.8z"/>
	<path class="st0" d="M12.2,11.5c-1.2,0-2.1-0.4-2.9-1.2c-0.8-0.8-1.2-1.8-1.2-3c0-1.2,0.4-2.2,1.1-3C10,3.6,11,3.2,12.2,3.2
		c1.2,0,2.1,0.4,2.9,1.2c0.8,0.8,1.2,1.8,1.2,3c0,1.2-0.4,2.2-1.1,3C14.3,11.1,13.4,11.5,12.2,11.5z M12.2,10.3
		c0.8,0,1.4-0.3,1.9-0.8c0.5-0.6,0.7-1.2,0.7-2.1c0-0.8-0.2-1.5-0.7-2s-1.1-0.8-1.9-0.8c-0.8,0-1.4,0.3-1.9,0.8s-0.7,1.2-0.7,2
		c0,0.8,0.2,1.5,0.7,2.1C10.8,10,11.4,10.3,12.2,10.3z"/>
	<path class="st0" d="M21.3,11.5c-1.2,0-2.1-0.4-2.9-1.2c-0.8-0.8-1.2-1.8-1.2-3c0-1.2,0.4-2.2,1.1-3c0.8-0.8,1.7-1.2,2.9-1.2
		c1.2,0,2.1,0.4,2.9,1.2c0.8,0.8,1.2,1.8,1.2,3c0,1.2-0.4,2.2-1.1,3C23.5,11.1,22.5,11.5,21.3,11.5z M21.3,10.3
		c0.8,0,1.4-0.3,1.9-0.8c0.5-0.6,0.7-1.2,0.7-2.1c0-0.8-0.2-1.5-0.7-2s-1.1-0.8-1.9-0.8c-0.8,0-1.4,0.3-1.9,0.8s-0.7,1.2-0.7,2
		c0,0.8,0.2,1.5,0.7,2.1C19.9,10,20.5,10.3,21.3,10.3z"/>
	<path class="st0" d="M30.7,3.2c1.1,0,1.9,0.4,2.6,1.2c0.7,0.8,1,1.8,1,3s-0.4,2.2-1.1,3c-0.7,0.8-1.6,1.2-2.7,1.2
		c-1.2,0-2-0.4-2.5-1.3v4.4h-1.4V3.4h1l0.2,1.1h0.2C28.8,3.6,29.7,3.2,30.7,3.2z M30.6,10.2c0.7,0,1.3-0.3,1.8-0.8
		C32.8,8.9,33,8.2,33,7.4s-0.2-1.5-0.7-2.1c-0.5-0.5-1-0.8-1.8-0.8c-0.7,0-1.3,0.3-1.7,0.8s-0.7,1.2-0.7,2.1c0,0.9,0.2,1.6,0.7,2.1
		S29.8,10.2,30.6,10.2z"/>
	<path class="st0" d="M44.1,11.2c-0.4,0.2-0.8,0.4-1.3,0.4c-1.3,0-2-0.7-2-2.1V4.5h-1.6v-1h0.5c0.8,0,1.2-0.4,1.2-1.1v-1h1.3v2h1.9
		v1.2h-1.9v4.7c0,0.7,0.3,1,0.8,1c0.3,0,0.5-0.1,0.7-0.2L44.1,11.2z"/>
	<path class="st0" d="M46.7,1.8C46.5,2,46.3,2.1,46,2.1S45.5,2,45.3,1.8C45.1,1.6,45,1.4,45,1.2s0.1-0.5,0.3-0.7
		c0.2-0.2,0.4-0.3,0.7-0.3s0.5,0.1,0.7,0.3S47,0.9,47,1.2S46.9,1.6,46.7,1.8z M46.7,3.4v8h-1.4v-8H46.7z"/>
	<path class="st0" d="M55.8,8.6c-0.1,0.9-0.5,1.6-1.2,2.1c-0.7,0.5-1.5,0.8-2.5,0.8c-1.3,0-2.2-0.4-2.9-1.2c-0.7-0.8-1.1-1.8-1.1-3
		c0-1.2,0.4-2.1,1.1-3C50,3.6,51,3.2,52.1,3.2c1,0,1.8,0.3,2.5,0.9c0.7,0.6,1.1,1.3,1.1,2.2h-1.4C54.2,5.7,54,5.3,53.6,5
		c-0.4-0.3-0.9-0.5-1.5-0.5c-0.7,0-1.4,0.3-1.8,0.8c-0.5,0.5-0.7,1.2-0.7,2.1c0,0.9,0.2,1.6,0.7,2.1s1.1,0.8,1.9,0.8
		c0.6,0,1.1-0.2,1.4-0.5c0.4-0.3,0.6-0.7,0.8-1.2H55.8z"/>
	<path class="st0" d="M63.9,3.4l-3.2,3.4l3.2,4.6h-1.6l-2.6-3.7l-1.1,1.2v2.5h-1.4V0h1.4v6.9h0.1l3.4-3.5H63.9z"/>
	<path class="st0" d="M68,3.2c1.1,0,2,0.4,2.7,1.1s1,1.9,0.9,3.3h-6.1c0.1,0.8,0.3,1.5,0.7,1.9s1,0.7,1.8,0.7c0.5,0,0.9-0.1,1.3-0.3
		c0.4-0.2,0.7-0.5,0.8-0.9h1.4c-0.2,0.8-0.6,1.4-1.3,1.8c-0.6,0.4-1.4,0.6-2.2,0.6c-1.2,0-2.2-0.4-2.9-1.1c-0.7-0.8-1.1-1.8-1.1-3.1
		c0-1.2,0.4-2.2,1.1-3S66.9,3.2,68,3.2z M65.6,6.6h4.7c0-0.6-0.2-1.1-0.6-1.6s-0.9-0.6-1.6-0.6c-0.7,0-1.2,0.2-1.6,0.6
		C66,5.4,65.8,5.9,65.6,6.6z"/>
	<path class="st0" d="M77.2,11.2c-0.4,0.2-0.8,0.4-1.3,0.4c-1.3,0-2-0.7-2-2.1V4.5h-1.6v-1h0.5c0.8,0,1.2-0.4,1.2-1.1v-1h1.3v2h1.9
		v1.2h-1.9v4.7c0,0.7,0.3,1,0.8,1c0.3,0,0.5-0.1,0.7-0.2L77.2,11.2z"/>
	<path class="st0" d="M84,9.3c0,0.7-0.3,1.2-0.8,1.6c-0.5,0.4-1.2,0.6-2.1,0.6c-1,0-1.7-0.3-2.3-0.8S78,9.6,78,8.8h1.4
		c0,0.5,0.2,0.9,0.6,1.2c0.4,0.3,0.8,0.4,1.2,0.4c0.4,0,0.8-0.1,1-0.3c0.3-0.2,0.4-0.5,0.4-0.8c0-0.4-0.2-0.7-0.5-0.9
		c-0.3-0.2-0.8-0.4-1.4-0.6c-0.3-0.1-0.6-0.2-0.9-0.3c-0.3-0.1-0.5-0.3-0.8-0.4c-0.3-0.2-0.5-0.4-0.6-0.7c-0.1-0.3-0.2-0.6-0.2-0.9
		c0-0.7,0.3-1.2,0.8-1.6c0.5-0.4,1.2-0.6,2-0.6c0.8,0,1.5,0.2,2,0.7c0.5,0.5,0.8,1,0.8,1.7h-1.3c0-0.4-0.2-0.7-0.5-0.9
		c-0.3-0.2-0.7-0.4-1.1-0.4c-0.4,0-0.7,0.1-0.9,0.3c-0.2,0.2-0.4,0.4-0.4,0.8c0,0.3,0.1,0.6,0.4,0.8c0.3,0.2,0.7,0.4,1.3,0.6
		c0.9,0.3,1.5,0.6,2,1C83.8,8.1,84,8.6,84,9.3z"/>
	<path class="st0" d="M0,14.6v-0.8h84.4v0.8H0z"/>
</g>
</svg>
