<?xml version="1.0" encoding="utf-8"?>
<!-- Generator: Adobe Illustrator 24.3.0, SVG Export Plug-In . SVG Version: 6.00 Build 0)  -->
<svg version="1.1" id="Laag_1" xmlns="http://www.w3.org/2000/svg" xmlns:xlink="http://www.w3.org/1999/xlink" x="0px" y="0px"
	 width="140.2px" height="70.9px" viewBox="0 0 140.2 70.9" style="enable-background:new 0 0 140.2 70.9;" xml:space="preserve">
<style type="text/css">
	.st0{fill:#E3E8DA;}
</style>
<path class="st0" d="M14.2,1.9h4.2L12,22.4H6.5L0,1.9h4.3l4.9,16.2h0.3L14.2,1.9z"/>
<path class="st0" d="M28.7,17.8h3.6c-0.3,1.5-1.1,2.8-2.4,3.6c-1.3,0.9-2.8,1.3-4.5,1.3c-2.3,0-4.1-0.7-5.5-2.1
	c-1.4-1.4-2.1-3.3-2.1-5.5c0-2.2,0.7-4,2.1-5.5c1.4-1.4,3.1-2.1,5.2-2.1c1,0,2,0.2,2.8,0.5c0.9,0.3,1.7,0.8,2.3,1.5s1.2,1.6,1.6,2.7
	c0.3,1.1,0.5,2.5,0.3,4H21.6c0.3,2.3,1.6,3.5,3.9,3.5c0.7,0,1.4-0.2,2-0.5C28.1,18.8,28.5,18.4,28.7,17.8z M25.4,10.5
	c-0.9,0-1.7,0.3-2.3,0.8c-0.6,0.5-1.1,1.2-1.3,2.1h7c0-0.8-0.4-1.5-1-2C27.1,10.8,26.3,10.5,25.4,10.5z"/>
<path class="st0" d="M43.4,7.5h1.1v3.8c-0.5-0.1-1-0.2-1.5-0.2c-1.2,0-2.1,0.4-2.9,1.2c-0.8,0.8-1.2,2-1.2,3.7v6.4h-4V7.8H38l0.5,2
	h0.3C39.9,8.2,41.4,7.5,43.4,7.5z"/>
<path class="st0" d="M56.6,1.6h3.7v20.9h-2.9L57,20.7h-0.4c-1,1.3-2.4,2-4.2,2c-1.9,0-3.5-0.7-4.8-2.1c-1.3-1.4-1.9-3.2-1.9-5.5
	c0-2.3,0.7-4.2,2-5.6c1.3-1.4,3-2.1,4.9-2.1c1.8,0,3.2,0.6,4,1.8V1.6z M50.5,18.1c0.7,0.8,1.5,1.2,2.6,1.2c1.1,0,1.9-0.4,2.6-1.2
	c0.6-0.8,1-1.8,1-3s-0.3-2.2-1-3c-0.6-0.8-1.5-1.2-2.6-1.2c-1.1,0-1.9,0.4-2.6,1.2c-0.7,0.8-1,1.8-1,3
	C49.5,16.3,49.8,17.3,50.5,18.1z"/>
<path class="st0" d="M72.2,7.5h1.1v3.8c-0.5-0.1-1-0.2-1.5-0.2c-1.2,0-2.1,0.4-2.9,1.2c-0.8,0.8-1.2,2-1.2,3.7v6.4h-4V7.8h3.1l0.5,2
	h0.3C68.7,8.2,70.3,7.5,72.2,7.5z"/>
<path class="st0" d="M77.8,6c-0.7,0-1.2-0.2-1.7-0.7c-0.5-0.5-0.7-1-0.7-1.7c0-0.7,0.2-1.3,0.7-1.7c0.5-0.5,1-0.7,1.7-0.7
	c0.7,0,1.2,0.2,1.7,0.7c0.5,0.5,0.7,1,0.7,1.7c0,0.6-0.2,1.2-0.7,1.7C79,5.8,78.4,6,77.8,6z M79.6,7.8v14.7h-3.8V7.8H79.6z"/>
<path class="st0" d="M93.2,17.8h3.6c-0.3,1.5-1.1,2.8-2.4,3.6c-1.3,0.9-2.8,1.3-4.5,1.3c-2.3,0-4.1-0.7-5.5-2.1
	c-1.4-1.4-2.1-3.3-2.1-5.5c0-2.2,0.7-4,2.1-5.5c1.4-1.4,3.1-2.1,5.2-2.1c1,0,2,0.2,2.8,0.5c0.9,0.3,1.7,0.8,2.3,1.5s1.2,1.6,1.6,2.7
	c0.3,1.1,0.5,2.5,0.3,4H86.1c0.3,2.3,1.6,3.5,3.9,3.5c0.7,0,1.4-0.2,2-0.5C92.6,18.8,93,18.4,93.2,17.8z M89.9,10.5
	c-0.9,0-1.7,0.3-2.3,0.8c-0.6,0.5-1.1,1.2-1.3,2.1h7c0-0.8-0.4-1.5-1-2C91.6,10.8,90.8,10.5,89.9,10.5z"/>
<path class="st0" d="M108.2,21.9c-0.9,0.5-1.8,0.8-2.9,0.8c-3,0-4.5-1.6-4.5-4.7v-7.2H98V8h0.9c0.7,0,1.3-0.2,1.7-0.5
	c0.4-0.4,0.6-0.9,0.6-1.5V4.1h3.5v3.7h3.6v3h-3.6v6.9c0,1.1,0.4,1.7,1.3,1.7c0.4,0,0.9-0.1,1.4-0.4L108.2,21.9z"/>
<path class="st0" d="M4.3,30.1c-0.7,0-1.2-0.2-1.7-0.7c-0.5-0.5-0.7-1-0.7-1.7c0-0.7,0.2-1.3,0.7-1.7c0.5-0.5,1-0.7,1.7-0.7
	c0.7,0,1.2,0.2,1.7,0.7c0.5,0.5,0.7,1,0.7,1.7c0,0.6-0.2,1.2-0.7,1.7C5.5,29.9,4.9,30.1,4.3,30.1z M6.2,31.8v14.7H2.3V31.8H6.2z"/>
<path class="st0" d="M20.8,42.5c0,1.4-0.5,2.5-1.6,3.2c-1.1,0.8-2.5,1.1-4.2,1.1c-1.9,0-3.4-0.5-4.5-1.4c-1.1-0.9-1.8-2.2-1.8-3.8
	h3.7c0,0.8,0.3,1.4,0.9,1.7c0.5,0.4,1.2,0.6,1.9,0.6c0.6,0,1-0.1,1.4-0.4c0.4-0.2,0.6-0.6,0.6-1c0-0.5-0.2-0.9-0.7-1.2
	c-0.5-0.3-1.2-0.6-2.2-0.8c-0.7-0.2-1.3-0.4-1.7-0.6c-0.5-0.2-1-0.4-1.6-0.8c-0.6-0.3-1-0.8-1.3-1.3c-0.3-0.5-0.5-1.1-0.5-1.8
	c0-1.3,0.5-2.4,1.6-3.2c1.1-0.8,2.4-1.2,4.1-1.2c1.7,0,3,0.4,4,1.3c1,0.9,1.6,2,1.7,3.3H17c-0.1-0.5-0.3-0.9-0.7-1.2
	c-0.4-0.3-1-0.5-1.6-0.5c-0.5,0-0.9,0.1-1.2,0.4s-0.5,0.6-0.5,1c0,0.4,0.2,0.8,0.6,1.1s1.2,0.6,2.3,0.9c1.6,0.5,2.9,1.1,3.7,1.8
	C20.4,40.2,20.8,41.2,20.8,42.5z"/>
<path class="st0" d="M40.4,31.6c1.7,0,3.1,0.5,4.1,1.6c1,1.1,1.5,2.6,1.5,4.5v8.8h-3.9V39c0-1.2-0.3-2.2-0.9-2.9
	c-0.6-0.7-1.4-1-2.4-1c-0.9,0-1.7,0.3-2.3,1c-0.6,0.6-0.9,1.6-0.9,2.8v7.6h-4V25.7h4v7.8H36C37.2,32.2,38.6,31.6,40.4,31.6z"/>
<path class="st0" d="M59.3,41.9h3.6c-0.3,1.5-1.1,2.8-2.4,3.6c-1.3,0.9-2.8,1.3-4.5,1.3c-2.3,0-4.1-0.7-5.5-2.1
	c-1.4-1.4-2.1-3.3-2.1-5.5c0-2.2,0.7-4,2.1-5.5c1.4-1.4,3.1-2.1,5.2-2.1c1,0,2,0.2,2.8,0.5c0.9,0.3,1.7,0.8,2.3,1.5s1.2,1.6,1.6,2.7
	c0.3,1.1,0.5,2.5,0.3,4H52.2c0.3,2.3,1.6,3.5,3.9,3.5c0.7,0,1.4-0.2,2-0.5C58.7,42.9,59.1,42.4,59.3,41.9z M56,34.5
	c-0.9,0-1.7,0.3-2.3,0.8c-0.6,0.5-1.1,1.2-1.3,2.1h7c0-0.8-0.4-1.5-1-2C57.7,34.8,56.9,34.5,56,34.5z"/>
<path class="st0" d="M74.3,46c-0.9,0.5-1.8,0.8-2.9,0.8c-3,0-4.5-1.6-4.5-4.7v-7.2h-2.9v-2.8H65c0.7,0,1.3-0.2,1.7-0.5
	c0.4-0.4,0.6-0.9,0.6-1.5v-1.9h3.5v3.7h3.6v3h-3.6v6.9c0,1.1,0.4,1.7,1.3,1.7c0.4,0,0.9-0.1,1.4-0.4L74.3,46z"/>
<path class="st0" d="M95.1,25.6h3.7v20.9H96l-0.4-1.7h-0.4c-1,1.3-2.4,2-4.2,2c-1.9,0-3.5-0.7-4.8-2.1c-1.3-1.4-1.9-3.2-1.9-5.5
	c0-2.3,0.7-4.2,2-5.6c1.3-1.4,3-2.1,4.9-2.1c1.8,0,3.2,0.6,4,1.8V25.6z M89,42.2c0.7,0.8,1.5,1.2,2.6,1.2c1.1,0,1.9-0.4,2.6-1.2
	c0.6-0.8,1-1.8,1-3s-0.3-2.2-1-3c-0.6-0.8-1.5-1.2-2.6-1.2c-1.1,0-1.9,0.4-2.6,1.2c-0.7,0.8-1,1.8-1,3C88,40.4,88.4,41.4,89,42.2z"
	/>
<path class="st0" d="M104,30.1c-0.7,0-1.2-0.2-1.7-0.7c-0.5-0.5-0.7-1-0.7-1.7c0-0.7,0.2-1.3,0.7-1.7c0.5-0.5,1-0.7,1.7-0.7
	c0.7,0,1.2,0.2,1.7,0.7c0.5,0.5,0.7,1,0.7,1.7c0,0.6-0.2,1.2-0.7,1.7C105.2,29.9,104.6,30.1,104,30.1z M105.9,31.8v14.7h-3.8V31.8
	H105.9z"/>
<path class="st0" d="M117.8,31.6c1.7,0,3.1,0.6,4.1,1.7c1.1,1.2,1.6,2.8,1.6,4.9v8.3h-4v-7.7c0-1.2-0.3-2.2-0.9-2.8
	c-0.6-0.6-1.3-1-2.3-1c-0.9,0-1.6,0.3-2.2,0.9c-0.6,0.6-0.9,1.6-0.9,2.8v7.7h-4V31.8h3.1l0.5,1.8h0.3c0.3-0.4,0.6-0.7,0.9-1
	s0.7-0.5,1.4-0.7S117,31.6,117.8,31.6z"/>
<path class="st0" d="M140.2,32.8c-0.4,0.5-1.2,1-2.3,1.4c0.5,0.8,0.7,1.7,0.7,2.6c0,1.4-0.6,2.6-1.7,3.5c-1.2,0.9-2.6,1.3-4.4,1.3
	c-0.7,0-1.4-0.1-1.9-0.2c-0.7,0.2-1,0.5-1,0.9c0,0.7,0.7,1.1,2.2,1.1h2.3c1.8,0,3.2,0.4,4.1,1.2c0.9,0.8,1.4,1.9,1.4,3.2
	c0,1.5-0.6,2.7-1.8,3.6c-1.2,0.9-2.9,1.4-5,1.4c-2.2,0-3.9-0.5-5.1-1.5c-1.2-1-1.8-2.2-1.8-3.7l2.1-1.7c-1.1-0.5-1.6-1.3-1.6-2.5
	c0-1.3,0.7-2.2,2.2-2.9c-1.3-0.9-1.9-2.2-1.9-3.7c0-1.5,0.5-2.7,1.6-3.6c1.1-1,2.5-1.5,4.3-1.5c1.4,0,2.7,0.3,3.8,0.9
	c0.8-0.4,1.6-1.1,2.3-2L140.2,32.8z M135.8,47.9c0-1.1-0.8-1.7-2.4-1.7h-2.1l-1.8,1.4c0.3,1.4,1.4,2.1,3.4,2.1
	c0.9,0,1.6-0.2,2.1-0.5C135.5,48.9,135.8,48.4,135.8,47.9z M130.8,38.2c0.4,0.4,1,0.7,1.8,0.7c0.7,0,1.3-0.2,1.8-0.7
	c0.4-0.4,0.7-1,0.7-1.6c0-0.7-0.2-1.2-0.7-1.7s-1-0.7-1.8-0.7c-0.8,0-1.4,0.2-1.8,0.7c-0.4,0.4-0.7,1-0.7,1.7
	C130.1,37.2,130.3,37.7,130.8,38.2z"/>
<path class="st0" d="M19,55.6c1.6,0,2.9,0.5,3.8,1.6c0.9,1.1,1.4,2.7,1.4,4.8v8.6h-4v-8.4c0-1-0.2-1.7-0.7-2.3
	c-0.5-0.5-1.1-0.8-1.8-0.8c-0.7,0-1.3,0.3-1.8,0.8c-0.5,0.5-0.7,1.3-0.7,2.3v8.3h-3.9v-8.3c0-1-0.2-1.8-0.7-2.3
	c-0.5-0.5-1.1-0.8-1.8-0.8c-0.7,0-1.3,0.3-1.8,0.8c-0.5,0.5-0.8,1.3-0.8,2.2v8.4h-4V55.9h3.1l0.5,1.8h0.3c0.4-0.6,0.9-1.1,1.6-1.5
	c0.7-0.4,1.5-0.6,2.4-0.6c1,0,1.8,0.2,2.6,0.7c0.7,0.5,1.3,1.1,1.6,1.8h0.3C15.5,56.5,17,55.6,19,55.6z"/>
<path class="st0" d="M37.5,65.9h3.6c-0.3,1.5-1.1,2.8-2.4,3.6c-1.3,0.9-2.8,1.3-4.5,1.3c-2.3,0-4.1-0.7-5.5-2.1
	c-1.4-1.4-2.1-3.3-2.1-5.5c0-2.2,0.7-4,2.1-5.5c1.4-1.4,3.1-2.1,5.2-2.1c1,0,2,0.2,2.8,0.5c0.9,0.3,1.7,0.8,2.3,1.5s1.2,1.6,1.6,2.7
	c0.3,1.1,0.5,2.5,0.3,4H30.3c0.3,2.3,1.6,3.5,3.9,3.5c0.7,0,1.4-0.2,2-0.5C36.8,67,37.2,66.5,37.5,65.9z M34.1,58.6
	c-0.9,0-1.7,0.3-2.3,0.8c-0.6,0.5-1.1,1.2-1.3,2.1h7c0-0.8-0.4-1.5-1-2C35.9,58.9,35.1,58.6,34.1,58.6z"/>
<path class="st0" d="M52.4,70.1c-0.9,0.5-1.8,0.8-2.9,0.8c-3,0-4.5-1.6-4.5-4.7V59h-2.9v-2.8h0.9c0.7,0,1.3-0.2,1.7-0.5
	c0.4-0.4,0.6-0.9,0.6-1.5v-1.9h3.5v3.7h3.6v3h-3.6v6.9c0,1.1,0.4,1.7,1.3,1.7c0.4,0,0.9-0.1,1.4-0.4L52.4,70.1z"/>
<path class="st0" d="M73.6,55.9h3.9l-5.1,14.7h-5.4L62,55.9h3.9l3.7,11.3h0.3L73.6,55.9z"/>
<path class="st0" d="M89,65.9h3.6c-0.3,1.5-1.1,2.8-2.4,3.6c-1.3,0.9-2.8,1.3-4.5,1.3c-2.3,0-4.1-0.7-5.5-2.1
	c-1.4-1.4-2.1-3.3-2.1-5.5c0-2.2,0.7-4,2.1-5.5c1.4-1.4,3.1-2.1,5.2-2.1c1,0,2,0.2,2.8,0.5c0.9,0.3,1.7,0.8,2.3,1.5s1.2,1.6,1.6,2.7
	c0.3,1.1,0.5,2.5,0.3,4H81.9c0.3,2.3,1.6,3.5,3.9,3.5c0.7,0,1.4-0.2,2-0.5C88.3,67,88.7,66.5,89,65.9z M85.6,58.6
	c-0.9,0-1.7,0.3-2.3,0.8c-0.6,0.5-1.1,1.2-1.3,2.1h7c0-0.8-0.4-1.5-1-2C87.4,58.9,86.6,58.6,85.6,58.6z"/>
<path class="st0" d="M103.7,55.6h1.1v3.8c-0.5-0.1-1-0.2-1.5-0.2c-1.2,0-2.1,0.4-2.9,1.2c-0.8,0.8-1.2,2-1.2,3.7v6.4h-4V55.9h3.1
	l0.5,2h0.3C100.2,56.4,101.7,55.6,103.7,55.6z"/>
<path class="st0" d="M116.8,65.9h3.6c-0.3,1.5-1.1,2.8-2.4,3.6c-1.3,0.9-2.8,1.3-4.5,1.3c-2.3,0-4.1-0.7-5.5-2.1
	c-1.4-1.4-2.1-3.3-2.1-5.5c0-2.2,0.7-4,2.1-5.5c1.4-1.4,3.1-2.1,5.2-2.1c1,0,2,0.2,2.8,0.5c0.9,0.3,1.7,0.8,2.3,1.5s1.2,1.6,1.6,2.7
	c0.3,1.1,0.5,2.5,0.3,4h-10.6c0.3,2.3,1.6,3.5,3.9,3.5c0.7,0,1.4-0.2,2-0.5C116.1,67,116.5,66.5,116.8,65.9z M113.4,58.6
	c-0.9,0-1.7,0.3-2.3,0.8c-0.6,0.5-1.1,1.2-1.3,2.1h7c0-0.8-0.4-1.5-1-2C115.2,58.9,114.4,58.6,113.4,58.6z"/>
<path class="st0" d="M131.4,55.6c1.7,0,3.1,0.6,4.1,1.7c1.1,1.2,1.6,2.8,1.6,4.9v8.3h-4v-7.7c0-1.2-0.3-2.2-0.9-2.8
	c-0.6-0.6-1.3-1-2.3-1c-0.9,0-1.6,0.3-2.2,0.9c-0.6,0.6-0.9,1.6-0.9,2.8v7.7h-4V55.9h3.1l0.5,1.8h0.3c0.3-0.4,0.6-0.7,0.9-1
	s0.7-0.5,1.4-0.7S130.5,55.6,131.4,55.6z"/>
</svg>
