<?xml version="1.0" encoding="utf-8"?>
<!-- Generator: Adobe Illustrator 24.0.0, SVG Export Plug-In . SVG Version: 6.00 Build 0)  -->
<svg version="1.1" id="Laag_1" xmlns="http://www.w3.org/2000/svg" xmlns:xlink="http://www.w3.org/1999/xlink" x="0px" y="0px"
	 width="105.9px" height="24.6px" viewBox="0 0 105.9 24.6" style="enable-background:new 0 0 105.9 24.6;" xml:space="preserve">
<style type="text/css">
	.st0{fill:#FFFFFF;}
	.st1{fill:#F2FF00;}
</style>
<g>
	<rect x="30.1" y="6.1" class="st0" width="45.4" height="1"/>
</g>
<g>
	<path class="st1" d="M5.5,0h1.2v10.1H5.9l-0.2-1H5.5C5,9.9,4.2,10.2,3.3,10.2c-0.9,0-1.7-0.3-2.3-1S0,7.6,0,6.6
		c0-1.1,0.3-2,0.9-2.7c0.6-0.7,1.4-1,2.4-1c1.1,0,1.8,0.4,2.2,1.2V0z M1.9,8.4c0.4,0.5,0.9,0.7,1.6,0.7S4.6,8.9,5,8.4
		c0.4-0.5,0.6-1.1,0.6-1.8c0-0.8-0.2-1.4-0.6-1.9C4.6,4.2,4.1,4,3.4,4C2.8,4,2.3,4.2,1.9,4.7S1.3,5.8,1.3,6.6
		C1.3,7.3,1.5,7.9,1.9,8.4z"/>
	<path class="st1" d="M9.8,1.7C9.7,1.8,9.5,1.9,9.2,1.9S8.8,1.8,8.6,1.7S8.4,1.3,8.4,1c0-0.2,0.1-0.4,0.3-0.6S9,0.2,9.2,0.2
		s0.4,0.1,0.6,0.2C10,0.6,10.1,0.8,10.1,1C10.1,1.3,10,1.5,9.8,1.7z M9.8,3v7.1H8.6V3H9.8z"/>
	<path class="st1" d="M16.6,10.1V3.5h-1.8v-1h0.8c0.7,0,1.1-0.3,1.1-1V1h1.1v9.1H16.6z"/>
	<path class="st1" d="M24.5,5.3c0.5,0.2,0.9,0.4,1.1,0.8C25.9,6.5,26,7,26,7.5c0,0.8-0.3,1.5-0.8,2s-1.3,0.7-2.2,0.7
		c-1,0-1.7-0.3-2.2-0.8c-0.5-0.5-0.8-1.2-0.9-2h1.2c0,0.5,0.2,0.9,0.5,1.2c0.3,0.3,0.7,0.5,1.3,0.5c0.5,0,0.9-0.1,1.3-0.4
		c0.3-0.3,0.5-0.7,0.5-1.2c0-0.5-0.2-0.9-0.5-1.2c-0.3-0.3-0.8-0.5-1.3-0.5h-0.5V4.8h0.5c0.5,0,0.8-0.1,1.1-0.4s0.4-0.6,0.4-1
		c0-0.4-0.1-0.7-0.4-1C23.8,2.1,23.4,2,23,2c-0.4,0-0.8,0.1-1.1,0.4c-0.3,0.3-0.4,0.6-0.5,1h-1.2c0-0.7,0.3-1.3,0.8-1.8
		s1.2-0.7,2-0.7c0.8,0,1.4,0.2,1.9,0.7c0.5,0.4,0.7,1,0.7,1.7C25.7,4.1,25.3,4.8,24.5,5.3L24.5,5.3z"/>
	<path class="st1" d="M3.6,24.1c-1,0-1.9-0.4-2.6-1.1c-0.7-0.7-1-1.6-1-2.7c0-1,0.3-1.9,1-2.6c0.7-0.7,1.5-1,2.6-1
		c1,0,1.9,0.4,2.6,1c0.7,0.7,1,1.6,1,2.6c0,1.1-0.3,2-1,2.6S4.7,24.1,3.6,24.1z M3.6,23c0.7,0,1.3-0.2,1.7-0.7
		c0.4-0.5,0.7-1.1,0.7-1.8c0-0.7-0.2-1.3-0.7-1.8s-1-0.8-1.7-0.8c-0.7,0-1.2,0.3-1.7,0.8s-0.6,1.1-0.6,1.8c0,0.7,0.2,1.3,0.6,1.8
		S2.9,23,3.6,23z"/>
	<path class="st1" d="M14.6,16.9l-2.9,3l2.9,4.1h-1.4l-2.3-3.2l-1,1v2.2H8.6V13.9h1.2V20H10l3-3.1H14.6z"/>
	<path class="st1" d="M20,23.8c-0.3,0.2-0.7,0.3-1.2,0.3c-1.2,0-1.7-0.6-1.7-1.9v-4.3h-1.4V17h0.4c0.7,0,1.1-0.3,1.1-1v-0.9h1.1v1.8
		H20v1h-1.7v4.2c0,0.6,0.2,0.9,0.7,0.9c0.2,0,0.4-0.1,0.6-0.2L20,23.8z"/>
</g>
<g>
	<path class="st1" d="M82.6,3h1.3l-2.6,7.1h-1.8L77,3h1.3l2.1,6h0.1L82.6,3z"/>
	<path class="st1" d="M88.6,2.9h0.5v1.3c-0.1,0-0.3-0.1-0.6-0.1c-0.5,0-1,0.2-1.4,0.6c-0.4,0.4-0.6,1-0.6,1.8v3.7h-1.3V3h1l0.2,1
		h0.1C87,3.2,87.7,2.9,88.6,2.9z"/>
	<path class="st1" d="M95.6,10.1V3.5h-1.8v-1h0.8c0.7,0,1.1-0.3,1.1-1V1h1.1v9.1H95.6z"/>
	<path class="st1" d="M102.3,4.4c0.7,0,1.3,0.3,1.9,0.8s0.8,1.2,0.8,2.1c0,0.9-0.3,1.6-0.9,2.1c-0.6,0.6-1.3,0.8-2.2,0.8
		c-0.9,0-1.7-0.3-2.2-0.9c-0.6-0.6-0.9-1.3-0.9-2.2c0-0.5,0.1-1,0.3-1.4c0.2-0.5,0.5-1,0.9-1.6L102,1h1.5L101,4.7
		C101.3,4.5,101.8,4.4,102.3,4.4z M102,9.2c0.5,0,1-0.2,1.3-0.6c0.3-0.4,0.5-0.8,0.5-1.4c0-0.5-0.2-1-0.5-1.3
		c-0.3-0.4-0.8-0.5-1.3-0.5c-0.6,0-1,0.2-1.3,0.5c-0.3,0.4-0.5,0.8-0.5,1.3s0.2,1,0.5,1.4C101,9,101.4,9.2,102,9.2z"/>
	<path class="st1" d="M88.9,24.1c-1,0-1.9-0.4-2.6-1.1c-0.7-0.7-1-1.6-1-2.7c0-1,0.3-1.9,1-2.6c0.7-0.7,1.5-1,2.6-1
		c1,0,1.9,0.4,2.6,1c0.7,0.7,1,1.6,1,2.6c0,1.1-0.3,2-1,2.6S90,24.1,88.9,24.1z M88.9,23c0.7,0,1.3-0.2,1.7-0.7
		c0.4-0.5,0.7-1.1,0.7-1.8c0-0.7-0.2-1.3-0.7-1.8s-1-0.8-1.7-0.8c-0.7,0-1.2,0.3-1.7,0.8s-0.6,1.1-0.6,1.8c0,0.7,0.2,1.3,0.6,1.8
		S88.2,23,88.9,23z"/>
	<path class="st1" d="M99.9,16.9l-2.9,3l2.9,4.1h-1.4l-2.3-3.2l-1,1v2.2H94V13.9h1.2V20h0.1l3-3.1H99.9z"/>
	<path class="st1" d="M105.3,23.8c-0.3,0.2-0.7,0.3-1.2,0.3c-1.2,0-1.7-0.6-1.7-1.9v-4.3H101V17h0.4c0.7,0,1.1-0.3,1.1-1v-0.9h1.1
		v1.8h1.7v1h-1.7v4.2c0,0.6,0.2,0.9,0.7,0.9c0.2,0,0.4-0.1,0.6-0.2L105.3,23.8z"/>
</g>
</svg>
