<?xml version="1.0" encoding="utf-8"?>
<!-- Generator: Adobe Illustrator 24.3.0, SVG Export Plug-In . SVG Version: 6.00 Build 0)  -->
<svg version="1.1" id="Laag_1" xmlns="http://www.w3.org/2000/svg" xmlns:xlink="http://www.w3.org/1999/xlink" x="0px" y="0px"
	 width="68px" height="40.5px" viewBox="0 0 68 40.5" style="enable-background:new 0 0 68 40.5;" xml:space="preserve">
<style type="text/css">
	.st0{fill:#FFFFFF;}
</style>
<g>
	<path class="st0" d="M0.8,11.7V0.3H5c1.1,0,2.1,0.4,2.8,1.1S9,3.1,9,4.2S8.6,6.3,7.9,7S6.2,8.1,5.1,8.1H2.7v3.6
		C2.7,11.7,0.8,11.7,0.8,11.7z M2.7,6.3h2.4c0.6,0,1.1-0.2,1.5-0.6s0.6-0.9,0.6-1.5S6.9,3.1,6.6,2.8C6.2,2.4,5.7,2.2,5.1,2.2H2.7
		V6.3z"/>
	<path class="st0" d="M12.2,4.9c0.5-1,1.3-1.5,2.4-1.5c0.3,0,0.5,0,0.8,0.1v1.9c-0.3-0.1-0.6-0.1-0.9-0.1c-0.8,0-1.3,0.2-1.7,0.7
		s-0.5,1.1-0.5,2v3.7h-1.8V3.6h1.7C12.2,3.6,12.2,4.9,12.2,4.9z"/>
	<path class="st0" d="M18.5,2.1c-0.2,0.2-0.5,0.3-0.9,0.3s-0.7-0.1-0.9-0.3c-0.2-0.2-0.3-0.5-0.3-0.9s0.1-0.7,0.3-0.9S17.3,0,17.6,0
		c0.4,0,0.7,0.1,0.9,0.3c0.2,0.2,0.4,0.5,0.4,0.9S18.7,1.9,18.5,2.1z M18.5,3.6v8.1h-1.8V3.6H18.5z"/>
	<path class="st0" d="M23.5,8.3l-1,1v2.4h-1.8V0.3h1.8v6.8l3.3-3.5h2.4l-3.5,3.5l3.5,4.6h-2.3L23.5,8.3z"/>
	<path class="st0" d="M32.1,8.3l-1,1v2.4h-1.8V0.3h1.8v6.8l3.3-3.5h2.4l-3.5,3.5l3.5,4.6h-2.3L32.1,8.3z"/>
	<path class="st0" d="M36.7,7.7c0-1.2,0.4-2.2,1.1-3.1s1.7-1.2,3-1.2c1.2,0,2.2,0.4,2.9,1.2s1,1.8,1,3.1v0.5h-6.2l0,0
		c0.1,0.7,0.3,1.2,0.8,1.5c0.5,0.4,1,0.5,1.6,0.5c0.9,0,1.8-0.4,2.4-1.1l0.8,1.4c-0.9,0.9-2,1.3-3.3,1.3s-2.3-0.4-3.1-1.2
		C37.1,9.9,36.7,8.9,36.7,7.7z M42.8,6.8c-0.1-0.6-0.3-1-0.6-1.4c-0.4-0.3-0.8-0.5-1.5-0.5c-1.3,0-2,0.6-2.2,1.9H42.8z"/>
	<path class="st0" d="M48.1,0.3v11.4h-1.8V0.3H48.1z"/>
	<path class="st0" d="M56.9,3.6V12c0,1-0.3,1.8-0.8,2.3S54.7,15,53.6,15c-0.1,0-0.2,0-0.3,0v-1.7h0.1c0.7,0,1.1-0.1,1.4-0.3
		c0.2-0.2,0.4-0.6,0.4-1.1V3.6H56.9z M56.9,2.1c-0.2,0.2-0.5,0.3-0.9,0.3s-0.7-0.1-0.9-0.3s-0.3-0.5-0.3-0.9s0.1-0.7,0.3-0.9
		C55.4,0.1,55.7,0,56,0c0.4,0,0.7,0.1,0.9,0.3s0.4,0.5,0.4,0.9S57.1,1.9,56.9,2.1z"/>
	<path class="st0" d="M58.4,7.7c0-1.2,0.4-2.2,1.1-3.1c0.7-0.8,1.7-1.2,3-1.2c1.2,0,2.2,0.4,2.9,1.2s1,1.8,1,3.1v0.5h-6.2l0,0
		c0.1,0.7,0.3,1.2,0.8,1.5c0.5,0.4,1,0.5,1.6,0.5c0.9,0,1.8-0.4,2.4-1.1l0.8,1.4c-0.9,0.9-2,1.3-3.3,1.3s-2.3-0.4-3.1-1.2
		C58.8,9.9,58.4,8.9,58.4,7.7z M64.5,6.8c-0.1-0.6-0.3-1-0.6-1.4c-0.4-0.3-0.8-0.5-1.5-0.5c-1.3,0-2,0.6-2.2,1.9H64.5z"/>
	<path class="st0" d="M6.6,22.5V24l-4.3,5h4.5v1.6H0v-1.5l4.3-5H0.2v-1.6H6.6z"/>
	<path class="st0" d="M10.1,21.1c-0.2,0.2-0.5,0.3-0.9,0.3s-0.7-0.1-0.9-0.3C8.1,20.9,8,20.6,8,20.2s0.1-0.7,0.4-0.9
		C8.6,19.1,8.9,19,9.2,19c0.4,0,0.7,0.1,0.9,0.3c0.2,0.2,0.3,0.5,0.3,0.9C10.5,20.6,10.4,20.9,10.1,21.1z M10.1,22.5v8.1H8.4v-8.1
		H10.1z"/>
	<path class="st0" d="M12.3,30.7v-8.1H14v1.2c0.6-1,1.5-1.4,2.7-1.4c0.9,0,1.7,0.3,2.2,0.9s0.8,1.4,0.8,2.5v5h-1.8V26
		c0-0.6-0.2-1.1-0.5-1.5c-0.3-0.3-0.7-0.5-1.3-0.5c-1.3,0-2,0.9-2,2.8v3.8h-1.8V30.7z"/>
	<path class="st0" d="M26.2,30.5c-0.5,0.2-1,0.2-1.6,0.2c-0.8,0-1.3-0.2-1.7-0.6c-0.4-0.4-0.6-1-0.6-1.9V24h-1.5v-1.5h1.5v-2.2h1.8
		v2.2h2.1V24h-2.1v4.1c0,0.6,0.3,0.9,0.9,0.9c0.3,0,0.7,0,1.3-0.1L26.2,30.5L26.2,30.5z"/>
	<path class="st0" d="M34.8,22.5v8.1h-1.7v-1.2c-0.6,0.9-1.5,1.4-2.6,1.4c-1,0-1.8-0.3-2.2-0.9c-0.5-0.6-0.7-1.4-0.7-2.5v-4.9h1.8
		v4.7c0,0.7,0.1,1.1,0.4,1.5c0.2,0.3,0.7,0.5,1.2,0.5c1.4,0,2-0.9,2-2.8v-3.8h1.8V22.5z"/>
	<path class="st0" d="M38.8,21.1c-0.2,0.2-0.5,0.3-0.9,0.3s-0.7-0.1-0.9-0.3c-0.2-0.2-0.3-0.5-0.3-0.9s0.1-0.7,0.3-0.9
		s0.5-0.3,0.9-0.3s0.7,0.1,0.9,0.3c0.2,0.2,0.4,0.5,0.4,0.9S39.1,20.9,38.8,21.1z M38.8,22.5v8.1H37v-8.1H38.8z"/>
	<path class="st0" d="M40.2,26.6c0-1.3,0.4-2.3,1.1-3.1c0.7-0.8,1.6-1.2,2.8-1.2c0.6,0,1.1,0.1,1.6,0.3c0.5,0.2,0.9,0.6,1.1,1v-1.1
		h1.8v7.6c0,1.3-0.4,2.3-1.1,2.9c-0.7,0.7-1.7,1-3.1,1c-1.6,0-2.9-0.5-3.6-1.6l1.1-1.3c0.6,0.9,1.5,1.3,2.6,1.3
		c1.6,0,2.4-0.8,2.4-2.4v-0.6c-0.6,0.8-1.5,1.3-2.7,1.3s-2.1-0.4-2.8-1.1C40.6,28.9,40.2,27.9,40.2,26.6z M46.3,28.5
		c0.4-0.5,0.7-1.1,0.7-1.9s-0.2-1.4-0.7-1.9c-0.4-0.5-1-0.7-1.7-0.7s-1.3,0.2-1.8,0.7s-0.7,1.1-0.7,1.9s0.2,1.4,0.7,1.9
		s1.1,0.7,1.8,0.7C45.2,29.2,45.8,29,46.3,28.5z"/>
	<path class="st0" d="M50.1,26.6c0-1.2,0.4-2.2,1.1-3.1s1.7-1.2,3-1.2c1.2,0,2.2,0.4,2.9,1.2s1,1.8,1,3.1v0.5h-6.2l0,0
		c0.1,0.7,0.3,1.2,0.8,1.5c0.5,0.4,1,0.5,1.6,0.5c0.9,0,1.8-0.4,2.4-1.1l0.8,1.4c-0.9,0.9-2,1.3-3.3,1.3s-2.3-0.4-3.1-1.2
		C50.5,28.9,50.1,27.9,50.1,26.6z M56.2,25.8c-0.1-0.6-0.3-1-0.6-1.4c-0.4-0.3-0.8-0.5-1.5-0.5c-1.3,0-2,0.6-2.2,1.9H56.2z"/>
	<path class="st0" d="M59.7,30.7v-8.1h1.7v1.2c0.6-1,1.5-1.4,2.7-1.4c0.9,0,1.7,0.3,2.2,0.9s0.8,1.4,0.8,2.5v5h-1.8V26
		c0-0.6-0.2-1.1-0.5-1.5C64.5,24.2,64,24,63.4,24c-1.3,0-2,0.9-2,2.8v3.8h-1.7V30.7z"/>
</g>
</svg>
