<?xml version="1.0" encoding="utf-8"?>
<!-- Generator: Adobe Illustrator 24.3.0, SVG Export Plug-In . SVG Version: 6.00 Build 0)  -->
<svg version="1.1" id="Laag_1" xmlns="http://www.w3.org/2000/svg" xmlns:xlink="http://www.w3.org/1999/xlink" x="0px" y="0px"
	 width="162.6px" height="114px" viewBox="0 0 162.6 114" style="enable-background:new 0 0 162.6 114;" xml:space="preserve">
<style type="text/css">
	.st0{fill:#573B4E;}
</style>
<g>
	<path class="st0" d="M33.8,42.3h19.6v7.5H25.8V9.6h8.1v32.7H33.8z"/>
	<path class="st0" d="M68.2,20.8c1.9,0,3.7,0.3,5.4,1c1.7,0.7,3.3,1.7,4.6,3c1.4,1.3,2.4,3.1,3.1,5.3s1,4.7,0.7,7.5H61
		c0.4,2,1.3,3.5,2.7,4.5c1.4,1,3,1.5,4.8,1.5c1.2,0,2.2-0.2,3.1-0.6s1.6-0.8,1.9-1.2l0.5-0.6h7.2c-1.1,2.8-2.8,5-5.2,6.6
		s-5,2.4-7.9,2.4c-4,0-7.4-1.4-10.3-4.2c-2.9-2.8-4.3-6.4-4.3-10.7s1.4-7.8,4.2-10.5C60.9,22.1,64.3,20.8,68.2,20.8z M68.4,27.1
		c-1.6,0-3,0.4-4.2,1.3c-1.2,0.8-2.1,2-2.7,3.5h12.9C73.7,28.7,71.7,27.1,68.4,27.1z"/>
	<path class="st0" d="M102.4,42.6l2.8,5.1c-0.2,0.2-0.5,0.4-0.8,0.7s-1.1,0.6-2.3,1.1s-2.4,0.7-3.7,0.7c-2.8,0-5.3-0.9-7.3-2.6
		c-2-1.8-3-4.1-3-6.9V27.2h-5.8v-5.6h2.9c1,0,1.8-0.3,2.4-0.9s0.9-1.4,0.9-2.5v-5.8h7V21h7.2v6.2h-7.2v12.9c0,1,0.4,1.8,1.1,2.4
		c0.7,0.7,1.6,1,2.6,1c0.5,0,1-0.1,1.6-0.3s1-0.3,1.3-0.5L102.4,42.6z"/>
	<path class="st0" d="M110.3,5.2c1.4,0,2.4,0.5,3.2,1.6c0.7,1.1,1.1,2.5,1.1,4.3c0,1.4-0.2,2.7-0.6,3.9s-0.9,2.2-1.5,2.9
		c-0.6,0.7-1.2,1.4-1.8,1.9c-0.6,0.5-1.1,0.9-1.5,1.2l-0.6,0.3l-1.6-1.8c2-1.8,3.1-3.8,3.4-5.8c-1.1-0.1-2.1-0.5-3-1.2
		c-1-0.5-1.4-1.5-1.4-2.9c0-1.3,0.4-2.4,1.2-3.2C108,5.6,109.1,5.2,110.3,5.2z"/>
	<path class="st0" d="M129.2,29.5c-0.4-1.8-1.8-2.6-4.1-2.6c-1.2,0-2,0.2-2.6,0.7s-0.9,1-0.9,1.7c0,1.3,1.4,2.3,4.3,2.9
		c1.5,0.3,2.8,0.7,3.8,1s2.1,0.8,3.2,1.4c1.1,0.6,1.9,1.5,2.5,2.5c0.6,1.1,0.8,2.3,0.8,3.8c0,2.9-1,5.1-3.1,6.8
		c-2.1,1.6-4.6,2.4-7.7,2.4c-3.3,0-6.1-0.9-8.4-2.8c-2.3-1.9-3.5-4.3-3.7-7.3h7.1c0.1,1.1,0.6,2,1.3,2.8c0.8,0.8,1.9,1.2,3.5,1.2
		c2.4,0,3.6-0.9,3.6-2.8c0-1-0.3-1.7-1-2.1c-0.7-0.4-1.7-0.8-2.9-1.1c-1-0.2-1.7-0.4-2-0.5c-0.4-0.1-1.1-0.3-2.2-0.6
		s-1.9-0.7-2.5-1.1c-0.6-0.4-1.2-0.9-1.9-1.5c-0.7-0.6-1.3-1.3-1.6-2.2c-0.3-0.9-0.5-1.8-0.5-2.8c0-2.7,1.1-4.8,3.2-6.3
		c2.2-1.5,4.7-2.2,7.7-2.2c3.1,0,5.7,0.8,7.7,2.5s3.1,3.7,3.3,6.2L129.2,29.5L129.2,29.5z"/>
	<path class="st0" d="M62.4,90.9c3,0,5.4,0.9,7,2.6c1.6,1.8,2.4,3.9,2.3,6.5c-0.1,3.1-1.4,5.5-3.9,7.1s-5.5,2.4-9.1,2.4
		c-4.4,0-7.8-1.1-10.2-3.3c-2.4-2.2-3.2-4.9-2.6-8l3.3-2.6c-2-1.3-3-3-3-5.1s1.2-3.9,3.6-5.1c-2-1.8-2.9-4.1-2.9-6.9s1-5.2,3.1-7
		c2.1-1.9,4.9-2.8,8.4-2.8c2.5,0,4.7,0.5,6.6,1.4c0.9-0.4,1.8-0.9,2.6-1.6c0.8-0.6,1.4-1.2,1.8-1.6l0.5-0.6l3.6,4.8
		c-1.3,0.9-2.8,1.6-4.6,2.1c1.1,1.5,1.7,3.3,1.7,5.2c0,2.8-1.2,5.1-3.4,7c-2.3,1.9-5.2,2.8-8.8,2.8c-1.5,0-2.9-0.2-4.1-0.5
		c-0.6,0.3-0.9,0.8-0.9,1.4c0,0.3,0.1,0.5,0.2,0.7c0.1,0.2,0.3,0.4,0.5,0.5s0.5,0.2,0.7,0.3c0.2,0.1,0.5,0.1,0.9,0.1s0.7,0,0.9,0
		s0.6,0,1,0s0.7,0,0.9,0h3.9V90.9z M58.9,102.9c1.8,0,3.3-0.3,4.3-0.8c1-0.6,1.5-1.3,1.5-2.2c0-1.8-1.5-2.8-4.5-2.8
		c-2.6,0-4.4,0-5.5-0.1l-2,2.1c-0.2,0.9,0.2,1.7,1.2,2.6C54.9,102.5,56.6,102.9,58.9,102.9z M58.7,74.8c-1.6,0-2.8,0.3-3.7,1
		c-0.8,0.7-1.2,1.5-1.2,2.6c0,1.2,0.4,2.1,1.2,2.8c0.8,0.7,2,1,3.7,1c1.6,0,2.8-0.3,3.6-1s1.3-1.6,1.3-2.8c0-1.1-0.4-2-1.3-2.6
		C61.5,75.1,60.3,74.8,58.7,74.8z"/>
	<path class="st0" d="M98.1,94c-2.9,2.7-6.4,4.1-10.4,4.1c-4.1,0-7.5-1.3-10.4-4c-2.8-2.7-4.3-6.2-4.3-10.6s1.5-8,4.4-10.7
		s6.4-4.1,10.4-4.1s7.5,1.3,10.3,4s4.3,6.2,4.3,10.6C102.5,87.7,101,91.3,98.1,94z M82.6,89.1c1.4,1.5,3.1,2.3,5.3,2.3
		c2.1,0,3.9-0.8,5.1-2.3c1.3-1.5,1.9-3.4,1.9-5.7c0-2.3-0.6-4.2-1.9-5.7s-3-2.3-5.1-2.3s-3.9,0.8-5.3,2.3s-2,3.4-2,5.7
		S81.3,87.6,82.6,89.1z"/>
	<path class="st0" d="M107.2,90.2c0.9-0.9,2-1.3,3.2-1.3c1.3,0,2.3,0.4,3.3,1.3c0.9,0.9,1.3,2,1.3,3.3s-0.4,2.3-1.3,3.3
		c-0.9,0.9-2,1.3-3.3,1.3s-2.3-0.4-3.2-1.3c-0.9-0.9-1.4-2-1.4-3.3C105.8,92.2,106.3,91.1,107.2,90.2z M113.2,86.3h-5.5l-1.2-28.8
		h7.7L113.2,86.3z"/>
</g>
</svg>
