<?xml version="1.0" encoding="utf-8"?>
<!-- Generator: Adobe Illustrator 24.0.0, SVG Export Plug-In . SVG Version: 6.00 Build 0)  -->
<svg version="1.1" id="Laag_1" xmlns="http://www.w3.org/2000/svg" xmlns:xlink="http://www.w3.org/1999/xlink" x="0px" y="0px"
	 width="627.8px" height="766.8px" viewBox="0 0 627.8 766.8" style="enable-background:new 0 0 627.8 766.8;" xml:space="preserve"
	>
<style type="text/css">
	.st0{fill:#00269A;}
	.st1{fill:#FFFFFF;}
</style>
<g>
	<path class="st0" d="M135.2,561v-37.3H38.8V561H66v158.2H108V561H135.2L135.2,561z M198.8,521.5c-30.8,0-50.4,18-50.4,45.2v109.5
		c0,27.2,19.6,45.2,50.4,45.2s50.4-18,50.4-45.2V566.7C249.2,539.5,229.6,521.5,198.8,521.5L198.8,521.5z M198.8,556.6
		c5.7,0,8.4,4.4,8.4,11.2v107.3c0,6.8-2.7,11.2-8.4,11.2c-5.7,0-8.7-4.4-8.7-11.2V567.8C190.1,561,193.1,556.6,198.8,556.6
		L198.8,556.6z M315.7,523.7h-51.2v195.5h51.2c30.8,0,49.6-18,49.6-45.2V568.9C365.3,541.7,346.5,523.7,315.7,523.7L315.7,523.7z
		 M314.9,559.6c5.4,0,8.4,4.1,8.4,10.6v102.4c0,6.5-3,10.6-8.4,10.6h-8.7V559.6H314.9L314.9,559.6z M401.5,523.7l-26.1,195.5h39.5
		l3.8-39.2h20.4l4.1,39.2H484l-26.4-195.5H401.5L401.5,523.7z M425.2,613.8l3.3-36.8h0.5l3.5,36.8l3.3,32.7h-13.9L425.2,613.8
		L425.2,613.8z M556.6,639.7l34-116h-40.8L537,585h-0.5l-13.1-61.3h-42.5l33.5,114.9v80.6h42.2V639.7L556.6,639.7z"/>
	<path class="st0" d="M100.1,436c0,6.8-2.7,11.2-8.4,11.2c-5.7,0-8.7-4.4-8.7-11.2V284.5H41.3V437c0,27.2,19.6,45.2,50.4,45.2
		s50.4-18,50.4-45.2V284.5h-41.9V436L100.1,436z M212.6,436c0,6.8-2.5,11.2-7.9,11.2c-5.7,0-8.2-4.4-8.2-11.2v-28.6h-40.8V437
		c0,27.5,17.7,45.2,48.5,45.2c30.8,0,50.4-17.7,50.4-45.2v-25.3c0-17.2-5.7-26.7-18.8-35.4l-31.9-22.6c-4.4-3.3-6.3-6.5-6.3-13.3
		v-11.7c0-6.8,2.5-11.2,8.2-11.2c5.4,0,7.9,4.4,7.9,11.2v25.1h40.6v-26.1c0-27.5-17.7-45.2-48.5-45.2c-30.8,0-50.1,17.7-50.1,45.2
		v21c0,17.2,5.7,26.7,18.8,35.4l31.9,22.9c4.4,3.3,6.3,6.3,6.3,13.3V436L212.6,436z M290.1,284.5L264,480.1h39.5l3.8-39.2h20.4
		l4.1,39.2h40.8l-26.4-195.5H290.1L290.1,284.5z"/>
	<path class="st0" d="M63.3,45.4L37.2,240.9h39.5l3.8-39.2h20.4l4.1,39.2h40.8L119.4,45.4H63.3L63.3,45.4z M87,135.5l3.3-36.8h0.5
		l3.5,36.8l3.3,32.7H83.7L87,135.5L87,135.5z M207.7,161.9c6.5,0,9.5,4.1,9.5,11.4v42.8c0,9.5,0.5,18.5,3,24.8h41.7
		c-2.5-6.5-3-15.8-3-26.1v-42.2c0-12.8-4.9-24.2-17.4-29.1c12-4.4,18-15.8,18-28.9V87.1c0-27.5-15-41.7-45.8-41.7h-55v195.5h41.7
		v-79H207.7L207.7,161.9z M217.5,92v23.4c0,6.8-3,10.6-8.4,10.6h-8.7V81.3h8.7C214.5,81.3,217.5,85.4,217.5,92L217.5,92z
		 M368.9,82.7V45.4h-96.4v37.3h27.2v158.2h41.9V82.7H368.9L368.9,82.7z"/>
	<polygon class="st1" points="291.7,400.2 307.7,411.8 301.6,430.6 317.6,419 333.6,430.6 327.5,411.8 343.4,400.2 323.7,400.2 
		317.6,381.4 311.5,400.2 291.7,400.2 	"/>
</g>
</svg>
