<?xml version="1.0" encoding="utf-8"?>
<!-- Generator: Adobe Illustrator 24.3.0, SVG Export Plug-In . SVG Version: 6.00 Build 0)  -->
<svg version="1.1" id="Laag_1" xmlns="http://www.w3.org/2000/svg" xmlns:xlink="http://www.w3.org/1999/xlink" x="0px" y="0px"
	 width="236.6px" height="15.9px" viewBox="0 0 236.6 15.9" style="enable-background:new 0 0 236.6 15.9;" xml:space="preserve">
<style type="text/css">
	.st0{fill:#FFFFFF;}
</style>
<g>
	<path class="st0" d="M8.7,0.4v10.1c0,0.4,0,0.8-0.1,1.2c0,0.4-0.1,0.7-0.2,0.9c-0.2,0.4-0.4,0.8-0.7,1.1s-0.6,0.6-1,0.9
		c-0.4,0.2-0.8,0.4-1.3,0.6c-0.5,0.1-1,0.2-1.5,0.2c-1.6,0-2.8-0.7-3.8-2.2l2.5-2.5c0.1,0.4,0.2,0.8,0.4,1c0.2,0.3,0.5,0.4,0.8,0.4
		c0.7,0,1.1-0.6,1.1-1.7V0.4H8.7z"/>
	<path class="st0" d="M11.1,7.7c0-1.1,0.2-2.1,0.6-3c0.4-0.9,1-1.8,1.7-2.5s1.6-1.2,2.6-1.6S18,0,19.2,0c1.2,0,2.3,0.2,3.3,0.6
		c1,0.4,1.9,0.9,2.6,1.6c0.7,0.7,1.3,1.5,1.7,2.5c0.4,0.9,0.6,2,0.6,3c0,1.1-0.2,2.1-0.6,3c-0.4,0.9-1,1.8-1.7,2.5
		c-0.7,0.7-1.6,1.2-2.6,1.6c-1,0.4-2.1,0.6-3.3,0.6c-1.2,0-2.3-0.2-3.3-0.6s-1.8-0.9-2.6-1.6s-1.3-1.5-1.7-2.5
		C11.3,9.8,11.1,8.8,11.1,7.7z M15.1,7.7c0,0.6,0.1,1.1,0.3,1.6c0.2,0.5,0.5,0.9,0.9,1.3c0.4,0.4,0.8,0.6,1.3,0.8
		c0.5,0.2,1,0.3,1.6,0.3c0.6,0,1.1-0.1,1.6-0.3c0.5-0.2,0.9-0.5,1.3-0.8c0.4-0.4,0.7-0.8,0.9-1.3c0.2-0.5,0.3-1,0.3-1.6
		c0-0.6-0.1-1.1-0.3-1.6c-0.2-0.5-0.5-0.9-0.9-1.3c-0.4-0.4-0.8-0.6-1.3-0.8c-0.5-0.2-1-0.3-1.6-0.3c-0.6,0-1.1,0.1-1.6,0.3
		c-0.5,0.2-0.9,0.5-1.3,0.8c-0.4,0.4-0.7,0.8-0.9,1.3C15.2,6.6,15.1,7.1,15.1,7.7z"/>
	<path class="st0" d="M33.5,0.4V15h-3.8V0.4H33.5z"/>
	<path class="st0" d="M36.6,15V0.4h3.8l7,8.9V0.4h3.8V15h-3.8l-7-8.9V15H36.6z"/>
	<path class="st0" d="M66.4,3.6V15h-3.8V3.6h-3.1V0.4h10.1v3.2H66.4z"/>
	<path class="st0" d="M75,6.1h5.5V0.4h3.8V15h-3.8V9H75v6h-3.8V0.4H75V6.1z"/>
	<path class="st0" d="M95.7,3.6h-4.5v2.4h4.3v3.2h-4.3v2.5h4.5V15h-8.3V0.4h8.3V3.6z"/>
	<path class="st0" d="M108.9,0.4v11.4h4.6V15h-8.4V0.4H108.9z"/>
	<path class="st0" d="M119.2,0.4V15h-3.8V0.4H119.2z"/>
	<path class="st0" d="M124.8,0.4l3.5,8.9l3.6-8.9h4.1L129.9,15h-3l-6.2-14.6H124.8z"/>
	<path class="st0" d="M145.9,3.6h-4.5v2.4h4.3v3.2h-4.3v2.5h4.5V15h-8.3V0.4h8.3V3.6z"/>
	<path class="st0" d="M156.7,4.2c-0.4-0.3-0.8-0.6-1.2-0.7c-0.4-0.2-0.8-0.2-1.2-0.2c-0.5,0-0.9,0.1-1.2,0.3
		c-0.3,0.2-0.5,0.5-0.5,0.9c0,0.3,0.1,0.5,0.2,0.6c0.2,0.2,0.4,0.3,0.6,0.4c0.3,0.1,0.5,0.2,0.9,0.3c0.3,0.1,0.6,0.2,0.9,0.3
		c1.2,0.4,2.2,1,2.7,1.7s0.9,1.6,0.9,2.7c0,0.8-0.1,1.4-0.4,2c-0.3,0.6-0.6,1.1-1.1,1.6c-0.5,0.4-1.1,0.8-1.8,1
		c-0.7,0.2-1.5,0.4-2.4,0.4c-1.9,0-3.6-0.5-5.1-1.6l1.6-3.1c0.6,0.5,1.1,0.9,1.7,1.1c0.6,0.2,1.1,0.4,1.6,0.4c0.6,0,1.1-0.1,1.4-0.4
		c0.3-0.3,0.5-0.6,0.5-1c0-0.2,0-0.4-0.1-0.6c-0.1-0.2-0.2-0.3-0.4-0.4c-0.2-0.1-0.4-0.3-0.7-0.4c-0.3-0.1-0.6-0.2-1.1-0.4
		c-0.5-0.2-1-0.3-1.4-0.5c-0.5-0.2-0.9-0.4-1.3-0.7c-0.4-0.3-0.7-0.7-0.9-1.2c-0.2-0.5-0.3-1.1-0.3-1.8c0-0.7,0.1-1.4,0.4-2
		s0.6-1.1,1-1.5c0.4-0.4,1-0.7,1.6-1c0.6-0.2,1.3-0.3,2.1-0.3c0.7,0,1.5,0.1,2.3,0.3c0.8,0.2,1.5,0.5,2.3,0.9L156.7,4.2z"/>
	<path class="st0" d="M166.8,3.6V15H163V3.6h-3.1V0.4H170v3.2H166.8z"/>
	<path class="st0" d="M183.8,15h-4.7l-3.6-5.6V15h-3.8V0.4h5.9c0.8,0,1.5,0.1,2.1,0.4c0.6,0.2,1.1,0.6,1.5,1s0.7,0.9,0.9,1.4
		c0.2,0.5,0.3,1.1,0.3,1.7c0,1.1-0.3,2-0.8,2.7c-0.5,0.7-1.3,1.2-2.4,1.4L183.8,15z M175.5,6.9h0.7c0.8,0,1.3-0.2,1.7-0.5
		c0.4-0.3,0.6-0.8,0.6-1.3s-0.2-1-0.6-1.3c-0.4-0.3-1-0.5-1.7-0.5h-0.7V6.9z"/>
	<path class="st0" d="M193.7,3.6h-4.5v2.4h4.3v3.2h-4.3v2.5h4.5V15h-8.3V0.4h8.3V3.6z"/>
	<path class="st0" d="M205.4,12.5H200l-0.9,2.5h-4.1l5.6-14.6h4.2l5.6,14.6h-4.1L205.4,12.5z M204.4,9.6l-1.7-4.9L201,9.6H204.4z"/>
	<path class="st0" d="M211.4,15l2.5-14.6h3.8l2.9,7.8l2.9-7.8h3.8l2.5,14.6h-3.8l-1.3-8.4l-3.5,8.4h-1.5l-3.3-8.4l-1.3,8.4H211.4z"
		/>
	<path class="st0" d="M232.1,13.2c0-0.3,0.1-0.6,0.2-0.9c0.1-0.3,0.3-0.5,0.5-0.7c0.2-0.2,0.5-0.4,0.7-0.5c0.3-0.1,0.6-0.2,0.9-0.2
		c0.3,0,0.6,0.1,0.9,0.2c0.3,0.1,0.5,0.3,0.7,0.5c0.2,0.2,0.4,0.5,0.5,0.7c0.1,0.3,0.2,0.6,0.2,0.9c0,0.3-0.1,0.6-0.2,0.9
		c-0.1,0.3-0.3,0.5-0.5,0.7c-0.2,0.2-0.5,0.4-0.7,0.5c-0.3,0.1-0.6,0.2-0.9,0.2c-0.3,0-0.6-0.1-0.9-0.2c-0.3-0.1-0.5-0.3-0.7-0.5
		c-0.2-0.2-0.4-0.4-0.5-0.7C232.1,13.8,232.1,13.5,232.1,13.2z M232.5,10.1V0.4h3.6v9.7H232.5z"/>
</g>
</svg>
