<?xml version="1.0" encoding="utf-8"?>
<!-- Generator: Adobe Illustrator 24.0.0, SVG Export Plug-In . SVG Version: 6.00 Build 0)  -->
<svg version="1.1" id="Laag_1" xmlns="http://www.w3.org/2000/svg" xmlns:xlink="http://www.w3.org/1999/xlink" x="0px" y="0px"
	 width="55.3px" height="12.1px" viewBox="0 0 55.3 12.1" style="enable-background:new 0 0 55.3 12.1;" xml:space="preserve">
<style type="text/css">
	.st0{fill:#E73F12;}
</style>
<g>
	<path class="st0" d="M1.7,1.3H5c1.9,0,3.8,0.4,3.8,3c0,2.6-2.1,3-3.8,3H4.1V10H1.7V1.3z M5.1,5.4c1.1,0,1.4-0.5,1.4-1.1
		c0-0.7-0.3-1.1-1.4-1.1h-1v2.2H5.1z"/>
	<path class="st0" d="M9.8,1.3h2.4V10H9.8V1.3z"/>
	<path class="st0" d="M13.3,5.7c0-3.2,1.9-4.5,4.1-4.5c2.4,0,3.3,1.2,3.7,2.8l-2.2,0.7c-0.2-0.8-0.6-1.5-1.5-1.5
		c-1.2,0-1.7,1-1.7,2.6c0,1.6,0.6,2.6,1.7,2.6c0.9,0,1.3-0.6,1.6-1.7l2.2,0.5c-0.4,1.8-1.4,3-3.8,3C15.1,10.2,13.3,8.8,13.3,5.7z"/>
	<path class="st0" d="M24.3,1.3h2.2l3.1,8.7h-2.4l-0.5-1.6h-2.7L23.4,10h-2.1L24.3,1.3z M26.2,6.7l-0.8-2.4h0l-0.8,2.4H26.2z"/>
	<path class="st0" d="M29.6,8.1L31.3,7c0.5,0.8,1.4,1.3,2.3,1.3c0.7,0,1.3-0.2,1.3-0.8c0-0.6-0.7-0.8-1.6-1C31.9,6.2,30,5.9,30,3.9
		c0-1.8,1.3-2.8,3.3-2.8c1.8,0,3,0.9,3.6,1.7l-1.6,1.3C34.9,3.6,34,3,33.3,3c-0.7,0-1,0.2-1,0.6c0,0.6,0.7,0.8,1.5,1
		c1.4,0.3,3.3,0.8,3.3,2.7c0,1.4-1,2.8-3.7,2.8C31.5,10.2,30.3,9.3,29.6,8.1z"/>
	<path class="st0" d="M37.5,8.1L39.3,7c0.5,0.8,1.4,1.3,2.3,1.3c0.7,0,1.3-0.2,1.3-0.8c0-0.6-0.7-0.8-1.6-1C39.9,6.2,38,5.9,38,3.9
		c0-1.8,1.3-2.8,3.3-2.8c1.8,0,3,0.9,3.6,1.7l-1.6,1.3C42.9,3.6,42,3,41.3,3c-0.7,0-1,0.2-1,0.6c0,0.6,0.7,0.8,1.5,1
		c1.4,0.3,3.3,0.8,3.3,2.7c0,1.4-1,2.8-3.7,2.8C39.5,10.2,38.3,9.3,37.5,8.1z"/>
	<path class="st0" d="M45.6,5.7c0-3.2,2.2-4.5,4.3-4.5c2.1,0,4.3,1.3,4.3,4.5c0,3.2-2.2,4.5-4.3,4.5C47.8,10.2,45.6,8.8,45.6,5.7z
		 M51.8,5.7c0-1.6-0.7-2.6-1.9-2.6c-1.2,0-1.9,1-1.9,2.6c0,1.6,0.7,2.6,1.9,2.6C51.1,8.3,51.8,7.3,51.8,5.7z"/>
</g>
</svg>
