<?xml version="1.0" encoding="utf-8"?>
<!-- Generator: Adobe Illustrator 22.0.0, SVG Export Plug-In . SVG Version: 6.00 Build 0)  -->
<svg version="1.1" id="Laag_1" xmlns="http://www.w3.org/2000/svg" xmlns:xlink="http://www.w3.org/1999/xlink" x="0px" y="0px"
	 viewBox="0 0 182.1 15.8" style="enable-background:new 0 0 182.1 15.8;" xml:space="preserve">
<style type="text/css">
	.st0{fill:#FFFFFF;}
</style>
<g>
	<path class="st0" d="M6.4,15.6H3.4c-0.2,0-0.4-0.1-0.4-0.3L0,0.6c0-0.1,0-0.2,0.1-0.3c0.1-0.1,0.2-0.1,0.4-0.1h2.2
		c0.2,0,0.4,0.1,0.4,0.3l1.8,9.7c0,0.1,0.1,0.2,0.2,0.2h0.1c0.1,0,0.1-0.1,0.2-0.2l1.5-9.7c0-0.2,0.2-0.3,0.4-0.3h2
		c0.2,0,0.4,0.1,0.4,0.3l1.5,9.7c0,0.1,0.1,0.2,0.2,0.2h0.1c0.1,0,0.1-0.1,0.2-0.2l1.8-9.7c0-0.2,0.2-0.3,0.4-0.3H16
		c0.2,0,0.3,0,0.4,0.1c0.1,0.1,0.1,0.2,0.1,0.3l-3,14.6c0,0.2-0.2,0.3-0.4,0.3H10c-0.2,0-0.4-0.1-0.4-0.3L8.3,8.1C8.3,8,8.3,8,8.2,8
		S8.1,8,8.1,8.1l-1.2,7.1C6.8,15.5,6.7,15.6,6.4,15.6z"/>
	<path class="st0" d="M21,12.3c0,0.1,0.1,0.2,0.2,0.2h5.2c0.1,0,0.2,0,0.3,0.1c0.1,0.1,0.1,0.2,0.1,0.3v2.2c0,0.1,0,0.2-0.1,0.3
		s-0.2,0.1-0.3,0.1h-8.1c-0.1,0-0.2,0-0.3-0.1S18,15.3,18,15.1V0.6c0-0.1,0-0.2,0.1-0.3s0.2-0.1,0.3-0.1h8c0.1,0,0.2,0,0.3,0.1
		s0.1,0.2,0.1,0.3v2.2c0,0.1,0,0.2-0.1,0.3c-0.1,0.1-0.2,0.1-0.3,0.1h-5.1c-0.1,0-0.2,0.1-0.2,0.2v2.6c0,0.1,0.1,0.2,0.2,0.2h5
		c0.1,0,0.2,0,0.3,0.1c0.1,0.1,0.1,0.2,0.1,0.3V9c0,0.1,0,0.2-0.1,0.3c-0.1,0.1-0.2,0.1-0.3,0.1h-5c-0.1,0-0.2,0.1-0.2,0.2V12.3z"/>
	<path class="st0" d="M32.5,9.4c-0.1,0-0.2,0.1-0.2,0.2v5.5c0,0.1,0,0.2-0.1,0.3s-0.2,0.1-0.3,0.1h-2.2c-0.1,0-0.2,0-0.3-0.1
		s-0.1-0.2-0.1-0.3V0.6c0-0.1,0-0.2,0.1-0.3s0.2-0.1,0.3-0.1h4.8c0.6,0,1.2,0.1,1.8,0.4c0.6,0.2,1.1,0.6,1.5,1s0.7,0.9,1,1.5
		c0.2,0.6,0.4,1.2,0.4,1.8c0,0.9-0.2,1.6-0.6,2.2s-0.9,1.2-1.7,1.7c-0.2,0.1-0.2,0.2-0.2,0.3c0,0.1,0,0.2,0.1,0.4l2.4,5.5
		c0.1,0.2,0.1,0.3,0,0.5c-0.1,0.1-0.2,0.2-0.4,0.2h-2.3c-0.2,0-0.3,0-0.4-0.1c-0.1-0.1-0.2-0.2-0.2-0.3l-2.2-5.4
		c0-0.1-0.1-0.1-0.1-0.2s-0.1-0.1-0.3-0.1H32.5z M32.5,3.3c-0.1,0-0.2,0.1-0.2,0.2v2.6c0,0.1,0.1,0.2,0.2,0.2h2
		c0.4,0,0.8-0.1,1.1-0.5C35.9,5.6,36,5.2,36,4.8S35.9,4,35.6,3.7c-0.3-0.3-0.7-0.5-1.1-0.5H32.5z"/>
	<path class="st0" d="M44.6,12.3c0,0.1,0.1,0.2,0.2,0.2h5.2c0.1,0,0.2,0,0.3,0.1c0.1,0.1,0.1,0.2,0.1,0.3v2.2c0,0.1,0,0.2-0.1,0.3
		s-0.2,0.1-0.3,0.1H42c-0.1,0-0.2,0-0.3-0.1s-0.1-0.2-0.1-0.3V0.6c0-0.1,0-0.2,0.1-0.3s0.2-0.1,0.3-0.1h8c0.1,0,0.2,0,0.3,0.1
		s0.1,0.2,0.1,0.3v2.2c0,0.1,0,0.2-0.1,0.3c-0.1,0.1-0.2,0.1-0.3,0.1h-5.1c-0.1,0-0.2,0.1-0.2,0.2v2.6c0,0.1,0.1,0.2,0.2,0.2h5
		c0.1,0,0.2,0,0.3,0.1c0.1,0.1,0.1,0.2,0.1,0.3V9c0,0.1,0,0.2-0.1,0.3c-0.1,0.1-0.2,0.1-0.3,0.1h-5c-0.1,0-0.2,0.1-0.2,0.2V12.3z"/>
	<path class="st0" d="M55.9,12.3c0,0.1,0.1,0.2,0.2,0.2h4.6c0.1,0,0.2,0,0.3,0.1c0.1,0.1,0.1,0.2,0.1,0.3v2.2c0,0.1,0,0.2-0.1,0.3
		c-0.1,0.1-0.2,0.1-0.3,0.1h-7.5c-0.1,0-0.2,0-0.3-0.1s-0.1-0.2-0.1-0.3V0.6c0-0.1,0-0.2,0.1-0.3s0.2-0.1,0.3-0.1h2.2
		c0.1,0,0.2,0,0.3,0.1s0.1,0.2,0.1,0.3V12.3z"/>
	<path class="st0" d="M67.9,0.2c0.7,0,1.3,0.1,1.9,0.4c0.6,0.3,1.1,0.6,1.5,1.1c0.4,0.4,0.8,1,1,1.6c0.3,0.6,0.4,1.2,0.5,1.9
		C72.9,6,73,6.9,73,7.9c0,1-0.1,1.9-0.2,2.8c-0.1,0.7-0.2,1.3-0.5,1.9c-0.3,0.6-0.6,1.1-1,1.6c-0.4,0.4-0.9,0.8-1.5,1.1
		s-1.2,0.4-1.9,0.4h-4.6c-0.1,0-0.2,0-0.3-0.1s-0.1-0.2-0.1-0.3V0.6c0-0.1,0-0.2,0.1-0.3s0.2-0.1,0.3-0.1H67.9z M66.1,3.3
		c-0.1,0-0.2,0.1-0.2,0.2v8.8c0,0.1,0.1,0.2,0.2,0.2h1.8c0.5,0,0.9-0.2,1.2-0.5c0.3-0.4,0.5-0.8,0.6-1.3c0.1-0.9,0.2-1.9,0.2-2.8
		c0-1-0.1-1.9-0.2-2.8c-0.1-0.5-0.2-0.9-0.6-1.3s-0.7-0.5-1.2-0.5H66.1z"/>
	<path class="st0" d="M81.8,10.2c0,0.1,0.1,0.1,0.1,0.1s0.1,0,0.1-0.1l2.3-9.6c0.1-0.2,0.2-0.4,0.5-0.4h3.2c0.1,0,0.2,0,0.3,0.1
		s0.1,0.2,0.1,0.3v14.5c0,0.1,0,0.2-0.1,0.3s-0.2,0.1-0.3,0.1h-1.9c-0.1,0-0.2,0-0.3-0.1s-0.1-0.2-0.1-0.3V6.9c0-0.1,0-0.1-0.1-0.1
		c-0.1,0-0.1,0-0.1,0.1l-2.2,8.4c-0.1,0.2-0.2,0.4-0.5,0.4h-1.7c-0.2,0-0.4-0.1-0.5-0.4l-2.2-8.4c0-0.1-0.1-0.1-0.1-0.1
		c-0.1,0-0.1,0.1-0.1,0.1v8.3c0,0.1,0,0.2-0.1,0.3s-0.2,0.1-0.3,0.1h-1.9c-0.1,0-0.2,0-0.3-0.1s-0.1-0.2-0.1-0.3V0.6
		c0-0.1,0-0.2,0.1-0.3s0.2-0.1,0.3-0.1h3.3c0.2,0,0.4,0.1,0.5,0.4L81.8,10.2z"/>
	<path class="st0" d="M101.6,11c0,0.7-0.1,1.3-0.4,1.9c-0.3,0.6-0.6,1.1-1.1,1.6c-0.5,0.4-1,0.8-1.6,1c-0.6,0.3-1.3,0.4-2.1,0.4
		c-0.7,0-1.4-0.1-2.1-0.4c-0.6-0.3-1.2-0.6-1.6-1c-0.5-0.4-0.8-1-1.1-1.6c-0.3-0.6-0.4-1.2-0.4-1.9V0.6c0-0.1,0-0.2,0.1-0.3
		s0.2-0.1,0.3-0.1h2.2c0.1,0,0.2,0,0.3,0.1s0.1,0.2,0.1,0.3V11c0,0.5,0.2,0.9,0.5,1.2s0.9,0.5,1.5,0.5c0.7,0,1.2-0.2,1.6-0.5
		s0.6-0.8,0.6-1.2V0.6c0-0.1,0-0.2,0.1-0.3c0.1-0.1,0.2-0.1,0.3-0.1h2.2c0.1,0,0.2,0,0.3,0.1s0.1,0.2,0.1,0.3V11z"/>
	<path class="st0" d="M110.8,11c0-0.5-0.2-0.8-0.5-1.1s-0.9-0.5-1.8-0.7c-0.7-0.1-1.3-0.3-1.9-0.6s-1.1-0.5-1.6-0.9
		c-0.4-0.4-0.8-0.8-1-1.3c-0.3-0.5-0.4-1.1-0.4-1.8c0-0.6,0.1-1.2,0.4-1.8c0.2-0.6,0.6-1.1,1.1-1.5c0.5-0.4,1-0.7,1.6-1
		c0.6-0.2,1.3-0.4,2-0.4c0.7,0,1.4,0.1,2,0.4c0.6,0.2,1.2,0.6,1.6,1s0.8,0.9,1,1.5c0.2,0.6,0.4,1.2,0.4,1.8v0.3c0,0.1,0,0.2-0.1,0.3
		c-0.1,0.1-0.2,0.1-0.3,0.1H111c-0.1,0-0.2,0-0.3-0.1c-0.1-0.1-0.1-0.2-0.1-0.3V4.6c0-0.4-0.2-0.8-0.5-1.2c-0.3-0.3-0.8-0.5-1.5-0.5
		c-0.6,0-1.1,0.1-1.4,0.4c-0.3,0.3-0.5,0.7-0.5,1.1c0,0.4,0.2,0.8,0.5,1c0.4,0.3,0.8,0.4,1.4,0.6c0.8,0.2,1.5,0.4,2.1,0.6
		c0.7,0.2,1.2,0.6,1.7,0.9c0.5,0.4,0.8,0.9,1.1,1.4c0.3,0.6,0.4,1.2,0.4,2c0,0.7-0.1,1.4-0.4,2c-0.3,0.6-0.6,1.1-1.1,1.5
		s-1,0.8-1.7,1s-1.4,0.4-2.2,0.4c-0.8,0-1.5-0.1-2.1-0.4s-1.2-0.6-1.7-1c-0.5-0.4-0.8-0.9-1.1-1.5c-0.3-0.6-0.4-1.2-0.4-1.9v-0.7
		c0-0.1,0-0.2,0.1-0.3c0.1-0.1,0.2-0.1,0.3-0.1h2.2c0.1,0,0.2,0,0.3,0.1c0.1,0.1,0.1,0.2,0.1,0.3V11c0,0.5,0.2,0.9,0.5,1.3
		c0.4,0.3,0.9,0.5,1.6,0.5c0.7,0,1.2-0.2,1.6-0.5C110.6,12,110.8,11.5,110.8,11z"/>
	<path class="st0" d="M119.2,12.3c0,0.1,0.1,0.2,0.2,0.2h5.2c0.1,0,0.2,0,0.3,0.1c0.1,0.1,0.1,0.2,0.1,0.3v2.2c0,0.1,0,0.2-0.1,0.3
		s-0.2,0.1-0.3,0.1h-8.1c-0.1,0-0.2,0-0.3-0.1c-0.1-0.1-0.1-0.2-0.1-0.3V0.6c0-0.1,0-0.2,0.1-0.3c0.1-0.1,0.2-0.1,0.3-0.1h8
		c0.1,0,0.2,0,0.3,0.1s0.1,0.2,0.1,0.3v2.2c0,0.1,0,0.2-0.1,0.3c-0.1,0.1-0.2,0.1-0.3,0.1h-5.1c-0.1,0-0.2,0.1-0.2,0.2v2.6
		c0,0.1,0.1,0.2,0.2,0.2h4.9c0.1,0,0.2,0,0.3,0.1s0.1,0.2,0.1,0.3V9c0,0.1,0,0.2-0.1,0.3s-0.2,0.1-0.3,0.1h-4.9
		c-0.1,0-0.2,0.1-0.2,0.2V12.3z"/>
	<path class="st0" d="M137.6,11c0,0.7-0.1,1.3-0.4,1.9c-0.3,0.6-0.6,1.1-1.1,1.6c-0.5,0.4-1,0.8-1.6,1c-0.6,0.3-1.3,0.4-2.1,0.4
		c-0.7,0-1.4-0.1-2.1-0.4c-0.6-0.3-1.2-0.6-1.6-1c-0.5-0.4-0.8-1-1.1-1.6c-0.3-0.6-0.4-1.2-0.4-1.9V0.6c0-0.1,0-0.2,0.1-0.3
		s0.2-0.1,0.3-0.1h2.2c0.1,0,0.2,0,0.3,0.1s0.1,0.2,0.1,0.3V11c0,0.5,0.2,0.9,0.5,1.2s0.9,0.5,1.5,0.5c0.7,0,1.2-0.2,1.6-0.5
		s0.6-0.8,0.6-1.2V0.6c0-0.1,0-0.2,0.1-0.3c0.1-0.1,0.2-0.1,0.3-0.1h2.2c0.1,0,0.2,0,0.3,0.1s0.1,0.2,0.1,0.3V11z"/>
	<path class="st0" d="M146.6,10.2c0,0.1,0.1,0.1,0.1,0.1s0.1,0,0.1-0.1l2.3-9.6c0.1-0.2,0.2-0.4,0.5-0.4h3.2c0.1,0,0.2,0,0.3,0.1
		s0.1,0.2,0.1,0.3v14.5c0,0.1,0,0.2-0.1,0.3s-0.2,0.1-0.3,0.1h-1.9c-0.1,0-0.2,0-0.3-0.1s-0.1-0.2-0.1-0.3V6.9c0-0.1,0-0.1-0.1-0.1
		c-0.1,0-0.1,0-0.1,0.1l-2.2,8.4c-0.1,0.2-0.2,0.4-0.5,0.4h-1.7c-0.2,0-0.4-0.1-0.5-0.4l-2.2-8.4c0-0.1-0.1-0.1-0.1-0.1
		c-0.1,0-0.1,0.1-0.1,0.1v8.3c0,0.1,0,0.2-0.1,0.3s-0.2,0.1-0.3,0.1h-1.9c-0.1,0-0.2,0-0.3-0.1c-0.1-0.1-0.1-0.2-0.1-0.3V0.6
		c0-0.1,0-0.2,0.1-0.3c0.1-0.1,0.2-0.1,0.3-0.1h3.3c0.2,0,0.4,0.1,0.5,0.4L146.6,10.2z"/>
	<path class="st0" d="M158.5,15.1c0,0.1,0,0.2-0.1,0.3s-0.2,0.1-0.3,0.1h-2.6c-0.1,0-0.2,0-0.3-0.1s-0.1-0.2-0.1-0.3v-2.6
		c0-0.1,0-0.2,0.1-0.3s0.2-0.1,0.3-0.1h2.6c0.1,0,0.2,0,0.3,0.1s0.1,0.2,0.1,0.3V15.1z"/>
	<path class="st0" d="M167.9,15.6c-0.2,0-0.3,0-0.4-0.1c-0.1-0.1-0.1-0.2-0.2-0.3l-3-7.7c0-0.1-0.1-0.1-0.1-0.1
		c-0.1,0-0.1,0.1-0.1,0.1v7.6c0,0.1,0,0.2-0.1,0.3s-0.2,0.1-0.3,0.1h-2.2c-0.1,0-0.2,0-0.3-0.1c-0.1-0.1-0.1-0.2-0.1-0.3V0.6
		c0-0.1,0-0.2,0.1-0.3c0.1-0.1,0.2-0.1,0.3-0.1h2.6c0.2,0,0.3,0,0.4,0.1s0.1,0.2,0.2,0.3l3,8.4c0,0.1,0.1,0.1,0.1,0.1
		c0.1,0,0.1-0.1,0.1-0.1V0.6c0-0.1,0-0.2,0.1-0.3s0.2-0.1,0.3-0.1h2.2c0.1,0,0.2,0,0.3,0.1s0.1,0.2,0.1,0.3v14.5
		c0,0.1,0,0.2-0.1,0.3s-0.2,0.1-0.3,0.1H167.9z"/>
	<path class="st0" d="M176.9,12.3c0,0.1,0.1,0.2,0.2,0.2h4.6c0.1,0,0.2,0,0.3,0.1c0.1,0.1,0.1,0.2,0.1,0.3v2.2c0,0.1,0,0.2-0.1,0.3
		s-0.2,0.1-0.3,0.1h-7.5c-0.1,0-0.2,0-0.3-0.1c-0.1-0.1-0.1-0.2-0.1-0.3V0.6c0-0.1,0-0.2,0.1-0.3c0.1-0.1,0.2-0.1,0.3-0.1h2.2
		c0.1,0,0.2,0,0.3,0.1s0.1,0.2,0.1,0.3V12.3z"/>
</g>
</svg>
