<?xml version="1.0" encoding="utf-8"?>
<!-- Generator: Adobe Illustrator 24.3.0, SVG Export Plug-In . SVG Version: 6.00 Build 0)  -->
<svg version="1.1" id="Laag_1" xmlns="http://www.w3.org/2000/svg" xmlns:xlink="http://www.w3.org/1999/xlink" x="0px" y="0px"
	 width="38.3px" height="62.1px" viewBox="0 0 38.3 62.1" style="enable-background:new 0 0 38.3 62.1;" xml:space="preserve">
<style type="text/css">
	.st0{fill:#EBEEE2;}
</style>
<g>
	<g>
		<g>
			<g>
				<polygon class="st0" points="24.3,54.5 29.1,51.8 29.1,36.1 24.3,33.4 19.4,36.1 24.3,38.7 				"/>
			</g>
			<g>
				<polygon class="st0" points="14.6,22.9 19.4,20.3 19.4,51.8 14.6,49.2 				"/>
			</g>
			<g>
				<polygon class="st0" points="19.4,15.1 14.6,17.7 0,9.8 4.9,7.2 				"/>
			</g>
			<g>
				<polygon class="st0" points="9.7,15.1 9.7,41.3 4.9,43.9 4.9,17.7 				"/>
			</g>
			<g>
				<g>
					<path class="st0" d="M19.4,20.3l4.9-2.6c0,0,7.9,2.8,4.9,13.1l-4.9,2.6C27.3,23.1,19.4,20.3,19.4,20.3z"/>
				</g>
			</g>
		</g>
		<g>
			<path class="st0" d="M3.3,0.2V1H2.2v3.5H1.3V1H0.2V0.2H3.3z"/>
			<path class="st0" d="M6.9,0.2h0.8v4.3H6.9V2.7H5.2v1.8H4.4V0.2h0.8V2h1.7V0.2z"/>
			<path class="st0" d="M10,3.8h2.1v0.8H9.2V0.2H12V1h-2v1h1.8v0.8H10V3.8z"/>
			<path class="st0" d="M15.6,0.2l1.4,4.3h-0.9l-0.3-0.9h-1.6L14,4.5h-0.9l1.4-4.3H15.6z M14.5,2.8h1.1l-0.5-1.5H15L14.5,2.8z"/>
			<path class="st0" d="M20.5,0.2V1h-1.2v3.5h-0.8V1h-1.2V0.2H20.5z"/>
			<path class="st0" d="M22.4,3.8h2.1v0.8h-2.9V0.2h2.8V1h-2v1h1.8v0.8h-1.8V3.8z"/>
			<path class="st0" d="M29,4.5h-0.9l-0.9-1.6h-0.5v1.6h-0.8V0.2h1.5c0.4,0,0.7,0.1,0.9,0.4c0.3,0.2,0.4,0.6,0.4,1
				c0,0.3-0.1,0.5-0.2,0.8c-0.1,0.2-0.3,0.4-0.6,0.5L29,4.5z M26.7,1v1.2h0.7c0.2,0,0.3-0.1,0.4-0.2c0.1-0.1,0.2-0.3,0.2-0.4
				c0-0.2-0.1-0.3-0.2-0.4C27.7,1,27.5,1,27.3,1H26.7z"/>
		</g>
		<g>
			<path class="st0" d="M33.9,10.3V9.4l1.6-0.9V8h-1.6V7.2h4.3v1.5c0,0.4-0.1,0.7-0.4,0.9c-0.2,0.3-0.6,0.4-1,0.4
				c-0.3,0-0.5-0.1-0.8-0.2c-0.2-0.1-0.4-0.3-0.5-0.6L33.9,10.3z M37.4,8h-1.2v0.7c0,0.2,0.1,0.3,0.2,0.4c0.1,0.1,0.3,0.2,0.4,0.2
				c0.2,0,0.3-0.1,0.4-0.2c0.1-0.1,0.2-0.2,0.2-0.4V8z"/>
			<path class="st0" d="M34.5,14.8c-0.4-0.4-0.6-0.9-0.6-1.5c0-0.6,0.2-1.1,0.6-1.5c0.4-0.4,0.9-0.6,1.6-0.6c0.6,0,1.1,0.2,1.6,0.6
				c0.4,0.4,0.6,0.9,0.6,1.5c0,0.6-0.2,1.1-0.6,1.5c-0.4,0.4-0.9,0.6-1.6,0.6C35.4,15.5,34.9,15.2,34.5,14.8z M35.1,12.5
				c-0.3,0.2-0.4,0.5-0.4,0.9s0.1,0.7,0.4,0.9c0.3,0.2,0.6,0.3,1,0.3c0.4,0,0.7-0.1,1-0.3c0.3-0.2,0.4-0.5,0.4-0.9s-0.1-0.7-0.4-0.9
				c-0.3-0.2-0.6-0.3-1-0.3C35.7,12.1,35.3,12.2,35.1,12.5z"/>
			<path class="st0" d="M38.2,19.4h-0.8v-1.2h-3.5v-0.8h3.5v-1.2h0.8V19.4z"/>
			<path class="st0" d="M38.2,23.4h-0.8v-1.2h-3.5v-0.8h3.5v-1.2h0.8V23.4z"/>
			<path class="st0" d="M34.7,25.3v2.1h-0.8v-2.9h4.3v2.8h-0.8v-2h-1v1.8h-0.8v-1.8H34.7z"/>
			<path class="st0" d="M33.9,31.8v-0.9l1.6-0.9v-0.5h-1.6v-0.8h4.3v1.5c0,0.4-0.1,0.7-0.4,0.9c-0.2,0.3-0.6,0.4-1,0.4
				c-0.3,0-0.5-0.1-0.8-0.2c-0.2-0.1-0.4-0.3-0.5-0.6L33.9,31.8z M37.4,29.5h-1.2v0.7c0,0.2,0.1,0.3,0.2,0.4
				c0.1,0.1,0.3,0.2,0.4,0.2c0.2,0,0.3-0.1,0.4-0.2c0.1-0.1,0.2-0.2,0.2-0.4V29.5z"/>
			<path class="st0" d="M38.2,34.4c0,0.6-0.2,1.1-0.6,1.5c-0.4,0.4-0.9,0.6-1.6,0.6c-0.7,0-1.2-0.2-1.6-0.6
				c-0.4-0.4-0.6-0.9-0.6-1.5V33h4.3V34.4z M34.7,34.4c0,0.4,0.1,0.7,0.4,0.9c0.2,0.2,0.6,0.4,1,0.4c0.4,0,0.7-0.1,1-0.4
				c0.2-0.2,0.3-0.6,0.3-0.9v-0.5h-2.7V34.4z"/>
			<path class="st0" d="M38.2,39.8l-4.3,1.4v-0.9l0.9-0.3v-1.6l-0.9-0.3v-0.9l4.3,1.4V39.8z M35.6,38.7v1.1l1.5-0.5v-0.1L35.6,38.7z
				"/>
			<path class="st0" d="M38.2,46.6h-4.3v-0.8h2.6v0l-2.3-0.8v-1l2.3-0.8v0h-2.6v-0.8h4.3v1l-3,1v0.1l3,1V46.6z"/>
		</g>
	</g>
</g>
<g>
	<path class="st0" d="M3.5,60.9c0,0.4-0.1,0.7-0.4,0.9c-0.3,0.2-0.7,0.3-1.1,0.3c-0.5,0-1-0.1-1.3-0.4c-0.3-0.3-0.5-0.6-0.5-1.1h0.6
		c0,0.3,0.1,0.5,0.3,0.7c0.2,0.2,0.4,0.3,0.8,0.3c0.3,0,0.5-0.1,0.7-0.2c0.2-0.1,0.3-0.3,0.3-0.5c0-0.2-0.1-0.4-0.2-0.5
		c-0.2-0.1-0.4-0.3-0.9-0.4c-0.4-0.1-0.8-0.3-1-0.5s-0.4-0.5-0.4-0.8c0-0.4,0.1-0.7,0.4-0.9c0.3-0.2,0.6-0.4,1.1-0.4
		c0.5,0,0.9,0.1,1.1,0.4c0.3,0.3,0.4,0.6,0.4,1H2.8c0-0.2-0.1-0.4-0.3-0.6s-0.4-0.2-0.7-0.2c-0.3,0-0.5,0.1-0.6,0.2S1,58.3,1,58.5
		c0,0.2,0.1,0.4,0.2,0.5c0.2,0.1,0.4,0.2,0.8,0.4c0.5,0.2,0.9,0.4,1.1,0.6C3.4,60.2,3.5,60.5,3.5,60.9z"/>
	<path class="st0" d="M7.3,62.1l-0.4-1.2H5l-0.4,1.2H4l1.6-4.7h0.8L8,62.1H7.3z M5.2,60.3h1.6L6,58H6L5.2,60.3z"/>
	<path class="st0" d="M13.4,57.3v4.7h-0.6v-3.8h-0.1l-1.4,3.4h-0.7l-1.4-3.4H9.3v3.8H8.7v-4.7h0.9l1.5,3.5h0.1l1.5-3.5H13.4z"/>
	<path class="st0" d="M15.2,61.5h2.4v0.6h-3v-4.7h3v0.6h-2.4v1.5h2.1v0.6h-2.1V61.5z"/>
	<path class="st0" d="M21.6,57.3h0.6v4.7h-0.7l-2.5-3.7H19v3.7h-0.6v-4.7h0.7l2.4,3.6h0.1V57.3z"/>
	<path class="st0" d="M29.7,57.3v4.7h-0.6v-3.8h-0.1l-1.4,3.4H27l-1.4-3.4h-0.1v3.8H25v-4.7h0.9l1.5,3.5h0.1l1.5-3.5H29.7z"/>
	<path class="st0" d="M31.5,61.5h2.4v0.6h-3v-4.7h3v0.6h-2.4v1.5h2.1v0.6h-2.1V61.5z"/>
	<path class="st0" d="M37.8,57.3v0.6h-1.4v4.1h-0.6v-4.1h-1.4v-0.6H37.8z"/>
</g>
</svg>
