<?xml version="1.0" encoding="utf-8"?>
<!-- Generator: Adobe Illustrator 24.3.0, SVG Export Plug-In . SVG Version: 6.00 Build 0)  -->
<svg version="1.1" id="Laag_1" xmlns="http://www.w3.org/2000/svg" xmlns:xlink="http://www.w3.org/1999/xlink" x="0px" y="0px"
	 width="501.2px" height="193.8px" viewBox="0 0 501.2 193.8" style="enable-background:new 0 0 501.2 193.8;" xml:space="preserve"
	>
<style type="text/css">
	.st0{fill:#FFFFFF;}
</style>
<g>
	<path class="st0" d="M39,31.4h34.3c0,2.1,0.1,5.1,0,7.2c-0.4,20.1-14.4,35-34.8,35C18.4,73.6,2.9,58.7,2.9,37c0-21.4,15.8-37,36-37
		c12.6,0,22.8,4.7,29.2,13.1l-12.9,9c-3.6-4.3-9.3-7.2-15.7-7.2c-11.7,0-19.9,7.4-19.9,21.8c0,14,9,22.4,19.2,22.4
		c9.2,0,16-4.7,18-13.9H39V31.4z"/>
	<path class="st0" d="M80.4,1.8h15.8v70.3H80.4V1.8z"/>
	<path class="st0" d="M133,17c16.5,0,30.2,10.5,30.2,28.4c0,17.9-13.4,28.2-30.4,28.2c-16.8,0-30-10.3-30-28
		C102.8,27.7,116.1,17,133,17z M132.9,60.5c8.1,0,13.7-5.5,13.7-15.2c0-9.9-5.7-15.3-13.5-15.3c-7.7,0-13.6,5.2-13.6,15.3
		C119.5,55.1,125,60.5,132.9,60.5z"/>
	<path class="st0" d="M203.2,73.7c-7.9,0-14-3.6-18.3-10v8.4h-15V1.8h15.8v23.7c4.4-5.4,10.3-8.2,17.5-8.2
		c14.1,0,26.4,9.7,26.4,28.4C229.6,64.3,216.6,73.7,203.2,73.7z M184.9,45.6v0.3c2.5,9,8.7,14.6,15.2,14.6c7.1,0,12.8-5.5,12.8-15
		c0-9.6-5.6-15.1-12.8-15.1C193.6,30.4,187.9,35.8,184.9,45.6z"/>
	<path class="st0" d="M260.1,17.2c7.8,0,13.9,2.9,18.3,8.7v-7.1h15.8v53.3h-15.8v-8.8c-4.3,6.4-10.4,10.1-18.3,10.1
		c-13.4,0-26.3-9.5-26.3-28S246,17.2,260.1,17.2z M263.2,60.3c6.9,0,12.6-6.1,15.2-15.1c-2.9-9.9-8.7-14.9-15.3-14.9
		c-7.1,0-12.7,5.3-12.7,14.9C250.4,54.7,256.1,60.3,263.2,60.3z"/>
	<path class="st0" d="M303.7,1.8h15.8v70.3h-15.8V1.8z"/>
	<path class="st0" d="M0,121.8h16.2L29,173l15.9-51.2h12.4l15.1,50.9l13.7-50.9h15.4l-20.8,70.3h-16l-14.1-46.4l-14.7,46.4H19.7
		L0,121.8z"/>
	<path class="st0" d="M125.5,137.2c7.8,0,13.9,2.9,18.3,8.7v-7.1h15.8v53.3h-15.8v-8.8c-4.3,6.4-10.4,10.1-18.3,10.1
		c-13.4,0-26.3-9.5-26.3-28S111.4,137.2,125.5,137.2z M128.6,180.3c6.9,0,12.6-6.1,15.2-15.1c-2.9-9.9-8.7-14.9-15.3-14.9
		c-7.1,0-12.7,5.3-12.7,14.9C115.8,174.7,121.5,180.3,128.6,180.3z"/>
	<path class="st0" d="M169.1,138.8h15.8v8.6c4.1-5.8,9.6-9.6,16.9-9.6c1.9,0,3.7,0.1,5.2,0.6l-2,13.3c-1.4-0.4-3.5-0.6-5.1-0.6
		c-5.9,0-11.5,4.5-15,13v28h-15.8V138.8z"/>
	<path class="st0" d="M233.5,137.2c7.5,0,13.5,2.7,17.9,8.2v-23.6h15.8v70.3h-15.4v-8.8c-4.3,6.4-10.4,10.1-18.3,10.1
		c-13.4,0-26.3-9.5-26.3-28S219.4,137.2,233.5,137.2z M236.5,180.3c7,0,12.7-6.1,15.3-15.1c-2.9-9.9-8.7-14.9-15.4-14.9
		c-7,0-12.6,5.3-12.6,14.9C223.8,174.7,229.5,180.3,236.5,180.3z"/>
	<path class="st0" d="M276.7,138.8h15.8v8.6c4.1-5.8,9.6-9.6,16.9-9.6c1.9,0,3.7,0.1,5.2,0.6l-2,13.3c-1.4-0.4-3.5-0.6-5.1-0.6
		c-5.9,0-11.5,4.5-15,13v28h-15.8V138.8z"/>
	<path class="st0" d="M344.7,137c16.5,0,30.2,10.5,30.2,28.4c0,17.9-13.4,28.2-30.4,28.2c-16.8,0-30-10.3-30-28
		C314.5,147.7,327.8,137,344.7,137z M344.6,180.5c8.1,0,13.7-5.5,13.7-15.2c0-9.9-5.7-15.3-13.5-15.3c-7.7,0-13.6,5.2-13.6,15.3
		C331.2,175.1,336.7,180.5,344.6,180.5z"/>
	<path class="st0" d="M414.9,193.7c-7.9,0-14-3.6-18.3-10v8.4h-15v-70.3h15.8v23.7c4.4-5.4,10.3-8.2,17.5-8.2
		c14.1,0,26.4,9.7,26.4,28.4C441.3,184.3,428.3,193.7,414.9,193.7z M396.6,165.6v0.3c2.5,9,8.7,14.6,15.2,14.6
		c7.1,0,12.8-5.5,12.8-15c0-9.6-5.6-15.1-12.8-15.1C405.3,150.4,399.6,155.8,396.6,165.6z"/>
	<path class="st0" d="M498.7,188.1c-6.6,3.6-13.5,5.7-23.7,5.7c-19.6,0-29.5-10.9-29.5-28.2c0-16.6,11.5-28.4,28.4-28.4
		c15.2,0,27.3,8.7,27.3,28.2c0,2-0.2,3.5-0.4,4.8h-38.6c1.4,7.4,6.5,11.2,15.7,11.2c6.9,0,12.3-1.3,18.3-4.3L498.7,188.1z
		 M462.1,161.2h22.8c-0.8-7.8-4.2-11.9-11.3-11.9C466.8,149.3,463,153.4,462.1,161.2z"/>
</g>
</svg>
