<?xml version="1.0" encoding="utf-8"?>
<!-- Generator: Adobe Illustrator 23.0.2, SVG Export Plug-In . SVG Version: 6.00 Build 0)  -->
<svg version="1.1" id="Laag_1" xmlns="http://www.w3.org/2000/svg" xmlns:xlink="http://www.w3.org/1999/xlink" x="0px" y="0px"
	 width="119.6px" height="11.4px" viewBox="0 0 119.6 11.4" style="enable-background:new 0 0 119.6 11.4;" xml:space="preserve">
<style type="text/css">
	.st0{fill:#FFFFFF;}
</style>
<g>
	<path class="st0" d="M0,2.8V2c0.7-0.3,1.4-0.8,2.1-1.4h0.8v9H2V1.5C1.5,2,0.8,2.4,0,2.8z"/>
	<path class="st0" d="M11,9.6V1H8V0.2h6.8V1h-3v8.6H11z"/>
	<path class="st0" d="M14.7,10.8L18,0.2h0.8l-3.4,10.6H14.7z"/>
	<path class="st0" d="M20.7,9.6h-0.8V0.2h1.3l3.5,8.2l3.6-8.2h1.3v9.4h-0.8V0.9l0,0l-3.6,8.6h-0.8l-3.6-8.6l0,0v8.7H20.7z"/>
	<path class="st0" d="M40.7,9.6h-5.6V8.7c0.4-0.4,0.8-0.8,1.2-1.2c0.4-0.4,0.9-0.9,1.5-1.5s1-1.2,1.4-1.8s0.5-1,0.5-1.4
		c0-0.5-0.2-0.9-0.5-1.2s-0.8-0.4-1.3-0.4s-1,0.2-1.3,0.5C36.2,2,36,2.4,36,3h-0.9c0-0.8,0.3-1.4,0.8-1.9s1.2-0.7,2-0.7
		s1.4,0.2,1.9,0.6s0.8,1,0.8,1.7c0,0.3-0.1,0.6-0.2,0.9c-0.1,0.3-0.3,0.7-0.5,1s-0.4,0.6-0.7,0.9s-0.5,0.6-0.8,1s-0.6,0.6-0.8,0.8
		c-0.2,0.2-0.5,0.5-0.8,0.8s-0.6,0.5-0.7,0.6h4.6C40.7,8.7,40.7,9.6,40.7,9.6z"/>
	<path class="st0" d="M48,0.6v0.8l-3.5,8.2h-1l3.6-8.2h-4.8V0.6H48z"/>
	<path class="st0" d="M60.5,1.3c0.7,0.9,1.1,2.1,1.1,3.6s-0.4,2.7-1.1,3.6c-0.7,0.9-1.8,1.3-3.1,1.3s-2.3-0.4-3.1-1.3
		c-0.7-0.9-1.1-2.1-1.1-3.6s0.4-2.7,1.1-3.6C55.1,0.4,56.1,0,57.5,0S59.8,0.4,60.5,1.3z M54.4,3.4c-0.1,0.5-0.2,1-0.2,1.5
		s0.1,1,0.2,1.5c0.1,0.5,0.3,0.9,0.6,1.3s0.6,0.7,1,0.9C56.4,8.9,56.9,9,57.5,9s1.1-0.1,1.5-0.3s0.8-0.5,1-0.9
		c0.3-0.4,0.4-0.8,0.6-1.3c0.1-0.5,0.2-1,0.2-1.5s-0.1-1-0.2-1.5C60.5,3,60.3,2.6,60,2.2s-0.6-0.7-1-0.9S58.1,1,57.5,1
		S56.4,1.1,56,1.3s-0.8,0.5-1,0.9S54.5,2.9,54.4,3.4z"/>
	<path class="st0" d="M64.7,9.6h-0.8V0.2h0.8v4.1l4.2-4.1H70l-4.3,4.2l4.7,5.1h-1.2l-4.5-4.9V9.6z"/>
	<path class="st0" d="M73.6,9.6V1h-3V0.2h6.8V1h-3v8.6H73.6z"/>
	<path class="st0" d="M85,1.3c0.7,0.9,1.1,2.1,1.1,3.6S85.7,7.6,85,8.5c-0.7,0.9-1.8,1.3-3.1,1.3s-2.3-0.4-3.1-1.3
		c-0.7-0.9-1.1-2.1-1.1-3.6s0.4-2.7,1.1-3.6S80.6,0,82,0S84.3,0.4,85,1.3z M78.9,3.4c-0.1,0.5-0.2,1-0.2,1.5s0.1,1,0.2,1.5
		s0.3,0.9,0.6,1.3c0.2,0.4,0.6,0.7,1,0.9C80.9,8.9,81.4,9,82,9s1.1-0.1,1.5-0.3s0.8-0.5,1-0.9s0.4-0.8,0.6-1.3
		c0.1-0.5,0.2-1,0.2-1.5s-0.1-1-0.2-1.5s-0.3-0.9-0.6-1.3s-0.6-0.7-1-0.9s-1-0.5-1.5-0.5c-0.6,0-1.1,0.1-1.5,0.3s-0.8,0.5-1,0.9
		C79.2,2.5,79,2.9,78.9,3.4z"/>
	<path class="st0" d="M91.9,9.6h-3.6V0.2h3.4c0.7,0,1.3,0.2,1.8,0.6s0.8,1,0.8,1.7c0,0.5-0.2,1-0.5,1.3S93,4.5,92.5,4.7l0,0
		c0.6,0.1,1.2,0.4,1.5,0.8c0.4,0.4,0.6,0.9,0.6,1.6s-0.2,1.3-0.7,1.8C93.5,9.3,92.8,9.6,91.9,9.6z M89.1,4.3h2
		c0.6,0,1.1-0.1,1.5-0.4s0.6-0.7,0.6-1.3C93.2,1.5,92.5,1,91,1h-2L89.1,4.3L89.1,4.3z M89.1,5.1v3.7h2.1c0.8,0,1.5-0.1,1.9-0.4
		c0.4-0.3,0.6-0.8,0.6-1.5c0-0.3-0.1-0.6-0.2-0.8s-0.2-0.4-0.4-0.5c-0.2-0.1-0.4-0.2-0.7-0.3S92,5.2,91.7,5.1c-0.3,0-0.6,0-1,0H89.1
		z"/>
	<path class="st0" d="M102.7,9.6H97V0.2h5.6V1h-4.7v3.4h4.5v0.8h-4.5v3.7h4.9v0.7H102.7z"/>
	<path class="st0" d="M105.7,5.1v4.5h-0.8V0.2h3.1c0.9,0,1.7,0.2,2.2,0.5c0.6,0.4,1,1,1,2c0,0.5-0.2,0.9-0.5,1.3s-0.8,0.6-1.3,0.7
		l0,0c0.6,0.1,0.9,0.3,1.1,0.6c0.2,0.3,0.4,0.8,0.4,1.4c0,0.3,0.1,0.6,0.1,1c0,0.4,0.1,0.7,0.1,0.8c0,0.2,0.1,0.3,0.1,0.5
		c0.1,0.2,0.1,0.4,0.2,0.5h-1c-0.1-0.4-0.3-1.1-0.3-1.9c0-0.4-0.1-0.7-0.1-0.9c0-0.2-0.1-0.4-0.1-0.7c-0.1-0.2-0.1-0.4-0.2-0.5
		s-0.2-0.2-0.3-0.3s-0.3-0.1-0.5-0.2c-0.2,0-0.4,0-0.7,0L105.7,5.1L105.7,5.1z M105.7,4.3h1.8c0.3,0,0.5,0,0.7,0s0.4,0,0.7-0.1
		c0.3-0.1,0.5-0.1,0.6-0.3c0.2-0.1,0.3-0.3,0.4-0.5s0.2-0.5,0.2-0.8c0-0.2,0-0.4-0.1-0.6c-0.1-0.2-0.1-0.3-0.2-0.4s-0.2-0.2-0.4-0.3
		c-0.2-0.1-0.3-0.1-0.4-0.2S108.9,1,108.7,1s-0.4,0-0.4,0s-0.2,0-0.4,0c-0.1,0-0.1,0-0.2,0h-1.9L105.7,4.3L105.7,4.3z"/>
</g>
</svg>
