<?xml version="1.0" encoding="utf-8"?>
<!-- Generator: Adobe Illustrator 24.3.0, SVG Export Plug-In . SVG Version: 6.00 Build 0)  -->
<svg version="1.1" id="Laag_1" xmlns="http://www.w3.org/2000/svg" xmlns:xlink="http://www.w3.org/1999/xlink" x="0px" y="0px"
	 width="313.3px" height="31.6px" viewBox="0 0 313.3 31.6" style="enable-background:new 0 0 313.3 31.6;" xml:space="preserve">
<style type="text/css">
	.st0{fill:#EAFF00;}
	.st1{fill:#55374C;}
</style>
<g>
	<g>
		<path class="st0" d="M11.1,2.9h1.6l-2.2,9.5H8.3L6.4,5.3H6.3l-1.9,7.1H2.2L0,2.9h1.6l1.7,7.8h0.2l1.9-7.1h2l1.9,7.1h0.2L11.1,2.9z
			"/>
		<path class="st0" d="M18.7,12.6c-1.4,0-2.5-0.5-3.5-1.4S13.9,9,13.9,7.6c0-1.4,0.5-2.6,1.4-3.5s2.1-1.4,3.4-1.4
			c1.4,0,2.5,0.5,3.5,1.4C23,5,23.5,6.2,23.5,7.6c0,1.4-0.4,2.6-1.3,3.5C21.3,12.1,20.1,12.6,18.7,12.6z M18.7,11.1
			c0.9,0,1.7-0.3,2.3-1c0.6-0.7,0.9-1.5,0.9-2.4c0-1-0.3-1.8-0.9-2.4c-0.6-0.7-1.3-1-2.3-1c-0.9,0-1.7,0.3-2.2,1
			c-0.6,0.7-0.9,1.5-0.9,2.4c0,1,0.3,1.8,0.9,2.4C17,10.7,17.8,11.1,18.7,11.1z"/>
		<path class="st0" d="M36.7,5.9c0.6,0.2,1.2,0.6,1.5,1.1c0.4,0.5,0.6,1.2,0.6,1.9c0,1.1-0.4,1.9-1.1,2.6s-1.7,1-3,1
			c-1.3,0-2.3-0.3-3-1s-1.1-1.6-1.2-2.7h1.7c0.1,0.6,0.3,1.1,0.7,1.6c0.4,0.4,1,0.6,1.7,0.6c0.7,0,1.3-0.2,1.7-0.6S37,9.5,37,8.8
			c0-0.6-0.2-1.2-0.6-1.6s-1-0.6-1.8-0.6h-0.6V5.2h0.6c0.6,0,1.1-0.2,1.5-0.5c0.4-0.4,0.6-0.8,0.6-1.3c0-0.5-0.2-1-0.5-1.3
			c-0.4-0.3-0.8-0.5-1.4-0.5c-0.6,0-1.1,0.2-1.4,0.5c-0.4,0.3-0.6,0.8-0.6,1.3H31c0-1,0.4-1.8,1.1-2.4S33.7,0,34.8,0
			c1,0,1.9,0.3,2.5,0.9c0.7,0.6,1,1.3,1,2.2c0,1.2-0.5,2.1-1.6,2.7V5.9z"/>
		<path class="st0" d="M5.4,21.7c1,0,1.9,0.3,2.5,1c0.7,0.7,1,1.7,1,3v5.7H7.1V26c0-0.9-0.2-1.6-0.6-2.1c-0.4-0.5-1-0.7-1.7-0.7
			c-0.6,0-1.2,0.2-1.6,0.7c-0.5,0.5-0.7,1.1-0.7,2v5.5H0.7v-9.5H2l0.3,1.2h0.2C3.1,22.1,4,21.7,5.4,21.7z"/>
		<path class="st0" d="M15.6,31.6c-1.4,0-2.5-0.5-3.5-1.4s-1.4-2.1-1.4-3.6c0-1.4,0.5-2.6,1.4-3.5s2.1-1.4,3.4-1.4
			c1.4,0,2.5,0.5,3.5,1.4c0.9,0.9,1.4,2.1,1.4,3.5c0,1.4-0.4,2.6-1.3,3.5C18.1,31.1,17,31.6,15.6,31.6z M15.6,30.1
			c0.9,0,1.7-0.3,2.3-1c0.6-0.7,0.9-1.5,0.9-2.4c0-1-0.3-1.8-0.9-2.4c-0.6-0.7-1.3-1-2.3-1c-0.9,0-1.7,0.3-2.2,1
			c-0.6,0.7-0.9,1.5-0.9,2.4c0,1,0.3,1.8,0.9,2.4C13.9,29.7,14.6,30.1,15.6,30.1z"/>
		<path class="st0" d="M28.6,21.9h1.8l-3.4,9.5h-2.4L21,21.9h1.8l2.8,8h0.2L28.6,21.9z"/>
	</g>
	<g>
		<path class="st0" d="M283.2,10.9h4.9v1.4h-7.1v-1l4.8-6.9V4.3h-4.5V2.9h6.8v1l-4.8,6.9V10.9z"/>
		<path class="st0" d="M298.2,10.7l0.6,1c-0.1,0.2-0.3,0.4-0.5,0.5c-0.2,0.2-0.5,0.3-0.9,0.3c-0.5,0-0.9-0.1-1.2-0.4
			c-0.3-0.3-0.5-0.6-0.5-1c-0.8,1-1.9,1.4-3.2,1.4c-0.9,0-1.7-0.2-2.3-0.7s-0.9-1.1-0.9-2c0-1,0.4-1.7,1.1-2.2
			c0.8-0.5,1.8-0.8,3.2-0.9l1.8-0.2V6.4c0-0.7-0.2-1.3-0.5-1.7c-0.3-0.4-0.8-0.6-1.5-0.6c-0.6,0-1.1,0.2-1.5,0.6s-0.6,0.8-0.6,1.3
			h-1.6c0.1-0.9,0.4-1.7,1.1-2.3s1.5-0.9,2.6-0.9c1.1,0,2,0.3,2.6,1c0.7,0.7,1,1.6,1,2.8v3.7c0,0.7,0.2,1,0.6,1
			C297.8,11.2,298,11,298.2,10.7z M292.7,11.2c0.7,0,1.4-0.2,1.9-0.7s0.8-1.1,0.8-2V7.9L293.8,8c-0.9,0.1-1.6,0.3-2.1,0.6
			S291,9.3,291,9.8c0,0.5,0.2,0.8,0.5,1C291.8,11.1,292.2,11.2,292.7,11.2z"/>
		<path class="st0" d="M309.2,4.7c0.9,0,1.8,0.4,2.5,1.1c0.7,0.7,1.1,1.6,1.1,2.8c0,1.2-0.4,2.1-1.2,2.9c-0.8,0.7-1.8,1.1-3,1.1
			c-1.2,0-2.2-0.4-3-1.1s-1.1-1.8-1.1-3c0-0.7,0.1-1.3,0.4-1.9c0.3-0.6,0.7-1.3,1.2-2.1l2.6-4.1h2l-3.3,5
			C307.8,4.9,308.5,4.7,309.2,4.7z M308.7,11.1c0.7,0,1.3-0.2,1.8-0.7s0.7-1.1,0.7-1.8c0-0.7-0.2-1.3-0.7-1.8
			c-0.4-0.5-1-0.7-1.8-0.7c-0.7,0-1.3,0.2-1.8,0.7c-0.4,0.5-0.7,1.1-0.7,1.8s0.2,1.3,0.7,1.8S308,11.1,308.7,11.1z"/>
		<path class="st0" d="M288.3,21.7c1,0,1.9,0.3,2.5,1c0.7,0.7,1,1.7,1,3v5.7h-1.7V26c0-0.9-0.2-1.6-0.6-2.1s-1-0.7-1.7-0.7
			c-0.6,0-1.2,0.2-1.6,0.7c-0.4,0.5-0.7,1.1-0.7,2v5.5h-1.7v-9.5h1.3l0.3,1.2h0.2C286,22.1,287,21.7,288.3,21.7z"/>
		<path class="st0" d="M298.6,31.6c-1.4,0-2.5-0.5-3.5-1.4s-1.4-2.1-1.4-3.6c0-1.4,0.5-2.6,1.4-3.5c0.9-0.9,2.1-1.4,3.4-1.4
			c1.4,0,2.5,0.5,3.5,1.4s1.4,2.1,1.4,3.5c0,1.4-0.4,2.6-1.3,3.5C301.1,31.1,300,31.6,298.6,31.6z M298.5,30.1c0.9,0,1.7-0.3,2.3-1
			s0.9-1.5,0.9-2.4c0-1-0.3-1.8-0.9-2.4c-0.6-0.7-1.3-1-2.2-1c-0.9,0-1.7,0.3-2.2,1c-0.6,0.7-0.9,1.5-0.9,2.4c0,1,0.3,1.8,0.9,2.4
			C296.9,29.7,297.6,30.1,298.5,30.1z"/>
		<path class="st0" d="M311.5,21.9h1.8l-3.4,9.5h-2.4l-3.4-9.5h1.8l2.8,8h0.2L311.5,21.9z"/>
	</g>
	<rect x="44.8" y="6" class="st1" width="232" height="1.5"/>
</g>
</svg>
