<?xml version="1.0" encoding="utf-8"?>
<!-- Generator: Adobe Illustrator 24.3.0, SVG Export Plug-In . SVG Version: 6.00 Build 0)  -->
<svg version="1.1" id="Laag_1" xmlns="http://www.w3.org/2000/svg" xmlns:xlink="http://www.w3.org/1999/xlink" x="0px" y="0px"
	 width="486px" height="94.1px" viewBox="0 0 486 94.1" style="enable-background:new 0 0 486 94.1;" xml:space="preserve">
<style type="text/css">
	.st0{fill:#FFFFFF;}
</style>
<g>
	<path class="st0" d="M436.2,78l2.4-0.2c4.5,6.7,7.5,11.7,8.9,14.8c0.3,0.7,0.5,1,0.8,1h6.7c0.3,0,0.5-0.1,0.5-0.4v-0.9
		c0-0.3-0.3-0.4-0.8-0.5c-0.7-0.1-1.1-0.2-1.5-0.5c-0.6-0.4-1.8-2-3.8-4.9c-2-2.9-4-6-6.1-9.3c2.3-0.6,4.1-1.6,5.4-3
		c1.3-1.4,1.9-3,1.9-4.9c0-1.4-0.4-2.7-1.3-4c-0.8-1.3-2-2.2-3.6-2.8c-1.5-0.6-3.2-0.9-4.9-0.9h-15.3c-0.3,0-0.5,0.1-0.5,0.3v0.8
		c0,0.4,0.3,0.6,0.9,0.6c1.2,0,2.1,0.1,2.5,0.2c0.5,0.2,0.8,0.7,0.9,1.6c0.1,0.9,0.2,2.7,0.2,5.3v13.5c0,1.8,0,3.3-0.1,4.6
		c-0.1,1.3-0.2,2.2-0.3,2.6c-0.2,0.5-1.2,0.7-3.1,0.7c-0.6,0-1,0.2-1,0.6v0.9c0,0.2,0.1,0.3,0.4,0.3h13.4c0.3,0,0.5-0.1,0.5-0.3
		v-1.1c0-0.2-0.2-0.4-0.6-0.4c-1.1,0-2,0-2.6-0.1c-0.6-0.1-1-0.2-1.2-0.3c-0.5-0.3-0.7-2.4-0.7-6.3V78H436.2z M437.1,63.3
		c2.2,0,3.9,0.2,5,0.6c1.1,0.4,1.9,1.1,2.4,2.1c0.5,1,0.8,2.1,0.8,3.3c0,2.3-0.9,4-2.6,5.1c-1.7,1.1-4.4,1.7-8,1.7h-0.6V63.3
		L437.1,63.3z M404.6,68l0.1-2.2l0.1-2.2h11.3c1,0,1.8,0.3,2.2,0.8c0.4,0.6,0.6,1.7,0.6,3.5c0,0.4,0.1,0.5,0.4,0.5h1.1
		c0.2,0,0.2-0.2,0.2-0.6v-5.8c0-0.3-0.2-0.5-0.6-0.5h-24.5c-0.4,0-0.6,0.1-0.6,0.3V63c0,0.2,0.3,0.3,0.8,0.3c1.7,0,2.8,0.3,3.4,0.8
		c0.6,0.5,0.8,1.9,0.8,4.2V84c0,2.7-0.1,4.7-0.4,5.9c-0.1,0.6-0.2,1-0.4,1.2c-0.2,0.2-0.6,0.4-1.3,0.5c-0.7,0.2-1.5,0.2-2.4,0.2
		c-0.4,0-0.6,0.1-0.6,0.3v1c0,0.3,0.1,0.4,0.3,0.4h25.8c0.2,0,0.3-0.1,0.3-0.3v-7.1c0-0.3-0.1-0.4-0.3-0.4H420
		c-0.2,0-0.3,0.2-0.3,0.7c0,0.9,0,1.7-0.1,2.3c-0.1,0.7-0.2,1.2-0.4,1.5c-0.2,0.3-0.6,0.6-1.2,0.8c-1.2,0.3-3.1,0.5-5.6,0.5h-7.5
		c-0.1-2.2-0.2-4.4-0.2-6.6v-7h9.4c1.4,0,2.3,0.3,2.8,0.8c0.5,0.5,0.7,1.6,0.7,3.1c0,0.4,0.1,0.6,0.3,0.6h1c0.3,0,0.4-0.2,0.4-0.5
		V71.8c0-0.4-0.1-0.5-0.4-0.5h-0.9c-0.3,0-0.5,0.3-0.5,0.9c0,1.6-0.3,2.6-0.8,3.1c-0.5,0.5-1.6,0.7-3.3,0.7h-8.7V68z M362.5,62.2
		v7.9c0,0.2,0.1,0.3,0.3,0.3h0.9c0.3,0,0.4-0.3,0.5-1c0.2-1.4,0.4-2.5,0.6-3.3c0.2-0.7,0.5-1.3,0.8-1.6c0.3-0.3,0.9-0.4,1.7-0.4h7.4
		v20.4c0,2.2-0.2,3.9-0.5,5.3c-0.2,0.7-0.4,1.2-0.6,1.4c-0.3,0.2-0.7,0.4-1.3,0.5c-0.6,0.1-1.6,0.2-2.9,0.2c-0.3,0-0.5,0.1-0.5,0.4
		v0.9c0,0.3,0.1,0.4,0.4,0.4h15.3c0.2,0,0.3-0.1,0.3-0.3v-1.2c0-0.2-0.2-0.3-0.7-0.3c-1.4,0-2.3-0.1-2.9-0.2c-0.6-0.1-1-0.3-1.3-0.5
		c-0.5-0.5-0.7-3.2-0.7-8.2V64.1h7.3c1,0,1.7,0.3,2,0.8c0.3,0.5,0.7,2.1,1.1,4.8c0.1,0.4,0.1,0.6,0.1,0.6c0,0.1,0.1,0.1,0.2,0.1h1.1
		c0.2,0,0.3-0.2,0.3-0.5V62c0-0.3-0.2-0.5-0.5-0.5h-28.1C362.6,61.5,362.5,61.8,362.5,62.2 M329.9,87.3c-1.4,3-2.8,4.5-4,4.5h-0.7
		c-0.2,0-0.4,0.1-0.4,0.4v0.8c0,0.3,0.1,0.5,0.2,0.5h10.7c0.2,0,0.3-0.1,0.3-0.4v-0.8c0-0.3-0.2-0.5-0.5-0.5h-1.2
		c-1.5,0-2.3-0.6-2.3-1.7c0-0.4,0.1-0.8,0.3-1.3l2.3-5.5H349l1.9,4.8c0.3,0.8,0.5,1.5,0.5,2c0,1.1-0.8,1.7-2.4,1.7h-1.3
		c-0.3,0-0.4,0.1-0.4,0.4v0.8c0,0.3,0.1,0.5,0.4,0.5h12.6c0,0,0.1,0,0.2-0.1c0.1,0,0.1,0,0.1,0l0.2-0.2v-1.1c0-0.2-0.1-0.3-0.4-0.3
		h-0.7c-0.4,0-0.8-0.2-1.2-0.5c-0.4-0.3-0.8-0.8-1.2-1.6c-0.4-0.8-1.7-3.4-3.7-7.7l-9.2-21.1h-2.1L329.9,87.3z M348.1,81.3h-12.4
		l6.3-14.4L348.1,81.3z M304.2,68l0.1-2.2l0.1-2.2h11.3c1,0,1.8,0.3,2.2,0.8c0.4,0.6,0.6,1.7,0.6,3.5c0,0.4,0.1,0.5,0.4,0.5h1.1
		c0.2,0,0.2-0.2,0.2-0.6v-5.8c0-0.3-0.2-0.5-0.6-0.5h-24.5c-0.4,0-0.6,0.1-0.6,0.3V63c0,0.2,0.3,0.3,0.8,0.3c1.7,0,2.8,0.3,3.4,0.8
		c0.6,0.5,0.8,1.9,0.8,4.2V84c0,2.7-0.1,4.7-0.4,5.9c-0.1,0.6-0.2,1-0.4,1.2c-0.2,0.2-0.6,0.4-1.3,0.5c-0.7,0.2-1.5,0.2-2.4,0.2
		c-0.4,0-0.6,0.1-0.6,0.3v1c0,0.3,0.1,0.4,0.3,0.4h25.8c0.2,0,0.3-0.1,0.3-0.3v-7.1c0-0.3-0.1-0.4-0.3-0.4h-1.1
		c-0.2,0-0.3,0.2-0.3,0.7c0,0.9,0,1.7-0.1,2.3c-0.1,0.7-0.2,1.2-0.4,1.5c-0.2,0.3-0.6,0.6-1.2,0.8c-1.2,0.3-3.1,0.5-5.6,0.5h-7.5
		c-0.1-2.2-0.2-4.4-0.2-6.6v-7h9.4c1.4,0,2.3,0.3,2.8,0.8c0.5,0.5,0.7,1.6,0.7,3.1c0,0.4,0.1,0.6,0.3,0.6h1c0.3,0,0.4-0.2,0.4-0.5
		V71.8c0-0.4-0.1-0.5-0.4-0.5h-0.9c-0.3,0-0.5,0.3-0.5,0.9c0,1.6-0.3,2.6-0.8,3.1c-0.5,0.5-1.6,0.7-3.3,0.7h-8.7V68z M259.4,90.6
		c-0.1,0.4-0.2,0.6-0.4,0.8c-0.1,0.1-0.5,0.3-1,0.3c-0.6,0.1-1.5,0.1-2.8,0.1c-0.3,0-0.5,0.1-0.5,0.4v1c0,0.2,0.1,0.3,0.2,0.3h14.3
		c0.2,0,0.3-0.1,0.3-0.4v-0.9c0-0.3-0.2-0.5-0.5-0.5c-0.1,0-0.2,0-0.2,0c-0.9,0-1.6,0-2.2-0.1c-0.6-0.1-1-0.2-1.2-0.3
		c-0.6-0.4-0.9-2.5-0.9-6.4v-7h16.9v7.6c0,2.2-0.1,3.8-0.2,4.8c-0.1,0.3-0.1,0.6-0.2,0.7c-0.1,0.2-0.4,0.4-0.9,0.6
		c-0.5,0.1-1.5,0.2-3.2,0.2c-0.3,0-0.5,0.1-0.5,0.4v1.1c0,0.1,0.1,0.2,0.3,0.2h14c0.3,0,0.4-0.2,0.4-0.5v-0.9c0-0.2-0.3-0.3-0.8-0.3
		c-0.7,0-1.4,0-1.9-0.1c-0.5-0.1-1-0.2-1.3-0.3c-0.3-0.1-0.5-0.5-0.7-1c-0.3-1-0.4-1.9-0.4-2.8V69.6c0-1.7,0.1-3,0.2-3.9
		c0.1-0.9,0.3-1.6,0.6-1.8c0.4-0.4,1.6-0.6,3.6-0.6c0.5,0,0.7-0.1,0.7-0.4v-1.1c0-0.2-0.2-0.2-0.6-0.2h-13.8c-0.2,0-0.3,0.1-0.3,0.4
		v1c0,0.2,0.3,0.3,0.8,0.3c1.2,0,2.1,0.1,2.7,0.2c0.6,0.2,1,0.5,1.1,1c0.3,0.8,0.4,2.3,0.4,4.6v6.4h-16.9v-5.1
		c0-1.8,0.1-3.3,0.2-4.4c0.1-1.1,0.3-1.9,0.6-2.2c0.3-0.4,1.5-0.6,3.7-0.6c0.4,0,0.6-0.2,0.6-0.5v-0.9c0-0.2-0.1-0.3-0.4-0.3h-13.9
		c-0.3,0-0.4,0-0.4,0.1c0,0.1-0.1,0.2-0.1,0.3v0.8c0,0.2,0.1,0.3,0.2,0.4c0.1,0.1,0.4,0.1,0.8,0.1c1.4,0,2.4,0.1,2.9,0.2
		c0.5,0.2,0.8,0.5,0.9,0.9c0.2,0.8,0.4,3,0.4,6.8v16.3C259.7,88.7,259.6,89.8,259.4,90.6 M221.8,62.2v7.9c0,0.2,0.1,0.3,0.3,0.3h0.9
		c0.3,0,0.4-0.3,0.5-1c0.2-1.4,0.4-2.5,0.6-3.3c0.2-0.7,0.5-1.3,0.8-1.6c0.3-0.3,0.9-0.4,1.7-0.4h7.4v20.4c0,2.2-0.2,3.9-0.5,5.3
		c-0.2,0.7-0.4,1.2-0.6,1.4c-0.3,0.2-0.7,0.4-1.3,0.5c-0.6,0.1-1.6,0.2-2.9,0.2c-0.3,0-0.5,0.1-0.5,0.4v0.9c0,0.3,0.1,0.4,0.4,0.4
		h15.3c0.2,0,0.3-0.1,0.3-0.3v-1.2c0-0.2-0.2-0.3-0.7-0.3c-1.4,0-2.3-0.1-2.9-0.2c-0.6-0.1-1-0.3-1.3-0.5c-0.5-0.5-0.7-3.2-0.7-8.2
		V64.1h7.3c1,0,1.7,0.3,2,0.8c0.3,0.5,0.7,2.1,1.1,4.8c0.1,0.4,0.1,0.6,0.1,0.6c0,0.1,0.1,0.1,0.2,0.1h1.1c0.2,0,0.3-0.2,0.3-0.5V62
		c0-0.3-0.2-0.5-0.5-0.5h-28.1C221.9,61.5,221.8,61.8,221.8,62.2 M175.3,62.2v7.9c0,0.2,0.1,0.3,0.3,0.3h0.9c0.3,0,0.4-0.3,0.5-1
		c0.2-1.4,0.4-2.5,0.6-3.3c0.2-0.7,0.5-1.3,0.8-1.6c0.3-0.3,0.9-0.4,1.7-0.4h7.4v20.4c0,2.2-0.2,3.9-0.5,5.3
		c-0.2,0.7-0.4,1.2-0.6,1.4c-0.3,0.2-0.7,0.4-1.3,0.5c-0.6,0.1-1.6,0.2-2.9,0.2c-0.3,0-0.5,0.1-0.5,0.4v0.9c0,0.3,0.1,0.4,0.4,0.4
		h15.3c0.2,0,0.3-0.1,0.3-0.3v-1.2c0-0.2-0.2-0.3-0.7-0.3c-1.4,0-2.3-0.1-2.9-0.2c-0.6-0.1-1-0.3-1.3-0.5c-0.5-0.5-0.7-3.2-0.7-8.2
		V64.1h7.3c1,0,1.7,0.3,2,0.8c0.3,0.5,0.7,2.1,1.1,4.8c0.1,0.4,0.1,0.6,0.1,0.6c0,0.1,0.1,0.1,0.2,0.1h1.1c0.2,0,0.3-0.2,0.3-0.5V62
		c0-0.3-0.2-0.5-0.5-0.5h-28.1C175.4,61.5,175.3,61.8,175.3,62.2 M154.2,68l0.1-2.2l0.1-2.2h11.3c1,0,1.8,0.3,2.2,0.8
		c0.4,0.6,0.6,1.7,0.6,3.5c0,0.4,0.1,0.5,0.4,0.5h1.1c0.2,0,0.2-0.2,0.2-0.6v-5.8c0-0.3-0.2-0.5-0.6-0.5h-24.5
		c-0.4,0-0.6,0.1-0.6,0.3V63c0,0.2,0.3,0.3,0.8,0.3c1.7,0,2.8,0.3,3.4,0.8c0.6,0.5,0.8,1.9,0.8,4.2V84c0,2.7-0.1,4.7-0.4,5.9
		c-0.1,0.6-0.2,1-0.4,1.2c-0.2,0.2-0.6,0.4-1.3,0.5c-0.7,0.2-1.5,0.2-2.4,0.2c-0.4,0-0.6,0.1-0.6,0.3v1c0,0.3,0.1,0.4,0.3,0.4h25.8
		c0.2,0,0.3-0.1,0.3-0.3v-7.1c0-0.3-0.1-0.4-0.3-0.4h-1.1c-0.2,0-0.3,0.2-0.3,0.7c0,0.9-0.1,1.7-0.2,2.3c-0.1,0.7-0.2,1.2-0.4,1.5
		c-0.2,0.3-0.6,0.6-1.2,0.8c-1.2,0.3-3.1,0.5-5.6,0.5h-7.5c-0.1-2.2-0.2-4.4-0.2-6.6v-7h9.4c1.4,0,2.3,0.3,2.8,0.8s0.7,1.6,0.7,3.1
		c0,0.4,0.1,0.6,0.3,0.6h1c0.3,0,0.4-0.2,0.4-0.5V71.8c0-0.4-0.1-0.5-0.4-0.5h-0.9c-0.3,0-0.5,0.3-0.5,0.9c0,1.6-0.3,2.6-0.8,3.1
		c-0.5,0.5-1.6,0.7-3.3,0.7h-8.7V68z M110.2,90.6c-0.1,0.4-0.2,0.6-0.4,0.8c-0.1,0.1-0.5,0.3-1,0.3c-0.6,0.1-1.5,0.1-2.8,0.1
		c-0.3,0-0.5,0.1-0.5,0.4v1c0,0.2,0.1,0.3,0.2,0.3H120c0.2,0,0.3-0.1,0.3-0.4v-0.9c0-0.3-0.2-0.5-0.5-0.5c-0.1,0-0.2,0-0.2,0
		c-0.9,0-1.6,0-2.2-0.1c-0.6-0.1-1-0.2-1.2-0.3c-0.6-0.4-0.9-2.5-0.9-6.4v-7h16.9v7.6c0,2.2-0.1,3.8-0.2,4.8
		c-0.1,0.3-0.1,0.6-0.2,0.7c-0.1,0.2-0.4,0.4-0.9,0.6c-0.5,0.1-1.6,0.2-3.2,0.2c-0.3,0-0.5,0.1-0.5,0.4v1.1c0,0.1,0.1,0.2,0.3,0.2
		h14c0.3,0,0.4-0.2,0.4-0.5v-0.9c0-0.2-0.3-0.3-0.8-0.3c-0.7,0-1.4,0-1.9-0.1c-0.5-0.1-1-0.2-1.3-0.3c-0.3-0.1-0.5-0.5-0.7-1
		c-0.3-1-0.4-1.9-0.4-2.8V69.6c0-1.7,0.1-3,0.2-3.9c0.1-0.9,0.3-1.6,0.6-1.8c0.4-0.4,1.6-0.6,3.6-0.6c0.5,0,0.7-0.1,0.7-0.4v-1.1
		c0-0.2-0.2-0.2-0.6-0.2h-13.8c-0.2,0-0.3,0.1-0.3,0.4v1c0,0.2,0.3,0.3,0.8,0.3c1.2,0,2.1,0.1,2.7,0.2c0.6,0.2,1,0.5,1.1,1
		c0.3,0.8,0.4,2.3,0.4,4.6v6.4h-16.9v-5.1c0-1.8,0.1-3.3,0.2-4.4s0.3-1.9,0.6-2.2c0.3-0.4,1.5-0.6,3.7-0.6c0.4,0,0.6-0.2,0.6-0.5
		v-0.9c0-0.2-0.1-0.3-0.4-0.3H106c-0.3,0-0.4,0-0.4,0.1c0,0.1-0.1,0.2-0.1,0.3v0.8c0,0.2,0.1,0.3,0.2,0.4c0.1,0.1,0.4,0.1,0.8,0.1
		c1.4,0,2.4,0.1,2.9,0.2c0.5,0.2,0.8,0.5,0.9,0.9c0.2,0.8,0.4,3,0.4,6.8v16.3C110.6,88.7,110.4,89.8,110.2,90.6 M58,90.3
		c-0.2,0.6-0.5,1-1.1,1.2c-0.5,0.2-1.5,0.3-3.1,0.3c-0.5,0-0.7,0.2-0.7,0.7v0.6c0,0.3,0.1,0.4,0.4,0.4h12.3c0.2,0,0.3-0.1,0.3-0.3
		v-0.8c0-0.4-0.3-0.5-0.8-0.5c-1.1,0-2-0.1-2.5-0.2c-0.5-0.1-0.9-0.3-1.2-0.5c-0.5-0.5-0.8-2.6-0.8-6.2V66.5l3.7,4.3l14,18.3
		l2.4,3.2l1.2,1.7h2c0.2,0,0.3-0.2,0.3-0.5V68.7c0-2.3,0.1-3.8,0.3-4.5c0.1-0.4,0.4-0.7,1-0.8s1.5-0.2,2.8-0.2
		c0.5,0,0.7-0.1,0.7-0.4V62c0-0.3-0.1-0.5-0.4-0.5H77.1c-0.4,0-0.6,0.1-0.6,0.4v0.8c0,0.2,0.1,0.4,0.2,0.4c0.1,0.1,0.5,0.1,1,0.1
		c1.5,0,2.4,0.1,3,0.2c0.5,0.2,0.9,0.6,1,1.4c0.2,0.8,0.2,2,0.2,3.8v16.8l-4-5.1l-11.4-15l-2.9-4h-10c-0.2,0-0.4,0.2-0.4,0.6v0.7
		c0,0.2,0,0.4,0.1,0.4c0.1,0.1,0.2,0.1,0.5,0.1c2.4,0,3.8,0.3,4.1,0.8c0.3,0.6,0.4,2.1,0.4,4.6v18.5C58.3,88.7,58.2,89.8,58,90.3
		 M35.3,61.8v1.1c0,0.2,0.3,0.3,1,0.3c1.2,0,2.2,0.1,2.8,0.2c0.7,0.2,1.1,0.5,1.3,0.9c0.2,0.4,0.3,1.3,0.3,2.7v15.6
		c0,2.6,0,4.6-0.1,5.8c-0.1,1.3-0.2,2.1-0.4,2.5c-0.3,0.5-1.6,0.8-4.1,0.8c-0.1,0-0.1,0-0.2,0c-0.3,0-0.5,0.1-0.5,0.4v0.9
		c0,0.3,0.1,0.4,0.3,0.4h14.6c0.2,0,0.3,0,0.4-0.1c0,0,0.1-0.2,0.1-0.5v-0.8c0-0.2-0.2-0.3-0.6-0.3c-1.8,0-3-0.1-3.5-0.2
		c-0.5-0.2-0.8-0.5-0.9-0.9c-0.2-0.8-0.3-2.2-0.3-4.2V69.4c0-1.7,0-2.9,0.1-3.7c0.1-0.8,0.3-1.3,0.5-1.6c0.4-0.6,1.8-0.9,4-0.9
		c0.5,0,0.8-0.1,0.8-0.3v-1c0-0.3-0.2-0.4-0.5-0.4H35.8C35.5,61.5,35.3,61.6,35.3,61.8"/>
	<path class="st0" d="M454.7,0.9v0.9c0,0.2,0.2,0.3,0.7,0.3c1.9,0,3,0.3,3.4,0.9c0.4,0.6,0.6,1.9,0.6,4v18.3c0,1.8-0.1,3.1-0.4,3.7
		c-0.2,0.7-0.6,1.1-1.2,1.4c-0.6,0.3-1.4,0.4-2.5,0.4h-1c-0.2,0-0.3,0-0.3,0.1c0,0,0,0.2,0,0.4v1c0,0.2,0.1,0.3,0.4,0.3h13.9
		c0.5,0,0.8-0.1,0.8-0.2v-1.1c0-0.3-0.1-0.4-0.3-0.4h-1.4c-1.4,0-2.3-0.3-2.9-1c-0.5-0.7-0.8-2-0.8-4V3.7c0-0.8,0-1.7,0.1-2.6
		c0-0.4,0.1-0.6,0.1-0.7c0-0.3-0.1-0.5-0.4-0.5c-0.1,0-0.2,0-0.5,0.1c-1.9,0.3-3.8,0.5-5.5,0.5h-2.3C454.9,0.5,454.7,0.6,454.7,0.9
		 M427.7,7.3c0.1,0,0.3-0.1,0.5-0.4c1.7-2.5,3.9-3.8,6.7-3.8c1.7,0,3.1,0.6,4.3,1.9s1.7,2.8,1.7,4.6c0,2.5-1.1,5.3-3.4,8.4
		c-2.2,3.1-5.6,6.5-10,10.2c-0.9,0.7-1.6,1.4-2.1,1.8v2.1c0,0.2,0.1,0.3,0.4,0.3H446c0.2,0,0.3-0.2,0.3-0.6v-6.2
		c0-0.3-0.1-0.4-0.2-0.4H445c-0.3,0-0.4,0.2-0.4,0.5c0,0.4,0,0.8-0.1,1.1c-0.1,0.3-0.2,0.6-0.3,0.8c-0.5,0.6-2.5,1-6.2,1h-8.2v-0.1
		c2-1.5,4.5-3.7,7.6-6.6c3-2.9,5.2-5.4,6.4-7.5c1.2-2.1,1.8-4.2,1.8-6.3c0-2.5-0.8-4.5-2.5-6.1c-1.7-1.6-3.9-2.3-6.5-2.3
		c-2.7,0-5.1,0.8-7.1,2.5c-0.8,0.7-1.5,1.5-2.1,2.4c-0.6,0.9-0.9,1.5-0.9,1.9c0,0.1,0,0.1,0.1,0.2l1,0.5
		C427.6,7.3,427.7,7.3,427.7,7.3 M404.2,27.5c-1.2-2.6-1.8-6.4-1.8-11.5c0-9.5,2.2-14.3,6.7-14.3c4.7,0,7,5.3,7,15.8
		c0,4.5-0.6,7.9-1.8,10.3c-1.2,2.4-2.9,3.6-5,3.6C407.1,31.4,405.4,30.1,404.2,27.5 M417.6,28.3c2.3-3.3,3.5-7.6,3.5-12.9
		c0-4.8-1-8.6-3.1-11.4c-2-2.8-4.7-4.2-8.1-4.2c-3.7,0-6.7,1.6-9,4.9c-2.3,3.3-3.4,7.7-3.4,13.2c0,4.8,1,8.6,3.1,11.3
		c2,2.7,4.8,4,8.2,4C412.3,33.2,415.3,31.6,417.6,28.3 M373.8,7.3c0.1,0,0.3-0.1,0.5-0.4c1.7-2.5,3.9-3.8,6.7-3.8
		c1.7,0,3.1,0.6,4.3,1.9s1.7,2.8,1.7,4.6c0,2.5-1.1,5.3-3.4,8.4c-2.2,3.1-5.6,6.5-10,10.2c-0.9,0.7-1.6,1.4-2.1,1.8v2.1
		c0,0.2,0.1,0.3,0.4,0.3h20.3c0.2,0,0.3-0.2,0.3-0.6v-6.2c0-0.3-0.1-0.4-0.2-0.4h-1.1c-0.3,0-0.4,0.2-0.4,0.5c0,0.4,0,0.8-0.1,1.1
		c-0.1,0.3-0.2,0.6-0.3,0.8c-0.5,0.6-2.5,1-6.2,1h-8.2v-0.1c2-1.5,4.5-3.7,7.6-6.6c3-2.9,5.2-5.4,6.4-7.5c1.2-2.1,1.8-4.2,1.8-6.3
		c0-2.5-0.8-4.5-2.5-6.1c-1.7-1.6-3.9-2.3-6.5-2.3c-2.7,0-5.1,0.8-7.1,2.5c-0.8,0.7-1.5,1.5-2.1,2.4c-0.6,0.9-0.9,1.5-0.9,1.9
		c0,0.1,0,0.1,0.1,0.2l1,0.5C373.7,7.3,373.8,7.3,373.8,7.3 M322.7,29.3c-0.2,0.6-0.5,1-1.1,1.2c-0.5,0.2-1.5,0.3-3.1,0.3
		c-0.5,0-0.7,0.2-0.7,0.7v0.6c0,0.3,0.1,0.4,0.4,0.4h12.3c0.2,0,0.3-0.1,0.3-0.3v-0.8c0-0.4-0.3-0.5-0.8-0.5c-1.1,0-2-0.1-2.5-0.2
		c-0.5-0.1-0.9-0.3-1.2-0.5c-0.5-0.5-0.8-2.6-0.8-6.2V5.5l3.7,4.3l14,18.3l2.4,3.2l1.2,1.7h2c0.2,0,0.3-0.2,0.3-0.5V7.7
		c0-2.3,0.1-3.8,0.3-4.5c0.1-0.4,0.4-0.7,1-0.8c0.5-0.1,1.5-0.2,2.8-0.2c0.5,0,0.7-0.1,0.7-0.4V1c0-0.3-0.1-0.5-0.4-0.5h-11.8
		c-0.4,0-0.6,0.1-0.6,0.4v0.8c0,0.2,0.1,0.4,0.2,0.4c0.1,0.1,0.5,0.1,1,0.1c1.5,0,2.4,0.1,3,0.2c0.5,0.2,0.9,0.6,1,1.4
		c0.2,0.8,0.2,2,0.2,3.8v16.8l-4-5.1l-11.4-15l-2.9-4h-10c-0.2,0-0.4,0.2-0.4,0.6v0.7c0,0.2,0,0.4,0.1,0.4c0.1,0.1,0.2,0.1,0.5,0.1
		c2.4,0,3.8,0.3,4.1,0.8c0.3,0.6,0.4,2.1,0.4,4.6v18.5C323,27.7,322.9,28.8,322.7,29.3 M300.1,0.8v1.1c0,0.2,0.3,0.3,1,0.3
		c1.2,0,2.2,0.1,2.8,0.2c0.7,0.2,1.1,0.5,1.3,0.9c0.2,0.4,0.3,1.3,0.3,2.7v15.6c0,2.6,0,4.6-0.1,5.8c-0.1,1.3-0.2,2.1-0.4,2.5
		c-0.3,0.5-1.6,0.8-4.1,0.8c-0.1,0-0.1,0-0.2,0c-0.3,0-0.5,0.1-0.5,0.4v0.9c0,0.3,0.1,0.4,0.3,0.4h14.6c0.2,0,0.3,0,0.4-0.1
		c0,0,0.1-0.2,0.1-0.5v-0.8c0-0.2-0.2-0.3-0.6-0.3c-1.8,0-3-0.1-3.5-0.2c-0.5-0.2-0.8-0.5-0.9-0.9c-0.2-0.8-0.3-2.2-0.3-4.2V8.4
		c0-1.7,0-2.9,0.1-3.7c0.1-0.8,0.3-1.3,0.5-1.6c0.4-0.6,1.8-0.9,4-0.9c0.5,0,0.8-0.1,0.8-0.3v-1c0-0.3-0.2-0.4-0.5-0.4h-14.5
		C300.2,0.5,300.1,0.6,300.1,0.8 M296.9,17.4h-13.2c-0.3,0-0.4,0.1-0.4,0.4v0.9c0,0.3,0.3,0.4,0.8,0.4c1,0,1.8,0.1,2.5,0.2
		c0.7,0.1,1.1,0.4,1.3,0.8c0.3,0.7,0.5,2.1,0.5,4.3c0,2.1-0.1,4-0.2,5.8c-1.6,0.8-3.4,1.2-5.6,1.2c-3.7,0-6.7-1.4-9-4.2
		c-2.3-2.8-3.5-6.4-3.5-10.7c0-4.3,1.1-7.8,3.3-10.6c2.2-2.8,5.1-4.2,8.6-4.2c1.6,0,3.1,0.3,4.6,1c1.4,0.7,2.5,1.7,3.2,3
		c0.8,1.3,1.1,2.7,1.1,4.1c0,0.3,0.1,0.5,0.3,0.5h1c0.2,0,0.3-0.2,0.3-0.6V1c-1-0.3-2.4-0.6-4.1-0.8c-1.7-0.2-3.2-0.3-4.5-0.3
		c-4,0-7.4,0.7-10.3,2.2c-2.9,1.4-5.2,3.5-6.8,6.3s-2.4,5.8-2.4,9.2c0,2.9,0.7,5.6,2.1,8.1c1.4,2.5,3.3,4.4,5.8,5.7s5.5,1.9,9.2,1.9
		c3.4,0,7.3-0.7,11.6-2.1c-0.2-2.7-0.2-5.5-0.2-8.3c0-1.3,0.1-2.1,0.3-2.5c0.2-0.4,0.5-0.7,1-1c0.5-0.2,1.2-0.4,2.1-0.4
		c0.5,0,0.7,0,0.8-0.1c0.1-0.1,0.2-0.2,0.2-0.5v-0.7C297.4,17.5,297.2,17.4,296.9,17.4 M243.7,7l0.1-2.2l0.1-2.2h11.3
		c1,0,1.8,0.3,2.2,0.8c0.4,0.6,0.6,1.7,0.6,3.5c0,0.4,0.1,0.5,0.4,0.5h1.1c0.2,0,0.2-0.2,0.2-0.6V1.1c0-0.3-0.2-0.5-0.6-0.5h-24.5
		c-0.4,0-0.6,0.1-0.6,0.3V2c0,0.2,0.3,0.3,0.8,0.3c1.7,0,2.8,0.3,3.4,0.8c0.6,0.5,0.8,1.9,0.8,4.2V23c0,2.7-0.1,4.7-0.4,5.9
		c-0.1,0.6-0.2,1-0.4,1.2c-0.2,0.2-0.6,0.4-1.3,0.5c-0.7,0.2-1.5,0.2-2.4,0.2c-0.4,0-0.6,0.1-0.6,0.3v1c0,0.3,0.1,0.4,0.3,0.4h25.8
		c0.2,0,0.3-0.1,0.3-0.3v-7.1c0-0.3-0.1-0.4-0.3-0.4h-1.1c-0.2,0-0.3,0.2-0.3,0.7c0,0.9,0,1.7-0.1,2.3c-0.1,0.7-0.2,1.2-0.4,1.5
		c-0.2,0.3-0.6,0.6-1.2,0.8c-1.2,0.3-3.1,0.5-5.6,0.5h-7.5c-0.1-2.2-0.2-4.4-0.2-6.6v-7h9.4c1.4,0,2.3,0.3,2.8,0.8
		c0.5,0.5,0.7,1.6,0.7,3.1c0,0.4,0.1,0.6,0.3,0.6h1c0.3,0,0.4-0.2,0.4-0.5V10.8c0-0.4-0.1-0.5-0.4-0.5H257c-0.3,0-0.5,0.3-0.5,0.9
		c0,1.6-0.3,2.6-0.8,3.1c-0.5,0.5-1.6,0.7-3.3,0.7h-8.7V7z M204.8,2.2h1.6c1.6,0,2.4,1.3,2.4,3.8v20.3c0,3-0.9,4.5-2.6,4.5h-1.8
		c-0.3,0-0.5,0.1-0.5,0.3l0.1,1.2c0,0.1,0.1,0.2,0.4,0.2h14.4c2.5,0,4.6-0.3,6.1-1c1.6-0.7,2.8-1.7,3.7-3.1c0.9-1.4,1.4-2.8,1.4-4.3
		c0-2.4-0.8-4.3-2.5-5.8c-1.6-1.5-3.9-2.4-6.9-2.8v-0.1c2.5-0.5,4.5-1.4,5.8-2.7c1.3-1.3,2-3,2-4.9c0-2.3-0.8-4.1-2.5-5.4
		s-4-1.9-7-1.9h-14.2c-0.3,0-0.5,0.1-0.5,0.2v1.2C204.3,2.1,204.5,2.2,204.8,2.2 M215.9,16.8c2.8,0,5,0.6,6.5,1.8
		c1.6,1.2,2.3,2.9,2.3,5c0,2.2-0.8,3.9-2.4,5.2c-1.6,1.3-3.8,1.9-6.5,1.9c-0.8,0-1.6-0.1-2.4-0.2V17
		C214.3,16.9,215.1,16.8,215.9,16.8 M216.4,2.4c2.2,0,3.9,0.5,5.2,1.5c1.3,1,2,2.4,2,4.1c0,2.1-0.8,3.7-2.4,5
		c-1.6,1.3-3.7,1.9-6.3,1.9c-0.5,0-1,0-1.5-0.1V2.7C214.5,2.5,215.4,2.4,216.4,2.4 M180.3,17.3c0.9,0,1.6,0.1,2.1,0.3
		c0.5,0.2,0.9,0.7,1.1,1.5c0.2,0.8,0.3,1.7,0.3,2.7c0,0.4,0.1,0.7,0.4,0.7h1c0.3,0,0.4-0.2,0.4-0.5V10.8c0-0.4-0.2-0.6-0.5-0.6h-0.7
		c-0.2,0-0.3,0-0.4,0.1c0,0.1-0.1,0.3-0.1,0.7c0,0.9-0.1,1.7-0.3,2.5c-0.2,0.8-0.6,1.3-1.2,1.5c-0.6,0.2-1.6,0.3-3,0.3h-6.8V7.5
		c0-2.2,0-3.8,0.1-4.9h7.1c1.9,0,3.2,0.1,4.1,0.2c0.8,0.2,1.4,0.6,1.7,1.2c0.3,0.7,0.4,1.4,0.4,2.4c0,0.1,0,0.3,0,0.4v0.1
		c0,0.3,0.2,0.5,0.7,0.5h0.6c0.3,0,0.5-0.1,0.5-0.2V1.1c0-0.3-0.1-0.5-0.4-0.5h-23.6c-0.2,0-0.3,0.1-0.3,0.4v1.2
		c0,0.1,0.2,0.2,0.7,0.2c1.4,0,2.3,0.1,2.7,0.3c0.4,0.2,0.7,0.9,0.9,1.9c0.2,1.1,0.2,2.9,0.2,5.4v13.5c0,2.8-0.1,4.7-0.4,5.8
		c-0.1,0.3-0.2,0.6-0.3,0.7c-0.2,0.3-0.6,0.5-1.2,0.7c-0.6,0.2-1.4,0.3-2.3,0.3c-0.3,0-0.4,0.2-0.4,0.5v0.8c0,0.3,0.1,0.4,0.4,0.4
		h14.7c0.3,0,0.4-0.1,0.4-0.3v-1.2c0-0.2-0.2-0.3-0.5-0.3c-1.5,0-2.8-0.1-3.8-0.3c-0.5-0.1-0.9-0.2-1.1-0.4
		c-0.3-0.1-0.4-0.6-0.5-1.3c-0.2-1.3-0.3-3.2-0.3-5.7v-6H180.3z M129.9,26.3c-1.4,3-2.8,4.5-4,4.5h-0.7c-0.2,0-0.4,0.1-0.4,0.4v0.8
		c0,0.3,0.1,0.5,0.2,0.5h10.7c0.2,0,0.3-0.1,0.3-0.4v-0.8c0-0.3-0.2-0.5-0.5-0.5h-1.2c-1.5,0-2.3-0.6-2.3-1.7c0-0.4,0.1-0.8,0.3-1.3
		l2.3-5.5h14.1l1.9,4.8c0.3,0.8,0.5,1.5,0.5,2c0,1.1-0.8,1.7-2.4,1.7h-1.3c-0.3,0-0.4,0.1-0.4,0.4v0.8c0,0.3,0.1,0.5,0.4,0.5h12.6
		c0,0,0.1,0,0.2-0.1c0.1,0,0.1,0,0.1,0l0.2-0.2v-1.1c0-0.2-0.1-0.3-0.4-0.3h-0.7c-0.4,0-0.8-0.2-1.2-0.5c-0.4-0.3-0.8-0.8-1.2-1.5
		c-0.4-0.8-1.7-3.4-3.7-7.7l-9.2-21.1h-2.1L129.9,26.3z M148.1,20.3h-12.4L142,5.9L148.1,20.3z M92.6,29.3c-0.2,0.6-0.5,1-1.1,1.2
		c-0.5,0.2-1.5,0.3-3.1,0.3c-0.5,0-0.7,0.2-0.7,0.7v0.6c0,0.3,0.1,0.4,0.4,0.4h12.3c0.2,0,0.3-0.1,0.3-0.3v-0.8
		c0-0.4-0.3-0.5-0.8-0.5c-1.1,0-2-0.1-2.5-0.2c-0.5-0.1-0.9-0.3-1.2-0.5c-0.5-0.5-0.8-2.6-0.8-6.2V5.5l3.7,4.3l14,18.3l2.4,3.2
		l1.2,1.7h2c0.2,0,0.3-0.2,0.3-0.5V7.7c0-2.3,0.1-3.8,0.3-4.5c0.1-0.4,0.4-0.7,1-0.8c0.5-0.1,1.5-0.2,2.8-0.2c0.5,0,0.7-0.1,0.7-0.4
		V1c0-0.3-0.1-0.5-0.4-0.5h-11.8c-0.4,0-0.6,0.1-0.6,0.4v0.8c0,0.2,0.1,0.4,0.2,0.4c0.1,0.1,0.5,0.1,1,0.1c1.5,0,2.4,0.1,3,0.2
		c0.5,0.2,0.9,0.6,1,1.4c0.2,0.8,0.2,2,0.2,3.8v16.8l-4-5.1l-11.4-15l-2.9-4h-10c-0.2,0-0.4,0.2-0.4,0.6v0.7c0,0.2,0,0.4,0.1,0.4
		c0.1,0.1,0.2,0.1,0.5,0.1c2.4,0,3.8,0.3,4.1,0.8c0.3,0.6,0.4,2.1,0.4,4.6v18.5C92.9,27.7,92.8,28.8,92.6,29.3 M54.1,26.3
		c-1.4,3-2.8,4.5-4,4.5h-0.7c-0.2,0-0.4,0.1-0.4,0.4v0.8c0,0.3,0.1,0.5,0.2,0.5h10.7c0.2,0,0.3-0.1,0.3-0.4v-0.8
		c0-0.3-0.2-0.5-0.5-0.5h-1.2c-1.5,0-2.3-0.6-2.3-1.7c0-0.4,0.1-0.8,0.3-1.3l2.3-5.5h14.1l1.9,4.8c0.3,0.8,0.5,1.5,0.5,2
		c0,1.1-0.8,1.7-2.4,1.7h-1.3c-0.3,0-0.4,0.1-0.4,0.4v0.8c0,0.3,0.1,0.5,0.4,0.5h12.6c0,0,0.1,0,0.2-0.1c0.1,0,0.1,0,0.1,0l0.2-0.2
		v-1.1c0-0.2-0.1-0.3-0.4-0.3h-0.7c-0.4,0-0.8-0.2-1.2-0.5c-0.4-0.3-0.8-0.8-1.2-1.5c-0.4-0.8-1.7-3.4-3.7-7.7L68.5-0.1h-2.1
		L54.1,26.3z M72.4,20.3H60l6.3-14.4L72.4,20.3z M32.1,32.5c0.2,0.5,0.4,0.8,0.7,0.8h1.4c0.3,0,0.4-0.1,0.6-0.2
		c0.1-0.1,0.3-0.5,0.5-1.1c0.3-0.7,0.5-1.4,0.7-2l1.5-3.6c4.4-10.8,7.1-17.3,8.2-19.6c1.1-2.3,1.9-3.7,2.4-4
		c0.4-0.3,1.1-0.5,2.1-0.5c0.2,0,0.3-0.2,0.3-0.7V1c0-0.3-0.2-0.5-0.6-0.5H39.2c-0.3,0-0.5,0.1-0.5,0.4v0.9c0,0.3,0.3,0.5,0.9,0.5
		c1.3,0,2.3,0.1,2.9,0.2c0.6,0.2,0.9,0.6,0.9,1.3c0,0.4-0.2,1.1-0.5,2l0,0c-1.2,3.5-3.2,8.6-5.9,15.5L34.8,27
		c-1.1-2.7-2.2-5.5-3.3-8.3s-2.2-5.8-3.3-9s-1.6-5.1-1.6-5.9c0-0.7,0.3-1.2,1-1.3c0.7-0.2,1.7-0.3,3.1-0.3c0.6,0,0.8-0.2,0.8-0.5
		V0.9c0-0.3-0.2-0.4-0.7-0.4h-13c-0.3,0-0.4,0.2-0.4,0.5v0.8c0,0.3,0.2,0.5,0.6,0.5c0.7,0,1.2,0.2,1.6,0.5c0.4,0.3,1,1.3,1.8,3
		c0.8,1.7,1.6,3.5,2.3,5.4L32,32.2L32.1,32.5z"/>
</g>
</svg>
