<?xml version="1.0" encoding="utf-8"?>
<!-- Generator: Adobe Illustrator 24.3.0, SVG Export Plug-In . SVG Version: 6.00 Build 0)  -->
<svg version="1.1" id="Laag_1" xmlns="http://www.w3.org/2000/svg" xmlns:xlink="http://www.w3.org/1999/xlink" x="0px" y="0px"
	 width="224.8px" height="127.5px" viewBox="0 0 224.8 127.5" style="enable-background:new 0 0 224.8 127.5;" xml:space="preserve"
	>
<style type="text/css">
	.st0{fill:#FFFFFF;}
</style>
<g>
	<path class="st0" d="M24.8,44.8c1.9-0.4,3.6-0.6,5.3-0.7c2.2-0.1,3.9-0.6,5.3-1.5h0.1c0.3,0,0.6,0,0.8,0c0.4,0,0.9,0,1.3-0.1
		c0.3,0,0.6-0.1,0.9-0.1c0.1,0,0.2,0,0.2,0c0.3,0.8,0.2,1.7,0,2.8c0,0.2-0.1,0.3-0.1,0.5c-0.1,0.5-0.3,1-0.2,1.6
		c0.1,1.1,0.3,2.1,0.7,3.1c0.3,1,0.4,1.8,0.3,2.6c-0.2,1-0.1,2.1,0.2,3.3c0.2,0.7,0.2,1.3,0.2,1.9c0,0.7,0,1.5-0.1,2.2
		c0,0.6-0.1,1.3-0.1,1.9c0,0.3,0,0.5,0,0.8c0,1.2,0,2.3-0.4,3.4C39,67,39,67.5,39,67.9V68c0,0.3,0.1,0.6,0.1,0.9
		c0,0.1,0,0.3,0.1,0.4c0.1,0.5,0.1,1.1,0.2,1.6c0,0.2,0,0.3,0,0.5c0.1,0.5,0.1,1,0.1,1.5c0,0.4,0,0.8,0,1.2c0,0.5,0,1.1,0,1.6
		c0,0.6,0,1.1-0.2,1.5c-0.3,1-0.3,1.8,0.1,2.7c0.4,0.8,1.2,0.9,1.8,0.7c0.2-0.1,0.4-0.1,0.5-0.2c0.2-0.1,0.4-0.1,0.6-0.2
		c1.3-0.4,1.8-1,1.7-2c0-1,0-1.9-0.1-2.9l0,0c0-0.4,0-0.7,0-1.1c0-0.3,0-0.5,0-0.8c0-0.1,0-0.1,0-0.2s0-0.2,0-0.3v-0.2
		c0.2-0.8,0.3-1.6,0.1-2.5c-0.1-0.5-0.2-0.9-0.2-1.3c0-1.3,0.1-2.6,0.2-4.2c0-0.6,0.1-1.2,0.2-1.7c0-0.2,0-0.4,0.1-0.6
		c0-0.2,0.1-0.4,0.1-0.6c0.1-0.4,0.1-0.9,0.1-1.3c0-0.3,0-0.5-0.1-0.8c-0.1-1.2-0.2-2.3,0.1-3.5c0.1-0.3,0.1-0.6,0.1-0.9
		c0-0.1,0-0.2,0-0.3c0-0.2,0-0.3,0-0.5c0-0.4,0.1-0.9,0-1.3c-0.1-0.5-0.2-1-0.3-1.5c-0.1-0.6-0.2-1.3-0.3-1.9c-0.1-0.9,0-1.8,0-2.6
		c0-0.4,0-0.8,0-1.2l0,0c0-0.1,0-0.4-0.2-0.6c-0.3-0.4-0.2-0.8-0.2-1.4c0-0.2,0-0.3,0-0.5c0.1-0.9,0.1-1.7,0.1-2.4
		c0-0.5-0.1-1-0.1-1.5l-0.1-0.7c-0.1-0.8-0.1-1.7-0.2-2.6c0-0.2,0-0.3-0.1-0.5c-0.1-0.7-0.2-1.3,0-1.9c0.2-0.5,0.1-0.9,0-1.4
		c0-0.1,0-0.3-0.1-0.4c0-0.1-0.1-0.3-0.1-0.4v-0.1c0-0.5,0.1-1.1,0.1-1.6c0-0.3,0-0.6,0.1-0.9c0-0.2,0-0.4,0-0.6s-0.1-0.4-0.1-0.6
		c-0.1-0.6-0.2-1.1,0.1-1.5c0.2-0.3,0.2-0.6,0.2-0.8l0,0c0-0.2,0-0.5,0-0.7c0-0.4,0-0.7,0-1.1c0-0.2,0-0.4,0.1-0.6
		c0-0.2,0.1-0.5,0.1-0.8c0-0.5,0-1,0-1.6c0-0.4,0-0.8,0-1.2c0-0.1,0-0.2,0-0.4c0-0.2,0.1-0.4,0-0.7c0-0.3-0.1-0.6-0.1-1
		c-0.1-0.5-0.1-0.9-0.1-1.3c0-0.5,0.1-1,0.2-1.5c0-0.3,0.1-0.7,0.1-1c0.1-1.1,0.2-2,0.2-2.9c0-0.2,0-0.4,0-0.6
		c0-0.8,0.1-1.6-0.1-2.4C44.1,8,44,7.7,44,7.5c-0.2-0.8-0.3-1.6-0.2-2.4c0-0.2,0-0.4,0-0.5l0,0c0-0.1,0-0.2-0.1-0.3
		c0-0.1-0.1-0.3-0.1-0.4c0-0.3,0-0.5,0-0.9c0.1-0.9-0.9-1.8-2.1-1.8c-1.2-0.1-2,0.5-2.3,1.4C39.1,3.1,39,3.6,39,4c0,0.3,0,0.7,0,1
		c0,0.4,0,0.7,0,1.1c0,0.9-0.1,1.8-0.2,2.7c0,0.4-0.1,0.8-0.2,1.2c0,0.1-0.1,0.3-0.1,0.4c0,0.1,0,0.2-0.1,0.3
		c-0.2,0.8-0.3,1.7,0.2,2.7c0.1,0.2,0.1,0.5,0.1,0.9v0.2c0,0.4,0,0.7-0.1,1.1c0,0.5-0.1,1-0.1,1.5c0,1,0.1,1.9,0.1,2.9
		c0,0.3,0,0.6,0.1,0.9c0,0.2,0,0.3,0.1,0.4c0,0.1,0,0.2,0,0.3c0,0.4-0.1,0.8-0.1,1.2c0,0.5-0.1,1-0.1,1.5s0,1,0,1.5c0,0.3,0,0.7,0,1
		c0,0.4,0.1,0.7,0.1,1.1c0.1,0.4,0.1,0.8,0.1,1.2c-0.1,0.6,0,1.2,0,1.8c0,0.3,0.1,0.6,0.1,0.8v0.4c0,1.1,0.1,2.2,0.1,3.2
		c0,0.5-0.1,1-0.2,1.5c0,0.1-0.1,0.3-0.1,0.4c-0.9,0.4-1.8,0.8-2.8,1c-0.6,0.1-1.2,0.3-1.8,0.4c-0.4,0.1-0.8,0.2-1.3,0.3
		c-0.2,0-0.4,0.1-0.7,0.1c-0.4,0-0.8,0.1-1.2,0.2c-0.6,0.2-1.3,0.3-2,0.3c-0.8,0-1.5,0.2-2,0.7l0.1,0.1c-0.1,0-0.1,0.1-0.2,0.2
		c-0.3,0.1-0.6,0.2-0.8,0.2c-0.6,0.2-1,0.3-1.5,0.3c-1.8-0.1-3.5,0.1-5,0.4c-0.8,0.2-1.6,0.4-2.3,0.7c-0.2,0.1-0.3,0.1-0.5,0.2
		c-0.4,0.1-0.8,0.3-1.1,0.4c-0.4,0.1-0.7,0.3-1,0.4c-0.4,0.1-0.8,0.2-1.2,0.3c-0.3,0.1-0.8,0.1-1.1,0.1s-0.6,0.1-0.8,0.1
		c-0.4-0.2-0.9-0.1-1.1,0h-0.1c-0.1,0-0.2,0.1-0.2,0.1c-0.1,0-0.1,0-0.2,0.1c-0.6,0.1-1.3,0.3-1.9,0.4c0-0.7,0-1.3,0-1.9
		c0-0.1,0-0.3,0-0.4c0-0.1,0-0.1,0-0.2v-0.6c0-0.7,0-1.4,0-2.1c0-0.3,0-0.6,0.1-0.9c0-0.3,0-0.5,0-0.8c0-0.2,0-0.4,0-0.5
		c0-0.2,0-0.3,0-0.4c0-0.2,0-0.4,0.1-0.6c0-0.3,0.1-0.6,0.1-0.8c0-2,0.1-3.9,0.1-5.8c0-1.4,0-2.7,0-4v-1.3c0-0.1,0-0.2,0-0.3v-0.1
		c0-0.3,0-0.6-0.1-0.8C8,21.8,8,21.2,8,20.5s0-1.5,0-2.2s0-1.5,0-2.2c0-0.4-0.1-0.7-0.1-1c0-0.2-0.1-0.4-0.1-0.6
		c0-0.5-0.1-1.1-0.1-1.9c0-0.2,0-0.5,0-0.7c0-0.3,0-0.6,0-0.9c0-0.4,0-0.8-0.1-1.2c0-0.5-0.1-1.1-0.1-1.6c0-0.2,0-0.4,0.1-0.6
		c0-0.2,0.1-0.5,0.1-0.7c0-0.4,0-0.7,0-1.1s-0.1-0.9,0-1.3c0-0.9-0.3-1.8-1.1-2.7C6.4,1.7,6.3,1.6,6.2,1.5l0,0
		C6,1.1,5.5,0.9,5.1,0.8C4.7,0.8,4.3,0.9,4,1.1L3.9,1.2C3.5,1.6,3,2.1,2.8,2.6s-0.2,1-0.2,1.5c0,0.1,0,0.2,0,0.4c0,0.6,0,1.3,0,1.9
		s0.1,1.2,0.2,1.9c0.1,1,0.2,2,0.2,3c0,1.2,0,2.4,0,3.6c0,0.5,0,1.1,0,1.6c0,0.2,0,0.5,0,0.7c0,0.4,0,0.8,0,1.2c0,1,0,2-0.1,3
		c0,0.4,0,0.8-0.1,1.1c0,0.3,0,0.7-0.1,1c0,0.2,0,0.4,0,0.6s0,0.3,0,0.5c0,0.3,0,0.5-0.1,0.8c0,0.4-0.1,0.8-0.1,1.3
		c0,0.4,0,0.8,0,1.2c0,0.5,0.1,0.9,0,1.3c0,0.9,0,1.8-0.1,2.7c0,1.3-0.1,2.6-0.1,4c0,0.7,0.1,1.4,0.1,2c0.1,0.6,0.1,1.2,0.1,1.8
		c0,0.7,0,1.5-0.1,2.2c0,0.4-0.1,0.7-0.1,1.1c0,0.2,0,0.3,0,0.5c0,0.5-0.1,0.9-0.1,1.4c0,0.3,0,0.6,0,0.9c0,0.3,0,0.5,0,0.7
		c0,0.7,0,1.3,0,2c0,0.4,0,0.8,0,1.2c0,0.1,0,0.3,0,0.3v0.1c0,0.1,0,0.2,0.1,0.4c0,0.3,0.1,0.5,0.1,0.8s0,0.6-0.1,0.9
		c0,0.2-0.1,0.5-0.1,0.7c-0.1,1.3-0.2,2.7-0.3,4v0.3C1.8,58.1,1.8,59,1.7,60c0,0.5,0,1,0,1.5v0.1c0,0.2,0,0.5,0,0.7
		c0,0.7,0,1.4,0,2.1c0,0.4,0.1,0.8,0.1,1.2c0.1,0.5,0.1,0.9,0.1,1.4c0,0.7,0,1.4-0.1,2.1c0,0.4-0.1,0.9-0.1,1.3v0.8
		c-0.1,1.8-0.1,3.7-0.2,5.6c0,0.5,0,1,0.1,1.5c0,0.3,0.1,0.6,0.1,0.9c0,0.8,0.1,1.7,0.1,2.5c0,0.5,0,1.1,0.1,1.6
		c0,0.3,0,0.6,0.1,0.8c0,0.3,0,0.6,0.1,0.9c0,0.1,0,0.2,0,0.3c0,0.3,0,0.6,0,0.8c-0.2,1.1-0.3,2.1-0.1,3.1c0,0.4,0,0.7,0,1
		c-0.1,0.6-0.4,1.7,0.7,2.7c0.5,0.4,1.1,0.7,1.7,0.7c0,0,0,0,0.1,0c0.5,0,1.6-0.2,1.9-0.5c0.4-0.4,1.2-1,1.5-1.7
		c0.2-0.6,0.6-1.1,0.7-1.7c0-0.2,0.1-0.4,0.1-0.7v-0.1c0-0.1,0.1-0.3,0.1-0.5c0-0.3,0-0.6,0-0.8c0-0.2,0-0.5,0-0.7
		c0-0.5-0.4-0.9-0.4-1.4c0-0.7,0-1.5-0.1-2.2c0-0.3,0-0.6-0.1-0.9c0-0.3-0.4-0.6-0.4-0.9s0-0.6,0-0.9c0-0.1,0-0.3,0-0.4V80
		c0-0.1,0-0.2,0-0.3v-0.3c0-0.3,0-0.6,0-0.8c0-0.3,0-0.7-0.1-1c0-0.5-0.1-1-0.1-1.4c0-0.3-0.7-0.6-0.7-1s0-0.8,0-1.2
		c0-0.5-0.1-0.9-0.1-1.3c0-0.5-0.1-1-0.1-1.5c0-0.2,0-0.4,0-0.7c0-0.8,0-1.7-0.2-2.5c-0.1-0.3-0.1-0.6-0.1-0.9c0-0.2,0-0.3,0-0.5
		c0-0.1,0-0.3,0-0.4c0-0.2,0-0.4,0-0.5c0-0.2,0-0.4-0.1-0.5c0-0.3-0.1-0.5-0.1-0.8s0.1-0.6,0.2-1c0-0.2,0.1-0.3,0.1-0.5
		s0.1-0.4,0.1-0.6c0.1-0.5,0.2-0.9,0.3-1.4c0-0.4-0.1-0.7-0.2-1c-0.1-0.2-0.2-0.5-0.1-0.6c0-0.3,0-0.5-0.1-0.6l0,0v-0.1
		c0.2-0.5,0.4-1.1,0.3-1.7c0-0.3,0-0.6,0-0.9c0-0.3,0-0.5,0-0.8c0-0.2,0-0.4,0-0.6c0-0.2,0-0.3,0-0.5s0-0.3,0.1-0.5
		C6.9,53.3,7,53,7,52.7c0-0.3-0.1-0.6-0.1-0.9c-0.1-0.5-0.1-0.9-0.1-1.3c0.1-0.4,0-0.8,0-1.2c0-0.3,0-0.6,0-0.8l0,0
		c0.1-0.1,0.2-0.1,0.3-0.2c0.7-0.4,1.4-0.8,2.2-0.9c0.2,0,0.3,0,0.5-0.1c0.3,0,0.6-0.1,0.7-0.1c1.4,0.2,2.7,0.1,3.8-0.3
		c0.2-0.1,0.3-0.1,0.5-0.2c0.4-0.1,0.7-0.2,1-0.3s0.6-0.2,0.9-0.2c0.3-0.1,0.6-0.2,0.9-0.2c0.2-0.1,0.4-0.2,0.5-0.2s0.2-0.1,0.2-0.1
		c1.6-0.1,3.2-0.4,4.7-0.7C24.3,44.8,24.6,44.8,24.8,44.8z"/>
	<path class="st0" d="M224.2,47.8c0-0.9-0.1-1.6-0.3-2.2c-0.2-0.9-0.4-1.8,0-2.7c0.4-1,0.4-1.9,0.1-2.8c-0.3-0.8-0.6-1.7-1.2-2.5
		c-0.3-0.4-0.7-0.7-1.1-0.9c-0.2-0.1-0.4-0.3-0.5-0.4c-1-0.9-2.4-1.2-4-0.9c-0.7,0.2-1.5,0.2-2.3,0.2c-0.4,0-0.7,0-1.1,0.1
		c-1.4,0.1-2.6,0.6-3.5,1.4h-0.1c-1.4,0.3-2.1,1.2-1.8,2.2c0,0.1,0.1,0.4,0.1,0.5c-0.3,1-0.3,1.9-0.3,2.8c0,0.2,0,0.3,0,0.5
		c0,0.4,0,0.7,0,1.1c0,0.9,0,1.8,0,2.7c0.1,1,0.2,2,0.3,2.9c0,0.4,0.1,0.8,0.1,1.2c0,0.2,0,0.5,0.1,0.7c0,0.6,0.1,1.1,0.2,1.7
		c0.2,0.7,0,1.4-0.1,2.2c-0.2,1.1-0.5,2.3-0.5,3.5c0,0.5,0,1.1,0.1,1.6c0,0.3,0.1,0.5,0.1,0.8c0,0.7,0.1,1.5,0.1,2.4
		c0,0.5,0,1.1-0.1,1.6c0,0.3,0,0.5,0,0.8c0,0.2,0,0.4,0,0.6c-0.1,0.5-0.1,1,0,1.6c0.1,0.5,0,0.9-0.3,1.4c-0.4,0.6-0.5,1.3-0.3,1.9
		c0.1,0.2,0.1,0.5,0.2,0.7c0.1,0.4,0.2,0.8,0.3,1.2c0.2,0.9,0.2,1.6,0.3,2.3c0,0.6,0,1.3,0,1.9c0,0.3,0,0.5,0,0.8s0,0.5,0,0.8
		c0,0.5,0,1.1,0,1.6c0,0.3,0,0.7,0.1,1c0,0.4,0.1,0.8,0.1,1.3c0,0.2-0.1,0.5-0.1,0.7c-0.1,0.2-0.1,0.4-0.1,0.6
		c-0.1,0.3-0.1,0.6-0.2,0.9c-0.2,0.8-0.3,1.7-0.4,2.6c-0.1,1,0,2,0,3c0,0.2,0,0.4,0.1,0.6c0.1,0.4,0.1,0.7,0,1
		c-0.3,0.8-0.4,1.7-0.5,2.5l-0.1,0.4c-0.1,0.8-0.2,1.4-0.2,2.1c0,0.9,0,1.9,0.1,3c0,0.4,0.2,0.7,0.3,1c0.1,0.2,0.1,0.3,0.2,0.5
		c0.2,0.5,0.3,1.1,0.4,1.6l0.1,0.3c0.1,0.6,0.1,1-0.1,1.3c-0.4,0.7-0.6,1.5-0.6,2.5c0,0.4,0,0.8,0,1.2c0,0.4,0,0.8,0,1.2
		c0,0.5-0.1,1-0.1,1.5c0,0.4-0.1,0.7-0.1,1.1c0,0.6-0.1,1.2-0.1,1.9c0,0.7-0.1,1.4-0.1,2c0,0.4-0.1,0.7-0.1,1.1
		c0,0.3-0.1,0.6-0.1,0.9c0,0.5-0.1,1-0.1,1.5c0,0.2,0,0.3,0,0.4s0,0.3,0,0.3c-0.4,0.9-0.1,1.6,0.2,2.3l0,0c0.1,0.1,0.1,0.3,0.1,0.5
		c0,0,0,0.1,0,0.2s-0.1,0.3-0.1,0.5c0,0.3,0,1.4,1.3,1.7c0.5,0.1,0.9,0.2,1.4,0.2h0.3c0.4,0.1,0.9-0.1,1.1-0.3
		c0.8-0.8,1.1-2,0.7-2.9c0,0,0,0,0-0.1c0.2-1,0.1-2-0.3-3.2c0-0.1-0.1-0.3-0.2-0.4c-0.1-0.3-0.3-0.6-0.2-0.9c0-0.4,0.1-0.9,0.2-1.3
		c0.1-0.3,0.1-0.7,0.2-1.1c0.1-0.5,0.1-1.1,0.1-1.6c0-0.2,0-0.3,0-0.5s0-0.4,0-0.5c0-0.2,0-0.4,0-0.6c0-0.4,0-0.9,0.1-1.3
		c0-0.7,0.1-1.4,0.1-2s0-1.3,0-1.9c0-0.2,0-0.4,0-0.6c0-0.1,0-0.2,0-0.3c0-0.1,0-0.2,0-0.2c0-0.2,0-0.5,0.1-0.7
		c0-0.2,0.1-0.5,0.1-0.7s0-0.5,0-0.7c0-0.4,0-0.7,0.1-1.1c0.2-0.7,0.1-1.4,0-2.1c0-0.3-0.1-0.7-0.1-1s0-0.6-0.1-0.9
		c0-0.2-0.1-0.4-0.1-0.5c0-0.2,0-0.4,0-0.6c0-0.6-0.1-1.1-0.1-1.6c0.1-0.9,0.1-1.7,0.2-2.6c0.1-0.6,0.1-1.2,0.2-1.8
		c0-0.4-0.1-0.8-0.3-1.1c-0.4-0.6-0.4-1.3-0.3-2c0-0.5,0.2-1,0.4-1.5c0-0.1,0.1-0.2,0.1-0.3l0.2-0.1c0.4-0.1,0.7-0.3,1-0.4
		c0.2-0.1,0.5-0.2,0.7-0.3c0.1-0.1,0.2-0.1,0.4-0.2c0.3-0.1,0.4-0.1,0.4-0.1s0.1,0.1,0.2,0.3c0.1,0.2,0.3,0.4,0.4,0.5
		c0.1,0.1,0.2,0.3,0.4,0.4c0.5,0.5,0.9,0.9,0.9,1.5c0,0.4,0.2,0.8,0.3,1.2c0.1,0.3,0.2,0.6,0.2,0.8c0.2,1.3,0.3,2.5,0.3,3.7
		c0,0.7,0,1.4,0,2.1c0,0.8,0,1.6,0,2.5c0.1,1.1-0.1,2.3-0.2,3.5c-0.1,0.9-0.2,1.9-0.2,2.8c0,0.8,0,1.5,0,2.3s0,1.5-0.1,2.3
		c0,0.2,0,0.4,0,0.5s0,0.3,0,0.4c-0.1,0.4-0.1,0.8-0.2,1.2c-0.1,0.7-0.2,1.5-0.3,2.2v0.2c-0.1,1.6-0.1,3.3-0.4,5
		c-0.2,1.2-0.2,2.3-0.1,3.4c0,0.2,0,0.3,0,0.5c0,0.7-0.1,1.6,0.8,2.4l0.2,0.1c0.3,0.3,0.7,0.7,1.3,0.9c0.2,0.1,0.5,0.1,0.8,0.1
		s0.7-0.1,0.9-0.3c0.5-0.4,0.7-0.9,0.7-1.1c0.1-0.3,0.1-0.6,0.2-1c0-0.3,0.1-0.6,0.1-0.9c0.4-1.5,0.4-3,0.5-4.5c0-0.2,0-0.5,0-0.7
		c0-0.5,0-0.9,0-1.4c0-0.2,0-0.4,0-0.6v-0.9c0-0.7,0-1.3,0-2c0-0.1,0-0.2,0-0.3c0-0.3,0-0.7,0.1-0.9c0,0,0-0.1,0.1-0.1
		c0.1-0.3,0.3-0.7,0.1-1.2c0,0,0,0,0-0.1c0.3-1.5,0.5-2.8,0.4-4.2c0-0.5,0.1-0.9,0.1-1.4c0-0.1,0-0.2,0.1-0.3c0-0.1,0.1-0.3,0.1-0.5
		s0-0.4,0.1-0.6c0.1-0.7,0.1-1.4,0.4-2c0.5-1.4,0.4-2.7-0.3-4c0-0.1-0.1-0.2-0.1-0.4v-0.1c0-0.4-0.1-0.8-0.1-1.2v-0.8
		c0-0.4-0.1-0.9-0.1-1.3c0-0.2,0-0.4,0-0.5c0-0.3,0-0.5,0-0.8c0-0.2-0.1-0.4-0.1-0.6c0-0.1-0.1-0.2-0.1-0.3c0-0.3-0.1-0.6-0.1-0.9
		c-0.1-0.6-0.1-1.2-0.3-1.7c-0.3-1.2-0.9-2.3-1.9-3.6c0-0.1-0.1-0.1-0.1-0.2c-0.1-0.1-0.1-0.2-0.2-0.3c0-0.1-0.1-0.1-0.1-0.2
		c-0.2-0.3-0.4-0.7-1-0.9l0,0c-0.2-0.5-0.1-0.6,0.1-0.7c0.3-0.2,0.4-0.4,0.5-0.5l0,0c0.1-0.1,0.2-0.2,0.2-0.4c0.2-0.3,0.4-0.6,0.6-1
		c0.4-0.8,0.6-1.5,0.8-2.2c0-0.1,0.1-0.3,0.1-0.4c0.1-0.4,0.1-0.5,0.3-0.7c0.3-0.2,0.4-0.5,0.4-0.7c0.1-0.6,0.1-1.2,0.2-1.8
		c0-0.2,0-0.3,0-0.5c0-0.1,0-0.2,0-0.3c0-0.1,0-0.3,0-0.4c0-0.3,0.1-0.6,0-1c0-0.2-0.1-0.4-0.1-0.6c0-0.1-0.1-0.3-0.1-0.4
		c0.2-1,0.4-1.9,0.6-2.8c0.1-0.5,0.3-1,0.6-1.5c0.1-0.3,0.2-0.6,0.3-0.8c0.7-1.7,0.7-3.5,0.7-5c0-0.2,0-0.5,0-0.8c0-0.2,0-0.3,0-0.5
		c0-0.1,0-0.2,0-0.3s0-0.1,0-0.2v-0.3c0.1-0.9,0.3-1.9,0.1-2.9c-0.1-0.8,0-1.6,0.1-2.2c0.1-1,0.3-2,0.5-3c0.3-1.3,0.2-2.5,0.1-3.7
		C224.2,48.6,224.2,48.2,224.2,47.8z M219.3,50.3c-0.1,0.6-0.1,1.3-0.2,1.9c0,0.5,0,1.1,0.1,1.6c0,0.3,0,0.5,0.1,0.8
		c0,0.2,0,0.4,0,0.7l-0.1,1c0,1-0.1,2-0.2,2.9c0,0.1-0.1,0.2-0.1,0.3c-0.1,0.3-0.2,0.6-0.2,0.9c0.1,0.4,0,0.8-0.1,1.3
		c-0.1,0.3-0.1,0.7-0.1,1.1c0,0.8-0.1,1.7-0.2,2.5l-0.1,1c0,0.7-0.1,1.4-0.2,2.1c0,0-0.1,0.2-0.1,0.3c-0.1,0.1-0.2,0.3-0.2,0.5
		c-0.2,0.7-0.3,1.3-0.4,1.8c-0.1,0.5-0.1,1-0.2,1.5c0,0.3-0.1,0.7-0.1,1l-0.1,0.4c-0.2,1.1-0.3,2.1-0.7,3.1
		c-0.2,0.6-0.5,1.3-0.7,1.9c-0.2,0.5-0.4,1-0.5,1.4c0,0,0,0.1-0.1,0.1l-0.2,0.3c-0.3,0.4-0.6,0.7-0.9,1c-0.1,0.1-0.2,0.2-0.4,0.2
		l0,0c-0.2,0.1-0.5,0.2-0.7,0.3c0-0.2,0-0.5,0-0.7c-0.1-0.8-0.2-1.6-0.3-2.4c-0.1-0.7-0.2-1.3-0.2-2c0-0.3,0-0.5,0-0.8s0-0.5,0-0.8
		c0-0.2-0.1-0.4-0.1-0.5s-0.1-0.3-0.1-0.4c0-1.5,0.2-2.8,0.6-4c0-0.1,0.1-0.2,0.1-0.4c0.2-0.5,0.5-1.3,0.1-2c-0.2-0.3-0.2-0.5-0.1-1
		c0-0.1,0-0.2,0-0.2c0-0.3,0-0.6-0.1-0.9c0-0.2-0.1-0.4-0.1-0.5c0-0.3,0-0.6,0.1-0.9c0-0.2,0.1-0.4,0.1-0.6V64c0-0.3,0.1-0.6,0-1
		c-0.2-0.6-0.2-1.2-0.1-1.9c0.1-0.5,0.1-1,0-1.4c0-0.2,0-0.4,0-0.6v-0.5c0-0.4,0-0.7,0-1.1c0-0.9,0.1-1.8,0.3-2.6v-0.1
		c0.2-0.8,0.5-1.7,0-2.8c-0.1-0.2-0.1-0.6,0-1c0-0.1,0-0.2,0-0.3c0-0.3,0.1-0.5,0.1-0.8c0.1-0.4,0.1-0.7,0.1-1.1c0-0.4,0-0.7-0.1-1
		c0-0.2-0.1-0.3-0.1-0.5c-0.1-0.9-0.2-1.8-0.2-2.6c0-0.4,0-0.7,0-1.1c0-0.2,0-0.4,0-0.6v-0.7c0-0.8,0-1.6,0-2.4
		c0.8-0.2,1.7-0.4,2.6-0.7c0.4-0.1,0.7-0.2,1-0.4c0.2-0.1,0.6-0.1,0.9-0.1c0.3,0.1,0.6,0.2,0.6,0.4c0.4,0.9,0.8,1.9,1.2,3
		c0.1,0.2,0.1,0.5,0.1,0.7c0,0.1,0,0.2,0,0.3l0.4,4.3C219.5,48.5,219.4,49.4,219.3,50.3z"/>
	<path class="st0" d="M202.3,66.8c-0.4-1.1-0.5-2.2-0.5-3.3c0-0.4,0-0.8,0-1.2c0-0.5,0-0.9,0-1.4c0-0.6-0.1-1.1-0.3-1.6
		c-0.4-1-0.5-2.1-0.6-3.3v-0.1c0-0.3,0-0.5,0-0.8c0-0.4,0.1-0.8,0-1.2c-0.2-1.5-0.2-3,0-4.5c0-0.1,0-0.1,0-0.2
		c0.1-0.5,0.2-1.1-0.4-1.8c0,0-0.1-0.2,0-0.4s0.4-0.7,0.2-1.2c-0.4-1.5-1.3-2.7-2.7-3.5c-0.8-1.2-2.2-1.5-3.4-1.8h-0.2
		c-0.4-0.1-0.8,0-1.1,0.2c-0.1,0.1-0.3,0.2-0.4,0.3c-0.2,0.1-0.4,0.3-0.6,0.4c-1.1,0.5-1.6,1.3-1.6,2.5c0,1,0,1.9,0,2.9
		c0,0.6,0,1.1,0,1.7c0,0.5,0,1.1,0,1.6c0,0.3,0,0.6,0,1c0,0.3,0,0.6,0,0.9c0,0.7,0,1.4,0,2.1c0,0.4,0.1,0.7,0.1,1
		c0.1,0.7,0.2,1.3,0.1,2c-0.1,0.7-0.1,1.4-0.1,2.1c0,0.3,0,0.5,0,0.8c0,0.5,0,1,0,1.6v1.6c0,0.7,0,1.4,0,2c0,0.4,0,0.8,0,1.2
		c0,0.3,0,0.7,0,1s0,0.7,0,1c0,0.2,0,0.4,0,0.6s0,0.4,0,0.5c0,0.2,0,0.5,0,0.7c0,0.1,0,0.3,0,0.4c0,0.2,0,0.4,0,0.6
		c0,0.3,0,0.7-0.1,1c0,0.5-0.1,1-0.1,1.5s0,0.9,0,1.4s0,1,0,1.4c0,0.8-0.1,1.6-0.2,2.6c-0.1,0.7-0.2,1.4-0.3,2.2
		c-0.3,1.4-0.4,2.6-0.3,3.9c0.1,1.3,0,2.6-0.1,3.8c0,0.4-0.1,0.9-0.2,1.3c-0.1,0.4-0.2,0.8-0.2,1.2c-0.1,0.5-0.1,1-0.1,1.4
		c0,0.3,0,0.5,0,0.8c0,0.1,0,0.3-0.1,0.4c0,0.2-0.1,0.3-0.1,0.5c-0.1,1-0.1,2-0.1,3c0,0.2,0,0.5,0,0.7c0,0.5,0,0.9-0.1,1.3
		c-0.4,1.5-0.6,3.1-0.7,4.9c0,0.4,0,0.7,0,1.1c0,0.5,0,0.9-0.1,1.4c0,0.6-0.1,1.3-0.2,1.9c0,0.4-0.1,0.8-0.1,1.2
		c-0.1,0.5-0.1,1.1-0.1,1.6c0,0.8,0,1.5,0,2.3v0.5c0,0.2,0,0.5,0,0.7c0,0.4,0,0.7,0,1.1c0,0.1,0,0.3,0,0.5s0,0.3-0.1,0.5
		c0,0.5,0,1.1,0,1.6c0,0.2,0,0.4,0,0.6c0,0.5-0.1,1.1,0.1,1.7c0.2,0.7,0.2,1.3-0.1,2.3c-0.1,0.5-0.1,1-0.1,1.6
		c0.1,0.5,0.8,0.9,1.2,1.1c0.7,0.2,1.3-0.2,1.6-0.5s0.6-0.8,0.8-1.3c0.1-0.4,0.1-0.7,0.2-1.1c0-0.1,0-0.3,0-0.4
		c0-0.3,0.1-0.6,0.1-0.9c0.1-0.7,0.2-1.3,0.2-2c0.1-0.7,0.1-1.4,0.1-2.1c0-0.3,0-0.6,0-0.8c0-0.1,0-0.2,0-0.3c0-0.1,0-0.2,0-0.3
		c0-0.5,0.1-1,0.1-1.4c0.1-0.9,0.1-1.8,0.2-2.7c0-0.2,0-0.4,0-0.6c0-0.1,0-0.2,0-0.3c0-0.5,0-1,0-1.6v-0.5c0-0.1,0-0.3,0-0.4
		c0-0.3,0-0.5,0-0.8c0.2-0.8,0.4-1.8,0.3-2.8v-0.1v-0.1c0.1-0.3,0.1-0.5,0.2-0.8c0.1-0.6,0.3-1.2,0.4-1.9c0.1-0.6,0.1-1.1,0.1-1.7
		c0-0.3,0-0.7,0-1.1c0-0.5,0.1-1,0.1-1.6c0.1-0.7,0.1-1.4,0.2-2.2c0-0.4,0-0.9,0-1.3c0-0.2,0-0.5,0-0.7c0.8-0.8,0.8-1.7,0.7-2.5
		c0-0.4,0-0.8,0.1-1.2c0.1-0.3,0.1-0.7,0.2-1.1c0-0.2,0.1-0.3,0.1-0.5l0.1-0.7h-0.2l0,0c0.3,0,0.5-0.1,0.7-0.1c0.1,0,0.1,0,0.2,0
		c0.2,0,0.5-0.1,0.7-0.2c0.4-0.1,0.7-0.2,1-0.2c0,0.2,0,0.4-0.1,0.6c-0.1,0.4-0.2,0.9-0.3,1.3c-0.2,0.8-0.3,1.5-0.4,2.3
		c-0.2,1.5-0.2,3.1-0.2,4.6c0,0.6,0,1.1,0,1.7c0,0.4,0,0.8,0,1.2c0,1.4,0,2.8,0,4.3v0.3c0,0.5,0,1.1-0.1,1.5
		c-0.3,1.3-0.1,2.6,0.2,3.8c0.2,0.7,0.2,1.2,0.2,1.7c0,0.4-0.1,0.8-0.1,1.2c0,0.2-0.1,0.3-0.1,0.5c-0.1,0.5-0.1,1.1-0.2,1.6
		c0,0.1,0,0.3-0.1,0.4c-0.1,0.3-0.1,0.6-0.1,0.9c0,0.5,0,1.1,0,1.6c0,0.2,0,0.4,0,0.7v1.3c0,1.1,0,2.2,0,3.3c0,0.1,0,0.2,0,0.3
		c0,0.2,0,0.5,0,0.7c-0.1,0.8,0.1,1.6,0.6,2.3c0.1,0.2,0.2,0.3,0.3,0.5c0.3,0.5,0.7,0.7,1,0.8c0.1,0,0.2,0,0.4,0
		c0.3,0,0.6-0.1,1-0.3c1.1-0.6,1.5-1.8,1-2.8l-0.1-0.1c0-0.1-0.1-0.2-0.1-0.2c0-1.6,0.1-3.2,0.1-4.9c0-0.4,0-0.8,0.1-1.3
		c0.1-0.8,0.1-1.5,0.1-2.3c0-0.7,0.1-1.4,0.2-2.2c0.1-0.7,0.2-1.3,0.3-2c0-0.4,0-0.7,0-1.1c0-0.6,0-1.2,0-1.9c0-0.4-0.1-0.8-0.1-1.2
		c0-0.3-0.1-0.6-0.1-0.9c0-0.2,0-0.4,0-0.6c0-0.3,0-0.6,0-0.9c0-0.4-0.1-0.8-0.1-1.2c-0.1-0.6-0.1-1.1-0.1-1.6
		c0-1.1,0.1-2.3,0.2-3.5v-0.3c0-0.4,0.1-0.8,0.2-1.3c0-0.3,0.1-0.5,0.1-0.8v-0.3c0.1-0.8,0.2-1.7,0.3-2.5c0.1-0.7,0.1-1.3,0.2-2
		c0-0.4,0.1-0.8,0.1-1.2c0.1-0.9,0.2-1.7,0.3-2.6c0-0.2,0-0.4,0.1-0.6c0-0.3,0.1-0.5,0.1-0.8c0-0.2-0.1-0.4-0.1-0.6v-0.1
		c0-0.1-0.1-0.1-0.1-0.2l0,0c0-0.1,0-0.2,0-0.3c0-0.4-0.1-0.7,0-1c0.1-0.4-0.1-0.8-0.2-1c-0.1-0.1-0.1-0.3-0.1-0.4
		c0.1-0.4,0.1-0.8,0-1.1c0-0.2,0-0.4,0-0.6s0-0.5,0.1-0.7c0-0.3,0.1-0.6,0.1-1s0-0.7,0-1s0-0.5,0-0.8c0-0.1,0-0.4,0.1-0.5
		c0.3-0.7,0.3-1.4,0.3-2c0-0.3,0-0.5,0-0.8c0-0.5,0.1-1,0.2-1.7c0-0.1,0.1-0.2,0.1-0.3c0.1-0.2,0.2-0.4,0.2-0.7
		c0.1-0.8,0.1-1.6,0-2.3C202.6,67.9,202.5,67.3,202.3,66.8z M197.9,74.2c0,0.5-0.3,1-0.5,1.6c-0.3,0.6-0.5,1.3-0.6,2
		c-0.1,0.8,0,1.7,0,2.5v0.5c0,0.8,0,1.6,0.1,2.4c0.1,0.5,0.2,0.9,0.4,1.3c-0.3,0-0.5,0-0.8,0.1c-0.5,0.1-1,0.1-1.5,0.2v-0.1
		c0-0.5,0.1-1,0.1-1.5c0.1-0.5,0.1-1,0.1-1.5s0-1-0.1-1.5v-0.3c-0.1-1.3-0.2-2.5,0.1-3.8c0.1-0.3,0.1-0.5,0.1-0.8
		c0-0.1,0-0.3,0.1-0.4c0.1-0.4,0-0.7,0-1.1c0-0.2,0-0.5,0-0.7c0.1-0.4,0-0.8-0.1-1.1c0-0.1,0-0.2,0-0.3c0-0.3,0-0.7-0.3-1.1
		c0-0.1,0-0.2,0.1-0.3c0-0.1,0.1-0.2,0.1-0.4c0-0.3,0.1-0.6,0.2-0.9c0.1-0.7,0.3-1.3,0.3-2c0-0.5-0.1-1.1-0.2-1.6
		c-0.1-0.3-0.1-0.6-0.1-0.8c-0.1-0.9-0.2-1.8-0.2-2.8c0-0.4-0.1-0.7-0.2-1.1c-0.1-0.4-0.2-0.7-0.2-1c0-0.6,0.1-1.3,0.2-2
		c0.1-1,0.2-2,0.2-3c0-1.4,0-2.8-0.1-4.1v-0.7c0-0.4-0.1-0.8-0.1-1.2s-0.1-0.8-0.1-1.1c0-0.6,0-1.3,0-1.9c0-0.4,0-0.8,0-1.2
		c0-0.1,0-0.2,0.1-0.3c0.1,0.1,0.3,0.3,0.5,0.4c0.1,0.1,0.2,0.2,0.3,0.3c0,0,0,0,0,0.1c0.1,0.7,0.5,1.3,1.1,1.9c0,0.1,0,0.2,0,0.4
		c0,0.5,0.1,0.9,0,1.4c0,0.4-0.1,0.9,0.4,1.5c0.1,0.2,0.2,0.3,0.2,0.4c0,0.4,0.1,0.7,0.2,1c0.1,0.3,0.2,0.7,0.2,0.9s0,0.4,0.1,0.5
		v0.1c-0.1,0.2-0.2,0.3-0.2,0.5c-0.3,0.6-0.6,1.3-0.5,2.1c0,0.2,0,0.5,0,0.8s-0.1,0.5,0,0.8c0,0.7,0.1,1.3,0.4,1.9
		c0.2,0.4,0.1,0.8-0.1,1.2c-0.1,0.3-0.1,0.6-0.2,0.9c0,0.2,0,0.3,0,0.4c0,0.1,0,0.2,0,0.2c0,0.3,0,0.7,0,1c0,0.7-0.1,1.4-0.1,2.1
		c0,0.4,0.1,0.9,0.1,1.3c0,0.2,0.1,0.4,0.1,0.6s0,0.5,0.1,0.7c0,0.3,0,0.5,0.1,0.8c0,0.5,0.2,1.1,0.3,1.6c0.2,0.8,0.4,1.6,0.2,2.3
		c-0.1,0.4,0,0.8,0,1.1C197.9,73.8,197.9,74.1,197.9,74.2z"/>
	<path class="st0" d="M165.1,67.3c0.1-0.3,0-0.6-0.1-0.8l-0.1-0.1c0-0.1,0-0.1,0-0.2s-0.1-0.3-0.1-0.3c0-0.1,0.1-0.2,0.1-0.3
		c0.1-0.3,0.2-0.6,0.1-0.9c0-0.2-0.1-0.5-0.1-0.7c-0.1-0.5-0.2-0.9-0.2-1.3c0-0.2,0-0.5,0-0.7c0-0.3,0-0.5,0-0.7
		c0.1-0.8,0.1-1.7-0.8-2.4c0-0.1-0.1-0.3-0.1-0.4c-0.1-0.2-0.1-0.5-0.2-0.7c-0.3-0.8-0.4-1.7-0.3-2.6v-0.1v-0.3c0-0.2,0-0.3-0.1-0.5
		c0-0.1,0-0.2-0.1-0.4c0-0.4-0.1-0.8-0.4-1.2c-0.6-0.9-1.4-1.6-2.4-2c-0.3-0.1-0.6-0.2-0.8-0.3c-0.3-0.1-0.5-0.2-0.7-0.3
		c-1.3-0.6-2.4-0.5-3.4,0.2c-0.6,0.4-1.2,0.5-2,0.6c-1.3,0.1-2.3,0.5-3.2,1.1c-0.1,0.1-0.2,0.1-0.3,0.2c-0.3,0.2-0.6,0.4-0.9,0.5
		c-0.5,0.1-1,0.4-1.4,0.6l-0.2,0.1c-0.8,0.4-1,1-0.6,1.7c0.2,0.4,0.3,1,0.4,1.5c0,0.2,0,0.5,0.1,0.8c0,0.3,0,0.6,0.1,1
		s0.2,0.8,0.3,1.2c0.1,0.2,0.1,0.5,0.2,0.7c0,0,0,0.1,0,0.2v0.1c0,0.1,0,0.2-0.1,0.3c0,0.2-0.1,0.4-0.1,0.7c0,0.5,0,1.1,0.1,1.7
		c0.1,0.8,0.2,1.6,0.4,2.4c0,0.1,0,0.2-0.1,0.3c-0.4,0.5-1,1.3-0.5,2.2c0.2,0.3,0.1,0.6,0,1c-0.1,0.2-0.1,0.4-0.1,0.6v0.1
		c0,1,0,2.1,0.4,3.2c0,0.1,0.1,0.3,0,0.6c0,0.3-0.1,0.5-0.2,0.8c-0.2,0.6-0.3,1.3-0.3,2c0,0.2,0,0.4,0,0.7c0,0.2,0,0.4-0.1,0.6
		c0,0.7,0,1.4,0,2.3c0,0.2,0,0.3,0.1,0.5c0,0.1,0,0.3,0,0.4c-0.1,0.3-0.1,0.6-0.2,1c-0.1,0.5-0.2,1-0.3,1.5
		c-0.2,1.7-0.3,3.4-0.4,5.1v0.5c0,0.5-0.1,1-0.1,1.5c0,0.8-0.1,1.6-0.2,2.4c-0.1,1.2-0.1,2.5,0.1,3.8c0,0.3,0.1,0.5,0.2,0.8
		c0,0.2,0.1,0.4,0.1,0.6c0.1,0.4,0.1,0.8,0.2,1.2v0.3c0,0.4,0.1,0.8,0.1,1.1c0,0.4,0,0.7-0.1,1.1c0,0.4-0.1,0.9-0.1,1.3
		c0,0.3,0,0.6,0.1,0.9c0,0.2,0.1,0.4,0.1,0.6c0,0.6-0.1,1.3-0.1,1.9c0,0.3-0.1,0.7-0.1,1s0,0.5,0,0.8v0.3c0,0.3,0,0.6,0,1
		c0,0.7,0,1.5,0,2.3c0,0.4,0,0.8,0.1,1.2c0,0.4,0.1,0.9,0.1,1.3c0,0.9-0.1,1.8-0.2,2.7c0,0.4-0.1,0.7-0.1,1.1
		c-0.1,0.6-0.2,1.2-0.2,1.7c0,1.2,0,2.3,0.1,3.4c0,0.3,0.1,0.5,0.1,0.8c0.1,0.5,0.2,0.9,0.1,1.3c-0.1,0.4,0,1,0.6,1.2
		s1.2,0.4,1.8,0.5c0.4,0.1,0.7,0.1,1,0.1c0.1,0,0.2,0,0.4,0h0.1c0.1,0,0.2,0,0.4,0c0.1,0,0.1,0,0.2,0c0.3,0,0.6-0.1,0.9-0.1
		c0.4,0,0.9-0.1,1.3-0.1c1,0,1.9-0.4,2.6-0.7c0.6-0.3,1.2-0.6,1.8-0.9c0.4-0.2,0.8-0.5,1.1-0.7c0.2-0.1,0.3-0.3,0.4-0.4
		c0.1-0.1,0.2-0.2,0.3-0.2c1-0.3,1.4-0.9,1.7-1.3l0.1-0.1c0.5-0.8,0.9-1.6,1.2-2.4l0.2-0.4c0.4-0.8,0.6-1.5,0.9-2.3v-0.1
		c0.2-0.4,0.3-0.8,0.4-1.3c0.1-0.5,0.1-0.9,0.1-1.4c0-0.1,0-0.2,0-0.4v-0.3c0.1-1.4,0.1-2.8,0.2-4.2c0-0.3,0-0.5-0.1-0.8
		c0-0.1,0-0.2,0-0.3c0-0.3-0.1-0.7-0.1-1c0-0.2,0-0.4,0-0.6c0-0.4-0.1-0.9-0.1-1.3c0-0.3,0.1-0.7,0.1-1c0.1-0.4,0.1-0.8,0.1-1.2
		c0-0.9,0-1.8,0-2.7c0-0.5,0-0.9,0-1.4c0-0.1,0-0.2,0-0.3c0-0.1,0-0.2,0-0.3c0-0.1,0-0.3,0-0.4c0-0.2,0-0.4,0-0.6
		c0.1-0.3,0.1-0.5,0.2-0.8c0.1-0.4,0.2-0.9,0.3-1.4c0-0.4,0-0.8,0-1.2c0-0.2,0-0.4,0-0.6v-0.7c0-1-0.1-2.1-0.1-3.1
		c0-0.9,0.1-1.9,0.1-2.8c0-0.1,0-0.3,0.1-0.4c0.1-0.2,0.1-0.5,0.1-0.8c0-0.4-0.1-0.8-0.1-1.2c0-0.3-0.1-0.6-0.1-1c0-0.1,0-0.3,0-0.5
		s0-0.3,0-0.5c0-0.4,0-0.7,0-1c0-0.2,0-0.3,0-0.5c0-0.1,0-0.2,0-0.3c0-0.1,0-0.1,0-0.2s0-0.3,0-0.4l0,0c0-0.4-0.1-0.8-0.1-1.2
		c0-0.2-0.1-0.3-0.1-0.4c0-0.2-0.1-0.3-0.1-0.4c0-0.4,0.1-0.8,0.1-1.2c0-0.3,0.1-0.5,0.1-0.8s0-0.6,0.1-0.9c0-0.3,0-0.6,0.1-0.9
		c0-0.2,0.1-0.5,0.1-0.7c0-0.3,0.1-0.6,0.1-0.9c0-0.2,0-0.4-0.1-0.5c0-0.1,0-0.1,0-0.2c0-0.6,0.1-1.1,0.1-1.7l0.1-0.5
		c0-0.5,0-0.9-0.1-1.3C165,68.2,164.9,67.7,165.1,67.3z M160.7,78.7L160.7,78.7L160.7,78.7c-0.1,0.4-0.2,0.7-0.3,1
		c-0.2,0.7-0.4,1.5-0.5,2.3s-0.1,1.6,0,2.4c0,0.4,0,0.7,0,1.1c0,0.3,0,0.5,0,0.8c0,0.4,0,0.8,0,1.3c0,0.4,0.1,0.7,0.1,1.1
		c0,0.5,0.1,1,0.1,1.5c0,0.8-0.1,1.6-0.2,2.5c-0.2,1-0.2,2,0,3.1c0.1,0.6,0,1.3,0,2v0.1c0,0.6-0.1,1.2-0.2,1.8
		c-0.1,0.7-0.1,1.5-0.2,2.2c-0.1,1.4-0.1,2.9-0.1,4.4c0,0.5,0,1,0.1,1.5c0,0.5,0.1,1,0.1,1.5c0,0.6-0.1,1.2-0.1,1.9
		c0,0.2-0.1,0.5-0.1,0.7v0.2c0,0.5-0.1,1.1-0.2,1.6c0,0.3-0.1,0.7-0.1,1c-0.1,0.8-0.2,1.6-0.4,2.3c-0.4,1.2-1.1,2.3-1.8,3.4
		l-0.2,0.3c-0.4,0.6-1.2,1.1-2.1,1.5l-0.1,0.1c-0.4,0.2-0.9,0.5-1.3,0.6c-0.4,0.1-0.9,0.2-1.4,0.3c-0.2,0-0.5,0.1-0.7,0.1
		c0,0,0,0,0-0.1c0-0.5,0-1,0-1.7v-0.3c0-0.8,0.1-1.6,0.2-2.4c0.1-1,0.1-1.8-0.2-2.6v-0.1c0-0.1,0-0.2,0-0.4c0-0.3,0-0.5,0-0.8
		c0-0.5-0.1-0.9,0-1.4c0-0.3,0.1-0.5,0.1-0.8c0-0.2,0.1-0.3,0.1-0.5v-0.1c0.2-1.3,0.4-2.6,0-4c-0.1-0.2-0.1-0.5,0-0.8
		c0-0.1,0-0.2,0-0.3c0-0.2,0-0.4,0-0.6c0-0.3,0-0.5,0-0.8c0-0.2,0-0.4-0.1-0.6c0-0.1,0-0.2-0.1-0.3c0-0.3-0.1-0.5,0-0.7
		c0-0.5,0.1-1,0.1-1.5s0.1-0.9,0.1-1.4c0-0.7-0.2-1.3-0.6-1.9v-0.1c0-0.1,0-0.2,0-0.2c0-0.2-0.1-0.4-0.1-0.6
		c-0.1-0.4-0.2-0.8-0.2-1.2c0.1-0.6,0.1-1.1,0-1.7c0-0.3,0-0.5-0.1-0.7c0,0,0-0.1,0.1-0.2c0.4-0.7,0.5-1.5,0.3-2.5
		c0-0.1,0-0.2,0-0.3c0-0.2,0-0.4,0-0.6c-0.1-0.3,0-0.6,0-0.9c0.1-0.6,0.1-1.2-0.2-1.9v-0.1v-0.1c0-0.3,0.1-0.6,0.1-0.8
		c0.1-0.5,0.2-1.1,0.2-1.6c0-0.4,0-0.8,0-1.1c0-0.3,0-0.6,0-0.9c0-0.5,0.1-0.8,0.2-1.2c0.1-0.3,0.2-0.5,0.3-0.8s0.3-0.6,0.4-0.9
		c0.1-0.3,0.2-0.7,0.2-1c0-0.1,0-0.3,0.1-0.4c0-0.1,0-0.1,0-0.2v-0.1c0.4-0.7,0.4-1.4,0.3-1.9v-0.1c0-0.1-0.1-0.3-0.1-0.3
		c0.2-0.8,0.1-1.5-0.2-2.2v-0.1c0.2-0.9,0.2-1.7-0.2-2.4c-0.1-0.2-0.2-0.3-0.3-0.4c0,0,0,0-0.1-0.1c0-0.2,0-0.5,0-0.8s0.1-0.6,0.2-1
		c0.1-0.6,0.3-1.3,0.2-2c0-0.2,0.1-0.5,0.2-0.7c0.2-0.3,0.3-0.7,0.3-1.1l0,0c0-0.1,0.1-0.3,0-0.6c-0.1-0.3-0.1-0.6-0.1-0.9
		c0-0.1,0-0.2,0-0.4c0-0.2,0-0.6-0.2-0.9c-0.4-0.6-0.5-1.3-0.3-2.1s0-1.5-0.1-2.2c0-0.1-0.1-0.3-0.1-0.4c-0.1-0.4-0.1-0.8-0.1-1.3
		c0-0.2,0-0.4,0-0.7c0-0.1,0-0.2,0-0.3s0-0.3,0-0.4c0-0.3,0-0.6,0-0.9l0.5-0.2c0.8-0.4,1.7-0.8,2.5-1.2c0.2-0.1,0.5-0.1,0.7-0.2
		c0.6-0.1,1.2-0.2,1.8-0.3l0.4-0.1l0,0c0.3,0.3,0.5,0.6,0.8,0.8l0.1,0.1c0.5,0.5,0.7,1.1,0.8,1.8l0.1,0.4c0.2,0.8,0.3,1.7,0.7,2.5
		c0.1,0.2,0.1,0.6,0.2,0.9c0,0.1,0,0.2,0,0.3v0.1c0.1,0.9,0.2,1.8,0.2,2.7c0,0.1,0,0.3-0.1,0.5s-0.1,0.5-0.1,0.8
		c0,0.5,0.1,0.9,0.2,1.3c0,0.2,0.1,0.3,0.1,0.5c0,0.1,0,0.2,0.1,0.3c0,0.2,0.1,0.3,0.1,0.4c0,0.7,0,1.2,0,1.8c0,0.7-0.1,1.3-0.2,1.9
		c-0.2,0.9-0.1,1.8,0.2,2.6c0.1,0.4,0.1,0.8,0.1,1.3V74c0,0.4,0,0.7,0,1c0,0.1,0,0.3,0,0.4v0.1c0,0.1,0,0.3,0,0.4v0.7
		c0,0.4,0,0.8,0.1,1.3C160.7,78.6,160.7,78.7,160.7,78.7z"/>
	<path class="st0" d="M89,63.4c0.4-0.6,0.9-1.2,1.4-1.7l0.3-0.3c0.1-0.1,0.3-0.2,0.5-0.4c0.4-0.3,1-0.7,1.1-1.4
		c0-0.1,0.1-0.2,0.1-0.4s0.1-0.4,0.1-0.5c0.5-1,0.7-2.1,0.8-3c0.1-0.7,0.3-1.2,0.8-1.7c0.2-0.2,0.3-0.5,0.3-0.7v-0.1
		c0-0.1,0-0.2,0.1-0.2c0-0.2,0.1-0.3,0.2-0.4c0.3-0.5,0.6-1,0.9-1.4c0.3-0.5,0.7-1,1-1.6c0.3-0.5,0.4-1,0.3-1.5s0-1,0.2-1.6
		c0.2-0.5,0.2-1,0.3-1.5c0-0.1,0-0.3,0-0.4c0-0.2,0-0.4,0-0.6c0-0.2,0-0.4,0-0.5c0.3-0.8,0.3-1.6,0.4-2.4c0-0.3,0.1-0.5,0.1-0.8
		c0-0.1,0-0.2,0.1-0.3c0-0.1,0-0.2,0.1-0.3c0.1-0.2,0.1-0.5,0.1-0.8c0-0.7-0.1-1.5-0.1-2.2c0-0.3,0-0.6-0.1-0.8c0-0.3,0-0.6,0-0.9
		c0-0.7-0.1-1.4-0.1-2.1c-0.1-0.8-0.2-1.5-0.4-2.3c0-0.2-0.1-0.4-0.1-0.6s-0.1-0.3-0.2-0.5c0-0.1-0.1-0.2-0.1-0.3
		c0.3-1,0.1-1.9-0.2-2.8v-0.2c0-0.1,0-0.3,0-0.4c0-0.2,0-0.3,0-0.5c-0.1-0.3-0.2-0.7-0.3-0.9c-0.1-0.1-0.1-0.3-0.2-0.4
		c0-0.1-0.1-0.2-0.1-0.2s0,0,0-0.1s0-0.3-0.1-0.5c-0.5-1.3-0.5-2.6-0.5-3.6c0-0.3-0.1-0.5-0.1-0.7c-0.1-0.2-0.2-0.5-0.2-0.7
		c-0.1-0.2-0.2-0.5-0.2-0.7s-0.1-0.3-0.1-0.5c-0.1-0.5-0.2-1.1-0.7-1.6c0-0.1,0-0.1,0-0.2l-0.1-0.3c-0.1-0.3-0.2-0.6-0.3-0.9
		c-0.1-0.4-0.3-0.7-0.5-1.1c-0.1-0.2-0.1-0.4-0.2-0.6c-0.2-0.6-0.5-1.4-1.3-1.9c0,0-0.1-0.1-0.1-0.2c-0.1-0.1-0.1-0.2-0.2-0.3
		c-0.3-0.5-0.6-1.2-1.6-1.6c-0.3-0.8-1.2-1.1-1.7-1.3c-0.2-0.9-0.6-1.3-1.8-1.6h-0.1c-0.2-0.1-0.4-0.2-0.6-0.4
		c-0.4-0.2-0.8-0.5-1.3-0.7c-0.5-0.3-1.1-0.5-1.7-0.6c-0.4-0.1-0.8-0.3-1.2-0.7c-1-0.8-2.3-1.1-3.5-1.4c-0.3-0.1-0.5-0.1-0.8-0.2
		s-0.6,0-0.8,0h-0.3c-0.5,0.1-1,0.1-1.5,0.1c-0.1,0-0.1,0-0.2,0c-0.2,0-0.5,0-0.8,0c-1,0.2-2.1,0.5-3.2,0.8
		c-0.2,0.1-0.5,0.1-0.7,0.2c-1,0.3-2,0.5-2.9,0.9c-1.4,0.6-3,1.3-4.3,2.5c0,0-0.1,0-0.1,0.1h-0.1c-1.5,0.9-2.3,2.2-3,3.2
		c-0.5,0.8-0.9,1.6-1.3,2.4c-0.2,0.5-0.5,1-0.8,1.5c-0.5,0.9-1,1.7-1.6,2.6c-0.2,0.2-0.3,0.5-0.5,0.7c-0.1,0.2-0.2,0.4-0.4,0.5
		c-0.5,0.8-1.1,1.7-1.3,2.6s-0.6,1.8-1.1,2.7c-0.1,0.2-0.2,0.3-0.3,0.5s-0.3,0.5-0.5,0.7s-0.4,0.5-0.6,0.8c-0.8,1.4-1.1,2.9-1.3,4.3
		c0,0.3-0.1,0.6-0.2,0.9c0,0.3-0.1,0.5-0.2,0.8c-0.1,0.5-0.2,1-0.3,1.5v0.1c-0.2,1.1-0.3,2.2-0.4,3.3c0,0.4,0,0.8,0,1.2
		c0,0.2,0,0.5,0,0.7c0,0.1,0,0.2,0,0.4s0,0.3,0,0.5s0,0.5,0.1,0.7c0,0.1,0,0.2,0,0.3v0.2c0.1,0.7,0.1,1.5,0.2,2.2
		c0,0.2,0.1,0.4,0.1,0.6c0.1,0.4,0.1,0.7,0,0.9c-0.1,0.3-0.1,0.6,0,0.8c0,0.1,0,0.1,0,0.2v0.5c0,0.5,0.1,1,0.1,1.5
		c0,0.3,0,0.5,0,0.8c0,0.4,0,0.8,0,1.2s0.1,0.7,0.1,1c0,0.1,0.1,0.3,0.1,0.4v0.3c0,0.1,0,0.2,0.1,0.3c0.1,0.4,0.2,0.8,0.3,1.2
		c0.2,0.6,0.4,1.3,0.3,1.9c0,0.2,0,0.4,0,0.5l0,0c0,0.3,0.1,0.5,0.2,0.8c0.1,0.6,0.2,1.2,0.3,1.8c0.1,0.7,0.3,1.5,1,2.2
		c0.6,0.6,1,1.4,1.3,2.2c0.1,0.4,0.3,0.8,0.5,1.2s0.4,0.8,0.5,1.2c0.3,1.2,1.1,2.3,2.2,3.3c0.3,0.3,0.6,0.6,0.9,0.9
		c0.3,0.3,0.6,0.6,1,0.9l0.2,0.2c0.3,0.3,0.6,0.6,1.1,0.9c1.2,0.7,2.3,1.2,3.4,1.8c1.4,0.7,2.9,1,4.4,1.1c0.5,0,1,0,1.5,0
		c0.8,0,1.5,0,2.3,0h0.2c0.1,0,0.3,0,0.4,0c0.3,0,0.7,0,1-0.1c1.1-0.2,2.2-0.4,3.3-0.8c1.2-0.3,2.4-0.7,3.5-1.1l0.8-0.3
		c0.7-0.2,1.5-0.5,2.2-0.8c0.9-0.4,1.6-1,2.3-1.5l0.1-0.1c0.1-0.1,0.2-0.2,0.3-0.2c0.4,0,0.7-0.2,0.8-0.4h0.1
		c0.2-0.1,0.4-0.2,0.6-0.3c0.2-0.2,0.3-0.3,0.3-0.4l0,0c0.8-0.6,1.1-1.4,1.5-2.1C88.8,63.8,88.9,63.6,89,63.4z M87.8,57.4
		c-0.5,0.4-0.8,0.9-1,1.3c-0.2,0.4-0.3,0.8-0.4,1.2c-0.2,0.6-0.4,1.1-0.6,1.6c-0.2,0.4-0.5,0.8-0.9,1.2c-0.2,0.3-0.5,0.6-0.7,0.9
		c-0.5,0.7-1.3,1.2-2.3,1.8l-0.1,0.1c-0.8,0.5-1.5,1-2.4,1.3c-1.4,0.6-2.7,1.1-4.2,1.5c-0.6,0.1-1.2,0.3-1.7,0.4
		c-0.8,0.2-1.5,0.4-2.2,0.5c-1.2,0.2-2.6,0.3-4.1,0.2c-0.8,0-1.5-0.4-2.2-0.8c-0.4-0.3-1-0.5-1.6-0.6c-0.3-0.1-0.5-0.3-0.8-0.7l0,0
		c-0.1-0.2-0.3-0.4-0.5-0.5c-0.4-0.3-0.9-0.6-1.4-0.9l-0.2-0.2c-0.9-0.6-1.4-1.4-1.7-2.5c-0.1-0.6-0.5-1.2-0.8-1.8
		c-0.1-0.2-0.2-0.3-0.2-0.5c-0.5-0.9-1-1.8-1.5-2.7c-0.2-0.3-0.4-0.6-0.6-0.9c-0.1-0.1-0.2-0.3-0.3-0.4c-0.3-0.4-0.5-0.8-0.8-1.2
		c0-0.2,0-0.5,0-0.7c0-0.5,0-1,0-1.5c0-0.2,0-0.4-0.1-0.6c0-0.2,0-0.4,0-0.6c0-0.4,0-0.8,0.1-1.2c0-0.2,0-0.5,0-0.7s0-0.3,0-0.5
		s0-0.3,0-0.5c0-0.4,0.1-0.8,0.1-1.2l0.1-0.6v-0.1c0-0.2,0-0.4-0.1-0.6c-0.1-0.5-0.1-1-0.2-1.5c0-0.1,0-0.3,0.1-0.5
		c0-0.2,0.1-0.3,0.1-0.5c0.1-1,1.3-2,1-2.9c-0.1-0.2,0-0.4,0-0.7c0-0.1,0-0.3,0-0.4c0-0.3,0-0.6,0-0.9c0-0.7,0-1.5,0-2.2
		c0-0.5-0.1-0.9-0.3-1.4c0-0.2-0.1-0.4-0.1-0.5c-0.1-0.3,0-0.6,0.1-0.8c0.6-1.2,1.2-2.5,1.8-3.8c0.2-0.4,0.2-0.8,0.2-1.1
		c0-0.2,0-0.4,0-0.5c0,0,0.1-0.1,0.1-0.2c0.1-0.1,0.1-0.2,0.2-0.4c0.2-0.5,0.3-0.8,0.4-1.2c0-0.2,0-0.3,0-0.5c0-0.1,0-0.2,0-0.2
		c0.1-0.3,0.2-0.6,0.3-0.9c0.1-0.5,0.3-1,0.6-1.4c0.2-0.2,0.3-0.5,0.1-0.8c0-0.1,0-0.1,0.2-0.4c0.1-0.1,0.2-0.3,0.3-0.5
		c0.3-0.7,0.3-1.3,0.7-2c0.2-0.4,0.8-0.9,1.1-1.3c0.3-0.6,0.7-1.2,1.2-1.8c0.3-0.4,0.5-0.7,0.8-1.1c0.8-1.2,1.5-2.5,2.2-3.7v-0.1
		c0.9-1.5,1.8-3,3.3-4c1.3-0.9,1.6-1.9,3.6-2.4c0.2-0.1,0.4-0.1,0.6-0.2c0.1,0,0.2-0.1,0.3-0.1c0.3-0.1,0.6-0.1,0.9-0.2
		s0.6-0.1,0.9-0.2c0.2-0.1,0.5-0.1,0.7-0.2c0.3-0.1,0.7-0.2,1-0.3l0,0c1.3,0.4,2.4,0.8,3.4,1.2c1.2,0.4,2.4,0.9,3.3,1.2l0.1,0.1
		c0.4,0.4,0.7,0.8,1,1.2c0.1,0.1,0.2,0.2,0.2,0.3c0.1,0.2,0.3,0.4,0.4,0.6c0.6,0.7,1.3,1.3,1.9,1.9l0.3,0.3c0.1,0.1,0.3,0.3,0.7,0.5
		c0.6,0.2,0.8,0.6,0.9,1.5c0.1,1.1,0.4,2.2,0.8,3.4l0.1,0.2c0.5,1.4,1,2.7,1.1,4c0,0.6,0.2,1.1,0.4,1.6c0.1,0.3,0.2,0.6,0.3,0.9
		c0.2,1.1,0.5,2.3,0.6,3.4c0.2,1.5,0.3,3,0.4,4.5l0.1,1.4c0.1,1.5,0.2,3,0.3,4.5c0,1.2,0,2.5-0.1,3.8c0,0.4,0,0.7-0.1,1.1
		c0,0,0,0.1-0.1,0.2c-0.1,0.1-0.1,0.3-0.1,0.5c0,0.3,0,0.6,0,1c0,0.3,0,0.6,0,0.8s0,0.3,0,0.5c0,0.6,0,1.2-0.3,1.7
		c-0.5,1-0.9,2.1-1.1,3.4c0,0.3-0.2,0.7-0.4,1.1c-0.1,0.2-0.2,0.4-0.3,0.6c-0.1,0.3-0.3,0.6-0.4,0.9c-0.1,0.2-0.2,0.4-0.3,0.6
		c-0.1,0.1-0.1,0.2-0.2,0.4c0,0.1-0.1,0.1-0.1,0.2c-0.1,0.2-0.2,0.4-0.3,0.6C89.1,56,88.6,56.7,87.8,57.4z"/>
	<path class="st0" d="M184.8,85.7c0-0.5-0.1-1-0.1-1.4c0-0.3-0.1-0.5-0.2-0.7c0-0.1-0.1-0.1-0.1-0.2l-0.2-0.6l0,0v-0.1
		c-0.1-0.2-0.1-0.4-0.2-0.6c-0.1-0.3-0.2-0.5-0.2-0.7v-0.3l-0.2-0.2c-0.2-0.3-0.2-0.5,0.1-1.1c0-0.1,0.1-0.2,0.1-0.2
		c0.1-0.2,0.2-0.4,0.3-0.6c0.2-0.4,0.4-0.9,0.5-1.4c0.3-1.4,0.2-2.6-0.3-3.6c0-0.1-0.1-0.2-0.1-0.3c-0.1-0.2-0.2-0.4-0.3-0.6
		c-0.1-0.1-0.2-0.3-0.2-0.4c-0.1-0.1-0.2-0.3-0.2-0.3c0-0.1,0-0.2,0-0.4c0-0.1,0-0.1,0-0.2v-0.4c0-0.4,0-0.8,0.1-1.2
		c0-0.2,0.1-0.4,0.1-0.7c0.1-0.3,0.2-0.7,0.2-1c0-0.4,0-1.1-0.4-1.6c-0.3-0.4-0.4-0.7-0.4-1.1c0-0.3,0-0.7,0-1.1c0-0.1,0-0.3,0-0.4
		c0-0.3,0-0.5,0-0.8c0-0.6-0.1-1.2,0-1.8c0.1-0.5,0.2-1,0.3-1.5c0.1-0.4,0.2-0.7,0.3-1.1c0.1-0.4,0-0.7-0.1-1c0-0.1,0-0.1,0-0.2
		c0-0.3-0.1-0.6-0.2-0.9c-0.1-0.4-0.1-0.8-0.2-1.1c0-0.2,0-0.4,0-0.7c0.1-0.5,0.1-1.2-0.3-1.8c-0.1-0.1-0.2-0.2-0.3-0.3
		s-0.2-0.3-0.2-0.3c-0.2-0.7-0.2-1.3-0.3-2v-0.1v-0.1c0-0.2,0.1-0.4,0.1-0.6c-0.1-0.5-0.2-1-0.3-1.4c-0.1-0.3-0.1-0.6-0.2-0.9
		c0-0.1,0-0.2,0-0.3c0.4-1.4-0.4-2.1-1.2-2.4c-0.5-0.2-0.9-0.4-1.4-0.5l-0.2-0.1c-0.3-0.1-0.6-0.1-0.9,0.1c-0.2,0-0.6,0-0.9,0.2
		c-0.2,0.1-0.4,0.2-0.6,0.4c-0.7,0.4-1.4,0.8-1.9,1.5c-0.4,0.6-0.8,1.3-0.8,2.1c0,0.4-0.1,0.8-0.2,1.1c-0.1,0.2-0.1,0.4-0.2,0.6
		c-0.1,0.4-0.3,0.8-0.3,1.2c-0.1,0.8-0.2,1.6-0.3,2.4c-0.1,0.6-0.1,1.3-0.2,2c-0.1,0.6-0.2,1.3-0.3,1.9c-0.1,0.3-0.1,0.6-0.2,0.9
		l-0.1,0.8c-0.2,1-0.4,2-0.5,3.1c-0.1,0.3-0.1,0.6-0.2,0.9l-0.1,0.3c0,0.1-0.1,0.2-0.1,0.4c-0.1,0.3-0.1,0.6-0.2,0.9
		c-0.1,0.8-0.1,1.7-0.2,2.5v0.6c0,0.4-0.1,0.9,0,1.4c0,0.2,0,0.5,0,0.7c0.1,0.9,0.1,1.8-0.1,2.7c-0.1,0.4-0.1,0.8,0,1.3
		c0,0.3,0.1,0.6,0.2,0.9c0.1,0.3,0.1,0.5,0.2,0.7c0,0.1,0,0.2-0.1,0.3c-0.1,0.2-0.2,0.5-0.2,0.8c0,0.4-0.1,0.8-0.2,1.2
		c-0.1,0.3-0.1,0.6-0.2,0.9c-0.1,0.7-0.1,1.3-0.1,2c0,0.3,0,0.5,0.1,0.7c0,0.2,0.1,0.5,0,0.7c0,0.3-0.1,0.6-0.1,1
		c-0.1,0.9-0.3,1.8-0.1,2.7c0.1,0.3,0.1,0.7,0,0.9c-0.4,1.2-0.5,2.3-0.5,3.3c0,0.1,0,0.3,0,0.4c-0.1,0.4-0.1,0.8,0,1.2
		c0.2,0.6,0.1,1.2,0.1,1.9c0,0.3-0.1,0.6-0.1,0.8c0,0.6-0.1,1.3-0.1,1.9c0,0.5-0.1,1-0.1,1.5c0,0.3,0,0.6,0,0.8c0,0.2,0,0.3,0,0.5
		c0,0.4,0,0.8,0,1.2c0,0.2,0,0.4,0,0.6c0,0.1,0,0.2,0,0.2c0,0.1,0,0.1,0,0.2c0,0.3-0.1,0.7-0.1,1c-0.1,0.7-0.2,1.4-0.2,2.1
		c0,0.5,0,1.1,0,1.6c0,0.4,0,0.8,0,1.2c0,0.2,0,0.5-0.1,0.8c0,0.2-0.1,0.5-0.1,0.8c0,0.6-0.1,1.2-0.1,1.8c0,0.8-0.1,1.7-0.1,2.5
		c-0.1,0.9-0.2,1.7-0.3,2.6c-0.1,0.6-0.1,1.1-0.2,1.7c-0.1,0.7-0.1,1.5-0.2,2.3c0,0.4,0,0.8,0,1.2c0,0.4,0,0.8,0,1.2
		c0,0.4,0,0.8-0.1,1.1c0,0.5-0.1,1.1-0.1,1.6c0,0.4,0.3,0.9,0.7,1.2c0.3,0.2,0.7,0.3,1.1,0.3c0.1,0,0.3,0,0.4,0
		c0.9-0.2,1.7-1.2,1.7-2c0-0.1,0-0.3,0-0.4v-0.1c0-0.1,0-0.2,0.1-0.3c0-0.2,0.1-0.3,0.1-0.5c0-0.3,0-0.7,0.1-1
		c0-0.6,0.1-1.1,0.1-1.7c0-0.3,0.1-0.7,0.2-1.1c0.1-0.4,0.2-0.8,0.2-1.2c0.1-1,0.2-2,0.3-3c0-0.6,0.1-1.1,0.1-1.7
		c0-0.2,0-0.4,0.1-0.6c0-0.3,0.1-0.6,0.1-0.9c0-0.8,0-1.6,0-2.5c0-0.3,0-0.6-0.1-0.9c-0.1-0.5-0.1-0.9,0-1.3
		c0.2-0.8,0.2-1.7,0.2-2.5c0-0.3,0-0.6,0-0.8c0-0.1,0-0.2,0-0.3c0-0.1,0-0.2,0-0.3c0-0.2,0.1-0.3,0.1-0.5c0.2-0.9,0.3-1.7,0.1-2.7
		c-0.1-0.2-0.1-0.4-0.1-0.7c0-0.1,0-0.2,0-0.3c0-0.6-0.1-1.3-0.1-1.9c0-0.1,0-0.1,0-0.2s0-0.2,0-0.3l0.1-0.3c0.3-1,0.5-2.1,0.4-3.2
		c0-0.3,0-0.7,0-1.1c0-0.3,0-0.5,0-0.8c0-0.2,0-0.3,0-0.5c0.1,0,0.1,0,0.2-0.1c0.6-0.2,1.1-0.3,1.6-0.5c0.5-0.1,1-0.3,1.4-0.4
		c0.7-0.2,1.4-0.5,2-0.5c0.3,0,0.7-0.1,0.9-0.4c0.1,0,0.2,0,0.3,0h0.1c0,0,0,0,0.1,0c0,0.1,0,0.3,0.1,0.4c0.1,0.4,0.1,0.7,0.1,1
		c-0.1,1.1-0.2,2.3-0.3,3.4l-0.1,0.6c0,0.4-0.1,0.8-0.2,1.2c0,0.2-0.1,0.5-0.1,0.7c0,0.3-0.1,0.6-0.1,0.9c-0.1,0.8-0.2,1.6-0.3,2.4
		c0,0.5,0,0.9,0,1.4c0,0.3,0,0.7,0,1c0,0.5-0.1,1-0.1,1.5c0,0.4-0.1,0.7-0.1,1.1v0.1c0,0.3-0.1,0.7,0.1,1.1c0.4,0.8,0.3,1.6,0.2,2.4
		c0,0.3-0.1,0.6-0.1,0.9c0,0.6,0,1.3,0,1.9v0.3c0,0.3,0,0.7,0,1c0,0.6,0.1,1.1,0,1.7c-0.1,0.8-0.2,1.6-0.3,2.3
		c-0.1,0.5-0.2,1.1-0.2,1.7c-0.1,0.5,0,0.9,0,1.4v0.3c0,0.1,0,0.3,0,0.4c0,0.4,0,0.9,0.1,1.4c0.3,0.9,0.3,1.7,0.1,2.4
		c-0.4,1.2,0.3,1.7,0.8,2c0.7,0.4,1.4,0.4,2.1,0.1c0.7-0.4,1.2-1.2,1-1.9c-0.1-0.8-0.1-1.4,0-2.1c0.1-0.6,0.2-1.2,0.2-1.8
		c0-0.5,0-0.9,0-1.4c0-0.2,0-0.4,0-0.6c0-0.3,0-0.7,0-1v-3.8c0-0.4,0-0.9,0-1.3c0-0.3,0-0.7,0-1c0-0.6,0-1.2,0-1.8
		c0-0.3-0.1-0.5-0.1-0.8c0-0.2-0.1-0.4-0.1-0.6c0-0.3,0-0.7,0.1-1c0-0.2,0.1-0.4,0.1-0.6v-0.2c0-0.4,0.1-0.9,0.1-1.3
		c0-0.3,0-0.6,0-1s0-0.8,0-1.1c0-0.3,0-0.5,0.1-0.8c0-0.3,0.1-0.6,0.1-1c0-0.6,0-1.1,0-1.7c0-0.8,0-1.7,0.1-2.5c0-0.6,0.2-1.3,0.3-2
		c0.1-0.3,0.1-0.6,0.2-0.9l0.1-0.8c0.1-0.7,0.2-1.3,0.3-2c0.2-1.2,0.2-2.4,0-3.6C184.9,86.9,184.8,86.3,184.8,85.7z M173.9,87.6
		c0.1-0.6,0.1-1.2,0.2-1.8l0,0c0.1-0.9,0.2-1.8-0.2-2.9c-0.2-0.5,0-1.1,0.2-1.6c0.3-0.9,0.1-1.7,0-2.4l-0.1-0.3c0-0.1,0-0.1,0-0.1
		c0-1.2,0.2-2.1,0.6-2.9c0.6-1.3,0.6-2.5,0.1-3.6c-0.1-0.3-0.1-0.7-0.1-1.2c0.1-0.8,0.2-1.6,0.4-2.4c0-0.3,0.1-0.6,0.1-0.9
		c0.1-0.3,0.1-0.6,0.2-0.9c0.1-0.6,0.2-1.3,0.3-2c0-0.4,0-0.8,0-1.2c0-0.3,0-0.5,0-0.8c0-0.2,0.1-0.5,0.1-0.8c0-0.2,0.1-0.4,0.1-0.6
		c0-0.3,0.1-0.6,0.2-0.9c0.1-0.6,0.2-1.2,0.2-1.8c-0.1-0.9,0-1.8,0.3-2.8l0.1-0.3c0.3-1,0.5-2.1,0.6-3.2c0-0.2,0-0.5-0.1-0.7
		c-0.1-0.4,0-0.7,0.2-1s0.5-0.6,0.7-1c0.1,0.4,0.2,0.8,0.5,1.1c0.2,0.3,0.2,0.6,0.3,1c0,0.2,0,0.4,0,0.6c0.1,0.7,0.1,1.3,0.1,2
		s0,1.3,0.1,2c0,0.3,0.1,0.5,0.1,0.8c0.1,0.5,0.2,1,0.2,1.4c0,0.3,0,0.6-0.1,0.9c-0.1,0.9-0.1,1.7-0.1,2.6c0,0.8,0.1,1.6,0.2,2.3
		c0.1,0.6,0.1,1.2,0.2,1.8c0,0.2,0,0.5-0.1,0.7c0,0.2-0.1,0.5-0.1,0.7c0,0.5,0,1-0.1,1.5c0,0.4,0,0.8,0,1.2c0,0.5,0,1,0.1,1.4
		c0.1,0.6,0.2,1.2,0,1.7c-0.2,0.6,0,1.1,0.1,1.6c0,0.2,0.1,0.4,0.1,0.5c0,0.3,0.1,0.7,0.1,1c0.1,0.6,0.2,1.3,0.2,1.9
		c0,0.2,0,0.4-0.1,0.6c0,0.2-0.1,0.5-0.1,0.7c0,0.6,0,1.1,0.1,1.6v0.2c0,0.2,0.1,0.4,0.1,0.6s0.1,0.3,0.1,0.5
		c0.1,0.9,0.2,1.8,0.3,2.7v0.2L173.9,87.6z"/>
	<path class="st0" d="M143.8,62.6c-0.1-0.3-0.2-0.6-0.3-0.9c0-0.1-0.1-0.2-0.1-0.3s0-0.2,0-0.3c0-0.3-0.1-0.6-0.4-1
		c-0.5-0.6-1.2-1.2-2.1-2c-0.3-0.3-0.8-0.5-1.4-0.6c-1.1-0.2-2.1,0-2.9,0.3c-0.3,0.1-0.6,0.2-0.8,0.2c-0.5,0.1-0.9,0.2-1.3,0.3
		l-0.4,0.1c-0.1,0-0.2,0-0.3,0.1c-0.3,0.1-0.6,0.1-0.9,0.3c-0.2,0.1-0.5,0.2-0.7,0.3c-0.9,0.4-1.6,0.8-2.5,0.7c-0.4,0-0.8,0.1-1,0.2
		c-0.1,0.1-0.3,0.1-0.5,0.2c-0.5,0.2-1,0.5-1.4,0.8c-1.1,0.9-1.5,2-1.1,3.2c0,0.1,0,0.3,0,0.5c0,0.3-0.1,0.7-0.2,1
		c-0.1,0.6-0.2,1.2-0.3,1.9c0,0.5,0,1,0.1,1.4c0,0.2,0.1,0.5,0.1,0.7c0.1,0.7,0.1,1.5,0.2,2.2c0.1,0.8,0.1,1.6,0.2,2.4
		c0,0.3,0.1,0.5,0.1,0.8c0,0.2,0.1,0.3,0.1,0.5v0.3c0,0.3,0.1,0.6,0.1,0.9s0,0.7,0,1c0,0.4,0,0.8,0,1.3c0,0.4,0,0.9,0.1,1.3
		c0,0.5,0.1,0.9,0.1,1.4c0,0.8-0.1,1.6-0.2,2.4c0,0.4-0.1,0.8-0.2,1.2c-0.1,0.7-0.2,1.5-0.2,2.3c0,1,0,2,0.1,3
		c0,0.6,0.1,1.1,0.1,1.7c0,0.4,0,0.8,0,1.2c0,0.6,0,1.1,0,1.7s0.1,1.2,0.2,1.7c0.1,0.3,0.1,0.6,0.1,0.9c0,0.2,0.1,0.4,0.1,0.6
		c0.1,0.5,0.2,0.9,0.1,1.3c-0.1,1.5-0.1,2.7,0.3,3.8v0.1c0,0.1,0.1,0.2,0.1,0.2v0.5c0,1.1,0,2.2,0,3.3c0,0.4-0.1,0.8-0.1,1.3
		c0,0.2-0.1,0.4-0.1,0.6s0,0.4-0.1,0.6c-0.1,0.4-0.1,0.9-0.1,1.4c0,0.6-0.1,1.2-0.1,1.8c0,0.3,0,0.5,0,0.8c-0.1,1.7,0,3.4,0.3,5.6
		c0.1,1,0.2,2,0.3,3v0.3c0,0.1,0,0.2,0,0.4c0,0.2-0.1,0.3,0,0.5c0,0.1,0,0.2,0,0.3c0,0.5-0.1,1.2,0.5,1.8c0.4,0.4,1,0.6,1.6,0.5
		s1-0.3,1.3-0.7c0.2-0.3,0.3-0.7,0.4-1.2l0.1-0.4c0.1-0.7,0.2-1.4,0.2-2.1c0-0.6-0.1-1.1-0.1-1.6c-0.1-0.5-0.1-0.9-0.1-1.4
		s0-1,0-1.5c0-0.4,0-0.7,0-1.1s0-0.8-0.1-1.1c0-0.2,0-0.4,0-0.6c0-0.3,0-0.7-0.1-1c0-0.4,0-0.7-0.1-1.1c0-0.3,0-0.6-0.1-0.8
		c0-0.3,0-0.6-0.1-0.9c0-0.2,0-0.4-0.1-0.6c0-0.4-0.1-0.8,0-1.2c0.3-1.1,0.3-2.1,0.3-3.1c0-0.3,0-0.6,0-0.8c0-0.4,0-0.9,0-1.3
		c0-0.2-0.1-0.5-0.1-0.7c0-0.1-0.1-0.2-0.1-0.3c0-0.4-0.1-0.8-0.1-1.2c0-0.3,0-0.6-0.1-0.8c0-0.4-0.1-0.7-0.1-1.1s-0.1-0.8-0.1-1.2
		c0-0.3,0-0.6-0.1-0.9c0-0.1,0-0.1,0-0.2h0.1c1.2-0.1,2.1-0.4,2.6-1c0.3-0.3,0.6-0.4,1.2-0.5h0.2c0.3,0,1.2,0.3,1.4,0.5
		c0.1,0.2,0.3,0.5,0.4,0.8c0.1,0.2,0.2,0.3,0.3,0.5c0.1,0.1,0.1,0.2,0.2,0.3c0.1,0.1,0.2,0.2,0.2,0.4c0.2,0.4,0.4,0.8,0.5,1.1
		c0,0.1,0,0.1,0.1,0.2c0,0.2,0.1,0.4,0.2,0.6c0.7,1.2,0.8,2.5,0.5,4.2c-0.2,1.1-0.2,2.2-0.1,3.3c0.1,0.4,0.1,0.8,0.1,1.2
		c0,0.3,0,0.5,0,0.8s0,0.7,0,1.1c0,0.8,0.1,1.6,0.2,2.3v0.6c0,0.1,0,0.3,0.1,0.4c0,0.2,0.1,0.4,0,0.6c0,0.3-0.1,0.5-0.2,0.8
		c-0.1,0.4-0.2,0.7-0.2,1.2c-0.1,0.9-0.1,1.8-0.1,2.7c0,0.6,0.1,1.2,0.2,1.8c0.1,0.4,0.1,0.8,0.2,1.3v0.2c-0.1,0.3-0.2,0.7,0.1,1
		c0.1,0.1,0.1,0.3,0.1,0.6c0.1,0.5,0.1,1.1,0.8,1.6c0.1,0.1,0.1,0.1,0.2,0.2c0.2,0.2,0.5,0.5,1,0.6l0.4,0.1l1.7-0.9V126
		c0-0.1,0-0.2,0-0.3c0-0.2,0-0.4,0.1-0.6c0.2-0.7,0.1-1.3,0-1.8c0-0.1-0.1-0.2-0.1-0.4c-0.1-0.6-0.2-1.2-0.2-1.8
		c0-0.4,0.1-0.8,0.2-1.2c0-0.2,0.1-0.4,0.1-0.6c0-0.3,0.1-0.6,0.1-0.9c0.1-0.6,0.2-1.1,0.3-1.7c0-0.2,0.1-0.5,0.1-0.7
		c0.1-0.3,0.1-0.6,0.2-0.9c0.1-0.7,0.2-1.4,0.2-2s0.1-1.3,0.1-2.1c0-0.4,0-0.8-0.1-1.1c0-0.3-0.1-0.5-0.1-0.8
		c-0.1-0.4-0.2-0.7-0.2-1.1s0-0.8,0-1.2c0-0.5,0-0.9,0-1.4c-0.1-0.9-0.2-1.9-0.4-3c-0.1-0.4-0.2-0.8-0.3-1.1
		c-0.1-0.3-0.2-0.5-0.2-0.7c-0.1-0.3-0.1-0.7-0.2-1c-0.1-0.6-0.2-1.2-0.5-1.8c-0.5-1.4-1.3-2.4-2.5-3.1c0-0.5-0.2-1-0.8-1.3l0.2-0.2
		c0.1-0.1,0.2-0.2,0.3-0.2c0.3-0.2,0.6-0.5,0.8-0.8c0.1-0.2,0.3-0.5,0.5-0.7c0.4-0.6,0.9-1.2,1-2l0.1-0.1c0.3-0.4,0.8-1.1,0.4-2.1
		c-0.1-0.1-0.1-0.2-0.1-0.3c0.1-0.3,0.1-0.5,0.2-0.8c0.2-0.8,0.3-1.6,0.6-2.4c0.1-0.4,0.2-0.8,0.2-1.3c0-0.2,0.1-0.4,0.1-0.7
		c0.1-0.7,0.2-1.3,0-2c-0.1-0.5,0-0.9,0.2-1.4c0.1-0.2,0.1-0.4,0.2-0.6c0-0.1,0.1-0.3,0.3-0.5c0.1-0.1,0.2-0.2,0.2-0.4
		c0.1-0.1,0.1-0.3,0.1-0.4l0.1-0.5c0.1-0.5,0.1-1,0.2-1.5v-0.2c0-0.4,0.1-0.9,0.1-1.3c0-0.6,0-1.1-0.1-1.7c0-0.8-0.1-1.6-0.1-2.4
		c0-0.3,0.1-0.7,0.1-1c0.1-0.3,0.1-0.5,0.1-0.8c0.1-0.6,0.1-1.2,0.1-1.9c0-0.1,0-0.2,0-0.3c0-0.1,0-0.3,0-0.3
		C144.2,63.8,144,63.1,143.8,62.6z M138.9,71.7L138.9,71.7c-0.1,0.5-0.1,1-0.2,1.4c-0.1,0.8-0.2,1.6-0.3,2.4
		c-0.1,1.5-0.3,2.7-0.6,3.8c-0.2,0.8-0.3,1.7-0.5,2.5V82c-0.1,1-0.3,1.9-0.4,2.9c-0.1,0.6-0.2,1.2-0.2,1.8v0.1
		c-0.6,0.9-0.8,1.8-1,2.7v0.1c-0.2,0.7-0.6,1.2-1.3,1.6c-0.6,0.3-1.2,0.7-1.7,1c-0.4,0.2-0.7,0.4-1,0.6h-0.1c-0.6-0.1-1.1,0-1.7,0.1
		c0-0.4,0.1-0.8,0.1-1.1v-0.4c0-0.1,0-0.3,0-0.4c0-0.2,0-0.4,0.1-0.6c0-0.4,0.1-0.9,0.1-1.3v-0.6c0-0.2,0-0.4,0-0.6
		c0-0.4,0.1-0.9,0.1-1.4c-0.1-1.3-0.2-2.3-0.3-3.3c-0.1-0.4-0.2-0.7-0.3-1.1c-0.1-0.3-0.2-0.5-0.2-0.8c0-0.2,0-0.4,0.1-0.6
		c0-0.1,0.1-0.3,0.1-0.4v-0.1c0-0.1,0-0.2,0-0.3v-0.5c0.1-0.6,0.1-1.2,0.2-1.7c0-0.2,0-0.4-0.1-0.5c0-0.1,0-0.1,0-0.2
		c0-0.4,0-0.7,0-1.1s0-0.9,0-1.3c0-0.9,0-1.8,0-2.7c0-0.2-0.1-0.5-0.2-0.6c0,0,0-0.1-0.1-0.1v-0.1V71c0-0.2,0-0.4,0-0.7
		c0-0.7-0.1-1.3-0.1-1.9c0-0.3,0.1-0.6,0.1-0.9c0.1-0.3,0.1-0.6,0.2-1c0-0.6,0-1.1,0-1.6c0-0.2,0-0.4,0-0.6c0-0.3-0.1-0.4-0.2-0.6
		c0,0,0-0.1,0.1-0.1c0.3-0.5,0.8-0.6,1.7-0.8l0.3-0.1c0.9-0.2,1.8-0.4,3-0.8c0.5-0.2,1-0.3,1.4-0.5c0.2-0.1,0.4-0.2,0.6-0.2l0,0
		c0.1,0,0.3,0,0.4,0c0.4,0,0.8,0,1.2,0c0.1,0,0.1,0.1,0.2,0.2c0.7,1.7,0.9,3,0.8,4.3c-0.1,0.8,0,1.6,0,2.4c0,0.5,0,0.9,0,1.4
		C139.1,70.5,139,71.1,138.9,71.7z"/>
	<path class="st0" d="M84.1,73.1c-0.1-0.1-0.4-0.4-0.8-0.5c-0.5,0-0.8,0.2-0.9,0.3l0,0c-0.8-0.1-1.5,0.2-1.7,0.8v0.1
		c-0.2,0.5-0.4,1.1-0.3,1.6c0.1,0.6-0.1,1.3-0.3,1.9c-0.2,0.7-0.5,1.7-0.2,2.8c0.2,0.7,0.2,1.2,0.3,1.7c0,0.3,0,0.7,0,1.1
		c0,0.3,0,0.5,0,0.8s0,0.5,0,0.8c0,0.2,0,0.4,0,0.7c0,0.3,0,0.5,0,0.8c0,0.6,0,1.3,0.1,1.9c0.2,0.9,0.4,1.9,0.3,2.9l-0.1,0.5
		c-0.1,0.7-0.1,1.4-0.1,2.1c0,0.6,0,1.2,0.1,1.8c0,0.5,0.1,0.9,0.1,1.4c0,1.1,0,2.3,0,3.4c0,0.5-0.1,1-0.2,1.5c0,0.1,0,0.3-0.1,0.4
		c0,0.3-0.1,0.7-0.1,1c-0.1,0.7-0.2,1.4-0.2,2.1s0,1.4,0.1,2c0,0.3,0.1,0.7,0.1,1s0,0.7,0,1.1c0,0.3,0,0.6,0,0.9s0,0.5,0,0.8
		c0,0.2,0,0.5,0,0.7c0,0.4,0,0.7,0,1.1c0,0.2-0.1,0.5-0.1,0.7c0,0.1-0.1,0.3-0.1,0.4c-0.1-0.3-0.2-0.6-0.4-0.9
		c-0.1-0.2-0.2-0.5-0.3-0.7c-0.7-1.4-1.3-2.7-0.9-4.1c0-0.1,0-0.3,0-0.5c0-0.1-0.1-0.3-0.1-0.4c-0.1-0.2-0.1-0.5-0.2-0.7
		c0-0.1-0.1-0.3-0.1-0.4c-0.1-0.3-0.2-0.7-0.1-0.9c0.1-1-0.2-1.9-0.5-2.6l-0.1-0.1c-0.1-0.3-0.3-0.6-0.3-0.9c0-0.1,0-0.1,0-0.2
		c0-0.5-0.1-1.1-1-1.5c-0.1-0.1-0.3-0.2-0.4-0.3c-0.2-0.2-0.3-0.3-0.4-0.5c-0.5-0.9-1.3-0.6-2-0.3h-0.1c-0.2,0.1-0.8,0.3-1,0.7
		c-0.5,1.2-0.5,2.5-0.5,3.7c0,0.1-0.1,0.4-0.2,0.6c-0.2,0.3-0.4,0.7-0.4,1.1c0,0.3,0,0.6,0,0.9s0,0.6,0,0.9s-0.2,0.7-0.3,1
		c-0.2,0.4-0.4,0.9-0.4,1.5c0,0.1,0,0.2-0.1,0.3c0,0.1,0,0.2,0,0.2c0,0.2-0.1,0.3-0.1,0.5c-0.1,0.4-0.1,0.8-0.2,1.3
		c0,0.3,0,0.6,0,0.9c0,0.2,0,0.3,0,0.5c-0.1-0.4-0.2-0.8-0.4-1.1c-0.2-0.4-0.2-0.9-0.2-1.4c0-0.1,0-0.2,0-0.3c0-0.8,0-1.6,0.1-2.4
		c0-0.4,0-0.8,0.1-1.2c0-0.2,0-0.4-0.1-0.5v-0.1c0-0.1-0.1-0.3-0.1-0.4c-0.1-0.3-0.2-0.4-0.1-0.6c0.1-0.3,0.3-0.7,0.3-1.1
		c0-1-0.1-2.1-0.2-3.1v-0.5c0-0.2-0.1-0.3-0.1-0.4l0,0c0-0.1-0.1-0.3-0.2-0.4c-0.1-0.3-0.2-0.7-0.3-1c-0.1-0.3-0.1-0.6-0.2-0.9
		c0-0.1-0.1-0.3-0.1-0.4s0-0.1,0-0.2s0-0.1,0-0.2c0-0.2,0-0.4-0.1-0.5c0-0.4-0.1-0.9-0.2-1.3c-0.2-0.6-0.2-1.2-0.2-1.9
		c0-0.4,0-0.9-0.1-1.3v-0.1c-0.1-0.4-0.1-0.9-0.1-1.2c0.1-0.5-0.1-1-0.2-1.4c-0.1-0.3-0.2-0.6-0.2-0.9c0.1-0.5,0-1-0.1-1.5
		c0-0.3-0.1-0.5-0.1-0.7c0-0.1,0.1-0.2,0.1-0.3v-0.1c0-0.1,0.1-0.2,0.1-0.3c0.1-0.2,0.3-0.5,0.3-0.8c0.1-0.3,0-0.7,0-1
		c0-0.1,0-0.3,0-0.4s0-0.2,0-0.3c0-0.2,0-0.4,0-0.7c-0.1-0.3-0.1-0.7-0.2-1c0-0.2-0.1-0.4-0.1-0.6c-0.2-0.8-0.9-1.6-1.8-1.7
		c-0.5-0.1-1.1,0-1.5,0.2c-0.3,0.2-0.5,0.5-0.5,0.8c0,0.9,0,1.7,0,2.5c0,0.2,0.1,0.4,0.2,0.5v0.1c0,0.9,0.1,1.7,0.1,2.6v0.9
		c0,0.1,0,0.1,0,0.2s0,0.3,0,0.5c0,0.3,0.1,0.7,0.1,1c0.1,0.7,0.2,1.3,0.2,1.9c0,0.8,0.1,1.6,0.1,2.4c0,0.6,0,1.3,0.1,1.9
		c0,0.5,0.1,1.1,0.2,1.6c0,0.3,0.1,0.5,0.1,0.8c0,0.1,0,0.1,0,0.2s0,0.2,0,0.3c-0.3,0.9-0.1,1.8,0,2.6c0.1,0.4,0.1,0.7,0.2,1.1
		c0,0.4,0.1,0.8,0.2,1.2c0.1,0.3,0.1,0.5,0.2,0.8c0,0.2,0,0.5,0,0.7c0,0.3,0,0.6,0,0.9c0.1,0.5,0.2,1.1,0.3,1.6
		c0.1,0.4,0.2,0.9,0.2,1.4c0.1,0.8,0.2,1.8,0.3,2.9c0,0.4,0,0.8,0,1.2c0,0.4,0,0.7,0,1.1c0,1.1,0.1,2,0.2,2.8c0.1,1,0.3,2.3,0.5,3.5
		c0.1,0.7,0.3,1.4,0.5,2.1c0.1,0.5,0.2,1,0.4,1.6c0.1,0.3,0.1,0.6,0.1,0.9c0.1,0.4,0.1,0.8,0.2,1.2v0.1c0.1,0.3,0.2,1,1.1,1.3
		c0.2,0.1,0.5,0.1,0.7,0.1c0.4,0,0.8-0.1,1.2-0.3c0.7-0.3,1.1-0.8,1.2-1.4c0.1-0.3,0.1-0.7,0.1-1s0.1-0.6,0.1-0.9
		c0.1-0.3,0.1-0.5,0.2-0.8c0.2-0.8,0.3-1.6,0.6-2.3c0.1-0.2,0.1-0.4,0.1-0.5v-0.1c0-0.2,0.1-0.4,0.1-0.6c0-0.3,0.1-0.6,0.1-1
		c0.1-0.5,0.2-0.9,0.3-1.4c0.1-0.4,0.2-0.8,0.2-1.2c0-0.2,0-0.3,0-0.4s0-0.2,0-0.3c0.1-0.3,0.2-0.6,0.2-0.9c0.3-1.1,0.6-2.2,0.5-3.4
		v-0.1c0.1,0.2,0.1,0.5,0.2,0.7c0.1,0.3,0.2,0.7,0.3,1c0.1,0.3,0.1,0.5,0.1,0.8c0,0.4,0.1,0.7,0.2,1.1c0.1,0.5,0.3,1,0.4,1.4
		c0,0.1,0,0.2,0.1,0.3c0.1,0.4,0.2,0.7,0.1,1c-0.3,1.4,0.1,2.6,0.6,3.9c0.3,0.9,0.7,1.8,1.3,2.8c0.4,0.7,0.9,1.4,1.4,2.1l0.3,0.4
		c0.4,0.5,1.2,0.7,1.5,0.8c0.6,0.1,1,0.1,1.4-0.1c0.3-0.2,0.5-0.4,0.6-0.6c0,0,0-0.1,0.1-0.1c0.6-0.5,0.7-1,0.4-1.7
		c-0.2-0.3-0.2-0.5-0.2-0.8c0.1-0.5,0-0.9-0.1-1.3c0-0.1-0.1-0.3-0.1-0.4s0-0.2,0-0.2c0-0.1,0-0.2,0-0.2c0.1-0.3,0.2-0.5,0.3-0.8
		c0.1-0.3,0.2-0.6,0.3-1c0.2-0.7,0.4-1.3,0.4-2c0-0.5,0-1,0-1.5c0-0.3,0-0.6,0-0.9c0-0.4,0-0.7,0-1.1c0-0.3,0-0.7,0-1s0-0.6,0-0.9
		c0-0.4,0-0.7,0-1.1c0-0.3,0.1-0.5,0.1-0.8s0.1-0.7,0.1-1c0-0.5,0-1,0-1.6c0-0.3,0-0.7,0-1c0-1.1,0-2.2,0.1-3.3c0-0.7,0-1.4,0-2.2
		c0-0.2,0-0.4,0-0.6c0-0.4,0-0.7,0-1c0.3-1.1,0.2-2.2,0.1-3.2c0-0.4-0.1-0.8-0.1-1.2c0-0.7,0-1.4-0.1-2.1v-0.6c0-0.3,0-0.6,0-0.9
		c0-0.4,0-0.8-0.1-1.2v-0.1c0-0.5,0-0.9,0-1.4c0-0.6,0.1-1.1,0.1-1.7c0.1-0.9,0.1-1.8,0.2-2.8c0-0.5,0-0.9-0.1-1.4
		c0-0.3-0.1-0.6-0.1-0.8c0-0.2,0-0.5,0-0.8c0-0.5,0-1-0.1-1.5c-0.2-0.8-0.1-1.7,0-2.5V76c0-0.2,0-0.4,0-0.5s0-0.2,0-0.2
		C84.8,75.1,85,74.1,84.1,73.1z"/>
	<path class="st0" d="M172.6,39.6L172.6,39.6c0.2-0.1,0.4-0.2,0.5-0.2l0,0l0,0c0.4,0.2,0.7,0.1,0.9,0.1c1.6-0.2,2.8-0.8,4.1-1.4
		c0.7-0.4,1.5-0.5,2.3-0.7c0.3-0.1,0.7-0.1,1-0.2c0.7-0.2,2.6-0.7,2.2-2.4c-0.1-0.4-0.6-0.9-1.3-0.9l0,0c-0.6,0-1.3,0-1.9,0.1
		c-0.6,0.1-1.2,0.3-1.8,0.5c-0.7,0.2-1.3,0.4-1.9,0.5c-0.4,0-0.7,0.1-1,0.3c-0.9,0.4-1.9,0.6-2.9,0.9c-0.4,0.1-0.9,0.2-1.3,0.3
		c-0.2,0-0.3,0.1-0.5,0.1c-0.5,0.1-1.1,0.3-1.6,0.5c-0.4,0.1-0.6,0.3-0.9,0.5c-0.1,0.1-0.3,0.2-0.4,0.2c-0.1,0.1-0.2,0.1-0.3,0.2
		c-0.1,0.1-0.3,0.2-0.4,0.2c0,0,0,0-0.1,0c-0.5-0.2-1-0.1-1.3,0h-0.1c-0.7,0.2-1.4,0.3-2.1,0.5c-0.1,0-0.3,0.1-0.4,0.1
		c-0.4,0.1-0.8,0.2-1.2,0.3s-0.8,0.3-1.1,0.4c-0.3,0.1-0.6,0.3-1,0.4c0,0-0.1,0-0.2,0c-0.2,0-0.4,0-0.7,0.1
		c-0.6,0.2-1.1,0.4-1.7,0.5c-0.8,0.3-1.7,0.5-2.5,0.8c-0.8,0.2-1.6,0.4-2.3,0.6c-0.5,0.1-1,0.2-1.5,0.4c-0.3,0.1-0.6,0.2-0.9,0.3
		c-0.1,0-0.2,0.1-0.3,0.1c0-0.2,0-0.3,0-0.5c0-0.3-0.3-0.7-0.3-1s0.4-0.6,0.4-0.9c0-0.4,0.4-0.8,0.4-1.2c0-0.6,0.4-1.1,0.4-1.7
		c0-0.3,0.1-0.6,0.1-0.9c0.1-0.4,0.2-0.9,0.2-1.4c0-0.8-0.1-1.5-0.1-2.3c0-0.4-0.1-0.8-0.1-1.2c0,0,0-0.1,0.1-0.2
		c0.4-0.8,0.5-1.5,0.3-2.1c0-0.2-0.1-0.4-0.1-0.6c0.1-0.9,0.2-1.8,0.3-2.7l0.1-0.6c0.7-0.1,1.4-0.3,2.1-0.4c0.5-0.1,0.4-0.2,0.9-0.3
		h0.3c1-0.2,2-0.4,2.9-0.5c0.2,0,0.5-0.1,0.8-0.1c0.4,0,0.9-0.1,1.3-0.2c1.7-0.4,3.2-0.7,4.8-0.7c0.7,0,1.3-0.1,1.9-0.2
		c0.4-0.1,0.9-0.2,1.3-0.3c0.3-0.1,0.6-0.2,0.8-0.2c1.7-0.4,3.2-0.8,4.6-1.1c0.2,0,0.5-0.1,0.7-0.1c0.1,0,0.2,0,0.3,0
		c0.2,0,0.5-0.1,0.7-0.1c0.3,0,0.7-0.1,1-0.1c0.1,0,0.3,0,0.4-0.1c0.2,0,0.3-0.1,0.5-0.1c0.9-0.1,1.4-0.4,1.7-0.7
		c0.4-0.4,0.5-0.9,0.4-1.5s-0.5-0.8-0.8-1s-0.8-0.3-1.6-0.2c-0.2,0-0.3,0.1-0.5,0.1c-0.1,0-0.2,0-0.3,0.1c-0.2,0-0.4,0.1-0.6,0.1
		c-0.4,0-0.9,0.1-1.4,0.2c-1.4,0.4-2.9,0.8-4.5,0.7c-0.5,0-0.9,0-1.3,0.1c-0.1,0-0.3,0-0.4,0.1c-0.1,0-0.2,0-0.2,0
		c-0.2,0-0.5,0.1-0.8,0.1c-0.8,0.2-1.6,0.4-2.4,0.6l-0.6,0.1c-0.2,0-0.3,0.1-0.5,0.1c-0.2,0.1-0.4,0.1-0.7,0.2s-0.5,0.1-0.8,0.1
		c-0.3,0.1-0.6,0.1-0.9,0.2c-0.2,0-0.4,0.1-0.6,0.2c-0.5,0.2-0.6,0.2-0.7,0.1c-0.3-0.2-0.6-0.2-0.8-0.2c-0.8-0.1-1.6,0.1-2.3,0.4
		s-1.4,0.3-2.3,0.4c-0.4,0-0.1,0-0.4,0.1c-0.1,0-0.1,0-0.2,0c-0.3,0-0.7,0-1.1,0.2c-0.3,0.1-0.5,0.2-0.9,0.2c0.1-0.5,0-1-0.2-1.5
		c-0.3-0.5-0.3-0.8-0.2-1.1c0.2-0.5,0.2-0.9,0.2-1.3v-0.1c0-0.4,0-0.8,0-1.2c0-0.7,0-1.3,0-2c0.1-0.9,0-1.9-0.4-3
		c-0.2-0.7-0.9-1.6-0.9-2.3c0-0.5,0.1-1.1,0.2-1.7c0-0.2,0.1-0.4,0.1-0.6s0.1-0.5,0.1-0.7c0.4,0.1,0.8,0.1,1.2,0.1h0.1
		c0.4,0,0.7,0,1.1,0c0.7,0,1.4,0,2,0.2c0.4,0.1,0.8,0,1,0c0.1,0,0.1,0,0.1,0c1,0,2,0.1,3,0.2h0.5c0,0,0,0,0.1,0
		c1,0.5,1.9,0.1,2.2-0.1c0.3-0.1,0.6-0.2,0.9-0.2c0.4,0,0.8,0,1.3,0.1c0.4,0,0.9,0.1,1.3,0.1c0.4,0,0.9,0,1.3-0.1
		c0.3,0,0.6-0.1,0.8-0.1c0.8,0,1.9-0.1,2.9-0.7c0.1-0.1,0.2-0.1,0.5,0l0.2,0.1c0.6,0.2,1.3,0.5,2.1,0.6s2,0.2,3-0.3
		c0.1,0,0.2,0,0.2,0c0.9,0.1,2,0.3,3.1-0.4c0.2,0,0.4,0,0.6,0c0.6,0,1.2,0.1,1.8,0.1c1,0.1,1.8,0,2.3-0.3s0.8-0.8,0.8-1.5
		c0-0.8-0.8-1.4-1.8-1.5c-0.7,0-1.4,0-2.1,0h-0.3c-0.3,0-0.7,0-1,0c-0.4,0-0.7,0-1.1,0c-0.4,0-0.8,0-1.2,0c-0.3,0-0.6,0-0.9,0
		c-0.2,0-0.4,0-0.6,0c-0.2,0-0.4,0-0.5,0c-0.8-0.2-2.2-0.6-3.6-0.1c-1.2,0.5-2.5,0.3-3.9,0.2c-0.2,0-0.5,0-0.7-0.1
		c-1.5-0.1-2.7,0-3.9,0.5c-0.2,0.1-0.5,0.1-0.9,0.2c-0.4,0-0.8,0-1.3,0c-0.1,0-0.2,0-0.3,0c-0.3,0-0.6,0-0.8-0.1
		c-0.8-0.2-1.8-0.5-2.9-0.2c-0.6,0.1-1.2,0.1-1.9,0c-0.1,0-0.2,0-0.3-0.1c-0.2-0.1-0.4-0.1-0.7-0.2c-0.6-0.1-1.2-0.1-1.9-0.1h-0.1
		c-0.5,0-1,0-1.5,0.1c-0.2,0-0.3,0.1-0.3,0.1l0,0c-0.5-0.3-1.1-0.2-1.4-0.2c-0.3,0.1-0.6,0.2-0.7,0.3c-0.1,0.1-0.2,0.1-0.4,0.2
		c-0.4,0.2-0.9,0.5-1.1,0.9C146.3,4.6,146,5.3,146,6c-0.1,1.3-0.1,2.7-0.2,4c0,0.4,0,0.9,0,1.3c0,0.2,0,0.4,0,0.6
		c0,0.5-0.1,1.1,0.1,1.7c0.2,0.7,0,1.5-0.2,2.2c-0.1,0.4-0.2,0.8-0.3,1.2v0.2c-0.1,0.6-0.2,1.3,0,2c0.1,0.3,0.1,0.6,0.1,0.8
		c0,0.9-0.2,1.8-0.4,2.8c-0.1,0.5-0.2,1-0.3,1.6c-0.1,0.5-0.1,1-0.1,1.5v0.3c0,0.3,0,0.6,0,0.8c0,0.2,0,0.4,0,0.5s-0.1,0.2-0.1,0.4
		c0.1,0.4,0.1,0.8,0.2,1.2c0,0.2,0.1,0.4,0.1,0.5c0,0.2,0.1,0.4,0.1,0.5v0.2c0,0.2,0.1,0.5,0.1,0.7c0,0.3-0.1,0.7-0.2,1
		c-0.1,0.3-0.1,0.7-0.2,1c0,0.3-0.1,0.6-0.1,1c0,0.5,0,0.9-0.2,1.3c-0.5,1.6-0.3,3.2-0.2,4.7c0,0.3,0.1,0.6,0.1,0.9
		c0,0.3,0.1,0.6,0.1,0.9c0.1,0.6,0.2,1.1,0,1.7c-0.2,0.6,0,1.2,0.2,1.7c0,0.1,0.1,0.2,0.1,0.3c0.1,0.4,0.5,0.7,1.3,1
		c0.4,0.1,1,0.3,1.6,0.3c0.3,0,0.5,0,0.7-0.1c0.5-0.2,1.1-0.3,1.8-0.4c0.2,0,0.4,0,0.6-0.1c0.2,0,0.4-0.1,0.5-0.1h0.1
		c0.1,0,0.1,0,0.2-0.1c0.1,0,0.2,0,0.2-0.1c1-0.1,2.1-0.2,3.1-0.7c0.1,0,0.2-0.1,0.4-0.1c0.1,0,0.1,0,0.2-0.1
		c0.4-0.1,0.8-0.2,1.2-0.3c0.6-0.2,1.2-0.3,1.7-0.5l0.2-0.1c0.4-0.1,0.9-0.2,1.3-0.4c1.4-0.6,2.9-1,4.5-1.4c0.3-0.1,0.7-0.2,1-0.3
		c1-0.3,2-0.6,2.9-1.2C169.8,40.7,171.1,40.3,172.6,39.6z"/>
	<path class="st0" d="M123,119.3c0-0.6-0.1-1.3-0.2-1.9c0-0.5-0.1-1-0.1-1.4c-0.1-0.9-0.1-1.8-0.2-2.7c-0.1-0.9-0.1-1.9-0.2-2.8
		c0-0.4-0.1-0.8-0.2-1.2c0-0.2-0.1-0.4-0.1-0.6s-0.1-0.5-0.2-0.7c-0.1-0.4-0.2-0.6-0.1-0.8c0.1-0.4,0.1-0.7,0.1-1.1
		c0-0.5,0-1.1,0-1.6v-0.3c0-0.4,0-0.8,0-1.1c0-0.7,0-1.4,0-2.1c0-1.1,0-2.3-0.3-3.5c-0.2-0.9-0.3-1.9-0.4-2.8c0-0.2-0.1-0.5-0.1-0.7
		c-0.1-0.7-0.2-1.5-0.2-2.2c0-0.3-0.1-0.6-0.1-0.9v-0.1c0-0.1,0-0.1,0-0.2l-0.1-1.1c-0.1-1.3-0.2-2.5-0.3-3.8c0-0.5-0.1-1-0.2-1.5
		l-0.1-0.6c0-0.1,0-0.2,0-0.2c0-0.1,0-0.2,0-0.3c0-0.1,0-0.3,0-0.4c0-0.2,0.1-0.4,0-0.7c0-0.8-0.1-1.8-0.5-2.7
		c-0.2-0.4-0.3-1-0.4-1.5c0-0.1,0-0.3-0.1-0.4c-0.1-0.5-0.1-0.9-0.2-1.4c0-0.3-0.1-0.6-0.1-0.8v-0.1c0-0.2-0.1-0.4-0.2-0.7
		c-0.1-0.1-0.1-0.2,0-0.5v-0.1c0.1-0.6,0.1-1.2,0-1.8c0-0.3-0.1-0.5-0.2-0.7s-0.1-0.3-0.1-0.4c-0.1-1-0.6-1.8-1.1-2.6
		c-0.1-0.2-0.2-0.3-0.3-0.5c0,0,0-0.2-0.1-0.2v-0.1c0-0.1,0-0.2,0-0.2c0-0.2-0.1-0.5-0.2-0.8c-0.1-0.2-0.3-0.4-0.5-0.6
		c-0.1-0.1-0.2-0.2-0.2-0.3c-0.5-0.8-1.5-1.2-2.6-1c-0.1,0-0.2,0-0.3,0c-0.6,0.1-1.7,0.2-2.1,1.2c-0.1,0.3-0.3,0.5-0.4,0.8
		c-0.3,0.5-0.5,1-0.7,1.6c-0.3,0.7-0.4,1.4-0.5,2.1v0.2c-0.1,0.5-0.1,1-0.2,1.5v0.3c0,0.3,0,0.5-0.1,0.8c0,0.2,0,0.4,0,0.7
		c0,0.1,0,0.2-0.1,0.3c0,0.1,0,0.2-0.1,0.3c-0.1,0.9-0.3,1.8-0.4,2.7c-0.1,0.4-0.1,0.9-0.2,1.3l-0.1,0.9c0,0.3-0.1,0.5-0.1,0.8
		s-0.1,0.5-0.1,0.8c-0.1,0.5-0.2,1.1-0.2,1.7c-0.1,0.5-0.1,1-0.1,1.5c0,0.2,0,0.4,0,0.6v0.1c0,0.1,0,0.2,0,0.4c0,0.3,0,0.6,0,0.9
		s0.1,0.5,0.1,0.8s0.1,0.5,0.1,0.8c0,0.4,0,0.8,0,1.1c0,0.3,0,0.6,0,0.8c0,0.6,0,1.2,0,1.8c0,0.7,0,1.4,0.1,2.1c0,0,0,0.1,0,0.2
		s-0.1,0.3-0.1,0.5c0,0.7,0,1.5,0.1,2.3c0.1,0.6,0.1,1.3,0.2,1.9l0.1,0.5c0,0.4,0.1,0.7,0.2,1.1c0.1,0.7,0.2,1.5,0.3,2.3
		c0,0.5,0,1.1,0,1.6c0,0.3,0,0.6,0,0.9s0,0.6,0,0.9c0,0.2,0,0.5,0,0.7c0,0.1,0,0.3,0,0.4c0,0.2,0,0.4,0,0.7c0,0.3,0.1,0.5,0.1,0.8
		c0.1,0.4,0.1,0.8,0.1,1.1c0,1.1-0.1,2.1-0.2,3.2l-0.1,0.7c0,0.3,0,0.5-0.1,0.8c-0.1,0.8-0.1,1.5-0.3,2.2c-0.3,1.2-0.2,2.2,0.3,3.2
		l0,0c0,0.3-0.1,0.7-0.1,1c-0.1,0.7-0.2,1.5-0.2,2.2s0.1,1.3,0.2,2v0.3c0.1,0.4,0.1,0.8,0.4,1.2c0.4,0.5,1.2,0.7,1.4,0.7
		c0.2,0,0.5,0,0.7-0.1c0.3-0.2,0.7-0.6,0.7-0.9c0.1-0.3,0.1-0.7,0.2-1s0.1-0.6,0.2-0.9c0.4-1.4,0.1-2.8-0.1-3.8
		c-0.1-0.5-0.2-0.9-0.1-1.4c0.1-0.7,0.1-1.3,0.1-1.9c0-0.3,0-0.5,0-0.8c0-0.2,0-0.4,0-0.5c0-0.4,0-0.9,0-1.3c0-0.1,0.1-0.3,0.1-0.5
		c0.1-0.4,0.3-1,0-1.6c0-0.1,0-0.2,0-0.2c0.5-1.5,0.6-3.1,0.5-4.5c0-0.3,0-0.6-0.1-0.9c0-0.2,0-0.5,0-0.7c0-1-0.2-1.9-0.4-2.7
		c-0.2-0.6-0.2-1.1-0.3-1.8c0-0.1,0-0.2,0-0.2c0.3,0,0.6,0,0.9,0c1.1,0,2.2-0.3,3.2-0.8c0.1,0,0.3,0,0.5-0.1c0.1,0,0.3,0,0.4,0
		c0.2,0,0.5,0,0.7,0c0,0.3,0,0.6-0.1,0.9v0.1c0,0.1-0.1,0.3-0.1,0.6c0.1,1.1,0.2,2.1,0.3,3c0.1,0.4,0.1,0.9,0.2,1.3
		c0.1,0.7,0.2,1.5,0.3,2.2c0,0.6,0,1.3,0,2c0,0.6,0,1.3,0,2s0.2,1.4,0.3,2.1c0.1,0.4,0.1,0.8,0.2,1.2c0.1,0.8,0.2,1.6,0.2,2.4
		c0,0.3,0,0.6,0,0.9s0,0.6,0,0.8c0,0.5,0,1.1,0.1,1.6v0.1c0,0.2,0.1,0.4,0.1,0.7c0,0.2,0,0.3,0.1,0.5c0.1,0.5,0.1,1,0.2,1.5l0.1,0.8
		c0,0.1,0,0.2,0,0.3c0,0.3,0,0.6,0.2,1s0.7,0.8,1.2,1c0.1,0,0.3,0.1,0.4,0.1c0.4,0,0.8-0.3,1-0.4c0.1,0,0.1-0.1,0.2-0.1
		c0.1-0.1,0.2-0.2,0.3-0.3c0.6-0.6,0.6-1.3,0.6-1.9c0-0.1,0-0.2,0-0.3c0-0.4,0-0.8,0-1.1c0-0.3,0-0.5,0-0.8s0-0.6,0-1
		C123,120.3,123.1,119.8,123,119.3z M116.7,96.4L116.7,96.4c-0.8,0.2-1.6,0.3-2.5,0.4c-0.8,0.1-1.7,0.2-2.6,0.4
		c-0.1,0-0.3,0.1-0.4,0.1c0.1-0.4,0.1-0.8,0.2-1.2c0-0.1,0.1-0.2,0.1-0.4c0-0.3,0-0.6,0-1c0.1-0.6,0.1-1.2-0.1-1.9
		c0-0.1,0-0.3,0-0.4s0-0.3,0-0.4c0-0.3,0-0.6,0-0.9c0-0.6-0.1-1.2,0-1.8c0-0.2,0-0.4,0.1-0.7c0-0.3,0.1-0.6,0.1-0.9
		c0-0.5-0.1-0.9-0.2-1.3v-0.1c-0.2-0.9-0.4-2-0.1-3.1c0-0.1,0.1-0.3,0.1-0.4c0.1-0.3,0.2-0.6,0.3-0.9c0.1-0.3,0-0.6,0-0.8V81
		c0-0.1,0-0.1-0.1-0.2c0.1-0.8,0.2-1.6,0.3-2.4c0.1-0.6,0.2-1.3,0.3-1.9l0.1-0.4c0-0.3,0.1-0.5,0.1-0.8c0.1-0.4,0.1-0.7,0.2-1.1
		c0-0.2,0.1-0.4,0.1-0.6c0-0.1,0-0.3,0-0.4s0-0.2,0-0.3c0-0.4,0.1-0.7,0.3-0.9c0.3-0.4,0.2-0.8,0.1-1c0-0.1,0-0.2,0-0.2
		c0-0.2,0-0.5,0-0.7c0.1-0.4,0.2-0.8,0.4-1.2V69v0.2c0.4,1.4,0.8,3,1,4.9c0.1,0.7,0.1,1.3,0.1,2c0,0.4,0,0.8,0,1.3
		c0,0.2,0,0.5,0,0.7c0,0.7,0,1.5,0.4,2.3c0.1,0.1,0.1,0.3,0.2,0.4c0.2,0.4,0.4,0.7,0.5,1c0.4,1.2,0.5,2.2,0.5,3.1
		c0,0.5,0,0.9,0.1,1.4c0,0.3,0.1,0.6,0.1,0.9c0,0.2,0,0.4,0,0.6s0,0.4,0,0.6v0.7c0,0.9,0,1.9,0,2.9c0,0.6,0.1,1.1,0.2,1.7
		c0,0.3,0.1,0.6,0.1,0.8v0.3c0.1,0.6,0.2,1.1,0.2,1.7l0,0C116.9,96.4,116.8,96.4,116.7,96.4z"/>
	<path class="st0" d="M105.2,121.4c-0.1-0.5-0.1-1-0.2-1.5c-0.1-0.6-0.1-1.1-0.2-1.7c-0.3-1.4-0.5-2.8-0.5-4.2
		c0-0.5-0.1-1.1-0.2-1.6c0-0.2-0.1-0.4-0.1-0.5c-0.1-0.5-0.2-1-0.2-1.4c-0.1-0.9-0.3-1.7-0.4-2.6c0-0.3,0-0.5-0.1-0.8
		c0-0.3,0-0.7-0.1-1c-0.2-0.9-0.3-1.9-0.5-2.8c-0.1-0.3-0.1-0.7-0.2-1c-0.1-0.4-0.2-0.9-0.2-1.3c-0.2-0.9-0.3-1.8-0.5-2.7
		c-0.1-0.4-0.1-0.9-0.2-1.3c-0.1-0.5-0.1-1-0.2-1.6v-0.2c-0.1-0.5-0.2-1.1-0.6-1.6c-0.3-0.4-0.3-0.8-0.4-1.4c0-0.3,0-0.7,0-1
		c0-0.4,0.1-0.7,0-1.1c0-0.8-0.1-1.6-0.1-2.3c0-0.3,0-0.6-0.1-0.8c0-0.1,0-0.2,0-0.3c0-0.1,0-0.1,0-0.2c0-0.3,0-0.6,0-0.9
		c0-0.5,0-0.9-0.1-1.4v-0.1c0-0.3,0-0.7-0.4-1.1c-0.1-0.1-0.1-0.1-0.1-0.4c0-0.1,0.1-0.2,0-0.5c-0.2-0.7-0.2-1.4-0.2-2
		c0-1.1-0.2-2-0.6-2.8c-0.3-0.6-0.4-1.1-0.2-1.5c0.3-0.7,0.3-1.4-0.1-2v-0.1c0.2-0.9,0-1.6-0.8-2.2c0,0,0-0.1-0.1-0.1
		c0-0.1-0.1-0.2-0.1-0.2c0-0.1-0.1-0.1-0.1-0.2c-0.1-0.3-0.3-0.8-1-0.9c-0.1,0-0.2,0-0.3-0.1c-0.5-0.1-1.3-0.3-2.2,0.1
		c-0.8,0.4-1.4,1-1.6,1.9c-0.1,0.3-0.2,0.5-0.2,0.8c-0.1,0.5-0.3,1-0.5,1.4c-0.5,1.2-0.6,2.2-0.4,3.3c0.1,0.4,0,0.8-0.1,1.2
		c-0.4,1.2-0.5,2.3-0.3,3.4c0.1,0.5,0.1,1,0.1,1.5c0,0.4-0.1,0.8-0.2,1.2c-0.1,0.9-0.3,1.8-0.2,2.8c0.1,0.6,0.1,1.3,0,1.9v0.4
		c0,0.2-0.1,0.4-0.1,0.7c0,0.2-0.1,0.4-0.1,0.7c-0.1,1.2-0.2,2.5-0.3,3.8c0,0.5,0,1.1-0.1,1.6c0,0.5,0,1.1-0.1,1.7
		c0,0.6-0.1,1.1-0.3,1.7c-0.1,0.5-0.3,1-0.5,1.5c-0.1,0.4-0.3,0.8-0.4,1.2c-0.4,1.2-0.5,2.3-0.2,3.4c0.1,0.5,0.1,1,0,1.4
		c0,0.3-0.1,0.7-0.2,1c-0.1,0.4-0.2,0.9-0.3,1.3c-0.2,1.4-0.2,2.8-0.3,4.2v0.2c0,0.1,0,0.2,0,0.3c0,0.5-0.1,1.1,0.1,1.7
		c0.1,0.3,0,0.6-0.1,1c-0.1,0.2-0.1,0.5-0.1,0.8c0,0.1,0,0.2,0,0.4c0,0.3,0,0.7,0,1.1c0,0.3,0,0.5,0.1,0.8c0,0.3,0.1,0.5,0.1,0.8
		c0,0.1,0,0.2,0,0.3c0,0.5,0,1,0.3,1.6c0,0.2-0.1,0.3-0.1,0.5c-0.1,0.4-0.2,0.8-0.2,1.2c-0.1,1,0.8,1.7,1.1,1.9
		c0.3,0.2,0.7,0.3,1,0.3c0.1,0,0.3,0,0.4-0.1c0.5-0.1,0.8-0.5,1-0.9l0,0c0-0.1,0.1-0.2,0.1-0.3c0-0.1,0.1-0.2,0.1-0.3
		c0.2-0.5,0.4-1.2,0.1-1.9c0,0,0-0.1,0.1-0.2c0.2-0.6,0.6-1.3,0.2-2.2c-0.1-0.3-0.2-0.5-0.3-0.8c-0.1-0.2-0.1-0.4-0.2-0.6
		c-0.4-1.1-0.5-2.2-0.4-3.4c0.1-0.9,0.3-1.8,0.5-2.7c0.1-0.5,0.2-1,0.3-1.5c0.1-0.5,0.2-1,0.2-1.5c0-0.4,0-0.7,0-1.1
		c0-0.3,0-0.5,0-0.8c0-0.4,0.1-0.8,0.1-1.2c0.1-0.7,0.2-1.3,0.3-2c0.1-0.5,0.1-1,0.2-1.4c0-0.2,0.1-0.4,0.1-0.6
		c0.3-0.1,0.5-0.1,0.8-0.2c0.2,0,0.4-0.1,0.5-0.1c0.3,0,0.6,0,0.8,0c0.6,0,1.3,0,2-0.1c0.4-0.1,0.7-0.2,1-0.3c0,1.7,0.1,3.1,0.4,4.4
		c0.1,0.6,0.2,1.2,0.3,1.8c0.1,0.3,0.1,0.6,0.2,1c0,0.3,0.1,0.5,0.2,0.8c0.1,0.4,0.1,0.7,0.2,1.1c0.1,0.3,0.1,0.7,0.1,1
		c0.1,0.7,0.2,1.5,0.4,2.2c0.3,1.1,0.5,2.2,0.6,3.4c0.1,0.7,0.1,1.4,0.3,2.1c0.1,0.8,0.3,1.6,0.4,2.4c0,0.3,0.1,0.6,0.1,0.9
		c0.1,0.5,0.1,1,0.2,1.5s0.2,0.9,0.4,1.2c0.3,0.4,0.9,0.6,1.4,0.7c0.9,0,1.6-0.2,2.1-0.8c0.5-0.5,0.7-1.3,0.4-2
		C105.6,123.2,105.3,122.3,105.2,121.4z M95.8,99.1c-0.4,0-0.6,0.1-0.9,0.2c0,0-0.1,0-0.1,0.1c-0.5,0.2-1,0.4-1.6,0.6
		c0-0.5,0.2-0.9,0.3-1.3c0-0.1,0.1-0.2,0.1-0.4c0-0.4,0-0.8,0-1.2c0-0.7,0-1.5,0.1-2.2c0-0.2,0-0.3,0.1-0.5c0-0.2,0.1-0.5,0.1-0.7
		c0-0.9,0.1-2-0.4-3.1c0,0,0-0.2,0-0.3c0.7-1.7,1-3.6,0.8-5.7c-0.1-0.8-0.1-1.4,0-2c0-0.2,0.1-0.4,0.1-0.7c0.1-0.5,0.2-1.1,0.2-1.6
		c0-0.4,0.1-0.9,0.2-1.2c0.1,0.1,0.1,0.2,0.2,0.3c0.1,0.1,0.2,0.3,0.2,0.3l0,0c0,0.1,0,0.3,0.1,0.5c0,0.2,0.1,0.3,0.2,0.5
		s0.2,0.5,0.2,0.6c0.1,0.9,0.1,1.7,0,2.5c-0.1,0.5,0.2,1,0.4,1.3c0.1,0.2,0.2,0.4,0.3,0.6c0,0.1-0.1,0.4-0.2,0.6
		c-0.2,0.3-0.3,0.7-0.3,1.2s0,1,0,1.5c0,0.3,0,0.7,0,1c-0.1,0.1-0.3,0.4-0.2,0.8c0,0.1,0.1,0.2,0.2,0.3c-0.3,1-0.2,2-0.1,3v0.1
		c0,0.3,0.1,0.9,0.6,1.4c0.1,0.1,0.1,0.4,0.1,0.5c0,0.2,0,0.4,0.1,0.6s0.2,0.4,0.3,0.5c0,0,0.1,0.1,0.1,0.2l0,0
		c0.2,0.4,0.4,0.8,0.5,1.2C97,98.9,96.5,99.1,95.8,99.1z"/>
	<path class="st0" d="M144.7,3.9c-0.5-1.2-1.4-1.7-3.1-1.7c-1.9,0-3.9,0.1-5.8,0.1h-0.4c-0.8,0-1.6,0.1-2.4,0.1
		c-0.9,0.1-1.7,0.1-2.6,0.1c-0.8,0-1.7,0.3-2.6,0.3c-0.5,0-1,0-1.4,0h-0.1c-0.3,0-0.7,0-1.1,0.1s-0.9,0.2-1.6,0.2
		c-0.4,0-0.8,0-1.2,0c-0.5,0-0.9,0-1.3,0c-0.9,0-1.7-0.4-2.6-0.4h-0.8c-0.4,0-0.8-0.1-1.2-0.1c-0.8-0.1-1.7-0.1-2.5-0.1
		c-0.5,0-1,0-1.5,0.1c-0.6,0-1.1,0.1-1.6,0c-1.8-0.1-3.5-0.1-5.2,0.1c-1,0.3-1.9,0.3-2.7,0.1c-0.6-0.1-1.2-0.2-2-0.2
		c-0.5,0-1,0.1-1.5,0.1c-0.3,0-0.5,0.1-0.8,0.1h-0.1l0,0c-1.7-0.3-3.2-0.1-4.5,0.6c-0.7,0.4-1,1.3-0.7,2c0.5,0.9,1.4,1,2.1,0.9
		c1.2,0.3,2.8,0.5,4.5,0.3c0,0,0.2,0,0.3,0c0.1,0,0.2,0,0.3,0c0.1,0,0.2,0,0.2,0c0.3,0,0.6,0.1,1,0c0.2,0,0.5,0,0.8,0.1
		c0.4,0.1,1.1,0.4,1.9,0c0.1,0,0.1,0,0.2,0.1c0.2,0.1,0.5,0.1,0.8,0.2c0.2,0,0.4,0,0.6,0c1.4,0.1,2.8,0.7,4.3,0.3
		c0.3-0.1,0.5-0.1,0.7,0c0.8,0.3,1.6,0.4,2.4,0.2c0,0,0,0,0.1,0s0.2,0,0.4,0c0.2,0,0.4,0,0.7,0c0.3,0,0.4,0.2,0.7,0.2
		c0.1,0.2,0.2,0.8,0.2,0.8c0.1,1,0.1,1.9,0.2,2.8l0,0c0,0.3,0.1,0.6,0.2,0.9c0.4,0.9,0.3,1.9,0.2,2.9c0,0.3-0.1,0.6-0.1,0.9
		c-0.1,0.7-0.2,1.4-0.3,2.2c0,0.3,0.1,0.6,0.3,0.8c0,0,0,0,0,0.1c-0.1,0.8-0.2,1.6-0.5,2.4c-0.3,1-0.6,2.1-0.4,3.3
		c0.2,0.9,0.6,1.7,0.9,2.5l0.1,0.3c0.3,0.7,0.4,1.5,0.1,2.4l0,0c-0.3,1.1-0.6,2.2-0.5,3.4c0,0.2,0.1,0.4,0.1,0.7s0.1,0.5,0.1,0.8
		c0,1.2,0,2.5,0,3.7v0.6c0,0.2,0,0.4,0,0.6c0,0.6,0,1.1,0,1.7c0,0.6-0.1,1.1-0.2,1.7c-0.1,0.7-0.2,1.3-0.2,2
		c-0.1,0.7-0.1,1.5-0.1,2.2c0,0.5,0,1.1,0,1.6c0,0.6-0.1,1.2-0.1,1.7s-0.1,1-0.1,1.5c0,0.6,0,1.2,0,1.8v0.4c0,0.2,0,0.4,0.2,0.7
		c0.1,0.2,0.2,0.4,0.3,0.6c0.1,0.2,0.3,0.4,0.4,0.7c0.3,0.5,0.8,0.8,1.5,0.8c0.1,0,0.3,0,0.4,0c1-0.2,1.5-0.6,1.6-1.2
		c0-0.1,0-0.2,0-0.3c0-0.3,0.1-0.6,0.2-0.8c0.4-0.9,0.3-1.8,0.2-2.7v-0.5c0-0.3-0.1-0.7-0.1-1c0,0,0-0.1,0-0.2c0-0.2,0.1-0.5,0-0.8
		c-0.2-0.6-0.1-1.1,0-1.8c0.1-0.3,0.1-0.5,0.1-0.8c0-0.4,0.1-0.8,0.2-1.2c0.1-0.6,0.2-1.1,0.2-1.7c0-1.1,0-2.3,0-3.4
		c0-0.5,0-1,0-1.6c0-0.7,0-1.2,0-1.7c0-0.1,0-0.2,0-0.4s0.1-0.5,0-0.8c-0.1-1.1-0.1-2.1,0.3-2.9c0-0.1,0.1-0.2,0.1-0.3
		c0.3-0.8,0.6-1.7,0.3-2.7c-0.1-0.2-0.1-0.5-0.1-0.8v-0.1c0-0.2,0-0.4,0-0.6c0-0.4,0.1-0.8,0-1.2c-0.1-1.1-0.3-2.4-0.7-3.7
		c-0.2-0.7-0.2-1.3-0.1-1.8c0.2-0.5,0.3-1.2,0.3-1.9c0-0.5-0.2-1-0.5-1.7c-0.4-0.7-0.4-1.3-0.3-1.9c0.1-0.4,0.1-0.8,0.1-1.3
		c0-0.2,0-0.3,0-0.5c0-0.3,0-0.5,0-0.8s0-0.6,0.1-0.9c0-0.3,0-0.6,0-1c0-0.3,0-0.5,0-0.8c0-0.7,0-0.8-0.1-1.5V9.7
		c-0.2-0.9-0.3-0.4,0.1-1c0.3,0,0.5-0.1,0.8-0.1s0.6-0.4,0.8-0.4c0.1,0,0.1,0,0.2,0c1,0.2,2.1,0.5,3,0.5c0.4,0,0.8,0,1.3,0
		c0.9,0,1.7,0,2.6-0.1h0.1c0.8,0,1.6-0.4,2.3-0.5c0.4,0,0.8-0.1,1.3-0.1l0,0c0.3,0,0.5,0,0.8,0c0.9,0,2-0.1,3-0.5
		c0.3-0.1,0.6-0.1,1.2,0c1.6,0.2,3.6-0.7,5.6-1.1c0.8-0.1,1.2-0.7,1.4-1C144.6,5,144.9,4.4,144.7,3.9z"/>
	<path class="st0" d="M61.6,120.6v-0.2c0-0.2-0.1-0.7-0.4-1l0,0c-0.4-0.4-0.5-0.8-0.6-1.5c0-0.1,0-0.2,0-0.3c0-0.3-0.1-0.5,0-0.8
		c0.1-0.7,0-1.3-0.1-1.8c0-0.2-0.1-0.5-0.1-0.7c0-0.3-0.2-0.5-0.3-0.6c0,0,0,0-0.1-0.1c-0.1-0.2-0.2-0.3-0.4-0.5
		c0,0,0.1-0.1,0.1-0.2c0.2-0.4,0-0.8-0.1-1.1v-0.1c-0.1-0.1-0.1-0.2-0.2-0.3c-0.1-0.2-0.3-0.5-0.3-0.7c0-0.6-0.3-1-0.6-1.4
		c-0.1-0.1-0.1-0.2-0.2-0.4c-0.1-0.2-0.1-0.4-0.1-0.7c0-0.2-0.1-0.4-0.1-0.5c-0.1-0.3-0.1-0.6-0.2-0.9c-0.2-0.9-0.8-1.6-1.8-2.1
		c-0.2-0.1-0.4-0.2-0.6-0.3c0.3-0.2,0.6-0.4,0.9-0.6c0.5-0.6,1-1.3,1.5-1.9l0.1-0.1c0.1-0.2,0.3-0.4,0.4-0.6
		c0.1-0.1,0.1-0.2,0.2-0.3l0.1-0.1c0.1-0.1,0.3-0.3,0.4-0.5c0.3-0.7,0.6-1.5,0.9-2.3l0.1-0.3c0.2-0.6,0.4-1.1,0.5-1.7
		c0.1-0.8,0.2-1.7,0.2-2.5c0-0.3,0-0.6-0.1-0.9c0-0.1,0-0.3,0-0.4c0-0.4,0-0.8,0-1.2c0-0.3,0-0.7,0.1-1c0-0.4,0.1-0.9,0.1-1.3
		s0-0.8-0.1-1.2v-0.3c0-0.1,0-0.2,0-0.3c0-0.3,0-0.7-0.1-1.1c-0.3-0.8-0.7-1.6-1.6-2.2c-0.1-0.1-0.3-0.2-0.4-0.2
		c-0.8-0.5-1.6-0.9-2.7-1.2c-1.5-0.3-2.9-0.3-4.2,0.1h-0.1c-0.9,0.3-1.9,0.6-2.7,1.1c-0.2,0.1-0.5,0.2-0.8,0.4
		c-0.5,0.2-1.2,0.4-1.7,0.9l-0.1,0.1c-0.2,0.2-0.5,0.5-0.5,1v0.4c0,1.2,0,2.5,0.1,3.8c0.1,1.4-0.2,2.8-0.4,4.1
		c-0.1,0.9-0.2,1.8-0.2,2.7c0,0.5,0,0.9-0.1,1.4c0,0.3-0.1,0.5-0.1,0.8c0,0.4-0.1,0.8-0.1,1.1c0,0.6,0,1.3,0,1.9c0,0.5,0,1,0,1.5
		s0,0.9,0,1.4c0,0.6,0,1.2,0,1.8c0,0.5,0,0.9,0,1.4c0,0.6,0.1,1.2,0,1.8c0,0.6-0.1,1.1-0.2,1.7c0,0.3-0.1,0.7-0.1,1
		c0,0.4-0.1,0.9-0.1,1.3v0.3c0,0.4,0,0.7-0.1,1.1c-0.1,1-0.1,2-0.2,2.9c0,0.3,0,0.7,0,1c0,0.6,0.1,1.1-0.1,1.6
		c-0.1,0.4-0.1,0.8-0.1,1.1c0,0.1,0,0.2,0,0.4c0,0.1,0,0.2,0,0.3c0,0.1,0,0.2,0,0.2c-0.3,0.7-0.4,1.3-0.2,2.1
		c0.2,0.8,0.9,1.5,1.7,1.6c0.7,0.1,1.3-0.1,1.8-0.4c0.6-0.5,0.8-1.2,0.7-1.8v-0.2c-0.1-0.4-0.2-0.8-0.1-1.2c0.2-0.9,0.3-1.7,0.2-2.5
		c0-0.3,0-0.6,0.1-1c0-0.2,0.1-0.5,0.1-0.7v-0.1c0-1,0.1-1.9,0.5-2.9c0.2-0.4,0.2-0.9,0.1-1.3c0-0.1,0-0.3,0-0.4c0-0.3,0-0.6,0-0.9
		c0-0.6,0-1.2,0.1-1.8c0-0.2,0.1-0.4,0.1-0.7c0.1-0.8,0.3-1.6,0.1-2.4c-0.1-0.3,0-0.6,0-1c0,0,0,0,0-0.1h0.2c0.7-0.2,1.3-0.3,2-0.5
		c0.1,0,0.2,0,0.2,0l0,0c0.2,0.3,0.6,0.5,0.8,0.6l0.1,0.1c0.5,0.3,0.8,0.6,0.9,1c0.1,0.4,0.3,0.7,0.5,1c0.1,0.1,0.1,0.2,0.2,0.3
		c0.1,0.2,0.2,0.4,0.4,0.6c0.2,0.4,0.4,0.7,0.6,1.1c0.4,0.8,0.7,1.5,0.9,2.3c0.1,0.5,0.1,1,0.1,1.6c0,0.2-0.1,0.5-0.1,0.8
		c0,0.2-0.1,0.4-0.1,0.6c-0.2,1.2,0.1,2.3,0.3,3.4c0.2,0.7,0.3,1.5,0.3,2.2s0.1,1.3,0.2,1.9c0,0.1,0,0.3,0,0.4
		c0.1,0.8,0.2,1.7,1.2,2.5c0.4,0.3,0.9,0.5,1.4,0.5c0.1,0,0.2,0,0.3,0c0.5-0.1,1-0.3,1.3-0.7c0.6-0.8,0.4-1.7,0.4-2.4v-0.2
		c-0.1-0.7-0.1-1.4,0.1-2C61.6,121.4,61.6,121,61.6,120.6z M53.6,99.6c-0.3,0.4-0.7,0.8-1,1.3c-0.1,0.1-0.2,0.3-0.3,0.4v0.1
		c-0.4,0.6-1.1,1.1-1.9,1.5c-0.3,0.2-0.5,0.3-0.8,0.5c-0.1,0.1-0.3,0.1-0.5,0.2c0-0.4,0.1-0.7,0.1-1.1c0.1-0.7,0.1-1.4,0.1-2.1
		c0-0.3,0-0.6-0.1-0.9c0-0.3-0.1-0.5-0.1-0.7c0-0.6,0.1-1.2,0.2-1.8c0.1-0.6,0.2-1.1,0.2-1.7c0.1-0.7,0.1-1.4,0.1-2
		c0-0.2,0-0.4,0-0.6c0-0.3,0-0.6,0-0.8c0-0.2,0-0.4,0-0.5c0-1.2,0-2.3,0-3.5v-1c0.1-0.1,0.3-0.2,0.4-0.3c0.1-0.1,0.2-0.1,0.4-0.2
		c0.3-0.1,0.5-0.1,0.8-0.2s0.6-0.1,0.9-0.2c0.5-0.1,1-0.3,1.5-0.4l0.6-0.2c0.1,0,0.1,0,0.2-0.1c0.2,0,0.4-0.1,0.6-0.2h0.1
		c0.1,0.1,0.2,0.2,0.4,0.2c0.6,0.2,0.7,0.5,0.9,1.3v0.1c0.1,0.3,0.2,0.5,0.3,0.7v0.1c0.4,0.7,0.4,1.4,0.1,2.3
		c-0.2,0.4-0.2,0.9-0.2,1.3c0.1,1.4-0.1,2.9-0.6,4.4c-0.1,0.2-0.1,0.5,0,0.8c0,0.3-0.1,0.5-0.4,0.9C55,97.8,54.3,98.7,53.6,99.6z"/>
	<path class="st0" d="M223.2,21.4c-0.2-0.1-0.5-0.1-0.8-0.1c-0.4,0-0.6,0.1-0.9,0.1h-0.1c-0.2,0-0.4,0.1-0.6,0.2
		c-0.3,0.1-0.6,0.2-0.9,0.2c-2.3,0.4-4.5,1.1-6.7,2.1c-1,0.4-2.2,0.9-3.8,1.3c-0.5,0.1-1,0.2-1.5,0.3c-0.6,0.1-1.2,0.2-1.8,0.3
		c-1.1,0.3-2.3,0.7-3.4,1c-0.6,0.2-1.3,0.4-1.9,0.6c-0.3,0.1-0.6,0.2-1,0.3c-0.3,0.1-0.7,0.2-1,0.3l-0.6,0.2c-1,0.3-2,0.6-3,0.9
		c-0.9,0.3-1.7,0.7-2.2,1.1c0,0,0,0-0.1,0c0-0.3-0.1-0.5-0.1-0.8c0-0.1,0-0.2,0-0.1c0.3-0.8,0.4-1.6,0.2-2.5c0-0.1,0-0.1,0-0.2v-0.3
		c0.1-0.3,0.1-0.7,0.2-1c0-0.3,0.1-0.6,0.1-0.9c0-0.1,0-0.2,0-0.3c0-0.3,0.1-0.6,0-1c0-0.2-0.1-0.5-0.2-0.7
		c-0.1-0.2-0.1-0.4-0.1-0.5c0.1-0.6,0.4-1.3,0.6-1.9c0.1-0.3,0.2-0.5,0.3-0.8c0,0,0-0.1,0.1-0.1c0-0.1,0.1-0.2,0.1-0.3
		c0.1-0.2,0.2-0.5,0.3-0.7c0.2-0.6,0.5-1.2,0.6-1.8c0.1-0.6,0.2-1.2,0.3-1.8c0-0.3,0.1-0.7,0.1-1c0-0.1,0.1-0.2,0.1-0.3
		s0.1-0.2,0.1-0.3s0.1-0.2,0.1-0.3c0.1-0.3,0.3-0.6,0.3-0.9c0-0.3,0-0.5,0-0.8c0-0.2,0-0.4,0-0.6l0.1-0.2c0.1-0.2,0.3-0.4,0.3-0.7
		c0-0.5,0-0.9,0-1.4c0-0.2,0-0.4,0-0.5V7.3c0-0.3,0-0.6,0-0.9c0-0.2,0-0.4,0-0.5c0-0.3,0-0.7,0-1.1c-0.1-0.7-0.6-1.3-1.1-1.7
		c-0.1-0.1-0.2-0.1-0.2-0.2c-0.6-0.6-1.3-0.7-1.7-0.7l0,0c-0.3,0-0.7,0.1-1.2,0.3l-1-0.6l-0.5,0.8c-0.1,0.1-0.1,0.2-0.2,0.2
		c-0.2,0.2-0.4,0.5-0.4,0.8C190,4,190,4.3,190,4.5s0,0.5-0.1,0.7c-0.3,1.3-0.3,2.5-0.3,3.7c0,1.4-0.1,2.7-0.2,4.1l-0.1,0.5
		c-0.1,1.1-0.3,2.3-0.4,3.4c-0.1,0.5-0.1,1-0.2,1.6c-0.1,0.5-0.1,0.9-0.2,1.4c0,0.1,0,0.3,0,0.4c0,0.4-0.1,0.8-0.1,1.2
		c0,0.3,0.2,0.5,0.3,0.7l0.1,0.1c0,0.1,0,0.2,0,0.3c0,0.2,0,0.4,0,0.5c0,0.2,0,0.4,0,0.7c0,0.3,0.1,0.7,0,0.9c0,0.2-0.1,0.5-0.2,0.7
		c-0.2,1.1-0.5,2.2-0.4,3.4c0,0.3,0,0.6,0,0.9v0.1c0,0.1,0,0.2,0,0.3c0,0.2,0,0.4,0,0.6s0,0.4,0,0.7c0,0.3,0.1,0.6,0,0.9
		c0,0.7,0.4,1.3,1.3,1.5c0.4,0.1,0.7,0.1,1,0.1c0.7,0,1.2-0.3,1.4-0.5c0,0,0,0,0.1,0c0.3-0.1,0.7-0.2,1-0.2c0.5-0.1,1-0.2,1.6-0.4
		c0.5-0.1,1-0.3,1.5-0.4c0.4-0.1,0.8-0.2,1.2-0.3c0.6-0.2,1.3-0.3,2-0.5c0.3-0.1,0.6-0.1,0.8-0.2c0.4-0.1,0.8-0.2,1.2-0.3
		c0.9-0.2,1.8-0.4,2.7-0.7c2.2-0.7,4.2-1.3,6.3-1.8c1.1-0.3,2.4-0.6,3.7-1c0.9-0.3,1.8-0.6,2.6-0.9c1-0.4,2-0.7,3-1.1
		c1.6-0.5,2.9-1.3,4-2.4c0.2-0.2,0.3-0.4,0.3-0.5c0,0,0-0.1,0.1-0.1l0.4-0.7l-1-0.2C223.3,21.5,223.2,21.5,223.2,21.4z"/>
	<path class="st0" d="M18,104.7l-0.1-0.9c0-0.3-0.1-0.6-0.1-1c0-0.2-0.1-0.4-0.1-0.6c0-0.3-0.1-0.5-0.1-0.8c0-0.4-0.1-0.8-0.1-1.3
		c0-0.3-0.1-0.6-0.1-1c0-0.1,0-0.2-0.1-0.3v-0.1c0.4-0.9,0.1-1.7-0.1-2.3c-0.1-0.3-0.2-0.6-0.2-0.8c0-0.4-0.3-0.8-0.4-1
		c-0.2-0.3-0.7-0.7-1.3-0.6c-0.5,0-1.1,0.3-1.3,0.7c-0.2,0.3-0.2,0.6-0.2,0.8v0.1c0,0.2,0,0.3-0.1,0.5c0,0.2,0,0.3-0.1,0.5
		c0,0.1,0,0.2-0.1,0.3c0,0.2-0.1,0.4-0.1,0.6c-0.1,0.7-0.2,1.6-0.2,2.4c0,0.7,0,1.5,0,2.2c0,0.3,0.1,0.5,0.1,0.7s0.1,0.5,0.1,0.7
		c0,0.5-0.1,1-0.1,1.5c-0.1,0.4-0.1,0.9-0.1,1.3c0,0.7,0,1.3,0,2.1c-0.4,0.1-0.7,0.2-1.1,0.3c-0.2,0.1-0.3,0.1-0.5,0.2l0,0
		c-1.2-0.1-2.3,0.1-3.4,0.3c-0.3,0.1-0.7,0.1-1,0.2c-0.8,0.1-1.5,0.3-2.2,0.5c-0.1-0.7-0.2-1.5-0.3-2.2v-0.1c0-0.2,0.1-0.4,0.1-0.7
		c0.1-0.5,0.2-1,0.2-1.5c0-0.3,0-0.5-0.1-0.7c0-0.1-0.1-0.3-0.1-0.4c0.1-0.8,0.3-1.6,0.4-2.2c0.2-0.8,0.1-1.7,0.1-2.5
		c0-0.2,0-0.3,0-0.5c0-0.5-0.4-0.9-0.9-1.2c-0.5-0.2-1-0.2-1.4,0H2.9c-0.5,0.2-1.4,0.7-1.5,1.6s-0.1,1.8-0.1,2.7c0,0.4,0,0.7,0,1.1
		c0,0.5,0,1,0,1.5c0,0.3-0.1,0.7-0.1,1c-0.1,0.3-0.1,0.6-0.2,0.9c0,0.5-0.1,0.9-0.1,1.3c0,0.2,0,0.5,0,0.7s0,0.5-0.1,0.7
		c0,0.5-0.1,1.1,0,1.7c0.1,0.9,0,1.6-0.2,2.3c0,0.1-0.1,0.3-0.1,0.4c0,0.6,0,1.2,0,1.8c0,0.9,0,1.8-0.1,2.7c0,0.2,0,0.3,0,0.5
		s-0.1,0.5-0.1,0.7c0,0.1,0,0.2,0,0.3c0,0.4,0,0.9,0.2,1.4c0.1,0.3,0.1,0.4,0,0.5l0.1,0.3c-0.1,0.2-0.2,0.5-0.3,0.7
		c-0.2,0.8-0.5,1.8,0.2,2.8c0.5,0.7,1.3,1,2.1,0.8c0.9-0.2,1.5-0.8,1.6-1.5c0-0.3,0.1-0.6,0.1-0.9c0-0.4,0.1-0.8,0.1-1.1
		c0-0.3,0-0.5,0-0.7c0-0.1,0-0.2,0-0.3v-0.2c0-0.2,0-0.4,0-0.6c0-0.1,0-0.3,0.1-0.4c0-0.2,0.1-0.4,0.1-0.7c0-0.4,0-0.7,0-1.1
		c0-0.3,0-0.6,0-0.9v-0.2c0-0.6,0-1.1,0.1-1.6v-0.2c0.1-0.8,0.3-1.7,0.2-2.6c0.4-0.1,0.8-0.2,1.2-0.3c0.8-0.2,1.3-0.4,1.9-0.2
		c0.3,0.1,0.6,0,0.7,0c1.2-0.2,2.4-0.5,3.6-0.7c0.2-0.1,0.5-0.1,0.7-0.2c0,0.1,0,0.1,0,0.2c0,0.4,0.1,0.8,0.2,1.1
		c0,0.3,0.1,0.5,0.1,0.8l0.1,0.6c0.1,0.9,0.2,1.8,0.3,2.7c0,0.7,0,1.4,0,2.1c0,0.3,0,0.5,0,0.8s0,0.6,0,1v0.1c0,0.1,0,0.1,0,0.2
		s0,0.2,0,0.2v0.3c0,0.3-0.1,0.6-0.1,1c0,0.2,0,0.4,0,0.6c0,0.3,0,0.5,0,0.7c-0.1,0.9,0.1,1.5,1.2,2c0.2,0.1,0.4,0.1,0.5,0.1h0.1
		c0.2,0.1,0.4,0.1,0.6,0.1c0.3,0,0.6-0.1,0.8-0.2c0.4-0.2,0.7-0.6,0.8-1c0-0.1,0-0.3,0.1-0.4c0.1-0.3,0.1-0.5,0.1-0.8
		c0-0.5,0-0.9,0-1.3c0-0.3,0-0.6,0-0.9c0-0.1,0-0.2,0-0.3c0-0.4,0-0.7,0.1-1c0.2-0.7,0.2-1.5-0.2-2.3c-0.2-0.4-0.2-0.7-0.2-0.8
		c0-0.4,0.1-0.7,0.1-1.1c0.1-0.8,0.3-1.7,0.2-2.7c-0.1-0.6,0-1.2,0.1-1.8c0.1-0.4,0.1-0.9,0.1-1.3c0-0.3-0.1-0.6-0.1-0.9
		c-0.1-0.2-0.1-0.4-0.1-0.5c0-0.5,0.1-1.1,0.2-1.6c0-0.2,0.1-0.5,0.1-0.7v-0.1c0-0.1,0.1-0.3,0-0.4C18.1,105.7,18,105.2,18,104.7z"
		/>
	<path class="st0" d="M35.4,91.1c0.9-0.3,1.8-0.6,2.8-0.9c0.3-0.1,0.6-0.3,0.8-0.4c0.4-0.2,0.6-0.3,0.8-0.3c0.3,0,0.6-0.1,0.8-0.3
		c0.1-0.1,0.1-0.1,0.6-0.1c0.8,0,1.6-0.2,2.1-0.8c0.4-0.4,0.5-1,0.3-1.5c-0.2-0.4-0.5-0.7-1-0.8c-0.8-0.2-2-0.3-3,0.4l-0.1,0.1
		c-0.1,0.1-0.2,0.2-0.3,0.2c-0.4,0.1-0.7,0.3-1,0.4c-0.3,0.2-0.4,0.2-0.6,0.2c-0.1,0-0.4,0-0.6,0.1l-0.4,0.1
		c-0.4,0.1-0.8,0.3-1.3,0.4c-0.2,0.1-0.4,0.1-0.5,0.2c-0.2,0.1-0.5,0.1-0.7,0.2c-0.3,0.1-0.6,0.2-1,0.3c-0.6,0.2-1.2,0.4-1.7,0.6
		c-0.8,0.2-2,0.8-2.2,1.7c-0.1,0.8-0.2,1.7-0.3,2.5c0,0.3,0,0.6,0,0.9s0,0.7,0,1c0,0.4-0.1,0.8-0.2,1.2c-0.1,0.4-0.1,0.8-0.2,1.2
		c0,0.4-0.1,0.7-0.1,1.1c0,0.3,0,0.5,0,0.8c0,0.4-0.1,0.8-0.1,1.2c-0.1,0.6-0.1,1.2-0.2,1.8c0,0.3,0,0.6,0,0.9c0,0.2,0,0.5,0,0.7
		c0,0.6-0.1,1.2-0.2,1.8c-0.1,0.7-0.2,1.4-0.2,2.1c0,0.1,0,0.2,0,0.3c0,0.5,0,0.9-0.2,1.3c-0.1,0.3-0.2,0.6-0.2,1
		c0,0.3,0.1,0.7,0.1,1c0,0.4,0.1,0.8,0.1,1.2c0,0.2,0,0.4,0,0.6s0,0.4-0.1,0.5c0,0.5,0,1-0.1,1.5c0,0.4,0,0.8,0,1.2
		c0,0.6-0.1,1.2-0.1,1.8c0,0.1,0,0.1,0,0.2s0,0.2,0,0.3v0.2c0,0.4-0.1,0.7-0.1,1.1c0,0.3,0,0.6,0,0.9c0,0.2,0,0.3,0,0.5s0,0.4,0,0.5
		c0,0.3,0,0.7,0,1s0.1,0.6,0.2,0.8c0.1,0.3,0.1,0.5,0.1,0.7c-0.1,0.6,0.1,1.2,0.6,1.5c0.6,0.4,1.3,0.4,2.2,0.1
		c0.4-0.1,0.5-0.1,0.7-0.1c0.7,0.2,1.4,0.4,2,0.4h0.2c0.3,0,0.5,0,0.6,0.1c0.5,0.2,1.1,0.2,1.6,0.2c0.8,0,1.7-0.2,2.4-0.4
		c0.3-0.1,0.5-0.1,0.5-0.1l0,0c0.9,0.3,1.8,0.3,2.5,0.2c0.5-0.1,2.2-0.2,2.8-1.7c0.3-0.6,0-1-0.1-1.2c-0.2-0.2-0.5-0.5-1.3-0.5
		c-0.1,0-0.2,0-0.3,0s-0.3,0-0.3,0c-1-0.2-2-0.3-3.2,0c-0.2,0-0.3,0-0.4,0c-1.2-0.3-2.3-0.3-3.5-0.2h-0.1c-0.3,0-0.6,0.1-0.9,0.1
		c-0.9-0.1-1.6-0.1-2.3,0.1c0,0,0,0,0-0.1c0-0.7,0-1.4,0.1-2.1c0-0.5,0.1-1,0.2-1.5c0.1-0.4,0.2-0.8,0.2-1.2
		c0.1-0.5,0.1-0.9,0.1-1.4c0-0.1,0-0.3,0-0.4s0-0.2,0-0.4c0-0.1,0-0.2,0-0.3c0-0.3,0.1-0.6,0.1-0.9c0.1-0.5,0.2-1,0.2-1.5
		c0-0.3-0.1-0.5-0.1-0.8c0-0.1-0.1-0.2-0.1-0.3c0-0.6,0-1.3,0-1.9v-0.7v-0.1l0,0c0.2-0.4,0.3-0.9,0.3-1.3c0.5-0.1,0.9-0.1,1.4-0.2
		s0.9-0.2,1.2-0.3c0.3-0.1,0.4-0.1,0.4-0.1c0.4,0.1,0.7,0.1,1,0.1l0.7-0.1c1.1-0.1,2.2-0.2,3.2-0.4c0.6-0.1,1.1-0.3,1.5-0.5
		c0.5-0.3,0.7-0.8,0.7-1.3s-0.4-1-0.9-1.2c-0.3-0.1-0.6-0.2-1.1-0.2c-0.1,0-0.2,0-0.4,0c-0.5,0-1-0.1-1.5,0c-0.3,0-0.5,0.1-0.8,0.2
		c-0.7,0.2-1.4,0.3-2.1,0.3c-0.3,0-0.7,0-1,0.1c-0.6,0.2-1.2,0.2-1.9,0.1c0-0.2,0-0.4,0.1-0.7c0-0.3,0-0.7,0-1s0-0.6,0-1
		c0-0.5,0.1-1,0.1-1.5c0.1-0.4,0-0.9,0-1.3c0-0.6-0.1-1.1,0.1-1.5c0.2-0.3,0.2-0.7,0.2-1c0-0.1,0-0.1,0-0.2c0-0.4,0-0.8,0-1.3
		c0-0.6,0-1.1,0.1-1.7c0-0.1,0-0.2,0.1-0.4c0.1-0.3,0.1-0.8-0.1-1.3c0.4-0.4,0.9-0.6,1.6-0.8L35.4,91.1z"/>
	<path class="st0" d="M24.8,93.4c0-0.2-0.1-0.5-0.2-0.7c-0.2-0.5-0.8-0.9-1.4-1c-0.7-0.1-1.4,0.1-1.8,0.5c-0.6,0.6-0.9,1.3-0.8,2.1
		c0.1,0.6,0.1,1.1,0.1,1.5c0,0.2,0,0.3,0,0.5s0,0.5,0,0.7s0,0.4,0.1,0.6c0,0.2,0.1,0.4,0.1,0.6c0,0.8-0.1,1.7-0.1,2.5
		c0,0.4-0.1,0.9-0.1,1.3c0,0.1,0,0.3,0,0.4s0,0.1,0,0.2c0,0.2,0,0.3-0.1,0.5c-0.1,0.4-0.1,0.7-0.1,1.1c0,0.5,0.1,1,0.1,1.5
		c0.1,0.6,0.1,1.1,0.1,1.7c0,0.8-0.1,1.6-0.1,2.4c0,0.3,0,0.6-0.1,0.8v0.3c0,0.7-0.1,1.3-0.2,2c-0.2,1-0.1,2.1,0.3,3.2
		c0,0.1,0.1,0.2,0.1,0.3c0.2,0.5,0.3,0.9,0.3,1.3c0,0.6-0.1,1.1-0.2,1.7c-0.1,0.5-0.2,1-0.2,1.5c-0.1,1.1-0.1,2.2-0.1,3.3v0.2
		c0,1,0.7,1.6,1.2,2.1c0.1,0.1,0.2,0.2,0.3,0.2c0.2,0.2,0.6,0.4,1,0.4h0.1c0.3,0,0.8-0.1,1.2-0.4c0.7-0.7,0.5-1.3,0.3-1.6
		c-0.1-0.1-0.1-0.3-0.1-0.3c0-0.3,0.1-1-0.5-1.5c0.1-1.2,0.2-2.5,0.3-3.7c0-0.2,0-0.3,0.1-0.5c0.1-0.7,0.2-1.5-0.3-2.3
		c0,0,0-0.1,0-0.2s0-0.1,0-0.2c-0.1-0.4-0.1-0.9-0.2-1.3c0-0.2-0.1-0.3-0.1-0.5c-0.1-0.4-0.1-0.7-0.1-1c0-0.6,0.1-1.2,0.2-2
		c0.1-0.7,0.2-1.2,0.5-1.7c0-0.1,0.1-0.1,0.1-0.2c0.3-0.5,0.7-1.3,0.2-2.1l0,0c0-0.1,0-0.1,0-0.2s0-0.3,0-0.4s0-0.2,0-0.3l0.1-0.6
		c0-0.4,0.1-0.7,0.1-1.1c0-0.1,0-0.2,0-0.2c0-0.2,0.1-0.3,0.1-0.5c0-0.8,0-1.6-0.1-2.7c0-0.4,0-0.8-0.1-1.2c0-0.2,0-0.5,0-0.7
		s0-0.5,0-0.7c0-0.5-0.1-1.1,0-1.6c0-0.8,0.1-1.5,0.2-2.3c0-0.3,0.1-0.7,0.1-1.1v-0.1v-0.1C24.8,93.5,24.8,93.4,24.8,93.4z"/>
</g>
</svg>
