<svg xmlns="http://www.w3.org/2000/svg" xmlns:xlink="http://www.w3.org/1999/xlink" width="167.6" height="85.6" xmlns:v="https://vecta.io/nano"><g fill="#fff"><path d="M119.7 10.8l-1.6-4.2-1.6 4.2h3.2zm-2.4-6.3h1.6l4.4 10.2h-2.1l-1-2.3h-4.4l-.9 2.3h-2l4.4-10.2zm8.5 0h1.9V13h4.3v1.7h-6.2z"/><use xlink:href="#B"/><path d="M117.6 20.9h6.8v1.6h-5V25h4.7v1.7h-4.7v2.8h5.2v1.6h-7zm15.3 0h1.8v8.6h4.3v1.6h-6.1z"/><use xlink:href="#B" x="7" y="16.4"/><path d="M105.6 37.3h2.8l2.7 7.2 2.8-7.2h2.7v10.2h-1.7V39h0l-3.1 8.5h-1.3l-3.1-8.5h0v8.5h-1.8zm35.3 0h1.8v10.2h-1.8zm12.1 2.4c-.8-.8-1.4-1-2.2-1-2.1 0-3.5 1.6-3.5 3.7 0 2.2 1.4 3.8 3.5 3.8.8 0 1.6-.4 2.3-1.2l1.5 1.1c-.9 1.3-2.3 1.8-3.8 1.8-3.1 0-5.4-2.1-5.4-5.3 0-3.3 2.3-5.4 5.4-5.4 1.4 0 2.6.4 3.6 1.6l-1.4.9z"/><use xlink:href="#B" x="21.7" y="32.8"/><path d="M114.5 58.8c0-2.4-1.6-4.2-4-4.2s-4 1.9-4 4.2c0 2.4 1.6 4.2 4 4.2 2.4.1 4-1.8 4-4.2m-9.4 0c0-3.1 2.2-5.4 5.3-5.4s5.3 2.3 5.3 5.4-2.2 5.4-5.3 5.4-5.3-2.3-5.3-5.4m14.9-.6h1.1c1.3 0 3.1 0 3.1-1.7 0-1.5-1.3-1.7-2.5-1.7H120v3.4zm-1.2-4.5h2.6c2 0 4.1.3 4.1 2.8 0 1.5-1 2.5-2.6 2.7l2.9 4.7h-1.5l-2.8-4.6H120V64h-1.2V53.7zm9.9 0h6.4v1.2h-5.2v3.3h4.8v1.2h-4.8V64h-1.2zm9.1 0h6.5v1.2h-5.2v3.2h4.8v1.1h-4.8v3.6h5.4V64h-6.7z"/><path d="M152.7 50.9h1.6l-2.1 2.1h-1l1.5-2.1zm3.6 7.9c0-2.4-1.6-4.2-4-4.2s-4 1.9-4 4.2c0 2.4 1.6 4.2 4 4.2 2.3.1 4-1.8 4-4.2m-9.4 0c0-3.1 2.2-5.4 5.3-5.4s5.3 2.3 5.3 5.4-2.2 5.4-5.3 5.4-5.3-2.3-5.3-5.4m-34 13.5c-.6-.8-1.6-1.2-2.6-1.2-2.3 0-3.9 2-3.9 4.2 0 2.4 1.6 4.2 3.9 4.2 1.2 0 2.2-.5 3-1.4l.9.8c-.9 1.2-2.2 1.8-3.9 1.8-2.9 0-5.2-2.3-5.2-5.4 0-3 2.2-5.4 5.2-5.4 1.4 0 2.7.5 3.6 1.6l-1 .8zm8.5-.6h0l-2.2 5h4.2l-2-5zm-.5-1.5h1.1l4.3 10.2h-1.4l-1-2.5h-5.1l-1.1 2.5h-1.4l4.6-10.2zm14.7 1.1h-3.3v9.1H131v-9.1h-3.3v-1.1h7.9zm5.8.4h0l-2.2 5h4.2l-2-5zm-.5-1.5h1.1l4.3 10.2H145l-1-2.5h-5.1l-1.1 2.5h-1.4l4.5-10.2zm8.2 0h1.2v9.1h4.7v1.1h-5.9zm13.6 1.5h0l-2.2 5h4.2l-2-5zm.9-2.3h-1l-2.1-2.1h1.6l1.5 2.1zm-1.4.8h1.1l4.3 10.2h-1.4l-1-2.5h-5.1l-1.1 2.5h-1.4l4.6-10.2zM71.4 54.1c-1.9 3.1-5.2 4.2-9 4.2s-7.1-1.1-9-4.2c-1.6-2.5-2.3-6.3-2.7-9.8 8.9-1.6 17.5-9.9 17.5-22 0-2.3-.3-4.4-.9-6.3 1.7.7 3.1 1.7 4 3.4 3 5 3 14.3 3 17.4.2 2.9.1 12.4-2.9 17.3M43.8 80.8c-1.9 3.1-5.2 4.2-9 4.2s-7.1-1.1-9-4.2c-1.4-2.3-2.2-5.8-2.6-9.1 9-1.4 17.7-9.8 17.7-22 0-2.5-.4-4.8-1-7 1.6.7 2.9 1.7 3.9 3.3 3 5 3 14.3 3 17.4 0 3-.1 12.6-3 17.4M11.5 67c-3-5-3-14.3-3-17.4 0-3 .1-12.6 3-17.4 1.9-3.1 5.2-4.2 9-4.2s7.1 1.1 9 4.2c1.4 2.3 2.2 5.8 2.6 9.1-9 1.4-17.7 9.8-17.7 22 0 2.5.4 4.8 1 7-1.6-.6-3-1.7-3.9-3.3M38.8 4.9c1.9-3.1 5.2-4.2 9-4.2s7.1 1.1 9 4.2c1.6 2.5 2.3 6.3 2.7 9.8-8.9 1.6-17.5 9.9-17.5 22 0 2.3.3 4.4.9 6.3-1.7-.7-3.1-1.7-4-3.4-3-5-3-14.3-3-17.4-.1-3-.1-12.5 2.9-17.3m-6.3 44.8c0 3-.1 12.4-3 17.4-1.4 2.4-3.7 3.6-6.3 4-.3-3.2-.4-6.2-.4-7.7 0-3 .1-12.4 3-17.4 1.4-2.3 3.7-3.6 6.3-4 .4 3.2.4 6.2.4 7.7m27.3-27.4c0 3-.1 12.4-3 17.4-1.3 2.3-3.5 3.5-6.1 4-.3-2.9-.3-5.6-.3-6.9 0-3 .1-12.4 3-17.4 1.4-2.3 3.5-3.5 6.1-4 .3 2.9.3 5.5.3 6.9m7.3-7.2C64.1 5.8 55.5 0 47.8 0c-9.6 0-20.5 8.8-20.5 22.3 0 2.5.4 4.9 1 7-2.6-1.2-5.3-1.9-7.9-1.9C10.9 27.4 0 36.2 0 49.7 0 60.9 7.4 69 15.7 71.2c3.2 8.9 11.6 14.4 19.1 14.4 9.6 0 20.5-8.8 20.5-22.3 0-2.3-.3-4.4-.9-6.4 2.6 1.3 5.4 2 8.1 2 9.6 0 20.5-8.8 20.5-22.3-.1-11.3-7.6-19.3-15.9-21.5m41.4-6.2c1 0 2.4-.1 2.4-1.4s-1.2-1.4-2.2-1.4h-1.3V9h1.1v-.1zm-2.9-4.4h3.4c2 0 3.8.7 3.8 3 0 2.6-1.9 3-4.1 3h-1.3v4.2h-1.8V4.5zm49.6 6.4c0 2.5-1.8 4-4.1 4s-4.1-1.5-4.1-4V4.5h1.8v6.4c0 1 .5 2.3 2.3 2.3 1.7 0 2.3-1.3 2.3-2.3V4.5h1.8v6.4zm-46.4 18.6c2.3 0 4.1-1 4.1-3.5s-1.6-3.5-3.8-3.5h-1.7v6.9h1.4v.1zm-3.2-8.6h4c2.7 0 5.2 1.6 5.2 5.1s-3 5.1-5.4 5.1h-3.8V20.9zm19.3 13.6h2l-2 2.1h-1.4l1.4-2.1zm3.3 9.3c0 2.5-1.8 4-4.1 4s-4.1-1.5-4.1-4v-6.5h1.8v6.4c0 1 .5 2.3 2.3 2.3 1.7 0 2.3-1.3 2.3-2.3v-6.4h1.8v6.5h0zm8.3-4.3c-.4-.5-1.1-.8-1.8-.8-.8 0-1.7.4-1.7 1.3 0 2.1 4.9.9 4.9 4.5 0 2.2-1.7 3.3-3.7 3.3-1.3 0-2.5-.4-3.3-1.4l1.4-1.3c.4.7 1.2 1.1 2 1.1s1.8-.5 1.8-1.4c0-2.2-4.9-1-4.9-4.6 0-2.1 1.9-3.1 3.8-3.1 1.1 0 2.1.3 2.9 1.1l-1.4 1.3z"/></g><defs ><path id="B" d="M141.2 10.8l-1.6-4.2-1.6 4.2h3.2zm-2.3-6.3h1.6l4.4 10.2h-2.1l-1-2.3h-4.4l-.9 2.3h-2l4.4-10.2z"/></defs></svg>