<?xml version="1.0" encoding="utf-8"?>
<!-- Generator: Adobe Illustrator 24.0.0, SVG Export Plug-In . SVG Version: 6.00 Build 0)  -->
<svg version="1.1" id="Laag_1" xmlns="http://www.w3.org/2000/svg" xmlns:xlink="http://www.w3.org/1999/xlink" x="0px" y="0px"
	 width="156.3px" height="18.7px" viewBox="0 0 156.3 18.7" style="enable-background:new 0 0 156.3 18.7;" xml:space="preserve">
<style type="text/css">
	.st0{fill:#FFFFFF;}
</style>
<g>
	<path class="st0" d="M37.5,4.9h-4.3V2.3h11.7v2.5h-4.3v12.8h-3.1V4.9z"/>
	<path class="st0" d="M47.3,2.3h3.1v15.3h-3.1V2.3z"/>
	<path class="st0" d="M53.4,11.1V8.9C53.4,5,55.4,2,60.1,2c3.9,0,6.3,2.6,6.4,5.8h-2.8c-0.2-1.7-1.3-3.2-3.6-3.2
		c-2.6,0-3.7,1.8-3.7,4.2v2.5c0,2.5,1.1,4.2,3.7,4.2c2.3,0,3.4-1.5,3.6-3.2h2.8c-0.2,3.1-2.5,5.8-6.4,5.8C55.4,18,53.4,15,53.4,11.1
		z"/>
	<path class="st0" d="M69.3,2.3h3.1v7.4l5.4-7.4h3.6l-5.8,7.6l5.9,7.7h-3.6l-5.5-7.5v7.5h-3.1V2.3z"/>
	<path class="st0" d="M83.5,2.3h10.7v2.5h-7.7v3.7h7v2.6h-7v3.9h7.7v2.5H83.5V2.3z"/>
	<path class="st0" d="M100.2,4.9h-4.3V2.3h11.7v2.5h-4.3v12.8h-3.1V4.9z"/>
	<path class="st0" d="M109.2,13.2v-0.4h2.9v0.3c0,1.4,1.1,2.5,3.2,2.5c1.8,0,3-0.8,3-2.2c0-0.9-0.4-1.5-1.4-1.7l-4-1
		c-2.3-0.6-3.4-1.7-3.4-4c0-2.9,2.2-4.6,5.6-4.6c3.4,0,5.5,1.9,5.5,4.6V7h-2.8V6.7c0-1.3-0.8-2.3-2.7-2.3c-1.6,0-2.7,0.7-2.7,2
		c0,0.9,0.5,1.4,1.3,1.6l4.2,1.1c2.3,0.6,3.3,1.9,3.3,4c0,2.9-2.6,4.8-6.1,4.8C111.6,18,109.2,16.2,109.2,13.2z"/>
</g>
</svg>
