<?xml version="1.0" encoding="utf-8"?>
<!-- Generator: Adobe Illustrator 24.0.0, SVG Export Plug-In . SVG Version: 6.00 Build 0)  -->
<svg version="1.1" id="Laag_1" xmlns="http://www.w3.org/2000/svg" xmlns:xlink="http://www.w3.org/1999/xlink" x="0px" y="0px"
	 width="156.3px" height="13.9px" viewBox="0 0 156.3 13.9" style="enable-background:new 0 0 156.3 13.9;" xml:space="preserve">
<g>
	<path d="M8.1,7.8l1-5.5h2l-2,8.4H7.3L5.6,4.8l-1.7,5.9H2L0,2.3h2l1,5.5l1.6-5.5h1.9L8.1,7.8z"/>
	<path d="M16.4,9.1h-3l-0.5,1.6h-2.1l3-8.4H16l3,8.4h-2.1L16.4,9.1z M13.9,7.5h2l-1-3.3L13.9,7.5z"/>
	<path d="M25.3,2.3V4H23v6.7H21V4h-2.3V2.3H25.3z"/>
	<path d="M29.1,2.3h6.1V4h-4v1.6h3.7v1.7h-3.7V9h4v1.7h-6.1V2.3z"/>
	<path d="M36.6,2.3h6.1V4h-4v1.6h3.7v1.7h-3.7V9h4v1.7h-6.1V2.3z"/>
	<path d="M50.2,2.3V4h-2.3v6.7h-2.1V4h-2.3V2.3H50.2z"/>
	<path d="M59.8,2.3v5.8c0,1.6-1.3,2.7-3.1,2.7c-1.9,0-3.1-1.1-3.1-2.8V8h2v0.1c0,0.6,0.3,1.1,1.1,1.1c0.7,0,1.1-0.4,1.1-1V2.3H59.8z
		"/>
	<path d="M63.5,10.7h-2.1V2.3h2.1V10.7z"/>
	<path d="M71.1,2.3v5.8c0,1.6-1.3,2.7-3.1,2.7c-1.9,0-3.1-1.1-3.1-2.8V8h2v0.1c0,0.6,0.3,1.1,1.1,1.1c0.7,0,1.1-0.4,1.1-1V2.3H71.1z
		"/>
	<path d="M81.7,2.3h1.9v8.4h-2V6.3l-1.3,2.6h-1.6l-1.3-2.6v4.4h-2V2.3h1.9l2.2,4.6L81.7,2.3z"/>
	<path d="M88.9,10.9C86.3,10.9,85,9.2,85,7V6c0-2.2,1.3-3.8,3.9-3.8c2.5,0,3.8,1.6,3.8,3.8V7C92.7,9.2,91.4,10.9,88.9,10.9z
		 M88.9,3.9c-1.2,0-1.8,0.8-1.8,2v1.3c0,1.2,0.6,2,1.8,2c1.2,0,1.8-0.8,1.8-2V5.9C90.6,4.7,90.1,3.9,88.9,3.9z"/>
	<path d="M97.5,8.2h-1.4v2.5h-2.1V2.3h3.9c2,0,3.1,1.2,3.1,3c0,1.2-0.6,2.1-1.6,2.6l1.7,2.8H99L97.5,8.2z M97.8,4h-1.6v2.6h1.6
		c0.9,0,1.3-0.5,1.3-1.3C99.1,4.5,98.7,4,97.8,4z"/>
	<path d="M107.7,5.2c0-0.7-0.6-1.4-1.6-1.4c-1.2,0-1.7,0.6-1.7,2v1.3c0,1.2,0.5,2.1,1.7,2.1c1,0,1.6-0.6,1.6-1.3h-1.6V6.2h3.7v1.2
		c0,2.1-1.5,3.5-3.7,3.5c-2.5,0-3.8-1.7-3.8-3.8V5.9c0-2.3,1.5-3.8,3.7-3.8c2.2,0,3.6,1.3,3.6,3.1H107.7z"/>
	<path d="M111.2,2.3h6.1V4h-4v1.6h3.7v1.7h-3.7V9h4v1.7h-6.1V2.3z"/>
	<path d="M123.8,10.7l-3.1-4.9v4.9h-2V2.3h2l3.2,4.9V2.3h2v8.4H123.8z"/>
	<path d="M128.8,7.4c0-0.9,0.2-1.4,0.7-1.8l0.5-0.4c0.4-0.3,0.7-0.4,0.7-0.8s-0.4-0.7-0.9-0.7c-0.6,0-1,0.3-1,0.8v0.2H127V4.6
		c0-1.7,1.2-2.4,2.9-2.4c1.6,0,2.9,0.9,2.9,2.3c0,0.9-0.4,1.4-0.9,1.8l-0.6,0.4c-0.4,0.3-0.6,0.5-0.6,1.1V8h-1.8V7.4z M129.7,8.6
		c0.7,0,1.1,0.5,1.1,1.1s-0.5,1.1-1.1,1.1c-0.7,0-1.1-0.5-1.1-1.1S129,8.6,129.7,8.6z"/>
</g>
</svg>
