<?xml version="1.0" encoding="utf-8"?>
<!-- Generator: Adobe Illustrator 24.3.0, SVG Export Plug-In . SVG Version: 6.00 Build 0)  -->
<svg version="1.1" id="Laag_1" xmlns="http://www.w3.org/2000/svg" xmlns:xlink="http://www.w3.org/1999/xlink" x="0px" y="0px"
	 width="204.6px" height="27.7px" viewBox="0 0 204.6 27.7" style="enable-background:new 0 0 204.6 27.7;" xml:space="preserve">
<g>
	<path style="fill:#FFFFFF;" d="M18.6,23.8l5.1-17h2.1l-6.3,20.4h-1.9l-4.8-16.7L8.1,27.2H6.2L0,6.8h2.2l5.1,16.9L12,6.8h1.8
		L18.6,23.8z"/>
	<path style="fill:#FFFFFF;" d="M43.1,17.5H29.7v2.4c0,3.7,2.3,5.9,5.7,5.9c3.5,0,5.6-2.2,5.6-5v-0.2h2.1v0.1c0,3.7-2.9,6.9-7.7,6.9
		c-4.9,0-7.7-2.9-7.7-8.1v-4.9c0-5.1,2.8-8.1,7.7-8.1c4.8,0,7.7,2.9,7.7,8V17.5z M29.7,15.9h11.3v-1.6c0-4-2.1-6-5.6-6
		c-3.6,0-5.7,2.2-5.7,6V15.9z"/>
	<path style="fill:#FFFFFF;" d="M62.2,17.5H48.8v2.4c0,3.7,2.3,5.9,5.7,5.9c3.5,0,5.6-2.2,5.6-5v-0.2h2.1v0.1c0,3.7-2.9,6.9-7.7,6.9
		c-4.9,0-7.7-2.9-7.7-8.1v-4.9c0-5.1,2.8-8.1,7.7-8.1c4.8,0,7.7,2.9,7.7,8V17.5z M48.8,15.9h11.3v-1.6c0-4-2.1-6-5.6-6
		c-3.6,0-5.7,2.2-5.7,6V15.9z"/>
	<path style="fill:#FFFFFF;" d="M78.5,13.6c0-3.7-1.9-5.4-5.6-5.4c-3.3,0-5.1,1.6-5.1,3.8c0,6.2,12.8,2.4,12.8,9.9
		c0,3.4-2.5,5.8-7.5,5.8c-4.9,0-7.8-2.9-7.8-7.5h2c0,3.5,2.1,5.7,5.7,5.7c3.2,0,5.4-1.5,5.4-4c0-5.5-12.7-1.9-12.7-9.8
		c0-3.5,2.5-5.7,7.1-5.7c4.9,0,7.5,2.5,7.5,7.3H78.5z"/>
	<path style="fill:#FFFFFF;" d="M109.5,23.8l5.1-17h2.1l-6.3,20.4h-1.9l-4.8-16.7L99,27.2h-1.9L90.9,6.8H93l5.1,16.9l4.8-16.9h1.8
		L109.5,23.8z"/>
	<path style="fill:#FFFFFF;" d="M134,17.5h-13.4v2.4c0,3.7,2.3,5.9,5.7,5.9c3.5,0,5.6-2.2,5.6-5v-0.2h2.1v0.1c0,3.7-2.9,6.9-7.7,6.9
		c-4.9,0-7.7-2.9-7.7-8.1v-4.9c0-5.1,2.8-8.1,7.7-8.1c4.8,0,7.7,2.9,7.7,8V17.5z M120.6,15.9h11.3v-1.6c0-4-2.1-6-5.6-6
		c-3.6,0-5.7,2.2-5.7,6V15.9z"/>
	<path style="fill:#FFFFFF;" d="M140.2,0v27.2h-2.1V0H140.2z"/>
	<path style="fill:#FFFFFF;" d="M157.3,27.2l-8-9.4h-2.1v9.4h-2.1V0h2.1v16.1h2.1l7.9-9.3h2.6L151,17l8.9,10.2H157.3z"/>
	<path style="fill:#FFFFFF;" d="M160.9,19.4v-4.8c0-4.9,2.8-8.1,7.7-8.1c4.8,0,7.7,3.2,7.7,8.1v4.8c0,5-2.9,8.2-7.7,8.2
		C163.7,27.6,160.9,24.4,160.9,19.4z M174.3,19.6v-5.2c0-3.7-2.2-5.9-5.6-5.9c-3.6,0-5.7,2.2-5.7,5.9v5.2c0,3.8,2.1,6,5.7,6
		C172.1,25.6,174.3,23.4,174.3,19.6z"/>
	<path style="fill:#FFFFFF;" d="M182.7,6.8v2.7c0.7-1.6,2.4-3,5-3c2.6,0,4.5,1.3,5.4,3.7c0.7-2.1,2.8-3.7,5.6-3.7
		c3.7,0,5.8,2.7,5.8,7v13.7h-2.1V13.3c0-3.1-1.5-5-4.4-5c-2.8,0-4.4,1.9-4.4,4.8v14.2h-2.1V13.3c0-3.2-1.6-5-4.4-5
		c-2.8,0-4.5,1.8-4.5,4.8v14.2h-2V6.8H182.7z"/>
</g>
</svg>
