<?xml version="1.0" encoding="utf-8"?>
<!-- Generator: Adobe Illustrator 24.0.0, SVG Export Plug-In . SVG Version: 6.00 Build 0)  -->
<svg version="1.1" id="Laag_1" xmlns="http://www.w3.org/2000/svg" xmlns:xlink="http://www.w3.org/1999/xlink" x="0px" y="0px"
	 width="272.6px" height="58.2px" viewBox="0 0 272.6 58.2" style="enable-background:new 0 0 272.6 58.2;" xml:space="preserve">
<style type="text/css">
	.st0{fill:#EA560D;}
</style>
<g>
	<polygon class="st0" points="53.9,56.6 92.2,56.6 92.2,53.9 61.3,53.9 61.3,25.6 83.3,25.6 83.3,22.9 61.3,22.9 61.3,4.5 92.2,4.5 
		92.2,1.7 53.9,1.7 	"/>
	<polygon class="st0" points="135.6,0 130.6,0 96.4,58.2 101.5,58.2 	"/>
	<path class="st0" d="M7.5,34.2h17.1c0.7,0,1.4,0,2.2-0.1c0.7-0.1,1.4-0.1,2.1-0.2l10.4,22.7h2.8L31.4,33.2c3-0.9,5.5-2.3,7.4-4.2
		c1.9-1.9,3.2-4,4-6.3c0.8-2.4,1-4.8,0.6-7.3C43,13,42,10.7,40.5,8.7c-1.5-2-3.6-3.7-6.3-5c-2.7-1.3-5.9-2-9.7-2H0v54.9h7.5V34.2z
		 M7.5,4.5h16.8c2.7,0,4.9,0.7,6.6,2c1.8,1.3,3.1,3,4,5c0.9,2,1.3,4.2,1.3,6.5c0,2.3-0.4,4.5-1.3,6.5c-0.9,2-2.2,3.7-4,5
		c-1.8,1.3-4,2-6.6,2H7.5V4.5z"/>
</g>
</svg>
