<?xml version="1.0" encoding="utf-8"?>
<!-- Generator: Adobe Illustrator 22.1.0, SVG Export Plug-In . SVG Version: 6.00 Build 0)  -->
<svg version="1.1" id="Laag_1" xmlns="http://www.w3.org/2000/svg" xmlns:xlink="http://www.w3.org/1999/xlink" x="0px" y="0px"
	 viewBox="0 0 61 85" style="enable-background:new 0 0 61 85;" xml:space="preserve">
<style type="text/css">
	.st0{fill:#EAEDE1;}
	.st1{clip-path:url(#SVGID_2_);fill:#EAEDE1;}
	.st2{clip-path:url(#SVGID_4_);fill:#EAEDE1;}
	.st3{clip-path:url(#SVGID_6_);fill:#EAEDE1;}
</style>
<polygon class="st0" points="30.1,55.5 37.6,59.6 37.6,84 45.1,79.9 45.1,55.5 37.6,51.4 "/>
<polygon class="st0" points="22.5,35.2 30.1,31.1 30.1,79.9 22.5,75.8 "/>
<polygon class="st0" points="0,14.9 22.5,27.1 30.1,23 7.5,10.8 "/>
<polygon class="st0" points="15,23 15,63.6 7.5,67.7 7.5,27 "/>
<g>
	<defs>
		<rect id="SVGID_1_" width="59.2" height="84"/>
	</defs>
	<clipPath id="SVGID_2_">
		<use xlink:href="#SVGID_1_"  style="overflow:visible;"/>
	</clipPath>
	<path class="st1" d="M30.1,31.1l7.5-4.1c0,0,12.2,4.3,7.5,20.3l-7.5,4C42.2,35.4,30.1,31.1,30.1,31.1"/>
</g>
<polygon class="st0" points="0.2,0 0.2,1.2 2,1.2 2,6.7 3.3,6.7 3.3,1.2 5.1,1.2 5.1,0 "/>
<polygon class="st0" points="10.6,0 10.6,2.7 8,2.7 8,0 6.7,0 6.7,6.7 8,6.7 8,3.9 10.6,3.9 10.6,6.7 11.9,6.7 11.9,0 "/>
<polygon class="st0" points="14.2,0 14.2,6.7 18.7,6.7 18.7,5.5 15.4,5.5 15.4,3.9 18.3,3.9 18.3,2.7 15.4,2.7 15.4,1.2 18.6,1.2 
	18.6,0 "/>
<path class="st0" d="M23.2,1.7h0.2L24.2,4h-1.7L23.2,1.7z M22.5,0l-2.2,6.7h1.4l0.5-1.5h2.5L25,6.7h1.4L24.2,0H22.5z"/>
<polygon class="st0" points="26.9,0 26.9,1.2 28.7,1.2 28.7,6.7 30,6.7 30,1.2 31.8,1.2 31.8,0 "/>
<polygon class="st0" points="33.4,0 33.4,6.7 37.9,6.7 37.9,5.5 34.6,5.5 34.6,3.9 37.5,3.9 37.5,2.7 34.6,2.7 34.6,1.2 37.8,1.2 
	37.8,0 "/>
<g>
	<defs>
		<rect id="SVGID_3_" width="59.2" height="84"/>
	</defs>
	<clipPath id="SVGID_4_">
		<use xlink:href="#SVGID_3_"  style="overflow:visible;"/>
	</clipPath>
	<path class="st2" d="M41.2,1.2V3h1c0.3,0,0.5-0.1,0.7-0.3c0.2-0.2,0.3-0.4,0.3-0.7c0-0.3-0.1-0.5-0.2-0.6c-0.2-0.2-0.4-0.2-0.7-0.2
		H41.2z M44.9,6.7h-1.4L42,4.2h-0.8v2.4H40V0h2.3c0.6,0,1.1,0.2,1.5,0.6c0.4,0.4,0.6,0.9,0.6,1.5c0,0.4-0.1,0.8-0.3,1.2
		c-0.2,0.3-0.5,0.6-0.9,0.8L44.9,6.7z"/>
	<path class="st2" d="M58,12.1h-1.8v1c0,0.3,0.1,0.5,0.3,0.7c0.2,0.2,0.4,0.3,0.7,0.3c0.3,0,0.5-0.1,0.6-0.2
		c0.2-0.2,0.2-0.4,0.2-0.7V12.1z M52.5,15.7v-1.4l2.4-1.4v-0.8h-2.4v-1.2h6.7v2.3c0,0.6-0.2,1.1-0.6,1.5c-0.4,0.4-0.9,0.6-1.5,0.6
		c-0.4,0-0.8-0.1-1.2-0.3c-0.3-0.2-0.6-0.5-0.8-0.9L52.5,15.7z"/>
	<path class="st2" d="M54.3,19c-0.4,0.4-0.6,0.8-0.6,1.4s0.2,1,0.6,1.4c0.4,0.4,0.9,0.5,1.5,0.5s1.1-0.2,1.5-0.5
		c0.4-0.4,0.6-0.8,0.6-1.4c0-0.6-0.2-1-0.6-1.4c-0.4-0.4-0.9-0.5-1.5-0.5S54.7,18.6,54.3,19 M53.4,22.6c-0.6-0.6-1-1.4-1-2.3
		s0.3-1.7,1-2.3c0.6-0.6,1.4-1,2.4-1c1,0,1.8,0.3,2.4,1c0.6,0.6,1,1.4,1,2.3c0,0.9-0.3,1.7-1,2.3c-0.6,0.6-1.4,1-2.4,1
		C54.9,23.6,54.1,23.3,53.4,22.6"/>
</g>
<polygon class="st0" points="58,24.8 58,26.6 52.5,26.6 52.5,27.8 58,27.8 58,29.6 59.1,29.6 59.1,24.8 "/>
<polygon class="st0" points="58,31 58,32.8 52.5,32.8 52.5,34.1 58,34.1 58,35.9 59.1,35.9 59.1,31 "/>
<polygon class="st0" points="52.5,37.5 52.5,42 53.7,42 53.7,38.8 55.3,38.8 55.3,41.6 56.4,41.6 56.4,38.8 58,38.8 58,41.9 
	59.1,41.9 59.1,37.5 "/>
<g>
	<defs>
		<rect id="SVGID_5_" width="59.2" height="84"/>
	</defs>
	<clipPath id="SVGID_6_">
		<use xlink:href="#SVGID_5_"  style="overflow:visible;"/>
	</clipPath>
	<path class="st3" d="M58,45.4h-1.8v1c0,0.3,0.1,0.5,0.3,0.7c0.2,0.2,0.4,0.3,0.7,0.3c0.3,0,0.5-0.1,0.6-0.2
		c0.2-0.2,0.2-0.4,0.2-0.7V45.4z M52.5,49v-1.4l2.4-1.4v-0.8h-2.4v-1.2h6.7v2.3c0,0.6-0.2,1.1-0.6,1.5c-0.4,0.4-0.9,0.6-1.5,0.6
		c-0.4,0-0.8-0.1-1.2-0.3c-0.3-0.2-0.6-0.5-0.8-0.9L52.5,49z"/>
	<path class="st3" d="M53.7,52.9c0,0.6,0.2,1.1,0.6,1.5c0.4,0.4,0.9,0.6,1.5,0.6c0.6,0,1.1-0.2,1.5-0.6c0.4-0.4,0.5-0.9,0.5-1.5
		v-0.8h-4.1V52.9z M59.1,52.9c0,0.9-0.3,1.7-0.9,2.4c-0.6,0.6-1.4,1-2.4,1c-1,0-1.8-0.3-2.4-1c-0.6-0.6-0.9-1.4-0.9-2.4v-2.1h6.7
		V52.9z"/>
</g>
<path class="st0" d="M55.1,59.6l2.3,0.8v0.2l-2.3,0.8V59.6z M52.5,58.8l1.5,0.5v2.5l-1.5,0.5v1.4l6.7-2.2v-1.7l-6.7-2.2V58.8z"/>
<polygon class="st0" points="52.5,65.1 52.5,66.4 56.5,66.4 56.5,66.4 53,67.7 53,69.2 56.5,70.5 56.5,70.5 52.5,70.5 52.5,71.8 
	59.1,71.8 59.1,70.2 54.4,68.5 54.4,68.4 59.1,66.8 59.1,65.1 "/>
</svg>
