<?xml version="1.0" encoding="utf-8"?>
<!-- Generator: Adobe Illustrator 22.1.0, SVG Export Plug-In . SVG Version: 6.00 Build 0)  -->
<svg version="1.1" id="Laag_1" xmlns="http://www.w3.org/2000/svg" xmlns:xlink="http://www.w3.org/1999/xlink" x="0px" y="0px"
	 viewBox="0 0 91 14" style="enable-background:new 0 0 91 14;" xml:space="preserve">
<style type="text/css">
	.st0{fill:#EAEDE1;}
</style>
<g>
	<path class="st0" d="M8.5,0.3h2.6v13.5H8.5V8.1H3.1v5.7H0.4V0.3h2.6v5.5h5.4V0.3z"/>
	<path class="st0" d="M20,10.8h2.4c-0.2,1-0.7,1.8-1.6,2.4C20,13.7,19,14,17.8,14c-1.5,0-2.7-0.5-3.6-1.4c-0.9-0.9-1.4-2.1-1.4-3.6
		c0-1.5,0.5-2.7,1.4-3.6c0.9-0.9,2-1.4,3.4-1.4c0.7,0,1.3,0.1,1.9,0.3c0.6,0.2,1.1,0.5,1.5,1c0.5,0.4,0.8,1,1,1.8
		c0.2,0.8,0.3,1.6,0.2,2.6h-7c0.2,1.5,1.1,2.3,2.6,2.3c0.5,0,0.9-0.1,1.3-0.3C19.6,11.4,19.8,11.1,20,10.8z M17.8,5.9
		c-0.6,0-1.1,0.2-1.5,0.5c-0.4,0.3-0.7,0.8-0.8,1.4H20c0-0.5-0.2-1-0.6-1.3C19,6.1,18.4,5.9,17.8,5.9z"/>
	<path class="st0" d="M32.2,10.9c0,0.3,0.1,0.5,0.2,0.7c0.1,0.1,0.3,0.2,0.6,0.2v2h-0.4c-1.1,0-1.8-0.4-2.1-1.3
		c-0.8,1-1.9,1.4-3.4,1.4c-1,0-1.9-0.2-2.5-0.7c-0.6-0.5-0.9-1.2-0.9-2.1c0-1.9,1.4-3,4.3-3.2l1.8-0.1V7.7c0-0.6-0.1-1-0.4-1.3
		C29,6,28.7,5.9,28.2,5.9c-0.5,0-0.9,0.2-1.2,0.5c-0.3,0.3-0.4,0.7-0.5,1.1h-2.4c0.1-1,0.5-1.8,1.2-2.5C26,4.3,27,4,28.1,4
		c1.2,0,2.2,0.3,2.9,1c0.7,0.7,1.1,1.7,1.1,3V10.9z M27.4,12c0.6,0,1.2-0.2,1.6-0.6c0.5-0.4,0.7-1,0.7-1.7V9.6l-1.2,0.1
		c-1.6,0.1-2.4,0.6-2.4,1.4c0,0.3,0.1,0.5,0.3,0.7S27.1,12,27.4,12z"/>
	<path class="st0" d="M41.1,0.1h2.4v13.7h-1.9l-0.3-1.1h-0.3c-0.7,0.9-1.6,1.3-2.7,1.3c-1.2,0-2.3-0.5-3.1-1.4
		c-0.9-0.9-1.3-2.1-1.3-3.6c0-1.5,0.4-2.7,1.3-3.7c0.9-0.9,1.9-1.4,3.2-1.4c1.2,0,2.1,0.4,2.6,1.2V0.1z M37.1,11
		c0.4,0.5,1,0.8,1.7,0.8s1.3-0.3,1.7-0.8c0.4-0.5,0.6-1.2,0.6-2s-0.2-1.5-0.6-2c-0.4-0.5-1-0.8-1.7-0.8S37.5,6.5,37.1,7
		c-0.4,0.5-0.7,1.2-0.7,2C36.4,9.8,36.6,10.5,37.1,11z"/>
	<path class="st0" d="M51.2,4h0.7v2.5c-0.3-0.1-0.7-0.1-1-0.1c-0.8,0-1.4,0.3-1.9,0.8c-0.5,0.5-0.8,1.3-0.8,2.4v4.2h-2.6V4.2h2
		L48,5.5h0.2C49,4.5,50,4,51.2,4z"/>
	<path class="st0" d="M61.7,12.6c-1,0.9-2.2,1.4-3.6,1.4c-1.4,0-2.7-0.5-3.6-1.4c-1-0.9-1.5-2.1-1.5-3.6s0.5-2.7,1.5-3.6
		c1-0.9,2.2-1.4,3.6-1.4c1.4,0,2.6,0.5,3.6,1.4c1,0.9,1.5,2.1,1.5,3.6C63.2,10.5,62.7,11.7,61.7,12.6z M58.1,11.8
		c0.7,0,1.4-0.3,1.8-0.8c0.5-0.5,0.7-1.2,0.7-2c0-0.8-0.2-1.5-0.7-2c-0.5-0.5-1.1-0.8-1.9-0.8c-0.8,0-1.4,0.3-1.9,0.8
		c-0.5,0.5-0.7,1.2-0.7,2c0,0.8,0.2,1.5,0.7,2C56.7,11.5,57.4,11.8,58.1,11.8z"/>
	<path class="st0" d="M73.2,12.6c-1,0.9-2.2,1.4-3.6,1.4c-1.4,0-2.7-0.5-3.6-1.4c-1-0.9-1.5-2.1-1.5-3.6s0.5-2.7,1.5-3.6
		c1-0.9,2.2-1.4,3.6-1.4c1.4,0,2.6,0.5,3.6,1.4c1,0.9,1.5,2.1,1.5,3.6C74.6,10.5,74.1,11.7,73.2,12.6z M69.5,11.8
		c0.7,0,1.4-0.3,1.8-0.8c0.5-0.5,0.7-1.2,0.7-2c0-0.8-0.2-1.5-0.7-2c-0.5-0.5-1.1-0.8-1.9-0.8c-0.8,0-1.4,0.3-1.9,0.8
		c-0.5,0.5-0.7,1.2-0.7,2c0,0.8,0.2,1.5,0.7,2C68.2,11.5,68.8,11.8,69.5,11.8z"/>
	<path class="st0" d="M87.3,4c1.1,0,1.9,0.4,2.5,1.1c0.6,0.7,0.9,1.8,0.9,3.2v5.6h-2.6V8.3c0-0.6-0.2-1.1-0.5-1.5
		c-0.3-0.3-0.7-0.5-1.2-0.5c-0.5,0-0.9,0.2-1.2,0.5c-0.3,0.4-0.5,0.9-0.5,1.5v5.5h-2.6V8.3c0-0.7-0.2-1.2-0.5-1.5
		c-0.3-0.4-0.7-0.5-1.2-0.5c-0.5,0-0.8,0.2-1.2,0.5c-0.3,0.4-0.5,0.8-0.5,1.5v5.5h-2.6V4.2h2l0.3,1.2h0.2c0.2-0.4,0.6-0.7,1.1-1
		c0.5-0.3,1-0.4,1.6-0.4c0.6,0,1.2,0.2,1.7,0.5c0.5,0.3,0.8,0.7,1,1.2h0.2C85,4.5,86,4,87.3,4z"/>
</g>
</svg>
