<?xml version="1.0" encoding="utf-8"?>
<!-- Generator: Adobe Illustrator 24.0.0, SVG Export Plug-In . SVG Version: 6.00 Build 0)  -->
<svg version="1.1" id="Laag_1" xmlns="http://www.w3.org/2000/svg" xmlns:xlink="http://www.w3.org/1999/xlink" x="0px" y="0px"
	 width="83.2px" height="10.9px" viewBox="0 0 83.2 10.9" style="enable-background:new 0 0 83.2 10.9;" xml:space="preserve">
<g>
	<path d="M9.5,3.1c0,0.8-0.3,1.5-0.8,1.9S7.5,5.6,6.5,5.6H5.8v2.7H4.2V0.7h2.4c0.9,0,1.6,0.2,2.1,0.6S9.5,2.3,9.5,3.1z M5.8,4.3h0.5
		c0.5,0,0.9-0.1,1.1-0.3s0.4-0.5,0.4-0.9c0-0.4-0.1-0.7-0.3-0.8S7,2,6.6,2H5.8V4.3z"/>
	<path d="M12.4,8.3h-1.6V0.2h1.6V8.3z"/>
	<path d="M17.8,8.3l-0.3-0.8h0c-0.3,0.3-0.5,0.6-0.8,0.7s-0.7,0.2-1.1,0.2c-0.6,0-1-0.2-1.3-0.5c-0.3-0.3-0.5-0.8-0.5-1.4
		c0-0.6,0.2-1.1,0.7-1.4c0.4-0.3,1.1-0.5,2-0.5l1,0V4.5c0-0.6-0.3-0.9-0.9-0.9c-0.5,0-1,0.1-1.6,0.4l-0.5-1.1
		c0.7-0.4,1.4-0.5,2.2-0.5c0.8,0,1.4,0.2,1.8,0.5s0.6,0.9,0.6,1.6v3.9H17.8z M17.3,5.6l-0.6,0c-0.5,0-0.8,0.1-1,0.3
		c-0.2,0.2-0.3,0.4-0.3,0.7c0,0.4,0.3,0.7,0.8,0.7c0.4,0,0.7-0.1,0.9-0.3s0.3-0.5,0.3-0.8V5.6z"/>
	<path d="M25.9,8.3h-1.6V4.9c0-0.4-0.1-0.7-0.2-0.9c-0.1-0.2-0.4-0.3-0.7-0.3c-0.4,0-0.8,0.1-1,0.4c-0.2,0.3-0.3,0.8-0.3,1.5v2.7
		h-1.6V2.5h1.2L22,3.3h0.1c0.2-0.3,0.4-0.5,0.7-0.6s0.7-0.2,1.1-0.2c0.7,0,1.2,0.2,1.5,0.6s0.5,0.9,0.5,1.6V8.3z"/>
	<path d="M29.9,10.9c-0.4,0-0.8,0-1-0.1V9.5c0.2,0.1,0.5,0.1,0.7,0.1c0.3,0,0.5-0.1,0.6-0.2c0.1-0.1,0.2-0.4,0.2-0.7V2.5h1.6V9
		c0,0.6-0.2,1.1-0.5,1.4C31,10.7,30.5,10.9,29.9,10.9z M30.3,1c0-0.5,0.3-0.8,0.9-0.8C31.7,0.2,32,0.5,32,1c0,0.2-0.1,0.4-0.2,0.6
		c-0.1,0.1-0.4,0.2-0.7,0.2C30.6,1.8,30.3,1.5,30.3,1z"/>
	<path d="M36.3,8.5c-0.9,0-1.7-0.3-2.2-0.8s-0.8-1.3-0.8-2.2c0-1,0.2-1.7,0.7-2.3s1.2-0.8,2-0.8c0.8,0,1.5,0.2,1.9,0.7
		c0.5,0.5,0.7,1.1,0.7,1.9v0.8h-3.8c0,0.5,0.2,0.8,0.4,1.1s0.6,0.4,1.1,0.4c0.4,0,0.7,0,1-0.1c0.3-0.1,0.6-0.2,1-0.3V8
		c-0.3,0.1-0.6,0.2-0.9,0.3S36.7,8.5,36.3,8.5z M36,3.5c-0.3,0-0.6,0.1-0.8,0.3c-0.2,0.2-0.3,0.5-0.3,0.9h2.2c0-0.4-0.1-0.7-0.3-0.9
		C36.6,3.6,36.4,3.5,36,3.5z"/>
	<path d="M46,2.4c0.7,0,1.2,0.3,1.6,0.8c0.4,0.5,0.6,1.3,0.6,2.2c0,1-0.2,1.7-0.6,2.2c-0.4,0.5-0.9,0.8-1.6,0.8
		c-0.7,0-1.2-0.2-1.6-0.7h-0.1l-0.3,0.6h-1.2V0.2h1.6v1.9c0,0.2,0,0.6-0.1,1.2h0.1C44.7,2.7,45.2,2.4,46,2.4z M45.4,3.7
		c-0.4,0-0.7,0.1-0.9,0.4s-0.3,0.6-0.3,1.2v0.2c0,0.6,0.1,1.1,0.3,1.3c0.2,0.3,0.5,0.4,0.9,0.4c0.3,0,0.6-0.2,0.8-0.5
		s0.3-0.7,0.3-1.3s-0.1-1-0.3-1.3C46,3.8,45.8,3.7,45.4,3.7z"/>
	<path d="M52.1,8.5c-0.9,0-1.7-0.3-2.2-0.8s-0.8-1.3-0.8-2.2c0-1,0.2-1.7,0.7-2.3s1.2-0.8,2-0.8c0.8,0,1.5,0.2,1.9,0.7
		c0.5,0.5,0.7,1.1,0.7,1.9v0.8h-3.8c0,0.5,0.2,0.8,0.4,1.1s0.6,0.4,1.1,0.4c0.4,0,0.7,0,1-0.1c0.3-0.1,0.6-0.2,1-0.3V8
		c-0.3,0.1-0.6,0.2-0.9,0.3C53,8.4,52.6,8.5,52.1,8.5z M51.9,3.5c-0.3,0-0.6,0.1-0.8,0.3c-0.2,0.2-0.3,0.5-0.3,0.9H53
		c0-0.4-0.1-0.7-0.3-0.9C52.5,3.6,52.2,3.5,51.9,3.5z"/>
	<path d="M59.9,8.3h-4.6V7.4L58,3.7h-2.5V2.5h4.4v1l-2.6,3.6h2.7V8.3z"/>
	<path d="M66.3,5.4c0,1-0.3,1.7-0.8,2.2c-0.5,0.5-1.2,0.8-2.1,0.8c-0.6,0-1.1-0.1-1.5-0.4c-0.4-0.2-0.8-0.6-1-1.1
		c-0.2-0.5-0.3-1-0.3-1.6c0-1,0.2-1.7,0.7-2.2c0.5-0.5,1.2-0.8,2.1-0.8c0.6,0,1.1,0.1,1.5,0.4s0.8,0.6,1,1
		C66.2,4.3,66.3,4.8,66.3,5.4z M62.3,5.4c0,0.6,0.1,1,0.3,1.3s0.5,0.4,0.9,0.4c0.4,0,0.7-0.1,0.9-0.4c0.2-0.3,0.3-0.7,0.3-1.3
		c0-0.6-0.1-1-0.3-1.3c-0.2-0.3-0.5-0.4-0.9-0.4c-0.4,0-0.7,0.1-0.9,0.4C62.4,4.4,62.3,4.8,62.3,5.4z"/>
	<path d="M70.3,8.5c-0.9,0-1.7-0.3-2.2-0.8s-0.8-1.3-0.8-2.2c0-1,0.2-1.7,0.7-2.3s1.2-0.8,2-0.8c0.8,0,1.5,0.2,1.9,0.7
		s0.7,1.1,0.7,1.9v0.8h-3.8c0,0.5,0.2,0.8,0.4,1.1c0.3,0.3,0.6,0.4,1.1,0.4c0.4,0,0.7,0,1-0.1c0.3-0.1,0.6-0.2,1-0.3V8
		c-0.3,0.1-0.6,0.2-0.9,0.3S70.7,8.5,70.3,8.5z M70.1,3.5c-0.3,0-0.6,0.1-0.8,0.3c-0.2,0.2-0.3,0.5-0.3,0.9h2.2
		c0-0.4-0.1-0.7-0.3-0.9C70.7,3.6,70.4,3.5,70.1,3.5z"/>
	<path d="M75.5,5.2l0.7-0.9l1.6-1.8h1.8L77.3,5l2.5,3.3h-1.8L76.2,6l-0.7,0.5v1.8H74V0.2h1.6v3.6L75.5,5.2L75.5,5.2z"/>
</g>
</svg>
