<?xml version="1.0" encoding="utf-8"?>
<!-- Generator: Adobe Illustrator 24.3.0, SVG Export Plug-In . SVG Version: 6.00 Build 0)  -->
<svg version="1.1" id="Laag_1" xmlns="http://www.w3.org/2000/svg" xmlns:xlink="http://www.w3.org/1999/xlink" x="0px" y="0px"
	 width="117.4px" height="16.4px" viewBox="0 0 117.4 16.4" style="enable-background:new 0 0 117.4 16.4;" xml:space="preserve">
<style type="text/css">
	.st0{clip-path:url(#SVGID_1_);}
	.st1{fill:#FAE513;}
	.st2{fill:none;stroke:#FAE513;stroke-width:0.8038;stroke-miterlimit:10;}
</style>
<g>
	<defs>
		<rect id="SVGID_3_" x="15.2" width="102.2" height="16.4"/>
	</defs>
	<clipPath id="SVGID_1_">
		<use xlink:href="#SVGID_3_"  style="overflow:visible;"/>
	</clipPath>
	<g class="st0">
		<path class="st1" d="M2.2,12.8h5.9v1.4H0v-1.1l6-9.1V3.9H0.4V2.5h7.7v1l-5.9,9.1V12.8z"/>
		<path class="st1" d="M17.8,14.2l-1-3H12l-1,3H9.4l4-11.7h2l4,11.7H17.8z M12.5,9.9h3.9l-1.9-5.6h-0.2L12.5,9.9z"/>
		<path class="st1" d="M29.1,14.2h-1.7l-2.8-4.8h0h-2.3v4.8h-1.5V2.5h4c1.2,0,2.1,0.3,2.8,0.9c0.7,0.6,1,1.5,1,2.5
			c0,0.8-0.2,1.5-0.7,2s-1,1-1.8,1.2L29.1,14.2z M22.3,3.9V8h2.3c0.8,0,1.4-0.2,1.8-0.6S27,6.6,27,6c0-0.6-0.2-1.1-0.7-1.5
			s-1-0.5-1.8-0.5H22.3z"/>
		<path class="st1" d="M38.5,14.2l-1-3h-4.8l-1,3h-1.7l4-11.7h2l4,11.7H38.5z M33.2,9.9H37l-1.9-5.6H35L33.2,9.9z"/>
		<path class="st1" d="M48.7,2.5h1.5v11.7h-1.5V9H43v5.2h-1.6V2.5H43v5.1h5.7V2.5z"/>
		<path class="st1" d="M62,8.1c1.5,0.5,2.3,1.5,2.3,2.9c0,1-0.4,1.8-1.1,2.4s-1.6,0.8-2.7,0.8h-4.2V2.5h3.7c1.1,0,2,0.3,2.7,0.8
			c0.7,0.5,1,1.2,1,2.2c0,1.3-0.6,2.1-1.7,2.5V8.1z M57.9,3.8v3.7h2.2c0.7,0,1.3-0.2,1.6-0.5c0.4-0.3,0.6-0.8,0.6-1.4
			c0-0.6-0.2-1-0.6-1.3c-0.4-0.3-0.9-0.5-1.5-0.5H57.9z M60.3,12.9c0.7,0,1.3-0.2,1.8-0.5c0.4-0.3,0.7-0.8,0.7-1.5s-0.2-1.2-0.7-1.5
			c-0.4-0.4-1-0.6-1.8-0.6h-2.5v4.1H60.3z"/>
		<path class="st1" d="M74.5,14.2h-1.7L70,9.4h0h-2.3v4.8h-1.5V2.5h4c1.2,0,2.1,0.3,2.8,0.9c0.7,0.6,1,1.5,1,2.5
			c0,0.8-0.2,1.5-0.7,2s-1,1-1.8,1.2L74.5,14.2z M67.7,3.9V8H70c0.8,0,1.4-0.2,1.8-0.6s0.7-0.9,0.7-1.5c0-0.6-0.2-1.1-0.7-1.5
			s-1-0.5-1.8-0.5H67.7z"/>
		<path class="st1" d="M84,14.2l-1-3h-4.8l-1,3h-1.7l4-11.7h2l4,11.7H84z M78.6,9.9h3.9l-1.9-5.6h-0.2L78.6,9.9z"/>
		<path class="st1" d="M96.6,10.7c-0.2,1.1-0.8,2-1.7,2.7c-0.9,0.7-2,1-3.2,1c-1.7,0-3.1-0.6-4.1-1.7c-1-1.1-1.5-2.6-1.5-4.3
			c0-1.7,0.5-3.2,1.5-4.3c1-1.1,2.3-1.7,3.9-1.7c1.2,0,2.3,0.3,3.2,1s1.5,1.6,1.7,2.8h-1.6c-0.2-0.7-0.6-1.3-1.1-1.7
			c-0.6-0.4-1.3-0.6-2.1-0.6c-1.1,0-2.1,0.4-2.8,1.3c-0.7,0.9-1.1,2-1.1,3.2c0,1.4,0.4,2.5,1.1,3.3c0.7,0.8,1.7,1.3,2.9,1.3
			c0.8,0,1.5-0.2,2.1-0.6c0.6-0.4,1-1,1.2-1.7H96.6z"/>
		<path class="st1" d="M105.6,2.5h1.5v11.7h-1.5V9h-5.7v5.2h-1.6V2.5h1.6v5.1h5.7V2.5z"/>
		<path class="st1" d="M117,2.5v1.4h-3.4v10.3H112V3.9h-3.4V2.5H117z"/>
	</g>
	<g class="st0">
		<path class="st2" d="M39.9,50.2"/>
		<path class="st2" d="M167.5,50.2"/>
	</g>
</g>
</svg>
