<?xml version="1.0" encoding="utf-8"?>
<!-- Generator: Adobe Illustrator 24.0.0, SVG Export Plug-In . SVG Version: 6.00 Build 0)  -->
<svg version="1.1" id="Laag_1" xmlns="http://www.w3.org/2000/svg" xmlns:xlink="http://www.w3.org/1999/xlink" x="0px" y="0px"
	 width="105.1px" height="26.8px" viewBox="0 0 105.1 26.8" style="enable-background:new 0 0 105.1 26.8;" xml:space="preserve">
<style type="text/css">
	.st0{fill:#FFFFFF;}
</style>
<g>
	<path class="st0" d="M7.4,10.8V0.5h4.1v2h-2v2h1.9v1.9H9.5v2.4h2.2v2H7.4z"/>
	<path class="st0" d="M12.8,10.2C12.4,9.7,12.2,9,12.2,8V4.4c0-0.8,0.2-1.4,0.7-1.8S14,2,14.9,2c1.7,0,2.5,0.8,2.5,2.4V5
		c0,0.6,0,1.2,0,1.6h-3v1.7c0,0.3,0,0.5,0.1,0.7c0.1,0.2,0.2,0.3,0.4,0.3c0.2,0,0.3,0,0.3-0.1s0.1-0.2,0.1-0.4c0-0.1,0-0.3,0-0.5
		V7.4h2.1v0.5c0,1-0.2,1.8-0.6,2.3s-1.1,0.7-2,0.7S13.2,10.7,12.8,10.2z M15.3,5.6V4.5c0-0.6-0.2-0.9-0.5-0.9
		c-0.4,0-0.5,0.3-0.5,0.9v1.1H15.3z"/>
	<path class="st0" d="M18.2,2.1h2.1v1.1c0.1-0.4,0.2-0.7,0.5-0.9C20.9,2.1,21.2,2,21.6,2c0.6,0,1,0.2,1.3,0.5
		c0.3,0.4,0.4,0.9,0.4,1.6v6.8h-2.1V4.3c0-0.2,0-0.4-0.1-0.5s-0.2-0.2-0.4-0.2s-0.4,0.1-0.4,0.3c-0.1,0.2-0.1,0.5-0.1,0.8v6.2h-2.1
		V2.1H18.2z"/>
	<path class="st0" d="M27.6,10.6c-0.2-0.2-0.3-0.6-0.3-1.1V4h-0.6V2.4h0.6V0.5h2v1.9h0.6V4h-0.5v4.9c0,0.2,0,0.3,0,0.3
		s0.1,0.1,0.2,0.1s0.2,0,0.2,0c0.1,0,0.1,0,0.1,0v1.4c-0.1,0-0.3,0.1-0.5,0.1s-0.4,0.1-0.7,0.1C28.2,10.9,27.8,10.8,27.6,10.6z"/>
	<path class="st0" d="M30.6,0.5h2.2v2.4c0.2-0.6,0.7-1,1.3-1c0.6,0,1,0.2,1.3,0.6s0.5,0.9,0.5,1.5v6.8h-2.1V4.2c0-0.2,0-0.3-0.1-0.5
		c-0.1-0.1-0.2-0.2-0.4-0.2c-0.1,0-0.3,0.1-0.3,0.2c-0.1,0.1-0.1,0.3-0.1,0.5v6.6h-2.2L30.6,0.5L30.6,0.5z"/>
	<path class="st0" d="M37.2,10.2C36.8,9.7,36.6,9,36.6,8V4.4c0-0.8,0.2-1.4,0.7-1.8S38.4,2,39.2,2c1.7,0,2.5,0.8,2.5,2.5v0.6
		c0,0.6,0,1.2,0,1.6h-3v1.7c0,0.3,0,0.5,0.1,0.7c0.1,0.2,0.2,0.3,0.4,0.3s0.3,0,0.3-0.1s0.1-0.2,0.1-0.3s0-0.3,0-0.5V7.4h2.1v0.5
		c0,1-0.2,1.8-0.6,2.3s-1.1,0.7-2,0.7C38.2,10.9,37.6,10.7,37.2,10.2z M39.7,5.6V4.5c0-0.6-0.2-0.9-0.5-0.9c-0.4,0-0.5,0.3-0.5,0.9
		v1.1H39.7z"/>
	<path class="st0" d="M42.7,10.3c-0.2-0.5-0.3-1.1-0.3-2c0-0.7,0.1-1.2,0.3-1.6s0.4-0.6,0.8-0.8c0.3-0.2,0.8-0.4,1.5-0.6l0.4-0.1
		l0,0V4.3c0-0.2,0-0.4-0.1-0.5S45.1,3.6,45,3.6s-0.2,0.1-0.3,0.2c-0.1,0.1-0.1,0.2-0.1,0.4v0.5h-2V4.4c0-0.9,0.2-1.5,0.6-1.8
		c0.4-0.4,1.1-0.6,2-0.6C46,2,46.5,2.2,47,2.6s0.7,0.9,0.7,1.6v6.7h-2.3v-1c-0.1,0.4-0.3,0.6-0.5,0.8S44.4,11,44.1,11
		C43.5,10.9,43,10.7,42.7,10.3z M45.3,9.1c0.1-0.1,0.1-0.3,0.1-0.5V6.2c-0.3,0.1-0.5,0.3-0.7,0.5c-0.1,0.2-0.2,0.4-0.2,0.8v1.1
		c0,0.5,0.2,0.8,0.5,0.8C45.1,9.3,45.2,9.2,45.3,9.1z"/>
	<path class="st0" d="M49,10.6c-0.2-0.2-0.3-0.6-0.3-1.1V4h-0.6V2.4h0.6V0.5h2v1.9h0.6V4h-0.6v4.9c0,0.2,0,0.3,0,0.3
		s0.1,0.1,0.2,0.1c0.1,0,0.2,0,0.2,0c0.1,0,0.1,0,0.1,0v1.4c-0.1,0-0.3,0.1-0.5,0.1s-0.4,0.1-0.7,0.1C49.6,10.9,49.2,10.8,49,10.6z"
		/>
	<path class="st0" d="M52,2.1h2.1v1c0.1-0.3,0.3-0.6,0.5-0.8s0.6-0.3,1-0.3v1.8c-0.3,0-0.6,0-1,0.1s-0.5,0.2-0.5,0.3v6.7H52V2.1z"/>
	<path class="st0" d="M56.3,10.3c-0.3-0.5-0.4-1.1-0.4-1.9c0-0.7,0.1-1.2,0.3-1.6S56.6,6.2,57,6c0.3-0.2,0.8-0.4,1.5-0.6l0.6-0.2
		l0,0V4.3c0-0.2,0-0.4-0.1-0.5s-0.2-0.2-0.3-0.2s-0.2,0.1-0.3,0.2c-0.1,0.1-0.1,0.2-0.1,0.4v0.5h-2V4.4c0-0.9,0.2-1.5,0.6-1.8
		C57.3,2.2,58,2,58.9,2c0.5,0,1.1,0.1,1.5,0.5s0.7,0.9,0.7,1.6v6.7H59v-1c-0.1,0.4-0.3,0.6-0.5,0.8s-0.5,0.3-0.8,0.3
		C57,10.9,56.6,10.7,56.3,10.3z M58.9,9.1C59,9,59,8.8,59,8.6V6.2c-0.3,0.1-0.5,0.3-0.7,0.5c-0.1,0.2-0.2,0.4-0.2,0.8v1.1
		c0,0.5,0.2,0.8,0.5,0.8C58.7,9.3,58.8,9.2,58.9,9.1z"/>
	<path class="st0" d="M61.9,10.8V0.5H64v10.4L61.9,10.8L61.9,10.8z"/>
	<path class="st0" d="M65.4,10.2C65,9.7,64.8,9,64.8,8V4.4c0-0.8,0.2-1.4,0.7-1.8C66,2.2,66.6,2,67.5,2C69.2,2,70,2.8,70,4.5v0.6
		c0,0.6,0,1.2,0,1.6h-3v1.7c0,0.3,0,0.5,0.1,0.7s0.2,0.3,0.4,0.3s0.3,0,0.3-0.1s0.1-0.2,0.1-0.3s0-0.3,0-0.5V7.4H70v0.5
		c0,1-0.2,1.8-0.6,2.3c-0.4,0.5-1.1,0.7-2,0.7C66.4,10.9,65.8,10.7,65.4,10.2z M67.9,5.6V4.5c0-0.6-0.2-0.9-0.5-0.9
		c-0.4,0-0.5,0.3-0.5,0.9v1.1H67.9z"/>
	<path class="st0" d="M75.8,9.9v0.9h-2.2V0.5h2.2v2C76.1,2.1,76.4,2,76.9,2c0.7,0,1.2,0.2,1.5,0.6s0.4,1,0.4,1.7v4.2
		c0,0.7-0.2,1.3-0.5,1.7s-0.8,0.7-1.4,0.7C76.4,10.9,76,10.6,75.8,9.9z M76.5,9.2c0.1-0.1,0.1-0.2,0.1-0.3s0-0.4,0-0.7V4.5
		c0-0.3,0-0.5-0.1-0.7s-0.2-0.2-0.4-0.2c-0.2,0-0.3,0.1-0.4,0.2c-0.1,0.2-0.1,0.4-0.1,0.7v3.7c0,0.4,0,0.7,0.1,0.9s0.2,0.3,0.4,0.3
		C76.4,9.3,76.5,9.3,76.5,9.2z"/>
	<path class="st0" d="M79.6,2.1h2.1v1c0.1-0.3,0.3-0.6,0.5-0.8s0.6-0.3,1-0.3v1.8c-0.3,0-0.6,0-1,0.1s-0.5,0.2-0.5,0.3v6.7h-2.1V2.1
		z"/>
	<path class="st0" d="M83.8,1.5V0h2.1v1.5H83.8z M83.8,10.8V2.1h2.1v8.8L83.8,10.8L83.8,10.8z"/>
	<path class="st0" d="M87.1,10.2C86.8,9.7,86.5,9,86.5,8V4.4c0-0.8,0.2-1.4,0.7-1.8c0.5-0.4,1.1-0.6,2-0.6c1.7,0,2.5,0.8,2.5,2.5
		v0.6c0,0.6,0,1.2,0,1.6h-3v1.7c0,0.3,0,0.5,0.1,0.7s0.2,0.3,0.4,0.3c0.2,0,0.3,0,0.3-0.1s0.1-0.2,0.1-0.3s0-0.3,0-0.5V7.4h2.1v0.5
		c0,1-0.2,1.8-0.6,2.3s-1.1,0.7-2,0.7S87.5,10.7,87.1,10.2z M89.6,5.6V4.5c0-0.6-0.2-0.9-0.5-0.9c-0.4,0-0.5,0.3-0.5,0.9v1.1H89.6z"
		/>
	<path class="st0" d="M92.3,8.3V7.6h2.1v1c0,0.2,0,0.4,0.1,0.5s0.2,0.2,0.4,0.2c0.3,0,0.4-0.2,0.4-0.7c0-0.3-0.1-0.6-0.2-0.8
		s-0.3-0.4-0.6-0.6l-1.1-0.9C93,6,92.8,5.7,92.6,5.4s-0.3-0.8-0.3-1.3c0-0.4,0.1-0.8,0.4-1.1c0.2-0.3,0.5-0.6,0.9-0.7
		C94,2,94.4,2,94.9,2c1.7,0,2.6,0.8,2.6,2.5v0.2h-2.2V4.3c0-0.2,0-0.4-0.1-0.5s-0.2-0.2-0.3-0.2c-0.1,0-0.3,0-0.3,0.1
		c-0.2,0.1-0.2,0.2-0.2,0.3c0,0.3,0.1,0.6,0.4,0.7l1.3,0.9c0.5,0.3,0.8,0.7,1.1,1.1c0.2,0.4,0.4,0.9,0.4,1.5c0,0.8-0.2,1.4-0.7,1.9
		s-1.1,0.7-1.9,0.7C93.1,10.9,92.3,10.1,92.3,8.3z"/>
	<path class="st0" d="M1.4,26.6L0,17.8h2.1l0.4,4.4l0.1,1.4l0.1-1.3l0.5-4.4h2.1l-1.4,8.8L1.4,26.6L1.4,26.6z"/>
	<path class="st0" d="M5.7,24v-3.5c0-0.8,0.2-1.5,0.7-2s1.1-0.7,1.9-0.7s1.5,0.2,1.9,0.7c0.5,0.5,0.7,1.2,0.7,2V24
		c0,1.8-0.9,2.7-2.6,2.7S5.7,25.8,5.7,24z M8.7,24.9c0.1-0.1,0.1-0.3,0.1-0.5v-4.3c0-0.5-0.2-0.8-0.5-0.8s-0.5,0.3-0.5,0.8v4.3
		c0,0.2,0,0.4,0.1,0.5s0.2,0.2,0.4,0.2S8.7,25.1,8.7,24.9z"/>
	<path class="st0" d="M11.7,24v-3.5c0-0.8,0.2-1.5,0.7-2s1.1-0.7,1.9-0.7s1.5,0.2,1.9,0.7c0.5,0.5,0.7,1.2,0.7,2V24
		c0,1.8-0.9,2.7-2.6,2.7S11.7,25.8,11.7,24z M14.7,24.9c0.1-0.1,0.1-0.3,0.1-0.5v-4.3c0-0.5-0.2-0.8-0.5-0.8s-0.5,0.3-0.5,0.8v4.3
		c0,0.2,0,0.4,0.1,0.5s0.2,0.2,0.4,0.2S14.6,25.1,14.7,24.9z"/>
	<path class="st0" d="M17.7,17.9h2.1v1c0.1-0.3,0.3-0.6,0.5-0.8c0.2-0.2,0.6-0.3,1-0.3v1.8c-0.3,0-0.6,0-1,0.1
		c-0.4,0.1-0.5,0.2-0.5,0.3v6.7h-2.1V17.9z"/>
	<path class="st0" d="M25.2,26.4c-0.3-0.2-0.4-0.6-0.5-1s-0.1-0.9-0.1-1.6v-4c0-0.6,0.2-1.1,0.5-1.5s0.8-0.6,1.3-0.6
		c0.6,0,1,0.2,1.3,0.6v-2h2.1v10.4h-2.1v-1c-0.1,0.3-0.3,0.6-0.5,0.8c-0.2,0.2-0.5,0.3-0.8,0.3C25.9,26.7,25.5,26.6,25.2,26.4z
		 M27.6,24.8c0.1-0.2,0.1-0.5,0.1-0.8v-0.4v-3.3c0-0.3,0-0.5-0.1-0.6c-0.1-0.2-0.2-0.3-0.4-0.3c-0.2,0-0.3,0.1-0.4,0.2
		c-0.1,0.2-0.1,0.4-0.1,0.7V24c0,0.7,0.2,1.1,0.5,1.1C27.4,25.1,27.5,25,27.6,24.8z"/>
	<path class="st0" d="M31.2,26c-0.4-0.5-0.6-1.2-0.6-2.2v-3.6c0-0.8,0.2-1.4,0.7-1.8s1.1-0.6,1.9-0.6c1.7,0,2.5,0.8,2.5,2.5v0.6
		c0,0.6,0,1.2,0,1.6h-3v1.7c0,0.3,0,0.5,0.1,0.7c0.1,0.2,0.2,0.3,0.4,0.3c0.2,0,0.3,0,0.3-0.1s0.1-0.2,0.1-0.3s0-0.3,0-0.5v-1.1h2.1
		v0.5c0,1-0.2,1.8-0.6,2.3s-1.1,0.7-2,0.7C32.2,26.7,31.6,26.5,31.2,26z M33.7,21.4v-1.1c0-0.6-0.2-0.9-0.5-0.9
		c-0.4,0-0.5,0.3-0.5,0.9v1.1H33.7z"/>
	<path class="st0" d="M39.5,26.1c-0.3-0.5-0.4-1.1-0.4-1.9c0-0.7,0.1-1.2,0.3-1.6s0.4-0.6,0.8-0.8c0.3-0.2,0.8-0.4,1.5-0.6l0.6-0.2
		l0,0v-0.9c0-0.2,0-0.4-0.1-0.5c-0.1-0.1-0.2-0.2-0.3-0.2s-0.2,0.1-0.3,0.2c-0.1,0.1-0.1,0.2-0.1,0.4v0.5h-2v-0.3
		c0-0.9,0.2-1.5,0.6-1.8c0.4-0.4,1.1-0.6,2-0.6c0.7,0,1.3,0.2,1.8,0.6s0.7,0.9,0.7,1.6v6.7h-2.1v-1c-0.1,0.4-0.3,0.6-0.5,0.8
		c-0.2,0.2-0.5,0.3-0.8,0.3C40.2,26.7,39.8,26.5,39.5,26.1z M42.1,24.9c0.1-0.1,0.1-0.3,0.1-0.5V22c-0.3,0.1-0.5,0.3-0.7,0.5
		c-0.1,0.2-0.2,0.4-0.2,0.8v1.1c0,0.5,0.2,0.8,0.5,0.8C41.9,25.1,42,25,42.1,24.9z"/>
	<path class="st0" d="M45.1,26.6V16.3h2.1v10.4L45.1,26.6L45.1,26.6z"/>
	<path class="st0" d="M48.1,26.6V16.3h2.1v10.4L48.1,26.6L48.1,26.6z"/>
	<path class="st0" d="M51.6,26c-0.4-0.5-0.6-1.2-0.6-2.2v-3.6c0-0.8,0.2-1.4,0.7-1.8s1.1-0.6,1.9-0.6c1.7,0,2.5,0.8,2.5,2.5v0.6
		c0,0.6,0,1.2,0,1.6h-3v1.7c0,0.3,0,0.5,0.1,0.7c0.1,0.2,0.2,0.3,0.4,0.3s0.3,0,0.3-0.1s0.1-0.2,0.1-0.3s0-0.3,0-0.5v-1.1h2.1v0.5
		c0,1-0.2,1.8-0.6,2.3s-1.1,0.7-2,0.7S52,26.5,51.6,26z M54.1,21.4v-1.1c0-0.6-0.2-0.9-0.5-0.9c-0.4,0-0.5,0.3-0.5,0.9v1.1H54.1z"/>
	<path class="st0" d="M56.9,17.9H59v1c0.1-0.3,0.3-0.6,0.5-0.8c0.2-0.2,0.6-0.3,1-0.3v1.8c-0.3,0-0.6,0-1,0.1
		C59.1,19.8,59,19.9,59,20v6.7h-2.1V17.9z"/>
	<path class="st0" d="M61,26.6V16.3h2.1v4.6l1-3h2.2L65,21.7l1.7,5h-2.2l-1.3-4.1v4.1L61,26.6L61,26.6z"/>
	<path class="st0" d="M66.9,26.6V16.3H69v10.4L66.9,26.6L66.9,26.6z"/>
	<path class="st0" d="M70.4,26c-0.4-0.5-0.6-1.2-0.6-2.2v-3.6c0-0.8,0.2-1.4,0.7-1.8s1.1-0.6,1.9-0.6c1.7,0,2.5,0.8,2.5,2.5v0.6
		c0,0.6,0,1.2,0,1.6h-3v1.7c0,0.3,0,0.5,0.1,0.7c0.1,0.2,0.2,0.3,0.4,0.3s0.3,0,0.3-0.1s0.1-0.2,0.1-0.3s0-0.3,0-0.5v-1.1h2.1v0.5
		c0,1-0.2,1.8-0.6,2.3s-1.1,0.7-2,0.7C71.5,26.7,70.8,26.5,70.4,26z M72.9,21.4v-1.1c0-0.6-0.2-0.9-0.5-0.9c-0.4,0-0.5,0.3-0.5,0.9
		v1.1H72.9z"/>
	<path class="st0" d="M75.8,17.3v-1.5h2.1v1.5H75.8z M75.8,26.6v-8.7h2.1v8.8L75.8,26.6L75.8,26.6z"/>
	<path class="st0" d="M78.7,17.9h2.1V19c0.1-0.4,0.2-0.7,0.5-0.9c0.2-0.2,0.5-0.3,0.9-0.3c0.6,0,1,0.2,1.3,0.5
		c0.3,0.4,0.4,0.9,0.4,1.6v6.8h-2.1v-6.6c0-0.2,0-0.4-0.1-0.5c-0.1-0.1-0.2-0.2-0.4-0.2s-0.4,0.1-0.4,0.3c-0.1,0.2-0.1,0.5-0.1,0.8
		v6.2h-2.1V17.9z"/>
	<path class="st0" d="M84.5,24.1v-0.7h2.1v1c0,0.2,0,0.4,0.1,0.5s0.2,0.2,0.4,0.2c0.3,0,0.4-0.2,0.4-0.7c0-0.3-0.1-0.6-0.2-0.8
		c-0.1-0.2-0.3-0.4-0.6-0.6l-1.1-0.9c-0.4-0.3-0.7-0.6-0.8-0.9c-0.1-0.3-0.3-0.8-0.3-1.3c0-0.4,0.1-0.8,0.4-1.1
		c0.2-0.3,0.5-0.6,0.9-0.7c0.4-0.2,0.8-0.2,1.3-0.2c1.7,0,2.6,0.8,2.6,2.5v0.2h-2.2v-0.5c0-0.2,0-0.4-0.1-0.5
		c-0.1-0.1-0.2-0.2-0.3-0.2s-0.3,0-0.3,0.1c-0.1,0.1-0.1,0.2-0.1,0.3c0,0.3,0.1,0.6,0.4,0.7l1.3,0.9c0.5,0.3,0.8,0.7,1.1,1.1
		c0.2,0.4,0.4,0.9,0.4,1.5c0,0.8-0.2,1.4-0.7,1.9c-0.5,0.4-1.1,0.7-1.9,0.7C85.3,26.7,84.5,25.9,84.5,24.1z"/>
	<path class="st0" d="M91,26.4c-0.2-0.2-0.3-0.6-0.3-1.1v-5.5h-0.6v-1.6h0.6v-1.9h2v1.9h0.6v1.6h-0.6v4.9c0,0.2,0,0.3,0,0.3
		c0,0.1,0.1,0.1,0.2,0.1c0.1,0,0.2,0,0.2,0c0.1,0,0.1,0,0.1,0v1.4c-0.1,0-0.3,0.1-0.5,0.1s-0.5,0.1-0.7,0.1
		C91.6,26.7,91.2,26.6,91,26.4z"/>
	<path class="st0" d="M94.5,26c-0.4-0.5-0.6-1.2-0.6-2.2v-3.6c0-0.8,0.2-1.4,0.7-1.8s1.1-0.6,1.9-0.6c1.7,0,2.5,0.8,2.5,2.5v0.6
		c0,0.6,0,1.2,0,1.6h-3v1.7c0,0.3,0,0.5,0.1,0.7c0.1,0.2,0.2,0.3,0.4,0.3s0.3,0,0.3-0.1s0.1-0.2,0.1-0.3s0-0.3,0-0.5v-1.1H99v0.5
		c0,1-0.2,1.8-0.6,2.3c-0.4,0.5-1.1,0.7-2,0.7C95.6,26.7,94.9,26.5,94.5,26z M97,21.4v-1.1c0-0.6-0.2-0.9-0.5-0.9
		c-0.4,0-0.5,0.3-0.5,0.9v1.1H97z"/>
	<path class="st0" d="M99.9,17.9h2.1V19c0.1-0.4,0.2-0.7,0.5-0.9c0.2-0.2,0.5-0.3,0.9-0.3c0.6,0,1,0.2,1.3,0.5
		c0.3,0.4,0.4,0.9,0.4,1.6v6.8H103v-6.6c0-0.2,0-0.4-0.1-0.5c-0.1-0.1-0.2-0.2-0.4-0.2s-0.4,0.1-0.4,0.3c-0.1,0.2-0.1,0.5-0.1,0.8
		v6.2h-2.1L99.9,17.9L99.9,17.9z"/>
</g>
</svg>
