<?xml version="1.0" encoding="utf-8"?>
<!-- Generator: Adobe Illustrator 24.0.0, SVG Export Plug-In . SVG Version: 6.00 Build 0)  -->
<svg version="1.1" id="Laag_1" xmlns="http://www.w3.org/2000/svg" xmlns:xlink="http://www.w3.org/1999/xlink" x="0px" y="0px"
	 width="175px" height="49px" viewBox="0 0 175 49" style="enable-background:new 0 0 175 49;" xml:space="preserve">
<g>
	<path d="M0.7,17.3V0.5h4.1v8l5-8h4.8L9,8.8l5.7,8.5H9.9L4.8,9.1v8.2H0.7z"/>
	<path d="M28.1,11.8c0,3.3-2.2,5.7-6.1,5.7s-6.1-2.4-6.1-5.7v-1.7c0-3.3,2.2-5.7,6.1-5.7s6.1,2.4,6.1,5.7V11.8z M22,7.6
		c-1.5,0-2.2,1.1-2.2,2.3V12c0,1.3,0.7,2.3,2.2,2.3s2.2-1.1,2.2-2.3V9.9C24.2,8.7,23.6,7.6,22,7.6z"/>
	<path d="M42.6,9.8v7.4h-4V9.8c0-1.2-0.5-1.9-1.8-1.9c-1,0-1.8,0.5-1.8,1.9v7.4h-4V4.7h3.9v1.5c0.5-1.1,1.8-1.8,3.4-1.8
		c1.7,0,2.9,0.6,3.6,1.8c0.9-1.1,2.1-1.8,4-1.8c2.9,0,4.4,1.8,4.4,4.8v8.1h-4V9.8c0-1.2-0.5-1.9-1.8-1.9C43.5,7.9,42.6,8.4,42.6,9.8
		z"/>
	<path d="M59.2,17.3V4.7h3.9v1.5C63.8,5,65,4.4,66.6,4.4c2.9,0,4.4,1.8,4.4,4.8v8.1h-4V9.8c0-1.2-0.6-1.9-1.8-1.9
		c-1,0-1.9,0.5-1.9,1.9v7.4L59.2,17.3L59.2,17.3z"/>
	<path d="M82.2,17.3v-1.1c-0.7,0.8-2.1,1.3-3.7,1.3c-2.9,0-4.6-1.7-4.6-4c0-2.6,1.9-3.9,4.9-3.9c1.5,0,2.7,0.4,3.3,0.9V9.2
		c0-0.9-0.6-1.6-1.8-1.6c-0.8,0-1.5,0.3-1.8,0.9h-3.7c0.5-2.5,2.7-4,5.6-4c3.6,0,5.7,1.9,5.7,5v7.8H82.2z M82,13.5
		c0-0.8-0.9-1.5-2.2-1.5c-1.4,0-2.2,0.5-2.2,1.5s0.9,1.5,2.2,1.5C81,15,82,14.4,82,13.5z"/>
	<path d="M97.2,17.3v-1.1c-0.7,0.8-2.1,1.3-3.7,1.3c-2.9,0-4.6-1.7-4.6-4c0-2.6,1.9-3.9,4.9-3.9c1.5,0,2.7,0.4,3.3,0.9V9.2
		c0-0.9-0.6-1.6-1.8-1.6c-0.8,0-1.5,0.3-1.8,0.9h-3.7c0.5-2.5,2.7-4,5.6-4c3.6,0,5.7,1.9,5.7,5v7.8H97.2z M97,13.5
		c0-0.8-0.9-1.5-2.2-1.5c-1.4,0-2.2,0.5-2.2,1.5s0.9,1.5,2.2,1.5C96,15,97,14.4,97,13.5z"/>
	<path d="M111.7,8.6h-0.5c-1.9,0-2.9,0.8-2.9,3v5.8h-4V4.7h3.8v2.2c0.4-1.9,1.6-2.3,3.4-2.3h0.2V8.6z"/>
</g>
<g>
	<path d="M7.8,43c2.2,0,3.3-1.4,3.3-3.1h3.8c0,3.6-2.7,6.5-7.1,6.5c-5.2,0-7.7-3.3-7.7-7.6v-2.2c0-4.4,2.5-7.6,7.7-7.6
		c4.4,0,7.1,3,7.1,6.5h-3.8c-0.1-1.7-1.1-3.1-3.3-3.1c-2.5,0-3.5,1.7-3.5,4V39C4.3,41.3,5.3,43,7.8,43z"/>
	<path d="M29.6,40.6c0,3.3-2.2,5.7-6.1,5.7s-6.1-2.4-6.1-5.7v-1.7c0-3.3,2.2-5.7,6.1-5.7s6.1,2.4,6.1,5.7V40.6z M23.5,36.4
		c-1.5,0-2.2,1.1-2.2,2.3v2.1c0,1.3,0.7,2.3,2.2,2.3s2.2-1.1,2.2-2.3v-2.1C25.7,37.5,25,36.4,23.5,36.4z"/>
	<path d="M32.4,46.1V33.5h3.9V35c0.6-1.2,1.9-1.8,3.5-1.8c2.9,0,4.4,1.8,4.4,4.8v8.1h-4v-7.5c0-1.2-0.6-1.9-1.8-1.9
		c-1,0-1.9,0.5-1.9,1.9V46L32.4,46.1L32.4,46.1z"/>
	<path d="M52.1,30.1v3.4h2.4v3.1h-2.4V42c0,0.6,0.3,0.8,0.9,0.8h1.3v3.3h-2.7c-2.4,0-3.6-1.4-3.6-3.7v-5.7h-1.6v-3.1H48v-3.4
		L52.1,30.1L52.1,30.1z"/>
	<path d="M59.4,28.2c1.3,0,2.2,0.8,2.2,2.1c0,1.3-0.9,2.1-2.2,2.1s-2.2-0.8-2.2-2.1S58.1,28.2,59.4,28.2z M57.4,46.1V33.5h4v12.6
		H57.4z"/>
	<path d="M64.9,46.1V33.5h3.9V35c0.6-1.2,1.9-1.8,3.5-1.8c2.9,0,4.4,1.8,4.4,4.8v8.1h-4v-7.5c0-1.2-0.6-1.9-1.8-1.9
		c-1,0-1.9,0.5-1.9,1.9V46L64.9,46.1L64.9,46.1z"/>
	<path d="M82.1,28.2c1.3,0,2.2,0.8,2.2,2.1c0,1.3-0.9,2.1-2.2,2.1c-1.3,0-2.2-0.8-2.2-2.1C79.8,29,80.7,28.2,82.1,28.2z M80,46.1
		V33.5h4v12.6H80z"/>
	<path d="M99.1,33.5v12.6h-3.9v-1.5c-0.6,1.2-1.9,1.8-3.5,1.8c-2.8,0-4.3-1.8-4.3-4.8v-8.1h4v7.6c0,1.2,0.6,1.9,1.7,1.9
		c1,0,1.9-0.5,1.9-1.9v-7.6H99.1z"/>
	<path d="M114.1,38.6V46h-4v-7.5c0-1.2-0.5-1.9-1.8-1.9c-1,0-1.8,0.5-1.8,1.9v7.4h-4V33.5h3.9V35c0.5-1.1,1.8-1.8,3.4-1.8
		c1.7,0,2.9,0.6,3.6,1.8c0.9-1.1,2.1-1.8,4-1.8c2.9,0,4.4,1.8,4.4,4.8v8.1h-4v-7.5c0-1.2-0.5-1.9-1.8-1.9
		C115,36.7,114.1,37.2,114.1,38.6z"/>
	<path d="M127.3,41.8c1.3,0,2.3,1,2.3,2.2s-0.9,2.2-2.3,2.2c-1.3,0-2.3-1-2.3-2.2S126,41.8,127.3,41.8z M128.5,40.7h-2.3l-1-4.9
		v-6.5h4.2v6.5L128.5,40.7z"/>
</g>
</svg>
