<?xml version="1.0" encoding="utf-8"?>
<!-- Generator: Adobe Illustrator 24.3.0, SVG Export Plug-In . SVG Version: 6.00 Build 0)  -->
<svg version="1.1" id="Laag_1" xmlns="http://www.w3.org/2000/svg" xmlns:xlink="http://www.w3.org/1999/xlink" x="0px" y="0px"
	 width="82.6px" height="31.5px" viewBox="0 0 82.6 31.5" style="enable-background:new 0 0 82.6 31.5;" xml:space="preserve">
<style type="text/css">
	.st0{fill:#FFFFFF;}
</style>
<g>
	<path class="st0" d="M0,0.3c0-0.1,0-0.2,0.2-0.2h7.1c0.1,0,0.2,0,0.2,0.2v0.9c0,0.1,0,0.2-0.2,0.2H4.3v9.4c0,0.1,0,0.2-0.2,0.2h-1
		c-0.1,0-0.2,0-0.2-0.2V1.4H0.2C0,1.4,0,1.3,0,1.2V0.3z"/>
	<path class="st0" d="M13.9,0.3c0.1-0.1,0.1-0.2,0.2-0.2h1.1c0.1,0,0.1,0,0.1,0.1c0,0,0,0,0,0.1L9.9,10.8C9.9,10.9,9.8,11,9.7,11
		H8.7c-0.1,0-0.1,0-0.1-0.1c0,0,0,0,0-0.1L13.9,0.3z"/>
	<path class="st0" d="M25.1,10.8c0,0.1,0,0.2-0.2,0.2h-1c-0.1,0-0.2,0-0.2-0.2V2.1l-1.5,4.1c0,0.1-0.1,0.1-0.2,0.1h-0.8
		c-0.1,0-0.2,0-0.2-0.1l-1.5-4.1v8.7c0,0.1,0,0.2-0.2,0.2h-1c-0.1,0-0.2,0-0.2-0.2V0.3c0-0.1,0-0.2,0.2-0.2h1.4c0.1,0,0.2,0,0.2,0.1
		l1.6,4.4l1.6-4.4c0-0.1,0.1-0.1,0.2-0.1h1.4c0.1,0,0.2,0,0.2,0.2V10.8z"/>
	<path class="st0" d="M37.4,9.9c0-0.1,0-0.2,0.2-0.2h2.2V1.9l-2,1.1c-0.1,0-0.1,0-0.2,0c-0.1,0-0.1-0.1-0.1-0.1V1.8
		c0-0.1,0.1-0.2,0.2-0.2l2.4-1.3c0.1,0,0.1-0.1,0.2-0.1h0.6c0.1,0,0.2,0,0.2,0.2v9.5h2.2c0.1,0,0.2,0,0.2,0.2v0.9
		c0,0.1,0,0.2-0.2,0.2h-5.7c-0.1,0-0.2,0-0.2-0.2V9.9z"/>
	<path class="st0" d="M49.2,11.2c-1.7,0-2.8-1-3-2.7c0-0.1,0.1-0.2,0.2-0.2h0.9c0.1,0,0.2,0.1,0.2,0.2c0.2,1,0.9,1.5,1.8,1.5
		c1.3,0,2.1-1.2,2.2-3.9c-0.6,0.7-1.5,1-2.3,1c-1.9,0-3.2-1.3-3.2-3.6c0-2.2,1.4-3.6,3.3-3.6c2,0,3.6,1.4,3.6,5.1
		C52.8,9.2,51.3,11.2,49.2,11.2z M49.2,1.2c-1.3,0-2,1-2,2.4c0,1.4,0.7,2.4,2,2.4s2.1-1,2.1-2.4C51.3,2.2,50.5,1.2,49.2,1.2z"/>
</g>
<g>
	<path class="st0" d="M3.5,20.3c2.2,0,3.4,1.4,3.4,3c0,0.1,0,0.2-0.2,0.2h-1c-0.1,0-0.2,0-0.2-0.2c0-1-0.9-1.8-2.1-1.8
		c-1.2,0-2,0.6-2,1.6c0,1.2,1.1,1.6,2.6,2c1.9,0.6,3.1,1.2,3.1,2.9c0,2.2-1.6,3.4-3.6,3.4c-2.1,0-3.6-1.3-3.6-3.4
		C0,28,0.1,28,0.2,28h1c0.1,0,0.2,0,0.2,0.2c0,1.2,0.9,2.1,2.3,2.1c1.4,0,2.3-0.7,2.3-2.1c0-1-1-1.5-2.4-1.9c-1.9-0.5-3.3-1.3-3.3-3
		C0.2,21.4,1.8,20.3,3.5,20.3z"/>
	<path class="st0" d="M11.6,30.1h4.9c0.1,0,0.2,0,0.2,0.2v0.9c0,0.1,0,0.2-0.2,0.2h-6c-0.1,0-0.2,0-0.2-0.2V20.6
		c0-0.1,0-0.2,0.2-0.2h5.9c0.1,0,0.2,0,0.2,0.2v0.9c0,0.1,0,0.2-0.2,0.2h-4.8V25h4.3c0.1,0,0.2,0,0.2,0.2v0.9c0,0.1,0,0.2-0.2,0.2
		h-4.3V30.1z"/>
	<path class="st0" d="M19.8,20.6c0-0.1,0-0.2,0.2-0.2h3c2.2,0,3.4,1.2,3.4,3s-1.3,3-3.4,3h-1.9v4.6c0,0.1,0,0.2-0.2,0.2h-1
		c-0.1,0-0.2,0-0.2-0.2V20.6z M21.1,25.3h2.1c1.2,0,1.8-0.6,1.8-1.8s-0.7-1.8-1.8-1.8h-2.1V25.3z"/>
	<path class="st0" d="M28.7,20.6c0-0.1,0-0.2,0.2-0.2H36c0.1,0,0.2,0,0.2,0.2v0.9c0,0.1,0,0.2-0.2,0.2h-2.9v9.4c0,0.1,0,0.2-0.2,0.2
		h-1c-0.1,0-0.2,0-0.2-0.2v-9.4h-2.9c-0.1,0-0.2,0-0.2-0.2V20.6z"/>
	<path class="st0" d="M47.6,30.5c0-0.2,0.1-0.3,0.2-0.4l3.9-4.1c0.9-0.9,1.1-1.6,1.1-2.5c0-1.2-0.7-2-1.9-2c-1.2,0-1.9,0.9-2,1.9
		c0,0.2-0.1,0.2-0.2,0.2h-0.9c-0.1,0-0.2-0.1-0.2-0.2c0-1.8,1.3-3.1,3.2-3.1c2.1,0,3.2,1.4,3.2,3.2c0,1.4-0.5,2.3-1.4,3.3l-3.1,3.3
		h4.6c0.1,0,0.2,0,0.2,0.2v0.9c0,0.1,0,0.2-0.2,0.2h-6.3c-0.1,0-0.2,0-0.2-0.2V30.5z"/>
	<path class="st0" d="M60.4,20.3c2.2,0,3.6,2,3.6,5.6s-1.4,5.6-3.6,5.6c-2.2,0-3.6-2-3.6-5.6S58.2,20.3,60.4,20.3z M58.9,29.5
		l2.2-7.9c-0.2-0.1-0.4-0.1-0.6-0.1c-1.5,0-2.3,1.2-2.3,4.4C58.1,27.7,58.4,28.8,58.9,29.5z M62,22.3l-2.2,7.9
		c0.2,0.1,0.4,0.1,0.6,0.1c1.5,0,2.3-1.2,2.3-4.4C62.7,24.1,62.5,23,62,22.3z"/>
	<path class="st0" d="M66.8,30.5c0-0.2,0.1-0.3,0.2-0.4l3.9-4.1c0.9-0.9,1.1-1.6,1.1-2.5c0-1.2-0.7-2-1.9-2s-1.9,0.9-2,1.9
		c0,0.2-0.1,0.2-0.2,0.2h-0.9c-0.1,0-0.2-0.1-0.2-0.2c0-1.8,1.3-3.1,3.2-3.1c2.1,0,3.2,1.4,3.2,3.2c0,1.4-0.5,2.3-1.4,3.3l-3.1,3.3
		h4.6c0.1,0,0.2,0,0.2,0.2v0.9c0,0.1,0,0.2-0.2,0.2h-6.3c-0.1,0-0.2,0-0.2-0.2V30.5z"/>
	<path class="st0" d="M76.6,30.3c0-0.1,0-0.2,0.2-0.2H79v-7.9l-2,1.1c-0.1,0-0.1,0-0.2,0c-0.1,0-0.1-0.1-0.1-0.1v-1.1
		c0-0.1,0.1-0.2,0.2-0.2l2.4-1.3c0.1,0,0.1-0.1,0.2-0.1h0.6c0.1,0,0.2,0,0.2,0.2v9.5h2.2c0.1,0,0.2,0,0.2,0.2v0.9
		c0,0.1,0,0.2-0.2,0.2h-5.7c-0.1,0-0.2,0-0.2-0.2V30.3z"/>
</g>
</svg>
