<?xml version="1.0" encoding="utf-8"?>
<!-- Generator: Adobe Illustrator 24.0.0, SVG Export Plug-In . SVG Version: 6.00 Build 0)  -->
<svg version="1.1" id="Laag_1" xmlns="http://www.w3.org/2000/svg" xmlns:xlink="http://www.w3.org/1999/xlink" x="0px" y="0px"
	 width="161.6px" height="13.9px" viewBox="0 0 161.6 13.9" style="enable-background:new 0 0 161.6 13.9;" xml:space="preserve">
<style type="text/css">
	.st0{fill:#FFF;}
</style>
<g>
	<path class="st0" d="M0.1,5.7c0-3,2.3-5.1,5.8-5.1s5.8,1.8,5.8,4.4h-2C9.7,3.3,8.2,2.3,6,2.3c-2.3,0-3.9,1.3-3.9,3.4
		c0,2.1,1.5,3.4,3.9,3.4c2.2,0,3.8-1,3.8-2.8h2c0,2.7-2.3,4.4-5.8,4.4S0.1,8.7,0.1,5.7z"/>
	<path class="st0" d="M12.8,8.9c0-2,3.9-2.3,6.2-2.5C19,5.3,18.4,5,17,5c-1.1,0-2.4,0.4-3.3,0.8V4.1c1.2-0.4,2.6-0.7,3.9-0.7
		c2.5,0,3.4,1.3,3.4,3.2v3.9h-1.9l0.4-2.3h-0.1c-0.4,1.8-1.8,2.6-3.9,2.6C14.4,10.8,12.8,10.5,12.8,8.9z M19,7.4
		c-1.6,0.1-4.1,0.2-4.1,1.2c0,0.5,0.5,0.7,1.3,0.7C17.6,9.4,19,8.7,19,7.4z"/>
	<path class="st0" d="M31.8,7.1c0,2.2-1.6,3.6-3.6,3.6c-1.7,0-3.3-0.8-3.6-2.5h-0.1v5h-2V3.6h2l-0.3,2.3h0.2
		c0.3-1.5,1.7-2.5,3.4-2.5C30.2,3.4,31.8,4.9,31.8,7.1z M25,7.1c0,1.3,1.2,2.1,2.5,2.1c1.4,0,2.5-0.8,2.5-2.1c0-1.4-1-2.2-2.5-2.2
		C26.1,4.9,25,5.7,25,7.1z"/>
	<path class="st0" d="M33,7.1c0-2.2,1.7-3.7,4.2-3.7c2.5,0,4.1,1.3,4.2,3.1v1.1H35c0.2,1.1,1.1,1.6,2.9,1.6c1.7,0,2.4-0.4,3.2-0.8
		v1.6c-1.3,0.5-2.1,0.7-3.9,0.7C34.7,10.8,33,9.3,33,7.1z M39.5,6.6c0-1-1-1.7-2.3-1.7c-1.2,0-2.1,0.7-2.2,1.8L39.5,6.6z"/>
	<path class="st0" d="M43,0.9h2v9.7h-2V0.9z"/>
	<path class="st0" d="M47,0.9h2v9.7h-2V0.9z"/>
	<path class="st0" d="M50.3,8.9c0-2,3.9-2.3,6.2-2.5c0-1.1-0.6-1.5-2-1.5c-1.1,0-2.4,0.4-3.3,0.8V4.1c1.2-0.4,2.6-0.7,3.9-0.7
		c2.5,0,3.4,1.3,3.4,3.2v3.9h-1.9l0.4-2.3h-0.1c-0.4,1.8-1.8,2.6-3.9,2.6C51.9,10.8,50.3,10.5,50.3,8.9z M56.5,7.4
		c-1.6,0.1-4.1,0.2-4.1,1.2c0,0.5,0.5,0.7,1.3,0.7C55.1,9.4,56.5,8.7,56.5,7.4z"/>
	<path class="st0" d="M69.6,0.9H72l5.9,9.7h-2.3l-1.2-2h-7.3l-1.2,2h-2.3L69.6,0.9z M73.5,6.8l-2.7-4.6l-2.7,4.6H73.5z"/>
	<path class="st0" d="M78.9,3.6H81l-0.3,2.9h0.1c0.3-1.8,1.3-3.1,3.4-3.1c1.7,0,2.6,0.9,2.8,3.1h0.1c0.3-1.8,1.3-3.1,3.4-3.1
		c2,0,2.9,1.1,2.9,4.1v3h-2V7.8c0-2.1-0.6-2.9-1.9-2.9c-1.5,0-2.4,1.5-2.4,3.8v1.9h-2V7.8c0-2.1-0.6-2.9-1.9-2.9
		c-1.5,0-2.4,1.5-2.4,3.8v1.9h-2V3.6z"/>
	<path class="st0" d="M94.8,10.2V8.6c1.2,0.4,2.2,0.7,3.4,0.7c1.7,0,2.4-0.2,2.4-0.8c0-1.3-6.2,0.2-6.2-2.8c0-1.6,1.6-2.3,4.1-2.3
		c0.8,0,2.3,0.2,3.5,0.4v1.6c-1-0.2-2.2-0.4-3.3-0.4c-1.6,0-2.3,0.2-2.3,0.7c0,1.3,6.1-0.2,6.1,2.8c0,1.6-1.6,2.3-4.1,2.3
		C97.4,10.8,95.9,10.6,94.8,10.2z"/>
	<path class="st0" d="M104.2,8V5h-1V3.6h1.1V2l1.9-0.3v1.9h2V5h-2v2.6c0,1.4,0,1.8,1.3,1.8c0.2,0,0.4,0,0.7,0v1
		c-0.6,0.2-1.1,0.3-1.9,0.3C104.5,10.7,104.2,10,104.2,8z"/>
	<path class="st0" d="M109,7.1c0-2.2,1.7-3.7,4.2-3.7c2.5,0,4.1,1.3,4.2,3.1v1.1h-6.4c0.2,1.1,1.1,1.6,2.9,1.6
		c1.7,0,2.4-0.4,3.2-0.8v1.6c-1.3,0.5-2.1,0.7-3.9,0.7C110.6,10.8,109,9.3,109,7.1z M115.4,6.6c0-1-1-1.7-2.3-1.7
		c-1.2,0-2.1,0.7-2.2,1.8L115.4,6.6z"/>
	<path class="st0" d="M118.6,3.6h2.2l-0.3,2.6h0.1c0.4-2,1.4-2.8,4-2.8V5c-2.9,0-4.1,0.9-4.1,3.2v2.3h-2V3.6z"/>
	<path class="st0" d="M124.9,7c0-2.2,1.6-3.6,3.6-3.6c1.7,0,3.3,0.8,3.6,2.5h0.1v-5h2v9.7h-2l0.3-2.3h-0.2c-0.3,1.5-1.7,2.5-3.4,2.5
		C126.5,10.8,124.9,9.3,124.9,7z M131.8,7.1c0-1.3-1.2-2.1-2.5-2.1c-1.4,0-2.4,0.8-2.4,2.1c0,1.4,1,2.2,2.4,2.2
		C130.6,9.2,131.8,8.4,131.8,7.1z"/>
	<path class="st0" d="M135.5,8.9c0-2,3.9-2.3,6.2-2.5c0-1.1-0.6-1.5-2-1.5c-1.1,0-2.4,0.4-3.3,0.8V4.1c1.2-0.4,2.6-0.7,3.9-0.7
		c2.5,0,3.4,1.3,3.4,3.2v3.9h-1.9l0.4-2.3H142c-0.4,1.8-1.8,2.6-3.9,2.6C137.1,10.8,135.5,10.5,135.5,8.9z M141.7,7.4
		c-1.6,0.1-4.1,0.2-4.1,1.2c0,0.5,0.5,0.7,1.3,0.7C140.2,9.4,141.6,8.7,141.7,7.4z"/>
	<path class="st0" d="M145.2,3.6h2.2L147,6.5h0.1c0.3-1.8,1.3-3.1,3.4-3.1c1.7,0,2.6,0.9,2.8,3.1h0.1c0.3-1.8,1.3-3.1,3.4-3.1
		c2,0,2.9,1.1,2.9,4.1v3h-2V7.8c0-2.1-0.6-2.9-1.9-2.9c-1.5,0-2.4,1.5-2.4,3.8v1.9h-2V7.8c0-2.1-0.6-2.9-1.9-2.9
		c-1.5,0-2.4,1.5-2.4,3.8v1.9h-2V3.6z"/>
</g>
</svg>
