<?xml version="1.0" encoding="utf-8"?>
<!-- Generator: Adobe Illustrator 24.3.0, SVG Export Plug-In . SVG Version: 6.00 Build 0)  -->
<svg version="1.1" id="Laag_1" xmlns="http://www.w3.org/2000/svg" xmlns:xlink="http://www.w3.org/1999/xlink" x="0px" y="0px"
	 width="271.1px" height="103.1px" viewBox="0 0 271.1 103.1" style="enable-background:new 0 0 271.1 103.1;" xml:space="preserve"
	>
<style type="text/css">
	.st0{fill:#1D1D1B;}
</style>
<g>
	<g>
		<path class="st0" d="M40.4,44.1H32V19.7h-0.2l-5.7,24.4h-8.6l-5.8-24.4h-0.2v24.4H3.1V1.4h12.1L21.6,28h0.2l6.5-26.6h12.1V44.1z"
			/>
		<path class="st0" d="M73.9,32.5c0,1.8-0.3,3.5-1,5c-0.7,1.6-1.6,3-2.8,4.1c-1.2,1.2-2.6,2.1-4.1,2.8c-1.6,0.7-3.3,1-5,1
			c-1.8,0-3.5-0.3-5-1c-1.6-0.7-3-1.6-4.1-2.8c-1.2-1.2-2.1-2.6-2.8-4.1c-0.7-1.6-1-3.3-1-5V1.4h8.4v31.2c0,1.3,0.4,2.3,1.3,3.2
			c0.9,0.9,2,1.3,3.2,1.3c1.3,0,2.4-0.4,3.3-1.3c0.9-0.9,1.3-2,1.3-3.3V1.4H74v31.1H73.9z"/>
		<path class="st0" d="M105.9,44.1H81.5v-8.4L95.2,9.9h-13V1.5h22.6v8.4L91,35.7h14.9V44.1z"/>
		<path class="st0" d="M121.8,44.1h-8.4V1.5h8.4V44.1z"/>
		<path class="st0" d="M150.4,44.1h-21.1V1.5h21.1v8.4h-12.2v8.8h12.2V27h-12.2v8.7h12.2V44.1z"/>
		<path class="st0" d="M186.2,44.1h-9.6l-10.1-19.5h-0.2v19.5h-8.4V1.4h8.4v17.4h0.2l8.7-17.4h9.3l-10.3,20.3L186.2,44.1z"/>
		<path class="st0" d="M211.7,44.1h-21.1V1.5h8.9v34.3h12.2L211.7,44.1L211.7,44.1z"/>
		<path class="st0" d="M236.5,44.1h-21.1V1.5h21.1v8.4h-12.2v8.8h12.2V27h-12.2v8.7h12.2V44.1z"/>
		<path class="st0" d="M271.1,31.5c0,2.1-0.4,3.9-1.1,5.6c-0.7,1.7-1.7,3.2-3,4.4s-2.7,2.2-4.4,2.9c-1.7,0.7-3.6,1-5.6,1
			c-1.8,0-3.5-0.3-5-1c-1.6-0.7-3-1.6-4.1-2.8c-1.2-1.2-2.1-2.6-2.8-4.1c-0.7-1.6-1-3.3-1-5v-3.9h8.4v4c0,1.3,0.5,2.4,1.4,3.2
			c0.9,0.9,2,1.3,3.2,1.3c1.8,0,3.1-0.5,4-1.4s1.3-2.3,1.3-4c0-0.9-0.1-1.6-0.4-2.2s-0.7-1.1-1.2-1.4c-0.5-0.4-1.1-0.7-1.7-0.9
			c-0.7-0.2-1.4-0.4-2.1-0.6c-1.9-0.4-3.6-0.9-5.2-1.6c-1.6-0.7-2.9-1.6-4-2.6c-1.1-1.1-2-2.4-2.7-3.9c-0.6-1.5-0.9-3.3-0.9-5.4
			c0-1.8,0.3-3.5,1-5c0.7-1.6,1.6-3,2.8-4.2s2.6-2.1,4.1-2.8c1.6-0.7,3.3-1,5-1c1.8,0,3.5,0.3,5,1c1.6,0.7,2.9,1.6,4.1,2.8
			s2.1,2.6,2.8,4.1c0.7,1.6,1,3.3,1,5v2.5h-8.4V13c0-1.3-0.4-2.3-1.3-3.2s-2-1.4-3.2-1.4c-1.3,0-2.3,0.4-3.2,1.2s-1.4,1.9-1.4,3.3
			c0,1,0.1,1.7,0.3,2.3s0.5,1.1,0.9,1.5s0.9,0.7,1.6,0.9c0.6,0.2,1.4,0.4,2.3,0.6c1.7,0.3,3.4,0.9,5.1,1.5c1.6,0.7,3.1,1.6,4.3,2.7
			s2.3,2.4,3,3.9C270.8,27.8,271.1,29.5,271.1,31.5z"/>
	</g>
	<g>
		<path class="st0" d="M27.5,58.4L18,101.1H9.5L0,58.4h8.6l5,26.6h0.2l5-26.6H27.5z"/>
		<path class="st0" d="M57.8,89.5c0,1.8-0.3,3.5-1,5c-0.7,1.6-1.6,3-2.8,4.1c-1.2,1.2-2.6,2.1-4.1,2.8c-1.6,0.7-3.3,1-5,1
			c-1.8,0-3.5-0.3-5-1c-1.6-0.7-3-1.6-4.1-2.8c-1.2-1.2-2.1-2.6-2.8-4.1c-0.7-1.6-1-3.3-1-5V70c0-1.8,0.3-3.5,1-5s1.6-3,2.8-4.1
			c1.2-1.2,2.6-2.1,4.1-2.8c1.6-0.7,3.3-1,5-1c1.8,0,3.5,0.3,5,1c1.6,0.7,2.9,1.6,4.1,2.8c1.2,1.2,2.1,2.6,2.8,4.1s1,3.3,1,5V89.5z
			 M49.4,70c0-1.3-0.4-2.3-1.3-3.2c-0.9-0.9-2-1.4-3.2-1.4c-1.3,0-2.4,0.4-3.3,1.3c-0.9,0.9-1.3,2-1.3,3.3v19.5
			c0,1.3,0.4,2.4,1.3,3.3c0.9,0.9,2,1.3,3.2,1.3c1.3,0,2.3-0.4,3.2-1.3s1.4-2,1.4-3.2C49.4,89.6,49.4,70,49.4,70z"/>
		<path class="st0" d="M86.5,101.1H65.4V58.5h8.9v34.3h12.2V101.1z"/>
		<path class="st0" d="M116.2,89.5c0,1.8-0.3,3.5-1,5c-0.7,1.6-1.6,2.9-2.8,4.1c-1.2,1.2-2.6,2.1-4.1,2.8c-1.6,0.7-3.3,1-5,1
			c-1.8,0-3.5-0.3-5-1c-1.6-0.7-3-1.6-4.1-2.8c-1.2-1.2-2.1-2.6-2.8-4.1c-0.7-1.6-1-3.3-1-5V70c0-1.8,0.3-3.5,1-5s1.6-3,2.8-4.1
			c1.2-1.2,2.6-2.1,4.2-2.8s3.3-1,5.1-1c1.8,0,3.5,0.3,5,1c1.6,0.7,2.9,1.6,4.1,2.8s2.1,2.6,2.8,4.1s1,3.3,1,5v1.7H108V70
			c0-1.3-0.4-2.3-1.3-3.2c-0.9-0.9-2-1.4-3.3-1.4s-2.4,0.4-3.3,1.3s-1.3,2-1.3,3.3v19.5c0,1.3,0.4,2.4,1.3,3.3s2,1.3,3.3,1.3
			s2.4-0.4,3.3-1.3s1.4-2,1.4-3.2v-3.9h-4.7v-8.4h13.1v12.2H116.2z"/>
		<path class="st0" d="M143.6,101.1h-21.1V58.5h21.1v8.4h-12.2v8.8h12.2V84h-12.2v8.7h12.2V101.1z"/>
		<path class="st0" d="M179.2,101.1h-9.1l-10.4-26.6h-0.2v26.6h-8.4V58.4H162l8.6,21.8h0.2V58.4h8.4V101.1z"/>
		<path class="st0" d="M212.7,70.1c0,2.7-0.5,4.9-1.6,6.6s-2.7,3.3-4.9,4.7c-1,0.6-1.6,1.3-2,2.1c-0.4,0.8-0.6,1.7-0.6,2.8V90h-8.4
			v-3.8c0-5.2,2.2-9.2,6.6-11.9c0.9-0.6,1.6-1.2,2-1.8c0.4-0.6,0.6-1.5,0.6-2.6c0-1.3-0.4-2.4-1.3-3.3c-0.9-0.9-2-1.3-3.3-1.3
			s-2.4,0.4-3.3,1.3c-0.9,0.9-1.3,2-1.3,3.2v2.6h-8.4V70c0-1.8,0.3-3.5,1-5.1s1.6-3,2.8-4.1c1.2-1.2,2.6-2.1,4.1-2.8
			c1.6-0.7,3.3-1,5-1s3.5,0.3,5,1c1.6,0.7,3,1.6,4.1,2.8s2.1,2.6,2.8,4.1C212.4,66.6,212.7,68.3,212.7,70.1z M204.9,97.6
			c0,1.5-0.5,2.8-1.6,3.9s-2.4,1.6-3.9,1.6s-2.8-0.5-3.8-1.6s-1.6-2.4-1.6-3.9s0.5-2.8,1.6-3.9c1-1.1,2.3-1.6,3.8-1.6
			s2.8,0.5,3.9,1.6C204.3,94.8,204.9,96.1,204.9,97.6z"/>
	</g>
</g>
</svg>
