<?xml version="1.0" encoding="utf-8"?>
<!-- Generator: Adobe Illustrator 22.0.0, SVG Export Plug-In . SVG Version: 6.00 Build 0)  -->
<svg version="1.1" id="Laag_1" xmlns="http://www.w3.org/2000/svg" xmlns:xlink="http://www.w3.org/1999/xlink" x="0px" y="0px"
	 viewBox="0 0 156.3 18.7" style="enable-background:new 0 0 156.3 18.7;" xml:space="preserve">
<style type="text/css">
	.st0{fill:#FFFFFF;}
</style>
<g>
	<path class="st0" d="M0,2.9h5.6c3.1,0,5,1.8,5,4.5c0,2.7-2,4.6-5,4.6H2.7v4.3H0V2.9z M5.4,9.8c1.7,0,2.5-1.1,2.5-2.4
		c0-1.3-0.8-2.3-2.5-2.3H2.7v4.7H5.4z"/>
	<path class="st0" d="M12.5,2.9h2.7v11.2h6.2v2.2h-8.9V2.9z"/>
	<path class="st0" d="M35.3,16.3h-2.7l-0.9-2.8h-5.2l-0.9,2.8h-2.7l4.8-13.5h2.7L35.3,16.3z M27.2,11.4h3.9l-1.9-6.1L27.2,11.4z"/>
	<path class="st0" d="M37.2,2.9h2.6l5.9,9v-9h2.6v13.5h-2.6l-5.9-9v9h-2.6V2.9z"/>
	<path class="st0" d="M54.7,12.4v-0.2h2.6v0.2c0,1.2,0.8,2,2.2,2c1.4,0,2.1-0.8,2.1-2V2.9h2.7v9.5c0,2.5-2,4.2-4.8,4.2
		C56.5,16.6,54.7,15,54.7,12.4z"/>
	<path class="st0" d="M67.2,2.9h9.4v2.2h-6.7v3.3H76v2.2h-6.2v3.5h6.7v2.2h-9.4V2.9z"/>
	<path class="st0" d="M83.3,2.9h6c2.4,0,3.8,1.4,3.8,3.4c0,1.5-0.7,2.6-1.7,3.1c1.4,0.3,2.5,1.3,2.5,3.2c0,2.2-1.9,3.8-4.6,3.8h-6.1
		V2.9z M88.7,8.5c1.1,0,1.7-0.7,1.7-1.8c0-1-0.7-1.7-1.8-1.7h-2.8v3.5H88.7z M89.3,14.2c1.3,0,2-0.7,2-1.8c0-1.1-0.7-1.8-2-1.8h-3.4
		v3.7H89.3z"/>
	<path class="st0" d="M96.1,2.9h9.4v2.2h-6.7v3.3h6.2v2.2h-6.2v3.5h6.7v2.2h-9.4V2.9z"/>
	<path class="st0" d="M107.5,14.1l6.7-9h-6.5V2.9h9.5v2.2l-6.7,9h6.9v2.2h-9.9V14.1z"/>
	<path class="st0" d="M131.1,10.6c0,3.4-2,6-6,6c-3.9,0-6-2.6-6-6v-2c0-3.4,2.1-6,6-6c4,0,6,2.6,6,6V10.6z M128.4,10.7V8.5
		c0-2.1-1.1-3.7-3.3-3.7c-2.2,0-3.3,1.5-3.3,3.7v2.2c0,2.1,1.1,3.7,3.3,3.7C127.4,14.4,128.4,12.9,128.4,10.7z"/>
	<path class="st0" d="M133.7,2.9h9.4v2.2h-6.7v3.3h6.2v2.2h-6.2v3.5h6.7v2.2h-9.4V2.9z"/>
	<path class="st0" d="M145.6,2.9h2.7v6.5l4.7-6.5h3.1l-5.1,6.7l5.2,6.8h-3.2l-4.9-6.6v6.6h-2.7V2.9z"/>
</g>
</svg>
