<?xml version="1.0" encoding="utf-8"?>
<!-- Generator: Adobe Illustrator 22.1.0, SVG Export Plug-In . SVG Version: 6.00 Build 0)  -->
<svg version="1.1" id="Laag_1" xmlns="http://www.w3.org/2000/svg" xmlns:xlink="http://www.w3.org/1999/xlink" x="0px" y="0px"
	 viewBox="0 0 289 65" style="enable-background:new 0 0 289 65;" xml:space="preserve">
<style type="text/css">
	.st0{fill:#002A44;}
</style>
<g>
	<path class="st0" d="M15.6,19.4c-2.1,1.5-4.4,2.3-7,2.3c-2.5,0-4.8-0.8-6.9-2.3V3c2.2-1.5,4.5-2.3,6.9-2.3c2.5,0,4.8,0.8,7,2.3
		V19.4z M12.7,17.8V4.6c-1.3-0.6-2.6-1-4-1c-1.4,0-2.8,0.3-4,1v13.2c1.2,0.6,2.6,1,4,1C10.1,18.8,11.4,18.5,12.7,17.8z"/>
	<path class="st0" d="M31.3,20.3c0,0.5-0.1,0.8-0.4,1.1c-0.3,0.3-0.6,0.4-1,0.4c-0.4,0-0.7-0.1-1-0.4c-0.3-0.3-0.4-0.6-0.4-1.1V10
		c-0.8-0.4-1.7-0.6-2.5-0.6c-0.8,0-1.6,0.2-2.5,0.6v10.3c0,0.5-0.1,0.8-0.4,1.1c-0.3,0.3-0.6,0.4-1,0.4c-0.4,0-0.7-0.1-1-0.4
		c-0.3-0.3-0.4-0.6-0.4-1.1V8.1c1.4-1.1,3.2-1.6,5.4-1.6c2.2,0,4,0.5,5.4,1.6V20.3z"/>
	<path class="st0" d="M45.7,8.1c0,0.4-0.1,0.7-0.4,1c-0.3,0.3-0.6,0.4-1.1,0.4h-2.8v10.7c0,0.5-0.1,0.8-0.4,1.1
		c-0.3,0.3-0.6,0.4-1,0.4s-0.7-0.1-1-0.4c-0.3-0.3-0.4-0.6-0.4-1.1V9.6h-2.8c-0.5,0-0.8-0.1-1.1-0.4c-0.3-0.3-0.4-0.6-0.4-1
		c0-0.4,0.1-0.7,0.4-1c0.3-0.3,0.6-0.4,1.1-0.4h2.8V3.5c0-0.5,0.1-0.8,0.4-1.1c0.3-0.3,0.6-0.4,1-0.4s0.7,0.1,1,0.4
		c0.3,0.3,0.4,0.6,0.4,1.1v3.1h2.8c0.5,0,0.8,0.1,1.1,0.4C45.5,7.4,45.7,7.7,45.7,8.1z"/>
	<path class="st0" d="M58.7,11.5c0,0.5-0.1,0.8-0.4,1.1c-0.3,0.3-0.6,0.4-1,0.4c-0.4,0-0.7-0.1-1-0.4c-0.3-0.3-0.4-0.6-0.4-1.1V9.9
		c-0.8-0.3-1.5-0.4-2.2-0.4c-0.7,0-1.4,0.2-2.2,0.5v10.4c0,0.5-0.1,0.8-0.4,1.1c-0.3,0.3-0.6,0.4-1,0.4c-0.4,0-0.7-0.1-1-0.4
		c-0.3-0.3-0.4-0.6-0.4-1.1V7.9c1.4-1,3.1-1.4,5.1-1.4c2,0,3.8,0.5,5.1,1.4V11.5z"/>
	<path class="st0" d="M72.6,20.1c-1.4,1.1-3.2,1.6-5.4,1.6c-2.2,0-4-0.5-5.4-1.6v-5.8c1.4-1.1,3.2-1.6,5.4-1.6
		c0.9,0,1.7,0.1,2.5,0.3V10c-0.9-0.4-1.7-0.6-2.5-0.6c-0.8,0-1.6,0.2-2.5,0.6v0.1c0,0.5-0.1,0.8-0.4,1.1c-0.3,0.3-0.6,0.4-1,0.4
		c-0.4,0-0.7-0.1-1-0.4c-0.3-0.3-0.4-0.6-0.4-1.1v-2C63.2,7,65,6.5,67.2,6.5c2.2,0,4,0.5,5.4,1.6V20.1z M69.6,18.2v-2.1
		c-0.9-0.4-1.7-0.6-2.5-0.6c-0.8,0-1.6,0.2-2.5,0.6v2.1c0.8,0.4,1.7,0.6,2.5,0.6C67.9,18.8,68.8,18.6,69.6,18.2z"/>
	<path class="st0" d="M88.2,2.8c0,0.4-0.1,0.7-0.4,1c-0.3,0.3-0.6,0.4-1.1,0.4c-0.2,0-0.4,0-0.6-0.1c-0.8-0.3-1.8-0.5-2.7-0.5
		c-0.8,0-1.6,0.2-2.5,0.6v2.5h3.3c0.5,0,0.8,0.1,1.1,0.4c0.3,0.3,0.4,0.6,0.4,1c0,0.4-0.1,0.7-0.4,1c-0.3,0.3-0.6,0.4-1.1,0.4h-3.3
		v10.7c0,0.5-0.1,0.8-0.4,1.1c-0.3,0.3-0.6,0.4-1,0.4s-0.7-0.1-1-0.4c-0.3-0.3-0.4-0.6-0.4-1.1V9.6h-1.3c-0.5,0-0.8-0.1-1.1-0.4
		c-0.3-0.3-0.4-0.6-0.4-1c0-0.4,0.1-0.7,0.4-1c0.3-0.3,0.6-0.4,1.1-0.4H78V2.3c1.4-1.1,3.2-1.6,5.4-1.6c1.3,0,2.5,0.2,3.7,0.7
		C87.9,1.6,88.2,2.1,88.2,2.8z"/>
	<path class="st0" d="M100.4,20.1c-1.4,1.1-3.2,1.6-5.4,1.6c-2.2,0-4-0.5-5.4-1.6v-12C91,7,92.8,6.5,95,6.5c2.2,0,4,0.5,5.4,1.6v5.8
		c-1.4,1.1-3.2,1.6-5.4,1.6h-2.5v2.6c0.9,0.4,1.7,0.6,2.5,0.6c0.8,0,1.6-0.2,2.5-0.6v-0.1c0-0.5,0.1-0.8,0.4-1.1
		c0.3-0.3,0.6-0.4,1-0.4s0.7,0.1,1,0.4c0.3,0.3,0.4,0.6,0.4,1.1V20.1z M97.4,12.1V10c-0.8-0.4-1.7-0.6-2.5-0.6
		c-0.8,0-1.6,0.2-2.5,0.6v2.7H95C95.8,12.6,96.6,12.5,97.4,12.1z"/>
	<path class="st0" d="M108.5,20.3c0,0.5-0.1,0.8-0.4,1.1c-0.3,0.3-0.6,0.4-1,0.4s-0.7-0.1-1-0.4s-0.4-0.6-0.4-1.1V2.1
		c0-0.5,0.1-0.8,0.4-1.1s0.6-0.4,1-0.4s0.7,0.1,1,0.4c0.3,0.3,0.4,0.6,0.4,1.1V20.3z"/>
	<path class="st0" d="M135.9,20.3c0,0.5-0.1,0.8-0.4,1.1c-0.3,0.3-0.6,0.4-1,0.4c-0.4,0-0.7-0.1-1-0.4c-0.3-0.3-0.4-0.6-0.4-1.1V10
		c-0.8-0.4-1.7-0.6-2.5-0.6c-0.8,0-1.6,0.2-2.5,0.6v10.3c0,0.5-0.1,0.8-0.4,1.1c-0.3,0.3-0.6,0.4-1,0.4s-0.7-0.1-1-0.4
		c-0.3-0.3-0.4-0.6-0.4-1.1V2.1c0-0.5,0.1-0.8,0.4-1.1s0.6-0.4,1-0.4s0.7,0.1,1,0.4s0.4,0.6,0.4,1.1v4.6c0.8-0.2,1.6-0.2,2.5-0.2
		c2.2,0,4,0.5,5.4,1.6V20.3z"/>
	<path class="st0" d="M151.4,20.1c-1.4,1.1-3.2,1.6-5.4,1.6c-2.2,0-4-0.5-5.4-1.6v-12c1.4-1.1,3.2-1.6,5.4-1.6c2.2,0,4,0.5,5.4,1.6
		v5.8c-1.4,1.1-3.2,1.6-5.4,1.6h-2.5v2.6c0.9,0.4,1.7,0.6,2.5,0.6c0.8,0,1.6-0.2,2.5-0.6v-0.1c0-0.5,0.1-0.8,0.4-1.1
		c0.3-0.3,0.6-0.4,1-0.4s0.7,0.1,1,0.4c0.3,0.3,0.4,0.6,0.4,1.1V20.1z M148.5,12.1V10c-0.8-0.4-1.7-0.6-2.5-0.6
		c-0.8,0-1.6,0.2-2.5,0.6v2.7h2.5C146.8,12.6,147.7,12.5,148.5,12.1z"/>
	<path class="st0" d="M165.8,8.1c0,0.4-0.1,0.7-0.4,1c-0.3,0.3-0.6,0.4-1.1,0.4h-2.8v10.7c0,0.5-0.1,0.8-0.4,1.1s-0.6,0.4-1,0.4
		s-0.7-0.1-1-0.4c-0.3-0.3-0.4-0.6-0.4-1.1V9.6h-2.8c-0.5,0-0.8-0.1-1.1-0.4c-0.3-0.3-0.4-0.6-0.4-1c0-0.4,0.1-0.7,0.4-1
		c0.3-0.3,0.6-0.4,1.1-0.4h2.8V3.5c0-0.5,0.1-0.8,0.4-1.1c0.3-0.3,0.6-0.4,1-0.4s0.7,0.1,1,0.4s0.4,0.6,0.4,1.1v3.1h2.8
		c0.5,0,0.8,0.1,1.1,0.4C165.6,7.4,165.8,7.7,165.8,8.1z"/>
	<path class="st0" d="M183.8,3.5c0,0.7-0.3,1-1,1h-2.1c-0.7,0-1-0.3-1-1V1.8c0-0.7,0.3-1,1-1h2.1c0.7,0,1,0.3,1,1V3.5z M183.2,20.3
		c0,0.5-0.1,0.8-0.4,1.1c-0.3,0.3-0.6,0.4-1,0.4s-0.7-0.1-1-0.4c-0.3-0.3-0.5-0.6-0.5-1.1V7.9c0-0.5,0.1-0.8,0.4-1.1
		c0.3-0.3,0.6-0.4,1-0.4s0.7,0.1,1,0.4c0.3,0.3,0.4,0.6,0.4,1.1V20.3z"/>
	<path class="st0" d="M191.7,24.5c-1.4,1.1-3.2,1.6-5.4,1.6c-0.5,0-0.8-0.1-1.1-0.4c-0.3-0.3-0.4-0.6-0.4-1c0-0.4,0.1-0.7,0.4-1
		c0.3-0.3,0.6-0.4,1.1-0.4c0.8,0,1.6-0.2,2.5-0.6V7.9c0-0.5,0.1-0.8,0.4-1.1c0.3-0.3,0.6-0.4,1-0.4s0.7,0.1,1,0.4
		c0.3,0.3,0.4,0.6,0.4,1.1V24.5z M192.3,3.5c0,0.7-0.3,1-1,1h-2.1c-0.7,0-1-0.3-1-1V1.8c0-0.7,0.3-1,1-1h2.1c0.7,0,1,0.3,1,1V3.5z"
		/>
	<path class="st0" d="M207.6,20.1c-1.4,1.1-3.2,1.6-5.4,1.6c-2.2,0-4.1-0.5-5.5-1.6V18c0-0.5,0.1-0.8,0.4-1.1c0.3-0.3,0.6-0.4,1-0.4
		s0.7,0.1,1,0.4c0.3,0.3,0.4,0.6,0.4,1.1v0.3c0.9,0.4,1.7,0.6,2.6,0.6c0.8,0,1.6-0.2,2.5-0.6v-2.1l-7.8-2.4V8.1
		c1.4-1.1,3.2-1.6,5.3-1.6c2.1,0,3.9,0.5,5.3,1.6v2.1c0,0.4-0.1,0.8-0.4,1.1c-0.3,0.3-0.6,0.4-1,0.4s-0.7-0.1-1-0.4
		c-0.3-0.3-0.4-0.6-0.4-1.1V10c-0.8-0.4-1.6-0.6-2.4-0.6c-0.7,0-1.5,0.2-2.4,0.6v1.6l7.8,2.4V20.1z"/>
	<path class="st0" d="M224.3,20.3c0,0.4-0.2,0.7-0.5,1c-0.3,0.3-0.6,0.4-1,0.4s-0.7-0.2-1-0.5l-6.5-6.5v5.4c0,0.5-0.1,0.8-0.4,1.1
		c-0.3,0.3-0.6,0.4-1,0.4s-0.7-0.1-1-0.4s-0.4-0.6-0.4-1.1V2.1c0-0.5,0.1-0.8,0.4-1.1s0.6-0.4,1-0.4s0.7,0.1,1,0.4
		c0.3,0.3,0.4,0.6,0.4,1.1v10.5l5.8-5.8c0.3-0.3,0.7-0.5,1.1-0.5c0.4,0,0.8,0.1,1,0.4c0.3,0.3,0.4,0.6,0.4,1c0,0.4-0.2,0.8-0.5,1.1
		l-4.8,4.8l5.5,5.5C224.1,19.5,224.3,19.9,224.3,20.3z"/>
	<path class="st0" d="M238.1,20.1c-1.4,1.1-3.2,1.6-5.4,1.6c-2.2,0-4-0.5-5.4-1.6v-12c1.4-1.1,3.2-1.6,5.4-1.6c2.2,0,4,0.5,5.4,1.6
		V20.1z M235.2,18.2V10c-0.8-0.4-1.7-0.6-2.5-0.6c-0.8,0-1.6,0.2-2.5,0.6v8.2c0.9,0.4,1.7,0.6,2.5,0.6
		C233.5,18.8,234.3,18.6,235.2,18.2z"/>
	<path class="st0" d="M253.7,20.1c-1.4,1.1-3.2,1.6-5.4,1.6c-2.2,0-4-0.5-5.4-1.6V7.9c0-0.5,0.1-0.8,0.4-1.1s0.6-0.4,1-0.4
		c0.4,0,0.7,0.1,1,0.4c0.3,0.3,0.4,0.6,0.4,1.1v10.3c0.9,0.4,1.7,0.6,2.5,0.6c0.8,0,1.6-0.2,2.5-0.6V7.9c0-0.5,0.1-0.8,0.4-1.1
		s0.6-0.4,1-0.4s0.7,0.1,1,0.4c0.3,0.3,0.4,0.6,0.4,1.1V20.1z"/>
	<path class="st0" d="M269.3,20.1c-1.4,1.1-3.2,1.6-5.4,1.6c-2.2,0-4-0.5-5.4-1.6v-12c1.4-1.1,3.2-1.6,5.4-1.6
		c0.9,0,1.7,0.1,2.5,0.3V2.1c0-0.5,0.1-0.8,0.4-1.1c0.3-0.3,0.6-0.4,1-0.4s0.7,0.1,1,0.4c0.3,0.3,0.4,0.6,0.4,1.1V20.1z M266.4,18.2
		V10c-0.9-0.4-1.7-0.6-2.5-0.6c-0.8,0-1.6,0.2-2.5,0.6v8.2c0.8,0.4,1.7,0.6,2.5,0.6C264.7,18.8,265.5,18.6,266.4,18.2z"/>
	<path class="st0" d="M285,20.1c-1.4,1.1-3.2,1.6-5.4,1.6c-2.2,0-4-0.5-5.4-1.6v-12c1.4-1.1,3.2-1.6,5.4-1.6c2.2,0,4,0.5,5.4,1.6
		v5.8c-1.4,1.1-3.2,1.6-5.4,1.6h-2.5v2.6c0.9,0.4,1.7,0.6,2.5,0.6c0.8,0,1.6-0.2,2.5-0.6v-0.1c0-0.5,0.1-0.8,0.4-1.1
		c0.3-0.3,0.6-0.4,1-0.4s0.7,0.1,1,0.4c0.3,0.3,0.4,0.6,0.4,1.1V20.1z M282.1,12.1V10c-0.8-0.4-1.7-0.6-2.5-0.6
		c-0.8,0-1.6,0.2-2.5,0.6v2.7h2.5C280.4,12.6,281.2,12.5,282.1,12.1z"/>
</g>
<g>
	<path class="st0" d="M20.3,58.8c0,0.5-0.1,0.8-0.4,1.1c-0.3,0.3-0.6,0.4-1,0.4s-0.7-0.1-1-0.4c-0.3-0.3-0.4-0.6-0.4-1.1V48.4
		c-0.8-0.4-1.7-0.6-2.5-0.6c-0.8,0-1.6,0.2-2.5,0.6v10.3c0,0.5-0.1,0.8-0.4,1.1c-0.3,0.3-0.6,0.4-1,0.4c-1,0-1.5-0.5-1.5-1.5V48.4
		c-0.8-0.4-1.7-0.6-2.5-0.6c-0.8,0-1.6,0.2-2.5,0.6v10.3c0,0.5-0.1,0.8-0.4,1.1c-0.3,0.3-0.6,0.4-1,0.4c-0.4,0-0.7-0.1-1-0.4
		c-0.3-0.3-0.4-0.6-0.4-1.1V46.6c1.4-1.1,3.2-1.6,5.4-1.6c1.5,0,2.8,0.2,3.9,0.7c1.1-0.5,2.5-0.7,3.9-0.7c2.2,0,4,0.5,5.4,1.6V58.8z
		"/>
	<path class="st0" d="M36.1,46.2c0,0.2,0,0.4-0.1,0.5L30.5,64c-0.2,0.7-0.7,1-1.4,1c-0.4,0-0.7-0.1-1.1-0.4s-0.5-0.6-0.5-1
		c0-0.2,0-0.3,0.1-0.5l1.4-4.5c-0.6-0.1-1.1-0.4-1.2-1l-3.4-10.8c-0.1-0.2-0.1-0.3-0.1-0.5c0-0.4,0.2-0.8,0.5-1
		c0.3-0.3,0.7-0.4,1.1-0.4c0.7,0,1.1,0.3,1.3,1l3,9.4l3-9.4c0.2-0.7,0.7-1,1.4-1c0.4,0,0.7,0.1,1,0.4C36,45.5,36.1,45.8,36.1,46.2z"
		/>
	<path class="st0" d="M50.8,58.5c-1.4,1.1-3.2,1.6-5.4,1.6c-2.2,0-4.1-0.5-5.5-1.6v-2.1c0-0.5,0.1-0.8,0.4-1.1
		c0.3-0.3,0.6-0.4,1-0.4c0.4,0,0.7,0.1,1,0.4c0.3,0.3,0.4,0.6,0.4,1.1v0.3c0.9,0.4,1.7,0.6,2.6,0.6c0.8,0,1.6-0.2,2.5-0.6v-2.1
		l-7.8-2.4v-5.6c1.4-1.1,3.2-1.6,5.3-1.6c2.1,0,3.9,0.5,5.3,1.6v2.1c0,0.4-0.1,0.8-0.4,1.1c-0.3,0.3-0.6,0.4-1,0.4
		c-0.4,0-0.7-0.1-1-0.4c-0.3-0.3-0.4-0.6-0.4-1.1v-0.3c-0.8-0.4-1.6-0.6-2.4-0.6c-0.7,0-1.5,0.2-2.4,0.6V50l7.8,2.4V58.5z"/>
	<path class="st0" d="M65.3,46.6c0,0.4-0.1,0.7-0.4,1c-0.3,0.3-0.6,0.4-1.1,0.4h-2.8v10.7c0,0.5-0.1,0.8-0.4,1.1
		c-0.3,0.3-0.6,0.4-1,0.4s-0.7-0.1-1-0.4c-0.3-0.3-0.4-0.6-0.4-1.1V48h-2.8c-0.5,0-0.8-0.1-1.1-0.4c-0.3-0.3-0.4-0.6-0.4-1
		s0.1-0.7,0.4-1c0.3-0.3,0.6-0.4,1.1-0.4h2.8V42c0-0.5,0.1-0.8,0.4-1.1c0.3-0.3,0.6-0.4,1-0.4s0.7,0.1,1,0.4
		c0.3,0.3,0.4,0.6,0.4,1.1v3.1h2.8c0.5,0,0.8,0.1,1.1,0.4C65.2,45.8,65.3,46.2,65.3,46.6z"/>
	<path class="st0" d="M79.2,58.5c-1.4,1.1-3.2,1.6-5.4,1.6c-2.2,0-4-0.5-5.4-1.6v-12c1.4-1.1,3.2-1.6,5.4-1.6c2.2,0,4,0.5,5.4,1.6
		v5.8C77.8,53.5,76,54,73.8,54h-2.5v2.6c0.9,0.4,1.7,0.6,2.5,0.6c0.8,0,1.6-0.2,2.5-0.6v-0.1c0-0.5,0.1-0.8,0.4-1.1
		c0.3-0.3,0.6-0.4,1-0.4c0.4,0,0.7,0.1,1,0.4c0.3,0.3,0.4,0.6,0.4,1.1V58.5z M76.3,50.5v-2.1c-0.8-0.4-1.7-0.6-2.5-0.6
		c-0.8,0-1.6,0.2-2.5,0.6v2.7h2.5C74.6,51.1,75.5,50.9,76.3,50.5z"/>
	<path class="st0" d="M94.5,49.9c0,0.5-0.1,0.8-0.4,1.1c-0.3,0.3-0.6,0.4-1,0.4s-0.7-0.1-1-0.4c-0.3-0.3-0.4-0.6-0.4-1.1v-1.6
		c-0.8-0.3-1.5-0.4-2.2-0.4c-0.7,0-1.4,0.2-2.2,0.5v10.4c0,0.5-0.1,0.8-0.4,1.1c-0.3,0.3-0.6,0.4-1,0.4c-0.4,0-0.7-0.1-1-0.4
		c-0.3-0.3-0.4-0.6-0.4-1.1V46.4c1.4-1,3.1-1.4,5.1-1.4c2,0,3.8,0.5,5.1,1.4V49.9z"/>
	<path class="st0" d="M101.8,41.9c0,0.7-0.3,1-1,1h-2.1c-0.7,0-1-0.3-1-1v-1.6c0-0.7,0.3-1,1-1h2.1c0.7,0,1,0.3,1,1V41.9z
		 M101.2,58.8c0,0.5-0.1,0.8-0.4,1.1c-0.3,0.3-0.6,0.4-1,0.4s-0.7-0.1-1-0.4c-0.3-0.3-0.5-0.6-0.5-1.1V46.3c0-0.5,0.1-0.8,0.4-1.1
		c0.3-0.3,0.6-0.4,1-0.4s0.7,0.1,1,0.4c0.3,0.3,0.4,0.6,0.4,1.1V58.8z"/>
	<path class="st0" d="M117.4,58.5c-1.4,1.1-3.2,1.6-5.4,1.6c-2.2,0-4-0.5-5.4-1.6v-12c1.4-1.1,3.2-1.6,5.4-1.6c2.2,0,4,0.5,5.4,1.6
		v5.8c-1.4,1.1-3.2,1.6-5.4,1.6h-2.5v2.6c0.9,0.4,1.7,0.6,2.5,0.6c0.8,0,1.6-0.2,2.5-0.6v-0.1c0-0.5,0.1-0.8,0.4-1.1
		c0.3-0.3,0.6-0.4,1-0.4s0.7,0.1,1,0.4c0.3,0.3,0.4,0.6,0.4,1.1V58.5z M114.5,50.5v-2.1c-0.8-0.4-1.7-0.6-2.5-0.6
		c-0.8,0-1.6,0.2-2.5,0.6v2.7h2.5C112.8,51.1,113.6,50.9,114.5,50.5z"/>
	<path class="st0" d="M141.6,46.3c0,0.1,0,0.2-0.1,0.4L138.3,59c-0.1,0.4-0.3,0.7-0.5,0.8c-0.2,0.1-0.5,0.2-0.9,0.2h-2.1
		c-0.7,0-1.2-0.3-1.4-1l-3.3-12.3c0-0.1-0.1-0.3-0.1-0.4c0-0.4,0.1-0.8,0.5-1c0.3-0.3,0.6-0.4,1-0.4c0.7,0,1.2,0.4,1.4,1.1l3,11.1
		l3-11.1c0.2-0.7,0.6-1.1,1.4-1.1c0.3,0,0.7,0.1,1,0.4C141.5,45.5,141.6,45.9,141.6,46.3z"/>
	<path class="st0" d="M156.4,58.5c-1.4,1.1-3.2,1.6-5.4,1.6c-2.2,0-4-0.5-5.4-1.6v-5.8c1.4-1.1,3.2-1.6,5.4-1.6
		c0.9,0,1.7,0.1,2.5,0.3v-2.9c-0.9-0.4-1.7-0.6-2.5-0.6c-0.8,0-1.6,0.2-2.5,0.6v0.1c0,0.5-0.1,0.8-0.4,1.1c-0.3,0.3-0.6,0.4-1,0.4
		c-0.4,0-0.7-0.1-1-0.4c-0.3-0.3-0.4-0.6-0.4-1.1v-2c1.4-1.1,3.2-1.6,5.4-1.6c2.2,0,4,0.5,5.4,1.6V58.5z M153.5,56.7v-2.1
		c-0.9-0.4-1.7-0.6-2.5-0.6c-0.8,0-1.6,0.2-2.5,0.6v2.1c0.8,0.4,1.7,0.6,2.5,0.6C151.8,57.2,152.6,57,153.5,56.7z"/>
	<path class="st0" d="M172.3,58.8c0,0.5-0.1,0.8-0.4,1.1c-0.3,0.3-0.6,0.4-1,0.4s-0.7-0.1-1-0.4c-0.3-0.3-0.4-0.6-0.4-1.1V48.4
		c-0.8-0.4-1.7-0.6-2.5-0.6c-0.8,0-1.6,0.2-2.5,0.6v10.3c0,0.5-0.1,0.8-0.4,1.1c-0.3,0.3-0.6,0.4-1,0.4c-0.4,0-0.7-0.1-1-0.4
		c-0.3-0.3-0.4-0.6-0.4-1.1V46.6c1.4-1.1,3.2-1.6,5.4-1.6c2.2,0,4,0.5,5.4,1.6V58.8z"/>
</g>
<g>
	<path class="st0" d="M206.9,57.4c-2.6,1.9-5.4,2.8-8.5,2.8c-3,0-5.8-0.9-8.5-2.8v-20c2.6-1.9,5.5-2.8,8.5-2.8
		c3.1,0,5.9,0.9,8.5,2.8V57.4z M197,31.1c0,0.6-0.3,1-1,1h-2.1c-0.7,0-1-0.3-1-1v-1.6c0-0.6,0.3-1,1-1h2.1c0.7,0,1,0.3,1,1V31.1z
		 M203.3,55.5V39.3c-1.6-0.8-3.2-1.2-4.9-1.2c-1.7,0-3.4,0.4-4.9,1.2v16.2c1.5,0.8,3.1,1.2,4.9,1.2
		C200.1,56.6,201.8,56.2,203.3,55.5z M203.6,31.1c0,0.6-0.3,1-1,1h-2.1c-0.7,0-1-0.3-1-1v-1.6c0-0.6,0.3-1,1-1h2.1c0.7,0,1,0.3,1,1
		V31.1z"/>
	<path class="st0" d="M224.9,43.6c0,0.5-0.2,0.9-0.5,1.3s-0.8,0.5-1.3,0.5h-3.4v13.1c0,0.5-0.2,1-0.5,1.3c-0.4,0.3-0.8,0.5-1.3,0.5
		c-0.5,0-0.9-0.2-1.3-0.5c-0.4-0.3-0.5-0.8-0.5-1.3V45.4h-3.4c-0.5,0-1-0.2-1.3-0.5c-0.3-0.4-0.5-0.8-0.5-1.3c0-0.5,0.2-0.9,0.5-1.3
		c0.3-0.4,0.8-0.5,1.3-0.5h3.4V38c0-0.5,0.2-1,0.5-1.3c0.4-0.3,0.8-0.5,1.3-0.5c0.5,0,0.9,0.2,1.3,0.5c0.4,0.3,0.5,0.8,0.5,1.3v3.8
		h3.4c0.5,0,1,0.2,1.3,0.5C224.7,42.7,224.9,43.1,224.9,43.6z"/>
	<path class="st0" d="M241.1,58.2c0,0.5-0.2,0.9-0.5,1.3s-0.8,0.5-1.3,0.5h-10.6c-1.2,0-1.8-0.5-1.8-1.6c0-0.4,0.1-0.7,0.2-1l7.7-12
		h-5.7c-0.5,0-1-0.2-1.3-0.5c-0.3-0.4-0.5-0.8-0.5-1.3c0-0.5,0.2-0.9,0.5-1.3c0.3-0.4,0.8-0.5,1.3-0.5h9.2c1.2,0,1.8,0.5,1.8,1.6
		c0,0.4-0.1,0.7-0.2,1l-7.7,12h7.1c0.6,0,1,0.2,1.3,0.5C241,57.3,241.1,57.7,241.1,58.2z"/>
	<path class="st0" d="M250.2,38c0,0.8-0.4,1.2-1.2,1.2h-2.6c-0.8,0-1.2-0.4-1.2-1.2v-2c0-0.8,0.4-1.2,1.2-1.2h2.6
		c0.8,0,1.2,0.4,1.2,1.2V38z M249.5,58.5c0,0.5-0.2,1-0.5,1.3c-0.3,0.3-0.8,0.5-1.2,0.5c-0.5,0-0.9-0.2-1.3-0.5
		c-0.4-0.3-0.5-0.8-0.5-1.3V43.3c0-0.5,0.2-1,0.5-1.3c0.4-0.3,0.8-0.5,1.3-0.5c0.5,0,0.9,0.2,1.3,0.5c0.4,0.3,0.5,0.8,0.5,1.3V58.5z
		"/>
</g>
<g>
	<path class="st0" d="M259.5,58.9c0,0.8-0.4,1.1-1.1,1.1h-2.5c-0.8,0-1.1-0.4-1.1-1.1v-1.8c0-0.8,0.4-1.1,1.1-1.1h2.5
		c0.8,0,1.1,0.4,1.1,1.1V58.9z"/>
	<path class="st0" d="M267.9,58.9c0,0.8-0.4,1.1-1.1,1.1h-2.5c-0.8,0-1.1-0.4-1.1-1.1v-1.8c0-0.8,0.4-1.1,1.1-1.1h2.5
		c0.8,0,1.1,0.4,1.1,1.1V58.9z"/>
	<path class="st0" d="M276.4,58.9c0,0.8-0.4,1.1-1.1,1.1h-2.5c-0.8,0-1.1-0.4-1.1-1.1v-1.8c0-0.8,0.4-1.1,1.1-1.1h2.5
		c0.8,0,1.1,0.4,1.1,1.1V58.9z"/>
</g>
</svg>
