<?xml version="1.0" encoding="utf-8"?>
<!-- Generator: Adobe Illustrator 24.3.0, SVG Export Plug-In . SVG Version: 6.00 Build 0)  -->
<svg version="1.1" id="Laag_1" xmlns="http://www.w3.org/2000/svg" xmlns:xlink="http://www.w3.org/1999/xlink" x="0px" y="0px"
	 width="115.9px" height="249.4px" viewBox="0 0 115.9 249.4" style="enable-background:new 0 0 115.9 249.4;" xml:space="preserve"
	>
<style type="text/css">
	.st0{fill:#988041;}
	.st1{fill:#A1803B;}
</style>
<g>
	<path class="st0" d="M51.9,249.2v-4.1h-0.2c-1.1,1.5-2.1,2.6-3.2,3.4s-2.6,1.2-4.5,1.2c-0.9,0-1.9-0.1-2.9-0.4
		c-1-0.3-1.9-0.8-2.8-1.6c-0.9-0.7-1.6-1.8-2.2-3.2c-0.6-1.4-0.8-3.2-0.8-5.4c0-2.3,0.2-4.3,0.6-6c0.4-1.7,1.1-3.2,2.1-4.3
		c1-1.1,2.2-1.9,3.9-2.5c1.6-0.6,3.7-0.8,6.3-0.8c0.3,0,0.6,0,0.9,0s0.6,0,0.9,0.1c0.3,0.1,0.6,0.1,1,0.1c0.4,0,0.8,0,1.2,0.1v-4.2
		c0-1.4-0.3-2.5-0.9-3.4c-0.6-0.9-1.6-1.3-3.2-1.3c-1.1,0-2,0.3-2.9,1c-0.9,0.7-1.4,1.7-1.7,3h-7.8c0.2-3.6,1.4-6.5,3.6-8.7
		c1.1-1.1,2.3-1.9,3.8-2.5c1.5-0.6,3.1-0.9,5-0.9c1.7,0,3.3,0.3,4.7,0.8c1.5,0.5,2.8,1.3,3.9,2.4c1.1,1.1,1.9,2.4,2.5,4
		c0.6,1.6,1,3.4,1,5.5v27.9H51.9z M51.9,232c-0.9-0.2-1.6-0.2-2.2-0.2c-1.7,0-3.2,0.4-4.5,1.2c-1.2,0.8-1.9,2.3-1.9,4.5
		c0,1.5,0.4,2.8,1.1,3.7c0.7,1,1.8,1.4,3.1,1.4c1.4,0,2.4-0.4,3.2-1.3c0.8-0.9,1.1-2.2,1.1-3.8V232z"/>
	<path class="st0" d="M61.5,192.9h8.1v45c0,1.5,0.3,2.6,0.8,3.1s1.6,0.9,3.1,1.1v7.6c-1.8,0-3.5-0.1-5-0.4c-1.5-0.3-2.7-0.9-3.8-1.7
		c-1.1-0.8-1.9-1.9-2.4-3.4c-0.6-1.5-0.8-3.4-0.8-5.7V192.9z"/>
	<path class="st0" d="M88,249.2v-4.1h-0.2c-1.1,1.5-2.1,2.6-3.2,3.4s-2.6,1.2-4.5,1.2c-0.9,0-1.9-0.1-2.9-0.4
		c-1-0.3-1.9-0.8-2.8-1.6c-0.9-0.7-1.6-1.8-2.2-3.2c-0.6-1.4-0.8-3.2-0.8-5.4c0-2.3,0.2-4.3,0.6-6c0.4-1.7,1.1-3.2,2.1-4.3
		c1-1.1,2.2-1.9,3.9-2.5c1.6-0.6,3.7-0.8,6.3-0.8c0.3,0,0.6,0,0.9,0s0.6,0,0.9,0.1c0.3,0.1,0.6,0.1,1,0.1c0.4,0,0.8,0,1.2,0.1v-4.2
		c0-1.4-0.3-2.5-0.9-3.4c-0.6-0.9-1.6-1.3-3.2-1.3c-1.1,0-2,0.3-2.9,1c-0.9,0.7-1.4,1.7-1.7,3h-7.8c0.2-3.6,1.4-6.5,3.6-8.7
		c1.1-1.1,2.3-1.9,3.8-2.5c1.5-0.6,3.1-0.9,5-0.9c1.7,0,3.3,0.3,4.7,0.8c1.5,0.5,2.8,1.3,3.9,2.4c1.1,1.1,1.9,2.4,2.5,4
		c0.6,1.6,1,3.4,1,5.5v27.9H88z M88,232c-0.9-0.2-1.6-0.2-2.2-0.2c-1.7,0-3.2,0.4-4.5,1.2c-1.2,0.8-1.9,2.3-1.9,4.5
		c0,1.5,0.4,2.8,1.1,3.7c0.7,1,1.8,1.4,3.1,1.4c1.4,0,2.4-0.4,3.2-1.3c0.8-0.9,1.1-2.2,1.1-3.8V232z"/>
</g>
<g>
	<g>
		<path class="st1" d="M0,249.4V0h53.6C63.4,0,72,1.3,79.5,3.9C87,6.4,93.8,11,99.8,17.5c6.1,6.5,10.3,14.2,12.6,22.9
			c2.3,8.8,3.5,20.6,3.5,35.6c0,11.2-0.6,20.7-1.9,28.4c-1.3,7.7-4,14.9-8.2,21.7c-4.9,8.2-11.4,14.5-19.6,19.1
			c-8.2,4.6-18.9,6.8-32.2,6.8H35.7v97.4H0z M35.7,33.6v84.8h17.2c7.2,0,12.8-1.1,16.8-3.2c4-2.1,6.9-5,8.8-8.8
			c1.9-3.5,3-7.8,3.3-13c0.3-5.1,0.5-10.9,0.5-17.2c0-5.8-0.1-11.4-0.3-16.6c-0.2-5.3-1.3-9.9-3.2-13.8c-1.9-4-4.7-7-8.4-9.1
			c-3.7-2.1-9.1-3.2-16.1-3.2H35.7z"/>
	</g>
</g>
</svg>
