<?xml version="1.0" encoding="utf-8"?>
<!-- Generator: Adobe Illustrator 24.3.0, SVG Export Plug-In . SVG Version: 6.00 Build 0)  -->
<svg version="1.1" id="Laag_1" xmlns="http://www.w3.org/2000/svg" xmlns:xlink="http://www.w3.org/1999/xlink" x="0px" y="0px"
	 width="90.2px" height="52px" viewBox="0 0 90.2 52" style="enable-background:new 0 0 90.2 52;" xml:space="preserve">
<style type="text/css">
	.st0{fill:#A1803B;}
</style>
<g>
	<path class="st0" d="M0,13.6V0.1h1.9l2.9,8.1l0,0V0.1h1.9v13.5H5L2,5.5l0,0v8.1H0z"/>
	<path class="st0" d="M15.2,0.1v10.4c0,0.4-0.1,0.8-0.2,1.2c-0.2,0.4-0.4,0.7-0.7,1s-0.6,0.5-1,0.7s-0.8,0.2-1.2,0.2
		s-0.8-0.1-1.2-0.2c-0.4-0.2-0.7-0.4-1-0.7s-0.5-0.6-0.7-1C9.1,11.4,9,11,9,10.5V0.1h1.9v10.2c0,0.5,0.1,0.8,0.3,1.1
		c0.2,0.2,0.5,0.3,0.9,0.3c0.3,0,0.6-0.1,0.9-0.3c0.2-0.2,0.3-0.6,0.3-1.1V0.1H15.2z"/>
	<path class="st0" d="M18.8,13.6V1.9h-2.2V0.1H23v1.8h-2.2v11.6h-2V13.6z"/>
	<path class="st0" d="M24.2,13.6V0.1h1.9l2.5,7.1l0,0l2.5-7.1H33v13.5h-2V5.4l0,0l-1.9,5.8h-1l-1.9-5.8l0,0v8.2H24.2z"/>
	<path class="st0" d="M35.2,13.6V0.1H41v1.8h-3.8v3.9h3.3v1.8h-3.3v3.9H41v1.9h-5.8V13.6z"/>
	<path class="st0" d="M42.6,3.3c0-0.5,0.1-1,0.3-1.4s0.4-0.8,0.8-1c0.3-0.3,0.6-0.5,1-0.6S45.4,0,45.8,0c0.4,0,0.8,0.1,1.2,0.2
		s0.7,0.3,1,0.6s0.5,0.6,0.7,1C48.9,2.3,49,2.7,49,3.3V4h-1.9V3.3c0-0.5-0.1-0.8-0.4-1C46.4,2.1,46.1,2,45.8,2
		c-0.4,0-0.7,0.1-0.9,0.3c-0.3,0.2-0.4,0.6-0.4,1v7.1c0,0.5,0.1,0.8,0.4,1c0.3,0.2,0.6,0.3,0.9,0.3c0.4,0,0.7-0.1,0.9-0.3
		c0.3-0.2,0.4-0.6,0.4-1V7.9h-1.5V6.2H49v4.2c0,0.6-0.1,1.1-0.3,1.5s-0.4,0.7-0.7,1s-0.7,0.5-1,0.6c-0.4,0.1-0.8,0.2-1.2,0.2
		s-0.8-0.1-1.2-0.2s-0.7-0.3-1-0.6s-0.6-0.6-0.8-1s-0.3-0.9-0.3-1.5L42.6,3.3L42.6,3.3z"/>
	<path class="st0" d="M2.2,32.8V21.1H0v-1.8h6.4v1.8H4.2v11.6h-2V32.8z"/>
	<path class="st0" d="M5.7,32.8l3-13.5h1.6l3,13.5h-1.9l-0.6-2.9H8.2l-0.5,2.9H5.7z M10.5,28.1l-1-4.9l0,0l-0.9,4.9H10.5z"/>
	<path class="st0" d="M14.8,32.8V19.3h1.9v11.5h3.8v1.9h-5.7V32.8z"/>
	<path class="st0" d="M22.2,32.8V19.3h5.7v1.8h-3.8V25h3.3v1.8h-3.3v3.9h3.8v1.9h-5.7V32.8z"/>
	<path class="st0" d="M35.9,23.2H34v-0.4c0-0.4-0.1-0.8-0.3-1.1c-0.2-0.3-0.6-0.5-1-0.5c-0.3,0-0.5,0-0.6,0.2
		c-0.2,0.1-0.3,0.2-0.4,0.4c-0.1,0.2-0.2,0.3-0.2,0.6c0,0.2-0.1,0.4-0.1,0.7c0,0.3,0,0.5,0,0.7s0.1,0.3,0.1,0.5
		c0.1,0.1,0.2,0.3,0.3,0.4c0.1,0.1,0.3,0.2,0.6,0.3l1.5,0.2c0.4,0.2,0.8,0.4,1,0.6c0.3,0.2,0.5,0.5,0.6,0.8c0.1,0.3,0.2,0.6,0.3,1
		c0.1,0.4,0.1,0.8,0.1,1.3c0,0.6-0.1,1.1-0.2,1.6s-0.3,0.9-0.5,1.2c-0.3,0.4-0.6,0.6-1,0.8c-0.4,0.2-1,0.3-1.6,0.3
		c-0.5,0-0.9-0.1-1.3-0.2c-0.4-0.2-0.7-0.4-1-0.7s-0.5-0.6-0.7-1s-0.3-0.8-0.3-1.3V29h1.9v0.6c0,0.4,0.1,0.7,0.3,1
		c0.2,0.3,0.6,0.4,1,0.4c0.3,0,0.6,0,0.8-0.1c0.2-0.1,0.3-0.2,0.4-0.4c0.1-0.2,0.2-0.4,0.2-0.6s0-0.5,0-0.8c0-0.4,0-0.6,0-0.9
		c0-0.2-0.1-0.4-0.2-0.5c0-0.3-0.1-0.4-0.2-0.5s-0.3-0.2-0.6-0.3l-1.4-0.6c-0.8-0.3-1.4-0.8-1.7-1.4c-0.3-0.6-0.4-1.3-0.4-2.1
		c0-0.5,0.1-1,0.2-1.4c0.1-0.5,0.3-0.8,0.6-1.2c0.3-0.3,0.6-0.6,1-0.8c0.4-0.2,0.9-0.2,1.5-0.2c0.5,0,0.9,0.1,1.3,0.3
		c0.4,0.2,0.7,0.4,1,0.7c0.6,0.6,0.9,1.3,0.9,2.1C35.9,22.3,35.9,23.2,35.9,23.2z"/>
	<path class="st0" d="M0,41.4c0-0.5,0.1-1,0.3-1.4c0.2-0.4,0.4-0.8,0.8-1c0.3-0.3,0.6-0.5,1-0.6c0.4-0.1,0.8-0.2,1.2-0.2
		s0.8,0.1,1.2,0.2c0.4,0.1,0.7,0.3,1,0.6c0.3,0.3,0.5,0.6,0.7,1c0.2,0.4,0.3,0.9,0.3,1.4v7.1c0,0.6-0.1,1.1-0.3,1.5
		c-0.2,0.4-0.4,0.7-0.7,1c-0.3,0.3-0.7,0.5-1,0.6c-0.4,0.1-0.8,0.2-1.2,0.2s-0.8-0.1-1.2-0.2s-0.7-0.3-1-0.6s-0.6-0.6-0.8-1
		C0.1,49.5,0,49,0,48.5V41.4z M1.9,48.5c0,0.5,0.1,0.8,0.4,1s0.6,0.3,0.9,0.3c0.4,0,0.7-0.1,0.9-0.3c0.3-0.2,0.4-0.6,0.4-1v-7.1
		c0-0.5-0.1-0.8-0.4-1s-0.6-0.3-0.9-0.3c-0.4,0-0.7,0.1-0.9,0.3c-0.3,0.2-0.4,0.6-0.4,1C1.9,41.4,1.9,48.5,1.9,48.5z"/>
	<path class="st0" d="M8.6,51.6V38.2h5.7V40h-3.8v4.1h3.3v1.8h-3.3v5.7C10.5,51.6,8.6,51.6,8.6,51.6z"/>
	<path class="st0" d="M20.1,51.6V38.2h2.8c0.6,0,1.1,0.1,1.6,0.3c0.4,0.2,0.8,0.4,1.1,0.8c0.3,0.3,0.5,0.7,0.6,1.1
		c0.1,0.4,0.2,0.8,0.2,1.3v0.5c0,0.4,0,0.7-0.1,0.9c-0.1,0.3-0.1,0.5-0.3,0.7c-0.2,0.4-0.5,0.7-1,0.9c0.5,0.2,0.8,0.5,1,0.9
		c0.2,0.4,0.3,1,0.3,1.7v0.8c0,1.2-0.3,2.1-0.9,2.7s-1.5,0.9-2.7,0.9L20.1,51.6L20.1,51.6z M22,40v3.7h0.9c0.6,0,1.1-0.2,1.3-0.5
		c0.2-0.3,0.3-0.8,0.3-1.4c0-0.6-0.1-1.1-0.4-1.4c-0.2-0.3-0.7-0.5-1.3-0.5L22,40L22,40z M22,45.4v4.3h0.8c0.4,0,0.7-0.1,0.9-0.2
		c0.2-0.1,0.4-0.3,0.5-0.5s0.2-0.4,0.2-0.7s0-0.6,0-0.9s0-0.6-0.1-0.9s-0.1-0.5-0.2-0.6c-0.1-0.2-0.3-0.3-0.5-0.4
		c-0.1-0.1-0.4-0.1-0.7-0.1H22z"/>
	<path class="st0" d="M27.5,51.6l3-13.5h1.6l3,13.5h-1.9l-0.6-2.9H30l-0.6,2.9H27.5z M32.3,46.9L31.4,42l0,0l-0.9,4.9H32.3z"/>
	<path class="st0" d="M36.5,51.6V38.2h1.9l2.9,8.1l0,0v-8.1h1.9v13.5h-1.8l-2.9-8.1l0,0v8.1L36.5,51.6L36.5,51.6z"/>
	<path class="st0" d="M45.4,51.6V38.2h2.9c1.1,0,1.9,0.3,2.5,0.9c0.6,0.6,0.9,1.5,0.9,2.6V48c0,1.3-0.3,2.2-0.9,2.8
		s-1.5,0.9-2.6,0.9L45.4,51.6L45.4,51.6z M47.3,40v9.8h0.9c0.5,0,0.9-0.1,1.2-0.4c0.2-0.3,0.3-0.7,0.3-1.3v-6.5
		c0-0.5-0.1-0.9-0.3-1.2c-0.2-0.3-0.6-0.4-1.2-0.4H47.3z"/>
	<path class="st0" d="M52.8,51.6l3-13.5h1.6l3,13.5h-1.9L58,48.8h-2.6l-0.6,2.9h-2V51.6z M57.6,46.9L56.7,42l0,0l-0.9,4.9H57.6z"/>
</g>
</svg>
