<svg xmlns="http://www.w3.org/2000/svg" xmlns:xlink="http://www.w3.org/1999/xlink" width="379.6" height="180.4" xmlns:v="https://vecta.io/nano"><g fill="#6a3f24"><path d="M16.4 36.3c-3.3 0-6.3-.7-8.8-2.2S3.3 30.6 2 28s-2-5.7-2-9.1c0-3.5.7-6.5 2-9.2S5.2 5 7.7 3.6s5.4-2.2 8.7-2.2 6.2.7 8.7 2.2 4.4 3.5 5.7 6.1 2 5.7 2 9.2c0 5.3-1.5 9.5-4.4 12.7s-7 4.7-12 4.7zm0-6.6c2.9 0 5.2-1 6.8-3s2.4-4.6 2.4-7.9-.8-5.9-2.4-7.9-3.9-3-6.8-3-5.2 1-6.8 3-2.4 4.6-2.4 7.9c0 1 .1 2 .3 3s.5 1.9 1 2.9 1 1.8 1.7 2.5 1.6 1.3 2.7 1.7 2.2.8 3.5.8zm35.3-19.3h.4v3.9c0 .5-.2 1-.5 1.3s-.7.5-1.2.5h-.3c-2 0-3.4.6-4.4 1.8s-1.5 2.8-1.5 5v12.9h-6.9V10.4h5.2c.3 0 .5.1.7.3s.3.4.3.7v2.5c2-2.3 4.7-3.5 8.2-3.5zm25.6 18.9c.3.3.5.9.5 1.7v4.9h-.7c-3 0-5.1-1-6.4-2.9-2.1 2.2-5.1 3.3-9 3.3-2.5 0-4.5-.7-6-2s-2.2-3.2-2.2-5.5c0-2.2.7-4 2.1-5.5s3.6-2.4 6.5-2.8c3.7-.4 6.1-1 7.4-1.7v-.1c0-.8-.4-1.5-1.2-2s-1.7-.8-2.9-.8c-.6 0-1.2 0-1.7.1s-1 .2-1.5.4l-1 .4c-.2.1-.5.3-1 .6l-.7.4c-.6.3-1.1.4-1.7.3s-1-.4-1.3-.8l-2.1-2.9c.3-.4.8-.9 1.3-1.3s1.3-.9 2.2-1.4 1.9-.9 3.1-1.3 2.5-.5 3.8-.5c3.7 0 6.6.9 8.5 2.6s2.9 4.3 2.9 7.7v7.2c.2.9.5 1.5 1.1 1.9h0zm-14.6 1.3c.7 0 1.4 0 2-.1s1.2-.3 1.8-.5 1.2-.6 1.6-1 .8-1 1.1-1.7.4-1.5.4-2.4v-.7c-1.3 1.1-3.3 1.6-5.9 1.7-1.2.1-2.1.4-2.7.8s-.9 1-.9 1.8c0 .7.2 1.2.7 1.6s1.1.5 1.9.5zM110 9.9c3.5 0 6.3 1.2 8.3 3.6s3.1 5.6 3.1 9.6c0 4.2-1 7.4-3.1 9.7s-5 3.5-8.8 3.5c-2.7 0-5-.8-6.7-2.2v10.2H96V10.4h5.2c.3 0 .5.1.7.3s.3.4.3.7v2.2c2-2.5 4.7-3.7 7.8-3.7zm-1.3 20.4c1.8 0 3.2-.7 4.3-2s1.6-3.1 1.6-5.2-.5-3.9-1.5-5.2-2.4-2-4.3-2-3.3.6-4.3 1.8-1.6 2.9-1.7 5v.5c0 2.2.5 3.9 1.6 5.2s2.5 1.9 4.3 1.9zm20.7-22.6c-1.1 0-2-.3-2.7-1s-1-1.6-1-2.7.3-2 1-2.7a3.69 3.69 0 0 1 2.7-1.1 3.69 3.69 0 0 1 2.7 1.1 3.69 3.69 0 0 1 1.1 2.7 3.69 3.69 0 0 1-1.1 2.7c-.7.7-1.6 1-2.7 1zM126 35.8V10.4h6.9v25.4H126zm29.4-25.4h6.9v25.4h-5.2c-.3 0-.5-.1-.7-.3s-.3-.4-.3-.7V33c-1.8 2.2-4.1 3.3-6.8 3.3-3.3 0-5.8-.9-7.5-2.6-1.7-1.8-2.5-4.4-2.5-7.9V10.4h6.9v14.2c0 1.9.3 3.4.9 4.3s1.8 1.4 3.4 1.4 2.8-.5 3.7-1.5 1.3-2.4 1.3-4.2V10.4zm37.9 26c-3.9 0-7-1.2-9.3-3.6s-3.4-5.6-3.4-9.5c0-4.1 1.1-7.3 3.4-9.7s5.4-3.6 9.3-3.6c3.1 0 5.6.8 7.8 2.3s3.5 3.8 4.2 6.7l-5.3 1c-1 .2-1.7-.1-2.1-.9-.8-2.1-2.4-3.1-4.6-3.1-1.9 0-3.3.7-4.4 2s-1.5 3.1-1.5 5.3c0 2.1.5 3.8 1.5 5.1s2.5 2 4.3 2c1.3 0 2.3-.3 3-.8s1.3-1.4 1.7-2.5a1.96 1.96 0 0 1 .9-.9c.4-.2.8-.2 1.3-.1l5.2 1c-.6 3.1-2 5.4-4.2 7s-4.7 2.3-7.8 2.3zm29.4-26.5c3.3 0 5.8.9 7.5 2.8s2.6 4.6 2.6 8.1v15h-6.9V21.6c0-1.9-.3-3.4-.9-4.3s-1.8-1.4-3.4-1.4-2.8.5-3.8 1.5-1.4 2.4-1.4 4.2v14.3h-6.9v-34h6.9v10.5a8.92 8.92 0 0 1 6.3-2.5zm27.4 0c3.8 0 7 1.3 9.3 3.8s3.6 5.8 3.6 9.9v1.1a1.08 1.08 0 0 1-.3.7c-.2.2-.4.3-.7.3h-17.8c.4 1.4 1.1 2.6 2.1 3.4s2.2 1.3 3.8 1.3c1.1 0 2.1-.3 2.9-.8s1.4-1.2 1.8-1.9c.3-.5.8-.6 1.3-.4l5.7 2c-.9 2.2-2.3 4-4.3 5.3s-4.5 1.9-7.5 1.9c-3.9 0-7-1.2-9.4-3.6s-3.6-5.6-3.6-9.5c0-4 1.2-7.2 3.6-9.7s5.6-3.8 9.5-3.8zm0 6c-1.4 0-2.6.4-3.5 1.1s-1.7 1.8-2.1 3.1h11.2c-.5-1.3-1.2-2.3-2.1-3.1s-2.2-1.1-3.5-1.1zm58.7-6c3.1 0 5.4.9 7 2.8s2.4 4.5 2.4 8v15.1h-6.9V21.5c0-1.9-.3-3.3-.9-4.2s-1.6-1.3-3-1.3c-1.5 0-2.6.5-3.3 1.4s-1 2.3-1 4.2v14.3h-6.9V21.5c0-1.9-.3-3.2-1-4.2s-1.6-1.4-3-1.4c-1.5 0-2.6.5-3.2 1.4s-1 2.4-1 4.2v14.3h-6.9V10.4h5.2c.3 0 .5.1.7.3s.3.4.3.7V13c1.7-2.1 3.8-3.1 6.4-3.1 3.7 0 6.3 1.3 7.8 3.8 1.9-2.5 4.3-3.8 7.3-3.8z"/><use xlink:href="#B"/><path d="M354.8 7.7c-1.1 0-2-.3-2.7-1s-1-1.6-1-2.7.3-2 1-2.7a3.69 3.69 0 0 1 2.7-1.1 3.69 3.69 0 0 1 2.7 1.1 3.69 3.69 0 0 1 1.1 2.7 3.69 3.69 0 0 1-1.1 2.7c-.7.7-1.6 1-2.7 1zm-3.4 28.1V10.4h6.9v25.4h-6.9zM4.9 55.7c-1.1 0-2-.3-2.7-1s-1-1.6-1-2.7.3-2 1-2.7a3.69 3.69 0 0 1 2.7-1.1 3.69 3.69 0 0 1 2.7 1.1A3.69 3.69 0 0 1 8.7 52a3.69 3.69 0 0 1-1.1 2.7c-.7.7-1.6 1-2.7 1zM1.5 83.8V58.4h6.9v25.4H1.5zm22 .1c-2.6 0-4.7-.7-6.2-2.2s-2.2-3.5-2.2-6.2V49.9H22v25.6c0 .6.2 1.1.6 1.5s.9.6 1.5.6h1.3c.5 0 .9.2 1.3.5s.5.8.5 1.3V84h-3.7zm36.9-19.5H53v10.3c0 .8.2 1.5.8 2.1s1.2.8 2 .8h2.9c.5 0 1 .2 1.3.5s.5.8.5 1.3V84h-5.2c-2.8 0-5-.8-6.6-2.4s-2.4-3.9-2.4-6.8V64.4h-2.2c-.5 0-1-.2-1.3-.5s-.5-.8-.5-1.3v-4.2h4v-8.5H53v8.5h7.4v6z"/><use xlink:href="#C"/><use xlink:href="#D"/><path d="M153.6 49.9h6.9v33.9h-5.2c-.3 0-.5-.1-.7-.3s-.3-.4-.3-.7v-2.2c-2.1 2.4-4.8 3.6-7.9 3.6-3.5 0-6.3-1.2-8.4-3.6s-3.1-5.6-3.1-9.6c0-4.2 1-7.4 3.1-9.7s5-3.5 8.7-3.5c2.7 0 5 .8 6.8 2.3V49.9zm-5.9 28.4c1.8 0 3.3-.6 4.3-1.9s1.6-2.9 1.6-5.1v-.5c0-2.1-.5-3.8-1.6-5.1s-2.5-1.9-4.3-1.9-3.2.7-4.3 2-1.5 3.1-1.5 5.2.5 3.9 1.6 5.2 2.4 2.1 4.2 2.1zm39.5 2.5c-2.3 2.4-5.4 3.6-9.3 3.6s-7-1.2-9.3-3.6-3.5-5.6-3.5-9.7 1.2-7.3 3.5-9.7 5.4-3.6 9.3-3.6 7 1.2 9.3 3.6 3.5 5.6 3.5 9.7-1.2 7.3-3.5 9.7zm-13.6-4.4c1 1.3 2.5 2 4.3 2s3.3-.7 4.3-2 1.5-3.1 1.5-5.2-.5-3.9-1.5-5.2-2.5-2-4.3-2-3.3.7-4.3 2-1.5 3.1-1.5 5.2.5 3.8 1.5 5.2zm34.8-18.5c3.3 0 5.8.9 7.5 2.8s2.6 4.6 2.6 8.1v15h-6.9V69.6c0-1.9-.3-3.4-.9-4.3s-1.8-1.4-3.4-1.4-2.8.5-3.7 1.5-1.3 2.4-1.3 4.2v14.2h-6.9V58.4h5.2c.3 0 .5.1.7.3s.3.4.3.7v1.9c1.7-2.3 4-3.4 6.8-3.4zm36.5 22.9c-2.3 2.4-5.4 3.6-9.3 3.6s-7-1.2-9.3-3.6-3.5-5.6-3.5-9.7 1.2-7.3 3.5-9.7 5.4-3.6 9.3-3.6 7 1.2 9.3 3.6 3.5 5.6 3.5 9.7c-.1 4.1-1.2 7.3-3.5 9.7zm-13.6-4.4c1 1.3 2.5 2 4.3 2s3.3-.7 4.3-2 1.5-3.1 1.5-5.2-.5-3.9-1.5-5.2-2.5-2-4.3-2-3.3.7-4.3 2-1.5 3.1-1.5 5.2.4 3.8 1.5 5.2z"/><use xlink:href="#E"/><path d="M296.8 55.7c-1.1 0-2-.3-2.7-1s-1-1.6-1-2.7.3-2 1-2.7a3.69 3.69 0 0 1 2.7-1.1 3.69 3.69 0 0 1 3.8 3.8 3.69 3.69 0 0 1-1.1 2.7c-.7.7-1.6 1-2.7 1zm-3.4 28.1V58.4h6.9v25.4h-6.9z"/><use xlink:href="#C" x="241.3"/><path d="M351.9 64.4h-7.4v10.3c0 .8.2 1.5.8 2.1s1.2.8 2 .8h2.9c.5 0 1 .2 1.3.5s.5.8.5 1.3V84h-5.2c-2.8 0-5-.8-6.6-2.4s-2.4-3.9-2.4-6.8V64.4h-2.2c-.5 0-1-.2-1.3-.5s-.5-.8-.5-1.3v-4.2h4v-8.5h6.9v8.5h7.4v6z"/><use xlink:href="#B" x="32.8" y="48"/><path d="M29.1 105.9c3.1 0 5.4.9 7 2.8s2.4 4.5 2.4 8v15.1h-6.9v-14.3c0-1.9-.3-3.3-.9-4.2s-1.6-1.3-3-1.3c-1.5 0-2.6.5-3.3 1.4s-1 2.3-1 4.2v14.3h-6.9v-14.3c0-1.9-.3-3.2-1-4.2s-1.6-1.4-3-1.4c-1.5 0-2.6.5-3.2 1.4s-1 2.4-1 4.2v14.2H1.6v-25.4h5.2c.3 0 .5.1.7.3s.3.4.3.7v1.7c1.7-2.1 3.8-3.1 6.4-3.1 3.7 0 6.3 1.3 7.8 3.8 1.7-2.6 4.1-3.9 7.1-3.9zm37.5 19.4c.3.3.5.9.5 1.7v4.9h-.7c-3 0-5.1-1-6.4-2.9-2.1 2.2-5.1 3.3-9 3.3-2.5 0-4.5-.7-6-2s-2.2-3.2-2.2-5.5c0-2.2.7-4 2.1-5.5s3.6-2.4 6.5-2.8c3.7-.4 6.1-1 7.4-1.7v-.1c0-.8-.4-1.5-1.2-2s-1.7-.8-2.9-.8c-.6 0-1.2 0-1.7.1s-1 .2-1.5.4l-1 .4c-.2.1-.5.3-1 .6l-.7.4c-.6.3-1.1.4-1.7.3s-1-.4-1.3-.8l-2.1-2.9c.3-.4.8-.9 1.3-1.3s1.3-.9 2.2-1.4 1.9-.9 3.1-1.3 2.5-.5 3.8-.5c3.7 0 6.6.9 8.5 2.6s2.9 4.3 2.9 7.7v7.2c.1.9.5 1.5 1.1 1.9h0zM52 126.6c.7 0 1.4 0 2-.1s1.2-.3 1.8-.5 1.2-.6 1.6-1 .8-1 1.1-1.7.4-1.5.4-2.4v-.7c-1.3 1.1-3.3 1.6-5.9 1.7-1.2.1-2.1.4-2.7.8s-.9 1-.9 1.8c0 .7.2 1.2.7 1.6s1 .5 1.9.5zm47.3-20.7c3.1 0 5.4.9 7 2.8s2.4 4.5 2.4 8v15.1h-6.9v-14.3c0-1.9-.3-3.3-.9-4.2s-1.6-1.3-3-1.3c-1.5 0-2.6.5-3.3 1.4s-1 2.3-1 4.2v14.3h-6.9v-14.3c0-1.9-.3-3.2-1-4.2s-1.6-1.4-3-1.4c-1.5 0-2.6.5-3.2 1.4s-1 2.4-1 4.2v14.2h-6.9v-25.4h5.2c.3 0 .5.1.7.3s.3.4.3.7v1.7c1.7-2.1 3.8-3.1 6.4-3.1 3.7 0 6.3 1.3 7.8 3.8 1.9-2.6 4.3-3.9 7.3-3.9zm43.3 0c3.1 0 5.4.9 7 2.8s2.4 4.5 2.4 8v15.1h-6.9v-14.3c0-1.9-.3-3.3-.9-4.2s-1.6-1.3-3-1.3c-1.5 0-2.6.5-3.3 1.4s-1 2.3-1 4.2v14.3H130v-14.3c0-1.9-.3-3.2-1-4.2s-1.6-1.4-3-1.4c-1.5 0-2.6.5-3.2 1.4s-1 2.4-1 4.2v14.2h-6.9v-25.4h5.2c.3 0 .5.1.7.3s.3.4.3.7v1.7c1.7-2.1 3.8-3.1 6.4-3.1 3.7 0 6.3 1.3 7.8 3.8 1.9-2.6 4.3-3.9 7.3-3.9zm26.8 0c3.8 0 7 1.3 9.3 3.8s3.6 5.8 3.6 9.9v1.1a1.08 1.08 0 0 1-.3.7c-.2.2-.4.3-.7.3h-17.8c.4 1.4 1.1 2.6 2.1 3.4s2.2 1.3 3.8 1.3c1.1 0 2.1-.3 2.9-.8s1.4-1.2 1.8-1.9c.3-.5.8-.6 1.3-.4l5.7 2c-.9 2.2-2.3 4-4.3 5.2s-4.5 1.9-7.5 1.9c-3.9 0-7-1.2-9.4-3.6s-3.6-5.6-3.6-9.5c0-4 1.2-7.2 3.6-9.7s5.6-3.7 9.5-3.7zm0 6c-1.4 0-2.6.4-3.5 1.1s-1.7 1.8-2.1 3.1H175c-.5-1.3-1.2-2.3-2.1-3.1s-2.2-1.1-3.5-1.1zm42.1-6c3.8 0 7 1.3 9.3 3.8s3.6 5.8 3.6 9.9v1.1a1.08 1.08 0 0 1-.3.7c-.2.2-.4.3-.7.3h-17.8c.4 1.4 1.1 2.6 2.1 3.4s2.2 1.3 3.8 1.3c1.1 0 2.1-.3 2.9-.8s1.4-1.2 1.8-1.9c.3-.5.8-.6 1.3-.4l5.7 2c-.9 2.2-2.3 4-4.3 5.2s-4.5 1.9-7.5 1.9c-3.9 0-7-1.2-9.4-3.6s-3.6-5.6-3.6-9.5c0-4 1.2-7.2 3.6-9.7s5.6-3.7 9.5-3.7zm0 6c-1.4 0-2.6.4-3.5 1.1s-1.7 1.8-2.1 3.1h11.2c-.5-1.3-1.2-2.3-2.1-3.1s-2.2-1.1-3.5-1.1z"/><use xlink:href="#F"/><use xlink:href="#B" x="-51.7" y="96"/><use xlink:href="#F" x="57.1"/><use xlink:href="#E" x="63.4" y="48"/><path d="M4.9 151.7c-1.1 0-2-.3-2.7-1s-1-1.6-1-2.7.3-2 1-2.7a3.69 3.69 0 0 1 2.7-1.1 3.69 3.69 0 0 1 2.7 1.1 3.69 3.69 0 0 1 1.1 2.7 3.69 3.69 0 0 1-1.1 2.7c-.7.7-1.6 1-2.7 1zm-3.4 28.1v-25.4h6.9v25.4H1.5zm26.6-25.9c3.3 0 5.8.9 7.5 2.8s2.6 4.6 2.6 8.1v15h-6.9v-14.2c0-1.9-.3-3.4-.9-4.3s-1.8-1.4-3.4-1.4-2.8.5-3.7 1.5-1.3 2.4-1.3 4.2v14.2h-6.9v-25.4h5.2c.3 0 .5.1.7.3s.3.4.3.7v1.9c1.8-2.3 4-3.4 6.8-3.4zm46.6-8h6.9v33.9h-5.2c-.3 0-.5-.1-.7-.3s-.3-.4-.3-.7v-2.2c-2.1 2.4-4.8 3.6-7.9 3.6-3.5 0-6.3-1.2-8.4-3.6S56 171 56 167c0-4.2 1-7.4 3.1-9.7s5-3.5 8.7-3.5c2.7 0 5 .8 6.8 2.3v-10.2zm-5.9 28.4c1.8 0 3.3-.6 4.3-1.9s1.6-2.9 1.6-5.1v-.5c0-2.1-.5-3.8-1.6-5.1s-2.5-1.9-4.3-1.9-3.2.7-4.3 2-1.5 3.1-1.5 5.2.5 3.9 1.6 5.2 2.4 2.1 4.2 2.1z"/><use xlink:href="#G"/><path d="M111.3 145h5.4v4.4c0 .5-.2.9-.5 1.3s-.8.5-1.3.5h-3.1c-.7 0-1.2.2-1.6.7a2.52 2.52 0 0 0-.6 1.7v.8h4.7v6h-4.7v19.4h-6.9v-19.4h-1.5c-.5 0-.9-.2-1.3-.5s-.5-.8-.5-1.3v-4.2h3.3v-.8c0-2.7.8-4.8 2.3-6.3s3.6-2.3 6.3-2.3zm18.5 0h5.4v4.4c0 .5-.2.9-.5 1.3s-.8.5-1.3.5h-3.1c-.7 0-1.2.2-1.6.7a2.52 2.52 0 0 0-.6 1.7v.8h4.7v6h-4.7v19.4h-6.9v-19.4h-1.5c-.5 0-.9-.2-1.3-.5s-.5-.8-.5-1.3v-4.2h3.3v-.8c0-2.7.8-4.8 2.3-6.3s3.7-2.3 6.3-2.3z"/><use xlink:href="#G" x="50.8"/><path d="M163.4 180.4c-3.9 0-7-1.2-9.3-3.6s-3.4-5.6-3.4-9.5c0-4.1 1.1-7.3 3.4-9.7s5.4-3.6 9.3-3.6c3.1 0 5.6.8 7.8 2.3s3.5 3.8 4.2 6.7l-5.3 1c-1 .2-1.7-.1-2.1-.9-.8-2.1-2.4-3.1-4.6-3.1-1.9 0-3.3.7-4.4 2s-1.5 3.1-1.5 5.3c0 2.1.5 3.8 1.5 5.1s2.5 2 4.3 2c1.3 0 2.3-.3 3-.8s1.3-1.4 1.7-2.5a1.96 1.96 0 0 1 .9-.9c.4-.2.8-.2 1.3-.1l5.2 1c-.6 3.1-2 5.4-4.2 7s-4.6 2.3-7.8 2.3z"/><use xlink:href="#D" x="84.8" y="96"/><path d="M216.6 179.9c-2.6 0-4.7-.7-6.2-2.2s-2.2-3.5-2.2-6.2v-25.6h6.9v25.6c0 .6.2 1.1.6 1.5s.9.6 1.5.6h1.3c.5 0 .9.2 1.3.5s.5.8.5 1.3v4.6h-3.7zm23.4-19.5h-7.4v10.3c0 .8.2 1.5.8 2.1s1.2.8 2 .8h2.9c.5 0 1 .2 1.3.5s.5.8.5 1.3v4.6h-5.2c-2.8 0-5-.8-6.6-2.4s-2.4-3.9-2.4-6.8v-10.3h-2.2c-.5 0-1-.2-1.3-.5s-.5-.8-.5-1.3v-4.2h4V146h6.9v8.5h7.4v5.9zm27.1 12.9c.3.3.5.9.5 1.7v4.9h-.6c-3 0-5.1-1-6.4-2.9-2.1 2.2-5.1 3.3-9 3.3-2.5 0-4.5-.7-6-2s-2.2-3.2-2.2-5.5c0-2.2.7-4 2.1-5.5s3.6-2.4 6.5-2.8c3.7-.4 6.1-1 7.4-1.7v-.1c0-.8-.4-1.5-1.2-2s-1.7-.8-2.9-.8c-.6 0-1.2 0-1.7.1s-1 .2-1.5.4l-1 .4c-.2.1-.5.3-1 .6l-.7.4c-.6.3-1.1.4-1.7.3s-1-.4-1.3-.8l-2.1-2.9c.3-.4.8-.9 1.3-1.3s1.3-.9 2.2-1.4 1.9-.9 3.1-1.3 2.5-.5 3.8-.5c3.7 0 6.6.9 8.5 2.6s2.9 4.3 2.9 7.7v7.2c.1.9.4 1.5 1 1.9h0zm-14.6 1.3c.7 0 1.4 0 2-.1s1.2-.3 1.8-.5 1.2-.6 1.6-1 .8-1 1.1-1.7.4-1.5.4-2.4v-.7c-1.3 1.1-3.3 1.6-5.9 1.7-1.2.1-2.1.4-2.7.8s-.9 1-.9 1.8c0 .7.2 1.2.7 1.6s1.1.5 1.9.5zM154.9 6.2h-1.5c-1.3 0-2.5-.2-3.4-.6s-1.9-1.1-2.7-1.9L144.5.9c-.2-.2-.2-.4-.2-.6s.3-.3.5-.3h3.1c.9 0 1.6.2 2.3.5s1.2.7 1.5 1.1l3.2 4.6z"/><use xlink:href="#H"/><use xlink:href="#H" x="-85" y="47.8"/></g><defs ><path id="B" d="M346.3 29.3c.3.3.5.9.5 1.7v4.9h-.7c-3 0-5.1-1-6.4-2.9-2.1 2.2-5.1 3.3-9 3.3-2.5 0-4.5-.7-6-2s-2.2-3.2-2.2-5.5c0-2.2.7-4 2.1-5.5s3.6-2.4 6.5-2.8c3.7-.4 6.1-1 7.4-1.7v-.1c0-.8-.4-1.5-1.2-2s-1.7-.8-2.9-.8c-.6 0-1.2 0-1.7.1s-1 .2-1.5.4l-1 .4c-.2.1-.5.3-1 .6l-.7.4c-.6.3-1.1.4-1.7.3s-1-.4-1.3-.8l-2.1-2.9c.3-.4.8-.9 1.3-1.3s1.3-.9 2.2-1.4 1.9-.9 3.1-1.3 2.5-.5 3.8-.5c3.7 0 6.6.9 8.5 2.6s2.9 4.3 2.9 7.7v7.2c.1.9.4 1.5 1.1 1.9h0zm-14.7 1.3c.7 0 1.4 0 2-.1s1.2-.3 1.8-.5 1.2-.6 1.6-1 .8-1 1.1-1.7.4-1.5.4-2.4v-.7c-1.3 1.1-3.3 1.6-5.9 1.7-1.2.1-2.1.4-2.7.8s-.9 1-.9 1.8c0 .7.2 1.2.7 1.6s1.1.5 1.9.5z"/><path id="C" d="M81.6 58.4h6.9v25.4h-5.2c-.3 0-.5-.1-.7-.3s-.3-.4-.3-.7V81c-1.8 2.2-4.1 3.3-6.8 3.3-3.3 0-5.8-.9-7.5-2.6s-2.5-4.4-2.5-7.9V58.4h6.9v14.2c0 1.9.3 3.4.9 4.3s1.8 1.4 3.4 1.4 2.8-.5 3.7-1.5 1.3-2.4 1.3-4.2V58.4z"/><path id="D" d="M115.3 80.8c-2.3 2.4-5.4 3.6-9.3 3.6s-7-1.2-9.3-3.6-3.5-5.6-3.5-9.7 1.2-7.3 3.5-9.7 5.4-3.6 9.3-3.6 7 1.2 9.3 3.6 3.5 5.6 3.5 9.7c-.1 4.1-1.2 7.3-3.5 9.7zm-13.7-4.4c1 1.3 2.5 2 4.3 2s3.3-.7 4.3-2 1.5-3.1 1.5-5.2-.5-3.9-1.5-5.2-2.5-2-4.3-2-3.3.7-4.3 2-1.5 3.1-1.5 5.2.5 3.8 1.5 5.2z"/><path id="E" d="M288.3 77.3c.3.3.5.9.5 1.7v4.9h-.7c-3 0-5.1-1-6.4-2.9-2.1 2.2-5.1 3.3-9 3.3-2.5 0-4.5-.7-6-2s-2.2-3.2-2.2-5.5c0-2.2.7-4 2.1-5.5s3.6-2.4 6.5-2.8c3.7-.4 6.1-1 7.4-1.7v-.1c0-.8-.4-1.5-1.2-2s-1.7-.8-2.9-.8c-.6 0-1.2 0-1.7.1s-1 .2-1.5.4l-1 .4c-.2.1-.5.3-1 .6l-.7.4c-.6.3-1.1.4-1.7.3s-1-.4-1.3-.8l-2.1-2.9c.3-.4.8-.9 1.3-1.3s1.3-.9 2.2-1.4 1.9-.9 3.1-1.3 2.5-.5 3.8-.5c3.7 0 6.6.9 8.5 2.6s2.9 4.3 2.9 7.7v7.2c.1.9.5 1.5 1.1 1.9h0zm-14.6 1.3c.7 0 1.4 0 2-.1s1.2-.3 1.8-.5 1.2-.6 1.6-1 .8-1 1.1-1.7.4-1.5.4-2.4v-.7c-1.3 1.1-3.3 1.6-5.9 1.7-1.2.1-2.1.4-2.7.8s-.9 1-.9 1.8c0 .7.2 1.2.7 1.6s1 .5 1.9.5z"/><path id="F" d="M256.7 105.9c3.5 0 6.3 1.2 8.3 3.6s3.1 5.6 3.1 9.6c0 4.2-1 7.4-3.1 9.7s-5 3.5-8.8 3.5c-2.7 0-5-.8-6.7-2.2v10.2h-6.9v-33.9h5.2c.3 0 .5.1.7.3s.3.4.3.7v2.2c2.1-2.5 4.7-3.7 7.9-3.7zm-1.3 20.4c1.8 0 3.2-.7 4.3-2s1.6-3.1 1.6-5.2-.5-3.9-1.5-5.2-2.4-2-4.3-2-3.3.6-4.3 1.8-1.6 2.9-1.7 5v.5c0 2.2.5 3.9 1.6 5.2s2.4 1.9 4.3 1.9z"/><path id="G" d="M91.7 151.7c-1.1 0-2-.3-2.7-1s-1-1.6-1-2.7.3-2 1-2.7a3.69 3.69 0 0 1 2.7-1.1 3.69 3.69 0 0 1 3.8 3.8 3.69 3.69 0 0 1-1.1 2.7c-.7.7-1.6 1-2.7 1zm-3.4 28.1v-25.4h6.9v25.4h-6.9z"/><path id="H" d="M344.9 103.3h-1.5c-1.3 0-2.5-.2-3.4-.6s-1.9-1.1-2.7-1.9l-2.8-2.8c-.2-.2-.2-.4-.2-.6s.3-.3.5-.3h3.1c.9 0 1.6.2 2.3.5s1.2.7 1.5 1.1l3.2 4.6z"/></defs></svg>