<?xml version="1.0" encoding="utf-8"?>
<!-- Generator: Adobe Illustrator 24.0.0, SVG Export Plug-In . SVG Version: 6.00 Build 0)  -->
<svg version="1.1" id="Laag_1" xmlns="http://www.w3.org/2000/svg" xmlns:xlink="http://www.w3.org/1999/xlink" x="0px" y="0px"
	 width="77px" height="37.5px" viewBox="0 0 77 37.5" style="enable-background:new 0 0 77 37.5;" xml:space="preserve">
<style type="text/css">
	.st0{fill:#FFFFFF;}
</style>
<path class="st0" d="M8.2,8.4c-2.5,0-3.6-1.5-3.6-4.1C4.6,1.4,5.9,0,8.4,0C10.8,0,12,1.4,12,4C12,6.9,10.7,8.4,8.2,8.4z M8.3,1.1
	C6.8,1.1,6,2,6,4.1c0,2.5,0.9,3.2,2.3,3.2s2.3-0.8,2.3-3.1C10.6,2.1,10,1.1,8.3,1.1z"/>
<path class="st0" d="M12.8,11.2v-1h0.9V3.5l-0.9,0.2v-1L14.9,2v1.1c0.4-0.6,1.2-1,2.2-1c1.3,0,2.2,1,2.2,3c0,2.3-0.9,3.3-2.6,3.3
	c-0.6,0-1.4-0.2-1.7-0.7v2.5h1v1H12.8z M15,6.9c0.2,0.3,0.8,0.5,1.3,0.5c1.1,0,1.5-0.6,1.5-2.1s-0.4-2-1.4-2c-0.6,0-1.1,0.2-1.3,0.5
	c0,0-0.1,0.1-0.1,0.2c0,0.1-0.1,0.3-0.1,0.5v1.7C14.9,6.5,15,6.7,15,6.9z"/>
<path class="st0" d="M23,8.4c-1.9,0-2.8-1.2-2.8-3.1c0-2.2,1.2-3.3,2.9-3.3c2.1,0,2.4,1.3,2.4,2.8c0,0.1,0,0.4,0,0.7h-4
	c0,0.1,0,0.2,0,0.4c0.1,1,0.8,1.3,1.7,1.3c0.7,0,1.3-0.2,1.9-0.5l0.4,0.9C24.8,8.2,24,8.4,23,8.4z M24.3,4.3C24.3,3.6,24,3,23.1,3
	c-1,0-1.5,0.6-1.6,1.6h2.8C24.3,4.5,24.3,4.4,24.3,4.3z"/>
<path class="st0" d="M26.4,8.3v-1h0.9V3.5l-0.9,0.2v-1L28.5,2v1.1c0.5-0.6,1.5-1,2.4-1s1.2,0.4,1.3,1.1c0,0.3,0,0.8,0,1.4v2.7h0.9v1
	h-3v-1H31V4.6c0-0.5,0-0.9-0.1-1c-0.1-0.2-0.3-0.3-0.7-0.3c-0.4,0-1,0.2-1.3,0.4c-0.1,0.1-0.3,0.2-0.3,0.3c-0.1,0.1-0.1,0.4-0.1,0.6
	v2.7h0.9v1H26.4z"/>
<path class="st0" d="M0,21.3v-1h1v-6.1H0v-1h2.7c1.5,3.4,1.9,4.3,2.2,5c0.3-0.7,0.7-1.7,2.1-5h2.7v1h-1v6.1h1v1H6.5v-1h1
	c0-3.7,0-4.4,0-5.6c-0.3,0.7-0.5,1.4-2.2,5.1H4.4c-1.5-3.4-1.9-4.3-2.2-5.1c0,1.3,0,2.1,0,5.6h1v1H0z"/>
<path class="st0" d="M13.4,21.4c-2,0-2.9-1.1-2.9-3.1c0-2.1,1-3.2,3-3.2c1.9,0,2.8,1,2.8,3C16.3,20.2,15.4,21.4,13.4,21.4z
	 M13.4,16.1c-1.2,0-1.7,0.7-1.7,2.1c0,1.8,0.6,2.2,1.6,2.2c0.9,0,1.6-0.5,1.6-2.1C15,16.8,14.7,16.1,13.4,16.1z"/>
<path class="st0" d="M17.2,21.3v-1H18v-3.8l-0.9,0.2v-1l2.1-0.6v1.1c0.5-0.6,1.5-1,2.4-1s1.2,0.4,1.3,1.1c0,0.3,0,0.8,0,1.4v2.7h0.9
	v1h-3v-1h0.8v-2.7c0-0.5,0-0.9-0.1-1c-0.1-0.2-0.3-0.3-0.7-0.3c-0.4,0-1,0.2-1.3,0.4c-0.1,0.1-0.3,0.2-0.3,0.3
	c-0.1,0.1-0.1,0.4-0.1,0.6v2.7H20v1h-2.8V21.3z"/>
<path class="st0" d="M29.1,21.3v-0.9c-0.6,0.8-1.3,1-2.1,1c-1,0-1.4-0.4-1.5-1.1c-0.1-0.3-0.1-0.8-0.1-1.4v-2.5l-0.9,0.2v-1l2.1-0.6
	v3.9c0,0.5,0,0.9,0.1,1.1s0.4,0.3,0.8,0.3c0.6,0,1.3-0.3,1.5-0.7c0.1-0.1,0.1-0.3,0.1-0.6v-2.6l-0.9,0.2v-1l2.1-0.6v5.2h0.9v1h-2.1
	V21.3z"/>
<path class="st0" d="M31.9,21.3v-1h0.9v-3.8l-0.9,0.2v-1L34,15v1.1c0.4-0.6,1.5-1.1,2.3-1.1c0.9,0,1.2,0.4,1.3,1.1
	c0.4-0.6,1.5-1.1,2.3-1.1c0.9,0,1.2,0.4,1.3,1.1c0,0.3,0,0.7,0,1.3v2.8h0.9v1h-3v-1H40v-2.7c0-0.5,0-0.9-0.1-1
	c-0.1-0.3-0.4-0.3-0.7-0.3c-0.4,0-0.9,0.2-1.2,0.4c-0.1,0.1-0.2,0.2-0.3,0.3s-0.1,0.3-0.1,0.6v2.8h0.9v1h-2.9v-1h0.8v-2.7
	c0-0.5,0-0.9-0.1-1c-0.1-0.2-0.4-0.3-0.7-0.3c-0.4,0-0.9,0.2-1.2,0.4c-0.1,0.1-0.3,0.2-0.3,0.3C34,17.1,34,17.3,34,17.6v2.7h0.9v1
	C34.9,21.3,31.9,21.3,31.9,21.3z"/>
<path class="st0" d="M45.6,21.4c-1.9,0-2.8-1.2-2.8-3.1c0-2.2,1.2-3.3,2.9-3.3c2.1,0,2.4,1.3,2.4,2.8c0,0.1,0,0.4,0,0.7h-4
	c0,0.1,0,0.2,0,0.4c0.1,1,0.8,1.3,1.7,1.3c0.7,0,1.3-0.2,1.9-0.5l0.4,0.9C47.4,21.2,46.6,21.4,45.6,21.4z M47,17.3
	c0-0.7-0.3-1.3-1.2-1.3c-1,0-1.5,0.6-1.6,1.6H47C47,17.5,47,17.4,47,17.3z"/>
<path class="st0" d="M49,21.3v-1h0.9v-3.8L49,16.7v-1l2.1-0.6v1.1c0.5-0.6,1.5-1,2.4-1s1.2,0.4,1.3,1.1c0,0.3,0,0.8,0,1.4v2.7h0.9v1
	h-3v-1h0.8v-2.7c0-0.5,0-0.9-0.1-1c-0.1-0.2-0.3-0.3-0.7-0.3s-1,0.2-1.3,0.4c-0.1,0.1-0.3,0.2-0.3,0.3C51,17.2,51,17.5,51,17.7v2.7
	h1v1h-3V21.3z"/>
<path class="st0" d="M58.6,21.4c-0.6,0-0.9-0.2-1.2-0.5c-0.2-0.3-0.3-0.8-0.3-1.6v-3.1h-0.9v-1h0.9v-1.4l1.2-0.3v1.7h1.2v1h-1.2v3
	c0,0.4,0,0.7,0.1,0.9c0.1,0.2,0.3,0.2,0.6,0.2c0.2,0,0.5,0,0.8-0.1l0.2,0.9C59.6,21.3,59.2,21.4,58.6,21.4z"/>
<path class="st0" d="M63.2,21.4c-1.9,0-2.8-1.2-2.8-3.1c0-2.2,1.2-3.3,2.9-3.3c2.1,0,2.4,1.3,2.4,2.8c0,0.1,0,0.4,0,0.7h-4
	c0,0.1,0,0.2,0,0.4c0.1,1,0.8,1.3,1.7,1.3c0.7,0,1.3-0.2,1.9-0.5l0.4,0.9C65,21.2,64.2,21.4,63.2,21.4z M64.6,17.3
	c0-0.7-0.3-1.3-1.2-1.3c-1,0-1.5,0.6-1.6,1.6h2.8C64.6,17.5,64.6,17.4,64.6,17.3z"/>
<path class="st0" d="M66.6,21.3v-1h0.9v-3.8l-0.9,0.2v-1l2.1-0.6v1.1c0.5-0.6,1.5-1,2.4-1s1.2,0.4,1.3,1.1c0,0.3,0,0.8,0,1.4v2.7
	h0.9v1h-3v-1h0.8v-2.7c0-0.5,0-0.9-0.1-1c-0.1-0.2-0.3-0.3-0.7-0.3c-0.4,0-1,0.2-1.3,0.4c-0.1,0.1-0.3,0.2-0.3,0.3
	c-0.1,0.1-0.1,0.4-0.1,0.6v2.7h0.9v1h-2.9V21.3z"/>
<path class="st0" d="M74.2,18.5v-1H77v1H74.2z"/>
<path class="st0" d="M9,34.3v-0.9c-0.3,0.6-0.9,1.1-2,1.1c-1.5,0-2.4-1.1-2.4-3c0-2.3,1.1-3.3,2.8-3.3c0.6,0,1.3,0.2,1.5,0.6v-2
	L8,27v-1l2.1-0.6v7.9H11v1H9z M8.9,30.3c0-0.3,0-0.5-0.1-0.7c-0.2-0.3-0.6-0.5-1.2-0.5c-1.1,0-1.7,0.6-1.7,2.2c0,1.5,0.5,2,1.5,2
	c0.5,0,1-0.2,1.2-0.5c0.1-0.1,0.2-0.3,0.2-0.4c0.1-0.1,0.1-0.4,0.1-0.6V30.3z"/>
<path class="st0" d="M15.7,34.3v-0.8c-0.4,0.6-1,1-1.9,1c-1.3,0-1.9-0.9-1.9-1.8c0-0.9,0.4-1.3,1.2-1.5c0.7-0.2,1.7-0.2,2.6-0.2
	v-0.8c0-0.4,0-0.6-0.2-0.7s-0.4-0.2-0.8-0.2c-0.4,0-0.9,0.1-1.2,0.3l-0.1,0.9h-1v-1.6c0.8-0.4,1.9-0.6,2.6-0.6
	c0.8,0,1.3,0.1,1.6,0.6c0.2,0.3,0.2,0.7,0.2,1.5v3h0.9v1L15.7,34.3L15.7,34.3z M13.6,31.9C13.2,32,13,32.2,13,32.5
	c0,0.6,0.4,0.9,1.1,0.9c0.4,0,1-0.1,1.2-0.4c0.1-0.1,0.2-0.3,0.3-0.4c0-0.1,0-0.3,0-0.5v-0.4C14.8,31.7,14.1,31.7,13.6,31.9z"/>
<path class="st0" d="M18.8,33.3c0-0.4,0.2-0.9,0.7-1.2c-0.6-0.3-0.9-1-0.9-1.7c0-1.2,0.8-2.2,2.6-2.2c0.6,0,0.9,0,1.2,0.2h1.8v1
	h-0.9c0.2,0.2,0.3,0.5,0.3,1c0,1.4-1,2.1-2.5,2.1c-0.3,0-0.8,0-1-0.1c-0.2,0.1-0.3,0.3-0.3,0.5s0.1,0.3,0.3,0.4
	c0.3,0.1,0.8,0.1,1.3,0.2c0.7,0.1,1.3,0.1,1.8,0.3c0.6,0.2,1,0.7,1,1.5c0,1.3-1.2,2.2-3.2,2.2c-2.1,0-2.8-0.8-2.8-1.7
	c0-0.6,0.3-1.1,1.3-1.5C19.1,34.1,18.8,33.7,18.8,33.3z M22.4,34.7c-0.3-0.1-1.3-0.2-1.8-0.2c-0.2,0-0.3,0-0.4,0.1
	c-0.4,0.2-0.7,0.5-0.7,0.9s0.4,0.9,1.7,0.9c1.2,0,1.7-0.4,1.7-1C22.9,35,22.7,34.8,22.4,34.7z M21.1,29.1c-0.9,0-1.3,0.5-1.3,1.2
	c0,0.9,0.5,1.2,1.3,1.2s1.3-0.3,1.3-1.2C22.4,29.5,22.1,29.1,21.1,29.1z"/>
</svg>
