<?xml version="1.0" encoding="utf-8"?>
<!-- Generator: Adobe Illustrator 24.3.0, SVG Export Plug-In . SVG Version: 6.00 Build 0)  -->
<svg version="1.1" id="Laag_1" xmlns="http://www.w3.org/2000/svg" xmlns:xlink="http://www.w3.org/1999/xlink" x="0px" y="0px"
	 width="316.9px" height="151.7px" viewBox="0 0 316.9 151.7" style="enable-background:new 0 0 316.9 151.7;" xml:space="preserve"
	>
<style type="text/css">
	.st0{fill:#000000;}
	.st1{fill:#E20613;}
</style>
<g>
	<g>
		<path class="st0" d="M19.6,22.8c0,1.3-0.2,2.4-0.7,3.5c-0.5,1.1-1.1,2.1-2,2.9c-0.8,0.8-1.8,1.5-2.9,2c-1.1,0.5-2.3,0.7-3.5,0.7
			c-1.3,0-2.4-0.2-3.5-0.7c-1.1-0.5-2.1-1.1-2.9-2s-1.5-1.8-1.9-2.9c-0.5-1.1-0.7-2.3-0.7-3.5V9.1c0-1.3,0.2-2.4,0.7-3.5
			s1.1-2.1,2-2.9c0.8-0.8,1.8-1.5,2.9-2C8.1,0.2,9.3,0,10.5,0s2.4,0.2,3.5,0.7c1.1,0.5,2.1,1.1,2.9,2c0.8,0.8,1.5,1.8,1.9,2.9
			s0.7,2.3,0.7,3.5V22.8z M13.7,9.1c0-0.9-0.3-1.6-0.9-2.3c-0.6-0.6-1.4-1-2.3-1c-0.9,0-1.7,0.3-2.3,0.9C7.6,7.4,7.3,8.2,7.3,9.1
			v13.7c0,0.9,0.3,1.7,0.9,2.3c0.6,0.6,1.4,0.9,2.3,0.9c0.9,0,1.6-0.3,2.3-0.9s1-1.4,1-2.3V9.1z"/>
		<path class="st0" d="M43.7,23c0,1.3-0.2,2.4-0.7,3.5c-0.5,1.1-1.1,2-1.9,2.8c-0.8,0.8-1.8,1.5-2.9,1.9c-1.1,0.5-2.3,0.7-3.5,0.7
			h-1.3c-1.3,0-2.4-0.2-3.5-0.7c-1.1-0.5-2-1.1-2.9-1.9c-0.8-0.8-1.5-1.8-1.9-2.8c-0.5-1.1-0.7-2.2-0.7-3.5c0-0.7,0.1-1.4,0.3-2.1
			s0.5-1.4,0.8-2.1c0.3-0.7,0.8-1.3,1.3-1.8c0.5-0.5,1.1-0.9,1.7-1.2c-0.6-0.3-1.1-0.7-1.5-1.2c-0.5-0.5-0.8-1.1-1.2-1.7
			c-0.3-0.6-0.6-1.3-0.8-1.9c-0.2-0.7-0.3-1.3-0.3-1.9c0-1.2,0.2-2.4,0.7-3.5c0.5-1.1,1.1-2,1.9-2.9s1.8-1.5,2.9-1.9
			C31.3,0.2,32.5,0,33.7,0h0.7c1.2,0,2.4,0.2,3.5,0.7c1.1,0.5,2,1.1,2.9,1.9c0.8,0.8,1.5,1.8,1.9,2.9c0.5,1.1,0.7,2.3,0.7,3.5
			c0,0.6-0.1,1.2-0.3,1.9c-0.2,0.7-0.4,1.3-0.8,1.9c-0.3,0.6-0.7,1.2-1.2,1.7c-0.4,0.5-1,0.9-1.5,1.2c0.6,0.3,1.2,0.7,1.7,1.2
			c0.5,0.5,0.9,1.1,1.3,1.8c0.3,0.7,0.6,1.4,0.8,2.1S43.7,22.3,43.7,23z M37.9,23c0-0.4-0.1-0.8-0.2-1.3c-0.2-0.4-0.4-0.8-0.6-1.1
			c-0.3-0.3-0.6-0.6-1-0.8c-0.4-0.2-0.8-0.3-1.2-0.3h-1.6c-0.5,0-0.9,0.1-1.2,0.3c-0.4,0.2-0.7,0.5-1,0.8c-0.3,0.3-0.5,0.7-0.6,1.1
			c-0.2,0.4-0.2,0.8-0.2,1.3c0,0.9,0.3,1.6,0.9,2.2c0.6,0.6,1.3,0.9,2.2,0.9h1.6c0.8,0,1.6-0.3,2.2-0.9C37.6,24.6,37.9,23.9,37.9,23
			z M37.5,9c0-0.9-0.3-1.6-0.9-2.2c-0.6-0.6-1.3-0.9-2.2-0.9h-0.7c-0.9,0-1.6,0.3-2.2,0.9c-0.6,0.6-0.9,1.3-0.9,2.2
			c0,0.4,0.1,0.8,0.2,1.3c0.1,0.4,0.4,0.8,0.6,1.1c0.3,0.3,0.6,0.6,1,0.8c0.4,0.2,0.8,0.3,1.2,0.3h0.7c0.5,0,0.9-0.1,1.2-0.3
			c0.4-0.2,0.7-0.5,1-0.8c0.3-0.3,0.5-0.7,0.6-1.1C37.4,9.8,37.5,9.4,37.5,9z"/>
		<path class="st0" d="M77.8,22.8c0,1.3-0.2,2.4-0.7,3.5c-0.5,1.1-1.1,2.1-2,2.9c-0.8,0.8-1.8,1.5-2.9,2c-1.1,0.5-2.3,0.7-3.5,0.7
			c-1.3,0-2.4-0.2-3.5-0.7c-1.1-0.5-2.1-1.1-2.9-2s-1.5-1.8-1.9-2.9c-0.5-1.1-0.7-2.3-0.7-3.5V9.1c0-1.3,0.2-2.4,0.7-3.5
			s1.1-2.1,2-2.9c0.8-0.8,1.8-1.5,2.9-2C66.3,0.2,67.5,0,68.7,0s2.4,0.2,3.5,0.7c1.1,0.5,2.1,1.1,2.9,2c0.8,0.8,1.5,1.8,1.9,2.9
			s0.7,2.3,0.7,3.5V22.8z M71.9,9.1c0-0.9-0.3-1.6-0.9-2.3c-0.6-0.6-1.4-1-2.3-1c-0.9,0-1.7,0.3-2.3,0.9c-0.6,0.6-0.9,1.4-0.9,2.3
			v13.7c0,0.9,0.3,1.7,0.9,2.3c0.6,0.6,1.4,0.9,2.3,0.9c0.9,0,1.6-0.3,2.3-0.9s1-1.4,1-2.3V9.1z"/>
		<path class="st0" d="M103,31h-6.7l-7.1-13.7H89V31h-5.9V1H89v12.2h0.2L95.3,1h6.6l-7.2,14.3L103,31z"/>
		<path class="st0" d="M120.8,6.9h-5.8V31h-5.9V6.9h-5.8V1h17.4V6.9z"/>
	</g>
	<g>
		<path class="st1" d="M127,31h-4.9l10-22.4h4.9L127,31z"/>
		<path class="st1" d="M162.5,14.7c0,2.2-0.6,3.9-1.8,5.2c-1.2,1.3-2.9,2.2-4.9,2.6c-0.5,0.1-0.9,0.2-1.2,0.4
			c-0.4,0.2-0.6,0.3-0.9,0.6c-0.2,0.2-0.4,0.5-0.5,0.9c-0.1,0.4-0.2,0.8-0.2,1.3v0.8h9.2V31h-13.7v-5c0-1.7,0.4-3.1,1.2-4.3
			s2-2.1,3.5-2.7c0.4-0.2,0.8-0.3,1.2-0.4c0.4-0.1,0.8-0.2,1.2-0.3c0.9-0.2,1.6-0.6,2-1.2c0.4-0.6,0.6-1.4,0.6-2.4
			c0-0.7-0.2-1.2-0.7-1.7c-0.5-0.5-1-0.7-1.7-0.7s-1.2,0.2-1.7,0.7c-0.5,0.5-0.7,1-0.7,1.7v1.3h-4.4v-1.3c0-0.9,0.2-1.8,0.5-2.7
			c0.3-0.8,0.8-1.6,1.5-2.2c0.6-0.6,1.3-1.1,2.2-1.5c0.8-0.4,1.7-0.5,2.6-0.5s1.8,0.2,2.7,0.6c0.8,0.4,1.6,0.9,2.2,1.5
			c0.6,0.6,1.1,1.4,1.5,2.2C162.4,12.9,162.5,13.8,162.5,14.7z"/>
		<path class="st1" d="M180.1,24.8c0,0.9-0.2,1.8-0.5,2.7c-0.4,0.8-0.9,1.6-1.5,2.2c-0.6,0.6-1.3,1.1-2.2,1.5
			c-0.8,0.4-1.7,0.5-2.7,0.5c-0.9,0-1.8-0.2-2.7-0.5c-0.8-0.4-1.6-0.8-2.2-1.5c-0.6-0.6-1.1-1.3-1.5-2.2c-0.4-0.8-0.5-1.7-0.5-2.7
			V14.6c0-0.9,0.2-1.8,0.5-2.7c0.4-0.8,0.8-1.6,1.5-2.2c0.6-0.6,1.3-1.1,2.2-1.5c0.8-0.4,1.7-0.5,2.7-0.5s1.8,0.2,2.7,0.5
			c0.8,0.4,1.5,0.8,2.2,1.5s1.1,1.3,1.5,2.2c0.4,0.8,0.5,1.7,0.5,2.7V24.8z M175.7,14.6c0-0.7-0.2-1.2-0.7-1.7
			c-0.5-0.5-1-0.7-1.7-0.7c-0.7,0-1.3,0.2-1.7,0.7c-0.5,0.5-0.7,1-0.7,1.7v10.3c0,0.7,0.2,1.3,0.7,1.7c0.5,0.5,1,0.7,1.7,0.7
			c0.7,0,1.2-0.2,1.7-0.7s0.7-1,0.7-1.7V14.6z"/>
		<path class="st1" d="M188.5,29.1c0,0.8-0.3,1.5-0.8,2c-0.6,0.6-1.2,0.8-2,0.8c-0.8,0-1.5-0.3-2-0.8c-0.6-0.6-0.8-1.2-0.8-2
			s0.3-1.5,0.8-2c0.5-0.6,1.2-0.8,2-0.8c0.8,0,1.5,0.3,2,0.8C188.2,27.7,188.5,28.3,188.5,29.1z"/>
		<path class="st1" d="M205.5,24.8c0,0.9-0.2,1.8-0.5,2.7c-0.4,0.8-0.9,1.6-1.5,2.2c-0.6,0.6-1.3,1.1-2.2,1.5
			c-0.8,0.4-1.7,0.5-2.7,0.5c-0.9,0-1.8-0.2-2.7-0.5c-0.8-0.4-1.6-0.8-2.2-1.5c-0.6-0.6-1.1-1.3-1.5-2.2c-0.4-0.8-0.5-1.7-0.5-2.7
			V14.6c0-0.9,0.2-1.8,0.5-2.7c0.4-0.8,0.8-1.6,1.5-2.2c0.6-0.6,1.3-1.1,2.2-1.5c0.8-0.4,1.7-0.5,2.7-0.5s1.8,0.2,2.7,0.5
			c0.8,0.4,1.5,0.8,2.2,1.5s1.1,1.3,1.5,2.2c0.4,0.8,0.5,1.7,0.5,2.7V24.8z M201,14.6c0-0.7-0.2-1.2-0.7-1.7c-0.5-0.5-1-0.7-1.7-0.7
			c-0.7,0-1.3,0.2-1.7,0.7c-0.5,0.5-0.7,1-0.7,1.7v10.3c0,0.7,0.2,1.3,0.7,1.7c0.5,0.5,1,0.7,1.7,0.7c0.7,0,1.2-0.2,1.7-0.7
			s0.7-1,0.7-1.7V14.6z"/>
		<path class="st1" d="M223.1,24.8c0,0.9-0.2,1.8-0.5,2.7c-0.4,0.8-0.9,1.6-1.5,2.2c-0.6,0.6-1.3,1.1-2.2,1.5
			c-0.8,0.4-1.7,0.5-2.7,0.5c-0.9,0-1.8-0.2-2.7-0.5c-0.8-0.4-1.6-0.8-2.2-1.5c-0.6-0.6-1.1-1.3-1.5-2.2c-0.4-0.8-0.5-1.7-0.5-2.7
			V14.6c0-0.9,0.2-1.8,0.5-2.7c0.4-0.8,0.8-1.6,1.5-2.2c0.6-0.6,1.3-1.1,2.2-1.5c0.8-0.4,1.7-0.5,2.7-0.5s1.8,0.2,2.7,0.5
			c0.8,0.4,1.5,0.8,2.2,1.5s1.1,1.3,1.5,2.2c0.4,0.8,0.5,1.7,0.5,2.7V24.8z M218.7,14.6c0-0.7-0.2-1.2-0.7-1.7
			c-0.5-0.5-1-0.7-1.7-0.7c-0.7,0-1.3,0.2-1.7,0.7c-0.5,0.5-0.7,1-0.7,1.7v10.3c0,0.7,0.2,1.3,0.7,1.7c0.5,0.5,1,0.7,1.7,0.7
			c0.7,0,1.2-0.2,1.7-0.7s0.7-1,0.7-1.7V14.6z"/>
		<path class="st1" d="M249.1,24.8c0,0.9-0.2,1.8-0.5,2.7c-0.4,0.8-0.9,1.6-1.5,2.2c-0.6,0.6-1.3,1.1-2.2,1.5
			c-0.8,0.4-1.7,0.5-2.7,0.5c-0.9,0-1.8-0.2-2.7-0.5c-0.8-0.4-1.6-0.8-2.2-1.5c-0.6-0.6-1.1-1.3-1.5-2.2c-0.4-0.8-0.5-1.7-0.5-2.7
			V8.5h4.4v16.4c0,0.7,0.2,1.2,0.7,1.7c0.5,0.5,1,0.7,1.7,0.7c0.7,0,1.3-0.2,1.7-0.7c0.5-0.5,0.7-1,0.7-1.7V8.5h4.4V24.8z"/>
		<path class="st1" d="M266.7,24.8c0,0.9-0.2,1.8-0.5,2.7c-0.4,0.8-0.9,1.6-1.5,2.2c-0.6,0.6-1.3,1.1-2.2,1.5
			c-0.8,0.4-1.7,0.5-2.7,0.5c-0.9,0-1.8-0.2-2.7-0.5c-0.8-0.4-1.6-0.8-2.2-1.5s-1.1-1.3-1.5-2.2c-0.4-0.8-0.5-1.7-0.5-2.7V8.5h4.4
			v16.4c0,0.7,0.2,1.2,0.7,1.7s1,0.7,1.7,0.7c0.7,0,1.3-0.2,1.7-0.7s0.7-1,0.7-1.7V8.5h4.4V24.8z"/>
		<path class="st1" d="M285.5,31h-4.8l-3.5-8.1h-2.1V31h-4.4V8.5h7.2c1,0,1.9,0.2,2.8,0.6c0.9,0.4,1.6,0.9,2.3,1.5
			c0.7,0.7,1.2,1.4,1.5,2.3c0.4,0.9,0.6,1.8,0.6,2.8c0,1.3-0.3,2.4-0.9,3.5c-0.6,1.1-1.5,2-2.6,2.6L285.5,31z M280.7,15.7
			c0-0.4-0.1-0.7-0.2-1.1c-0.2-0.3-0.4-0.6-0.6-0.9s-0.5-0.5-0.9-0.6c-0.3-0.2-0.7-0.2-1.1-0.2h-2.8v5.5h2.8c0.4,0,0.7-0.1,1.1-0.2
			c0.3-0.1,0.6-0.3,0.9-0.6c0.2-0.2,0.5-0.5,0.6-0.9C280.6,16.5,280.7,16.1,280.7,15.7z"/>
	</g>
	<g>
		<path class="st1" d="M4.9,67H0l10-22.4h4.9L4.9,67z"/>
	</g>
	<g>
		<path class="st0" d="M41.2,51.7c0,1-0.2,1.9-0.6,2.8c-0.4,0.9-0.9,1.6-1.5,2.3c-0.6,0.6-1.4,1.2-2.3,1.5c-0.9,0.4-1.8,0.6-2.8,0.6
			h-2.8V67h-4.4V44.5H34c1,0,1.9,0.2,2.8,0.6s1.6,0.9,2.3,1.5c0.7,0.7,1.2,1.4,1.5,2.3C41,49.8,41.2,50.7,41.2,51.7z M36.7,51.7
			c0-0.4-0.1-0.7-0.2-1.1c-0.1-0.3-0.3-0.6-0.6-0.9c-0.3-0.2-0.5-0.5-0.9-0.6c-0.3-0.2-0.7-0.2-1.1-0.2h-2.8v5.5H34
			c0.4,0,0.7-0.1,1.1-0.2c0.3-0.1,0.6-0.3,0.9-0.6c0.2-0.2,0.4-0.5,0.6-0.9C36.7,52.5,36.7,52.1,36.7,51.7z"/>
		<path class="st0" d="M43.9,67V44.5h4.7v18H55V67H43.9z"/>
		<path class="st0" d="M63.7,48.9V67h-4.4V48.9H55v-4.4h13v4.4H63.7z"/>
		<path class="st0" d="M88.3,67v-9.3h-5.5V67h-4.4V44.5h4.4v8.8h5.5v-8.8h4.4V67H88.3z"/>
		<path class="st0" d="M107.8,67H96.7V44.5h11.1v4.4h-6.4v4.6h6.4V58h-6.4v4.6h6.4V67z"/>
		<path class="st0" d="M122.1,67H111V44.5h11.1v4.4h-6.4v4.6h6.4V58h-6.4v4.6h6.4V67z"/>
		<path class="st0" d="M140.9,67h-4.8l-3.5-8.1h-2.1V67h-4.4V44.5h7.2c1,0,1.9,0.2,2.8,0.6s1.6,0.9,2.3,1.5c0.7,0.7,1.2,1.4,1.5,2.3
			c0.4,0.9,0.6,1.8,0.6,2.8c0,1.3-0.3,2.4-0.9,3.5c-0.6,1.1-1.5,2-2.6,2.6L140.9,67z M136.1,51.7c0-0.4-0.1-0.7-0.2-1.1
			c-0.1-0.3-0.4-0.6-0.6-0.9c-0.3-0.2-0.5-0.5-0.9-0.6c-0.3-0.2-0.7-0.2-1.1-0.2h-2.8v5.5h2.8c0.4,0,0.7-0.1,1.1-0.2
			c0.3-0.1,0.6-0.3,0.9-0.6c0.2-0.2,0.5-0.5,0.6-0.9C136,52.5,136.1,52.1,136.1,51.7z"/>
		<path class="st0" d="M155.5,67h-11.1V44.5h4.7v18h6.4V67z"/>
		<path class="st0" d="M168.6,67h-11.1V44.5h11.1v4.4h-6.4v4.6h6.4V58h-6.4v4.6h6.4V67z"/>
		<path class="st0" d="M187.4,67h-4.8l-5.5-14H177v14h-4.4V44.5h5.7l4.5,11.5h0.1V44.5h4.4V67z"/>
	</g>
	<g>
		<path class="st0" d="M7.6,115V91.5H5.2L8.4,85h5.1V115H7.6z"/>
		<path class="st0" d="M41.6,106.8c0,1.3-0.2,2.4-0.7,3.5c-0.5,1.1-1.1,2.1-2,2.9c-0.8,0.8-1.8,1.5-2.9,2c-1.1,0.5-2.3,0.7-3.5,0.7
			c-1.3,0-2.4-0.2-3.5-0.7c-1.1-0.5-2.1-1.1-2.9-2s-1.5-1.8-1.9-2.9c-0.5-1.1-0.7-2.3-0.7-3.5V93.1c0-1.3,0.2-2.4,0.7-3.5
			s1.1-2.1,2-2.9c0.8-0.8,1.8-1.5,2.9-2c1.1-0.5,2.3-0.7,3.5-0.7s2.4,0.2,3.5,0.7c1.1,0.5,2.1,1.1,2.9,2c0.8,0.8,1.5,1.8,1.9,2.9
			s0.7,2.3,0.7,3.5V106.8z M35.7,93.1c0-0.9-0.3-1.6-0.9-2.3c-0.6-0.6-1.4-1-2.3-1c-0.9,0-1.7,0.3-2.3,0.9c-0.6,0.6-0.9,1.4-0.9,2.3
			v13.7c0,0.9,0.3,1.7,0.9,2.3c0.6,0.6,1.4,0.9,2.3,0.9c0.9,0,1.6-0.3,2.3-0.9s1-1.4,1-2.3V93.1z"/>
		<path class="st0" d="M74.7,106.8c0,1.3-0.2,2.4-0.7,3.5c-0.5,1.1-1.1,2.1-2,2.9c-0.8,0.8-1.8,1.5-2.9,2c-1.1,0.5-2.3,0.7-3.5,0.7
			c-1.3,0-2.4-0.2-3.5-0.7c-1.1-0.5-2.1-1.1-2.9-2s-1.5-1.8-1.9-2.9c-0.5-1.1-0.7-2.3-0.7-3.5V93.1c0-1.3,0.2-2.4,0.7-3.5
			s1.1-2.1,2-2.9c0.8-0.8,1.8-1.5,2.9-2c1.1-0.5,2.3-0.7,3.5-0.7s2.4,0.2,3.5,0.7c1.1,0.5,2.1,1.1,2.9,2c0.8,0.8,1.5,1.8,1.9,2.9
			s0.7,2.3,0.7,3.5V106.8z M68.8,93.1c0-0.9-0.3-1.6-0.9-2.3c-0.6-0.6-1.4-1-2.3-1c-0.9,0-1.7,0.3-2.3,0.9c-0.6,0.6-0.9,1.4-0.9,2.3
			v13.7c0,0.9,0.3,1.7,0.9,2.3c0.6,0.6,1.4,0.9,2.3,0.9c0.9,0,1.6-0.3,2.3-0.9s1-1.4,1-2.3V93.1z"/>
		<path class="st0" d="M99.9,115h-6.7l-7.1-13.7h-0.2V115H80V85h5.9v12.2h0.2L92.1,85h6.6l-7.2,14.3L99.9,115z"/>
		<path class="st0" d="M117.7,90.9h-5.8V115h-5.9V90.9h-5.8V85h17.4V90.9z"/>
	</g>
	<g>
		<path class="st1" d="M123.8,115h-4.9l10-22.4h4.9L123.8,115z"/>
		<path class="st1" d="M150.3,115V97.3h-1.8l2.4-4.8h3.8V115H150.3z"/>
		<path class="st1" d="M177,98.6c0,1.7,0,3.4,0,5.1c0,1.7,0,3.4,0,5.1c0,0.9-0.2,1.8-0.5,2.7c-0.4,0.8-0.9,1.6-1.5,2.2
			c-0.6,0.6-1.3,1.1-2.2,1.5c-0.8,0.4-1.7,0.5-2.7,0.5c-0.9,0-1.8-0.2-2.7-0.5c-0.8-0.4-1.6-0.8-2.2-1.5c-0.6-0.6-1.1-1.3-1.5-2.2
			c-0.4-0.8-0.5-1.7-0.5-2.7h4.4c0,0.7,0.2,1.3,0.7,1.7c0.5,0.5,1,0.7,1.7,0.7c0.7,0,1.2-0.2,1.6-0.7c0.4-0.5,0.6-1,0.6-1.7
			c0-0.3,0-0.6,0-0.9s0-0.6,0-0.9c-0.7,0.2-1.4,0.4-2.2,0.4c-0.9,0-1.8-0.2-2.7-0.5c-0.8-0.4-1.6-0.8-2.2-1.5
			c-0.6-0.6-1.1-1.3-1.5-2.2c-0.4-0.8-0.5-1.7-0.5-2.7v-2c0-0.9,0.2-1.8,0.5-2.7c0.3-0.8,0.8-1.6,1.5-2.2c0.6-0.6,1.3-1.1,2.2-1.5
			c0.8-0.4,1.7-0.5,2.7-0.5c0.9,0,1.8,0.2,2.7,0.5c0.8,0.4,1.6,0.8,2.2,1.5c0.6,0.6,1.1,1.3,1.5,2.2C176.8,96.8,177,97.6,177,98.6z
			 M172.5,98.6c0-0.7-0.2-1.2-0.7-1.7c-0.5-0.5-1-0.7-1.7-0.7c-0.7,0-1.2,0.2-1.7,0.7c-0.5,0.5-0.7,1-0.7,1.7v2
			c0,0.7,0.2,1.2,0.7,1.7c0.5,0.5,1,0.7,1.7,0.7c0.7,0,1.2-0.2,1.7-0.7s0.7-1,0.7-1.7V98.6z"/>
		<path class="st1" d="M186,113.1c0,0.8-0.3,1.5-0.8,2c-0.6,0.6-1.2,0.8-2,0.8c-0.8,0-1.5-0.3-2-0.8c-0.6-0.6-0.8-1.2-0.8-2
			s0.3-1.5,0.8-2c0.5-0.6,1.2-0.8,2-0.8c0.8,0,1.5,0.3,2,0.8C185.7,111.7,186,112.3,186,113.1z"/>
		<path class="st1" d="M202.6,108.8c0,0.9-0.2,1.8-0.5,2.7s-0.9,1.6-1.5,2.2c-0.6,0.6-1.3,1.2-2.2,1.5c-0.8,0.4-1.7,0.6-2.7,0.6
			c-0.9,0-1.8-0.2-2.7-0.5c-0.8-0.4-1.6-0.8-2.2-1.5c-0.6-0.6-1.1-1.3-1.5-2.2c-0.4-0.8-0.5-1.7-0.5-2.7v-1.3h4.4v1.3
			c0,0.7,0.2,1.2,0.7,1.7c0.5,0.5,1,0.7,1.7,0.7c0.7,0,1.3-0.2,1.7-0.7c0.5-0.5,0.7-1.1,0.7-1.8c0-1-0.2-1.9-0.7-2.5
			c-0.5-0.7-1.3-1-2.4-1c-0.3,0-0.6,0-1,0c-0.4,0-0.7,0.1-0.9,0.3l-2.5-3.2l5.7-5.5h-6.7v-4.4h12.6v4.4l-4.7,4.6
			c0.9,0.2,1.6,0.5,2.2,1c0.6,0.5,1.2,1,1.6,1.7c0.4,0.7,0.8,1.4,1,2.2C202.5,107.1,202.6,107.9,202.6,108.8z"/>
		<path class="st1" d="M220.6,108.8c0,0.9-0.2,1.8-0.5,2.7c-0.4,0.8-0.9,1.6-1.5,2.2c-0.6,0.6-1.3,1.1-2.2,1.5
			c-0.8,0.4-1.7,0.5-2.7,0.5c-0.9,0-1.8-0.2-2.7-0.5c-0.8-0.4-1.6-0.8-2.2-1.5c-0.6-0.6-1.1-1.3-1.5-2.2c-0.4-0.8-0.5-1.7-0.5-2.7
			V98.6c0-0.9,0.2-1.8,0.5-2.7c0.4-0.8,0.8-1.6,1.5-2.2c0.6-0.6,1.3-1.1,2.2-1.5c0.8-0.4,1.7-0.5,2.7-0.5s1.8,0.2,2.7,0.5
			c0.8,0.4,1.5,0.8,2.2,1.5s1.1,1.3,1.5,2.2c0.4,0.8,0.5,1.7,0.5,2.7V108.8z M216.2,98.6c0-0.7-0.2-1.2-0.7-1.7
			c-0.5-0.5-1-0.7-1.7-0.7c-0.7,0-1.3,0.2-1.7,0.7c-0.5,0.5-0.7,1-0.7,1.7v10.3c0,0.7,0.2,1.3,0.7,1.7c0.5,0.5,1,0.7,1.7,0.7
			c0.7,0,1.2-0.2,1.7-0.7s0.7-1,0.7-1.7V98.6z"/>
		<path class="st1" d="M246.6,108.8c0,0.9-0.2,1.8-0.5,2.7c-0.4,0.8-0.9,1.6-1.5,2.2c-0.6,0.6-1.3,1.1-2.2,1.5
			c-0.8,0.4-1.7,0.5-2.7,0.5c-0.9,0-1.8-0.2-2.7-0.5c-0.8-0.4-1.6-0.8-2.2-1.5c-0.6-0.6-1.1-1.3-1.5-2.2c-0.4-0.8-0.5-1.7-0.5-2.7
			V92.5h4.4v16.4c0,0.7,0.2,1.2,0.7,1.7c0.5,0.5,1,0.7,1.7,0.7c0.7,0,1.3-0.2,1.7-0.7c0.5-0.5,0.7-1,0.7-1.7V92.5h4.4V108.8z"/>
		<path class="st1" d="M264.2,108.8c0,0.9-0.2,1.8-0.5,2.7s-0.9,1.6-1.5,2.2s-1.3,1.1-2.2,1.5c-0.8,0.4-1.7,0.5-2.7,0.5
			s-1.8-0.2-2.7-0.5c-0.8-0.4-1.6-0.8-2.2-1.5c-0.6-0.6-1.1-1.3-1.5-2.2c-0.4-0.8-0.5-1.7-0.5-2.7V92.5h4.4v16.4
			c0,0.7,0.2,1.2,0.7,1.7c0.5,0.5,1,0.7,1.7,0.7c0.7,0,1.3-0.2,1.7-0.7c0.5-0.5,0.7-1,0.7-1.7V92.5h4.4V108.8z"/>
		<path class="st1" d="M283,115h-4.8l-3.5-8.1h-2.1v8.1h-4.4V92.5h7.2c1,0,1.9,0.2,2.8,0.6c0.9,0.4,1.6,0.9,2.3,1.5
			c0.7,0.7,1.2,1.4,1.5,2.3c0.4,0.9,0.6,1.8,0.6,2.8c0,1.3-0.3,2.4-0.9,3.5c-0.6,1.1-1.5,2-2.6,2.6L283,115z M278.2,99.7
			c0-0.4-0.1-0.7-0.2-1.1c-0.2-0.3-0.4-0.6-0.6-0.9s-0.5-0.5-0.9-0.6c-0.3-0.2-0.7-0.2-1.1-0.2h-2.8v5.5h2.8c0.4,0,0.7-0.1,1.1-0.2
			c0.3-0.1,0.6-0.3,0.9-0.6c0.2-0.2,0.5-0.5,0.6-0.9C278.1,100.5,278.2,100.1,278.2,99.7z"/>
	</g>
	<g>
		<path class="st1" d="M4.9,151H0l10-22.4h4.9L4.9,151z"/>
	</g>
	<g>
		<path class="st0" d="M41,144.3c0,1-0.2,1.9-0.5,2.8c-0.4,0.9-0.9,1.7-1.5,2.3c-0.7,0.7-1.4,1.2-2.3,1.6c-0.9,0.4-1.9,0.6-3,0.6
			c-0.9,0-1.8-0.2-2.7-0.5c-0.8-0.4-1.6-0.8-2.2-1.5c-0.6-0.6-1.1-1.3-1.5-2.2s-0.5-1.7-0.5-2.7v-2.1h4.4v2.1c0,0.7,0.2,1.2,0.7,1.7
			s1.1,0.7,1.7,0.7c0.9,0,1.6-0.2,2.1-0.8c0.5-0.5,0.7-1.2,0.7-2.1c0-0.5-0.1-0.8-0.2-1.2c-0.1-0.3-0.4-0.6-0.6-0.8
			c-0.3-0.2-0.6-0.3-0.9-0.5c-0.4-0.1-0.7-0.2-1.1-0.3c-1-0.2-1.9-0.5-2.7-0.8c-0.8-0.4-1.5-0.8-2.1-1.4c-0.6-0.6-1.1-1.2-1.4-2
			s-0.5-1.8-0.5-2.8c0-0.9,0.2-1.8,0.5-2.7c0.4-0.8,0.9-1.6,1.5-2.2c0.6-0.6,1.3-1.1,2.2-1.5c0.8-0.4,1.7-0.5,2.7-0.5
			c0.9,0,1.8,0.2,2.7,0.5c0.8,0.4,1.5,0.8,2.2,1.5c0.6,0.6,1.1,1.3,1.5,2.2c0.4,0.8,0.5,1.7,0.5,2.7v1.3H36v-1.3
			c0-0.7-0.2-1.2-0.7-1.7c-0.5-0.5-1-0.7-1.7-0.7c-0.7,0-1.2,0.2-1.7,0.7s-0.7,1-0.7,1.7c0,0.5,0,0.9,0.1,1.2s0.3,0.6,0.5,0.8
			c0.2,0.2,0.5,0.4,0.8,0.5s0.7,0.2,1.2,0.3c0.9,0.2,1.8,0.5,2.7,0.8c0.9,0.4,1.6,0.8,2.3,1.4c0.7,0.6,1.2,1.2,1.6,2
			C40.8,142.4,41,143.3,41,144.3z"/>
		<path class="st0" d="M58.1,144.8c0,0.9-0.2,1.8-0.5,2.7c-0.4,0.8-0.8,1.6-1.5,2.2c-0.6,0.6-1.3,1.1-2.2,1.5
			c-0.8,0.4-1.7,0.5-2.7,0.5s-1.8-0.2-2.6-0.5c-0.8-0.4-1.6-0.8-2.2-1.5c-0.6-0.6-1.1-1.3-1.5-2.2c-0.3-0.8-0.5-1.7-0.5-2.7v-10.3
			c0-0.9,0.2-1.8,0.5-2.7c0.4-0.8,0.8-1.6,1.5-2.2s1.3-1.1,2.2-1.5c0.8-0.4,1.7-0.5,2.6-0.5c0.9,0,1.8,0.2,2.6,0.5
			c0.8,0.4,1.6,0.8,2.2,1.5c0.6,0.6,1.1,1.3,1.5,2.2c0.4,0.8,0.5,1.7,0.5,2.7v2.1h-4.4v-2.1c0-0.7-0.2-1.3-0.7-1.7
			c-0.5-0.5-1-0.7-1.7-0.7c-0.7,0-1.2,0.2-1.7,0.7c-0.5,0.5-0.7,1-0.7,1.7v10.3c0,0.7,0.2,1.2,0.7,1.7c0.5,0.5,1,0.7,1.7,0.7
			c0.7,0,1.2-0.2,1.7-0.7s0.7-1,0.7-1.7v-2.1h4.4V144.8z"/>
		<path class="st0" d="M76.4,151h-4.4v-9.3h-5.5v9.3H62v-22.5h4.4v8.8h5.5v-8.8h4.4V151z"/>
		<path class="st0" d="M94,144.8c0,0.9-0.2,1.8-0.5,2.7c-0.4,0.8-0.9,1.6-1.5,2.2c-0.6,0.6-1.3,1.1-2.2,1.5
			c-0.8,0.4-1.7,0.5-2.7,0.5c-0.9,0-1.8-0.2-2.7-0.5c-0.8-0.4-1.6-0.8-2.2-1.5c-0.6-0.6-1.1-1.3-1.5-2.2c-0.4-0.8-0.5-1.7-0.5-2.7
			v-10.3c0-0.9,0.2-1.8,0.5-2.7c0.4-0.8,0.8-1.6,1.5-2.2c0.6-0.6,1.3-1.1,2.2-1.5c0.8-0.4,1.7-0.5,2.7-0.5s1.8,0.2,2.7,0.5
			c0.8,0.4,1.5,0.8,2.2,1.5s1.1,1.3,1.5,2.2c0.4,0.8,0.5,1.7,0.5,2.7V144.8z M89.6,134.6c0-0.7-0.2-1.2-0.7-1.7
			c-0.5-0.5-1-0.7-1.7-0.7c-0.7,0-1.3,0.2-1.7,0.7c-0.5,0.5-0.7,1-0.7,1.7v10.3c0,0.7,0.2,1.3,0.7,1.7c0.5,0.5,1,0.7,1.7,0.7
			c0.7,0,1.2-0.2,1.7-0.7s0.7-1,0.7-1.7V134.6z"/>
		<path class="st0" d="M111.6,144.8c0,0.9-0.2,1.8-0.5,2.7c-0.4,0.8-0.9,1.6-1.5,2.2c-0.6,0.6-1.3,1.1-2.2,1.5
			c-0.8,0.4-1.7,0.5-2.7,0.5c-0.9,0-1.8-0.2-2.7-0.5c-0.8-0.4-1.6-0.8-2.2-1.5c-0.6-0.6-1.1-1.3-1.5-2.2c-0.4-0.8-0.5-1.7-0.5-2.7
			v-16.4h4.4v16.4c0,0.7,0.2,1.2,0.7,1.7c0.5,0.5,1,0.7,1.7,0.7c0.7,0,1.3-0.2,1.7-0.7c0.5-0.5,0.7-1,0.7-1.7v-16.4h4.4V144.8z"/>
		<path class="st0" d="M138.3,128.5l-5,22.5h-4.5l-2.7-12.3h-0.1l-2.7,12.3h-4.5l-5-22.5h4.5l2.6,14h0.1l2.6-14h4.6l2.6,14h0.1
			l2.6-14H138.3z"/>
		<path class="st0" d="M154.8,144.2c0,0.9-0.2,1.8-0.5,2.6c-0.4,0.8-0.8,1.5-1.5,2.1c-0.6,0.6-1.3,1.1-2.2,1.4s-1.7,0.5-2.6,0.5
			h-7.4v-22.4h7.1c0.9,0,1.8,0.2,2.6,0.5c0.8,0.4,1.5,0.8,2.1,1.4c0.6,0.6,1.1,1.3,1.5,2.1c0.4,0.8,0.5,1.7,0.5,2.6
			c0,0.5-0.1,0.9-0.2,1.3c-0.1,0.4-0.3,0.8-0.6,1.2c-0.2,0.4-0.5,0.7-0.9,1c-0.3,0.3-0.7,0.6-1.1,0.8c1,0.4,1.7,1,2.2,1.9
			S154.8,143.2,154.8,144.2z M150.1,135.3c0-0.6-0.2-1.2-0.7-1.6c-0.4-0.5-1-0.7-1.6-0.7h-2.5v4.6h2.5c0.6,0,1.2-0.2,1.6-0.6
			C149.9,136.5,150.1,135.9,150.1,135.3z M150.4,144.3c0-0.6-0.2-1.2-0.7-1.6s-1-0.7-1.6-0.7h-2.8v4.6h2.8c0.6,0,1.2-0.2,1.6-0.6
			S150.4,144.9,150.4,144.3z"/>
		<path class="st0" d="M172.1,144.8c0,0.9-0.2,1.8-0.5,2.7c-0.4,0.8-0.9,1.6-1.5,2.2c-0.6,0.6-1.3,1.1-2.2,1.5
			c-0.8,0.4-1.7,0.5-2.7,0.5c-0.9,0-1.8-0.2-2.7-0.5c-0.8-0.4-1.6-0.8-2.2-1.5c-0.6-0.6-1.1-1.3-1.5-2.2c-0.4-0.8-0.5-1.7-0.5-2.7
			v-16.4h4.4v16.4c0,0.7,0.2,1.2,0.7,1.7c0.5,0.5,1,0.7,1.7,0.7c0.7,0,1.3-0.2,1.7-0.7c0.5-0.5,0.7-1,0.7-1.7v-16.4h4.4V144.8z"/>
		<path class="st0" d="M190.9,151h-4.8l-3.5-8.1h-2.1v8.1h-4.4v-22.4h7.2c1,0,1.9,0.2,2.8,0.6s1.6,0.9,2.3,1.5
			c0.7,0.7,1.2,1.4,1.5,2.3c0.4,0.9,0.6,1.8,0.6,2.8c0,1.3-0.3,2.4-0.9,3.5c-0.6,1.1-1.5,2-2.6,2.6L190.9,151z M186.1,135.7
			c0-0.4-0.1-0.7-0.2-1.1c-0.1-0.3-0.4-0.6-0.6-0.9c-0.3-0.2-0.5-0.5-0.9-0.6c-0.3-0.2-0.7-0.2-1.1-0.2h-2.8v5.5h2.8
			c0.4,0,0.7-0.1,1.1-0.2c0.3-0.1,0.6-0.3,0.9-0.6c0.2-0.2,0.5-0.5,0.6-0.9C186,136.5,186.1,136.1,186.1,135.7z"/>
		<path class="st0" d="M208.1,144.9c0,0.9-0.2,1.8-0.5,2.6c-0.4,0.8-0.9,1.6-1.5,2.2c-0.6,0.6-1.3,1.1-2.2,1.5
			c-0.8,0.4-1.7,0.5-2.7,0.5s-1.8-0.2-2.7-0.5c-0.8-0.4-1.6-0.8-2.2-1.5c-0.6-0.6-1.1-1.3-1.5-2.2s-0.5-1.7-0.5-2.7v-10.3
			c0-0.9,0.2-1.8,0.5-2.7c0.4-0.8,0.8-1.6,1.5-2.2c0.6-0.6,1.3-1.1,2.2-1.5c0.8-0.4,1.7-0.5,2.7-0.5c0.9,0,1.8,0.2,2.7,0.5
			c0.8,0.4,1.5,0.8,2.2,1.5c0.6,0.6,1.1,1.3,1.5,2.2c0.4,0.8,0.5,1.7,0.5,2.7v0.9h-4.4v-0.9c0-0.7-0.2-1.2-0.7-1.7
			c-0.5-0.5-1-0.7-1.7-0.7s-1.3,0.2-1.7,0.7c-0.5,0.5-0.7,1-0.7,1.7v10.3c0,0.7,0.2,1.3,0.7,1.7s1,0.7,1.7,0.7
			c0.7,0,1.2-0.2,1.7-0.7s0.7-1,0.7-1.7v-2.1h-2.5v-4.4h6.9V144.9z"/>
		<path class="st0" d="M227.6,151h-4.5l-5-22.5h4.5l2.6,14h0.1l2.6-14h4.5L227.6,151z"/>
		<path class="st0" d="M246.9,151h-11.1v-22.4h11.1v4.4h-6.4v4.6h6.4v4.4h-6.4v4.6h6.4V151z"/>
		<path class="st0" d="M265.6,151h-4.8l-5.5-14h-0.1v14h-4.4v-22.5h5.7l4.5,11.5h0.1v-11.5h4.4V151z"/>
		<path class="st0" d="M284.4,151h-4.8l-3.5-8.1H274v8.1h-4.4v-22.4h7.2c1,0,1.9,0.2,2.8,0.6c0.9,0.4,1.6,0.9,2.3,1.5
			c0.7,0.7,1.2,1.4,1.5,2.3c0.4,0.9,0.6,1.8,0.6,2.8c0,1.3-0.3,2.4-0.9,3.5c-0.6,1.1-1.5,2-2.6,2.6L284.4,151z M279.6,135.7
			c0-0.4-0.1-0.7-0.2-1.1c-0.2-0.3-0.4-0.6-0.6-0.9s-0.5-0.5-0.9-0.6c-0.3-0.2-0.7-0.2-1.1-0.2H274v5.5h2.8c0.4,0,0.7-0.1,1.1-0.2
			c0.3-0.1,0.6-0.3,0.9-0.6c0.2-0.2,0.5-0.5,0.6-0.9C279.5,136.5,279.6,136.1,279.6,135.7z"/>
		<path class="st0" d="M300.8,151h-4.5l-0.8-4h-3.9l-0.8,4h-4.6l5-22.4h4.5L300.8,151z M294.6,142.5l-1-5.6l-1.1,5.6H294.6z"/>
		<path class="st0" d="M316.9,128.5l-5.5,14.4v8H307v-8l-5.5-14.4h4.7l3,9h0.1l2.9-9H316.9z"/>
	</g>
</g>
</svg>
