<?xml version="1.0" encoding="utf-8"?>
<!-- Generator: Adobe Illustrator 24.0.0, SVG Export Plug-In . SVG Version: 6.00 Build 0)  -->
<svg version="1.1" id="Laag_1" xmlns="http://www.w3.org/2000/svg" xmlns:xlink="http://www.w3.org/1999/xlink" x="0px" y="0px"
	 width="194.2px" height="25.1px" viewBox="0 0 194.2 25.1" style="enable-background:new 0 0 194.2 25.1;" xml:space="preserve">
<style type="text/css">
	.st0{fill:#FFFFFF;}
</style>
<g>
	<path class="st0" d="M0,0h0.8l4.3,7.4L9.4,0h0.8v8.4H9.4V1.6l-4,6.8H4.7l-4-6.8v6.8H0V0z"/>
	<path class="st0" d="M14.5,2.3c1.9,0,2.8,1.4,2.8,3.1v0.2h-5v0.1c0,1.4,1,2.2,2.3,2.2c0.9,0,1.5-0.4,2-0.9L17,7.5
		c-0.5,0.5-1.3,1-2.4,1c-1.8,0-3-1.2-3-3.1C11.6,3.6,12.7,2.3,14.5,2.3z M14.6,2.9c-1.3,0-2.1,0.8-2.2,2h4.2
		C16.5,3.8,15.8,2.9,14.6,2.9z"/>
	<path class="st0" d="M20.9,8.5c-1.1,0-1.6-0.4-1.6-1.7V3H18V2.4h1.3V0.8H20v1.6h1.7V3H20v3.8c0,0.6,0.2,0.9,0.9,0.9
		c0.4,0,0.6,0,0.9-0.1v0.6C21.5,8.4,21.2,8.5,20.9,8.5z"/>
	<path class="st0" d="M27.4,6.6v1.8h-0.7V0h0.7v5.7l3.2-3.3h1L29,5l2.7,3.4h-1l-2.2-2.9L27.4,6.6z"/>
	<path class="st0" d="M37.7,8.4H37V7.2c-0.4,0.9-1.1,1.4-2.1,1.4c-1.7,0-2.3-1.1-2.3-2.6V2.4h0.8v3.5c0,1.1,0.4,1.9,1.6,1.9
		c1.5,0,2-1.3,2-2.7V2.4h0.7V8.4z"/>
	<path class="st0" d="M39.4,2.4h0.7v1.3c0.3-0.9,1.1-1.4,2.2-1.4c1.4,0,2.3,1,2.3,2.6v3.6h-0.8V4.9c0-1.2-0.6-1.9-1.7-1.9
		c-1.4,0-2,1.1-2,2.7v2.8h-0.7V2.4z"/>
	<path class="st0" d="M48.3,2.3c0.9,0,1.8,0.3,2.3,1.2l-0.6,0.4c-0.3-0.6-0.9-0.9-1.7-0.9c-0.9,0-1.4,0.4-1.5,1
		c0,0.7,0.7,0.9,1.7,1.1c1.2,0.3,2.1,0.5,2.1,1.8c0,1.1-0.8,1.8-2.3,1.8c-1.1,0-2.1-0.4-2.5-1.4l0.6-0.4c0.3,0.8,1.1,1.1,2,1.1
		c0.9,0,1.5-0.3,1.5-1c0-0.8-0.7-0.9-1.5-1.1c-1.1-0.2-2.2-0.5-2.2-1.8C46.1,2.9,46.9,2.3,48.3,2.3z"/>
	<path class="st0" d="M54,8.5c-1.1,0-1.6-0.4-1.6-1.7V3h-1.3V2.4h1.3V0.8h0.7v1.6h1.7V3h-1.7v3.8c0,0.6,0.2,0.9,0.9,0.9
		c0.4,0,0.6,0,0.9-0.1v0.6C54.6,8.4,54.3,8.5,54,8.5z"/>
	<path class="st0" d="M55.4,2.4h0.8l1.9,4.9l2.1-4.9h0.5l2.1,4.9l1.9-4.9h0.8l-2.5,6h-0.6l-2.1-4.8l-2.1,4.8h-0.6L55.4,2.4z"/>
	<path class="st0" d="M69.2,2.3c1.9,0,2.8,1.4,2.8,3.1v0.2h-5v0.1c0,1.4,1,2.2,2.3,2.2c0.9,0,1.5-0.4,2-0.9l0.4,0.6
		c-0.5,0.5-1.3,1-2.4,1c-1.8,0-3-1.2-3-3.1C66.2,3.6,67.4,2.3,69.2,2.3z M69.2,2.9c-1.3,0-2.1,0.8-2.2,2h4.2
		C71.1,3.8,70.5,2.9,69.2,2.9z"/>
	<path class="st0" d="M75.8,2.3c0.2,0,0.4,0,0.6,0v0.8C76.2,3,76,3,75.8,3C74.4,3,74,4.2,74,5.6v2.8h-0.7v-6H74v1.2
		C74.3,2.7,75,2.3,75.8,2.3z"/>
	<path class="st0" d="M78.3,6.6v1.8h-0.7V0h0.7v5.7l3.2-3.3h1L79.9,5l2.7,3.4h-1l-2.2-2.9L78.3,6.6z"/>
	<path class="st0" d="M86.1,2.3c1.9,0,2.8,1.4,2.8,3.1v0.2h-5v0.1c0,1.4,1,2.2,2.3,2.2c0.9,0,1.5-0.4,2-0.9l0.4,0.6
		c-0.5,0.5-1.3,1-2.4,1c-1.8,0-3-1.2-3-3.1C83.1,3.6,84.3,2.3,86.1,2.3z M86.1,2.9c-1.3,0-2.1,0.8-2.2,2h4.2
		C88.1,3.8,87.4,2.9,86.1,2.9z"/>
	<path class="st0" d="M90.2,2.4h0.7v1.3c0.3-0.9,1.1-1.4,2.2-1.4c1.4,0,2.3,1,2.3,2.6v3.6h-0.8V4.9c0-1.2-0.6-1.9-1.7-1.9
		c-1.4,0-2,1.1-2,2.7v2.8h-0.7V2.4z"/>
	<path class="st0" d="M100,2.4h0.9l2.1,5l2.1-5h0.9l-2.6,6h-0.6L100,2.4z"/>
	<path class="st0" d="M109.1,2.3c1.6,0,2.4,0.7,2.4,2.2v3.9h-0.7V7.2c-0.4,0.8-1.2,1.3-2.2,1.3c-1.2,0-2-0.7-2-1.8
		c0-1,0.7-1.7,1.9-1.8l2-0.2c0.2,0,0.3-0.1,0.3-0.3V4.2c0-0.9-0.6-1.3-1.6-1.3c-1,0-1.6,0.4-1.8,1.1l-0.7-0.3
		C106.9,2.7,107.8,2.3,109.1,2.3z M108.5,5.6c-0.8,0.1-1.2,0.5-1.2,1.2c0,0.7,0.5,1.1,1.4,1.1c1.2,0,2.1-0.9,2.1-2V5.3L108.5,5.6z"
		/>
	<path class="st0" d="M112.9,2.4h0.7v1.3c0.3-0.9,1.1-1.4,2.2-1.4c1.4,0,2.3,1,2.3,2.6v3.6h-0.8V4.9c0-1.2-0.6-1.9-1.7-1.9
		c-1.4,0-2,1.1-2,2.7v2.8h-0.7V2.4z"/>
	<path class="st0" d="M126.1,2.3c1.8,0,3.1,1.3,3.1,3.1c0,1.8-1.3,3.1-3.1,3.1c-1.8,0-3.1-1.3-3.1-3.1C123,3.6,124.3,2.3,126.1,2.3z
		 M126.1,3c-1.4,0-2.4,1-2.4,2.4s0.9,2.4,2.4,2.4c1.4,0,2.4-1,2.4-2.4S127.5,3,126.1,3z"/>
	<path class="st0" d="M132.1,7.6c0,0.4-0.3,0.8-0.8,0.8s-0.8-0.3-0.8-0.8c0-0.4,0.3-0.8,0.8-0.8S132.1,7.2,132.1,7.6z"/>
	<path class="st0" d="M136.1,2.3c1.6,0,2.4,0.7,2.4,2.2v3.9h-0.7V7.2c-0.4,0.8-1.2,1.3-2.2,1.3c-1.2,0-2-0.7-2-1.8
		c0-1,0.7-1.7,1.9-1.8l2-0.2c0.2,0,0.3-0.1,0.3-0.3V4.2c0-0.9-0.6-1.3-1.6-1.3c-1,0-1.6,0.4-1.8,1.1l-0.7-0.3
		C134,2.7,134.8,2.3,136.1,2.3z M135.5,5.6c-0.8,0.1-1.2,0.5-1.2,1.2c0,0.7,0.5,1.1,1.4,1.1c1.2,0,2.1-0.9,2.1-2V5.3L135.5,5.6z"/>
	<path class="st0" d="M141.5,7.6c0,0.4-0.3,0.8-0.8,0.8S140,8.1,140,7.6c0-0.4,0.3-0.8,0.8-0.8S141.5,7.2,141.5,7.6z"/>
	<path class="st0" d="M0,14.4h0.8v8.4H0V14.4z"/>
	<path class="st0" d="M5.2,16.7c0.2,0,0.4,0,0.6,0v0.8c-0.2,0-0.4-0.1-0.6-0.1c-1.4,0-1.8,1.2-1.8,2.6v2.8H2.6v-6h0.7V18
		C3.6,17.1,4.3,16.7,5.2,16.7z"/>
	<path class="st0" d="M6.6,15c0-0.4,0.3-0.7,0.7-0.7S8,14.6,8,15c0,0.4-0.3,0.7-0.7,0.7S6.6,15.4,6.6,15z M7.7,22.8H6.9v-6h0.7V22.8
		z"/>
	<path class="st0" d="M11.4,16.7c0.9,0,1.8,0.3,2.3,1.2l-0.6,0.4c-0.3-0.6-0.9-0.9-1.7-0.9c-0.9,0-1.4,0.4-1.5,1
		c0,0.7,0.7,0.9,1.7,1.1c1.2,0.3,2.1,0.5,2.1,1.8c0,1.1-0.8,1.8-2.3,1.8c-1.1,0-2.1-0.4-2.5-1.4l0.6-0.4c0.3,0.8,1.1,1.1,2,1.1
		c0.9,0,1.5-0.3,1.5-1c0-0.8-0.7-0.9-1.5-1.1c-1.1-0.2-2.2-0.5-2.2-1.8C9.2,17.3,10,16.7,11.4,16.7z"/>
	<path class="st0" d="M18.7,14.4h0.8V19l4.6-4.6h1.1L21.6,18l3.6,4.8h-1L21,18.6l-1.5,1.5v2.7h-0.8V14.4z"/>
	<path class="st0" d="M28.7,16.7c1.9,0,2.8,1.4,2.8,3.1v0.2h-5V20c0,1.4,1,2.2,2.3,2.2c0.9,0,1.5-0.4,2-0.9l0.4,0.6
		c-0.5,0.5-1.3,1-2.4,1c-1.8,0-3-1.2-3-3.1C25.7,18,26.9,16.7,28.7,16.7z M28.7,17.3c-1.3,0-2.1,0.8-2.2,2h4.2
		C30.6,18.2,30,17.3,28.7,17.3z"/>
	<path class="st0" d="M32.8,16.8h0.7v1.3c0.3-0.9,1.1-1.4,2.2-1.4c1.4,0,2.3,1,2.3,2.6v3.6h-0.8v-3.5c0-1.2-0.6-1.9-1.7-1.9
		c-1.4,0-2,1.1-2,2.7v2.8h-0.7V16.8z"/>
	<path class="st0" d="M41.6,16.7c0.9,0,1.8,0.3,2.3,1.2l-0.6,0.4c-0.3-0.6-0.9-0.9-1.7-0.9c-0.9,0-1.4,0.4-1.5,1
		c0,0.7,0.7,0.9,1.7,1.1c1.2,0.3,2.1,0.5,2.1,1.8c0,1.1-0.8,1.8-2.3,1.8c-1.1,0-2.1-0.4-2.5-1.4l0.6-0.4c0.3,0.8,1.1,1.1,2,1.1
		c0.9,0,1.5-0.3,1.5-1c0-0.8-0.7-0.9-1.5-1.1c-1.1-0.2-2.2-0.5-2.2-1.8C39.4,17.3,40.2,16.7,41.6,16.7z"/>
	<path class="st0" d="M52.3,16.7c1.5,0,2.3,0.9,2.3,2.7v3.5h-0.7v-3.6c0-1.2-0.6-1.9-1.6-1.9c-1.4,0-2,1.1-2,2.6v2.8h-0.7v-3.6
		c0-1.2-0.6-1.9-1.7-1.9c-1.4,0-2,1.1-2,2.7v2.8h-0.7v-6h0.7v1.3c0.3-0.9,1.1-1.4,2.1-1.4c1.1,0,1.8,0.5,2.1,1.6
		C50.4,17.1,51.3,16.7,52.3,16.7z"/>
	<path class="st0" d="M56.1,15c0-0.4,0.3-0.7,0.7-0.7s0.7,0.3,0.7,0.7c0,0.4-0.3,0.7-0.7,0.7S56.1,15.4,56.1,15z M57.1,22.8h-0.7v-6
		h0.7V22.8z"/>
	<path class="st0" d="M59.7,22.8h-0.8v-8.4h0.8V22.8z"/>
	<path class="st0" d="M63.4,21.5l-2.1,3.6l-0.6-0.3l2-3.6L63.4,21.5z"/>
	<path class="st0" d="M74.7,22.8l-2.3-2.9c-0.1,0-0.2,0-0.4,0h-2.3v2.9h-0.8v-8.4H72c1.7,0,2.8,1.1,2.8,2.8c0,1.2-0.6,2.1-1.7,2.6
		l2.5,3.1H74.7z M71.8,19.2l-0.6-0.8l0.6-0.5l0.9,1.2c0.8-0.2,1.4-0.9,1.4-1.9c0-1.2-0.8-2-2.1-2h-2.3v4H71.8z"/>
	<path class="st0" d="M76.4,15c0-0.4,0.3-0.7,0.7-0.7s0.7,0.3,0.7,0.7c0,0.4-0.3,0.7-0.7,0.7S76.4,15.4,76.4,15z M77.5,22.8h-0.7v-6
		h0.7V22.8z"/>
	<path class="st0" d="M81.9,16.7c0.8,0,1.5,0.3,2.1,0.8L83.5,18c-0.5-0.4-1.1-0.7-1.7-0.7c-1.4,0-2.4,1-2.4,2.4c0,1.4,1,2.4,2.3,2.4
		c0.6,0,1.2-0.2,1.7-0.7l0.4,0.6c-0.6,0.5-1.3,0.8-2.2,0.8c-1.9,0-3.1-1.3-3.1-3.1C78.8,17.9,80.1,16.7,81.9,16.7z"/>
	<path class="st0" d="M86,18c0.4-0.9,1.1-1.4,2.2-1.4c1.5,0,2.3,1,2.3,2.6v3.5h-0.8v-3.5c0-1.2-0.6-1.9-1.6-1.9c-1.3,0-2,0.9-2,2.7
		v2.8h-0.7v-8.4H86V18z"/>
	<path class="st0" d="M94.4,16.7c1.6,0,2.4,0.7,2.4,2.2v3.9H96v-1.2c-0.4,0.8-1.2,1.3-2.2,1.3c-1.2,0-2-0.7-2-1.8
		c0-1,0.7-1.7,1.9-1.8l2-0.2c0.2,0,0.3-0.1,0.3-0.3v-0.2c0-0.9-0.6-1.3-1.6-1.3c-1,0-1.6,0.4-1.8,1.1L92,18.1
		C92.2,17.1,93,16.7,94.4,16.7z M93.8,20c-0.8,0.1-1.2,0.5-1.2,1.2c0,0.7,0.5,1.1,1.4,1.1c1.2,0,2.1-0.9,2.1-2v-0.5L93.8,20z"/>
	<path class="st0" d="M100.8,16.7c0.2,0,0.4,0,0.6,0v0.8c-0.2,0-0.4-0.1-0.6-0.1c-1.4,0-1.8,1.2-1.8,2.6v2.8h-0.7v-6h0.7V18
		C99.2,17.1,99.9,16.7,100.8,16.7z"/>
	<path class="st0" d="M108,22.8h-0.7v-1.2c-0.4,0.8-1.3,1.3-2.4,1.3c-1.7,0-2.9-1.3-2.9-3.1c0-1.8,1.2-3.1,2.9-3.1
		c1,0,1.9,0.5,2.4,1.3v-3.6h0.7V22.8z M102.8,19.8c0,1.5,0.9,2.5,2.3,2.5c1.4,0,2.3-1,2.3-2.5s-0.9-2.5-2.3-2.5
		C103.7,17.3,102.8,18.3,102.8,19.8z"/>
	<path class="st0" d="M113.6,14.4h0.8V19l4.6-4.6h1.1l-3.6,3.6l3.6,4.8h-1l-3.2-4.2l-1.5,1.5v2.7h-0.8V14.4z"/>
	<path class="st0" d="M123.7,16.7c1.8,0,3.1,1.3,3.1,3.1c0,1.8-1.3,3.1-3.1,3.1c-1.8,0-3.1-1.3-3.1-3.1
		C120.6,18,121.9,16.7,123.7,16.7z M123.7,17.4c-1.4,0-2.4,1-2.4,2.4c0,1.4,0.9,2.4,2.4,2.4c1.4,0,2.4-1,2.4-2.4
		C126.1,18.4,125.1,17.4,123.7,17.4z"/>
	<path class="st0" d="M129.7,22.8H129v-5.3h-1.5v-0.6h1.5v-0.4c0-1.6,0.8-2.1,1.8-2.1c0.3,0,0.6,0,0.8,0.1V15
		c-0.3,0-0.5-0.1-0.7-0.1c-0.8,0-1.2,0.4-1.2,1.5v0.4h1.8v0.6h-1.8V22.8z"/>
	<path class="st0" d="M132.5,15c0-0.4,0.3-0.7,0.7-0.7s0.7,0.3,0.7,0.7c0,0.4-0.3,0.7-0.7,0.7S132.5,15.4,132.5,15z M133.5,22.8
		h-0.7v-6h0.7V22.8z"/>
	<path class="st0" d="M141.4,16.7c1.9,0,2.8,1.4,2.8,3.1v0.2h-5V20c0,1.4,1,2.2,2.3,2.2c0.9,0,1.5-0.4,2-0.9l0.4,0.6
		c-0.5,0.5-1.3,1-2.4,1c-1.8,0-3-1.2-3-3.1C138.5,18,139.6,16.7,141.4,16.7z M141.4,17.3c-1.3,0-2.1,0.8-2.2,2h4.2
		C143.4,18.2,142.7,17.3,141.4,17.3z"/>
	<path class="st0" d="M145.5,16.8h0.7v1.3c0.3-0.9,1.1-1.4,2.2-1.4c1.4,0,2.3,1,2.3,2.6v3.6h-0.8v-3.5c0-1.2-0.6-1.9-1.7-1.9
		c-1.4,0-2,1.1-2,2.7v2.8h-0.7V16.8z"/>
	<path class="st0" d="M162.2,21H157l-0.8,1.8h-0.9l3.9-8.4h0.8l3.9,8.4h-0.9L162.2,21z M161.9,20.3l-2.3-4.9l-2.3,4.9H161.9z"/>
	<path class="st0" d="M165.7,21v1.8h-0.7v-8.4h0.7v5.7l3.2-3.3h1l-2.6,2.6l2.7,3.4h-1l-2.2-2.9L165.7,21z"/>
	<path class="st0" d="M170.2,16.8h0.8l1.9,4.9l2.1-4.9h0.5l2.1,4.9l1.9-4.9h0.8l-2.5,6h-0.6l-2.1-4.8l-2.1,4.8h-0.6L170.2,16.8z"/>
	<path class="st0" d="M183.8,16.7c1.6,0,2.4,0.7,2.4,2.2v3.9h-0.7v-1.2c-0.4,0.8-1.2,1.3-2.2,1.3c-1.2,0-2-0.7-2-1.8
		c0-1,0.7-1.7,1.9-1.8l2-0.2c0.2,0,0.3-0.1,0.3-0.3v-0.2c0-0.9-0.6-1.3-1.6-1.3c-1,0-1.6,0.4-1.8,1.1l-0.7-0.3
		C181.6,17.1,182.4,16.7,183.8,16.7z M183.2,20c-0.8,0.1-1.2,0.5-1.2,1.2c0,0.7,0.5,1.1,1.4,1.1c1.2,0,2.1-0.9,2.1-2v-0.5L183.2,20z
		"/>
	<path class="st0" d="M189.6,16.7c0.9,0,1.8,0.3,2.3,1.2l-0.6,0.4c-0.3-0.6-0.9-0.9-1.7-0.9c-0.9,0-1.4,0.4-1.5,1
		c0,0.7,0.7,0.9,1.7,1.1c1.2,0.3,2.1,0.5,2.1,1.8c0,1.1-0.8,1.8-2.3,1.8c-1.1,0-2.1-0.4-2.5-1.4l0.6-0.4c0.3,0.8,1.1,1.1,2,1.1
		c0.9,0,1.5-0.3,1.5-1c0-0.8-0.7-0.9-1.5-1.1c-1.1-0.2-2.2-0.5-2.2-1.8C187.4,17.3,188.2,16.7,189.6,16.7z"/>
	<path class="st0" d="M192.9,15c0-0.4,0.3-0.7,0.7-0.7s0.7,0.3,0.7,0.7c0,0.4-0.3,0.7-0.7,0.7S192.9,15.4,192.9,15z M193.9,22.8
		h-0.7v-6h0.7V22.8z"/>
</g>
</svg>
