<?xml version="1.0" encoding="utf-8"?>
<!-- Generator: Adobe Illustrator 24.0.0, SVG Export Plug-In . SVG Version: 6.00 Build 0)  -->
<svg version="1.1" id="Laag_1" xmlns="http://www.w3.org/2000/svg" xmlns:xlink="http://www.w3.org/1999/xlink" x="0px" y="0px"
	 width="123.7px" height="136.6px" viewBox="0 0 123.7 136.6" style="enable-background:new 0 0 123.7 136.6;" xml:space="preserve"
	>
<style type="text/css">
	.st0{fill:#007CF9;}
	.st1{fill:#010101;}
</style>
<g>
	<path class="st0" d="M7.5,25.6c-4.5,0-6.9-1.7-7.3-5.2h4.8c0.2,1.2,1.1,1.8,2.6,1.8c2,0,3-1,3-2.9v-2.1c-0.4,0.7-1,1.3-1.7,1.8
		c-0.8,0.5-1.6,0.7-2.6,0.7c-1.7,0-3.1-0.6-4.2-1.8c-1.1-1.2-1.7-2.8-1.7-4.9v-0.2c0-2,0.6-3.7,1.7-4.9C3,6.6,4.4,6,6.1,6
		c2,0,3.4,0.8,4.3,2.4v-2h4.8v12.8c0,2.1-0.7,3.7-2,4.8C12,25.1,10,25.6,7.5,25.6z M5.8,15.3c0.5,0.6,1.2,0.9,2,0.9s1.5-0.3,2-0.9
		c0.5-0.6,0.8-1.4,0.8-2.3v-0.2c0-1-0.2-1.8-0.7-2.3c-0.5-0.6-1.2-0.8-2-0.8c-0.9,0-1.6,0.3-2,0.9c-0.5,0.6-0.7,1.3-0.7,2.3V13
		C5.1,14,5.3,14.7,5.8,15.3z"/>
	<path class="st0" d="M23.7,20.7c-2.3,0-4.1-0.6-5.5-1.9c-1.4-1.3-2.1-3-2.1-5.3v-0.2c0-2.2,0.7-4,2.2-5.3c1.4-1.3,3.3-2,5.4-2
		c2.1,0,3.8,0.6,5.1,1.8c1.3,1.2,2,3,2,5.4v1.3h-9.9c0.1,0.9,0.4,1.6,0.9,2.2c0.5,0.5,1.2,0.8,2.1,0.8c1.4,0,2.2-0.6,2.4-1.7h4.5
		c-0.2,1.6-0.9,2.8-2.1,3.7C27.4,20.3,25.8,20.7,23.7,20.7z M21,11.8h5.1C26,10,25.2,9.2,23.6,9.2c-0.7,0-1.3,0.2-1.8,0.7
		C21.4,10.3,21.1,11,21,11.8z"/>
	<path class="st0" d="M38.4,20.7c-2.3,0-4.1-0.6-5.5-1.9c-1.4-1.3-2.1-3-2.1-5.3v-0.2c0-2.2,0.7-4,2.2-5.3c1.4-1.3,3.3-2,5.4-2
		c2.1,0,3.8,0.6,5.1,1.8c1.3,1.2,2,3,2,5.4v1.3h-9.9c0.1,0.9,0.4,1.6,0.9,2.2c0.5,0.5,1.2,0.8,2.1,0.8c1.4,0,2.2-0.6,2.4-1.7h4.5
		c-0.2,1.6-0.9,2.8-2.1,3.7C42.2,20.3,40.5,20.7,38.4,20.7z M35.7,11.8h5.1c-0.1-1.8-0.9-2.6-2.5-2.6c-0.7,0-1.3,0.2-1.8,0.7
		C36.1,10.3,35.8,11,35.7,11.8z"/>
	<path class="st0" d="M47,20.4V9.7h-1.8V6.4H47V5.1c0-1.7,0.5-3,1.5-3.8c1-0.9,2.3-1.3,4-1.3c0.7,0,1.4,0.1,2.2,0.3v3.5
		c-0.4-0.1-0.8-0.2-1.3-0.2c-1.1,0-1.6,0.5-1.6,1.5v1.2h2.8v3.3h-2.8v10.8H47z"/>
</g>
<g>
	<path class="st1" d="M63.1,20.4l-5.1-14H63l2.9,9l2.9-9h4.6l-5.1,14H63.1z"/>
	<path class="st1" d="M85.3,18.8c-1.4,1.3-3.3,2-5.5,2c-2.2,0-4-0.6-5.5-1.9c-1.4-1.3-2.2-3-2.2-5.2v-0.2c0-2.2,0.7-4,2.2-5.3
		c1.5-1.3,3.3-2,5.5-2c2.2,0,4,0.7,5.5,2c1.4,1.3,2.2,3.1,2.2,5.2v0.2C87.5,15.7,86.8,17.4,85.3,18.8z M79.8,17.2
		c0.9,0,1.6-0.3,2.1-1c0.5-0.6,0.7-1.5,0.7-2.7v-0.2c0-2.4-0.9-3.7-2.8-3.7c-0.9,0-1.6,0.3-2.1,0.9c-0.5,0.6-0.7,1.5-0.7,2.7v0.2
		C77.1,15.9,78,17.2,79.8,17.2z"/>
	<path class="st1" d="M100.7,18.8c-1.4,1.3-3.3,2-5.5,2c-2.2,0-4-0.6-5.5-1.9c-1.4-1.3-2.2-3-2.2-5.2v-0.2c0-2.2,0.7-4,2.2-5.3
		c1.5-1.3,3.3-2,5.5-2c2.2,0,4,0.7,5.5,2c1.4,1.3,2.2,3.1,2.2,5.2v0.2C102.8,15.7,102.1,17.4,100.7,18.8z M95.2,17.2
		c0.9,0,1.6-0.3,2.1-1c0.5-0.6,0.7-1.5,0.7-2.7v-0.2c0-2.4-0.9-3.7-2.8-3.7c-0.9,0-1.6,0.3-2.1,0.9c-0.5,0.6-0.7,1.5-0.7,2.7v0.2
		C92.4,15.9,93.3,17.2,95.2,17.2z"/>
	<path class="st1" d="M103.6,20.4v-14h4.8v2.8c0.9-2,2.4-3,4.5-3v4.5c-3-0.1-4.5,0.9-4.5,3.1v6.6H103.6z"/>
</g>
<g>
	<path class="st1" d="M0.9,43.4v-14h4.8v2.1c0.4-0.7,1-1.3,1.7-1.8c0.8-0.5,1.6-0.7,2.7-0.7c1.9,0,3.1,0.8,3.8,2.3
		c1.1-1.6,2.7-2.3,4.6-2.3c1.4,0,2.5,0.4,3.3,1.3c0.8,0.9,1.3,2.2,1.3,3.9v9.2h-4.8V35c0-0.7-0.2-1.2-0.5-1.6
		c-0.3-0.4-0.8-0.5-1.3-0.5c-0.7,0-1.2,0.2-1.6,0.6c-0.4,0.4-0.6,1-0.6,1.7v8.1H9.7V35c0-0.7-0.2-1.2-0.5-1.6
		c-0.3-0.4-0.8-0.5-1.3-0.5c-0.7,0-1.2,0.2-1.6,0.6c-0.4,0.4-0.6,1-0.6,1.7v8.1H0.9z"/>
	<path class="st1" d="M31.4,43.7c-2.3,0-4.1-0.6-5.5-1.9c-1.4-1.3-2.1-3-2.1-5.3v-0.2c0-2.2,0.7-4,2.2-5.3c1.4-1.3,3.3-2,5.4-2
		c2.1,0,3.8,0.6,5.1,1.8c1.3,1.2,2,3,2,5.4v1.3h-9.9c0.1,0.9,0.4,1.6,0.9,2.2c0.5,0.5,1.2,0.8,2.1,0.8c1.4,0,2.2-0.6,2.4-1.7h4.5
		c-0.2,1.6-0.9,2.8-2.1,3.7C35.2,43.3,33.6,43.7,31.4,43.7z M28.7,34.8h5.1c-0.1-1.8-0.9-2.6-2.5-2.6c-0.7,0-1.3,0.2-1.8,0.7
		S28.9,34,28.7,34.8z"/>
	<path class="st1" d="M46.2,43.7c-2.3,0-4.1-0.6-5.5-1.9c-1.4-1.3-2.1-3-2.1-5.3v-0.2c0-2.2,0.7-4,2.2-5.3c1.4-1.3,3.3-2,5.4-2
		c2.1,0,3.8,0.6,5.1,1.8c1.3,1.2,2,3,2,5.4v1.3h-9.9c0.1,0.9,0.4,1.6,0.9,2.2c0.5,0.5,1.2,0.8,2.1,0.8c1.4,0,2.2-0.6,2.4-1.7h4.5
		c-0.2,1.6-0.9,2.8-2.1,3.7C49.9,43.3,48.3,43.7,46.2,43.7z M43.5,34.8h5.1c-0.1-1.8-0.9-2.6-2.5-2.6c-0.7,0-1.3,0.2-1.8,0.7
		S43.6,34,43.5,34.8z"/>
	<path class="st1" d="M54,43.4v-14h4.8v2.8c0.9-2,2.4-3,4.5-3v4.5c-3-0.1-4.5,0.9-4.5,3.1v6.6H54z"/>
</g>
<g>
	<path class="st1" d="M0.9,66.4v-14h4.8v2.3c0.4-0.8,1-1.4,1.8-1.9c0.8-0.5,1.7-0.7,2.8-0.7c1.4,0,2.5,0.4,3.4,1.3
		c0.8,0.9,1.2,2.2,1.2,3.9v9.1h-4.8v-8.2c0-1.6-0.7-2.4-2-2.4c-0.7,0-1.3,0.2-1.7,0.7c-0.4,0.4-0.6,1.1-0.6,2v7.9H0.9z"/>
	<path class="st1" d="M20.8,50.3c-0.5,0.5-1.1,0.7-1.9,0.7s-1.4-0.2-1.9-0.7s-0.8-1.1-0.8-1.8c0-0.7,0.3-1.3,0.8-1.8
		s1.1-0.7,1.9-0.7s1.4,0.2,1.9,0.7c0.5,0.5,0.8,1.1,0.8,1.8C21.5,49.3,21.3,49.9,20.8,50.3z M16.5,66.4v-14h4.8v14H16.5z"/>
	<path class="st1" d="M29.8,66.7c-2.3,0-4.1-0.6-5.5-1.9c-1.4-1.3-2.1-3-2.1-5.3v-0.2c0-2.2,0.7-4,2.2-5.3c1.4-1.3,3.3-2,5.4-2
		c2.1,0,3.8,0.6,5.1,1.8c1.3,1.2,2,3,2,5.4v1.3H27c0.1,0.9,0.4,1.6,0.9,2.2c0.5,0.5,1.2,0.8,2.1,0.8c1.4,0,2.2-0.6,2.4-1.7h4.5
		c-0.2,1.6-0.9,2.8-2.1,3.7C33.6,66.3,31.9,66.7,29.8,66.7z M27.1,57.8h5.1c-0.1-1.8-0.9-2.6-2.5-2.6c-0.7,0-1.3,0.2-1.8,0.7
		S27.2,57,27.1,57.8z"/>
	<path class="st1" d="M42.3,66.7c-1.4,0-2.6-0.4-3.4-1.3c-0.9-0.9-1.3-2.2-1.3-3.9v-9.1h4.8v8.4c0,1.6,0.7,2.4,2,2.4
		c0.8,0,1.3-0.2,1.8-0.7c0.4-0.4,0.6-1.1,0.6-2v-8.1h4.8v14h-4.8v-2.2C45.8,65.9,44.4,66.7,42.3,66.7z"/>
	<path class="st1" d="M56.1,66.4l-4.2-14h5l2,8.4l2.4-8.4h3.9l2.1,8.4l2.3-8.4H74l-4.5,14H65l-2.1-7.8l-2.2,7.8H56.1z"/>
	<path class="st1" d="M80.6,66.7c-2.3,0-4.1-0.6-5.5-1.9c-1.4-1.3-2.1-3-2.1-5.3v-0.2c0-2.2,0.7-4,2.2-5.3c1.4-1.3,3.3-2,5.4-2
		c2.1,0,3.8,0.6,5.1,1.8c1.3,1.2,2,3,2,5.4v1.3h-9.9c0.1,0.9,0.4,1.6,0.9,2.2c0.5,0.5,1.2,0.8,2.1,0.8c1.4,0,2.2-0.6,2.4-1.7h4.5
		c-0.2,1.6-0.9,2.8-2.1,3.7C84.3,66.3,82.7,66.7,80.6,66.7z M77.9,57.8H83c-0.1-1.8-0.9-2.6-2.5-2.6c-0.7,0-1.3,0.2-1.8,0.7
		S78,57,77.9,57.8z"/>
</g>
<g>
	<path class="st0" d="M11.1,88.5c-1.1,0.8-2.7,1.2-4.7,1.2c-2,0-3.6-0.4-4.7-1.2c-1.1-0.8-1.7-2-1.8-3.6h4.4
		c0.1,0.5,0.3,0.9,0.6,1.2c0.3,0.3,0.8,0.4,1.4,0.4c1.1,0,1.7-0.4,1.7-1.2c0-0.3-0.2-0.6-0.6-0.8c-0.4-0.2-1.1-0.3-2-0.5
		c-1.9-0.2-3.3-0.7-4.1-1.4c-0.8-0.7-1.2-1.7-1.2-3.1c0-1.5,0.6-2.6,1.7-3.4C3,75.4,4.5,75,6.2,75c3.8,0,5.9,1.5,6.2,4.5H8
		c-0.2-0.9-0.8-1.4-1.8-1.4c-0.5,0-0.9,0.1-1.2,0.3c-0.3,0.2-0.4,0.5-0.4,0.8c0,0.3,0.2,0.6,0.5,0.7s1,0.3,1.8,0.4
		c2,0.2,3.5,0.7,4.4,1.4s1.4,1.7,1.4,3.2C12.8,86.5,12.2,87.7,11.1,88.5z"/>
	<path class="st0" d="M13.4,94.1V75.4h4.8v2.1c1-1.6,2.4-2.5,4.4-2.5c1.7,0,3.1,0.6,4.2,1.9c1.1,1.3,1.7,3.1,1.7,5.4v0.2
		c0,2.3-0.6,4.1-1.7,5.4s-2.5,1.9-4.3,1.9c-1,0-1.9-0.2-2.7-0.7s-1.3-1-1.7-1.7v6.8H13.4z M18.8,85.1c0.5,0.6,1.2,0.9,2.1,0.9
		s1.6-0.3,2.1-0.9c0.5-0.6,0.7-1.5,0.7-2.7v-0.2c0-1.2-0.2-2.1-0.7-2.7c-0.5-0.6-1.2-0.9-2-0.9s-1.6,0.3-2.1,0.9
		c-0.5,0.6-0.7,1.5-0.7,2.7v0.2C18.1,83.6,18.3,84.5,18.8,85.1z"/>
	<path class="st0" d="M36.2,89.7c-2.3,0-4.1-0.6-5.5-1.9c-1.4-1.3-2.1-3-2.1-5.3v-0.2c0-2.2,0.7-4,2.2-5.3c1.4-1.3,3.3-2,5.4-2
		c2.1,0,3.8,0.6,5.1,1.8c1.3,1.2,2,3,2,5.4v1.3h-9.9c0.1,0.9,0.4,1.6,0.9,2.2c0.5,0.5,1.2,0.8,2.1,0.8c1.4,0,2.2-0.6,2.4-1.7h4.5
		c-0.2,1.6-0.9,2.8-2.1,3.7C40,89.3,38.3,89.7,36.2,89.7z M33.5,80.8h5.1c-0.1-1.8-0.9-2.6-2.5-2.6c-0.7,0-1.3,0.2-1.8,0.7
		C33.9,79.3,33.6,80,33.5,80.8z"/>
	<path class="st0" d="M48.7,89.7c-1.4,0-2.6-0.4-3.4-1.3c-0.9-0.9-1.3-2.2-1.3-3.9v-9.1h4.8v8.4c0,1.6,0.7,2.4,2,2.4
		c0.8,0,1.3-0.2,1.8-0.7c0.4-0.4,0.6-1.1,0.6-2v-8.1h4.8v14h-4.8v-2.2C52.3,88.9,50.8,89.7,48.7,89.7z"/>
	<path class="st0" d="M59.5,89.4v-14h4.8v2.8c0.9-2,2.4-3,4.5-3v4.5c-3-0.1-4.5,0.9-4.5,3.1v6.6H59.5z"/>
	<path class="st0" d="M69.6,89.4V69.2h4.8v8.4c0.4-0.8,1-1.4,1.8-1.9C77,75.3,77.9,75,79,75c1.4,0,2.5,0.4,3.4,1.3
		c0.8,0.9,1.2,2.2,1.2,3.9v9.1h-4.8v-8.2c0-1.6-0.7-2.4-2-2.4c-0.7,0-1.3,0.2-1.7,0.7c-0.4,0.4-0.6,1.1-0.6,2v7.9H69.6z"/>
	<path class="st0" d="M97.4,87.8c-1.4,1.3-3.3,2-5.5,2c-2.2,0-4-0.6-5.5-1.9c-1.4-1.3-2.2-3-2.2-5.2v-0.2c0-2.2,0.7-4,2.2-5.3
		c1.5-1.3,3.3-2,5.5-2c2.2,0,4,0.7,5.5,2c1.4,1.3,2.2,3.1,2.2,5.2v0.2C99.6,84.7,98.9,86.4,97.4,87.8z M92,86.2c0.9,0,1.6-0.3,2.1-1
		c0.5-0.6,0.7-1.5,0.7-2.7v-0.2c0-2.4-0.9-3.7-2.8-3.7c-0.9,0-1.6,0.3-2.1,0.9c-0.5,0.6-0.7,1.5-0.7,2.7v0.2
		C89.2,84.9,90.1,86.2,92,86.2z"/>
	<path class="st0" d="M100.3,89.4v-14h4.8v2.3c0.4-0.8,1-1.4,1.8-1.9c0.8-0.5,1.7-0.7,2.8-0.7c1.4,0,2.5,0.4,3.4,1.3
		c0.8,0.9,1.2,2.2,1.2,3.9v9.1h-4.8v-8.2c0-1.6-0.7-2.4-2-2.4c-0.7,0-1.3,0.2-1.7,0.7c-0.4,0.4-0.6,1.1-0.6,2v7.9H100.3z"/>
</g>
<g>
	<path class="st0" d="M115.6,83.6v-3.6h7.5v3.6H115.6z"/>
</g>
<g>
	<path class="st0" d="M6.1,112.7c-1.7,0-3.1-0.6-4.2-1.8c-1.1-1.2-1.7-3-1.7-5.3v-0.2c0-2.3,0.6-4.1,1.7-5.4C3,98.6,4.5,98,6.2,98
		c2,0,3.4,0.8,4.3,2.4v-8.2h4.8v20.2h-4.8v-2.3c-0.4,0.8-0.9,1.4-1.7,1.9C8,112.5,7.2,112.7,6.1,112.7z M7.8,109.1
		c0.9,0,1.6-0.3,2.1-0.9c0.5-0.6,0.7-1.5,0.7-2.7v-0.2c0-1.2-0.2-2.1-0.7-2.7c-0.5-0.6-1.2-0.9-2.1-0.9c-1.8,0-2.8,1.2-2.8,3.6v0.2
		c0,1.2,0.2,2,0.7,2.7C6.3,108.7,7,109.1,7.8,109.1z"/>
	<path class="st0" d="M23.7,112.7c-2.3,0-4.1-0.6-5.5-1.9c-1.4-1.3-2.1-3-2.1-5.3v-0.2c0-2.2,0.7-4,2.2-5.3c1.4-1.3,3.3-2,5.4-2
		c2.1,0,3.8,0.6,5.1,1.8c1.3,1.2,2,3,2,5.4v1.3h-9.9c0.1,0.9,0.4,1.6,0.9,2.2c0.5,0.5,1.2,0.8,2.1,0.8c1.4,0,2.2-0.6,2.4-1.7h4.5
		c-0.2,1.6-0.9,2.8-2.1,3.7C27.4,112.3,25.8,112.7,23.7,112.7z M21,103.8h5.1c-0.1-1.8-0.9-2.6-2.5-2.6c-0.7,0-1.3,0.2-1.8,0.7
		C21.4,102.3,21.1,103,21,103.8z"/>
	<path class="st0" d="M31.5,112.4v-14h4.8v2.3c0.4-0.8,1-1.4,1.8-1.9c0.8-0.5,1.7-0.7,2.8-0.7c1.4,0,2.5,0.4,3.4,1.3
		s1.2,2.2,1.2,3.9v9.1h-4.8v-8.2c0-1.6-0.7-2.4-2-2.4c-0.7,0-1.3,0.2-1.7,0.7c-0.4,0.4-0.6,1.1-0.6,2v7.9H31.5z"/>
</g>
<g>
	<path class="st1" d="M51.8,111.9c-0.6,0.5-1.2,0.8-2,0.8c-0.8,0-1.5-0.3-2-0.8c-0.6-0.5-0.8-1.1-0.8-1.9c0-0.7,0.3-1.4,0.8-1.9
		c0.6-0.5,1.2-0.8,2-0.8c0.8,0,1.5,0.3,2,0.8c0.6,0.5,0.8,1.2,0.8,1.9C52.7,110.8,52.4,111.4,51.8,111.9z M47.8,106.1l-0.7-12.9h5.4
		l-0.7,12.9H47.8z"/>
</g>
</svg>
