<?xml version="1.0" encoding="utf-8"?>
<!-- Generator: Adobe Illustrator 24.0.0, SVG Export Plug-In . SVG Version: 6.00 Build 0)  -->
<svg version="1.1" id="Laag_1" xmlns="http://www.w3.org/2000/svg" xmlns:xlink="http://www.w3.org/1999/xlink" x="0px" y="0px"
	 width="285.9px" height="71.5px" viewBox="0 0 285.9 71.5" style="enable-background:new 0 0 285.9 71.5;" xml:space="preserve">
<style type="text/css">
	.st0{fill:#FFFFFF;}
</style>
<g>
	<g>
		<g>
			<path class="st0" d="M4.6,22.3h10.1v3H0V23L10,8.7V8.5H0.6v-3h14.1v2.2L4.6,22V22.3z"/>
			<path class="st0" d="M35.7,21.8l1.3,2.2c-0.2,0.4-0.6,0.7-1.1,1.1s-1.1,0.5-1.8,0.5c-1,0-1.8-0.3-2.5-0.8c-0.6-0.5-1-1.2-1.1-2.2
				c-1.7,2-3.9,3-6.7,3c-1.9,0-3.5-0.5-4.7-1.4c-1.2-0.9-1.9-2.3-1.9-4.1c0-2,0.8-3.5,2.4-4.6c1.6-1.1,3.8-1.7,6.6-1.9l3.7-0.3v-0.5
				c0-1.5-0.4-2.7-1.1-3.6c-0.7-0.9-1.7-1.3-3.1-1.3c-1.3,0-2.3,0.4-3,1.1s-1.1,1.7-1.3,2.7h-3.3C18.2,9.8,19,8.2,20.4,7
				c1.4-1.2,3.1-1.9,5.3-1.9c2.3,0,4.1,0.7,5.5,2.1c1.4,1.4,2.1,3.3,2.1,5.7v7.6c0,1.4,0.4,2.1,1.3,2.1
				C34.9,22.7,35.3,22.4,35.7,21.8z M24.2,22.7c1.5,0,2.8-0.5,4-1.4c1.1-0.9,1.7-2.3,1.7-4.1v-1.4l-3.3,0.2
				c-1.9,0.2-3.3,0.6-4.4,1.2c-1,0.7-1.5,1.5-1.5,2.6c0,0.9,0.3,1.7,1,2.1C22.4,22.5,23.2,22.7,24.2,22.7z"/>
			<path class="st0" d="M51.2,25.2V6.9h-5V4h2.3c2,0,3-0.9,3-2.8V0h3.2v25.2H51.2z"/>
			<path class="st0" d="M77.4,16.6v3H73v5.6h-3.4v-5.6H58v-2.3L68.6,0H73v16.6H77.4z M62,16.6h7.6V4.2h-0.4L62,16.6z"/>
			<path class="st0" d="M15.3,33.5h3.5v28h-2.6l-0.6-2.8h-0.4C13.8,60.9,11.7,62,9,62c-2.6,0-4.8-1-6.5-2.9C0.9,57.2,0,54.7,0,51.7
				c0-3,0.9-5.5,2.6-7.4c1.7-1.9,3.9-2.9,6.5-2.9c3,0,5,1.1,6.2,3.3V33.5z M5.2,56.8c1.1,1.3,2.6,2,4.3,2c1.8,0,3.2-0.7,4.3-2
				c1.1-1.3,1.6-3,1.6-5.1c0-2.1-0.5-3.8-1.6-5.1c-1.1-1.3-2.5-1.9-4.3-1.9c-1.8,0-3.2,0.7-4.4,2c-1.1,1.3-1.7,3-1.7,5.1
				C3.5,53.8,4,55.5,5.2,56.8z"/>
			<path class="st0" d="M31.5,41.5c2.8,0,5,0.9,6.7,2.8c1.7,1.9,2.4,4.6,2.2,8.2H25.5c0.1,2,0.7,3.6,1.8,4.7s2.6,1.8,4.5,1.8
				c1.2,0,2.2-0.3,3.2-0.8c0.9-0.5,1.6-1.3,2.1-2.3h3.3c-0.5,2-1.5,3.5-3.1,4.5c-1.6,1.1-3.4,1.6-5.5,1.6c-3,0-5.3-0.9-7.1-2.8
				c-1.7-1.9-2.6-4.4-2.6-7.5c0-2.9,0.9-5.4,2.7-7.3C26.5,42.4,28.8,41.5,31.5,41.5z M25.6,49.8h11.5c-0.1-1.5-0.6-2.8-1.6-3.9
				c-1-1.1-2.3-1.6-4-1.6c-1.6,0-2.9,0.5-4,1.5S25.9,48.1,25.6,49.8z"/>
			<path class="st0" d="M61.5,54.8c-0.3,2.1-1.3,3.8-2.9,5.2c-1.7,1.3-3.7,2-6,2c-3.1,0-5.5-1-7.2-2.9c-1.7-1.9-2.6-4.4-2.6-7.3
				c0-2.9,0.9-5.3,2.8-7.3c1.9-2,4.2-3,7-3c2.4,0,4.5,0.7,6.1,2.1c1.7,1.4,2.6,3.2,2.8,5.4H58c-0.2-1.3-0.8-2.3-1.8-3.2
				c-1-0.8-2.2-1.3-3.8-1.3c-1.8,0-3.3,0.7-4.5,2c-1.1,1.4-1.7,3.1-1.7,5.1c0,2.1,0.5,3.9,1.6,5.2c1.1,1.3,2.6,2,4.7,2
				c1.4,0,2.6-0.4,3.6-1.1s1.6-1.8,1.9-3H61.5z"/>
		</g>
	</g>
	<g>
		<g>
			<path class="st0" d="M215.6,5.8c2.1,0,3.7,0.7,4.9,2c1.2,1.4,1.8,3.4,1.8,6v12h-3.6V14c0-1.7-0.4-2.9-1.1-3.8
				c-0.8-0.9-1.8-1.3-3-1.3c-1.2,0-2.2,0.5-3.1,1.4c-0.9,0.9-1.3,2.2-1.3,3.8v11.7h-3.6V14.3c0-1.7-0.4-3-1.2-3.9
				c-0.8-0.9-1.8-1.4-2.9-1.4c-1.2,0-2.2,0.4-3.1,1.3c-0.9,0.9-1.3,2.1-1.3,3.8v11.8h-3.6V6.1h2.7l0.6,2.5h0.3
				c0.5-0.8,1.2-1.5,2.2-2c0.9-0.6,2-0.8,3.3-0.8c1.4,0,2.6,0.4,3.6,1.1c1,0.7,1.7,1.6,2,2.6h0.3c0.5-1,1.3-1.9,2.3-2.6
				C212.8,6.1,214.1,5.8,215.6,5.8z"/>
			<path class="st0" d="M244.1,22.4l1.3,2.2c-0.2,0.4-0.6,0.7-1.1,1.1c-0.5,0.4-1.1,0.5-1.8,0.5c-1,0-1.8-0.3-2.5-0.8
				c-0.6-0.5-1-1.2-1.1-2.2c-1.7,2-3.9,3-6.7,3c-1.9,0-3.5-0.5-4.7-1.4s-1.9-2.3-1.9-4.1c0-2,0.8-3.5,2.4-4.6
				c1.6-1.1,3.8-1.7,6.6-1.9l3.7-0.3v-0.5c0-1.5-0.4-2.7-1.1-3.6s-1.7-1.3-3.1-1.3c-1.3,0-2.3,0.4-3,1.1s-1.1,1.7-1.3,2.7h-3.3
				c0.2-1.9,0.9-3.5,2.3-4.7s3.1-1.9,5.3-1.9c2.3,0,4.1,0.7,5.5,2.1c1.4,1.4,2.1,3.3,2.1,5.7v7.6c0,1.4,0.4,2.1,1.3,2.1
				C243.3,23.3,243.7,23,244.1,22.4z M232.6,23.3c1.5,0,2.8-0.5,4-1.4c1.1-0.9,1.7-2.3,1.7-4.1v-1.4l-3.3,0.2
				c-1.9,0.2-3.3,0.6-4.4,1.2c-1,0.7-1.5,1.5-1.5,2.6c0,0.9,0.3,1.7,1,2.1S231.6,23.3,232.6,23.3z"/>
			<path class="st0" d="M260.1,25.8V7.5h-5V4.6h2.3c2,0,3-0.9,3-2.8V0.6h3.2v25.2H260.1z"/>
			<path class="st0" d="M280.7,12.5c1.3,0.4,2.4,1.2,3.2,2.3c0.8,1.1,1.2,2.4,1.2,3.9c0,2.2-0.8,4-2.3,5.4c-1.5,1.4-3.6,2.1-6.2,2.1
				c-2.7,0-4.7-0.7-6.2-2.1c-1.5-1.4-2.3-3.3-2.4-5.7h3.4c0.1,1.3,0.6,2.4,1.5,3.2c0.9,0.9,2.1,1.3,3.6,1.3c1.4,0,2.6-0.4,3.5-1.2
				c0.9-0.8,1.4-1.9,1.4-3.3c0-1.3-0.4-2.4-1.3-3.2c-0.9-0.8-2.1-1.3-3.7-1.3H275v-3h1.3c1.3,0,2.4-0.4,3.1-1.1
				c0.8-0.7,1.2-1.7,1.2-2.8c0-1.1-0.4-2-1.1-2.7s-1.7-1.1-3-1.1c-1.2,0-2.2,0.3-3,1c-0.8,0.7-1.2,1.6-1.3,2.8h-3.5
				c0-2,0.8-3.7,2.3-5c1.5-1.3,3.4-2,5.6-2c2.1,0,3.8,0.6,5.2,1.9s2.1,2.8,2.1,4.6c0,2.5-1.1,4.4-3.3,5.6V12.5z"/>
			<path class="st0" d="M248.7,57.3c0,0.7,0.1,1.2,0.4,1.5s0.7,0.4,1.4,0.4v2.9h-0.6c-2.1,0-3.3-0.9-3.8-2.7
				c-0.8,0.9-1.7,1.7-2.9,2.2c-1.2,0.6-2.5,0.8-3.8,0.8c-1.9,0-3.5-0.5-4.7-1.4c-1.2-0.9-1.9-2.3-1.9-4.1c0-2,0.8-3.5,2.4-4.6
				c1.6-1.1,3.8-1.7,6.6-1.9l3.7-0.3v-0.5c0-1.5-0.4-2.7-1.1-3.6c-0.7-0.9-1.7-1.3-3.1-1.3c-1.3,0-2.3,0.4-3,1.1s-1.1,1.7-1.3,2.7
				h-3.3c0.2-1.9,0.9-3.5,2.3-4.7c1.4-1.2,3.1-1.9,5.3-1.9c2.3,0,4.1,0.7,5.5,2.1c1.4,1.4,2.1,3.3,2.1,5.7V57.3z M239.7,59.7
				c1.5,0,2.8-0.5,4-1.4c1.1-0.9,1.7-2.3,1.7-4.1v-1.4l-3.3,0.2c-1.9,0.2-3.3,0.6-4.4,1.2c-1,0.7-1.5,1.5-1.5,2.6
				c0,0.9,0.3,1.7,1,2.1S238.7,59.7,239.7,59.7z"/>
			<path class="st0" d="M263,42.1c2.6,0,4.8,1,6.5,2.9c1.7,1.9,2.6,4.4,2.6,7.4s-0.9,5.5-2.6,7.4c-1.7,1.9-3.9,2.9-6.5,2.9
				c-3,0-5-1.1-6.2-3.3V70h-3.5V42.5h2.6l0.6,2.8h0.4C258.2,43.1,260.3,42.1,263,42.1z M262.5,59.4c1.8,0,3.2-0.7,4.4-2
				c1.1-1.3,1.7-3,1.7-5.1s-0.6-3.8-1.7-5.1c-1.1-1.3-2.6-2-4.3-2s-3.2,0.7-4.3,2c-1.1,1.3-1.6,3-1.6,5.1c0,2.1,0.5,3.8,1.6,5.1
				C259.3,58.8,260.8,59.4,262.5,59.4z"/>
			<path class="st0" d="M284.7,42.1h1.3v3.5c-0.4-0.1-0.9-0.2-1.6-0.2c-1.5,0-2.8,0.5-3.9,1.6c-1.1,1.1-1.6,2.7-1.6,4.9v10.2h-3.6
				V42.5h2.7l0.6,2.8h0.3C280.3,43.1,282.3,42.1,284.7,42.1z"/>
		</g>
	</g>
	<rect x="88.4" y="12.8" class="st0" width="94.6" height="1.8"/>
</g>
</svg>
