<?xml version="1.0" encoding="utf-8"?>
<!-- Generator: Adobe Illustrator 24.0.0, SVG Export Plug-In . SVG Version: 6.00 Build 0)  -->
<svg version="1.1" id="Laag_1" xmlns="http://www.w3.org/2000/svg" xmlns:xlink="http://www.w3.org/1999/xlink" x="0px" y="0px"
	 width="164.7px" height="73.2px" viewBox="0 0 164.7 73.2" style="enable-background:new 0 0 164.7 73.2;" xml:space="preserve">
<style type="text/css">
	.st0{fill:#FFFFFF;}
</style>
<g>
	<path class="st0" d="M1.5,1.9H10c0.9,0,1.7,0.1,2.5,0.3c0.8,0.2,1.4,0.6,2,1s1,1,1.3,1.6s0.5,1.4,0.5,2.2c0,1-0.3,1.9-0.8,2.7
		c-0.5,0.7-1.3,1.3-2.3,1.6v0.1c0.8,0.3,1.4,0.7,1.8,1.2c0.4,0.5,0.7,1.2,0.8,2.1c0.1,0.6,0.2,1.2,0.2,1.7c0,0.6,0.1,1.1,0.1,1.5
		c0,0.4,0.1,0.8,0.2,1.1c0.1,0.3,0.2,0.5,0.3,0.5v0.2h-4.3c-0.1-0.1-0.2-0.2-0.3-0.5c-0.1-0.3-0.1-0.6-0.1-1c0-0.4-0.1-0.8-0.1-1.3
		c0-0.5-0.1-0.9-0.2-1.4c-0.1-0.8-0.4-1.5-0.9-1.9c-0.5-0.4-1.2-0.7-2.1-0.7H5.9v6.7H1.5V1.9z M9.2,9.8c0.9,0,1.5-0.2,2-0.6
		c0.4-0.4,0.7-0.9,0.7-1.6c0-0.6-0.2-1.2-0.6-1.6c-0.4-0.4-1.1-0.6-1.9-0.6H5.9v4.4H9.2z"/>
	<path class="st0" d="M24.2,20.2c-1,0-2-0.2-2.8-0.5c-0.8-0.3-1.6-0.8-2.2-1.4s-1.1-1.3-1.4-2.2c-0.3-0.8-0.5-1.7-0.5-2.7
		s0.2-1.9,0.5-2.7c0.3-0.8,0.8-1.5,1.4-2.2c0.6-0.6,1.3-1.1,2.2-1.4c0.8-0.3,1.8-0.5,2.8-0.5c1,0,2,0.2,2.8,0.5
		c0.8,0.3,1.6,0.8,2.1,1.4c0.6,0.6,1.1,1.3,1.4,2.2c0.3,0.8,0.5,1.7,0.5,2.7s-0.2,1.9-0.5,2.7c-0.3,0.8-0.8,1.5-1.4,2.2
		c-0.6,0.6-1.3,1.1-2.1,1.4C26.2,20,25.2,20.2,24.2,20.2z M24.2,17.3c0.9,0,1.6-0.4,2-1.1c0.5-0.7,0.7-1.6,0.7-2.8
		c0-1.2-0.2-2.1-0.7-2.8c-0.5-0.7-1.1-1.1-2-1.1s-1.6,0.4-2,1.1c-0.5,0.7-0.7,1.7-0.7,2.8c0,1.2,0.2,2.1,0.7,2.8
		C22.6,16.9,23.3,17.3,24.2,17.3z"/>
	<path class="st0" d="M37.2,19.9c-0.6,0-1.1-0.1-1.6-0.2c-0.5-0.1-0.9-0.3-1.3-0.6c-0.4-0.3-0.6-0.6-0.9-1.1c-0.2-0.5-0.3-1-0.3-1.7
		V9.5h-1.7V7h1.7v-4h4v4h2.3v2.5h-2.3v6c0,0.5,0.1,0.8,0.4,1c0.3,0.2,0.6,0.2,1,0.2c0.2,0,0.4,0,0.5,0c0.2,0,0.3,0,0.4,0v3
		c-0.2,0-0.5,0.1-0.8,0.1C38.2,19.9,37.8,19.9,37.2,19.9z"/>
	<path class="st0" d="M40.9,1.9H45v6.7h0.1c0.5-0.6,1-1.1,1.6-1.4c0.6-0.3,1.3-0.5,2.2-0.5c0.7,0,1.3,0.1,1.9,0.4
		c0.6,0.2,1,0.6,1.4,1c0.4,0.4,0.7,0.9,0.9,1.5c0.2,0.6,0.3,1.2,0.3,2v8.3h-4.1v-7.5c0-0.7-0.2-1.2-0.5-1.7
		c-0.3-0.4-0.8-0.6-1.5-0.6c-0.7,0-1.2,0.2-1.6,0.8c-0.4,0.5-0.6,1.2-0.6,2v7.1h-4.1V1.9z"/>
	<path class="st0" d="M55.2,1.9h4v9.4L63,7h4.7l-4.5,4.8l5,8h-4.7l-3.1-5.2l-1.2,1.3v3.9h-4V1.9z"/>
	<path class="st0" d="M74.5,20.2c-1,0-2-0.2-2.8-0.5c-0.8-0.3-1.6-0.8-2.2-1.4s-1.1-1.3-1.4-2.2c-0.3-0.8-0.5-1.7-0.5-2.7
		s0.2-1.9,0.5-2.7c0.3-0.8,0.8-1.5,1.4-2.2c0.6-0.6,1.3-1.1,2.2-1.4c0.8-0.3,1.8-0.5,2.8-0.5c1,0,2,0.2,2.8,0.5
		c0.8,0.3,1.6,0.8,2.1,1.4c0.6,0.6,1.1,1.3,1.4,2.2c0.3,0.8,0.5,1.7,0.5,2.7s-0.2,1.9-0.5,2.7c-0.3,0.8-0.8,1.5-1.4,2.2
		c-0.6,0.6-1.3,1.1-2.1,1.4C76.4,20,75.5,20.2,74.5,20.2z M74.4,17.3c0.9,0,1.6-0.4,2-1.1c0.5-0.7,0.7-1.6,0.7-2.8
		c0-1.2-0.2-2.1-0.7-2.8c-0.5-0.7-1.1-1.1-2-1.1s-1.6,0.4-2,1.1c-0.5,0.7-0.7,1.7-0.7,2.8c0,1.2,0.2,2.1,0.7,2.8
		C72.9,16.9,73.5,17.3,74.4,17.3z"/>
</g>
<g>
	<path class="st0" d="M7.2,50.1c-1,0-1.9-0.1-2.7-0.4c-0.8-0.3-1.5-0.6-2-1.1c-0.5-0.5-0.9-1-1.2-1.7c-0.3-0.6-0.4-1.3-0.4-2.1
		c0-0.7,0.1-1.3,0.3-1.8c0.2-0.5,0.5-1,0.8-1.4c0.3-0.4,0.8-0.8,1.2-1.1c0.5-0.3,1-0.6,1.5-0.9c-0.4-0.5-0.8-1-1-1.6
		c-0.2-0.5-0.4-1.2-0.4-1.9c0-0.6,0.1-1.2,0.4-1.7c0.2-0.5,0.6-1,1-1.4c0.4-0.4,1-0.7,1.6-0.9c0.6-0.2,1.3-0.3,2.1-0.3
		c0.7,0,1.4,0.1,2,0.3s1.2,0.5,1.6,0.9c0.5,0.4,0.8,0.8,1.1,1.3c0.2,0.5,0.4,1.1,0.4,1.8c0,0.5-0.1,1-0.3,1.5
		c-0.2,0.4-0.4,0.8-0.7,1.2c-0.3,0.3-0.6,0.6-1.1,0.9c-0.4,0.3-0.8,0.5-1.3,0.7l2.1,2.7c0.2-0.3,0.3-0.7,0.4-1.1
		c0.1-0.4,0.2-0.8,0.3-1.2h3.5c-0.1,0.9-0.3,1.7-0.6,2.6c-0.3,0.9-0.8,1.7-1.3,2.5l3.1,3.8h-5l-0.9-1.1c-0.7,0.4-1.4,0.8-2.2,1
		C8.8,50,8,50.1,7.2,50.1z M7.3,46.8c0.9,0,1.7-0.3,2.4-0.8l-3-3.9c-0.6,0.4-1.1,0.8-1.3,1.2C5.2,43.7,5,44.2,5,44.7
		c0,0.6,0.2,1.1,0.6,1.5S6.7,46.8,7.3,46.8z M8.4,38.3c0.5-0.3,0.9-0.6,1.1-1c0.2-0.4,0.3-0.7,0.3-1.2c0-0.4-0.1-0.7-0.4-1
		s-0.6-0.4-1-0.4c-0.4,0-0.7,0.1-1,0.4c-0.2,0.3-0.4,0.6-0.4,1c0,0.4,0.1,0.8,0.4,1.1C7.8,37.6,8.1,38,8.4,38.3z"/>
	<path class="st0" d="M22.8,31.9h8c1.1,0,2.1,0.1,2.9,0.4c0.8,0.3,1.5,0.7,2,1.2c0.6,0.5,1,1.2,1.3,1.9s0.5,1.6,0.5,2.5
		c0,0.9-0.1,1.6-0.4,2.4c-0.3,0.7-0.7,1.3-1.2,1.8s-1.2,0.9-1.9,1.2c-0.8,0.3-1.6,0.4-2.5,0.4h-4.2v6h-4.5V31.9z M30.6,40.3
		c0.8,0,1.4-0.2,1.9-0.7c0.4-0.4,0.6-1,0.6-1.7s-0.2-1.3-0.6-1.7c-0.4-0.4-1.1-0.6-1.9-0.6h-3.3v4.7H30.6z"/>
	<path class="st0" d="M44.6,50.2c-1.1,0-2-0.2-2.9-0.5c-0.9-0.3-1.6-0.8-2.1-1.4c-0.6-0.6-1-1.3-1.4-2.2c-0.3-0.8-0.5-1.7-0.5-2.7
		c0-1,0.2-1.8,0.5-2.7c0.3-0.8,0.8-1.5,1.4-2.1c0.6-0.6,1.3-1.1,2.1-1.4c0.8-0.3,1.7-0.5,2.7-0.5c0.9,0,1.7,0.1,2.5,0.4
		s1.4,0.7,1.9,1.2c0.8,0.7,1.3,1.6,1.7,2.7c0.4,1.1,0.6,2.3,0.5,3.6h-9.2c0.1,0.9,0.4,1.5,0.9,2s1.1,0.8,2,0.8c0.5,0,1-0.1,1.3-0.3
		c0.4-0.2,0.6-0.5,0.8-0.9h4c-0.1,0.6-0.4,1.1-0.8,1.7c-0.4,0.5-0.8,1-1.4,1.4c-0.5,0.4-1.1,0.7-1.8,0.9
		C46.2,50.1,45.4,50.2,44.6,50.2z M46.8,42c-0.1-0.8-0.3-1.4-0.8-1.8c-0.4-0.5-1-0.7-1.7-0.7c-0.8,0-1.4,0.2-1.8,0.7
		c-0.4,0.4-0.7,1.1-0.8,1.8H46.8z"/>
	<path class="st0" d="M57.2,49.9c-0.6,0-1.1-0.1-1.6-0.2c-0.5-0.1-0.9-0.3-1.3-0.6c-0.4-0.3-0.6-0.6-0.9-1.1c-0.2-0.5-0.3-1-0.3-1.7
		v-6.9h-1.7V37h1.7v-4h4v4h2.3v2.5h-2.3v6c0,0.5,0.1,0.8,0.4,1c0.3,0.2,0.6,0.2,1,0.2c0.2,0,0.4,0,0.5,0c0.2,0,0.3,0,0.4,0v3
		c-0.2,0-0.5,0.1-0.8,0.1C58.2,49.9,57.7,49.9,57.2,49.9z"/>
	<path class="st0" d="M67,50.2c-1.1,0-2-0.2-2.9-0.5c-0.9-0.3-1.6-0.8-2.1-1.4c-0.6-0.6-1-1.3-1.4-2.2c-0.3-0.8-0.5-1.7-0.5-2.7
		c0-1,0.2-1.8,0.5-2.7c0.3-0.8,0.8-1.5,1.4-2.1c0.6-0.6,1.3-1.1,2.1-1.4c0.8-0.3,1.7-0.5,2.7-0.5c0.9,0,1.7,0.1,2.5,0.4
		s1.4,0.7,1.9,1.2c0.8,0.7,1.3,1.6,1.7,2.7c0.4,1.1,0.6,2.3,0.5,3.6h-9.2c0.1,0.9,0.4,1.5,0.9,2s1.1,0.8,2,0.8c0.5,0,1-0.1,1.3-0.3
		c0.4-0.2,0.6-0.5,0.8-0.9h4c-0.1,0.6-0.4,1.1-0.8,1.7c-0.4,0.5-0.8,1-1.4,1.4c-0.5,0.4-1.1,0.7-1.8,0.9
		C68.6,50.1,67.8,50.2,67,50.2z M69.2,42c-0.1-0.8-0.3-1.4-0.8-1.8c-0.4-0.5-1-0.7-1.7-0.7c-0.8,0-1.4,0.2-1.8,0.7
		c-0.4,0.4-0.7,1.1-0.8,1.8H69.2z"/>
	<path class="st0" d="M74.7,37h3.9v2h0.1c0.4-0.8,0.9-1.3,1.5-1.7c0.5-0.4,1.2-0.5,2-0.5c0.4,0,0.6,0,0.8,0.1v3.5h-0.1
		c-1.2-0.2-2.2,0-3,0.6c-0.7,0.6-1.1,1.6-1.1,3v5.8h-4.1V37z"/>
</g>
<g>
	<path class="st0" d="M0.9,61.7c0-0.5,0.1-0.9,0.4-1.2c0.2-0.3,0.5-0.4,0.9-0.5v0.6C2,60.7,1.9,60.8,1.8,61
		c-0.1,0.2-0.2,0.4-0.2,0.7h0.6v1.5H0.9V61.7z M3.2,61.7c0-0.5,0.1-0.9,0.4-1.2c0.2-0.3,0.5-0.4,0.9-0.5v0.6C4.3,60.7,4.1,60.8,4,61
		c-0.1,0.2-0.2,0.4-0.2,0.7h0.6v1.5H3.2V61.7z"/>
	<path class="st0" d="M6.1,60.1h1.3v10.7H6.1V60.1z"/>
	<path class="st0" d="M11.7,66.6l-1.1,1.1v3.1H9.3V60.1h1.2v6.3l3.4-3.3h1.5l-3,2.8l3.3,5h-1.4L11.7,66.6z"/>
	<path class="st0" d="M18.2,63h1.3l1.6,4.9c0,0.2,0.1,0.4,0.2,0.5c0.1,0.2,0.1,0.4,0.2,0.5c0.1,0.2,0.1,0.4,0.2,0.6h0
		c0-0.2,0.1-0.4,0.2-0.6c0-0.2,0.1-0.3,0.2-0.5c0.1-0.2,0.1-0.4,0.2-0.5l1.6-4.9h1.3l-2.8,7.8H21L18.2,63z"/>
	<path class="st0" d="M29.1,71c-0.6,0-1.1-0.1-1.6-0.3s-0.9-0.5-1.2-0.9c-0.3-0.4-0.6-0.8-0.8-1.3c-0.2-0.5-0.3-1-0.3-1.6
		c0-0.6,0.1-1.1,0.3-1.6s0.4-0.9,0.8-1.3c0.3-0.4,0.7-0.7,1.2-0.9c0.5-0.2,1-0.3,1.6-0.3c0.6,0,1.1,0.1,1.6,0.3
		c0.5,0.2,0.9,0.5,1.2,0.9c0.3,0.4,0.6,0.8,0.7,1.3c0.2,0.5,0.3,1,0.3,1.6c0,0.6-0.1,1.1-0.3,1.6c-0.2,0.5-0.4,0.9-0.7,1.3
		c-0.3,0.4-0.7,0.7-1.2,0.9C30.2,70.9,29.7,71,29.1,71z M29.1,70c0.4,0,0.8-0.1,1.1-0.2c0.3-0.2,0.6-0.4,0.8-0.7
		c0.2-0.3,0.4-0.6,0.5-1s0.2-0.8,0.2-1.2c0-0.4-0.1-0.8-0.2-1.2c-0.1-0.4-0.3-0.7-0.5-1s-0.5-0.5-0.8-0.7c-0.3-0.2-0.7-0.2-1.1-0.2
		c-0.4,0-0.8,0.1-1.1,0.2c-0.3,0.2-0.6,0.4-0.8,0.7s-0.4,0.6-0.5,1c-0.1,0.4-0.2,0.8-0.2,1.2c0,0.4,0.1,0.8,0.2,1.2s0.3,0.7,0.5,1
		c0.2,0.3,0.5,0.5,0.8,0.7C28.3,69.9,28.7,70,29.1,70z"/>
	<path class="st0" d="M35.3,64.1L35.3,64.1c0.3-0.4,0.6-0.7,1-0.9s0.9-0.3,1.4-0.3c0.8,0,1.4,0.2,1.9,0.6c0.5,0.4,0.7,1,0.7,1.9v5.4
		h-1.2v-5.3c0-0.5-0.2-0.9-0.5-1.2c-0.3-0.3-0.7-0.4-1.3-0.4c-0.3,0-0.6,0.1-0.9,0.2c-0.3,0.1-0.5,0.2-0.7,0.4
		c-0.2,0.2-0.3,0.4-0.4,0.7c-0.1,0.3-0.2,0.6-0.2,0.9v4.8h-1.2V63h1.2V64.1z"/>
	<path class="st0" d="M45,71c-0.5,0-1-0.1-1.4-0.3c-0.4-0.2-0.8-0.5-1.1-0.8c-0.3-0.4-0.5-0.8-0.7-1.3c-0.2-0.5-0.2-1.1-0.2-1.7
		c0-0.6,0.1-1.2,0.3-1.7s0.4-0.9,0.7-1.3c0.3-0.3,0.7-0.6,1.1-0.8c0.4-0.2,0.9-0.3,1.3-0.3c0.5,0,1,0.1,1.4,0.4s0.7,0.5,1,0.9h0
		v-4.1h1.2v10.7h-1.2v-0.9h0c-0.3,0.4-0.6,0.7-1,0.9C46,70.9,45.5,71,45,71z M45,70c0.4,0,0.8-0.1,1.1-0.2s0.6-0.4,0.8-0.6
		c0.2-0.3,0.3-0.6,0.4-1c0.1-0.4,0.1-0.8,0.1-1.2c0-0.5-0.1-0.9-0.2-1.2s-0.3-0.7-0.5-1c-0.2-0.3-0.5-0.5-0.8-0.6
		c-0.3-0.2-0.7-0.2-1.1-0.2c-0.4,0-0.7,0.1-1,0.2c-0.3,0.2-0.5,0.4-0.7,0.6s-0.3,0.6-0.4,1s-0.1,0.8-0.1,1.2c0,0.4,0,0.8,0.1,1.2
		s0.2,0.7,0.4,1c0.2,0.3,0.4,0.5,0.7,0.6C44.3,69.9,44.7,70,45,70z"/>
	<path class="st0" d="M56,71c-0.6,0-1.1-0.1-1.6-0.3c-0.5-0.2-0.9-0.5-1.2-0.9c-0.3-0.4-0.6-0.8-0.7-1.3c-0.2-0.5-0.3-1-0.3-1.6
		c0-0.6,0.1-1.1,0.3-1.6s0.4-0.9,0.8-1.3c0.3-0.4,0.7-0.7,1.2-0.9c0.5-0.2,1-0.3,1.5-0.3c0.6,0,1.1,0.1,1.5,0.3
		c0.4,0.2,0.8,0.5,1.1,0.9c0.3,0.4,0.5,0.8,0.7,1.4c0.2,0.5,0.2,1.1,0.2,1.8h-6c0,0.4,0.1,0.8,0.2,1.1c0.1,0.3,0.3,0.6,0.5,0.9
		c0.2,0.3,0.5,0.4,0.8,0.6c0.3,0.1,0.6,0.2,1,0.2c0.6,0,1-0.1,1.4-0.4c0.4-0.3,0.6-0.7,0.8-1.2h1.2c-0.2,0.8-0.6,1.5-1.1,1.9
		C57.6,70.8,56.9,71,56,71z M55.9,63.8c-0.4,0-0.7,0.1-1,0.2c-0.3,0.1-0.5,0.3-0.7,0.5c-0.2,0.2-0.4,0.5-0.5,0.8
		c-0.1,0.3-0.2,0.6-0.2,1h4.7c0-0.8-0.3-1.4-0.6-1.8C57.2,64,56.6,63.8,55.9,63.8z"/>
	<path class="st0" d="M61.9,64.3L61.9,64.3c0.3-0.4,0.6-0.7,1-1c0.4-0.3,0.9-0.4,1.4-0.4c0.1,0,0.2,0,0.3,0c0.1,0,0.1,0,0.2,0.1v1.2
		h0c-0.1,0-0.2,0-0.2-0.1c-0.1,0-0.2,0-0.3,0c-0.3,0-0.6,0.1-0.9,0.2c-0.3,0.1-0.5,0.3-0.7,0.5c-0.2,0.2-0.4,0.4-0.5,0.7
		c-0.1,0.3-0.2,0.6-0.2,1v4.3h-1.2V63h1.2V64.3z"/>
	<path class="st0" d="M69.4,64.1L69.4,64.1c0.3-0.4,0.6-0.7,1-0.9s0.9-0.3,1.4-0.3c0.8,0,1.4,0.2,1.9,0.6c0.5,0.4,0.7,1,0.7,1.9v5.4
		h-1.2v-5.3c0-0.5-0.2-0.9-0.5-1.2c-0.3-0.3-0.7-0.4-1.3-0.4c-0.3,0-0.6,0.1-0.9,0.2c-0.3,0.1-0.5,0.2-0.7,0.4
		c-0.2,0.2-0.3,0.4-0.4,0.7c-0.1,0.3-0.2,0.6-0.2,0.9v4.8h-1.2V63h1.2V64.1z"/>
	<path class="st0" d="M76.1,60.1h1.2v1.5h-1.2V60.1z M76.1,63h1.2v7.8h-1.2V63z"/>
	<path class="st0" d="M82.3,71c-0.6,0-1.1-0.1-1.6-0.3c-0.5-0.2-0.9-0.5-1.2-0.9c-0.3-0.4-0.6-0.8-0.7-1.3c-0.2-0.5-0.3-1-0.3-1.6
		c0-0.6,0.1-1.1,0.3-1.6s0.4-0.9,0.8-1.3c0.3-0.4,0.7-0.7,1.2-0.9c0.5-0.2,1-0.3,1.5-0.3c0.6,0,1.1,0.1,1.5,0.3
		c0.4,0.2,0.8,0.5,1.1,0.9c0.3,0.4,0.5,0.8,0.7,1.4c0.2,0.5,0.2,1.1,0.2,1.8h-6c0,0.4,0.1,0.8,0.2,1.1c0.1,0.3,0.3,0.6,0.5,0.9
		c0.2,0.3,0.5,0.4,0.8,0.6c0.3,0.1,0.6,0.2,1,0.2c0.6,0,1-0.1,1.4-0.4c0.4-0.3,0.6-0.7,0.8-1.2h1.2c-0.2,0.8-0.6,1.5-1.1,1.9
		C83.9,70.8,83.2,71,82.3,71z M82.2,63.8c-0.4,0-0.7,0.1-1,0.2c-0.3,0.1-0.5,0.3-0.7,0.5c-0.2,0.2-0.4,0.5-0.5,0.8
		c-0.1,0.3-0.2,0.6-0.2,1h4.7c0-0.8-0.3-1.4-0.6-1.8C83.5,64,82.9,63.8,82.2,63.8z"/>
	<path class="st0" d="M86.3,63h1.1v-2.4h1.2V63h1.5v1h-1.5v5c0,0.3,0.1,0.5,0.2,0.6c0.1,0.1,0.3,0.2,0.6,0.2c0.1,0,0.2,0,0.4,0
		c0.1,0,0.2,0,0.3-0.1h0v1.1c-0.1,0-0.3,0.1-0.5,0.1c-0.2,0-0.3,0-0.5,0c-0.5,0-0.9-0.1-1.2-0.3c-0.3-0.2-0.5-0.6-0.5-1.2V64h-1.1
		V63z"/>
	<path class="st0" d="M94.4,71c-1.1,0-1.9-0.2-2.5-0.7c-0.6-0.5-0.9-1.2-1-2h1.2c0,0.3,0.1,0.6,0.3,0.8c0.1,0.2,0.3,0.4,0.5,0.5
		c0.2,0.1,0.4,0.2,0.7,0.3c0.2,0.1,0.5,0.1,0.8,0.1c0.6,0,1.1-0.1,1.4-0.4c0.3-0.2,0.4-0.5,0.4-0.9c0-0.2,0-0.4-0.1-0.5
		c-0.1-0.1-0.2-0.3-0.4-0.4c-0.2-0.1-0.4-0.2-0.6-0.3c-0.3-0.1-0.6-0.1-0.9-0.2c-0.4-0.1-0.7-0.2-1.1-0.3c-0.4-0.1-0.7-0.2-0.9-0.4
		c-0.3-0.2-0.5-0.4-0.6-0.7c-0.2-0.3-0.2-0.6-0.2-1c0-0.6,0.2-1.2,0.7-1.6c0.5-0.4,1.2-0.6,2.1-0.6c1,0,1.7,0.2,2.2,0.6
		c0.5,0.4,0.8,1,0.9,1.8h-1.2c-0.1-0.5-0.2-0.9-0.5-1.1c-0.3-0.2-0.7-0.4-1.3-0.4c-0.6,0-1,0.1-1.2,0.3c-0.2,0.2-0.4,0.5-0.4,0.8
		c0,0.2,0,0.4,0.1,0.5c0.1,0.1,0.2,0.2,0.4,0.3s0.4,0.2,0.7,0.2c0.3,0.1,0.6,0.1,0.9,0.2c0.4,0.1,0.8,0.2,1.1,0.3s0.6,0.2,0.9,0.4
		c0.3,0.2,0.5,0.4,0.6,0.7c0.1,0.3,0.2,0.6,0.2,1.1c0,0.4-0.1,0.7-0.2,1s-0.4,0.5-0.6,0.7c-0.3,0.2-0.6,0.3-1,0.4S94.8,71,94.4,71z"
		/>
	<path class="st0" d="M107.1,70.9c-0.8,0-1.2-0.4-1.3-1.2h0c-0.1,0.2-0.3,0.3-0.4,0.4c-0.2,0.1-0.3,0.3-0.6,0.4s-0.4,0.2-0.7,0.3
		c-0.3,0.1-0.6,0.1-0.9,0.1c-0.4,0-0.7,0-1-0.1c-0.3-0.1-0.6-0.2-0.8-0.4c-0.2-0.2-0.4-0.4-0.6-0.7c-0.1-0.3-0.2-0.6-0.2-1
		c0-0.5,0.1-0.8,0.3-1.1c0.2-0.3,0.4-0.5,0.7-0.7c0.3-0.2,0.7-0.3,1.1-0.4c0.4-0.1,0.9-0.2,1.3-0.3c0.3,0,0.5-0.1,0.8-0.1
		s0.4-0.1,0.6-0.2s0.3-0.2,0.4-0.3s0.1-0.3,0.1-0.5c0-0.4-0.2-0.8-0.5-1c-0.3-0.2-0.7-0.4-1.3-0.4c-0.6,0-1.1,0.1-1.4,0.4
		c-0.3,0.3-0.5,0.7-0.5,1.3h-1.2c0-0.4,0.1-0.7,0.2-1s0.3-0.6,0.6-0.8c0.3-0.2,0.6-0.4,1-0.5c0.4-0.1,0.8-0.2,1.3-0.2
		c0.4,0,0.8,0,1.1,0.1s0.7,0.2,0.9,0.4c0.3,0.2,0.5,0.4,0.6,0.8c0.1,0.3,0.2,0.7,0.2,1.2V69c0,0.3,0.1,0.6,0.2,0.7
		c0.1,0.2,0.3,0.2,0.7,0.1h0v0.9c-0.1,0-0.2,0.1-0.3,0.1C107.4,70.8,107.2,70.9,107.1,70.9z M103.4,70c0.4,0,0.8-0.1,1.1-0.2
		c0.3-0.1,0.5-0.3,0.7-0.5c0.2-0.2,0.3-0.4,0.4-0.7c0.1-0.2,0.1-0.5,0.1-0.7v-1.3c-0.2,0.1-0.5,0.2-0.8,0.3c-0.3,0.1-0.7,0.2-1,0.2
		c-0.3,0.1-0.6,0.1-0.9,0.2c-0.3,0.1-0.5,0.1-0.7,0.3c-0.2,0.1-0.4,0.3-0.5,0.4c-0.1,0.2-0.2,0.4-0.2,0.7c0,0.3,0,0.5,0.1,0.6
		c0.1,0.2,0.2,0.3,0.4,0.4c0.1,0.1,0.3,0.2,0.5,0.2S103.2,70,103.4,70z"/>
	<path class="st0" d="M114.7,70.9c-0.8,0-1.2-0.4-1.3-1.2h0c-0.1,0.2-0.3,0.3-0.4,0.4c-0.2,0.1-0.3,0.3-0.6,0.4s-0.4,0.2-0.7,0.3
		c-0.3,0.1-0.6,0.1-0.9,0.1c-0.4,0-0.7,0-1-0.1c-0.3-0.1-0.6-0.2-0.8-0.4c-0.2-0.2-0.4-0.4-0.6-0.7c-0.1-0.3-0.2-0.6-0.2-1
		c0-0.5,0.1-0.8,0.3-1.1c0.2-0.3,0.4-0.5,0.7-0.7c0.3-0.2,0.7-0.3,1.1-0.4c0.4-0.1,0.9-0.2,1.3-0.3c0.3,0,0.5-0.1,0.8-0.1
		s0.4-0.1,0.6-0.2s0.3-0.2,0.4-0.3s0.1-0.3,0.1-0.5c0-0.4-0.2-0.8-0.5-1c-0.3-0.2-0.7-0.4-1.3-0.4c-0.6,0-1.1,0.1-1.4,0.4
		c-0.3,0.3-0.5,0.7-0.5,1.3h-1.2c0-0.4,0.1-0.7,0.2-1s0.3-0.6,0.6-0.8c0.3-0.2,0.6-0.4,1-0.5c0.4-0.1,0.8-0.2,1.3-0.2
		c0.4,0,0.8,0,1.1,0.1s0.7,0.2,0.9,0.4c0.3,0.2,0.5,0.4,0.6,0.8c0.1,0.3,0.2,0.7,0.2,1.2V69c0,0.3,0.1,0.6,0.2,0.7
		c0.1,0.2,0.3,0.2,0.7,0.1h0v0.9c-0.1,0-0.2,0.1-0.3,0.1C115,70.8,114.9,70.9,114.7,70.9z M111.1,70c0.4,0,0.8-0.1,1.1-0.2
		c0.3-0.1,0.5-0.3,0.7-0.5c0.2-0.2,0.3-0.4,0.4-0.7c0.1-0.2,0.1-0.5,0.1-0.7v-1.3c-0.2,0.1-0.5,0.2-0.8,0.3c-0.3,0.1-0.7,0.2-1,0.2
		c-0.3,0.1-0.6,0.1-0.9,0.2c-0.3,0.1-0.5,0.1-0.7,0.3c-0.2,0.1-0.4,0.3-0.5,0.4c-0.1,0.2-0.2,0.4-0.2,0.7c0,0.3,0,0.5,0.1,0.6
		c0.1,0.2,0.2,0.3,0.4,0.4c0.1,0.1,0.3,0.2,0.5,0.2S110.9,70,111.1,70z"/>
	<path class="st0" d="M117.5,64.1L117.5,64.1c0.3-0.4,0.6-0.7,1-0.9s0.9-0.3,1.4-0.3c0.8,0,1.4,0.2,1.9,0.6c0.5,0.4,0.7,1,0.7,1.9
		v5.4h-1.2v-5.3c0-0.5-0.2-0.9-0.5-1.2c-0.3-0.3-0.7-0.4-1.3-0.4c-0.3,0-0.6,0.1-0.9,0.2c-0.3,0.1-0.5,0.2-0.7,0.4
		c-0.2,0.2-0.3,0.4-0.4,0.7c-0.1,0.3-0.2,0.6-0.2,0.9v4.8h-1.2V63h1.2V64.1z"/>
	<path class="st0" d="M124.9,61.6c0,0.5-0.1,0.9-0.4,1.2c-0.2,0.3-0.5,0.4-0.9,0.5v-0.6c0.2-0.1,0.3-0.2,0.4-0.4s0.2-0.4,0.2-0.7
		h-0.6v-1.5h1.3V61.6z M127.2,61.6c0,0.5-0.1,0.9-0.4,1.2c-0.2,0.3-0.5,0.4-0.9,0.5v-0.6c0.2-0.1,0.3-0.2,0.4-0.4
		c0.1-0.2,0.2-0.4,0.2-0.7h-0.6v-1.5h1.3V61.6z"/>
</g>
<polygon class="st0" points="89.8,26.3 89.8,29.4 87.1,27.8 85.7,30.2 88.4,31.8 85.7,33.4 87.1,35.8 89.8,34.2 89.8,37.4 
	92.6,37.4 92.6,34.2 95.3,35.8 96.7,33.4 94.9,31.8 96.7,30.2 95.3,27.8 92.6,29.4 92.6,26.3 "/>
</svg>
