<?xml version="1.0" encoding="utf-8"?>
<!-- Generator: Adobe Illustrator 22.1.0, SVG Export Plug-In . SVG Version: 6.00 Build 0)  -->
<svg version="1.1" id="Laag_1" xmlns="http://www.w3.org/2000/svg" xmlns:xlink="http://www.w3.org/1999/xlink" x="0px" y="0px"
	 width="568.1px" height="102.8px" viewBox="0 0 568.1 102.8" style="enable-background:new 0 0 568.1 102.8;" xml:space="preserve"
	>
<style type="text/css">
	.st0{fill:#FFFFFF;}
</style>
<g>
	<path class="st0" d="M3.4,34.8V2.1h4.2v14.2h18.7V2.1h4.2v32.7h-4.2V20.6H7.6v14.2H3.4z"/>
	<path class="st0" d="M39.1,31.9c-2.3-2.3-3.5-5.2-3.5-8.7s1.2-6.4,3.5-8.7c2.3-2.3,5.2-3.5,8.7-3.5c3.5,0,6.4,1.2,8.7,3.5
		c2.3,2.3,3.5,5.2,3.5,8.7s-1.2,6.4-3.5,8.7c-2.3,2.3-5.2,3.5-8.7,3.5C44.4,35.4,41.5,34.2,39.1,31.9z M53.7,29.2
		c1.5-1.6,2.2-3.6,2.2-6s-0.7-4.5-2.2-6c-1.5-1.6-3.4-2.3-5.8-2.3c-2.4,0-4.3,0.8-5.8,2.3c-1.5,1.6-2.2,3.6-2.2,6s0.7,4.5,2.2,6
		c1.5,1.6,3.4,2.3,5.8,2.3C50.3,31.5,52.2,30.7,53.7,29.2z"/>
	<path class="st0" d="M68.9,2.1v32.7h-4.1V2.1H68.9z"/>
	<path class="st0" d="M79.5,2.1v32.7h-4.1V2.1H79.5z"/>
	<path class="st0" d="M85.8,16.8c1-3.9,4.1-5.9,9.4-5.9c6.3,0,9.4,2.9,9.4,8.7v15.2h-4v-3.3c-1.7,2.5-4.3,3.8-7.7,3.8
		c-2.4,0-4.3-0.7-5.8-2c-1.4-1.3-2.2-3.1-2.2-5.3c0-2,0.7-3.6,2-4.9c1.3-1.3,3.2-2,5.5-2.3l6.6-0.7c1-0.1,1.5-0.5,1.5-1.3v-0.6
		c0-1.2-0.5-2.2-1.4-2.8c-0.9-0.7-2.2-1-3.8-1c-3.5,0-5.5,1.4-6,4.2L85.8,16.8z M100.5,23.6l-7.6,0.9c-1.2,0.1-2.1,0.5-2.8,1.1
		c-0.7,0.6-1,1.4-1,2.4c0,1.1,0.4,1.9,1.2,2.5c0.8,0.6,1.8,0.9,3.2,0.9c2,0,3.6-0.6,5-1.8c1.4-1.2,2.1-2.6,2.1-4.3V23.6z"/>
	<path class="st0" d="M110.1,34.8V11.5h3.9v3.6c1.7-2.8,4.3-4.2,7.8-4.2c2.7,0,4.9,0.9,6.4,2.6c1.5,1.7,2.3,4.2,2.3,7.3v14.1h-4.1
		V20.9c0-2-0.5-3.6-1.5-4.6c-1-1.1-2.4-1.6-4.3-1.6c-4.4,0-6.5,3.1-6.5,9.3v10.9H110.1z"/>
	<path class="st0" d="M158.7,2.1v32.7h-4v-3.4c-2,2.6-4.7,3.9-8.2,3.9c-3.3,0-6-1.1-8.1-3.4c-2.1-2.3-3.2-5.2-3.2-8.8
		s1.1-6.6,3.2-8.8c2.1-2.3,4.8-3.4,8.1-3.4c3.3,0,6,1.3,8.2,4V2.1H158.7z M152.9,16.9c-1.4-1.5-3.3-2.3-5.7-2.3s-4.3,0.8-5.7,2.3
		c-1.4,1.5-2.1,3.6-2.1,6.2s0.7,4.6,2.1,6.2c1.4,1.5,3.3,2.3,5.7,2.3s4.3-0.8,5.7-2.3c1.4-1.5,2.1-3.6,2.1-6.2
		S154.3,18.5,152.9,16.9z"/>
	<path class="st0" d="M164.5,17.8c0-2.1,0.8-3.8,2.4-5c1.6-1.2,3.7-1.9,6.4-1.9c4.3,0,7.3,1.7,9.2,5l-3.3,2.1
		c-1.2-2.3-3.2-3.4-6.1-3.4c-1.4,0-2.5,0.3-3.3,0.8c-0.8,0.5-1.3,1.3-1.3,2.2c0,0.9,0.4,1.6,1.2,2c0.8,0.4,2.2,0.9,4.4,1.4
		c1.2,0.3,2.1,0.6,2.8,0.7c0.7,0.2,1.4,0.5,2.2,0.9c0.8,0.4,1.4,0.8,1.9,1.2c0.4,0.4,0.8,1,1.1,1.7c0.3,0.7,0.4,1.5,0.4,2.5
		c0,2.3-0.8,4.1-2.4,5.4c-1.6,1.3-3.8,1.9-6.6,1.9c-2.4,0-4.5-0.5-6.4-1.4c-1.8-1-3.1-2.3-4-4l3.3-2.1c1.2,2.6,3.6,3.8,7.1,3.8
		c3.2,0,4.8-1.1,4.8-3.3c0-0.7-0.2-1.3-0.7-1.7c-0.5-0.4-1-0.8-1.6-1c-0.6-0.2-1.6-0.5-2.9-0.8c-1.1-0.2-2-0.5-2.6-0.7
		c-0.7-0.2-1.4-0.5-2.3-0.9c-0.9-0.4-1.6-0.8-2.1-1.3c-0.5-0.5-0.9-1.1-1.3-1.8C164.6,19.6,164.5,18.7,164.5,17.8z"/>
	<path class="st0" d="M185,23.3c0-3.5,1.1-6.5,3.2-8.9s4.9-3.6,8.4-3.6c3.6,0,6.3,1.1,8.3,3.4c2,2.3,2.9,5.2,2.9,8.8v1.2h-18.7v0
		c0.1,2.3,0.9,4,2.4,5.3c1.4,1.3,3.2,1.9,5.3,1.9c2.9,0,5.4-1.2,7.4-3.6l2.1,3.1c-2.5,2.8-5.6,4.2-9.3,4.2c-3.6,0-6.4-1.1-8.6-3.3
		C186.1,29.9,185,27,185,23.3z M203.4,21.1c-0.2-2-0.9-3.6-2-4.8c-1.2-1.2-2.7-1.7-4.8-1.7c-2.1,0-3.8,0.6-5,1.7
		c-1.2,1.2-2,2.7-2.3,4.8H203.4z"/>
	<path class="st0" d="M245,15.5c2.1-3.1,5-4.6,8.7-4.6c6,0,9.1,3.5,9.1,10.5v13.5h-4.1v-14c0-4.1-1.8-6.2-5.4-6.2
		c-4.6,0-6.9,3.1-6.9,9.3v10.9h-4v-14c0-4.1-1.8-6.2-5.5-6.2c-4.5,0-6.8,3.1-6.8,9.3v10.9h-4V11.5h3.9v3.7c1.5-2.9,3.9-4.3,7.4-4.3
		C241,10.9,243.5,12.4,245,15.5z"/>
	<path class="st0" d="M267.4,23.3c0-3.5,1.1-6.5,3.2-8.9c2.1-2.4,4.9-3.6,8.4-3.6c3.6,0,6.3,1.1,8.3,3.4c2,2.3,2.9,5.2,2.9,8.8v1.2
		h-18.7v0c0.1,2.3,0.9,4,2.4,5.3c1.4,1.3,3.2,1.9,5.3,1.9c2.9,0,5.4-1.2,7.4-3.6l2.1,3.1c-2.5,2.8-5.6,4.2-9.3,4.2
		c-3.6,0-6.4-1.1-8.6-3.3C268.5,29.9,267.4,27,267.4,23.3z M285.7,21.1c-0.2-2-0.9-3.6-2-4.8c-1.2-1.2-2.7-1.7-4.8-1.7
		c-2.1,0-3.8,0.6-5,1.7c-1.2,1.2-2,2.7-2.3,4.8H285.7z"/>
	<path class="st0" d="M292.9,23.3c0-3.5,1.1-6.5,3.2-8.9s4.9-3.6,8.4-3.6c3.6,0,6.3,1.1,8.3,3.4c2,2.3,2.9,5.2,2.9,8.8v1.2H297v0
		c0.1,2.3,0.9,4,2.4,5.3c1.4,1.3,3.2,1.9,5.3,1.9c2.9,0,5.4-1.2,7.4-3.6l2.1,3.1c-2.5,2.8-5.6,4.2-9.3,4.2c-3.6,0-6.4-1.1-8.6-3.3
		C294,29.9,292.9,27,292.9,23.3z M311.3,21.1c-0.2-2-0.9-3.6-2-4.8c-1.2-1.2-2.7-1.7-4.8-1.7c-2.1,0-3.8,0.6-5,1.7
		c-1.2,1.2-2,2.7-2.3,4.8H311.3z"/>
	<path class="st0" d="M319.6,17.8c0-2.1,0.8-3.8,2.4-5c1.6-1.2,3.7-1.9,6.4-1.9c4.3,0,7.3,1.7,9.2,5l-3.3,2.1
		c-1.2-2.3-3.2-3.4-6.1-3.4c-1.4,0-2.5,0.3-3.3,0.8c-0.8,0.5-1.3,1.3-1.3,2.2c0,0.9,0.4,1.6,1.2,2c0.8,0.4,2.2,0.9,4.4,1.4
		c1.2,0.3,2.1,0.6,2.8,0.7c0.7,0.2,1.4,0.5,2.2,0.9c0.8,0.4,1.4,0.8,1.9,1.2c0.4,0.4,0.8,1,1.1,1.7s0.4,1.5,0.4,2.5
		c0,2.3-0.8,4.1-2.4,5.4c-1.6,1.3-3.8,1.9-6.6,1.9c-2.4,0-4.5-0.5-6.4-1.4c-1.8-1-3.1-2.3-4-4l3.3-2.1c1.2,2.6,3.6,3.8,7.1,3.8
		c3.2,0,4.8-1.1,4.8-3.3c0-0.7-0.2-1.3-0.7-1.7c-0.5-0.4-1-0.8-1.6-1c-0.6-0.2-1.6-0.5-2.9-0.8c-1.1-0.2-2-0.5-2.6-0.7
		c-0.7-0.2-1.4-0.5-2.3-0.9c-0.9-0.4-1.6-0.8-2.1-1.3c-0.5-0.5-0.9-1.1-1.3-1.8C319.7,19.6,319.6,18.7,319.6,17.8z"/>
	<path class="st0" d="M354.5,34.5c-1.4,0.4-2.7,0.6-4,0.6c-2.2,0-3.8-0.5-4.9-1.6c-1.1-1-1.6-2.8-1.6-5.2V15h-4.6v-3.5h4.6V5.2h4
		v6.3h6.4V15h-6.4v13.5c0,1.9,0.9,2.8,2.7,2.8c1.2,0,2.4-0.1,3.8-0.4V34.5z"/>
	<path class="st0" d="M356.6,23.3c0-3.5,1.1-6.5,3.2-8.9s4.9-3.6,8.4-3.6c3.6,0,6.3,1.1,8.3,3.4c2,2.3,2.9,5.2,2.9,8.8v1.2h-18.7v0
		c0.1,2.3,0.9,4,2.4,5.3c1.4,1.3,3.2,1.9,5.3,1.9c2.9,0,5.4-1.2,7.4-3.6l2.1,3.1c-2.5,2.8-5.6,4.2-9.3,4.2c-3.6,0-6.4-1.1-8.6-3.3
		C357.7,29.9,356.6,27,356.6,23.3z M375,21.1c-0.2-2-0.9-3.6-2-4.8c-1.2-1.2-2.7-1.7-4.8-1.7c-2.1,0-3.8,0.6-5,1.7
		c-1.2,1.2-2,2.7-2.3,4.8H375z"/>
	<path class="st0" d="M387.9,15c1.5-2.7,3.9-4.1,7.1-4.1c0.7,0,1.4,0.1,2.3,0.2v4.3c-0.8-0.2-1.6-0.3-2.3-0.3
		c-2.5,0-4.3,0.8-5.3,2.3c-1,1.5-1.6,3.7-1.6,6.5v10.9h-4V11.5h3.9V15z"/>
	<path class="st0" d="M422.5,34.8l-10.3-23.4h4.7l7.1,17.8l7.2-17.8h4.7l-10.3,23.4H422.5z"/>
	<path class="st0" d="M438.3,16.8c1-3.9,4.1-5.9,9.4-5.9c6.3,0,9.4,2.9,9.4,8.7v15.2h-4v-3.3c-1.7,2.5-4.3,3.8-7.7,3.8
		c-2.4,0-4.3-0.7-5.8-2c-1.4-1.3-2.2-3.1-2.2-5.3c0-2,0.7-3.6,2-4.9c1.3-1.3,3.2-2,5.5-2.3l6.6-0.7c1-0.1,1.5-0.5,1.5-1.3v-0.6
		c0-1.2-0.5-2.2-1.4-2.8c-0.9-0.7-2.2-1-3.8-1c-3.5,0-5.5,1.4-6,4.2L438.3,16.8z M453,23.6l-7.6,0.9c-1.2,0.1-2.1,0.5-2.8,1.1
		c-0.7,0.6-1,1.4-1,2.4c0,1.1,0.4,1.9,1.2,2.5s1.8,0.9,3.2,0.9c2,0,3.6-0.6,5-1.8c1.4-1.2,2.1-2.6,2.1-4.3V23.6z"/>
	<path class="st0" d="M462.6,34.8V11.5h3.9v3.6c1.7-2.8,4.3-4.2,7.8-4.2c2.7,0,4.9,0.9,6.4,2.6c1.5,1.7,2.3,4.2,2.3,7.3v14.1h-4.1
		V20.9c0-2-0.5-3.6-1.5-4.6c-1-1.1-2.4-1.6-4.3-1.6c-4.4,0-6.5,3.1-6.5,9.3v10.9H462.6z"/>
	<path class="st0" d="M507.2,2.1V15c1.7-2.7,4.2-4.1,7.6-4.1c2.8,0,5,0.9,6.5,2.7s2.3,4.3,2.3,7.5v13.7h-4.1V20.9
		c0-2-0.5-3.5-1.4-4.6c-1-1.1-2.3-1.7-4-1.7c-4.5,0-6.8,3.1-6.8,9.3v10.9h-4V2.1H507.2z"/>
	<path class="st0" d="M528.2,23.3c0-3.5,1.1-6.5,3.2-8.9c2.1-2.4,4.9-3.6,8.4-3.6c3.6,0,6.3,1.1,8.3,3.4c2,2.3,2.9,5.2,2.9,8.8v1.2
		h-18.7v0c0.1,2.3,0.9,4,2.4,5.3c1.4,1.3,3.2,1.9,5.3,1.9c2.9,0,5.4-1.2,7.4-3.6l2.1,3.1c-2.5,2.8-5.6,4.2-9.3,4.2
		c-3.6,0-6.4-1.1-8.6-3.3C529.3,29.9,528.2,27,528.2,23.3z M546.6,21.1c-0.2-2-0.9-3.6-2-4.8c-1.2-1.2-2.7-1.7-4.8-1.7
		c-2.1,0-3.8,0.6-5,1.7c-1.2,1.2-2,2.7-2.3,4.8H546.6z"/>
	<path class="st0" d="M567.2,34.5c-1.4,0.4-2.7,0.6-4,0.6c-2.2,0-3.8-0.5-4.9-1.6c-1.1-1-1.6-2.8-1.6-5.2V15h-4.6v-3.5h4.6V5.2h4
		v6.3h6.4V15h-6.4v13.5c0,1.9,0.9,2.8,2.7,2.8c1.2,0,2.4-0.1,3.8-0.4V34.5z"/>
</g>
<g>
	<path class="st0" d="M3.4,90.9V58.2h4.2v32.7H3.4z"/>
	<path class="st0" d="M27.1,90.5c-1.4,0.4-2.7,0.6-4,0.6c-2.2,0-3.8-0.5-4.9-1.6c-1.1-1-1.6-2.8-1.6-5.2V71H12v-3.5h4.6v-6.3h4v6.3
		h6.4V71h-6.4v13.5c0,1.9,0.9,2.8,2.7,2.8c1.2,0,2.4-0.1,3.8-0.4V90.5z"/>
	<path class="st0" d="M30.8,72.8c1-3.9,4.1-5.9,9.4-5.9c6.3,0,9.4,2.9,9.4,8.7v15.2h-4v-3.3c-1.7,2.5-4.3,3.8-7.7,3.8
		c-2.4,0-4.3-0.7-5.8-2C30.7,88,30,86.3,30,84.1c0-2,0.7-3.6,2-4.9c1.3-1.3,3.2-2,5.5-2.3l6.6-0.7c1-0.1,1.5-0.5,1.5-1.3v-0.6
		c0-1.2-0.5-2.2-1.4-2.8c-0.9-0.7-2.2-1-3.8-1c-3.5,0-5.5,1.4-6,4.2L30.8,72.8z M45.6,79.7L38,80.6c-1.2,0.1-2.1,0.5-2.8,1.1
		c-0.7,0.6-1,1.4-1,2.4c0,1.1,0.4,1.9,1.2,2.5s1.8,0.9,3.2,0.9c2,0,3.6-0.6,5-1.8c1.4-1.2,2.1-2.6,2.1-4.3V79.7z"/>
	<path class="st0" d="M59.3,58.2v32.7h-4.1V58.2H59.3z"/>
	<path class="st0" d="M70.4,63.1C69.8,63.7,69,64,68.1,64s-1.7-0.3-2.3-0.9s-0.9-1.4-0.9-2.3s0.3-1.7,0.9-2.3
		c0.6-0.6,1.4-0.9,2.3-0.9s1.7,0.3,2.3,0.9c0.6,0.6,0.9,1.4,0.9,2.3S71,62.5,70.4,63.1z M70.1,67.5v23.4h-4V67.5H70.1z"/>
	<path class="st0" d="M76.5,72.8c1-3.9,4.1-5.9,9.4-5.9c6.3,0,9.4,2.9,9.4,8.7v15.2h-4v-3.3c-1.7,2.5-4.3,3.8-7.7,3.8
		c-2.4,0-4.3-0.7-5.8-2c-1.4-1.3-2.2-3.1-2.2-5.3c0-2,0.7-3.6,2-4.9c1.3-1.3,3.2-2,5.5-2.3l6.6-0.7c1-0.1,1.5-0.5,1.5-1.3v-0.6
		c0-1.2-0.5-2.2-1.4-2.8c-0.9-0.7-2.2-1-3.8-1c-3.5,0-5.5,1.4-6,4.2L76.5,72.8z M91.3,79.7l-7.6,0.9c-1.2,0.1-2.1,0.5-2.8,1.1
		c-0.7,0.6-1,1.4-1,2.4c0,1.1,0.4,1.9,1.2,2.5c0.8,0.6,1.8,0.9,3.2,0.9c2,0,3.6-0.6,5-1.8c1.4-1.2,2.1-2.6,2.1-4.3V79.7z"/>
	<path class="st0" d="M100.6,72.8c1-3.9,4.1-5.9,9.4-5.9c6.3,0,9.4,2.9,9.4,8.7v15.2h-4v-3.3c-1.7,2.5-4.3,3.8-7.7,3.8
		c-2.4,0-4.3-0.7-5.8-2c-1.4-1.3-2.2-3.1-2.2-5.3c0-2,0.7-3.6,2-4.9c1.3-1.3,3.2-2,5.5-2.3l6.6-0.7c1-0.1,1.5-0.5,1.5-1.3v-0.6
		c0-1.2-0.5-2.2-1.4-2.8c-0.9-0.7-2.2-1-3.8-1c-3.5,0-5.5,1.4-6,4.2L100.6,72.8z M115.4,79.7l-7.6,0.9c-1.2,0.1-2.1,0.5-2.8,1.1
		c-0.7,0.6-1,1.4-1,2.4c0,1.1,0.4,1.9,1.2,2.5c0.8,0.6,1.8,0.9,3.2,0.9c2,0,3.6-0.6,5-1.8c1.4-1.2,2.1-2.6,2.1-4.3V79.7z"/>
	<path class="st0" d="M125,90.9V67.5h3.9v3.6c1.7-2.8,4.3-4.2,7.8-4.2c2.7,0,4.9,0.9,6.4,2.6c1.5,1.7,2.3,4.2,2.3,7.3v14.1h-4.1
		V76.9c0-2-0.5-3.6-1.5-4.6c-1-1.1-2.4-1.6-4.3-1.6c-4.4,0-6.5,3.1-6.5,9.3v10.9H125z"/>
	<path class="st0" d="M151.2,73.9c0-2.1,0.8-3.8,2.4-5c1.6-1.2,3.7-1.9,6.4-1.9c4.3,0,7.3,1.7,9.2,5l-3.3,2.1
		c-1.2-2.3-3.2-3.4-6.1-3.4c-1.4,0-2.5,0.3-3.3,0.8c-0.8,0.5-1.3,1.3-1.3,2.2c0,0.9,0.4,1.6,1.2,2c0.8,0.4,2.2,0.9,4.4,1.4
		c1.2,0.3,2.1,0.6,2.8,0.7c0.7,0.2,1.4,0.5,2.2,0.9c0.8,0.4,1.4,0.8,1.9,1.2c0.4,0.4,0.8,1,1.1,1.7s0.4,1.5,0.4,2.5
		c0,2.3-0.8,4.1-2.4,5.4c-1.6,1.3-3.8,1.9-6.6,1.9c-2.4,0-4.5-0.5-6.4-1.4c-1.8-1-3.1-2.3-4-4l3.3-2.1c1.2,2.6,3.6,3.8,7.1,3.8
		c3.2,0,4.8-1.1,4.8-3.3c0-0.7-0.2-1.3-0.7-1.7c-0.5-0.4-1-0.8-1.6-1c-0.6-0.2-1.6-0.5-2.9-0.8c-1.1-0.2-2-0.5-2.6-0.7
		c-0.7-0.2-1.4-0.5-2.3-0.9s-1.6-0.8-2.1-1.3c-0.5-0.5-0.9-1.1-1.3-1.8C151.3,75.6,151.2,74.8,151.2,73.9z"/>
	<path class="st0" d="M171.7,79.4c0-3.5,1.1-6.5,3.2-8.9s4.9-3.6,8.4-3.6c3.6,0,6.3,1.1,8.3,3.4c2,2.3,2.9,5.2,2.9,8.8v1.2h-18.7v0
		c0.1,2.3,0.9,4,2.4,5.3c1.4,1.3,3.2,1.9,5.3,1.9c2.9,0,5.4-1.2,7.4-3.6l2.1,3.1c-2.5,2.8-5.6,4.2-9.3,4.2c-3.6,0-6.4-1.1-8.6-3.3
		C172.8,86,171.7,83.1,171.7,79.4z M190.1,77.2c-0.2-2-0.9-3.6-2-4.8c-1.2-1.2-2.7-1.7-4.8-1.7c-2.1,0-3.8,0.6-5,1.7
		c-1.2,1.2-2,2.7-2.3,4.8H190.1z"/>
	<path class="st0" d="M211.9,73.9c0-2.1,0.8-3.8,2.4-5c1.6-1.2,3.7-1.9,6.4-1.9c4.3,0,7.3,1.7,9.2,5l-3.3,2.1
		c-1.2-2.3-3.2-3.4-6.1-3.4c-1.4,0-2.5,0.3-3.3,0.8c-0.8,0.5-1.3,1.3-1.3,2.2c0,0.9,0.4,1.6,1.2,2c0.8,0.4,2.2,0.9,4.4,1.4
		c1.2,0.3,2.1,0.6,2.8,0.7c0.7,0.2,1.4,0.5,2.2,0.9c0.8,0.4,1.4,0.8,1.9,1.2c0.4,0.4,0.8,1,1.1,1.7c0.3,0.7,0.4,1.5,0.4,2.5
		c0,2.3-0.8,4.1-2.4,5.4c-1.6,1.3-3.8,1.9-6.6,1.9c-2.4,0-4.5-0.5-6.4-1.4c-1.8-1-3.1-2.3-4-4l3.3-2.1c1.2,2.6,3.6,3.8,7.1,3.8
		c3.2,0,4.8-1.1,4.8-3.3c0-0.7-0.2-1.3-0.7-1.7c-0.5-0.4-1-0.8-1.6-1c-0.6-0.2-1.6-0.5-2.9-0.8c-1.1-0.2-2-0.5-2.6-0.7
		c-0.7-0.2-1.4-0.5-2.3-0.9s-1.6-0.8-2.1-1.3c-0.5-0.5-0.9-1.1-1.3-1.8C212.1,75.6,211.9,74.8,211.9,73.9z"/>
	<path class="st0" d="M246.8,90.5c-1.4,0.4-2.7,0.6-4,0.6c-2.2,0-3.8-0.5-4.9-1.6c-1.1-1-1.6-2.8-1.6-5.2V71h-4.6v-3.5h4.6v-6.3h4
		v6.3h6.4V71h-6.4v13.5c0,1.9,0.9,2.8,2.7,2.8c1.2,0,2.4-0.1,3.8-0.4V90.5z"/>
	<path class="st0" d="M250.5,72.8c1-3.9,4.1-5.9,9.4-5.9c6.3,0,9.4,2.9,9.4,8.7v15.2h-4v-3.3c-1.7,2.5-4.3,3.8-7.7,3.8
		c-2.4,0-4.3-0.7-5.8-2c-1.4-1.3-2.2-3.1-2.2-5.3c0-2,0.7-3.6,2-4.9c1.3-1.3,3.2-2,5.5-2.3l6.6-0.7c1-0.1,1.5-0.5,1.5-1.3v-0.6
		c0-1.2-0.5-2.2-1.4-2.8c-0.9-0.7-2.2-1-3.8-1c-3.5,0-5.5,1.4-6,4.2L250.5,72.8z M265.3,79.7l-7.6,0.9c-1.2,0.1-2.1,0.5-2.8,1.1
		c-0.7,0.6-1,1.4-1,2.4c0,1.1,0.4,1.9,1.2,2.5c0.8,0.6,1.8,0.9,3.2,0.9c2,0,3.6-0.6,5-1.8c1.4-1.2,2.1-2.6,2.1-4.3V79.7z"/>
	<path class="st0" d="M296.5,58.2v32.7h-4v-3.4c-2,2.6-4.7,3.9-8.2,3.9c-3.3,0-6-1.1-8.1-3.4c-2.1-2.3-3.2-5.2-3.2-8.8
		c0-3.6,1.1-6.6,3.2-8.8c2.1-2.3,4.8-3.4,8.1-3.4c3.3,0,6,1.3,8.2,4V58.2H296.5z M290.7,73c-1.4-1.5-3.3-2.3-5.7-2.3
		s-4.3,0.8-5.7,2.3s-2.1,3.6-2.1,6.2c0,2.6,0.7,4.6,2.1,6.2s3.3,2.3,5.7,2.3s4.3-0.8,5.7-2.3c1.4-1.5,2.1-3.6,2.1-6.2
		C292.8,76.6,292.1,74.5,290.7,73z"/>
	<path class="st0" d="M302.3,73.9c0-2.1,0.8-3.8,2.4-5c1.6-1.2,3.7-1.9,6.4-1.9c4.3,0,7.3,1.7,9.2,5l-3.3,2.1
		c-1.2-2.3-3.2-3.4-6.1-3.4c-1.4,0-2.5,0.3-3.3,0.8c-0.8,0.5-1.3,1.3-1.3,2.2c0,0.9,0.4,1.6,1.2,2c0.8,0.4,2.2,0.9,4.4,1.4
		c1.2,0.3,2.1,0.6,2.8,0.7c0.7,0.2,1.4,0.5,2.2,0.9c0.8,0.4,1.4,0.8,1.9,1.2c0.4,0.4,0.8,1,1.1,1.7c0.3,0.7,0.4,1.5,0.4,2.5
		c0,2.3-0.8,4.1-2.4,5.4c-1.6,1.3-3.8,1.9-6.6,1.9c-2.4,0-4.5-0.5-6.4-1.4c-1.8-1-3.1-2.3-4-4l3.3-2.1c1.2,2.6,3.6,3.8,7.1,3.8
		c3.2,0,4.8-1.1,4.8-3.3c0-0.7-0.2-1.3-0.7-1.7c-0.5-0.4-1-0.8-1.6-1c-0.6-0.2-1.6-0.5-2.9-0.8c-1.1-0.2-2-0.5-2.6-0.7
		c-0.7-0.2-1.4-0.5-2.3-0.9s-1.6-0.8-2.1-1.3c-0.5-0.5-0.9-1.1-1.3-1.8C302.5,75.6,302.3,74.8,302.3,73.9z"/>
	<path class="st0" d="M322.8,79.2c0-3.6,1.1-6.6,3.2-8.8c2.1-2.3,4.9-3.4,8.2-3.4c1.7,0,3.3,0.3,4.8,1c1.4,0.7,2.5,1.6,3.3,2.7v-3.2
		h4v22.1c0,3.7-1,6.5-2.9,8.4s-4.7,2.9-8.4,2.9c-5.1,0-8.6-1.9-10.6-5.7l3.1-2.5c1.6,3.1,4.2,4.7,7.8,4.7c4.7,0,7.1-2.6,7.1-7.7
		v-1.9c-0.8,1.2-1.9,2.1-3.4,2.7c-1.5,0.7-3.1,1-4.8,1c-3.5,0-6.3-1.1-8.3-3.3C323.9,85.9,322.8,82.9,322.8,79.2z M340.5,85.4
		c1.4-1.5,2.1-3.6,2.1-6.2c0-2.6-0.7-4.7-2.1-6.2c-1.4-1.5-3.2-2.3-5.6-2.3c-2.4,0-4.3,0.8-5.7,2.3c-1.5,1.6-2.2,3.6-2.2,6.2
		c0,2.6,0.7,4.6,2.2,6.2c1.5,1.6,3.4,2.3,5.7,2.3C337.3,87.7,339.2,86.9,340.5,85.4z"/>
	<path class="st0" d="M351,79.4c0-3.5,1.1-6.5,3.2-8.9c2.1-2.4,4.9-3.6,8.4-3.6c3.6,0,6.3,1.1,8.3,3.4c2,2.3,2.9,5.2,2.9,8.8v1.2
		h-18.7v0c0.1,2.3,0.9,4,2.4,5.3c1.4,1.3,3.2,1.9,5.3,1.9c2.9,0,5.4-1.2,7.4-3.6l2.1,3.1c-2.5,2.8-5.6,4.2-9.3,4.2
		c-3.6,0-6.4-1.1-8.6-3.3C352.1,86,351,83.1,351,79.4z M369.4,77.2c-0.2-2-0.9-3.6-2-4.8c-1.2-1.2-2.7-1.7-4.8-1.7
		c-2.1,0-3.8,0.6-5,1.7c-1.2,1.2-2,2.7-2.3,4.8H369.4z"/>
	<path class="st0" d="M394,67.5v3.6l-13,16h13.5v3.7h-18.4v-3.6l13-16h-12.6v-3.7H394z"/>
	<path class="st0" d="M403.7,63.1c-0.6,0.6-1.4,0.9-2.3,0.9c-0.9,0-1.7-0.3-2.3-0.9s-0.9-1.4-0.9-2.3s0.3-1.7,0.9-2.3
		c0.6-0.6,1.4-0.9,2.3-0.9c0.9,0,1.7,0.3,2.3,0.9c0.6,0.6,0.9,1.4,0.9,2.3S404.3,62.5,403.7,63.1z M403.4,67.5v23.4h-4V67.5H403.4z"
		/>
	<path class="st0" d="M411,88c-2.2-2.3-3.3-5.2-3.3-8.8c0-3.6,1.1-6.6,3.4-8.9c2.3-2.3,5.2-3.4,8.9-3.4c3.4,0,6.2,1.1,8.5,3.4
		l-2.6,3.1c-1.9-1.7-4-2.6-6.1-2.6c-2.4,0-4.3,0.8-5.7,2.3c-1.4,1.5-2.2,3.6-2.2,6c0,2.5,0.7,4.5,2.2,6c1.5,1.6,3.3,2.3,5.7,2.3
		s4.5-0.9,6.5-2.8l2.4,3.1c-2.3,2.3-5.3,3.5-8.9,3.5C416.1,91.4,413.2,90.3,411,88z"/>
	<path class="st0" d="M436.8,58.2v12.9c1.7-2.7,4.2-4.1,7.6-4.1c2.8,0,5,0.9,6.5,2.7c1.5,1.8,2.3,4.3,2.3,7.5v13.7H449V76.9
		c0-2-0.5-3.5-1.4-4.6c-1-1.1-2.3-1.7-4-1.7c-4.5,0-6.8,3.1-6.8,9.3v10.9h-4V58.2H436.8z"/>
	<path class="st0" d="M471.8,90.5c-1.4,0.4-2.7,0.6-4,0.6c-2.2,0-3.8-0.5-4.9-1.6c-1.1-1-1.6-2.8-1.6-5.2V71h-4.6v-3.5h4.6v-6.3h4
		v6.3h6.4V71h-6.4v13.5c0,1.9,0.9,2.8,2.7,2.8c1.2,0,2.4-0.1,3.8-0.4V90.5z"/>
</g>
</svg>
