<?xml version="1.0" encoding="utf-8"?>
<!-- Generator: Adobe Illustrator 24.0.0, SVG Export Plug-In . SVG Version: 6.00 Build 0)  -->
<svg version="1.1" id="Laag_1" xmlns="http://www.w3.org/2000/svg" xmlns:xlink="http://www.w3.org/1999/xlink" x="0px" y="0px"
	 width="104.5px" height="12.1px" viewBox="0 0 104.5 12.1" style="enable-background:new 0 0 104.5 12.1;" xml:space="preserve">
<g>
	<path d="M5.3,2.6c0,0.5-0.2,1-0.5,1.3S4.1,4.6,3.6,4.7l0,0C4.3,4.8,4.8,5,5.1,5.4s0.5,0.8,0.5,1.4c0,0.8-0.3,1.4-0.8,1.9
		S3.4,9.3,2.3,9.3c-0.5,0-0.9,0-1.2-0.1S0.4,9,0,8.8V7.9c0.4,0.2,0.8,0.3,1.2,0.4S2,8.5,2.4,8.5c1.5,0,2.2-0.6,2.2-1.7
		c0-1-0.8-1.6-2.4-1.6H1.3V4.3h0.9c0.7,0,1.2-0.1,1.6-0.4s0.6-0.7,0.6-1.2c0-0.4-0.1-0.7-0.4-1S3.2,1.3,2.7,1.3
		c-0.3,0-0.7,0.1-1,0.2S1,1.8,0.5,2L0,1.4c0.4-0.3,0.8-0.5,1.2-0.7s0.9-0.2,1.5-0.2c0.8,0,1.5,0.2,1.9,0.6S5.3,2,5.3,2.6z"/>
	<path d="M14.8,8.3L14.8,8.3c-0.5,0.7-1.2,1-2.1,1c-0.8,0-1.5-0.3-2-0.9S10.1,7,10.1,6s0.2-1.9,0.7-2.5s1.1-0.9,2-0.9s1.5,0.3,2,0.9
		h0.1V3V2.5V0.1h1v9.1H15L14.8,8.3z M12.9,8.5c0.7,0,1.1-0.2,1.4-0.5s0.4-0.9,0.4-1.7V6c0-0.9-0.2-1.6-0.5-1.9s-0.8-0.6-1.5-0.6
		c-0.6,0-1,0.2-1.3,0.7s-0.3,1-0.3,1.8s0.2,1.4,0.5,1.9S12.3,8.5,12.9,8.5z"/>
	<path d="M21.8,9.2l-0.2-0.9l0,0c-0.3,0.4-0.6,0.7-1,0.8s-0.7,0.2-1.2,0.2c-0.6,0-1.1-0.2-1.5-0.5S17.3,8,17.3,7.4c0-1.3,1-2,3.1-2
		h1.1V4.9c0-0.5-0.1-0.9-0.3-1.1s-0.6-0.4-1-0.4c-0.5,0-1.1,0.2-1.8,0.5l-0.3-0.7c0.3-0.2,0.7-0.3,1-0.4s0.8-0.1,1.1-0.1
		c0.8,0,1.3,0.2,1.7,0.5s0.6,0.9,0.6,1.6v4.4C22.5,9.2,21.8,9.2,21.8,9.2z M19.6,8.5c0.6,0,1.1-0.2,1.4-0.5s0.5-0.8,0.5-1.4V6h-1
		c-0.8,0-1.3,0.1-1.7,0.4s-0.5,0.5-0.5,1c0,0.4,0.1,0.6,0.3,0.8S19.2,8.5,19.6,8.5z"/>
	<path d="M23.5,2.8h1l1.4,3.7c0.3,0.8,0.5,1.4,0.6,1.8l0,0c0.1-0.2,0.2-0.5,0.3-1s0.7-2,1.6-4.5h1l-2.8,7.3c-0.3,0.7-0.6,1.2-1,1.5
		s-0.8,0.5-1.3,0.5c-0.3,0-0.6,0-0.9-0.1v-0.8c0.2,0,0.5,0.1,0.7,0.1c0.7,0,1.1-0.4,1.4-1.1l0.4-0.9L23.5,2.8z"/>
	<path d="M34.7,7.4c0,0.6-0.2,1.1-0.7,1.4s-1.1,0.5-1.9,0.5c-0.9,0-1.5-0.1-2-0.4V8c0.3,0.2,0.6,0.3,1,0.4s0.7,0.1,1,0.1
		c0.5,0,0.9-0.1,1.2-0.2s0.4-0.4,0.4-0.7c0-0.2-0.1-0.5-0.3-0.6s-0.6-0.4-1.3-0.6c-0.6-0.2-1-0.4-1.3-0.6s-0.4-0.4-0.6-0.6
		S30,4.7,30,4.4c0-0.5,0.2-0.9,0.6-1.2s1-0.5,1.8-0.5c0.7,0,1.4,0.1,2,0.4l-0.3,0.8c-0.6-0.3-1.2-0.4-1.8-0.4c-0.5,0-0.8,0.1-1,0.2
		S31,4,31,4.3c0,0.2,0,0.3,0.1,0.4s0.2,0.2,0.4,0.3s0.6,0.3,1.1,0.5c0.8,0.3,1.3,0.6,1.5,0.8S34.7,7,34.7,7.4z"/>
	<path d="M44.9,6c0,1-0.3,1.9-0.8,2.5s-1.3,0.9-2.2,0.9c-0.6,0-1.1-0.1-1.5-0.4s-0.8-0.7-1-1.2S39,6.6,39,6c0-1,0.3-1.9,0.8-2.4
		S41,2.7,42,2.7c0.9,0,1.6,0.3,2.1,0.9S44.9,4.9,44.9,6z M40,6c0,0.8,0.2,1.4,0.5,1.9s0.8,0.6,1.4,0.6s1.1-0.2,1.5-0.6
		s0.5-1.1,0.5-1.9s-0.2-1.4-0.5-1.9S42.6,3.5,42,3.5s-1.1,0.2-1.4,0.6S40,5.1,40,6z"/>
	<path d="M49.5,3.5h-1.6v5.7h-1V3.5h-1.1V3.1l1.1-0.4V2.4C46.9,0.8,47.6,0,49,0c0.3,0,0.7,0.1,1.2,0.2L49.9,1
		c-0.4-0.1-0.7-0.2-1-0.2c-0.4,0-0.6,0.1-0.8,0.4s-0.3,0.6-0.3,1.2v0.4h1.6L49.5,3.5L49.5,3.5z"/>
	<path d="M59.3,6c0,1-0.3,1.9-0.8,2.5s-1.3,0.9-2.2,0.9c-0.6,0-1.1-0.1-1.5-0.4s-0.8-0.7-1-1.2S53.4,6.6,53.4,6c0-1,0.3-1.9,0.8-2.4
		s1.2-0.9,2.2-0.9c0.9,0,1.6,0.3,2.1,0.9S59.3,4.9,59.3,6z M54.5,6c0,0.8,0.2,1.4,0.5,1.9s0.8,0.6,1.4,0.6s1.1-0.2,1.5-0.6
		s0.5-1.1,0.5-1.9s-0.2-1.4-0.5-1.9S57,3.5,56.4,3.5S55.3,3.7,55,4.1S54.5,5.1,54.5,6z"/>
	<path d="M65.4,9.2V5c0-0.5-0.1-0.9-0.4-1.2s-0.5-0.3-1-0.3c-0.7,0-1.2,0.2-1.5,0.5S62,5,62,5.8v3.4h-1V2.8h0.8L62,3.6l0,0
		c0.2-0.3,0.5-0.6,0.8-0.7s0.8-0.3,1.2-0.3c0.8,0,1.4,0.2,1.7,0.6s0.6,1,0.6,1.8v4.2H65.4z"/>
	<path d="M69.4,9.2h-1V0.1h1V9.2z"/>
	<path d="M71.4,1c0-0.2,0.1-0.4,0.2-0.5s0.2-0.2,0.4-0.2c0.2,0,0.3,0.1,0.4,0.2s0.2,0.3,0.2,0.5s-0.1,0.4-0.2,0.5S72.2,1.7,72,1.7
		c-0.2,0-0.3-0.1-0.4-0.2S71.4,1.2,71.4,1z M72.4,9.2h-1V2.8h1V9.2z"/>
	<path d="M78.9,9.2V5c0-0.5-0.1-0.9-0.4-1.2s-0.6-0.4-1.1-0.4c-0.7,0-1.2,0.2-1.5,0.5s-0.5,1-0.5,1.8v3.4h-1V2.8h0.8l0.2,0.9l0,0
		c0.2-0.3,0.5-0.6,0.8-0.7s0.8-0.3,1.2-0.3c0.8,0,1.4,0.2,1.7,0.6s0.6,1,0.6,1.8v4.2L78.9,9.2L78.9,9.2z"/>
	<path d="M84.6,9.3c-0.9,0-1.7-0.3-2.2-0.9S81.5,7.1,81.5,6c0-1,0.3-1.9,0.8-2.5s1.2-0.9,2.1-0.9c0.8,0,1.4,0.3,1.9,0.8
		S87,4.6,87,5.5v0.6h-4.4c0,0.8,0.2,1.3,0.6,1.7s0.9,0.6,1.5,0.6c0.7,0,1.4-0.1,2.1-0.4v0.9c-0.3,0.1-0.7,0.3-1,0.3S85,9.3,84.6,9.3
		z M84.3,3.5c-0.5,0-0.9,0.2-1.2,0.5s-0.5,0.8-0.5,1.4H86c0-0.6-0.1-1.1-0.4-1.4S84.8,3.5,84.3,3.5z"/>
	<path d="M94.5,9.2h-1V1.5h-2.7V0.6h6.4v0.9h-2.7C94.5,1.5,94.5,9.2,94.5,9.2z"/>
	<path d="M103.4,0.6h1.1l-3.1,8.6h-1l-3.1-8.6h1.1l2,5.5c0.2,0.6,0.4,1.3,0.5,1.9c0.1-0.6,0.3-1.3,0.6-1.9L103.4,0.6z"/>
</g>
</svg>
