<?xml version="1.0" encoding="utf-8"?>
<!-- Generator: Adobe Illustrator 24.0.0, SVG Export Plug-In . SVG Version: 6.00 Build 0)  -->
<svg version="1.1" id="Laag_1" xmlns="http://www.w3.org/2000/svg" xmlns:xlink="http://www.w3.org/1999/xlink" x="0px" y="0px"
	 width="178.4px" height="89.6px" viewBox="0 0 178.4 89.6" style="enable-background:new 0 0 178.4 89.6;" xml:space="preserve">
<style type="text/css">
	.st0{fill:#F2FF00;}
	.st1{fill:#5C394D;}
	.st2{opacity:0.4;fill:#FFFFFF;}
</style>
<g>
	<g>
		<g>
			<path class="st0" d="M164.3,15.5c0-0.1,0-0.1,0-0.2C164.3,15.2,164.3,15.3,164.3,15.5z"/>
		</g>
	</g>
	<g>
		<g>
			<path class="st0" d="M162.6,8c0,0.1,0,0.2,0.1,0.3C162.7,8.5,162.7,8.3,162.6,8z"/>
		</g>
	</g>
	<g>
		<g>
			<path class="st0" d="M27.2,52.3c0-0.1,0-0.2,0-0.3c0-0.1,0-0.1,0-0.2C27.2,51.9,27.2,52.1,27.2,52.3z"/>
		</g>
	</g>
	<g>
		<g>
			<path class="st0" d="M164.7,17.2c0,0.2,0.1,0.2,0.1,0.3c-0.2-0.9-0.4-1.7-0.5-2C164.5,16.6,164.6,16.9,164.7,17.2z"/>
		</g>
	</g>
	<g>
		<g>
			<path class="st0" d="M72.2,22.6c0-0.2,0-0.3-0.1-0.5C72.1,22.3,72.1,22.4,72.2,22.6z"/>
		</g>
	</g>
	<g>
		<g>
			<path class="st0" d="M162.6,8c-0.2-1-0.4-2-0.5-2.6C162,4.9,162.4,7.1,162.6,8z"/>
		</g>
	</g>
	<g>
		<g>
			<path class="st0" d="M100,19.8c0,0-2.5,0.3-5.8,0.6c-0.8,0.1-1.7,0.2-2.6,0.3c-0.9,0.1-1.8,0.2-2.8,0.3c-0.4,0.9-0.8,1.4-1.3,1.4
				c-0.5,0.1-0.9,0.7-1.5-1c-0.4,0.1-1-1.4-1.4,0.1c-0.6-1.9-0.9-0.8-1.3,0c-0.4,0.1-0.8,0.1-1.2,0.4c-0.4-0.1-1-2.8-1.1-0.4
				c-0.3,0.5-0.7-0.4-0.9,1.5c-0.3-2.3-0.5-2.5-0.6-2.2c0,1.4-0.3-0.3-0.3,1.1c-1.1-0.2-1.6,1.4-1.7,0.2c0.1,1.6-0.3,1.1-1.1,0.2
				c-0.1,1.1-0.3,1.4-0.5,1.5C75.7,25,75.4,24,75,22.5c-0.6-0.3-0.8-0.8-1.8,0.5c-0.4-0.2-0.9-0.1-1.1-0.5c-0.1,0.4-0.4,0.7-0.9,0.8
				c0.1,0.2-0.5-0.1-0.3-1.1c-0.3,0.6,0,0.7-1.2,0.9c0,1.4-0.4-2-1.2,0.9c-0.9,1.6-1.5-0.7-1.4,0.3c-0.6,1.4-1.6,1.7-1.4,0.3
				c-2,0.1-1.5,0.2-1.5,0.3c-3.7,0,0.3,0.3-1.5,0.3c-0.5,0.2-1,0.4-2.8,0.6c-3.5,0.1-1,0.4-2.8,0.6c-0.6,0.2-3.4,0.4-2.9,0.6
				c-1.6,0.2-1.2,0.4-2.9,0.6c-2.1,0.2-1.4,0.4-2.9,0.6c-1.1,0.2-0.9,0.4-2.8,0.6c-3.7,0.4-4.7,0.8-5.4,1.2c-1.7,0.4-3.3,0.7-4.7,1
				c-4.2,0.9-11,2.3-11,2.3s0.5,3.4,1.2,7.8c0.2,1.1,0.3,2.3,0.5,3.5c0.2,1.2,0.4,2.5,0.6,3.7c0.1,0.8,0.3,3.2,0.4,3
				c0.1,1.2,0.1-0.2,0.2,1.2c-0.1-0.1-0.1-0.3-0.2-0.6c0,0.4,0.1,0.8,0.1,1.2c0-0.1,0.1,0.2,0.3,2.2c0.3,2.8,0.2,0.1,0.3,2.2
				c0-0.2,0-1.1,0.3,1.7c0.3,2.2,0.3-0.1,0.7,1.4c0.2,1.7,0.3,0.1,0.4-0.1c0-1.4,0.4,1.3,0.6,2.8c0-1.7,0.4,1.3,0.5,0.8
				c0.1-0.8,0.4,0.5,0.7,3.4c0.2,1-0.1-1.2,0.1-1.1c0.2,0.7,0.4,1.6,0.6,2.2c0.4,1.2,0.7,2.3,1,3.2c0.6,1.9,1,3.1,1,3.1l84.2-13.3
				c0,0,4.7-1.2,11.6-2.9c0.9-0.2,1.8-0.3,2.7-0.4c0.9-0.9,1.9-0.4,2.8-0.9c1.1,0.8,2-0.5,3-0.3c1-0.3,2.1-0.6,3.1-1.2
				c1.1,0.5,2.2,0.6,3.2-0.7c1.1,0,2.2-0.5,3.3-0.9c1.2,0.5,2.2-0.4,3.3-0.7c1.1-0.3,2.2-1,3.3-0.9c4.2,0.2,18.1-2.3,18.1-2.3
				s-0.1-0.6-0.4-1.7c-0.1-0.5-0.2-0.4-0.5-2.6c-0.3-2.4-0.5-3.3-0.5-2c-0.1-0.7-0.3-2.8-0.3-1.5c-0.3-2.6-2.1-5.2-2.9-11.5
				c-0.2-1.4-0.2-0.3-0.4-2c-0.1-0.3-0.5-4.8-0.4-2c0.3,5,0,1.5-0.1,0.2c-0.2-2.6,0,1-0.3-2.3c-0.2-1.5-0.4-3-0.5-2.6
				c0,1,0,2.7-0.4-1.7c0.1,2.5-0.3-3-0.1,0.6c0,0.6-0.3-3.2-0.4-2.9c-0.2-1.3-0.2-1.2-0.3-1.4c0.1,0.4,0.1,0.9,0.1,1.3
				c-0.1-0.2-0.1,1.2-0.4-1.6c-0.1-0.6-0.3-1.2-0.4-2.2c-0.3-2.2-0.5-1.8-0.7-3.2c-0.3-2.3-0.4-1.3-0.7-3.5
				c-0.2-1.1-0.7-2.9-0.7-2.9L100,19.8z M27.6,52.7c0.1,0.5,0,0.5-0.1,0.3C27.4,51.7,27.5,52.4,27.6,52.7z"/>
		</g>
	</g>
	<g>
		<g>
			<path class="st0" d="M27.2,52c0,0.1,0.1,0.2,0.1,0.3C27.2,51.7,27.2,51.4,27.2,52z"/>
		</g>
	</g>
	<g>
		<g>
			<path class="st0" d="M26.8,50.1c0,0.2,0.2,1,0.3,1.7C27,50.7,26.9,50.3,26.8,50.1z"/>
		</g>
	</g>
</g>
<g>
	<g>
		<path class="st1" d="M50.9,64.1c-0.7,0.3-1.4,0.5-2.2,0.6L41,66.2L36.3,42l7.8-1.5c3.2-0.6,6.4-0.1,9,1.5c2.8,1.7,4.7,4.6,5.4,8.3
			l0,0c0.7,3.7,0,7-1.9,9.7C55.2,61.8,53.2,63.2,50.9,64.1z M41.5,65.4l7.1-1.4c5.5-1.1,10.7-5.8,9.2-13.6
			c-1.5-7.9-8.1-10.3-13.6-9.2l-7.1,1.4L41.5,65.4z M49.3,59.9c-0.4,0.2-0.9,0.3-1.4,0.4l-3.2,0.6l-2.9-15.3l3.2-0.6
			c4.5-0.9,8.1,1.5,8.9,6.1c0.4,2.3,0.1,4.4-1,6.1C52,58.4,50.8,59.3,49.3,59.9z M45.2,60.1l2.6-0.5c2-0.4,3.5-1.3,4.5-2.8
			c1-1.5,1.4-3.5,0.9-5.6l0.3-0.1l-0.3,0.1c-0.8-4.3-3.9-6.4-8.2-5.6l-2.6,0.5L45.2,60.1z"/>
	</g>
	<g>
		<path class="st1" d="M69.5,60.7l-5.3,1l-4.6-24.2l5.3-1L69.5,60.7z M64.7,60.9l4-0.8l-4.4-22.9l-4,0.8L64.7,60.9z"/>
	</g>
	<g>
		<path class="st1" d="M93.8,56l-3.7,0.7l-0.9-1.9l0,0c-1.1,1.7-3,2.8-5.7,3.3c-3.1,0.6-6.2-0.1-8.7-1.9c-2.5-1.9-4.2-4.8-4.9-8.2
			c-0.7-3.4-0.1-6.7,1.5-9.3c1.6-2.6,4.3-4.4,7.6-5.1c4.1-0.8,7,0.7,8.6,2c1.8,1.5,2.7,3.1,2.7,3.2l0.2,0.4l-5.7,1.1l-0.1-0.2
			c-0.1-0.1-1.5-2.2-4.8-1.6c-3.7,0.7-5.7,4.2-4.8,8.5c0.8,4.4,4,6.8,7.9,6c2.3-0.4,3.9-1.7,4.4-3.4l-0.3-1.6l-5,1l-0.9-4.6
			l10.1-1.9L93.8,56z M90.5,56l2.5-0.5l-2.3-12.2L81.9,45l0.6,3.3l5-1l0.5,2.5l0,0.1c-0.6,2-2.4,3.4-4.9,3.9
			c-4.3,0.8-7.8-1.8-8.7-6.6c-0.4-2.2-0.1-4.4,0.8-6.1c1-1.7,2.6-2.8,4.6-3.2c3.2-0.6,4.8,1.1,5.3,1.7l4.4-0.8
			c-0.3-0.6-1.1-1.6-2.3-2.6c-2.3-1.8-5-2.5-8.1-1.9c-6.4,1.2-9.9,6.8-8.6,13.6c1.3,6.7,6.7,10.8,12.8,9.6c2.5-0.5,4.3-1.5,5.3-3.1
			l0.1-0.1l0.8-0.2L90.5,56z"/>
	</g>
	<g>
		<path class="st1" d="M103.1,54.2l-5.3,1l-4.6-24.2l5.3-1L103.1,54.2z M98.3,54.5l4-0.8L98,30.8l-4,0.8L98.3,54.5z"/>
	</g>
	<g>
		<path class="st1" d="M117.1,51.5l-5.2,1l-3.7-19.3l-6.3,1.2l-0.9-4.8l17.8-3.4l0.9,4.8l-6.3,1.2L117.1,51.5z M112.5,51.7l3.8-0.7
			l-3.7-19.3l6.3-1.2l-0.7-3.5l-16.5,3.2l0.7,3.5l6.3-1.2L112.5,51.7z"/>
	</g>
	<g>
		<path class="st1" d="M144.2,46.3l-5.5,1.1l-2.6-4.8l-8.3,1.6l-0.7,5.5l-5.5,1.1L125,25l6.4-1.2L144.2,46.3z M139,46.6l4.1-0.8
			L131,24.5l-5.4,1l-3.3,24.3l4.1-0.8l0.7-5.5l9.3-1.8L139,46.6z M134.6,38.5l-7,1.3l1.2-9.4l1.3-0.2L134.6,38.5z M128.3,39l5.2-1
			l-3.9-7l-0.3,0.1L128.3,39z"/>
	</g>
	<g>
		<path class="st1" d="M162.9,42.7L146.1,46l-4.6-24.2l5.4-1l3.7,19.1l11.5-2.2L162.9,42.7z M146.6,45.2l15.5-3l-0.7-3.7l-11.5,2.2
			l-3.7-19.1l-4.1,0.8L146.6,45.2z"/>
	</g>
</g>
<path class="st2" d="M66.7,89.6l0.1-1.4l-1.2-0.7l0.1-1.4l-1.2-0.7l0.1-1.4l-1.2-0.7l0.1-1.4l-1.2-0.7l0.1-1.4l-1.2-0.7l0.1-1.4
	l-1.2-0.7l43.5-25c5.4,3.9,1.9,4.9,7.1,12.2L66.7,89.6z"/>
<path class="st2" d="M12.5,70.6l-0.2-1.4l-1.3-0.4l-0.2-1.4l-1.3-0.4l-0.2-1.4l-1.3-0.4L7.6,64l-1.3-0.4L6,62.3l-1.3-0.4l-0.2-1.4
	l-1.3-0.4l36.6-34.3c6.2,2.6,2.9,4.3,9.7,10.3L12.5,70.6z"/>
</svg>
