<?xml version="1.0" encoding="utf-8"?>
<!-- Generator: Adobe Illustrator 24.0.0, SVG Export Plug-In . SVG Version: 6.00 Build 0)  -->
<svg version="1.1" id="Laag_1" xmlns="http://www.w3.org/2000/svg" xmlns:xlink="http://www.w3.org/1999/xlink" x="0px" y="0px"
	 width="154.8px" height="89.6px" viewBox="0 0 154.8 89.6" style="enable-background:new 0 0 154.8 89.6;" xml:space="preserve">
<style type="text/css">
	.st0{fill:#F2FF00;}
	.st1{fill:#5C394D;}
	.st2{opacity:0.4;fill:#FFFFFF;}
</style>
<g>
	<g>
		<path class="st0" d="M27.6,21.1c0,0,4.5-0.2,8.2,0.9c1,0.3,2.1,0,3.1,0c1.1,0,2.2-0.6,3.1,0.1c1.1-0.1,2.1-0.3,3.1,0
			c1.2-0.8,2.1-0.5,3,0.1c1.1-0.2,2-0.3,3-0.3c0.9,0.4,2-0.5,2.8,0.4c1-0.2,1.8,0.4,2.7-0.1c0.9,0.1,1.7,0.2,2.5,0.2
			c6.5,0.1,11,0.1,11,0.1l61.2,6.7c0,0,0.1,1.1,0.2,2.8c0.1,0.8,0.1,1.8,0.2,2.8c0,0.5,0,1.3,0,1.9c0.1,0.2,0.3-1.7,0.3-0.9
			c-0.3,2.5-0.4,3.6-0.1,3c0.2-0.4-0.1,2.1,0.3,0.7c-0.1,1.3-0.4,3.5-0.1,2.4c0.2-0.1,0.5-1.5,0.4,0c0,1.3,0.5-0.6,0.3,1.3
			c-0.3,2.4-0.1,1.6-0.1,1.5c-0.3,1.8,0.1-0.4-0.2,1.9c-0.3,1.7-0.3,1.9-0.3,1.9c-0.2,1-0.4,2.2-0.1,1c-0.2,1.2-0.2,1.6-0.1,1.8
			c0.1-0.4,0.1-3.6-0.1-2.2c0,0.3-0.1,0.9,0.2-0.4c-0.3,1.6,0,0.2-0.1,1.3c0.1-0.1-0.3,1.9-0.4,2.6c-0.1,1.1-0.2,2.1-0.4,3.2
			c-0.1,1-0.2,2-0.3,3c-0.4,3.8-0.8,6.6-0.8,6.6s-6.3-0.3-10.3-0.5c-1.3-0.1-2.8-0.1-4.4-0.2c-0.7,0.2-1.7,0.3-5.1-0.2
			c-1.8-0.3-1.7,0-2.7-0.1c-1.4-0.2-0.8,0.2-2.7-0.1c-1.6-0.2-1.3,0.1-2.8-0.1c0.4,0.3-2.1-0.1-2.7-0.1c-1.7-0.2,0.5,0.5-2.7-0.1
			c-1.6-0.2-2.1-0.2-2.6-0.1c-1.7-0.3,1.9,0.7-1.4-0.1c0,0.1,0.4,0.3-1.4-0.1c0.5-1.1-0.5-1.1-1.3-0.1c-0.1,0.9-0.1-1.1-1.3,0
			c-1.4,2.2-1-0.7-1.3,0.4c-1-0.1-0.9,0.1-1.3,0.5c0.4-0.8-0.1-1.1,0-1c-0.6,0-1.1,0.3-1,0.9c0.3-0.7-0.3-0.7-0.8-1
			c-1.1,0.8-1.3,0.4-1.7,0c0-1.2-0.1-2.1-0.5-1.2c-0.2,0-0.4,0.2-0.8,1.1c-0.5-0.9-0.8-1.4-1.1,0c0.2-1-0.6,0.1-1.5-0.2
			c-0.4,1.2-0.2-0.2-0.6,0.9c-0.2,0.2-0.3,0,0-1.9c-0.6,1.5-0.7,0.7-1.1,1c-0.7,1.9-0.6-0.4-0.9-0.6c-0.4,0.2-0.8,0.1-1.1,0.1
			c-0.5,0.6-1.1,1.4-1.2-0.3c-0.6,1.1-0.8-0.3-1.2-0.2c-0.1-1.5-0.7-1.1-1.1-1.1c-0.4,0-0.9,0.2-1.5,0.9c-0.9-0.1-1.7-0.2-2.6-0.4
			c-0.8-0.1-1.6-0.2-2.4-0.3c-3.1-0.4-5.4-0.8-5.4-0.8l-33,0.1c0,0-0.3-2.9-0.3-3.9c0-0.5,0.2,0.3,0.5-1.6c0.1-1.2-0.1-0.9,0.1-2.8
			c0.1-0.8,0.1-1.4,0.1-1.9c0.4-2.4,0.1-1.2,0-1.4c-0.4,1.6-0.1,3-0.2,3.1c0.1-1.2,0.1-1.4,0-1.7c0-0.6-0.2,0,0-1.5
			c-0.1,0.2,0.5-3,0.3-2.5c-0.6,2.9,0.2-1.6-0.2,0.4c0.6-3.7,0.3-2.3,0-1.5c-0.2,0.3,0-0.9,0.1-2.2c0.5-2.7-0.1,0.2,0.2-1.9
			c0.2-1.1,0.7-4-0.2,0.2c-0.5,2.3,0.1-1.5,0.1-1.7c0.2-1.4-0.1-0.5,0.1-1.7c0.7-5.3-0.4-7.9,0-10c-0.3,1,0-0.7,0.1-1.3
			c-0.3,1-0.3,0.3,0-1.7c0.3-1.8,0.1-1.8,0.2-2.2C27.6,21.7,27.6,21.1,27.6,21.1z"/>
	</g>
</g>
<g>
	<g>
		<path class="st1" d="M52.3,50.9l-3.2-0.2l-0.3-1.7l0,0c-1.3,1.1-3.1,1.6-5.4,1.4c-2.7-0.2-5.1-1.5-6.7-3.5
			c-1.6-2.1-2.4-4.8-2.2-7.7c0.2-2.9,1.4-5.5,3.3-7.3c1.9-1.8,4.5-2.7,7.3-2.4c3.5,0.3,5.5,2.1,6.6,3.6c1.2,1.6,1.5,3.1,1.5,3.2
			l0.1,0.4l-4.9-0.4l-0.1-0.2c0-0.1-0.7-2.1-3.5-2.4c-3.2-0.2-5.6,2.2-5.8,5.9c-0.3,3.7,1.8,6.4,5.1,6.7c2,0.1,3.5-0.5,4.3-1.8
			l0.1-1.4l-4.3-0.3l0.3-4l8.6,0.7L52.3,50.9z M49.6,50.1l2.2,0.2l0.8-10.4l-7.5-0.6l-0.2,2.8l4.3,0.3L49,44.5l0,0.1
			c-0.9,1.5-2.7,2.3-4.9,2.1c-3.7-0.3-5.9-3.2-5.6-7.3c0.1-1.9,0.9-3.6,2-4.8c1.2-1.2,2.7-1.7,4.4-1.6c2.7,0.2,3.7,2,4,2.6l3.7,0.3
			c-0.2-0.5-0.5-1.6-1.3-2.6c-1.4-2-3.5-3.1-6.2-3.3c-2.6-0.2-5.1,0.6-6.9,2.3c-1.8,1.7-2.9,4.1-3.1,6.9c-0.2,2.8,0.5,5.4,2,7.4
			c1.5,1.9,3.8,3.1,6.3,3.3c2.2,0.2,3.8-0.3,5-1.4l0.1-0.1l0.7,0.1L49.6,50.1z"/>
	</g>
	<g>
		<path class="st1" d="M70.2,52.2l-14.4-1.1l1.6-20.7l4.6,0.3l-1.2,16.4l9.8,0.7L70.2,52.2z M56.4,50.6l13.3,1l0.2-3.2l-9.8-0.7
			l1.2-16.4L57.9,31L56.4,50.6z"/>
	</g>
	<g>
		<path class="st1" d="M90.5,53.8l-4.7-0.4l-1.1-4.5l-7.1-0.5l-1.7,4.3l-4.7-0.4l8.6-20.2l5.5,0.4L90.5,53.8z M86.3,52.9l3.6,0.3
			L84.7,33L80,32.7l-8.1,19.1l3.6,0.3l1.7-4.3l8,0.6L86.3,52.9z M84.4,45.3l-6-0.5l3-7.4l1.1,0.1L84.4,45.3z M79.2,44.3l4.5,0.3
			l-1.6-6.6l-0.3,0L79.2,44.3z"/>
	</g>
	<g>
		<path class="st1" d="M99.8,54.6c-0.2,0-0.5,0-0.7,0l0,0c-4.5-0.3-7.5-3.5-7.2-7.5l0-0.3l4.3,0.3l0,0.2c0.2,2.7,2.5,3,3.2,3.1
			c0.3,0,1.1,0,1.7-0.2c0.7-0.3,1-0.8,1.1-1.5c0.1-1.4-1.2-2.2-2.9-3c-0.1-0.1-0.3-0.1-0.4-0.2c-2.6-1.2-6.1-2.9-5.8-6.8
			c0.1-1.7,0.9-3.1,2.4-4.1c1.3-0.9,3.1-1.3,4.9-1.2c2.5,0.2,4,1.3,4.9,2.2c1.1,1.1,1.6,2.6,1.5,4l0,0.3l-4.2-0.3l0-0.2
			c-0.1-1-1.1-1.7-2.5-1.8c-1.1-0.1-2.3,0.3-2.4,1.5c-0.1,1,0.8,1.5,2.6,2.5l0.1,0.1c0.3,0.1,0.6,0.3,0.9,0.5
			c2.3,1.1,5.7,2.8,5.3,6.9C106.2,52.9,103,54.6,99.8,54.6z M99.1,54c3.2,0.2,6.6-1.2,6.9-5c0.3-3.8-2.8-5.3-5-6.4
			c-0.3-0.2-0.6-0.3-0.9-0.5l-0.1-0.1c-1.9-1-3-1.7-2.9-3.1c0.1-1.3,1.3-2.2,3-2c1.5,0.1,2.7,1,3,2.1l3.2,0.2c0-1.2-0.5-2.3-1.3-3.3
			c-0.8-0.8-2.2-1.8-4.5-2c-1.7-0.1-3.4,0.2-4.6,1.1c-1.3,0.9-2,2.1-2.1,3.7c-0.3,3.5,2.9,5,5.5,6.2c0.1,0.1,0.3,0.1,0.4,0.2
			c1.5,0.7,3.4,1.6,3.2,3.5c-0.1,0.9-0.6,1.6-1.4,2c-0.8,0.3-1.7,0.3-2,0.3c-1.6-0.1-3.4-1.1-3.7-3.4l-3.2-0.2
			C92.2,50.9,95,53.7,99.1,54L99.1,54z"/>
	</g>
	<g>
		<path class="st1" d="M116.7,55.9c-0.3,0-0.5,0-0.8,0l0,0c-4.5-0.3-7.5-3.5-7.2-7.5l0-0.3l4.3,0.3l0,0.2c0.2,2.7,2.5,3,3.2,3.1
			c0.3,0,1.1,0,1.7-0.2c0.7-0.3,1-0.8,1.1-1.5c0.1-1.5-1.2-2.2-2.9-3c-0.1-0.1-0.3-0.1-0.4-0.2c-2.6-1.2-6.1-2.9-5.8-6.8
			c0.1-1.7,0.9-3.1,2.4-4.1c1.3-0.9,3.1-1.3,4.9-1.2c2.5,0.2,4,1.3,4.9,2.2c1.1,1.1,1.6,2.6,1.5,4l0,0.3l-4.2-0.3l0-0.2
			c-0.1-1-1.1-1.7-2.5-1.8c-0.6,0-1.2,0.1-1.7,0.3c-0.4,0.3-0.7,0.7-0.7,1.2c-0.1,1,0.8,1.5,2.6,2.5l0.1,0.1
			c0.3,0.1,0.6,0.3,0.9,0.5c2.3,1.1,5.7,2.8,5.3,6.9c-0.1,1.9-1,3.4-2.4,4.4C119.8,55.5,118.3,55.9,116.7,55.9z M116,55.3
			c1.8,0.1,3.5-0.2,4.7-1.1c1.3-0.9,2.1-2.2,2.2-3.9c0.3-3.8-2.8-5.3-5-6.4c-0.3-0.2-0.6-0.3-0.9-0.5l-0.1-0.1c-1.9-1-3-1.7-2.9-3.1
			c0.1-0.7,0.4-1.3,1-1.6c0.5-0.3,1.2-0.5,2-0.4c1.5,0.1,2.7,1,3,2.1l3.2,0.2c0-1.2-0.5-2.3-1.3-3.3c-0.8-0.8-2.2-1.8-4.5-2
			c-1.7-0.1-3.4,0.2-4.6,1.1c-1.3,0.9-2,2.1-2.1,3.7c-0.3,3.5,2.9,5,5.5,6.2c0.1,0.1,0.3,0.1,0.4,0.2c1.5,0.7,3.4,1.6,3.2,3.5
			c-0.1,0.9-0.6,1.6-1.4,2c-0.8,0.3-1.7,0.3-2,0.3c-1.6-0.1-3.4-1.1-3.7-3.4l-3.2-0.2C109.2,52.2,111.9,55,116,55.3L116,55.3z"/>
	</g>
</g>
<path class="st2" d="M40.2,49l-1.1,0.3l-0.2,1.2l-1.1,0.3L37.6,52l-1.1,0.3l-0.2,1.2l-1.1,0.3L35,54.9l-1.1,0.3l-0.2,1.2l-1.1,0.3
	l-0.2,1.2L0,30.6c1.6-5.5,3.3-2.9,7.7-9.2L40.2,49z"/>
<path class="st2" d="M117.8,68.5l0.1-1.2l-1-0.6l0.1-1.2l-1-0.6l0.1-1.2l-1-0.6l0.1-1.2l-1-0.6l0.1-1.2l-1-0.6l0.1-1.2l-1-0.6
	L148.8,37c4.6,3.3,1.6,4.1,6,10.3L117.8,68.5z"/>
</svg>
