<?xml version="1.0" encoding="utf-8"?>
<!-- Generator: Adobe Illustrator 24.0.0, SVG Export Plug-In . SVG Version: 6.00 Build 0)  -->
<svg version="1.1" id="Laag_1" xmlns="http://www.w3.org/2000/svg" xmlns:xlink="http://www.w3.org/1999/xlink" x="0px" y="0px"
	 width="148.5px" height="44.8px" viewBox="0 0 148.5 44.8" style="enable-background:new 0 0 148.5 44.8;" xml:space="preserve">
<style type="text/css">
	.st0{fill:#FFFFFF;}
</style>
<g>
	<path class="st0" d="M76.5,25.7v18.8h-4.3v-7.6h-6.8v7.6h-4.3V25.7h4.3V33h6.8v-7.4H76.5z"/>
	<path class="st0" d="M79,35.1c0-5.5,4.1-9.7,9.7-9.7c5.5,0,9.6,4.2,9.6,9.7c0,5.5-4.1,9.7-9.6,9.7C83.1,44.8,79,40.6,79,35.1z
		 M93.8,35.1c0-3.2-2.2-5.6-5.1-5.6c-3,0-5.2,2.4-5.2,5.6c0,3.2,2.2,5.6,5.2,5.6C91.6,40.7,93.8,38.3,93.8,35.1z"/>
	<path class="st0" d="M116.6,36.5c0,5.9-3.5,8.3-7.9,8.3c-4.4,0-7.9-2.4-7.9-8.3V25.7h4.5v11.1c0,2.3,1.2,4,3.5,4
		c2.3,0,3.4-1.6,3.4-4V25.7h4.5V36.5z"/>
	<path class="st0" d="M126.1,44.8c-4.5,0-7-2.8-7-6.6h4.2c0,1.8,1,3,3,3c1.2,0,2.2-0.6,2.2-1.8c0-1.3-1.1-1.9-3.4-2.7
		c-2.9-1.1-5.4-2.5-5.4-5.7c0-3.6,2.7-5.5,6.2-5.5c4.1,0,6.5,2.7,6.5,5.8h-3.9c-0.1-1.3-0.9-2.2-2.6-2.2c-1.2,0-2,0.6-2,1.6
		c0,1,0.8,1.6,3.1,2.6c3.4,1.4,5.9,2.8,5.9,6.2C132.8,43,130,44.8,126.1,44.8z"/>
	<path class="st0" d="M148.5,40.6v3.9h-13V25.7h12.8v3.8h-8.6v3.6h7.3v3.7h-7.3v3.8H148.5z"/>
</g>
</svg>
