<?xml version="1.0" encoding="utf-8"?>
<!-- Generator: Adobe Illustrator 24.0.0, SVG Export Plug-In . SVG Version: 6.00 Build 0)  -->
<svg version="1.1" id="Laag_1" xmlns="http://www.w3.org/2000/svg" xmlns:xlink="http://www.w3.org/1999/xlink" x="0px" y="0px"
	 width="148.5px" height="44.8px" viewBox="0 0 148.5 44.8" style="enable-background:new 0 0 148.5 44.8;" xml:space="preserve">
<style type="text/css">
	.st0{fill:#FFFFFF;}
	.st1{fill:none;stroke:#FFFFFF;stroke-width:0.5;stroke-miterlimit:10;}
</style>
<g>
	<path class="st0" d="M38.8,0.3l-3.3,18.8h-5.8L27,7.7h-0.3L24,19.1h-5.8L14.9,0.3H19l2.2,13.2h0.3l2.7-11.9h5.2l2.7,11.9h0.3
		l2.2-13.2H38.8z"/>
	<path class="st0" d="M53.9,15.2v3.9h-13V0.3h12.8v3.8H45v3.6h7.3v3.7H45v3.8H53.9z"/>
	<path class="st0" d="M69.8,15v4.1H56.3V0.3h4.5V15H69.8z"/>
	<path class="st0" d="M79.9,19.4c-5.9,0-9.3-4-9.3-9.7c0-5.7,3.6-9.7,9-9.7c3.9,0,7.5,1.9,8.2,6.5h-4.5C82.8,5,81.6,4,79.6,4
		c-2.8,0-4.4,2.4-4.4,5.7c0,3.4,1.8,5.6,4.7,5.6c1.9,0,3.2-1,3.7-2.5h4.5C87.4,17.1,84,19.4,79.9,19.4z"/>
	<path class="st0" d="M89.5,9.7c0-5.5,4.1-9.7,9.7-9.7c5.5,0,9.6,4.2,9.6,9.7s-4.1,9.7-9.6,9.7C93.5,19.4,89.5,15.2,89.5,9.7z
		 M104.3,9.7c0-3.2-2.2-5.6-5.1-5.6c-3,0-5.2,2.4-5.2,5.6s2.2,5.6,5.2,5.6C102.1,15.3,104.3,12.9,104.3,9.7z"/>
	<path class="st0" d="M132.1,19.1H128V7.3h-0.3l-3.9,10.2h-4.1l-3.9-10.2h-0.3v11.8h-4.1V0.3h5.5l4.7,11.8h0.3l4.7-11.8h5.5V19.1z"
		/>
	<path class="st0" d="M148.5,15.2v3.9h-13V0.3h12.8v3.8h-8.6v3.6h7.3v3.7h-7.3v3.8H148.5z"/>
</g>
<g>
	<path class="st0" d="M14.4,29H9.3v14.9H5.1V29H0V25h14.4V29z"/>
	<path class="st0" d="M15.1,34.5c0-5.5,4.1-9.7,9.7-9.7c5.5,0,9.6,4.2,9.6,9.7c0,5.5-4.1,9.7-9.6,9.7C19.1,44.1,15.1,40,15.1,34.5z
		 M29.9,34.5c0-3.2-2.2-5.6-5.1-5.6c-3,0-5.2,2.4-5.2,5.6s2.2,5.6,5.2,5.6C27.7,40,29.9,37.7,29.9,34.5z"/>
</g>
<g>
	<path class="st1" d="M39.5,34.5c0-5.5,4.1-9.7,9.7-9.7c5.5,0,9.6,4.2,9.6,9.7c0,5.5-4.1,9.7-9.6,9.7C43.5,44.1,39.5,40,39.5,34.5z
		 M54.2,34.5c0-3.2-2.2-5.6-5.1-5.6c-3,0-5.2,2.4-5.2,5.6s2.2,5.6,5.2,5.6C52,40,54.2,37.7,54.2,34.5z"/>
	<path class="st1" d="M77,35.9c0,5.9-3.5,8.3-7.9,8.3c-4.4,0-7.9-2.4-7.9-8.3V25h4.5v11.1c0,2.3,1.2,4,3.5,4c2.3,0,3.4-1.6,3.4-4V25
		H77V35.9z"/>
	<path class="st1" d="M90.2,43.9l-3.4-6.5h-2.3v6.5h-4.1V25h7.3c3.7,0,6.3,2.3,6.3,6.1c0,2.4-1.3,4.4-3.3,5.4l3.8,7.3H90.2z
		 M84.5,33.5h2.9c1.5,0,2.5-1,2.5-2.3c0-1.3-0.9-2.3-2.5-2.3h-2.9V33.5z"/>
</g>
</svg>
