<?xml version="1.0" encoding="utf-8"?>
<!-- Generator: Adobe Illustrator 23.1.1, SVG Export Plug-In . SVG Version: 6.00 Build 0)  -->
<svg version="1.1" id="Laag_1" xmlns="http://www.w3.org/2000/svg" xmlns:xlink="http://www.w3.org/1999/xlink" x="0px" y="0px"
	 width="34.2px" height="31.7px" viewBox="0 0 34.2 31.7" style="enable-background:new 0 0 34.2 31.7;" xml:space="preserve">
<style type="text/css">
	.st0{fill:#FFFFFF;}
</style>
<g>
	<path class="st0" d="M26.3,1.4H7.9v18.5h18.5V1.4z M19.2,13.5l-2.8,1.4L16.5,7l0,0v0l0,0v0l-3.2,1.6v5.2L10,15.4l0-9.6l6.4-0.1V7
		L22,6.9v1.2l-2.8,1.4V13.5z M21.9,13.9L22,8.1L24,7.9l0,4.9L21.9,13.9z"/>
	<polygon class="st0" points="8.2,22.2 8.2,22.2 9.4,25 9.6,25 10.8,22.2 10.8,22.2 10.8,25 11.1,25 11.1,21.8 10.7,21.8 9.5,24.5 
		8.3,21.8 7.9,21.8 7.9,25 8.2,25 	"/>
	<path class="st0" d="M14.1,23.8v-2h-0.3v1.9c0,0.5-0.1,1.1-0.9,1.1c-0.8,0-0.9-0.7-0.9-1.1v-1.9h-0.3v2c0,0.7,0.3,1.3,1.2,1.3
		C13.8,25.1,14.1,24.5,14.1,23.8z"/>
	<path class="st0" d="M16.7,24.2c0-1.2-1.7-0.6-1.7-1.6c0-0.4,0.3-0.6,0.7-0.6c0.3,0,0.5,0.1,0.6,0.3l0.3-0.2
		c-0.2-0.3-0.5-0.4-0.9-0.4c-0.5,0-1,0.3-1,0.9c0,1.2,1.7,0.7,1.7,1.6c0,0.4-0.3,0.6-0.7,0.6c-0.3,0-0.6-0.1-0.7-0.4l-0.3,0.2
		c0.3,0.4,0.6,0.5,1.1,0.5C16.2,25.1,16.7,24.8,16.7,24.2z"/>
	<polygon class="st0" points="17.7,23.5 19.2,23.5 19.2,23.2 17.7,23.2 17.7,22.1 19.3,22.1 19.3,21.8 17.4,21.8 17.4,25 19.4,25 
		19.4,24.8 17.7,24.8 	"/>
	<path class="st0" d="M22.4,23.8v-2h-0.3v1.9c0,0.5-0.1,1.1-0.9,1.1c-0.8,0-0.9-0.7-0.9-1.1v-1.9H20v2c0,0.7,0.3,1.3,1.2,1.3
		S22.4,24.5,22.4,23.8z"/>
	<polygon class="st0" points="26.3,25 26.3,21.8 25.9,21.8 24.7,24.5 23.5,21.8 23.1,21.8 23.1,25 23.4,25 23.4,22.2 23.4,22.2 
		24.7,25 24.8,25 26,22.2 26,22.2 26,25 	"/>
	<polygon class="st0" points="7.9,29.3 8.4,29.3 8.4,27.9 9.9,27.9 9.9,27.4 8.4,27.4 8.4,26.5 10,26.5 10,26 7.9,26 	"/>
	<polygon class="st0" points="11.2,26 10.6,26 10.6,29.3 12.6,29.3 12.6,28.7 11.2,28.7 	"/>
	<polygon class="st0" points="13.9,27.9 15.4,27.9 15.4,27.3 13.9,27.3 13.9,26.5 15.4,26.5 15.4,26 13.3,26 13.3,29.3 15.5,29.3 
		15.5,28.7 13.9,28.7 	"/>
	<polygon class="st0" points="18.3,27.3 16.8,27.3 16.8,26 16.2,26 16.2,29.3 16.8,29.3 16.8,27.8 18.3,27.8 18.3,29.3 18.9,29.3 
		18.9,26 18.3,26 	"/>
	<rect x="19.6" y="26" class="st0" width="0.6" height="3.3"/>
	<polygon class="st0" points="20.9,26.5 21.9,26.5 21.9,29.3 22.4,29.3 22.4,26.5 23.4,26.5 23.4,26 20.9,26 	"/>
	<polygon class="st0" points="24.7,28.7 24.7,27.9 26.2,27.9 26.2,27.3 24.7,27.3 24.7,26.5 26.3,26.5 26.3,26 24.1,26 24.1,29.3 
		26.3,29.3 26.3,28.7 	"/>
</g>
</svg>
