<?xml version="1.0" encoding="utf-8"?>
<!-- Generator: Adobe Illustrator 24.0.0, SVG Export Plug-In . SVG Version: 6.00 Build 0)  -->
<svg version="1.1" id="Laag_1" xmlns="http://www.w3.org/2000/svg" xmlns:xlink="http://www.w3.org/1999/xlink" x="0px" y="0px"
	 width="105.9px" height="17.1px" viewBox="0 0 105.9 17.1" style="enable-background:new 0 0 105.9 17.1;" xml:space="preserve">
<style type="text/css">
	.st0{fill:#FFFFFF;}
	.st1{fill:#F2FF00;}
</style>
<g>
	<rect x="20.9" y="4.3" class="st0" width="64.4" height="0.7"/>
</g>
<g>
	<path class="st1" d="M3.9,0h0.9v7.2H4.2L4,6.5H3.9C3.5,7,3,7.3,2.3,7.3C1.7,7.3,1.1,7,0.7,6.5C0.2,6.1,0,5.4,0,4.7s0.2-1.4,0.7-1.9
		C1.1,2.3,1.7,2,2.3,2c0.8,0,1.3,0.3,1.6,0.8V0z M1.3,6C1.6,6.3,2,6.5,2.4,6.5c0.5,0,0.8-0.2,1.1-0.5s0.4-0.8,0.4-1.3
		c0-0.5-0.1-1-0.4-1.3S2.9,2.8,2.4,2.8C2,2.8,1.6,3,1.3,3.3C1,3.7,0.9,4.1,0.9,4.7S1,5.6,1.3,6z"/>
	<path class="st1" d="M7,1.2C6.9,1.3,6.7,1.3,6.6,1.3c-0.2,0-0.3-0.1-0.4-0.2C6,1.1,5.9,0.9,5.9,0.7c0-0.2,0.1-0.3,0.2-0.4
		c0.1-0.1,0.3-0.2,0.4-0.2c0.2,0,0.3,0.1,0.4,0.2c0.1,0.1,0.2,0.3,0.2,0.4C7.2,0.9,7.1,1.1,7,1.2z M7,2.1v5H6.1v-5H7z"/>
	<path class="st1" d="M11.8,7.2V2.5h-1.3V1.8h0.6c0.5,0,0.8-0.2,0.8-0.7V0.7h0.8v6.4H11.8z"/>
	<path class="st1" d="M17.4,3.8c0.3,0.1,0.6,0.3,0.8,0.6c0.2,0.3,0.3,0.6,0.3,1c0,0.6-0.2,1-0.6,1.4c-0.4,0.4-0.9,0.5-1.6,0.5
		c-0.7,0-1.2-0.2-1.6-0.5c-0.4-0.4-0.6-0.8-0.6-1.4H15c0,0.3,0.2,0.6,0.4,0.8c0.2,0.2,0.5,0.3,0.9,0.3c0.4,0,0.7-0.1,0.9-0.3
		c0.2-0.2,0.4-0.5,0.4-0.8c0-0.3-0.1-0.6-0.3-0.8s-0.5-0.3-0.9-0.3h-0.3V3.4h0.3c0.3,0,0.6-0.1,0.8-0.3c0.2-0.2,0.3-0.4,0.3-0.7
		c0-0.3-0.1-0.5-0.3-0.7c-0.2-0.2-0.4-0.3-0.8-0.3c-0.3,0-0.6,0.1-0.8,0.3c-0.2,0.2-0.3,0.4-0.3,0.7h-0.9c0-0.5,0.2-0.9,0.6-1.3
		c0.4-0.3,0.9-0.5,1.4-0.5c0.5,0,1,0.2,1.3,0.5s0.5,0.7,0.5,1.2C18.2,2.9,17.9,3.4,17.4,3.8L17.4,3.8z"/>
	<path class="st1" d="M2.6,17.1c-0.7,0-1.3-0.2-1.8-0.7C0.2,15.9,0,15.2,0,14.5c0-0.7,0.2-1.4,0.7-1.9c0.5-0.5,1.1-0.7,1.8-0.7
		s1.4,0.2,1.8,0.7s0.7,1.1,0.7,1.9c0,0.8-0.2,1.4-0.7,1.9C3.9,16.9,3.3,17.1,2.6,17.1z M2.5,16.3c0.5,0,0.9-0.2,1.2-0.5
		c0.3-0.4,0.5-0.8,0.5-1.3c0-0.5-0.2-0.9-0.5-1.3c-0.3-0.4-0.7-0.5-1.2-0.5s-0.9,0.2-1.2,0.5S0.9,14,0.9,14.5c0,0.5,0.2,0.9,0.5,1.3
		C1.7,16.1,2.1,16.3,2.5,16.3z"/>
	<path class="st1" d="M10.4,12l-2,2.1l2,2.9h-1l-1.6-2.3L7,15.4V17H6.1V9.8H7v4.3h0.1L9.2,12H10.4z"/>
	<path class="st1" d="M14.2,16.9c-0.2,0.2-0.5,0.2-0.8,0.2c-0.8,0-1.2-0.4-1.2-1.3v-3.1h-1V12h0.3c0.5,0,0.8-0.2,0.8-0.7v-0.6H13V12
		h1.2v0.7H13v3c0,0.4,0.2,0.6,0.5,0.6c0.2,0,0.3,0,0.4-0.1L14.2,16.9z"/>
</g>
<g>
	<path class="st1" d="M89.7,2.1h0.9l-1.8,5h-1.3l-1.8-5h0.9l1.5,4.2h0.1L89.7,2.1z"/>
	<path class="st1" d="M94,2h0.3v0.9c-0.1,0-0.2,0-0.4,0c-0.4,0-0.7,0.1-1,0.4c-0.3,0.3-0.4,0.7-0.4,1.2v2.6h-0.9v-5h0.7l0.1,0.7h0.1
		C92.9,2.3,93.4,2,94,2z"/>
	<path class="st1" d="M99,7.2V2.5h-1.3V1.8h0.6c0.5,0,0.8-0.2,0.8-0.7V0.7h0.8v6.4H99z"/>
	<path class="st1" d="M103.8,3.1c0.5,0,0.9,0.2,1.3,0.6c0.4,0.4,0.6,0.9,0.6,1.5c0,0.6-0.2,1.1-0.6,1.5c-0.4,0.4-0.9,0.6-1.6,0.6
		c-0.7,0-1.2-0.2-1.6-0.6c-0.4-0.4-0.6-0.9-0.6-1.6c0-0.4,0.1-0.7,0.2-1c0.1-0.3,0.3-0.7,0.6-1.1l1.4-2.2h1.1l-1.8,2.6
		C103,3.2,103.4,3.1,103.8,3.1z M103.5,6.5c0.4,0,0.7-0.1,0.9-0.4c0.2-0.3,0.4-0.6,0.4-1c0-0.4-0.1-0.7-0.4-0.9
		c-0.2-0.3-0.5-0.4-0.9-0.4c-0.4,0-0.7,0.1-0.9,0.4c-0.2,0.3-0.4,0.6-0.4,0.9c0,0.4,0.1,0.7,0.4,1C102.8,6.4,103.1,6.5,103.5,6.5z"
		/>
	<path class="st1" d="M94.2,17.1c-0.7,0-1.4-0.2-1.8-0.7c-0.5-0.5-0.7-1.1-0.7-1.9c0-0.7,0.2-1.4,0.7-1.9c0.5-0.5,1.1-0.7,1.8-0.7
		c0.7,0,1.4,0.2,1.8,0.7c0.5,0.5,0.7,1.1,0.7,1.9c0,0.8-0.2,1.4-0.7,1.9C95.6,16.9,95,17.1,94.2,17.1z M94.2,16.3
		c0.5,0,0.9-0.2,1.2-0.5c0.3-0.4,0.5-0.8,0.5-1.3c0-0.5-0.2-0.9-0.5-1.3c-0.3-0.4-0.7-0.5-1.2-0.5c-0.5,0-0.9,0.2-1.2,0.5
		c-0.3,0.4-0.5,0.8-0.5,1.3c0,0.5,0.2,0.9,0.5,1.3C93.4,16.1,93.8,16.3,94.2,16.3z"/>
	<path class="st1" d="M102,12l-2,2.1l2,2.9h-1l-1.6-2.3l-0.7,0.7V17h-0.9V9.8h0.9v4.3h0.1l2.1-2.2H102z"/>
	<path class="st1" d="M105.9,16.9c-0.2,0.2-0.5,0.2-0.8,0.2c-0.8,0-1.2-0.4-1.2-1.3v-3.1h-1V12h0.3c0.5,0,0.8-0.2,0.8-0.7v-0.6h0.8
		V12h1.2v0.7h-1.2v3c0,0.4,0.2,0.6,0.5,0.6c0.2,0,0.3,0,0.4-0.1L105.9,16.9z"/>
</g>
</svg>
