<?xml version="1.0" encoding="utf-8"?>
<!-- Generator: Adobe Illustrator 23.0.2, SVG Export Plug-In . SVG Version: 6.00 Build 0)  -->
<svg version="1.1" id="Laag_1" xmlns="http://www.w3.org/2000/svg" xmlns:xlink="http://www.w3.org/1999/xlink" x="0px" y="0px"
	 width="1612.5px" height="46.2px" viewBox="0 0 1612.5 46.2" style="enable-background:new 0 0 1612.5 46.2;" xml:space="preserve"
	>
<style type="text/css">
	.st0{fill:#FFFFFF;}
</style>
<g>
	<path class="st0" d="M2.4,30.9c3.2,2.1,8,4.2,13.2,4.2c4.1,0,6.7-1.3,6.7-4c0-1.8-1.3-2.9-4.7-3.8l-6.8-1.8
		C3.6,23.5,0.1,19.7,0.1,13.8C0.1,6.7,5.6,1,16.8,1c5.9,0,11.8,1.7,15,3.3l-2.9,8.9c-3.2-1.8-8.3-3.4-12.6-3.4c-4,0-5.8,1.3-5.8,3.3
		c0,1.8,1.2,2.6,3.8,3.3l7.4,2.1c7.7,2.2,11,5.9,11,11.7c0,8-7,13.5-17.4,13.5c-6.1,0-12.6-2.1-15.3-3.6L2.4,30.9z"/>
	<path class="st0" d="M51.2,1.6h12.1l15.7,41.6H68.7l-2.8-7.7H48.4l-2.9,7.7H35.1L51.2,1.6z M51,28h12.4l-6.1-16.3L51,28z"/>
	<path class="st0" d="M84.7,43.2V1.6h10.3v32.7h20.8v8.9H84.7z"/>
	<path class="st0" d="M121.9,43.2V1.6h10.3v32.7h20.8v8.9H121.9z"/>
	<path class="st0" d="M164.4,27.2L148.6,2.3V1.6H160l9.6,16.1l9.6-16.1h11.4v0.7l-15.9,24.8v16.1h-10.3V27.2z"/>
	<path class="st0" d="M208.4,1.6h20.7c8.3,0,15.4,4.8,15.4,15.4c0,9.5-7.1,15.2-15.4,15.2h-10.4v11h-10.3V1.6z M218.7,10.5v12.7h8.8
		c3.6,0,6.3-2.5,6.3-6.3c0-4-2.8-6.4-6.3-6.4H218.7z"/>
	<path class="st0" d="M251.4,1.6h10.3v41.6h-10.3V1.6z"/>
	<path class="st0" d="M291.5,10.6v32.6h-10.3V10.6h-12.8v-9h35.5v9H291.5z"/>
	<path class="st0" d="M330.1,10.6v32.6h-10.3V10.6H307v-9h35.5v9H330.1z"/>
	<path class="st0" d="M386.3,17.8l-12.6,15.1H372l-12.5-15.1v25.5h-10.3V1.6h8.9L372.9,19l14.8-17.4h8.9v41.6h-10.3V17.8z"/>
	<path class="st0" d="M418.1,1.6h12.1l15.7,41.6h-10.4l-2.8-7.7h-17.4l-2.9,7.7H402L418.1,1.6z M417.8,28h12.4l-6.1-16.3L417.8,28z"
		/>
	<path class="st0" d="M461.8,17.9v25.3h-10.3V1.6h8.9l21,25.3V1.6h10.3v41.6h-8.9L461.8,17.9z"/>
	<path class="st0" d="M517.7,43.2V1.6h32.3v5.6h-26.2v11.7h21.7v5.6h-21.7v13h26.2v5.6H517.7z"/>
	<path class="st0" d="M566,11.8v31.5h-6.4V1.6h5.6l26.4,31.6V1.6h6.4v41.6h-5.6L566,11.8z"/>
	<path class="st0" d="M625.1,1.6h17c12.3,0.1,21.5,7.3,21.5,20.9c0,13.4-9.2,20.8-21.5,20.8h-17V1.6z M631.5,7.2v30.5h10.3
		c8.9,0,15.2-5.4,15.2-15.2c0-9.9-6.3-15.2-15.2-15.3H631.5z"/>
	<path class="st0" d="M673.3,43.2V1.6h32.3v5.6h-26.2v11.7h21.7v5.6h-21.7v13h26.2v5.6H673.3z"/>
	<path class="st0" d="M729.9,1.6H746c8.8,0,14.1,3.4,14.1,10.9c0,4.6-2.8,7.7-7,9.1c6.4,1.1,10.3,4.4,10.3,10.7c0,6.7-5,11-14.6,11
		h-18.9V1.6z M744.8,19.2c5.3,0,8.7-1.8,8.7-5.9c0-4.5-3.2-6.1-8.4-6.1h-8.9v12.1H744.8z M748,37.7c5.8,0,8.7-2.1,8.7-6.2
		c0-4.8-3.6-6.7-9.7-6.7h-10.7v12.9H748z"/>
	<path class="st0" d="M772.7,43.2V1.6h6.4v36.1h22.8v5.6H772.7z"/>
	<path class="st0" d="M826.2,1c12.3,0,21.5,9.2,21.5,21.5c0,12.2-9.2,21.4-21.5,21.4c-12.2,0-21.4-9.2-21.4-21.4
		C804.9,10.2,814.1,1,826.2,1z M826.2,37.8c8.9,0,15.2-6.6,15.2-15.4c0-8.9-6.3-15.4-15.2-15.4c-8.8,0-15.1,6.6-15.1,15.4
		C811.1,31.2,817.5,37.8,826.2,37.8z"/>
	<path class="st0" d="M857.3,43.2V1.6h32.3v5.6h-26.2v11.7h21.7v5.6h-21.7v13h26.2v5.6H857.3z"/>
	<path class="st0" d="M938.3,11.7l-15.7,19h-1.2l-15.7-19v31.5h-6.4V1.6h5.8L921.9,22l17-20.4h5.8v41.6h-6.4V11.7z"/>
	<path class="st0" d="M956.9,43.2V1.6h32.3v5.6H963v11.7h21.7v5.6H963v13h26.2v5.6H956.9z"/>
	<path class="st0" d="M1005.2,11.8v31.5h-6.4V1.6h5.6l26.4,31.6V1.6h6.4v41.6h-5.6L1005.2,11.8z"/>
	<path class="st0" d="M1057.6,1.6h6.9l13.6,35.9l14.2-35.9h6.9L1082,43.2h-7.9L1057.6,1.6z"/>
	<path class="st0" d="M1115.8,1.6h7.4l16.5,41.6h-6.5l-3.7-9.2h-20.8l-3.8,9.2h-6.5L1115.8,1.6z M1110.6,29.2h17.4L1119.5,8
		L1110.6,29.2z"/>
	<path class="st0" d="M1153.7,11.8v31.5h-6.4V1.6h5.6l26.4,31.6V1.6h6.4v41.6h-5.6L1153.7,11.8z"/>
	<path class="st0" d="M1248.9,17.8l-12.6,15.1h-1.8l-12.5-15.1v25.5h-10.3V1.6h8.9l14.8,17.4l14.8-17.4h8.9v41.6h-10.3V17.8z"/>
	<path class="st0" d="M1288.5,1c12.3,0,21.5,9.2,21.5,21.5c0,12.2-9.2,21.4-21.5,21.4c-12.2,0-21.4-9.2-21.4-21.4
		C1267.2,10.2,1276.3,1,1288.5,1z M1288.5,34.2c6.7,0,11.3-5.1,11.3-11.7c0-6.7-4.6-11.8-11.3-11.8c-6.6,0-11.3,5-11.3,11.8
		C1277.2,29.1,1282,34.2,1288.5,34.2z"/>
	<path class="st0" d="M1328.2,17.9v25.3h-10.3V1.6h8.9l21,25.3V1.6h10.3v41.6h-8.9L1328.2,17.9z"/>
	<path class="st0" d="M1368.5,1.6h18.7c12.3,0.1,21.5,7.3,21.5,20.9c0,13.4-9.2,20.8-21.5,20.8h-18.7V1.6z M1378.8,10.5v23.8h8
		c6.7,0,11.3-4.2,11.3-11.8c0-7.7-4.6-11.9-11.3-11.9H1378.8z"/>
	<path class="st0" d="M1416.8,1.6h19.8c9.7,0,16,4.4,16,13.8c0,6.2-4.1,10.8-9.9,12.5l12.1,13.4v2h-11l-12.7-14.8h-4.2v14.8h-10.3
		V1.6z M1427,10.5v10.3h9.3c3.4,0,5.6-2.1,5.6-5.1c0-3.2-2.2-5.1-5.6-5.1H1427z"/>
	<path class="st0" d="M1461.7,1.6h10.3v41.6h-10.3V1.6z"/>
	<path class="st0" d="M1493.5,1.6h12.1l15.7,41.6h-10.4l-2.8-7.7h-17.4l-2.9,7.7h-10.4L1493.5,1.6z M1493.2,28h12.4l-6.1-16.3
		L1493.2,28z"/>
	<path class="st0" d="M1538,1.6h12.1l15.7,41.6h-10.4l-2.8-7.7h-17.4l-2.9,7.7h-10.4L1538,1.6z M1537.7,28h12.4l-6.1-16.3L1537.7,28
		z"/>
	<path class="st0" d="M1581.7,17.9v25.3h-10.3V1.6h8.9l21,25.3V1.6h10.3v41.6h-8.9L1581.7,17.9z"/>
</g>
</svg>
