<?xml version="1.0" encoding="utf-8"?>
<!-- Generator: Adobe Illustrator 24.0.0, SVG Export Plug-In . SVG Version: 6.00 Build 0)  -->
<svg version="1.1" id="Laag_1" xmlns="http://www.w3.org/2000/svg" xmlns:xlink="http://www.w3.org/1999/xlink" x="0px" y="0px"
	 width="440.6px" height="78.9px" viewBox="0 0 440.6 78.9" style="enable-background:new 0 0 440.6 78.9;" xml:space="preserve">
<style type="text/css">
	.st0{fill:#FCF4F7;}
</style>
<g>
	<path class="st0" d="M95.3,29.9v-1.4l2.4-0.3V3.4c-4.2,0-6,3-7.5,6.6L89,9.8l1.5-8.5c0.8,0.2,1.5,0.4,2.3,0.5
		c0.8,0.1,1.6,0.1,2.7,0.1h8.2c2.2,0,3.4-0.1,5-0.6l1.5,8.5L109,10c-1.5-3.6-3.4-6.6-7.5-6.6v24.8l2.4,0.3v1.4H95.3z"/>
	<path class="st0" d="M113.1,21.2c0.1,2.8,1.9,6.7,5.6,6.7c2.2,0,3.6-1.3,4.8-3.2l1,0.7c-1.3,2.8-3.6,5.2-7,5.2
		c-5.2,0-7.8-4.7-7.8-9.4c0-6.6,3.5-10.9,7.4-10.9c4.4,0,6.4,3.7,7,7.7L113.1,21.2z M118.2,17.8c1.3-0.4,2.1-0.8,2.1-2.6
		c0-1.5-0.8-3.6-3.1-3.6c-3.4,0-4.4,3.2-4.4,5.6c0,1.2,0,1.6,0,2L118.2,17.8z"/>
	<path class="st0" d="M127.4,29.9v-1.2l2-0.3v-13c0-2.1-0.6-2.5-2.1-2.5v-1l4.1-1.7c0.5,1,1,2.1,1.2,3c1.8-1.6,2.9-3,6.1-3
		c3.8,0,6.3,2.2,6.3,7.1v11.1l2,0.3v1.2h-7.2v-1.2l2-0.3V17.5c0-3-1.2-5-4.2-5c-2.2,0-3.5,1.1-5,2.8v13.1l2,0.3v1.2H127.4z"/>
	<path class="st0" d="M160.3,10.8v1.8h-5.2v12.5c0,2.2,0.7,3.1,2.7,3.1c1,0,2.1-0.7,3.1-1.5l0.6,1.2c-1.8,1.6-3.2,2.6-5.7,2.6
		c-2.6,0-4-2-4-5.7V12.6h-2.5v-1.8h2.6V5.6l3.2-2.6v7.9H160.3z"/>
	<path class="st0" d="M171.9,10.2c5.2,0,8.6,5.4,8.6,10.2c0,4.8-3.3,10.1-8.6,10.1s-8.6-5.4-8.6-10.1
		C163.3,15.6,166.6,10.2,171.9,10.2z M167,20.4c0,4.8,1.2,8.7,4.9,8.7s4.9-3.9,4.9-8.7c0-4.8-1.2-8.7-4.9-8.7S167,15.6,167,20.4z"/>
	<path class="st0" d="M192.1,10.2c5.2,0,8.6,5.4,8.6,10.2c0,4.8-3.3,10.1-8.6,10.1s-8.6-5.4-8.6-10.1
		C183.5,15.6,186.8,10.2,192.1,10.2z M187.2,20.4c0,4.8,1.2,8.7,4.9,8.7c3.6,0,4.9-3.9,4.9-8.7c0-4.8-1.2-8.7-4.9-8.7
		C188.4,11.7,187.2,15.6,187.2,20.4z"/>
	<path class="st0" d="M203.7,29.9v-1.2l2-0.3v-13c0-2.1-0.6-2.5-2.1-2.5v-1l4.1-1.7c0.5,1,1,2.1,1.2,3c1.8-1.6,2.9-3,6.1-3
		c3.8,0,6.3,2.2,6.3,7.1v11.1l2,0.3v1.2h-7.2v-1.2l2-0.3V17.5c0-3-1.2-5-4.2-5c-2.2,0-3.5,1.1-5,2.8v13.1l2,0.3v1.2H203.7z"/>
	<path class="st0" d="M231.7,30.5c-3.1,0-6-1.5-6-3.5c0-1.4,0.8-2.1,1.9-2.1c3,0,1.3,4.1,4.2,4.1c2.2,0,4.2-1.1,4.2-3.2
		c0-5-9.2-4.1-9.2-10.2c0-3.4,2.6-5.5,7.2-5.5c2.3,0,3.5,1,3.5,2.2c0,1.4-0.8,1.9-2,1.9c-1.9,0-1.8-2.7-3.3-2.7
		c-1.6,0-2.8,1.1-2.8,2.7c0,4.5,9.2,3,9.2,10.2C238.6,27.7,236,30.5,231.7,30.5z"/>
	<path class="st0" d="M252.4,10.8v1.8h-5.2v12.5c0,2.2,0.7,3.1,2.7,3.1c1,0,2.1-0.7,3.1-1.5l0.6,1.2c-1.8,1.6-3.2,2.6-5.7,2.6
		c-2.6,0-4-2-4-5.7V12.6h-2.5v-1.8h2.6V5.6l3.2-2.6v7.9H252.4z"/>
	<path class="st0" d="M259,21.2c0.1,2.8,1.9,6.7,5.6,6.7c2.2,0,3.6-1.3,4.8-3.2l1,0.7c-1.3,2.8-3.6,5.2-7,5.2
		c-5.2,0-7.8-4.7-7.8-9.4c0-6.6,3.5-10.9,7.4-10.9c4.4,0,6.4,3.7,7,7.7L259,21.2z M264.2,17.8c1.3-0.4,2.1-0.8,2.1-2.6
		c0-1.5-0.8-3.6-3.1-3.6c-3.4,0-4.4,3.2-4.4,5.6c0,1.2,0,1.6,0,2L264.2,17.8z"/>
	<path class="st0" d="M279.2,0c0,0.8-0.1,1.6-0.1,2.4v26l2,0.3v1.2h-7.2v-1.2l2-0.3V6.4c0-2.8-0.4-3.5-1.2-3.5c-0.3,0-0.6,0-1,0.2
		V1.8L279.2,0z"/>
	<path class="st0" d="M290.5,0c0,0.8-0.1,1.6-0.1,2.4v26l2,0.3v1.2h-7.2v-1.2l2-0.3V6.4c0-2.8-0.4-3.5-1.2-3.5c-0.3,0-0.6,0-1,0.2
		V1.8L290.5,0z"/>
	<path class="st0" d="M296.5,29.9v-1.2l2-0.3V16.6c0-2.8-0.4-3.5-1.2-3.5c-0.3,0-0.6,0-1,0.2v-1.2l5.5-1.8c0,0.8-0.1,1.6-0.1,2.4
		v15.8l2,0.3v1.2H296.5z M302.3,3.4c0,1.2-0.8,2.1-2.2,2.1c-1.4,0-2.2-1-2.2-2.1s0.8-2.1,2.2-2.1C301.5,1.3,302.3,2.3,302.3,3.4z"/>
	<path class="st0" d="M307.3,29.9v-1.2l2-0.3v-13c0-2.1-0.6-2.5-2.1-2.5v-1l4.1-1.7c0.5,1,1,2.1,1.2,3c1.8-1.6,2.9-3,6.1-3
		c3.8,0,6.3,2.2,6.3,7.1v11.1l2,0.3v1.2h-7.2v-1.2l2-0.3V17.5c0-3-1.2-5-4.2-5c-2.2,0-3.5,1.1-5,2.8v13.1l2,0.3v1.2H307.3z"/>
	<path class="st0" d="M329.5,33.1c0-1.8,2.2-2.8,3.5-3.6c-1-0.3-2.9-0.3-2.9-2c0-1.6,3-3.5,4.1-4.4c-2.2-1.3-3.7-3.2-3.7-5.9
		c0-4,3.2-6.9,7.3-6.9h1.4c1.6-1.6,3.6-3.8,6-3.8c1.3,0,2.1,0.9,2.1,1.8c0,1.2-0.7,2-2.1,2c-0.9,0-1.7-0.7-2.2-1.2
		c-1,0-1.6,0.9-2.2,1.5c2.9,1,5,3.3,5,6.4c0,4.2-3.4,7.2-7.8,7.2c-0.7,0-1.6-0.1-2.2-0.3c-0.4,0.3-2,1.2-2,1.8
		c0,0.8,1.4,1.2,5.9,1.2c4.8,0,7.7,1.5,7.7,5c0,3.2-2.9,5.4-10,5.4C334.1,37.1,329.5,36.8,329.5,33.1z M344.7,32.3
		c0-0.9-0.7-1.5-1.6-1.8c-1.8-0.6-4.2-0.7-8.2-0.7c-0.6,0.1-2.1,1.7-2.1,2.9c0,2.7,2.7,3,4.9,3C341.3,35.6,344.7,35.2,344.7,32.3z
		 M338.1,22.6c3.1,0,4.4-3,4.4-5.6c0-3.3-1.6-5.4-4.4-5.4c-3.1,0-4.4,2.8-4.4,5.4C333.7,19.2,335,22.6,338.1,22.6z"/>
</g>
<g>
	<g>
		<path class="st0" d="M111.6,70.5c-0.6-0.3-1.3-0.4-2.1-0.5c-0.8-0.1-1.6-0.1-2.8-0.1h-9.8v-2.1c2-3.2,4.4-6.3,7.1-9.1
			c2.9-3,5.6-6.1,5.6-9.6c0-3.8-2.3-6.2-5.1-6.2c-1.9,0-3.9,0.9-3.9,2.6c0,0.8,1.3,1.3,1.3,3.1c0,1-0.4,2.4-2,2.4
			c-1.5,0-2.5-1.4-2.5-2.9c0-4,4-6.7,8.1-6.7c5,0,8,3.5,8,7.6c0,5.1-4.8,8.2-8.7,11.7c-2.3,2-4.9,4.6-5,5.8h6.9
			c3.6,0,4.4-1.6,5.5-4.3l1.4,0.2L111.6,70.5z"/>
		<path class="st0" d="M131.7,70.5c-0.6-0.3-1.3-0.4-2.1-0.5c-0.8-0.1-1.6-0.1-2.8-0.1h-9.8v-2.1c2-3.2,4.4-6.3,7.1-9.1
			c2.9-3,5.6-6.1,5.6-9.6c0-3.8-2.3-6.2-5.1-6.2c-1.9,0-3.9,0.9-3.9,2.6c0,0.8,1.3,1.3,1.3,3.1c0,1-0.4,2.4-2,2.4
			c-1.5,0-2.5-1.4-2.5-2.9c0-4,4-6.7,8.1-6.7c5,0,8,3.5,8,7.6c0,5.1-4.8,8.2-8.7,11.7c-2.3,2-4.9,4.6-5,5.8h6.9
			c3.6,0,4.4-1.6,5.5-4.3l1.4,0.2L131.7,70.5z"/>
		<path class="st0" d="M153.5,70.5c-3.1,0-6-1.5-6-3.5c0-1.4,0.8-2.1,1.9-2.1c3,0,1.3,4.1,4.2,4.1c2.2,0,4.2-1.1,4.2-3.2
			c0-5-9.2-4.1-9.2-10.2c0-3.4,2.6-5.5,7.2-5.5c2.3,0,3.5,1,3.5,2.2c0,1.4-0.8,1.9-2,1.9c-1.9,0-1.8-2.7-3.3-2.7
			c-1.6,0-2.8,1.1-2.8,2.7c0,4.5,9.2,3,9.2,10.2C160.4,67.7,157.8,70.5,153.5,70.5z"/>
		<path class="st0" d="M167.3,61.2c0.1,2.8,1.9,6.7,5.6,6.7c2.2,0,3.6-1.3,4.8-3.2l1,0.7c-1.3,2.8-3.6,5.2-7,5.2
			c-5.2,0-7.8-4.7-7.8-9.4c0-6.6,3.5-10.9,7.4-10.9c4.4,0,6.4,3.7,7,7.7L167.3,61.2z M172.4,57.8c1.3-0.4,2.1-0.8,2.1-2.6
			c0-1.5-0.8-3.6-3.1-3.6c-3.4,0-4.4,3.2-4.4,5.6c0,1.2,0,1.6,0,2L172.4,57.8z"/>
		<path class="st0" d="M181.3,76.7v-1.2l2-0.3V56.5c0-2.8-0.4-3.5-1.2-3.5c-0.3,0-0.6,0-1,0.2V52l4.1-1.7c0.5,1,0.9,2,1.3,3
			c1.4-1.5,3.1-3,5.3-3c4.4,0,6.8,4.8,6.8,9.2c0,7-4.2,10.8-7.8,10.8c-1.8,0-3-0.2-4.3-1v5.9l2,0.3v1.2H181.3z M186.5,66.4
			c0,1.1,2.1,2.7,3.8,2.7c3.8,0,5-4,5-7.6c0-3.6-1.2-8.5-5.1-8.5c-1.8,0-3,1.2-3.7,2.2V66.4z"/>
		<path class="st0" d="M210.5,61.4v-2.2h20v2.2H210.5z"/>
		<path class="st0" d="M256.6,70.5c-0.6-0.3-1.3-0.4-2.1-0.5c-0.8-0.1-1.6-0.1-2.8-0.1h-9.8v-2.1c2-3.2,4.4-6.3,7.1-9.1
			c2.9-3,5.6-6.1,5.6-9.6c0-3.8-2.3-6.2-5.1-6.2c-1.9,0-3.9,0.9-3.9,2.6c0,0.8,1.3,1.3,1.3,3.1c0,1-0.4,2.4-2,2.4
			c-1.5,0-2.5-1.4-2.5-2.9c0-4,4-6.7,8.1-6.7c5,0,8,3.5,8,7.6c0,5.1-4.8,8.2-8.7,11.7c-2.3,2-4.9,4.6-5,5.8h6.9
			c3.6,0,4.4-1.6,5.5-4.3l1.4,0.2L256.6,70.5z"/>
		<path class="st0" d="M264.9,69.9v-1.4l5-0.5V47.5c0-2-0.2-2.6-2.5-2.6c-0.8,0-1.6,0-2.4,0v-1.5l8.5-2.2v26.8l4.2,0.4v1.4H264.9z"
			/>
		<path class="st0" d="M301.9,50.8v1.8H298v15.8l2,0.3v1.2h-7.2v-1.2l2-0.3V52.6h-2.2v-1.8h2.2c0.1-4.9,3.8-10.8,7.3-10.8
			c1.4,0,2.4,0.6,2.4,2.2c0,1-0.8,1.6-1.8,1.6s-1.4-0.3-1.7-0.6c-0.3-0.3-0.4-0.6-0.8-0.6c-1.2,0-2.2,2.2-2.2,4.7c0,1.4,0,2.5,0,3.5
			H301.9z"/>
		<path class="st0" d="M307.9,61.2c0.1,2.8,1.9,6.7,5.6,6.7c2.2,0,3.6-1.3,4.8-3.2l1,0.7c-1.3,2.8-3.6,5.2-7,5.2
			c-5.2,0-7.8-4.7-7.8-9.4c0-6.6,3.5-10.9,7.4-10.9c4.4,0,6.4,3.7,7,7.7L307.9,61.2z M313,57.8c1.3-0.4,2.1-0.8,2.1-2.6
			c0-1.5-0.8-3.6-3.1-3.6c-3.4,0-4.4,3.2-4.4,5.6c0,1.2,0,1.6,0,2L313,57.8z"/>
		<path class="st0" d="M326.9,40c0,0.8-0.1,1.6-0.1,2.4v10.4c1.4-1.4,2.9-2.6,4.7-2.6c4.5,0,7.5,3.7,7.5,9.4c0,5.2-3,10.9-8.2,10.9
			c-1.9,0-4-0.9-5.2-2.8l-2.4,2.8l-0.7-0.4c0.5-1.2,1.2-3.9,1.2-8.6V46.4c0-2.8-0.4-3.5-1.2-3.5c-0.3,0-0.6,0-1,0.2v-1.2L326.9,40z
			 M326.8,65.6c0,1.8,2.1,3.5,3.8,3.5c3.9,0,5.2-4.1,5.2-7.4c0-4.9-2-8.8-5.5-8.8c-1.4,0-2.8,1-3.5,2V65.6z"/>
	</g>
</g>
</svg>
