<?xml version="1.0" encoding="utf-8"?>
<!-- Generator: Adobe Illustrator 22.0.0, SVG Export Plug-In . SVG Version: 6.00 Build 0)  -->
<svg version="1.1" id="Laag_1" xmlns="http://www.w3.org/2000/svg" xmlns:xlink="http://www.w3.org/1999/xlink" x="0px" y="0px"
	 viewBox="0 0 267.3 33.8" style="enable-background:new 0 0 267.3 33.8;" xml:space="preserve">
<style type="text/css">
	.st0{fill:#FFFFFF;}
</style>
<g>
	<path class="st0" d="M9.1,6.9l5.3,13.2l5.3-13.2h6.1l-9.2,21.8h-4.5L3,6.9H9.1z"/>
	<path class="st0" d="M26.1,17.8c0-1.6,0.3-3.1,0.9-4.5s1.4-2.6,2.5-3.7c1.1-1,2.3-1.9,3.8-2.4c1.5-0.6,3.1-0.9,4.9-0.9
		c1.8,0,3.4,0.3,4.8,0.9c1.5,0.6,2.8,1.4,3.8,2.4c1.1,1,1.9,2.3,2.5,3.7c0.6,1.4,0.9,2.9,0.9,4.5c0,1.6-0.3,3.1-0.9,4.5
		c-0.6,1.4-1.4,2.6-2.5,3.7c-1.1,1-2.3,1.9-3.8,2.4c-1.5,0.6-3.1,0.9-4.8,0.9c-1.8,0-3.4-0.3-4.9-0.9c-1.5-0.6-2.7-1.4-3.8-2.4
		c-1.1-1-1.9-2.3-2.5-3.7C26.4,20.9,26.1,19.4,26.1,17.8z M32.1,17.8c0,0.9,0.2,1.7,0.5,2.4c0.3,0.7,0.8,1.4,1.3,1.9s1.2,1,1.9,1.3
		c0.7,0.3,1.5,0.4,2.4,0.4s1.6-0.1,2.4-0.4s1.4-0.7,2-1.3s1-1.2,1.3-1.9c0.3-0.7,0.5-1.5,0.5-2.4s-0.2-1.7-0.5-2.4
		c-0.3-0.7-0.8-1.4-1.3-1.9s-1.2-1-2-1.3c-0.7-0.3-1.5-0.4-2.4-0.4s-1.6,0.1-2.4,0.4c-0.7,0.3-1.4,0.7-1.9,1.3s-1,1.2-1.3,1.9
		C32.2,16.1,32.1,16.9,32.1,17.8z"/>
	<path class="st0" d="M52.8,17.8c0-1.6,0.3-3.1,0.9-4.5s1.4-2.6,2.5-3.7c1.1-1,2.3-1.9,3.8-2.4c1.5-0.6,3.1-0.9,4.9-0.9
		c1.8,0,3.4,0.3,4.8,0.9c1.5,0.6,2.8,1.4,3.8,2.4c1.1,1,1.9,2.3,2.5,3.7c0.6,1.4,0.9,2.9,0.9,4.5c0,1.6-0.3,3.1-0.9,4.5
		c-0.6,1.4-1.4,2.6-2.5,3.7c-1.1,1-2.3,1.9-3.8,2.4c-1.5,0.6-3.1,0.9-4.8,0.9c-1.8,0-3.4-0.3-4.9-0.9c-1.5-0.6-2.7-1.4-3.8-2.4
		c-1.1-1-1.9-2.3-2.5-3.7C53.1,20.9,52.8,19.4,52.8,17.8z M58.7,17.8c0,0.9,0.2,1.7,0.5,2.4c0.3,0.7,0.8,1.4,1.3,1.9s1.2,1,1.9,1.3
		c0.7,0.3,1.5,0.4,2.4,0.4s1.6-0.1,2.4-0.4s1.4-0.7,2-1.3s1-1.2,1.3-1.9c0.3-0.7,0.5-1.5,0.5-2.4s-0.2-1.7-0.5-2.4
		c-0.3-0.7-0.8-1.4-1.3-1.9s-1.2-1-2-1.3c-0.7-0.3-1.5-0.4-2.4-0.4s-1.6,0.1-2.4,0.4c-0.7,0.3-1.4,0.7-1.9,1.3s-1,1.2-1.3,1.9
		C58.9,16.1,58.7,16.9,58.7,17.8z"/>
	<path class="st0" d="M98.6,28.6h-7l-5.4-8.4v8.4h-5.7V6.9h8.8c1.2,0,2.3,0.2,3.2,0.5s1.6,0.8,2.2,1.5c0.6,0.6,1,1.3,1.3,2.1
		c0.3,0.8,0.4,1.7,0.4,2.6c0,1.7-0.4,3-1.2,4c-0.8,1-2,1.7-3.5,2.1L98.6,28.6z M86.2,16.6h1.1c1.1,0,2-0.2,2.6-0.7
		c0.6-0.5,0.9-1.1,0.9-2s-0.3-1.5-0.9-2c-0.6-0.5-1.5-0.7-2.6-0.7h-1.1V16.6z"/>
	<path class="st0" d="M111.7,6.9V22c0,0.6,0,1.2-0.1,1.8c-0.1,0.5-0.2,1-0.3,1.4c-0.2,0.6-0.6,1.2-1,1.7c-0.4,0.5-0.9,0.9-1.5,1.3
		s-1.2,0.6-1.9,0.8c-0.7,0.2-1.4,0.3-2.2,0.3c-2.3,0-4.2-1.1-5.7-3.2l3.7-3.8c0.1,0.7,0.3,1.2,0.6,1.6s0.7,0.6,1.2,0.6
		c1.1,0,1.6-0.8,1.6-2.5v-15H111.7z"/>
	<path class="st0" d="M129.1,24.9H121l-1.3,3.8h-6l8.3-21.8h6.2l8.3,21.8h-6L129.1,24.9z M127.6,20.6l-2.5-7.2l-2.5,7.2H127.6z"/>
	<path class="st0" d="M152.2,24.9h-8.1l-1.3,3.8h-6l8.3-21.8h6.2l8.3,21.8h-6L152.2,24.9z M150.7,20.6l-2.5-7.2l-2.5,7.2H150.7z"/>
	<path class="st0" d="M180.1,28.6h-7l-5.4-8.4v8.4H162V6.9h8.8c1.2,0,2.3,0.2,3.2,0.5s1.6,0.8,2.2,1.5c0.6,0.6,1,1.3,1.3,2.1
		c0.3,0.8,0.4,1.7,0.4,2.6c0,1.7-0.4,3-1.2,4c-0.8,1-2,1.7-3.5,2.1L180.1,28.6z M167.7,16.6h1.1c1.1,0,2-0.2,2.6-0.7
		c0.6-0.5,0.9-1.1,0.9-2s-0.3-1.5-0.9-2c-0.6-0.5-1.5-0.7-2.6-0.7h-1.1V16.6z"/>
	<path class="st0" d="M208.3,28.6h-17.5l5.4-5.6c1.4-1.5,2.5-2.7,3.3-3.8c0.8-1,1.4-1.9,1.8-2.6c0.4-0.7,0.6-1.3,0.7-1.7
		c0.1-0.4,0.1-0.8,0.1-1.1c0-0.3-0.1-0.6-0.2-1c-0.1-0.3-0.3-0.6-0.5-0.8c-0.2-0.2-0.5-0.4-0.8-0.6c-0.3-0.1-0.6-0.2-1.1-0.2
		c-0.8,0-1.4,0.3-1.8,0.8c-0.4,0.5-0.6,1.1-0.6,1.9c0,0.2,0,0.5,0.1,0.9h-6.2c0-1.3,0.2-2.4,0.6-3.5c0.4-1,1-1.9,1.7-2.7
		c0.8-0.8,1.6-1.3,2.7-1.7c1-0.4,2.2-0.6,3.4-0.6c1.2,0,2.3,0.2,3.4,0.6s1.9,0.9,2.7,1.6s1.3,1.5,1.8,2.5c0.4,1,0.6,2,0.6,3.1
		c0,1.2-0.3,2.3-0.8,3.3c-0.5,1-1.3,2-2.4,3.1l-3.6,3.4h7V28.6z"/>
	<path class="st0" d="M210.2,17.7c0-1.7,0.2-3.3,0.7-4.7c0.5-1.4,1.1-2.6,1.9-3.6c0.8-1,1.8-1.8,2.9-2.3s2.4-0.8,3.7-0.8
		c1.3,0,2.6,0.3,3.7,0.8c1.1,0.5,2.1,1.3,2.9,2.3c0.8,1,1.4,2.2,1.9,3.6s0.7,3,0.7,4.7s-0.2,3.3-0.7,4.7c-0.5,1.4-1.1,2.6-1.9,3.6
		c-0.8,1-1.8,1.8-2.9,2.3c-1.1,0.5-2.4,0.8-3.7,0.8c-1.4,0-2.6-0.3-3.7-0.8s-2.1-1.3-2.9-2.3c-0.8-1-1.5-2.2-1.9-3.6
		C210.4,21,210.2,19.5,210.2,17.7z M215.8,17.7c0,1,0.1,1.8,0.3,2.6c0.2,0.8,0.4,1.5,0.7,2s0.7,1,1.1,1.3c0.4,0.3,0.9,0.5,1.5,0.5
		c0.5,0,1-0.2,1.5-0.5c0.5-0.3,0.8-0.8,1.1-1.3c0.3-0.6,0.5-1.3,0.7-2c0.2-0.8,0.3-1.7,0.3-2.6c0-0.9-0.1-1.8-0.3-2.6
		c-0.2-0.8-0.4-1.5-0.7-2c-0.3-0.6-0.7-1-1.1-1.3c-0.5-0.3-0.9-0.5-1.5-0.5c-0.6,0-1.1,0.2-1.5,0.5c-0.4,0.3-0.8,0.8-1.1,1.3
		c-0.3,0.6-0.6,1.3-0.7,2C215.9,15.9,215.8,16.8,215.8,17.7z"/>
	<path class="st0" d="M235.4,11.7h-3.2V6.9h8.8v21.8h-5.7V11.7z"/>
	<path class="st0" d="M251.5,17.2c-2.3-0.9-3.4-2.5-3.4-4.8c0-0.9,0.2-1.8,0.5-2.5c0.4-0.7,0.9-1.4,1.5-1.9c0.6-0.5,1.4-1,2.3-1.2
		s1.9-0.4,3-0.4s2.1,0.1,3,0.4c0.9,0.3,1.7,0.7,2.3,1.2c0.6,0.5,1.1,1.2,1.5,1.9c0.4,0.7,0.5,1.6,0.5,2.5c0,0.6-0.1,1.1-0.2,1.5
		c-0.1,0.5-0.3,0.9-0.6,1.2c-0.3,0.4-0.6,0.7-1.1,1.1c-0.5,0.3-1,0.6-1.7,1c3,1.2,4.4,3,4.4,5.6c0,0.9-0.2,1.8-0.6,2.6
		c-0.4,0.8-1,1.5-1.7,2c-0.7,0.6-1.6,1-2.6,1.4c-1,0.3-2.1,0.5-3.3,0.5c-1.2,0-2.3-0.2-3.3-0.5c-1-0.3-1.9-0.8-2.6-1.3
		c-0.8-0.6-1.3-1.3-1.8-2c-0.4-0.8-0.6-1.7-0.6-2.6C247.2,20.1,248.7,18.3,251.5,17.2z M252.9,22.1c0,0.4,0.1,0.7,0.2,1
		c0.1,0.3,0.3,0.6,0.5,0.9c0.2,0.2,0.5,0.4,0.8,0.6c0.3,0.1,0.7,0.2,1,0.2c0.3,0,0.7-0.1,1-0.2c0.3-0.1,0.6-0.3,0.8-0.6
		c0.2-0.2,0.4-0.5,0.6-0.8c0.1-0.3,0.2-0.7,0.2-1c0-0.7-0.3-1.4-0.8-1.9c-0.5-0.5-1.1-0.8-1.8-0.8c-0.7,0-1.3,0.3-1.8,0.8
		C253.2,20.7,252.9,21.4,252.9,22.1z M253.2,12.4c0,0.7,0.2,1.2,0.7,1.7c0.5,0.5,1,0.7,1.7,0.7c0.3,0,0.7-0.1,1-0.2
		c0.3-0.1,0.5-0.3,0.8-0.5c0.2-0.2,0.4-0.5,0.5-0.8c0.1-0.3,0.2-0.6,0.2-0.9c0-0.7-0.2-1.2-0.7-1.7c-0.5-0.5-1-0.7-1.7-0.7
		s-1.2,0.2-1.7,0.7C253.4,11.2,253.2,11.8,253.2,12.4z"/>
</g>
</svg>
