<?xml version="1.0" encoding="utf-8"?>
<!-- Generator: Adobe Illustrator 24.0.0, SVG Export Plug-In . SVG Version: 6.00 Build 0)  -->
<svg version="1.1" id="Laag_1" xmlns="http://www.w3.org/2000/svg" xmlns:xlink="http://www.w3.org/1999/xlink" x="0px" y="0px"
	 width="92.3px" height="9.2px" viewBox="0 0 92.3 9.2" style="enable-background:new 0 0 92.3 9.2;" xml:space="preserve">
<g>
	<path d="M3.1,9.1h-1V3c0-0.5,0-1,0-1.4c0,0.1-0.1,0.1-0.2,0.2S1.3,2.3,0.5,3L0,2.3l2.3-1.8h0.8V9.1z"/>
	<path d="M11.7,2.6c0,0.5-0.2,1-0.5,1.3s-0.7,0.6-1.3,0.7l0,0c0.7,0.1,1.2,0.3,1.5,0.7s0.5,0.8,0.5,1.4c0,0.8-0.3,1.4-0.8,1.9
		S9.7,9.2,8.7,9.2c-0.5,0-0.9,0-1.2-0.1S6.7,8.9,6.3,8.8v-1C6.7,8,7.1,8.2,7.5,8.3s0.8,0.1,1.2,0.1c1.5,0,2.2-0.6,2.2-1.7
		c0-1-0.8-1.6-2.4-1.6H7.6V4.3h0.9c0.7,0,1.2-0.1,1.6-0.4s0.6-0.7,0.6-1.2c0-0.4-0.1-0.7-0.4-1S9.5,1.3,9,1.3c-0.3,0-0.7,0-1,0.1
		S7.3,1.7,6.8,2L6.4,1.3C6.7,1,7.1,0.8,7.6,0.7S8.5,0.4,9,0.4c0.8,0,1.5,0.2,1.9,0.6S11.7,1.9,11.7,2.6z"/>
	<path d="M13.1,6.3V5.5H16v0.9L13.1,6.3L13.1,6.3z"/>
	<path d="M20.7,9.1h-0.9V3c0-0.5,0-1,0-1.4c-0.1,0.1-0.2,0.2-0.3,0.3C19.4,2,18.9,2.3,18.1,3l-0.5-0.7l2.3-1.8h0.8
		C20.7,0.5,20.7,9.1,20.7,9.1z"/>
	<path d="M26.6,3.9c0.9,0,1.6,0.2,2.1,0.7s0.8,1.1,0.8,1.8c0,0.9-0.3,1.6-0.8,2.1s-1.3,0.8-2.3,0.8s-1.7-0.2-2.2-0.5v-1
		c0.3,0.2,0.6,0.3,1,0.4s0.8,0.1,1.2,0.1c0.7,0,1.2-0.2,1.6-0.5s0.6-0.8,0.6-1.4c0-1.2-0.7-1.8-2.2-1.8c-0.4,0-0.9,0.1-1.5,0.2
		l-0.5-0.3l0.3-4H29v0.9h-3.4L25.3,4C25.7,3.9,26.2,3.9,26.6,3.9z"/>
	<path d="M41.2,9.1h-1.1l-4.7-7.2l0,0c0.1,0.8,0.1,1.6,0.1,2.3v4.9h-0.9V0.6h1.1l4.7,7.2l0,0c0-0.1,0-0.4-0.1-1s0-1,0-1.2v-5h0.9
		V9.1z"/>
	<path d="M48.9,5.9c0,1-0.3,1.9-0.8,2.5S46.9,9.2,46,9.2c-0.6,0-1.1-0.1-1.5-0.4s-0.8-0.7-1-1.2S43,6.6,43,5.9c0-1,0.3-1.9,0.8-2.4
		S45,2.6,46,2.6c0.9,0,1.6,0.3,2.1,0.9S48.9,4.9,48.9,5.9z M44.1,5.9c0,0.8,0.2,1.4,0.5,1.9s0.8,0.6,1.4,0.6s1.1-0.2,1.5-0.6
		S48,6.7,48,5.9S47.8,4.5,47.5,4S46.6,3.4,46,3.4S44.9,3.6,44.6,4S44.1,5.1,44.1,5.9z"/>
	<path d="M52.1,9.1l-2.4-6.4h1L52,6.5c0.3,0.9,0.5,1.5,0.6,1.7l0,0C52.7,8,52.8,7.6,53,7s0.7-2.1,1.5-4.3h1l-2.4,6.4H52.1z"/>
	<path d="M59.4,9.2c-0.9,0-1.7-0.3-2.2-0.9S56.3,7,56.3,6s0.3-1.9,0.8-2.5s1.2-0.9,2.1-0.9c0.8,0,1.4,0.3,1.9,0.8s0.7,1.2,0.7,2.1
		v0.6h-4.4c0,0.8,0.2,1.3,0.6,1.7s0.9,0.6,1.5,0.6c0.7,0,1.4-0.1,2.1-0.4v0.9c-0.3,0.1-0.7,0.3-1,0.3S59.8,9.2,59.4,9.2z M59.1,3.4
		c-0.5,0-0.9,0.2-1.2,0.5s-0.5,0.8-0.5,1.4h3.4c0-0.6-0.1-1.1-0.4-1.4S59.6,3.4,59.1,3.4z"/>
	<path d="M71.6,9.1V4.9c0-0.5-0.1-0.9-0.3-1.2s-0.6-0.4-1-0.4c-0.6,0-1.1,0.2-1.3,0.5s-0.4,0.9-0.4,1.6V9h-1V4.9
		c0-0.5-0.1-0.9-0.3-1.2s-0.6-0.4-1-0.4c-0.6,0-1.1,0.2-1.3,0.5s-0.4,1-0.4,1.8V9h-1V2.7h0.8l0.2,0.9l0,0C64.8,3.3,65,3,65.4,2.9
		s0.7-0.3,1.1-0.3c1,0,1.7,0.4,2,1.1l0,0c0.2-0.3,0.5-0.6,0.8-0.8s0.8-0.3,1.2-0.3c0.7,0,1.3,0.2,1.6,0.6s0.5,1,0.5,1.8v4.2
		L71.6,9.1L71.6,9.1z"/>
	<path d="M77.5,2.6c0.8,0,1.5,0.3,2,0.9s0.7,1.4,0.7,2.4S80,7.8,79.5,8.4s-1.1,0.9-2,0.9c-0.4,0-0.8-0.1-1.1-0.2s-0.6-0.4-0.9-0.7
		h-0.1l-0.2,0.8h-0.7V0h1v2.2c0,0.5,0,0.9,0,1.3l0,0C76,2.9,76.7,2.6,77.5,2.6z M77.4,3.4c-0.7,0-1.1,0.2-1.4,0.6s-0.4,1-0.4,1.9
		s0.2,1.5,0.5,1.9c0.3,0.4,0.8,0.6,1.4,0.6s1-0.2,1.3-0.7s0.4-1.1,0.4-1.9s-0.1-1.5-0.4-1.9S78,3.4,77.4,3.4z"/>
	<path d="M84.6,9.2c-0.9,0-1.7-0.3-2.2-0.9S81.6,7,81.6,6s0.3-1.9,0.8-2.5s1.2-0.9,2.1-0.9c0.8,0,1.4,0.3,1.9,0.8S87,4.6,87,5.5v0.6
		h-4.4c0,0.8,0.2,1.3,0.6,1.7s0.9,0.6,1.5,0.6c0.7,0,1.4-0.1,2.1-0.4v0.9c-0.3,0.1-0.7,0.3-1,0.3S85.1,9.2,84.6,9.2z M84.4,3.4
		c-0.5,0-0.9,0.2-1.2,0.5s-0.5,0.8-0.5,1.4h3.4c0-0.6-0.1-1.1-0.4-1.4S84.9,3.4,84.4,3.4z"/>
	<path d="M91.6,2.6c0.3,0,0.5,0,0.8,0.1l-0.1,0.9c-0.3-0.1-0.5-0.1-0.7-0.1c-0.5,0-1,0.2-1.3,0.6S89.6,5,89.6,5.7v3.4h-1V2.7h0.8
		l0.1,1.2l0,0c0.2-0.4,0.5-0.7,0.9-1S91.2,2.6,91.6,2.6z"/>
</g>
</svg>
