<?xml version="1.0" encoding="utf-8"?>
<!-- Generator: Adobe Illustrator 24.3.0, SVG Export Plug-In . SVG Version: 6.00 Build 0)  -->
<svg version="1.1" id="Laag_1" xmlns="http://www.w3.org/2000/svg" xmlns:xlink="http://www.w3.org/1999/xlink" x="0px" y="0px"
	 width="85.6px" height="25.9px" viewBox="0 0 85.6 25.9" style="enable-background:new 0 0 85.6 25.9;" xml:space="preserve">
<path d="M69.2,21.5c0.2-0.8,0.8-1.2,1.6-1.2c0.8,0,1.5,0.3,1.6,1.1L69.2,21.5z M70.8,25.9c2.1,0,3-0.3,4.2-0.7v-2.4
	c-0.9,0.4-1.6,0.8-3.4,0.8c-1.3,0-2-0.4-2.3-1h6.1v-1.2c0-2-1.8-3.4-4.5-3.4c-2.7,0-4.5,1.6-4.5,4C66.2,24.3,68,25.9,70.8,25.9
	 M60.7,25.7h3v-5.5h1.5v-2.1h-1.5c0-0.8,0.1-1.1,1-1.1c0.2,0,0.3,0,0.5,0v-1.9C64.1,15,63.6,15,63,15c-2,0-2.3,0.7-2.3,2.9v0.3h-0.9
	v2.2h0.9V25.7z M55.3,25.7h3v-7.5h-3V25.7z M56.8,17.5c1.2,0,1.8-0.4,1.8-1.6c0-1.1-0.6-1.6-1.8-1.6c-1.1,0-1.8,0.4-1.8,1.6
	C55.1,17.1,55.7,17.5,56.8,17.5 M44.1,25.7h9.7v-2.6h-6.7v-7.9h-3V25.7z M34,25.7h3V15.2h-3V25.7z M27.3,23.9
	c-0.6,0-1.1-0.2-1.1-0.5c0-0.6,1.2-0.8,2.9-0.9C29.2,23.5,28.1,23.9,27.3,23.9 M25.9,25.9c2.3,0,3.1-0.9,3.5-2.9h0.2l-0.3,2.7h2.9
	v-4.2c0-2.1-1-3.5-3.8-3.5c-1.3,0-3.1,0.3-4.3,0.8v2.6c1-0.4,2.5-0.8,3.7-0.8c0.8,0,1.4,0.3,1.4,0.7c-4.1,0.3-6.1,1-6.1,2.7
	C23.1,25.7,24.8,25.9,25.9,25.9 M15.7,21.5c0.2-0.8,0.8-1.2,1.6-1.2c0.8,0,1.5,0.3,1.6,1.1L15.7,21.5z M17.3,25.9
	c2.1,0,3-0.3,4.2-0.7v-2.4c-0.9,0.4-1.6,0.8-3.4,0.8c-1.3,0-2-0.4-2.3-1h6.1v-1.2c0-2-1.8-3.4-4.5-3.4c-2.7,0-4.5,1.6-4.5,4
	C12.8,24.3,14.6,25.9,17.3,25.9 M3,19.1l0-1.6h5c0.6,0,0.9,0.2,0.9,0.8S8.6,19.1,8,19.1H3z M0,25.7h3l0-4.2h1.7c1.7,0,2,0.7,4,4.2h4
	c-1.7-3.4-2.6-4.9-5.2-5.1h1.1c2,0,3.4-1,3.4-2.6c0-1.6-1.2-2.8-3.4-2.8H0V25.7z"/>
<path d="M79.2,7.1c0.2-0.8,0.8-1.2,1.6-1.2c0.8,0,1.5,0.3,1.6,1.1L79.2,7.1z M80.8,11.5c2.1,0,3-0.3,4.2-0.7V8.3
	c-0.9,0.4-1.6,0.8-3.4,0.8c-1.3,0-2-0.4-2.3-1h6.1V6.9c0-2-1.8-3.4-4.5-3.4c-2.7,0-4.5,1.6-4.5,4C76.2,9.9,78,11.5,80.8,11.5
	 M65,11.2h3V8.7c0-1.7,0.9-3,2.1-3c1.2,0,1.7,0.5,1.7,2.5v3h3V8c0-3.7-0.9-4.5-3-4.5c-2.4,0-3.4,0.9-3.8,3.3h-0.2l0.3-6.1H65V11.2z
	 M61,11.4c0.8,0,1.5-0.1,2.3-0.3V9.3c-0.2,0-0.4,0-0.6,0c-0.9,0-0.9-0.3-0.9-1.2V5.9h1.5V3.7h-1.5V1.6l-2.7,0.3v1.8h-1.2v2.2h0.9
	v2.6C58.8,10.7,59.1,11.4,61,11.4 M47.3,11.5c2.6,0,4.4-0.7,4.4-2.6c0-3.3-5.9-1.8-5.9-2.5c0-0.2,0.6-0.3,2-0.3
	c1.1,0,2.2,0.2,3.3,0.4V3.9c-1.3-0.3-2.9-0.4-3.8-0.4c-2.6,0-4.4,0.8-4.4,2.6c0,3.1,5.9,1.6,5.9,2.5c0,0.3-0.6,0.4-2,0.4
	c-1.3,0-2.3-0.2-3.6-0.6v2.5C44.5,11.3,46.2,11.5,47.3,11.5 M38.4,11.2h3V3.7h-3V11.2z M39.9,3.1c1.2,0,1.8-0.4,1.8-1.6
	c0-1.1-0.6-1.6-1.8-1.6c-1.1,0-1.8,0.4-1.8,1.6C38.2,2.7,38.8,3.1,39.9,3.1 M26.9,11.2h3V8.7c0-1.7,0.9-3,2.1-3
	c1.2,0,1.7,0.5,1.7,2.5v3h3V8c0-3.7-0.9-4.5-3-4.5c-2.4,0-3.4,0.9-3.8,3.3h-0.2l0.3-6.1h-3.3V11.2z M22.9,11.4
	c0.8,0,1.5-0.1,2.3-0.3V9.3c-0.2,0-0.4,0-0.6,0c-0.9,0-0.9-0.3-0.9-1.2V5.9h1.5V3.7h-1.5V1.6L21,1.9v1.8h-1.2v2.2h0.9v2.6
	C20.7,10.7,21,11.4,22.9,11.4 M9.2,11.5c2.6,0,4.4-0.7,4.4-2.6c0-3.3-5.9-1.8-5.9-2.5c0-0.2,0.6-0.3,2-0.3c1.1,0,2.2,0.2,3.3,0.4
	V3.9c-1.3-0.3-2.9-0.4-3.8-0.4c-2.6,0-4.4,0.8-4.4,2.6c0,3.1,5.9,1.6,5.9,2.5c0,0.3-0.6,0.4-2,0.4C7.4,9,6.4,8.8,5.2,8.4v2.5
	C6.4,11.3,8.1,11.5,9.2,11.5 M0,11.2h3V0.7H0V11.2z"/>
</svg>
