<?xml version="1.0" encoding="utf-8"?>
<!-- Generator: Adobe Illustrator 24.3.0, SVG Export Plug-In . SVG Version: 6.00 Build 0)  -->
<svg version="1.1" id="Laag_1" xmlns="http://www.w3.org/2000/svg" xmlns:xlink="http://www.w3.org/1999/xlink" x="0px" y="0px"
	 width="18.5px" height="31.7px" viewBox="0 0 18.5 31.7" style="enable-background:new 0 0 18.5 31.7;" xml:space="preserve">
<style type="text/css">
	.st0{fill:#FFFFFF;}
</style>
<g>
	<path class="st0" d="M18.4,1.4H0v18.5h18.5V1.4H18.4z M11.3,13.5l-2.8,1.4L8.6,7l0,0l0,0l0,0l0,0L5.4,8.6v5.2l-3.3,1.6V5.8l6.4-0.1
		V7l5.6-0.1v1.2l-2.8,1.4V13.5z M14,13.9l0.1-5.8l2-0.2v4.9L14,13.9z"/>
	<polygon class="st0" points="0.3,22.2 0.3,22.2 1.5,25 1.7,25 2.9,22.2 2.9,22.2 2.9,25 3.2,25 3.2,21.8 2.8,21.8 1.6,24.5 
		0.4,21.8 0,21.8 0,25 0.3,25 	"/>
	<path class="st0" d="M6.2,23.8v-2H5.9v1.9c0,0.5-0.1,1.1-0.9,1.1c-0.8,0-0.9-0.7-0.9-1.1v-1.9H3.8v2c0,0.7,0.3,1.3,1.2,1.3
		C5.9,25.1,6.2,24.5,6.2,23.8z"/>
	<path class="st0" d="M8.8,24.2c0-1.2-1.7-0.6-1.7-1.6c0-0.4,0.3-0.6,0.7-0.6c0.3,0,0.5,0.1,0.6,0.3l0.3-0.2
		c-0.2-0.3-0.5-0.4-0.9-0.4c-0.5,0-1,0.3-1,0.9c0,1.2,1.7,0.7,1.7,1.6c0,0.4-0.3,0.6-0.7,0.6c-0.3,0-0.6-0.1-0.7-0.4l-0.3,0.2
		c0.3,0.4,0.6,0.5,1.1,0.5C8.3,25.1,8.8,24.8,8.8,24.2z"/>
	<polygon class="st0" points="9.8,23.5 11.3,23.5 11.3,23.2 9.8,23.2 9.8,22.1 11.4,22.1 11.4,21.8 9.5,21.8 9.5,25 11.5,25 
		11.5,24.8 9.8,24.8 	"/>
	<path class="st0" d="M14.5,23.8v-2h-0.3v1.9c0,0.5-0.1,1.1-0.9,1.1s-0.9-0.7-0.9-1.1v-1.9h-0.3v2c0,0.7,0.3,1.3,1.2,1.3
		S14.5,24.5,14.5,23.8z"/>
	<polygon class="st0" points="18.4,25 18.4,21.8 18,21.8 16.8,24.5 15.6,21.8 15.2,21.8 15.2,25 15.5,25 15.5,22.2 15.5,22.2 
		16.8,25 16.9,25 18.1,22.2 18.1,22.2 18.1,25 	"/>
	<polygon class="st0" points="0,29.3 0.5,29.3 0.5,27.9 2,27.9 2,27.4 0.5,27.4 0.5,26.5 2.1,26.5 2.1,26 0,26 	"/>
	<polygon class="st0" points="3.3,26 2.7,26 2.7,29.3 4.7,29.3 4.7,28.7 3.3,28.7 	"/>
	<polygon class="st0" points="6,27.9 7.5,27.9 7.5,27.3 6,27.3 6,26.5 7.5,26.5 7.5,26 5.4,26 5.4,29.3 7.6,29.3 7.6,28.7 6,28.7 	
		"/>
	<polygon class="st0" points="10.4,27.3 8.9,27.3 8.9,26 8.3,26 8.3,29.3 8.9,29.3 8.9,27.8 10.4,27.8 10.4,29.3 11,29.3 11,26 
		10.4,26 	"/>
	<rect x="11.7" y="26" class="st0" width="0.6" height="3.3"/>
	<polygon class="st0" points="13,26.5 14,26.5 14,29.3 14.5,29.3 14.5,26.5 15.5,26.5 15.5,26 13,26 	"/>
	<polygon class="st0" points="16.8,28.7 16.8,27.9 18.3,27.9 18.3,27.3 16.8,27.3 16.8,26.5 18.4,26.5 18.4,26 16.2,26 16.2,29.3 
		18.4,29.3 18.4,28.7 	"/>
</g>
</svg>
