<?xml version="1.0" encoding="utf-8"?>
<!-- Generator: Adobe Illustrator 24.3.0, SVG Export Plug-In . SVG Version: 6.00 Build 0)  -->
<svg version="1.1" id="Laag_1" xmlns="http://www.w3.org/2000/svg" xmlns:xlink="http://www.w3.org/1999/xlink" x="0px" y="0px"
	 width="325px" height="184.4px" viewBox="0 0 325 184.4" style="enable-background:new 0 0 325 184.4;" xml:space="preserve">
<style type="text/css">
	.st0{clip-path:url(#SVGID_1_);fill:#FFFFFF;}
	.st1{clip-path:url(#SVGID_1_);fill:#AD9239;}
	.st2{clip-path:url(#SVGID_1_);fill:#BEC3C5;}
</style>
<g>
	<defs>
		<rect id="SVGID_3_" width="325" height="184.4"/>
	</defs>
	<clipPath id="SVGID_1_">
		<use xlink:href="#SVGID_3_"  style="overflow:visible;"/>
	</clipPath>
	<path class="st0" d="M15.1,14.4h-0.2c-4.4,0-8.9,1.7-12.5,4.1C3.2,12.9,7.7,7.9,16.1,7.4c5.3,0.3,9.2,2,11.8,4.8l-1.1,5.1
		c-2-1.4-5.7-3-9.4-3C16.4,14.2,15.8,14.3,15.1,14.4"/>
	<path class="st0" d="M15.1,49.5c0.7,0.2,1.4,0.2,2.2,0.2c3.7,0,7.4-1.7,9.4-3l1.1,5.1c-2.6,2.8-6.4,4.6-11.8,4.9
		C7.7,56.1,3.2,51.1,2.4,45.4c3.6,2.5,8.1,4.1,12.5,4.1H15.1z"/>
	<path class="st0" d="M27.1,32c-2,1.9-4.7,3.3-7.7,4.5c-1.1-0.6-2.4-1.1-4.1-1.7C12.8,34,10.7,33,8.9,32c1.7-1.1,3.9-2,6.3-2.8
		c1.7-0.5,3-1,4.1-1.7C22.4,28.7,25,30.1,27.1,32"/>
	<rect x="50.4" y="7.8" class="st0" width="8.1" height="48.6"/>
	<polygon class="st0" points="104.6,29.1 105.6,26.7 101.3,26.7 99.5,22.3 97.7,26.7 93.4,26.7 95.5,32 93.4,37.2 97.7,37.2 
		99.5,41.7 101.3,37.2 105.6,37.2 103.4,32 104.6,29.1 110.5,29.1 111.7,32 106.7,43.9 92.6,43.9 87.6,32 92.6,20.1 106.7,20.1 
		110.5,29.1 	"/>
	<polygon class="st1" points="121.9,7.8 111.7,32 106.7,20.1 108.5,20.1 113.6,7.8 	"/>
	<path class="st0" d="M137,31.5V14.8h5.6c10.5,0,19.2,5.5,19.2,17.2c0,11.8-8.6,17.3-19.2,17.3H137V31.5h-8.2v24.7h15.1
		c13.5,0,26.2-8.6,26.2-24.3c0-15.6-12.7-24.2-26.2-24.2h-15.1v23.7H137z"/>
	<path class="st0" d="M190.3,14.4h-0.2c-4.4,0-8.9,1.7-12.5,4.1c0.8-5.7,5.3-10.6,13.7-11.2c5.3,0.3,9.2,2,11.8,4.8l-1.1,5.1
		c-2-1.4-5.7-3-9.4-3C191.7,14.2,191,14.3,190.3,14.4"/>
	<path class="st0" d="M190.3,49.5c0.7,0.2,1.4,0.2,2.2,0.2c3.7,0,7.4-1.7,9.4-3l1.1,5.1c-2.6,2.8-6.4,4.6-11.8,4.9
		c-8.3-0.5-12.8-5.5-13.7-11.2c3.6,2.5,8.1,4.1,12.5,4.1H190.3z"/>
	<path class="st0" d="M202.3,32c-2,1.9-4.7,3.3-7.7,4.5c-1.1-0.6-2.4-1.1-4.1-1.7c-2.4-0.8-4.6-1.7-6.3-2.8c1.7-1.1,3.9-2,6.3-2.8
		c1.7-0.5,3-1,4.1-1.7C197.6,28.7,200.3,30.1,202.3,32"/>
	<path class="st2" d="M31.2,42.1c0,3.9-1.1,7.2-3.3,9.6l-1.1-5.1c-2,1.4-5.7,3-9.4,3c-0.8,0-1.5-0.1-2.2-0.2
		c4.8-0.1,7.9-2.7,7.9-6.7c0-2.9-1.1-4.9-3.6-6.4c3-1.1,5.7-2.6,7.7-4.5C29.6,34.4,31.2,37.7,31.2,42.1"/>
	<path class="st2" d="M16.1,7.4c0.5-0.1,1-0.1,1.5-0.1c4.8,0,8.9,1.3,10.8,2.6l-0.5,2.3C25.2,9.4,21.4,7.7,16.1,7.4"/>
	<path class="st2" d="M8.9,32c-4.4-2.7-6.7-6.4-6.7-11.5c0-0.6,0-1.3,0.2-2c3.6-2.4,8.1-4.1,12.5-4.1h0.2C12,15.2,10,17.4,10,20
		c0,3.1,2.6,5.2,7.3,6.8c0.7,0.2,1.4,0.5,2,0.8c-1.1,0.7-2.4,1.2-4.1,1.7C12.8,30,10.7,30.9,8.9,32"/>
	<path class="st2" d="M16.1,56.6h-1.6C9.4,56.6,4.6,55,2,53.3l-0.8-8.8c0.4,0.3,0.8,0.7,1.3,0.9C3.2,51.1,7.7,56.1,16.1,56.6"/>
	<rect x="58.5" y="7.8" class="st2" width="15.2" height="7.1"/>
	<rect x="35.1" y="7.8" class="st2" width="15.3" height="7.1"/>
	<polygon class="st2" points="101.3,37.2 99.5,41.7 97.7,37.2 	"/>
	<polygon class="st2" points="121.9,56.2 113.7,56.2 108.5,43.9 106.7,43.9 111.7,32 	"/>
	<polygon class="st2" points="92.6,20.1 98,7.1 101.2,7.1 106.7,20.1 	"/>
	<polygon class="st2" points="92.6,43.9 90.7,43.9 85.4,56.2 77.4,56.2 87.6,32 	"/>
	<polygon class="st2" points="105.6,26.7 103.4,32 101.3,26.7 	"/>
	<polygon class="st2" points="95.5,32 93.4,26.7 97.7,26.7 	"/>
	<path class="st2" d="M206.4,42.1c0,3.9-1.1,7.2-3.3,9.6l-1.1-5.1c-2,1.4-5.7,3-9.4,3c-0.8,0-1.5-0.1-2.2-0.2
		c4.8-0.1,7.9-2.7,7.9-6.7c0-2.9-1.1-4.9-3.6-6.4c3-1.1,5.7-2.6,7.7-4.5C204.9,34.4,206.4,37.7,206.4,42.1"/>
	<path class="st2" d="M191.3,7.4c0.5-0.1,1-0.1,1.5-0.1c4.8,0,8.9,1.3,10.8,2.6l-0.5,2.3C200.5,9.4,196.6,7.7,191.3,7.4"/>
	<path class="st2" d="M184.2,32c-4.4-2.7-6.7-6.4-6.7-11.5c0-0.6,0-1.3,0.2-2c3.6-2.4,8.1-4.1,12.5-4.1h0.2c-3.1,0.8-5.1,3-5.1,5.5
		c0,3.1,2.6,5.2,7.3,6.8c0.7,0.2,1.4,0.5,2,0.8c-1.1,0.7-2.4,1.2-4.1,1.7C188.1,30,185.9,30.9,184.2,32"/>
	<path class="st2" d="M191.3,56.6h-1.6c-5.1,0-9.9-1.6-12.5-3.3l-0.8-8.8c0.4,0.3,0.8,0.7,1.3,0.9C178.5,51.1,183,56.1,191.3,56.6"
		/>
	<path class="st1" d="M31.2,21.8c0,4.6-1.5,7.7-4.1,10.2c-2-1.8-4.7-3.3-7.7-4.5C21.8,26,23,24,23,21.1c0-3.9-3.1-6.6-7.9-6.7
		c0.7-0.2,1.4-0.2,2.2-0.2c3.7,0,7.4,1.7,9.4,3l1.1-5.1C30,14.7,31.2,17.9,31.2,21.8"/>
	<path class="st1" d="M2.4,18.5c-0.5,0.3-0.9,0.6-1.3,0.9L2,10.7c2.7-1.7,7.4-3.3,12.5-3.3c0.6,0,1.1,0,1.6,0.1
		C7.7,7.9,3.2,12.9,2.4,18.5"/>
	<path class="st1" d="M27.8,51.8l0.5,2.3c-1.9,1.3-6,2.6-10.8,2.6h-1.5C21.4,56.3,25.2,54.6,27.8,51.8"/>
	<path class="st1" d="M19.3,36.4c-0.7,0.3-1.4,0.5-2,0.8C12.6,38.8,10,40.8,10,44c0,2.6,2,4.9,5.1,5.5h-0.2c-4.4,0-8.9-1.6-12.5-4.1
		c-0.2-0.6-0.2-1.3-0.2-2c0-5.1,2.3-8.7,6.7-11.5c1.7,1.1,3.9,2,6.3,2.8C16.9,35.3,18.2,35.8,19.3,36.4"/>
	<rect x="35.1" y="49.2" class="st1" width="15.3" height="7.1"/>
	<rect x="58.5" y="49.2" class="st1" width="15.2" height="7.1"/>
	<polygon class="st1" points="97.7,26.7 99.5,22.3 101.3,26.7 	"/>
	<polygon class="st1" points="87.6,32 77.5,7.8 85.5,7.8 90.7,20.1 92.6,20.1 	"/>
	<polygon class="st1" points="106.7,43.9 101.2,56.9 98,56.9 92.6,43.9 	"/>
	<polygon class="st1" points="105.6,37.2 101.3,37.2 103.4,32 	"/>
	<polygon class="st1" points="97.7,37.2 93.4,37.2 95.5,32 	"/>
	<path class="st1" d="M206.4,21.8c0,4.6-1.5,7.7-4.1,10.2c-2-1.8-4.7-3.3-7.7-4.5c2.5-1.5,3.6-3.5,3.6-6.4c0-3.9-3.1-6.6-7.9-6.7
		c0.7-0.2,1.4-0.2,2.2-0.2c3.7,0,7.4,1.7,9.4,3l1.1-5.1C205.3,14.7,206.4,17.9,206.4,21.8"/>
	<path class="st1" d="M177.7,18.5c-0.5,0.3-0.9,0.6-1.3,0.9l0.8-8.8c2.7-1.7,7.4-3.3,12.5-3.3c0.6,0,1.1,0,1.6,0.1
		C183,7.9,178.5,12.9,177.7,18.5"/>
	<path class="st1" d="M203.1,51.8l0.5,2.3c-1.9,1.3-6,2.6-10.8,2.6h-1.5C196.6,56.3,200.5,54.6,203.1,51.8"/>
	<path class="st1" d="M194.6,36.4c-0.7,0.3-1.4,0.5-2,0.8c-4.7,1.6-7.3,3.6-7.3,6.8c0,2.6,2,4.9,5.1,5.5h-0.2
		c-4.4,0-8.9-1.6-12.5-4.1c-0.2-0.6-0.2-1.3-0.2-2c0-5.1,2.3-8.7,6.7-11.5c1.7,1.1,3.9,2,6.3,2.8C192.2,35.3,193.4,35.8,194.6,36.4"
		/>
	<path class="st0" d="M15.1,74.6h-0.2c-4.4,0-8.9,1.7-12.5,4.1C3.2,73,7.7,68,16.1,67.5c5.3,0.3,9.2,2,11.8,4.8l-1.1,5.1
		c-2-1.4-5.7-3-9.4-3C16.4,74.3,15.8,74.4,15.1,74.6"/>
	<path class="st0" d="M15.1,109.6c0.7,0.2,1.4,0.2,2.2,0.2c3.7,0,7.4-1.7,9.4-3l1.1,5.1c-2.6,2.8-6.4,4.6-11.8,4.9
		c-8.3-0.5-12.8-5.5-13.7-11.2c3.6,2.5,8.1,4.1,12.5,4.1H15.1z"/>
	<path class="st0" d="M27.1,92.1c-2,1.9-4.7,3.3-7.7,4.5c-1.1-0.6-2.4-1.1-4.1-1.7c-2.4-0.8-4.6-1.7-6.3-2.8c1.7-1.1,3.9-2,6.3-2.8
		c1.7-0.5,3-1,4.1-1.7C22.4,88.8,25,90.3,27.1,92.1"/>
	<path class="st0" d="M45.6,92.2c0-11.8,9.3-17.5,18.2-17.5c4.6,0,9,1.5,11.7,3.1l-0.8-8.4c-3-1.2-6.8-2-11.6-2
		c-11.9,0-25.7,8.2-25.7,24.7c0,16.5,13.8,24.7,25.7,24.7c4.9,0,8.6-0.8,11.6-1.9l0.8-8.5c-2.7,1.6-7.1,3.2-11.7,3.2
		C54.9,109.5,45.6,103.9,45.6,92.2"/>
	<polygon class="st0" points="125.3,68 125.3,116.4 117.2,116.4 117.2,96.6 117.2,94.8 93.5,94.8 93.5,96.6 93.5,116.4 85.4,116.4 
		85.4,68 93.5,68 93.5,87.7 93.5,89.5 117.2,89.5 117.2,87.7 117.2,68 	"/>
	<path class="st0" d="M147.2,105.4c-3.2-3-5.4-7.5-5.4-13.2c0-11.5,8.9-17.9,17.4-17.9c8.4,0,17.4,6.4,17.4,17.9
		c0,11.5-9,18.1-17.4,18.1C154.9,110.2,150.5,108.6,147.2,105.4l-5.4,5.5c4.8,4.2,11.2,6.4,17.4,6.4c12.9,0,25.6-9.5,25.6-25.3
		c0-15.6-12.7-25.1-25.6-25.1s-25.7,9.6-25.7,25.1c0,8,3.3,14.5,8.3,18.8L147.2,105.4z"/>
	<path class="st0" d="M232.9,85.1c0-6.8-3-11.9-7.9-14.9v15.7v12.5v15.8c4.9-3,7.9-8.2,7.9-15V85.1z"/>
	<path class="st0" d="M201.3,85.9V70c-5,3-8.1,8.2-8.1,15.1v14c0,6.9,3.1,12.1,8.1,15.1V98.4V85.9z"/>
	<polygon class="st0" points="256.9,92.1 252.8,104 248.7,92.1 252.8,80.3 	"/>
	<polygon class="st0" points="265.5,102.9 261.8,92.1 265.5,81.3 269.3,92.1 	"/>
	<polygon class="st0" points="285.5,92.1 281.4,104 277.3,92.1 281.4,80.3 	"/>
	<polygon class="st0" points="294,103.1 290.2,92.1 294,81.2 297.9,92.1 	"/>
	<path class="st2" d="M31.2,102.3c0,3.9-1.1,7.2-3.3,9.6l-1.1-5.1c-2,1.4-5.7,3-9.4,3c-0.8,0-1.5-0.1-2.2-0.2
		c4.8-0.1,7.9-2.7,7.9-6.7c0-2.9-1.1-4.9-3.6-6.4c3-1.1,5.7-2.6,7.7-4.5C29.6,94.5,31.2,97.8,31.2,102.3"/>
	<path class="st2" d="M16.1,67.5c0.5-0.1,1-0.1,1.5-0.1c4.8,0,8.9,1.3,10.8,2.6l-0.5,2.3C25.2,69.5,21.4,67.8,16.1,67.5"/>
	<path class="st2" d="M8.9,92.1c-4.4-2.7-6.7-6.4-6.7-11.5c0-0.6,0-1.3,0.2-2c3.6-2.4,8.1-4.1,12.5-4.1h0.2c-3.1,0.8-5.1,3-5.1,5.5
		c0,3.1,2.6,5.2,7.3,6.8c0.7,0.2,1.4,0.5,2,0.8c-1.1,0.7-2.4,1.2-4.1,1.7C12.8,90.1,10.7,91,8.9,92.1"/>
	<path class="st2" d="M16.1,116.7h-1.6c-5.1,0-9.9-1.6-12.5-3.3l-0.8-8.8c0.4,0.3,0.8,0.7,1.3,0.9C3.2,111.2,7.7,116.2,16.1,116.7"
		/>
	<path class="st2" d="M75.5,77.8l0.5,0.3l1.4-7.4c-0.8-0.5-1.7-0.9-2.7-1.3L75.5,77.8z"/>
	<rect x="93.5" y="94.8" class="st2" width="23.7" height="1.8"/>
	<path class="st2" d="M193.2,85.1c0-6.9,3.1-12.1,8.1-15.1v-2.1h-8.1V85.1z"/>
	<path class="st2" d="M225,70.2c4.9,3,7.9,8.1,7.9,14.9V67.9H225V70.2z"/>
	<path class="st2" d="M225,114.2V98.4c0,6.8-3.9,11.5-11.8,11.5c-8,0-11.8-4.7-11.8-11.5v15.9c3.3,2,7.3,3,11.8,3
		C217.6,117.3,221.7,116.2,225,114.2"/>
	<polygon class="st2" points="298.7,67.9 306.4,67.9 297.9,92.1 294,81.2 	"/>
	<polygon class="st2" points="248.7,92.1 240.2,67.9 248.5,67.9 252.8,80.3 	"/>
	<polygon class="st2" points="265.5,102.9 260.6,117 257.4,117 252.8,104 256.9,92.1 259.4,99.1 261.8,92.1 	"/>
	<polygon class="st2" points="277.3,92.1 273.3,80.5 269.3,92.1 265.5,81.3 270.1,67.9 277,67.9 281.4,80.3 	"/>
	<polygon class="st2" points="294,103.1 289.2,117 285.9,117 281.4,104 285.5,92.1 287.9,98.7 290.2,92.1 	"/>
	<path class="st1" d="M31.2,81.9c0,4.6-1.5,7.7-4.1,10.2c-2-1.8-4.7-3.3-7.7-4.5c2.5-1.5,3.6-3.5,3.6-6.4c0-3.9-3.1-6.6-7.9-6.7
		c0.7-0.2,1.4-0.2,2.2-0.2c3.7,0,7.4,1.7,9.4,3l1.1-5.1C30,74.8,31.2,78.1,31.2,81.9"/>
	<path class="st1" d="M2.4,78.7C2,79,1.5,79.3,1.1,79.6L2,70.8c2.7-1.7,7.4-3.3,12.5-3.3c0.6,0,1.1,0,1.6,0.1
		C7.7,68,3.2,73,2.4,78.7"/>
	<path class="st1" d="M27.8,111.9l0.5,2.3c-1.9,1.3-6,2.6-10.8,2.6h-1.5C21.4,116.4,25.2,114.7,27.8,111.9"/>
	<path class="st1" d="M19.3,96.6c-0.7,0.3-1.4,0.5-2,0.8c-4.7,1.6-7.3,3.6-7.3,6.8c0,2.6,2,4.9,5.1,5.5h-0.2
		c-4.4,0-8.9-1.6-12.5-4.1c-0.2-0.6-0.2-1.3-0.2-2c0-5.1,2.3-8.7,6.7-11.5c1.7,1.1,3.9,2,6.3,2.8C16.9,95.4,18.2,96,19.3,96.6"/>
	<path class="st1" d="M74.7,114.8c1.3-0.5,2-0.9,2.7-1.4l-1.4-7.4l-0.5,0.3L74.7,114.8z"/>
	<rect x="93.5" y="87.7" class="st1" width="23.7" height="1.8"/>
	<path class="st1" d="M232.9,99.1c0,6.8-3,12-7.9,15v2.2h7.9V99.1z"/>
	<path class="st1" d="M225,85.9V70.2c-3.3-2-7.4-3.2-11.9-3.2c-4.5,0-8.5,1.1-11.8,3v15.9c0-6.8,3.8-11.5,11.8-11.5
		C221.1,74.3,225,79,225,85.9"/>
	<path class="st1" d="M201.3,114.2c-5-3-8.1-8.2-8.1-15.1v17.2h8.1V114.2z"/>
	<polygon class="st1" points="252.8,104 248.5,116.4 240.2,116.4 248.7,92.1 	"/>
	<polygon class="st1" points="261.8,92.1 259.4,85.1 256.9,92.1 252.8,80.3 257.4,67.2 260.6,67.2 265.5,81.3 	"/>
	<polygon class="st1" points="281.4,104 277,116.4 270.1,116.4 265.5,102.9 269.3,92.1 273.3,103.8 277.3,92.1 	"/>
	<polygon class="st1" points="290.2,92.1 287.9,85.6 285.5,92.1 281.4,80.3 285.9,67.2 289.2,67.2 294,81.2 	"/>
	<polygon class="st1" points="298.7,116.4 294,103.1 297.9,92.1 306.4,116.4 	"/>
	<path class="st0" d="M9.6,164.6v5.2h4.8h1.9c4.9,0,9.4-2.6,9.4-8.2c0-5.3-4.6-8-9.4-8H9.6v4.2V164.6H1.9v-25h7.7v11.5h6.7
		c4.9,0,9.4-2.7,9.4-8c0-5.5-4.6-8.1-9.4-8.1H9.6v4.6H1.9v-11.4h13.7c6.5,0,13.8,4.2,13.8,12.8c0,3.2-1.5,6.7-3.7,8.3
		c1.6,0.7,3.2,1.7,4.5,3.1c-1.3,1.4-2.9,2.4-4.5,3.1c2.2,1.6,3.7,5.1,3.7,8.3c0,8.6-7.3,12.8-13.8,12.8H1.9v-12H9.6z"/>
	<path class="st0" d="M82.5,145.5c0-6.8-3-11.9-7.9-14.9v15.7v12.5v15.8c4.9-3,7.9-8.2,7.9-15V145.5z"/>
	<path class="st0" d="M50.9,146.2v-15.9c-5,3-8.1,8.2-8.1,15.1v14c0,6.9,3.1,12.1,8.1,15.1v-15.9V146.2z"/>
	<path class="st0" d="M122.6,139.8l-7.8,10.6c1.1,0.5,2.2,1.2,3.2,2c-1,0.8-2,1.5-3.2,2l7.8,10.6c-0.5,3.3-2,6-4.2,7.9l-4.8-6.8
		c0.6-0.9,0.9-2.1,0.9-3.5c0-4.8-3.7-6.8-7.7-6.8h-0.7h-4.9v13.6v7.1h-8v-48.4h8v7.1V149h4.9h0.7c3.9,0,7.7-2.1,7.7-6.8
		c0-1.4-0.3-2.6-0.9-3.6l4.8-6.7C120.6,133.8,122.2,136.5,122.6,139.8"/>
	<rect x="157.3" y="151.4" class="st0" width="18.7" height="2.5"/>
	<path class="st0" d="M157.9,177.8c-13,0-26.2-8.7-26.2-25.2c0-16.8,14-25.2,26.2-25.2c6.6,0,12.1,1.7,15.8,4l-1.6,7.4
		c-1.2-0.8-2.4-1.4-3.8-2c-3-1.3-6.3-2-9.7-2c-9,0-18.5,5.8-18.7,17.8c0.2,12,9.6,17.8,18.7,17.8c3.4,0,6.8-0.8,9.7-2.1
		c1.4-0.5,2.6-1.2,3.8-2l1.6,7.4C169.9,176.2,164.5,177.8,157.9,177.8"/>
	<path class="st2" d="M33.8,161.7c0,10.2-8.4,14.9-16.1,14.9h-2.1c6.5,0,13.8-4.2,13.8-12.8c0-3.2-1.5-6.7-3.7-8.3
		c1.6-0.7,3.2-1.7,4.5-3.1C32.3,154.7,33.8,158,33.8,161.7"/>
	<path class="st2" d="M25.7,143.1c0,5.4-4.6,8-9.4,8H9.6V147h4.8c3.7,0,7-1.8,7-6c0-4.2-3.3-6.1-7-6.1h1.9
		C21.1,135,25.7,137.6,25.7,143.1"/>
	<path class="st2" d="M42.8,145.5c0-6.9,3.1-12.1,8.1-15.1v-2.1h-8.1V145.5z"/>
	<path class="st2" d="M74.6,130.5c4.9,3,7.9,8.1,7.9,14.9v-17.2h-7.9V130.5z"/>
	<path class="st2" d="M74.6,174.5v-15.8c0,6.8-3.9,11.5-11.8,11.5c-8,0-11.8-4.7-11.8-11.5v15.9c3.3,2,7.3,3,11.8,3
		C67.2,177.6,71.3,176.6,74.6,174.5"/>
	<path class="st2" d="M131.1,176.7h-10.1l-2.7-3.6c2.2-1.9,3.8-4.6,4.2-7.9L131.1,176.7z"/>
	<path class="st2" d="M122.6,139.8c0.2,0.7,0.2,1.4,0.2,2.3c0,4.6-1.9,8-4.8,10.4c-1-0.8-2-1.5-3.2-2L122.6,139.8z"/>
	<path class="st2" d="M101.3,128.3h6.8c3.6,0,7.5,1.1,10.3,3.6l-4.8,6.7c-1.4-2.1-4-3.2-6.8-3.2h-5.5V128.3z"/>
	<path class="st2" d="M114.5,162.8c0,1.4-0.3,2.6-0.9,3.5l-7.4-10.3h0.7C110.8,156,114.5,158,114.5,162.8"/>
	<path class="st2" d="M176,171.8l-0.2,0.5c-0.5,0.5-1.6,1.2-2.2,1.6l-1.6-7.4c-1.2,0.8-2.4,1.4-3.8,2V158h-10.9v-4.2H176V171.8z"/>
	<path class="st2" d="M208.1,169.1v-13.7H204v13.4c0,2.8-1.7,4.7-4.8,4.7c-3,0-4.8-1.9-4.8-4.7v-13.4h-4.2v13.7c0,5.1,3.9,8,9,8
		C204.3,177.2,208.1,174.2,208.1,169.1"/>
	<polygon class="st2" points="228.1,159 228.1,155.5 210.9,155.5 210.9,159 217.5,159 217.5,176.7 221.6,176.7 221.6,159 	"/>
	<path class="st2" d="M235,162.2V159h2.4c1.6,0,3.2,0.9,3.2,2.8c0,1.9-1.6,2.8-3.2,2.8H235V162.2h-4.1v14.5h4.1v-8.9h1.9l6.2,8.9
		h5.1l-7.1-9.6c2-0.8,3.5-2.7,3.5-5.4c0-4.1-3.3-6.2-6.6-6.2h-7.1v6.8H235z"/>
	<polygon class="st2" points="262.6,176.7 262.6,173.2 253.9,173.2 253.9,167.8 260.3,167.8 260.3,164.3 253.9,164.3 253.9,159 
		261.6,159 261.6,155.5 249.7,155.5 249.7,176.7 	"/>
	<path class="st2" d="M282.2,156.5c-1.3-0.8-3.3-1.4-6.1-1.4c-5.3,0-11.3,3.7-11.3,10.9s5.9,10.8,11.3,10.8c2.4,0,3.9-0.3,5.2-0.9
		l0.4-3.6c-1.2,0.6-2.8,1.1-4.9,1.1c-4.1,0-7.7-2.7-7.7-7.3c0-4.7,3.6-7.3,7.5-7.3c2,0,3.9,0.6,4.9,1.3L282.2,156.5z"/>
	<polygon class="st2" points="304,176.7 304,155.5 299.8,155.5 299.8,164.3 290.1,164.3 290.1,155.5 286,155.5 286,176.7 
		290.1,176.7 290.1,167.8 299.8,167.8 299.8,176.7 	"/>
	<polygon class="st2" points="323.9,159 323.9,155.5 306.8,155.5 306.8,159 313.2,159 313.2,176.7 317.5,176.7 317.5,159 	"/>
	<path class="st1" d="M25.7,161.7c0,5.6-4.6,8.2-9.4,8.2h-1.9c3.7,0,7-1.8,7-6.1c0-4.2-3.3-5.9-7-5.9H9.6v-4.2h6.7
		C21.1,153.7,25.7,156.4,25.7,161.7"/>
	<path class="st1" d="M33.8,143.1c0,3.8-1.5,7-3.6,9.3c-1.3-1.4-2.9-2.4-4.5-3.1c2.2-1.6,3.7-5.1,3.7-8.3c0-8.6-7.3-12.8-13.8-12.8
		h2.1C25.4,128.2,33.8,133,33.8,143.1"/>
	<path class="st1" d="M82.5,159.5c0,6.8-3,12-7.9,15v2.2h7.9V159.5z"/>
	<path class="st1" d="M74.6,146.2v-15.7c-3.3-2-7.4-3.2-11.9-3.2c-4.5,0-8.5,1.1-11.8,3v15.9c0-6.8,3.8-11.5,11.8-11.5
		C70.7,134.7,74.6,139.4,74.6,146.2"/>
	<path class="st1" d="M50.9,174.6c-5-3-8.1-8.2-8.1-15.1v17.2h8.1V174.6z"/>
	<path class="st1" d="M106.2,149l7.4-10.4c0.6,1,0.9,2.2,0.9,3.6c0,4.7-3.7,6.8-7.7,6.8H106.2z"/>
	<path class="st1" d="M131.1,128.3l-8.5,11.5c-0.5-3.3-2-6-4.2-7.9l2.7-3.6H131.1z"/>
	<path class="st1" d="M118.4,173.1c-2.8,2.4-6.7,3.6-10.3,3.6h-6.8v-7.1h5.5c2.7,0,5.4-1.1,6.8-3.3L118.4,173.1z"/>
	<path class="st1" d="M118,152.5c2.9,2.4,4.8,5.8,4.8,10.4c0,0.8,0,1.6-0.2,2.3l-7.8-10.6C116,154,117,153.3,118,152.5"/>
	<path class="st1" d="M176,133.5v17.9h-18.7v-4.2h10.9v-10.3c1.4,0.6,2.6,1.3,3.8,2l1.6-7.4c0.8,0.5,1.7,1.1,2.2,1.6L176,133.5z"/>
	<path class="st1" d="M208.1,135.8c0-5-3.9-8-8.9-8c-5.1,0-9,3-9,8v13.7h4.2v-13.4c0-2.9,1.7-4.7,4.8-4.7c3,0,4.8,1.8,4.8,4.6v13.4
		h4.1V135.8z"/>
	<polygon class="st1" points="221.6,146 221.6,128.2 217.5,128.2 217.5,146 211,146 211,149.6 228.1,149.6 228.1,146 	"/>
	<path class="st1" d="M230.9,144.1v5.5h7.1c3.3,0,6.6-2.2,6.6-6.2c0-2.7-1.5-4.6-3.5-5.4l7.1-9.7h-5.1l-6.2,8.9H235v-8.9h-4.1V144.1
		h4.1v-3.6h2.4c1.6,0,3.2,0.8,3.2,2.8c0,1.9-1.6,2.7-3.2,2.7H235v-1.9H230.9z"/>
	<polygon class="st1" points="249.7,128.2 249.7,149.6 261.5,149.6 261.5,146 253.9,146 253.9,140.7 260.3,140.7 260.3,137.2 
		253.9,137.2 253.9,131.7 262.6,131.7 262.6,128.2 	"/>
	<path class="st1" d="M281.4,144.8c-1.1,0.6-3,1.2-4.9,1.2c-3.9,0-7.5-2.6-7.5-7.2c0-4.6,3.6-7.3,7.7-7.3c2.1,0,3.7,0.4,4.9,1.1
		l-0.4-3.7c-1.2-0.6-2.7-0.9-5.2-0.9c-5.4,0-11.3,3.7-11.3,10.8c0,7.2,6,10.9,11.3,10.9c2.8,0,4.9-0.6,6.1-1.3L281.4,144.8z"/>
	<polygon class="st1" points="299.8,128.2 299.8,137.1 290.2,137.1 290.2,128.2 286,128.2 286,149.6 290.2,149.6 290.2,140.8 
		299.8,140.8 299.8,149.6 304,149.6 304,128.2 	"/>
	<polygon class="st1" points="317.5,146 317.5,128.2 313.2,128.2 313.2,146 306.8,146 306.8,149.6 323.9,149.6 323.9,146 	"/>
</g>
</svg>
