<?xml version="1.0" encoding="utf-8"?>
<!-- Generator: Adobe Illustrator 24.3.0, SVG Export Plug-In . SVG Version: 6.00 Build 0)  -->
<svg version="1.1" id="Laag_1" xmlns="http://www.w3.org/2000/svg" xmlns:xlink="http://www.w3.org/1999/xlink" x="0px" y="0px"
	 width="145px" height="554.2px" viewBox="0 0 145 554.2" style="enable-background:new 0 0 145 554.2;" xml:space="preserve">
<style type="text/css">
	.st0{fill:#1A1D56;}
</style>
<g>
	<path class="st0" d="M44.2,0.9c-2.7,0-3.3,0.8-3.3,2.8v15.5c0,3.1-0.5,5.2-2,6.7c-1.1,1.1-2.5,1.5-3.6,1.5c-1.9,0-3.3-1-3.3-2.2
		c0-0.8,0.6-1.4,1.4-1.4c1.9,0,1.5,2.3,3,2.3c1.1,0,1.5-0.8,1.5-3.6V3.5c0-1.7-0.6-2.7-3.6-2.5V0h9.9V0.9z"/>
	<path class="st0" d="M51.8,7.1c4.1,0,7.2,3.2,7.2,7.4c0,4.3-3.1,7.6-7.1,7.6c-4.2,0-7.3-3.2-7.3-7.5S47.7,7.1,51.8,7.1z M49.5,20.1
		c0.5,0.5,1.4,1.2,2.8,1.2c2.4,0,4.1-2,4.1-4.8c0-1.5-0.4-5.3-2.4-7.4C53.4,8.5,52.5,8,51.5,8c-2,0-4.4,1.2-4.4,5.2
		C47.1,15.3,47.9,18.5,49.5,20.1z"/>
	<path class="st0" d="M74.5,7.4v0.8c-1.4,0.3-1.9,0.9-2.9,3.6l-4.5,11.9c-0.9,2.3-2.3,4.1-4.4,4.1c-1.4,0-2.5-0.7-2.5-1.7
		c0-0.7,0.6-1.3,1.2-1.3c1,0,1.1,1.1,2.4,1.1c1.2,0,2-1.1,3-3.9l-5.2-11.5c-0.8-1.7-1.2-2.1-2.4-2.2V7.4H66v0.8
		c-1.4,0.1-1.9,0.4-1.9,1.1c0,0.5,0.2,1.1,0.9,2.7l3.1,6.8l2-5.3c0.8-2,1.1-3.1,1.1-3.6c0-1-0.5-1.5-2-1.7V7.4H74.5z"/>
	<path class="st0" d="M87.4,18.4c-1.4,2.4-3.6,3.8-5.9,3.8c-3.8,0-6.9-3.1-6.9-7.3c0-4.5,3.3-7.7,7.7-7.7c2.8,0,4.9,1.2,4.9,2.9
		c0,0.9-0.5,1.4-1.2,1.4c-2,0-0.8-3.4-4.3-3.4c-2.8,0-4.6,2.1-4.6,5.5c0,3.7,2.3,6.4,5.5,6.4c1.5,0,2.9-0.6,4.2-2L87.4,18.4z"/>
	<path class="st0" d="M91,12.7c-0.2,4.9,2.8,7.2,5.8,7.2c1.6,0,2.6-0.4,3.9-1.8l0.5,0.5c-1.5,2.3-3.5,3.5-5.7,3.5
		c-3.9,0-6.7-3.1-6.7-7.4c0-4.4,2.8-7.6,6.6-7.6c3.2,0,5.8,2.5,5.9,5.6H91z M98.3,11.8C98,9.4,96.8,8,94.9,8c-1.9,0-3.4,1.5-3.7,3.8
		H98.3z"/>
	<path class="st0" d="M17.9,28C25.8,28,30,33.1,30,38.6c0,3.8-1.7,6.5-3.4,8.2c-1.9,1.9-4.4,3-9.9,3h-11v-0.9c3,0.1,3.6-0.8,3.6-2.8
		V31.8c0-2-0.5-3-3.6-2.8V28H17.9z M12.3,45.5c0,2.4,1.1,3.4,4.4,3.4c3,0,5.7-0.6,7.5-2.4c2-2,2.5-4.7,2.5-7c0-3-0.9-5.8-2.8-7.6
		c-1.8-1.8-4.4-2.9-8-2.9h-3.5V45.5z"/>
	<path class="st0" d="M37.1,35.1v11.2c0,2,0.4,2.7,2.2,2.7v0.8h-7.2V49c2.1,0,2.5-0.5,2.5-2.8V38L32.2,37v-0.5L37.1,35.1z
		 M35.8,27.6c0.9,0,1.6,0.7,1.6,1.6c0,0.9-0.7,1.6-1.6,1.6s-1.6-0.7-1.6-1.6C34.1,28.4,34.9,27.6,35.8,27.6z"/>
	<path class="st0" d="M53,28c7.9,0,12.1,5.1,12.1,10.6c0,3.8-1.7,6.5-3.4,8.2c-1.9,1.9-4.4,3-9.9,3h-11v-0.9c3,0.1,3.6-0.8,3.6-2.8
		V31.8c0-2-0.5-3-3.6-2.8V28H53z M47.4,45.5c0,2.4,1.1,3.4,4.4,3.4c3,0,5.7-0.6,7.5-2.4c2-2,2.5-4.7,2.5-7c0-3-0.9-5.8-2.8-7.6
		c-1.8-1.8-4.4-2.9-8-2.9h-3.5V45.5z"/>
	<path class="st0" d="M74.8,35.1c4.1,0,7.2,3.2,7.2,7.4c0,4.3-3.1,7.6-7.1,7.6c-4.2,0-7.3-3.2-7.3-7.5S70.7,35.1,74.8,35.1z
		 M72.5,48.1c0.5,0.5,1.4,1.2,2.8,1.2c2.4,0,4.1-2,4.1-4.8c0-1.5-0.4-5.3-2.4-7.4c-0.6-0.6-1.5-1.1-2.6-1.1c-2,0-4.4,1.2-4.4,5.2
		C70.1,43.3,70.9,46.5,72.5,48.1z"/>
	<path class="st0" d="M87.8,35.1v2.8c1.6-1.6,3.5-2.8,5.5-2.8c2.4,0,4.3,1.6,4.3,4.6v6.6c0,2,0.5,2.6,2.3,2.6v0.8h-7.3V49
		c2.1,0,2.5-0.7,2.5-2.8v-6.3c0-1.7-1.1-2.9-2.9-2.9c-1.5,0-3.1,0.7-4.4,1.9v7.3c0,2,0.2,2.9,2.6,2.8v0.8h-7.5V49
		c1.8,0,2.4-0.4,2.4-2.8V38L83,37v-0.4L87.8,35.1z"/>
	<path class="st0" d="M114.3,48.4c-1,1.2-1.9,1.8-2.7,1.8c-1.3,0-2-0.9-2.1-2.6c-1.5,1.7-3.2,2.6-4.7,2.6c-2.2,0-3.7-1.4-3.7-3.4
		s1.2-3,5.4-4.5l2.9-1v-2.5c0-1.6-1.2-2.7-3-2.7c-1.4,0-2.7,0.8-2.7,1.7c0,0.7,0.8,1.5,0.8,1.9c0,0.4-2,1.1-2.1,1.1
		c-0.3,0-0.9-1.1-0.9-2c0-2.1,2.5-3.7,5.8-3.7c3.2,0,4.5,1.3,4.5,3.8v7.4c0,1.1,0.3,1.6,0.9,1.6c0.4,0,0.7-0.1,1.2-0.4L114.3,48.4z
		 M105.7,43.8c-1.3,0.6-2,1.3-2,2.3c0,1.3,1,2.2,2.4,2.2c1.2,0,2.3-0.6,3.4-1.8v-4.4L105.7,43.8z"/>
	<path class="st0" d="M123.9,49.4c-1.3,0.5-3,0.8-4.1,0.8c-2.3,0-3.1-1.1-3.1-3.3V36.6h-2.6v-0.7c2.1-0.6,3.5-1.7,4.3-3.6h0.8v3.1
		h4.4v1.2h-4.4v9.9c0,1.6,0.5,2.2,2.1,2.2c0.7,0,1.4-0.1,2.6-0.3V49.4z"/>
	<path class="st0" d="M131.3,35.1c4.1,0,7.2,3.2,7.2,7.4c0,4.3-3.1,7.6-7.1,7.6c-4.2,0-7.3-3.2-7.3-7.5S127.2,35.1,131.3,35.1z
		 M129.1,48.1c0.5,0.5,1.4,1.2,2.8,1.2c2.4,0,4.1-2,4.1-4.8c0-1.5-0.4-5.3-2.4-7.4C133,36.5,132,36,131,36c-2,0-4.4,1.2-4.4,5.2
		C126.6,43.3,127.4,46.5,129.1,48.1z"/>
	<path class="st0" d="M13.7,84.9c-2.7,0-3.3,0.8-3.3,2.8v15.5c0,3.1-0.5,5.2-2,6.7c-1.1,1.1-2.5,1.5-3.6,1.5c-1.9,0-3.3-1-3.3-2.2
		c0-0.8,0.6-1.4,1.4-1.4c1.9,0,1.5,2.3,3,2.3c1.1,0,1.5-0.8,1.5-3.6V87.5c0-1.7-0.6-2.7-3.6-2.5V84h9.9V84.9z"/>
	<path class="st0" d="M21.2,91.1c4.1,0,7.2,3.2,7.2,7.4c0,4.3-3.1,7.6-7.1,7.6c-4.2,0-7.3-3.2-7.3-7.5S17.2,91.1,21.2,91.1z
		 M19,104.1c0.5,0.5,1.4,1.2,2.8,1.2c2.4,0,4.1-2,4.1-4.8c0-1.5-0.4-5.3-2.4-7.4C22.9,92.5,22,92,20.9,92c-2,0-4.4,1.2-4.4,5.2
		C16.5,99.3,17.3,102.5,19,104.1z"/>
	<path class="st0" d="M34,93.8c1.9-1.8,3.7-2.7,5.5-2.7c2.5,0,4.2,1.7,4.2,4.4v6.9c0,1.9,0.5,2.5,2.2,2.5v0.8H39V105
		c1.8,0,2.2-0.7,2.2-2.8v-5.8c0-2.3-0.9-3.5-2.9-3.5c-1.5,0-3,0.7-4.4,1.9v7.4c0,2.1,0.4,2.8,2.4,2.8v0.8h-7.2V105
		c1.6,0,2.4-0.4,2.4-2.3V86.6l-2.2-1.1V85l4.7-1.4V93.8z"/>
	<path class="st0" d="M52.1,91.1v2.8c1.6-1.6,3.5-2.8,5.5-2.8c2.4,0,4.3,1.6,4.3,4.6v6.6c0,2,0.5,2.6,2.3,2.6v0.8h-7.3V105
		c2.1,0,2.5-0.7,2.5-2.8v-6.3c0-1.7-1.1-2.9-2.9-2.9c-1.5,0-3.1,0.7-4.4,1.9v7.3c0,2,0.2,2.9,2.6,2.8v0.8h-7.5V105
		c1.8,0,2.4-0.4,2.4-2.8V94L47.3,93v-0.4L52.1,91.1z"/>
	<path class="st0" d="M87.3,98.4h-0.9c-0.3-2.3-1.5-3.4-4.6-3.4h-4.1v6.7c0,3,0.3,3.3,4.4,3.3c4.5,0,6.5-1.6,7.9-4.2h1l-1.3,5.2
		H71.3v-0.9c2.7,0.1,3.4-0.7,3.4-2.8V87.6c0-2.1-0.7-2.8-3.4-2.7V84h17.9l0.2,4.7h-0.9c-0.7-2.4-2.2-3.8-5.4-3.8h-5.3V94H82
		c2.6,0,4.3-0.9,4.4-3.5h0.9V98.4z"/>
	<path class="st0" d="M96.7,83.6v18.6c0,2.2,0.4,2.8,2.3,2.8v0.8h-7.1V105c1.8-0.1,2.3-0.4,2.3-2.9V86.6l-2.3-1V85L96.7,83.6z"/>
	<path class="st0" d="M105.1,91.1v11.2c0,2,0.4,2.7,2.2,2.7v0.8h-7.2V105c2.1,0,2.5-0.5,2.5-2.8V94l-2.3-1.1v-0.5L105.1,91.1z
		 M103.9,83.6c0.9,0,1.6,0.7,1.6,1.6c0,0.9-0.7,1.6-1.6,1.6c-0.9,0-1.6-0.7-1.6-1.6C102.2,84.4,103,83.6,103.9,83.6z"/>
	<path class="st0" d="M115.4,91.1c4.1,0,7.2,3.2,7.2,7.4c0,4.3-3.1,7.6-7.1,7.6c-4.2,0-7.3-3.2-7.3-7.5S111.3,91.1,115.4,91.1z
		 M113.1,104.1c0.5,0.5,1.4,1.2,2.8,1.2c2.4,0,4.1-2,4.1-4.8c0-1.5-0.4-5.3-2.4-7.4c-0.6-0.6-1.5-1.1-2.6-1.1c-2,0-4.4,1.2-4.4,5.2
		C110.7,99.3,111.5,102.5,113.1,104.1z"/>
	<path class="st0" d="M132.9,105.4c-1.3,0.5-3,0.8-4.1,0.8c-2.3,0-3.1-1.1-3.1-3.3V92.6h-2.6v-0.7c2.1-0.6,3.5-1.7,4.3-3.6h0.8v3.1
		h4.4v1.2h-4.4v9.9c0,1.6,0.5,2.2,2.1,2.2c0.7,0,1.4-0.1,2.6-0.3V105.4z"/>
	<path class="st0" d="M34.3,117.9h-0.9c-1.3-3.4-4.1-5.2-7.7-5.2c-5.1,0-9.2,3.7-9.2,9.9c0,6.1,3.9,10.5,9.4,10.5
		c2.1,0,4.4-0.6,5.8-1.5v-5c0-2.1-0.6-2.9-3.9-2.8v-0.9h10.1v0.9c-2.3-0.1-3.2,0.6-3.2,2.7v6c-3.1,1.1-6,1.7-8.5,1.7
		c-6.6,0-13.1-3.2-13.1-11c0-6.8,5.4-11.6,13.2-11.6c2.7,0,5,0.5,7.8,1.5L34.3,117.9z"/>
	<path class="st0" d="M52.4,132.4c-1,1.2-1.9,1.8-2.7,1.8c-1.3,0-2-0.9-2.1-2.6c-1.5,1.7-3.2,2.6-4.7,2.6c-2.2,0-3.7-1.4-3.7-3.4
		s1.2-3,5.4-4.5l2.9-1v-2.5c0-1.6-1.2-2.7-3-2.7c-1.4,0-2.7,0.8-2.7,1.7c0,0.7,0.8,1.5,0.8,1.9c0,0.4-2,1.1-2.1,1.1
		c-0.3,0-0.9-1.1-0.9-2c0-2.1,2.5-3.7,5.8-3.7c3.2,0,4.5,1.3,4.5,3.8v7.4c0,1.1,0.3,1.6,0.9,1.6c0.4,0,0.7-0.1,1.2-0.4L52.4,132.4z
		 M43.8,127.8c-1.3,0.6-2,1.3-2,2.3c0,1.3,1,2.2,2.4,2.2c1.2,0,2.3-0.6,3.4-1.8v-4.4L43.8,127.8z"/>
	<path class="st0" d="M58.5,119.1v3.7h0.1c1.2-2.6,2.4-3.5,3.8-3.5c1.1,0,2.4,1,2.4,1.8c0,0.7-0.5,1.9-1.1,1.9
		c-0.8,0-1.3-1.5-2.4-1.5c-0.8,0-1.3,0.5-2.8,2.8v6.2c0,2,0.3,2.7,3.3,2.6v0.8h-8.3V133c1.9,0,2.5-0.4,2.5-2.3V122l-2.5-1.1v-0.4
		L58.5,119.1z"/>
	<path class="st0" d="M81.6,133.3l-4.8,0.8v-2.7c-2,2-3.4,2.7-5.3,2.7c-3.4,0-6-2.9-6-6.8c0-3.6,2.7-8.3,7.7-8.3
		c1.4,0,2.5,0.3,3.6,1.2v-5.7l-2.5-1.1V113l5-1.4v19c0,1.4,0.4,1.9,1.3,1.9c0.4,0,0.8,0,1-0.1V133.3z M76.7,124.7
		c0-2.4-1.6-4.6-4.4-4.6s-4.5,2.3-4.5,5.8c0,3.7,2.1,6.4,5,6.4c1.4,0,2.6-0.6,3.9-2V124.7z"/>
	<path class="st0" d="M87.8,119.1v11.2c0,2,0.4,2.7,2.2,2.7v0.8h-7.2V133c2.1,0,2.5-0.5,2.5-2.8V122l-2.3-1.1v-0.5L87.8,119.1z
		 M86.5,111.6c0.9,0,1.6,0.7,1.6,1.6c0,0.9-0.7,1.6-1.6,1.6c-0.9,0-1.6-0.7-1.6-1.6C84.8,112.4,85.6,111.6,86.5,111.6z"/>
	<path class="st0" d="M96.1,119.1v2.8c1.6-1.6,3.5-2.8,5.5-2.8c2.4,0,4.3,1.6,4.3,4.6v6.6c0,2,0.5,2.6,2.3,2.6v0.8h-7.3V133
		c2.1,0,2.5-0.7,2.5-2.8v-6.3c0-1.7-1.1-2.9-2.9-2.9c-1.5,0-3.1,0.7-4.4,1.9v7.3c0,2,0.2,2.9,2.6,2.8v0.8h-7.5V133
		c1.8,0,2.4-0.4,2.4-2.8V122l-2.3-1.1v-0.4L96.1,119.1z"/>
	<path class="st0" d="M111.1,124.7c-0.2,4.9,2.8,7.2,5.8,7.2c1.6,0,2.6-0.4,3.9-1.8l0.5,0.5c-1.5,2.3-3.5,3.5-5.7,3.5
		c-3.9,0-6.7-3.1-6.7-7.4c0-4.4,2.8-7.6,6.6-7.6c3.2,0,5.8,2.5,5.9,5.6H111.1z M118.3,123.8c-0.3-2.4-1.5-3.8-3.4-3.8
		c-1.9,0-3.4,1.5-3.7,3.8H118.3z"/>
	<path class="st0" d="M127.1,119.1v3.7h0.1c1.2-2.6,2.4-3.5,3.8-3.5c1.1,0,2.4,1,2.4,1.8c0,0.7-0.5,1.9-1.1,1.9
		c-0.8,0-1.3-1.5-2.4-1.5c-0.8,0-1.3,0.5-2.8,2.8v6.2c0,2,0.3,2.7,3.3,2.6v0.8h-8.3V133c1.9,0,2.5-0.4,2.5-2.3V122l-2.5-1.1v-0.4
		L127.1,119.1z"/>
	<path class="st0" d="M61.3,168v0.9c-1.3,0-2.4,0.9-4.8,4.3l-5.2,7.5v5.3c0,2,0.6,2.9,3.2,2.8v0.9h-9.4v-0.9c2.6,0,3.2-0.7,3.2-2.8
		v-5.5l-6-8.8c-1.5-2.3-2.2-2.7-4-2.8V168H48v0.9c-2-0.1-2.6,0.4-2.6,1.3c0,0.7,0.4,1.4,1.3,2.8l4.2,6.3l3.4-4.8
		c1-1.4,1.7-2.9,1.7-3.6c0-1.2-0.8-1.9-2.5-2V168H61.3z"/>
	<path class="st0" d="M76.6,189.2l-4.9,0.9v-2.8c-1.6,1.8-3.6,2.8-5.5,2.8c-2.2,0-4.3-1.5-4.3-4.5v-7.1c0-1.5-0.5-2-2.5-2.2v-0.8
		c1.6,0,2.7-0.1,3.4-0.1c0.8-0.1,1.2-0.1,1.6-0.2v9.9c0,2.1,1.1,3.2,3.1,3.2c1.4,0,2.9-0.6,4.2-1.9v-7.6c0-1.8-0.4-2.5-2.6-2.5v-0.8
		c1.4,0,2.4-0.1,3.2-0.1c0.8-0.1,1.4-0.1,2-0.2v11.6c0,1.8,0.7,1.8,2.4,1.6V189.2z"/>
	<path class="st0" d="M81.7,175.1v13.2c0,2-0.5,2.8-4.5,7.5l-0.8-0.7c2.4-3.7,2.8-5.5,2.8-7V178l-2.5-1.1v-0.5L81.7,175.1z
		 M80.2,167.6c0.9,0,1.6,0.7,1.6,1.6c0,0.9-0.7,1.6-1.6,1.6c-0.9,0-1.6-0.7-1.6-1.6C78.6,168.4,79.3,167.6,80.2,167.6z"/>
	<path class="st0" d="M97.7,188.4c-1,1.2-1.9,1.8-2.7,1.8c-1.3,0-2-0.9-2.1-2.6c-1.5,1.7-3.2,2.6-4.7,2.6c-2.2,0-3.7-1.4-3.7-3.4
		s1.2-3,5.4-4.5l2.9-1v-2.5c0-1.6-1.2-2.7-3-2.7c-1.4,0-2.7,0.8-2.7,1.7c0,0.7,0.8,1.5,0.8,1.9c0,0.4-2,1.1-2.1,1.1
		c-0.3,0-0.9-1.1-0.9-2c0-2.1,2.5-3.7,5.8-3.7c3.2,0,4.5,1.3,4.5,3.8v7.4c0,1.1,0.3,1.6,0.9,1.6c0.4,0,0.7-0.1,1.2-0.4L97.7,188.4z
		 M89.1,183.8c-1.3,0.6-2,1.3-2,2.3c0,1.3,1,2.2,2.4,2.2c1.2,0,2.3-0.6,3.4-1.8v-4.4L89.1,183.8z"/>
	<path class="st0" d="M65.2,196v0.9c-0.2,0-1.1,0.3-1.4,0.6c-0.5,0.5-1.2,1.9-1.9,3.5l-3.2,7.6c-0.7,1.7-3.6,7.2-3.9,9.6h-1.3
		c-0.3-1.2-0.9-2.8-1.7-4.4l-2.3-4.8l-3.1,6c-0.9,1.7-1.2,2.4-1.3,3.2h-1.4c-0.1-0.7-0.7-2.2-1.7-4.5l-4.8-10.8
		c-1-2.3-1.7-4.4-2.6-5.4c-0.4-0.4-1-0.6-1.4-0.6V196h7.6v0.9c-1.2,0.1-1.9,0.8-1.9,1.9c0,2,3.1,6.7,6.6,15.9
		c0.5-1.4,2.3-4.6,3.4-6.9l-3.3-6.9c-1.6-3.5-2-3.9-3.3-4V196h7.4v0.9c-1,0.1-1.6,0.7-1.6,1.7c0,0.9,0.4,1.9,0.8,2.6l1.7,3.3
		l1.9-3.5c0.1-0.3,0.6-1.5,0.6-2.1c0-1-0.7-1.9-1.7-2V196h5.9v0.9c-1.3,0.1-2.3,1.5-4,4.8l-2.1,4.1c1.4,3.1,3.6,7.4,3.8,8.3
		c0.7-1.6,1.3-2.8,2-4.3l2.1-5c0.9-2.1,1.8-4.8,1.8-5.7c0-1.3-0.7-2.1-2-2.2V196H65.2z"/>
	<path class="st0" d="M77.2,216.4c-1,1.2-1.9,1.8-2.7,1.8c-1.3,0-2-0.9-2.1-2.6c-1.5,1.7-3.2,2.6-4.7,2.6c-2.2,0-3.7-1.4-3.7-3.4
		s1.2-3,5.4-4.5l2.9-1v-2.5c0-1.6-1.2-2.7-3-2.7c-1.4,0-2.7,0.8-2.7,1.7c0,0.7,0.8,1.5,0.8,1.9c0,0.4-2,1.1-2.1,1.1
		c-0.3,0-0.9-1.1-0.9-2c0-2.1,2.5-3.7,5.8-3.7c3.2,0,4.5,1.3,4.5,3.8v7.4c0,1.1,0.3,1.6,0.9,1.6c0.4,0,0.7-0.1,1.2-0.4L77.2,216.4z
		 M68.6,211.8c-1.3,0.6-2,1.3-2,2.3c0,1.3,1,2.2,2.4,2.2c1.2,0,2.3-0.6,3.4-1.8v-4.4L68.6,211.8z"/>
	<path class="st0" d="M83.4,203.1v2.8c1.6-1.6,3.5-2.8,5.5-2.8c2.4,0,4.3,1.6,4.3,4.6v6.6c0,2,0.5,2.6,2.3,2.6v0.8h-7.3V217
		c2.1,0,2.5-0.7,2.5-2.8v-6.3c0-1.7-1.1-2.9-2.9-2.9c-1.5,0-3.1,0.7-4.4,1.9v7.3c0,2,0.2,2.9,2.6,2.8v0.8h-7.5V217
		c1.8,0,2.4-0.4,2.4-2.8V206l-2.3-1.1v-0.4L83.4,203.1z"/>
	<path class="st0" d="M111.3,206c-0.2,0.1-0.6,0.1-0.8,0.1c-0.8,0-1.7-0.2-2.7-0.4l-0.1,0.1c0.5,0.7,0.8,1.7,0.8,2.6
		c0,2.8-2.5,5-5.7,5c-0.8,0-1.6-0.1-2.1-0.3c-0.9,0.7-1.4,1.3-1.4,1.7c0,0.7,0.9,1,3.6,1h2.5c3.4,0,5.1,1.2,5.1,3.3
		c0,3-3.6,5.2-8.4,5.2c-3,0-5.9-1-5.9-3c0-1,1-2.3,2.7-3.5c-1.2-0.3-1.8-0.9-1.8-1.7c0-0.8,0.4-1.4,2.7-3.4
		c-1.6-0.8-2.7-2.4-2.7-4.2c0-2.9,2.5-5.2,5.7-5.2c1.4,0,2.1,0.3,3,0.5c0.9,0.3,2,0.5,4,0.5c0.5,0,0.9,0,1.4-0.1V206z M98.2,220.4
		c0,1.3,1.9,2.3,4.5,2.3c3.4,0,6.1-1.3,6.1-2.9c0-1.4-1.2-1.8-4.5-1.8c-2.2,0-3.1-0.1-4.3-0.3C98.7,218.8,98.2,219.6,98.2,220.4z
		 M103.1,212.2c1.7,0,2.8-1.3,2.8-3.3c0-1.2-0.4-4.8-3.4-4.8c-1.8,0-2.9,1.3-2.9,3.6C99.7,210.5,101,212.2,103.1,212.2z"/>
	<path class="st0" d="M41.8,259.6c0.3-1.4,0.5-2.9,0.5-4.2c0-1.6-1-2.5-2.6-2.5V252h5.6c0.1,1.6,1.9,6,2.8,8.1l1.5,3.3
		c1.1,2.4,1.7,3.2,3,6.4c0.4-1.2,0.8-2,1.9-4l2.3-4.6c2.4-4.8,2.9-6.8,2.9-9.2h6v0.9c-2-0.1-2.7,0.6-2.7,2.4c0,0.5,0.1,1.2,0.2,2
		l1.7,12.4c0.3,2.3,1.2,3,3.1,3.2v0.9h-9.3v-0.9c1.9,0,3-1,3-2.6c0-0.2-0.1-1.5-0.3-3.4L60.2,256h-0.1c-0.2,0.6-0.3,0.9-0.7,1.8
		c-0.8,1.8-0.9,2.1-1.9,4l-1.1,2.1c-1.4,2.8-1.7,3.4-2.3,4.6c-0.7,1.6-1.3,3.1-1.6,3.9c-0.2,0.6-0.3,0.8-0.4,1.4H51
		c-0.4-1.6-0.9-3-2-5.4l-3.1-6.6c-1-2.1-1.9-4.3-2.4-5.9h-0.1l-1.8,11.9c-0.2,1-0.2,1.4-0.2,2c0,1.9,0.8,2.7,3,3v0.9h-7.6v-0.9
		c2.3-0.2,3.1-2.5,3.7-6.2L41.8,259.6z"/>
	<path class="st0" d="M82.8,272.4c-1,1.2-1.9,1.8-2.7,1.8c-1.3,0-2-0.9-2.1-2.6c-1.5,1.7-3.2,2.6-4.7,2.6c-2.2,0-3.7-1.4-3.7-3.4
		c0-2,1.2-3,5.4-4.5l2.9-1v-2.5c0-1.6-1.2-2.7-3-2.7c-1.4,0-2.7,0.8-2.7,1.7c0,0.7,0.8,1.5,0.8,1.9c0,0.4-2,1.1-2.1,1.1
		c-0.3,0-0.9-1.1-0.9-2c0-2.1,2.5-3.7,5.8-3.7c3.2,0,4.5,1.3,4.5,3.8v7.4c0,1.1,0.3,1.6,0.9,1.6c0.4,0,0.7-0.1,1.2-0.4L82.8,272.4z
		 M74.2,267.8c-1.3,0.6-2,1.3-2,2.3c0,1.3,1,2.2,2.4,2.2c1.2,0,2.3-0.6,3.4-1.8v-4.4L74.2,267.8z"/>
	<path class="st0" d="M89.5,269.4c-1.2,1.3-1.4,1.8-1.4,2.3c0,0.8,0.7,1.2,1.8,1.3v0.8H84V273c0.8-0.1,1.8-0.6,4-3.1l2.5-2.9
		l-4.3-5.2c-1.1-1.3-1.3-1.5-2.4-1.6v-0.8h6.4v0.8c-1,0-1.4,0.3-1.4,0.7c0,0.4,0.1,0.5,1.1,1.7l2,2.5l1.7-1.9
		c0.6-0.7,1.1-1.5,1.1-1.9c0-0.7-0.5-1-1.5-1.1v-0.8h5.5v0.8c-0.9,0-1.9,0.6-2.8,1.7l-3.4,3.9l4.3,5.2c1.1,1.4,1.8,1.8,2.6,2v0.8
		h-6.9V273c1.1-0.1,1.6-0.4,1.6-1c0-0.4-0.2-0.8-1.1-1.9l-2-2.4L89.5,269.4z"/>
	<path class="st0" d="M47,301.5c-1,0.2-1.7,0.3-2.4,0.3c-1.7,0-2.9-0.8-4.9-3.2l-5.3-6.3c-0.6-0.7-0.8-0.8-1.9-0.8h-1.7v6.5
		c0,2,0.5,2.9,3.3,2.8v0.9h-9.5v-0.9c2.8,0.1,3.3-0.8,3.3-2.8v-14.4c0-1.9-0.6-2.8-3.3-2.7V280h10.7c4.6,0,7.6,2.4,7.6,5.6
		c0,2.1-1.4,4.7-6.1,5.4c0.9,1,1.9,2.1,2.5,2.7l3.9,4.6c1.8,2,2.7,2.6,3.7,2.6V301.5z M33.4,290.3c4.4,0,6.1-1.7,6.1-4.4
		c0-2.9-1.7-5-6-5h-2.6v9.4H33.4z"/>
	<path class="st0" d="M53.3,287.1v11.2c0,2,0.4,2.7,2.2,2.7v0.8h-7.2V301c2.1,0,2.5-0.5,2.5-2.8V290l-2.3-1.1v-0.5L53.3,287.1z
		 M52,279.6c0.9,0,1.6,0.7,1.6,1.6c0,0.9-0.7,1.6-1.6,1.6s-1.6-0.7-1.6-1.6C50.4,280.4,51.1,279.6,52,279.6z"/>
	<path class="st0" d="M69.1,298.4c-1.4,2.4-3.6,3.8-5.9,3.8c-3.8,0-6.9-3.1-6.9-7.3c0-4.5,3.3-7.7,7.7-7.7c2.8,0,4.9,1.2,4.9,2.9
		c0,0.9-0.5,1.4-1.2,1.4c-2,0-0.8-3.4-4.3-3.4c-2.8,0-4.6,2.1-4.6,5.5c0,3.7,2.3,6.4,5.5,6.4c1.5,0,2.9-0.6,4.2-2L69.1,298.4z"/>
	<path class="st0" d="M74.4,289.8c1.9-1.8,3.7-2.7,5.5-2.7c2.5,0,4.2,1.7,4.2,4.4v6.9c0,1.9,0.5,2.5,2.2,2.5v0.8h-6.9V301
		c1.8,0,2.2-0.7,2.2-2.8v-5.8c0-2.3-0.9-3.5-2.9-3.5c-1.5,0-3,0.7-4.4,1.9v7.4c0,2.1,0.4,2.8,2.4,2.8v0.8h-7.2V301
		c1.6,0,2.4-0.4,2.4-2.3v-16.1l-2.2-1.1V281l4.7-1.4V289.8z"/>
	<path class="st0" d="M95.8,301.4c-1.3,0.5-3,0.8-4.1,0.8c-2.3,0-3.1-1.1-3.1-3.3v-10.3H86v-0.7c2.1-0.6,3.5-1.7,4.3-3.6h0.8v3.1
		h4.4v1.2h-4.4v9.9c0,1.6,0.5,2.2,2.1,2.2c0.7,0,1.4-0.1,2.6-0.3V301.4z"/>
	<path class="st0" d="M98.3,292.7c-0.2,4.9,2.8,7.2,5.8,7.2c1.6,0,2.6-0.4,3.9-1.8l0.5,0.5c-1.5,2.3-3.5,3.5-5.7,3.5
		c-3.9,0-6.7-3.1-6.7-7.4c0-4.4,2.8-7.6,6.6-7.6c3.2,0,5.8,2.5,5.9,5.6H98.3z M105.6,291.8c-0.3-2.4-1.5-3.8-3.4-3.8
		c-1.9,0-3.4,1.5-3.7,3.8H105.6z"/>
	<path class="st0" d="M114.4,287.1v3.7h0.1c1.2-2.6,2.4-3.5,3.8-3.5c1.1,0,2.4,1,2.4,1.8c0,0.7-0.5,1.9-1.1,1.9
		c-0.8,0-1.3-1.5-2.4-1.5c-0.8,0-1.3,0.5-2.8,2.8v6.2c0,2,0.3,2.7,3.3,2.6v0.8h-8.3V301c1.9,0,2.5-0.4,2.5-2.3V290l-2.5-1.1v-0.4
		L114.4,287.1z"/>
	<path class="st0" d="M18.3,354.1c0,2.2,0.8,2.8,3.6,2.8v0.9H12v-0.9c2.4,0.1,3.3-0.5,3.3-2.7v-14.6c0-1.8-0.5-2.8-3.4-2.7V336h8.4
		c2.9,0,3.7,0.1,4.8,0.3c3.3,0.7,5.1,2.6,5.1,5.4c0,3.5-3.1,6.1-7.3,6.1c-2.1,0-2.6-0.3-2.6-0.8c0-0.3,0.3-0.6,0.7-0.6
		c0.3,0,1,0.1,1.2,0.1c2.1,0,4.6-1.2,4.6-4.4c0-3-2-5.2-5.4-5.2h-2.9V354.1z"/>
	<path class="st0" d="M36.4,345.8c1.9-1.8,3.7-2.7,5.5-2.7c2.5,0,4.2,1.7,4.2,4.4v6.9c0,1.9,0.5,2.5,2.2,2.5v0.8h-6.9V357
		c1.8,0,2.2-0.7,2.2-2.8v-5.8c0-2.3-0.9-3.5-2.9-3.5c-1.5,0-3,0.7-4.4,1.9v7.4c0,2.1,0.4,2.8,2.4,2.8v0.8h-7.2V357
		c1.6,0,2.4-0.4,2.4-2.3v-16.1l-2.2-1.1V337l4.7-1.4V345.8z"/>
	<path class="st0" d="M54.4,343.1v11.2c0,2,0.4,2.7,2.2,2.7v0.8h-7.2V357c2.1,0,2.5-0.5,2.5-2.8V346l-2.3-1.1v-0.5L54.4,343.1z
		 M53.2,335.6c0.9,0,1.6,0.7,1.6,1.6c0,0.9-0.7,1.6-1.6,1.6s-1.6-0.7-1.6-1.6C51.5,336.4,52.3,335.6,53.2,335.6z"/>
	<path class="st0" d="M62.4,335.6v18.6c0,2.2,0.4,2.8,2.3,2.8v0.8h-7.1V357c1.8-0.1,2.3-0.4,2.3-2.9v-15.6l-2.3-1V337L62.4,335.6z"
		/>
	<path class="st0" d="M70.8,343.1v11.2c0,2,0.4,2.7,2.2,2.7v0.8h-7.2V357c2.1,0,2.5-0.5,2.5-2.8V346l-2.3-1.1v-0.5L70.8,343.1z
		 M69.5,335.6c0.9,0,1.6,0.7,1.6,1.6c0,0.9-0.7,1.6-1.6,1.6s-1.6-0.7-1.6-1.6C67.8,336.4,68.6,335.6,69.5,335.6z"/>
	<path class="st0" d="M74,345v-0.4l4.8-1.4v2.7c1.7-1.8,3.4-2.7,5.3-2.7c3.5,0,6.1,2.9,6.1,6.8c0,4.4-3.5,8.3-7.6,8.3
		c-1.4,0-2.8-0.4-3.8-1.2v3.5c0,2,0.1,2.5,2.8,2.5v0.8H74V363c2.6,0,2.3-1.2,2.3-2.9v-14L74,345z M78.8,352.2c0,2.8,1.8,4.9,4.4,4.9
		c2.7,0,4.4-2.3,4.4-5.8c0-3.9-2-6.4-5-6.4c-1.4,0-2.6,0.6-3.9,2V352.2z"/>
	<path class="st0" d="M92.4,345v-0.4l4.8-1.4v2.7c1.7-1.8,3.4-2.7,5.3-2.7c3.5,0,6.1,2.9,6.1,6.8c0,4.4-3.5,8.3-7.6,8.3
		c-1.4,0-2.8-0.4-3.8-1.2v3.5c0,2,0.1,2.5,2.8,2.5v0.8h-7.6V363c2.6,0,2.3-1.2,2.3-2.9v-14L92.4,345z M97.2,352.2
		c0,2.8,1.8,4.9,4.4,4.9s4.4-2.3,4.4-5.8c0-3.9-2-6.4-5-6.4c-1.4,0-2.6,0.6-3.9,2V352.2z"/>
	<path class="st0" d="M113.6,348.7c-0.2,4.9,2.8,7.2,5.8,7.2c1.6,0,2.6-0.4,3.9-1.8l0.5,0.5c-1.5,2.3-3.5,3.5-5.7,3.5
		c-3.9,0-6.7-3.1-6.7-7.4c0-4.4,2.8-7.6,6.6-7.6c3.2,0,5.8,2.5,5.9,5.6H113.6z M120.9,347.8c-0.3-2.4-1.5-3.8-3.4-3.8
		c-1.9,0-3.4,1.5-3.7,3.8H120.9z"/>
	<path class="st0" d="M17.8,364.9c-2.7,0-3.3,0.8-3.3,2.8v15.5c0,3.1-0.5,5.2-2,6.7c-1.1,1.1-2.5,1.5-3.6,1.5c-1.9,0-3.3-1-3.3-2.2
		c0-0.8,0.6-1.4,1.4-1.4c1.9,0,1.5,2.3,3,2.3c1.1,0,1.5-0.8,1.5-3.6v-19.1c0-1.7-0.6-2.7-3.6-2.5V364h9.9V364.9z"/>
	<path class="st0" d="M32.2,384.4c-1,1.2-1.9,1.8-2.7,1.8c-1.3,0-2-0.9-2.1-2.6c-1.5,1.7-3.2,2.6-4.7,2.6c-2.2,0-3.7-1.4-3.7-3.4
		c0-2,1.2-3,5.4-4.5l2.9-1v-2.5c0-1.6-1.2-2.7-3-2.7c-1.4,0-2.7,0.8-2.7,1.7c0,0.7,0.8,1.5,0.8,1.9c0,0.4-2,1.1-2.1,1.1
		c-0.3,0-0.9-1.1-0.9-2c0-2.1,2.5-3.7,5.8-3.7c3.2,0,4.5,1.3,4.5,3.8v7.4c0,1.1,0.3,1.6,0.9,1.6c0.4,0,0.7-0.1,1.2-0.4L32.2,384.4z
		 M23.6,379.8c-1.3,0.6-2,1.3-2,2.3c0,1.3,1,2.2,2.4,2.2c1.2,0,2.3-0.6,3.4-1.8v-4.4L23.6,379.8z"/>
	<path class="st0" d="M38.4,371.1v3.7h0.1c1.2-2.6,2.4-3.5,3.8-3.5c1.1,0,2.4,1,2.4,1.8c0,0.7-0.5,1.9-1.1,1.9
		c-0.8,0-1.3-1.5-2.4-1.5c-0.8,0-1.3,0.5-2.8,2.8v6.2c0,2,0.3,2.7,3.3,2.6v0.8h-8.3V385c1.9,0,2.5-0.4,2.5-2.3V374l-2.5-1.1v-0.4
		L38.4,371.1z"/>
	<path class="st0" d="M53.3,371.1c4.1,0,7.2,3.2,7.2,7.4c0,4.3-3.1,7.6-7.1,7.6c-4.2,0-7.3-3.2-7.3-7.5
		C46.1,374.3,49.2,371.1,53.3,371.1z M51.1,384.1c0.5,0.5,1.4,1.2,2.8,1.2c2.4,0,4.1-2,4.1-4.8c0-1.5-0.4-5.3-2.4-7.4
		C55,372.5,54,372,53,372c-2,0-4.4,1.2-4.4,5.2C48.6,379.3,49.4,382.5,51.1,384.1z"/>
	<path class="st0" d="M79.2,385.2l-4.9,0.9v-2.8c-1.6,1.8-3.6,2.8-5.5,2.8c-2.2,0-4.3-1.5-4.3-4.5v-7.1c0-1.5-0.5-2-2.5-2.2v-0.8
		c1.6,0,2.7-0.1,3.4-0.1c0.8-0.1,1.2-0.1,1.6-0.2v9.9c0,2.1,1.1,3.2,3.1,3.2c1.4,0,2.9-0.6,4.2-1.9v-7.6c0-1.8-0.4-2.5-2.6-2.5v-0.8
		c1.4,0,2.4-0.1,3.2-0.1c0.8-0.1,1.4-0.1,2-0.2v11.6c0,1.8,0.7,1.8,2.4,1.6V385.2z"/>
	<path class="st0" d="M82.5,381c0.3,2.5,1.6,4.2,3.7,4.2c1.6,0,2.8-1.1,2.8-2.5c0-0.4-0.1-1.1-0.5-1.4c-1.6-1.6-4.5-2-6.3-3.8
		c-0.6-0.6-1-1.4-1-2.5c0-2.3,2-3.9,4.7-3.9c1.5,0,2.9,0.5,4.1,1.4v3.4h-0.8c-0.5-2.6-1.5-3.8-3.3-3.8c-1.5,0-2.5,0.9-2.5,2.2
		c0,0.6,0.2,1.1,0.6,1.5c1.3,1.3,4.2,1.8,6,3.6c0.8,0.8,1.1,1.7,1.1,2.7c0,2.4-2.1,4.2-5,4.2c-1.5,0-3.1-0.4-4.4-1.2v-4H82.5z"/>
	<path class="st0" d="M95.2,381c0.3,2.5,1.6,4.2,3.7,4.2c1.6,0,2.8-1.1,2.8-2.5c0-0.4-0.1-1.1-0.5-1.4c-1.6-1.6-4.5-2-6.3-3.8
		c-0.6-0.6-1-1.4-1-2.5c0-2.3,2-3.9,4.7-3.9c1.5,0,2.9,0.5,4.1,1.4v3.4h-0.8c-0.5-2.6-1.5-3.8-3.3-3.8c-1.5,0-2.5,0.9-2.5,2.2
		c0,0.6,0.2,1.1,0.6,1.5c1.3,1.3,4.2,1.8,6,3.6c0.8,0.8,1.1,1.7,1.1,2.7c0,2.4-2.1,4.2-5,4.2c-1.5,0-3.1-0.4-4.4-1.2v-4H95.2z"/>
	<path class="st0" d="M110.2,363.6v18.7c0,1.7,0.2,2.7,2.4,2.7v0.8h-7V385c1.5-0.1,2.1-0.6,2.1-2.3v-16.1l-2.1-1.1V365L110.2,363.6z
		 M120.2,371.4v0.8c-1.4,0.1-2.4,0.6-4.6,2.6l-3,2.7l6.3,5.9c1,1,1.7,1.4,2.2,1.6v0.8h-2.8c-0.8-0.6-1.8-1.4-2.4-2l-5.6-5.5l2.9-2.5
		c1.3-1.2,1.8-1.7,1.8-2.3c0-0.8-0.6-1.2-2.2-1.3v-0.8H120.2z"/>
	<path class="st0" d="M136.5,371.4v0.8c-1.4,0.3-1.9,0.9-2.9,3.6l-4.5,11.9c-0.9,2.3-2.3,4.1-4.4,4.1c-1.4,0-2.5-0.7-2.5-1.7
		c0-0.7,0.6-1.3,1.2-1.3c1,0,1.1,1.1,2.4,1.1c1.2,0,2-1.1,3-3.9l-5.2-11.5c-0.8-1.7-1.2-2.1-2.4-2.2v-0.8h6.8v0.8
		c-1.4,0.1-1.9,0.4-1.9,1.1c0,0.5,0.2,1.1,0.9,2.7l3.1,6.8l2-5.3c0.8-2,1.1-3.1,1.1-3.6c0-1-0.5-1.5-2-1.7v-0.8H136.5z"/>
	<path class="st0" d="M39.4,420c7.9,0,12.1,5.1,12.1,10.6c0,3.8-1.7,6.5-3.4,8.2c-1.9,1.9-4.4,3-9.9,3h-11v-0.9
		c3,0.1,3.6-0.8,3.6-2.8v-14.3c0-2-0.5-3-3.6-2.8V420H39.4z M33.8,437.5c0,2.4,1.1,3.4,4.4,3.4c3,0,5.7-0.6,7.5-2.4
		c2-2,2.5-4.7,2.5-7c0-3-0.9-5.8-2.8-7.6c-1.8-1.8-4.4-2.9-8-2.9h-3.5V437.5z"/>
	<path class="st0" d="M58.9,427.1v11.2c0,2,0.4,2.7,2.2,2.7v0.8h-7.2V441c2.1,0,2.5-0.5,2.5-2.8V430l-2.3-1.1v-0.5L58.9,427.1z
		 M57.6,419.6c0.9,0,1.6,0.7,1.6,1.6c0,0.9-0.7,1.6-1.6,1.6s-1.6-0.7-1.6-1.6C56,420.4,56.7,419.6,57.6,419.6z"/>
	<path class="st0" d="M76.1,440.4c-1,1.2-1.9,1.8-2.7,1.8c-1.3,0-2-0.9-2.1-2.6c-1.5,1.7-3.2,2.6-4.7,2.6c-2.2,0-3.7-1.4-3.7-3.4
		c0-2,1.2-3,5.4-4.5l2.9-1v-2.5c0-1.6-1.2-2.7-3-2.7c-1.4,0-2.7,0.8-2.7,1.7c0,0.7,0.8,1.5,0.8,1.9c0,0.4-2,1.1-2.1,1.1
		c-0.3,0-0.9-1.1-0.9-2c0-2.1,2.5-3.7,5.8-3.7c3.2,0,4.5,1.3,4.5,3.8v7.4c0,1.1,0.3,1.6,0.9,1.6c0.4,0,0.7-0.1,1.2-0.4L76.1,440.4z
		 M67.5,435.8c-1.3,0.6-2,1.3-2,2.3c0,1.3,1,2.2,2.4,2.2c1.2,0,2.3-0.6,3.4-1.8v-4.4L67.5,435.8z"/>
	<path class="st0" d="M82.2,427.1v2.8c1.6-1.6,3.5-2.8,5.5-2.8c2.4,0,4.3,1.6,4.3,4.6v6.6c0,2,0.5,2.6,2.3,2.6v0.8H87V441
		c2.1,0,2.5-0.7,2.5-2.8v-6.3c0-1.7-1.1-2.9-2.9-2.9c-1.5,0-3.1,0.7-4.4,1.9v7.3c0,2,0.2,2.9,2.6,2.8v0.8h-7.5V441
		c1.8,0,2.4-0.4,2.4-2.8V430l-2.3-1.1v-0.4L82.2,427.1z"/>
	<path class="st0" d="M109.1,440.4c-1,1.2-1.9,1.8-2.7,1.8c-1.3,0-2-0.9-2.1-2.6c-1.5,1.7-3.2,2.6-4.7,2.6c-2.2,0-3.7-1.4-3.7-3.4
		c0-2,1.2-3,5.4-4.5l2.9-1v-2.5c0-1.6-1.2-2.7-3-2.7c-1.4,0-2.7,0.8-2.7,1.7c0,0.7,0.8,1.5,0.8,1.9c0,0.4-2,1.1-2.1,1.1
		c-0.3,0-0.9-1.1-0.9-2c0-2.1,2.5-3.7,5.8-3.7c3.2,0,4.5,1.3,4.5,3.8v7.4c0,1.1,0.3,1.6,0.9,1.6c0.4,0,0.7-0.1,1.2-0.4L109.1,440.4z
		 M100.5,435.8c-1.3,0.6-2,1.3-2,2.3c0,1.3,1,2.2,2.4,2.2c1.2,0,2.3-0.6,3.4-1.8v-4.4L100.5,435.8z"/>
	<path class="st0" d="M28.2,448c7.9,0,12.1,5.1,12.1,10.6c0,3.8-1.7,6.5-3.4,8.2c-1.9,1.9-4.4,3-9.9,3H16v-0.9
		c3,0.1,3.6-0.8,3.6-2.8v-14.3c0-2-0.5-3-3.6-2.8V448H28.2z M22.6,465.5c0,2.4,1.1,3.4,4.4,3.4c3,0,5.7-0.6,7.5-2.4
		c2-2,2.5-4.7,2.5-7c0-3-0.9-5.8-2.8-7.6c-1.8-1.8-4.4-2.9-8-2.9h-3.5V465.5z"/>
	<path class="st0" d="M56.6,468.4c-1,1.2-1.9,1.8-2.7,1.8c-1.3,0-2-0.9-2.1-2.6c-1.5,1.7-3.2,2.6-4.7,2.6c-2.2,0-3.7-1.4-3.7-3.4
		c0-2,1.2-3,5.4-4.5l2.9-1v-2.5c0-1.6-1.2-2.7-3-2.7c-1.4,0-2.7,0.8-2.7,1.7c0,0.7,0.8,1.5,0.8,1.9c0,0.4-2,1.1-2.1,1.1
		c-0.3,0-0.9-1.1-0.9-2c0-2.1,2.5-3.7,5.8-3.7c3.2,0,4.5,1.3,4.5,3.8v7.4c0,1.1,0.3,1.6,0.9,1.6c0.4,0,0.7-0.1,1.2-0.4L56.6,468.4z
		 M48,463.8c-1.3,0.6-2,1.3-2,2.3c0,1.3,1,2.2,2.4,2.2c1.2,0,2.3-0.6,3.4-1.8v-4.4L48,463.8z"/>
	<path class="st0" d="M62.7,455.1v2.5c1.5-1.6,3.4-2.5,5.2-2.5c2,0,3.6,1.1,4.1,2.7c1.8-1.9,3.6-2.7,5.5-2.7c1.7,0,4.3,1,4.3,3.9
		v7.3c0,1.9,0.3,2.7,2.3,2.7v0.8h-7V469c1.5,0,2.2-0.6,2.2-2.5v-5.9c0-2-0.6-3.5-3.1-3.5c-1.3,0-2.7,0.6-3.9,1.7v7.7
		c0,1.8,0.4,2.6,2.3,2.6v0.8h-7.2V469c1.9,0,2.4-0.7,2.4-2.7v-6.4c0-1.7-1.2-2.8-3.1-2.8c-1.3,0-2.8,0.6-3.9,1.7v7.6
		c0,2,0.4,2.7,2.3,2.7v0.8h-7.3V469c2.2,0,2.5-0.6,2.5-3v-8L58,457v-0.5L62.7,455.1z"/>
	<path class="st0" d="M90,455.1v3.7h0.1c1.2-2.6,2.4-3.5,3.8-3.5c1.1,0,2.4,1,2.4,1.8c0,0.7-0.5,1.9-1.1,1.9c-0.8,0-1.3-1.5-2.4-1.5
		c-0.8,0-1.3,0.5-2.8,2.8v6.2c0,2,0.3,2.7,3.3,2.6v0.8H85V469c1.9,0,2.5-0.4,2.5-2.3V458L85,457v-0.4L90,455.1z"/>
	<path class="st0" d="M110.9,468.4c-1,1.2-1.9,1.8-2.7,1.8c-1.3,0-2-0.9-2.1-2.6c-1.5,1.7-3.2,2.6-4.7,2.6c-2.2,0-3.7-1.4-3.7-3.4
		c0-2,1.2-3,5.4-4.5l2.9-1v-2.5c0-1.6-1.2-2.7-3-2.7c-1.4,0-2.7,0.8-2.7,1.7c0,0.7,0.8,1.5,0.8,1.9c0,0.4-2,1.1-2.1,1.1
		c-0.3,0-0.9-1.1-0.9-2c0-2.1,2.5-3.7,5.8-3.7c3.2,0,4.5,1.3,4.5,3.8v7.4c0,1.1,0.3,1.6,0.9,1.6c0.4,0,0.7-0.1,1.2-0.4L110.9,468.4z
		 M102.3,463.8c-1.3,0.6-2,1.3-2,2.3c0,1.3,1,2.2,2.4,2.2c1.2,0,2.3-0.6,3.4-1.8v-4.4L102.3,463.8z"/>
	<path class="st0" d="M128.9,469.2l-4.9,0.9v-2.8c-1.6,1.8-3.6,2.8-5.5,2.8c-2.2,0-4.3-1.5-4.3-4.5v-7.1c0-1.5-0.5-2-2.5-2.2v-0.8
		c1.6,0,2.7-0.1,3.4-0.1c0.8-0.1,1.2-0.1,1.6-0.2v9.9c0,2.1,1.1,3.2,3.1,3.2c1.4,0,2.9-0.6,4.2-1.9v-7.6c0-1.8-0.4-2.5-2.6-2.5v-0.8
		c1.4,0,2.4-0.1,3.2-0.1c0.8-0.1,1.4-0.1,2-0.2v11.6c0,1.8,0.7,1.8,2.4,1.6V469.2z"/>
	<path class="st0" d="M43.3,504.9c-2.7,0-3.3,0.8-3.3,2.8v15.5c0,3.1-0.5,5.2-2,6.7c-1.1,1.1-2.5,1.5-3.6,1.5c-1.9,0-3.3-1-3.3-2.2
		c0-0.8,0.6-1.4,1.4-1.4c1.9,0,1.5,2.3,3,2.3c1.1,0,1.5-0.8,1.5-3.6v-19.1c0-1.7-0.6-2.7-3.6-2.5V504h9.9V504.9z"/>
	<path class="st0" d="M50.9,511.1c4.1,0,7.2,3.2,7.2,7.4c0,4.3-3.1,7.6-7.1,7.6c-4.2,0-7.3-3.2-7.3-7.5
		C43.7,514.3,46.8,511.1,50.9,511.1z M48.6,524.1c0.5,0.5,1.4,1.2,2.8,1.2c2.4,0,4.1-2,4.1-4.8c0-1.5-0.4-5.3-2.4-7.4
		c-0.6-0.6-1.5-1.1-2.6-1.1c-2,0-4.4,1.2-4.4,5.2C46.2,519.3,47,522.5,48.6,524.1z"/>
	<path class="st0" d="M63.9,511.1v2.8c1.6-1.6,3.5-2.8,5.5-2.8c2.4,0,4.3,1.6,4.3,4.6v6.6c0,2,0.5,2.6,2.3,2.6v0.8h-7.3V525
		c2.1,0,2.5-0.7,2.5-2.8v-6.3c0-1.7-1.1-2.9-2.9-2.9c-1.5,0-3.1,0.7-4.4,1.9v7.3c0,2,0.2,2.9,2.6,2.8v0.8H59V525
		c1.8,0,2.4-0.4,2.4-2.8V514l-2.3-1.1v-0.4L63.9,511.1z"/>
	<path class="st0" d="M90.5,524.4c-1,1.2-1.9,1.8-2.7,1.8c-1.3,0-2-0.9-2.1-2.6c-1.5,1.7-3.2,2.6-4.7,2.6c-2.2,0-3.7-1.4-3.7-3.4
		c0-2,1.2-3,5.4-4.5l2.9-1v-2.5c0-1.6-1.2-2.7-3-2.7c-1.4,0-2.7,0.8-2.7,1.7c0,0.7,0.8,1.5,0.8,1.9c0,0.4-2,1.1-2.1,1.1
		c-0.3,0-0.9-1.1-0.9-2c0-2.1,2.5-3.7,5.8-3.7c3.2,0,4.5,1.3,4.5,3.8v7.4c0,1.1,0.3,1.6,0.9,1.6c0.4,0,0.7-0.1,1.2-0.4L90.5,524.4z
		 M81.9,519.8c-1.3,0.6-2,1.3-2,2.3c0,1.3,1,2.2,2.4,2.2c1.2,0,2.3-0.6,3.4-1.8v-4.4L81.9,519.8z"/>
	<path class="st0" d="M93.2,521c0.3,2.5,1.6,4.2,3.7,4.2c1.6,0,2.8-1.1,2.8-2.5c0-0.4-0.1-1.1-0.5-1.4c-1.6-1.6-4.5-2-6.3-3.8
		c-0.6-0.6-1-1.4-1-2.5c0-2.3,2-3.9,4.7-3.9c1.5,0,2.9,0.5,4.1,1.4v3.4h-0.8c-0.5-2.6-1.5-3.8-3.3-3.8c-1.5,0-2.5,0.9-2.5,2.2
		c0,0.6,0.2,1.1,0.6,1.5c1.3,1.3,4.2,1.8,6,3.6c0.8,0.8,1.1,1.7,1.1,2.7c0,2.4-2.1,4.2-5,4.2c-1.5,0-3.1-0.4-4.4-1.2v-4H93.2z"/>
	<path class="st0" d="M9.7,553.8H0v-0.9c2.8,0.1,3.4-0.7,3.4-2.7v-14.6c0-2.1-0.8-2.8-3.4-2.7V532h9.7v0.9c-2.5,0-3.4,0.4-3.4,2.8
		v14.2c0,2.2,0.5,3.1,3.4,3V553.8z M22.4,532v0.9c-0.6,0-1.3,0.2-2.2,0.6c-2.4,1.2-6.4,5.2-10.5,8.1c4.4,3.3,10.5,9.4,12.8,10.7
		c0.7,0.4,1.5,0.6,2.3,0.6v0.9h-5.2c-3.2-2.4-6.4-5.9-13.1-11.1c5-3.5,6.8-4.9,7.8-6c0.9-0.9,1.2-1.4,1.2-2.1c0-1-0.7-1.5-2.2-1.7
		V532H22.4z"/>
	<path class="st0" d="M39.4,552.4c-1,1.2-1.9,1.8-2.7,1.8c-1.3,0-2-0.9-2.1-2.6c-1.5,1.7-3.2,2.6-4.7,2.6c-2.2,0-3.7-1.4-3.7-3.4
		c0-2,1.2-3,5.4-4.5l2.9-1v-2.5c0-1.6-1.2-2.7-3-2.7c-1.4,0-2.7,0.8-2.7,1.7c0,0.7,0.8,1.5,0.8,1.9c0,0.4-2,1.1-2.1,1.1
		c-0.3,0-0.9-1.1-0.9-2c0-2.1,2.5-3.7,5.8-3.7c3.2,0,4.5,1.3,4.5,3.8v7.4c0,1.1,0.3,1.6,0.9,1.6c0.4,0,0.7-0.1,1.2-0.4L39.4,552.4z
		 M30.8,547.8c-1.3,0.6-2,1.3-2,2.3c0,1.3,1,2.2,2.4,2.2c1.2,0,2.3-0.6,3.4-1.8v-4.4L30.8,547.8z"/>
	<path class="st0" d="M56.2,553.2l-4.9,0.9v-2.8c-1.6,1.8-3.6,2.8-5.5,2.8c-2.2,0-4.3-1.5-4.3-4.5v-7.1c0-1.5-0.5-2-2.5-2.2v-0.8
		c1.6,0,2.7-0.1,3.4-0.1c0.8-0.1,1.2-0.1,1.6-0.2v9.9c0,2.1,1.1,3.2,3.1,3.2c1.4,0,2.9-0.6,4.2-1.9v-7.6c0-1.8-0.4-2.5-2.6-2.5v-0.8
		c1.4,0,2.4-0.1,3.2-0.1c0.8-0.1,1.4-0.1,2-0.2v11.6c0,1.8,0.7,1.8,2.4,1.6V553.2z"/>
	<path class="st0" d="M66.5,540.6h-3.7v9.6c0,2.5,0.4,2.9,3.3,2.8v0.8h-8.4V553c2.3,0.1,2.7-0.6,2.7-2.7v-9.7h-2.6v-1.2
		c1.7,0,2.1-0.1,2.4-0.4c0.8-0.8,0-3.7,1.9-5.6c1.1-1.1,2.6-1.8,4.7-1.8c2.1,0,3.3,0.6,3.3,1.8c0,0.7-0.5,1.3-1.3,1.3
		c-1.4,0-2.1-2-3.4-2c-1.8,0-2.6,1.6-2.6,3.5v3.2h3.7V540.6z"/>
	<path class="st0" d="M72.7,539.1v2.5c1.5-1.6,3.4-2.5,5.2-2.5c2,0,3.6,1.1,4.1,2.7c1.8-1.9,3.6-2.7,5.5-2.7c1.7,0,4.3,1,4.3,3.9
		v7.3c0,1.9,0.3,2.7,2.3,2.7v0.8h-7V553c1.5,0,2.2-0.6,2.2-2.5v-5.9c0-2-0.6-3.5-3.1-3.5c-1.3,0-2.7,0.6-3.9,1.7v7.7
		c0,1.8,0.4,2.6,2.3,2.6v0.8h-7.2V553c1.9,0,2.4-0.7,2.4-2.7v-6.4c0-1.7-1.2-2.8-3.1-2.8c-1.3,0-2.8,0.6-3.9,1.7v7.6
		c0,2,0.4,2.7,2.3,2.7v0.8h-7.3V553c2.2,0,2.5-0.6,2.5-3v-8L68,541v-0.5L72.7,539.1z"/>
	<path class="st0" d="M108.6,552.4c-1,1.2-1.9,1.8-2.7,1.8c-1.3,0-2-0.9-2.1-2.6c-1.5,1.7-3.2,2.6-4.7,2.6c-2.2,0-3.7-1.4-3.7-3.4
		c0-2,1.2-3,5.4-4.5l2.9-1v-2.5c0-1.6-1.2-2.7-3-2.7c-1.4,0-2.7,0.8-2.7,1.7c0,0.7,0.8,1.5,0.8,1.9c0,0.4-2,1.1-2.1,1.1
		c-0.3,0-0.9-1.1-0.9-2c0-2.1,2.5-3.7,5.8-3.7c3.2,0,4.5,1.3,4.5,3.8v7.4c0,1.1,0.3,1.6,0.9,1.6c0.4,0,0.7-0.1,1.2-0.4L108.6,552.4z
		 M100,547.8c-1.3,0.6-2,1.3-2,2.3c0,1.3,1,2.2,2.4,2.2c1.2,0,2.3-0.6,3.4-1.8v-4.4L100,547.8z"/>
	<path class="st0" d="M114.7,539.1v2.8c1.6-1.6,3.5-2.8,5.5-2.8c2.4,0,4.3,1.6,4.3,4.6v6.6c0,2,0.5,2.6,2.3,2.6v0.8h-7.3V553
		c2.1,0,2.5-0.7,2.5-2.8v-6.3c0-1.7-1.1-2.9-2.9-2.9c-1.5,0-3.1,0.7-4.4,1.9v7.3c0,2,0.2,2.9,2.6,2.8v0.8h-7.5V553
		c1.8,0,2.4-0.4,2.4-2.8V542L110,541v-0.4L114.7,539.1z"/>
	<path class="st0" d="M132.9,539.1v2.8c1.6-1.6,3.5-2.8,5.5-2.8c2.4,0,4.3,1.6,4.3,4.6v6.6c0,2,0.5,2.6,2.3,2.6v0.8h-7.3V553
		c2.1,0,2.5-0.7,2.5-2.8v-6.3c0-1.7-1.1-2.9-2.9-2.9c-1.5,0-3.1,0.7-4.4,1.9v7.3c0,2,0.2,2.9,2.6,2.8v0.8H128V553
		c1.8,0,2.4-0.4,2.4-2.8V542l-2.3-1.1v-0.4L132.9,539.1z"/>
</g>
</svg>
