<?xml version="1.0" encoding="utf-8"?>
<!-- Generator: Adobe Illustrator 24.3.0, SVG Export Plug-In . SVG Version: 6.00 Build 0)  -->
<svg version="1.1" id="Laag_1" xmlns="http://www.w3.org/2000/svg" xmlns:xlink="http://www.w3.org/1999/xlink" x="0px" y="0px"
	 width="205.6px" height="169.7px" viewBox="0 0 205.6 169.7" style="enable-background:new 0 0 205.6 169.7;" xml:space="preserve"
	>
<style type="text/css">
	.st0{fill:#1A1D56;}
</style>
<g>
	<path class="st0" d="M7.2,19.7c0,2.3,0.8,3,3.8,2.9v1H0.5v-1C3.1,22.7,4,22.1,4,19.7V4.2c0-1.9-0.5-3-3.6-2.9v-1h8.9
		c3.1,0,4,0.1,5.1,0.3c3.5,0.8,5.4,2.8,5.4,5.7c0,3.7-3.3,6.5-7.8,6.5c-2.3,0-2.8-0.3-2.8-0.8c0-0.3,0.3-0.6,0.7-0.6
		c0.3,0,1.1,0.1,1.3,0.1c2.2,0,4.9-1.3,4.9-4.7c0-3.2-2.1-5.5-5.8-5.5H7.2V19.7z"/>
	<path class="st0" d="M35.4,22.1c-1.1,1.3-2,1.9-2.9,1.9c-1.4,0-2.1-0.9-2.2-2.7c-1.6,1.8-3.4,2.7-5,2.7c-2.3,0-3.9-1.5-3.9-3.6
		s1.3-3.2,5.8-4.8l3.1-1.1v-2.7C30.3,10.1,29,9,27,9c-1.5,0-2.9,0.9-2.9,1.8c0,0.8,0.9,1.6,0.9,2c0,0.5-2.1,1.2-2.2,1.2
		c-0.3,0-0.9-1.2-0.9-2.1c0-2.3,2.6-4,6.2-4c3.4,0,4.8,1.4,4.8,4.1v7.9c0,1.2,0.3,1.7,0.9,1.7c0.4,0,0.7-0.1,1.2-0.4L35.4,22.1z
		 M26.2,17.2c-1.4,0.6-2.1,1.4-2.1,2.4c0,1.4,1.1,2.3,2.5,2.3c1.2,0,2.5-0.6,3.6-1.9v-4.6L26.2,17.2z"/>
	<path class="st0" d="M40.7,0v19.7c0,2.3,0.4,3,2.4,3v0.9h-7.5v-0.9c1.9-0.1,2.5-0.4,2.5-3.1V3.1L35.6,2V1.5L40.7,0z"/>
	<path class="st0" d="M58.1,22.1c-1.1,1.3-2,1.9-2.9,1.9c-1.4,0-2.1-0.9-2.2-2.7C51.4,23,49.6,24,48,24c-2.3,0-3.9-1.5-3.9-3.6
		s1.3-3.2,5.8-4.8l3.1-1.1v-2.7c0-1.7-1.3-2.9-3.2-2.9c-1.5,0-2.9,0.9-2.9,1.8c0,0.8,0.9,1.6,0.9,2c0,0.5-2.1,1.2-2.2,1.2
		c-0.3,0-0.9-1.2-0.9-2.1c0-2.3,2.6-4,6.2-4c3.4,0,4.8,1.4,4.8,4.1v7.9c0,1.2,0.3,1.7,0.9,1.7c0.4,0,0.7-0.1,1.2-0.4L58.1,22.1z
		 M49,17.2c-1.4,0.6-2.1,1.4-2.1,2.4c0,1.4,1.1,2.3,2.5,2.3c1.2,0,2.5-0.6,3.6-1.9v-4.6L49,17.2z"/>
	<path class="st0" d="M76.4,23l-5.2,1v-3c-1.7,1.9-3.9,3-5.8,3c-2.3,0-4.6-1.6-4.6-4.8v-7.6c0-1.6-0.5-2.2-2.7-2.4V8.3
		c1.7,0,2.8-0.1,3.6-0.1C62.6,8.1,63,8.1,63.4,8v10.5c0,2.2,1.2,3.4,3.3,3.4c1.5,0,3.1-0.7,4.5-2v-8c0-1.9-0.4-2.7-2.8-2.7V8.3
		c1.5,0,2.5-0.1,3.4-0.1c0.9-0.1,1.5-0.1,2.1-0.2v12.4c0,1.9,0.8,1.9,2.5,1.7V23z"/>
	<path class="st0" d="M103.1,23L98,23.9v-2.8c-2.1,2.1-3.6,2.9-5.6,2.9c-3.6,0-6.4-3.1-6.4-7.2C86,13,88.8,8,94.2,8
		c1.5,0,2.7,0.3,3.9,1.2V3.1L95.4,2V1.5l5.3-1.5v20.2c0,1.5,0.4,2,1.4,2c0.4,0,0.8,0,1.1-0.1V23H103.1z M98,13.9
		c0-2.5-1.7-4.9-4.6-4.9s-4.8,2.4-4.8,6.2c0,3.9,2.2,6.8,5.3,6.8c1.5,0,2.8-0.6,4.1-2.1V13.9z"/>
	<path class="st0" d="M106.5,13.9c-0.2,5.2,3,7.6,6.2,7.6c1.7,0,2.8-0.5,4.2-1.9l0.6,0.6c-1.6,2.4-3.7,3.7-6.1,3.7
		c-4.2,0-7.1-3.3-7.1-7.9c0-4.7,2.9-8.1,7-8.1c3.4,0,6.2,2.6,6.3,6C117.6,13.9,106.5,13.9,106.5,13.9z M114.2,13
		c-0.3-2.5-1.6-4-3.6-4s-3.6,1.6-4,4H114.2z"/>
	<path class="st0" d="M131.4,0v19.7c0,2.3,0.4,3,2.4,3v0.9h-7.5v-0.9c1.9-0.1,2.5-0.4,2.5-3.1V3.1L126.3,2V1.5L131.4,0z"/>
	<path class="st0" d="M148.8,22.1c-1.1,1.3-2,1.9-2.9,1.9c-1.4,0-2.1-0.9-2.2-2.7c-1.6,1.8-3.4,2.7-5,2.7c-2.3,0-3.9-1.5-3.9-3.6
		s1.3-3.2,5.8-4.8l3.1-1.1v-2.7c0-1.7-1.3-2.9-3.2-2.9c-1.5,0-2.9,0.9-2.9,1.8c0,0.8,0.9,1.6,0.9,2c0,0.5-2.1,1.2-2.2,1.2
		c-0.3,0-0.9-1.2-0.9-2.1c0-2.3,2.6-4,6.2-4c3.4,0,4.8,1.4,4.8,4.1v7.9c0,1.2,0.3,1.7,0.9,1.7c0.4,0,0.7-0.1,1.2-0.4L148.8,22.1z
		 M139.7,17.2c-1.4,0.6-2.1,1.4-2.1,2.4c0,1.4,1.1,2.3,2.5,2.3c1.2,0,2.5-0.6,3.6-1.9v-4.6L139.7,17.2z"/>
	<path class="st0" d="M5.3,42.5C5.5,41,5.8,39.4,5.8,38c0-1.7-1-2.7-2.8-2.6v-1h6c0.1,1.7,2,6.4,3,8.6l1.6,3.5
		c1.2,2.5,1.8,3.4,3.2,6.8c0.5-1.2,0.9-2.1,2-4.2l2.5-4.9c2.6-5.1,3.1-7.3,3.1-9.8h6.4v1C28.7,35.3,28,36.1,28,38
		c0,0.5,0.1,1.3,0.2,2.1L30,53.3c0.3,2.5,1.2,3.2,3.3,3.4v1h-9.9v-1c2,0,3.2-1.1,3.2-2.8c0-0.2-0.1-1.6-0.3-3.6L25,38.7h-0.1
		c-0.2,0.6-0.3,1-0.7,1.9c-0.8,1.9-1,2.3-2,4.2L21,47c-1.5,3-1.8,3.6-2.4,4.9c-0.8,1.7-1.4,3.3-1.7,4.2c-0.2,0.6-0.3,0.9-0.4,1.5H15
		c-0.4-1.7-1-3.2-2.1-5.7l-3.3-7c-1.1-2.2-2-4.6-2.5-6.3H7L5.1,51.3c-0.2,1-0.2,1.5-0.2,2.1c0,2,0.8,2.9,3.2,3.2v1H0v-1
		C2.5,56.4,3.3,54,3.9,50L5.3,42.5z"/>
	<path class="st0" d="M51.3,57l-5.2,1v-3c-1.7,1.9-3.9,3-5.8,3c-2.3,0-4.6-1.6-4.6-4.8v-7.6c0-1.6-0.5-2.2-2.7-2.4v-0.9
		c1.7,0,2.8-0.1,3.6-0.1c0.8-0.1,1.3-0.1,1.7-0.2v10.5c0,2.2,1.2,3.4,3.3,3.4c1.5,0,3.1-0.7,4.5-2v-8c0-1.9-0.4-2.7-2.8-2.7v-0.9
		c1.5,0,2.5-0.1,3.4-0.1c0.9-0.1,1.5-0.1,2.1-0.2v12.4c0,1.9,0.8,1.9,2.5,1.7V57z M39.9,39.8l1.5-3.9c0.4-1,0.6-1.2,1.8-1.2H44
		c0.7,0,0.9,0.1,0.9,0.5c0,0.1-0.1,0.4-0.4,0.7l-3.4,3.8h-1.2V39.8z"/>
	<path class="st0" d="M53.9,52.5c0.3,2.7,1.7,4.5,3.9,4.5c1.7,0,3-1.2,3-2.7c0-0.4-0.1-1.1-0.5-1.5c-1.7-1.7-4.8-2.2-6.7-4.1
		c-0.6-0.6-1.1-1.5-1.1-2.6c0-2.4,2.1-4.1,5-4.1c1.6,0,3.1,0.5,4.4,1.5V47H61c-0.5-2.8-1.6-4.1-3.5-4.1c-1.6,0-2.7,1-2.7,2.3
		c0,0.6,0.2,1.2,0.6,1.6c1.4,1.4,4.5,1.9,6.4,3.8c0.8,0.8,1.2,1.8,1.2,2.8c0,2.6-2.3,4.5-5.3,4.5c-1.6,0-3.3-0.4-4.7-1.3v-4.2h0.9
		V52.5z"/>
	<path class="st0" d="M69.6,42v11.9c0,2.1,0.4,2.9,2.4,2.9v0.9h-7.7v-0.9c2.2,0,2.7-0.6,2.7-3V45l-2.5-1.1v-0.5L69.6,42z M68.3,34
		c1,0,1.7,0.8,1.7,1.7c0,1-0.8,1.7-1.7,1.7c-1,0-1.7-0.8-1.7-1.7C66.5,34.8,67.3,34,68.3,34z"/>
	<path class="st0" d="M86.7,53.9c-1.5,2.5-3.8,4-6.2,4c-4,0-7.4-3.3-7.4-7.8c0-4.8,3.5-8.2,8.2-8.2c3,0,5.2,1.3,5.2,3.1
		c0,0.9-0.5,1.5-1.3,1.5c-2.2,0-0.9-3.6-4.6-3.6c-3,0-4.9,2.3-4.9,5.8c0,3.9,2.4,6.8,5.8,6.8c1.6,0,3.1-0.7,4.5-2.1L86.7,53.9z"/>
	<path class="st0" d="M102.1,56.1c-1.1,1.3-2,1.9-2.9,1.9c-1.4,0-2.1-0.9-2.2-2.7C95.4,57,93.6,58,92,58c-2.3,0-3.9-1.5-3.9-3.6
		s1.3-3.2,5.8-4.8l3.1-1.1v-2.7c0-1.7-1.3-2.9-3.2-2.9c-1.5,0-2.9,0.9-2.9,1.8c0,0.8,0.9,1.6,0.9,2c0,0.5-2.1,1.2-2.2,1.2
		c-0.3,0-0.9-1.2-0.9-2.1c0-2.3,2.6-4,6.2-4c3.4,0,4.8,1.4,4.8,4.1v7.9c0,1.2,0.3,1.7,0.9,1.7c0.4,0,0.7-0.1,1.2-0.4L102.1,56.1z
		 M93,51.2c-1.4,0.6-2.1,1.4-2.1,2.4c0,1.4,1.1,2.3,2.5,2.3c1.2,0,2.5-0.6,3.6-1.9v-4.6L93,51.2z"/>
	<path class="st0" d="M23.9,84.9l-0.1,5c-2.3,1.3-6.1,2.1-9.3,2.1C7,92,1.7,87.1,1.7,80.2C1.7,72.3,8.6,68,14.9,68
		c2.7,0,5.7,0.6,8,1.6l0.9,5.1h-1.1c-2-3.8-4.4-5.5-8-5.5c-2.8,0-4.9,1-6.2,2.3c-2.1,2.1-3,5.1-3,8.3c0,3.7,1.1,6.5,3.4,8.8
		c1.5,1.5,3.6,2.3,6.1,2.3c4.1,0,6.7-1.9,8-5.9h0.9V84.9z"/>
	<path class="st0" d="M40.3,90.1c-1.1,1.3-2,1.9-2.9,1.9c-1.4,0-2.1-0.9-2.2-2.7c-1.6,1.8-3.4,2.7-5,2.7c-2.3,0-3.9-1.5-3.9-3.6
		s1.3-3.2,5.8-4.8l3.1-1.1v-2.7c0-1.7-1.3-2.9-3.2-2.9c-1.5,0-2.9,0.9-2.9,1.8c0,0.8,0.9,1.6,0.9,2c0,0.5-2.1,1.2-2.2,1.2
		c-0.3,0-0.9-1.2-0.9-2.1c0-2.3,2.6-4,6.2-4c3.4,0,4.8,1.4,4.8,4.1v7.9c0,1.2,0.3,1.7,0.9,1.7c0.4,0,0.7-0.1,1.2-0.4L40.3,90.1z
		 M31.2,85.2c-1.4,0.6-2.1,1.4-2.1,2.4c0,1.4,1.1,2.3,2.5,2.3c1.2,0,2.5-0.6,3.6-1.9v-4.6L31.2,85.2z"/>
	<path class="st0" d="M50.9,91.1c-1.4,0.5-3.2,0.9-4.3,0.9c-2.4,0-3.3-1.2-3.3-3.5v-11h-2.7v-0.8c2.2-0.6,3.7-1.8,4.5-3.8H46v3.3
		h4.7v1.2H46V88c0,1.7,0.5,2.3,2.3,2.3c0.7,0,1.5-0.1,2.7-0.3v1.1H50.9z"/>
	<path class="st0" d="M65.2,90.1c-1.1,1.3-2,1.9-2.9,1.9c-1.4,0-2.1-0.9-2.2-2.7c-1.6,1.8-3.4,2.7-5,2.7c-2.3,0-3.9-1.5-3.9-3.6
		s1.3-3.2,5.8-4.8l3.1-1.1v-2.7c0-1.7-1.3-2.9-3.2-2.9c-1.5,0-2.9,0.9-2.9,1.8c0,0.8,0.9,1.6,0.9,2c0,0.5-2.1,1.2-2.2,1.2
		c-0.3,0-0.9-1.2-0.9-2.1c0-2.3,2.6-4,6.2-4c3.4,0,4.8,1.4,4.8,4.1v7.9c0,1.2,0.3,1.7,0.9,1.7c0.4,0,0.7-0.1,1.2-0.4L65.2,90.1z
		 M56.1,85.2c-1.4,0.6-2.1,1.4-2.1,2.4c0,1.4,1.1,2.3,2.5,2.3c1.2,0,2.5-0.6,3.6-1.9v-4.6L56.1,85.2z"/>
	<path class="st0" d="M70.5,68v19.7c0,2.3,0.4,3,2.4,3v0.9h-7.5v-0.9c1.9-0.1,2.5-0.4,2.5-3.1V71.1L65.4,70v-0.6L70.5,68z"/>
	<path class="st0" d="M88,90.1c-1.1,1.3-2,1.9-2.9,1.9c-1.4,0-2.1-0.9-2.2-2.7c-1.6,1.8-3.4,2.7-5,2.7c-2.3,0-3.9-1.5-3.9-3.6
		s1.3-3.2,5.8-4.8l3.1-1.1v-2.7c0-1.7-1.3-2.9-3.2-2.9c-1.5,0-2.9,0.9-2.9,1.8c0,0.8,0.9,1.6,0.9,2c0,0.5-2.1,1.2-2.2,1.2
		c-0.3,0-0.9-1.2-0.9-2.1c0-2.3,2.6-4,6.2-4c3.4,0,4.8,1.4,4.8,4.1v7.9c0,1.2,0.3,1.7,0.9,1.7c0.4,0,0.7-0.1,1.2-0.4L88,90.1z
		 M78.8,85.2c-1.4,0.6-2.1,1.4-2.1,2.4c0,1.4,1.1,2.3,2.5,2.3c1.2,0,2.5-0.6,3.6-1.9v-4.6L78.8,85.2z"/>
	<path class="st0" d="M93.6,76v2.9c1.7-1.7,3.7-2.9,5.9-2.9c2.6,0,4.5,1.7,4.5,4.9v7c0,2.1,0.5,2.8,2.5,2.8v0.9h-7.8v-0.9
		c2.2,0,2.7-0.7,2.7-2.9v-6.7c0-1.8-1.2-3.1-3.1-3.1c-1.6,0-3.3,0.7-4.7,2v7.7c0,2.2,0.2,3.1,2.7,3v0.9h-7.9v-0.9
		c1.9,0,2.5-0.5,2.5-3V79l-2.3-1v-0.5L93.6,76z"/>
	<path class="st0" d="M121.3,90.1c-1.1,1.3-2,1.9-2.9,1.9c-1.4,0-2.1-0.9-2.2-2.7c-1.6,1.8-3.4,2.7-5,2.7c-2.3,0-3.9-1.5-3.9-3.6
		s1.3-3.2,5.8-4.8l3.1-1.1v-2.7c0-1.7-1.3-2.9-3.2-2.9c-1.5,0-2.9,0.9-2.9,1.8c0,0.8,0.9,1.6,0.9,2c0,0.5-2.1,1.2-2.2,1.2
		c-0.3,0-0.9-1.2-0.9-2.1c0-2.3,2.6-4,6.2-4c3.4,0,4.8,1.4,4.8,4.1v7.9c0,1.2,0.3,1.7,0.9,1.7c0.4,0,0.7-0.1,1.2-0.4L121.3,90.1z
		 M112.2,85.2c-1.4,0.6-2.1,1.4-2.1,2.4c0,1.4,1.1,2.3,2.5,2.3c1.2,0,2.5-0.6,3.6-1.9v-4.6L112.2,85.2z"/>
</g>
<g>
	<path class="st0" d="M18.7,118.5h-1.1c-0.4-2.7-1.7-4-5.3-4H7.6v7.7c0,3.4,0.3,3.8,5.1,3.8c5.2,0,7.5-1.8,9.1-4.9H23l-1.5,6H0.2
		v-1.1c3.1,0.1,3.9-0.8,3.9-3.3v-16.6c0-2.4-0.9-3.2-3.9-3.1v-1.1h20.7l0.2,5.4H20c-0.9-2.8-2.6-4.4-6.3-4.4H7.6v10.5h5
		c3,0,5-1.1,5.1-4h1.1V118.5z"/>
	<path class="st0" d="M28.3,110.1v3.2c1.8-1.8,4-3.2,6.4-3.2c2.8,0,4.9,1.8,4.9,5.4v7.7c0,2.3,0.6,3,2.7,3v1h-8.5v-1
		c2.4,0,2.9-0.8,2.9-3.2v-7.3c0-2-1.3-3.4-3.3-3.4c-1.7,0-3.6,0.8-5.1,2.2v8.4c0,2.4,0.3,3.3,3,3.3v1h-8.6v-1c2.1,0,2.8-0.5,2.8-3.2
		v-9.4l-2.6-1.2v-0.5L28.3,110.1z"/>
	<path class="st0" d="M52.8,126.6c-1.5,0.6-3.5,0.9-4.7,0.9c-2.7,0-3.6-1.3-3.6-3.8v-11.9h-3V111c2.4-0.7,4-2,4.9-4.1h0.9v3.6h5.1
		v1.3h-5.1v11.4c0,1.8,0.6,2.5,2.5,2.5c0.8,0,1.7-0.1,3-0.3V126.6z"/>
	<path class="st0" d="M57.4,110.1v4.3h0.1c1.4-3,2.8-4.1,4.4-4.1c1.3,0,2.8,1.1,2.8,2c0,0.8-0.6,2.2-1.3,2.2c-0.9,0-1.5-1.8-2.8-1.8
		c-0.9,0-1.5,0.6-3.2,3.3v7.2c0,2.4,0.4,3.1,3.8,3v1h-9.6v-1c2.1,0,2.9-0.4,2.9-2.7v-10l-2.9-1.3v-0.5L57.4,110.1z"/>
	<path class="st0" d="M79.8,125.5c-1.2,1.4-2.2,2-3.1,2c-1.5,0-2.3-1-2.4-3c-1.7,1.9-3.7,3-5.4,3c-2.5,0-4.3-1.6-4.3-4
		s1.4-3.5,6.3-5.2l3.4-1.1v-2.9c0-1.9-1.4-3.1-3.5-3.1c-1.7,0-3.1,1-3.1,2c0,0.9,1,1.7,1,2.2c0,0.5-2.3,1.3-2.4,1.3
		c-0.4,0-1-1.3-1-2.3c0-2.5,2.8-4.3,6.7-4.3c3.7,0,5.2,1.5,5.2,4.4v8.6c0,1.3,0.3,1.8,1,1.8c0.4,0,0.8-0.1,1.3-0.4L79.8,125.5z
		 M69.9,120.1c-1.6,0.7-2.3,1.5-2.3,2.6c0,1.5,1.1,2.5,2.8,2.5c1.3,0,2.7-0.7,3.9-2v-5L69.9,120.1z"/>
	<path class="st0" d="M99.1,126.5l-5.6,1v-3.1c-2.3,2.3-3.9,3.1-6.1,3.1c-4,0-7-3.4-7-7.8c0-4.2,3.1-9.6,8.9-9.6
		c1.7,0,2.9,0.4,4.2,1.3v-6.6l-2.8-1.2v-0.6l5.7-1.6v22c0,1.6,0.4,2.2,1.6,2.2c0.4,0,0.9,0,1.1-0.1V126.5z M93.5,116.6
		c0-2.7-1.9-5.3-5-5.3s-5.2,2.6-5.2,6.7c0,4.3,2.4,7.4,5.8,7.4c1.7,0,3-0.7,4.5-2.3V116.6z"/>
	<path class="st0" d="M102,116.6c-0.2,5.7,3.3,8.3,6.7,8.3c1.9,0,3-0.5,4.5-2l0.6,0.6c-1.8,2.7-4,4-6.6,4c-4.5,0-7.8-3.6-7.8-8.6
		c0-5.1,3.2-8.8,7.6-8.8c3.7,0,6.7,2.8,6.8,6.5H102z M110.4,115.6c-0.3-2.8-1.7-4.4-3.9-4.4c-2.1,0-3.9,1.8-4.3,4.4H110.4z"/>
	<path class="st0" d="M116.4,121.6c0.3,2.9,1.9,4.9,4.3,4.9c1.8,0,3.3-1.3,3.3-2.9c0-0.4-0.1-1.2-0.6-1.7c-1.8-1.8-5.2-2.4-7.2-4.4
		c-0.7-0.7-1.1-1.7-1.1-2.8c0-2.6,2.3-4.5,5.4-4.5c1.7,0,3.4,0.6,4.8,1.6v3.9h-1c-0.6-3-1.7-4.4-3.8-4.4c-1.7,0-2.9,1-2.9,2.5
		c0,0.7,0.2,1.3,0.7,1.7c1.5,1.5,4.9,2.1,6.9,4.1c0.9,0.9,1.3,2,1.3,3.1c0,2.8-2.5,4.9-5.8,4.9c-1.7,0-3.6-0.5-5.1-1.4v-4.6H116.4z"
		/>
	<path class="st0" d="M5.8,147.1V160c0,2.3,0.5,3.1,2.6,3.1v1H0v-1c2.4,0,2.9-0.6,2.9-3.3v-9.4l-2.7-1.2v-0.6L5.8,147.1z M4.3,138.5
		c1,0,1.9,0.9,1.9,1.9c0,1-0.9,1.9-1.9,1.9s-1.9-0.9-1.9-1.9C2.4,139.3,3.3,138.5,4.3,138.5z"/>
	<path class="st0" d="M32.2,162.5c-1.2,1.4-2.2,2-3.1,2c-1.5,0-2.3-1-2.4-3c-1.7,1.9-3.7,3-5.4,3c-2.5,0-4.3-1.6-4.3-4
		c0-2.3,1.4-3.5,6.3-5.2l3.4-1.1v-2.9c0-1.9-1.4-3.1-3.5-3.1c-1.7,0-3.1,1-3.1,2c0,0.9,1,1.7,1,2.2c0,0.5-2.3,1.3-2.4,1.3
		c-0.4,0-1-1.3-1-2.3c0-2.5,2.8-4.3,6.7-4.3c3.7,0,5.2,1.5,5.2,4.4v8.6c0,1.3,0.3,1.8,1,1.8c0.4,0,0.8-0.1,1.3-0.4L32.2,162.5z
		 M22.3,157.1c-1.6,0.7-2.3,1.5-2.3,2.6c0,1.5,1.1,2.5,2.8,2.5c1.3,0,2.7-0.7,3.9-2v-5L22.3,157.1z"/>
	<path class="st0" d="M37.1,138.5v11.9c2.3-2.4,3.9-3.3,6.1-3.3c4.9,0,7.1,4.9,7.1,8.4c0,4.2-3.1,9-9,9c-3,0-5-0.8-7.1-2.2v-20.5
		l-2.6-1.2v-0.6L37.1,138.5z M37.1,158.9c0,3,2.7,4.6,5,4.6c3.3,0,5.4-2.6,5.4-6.7c0-4.3-2.3-7.3-5.6-7.3c-1.6,0-3.1,0.7-4.7,2.1
		V158.9z"/>
	<path class="st0" d="M59.9,147.1c4.7,0,8.3,3.7,8.3,8.6c0,5-3.6,8.8-8.2,8.8c-4.8,0-8.4-3.7-8.4-8.7
		C51.5,150.8,55.1,147.1,59.9,147.1z M57.2,162.1c0.6,0.6,1.7,1.3,3.3,1.3c2.7,0,4.7-2.3,4.7-5.5c0-1.8-0.4-6.1-2.8-8.5
		c-0.7-0.7-1.8-1.2-3-1.2c-2.3,0-5,1.4-5,6C54.4,156.5,55.4,160.2,57.2,162.1z"/>
	<path class="st0" d="M74.4,147.1v3.2c1.8-1.8,4-3.2,6.4-3.2c2.8,0,4.9,1.8,4.9,5.4v7.7c0,2.3,0.6,3,2.7,3v1h-8.5v-1
		c2.4,0,2.9-0.8,2.9-3.2v-7.3c0-2-1.3-3.4-3.3-3.4c-1.7,0-3.6,0.8-5.1,2.2v8.4c0,2.4,0.3,3.3,3,3.3v1h-8.6v-1c2.1,0,2.8-0.5,2.8-3.2
		v-9.4l-2.6-1.2v-0.5L74.4,147.1z"/>
	<path class="st0" d="M103.8,162.5c-1.2,1.4-2.2,2-3.1,2c-1.5,0-2.3-1-2.4-3c-1.7,1.9-3.7,3-5.4,3c-2.5,0-4.3-1.6-4.3-4
		c0-2.3,1.4-3.5,6.3-5.2l3.4-1.1v-2.9c0-1.9-1.4-3.1-3.5-3.1c-1.7,0-3.1,1-3.1,2c0,0.9,1,1.7,1,2.2c0,0.5-2.3,1.3-2.4,1.3
		c-0.4,0-1-1.3-1-2.3c0-2.5,2.8-4.3,6.7-4.3c3.7,0,5.2,1.5,5.2,4.4v8.6c0,1.3,0.3,1.8,1,1.8c0.4,0,0.8-0.1,1.3-0.4L103.8,162.5z
		 M93.9,157.1c-1.6,0.7-2.3,1.5-2.3,2.6c0,1.5,1.1,2.5,2.8,2.5c1.3,0,2.7-0.7,3.9-2v-5L93.9,157.1z"/>
	<path class="st0" d="M109.2,147.1v2.9c1.7-1.8,4-2.9,6.1-2.9c2.3,0,4.2,1.3,4.7,3.1c2.1-2.1,4.1-3.1,6.3-3.1c2,0,5,1.2,5,4.5v8.5
		c0,2.2,0.4,3.1,2.7,3.1v1h-8.1v-1c1.7,0,2.6-0.7,2.6-2.9v-6.8c0-2.3-0.7-4.1-3.6-4.1c-1.5,0-3.1,0.7-4.5,2v8.9c0,2.1,0.5,3,2.7,3v1
		h-8.3v-1c2.2,0,2.7-0.8,2.7-3.1v-7.4c0-2-1.4-3.2-3.6-3.2c-1.6,0-3.2,0.7-4.5,1.9v8.8c0,2.4,0.5,3.1,2.6,3.1v1h-8.4v-1
		c2.5,0,2.9-0.7,2.9-3.4v-9.2l-2.6-1.3v-0.6L109.2,147.1z"/>
	<path class="st0" d="M136.7,153.6c-0.2,5.7,3.3,8.3,6.7,8.3c1.9,0,3-0.5,4.5-2l0.6,0.6c-1.8,2.7-4,4-6.6,4c-4.5,0-7.8-3.6-7.8-8.6
		c0-5.1,3.2-8.8,7.6-8.8c3.7,0,6.7,2.8,6.8,6.5H136.7z M145.1,152.6c-0.3-2.8-1.7-4.4-3.9-4.4c-2.1,0-3.9,1.8-4.3,4.4H145.1z"/>
	<path class="st0" d="M154.4,147.1v3.2c1.8-1.8,4-3.2,6.4-3.2c2.8,0,4.9,1.8,4.9,5.4v7.7c0,2.3,0.6,3,2.7,3v1H160v-1
		c2.4,0,2.9-0.8,2.9-3.2v-7.3c0-2-1.3-3.4-3.3-3.4c-1.7,0-3.6,0.8-5.1,2.2v8.4c0,2.4,0.3,3.3,3,3.3v1h-8.6v-1c2.1,0,2.8-0.5,2.8-3.2
		v-9.4l-2.6-1.2v-0.5L154.4,147.1z"/>
	<path class="st0" d="M178.9,163.6c-1.5,0.6-3.5,0.9-4.7,0.9c-2.7,0-3.6-1.3-3.6-3.8v-11.9h-3V148c2.4-0.7,4-2,4.9-4.1h0.9v3.6h5.1
		v1.3h-5.1v11.4c0,1.8,0.6,2.5,2.5,2.5c0.8,0,1.7-0.1,3-0.3V163.6z"/>
	<path class="st0" d="M180.2,158.6c0.3,2.9,1.9,4.9,4.3,4.9c1.8,0,3.3-1.3,3.3-2.9c0-0.4-0.1-1.2-0.6-1.7c-1.8-1.8-5.2-2.4-7.2-4.4
		c-0.7-0.7-1.1-1.7-1.1-2.8c0-2.6,2.3-4.5,5.4-4.5c1.7,0,3.4,0.6,4.8,1.6v3.9h-1c-0.6-3-1.7-4.4-3.8-4.4c-1.7,0-2.9,1-2.9,2.5
		c0,0.7,0.2,1.3,0.7,1.7c1.5,1.5,4.9,2.1,6.9,4.1c0.9,0.9,1.3,2,1.3,3.1c0,2.8-2.5,4.9-5.8,4.9c-1.7,0-3.6-0.5-5.1-1.4v-4.6H180.2z"
		/>
</g>
</svg>
