<?xml version="1.0" encoding="utf-8"?>
<!-- Generator: Adobe Illustrator 23.0.2, SVG Export Plug-In . SVG Version: 6.00 Build 0)  -->
<svg version="1.1" id="Laag_1" xmlns="http://www.w3.org/2000/svg" xmlns:xlink="http://www.w3.org/1999/xlink" x="0px" y="0px"
	 width="112.8px" height="92.4px" viewBox="0 0 112.8 92.4" style="enable-background:new 0 0 112.8 92.4;" xml:space="preserve">
<style type="text/css">
	.st0{fill:#1D1D1B;}
</style>
<g>
	<path class="st0" d="M14.8,6.4c0-1.8,1.1-3.1,2.9-3.3v0.5c-0.9,0.2-1.8,1-1.9,2.1c1.1-0.4,1.9,0.3,1.9,1.1c0,0.8-0.6,1.4-1.3,1.4
		C15.5,8.1,14.8,7.4,14.8,6.4z M18.6,6.4c0-1.8,1.1-3.1,2.9-3.3v0.5c-0.9,0.2-1.8,1-1.9,2.1c1.1-0.4,1.9,0.3,1.9,1.1
		c0,0.8-0.6,1.4-1.3,1.4C19.2,8.1,18.6,7.4,18.6,6.4z"/>
	<path class="st0" d="M34.2,8.1h-0.5c-0.5-1.7-0.9-2.4-2.4-2.4h-2.1v10.7c0,1.1,0.5,1.4,1.8,1.5v0.5h-5.4v-0.5
		c1.3-0.1,1.8-0.4,1.8-1.5V5.7h-2.1c-1.5,0-1.9,0.6-2.4,2.4h-0.5L22.4,5H34L34.2,8.1z"/>
	<path class="st0" d="M45.3,17.9v0.5h-4.5v-0.5c0.8-0.1,1.4-0.3,1.4-1.2v-5.1c0-1.5-0.8-2.2-2-2.2c-0.9,0-1.7,0.4-2.6,1.5v5.8
		c0,0.9,0.6,1.1,1.4,1.2v0.5h-4.6v-0.5c0.8-0.1,1.4-0.3,1.4-1.2V6.6c0-0.7-0.3-1-1.1-1.1l-0.3,0V5l2.8-0.8h0.4v6.1
		C38.7,8.7,39.7,8,40.9,8c1.6,0,3,1.1,3,3.3v5.3C43.9,17.6,44.5,17.8,45.3,17.9z"/>
	<path class="st0" d="M54,12.8h-6.9c0.1,2.7,1.4,4.4,3.5,4.4c1.4,0,2.4-0.8,3-1.7l0.4,0.2c-0.5,1.6-2,3-4.1,3c-2.8,0-4.5-2.3-4.5-5
		c0-3.5,2-5.6,4.8-5.6C52.8,8,54,10.2,54,12.8z M47.2,12.1h5c-0.1-1.9-0.7-3.3-2.3-3.3C48.2,8.8,47.3,10.1,47.2,12.1z"/>
	<path class="st0" d="M74.9,17.9v0.5h-4.5v-0.5c0.8-0.1,1.4-0.3,1.4-1.2v-5.1c0-1.5-0.8-2.2-2-2.2c-0.9,0-1.7,0.4-2.7,1.5
		c0,0.1,0,0.3,0,0.4v5.3c0,0.9,0.6,1.1,1.4,1.2v0.5H64v-0.5c0.8-0.1,1.4-0.3,1.4-1.2v-5.1c0-1.5-0.8-2.2-2-2.2
		c-0.9,0-1.7,0.4-2.6,1.5v5.8c0,0.9,0.6,1.1,1.4,1.2v0.5h-4.6v-0.5c0.8-0.1,1.4-0.3,1.4-1.2v-6.2c0-0.8-0.3-1.2-1.2-1.3l-0.2,0V8.8
		L60.4,8h0.4v2.3C61.9,8.7,62.9,8,64.1,8c1.4,0,2.6,0.8,2.9,2.4C68.2,8.8,69.3,8,70.5,8c1.7,0,3,1.1,3,3.3v5.3
		C73.5,17.6,74.1,17.8,74.9,17.9z"/>
	<path class="st0" d="M75.2,13.6c0-3.3,2.2-5.5,4.8-5.5c2.8,0,4.7,2.2,4.7,5.1c0,3.3-2.2,5.5-4.8,5.5C77.1,18.6,75.2,16.5,75.2,13.6
		z M82.9,13.8c0-2.1-0.9-5-3.1-5c-1.6,0-2.7,1.6-2.7,4c0,2.1,0.9,5,3.1,5C81.8,17.8,82.9,16.2,82.9,13.8z"/>
	<path class="st0" d="M92.9,9.6l-1.5,1.3c-0.4-1.4-1.2-2.1-2.3-2.1c-1.2,0-2,0.6-2,1.6c0,2.6,5.9,1.5,5.9,5.2c0,1.7-1.4,3.1-3.7,3.1
		c-1.7,0-3.3-0.8-4-1.9l1.6-1.2c0.5,1.5,1.4,2.4,2.6,2.4c1.2,0,2.1-0.8,2.1-1.8c0-2.7-5.8-1.9-5.8-5.2C85.6,9.2,87,8,89.2,8
		C91.5,8,92.5,9,92.9,9.6z"/>
	<path class="st0" d="M99.9,17.4c-0.6,0.5-1.4,1.2-2.5,1.2c-1.6,0-2.5-0.9-2.5-3V9h-1.7V8.3h1.7v-2l1.7-0.8v2.8h3.1V9h-3.1v6.7
		c0,1.4,0.7,1.9,1.7,1.9c0.6,0,1-0.2,1.5-0.5L99.9,17.4z"/>
</g>
<g>
	<path class="st0" d="M14,34.6v0.5l-2.8,0.8h-0.4v-1.8c-0.6,0.9-1.7,1.8-3.1,1.8c-2.5,0-4.1-2.2-4.1-5c0-3.6,2.3-5.6,4.9-5.6
		c1.1,0,1.8,0.3,2.3,0.8V24c0-0.8-0.3-1.2-1.2-1.3l-0.2,0v-0.4l2.8-0.8h0.4v11.9c0,0.9,0.3,1.3,1.2,1.3H14z M10.8,29.2
		c0-1.5-0.8-3.2-2.7-3.2c-1.6,0-2.7,1.7-2.7,4.2c0,2.2,0.9,4.5,2.9,4.5c1,0,2.1-0.6,2.5-1.2V29.2z"/>
	<path class="st0" d="M19.1,35.2v0.5h-4.6v-0.5c0.8-0.1,1.4-0.3,1.4-1.2v-6.2c0-0.8-0.3-1.2-1.2-1.3l-0.2,0v-0.4l2.8-0.8h0.4V34
		C17.7,34.8,18.3,35,19.1,35.2z M15.5,22.6c0-0.7,0.5-1.2,1.2-1.2s1.2,0.5,1.2,1.2c0,0.7-0.5,1.2-1.2,1.2S15.5,23.3,15.5,22.6z"/>
	<path class="st0" d="M29.4,26c-0.7,0.1-1,0.4-1.2,0.9l-3.8,9h-0.5l-3.9-9c-0.2-0.5-0.5-0.7-1.2-0.8v-0.5h4.6V26
		c-1.3,0.2-1.6,0.5-1.3,1.3l2.6,6.1l2.5-6.1c0.4-0.9,0-1.1-1.3-1.3v-0.5h3.5V26z"/>
	<path class="st0" d="M37.7,30.1h-6.9c0.1,2.7,1.4,4.4,3.5,4.4c1.4,0,2.4-0.8,3-1.7l0.4,0.2c-0.5,1.6-2,3-4.1,3
		c-2.8,0-4.5-2.3-4.5-5c0-3.5,2-5.6,4.8-5.6C36.4,25.3,37.7,27.5,37.7,30.1z M30.8,29.4h5c-0.1-1.9-0.7-3.3-2.3-3.3
		C31.8,26.1,31,27.4,30.8,29.4z"/>
	<path class="st0" d="M45.5,25.4l-0.2,1.9c-0.4-0.2-0.9-0.4-1.4-0.4c-1,0-1.9,0.8-2.5,2.1v5c0,0.8,0.5,1.1,2,1.3v0.5h-5.1v-0.5
		c1.1-0.2,1.4-0.5,1.4-1.3v-6.1c0-0.8-0.3-1.2-1.2-1.3l-0.2,0v-0.4l2.8-0.8h0.4v3c0.7-2,1.7-2.9,2.8-3
		C44.8,25.3,45.2,25.3,45.5,25.4z"/>
	<path class="st0" d="M53.2,26.9l-1.5,1.3c-0.4-1.4-1.2-2.1-2.3-2.1c-1.2,0-2,0.6-2,1.6c0,2.6,5.9,1.5,5.9,5.2
		c0,1.7-1.4,3.1-3.7,3.1c-1.7,0-3.3-0.8-4-1.9l1.6-1.2c0.5,1.5,1.4,2.4,2.6,2.4c1.2,0,2.1-0.8,2.1-1.8c0-2.7-5.8-1.9-5.8-5.2
		c0-1.8,1.4-2.9,3.5-2.9C51.7,25.3,52.8,26.3,53.2,26.9z"/>
	<path class="st0" d="M62.6,30.1h-6.9c0.1,2.7,1.4,4.4,3.5,4.4c1.4,0,2.4-0.8,3-1.7l0.4,0.2c-0.5,1.6-2,3-4.1,3
		c-2.8,0-4.5-2.3-4.5-5c0-3.5,2-5.6,4.8-5.6C61.3,25.3,62.6,27.5,62.6,30.1z M55.7,29.4h5c-0.1-1.9-0.7-3.3-2.3-3.3
		C56.7,26.1,55.9,27.4,55.7,29.4z"/>
	<path class="st0" d="M66.2,35c0,1.8-1.1,3.1-2.9,3.3v-0.5c0.9-0.2,1.8-1,1.9-2.1c-1.1,0.4-1.9-0.3-1.9-1.1c0-0.8,0.6-1.4,1.3-1.4
		C65.5,33.3,66.2,34,66.2,35z"/>
	<path class="st0" d="M69.7,30.8c0-3.3,2.2-5.5,4.8-5.5c2.8,0,4.7,2.2,4.7,5.1c0,3.3-2.2,5.5-4.8,5.5C71.5,35.9,69.7,33.8,69.7,30.8
		z M77.3,31.1c0-2.1-0.9-5-3.1-5c-1.6,0-2.7,1.6-2.7,4c0,2.1,0.9,5,3.1,5C76.2,35.1,77.3,33.4,77.3,31.1z"/>
	<path class="st0" d="M89.9,30.3c0,3.6-2.3,5.6-4.9,5.6c-1.1,0-1.8-0.3-2.3-0.8v2.8c0,0.9,0.6,1.1,1.5,1.2v0.5h-4.6v-0.5
		c0.8-0.1,1.4-0.3,1.4-1.2V27.8c0-0.8-0.3-1.2-1.2-1.3l-0.2,0v-0.4l2.8-0.8h0.4V27c0.6-0.8,1.7-1.7,3.1-1.7
		C88.3,25.3,89.9,27.5,89.9,30.3z M88,31c0-2.2-0.9-4.5-2.9-4.5c-1,0-2,0.5-2.5,1V32c0,1.5,0.8,3.2,2.6,3.2C86.9,35.2,88,33.5,88,31
		z"/>
	<path class="st0" d="M99.4,30.1h-6.9c0.1,2.7,1.4,4.4,3.5,4.4c1.4,0,2.4-0.8,3-1.7l0.4,0.2c-0.5,1.6-2,3-4.1,3
		c-2.8,0-4.5-2.3-4.5-5c0-3.5,2-5.6,4.8-5.6C98.1,25.3,99.4,27.5,99.4,30.1z M92.5,29.4h5c-0.1-1.9-0.7-3.3-2.3-3.3
		C93.5,26.1,92.6,27.4,92.5,29.4z"/>
	<path class="st0" d="M110.9,35.2v0.5h-4.5v-0.5c0.8-0.1,1.4-0.3,1.4-1.2v-5.1c0-1.5-0.8-2.2-2-2.2c-0.9,0-1.7,0.4-2.6,1.5V34
		c0,0.9,0.6,1.1,1.4,1.2v0.5h-4.6v-0.5c0.8-0.1,1.4-0.3,1.4-1.2v-6.2c0-0.8-0.3-1.2-1.2-1.3l-0.2,0v-0.4l2.8-0.8h0.4v2.3
		c1.1-1.6,2.2-2.3,3.4-2.3c1.6,0,3,1.1,3,3.3V34C109.4,34.8,110.1,35,110.9,35.2z"/>
</g>
<g>
	<path class="st0" d="M12.8,51.9v0.5l-2.8,0.8H9.5v-2.2c-0.7,1.5-1.9,2.2-3.3,2.2c-1.4,0-2.7-0.9-2.7-2.6c0-1.9,1.5-2.8,4.7-3.5
		l1.3-0.3v-0.3c0-1.9-0.9-3.1-2.4-3.1c-1.2,0-1.9,0.8-1.9,1.8c0,0.4,0.1,0.7,0.3,1.1l-1.6,0.6c-0.3-0.4-0.4-0.8-0.4-1.2
		c0-1.6,1.9-3,4.1-3c2.3,0,3.6,1.5,3.6,3.9v4.1c0,0.8,0.2,1.3,1.3,1.3H12.8z M9.5,50.3v-2.8l-1.2,0.3c-2.2,0.5-2.9,1.2-2.9,2.5
		c0,1.1,0.8,1.6,1.7,1.6C8.1,51.9,9,51.4,9.5,50.3z"/>
	<path class="st0" d="M23.9,52.4v0.5h-4.5v-0.5c0.8-0.1,1.4-0.3,1.4-1.2v-5.1c0-1.5-0.8-2.2-2-2.2c-0.9,0-1.7,0.4-2.6,1.5v5.8
		c0,0.9,0.6,1.1,1.4,1.2v0.5H13v-0.5c0.8-0.1,1.4-0.3,1.4-1.2v-6.2c0-0.8-0.3-1.2-1.2-1.3l-0.2,0v-0.4l2.8-0.8h0.4v2.3
		c1.1-1.6,2.2-2.3,3.4-2.3c1.6,0,3,1.1,3,3.3v5.3C22.5,52.1,23.1,52.3,23.9,52.4z"/>
	<path class="st0" d="M34.5,51.9v0.5l-2.8,0.8h-0.4v-1.8c-0.6,0.9-1.7,1.8-3.1,1.8c-2.5,0-4.1-2.2-4.1-5c0-3.6,2.3-5.6,4.9-5.6
		c1.1,0,1.8,0.3,2.3,0.8v-2.2c0-0.8-0.3-1.2-1.2-1.3l-0.2,0v-0.4l2.8-0.8h0.4v11.9c0,0.9,0.3,1.3,1.2,1.3H34.5z M31.3,46.4
		c0-1.5-0.8-3.2-2.7-3.2c-1.6,0-2.7,1.7-2.7,4.2c0,2.2,0.9,4.5,2.9,4.5c1,0,2.1-0.6,2.5-1.2V46.4z"/>
	<path class="st0" d="M42,52.4v0.5h-4.6v-0.5c0.8-0.1,1.4-0.3,1.4-1.2v-6.2c0-0.8-0.3-1.2-1.2-1.3l-0.2,0v-0.4l2.8-0.8h0.4v8.7
		C40.6,52.1,41.2,52.3,42,52.4z M38.5,39.8c0-0.7,0.5-1.2,1.2-1.2s1.2,0.5,1.2,1.2c0,0.7-0.5,1.2-1.2,1.2S38.5,40.5,38.5,39.8z"/>
	<path class="st0" d="M53.5,52.4v0.5H49v-0.5c0.8-0.1,1.4-0.3,1.4-1.2v-5.1c0-1.5-0.8-2.2-2-2.2c-0.9,0-1.7,0.4-2.6,1.5v5.8
		c0,0.9,0.6,1.1,1.4,1.2v0.5h-4.6v-0.5c0.8-0.1,1.4-0.3,1.4-1.2v-6.2c0-0.8-0.3-1.2-1.2-1.3l-0.2,0v-0.4l2.8-0.8h0.4v2.3
		c1.1-1.6,2.2-2.3,3.4-2.3c1.6,0,3,1.1,3,3.3v5.3C52.1,52.1,52.7,52.3,53.5,52.4z"/>
	<path class="st0" d="M61.3,44.1l-1.5,1.3c-0.4-1.4-1.2-2.1-2.3-2.1c-1.2,0-2,0.6-2,1.6c0,2.6,5.9,1.5,5.9,5.2
		c0,1.7-1.4,3.1-3.7,3.1c-1.7,0-3.3-0.8-4-1.9l1.6-1.2c0.5,1.5,1.4,2.4,2.6,2.4c1.2,0,2.1-0.8,2.1-1.8c0-2.7-5.8-1.9-5.8-5.2
		c0-1.8,1.4-2.9,3.5-2.9C59.9,42.6,60.9,43.5,61.3,44.1z"/>
	<path class="st0" d="M71.8,47.5c0,3.6-2.3,5.6-4.9,5.6c-1.1,0-1.8-0.3-2.3-0.8v2.8c0,0.9,0.6,1.1,1.5,1.2v0.5h-4.6v-0.5
		c0.8-0.1,1.4-0.3,1.4-1.2V45.1c0-0.8-0.3-1.2-1.2-1.3l-0.2,0v-0.4l2.8-0.8h0.4v1.7c0.6-0.8,1.7-1.7,3.1-1.7
		C70.2,42.6,71.8,44.8,71.8,47.5z M70,48.3c0-2.2-0.9-4.5-2.9-4.5c-1,0-2,0.5-2.5,1v4.5c0,1.5,0.8,3.2,2.6,3.2
		C68.8,52.4,70,50.7,70,48.3z"/>
	<path class="st0" d="M77,52.4v0.5h-4.6v-0.5c0.8-0.1,1.4-0.3,1.4-1.2v-6.2c0-0.8-0.3-1.2-1.2-1.3l-0.2,0v-0.4l2.8-0.8h0.4v8.7
		C75.6,52.1,76.2,52.3,77,52.4z M73.5,39.8c0-0.7,0.5-1.2,1.2-1.2c0.7,0,1.2,0.5,1.2,1.2c0,0.7-0.5,1.2-1.2,1.2
		C74,41.1,73.5,40.5,73.5,39.8z"/>
	<path class="st0" d="M84.8,42.6l-0.2,1.9c-0.4-0.2-0.9-0.4-1.4-0.4c-1,0-1.9,0.8-2.5,2.1v5c0,0.8,0.5,1.1,2,1.3v0.5h-5.1v-0.5
		c1.1-0.2,1.4-0.5,1.4-1.3v-6.1c0-0.8-0.3-1.2-1.2-1.3l-0.2,0v-0.4l2.8-0.8h0.4v3c0.7-2,1.7-2.9,2.8-3
		C84.1,42.5,84.5,42.6,84.8,42.6z"/>
	<path class="st0" d="M89.5,52.4v0.5h-4.6v-0.5c0.8-0.1,1.4-0.3,1.4-1.2v-6.2c0-0.8-0.3-1.2-1.2-1.3l-0.2,0v-0.4l2.8-0.8h0.4v8.7
		C88.1,52.1,88.7,52.3,89.5,52.4z M85.9,39.8c0-0.7,0.5-1.2,1.2-1.2c0.7,0,1.2,0.5,1.2,1.2c0,0.7-0.5,1.2-1.2,1.2
		C86.5,41.1,85.9,40.5,85.9,39.8z"/>
	<path class="st0" d="M101,52.4v0.5h-4.5v-0.5c0.8-0.1,1.4-0.3,1.4-1.2v-5.1c0-1.5-0.8-2.2-2-2.2c-0.9,0-1.7,0.4-2.6,1.5v5.8
		c0,0.9,0.6,1.1,1.4,1.2v0.5H90v-0.5c0.8-0.1,1.4-0.3,1.4-1.2v-6.2c0-0.8-0.3-1.2-1.2-1.3l-0.2,0v-0.4l2.8-0.8h0.4v2.3
		c1.1-1.6,2.2-2.3,3.4-2.3c1.6,0,3,1.1,3,3.3v5.3C99.5,52.1,100.2,52.3,101,52.4z"/>
	<path class="st0" d="M110.3,42.6V53c0,2.7-1.4,4.4-4.6,4.4c-2.3,0-3.5-0.9-4-1.6l1.9-1c0.4,0.9,1.1,1.8,2.6,1.8
		c1.6,0,2.4-1.1,2.4-3.1v-2.1c-0.5,0.8-1.6,1.8-3.1,1.8c-2.5,0-4.1-2.2-4.1-5c0-3.6,2.3-5.6,4.9-5.6c1.3,0,2.1,0.5,2.7,1.2l0.7-1.2
		H110.3z M108.5,50.9v-4.5c0-1.3-0.7-3.1-2.6-3.1c-1.6,0-2.7,1.7-2.7,4.2c0,2.2,0.9,4.5,2.9,4.5C107.1,52,108.1,51.5,108.5,50.9z"/>
</g>
<g>
	<path class="st0" d="M15.8,58.5v1.6h2.9v0.7h-2.9v7.6c0,1,0.7,1.1,2,1.3v0.5h-5.1v-0.5c0.8-0.1,1.4-0.3,1.4-1.2v-7.7h-1.7v-0.7H14
		v-1c0-2.7,1.7-4,3.7-4c1.3,0,2.3,0.5,2.7,1l-1.2,1.4c-0.3-0.9-0.9-1.6-1.7-1.6C16.5,55.8,15.8,56.4,15.8,58.5z"/>
	<path class="st0" d="M27.4,64.6h-6.9c0.1,2.7,1.4,4.4,3.5,4.4c1.4,0,2.4-0.8,3-1.7l0.4,0.2c-0.5,1.6-2,3-4.1,3
		c-2.8,0-4.5-2.3-4.5-5c0-3.5,2-5.6,4.8-5.6C26.1,59.8,27.4,62,27.4,64.6z M20.5,63.9h5c-0.1-1.9-0.7-3.3-2.3-3.3
		C21.5,60.6,20.7,61.9,20.5,63.9z"/>
	<path class="st0" d="M35.5,61.4L34,62.6c-0.4-1.4-1.2-2.1-2.3-2.1c-1.2,0-2,0.6-2,1.6c0,2.6,5.9,1.5,5.9,5.2c0,1.7-1.4,3.1-3.7,3.1
		c-1.7,0-3.3-0.8-4-1.9l1.6-1.2c0.5,1.5,1.4,2.4,2.6,2.4c1.2,0,2.1-0.8,2.1-1.8c0-2.7-5.8-1.9-5.8-5.2c0-1.8,1.4-2.9,3.5-2.9
		C34.1,59.8,35.1,60.8,35.5,61.4z"/>
	<path class="st0" d="M42.5,69.2c-0.6,0.5-1.4,1.2-2.5,1.2c-1.6,0-2.5-0.9-2.5-3v-6.7h-1.7v-0.7h1.7v-2l1.7-0.8v2.8h3.1v0.7h-3.1
		v6.7c0,1.4,0.7,1.9,1.7,1.9c0.6,0,1-0.2,1.5-0.5L42.5,69.2z"/>
	<path class="st0" d="M47.3,69.7v0.5h-4.6v-0.5c0.8-0.1,1.4-0.3,1.4-1.2v-6.2c0-0.8-0.3-1.2-1.2-1.3l-0.2,0v-0.4l2.8-0.8h0.4v8.7
		C45.9,69.3,46.5,69.5,47.3,69.7z M43.8,57.1c0-0.7,0.5-1.2,1.2-1.2s1.2,0.5,1.2,1.2s-0.5,1.2-1.2,1.2S43.8,57.8,43.8,57.1z"/>
	<path class="st0" d="M57.6,60.6c-0.7,0.1-1,0.4-1.2,0.9l-3.8,9h-0.5l-3.9-9c-0.2-0.5-0.5-0.7-1.2-0.8v-0.5h4.6v0.5
		c-1.3,0.2-1.6,0.5-1.3,1.3l2.6,6.1l2.5-6.1c0.4-0.9,0-1.1-1.3-1.3v-0.5h3.5V60.6z"/>
	<path class="st0" d="M66.7,69.1v0.5l-2.8,0.8h-0.4v-2.2c-0.7,1.5-1.9,2.2-3.3,2.2c-1.4,0-2.7-0.9-2.7-2.6c0-1.9,1.5-2.8,4.7-3.5
		l1.3-0.3v-0.3c0-1.9-0.9-3.1-2.4-3.1c-1.2,0-1.9,0.8-1.9,1.8c0,0.4,0.1,0.7,0.3,1.1L57.9,64c-0.3-0.4-0.4-0.8-0.4-1.2
		c0-1.6,1.9-3,4.1-3c2.3,0,3.6,1.5,3.6,3.9v4.1c0,0.8,0.2,1.3,1.3,1.3H66.7z M63.5,67.5v-2.8L62.3,65c-2.2,0.5-2.9,1.2-2.9,2.5
		c0,1.1,0.8,1.6,1.7,1.6C62,69.2,62.9,68.7,63.5,67.5z"/>
	<path class="st0" d="M70.1,68.5c0,0.9,0.6,1.1,1.4,1.2v0.5h-4.6v-0.5c0.8-0.1,1.4-0.3,1.4-1.2v-10c0-0.8-0.3-1.2-1.2-1.3l-0.2,0
		v-0.4l2.8-0.8h0.4V68.5z"/>
	<path class="st0" d="M74.9,65.3c0-3.3,2.2-5.5,4.8-5.5c2.8,0,4.7,2.2,4.7,5.1c0,3.3-2.2,5.5-4.8,5.5C76.7,70.4,74.9,68.3,74.9,65.3
		z M82.5,65.6c0-2.1-0.9-5-3.1-5c-1.6,0-2.7,1.6-2.7,4c0,2.1,0.9,5,3.1,5C81.5,69.6,82.5,67.9,82.5,65.6z"/>
	<path class="st0" d="M95.6,69.1v0.5l-2.8,0.8h-0.4v-2.3c-1.1,1.6-2.2,2.3-3.3,2.3c-1.7,0-3-1.1-3-3.3v-4.8c0-0.8-0.3-1.2-1.2-1.3
		l-0.2,0v-0.4l2.8-0.8h0.4v7.1c0,1.5,0.8,2.2,2,2.2c0.9,0,1.7-0.4,2.6-1.5v-5.3c0-0.8-0.3-1.2-1.2-1.3l-0.2,0v-0.4l2.8-0.8h0.4v8
		c0,0.8,0.3,1.3,1.2,1.3H95.6z"/>
	<path class="st0" d="M102.2,69.2c-0.6,0.5-1.4,1.2-2.5,1.2c-1.6,0-2.5-0.9-2.5-3v-6.7h-1.7v-0.7h1.7v-2l1.7-0.8v2.8h3.1v0.7h-3.1
		v6.7c0,1.4,0.7,1.9,1.7,1.9c0.6,0,1-0.2,1.5-0.5L102.2,69.2z"/>
</g>
<g>
	<path class="st0" d="M38.9,86.5c-0.6,0.5-1.4,1.2-2.5,1.2c-1.6,0-2.5-0.9-2.5-3v-6.7h-1.7v-0.7h1.7v-2l1.7-0.8v2.8h3.1v0.7h-3.1
		v6.7c0,1.4,0.7,1.9,1.7,1.9c0.6,0,1-0.2,1.5-0.5L38.9,86.5z"/>
	<path class="st0" d="M49.9,86.9v0.5h-4.5v-0.5c0.8-0.1,1.4-0.3,1.4-1.2v-5.1c0-1.5-0.8-2.2-2-2.2c-0.9,0-1.7,0.4-2.6,1.5v5.8
		c0,0.9,0.6,1.1,1.4,1.2v0.5H39v-0.5c0.8-0.1,1.4-0.3,1.4-1.2V75.6c0-0.7-0.3-1-1.1-1.1l-0.3,0V74l2.8-0.8h0.4v6.1
		c1.1-1.6,2.2-2.3,3.4-2.3c1.6,0,3,1.1,3,3.3v5.3C48.5,86.6,49.1,86.8,49.9,86.9z"/>
	<path class="st0" d="M58.7,81.9h-6.9c0.1,2.7,1.4,4.4,3.5,4.4c1.4,0,2.4-0.8,3-1.7l0.4,0.2c-0.5,1.6-2,3-4.1,3
		c-2.8,0-4.5-2.3-4.5-5c0-3.5,2-5.6,4.8-5.6C57.4,77.1,58.7,79.3,58.7,81.9z M51.8,81.1h5c-0.1-1.9-0.7-3.3-2.3-3.3
		C52.8,77.8,52,79.2,51.8,81.1z"/>
	<path class="st0" d="M66.4,77.2L66.2,79c-0.4-0.2-0.9-0.4-1.4-0.4c-1,0-1.9,0.8-2.5,2.1v5c0,0.8,0.5,1.1,2,1.3v0.5h-5.1v-0.5
		c1.1-0.2,1.4-0.5,1.4-1.3v-6.1c0-0.8-0.3-1.2-1.2-1.3l-0.2,0v-0.4l2.8-0.8h0.4v3c0.7-2,1.7-2.9,2.8-3C65.7,77,66.1,77.1,66.4,77.2z
		"/>
	<path class="st0" d="M75.1,81.9h-6.9c0.1,2.7,1.4,4.4,3.5,4.4c1.4,0,2.4-0.8,3-1.7l0.4,0.2c-0.5,1.6-2,3-4.1,3
		c-2.8,0-4.5-2.3-4.5-5c0-3.5,2-5.6,4.8-5.6C73.8,77.1,75.1,79.3,75.1,81.9z M68.2,81.1h5c-0.1-1.9-0.7-3.3-2.3-3.3
		C69.2,77.8,68.4,79.2,68.2,81.1z"/>
	<path class="st0" d="M78.2,73.8c0,1.8-1.1,3.1-2.9,3.3v-0.5c0.9-0.2,1.8-1,1.9-2.1c-1.1,0.4-1.9-0.3-1.9-1.1c0-0.8,0.6-1.4,1.3-1.4
		C77.5,72.1,78.2,72.8,78.2,73.8z M81.9,73.8c0,1.8-1.1,3.1-2.9,3.3v-0.5c0.9-0.2,1.8-1,1.9-2.1c-1.1,0.4-1.9-0.3-1.9-1.1
		c0-0.8,0.6-1.4,1.3-1.4C81.3,72.1,81.9,72.8,81.9,73.8z"/>
</g>
</svg>
