<?xml version="1.0" encoding="utf-8"?>
<!-- Generator: Adobe Illustrator 24.3.0, SVG Export Plug-In . SVG Version: 6.00 Build 0)  -->
<svg version="1.1" id="Laag_1" xmlns="http://www.w3.org/2000/svg" xmlns:xlink="http://www.w3.org/1999/xlink" x="0px" y="0px"
	 width="138.6px" height="86.7px" viewBox="0 0 138.6 86.7" style="enable-background:new 0 0 138.6 86.7;" xml:space="preserve">
<style type="text/css">
	.st0{fill:#EBEEE2;}
</style>
<g>
	<path class="st0" d="M18.7,36.7c-5.1,0-9.3-1.7-12.7-5.2c-3.4-3.4-5.1-7.7-5.1-12.8c0-5.1,1.7-9.4,5-12.8c3.3-3.4,7.6-5.2,12.7-5.2
		c5.1,0,9.3,1.7,12.6,5.2c3.4,3.4,5.1,7.7,5.1,12.8c0,5.1-1.7,9.4-5.1,12.8C27.9,34.9,23.7,36.7,18.7,36.7z M18.7,30.1
		c3,0,5.6-1.1,7.6-3.3c2-2.2,3-4.9,3-8.2c0-3.3-1-6-3-8.2c-2-2.2-4.5-3.3-7.6-3.3c-3,0-5.6,1.1-7.6,3.3c-2,2.2-3,4.9-3,8.2
		c0,3.3,1,6,3,8.2C13.1,29,15.6,30.1,18.7,30.1z"/>
	<path class="st0" d="M54.4,10.7h1.8v6.5c-0.9-0.2-1.8-0.3-2.6-0.3c-2,0-3.7,0.7-5,2c-1.3,1.4-2,3.5-2,6.2v11h-6.8v-25h5.3l0.9,3.5
		h0.5C48.5,12,51.1,10.7,54.4,10.7z"/>
	<path class="st0" d="M82.9,1.2c5.4,0,9.7,1.5,12.9,4.6c3.2,3.1,4.7,7.3,4.7,12.8c0,5.6-1.6,9.9-4.7,13c-3.1,3.1-7.4,4.6-12.9,4.6
		H71.4v-35H82.9z M82.9,29.8c3.2,0,5.8-1,7.8-3.1s2.9-4.8,2.9-8.4c0-3.4-1-6-2.9-8c-1.9-1.9-4.5-2.9-7.8-2.9h-4.6v22.3H82.9z"/>
	<path class="st0" d="M107.5,8.2c-1.1,0-2.1-0.4-2.9-1.2c-0.8-0.8-1.2-1.8-1.2-2.8c0-1.2,0.4-2.1,1.2-2.9c0.8-0.8,1.8-1.2,2.9-1.2
		c1.1,0,2.1,0.4,2.9,1.2c0.8,0.8,1.2,1.8,1.2,2.9c0,1.1-0.4,2-1.2,2.8S108.6,8.2,107.5,8.2z M110.7,11.2v25h-6.5v-25H110.7z"/>
	<path class="st0" d="M132.4,28.2h6.1c-0.6,2.6-1.9,4.7-4.1,6.2c-2.2,1.5-4.7,2.2-7.7,2.2c-3.9,0-7-1.2-9.3-3.6
		c-2.3-2.4-3.5-5.6-3.5-9.5c0-3.8,1.2-6.9,3.5-9.3c2.4-2.4,5.3-3.6,8.8-3.6c1.7,0,3.3,0.3,4.8,0.8s2.8,1.4,4,2.5
		c1.2,1.1,2.1,2.7,2.7,4.6c0.6,2,0.8,4.2,0.6,6.8h-18.2c0.6,4,2.8,6,6.7,6c1.2,0,2.3-0.3,3.3-0.8S132,29.2,132.4,28.2z M126.7,15.8
		c-1.6,0-2.9,0.4-4,1.3c-1.1,0.9-1.8,2.1-2.2,3.6h11.9c-0.1-1.3-0.6-2.5-1.7-3.5C129.7,16.2,128.4,15.8,126.7,15.8z"/>
	<path class="st0" d="M26,41.2v6.2h-9.7v28.8H9.6V47.4H0v-6.2H26z"/>
	<path class="st0" d="M41.2,50.7H43v6.5c-0.9-0.2-1.8-0.3-2.6-0.3c-2,0-3.7,0.7-5,2c-1.3,1.4-2,3.5-2,6.2v11h-6.8v-25H32l0.9,3.5
		h0.5C35.3,52,37.9,50.7,41.2,50.7z"/>
	<path class="st0" d="M64.4,51.2h6.7l-8.9,27c-0.9,2.7-2.1,4.8-3.7,6.3c-1.6,1.5-3.8,2.2-6.6,2.2c-2.9,0-5.1-0.8-6.6-2.3l2.6-4.6
		c1.1,1,2.3,1.5,3.6,1.5c0.9,0,1.8-0.3,2.6-1c0.8-0.7,1.3-1.5,1.7-2.6l0.5-1.5h-2.5l-9.7-25h7l6.9,18.4h0.5L64.4,51.2z"/>
	<path class="st0" d="M77,48.2c-1.1,0-2.1-0.4-2.9-1.2c-0.8-0.8-1.2-1.8-1.2-2.8c0-1.2,0.4-2.1,1.2-2.9c0.8-0.8,1.8-1.2,2.9-1.2
		c1.1,0,2.1,0.4,2.9,1.2c0.8,0.8,1.2,1.8,1.2,2.9c0,1.1-0.4,2-1.2,2.8C79,47.8,78.1,48.2,77,48.2z M80.2,51.2v25h-6.5v-25H80.2z"/>
	<path class="st0" d="M99,50.7c2.9,0,5.2,1,7,3c1.8,2,2.7,4.8,2.7,8.4v14.2H102v-13c0-2.1-0.5-3.8-1.5-4.9c-1-1.1-2.3-1.6-3.9-1.6
		c-1.5,0-2.7,0.5-3.7,1.6c-1,1.1-1.5,2.7-1.5,4.8v13.2h-6.8v-25h5.3l0.9,3h0.5c0.5-0.7,1-1.2,1.5-1.6c0.5-0.4,1.3-0.8,2.4-1.3
		C96.3,50.9,97.6,50.7,99,50.7z"/>
	<path class="st0" d="M135.8,52.7c-0.7,0.9-2,1.7-3.9,2.4c0.8,1.4,1.2,2.8,1.2,4.5c0,2.5-1,4.4-3,5.9c-2,1.5-4.5,2.2-7.5,2.2
		c-1.2,0-2.3-0.1-3.3-0.3c-1.1,0.4-1.7,0.9-1.7,1.5c0,1.2,1.2,1.8,3.7,1.8h4c3.1,0,5.4,0.7,6.9,2c1.5,1.3,2.3,3.2,2.3,5.5
		c0,2.6-1,4.6-3.1,6.2c-2.1,1.5-4.9,2.3-8.5,2.3c-3.7,0-6.6-0.9-8.6-2.6c-2.1-1.7-3.1-3.8-3.1-6.3l3.5-3c-1.8-0.9-2.8-2.3-2.8-4.2
		c0-2.2,1.2-3.8,3.7-5c-2.2-1.6-3.3-3.7-3.3-6.3c0-2.5,0.9-4.6,2.8-6.2c1.8-1.6,4.3-2.5,7.3-2.5c2.4,0,4.6,0.5,6.5,1.6
		c1.3-0.8,2.7-1.9,4-3.4L135.8,52.7z M128.2,78.5c0-1.9-1.4-2.9-4.1-2.9h-3.7l-3,2.4c0.5,2.4,2.5,3.6,5.8,3.6c1.5,0,2.8-0.3,3.7-0.8
		S128.2,79.5,128.2,78.5z M119.7,61.9c0.8,0.8,1.8,1.1,3.1,1.1c1.3,0,2.3-0.4,3-1.1c0.8-0.8,1.1-1.7,1.1-2.8c0-1.1-0.4-2.1-1.1-2.8
		c-0.8-0.8-1.8-1.2-3-1.2c-1.3,0-2.3,0.4-3.1,1.1s-1.1,1.7-1.1,2.9C118.5,60.2,118.9,61.2,119.7,61.9z"/>
</g>
</svg>
