<?xml version="1.0" encoding="utf-8"?>
<!-- Generator: Adobe Illustrator 24.3.0, SVG Export Plug-In . SVG Version: 6.00 Build 0)  -->
<svg version="1.1" id="Laag_1" xmlns:v="https://vecta.io/nano"
	 xmlns="http://www.w3.org/2000/svg" xmlns:xlink="http://www.w3.org/1999/xlink" x="0px" y="0px" width="297.8px" height="90.4px"
	 viewBox="0 0 297.8 90.4" style="enable-background:new 0 0 297.8 90.4;" xml:space="preserve">
<style type="text/css">
	.st0{fill:#6A3F24;}
</style>
<g>
	<path class="st0" d="M24.6,33.9l-2.7-7.3H10l-2.7,7.3H0L12.5,0h7.4l12.4,33.9H24.6z M12.5,19.9h7l-3.1-8.5
		c-0.1-0.2-0.1-0.3-0.1-0.5v-0.4c0-0.2-0.1-0.2-0.2-0.2h0L12.5,19.9z"/>
	<path class="st0" d="M72.1,0h7.2v33.9h-7.6L56.5,10.6h-0.1c-0.1,0-0.1,0-0.2,0.1s-0.1,0.1,0,0.2c0.3,1,0.5,2,0.5,2.9v20h-7.1V0h7.6
		l15.1,23.2h0.1c0.1,0,0.1,0,0.2-0.1s0.1-0.1,0-0.2c-0.3-1-0.5-2-0.5-2.9V0z"/>
	<path class="st0" d="M108,27.4c0.3,0.3,0.5,0.9,0.5,1.7v4.9h-0.7c-3,0-5.1-1-6.4-2.9c-2.1,2.2-5.1,3.3-9,3.3c-2.5,0-4.5-0.7-6-2
		s-2.2-3.2-2.2-5.5c0-2.2,0.7-4,2.1-5.5s3.6-2.4,6.5-2.8c3.7-0.4,6.1-1,7.4-1.7v-0.1c0-0.8-0.4-1.5-1.2-2s-1.7-0.8-2.9-0.8
		c-0.6,0-1.2,0-1.7,0.1s-1,0.2-1.5,0.4s-0.8,0.3-1,0.4s-0.5,0.3-1,0.6s-0.7,0.4-0.7,0.4c-0.6,0.3-1.1,0.4-1.7,0.3s-1-0.4-1.3-0.8
		l-2.1-2.9c0.3-0.4,0.8-0.9,1.3-1.3s1.3-0.9,2.2-1.4s1.9-0.9,3.1-1.3s2.5-0.5,3.8-0.5c3.7,0,6.6,0.9,8.5,2.6s2.9,4.3,2.9,7.7v7.2
		C107,26.3,107.4,27,108,27.4L108,27.4z M93.4,28.6c0.7,0,1.4,0,2-0.1s1.2-0.3,1.8-0.5s1.2-0.6,1.6-1s0.8-1,1.1-1.7s0.4-1.5,0.4-2.4
		v-0.7c-1.3,1.1-3.3,1.6-5.9,1.7c-1.2,0.1-2.1,0.4-2.7,0.8s-0.9,1-0.9,1.8c0,0.7,0.2,1.2,0.7,1.6S92.5,28.6,93.4,28.6z"/>
	<path class="st0" d="M128.5,14.5h-7.4v10.3c0,0.8,0.2,1.5,0.8,2.1s1.2,0.8,2,0.8h2.9c0.5,0,1,0.2,1.3,0.5s0.5,0.8,0.5,1.3V34h-5.2
		c-2.8,0-5-0.8-6.6-2.4s-2.4-3.9-2.4-6.8V14.5h-2.2c-0.5,0-1-0.2-1.3-0.5s-0.5-0.8-0.5-1.3V8.5h4V0h6.9v8.5h7.4V14.5z"/>
	<path class="st0" d="M155.7,27.4c0.3,0.3,0.5,0.9,0.5,1.7v4.9h-0.7c-3,0-5.1-1-6.4-2.9c-2.1,2.2-5.1,3.3-9,3.3c-2.5,0-4.5-0.7-6-2
		s-2.2-3.2-2.2-5.5c0-2.2,0.7-4,2.1-5.5s3.6-2.4,6.5-2.8c3.7-0.4,6.1-1,7.4-1.7v-0.1c0-0.8-0.4-1.5-1.2-2s-1.7-0.8-2.9-0.8
		c-0.6,0-1.2,0-1.7,0.1s-1,0.2-1.5,0.4s-0.8,0.3-1,0.4s-0.5,0.3-1,0.6s-0.7,0.4-0.7,0.4c-0.6,0.3-1.1,0.4-1.7,0.3s-1-0.4-1.3-0.8
		l-2.1-2.9c0.3-0.4,0.8-0.9,1.3-1.3s1.3-0.9,2.2-1.4s1.9-0.9,3.1-1.3s2.5-0.5,3.8-0.5c3.7,0,6.6,0.9,8.5,2.6s2.9,4.3,2.9,7.7v7.2
		C154.7,26.3,155,27,155.7,27.4L155.7,27.4z M141,28.6c0.7,0,1.4,0,2-0.1s1.2-0.3,1.8-0.5s1.2-0.6,1.6-1s0.8-1,1.1-1.7
		s0.4-1.5,0.4-2.4v-0.7c-1.3,1.1-3.3,1.6-5.9,1.7c-1.2,0.1-2.1,0.4-2.7,0.8s-0.9,1-0.9,1.8c0,0.7,0.2,1.2,0.7,1.6
		S140.2,28.6,141,28.6z"/>
	<path class="st0" d="M169.2,34c-2.6,0-4.7-0.7-6.2-2.2s-2.2-3.5-2.2-6.2V0h6.9v25.6c0,0.6,0.2,1.1,0.6,1.5s0.9,0.6,1.5,0.6h1.3
		c0.5,0,0.9,0.2,1.3,0.5s0.5,0.8,0.5,1.3V34H169.2z"/>
	<path class="st0" d="M188.1,7.9c3.8,0,7,1.3,9.3,3.8s3.6,5.8,3.6,9.9v1.1c0,0.2-0.1,0.5-0.3,0.7s-0.4,0.3-0.7,0.3h-17.8
		c0.4,1.4,1.1,2.6,2.1,3.4s2.2,1.3,3.8,1.3c1.1,0,2.1-0.3,2.9-0.8s1.4-1.2,1.8-1.9c0.3-0.5,0.8-0.6,1.3-0.4l5.7,2
		c-0.9,2.2-2.3,4-4.3,5.2s-4.5,1.9-7.5,1.9c-3.9,0-7-1.2-9.4-3.6s-3.6-5.6-3.6-9.5c0-4,1.2-7.2,3.6-9.7S184.2,7.9,188.1,7.9z
		 M188.1,13.9c-1.4,0-2.6,0.4-3.5,1.1s-1.7,1.8-2.1,3.1h11.2c-0.5-1.3-1.2-2.3-2.1-3.1S189.4,13.9,188.1,13.9z"/>
	<path class="st0" d="M17.4,56c3.5,0,6.3,1.2,8.3,3.6s3.1,5.6,3.1,9.6c0,4.2-1,7.4-3.1,9.7s-5,3.5-8.8,3.5c-2.7,0-5-0.8-6.7-2.2
		v10.2H3.3V56.5h5.2c0.3,0,0.5,0.1,0.7,0.3s0.3,0.4,0.3,0.7v2.2C11.5,57.2,14.2,56,17.4,56z M16.1,76.4c1.8,0,3.2-0.7,4.3-2
		s1.6-3.1,1.6-5.2s-0.5-3.9-1.5-5.2s-2.4-2-4.3-2s-3.3,0.6-4.3,1.8s-1.6,2.9-1.7,5v0.5c0,2.2,0.5,3.9,1.6,5.2S14.2,76.4,16.1,76.4z"
		/>
	<path class="st0" d="M49.2,56.5H56v25.4h-5.2c-0.3,0-0.5-0.1-0.7-0.3s-0.3-0.4-0.3-0.7v-1.9c-1.8,2.2-4.1,3.3-6.8,3.3
		c-3.3,0-5.8-0.9-7.5-2.6S33,75.3,33,71.8V56.5h6.9v14.2c0,1.9,0.3,3.4,0.9,4.3s1.8,1.4,3.4,1.4c1.6,0,2.8-0.5,3.7-1.5
		s1.3-2.4,1.3-4.2V56.5z"/>
	<path class="st0" d="M82.8,78.9c-2.3,2.4-5.4,3.6-9.3,3.6s-7-1.2-9.3-3.6s-3.5-5.6-3.5-9.7s1.2-7.3,3.5-9.7s5.4-3.6,9.3-3.6
		s7,1.2,9.3,3.6s3.5,5.6,3.5,9.7C86.3,73.2,85.1,76.5,82.8,78.9z M69.2,74.4c1,1.3,2.5,2,4.3,2s3.3-0.7,4.3-2s1.5-3.1,1.5-5.2
		s-0.5-3.9-1.5-5.2s-2.5-2-4.3-2s-3.3,0.7-4.3,2s-1.5,3.1-1.5,5.2S68.2,73.1,69.2,74.4z"/>
	<path class="st0" d="M94.2,53.8c-1.1,0-2-0.3-2.7-1s-1-1.6-1-2.7c0-1.1,0.3-2,1-2.7s1.6-1.1,2.7-1.1c1.1,0,2,0.4,2.7,1.1
		S98,49,98,50.1c0,1.1-0.4,2-1.1,2.7S95.3,53.8,94.2,53.8z M90.8,81.9V56.5h6.9v25.4H90.8z"/>
	<path class="st0" d="M106.1,82.5c-1.1,0-2-0.4-2.7-1.1s-1.1-1.6-1.1-2.7c0-1.1,0.4-2,1.1-2.7s1.6-1,2.7-1c1.1,0,2,0.3,2.7,1
		s1,1.6,1,2.7c0,1.1-0.3,2-1,2.7S107.2,82.5,106.1,82.5z M116.4,82.5c-1.1,0-2-0.4-2.7-1.1s-1.1-1.6-1.1-2.7c0-1.1,0.4-2,1.1-2.7
		s1.6-1,2.7-1c1.1,0,2,0.3,2.7,1s1,1.6,1,2.7c0,1.1-0.3,2-1,2.7S117.5,82.5,116.4,82.5z M126.6,82.5c-1.1,0-2-0.4-2.7-1.1
		s-1.1-1.6-1.1-2.7c0-1.1,0.4-2,1.1-2.7s1.6-1,2.7-1c1.1,0,2,0.3,2.7,1s1.1,1.6,1.1,2.7c0,1.1-0.4,2-1.1,2.7S127.7,82.5,126.6,82.5z
		"/>
</g>
</svg>
