<?xml version="1.0" encoding="utf-8"?>
<!-- Generator: Adobe Illustrator 24.3.0, SVG Export Plug-In . SVG Version: 6.00 Build 0)  -->
<svg version="1.1" id="Laag_1" xmlns="http://www.w3.org/2000/svg" xmlns:xlink="http://www.w3.org/1999/xlink" x="0px" y="0px"
	 width="138.2px" height="54.2px" viewBox="0 0 138.2 54.2" style="enable-background:new 0 0 138.2 54.2;" xml:space="preserve">
<style type="text/css">
	.st0{fill:#EBEEE2;}
	.st1{fill:none;stroke:#EBEEE2;stroke-width:0.8297;stroke-miterlimit:10;}
</style>
<g>
	<g>
		<g>
			<path class="st0" d="M13.8,25.9h1.5l-2.1,8.7h-2l-1.7-6.5H9.4l-1.7,6.5h-2l-2.1-8.7h1.5l1.6,7.1h0.1l1.7-6.5h1.8l1.8,6.5h0.1
				L13.8,25.9z"/>
			<path class="st0" d="M20.1,34.8c-1.3,0-2.3-0.4-3.2-1.3c-0.8-0.9-1.3-1.9-1.3-3.3c0-1.3,0.4-2.4,1.2-3.2c0.8-0.9,1.9-1.3,3.2-1.3
				c1.3,0,2.3,0.4,3.2,1.3c0.8,0.9,1.3,1.9,1.3,3.2c0,1.3-0.4,2.4-1.2,3.3C22.5,34.4,21.4,34.8,20.1,34.8z M20.1,33.5
				c0.8,0,1.5-0.3,2.1-0.9c0.5-0.6,0.8-1.4,0.8-2.2c0-0.9-0.3-1.6-0.8-2.2c-0.5-0.6-1.2-0.9-2.1-0.9c-0.8,0-1.5,0.3-2,0.9
				c-0.5,0.6-0.8,1.4-0.8,2.2c0,0.9,0.3,1.6,0.8,2.2C18.6,33.1,19.3,33.5,20.1,33.5z"/>
			<path class="st0" d="M33.8,27.6c0.8,0,1.6,0.3,2.3,1c0.7,0.6,1,1.5,1,2.6c0,1.1-0.4,1.9-1.1,2.6c-0.7,0.7-1.6,1-2.7,1
				c-1.1,0-2.1-0.3-2.8-1s-1-1.6-1-2.8c0-0.6,0.1-1.2,0.4-1.8c0.2-0.6,0.6-1.2,1.1-2l2.4-3.8h1.9L32.2,28
				C32.6,27.8,33.1,27.6,33.8,27.6z M33.4,33.5c0.7,0,1.2-0.2,1.6-0.7c0.4-0.5,0.6-1,0.6-1.7c0-0.7-0.2-1.2-0.6-1.6
				c-0.4-0.4-0.9-0.7-1.6-0.7c-0.7,0-1.2,0.2-1.6,0.7c-0.4,0.4-0.6,1-0.6,1.6c0,0.7,0.2,1.2,0.6,1.7C32.2,33.3,32.7,33.5,33.4,33.5z
				"/>
			<path class="st0" d="M8.3,49.6c-1.3,0-2.3-0.4-3.2-1.3c-0.8-0.9-1.3-1.9-1.3-3.3c0-1.3,0.4-2.4,1.2-3.2C6,40.9,7,40.5,8.3,40.5
				c1.3,0,2.3,0.4,3.2,1.3c0.8,0.9,1.3,1.9,1.3,3.2c0,1.3-0.4,2.4-1.2,3.3C10.6,49.2,9.6,49.6,8.3,49.6z M8.3,48.2
				c0.8,0,1.5-0.3,2.1-0.9c0.5-0.6,0.8-1.4,0.8-2.2c0-0.9-0.3-1.6-0.8-2.2c-0.5-0.6-1.2-0.9-2.1-0.9c-0.8,0-1.5,0.3-2,0.9
				c-0.5,0.6-0.8,1.4-0.8,2.2c0,0.9,0.3,1.6,0.8,2.2C6.8,47.9,7.4,48.2,8.3,48.2z"/>
			<path class="st0" d="M21.1,40.7l-3.5,3.7l3.5,5.1h-1.8l-2.8-4l-1.2,1.3v2.7h-1.5V37h1.5v7.5h0.2l3.7-3.9H21.1z"/>
			<path class="st0" d="M27,49.2c-0.4,0.3-0.9,0.4-1.4,0.4c-1.4,0-2.1-0.8-2.1-2.3V42h-1.7v-1.1h0.5c0.9,0,1.3-0.4,1.3-1.2v-1.1H25
				v2.2h2.1V42H25v5.1c0,0.7,0.3,1.1,0.9,1.1c0.3,0,0.5-0.1,0.8-0.2L27,49.2z"/>
		</g>
		<g>
			<path class="st0" d="M109.5,33.6h4v1.2h-5.9v-0.9l4-5.7v-0.1h-3.8v-1.2h5.6v0.9L109.5,33.6L109.5,33.6z"/>
			<path class="st0" d="M117.8,34.9c-1.2,0-2.1-0.4-2.9-1.2c-0.8-0.8-1.1-1.8-1.1-2.9c0-1.2,0.4-2.1,1.1-2.9s1.7-1.2,2.9-1.2
				s2.1,0.4,2.9,1.2c0.8,0.8,1.1,1.7,1.1,2.9c0,1.2-0.4,2.2-1.1,2.9C119.9,34.5,118.9,34.9,117.8,34.9z M117.8,33.7
				c0.8,0,1.4-0.3,1.9-0.8s0.7-1.2,0.7-2c0-0.8-0.2-1.5-0.7-2c-0.5-0.6-1.1-0.8-1.9-0.8c-0.8,0-1.4,0.3-1.8,0.8
				c-0.5,0.6-0.7,1.2-0.7,2c0,0.8,0.2,1.5,0.7,2S117,33.7,117.8,33.7z"/>
			<path class="st0" d="M127.9,34.7v-7.3h-2v-1.1h0.9c0.8,0,1.2-0.4,1.2-1.1v-0.5h1.3v10.1H127.9z"/>
			<path class="st0" d="M138.2,31.3v1.2h-1.8v2.2h-1.4v-2.2h-4.6v-0.9l4.2-6.9h1.7v6.6H138.2z M132,31.3h3v-4.9h-0.1L132,31.3z"/>
			<path class="st0" d="M118.8,41.5c0.8,0,1.5,0.3,2.1,0.9s0.8,1.4,0.8,2.5v4.7h-1.4v-4.4c0-0.8-0.2-1.3-0.5-1.7
				c-0.4-0.4-0.8-0.6-1.4-0.6c-0.5,0-1,0.2-1.4,0.6c-0.4,0.4-0.6,0.9-0.6,1.7v4.5H115v-7.9h1.1l0.2,1h0.1
				C116.9,41.9,117.7,41.5,118.8,41.5z"/>
			<path class="st0" d="M126.6,49.7c-1.2,0-2.1-0.4-2.9-1.2c-0.8-0.8-1.1-1.8-1.1-2.9c0-1.2,0.4-2.1,1.1-2.9s1.7-1.2,2.9-1.2
				s2.1,0.4,2.9,1.2c0.8,0.8,1.1,1.7,1.1,2.9c0,1.2-0.4,2.2-1.1,2.9C128.8,49.3,127.8,49.7,126.6,49.7z M126.6,48.4
				c0.8,0,1.4-0.3,1.9-0.8s0.7-1.2,0.7-2c0-0.8-0.2-1.5-0.7-2c-0.5-0.6-1.1-0.8-1.9-0.8c-0.8,0-1.4,0.3-1.8,0.8
				c-0.5,0.6-0.7,1.2-0.7,2c0,0.8,0.2,1.5,0.7,2S125.9,48.4,126.6,48.4z"/>
			<path class="st0" d="M136.8,41.6h1.5l-2.8,7.9h-2l-2.8-7.9h1.5l2.3,6.6h0.1L136.8,41.6z"/>
		</g>
		<rect x="48.7" y="35.9" class="st0" width="50.4" height="0.8"/>
	</g>
	<g>
		<g>
			<g>
				<path class="st0" d="M16.4,9.5c-1.1,0-2.1-0.4-2.8-1.2c-0.7-0.8-1.1-1.8-1.1-2.9c0-1.2,0.4-2.1,1.1-2.9c0.8-0.8,1.7-1.2,2.8-1.2
					s2.1,0.4,2.8,1.2c0.8,0.8,1.1,1.8,1.1,2.9c0,1.2-0.4,2.1-1.1,2.9C18.5,9.1,17.6,9.5,16.4,9.5z M16.4,8.4c0.8,0,1.5-0.3,2-0.9
					C19,7,19.3,6.2,19.3,5.4c0-0.9-0.3-1.6-0.8-2.2c-0.5-0.6-1.2-0.9-2-0.9c-0.8,0-1.5,0.3-2,0.9c-0.5,0.6-0.8,1.3-0.8,2.2
					c0,0.9,0.3,1.6,0.8,2.2C15,8.1,15.6,8.4,16.4,8.4z"/>
				<path class="st0" d="M24.9,1.4c0.8,0,1.4,0.2,1.9,0.7c0.5,0.4,0.7,1,0.7,1.7c0,0.8-0.2,1.4-0.7,1.8c-0.5,0.4-1.1,0.7-1.9,0.7H23
					v3.1h-1V1.4H24.9z M24.7,5.3c0.5,0,0.9-0.1,1.2-0.4c0.3-0.3,0.4-0.6,0.4-1.1c0-0.5-0.1-0.8-0.4-1.1s-0.7-0.4-1.2-0.4H23v3H24.7z
					"/>
				<path class="st0" d="M37.1,1.4v1h-2.3v7h-1v-7h-2.3v-1H37.1z"/>
				<path class="st0" d="M41.6,9.5c-1.1,0-2.1-0.4-2.8-1.2c-0.7-0.8-1.1-1.8-1.1-2.9c0-1.2,0.4-2.1,1.1-2.9c0.8-0.8,1.7-1.2,2.8-1.2
					s2.1,0.4,2.8,1.2c0.8,0.8,1.1,1.8,1.1,2.9c0,1.2-0.4,2.1-1.1,2.9C43.7,9.1,42.7,9.5,41.6,9.5z M41.6,8.4c0.8,0,1.5-0.3,2-0.9
					c0.5-0.6,0.8-1.3,0.8-2.2c0-0.9-0.3-1.6-0.8-2.2c-0.5-0.6-1.2-0.9-2-0.9c-0.8,0-1.5,0.3-2,0.9c-0.5,0.6-0.8,1.3-0.8,2.2
					c0,0.9,0.3,1.6,0.8,2.2C40.1,8.1,40.8,8.4,41.6,8.4z"/>
				<path class="st0" d="M53.3,1.4v4.8c0,1-0.3,1.8-0.9,2.4c-0.6,0.6-1.3,0.8-2.2,0.8c-0.9,0-1.7-0.3-2.2-0.8
					c-0.6-0.6-0.9-1.4-0.9-2.4V1.4h1.1v4.8c0,0.7,0.2,1.3,0.6,1.7c0.4,0.4,0.9,0.6,1.5,0.6c0.6,0,1.1-0.2,1.4-0.6
					c0.4-0.4,0.6-0.9,0.6-1.7V1.4H53.3z"/>
				<path class="st0" d="M60.9,9.3h-1.2l-1.9-3.2h0h-1.5v3.2h-1V1.4h2.7c0.8,0,1.4,0.2,1.9,0.6c0.5,0.4,0.7,1,0.7,1.7
					c0,0.5-0.1,1-0.4,1.4s-0.7,0.7-1.2,0.8L60.9,9.3z M56.3,2.4v2.8h1.5c0.5,0,0.9-0.1,1.2-0.4c0.3-0.3,0.4-0.6,0.4-1
					c0-0.4-0.1-0.8-0.4-1c-0.3-0.2-0.7-0.4-1.2-0.4H56.3z"/>
				<path class="st0" d="M67.5,1.4h1v7.9h-1.1l-4.2-6.2h-0.1v6.2h-1V1.4h1.2l4.1,6.1h0.1V1.4z"/>
				<path class="st0" d="M71.5,8.4h4.1v1h-5.1V1.4h5v1h-4v2.5H75v0.9h-3.5V8.4z"/>
				<path class="st0" d="M77.9,8.4H82v1h-5.1V1.4h5v1h-4v2.5h3.5v0.9h-3.5V8.4z"/>
			</g>
		</g>
		<g>
			<path class="st1" d="M4.3,0.4c-2.1,0-3.9,1.7-3.9,3.9s3.9,6.4,3.9,6.4s3.9-4.2,3.9-6.4S6.4,0.4,4.3,0.4z"/>
			<g>
				<path class="st0" d="M4.3,3.5C4.7,3.5,5,3.8,5,4.2c0,0.4-0.3,0.7-0.7,0.7S3.6,4.5,3.6,4.2C3.6,3.8,3.9,3.5,4.3,3.5 M4.3,2.7
					c-0.8,0-1.5,0.7-1.5,1.5c0,0.8,0.7,1.5,1.5,1.5c0.8,0,1.5-0.7,1.5-1.5C5.8,3.3,5.1,2.7,4.3,2.7L4.3,2.7z"/>
			</g>
		</g>
	</g>
</g>
</svg>
