<?xml version="1.0" encoding="utf-8"?>
<!-- Generator: Adobe Illustrator 24.3.0, SVG Export Plug-In . SVG Version: 6.00 Build 0)  -->
<svg version="1.1" id="Laag_1" xmlns="http://www.w3.org/2000/svg" xmlns:xlink="http://www.w3.org/1999/xlink" x="0px" y="0px"
	 width="38.3px" height="129.8px" viewBox="0 0 38.3 129.8" style="enable-background:new 0 0 38.3 129.8;" xml:space="preserve">
<style type="text/css">
	.st0{fill:#E3E8DA;}
	.st1{fill:#FFFFFF;}
	.st2{fill:#FAE927;}
</style>
<g>
	<g>
		<g>
			<polygon class="st0" points="24.3,54.3 29.1,51.7 29.1,35.9 24.3,33.3 19.4,35.9 24.3,38.5 			"/>
		</g>
		<g>
			<polygon class="st0" points="14.6,22.8 19.4,20.1 19.4,51.7 14.6,49 			"/>
		</g>
		<g>
			<polygon class="st0" points="19.4,14.9 14.6,17.5 0,9.6 4.9,7 			"/>
		</g>
		<g>
			<polygon class="st0" points="9.7,14.9 9.7,41.1 4.9,43.8 4.9,17.5 			"/>
		</g>
		<g>
			<g>
				<path class="st0" d="M19.4,20.1l4.9-2.6c0,0,7.9,2.8,4.9,13.2l-4.9,2.6C27.3,22.9,19.4,20.1,19.4,20.1z"/>
			</g>
		</g>
	</g>
	<g>
		<path class="st0" d="M3.3,0v0.8H2.1v3.5H1.3V0.8H0.1V0H3.3z"/>
		<path class="st0" d="M6.9,0h0.8v4.3H6.9V2.5H5.2v1.8H4.3V0h0.8v1.7h1.7L6.9,0L6.9,0z"/>
		<path class="st0" d="M10,3.5h2.1v0.8H9.2V0H12v0.8h-2v1h1.8v0.8H10V3.5z"/>
		<path class="st0" d="M15.6,0l1.5,4.3h-0.9l-0.3-0.9h-1.6L14,4.3h-0.9L14.5,0H15.6z M14.5,2.6h1.1l-0.5-1.5H15L14.5,2.6z"/>
		<path class="st0" d="M20.5,0v0.8h-1.2v3.5h-0.8V0.8h-1.2V0H20.5z"/>
		<path class="st0" d="M22.4,3.5h2.1v0.8h-2.9V0h2.8v0.8h-2v1h1.8v0.8h-1.8V3.5z"/>
		<path class="st0" d="M29,4.3h-0.9l-0.9-1.6h-0.5v1.6h-0.8V0h1.5c0.4,0,0.7,0.1,0.9,0.4c0.3,0.2,0.4,0.6,0.4,1
			c0,0.3-0.1,0.5-0.2,0.8c-0.1,0.2-0.3,0.4-0.6,0.5L29,4.3z M26.7,0.8V2h0.7c0.2,0,0.3-0.1,0.4-0.2S28,1.5,28,1.4
			c0-0.2-0.1-0.3-0.2-0.4s-0.2-0.2-0.4-0.2H26.7z"/>
	</g>
	<g>
		<path class="st0" d="M33.9,10.1V9.2l1.6-0.9V7.8h-1.6V7h4.3v1.5c0,0.4-0.1,0.7-0.4,0.9c-0.2,0.3-0.6,0.4-1,0.4
			c-0.3,0-0.5-0.1-0.8-0.2c-0.2-0.1-0.4-0.3-0.5-0.6L33.9,10.1z M37.5,7.8h-1.2v0.7c0,0.2,0.1,0.3,0.2,0.4c0.1,0.1,0.3,0.2,0.4,0.2
			c0.2,0,0.3-0.1,0.4-0.2c0.1-0.1,0.2-0.2,0.2-0.4C37.5,8.5,37.5,7.8,37.5,7.8z"/>
		<path class="st0" d="M34.5,14.6c-0.4-0.4-0.6-0.9-0.6-1.5s0.2-1.1,0.6-1.5c0.4-0.4,0.9-0.6,1.6-0.6c0.6,0,1.1,0.2,1.6,0.6
			c0.4,0.4,0.6,0.9,0.6,1.5s-0.2,1.1-0.6,1.5c-0.4,0.4-0.9,0.6-1.6,0.6C35.5,15.3,35,15.1,34.5,14.6z M35.1,12.3
			c-0.3,0.2-0.4,0.5-0.4,0.9s0.1,0.7,0.4,0.9c0.3,0.2,0.6,0.3,1,0.3s0.7-0.1,1-0.4c0.3-0.2,0.4-0.5,0.4-0.9s-0.1-0.7-0.4-0.9
			c-0.3-0.2-0.6-0.3-1-0.3C35.7,11.9,35.4,12,35.1,12.3z"/>
		<path class="st0" d="M38.2,19.2h-0.8V18h-3.5v-0.8h3.5V16h0.8V19.2z"/>
		<path class="st0" d="M38.2,23.2h-0.8V22h-3.5v-0.8h3.5V20h0.8V23.2z"/>
		<path class="st0" d="M34.7,25.1v2.1h-0.8v-2.9h4.3v2.8h-0.8v-2h-1v1.8h-0.8v-1.8H34.7z"/>
		<path class="st0" d="M33.9,31.7v-0.9l1.6-0.9v-0.5h-1.6v-0.8h4.3v1.5c0,0.4-0.1,0.7-0.4,0.9c-0.2,0.3-0.6,0.4-1,0.4
			c-0.3,0-0.5-0.1-0.8-0.2c-0.2-0.1-0.4-0.3-0.5-0.6L33.9,31.7z M37.5,29.3h-1.2V30c0,0.2,0.1,0.3,0.2,0.4c0.1,0.1,0.3,0.2,0.4,0.2
			c0.2,0,0.3-0.1,0.4-0.2c0.1-0.1,0.2-0.2,0.2-0.4C37.5,30,37.5,29.3,37.5,29.3z"/>
		<path class="st0" d="M38.2,34.2c0,0.6-0.2,1.1-0.6,1.5c-0.4,0.4-0.9,0.6-1.6,0.6c-0.7,0-1.2-0.2-1.6-0.6c-0.4-0.4-0.6-0.9-0.6-1.5
			v-1.4h4.3L38.2,34.2L38.2,34.2z M34.7,34.2c0,0.4,0.1,0.7,0.4,0.9c0.2,0.2,0.6,0.4,1,0.4s0.7-0.1,1-0.4c0.2-0.2,0.4-0.6,0.4-0.9
			v-0.5h-2.7v0.5H34.7z"/>
		<path class="st0" d="M38.2,39.6l-4.3,1.5v-0.9l0.9-0.3v-1.6L33.9,38v-0.9l4.3,1.5V39.6z M35.6,38.5v1.1l1.5-0.5V39L35.6,38.5z"/>
		<path class="st0" d="M38.2,46.4h-4.3v-0.8h2.6l0,0l-2.3-0.8v-1l2.3-0.8l0,0h-2.6v-0.8h4.3v1.1l-3,1.1v0.1l3,1.1V46.4z"/>
	</g>
</g>
<g>
	<path class="st0" d="M7.9,59.2v7H7v-5.6H6.9l-2,5h-1l-2-5H1.8v5.6H0.9v-7h1.3l2.2,5.3h0.1l2.2-5.3H7.9z"/>
	<path class="st0" d="M13.9,66.2l-0.6-1.8h-2.8l-0.6,1.8h-1l2.4-7h1.2l2.4,7H13.9z M10.7,63.6H13l-1.1-3.4h-0.1L10.7,63.6z"/>
	<path class="st0" d="M19.8,66.2l-2.6-3.1h-0.5v3.1h-0.9v-7h0.9v2.9h0.5l2.3-2.9h1.1L18,62.6v0.1l2.9,3.6L19.8,66.2L19.8,66.2z"/>
	<path class="st0" d="M22.8,65.4h3.6v0.8h-4.5v-7h4.4V60h-3.5v2.2h3.1V63h-3.1V65.4z"/>
	<path class="st0" d="M32.4,66.2h-1l-1.7-2.9l0,0h-1.4v2.9h-0.9v-7h2.4c0.7,0,1.2,0.2,1.7,0.6c0.4,0.4,0.6,0.9,0.6,1.5
		c0,0.5-0.1,0.9-0.4,1.2c-0.3,0.3-0.6,0.6-1.1,0.7L32.4,66.2z M28.3,60.1v2.4h1.4c0.5,0,0.8-0.1,1.1-0.3c0.3-0.2,0.4-0.5,0.4-0.9
		s-0.1-0.7-0.4-0.9s-0.6-0.3-1.1-0.3H28.3z"/>
	<path class="st0" d="M38,64.5c0,0.6-0.2,1.1-0.6,1.4s-1,0.5-1.7,0.5c-0.8,0-1.4-0.2-1.9-0.6s-0.7-0.9-0.7-1.6H34
		c0,0.4,0.2,0.8,0.4,1s0.7,0.4,1.2,0.4c0.4,0,0.7-0.1,1-0.3c0.3-0.2,0.4-0.4,0.4-0.8c0-0.3-0.1-0.6-0.4-0.8
		c-0.2-0.2-0.7-0.4-1.3-0.6c-0.7-0.2-1.2-0.5-1.5-0.8s-0.5-0.7-0.5-1.2c0-0.6,0.2-1,0.6-1.4c0.4-0.3,0.9-0.5,1.6-0.5
		c0.7,0,1.3,0.2,1.7,0.6c0.4,0.4,0.6,0.9,0.6,1.5H37c0-0.3-0.2-0.6-0.4-0.9C36.4,60.2,36,60,35.5,60c-0.4,0-0.7,0.1-0.9,0.3
		s-0.3,0.4-0.3,0.7s0.1,0.6,0.4,0.7c0.2,0.2,0.6,0.4,1.2,0.6c0.7,0.2,1.3,0.5,1.6,0.9C37.8,63.5,38,63.9,38,64.5z"/>
</g>
<g>
	<path class="st1" d="M4.3,119.3c-0.1-0.1-0.2-0.1-0.3-0.1h-1v0.9h0.9c0.2,0,0.3,0,0.4-0.1c0.1-0.1,0.1-0.2,0.1-0.3
		C4.4,119.5,4.3,119.4,4.3,119.3 M4.1,117.5c-0.1-0.1-0.2-0.1-0.3-0.1H2.9v0.7h0.7c0.4,0,0.6-0.1,0.6-0.3
		C4.3,117.6,4.2,117.5,4.1,117.5 M5.4,120.7c-0.2,0.2-0.5,0.4-0.9,0.4h0c-0.2,0-0.5,0.1-1,0.1H3l-1.3,0c0,0-0.1,0-0.1,0
		c0,0,0-0.1,0-0.1v-2.3c0,0,0-0.1,0-0.1c0,0,0.1,0,0.1,0H5c0.5,0.2,0.8,0.6,0.8,1.1C5.8,120.1,5.7,120.4,5.4,120.7 M5.3,118.4
		C5.3,118.4,5.3,118.4,5.3,118.4C5.3,118.4,5.2,118.4,5.3,118.4l-3.6,0c0,0-0.1,0-0.1,0c0,0,0-0.1,0-0.1v-1.9c0,0,0-0.1,0-0.1
		c0,0,0.1,0,0.1,0l0.8,0H3c0.5,0,0.9,0,1.1,0c0.5,0,0.8,0.1,1.1,0.3c0.3,0.2,0.5,0.5,0.5,1C5.6,117.9,5.5,118.2,5.3,118.4"/>
	<path class="st1" d="M6.7,119.5c-0.1,0-0.1,0-0.1-0.1c0-0.1,0-0.1,0-0.1l0.1-0.1l0,0c0.1-0.1,0.2-0.2,0.4-0.2
		c0.1-0.1,0.3-0.1,0.5-0.2c0,0,0.1,0,0.2,0c0.1,0,0.1,0,0.2,0c0.1,0,0.1,0,0.2,0c0.1,0,0.1,0,0.2,0v0v0c0-0.1,0-0.2-0.1-0.2
		c0-0.1-0.1-0.1-0.2-0.1c-0.1,0-0.2,0-0.3,0.1h0c-0.1,0-0.1,0.1-0.2,0.3c0,0.1-0.1,0.1-0.1,0.1H6.6c-0.1,0-0.1,0-0.1-0.1
		c0-0.4,0.2-0.7,0.5-0.9c0.3-0.2,0.6-0.2,1-0.2h0c1,0,1.5,0.4,1.5,1.2v0.8c0,0,0,0.1,0,0.1c0,0-0.1,0-0.1,0H8.5h0H6.7z M8.6,121.1
		C8.6,121.1,8.5,121.1,8.6,121.1c-0.1-0.1-0.1-0.1-0.1-0.1v-0.1c-0.1,0.1-0.3,0.2-0.5,0.2c-0.2,0-0.3,0.1-0.5,0.1
		c-0.3,0-0.6-0.1-0.8-0.3h0c-0.1-0.1-0.2-0.2-0.3-0.4c-0.1-0.1-0.1-0.3-0.1-0.5c0-0.1,0-0.1,0-0.2c0,0,0-0.1,0-0.1c0,0,0-0.1,0-0.1
		c0,0,0.1,0,0.1,0h1c0.1,0,0.1,0,0.1,0.1c0,0,0,0.1,0,0.1c0,0,0,0.1,0,0.1c0,0.2,0.1,0.3,0.3,0.3c0.2,0,0.3-0.1,0.4-0.3
		c0-0.1,0.1-0.1,0.1-0.2c0-0.1,0.1-0.1,0.1-0.1h1c0,0,0.1,0,0.1,0c0,0,0,0.1,0,0.1v0.9c0,0.1,0,0.2,0.1,0.3c0,0,0,0.1,0,0.1
		c0,0-0.1,0.1-0.1,0.1H8.6z"/>
	<path class="st1" d="M13.1,118.9C13.1,118.9,13.1,118.9,13.1,118.9c-0.1,0-0.2,0-0.2,0c-0.2-0.3-0.3-0.4-0.6-0.4h0
		c-0.2,0-0.3,0.1-0.4,0.3c-0.1,0.1-0.1,0.3-0.1,0.4c0,0,0,0.1,0,0.1c0,0-0.1,0-0.1,0h-1c0,0-0.1,0-0.1,0c0,0,0-0.1,0-0.1
		c0-0.5,0.2-0.8,0.4-1.1c0.3-0.4,0.8-0.6,1.4-0.6c0.4,0,0.7,0.1,0.9,0.2c0.1,0.1,0.2,0.2,0.3,0.3c0.1,0.1,0.2,0.2,0.3,0.4
		c0.1,0.1,0,0.1,0,0.2L13.1,118.9z M13.9,120.3c-0.2,0.3-0.4,0.6-0.7,0.7c-0.3,0.2-0.6,0.2-1,0.2h0c-0.5,0-0.9-0.2-1.3-0.5
		c-0.3-0.3-0.4-0.7-0.5-1.2c0,0,0-0.1,0-0.1c0,0,0.1,0,0.1,0h1c0.1,0,0.1,0,0.1,0.1c0,0.1,0,0.2,0,0.2c0,0.1,0,0.1,0.1,0.2
		c0.1,0.2,0.3,0.3,0.5,0.3c0.1,0,0.2,0,0.3-0.1c0,0,0.1-0.1,0.1-0.1c0-0.1,0.1-0.1,0.1-0.2l0,0c0,0,0,0,0.1,0c0,0,0.1,0,0.1,0
		l0.7,0.4L13.9,120.3z"/>
	<path class="st1" d="M17,121.2C17,121.2,16.9,121.2,17,121.2c-0.1,0-0.1,0-0.1-0.1l-0.8-1.3l-0.3,0.3v1c0,0,0,0.1,0,0.1
		c0,0-0.1,0-0.1,0l-1,0c-0.1,0-0.1,0-0.1-0.1v-2c0,0,0-0.1,0-0.1c0,0,0.1,0,0.1,0H17c0,0,0,0,0.1,0c0,0,0,0,0,0l1.1,2
		c0,0,0,0.1,0,0.1c0,0-0.1,0.1-0.1,0.1H17z M14.7,118.7C14.7,118.7,14.6,118.7,14.7,118.7c-0.1-0.1-0.1-0.1-0.1-0.1v-2.2
		c0-0.1,0-0.1,0.1-0.1h1c0,0,0.1,0,0.1,0c0,0,0,0.1,0,0.1v2.1l0.9-0.9c0,0,0,0,0,0c0,0,0,0,0,0H18c0.1,0,0.1,0,0.1,0.1
		c0,0.1,0,0.1,0,0.1l-1,1c0,0,0,0,0,0c0,0,0,0,0,0h-1.2c0,0-0.1,0-0.1,0c0,0,0,0-0.1,0H14.7z"/>
	<path class="st1" d="M21.7,119.3c-0.1-0.1-0.2-0.1-0.3-0.1h-1v0.9h0.9c0.2,0,0.3,0,0.4-0.1c0.1-0.1,0.1-0.2,0.1-0.3
		C21.9,119.5,21.8,119.4,21.7,119.3 M21.6,117.5c-0.1-0.1-0.2-0.1-0.3-0.1h-0.9v0.7h0.7c0.4,0,0.6-0.1,0.6-0.3
		C21.7,117.6,21.7,117.5,21.6,117.5 M22.9,120.7c-0.2,0.2-0.5,0.4-0.9,0.4h0c-0.2,0-0.5,0.1-1,0.1h-0.5l-1.3,0c0,0-0.1,0-0.1,0
		c0,0,0-0.1,0-0.1v-2.3c0,0,0-0.1,0-0.1c0,0,0.1,0,0.1,0h3.3c0.5,0.2,0.8,0.6,0.8,1.1C23.3,120.1,23.2,120.4,22.9,120.7 M22.8,118.4
		C22.8,118.4,22.8,118.4,22.8,118.4C22.8,118.4,22.7,118.4,22.8,118.4l-3.6,0c0,0-0.1,0-0.1,0c0,0,0-0.1,0-0.1v-1.9c0,0,0-0.1,0-0.1
		c0,0,0.1,0,0.1,0l0.8,0h0.5c0.5,0,0.9,0,1.1,0c0.5,0,0.8,0.1,1.1,0.3c0.3,0.2,0.5,0.5,0.5,1C23.1,117.9,23,118.2,22.8,118.4"/>
	<path class="st1" d="M26.6,119.1C26.6,119.1,26.6,119.1,26.6,119.1c-0.1,0-0.1-0.1-0.1-0.1c0-0.1-0.1-0.3-0.1-0.3
		c-0.1-0.2-0.3-0.3-0.5-0.3h0c-0.2,0-0.4,0.1-0.5,0.2c-0.1,0.1-0.1,0.2-0.2,0.4c0,0,0,0,0,0.1c0,0,0,0-0.1,0h-1c0,0-0.1,0-0.1,0
		c0,0,0-0.1,0-0.1c0.1-0.5,0.2-0.8,0.6-1.1c0.4-0.3,0.9-0.5,1.5-0.5c0.6,0,1,0.2,1.4,0.6c0.3,0.3,0.4,0.6,0.5,1c0,0,0,0.1,0,0.1
		c0,0-0.1,0-0.1,0H26.6z M27.8,119.4c0,0.3-0.1,0.5-0.1,0.7c-0.1,0.2-0.2,0.4-0.4,0.6c-0.3,0.4-0.8,0.5-1.4,0.5h0
		c-0.6,0-1.1-0.2-1.4-0.5c-0.3-0.3-0.5-0.7-0.5-1.3c0,0,0-0.1,0-0.1c0,0,0.1,0,0.1,0h1c0,0,0.1,0,0.1,0c0,0,0,0,0,0.1
		c0,0.2,0.1,0.4,0.2,0.5h0c0.1,0.2,0.3,0.3,0.5,0.3c0.2,0,0.4-0.1,0.5-0.3c0.1-0.1,0.1-0.3,0.2-0.5c0,0,0-0.1,0-0.1c0,0,0.1,0,0.1,0
		h1L27.8,119.4z"/>
	<path class="st1" d="M30.8,121.1C30.7,121.1,30.7,121.1,30.8,121.1c-0.1-0.1-0.1-0.1-0.1-0.1l0-1.6c0,0,0-0.1,0-0.1c0,0,0,0,0.1,0
		h1c0,0,0.1,0,0.1,0c0,0,0,0.1,0,0.1v1.6c0,0,0,0.1,0,0.1c0,0-0.1,0-0.1,0H30.8z M28.8,121.1C28.7,121.1,28.7,121.1,28.8,121.1
		c-0.1-0.1-0.1-0.1-0.1-0.1v-1.1c0,0,0-0.1,0-0.1c0,0,0.1,0,0.1,0h1c0,0,0.1,0,0.1,0c0,0,0,0.1,0,0.1v1.1c0,0,0,0.1,0,0.1
		c0,0-0.1,0-0.1,0H28.8z M30.8,119.1C30.7,119.1,30.7,119.1,30.8,119.1c-0.1-0.1-0.1-0.1-0.1-0.1v-0.1c0-0.1,0-0.2-0.1-0.3
		c-0.1-0.1-0.2-0.1-0.3-0.1h0c-0.1,0-0.1,0-0.2,0c0,0-0.1,0.1-0.1,0.2c0,0.1-0.1,0.2-0.1,0.3c0,0.1,0,0.3,0,0.5v0c0,0,0,0.1-0.1,0.1
		c0,0-0.1,0-0.1,0h-1c0,0-0.1,0-0.1,0c0,0,0-0.1,0-0.1v-1.9c0,0,0-0.1,0-0.1c0,0,0.1,0,0.1,0h1c0,0,0.1,0,0.1,0c0,0,0,0.1,0,0.1v0
		c0.2-0.2,0.5-0.2,0.9-0.2h0c0.7,0,1.1,0.4,1.1,1.2v0.4c0,0,0,0.1,0,0.1c0,0-0.1,0-0.1,0H30.8z"/>
	<path class="st1" d="M36.4,120.2c-0.3,0.4-0.5,0.6-0.8,0.8c-0.3,0.2-0.6,0.2-1,0.2c0,0-0.1,0-0.1,0c0,0,0-0.1,0-0.1v-0.8
		c0,0,0-0.1,0.1-0.1c0,0,0.1,0,0.1,0h0c0.2,0,0.5-0.1,0.6-0.3c0,0,0.1-0.1,0.1-0.2c0,0,0-0.1,0.1-0.1H35c0,0-0.1,0-0.1,0
		c0,0,0-0.1,0-0.1v-0.6c0,0,0-0.1,0-0.1c0,0,0.1,0,0.1,0h0.1c-0.1-0.3-0.3-0.4-0.5-0.4c0,0-0.1,0-0.1,0c0,0,0-0.1,0-0.1l0-0.7
		c0,0,0-0.1,0-0.1c0,0,0.1,0,0.1,0h0c0.6,0,1.1,0.2,1.4,0.6c0.3,0.4,0.4,0.9,0.4,1.5c0,0,0,0.1,0,0.1c0,0-0.1,0-0.1,0h-0.8l0,0
		l0.7,0.4L36.4,120.2z M34,119.6c0,0.2,0.1,0.3,0.2,0.4l0,0c0,0,0,0,0,0.1c0,0,0,0,0,0.1v0.9c0,0,0,0.1,0,0.1c0,0-0.1,0-0.1,0
		c-0.2,0-0.4-0.1-0.5-0.2c-0.2-0.1-0.3-0.2-0.4-0.3c-0.3-0.3-0.5-0.8-0.5-1.4v0c0-0.6,0.2-1,0.5-1.4c0.2-0.2,0.5-0.4,0.9-0.5
		c0,0,0.1,0,0.1,0c0,0,0,0.1,0,0.1v0.8c0,0,0,0,0,0c0,0,0,0,0,0l0,0c0,0-0.1,0.1-0.1,0.1c0,0-0.1,0.1-0.1,0.1h0.5c0,0,0.1,0,0.1,0
		c0,0,0,0.1,0,0.1v0.6c0,0,0,0.1,0,0.1c0,0-0.1,0-0.1,0H34z"/>
	<path class="st2" d="M18.1,95.8h18.4v-17H18.9c-9.6,0-17.3,7.8-17.3,17.3v18h16.5V95.8z"/>
	<path class="st1" d="M28.8,114.1c4.2,0,7.6-3.4,7.6-7.6v-7.9H21.1v15.5H28.8z"/>
	<path class="st2" d="M35.5,125.4C35.4,125.4,35.4,125.4,35.5,125.4c-0.1,0-0.1,0-0.2,0c-0.2-0.1-0.3-0.2-0.4-0.2
		c-0.1-0.1-0.3-0.1-0.4-0.1c0,0-0.1,0-0.1,0c0,0-0.1,0-0.1,0c-0.1,0-0.1,0.1-0.1,0.1c0,0,0.2,0.1,0.4,0.1c0.1,0,0.1,0,0.2,0.1
		c0.1,0,0.1,0,0.2,0.1c0,0,0.1,0,0.1,0.1c0,0,0,0.1,0,0.1c0,0,0,0.1,0,0.1c0,0-0.1,0-0.1,0H33c0,0,0,0-0.1,0c0,0,0,0,0-0.1
		c0-0.1,0-0.1,0-0.2c0-0.4,0.2-0.8,0.5-1c0.3-0.2,0.6-0.3,1.1-0.3c0.2,0,0.3,0,0.5,0c0.1,0,0.3,0.1,0.4,0.1c0.1,0,0.2,0.1,0.3,0.2
		c0.1,0.1,0.3,0.2,0.4,0.3c0,0,0.1,0.1,0.1,0.1c0,0,0,0.1,0,0.1L35.5,125.4z M35.6,127.7c-0.3,0.2-0.7,0.3-1.1,0.3
		c-0.2,0-0.4,0-0.5,0c-0.2,0-0.3-0.1-0.5-0.1c-0.1,0-0.2-0.1-0.4-0.2c-0.1-0.1-0.3-0.2-0.5-0.3c0,0-0.1-0.1-0.1-0.1
		c0,0,0-0.1,0.1-0.1l0.6-0.6c0,0,0.1,0,0.1,0c0,0,0.1,0,0.1,0c0.3,0.3,0.6,0.4,0.9,0.4c0.1,0,0.2,0,0.3-0.1c0.1,0,0.2-0.1,0.2-0.1
		c0-0.1-0.1-0.1-0.3-0.2l-0.8-0.2c-0.2,0-0.4-0.1-0.6-0.3c-0.1,0-0.1-0.1,0-0.2c0-0.1,0.1-0.1,0.1-0.1h2.5c0,0,0,0,0.1,0
		c0,0,0,0,0,0c0.1,0.1,0.1,0.2,0.2,0.3c0,0.1,0.1,0.2,0.1,0.4C36.2,127.1,36,127.4,35.6,127.7 M30.6,127.9
		C30.6,127.9,30.6,127.9,30.6,127.9c-0.1-0.1-0.1-0.1-0.1-0.1v-1.5c0,0,0-0.1,0-0.1c0,0,0.1,0,0.1,0h1c0,0,0.1,0,0.1,0
		c0,0,0,0.1,0,0.1v1.5c0,0,0,0.1,0,0.1c0,0-0.1,0-0.1,0H30.6z M32.6,125.3c-0.4,0.1-0.6,0.1-0.6,0.1c-0.1,0.1-0.2,0.2-0.2,0.4
		c0,0,0,0.1,0,0.1c0,0-0.1,0-0.1,0h-1c0,0-0.1,0-0.1,0c0,0,0-0.1,0-0.1v-1.5c0,0,0-0.1,0-0.1c0,0,0.1,0,0.1,0h0.9c0,0,0.1,0,0.1,0
		c0,0,0,0.1,0,0.1v0.1c0.1,0,0.1-0.1,0.2-0.1c0.1,0,0.1,0,0.2-0.1c0,0,0,0,0.1,0c0.1,0,0.1,0,0.2,0c0,0,0.1,0,0.1,0c0,0,0.1,0,0.1,0
		c0,0,0.1,0,0.1,0c0,0,0,0.1,0,0.1v0.9L32.6,125.3z M28.9,125.8C28.8,125.8,28.8,125.7,28.9,125.8c-0.1,0-0.1-0.1-0.1-0.1
		c0-0.1-0.1-0.3-0.1-0.3c-0.1-0.2-0.3-0.3-0.5-0.3h0c-0.2,0-0.4,0.1-0.5,0.2c-0.1,0.1-0.1,0.2-0.2,0.4c0,0,0,0-0.1,0.1
		c0,0,0,0-0.1,0h-1c0,0-0.1,0-0.1,0c0,0,0-0.1,0-0.1c0.1-0.5,0.2-0.9,0.6-1.1c0.4-0.3,0.9-0.5,1.5-0.5c0.6,0,1,0.2,1.4,0.6
		c0.3,0.3,0.4,0.6,0.5,1c0,0,0,0.1,0,0.1c0,0-0.1,0-0.1,0H28.9z M30.1,126.1c0,0.3-0.1,0.5-0.1,0.7c-0.1,0.2-0.2,0.4-0.4,0.6
		c-0.4,0.4-0.8,0.5-1.4,0.5h0c-0.6,0-1.1-0.2-1.5-0.5c-0.3-0.3-0.5-0.8-0.6-1.3c0,0,0-0.1,0-0.1c0,0,0.1,0,0.1,0h1c0,0,0.1,0,0.1,0
		c0,0,0,0,0,0.1c0,0.2,0.1,0.4,0.2,0.5h0c0.1,0.2,0.3,0.3,0.5,0.3c0.2,0,0.4-0.1,0.5-0.3c0.1-0.1,0.2-0.3,0.2-0.5c0,0,0-0.1,0-0.1
		c0,0,0.1,0,0.1,0h1L30.1,126.1z M24.3,125.2C24.2,125.2,24.2,125.2,24.3,125.2c-0.1-0.1-0.1-0.1-0.1-0.1c-0.1-0.6-0.5-0.9-1.2-0.9
		h-0.4v0.9c0,0,0,0.1,0,0.1c0,0-0.1,0-0.1,0h-1.2c0,0-0.1,0-0.1,0c0,0,0-0.1,0-0.1v-2c0,0,0-0.1,0-0.1c0,0,0.1,0,0.1,0l0.7,0h0.3
		c0.3,0,0.6,0,0.8,0c0.2,0,0.4,0,0.6,0.1c0.7,0.1,1.2,0.4,1.5,0.7c0.3,0.3,0.4,0.8,0.5,1.4c0,0,0,0.1,0,0.1c0,0-0.1,0-0.1,0H24.3z
		 M25.6,125.5c0,0.6-0.2,1.2-0.6,1.6h0c-0.4,0.5-1,0.8-1.7,0.8h-2.1c0,0-0.1,0-0.1,0c0,0,0-0.1,0-0.1v-2.2c0,0,0-0.1,0-0.1
		c0,0,0.1,0,0.1,0h1.2c0,0,0.1,0,0.1,0c0,0,0,0.1,0,0.1v1.2h0h0c0.6,0,0.9-0.1,1.2-0.2h0c0.1-0.1,0.2-0.2,0.3-0.4
		c0.1-0.2,0.1-0.3,0.1-0.6c0,0,0-0.1,0-0.1c0,0,0.1,0,0.1,0h1.2L25.6,125.5z M17.1,127.8C17.1,127.8,17,127.8,17.1,127.8
		c-0.1-0.1-0.1-0.1-0.1-0.1v-0.1c-0.2,0.1-0.3,0.2-0.5,0.2c-0.2,0-0.3,0.1-0.5,0.1c-0.4,0-0.6-0.1-0.9-0.3h0
		c-0.1-0.1-0.2-0.2-0.3-0.4c-0.1-0.1-0.1-0.3-0.1-0.5c0-0.1,0-0.1,0-0.2c0,0,0-0.1,0-0.1c0,0,0-0.1,0.1-0.1c0,0,0.1,0,0.1,0h1
		c0.1,0,0.1,0,0.1,0.1c0,0,0,0.1,0,0.1c0,0,0,0.1,0,0.1c0,0.2,0.1,0.3,0.3,0.3c0.2,0,0.3-0.1,0.4-0.3c0-0.1,0.1-0.1,0.1-0.2
		c0-0.1,0.1-0.1,0.1-0.1h1c0,0,0.1,0,0.1,0c0,0,0,0.1,0,0.1v0.9c0,0.1,0,0.2,0.1,0.3c0,0,0,0.1,0,0.1c0,0-0.1,0.1-0.1,0.1H17.1z
		 M15.2,126.1c-0.1,0-0.1,0-0.1-0.1c0-0.1,0-0.1,0-0.1l0.1-0.1l0,0c0.1-0.1,0.2-0.2,0.4-0.2c0.1-0.1,0.3-0.1,0.5-0.2
		c0,0,0.1,0,0.2,0c0.1,0,0.1,0,0.2,0c0.1,0,0.1,0,0.2,0c0.1,0,0.2,0,0.2-0.1v0v0c0-0.1,0-0.2-0.1-0.2c0-0.1-0.1-0.1-0.2-0.1
		c-0.1,0-0.2,0-0.3,0.1h0c-0.1,0-0.1,0.1-0.2,0.3c0,0.1-0.1,0.1-0.1,0.1h-1c-0.1,0-0.1,0-0.1-0.1c0-0.4,0.2-0.7,0.5-1
		c0.3-0.2,0.6-0.2,1-0.2h0c1,0,1.6,0.4,1.6,1.2v0.8c0,0,0,0.1,0,0.1c0,0-0.1,0-0.1,0h-1h0H15.2z M13.3,127.9c0,0-0.1,0-0.1,0
		c0,0,0-0.1,0-0.1v0c-0.2,0.2-0.5,0.3-0.9,0.3c-0.5,0-1-0.2-1.3-0.7c-0.2-0.3-0.3-0.6-0.3-1.1c0,0,0-0.1,0-0.1c0,0,0.1,0,0.1,0h1
		c0,0,0.1,0,0.1,0c0,0,0,0.1,0,0.1c0,0.1,0,0.2,0,0.3c0,0.1,0,0.1,0.1,0.2c0.1,0.2,0.2,0.3,0.4,0.3c0.2,0,0.4-0.1,0.5-0.3
		c0.1-0.1,0.1-0.3,0.1-0.5c0,0,0-0.1,0-0.1c0,0,0.1,0,0.1,0h1c0,0,0.1,0,0.1,0c0,0,0,0.1,0,0.1v1.5c0,0,0,0.1,0,0.1c0,0-0.1,0-0.1,0
		H13.3z M13.3,125.9C13.2,125.9,13.2,125.9,13.3,125.9c-0.1-0.1-0.1-0.1-0.1-0.1c0-0.2-0.1-0.3-0.1-0.5c-0.1-0.2-0.3-0.3-0.5-0.3
		c-0.3,0-0.5,0.3-0.6,0.8c0,0,0,0.1,0,0.1c0,0-0.1,0-0.1,0h-1c0,0-0.1,0-0.1,0c0,0,0-0.1,0-0.1c0-0.4,0.2-0.8,0.4-1.2
		c0.2-0.2,0.3-0.4,0.5-0.5c0.2-0.1,0.4-0.2,0.7-0.2c0.2,0,0.4,0,0.6,0.1c0,0,0.1,0,0.1,0.1c0,0,0.1,0.1,0.1,0.1V123c0,0,0-0.1,0-0.1
		c0,0,0.1,0,0.1,0h1c0,0,0.1,0,0.1,0c0,0,0,0.1,0,0.1v2.8c0,0,0,0.1,0,0.1c0,0-0.1,0-0.1,0H13.3z M9,125.2
		C8.9,125.2,8.9,125.1,9,125.2c-0.1-0.1-0.1-0.1-0.1-0.1v-0.8c0,0,0-0.1,0-0.1c0,0,0,0,0.1,0h1c0,0,0.1,0,0.1,0c0,0,0,0.1,0,0.1v0.8
		c0,0,0,0.1,0,0.1c0,0-0.1,0-0.1,0H9z M9,127.9C8.9,127.9,8.9,127.8,9,127.9c-0.1-0.1-0.1-0.1-0.1-0.1v-2.2c0,0,0-0.1,0-0.1
		c0,0,0,0,0.1,0h1c0,0,0.1,0,0.1,0c0,0,0,0.1,0,0.1v2.2c0,0,0,0.1,0,0.1c0,0-0.1,0-0.1,0H9z M8.4,127.7
		C8.4,127.8,8.4,127.8,8.4,127.7c-0.1,0.1-0.1,0.1-0.1,0.1H7.4c0,0-0.1,0-0.1,0c0,0,0-0.1,0-0.1v-1.4c0,0,0-0.1,0-0.1c0,0,0,0,0.1,0
		h0.9c0,0,0.1,0,0.1,0c0,0,0,0.1,0,0.1V127.7z M7.4,126C7.4,126,7.3,126,7.4,126c-0.1-0.1-0.1-0.1-0.1-0.1V123c0,0,0-0.1,0-0.1
		c0,0,0,0,0.1,0h0.9c0,0,0.1,0,0.1,0c0,0,0,0.1,0,0.1v2.9c0,0,0,0.1,0,0.1c0,0-0.1,0-0.1,0H7.4z M4.7,125.7
		C4.7,125.7,4.7,125.7,4.7,125.7C4.7,125.6,4.7,125.6,4.7,125.7l-0.4-1.1c0,0.1-0.1,0.2-0.1,0.3c0,0.1-0.1,0.2-0.1,0.3
		c0,0,0,0.1-0.1,0.1c0,0-0.1,0-0.1,0L3,124.8c0,0,0,0-0.1-0.1c0,0,0-0.1,0-0.1l0.6-1.7c0,0,0,0,0.1-0.1c0,0,0.1,0,0.1,0H5
		c0,0,0,0,0.1,0c0,0,0,0,0.1,0.1l1.2,3.3c0,0.1,0,0.1,0,0.1c0,0-0.1,0-0.2,0L4.7,125.7z M5.5,127.9C5.4,127.9,5.4,127.9,5.5,127.9
		c-0.1,0-0.1-0.1-0.1-0.1l-0.2-0.7H3.5l-0.2,0.7c0,0,0,0,0,0.1c0,0-0.1,0-0.1,0H1.9c-0.1,0-0.1,0-0.1-0.1c0,0,0-0.1,0-0.1l1-2.6
		c0,0,0-0.1,0.1-0.1c0,0,0.1,0,0.1,0l1,0.5c0.1,0,0.1,0.1,0.1,0.2c0,0.1,0,0.1,0,0.2c0,0.1,0,0.1-0.1,0.2h0.9l1.7,0.9l0.3,0.8
		c0,0.1,0,0.1,0,0.1c0,0-0.1,0.1-0.1,0.1H5.5z"/>
</g>
</svg>
