<?xml version="1.0" encoding="utf-8"?>
<!-- Generator: Adobe Illustrator 24.0.0, SVG Export Plug-In . SVG Version: 6.00 Build 0)  -->
<svg version="1.1" id="Laag_1" xmlns="http://www.w3.org/2000/svg" xmlns:xlink="http://www.w3.org/1999/xlink" x="0px" y="0px"
	 width="101.8px" height="48.2px" viewBox="0 0 101.8 48.2" style="enable-background:new 0 0 101.8 48.2;" xml:space="preserve">
<style type="text/css">
	.st0{fill:#FFFFFF;}
</style>
<g>
	<path class="st0" d="M7,9.9L7,9.9C6.7,10,6.4,10.2,6,10.2c-0.2,0-0.4,0.1-0.5,0.1c-0.2,0-0.4,0-0.5,0c-0.7,0-1.4-0.1-1.9-0.4
		c-0.6-0.2-1.1-0.6-1.6-1C1,8.5,0.6,8,0.4,7.4C0.1,6.7,0,6.1,0,5.4c0-0.8,0.1-1.5,0.4-2.2C0.7,2.5,1.1,2,1.6,1.5
		c0.5-0.5,1.1-0.8,1.7-1.1C4,0.2,4.7,0.1,5.5,0.1S7,0.2,7.7,0.5c0.7,0.3,1.2,0.6,1.7,1.1c0.5,0.5,0.9,1,1.1,1.7
		c0.3,0.6,0.4,1.3,0.4,2.1c0,0.9-0.1,1.7-0.4,2.4c-0.3,0.7-0.6,1.4-1.1,2.2l-4.1,6.6H2.7L7,9.9z M8.8,5.3c0-0.5-0.1-0.9-0.2-1.3
		C8.4,3.5,8.2,3.2,7.9,2.9c-0.3-0.3-0.6-0.5-1-0.7C6.4,2,6,1.9,5.5,1.9C5,1.9,4.6,2,4.1,2.1c-0.4,0.2-0.8,0.4-1,0.7
		C2.8,3.1,2.6,3.5,2.4,3.9C2.3,4.3,2.2,4.8,2.2,5.3c0,0.5,0.1,0.9,0.2,1.3C2.6,7,2.8,7.4,3.1,7.7c0.3,0.3,0.6,0.5,1,0.7
		C4.5,8.5,5,8.6,5.5,8.6c0.5,0,0.9-0.1,1.4-0.2C7.2,8.2,7.6,8,7.9,7.7C8.2,7.4,8.4,7,8.6,6.6C8.7,6.2,8.8,5.8,8.8,5.3z"/>
</g>
<g>
	<path class="st0" d="M13.4,8.8c0-0.3,0.1-0.7,0.2-1c0.1-0.3,0.3-0.6,0.5-0.8c0.2-0.2,0.5-0.4,0.8-0.5c0.3-0.1,0.6-0.2,1-0.2
		c0.3,0,0.7,0.1,1,0.2c0.3,0.1,0.6,0.3,0.8,0.5c0.2,0.2,0.4,0.5,0.5,0.8c0.1,0.3,0.2,0.6,0.2,1c0,0.4-0.1,0.7-0.2,1
		c-0.1,0.3-0.3,0.6-0.5,0.8c-0.2,0.2-0.5,0.4-0.8,0.5c-0.3,0.1-0.6,0.2-1,0.2c-0.4,0-0.7-0.1-1-0.2c-0.3-0.1-0.6-0.3-0.8-0.5
		c-0.2-0.2-0.4-0.5-0.5-0.8C13.5,9.5,13.4,9.2,13.4,8.8z"/>
</g>
<g>
	<path class="st0" d="M31.3,16.4H20.9v-2.1L27.3,8c0.5-0.5,0.9-1,1.2-1.5C28.8,5.9,29,5.3,29,4.6c0-0.4-0.1-0.8-0.2-1.1
		c-0.1-0.3-0.4-0.6-0.6-0.9c-0.3-0.2-0.6-0.4-0.9-0.5c-0.3-0.1-0.7-0.2-1.1-0.2c-0.8,0-1.5,0.3-2,0.8c-0.5,0.5-0.9,1.2-1,2l-2.1-0.4
		c0.1-0.6,0.3-1.2,0.6-1.7c0.3-0.5,0.7-1,1.1-1.3s1-0.7,1.6-0.9c0.6-0.2,1.2-0.3,1.9-0.3c0.7,0,1.3,0.1,1.9,0.3
		c0.6,0.2,1.1,0.5,1.6,0.9c0.5,0.4,0.8,0.8,1.1,1.4c0.3,0.6,0.4,1.2,0.4,2c0,0.5-0.1,1-0.2,1.4c-0.1,0.4-0.3,0.8-0.5,1.2
		C30.3,7.6,30,8,29.7,8.3c-0.3,0.4-0.6,0.7-1,1l-5.2,5h7.8V16.4z"/>
</g>
<g>
	<path class="st0" d="M38.8,16.6c-0.2,0-0.5,0.1-0.7,0.1c-0.8,0-1.4-0.2-1.7-0.7c-0.3-0.5-0.5-1-0.5-1.7V6.5h-2.2V6h2.2V3h0.5v3h3
		v0.4h-3v7.8c0,0.7,0.2,1.2,0.5,1.5c0.3,0.3,0.8,0.5,1.4,0.5c0.4,0,0.8-0.1,1.1-0.2l0.1,0.4C39.2,16.5,39,16.5,38.8,16.6z"/>
	<path class="st0" d="M41.2,16.7l-0.4-0.2L47.6,0L48,0.2L41.2,16.7z"/>
	<path class="st0" d="M58.9,8.9c0.3-1,0.8-1.8,1.5-2.3C61.1,6,62,5.7,62.9,5.7c0.7,0,1.3,0.1,1.7,0.4c0.5,0.3,0.8,0.6,1.1,1
		C66,7.5,66.2,8,66.3,8.5c0.1,0.5,0.2,1.1,0.2,1.6v6.2H66v-6.2c0-0.4,0-0.9-0.1-1.3c-0.1-0.5-0.3-0.9-0.5-1.3c-0.2-0.4-0.6-0.7-1-1
		c-0.4-0.3-0.9-0.4-1.5-0.4c-0.5,0-1,0.1-1.5,0.3c-0.5,0.2-0.9,0.6-1.2,1c-0.4,0.4-0.6,1-0.8,1.6c-0.2,0.6-0.3,1.3-0.3,2.1v5.2h-0.5
		v-6.2c0-0.4,0-0.9-0.1-1.3c-0.1-0.5-0.2-0.9-0.5-1.3c-0.2-0.4-0.5-0.7-0.9-1c-0.4-0.3-0.9-0.4-1.5-0.4c-0.5,0-1,0.1-1.5,0.3
		c-0.5,0.2-0.9,0.6-1.2,1c-0.4,0.4-0.6,1-0.8,1.6c-0.2,0.6-0.3,1.3-0.3,2.1v5.2h-0.5V8.6c0-0.2,0-0.4,0-0.6c0-0.2,0-0.5,0-0.7
		c0-0.2,0-0.5,0-0.7c0-0.2,0-0.4,0-0.6h0.5c0,0.1,0,0.3,0,0.6c0,0.2,0,0.5,0,0.7c0,0.3,0,0.5,0,0.8c0,0.2,0,0.5,0,0.7h0
		c0.1-0.5,0.4-0.9,0.6-1.3c0.3-0.4,0.6-0.7,0.9-1c0.3-0.3,0.7-0.5,1.1-0.6c0.4-0.1,0.8-0.2,1.2-0.2c0.5,0,1,0.1,1.4,0.2
		c0.4,0.2,0.7,0.4,1,0.7c0.3,0.3,0.5,0.6,0.7,1C58.7,8,58.8,8.4,58.9,8.9L58.9,8.9z"/>
</g>
<g>
	<path class="st0" d="M79.9,2.4h-6.5l-0.1,4.2c0.3-0.1,0.6-0.2,1-0.2c0.4,0,0.7-0.1,1-0.1c0.8,0,1.5,0.1,2.1,0.3
		c0.7,0.2,1.2,0.6,1.7,1c0.5,0.4,0.8,1,1.1,1.6c0.3,0.6,0.4,1.3,0.4,2.1c0,0.8-0.1,1.6-0.4,2.3c-0.3,0.7-0.7,1.2-1.2,1.7
		c-0.5,0.5-1.1,0.8-1.7,1.1c-0.7,0.3-1.4,0.4-2.2,0.4c-1.2,0-2.3-0.3-3.1-0.9c-0.9-0.6-1.5-1.3-1.9-2.3l2-0.8
		c0.3,0.6,0.7,1.2,1.2,1.5c0.5,0.4,1.2,0.6,1.9,0.6c0.5,0,0.9-0.1,1.3-0.2c0.4-0.2,0.8-0.4,1.1-0.7c0.3-0.3,0.5-0.7,0.7-1.1
		c0.2-0.4,0.3-0.9,0.3-1.4c0-0.6-0.1-1.1-0.3-1.6c-0.2-0.4-0.5-0.8-0.8-1.1c-0.3-0.3-0.7-0.5-1.2-0.6C75.6,8.1,75.1,8,74.6,8
		c-0.6,0-1.2,0.1-1.8,0.2c-0.6,0.2-1.2,0.4-1.7,0.6l0.2-8.4h8.6V2.4z"/>
</g>
<g>
	<path class="st0" d="M83.5,8.8c0-0.3,0.1-0.7,0.2-1C83.8,7.5,84,7.3,84.2,7c0.2-0.2,0.5-0.4,0.8-0.5c0.3-0.1,0.6-0.2,1-0.2
		c0.3,0,0.7,0.1,1,0.2c0.3,0.1,0.6,0.3,0.8,0.5c0.2,0.2,0.4,0.5,0.5,0.8c0.1,0.3,0.2,0.6,0.2,1c0,0.4-0.1,0.7-0.2,1
		c-0.1,0.3-0.3,0.6-0.5,0.8c-0.2,0.2-0.5,0.4-0.8,0.5c-0.3,0.1-0.6,0.2-1,0.2c-0.4,0-0.7-0.1-1-0.2c-0.3-0.1-0.6-0.3-0.8-0.5
		c-0.2-0.2-0.4-0.5-0.5-0.8C83.6,9.5,83.5,9.2,83.5,8.8z"/>
</g>
<g>
	<path class="st0" d="M100.7,2.4h-6.5L94,6.6c0.3-0.1,0.6-0.2,1-0.2c0.4,0,0.7-0.1,1-0.1c0.8,0,1.5,0.1,2.1,0.3
		c0.7,0.2,1.2,0.6,1.7,1c0.5,0.4,0.8,1,1.1,1.6c0.3,0.6,0.4,1.3,0.4,2.1c0,0.8-0.1,1.6-0.4,2.3c-0.3,0.7-0.7,1.2-1.2,1.7
		c-0.5,0.5-1.1,0.8-1.7,1.1c-0.7,0.3-1.4,0.4-2.2,0.4c-1.2,0-2.3-0.3-3.1-0.9c-0.9-0.6-1.5-1.3-1.9-2.3l2-0.8
		c0.3,0.6,0.7,1.2,1.2,1.5c0.5,0.4,1.2,0.6,1.9,0.6c0.5,0,0.9-0.1,1.3-0.2c0.4-0.2,0.8-0.4,1.1-0.7c0.3-0.3,0.5-0.7,0.7-1.1
		c0.2-0.4,0.3-0.9,0.3-1.4c0-0.6-0.1-1.1-0.3-1.6c-0.2-0.4-0.5-0.8-0.8-1.1c-0.3-0.3-0.7-0.5-1.2-0.6C96.4,8.1,95.9,8,95.4,8
		c-0.6,0-1.2,0.1-1.8,0.2c-0.6,0.2-1.2,0.4-1.7,0.6l0.2-8.4h8.6V2.4z"/>
</g>
<g>
	<path class="st0" d="M60.7,38H50.3v-2.1l6.3-6.3c0.5-0.5,0.9-1,1.2-1.5c0.3-0.5,0.5-1.1,0.5-1.8c0-0.4-0.1-0.8-0.2-1.1
		c-0.1-0.3-0.4-0.6-0.6-0.9c-0.3-0.2-0.6-0.4-0.9-0.5c-0.3-0.1-0.7-0.2-1.1-0.2c-0.8,0-1.5,0.3-2,0.8c-0.5,0.5-0.9,1.2-1,2l-2.1-0.4
		c0.1-0.6,0.3-1.2,0.6-1.7c0.3-0.5,0.7-1,1.1-1.3s1-0.7,1.6-0.9c0.6-0.2,1.2-0.3,1.9-0.3c0.7,0,1.3,0.1,1.9,0.3
		c0.6,0.2,1.1,0.5,1.6,0.9c0.5,0.4,0.8,0.8,1.1,1.4c0.3,0.6,0.4,1.2,0.4,2c0,0.5-0.1,1-0.2,1.4c-0.1,0.4-0.3,0.8-0.5,1.2
		c-0.2,0.4-0.5,0.8-0.8,1.1c-0.3,0.4-0.6,0.7-1,1l-5.2,5h7.8V38z"/>
	<path class="st0" d="M69.3,21.7c0.9,0,1.8,0.2,2.4,0.7c0.7,0.4,1.2,1,1.7,1.8c0.4,0.8,0.8,1.6,1,2.7c0.2,1,0.3,2.1,0.3,3.3
		c0,1.2-0.1,2.3-0.3,3.3c-0.2,1-0.5,1.9-1,2.6c-0.4,0.8-1,1.3-1.7,1.8c-0.7,0.4-1.5,0.7-2.4,0.7s-1.8-0.2-2.4-0.7
		c-0.7-0.4-1.3-1-1.7-1.8c-0.4-0.8-0.8-1.6-1-2.6c-0.2-1-0.3-2.1-0.3-3.3c0-1.2,0.1-2.2,0.3-3.3c0.2-1,0.5-1.9,1-2.7
		c0.4-0.8,1-1.3,1.7-1.8C67.5,21.9,68.3,21.7,69.3,21.7z M69.3,23.5c-0.7,0-1.2,0.2-1.6,0.6c-0.4,0.4-0.7,1-1,1.6
		c-0.2,0.7-0.4,1.4-0.5,2.1S66,29.4,66,30.1c0,0.7,0,1.4,0.1,2.2c0.1,0.8,0.3,1.5,0.5,2.1c0.2,0.6,0.6,1.2,1,1.6
		c0.4,0.4,1,0.6,1.6,0.6c0.6,0,1.2-0.2,1.6-0.6c0.4-0.4,0.7-1,1-1.6c0.2-0.6,0.4-1.3,0.5-2.1c0.1-0.8,0.1-1.5,0.1-2.2
		c0-0.7,0-1.4-0.1-2.2c-0.1-0.8-0.3-1.5-0.5-2.1c-0.2-0.7-0.6-1.2-1-1.6C70.4,23.7,69.9,23.5,69.3,23.5z"/>
	<path class="st0" d="M87.8,38H77.5v-2.1l6.3-6.3c0.5-0.5,0.9-1,1.2-1.5c0.3-0.5,0.5-1.1,0.5-1.8c0-0.4-0.1-0.8-0.2-1.1
		c-0.1-0.3-0.4-0.6-0.6-0.9c-0.3-0.2-0.6-0.4-0.9-0.5c-0.3-0.1-0.7-0.2-1.1-0.2c-0.8,0-1.5,0.3-2,0.8c-0.5,0.5-0.9,1.2-1,2l-2.1-0.4
		c0.1-0.6,0.3-1.2,0.6-1.7c0.3-0.5,0.7-1,1.1-1.3c0.4-0.4,1-0.7,1.6-0.9c0.6-0.2,1.2-0.3,1.9-0.3c0.7,0,1.3,0.1,1.9,0.3
		c0.6,0.2,1.1,0.5,1.6,0.9c0.5,0.4,0.8,0.8,1.1,1.4c0.3,0.6,0.4,1.2,0.4,2c0,0.5-0.1,1-0.2,1.4c-0.1,0.4-0.3,0.8-0.5,1.2
		c-0.2,0.4-0.5,0.8-0.8,1.1c-0.3,0.4-0.6,0.7-1,1l-5.2,5h7.8V38z"/>
	<path class="st0" d="M96.4,21.7c0.9,0,1.8,0.2,2.4,0.7c0.7,0.4,1.2,1,1.7,1.8c0.4,0.8,0.8,1.6,1,2.7c0.2,1,0.3,2.1,0.3,3.3
		c0,1.2-0.1,2.3-0.3,3.3c-0.2,1-0.5,1.9-1,2.6c-0.4,0.8-1,1.3-1.7,1.8c-0.7,0.4-1.5,0.7-2.4,0.7s-1.8-0.2-2.4-0.7
		c-0.7-0.4-1.3-1-1.7-1.8c-0.4-0.8-0.8-1.6-1-2.6c-0.2-1-0.3-2.1-0.3-3.3c0-1.2,0.1-2.2,0.3-3.3c0.2-1,0.5-1.9,1-2.7
		c0.4-0.8,1-1.3,1.7-1.8C94.6,21.9,95.5,21.7,96.4,21.7z M96.4,23.5c-0.7,0-1.2,0.2-1.6,0.6c-0.4,0.4-0.7,1-1,1.6
		c-0.2,0.7-0.4,1.4-0.5,2.1c-0.1,0.8-0.1,1.5-0.1,2.2c0,0.7,0,1.4,0.1,2.2c0.1,0.8,0.3,1.5,0.5,2.1c0.2,0.6,0.6,1.2,1,1.6
		c0.4,0.4,1,0.6,1.6,0.6c0.6,0,1.2-0.2,1.6-0.6c0.4-0.4,0.7-1,1-1.6c0.2-0.6,0.4-1.3,0.5-2.1c0.1-0.8,0.1-1.5,0.1-2.2
		c0-0.7,0-1.4-0.1-2.2c-0.1-0.8-0.3-1.5-0.5-2.1c-0.2-0.7-0.6-1.2-1-1.6C97.6,23.7,97,23.5,96.4,23.5z"/>
</g>
</svg>
