<?xml version="1.0" encoding="utf-8"?>
<!-- Generator: Adobe Illustrator 23.0.2, SVG Export Plug-In . SVG Version: 6.00 Build 0)  -->
<svg version="1.1" id="Laag_1" xmlns="http://www.w3.org/2000/svg" xmlns:xlink="http://www.w3.org/1999/xlink" x="0px" y="0px"
	 width="124.28px" height="12.42px" viewBox="0 0 124.28 12.42" style="enable-background:new 0 0 124.28 12.42;"
	 xml:space="preserve">
<style type="text/css">
	.st0{fill:#FFFFFF;}
</style>
<g>
	<polygon class="st0" points="3.95,1.83 6.08,3.92 -0.07,3.92 -0.07,6.24 6.08,6.24 3.95,8.33 5.63,10 10.58,5.08 5.63,0.17 	"/>
	<path class="st0" d="M23.28,0.92c-0.31-0.3-0.69-0.53-1.14-0.69C21.69,0.08,21.15,0,20.53,0H16v10.01h2.54V6.66h2.35
		c0.52,0,0.99-0.08,1.41-0.25c0.42-0.16,0.78-0.39,1.08-0.68c0.3-0.29,0.52-0.63,0.68-1.04s0.24-0.84,0.24-1.32
		c0-0.5-0.09-0.97-0.26-1.39S23.61,1.22,23.28,0.92z M21.42,4.34c-0.24,0.24-0.59,0.36-1.04,0.36h-1.84V2.09h1.84
		c0.45,0,0.8,0.11,1.04,0.34s0.37,0.54,0.37,0.95S21.67,4.1,21.42,4.34z"/>
	<rect x="25.06" class="st0" width="2.32" height="10.01"/>
	<path class="st0" d="M35,8.89V5.28c0-0.45-0.08-0.84-0.23-1.19c-0.15-0.35-0.38-0.63-0.69-0.85c-0.26-0.2-0.58-0.34-0.96-0.44
		c-0.38-0.1-0.84-0.15-1.38-0.15s-1.02,0.07-1.42,0.2s-0.74,0.31-1.01,0.53c-0.27,0.22-0.47,0.49-0.61,0.78
		c-0.14,0.3-0.22,0.62-0.23,0.95h2.11c0.04-0.3,0.15-0.53,0.34-0.69c0.19-0.16,0.46-0.24,0.83-0.24c0.35,0,0.6,0.07,0.75,0.21
		c0.15,0.14,0.23,0.33,0.23,0.56c0,0.24-0.14,0.42-0.41,0.52c-0.27,0.1-0.75,0.2-1.42,0.28c-0.38,0.05-0.73,0.12-1.06,0.21
		c-0.33,0.09-0.63,0.23-0.88,0.4c-0.25,0.17-0.45,0.39-0.6,0.66c-0.15,0.27-0.22,0.6-0.22,0.99c0,0.35,0.06,0.67,0.18,0.94
		c0.12,0.27,0.29,0.5,0.51,0.69c0.22,0.19,0.48,0.33,0.78,0.42c0.3,0.09,0.64,0.14,0.99,0.14c0.54,0,0.98-0.09,1.32-0.27
		c0.33-0.18,0.61-0.42,0.82-0.71h0.03c0.03,0.19,0.06,0.35,0.1,0.48c0.04,0.14,0.08,0.24,0.14,0.32h2.23v-0.1
		c-0.1-0.07-0.17-0.18-0.2-0.34C35.01,9.41,35,9.18,35,8.89z M32.8,7.45c0,0.39-0.13,0.7-0.4,0.94s-0.62,0.35-1.05,0.35
		c-0.28,0-0.52-0.06-0.7-0.18c-0.19-0.12-0.28-0.33-0.28-0.62c0-0.27,0.1-0.47,0.3-0.61c0.2-0.14,0.52-0.25,0.96-0.36
		c0.23-0.06,0.45-0.11,0.65-0.17c0.2-0.06,0.38-0.13,0.53-0.2V7.45z"/>
	<path class="st0" d="M42.43,3.39c-0.22-0.24-0.48-0.42-0.79-0.56c-0.31-0.14-0.66-0.2-1.06-0.2c-0.51,0-0.94,0.1-1.29,0.3
		c-0.35,0.2-0.66,0.5-0.94,0.89h-0.04V2.84h-2.21v7.17h2.3V6.05c0-0.45,0.11-0.81,0.35-1.09c0.23-0.28,0.54-0.42,0.92-0.42
		c0.38,0,0.66,0.12,0.84,0.35s0.28,0.54,0.28,0.92v4.2h2.3V5.35c0-0.4-0.06-0.77-0.17-1.1S42.65,3.63,42.43,3.39z"/>
	<path class="st0" d="M52.64,3.39c-0.22-0.24-0.48-0.42-0.79-0.56c-0.31-0.14-0.66-0.2-1.06-0.2c-0.51,0-0.94,0.1-1.29,0.3
		c-0.35,0.2-0.66,0.5-0.94,0.89h-0.04V2.84h-2.21v7.17h2.3V6.05c0-0.45,0.11-0.81,0.35-1.09c0.23-0.28,0.54-0.42,0.92-0.42
		c0.38,0,0.66,0.12,0.84,0.35s0.28,0.54,0.28,0.92v4.2h2.3V5.35c0-0.4-0.06-0.77-0.17-1.1S52.86,3.63,52.64,3.39z"/>
	<path class="st0" d="M58.92,6.85c0,0.43-0.11,0.78-0.34,1.04c-0.23,0.27-0.54,0.4-0.93,0.4c-0.37,0-0.64-0.11-0.82-0.32
		c-0.18-0.21-0.27-0.51-0.27-0.9V2.84h-2.28v4.7c0,0.8,0.21,1.45,0.64,1.94c0.43,0.49,1.06,0.74,1.89,0.74
		c0.51,0,0.93-0.09,1.26-0.28c0.33-0.19,0.63-0.46,0.89-0.81h0.04v0.88h2.2V2.84h-2.3V6.85z"/>
	<path class="st0" d="M64.5,9.95c0,0.2-0.03,0.34-0.08,0.45c-0.05,0.1-0.13,0.18-0.23,0.22c-0.1,0.05-0.23,0.07-0.38,0.08
		c-0.16,0.01-0.33,0.01-0.53,0.01v1.58c0.18,0.04,0.39,0.07,0.63,0.08s0.46,0.03,0.66,0.03c0.35,0,0.66-0.04,0.94-0.13
		s0.52-0.23,0.73-0.43c0.17-0.18,0.3-0.4,0.4-0.67s0.15-0.64,0.15-1.12V2.84h-2.3V9.95z"/>
	<rect x="64.5" class="st0" width="2.3" height="1.85"/>
	<path class="st0" d="M74.7,5.02c-0.21-0.6-0.53-1.1-0.96-1.49c-0.31-0.28-0.67-0.5-1.08-0.66c-0.41-0.16-0.87-0.24-1.39-0.24
		c-0.55,0-1.06,0.1-1.51,0.29s-0.84,0.46-1.17,0.8s-0.58,0.74-0.76,1.2s-0.27,0.96-0.27,1.49c0,0.54,0.09,1.04,0.27,1.51
		s0.43,0.87,0.76,1.21s0.73,0.61,1.21,0.8c0.48,0.19,1.01,0.29,1.61,0.29c0.46,0,0.88-0.06,1.25-0.17c0.37-0.11,0.71-0.28,1.01-0.49
		c0.32-0.21,0.58-0.47,0.79-0.76s0.35-0.6,0.42-0.93h-2.24c-0.1,0.22-0.25,0.4-0.45,0.52s-0.45,0.19-0.75,0.19
		c-0.48,0-0.85-0.14-1.11-0.42c-0.26-0.28-0.43-0.66-0.51-1.15h5.18C75.02,6.29,74.91,5.62,74.7,5.02z M69.84,5.66
		c0.08-0.43,0.23-0.77,0.46-1.02s0.57-0.38,1.01-0.38c0.38,0,0.69,0.13,0.93,0.38s0.39,0.59,0.44,1.02H69.84z"/>
	<path class="st0" d="M84.6,3.72c-0.27-0.34-0.59-0.61-0.97-0.8s-0.8-0.29-1.27-0.29c-0.5,0-0.91,0.09-1.23,0.28
		s-0.6,0.43-0.82,0.74h-0.04V0h-2.3v10.01h2.2V9.1h0.03c0.22,0.37,0.53,0.66,0.9,0.85c0.38,0.19,0.8,0.29,1.28,0.29
		c0.46,0,0.88-0.09,1.26-0.26s0.7-0.42,0.97-0.75c0.27-0.33,0.47-0.73,0.62-1.2c0.15-0.47,0.22-1,0.22-1.6
		c0-0.54-0.07-1.04-0.22-1.5S84.87,4.06,84.6,3.72z M82.76,7.89c-0.24,0.36-0.58,0.54-1.04,0.54c-0.48,0-0.85-0.18-1.13-0.55
		c-0.27-0.37-0.41-0.85-0.41-1.45c0-0.59,0.12-1.08,0.37-1.47c0.25-0.39,0.63-0.59,1.13-0.59c0.47,0,0.82,0.19,1.06,0.56
		s0.36,0.87,0.36,1.48C83.12,7.04,83,7.53,82.76,7.89z"/>
	<path class="st0" d="M93.02,5.02c-0.21-0.6-0.53-1.1-0.96-1.49c-0.31-0.28-0.67-0.5-1.08-0.66c-0.41-0.16-0.87-0.24-1.39-0.24
		c-0.55,0-1.06,0.1-1.51,0.29c-0.45,0.19-0.84,0.46-1.17,0.8c-0.33,0.34-0.58,0.74-0.76,1.2c-0.18,0.46-0.27,0.96-0.27,1.49
		c0,0.54,0.09,1.04,0.27,1.51c0.18,0.47,0.43,0.87,0.76,1.21c0.33,0.34,0.73,0.61,1.21,0.8c0.48,0.19,1.01,0.29,1.61,0.29
		c0.46,0,0.88-0.06,1.25-0.17c0.37-0.11,0.71-0.28,1.01-0.49c0.32-0.21,0.58-0.47,0.79-0.76c0.21-0.29,0.35-0.6,0.42-0.93h-2.24
		c-0.1,0.22-0.25,0.4-0.45,0.52s-0.45,0.19-0.75,0.19c-0.48,0-0.85-0.14-1.11-0.42c-0.26-0.28-0.43-0.66-0.51-1.15h5.18
		C93.34,6.29,93.24,5.62,93.02,5.02z M88.16,5.66c0.07-0.43,0.23-0.77,0.46-1.02c0.23-0.25,0.57-0.38,1.01-0.38
		c0.38,0,0.69,0.13,0.93,0.38S90.96,5.23,91,5.66H88.16z"/>
	<path class="st0" d="M97.31,8.25c-0.12,0-0.24,0.01-0.35,0.01h-0.41V8.22c0.09-0.1,0.19-0.2,0.28-0.29l0.45-0.45l2.73-2.95V2.86
		H94.1v1.74h2.25h0.52c0.11,0,0.23,0,0.37-0.01v0.04C97.16,4.7,97.08,4.79,97,4.87c-0.07,0.07-0.13,0.14-0.21,0.21
		s-0.13,0.12-0.18,0.17l-2.86,3.07v1.69h6.46V8.25h-2.61C97.54,8.25,97.44,8.25,97.31,8.25z"/>
	<path class="st0" d="M107.22,3.73c-0.33-0.34-0.74-0.61-1.21-0.8c-0.47-0.19-1-0.29-1.58-0.29s-1.11,0.1-1.58,0.29
		c-0.47,0.19-0.88,0.46-1.22,0.8c-0.34,0.34-0.6,0.74-0.78,1.2s-0.27,0.96-0.27,1.5c0,0.54,0.09,1.04,0.27,1.5
		c0.18,0.46,0.44,0.86,0.78,1.2c0.34,0.34,0.74,0.61,1.22,0.8c0.47,0.19,1,0.29,1.58,0.29s1.11-0.1,1.58-0.29
		c0.47-0.19,0.88-0.46,1.21-0.8c0.33-0.34,0.59-0.74,0.77-1.2c0.18-0.46,0.28-0.96,0.28-1.5c0-0.54-0.09-1.04-0.28-1.5
		C107.81,4.47,107.55,4.07,107.22,3.73z M105.56,8.01c-0.26,0.4-0.64,0.59-1.15,0.59c-0.51,0-0.89-0.2-1.14-0.59
		c-0.25-0.4-0.38-0.92-0.38-1.58s0.13-1.18,0.38-1.58c0.25-0.4,0.63-0.6,1.14-0.6c0.51,0,0.89,0.2,1.15,0.6
		c0.26,0.4,0.39,0.93,0.39,1.58S105.82,7.62,105.56,8.01z"/>
	<path class="st0" d="M115.85,5.02c-0.21-0.6-0.53-1.1-0.96-1.49c-0.31-0.28-0.67-0.5-1.08-0.66c-0.41-0.16-0.87-0.24-1.39-0.24
		c-0.55,0-1.06,0.1-1.51,0.29s-0.84,0.46-1.17,0.8s-0.58,0.74-0.76,1.2s-0.27,0.96-0.27,1.49c0,0.54,0.09,1.04,0.27,1.51
		s0.43,0.87,0.76,1.21s0.73,0.61,1.21,0.8s1.01,0.29,1.61,0.29c0.46,0,0.88-0.06,1.25-0.17s0.71-0.28,1.01-0.49
		c0.32-0.21,0.58-0.47,0.79-0.76s0.35-0.6,0.42-0.93h-2.24c-0.1,0.22-0.25,0.4-0.45,0.52c-0.2,0.13-0.45,0.19-0.75,0.19
		c-0.48,0-0.85-0.14-1.11-0.42c-0.26-0.28-0.43-0.66-0.51-1.15h5.18C116.16,6.29,116.06,5.62,115.85,5.02z M110.99,5.66
		c0.08-0.43,0.23-0.77,0.46-1.02c0.23-0.25,0.57-0.38,1.01-0.38c0.38,0,0.69,0.13,0.93,0.38s0.39,0.59,0.44,1.02H110.99z"/>
	<polygon class="st0" points="121.45,5.53 123.98,2.84 121.34,2.84 119.2,5.26 119.2,0 116.93,0 116.93,10.01 119.2,10.01 
		119.2,7.81 119.89,7.08 121.62,10.01 124.28,10.01 	"/>
</g>
</svg>
