<?xml version="1.0" encoding="utf-8"?>
<!-- Generator: Adobe Illustrator 24.3.0, SVG Export Plug-In . SVG Version: 6.00 Build 0)  -->
<svg version="1.1" id="Laag_1" xmlns="http://www.w3.org/2000/svg" xmlns:xlink="http://www.w3.org/1999/xlink" x="0px" y="0px"
	 width="88.8px" height="45.5px" viewBox="0 0 88.8 45.5" style="enable-background:new 0 0 88.8 45.5;" xml:space="preserve">
<g>
	<polygon style="fill:#B0AFAE;" points="2.1,11.4 3.2,11.4 3.2,0 1,0 0,1.1 2.1,1.1 	"/>
	<polygon style="fill:#B0AFAE;" points="7.1,11.4 8.2,11.4 8.2,0 5.9,0 5,1.1 7.1,1.1 	"/>
	<rect x="14.9" y="5.1" style="fill:#B0AFAE;" width="6.8" height="1.2"/>
	<polygon style="fill:#B0AFAE;" points="29.1,11.4 30.2,11.4 30.2,0 27.9,0 26.9,1.1 29.1,1.1 	"/>
	<path style="fill:#B0AFAE;" d="M36.1,10.4c-1.3,0-2.3-0.9-2.6-2.1h-1.2c0,1.7,1.7,3.2,3.7,3.2c2.1,0,3.8-1.6,3.8-3.6
		c0-2.2-1.5-3.9-3.6-3.9c-0.9,0-1.6,0.3-2.1,0.7l0.7-3.6h4.3V0h-5.3l-1.1,6l1.1,0.3c0.5-0.7,1.3-1.2,2.3-1.2c1.5,0,2.6,1.2,2.6,2.7
		C38.8,9.2,37.6,10.4,36.1,10.4z"/>
	<polygon style="fill:#B0AFAE;" points="1.5,17 1.5,28.4 2.7,28.4 2.7,19.1 9.9,28.4 11,28.4 11,17 9.8,17 9.8,26.3 2.5,17 	"/>
	<path style="fill:#B0AFAE;" d="M25.1,22.7c0-3.3-2.6-5.9-5.9-5.9s-5.9,2.6-5.9,5.9s2.6,5.9,5.9,5.9S25.1,26,25.1,22.7z M19.2,27.4
		c-2.6,0-4.6-2.1-4.6-4.7s2-4.7,4.6-4.7s4.6,2.1,4.6,4.7S21.9,27.4,19.2,27.4z"/>
	<polygon style="fill:#B0AFAE;" points="31.1,26.4 27.1,17 25.7,17 30.6,28.4 31.6,28.4 36.5,17 35.2,17 	"/>
	<polygon style="fill:#B0AFAE;" points="38.3,28.4 44.8,28.4 44.8,27.2 39.5,27.2 39.5,23.1 43.8,23.1 43.8,21.9 39.5,21.9 
		39.5,18.1 44.8,18.1 44.8,17 38.3,17 	"/>
	<polygon style="fill:#B0AFAE;" points="52.6,22.8 48.3,17 47.1,17 47.1,28.4 48.4,28.4 48.4,19.1 52.6,24.8 56.9,19.1 56.9,28.4 
		58.1,28.4 58.1,17 57,17 	"/>
	<path style="fill:#B0AFAE;" d="M67,22.3c0.8-0.4,1.3-1.2,1.3-2.4c0-1.5-1.2-2.9-3.4-2.9h-3.6v11.4h3.8c2.4,0,3.9-1.4,3.9-3.3
		C69,23.5,68.1,22.7,67,22.3z M62.5,18.1H65c1.3,0,2.1,0.9,2.1,1.9c0,1.1-0.8,1.9-2.1,1.9h-2.4V18.1z M65.3,27.3h-2.8V23h2.8
		c1.7,0,2.5,0.9,2.5,2.1C67.8,26.4,67,27.3,65.3,27.3z"/>
	<polygon style="fill:#B0AFAE;" points="71.4,28.4 77.8,28.4 77.8,27.2 72.6,27.2 72.6,23.1 76.9,23.1 76.9,21.9 72.6,21.9 
		72.6,18.1 77.8,18.1 77.8,17 71.4,17 	"/>
	<path style="fill:#B0AFAE;" d="M84.3,23.1c1.8-0.1,3-1.3,3-3c0-1.9-1.3-3.1-3.4-3.1h-3.7v11.4h1.2v-5.3h1.3l4.5,5.3h1.6L84.3,23.1z
		 M81.4,22v-3.8h2.4c1.4,0,2.3,0.7,2.3,1.9S85.2,22,83.8,22H81.4z"/>
	<path style="fill:#B0AFAE;" d="M5.1,41c2-1.4,2.7-2.4,2.7-4c0-2.2-1.6-3.3-3.5-3.3c-2,0-3.7,1.4-3.7,3.5h1.2c0-1.7,1.2-2.4,2.6-2.4
		c1.3,0,2.3,0.8,2.3,2.1c0,1.5-0.7,2-2.1,3.1c-1.7,1.3-3.8,2.4-3.8,4.8v0.5h7.2v-1.1H2C2.2,42.8,3.6,42.1,5.1,41z"/>
	<path style="fill:#B0AFAE;" d="M13.7,33.8c-2.3,0-4,1.7-4,4.2v3.3c0,2.5,1.7,4.2,4,4.2s4-1.7,4-4.2V38C17.6,35.5,16,33.8,13.7,33.8
		z M16.5,41.3c0,2-1.2,3.1-2.8,3.1c-1.6,0-2.8-1.2-2.8-3.1V38c0-2,1.2-3.1,2.8-3.1c1.6,0,2.8,1.2,2.8,3.1V41.3z"/>
	<path style="fill:#B0AFAE;" d="M23.9,41c2-1.4,2.7-2.4,2.7-4c0-2.2-1.6-3.3-3.5-3.3c-2,0-3.7,1.4-3.7,3.5h1.2
		c0-1.7,1.2-2.4,2.6-2.4c1.3,0,2.3,0.8,2.3,2.1c0,1.5-0.7,2-2.1,3.1c-1.7,1.3-3.8,2.4-3.8,4.8v0.5h7.2v-1.1h-6
		C21,42.8,22.4,42.1,23.9,41z"/>
	<path style="fill:#B0AFAE;" d="M32.4,33.8c-2.3,0-4,1.7-4,4.2v3.3c0,2.5,1.7,4.2,4,4.2s4-1.7,4-4.2V38
		C36.4,35.5,34.7,33.8,32.4,33.8z M35.3,41.3c0,2-1.2,3.1-2.8,3.1c-1.6,0-2.8-1.2-2.8-3.1V38c0-2,1.2-3.1,2.8-3.1
		c1.6,0,2.8,1.2,2.8,3.1V41.3z"/>
</g>
</svg>
