<?xml version="1.0" encoding="utf-8"?>
<!-- Generator: Adobe Illustrator 22.0.0, SVG Export Plug-In . SVG Version: 6.00 Build 0)  -->
<svg version="1.1" id="Laag_1" xmlns="http://www.w3.org/2000/svg" xmlns:xlink="http://www.w3.org/1999/xlink" x="0px" y="0px"
	 viewBox="0 0 99.2 12.1" style="enable-background:new 0 0 99.2 12.1;" xml:space="preserve">
<style type="text/css">
	.st0{fill:#FFFFFF;}
</style>
<g>
	<path class="st0" d="M9,10.8H6.8L4.6,5.4L2.5,8.1v2.7H0.6V0.2h1.9v5.6C2.8,5.4,2.9,5.1,3,5l3.5-4.8h1.9L6,3.7L9,10.8z"/>
	<path class="st0" d="M13.9,11c-1.4,0-2.5-0.5-3.3-1.6S9.5,7,9.5,5.5c0-1.6,0.4-2.9,1.3-3.9C11.6,0.5,12.7,0,14,0
		c1.4,0,2.5,0.5,3.3,1.6s1.2,2.4,1.2,3.9c0,1.6-0.4,3-1.3,4S15.3,11,13.9,11z M14,9.4c0.7,0,1.3-0.3,1.8-0.9c0.4-0.5,0.6-1.5,0.6-3
		c0-1.2-0.2-2.2-0.6-2.9s-1-1-1.8-1c-1.6,0-2.5,1.3-2.5,4c0,1.3,0.2,2.3,0.6,2.9C12.6,9.1,13.2,9.4,14,9.4z"/>
	<path class="st0" d="M24.3,11c-1.4,0-2.5-0.5-3.3-1.6S19.8,7,19.8,5.5c0-1.6,0.4-2.9,1.3-3.9S23,0,24.3,0c1.4,0,2.5,0.5,3.3,1.6
		s1.2,2.4,1.2,3.9c0,1.6-0.4,3-1.3,4S25.6,11,24.3,11z M24.3,9.4c0.7,0,1.3-0.3,1.8-0.9c0.4-0.5,0.6-1.5,0.6-3
		c0-1.2-0.2-2.2-0.6-2.9s-1-1-1.8-1c-1.6,0-2.5,1.3-2.5,4c0,1.3,0.2,2.3,0.6,2.9C22.9,9.1,23.5,9.4,24.3,9.4z"/>
	<path class="st0" d="M32.5,10.8h-1.9V0.2H35c1.2,0,2.2,0.3,2.8,0.9s0.9,1.4,0.9,2.2c0,1-0.3,1.8-1,2.4s-1.5,0.9-2.5,0.9h-2.7V10.8z
		 M32.5,5h2.3c0.6,0,1-0.1,1.4-0.4c0.3-0.3,0.5-0.7,0.5-1.2c0-0.4-0.1-0.8-0.4-1.1C36,2,35.5,1.8,34.7,1.8h-2.1V5H32.5z"/>
	<path class="st0" d="M47.9,10.8h-2.1v-9H43V0.2h7.7v1.6h-2.8V10.8z"/>
	<path class="st0" d="M53.9,10.8H52V0.2h1.9V10.8z"/>
	<path class="st0" d="M62.2,7.1L64,7.3c-0.1,1.1-0.5,1.9-1.2,2.6s-1.6,1-2.8,1c-1,0-1.8-0.2-2.4-0.7c-0.6-0.5-1.1-1.2-1.4-2
		c-0.3-0.8-0.5-1.8-0.5-2.8c0-1.6,0.4-2.9,1.2-4S58.6,0,60,0c1.1,0,1.9,0.3,2.6,1s1.1,1.6,1.3,2.8L62.2,4c-0.3-1.6-1.1-2.4-2.2-2.4
		c-0.7,0-1.3,0.3-1.7,1s-0.6,1.6-0.6,2.9s0.2,2.3,0.6,2.9c0.4,0.7,1,1,1.7,1c0.6,0,1-0.2,1.4-0.7C61.9,8.3,62.1,7.7,62.2,7.1z"/>
	<path class="st0" d="M73.9,10.8h-2.1l-2.3-5.4l-2.1,2.7v2.7h-1.9V0.2h1.9v5.6c0.2-0.4,0.4-0.6,0.5-0.8l3.5-4.8h1.9l-2.5,3.5
		L73.9,10.8z"/>
	<path class="st0" d="M82.2,10.8h-6.9V0.2h6.9v1.6h-4.9v2.9h4v1.5h-4v3h5L82.2,10.8L82.2,10.8z"/>
	<path class="st0" d="M87.6,10.8h-2.1v-9h-2.8V0.2h7.7v1.6h-2.8C87.6,1.8,87.6,10.8,87.6,10.8z"/>
	<path class="st0" d="M90.6,8.3l1.9-0.4c0.2,1.1,1.1,1.6,2.6,1.6c0.7,0,1.2-0.1,1.6-0.4c0.4-0.3,0.6-0.6,0.6-1
		c0-0.3-0.1-0.6-0.3-0.8c-0.2-0.2-0.5-0.4-1.1-0.6l-2-0.5c-0.7-0.2-1.2-0.4-1.5-0.6s-0.6-0.6-0.8-1c-0.2-0.4-0.3-0.9-0.3-1.4
		c0-1,0.4-1.7,1.1-2.3S93.9,0,95,0c0.9,0,1.7,0.2,2.5,0.6c0.7,0.4,1.2,1,1.4,1.7L97,2.8c-0.3-0.8-0.9-1.2-2-1.2
		c-0.6,0-1.1,0.1-1.4,0.4s-0.5,0.6-0.5,1c0,0.6,0.5,1,1.5,1.3l1.8,0.5c1.1,0.3,1.8,0.7,2.2,1.2s0.6,1.1,0.6,1.8c0,1-0.4,1.9-1.2,2.5
		S96.3,11,95,11c-1.1,0-2-0.2-2.8-0.7C91.4,9.9,90.9,9.2,90.6,8.3z"/>
</g>
</svg>
