<?xml version="1.0" encoding="utf-8"?>
<!-- Generator: Adobe Illustrator 24.0.0, SVG Export Plug-In . SVG Version: 6.00 Build 0)  -->
<svg version="1.1" id="Laag_1" xmlns="http://www.w3.org/2000/svg" xmlns:xlink="http://www.w3.org/1999/xlink" x="0px" y="0px"
	 width="146px" height="136.6px" viewBox="0 0 146 136.6" style="enable-background:new 0 0 146 136.6;" xml:space="preserve">
<style type="text/css">
	.st0{fill:#1D1D1B;}
	.st1{fill:#34B080;}
</style>
<g>
	<path class="st0" d="M1.7,19.6V1H10c2.1,0,3.7,0.4,4.7,1.3c1,0.9,1.6,2.1,1.6,3.6V6c0,2.1-1.1,3.5-3.2,4c2.5,0.4,3.7,1.9,3.7,4.4
		v0.1c0,3.5-2.3,5.2-6.8,5.2H1.7z M6.9,8.4h2c0.8,0,1.4-0.1,1.8-0.4c0.3-0.3,0.5-0.8,0.5-1.5V6.4c0-0.6-0.2-1.1-0.5-1.4
		c-0.4-0.3-0.9-0.4-1.7-0.4h-2V8.4z M6.9,16h2.2c1.7,0,2.5-0.7,2.5-2.2v-0.1c0-1.4-0.9-2.1-2.6-2.1H6.9V16z"/>
	<path class="st0" d="M24.5,19.9c-2.2,0-4-0.6-5.3-1.9c-1.4-1.2-2.1-2.9-2.1-5.1v-0.2c0-2.1,0.7-3.9,2.1-5.2c1.4-1.3,3.2-2,5.3-2
		c2,0,3.7,0.6,5,1.8c1.3,1.2,2,2.9,2,5.3v1.2h-9.6c0.1,0.9,0.4,1.6,0.8,2.1c0.5,0.5,1.2,0.7,2,0.7c1.4,0,2.2-0.5,2.4-1.6h4.4
		c-0.2,1.5-0.9,2.7-2.1,3.6C28.1,19.5,26.5,19.9,24.5,19.9z M21.9,11.2h5c-0.1-1.7-0.9-2.6-2.4-2.6c-0.7,0-1.3,0.2-1.7,0.7
		C22.3,9.8,22,10.4,21.9,11.2z"/>
	<path class="st0" d="M36.1,19.9c-1.3,0-2.4-0.3-3.3-1c-0.9-0.7-1.3-1.7-1.3-3.1c0-3,2.4-4.5,7.3-4.5H40v-0.3c0-0.7-0.1-1.3-0.4-1.6
		c-0.3-0.4-0.7-0.5-1.4-0.5c-1.1,0-1.7,0.5-1.9,1.6H32c0.1-1.6,0.7-2.8,1.9-3.7c1.2-0.8,2.7-1.3,4.6-1.3c1.9,0,3.5,0.4,4.5,1.3
		c1.1,0.8,1.6,2.1,1.6,3.9v8.8h-4.5V18C39.3,19.3,38,19.9,36.1,19.9z M37.7,16.8c0.7,0,1.2-0.2,1.7-0.5c0.4-0.4,0.7-0.8,0.7-1.4V14
		h-1.2c-1,0-1.6,0.1-2.1,0.3c-0.4,0.2-0.6,0.6-0.6,1.2C36.1,16.4,36.6,16.8,37.7,16.8z"/>
	<path class="st0" d="M46.1,19.6V6h4.7v2.7c0.8-1.9,2.3-2.9,4.4-2.9v4.4c-2.9-0.1-4.4,0.9-4.4,3v6.5H46.1z"/>
</g>
<g>
	<path class="st1" d="M59.7,19.6V6h4.7v2.7c0.8-1.9,2.3-2.9,4.4-2.9v4.4c-2.9-0.1-4.4,0.9-4.4,3v6.5H59.7z"/>
	<path class="st1" d="M76.1,19.9c-2.2,0-4-0.6-5.3-1.9c-1.4-1.2-2.1-2.9-2.1-5.1v-0.2c0-2.1,0.7-3.9,2.1-5.2c1.4-1.3,3.2-2,5.3-2
		c2,0,3.7,0.6,5,1.8c1.3,1.2,2,2.9,2,5.3v1.2h-9.6c0.1,0.9,0.4,1.6,0.8,2.1c0.5,0.5,1.2,0.7,2,0.7c1.4,0,2.2-0.5,2.4-1.6H83
		c-0.2,1.5-0.9,2.7-2.1,3.6C79.8,19.5,78.2,19.9,76.1,19.9z M73.5,11.2h5c-0.1-1.7-0.9-2.6-2.4-2.6c-0.7,0-1.3,0.2-1.7,0.7
		C73.9,9.8,73.6,10.4,73.5,11.2z"/>
	<path class="st1" d="M88.8,19.9c-1.7,0-3-0.6-4.1-1.8c-1.1-1.2-1.6-2.9-1.6-5.2v-0.2c0-2.2,0.5-4,1.6-5.2c1.1-1.3,2.5-1.9,4.2-1.9
		c1.9,0,3.3,0.8,4.2,2.3V0h4.7v19.6h-4.7v-2.2c-0.4,0.7-0.9,1.4-1.7,1.8C90.7,19.7,89.8,19.9,88.8,19.9z M90.5,16.4
		c0.9,0,1.5-0.3,2-0.9c0.5-0.6,0.7-1.5,0.7-2.6v-0.2c0-1.1-0.2-2-0.7-2.6c-0.5-0.6-1.1-0.9-2-0.9c-1.8,0-2.7,1.2-2.7,3.5v0.2
		c0,1.1,0.2,2,0.7,2.6C89,16.1,89.6,16.4,90.5,16.4z"/>
	<path class="st1" d="M104.2,19.9c-1.7,0-3-0.6-4.1-1.8s-1.6-2.9-1.6-5.2v-0.2c0-2.2,0.5-4,1.6-5.2c1.1-1.3,2.5-1.9,4.2-1.9
		c1.9,0,3.3,0.8,4.2,2.3V0h4.7v19.6h-4.7v-2.2c-0.4,0.7-0.9,1.4-1.7,1.8C106.1,19.7,105.2,19.9,104.2,19.9z M105.9,16.4
		c0.9,0,1.5-0.3,2-0.9c0.5-0.6,0.7-1.5,0.7-2.6v-0.2c0-1.1-0.2-2-0.7-2.6c-0.5-0.6-1.1-0.9-2-0.9c-1.8,0-2.7,1.2-2.7,3.5v0.2
		c0,1.1,0.2,2,0.7,2.6C104.4,16.1,105.1,16.4,105.9,16.4z"/>
	<path class="st1" d="M121.3,19.9c-2.2,0-4-0.6-5.3-1.9c-1.4-1.2-2.1-2.9-2.1-5.1v-0.2c0-2.1,0.7-3.9,2.1-5.2c1.4-1.3,3.2-2,5.3-2
		c2,0,3.7,0.6,5,1.8c1.3,1.2,2,2.9,2,5.3v1.2h-9.6c0.1,0.9,0.4,1.6,0.8,2.1c0.5,0.5,1.2,0.7,2,0.7c1.4,0,2.2-0.5,2.4-1.6h4.4
		c-0.2,1.5-0.9,2.7-2.1,3.6C125,19.5,123.4,19.9,121.3,19.9z M118.7,11.2h5c-0.1-1.7-0.9-2.6-2.4-2.6c-0.7,0-1.3,0.2-1.7,0.7
		S118.8,10.4,118.7,11.2z"/>
</g>
<g>
	<path class="st0" d="M1.2,42V28.4h4.7v2.1c0.4-0.7,1-1.3,1.7-1.8c0.7-0.5,1.6-0.7,2.6-0.7c1.8,0,3,0.8,3.7,2.3
		c1.1-1.5,2.6-2.3,4.5-2.3c1.3,0,2.4,0.4,3.2,1.3c0.8,0.9,1.2,2.1,1.2,3.8V42h-4.7v-8.1c0-0.7-0.2-1.2-0.5-1.5
		c-0.3-0.3-0.7-0.5-1.3-0.5c-0.6,0-1.2,0.2-1.5,0.6c-0.4,0.4-0.6,1-0.6,1.7V42H9.7v-8.1c0-0.7-0.2-1.2-0.5-1.5C9,32,8.5,31.8,8,31.8
		c-0.6,0-1.2,0.2-1.5,0.6c-0.4,0.4-0.6,1-0.6,1.7V42H1.2z"/>
	<path class="st0" d="M30.9,42.3c-2.2,0-4-0.6-5.3-1.9c-1.4-1.2-2.1-2.9-2.1-5.1v-0.2c0-2.1,0.7-3.9,2.1-5.2c1.4-1.3,3.2-2,5.3-2
		c2,0,3.7,0.6,5,1.8c1.3,1.2,2,2.9,2,5.3v1.2h-9.6c0.1,0.9,0.4,1.6,0.8,2.1c0.5,0.5,1.2,0.7,2,0.7c1.4,0,2.2-0.5,2.4-1.6h4.4
		c-0.2,1.5-0.9,2.7-2.1,3.6C34.6,41.9,33,42.3,30.9,42.3z M28.3,33.6h5c-0.1-1.7-0.9-2.6-2.4-2.6c-0.7,0-1.3,0.2-1.7,0.7
		C28.7,32.2,28.4,32.8,28.3,33.6z"/>
	<path class="st0" d="M45.2,42.3c-2.2,0-4-0.6-5.3-1.9c-1.4-1.2-2.1-2.9-2.1-5.1v-0.2c0-2.1,0.7-3.9,2.1-5.2c1.4-1.3,3.2-2,5.3-2
		c2,0,3.7,0.6,5,1.8c1.3,1.2,2,2.9,2,5.3v1.2h-9.6c0.1,0.9,0.4,1.6,0.8,2.1c0.5,0.5,1.2,0.7,2,0.7c1.4,0,2.2-0.5,2.4-1.6h4.4
		c-0.2,1.5-0.9,2.7-2.1,3.6C48.9,41.9,47.3,42.3,45.2,42.3z M42.6,33.6h5c-0.1-1.7-0.9-2.6-2.4-2.6c-0.7,0-1.3,0.2-1.7,0.7
		C43,32.2,42.7,32.8,42.6,33.6z"/>
	<path class="st0" d="M52.9,42V28.4h4.7v2.7c0.8-1.9,2.3-2.9,4.4-2.9v4.4c-2.9-0.1-4.4,0.9-4.4,3V42H52.9z"/>
	<path class="st0" d="M71.7,42.3c-1.7,0-3-0.6-4.1-1.8c-1.1-1.2-1.6-2.9-1.6-5.2v-0.2c0-2.2,0.5-4,1.6-5.2c1.1-1.3,2.5-1.9,4.2-1.9
		c1.9,0,3.3,0.8,4.2,2.3v-7.9h4.7V42h-4.7v-2.2c-0.4,0.7-0.9,1.4-1.7,1.8S72.7,42.3,71.7,42.3z M73.3,38.7c0.9,0,1.5-0.3,2-0.9
		c0.5-0.6,0.7-1.5,0.7-2.6V35c0-1.1-0.2-2-0.7-2.6c-0.5-0.6-1.1-0.9-2-0.9c-1.8,0-2.7,1.2-2.7,3.5v0.2c0,1.1,0.2,2,0.7,2.6
		C71.9,38.4,72.5,38.7,73.3,38.7z"/>
	<path class="st0" d="M85.9,42.3c-1.3,0-2.4-0.3-3.3-1c-0.9-0.7-1.3-1.7-1.3-3.1c0-3,2.4-4.5,7.3-4.5h1.3v-0.3
		c0-0.7-0.1-1.3-0.4-1.6c-0.3-0.4-0.7-0.5-1.4-0.5c-1.1,0-1.7,0.5-1.9,1.6h-4.4c0.1-1.6,0.7-2.8,1.9-3.7c1.2-0.8,2.7-1.3,4.6-1.3
		c1.9,0,3.5,0.4,4.5,1.3c1.1,0.8,1.6,2.1,1.6,3.9V42H90v-1.6C89.1,41.7,87.8,42.3,85.9,42.3z M87.5,39.2c0.7,0,1.2-0.2,1.7-0.5
		c0.4-0.4,0.7-0.8,0.7-1.4v-0.8h-1.2c-1,0-1.6,0.1-2.1,0.3c-0.4,0.2-0.6,0.6-0.6,1.2C85.9,38.7,86.5,39.2,87.5,39.2z"/>
	<path class="st0" d="M95.9,42V28.4h4.7v2.2c0.4-0.8,1-1.4,1.7-1.9C103,28.2,104,28,105,28c1.4,0,2.5,0.4,3.3,1.3
		c0.8,0.9,1.2,2.1,1.2,3.8V42h-4.7v-7.9c0-1.5-0.7-2.3-2-2.3c-0.7,0-1.3,0.2-1.7,0.7c-0.4,0.4-0.6,1.1-0.6,1.9V42H95.9z"/>
</g>
<g>
	<path class="st0" d="M4.2,64.4V51l-3.5,2.2v-4.5l4.3-3h4.6v18.6H4.2z"/>
	<path class="st0" d="M19.7,64.7c-2.6,0-4.7-0.8-6.2-2.4c-1.5-1.6-2.3-3.9-2.3-6.8v-0.8c0-2.9,0.8-5.1,2.4-6.8s3.7-2.5,6.2-2.5
		c2.6,0,4.6,0.8,6.2,2.4c1.6,1.6,2.4,3.8,2.4,6.7v0.7c0,2.9-0.8,5.2-2.3,6.9C24.5,63.9,22.4,64.7,19.7,64.7z M19.9,60.5
		c1.1,0,1.9-0.4,2.5-1.3c0.5-0.8,0.8-2.1,0.8-3.9v-0.8c0-1.7-0.3-3-0.8-3.9c-0.5-0.9-1.3-1.3-2.5-1.3c-2.2,0-3.3,1.7-3.3,5.1v0.8
		c0,1.7,0.3,3,0.8,3.9C17.9,60.1,18.7,60.5,19.9,60.5z"/>
	<path class="st0" d="M37.5,64.7c-2.6,0-4.7-0.8-6.2-2.4c-1.5-1.6-2.3-3.9-2.3-6.8v-0.8c0-2.9,0.8-5.1,2.4-6.8
		c1.6-1.6,3.7-2.5,6.2-2.5c2.6,0,4.6,0.8,6.2,2.4c1.6,1.6,2.4,3.8,2.4,6.7v0.7c0,2.9-0.8,5.2-2.3,6.9C42.3,63.9,40.2,64.7,37.5,64.7
		z M37.7,60.5c1.1,0,1.9-0.4,2.5-1.3c0.5-0.8,0.8-2.1,0.8-3.9v-0.8c0-1.7-0.3-3-0.8-3.9c-0.5-0.9-1.3-1.3-2.5-1.3
		c-2.2,0-3.3,1.7-3.3,5.1v0.8c0,1.7,0.3,3,0.8,3.9C35.7,60.1,36.5,60.5,37.7,60.5z"/>
</g>
<g>
	<path class="st1" d="M51.1,64.4V44.7h4.7v11.4l3.7-5.4h4.9l-4.5,6.1l4.8,7.5h-5.2l-3.7-6v6H51.1z"/>
	<path class="st1" d="M76.3,62.8c-1.4,1.3-3.2,1.9-5.3,1.9c-2.2,0-3.9-0.6-5.3-1.9c-1.4-1.3-2.1-2.9-2.1-5.1v-0.2
		c0-2.2,0.7-3.9,2.1-5.2c1.4-1.3,3.2-2,5.4-2c2.1,0,3.9,0.6,5.3,1.9c1.4,1.3,2.1,3,2.1,5.1v0.2C78.4,59.8,77.7,61.5,76.3,62.8z
		 M71,61.2c0.9,0,1.5-0.3,2-0.9c0.5-0.6,0.7-1.5,0.7-2.6v-0.2c0-2.4-0.9-3.6-2.7-3.6c-0.9,0-1.5,0.3-2,0.9c-0.5,0.6-0.7,1.5-0.7,2.6
		v0.2C68.3,60,69.2,61.2,71,61.2z"/>
	<path class="st1" d="M83,64.7c-1.3,0-2.4-0.3-3.3-1c-0.9-0.7-1.3-1.7-1.3-3.1c0-3,2.4-4.5,7.3-4.5h1.3v-0.3c0-0.7-0.1-1.3-0.4-1.6
		c-0.3-0.4-0.7-0.5-1.4-0.5c-1.1,0-1.7,0.5-1.9,1.6h-4.4c0.1-1.6,0.7-2.8,1.9-3.7c1.2-0.8,2.7-1.3,4.6-1.3c1.9,0,3.5,0.4,4.5,1.3
		c1.1,0.8,1.6,2.1,1.6,3.9v8.8H87v-1.6C86.2,64.1,84.8,64.7,83,64.7z M84.6,61.5c0.7,0,1.2-0.2,1.7-0.5c0.4-0.4,0.7-0.8,0.7-1.4
		v-0.8h-1.2c-1,0-1.6,0.1-2.1,0.3c-0.4,0.2-0.6,0.6-0.6,1.2C83,61.1,83.5,61.5,84.6,61.5z"/>
	<path class="st1" d="M93.1,64.4V44.7h4.6v19.6H93.1z"/>
	<path class="st1" d="M103.2,64.7c-1.3,0-2.4-0.3-3.3-1s-1.3-1.7-1.3-3.1c0-3,2.4-4.5,7.3-4.5h1.3v-0.3c0-0.7-0.1-1.3-0.4-1.6
		c-0.3-0.4-0.7-0.5-1.4-0.5c-1.1,0-1.7,0.5-1.9,1.6h-4.4c0.1-1.6,0.7-2.8,1.9-3.7c1.2-0.8,2.7-1.3,4.6-1.3c1.9,0,3.5,0.4,4.5,1.3
		c1.1,0.8,1.6,2.1,1.6,3.9v8.8h-4.5v-1.6C106.4,64.1,105,64.7,103.2,64.7z M104.8,61.5c0.7,0,1.2-0.2,1.7-0.5
		c0.4-0.4,0.7-0.8,0.7-1.4v-0.8h-1.2c-1,0-1.6,0.1-2.1,0.3c-0.4,0.2-0.6,0.6-0.6,1.2C103.2,61.1,103.7,61.5,104.8,61.5z"/>
	<path class="st1" d="M114.6,53.2l-2.6-1l2.1-6.8l4.1,1.4L114.6,53.2z"/>
	<path class="st1" d="M126.4,63.5c-1.1,0.8-2.6,1.2-4.6,1.2s-3.5-0.4-4.6-1.2c-1.1-0.8-1.7-1.9-1.7-3.5h4.3c0.1,0.5,0.3,0.9,0.5,1.2
		c0.3,0.3,0.7,0.4,1.4,0.4c1.1,0,1.7-0.4,1.7-1.1c0-0.3-0.2-0.6-0.6-0.8c-0.4-0.2-1-0.3-2-0.5c-1.9-0.2-3.2-0.7-4-1.3
		c-0.8-0.6-1.2-1.7-1.2-3.1c0-1.4,0.6-2.6,1.7-3.3c1.1-0.8,2.5-1.2,4.2-1.2c3.7,0,5.7,1.5,6,4.4h-4.2c-0.2-0.9-0.8-1.4-1.7-1.4
		c-0.5,0-0.9,0.1-1.1,0.3c-0.3,0.2-0.4,0.5-0.4,0.8c0,0.3,0.2,0.6,0.5,0.7c0.3,0.2,0.9,0.3,1.8,0.4c2,0.2,3.4,0.7,4.3,1.3
		c0.9,0.6,1.3,1.7,1.3,3.1C128.1,61.6,127.5,62.8,126.4,63.5z"/>
</g>
<g>
	<path class="st0" d="M5.1,86.8l-5-13.6h5l2.8,8.8l2.8-8.8h4.5l-5,13.6H5.1z"/>
	<path class="st0" d="M18.7,87.1c-1.3,0-2.4-0.3-3.3-1c-0.9-0.7-1.3-1.7-1.3-3.1c0-3,2.4-4.5,7.3-4.5h1.3v-0.3
		c0-0.7-0.1-1.3-0.4-1.6S21.6,76,20.9,76c-1.1,0-1.7,0.5-1.9,1.6h-4.4c0.1-1.6,0.7-2.8,1.9-3.7c1.2-0.8,2.7-1.3,4.6-1.3
		c1.9,0,3.5,0.4,4.5,1.3c1.1,0.8,1.6,2.1,1.6,3.9v8.8h-4.5v-1.6C22,86.4,20.6,87.1,18.7,87.1z M20.4,83.9c0.7,0,1.2-0.2,1.7-0.5
		c0.4-0.4,0.7-0.8,0.7-1.4v-0.8h-1.2c-1,0-1.6,0.1-2.1,0.3c-0.4,0.2-0.6,0.6-0.6,1.2C18.7,83.5,19.3,83.9,20.4,83.9z"/>
	<path class="st0" d="M28.7,86.8V73.1h4.7v2.2c0.4-0.8,1-1.4,1.7-1.9c0.8-0.5,1.7-0.7,2.8-0.7c1.4,0,2.5,0.4,3.3,1.3
		c0.8,0.9,1.2,2.1,1.2,3.8v8.9h-4.7v-7.9c0-1.5-0.7-2.3-2-2.3c-0.7,0-1.3,0.2-1.7,0.7c-0.4,0.4-0.6,1.1-0.6,1.9v7.6H28.7z"/>
	<path class="st0" d="M52.6,87.1c-1.7,0-3-0.6-4.1-1.8c-1.1-1.2-1.6-2.9-1.6-5.2v-0.2c0-2.2,0.5-4,1.6-5.2c1.1-1.3,2.5-1.9,4.2-1.9
		c1.9,0,3.3,0.8,4.2,2.3v-7.9h4.7v19.6h-4.7v-2.2c-0.4,0.7-0.9,1.4-1.7,1.8C54.5,86.8,53.6,87.1,52.6,87.1z M54.3,83.5
		c0.9,0,1.5-0.3,2-0.9C56.8,82,57,81.2,57,80v-0.2c0-1.1-0.2-2-0.7-2.6c-0.5-0.6-1.1-0.9-2-0.9c-1.8,0-2.7,1.2-2.7,3.5V80
		c0,1.1,0.2,2,0.7,2.6C52.8,83.2,53.5,83.5,54.3,83.5z"/>
	<path class="st0" d="M69.7,87.1c-2.2,0-4-0.6-5.3-1.9c-1.4-1.2-2.1-2.9-2.1-5.1v-0.2c0-2.1,0.7-3.9,2.1-5.2c1.4-1.3,3.2-2,5.3-2
		c2,0,3.7,0.6,5,1.8c1.3,1.2,2,2.9,2,5.3V81H67c0.1,0.9,0.4,1.6,0.8,2.1c0.5,0.5,1.2,0.7,2,0.7c1.4,0,2.2-0.5,2.4-1.6h4.4
		c-0.2,1.5-0.9,2.7-2.1,3.6C73.4,86.7,71.8,87.1,69.7,87.1z M67.1,78.4h5c-0.1-1.7-0.9-2.6-2.4-2.6c-0.7,0-1.3,0.2-1.7,0.7
		S67.2,77.6,67.1,78.4z"/>
</g>
<g>
	<path class="st0" d="M0.2,109.1l6-18.6h6.9l5.9,18.6h-5.7l-1-3.5H6.2l-1,3.5H0.2z M9.3,94.8L7.2,102h4.1L9.3,94.8z"/>
	<path class="st0" d="M23.5,109.5c-1.4,0-2.5-0.4-3.3-1.3c-0.8-0.9-1.3-2.1-1.3-3.8v-8.9h4.7v8.1c0,1.5,0.6,2.3,1.9,2.3
		c0.7,0,1.3-0.2,1.7-0.7c0.4-0.4,0.6-1.1,0.6-1.9v-7.9h4.7v13.6h-4.7V107C27,108.6,25.6,109.5,23.5,109.5z"/>
	<path class="st0" d="M43.9,108.3c-1.1,0.8-2.6,1.2-4.6,1.2c-1.9,0-3.5-0.4-4.6-1.2c-1.1-0.8-1.7-1.9-1.7-3.5h4.3
		c0.1,0.5,0.3,0.9,0.5,1.2c0.3,0.3,0.7,0.4,1.4,0.4c1.1,0,1.7-0.4,1.7-1.1c0-0.3-0.2-0.6-0.6-0.8c-0.4-0.2-1-0.3-2-0.5
		c-1.9-0.2-3.2-0.7-4-1.3c-0.8-0.6-1.2-1.7-1.2-3.1c0-1.4,0.6-2.6,1.7-3.3c1.1-0.8,2.5-1.2,4.2-1.2c3.7,0,5.7,1.5,6,4.4h-4.2
		c-0.2-0.9-0.8-1.4-1.7-1.4c-0.5,0-0.9,0.1-1.1,0.3c-0.3,0.2-0.4,0.5-0.4,0.8c0,0.3,0.2,0.6,0.5,0.7c0.3,0.2,0.9,0.3,1.8,0.4
		c2,0.2,3.4,0.7,4.3,1.3c0.9,0.6,1.3,1.7,1.3,3.1C45.6,106.3,45,107.5,43.9,108.3z"/>
	<path class="st0" d="M51.6,109.5c-3.2,0-4.8-1.6-4.8-4.7v-6.1h-1.6v-3.2h1.6v-2.8h4.7v2.8h2.7v3.2h-2.7v5.6c0,1,0.5,1.4,1.4,1.4
		c0.5,0,0.9-0.1,1.3-0.2v3.5C53.2,109.3,52.3,109.5,51.6,109.5z"/>
	<path class="st0" d="M55.1,109.1V95.5h4.7v2.7c0.8-1.9,2.3-2.9,4.4-2.9v4.4c-2.9-0.1-4.4,0.9-4.4,3v6.5H55.1z"/>
	<path class="st0" d="M68.5,109.5c-1.3,0-2.4-0.3-3.3-1s-1.3-1.7-1.3-3.1c0-3,2.4-4.5,7.3-4.5h1.3v-0.3c0-0.7-0.1-1.3-0.4-1.6
		c-0.3-0.4-0.7-0.5-1.4-0.5c-1.1,0-1.7,0.5-1.9,1.6h-4.4c0.1-1.6,0.7-2.8,1.9-3.7c1.2-0.8,2.7-1.3,4.6-1.3c1.9,0,3.5,0.4,4.5,1.3
		s1.6,2.1,1.6,3.9v8.8h-4.5v-1.6C71.7,108.8,70.3,109.5,68.5,109.5z M70.1,106.3c0.7,0,1.2-0.2,1.7-0.5c0.4-0.4,0.7-0.8,0.7-1.4
		v-0.8h-1.2c-1,0-1.6,0.1-2.1,0.3c-0.4,0.2-0.6,0.6-0.6,1.2C68.5,105.9,69,106.3,70.1,106.3z"/>
	<path class="st0" d="M78.6,109.1V89.5h4.6v19.6H78.6z"/>
	<path class="st0" d="M89.1,93.5c-0.5,0.5-1.1,0.7-1.8,0.7c-0.7,0-1.3-0.2-1.8-0.7c-0.5-0.5-0.7-1-0.7-1.7c0-0.7,0.2-1.3,0.7-1.7
		c0.5-0.5,1.1-0.7,1.8-0.7c0.7,0,1.3,0.2,1.8,0.7c0.5,0.5,0.7,1,0.7,1.7C89.9,92.5,89.6,93.1,89.1,93.5z M85,109.1V95.5h4.7v13.6H85
		z"/>
	<path class="st0" d="M101.1,108.3c-1.1,0.8-2.6,1.2-4.6,1.2s-3.5-0.4-4.6-1.2c-1.1-0.8-1.7-1.9-1.7-3.5h4.3
		c0.1,0.5,0.3,0.9,0.5,1.2c0.3,0.3,0.7,0.4,1.4,0.4c1.1,0,1.7-0.4,1.7-1.1c0-0.3-0.2-0.6-0.6-0.8c-0.4-0.2-1-0.3-2-0.5
		c-1.9-0.2-3.2-0.7-4-1.3c-0.8-0.6-1.2-1.7-1.2-3.1c0-1.4,0.6-2.6,1.7-3.3c1.1-0.8,2.5-1.2,4.2-1.2c3.7,0,5.7,1.5,6,4.4h-4.2
		c-0.2-0.9-0.8-1.4-1.7-1.4c-0.5,0-0.9,0.1-1.1,0.3c-0.3,0.2-0.4,0.5-0.4,0.8c0,0.3,0.2,0.6,0.5,0.7c0.3,0.2,0.9,0.3,1.8,0.4
		c2,0.2,3.4,0.7,4.3,1.3c0.9,0.6,1.3,1.7,1.3,3.1C102.8,106.3,102.2,107.5,101.1,108.3z"/>
	<path class="st0" d="M109.9,109.5c-2.1,0-3.8-0.6-5.2-1.8c-1.3-1.2-2-2.9-2-5.2v-0.2c0-2.2,0.7-4,2.1-5.2c1.4-1.3,3.1-1.9,5.2-1.9
		c1.2,0,2.2,0.2,3.2,0.5c0.9,0.3,1.7,0.9,2.4,1.8c0.7,0.9,1,2,1.1,3.3h-4.4c-0.2-1.3-0.9-2-2.2-2c-0.8,0-1.5,0.3-1.9,0.9
		c-0.5,0.6-0.7,1.5-0.7,2.6v0.2c0,2.4,0.9,3.6,2.7,3.6c0.7,0,1.2-0.2,1.6-0.6s0.7-1,0.7-1.7h4.2c-0.1,1.8-0.7,3.1-1.9,4.2
		C113.8,108.9,112.1,109.5,109.9,109.5z"/>
	<path class="st0" d="M117.4,109.1V89.5h4.7v8.2c0.4-0.8,1-1.4,1.7-1.9c0.8-0.5,1.7-0.7,2.8-0.7c1.4,0,2.5,0.4,3.3,1.3
		c0.8,0.9,1.2,2.1,1.2,3.8v8.9h-4.7v-7.9c0-1.5-0.7-2.3-2-2.3c-0.7,0-1.3,0.2-1.7,0.7c-0.4,0.4-0.6,1.1-0.6,1.9v7.6H117.4z"/>
	<path class="st0" d="M139,109.5c-2.2,0-4-0.6-5.3-1.9c-1.4-1.2-2.1-2.9-2.1-5.1v-0.2c0-2.1,0.7-3.9,2.1-5.2c1.4-1.3,3.2-2,5.3-2
		c2,0,3.7,0.6,5,1.8c1.3,1.2,2,2.9,2,5.3v1.2h-9.6c0.1,0.9,0.4,1.6,0.8,2.1c0.5,0.5,1.2,0.7,2,0.7c1.4,0,2.2-0.5,2.4-1.6h4.4
		c-0.2,1.5-0.9,2.7-2.1,3.6C142.7,109,141.1,109.5,139,109.5z M136.4,100.8h5c-0.1-1.7-0.9-2.6-2.4-2.6c-0.7,0-1.3,0.2-1.7,0.7
		C136.8,99.3,136.5,99.9,136.4,100.8z"/>
</g>
<g>
	<path class="st1" d="M10.1,131.8c-1,0-1.9-0.2-2.6-0.7c-0.7-0.4-1.3-1-1.6-1.8v2.1H1.2v-19.6h4.7v8c1-1.6,2.4-2.4,4.3-2.4
		c1.7,0,3,0.6,4.1,1.9c1.1,1.2,1.6,3,1.6,5.2v0.2c0,2.3-0.5,4-1.6,5.2C13.2,131.2,11.8,131.8,10.1,131.8z M6.5,127.4
		c0.5,0.6,1.1,0.9,2,0.9c0.9,0,1.5-0.3,2-0.9c0.5-0.6,0.7-1.5,0.7-2.6v-0.2c0-1.2-0.2-2-0.7-2.6c-0.5-0.6-1.1-0.9-2-0.9
		c-0.9,0-1.5,0.3-2,0.9c-0.5,0.6-0.7,1.5-0.7,2.6v0.2C5.8,125.9,6,126.8,6.5,127.4z"/>
	<path class="st1" d="M28.8,129.9c-1.4,1.3-3.2,1.9-5.3,1.9s-3.9-0.6-5.3-1.9c-1.4-1.3-2.1-2.9-2.1-5.1v-0.2c0-2.2,0.7-3.9,2.1-5.2
		c1.4-1.3,3.2-2,5.4-2c2.1,0,3.9,0.6,5.3,1.9c1.4,1.3,2.1,3,2.1,5.1v0.2C30.9,126.9,30.2,128.6,28.8,129.9z M23.5,128.4
		c0.9,0,1.5-0.3,2-0.9c0.5-0.6,0.7-1.5,0.7-2.6v-0.2c0-2.4-0.9-3.6-2.7-3.6c-0.9,0-1.5,0.3-2,0.9c-0.5,0.6-0.7,1.5-0.7,2.6v0.2
		C20.8,127.2,21.7,128.4,23.5,128.4z"/>
	<path class="st1" d="M41.7,130.7c-1.1,0.8-2.6,1.2-4.6,1.2c-1.9,0-3.5-0.4-4.6-1.2c-1.1-0.8-1.7-1.9-1.7-3.5h4.3
		c0.1,0.5,0.3,0.9,0.5,1.2c0.3,0.3,0.7,0.4,1.4,0.4c1.1,0,1.7-0.4,1.7-1.1c0-0.3-0.2-0.6-0.6-0.8c-0.4-0.2-1-0.3-2-0.5
		c-1.9-0.2-3.2-0.7-4-1.3c-0.8-0.6-1.2-1.7-1.2-3.1c0-1.4,0.6-2.6,1.7-3.3c1.1-0.8,2.5-1.2,4.2-1.2c3.7,0,5.7,1.5,6,4.4h-4.2
		c-0.2-0.9-0.8-1.4-1.7-1.4c-0.5,0-0.9,0.1-1.1,0.3c-0.3,0.2-0.4,0.5-0.4,0.8c0,0.3,0.2,0.6,0.5,0.7c0.3,0.2,0.9,0.3,1.8,0.4
		c2,0.2,3.4,0.7,4.3,1.3c0.9,0.6,1.3,1.7,1.3,3.1C43.3,128.7,42.8,129.9,41.7,130.7z"/>
	<path class="st1" d="M52.9,131.8c-1,0-1.9-0.2-2.6-0.7c-0.7-0.4-1.3-1-1.6-1.8v2.1H44v-19.6h4.7v8c1-1.6,2.4-2.4,4.3-2.4
		c1.7,0,3,0.6,4.1,1.9c1.1,1.2,1.6,3,1.6,5.2v0.2c0,2.3-0.5,4-1.6,5.2C55.9,131.2,54.6,131.8,52.9,131.8z M49.2,127.4
		c0.5,0.6,1.1,0.9,2,0.9s1.5-0.3,2-0.9c0.5-0.6,0.7-1.5,0.7-2.6v-0.2c0-1.2-0.2-2-0.7-2.6c-0.5-0.6-1.1-0.9-2-0.9
		c-0.9,0-1.5,0.3-2,0.9c-0.5,0.6-0.7,1.5-0.7,2.6v0.2C48.5,125.9,48.7,126.8,49.2,127.4z"/>
	<path class="st1" d="M59.5,131.5v-13.6h4.7v2.7c0.8-1.9,2.3-2.9,4.4-2.9v4.4c-2.9-0.1-4.4,0.9-4.4,3v6.5H59.5z"/>
	<path class="st1" d="M72.9,131.8c-1.3,0-2.4-0.3-3.3-1c-0.9-0.7-1.3-1.7-1.3-3.1c0-3,2.4-4.5,7.3-4.5h1.3V123
		c0-0.7-0.1-1.3-0.4-1.6c-0.3-0.4-0.7-0.5-1.4-0.5c-1.1,0-1.7,0.5-1.9,1.6h-4.4c0.1-1.6,0.7-2.8,1.9-3.7c1.2-0.8,2.7-1.3,4.6-1.3
		c1.9,0,3.5,0.4,4.5,1.3c1.1,0.8,1.6,2.1,1.6,3.9v8.8H77v-1.6C76.1,131.2,74.8,131.8,72.9,131.8z M74.5,128.7c0.7,0,1.2-0.2,1.7-0.5
		c0.4-0.4,0.7-0.8,0.7-1.4v-0.8h-1.2c-1,0-1.6,0.1-2.1,0.3c-0.4,0.2-0.6,0.6-0.6,1.2C72.9,128.3,73.5,128.7,74.5,128.7z"/>
	<path class="st1" d="M82.9,131.5v-13.6h4.7v2.2c0.4-0.8,1-1.4,1.7-1.9c0.8-0.5,1.7-0.7,2.8-0.7c1.4,0,2.5,0.4,3.3,1.3
		s1.2,2.1,1.2,3.8v8.9h-4.7v-7.9c0-1.5-0.7-2.3-2-2.3c-0.7,0-1.3,0.2-1.7,0.7c-0.4,0.4-0.6,1.1-0.6,1.9v7.6H82.9z"/>
	<path class="st1" d="M102.9,131.8c-1.7,0-3-0.6-4.1-1.8c-1.1-1.2-1.6-2.9-1.6-5.2v-0.2c0-2.2,0.5-4,1.6-5.2
		c1.1-1.3,2.5-1.9,4.2-1.9c1.9,0,3.3,0.8,4.2,2.3v-7.9h4.7v19.6h-4.7v-2.2c-0.4,0.7-0.9,1.4-1.7,1.8S103.9,131.8,102.9,131.8z
		 M104.6,128.3c0.9,0,1.5-0.3,2-0.9c0.5-0.6,0.7-1.5,0.7-2.6v-0.2c0-1.1-0.2-2-0.7-2.6c-0.5-0.6-1.1-0.9-2-0.9
		c-1.8,0-2.7,1.2-2.7,3.5v0.2c0,1.1,0.2,2,0.7,2.6C103.1,128,103.8,128.3,104.6,128.3z"/>
	<path class="st1" d="M120,131.8c-2.2,0-4-0.6-5.3-1.9c-1.4-1.2-2.1-2.9-2.1-5.1v-0.2c0-2.1,0.7-3.9,2.1-5.2c1.4-1.3,3.2-2,5.3-2
		c2,0,3.7,0.6,5,1.8c1.3,1.2,2,2.9,2,5.3v1.2h-9.6c0.1,0.9,0.4,1.6,0.8,2.1c0.5,0.5,1.2,0.7,2,0.7c1.4,0,2.2-0.5,2.4-1.6h4.4
		c-0.2,1.5-0.9,2.7-2.1,3.6C123.7,131.4,122.1,131.8,120,131.8z M117.4,123.1h5c-0.1-1.7-0.9-2.6-2.4-2.6c-0.7,0-1.3,0.2-1.7,0.7
		C117.8,121.7,117.5,122.3,117.4,123.1z"/>
	<path class="st1" d="M127.6,131.5v-13.6h4.7v2.2c0.4-0.8,1-1.4,1.7-1.9c0.8-0.5,1.7-0.7,2.8-0.7c1.4,0,2.5,0.4,3.3,1.3
		c0.8,0.9,1.2,2.1,1.2,3.8v8.9h-4.7v-7.9c0-1.5-0.7-2.3-2-2.3c-0.7,0-1.3,0.2-1.7,0.7c-0.4,0.4-0.6,1.1-0.6,1.9v7.6H127.6z"/>
</g>
</svg>
