<?xml version="1.0" encoding="utf-8"?>
<!-- Generator: Adobe Illustrator 24.3.0, SVG Export Plug-In . SVG Version: 6.00 Build 0)  -->
<svg version="1.1" id="Laag_1" xmlns="http://www.w3.org/2000/svg" xmlns:xlink="http://www.w3.org/1999/xlink" x="0px" y="0px"
	 width="91.9px" height="12.4px" viewBox="0 0 91.9 12.4" style="enable-background:new 0 0 91.9 12.4;" xml:space="preserve">
<style type="text/css">
	.st0{fill:#FFFFFF;}
</style>
<g>
	<path class="st0" d="M8.3,10.1c-0.7,0.4-1.5,0.4-2.3,0.4H2.6V2h3c0.4,0,0.9,0,1.3,0c0.3,0,1,0.1,1.5,0.7C8.6,2.9,9,3.3,9,4
		c0,0.2-0.1,1.1-0.8,1.5C8,5.7,7.8,5.7,7.6,5.8C7.7,5.8,8,5.9,8.2,6c0.4,0.2,1.2,0.8,1.2,2C9.4,8.9,9,9.6,8.3,10.1z M7.1,3.7
		C6.7,3.2,6,3.3,5.4,3.3H4.2v2.1h0.6c0.4,0,0.8,0,1.3,0c0.4,0,0.8-0.1,1.1-0.4c0.1-0.1,0.3-0.3,0.3-0.7C7.4,4.2,7.3,3.9,7.1,3.7z
		 M7.1,6.8c-0.4-0.2-1-0.2-2-0.2H4.2v2.5H6c0.5,0,1.1,0,1.5-0.4c0.1-0.1,0.3-0.3,0.3-0.7C7.8,7.7,7.7,7.1,7.1,6.8z"/>
	<path class="st0" d="M15.8,9.7c-0.3,0.3-1.1,0.9-2.4,0.9c-0.4,0-1.3,0-2.1-0.8c-0.7-0.6-0.9-1.5-0.9-2.4c0-0.5,0.1-1,0.3-1.4
		c0.3-0.6,1-1.7,2.7-1.7c1.3,0,2.1,0.7,2.4,1.2c0.3,0.4,0.6,1.2,0.6,2.3h-4.4c0,0.2,0.1,0.6,0.4,0.9c0.2,0.3,0.6,0.6,1.3,0.6
		s1.2-0.3,1.4-0.6c0,0,0.1-0.1,0.2-0.3l1.2,0.7C16.2,9.2,16.1,9.5,15.8,9.7z M14.6,6.2c-0.1-0.3-0.4-0.8-1.2-0.8
		c-0.3,0-0.5,0.1-0.6,0.1c-0.7,0.3-0.8,0.9-0.9,1.2h2.8C14.7,6.7,14.7,6.4,14.6,6.2z"/>
	<path class="st0" d="M17,10.4V9.3l3.2-3.6h-2.9V4.4h4.8v1.1L19,9.2h3.2v1.3H17z"/>
	<path class="st0" d="M29,8.8c-0.2,0.6-1,1.9-2.8,1.9c-0.3,0-0.8,0-1.4-0.3c-0.6-0.3-1.8-1.1-1.8-2.9c0-0.6,0.2-1.1,0.3-1.3
		c0.3-0.6,1-1.8,2.8-1.8c0.2,0,0.8,0,1.3,0.3c0.6,0.3,1.8,1.1,1.8,2.9C29.3,7.6,29.2,8.2,29,8.8z M26.1,5.6c-0.1,0-0.5,0-0.8,0.2
		C25,6,24.6,6.5,24.6,7.4c0,0.3,0,0.5,0.1,0.8c0.1,0.3,0.5,1.1,1.5,1.1c1.1,0,1.6-1,1.5-1.9C27.7,6.5,27.2,5.6,26.1,5.6z"/>
	<path class="st0" d="M35.5,9.7c-0.3,0.3-1.1,0.9-2.4,0.9c-0.4,0-1.3,0-2.1-0.8c-0.7-0.6-0.9-1.5-0.9-2.4c0-0.5,0.1-1,0.3-1.4
		c0.3-0.6,1-1.7,2.7-1.7c1.3,0,2.1,0.7,2.4,1.2C35.7,5.8,36,6.6,36,7.7h-4.4c0,0.2,0.1,0.6,0.4,0.9c0.2,0.3,0.6,0.6,1.3,0.6
		s1.2-0.3,1.4-0.6c0,0,0.1-0.1,0.2-0.3l1.2,0.7C36,9.2,35.8,9.5,35.5,9.7z M34.3,6.2c-0.1-0.3-0.4-0.8-1.2-0.8
		c-0.3,0-0.5,0.1-0.6,0.1c-0.7,0.3-0.8,0.9-0.9,1.2h2.8C34.4,6.7,34.4,6.4,34.3,6.2z"/>
	<path class="st0" d="M41.3,10.4l-1.8-2.7l-0.8,0.8v1.9h-1.4V2h1.4v4.8l2.3-2.3h1.8l-2.3,2.3l2.5,3.7H41.3z"/>
	<path class="st0" d="M53.4,10.4H52l-1.1-3.8l-1.1,3.8h-1.4l-1.7-6h1.5l1,4.1l1.1-4.1h1.3l1.1,4.1l1.1-4.1h1.5L53.4,10.4z"/>
	<path class="st0" d="M61.2,9.7c-0.3,0.3-1.1,0.9-2.4,0.9c-0.4,0-1.3,0-2.1-0.8c-0.7-0.6-0.9-1.5-0.9-2.4c0-0.5,0.1-1,0.3-1.4
		c0.3-0.6,1-1.7,2.7-1.7c1.3,0,2.1,0.7,2.4,1.2c0.3,0.4,0.6,1.2,0.6,2.3h-4.4c0,0.2,0.1,0.6,0.4,0.9c0.2,0.3,0.6,0.6,1.3,0.6
		s1.2-0.3,1.4-0.6c0,0,0.1-0.1,0.2-0.3l1.2,0.7C61.7,9.2,61.5,9.5,61.2,9.7z M60,6.2c-0.1-0.3-0.4-0.8-1.2-0.8
		c-0.3,0-0.5,0.1-0.6,0.1c-0.7,0.3-0.8,0.9-0.9,1.2h2.8C60.2,6.7,60.1,6.4,60,6.2z"/>
	<path class="st0" d="M67.2,10.3c-0.5,0.3-1,0.3-1.2,0.3c-0.3,0-0.8-0.1-1.4-0.5c-0.1-0.1-0.2-0.2-0.3-0.3v0.6h-1.4V2h1.4l0,3
		c0.1-0.1,0.1-0.1,0.2-0.2c0.6-0.5,1.3-0.5,1.5-0.5c0.4,0,1.1,0.1,1.7,0.8c0.4,0.4,0.9,1.1,0.9,2.4C68.7,8.5,68.2,9.7,67.2,10.3z
		 M66.9,6.2c-0.3-0.4-0.7-0.6-1.2-0.6c-0.4,0-0.7,0.1-0.9,0.4c-0.5,0.5-0.5,1.2-0.5,1.4c0,0.6,0.1,1.2,0.6,1.6
		C65,9,65.3,9.2,65.8,9.2c0.2,0,0.8-0.1,1.1-0.6c0.3-0.5,0.3-1.1,0.3-1.3C67.2,7.2,67.2,6.6,66.9,6.2z"/>
	<path class="st0" d="M74.7,9.4c-0.3,0.6-1,1.2-2.5,1.2c-1.1,0-1.9-0.4-2.3-0.6c-0.2-0.1-0.4-0.3-0.6-0.5l1.1-0.9
		c0,0.1,0.1,0.2,0.3,0.3c0.5,0.4,1.3,0.5,1.5,0.5c0.4,0,0.8-0.1,1-0.4c0.1-0.1,0.2-0.2,0.2-0.3c0,0,0-0.1-0.1-0.3
		c-0.2-0.2-0.3-0.2-0.8-0.3c-0.4-0.1-0.8-0.1-1.2-0.2c-0.3-0.1-1.7-0.4-1.7-1.7c0-0.5,0.2-0.8,0.3-0.9c0.3-0.5,1-1,2.3-1
		c0.5,0,1.7,0.1,2.6,1.1l-1,0.9c-0.1-0.3-0.3-0.4-0.4-0.5c-0.4-0.3-0.8-0.4-1.3-0.4c-0.1,0-0.5,0-0.7,0.2c-0.2,0.1-0.3,0.3-0.3,0.4
		c0,0.2,0.2,0.3,0.2,0.4c0.2,0.1,0.6,0.2,1,0.3c0.3,0.1,0.6,0.1,1,0.2C73.7,7,74,7.1,74.3,7.3c0.2,0.2,0.7,0.6,0.7,1.3
		C74.9,8.9,74.9,9.1,74.7,9.4z"/>
	<path class="st0" d="M76.1,3.5V2.1h1.4v1.5H76.1z M76.1,10.4v-6h1.4v6H76.1z"/>
	<path class="st0" d="M81,10.5c-0.8,0-1.2-0.2-1.4-0.5c-0.1-0.1-0.2-0.3-0.2-0.3c-0.1-0.2-0.1-0.6-0.1-1.1V5.5h-0.9v-1h0.9V2.3h1.4
		v2.1H82v1h-1.3v2.7c0,0.2,0,0.7,0.1,0.9c0.2,0.2,0.5,0.2,0.6,0.2c0.2,0,0.4,0,0.6-0.1v1.2C81.8,10.4,81.5,10.5,81,10.5z"/>
	<path class="st0" d="M88,9.7c-0.3,0.3-1.1,0.9-2.4,0.9c-0.4,0-1.3,0-2.1-0.8c-0.7-0.6-0.9-1.5-0.9-2.4c0-0.5,0.1-1,0.3-1.4
		c0.3-0.6,1-1.7,2.7-1.7c1.3,0,2.1,0.7,2.4,1.2c0.3,0.4,0.6,1.2,0.6,2.3H84c0,0.2,0.1,0.6,0.4,0.9c0.2,0.3,0.6,0.6,1.3,0.6
		s1.2-0.3,1.4-0.6c0,0,0.1-0.1,0.2-0.3l1.2,0.7C88.4,9.2,88.3,9.5,88,9.7z M86.8,6.2c-0.1-0.3-0.4-0.8-1.2-0.8
		c-0.3,0-0.5,0.1-0.6,0.1c-0.7,0.3-0.8,0.9-0.9,1.2h2.8C86.9,6.7,86.9,6.4,86.8,6.2z"/>
</g>
</svg>
