<?xml version="1.0" encoding="utf-8"?>
<!-- Generator: Adobe Illustrator 24.3.0, SVG Export Plug-In . SVG Version: 6.00 Build 0)  -->
<svg version="1.1" id="Laag_1" xmlns="http://www.w3.org/2000/svg" xmlns:xlink="http://www.w3.org/1999/xlink" x="0px" y="0px"
	 width="671.6px" height="699.9px" viewBox="0 0 671.6 699.9" style="enable-background:new 0 0 671.6 699.9;" xml:space="preserve"
	>
<style type="text/css">
	.st0{fill:#FFFFFF;}
</style>
<g>
	<path class="st0" d="M200,85.1V32.8c0-5.8-2.8-6.8-6.2-6.8h-14.6v-9.7h1.6c5.4,0,10.1-0.1,14.7-3.5c4.5-3.3,6-7.6,7.3-12.7h12.6
		v85.1L200,85.1L200,85.1z"/>
	<path class="st0" d="M269.5,85.1V32.8c0-5.8-2.8-6.8-6.2-6.8h-14.6v-9.7h1.6c5.4,0,10.1-0.1,14.7-3.5c4.5-3.3,6-7.6,7.3-12.7H285
		v85.1L269.5,85.1L269.5,85.1z"/>
	<path class="st0" d="M314.1,53.9V39.7h36.4v14.2H314.1z"/>
	<path class="st0" d="M384.8,85.1V32.8c0-5.8-2.8-6.8-6.2-6.8H364v-9.7h1.6c5.4,0,10.1-0.1,14.7-3.5c4.5-3.3,6-7.6,7.3-12.7h12.6
		v85.1L384.8,85.1L384.8,85.1z"/>
	<path class="st0" d="M479.2,65.5V85h-15.5V65.5h-37.3V54.4L463.7,0h15.5v52.5h11v13H479.2z M463.7,52.5c0-1.9,0.9-33.8,0.9-33.8
		l-21.9,33.8H463.7z"/>
</g>
<g>
	<path class="st0" d="M104.7,225l-38.9-62.4c0,0,1,60.7,1,62.4H50.5v-89h15l39.4,62.8c0,0-1.9-60.7-2-62.8h16.4v89H104.7z"/>
	<path class="st0" d="M165.3,226.9c-22.9,0-32.8-18.3-32.8-33.6c0-15.1,10-33.1,32.3-33.1c13.7,0,32.4,9.2,32.5,33.1
		C197.3,210.2,186.7,226.9,165.3,226.9z M165.3,213.1c11.1,0,16.3-9.5,16.3-19c0-10.1-5.4-20.3-17-20.3c-8.8,0-16.3,6.4-16.3,19.2
		C148.3,204,154.5,213.1,165.3,213.1z"/>
	<path class="st0" d="M238.5,225h-16.1L202,162h15.6l13.1,43.3l12.9-43.3h15.8L238.5,225z"/>
	<path class="st0" d="M279.8,196.6c0.3,3.1,3.2,15.6,17.8,15.6c10.7,0,15.2-6.6,16.5-8.7l12.9,7.4c-5,6.8-14.2,16-30.7,16
		c-18.8,0-32.4-12.9-32.4-33.8c0-22.6,15.2-33,31.6-33c24.1,0,31,19.3,31,36.4h-46.7V196.6z M309.8,185.5
		c-0.3-3.1-2.3-13.2-14.1-13.2c-12.5,0-14.9,10.7-15.4,13.2H309.8z"/>
	<path class="st0" d="M352.3,162v7.1c2.6-3.5,10.1-8.9,19.8-8.9c7.2,0,14,3.3,17.5,9.6c4-5.2,10.5-9.6,20.3-9.6
		c12.7,0,21.7,6.7,21.7,21.8v43h-15v-38.6c0-2.4-0.5-12.2-10.6-12.2c-2.4,0-7.8,0.9-11.2,6.4c-2.9,4.5-3,9.7-3,14.7V225h-15v-38.7
		c0-4.9-2.1-12-10.3-12c-1.5,0-4.8,0.4-7.9,3c-6.2,5.3-6.3,14.1-6.3,21.2V225H337v-63H352.3z"/>
	<path class="st0" d="M461.3,136.1v31.2c6.4-6.4,15.1-7.2,18-7.2c14.6,0,27.7,12.9,27.7,33c0,22.4-15.2,33.8-28.6,33.8
		c-3.7,0-10.6-0.8-17.3-8.4v6.6h-15v-89L461.3,136.1L461.3,136.1z M476.4,212.6c8.2,0,15.1-7.1,15.1-20.5c0-8.4-4.9-18.1-15.8-18.1
		c-9.1,0-14.7,7.9-14.7,18.1C461,205.6,467.3,212.6,476.4,212.6z"/>
	<path class="st0" d="M530.7,196.6c0.3,3.1,3.2,15.6,17.8,15.6c10.7,0,15.2-6.6,16.5-8.7l12.9,7.4c-5,6.8-14.2,16-30.7,16
		c-18.8,0-32.4-12.9-32.4-33.8c0-22.6,15.2-33,31.6-33c24.1,0,31,19.3,31,36.4h-46.7V196.6z M560.7,185.5
		c-0.3-3.1-2.3-13.2-14.1-13.2c-12.5,0-14.9,10.7-15.4,13.2H560.7z"/>
	<path class="st0" d="M602.8,162v8.9c4.8-10,15.8-10.3,18.8-10.3h1.3v15.5c-3.2,0-15.2,0-18.9,11.6c-1.1,3.5-1.1,6.7-1.1,10.3v27
		h-14.6v-63H602.8z"/>
</g>
<g>
	<path class="st0" d="M199.7,352.7c14.6-10.5,25.2-21,29.7-26.1c2-2.3,9.2-10.1,9.2-20.8c0-6.9-3.7-12.7-11.2-12.7
		c-11.6,0-12,11.6-12,18.1v1.6l-15.8-1.5v-0.6c0-10.7,3.3-17.6,6-21.4c2.8-3.9,10.2-10.7,23.1-10.7c10.1,0,16.4,4.3,19.3,6.9
		c5.5,4.9,7.9,12.5,7.9,19.8c0,2.5-0.3,7.8-3.3,14.1c-5,10.6-14.9,18-23.4,25.3c-3,2.5-5.9,5-9.1,7.2h37.3V365h-57.8v-12.3H199.7z"
		/>
	<path class="st0" d="M297.6,366.2c-29.6,0-30.9-30.1-30.9-44.1c0-31.1,13.4-43.5,31.6-43.5c16,0,30.5,11.1,30.5,43.6
		C328.9,357.1,312.5,366.2,297.6,366.2z M297.9,352.2c12.1,0,14.6-12.1,14.6-29.7c0-12.2-0.5-29.9-14.4-29.9
		c-12.7,0-15.1,14.5-15.1,30.4C283,332.4,283,352.2,297.9,352.2z"/>
	<path class="st0" d="M338.9,352.7c14.6-10.5,25.2-21,29.7-26.1c2-2.3,9.2-10.1,9.2-20.8c0-6.9-3.7-12.7-11.2-12.7
		c-11.6,0-12,11.6-12,18.1v1.6l-15.8-1.5v-0.6c0-10.7,3.3-17.6,6-21.4c2.8-3.9,10.2-10.7,23.1-10.7c10.1,0,16.4,4.3,19.3,6.9
		c5.5,4.9,7.9,12.5,7.9,19.8c0,2.5-0.3,7.8-3.3,14.1c-5,10.6-14.9,18-23.4,25.3c-3,2.5-5.9,5-9.1,7.2h37.3V365h-57.8L338.9,352.7
		L338.9,352.7z"/>
	<path class="st0" d="M431.7,365v-52.3c0-5.8-2.8-6.8-6.2-6.8h-14.6v-9.7h1.6c5.4,0,10.1-0.1,14.7-3.5c4.5-3.3,6-7.6,7.3-12.7h12.6
		v85H431.7z"/>
</g>
<g>
	<path class="st0" d="M195.6,507.1c0,7.6-0.1,11.3-1.5,15.8c-2.9,8.9-13.1,20.4-34.9,20.4c-14.2,0-29.2-5.5-33.9-20.2
		c-1.4-4.5-1.4-8.7-1.4-18.1v-53h16.8v54.7c0,5.3,0,7.2,0.9,9.8c1.6,5.3,6.4,10.6,18.3,10.6c2.1,0,14.4,0,18-10.1
		c1-2.9,1.1-5.3,1.1-11.2V452h16.6L195.6,507.1L195.6,507.1z"/>
	<path class="st0" d="M205,478h9.2v-22.4h15.1V478h13.5v10.7h-13.5V520c0,2.4,0.1,5.2,1.5,6.7c1.8,1.9,5,1.9,5.7,1.9
		c2.1,0,4.4-0.3,6.3-0.8v12.7c-2,0.3-5.7,1-10.8,1c-13.5,0-17.8-4.9-17.8-15.2v-37.6H205V478z"/>
	<path class="st0" d="M265.5,478v8.9c4.8-10,15.8-10.3,18.8-10.3h1.3v15.5c-3.2,0-15.2,0-18.9,11.6c-1.1,3.5-1.1,6.7-1.1,10.3v27
		H251v-63H265.5z"/>
	<path class="st0" d="M304,512.5c0.3,3.1,3.2,15.6,17.8,15.6c10.7,0,15.2-6.6,16.5-8.7l12.9,7.4c-5,6.8-14.2,16-30.7,16
		c-18.8,0-32.4-12.9-32.4-33.8c0-22.6,15.2-33,31.6-33c24.1,0,31,19.3,31,36.4L304,512.5L304,512.5z M334,501.4
		c-0.3-3.2-2.3-13.2-14.1-13.2c-12.5,0-14.9,10.7-15.4,13.2H334z"/>
	<path class="st0" d="M416.1,523.2c-4.4,12.5-15.9,19.7-28.5,19.7c-18.5,0-31.1-14.6-31.1-33.4c0-16.4,11.1-33.4,31.9-33.4
		c16.4,0,24.7,12,27.1,17.9l-13.5,6.3c-1.8-5.4-6.2-10.7-14.4-10.7c-10.2,0-15.5,9.1-15.5,19.5c0,11,5.7,19.7,15.9,19.7
		c10.7,0,14.1-9.3,15.2-12.3L416.1,523.2z"/>
	<path class="st0" d="M465.6,541v-36.9c0-9.2-4.5-13.6-11.8-13.6c-8.2,0-15.8,6.2-15.8,15.6V541h-15.1v-89H438v32.4
		c3.8-3.9,10.6-8.3,19.9-8.3c13.7,0,22.6,7.8,22.6,22.3V541H465.6z"/>
	<path class="st0" d="M487.6,478h9.2v-22.4h15.1V478h13.5v10.7h-13.5V520c0,2.4,0.1,5.2,1.5,6.7c1.8,1.9,5,1.9,5.7,1.9
		c2.1,0,4.4-0.3,6.3-0.8v12.7c-2,0.3-5.7,1-10.8,1c-13.5,0-17.8-4.9-17.8-15.2v-37.6h-9.2L487.6,478L487.6,478z"/>
</g>
<g>
	<path class="st0" d="M60.6,652v-54.1h4.6V652H60.6z"/>
	<path class="st0" d="M104.8,647.1c-2,2.4-5.6,5.8-13,5.8c-1.3,0-5-0.1-8.4-1.9c-8.7-4.5-9-15.3-9-17.6c0-1.2,0-4.2,1.2-7.4
		c2.4-6.9,8.4-11.4,15.7-11.4c2.2,0,7.5,0.5,11.7,5.2c2.9,3.3,4.8,8.4,4.8,12.9v1.2H79.2c-0.1,3,0.3,4.8,0.7,6.1
		c0.8,2.9,3.4,9,11.7,8.9c3.2,0,8.3-0.8,11.7-7.7l4.2,1.2C107.2,643.1,106.3,645.2,104.8,647.1z M91,618.6c-6.4,0-9.4,4.4-10.3,6.4
		c-0.7,1.5-1.1,3.4-1.4,5.1h23.1C101.3,620.6,95,618.6,91,618.6z"/>
	<path class="st0" d="M146.4,656.9c-0.1,1.3-0.2,6.3-3.6,9.7c-2,2.1-6,4.1-12.5,4.1c-1.8,0-10.5,0-14.2-7c-1.3-2.5-1.5-5.1-1.6-6.1
		l4.8-0.8c0.6,4.1,1.8,10,11.7,10c1.3,0,7.4,0.2,9.9-5c1.2-2.6,1.1-5.4,1.3-11c0-1.3,0.1-2.7,0.1-4v-1.8c-0.1,0.2-0.4,1.3-0.8,2.1
		c-1.3,2.4-4.8,5.7-11.3,5.7c-3.7,0-6.2-1.1-7.4-1.8c-8.3-4.6-8.4-15.3-8.4-17.4c0-6.4,2-13.3,7.7-16.7c1.4-0.8,4.1-2.1,8.2-2.1
		c1.5,0,5.4,0.1,8.8,2.9c1.5,1.1,2.3,2.4,2.6,3c0.4,0.8,0.5,1.3,0.6,1.6v-6.7h4.4v32.7C146.5,651.1,146.6,654,146.4,656.9z
		 M139.5,622.6c-1.1-1.6-3.8-4-8.8-4c-0.7,0-2.5,0-4.2,0.7c-7.7,3-7.7,12.6-7.7,14.2c0,5.4,1.5,9,2.8,10.8c1.1,1.6,2.7,3,4.5,3.7
		c1.9,0.8,3.6,0.8,4.4,0.8c1.1,0,4.2,0,7-2c3.9-2.8,4.5-8.2,4.6-12.6C142,633.3,142.3,626.6,139.5,622.6z"/>
	<path class="st0" d="M182,652v-6.6c-0.6,1.4-1.1,2.1-1.5,2.7c-3.4,4.7-8.3,4.8-10.2,4.8c-0.6,0-2.5-0.1-4.3-0.7
		c-3.3-1.1-5.9-3.8-7-7.1c-0.8-2.5-1-6-1-11.7v-17.9h4.6v18.9c0,4.4,0.1,6.8,0.6,8.9c0.6,2.2,2.2,5.4,7.6,5.4c1.8,0,5.7-0.1,8.7-4.1
		c2.8-3.8,2.5-8.7,2.5-13.1v-16h4.5V652H182z"/>
	<path class="st0" d="M226.2,647.1c-2,2.4-5.6,5.8-13,5.8c-1.3,0-5-0.1-8.4-1.9c-8.7-4.5-9-15.3-9-17.6c0-1.2,0-4.2,1.2-7.4
		c2.4-6.9,8.4-11.4,15.7-11.4c2.2,0,7.5,0.5,11.7,5.2c2.9,3.3,4.8,8.4,4.8,12.9v1.2h-28.4c-0.1,3,0.3,4.8,0.7,6.1
		c0.8,2.9,3.4,9,11.7,8.9c3.2,0,8.3-0.8,11.7-7.7l4.2,1.2C228.6,643.1,227.7,645.2,226.2,647.1z M212.5,618.6
		c-6.4,0-9.4,4.4-10.3,6.4c-0.7,1.5-1.1,3.4-1.4,5.1h23.1C222.7,620.6,216.4,618.6,212.5,618.6z"/>
	<path class="st0" d="M262.1,646.6c-1.5,2.8-5.1,6.4-12.5,6.4c-2.2,0-8.2-0.3-12.3-5.5c-1.1-1.5-1.8-2.8-2.5-4.3l4.4-1.5
		c0.6,2.5,3.4,7.2,10.2,7.2c3.4,0,5.7-1,6.7-1.8c1.6-1.2,2.6-3.4,2.6-5.3c0-1.2-0.4-2.3-1-3.2c-1.1-1.6-3-2.5-6.9-3.4
		c-3.6-0.8-9.3-1.5-11.9-4.6c-1.2-1.5-2-3.8-1.9-5.7c0-1.1,0.4-4.7,3.1-7.1c2.5-2.3,6.7-3.1,10-3.1c1.1,0,5.6,0,9,2.4
		c2.8,2,3.7,4.7,4,5.9l-4.3,1.2c-0.8-4.2-5.2-5.4-8.9-5.4c-3,0-5,0.7-6,1.4c-0.3,0.2-1.1,0.8-1.6,1.6c-0.8,1.3-0.8,2.6-0.8,3.1
		c0,4.3,4.5,5.3,7.7,5.9l3.8,0.8c3.3,0.7,6.4,1.9,8.4,4.8c1.7,2.3,1.8,4.5,1.8,5.6C263.2,642.4,263.1,644.5,262.1,646.6z"/>
	<path class="st0" d="M297.2,646.6c-1.5,2.8-5.1,6.4-12.5,6.4c-2.2,0-8.2-0.3-12.3-5.5c-1.1-1.5-1.8-2.8-2.5-4.3l4.4-1.5
		c0.6,2.5,3.4,7.2,10.2,7.2c3.4,0,5.7-1,6.7-1.8c1.6-1.2,2.6-3.4,2.6-5.3c0-1.2-0.4-2.3-1-3.2c-1.1-1.6-3-2.5-6.9-3.4
		c-3.6-0.8-9.3-1.5-11.9-4.6c-1.2-1.5-2-3.8-1.9-5.7c0-1.1,0.4-4.7,3.1-7.1c2.5-2.3,6.7-3.1,10-3.1c1.1,0,5.6,0,9,2.4
		c2.8,2,3.7,4.7,4,5.9l-4.3,1.2c-0.8-4.2-5.2-5.4-8.9-5.4c-3,0-5,0.7-6,1.4c-0.3,0.2-1.1,0.8-1.6,1.6c-0.8,1.3-0.8,2.6-0.8,3.1
		c0,4.3,4.5,5.3,7.7,5.9l3.8,0.8c3.3,0.7,6.4,1.9,8.4,4.8c1.7,2.3,1.8,4.5,1.8,5.6C298.3,642.4,298.2,644.5,297.2,646.6z"/>
	<path class="st0" d="M342,652h-3.8l-9-30.1l-9,30.1h-3.8l-12.3-36.6h4.4l9.8,29.5l9-29.5h3.8l9,29.5l9.1-29.5h4.4L342,652z"/>
	<path class="st0" d="M384.9,652v-19.9c0-1.1-0.1-2.3-0.1-3.5c-0.1-3.6-0.5-7.1-4.2-8.9c-1.4-0.6-2.8-0.8-4.3-0.8
		c-5.6,0-8.1,3.1-9.2,5.1c-1.5,2.9-1.5,5.9-1.5,12.3V652H361v-54.1h4.6v23.4c0.1-0.2,0.6-1.2,1.2-2c1.3-1.8,4.4-4.6,10.1-4.6
		c1.6,0,6.9,0.3,10,4.5c2.1,2.8,2.4,5.7,2.4,12.2V652H384.9z"/>
	<path class="st0" d="M430.7,640.9c-2.3,7.4-8,12-15.8,12c-2.5,0-8.4-0.5-12.6-6.1c-1.6-2.2-3.8-6.1-3.8-12.6c0-1.6,0.1-5.2,1.7-9.3
		c3.6-9.3,11.4-10.3,15-10.3c4.2,0,7.7,1.2,10.7,4.1c4.1,3.9,5.7,9.5,5.7,14.9C431.7,634.7,431.7,637.7,430.7,640.9z M415.2,618.3
		c-1.1,0-4,0.2-6.6,2.1c-2.8,2.1-5.2,6.1-5.2,13.7c0,1.4-0.2,8.7,4.8,12.6c1.1,0.9,3.3,2.1,6.8,2.1c5.4,0,11.8-3.4,11.9-14.9
		C427,622.1,421,618.3,415.2,618.3z"/>
	<path class="st0" d="M438.5,652v-8.9h6.1v8.9H438.5z"/>
	<path class="st0" d="M478.7,649.3c-1.7,1.5-5.1,3.6-10.7,3.6c-2,0-7-0.2-11.2-4.1c-5.4-5.1-5.6-12.7-5.6-14.8
		c0-2.8,0.3-5.1,1.2-7.6c2.4-7.5,8.5-11.9,16.4-11.9c5.8,0,8.9,2.2,10.7,4.1c2.1,2.1,2.8,4.1,3.2,5.1l-4.2,1
		c-1.6-4.1-5.6-6.1-9.9-6.1c-1.4,0-4.6,0.2-7.6,2.7c-4.8,4.1-4.8,10.9-4.8,12.5c0,1.1,0.2,7.4,3.4,11.4c0.5,0.6,1.6,1.8,3.6,2.7
		c0.9,0.5,2.5,1.1,5,1.1c4.6,0,7.7-2.1,9.9-6.1l4.6,1.1C481.7,645.9,480.5,647.8,478.7,649.3z"/>
	<path class="st0" d="M520.2,640.9c-2.3,7.4-8,12-15.8,12c-2.5,0-8.4-0.5-12.6-6.1c-1.6-2.2-3.8-6.1-3.8-12.6c0-1.6,0.1-5.2,1.7-9.3
		c3.6-9.3,11.4-10.3,15-10.3c4.2,0,7.7,1.2,10.7,4.1c4.1,3.9,5.7,9.5,5.7,14.9C521.2,634.7,521.2,637.7,520.2,640.9z M504.6,618.3
		c-1.1,0-4,0.2-6.6,2.1c-2.8,2.1-5.2,6.1-5.2,13.7c0,1.4-0.2,8.7,4.8,12.6c1.1,0.9,3.3,2.1,6.8,2.1c5.4,0,11.8-3.4,11.9-14.9
		C516.5,622.1,510.4,618.3,504.6,618.3z"/>
	<path class="st0" d="M573.4,652v-19.9c0-6.3,0.3-9.8-2.5-12c-1.8-1.3-3.8-1.3-4.5-1.3c-4.1,0-6.9,2.3-8.6,5.9
		c-1.4,2.9-1.5,5.7-1.5,12V652h-4.4v-20.3c0-4.8-0.1-7.7-1.2-9.7c-1.2-2.2-3.5-3.1-5.9-3.1c-2,0-5.7,0.5-8.1,4.9
		c-1.8,3.3-1.8,6.5-1.8,13.6V652h-4.5v-36.6h4.5v7.6c0.1-0.5,0.4-1.8,1-2.9c2-3.8,5.8-5.4,9.9-5.4c5.8,0,8.4,3.5,9.3,5.5
		c0.3,0.8,0.6,1.8,0.8,3.6c0.5-2,1-2.9,1.5-3.7c1.1-2.1,4-5.4,10-5.4c2.3,0,4.7,0.5,6.6,1.8c4.3,3,4.1,8.2,4.1,17.5v18H573.4z"/>
</g>
</svg>
