<?xml version="1.0" encoding="utf-8"?>
<!-- Generator: Adobe Illustrator 24.3.0, SVG Export Plug-In . SVG Version: 6.00 Build 0)  -->
<svg version="1.1" id="Laag_1" xmlns="http://www.w3.org/2000/svg" xmlns:xlink="http://www.w3.org/1999/xlink" x="0px" y="0px"
	 width="647.6px" height="452.8px" viewBox="0 0 647.6 452.8" style="enable-background:new 0 0 647.6 452.8;" xml:space="preserve"
	>
<style type="text/css">
	.st0{fill:#FFFFFF;}
</style>
<g>
	<path class="st0" d="M105.9,23.9V12.3c0-6.6,3.3-9.4,9.7-10.7v4.5c-4.1,1.7-4.1,2.6-4.1,6.8h4.8v11H105.9z M119.5,23.9
		c0-4.1,0-8.1,0-12.2c0-3.4,0.6-5.5,3.4-7.6c1.9-1.4,4.2-2.1,6.5-2.2v4.2c-3.9,1.5-4.4,2.3-4.4,6.7h5v11H119.5z"/>
	<path class="st0" d="M139.1,58.8V2.3h40.2v9.4h-29.8V25h27.3v9.1h-27.3v15.1h31.8v9.5H139.1z"/>
	<path class="st0" d="M222,54c-2.2,2.1-7.6,6-15.8,6c-2.6,0-8.9-0.3-14.3-5.4c-4.6-4.3-6.2-9.8-6.2-16.1c0-3.4,0.5-6.6,1.8-9.6
		c1.8-4,6.7-11.4,18.3-11.4c9,0,13.7,4.6,15.8,7.7c1.8,2.8,3.7,7.7,3.9,15.4h-29.6c0.2,1.2,0.6,3.7,2.6,6.1c1.4,1.7,3.8,3.8,8.7,3.8
		s7.8-2.3,9.1-3.7c0.3-0.3,0.8-1,1.4-1.8l8.2,4.7C225.1,50.7,223.9,52.2,222,54z M214,30.4c-0.9-1.9-3-5.1-8.2-5.1
		c-2.1,0-3.2,0.4-4,0.7c-4.5,1.8-5.5,6.3-5.8,7.7h18.7C214.8,33.7,214.6,31.8,214,30.4z"/>
	<path class="st0" d="M258.4,58.8V38.4c0-3.1,0-4.6-0.4-6.2c-1.1-4.6-4.7-5.3-6.6-5.3c-1,0-3,0.2-5,1.8c-2.9,2.4-3.8,5.8-3.8,12.6
		v17.4h-9.7v-40h9.7v4.7c0.2-0.2,1-1.3,1.8-2.1c3.8-3.5,9.2-3.8,10.6-3.8c5.9,0,9.4,3,10.6,4.9c2.6,3.7,2.3,8.7,2.3,12.8v23.5H258.4
		z"/>
	<path class="st0" d="M320.1,58.8h-10.2l-13-40h9.9l8.3,27.5l8.2-27.5h10L320.1,58.8z"/>
	<path class="st0" d="M362.8,58.8l-0.2-3.1c-1.5,1.3-2.9,1.9-3.7,2.2c-2.6,1.2-5.1,1.8-8.1,1.8c-1.9,0-9.1-0.2-12.8-6.2
		c-0.6-1-1.8-3.2-1.8-6.4c0-2.2,0.6-6.7,5.4-10c3.3-2.2,6.4-2.7,10.1-3.4c5.9-1.2,8.1-1.7,11-2.7c0-1-0.1-2.3-0.6-3.3
		c-0.8-1.5-2.8-2.7-6.3-2.7c-3.7,0-6,1.1-7,2.5c-1.1,1.4-1,3-1,3.5l-9.8-0.6c0.1-1.8,0.4-6,4.3-9.2c2.5-2.1,6.2-3.7,13.2-3.7
		c6.6,0,10.4,1.4,12.9,3.1c1.7,1.2,2.6,2.6,2.9,3.2c1,2.1,1,4.9,1,7.1v21.3c0,3,0.2,3.9,1.8,6.5H362.8z M362.8,38.9
		c-1.6,0.8-3.7,1.6-7.6,2.2c-2.2,0.4-4.5,0.5-6.5,1.7c-1.4,0.9-2.3,2.2-2.3,4c0,2.4,1.8,4.7,6.6,4.7c5.3,0,8.4-2.7,9.3-4.6
		c0.6-1.3,0.6-2.4,0.6-3.7V38.9z"/>
	<path class="st0" d="M408.1,58.8V38.4c0-3.1,0-4.6-0.4-6.2c-1.1-4.6-4.7-5.3-6.6-5.3c-1,0-3,0.2-5,1.8c-2.9,2.4-3.8,5.8-3.8,12.6
		v17.4h-9.7v-40h9.7v4.7c0.2-0.2,1-1.3,1.8-2.1c3.8-3.5,9.2-3.8,10.6-3.8c5.9,0,9.4,3,10.6,4.9c2.6,3.7,2.3,8.7,2.3,12.8v23.5H408.1
		z"/>
	<path class="st0" d="M477.3,58.8V55c-0.4,0.4-0.7,0.9-1.1,1.3c-1.5,1.4-4.8,3.8-10,3.8c-1.4,0-4.2-0.2-7.4-1.7
		c-4.3-2-10.3-7.2-10.3-18.7c0-12.2,6.6-18.6,11.2-20.6c1.3-0.6,3.6-1.4,7-1.4c1.4,0,4.2,0.1,7.3,1.8c0.6,0.3,1,0.6,2,1.3
		c0.7,0.6,1.3,1.3,1.4,1.4V2.3h9.5v56.5H477.3z M475.5,30.7c-0.5-0.9-1.4-1.9-2.1-2.5c-1.6-1.3-3.4-1.8-5.4-1.8
		c-0.8,0-2.9,0.2-4.9,1.4c-4.6,3-4.7,9.4-4.7,10.6c0,5.9,2.5,12.7,9.5,12.7c2.6,0,4.6-0.8,6.2-2.7c2.5-2.7,3.1-6,3-9.6
		C477.2,36.4,476.8,33.1,475.5,30.7z"/>
	<path class="st0" d="M531.3,54c-2.2,2.1-7.6,6-15.8,6c-2.6,0-8.9-0.3-14.3-5.4c-4.6-4.3-6.2-9.8-6.2-16.1c0-3.4,0.5-6.6,1.8-9.6
		c1.8-4,6.7-11.4,18.3-11.4c9,0,13.7,4.6,15.8,7.7c1.8,2.8,3.7,7.7,3.9,15.4h-29.6c0.2,1.2,0.6,3.7,2.6,6.1c1.4,1.7,3.8,3.8,8.7,3.8
		c5,0,7.8-2.3,9.1-3.7c0.3-0.3,0.8-1,1.4-1.8l8.2,4.7C534.3,50.7,533.2,52.2,531.3,54z M523.3,30.4c-0.9-1.9-3-5.1-8.2-5.1
		c-2.1,0-3.2,0.4-4,0.7c-4.5,1.8-5.5,6.3-5.8,7.7h18.7C524.1,33.7,523.9,31.8,523.3,30.4z"/>
	<path class="st0" d="M81.2,154.8l-0.2-3.1c-1.5,1.3-2.9,1.9-3.7,2.2c-2.6,1.2-5.1,1.8-8.1,1.8c-1.9,0-9.1-0.2-12.8-6.2
		c-0.6-1-1.8-3.2-1.8-6.4c0-2.2,0.6-6.7,5.4-10c3.3-2.2,6.4-2.7,10.1-3.4c5.9-1.2,8.1-1.7,11-2.7c0-1-0.1-2.3-0.6-3.3
		c-0.8-1.5-2.8-2.7-6.3-2.7c-3.7,0-6,1.1-7,2.5c-1.1,1.4-1,3-1,3.5l-9.8-0.6c0.1-1.8,0.4-6,4.3-9.2c2.5-2.1,6.2-3.7,13.2-3.7
		c6.6,0,10.4,1.4,12.9,3.1c1.7,1.2,2.6,2.6,2.9,3.2c1,2.1,1,4.9,1,7.1v21.3c0,3,0.2,3.9,1.8,6.5H81.2z M81.2,134.9
		c-1.6,0.8-3.7,1.6-7.6,2.2c-2.2,0.4-4.5,0.5-6.5,1.7c-1.4,0.9-2.3,2.2-2.3,4c0,2.4,1.8,4.7,6.6,4.7c5.3,0,8.4-2.7,9.3-4.6
		c0.6-1.3,0.6-2.4,0.6-3.7V134.9z"/>
	<path class="st0" d="M120.1,154.8h-10.2l-13-40h9.9l8.3,27.5l8.2-27.5h10L120.1,154.8z"/>
	<path class="st0" d="M176.5,143.6c-1.6,4.1-6.8,12.4-18.7,12.4c-1.7,0-5.1-0.1-9-1.8c-4.2-1.8-11.8-7.4-11.8-19.5
		c0-4.3,1.2-7.5,1.8-9c1.7-4,6.8-12.1,18.7-12.1c1.5,0,5,0.2,8.8,1.8c4.3,1.8,11.8,7.2,11.8,19.2
		C178.1,136.1,178.1,139.8,176.5,143.6z M157.3,122.2c-0.9,0-3.3,0.2-5.4,1.5c-2.1,1.4-4.9,4.6-4.9,10.6c0,1.9,0.2,3.6,0.8,5.4
		c0.6,1.9,3.4,7.4,10,7.4c7.3,0,10.6-6.4,10.3-12.7C168,128.2,164.4,122.2,157.3,122.2z"/>
	<path class="st0" d="M211.4,154.8v-20.4c0-3.1,0-4.6-0.4-6.2c-1.1-4.6-4.7-5.3-6.6-5.3c-1,0-3,0.2-5,1.8c-2.9,2.4-3.8,5.8-3.8,12.6
		v17.4h-9.7v-40h9.7v4.7c0.2-0.2,1-1.3,1.8-2.1c3.8-3.5,9.2-3.8,10.6-3.8c5.9,0,9.4,3,10.6,4.9c2.6,3.7,2.3,8.7,2.3,12.8v23.5H211.4
		z"/>
	<path class="st0" d="M243.3,155.1c-5.3,0-8-1.3-9.6-3.2c-0.8-1-1.1-1.9-1.2-2.3c-0.4-1.3-0.5-4.1-0.5-7.6v-20.4h-5.8v-6.8h5.8
		v-14.2h9.6v14.2h8.6v6.8h-8.6v18.2c0,1.6-0.2,4.6,1,5.9c1.1,1.3,3.4,1.2,3.7,1.2c1.4,0,2.7-0.2,3.9-0.5v8.1
		C248.9,154.6,246.5,155.1,243.3,155.1z"/>
	<path class="st0" d="M282.6,154.8l-0.1-4.1c-2,1.8-5.9,5-12.9,5c-6.6,0-9.9-2.9-11.5-5.3c-2.6-3.8-2.3-8.3-2.3-12.6v-23h9.7v21.6
		c0,3.3-0.2,7.2,3.2,9.1c1.3,0.8,3.1,1.2,4.6,1.2c4.6,0,7-3,7.8-4.5c1.6-3,1.5-7.4,1.5-10.5v-17h9.6v40H282.6z"/>
	<path class="st0" d="M329.3,154.8l-0.1-4.1c-2,1.8-5.9,5-12.9,5c-6.6,0-9.9-2.9-11.5-5.3c-2.6-3.8-2.3-8.3-2.3-12.6v-23h9.7v21.6
		c0,3.3-0.2,7.2,3.2,9.1c1.3,0.8,3.1,1.2,4.6,1.2c4.6,0,7-3,7.8-4.5c1.6-3,1.5-7.4,1.5-10.5v-17h9.6v40H329.3z"/>
	<path class="st0" d="M359.3,131.1c-0.7,2.2-0.7,4.2-0.7,6.6v17.1h-9.3v-40h9.3v5.7c0.6-1.2,1.4-2.4,2.4-3.3
		c3.2-3.1,8.4-3.3,9.5-3.3h0.8v9.8C369.3,123.8,361.6,123.8,359.3,131.1z"/>
	<path class="st0" d="M377.7,154.8V98.3h9.8v56.5H377.7z"/>
	<path class="st0" d="M397.7,108.6v-9.7h9.5v9.7H397.7z M397.7,154.8v-40h9.5v40H397.7z"/>
	<path class="st0" d="M425,164.7c-1.6,1.5-5,3.1-10.2,3.1c-0.8,0-1.5-0.1-2.2-0.2V159c0.4-0.1,2.3-0.1,3.7-1c1.8-1.1,1.6-2.6,1.6-6
		v-37.2h9.4v43.3C427.3,159.1,427.5,162.4,425,164.7z M417.8,108.5v-9.8h9.4v9.8H417.8z"/>
	<path class="st0" d="M464.8,154.8l-12.1-17.9l-5.6,5.5v12.4h-9.5V98.3h9.5v31.8l15.6-15.3h12.2l-15.3,15.3l16.8,24.7H464.8z"/>
	<path class="st0" d="M513.4,147.8c-1.9,3.7-6.9,8.2-16.6,8.2c-7.5,0-12.9-2.6-15.4-4.1c-1.4-0.9-2.6-1.9-3.8-3.1l7.2-5.8
		c0.3,0.4,0.8,1.1,1.8,2c3.4,3,8.6,3.1,9.7,3.1c2.4,0,5.2-0.6,6.8-2.4c0.6-0.6,1-1.5,1-2.3c0-0.3-0.1-1-0.6-1.7
		c-1-1.4-2.3-1.5-5.3-2.2c-2.6-0.6-5.3-0.9-7.8-1.5c-1.8-0.5-11-2.7-11-11.4c0-3,1.3-5.3,1.8-6.2c2-3.1,6.7-6.9,15.4-6.9
		c3.1,0,11.2,0.5,17.2,7.4l-6.8,6.3c-0.8-1.7-1.8-2.6-2.5-3.2c-2.5-2.2-5.1-2.9-8.4-2.9c-0.4,0-3.1,0-4.9,1.2c-1.4,1-1.8,2.2-1.8,3
		c0.1,1.4,1,2.3,1.3,2.5c1,0.8,3.7,1.4,6.9,2c2.2,0.4,4.3,0.7,6.5,1.2c2.2,0.5,4.6,1.2,6.3,2.5c1.4,1,4.4,3.8,4.4,8.7
		C514.8,144.2,514.3,146.1,513.4,147.8z"/>
	<path class="st0" d="M534.9,155.1c-5.3,0-8-1.3-9.6-3.2c-0.8-1-1.1-1.9-1.2-2.3c-0.4-1.3-0.5-4.1-0.5-7.6v-20.4h-5.8v-6.8h5.8
		v-14.2h9.6v14.2h8.6v6.8h-8.6v18.2c0,1.6-0.2,4.6,1,5.9c1.1,1.3,3.4,1.2,3.7,1.2c1.4,0,2.7-0.2,3.9-0.5v8.1
		C540.5,154.6,538.2,155.1,534.9,155.1z"/>
	<path class="st0" d="M581.7,150c-2.2,2.1-7.6,6-15.8,6c-2.6,0-8.9-0.3-14.3-5.4c-4.6-4.3-6.2-9.8-6.2-16.1c0-3.4,0.5-6.6,1.8-9.6
		c1.8-4,6.7-11.4,18.3-11.4c9,0,13.7,4.6,15.8,7.7c1.8,2.8,3.7,7.7,3.9,15.4h-29.6c0.2,1.2,0.6,3.7,2.6,6.1c1.4,1.7,3.8,3.8,8.7,3.8
		c5,0,7.8-2.3,9.1-3.7c0.3-0.3,0.8-1,1.4-1.8l8.2,4.7C584.7,146.7,583.6,148.2,581.7,150z M573.7,126.4c-0.9-1.9-3-5.1-8.2-5.1
		c-2.1,0-3.2,0.4-4,0.7c-4.5,1.8-5.5,6.3-5.8,7.7h18.7C574.5,129.7,574.2,127.8,573.7,126.4z"/>
	<path class="st0" d="M93,250.8v-24.5c0-1.5-0.3-7.8-6.7-7.8c-1.5,0-5,0.6-7.1,4.1c-1.8,2.9-1.9,6.2-1.9,9.4v18.8h-9.5v-22.4
		c0-0.9-0.1-1.8-0.1-2.6c0-0.8,0-3.6-2.2-5.6c-1.6-1.4-3.6-1.5-4.3-1.5c-1,0-3,0.2-5,1.9c-3.9,3.4-4,9-4,13.4v16.8h-9.6v-40h9.6
		l0.1,4.5c0.6-0.9,0.9-1.1,1.3-1.4c1.4-1.3,5.7-4.2,11.3-4.2c4.6,0,8.9,2.1,11.1,6.1c0.7-0.9,1.5-2,3.7-3.4c1.7-1.1,4.5-2.6,9.2-2.6
		c6.1,0,11.5,2.6,13.2,8.9c0.5,1.8,0.6,3.4,0.6,7v25.3H93z"/>
	<path class="st0" d="M139.3,250.8l-0.1-4.1c-2,1.8-5.9,5-12.9,5c-6.6,0-9.9-2.9-11.5-5.3c-2.6-3.8-2.3-8.3-2.3-12.6v-23h9.7v21.6
		c0,3.3-0.2,7.2,3.2,9.1c1.3,0.8,3.1,1.2,4.6,1.2c4.6,0,7-3,7.8-4.5c1.6-3,1.5-7.4,1.5-10.5v-17h9.6v40H139.3z"/>
	<path class="st0" d="M156.6,250.8v-7.4l21.6-24.1h-19.4v-8.6h32.1v7.4l-21.1,24.1h21.1v8.5H156.6z"/>
	<path class="st0" d="M199.3,204.6v-9.7h9.5v9.7H199.3z M199.3,250.8v-40h9.5v40H199.3z"/>
	<path class="st0" d="M253.3,246c-2.2,2.1-7.6,6-15.8,6c-2.6,0-8.9-0.3-14.3-5.4c-4.6-4.3-6.2-9.8-6.2-16.1c0-3.4,0.5-6.6,1.8-9.6
		c1.8-4,6.7-11.4,18.3-11.4c9,0,13.7,4.6,15.8,7.7c1.8,2.8,3.7,7.7,3.9,15.4H227c0.2,1.2,0.6,3.7,2.6,6.1c1.4,1.7,3.8,3.8,8.7,3.8
		c5,0,7.8-2.3,9.1-3.7c0.3-0.3,0.8-1,1.4-1.8l8.2,4.7C256.3,242.7,255.2,244.2,253.3,246z M245.3,222.4c-0.9-1.9-3-5.1-8.2-5.1
		c-2.1,0-3.2,0.4-4,0.7c-4.5,1.8-5.5,6.3-5.8,7.7h18.7C246.1,225.7,245.8,223.8,245.3,222.4z"/>
	<path class="st0" d="M291.4,250.8l-12.1-17.9l-5.6,5.5v12.4h-9.5v-56.5h9.5v31.8l15.6-15.3h12.2l-15.3,15.3l16.8,24.7H291.4z"/>
	<path class="st0" d="M318.4,217.6v33.2h-9.6v-33.2h-6v-6.8h6v-4.6c0-0.2-0.1-2.9,0.2-4.6c0.8-4.6,4.1-7.3,12.6-7.3
		c1.8,0,3.6,0.2,5.4,0.4v8.2c-0.2-0.1-1.8-0.2-3-0.2c-5.8,0-5.7,3.4-5.7,5.9v2.3h8.7v6.8H318.4z"/>
	<path class="st0" d="M366.6,246c-2.2,2.1-7.6,6-15.8,6c-2.6,0-8.9-0.3-14.3-5.4c-4.6-4.3-6.2-9.8-6.2-16.1c0-3.4,0.5-6.6,1.8-9.6
		c1.8-4,6.7-11.4,18.3-11.4c9,0,13.7,4.6,15.8,7.7c1.8,2.8,3.7,7.7,3.9,15.4h-29.6c0.2,1.2,0.6,3.7,2.6,6.1c1.4,1.7,3.8,3.8,8.7,3.8
		c5,0,7.8-2.3,9.1-3.7c0.3-0.3,0.8-1,1.4-1.8l8.2,4.7C369.7,242.7,368.5,244.2,366.6,246z M358.6,222.4c-0.9-1.9-3-5.1-8.2-5.1
		c-2.1,0-3.2,0.4-4,0.7c-4.5,1.8-5.5,6.3-5.8,7.7h18.7C359.4,225.7,359.2,223.8,358.6,222.4z"/>
	<path class="st0" d="M410.1,243.8c-1.9,3.7-6.9,8.2-16.6,8.2c-7.5,0-12.9-2.6-15.4-4.1c-1.4-0.9-2.6-1.9-3.8-3.1l7.2-5.8
		c0.3,0.4,0.8,1.1,1.8,2c3.4,3,8.6,3.1,9.7,3.1c2.4,0,5.2-0.6,6.8-2.4c0.6-0.6,1-1.5,1-2.3c0-0.3-0.1-1-0.6-1.7
		c-1-1.4-2.3-1.5-5.3-2.2c-2.6-0.6-5.3-0.9-7.8-1.5c-1.8-0.5-11-2.7-11-11.4c0-3,1.3-5.3,1.8-6.2c2-3.1,6.7-6.9,15.4-6.9
		c3.1,0,11.2,0.5,17.2,7.4l-6.8,6.3c-0.8-1.7-1.8-2.6-2.5-3.2c-2.5-2.2-5.1-2.9-8.4-2.9c-0.4,0-3.1,0-4.9,1.2c-1.4,1-1.8,2.2-1.8,3
		c0.1,1.4,1,2.3,1.3,2.5c1,0.8,3.7,1.4,6.9,2c2.2,0.4,4.3,0.7,6.5,1.2c2.2,0.5,4.6,1.2,6.3,2.5c1.4,1,4.4,3.8,4.4,8.7
		C411.4,240.2,410.9,242.1,410.1,243.8z"/>
	<path class="st0" d="M431.6,251.1c-5.3,0-8-1.3-9.6-3.2c-0.8-1-1.1-1.9-1.2-2.3c-0.4-1.3-0.5-4.1-0.5-7.6v-20.4h-5.8v-6.8h5.8
		v-14.2h9.6v14.2h8.6v6.8h-8.6v18.2c0,1.6-0.2,4.6,1,5.9c1.1,1.3,3.4,1.2,3.7,1.2c1.4,0,2.7-0.2,3.9-0.5v8.1
		C437.2,250.6,434.9,251.1,431.6,251.1z"/>
	<path class="st0" d="M444.4,204.6v-9.7h9.5v9.7H444.4z M444.4,250.8v-40h9.5v40H444.4z"/>
	<path class="st0" d="M483.4,250.8h-10.2l-13-40h9.9l8.3,27.5l8.2-27.5h10L483.4,250.8z"/>
	<path class="st0" d="M526.1,250.8l-0.2-3.1c-1.5,1.3-2.9,1.9-3.7,2.2c-2.6,1.2-5.1,1.8-8.1,1.8c-1.9,0-9.1-0.2-12.8-6.2
		c-0.6-1-1.8-3.2-1.8-6.4c0-2.2,0.6-6.7,5.4-10c3.3-2.2,6.4-2.7,10.1-3.4c5.9-1.2,8.1-1.7,11-2.7c0-1-0.1-2.3-0.6-3.3
		c-0.8-1.5-2.8-2.7-6.3-2.7c-3.7,0-6,1.1-7,2.5c-1.1,1.4-1,3-1,3.5l-9.8-0.6c0.1-1.8,0.4-6,4.3-9.2c2.5-2.1,6.2-3.7,13.2-3.7
		c6.6,0,10.4,1.4,12.9,3.1c1.7,1.2,2.6,2.6,2.9,3.2c1,2.1,1,4.9,1,7.1v21.3c0,3,0.2,3.9,1.8,6.5H526.1z M526.1,230.9
		c-1.6,0.8-3.7,1.6-7.6,2.2c-2.2,0.4-4.5,0.5-6.5,1.7c-1.4,0.9-2.3,2.2-2.3,4c0,2.4,1.8,4.7,6.6,4.7c5.3,0,8.4-2.7,9.3-4.6
		c0.6-1.3,0.6-2.4,0.6-3.7V230.9z"/>
	<path class="st0" d="M546.1,250.8v-56.5h9.8v56.5H546.1z"/>
	<path class="st0" d="M598.5,243.8c-1.9,3.7-6.9,8.2-16.6,8.2c-7.5,0-12.9-2.6-15.4-4.1c-1.4-0.9-2.6-1.9-3.8-3.1l7.2-5.8
		c0.3,0.4,0.8,1.1,1.8,2c3.4,3,8.6,3.1,9.7,3.1c2.4,0,5.2-0.6,6.8-2.4c0.6-0.6,1-1.5,1-2.3c0-0.3-0.1-1-0.6-1.7
		c-1-1.4-2.3-1.5-5.3-2.2c-2.6-0.6-5.3-0.9-7.8-1.5c-1.8-0.5-11-2.7-11-11.4c0-3,1.3-5.3,1.8-6.2c2-3.1,6.7-6.9,15.4-6.9
		c3.1,0,11.2,0.5,17.2,7.4l-6.8,6.3c-0.8-1.7-1.8-2.6-2.5-3.2c-2.5-2.2-5.1-2.9-8.4-2.9c-0.4,0-3.1,0-4.9,1.2c-1.4,1-1.8,2.2-1.8,3
		c0.1,1.4,1,2.3,1.3,2.5c1,0.8,3.7,1.4,6.9,2c2.2,0.4,4.3,0.7,6.5,1.2c2.2,0.5,4.6,1.2,6.3,2.5c1.4,1,4.4,3.8,4.4,8.7
		C599.8,240.2,599.3,242.1,598.5,243.8z"/>
	<path class="st0" d="M141.9,347.1c-5.3,0-8-1.3-9.6-3.2c-0.8-1-1.1-1.9-1.2-2.3c-0.4-1.3-0.5-4.1-0.5-7.6v-20.4h-5.8v-6.8h5.8
		v-14.2h9.6v14.2h8.6v6.8h-8.6v18.2c0,1.6-0.2,4.6,1,5.9c1.1,1.3,3.4,1.2,3.7,1.2c1.4,0,2.7-0.2,3.9-0.5v8.1
		C147.5,346.6,145.2,347.1,141.9,347.1z"/>
	<path class="st0" d="M188.7,342c-2.2,2.1-7.6,6-15.8,6c-2.6,0-8.9-0.3-14.3-5.4c-4.6-4.3-6.2-9.8-6.2-16.1c0-3.4,0.5-6.6,1.8-9.6
		c1.8-4,6.7-11.4,18.3-11.4c9,0,13.7,4.6,15.8,7.7c1.8,2.8,3.7,7.7,3.9,15.4h-29.6c0.2,1.2,0.6,3.7,2.6,6.1c1.4,1.7,3.8,3.8,8.7,3.8
		c5,0,7.8-2.3,9.1-3.7c0.3-0.3,0.8-1,1.4-1.8l8.2,4.7C191.7,338.7,190.6,340.2,188.7,342z M180.7,318.4c-0.9-1.9-3-5.1-8.2-5.1
		c-2.1,0-3.2,0.4-4,0.7c-4.5,1.8-5.5,6.3-5.8,7.7h18.7C181.5,321.7,181.2,319.8,180.7,318.4z"/>
	<path class="st0" d="M209.6,323.1c-0.7,2.2-0.7,4.2-0.7,6.6v17.1h-9.3v-40h9.3v5.7c0.6-1.2,1.4-2.4,2.4-3.3
		c3.2-3.1,8.4-3.3,9.5-3.3h0.8v9.8C219.6,315.8,211.9,315.8,209.6,323.1z"/>
	<path class="st0" d="M292.7,346.8h-9.5l-7.2-25.5l-7.6,25.5h-9.5l-11.6-40h10l7,27.4l7.4-27.4h8.6l7.4,27.4l7.1-27.4h10
		L292.7,346.8z"/>
	<path class="st0" d="M345,342c-2.2,2.1-7.6,6-15.8,6c-2.6,0-8.9-0.3-14.3-5.4c-4.6-4.3-6.2-9.8-6.2-16.1c0-3.4,0.5-6.6,1.8-9.6
		c1.8-4,6.7-11.4,18.3-11.4c9,0,13.7,4.6,15.8,7.7c1.8,2.8,3.7,7.7,3.9,15.4h-29.6c0.2,1.2,0.6,3.7,2.6,6.1c1.4,1.7,3.8,3.8,8.7,3.8
		c5,0,7.8-2.3,9.1-3.7c0.3-0.3,0.8-1,1.4-1.8l8.2,4.7C348,338.7,346.9,340.2,345,342z M337,318.4c-0.9-1.9-3-5.1-8.2-5.1
		c-2.1,0-3.2,0.4-4,0.7c-4.5,1.8-5.5,6.3-5.8,7.7h18.7C337.8,321.7,337.5,319.8,337,318.4z"/>
	<path class="st0" d="M365.9,323.1c-0.7,2.2-0.7,4.2-0.7,6.6v17.1h-9.3v-40h9.3v5.7c0.6-1.2,1.4-2.4,2.4-3.3
		c3.2-3.1,8.4-3.3,9.5-3.3h0.8v9.8C375.9,315.8,368.3,315.8,365.9,323.1z"/>
	<path class="st0" d="M418.3,342c-2.2,2.1-7.6,6-15.8,6c-2.6,0-8.9-0.3-14.3-5.4c-4.6-4.3-6.2-9.8-6.2-16.1c0-3.4,0.5-6.6,1.8-9.6
		c1.8-4,6.7-11.4,18.3-11.4c9,0,13.7,4.6,15.8,7.7c1.8,2.8,3.7,7.7,3.9,15.4H392c0.2,1.2,0.6,3.7,2.6,6.1c1.4,1.7,3.8,3.8,8.7,3.8
		c5,0,7.8-2.3,9.1-3.7c0.3-0.3,0.8-1,1.4-1.8l8.2,4.7C421.3,338.7,420.2,340.2,418.3,342z M410.3,318.4c-0.9-1.9-3-5.1-8.2-5.1
		c-2.1,0-3.2,0.4-4,0.7c-4.5,1.8-5.5,6.3-5.8,7.7h18.7C411.1,321.7,410.8,319.8,410.3,318.4z"/>
	<path class="st0" d="M429.3,346.8v-56.5h9.8v56.5H429.3z"/>
	<path class="st0" d="M475.9,346.8V343c-0.4,0.4-0.7,0.9-1.1,1.3c-1.5,1.4-4.8,3.8-10,3.8c-1.4,0-4.2-0.2-7.4-1.7
		c-4.3-2-10.3-7.2-10.3-18.7c0-12.2,6.6-18.6,11.2-20.6c1.3-0.6,3.6-1.4,7-1.4c1.4,0,4.2,0.1,7.3,1.8c0.6,0.3,1,0.6,2,1.3
		c0.7,0.6,1.3,1.3,1.4,1.4v-19.8h9.5v56.5H475.9z M474,318.7c-0.5-0.9-1.4-1.9-2.1-2.5c-1.6-1.3-3.4-1.8-5.4-1.8
		c-0.8,0-2.9,0.2-4.9,1.4c-4.6,3-4.7,9.4-4.7,10.6c0,5.9,2.5,12.7,9.5,12.7c2.6,0,4.6-0.8,6.2-2.7c2.5-2.7,3.1-6,3-9.6
		C475.8,324.4,475.4,321.1,474,318.7z"/>
	<path class="st0" d="M500.7,310.1c-1.8,1.4-4.2,2.3-6.5,2.2v-4.2c3-0.8,4.4-2.5,4.4-5.5c0-0.4-0.1-0.7-0.1-1.1h-4.9v-11.1h10.4
		c0,4.2,0,8.3,0,12.4C504.1,306,503.4,308.1,500.7,310.1z M508,312.7v-4.5c4.1-1.3,4.2-3,4.2-6.8h-4.8v-11.1h10.4v11.4
		C517.8,308.5,514.6,311.5,508,312.7z"/>
	<path class="st0" d="M129.3,427v-3.6h15.9v3.6H129.3z"/>
	<path class="st0" d="M195.7,437.8c-0.7,0.7-2.6,2.8-5.5,3.8s-5.5,1.1-11.3,1.1h-11v-42.4h11.3c1.5,0,2.9,0,4.4,0.1
		c4.9,0.2,8.4,0.8,11.9,4.6c2.4,2.5,5.7,7.8,5.7,16.4C201.3,423.8,201,431.9,195.7,437.8z M193,408.1c-0.5-0.7-2-2.3-4.3-3.2
		c-2.3-0.8-4.5-0.8-9.3-0.8h-7.4v35.1h6.4c5.6,0,9-0.2,11.3-1.3c2.3-1.1,3.8-3.2,4.3-3.9c1.4-2,3.4-6.1,3.4-12.4
		C197.2,420,197.1,413,193,408.1z"/>
	<path class="st0" d="M230.8,439c-1.6,1.9-4.4,4.6-10.2,4.6c-1,0-3.9-0.1-6.6-1.5c-6.8-3.5-7.1-11.9-7.1-13.8c0-1,0-3.3,0.9-5.8
		c1.9-5.4,6.5-8.9,12.3-8.9c1.7,0,5.9,0.4,9.2,4.1c2.3,2.6,3.7,6.6,3.7,10.1v0.9h-22.2c-0.1,2.3,0.2,3.8,0.5,4.8
		c0.6,2.3,2.6,7,9.2,7c2.5,0,6.5-0.6,9.2-6l3.3,1C232.7,435.8,232,437.5,230.8,439z M220,416.6c-5,0-7.3,3.4-8.1,5
		c-0.5,1.2-0.9,2.7-1.1,4h18.1C228.1,418.2,223.2,416.6,220,416.6z"/>
	<path class="st0" d="M270.7,442.8h-3.6l-15.5-42.4h4.4l13,36.8l13.3-36.8h4.3L270.7,442.8z"/>
	<path class="st0" d="M312.1,434.1c-1.8,5.8-6.3,9.4-12.4,9.4c-2,0-6.5-0.4-9.9-4.8c-1.3-1.7-2.9-4.8-2.9-9.9c0-1.3,0.1-4.1,1.3-7.3
		c2.8-7.3,8.9-8.1,11.8-8.1c3.3,0,6,1,8.4,3.2c3.2,3.1,4.4,7.4,4.5,11.7C312.8,429.3,312.8,431.6,312.1,434.1z M299.9,416.5
		c-0.9,0-3.1,0.1-5.2,1.6c-2.2,1.7-4.1,4.8-4.1,10.7c0,1.1-0.1,6.8,3.8,9.9c0.9,0.7,2.6,1.7,5.3,1.7c4.2,0,9.2-2.6,9.3-11.7
		C309.2,419.4,304.4,416.5,299.9,416.5z"/>
	<path class="st0" d="M319.9,442.8v-42.4h3.6v42.4H319.9z"/>
	<path class="st0" d="M353,442.8L342.1,428l-6.1,5.8v9h-3.5v-42.4h3.5v28.8l16.1-15.1h4.4l-11.9,11.4l12.8,17.2H353z"/>
	<path class="st0" d="M381.3,438.5c-1.1,2.2-4,5-9.8,5c-1.7,0-6.4-0.2-9.6-4.3c-0.9-1.1-1.4-2.2-1.9-3.4l3.5-1.2
		c0.5,2,2.6,5.6,8,5.6c2.7,0,4.4-0.8,5.3-1.4c1.3-1,2-2.6,2-4.1c0-0.9-0.3-1.8-0.8-2.5c-0.9-1.3-2.3-2-5.4-2.6
		c-2.8-0.7-7.3-1.1-9.3-3.6c-1-1.2-1.6-2.9-1.5-4.5c0-0.9,0.3-3.7,2.5-5.6c1.9-1.8,5.3-2.4,7.8-2.4c0.8,0,4.4,0,7,1.9
		c2.2,1.6,2.9,3.7,3.1,4.6l-3.4,0.9c-0.7-3.3-4.1-4.3-7-4.3c-2.3,0-3.9,0.5-4.7,1.1c-0.2,0.1-0.8,0.6-1.3,1.3c-0.6,1-0.7,2-0.7,2.5
		c0,3.4,3.5,4.1,6,4.6l3,0.6c2.6,0.5,5,1.5,6.5,3.7c1.3,1.8,1.4,3.5,1.4,4.4C382.2,435.3,382.1,436.9,381.3,438.5z"/>
	<path class="st0" d="M410.5,442.8L399.5,428l-6.1,5.8v9h-3.5v-42.4h3.5v28.8l16.1-15.1h4.4L402,425.6l12.8,17.2H410.5z"/>
	<path class="st0" d="M433.7,417.1c-0.7-0.1-1.4-0.2-2.2-0.2c-4.4,0-7.1,2.6-7.7,6.8c-0.2,1.5-0.3,3.4-0.3,6.8v12.4h-3.5v-28.6h3.5
		v4.6c0.2-0.5,0.5-1,0.8-1.4c0.4-0.5,1.6-2,3.4-2.8c0.8-0.4,2-0.7,4.1-0.7c0.5,0,1.1,0,2.1,0.1L433.7,417.1z"/>
	<path class="st0" d="M457.3,441.3c-1.1-1.1-1.2-2.3-1.3-3.7c-0.4,0.9-0.8,1.7-1.5,2.5c-1.1,1.3-4.1,3.4-8.6,3.4
		c-3.7,0-5.6-1.3-6.8-2.5c-0.7-0.7-2.2-2.6-2.2-5.3c0-0.8,0.1-2.8,1.6-4.5c2.2-2.6,5.7-3.5,8.8-4.4c1.8-0.5,3.6-1,5.4-1.4l3.4-0.7
		v-1.5c0-1.1,0.1-1.7-0.3-2.8c-0.6-1.9-2.2-3.8-6.5-3.8c-3.7,0-5.5,1-6.5,2.5c-0.9,1.4-1,2.9-1.1,4.4l-3.9-0.7
		c0.1-0.6,0.5-3.1,1.7-5c1.3-2,4.1-4.4,9.5-4.4c2.9,0,6.8,0.7,8.8,3.1c1.9,2.3,1.7,5.3,1.7,8.1v9.2c0,2.8-0.1,4.7,1,5.5
		c0.9,0.7,2.3,0.7,3.3,0.7v2.8C460.4,442.8,458.5,442.5,457.3,441.3z M456.1,427.7l-1.8,0.5c-5.6,1.5-10.4,2.6-12.1,3.9
		c-1.1,0.8-1.8,2.1-1.8,3.5c0,1,0.4,1.8,0.5,2c1.3,2.6,4.6,2.7,5.2,2.7c3.5,0,7.7-2.1,9.2-5.4c0.5-1.2,0.8-2.4,0.8-5V427.7z"/>
	<path class="st0" d="M487.4,442.8v-14.9c0-3.8,0-6.1-0.7-7.8c-0.6-1.5-1.6-2.2-2.2-2.5c-1.6-1-3.2-0.9-3.9-0.9s-2.2,0.1-3.8,0.8
		c-2.1,1-3.8,3.3-4.3,5.5c-0.3,1.4-0.4,3.8-0.4,7.3v12.5h-3.5v-28.6h3.5v5.1c0.2-0.7,0.7-1.9,2-3.2c1.1-1.1,3.2-2.5,7-2.5
		c5.3,0,7.8,2.9,8.7,4.9c1.1,2.3,1,4.6,1,9.4v14.9H487.4z"/>
	<path class="st0" d="M507.5,443.3c-0.3,0-0.7,0-1-0.1c-0.8-0.1-2.9-0.2-3.8-2.5c-0.5-1.3-0.4-4.3-0.4-5.7v-17.9h-6v-3h6V402h3.4
		v12.2h6.3v3h-6.3V433c0,1,0,2,0,3.1c-0.1,1.7-0.1,4.2,2.3,4.2c1.4,0,2.9-1,4-1.8v3.6C511.3,442.6,509.9,443.3,507.5,443.3z"/>
</g>
</svg>
