<?xml version="1.0" encoding="utf-8"?>
<!-- Generator: Adobe Illustrator 23.0.2, SVG Export Plug-In . SVG Version: 6.00 Build 0)  -->
<svg version="1.1" id="Laag_1" xmlns="http://www.w3.org/2000/svg" xmlns:xlink="http://www.w3.org/1999/xlink" x="0px" y="0px"
	 width="155.5px" height="52.8px" viewBox="0 0 155.5 52.8" style="enable-background:new 0 0 155.5 52.8;" xml:space="preserve">
<style type="text/css">
	.st0{fill:#FFFFFF;}
</style>
<g>
	<path class="st0" d="M7.8,3.5c0.6,0,1.1,0.2,1.4,0.6s0.5,1,0.5,1.7v3.4h-1V5.9c0-0.5-0.1-0.8-0.3-1.1C8.1,4.6,7.8,4.4,7.5,4.4
		S6.9,4.5,6.6,4.8C6.4,5.1,6.3,5.5,6.3,5.9v3.3h-1V5.9C5.3,5.4,5.2,5,5,4.8C4.7,4.6,4.4,4.4,4.1,4.4S3.5,4.5,3.2,4.8
		C2.9,5.1,2.8,5.4,2.8,5.9v3.4h-1V3.6h0.8l0.2,0.7h0.1C3,4.1,3.2,3.9,3.4,3.8s0.6-0.3,1-0.3s0.7,0.1,1,0.3C5.7,4,5.9,4.3,6,4.6h0.1
		C6.2,4.3,6.4,4,6.7,3.8C7,3.6,7.3,3.5,7.8,3.5z"/>
	<path class="st0" d="M13.6,3.5c0.8,0,1.4,0.3,1.9,0.8s0.7,1.3,0.6,2.3h-4.2c0,0.6,0.2,1,0.5,1.4c0.3,0.3,0.7,0.5,1.3,0.5
		c0.3,0,0.6-0.1,0.9-0.2s0.5-0.4,0.6-0.7h1c-0.1,0.6-0.4,1-0.9,1.3c-0.4,0.3-1,0.4-1.6,0.4c-0.8,0-1.5-0.3-2-0.8S11,7.3,11,6.4
		c0-0.8,0.3-1.5,0.8-2.1C12.2,3.8,12.8,3.5,13.6,3.5z M11.9,5.9h3.3c0-0.4-0.2-0.8-0.4-1.1c-0.3-0.3-0.7-0.4-1.1-0.4
		c-0.5,0-0.8,0.1-1.1,0.4C12.2,5,12,5.4,11.9,5.9z"/>
	<path class="st0" d="M20.3,9.1c-0.3,0.2-0.6,0.3-0.9,0.3c-0.9,0-1.4-0.5-1.4-1.5V4.4h-1.1V3.7h0.3c0.6,0,0.9-0.3,0.9-0.8V2.2H19
		v1.4h1.3v0.8H19v3.3c0,0.5,0.2,0.7,0.6,0.7c0.2,0,0.3-0.1,0.5-0.2L20.3,9.1z"/>
	<path class="st0" d="M27.2,9.3c-0.8,0-1.5-0.3-2-0.8c-0.5-0.6-0.8-1.3-0.8-2.1s0.3-1.5,0.8-2.1s1.2-0.8,2-0.8s1.5,0.3,2,0.8
		C29.7,4.9,30,5.5,30,6.4c0,0.8-0.3,1.5-0.8,2.1C28.8,9.1,28.1,9.3,27.2,9.3z M27.2,8.5c0.5,0,1-0.2,1.3-0.6S29,7,29,6.5
		c0-0.6-0.2-1-0.5-1.4s-0.8-0.6-1.3-0.6s-1,0.2-1.3,0.6S25.4,6,25.4,6.5c0,0.6,0.2,1,0.5,1.4C26.3,8.3,26.7,8.5,27.2,8.5z"/>
	<path class="st0" d="M31.6,9.3c-0.2,0-0.3-0.1-0.5-0.2C31,9,30.9,8.8,30.9,8.6s0.1-0.3,0.2-0.5C31.3,8,31.4,8,31.6,8
		s0.3,0.1,0.5,0.2c0.1,0.1,0.2,0.3,0.2,0.5S32.2,9,32.1,9.2C31.9,9.3,31.8,9.3,31.6,9.3z"/>
	<path class="st0" d="M38.1,7.9c0,0.2,0,0.4,0.1,0.4s0.2,0.1,0.4,0.1v0.8h-0.2c-0.6,0-1-0.3-1.1-0.8c-0.2,0.3-0.5,0.5-0.8,0.6
		c-0.3,0.2-0.7,0.2-1.1,0.2c-0.5,0-1-0.1-1.4-0.4s-0.5-0.7-0.5-1.2c0-0.6,0.2-1,0.7-1.3c0.4-0.3,1.1-0.5,1.9-0.5l1.1-0.1v0
		c0-0.4-0.1-0.8-0.3-1c-0.2-0.3-0.5-0.4-0.9-0.4s-0.7,0.1-0.9,0.3c-0.2,0.2-0.3,0.5-0.4,0.8h-0.9c0-0.5,0.3-1,0.6-1.4
		c0.4-0.4,0.9-0.5,1.5-0.5s1.2,0.2,1.6,0.6c0.4,0.4,0.6,0.9,0.6,1.6C38.1,5.7,38.1,7.9,38.1,7.9z M35.5,8.5c0.4,0,0.8-0.1,1.1-0.4
		C37,7.9,37.1,7.5,37.1,7V6.6l-0.9,0.1c-0.5,0-1,0.2-1.2,0.3c-0.3,0.2-0.4,0.4-0.4,0.7c0,0.3,0.1,0.5,0.3,0.6
		C35,8.5,35.2,8.5,35.5,8.5z"/>
	<path class="st0" d="M40.4,9.3c-0.2,0-0.3-0.1-0.5-0.2c-0.1-0.1-0.2-0.3-0.2-0.5s0.1-0.3,0.2-0.5C40,8,40.2,8,40.4,8
		s0.3,0.1,0.5,0.2c0.1,0.1,0.2,0.3,0.2,0.5S41,9,40.9,9.2C40.7,9.3,40.6,9.3,40.4,9.3z"/>
	<path class="st0" d="M50.7,1.4h1v7.8h-1V5.7h-3.8v3.5h-1V1.4h1v3.4h3.8V1.4z"/>
	<path class="st0" d="M58.6,9.2l-0.7-2h-3.2l-0.7,2h-1l2.7-7.8H57l2.7,7.8H58.6z M55.1,6.3h2.6l-1.2-3.8h-0.1L55.1,6.3z"/>
	<path class="st0" d="M66.3,1.4h1v7.8h-1.1l-4.1-6.1H62v6.1h-1V1.4h1.2l4,6.1h0.1C66.3,7.5,66.3,1.4,66.3,1.4z"/>
	<path class="st0" d="M74.5,7.3c0,0.7-0.2,1.2-0.7,1.5c-0.5,0.4-1.1,0.5-1.9,0.5c-0.9,0-1.6-0.2-2.1-0.7S69,7.5,69,6.8h1.1
		c0,0.5,0.2,0.9,0.5,1.1c0.3,0.3,0.7,0.4,1.3,0.4c0.5,0,0.8-0.1,1.1-0.3c0.3-0.2,0.4-0.5,0.4-0.9S73.3,6.4,73,6.2
		c-0.3-0.2-0.7-0.5-1.4-0.7c-0.7-0.2-1.3-0.5-1.7-0.9S69.3,4,69.3,3.4s0.2-1.2,0.7-1.6s1.1-0.6,1.8-0.6c0.8,0,1.4,0.2,1.9,0.7
		s0.7,1,0.7,1.6h-1c0-0.4-0.2-0.7-0.5-1s-0.7-0.4-1.2-0.4c-0.4,0-0.8,0.1-1,0.3c-0.3,0.2-0.4,0.5-0.4,0.8s0.1,0.6,0.4,0.8
		s0.7,0.4,1.3,0.6c0.8,0.3,1.4,0.6,1.8,1C74.3,6.2,74.5,6.7,74.5,7.3z"/>
	<path class="st0" d="M86.1,6.8c-0.2,0.8-0.5,1.4-1.1,1.8c-0.6,0.5-1.3,0.7-2.1,0.7c-1.1,0-2-0.4-2.7-1.1c-0.7-0.7-1-1.7-1-2.9
		s0.3-2.1,1-2.9s1.5-1.1,2.6-1.1c0.8,0,1.5,0.2,2.1,0.7c0.6,0.4,1,1.1,1.1,1.9h-1.1c-0.1-0.5-0.4-0.9-0.8-1.1
		c-0.4-0.3-0.8-0.4-1.4-0.4c-0.8,0-1.4,0.3-1.8,0.9c-0.5,0.6-0.7,1.3-0.7,2.2s0.2,1.6,0.7,2.2s1.1,0.8,1.9,0.8c0.5,0,1-0.1,1.4-0.4
		C84.6,7.8,84.9,7.5,85,7h1.1V6.8z"/>
	<path class="st0" d="M93.2,9.2h-1.1L90.2,6l0,0h-1.5v3.2h-1V1.4h2.7c0.8,0,1.4,0.2,1.9,0.6S93,3,93,3.7c0,0.5-0.1,1-0.4,1.4
		s-0.7,0.7-1.2,0.8L93.2,9.2z M88.6,2.3V5h1.5c0.5,0,0.9-0.1,1.2-0.4c0.3-0.3,0.4-0.6,0.4-1s-0.1-0.8-0.4-1s-0.7-0.4-1.2-0.4h-1.5
		V2.3z"/>
	<path class="st0" d="M98.1,9.3c-1.1,0-2-0.4-2.8-1.2c-0.7-0.8-1.1-1.7-1.1-2.9s0.4-2.1,1.1-2.9s1.7-1.2,2.8-1.2
		c1.1,0,2,0.4,2.8,1.2c0.7,0.8,1.1,1.7,1.1,2.9s-0.4,2.1-1.1,2.9C100.1,9,99.2,9.3,98.1,9.3z M98.1,8.3c0.8,0,1.5-0.3,2-0.9
		s0.8-1.3,0.8-2.2s-0.3-1.6-0.8-2.2s-1.2-0.9-2-0.9s-1.5,0.3-2,0.9s-0.8,1.3-0.8,2.2s0.3,1.6,0.8,2.2S97.3,8.3,98.1,8.3z"/>
	<path class="st0" d="M104.7,1.4v7.8h-1.1V1.4H104.7z"/>
	<path class="st0" d="M111.9,7.3c0,0.7-0.2,1.2-0.7,1.5c-0.5,0.4-1.1,0.5-1.9,0.5c-0.9,0-1.6-0.2-2.1-0.7s-0.8-1.1-0.8-1.8h1.1
		c0,0.5,0.2,0.9,0.5,1.1c0.3,0.3,0.7,0.4,1.3,0.4c0.5,0,0.8-0.1,1.1-0.3c0.3-0.2,0.4-0.5,0.4-0.9s-0.1-0.7-0.4-0.9
		c-0.3-0.2-0.7-0.5-1.4-0.7c-0.7-0.2-1.3-0.5-1.7-0.9s-0.6-0.8-0.6-1.4s0.2-1.2,0.7-1.6s1.1-0.6,1.8-0.6c0.8,0,1.4,0.2,1.9,0.7
		s0.7,1,0.7,1.6h-1c0-0.4-0.2-0.7-0.5-1s-0.7-0.4-1.2-0.4c-0.4,0-0.8,0.1-1,0.3c-0.3,0.2-0.4,0.5-0.4,0.8s0.1,0.6,0.4,0.8
		c0.3,0.2,0.7,0.4,1.3,0.6c0.8,0.3,1.4,0.6,1.8,1C111.7,6.2,111.9,6.7,111.9,7.3z"/>
	<path class="st0" d="M114.6,8.3h4.1v1h-5.1V1.4h5v1h-3.9v2.5h3.5v0.9h-3.5L114.6,8.3L114.6,8.3z"/>
	<path class="st0" d="M125.2,1.4v0.9H123v6.9h-1V2.3h-2.3V1.4H125.2z"/>
</g>
<g>
	<path class="st0" d="M8.2,21.2H7.1l-1-1.1C5.8,20.5,5.4,20.8,5,21s-0.8,0.3-1.3,0.3c-0.6,0-1.1-0.2-1.5-0.5S1.6,20,1.6,19.5
		s0.1-0.9,0.4-1.2c0.3-0.3,0.7-0.7,1.3-1.1c-0.2-0.2-0.4-0.4-0.5-0.6c-0.1-0.1-0.3-0.4-0.4-0.6c-0.1-0.3-0.2-0.5-0.2-0.8
		c0-0.5,0.2-0.9,0.6-1.3c0.4-0.4,0.9-0.5,1.4-0.5c0.6,0,1.1,0.2,1.5,0.5s0.6,0.7,0.6,1.2c0,0.2,0,0.4-0.1,0.6
		c-0.1,0.2-0.2,0.4-0.4,0.6c-0.2,0.2-0.3,0.4-0.5,0.5c-0.1,0.1-0.4,0.3-0.7,0.5L6,18.8l0.9-1.3h1l-1.1,1.7c0,0,0,0-0.1,0.1
		c0,0.1-0.1,0.1-0.1,0.1L8.2,21.2z M3.8,20.4c0.6,0,1.1-0.3,1.7-1l-1.6-1.7c-0.5,0.4-0.8,0.6-1,0.9s-0.3,0.5-0.3,0.8S2.7,20,3,20.2
		S3.5,20.4,3.8,20.4z M4.2,14.1c-0.3,0-0.6,0.1-0.8,0.3s-0.3,0.4-0.3,0.7c0,0.2,0.1,0.5,0.2,0.7C3.5,16,3.7,16.2,4,16.6
		c0.3-0.2,0.6-0.4,0.7-0.5C4.9,16,5,15.8,5.1,15.6s0.2-0.4,0.2-0.6c0-0.3-0.1-0.5-0.3-0.7S4.5,14.1,4.2,14.1z"/>
	<path class="st0" d="M18.1,21.2H17L15.1,18l0,0h-1.5v3.2h-1v-7.8h2.7c0.8,0,1.4,0.2,1.9,0.6s0.7,1,0.7,1.7c0,0.5-0.1,1-0.4,1.4
		s-0.7,0.7-1.2,0.8L18.1,21.2z M13.6,14.3V17h1.5c0.5,0,0.9-0.1,1.2-0.4s0.4-0.6,0.4-1s-0.1-0.8-0.4-1s-0.7-0.4-1.2-0.4L13.6,14.3
		L13.6,14.3z"/>
	<path class="st0" d="M20.5,20.2h4.1v1h-5.1v-7.8h5v1h-3.9v2.5H24v0.9h-3.5V20.2z"/>
	<path class="st0" d="M31.3,13.3h1v7.8h-1.1L27.1,15H27v6.1h-1v-7.8h1.2l4,6.1h0.1C31.3,19.4,31.3,13.3,31.3,13.3z"/>
	<path class="st0" d="M35.3,20.2h4.1v1h-5.1v-7.8h5v1h-3.9v2.5h3.5v0.9h-3.5L35.3,20.2L35.3,20.2z M37.1,11.1h1.2l-1.2,1.5h-0.7
		L37.1,11.1z"/>
	<path class="st0" d="M49,13.3h1.1l-2.7,7.8h-1.5l-2.7-7.8h1.1l2.3,6.7h0.1L49,13.3z"/>
	<path class="st0" d="M55.4,21.2l-0.7-2h-3.2l-0.7,2h-1.1l2.7-7.8h1.4l2.7,7.8H55.4z M51.9,18.3h2.6l-1.2-3.8h-0.1L51.9,18.3z"/>
	<path class="st0" d="M63.1,13.3h1v7.8H63L58.9,15h-0.1v6.1h-1v-7.8H59l4,6.1h0.1V13.3z"/>
	<path class="st0" d="M69.4,15.4c-0.2,0-0.4-0.1-0.5-0.2c-0.1-0.2-0.2-0.4-0.2-0.6c0-0.4,0.1-0.7,0.3-1s0.4-0.5,0.7-0.6l0.2,0.3
		c-0.4,0.3-0.6,0.6-0.6,0.9c0.2,0,0.3,0,0.4,0.1s0.2,0.3,0.2,0.5s-0.1,0.4-0.2,0.5C69.7,15.3,69.5,15.4,69.4,15.4z"/>
	<path class="st0" d="M76.7,13.3v0.9h-2.3v6.9h-1v-6.9h-2.3v-0.9C71.1,13.3,76.7,13.3,76.7,13.3z"/>
	<path class="st0" d="M86,13.3h1v7.8h-1v-3.5h-3.8v3.5h-1v-7.8h1v3.4H86V13.3z"/>
	<path class="st0" d="M92.6,21.3c-1.1,0-2-0.4-2.8-1.2c-0.7-0.8-1.1-1.7-1.1-2.9s0.4-2.1,1.1-2.9c0.7-0.8,1.7-1.2,2.8-1.2
		c1.1,0,2,0.4,2.8,1.2c0.7,0.8,1.1,1.7,1.1,2.9s-0.4,2.1-1.1,2.9C94.6,20.9,93.7,21.3,92.6,21.3z M92.6,20.3c0.8,0,1.5-0.3,2-0.9
		s0.8-1.3,0.8-2.2s-0.3-1.6-0.8-2.2s-1.2-0.9-2-0.9s-1.5,0.3-2,0.9s-0.8,1.3-0.8,2.2s0.3,1.6,0.8,2.2S91.8,20.3,92.6,20.3z"/>
	<path class="st0" d="M103,14.3h-3.8v2.5h3.3v0.9h-3.3v3.4h-1v-7.8h4.8V14.3z"/>
</g>
<g>
	<path class="st0" d="M4.9,39.6c-1,0-1.8-0.4-2.4-1c-0.6-0.7-1-1.6-1-2.5c0-1,0.4-1.8,1-2.5c0.6-0.7,1.4-1,2.4-1s1.8,0.4,2.4,1
		c0.6,0.7,1,1.4,1,2.5c0,1-0.4,1.8-1,2.5C6.7,39.2,5.8,39.6,4.9,39.6z M4.9,38.5c0.6,0,1.2-0.2,1.6-0.7C6.8,37.3,7,36.7,7,36.1
		c0-0.7-0.2-1.2-0.6-1.7c-0.4-0.5-1-0.7-1.6-0.7S3.7,34,3.3,34.4s-0.6,1.1-0.6,1.7c0,0.7,0.2,1.2,0.6,1.7
		C3.7,38.3,4.3,38.5,4.9,38.5z"/>
	<path class="st0" d="M15.5,32.8l-2.8,2.9l2.8,4h-1.3l-2.2-3.1l-1,1v2H9.9v-9.6h1.2v5.8h0.1l2.9-3h1.4V32.8z"/>
	<path class="st0" d="M20.6,39.2c-0.4,0.2-0.7,0.4-1.1,0.4c-1.1,0-1.7-0.6-1.7-1.8v-4.1h-1.3v-0.8h0.4c0.7,0,1.1-0.4,1.1-1v-0.8H19
		v1.7h1.6v1H19v4c0,0.6,0.2,0.8,0.7,0.8c0.2,0,0.4-0.1,0.6-0.2L20.6,39.2z"/>
	<path class="st0" d="M25.5,34.8h14v1.1h-14V34.8z"/>
	<path class="st0" d="M48.6,29.9h1.2v9.6H49l-0.2-1h-0.1c-0.5,0.7-1.2,1.1-2.2,1.1c-0.8,0-1.7-0.4-2.2-1c-0.6-0.6-0.8-1.4-0.8-2.5
		c0-1.1,0.2-1.9,0.8-2.5c0.6-0.6,1.3-1,2.3-1c1,0,1.7,0.4,2.2,1.1v-3.8H48.6z M45.2,37.8c0.4,0.5,0.8,0.7,1.4,0.7
		c0.6,0,1.1-0.2,1.4-0.7c0.4-0.5,0.6-1.1,0.6-1.8c0-0.7-0.2-1.3-0.6-1.8c-0.4-0.5-0.8-0.7-1.4-0.7c-0.6,0-1.1,0.2-1.4,0.7
		c-0.4,0.5-0.6,1.1-0.6,1.8C44.7,36.8,44.8,37.3,45.2,37.8z"/>
	<path class="st0" d="M54.6,32.6c1,0,1.7,0.4,2.3,1s0.8,1.6,0.7,2.8h-5c0,0.7,0.2,1.2,0.6,1.7c0.4,0.4,0.8,0.6,1.6,0.6
		c0.4,0,0.7-0.1,1.1-0.2c0.4-0.1,0.6-0.5,0.7-0.8h1.2c-0.1,0.7-0.5,1.2-1.1,1.6c-0.5,0.4-1.2,0.5-1.9,0.5c-1,0-1.8-0.4-2.4-1
		c-0.6-0.6-0.8-1.4-0.8-2.5c0-1,0.4-1.8,1-2.5C52.9,32.9,53.8,32.6,54.6,32.6z M52.7,35.4h4c0-0.5-0.2-1-0.5-1.3
		c-0.4-0.4-0.8-0.5-1.3-0.5c-0.6,0-1,0.1-1.3,0.5C52.9,34.4,52.7,34.8,52.7,35.4z"/>
	<path class="st0" d="M65.4,37.1c-0.1,0.7-0.5,1.3-1,1.8c-0.5,0.5-1.2,0.7-2,0.7c-1.1,0-1.9-0.4-2.5-1c-0.6-0.6-0.8-1.4-0.8-2.5
		c0-1,0.4-1.8,1-2.5c0.6-0.7,1.4-1,2.4-1c0.8,0,1.6,0.2,2,0.7c0.5,0.5,0.8,1.1,1,1.8h-1.2c-0.1-0.5-0.2-0.8-0.6-1.1
		s-0.7-0.5-1.3-0.5c-0.6,0-1.1,0.2-1.6,0.7c-0.5,0.5-0.6,1.1-0.6,1.8c0,0.7,0.2,1.3,0.6,1.8c0.4,0.5,1,0.7,1.6,0.7
		c0.5,0,0.8-0.1,1.2-0.4c0.4-0.2,0.6-0.6,0.6-1.1h1.3V37.1z"/>
</g>
</svg>
