<?xml version="1.0" encoding="utf-8"?>
<!-- Generator: Adobe Illustrator 24.3.0, SVG Export Plug-In . SVG Version: 6.00 Build 0)  -->
<svg version="1.1" id="Laag_1" xmlns="http://www.w3.org/2000/svg" xmlns:xlink="http://www.w3.org/1999/xlink" x="0px" y="0px"
	 width="987.1px" height="265.5px" viewBox="0 0 987.1 265.5" style="enable-background:new 0 0 987.1 265.5;" xml:space="preserve"
	>
<style type="text/css">
	.st0{fill:#FFFFFF;}
</style>
<g>
	<path class="st0" d="M0,22.5V10.9C0,4.3,3.3,1.5,9.7,0.2v4.5c-4.1,1.7-4.1,2.6-4.1,6.8h4.8v11H0z M13.7,22.5c0-4.1,0-8.1,0-12.2
		c0-3.4,0.6-5.5,3.4-7.6c1.9-1.4,4.2-2.1,6.5-2.2v4.2c-3.9,1.5-4.4,2.3-4.4,6.7h5v11H13.7z"/>
	<path class="st0" d="M33.3,57.4V0.9h40.2v9.4H43.7v13.3H71v9.1H43.7v15.1h31.8v9.5H33.3z"/>
	<path class="st0" d="M116.2,52.6c-2.2,2.1-7.6,6-15.8,6c-2.6,0-8.9-0.3-14.3-5.4c-4.6-4.3-6.2-9.8-6.2-16.1c0-3.4,0.5-6.6,1.8-9.6
		c1.8-4,6.7-11.4,18.3-11.4c9,0,13.7,4.6,15.8,7.7c1.8,2.8,3.7,7.7,3.9,15.4H89.9c0.2,1.2,0.6,3.7,2.6,6.1c1.4,1.7,3.8,3.8,8.7,3.8
		s7.8-2.3,9.1-3.7c0.3-0.3,0.8-1,1.4-1.8l8.2,4.7C119.2,49.3,118.1,50.8,116.2,52.6z M108.2,29c-0.9-1.9-3-5.1-8.2-5.1
		c-2.1,0-3.2,0.4-4,0.7c-4.5,1.8-5.5,6.3-5.8,7.7H109C109,32.3,108.7,30.4,108.2,29z"/>
	<path class="st0" d="M152.6,57.4V37c0-3.1,0-4.6-0.4-6.2c-1.1-4.6-4.7-5.3-6.6-5.3c-1,0-3,0.2-5,1.8c-2.9,2.4-3.8,5.8-3.8,12.6
		v17.4H127v-40h9.7v4.7c0.2-0.2,1-1.3,1.8-2.1c3.8-3.5,9.2-3.8,10.6-3.8c5.9,0,9.4,3,10.6,4.9c2.6,3.7,2.3,8.7,2.3,12.8v23.5H152.6z
		"/>
	<path class="st0" d="M214.2,57.4H204l-13-40h9.9l8.3,27.5l8.2-27.5h10L214.2,57.4z"/>
	<path class="st0" d="M257,57.4l-0.2-3.1c-1.5,1.3-2.9,1.9-3.7,2.2c-2.6,1.2-5.1,1.8-8.1,1.8c-1.9,0-9.1-0.2-12.8-6.2
		c-0.6-1-1.8-3.2-1.8-6.4c0-2.2,0.6-6.7,5.4-10c3.3-2.2,6.4-2.7,10.1-3.4c5.9-1.2,8.1-1.7,11-2.7c0-1-0.1-2.3-0.6-3.3
		c-0.8-1.5-2.8-2.7-6.3-2.7c-3.7,0-6,1.1-7,2.5c-1.1,1.4-1,3-1,3.5l-9.8-0.6c0.1-1.8,0.4-6,4.3-9.2c2.5-2.1,6.2-3.7,13.2-3.7
		c6.6,0,10.4,1.4,12.9,3.1c1.7,1.2,2.6,2.6,2.9,3.2c1,2.1,1,4.9,1,7.1v21.3c0,3,0.2,3.9,1.8,6.5H257z M257,37.5
		c-1.6,0.8-3.7,1.6-7.6,2.2c-2.2,0.4-4.5,0.5-6.5,1.7c-1.4,0.9-2.3,2.2-2.3,4c0,2.4,1.8,4.7,6.6,4.7c5.3,0,8.4-2.7,9.3-4.6
		c0.6-1.3,0.6-2.4,0.6-3.7V37.5z"/>
	<path class="st0" d="M302.2,57.4V37c0-3.1,0-4.6-0.4-6.2c-1.1-4.6-4.7-5.3-6.6-5.3c-1,0-3,0.2-5,1.8c-2.9,2.4-3.8,5.8-3.8,12.6
		v17.4h-9.7v-40h9.7v4.7c0.2-0.2,1-1.3,1.8-2.1c3.8-3.5,9.2-3.8,10.6-3.8c5.9,0,9.4,3,10.6,4.9c2.6,3.7,2.3,8.7,2.3,12.8v23.5H302.2
		z"/>
	<path class="st0" d="M371.4,57.4v-3.8c-0.4,0.4-0.7,0.9-1.1,1.3c-1.5,1.4-4.8,3.8-10,3.8c-1.4,0-4.2-0.2-7.4-1.7
		c-4.3-2-10.3-7.2-10.3-18.7c0-12.2,6.6-18.6,11.2-20.6c1.3-0.6,3.6-1.4,7-1.4c1.4,0,4.2,0.1,7.3,1.8c0.6,0.3,1,0.6,2,1.3
		c0.7,0.6,1.3,1.3,1.4,1.4V0.9h9.5v56.5H371.4z M369.6,29.3c-0.5-0.9-1.4-1.9-2.1-2.5c-1.6-1.3-3.4-1.8-5.4-1.8
		c-0.8,0-2.9,0.2-4.9,1.4c-4.6,3-4.7,9.4-4.7,10.6c0,5.9,2.5,12.7,9.5,12.7c2.6,0,4.6-0.8,6.2-2.7c2.5-2.7,3.1-6,3-9.6
		C371.4,35,371,31.7,369.6,29.3z"/>
	<path class="st0" d="M425.4,52.6c-2.2,2.1-7.6,6-15.8,6c-2.6,0-8.9-0.3-14.3-5.4c-4.6-4.3-6.2-9.8-6.2-16.1c0-3.4,0.5-6.6,1.8-9.6
		c1.8-4,6.7-11.4,18.3-11.4c9,0,13.7,4.6,15.8,7.7c1.8,2.8,3.7,7.7,3.9,15.4h-29.6c0.2,1.2,0.6,3.7,2.6,6.1c1.4,1.7,3.8,3.8,8.7,3.8
		c5,0,7.8-2.3,9.1-3.7c0.3-0.3,0.8-1,1.4-1.8l8.2,4.7C428.5,49.3,427.4,50.8,425.4,52.6z M417.4,29c-0.9-1.9-3-5.1-8.2-5.1
		c-2.1,0-3.2,0.4-4,0.7c-4.5,1.8-5.5,6.3-5.8,7.7h18.7C418.2,32.3,418,30.4,417.4,29z"/>
	<path class="st0" d="M483,57.4l-0.2-3.1c-1.5,1.3-2.9,1.9-3.7,2.2c-2.6,1.2-5.1,1.8-8.1,1.8c-1.9,0-9.1-0.2-12.8-6.2
		c-0.6-1-1.8-3.2-1.8-6.4c0-2.2,0.6-6.7,5.4-10c3.3-2.2,6.4-2.7,10.1-3.4c5.9-1.2,8.1-1.7,11-2.7c0-1-0.1-2.3-0.6-3.3
		c-0.8-1.5-2.8-2.7-6.3-2.7c-3.7,0-6,1.1-7,2.5c-1.1,1.4-1,3-1,3.5l-9.8-0.6c0.1-1.8,0.4-6,4.3-9.2c2.5-2.1,6.2-3.7,13.2-3.7
		c6.6,0,10.4,1.4,12.9,3.1c1.7,1.2,2.6,2.6,2.9,3.2c1,2.1,1,4.9,1,7.1v21.3c0,3,0.2,3.9,1.8,6.5H483z M483,37.5
		c-1.6,0.8-3.7,1.6-7.6,2.2c-2.2,0.4-4.5,0.5-6.5,1.7c-1.4,0.9-2.3,2.2-2.3,4c0,2.4,1.8,4.7,6.6,4.7c5.3,0,8.4-2.7,9.3-4.6
		c0.6-1.3,0.6-2.4,0.6-3.7V37.5z"/>
	<path class="st0" d="M521.9,57.4h-10.2l-13-40h9.9l8.3,27.5l8.2-27.5h10L521.9,57.4z"/>
	<path class="st0" d="M578.3,46.2c-1.6,4.1-6.8,12.4-18.7,12.4c-1.7,0-5.1-0.1-9-1.8c-4.2-1.8-11.8-7.4-11.8-19.5
		c0-4.3,1.2-7.5,1.8-9c1.7-4,6.8-12.1,18.7-12.1c1.5,0,5,0.2,8.8,1.8c4.3,1.8,11.8,7.2,11.8,19.2C579.9,38.7,579.8,42.4,578.3,46.2z
		 M559.1,24.8c-0.9,0-3.3,0.2-5.4,1.5c-2.1,1.4-4.9,4.6-4.9,10.6c0,1.9,0.2,3.6,0.8,5.4c0.6,1.9,3.4,7.4,10,7.4
		c7.3,0,10.6-6.4,10.3-12.7C569.8,30.8,566.2,24.8,559.1,24.8z"/>
	<path class="st0" d="M613.2,57.4V37c0-3.1,0-4.6-0.4-6.2c-1.1-4.6-4.7-5.3-6.6-5.3c-1,0-3,0.2-5,1.8c-2.9,2.4-3.8,5.8-3.8,12.6
		v17.4h-9.7v-40h9.7v4.7c0.2-0.2,1-1.3,1.8-2.1c3.8-3.5,9.2-3.8,10.6-3.8c5.9,0,9.4,3,10.6,4.9c2.6,3.7,2.3,8.7,2.3,12.8v23.5H613.2
		z"/>
	<path class="st0" d="M645,57.7c-5.3,0-8-1.3-9.6-3.2c-0.8-1-1.1-1.9-1.2-2.3c-0.4-1.3-0.5-4.1-0.5-7.6V24.2h-5.8v-6.8h5.8V3.2h9.6
		v14.2h8.6v6.8h-8.6v18.2c0,1.6-0.2,4.6,1,5.9c1.1,1.3,3.4,1.2,3.7,1.2c1.4,0,2.7-0.2,3.9-0.5v8.1C650.6,57.2,648.3,57.7,645,57.7z"
		/>
	<path class="st0" d="M684.4,57.4l-0.1-4.1c-2,1.8-5.9,5-12.9,5c-6.6,0-9.9-2.9-11.5-5.3c-2.6-3.8-2.3-8.3-2.3-12.6v-23h9.7V39
		c0,3.3-0.2,7.2,3.2,9.1c1.3,0.8,3.1,1.2,4.6,1.2c4.6,0,7-3,7.8-4.5c1.6-3,1.5-7.4,1.5-10.5v-17h9.6v40H684.4z"/>
	<path class="st0" d="M731,57.4l-0.1-4.1c-2,1.8-5.9,5-12.9,5c-6.6,0-9.9-2.9-11.5-5.3c-2.6-3.8-2.3-8.3-2.3-12.6v-23h9.7V39
		c0,3.3-0.2,7.2,3.2,9.1c1.3,0.8,3.1,1.2,4.6,1.2c4.6,0,7-3,7.8-4.5c1.6-3,1.5-7.4,1.5-10.5v-17h9.6v40H731z"/>
	<path class="st0" d="M761,33.7c-0.7,2.2-0.7,4.2-0.7,6.6v17.1H751v-40h9.3v5.7c0.6-1.2,1.4-2.4,2.4-3.3c3.2-3.1,8.4-3.3,9.5-3.3
		h0.8v9.8C771,26.4,763.4,26.4,761,33.7z"/>
	<path class="st0" d="M779.4,57.4V0.9h9.8v56.5H779.4z"/>
	<path class="st0" d="M799.4,11.2V1.5h9.5v9.7H799.4z M799.4,57.4v-40h9.5v40H799.4z"/>
	<path class="st0" d="M826.8,67.3c-1.6,1.5-5,3.1-10.2,3.1c-0.8,0-1.5-0.1-2.2-0.2v-8.7c0.4-0.1,2.3-0.1,3.7-1
		c1.8-1.1,1.6-2.6,1.6-6V17.4h9.4v43.3C829,61.7,829.3,65,826.8,67.3z M819.6,11.1V1.3h9.4v9.8H819.6z"/>
	<path class="st0" d="M866.6,57.4l-12.1-17.9l-5.6,5.5v12.4h-9.5V0.9h9.5v31.8l15.6-15.3h12.2l-15.3,15.3l16.8,24.7H866.6z"/>
	<path class="st0" d="M915.2,50.4c-1.9,3.7-6.9,8.2-16.6,8.2c-7.5,0-12.9-2.6-15.4-4.1c-1.4-0.9-2.6-1.9-3.8-3.1l7.2-5.8
		c0.3,0.4,0.8,1.1,1.8,2c3.4,3,8.6,3.1,9.7,3.1c2.4,0,5.2-0.6,6.8-2.4c0.6-0.6,1-1.5,1-2.3c0-0.3-0.1-1-0.6-1.7
		c-1-1.4-2.3-1.5-5.3-2.2c-2.6-0.6-5.3-0.9-7.8-1.5c-1.8-0.5-11-2.7-11-11.4c0-3,1.3-5.3,1.8-6.2c2-3.1,6.7-6.9,15.4-6.9
		c3.1,0,11.2,0.5,17.2,7.4l-6.8,6.3c-0.8-1.7-1.8-2.6-2.5-3.2c-2.5-2.2-5.1-2.9-8.4-2.9c-0.4,0-3.1,0-4.9,1.2c-1.4,1-1.8,2.2-1.8,3
		c0.1,1.4,1,2.3,1.3,2.5c1,0.8,3.7,1.4,6.9,2c2.2,0.4,4.3,0.7,6.5,1.2c2.2,0.5,4.6,1.2,6.3,2.5c1.4,1,4.4,3.8,4.4,8.7
		C916.6,46.8,916.1,48.7,915.2,50.4z"/>
	<path class="st0" d="M936.7,57.7c-5.3,0-8-1.3-9.6-3.2c-0.8-1-1.1-1.9-1.2-2.3c-0.4-1.3-0.5-4.1-0.5-7.6V24.2h-5.8v-6.8h5.8V3.2
		h9.6v14.2h8.6v6.8H935v18.2c0,1.6-0.2,4.6,1,5.9c1.1,1.3,3.4,1.2,3.7,1.2c1.4,0,2.7-0.2,3.9-0.5v8.1
		C942.3,57.2,940,57.7,936.7,57.7z"/>
	<path class="st0" d="M983.4,52.6c-2.2,2.1-7.6,6-15.8,6c-2.6,0-8.9-0.3-14.3-5.4c-4.6-4.3-6.2-9.8-6.2-16.1c0-3.4,0.5-6.6,1.8-9.6
		c1.8-4,6.7-11.4,18.3-11.4c9,0,13.7,4.6,15.8,7.7c1.8,2.8,3.7,7.7,3.9,15.4h-29.6c0.2,1.2,0.6,3.7,2.6,6.1c1.4,1.7,3.8,3.8,8.7,3.8
		c5,0,7.8-2.3,9.1-3.7c0.3-0.3,0.8-1,1.4-1.8l8.2,4.7C986.5,49.3,985.4,50.8,983.4,52.6z M975.4,29c-0.9-1.9-3-5.1-8.2-5.1
		c-2.1,0-3.2,0.4-4,0.7c-4.5,1.8-5.5,6.3-5.8,7.7h18.7C976.2,32.3,976,30.4,975.4,29z"/>
	<path class="st0" d="M59.1,153.4v-24.5c0-1.5-0.3-7.8-6.7-7.8c-1.5,0-5,0.6-7.1,4.1c-1.8,2.9-1.9,6.2-1.9,9.4v18.8h-9.5V131
		c0-0.9-0.1-1.8-0.1-2.6c0-0.8,0-3.6-2.2-5.6c-1.6-1.4-3.6-1.5-4.3-1.5c-1,0-3,0.2-5,1.9c-3.9,3.4-4,9-4,13.4v16.8H8.6v-40h9.6
		l0.1,4.5c0.6-0.9,0.9-1.1,1.3-1.4c1.4-1.3,5.7-4.2,11.3-4.2c4.6,0,8.9,2.1,11.1,6.1c0.7-0.9,1.5-2,3.7-3.4c1.7-1.1,4.5-2.6,9.2-2.6
		c6.1,0,11.5,2.6,13.2,8.9c0.5,1.8,0.6,3.4,0.6,7v25.3H59.1z"/>
	<path class="st0" d="M105.4,153.4l-0.1-4.1c-2,1.8-5.9,5-12.9,5c-6.6,0-9.9-2.9-11.5-5.3c-2.6-3.8-2.3-8.3-2.3-12.6v-23h9.7V135
		c0,3.3-0.2,7.2,3.2,9.1c1.3,0.8,3.1,1.2,4.6,1.2c4.6,0,7-3,7.8-4.5c1.6-3,1.5-7.4,1.5-10.5v-17h9.6v40H105.4z"/>
	<path class="st0" d="M122.7,153.4V146l21.6-24.1h-19.4v-8.6H157v7.4l-21.1,24.1H157v8.5H122.7z"/>
	<path class="st0" d="M165.4,107.2v-9.7h9.5v9.7H165.4z M165.4,153.4v-40h9.5v40H165.4z"/>
	<path class="st0" d="M219.4,148.6c-2.2,2.1-7.6,6-15.8,6c-2.6,0-8.9-0.3-14.3-5.4c-4.6-4.3-6.2-9.8-6.2-16.1c0-3.4,0.5-6.6,1.8-9.6
		c1.8-4,6.7-11.4,18.3-11.4c9,0,13.7,4.6,15.8,7.7c1.8,2.8,3.7,7.7,3.9,15.4h-29.6c0.2,1.2,0.6,3.7,2.6,6.1c1.4,1.7,3.8,3.8,8.7,3.8
		c5,0,7.8-2.3,9.1-3.7c0.3-0.3,0.8-1,1.4-1.8l8.2,4.7C222.4,145.3,221.3,146.8,219.4,148.6z M211.4,125c-0.9-1.9-3-5.1-8.2-5.1
		c-2.1,0-3.2,0.4-4,0.7c-4.5,1.8-5.5,6.3-5.8,7.7h18.7C212.2,128.3,211.9,126.4,211.4,125z"/>
	<path class="st0" d="M257.5,153.4l-12.1-17.9l-5.6,5.5v12.4h-9.5V96.9h9.5v31.8l15.6-15.3h12.2l-15.3,15.3l16.8,24.7H257.5z"/>
	<path class="st0" d="M284.5,120.2v33.2h-9.6v-33.2h-6v-6.8h6v-4.6c0-0.2-0.1-2.9,0.2-4.6c0.8-4.6,4.1-7.3,12.6-7.3
		c1.8,0,3.6,0.2,5.4,0.4v8.2c-0.2-0.1-1.8-0.2-3-0.2c-5.8,0-5.7,3.4-5.7,5.9v2.3h8.7v6.8H284.5z"/>
	<path class="st0" d="M332.7,148.6c-2.2,2.1-7.6,6-15.8,6c-2.6,0-8.9-0.3-14.3-5.4c-4.6-4.3-6.2-9.8-6.2-16.1c0-3.4,0.5-6.6,1.8-9.6
		c1.8-4,6.7-11.4,18.3-11.4c9,0,13.7,4.6,15.8,7.7c1.8,2.8,3.7,7.7,3.9,15.4h-29.6c0.2,1.2,0.6,3.7,2.6,6.1c1.4,1.7,3.8,3.8,8.7,3.8
		c5,0,7.8-2.3,9.1-3.7c0.3-0.3,0.8-1,1.4-1.8l8.2,4.7C335.8,145.3,334.6,146.8,332.7,148.6z M324.7,125c-0.9-1.9-3-5.1-8.2-5.1
		c-2.1,0-3.2,0.4-4,0.7c-4.5,1.8-5.5,6.3-5.8,7.7h18.7C325.5,128.3,325.3,126.4,324.7,125z"/>
	<path class="st0" d="M376.2,146.4c-1.9,3.7-6.9,8.2-16.6,8.2c-7.5,0-12.9-2.6-15.4-4.1c-1.4-0.9-2.6-1.9-3.8-3.1l7.2-5.8
		c0.3,0.4,0.8,1.1,1.8,2c3.4,3,8.6,3.1,9.7,3.1c2.4,0,5.2-0.6,6.8-2.4c0.6-0.6,1-1.5,1-2.3c0-0.3-0.1-1-0.6-1.7
		c-1-1.4-2.3-1.5-5.3-2.2c-2.6-0.6-5.3-0.9-7.8-1.5c-1.8-0.5-11-2.7-11-11.4c0-3,1.3-5.3,1.8-6.2c2-3.1,6.7-6.9,15.4-6.9
		c3.1,0,11.2,0.5,17.2,7.4l-6.8,6.3c-0.8-1.7-1.8-2.6-2.5-3.2c-2.5-2.2-5.1-2.9-8.4-2.9c-0.4,0-3.1,0-4.9,1.2c-1.4,1-1.8,2.2-1.8,3
		c0.1,1.4,1,2.3,1.3,2.5c1,0.8,3.7,1.4,6.9,2c2.2,0.4,4.3,0.7,6.5,1.2c2.2,0.5,4.6,1.2,6.3,2.5c1.4,1,4.4,3.8,4.4,8.7
		C377.5,142.8,377,144.7,376.2,146.4z"/>
	<path class="st0" d="M397.7,153.7c-5.3,0-8-1.3-9.6-3.2c-0.8-1-1.1-1.9-1.2-2.3c-0.4-1.3-0.5-4.1-0.5-7.6v-20.4h-5.8v-6.8h5.8V99.2
		h9.6v14.2h8.6v6.8H396v18.2c0,1.6-0.2,4.6,1,5.9c1.1,1.3,3.4,1.2,3.7,1.2c1.4,0,2.7-0.2,3.9-0.5v8.1
		C403.3,153.2,401,153.7,397.7,153.7z"/>
	<path class="st0" d="M410.5,107.2v-9.7h9.5v9.7H410.5z M410.5,153.4v-40h9.5v40H410.5z"/>
	<path class="st0" d="M449.5,153.4h-10.2l-13-40h9.9l8.3,27.5l8.2-27.5h10L449.5,153.4z"/>
	<path class="st0" d="M492.2,153.4l-0.2-3.1c-1.5,1.3-2.9,1.9-3.7,2.2c-2.6,1.2-5.1,1.8-8.1,1.8c-1.9,0-9.1-0.2-12.8-6.2
		c-0.6-1-1.8-3.2-1.8-6.4c0-2.2,0.6-6.7,5.4-10c3.3-2.2,6.4-2.7,10.1-3.4c5.9-1.2,8.1-1.7,11-2.7c0-1-0.1-2.3-0.6-3.3
		c-0.8-1.5-2.8-2.7-6.3-2.7c-3.7,0-6,1.1-7,2.5c-1.1,1.4-1,3-1,3.5l-9.8-0.6c0.1-1.8,0.4-6,4.3-9.2c2.5-2.1,6.2-3.7,13.2-3.7
		c6.6,0,10.4,1.4,12.9,3.1c1.7,1.2,2.6,2.6,2.9,3.2c1,2.1,1,4.9,1,7.1v21.3c0,3,0.2,3.9,1.8,6.5H492.2z M492.2,133.5
		c-1.6,0.8-3.7,1.6-7.6,2.2c-2.2,0.4-4.5,0.5-6.5,1.7c-1.4,0.9-2.3,2.2-2.3,4c0,2.4,1.8,4.7,6.6,4.7c5.3,0,8.4-2.7,9.3-4.6
		c0.6-1.3,0.6-2.4,0.6-3.7V133.5z"/>
	<path class="st0" d="M512.2,153.4V96.9h9.8v56.5H512.2z"/>
	<path class="st0" d="M564.6,146.4c-1.9,3.7-6.9,8.2-16.6,8.2c-7.5,0-12.9-2.6-15.4-4.1c-1.4-0.9-2.6-1.9-3.8-3.1l7.2-5.8
		c0.3,0.4,0.8,1.1,1.8,2c3.4,3,8.6,3.1,9.7,3.1c2.4,0,5.2-0.6,6.8-2.4c0.6-0.6,1-1.5,1-2.3c0-0.3-0.1-1-0.6-1.7
		c-1-1.4-2.3-1.5-5.3-2.2c-2.6-0.6-5.3-0.9-7.8-1.5c-1.8-0.5-11-2.7-11-11.4c0-3,1.3-5.3,1.8-6.2c2-3.1,6.7-6.9,15.4-6.9
		c3.1,0,11.2,0.5,17.2,7.4l-6.8,6.3c-0.8-1.7-1.8-2.6-2.5-3.2c-2.5-2.2-5.1-2.9-8.4-2.9c-0.4,0-3.1,0-4.9,1.2c-1.4,1-1.8,2.2-1.8,3
		c0.1,1.4,1,2.3,1.3,2.5c1,0.8,3.7,1.4,6.9,2c2.2,0.4,4.3,0.7,6.5,1.2c2.2,0.5,4.6,1.2,6.3,2.5c1.4,1,4.4,3.8,4.4,8.7
		C565.9,142.8,565.4,144.7,564.6,146.4z"/>
	<path class="st0" d="M609.1,153.7c-5.3,0-8-1.3-9.6-3.2c-0.8-1-1.1-1.9-1.2-2.3c-0.4-1.3-0.5-4.1-0.5-7.6v-20.4H592v-6.8h5.8V99.2
		h9.6v14.2h8.6v6.8h-8.6v18.2c0,1.6-0.2,4.6,1,5.9c1.1,1.3,3.4,1.2,3.7,1.2c1.4,0,2.7-0.2,3.9-0.5v8.1
		C614.7,153.2,612.4,153.7,609.1,153.7z"/>
	<path class="st0" d="M655.8,148.6c-2.2,2.1-7.6,6-15.8,6c-2.6,0-8.9-0.3-14.3-5.4c-4.6-4.3-6.2-9.8-6.2-16.1c0-3.4,0.5-6.6,1.8-9.6
		c1.8-4,6.7-11.4,18.3-11.4c9,0,13.7,4.6,15.8,7.7c1.8,2.8,3.7,7.7,3.9,15.4h-29.6c0.2,1.2,0.6,3.7,2.6,6.1c1.4,1.7,3.8,3.8,8.7,3.8
		c5,0,7.8-2.3,9.1-3.7c0.3-0.3,0.8-1,1.4-1.8l8.2,4.7C658.9,145.3,657.8,146.8,655.8,148.6z M647.8,125c-0.9-1.9-3-5.1-8.2-5.1
		c-2.1,0-3.2,0.4-4,0.7c-4.5,1.8-5.5,6.3-5.8,7.7h18.7C648.6,128.3,648.4,126.4,647.8,125z"/>
	<path class="st0" d="M676.8,129.7c-0.7,2.2-0.7,4.2-0.7,6.6v17.1h-9.3v-40h9.3v5.7c0.6-1.2,1.4-2.4,2.4-3.3
		c3.2-3.1,8.4-3.3,9.5-3.3h0.8v9.8C686.8,122.4,679.1,122.4,676.8,129.7z"/>
	<path class="st0" d="M759.8,153.4h-9.5l-7.2-25.5l-7.6,25.5H726l-11.6-40h10l7,27.4l7.4-27.4h8.6l7.4,27.4l7.1-27.4h10L759.8,153.4
		z"/>
	<path class="st0" d="M812.2,148.6c-2.2,2.1-7.6,6-15.8,6c-2.6,0-8.9-0.3-14.3-5.4c-4.6-4.3-6.2-9.8-6.2-16.1c0-3.4,0.5-6.6,1.8-9.6
		c1.8-4,6.7-11.4,18.3-11.4c9,0,13.7,4.6,15.8,7.7c1.8,2.8,3.7,7.7,3.9,15.4h-29.6c0.2,1.2,0.6,3.7,2.6,6.1c1.4,1.7,3.8,3.8,8.7,3.8
		c5,0,7.8-2.3,9.1-3.7c0.3-0.3,0.8-1,1.4-1.8l8.2,4.7C815.2,145.3,814.1,146.8,812.2,148.6z M804.2,125c-0.9-1.9-3-5.1-8.2-5.1
		c-2.1,0-3.2,0.4-4,0.7c-4.5,1.8-5.5,6.3-5.8,7.7H805C805,128.3,804.7,126.4,804.2,125z"/>
	<path class="st0" d="M833.1,129.7c-0.7,2.2-0.7,4.2-0.7,6.6v17.1h-9.3v-40h9.3v5.7c0.6-1.2,1.4-2.4,2.4-3.3
		c3.2-3.1,8.4-3.3,9.5-3.3h0.8v9.8C843.1,122.4,835.4,122.4,833.1,129.7z"/>
	<path class="st0" d="M885.4,148.6c-2.2,2.1-7.6,6-15.8,6c-2.6,0-8.9-0.3-14.3-5.4c-4.6-4.3-6.2-9.8-6.2-16.1c0-3.4,0.5-6.6,1.8-9.6
		c1.8-4,6.7-11.4,18.3-11.4c9,0,13.7,4.6,15.8,7.7c1.8,2.8,3.7,7.7,3.9,15.4h-29.6c0.2,1.2,0.6,3.7,2.6,6.1c1.4,1.7,3.8,3.8,8.7,3.8
		c5,0,7.8-2.3,9.1-3.7c0.3-0.3,0.8-1,1.4-1.8l8.2,4.7C888.5,145.3,887.4,146.8,885.4,148.6z M877.4,125c-0.9-1.9-3-5.1-8.2-5.1
		c-2.1,0-3.2,0.4-4,0.7c-4.5,1.8-5.5,6.3-5.8,7.7h18.7C878.2,128.3,878,126.4,877.4,125z"/>
	<path class="st0" d="M896.5,153.4V96.9h9.8v56.5H896.5z"/>
	<path class="st0" d="M943,153.4v-3.8c-0.4,0.4-0.7,0.9-1.1,1.3c-1.5,1.4-4.8,3.8-10,3.8c-1.4,0-4.2-0.2-7.4-1.7
		c-4.3-2-10.3-7.2-10.3-18.7c0-12.2,6.6-18.6,11.2-20.6c1.3-0.6,3.6-1.4,7-1.4c1.4,0,4.2,0.1,7.3,1.8c0.6,0.3,1,0.6,2,1.3
		c0.7,0.6,1.3,1.3,1.4,1.4V96.9h9.5v56.5H943z M941.2,125.3c-0.5-0.9-1.4-1.9-2.1-2.5c-1.6-1.3-3.4-1.8-5.4-1.8
		c-0.8,0-2.9,0.2-4.9,1.4c-4.6,3-4.7,9.4-4.7,10.6c0,5.9,2.5,12.7,9.5,12.7c2.6,0,4.6-0.8,6.2-2.7c2.5-2.7,3.1-6,3-9.6
		C942.9,131,942.5,127.7,941.2,125.3z"/>
	<path class="st0" d="M967.9,116.7c-1.8,1.4-4.2,2.3-6.5,2.2v-4.2c3-0.8,4.4-2.5,4.4-5.5c0-0.4-0.1-0.7-0.1-1.1h-4.9V96.9h10.4
		c0,4.2,0,8.3,0,12.4C971.3,112.6,970.5,114.7,967.9,116.7z M975.2,119.3v-4.5c4.1-1.3,4.2-3,4.2-6.8h-4.8V96.9h10.4v11.4
		C984.9,115.1,981.7,118.1,975.2,119.3z"/>
	<path class="st0" d="M302.4,224.6V221h15.9v3.6H302.4z"/>
	<path class="st0" d="M368.8,235.4c-0.7,0.7-2.6,2.8-5.5,3.8c-2.8,1.1-5.5,1.1-11.3,1.1h-11V198h11.3c1.5,0,2.9,0,4.4,0.1
		c4.9,0.2,8.4,0.8,11.9,4.6c2.4,2.5,5.7,7.8,5.7,16.4C374.4,221.4,374.1,229.5,368.8,235.4z M366.1,205.7c-0.5-0.7-2-2.3-4.3-3.2
		c-2.3-0.8-4.5-0.8-9.3-0.8H345v35.1h6.4c5.6,0,9-0.2,11.3-1.3c2.3-1.1,3.8-3.2,4.3-3.9c1.4-2,3.4-6.1,3.4-12.4
		C370.3,217.6,370.2,210.6,366.1,205.7z"/>
	<path class="st0" d="M403.9,236.6c-1.6,1.9-4.4,4.6-10.2,4.6c-1,0-3.9-0.1-6.6-1.5c-6.8-3.5-7.1-11.9-7.1-13.8c0-1,0-3.3,0.9-5.8
		c1.9-5.4,6.5-8.9,12.3-8.9c1.7,0,5.9,0.4,9.2,4.1c2.3,2.6,3.7,6.6,3.7,10.1v0.9h-22.2c-0.1,2.3,0.2,3.8,0.5,4.8
		c0.6,2.3,2.6,7,9.2,7c2.5,0,6.5-0.6,9.2-6l3.3,1C405.8,233.4,405.1,235.1,403.9,236.6z M393.2,214.2c-5,0-7.3,3.4-8.1,5
		c-0.5,1.2-0.9,2.7-1.1,4H402C401.2,215.8,396.3,214.2,393.2,214.2z"/>
	<path class="st0" d="M443.9,240.4h-3.6L424.7,198h4.4l13,36.8l13.3-36.8h4.3L443.9,240.4z"/>
	<path class="st0" d="M485.2,231.7c-1.8,5.8-6.3,9.4-12.4,9.4c-2,0-6.5-0.4-9.9-4.8c-1.3-1.7-2.9-4.8-2.9-9.9c0-1.3,0.1-4.1,1.3-7.3
		c2.8-7.3,8.9-8.1,11.8-8.1c3.3,0,6,1,8.4,3.2c3.2,3.1,4.4,7.4,4.5,11.7C486,226.9,486,229.2,485.2,231.7z M473,214.1
		c-0.9,0-3.1,0.1-5.2,1.6c-2.2,1.7-4.1,4.8-4.1,10.7c0,1.1-0.1,6.8,3.8,9.9c0.9,0.7,2.6,1.7,5.3,1.7c4.2,0,9.2-2.6,9.3-11.7
		C482.3,217,477.6,214.1,473,214.1z"/>
	<path class="st0" d="M493.1,240.4V198h3.6v42.4H493.1z"/>
	<path class="st0" d="M526.1,240.4l-10.9-14.8l-6.1,5.8v9h-3.5V198h3.5v28.8l16.1-15.1h4.4l-11.9,11.4l12.8,17.2H526.1z"/>
	<path class="st0" d="M554.4,236.1c-1.1,2.2-4,5-9.8,5c-1.7,0-6.4-0.2-9.6-4.3c-0.9-1.1-1.4-2.2-1.9-3.4l3.5-1.2
		c0.5,2,2.6,5.6,8,5.6c2.7,0,4.4-0.8,5.3-1.4c1.3-1,2-2.6,2-4.1c0-0.9-0.3-1.8-0.8-2.5c-0.9-1.3-2.3-2-5.4-2.6
		c-2.8-0.7-7.3-1.1-9.3-3.6c-1-1.2-1.6-2.9-1.5-4.5c0-0.9,0.3-3.7,2.5-5.6c1.9-1.8,5.3-2.4,7.8-2.4c0.8,0,4.4,0,7,1.9
		c2.2,1.6,2.9,3.7,3.1,4.6l-3.4,0.9c-0.7-3.3-4.1-4.3-7-4.3c-2.3,0-3.9,0.5-4.7,1.1c-0.2,0.1-0.8,0.6-1.3,1.3c-0.6,1-0.7,2-0.7,2.5
		c0,3.4,3.5,4.1,6,4.6l3,0.6c2.6,0.5,5,1.5,6.5,3.7c1.3,1.8,1.4,3.5,1.4,4.4C555.3,232.9,555.3,234.5,554.4,236.1z"/>
	<path class="st0" d="M583.6,240.4l-10.9-14.8l-6.1,5.8v9h-3.5V198h3.5v28.8l16.1-15.1h4.4l-11.9,11.4l12.8,17.2H583.6z"/>
	<path class="st0" d="M606.9,214.7c-0.7-0.1-1.4-0.2-2.2-0.2c-4.4,0-7.1,2.6-7.7,6.8c-0.2,1.5-0.3,3.4-0.3,6.8v12.4h-3.5v-28.6h3.5
		v4.6c0.2-0.5,0.5-1,0.8-1.4c0.4-0.5,1.6-2,3.4-2.8c0.8-0.4,2-0.7,4.1-0.7c0.5,0,1.1,0,2.1,0.1L606.9,214.7z"/>
	<path class="st0" d="M630.5,238.9c-1.1-1.1-1.2-2.3-1.3-3.7c-0.4,0.9-0.8,1.7-1.5,2.5c-1.1,1.3-4.1,3.4-8.6,3.4
		c-3.7,0-5.6-1.3-6.8-2.5c-0.7-0.7-2.2-2.6-2.2-5.3c0-0.8,0.1-2.8,1.6-4.5c2.2-2.6,5.7-3.5,8.8-4.4c1.8-0.5,3.6-1,5.4-1.4l3.4-0.7
		v-1.5c0-1.1,0.1-1.7-0.3-2.8c-0.6-1.9-2.2-3.8-6.5-3.8c-3.7,0-5.5,1-6.5,2.5c-0.9,1.4-1,2.9-1.1,4.4l-3.9-0.7
		c0.1-0.6,0.5-3.1,1.7-5c1.3-2,4.1-4.4,9.5-4.4c2.9,0,6.8,0.7,8.8,3.1c1.9,2.3,1.7,5.3,1.7,8.1v9.2c0,2.8-0.1,4.7,1,5.5
		c0.9,0.7,2.3,0.7,3.3,0.7v2.8C633.5,240.4,631.7,240.1,630.5,238.9z M629.2,225.3l-1.8,0.5c-5.6,1.5-10.4,2.6-12.1,3.9
		c-1.1,0.8-1.8,2.1-1.8,3.5c0,1,0.4,1.8,0.5,2c1.3,2.6,4.6,2.7,5.2,2.7c3.5,0,7.7-2.1,9.2-5.4c0.5-1.2,0.8-2.4,0.8-5V225.3z"/>
	<path class="st0" d="M660.6,240.4v-14.9c0-3.8,0-6.1-0.7-7.8c-0.6-1.5-1.6-2.2-2.2-2.5c-1.6-1-3.2-0.9-3.9-0.9s-2.2,0.1-3.8,0.8
		c-2.1,1-3.8,3.3-4.3,5.5c-0.3,1.4-0.4,3.8-0.4,7.3v12.5h-3.5v-28.6h3.5v5.1c0.2-0.7,0.7-1.9,2-3.2c1.1-1.1,3.2-2.5,7-2.5
		c5.3,0,7.8,2.9,8.7,4.9c1.1,2.3,1,4.6,1,9.4v14.9H660.6z"/>
	<path class="st0" d="M680.7,240.9c-0.3,0-0.7,0-1-0.1c-0.8-0.1-2.9-0.2-3.8-2.5c-0.5-1.3-0.4-4.3-0.4-5.7v-17.9h-6v-3h6v-12.2h3.4
		v12.2h6.3v3h-6.3v15.8c0,1,0,2,0,3.1c-0.1,1.7-0.1,4.2,2.3,4.2c1.4,0,2.9-1,4-1.8v3.6C684.5,240.2,683,240.9,680.7,240.9z"/>
</g>
</svg>
