<?xml version="1.0" encoding="utf-8"?>
<!-- Generator: Adobe Illustrator 24.0.0, SVG Export Plug-In . SVG Version: 6.00 Build 0)  -->
<svg version="1.1" id="Layer_1" xmlns="http://www.w3.org/2000/svg" xmlns:xlink="http://www.w3.org/1999/xlink" x="0px" y="0px"
	 width="634.4px" height="259.4px" viewBox="0 0 634.4 259.4" style="enable-background:new 0 0 634.4 259.4;" xml:space="preserve"
	>
<style type="text/css">
	.st0{fill:#FFFFFF;}
</style>
<path class="st0" d="M291.3,202.7l-1,0l0.6,17.8l1,0c5.4-0.2,9.5-2.9,9.2-8.9C300.9,205.1,297.2,202.4,291.3,202.7 M235.4,213.6
	c0.2,5.2,3.7,8.7,8.7,8.5c4.9-0.2,8.2-3.9,8.1-9.1c-0.2-4.9-3.5-8.8-8.7-8.7C238.3,204.5,235.3,208.7,235.4,213.6 M194.4,204.2
	l-1.5,0.1l0.3,8l1.6-0.1c2.8-0.1,5.9-0.7,5.8-4.4C200.4,204.2,197.1,204.1,194.4,204.2 M474.6,161.5l-19.9,0.7l0-11.5l-36.2,0
	l26.8-67.8L474.6,161.5z M358.9,165.6l-24.7,0.9l0-15.8l-36.1,0l27.4-69.3L358.9,165.6z M240.4,169.7l-71,2.5l35.9-91L240.4,169.7z
	 M176.8,192.3l20.6-0.7c10.4-0.4,18.3,4.8,18.7,16.2c0.3,9.4-5.2,15.4-14.2,15.7l-8.3,0.3l0.5,13.8l-15.7,0.5L176.8,192.3z
	 M219.1,213.9c-0.5-14.4,10.3-24.2,23.9-24.7c13.6-0.5,25.1,8.5,25.6,22.9c0.5,14.7-10.3,23.9-23.9,24.4
	C231,237,219.6,228.6,219.1,213.9 M273.5,188.9l16.5-0.6c15-0.5,26.7,5.8,27.3,22.7c0.5,13.6-8.6,22.6-21.7,23.1l-20.6,0.7
	L273.5,188.9z M322.5,187.2l16.2-0.6l1.6,45.9l-16.2,0.6L322.5,187.2z M345.9,186.4l16.2-0.6l0.9,25.6c0.1,3.6,0.4,6.8,4.7,6.6
	c4.3-0.2,4.3-3.3,4.2-6.9l-0.9-24.9l16.3,0l0.9,25.9c0.5,13.4-7.5,19.8-20,20.2c-12.5,0.4-20.9-5.4-21.4-18.8L345.9,186.4z
	 M394.1,230.6l5.4-44.5l17.6,0l6.3,21.6l0.4,0c0.2-2,0.4-4.2,0.9-6.1l3.8-15.5l17.8,0l8.3,42.3l-15.7,0.5L436,204l-0.3,0
	c-0.2,1.5-0.5,3.1-0.9,4.6l-5.7,20.8l-9.5,0.3l-6.5-19.2c-0.5-1.9-1-3.7-1.2-5.7l-0.5,0c-0.1,1.8-0.1,3.7-0.2,5.6l-1.2,19.7
	L394.1,230.6z M474.2,162.8l0.8-0.2l0.2,0.5L474.2,162.8z M474.5,172.7l3.7-1.3l1.1,3.1L474.5,172.7z M559.6,68.8l64.1-31.5L606.2,0
	l-88.7,43.6l-6.1,32.7l64.1,71.1l-62,2.9L464.6,19l-37.5-0.4l-41.3,104.7L344.2,18.5l-37.4,0l-41.3,104.7L223.9,18.4l-37.4,0
	l-41.3,104.7L103.7,18.3l-37.4,0L0,185.8l43.6,0L85,81.1l41.5,104.8l30.6,0l-4.7,1.6l5.2,2.4l-4.2,1.7l2.7,3l-2.5,2.2l11.9,1.7
	l-11.7,5.6l4.3,2.4l-5,2.2l8.6,2.3l-8.3,4.9l7.7,2.3l-6.7,3.9l2.7,3.5l-3.3,1.7l6.9,1.8l-8.4,2.4l8.6,1.8l-7.1,3.3l4.3,1.9l-4.2,1.2
	l6.5,2.4l-8.4,2.9l6,2.9l-5,1.7l7.7,2.3l-6.3,1.8l5.6,1.9l-8.5,3.9l331.6-11.6l-0.1-2.7l-6.8-0.7l5.8-2.8l-6-0.8l6.7-2.7l0-0.2
	l-9.4-1.2l9.3-1.3l0-0.1l-6.8-1.2l5-2.2l-5.2-2.4l6.7-2.3l-5.2-2.4l4.2-1.7l-2.7-3l2.5-2.2l-11.9-1.7l11.7-5.6l-4.3-2.4l5-2.2
	l-8.6-2.3l8.3-4.9l-7.7-2.3l6.7-3.9l-2.7-3.5l3.3-1.7l-6.9-1.8l6.7-1.9l0-0.8l-6.8-1.4l6.7-3.2l0-0.4l-3.9-1.7l3-0.8l1.4,3.7
	l19.9,13.3l119.7-5.9l13.7-34.7L559.6,68.8z"/>
</svg>
