<?xml version="1.0" encoding="utf-8"?>
<!-- Generator: Adobe Illustrator 22.1.0, SVG Export Plug-In . SVG Version: 6.00 Build 0)  -->
<svg version="1.1" id="Laag_1" xmlns="http://www.w3.org/2000/svg" xmlns:xlink="http://www.w3.org/1999/xlink" x="0px" y="0px"
	 viewBox="0 0 161.7 61.7" width="161.7px" height="61.7px" style="enable-background:new 0 0 161.7 61.7;" xml:space="preserve">
<style type="text/css">
	.st0{fill:#EAEDE1;}
</style>
<g>
	<path class="st0" d="M2,8.5h4.5v1H0.9V0.9h5.4v1H2v2.7h3.8v1H2V8.5z"/>
	<path class="st0" d="M13.9,9.5h-1.3l-2-3.5l0,0H9v3.5H7.9V0.9h2.9c0.9,0,1.5,0.2,2,0.7s0.8,1.1,0.8,1.8c0,0.6-0.2,1.1-0.5,1.5
		c-0.3,0.4-0.8,0.7-1.3,0.9L13.9,9.5z M9,1.9v3h1.7c0.6,0,1-0.1,1.3-0.4s0.5-0.6,0.5-1.1S12.3,2.6,12,2.3s-0.8-0.4-1.3-0.4H9z"/>
	<path class="st0" d="M16.5,0.9v8.6h-1.2V0.9H16.5z"/>
	<path class="st0" d="M23.5,9.5l-3.2-3.9h-0.6v3.9h-1.1V0.9h1.1v3.6h0.6l2.9-3.6h1.3L21.3,5v0.1l3.6,4.4H23.5z"/>
	<path class="st0" d="M38,0.9h1.1l-1.7,8.6h-1.7L34,3h-0.1l-1.7,6.5h-1.6l-1.8-8.6h1.1l1.5,7.2h0.1l1.8-6.6h1.5l1.8,6.6h0.1L38,0.9z
		"/>
	<path class="st0" d="M45.8,0.9H47v8.6h-1.1V5.7h-4.2v3.8h-1.1V0.9h1.1v3.7h4.2V0.9H45.8z"/>
	<path class="st0" d="M50.3,0.9v8.6h-1.2V0.9H50.3z"/>
	<path class="st0" d="M53.4,8.5h4.5v1h-5.6V0.9h5.4v1h-4.3v2.7h3.8v1h-3.8C53.4,5.6,53.4,8.5,53.4,8.5z"/>
	<path class="st0" d="M65.1,0.9h1.1v8.6H65l-4.5-6.7h-0.1v6.7h-1.1V0.9h1.3L65,7.5h0.1V0.9z"/>
	<path class="st0" d="M78.3,9.5h-1.2L76,8.3c-0.4,0.4-0.8,0.8-1.2,1c-0.4,0.2-0.9,0.3-1.4,0.3c-0.7,0-1.2-0.2-1.7-0.6
		C71.3,8.6,71,8.1,71,7.5c0-0.5,0.1-1,0.4-1.4C71.9,5.9,72.3,5.5,73,5c-0.3-0.3-0.5-0.5-0.6-0.6C72.2,4.2,72.1,4,72,3.7
		s-0.2-0.6-0.2-0.9c0-0.6,0.2-1,0.6-1.4s0.9-0.6,1.6-0.6s1.2,0.2,1.6,0.5c0.4,0.4,0.6,0.8,0.6,1.4c0,0.3,0,0.5-0.1,0.7
		C76,3.6,75.9,3.8,75.7,4c-0.2,0.2-0.4,0.4-0.5,0.5c-0.2,0.1-0.4,0.3-0.8,0.6L76,6.8l0.9-1.4H78l-1.2,1.9c0,0,0,0.1-0.1,0.1
		s-0.1,0.1-0.1,0.1L78.3,9.5z M73.5,8.7c0.6,0,1.3-0.4,1.9-1.1l-1.8-1.9c-0.5,0.4-0.9,0.7-1.1,1c-0.2,0.2-0.3,0.5-0.3,0.9
		c0,0.3,0.1,0.6,0.4,0.8C72.8,8.5,73.1,8.7,73.5,8.7z M74,1.7c-0.4,0-0.6,0.1-0.9,0.3c-0.2,0.2-0.3,0.5-0.3,0.8s0.1,0.5,0.2,0.7
		s0.4,0.5,0.7,0.9c0.4-0.2,0.6-0.4,0.8-0.6s0.3-0.3,0.5-0.5c0.1-0.2,0.2-0.4,0.2-0.6c0-0.3-0.1-0.5-0.4-0.7S74.3,1.7,74,1.7z"/>
</g>
<g>
	<path class="st0" d="M86.3,4.7C87.4,5.1,88,5.8,88,6.9c0,0.8-0.3,1.4-0.8,1.8s-1.2,0.6-2,0.6h-3V0.7h2.7c0.8,0,1.5,0.2,1.9,0.6
		c0.5,0.4,0.7,0.9,0.7,1.6C87.7,3.7,87.2,4.2,86.3,4.7L86.3,4.7z M83.3,1.6v2.7h1.6c0.5,0,0.9-0.1,1.2-0.4c0.3-0.3,0.4-0.6,0.4-1
		s-0.1-0.8-0.4-1S85.4,1.6,85,1.6C85.1,1.6,83.3,1.6,83.3,1.6z M85.2,8.2c0.5,0,1-0.1,1.3-0.4C86.8,7.5,87,7.2,87,6.7
		s-0.2-0.7-0.6-1c-0.3-0.3-0.8-0.4-1.3-0.4h-1.8v3C83.3,8.3,85.2,8.3,85.2,8.2z"/>
	<path class="st0" d="M93.5,9.4c-1.2,0-2.2-0.4-3.1-1.3S89.3,6.2,89.3,5s0.4-2.3,1.2-3.2c0.8-0.9,1.8-1.3,3-1.3s2.2,0.4,3,1.3
		c0.8,0.8,1.2,1.9,1.2,3.2s-0.4,2.3-1.2,3.2C95.8,9.1,94.8,9.4,93.5,9.4z M93.5,8.2c0.9,0,1.6-0.3,2.2-1c0.6-0.6,0.9-1.4,0.9-2.4
		c0-0.9-0.3-1.7-0.9-2.4c-0.6-0.6-1.3-1-2.2-1c-0.9,0-1.6,0.3-2.2,1S90.5,4,90.5,5c0,0.9,0.3,1.7,0.9,2.4C91.9,8,92.7,8.2,93.5,8.2z
		"/>
	<path class="st0" d="M103.4,9.4c-1.2,0-2.2-0.4-3.1-1.3s-1.2-1.9-1.2-3.2s0.4-2.3,1.2-3.2s1.8-1.3,3-1.3s2.2,0.4,3,1.3
		c0.8,0.8,1.2,1.9,1.2,3.2s-0.4,2.3-1.2,3.2S104.7,9.4,103.4,9.4z M103.4,8.2c0.9,0,1.6-0.3,2.2-1c0.6-0.6,0.9-1.4,0.9-2.4
		c0-0.9-0.3-1.7-0.9-2.4c-0.6-0.6-1.3-1-2.2-1c-0.9,0-1.6,0.3-2.2,1c-0.6,0.6-0.9,1.4-0.9,2.4c0,0.9,0.3,1.7,0.9,2.4
		C101.8,8,102.6,8.2,103.4,8.2z"/>
	<path class="st0" d="M112.8,4.7h3.8v4.5h-0.8l-0.2-0.9h-0.1c-0.7,0.7-1.6,1.1-2.6,1.1c-1.2,0-2.1-0.4-2.8-1.2c-0.7-0.8-1-1.8-1-3
		c0-1.3,0.4-2.5,1.1-3.3c0.7-0.9,1.7-1.3,2.8-1.3c1,0,1.8,0.3,2.4,0.8s1,1.2,1.1,2h-1.2c-0.1-0.5-0.4-0.9-0.8-1.2s-0.9-0.5-1.5-0.5
		c-0.9,0-1.5,0.3-2.1,1c-0.5,0.7-0.8,1.5-0.8,2.5s0.2,1.7,0.7,2.3s1.2,0.9,2.1,0.9c0.5,0,1-0.1,1.4-0.3s0.7-0.5,1-0.7V5.9h-2.6
		L112.8,4.7L112.8,4.7z"/>
	<path class="st0" d="M124.1,9.2L123.3,7h-3.5l-0.7,2.2h-1.2l3-8.6h1.4l2.9,8.6H124.1L124.1,9.2z M120.2,6h2.8l-1.4-4.1h-0.1
		L120.2,6z"/>
	<path class="st0" d="M127.7,8.2h4.5v1h-5.6V0.6h5.4v1h-4.3v2.7h3.8v1h-3.8V8.2z"/>
	<path class="st0" d="M139.6,9.2h-1.2l-2.1-3.5l0,0h-1.7v3.5h-1.1V0.6h2.9c0.9,0,1.5,0.2,2,0.7s0.8,1.1,0.8,1.8
		c0,0.6-0.2,1.1-0.5,1.5s-0.8,0.7-1.3,0.9L139.6,9.2z M134.6,1.7v3h1.7c0.6,0,1-0.1,1.3-0.4s0.5-0.6,0.5-1.1s-0.2-0.8-0.5-1.1
		s-0.8-0.4-1.3-0.4C136.3,1.7,134.6,1.7,134.6,1.7z"/>
	<path class="st0" d="M143.4,0.6c1.4,0,2.4,0.4,3.2,1.2s1.1,1.8,1.1,3.1s-0.4,2.4-1.1,3.2c-0.7,0.8-1.8,1.2-3.2,1.2h-2.5V0.7
		L143.4,0.6L143.4,0.6z M143.4,8.2c1,0,1.8-0.3,2.4-0.9s0.8-1.4,0.8-2.4s-0.3-1.7-0.8-2.3s-1.3-0.9-2.3-0.9h-1.4v6.5
		C142.1,8.2,143.4,8.2,143.4,8.2z"/>
	<path class="st0" d="M154.4,0.6v1h-2.5v7.6h-1.1V1.6h-2.5v-1H154.4z"/>
	<path class="st0" d="M159.8,0l-4.4,9.9h-1.2l4.4-9.8L159.8,0L159.8,0z"/>
</g>
<g>
	<path class="st0" d="M6.5,15.4h1.2L4.8,24H3.2l-2.9-8.6h1.2L4,22.8h0.1L6.5,15.4z"/>
	<path class="st0" d="M13.5,24l-0.7-2.2H9.3L8.5,24H7.3l3-8.6h1.5l2.9,8.6H13.5z M9.6,20.8h2.8L11,16.7h-0.1L9.6,20.8z"/>
	<path class="st0" d="M21.8,15.4h1.1V24h-1.2l-4.5-6.7h-0.1V24H16v-8.6h1.3l4.4,6.7h0.1V15.4z"/>
	<path class="st0" d="M27.5,15.4c1.4,0,2.4,0.4,3.2,1.2s1.1,1.8,1.1,3.1s-0.4,2.4-1.1,3.2C30,23.6,28.9,24,27.5,24H25v-8.6H27.5z
		 M27.5,23c1,0,1.8-0.3,2.4-0.9s0.8-1.4,0.8-2.4s-0.3-1.7-0.8-2.3c-0.5-0.6-1.3-0.9-2.3-0.9h-1.4V23H27.5z"/>
	<path class="st0" d="M34.7,23h4.5v1h-5.6v-8.6H39v1h-4.3v2.7h3.8v1h-3.8V23z"/>
	<path class="st0" d="M46.6,24h-1.3l-2.1-3.5l0,0h-1.7V24h-1.1v-8.6h2.9c0.9,0,1.5,0.2,2,0.7c0.5,0.5,0.8,1.1,0.8,1.8
		c0,0.6-0.2,1.1-0.5,1.5s-0.8,0.7-1.3,0.9L46.6,24z M41.6,16.5v3h1.7c0.6,0,1-0.1,1.3-0.4s0.5-0.6,0.5-1.1s-0.2-0.8-0.5-1.1
		c-0.3-0.3-0.8-0.4-1.3-0.4H41.6z"/>
	<path class="st0" d="M53.7,21.9c0,0.7-0.3,1.3-0.8,1.7s-1.2,0.6-2.1,0.6c-1,0-1.7-0.3-2.3-0.8c-0.5-0.5-0.8-1.2-0.8-2h1.2
		c0,0.5,0.2,0.9,0.5,1.3c0.3,0.3,0.8,0.5,1.5,0.5c0.5,0,0.9-0.1,1.2-0.3s0.5-0.5,0.5-1c0-0.4-0.1-0.7-0.4-1s-0.8-0.5-1.6-0.8
		s-1.4-0.6-1.9-0.9c-0.4-0.4-0.7-0.9-0.7-1.5c0-0.7,0.3-1.3,0.8-1.7c0.5-0.4,1.2-0.6,1.9-0.6c0.9,0,1.6,0.2,2.1,0.7
		c0.5,0.5,0.8,1.1,0.8,1.8h-1.1c0-0.4-0.2-0.8-0.5-1.1c-0.3-0.3-0.7-0.4-1.3-0.4c-0.5,0-0.8,0.1-1.1,0.4s-0.4,0.5-0.4,0.9
		s0.1,0.7,0.4,0.9c0.3,0.2,0.8,0.5,1.5,0.7c0.9,0.3,1.6,0.7,2,1.1C53.4,20.7,53.7,21.2,53.7,21.9z"/>
	<path class="st0" d="M62.7,21.4c-0.2,0.8-0.6,1.5-1.3,2s-1.4,0.8-2.3,0.8c-1.2,0-2.2-0.4-3-1.2c-0.8-0.9-1.1-2-1.1-3.3
		s0.4-2.3,1.1-3.2c0.7-0.8,1.7-1.3,2.9-1.3c0.9,0,1.7,0.2,2.4,0.7s1.1,1.2,1.2,2.1h-1.2c-0.1-0.5-0.4-1-0.8-1.3s-0.9-0.5-1.5-0.5
		c-0.8,0-1.5,0.3-2,1s-0.8,1.4-0.8,2.4s0.3,1.8,0.8,2.4s1.2,0.9,2.1,0.9c0.6,0,1.1-0.2,1.5-0.5s0.7-0.7,0.9-1.2h1.1
		C62.7,21.2,62.7,21.4,62.7,21.4z"/>
	<path class="st0" d="M69.6,15.4h1.1V24h-1.1v-3.8h-4.2V24h-1.1v-8.6h1.1v3.7h4.2V15.4z"/>
	<path class="st0" d="M76.7,24.1c-1.2,0-2.2-0.4-3.1-1.3s-1.2-1.9-1.2-3.2s0.4-2.3,1.2-3.2s1.8-1.3,3-1.3s2.2,0.4,3,1.3
		c0.8,0.8,1.2,1.9,1.2,3.2s-0.4,2.3-1.2,3.2S77.9,24.1,76.7,24.1z M76.7,23c0.9,0,1.6-0.3,2.2-1c0.6-0.6,0.9-1.4,0.9-2.4
		c0-0.9-0.3-1.7-0.9-2.4c-0.6-0.6-1.3-1-2.2-1c-0.9,0-1.6,0.3-2.2,1c-0.6,0.6-0.9,1.4-0.9,2.4c0,0.9,0.3,1.7,0.9,2.4
		S75.8,23,76.7,23z"/>
	<path class="st0" d="M86.6,24.1c-1.2,0-2.2-0.4-3.1-1.3s-1.2-1.9-1.2-3.2s0.4-2.3,1.2-3.2s1.8-1.3,3-1.3s2.2,0.4,3,1.3
		c0.8,0.8,1.2,1.9,1.2,3.2s-0.4,2.3-1.2,3.2S87.8,24.1,86.6,24.1z M86.6,23c0.9,0,1.6-0.3,2.2-1c0.6-0.6,0.9-1.4,0.9-2.4
		c0-0.9-0.3-1.7-0.9-2.4c-0.6-0.6-1.3-1-2.2-1c-0.9,0-1.6,0.3-2.2,1c-0.6,0.6-0.9,1.4-0.9,2.4c0,0.9,0.3,1.7,0.9,2.4
		S85.7,23,86.6,23z"/>
	<path class="st0" d="M97.6,15.4v1h-2.5V24H94v-7.6h-2.5v-1H97.6z"/>
</g>
<g>
	<path class="st0" d="M6.5,32.7v1H4v7.6H2.9v-7.5H0.4v-1L6.5,32.7L6.5,32.7z"/>
	<path class="st0" d="M13.2,32.7h1.1v8.6h-1.1v-3.8H9v3.8H7.8v-8.6h1.1v3.7h4.2v-3.7H13.2z"/>
	<path class="st0" d="M17.2,40.3h4.5v1h-5.6v-8.6h5.4v1h-4.3v2.7h3.9v1h-3.8v2.9H17.2z"/>
	<path class="st0" d="M28.6,41.3l-0.7-2.2h-3.5l-0.7,2.2h-1.2l3-8.6H27l2.9,8.6H28.6z M24.7,38.1h2.8L26.1,34H26L24.7,38.1z"/>
	<path class="st0" d="M36.6,32.7v1h-2.5v7.6H33v-7.5h-2.5v-1L36.6,32.7L36.6,32.7z"/>
	<path class="st0" d="M39,40.3h4.5v1h-5.6v-8.6h5.4v1H39v2.7h3.8v1H39C39,37.4,39,40.3,39,40.3z"/>
	<path class="st0" d="M50.9,41.3h-1.3l-2-3.5l0,0h-1.7v3.5h-1.1v-8.6h2.9c0.9,0,1.5,0.2,2,0.7s0.8,1.1,0.8,1.8
		c0,0.6-0.2,1.1-0.5,1.5s-0.8,0.7-1.3,0.9L50.9,41.3z M45.9,33.8v3h1.7c0.6,0,1-0.1,1.3-0.4c0.3-0.3,0.5-0.6,0.5-1.1
		s-0.2-0.8-0.5-1.1c-0.3-0.3-0.8-0.4-1.3-0.4H45.9z"/>
	<path class="st0" d="M57.8,32.7v1h-2.5v7.6h-1.1v-7.5h-2.5v-1L57.8,32.7L57.8,32.7z"/>
	<path class="st0" d="M63.2,41.5c-1.2,0-2.2-0.4-3.1-1.3c-0.8-0.8-1.2-1.9-1.2-3.2s0.4-2.3,1.2-3.2c0.8-0.8,1.8-1.3,3-1.3
		c1.2,0,2.2,0.4,3,1.3c0.8,0.8,1.2,1.9,1.2,3.2s-0.4,2.3-1.2,3.2S64.4,41.5,63.2,41.5z M63.2,40.3c0.9,0,1.6-0.3,2.2-1
		s0.9-1.4,0.9-2.4c0-0.9-0.3-1.7-0.9-2.4c-0.6-0.6-1.3-1-2.2-1c-0.9,0-1.6,0.3-2.2,1c-0.6,0.6-0.9,1.4-0.9,2.4
		c0,0.9,0.3,1.7,0.9,2.4S62.3,40.3,63.2,40.3z"/>
	<path class="st0" d="M75.8,32.7v5.2c0,1.1-0.3,2-0.9,2.6s-1.4,0.9-2.4,0.9s-1.8-0.3-2.4-0.9c-0.6-0.6-1-1.5-1-2.6v-5.2h1.2v5.2
		c0,0.8,0.2,1.4,0.6,1.8c0.4,0.4,0.9,0.6,1.6,0.6c0.6,0,1.2-0.2,1.6-0.6c0.4-0.4,0.6-1,0.6-1.8v-5.2H75.8z"/>
	<path class="st0" d="M83.7,41.3h-1.3l-2-3.5l0,0h-1.7v3.5h-1.1v-8.6h2.9c0.9,0,1.5,0.2,2,0.7s0.8,1.1,0.8,1.8
		c0,0.6-0.2,1.1-0.5,1.5s-0.8,0.7-1.3,0.9L83.7,41.3z M78.7,33.8v3h1.7c0.6,0,1-0.1,1.3-0.4c0.3-0.3,0.5-0.6,0.5-1.1
		s-0.2-0.8-0.5-1.1s-0.8-0.4-1.3-0.4H78.7z"/>
	<path class="st0" d="M90.8,32.7h1.1v8.6h-1.2l-4.5-6.7h-0.1v6.7H85v-8.6h1.3l4.4,6.7h0.1C90.8,39.4,90.8,32.7,90.8,32.7z"/>
	<path class="st0" d="M94.9,40.3h4.5v1h-5.6v-8.6h5.4v1h-4.3v2.7h3.8v1h-3.8V40.3z"/>
	<path class="st0" d="M101.8,40.3h4.5v1h-5.6v-8.6h5.4v1h-4.3v2.7h3.8v1h-3.8V40.3z"/>
	<path class="st0" d="M2,56.1v-5.7H0.4v-0.9h0.7c0.6,0,0.9-0.3,0.9-0.9v-0.4h1v7.9H2z"/>
	<path class="st0" d="M8.7,51.9c0.4,0.1,0.7,0.4,1,0.7c0.2,0.3,0.4,0.8,0.4,1.2c0,0.7-0.2,1.3-0.7,1.7c-0.5,0.4-1.1,0.6-1.9,0.6
		S6,55.9,5.6,55.4c-0.5-0.4-0.7-1-0.8-1.8h1.1c0,0.4,0.2,0.7,0.5,1S7,55,7.5,55s0.8-0.1,1.1-0.4S9,54,9,53.6s-0.1-0.7-0.4-1
		c-0.3-0.3-0.7-0.4-1.2-0.4H6.9v-0.9h0.4c0.4,0,0.7-0.1,1-0.3c0.2-0.2,0.4-0.5,0.4-0.9c0-0.3-0.1-0.6-0.3-0.8
		C8.2,49.1,7.9,49,7.5,49s-0.7,0.1-0.9,0.3c-0.4,0.3-0.5,0.6-0.5,1H5c0-0.6,0.2-1.2,0.7-1.6s1.1-0.6,1.7-0.6c0.7,0,1.2,0.2,1.6,0.6
		c0.4,0.4,0.6,0.9,0.6,1.4C9.7,50.9,9.4,51.5,8.7,51.9L8.7,51.9z"/>
	<path class="st0" d="M20.8,53.9c0,0.7-0.3,1.3-0.8,1.7c-0.5,0.4-1.2,0.6-2.1,0.6c-1,0-1.7-0.3-2.3-0.8c-0.5-0.5-0.8-1.2-0.8-2H16
		c0,0.5,0.2,0.9,0.5,1.3c0.3,0.3,0.8,0.5,1.5,0.5c0.5,0,0.9-0.1,1.2-0.3c0.3-0.2,0.5-0.5,0.5-1c0-0.4-0.1-0.7-0.4-1
		s-0.8-0.5-1.6-0.8c-0.8-0.3-1.4-0.6-1.9-0.9c-0.4-0.4-0.7-0.9-0.7-1.5c0-0.7,0.3-1.3,0.8-1.7c0.5-0.4,1.2-0.6,1.9-0.6
		c0.9,0,1.6,0.2,2.1,0.7c0.5,0.5,0.8,1.1,0.8,1.8h-1.1c0-0.4-0.2-0.8-0.5-1.1c-0.3-0.3-0.7-0.4-1.3-0.4c-0.5,0-0.8,0.1-1.1,0.4
		s-0.4,0.5-0.4,0.9s0.1,0.7,0.4,0.9c0.3,0.2,0.8,0.5,1.5,0.7c0.9,0.3,1.6,0.7,2,1.1C20.6,52.7,20.8,53.3,20.8,53.9z"/>
	<path class="st0" d="M23.5,55.1H28v1h-5.6v-8.6h5.4v1h-4.3v2.7h3.8v1h-3.8C23.5,52.2,23.5,55.1,23.5,55.1z"/>
	<path class="st0" d="M32.4,47.5c0.8,0,1.5,0.2,2,0.7s0.8,1.1,0.8,1.9s-0.3,1.5-0.8,1.9c-0.5,0.5-1.2,0.7-2.1,0.7h-1.9v3.4h-1.1
		v-8.6C29.3,47.5,32.4,47.5,32.4,47.5z M32.2,51.7c0.6,0,1-0.1,1.3-0.4s0.5-0.7,0.5-1.2s-0.2-0.9-0.5-1.2c-0.3-0.3-0.7-0.4-1.3-0.4
		h-1.9v3.2H32.2z"/>
	<path class="st0" d="M39.6,51.8h4.5v0.9h-4.4L39.6,51.8L39.6,51.8z"/>
	<path class="st0" d="M51.7,52.9c-1.2,0.7-1.8,1.5-1.8,2.2h3.8v1h-5.1v-0.5c0-1.3,0.7-2.4,2.1-3.3c0.8-0.5,1.3-0.9,1.5-1.1
		c0.3-0.3,0.4-0.6,0.4-0.9c0-0.4-0.1-0.7-0.4-0.9c-0.2-0.2-0.6-0.4-1-0.4c-0.5,0-0.9,0.2-1.1,0.5c-0.3,0.3-0.4,0.7-0.4,1.2h-1.1
		c0-0.4,0.1-0.8,0.3-1.2c0.2-0.4,0.5-0.7,0.9-1s0.9-0.4,1.5-0.4c0.7,0,1.3,0.2,1.8,0.6s0.7,0.9,0.7,1.6c0,0.5-0.2,1-0.5,1.4
		C52.9,52.1,52.4,52.5,51.7,52.9z"/>
	<path class="st0" d="M60.1,55.2c-0.5,0.7-1.2,1-2.1,1s-1.6-0.3-2.1-1s-0.8-1.7-0.8-3s0.3-2.3,0.8-3s1.2-1,2.1-1s1.6,0.3,2.1,1
		s0.8,1.7,0.8,3C60.9,53.5,60.7,54.5,60.1,55.2z M56.8,54.4c0.3,0.5,0.7,0.8,1.2,0.8s0.9-0.3,1.2-0.8s0.5-1.3,0.5-2.3
		s-0.2-1.7-0.5-2.3C58.9,49.3,58.5,49,58,49s-0.9,0.3-1.2,0.8s-0.5,1.3-0.5,2.3C56.3,53.2,56.5,53.9,56.8,54.4z"/>
	<path class="st0" d="M70,56.2c-1.2,0-2.2-0.4-3.1-1.3c-0.8-0.8-1.2-1.9-1.2-3.2s0.4-2.3,1.2-3.2c0.8-0.8,1.8-1.3,3-1.3
		s2.2,0.4,3,1.3c0.8,0.8,1.2,1.9,1.2,3.2s-0.4,2.3-1.2,3.2S71.2,56.2,70,56.2z M70,55.1c0.9,0,1.6-0.3,2.2-1
		c0.6-0.6,0.9-1.4,0.9-2.4c0-0.9-0.3-1.7-0.9-2.4c-0.6-0.6-1.3-1-2.2-1c-0.9,0-1.6,0.3-2.2,1c-0.6,0.6-0.9,1.4-0.9,2.4
		c0,0.9,0.3,1.7,0.9,2.4C68.3,54.8,69.1,55.1,70,55.1z"/>
	<path class="st0" d="M80.8,56.1l-3.2-3.9H77v3.9h-1.1v-8.6H77v3.6h0.6l2.9-3.6h1.3l-3.2,4.1v0.1l3.6,4.4H80.8z"/>
	<path class="st0" d="M88.9,47.5v1h-2.5v7.6h-1.1v-7.6h-2.5v-1C82.8,47.5,88.9,47.5,88.9,47.5z"/>
</g>
</svg>
