<?xml version="1.0" encoding="utf-8"?>
<!-- Generator: Adobe Illustrator 24.0.0, SVG Export Plug-In . SVG Version: 6.00 Build 0)  -->
<svg version="1.1" id="Laag_1" xmlns="http://www.w3.org/2000/svg" xmlns:xlink="http://www.w3.org/1999/xlink" x="0px" y="0px"
	 width="138.2px" height="117.2px" viewBox="0 0 138.2 117.2" style="enable-background:new 0 0 138.2 117.2;" xml:space="preserve"
	>
<style type="text/css">
	.st0{fill:#FFFFFF;}
</style>
<path class="st0" d="M8.3,14.2v-2H6.2V0H4.7C4.2,0.3,3.7,0.5,3.1,0.6C2.5,0.8,2.1,0.9,1.3,1.1v1.7c0.3,0,0.8-0.2,1.2-0.2
	s0.8,0,1.2,0v9.6H1.6v2H8.3L8.3,14.2z M13.1,3.5c0.5-0.9,1.1-1.2,1.8-1.2c0.8,0,1.5,0.5,1.8,1.2c0.5,0.9,0.6,2.1,0.6,3.8
	s-0.2,2.9-0.6,3.8c-0.5,0.9-1.1,1.2-1.8,1.2c-0.8,0-1.5-0.5-1.8-1.2c-0.5-0.9-0.6-2.1-0.6-3.8C12.5,5.5,12.6,4.3,13.1,3.5L13.1,3.5z
	 M11.2,12.5c0.9,1.2,2.1,1.8,3.8,1.8s2.9-0.6,3.8-1.8c0.9-1.2,1.2-3.1,1.2-5.3s-0.5-4.1-1.2-5.3C18,0.6,16.7,0,15.1,0
	s-2.9,0.6-3.8,1.8C10.3,3.1,10,4.9,10,7.2C10,9.6,10.3,11.5,11.2,12.5L11.2,12.5z M24.8,3.5c0.5-0.9,1.1-1.2,1.8-1.2
	c0.8,0,1.5,0.5,1.8,1.2c0.5,0.9,0.6,2.1,0.6,3.8s-0.2,2.9-0.6,3.8c-0.5,0.9-1.1,1.2-1.8,1.2c-0.8,0-1.5-0.5-1.8-1.2
	c-0.5-0.9-0.6-2.1-0.6-3.8C24.1,5.5,24.4,4.3,24.8,3.5L24.8,3.5z M22.9,12.5c0.9,1.2,2.1,1.8,3.8,1.8s2.9-0.6,3.8-1.8
	c0.9-1.2,1.2-3.1,1.2-5.3s-0.5-4.1-1.2-5.3C29.6,0.6,28.4,0,26.7,0s-2.9,0.6-3.8,1.8s-1.2,3.1-1.2,5.3C21.6,9.6,22.1,11.5,22.9,12.5
	L22.9,12.5z M39.7,13.9c0.6,0.3,1.2,0.5,1.8,0.5c1.2,0,2.3-0.3,2.9-1.1c0.6-0.8,0.9-1.8,0.9-3.2V0.2h-2.6v10.1
	c0,0.6-0.2,1.1-0.3,1.4c-0.2,0.3-0.5,0.5-0.9,0.5c-0.3,0-0.5-0.2-0.8-0.3c-0.2-0.2-0.5-0.5-0.6-0.8l-2,1.5
	C38.6,13.1,39.1,13.6,39.7,13.9L39.7,13.9z M52.7,2.6l1.8,6.3H51L52.7,2.6L52.7,2.6z M49.4,14.2l0.9-3.1h4.9l0.9,3.1h2.6L54.5,0.2
	h-3.4l-4.3,14.1H49.4L49.4,14.2z M65.3,2.6l1.8,6.3h-3.5L65.3,2.6L65.3,2.6z M62,14.2l0.9-3.1h4.9l0.9,3.1h2.6L67,0.2h-3.4
	l-4.3,14.1H62L62,14.2z M75.4,2.4h2.3c0.9,0,1.5,0.2,1.8,0.5c0.5,0.3,0.6,0.8,0.6,1.5C80.2,5,80,5.7,79.6,6
	c-0.5,0.3-1.1,0.5-1.8,0.5h-2.3V2.4L75.4,2.4z M75.4,14.2V8.6h2.4l2.8,5.7h2.9l-3.1-6.3c0.8-0.3,1.5-0.6,2-1.2
	c0.5-0.6,0.6-1.4,0.6-2.3c0-1.4-0.5-2.4-1.2-3.2c-0.9-0.6-2.1-1.1-4-1.1h-5v14.1H75.4L75.4,14.2z M4.7,65.4V51.3H2.1v14.1H4.7
	L4.7,65.4z M10.5,65.4v-7.8c0-0.6,0-1.1,0-1.5c0-0.5,0-0.9-0.2-1.2c0.3,0.8,0.6,1.4,0.8,1.8c0.3,0.6,0.5,1.1,0.8,1.5l4.4,7.2h2.4
	V51.3h-2.4v7.5c0,0.6,0,1.1,0,1.5c0,0.5,0.2,0.9,0.2,1.4c-0.2-0.6-0.5-1.1-0.8-1.7c-0.3-0.6-0.6-1.1-0.9-1.7l-4-7H8.1v14.1H10.5
	L10.5,65.4z M31.9,52.7l1.8,6.3h-3.5L31.9,52.7L31.9,52.7z M28.7,65.4l0.9-3.1h4.9l0.9,3.1h2.6l-4.3-14.1h-3.4l-4.3,14.1H28.7
	L28.7,65.4z M42.2,65.4v-6.1h4.7V57h-4.7v-3.4h6.1v-2.3h-8.9v14.1H42.2L42.2,65.4z M53,52.6h2.3c0.9,0,1.5,0.2,1.8,0.5
	c0.5,0.3,0.6,0.8,0.6,1.5c0,0.6-0.2,1.2-0.6,1.5c-0.5,0.3-1.1,0.5-1.8,0.5H53V52.6L53,52.6z M53,65.4v-5.7h2.4l2.8,5.7h2.9l-3.1-6.3
	c0.8-0.3,1.5-0.6,2-1.2c0.5-0.6,0.6-1.4,0.6-2.3c0-1.4-0.5-2.4-1.2-3.2c-0.9-0.6-2.1-1.1-4-1.1h-4.7v14.1H53L53,65.4z M66.2,65.4
	V51.3h-2.6v14.1H66.2L66.2,65.4z M72.1,65.4v-4.1l2-2.6l3.4,6.6h3.1L76,56.3l4-5h-3.1l-4.7,6.4v-6.4h-2.6v14.1H72.1L72.1,65.4z
	 M86.7,52.7l1.8,6.3H85L86.7,52.7L86.7,52.7z M83.3,65.4l0.9-3.1h4.9l0.9,3.1h2.6l-4.3-14.1H85l-4.3,14.1H83.3L83.3,65.4z
	 M99.2,52.7L101,59h-3.5L99.2,52.7L99.2,52.7z M96,65.4l0.9-3.1h4.9l0.9,3.1h2.6L101,51.3h-3.4l-4.3,14.1H96L96,65.4z M109.3,65.4
	v-7.8c0-0.6,0-1.1,0-1.5c0-0.5,0-0.9-0.2-1.2c0.3,0.8,0.6,1.4,0.8,1.8c0.3,0.6,0.5,1.1,0.8,1.5l4.4,7.2h2.4V51.3h-2.4v7.5
	c0,0.6,0,1.1,0,1.5c0,0.5,0.2,0.9,0.2,1.4c-0.2-0.6-0.5-1.1-0.8-1.7c-0.3-0.6-0.6-1.1-0.9-1.7l-4-7h-2.8v14.1H109.3L109.3,65.4z
	 M121.5,64.7c0.9,0.6,2,0.9,3.2,0.9c1.5,0,2.6-0.3,3.5-1.1c0.9-0.8,1.2-1.7,1.2-3.1c0-0.9-0.3-1.7-0.8-2.3c-0.5-0.6-1.4-1.2-2.8-1.7
	c-0.3-0.2-0.6-0.3-1.2-0.5c-1.7-0.6-2.4-1.4-2.4-2c0-0.5,0.2-0.8,0.5-1.1s0.8-0.5,1.4-0.5c0.6,0,1.1,0.2,1.5,0.5s0.8,0.8,1.1,1.4
	l2.4-0.9c-0.3-1.1-0.9-1.8-1.7-2.3c-0.8-0.5-1.8-0.8-2.9-0.8c-1.4,0-2.4,0.3-3.4,1.1c-0.9,0.8-1.2,1.7-1.2,2.8
	c0,0.6,0.2,1.2,0.5,1.8c0.3,0.5,0.8,0.9,1.2,1.2c0.6,0.3,1.5,0.8,2.9,1.2c0.2,0,0.3,0.2,0.5,0.2c0.8,0.3,1.4,0.6,1.7,0.9
	c0.3,0.3,0.5,0.6,0.5,1.1c0,0.6-0.2,0.9-0.6,1.2c-0.5,0.3-0.9,0.5-1.7,0.5c-0.6,0-1.2-0.2-1.7-0.5s-0.9-0.9-1.2-1.7l-2.4,1.1
	C120,63.2,120.6,64.1,121.5,64.7L121.5,64.7z M135.6,61.4v-2.1h-4.3v2.1H135.6L135.6,61.4z M4.7,116.6v-4.1l2-2.6l3.4,6.6h3.1
	l-4.6-8.9l4-5H9.5L4.7,109v-6.4H2.1v14.1H4.7L4.7,116.6z M16.2,115.5c0.9,0.9,2.1,1.4,4,1.4c1.7,0,3.1-0.5,4-1.2
	c0.9-0.9,1.4-2.1,1.4-3.7v-9.3h-2.6v9c0,1.1-0.2,1.8-0.6,2.3c-0.5,0.5-1.1,0.6-2.1,0.6c-0.9,0-1.7-0.3-2-0.8
	c-0.5-0.5-0.6-1.2-0.6-2.3v-9H15v8.9C15,113.2,15.3,114.6,16.2,115.5L16.2,115.5z M31,116.6v-7.8c0-0.6,0-1.1,0-1.5s0-0.9-0.2-1.2
	c0.3,0.8,0.6,1.4,0.8,1.8c0.3,0.6,0.5,1.1,0.8,1.5l4.4,7.2h2.4v-14.1h-2.4v7.5c0,0.6,0,1.1,0,1.5c0,0.5,0.2,0.9,0.2,1.4
	c-0.2-0.6-0.5-1.1-0.8-1.7c-0.3-0.6-0.6-1.1-0.9-1.7l-4-7h-2.8v14.1H31L31,116.6z M43.4,116c0.9,0.6,2,0.9,3.2,0.9
	c1.5,0,2.6-0.3,3.5-1.1c0.9-0.8,1.2-1.7,1.2-3.1c0-0.9-0.3-1.7-0.8-2.3c-0.5-0.6-1.4-1.2-2.8-1.7c-0.3-0.2-0.6-0.3-1.2-0.5
	c-1.7-0.6-2.4-1.4-2.4-2c0-0.5,0.2-0.8,0.5-1.1c0.3-0.3,0.8-0.5,1.4-0.5c0.6,0,1.1,0.2,1.5,0.5c0.5,0.3,0.8,0.8,1.1,1.4l2.4-0.9
	c-0.3-1.1-0.9-1.8-1.7-2.3c-0.8-0.5-1.8-0.8-2.9-0.8c-1.4,0-2.4,0.3-3.4,1.1s-1.2,1.7-1.2,2.8c0,0.6,0.2,1.2,0.5,1.8
	c0.3,0.5,0.8,0.9,1.2,1.2c0.6,0.3,1.5,0.8,2.9,1.2c0.2,0,0.3,0.2,0.5,0.2c0.8,0.3,1.4,0.6,1.7,0.9c0.3,0.3,0.5,0.6,0.5,1.1
	c0,0.6-0.2,0.9-0.6,1.2c-0.5,0.3-0.9,0.5-1.7,0.5c-0.6,0-1.2-0.2-1.7-0.5c-0.5-0.3-0.9-0.9-1.2-1.7l-2.4,1.1
	C41.7,114.5,42.5,115.4,43.4,116L43.4,116z M58.8,116.6V105h3.7v-2.3H52.4v2.3h3.7v11.6H58.8L58.8,116.6z M3.3,39
	c0.9,0.6,2,0.9,3.2,0.9c1.5,0,2.6-0.3,3.5-1.1c0.9-0.8,1.2-1.7,1.2-3.1c0-0.9-0.3-1.7-0.8-2.3c-0.5-0.6-1.4-1.2-2.8-1.7
	c-0.3-0.2-0.6-0.3-1.2-0.5c-1.7-0.6-2.4-1.4-2.4-2c0-0.5,0.2-0.8,0.5-1.1c0.3-0.3,0.8-0.5,1.4-0.5S7,28,7.4,28.3
	c0.5,0.3,0.8,0.8,1.1,1.4l2.4-0.9c-0.3-1.1-0.9-1.8-1.7-2.3c-0.8-0.5-1.8-0.8-2.9-0.8C5,25.7,3.9,26,3,26.7s-1.2,1.7-1.2,2.8
	c0,0.6,0.2,1.2,0.5,1.8c0.3,0.5,0.8,0.9,1.2,1.2c0.6,0.3,1.5,0.8,2.9,1.2c0.2,0,0.3,0.2,0.5,0.2c0.8,0.3,1.4,0.6,1.7,0.9
	c0.3,0.3,0.5,0.6,0.5,1.1c0,0.6-0.2,0.9-0.6,1.2s-0.9,0.5-1.7,0.5c-0.6,0-1.2-0.2-1.7-0.5c-0.5-0.3-0.9-0.9-1.2-1.7l-2.4,1.1
	C1.8,37.4,2.4,38.4,3.3,39L3.3,39z M18.7,39.6V28h3.7v-2.3H12.3V28H16v11.6H18.7L18.7,39.6z M27,28.9c0.5-0.8,1.4-1.2,2.3-1.2
	c1.1,0,1.8,0.5,2.3,1.2c0.6,0.9,0.9,2.1,0.9,3.7c0,1.5-0.3,2.8-0.8,3.7c-0.5,0.8-1.4,1.2-2.3,1.2c-1.1,0-1.8-0.5-2.3-1.2
	s-0.8-2-0.8-3.7C26.2,31,26.5,29.8,27,28.9L27,28.9z M25.1,37.9c1.1,1.2,2.4,2,4.3,2c1.8,0,3.2-0.6,4.3-2c1.1-1.2,1.5-3.1,1.5-5.3
	s-0.5-4-1.5-5.3c-1.1-1.2-2.4-1.8-4.3-1.8s-3.2,0.6-4.3,1.8c-1.1,1.2-1.5,3.1-1.5,5.3C23.5,34.8,24.1,36.7,25.1,37.9L25.1,37.9z
	 M40,27.8h2.3c0.9,0,1.5,0.2,1.8,0.5c0.5,0.3,0.6,0.8,0.6,1.5c0,0.6-0.2,1.2-0.6,1.5c-0.5,0.3-1.1,0.5-1.8,0.5H40V27.8L40,27.8z
	 M40,39.6v-5.7h2.4l2.8,5.7h2.9L45,33.3c0.8-0.3,1.5-0.6,2-1.2c0.5-0.6,0.6-1.4,0.6-2.3c0-1.4-0.5-2.4-1.2-3.2
	c-0.9-0.6-2.1-1.1-4-1.1h-4.7v14.1H40L40,39.6z M55.4,39.6v-5.5l4-8.4h-2.4l-2.6,5.8l-2.8-5.8h-2.8l4.1,8.4v5.5H55.4L55.4,39.6z
	 M66.3,39.6V28h3.7v-2.3H59.8V28h3.7v11.6H66.3L66.3,39.6z M81.2,39.6v-2.4h-6.7v-3.8h4.7V31h-4.7v-3.4h6.4v-2.3h-9v14.1L81.2,39.6
	L81.2,39.6z M91.9,39.6v-2.4h-6V25.5h-2.8v14.1H91.9L91.9,39.6z M102.5,39.6v-2.4h-5.8V25.5h-2.8v14.1H102.5L102.5,39.6z
	 M107.4,39.6V25.5h-2.6v14.1H107.4L107.4,39.6z M113.2,39.6v-7.8c0-0.6,0-1.1,0-1.5c0-0.5,0-0.9-0.2-1.2c0.3,0.8,0.6,1.4,0.8,1.8
	c0.3,0.6,0.5,1.1,0.8,1.5l4.4,7.2h2.4V25.5H119V33c0,0.6,0,1.1,0,1.5s0.2,0.9,0.2,1.4c-0.2-0.6-0.5-1.1-0.8-1.7s-0.6-1.1-0.9-1.7
	l-4-7h-2.8v14.1H113.2L113.2,39.6z M134.7,39.6v-7h-5.2v2.1h2.6c-0.2,0.9-0.5,1.5-0.9,2.1c-0.5,0.5-1.1,0.8-1.8,0.8
	c-0.9,0-1.7-0.5-2.1-1.2c-0.5-0.9-0.8-2-0.8-3.7c0-1.7,0.3-2.9,0.8-3.7c0.5-0.9,1.2-1.2,2.3-1.2c0.6,0,1.1,0.2,1.5,0.5
	c0.5,0.3,0.8,0.8,1.1,1.5l2.4-0.6c-0.3-1.2-0.9-2-1.8-2.6c-0.9-0.6-1.8-0.9-3.2-0.9c-1.8,0-3.2,0.6-4.3,1.8
	c-1.1,1.2-1.5,2.9-1.5,5.2s0.5,4.1,1.4,5.3c0.9,1.4,2.3,2,4,2c0.8,0,1.5-0.2,2.1-0.5c0.6-0.3,1.1-0.8,1.5-1.2l0.2,1.5h1.8V39.6z
	 M7.1,80l1.8,6.3H5.4L7.1,80L7.1,80z M3.9,91.7l0.9-3.1h4.9l0.9,3.1h2.6L8.9,77.6H5.6L1.3,91.7H3.9L3.9,91.7z M17,91.7V79.9
	c0,0.3,0.2,0.8,0.3,1.1c0.2,0.5,0.3,1.1,0.6,2l2.4,8.7h2l2.6-8.7c0.2-0.5,0.3-1.1,0.5-1.5c0.2-0.5,0.3-1.1,0.5-1.5v11.8h2.3V77.6
	h-3.7l-2,6.9c-0.2,0.6-0.3,1.2-0.5,1.8c-0.2,0.6-0.3,1.1-0.5,1.5c0-0.6-0.2-1.1-0.3-1.7c-0.2-0.6-0.3-1.2-0.5-1.8l-2-6.7h-3.8v14.1
	H17L17,91.7z M40.4,91.7v-2.4h-6.7v-3.8h4.7v-2.3h-4.7v-3.4h6.4v-2.3h-9v14.1L40.4,91.7L40.4,91.7z M45.2,79.9h2.3
	c0.9,0,1.5,0.2,1.8,0.5c0.5,0.3,0.6,0.8,0.6,1.5c0,0.6-0.2,1.2-0.6,1.5c-0.5,0.3-1.1,0.5-1.8,0.5h-2.3V79.9L45.2,79.9z M45.2,91.7
	V86h2.4l2.8,5.7h2.9l-3.1-6.3c0.8-0.3,1.5-0.6,2-1.2c0.5-0.6,0.6-1.4,0.6-2.3c0-1.4-0.5-2.4-1.2-3.2c-0.9-0.6-2.1-1.1-4-1.1h-4.7
	v14.1H45.2L45.2,91.7z M58.3,91.7V77.6h-2.6v14.1H58.3L58.3,91.7z M64.3,91.7v-4.1l2-2.6l3.4,6.6h3.1l-4.6-8.9l4-5H69L64.3,84v-6.4
	h-2.6v14.1H64.3L64.3,91.7z M78.8,80l1.8,6.3h-3.5L78.8,80L78.8,80z M75.4,91.7l0.9-3.1h4.9l0.9,3.1h2.6l-4.3-14.1h-3.4l-4.3,14.1
	H75.4L75.4,91.7z M91.8,80l1.8,6.3h-3.5L91.8,80L91.8,80z M88.6,91.7l0.9-3.1h4.9l0.9,3.1h2.6l-4.3-14.1h-3.4L86,91.7H88.6
	L88.6,91.7z M101.9,91.7v-7.8c0-0.6,0-1.1,0-1.5c0-0.5,0-0.9-0.2-1.2c0.3,0.8,0.6,1.4,0.8,1.8c0.3,0.6,0.5,1.1,0.8,1.5l4.4,7.2h2.4
	V77.6h-2.4v7.5c0,0.6,0,1.1,0,1.5c0,0.5,0.2,0.9,0.2,1.4c-0.2-0.6-0.5-1.1-0.8-1.7c-0.3-0.6-0.6-1.1-0.9-1.7l-4-7h-2.8v14.1H101.9
	L101.9,91.7z M114.1,91c0.9,0.6,2,0.9,3.2,0.9c1.5,0,2.6-0.3,3.5-1.1c0.9-0.8,1.2-1.7,1.2-3.1c0-0.9-0.3-1.7-0.8-2.3
	c-0.5-0.6-1.4-1.2-2.8-1.7c-0.3-0.2-0.6-0.3-1.2-0.5c-1.7-0.6-2.4-1.4-2.4-2c0-0.5,0.2-0.8,0.5-1.1c0.3-0.3,0.8-0.5,1.4-0.5
	c0.6,0,1.1,0.2,1.5,0.5c0.5,0.3,0.8,0.8,1.1,1.4l2.4-0.9c-0.3-1.1-0.9-1.8-1.7-2.3s-1.8-0.8-2.9-0.8c-1.4,0-2.4,0.3-3.4,1.1
	c-0.9,0.8-1.2,1.7-1.2,2.8c0,0.6,0.2,1.2,0.5,1.8c0.3,0.5,0.8,0.9,1.2,1.2c0.6,0.3,1.5,0.8,2.9,1.2c0.2,0,0.3,0.2,0.5,0.2
	c0.8,0.3,1.4,0.6,1.7,0.9c0.3,0.3,0.5,0.6,0.5,1.1c0,0.6-0.2,0.9-0.6,1.2s-0.9,0.5-1.7,0.5c-0.6,0-1.2-0.2-1.7-0.5
	c-0.5-0.3-0.9-0.9-1.2-1.7l-2.4,1.1C112.6,89.5,113.2,90.4,114.1,91L114.1,91z M133.8,91.7v-2.4h-6.7v-3.8h4.7v-2.3h-4.7v-3.4h6.4
	v-2.3h-9v14.1L133.8,91.7L133.8,91.7z"/>
</svg>
