<?xml version="1.0" encoding="utf-8"?>
<!-- Generator: Adobe Illustrator 24.3.0, SVG Export Plug-In . SVG Version: 6.00 Build 0)  -->
<svg version="1.1" id="Laag_1" xmlns="http://www.w3.org/2000/svg" xmlns:xlink="http://www.w3.org/1999/xlink" x="0px" y="0px"
	 width="139.6px" height="26.7px" viewBox="0 0 139.6 26.7" style="enable-background:new 0 0 139.6 26.7;" xml:space="preserve">
<g>
	<path style="fill:#293271;" d="M5.2,8.1h2.9c1.5,0,2.5,1.1,2.5,2.4c0,0.8-0.3,1.3-0.8,1.6c0.8,0.3,1.4,1,1.4,2
		c0,1.4-1.1,2.5-2.7,2.5H5.2V8.1z M8.1,11.6c0.8,0,1.2-0.5,1.2-1.2c0-0.6-0.5-1.2-1.2-1.2H6.6v2.3H8.1z M8.5,15.3
		c0.9,0,1.4-0.5,1.4-1.2c0-0.7-0.5-1.2-1.4-1.2H6.6v2.4H8.5z"/>
	<path style="fill:#293271;" d="M15.3,10.5c1.6,0,2.9,1,2.9,3c0,0.1,0,0.2,0,0.4h-4.7c0.1,1,0.9,1.6,1.8,1.6c0.8,0,1.4-0.4,1.7-0.9
		l1,0.7c-0.5,0.9-1.5,1.4-2.7,1.4c-1.8,0-3.1-1.3-3.1-3.1C12.2,11.8,13.5,10.5,15.3,10.5z M13.6,12.9h3.3c-0.1-0.9-0.8-1.3-1.6-1.3
		C14.5,11.6,13.8,12,13.6,12.9z"/>
	<path style="fill:#293271;" d="M19.6,7.6h1.3v5.3l2.3-2.3h1.7l-2.7,2.7l3.3,3.3h-1.7l-2.9-2.9v2.9h-1.3V7.6z"/>
	<path style="fill:#293271;" d="M26.8,9.3c-0.5,0-0.9-0.4-0.9-0.9c0-0.5,0.4-0.9,0.9-0.9c0.5,0,0.9,0.4,0.9,0.9
		C27.7,8.9,27.3,9.3,26.8,9.3z M26.2,10.6h1.3v6h-1.3V10.6z"/>
	<path style="fill:#293271;" d="M30.7,17.2c0,1.3-0.9,2-2,2c-0.2,0-0.4,0-0.6,0V18c0.1,0,0.2,0,0.3,0c0.6,0,0.9-0.3,0.9-1v-6.4h1.3
		V17.2z M30,9.3c-0.5,0-0.9-0.4-0.9-0.9c0-0.5,0.4-0.9,0.9-0.9c0.5,0,0.9,0.4,0.9,0.9C30.9,8.9,30.5,9.3,30,9.3z"/>
	<path style="fill:#293271;" d="M32.5,7.6h1.3v5.3l2.3-2.3h1.7l-2.7,2.7l3.3,3.3h-1.7l-2.9-2.9v2.9h-1.3V7.6z"/>
	<path style="fill:#293271;" d="M44.3,16.7c-1.8,0-3.1-1.4-3.1-3.1c0-1.7,1.4-3.1,3.1-3.1s3.1,1.4,3.1,3.1
		C47.4,15.3,46.1,16.7,44.3,16.7z M44.3,15.5c1.1,0,1.8-0.8,1.8-1.9s-0.7-1.9-1.8-1.9c-1.1,0-1.8,0.8-1.8,1.9S43.2,15.5,44.3,15.5z"
		/>
	<path style="fill:#293271;" d="M48.8,10.6h1.3v0.8c0.4-0.6,1-0.9,1.8-0.9c1.4,0,2.3,1,2.3,2.5v3.6h-1.3v-3.4c0-0.9-0.5-1.5-1.2-1.5
		c-0.9,0-1.5,0.7-1.5,2v3h-1.3V10.6z"/>
	<path style="fill:#293271;" d="M55.5,15.5l3.1-3.8h-3.1v-1.2h4.8v1.1l-3.1,3.7h3.2v1.2h-4.9V15.5z"/>
	<path style="fill:#293271;" d="M64.4,10.5c1.6,0,2.9,1,2.9,3c0,0.1,0,0.2,0,0.4h-4.7c0.1,1,0.9,1.6,1.8,1.6c0.8,0,1.4-0.4,1.7-0.9
		l1,0.7c-0.5,0.9-1.5,1.4-2.7,1.4c-1.8,0-3.1-1.3-3.1-3.1C61.3,11.8,62.6,10.5,64.4,10.5z M62.6,12.9H66c-0.1-0.9-0.8-1.3-1.6-1.3
		C63.6,11.6,62.8,12,62.6,12.9z"/>
	<path style="fill:#293271;" d="M71.9,11.7h-1.2v-1.2h1.2v-1c0-1.3,0.9-2.1,2.1-2.1c0.4,0,0.7,0.1,1,0.1v1.2
		c-0.2-0.1-0.5-0.1-0.7-0.1c-0.7,0-1,0.3-1,1v0.9H75v1.2h-1.7v4.8h-1.3V11.7z M76.7,9.3c-0.5,0-0.9-0.4-0.9-0.9
		c0-0.5,0.4-0.9,0.9-0.9c0.5,0,0.9,0.4,0.9,0.9C77.6,8.9,77.2,9.3,76.7,9.3z M76,10.6h1.3v6H76V10.6z"/>
	<path style="fill:#293271;" d="M79.1,7.6h1.3v9h-1.3V7.6z"/>
	<path style="fill:#293271;" d="M82.2,10.6h1.3v0.8c0.3-0.6,0.9-0.9,1.7-0.9c0.9,0,1.5,0.4,1.9,1.2c0.4-0.8,1.1-1.2,1.9-1.2
		c1.4,0,2.2,1,2.2,2.5v3.6h-1.3v-3.4c0-0.9-0.3-1.5-1.1-1.5c-0.9,0-1.4,0.7-1.4,2v3h-1.3v-3.4c0-0.9-0.3-1.5-1.1-1.5
		c-0.9,0-1.4,0.7-1.4,2v3h-1.3V10.6z"/>
	<path style="fill:#293271;" d="M94.7,16.7c-1,0-1.9-0.4-2.4-1.2l1-0.7c0.2,0.5,0.8,0.8,1.5,0.8c0.5,0,0.9-0.2,0.9-0.6
		c0-0.4-0.3-0.6-1-0.8L94.2,14c-1-0.3-1.6-0.9-1.5-1.8c0-1,0.9-1.7,2.1-1.7c0.8,0,1.5,0.3,2,0.9L96,12.1c-0.3-0.3-0.7-0.6-1.2-0.6
		c-0.5,0-0.8,0.2-0.8,0.5c0,0.3,0.2,0.5,0.8,0.7l0.6,0.2c1,0.3,1.6,0.9,1.6,1.9C96.9,16,96,16.7,94.7,16.7z"/>
	<path style="fill:#293271;" d="M103.8,16.7c-1.8,0-3.1-1.4-3.1-3.1c0-1.7,1.4-3.1,3.1-3.1s3.1,1.4,3.1,3.1
		C107,15.3,105.6,16.7,103.8,16.7z M103.8,15.5c1.1,0,1.8-0.8,1.8-1.9s-0.7-1.9-1.8-1.9c-1.1,0-1.8,0.8-1.8,1.9
		S102.8,15.5,103.8,15.5z"/>
	<path style="fill:#293271;" d="M108.3,10.6h1.3v0.8c0.4-0.6,1-0.9,1.8-0.9c1.4,0,2.3,1,2.3,2.5v3.6h-1.3v-3.4
		c0-0.9-0.5-1.5-1.2-1.5c-0.9,0-1.5,0.7-1.5,2v3h-1.3V10.6z"/>
	<path style="fill:#293271;" d="M115.4,7.6h1.3v9h-1.3V7.6z"/>
	<path style="fill:#293271;" d="M119.2,9.3c-0.5,0-0.9-0.4-0.9-0.9c0-0.5,0.4-0.9,0.9-0.9c0.5,0,0.9,0.4,0.9,0.9
		C120.1,8.9,119.7,9.3,119.2,9.3z M118.5,10.6h1.3v6h-1.3V10.6z"/>
	<path style="fill:#293271;" d="M121.6,10.6h1.3v0.8c0.4-0.6,1-0.9,1.8-0.9c1.4,0,2.3,1,2.3,2.5v3.6h-1.3v-3.4
		c0-0.9-0.5-1.5-1.2-1.5c-0.9,0-1.5,0.7-1.5,2v3h-1.3V10.6z"/>
	<path style="fill:#293271;" d="M131.5,10.5c1.6,0,2.9,1,2.9,3c0,0.1,0,0.2,0,0.4h-4.7c0.1,1,0.9,1.6,1.8,1.6c0.8,0,1.4-0.4,1.7-0.9
		l1,0.7c-0.5,0.9-1.5,1.4-2.7,1.4c-1.8,0-3.1-1.3-3.1-3.1C128.3,11.8,129.6,10.5,131.5,10.5z M129.7,12.9h3.3
		c-0.1-0.9-0.8-1.3-1.6-1.3S129.9,12,129.7,12.9z"/>
</g>
</svg>
