<?xml version="1.0" encoding="utf-8"?>
<!-- Generator: Adobe Illustrator 24.0.0, SVG Export Plug-In . SVG Version: 6.00 Build 0)  -->
<svg version="1.1" id="Laag_1" xmlns="http://www.w3.org/2000/svg" xmlns:xlink="http://www.w3.org/1999/xlink" x="0px" y="0px"
	 width="102.2px" height="62px" viewBox="0 0 102.2 62" style="enable-background:new 0 0 102.2 62;" xml:space="preserve">
<style type="text/css">
	.st0{fill:#3C4F8E;}
</style>
<g>
	<path class="st0" d="M13.3,48.7c-0.6,0.7-1,0.9-1,0.9c0.5,0.4,1.7,1.1,2.9-0.4c1.3-1.5,1-2.3,0.9-2.4c0.9,0.8,1.4,2.4-0.3,4.3
		c-2,2.4-4.1,2-6,0.5c-3.1-2.6-1.8-4.9-0.9-5.9c0.5-0.6,2.4-3,4.4-1.3C14.3,45.1,15.3,46.3,13.3,48.7z M10.2,46.5
		c-0.7,0.9,0,1.5,1,2.3c0,0,0.2-0.1,0.6-0.6c0.5-0.6,0.6-1.1-0.1-1.7C11.3,46.2,10.7,45.9,10.2,46.5z"/>
</g>
<path class="st0" d="M23.5,41.9l-2.1,2.6l-2.7-2.7c0,0-0.2,0.1-0.4,0.4c-0.5,0.5-1,1.1,0,2c0.6,0.6,1.1,0.7,1.5,0.3
	c0.3-0.3,0.2-0.6,0.2-0.6c1,1,0.2,2-0.3,2.5c-1.5,1.5-3,0.4-3.5-0.1c-1.8-1.8-0.6-3.4,0.4-4.4c0.6-0.6,1.1-0.9,1.1-0.9l-0.1-0.1
	c-0.3-0.3-0.6-0.6-1-0.6c-0.3,0-0.7,0.2-1.3,0.8c-0.5,0.5-1,1.4-0.9,2.3c-1.4-1.4-0.7-3,0.5-4.2c1.4-1.4,2.4-1.6,3.2-1.4
	c0.6,0.1,1,0.5,1.9,1.4c0.4,0.4,0.8,0.8,1.7,1.7c0.7,0.7,1.2,1,1.7,1.2L23.5,41.9z"/>
<g>
	<path class="st0" d="M27.2,39c-2.9,2.5-4.2,1.6-5.7-0.1c-0.6-0.7-1.5-1.7-1.8-2.1c-0.7-0.8-1-1-1.5-0.9c0,0,0-0.6,1.1-1.5
		c1.2-1,1.7-0.6,2.4,0.1c0.4,0.4,1.3,1.6,1.9,2.2c1.1,1.2,1.7,1.8,2.6,1c0.5-0.4,0.5-0.7,0.5-0.7l-1.9-2.1c-1.7-1.9-2-2.1-2.5-2.3
		L22,32.5l2.4-2.6c0,0,0.9,1.2,2.7,3.3c2,2.3,2.4,2.5,2.6,2.6C29.8,35.7,29.2,37.2,27.2,39z"/>
</g>
<g>
	<path class="st0" d="M33.2,34.2c-1,0.7-1.7,0.8-2.3,0.6c-0.6-0.2-1.1-0.8-1.7-1.6c-1.4-1.9-2.1-3-2.1-3l-0.8,0.6
		c0,0,0.1-0.7,0.1-2.1c0-1.2,0-2.2,0-2.2l1-0.8l1,1.4l0.6-0.4c1-0.7,1.1-1,1.1-1s0.1,0.2,0.6,0.8c0.4,0.6,0.6,0.8,0.6,0.8
		s-0.3,0-1.2,0.7l-0.6,0.4l2.1,2.9c0.4,0.5,0.6,0.7,0.8,0.8c0.3,0.2,0.6,0.1,1.1-0.2c0.6-0.5,0.7-1,0.7-1
		C34.7,31.9,34.7,33.2,33.2,34.2z"/>
</g>
<g>
	<path class="st0" d="M38.3,21.7c0.2,1.1,1.7,4.3,2.2,7.6c0.2,1.7,0.1,3.4-1.6,4.6c-1,0.7-1.3,0.6-1.3,0.6s-0.2-0.3-0.6-1
		c-0.5-0.8-0.8-1.1-0.8-1.1c0.8,0.3,1.1,0.5,1.7,0.2c0.6-0.4,0.6-0.8,0.5-1.1l0-0.1l-4.8-3.6c-1.7-1.3-2.5-1.8-3.2-2
		c0,0,0.6-0.4,1.9-1.2c1.3-0.9,1.8-1.2,1.8-1.2c-0.1,0.2-0.2,0.6,0.1,1c0.3,0.4,0.9,1,1.7,1.7l1.6,1.5c0.7,0.6,0.9,0.9,0.9,0.9
		c-0.2-1.4-1.4-4-2.1-5.1c-0.5-0.7-0.8-0.7-1.1-0.7c0,0,0.5-0.3,1.6-1c1.1-0.8,1.5-1,1.5-1C38.2,20.8,38.2,21.3,38.3,21.7z"/>
</g>
<g>
	<path class="st0" d="M48,14.5l-1.3,2.3l-2.6-0.7l1.3-2.3L48,14.5z M50.2,24.5c-1.5,0.7-1.9-0.2-2.2-0.8c-0.3-0.8-0.8-1.9-1.2-2.8
		c-1-2.3-1.3-2.6-1.7-2.9L45,17.8l3.1-1.8c0,0,0.3,1,1.5,3.8l0.6,1.3c0.7,1.6,0.9,2,1.6,2.1C51.8,23.3,51.6,23.9,50.2,24.5z"/>
</g>
<g>
	<path class="st0" d="M55.4,22.5c-1.9,0.7-2.7,0.5-2.7,0.5s-0.1-0.3-0.4-1.2c-0.3-0.9-0.5-1.2-0.5-1.2c0.9,0.7,1.6,0.9,2.5,0.5
		c0.7-0.3,1-0.6,0.8-0.9c-0.1-0.4-0.4-0.4-1.1-0.5l-1.1-0.1c-1.2-0.1-2.1-0.5-2.5-1.7c-0.6-1.6,0.2-2.9,2.3-3.7
		c1.8-0.7,2.8-0.5,2.8-0.5s0.1,0.3,0.4,1.1c0.3,0.9,0.5,1.3,0.5,1.3c-1.1-0.9-1.9-0.8-2.7-0.5c-0.8,0.3-1,0.6-0.9,1
		c0.1,0.4,0.4,0.4,0.9,0.5l1.2,0.1c1.2,0.1,2.1,0.5,2.5,1.7C58.1,20.5,57.4,21.8,55.4,22.5z"/>
</g>
<g>
	<path class="st0" d="M70,17.7L67,18.9l-0.4-1.7c0,1.6-1,2.1-1.9,2.3c-1.9,0.5-2.8-0.7-3.1-1.8c-0.7-2.5,1.5-3.2,2.6-3.5
		c0.8-0.2,1.3-0.3,1.3-0.3l-0.1-0.3c-0.1-0.4-0.2-0.8-0.6-1c-0.3-0.2-0.7-0.2-1.5,0c-0.7,0.2-1.6,0.7-1.9,1.5c0,0-0.1-0.4-0.2-1.1
		c-0.2-0.7-0.3-1-0.3-1s0.8-0.7,2.9-1.3c1.9-0.5,2.8-0.3,3.3,0.1c0.7,0.5,1,1.3,1.2,2.3c0.3,1.1,0.3,1.2,0.7,2.5
		c0.3,1,0.5,1.5,0.9,1.9L70,17.7z M65.9,15.1c0,0-0.1,0-0.6,0.1c-0.4,0.1-1.3,0.4-1,1.6c0.2,0.8,0.8,1,1.3,0.9
		c0.7-0.2,0.8-0.6,0.8-0.6L65.9,15.1z"/>
</g>
<g>
	<path class="st0" d="M76.2,16.5c-1.8,0.4-2-0.5-2.2-1.2c-0.4-1.5-0.6-2.6-0.8-3.4l-0.6-2.4c-0.6-2.4-0.8-2.8-1.1-3.2l-0.2-0.2
		l3.3-1.2c0,0,0.3,1.4,0.6,2.7l1.3,5.5c0.4,1.6,0.6,2.1,1.2,2.3C77.9,15.6,77.6,16.2,76.2,16.5z"/>
</g>
<g>
	<path class="st0" d="M80.8,5l-1.6,2.1L76.7,6l1.6-2.1L80.8,5z M81.3,15.3c-1.6,0.4-1.9-0.6-2-1.2c-0.2-0.8-0.4-2-0.7-2.9
		C78,8.8,77.8,8.4,77.5,8l-0.2-0.2l3.4-1.2c0,0,0.1,1,0.9,4l0.3,1.4c0.4,1.6,0.6,2.1,1.2,2.3C83.1,14.3,82.8,14.9,81.3,15.3z"/>
</g>
<g>
	<path class="st0" d="M93.1,12.1c0,0-0.6,0.1-1.9,0.5c-1.3,0.4-1.9,0.6-1.9,0.6l0.1-0.3c0.1-0.5,0.2-0.6-0.7-3.6
		c-0.5-1.7-0.6-2-0.9-2.3c-0.2-0.2-0.4-0.3-1-0.2C86,7,86,7.6,86,7.6l0.6,2.2c0.9,3,1,3.1,1.4,3.5l0.2,0.2c0,0-0.6,0.1-1.9,0.5
		c-1.3,0.4-1.9,0.6-1.9,0.6l0.1-0.3c0.1-0.5,0.2-0.6-0.7-3.7L83.7,10c-0.7-2.4-0.9-2.8-1.3-3.1l-0.2-0.2l3.2-1.3l0.5,2
		c-0.1-1.6,0.5-2.4,1.9-2.8c1.1-0.3,1.9-0.2,2.4,0.4c0.5,0.5,0.7,1.1,1.2,2.8l0.2,0.6c0.9,3,1,3.1,1.4,3.5L93.1,12.1z"/>
</g>
<g>
	<path class="st0" d="M97.2,6.8c-0.8,0.3-1.3,0.4-1.3,0.4c0.2,0.6,0.9,1.8,2.8,1.1c1.8-0.7,2-1.6,2-1.7c0.5,1.1,0.1,2.7-2.3,3.6
		c-2.9,1.2-4.6-0.2-5.5-2.4c-1.5-3.7,0.7-5.1,2-5.6c0.8-0.3,3.5-1.5,4.5,1C99.8,4.2,100.1,5.7,97.2,6.8z M95.6,3.5
		c-1,0.4-0.7,1.3-0.2,2.5c0,0,0.2,0,0.8-0.2c0.8-0.3,1.1-0.7,0.7-1.6C96.6,3.7,96.3,3.2,95.6,3.5z"/>
</g>
<g>
	<path class="st0" d="M12.2,55.9c-0.2,0.8-0.6,1.6-1.2,2.7c-0.3,0.5-0.9,1.6-1.2,2.1C9.3,61.6,9.1,62,9.1,62l-0.2-0.2
		c-0.3-0.5-0.4-0.6-4.2-2.7c-3.7-2-3.8-2-4.4-2L0,57c0,0,0.3-0.4,0.7-1.2c0.2-0.4,0.8-1.6,1.1-2c0.5-0.9,0.9-1.7,1.5-2.3
		c0.8-1,1.8-1.5,3.1-0.8c1.7,0.9,1.5,2.2,1.2,3c0.7-1.2,1.9-1.6,3.3-0.9C12.3,53.7,12.4,55,12.2,55.9z M6.4,56
		c0.2-0.5,0.5-1.5-1-2.3c-1.2-0.7-1.8-0.2-2.3,0.7C3.1,54.6,3,54.8,3,54.8l6.4,3.5c0,0,0.1-0.1,0.3-0.5c0.3-0.5,0.4-0.8,0.3-1
		c0-0.3,0-0.8-1.1-1.4C7.6,54.6,7,55.3,6.4,56z"/>
</g>
</svg>
