<?xml version="1.0" encoding="utf-8"?>
<!-- Generator: Adobe Illustrator 23.0.2, SVG Export Plug-In . SVG Version: 6.00 Build 0)  -->
<svg version="1.1" id="Laag_1" xmlns="http://www.w3.org/2000/svg" xmlns:xlink="http://www.w3.org/1999/xlink" x="0px" y="0px"
	 width="617.9px" height="41.3px" viewBox="0 0 617.9 41.3" style="enable-background:new 0 0 617.9 41.3;" xml:space="preserve">
<style type="text/css">
	.st0{fill:#FFFFFF;}
</style>
<g>
	<rect x="180.4" y="9.1" class="st0" width="3.1" height="21.2"/>
	<path class="st0" d="M86.8,8.6c-6,0-9.2,3.8-9.2,9.6v3.4c0,5.7,3.9,9.3,9.4,9.3c4.4,0,8-2.7,8.7-6.5h-2.8c-0.7,2.4-2.7,4.1-5.9,4.1
		c-4.4,0-6.4-3-6.4-6.7V21h15.2v-3.1C95.8,12.6,92.9,8.6,86.8,8.6z M92.9,18.6H80.6V18c0-3.9,1.7-6.9,6.2-6.9c4.2,0,6.1,2.8,6.1,6.6
		V18.6z"/>
	<path class="st0" d="M125.6,12.3c-1.3-2.2-3.8-3.6-7.1-3.6c-5.4,0-8.8,4-8.8,9.5v3.2c0,5.3,3.3,9.5,8.9,9.5c3.5,0,6.3-1.9,7.2-3.8
		v3.3h3V0.1h-3.1V12.3z M125.6,21c0,4.1-2.3,7.3-6.5,7.3c-4.4,0-6.3-3.2-6.3-7.1v-3c0-3.9,2.2-7.1,6.2-7.1c3.5,0,6.5,2.7,6.5,7.1V21
		z"/>
	<path class="st0" d="M12.2,3.4c5.2,0,7.9,3.5,8.4,7.5h3.1C23.2,5.4,18.9,0.7,12.2,0.7c-8,0-12.1,5.4-12.1,12.7v4.9
		c0,7.2,4.1,12.7,12.1,12.7c6.7,0,11-4.7,11.5-10.2h-3.1c-0.5,4-3.2,7.5-8.4,7.5c-5.9,0-8.8-4.2-8.8-9.8v-5.1
		C3.4,7.6,6.2,3.4,12.2,3.4z"/>
	<path class="st0" d="M169.6,18.9l-6.5-1.5c-1.5-0.4-2.2-1.3-2.2-2.7c0-2.4,2.2-3.6,5.1-3.6c3.2,0,5.1,1.7,5.1,4.4v0.1h2.9v-0.2
		c0-3.9-3.4-6.6-7.9-6.6c-4.7,0-8,2.1-8,6.1c0,2.8,1.8,4.7,5,5.4l6.3,1.5c1.7,0.4,2.7,1.5,2.7,2.9c0,2.7-2.4,4-5.6,4
		c-3.5,0-6-1.7-6-4.4V24h-2.9v0.2c0,4.1,3.6,6.7,8.8,6.7c5,0,8.6-2.7,8.6-6.5C174.8,21.3,172.9,19.7,169.6,18.9z"/>
	<ellipse class="st0" cx="182" cy="3.5" rx="2" ry="1.9"/>
	<path class="st0" d="M64.1,8.6c-3.3,0-5.8,1.5-7.1,3.6V0.1h-3.1v30.3h3V27c0.9,1.9,3.7,3.8,7.2,3.8c5.6,0,8.9-4.2,8.9-9.5v-3.2
		C72.9,12.6,69.5,8.6,64.1,8.6z M69.8,21.2c0,3.9-1.9,7.1-6.3,7.1c-4.2,0-6.5-3.2-6.5-7.3v-2.7c0-4.4,3-7.1,6.5-7.1
		c4,0,6.2,3.2,6.2,7.1V21.2z"/>
	<path class="st0" d="M143.6,8.6c-6,0-9.2,3.8-9.2,9.6v3.4c0,5.7,3.9,9.3,9.4,9.3c4.4,0,8-2.7,8.7-6.5h-2.8
		c-0.7,2.4-2.7,4.1-5.9,4.1c-4.4,0-6.3-3-6.3-6.7V21h15.2v-3.1C152.6,12.6,149.7,8.6,143.6,8.6z M149.7,18.6h-12.3V18
		c0-3.9,1.7-6.9,6.2-6.9c4.1,0,6.1,2.8,6.1,6.6V18.6z"/>
	<path class="st0" d="M44,21.6c0,4.4-2.7,6.6-6.1,6.6c-3.7,0-5.2-2.5-5.2-6.1V9.1h-3.1v13.4c0,5.1,2.9,8.3,7.6,8.3
		c3.7,0,6.1-1.7,7.1-4.1v3.6h3V9.1H44V21.6z"/>
	<path class="st0" d="M204.2,11.5l0.1-0.4c-1.2-1.3-3.3-2.5-6.2-2.5c-5.6,0-8.7,3.9-8.7,8.7v3.5c0,4.5,3.1,8.3,8.1,8.7l-0.6,1.6
		c5.3,0.5,8.3-0.2,9.7,1.3c0.5,0.5,0.6,1.1,0.6,1.3c0,2.3-2.7,3.5-7.5,3.5c-2.1,0-3.4-0.3-4.3-0.8l0.5-1.3c-1.2-0.5-2.3-1.3-3-2.5
		h-3.1c0.7,2.2,2.7,3.6,4.9,4.5l-0.6,1.7c1.1,0.3,2.5,0.5,4.4,0.5c3.9,0,7.7-0.8,9.7-2.9c1-1,1.8-2.4,1.8-4c0-1.2-0.6-2.3-1.2-3
		c-1.7-1.7-5.7-1.6-8-1.6c-1,0-1.7,0-2.4-0.1l0.3-0.9c-4-0.1-6-2.4-6-6.3v-3c0-4.1,2.2-6.3,6.3-6.3c1.8,0,3.4,0.7,4.5,1.9l-0.5,1.4
		c0.5,0.9,0.9,2.1,0.9,3.8c0,3.4-1.9,4.7-3.6,4.7c-0.1,0-0.2-0.1-0.3-0.1l-0.6,1.8c0.2,0,0.3,0,0.6,0c5.4,0,7.9-4.2,7.9-7.2
		c0-0.9-0.2-2-0.7-2.8l1.7,0.2h1.6l0.2-2.9h-1.9C207,12.1,205.6,11.8,204.2,11.5z"/>
	<path class="st0" d="M336.4,10.6c-3.9,0-8.9,3.3-8.9,10.4c0,3.6,1,6.1,2.9,8c1.4,1.4,3.3,2.3,5.8,2.3c3.2,0,6.3-1.9,8-4.7l-0.9-0.9
		c-1.8,1.5-3.8,2.3-5.6,2.3c-4,0-7-4.3-7-8.5h13.4C344.3,14.4,341.3,10.6,336.4,10.6z M330.9,17.9c0-2.6,1.7-5.7,4.7-5.7
		c2.8,0,4.2,2.5,4.2,5.7H330.9z"/>
	<path class="st0" d="M366.3,27V10.7l-6.9,0.5v1.7h0.5c1.7,0,2.7,0.8,2.7,2.5v11.1c-0.8,0.6-2.8,2-4.8,2c-2.4,0-3.4-1.6-3.4-3.6
		V10.7l-6.9,0.5v1.7h0.7c1.6,0,2.5,0.9,2.5,2.5v10c0,3.2,1.5,6,5.4,6c2.5,0,5-2,6.5-3.3v3.3l6.3-1.1v-1.7
		C367.4,28.9,366.3,28.2,366.3,27z"/>
	<path class="st0" d="M402.7,26.4v-9.3c0-4.2-1.9-6.5-5.3-6.5c-2.6,0-5,1.9-6.9,3.7c-0.8-2.4-2.6-3.7-5-3.7c-2.6,0-5.3,2.2-6.6,3.3
		v-3.3h-1l-5.6,2v0.9l2.9,1.5v11.4c0,1.9-1,2.9-2.7,2.9h-0.4V31h9.8v-1.7h-0.4c-1.6,0-2.7-0.9-2.7-2.9V15.6c1.9-1.4,3.4-2,4.7-2
		c2.3,0,3.5,1.4,3.5,3.9v8.9c0,1.9-1.1,2.9-2.7,2.9H384V31h9.7v-1.7h-0.3c-1.7,0-2.7-0.9-2.7-2.9V15.6c1.9-1.3,3.3-1.9,4.7-1.9
		c2.7,0,3.5,1.9,3.5,4.6v8.3c0,1.9-1.1,2.9-2.7,2.9H396V31h9.7v-1.7h-0.3C403.7,29.3,402.7,28.4,402.7,26.4z"/>
	<path class="st0" d="M232.2,26.4v-9.6c0-4-2.1-6.1-5.3-6.1c-2.6,0-4.6,1.7-6.6,3.3v-3.3h-0.9l-5.7,2v0.9l2.9,1.5v11.3
		c0,1.9-1.1,2.9-2.7,2.9h-0.4V31h9.8v-1.7H223c-1.7,0-2.7-0.9-2.7-2.9V15.6c1.3-0.9,3.1-2,4.7-2c2.5,0,3.5,1.7,3.5,4v8.7
		c0,1.9-1.1,2.9-2.7,2.9h-0.3V31h9.7v-1.7h-0.3C233.3,29.3,232.2,28.4,232.2,26.4z"/>
	<path class="st0" d="M280.5,26.4v-9.3c0-4.2-1.9-6.5-5.3-6.5c-2.6,0-5,1.9-6.9,3.7c-0.8-2.4-2.6-3.7-5-3.7c-2.6,0-5.3,2.2-6.6,3.3
		v-3.3h-1l-5.6,2v0.9l2.9,1.5v11.4c0,1.9-1,2.9-2.7,2.9h-0.4V31h9.8v-1.7h-0.4c-1.6,0-2.7-0.9-2.7-2.9V15.6c1.9-1.4,3.4-2,4.7-2
		c2.3,0,3.5,1.4,3.5,3.9v8.9c0,1.9-1.1,2.9-2.7,2.9h-0.3V31h9.7v-1.7h-0.3c-1.7,0-2.7-0.9-2.7-2.9V15.6c1.9-1.3,3.3-1.9,4.7-1.9
		c2.7,0,3.5,1.9,3.5,4.6v8.3c0,1.9-1.1,2.9-2.7,2.9h-0.3V31h9.7v-1.7h-0.3C281.6,29.3,280.5,28.4,280.5,26.4z"/>
	<path class="st0" d="M304.4,27V10.7l-6.9,0.5v1.7h0.5c1.7,0,2.7,0.8,2.7,2.5v11.1c-0.8,0.6-2.8,2-4.8,2c-2.4,0-3.4-1.6-3.4-3.6
		V10.7l-6.9,0.5v1.7h0.7c1.6,0,2.5,0.9,2.5,2.5v10c0,3.2,1.5,6,5.4,6c2.5,0,5-2,6.5-3.3v3.3l6.3-1.1v-1.7
		C305.5,28.9,304.4,28.2,304.4,27z"/>
	<path class="st0" d="M313.6,15c0-1.3,0.9-2.8,3.1-2.8c2.3,0,3.9,1.4,4.6,5.1h1.4v-4.6c-1.7-1.3-3.7-2-5.7-2c-3.8,0-6.6,2.2-6.6,5.5
		c0,1,0.3,2.3,1.5,3.6c2,2,6.6,3.4,8.2,5c0.6,0.7,0.9,1.4,0.9,2.3c0,1.4-1.3,2.9-3.9,2.9c-2.3,0-4.3-1.5-4.7-5.3H311V30
		c2,0.9,4.3,1.4,6.4,1.4c4.4,0,6.7-2.6,6.7-5.7c0-1.5-0.6-2.9-1.5-3.9C319.4,18.7,313.6,18.4,313.6,15z"/>
</g>
</svg>
