<?xml version="1.0" encoding="utf-8"?>
<!-- Generator: Adobe Illustrator 24.3.0, SVG Export Plug-In . SVG Version: 6.00 Build 0)  -->
<svg version="1.1" id="Laag_1" xmlns="http://www.w3.org/2000/svg" xmlns:xlink="http://www.w3.org/1999/xlink" x="0px" y="0px"
	 width="334.5px" height="93.5px" viewBox="0 0 334.5 93.5" style="enable-background:new 0 0 334.5 93.5;" xml:space="preserve">
<style type="text/css">
	.st0{fill:#674C24;}
</style>
<g>
	<path class="st0" d="M1.3,34.1L2,29.7L2.1,4.3l8-2l0.5,0.5L9.9,7.2L9.7,32.4l-7.9,2.2L1.3,34.1z"/>
	<path class="st0" d="M33.6,17.1c0.2-2.2-0.7-4-2.3-5.1c-2.6,0-6.6,1.7-9.4,3.7l0.1,15.9l-7.7,2.7l-0.6-0.7
		C15,26,15.5,17.9,15.1,9.1l6.4-3l0.6,0.8l0.1,4.1l10.6-6.5l8,8.9C40.3,19.4,38.4,26,36.6,32l-8.9,1.8l-0.7-1
		C28.8,30.8,33.1,23.3,33.6,17.1z"/>
	<path class="st0" d="M56.6,34.1l4.6-9.7c3.5,1.6,7.8,3.4,11.3,3.4c2.4,0,3.6-0.9,3.6-2.6c0-4.6-7.8-11.5-15.1-13.7l-0.4-1L64,2.4
		l18.8-1.6l0.5,0.7l-2.1,8.7l-0.8,0.1c-2.7-2.5-6.2-3.6-10.5-3l-0.1,1.4c7.3,3.9,12,9.8,15.2,16.8l-2.9,8.1
		c-9.1,0.1-17.4,0.3-24.9,1.6L56.6,34.1z"/>
	<path class="st0" d="M87.4,19l7.8-13l11.3-0.9l6.2,12.8l-0.7,1.8l-16.3,0.8l-0.2,0.8l5.3,6.6l10.4-5.2l0.4,0.8l-3.2,8.4l-14.1,1.8
		L87.4,19z M95,16.3l11.1-0.8l0.1-0.5l-4.8-5.6l-0.4,0l-6,6.7L95,16.3z"/>
	<path class="st0" d="M116.4,33.4l-1.5-11.7c2.4-7,6.4-12.2,11.2-16.9l3.9,3.2h1.1l6.1-3.7l0.6,0.5l-0.4,27.4l-6.1,1.4l-0.8-0.3
		v-4.5l-1-0.2l-12.5,5L116.4,33.4z M124.2,26.5l6.6-2.4V13.4l-2-0.9c-3.2,2-5.2,5-6.6,8.2l-0.3,4.4L124.2,26.5z"/>
	<path class="st0" d="M142.4,8.1l7.6-2.3l1.1,0.9l-0.1,4.8l0.3-0.1l4.5-5.5l0.9-0.1l4.2,5.5c-0.9,3.1-2.2,6-4,8.7l-1.2-0.1
		c0.1-2.7-0.7-4.7-3.8-5.1l-1.6,0.7c-0.6,4.7-0.1,10.5,0.7,16.6l-8.6,1.4l-0.8-0.9C143.1,23,144.1,14.2,142.4,8.1z"/>
	<path class="st0" d="M161.6,21.2l5.5-13.5L183,6.6l0.5,1l-2.7,8.1l-1.2,0.1c-2-1.3-4.3-2.3-7.6-2.7l-2.8,7.6
		c1.1,2.9,2.4,5.4,4.1,7.5h0.8c4.7-2.4,7.3-5.8,9.5-9.2l1.2,0.3l-1.8,11.7l-15.6,2.8L161.6,21.2z"/>
	<path class="st0" d="M206.3,19.1c0.2-2.2-0.4-3.5-1.4-4.5c-2.5,0.2-6.1,2-8.8,4l0.2,13l-7.2,2.7l-0.7-0.7
		c0.7-7.7,1.2-20.5,0.8-29.3l8.7-2.2l0.5,0.8c-1.4,3-1.8,6.4-2,9.3l8.5-5.8h1.2l7.5,9.3c-0.8,6.2-2.1,11-4.1,16.8l-8.9,1.8l-0.7-1.1
		C201.9,31.3,205.8,25.3,206.3,19.1z"/>
	<path class="st0" d="M230.8,23l7.3-16.5l12.8-0.9l7,10.6v1.3l-6.2,14.8l-13.1,1.8L230.8,23z M242.5,27.8l2.9,0.5l6-11.4
		c-1.9-2.5-4.2-4.3-6.9-5.4c-2.6,2.6-5,5.8-7.2,9.5L242.5,27.8z"/>
	<path class="st0" d="M264,17.3l-2,0.2l-1.1-0.8l-0.2-5.4l3.8,0.6c-0.1-3.5-0.7-6.6-1.5-9.4l0.6-0.9c3.3,0.3,9.4,0,14.2-1.6l0.4,0.4
		l-0.2,5.5c-2.8-0.4-5.2-0.2-7.8,0.4l0,5.8c2.5-0.2,5-0.8,6.2-1.6l0.6,0.2l-0.8,6.9l-0.8,0.4c-2.1-0.7-4-0.9-5.4-0.9
		c0,4.8,0.3,9.3,0.9,14l-0.5,1.2l-8.7,0.8l-0.7-0.8C262.5,28.1,263.7,22.5,264,17.3z"/>
</g>
<g>
	<path class="st0" d="M74.9,87.1l4.6-9.7c3.5,1.6,7.8,3.4,11.3,3.4c2.4,0,3.6-0.9,3.6-2.6c0-4.6-7.8-11.5-15.1-13.7l-0.3-1l3.5-8.2
		l18.8-1.6l0.4,0.7l-2.1,8.7l-0.8,0.1c-2.7-2.5-6.2-3.6-10.5-3l-0.1,1.4c7.3,3.9,12,9.8,15.2,16.8l-2.9,8.1
		c-9.1,0.1-17.4,0.3-24.9,1.6L74.9,87.1z"/>
	<path class="st0" d="M125,72.1c0.2-2.2-0.4-3.5-1.4-4.5c-2.5,0.2-6.1,2-8.8,4l0.1,13l-7.2,2.7l-0.6-0.7c0.6-7.7,1.1-20.5,0.8-29.3
		l8.7-2.2l0.5,0.8c-1.4,3-1.8,6.4-2,9.3l8.5-5.8h1.2l7.5,9.3c-0.8,6.2-2.1,11-4.1,16.8l-8.9,1.8l-0.7-1.1
		C120.6,84.3,124.5,78.3,125,72.1z"/>
	<path class="st0" d="M136.2,86.4l-1.5-11.7c2.4-7,6.4-12.2,11.2-16.9l3.9,3.2h1.1l6-3.7l0.6,0.5l-0.5,27.4l-6,1.4l-0.8-0.3v-4.5
		l-1-0.2l-12.5,5L136.2,86.4z M143.9,79.5l6.5-2.4V66.4l-2-0.9c-3.2,2-5.2,5-6.6,8.2l-0.3,4.4L143.9,79.5z"/>
	<path class="st0" d="M162.2,61.1l7.6-2.3l1.1,0.9l-0.1,4.8l0.3-0.1l4.5-5.5l0.9-0.1l4.2,5.5c-0.9,3.1-2.2,6-4,8.7l-1.2-0.1
		c0.1-2.7-0.7-4.7-3.8-5.1l-1.6,0.7c-0.6,4.7-0.1,10.5,0.7,16.6l-8.6,1.4l-0.8-0.9C162.9,76,163.8,67.2,162.2,61.1z"/>
	<path class="st0" d="M182.7,86.4l-1.5-11.7c2.3-7,6.4-12.2,11.2-16.9l3.9,3.2h1.1l6.1-3.7l0.6,0.5l-0.4,27.4l-6.1,1.4l-0.8-0.3
		v-4.5l-1-0.2l-12.5,5L182.7,86.4z M190.5,79.5l6.6-2.4V66.4l-2-0.9c-3.2,2-5.2,5-6.6,8.2l-0.3,4.4L190.5,79.5z"/>
	<path class="st0" d="M213.8,86.6l0.3-2.9c-3.4-6.8-5.4-16.4-6.6-24.2l7.2-1.2l0.7,0.7c-0.2,6.1,0.1,12.3,3.1,19.1
		c2-4,3.8-8.6,5.2-14.3l-0.5-4l6.5-1.2c2,5.9,4.7,10.4,7.2,14.6c1.9-4.5,2-9,1.8-13.3l6.9-0.7c0.6,8.8-2.1,17.4-6.7,25.9l-6.7,1.6
		l-0.9-1c1-1.8,1.8-3.8,2.6-5.7l-5.7-9.6c-2,5.6-4.4,10.6-6.8,15.4l-7.2,1.1L213.8,86.6z"/>
	<path class="st0" d="M248.9,86.4l-1.5-11.7c2.3-7,6.4-12.2,11.2-16.9l3.9,3.2h1.1l6.1-3.7l0.6,0.5l-0.4,27.4l-6.1,1.4l-0.8-0.3
		v-4.5l-1-0.2l-12.5,5L248.9,86.4z M256.6,79.5l6.6-2.4V66.4l-2-0.9c-3.2,2-5.2,5-6.6,8.2l-0.3,4.4L256.6,79.5z"/>
	<path class="st0" d="M288.6,85.9l0.4-3.4l-0.8-0.3L275,85.6l-0.5-0.4l-0.7-8.9c1.7-8.5,5.2-13.2,11-16.9l4.8,2.4l-0.6-6.5l6.2-2.1
		l1,1c0.1,8.5-0.1,21.4-0.8,30.3l-6.3,1.5L288.6,85.9z M282.1,80l7.2-4.2v-8.7l-2.2-1.1c-4.6,2.5-6.9,6.6-6.9,12.1L282.1,80z"/>
	<path class="st0" d="M312.7,85.6c1.2-1.3,1.5-2.9,1.7-4.2l-1.5-0.2l-8.7,5.2h-0.8c-2.8-3-4-6.8-4.2-11.7c2-8.8,6.1-14,13.4-17
		l2.4,4h1l6.1-4.4l0.6,0.5c-0.9,9.8-1.5,19.5-1,29.4c-5.6,2.9-11.7,4.8-18.3,6.2l-0.7-1.6C306.8,90.2,310.2,88.3,312.7,85.6z
		 M307.8,79.7c2.6-1.3,5.1-3,7.6-5.3l-0.5-8l-1.5-0.9c-3.6,1-7.6,5.7-8.2,9.9C305.7,77.2,306.5,78.9,307.8,79.7z"/>
	<path class="st0" d="M326.4,63l7.4-2.9l0.7,0.5c-0.8,6.6-1,15.8-0.6,24.3l-7.2,2.1l-1-0.3C326.4,79.3,326.6,70.4,326.4,63z
		 M326.6,54.2l7.1-2.6l0.7,0.5l0.1,2.5l-6.9,3.4l-1-0.3V54.2z"/>
</g>
</svg>
