<?xml version="1.0" encoding="utf-8"?>
<!-- Generator: Adobe Illustrator 24.3.0, SVG Export Plug-In . SVG Version: 6.00 Build 0)  -->
<svg version="1.1" id="Laag_1" xmlns="http://www.w3.org/2000/svg" xmlns:xlink="http://www.w3.org/1999/xlink" x="0px" y="0px"
	 width="224px" height="21.1px" viewBox="0 0 224 21.1" style="enable-background:new 0 0 224 21.1;" xml:space="preserve">
<g>
	<path d="M8.3,20.8H0V0.3h6.6c5.3,0,7.7,2,7.7,5.5c0,1.8-1.1,3.7-2.8,4.1c1.9,0.4,3.6,2.3,3.6,5C15.1,17.9,13.3,20.8,8.3,20.8z
		 M6.7,4H4.6v4.5h2.1c2.4,0,3.1-1.1,3.1-2.4C9.8,5.1,8.9,4,6.7,4z M7.2,12.2H4.6v4.7h2.9c1.8,0,3.1-0.6,3.1-2.2
		C10.6,13,9.6,12.2,7.2,12.2z"/>
	<path d="M20,20.8V0.3h11.9v3.7h-7.3v4.4H31v3.7h-6.5v4.7h8v3.9H20z"/>
	<path d="M42.6,21c-2,0-4.6-0.4-7.2-2.4l2.5-3.4c1.2,1,3,2.1,4.9,2.1c1.4,0,2.4-0.6,2.4-2.1c0-1-0.8-1.7-1.5-2l-3.6-1.9
		C37.6,10,36,8.2,36,5.7C36,2.3,39,0,42.9,0c2.1,0,4.4,0.4,6.3,1.9l-2.3,3.3c-1.2-1-2.8-1.5-4-1.5c-1.4,0-2.3,0.6-2.3,1.8
		s0.7,1.7,1.8,2.2l2.8,1.4c2.4,1.2,4.7,2.9,4.7,5.8C49.8,18.4,47.5,21,42.6,21z"/>
	<path d="M61.1,4.1v16.7h-4.6V4.1h-4.2V0.3h13.1v3.7H61.1z"/>
	<path d="M70.1,20.8V0.3H82v3.7h-7.3v4.4h6.5v3.7h-6.5v4.7h8v3.9H70.1z"/>
	<path d="M88.4,20.8V0.3H93v16.6h7.3v3.9H88.4z"/>
	<path d="M117,4.1v16.7h-4.6V4.1h-4.2V0.3h13.1v3.7H117z"/>
	<path d="M125,20.8V0.3h4.6v20.4H125z"/>
	<path d="M144.6,21.1c-6.2,0-10.5-4.3-10.5-10.6c0-6,4.6-10.4,10.5-10.4c2.9,0,5.9,0.7,7.8,3.2l-2.9,2.9c-0.8-1.2-2.6-2.1-4.9-2.1
		c-3.2,0-6,2.5-6,6.4c0,3.7,2.3,6.6,6.2,6.6c1.1,0,3.7-0.2,5.2-3l3.1,2.3C150.8,20.3,147.4,21.1,144.6,21.1z"/>
	<path d="M169.5,20.8l-6.3-7.8l-0.7,0.8v6.9h-4.6V0.3h4.6v7.4l6.3-7.4h5.6l-8.1,9.2l9.2,11.2H169.5z"/>
	<path d="M179.2,20.8V0.3h11.9v3.7h-7.3v4.4h6.5v3.7h-6.5v4.7h8v3.9H179.2z"/>
	<path d="M203.3,4.1v16.7h-4.6V4.1h-4.2V0.3h13.1v3.7H203.3z"/>
	<path d="M216.8,21c-2,0-4.6-0.4-7.2-2.4l2.5-3.4c1.2,1,3,2.1,4.9,2.1c1.4,0,2.4-0.6,2.4-2.1c0-1-0.8-1.7-1.5-2l-3.6-1.9
		c-2.5-1.3-4.1-3.1-4.1-5.6c0-3.4,3-5.7,6.9-5.7c2.1,0,4.4,0.4,6.3,1.9l-2.3,3.3c-1.2-1-2.8-1.5-4-1.5c-1.4,0-2.3,0.6-2.3,1.8
		s0.7,1.7,1.8,2.2l2.8,1.4c2.4,1.2,4.7,2.9,4.7,5.8C224,18.4,221.6,21,216.8,21z"/>
</g>
</svg>
