<?xml version="1.0" encoding="utf-8"?>
<!-- Generator: Adobe Illustrator 24.0.0, SVG Export Plug-In . SVG Version: 6.00 Build 0)  -->
<svg version="1.1" id="Laag_1" xmlns="http://www.w3.org/2000/svg" xmlns:xlink="http://www.w3.org/1999/xlink" x="0px" y="0px"
	 width="154.8px" height="89.6px" viewBox="0 0 154.8 89.6" style="enable-background:new 0 0 154.8 89.6;" xml:space="preserve">
<style type="text/css">
	.st0{fill:#F2FF00;}
	.st1{fill:#5C394D;}
	.st2{opacity:0.4;fill:#FFFFFF;}
</style>
<g>
	<g>
		<path class="st0" d="M14.2,27.1c0,0,5.1-0.3,9.3,1c1.1,0.3,2.4,0,3.6,0c1.2,0,2.5-0.7,3.6,0.1c1.2-0.1,2.4-0.3,3.6,0
			c1.4-1,2.5-0.6,3.5,0.1c1.2-0.3,2.3-0.3,3.5-0.3c1,0.4,2.3-0.6,3.2,0.4c1.1-0.3,2,0.5,3.1-0.2c1,0.1,1.9,0.2,2.9,0.2
			c7.5,0.1,12.5,0.2,12.5,0.2l69.8,7.6c0,0,0.1,1.3,0.2,3.2c0.1,0.9,0.1,2.1,0.2,3.2c0,0.6,0,1.5,0.1,2.2c0.1,0.2,0.4-2,0.4-1
			c-0.4,2.8-0.5,4.2-0.2,3.4c0.3-0.5-0.1,2.4,0.3,0.8c-0.1,1.5-0.5,4-0.1,2.8c0.2-0.2,0.6-1.7,0.4,0c0,1.5,0.6-0.7,0.3,1.5
			c-0.4,2.7-0.1,1.9-0.1,1.7c-0.4,2,0.2-0.5-0.2,2.2c-0.4,2-0.4,2.2-0.3,2.1c-0.2,1.1-0.4,2.6-0.1,1.2c-0.2,1.3-0.2,1.9-0.2,2.1
			c0.1-0.5,0.2-4.2-0.1-2.5c0,0.3-0.1,1,0.2-0.5c-0.3,1.9,0,0.3-0.1,1.5c0.1-0.1-0.3,2.2-0.4,2.9c-0.1,1.2-0.3,2.4-0.4,3.6
			s-0.3,2.3-0.4,3.4c-0.5,4.3-0.9,7.6-0.9,7.6s-7.2-0.4-11.8-0.6c-1.5-0.1-3.2-0.1-5-0.2c-0.8,0.2-1.9,0.4-5.8-0.2
			c-2-0.3-1.9,0-3.1-0.1c-1.6-0.2-1,0.2-3.1-0.1c-1.8-0.2-1.5,0.1-3.1-0.1c0.4,0.4-2.4-0.2-3.1-0.1c-1.9-0.3,0.5,0.6-3-0.1
			c-1.9-0.3-2.4-0.2-3-0.1c-1.9-0.4,2.2,0.8-1.6-0.1c0,0.1,0.5,0.4-1.6-0.1c0.5-1.2-0.6-1.2-1.5-0.1c-0.1,1-0.1-1.3-1.5-0.1
			c-1.6,2.5-1.1-0.8-1.5,0.5c-1.2-0.1-1,0.1-1.4,0.6c0.4-0.9-0.1-1.3,0-1.1c-0.7,0-1.3,0.4-1.2,1c0.3-0.8-0.4-0.8-0.9-1.2
			c-1.3,1-1.5,0.4-1.9,0c0-1.4-0.1-2.4-0.5-1.4c-0.2-0.1-0.5,0.2-0.9,1.2c-0.6-1-0.9-1.6-1.2,0c0.2-1.1-0.7,0.2-1.7-0.2
			c-0.4,1.3-0.2-0.3-0.6,1c-0.2,0.3-0.3,0-0.1-2.2c-0.7,1.7-0.8,0.8-1.3,1.2c-0.8,2.2-0.7-0.5-1.1-0.7c-0.5,0.2-0.9,0.1-1.3,0.1
			c-0.6,0.7-1.2,1.6-1.3-0.3c-0.7,1.2-0.9-0.3-1.4-0.3c-0.2-1.7-0.8-1.2-1.2-1.3c-0.5-0.1-1.1,0.3-1.7,1c-1-0.1-2-0.3-2.9-0.4
			c-1-0.1-1.9-0.3-2.8-0.4c-3.5-0.5-6.1-0.9-6.1-0.9L13.2,72c0,0-0.4-3.4-0.3-4.4c0-0.5,0.3,0.4,0.5-1.8c0.1-1.4-0.2-1,0.1-3.2
			c0.1-1,0.1-1.6,0.1-2.2c0.4-2.7,0.1-1.4,0-1.6c-0.5,1.8-0.1,3.5-0.3,3.5c0.2-1.3,0.1-1.6,0.1-1.9c0-0.7-0.2,0,0-1.7
			c-0.1,0.3,0.6-3.4,0.4-2.8c-0.7,3.4,0.3-1.8-0.3,0.5c0.7-4.3,0.3-2.6,0-1.7c-0.2,0.4,0-1.1,0.2-2.5c0.5-3.1-0.2,0.3,0.3-2.2
			c0.2-1.2,0.8-4.5-0.2,0.2c-0.6,2.6,0.1-1.7,0.1-2c0.2-1.6-0.1-0.6,0.1-1.9c0.8-6-0.4-9,0-11.4c-0.3,1.2,0-0.8,0.1-1.5
			c-0.4,1.2-0.3,0.3,0-2c0.3-2.1,0.2-2,0.2-2.6C14.2,27.7,14.2,27.1,14.2,27.1z"/>
	</g>
</g>
<g>
	<g>
		<path class="st1" d="M42.5,61l-3.6-0.3l-0.3-2l0,0c-1.5,1.3-3.5,1.8-6.1,1.7c-3.1-0.2-5.8-1.7-7.6-4c-1.8-2.4-2.7-5.5-2.5-8.8
			c0.3-3.3,1.6-6.3,3.8-8.3c2.2-2,5.2-3,8.4-2.8c4,0.3,6.3,2.4,7.5,4.1c1.3,1.8,1.7,3.6,1.7,3.6l0.1,0.4l-5.6-0.4L38,43.9
			c0-0.1-0.8-2.4-4-2.7c-3.6-0.3-6.4,2.5-6.7,6.7c-0.3,4.3,2,7.3,5.8,7.6c2.2,0.2,4-0.6,5-2l0.1-1.6l-4.9-0.4l0.3-4.5l9.8,0.8
			L42.5,61z M39.4,60.1l2.5,0.2l0.9-11.9l-8.6-0.7L34,51l4.9,0.4l-0.2,2.4l0,0.1c-1,1.7-3.1,2.6-5.6,2.4c-4.2-0.3-6.8-3.7-6.4-8.3
			c0.2-2.2,1-4.1,2.3-5.5c1.3-1.3,3.1-2,5.1-1.8c3.1,0.2,4.2,2.3,4.5,2.9l4.3,0.3c-0.2-0.6-0.6-1.8-1.5-3c-1.7-2.3-4-3.6-7-3.8
			c-3-0.2-5.8,0.7-7.9,2.6c-2.1,1.9-3.3,4.7-3.6,7.9c-0.2,3.2,0.6,6.2,2.3,8.4c1.7,2.2,4.3,3.6,7.2,3.8c2.5,0.2,4.4-0.3,5.7-1.6
			l0.1-0.1l0.8,0.1L39.4,60.1z"/>
	</g>
	<g>
		<path class="st1" d="M62.8,62.6l-16.5-1.3l1.8-23.7l5.2,0.4L52,56.8l11.2,0.9L62.8,62.6z M47.1,60.7l15.2,1.2l0.3-3.7l-11.2-0.9
			l1.4-18.7l-4-0.3L47.1,60.7z"/>
	</g>
	<g>
		<path class="st1" d="M86.1,64.3l-5.4-0.4l-1.2-5.2l-8.2-0.6l-2,4.9l-5.4-0.4l9.8-23.1l6.2,0.5L86.1,64.3z M81.2,63.3l4.1,0.3
			l-5.8-23l-5.3-0.4l-9.3,21.8l4.1,0.3l2-4.9l9.1,0.7L81.2,63.3z M79.1,54.7l-6.9-0.5l3.5-8.4l1.3,0.1L79.1,54.7z M73.2,53.6
			l5.1,0.4l-1.8-7.5l-0.3,0L73.2,53.6z"/>
	</g>
	<g>
		<path class="st1" d="M96.6,65.3c-0.3,0-0.6,0-0.8,0l0,0c-5.1-0.4-8.6-4-8.2-8.6l0-0.3l4.9,0.4l0,0.3c0.2,3,2.8,3.5,3.6,3.5
			c0.3,0,1.2,0.1,2-0.3c0.7-0.3,1.2-0.9,1.2-1.7c0.1-1.7-1.4-2.5-3.3-3.4c-0.1-0.1-0.3-0.1-0.5-0.2c-3-1.4-7-3.4-6.7-7.7
			c0.1-2,1.1-3.6,2.7-4.7c1.5-1,3.5-1.5,5.6-1.3c2.9,0.2,4.6,1.5,5.6,2.5c1.2,1.3,1.8,2.9,1.7,4.5l0,0.3l-4.8-0.4l0-0.3
			c-0.1-1.1-1.3-1.9-2.8-2.1c-1.3-0.1-2.6,0.4-2.7,1.7c-0.1,1.1,0.9,1.7,3,2.9l0.1,0.1c0.3,0.2,0.6,0.3,1,0.5
			c2.6,1.3,6.5,3.2,6.1,7.9C104,63.4,100.3,65.3,96.6,65.3z M95.8,64.6c3.7,0.3,7.5-1.4,7.9-5.7c0.3-4.3-3.2-6-5.7-7.3
			c-0.4-0.2-0.7-0.4-1-0.5L96.8,51c-2.2-1.2-3.5-1.9-3.3-3.5c0.1-1.5,1.5-2.5,3.4-2.3c1.8,0.1,3.1,1.1,3.4,2.4l3.6,0.3
			c0-1.3-0.5-2.7-1.5-3.7c-0.9-0.9-2.5-2.1-5.1-2.3c-2-0.2-3.8,0.3-5.2,1.2c-1.4,1-2.3,2.4-2.4,4.2c-0.3,3.9,3.4,5.7,6.3,7.1
			c0.2,0.1,0.3,0.1,0.5,0.2c1.7,0.8,3.8,1.8,3.7,4.1c-0.1,1-0.6,1.8-1.6,2.2c-0.9,0.4-1.9,0.4-2.3,0.3c-1.9-0.1-3.9-1.2-4.2-3.9
			L88.2,57C88,61.1,91.2,64.3,95.8,64.6L95.8,64.6z"/>
	</g>
	<g>
		<path class="st1" d="M116,66.8c-0.3,0-0.6,0-0.9,0l0,0c-5.1-0.4-8.6-4-8.2-8.6l0-0.3l4.9,0.4l0,0.3c0.2,3,2.8,3.5,3.6,3.5
			c0.3,0,1.2,0.1,2-0.3c0.7-0.3,1.2-0.9,1.2-1.7c0.1-1.7-1.4-2.5-3.3-3.4c-0.1-0.1-0.3-0.1-0.5-0.2c-3-1.4-7-3.4-6.7-7.7
			c0.1-2,1.1-3.6,2.7-4.7c1.5-1,3.5-1.5,5.6-1.3c2.9,0.2,4.6,1.5,5.6,2.5c1.2,1.3,1.8,2.9,1.7,4.5l0,0.3l-4.8-0.4l0-0.3
			c-0.1-1.1-1.3-1.9-2.8-2.1c-0.7-0.1-1.4,0.1-1.9,0.4c-0.5,0.3-0.8,0.8-0.8,1.3c-0.1,1.1,0.9,1.7,3,2.9l0.1,0.1
			c0.3,0.2,0.6,0.3,1,0.5c2.6,1.3,6.5,3.2,6.1,7.9c-0.2,2.1-1.1,3.9-2.8,5C119.5,66.3,117.8,66.8,116,66.8z M115.2,66.1
			c2.1,0.2,3.9-0.3,5.3-1.2c1.5-1,2.4-2.6,2.5-4.5c0.3-4.3-3.2-6-5.7-7.3c-0.4-0.2-0.7-0.4-1-0.5l-0.1-0.1c-2.2-1.2-3.5-1.9-3.3-3.5
			c0.1-0.8,0.5-1.4,1.1-1.8c0.6-0.4,1.4-0.5,2.3-0.5c1.8,0.1,3.1,1.1,3.4,2.4l3.6,0.3c0-1.3-0.5-2.7-1.5-3.7
			c-0.9-0.9-2.5-2.1-5.1-2.3c-2-0.2-3.8,0.3-5.2,1.2c-1.4,1-2.3,2.4-2.4,4.2c-0.3,3.9,3.4,5.7,6.3,7.1c0.2,0.1,0.3,0.1,0.5,0.2
			c1.7,0.8,3.8,1.8,3.7,4.1c-0.1,1-0.6,1.8-1.6,2.2c-0.9,0.4-1.9,0.4-2.3,0.3c-1.9-0.1-3.9-1.2-4.2-3.9l-3.7-0.3
			C107.4,62.6,110.5,65.7,115.2,66.1L115.2,66.1z"/>
	</g>
</g>
<path class="st2" d="M10.1,47.9l-0.2-1.5l-1.4-0.4l-0.2-1.5l-1.4-0.4l-0.2-1.5L5,42.4l-0.2-1.5l-1.4-0.4l-0.2-1.5l-1.4-0.4l-0.2-1.5
	L0,36.8L39.3,0c6.6,2.8,3.2,4.6,10.4,11L10.1,47.9z"/>
<path class="st2" d="M101.4,89.6l0.6-1.4l-1-1.1l0.6-1.4l-1-1.1l0.6-1.4l-1-1.1l0.6-1.4l-1-1.1l0.6-1.4l-1-1.1l0.6-1.4l-1-1.1
	l53-9.3c4,6,0.1,5.6,2.7,14.9L101.4,89.6z"/>
</svg>
