<?xml version="1.0" encoding="utf-8"?>
<!-- Generator: Adobe Illustrator 23.0.2, SVG Export Plug-In . SVG Version: 6.00 Build 0)  -->
<svg version="1.1" id="Layer_1" xmlns="http://www.w3.org/2000/svg" xmlns:xlink="http://www.w3.org/1999/xlink" x="0px" y="0px"
	 width="204.2px" height="15.4px" viewBox="0 0 204.2 15.4" style="enable-background:new 0 0 204.2 15.4;" xml:space="preserve">
<style type="text/css">
	.st0{fill:#FFFFFF;}
</style>
<g>
	<path class="st0" d="M9.7,2H6.3L6.1,2.2v9.6L6,11.9h-2l-0.2-0.2V2.2L3.6,2H0.2L0,1.9V0.2L0.2,0h9.6l0.2,0.2v1.7L9.7,2z"/>
	<path class="st0" d="M16.9,8.4l-0.2,0.2h-5.3l-0.2,0.2c0,0.3,0.3,1.4,1.7,1.4c0.5,0,1-0.2,1.2-0.5l0.2-0.2h2l0.2,0.2
		c-0.2,1-1,2.6-3.6,2.6c-2.9,0-4.3-2-4.3-4.4c0-2.4,1.4-4.4,4.1-4.4s4.1,2,4.1,4.4V8.4z M14.3,6.7c0-0.2-0.2-1.4-1.5-1.4
		s-1.5,1.2-1.5,1.4l0.2,0.2h2.7L14.3,6.7z"/>
	<path class="st0" d="M25.3,11.9h-1l-0.3-0.2L21.7,9h-0.2l-2.2,2.7l-0.3,0.2h-1l-0.2-0.2v-1.7l2-2.4V7.5l-1.9-2.2V3.6l0.2-0.2h1
		l0.3,0.2l2,2.6h0.2l2-2.6l0.3-0.2h1l0.2,0.2v1.7l-1.9,2.2v0.2l2,2.4v1.7L25.3,11.9z"/>
	<path class="st0" d="M30.2,9.4c0,0.3,0.2,0.5,0.5,0.5h1.5l0.2,0.2v1.7l-0.2,0.2h-1.5c-1.5,0-2.9-0.7-2.9-2.6V5.6l-0.2-0.2h-1.2
		l-0.2-0.2V3.6l0.2-0.2h1.2l0.2-0.2V1.7L28,1.5h2l0.2,0.2v1.5l0.2,0.2h1.9l0.2,0.2v1.7l-0.2,0.2h-1.9l-0.2,0.2V9.4z"/>
	<path class="st0" d="M36.3,2h-2l-0.2-0.2V0.2L34.3,0h2l0.2,0.2v1.7L36.3,2z M36.3,11.9h-2l-0.2-0.2V3.6l0.2-0.2h2l0.2,0.2v8.2
		L36.3,11.9z"/>
	<path class="st0" d="M46.2,8.4l-0.2,0.2h-5.3l-0.2,0.2c0,0.3,0.3,1.4,1.7,1.4c0.5,0,1-0.2,1.2-0.5l0.2-0.2h2l0.2,0.2
		c-0.2,1-1,2.6-3.6,2.6c-2.9,0-4.3-2-4.3-4.4c0-2.4,1.4-4.4,4.1-4.4s4.1,2,4.1,4.4V8.4z M43.7,6.7c0-0.2-0.2-1.4-1.5-1.4
		s-1.5,1.2-1.5,1.4l0.2,0.2h2.7L43.7,6.7z"/>
	<path class="st0" d="M50,11.9h-2l-0.2-0.2V0.2L47.9,0h2l0.2,0.2v11.6L50,11.9z"/>
	<path class="st0" d="M61.2,11.8l-0.2,0.2h-1.9L59,11.8l-2.9-6.5V3.6l0.2-0.2h1.5L58,3.6l2,5.3h0.2l2-5.3l0.2-0.2H64l0.2,0.2v1.7
		L61.2,11.8z"/>
	<path class="st0" d="M72.3,11.9h-1.9l-0.2-0.2l-0.2-0.3h-0.2c0,0-0.7,0.7-1.9,0.7c-1.9,0-3.1-1-3.1-2.7c0-2.6,2.4-2.9,3.8-2.9
		c0.7,0,1.2,0.2,1.2,0.2l0.2-0.2V6.3c0-0.9-0.2-1-1.2-1c-0.5,0-1,0-1.2,0.5L67.6,6h-2l-0.2-0.2c0-1,0.9-2.6,3.6-2.6s3.6,1.4,3.6,3.9
		v4.6L72.3,11.9z M69.9,8.4c0,0-0.3-0.2-1-0.2c-1,0-1.5,0.3-1.5,1c0,0.5,0.3,0.9,1.2,0.9s1.5-0.5,1.5-1.2V8.5L69.9,8.4z"/>
	<path class="st0" d="M82.2,11.9h-2L80,11.8V6.8c0-0.9-0.3-1.5-1.4-1.5c-1.2,0-1.9,0.7-1.9,2.2v4.3l-0.2,0.2h-2l-0.2-0.2V3.6
		l0.2-0.2h1.9l0.2,0.2l0.2,0.5h0.2c0.3-0.3,1-0.9,2.2-0.9c2,0,3.2,1.4,3.2,3.4v5.1L82.2,11.9z"/>
	<path class="st0" d="M91.9,9.4c0,0.3,0.2,0.5,0.5,0.5H94l0.2,0.2v1.7L94,11.9h-1.5c-1.5,0-2.9-0.7-2.9-2.6V5.6l-0.2-0.2h-1.2
		L88,5.3V3.6l0.2-0.2h1.2l0.2-0.2V1.7l0.2-0.2h2l0.2,0.2v1.5l0.2,0.2H94l0.2,0.2v1.7L94,5.5h-1.9l-0.2,0.2V9.4z"/>
	<path class="st0" d="M99.3,12.1c-2.6,0-4.3-1.7-4.3-4.4s1.7-4.4,4.3-4.4c2.6,0,4.3,1.7,4.3,4.4S101.8,12.1,99.3,12.1z M99.3,5.3
		c-1.2,0-1.9,0.9-1.9,2.4s0.7,2.4,1.9,2.4c1.2,0,1.9-0.9,1.9-2.4S100.5,5.3,99.3,5.3z"/>
	<path class="st0" d="M109.9,12.1c-1.5,0-2.2-0.9-2.2-0.9h-0.2v3.9l-0.2,0.2h-2l-0.2-0.2V3.6l0.2-0.2h1.9l0.2,0.2l0.2,0.5h0.2
		c0,0,0.7-0.9,2.2-0.9c2,0,3.8,1.7,3.8,4.4S111.9,12.1,109.9,12.1z M109.4,5.3c-1.4,0-1.9,1-1.9,2.4c0,1.4,0.5,2.4,1.9,2.4
		s1.9-1,1.9-2.4C111.2,6.3,110.7,5.3,109.4,5.3z"/>
	<path class="st0" d="M118.9,12.1c-2.6,0-4.3-1.7-4.3-4.4s1.7-4.4,4.3-4.4c2.6,0,4.3,1.7,4.3,4.4S121.5,12.1,118.9,12.1z M118.9,5.3
		c-1.2,0-1.9,0.9-1.9,2.4s0.7,2.4,1.9,2.4c1.2,0,1.9-0.9,1.9-2.4S120.1,5.3,118.9,5.3z"/>
	<path class="st0" d="M132.5,11.9h-2l-0.2-0.2V6.8c0-0.9-0.3-1.5-1.4-1.5c-1.2,0-1.9,0.7-1.9,2.2v4.3l-0.2,0.2h-2l-0.2-0.2V3.6
		l0.2-0.2h1.9l0.2,0.2l0.2,0.5h0.2c0.3-0.3,1-0.9,2.2-0.9c2,0,3.2,1.4,3.2,3.4v5.1L132.5,11.9z"/>
	<path class="st0" d="M137.7,9.4c0,0.3,0.2,0.5,0.5,0.5h1.5l0.2,0.2v1.7l-0.2,0.2h-1.5c-1.5,0-2.9-0.7-2.9-2.6V5.6l-0.2-0.2h-1.2
		l-0.2-0.2V3.6l0.2-0.2h1.2l0.2-0.2V1.7l0.2-0.2h2l0.2,0.2v1.5l0.2,0.2h1.9l0.2,0.2v1.7l-0.2,0.2h-1.9l-0.2,0.2V9.4z"/>
	<path class="st0" d="M151.3,11.8l-0.2,0.2h-2.2l-0.2-0.2l-1.4-5.1h-0.2l-1.4,5.1l-0.2,0.2h-2.2l-0.2-0.2l-2-6.5V3.6l0.2-0.2h1.5
		l0.2,0.2l1.4,4.8h0.2l1.4-4.8l0.2-0.2h2.2l0.2,0.2l1.4,4.8h0.2l1.4-4.8l0.2-0.2h1.5l0.2,0.2v1.7L151.3,11.8z"/>
	<path class="st0" d="M162.6,8.4l-0.2,0.2h-5.3l-0.2,0.2c0,0.3,0.3,1.4,1.7,1.4c0.5,0,1-0.2,1.2-0.5l0.2-0.2h2l0.2,0.2
		c-0.2,1-1,2.6-3.6,2.6c-2.9,0-4.3-2-4.3-4.4c0-2.4,1.4-4.4,4.1-4.4s4.1,2,4.1,4.4V8.4z M160,6.7c0-0.2-0.2-1.4-1.5-1.4
		s-1.5,1.2-1.5,1.4l0.2,0.2h2.7L160,6.7z"/>
	<path class="st0" d="M169.6,5.5h-1.2c-1.4,0-1.9,0.7-1.9,2.2v4.1l-0.2,0.2h-2l-0.2-0.2V3.6l0.2-0.2h1.9l0.2,0.2l0.2,0.5h0.2
		c0,0,0.3-0.7,1.9-0.7h1l0.2,0.2v1.7L169.6,5.5z"/>
	<path class="st0" d="M175.9,12.1c-1.5,0-2.2-0.9-2.2-0.9h-0.2v3.9l-0.2,0.2h-2l-0.2-0.2V3.6l0.2-0.2h1.9l0.2,0.2l0.2,0.5h0.2
		c0,0,0.7-0.9,2.2-0.9c2,0,3.8,1.7,3.8,4.4S177.9,12.1,175.9,12.1z M175.4,5.3c-1.4,0-1.9,1-1.9,2.4c0,1.4,0.5,2.4,1.9,2.4
		s1.9-1,1.9-2.4C177.2,6.3,176.7,5.3,175.4,5.3z"/>
	<path class="st0" d="M188.8,8.4l-0.2,0.2h-5.3l-0.2,0.2c0,0.3,0.3,1.4,1.7,1.4c0.5,0,1-0.2,1.2-0.5l0.2-0.2h2l0.2,0.2
		c-0.2,1-1,2.6-3.6,2.6c-2.9,0-4.3-2-4.3-4.4c0-2.4,1.4-4.4,4.1-4.4s4.1,2,4.1,4.4V8.4z M186.3,6.7c0-0.2-0.2-1.4-1.5-1.4
		s-1.5,1.2-1.5,1.4l0.2,0.2h2.7L186.3,6.7z"/>
	<path class="st0" d="M195.8,5.5h-1.2c-1.4,0-1.9,0.7-1.9,2.2v4.1l-0.2,0.2h-2l-0.2-0.2V3.6l0.2-0.2h1.9l0.2,0.2l0.2,0.5h0.2
		c0,0,0.3-0.7,1.9-0.7h1l0.2,0.2v1.7L195.8,5.5z"/>
	<path class="st0" d="M200.5,12.1c-2.4,0-3.8-1.2-3.8-2.9l0.2-0.2h2l0.2,0.2c0,0.7,0.5,0.9,1.4,0.9c0.9,0,1.4-0.2,1.4-0.7
		c0-0.7-0.7-0.7-1.7-0.9c-1-0.2-3.2-0.7-3.2-2.7c0-1.4,1-2.6,3.6-2.6c2,0,3.6,0.9,3.6,2.6L203.9,6h-2l-0.2-0.2
		c0-0.3-0.3-0.5-1.2-0.5c-0.9,0-1.2,0.2-1.2,0.7c0,0.7,1,0.7,2,0.9c1,0.2,2.9,0.5,2.9,2.6C204.2,10.7,203.2,12.1,200.5,12.1z"/>
</g>
</svg>
