<?xml version="1.0" encoding="utf-8"?>
<!-- Generator: Adobe Illustrator 24.0.0, SVG Export Plug-In . SVG Version: 6.00 Build 0)  -->
<svg version="1.1" id="Laag_1" xmlns="http://www.w3.org/2000/svg" xmlns:xlink="http://www.w3.org/1999/xlink" x="0px" y="0px"
	 width="124.4px" height="26.7px" viewBox="0 0 124.4 26.7" style="enable-background:new 0 0 124.4 26.7;" xml:space="preserve">
<style type="text/css">
	.st0{fill:#FFFFFF;}
</style>
<g>
	<path class="st0" d="M9.3,10.4c0,0.7-0.3,1.3-0.7,1.6c0.7,0.3,1.2,1,1.2,1.9c0,1.5-1.1,2.5-2.8,2.5h-3V8h2.7
		C8.3,8,9.3,8.9,9.3,10.4z M5.5,11.4h1c0.7,0,1.1-0.4,1.1-0.9c0-0.7-0.4-1-1.1-1h-1V11.4z M5.5,14.9h1.4c0.7,0,1.2-0.3,1.2-1
		c0-0.6-0.4-1-1.2-1H5.5V14.9z"/>
	<path class="st0" d="M16.4,13.8h-4.2c0,0.8,0.6,1.4,1.5,1.4c0.6,0,1.1-0.2,1.2-0.7h1.5c-0.4,1.3-1.3,2-2.8,2c-1.8,0-3-1.2-3-3.2
		c0-1.8,1.2-3.2,3-3.2c1.6,0,2.8,1,2.8,3.2V13.8z M14.9,12.8c0-0.8-0.5-1.3-1.3-1.3c-0.8,0-1.3,0.5-1.4,1.3H14.9z"/>
	<path class="st0" d="M21,10.3h1.8L21,12.9l2.1,3.5h-1.8l-1.4-2.3l-0.8,1v1.4h-1.5V7.6h1.5v5.1L21,10.3z"/>
	<path class="st0" d="M25.8,8.5c0,0.5-0.4,0.9-0.9,0.9c-0.5,0-0.9-0.4-0.9-0.9c0-0.5,0.4-0.9,0.9-0.9C25.4,7.6,25.8,8,25.8,8.5z
		 M24.1,16.4v-6.1h1.5v6.1H24.1z"/>
	<path class="st0" d="M26.8,19.1c-0.4,0-0.7,0-1-0.1v-1.4c0.2,0.1,0.4,0.1,0.7,0.1c0.6,0,0.8-0.3,0.8-1.1v-6.3h1.5v6.4
		C28.8,18.4,28,19.1,26.8,19.1z M29,8.5c0,0.5-0.4,0.9-0.9,0.9c-0.5,0-0.9-0.4-0.9-0.9c0-0.5,0.4-0.9,0.9-0.9C28.6,7.6,29,8,29,8.5z
		"/>
	<path class="st0" d="M33.8,10.3h1.8l-1.8,2.6l2.1,3.5h-1.8l-1.4-2.3L32,15v1.4h-1.5V7.6H32v5.1L33.8,10.3z"/>
	<path class="st0" d="M42.3,10.2c1.3,0,2,0.9,2,2.3v3.9h-1.5v-3.6c0-0.7-0.3-1.1-0.9-1.1c-0.6,0-1.1,0.5-1.1,1.5v3.2h-1.5V7.6h1.5
		V11C41,10.5,41.5,10.2,42.3,10.2z"/>
	<path class="st0" d="M51.2,13.8H47c0,0.8,0.6,1.4,1.5,1.4c0.6,0,1.1-0.2,1.2-0.7h1.5c-0.4,1.3-1.3,2-2.8,2c-1.8,0-3-1.2-3-3.2
		c0-1.8,1.2-3.2,3-3.2c1.6,0,2.8,1,2.8,3.2V13.8z M49.7,12.8c0-0.8-0.5-1.3-1.3-1.3c-0.8,0-1.3,0.5-1.4,1.3H49.7z"/>
	<path class="st0" d="M55.8,10.3v1.4h-1.4l0,2.5c0,0.6,0.2,0.9,0.8,0.9c0.3,0,0.5,0,0.6-0.1v1.4c-0.2,0.1-0.5,0.1-1,0.1
		c-1.3,0-2-0.5-2-1.9l0-2.8h-1v-1.4h1l0-1.5h1.6l0,1.5H55.8z"/>
	<path class="st0" d="M65.6,13.3c0,1.8-1.2,3.2-2.8,3.2c-0.9,0-1.5-0.4-1.8-0.8V19h-1.5v-8.7h1.3l0.1,0.8c0.3-0.5,0.9-0.9,1.9-0.9
		C64.4,10.2,65.6,11.6,65.6,13.3z M60.9,13.3L60.9,13.3c0,1.2,0.8,1.7,1.5,1.7c0.9,0,1.5-0.7,1.5-1.7c0-1-0.7-1.7-1.5-1.7
		C61.7,11.6,60.9,12.2,60.9,13.3z"/>
	<path class="st0" d="M68.9,12.2c-0.3,0.2-0.5,0.6-0.5,1.1v3.1h-1.6v-6.1h1.3l0.1,1c0.2-0.5,0.7-1,1.8-1v1.5
		C69.6,11.8,69.2,11.9,68.9,12.2z"/>
	<path class="st0" d="M77.1,13.3c0,1.9-1.4,3.2-3.2,3.2c-1.8,0-3.2-1.3-3.2-3.2s1.4-3.2,3.2-3.2C75.7,10.2,77.1,11.5,77.1,13.3z
		 M72.3,13.3c0,1,0.6,1.8,1.6,1.8s1.6-0.8,1.6-1.8c0-1-0.6-1.8-1.6-1.8S72.3,12.3,72.3,13.3z"/>
	<path class="st0" d="M83.7,11.6h-0.9c0.1,0.2,0.1,0.5,0.1,0.7c0,1.2-1,2.1-2.4,2.1c-0.4,0-0.7-0.1-1-0.2c-0.1,0.1-0.2,0.3-0.2,0.4
		c0,0.3,0.2,0.5,0.6,0.5h1.4c1.2,0,2,0.6,2,1.8c0,1.4-1.1,2.1-2.7,2.1c-1.8,0-2.8-0.7-2.8-1.9c0-0.5,0.3-0.9,0.6-1.1
		c-0.4-0.3-0.7-0.7-0.7-1.3s0.3-1,0.6-1.3c-0.3-0.3-0.4-0.8-0.4-1.2c0-1.3,1-2.2,2.4-2.2c0.3,0,0.6,0,0.9,0.1h2.3V11.6z M79.5,17.1
		c0,0.6,0.5,0.8,1.2,0.8c0.7,0,1.2-0.3,1.2-0.9c0-0.5-0.3-0.7-0.9-0.7h-0.9C79.7,16.5,79.5,16.7,79.5,17.1z M81.4,12.3
		c0-0.6-0.4-1-0.9-1c-0.6,0-0.9,0.4-0.9,1c0,0.6,0.4,1,0.9,1C81,13.3,81.4,12.9,81.4,12.3z"/>
	<path class="st0" d="M86.6,12.2c-0.3,0.2-0.5,0.6-0.5,1.1v3.1h-1.6v-6.1h1.3l0.1,1c0.2-0.5,0.7-1,1.8-1v1.5
		C87.3,11.8,86.9,11.9,86.6,12.2z"/>
	<path class="st0" d="M93.4,12.4v4h-1.3L92,15.6c-0.3,0.5-0.9,0.9-1.7,0.9c-1.1,0-1.8-0.7-1.8-1.8c0-1.2,0.8-1.6,1.9-1.8l1.6-0.3
		v-0.2c0-0.6-0.3-0.9-0.9-0.9c-0.5,0-0.9,0.3-0.9,0.8h-1.5c0.1-1.2,1-2.1,2.4-2.1C92.5,10.2,93.4,10.9,93.4,12.4z M90,14.6
		c0,0.4,0.3,0.6,0.7,0.6c0.4,0,0.8-0.2,1-0.6c0.1-0.2,0.2-0.5,0.2-0.8v-0.2L90.7,14C90.3,14.1,90,14.2,90,14.6z"/>
	<path class="st0" d="M103.4,12.4v3.9h-1.5v-3.6c0-0.7-0.3-1.1-0.9-1.1c-0.6,0-1.1,0.5-1.1,1.5v3.2h-1.5v-3.6c0-0.7-0.3-1.1-0.9-1.1
		s-1.1,0.5-1.1,1.5v3.2h-1.5v-6.1h1.3l0.1,0.8c0.3-0.5,0.8-0.9,1.6-0.9c0.9,0,1.5,0.4,1.7,1.1c0.3-0.6,0.9-1.1,1.8-1.1
		C102.8,10.2,103.4,11.1,103.4,12.4z"/>
	<path class="st0" d="M113.5,12.4v3.9h-1.5v-3.6c0-0.7-0.3-1.1-0.9-1.1c-0.6,0-1.1,0.5-1.1,1.5v3.2h-1.5v-3.6c0-0.7-0.3-1.1-0.9-1.1
		s-1.1,0.5-1.1,1.5v3.2H105v-6.1h1.3l0.1,0.8c0.3-0.5,0.8-0.9,1.6-0.9c0.9,0,1.5,0.4,1.7,1.1c0.3-0.6,0.9-1.1,1.8-1.1
		C112.8,10.2,113.5,11.1,113.5,12.4z"/>
	<path class="st0" d="M119.7,12.4v4h-1.3l-0.1-0.7c-0.3,0.5-0.9,0.9-1.7,0.9c-1.1,0-1.8-0.7-1.8-1.8c0-1.2,0.8-1.6,1.9-1.8l1.6-0.3
		v-0.2c0-0.6-0.3-0.9-0.9-0.9c-0.5,0-0.9,0.3-0.9,0.8h-1.5c0.1-1.2,1-2.1,2.4-2.1C118.7,10.2,119.7,10.9,119.7,12.4z M116.2,14.6
		c0,0.4,0.3,0.6,0.7,0.6c0.4,0,0.8-0.2,1-0.6c0.1-0.2,0.2-0.5,0.2-0.8v-0.2l-1.2,0.3C116.5,14.1,116.2,14.2,116.2,14.6z"/>
</g>
</svg>
