<?xml version="1.0" encoding="utf-8"?>
<!-- Generator: Adobe Illustrator 24.0.0, SVG Export Plug-In . SVG Version: 6.00 Build 0)  -->
<svg version="1.1" id="Laag_1" xmlns="http://www.w3.org/2000/svg" xmlns:xlink="http://www.w3.org/1999/xlink" x="0px" y="0px"
	 width="147.4px" height="16.6px" viewBox="0 0 147.4 16.6" style="enable-background:new 0 0 147.4 16.6;" xml:space="preserve">
<style type="text/css">
	.st0{fill:#FFFFFF;}
</style>
<g>
	<path class="st0" d="M8.7,4.6c0,2.5-1.8,4.4-4.3,4.4C1.8,8.9,0,7.1,0,4.6c0-2.5,1.8-4.3,4.4-4.3C6.9,0.2,8.7,2.1,8.7,4.6z M1.7,4.6
		c0,1.6,1,2.8,2.7,2.8C5.9,7.4,7,6.2,7,4.6c0-1.6-1-2.8-2.6-2.8C2.7,1.8,1.7,3,1.7,4.6z"/>
	<path class="st0" d="M15,4.8v3.9h-1.5V5.2c0-0.7-0.3-1.1-0.9-1.1c-0.6,0-1.1,0.5-1.1,1.5v3.2H9.9V2.7h1.3l0.1,0.8
		C11.7,3,12.2,2.6,13,2.6C14.3,2.6,15,3.5,15,4.8z"/>
	<path class="st0" d="M19.8,2.7v1.4h-1.4l0,2.5c0,0.6,0.2,0.9,0.8,0.9c0.3,0,0.5,0,0.6-0.1v1.4c-0.2,0.1-0.5,0.1-1,0.1
		c-1.3,0-2-0.5-2-1.9l0-2.8h-1V2.7h1l0-1.5h1.6l0,1.5H19.8z"/>
	<path class="st0" d="M25.5,8.8L25.4,8c-0.3,0.5-0.9,0.9-1.9,0.9c-1.6,0-2.8-1.4-2.8-3.2s1.2-3.2,2.8-3.2c0.9,0,1.5,0.4,1.8,0.8V0
		h1.5v8.8H25.5z M22.2,5.7c0,1.1,0.7,1.7,1.5,1.7c0.8,0,1.5-0.6,1.5-1.7V5.7c0-1.1-0.8-1.7-1.5-1.7C22.9,4,22.2,4.7,22.2,5.7z"/>
	<path class="st0" d="M33.9,6.2h-4.2c0,0.8,0.6,1.4,1.5,1.4c0.6,0,1.1-0.2,1.2-0.7h1.5c-0.4,1.3-1.3,2-2.8,2c-1.8,0-3-1.2-3-3.2
		c0-1.8,1.2-3.2,3-3.2c1.6,0,2.8,1,2.8,3.2V6.2z M32.3,5.2c0-0.8-0.5-1.3-1.3-1.3c-0.8,0-1.3,0.5-1.4,1.3H32.3z"/>
	<path class="st0" d="M38.4,2.7h1.8l-1.8,2.6l2.1,3.5h-1.8l-1.4-2.3l-0.8,1v1.4h-1.5V0h1.5v5.1L38.4,2.7z"/>
	<path class="st0" d="M48.3,8.8L48.2,8c-0.3,0.5-0.9,0.9-1.9,0.9c-1.6,0-2.8-1.4-2.8-3.2s1.2-3.2,2.8-3.2c0.9,0,1.5,0.4,1.8,0.8V0
		h1.5v8.8H48.3z M45,5.7c0,1.1,0.7,1.7,1.5,1.7c0.8,0,1.5-0.6,1.5-1.7V5.7c0-1.1-0.8-1.7-1.5-1.7C45.7,4,45,4.7,45,5.7z"/>
	<path class="st0" d="M56.7,6.2h-4.2c0,0.8,0.6,1.4,1.5,1.4c0.6,0,1.1-0.2,1.2-0.7h1.5c-0.4,1.3-1.3,2-2.8,2c-1.8,0-3-1.2-3-3.2
		c0-1.8,1.2-3.2,3-3.2c1.6,0,2.8,1,2.8,3.2V6.2z M55.1,5.2c0-0.8-0.5-1.3-1.3-1.3c-0.8,0-1.3,0.5-1.4,1.3H55.1z"/>
	<path class="st0" d="M64.4,4.5h-1.5c0-0.4-0.2-0.7-0.7-0.7c-0.5,0-0.7,0.3-0.7,0.6c0,0.4,0.2,0.6,1.1,0.7c1.5,0.2,2,0.9,2,1.8
		c0,1.4-1.1,2-2.4,2c-1.5,0-2.3-0.8-2.4-2h1.5c0,0.5,0.3,0.8,0.9,0.8c0.5,0,0.8-0.2,0.8-0.6c0-0.4-0.2-0.6-1.1-0.8
		c-1.3-0.2-1.9-0.8-1.9-1.8c0-1,0.7-2,2.2-2C63.5,2.6,64.4,3.3,64.4,4.5z"/>
	<path class="st0" d="M69,2.7v1.4h-1.4l0,2.5c0,0.6,0.2,0.9,0.8,0.9c0.3,0,0.5,0,0.6-0.1v1.4c-0.2,0.1-0.5,0.1-1,0.1
		c-1.3,0-2-0.5-2-1.9l0-2.8h-1V2.7h1l0-1.5h1.6l0,1.5H69z"/>
	<path class="st0" d="M72.3,4.6c-0.3,0.2-0.5,0.6-0.5,1.1v3.1h-1.6V2.7h1.3l0.1,1c0.2-0.5,0.7-1,1.8-1v1.5
		C73.1,4.2,72.7,4.3,72.3,4.6z"/>
	<path class="st0" d="M79.2,4.8v4h-1.3L77.8,8c-0.3,0.5-0.9,0.9-1.7,0.9c-1.1,0-1.8-0.7-1.8-1.8c0-1.2,0.8-1.6,1.9-1.8l1.6-0.3V4.8
		c0-0.6-0.3-0.9-0.9-0.9c-0.5,0-0.9,0.3-0.9,0.8h-1.5c0.1-1.2,1-2.1,2.4-2.1C78.2,2.6,79.2,3.3,79.2,4.8z M75.7,7
		c0,0.4,0.3,0.6,0.7,0.6c0.4,0,0.8-0.2,1-0.6c0.1-0.2,0.2-0.5,0.2-0.8V6.1l-1.2,0.3C76,6.5,75.7,6.6,75.7,7z"/>
	<path class="st0" d="M84,0v1.4c-0.2-0.1-0.4-0.1-0.6-0.1c-0.5,0-0.8,0.3-0.8,0.8v0.6h1.4v1.4h-1.4v4.7H81V4.1h-1V2.7h1V2.1
		c0-1.4,0.8-2.2,2.2-2.2C83.5-0.1,83.8,0,84,0z"/>
	<path class="st0" d="M89.1,4.5h-1.5c0-0.4-0.2-0.7-0.7-0.7c-0.5,0-0.7,0.3-0.7,0.6c0,0.4,0.2,0.6,1.1,0.7c1.5,0.2,2,0.9,2,1.8
		c0,1.4-1.1,2-2.4,2c-1.5,0-2.3-0.8-2.4-2H86c0,0.5,0.3,0.8,0.9,0.8c0.5,0,0.8-0.2,0.8-0.6c0-0.4-0.2-0.6-1.1-0.8
		c-1.3-0.2-1.9-0.8-1.9-1.8c0-1,0.7-2,2.2-2C88.1,2.6,89,3.3,89.1,4.5z"/>
	<path class="st0" d="M93.7,2.7v1.4h-1.4l0,2.5c0,0.6,0.2,0.9,0.8,0.9c0.3,0,0.5,0,0.6-0.1v1.4c-0.2,0.1-0.5,0.1-1,0.1
		c-1.3,0-2-0.5-2-1.9l0-2.8h-1V2.7h1l0-1.5h1.6l0,1.5H93.7z"/>
	<path class="st0" d="M100.4,6.2h-4.2c0,0.8,0.6,1.4,1.5,1.4c0.6,0,1.1-0.2,1.2-0.7h1.5c-0.4,1.3-1.3,2-2.8,2c-1.8,0-3-1.2-3-3.2
		c0-1.8,1.2-3.2,3-3.2c1.6,0,2.8,1,2.8,3.2V6.2z M98.8,5.2c0-0.8-0.5-1.3-1.3-1.3c-0.8,0-1.3,0.5-1.4,1.3H98.8z"/>
	<path class="st0" d="M110.2,5.7c0,1.8-1.2,3.2-2.8,3.2c-0.9,0-1.5-0.4-1.8-0.8v3.3H104V2.7h1.3l0.1,0.8c0.3-0.5,0.9-0.9,1.9-0.9
		C109,2.6,110.2,4,110.2,5.7z M105.5,5.7L105.5,5.7c0,1.2,0.8,1.7,1.5,1.7c0.9,0,1.5-0.7,1.5-1.7S107.9,4,107,4
		C106.3,4,105.5,4.6,105.5,5.7z"/>
	<path class="st0" d="M111.4,8.8V0h1.5v8.8H111.4z"/>
	<path class="st0" d="M120,6.2h-4.2c0,0.8,0.6,1.4,1.5,1.4c0.6,0,1.1-0.2,1.2-0.7h1.5c-0.4,1.3-1.3,2-2.8,2c-1.8,0-3-1.2-3-3.2
		c0-1.8,1.2-3.2,3-3.2c1.6,0,2.8,1,2.8,3.2V6.2z M118.4,5.2c0-0.8-0.5-1.3-1.3-1.3c-0.8,0-1.3,0.5-1.4,1.3H118.4z"/>
	<path class="st0" d="M124.5,2.7h1.8l-1.8,2.6l2.1,3.5h-1.8l-1.4-2.3l-0.8,1v1.4h-1.5V0h1.5v5.1L124.5,2.7z"/>
	<path class="st0" d="M130.9,2.7h1.8L131,5.3l2.1,3.5h-1.8l-1.4-2.3l-0.8,1v1.4h-1.5V0h1.5v5.1L130.9,2.7z"/>
	<path class="st0" d="M139.1,6.2h-4.2c0,0.8,0.6,1.4,1.5,1.4c0.6,0,1.1-0.2,1.2-0.7h1.5c-0.4,1.3-1.3,2-2.8,2c-1.8,0-3-1.2-3-3.2
		c0-1.8,1.2-3.2,3-3.2c1.6,0,2.8,1,2.8,3.2V6.2z M137.6,5.2c0-0.8-0.5-1.3-1.3-1.3c-0.8,0-1.3,0.5-1.4,1.3H137.6z"/>
	<path class="st0" d="M145.4,4.8v3.9h-1.5V5.2c0-0.7-0.3-1.1-0.9-1.1c-0.6,0-1.1,0.5-1.1,1.5v3.2h-1.5V2.7h1.3l0.1,0.8
		c0.3-0.5,0.8-0.9,1.6-0.9C144.8,2.6,145.4,3.5,145.4,4.8z"/>
</g>
</svg>
