<?xml version="1.0" encoding="utf-8"?>
<!-- Generator: Adobe Illustrator 24.3.0, SVG Export Plug-In . SVG Version: 6.00 Build 0)  -->
<svg version="1.1" id="Laag_1" xmlns="http://www.w3.org/2000/svg" xmlns:xlink="http://www.w3.org/1999/xlink" x="0px" y="0px"
	 width="124.4px" height="21.9px" viewBox="0 0 124.4 21.9" style="enable-background:new 0 0 124.4 21.9;" xml:space="preserve">
<style type="text/css">
	.st0{fill:#FFFFFF;}
</style>
<g>
	<path class="st0" d="M11.4,2.4h3.3v6.9l2.5-6.9h3.3l-2.8,7.6l3.1,9.6h-3.5l-2.7-8.8v8.8h-3.3V2.4z"/>
	<path class="st0" d="M21.3,6.2c0-1.4,0.4-2.4,1.1-3.1c0.8-0.7,1.9-1,3.5-1c0.9,0,1.6,0.1,2.3,0.4c0.6,0.3,1.1,0.7,1.4,1.2
		c0.1,0.2,0.2,0.4,0.3,0.6C29.9,4.4,30,4.7,30.1,5c0,0.3,0.1,0.6,0.1,1c0,0.4,0,0.8,0,1.4v7.2c0,0.6,0,1,0,1.4c0,0.4,0,0.7-0.1,0.9
		c0,0.2-0.1,0.5-0.2,0.6c-0.1,0.2-0.2,0.4-0.3,0.6c-0.3,0.5-0.8,0.9-1.5,1.2c-0.7,0.3-1.6,0.4-2.7,0.4c-2.7,0-4.1-1.3-4.2-3.9
		L21.3,6.2z M26.8,6.7c0-0.5-0.1-0.9-0.2-1.1s-0.4-0.3-0.8-0.3c-0.7,0-1.1,0.5-1.1,1.4v8.1c0,0.7,0.1,1.2,0.2,1.5
		c0.2,0.3,0.4,0.4,0.9,0.4c0.7,0,1.1-0.5,1.1-1.4V6.7z"/>
	<path class="st0" d="M31.6,6.2c0-1.4,0.4-2.4,1.1-3.1c0.8-0.7,1.9-1,3.5-1c0.9,0,1.6,0.1,2.3,0.4c0.6,0.3,1.1,0.7,1.4,1.2
		C40,3.8,40.1,4,40.2,4.2c0.1,0.2,0.1,0.5,0.2,0.7c0,0.3,0.1,0.6,0.1,1c0,0.4,0,0.8,0,1.4v7.2c0,0.6,0,1,0,1.4c0,0.4,0,0.7-0.1,0.9
		c0,0.2-0.1,0.5-0.2,0.6c-0.1,0.2-0.2,0.4-0.3,0.6c-0.3,0.5-0.8,0.9-1.5,1.2c-0.7,0.3-1.6,0.4-2.7,0.4c-2.7,0-4.1-1.3-4.2-3.9
		L31.6,6.2z M37.1,6.7c0-0.5-0.1-0.9-0.2-1.1S36.4,5.3,36,5.3c-0.7,0-1.1,0.5-1.1,1.4v8.1c0,0.7,0.1,1.2,0.2,1.5
		c0.2,0.3,0.4,0.4,0.9,0.4c0.7,0,1.1-0.5,1.1-1.4V6.7z"/>
	<path class="st0" d="M42,2.4h4.9c0.9,0,1.6,0.1,2.1,0.2c0.5,0.1,0.9,0.3,1.2,0.6c0.3,0.3,0.4,0.6,0.5,0.9c0.1,0.4,0.1,0.8,0.1,1.2
		v3.4c0,0.5-0.1,1-0.2,1.4s-0.4,0.7-0.7,0.9c-0.3,0.2-0.7,0.4-1.2,0.5c-0.5,0.1-1.1,0.2-1.8,0.2h-1.5v7.9H42V2.4z M46.5,8.4
		c0.7,0,1-0.3,1-0.9V6.4c0-0.3-0.1-0.5-0.2-0.6c-0.1-0.1-0.4-0.2-0.7-0.2h-1.3v2.9H46.5z"/>
	<path class="st0" d="M57.5,5.6h-2.4V2.4h8.2v3.2h-2.4l0,13.9h-3.3V5.6z"/>
	<path class="st0" d="M63.9,2.4h3.3v17.1h-3.3V2.4z"/>
	<path class="st0" d="M68.7,6.2c0-1.5,0.4-2.5,1.1-3.2c0.8-0.7,2-1,3.6-1c0.8,0,1.6,0.2,2.3,0.5c0.6,0.3,1.1,0.7,1.4,1.3
		c0.3,0.6,0.4,1.5,0.4,2.7l0,1.1h-3.3v-1c0-0.6-0.1-1-0.2-1.2c-0.1-0.2-0.4-0.3-0.8-0.3c-0.4,0-0.7,0.1-0.9,0.3
		C72.1,5.8,72,6.2,72,6.7v8.4c0,1,0.4,1.6,1.2,1.6c0.4,0,0.7-0.2,0.8-0.5c0.2-0.3,0.2-0.9,0.2-1.7v-1h3.4V14c0,0.7,0,1.3,0,1.7
		c0,0.4,0,0.8-0.1,1c0,0.3-0.1,0.5-0.1,0.6c-0.1,0.2-0.1,0.4-0.2,0.5c-0.2,0.6-0.7,1-1.4,1.4c-0.7,0.4-1.6,0.5-2.7,0.5
		c-2.9,0-4.4-1.4-4.4-4.1V6.2z"/>
	<path class="st0" d="M78.7,2.4H82v6.9l2.5-6.9h3.3L85,9.9l3.1,9.6h-3.5L82,10.7v8.8h-3.3V2.4z"/>
	<path class="st0" d="M88.6,2.4h6.9v3.1h-3.6v3.1h3.6v3.2h-3.6v4.5h3.6v3.1h-6.9V2.4z"/>
	<path class="st0" d="M98.2,5.6h-2.4V2.4h8.2v3.2h-2.4l0,13.9h-3.3V5.6z"/>
	<path class="st0" d="M107.5,13.9v1.2c0,1,0.4,1.5,1.1,1.5c0.4,0,0.7-0.1,0.9-0.4c0.2-0.3,0.3-0.7,0.3-1.3c0-0.3,0-0.5,0-0.7
		c0-0.2-0.1-0.4-0.2-0.5c-0.1-0.2-0.3-0.3-0.5-0.5c-0.2-0.2-0.4-0.4-0.8-0.6l-1.6-1.2c-0.4-0.3-0.8-0.6-1.1-0.9
		c-0.3-0.3-0.5-0.6-0.7-0.9c-0.2-0.3-0.3-0.7-0.4-1.1c-0.1-0.4-0.1-0.9-0.1-1.5c0-0.6,0-1.1,0.1-1.5c0.1-0.4,0.1-0.7,0.2-1
		c0.1-0.3,0.2-0.5,0.3-0.7c0.1-0.2,0.2-0.3,0.3-0.5c0.3-0.3,0.7-0.6,1.2-0.9s1.3-0.4,2.1-0.4c0.5,0,1.1,0.1,1.6,0.2
		c0.5,0.1,0.9,0.3,1.3,0.6c0.4,0.3,0.7,0.7,0.9,1.2c0.2,0.5,0.3,1.2,0.3,2v1.7h-3.1c0-0.1,0-0.2,0-0.3c0-0.1,0-0.2,0-0.4
		c0-0.2,0-0.4,0-0.6c0-0.2-0.1-0.4-0.2-0.6s-0.2-0.3-0.4-0.4c-0.2-0.1-0.4-0.2-0.6-0.2c-0.7,0-1.1,0.5-1.1,1.5c0,0.3,0,0.6,0.1,0.8
		c0.1,0.2,0.2,0.5,0.4,0.7c0.2,0.2,0.4,0.4,0.7,0.6s0.6,0.5,0.9,0.7c0.4,0.3,0.7,0.6,1.1,0.9c0.4,0.3,0.7,0.6,1.1,1
		c0.3,0.3,0.6,0.7,0.8,1c0.2,0.4,0.3,0.7,0.3,1.1v1.9c0,1.4-0.4,2.4-1.1,3.2c-0.7,0.7-1.9,1.1-3.5,1.1c-0.8,0-1.5-0.1-2.1-0.4
		c-0.6-0.3-1.1-0.7-1.3-1.1c-0.2-0.4-0.4-0.8-0.5-1.3c-0.1-0.5-0.2-1.3-0.2-2.2c0-0.1,0-0.3,0-0.4c0-0.1,0-0.3,0-0.4H107.5z"/>
</g>
</svg>
