<?xml version="1.0" encoding="utf-8"?>
<!-- Generator: Adobe Illustrator 24.3.0, SVG Export Plug-In . SVG Version: 6.00 Build 0)  -->
<svg version="1.1" id="Laag_1" xmlns="http://www.w3.org/2000/svg" xmlns:xlink="http://www.w3.org/1999/xlink" x="0px" y="0px"
	 width="130px" height="10.9px" viewBox="0 0 130 10.9" style="enable-background:new 0 0 130 10.9;" xml:space="preserve">
<style type="text/css">
	.st0{fill:#FFFFFF;}
</style>
<g>
	<path class="st0" d="M4.4,8.9C3,8.9,1.9,8.5,1.1,7.8l0.7-0.9c0.1-0.1,0.3-0.2,0.4,0c0.6,0.5,1.4,0.7,2.3,0.7c0.5,0,0.9-0.1,1.3-0.3
		s0.5-0.5,0.5-0.8c0-0.3-0.1-0.5-0.3-0.7s-0.6-0.4-1-0.5L3.6,4.8C2.9,4.7,2.3,4.4,1.9,4S1.3,3.1,1.3,2.5c0-0.8,0.3-1.3,0.8-1.7
		s1.3-0.6,2.2-0.6c0.3,0,0.6,0,1,0.1s0.6,0.1,0.8,0.2s0.4,0.2,0.6,0.3S7.1,1,7.1,1.1s0.2,0.1,0.2,0.2L6.6,2.2
		C6.6,2.3,6.5,2.3,6.4,2.3s-0.2,0-0.2-0.1C5.5,1.8,4.9,1.6,4.3,1.6c-0.9,0-1.4,0.3-1.4,0.9c0,0.2,0.1,0.4,0.2,0.6s0.4,0.3,0.8,0.3
		l1.4,0.4C7,4.2,7.8,5.1,7.8,6.4c0,0.8-0.3,1.5-0.9,1.9S5.5,8.9,4.4,8.9z"/>
	<path class="st0" d="M11.5,8.9c-1,0-1.7-0.3-2.3-0.9S8.4,6.6,8.4,5.7c0-1,0.3-1.8,0.8-2.4s1.3-0.9,2.3-0.9c0.8,0,1.4,0.2,1.9,0.6
		s0.9,0.9,1,1.6l-1.1,0.3c-0.2,0-0.4,0-0.4-0.2c-0.3-0.6-0.7-0.9-1.4-0.9c-0.5,0-0.9,0.2-1.2,0.6S9.9,5,9.9,5.7
		c0,0.6,0.1,1.1,0.4,1.4s0.7,0.5,1.2,0.5c0.4,0,0.7-0.1,0.9-0.3s0.4-0.4,0.5-0.8c0-0.1,0.1-0.2,0.2-0.2s0.2-0.1,0.3,0l1.1,0.2
		c-0.2,0.8-0.5,1.3-1,1.7S12.3,8.9,11.5,8.9z"/>
	<path class="st0" d="M18.3,8.9c-1,0-1.7-0.3-2.3-0.9s-0.8-1.4-0.8-2.4s0.3-1.8,0.8-2.4s1.3-0.9,2.3-0.9c1,0,1.7,0.3,2.3,0.9
		s0.8,1.4,0.8,2.4S21.1,7.4,20.6,8S19.2,8.9,18.3,8.9z M17.1,7.1c0.3,0.4,0.7,0.5,1.2,0.5s0.9-0.2,1.2-0.5s0.4-0.8,0.4-1.5
		s-0.1-1.1-0.4-1.5s-0.7-0.5-1.2-0.5s-0.9,0.2-1.2,0.5S16.6,5,16.6,5.6S16.8,6.7,17.1,7.1z"/>
	<path class="st0" d="M26,2.3c0.9,0,1.6,0.3,2.1,0.9s0.8,1.4,0.8,2.4c0,1-0.3,1.9-0.8,2.4s-1.3,0.9-2.2,0.9c-0.7,0-1.3-0.2-1.8-0.6
		v2.6h-1.5V2.4h1.1c0.1,0,0.1,0,0.2,0.1S24,2.6,24,2.7v0.6C24.6,2.6,25.2,2.3,26,2.3z M25.8,7.6c0.5,0,0.9-0.2,1.2-0.5
		s0.4-0.8,0.4-1.4c0-0.6-0.1-1.1-0.4-1.4s-0.7-0.5-1.2-0.5c-0.5,0-0.9,0.2-1.2,0.5s-0.5,0.8-0.5,1.4v0.1c0,0.6,0.1,1.1,0.4,1.4
		S25.3,7.6,25.8,7.6z"/>
	<path class="st0" d="M33.4,2.4h0.1v0.9c0,0.1,0,0.2-0.1,0.3s-0.2,0.1-0.3,0.1H33c-0.5,0-0.9,0.2-1.2,0.5c-0.3,0.3-0.4,0.8-0.4,1.3
		v3.2h-1.5V2.4H31c0.1,0,0.1,0,0.2,0.1s0.1,0.1,0.1,0.2v0.7C31.8,2.7,32.5,2.4,33.4,2.4z"/>
	<path class="st0" d="M35.2,1.7c-0.2,0-0.4-0.1-0.6-0.2s-0.2-0.4-0.2-0.6c0-0.2,0.1-0.4,0.2-0.6S34.9,0,35.2,0
		c0.2,0,0.4,0.1,0.6,0.2S36,0.6,36,0.8c0,0.2-0.1,0.4-0.2,0.6S35.4,1.7,35.2,1.7z M34.4,8.8V2.4h1.5v6.4H34.4z"/>
	<path class="st0" d="M45.4,0.3h1.5v8.5h-1.1c-0.1,0-0.1,0-0.2-0.1s-0.1-0.1-0.1-0.2V8c-0.5,0.6-1.2,0.9-2,0.9
		c-0.9,0-1.6-0.3-2.1-0.9s-0.8-1.4-0.8-2.4c0-1,0.3-1.9,0.8-2.4s1.2-0.9,2.2-0.9c0.7,0,1.3,0.2,1.8,0.7V0.3z M43.7,7.6
		c0.5,0,0.9-0.2,1.2-0.5s0.4-0.8,0.4-1.4V5.6c0-0.6-0.2-1.1-0.5-1.4s-0.7-0.5-1.2-0.5c-0.5,0-0.9,0.2-1.2,0.5S42.1,5,42.1,5.6
		c0,0.6,0.1,1.1,0.4,1.4S43.2,7.6,43.7,7.6z"/>
	<path class="st0" d="M49.5,1.7c-0.2,0-0.4-0.1-0.6-0.2s-0.2-0.4-0.2-0.6c0-0.2,0.1-0.4,0.2-0.6S49.2,0,49.5,0
		c0.2,0,0.4,0.1,0.6,0.2s0.2,0.4,0.2,0.6c0,0.2-0.1,0.4-0.2,0.6S49.7,1.7,49.5,1.7z M48.7,8.8V2.4h1.5v6.4H48.7z"/>
	<path class="st0" d="M58,8.9c-1,0-1.7-0.3-2.3-0.9s-0.8-1.4-0.8-2.4c0-1,0.3-1.8,0.8-2.4s1.3-0.9,2.3-0.9c0.8,0,1.4,0.2,1.9,0.6
		s0.9,0.9,1,1.6l-1.1,0.3c-0.2,0-0.4,0-0.4-0.2c-0.3-0.6-0.7-0.9-1.4-0.9c-0.5,0-0.9,0.2-1.2,0.6S56.4,5,56.4,5.7
		c0,0.6,0.1,1.1,0.4,1.4s0.7,0.5,1.2,0.5c0.4,0,0.7-0.1,0.9-0.3s0.4-0.4,0.5-0.8c0-0.1,0.1-0.2,0.2-0.2s0.2-0.1,0.3,0L61,6.6
		c-0.2,0.8-0.5,1.3-1,1.7S58.8,8.9,58,8.9z"/>
	<path class="st0" d="M64.8,8.9c-1,0-1.7-0.3-2.3-0.9s-0.8-1.4-0.8-2.4s0.3-1.8,0.8-2.4s1.3-0.9,2.3-0.9c1,0,1.7,0.3,2.3,0.9
		s0.8,1.4,0.8,2.4S67.6,7.4,67.1,8S65.7,8.9,64.8,8.9z M63.6,7.1c0.3,0.4,0.7,0.5,1.2,0.5s0.9-0.2,1.2-0.5s0.4-0.8,0.4-1.5
		S66.3,4.5,66,4.2s-0.7-0.5-1.2-0.5s-0.9,0.2-1.2,0.5S63.2,5,63.2,5.6S63.3,6.7,63.6,7.1z"/>
	<path class="st0" d="M71.1,8.9c-0.5,0-1-0.1-1.5-0.2S68.9,8.3,68.6,8l0.7-0.8c0.1-0.1,0.2-0.1,0.4,0c0.5,0.3,1,0.5,1.5,0.5
		c0.4,0,0.6-0.1,0.8-0.2s0.3-0.3,0.3-0.5c0-0.2-0.1-0.3-0.2-0.4s-0.3-0.2-0.6-0.3c-0.1,0-0.3-0.1-0.6-0.1S70.4,6,70.2,6
		c-0.5-0.1-0.8-0.3-1.1-0.6s-0.4-0.7-0.4-1.1c0-0.6,0.2-1.1,0.6-1.4s1-0.5,1.7-0.5c0.5,0,0.9,0.1,1.4,0.3s0.7,0.4,1,0.6L72.8,4
		c-0.1,0.1-0.2,0.2-0.4,0c-0.4-0.3-0.9-0.5-1.4-0.5c-0.3,0-0.5,0.1-0.6,0.2S70.1,4,70.1,4.2c0,0.1,0,0.2,0.1,0.3s0.2,0.2,0.4,0.2
		c0,0,0.4,0.1,1.1,0.3c0.6,0.1,1.1,0.4,1.4,0.7s0.5,0.8,0.5,1.2c0,0.6-0.2,1.1-0.7,1.4S71.9,8.9,71.1,8.9z"/>
	<path class="st0" d="M80.2,7.4c0.1,0,0.2,0.2,0.2,0.4v1h-0.2c-0.7,0-1.2-0.3-1.5-0.8c-0.5,0.6-1.3,0.9-2.3,0.9
		c-0.6,0-1.1-0.2-1.5-0.5s-0.6-0.8-0.6-1.4c0-0.6,0.2-1,0.6-1.4s1-0.6,1.7-0.7c0.4,0,0.7-0.1,1-0.2s0.4-0.1,0.5-0.2s0.2-0.1,0.3-0.2
		v0c0-0.2-0.1-0.4-0.3-0.6s-0.5-0.2-0.9-0.2c-0.1,0-0.3,0-0.4,0s-0.2,0-0.3,0.1s-0.2,0.1-0.3,0.1s-0.2,0.1-0.2,0.1S76,4,75.9,4.1
		s-0.1,0.1-0.1,0.1c-0.1,0.1-0.2,0.1-0.4,0.1s-0.2-0.1-0.3-0.2l-0.5-0.6c0.1-0.1,0.2-0.3,0.4-0.4s0.3-0.3,0.5-0.4s0.5-0.2,0.8-0.3
		s0.6-0.1,0.9-0.1c0.9,0,1.6,0.2,2.1,0.6s0.7,1,0.7,1.9v2.1c0,0.1,0,0.2,0.1,0.3S80.1,7.4,80.2,7.4L80.2,7.4z M76.6,7.7
		c0.3,0,0.5,0,0.7-0.1s0.4-0.2,0.6-0.3s0.3-0.3,0.4-0.5s0.1-0.5,0.1-0.8V5.7c-0.3,0.3-0.8,0.4-1.5,0.5c-0.4,0-0.7,0.1-0.9,0.2
		S75.8,6.7,75.8,7c0,0.2,0.1,0.4,0.2,0.5S76.3,7.7,76.6,7.7z"/>
	<path class="st0" d="M87,8.9c-0.5,0-1-0.1-1.5-0.2S84.7,8.3,84.4,8l0.7-0.8c0.1-0.1,0.2-0.1,0.4,0c0.5,0.3,1,0.5,1.5,0.5
		c0.4,0,0.6-0.1,0.8-0.2S88,7.1,88,6.9c0-0.2-0.1-0.3-0.2-0.4s-0.3-0.2-0.6-0.3c-0.1,0-0.3-0.1-0.6-0.1S86.2,6,86.1,6
		c-0.5-0.1-0.8-0.3-1.1-0.6s-0.4-0.7-0.4-1.1c0-0.6,0.2-1.1,0.6-1.4s1-0.5,1.7-0.5c0.5,0,0.9,0.1,1.4,0.3s0.7,0.4,1,0.6L88.6,4
		c-0.1,0.1-0.2,0.2-0.4,0c-0.4-0.3-0.9-0.5-1.4-0.5c-0.3,0-0.5,0.1-0.6,0.2S85.9,4,85.9,4.2c0,0.1,0,0.2,0.1,0.3s0.2,0.2,0.4,0.2
		c0,0,0.4,0.1,1.1,0.3c0.6,0.1,1.1,0.4,1.4,0.7s0.5,0.8,0.5,1.2c0,0.6-0.2,1.1-0.7,1.4S87.8,8.9,87,8.9z"/>
	<path class="st0" d="M91.4,1.7c-0.2,0-0.4-0.1-0.6-0.2s-0.2-0.4-0.2-0.6c0-0.2,0.1-0.4,0.2-0.6S91.2,0,91.4,0
		c0.2,0,0.4,0.1,0.6,0.2s0.2,0.4,0.2,0.6c0,0.2-0.1,0.4-0.2,0.6S91.7,1.7,91.4,1.7z M90.7,8.8V2.4h1.5v6.4H90.7z"/>
	<path class="st0" d="M101.1,3.8h-1.9v2.9c0,0.2,0.1,0.4,0.2,0.6s0.3,0.2,0.6,0.2h0.8c0.1,0,0.2,0,0.3,0.1s0.1,0.2,0.1,0.3v1h-1.3
		c-0.7,0-1.2-0.2-1.6-0.6s-0.6-0.9-0.6-1.6V3.8H97c-0.1,0-0.2,0-0.3-0.1s-0.1-0.2-0.1-0.3V2.4h1V0.3h1.5v2.1h1.9V3.8z"/>
	<path class="st0" d="M105.7,2.4h0.1v0.9c0,0.1,0,0.2-0.1,0.3s-0.2,0.1-0.3,0.1h-0.1c-0.5,0-0.9,0.2-1.2,0.5s-0.4,0.8-0.4,1.3v3.2
		h-1.5V2.4h1.1c0.1,0,0.1,0,0.2,0.1s0.1,0.1,0.1,0.2v0.7C104.1,2.7,104.8,2.4,105.7,2.4z"/>
	<path class="st0" d="M112,7.4c0.1,0,0.2,0.2,0.2,0.4v1H112c-0.7,0-1.2-0.3-1.5-0.8c-0.5,0.6-1.3,0.9-2.3,0.9
		c-0.6,0-1.1-0.2-1.5-0.5s-0.6-0.8-0.6-1.4c0-0.6,0.2-1,0.6-1.4s1-0.6,1.7-0.7c0.4,0,0.7-0.1,1-0.2s0.4-0.1,0.5-0.2s0.2-0.1,0.3-0.2
		v0c0-0.2-0.1-0.4-0.3-0.6s-0.5-0.2-0.9-0.2c-0.1,0-0.3,0-0.4,0s-0.2,0-0.3,0.1s-0.2,0.1-0.3,0.1s-0.2,0.1-0.2,0.1s-0.1,0.1-0.2,0.1
		s-0.1,0.1-0.1,0.1c-0.1,0.1-0.2,0.1-0.4,0.1s-0.2-0.1-0.3-0.2l-0.5-0.6c0.1-0.1,0.2-0.3,0.4-0.4s0.3-0.3,0.5-0.4s0.5-0.2,0.8-0.3
		s0.6-0.1,0.9-0.1c0.9,0,1.6,0.2,2.1,0.6s0.7,1,0.7,1.9v2.1c0,0.1,0,0.2,0.1,0.3S111.9,7.4,112,7.4L112,7.4z M108.4,7.7
		c0.3,0,0.5,0,0.7-0.1s0.4-0.2,0.6-0.3s0.3-0.3,0.4-0.5s0.1-0.5,0.1-0.8V5.7c-0.3,0.3-0.8,0.4-1.5,0.5c-0.4,0-0.7,0.1-0.9,0.2
		s-0.3,0.3-0.3,0.6c0,0.2,0.1,0.4,0.2,0.5S108.2,7.7,108.4,7.7z"/>
	<path class="st0" d="M117.1,3.8h-1.9v2.9c0,0.2,0.1,0.4,0.2,0.6s0.3,0.2,0.6,0.2h0.8c0.1,0,0.2,0,0.3,0.1s0.1,0.2,0.1,0.3v1h-1.3
		c-0.7,0-1.2-0.2-1.6-0.6s-0.6-0.9-0.6-1.6V3.8H113c-0.1,0-0.2,0-0.3-0.1s-0.1-0.2-0.1-0.3V2.4h1V0.3h1.5v2.1h1.9V3.8z"/>
	<path class="st0" d="M122.1,3.8h-1.9v2.9c0,0.2,0.1,0.4,0.2,0.6s0.3,0.2,0.6,0.2h0.8c0.1,0,0.2,0,0.3,0.1s0.1,0.2,0.1,0.3v1h-1.3
		c-0.7,0-1.2-0.2-1.6-0.6s-0.6-0.9-0.6-1.6V3.8H118c-0.1,0-0.2,0-0.3-0.1s-0.1-0.2-0.1-0.3V2.4h1V0.3h1.5v2.1h1.9V3.8z"/>
	<path class="st0" d="M128.7,7.4c0.1,0,0.2,0.2,0.2,0.4v1h-0.2c-0.7,0-1.2-0.3-1.5-0.8c-0.5,0.6-1.3,0.9-2.3,0.9
		c-0.6,0-1.1-0.2-1.5-0.5s-0.6-0.8-0.6-1.4c0-0.6,0.2-1,0.6-1.4s1-0.6,1.7-0.7c0.4,0,0.7-0.1,1-0.2s0.4-0.1,0.5-0.2s0.2-0.1,0.3-0.2
		v0c0-0.2-0.1-0.4-0.3-0.6s-0.5-0.2-0.9-0.2c-0.1,0-0.3,0-0.4,0s-0.2,0-0.3,0.1s-0.2,0.1-0.3,0.1s-0.2,0.1-0.2,0.1s-0.1,0.1-0.2,0.1
		s-0.1,0.1-0.1,0.1c-0.1,0.1-0.2,0.1-0.4,0.1s-0.2-0.1-0.3-0.2l-0.5-0.6c0.1-0.1,0.2-0.3,0.4-0.4s0.3-0.3,0.5-0.4s0.5-0.2,0.8-0.3
		s0.6-0.1,0.9-0.1c0.9,0,1.6,0.2,2.1,0.6s0.7,1,0.7,1.9v2.1c0,0.1,0,0.2,0.1,0.3S128.7,7.4,128.7,7.4L128.7,7.4z M125.1,7.7
		c0.3,0,0.5,0,0.7-0.1s0.4-0.2,0.6-0.3s0.3-0.3,0.4-0.5s0.1-0.5,0.1-0.8V5.7c-0.3,0.3-0.8,0.4-1.5,0.5c-0.4,0-0.7,0.1-0.9,0.2
		s-0.3,0.3-0.3,0.6c0,0.2,0.1,0.4,0.2,0.5S124.9,7.7,125.1,7.7z"/>
</g>
</svg>
