<?xml version="1.0" encoding="utf-8"?>
<!-- Generator: Adobe Illustrator 24.3.0, SVG Export Plug-In . SVG Version: 6.00 Build 0)  -->
<svg version="1.1" id="Laag_1" xmlns:v="https://vecta.io/nano"
	 xmlns="http://www.w3.org/2000/svg" xmlns:xlink="http://www.w3.org/1999/xlink" x="0px" y="0px" width="335.2px" height="237.4px"
	 viewBox="0 0 335.2 237.4" style="enable-background:new 0 0 335.2 237.4;" xml:space="preserve">
<style type="text/css">
	.st0{fill:#6A3F24;}
</style>
<g>
	<path class="st0" d="M4.6,36.4c-1.1,0-2-0.4-2.7-1.1c-0.7-0.7-1.1-1.6-1.1-2.7c0-1.1,0.4-2,1.1-2.7c0.7-0.7,1.6-1,2.7-1
		c1.1,0,2,0.4,2.7,1c0.7,0.7,1,1.6,1,2.7c0,1.1-0.4,2-1,2.7C6.6,36,5.7,36.4,4.6,36.4z M14.9,36.4c-1.1,0-2-0.4-2.7-1.1
		c-0.7-0.7-1.1-1.6-1.1-2.7c0-1.1,0.4-2,1.1-2.7s1.6-1,2.7-1c1.1,0,2,0.4,2.7,1c0.7,0.7,1,1.6,1,2.7c0,1.1-0.4,2-1,2.7
		C16.9,36,16,36.4,14.9,36.4z M25.2,36.4c-1.1,0-2-0.4-2.7-1.1c-0.7-0.7-1.1-1.6-1.1-2.7c0-1.1,0.4-2,1.1-2.7s1.6-1,2.7-1
		c1.1,0,2,0.4,2.7,1s1.1,1.6,1.1,2.7c0,1.1-0.4,2-1.1,2.7C27.2,36,26.3,36.4,25.2,36.4z"/>
	<path class="st0" d="M58.3,9.7c3.9,0,7,1.3,9.4,3.8s3.6,5.9,3.6,10v1.1c0,0.3-0.1,0.5-0.3,0.7c-0.2,0.2-0.4,0.3-0.7,0.3H52.4
		c0.4,1.4,1.1,2.6,2.1,3.5c1,0.9,2.3,1.3,3.8,1.3c1.1,0,2.1-0.3,2.9-0.8c0.8-0.5,1.4-1.2,1.9-2c0.3-0.5,0.8-0.6,1.3-0.4l5.8,2
		c-0.9,2.2-2.3,4-4.3,5.3c-2,1.3-4.5,1.9-7.5,1.9c-3.9,0-7.1-1.2-9.5-3.7c-2.4-2.4-3.6-5.6-3.6-9.6c0-4,1.2-7.3,3.6-9.7
		C51.3,10.9,54.4,9.7,58.3,9.7z M58.3,15.7c-1.4,0-2.6,0.4-3.6,1.1c-1,0.7-1.7,1.8-2.1,3.1H64c-0.5-1.3-1.2-2.3-2.2-3.1
		C60.8,16.1,59.7,15.7,58.3,15.7z"/>
	<path class="st0" d="M103.8,9.8c3.5,0,6.3,1.2,8.4,3.6c2.1,2.4,3.1,5.6,3.1,9.6c0,4.2-1,7.5-3.1,9.8c-2.1,2.3-5,3.5-8.8,3.5
		c-2.8,0-5-0.8-6.8-2.3v10.3h-6.9V10.2h5.2c0.3,0,0.5,0.1,0.7,0.3c0.2,0.2,0.3,0.4,0.3,0.7v2.2C97.9,11,100.6,9.8,103.8,9.8z
		 M102.5,30.3c1.8,0,3.3-0.7,4.3-2c1.1-1.3,1.6-3.1,1.6-5.2c0-2.2-0.5-3.9-1.5-5.2c-1-1.3-2.5-2-4.3-2s-3.3,0.6-4.4,1.9
		c-1.1,1.2-1.6,2.9-1.7,5v0.5c0,2.2,0.5,3.9,1.6,5.2C99.2,29.6,100.6,30.3,102.5,30.3z"/>
	<path class="st0" d="M133.7,10.2h0.4v3.9c0,0.6-0.2,1-0.5,1.3s-0.7,0.5-1.2,0.5h-0.3c-2,0-3.4,0.6-4.4,1.8c-1,1.2-1.5,2.8-1.5,5v13
		h-6.9V10.2h5.2c0.3,0,0.5,0.1,0.7,0.3c0.2,0.2,0.3,0.4,0.3,0.7v2.5C127.4,11.4,130.2,10.2,133.7,10.2z"/>
	<path class="st0" d="M148.6,9.7c3.9,0,7,1.3,9.4,3.8s3.6,5.9,3.6,10v1.1c0,0.3-0.1,0.5-0.3,0.7c-0.2,0.2-0.4,0.3-0.7,0.3h-17.9
		c0.4,1.4,1.1,2.6,2.1,3.5c1,0.9,2.3,1.3,3.8,1.3c1.1,0,2.1-0.3,2.9-0.8c0.8-0.5,1.4-1.2,1.9-2c0.3-0.5,0.8-0.6,1.3-0.4l5.8,2
		c-0.9,2.2-2.3,4-4.3,5.3c-2,1.3-4.5,1.9-7.5,1.9c-3.9,0-7.1-1.2-9.5-3.7c-2.4-2.4-3.6-5.6-3.6-9.6c0-4,1.2-7.3,3.6-9.7
		C141.6,10.9,144.7,9.7,148.6,9.7z M148.6,15.7c-1.4,0-2.6,0.4-3.6,1.1c-1,0.7-1.7,1.8-2.1,3.1h11.3c-0.5-1.3-1.2-2.3-2.2-3.1
		C151.1,16.1,149.9,15.7,148.6,15.7z"/>
	<path class="st0" d="M180.5,9.8c3.5,0,6.3,1.2,8.4,3.6c2.1,2.4,3.1,5.6,3.1,9.6c0,4.2-1,7.5-3.1,9.8c-2.1,2.3-5,3.5-8.8,3.5
		c-2.8,0-5-0.8-6.8-2.3v10.3h-6.9V10.2h5.2c0.3,0,0.5,0.1,0.7,0.3c0.2,0.2,0.3,0.4,0.3,0.7v2.2C174.6,11,177.3,9.8,180.5,9.8z
		 M179.2,30.3c1.8,0,3.3-0.7,4.3-2c1.1-1.3,1.6-3.1,1.6-5.2c0-2.2-0.5-3.9-1.5-5.2c-1-1.3-2.5-2-4.3-2s-3.3,0.6-4.4,1.9
		c-1.1,1.2-1.6,2.9-1.7,5v0.5c0,2.2,0.5,3.9,1.6,5.2C175.9,29.6,177.3,30.3,179.2,30.3z"/>
	<path class="st0" d="M218.7,29.3c0.3,0.3,0.5,0.9,0.5,1.7v4.9h-0.7c-3,0-5.1-1-6.4-2.9c-2.1,2.2-5.1,3.3-9.1,3.3
		c-2.5,0-4.6-0.7-6.1-2c-1.5-1.4-2.2-3.2-2.2-5.5c0-2.2,0.7-4.1,2.1-5.6s3.6-2.4,6.5-2.8c3.7-0.4,6.2-1,7.4-1.7v-0.1
		c0-0.8-0.4-1.5-1.2-2s-1.8-0.8-2.9-0.8c-0.6,0-1.2,0-1.7,0.1c-0.5,0.1-1,0.2-1.5,0.4s-0.8,0.3-1,0.4c-0.2,0.1-0.6,0.3-1,0.6
		c-0.4,0.3-0.7,0.4-0.7,0.4c-0.6,0.3-1.1,0.4-1.7,0.3s-1-0.4-1.3-0.8l-2.1-2.9c0.3-0.4,0.8-0.9,1.4-1.3c0.6-0.5,1.3-0.9,2.2-1.5
		c0.9-0.5,1.9-0.9,3.2-1.3c1.2-0.3,2.5-0.5,3.8-0.5c3.8,0,6.6,0.9,8.6,2.6c2,1.7,2.9,4.3,2.9,7.7v7.2
		C217.7,28.2,218,28.8,218.7,29.3L218.7,29.3z M203.9,30.5c0.7,0,1.4,0,2-0.1c0.6-0.1,1.2-0.3,1.9-0.5c0.6-0.3,1.2-0.6,1.6-1
		s0.8-1,1.1-1.7c0.3-0.7,0.4-1.5,0.4-2.4V24c-1.3,1.1-3.3,1.7-6,1.7c-1.2,0.1-2.2,0.4-2.7,0.8c-0.6,0.4-0.9,1-0.9,1.8
		c0,0.7,0.2,1.2,0.7,1.6C202.4,30.3,203.1,30.5,203.9,30.5z"/>
	<path class="st0" d="M237.6,10.2h0.4v3.9c0,0.6-0.2,1-0.5,1.3s-0.7,0.5-1.2,0.5H236c-2,0-3.4,0.6-4.4,1.8c-1,1.2-1.5,2.8-1.5,5v13
		h-6.9V10.2h5.2c0.3,0,0.5,0.1,0.7,0.3c0.2,0.2,0.3,0.4,0.3,0.7v2.5C231.3,11.4,234.1,10.2,237.6,10.2z"/>
	<path class="st0" d="M263.4,29.3c0.3,0.3,0.5,0.9,0.5,1.7v4.9h-0.7c-3,0-5.1-1-6.4-2.9c-2.1,2.2-5.1,3.3-9.1,3.3
		c-2.5,0-4.6-0.7-6.1-2c-1.5-1.4-2.2-3.2-2.2-5.5c0-2.2,0.7-4.1,2.1-5.6s3.6-2.4,6.5-2.8c3.7-0.4,6.2-1,7.4-1.7v-0.1
		c0-0.8-0.4-1.5-1.2-2s-1.8-0.8-2.9-0.8c-0.6,0-1.2,0-1.7,0.1c-0.5,0.1-1,0.2-1.5,0.4s-0.8,0.3-1,0.4c-0.2,0.1-0.6,0.3-1,0.6
		c-0.4,0.3-0.7,0.4-0.7,0.4c-0.6,0.3-1.1,0.4-1.7,0.3s-1-0.4-1.3-0.8l-2.1-2.9c0.3-0.4,0.8-0.9,1.4-1.3c0.6-0.5,1.3-0.9,2.2-1.5
		c0.9-0.5,1.9-0.9,3.2-1.3c1.2-0.3,2.5-0.5,3.8-0.5c3.8,0,6.6,0.9,8.6,2.6c2,1.7,2.9,4.3,2.9,7.7v7.2
		C262.4,28.2,262.7,28.8,263.4,29.3L263.4,29.3z M248.6,30.5c0.7,0,1.4,0,2-0.1c0.6-0.1,1.2-0.3,1.9-0.5c0.6-0.3,1.2-0.6,1.6-1
		s0.8-1,1.1-1.7c0.3-0.7,0.4-1.5,0.4-2.4V24c-1.3,1.1-3.3,1.7-6,1.7c-1.2,0.1-2.2,0.4-2.7,0.8c-0.6,0.4-0.9,1-0.9,1.8
		c0,0.7,0.2,1.2,0.7,1.6C247.2,30.3,247.8,30.5,248.6,30.5z"/>
	<path class="st0" d="M284,16.3h-7.4v10.4c0,0.8,0.3,1.5,0.8,2.1c0.5,0.5,1.2,0.8,2,0.8h2.9c0.6,0,1,0.2,1.3,0.5
		c0.3,0.3,0.5,0.8,0.5,1.3v4.6h-5.3c-2.8,0-5.1-0.8-6.7-2.5s-2.4-3.9-2.4-6.8V16.3h-2.2c-0.5,0-1-0.2-1.3-0.5s-0.5-0.8-0.5-1.3v-4.2
		h4V1.7h6.9v8.5h7.4V16.3z"/>
	<path class="st0" d="M292.7,7.5c-1.1,0-2-0.3-2.7-1c-0.7-0.7-1-1.6-1-2.7c0-1.1,0.3-2,1-2.7c0.7-0.7,1.6-1.1,2.7-1.1
		c1.1,0,2,0.4,2.7,1.1c0.7,0.7,1.1,1.6,1.1,2.7c0,1.1-0.4,2-1.1,2.7C294.7,7.2,293.8,7.5,292.7,7.5z M289.3,35.8V10.2h6.9v25.6
		H289.3z"/>
	<path class="st0" d="M24.8,77.3c0.3,0.3,0.5,0.9,0.5,1.7v4.9h-0.7c-3,0-5.1-1-6.4-2.9c-2.1,2.2-5.1,3.3-9.1,3.3
		c-2.5,0-4.6-0.7-6.1-2c-1.5-1.4-2.2-3.2-2.2-5.5c0-2.2,0.7-4.1,2.1-5.6s3.6-2.4,6.5-2.8c3.7-0.4,6.2-1,7.4-1.7v-0.1
		c0-0.8-0.4-1.5-1.2-2s-1.8-0.8-2.9-0.8c-0.6,0-1.2,0-1.7,0.1c-0.5,0.1-1,0.2-1.5,0.4s-0.8,0.3-1,0.4c-0.2,0.1-0.6,0.3-1,0.6
		c-0.4,0.3-0.7,0.4-0.7,0.4c-0.6,0.3-1.1,0.4-1.7,0.3s-1-0.4-1.3-0.8l-2.1-2.9c0.3-0.4,0.8-0.9,1.4-1.3c0.6-0.5,1.3-0.9,2.2-1.5
		c0.9-0.5,1.9-0.9,3.2-1.3c1.2-0.3,2.5-0.5,3.8-0.5c3.8,0,6.6,0.9,8.6,2.6c2,1.7,2.9,4.3,2.9,7.7v7.2C23.8,76.2,24.1,76.8,24.8,77.3
		L24.8,77.3z M10,78.5c0.7,0,1.4,0,2-0.1c0.6-0.1,1.2-0.3,1.9-0.5c0.6-0.3,1.2-0.6,1.6-1s0.8-1,1.1-1.7c0.3-0.7,0.4-1.5,0.4-2.4V72
		c-1.3,1.1-3.3,1.7-6,1.7c-1.2,0.1-2.2,0.4-2.7,0.8c-0.6,0.4-0.9,1-0.9,1.8c0,0.7,0.2,1.2,0.7,1.6C8.5,78.3,9.2,78.5,10,78.5z"/>
	<path class="st0" d="M58,79.1c2.8,0,5,0.6,6.5,1.7s2.2,2.8,2.2,5c0,2.2-1,4.1-3.1,5.5c-2.1,1.4-5.3,2.1-9.7,2.1
		c-3.9,0-6.9-0.7-9.1-2.2c-2.2-1.4-3.3-3.3-3.3-5.4c0-1.4,0.3-2.6,1-3.5s1.4-1.6,2.1-1.9c-0.4-0.1-0.8-0.4-1.2-1s-0.7-1.3-0.7-2.2
		c0-1.7,0.7-2.9,2.2-3.8c-1.7-1.7-2.6-3.8-2.6-6.3c0-3,1-5.3,2.9-6.9c1.9-1.6,4.6-2.4,8-2.4c2.6,0,4.8,0.5,6.6,1.5
		c0.6-0.6,1.5-0.9,2.6-0.9h3.5v4c0,0.5-0.1,0.8-0.4,1.1c-0.3,0.3-0.6,0.4-1.1,0.4h-0.7c0.3,1,0.5,2.1,0.5,3.3c0,3-1,5.3-3.1,6.9
		s-4.9,2.4-8.4,2.4h-1.7c-0.6,0-1.2,0.1-1.6,0.3c-0.4,0.2-0.6,0.6-0.6,1c0,0.9,0.9,1.4,2.7,1.4H58z M54,87.6c2.3,0,3.9-0.2,5-0.6
		c1.1-0.4,1.6-0.9,1.6-1.6c0-1-0.9-1.6-2.8-1.6h-7c-2,0-2.9,0.5-2.9,1.6c0,0.6,0.6,1.1,1.8,1.5C50.7,87.4,52.2,87.6,54,87.6z
		 M56.4,64.4c-0.8-0.6-1.9-0.9-3.3-0.9s-2.5,0.3-3.3,0.9s-1.2,1.5-1.2,2.5c0,1.1,0.4,2,1.2,2.6s1.9,0.9,3.2,0.9
		c1.4,0,2.5-0.3,3.3-0.9c0.8-0.6,1.2-1.5,1.2-2.6C57.6,65.9,57.2,65,56.4,64.4z"/>
	<path class="st0" d="M86.4,58.2h6.9v25.6h-5.2c-0.3,0-0.5-0.1-0.7-0.3s-0.3-0.4-0.3-0.7V81c-1.8,2.2-4.1,3.3-6.9,3.3
		c-3.3,0-5.9-0.9-7.6-2.7c-1.7-1.8-2.5-4.4-2.5-7.9V58.2h6.9v14.3c0,1.9,0.3,3.4,1,4.3c0.6,0.9,1.8,1.4,3.4,1.4
		c1.6,0,2.8-0.5,3.7-1.5s1.3-2.4,1.3-4.2V58.2z"/>
	<path class="st0" d="M108.4,84.3c-2.2,0-4.2-0.3-6.1-0.9c-1.9-0.6-3.4-1.4-4.5-2.4l2.7-4.1c0.2-0.3,0.5-0.5,0.8-0.5
		c0.3-0.1,0.7,0,1,0.2c2,1.2,4,1.7,6,1.7c1.2,0,2.1-0.2,2.7-0.6c0.6-0.4,0.9-0.9,0.9-1.6c0-0.5-0.2-1-0.6-1.3s-1-0.6-1.7-0.8
		c-0.6-0.2-1.5-0.4-2.7-0.6c-1.2-0.2-2.1-0.5-2.8-0.7c-1.8-0.5-3.2-1.3-4.3-2.6s-1.6-2.8-1.6-4.5c0-2.4,0.9-4.4,2.7-5.8
		c1.8-1.5,4.2-2.2,7.1-2.2c1.9,0,3.7,0.3,5.4,0.9c1.7,0.6,3.1,1.4,4.1,2.3l-2.5,4.1c-0.4,0.7-1,0.8-1.7,0.4c-2-1.2-4-1.8-6-1.8
		c-0.8,0-1.4,0.2-1.8,0.5s-0.7,0.7-0.7,1.2c0,0.4,0.1,0.7,0.4,1s0.7,0.5,1.2,0.6c1.1,0.3,2.6,0.8,4.5,1.2c2.5,0.6,4.4,1.6,5.7,3
		c1.3,1.4,2,3.1,2,5c0,2.5-0.9,4.4-2.7,5.9C114,83.6,111.5,84.3,108.4,84.3z"/>
	<path class="st0" d="M138.4,64.3h-7.4v10.4c0,0.8,0.3,1.5,0.8,2.1c0.5,0.5,1.2,0.8,2,0.8h2.9c0.6,0,1,0.2,1.3,0.5
		c0.3,0.3,0.5,0.8,0.5,1.3v4.6h-5.3c-2.8,0-5.1-0.8-6.7-2.5s-2.4-3.9-2.4-6.8V64.3h-2.2c-0.5,0-1-0.2-1.3-0.5S120,63,120,62.5v-4.2
		h4v-8.5h6.9v8.5h7.4V64.3z"/>
	<path class="st0" d="M165.7,77.3c0.3,0.3,0.5,0.9,0.5,1.7v4.9h-0.7c-3,0-5.1-1-6.4-2.9c-2.1,2.2-5.1,3.3-9.1,3.3
		c-2.5,0-4.6-0.7-6.1-2c-1.5-1.4-2.2-3.2-2.2-5.5c0-2.2,0.7-4.1,2.1-5.6s3.6-2.4,6.5-2.8c3.7-0.4,6.2-1,7.4-1.7v-0.1
		c0-0.8-0.4-1.5-1.2-2s-1.8-0.8-2.9-0.8c-0.6,0-1.2,0-1.7,0.1c-0.5,0.1-1,0.2-1.5,0.4s-0.8,0.3-1,0.4c-0.2,0.1-0.6,0.3-1,0.6
		c-0.4,0.3-0.7,0.4-0.7,0.4c-0.6,0.3-1.1,0.4-1.7,0.3s-1-0.4-1.3-0.8l-2.1-2.9c0.3-0.4,0.8-0.9,1.4-1.3c0.6-0.5,1.3-0.9,2.2-1.5
		c0.9-0.5,1.9-0.9,3.2-1.3c1.2-0.3,2.5-0.5,3.8-0.5c3.8,0,6.6,0.9,8.6,2.6c2,1.7,2.9,4.3,2.9,7.7v7.2
		C164.7,76.2,165.1,76.8,165.7,77.3L165.7,77.3z M151,78.5c0.7,0,1.4,0,2-0.1c0.6-0.1,1.2-0.3,1.9-0.5c0.6-0.3,1.2-0.6,1.6-1
		s0.8-1,1.1-1.7c0.3-0.7,0.4-1.5,0.4-2.4V72c-1.3,1.1-3.3,1.7-6,1.7c-1.2,0.1-2.2,0.4-2.7,0.8c-0.6,0.4-0.9,1-0.9,1.8
		c0,0.7,0.2,1.2,0.7,1.6C149.5,78.3,150.2,78.5,151,78.5z"/>
	<path class="st0" d="M184.7,58.2h0.4v3.9c0,0.6-0.2,1-0.5,1.3s-0.7,0.5-1.2,0.5h-0.3c-2,0-3.4,0.6-4.4,1.8c-1,1.2-1.5,2.8-1.5,5v13
		h-6.9V58.2h5.2c0.3,0,0.5,0.1,0.7,0.3c0.2,0.2,0.3,0.4,0.3,0.7v2.5C178.4,59.4,181.2,58.2,184.7,58.2z"/>
	<path class="st0" d="M199.6,57.7c3.9,0,7,1.3,9.4,3.8s3.6,5.9,3.6,10v1.1c0,0.3-0.1,0.5-0.3,0.7c-0.2,0.2-0.4,0.3-0.7,0.3h-17.9
		c0.4,1.4,1.1,2.6,2.1,3.5c1,0.9,2.3,1.3,3.8,1.3c1.1,0,2.1-0.3,2.9-0.8c0.8-0.5,1.4-1.2,1.9-2c0.3-0.5,0.8-0.6,1.3-0.4l5.8,2
		c-0.9,2.2-2.3,4-4.3,5.3c-2,1.3-4.5,1.9-7.5,1.9c-3.9,0-7.1-1.2-9.5-3.7c-2.4-2.4-3.6-5.6-3.6-9.6c0-4,1.2-7.3,3.6-9.7
		C192.5,58.9,195.7,57.7,199.6,57.7z M199.6,63.7c-1.4,0-2.6,0.4-3.6,1.1c-1,0.7-1.7,1.8-2.1,3.1h11.3c-0.5-1.3-1.2-2.3-2.2-3.1
		C202.1,64.1,200.9,63.7,199.6,63.7z"/>
	<path class="st0" d="M18.8,106.2h6.9v25.6h-5.2c-0.3,0-0.5-0.1-0.7-0.3s-0.3-0.4-0.3-0.7V129c-1.8,2.2-4.1,3.3-6.9,3.3
		c-3.3,0-5.9-0.9-7.6-2.7c-1.7-1.8-2.5-4.4-2.5-7.9v-15.4h6.9v14.3c0,1.9,0.3,3.4,1,4.3c0.6,0.9,1.8,1.4,3.4,1.4
		c1.6,0,2.8-0.5,3.7-1.5s1.3-2.4,1.3-4.2V106.2z"/>
	<path class="st0" d="M45.5,105.8c3.3,0,5.8,0.9,7.5,2.8c1.7,1.9,2.6,4.6,2.6,8.1v15.1h-6.9v-14.3c0-1.9-0.3-3.4-1-4.3
		s-1.8-1.4-3.4-1.4c-1.6,0-2.8,0.5-3.7,1.5s-1.3,2.4-1.3,4.2v14.3h-6.9v-25.6h5.2c0.3,0,0.5,0.1,0.7,0.3c0.2,0.2,0.3,0.4,0.3,0.7
		v1.9C40.5,106.9,42.8,105.8,45.5,105.8z"/>
	<path class="st0" d="M89.9,105.8c3.5,0,6.3,1.2,8.4,3.6c2.1,2.4,3.1,5.6,3.1,9.6c0,4.2-1,7.5-3.1,9.8c-2.1,2.3-5,3.5-8.8,3.5
		c-2.8,0-5-0.8-6.8-2.3v10.3h-6.9v-34.1h5.2c0.3,0,0.5,0.1,0.7,0.3c0.2,0.2,0.3,0.4,0.3,0.7v2.2C84,107,86.7,105.8,89.9,105.8z
		 M88.5,126.3c1.8,0,3.3-0.7,4.3-2c1.1-1.3,1.6-3.1,1.6-5.2c0-2.2-0.5-3.9-1.5-5.2c-1-1.3-2.5-2-4.3-2s-3.3,0.6-4.4,1.9
		c-1.1,1.2-1.6,2.9-1.7,5v0.5c0,2.2,0.5,3.9,1.6,5.2C85.2,125.6,86.7,126.3,88.5,126.3z"/>
	<path class="st0" d="M117.2,105.7c3.9,0,7,1.3,9.4,3.8s3.6,5.9,3.6,10v1.1c0,0.3-0.1,0.5-0.3,0.7c-0.2,0.2-0.4,0.3-0.7,0.3h-17.9
		c0.4,1.4,1.1,2.6,2.1,3.5c1,0.9,2.3,1.3,3.8,1.3c1.1,0,2.1-0.3,2.9-0.8c0.8-0.5,1.4-1.2,1.9-2c0.3-0.5,0.8-0.6,1.3-0.4l5.8,2
		c-0.9,2.2-2.3,4-4.3,5.3c-2,1.3-4.5,1.9-7.5,1.9c-3.9,0-7.1-1.2-9.5-3.7c-2.4-2.4-3.6-5.6-3.6-9.6c0-4,1.2-7.3,3.6-9.7
		C110.1,106.9,113.3,105.7,117.2,105.7z M117.2,111.7c-1.4,0-2.6,0.4-3.6,1.1c-1,0.7-1.7,1.8-2.1,3.1h11.3c-0.5-1.3-1.2-2.3-2.2-3.1
		C119.7,112.1,118.5,111.7,117.2,111.7z"/>
	<path class="st0" d="M148,105.8c3.3,0,5.8,0.9,7.5,2.8c1.7,1.9,2.6,4.6,2.6,8.1v15.1h-6.9v-14.3c0-1.9-0.3-3.4-1-4.3
		s-1.8-1.4-3.4-1.4c-1.6,0-2.8,0.5-3.7,1.5s-1.3,2.4-1.3,4.2v14.3h-6.9v-25.6h5.2c0.3,0,0.5,0.1,0.7,0.3c0.2,0.2,0.3,0.4,0.3,0.7
		v1.9C142.9,106.9,145.2,105.8,148,105.8z"/>
	<path class="st0" d="M172.8,132.3c-2.2,0-4.2-0.3-6.1-0.9c-1.9-0.6-3.4-1.4-4.5-2.4l2.7-4.1c0.2-0.3,0.5-0.5,0.8-0.5
		c0.3-0.1,0.7,0,1,0.2c2,1.2,4,1.7,6,1.7c1.2,0,2.1-0.2,2.7-0.6c0.6-0.4,0.9-0.9,0.9-1.6c0-0.5-0.2-1-0.6-1.3s-1-0.6-1.7-0.8
		c-0.6-0.2-1.5-0.4-2.7-0.6c-1.2-0.2-2.1-0.5-2.8-0.7c-1.8-0.5-3.2-1.3-4.3-2.6s-1.6-2.8-1.6-4.5c0-2.4,0.9-4.4,2.7-5.8
		c1.8-1.5,4.2-2.2,7.1-2.2c1.9,0,3.7,0.3,5.4,0.9c1.7,0.6,3.1,1.4,4.1,2.3l-2.5,4.1c-0.4,0.7-1,0.8-1.7,0.4c-2-1.2-4-1.8-6-1.8
		c-0.8,0-1.4,0.2-1.8,0.5s-0.7,0.7-0.7,1.2c0,0.4,0.1,0.7,0.4,1s0.7,0.5,1.2,0.6c1.1,0.3,2.6,0.8,4.5,1.2c2.5,0.6,4.4,1.6,5.7,3
		c1.3,1.4,2,3.1,2,5c0,2.5-0.9,4.4-2.7,5.9C178.5,131.6,176,132.3,172.8,132.3z"/>
	<path class="st0" d="M190.8,103.5c-1.1,0-2-0.3-2.7-1c-0.7-0.7-1-1.6-1-2.7c0-1.1,0.3-2,1-2.7c0.7-0.7,1.6-1.1,2.7-1.1
		c1.1,0,2,0.4,2.7,1.1c0.7,0.7,1.1,1.6,1.1,2.7c0,1.1-0.4,2-1.1,2.7C192.8,103.2,191.9,103.5,190.8,103.5z M187.3,131.8v-25.6h6.9
		v25.6H187.3z"/>
	<path class="st0" d="M212,105.7c3.9,0,7,1.3,9.4,3.8s3.6,5.9,3.6,10v1.1c0,0.3-0.1,0.5-0.3,0.7c-0.2,0.2-0.4,0.3-0.7,0.3h-17.9
		c0.4,1.4,1.1,2.6,2.1,3.5c1,0.9,2.3,1.3,3.8,1.3c1.1,0,2.1-0.3,2.9-0.8c0.8-0.5,1.4-1.2,1.9-2c0.3-0.5,0.8-0.6,1.3-0.4l5.8,2
		c-0.9,2.2-2.3,4-4.3,5.3c-2,1.3-4.5,1.9-7.5,1.9c-3.9,0-7.1-1.2-9.5-3.7c-2.4-2.4-3.6-5.6-3.6-9.6c0-4,1.2-7.3,3.6-9.7
		C205,106.9,208.1,105.7,212,105.7z M212,111.7c-1.4,0-2.6,0.4-3.6,1.1c-1,0.7-1.7,1.8-2.1,3.1h11.3c-0.5-1.3-1.2-2.3-2.2-3.1
		C214.5,112.1,213.4,111.7,212,111.7z"/>
	<path class="st0" d="M243.6,106.2h0.4v3.9c0,0.6-0.2,1-0.5,1.3s-0.7,0.5-1.2,0.5H242c-2,0-3.4,0.6-4.4,1.8c-1,1.2-1.5,2.8-1.5,5v13
		h-6.9v-25.6h5.2c0.3,0,0.5,0.1,0.7,0.3c0.2,0.2,0.3,0.4,0.3,0.7v2.5C237.3,107.4,240.1,106.2,243.6,106.2z"/>
	<path class="st0" d="M267.6,128.7c-2.3,2.4-5.4,3.6-9.4,3.6s-7-1.2-9.4-3.6c-2.3-2.4-3.5-5.7-3.5-9.7s1.2-7.3,3.5-9.7
		c2.3-2.4,5.4-3.6,9.4-3.6s7,1.2,9.4,3.6c2.3,2.4,3.5,5.7,3.5,9.7C271.1,123.1,269.9,126.3,267.6,128.7z M253.9,124.3
		c1,1.3,2.5,2,4.4,2c1.9,0,3.3-0.7,4.4-2s1.6-3.1,1.6-5.3s-0.5-3.9-1.6-5.3s-2.5-2-4.4-2c-1.9,0-3.3,0.7-4.4,2s-1.6,3.1-1.6,5.3
		S252.9,123,253.9,124.3z"/>
	<path class="st0" d="M13.7,180.4c-3.9,0-7.1-1.2-9.4-3.7c-2.3-2.4-3.5-5.6-3.5-9.6c0-4.1,1.2-7.4,3.5-9.8s5.4-3.6,9.4-3.6
		c3.1,0,5.7,0.8,7.8,2.3c2.1,1.5,3.5,3.8,4.2,6.7l-5.3,1c-1,0.2-1.7-0.1-2.1-0.9c-0.8-2.1-2.4-3.1-4.6-3.1c-1.9,0-3.4,0.7-4.4,2
		c-1,1.4-1.5,3.1-1.5,5.3c0,2.1,0.5,3.8,1.6,5.2c1,1.3,2.5,2,4.4,2c1.3,0,2.3-0.3,3-0.8c0.7-0.6,1.3-1.4,1.7-2.6
		c0.2-0.4,0.5-0.7,0.9-0.9c0.4-0.2,0.9-0.2,1.3-0.1l5.2,1c-0.6,3.1-2.1,5.4-4.2,7.1C19.5,179.5,16.8,180.4,13.7,180.4z"/>
	<path class="st0" d="M44.2,154.2h0.4v3.9c0,0.6-0.2,1-0.5,1.3s-0.7,0.5-1.2,0.5h-0.3c-2,0-3.4,0.6-4.4,1.8c-1,1.2-1.5,2.8-1.5,5v13
		h-6.9v-25.6h5.2c0.3,0,0.5,0.1,0.7,0.3c0.2,0.2,0.3,0.4,0.3,0.7v2.5C37.9,155.4,40.7,154.2,44.2,154.2z"/>
	<path class="st0" d="M59.1,153.7c3.9,0,7,1.3,9.4,3.8s3.6,5.9,3.6,10v1.1c0,0.3-0.1,0.5-0.3,0.7c-0.2,0.2-0.4,0.3-0.7,0.3H53.2
		c0.4,1.4,1.1,2.6,2.1,3.5c1,0.9,2.3,1.3,3.8,1.3c1.1,0,2.1-0.3,2.9-0.8c0.8-0.5,1.4-1.2,1.9-2c0.3-0.5,0.8-0.6,1.3-0.4l5.8,2
		c-0.9,2.2-2.3,4-4.3,5.3c-2,1.3-4.5,1.9-7.5,1.9c-3.9,0-7.1-1.2-9.5-3.7c-2.4-2.4-3.6-5.6-3.6-9.6c0-4,1.2-7.3,3.6-9.7
		C52,154.9,55.2,153.7,59.1,153.7z M59.1,159.7c-1.4,0-2.6,0.4-3.6,1.1c-1,0.7-1.7,1.8-2.1,3.1h11.3c-0.5-1.3-1.2-2.3-2.2-3.1
		C61.6,160.1,60.4,159.7,59.1,159.7z"/>
	<path class="st0" d="M104.5,153.7c3.1,0,5.5,0.9,7.1,2.8c1.6,1.9,2.4,4.6,2.4,8.1v15.2h-6.9v-14.4c0-1.9-0.3-3.3-0.9-4.2
		s-1.6-1.3-3-1.3c-1.5,0-2.6,0.5-3.3,1.4c-0.7,0.9-1,2.3-1,4.2v14.4h-6.9v-14.4c0-1.9-0.3-3.3-1-4.2c-0.6-0.9-1.7-1.4-3-1.4
		c-1.5,0-2.6,0.5-3.2,1.4s-1,2.4-1,4.3v14.3h-6.9v-25.6H82c0.3,0,0.5,0.1,0.7,0.3c0.2,0.2,0.3,0.4,0.3,0.7v1.7
		c1.7-2.1,3.8-3.1,6.4-3.1c3.7,0,6.3,1.3,7.9,3.9C99.1,155,101.5,153.7,104.5,153.7z"/>
	<path class="st0" d="M140.6,176.7c-2.3,2.4-5.4,3.6-9.4,3.6s-7-1.2-9.4-3.6c-2.3-2.4-3.5-5.7-3.5-9.7s1.2-7.3,3.5-9.7
		c2.3-2.4,5.4-3.6,9.4-3.6s7,1.2,9.4,3.6c2.3,2.4,3.5,5.7,3.5,9.7C144.1,171.1,142.9,174.3,140.6,176.7z M126.9,172.3
		c1,1.3,2.5,2,4.4,2c1.9,0,3.3-0.7,4.4-2s1.6-3.1,1.6-5.3s-0.5-3.9-1.6-5.3s-2.5-2-4.4-2c-1.9,0-3.3,0.7-4.4,2s-1.6,3.1-1.6,5.3
		S125.8,171,126.9,172.3z"/>
	<path class="st0" d="M157.1,180.3c-2.2,0-4.2-0.3-6.1-0.9c-1.9-0.6-3.4-1.4-4.5-2.4l2.7-4.1c0.2-0.3,0.5-0.5,0.8-0.5
		c0.3-0.1,0.7,0,1,0.2c2,1.2,4,1.7,6,1.7c1.2,0,2.1-0.2,2.7-0.6c0.6-0.4,0.9-0.9,0.9-1.6c0-0.5-0.2-1-0.6-1.3s-1-0.6-1.7-0.8
		c-0.6-0.2-1.5-0.4-2.7-0.6c-1.2-0.2-2.1-0.5-2.8-0.7c-1.8-0.5-3.2-1.3-4.3-2.6s-1.6-2.8-1.6-4.5c0-2.4,0.9-4.4,2.7-5.8
		c1.8-1.5,4.2-2.2,7.1-2.2c1.9,0,3.7,0.3,5.4,0.9c1.7,0.6,3.1,1.4,4.1,2.3l-2.5,4.1c-0.4,0.7-1,0.8-1.7,0.4c-2-1.2-4-1.8-6-1.8
		c-0.8,0-1.4,0.2-1.8,0.5s-0.7,0.7-0.7,1.2c0,0.4,0.1,0.7,0.4,1s0.7,0.5,1.2,0.6c1.1,0.3,2.6,0.8,4.5,1.2c2.5,0.6,4.4,1.6,5.7,3
		c1.3,1.4,2,3.1,2,5c0,2.5-0.9,4.4-2.7,5.9C162.8,179.6,160.3,180.3,157.1,180.3z"/>
	<path class="st0" d="M192,176.7c-2.3,2.4-5.4,3.6-9.4,3.6s-7-1.2-9.4-3.6c-2.3-2.4-3.5-5.7-3.5-9.7s1.2-7.3,3.5-9.7
		c2.3-2.4,5.4-3.6,9.4-3.6s7,1.2,9.4,3.6c2.3,2.4,3.5,5.7,3.5,9.7C195.4,171.1,194.3,174.3,192,176.7z M178.3,172.3
		c1,1.3,2.5,2,4.4,2c1.9,0,3.3-0.7,4.4-2s1.6-3.1,1.6-5.3s-0.5-3.9-1.6-5.3s-2.5-2-4.4-2c-1.9,0-3.3,0.7-4.4,2s-1.6,3.1-1.6,5.3
		S177.2,171,178.3,172.3z"/>
	<path class="st0" d="M18.4,208.3h-7.4v10.4c0,0.8,0.3,1.5,0.8,2.1c0.5,0.5,1.2,0.8,2,0.8h2.9c0.6,0,1,0.2,1.3,0.5s0.5,0.8,0.5,1.3
		v4.6h-5.3c-2.8,0-5.1-0.8-6.7-2.5c-1.6-1.6-2.4-3.9-2.4-6.8v-10.4H1.8c-0.5,0-1-0.2-1.3-0.5S0,207,0,206.5v-4.2h4v-8.5h6.9v8.5h7.4
		V208.3z"/>
	<path class="st0" d="M45.7,221.3c0.3,0.3,0.5,0.9,0.5,1.7v4.9h-0.7c-3,0-5.1-1-6.4-2.9c-2.1,2.2-5.1,3.3-9.1,3.3
		c-2.5,0-4.6-0.7-6.1-2c-1.5-1.4-2.2-3.2-2.2-5.5c0-2.2,0.7-4.1,2.1-5.6s3.6-2.4,6.5-2.8c3.7-0.4,6.2-1,7.4-1.7v-0.1
		c0-0.8-0.4-1.5-1.2-2c-0.8-0.5-1.8-0.8-2.9-0.8c-0.6,0-1.2,0-1.7,0.1c-0.5,0.1-1,0.2-1.5,0.4c-0.5,0.2-0.8,0.3-1,0.4
		s-0.6,0.3-1,0.6c-0.4,0.3-0.7,0.4-0.7,0.4c-0.6,0.3-1.1,0.4-1.7,0.3c-0.6-0.1-1-0.4-1.3-0.8l-2.1-2.9c0.3-0.4,0.8-0.9,1.4-1.3
		s1.3-0.9,2.2-1.5c0.9-0.5,1.9-0.9,3.2-1.3c1.2-0.3,2.5-0.5,3.8-0.5c3.8,0,6.6,0.9,8.6,2.6c2,1.7,2.9,4.3,2.9,7.7v7.2
		C44.7,220.2,45,220.8,45.7,221.3L45.7,221.3z M31,222.5c0.7,0,1.4,0,2-0.1c0.6-0.1,1.2-0.3,1.9-0.5c0.6-0.3,1.2-0.6,1.6-1
		c0.4-0.4,0.8-1,1.1-1.7c0.3-0.7,0.4-1.5,0.4-2.4V216c-1.3,1.1-3.3,1.7-6,1.7c-1.2,0.1-2.2,0.4-2.7,0.8c-0.6,0.4-0.9,1-0.9,1.8
		c0,0.7,0.2,1.2,0.7,1.6C29.5,222.3,30.1,222.5,31,222.5z"/>
	<path class="st0" d="M64.7,202.2h0.4v3.9c0,0.5-0.2,1-0.5,1.3s-0.7,0.5-1.2,0.5h-0.3c-2,0-3.4,0.6-4.4,1.8c-1,1.2-1.5,2.8-1.5,5v13
		h-6.9v-25.6h5.2c0.3,0,0.5,0.1,0.7,0.3c0.2,0.2,0.3,0.4,0.3,0.7v2.5C58.4,203.4,61.2,202.2,64.7,202.2z"/>
	<path class="st0" d="M83.1,223.1c2.8,0,5,0.6,6.5,1.7s2.2,2.8,2.2,5c0,2.2-1,4.1-3.1,5.5c-2.1,1.4-5.3,2.1-9.7,2.1
		c-3.9,0-6.9-0.7-9.1-2.2c-2.2-1.4-3.3-3.3-3.3-5.4c0-1.4,0.3-2.5,1-3.5c0.7-1,1.4-1.6,2.1-1.9c-0.4-0.1-0.8-0.4-1.2-1
		s-0.7-1.3-0.7-2.2c0-1.7,0.7-2.9,2.2-3.8c-1.7-1.7-2.6-3.8-2.6-6.3c0-3,1-5.3,2.9-6.9c1.9-1.6,4.6-2.4,8-2.4c2.6,0,4.8,0.5,6.6,1.5
		c0.6-0.6,1.5-0.9,2.6-0.9h3.5v4c0,0.5-0.1,0.8-0.4,1.1c-0.3,0.3-0.6,0.4-1.1,0.4h-0.7c0.3,1,0.5,2.1,0.5,3.3c0,3-1,5.3-3.1,6.9
		c-2.1,1.6-4.9,2.4-8.4,2.4h-1.7c-0.6,0-1.2,0.1-1.6,0.3c-0.4,0.2-0.6,0.6-0.6,1c0,0.9,0.9,1.4,2.7,1.4H83.1z M79.1,231.6
		c2.3,0,3.9-0.2,5-0.6c1.1-0.4,1.6-0.9,1.6-1.6c0-1-0.9-1.6-2.8-1.6h-7c-2,0-2.9,0.5-2.9,1.6c0,0.6,0.6,1.1,1.8,1.5
		C75.8,231.4,77.3,231.6,79.1,231.6z M81.5,208.4c-0.8-0.6-1.9-0.9-3.3-0.9s-2.5,0.3-3.3,0.9s-1.2,1.5-1.2,2.5c0,1.1,0.4,2,1.2,2.6
		c0.8,0.6,1.9,0.9,3.2,0.9c1.4,0,2.5-0.3,3.3-0.9c0.8-0.6,1.2-1.5,1.2-2.6C82.7,209.9,82.3,209,81.5,208.4z"/>
	<path class="st0" d="M116.8,221.3c0.3,0.3,0.5,0.9,0.5,1.7v4.9h-0.7c-3,0-5.1-1-6.4-2.9c-2.1,2.2-5.1,3.3-9.1,3.3
		c-2.5,0-4.6-0.7-6.1-2c-1.5-1.4-2.2-3.2-2.2-5.5c0-2.2,0.7-4.1,2.1-5.6s3.6-2.4,6.5-2.8c3.7-0.4,6.2-1,7.4-1.7v-0.1
		c0-0.8-0.4-1.5-1.2-2c-0.8-0.5-1.8-0.8-2.9-0.8c-0.6,0-1.2,0-1.7,0.1c-0.5,0.1-1,0.2-1.5,0.4c-0.5,0.2-0.8,0.3-1,0.4
		s-0.6,0.3-1,0.6c-0.4,0.3-0.7,0.4-0.7,0.4c-0.6,0.3-1.1,0.4-1.7,0.3c-0.6-0.1-1-0.4-1.3-0.8l-2.1-2.9c0.3-0.4,0.8-0.9,1.4-1.3
		s1.3-0.9,2.2-1.5c0.9-0.5,1.9-0.9,3.2-1.3c1.2-0.3,2.5-0.5,3.8-0.5c3.8,0,6.6,0.9,8.6,2.6c2,1.7,2.9,4.3,2.9,7.7v7.2
		C115.9,220.2,116.2,220.8,116.8,221.3L116.8,221.3z M102.1,222.5c0.7,0,1.4,0,2-0.1c0.6-0.1,1.2-0.3,1.9-0.5c0.6-0.3,1.2-0.6,1.6-1
		c0.4-0.4,0.8-1,1.1-1.7c0.3-0.7,0.4-1.5,0.4-2.4V216c-1.3,1.1-3.3,1.7-6,1.7c-1.2,0.1-2.2,0.4-2.7,0.8c-0.6,0.4-0.9,1-0.9,1.8
		c0,0.7,0.2,1.2,0.7,1.6C100.6,222.3,101.3,222.5,102.1,222.5z"/>
	<path class="st0" d="M137.5,208.3h-7.4v10.4c0,0.8,0.3,1.5,0.8,2.1c0.5,0.5,1.2,0.8,2,0.8h2.9c0.6,0,1,0.2,1.3,0.5s0.5,0.8,0.5,1.3
		v4.6h-5.3c-2.8,0-5.1-0.8-6.7-2.5c-1.6-1.6-2.4-3.9-2.4-6.8v-10.4h-2.2c-0.5,0-1-0.2-1.3-0.5s-0.5-0.8-0.5-1.3v-4.2h4v-8.5h6.9v8.5
		h7.4V208.3z"/>
	<path class="st0" d="M163.1,224.7c-2.3,2.4-5.4,3.6-9.4,3.6s-7-1.2-9.4-3.6c-2.3-2.4-3.5-5.7-3.5-9.7c0-4.1,1.2-7.3,3.5-9.7
		c2.3-2.4,5.4-3.6,9.4-3.6s7,1.2,9.4,3.6c2.3,2.4,3.5,5.7,3.5,9.7C166.6,219.1,165.4,222.3,163.1,224.7z M149.4,220.3
		c1,1.3,2.5,2,4.4,2c1.9,0,3.3-0.7,4.4-2c1-1.3,1.6-3.1,1.6-5.3c0-2.2-0.5-3.9-1.6-5.3s-2.5-2-4.4-2c-1.9,0-3.3,0.7-4.4,2
		s-1.6,3.1-1.6,5.3C147.8,217.2,148.4,219,149.4,220.3z"/>
	<path class="st0" d="M223.5,193.7v34.1h-7.2v-19.6c0-0.9,0.2-1.9,0.5-2.9c0-0.1,0-0.1,0-0.2c0-0.1-0.1-0.1-0.2-0.1h0l-8.7,22.8
		h-7.1l-8.7-22.8c-0.1,0-0.1,0-0.2,0.1c0,0.1-0.1,0.1,0,0.2c0.3,1,0.5,2,0.5,2.9v19.6h-7.2v-34.1h10.3l8.7,23.4
		c0.1,0.3,0.1,0.4,0.1,0.5v0.9c0,0.2,0.1,0.3,0.2,0.3h0l9.5-25.1H223.5z"/>
	<path class="st0" d="M252.4,221.3c0.3,0.3,0.5,0.9,0.5,1.7v4.9h-0.7c-3,0-5.1-1-6.4-2.9c-2.1,2.2-5.1,3.3-9.1,3.3
		c-2.5,0-4.6-0.7-6.1-2c-1.5-1.4-2.2-3.2-2.2-5.5c0-2.2,0.7-4.1,2.1-5.6s3.6-2.4,6.5-2.8c3.7-0.4,6.2-1,7.4-1.7v-0.1
		c0-0.8-0.4-1.5-1.2-2c-0.8-0.5-1.8-0.8-2.9-0.8c-0.6,0-1.2,0-1.7,0.1c-0.5,0.1-1,0.2-1.5,0.4c-0.5,0.2-0.8,0.3-1,0.4
		s-0.6,0.3-1,0.6c-0.4,0.3-0.7,0.4-0.7,0.4c-0.6,0.3-1.1,0.4-1.7,0.3c-0.6-0.1-1-0.4-1.3-0.8l-2.1-2.9c0.3-0.4,0.8-0.9,1.4-1.3
		s1.3-0.9,2.2-1.5c0.9-0.5,1.9-0.9,3.2-1.3c1.2-0.3,2.5-0.5,3.8-0.5c3.8,0,6.6,0.9,8.6,2.6c2,1.7,2.9,4.3,2.9,7.7v7.2
		C251.4,220.2,251.7,220.8,252.4,221.3L252.4,221.3z M237.6,222.5c0.7,0,1.4,0,2-0.1c0.6-0.1,1.2-0.3,1.9-0.5c0.6-0.3,1.2-0.6,1.6-1
		c0.4-0.4,0.8-1,1.1-1.7c0.3-0.7,0.4-1.5,0.4-2.4V216c-1.3,1.1-3.3,1.7-6,1.7c-1.2,0.1-2.2,0.4-2.7,0.8c-0.6,0.4-0.9,1-0.9,1.8
		c0,0.7,0.2,1.2,0.7,1.6C236.2,222.3,236.8,222.5,237.6,222.5z"/>
	<path class="st0" d="M252.1,236.9v-4.6c0-0.5,0.2-1,0.5-1.3c0.3-0.3,0.8-0.5,1.3-0.5h1.3c0.8,0,1.5-0.3,2-0.8
		c0.5-0.5,0.8-1.2,0.8-2.1v-25.5h6.9v25.5c0,2.9-0.8,5.2-2.4,6.8c-1.6,1.6-3.8,2.5-6.7,2.5H252.1z M264,198.8c-0.7,0.7-1.6,1-2.7,1
		s-2-0.3-2.7-1s-1.1-1.6-1.1-2.7c0-1.1,0.4-2,1.1-2.7c0.7-0.7,1.6-1.1,2.7-1.1s2,0.4,2.7,1.1c0.7,0.7,1.1,1.6,1.1,2.7
		C265.1,197.2,264.8,198.1,264,198.8z"/>
	<path class="st0" d="M293.2,221.3c0.3,0.3,0.5,0.9,0.5,1.7v4.9h-0.7c-3,0-5.1-1-6.4-2.9c-2.1,2.2-5.1,3.3-9.1,3.3
		c-2.5,0-4.6-0.7-6.1-2c-1.5-1.4-2.2-3.2-2.2-5.5c0-2.2,0.7-4.1,2.1-5.6s3.6-2.4,6.5-2.8c3.7-0.4,6.2-1,7.4-1.7v-0.1
		c0-0.8-0.4-1.5-1.2-2c-0.8-0.5-1.8-0.8-2.9-0.8c-0.6,0-1.2,0-1.7,0.1c-0.5,0.1-1,0.2-1.5,0.4c-0.5,0.2-0.8,0.3-1,0.4
		s-0.6,0.3-1,0.6c-0.4,0.3-0.7,0.4-0.7,0.4c-0.6,0.3-1.1,0.4-1.7,0.3c-0.6-0.1-1-0.4-1.3-0.8l-2.1-2.9c0.3-0.4,0.8-0.9,1.4-1.3
		s1.3-0.9,2.2-1.5c0.9-0.5,1.9-0.9,3.2-1.3c1.2-0.3,2.5-0.5,3.8-0.5c3.8,0,6.6,0.9,8.6,2.6c2,1.7,2.9,4.3,2.9,7.7v7.2
		C292.2,220.2,292.6,220.8,293.2,221.3L293.2,221.3z M278.5,222.5c0.7,0,1.4,0,2-0.1c0.6-0.1,1.2-0.3,1.9-0.5c0.6-0.3,1.2-0.6,1.6-1
		c0.4-0.4,0.8-1,1.1-1.7c0.3-0.7,0.4-1.5,0.4-2.4V216c-1.3,1.1-3.3,1.7-6,1.7c-1.2,0.1-2.2,0.4-2.7,0.8c-0.6,0.4-0.9,1-0.9,1.8
		c0,0.7,0.2,1.2,0.7,1.6C277,222.3,277.7,222.5,278.5,222.5z"/>
	<path class="st0" d="M311.4,201.8c3.3,0,5.8,0.9,7.5,2.8c1.7,1.9,2.6,4.6,2.6,8.1v15.1h-6.9v-14.3c0-1.9-0.3-3.4-1-4.3
		c-0.6-0.9-1.8-1.4-3.4-1.4c-1.6,0-2.8,0.5-3.7,1.5s-1.3,2.4-1.3,4.2v14.3h-6.9v-25.6h5.2c0.3,0,0.5,0.1,0.7,0.3
		c0.2,0.2,0.3,0.4,0.3,0.7v1.9C306.3,202.9,308.6,201.8,311.4,201.8z"/>
	<path class="st0" d="M331.4,199.5c-1.1,0-2-0.3-2.7-1c-0.7-0.7-1-1.6-1-2.7c0-1.1,0.3-2,1-2.7c0.7-0.7,1.6-1.1,2.7-1.1
		c1.1,0,2,0.4,2.7,1.1c0.7,0.7,1.1,1.6,1.1,2.7c0,1.1-0.4,2-1.1,2.7S332.5,199.5,331.4,199.5z M328,227.8v-25.6h6.9v25.6H328z"/>
</g>
</svg>
