<?xml version="1.0" encoding="utf-8"?>
<!-- Generator: Adobe Illustrator 24.3.0, SVG Export Plug-In . SVG Version: 6.00 Build 0)  -->
<svg version="1.1" id="Laag_1" xmlns:v="https://vecta.io/nano"
	 xmlns="http://www.w3.org/2000/svg" xmlns:xlink="http://www.w3.org/1999/xlink" x="0px" y="0px" width="335.9px" height="356.4px"
	 viewBox="0 0 335.9 356.4" style="enable-background:new 0 0 335.9 356.4;" xml:space="preserve">
<style type="text/css">
	.st0{fill:#6A3F24;}
</style>
<g>
	<path class="st0" d="M24.8,35.8l-2.7-7.4h-12l-2.7,7.4H0L12.6,1.7h7.5l12.5,34.1H24.8z M12.5,21.7h7.1l-3.1-8.5
		c-0.1-0.2-0.1-0.3-0.1-0.5v-0.4c0-0.2-0.1-0.2-0.2-0.2h0L12.5,21.7z"/>
	<path class="st0" d="M49,9.8c3.3,0,5.8,0.9,7.5,2.8c1.7,1.9,2.6,4.6,2.6,8.1v15.1h-6.9V21.5c0-1.9-0.3-3.4-1-4.3s-1.8-1.4-3.4-1.4
		c-1.6,0-2.8,0.5-3.7,1.5s-1.3,2.4-1.3,4.2v14.3H36V10.2h5.2c0.3,0,0.5,0.1,0.7,0.3c0.2,0.2,0.3,0.4,0.3,0.7v1.9
		C44,10.9,46.3,9.8,49,9.8z"/>
	<path class="st0" d="M81.1,16.3h-7.4v10.4c0,0.8,0.3,1.5,0.8,2.1c0.5,0.5,1.2,0.8,2,0.8h2.9c0.6,0,1,0.2,1.3,0.5
		c0.3,0.3,0.5,0.8,0.5,1.3v4.6h-5.3c-2.8,0-5.1-0.8-6.7-2.5s-2.4-3.9-2.4-6.8V16.3h-2.2c-0.5,0-1-0.2-1.3-0.5s-0.5-0.8-0.5-1.3v-4.2
		h4V1.7h6.9v8.5h7.4V16.3z"/>
	<path class="st0" d="M106.7,32.7c-2.3,2.4-5.4,3.6-9.4,3.6s-7-1.2-9.4-3.6c-2.3-2.4-3.5-5.7-3.5-9.7s1.2-7.3,3.5-9.7
		c2.3-2.4,5.4-3.6,9.4-3.6s7,1.2,9.4,3.6c2.3,2.4,3.5,5.7,3.5,9.7C110.2,27.1,109.1,30.3,106.7,32.7z M93,28.3c1,1.3,2.5,2,4.4,2
		c1.9,0,3.3-0.7,4.4-2s1.6-3.1,1.6-5.3s-0.5-3.9-1.6-5.3s-2.5-2-4.4-2c-1.9,0-3.3,0.7-4.4,2s-1.6,3.1-1.6,5.3S92,27,93,28.3z"/>
	<path class="st0" d="M128,9.8c3.3,0,5.8,0.9,7.5,2.8c1.7,1.9,2.6,4.6,2.6,8.1v15.1h-6.9V21.5c0-1.9-0.3-3.4-1-4.3s-1.8-1.4-3.4-1.4
		c-1.6,0-2.8,0.5-3.7,1.5s-1.3,2.4-1.3,4.2v14.3H115V10.2h5.2c0.3,0,0.5,0.1,0.7,0.3c0.2,0.2,0.3,0.4,0.3,0.7v1.9
		C123,10.9,125.2,9.8,128,9.8z"/>
	<path class="st0" d="M148,7.5c-1.1,0-2-0.3-2.7-1c-0.7-0.7-1-1.6-1-2.7c0-1.1,0.3-2,1-2.7C146,0.4,146.9,0,148,0
		c1.1,0,2,0.4,2.7,1.1c0.7,0.7,1.1,1.6,1.1,2.7c0,1.1-0.4,2-1.1,2.7C150,7.2,149.1,7.5,148,7.5z M144.6,35.8V10.2h6.9v25.6H144.6z"
		/>
	<path class="st0" d="M180.2,29.3c0.3,0.3,0.5,0.9,0.5,1.7v4.9H180c-3,0-5.1-1-6.4-2.9c-2.1,2.2-5.1,3.3-9.1,3.3
		c-2.5,0-4.6-0.7-6.1-2c-1.5-1.4-2.2-3.2-2.2-5.5c0-2.2,0.7-4.1,2.1-5.6s3.6-2.4,6.5-2.8c3.7-0.4,6.2-1,7.4-1.7v-0.1
		c0-0.8-0.4-1.5-1.2-2s-1.8-0.8-2.9-0.8c-0.6,0-1.2,0-1.7,0.1c-0.5,0.1-1,0.2-1.5,0.4s-0.8,0.3-1,0.4c-0.2,0.1-0.6,0.3-1,0.6
		c-0.4,0.3-0.7,0.4-0.7,0.4c-0.6,0.3-1.1,0.4-1.7,0.3s-1-0.4-1.3-0.8l-2.1-2.9c0.3-0.4,0.8-0.9,1.4-1.3c0.6-0.5,1.3-0.9,2.2-1.5
		c0.9-0.5,1.9-0.9,3.2-1.3c1.2-0.3,2.5-0.5,3.8-0.5c3.8,0,6.6,0.9,8.6,2.6c2,1.7,2.9,4.3,2.9,7.7v7.2
		C179.2,28.2,179.5,28.8,180.2,29.3L180.2,29.3z M165.4,30.5c0.7,0,1.4,0,2-0.1c0.6-0.1,1.2-0.3,1.9-0.5c0.6-0.3,1.2-0.6,1.6-1
		s0.8-1,1.1-1.7c0.3-0.7,0.4-1.5,0.4-2.4V24c-1.3,1.1-3.3,1.7-6,1.7c-1.2,0.1-2.2,0.4-2.7,0.8c-0.6,0.4-0.9,1-0.9,1.8
		c0,0.7,0.2,1.2,0.7,1.6C163.9,30.3,164.6,30.5,165.4,30.5z"/>
	<path class="st0" d="M198.3,9.8c3.3,0,5.8,0.9,7.5,2.8c1.7,1.9,2.6,4.6,2.6,8.1v15.1h-6.9V21.5c0-1.9-0.3-3.4-1-4.3
		s-1.8-1.4-3.4-1.4c-1.6,0-2.8,0.5-3.7,1.5c-0.9,1-1.3,2.4-1.3,4.2v14.3h-6.9V10.2h5.2c0.3,0,0.5,0.1,0.7,0.3
		c0.2,0.2,0.3,0.4,0.3,0.7v1.9C193.3,10.9,195.6,9.8,198.3,9.8z"/>
	<path class="st0" d="M235.1,32.7c-2.3,2.4-5.4,3.6-9.4,3.6c-3.9,0-7-1.2-9.3-3.6c-2.3-2.4-3.5-5.7-3.5-9.7s1.2-7.3,3.5-9.7
		c2.3-2.4,5.4-3.6,9.3-3.6c3.9,0,7,1.2,9.4,3.6c2.3,2.4,3.5,5.7,3.5,9.7C238.6,27.1,237.4,30.3,235.1,32.7z M221.4,28.3
		c1,1.3,2.5,2,4.4,2s3.3-0.7,4.4-2c1-1.3,1.6-3.1,1.6-5.3s-0.5-3.9-1.6-5.3c-1-1.3-2.5-2-4.4-2s-3.3,0.7-4.4,2
		c-1,1.3-1.6,3.1-1.6,5.3S220.3,27,221.4,28.3z"/>
	<path class="st0" d="M267.7,36.4c-3.9,0-7.1-1.2-9.4-3.7c-2.3-2.4-3.5-5.6-3.5-9.6c0-4.1,1.2-7.4,3.5-9.8c2.3-2.4,5.4-3.6,9.4-3.6
		c3.1,0,5.7,0.8,7.8,2.3c2.1,1.5,3.5,3.8,4.2,6.7l-5.3,1c-1,0.2-1.7-0.1-2.1-0.9c-0.8-2.1-2.4-3.1-4.6-3.1c-1.9,0-3.4,0.7-4.4,2
		c-1,1.4-1.5,3.1-1.5,5.3c0,2.1,0.5,3.8,1.6,5.2c1,1.3,2.5,2,4.4,2c1.3,0,2.3-0.3,3-0.8c0.7-0.6,1.3-1.4,1.7-2.6
		c0.2-0.4,0.5-0.7,0.9-0.9c0.4-0.2,0.9-0.2,1.3-0.1l5.2,1c-0.6,3.1-2.1,5.4-4.2,7.1C273.5,35.5,270.9,36.4,267.7,36.4z"/>
	<path class="st0" d="M304.5,32.7c-2.3,2.4-5.4,3.6-9.3,3.6c-3.9,0-7-1.2-9.4-3.6c-2.3-2.4-3.5-5.7-3.5-9.7s1.2-7.3,3.5-9.7
		c2.3-2.4,5.4-3.6,9.4-3.6c3.9,0,7,1.2,9.3,3.6c2.3,2.4,3.5,5.7,3.5,9.7C308,27.1,306.9,30.3,304.5,32.7z M290.8,28.3
		c1,1.3,2.5,2,4.4,2c1.9,0,3.3-0.7,4.4-2c1-1.3,1.6-3.1,1.6-5.3s-0.5-3.9-1.6-5.3c-1-1.3-2.5-2-4.4-2c-1.9,0-3.3,0.7-4.4,2
		c-1,1.3-1.6,3.1-1.6,5.3S289.8,27,290.8,28.3z"/>
	<path class="st0" d="M325.8,9.8c3.3,0,5.8,0.9,7.5,2.8c1.7,1.9,2.6,4.6,2.6,8.1v15.1H329V21.5c0-1.9-0.3-3.4-1-4.3
		s-1.8-1.4-3.4-1.4c-1.6,0-2.8,0.5-3.7,1.5c-0.9,1-1.3,2.4-1.3,4.2v14.3h-6.9V10.2h5.2c0.3,0,0.5,0.1,0.7,0.3
		c0.2,0.2,0.3,0.4,0.3,0.7v1.9C320.8,10.9,323,9.8,325.8,9.8z"/>
	<path class="st0" d="M24.8,83.8l-2.7-7.4h-12l-2.7,7.4H0l12.6-34.1h7.5l12.5,34.1H24.8z M12.5,69.7h7.1l-3.1-8.5
		c-0.1-0.2-0.1-0.3-0.1-0.5v-0.4c0-0.2-0.1-0.2-0.2-0.2h0L12.5,69.7z"/>
	<path class="st0" d="M44.5,83.9c-2.7,0-4.7-0.7-6.2-2.2c-1.5-1.5-2.2-3.6-2.2-6.2V49.7h6.9v25.7c0,0.6,0.2,1.2,0.6,1.5
		c0.4,0.4,0.9,0.6,1.5,0.6h1.3c0.5,0,1,0.2,1.3,0.5c0.3,0.3,0.5,0.8,0.5,1.3v4.6H44.5z"/>
	<path class="st0" d="M63.2,84.4c-3.9,0-7.1-1.2-9.4-3.7c-2.3-2.4-3.5-5.6-3.5-9.6c0-4.1,1.2-7.4,3.5-9.8s5.4-3.6,9.4-3.6
		c3.1,0,5.7,0.8,7.8,2.3c2.1,1.5,3.5,3.8,4.2,6.7l-5.3,1c-1,0.2-1.7-0.1-2.1-0.9c-0.8-2.1-2.4-3.1-4.6-3.1c-1.9,0-3.4,0.7-4.4,2
		c-1,1.4-1.5,3.1-1.5,5.3c0,2.1,0.5,3.8,1.6,5.2c1,1.3,2.5,2,4.4,2c1.3,0,2.3-0.3,3-0.8c0.7-0.6,1.3-1.4,1.7-2.6
		c0.2-0.4,0.5-0.7,0.9-0.9c0.4-0.2,0.9-0.2,1.3-0.1l5.2,1c-0.6,3.1-2.1,5.4-4.2,7.1C69,83.5,66.4,84.4,63.2,84.4z"/>
	<path class="st0" d="M91,57.7c3.9,0,7,1.3,9.4,3.8s3.6,5.9,3.6,10v1.1c0,0.3-0.1,0.5-0.3,0.7c-0.2,0.2-0.4,0.3-0.7,0.3H85.1
		c0.4,1.4,1.1,2.6,2.1,3.5c1,0.9,2.3,1.3,3.8,1.3c1.1,0,2.1-0.3,2.9-0.8c0.8-0.5,1.4-1.2,1.9-2c0.3-0.5,0.8-0.6,1.3-0.4l5.8,2
		c-0.9,2.2-2.3,4-4.3,5.3c-2,1.3-4.5,1.9-7.5,1.9c-3.9,0-7.1-1.2-9.5-3.7c-2.4-2.4-3.6-5.6-3.6-9.6c0-4,1.2-7.3,3.6-9.7
		C83.9,58.9,87.1,57.7,91,57.7z M91,63.7c-1.4,0-2.6,0.4-3.6,1.1c-1,0.7-1.7,1.8-2.1,3.1h11.3c-0.5-1.3-1.2-2.3-2.2-3.1
		C93.4,64.1,92.3,63.7,91,63.7z"/>
	<path class="st0" d="M145.2,49.7h7.2v34.1h-7.7l-15.2-23.4h-0.1c-0.1,0-0.1,0-0.2,0.1c0,0.1-0.1,0.1,0,0.2c0.3,1,0.5,2,0.5,2.9
		v20.2h-7.2V49.7h7.7l15.2,23.4h0.1c0.1,0,0.1,0,0.2-0.1c0-0.1,0.1-0.1,0-0.2c-0.3-1-0.5-2-0.5-2.9V49.7z"/>
	<path class="st0" d="M170.5,57.7c3.9,0,7,1.3,9.4,3.8c2.4,2.5,3.6,5.9,3.6,10v1.1c0,0.3-0.1,0.5-0.3,0.7s-0.4,0.3-0.7,0.3h-17.9
		c0.4,1.4,1.1,2.6,2.1,3.5c1,0.9,2.3,1.3,3.8,1.3c1.1,0,2.1-0.3,2.9-0.8c0.8-0.5,1.4-1.2,1.9-2c0.3-0.5,0.8-0.6,1.3-0.4l5.8,2
		c-0.9,2.2-2.3,4-4.3,5.3s-4.5,1.9-7.5,1.9c-3.9,0-7.1-1.2-9.5-3.7c-2.4-2.4-3.6-5.6-3.6-9.6c0-4,1.2-7.3,3.6-9.7
		C163.5,58.9,166.6,57.7,170.5,57.7z M170.5,63.7c-1.4,0-2.6,0.4-3.6,1.1c-1,0.7-1.7,1.8-2.1,3.1h11.3c-0.5-1.3-1.2-2.3-2.2-3.1
		C173,64.1,171.9,63.7,170.5,63.7z"/>
	<path class="st0" d="M202,58.2h0.4v3.9c0,0.6-0.2,1-0.5,1.3s-0.7,0.5-1.2,0.5h-0.3c-2,0-3.4,0.6-4.4,1.8c-1,1.2-1.5,2.8-1.5,5v13
		h-6.9V58.2h5.2c0.3,0,0.5,0.1,0.7,0.3c0.2,0.2,0.3,0.4,0.3,0.7v2.5C195.8,59.4,198.5,58.2,202,58.2z"/>
	<path class="st0" d="M226.1,80.7c-2.3,2.4-5.4,3.6-9.3,3.6c-3.9,0-7-1.2-9.4-3.6c-2.3-2.4-3.5-5.7-3.5-9.7s1.2-7.3,3.5-9.7
		c2.3-2.4,5.4-3.6,9.4-3.6c3.9,0,7,1.2,9.3,3.6c2.3,2.4,3.5,5.7,3.5,9.7C229.6,75.1,228.4,78.3,226.1,80.7z M212.4,76.3
		c1,1.3,2.5,2,4.4,2c1.9,0,3.3-0.7,4.4-2c1-1.3,1.6-3.1,1.6-5.3s-0.5-3.9-1.6-5.3c-1-1.3-2.5-2-4.4-2c-1.9,0-3.3,0.7-4.4,2
		c-1,1.3-1.6,3.1-1.6,5.3S211.3,75,212.4,76.3z"/>
	<path class="st0" d="M14.3,105.7c3.9,0,7,1.3,9.4,3.8s3.6,5.9,3.6,10v1.1c0,0.3-0.1,0.5-0.3,0.7c-0.2,0.2-0.4,0.3-0.7,0.3H8.5
		c0.4,1.4,1.1,2.6,2.1,3.5c1,0.9,2.3,1.3,3.8,1.3c1.1,0,2.1-0.3,2.9-0.8c0.8-0.5,1.4-1.2,1.9-2c0.3-0.5,0.8-0.6,1.3-0.4l5.8,2
		c-0.9,2.2-2.3,4-4.3,5.3c-2,1.3-4.5,1.9-7.5,1.9c-3.9,0-7.1-1.2-9.5-3.7c-2.4-2.4-3.6-5.6-3.6-9.6c0-4,1.2-7.3,3.6-9.7
		C7.3,106.9,10.4,105.7,14.3,105.7z M14.3,111.7c-1.4,0-2.6,0.4-3.6,1.1c-1,0.7-1.7,1.8-2.1,3.1H20c-0.5-1.3-1.2-2.3-2.2-3.1
		C16.8,112.1,15.7,111.7,14.3,111.7z"/>
	<path class="st0" d="M84.2,97.7v34.1H77v-19.6c0-0.9,0.2-1.9,0.5-2.9c0-0.1,0-0.1,0-0.2c0-0.1-0.1-0.1-0.2-0.1h0l-8.7,22.8h-7.1
		L52.8,109c-0.1,0-0.1,0-0.2,0.1c0,0.1-0.1,0.1,0,0.2c0.3,1,0.5,2,0.5,2.9v19.6h-7.2V97.7h10.3l8.7,23.4c0.1,0.3,0.1,0.4,0.1,0.5
		v0.9c0,0.2,0.1,0.3,0.2,0.3h0l9.5-25.1H84.2z"/>
	<path class="st0" d="M113.1,125.3c0.3,0.3,0.5,0.9,0.5,1.7v4.9H113c-3,0-5.1-1-6.4-2.9c-2.1,2.2-5.1,3.3-9.1,3.3
		c-2.5,0-4.6-0.7-6.1-2c-1.5-1.4-2.2-3.2-2.2-5.5c0-2.2,0.7-4.1,2.1-5.6s3.6-2.4,6.5-2.8c3.7-0.4,6.2-1,7.4-1.7v-0.1
		c0-0.8-0.4-1.5-1.2-2s-1.8-0.8-2.9-0.8c-0.6,0-1.2,0-1.7,0.1c-0.5,0.1-1,0.2-1.5,0.4s-0.8,0.3-1,0.4c-0.2,0.1-0.6,0.3-1,0.6
		c-0.4,0.3-0.7,0.4-0.7,0.4c-0.6,0.3-1.1,0.4-1.7,0.3s-1-0.4-1.3-0.8l-2.1-2.9c0.3-0.4,0.8-0.9,1.4-1.3c0.6-0.5,1.3-0.9,2.2-1.5
		c0.9-0.5,1.9-0.9,3.2-1.3c1.2-0.3,2.5-0.5,3.8-0.5c3.8,0,6.6,0.9,8.6,2.6c2,1.7,2.9,4.3,2.9,7.7v7.2
		C112.1,124.2,112.4,124.8,113.1,125.3L113.1,125.3z M98.4,126.5c0.7,0,1.4,0,2-0.1c0.6-0.1,1.2-0.3,1.9-0.5c0.6-0.3,1.2-0.6,1.6-1
		s0.8-1,1.1-1.7c0.3-0.7,0.4-1.5,0.4-2.4V120c-1.3,1.1-3.3,1.7-6,1.7c-1.2,0.1-2.2,0.4-2.7,0.8c-0.6,0.4-0.9,1-0.9,1.8
		c0,0.7,0.2,1.2,0.7,1.6C96.9,126.3,97.5,126.5,98.4,126.5z"/>
	<path class="st0" d="M112.8,140.9v-4.6c0-0.5,0.2-1,0.5-1.3c0.3-0.3,0.8-0.5,1.3-0.5h1.3c0.8,0,1.5-0.3,2-0.8
		c0.5-0.5,0.8-1.2,0.8-2.1v-25.5h6.9v25.5c0,2.9-0.8,5.2-2.4,6.8c-1.6,1.6-3.8,2.5-6.7,2.5H112.8z M124.8,102.8
		c-0.7,0.7-1.6,1-2.7,1s-2-0.3-2.7-1c-0.7-0.7-1.1-1.6-1.1-2.7c0-1.1,0.4-2,1.1-2.7c0.7-0.7,1.6-1.1,2.7-1.1s2,0.4,2.7,1.1
		c0.7,0.7,1.1,1.6,1.1,2.7C125.9,101.2,125.5,102.1,124.8,102.8z"/>
	<path class="st0" d="M154,125.3c0.3,0.3,0.5,0.9,0.5,1.7v4.9h-0.7c-3,0-5.1-1-6.4-2.9c-2.1,2.2-5.1,3.3-9.1,3.3
		c-2.5,0-4.6-0.7-6.1-2c-1.5-1.4-2.2-3.2-2.2-5.5c0-2.2,0.7-4.1,2.1-5.6s3.6-2.4,6.5-2.8c3.7-0.4,6.2-1,7.4-1.7v-0.1
		c0-0.8-0.4-1.5-1.2-2s-1.8-0.8-2.9-0.8c-0.6,0-1.2,0-1.7,0.1c-0.5,0.1-1,0.2-1.5,0.4s-0.8,0.3-1,0.4c-0.2,0.1-0.6,0.3-1,0.6
		c-0.4,0.3-0.7,0.4-0.7,0.4c-0.6,0.3-1.1,0.4-1.7,0.3s-1-0.4-1.3-0.8l-2.1-2.9c0.3-0.4,0.8-0.9,1.4-1.3c0.6-0.5,1.3-0.9,2.2-1.5
		c0.9-0.5,1.9-0.9,3.2-1.3c1.2-0.3,2.5-0.5,3.8-0.5c3.8,0,6.6,0.9,8.6,2.6c2,1.7,2.9,4.3,2.9,7.7v7.2
		C153,124.2,153.3,124.8,154,125.3L154,125.3z M139.2,126.5c0.7,0,1.4,0,2-0.1c0.6-0.1,1.2-0.3,1.9-0.5c0.6-0.3,1.2-0.6,1.6-1
		s0.8-1,1.1-1.7c0.3-0.7,0.4-1.5,0.4-2.4V120c-1.3,1.1-3.3,1.7-6,1.7c-1.2,0.1-2.2,0.4-2.7,0.8c-0.6,0.4-0.9,1-0.9,1.8
		c0,0.7,0.2,1.2,0.7,1.6C137.7,126.3,138.4,126.5,139.2,126.5z"/>
	<path class="st0" d="M172.1,105.8c3.3,0,5.8,0.9,7.5,2.8c1.7,1.9,2.6,4.6,2.6,8.1v15.1h-6.9v-14.3c0-1.9-0.3-3.4-1-4.3
		s-1.8-1.4-3.4-1.4c-1.6,0-2.8,0.5-3.7,1.5s-1.3,2.4-1.3,4.2v14.3h-6.9v-25.6h5.2c0.3,0,0.5,0.1,0.7,0.3c0.2,0.2,0.3,0.4,0.3,0.7
		v1.9C167.1,106.9,169.4,105.8,172.1,105.8z"/>
	<path class="st0" d="M192.1,103.5c-1.1,0-2-0.3-2.7-1c-0.7-0.7-1-1.6-1-2.7c0-1.1,0.3-2,1-2.7c0.7-0.7,1.6-1.1,2.7-1.1
		c1.1,0,2,0.4,2.7,1.1c0.7,0.7,1.1,1.6,1.1,2.7c0,1.1-0.4,2-1.1,2.7C194.2,103.2,193.2,103.5,192.1,103.5z M188.7,131.8v-25.6h6.9
		v25.6H188.7z"/>
	<path class="st0" d="M204.1,113.3c-1.1,0-2-0.4-2.7-1.1c-0.7-0.7-1.1-1.6-1.1-2.7c0-1.1,0.4-2,1.1-2.7c0.7-0.7,1.6-1,2.7-1
		c1.1,0,2,0.3,2.7,1c0.7,0.7,1,1.6,1,2.7c0,1.1-0.3,2-1,2.7C206.1,112.9,205.2,113.3,204.1,113.3z M204.1,132.4
		c-1.1,0-2-0.4-2.7-1.1c-0.7-0.7-1.1-1.6-1.1-2.7c0-1.1,0.4-2,1.1-2.7c0.7-0.7,1.6-1,2.7-1c1.1,0,2,0.4,2.7,1c0.7,0.7,1,1.6,1,2.7
		c0,1.1-0.3,2-1,2.7C206.1,132,205.2,132.4,204.1,132.4z"/>
	<path class="st0" d="M11.7,202.9c-2.7,0-4.7-0.7-6.2-2.2c-1.5-1.5-2.2-3.6-2.2-6.2v-25.7h6.9v25.7c0,0.6,0.2,1.2,0.6,1.5
		c0.4,0.4,0.9,0.6,1.5,0.6h1.3c0.5,0,1,0.2,1.3,0.5c0.3,0.3,0.5,0.8,0.5,1.3v4.6H11.7z"/>
	<path class="st0" d="M41.6,196.3c0.3,0.3,0.5,0.9,0.5,1.7v4.9h-0.7c-3,0-5.1-1-6.4-2.9c-2.1,2.2-5.1,3.3-9.1,3.3
		c-2.5,0-4.6-0.7-6.1-2c-1.5-1.4-2.2-3.2-2.2-5.5c0-2.2,0.7-4.1,2.1-5.6s3.6-2.4,6.5-2.8c3.7-0.4,6.2-1,7.4-1.7v-0.1
		c0-0.8-0.4-1.5-1.2-2c-0.8-0.5-1.8-0.8-2.9-0.8c-0.6,0-1.2,0-1.7,0.1c-0.5,0.1-1,0.2-1.5,0.4c-0.5,0.2-0.8,0.3-1,0.4
		s-0.6,0.3-1,0.6c-0.4,0.3-0.7,0.4-0.7,0.4c-0.6,0.3-1.1,0.4-1.7,0.3c-0.6-0.1-1-0.4-1.3-0.8l-2.1-2.9c0.3-0.4,0.8-0.9,1.4-1.3
		s1.3-0.9,2.2-1.5c0.9-0.5,1.9-0.9,3.2-1.3c1.2-0.3,2.5-0.5,3.8-0.5c3.8,0,6.6,0.9,8.6,2.6c2,1.7,2.9,4.3,2.9,7.7v7.2
		C40.6,195.2,40.9,195.8,41.6,196.3L41.6,196.3z M26.8,197.5c0.7,0,1.4,0,2-0.1c0.6-0.1,1.2-0.3,1.9-0.5c0.6-0.3,1.2-0.6,1.6-1
		c0.4-0.4,0.8-1,1.1-1.7c0.3-0.7,0.4-1.5,0.4-2.4V191c-1.3,1.1-3.3,1.7-6,1.7c-1.2,0.1-2.2,0.4-2.7,0.8c-0.6,0.4-0.9,1-0.9,1.8
		c0,0.7,0.2,1.2,0.7,1.6C25.4,197.3,26,197.5,26.8,197.5z"/>
	<path class="st0" d="M68.6,203.3c-2.2,0-4.2-0.3-6.1-0.9c-1.9-0.6-3.4-1.4-4.5-2.4l2.7-4.1c0.2-0.3,0.5-0.5,0.8-0.5
		c0.3-0.1,0.7,0,1,0.2c2,1.2,4,1.7,6,1.7c1.2,0,2.1-0.2,2.7-0.6c0.6-0.4,0.9-0.9,0.9-1.6c0-0.5-0.2-1-0.6-1.3
		c-0.4-0.4-1-0.6-1.7-0.8c-0.6-0.2-1.5-0.4-2.7-0.6c-1.2-0.2-2.1-0.5-2.8-0.7c-1.8-0.5-3.2-1.3-4.3-2.6s-1.6-2.8-1.6-4.5
		c0-2.4,0.9-4.4,2.7-5.8c1.8-1.5,4.2-2.2,7.1-2.2c1.9,0,3.7,0.3,5.4,0.9c1.7,0.6,3.1,1.4,4.1,2.3l-2.5,4.1c-0.4,0.7-1,0.8-1.7,0.4
		c-2-1.2-4-1.8-6-1.8c-0.8,0-1.4,0.2-1.8,0.5s-0.7,0.7-0.7,1.2c0,0.4,0.1,0.7,0.4,1s0.7,0.5,1.2,0.6c1.1,0.3,2.6,0.8,4.5,1.2
		c2.5,0.6,4.4,1.6,5.7,3c1.3,1.4,2,3.1,2,5c0,2.5-0.9,4.4-2.7,5.9C74.3,202.6,71.8,203.3,68.6,203.3z"/>
	<path class="st0" d="M94.1,203.4c-3.9,0-7.1-1.2-9.4-3.7s-3.5-5.6-3.5-9.6c0-4.1,1.2-7.4,3.5-9.8c2.3-2.4,5.4-3.6,9.4-3.6
		c3.1,0,5.7,0.8,7.8,2.3c2.1,1.5,3.5,3.8,4.2,6.7l-5.3,1c-1,0.2-1.7-0.1-2.1-0.9c-0.8-2.1-2.4-3.1-4.6-3.1c-1.9,0-3.4,0.7-4.4,2
		c-1,1.4-1.5,3.1-1.5,5.3c0,2.1,0.5,3.8,1.6,5.2s2.5,2,4.4,2c1.3,0,2.3-0.3,3-0.8c0.7-0.6,1.3-1.4,1.7-2.6c0.2-0.4,0.5-0.7,0.9-0.9
		c0.4-0.2,0.9-0.2,1.3-0.1l5.2,1c-0.6,3.1-2.1,5.4-4.2,7.1C99.9,202.5,97.3,203.4,94.1,203.4z"/>
	<path class="st0" d="M121.8,176.7c3.9,0,7,1.3,9.4,3.8c2.4,2.5,3.6,5.9,3.6,10v1.1c0,0.3-0.1,0.5-0.3,0.7c-0.2,0.2-0.4,0.3-0.7,0.3
		H116c0.4,1.4,1.1,2.6,2.1,3.5c1,0.9,2.3,1.3,3.8,1.3c1.1,0,2.1-0.3,2.9-0.8c0.8-0.5,1.4-1.2,1.9-2c0.3-0.5,0.8-0.6,1.3-0.4l5.8,2
		c-0.9,2.2-2.3,4-4.3,5.3c-2,1.3-4.5,1.9-7.5,1.9c-3.9,0-7.1-1.2-9.5-3.7s-3.6-5.6-3.6-9.6c0-4,1.2-7.3,3.6-9.7
		S117.9,176.7,121.8,176.7z M121.8,182.7c-1.4,0-2.6,0.4-3.6,1.1c-1,0.7-1.7,1.8-2.1,3.1h11.3c-0.5-1.3-1.2-2.3-2.2-3.1
		C124.3,183.1,123.2,182.7,121.8,182.7z"/>
	<path class="st0" d="M148,202.9c-2.7,0-4.7-0.7-6.2-2.2c-1.5-1.5-2.2-3.6-2.2-6.2v-25.7h6.9v25.7c0,0.6,0.2,1.2,0.6,1.5
		c0.4,0.4,0.9,0.6,1.5,0.6h1.3c0.5,0,1,0.2,1.3,0.5c0.3,0.3,0.5,0.8,0.5,1.3v4.6H148z"/>
	<path class="st0" d="M171.5,183.3h-7.4v10.4c0,0.8,0.3,1.5,0.8,2.1c0.5,0.5,1.2,0.8,2,0.8h2.9c0.6,0,1,0.2,1.3,0.5s0.5,0.8,0.5,1.3
		v4.6h-5.3c-2.8,0-5.1-0.8-6.7-2.5c-1.6-1.6-2.4-3.9-2.4-6.8v-10.4h-2.2c-0.5,0-1-0.2-1.3-0.5s-0.5-0.8-0.5-1.3v-4.2h4v-8.5h6.9v8.5
		h7.4V183.3z"/>
	<path class="st0" d="M198.8,196.3c0.3,0.3,0.5,0.9,0.5,1.7v4.9h-0.7c-3,0-5.1-1-6.4-2.9c-2.1,2.2-5.1,3.3-9.1,3.3
		c-2.5,0-4.6-0.7-6.1-2c-1.5-1.4-2.2-3.2-2.2-5.5c0-2.2,0.7-4.1,2.1-5.6s3.6-2.4,6.5-2.8c3.7-0.4,6.2-1,7.4-1.7v-0.1
		c0-0.8-0.4-1.5-1.2-2c-0.8-0.5-1.8-0.8-2.9-0.8c-0.6,0-1.2,0-1.7,0.1c-0.5,0.1-1,0.2-1.5,0.4c-0.5,0.2-0.8,0.3-1,0.4
		c-0.2,0.1-0.5,0.3-1,0.6c-0.4,0.3-0.7,0.4-0.7,0.4c-0.6,0.3-1.1,0.4-1.7,0.3c-0.6-0.1-1-0.4-1.3-0.8l-2.1-2.9
		c0.3-0.4,0.8-0.9,1.4-1.3s1.3-0.9,2.2-1.5s1.9-0.9,3.2-1.3c1.2-0.3,2.5-0.5,3.8-0.5c3.8,0,6.6,0.9,8.6,2.6c2,1.7,2.9,4.3,2.9,7.7
		v7.2C197.8,195.2,198.2,195.8,198.8,196.3L198.8,196.3z M184.1,197.5c0.7,0,1.4,0,2-0.1c0.6-0.1,1.2-0.3,1.9-0.5
		c0.6-0.3,1.2-0.6,1.6-1c0.4-0.4,0.8-1,1.1-1.7s0.4-1.5,0.4-2.4V191c-1.3,1.1-3.3,1.7-6,1.7c-1.2,0.1-2.2,0.4-2.7,0.8
		c-0.6,0.4-0.9,1-0.9,1.8c0,0.7,0.2,1.2,0.7,1.6C182.6,197.3,183.3,197.5,184.1,197.5z"/>
	<path class="st0" d="M17.5,224.8c3.5,0,6.3,1.2,8.4,3.6c2.1,2.4,3.1,5.6,3.1,9.6c0,4.2-1,7.5-3.1,9.8c-2.1,2.3-5,3.5-8.8,3.5
		c-2.8,0-5-0.8-6.8-2.3v10.3H3.3v-34.1h5.2c0.3,0,0.5,0.1,0.7,0.3c0.2,0.2,0.3,0.4,0.3,0.7v2.2C11.6,226,14.3,224.8,17.5,224.8z
		 M16.2,245.3c1.8,0,3.3-0.7,4.3-2c1.1-1.3,1.6-3.1,1.6-5.2s-0.5-3.9-1.5-5.2c-1-1.3-2.5-2-4.3-2s-3.3,0.6-4.4,1.9
		c-1.1,1.2-1.6,2.9-1.7,5v0.5c0,2.2,0.5,3.9,1.6,5.2C12.8,244.6,14.3,245.3,16.2,245.3z"/>
	<path class="st0" d="M44.8,224.7c3.9,0,7,1.3,9.4,3.8c2.4,2.5,3.6,5.9,3.6,10v1.1c0,0.3-0.1,0.5-0.3,0.7c-0.2,0.2-0.4,0.3-0.7,0.3
		H38.9c0.4,1.4,1.1,2.6,2.1,3.5c1,0.9,2.3,1.3,3.8,1.3c1.1,0,2.1-0.3,2.9-0.8c0.8-0.5,1.4-1.2,1.9-2c0.3-0.5,0.8-0.6,1.3-0.4l5.8,2
		c-0.9,2.2-2.3,4-4.3,5.3c-2,1.3-4.5,1.9-7.5,1.9c-3.9,0-7.1-1.2-9.5-3.7s-3.6-5.6-3.6-9.6c0-4,1.2-7.3,3.6-9.7
		S40.9,224.7,44.8,224.7z M44.8,230.7c-1.4,0-2.6,0.4-3.6,1.1c-1,0.7-1.7,1.8-2.1,3.1h11.3c-0.5-1.3-1.2-2.3-2.2-3.1
		C47.3,231.1,46.1,230.7,44.8,230.7z"/>
	<path class="st0" d="M76.3,225.2h0.4v3.9c0,0.5-0.2,1-0.5,1.3S75.5,231,75,231h-0.3c-2,0-3.4,0.6-4.4,1.8c-1,1.2-1.5,2.8-1.5,5v13
		h-6.9v-25.6h5.2c0.3,0,0.5,0.1,0.7,0.3c0.2,0.2,0.3,0.4,0.3,0.7v2.5C70,226.4,72.8,225.2,76.3,225.2z"/>
	<path class="st0" d="M89.6,215.8H95v4.5c0,0.5-0.2,0.9-0.5,1.3s-0.8,0.5-1.3,0.5h-3.1c-0.7,0-1.2,0.2-1.6,0.7
		c-0.4,0.5-0.6,1-0.6,1.7v0.8h4.7v6.1h-4.7v19.5H81v-19.5h-1.5c-0.5,0-0.9-0.2-1.3-0.5c-0.3-0.3-0.5-0.8-0.5-1.3v-4.2H81v-0.8
		c0-2.7,0.8-4.8,2.3-6.4C84.8,216.5,86.9,215.8,89.6,215.8z"/>
	<path class="st0" d="M107.6,224.7c3.9,0,7,1.3,9.4,3.8c2.4,2.5,3.6,5.9,3.6,10v1.1c0,0.3-0.1,0.5-0.3,0.7c-0.2,0.2-0.4,0.3-0.7,0.3
		h-17.9c0.4,1.4,1.1,2.6,2.1,3.5c1,0.9,2.3,1.3,3.8,1.3c1.1,0,2.1-0.3,2.9-0.8c0.8-0.5,1.4-1.2,1.9-2c0.3-0.5,0.8-0.6,1.3-0.4l5.8,2
		c-0.9,2.2-2.3,4-4.3,5.3c-2,1.3-4.5,1.9-7.5,1.9c-3.9,0-7.1-1.2-9.5-3.7s-3.6-5.6-3.6-9.6c0-4,1.2-7.3,3.6-9.7
		S103.7,224.7,107.6,224.7z M107.6,230.7c-1.4,0-2.6,0.4-3.6,1.1c-1,0.7-1.7,1.8-2.1,3.1h11.3c-0.5-1.3-1.2-2.3-2.2-3.1
		C110.1,231.1,108.9,230.7,107.6,230.7z"/>
	<path class="st0" d="M140.8,231.3h-7.4v10.4c0,0.8,0.3,1.5,0.8,2.1c0.5,0.5,1.2,0.8,2,0.8h2.9c0.6,0,1,0.2,1.3,0.5s0.5,0.8,0.5,1.3
		v4.6h-5.3c-2.8,0-5.1-0.8-6.7-2.5c-1.6-1.6-2.4-3.9-2.4-6.8v-10.4h-2.2c-0.5,0-1-0.2-1.3-0.5s-0.5-0.8-0.5-1.3v-4.2h4v-8.5h6.9v8.5
		h7.4V231.3z"/>
	<path class="st0" d="M161.8,231.3h-7.4v10.4c0,0.8,0.3,1.5,0.8,2.1c0.5,0.5,1.2,0.8,2,0.8h2.9c0.6,0,1,0.2,1.3,0.5s0.5,0.8,0.5,1.3
		v4.6h-5.3c-2.8,0-5.1-0.8-6.7-2.5c-1.6-1.6-2.4-3.9-2.4-6.8v-10.4h-2.2c-0.5,0-1-0.2-1.3-0.5s-0.5-0.8-0.5-1.3v-4.2h4v-8.5h6.9v8.5
		h7.4V231.3z"/>
	<path class="st0" d="M189.1,244.3c0.3,0.3,0.5,0.9,0.5,1.7v4.9H189c-3,0-5.1-1-6.4-2.9c-2.1,2.2-5.1,3.3-9.1,3.3
		c-2.5,0-4.6-0.7-6.1-2c-1.5-1.4-2.2-3.2-2.2-5.5c0-2.2,0.7-4.1,2.1-5.6s3.6-2.4,6.5-2.8c3.7-0.4,6.2-1,7.4-1.7v-0.1
		c0-0.8-0.4-1.5-1.2-2c-0.8-0.5-1.8-0.8-2.9-0.8c-0.6,0-1.2,0-1.7,0.1c-0.5,0.1-1,0.2-1.5,0.4c-0.5,0.2-0.8,0.3-1,0.4
		s-0.6,0.3-1,0.6c-0.4,0.3-0.7,0.4-0.7,0.4c-0.6,0.3-1.1,0.4-1.7,0.3c-0.6-0.1-1-0.4-1.3-0.8l-2.1-2.9c0.3-0.4,0.8-0.9,1.4-1.3
		s1.3-0.9,2.2-1.5c0.9-0.5,1.9-0.9,3.2-1.3c1.2-0.3,2.5-0.5,3.8-0.5c3.8,0,6.6,0.9,8.6,2.6s2.9,4.3,2.9,7.7v7.2
		C188.1,243.2,188.4,243.8,189.1,244.3L189.1,244.3z M174.4,245.5c0.7,0,1.4,0,2-0.1c0.6-0.1,1.2-0.3,1.9-0.5c0.6-0.3,1.2-0.6,1.6-1
		c0.4-0.4,0.8-1,1.1-1.7c0.3-0.7,0.4-1.5,0.4-2.4V239c-1.3,1.1-3.3,1.7-6,1.7c-1.2,0.1-2.2,0.4-2.7,0.8c-0.6,0.4-0.9,1-0.9,1.8
		c0,0.7,0.2,1.2,0.7,1.6C172.9,245.3,173.5,245.5,174.4,245.5z"/>
	<path class="st0" d="M17.5,272.8c3.5,0,6.3,1.2,8.4,3.6c2.1,2.4,3.1,5.6,3.1,9.6c0,4.2-1,7.5-3.1,9.8c-2.1,2.3-5,3.5-8.8,3.5
		c-2.8,0-5-0.8-6.8-2.3v10.3H3.3v-34.1h5.2c0.3,0,0.5,0.1,0.7,0.3c0.2,0.2,0.3,0.4,0.3,0.7v2.2C11.6,274,14.3,272.8,17.5,272.8z
		 M16.2,293.3c1.8,0,3.3-0.7,4.3-2c1.1-1.3,1.6-3.1,1.6-5.2s-0.5-3.9-1.5-5.2c-1-1.3-2.5-2-4.3-2s-3.3,0.6-4.4,1.9
		c-1.1,1.2-1.6,2.9-1.7,5v0.5c0,2.2,0.5,3.9,1.6,5.2C12.8,292.6,14.3,293.3,16.2,293.3z"/>
	<path class="st0" d="M44.8,272.7c3.9,0,7,1.3,9.4,3.8c2.4,2.5,3.6,5.9,3.6,10v1.1c0,0.3-0.1,0.5-0.3,0.7c-0.2,0.2-0.4,0.3-0.7,0.3
		H38.9c0.4,1.4,1.1,2.6,2.1,3.5c1,0.9,2.3,1.3,3.8,1.3c1.1,0,2.1-0.3,2.9-0.8c0.8-0.5,1.4-1.2,1.9-2c0.3-0.5,0.8-0.6,1.3-0.4l5.8,2
		c-0.9,2.2-2.3,4-4.3,5.3c-2,1.3-4.5,1.9-7.5,1.9c-3.9,0-7.1-1.2-9.5-3.7s-3.6-5.6-3.6-9.6c0-4,1.2-7.3,3.6-9.7
		S40.9,272.7,44.8,272.7z M44.8,278.7c-1.4,0-2.6,0.4-3.6,1.1c-1,0.7-1.7,1.8-2.1,3.1h11.3c-0.5-1.3-1.2-2.3-2.2-3.1
		C47.3,279.1,46.1,278.7,44.8,278.7z"/>
	<path class="st0" d="M76.3,273.2h0.4v3.9c0,0.5-0.2,1-0.5,1.3S75.5,279,75,279h-0.3c-2,0-3.4,0.6-4.4,1.8c-1,1.2-1.5,2.8-1.5,5v13
		h-6.9v-25.6h5.2c0.3,0,0.5,0.1,0.7,0.3c0.2,0.2,0.3,0.4,0.3,0.7v2.5C70,274.4,72.8,273.2,76.3,273.2z"/>
	<path class="st0" d="M97.2,270.5c-1.1,0-2-0.3-2.7-1c-0.7-0.7-1-1.6-1-2.7c0-1.1,0.3-2,1-2.7c0.7-0.7,1.6-1.1,2.7-1.1
		c1.1,0,2,0.4,2.7,1.1c0.7,0.7,1.1,1.6,1.1,2.7c0,1.1-0.4,2-1.1,2.7C99.2,270.2,98.3,270.5,97.2,270.5z M93.8,298.8v-25.6h6.9v25.6
		H93.8z"/>
	<path class="st0" d="M136.5,279.3h-7.4v10.4c0,0.8,0.3,1.5,0.8,2.1c0.5,0.5,1.2,0.8,2,0.8h2.9c0.6,0,1,0.2,1.3,0.5s0.5,0.8,0.5,1.3
		v4.6h-5.3c-2.8,0-5.1-0.8-6.7-2.5c-1.6-1.6-2.4-3.9-2.4-6.8v-10.4H120c-0.5,0-1-0.2-1.3-0.5s-0.5-0.8-0.5-1.3v-4.2h4v-8.5h6.9v8.5
		h7.4V279.3z"/>
	<path class="st0" d="M157.9,273.2h6.9v25.6h-5.2c-0.3,0-0.5-0.1-0.7-0.3s-0.3-0.4-0.3-0.7V296c-1.8,2.2-4.1,3.3-6.9,3.3
		c-3.3,0-5.9-0.9-7.6-2.7c-1.7-1.8-2.5-4.4-2.5-7.9v-15.4h6.9v14.3c0,1.9,0.3,3.4,1,4.3c0.6,0.9,1.8,1.4,3.4,1.4
		c1.6,0,2.8-0.5,3.7-1.5s1.3-2.4,1.3-4.2V273.2z"/>
	<path class="st0" d="M191.8,295.7c-2.3,2.4-5.4,3.6-9.4,3.6c-3.9,0-7-1.2-9.3-3.6c-2.3-2.4-3.5-5.7-3.5-9.7c0-4.1,1.2-7.3,3.5-9.7
		c2.3-2.4,5.4-3.6,9.3-3.6c3.9,0,7,1.2,9.4,3.6c2.3,2.4,3.5,5.7,3.5,9.7C195.3,290.1,194.1,293.3,191.8,295.7z M178.1,291.3
		c1,1.3,2.5,2,4.4,2s3.3-0.7,4.4-2c1-1.3,1.6-3.1,1.6-5.3c0-2.2-0.5-3.9-1.6-5.3c-1-1.3-2.5-2-4.4-2s-3.3,0.7-4.4,2
		c-1,1.3-1.6,3.1-1.6,5.3C176.5,288.2,177,290,178.1,291.3z"/>
	<path class="st0" d="M203.2,270.5c-1.1,0-2-0.3-2.7-1c-0.7-0.7-1-1.6-1-2.7c0-1.1,0.3-2,1-2.7c0.7-0.7,1.6-1.1,2.7-1.1
		c1.1,0,2,0.4,2.7,1.1c0.7,0.7,1.1,1.6,1.1,2.7c0,1.1-0.4,2-1.1,2.7C205.3,270.2,204.3,270.5,203.2,270.5z M199.8,298.8v-25.6h6.9
		v25.6H199.8z"/>
	<path class="st0" d="M17.1,321.2h0.4v3.9c0,0.5-0.2,1-0.5,1.3s-0.7,0.5-1.2,0.5h-0.3c-2,0-3.4,0.6-4.4,1.8c-1,1.2-1.5,2.8-1.5,5v13
		H2.6v-25.6h5.2c0.3,0,0.5,0.1,0.7,0.3c0.2,0.2,0.3,0.4,0.3,0.7v2.5C10.8,322.4,13.6,321.2,17.1,321.2z"/>
	<path class="st0" d="M32,320.7c3.9,0,7,1.3,9.4,3.8c2.4,2.5,3.6,5.9,3.6,10v1.1c0,0.3-0.1,0.5-0.3,0.7c-0.2,0.2-0.4,0.3-0.7,0.3
		H26.2c0.4,1.4,1.1,2.6,2.1,3.5c1,0.9,2.3,1.3,3.8,1.3c1.1,0,2.1-0.3,2.9-0.8c0.8-0.5,1.4-1.2,1.9-2c0.3-0.5,0.8-0.6,1.3-0.4l5.8,2
		c-0.9,2.2-2.3,4-4.3,5.3c-2,1.3-4.5,1.9-7.5,1.9c-3.9,0-7.1-1.2-9.5-3.7s-3.6-5.6-3.6-9.6c0-4,1.2-7.3,3.6-9.7S28.1,320.7,32,320.7
		z M32,326.7c-1.4,0-2.6,0.4-3.6,1.1c-1,0.7-1.7,1.8-2.1,3.1h11.3c-0.5-1.3-1.2-2.3-2.2-3.1C34.5,327.1,33.4,326.7,32,326.7z"/>
	<path class="st0" d="M64.3,342.1c2.8,0,5,0.6,6.5,1.7s2.2,2.8,2.2,5c0,2.2-1,4.1-3.1,5.5c-2.1,1.4-5.3,2.1-9.7,2.1
		c-3.9,0-6.9-0.7-9.1-2.2c-2.2-1.4-3.3-3.3-3.3-5.4c0-1.4,0.3-2.5,1-3.5c0.7-1,1.4-1.6,2.1-1.9c-0.4-0.1-0.8-0.4-1.2-1
		s-0.7-1.3-0.7-2.2c0-1.7,0.7-2.9,2.2-3.8c-1.7-1.7-2.6-3.8-2.6-6.3c0-3,1-5.3,2.9-6.9c1.9-1.6,4.6-2.4,8-2.4c2.6,0,4.8,0.5,6.6,1.5
		c0.6-0.6,1.5-0.9,2.6-0.9H72v4c0,0.5-0.1,0.8-0.4,1.1c-0.3,0.3-0.6,0.4-1.1,0.4h-0.7c0.3,1,0.5,2.1,0.5,3.3c0,3-1,5.3-3.1,6.9
		c-2.1,1.6-4.9,2.4-8.4,2.4h-1.7c-0.6,0-1.2,0.1-1.6,0.3c-0.4,0.2-0.6,0.6-0.6,1c0,0.9,0.9,1.4,2.7,1.4H64.3z M60.3,350.6
		c2.3,0,3.9-0.2,5-0.6c1.1-0.4,1.6-0.9,1.6-1.6c0-1-0.9-1.6-2.8-1.6h-7c-2,0-2.9,0.5-2.9,1.6c0,0.6,0.6,1.1,1.8,1.5
		C57,350.4,58.5,350.6,60.3,350.6z M62.7,327.4c-0.8-0.6-1.9-0.9-3.3-0.9s-2.5,0.3-3.3,0.9s-1.2,1.5-1.2,2.5c0,1.1,0.4,2,1.2,2.6
		c0.8,0.6,1.9,0.9,3.2,0.9c1.4,0,2.5-0.3,3.3-0.9c0.8-0.6,1.2-1.5,1.2-2.6C63.9,328.9,63.5,328,62.7,327.4z"/>
	<path class="st0" d="M98.1,340.3c0.3,0.3,0.5,0.9,0.5,1.7v4.9h-0.7c-3,0-5.1-1-6.4-2.9c-2.1,2.2-5.1,3.3-9.1,3.3
		c-2.5,0-4.6-0.7-6.1-2c-1.5-1.4-2.2-3.2-2.2-5.5c0-2.2,0.7-4.1,2.1-5.6s3.6-2.4,6.5-2.8c3.7-0.4,6.2-1,7.4-1.7v-0.1
		c0-0.8-0.4-1.5-1.2-2c-0.8-0.5-1.8-0.8-2.9-0.8c-0.6,0-1.2,0-1.7,0.1c-0.5,0.1-1,0.2-1.5,0.4c-0.5,0.2-0.8,0.3-1,0.4
		s-0.6,0.3-1,0.6c-0.4,0.3-0.7,0.4-0.7,0.4c-0.6,0.3-1.1,0.4-1.7,0.3c-0.6-0.1-1-0.4-1.3-0.8l-2.1-2.9c0.3-0.4,0.8-0.9,1.4-1.3
		s1.3-0.9,2.2-1.5c0.9-0.5,1.9-0.9,3.2-1.3c1.2-0.3,2.5-0.5,3.8-0.5c3.8,0,6.6,0.9,8.6,2.6c2,1.7,2.9,4.3,2.9,7.7v7.2
		C97.1,339.2,97.4,339.8,98.1,340.3L98.1,340.3z M83.3,341.5c0.7,0,1.4,0,2-0.1c0.6-0.1,1.2-0.3,1.9-0.5c0.6-0.3,1.2-0.6,1.6-1
		c0.4-0.4,0.8-1,1.1-1.7c0.3-0.7,0.4-1.5,0.4-2.4V335c-1.3,1.1-3.3,1.7-6,1.7c-1.2,0.1-2.2,0.4-2.7,0.8c-0.6,0.4-0.9,1-0.9,1.8
		c0,0.7,0.2,1.2,0.7,1.6C81.8,341.3,82.5,341.5,83.3,341.5z"/>
	<path class="st0" d="M111.6,346.9c-2.7,0-4.7-0.7-6.2-2.2c-1.5-1.5-2.2-3.6-2.2-6.2v-25.7h6.9v25.7c0,0.6,0.2,1.2,0.6,1.5
		c0.4,0.4,0.9,0.6,1.5,0.6h1.3c0.5,0,1,0.2,1.3,0.5c0.3,0.3,0.5,0.8,0.5,1.3v4.6H111.6z"/>
	<path class="st0" d="M123,318.5c-1.1,0-2-0.3-2.7-1c-0.7-0.7-1-1.6-1-2.7c0-1.1,0.3-2,1-2.7c0.7-0.7,1.6-1.1,2.7-1.1
		c1.1,0,2,0.4,2.7,1.1c0.7,0.7,1.1,1.6,1.1,2.7c0,1.1-0.4,2-1.1,2.7C125,318.2,124.1,318.5,123,318.5z M119.6,346.8v-25.6h6.9v25.6
		H119.6z"/>
</g>
</svg>
