<?xml version="1.0" encoding="utf-8"?>
<!-- Generator: Adobe Illustrator 24.3.0, SVG Export Plug-In . SVG Version: 6.00 Build 0)  -->
<svg version="1.1" id="Laag_1" xmlns:v="https://vecta.io/nano"
	 xmlns="http://www.w3.org/2000/svg" xmlns:xlink="http://www.w3.org/1999/xlink" x="0px" y="0px" width="399.9px" height="319.1px"
	 viewBox="0 0 399.9 319.1" style="enable-background:new 0 0 399.9 319.1;" xml:space="preserve">
<style type="text/css">
	.st0{fill:#6A3F24;}
</style>
<g>
	<path class="st0" d="M34.4,47.3l-3.7-10.2H14l-3.8,10.2H0L17.5,0h10.4l17.3,47.3H34.4z M17.4,27.8h9.8L22.9,16
		c-0.1-0.3-0.1-0.5-0.1-0.7v-0.5c0-0.2-0.1-0.3-0.3-0.3h-0.1L17.4,27.8z"/>
	<path class="st0" d="M100.7,0h10v47.3H100L78.9,14.9h-0.1c-0.1,0-0.2,0-0.3,0.1c-0.1,0.1-0.1,0.2-0.1,0.3c0.5,1.4,0.7,2.8,0.7,4.1
		v28h-10V0h10.6l21.1,32.5h0.1c0.1,0,0.2,0,0.3-0.1c0.1-0.1,0.1-0.2,0.1-0.3c-0.5-1.4-0.7-2.8-0.7-4.1V0z"/>
	<path class="st0" d="M150.8,38.2c0.5,0.5,0.7,1.3,0.7,2.4v6.8h-0.9c-4.1,0-7.1-1.3-8.9-4c-2.9,3.1-7.1,4.6-12.6,4.6
		c-3.5,0-6.3-0.9-8.4-2.8c-2.1-1.9-3.1-4.4-3.1-7.6c0-3.1,1-5.6,3-7.7c2-2.1,5-3.4,9.1-3.9c5.1-0.6,8.6-1.4,10.3-2.4v-0.1
		c0-1.2-0.5-2.1-1.6-2.8c-1.1-0.7-2.4-1.1-4-1.1c-0.9,0-1.7,0.1-2.4,0.2c-0.7,0.1-1.4,0.3-2.1,0.6s-1.1,0.5-1.4,0.6
		s-0.8,0.4-1.4,0.8c-0.6,0.4-0.9,0.6-0.9,0.6c-0.8,0.4-1.6,0.6-2.4,0.4s-1.4-0.5-1.8-1.1l-2.9-4.1c0.5-0.6,1.1-1.2,1.9-1.8
		c0.8-0.6,1.8-1.3,3-2c1.2-0.7,2.7-1.3,4.4-1.8s3.5-0.7,5.3-0.7c5.2,0,9.2,1.2,11.9,3.6c2.7,2.4,4.1,6,4.1,10.7v10
		C149.4,36.7,149.8,37.7,150.8,38.2L150.8,38.2z M130.3,39.9c1,0,1.9-0.1,2.7-0.2s1.7-0.4,2.6-0.7c0.9-0.4,1.6-0.8,2.2-1.4
		s1.1-1.4,1.5-2.3c0.4-1,0.6-2.1,0.6-3.4v-0.9c-1.8,1.5-4.6,2.3-8.3,2.4c-1.7,0.2-3,0.5-3.8,1.1c-0.8,0.6-1.2,1.4-1.2,2.5
		c0,0.9,0.3,1.7,1,2.2C128.3,39.7,129.2,39.9,130.3,39.9z"/>
	<path class="st0" d="M179.4,20.3h-10.3v14.4c0,1.2,0.3,2.1,1,2.9c0.7,0.7,1.6,1.1,2.7,1.1h4c0.8,0,1.4,0.2,1.8,0.7
		c0.4,0.4,0.7,1.1,0.7,1.8v6.4h-7.3c-3.9,0-7-1.1-9.3-3.4c-2.2-2.3-3.3-5.4-3.3-9.4V20.3h-3.1c-0.7,0-1.3-0.2-1.8-0.7
		c-0.5-0.5-0.7-1.1-0.7-1.8v-5.9h5.6V0h9.6v11.8h10.3V20.3z"/>
	<path class="st0" d="M217.4,38.2c0.5,0.5,0.7,1.3,0.7,2.4v6.8h-0.9c-4.1,0-7.1-1.3-8.9-4c-2.9,3.1-7.1,4.6-12.6,4.6
		c-3.5,0-6.3-0.9-8.4-2.8c-2.1-1.9-3.1-4.4-3.1-7.6c0-3.1,1-5.6,3-7.7c2-2.1,5-3.4,9.1-3.9c5.1-0.6,8.6-1.4,10.3-2.4v-0.1
		c0-1.2-0.5-2.1-1.6-2.8c-1.1-0.7-2.4-1.1-4-1.1c-0.9,0-1.7,0.1-2.4,0.2c-0.7,0.1-1.4,0.3-2.1,0.6s-1.1,0.5-1.4,0.6
		c-0.3,0.1-0.8,0.4-1.4,0.8c-0.6,0.4-0.9,0.6-0.9,0.6c-0.8,0.4-1.6,0.6-2.4,0.4s-1.4-0.5-1.8-1.1l-2.9-4.1c0.5-0.6,1.1-1.2,1.9-1.8
		c0.8-0.6,1.8-1.3,3-2c1.2-0.7,2.7-1.3,4.4-1.8c1.7-0.5,3.5-0.7,5.3-0.7c5.2,0,9.2,1.2,11.9,3.6c2.7,2.4,4.1,6,4.1,10.7v10
		C216,36.7,216.4,37.7,217.4,38.2L217.4,38.2z M196.9,39.9c1,0,1.9-0.1,2.7-0.2c0.8-0.1,1.7-0.4,2.6-0.7c0.9-0.4,1.6-0.8,2.2-1.4
		c0.6-0.6,1.1-1.4,1.5-2.3c0.4-1,0.6-2.1,0.6-3.4v-0.9c-1.8,1.5-4.6,2.3-8.3,2.4c-1.7,0.2-3,0.5-3.8,1.1c-0.8,0.6-1.2,1.4-1.2,2.5
		c0,0.9,0.3,1.7,1,2.2C194.8,39.7,195.7,39.9,196.9,39.9z"/>
	<path class="st0" d="M236.2,47.4c-3.7,0-6.6-1-8.6-3.1c-2-2.1-3.1-4.9-3.1-8.7V0h9.6v35.7c0,0.9,0.3,1.6,0.8,2.1
		c0.5,0.5,1.2,0.8,2.1,0.8h1.8c0.7,0,1.3,0.2,1.8,0.7s0.7,1.1,0.7,1.8v6.4H236.2z"/>
	<path class="st0" d="M262.6,11.1c5.4,0,9.7,1.8,13,5.3c3.3,3.5,5,8.2,5,13.9v1.6c0,0.3-0.1,0.7-0.4,0.9s-0.6,0.4-0.9,0.4h-24.8
		c0.5,2,1.5,3.6,2.9,4.8c1.4,1.2,3.1,1.8,5.2,1.8c1.6,0,2.9-0.4,4.1-1.1c1.1-0.8,2-1.7,2.6-2.7c0.5-0.6,1.1-0.8,1.8-0.5l8,2.8
		c-1.2,3.1-3.2,5.6-6,7.3s-6.3,2.6-10.4,2.6c-5.5,0-9.8-1.7-13.2-5.1c-3.3-3.4-5-7.8-5-13.3c0-5.6,1.7-10.1,5-13.5
		C252.8,12.8,257.2,11.1,262.6,11.1z M262.6,19.5c-1.9,0-3.6,0.5-4.9,1.6c-1.4,1-2.3,2.5-2.9,4.3h15.7c-0.6-1.8-1.6-3.2-3-4.3
		C266,20,264.4,19.5,262.6,19.5z"/>
	<path class="st0" d="M24.2,76.2c4.9,0,8.7,1.7,11.6,5c2.9,3.3,4.3,7.8,4.3,13.3c0,5.8-1.5,10.4-4.4,13.6c-2.9,3.2-7,4.9-12.3,4.9
		c-3.8,0-6.9-1-9.4-3.1v14.3H4.6V76.8h7.2c0.4,0,0.7,0.1,0.9,0.4s0.4,0.6,0.4,0.9v3C16.1,77.8,19.8,76.2,24.2,76.2z M22.4,104.6
		c2.5,0,4.5-0.9,6-2.8c1.5-1.8,2.2-4.3,2.2-7.3s-0.7-5.4-2.1-7.3c-1.4-1.8-3.4-2.8-5.9-2.8s-4.5,0.9-6,2.6c-1.5,1.7-2.3,4-2.3,7v0.7
		c0,3.1,0.7,5.5,2.2,7.2C17.8,103.7,19.8,104.6,22.4,104.6z"/>
	<path class="st0" d="M62.1,76.1c5.4,0,9.7,1.8,13,5.3c3.3,3.5,5,8.2,5,13.9v1.6c0,0.3-0.1,0.7-0.4,0.9s-0.6,0.4-0.9,0.4H54
		c0.5,2,1.5,3.6,2.9,4.8c1.4,1.2,3.1,1.8,5.2,1.8c1.6,0,2.9-0.4,4.1-1.1c1.1-0.8,2-1.7,2.6-2.7c0.5-0.6,1.1-0.8,1.8-0.5l8,2.8
		c-1.2,3.1-3.2,5.6-6,7.3s-6.3,2.6-10.4,2.6c-5.5,0-9.8-1.7-13.2-5.1c-3.3-3.4-5-7.8-5-13.3c0-5.6,1.7-10.1,5-13.5
		C52.3,77.8,56.7,76.1,62.1,76.1z M62.1,84.5c-1.9,0-3.6,0.5-4.9,1.6c-1.4,1-2.3,2.5-2.9,4.3h15.7c-0.6-1.8-1.6-3.2-3-4.3
		C65.6,85,64,84.5,62.1,84.5z"/>
	<path class="st0" d="M105.9,76.8h0.6v5.4c0,0.8-0.2,1.4-0.7,1.9c-0.4,0.5-1,0.7-1.7,0.7h-0.5c-2.7,0-4.8,0.8-6.2,2.5
		c-1.4,1.6-2.1,4-2.1,6.9v18.1h-9.6V76.8H93c0.4,0,0.7,0.1,0.9,0.4s0.4,0.6,0.4,0.9v3.5C97.2,78.5,101,76.8,105.9,76.8z"/>
	<path class="st0" d="M141.8,112.4c-3.7,0-6.6-1-8.6-3.1c-2.1-2.1-3.1-4.9-3.1-8.7V65h9.6v35.7c0,0.9,0.3,1.6,0.8,2.1
		c0.5,0.5,1.2,0.8,2.1,0.8h1.8c0.7,0,1.3,0.2,1.8,0.7c0.5,0.5,0.7,1.1,0.7,1.8v6.4H141.8z"/>
	<path class="st0" d="M183.2,103.2c0.5,0.5,0.7,1.3,0.7,2.4v6.8H183c-4.1,0-7.1-1.3-8.9-4c-2.9,3.1-7.1,4.6-12.6,4.6
		c-3.5,0-6.3-0.9-8.4-2.8c-2.1-1.9-3.1-4.4-3.1-7.6c0-3.1,1-5.6,3-7.7c2-2.1,5-3.4,9.1-3.9c5.1-0.6,8.6-1.4,10.3-2.4v-0.1
		c0-1.2-0.5-2.1-1.6-2.8c-1.1-0.7-2.4-1.1-4-1.1c-0.9,0-1.7,0.1-2.4,0.2c-0.7,0.1-1.4,0.3-2.1,0.6s-1.1,0.5-1.4,0.6
		s-0.8,0.4-1.4,0.8c-0.6,0.4-0.9,0.6-0.9,0.6c-0.8,0.4-1.6,0.6-2.4,0.4s-1.4-0.5-1.8-1.1l-2.9-4.1c0.5-0.6,1.1-1.2,1.9-1.8
		c0.8-0.6,1.8-1.3,3-2c1.2-0.7,2.7-1.3,4.4-1.8s3.5-0.7,5.3-0.7c5.2,0,9.2,1.2,11.9,3.6c2.7,2.4,4.1,6,4.1,10.7v10
		C181.9,101.7,182.3,102.7,183.2,103.2L183.2,103.2z M162.8,104.9c1,0,1.9-0.1,2.7-0.2s1.7-0.4,2.6-0.7c0.9-0.4,1.6-0.8,2.2-1.4
		s1.1-1.4,1.5-2.3c0.4-1,0.6-2.1,0.6-3.4v-0.9c-1.8,1.5-4.6,2.3-8.3,2.4c-1.7,0.2-3,0.5-3.8,1.1c-0.8,0.6-1.2,1.4-1.2,2.5
		c0,0.9,0.3,1.7,1,2.2C160.7,104.7,161.6,104.9,162.8,104.9z"/>
	<path class="st0" d="M230.7,85.3h-10.3v14.4c0,1.2,0.3,2.1,1,2.9c0.7,0.7,1.6,1.1,2.7,1.1h4c0.8,0,1.4,0.2,1.8,0.7
		c0.4,0.4,0.7,1.1,0.7,1.8v6.4h-7.3c-3.9,0-7-1.1-9.3-3.4c-2.2-2.3-3.3-5.4-3.3-9.4V85.3h-3.1c-0.7,0-1.3-0.2-1.8-0.7
		c-0.5-0.5-0.7-1.1-0.7-1.8v-5.9h5.6V65h9.6v11.8h10.3V85.3z"/>
	<path class="st0" d="M260.4,76.8h9.6v35.5h-7.2c-0.4,0-0.7-0.1-0.9-0.4c-0.3-0.3-0.4-0.6-0.4-0.9v-2.6c-2.5,3.1-5.7,4.6-9.5,4.6
		c-4.6,0-8.1-1.2-10.5-3.7c-2.4-2.5-3.5-6.1-3.5-11V76.8h9.6v19.9c0,2.7,0.4,4.7,1.3,6c0.9,1.3,2.4,1.9,4.7,1.9c2.2,0,3.9-0.7,5.1-2
		c1.2-1.4,1.8-3.3,1.8-5.8V76.8z"/>
	<path class="st0" d="M309.7,103.2c0.5,0.5,0.7,1.3,0.7,2.4v6.8h-0.9c-4.1,0-7.1-1.3-8.9-4c-2.9,3.1-7.1,4.6-12.6,4.6
		c-3.5,0-6.3-0.9-8.4-2.8c-2.1-1.9-3.1-4.4-3.1-7.6c0-3.1,1-5.6,3-7.7c2-2.1,5-3.4,9.1-3.9c5.1-0.6,8.6-1.4,10.3-2.4v-0.1
		c0-1.2-0.5-2.1-1.6-2.8c-1.1-0.7-2.4-1.1-4-1.1c-0.9,0-1.7,0.1-2.4,0.2c-0.7,0.1-1.4,0.3-2.1,0.6s-1.1,0.5-1.4,0.6
		c-0.3,0.1-0.8,0.4-1.4,0.8c-0.6,0.4-0.9,0.6-0.9,0.6c-0.8,0.4-1.6,0.6-2.4,0.4s-1.4-0.5-1.8-1.1l-2.9-4.1c0.5-0.6,1.1-1.2,1.9-1.8
		c0.8-0.6,1.8-1.3,3-2c1.2-0.7,2.7-1.3,4.4-1.8c1.7-0.5,3.5-0.7,5.3-0.7c5.2,0,9.2,1.2,11.9,3.6c2.7,2.4,4.1,6,4.1,10.7v10
		C308.4,101.7,308.8,102.7,309.7,103.2L309.7,103.2z M289.3,104.9c1,0,1.9-0.1,2.7-0.2c0.8-0.1,1.7-0.4,2.6-0.7
		c0.9-0.4,1.6-0.8,2.2-1.4c0.6-0.6,1.1-1.4,1.5-2.3c0.4-1,0.6-2.1,0.6-3.4v-0.9c-1.8,1.5-4.6,2.3-8.3,2.4c-1.7,0.2-3,0.5-3.8,1.1
		c-0.8,0.6-1.2,1.4-1.2,2.5c0,0.9,0.3,1.7,1,2.2C287.2,104.7,288.1,104.9,289.3,104.9z"/>
	<path class="st0" d="M34.4,177.3l-3.7-10.2H14l-3.8,10.2H0L17.5,130h10.4l17.3,47.3H34.4z M17.4,157.8h9.8L22.9,146
		c-0.1-0.3-0.1-0.5-0.1-0.7v-0.5c0-0.2-0.1-0.3-0.3-0.3h-0.1L17.4,157.8z"/>
	<path class="st0" d="M76.3,141.8v8.4l-16.5,18.6h16.5v8.4H47.1v-8.4l16.8-18.6H47.1v-8.4H76.3z"/>
	<path class="st0" d="M87.6,138.1c-1.5,0-2.7-0.5-3.7-1.5c-1-1-1.5-2.2-1.5-3.7c0-1.5,0.5-2.8,1.5-3.8c1-1,2.2-1.5,3.7-1.5
		c1.5,0,2.8,0.5,3.8,1.5s1.5,2.2,1.5,3.8c0,1.5-0.5,2.7-1.5,3.7C90.4,137.6,89.1,138.1,87.6,138.1z M82.8,177.3v-35.5h9.6v35.5H82.8
		z"/>
	<path class="st0" d="M117.1,141.1c5.4,0,9.7,1.8,13,5.3c3.3,3.5,5,8.2,5,13.9v1.6c0,0.3-0.1,0.7-0.4,0.9s-0.6,0.4-0.9,0.4H109
		c0.5,2,1.5,3.6,2.9,4.8c1.4,1.2,3.1,1.8,5.2,1.8c1.6,0,2.9-0.4,4.1-1.1c1.1-0.8,2-1.7,2.6-2.7c0.5-0.6,1.1-0.8,1.8-0.5l8,2.8
		c-1.2,3.1-3.2,5.6-6,7.3s-6.3,2.6-10.4,2.6c-5.5,0-9.8-1.7-13.2-5.1c-3.3-3.4-5-7.8-5-13.3c0-5.6,1.7-10.1,5-13.5
		C107.3,142.8,111.7,141.1,117.1,141.1z M117.1,149.5c-1.9,0-3.6,0.5-4.9,1.6c-1.4,1-2.3,2.5-2.9,4.3h15.7c-0.6-1.8-1.6-3.2-3-4.3
		C120.6,150,119,149.5,117.1,149.5z"/>
	<path class="st0" d="M159.8,141.2c4.6,0,8.1,1.3,10.5,3.9c2.4,2.6,3.6,6.4,3.6,11.2v21h-9.6v-19.9c0-2.7-0.4-4.7-1.3-6
		c-0.9-1.3-2.4-1.9-4.7-1.9c-2.2,0-3.9,0.7-5.1,2c-1.2,1.4-1.8,3.3-1.8,5.8v19.9h-9.6v-35.5h7.2c0.4,0,0.7,0.1,0.9,0.4
		s0.4,0.6,0.4,0.9v2.6C152.8,142.7,156,141.2,159.8,141.2z"/>
	<path class="st0" d="M206,130h9.6v47.3h-7.2c-0.4,0-0.7-0.1-0.9-0.4s-0.4-0.6-0.4-0.9v-3c-3,3.3-6.6,5-11,5c-4.9,0-8.8-1.7-11.7-5
		c-2.9-3.3-4.4-7.8-4.4-13.3c0-5.8,1.4-10.4,4.3-13.6c2.9-3.2,6.9-4.9,12.2-4.9c3.8,0,7,1.1,9.5,3.3V130z M197.8,169.6
		c2.6,0,4.6-0.9,6-2.6c1.5-1.7,2.2-4.1,2.2-7.1v-0.7c0-3-0.8-5.3-2.3-7.1c-1.5-1.8-3.5-2.6-6.1-2.6c-2.5,0-4.5,0.9-5.9,2.8
		c-1.4,1.8-2.1,4.3-2.1,7.3s0.7,5.4,2.2,7.3C193.3,168.7,195.3,169.6,197.8,169.6z"/>
	<path class="st0" d="M255.4,168.2c0.5,0.5,0.7,1.3,0.7,2.4v6.8h-0.9c-4.1,0-7.1-1.3-8.9-4c-2.9,3.1-7.1,4.6-12.6,4.6
		c-3.5,0-6.3-0.9-8.4-2.8c-2.1-1.9-3.1-4.4-3.1-7.6c0-3.1,1-5.6,3-7.7c2-2.1,5-3.4,9.1-3.9c5.1-0.6,8.6-1.4,10.3-2.4v-0.1
		c0-1.2-0.5-2.1-1.6-2.8c-1.1-0.7-2.4-1.1-4-1.1c-0.9,0-1.7,0.1-2.4,0.2c-0.7,0.1-1.4,0.3-2.1,0.6s-1.1,0.5-1.4,0.6
		s-0.8,0.4-1.4,0.8c-0.6,0.4-0.9,0.6-0.9,0.6c-0.8,0.4-1.6,0.6-2.4,0.4s-1.4-0.5-1.8-1.1l-2.9-4.1c0.5-0.6,1.1-1.2,1.9-1.8
		c0.8-0.6,1.8-1.3,3-2c1.2-0.7,2.7-1.3,4.4-1.8s3.5-0.7,5.3-0.7c5.2,0,9.2,1.2,11.9,3.6c2.7,2.4,4.1,6,4.1,10.7v10
		C254,166.7,254.5,167.7,255.4,168.2L255.4,168.2z M234.9,169.9c1,0,1.9-0.1,2.7-0.2s1.7-0.4,2.6-0.7c0.9-0.4,1.6-0.8,2.2-1.4
		s1.1-1.4,1.5-2.3c0.4-1,0.6-2.1,0.6-3.4v-0.9c-1.8,1.5-4.6,2.3-8.3,2.4c-1.7,0.2-3,0.5-3.8,1.1c-0.8,0.6-1.2,1.4-1.2,2.5
		c0,0.9,0.3,1.7,1,2.2C232.9,169.7,233.8,169.9,234.9,169.9z"/>
	<path class="st0" d="M16.1,243c-3,0-5.8-0.4-8.4-1.2c-2.6-0.8-4.7-1.9-6.3-3.3l3.8-5.7c0.3-0.4,0.7-0.7,1.1-0.7
		c0.5-0.1,0.9,0,1.4,0.3c2.8,1.6,5.6,2.4,8.3,2.4c1.7,0,3-0.3,3.8-0.8c0.8-0.6,1.2-1.3,1.2-2.2c0-0.7-0.3-1.3-0.8-1.9
		c-0.5-0.5-1.3-0.9-2.4-1.1c-0.8-0.2-2-0.5-3.7-0.8c-1.6-0.3-2.9-0.6-3.9-0.9c-2.5-0.7-4.5-1.8-5.9-3.6c-1.4-1.7-2.2-3.8-2.2-6.3
		c0-3.4,1.2-6,3.7-8.1c2.5-2,5.8-3,9.9-3c2.6,0,5.1,0.4,7.5,1.3c2.4,0.9,4.3,1.9,5.7,3.1l-3.5,5.7c-0.6,0.9-1.4,1.1-2.4,0.5
		c-2.8-1.7-5.6-2.5-8.3-2.5c-1.1,0-1.9,0.2-2.6,0.7c-0.6,0.4-0.9,1-0.9,1.7c0,0.5,0.2,1,0.6,1.5c0.4,0.4,1,0.7,1.7,0.9
		c1.5,0.5,3.6,1,6.3,1.7c3.4,0.8,6.1,2.2,7.9,4.1c1.8,2,2.7,4.3,2.7,6.9c0,3.4-1.3,6.2-3.8,8.2C23.9,242,20.5,243,16.1,243z"/>
	<path class="st0" d="M51.5,243.1c-5.5,0-9.8-1.7-13-5.1c-3.2-3.4-4.8-7.8-4.8-13.3c0-5.7,1.6-10.2,4.8-13.6c3.2-3.4,7.5-5.1,13-5.1
		c4.3,0,7.9,1.1,10.8,3.2c2.9,2.1,4.9,5.3,5.9,9.3l-7.4,1.4c-1.4,0.3-2.4-0.1-2.9-1.2c-1.2-2.9-3.3-4.3-6.4-4.3
		c-2.6,0-4.7,0.9-6.1,2.8c-1.4,1.9-2.1,4.4-2.1,7.4c0,2.9,0.7,5.3,2.2,7.2c1.4,1.9,3.5,2.8,6.1,2.8c1.8,0,3.2-0.4,4.2-1.2
		c1-0.8,1.8-2,2.4-3.5c0.3-0.6,0.7-1,1.3-1.2c0.6-0.2,1.2-0.3,1.8-0.2l7.3,1.3c-0.9,4.3-2.8,7.5-5.9,9.8
		C59.5,242,55.8,243.1,51.5,243.1z"/>
	<path class="st0" d="M89.9,206.1c5.4,0,9.7,1.8,13,5.3c3.3,3.5,5,8.2,5,13.9v1.6c0,0.3-0.1,0.7-0.4,0.9s-0.6,0.4-0.9,0.4H81.8
		c0.5,2,1.5,3.6,2.9,4.8c1.4,1.2,3.1,1.8,5.2,1.8c1.6,0,2.9-0.4,4.1-1.1c1.1-0.8,2-1.7,2.6-2.7c0.5-0.6,1.1-0.8,1.8-0.5l8,2.8
		c-1.2,3.1-3.2,5.6-6,7.3c-2.8,1.8-6.3,2.7-10.4,2.7c-5.5,0-9.8-1.7-13.2-5.1c-3.3-3.4-5-7.8-5-13.3c0-5.6,1.7-10.1,5-13.5
		C80.2,207.8,84.5,206.1,89.9,206.1z M89.9,214.5c-1.9,0-3.6,0.5-4.9,1.6c-1.4,1-2.3,2.5-2.9,4.3h15.7c-0.6-1.8-1.6-3.2-3-4.3
		C93.4,215,91.8,214.5,89.9,214.5z"/>
	<path class="st0" d="M134.7,235.8c3.9,0,7,0.8,9,2.3c2.1,1.5,3.1,3.9,3.1,6.9c0,3.1-1.5,5.7-4.4,7.6c-2.9,2-7.4,2.9-13.4,2.9
		c-5.4,0-9.6-1-12.7-3c-3.1-2-4.6-4.5-4.6-7.5c0-1.9,0.5-3.5,1.4-4.9c0.9-1.4,1.9-2.2,2.9-2.6c-0.5-0.1-1.1-0.6-1.7-1.4s-1-1.9-1-3
		c0-2.3,1-4.1,3-5.3c-2.4-2.4-3.6-5.3-3.6-8.8c0-4.2,1.3-7.4,4-9.6c2.7-2.2,6.4-3.4,11.1-3.4c3.6,0,6.7,0.7,9.1,2
		c0.9-0.8,2.1-1.2,3.6-1.2h4.8v5.5c0,0.6-0.2,1.1-0.6,1.5s-0.9,0.6-1.5,0.6h-1c0.5,1.4,0.7,3,0.7,4.6c0,4.1-1.4,7.3-4.3,9.6
		c-2.9,2.2-6.8,3.4-11.7,3.4h-2.4c-0.9,0-1.6,0.2-2.2,0.5c-0.5,0.3-0.8,0.8-0.8,1.4c0,1.3,1.3,2,3.8,2H134.7z M129.1,247.6
		c3.2,0,5.5-0.3,6.9-0.8c1.5-0.5,2.2-1.3,2.2-2.2c0-1.4-1.3-2.2-3.9-2.2h-9.7c-2.7,0-4.1,0.7-4.1,2.2c0,0.8,0.8,1.5,2.4,2.1
		C124.6,247.3,126.6,247.6,129.1,247.6z M132.4,215.4c-1.1-0.8-2.7-1.2-4.5-1.2s-3.4,0.4-4.5,1.3c-1.1,0.8-1.7,2-1.7,3.5
		c0,1.5,0.6,2.8,1.7,3.6c1.1,0.9,2.6,1.3,4.5,1.3c1.9,0,3.4-0.4,4.6-1.3c1.1-0.9,1.7-2.1,1.7-3.6
		C134.1,217.5,133.6,216.3,132.4,215.4z"/>
	<path class="st0" d="M163.7,242.4c-3.7,0-6.6-1-8.6-3.1c-2.1-2.1-3.1-4.9-3.1-8.7V195h9.6v35.7c0,0.9,0.3,1.6,0.8,2.1
		c0.5,0.5,1.2,0.8,2.1,0.8h1.8c0.7,0,1.3,0.2,1.8,0.7c0.5,0.5,0.7,1.1,0.7,1.8v6.4H163.7z"/>
	<path class="st0" d="M179.5,203.1c-1.5,0-2.7-0.5-3.7-1.5c-1-1-1.5-2.2-1.5-3.7c0-1.5,0.5-2.8,1.5-3.8c1-1,2.2-1.5,3.7-1.5
		c1.5,0,2.8,0.5,3.8,1.5s1.5,2.2,1.5,3.8c0,1.5-0.5,2.7-1.5,3.7C182.3,202.6,181,203.1,179.5,203.1z M174.7,242.3v-35.5h9.6v35.5
		H174.7z"/>
	<path class="st0" d="M16.3,307.4c-3.7,0-6.6-1-8.6-3.1c-2-2.1-3.1-4.9-3.1-8.7V260h9.6v35.7c0,0.9,0.3,1.6,0.8,2.1
		c0.5,0.5,1.2,0.8,2.1,0.8h1.8c0.7,0,1.3,0.2,1.8,0.7s0.7,1.1,0.7,1.8v6.4H16.3z"/>
	<path class="st0" d="M57.7,298.2c0.5,0.5,0.7,1.3,0.7,2.4v6.8h-0.9c-4.1,0-7.1-1.3-8.9-4c-2.9,3.1-7.1,4.6-12.6,4.6
		c-3.5,0-6.3-0.9-8.4-2.8c-2.1-1.9-3.1-4.4-3.1-7.6c0-3.1,1-5.6,3-7.7c2-2.1,5-3.4,9.1-3.9c5.1-0.6,8.6-1.4,10.3-2.4v-0.1
		c0-1.2-0.5-2.1-1.6-2.8s-2.4-1.1-4-1.1c-0.9,0-1.7,0.1-2.4,0.2c-0.7,0.1-1.4,0.3-2.1,0.6s-1.1,0.5-1.4,0.6
		c-0.3,0.1-0.8,0.4-1.4,0.8c-0.6,0.4-0.9,0.6-0.9,0.6c-0.8,0.4-1.6,0.6-2.4,0.4s-1.4-0.5-1.8-1.1l-2.9-4.1c0.5-0.6,1.1-1.2,1.9-1.8
		c0.8-0.6,1.8-1.3,3-2c1.2-0.7,2.7-1.3,4.4-1.8c1.7-0.5,3.5-0.7,5.3-0.7c5.2,0,9.2,1.2,11.9,3.6c2.7,2.4,4.1,6,4.1,10.7v10
		C56.3,296.7,56.8,297.7,57.7,298.2L57.7,298.2z M37.2,299.9c1,0,1.9-0.1,2.7-0.2c0.8-0.1,1.7-0.4,2.6-0.7c0.9-0.4,1.6-0.8,2.2-1.4
		c0.6-0.6,1.1-1.4,1.5-2.3c0.4-1,0.6-2.1,0.6-3.4v-0.9c-1.8,1.5-4.6,2.3-8.3,2.4c-1.7,0.2-3,0.5-3.8,1.1c-0.8,0.6-1.2,1.4-1.2,2.5
		c0,0.9,0.3,1.7,1,2.2C35.2,299.7,36.1,299.9,37.2,299.9z"/>
	<path class="st0" d="M109.3,271.8h7.2v47.3h-9.6v-14.4c-2.4,2.1-5.6,3.2-9.4,3.2c-5.3,0-9.4-1.6-12.3-4.9
		c-2.9-3.2-4.4-7.8-4.4-13.6c0-5.6,1.4-10,4.3-13.3c2.9-3.3,6.7-5,11.6-5c4.6,0,8.3,1.7,11.2,5v-3c0-0.3,0.1-0.7,0.4-0.9
		S108.9,271.8,109.3,271.8z M98.7,299.6c2.6,0,4.6-0.9,6-2.7c1.5-1.8,2.2-4.2,2.2-7.2v-0.5c0-3-0.8-5.3-2.3-7
		c-1.5-1.7-3.5-2.6-6.1-2.6c-2.5,0-4.5,0.9-5.9,2.8c-1.4,1.8-2.1,4.3-2.1,7.3s0.7,5.4,2.2,7.3C94.1,298.7,96.1,299.6,98.7,299.6z"/>
	<path class="st0" d="M148,271.8h9.6v35.5h-7.2c-0.4,0-0.7-0.1-0.9-0.4c-0.3-0.3-0.4-0.6-0.4-0.9v-2.6c-2.5,3.1-5.7,4.6-9.5,4.6
		c-4.6,0-8.1-1.2-10.5-3.7c-2.4-2.5-3.5-6.1-3.5-11v-21.4h9.6v19.9c0,2.7,0.4,4.7,1.3,6c0.9,1.3,2.4,1.9,4.7,1.9
		c2.2,0,3.9-0.7,5.1-2s1.8-3.3,1.8-5.8V271.8z"/>
	<path class="st0" d="M197.4,298.2c0.5,0.5,0.7,1.3,0.7,2.4v6.8h-0.9c-4.1,0-7.1-1.3-8.9-4c-2.9,3.1-7.1,4.6-12.6,4.6
		c-3.5,0-6.3-0.9-8.4-2.8c-2.1-1.9-3.1-4.4-3.1-7.6c0-3.1,1-5.6,3-7.7c2-2.1,5-3.4,9.1-3.9c5.1-0.6,8.6-1.4,10.3-2.4v-0.1
		c0-1.2-0.5-2.1-1.6-2.8c-1.1-0.7-2.4-1.1-4-1.1c-0.9,0-1.7,0.1-2.4,0.2c-0.7,0.1-1.4,0.3-2.1,0.6s-1.1,0.5-1.4,0.6
		s-0.8,0.4-1.4,0.8s-0.9,0.6-0.9,0.6c-0.8,0.4-1.6,0.6-2.4,0.4s-1.4-0.5-1.8-1.1l-2.9-4.1c0.5-0.6,1.1-1.2,1.9-1.8
		c0.8-0.6,1.8-1.3,3-2c1.2-0.7,2.7-1.3,4.4-1.8c1.7-0.5,3.5-0.7,5.3-0.7c5.2,0,9.2,1.2,11.9,3.6c2.7,2.4,4.1,6,4.1,10.7v10
		C196,296.7,196.4,297.7,197.4,298.2L197.4,298.2z M176.9,299.9c1,0,1.9-0.1,2.7-0.2s1.7-0.4,2.6-0.7c0.9-0.4,1.6-0.8,2.2-1.4
		c0.6-0.6,1.1-1.4,1.5-2.3c0.4-1,0.6-2.1,0.6-3.4v-0.9c-1.8,1.5-4.6,2.3-8.3,2.4c-1.7,0.2-3,0.5-3.8,1.1c-0.8,0.6-1.2,1.4-1.2,2.5
		c0,0.9,0.3,1.7,1,2.2S175.8,299.9,176.9,299.9z"/>
	<path class="st0" d="M216.2,307.4c-3.7,0-6.6-1-8.6-3.1c-2.1-2.1-3.1-4.9-3.1-8.7V260h9.6v35.7c0,0.9,0.3,1.6,0.8,2.1
		c0.5,0.5,1.2,0.8,2.1,0.8h1.8c0.7,0,1.3,0.2,1.8,0.7c0.5,0.5,0.7,1.1,0.7,1.8v6.4H216.2z"/>
	<path class="st0" d="M232,268.1c-1.5,0-2.7-0.5-3.7-1.5s-1.5-2.2-1.5-3.7c0-1.5,0.5-2.8,1.5-3.8c1-1,2.2-1.5,3.7-1.5
		c1.5,0,2.8,0.5,3.8,1.5c1,1,1.5,2.2,1.5,3.8c0,1.5-0.5,2.7-1.5,3.7C234.8,267.6,233.5,268.1,232,268.1z M227.2,307.3v-35.5h9.6
		v35.5H227.2z"/>
	<path class="st0" d="M267.7,280.3h-10.3v14.4c0,1.2,0.3,2.1,1,2.9c0.7,0.7,1.6,1.1,2.7,1.1h4c0.8,0,1.4,0.2,1.8,0.7
		c0.4,0.4,0.7,1.1,0.7,1.8v6.4h-7.3c-3.9,0-7-1.1-9.3-3.4c-2.2-2.3-3.3-5.4-3.3-9.4v-14.4h-3.1c-0.7,0-1.3-0.2-1.8-0.7
		c-0.5-0.5-0.7-1.1-0.7-1.8v-5.9h5.6V260h9.6v11.8h10.3V280.3z"/>
	<path class="st0" d="M305.7,298.2c0.5,0.5,0.7,1.3,0.7,2.4v6.8h-0.9c-4.1,0-7.1-1.3-8.9-4c-2.9,3.1-7.1,4.6-12.6,4.6
		c-3.5,0-6.3-0.9-8.4-2.8c-2.1-1.9-3.1-4.4-3.1-7.6c0-3.1,1-5.6,3-7.7c2-2.1,5-3.4,9.1-3.9c5.1-0.6,8.6-1.4,10.3-2.4v-0.1
		c0-1.2-0.5-2.1-1.6-2.8s-2.4-1.1-4-1.1c-0.9,0-1.7,0.1-2.4,0.2c-0.7,0.1-1.4,0.3-2.1,0.6s-1.1,0.5-1.4,0.6
		c-0.3,0.1-0.8,0.4-1.4,0.8c-0.6,0.4-0.9,0.6-0.9,0.6c-0.8,0.4-1.6,0.6-2.4,0.4s-1.4-0.5-1.8-1.1l-2.9-4.1c0.5-0.6,1.1-1.2,1.9-1.8
		c0.8-0.6,1.8-1.3,3-2c1.2-0.7,2.7-1.3,4.4-1.8c1.7-0.5,3.5-0.7,5.3-0.7c5.2,0,9.2,1.2,11.9,3.6c2.7,2.4,4.1,6,4.1,10.7v10
		C304.3,296.7,304.7,297.7,305.7,298.2L305.7,298.2z M285.2,299.9c1,0,1.9-0.1,2.7-0.2c0.8-0.1,1.7-0.4,2.6-0.7
		c0.9-0.4,1.6-0.8,2.2-1.4c0.6-0.6,1.1-1.4,1.5-2.3c0.4-1,0.6-2.1,0.6-3.4v-0.9c-1.8,1.5-4.6,2.3-8.3,2.4c-1.7,0.2-3,0.5-3.8,1.1
		c-0.8,0.6-1.2,1.4-1.2,2.5c0,0.9,0.3,1.7,1,2.2C283.2,299.7,284.1,299.9,285.2,299.9z"/>
	<path class="st0" d="M295.6,264.3h-2.1c-1.9,0-3.5-0.3-4.8-0.9c-1.3-0.6-2.6-1.5-3.8-2.7l-4-3.9c-0.3-0.3-0.3-0.5-0.2-0.8
		c0.1-0.3,0.4-0.4,0.7-0.4h4.3c1.2,0,2.3,0.2,3.2,0.7c0.9,0.4,1.6,1,2.1,1.6L295.6,264.3z"/>
</g>
</svg>
