<?xml version="1.0" encoding="utf-8"?>
<!-- Generator: Adobe Illustrator 24.3.0, SVG Export Plug-In . SVG Version: 6.00 Build 0)  -->
<svg version="1.1" id="Laag_1" xmlns:v="https://vecta.io/nano"
	 xmlns="http://www.w3.org/2000/svg" xmlns:xlink="http://www.w3.org/1999/xlink" x="0px" y="0px" width="484.7px" height="375.4px"
	 viewBox="0 0 484.7 375.4" style="enable-background:new 0 0 484.7 375.4;" xml:space="preserve">
<style type="text/css">
	.st0{fill:#6A3F24;}
</style>
<g>
	<path class="st0" d="M20,50.4c-8.2,0-14.6-2.2-19.1-6.5l4.6-5.7c0.8-1,1.7-1.1,2.7-0.3c1.4,1,3.1,1.9,5.3,2.5c2.2,0.7,4.6,1,7.3,1
		c2.4,0,4.4-0.5,5.9-1.5c1.5-1,2.3-2.3,2.4-3.7c0.1-1.4-0.3-2.5-1.3-3.6c-1-1-2.6-1.8-4.8-2.3L14.7,28c-3.8-1-6.8-2.5-9.1-4.7
		c-2.2-2.2-3.4-4.9-3.4-8.3c0-4.2,1.6-7.5,4.8-9.8c3.2-2.3,7.4-3.5,12.7-3.5c2.3,0,4.5,0.3,6.6,0.8c2.1,0.5,3.9,1.2,5.3,2
		c1.4,0.8,2.5,1.4,3.2,2c0.7,0.5,1.3,1,1.7,1.4L32,13.5c-0.3,0.4-0.8,0.7-1.4,0.8c-0.6,0.1-1.1-0.1-1.5-0.4
		c-3.7-2.3-7.1-3.4-10.2-3.4c-4.3,0-6.5,1.4-6.7,4.2c-0.1,1,0.3,2,1.1,2.7c0.8,0.8,2,1.3,3.4,1.7l9,2.5c4.4,1.1,7.7,2.9,10,5.4
		c2.3,2.4,3.5,5.5,3.5,9.1c0,4.4-1.8,7.9-5.2,10.5C30.4,49.1,25.8,50.4,20,50.4z"/>
	<path class="st0" d="M59.8,50.4c-5.5,0-9.8-1.7-13-5.1C43.6,42,42,37.6,42,32.1c0-5.7,1.6-10.2,4.8-13.6c3.2-3.4,7.5-5.1,13-5.1
		c4.3,0,7.9,1.1,10.8,3.2c2.9,2.1,4.9,5.3,5.9,9.3l-7.4,1.4c-1.4,0.3-2.4-0.1-2.9-1.2c-1.2-2.9-3.3-4.3-6.4-4.3
		c-2.6,0-4.7,0.9-6.1,2.8c-1.4,1.9-2.1,4.4-2.1,7.4c0,2.9,0.7,5.3,2.2,7.2c1.4,1.9,3.5,2.8,6.1,2.8c1.8,0,3.2-0.4,4.2-1.2
		c1-0.8,1.8-2,2.4-3.5c0.3-0.6,0.7-1,1.3-1.2c0.6-0.2,1.2-0.3,1.8-0.2l7.3,1.3c-0.9,4.3-2.8,7.5-5.9,9.8
		C67.9,49.3,64.2,50.4,59.8,50.4z"/>
	<path class="st0" d="M110.9,45.4c-3.2,3.3-7.5,5-13,5s-9.8-1.7-13-5c-3.2-3.3-4.8-7.8-4.8-13.5c0-5.6,1.6-10.1,4.8-13.5
		c3.2-3.3,7.5-5,13-5s9.8,1.7,13,5c3.2,3.4,4.8,7.9,4.8,13.5C115.7,37.6,114.1,42.1,110.9,45.4z M91.9,39.3c1.4,1.9,3.5,2.8,6.1,2.8
		c2.6,0,4.6-0.9,6.1-2.8c1.4-1.9,2.2-4.3,2.2-7.3c0-3-0.7-5.5-2.2-7.3c-1.4-1.9-3.5-2.8-6.1-2.8c-2.6,0-4.6,0.9-6.1,2.8
		c-1.4,1.9-2.2,4.3-2.2,7.3C89.7,35,90.5,37.4,91.9,39.3z"/>
	<path class="st0" d="M142,13.5c4.9,0,8.7,1.7,11.6,5c2.9,3.3,4.3,7.8,4.3,13.3c0,5.8-1.5,10.4-4.4,13.6c-2.9,3.2-7,4.9-12.3,4.9
		c-3.8,0-6.9-1-9.4-3.1v14.3h-9.6V14.2h7.2c0.4,0,0.7,0.1,0.9,0.4s0.4,0.6,0.4,0.9v3C133.9,15.2,137.6,13.5,142,13.5z M140.2,42
		c2.5,0,4.5-0.9,6-2.8c1.5-1.8,2.2-4.3,2.2-7.3s-0.7-5.4-2.1-7.3c-1.4-1.8-3.4-2.8-5.9-2.8s-4.5,0.9-6,2.6c-1.5,1.7-2.3,4-2.3,7v0.7
		c0,3.1,0.7,5.5,2.2,7.2C135.6,41.1,137.6,42,140.2,42z"/>
	<path class="st0" d="M183.5,14.2h0.6v5.4c0,0.8-0.2,1.4-0.7,1.9c-0.4,0.5-1,0.7-1.7,0.7h-0.5c-2.7,0-4.8,0.8-6.2,2.5
		c-1.4,1.6-2.1,4-2.1,6.9v18.1h-9.6V14.2h7.2c0.4,0,0.7,0.1,0.9,0.4s0.4,0.6,0.4,0.9V19C174.8,15.8,178.6,14.2,183.5,14.2z"/>
	<path class="st0" d="M193.6,10.4c-1.5,0-2.7-0.5-3.7-1.5c-1-1-1.5-2.2-1.5-3.7c0-1.5,0.5-2.8,1.5-3.8c1-1,2.2-1.5,3.7-1.5
		c1.5,0,2.8,0.5,3.8,1.5s1.5,2.2,1.5,3.8c0,1.5-0.5,2.7-1.5,3.7C196.4,10,195.1,10.4,193.6,10.4z M188.8,49.7V14.2h9.6v35.5H188.8z"
		/>
	<path class="st0" d="M9.3,75.4c-1.5,0-2.7-0.5-3.7-1.5c-1-1-1.5-2.2-1.5-3.7c0-1.5,0.5-2.8,1.5-3.8c1-1,2.2-1.5,3.7-1.5
		c1.5,0,2.8,0.5,3.8,1.5s1.5,2.2,1.5,3.8c0,1.5-0.5,2.7-1.5,3.7C12.1,75,10.8,75.4,9.3,75.4z M4.5,114.7V79.2h9.6v35.5H4.5z"/>
	<path class="st0" d="M35.3,114.8c-3.7,0-6.6-1-8.6-3.1c-2-2.1-3.1-4.9-3.1-8.7V67.4h9.6V103c0,0.9,0.3,1.6,0.8,2.1
		c0.5,0.5,1.2,0.8,2.1,0.8h1.8c0.7,0,1.3,0.2,1.8,0.7s0.7,1.1,0.7,1.8v6.4H35.3z"/>
	<path class="st0" d="M84.3,79.2h0.6v5.4c0,0.8-0.2,1.4-0.7,1.9c-0.4,0.5-1,0.7-1.7,0.7h-0.5c-2.7,0-4.8,0.8-6.2,2.5
		c-1.4,1.6-2.1,4-2.1,6.9v18.1h-9.6V79.2h7.2c0.4,0,0.7,0.1,0.9,0.4c0.2,0.3,0.4,0.6,0.4,0.9V84C75.6,80.8,79.4,79.2,84.3,79.2z"/>
	<path class="st0" d="M105,78.4c5.4,0,9.7,1.8,13,5.3c3.3,3.5,5,8.2,5,13.9v1.6c0,0.3-0.1,0.7-0.4,0.9s-0.6,0.4-0.9,0.4H96.9
		c0.5,2,1.5,3.6,2.9,4.8c1.4,1.2,3.1,1.8,5.2,1.8c1.6,0,2.9-0.4,4.1-1.1c1.1-0.8,2-1.7,2.6-2.7c0.5-0.6,1.1-0.8,1.8-0.5l8,2.8
		c-1.2,3.1-3.2,5.6-6,7.3s-6.3,2.6-10.4,2.6c-5.5,0-9.8-1.7-13.2-5.1c-3.3-3.4-5-7.8-5-13.3c0-5.6,1.7-10.1,5-13.5
		C95.2,80.1,99.6,78.4,105,78.4z M105,86.8c-1.9,0-3.6,0.5-4.9,1.6c-1.4,1-2.3,2.5-2.9,4.3h15.7c-0.6-1.8-1.6-3.2-3-4.3
		C108.5,87.3,106.9,86.8,105,86.8z"/>
	<path class="st0" d="M149.7,108.2c3.9,0,7,0.8,9,2.3c2.1,1.5,3.1,3.9,3.1,6.9c0,3.1-1.5,5.7-4.4,7.6c-2.9,2-7.4,2.9-13.4,2.9
		c-5.4,0-9.6-1-12.7-3c-3.1-2-4.6-4.5-4.6-7.5c0-1.9,0.5-3.5,1.4-4.9c0.9-1.4,1.9-2.2,2.9-2.6c-0.5-0.1-1.1-0.6-1.7-1.4s-1-1.9-1-3
		c0-2.3,1-4.1,3-5.3c-2.4-2.4-3.6-5.3-3.6-8.8c0-4.2,1.3-7.4,4-9.6c2.7-2.2,6.4-3.4,11.1-3.4c3.6,0,6.7,0.7,9.1,2
		c0.9-0.8,2.1-1.2,3.6-1.2h4.8v5.5c0,0.6-0.2,1.1-0.6,1.5s-0.9,0.6-1.5,0.6h-1c0.5,1.4,0.7,3,0.7,4.6c0,4.1-1.4,7.3-4.3,9.6
		c-2.9,2.2-6.8,3.4-11.7,3.4h-2.4c-0.9,0-1.6,0.2-2.2,0.5c-0.5,0.3-0.8,0.8-0.8,1.4c0,1.3,1.3,2,3.8,2H149.7z M144.2,120
		c3.2,0,5.5-0.3,6.9-0.8c1.5-0.5,2.2-1.3,2.2-2.2c0-1.4-1.3-2.2-3.9-2.2h-9.7c-2.7,0-4.1,0.7-4.1,2.2c0,0.8,0.8,1.5,2.4,2.1
		C139.7,119.7,141.7,120,144.2,120z M147.5,87.8c-1.1-0.8-2.6-1.2-4.5-1.2s-3.4,0.4-4.5,1.3c-1.1,0.8-1.7,2-1.7,3.5
		c0,1.5,0.6,2.8,1.7,3.6c1.1,0.9,2.6,1.3,4.5,1.3c1.9,0,3.4-0.4,4.6-1.3c1.1-0.9,1.7-2.1,1.7-3.6C149.2,89.8,148.6,88.6,147.5,87.8z
		"/>
	<path class="st0" d="M196.6,105.6c0.5,0.5,0.7,1.3,0.7,2.4v6.8h-0.9c-4.1,0-7.1-1.3-8.9-4c-2.9,3.1-7.1,4.6-12.6,4.6
		c-3.5,0-6.3-0.9-8.4-2.8c-2.1-1.9-3.1-4.4-3.1-7.6c0-3.1,1-5.6,3-7.7c2-2.1,5-3.4,9.1-3.9c5.1-0.6,8.6-1.4,10.3-2.4v-0.1
		c0-1.2-0.5-2.1-1.6-2.8c-1.1-0.7-2.4-1.1-4-1.1c-0.9,0-1.7,0.1-2.4,0.2c-0.7,0.1-1.4,0.3-2.1,0.6s-1.1,0.5-1.4,0.6
		c-0.3,0.1-0.8,0.4-1.4,0.8c-0.6,0.4-0.9,0.6-0.9,0.6c-0.8,0.4-1.6,0.6-2.4,0.4s-1.4-0.5-1.8-1.1l-2.9-4.1c0.5-0.6,1.1-1.2,1.9-1.8
		c0.8-0.6,1.8-1.3,3-2c1.2-0.7,2.7-1.3,4.4-1.8c1.7-0.5,3.5-0.7,5.3-0.7c5.2,0,9.2,1.2,11.9,3.6c2.7,2.4,4.1,6,4.1,10.7v10
		C195.2,104.1,195.7,105,196.6,105.6L196.6,105.6z M176.1,107.3c1,0,1.9-0.1,2.7-0.2c0.8-0.1,1.7-0.4,2.6-0.7
		c0.9-0.4,1.6-0.8,2.2-1.4c0.6-0.6,1.1-1.4,1.5-2.3c0.4-1,0.6-2.1,0.6-3.4v-0.9c-1.8,1.5-4.6,2.3-8.3,2.4c-1.7,0.2-3,0.5-3.8,1.1
		c-0.8,0.6-1.2,1.4-1.2,2.5c0,0.9,0.3,1.7,1,2.2C174.1,107,175,107.3,176.1,107.3z"/>
	<path class="st0" d="M215.5,114.8c-3.7,0-6.6-1-8.6-3.1c-2-2.1-3.1-4.9-3.1-8.7V67.4h9.6V103c0,0.9,0.3,1.6,0.8,2.1
		c0.5,0.5,1.2,0.8,2.1,0.8h1.8c0.7,0,1.3,0.2,1.8,0.7s0.7,1.1,0.7,1.8v6.4H215.5z"/>
	<path class="st0" d="M254.5,110.4c-3.2,3.3-7.5,5-13,5s-9.8-1.7-13-5c-3.2-3.3-4.8-7.8-4.8-13.5c0-5.6,1.6-10.1,4.8-13.5
		c3.2-3.3,7.5-5,13-5s9.8,1.7,13,5c3.2,3.4,4.8,7.9,4.8,13.5C259.3,102.6,257.7,107.1,254.5,110.4z M235.4,104.3
		c1.4,1.9,3.5,2.8,6.1,2.8c2.6,0,4.6-0.9,6.1-2.8c1.4-1.9,2.2-4.3,2.2-7.3c0-3-0.7-5.5-2.2-7.3c-1.4-1.9-3.5-2.8-6.1-2.8
		c-2.6,0-4.6,0.9-6.1,2.8c-1.4,1.9-2.2,4.3-2.2,7.3C233.3,100,234,102.4,235.4,104.3z"/>
	<path class="st0" d="M27.8,132.4h9.6v47.3h-7.2c-0.4,0-0.7-0.1-0.9-0.4s-0.4-0.6-0.4-0.9v-3c-3,3.3-6.6,5-11,5
		c-4.9,0-8.8-1.7-11.7-5c-2.9-3.3-4.4-7.8-4.4-13.3c0-5.8,1.4-10.4,4.3-13.6c2.9-3.2,6.9-4.9,12.2-4.9c3.8,0,7,1.1,9.5,3.3V132.4z
		 M19.6,172c2.6,0,4.6-0.9,6-2.6c1.5-1.7,2.2-4.1,2.2-7.1v-0.7c0-3-0.8-5.3-2.3-7.1c-1.5-1.8-3.5-2.6-6.1-2.6
		c-2.5,0-4.5,0.9-5.9,2.8c-1.4,1.8-2.1,4.3-2.1,7.3s0.7,5.4,2.2,7.3C15,171.1,17,172,19.6,172z"/>
	<path class="st0" d="M51.6,140.4c-1.5,0-2.7-0.5-3.7-1.5c-1-1-1.5-2.2-1.5-3.7c0-1.5,0.5-2.8,1.5-3.8c1-1,2.2-1.5,3.7-1.5
		c1.5,0,2.8,0.5,3.8,1.5s1.5,2.2,1.5,3.8c0,1.5-0.5,2.7-1.5,3.7C54.3,140,53.1,140.4,51.6,140.4z M46.8,179.7v-35.5h9.6v35.5H46.8z"
		/>
	<path class="st0" d="M34.4,244.7l-3.7-10.2H14l-3.8,10.2H0l17.5-47.3h10.4l17.3,47.3H34.4z M17.4,225.2h9.8l-4.3-11.8
		c-0.1-0.3-0.1-0.5-0.1-0.7v-0.5c0-0.2-0.1-0.3-0.3-0.3h-0.1L17.4,225.2z"/>
	<path class="st0" d="M68,208.5c4.6,0,8.1,1.3,10.5,3.9c2.4,2.6,3.6,6.4,3.6,11.2v21h-9.6v-19.9c0-2.7-0.4-4.7-1.3-6
		c-0.9-1.3-2.4-1.9-4.7-1.9c-2.2,0-3.9,0.7-5.1,2c-1.2,1.4-1.8,3.3-1.8,5.8v19.9H50v-35.5h7.2c0.4,0,0.7,0.1,0.9,0.4
		s0.4,0.6,0.4,0.9v2.6C61,210.1,64.2,208.5,68,208.5z"/>
	<path class="st0" d="M112.5,217.6h-10.3V232c0,1.2,0.3,2.1,1,2.9c0.7,0.7,1.6,1.1,2.7,1.1h4c0.8,0,1.4,0.2,1.8,0.7
		c0.4,0.4,0.7,1.1,0.7,1.8v6.4h-7.3c-3.9,0-7-1.1-9.3-3.4c-2.2-2.3-3.3-5.4-3.3-9.4v-14.4h-3.1c-0.7,0-1.3-0.2-1.8-0.7
		c-0.5-0.5-0.7-1.1-0.7-1.8v-5.9h5.6v-11.8h9.6v11.8h10.3V217.6z"/>
	<path class="st0" d="M148.1,240.4c-3.2,3.3-7.5,5-13,5s-9.8-1.7-13-5c-3.2-3.3-4.8-7.8-4.8-13.5c0-5.6,1.6-10.1,4.8-13.5
		c3.2-3.3,7.5-5,13-5s9.8,1.7,13,5c3.2,3.4,4.8,7.9,4.8,13.5C152.9,232.6,151.3,237.1,148.1,240.4z M129.1,234.3
		c1.4,1.9,3.5,2.8,6.1,2.8c2.6,0,4.6-0.9,6.1-2.8c1.4-1.9,2.2-4.3,2.2-7.3c0-3-0.7-5.5-2.2-7.3c-1.4-1.9-3.5-2.8-6.1-2.8
		c-2.6,0-4.6,0.9-6.1,2.8c-1.4,1.9-2.2,4.3-2.2,7.3C126.9,230,127.6,232.4,129.1,234.3z"/>
	<path class="st0" d="M177.6,208.5c4.6,0,8.1,1.3,10.5,3.9c2.4,2.6,3.6,6.4,3.6,11.2v21h-9.6v-19.9c0-2.7-0.4-4.7-1.3-6
		c-0.9-1.3-2.4-1.9-4.7-1.9c-2.2,0-3.9,0.7-5.1,2c-1.2,1.4-1.8,3.3-1.8,5.8v19.9h-9.6v-35.5h7.2c0.4,0,0.7,0.1,0.9,0.4
		s0.4,0.6,0.4,0.9v2.6C170.6,210.1,173.7,208.5,177.6,208.5z"/>
	<path class="st0" d="M205.4,205.4c-1.5,0-2.7-0.5-3.7-1.5c-1-1-1.5-2.2-1.5-3.7c0-1.5,0.5-2.8,1.5-3.8c1-1,2.2-1.5,3.7-1.5
		c1.5,0,2.8,0.5,3.8,1.5s1.5,2.2,1.5,3.8c0,1.5-0.5,2.7-1.5,3.7C208.1,205,206.9,205.4,205.4,205.4z M200.6,244.7v-35.5h9.6v35.5
		H200.6z"/>
	<path class="st0" d="M249.9,235.6c0.5,0.5,0.7,1.3,0.7,2.4v6.8h-0.9c-4.1,0-7.1-1.3-8.9-4c-2.9,3.1-7.1,4.6-12.6,4.6
		c-3.5,0-6.3-0.9-8.4-2.8c-2.1-1.9-3.1-4.4-3.1-7.6c0-3.1,1-5.6,3-7.7c2-2.1,5-3.4,9.1-3.9c5.1-0.6,8.6-1.4,10.3-2.4v-0.1
		c0-1.2-0.5-2.1-1.6-2.8c-1.1-0.7-2.4-1.1-4-1.1c-0.9,0-1.7,0.1-2.4,0.2c-0.7,0.1-1.4,0.3-2.1,0.6s-1.1,0.5-1.4,0.6
		c-0.3,0.1-0.8,0.4-1.4,0.8c-0.6,0.4-0.9,0.6-0.9,0.6c-0.8,0.4-1.6,0.6-2.4,0.4s-1.4-0.5-1.8-1.1l-2.9-4.1c0.5-0.6,1.1-1.2,1.9-1.8
		c0.8-0.6,1.8-1.3,3-2c1.2-0.7,2.7-1.3,4.4-1.8c1.7-0.5,3.5-0.7,5.3-0.7c5.2,0,9.2,1.2,11.9,3.6c2.7,2.4,4.1,6,4.1,10.7v10
		C248.6,234.1,249,235,249.9,235.6L249.9,235.6z M229.5,237.3c1,0,1.9-0.1,2.7-0.2c0.8-0.1,1.7-0.4,2.6-0.7c0.9-0.4,1.6-0.8,2.2-1.4
		c0.6-0.6,1.1-1.4,1.5-2.3c0.4-1,0.6-2.1,0.6-3.4v-0.9c-1.8,1.5-4.6,2.3-8.3,2.4c-1.7,0.2-3,0.5-3.8,1.1c-0.8,0.6-1.2,1.4-1.2,2.5
		c0,0.9,0.3,1.7,1,2.2C227.4,237,228.3,237.3,229.5,237.3z"/>
	<path class="st0" d="M275.2,208.5c4.6,0,8.1,1.3,10.5,3.9c2.4,2.6,3.6,6.4,3.6,11.2v21h-9.6v-19.9c0-2.7-0.4-4.7-1.3-6
		c-0.9-1.3-2.4-1.9-4.7-1.9c-2.2,0-3.9,0.7-5.1,2c-1.2,1.4-1.8,3.3-1.8,5.8v19.9h-9.6v-35.5h7.2c0.4,0,0.7,0.1,0.9,0.4
		s0.4,0.6,0.4,0.9v2.6C268.1,210.1,271.3,208.5,275.2,208.5z"/>
	<path class="st0" d="M326.1,240.4c-3.2,3.3-7.5,5-13,5s-9.8-1.7-13-5c-3.2-3.3-4.8-7.8-4.8-13.5c0-5.6,1.6-10.1,4.8-13.5
		c3.2-3.3,7.5-5,13-5s9.8,1.7,13,5c3.2,3.4,4.8,7.9,4.8,13.5C330.9,232.6,329.3,237.1,326.1,240.4z M307.1,234.3
		c1.4,1.9,3.5,2.8,6.1,2.8c2.6,0,4.6-0.9,6.1-2.8c1.4-1.9,2.2-4.3,2.2-7.3c0-3-0.7-5.5-2.2-7.3c-1.4-1.9-3.5-2.8-6.1-2.8
		c-2.6,0-4.6,0.9-6.1,2.8c-1.4,1.9-2.2,4.3-2.2,7.3C304.9,230,305.7,232.4,307.1,234.3z"/>
	<path class="st0" d="M19.6,310.4c-5.5,0-9.8-1.7-13-5.1c-3.2-3.4-4.8-7.8-4.8-13.3c0-5.7,1.6-10.2,4.8-13.6c3.2-3.4,7.5-5.1,13-5.1
		c4.3,0,7.9,1.1,10.8,3.2s4.9,5.2,5.9,9.3l-7.4,1.4c-1.4,0.3-2.4-0.1-2.9-1.2c-1.2-2.9-3.3-4.3-6.4-4.3c-2.6,0-4.7,0.9-6.1,2.8
		c-1.4,1.9-2.1,4.4-2.1,7.4c0,2.9,0.7,5.3,2.2,7.2c1.4,1.9,3.5,2.8,6.1,2.8c1.8,0,3.2-0.4,4.2-1.2c1-0.8,1.8-2,2.4-3.5
		c0.3-0.6,0.7-1,1.3-1.2c0.6-0.2,1.2-0.3,1.8-0.2l7.3,1.3c-0.9,4.3-2.8,7.5-5.9,9.8C27.6,309.3,23.9,310.4,19.6,310.4z"/>
	<path class="st0" d="M70.7,305.4c-3.2,3.3-7.5,5-13,5s-9.8-1.7-13-5c-3.2-3.3-4.8-7.8-4.8-13.5c0-5.6,1.6-10.1,4.8-13.5
		c3.2-3.3,7.5-5,13-5s9.8,1.7,13,5c3.2,3.4,4.8,7.9,4.8,13.5C75.5,297.6,73.9,302.1,70.7,305.4z M51.7,299.3
		c1.4,1.9,3.5,2.8,6.1,2.8c2.6,0,4.6-0.9,6.1-2.8c1.4-1.9,2.2-4.3,2.2-7.3c0-3-0.7-5.5-2.2-7.3c-1.4-1.9-3.5-2.8-6.1-2.8
		c-2.6,0-4.6,0.9-6.1,2.8c-1.4,1.9-2.2,4.3-2.2,7.3C49.5,295,50.2,297.4,51.7,299.3z"/>
	<path class="st0" d="M100.2,273.5c4.6,0,8.1,1.3,10.5,3.9c2.4,2.6,3.6,6.4,3.6,11.2v21h-9.6v-19.9c0-2.7-0.4-4.7-1.3-6
		c-0.9-1.3-2.4-1.9-4.7-1.9c-2.2,0-3.9,0.7-5.1,2c-1.2,1.4-1.8,3.3-1.8,5.8v19.9h-9.6v-35.5h7.2c0.4,0,0.7,0.1,0.9,0.4
		s0.4,0.6,0.4,0.9v2.6C93.2,275.1,96.3,273.5,100.2,273.5z"/>
	<path class="st0" d="M34.4,374.7l-3.7-10.2H14l-3.8,10.2H0l17.5-47.3h10.4l17.3,47.3H34.4z M17.4,355.2h9.8l-4.3-11.8
		c-0.1-0.3-0.1-0.5-0.1-0.7v-0.5c0-0.2-0.1-0.3-0.3-0.3h-0.1L17.4,355.2z"/>
	<path class="st0" d="M61.7,374.8c-3.7,0-6.6-1-8.6-3.1c-2.1-2.1-3.1-4.9-3.1-8.7v-35.7h9.6V363c0,0.9,0.3,1.6,0.8,2.1
		c0.5,0.5,1.2,0.8,2.1,0.8h1.8c0.7,0,1.3,0.2,1.8,0.7c0.5,0.5,0.7,1.1,0.7,1.8v6.4H61.7z"/>
	<path class="st0" d="M87.7,375.4c-5.5,0-9.8-1.7-13-5.1c-3.2-3.4-4.8-7.8-4.8-13.3c0-5.7,1.6-10.2,4.8-13.6c3.2-3.4,7.5-5.1,13-5.1
		c4.3,0,7.9,1.1,10.8,3.2s4.9,5.2,5.9,9.3l-7.4,1.4c-1.4,0.3-2.4-0.1-2.9-1.2c-1.2-2.9-3.3-4.3-6.4-4.3c-2.6,0-4.7,0.9-6.1,2.8
		c-1.4,1.9-2.1,4.4-2.1,7.4c0,2.9,0.7,5.3,2.2,7.2c1.4,1.9,3.5,2.8,6.1,2.8c1.8,0,3.2-0.4,4.2-1.2c1-0.8,1.8-2,2.4-3.5
		c0.3-0.6,0.7-1,1.3-1.2c0.6-0.2,1.2-0.3,1.8-0.2l7.3,1.3c-0.9,4.3-2.8,7.5-5.9,9.8C95.8,374.3,92.1,375.4,87.7,375.4z"/>
	<path class="st0" d="M126.2,338.4c5.4,0,9.7,1.8,13,5.3c3.3,3.5,5,8.2,5,13.9v1.6c0,0.3-0.1,0.7-0.4,0.9s-0.6,0.4-0.9,0.4H118
		c0.5,2,1.5,3.6,2.9,4.8s3.1,1.8,5.2,1.8c1.6,0,2.9-0.4,4.1-1.1c1.1-0.8,2-1.7,2.6-2.7c0.5-0.6,1.1-0.8,1.8-0.5l8,2.8
		c-1.2,3.1-3.2,5.6-6,7.3c-2.8,1.8-6.3,2.7-10.4,2.7c-5.5,0-9.8-1.7-13.2-5.1s-5-7.8-5-13.3c0-5.6,1.7-10.1,5-13.5
		S120.8,338.4,126.2,338.4z M126.2,346.8c-1.9,0-3.6,0.5-4.9,1.6c-1.4,1-2.3,2.5-2.9,4.3H134c-0.6-1.8-1.6-3.2-3-4.3
		S128,346.8,126.2,346.8z"/>
	<path class="st0" d="M201.5,327.4h10v47.3h-10.7l-21.1-32.5h-0.1c-0.1,0-0.2,0-0.3,0.1c-0.1,0.1-0.1,0.2-0.1,0.3
		c0.5,1.4,0.7,2.8,0.7,4.1v28h-10v-47.3h10.6l21.1,32.5h0.1c0.1,0,0.2,0,0.3-0.1c0.1-0.1,0.1-0.2,0.1-0.3c-0.5-1.4-0.7-2.8-0.7-4.1
		V327.4z"/>
	<path class="st0" d="M236.6,338.4c5.4,0,9.7,1.8,13,5.3c3.3,3.5,5,8.2,5,13.9v1.6c0,0.3-0.1,0.7-0.4,0.9s-0.6,0.4-0.9,0.4h-24.8
		c0.5,2,1.5,3.6,2.9,4.8s3.1,1.8,5.2,1.8c1.6,0,2.9-0.4,4.1-1.1c1.1-0.8,2-1.7,2.6-2.7c0.5-0.6,1.1-0.8,1.8-0.5l8,2.8
		c-1.2,3.1-3.2,5.6-6,7.3c-2.8,1.8-6.3,2.7-10.4,2.7c-5.5,0-9.8-1.7-13.2-5.1s-5-7.8-5-13.3c0-5.6,1.7-10.1,5-13.5
		S231.2,338.4,236.6,338.4z M236.6,346.8c-1.9,0-3.6,0.5-4.9,1.6c-1.4,1-2.3,2.5-2.9,4.3h15.7c-0.6-1.8-1.6-3.2-3-4.3
		S238.4,346.8,236.6,346.8z"/>
	<path class="st0" d="M280.3,339.2h0.6v5.4c0,0.8-0.2,1.4-0.7,1.9c-0.4,0.5-1,0.7-1.7,0.7h-0.5c-2.7,0-4.8,0.8-6.2,2.5
		s-2.1,4-2.1,6.9v18.1h-9.6v-35.5h7.2c0.4,0,0.7,0.1,0.9,0.4s0.4,0.6,0.4,0.9v3.5C271.6,340.8,275.4,339.2,280.3,339.2z"/>
	<path class="st0" d="M313.7,370.4c-3.2,3.3-7.5,5-13,5s-9.8-1.7-13-5s-4.8-7.8-4.8-13.5c0-5.6,1.6-10.1,4.8-13.5
		c3.2-3.3,7.5-5,13-5s9.8,1.7,13,5c3.2,3.4,4.8,7.9,4.8,13.5C318.5,362.6,316.9,367.1,313.7,370.4z M294.6,364.3
		c1.4,1.9,3.5,2.8,6.1,2.8s4.6-0.9,6.1-2.8c1.4-1.9,2.2-4.3,2.2-7.3c0-3-0.7-5.5-2.2-7.3c-1.4-1.9-3.5-2.8-6.1-2.8s-4.6,0.9-6.1,2.8
		c-1.4,1.9-2.2,4.3-2.2,7.3C292.5,360,293.2,362.4,294.6,364.3z"/>
	<path class="st0" d="M327.5,375.4c-1.6,0-2.8-0.5-3.8-1.5c-1-1-1.5-2.2-1.5-3.8c0-1.5,0.5-2.7,1.5-3.7c1-1,2.3-1.5,3.8-1.5
		c1.5,0,2.7,0.5,3.7,1.5c1,1,1.5,2.2,1.5,3.7c0,1.5-0.5,2.8-1.5,3.8C330.2,374.9,329,375.4,327.5,375.4z M341.8,375.4
		c-1.5,0-2.8-0.5-3.8-1.5c-1-1-1.5-2.2-1.5-3.8c0-1.5,0.5-2.7,1.5-3.7c1-1,2.3-1.5,3.8-1.5c1.5,0,2.7,0.5,3.7,1.5
		c1,1,1.5,2.2,1.5,3.7c0,1.5-0.5,2.8-1.5,3.8S343.3,375.4,341.8,375.4z M356.1,375.4c-1.5,0-2.8-0.5-3.8-1.5c-1-1-1.5-2.2-1.5-3.8
		c0-1.5,0.5-2.7,1.5-3.7c1-1,2.2-1.5,3.8-1.5c1.5,0,2.7,0.5,3.7,1.5c1,1,1.5,2.2,1.5,3.7c0,1.5-0.5,2.8-1.5,3.8
		C358.8,374.9,357.6,375.4,356.1,375.4z"/>
</g>
</svg>
