<?xml version="1.0" encoding="utf-8"?>
<!-- Generator: Adobe Illustrator 24.0.0, SVG Export Plug-In . SVG Version: 6.00 Build 0)  -->
<svg version="1.1" id="Layer_1" xmlns="http://www.w3.org/2000/svg" xmlns:xlink="http://www.w3.org/1999/xlink" x="0px" y="0px"
	 width="121.1px" height="121.1px" viewBox="0 0 121.1 121.1" style="enable-background:new 0 0 121.1 121.1;" xml:space="preserve"
	>
<style type="text/css">
	.st0{fill:#FFFFFF;}
</style>
<g>
	<path class="st0" d="M60.5,121.1C27.2,121.1,0,93.9,0,60.5C0,27.2,27.2,0,60.5,0s60.5,27.2,60.5,60.5
		C121.1,93.9,93.9,121.1,60.5,121.1z M60.5,3C28.8,3,3,28.8,3,60.5S28.8,118,60.5,118c31.7,0,57.5-25.8,57.5-57.5S92.2,3,60.5,3z"/>
</g>
<g>
	<path class="st0" d="M16.3,50.3v-3.7c0-0.7,0.2-1.2,0.5-1.6c0.4-0.4,0.9-0.8,1.6-1.1l9.3-3.8c0.6-0.3,1.4-0.4,2.1-0.4h2.1
		c0.7,0,1.2,0.2,1.5,0.6c0.4,0.4,0.5,0.9,0.5,1.6v33c0,0.7-0.2,1.2-0.5,1.6c-0.4,0.4-0.9,0.6-1.5,0.6h-4.3c-0.7,0-1.2-0.2-1.6-0.6
		c-0.4-0.4-0.6-0.9-0.6-1.6V49.1l-7.2,2.8c-0.4,0.1-0.7,0.2-0.8,0.2c-0.4,0-0.7-0.2-1-0.5C16.4,51.3,16.3,50.9,16.3,50.3z"/>
	<path class="st0" d="M40.5,81.8c0,0,0-0.3,0.1-0.7l3-10.5c0.4-1.4,1.3-2.1,2.8-2.1h4.9c0.7,0,1.3,0.2,1.7,0.6
		c0.4,0.4,0.6,0.9,0.6,1.6c0,0.6-0.2,1.3-0.5,1.8l-5.2,8.6c-0.5,0.7-1,1.3-1.5,1.6c-0.5,0.3-1.1,0.5-1.8,0.5h-2.2
		c-0.6,0-1.1-0.1-1.5-0.4C40.6,82.6,40.5,82.3,40.5,81.8z"/>
	<path class="st0" d="M56.1,74.9v-3.1c0-0.7,0.2-1.2,0.5-1.6c0.3-0.4,0.8-0.6,1.5-0.6h8.9c2,0,3.5-0.3,4.6-1
		c1.1-0.7,1.6-1.9,1.6-3.6c0-0.6-0.1-1.2-0.2-1.7c-0.2-0.5-0.4-0.9-0.7-1.2c-0.3-0.3-0.7-0.6-1.1-0.7c-0.4-0.2-0.9-0.3-1.4-0.4
		c-0.6-0.1-1.1-0.2-1.6-0.2c-0.5,0-1.1,0-1.9,0h-7.3c-0.7,0-1.2-0.2-1.6-0.6c-0.4-0.4-0.6-0.9-0.6-1.6V41.9c0-0.7,0.2-1.2,0.6-1.6
		c0.4-0.4,0.9-0.6,1.6-0.6h19c0.7,0,1.2,0.2,1.6,0.6c0.4,0.4,0.6,0.9,0.6,1.6V45c0,0.7-0.2,1.2-0.6,1.6c-0.4,0.4-0.9,0.6-1.6,0.6H65
		v6.2h3.3c4.2,0,7.5,1,9.8,2.9c2.3,1.9,3.5,4.8,3.5,8.8c0,2.1-0.4,3.9-1.1,5.5c-0.7,1.6-1.8,2.8-3.1,3.8c-1.3,0.9-2.9,1.7-4.6,2.1
		c-1.8,0.5-3.7,0.7-5.9,0.7h-8.7c-0.7,0-1.2-0.2-1.6-0.6C56.2,76.1,56.1,75.6,56.1,74.9z"/>
	<path class="st0" d="M85,60.2v-2.8c0-0.7,0.2-1.2,0.5-1.6c0.4-0.4,0.9-0.5,1.6-0.5h5.2v-5.2c0-0.7,0.2-1.2,0.6-1.6
		c0.4-0.4,0.9-0.6,1.6-0.6h2.7c0.7,0,1.2,0.2,1.6,0.6c0.4,0.4,0.6,0.9,0.6,1.6v5.2h5.2c0.7,0,1.2,0.2,1.6,0.5
		c0.4,0.4,0.5,0.9,0.5,1.6v2.8c0,1.4-0.7,2.1-2.1,2.1h-5.2v5.2c0,0.7-0.2,1.2-0.6,1.6c-0.4,0.4-0.9,0.6-1.6,0.6h-2.7
		c-0.7,0-1.2-0.2-1.6-0.6c-0.4-0.4-0.6-0.9-0.6-1.6v-5.2h-5.2C85.7,62.3,85,61.6,85,60.2z"/>
</g>
</svg>
