<?xml version="1.0" encoding="utf-8"?>
<!-- Generator: Adobe Illustrator 24.0.0, SVG Export Plug-In . SVG Version: 6.00 Build 0)  -->
<svg version="1.1" id="Laag_1" xmlns="http://www.w3.org/2000/svg" xmlns:xlink="http://www.w3.org/1999/xlink" x="0px" y="0px"
	 width="126.2px" height="37.3px" viewBox="0 0 126.2 37.3" style="enable-background:new 0 0 126.2 37.3;" xml:space="preserve">
<style type="text/css">
	.st0{fill:#FFFFFF;}
</style>
<g>
	<path class="st0" d="M0.9,0h0.8L6,7.4L10.3,0H11v8.4h-0.8V1.6l-4,6.8H5.6l-4-6.8v6.8H0.9V0z"/>
	<path class="st0" d="M15.4,2.3c1.9,0,2.8,1.4,2.8,3.1v0.2h-5v0.1c0,1.4,1,2.2,2.3,2.2c0.9,0,1.5-0.4,2-0.9l0.4,0.6
		c-0.5,0.5-1.3,1-2.4,1c-1.8,0-3-1.2-3-3.1C12.5,3.6,13.6,2.3,15.4,2.3z M15.4,2.9c-1.3,0-2.1,0.8-2.2,2h4.2
		C17.4,3.8,16.7,2.9,15.4,2.9z"/>
	<path class="st0" d="M21.7,8.5c-1.1,0-1.6-0.4-1.6-1.7V3h-1.3V2.4h1.3V0.8h0.7v1.6h1.7V3h-1.7v3.8c0,0.6,0.2,0.9,0.9,0.9
		c0.4,0,0.6,0,0.9-0.1v0.6C22.4,8.4,22.1,8.5,21.7,8.5z"/>
	<path class="st0" d="M28.3,6.6v1.8h-0.7V0h0.7v5.7l3.2-3.3h1L29.9,5l2.7,3.4h-1l-2.2-2.9L28.3,6.6z"/>
	<path class="st0" d="M38.6,8.4h-0.7V7.2c-0.4,0.9-1.1,1.4-2.1,1.4c-1.7,0-2.3-1.1-2.3-2.6V2.4h0.8v3.5c0,1.1,0.4,1.9,1.6,1.9
		c1.5,0,2-1.3,2-2.7V2.4h0.7V8.4z"/>
	<path class="st0" d="M40.3,2.4H41v1.3c0.3-0.9,1.1-1.4,2.2-1.4c1.4,0,2.3,1,2.3,2.6v3.6h-0.8V4.9c0-1.2-0.6-1.9-1.7-1.9
		c-1.4,0-2,1.1-2,2.7v2.8h-0.7V2.4z"/>
	<path class="st0" d="M49.1,2.3c0.9,0,1.8,0.3,2.3,1.2l-0.6,0.4c-0.3-0.6-0.9-0.9-1.7-0.9c-0.9,0-1.4,0.4-1.5,1
		c0,0.7,0.7,0.9,1.7,1.1c1.2,0.3,2.1,0.5,2.1,1.8c0,1.1-0.8,1.8-2.3,1.8c-1.1,0-2.1-0.4-2.5-1.4l0.6-0.4c0.3,0.8,1.1,1.1,2,1.1
		c0.9,0,1.5-0.3,1.5-1c0-0.8-0.7-0.9-1.5-1.1C48,5.5,46.9,5.2,46.9,4C46.9,2.9,47.7,2.3,49.1,2.3z"/>
	<path class="st0" d="M54.9,8.5c-1.1,0-1.6-0.4-1.6-1.7V3H52V2.4h1.3V0.8H54v1.6h1.7V3H54v3.8c0,0.6,0.2,0.9,0.9,0.9
		c0.4,0,0.6,0,0.9-0.1v0.6C55.5,8.4,55.2,8.5,54.9,8.5z"/>
	<path class="st0" d="M56.3,2.4h0.8l1.9,4.9l2.1-4.9h0.5l2.1,4.9l1.9-4.9h0.8l-2.5,6h-0.6l-2.1-4.8l-2.1,4.8h-0.6L56.3,2.4z"/>
	<path class="st0" d="M70,2.3c1.9,0,2.8,1.4,2.8,3.1v0.2h-5v0.1c0,1.4,1,2.2,2.3,2.2c0.9,0,1.5-0.4,2-0.9l0.4,0.6
		c-0.5,0.5-1.3,1-2.4,1c-1.8,0-3-1.2-3-3.1C67.1,3.6,68.2,2.3,70,2.3z M70.1,2.9c-1.3,0-2.1,0.8-2.2,2h4.2C72,3.8,71.3,2.9,70.1,2.9
		z"/>
	<path class="st0" d="M76.7,2.3c0.2,0,0.4,0,0.6,0v0.8C77.1,3,76.9,3,76.7,3c-1.4,0-1.8,1.2-1.8,2.6v2.8h-0.7v-6h0.7v1.2
		C75.2,2.7,75.8,2.3,76.7,2.3z"/>
	<path class="st0" d="M79.2,6.6v1.8h-0.7V0h0.7v5.7l3.2-3.3h1L80.8,5l2.7,3.4h-1l-2.2-2.9L79.2,6.6z"/>
	<path class="st0" d="M87,2.3c1.9,0,2.8,1.4,2.8,3.1v0.2h-5v0.1c0,1.4,1,2.2,2.3,2.2c0.9,0,1.5-0.4,2-0.9l0.4,0.6
		c-0.5,0.5-1.3,1-2.4,1c-1.8,0-3-1.2-3-3.1C84,3.6,85.2,2.3,87,2.3z M87,2.9c-1.3,0-2.1,0.8-2.2,2H89C88.9,3.8,88.3,2.9,87,2.9z"/>
	<path class="st0" d="M91.1,2.4h0.7v1.3c0.3-0.9,1.1-1.4,2.2-1.4c1.4,0,2.3,1,2.3,2.6v3.6h-0.8V4.9c0-1.2-0.6-1.9-1.7-1.9
		c-1.4,0-2,1.1-2,2.7v2.8h-0.7V2.4z"/>
	<path class="st0" d="M0,16.8h0.9l2.1,5l2.1-5h0.9l-2.6,6H2.6L0,16.8z"/>
	<path class="st0" d="M9.1,16.7c1.6,0,2.4,0.7,2.4,2.2v3.9h-0.7v-1.2c-0.4,0.8-1.2,1.3-2.2,1.3c-1.2,0-2-0.7-2-1.8
		c0-1,0.7-1.7,1.9-1.8l2-0.2c0.2,0,0.3-0.1,0.3-0.3v-0.2c0-0.9-0.6-1.3-1.6-1.3c-1,0-1.6,0.4-1.8,1.1l-0.7-0.3
		C7,17.1,7.8,16.7,9.1,16.7z M8.5,20c-0.8,0.1-1.2,0.5-1.2,1.2c0,0.7,0.5,1.1,1.4,1.1c1.2,0,2.1-0.9,2.1-2v-0.5L8.5,20z"/>
	<path class="st0" d="M12.9,16.8h0.7v1.3c0.3-0.9,1.1-1.4,2.2-1.4c1.4,0,2.3,1,2.3,2.6v3.6h-0.8v-3.5c0-1.2-0.6-1.9-1.7-1.9
		c-1.4,0-2,1.1-2,2.7v2.8h-0.7V16.8z"/>
	<path class="st0" d="M26.1,16.7c1.8,0,3.1,1.3,3.1,3.1c0,1.8-1.3,3.1-3.1,3.1c-1.8,0-3.1-1.3-3.1-3.1C23,18,24.3,16.7,26.1,16.7z
		 M26.1,17.4c-1.4,0-2.4,1-2.4,2.4s0.9,2.4,2.4,2.4c1.4,0,2.4-1,2.4-2.4S27.6,17.4,26.1,17.4z"/>
	<path class="st0" d="M32.1,22c0,0.4-0.3,0.8-0.8,0.8c-0.4,0-0.8-0.3-0.8-0.8c0-0.4,0.3-0.8,0.8-0.8C31.8,21.3,32.1,21.6,32.1,22z"
		/>
	<path class="st0" d="M36.1,16.7c1.6,0,2.4,0.7,2.4,2.2v3.9h-0.7v-1.2c-0.4,0.8-1.2,1.3-2.2,1.3c-1.2,0-2-0.7-2-1.8
		c0-1,0.7-1.7,1.9-1.8l2-0.2c0.2,0,0.3-0.1,0.3-0.3v-0.2c0-0.9-0.6-1.3-1.6-1.3c-1,0-1.6,0.4-1.8,1.1l-0.7-0.3
		C34,17.1,34.8,16.7,36.1,16.7z M35.6,20c-0.8,0.1-1.2,0.5-1.2,1.2c0,0.7,0.5,1.1,1.4,1.1c1.2,0,2.1-0.9,2.1-2v-0.5L35.6,20z"/>
	<path class="st0" d="M41.5,22c0,0.4-0.3,0.8-0.8,0.8c-0.4,0-0.8-0.3-0.8-0.8c0-0.4,0.3-0.8,0.8-0.8C41.2,21.3,41.5,21.6,41.5,22z"
		/>
	<path class="st0" d="M47.1,14.4h0.8v8.4h-0.8V14.4z"/>
	<path class="st0" d="M52.3,16.7c0.2,0,0.4,0,0.6,0v0.8c-0.2,0-0.4-0.1-0.6-0.1c-1.4,0-1.8,1.2-1.8,2.6v2.8h-0.7v-6h0.7V18
		C50.7,17.1,51.4,16.7,52.3,16.7z"/>
	<path class="st0" d="M53.7,15c0-0.4,0.3-0.7,0.7-0.7c0.4,0,0.7,0.3,0.7,0.7c0,0.4-0.3,0.7-0.7,0.7C54,15.6,53.7,15.4,53.7,15z
		 M54.7,22.8H54v-6h0.7V22.8z"/>
	<path class="st0" d="M58.5,16.7c0.9,0,1.8,0.3,2.3,1.2l-0.6,0.4c-0.3-0.6-0.9-0.9-1.7-0.9c-0.9,0-1.4,0.4-1.5,1
		c0,0.7,0.7,0.9,1.7,1.1c1.2,0.3,2.1,0.5,2.1,1.8c0,1.1-0.8,1.8-2.3,1.8c-1.1,0-2.1-0.4-2.5-1.4l0.6-0.4c0.3,0.8,1.1,1.1,2,1.1
		c0.9,0,1.5-0.3,1.5-1c0-0.8-0.7-0.9-1.5-1.1c-1.1-0.2-2.2-0.5-2.2-1.8C56.3,17.3,57.1,16.7,58.5,16.7z"/>
	<path class="st0" d="M65.8,14.4h0.8V19l4.6-4.6h1.1L68.6,18l3.6,4.8h-1l-3.2-4.2l-1.5,1.5v2.7h-0.8V14.4z"/>
	<path class="st0" d="M75.8,16.7c1.9,0,2.8,1.4,2.8,3.1v0.2h-5V20c0,1.4,1,2.2,2.3,2.2c0.9,0,1.5-0.4,2-0.9l0.4,0.6
		c-0.5,0.5-1.3,1-2.4,1c-1.8,0-3-1.2-3-3.1C72.8,18,74,16.7,75.8,16.7z M75.8,17.3c-1.3,0-2.1,0.8-2.2,2h4.2
		C77.7,18.2,77.1,17.3,75.8,17.3z"/>
	<path class="st0" d="M79.9,16.8h0.7v1.3c0.3-0.9,1.1-1.4,2.2-1.4c1.4,0,2.3,1,2.3,2.6v3.6h-0.8v-3.5c0-1.2-0.6-1.9-1.7-1.9
		c-1.4,0-2,1.1-2,2.7v2.8h-0.7V16.8z"/>
	<path class="st0" d="M88.7,16.7c0.9,0,1.8,0.3,2.3,1.2l-0.6,0.4c-0.3-0.6-0.9-0.9-1.7-0.9c-0.9,0-1.4,0.4-1.5,1
		c0,0.7,0.7,0.9,1.7,1.1c1.2,0.3,2.1,0.5,2.1,1.8c0,1.1-0.8,1.8-2.3,1.8c-1.1,0-2.1-0.4-2.5-1.4l0.6-0.4c0.3,0.8,1.1,1.1,2,1.1
		c0.9,0,1.5-0.3,1.5-1c0-0.8-0.7-0.9-1.5-1.1c-1.1-0.2-2.2-0.5-2.2-1.8C86.5,17.3,87.3,16.7,88.7,16.7z"/>
	<path class="st0" d="M99.4,16.7c1.5,0,2.3,0.9,2.3,2.7v3.5H101v-3.6c0-1.2-0.6-1.9-1.6-1.9c-1.4,0-2,1.1-2,2.6v2.8h-0.7v-3.6
		c0-1.2-0.6-1.9-1.7-1.9c-1.4,0-2,1.1-2,2.7v2.8h-0.7v-6h0.7v1.3c0.3-0.9,1.1-1.4,2.1-1.4c1.1,0,1.8,0.5,2.1,1.6
		C97.5,17.1,98.4,16.7,99.4,16.7z"/>
	<path class="st0" d="M103.2,15c0-0.4,0.3-0.7,0.7-0.7s0.7,0.3,0.7,0.7c0,0.4-0.3,0.7-0.7,0.7S103.2,15.4,103.2,15z M104.2,22.8
		h-0.7v-6h0.7V22.8z"/>
	<path class="st0" d="M106.8,22.8H106v-8.4h0.8V22.8z"/>
	<path class="st0" d="M110.5,21.5l-2.1,3.6l-0.6-0.3l2-3.6L110.5,21.5z"/>
	<path class="st0" d="M6.7,37.2l-2.3-2.9c-0.1,0-0.2,0-0.4,0H1.6v2.9H0.9v-8.4H4c1.7,0,2.8,1.1,2.8,2.8c0,1.2-0.6,2.1-1.7,2.6
		l2.5,3.1H6.7z M3.7,33.6l-0.6-0.8l0.6-0.5l0.9,1.2c0.8-0.2,1.4-0.9,1.4-1.9c0-1.2-0.8-2-2.1-2H1.6v4H3.7z"/>
	<path class="st0" d="M8.4,29.4c0-0.4,0.3-0.7,0.7-0.7c0.4,0,0.7,0.3,0.7,0.7c0,0.4-0.3,0.7-0.7,0.7C8.7,30,8.4,29.8,8.4,29.4z
		 M9.4,37.2H8.7v-6h0.7V37.2z"/>
	<path class="st0" d="M13.9,31.1c0.8,0,1.5,0.3,2.1,0.8l-0.5,0.6c-0.5-0.4-1.1-0.7-1.7-0.7c-1.4,0-2.4,1-2.4,2.4
		c0,1.4,1,2.4,2.3,2.4c0.6,0,1.2-0.2,1.7-0.7l0.4,0.6c-0.6,0.5-1.3,0.8-2.2,0.8c-1.9,0-3.1-1.3-3.1-3.1C10.8,32.3,12,31.1,13.9,31.1
		z"/>
	<path class="st0" d="M17.9,32.4c0.4-0.9,1.1-1.4,2.2-1.4c1.5,0,2.3,1,2.3,2.6v3.5h-0.8v-3.5c0-1.2-0.6-1.9-1.6-1.9
		c-1.3,0-2,0.9-2,2.7v2.8h-0.7v-8.4h0.7V32.4z"/>
	<path class="st0" d="M26.3,31.1c1.6,0,2.4,0.7,2.4,2.2v3.9h-0.7V36c-0.4,0.8-1.2,1.3-2.2,1.3c-1.2,0-2-0.7-2-1.8
		c0-1,0.7-1.7,1.9-1.8l2-0.2c0.2,0,0.3-0.1,0.3-0.3V33c0-0.9-0.6-1.3-1.6-1.3c-1,0-1.6,0.4-1.8,1.1l-0.7-0.3
		C24.2,31.5,25,31.1,26.3,31.1z M25.8,34.4c-0.8,0.1-1.2,0.5-1.2,1.2c0,0.7,0.5,1.1,1.4,1.1c1.2,0,2.1-0.9,2.1-2v-0.5L25.8,34.4z"/>
	<path class="st0" d="M32.7,31.1c0.2,0,0.4,0,0.6,0v0.8c-0.2,0-0.4-0.1-0.6-0.1c-1.4,0-1.8,1.2-1.8,2.6v2.8h-0.7v-6h0.7v1.2
		C31.2,31.5,31.8,31.1,32.7,31.1z"/>
	<path class="st0" d="M40,37.2h-0.7V36c-0.4,0.8-1.3,1.3-2.4,1.3c-1.7,0-2.9-1.3-2.9-3.1c0-1.8,1.2-3.1,2.9-3.1c1,0,1.9,0.5,2.4,1.3
		v-3.6H40V37.2z M34.7,34.2c0,1.5,0.9,2.5,2.3,2.5c1.4,0,2.3-1,2.3-2.5c0-1.5-0.9-2.5-2.3-2.5C35.7,31.7,34.7,32.7,34.7,34.2z"/>
	<path class="st0" d="M45.6,28.8h0.8v4.6l4.6-4.6H52l-3.6,3.6l3.6,4.8h-1L47.8,33l-1.5,1.5v2.7h-0.8V28.8z"/>
	<path class="st0" d="M55.7,31.1c1.8,0,3.1,1.3,3.1,3.1c0,1.8-1.3,3.1-3.1,3.1c-1.8,0-3.1-1.3-3.1-3.1
		C52.5,32.4,53.9,31.1,55.7,31.1z M55.7,31.8c-1.4,0-2.4,1-2.4,2.4s0.9,2.4,2.4,2.4c1.4,0,2.4-1,2.4-2.4S57.1,31.8,55.7,31.8z"/>
	<path class="st0" d="M61.7,37.2h-0.7v-5.3h-1.5v-0.6h1.5v-0.4c0-1.6,0.8-2.1,1.8-2.1c0.3,0,0.6,0,0.8,0.1v0.7
		c-0.3,0-0.5-0.1-0.7-0.1c-0.8,0-1.2,0.4-1.2,1.5v0.4h1.8v0.6h-1.8V37.2z"/>
	<path class="st0" d="M64.4,29.4c0-0.4,0.3-0.7,0.7-0.7c0.4,0,0.7,0.3,0.7,0.7c0,0.4-0.3,0.7-0.7,0.7C64.7,30,64.4,29.8,64.4,29.4z
		 M65.5,37.2h-0.7v-6h0.7V37.2z"/>
	<path class="st0" d="M73.4,31.1c1.9,0,2.8,1.4,2.8,3.1v0.2h-5v0.1c0,1.4,1,2.2,2.3,2.2c0.9,0,1.5-0.4,2-0.9l0.4,0.6
		c-0.5,0.5-1.3,1-2.4,1c-1.8,0-3-1.2-3-3.1C70.5,32.4,71.6,31.1,73.4,31.1z M73.4,31.7c-1.3,0-2.1,0.8-2.2,2h4.2
		C75.4,32.6,74.7,31.7,73.4,31.7z"/>
	<path class="st0" d="M77.5,31.2h0.7v1.3c0.3-0.9,1.1-1.4,2.2-1.4c1.4,0,2.3,1,2.3,2.6v3.6h-0.8v-3.5c0-1.2-0.6-1.9-1.7-1.9
		c-1.4,0-2,1.1-2,2.7v2.8h-0.7V31.2z"/>
	<path class="st0" d="M94.2,35.4h-5.3l-0.8,1.8h-0.9l3.9-8.4H92l3.9,8.4H95L94.2,35.4z M93.9,34.7l-2.3-4.9l-2.3,4.9H93.9z"/>
	<path class="st0" d="M97.7,35.4v1.8h-0.7v-8.4h0.7v5.7l3.2-3.3h1l-2.6,2.6l2.7,3.4h-1l-2.2-2.9L97.7,35.4z"/>
	<path class="st0" d="M102.2,31.2h0.8l1.9,4.9l2.1-4.9h0.5l2.1,4.9l1.9-4.9h0.8l-2.5,6h-0.6l-2.1-4.8l-2.1,4.8h-0.6L102.2,31.2z"/>
	<path class="st0" d="M115.7,31.1c1.6,0,2.4,0.7,2.4,2.2v3.9h-0.7V36c-0.4,0.8-1.2,1.3-2.2,1.3c-1.2,0-2-0.7-2-1.8
		c0-1,0.7-1.7,1.9-1.8l2-0.2c0.2,0,0.3-0.1,0.3-0.3V33c0-0.9-0.6-1.3-1.6-1.3c-1,0-1.6,0.4-1.8,1.1l-0.7-0.3
		C113.6,31.5,114.4,31.1,115.7,31.1z M115.1,34.4c-0.8,0.1-1.2,0.5-1.2,1.2c0,0.7,0.5,1.1,1.4,1.1c1.2,0,2.1-0.9,2.1-2v-0.5
		L115.1,34.4z"/>
	<path class="st0" d="M121.6,31.1c0.9,0,1.8,0.3,2.3,1.2l-0.6,0.4c-0.3-0.6-0.9-0.9-1.7-0.9c-0.9,0-1.4,0.4-1.5,1
		c0,0.7,0.7,0.9,1.7,1.1c1.2,0.3,2.1,0.5,2.1,1.8c0,1.1-0.8,1.8-2.3,1.8c-1.1,0-2.1-0.4-2.5-1.4l0.6-0.4c0.3,0.8,1.1,1.1,2,1.1
		c0.9,0,1.5-0.3,1.5-1c0-0.8-0.7-0.9-1.5-1.1c-1.1-0.2-2.2-0.5-2.2-1.8C119.3,31.7,120.2,31.1,121.6,31.1z"/>
	<path class="st0" d="M124.8,29.4c0-0.4,0.3-0.7,0.7-0.7s0.7,0.3,0.7,0.7c0,0.4-0.3,0.7-0.7,0.7S124.8,29.8,124.8,29.4z M125.9,37.2
		h-0.7v-6h0.7V37.2z"/>
</g>
</svg>
