<?xml version="1.0" encoding="utf-8"?>
<!-- Generator: Adobe Illustrator 24.3.0, SVG Export Plug-In . SVG Version: 6.00 Build 0)  -->
<svg version="1.1" id="Laag_1" xmlns="http://www.w3.org/2000/svg" xmlns:xlink="http://www.w3.org/1999/xlink" x="0px" y="0px"
	 width="160.2px" height="23.8px" viewBox="0 0 160.2 23.8" style="enable-background:new 0 0 160.2 23.8;" xml:space="preserve">
<g>
	<g>
		<path d="M8.1,9.1c3.8,0.9,5.8,2.3,5.8,5.4c0,3.4-2.6,5.5-6.4,5.5c-2.7,0-5.3-1-7.5-2.9l1.9-2.3c1.7,1.5,3.4,2.4,5.7,2.4
			c2,0,3.2-0.9,3.2-2.3c0-1.3-0.7-2-4.1-2.8c-3.8-0.9-6-2.1-6-5.5c0-3.2,2.6-5.3,6.1-5.3c2.6,0,4.7,0.8,6.5,2.3l-1.7,2.4
			c-1.6-1.2-3.2-1.9-4.9-1.9C5,4.1,3.9,5,3.9,6.2C3.9,7.7,4.7,8.3,8.1,9.1z"/>
		<path d="M23.6,20c-4,0-7-3.2-7-7.1c0-3.9,3-7.2,7-7.2c2.6,0,4.2,1,5.4,2.4l-1.9,2.1c-1-1-2-1.7-3.5-1.7c-2.3,0-3.9,2-3.9,4.4
			c0,2.5,1.7,4.4,4.1,4.4c1.5,0,2.5-0.7,3.5-1.7l1.9,1.9C27.8,18.9,26.2,20,23.6,20z"/>
		<path d="M38,20c-4.1,0-7.2-3.2-7.2-7.1c0-4,3.1-7.2,7.2-7.2c4.2,0,7.2,3.2,7.2,7.2C45.3,16.7,42.2,20,38,20z M38,8.4
			c-2.5,0-4.1,2-4.1,4.4c0,2.4,1.7,4.4,4.1,4.4c2.5,0,4.1-2,4.1-4.4C42.2,10.4,40.5,8.4,38,8.4z"/>
		<path d="M56.1,20c-2.2,0-3.6-1.1-4.6-2.4v6.3h-3.1V6h3.1v2.3c1-1.4,2.4-2.6,4.6-2.6c3.2,0,6.3,2.6,6.3,7.2S59.4,20,56.1,20z
			 M55.4,8.4c-2.1,0-4,1.7-4,4.4c0,2.7,1.8,4.4,4,4.4c2.1,0,3.9-1.7,3.9-4.4C59.3,10.1,57.5,8.4,55.4,8.4z"/>
		<path d="M68.8,19.7h-3.1V6h3.1V9c0.8-2.1,2.4-3.5,4.8-3.4V9h-0.2c-2.7,0-4.6,1.8-4.6,5.4V19.7z"/>
		<path d="M76.3,3.8v-3h3.3v3H76.3z M76.4,19.7V6h3.1v13.7H76.4z"/>
		<path d="M101.5,19.7v-2.3c-1,1.4-2.4,2.6-4.6,2.6c-3.2,0-6.3-2.6-6.3-7.2s3.1-7.2,6.3-7.2c2.2,0,3.6,1.1,4.6,2.4V0.7h3.1v19H101.5
			z M97.7,8.4c-2.1,0-3.9,1.7-3.9,4.4c0,2.7,1.8,4.4,3.9,4.4c2.1,0,3.9-1.7,3.9-4.4C101.6,10.1,99.7,8.4,97.7,8.4z"/>
		<path d="M108.6,3.8v-3h3.3v3H108.6z M108.7,19.7V6h3.1v13.7H108.7z"/>
		<path d="M131.3,20c-2.2,0-3.6-1.1-4.6-2.4v6.3h-3.1V6h3.1v2.3c1-1.4,2.4-2.6,4.6-2.6c3.2,0,6.3,2.6,6.3,7.2S134.5,20,131.3,20z
			 M130.6,8.4c-2.1,0-4,1.7-4,4.4c0,2.7,1.8,4.4,4,4.4c2.1,0,3.9-1.7,3.9-4.4C134.4,10.1,132.7,8.4,130.6,8.4z"/>
		<path d="M140.8,3.8v-3h3.3v3H140.8z M141,19.7V6h3.1v13.7H141z"/>
		<path d="M157,6h3.1v13.7H157v-2.1c-0.9,1.3-2.1,2.4-4.2,2.4c-3.1,0-4.8-2.1-4.8-5.3V6h3.1v7.8c0,2.1,1.1,3.4,2.9,3.4
			c1.8,0,3.1-1.3,3.1-3.4V6z M150.1,1.3l2.8-1.3l2.7,4.3h-2.4L150.1,1.3z"/>
	</g>
</g>
</svg>
