<?xml version="1.0" encoding="utf-8"?>
<!-- Generator: Adobe Illustrator 24.3.0, SVG Export Plug-In . SVG Version: 6.00 Build 0)  -->
<svg version="1.1" id="Laag_1" xmlns="http://www.w3.org/2000/svg" xmlns:xlink="http://www.w3.org/1999/xlink" x="0px" y="0px"
	 width="257.8px" height="19.3px" viewBox="0 0 257.8 19.3" style="enable-background:new 0 0 257.8 19.3;" xml:space="preserve">
<g>
	<g>
		<path d="M6.7,19H0V0.8h6.7c5.6,0,9.6,3.9,9.6,9.1S12.4,19,6.7,19z M6.7,3.7H3.2v12.4h3.5c3.8,0,6.2-2.6,6.2-6.2S10.5,3.7,6.7,3.7z
			"/>
		<path d="M19.8,3.1v-3h3.3v3H19.8z M19.9,19V5.3H23V19H19.9z"/>
		<path d="M36.4,5.3h3.3l-5.5,13.8h-2.8L25.8,5.3h3.3l3.6,10.1L36.4,5.3z"/>
		<path d="M47.9,16.7c1.5,0,2.6-0.6,3.7-1.6l1.8,1.6c-1.3,1.6-3.1,2.6-5.5,2.6c-3.9,0-7-2.9-7-7.2c0-4,2.7-7.2,6.6-7.2
			c4.3,0,6.5,3.4,6.5,7.4c0,0.3,0,0.5-0.1,0.9h-10C44.3,15.5,45.8,16.7,47.9,16.7z M50.9,11.2c-0.2-2-1.4-3.6-3.4-3.6
			c-1.9,0-3.2,1.5-3.5,3.6H50.9z"/>
		<path d="M60.2,19h-3.1V5.3h3.1v2.1C61.1,6.1,62.3,5,64.4,5c3.1,0,4.8,2.1,4.8,5.3V19h-3.1v-7.8c0-2.1-1.1-3.4-2.9-3.4
			c-1.8,0-3.1,1.3-3.1,3.4V19z"/>
		<path d="M76.8,14.7c0,1.2,0.6,1.7,1.7,1.7c0.7,0,1.3-0.2,1.9-0.5v2.6c-0.8,0.4-1.6,0.7-2.8,0.7c-2.3,0-3.9-1-3.9-4V8h-1.7V5.3h1.7
			V1.5h3.1v3.8h3.6V8h-3.6V14.7z"/>
		<path d="M91.9,19v-1.7c-0.9,1.1-2.3,2-4.4,2c-2.6,0-4.8-1.5-4.8-4.2V15c0-3,2.3-4.4,5.5-4.4c1.6,0,2.7,0.2,3.7,0.6v-0.3
			c0-1.9-1.2-2.9-3.3-2.9c-1.5,0-2.6,0.3-3.9,0.9l-0.8-2.5C85.3,5.5,86.8,5,89,5c4,0,6,2.1,6,5.8V19H91.9z M91.9,13.2
			c-0.8-0.3-1.9-0.5-3.1-0.5c-2,0-3.1,0.8-3.1,2.2v0.1c0,1.3,1.2,2,2.6,2c2.1,0,3.6-1.2,3.6-2.9V13.2z"/>
		<path d="M115.5,14.5h-0.1L109.8,6v13h-3.1V0.8h3.4l5.5,8.6l5.5-8.6h3.4V19h-3.2V5.9L115.5,14.5z"/>
		<path d="M134.9,16.7c1.5,0,2.6-0.6,3.7-1.6l1.8,1.6c-1.3,1.6-3.1,2.6-5.5,2.6c-3.9,0-7-2.9-7-7.2c0-4,2.7-7.2,6.6-7.2
			c4.3,0,6.5,3.4,6.5,7.4c0,0.3,0,0.5-0.1,0.9h-10C131.4,15.5,132.9,16.7,134.9,16.7z M137.9,11.2c-0.2-2-1.4-3.6-3.4-3.6
			c-1.9,0-3.2,1.5-3.5,3.6H137.9z"/>
		<path d="M160,5c3,0,4.8,1.9,4.8,5.3V19h-3.1v-7.8c0-2.2-1-3.4-2.7-3.4c-1.7,0-2.9,1.2-2.9,3.4V19h-3.1v-7.8c0-2.1-1-3.3-2.7-3.3
			s-2.9,1.3-2.9,3.4V19h-3.1V5.3h3.1v2.1c0.9-1.2,2.1-2.4,4.1-2.4c2,0,3.3,1,4,2.4C156.5,5.9,158,5,160,5z"/>
		<path d="M176.3,19.3c-2.2,0-3.6-1.1-4.6-2.4V19h-3.1V0h3.1v7.5c1-1.4,2.4-2.6,4.6-2.6c3.2,0,6.3,2.6,6.3,7.2
			S179.5,19.3,176.3,19.3z M175.5,7.7c-2.1,0-4,1.7-4,4.4c0,2.7,1.8,4.4,4,4.4c2.1,0,3.9-1.7,3.9-4.4C179.4,9.4,177.6,7.7,175.5,7.7
			z"/>
		<path d="M192,16.7c1.5,0,2.6-0.6,3.7-1.6l1.8,1.6c-1.3,1.6-3.1,2.6-5.5,2.6c-3.9,0-7-2.9-7-7.2c0-4,2.7-7.2,6.6-7.2
			c4.3,0,6.5,3.4,6.5,7.4c0,0.3,0,0.5-0.1,0.9h-10C188.5,15.5,190,16.7,192,16.7z M195.1,11.2c-0.2-2-1.4-3.6-3.4-3.6
			c-1.9,0-3.2,1.5-3.5,3.6H195.1z"/>
		<path d="M204.4,19h-3.1V5.3h3.1v3.1c0.8-2.1,2.4-3.5,4.8-3.4v3.3H209c-2.7,0-4.6,1.8-4.6,5.4V19z"/>
		<path d="M226,19.3c-4.1,0-7.2-3.2-7.2-7.1c0-4,3.1-7.2,7.2-7.2c4.2,0,7.2,3.2,7.2,7.2C233.3,16,230.2,19.3,226,19.3z M226,7.7
			c-2.5,0-4.1,2-4.1,4.4c0,2.4,1.7,4.4,4.1,4.4c2.5,0,4.1-2,4.1-4.4C230.2,9.7,228.5,7.7,226,7.7z"/>
		<path d="M239.6,19h-3.1V5.3h3.1v3.1c0.8-2.1,2.4-3.5,4.8-3.4v3.3h-0.2c-2.7,0-4.6,1.8-4.6,5.4V19z"/>
		<path d="M254.7,19v-1.7c-0.9,1.1-2.3,2-4.4,2c-2.6,0-4.8-1.5-4.8-4.2V15c0-3,2.3-4.4,5.5-4.4c1.6,0,2.7,0.2,3.7,0.6v-0.3
			c0-1.9-1.2-2.9-3.3-2.9c-1.5,0-2.6,0.3-3.9,0.9l-0.8-2.5c1.5-0.7,3-1.1,5.2-1.1c4,0,6,2.1,6,5.8V19H254.7z M254.8,13.2
			c-0.8-0.3-1.9-0.5-3.1-0.5c-2,0-3.1,0.8-3.1,2.2v0.1c0,1.3,1.2,2,2.6,2c2.1,0,3.6-1.2,3.6-2.9V13.2z"/>
	</g>
</g>
</svg>
