<?xml version="1.0" encoding="utf-8"?>
<!-- Generator: Adobe Illustrator 24.3.0, SVG Export Plug-In . SVG Version: 6.00 Build 0)  -->
<svg version="1.1" id="Laag_1" xmlns="http://www.w3.org/2000/svg" xmlns:xlink="http://www.w3.org/1999/xlink" x="0px" y="0px"
	 width="79px" height="26.9px" viewBox="0 0 79 26.9" style="enable-background:new 0 0 79 26.9;" xml:space="preserve">
<style type="text/css">
	.st0{fill:#FFFFFF;}
</style>
<g>
	<g>
		<path class="st0" d="M0.3,1.6c0-0.5,0.1-0.9,0.4-1.2S1.5,0,2.1,0C2.5,0,2.7,0.1,3,0.2c0.2,0.1,0.4,0.3,0.5,0.5
			c0,0.1,0.1,0.2,0.1,0.2S3.7,1,3.7,1.1s0,0.2,0,0.4c0,0.1,0,0.3,0,0.5v2.8c0,0.2,0,0.4,0,0.5c0,0.1,0,0.2,0,0.3
			c0,0.1,0,0.2-0.1,0.2S3.6,6.1,3.5,6.2C3.4,6.4,3.2,6.5,3,6.6C2.7,6.7,2.4,6.8,2,6.8c-1.1,0-1.6-0.5-1.6-1.5L0.3,1.6z M2.5,1.8
			c0-0.2,0-0.3-0.1-0.4C2.3,1.3,2.2,1.2,2.1,1.2c-0.3,0-0.4,0.2-0.4,0.5v3.1c0,0.3,0,0.5,0.1,0.6c0.1,0.1,0.2,0.2,0.3,0.2
			c0.3,0,0.4-0.2,0.4-0.5V1.8z"/>
		<path class="st0" d="M4.8,0.1h1.9c0.3,0,0.6,0,0.8,0.1c0.2,0,0.3,0.1,0.4,0.2C8,0.5,8.1,0.6,8.1,0.8c0,0.1,0,0.3,0,0.5v1.3
			c0,0.2,0,0.4-0.1,0.5C8,3.2,7.9,3.3,7.8,3.4C7.7,3.5,7.5,3.6,7.4,3.6c-0.2,0-0.4,0.1-0.7,0.1H6.1v3H4.8V0.1z M6.5,2.5
			c0.3,0,0.4-0.1,0.4-0.3V1.7c0-0.1,0-0.2-0.1-0.2c-0.1,0-0.1-0.1-0.3-0.1H6.1v1.1H6.5z"/>
		<path class="st0" d="M9.1,0.1h2.6v1.2h-1.4v1.2h1.4v1.2h-1.4v1.7h1.4v1.2H9.1V0.1z"/>
		<path class="st0" d="M12.7,0.1h1.2L15,3.6V0.1h1.2v6.6H15l-1.2-3.5v3.5h-1.1V0.1z"/>
		<path class="st0" d="M17.2,0.1h1.3v2.3h0.8V0.1h1.3v6.6h-1.3v-3h-0.8v3h-1.3V0.1z"/>
		<path class="st0" d="M22.2,0.1h2L25,6.7h-1.2L23.7,6h-0.9l-0.1,0.7h-1.2L22.2,0.1z M23.5,4.8l-0.3-3.5l-0.4,3.5H23.5z"/>
		<path class="st0" d="M25.8,0.1h1.8c0.2,0,0.3,0,0.4,0c0.1,0,0.2,0,0.3,0c0.1,0,0.2,0,0.2,0.1c0.1,0,0.1,0,0.2,0.1
			c0.1,0.1,0.2,0.2,0.3,0.4s0.1,0.4,0.1,0.7v1.1c0,0.4-0.1,0.6-0.2,0.8c-0.1,0.2-0.3,0.3-0.7,0.4l1.2,3.1h-1.3l-1.1-3v3h-1.3V0.1z
			 M27.5,2.5c0.2,0,0.3,0,0.3-0.1c0.1-0.1,0.1-0.2,0.1-0.4V1.8c0-0.2,0-0.3-0.1-0.4c0-0.1-0.1-0.1-0.3-0.1h-0.5v1.1H27.5z"/>
		<path class="st0" d="M31,1.4h-0.9V0.1h3.1v1.2h-0.9l0,5.3H31V1.4z"/>
		<path class="st0" d="M34.1,0.1h1.3v6.6h-1.3V0.1z"/>
		<path class="st0" d="M36.4,1.7c0-0.6,0.1-1,0.4-1.3C37,0.1,37.5,0,38.1,0c0.3,0,0.6,0.1,0.9,0.2c0.1,0.1,0.2,0.1,0.3,0.2
			c0.1,0.1,0.2,0.2,0.2,0.3c0.1,0.1,0.1,0.3,0.1,0.4c0,0.2,0,0.4,0,0.6v0.4h-1.3V1.7c0-0.3-0.1-0.4-0.4-0.4s-0.4,0.2-0.4,0.5v3.2
			c0,0.2,0,0.4,0.1,0.5c0.1,0.1,0.2,0.2,0.3,0.2c0.1,0,0.2,0,0.3-0.1c0.1-0.1,0.1-0.2,0.1-0.5V4.5h-0.3V3.4h1.6v1.7
			c0,0.3,0,0.5-0.1,0.7c0,0.2-0.1,0.3-0.2,0.4c-0.1,0.2-0.3,0.3-0.6,0.4c-0.3,0.1-0.6,0.2-0.9,0.2c-0.3,0-0.6,0-0.8-0.1
			s-0.4-0.2-0.6-0.4c-0.1-0.1-0.2-0.3-0.2-0.5s-0.1-0.4-0.1-0.7V1.7z"/>
		<path class="st0" d="M43.6,4.6V5c0,0.4,0.1,0.6,0.4,0.6c0.2,0,0.3,0,0.3-0.1c0.1-0.1,0.1-0.3,0.1-0.5c0-0.1,0-0.2,0-0.3
			c0-0.1,0-0.1-0.1-0.2c0-0.1-0.1-0.1-0.2-0.2c-0.1-0.1-0.2-0.1-0.3-0.2l-0.6-0.5c-0.2-0.1-0.3-0.2-0.4-0.4
			c-0.1-0.1-0.2-0.2-0.3-0.4c-0.1-0.1-0.1-0.3-0.1-0.4c0-0.2,0-0.4,0-0.6c0-0.2,0-0.4,0-0.6c0-0.2,0-0.3,0.1-0.4
			c0-0.1,0.1-0.2,0.1-0.3c0-0.1,0.1-0.1,0.1-0.2c0.1-0.1,0.3-0.2,0.5-0.3C43.5,0.1,43.7,0,44.1,0c0.2,0,0.4,0,0.6,0.1
			c0.2,0,0.4,0.1,0.5,0.2c0.1,0.1,0.3,0.3,0.3,0.5c0.1,0.2,0.1,0.5,0.1,0.8v0.6h-1.2c0,0,0-0.1,0-0.1c0,0,0-0.1,0-0.1
			c0-0.1,0-0.2,0-0.2c0-0.1,0-0.2-0.1-0.2s-0.1-0.1-0.1-0.2c-0.1,0-0.1-0.1-0.2-0.1c-0.3,0-0.4,0.2-0.4,0.6c0,0.1,0,0.2,0.1,0.3
			c0,0.1,0.1,0.2,0.2,0.3c0.1,0.1,0.2,0.2,0.3,0.2c0.1,0.1,0.2,0.2,0.4,0.3c0.1,0.1,0.3,0.2,0.4,0.3c0.1,0.1,0.3,0.2,0.4,0.4
			c0.1,0.1,0.2,0.3,0.3,0.4c0.1,0.1,0.1,0.3,0.1,0.4v0.7c0,0.5-0.1,0.9-0.4,1.2c-0.3,0.3-0.7,0.4-1.3,0.4c-0.3,0-0.6-0.1-0.8-0.2
			c-0.2-0.1-0.4-0.3-0.5-0.4c-0.1-0.1-0.2-0.3-0.2-0.5c0-0.2-0.1-0.5-0.1-0.8c0,0,0-0.1,0-0.1c0,0,0-0.1,0-0.2H43.6z"/>
		<path class="st0" d="M47.2,0.1h2l0.8,6.6h-1.2L48.6,6h-0.9l-0.1,0.7h-1.2L47.2,0.1z M48.5,4.8l-0.3-3.5l-0.4,3.5H48.5z"/>
		<path class="st0" d="M50.8,0.1h1.6l0.8,3.5L54,0.1h1.6v6.6h-1.2V3l-0.9,3.7h-0.8L51.9,3v3.7h-1.1V0.1z"/>
		<path class="st0" d="M56.6,0.1h2.6v1.2h-1.4v1.2h1.4v1.2h-1.4v1.7h1.4v1.2h-2.6V0.1z"/>
		<path class="st0" d="M60.2,0.1h1.2l1.2,3.5V0.1h1.2v6.6h-1.1l-1.2-3.5v3.5h-1.1V0.1z"/>
		<path class="st0" d="M65.8,4.6V5c0,0.4,0.1,0.6,0.4,0.6c0.2,0,0.3,0,0.3-0.1c0.1-0.1,0.1-0.3,0.1-0.5c0-0.1,0-0.2,0-0.3
			c0-0.1,0-0.1-0.1-0.2c0-0.1-0.1-0.1-0.2-0.2c-0.1-0.1-0.2-0.1-0.3-0.2l-0.6-0.5c-0.2-0.1-0.3-0.2-0.4-0.4C65,3.1,64.9,3,64.8,2.9
			c-0.1-0.1-0.1-0.3-0.1-0.4c0-0.2,0-0.4,0-0.6c0-0.2,0-0.4,0-0.6c0-0.2,0-0.3,0.1-0.4s0.1-0.2,0.1-0.3S65,0.6,65,0.5
			c0.1-0.1,0.3-0.2,0.5-0.3C65.7,0.1,66,0,66.3,0c0.2,0,0.4,0,0.6,0.1c0.2,0,0.4,0.1,0.5,0.2c0.1,0.1,0.3,0.3,0.3,0.5
			c0.1,0.2,0.1,0.5,0.1,0.8v0.6h-1.2c0,0,0-0.1,0-0.1c0,0,0-0.1,0-0.1c0-0.1,0-0.2,0-0.2c0-0.1,0-0.2-0.1-0.2c0-0.1-0.1-0.1-0.1-0.2
			s-0.1-0.1-0.2-0.1c-0.3,0-0.4,0.2-0.4,0.6c0,0.1,0,0.2,0.1,0.3s0.1,0.2,0.2,0.3s0.2,0.2,0.3,0.2c0.1,0.1,0.2,0.2,0.4,0.3
			C66.8,3,67,3.1,67.1,3.2c0.1,0.1,0.3,0.2,0.4,0.4s0.2,0.3,0.3,0.4c0.1,0.1,0.1,0.3,0.1,0.4v0.7c0,0.5-0.1,0.9-0.4,1.2
			c-0.3,0.3-0.7,0.4-1.3,0.4c-0.3,0-0.6-0.1-0.8-0.2c-0.2-0.1-0.4-0.3-0.5-0.4c-0.1-0.1-0.2-0.3-0.2-0.5c0-0.2-0.1-0.5-0.1-0.8
			c0,0,0-0.1,0-0.1c0,0,0-0.1,0-0.2H65.8z"/>
		<path class="st0" d="M68.9,0.1h1.9c0.3,0,0.6,0,0.8,0.1c0.2,0,0.3,0.1,0.4,0.2c0.1,0.1,0.2,0.2,0.2,0.4s0,0.3,0,0.5v1.3
			c0,0.2,0,0.4-0.1,0.5S72,3.3,71.9,3.4c-0.1,0.1-0.3,0.2-0.5,0.2c-0.2,0-0.4,0.1-0.7,0.1h-0.6v3h-1.3V0.1z M70.6,2.5
			c0.3,0,0.4-0.1,0.4-0.3V1.7c0-0.1,0-0.2-0.1-0.2c-0.1,0-0.1-0.1-0.3-0.1h-0.5v1.1H70.6z"/>
		<path class="st0" d="M73.2,0.1h2.6v1.2h-1.4v1.2h1.4v1.2h-1.4v1.7h1.4v1.2h-2.6V0.1z"/>
		<path class="st0" d="M76.8,0.1h1.3v5.3h1v1.2h-2.3V0.1z"/>
	</g>
	<g>
		<path class="st0" d="M0,10.2h1.2l0.5,3.9l0.5-3.9h1.2l-1.1,6.6H1.1L0,10.2z"/>
		<path class="st0" d="M4.5,10.2h2l0.8,6.6H6L5.9,16H5l-0.1,0.7H3.7L4.5,10.2z M5.8,14.8l-0.3-3.5l-0.4,3.5H5.8z"/>
		<path class="st0" d="M8.1,10.2h1.2l1.2,3.5v-3.5h1.2v6.6h-1.1l-1.2-3.5v3.5H8.1V10.2z"/>
		<path class="st0" d="M14.4,10.2H17v1.2h-1.4v1.2H17v1.2h-1.4v1.7H17v1.2h-2.6V10.2z"/>
		<path class="st0" d="M18,10.2h2.6v1.2h-1.4v1.2h1.4v1.2h-1.4v1.7h1.4v1.2H18V10.2z"/>
		<path class="st0" d="M21.6,10.2h1.2l1.2,3.5v-3.5H25v6.6h-1.1l-1.2-3.5v3.5h-1.1V10.2z"/>
		<path class="st0" d="M28.5,11.4h-0.9v-1.2h3.1v1.2h-0.9l0,5.3h-1.3V11.4z"/>
		<path class="st0" d="M31.6,10.2h1.8c0.2,0,0.3,0,0.4,0s0.2,0,0.3,0c0.1,0,0.2,0,0.2,0.1c0.1,0,0.1,0,0.2,0.1
			c0.1,0.1,0.2,0.2,0.3,0.4c0.1,0.2,0.1,0.4,0.1,0.7v1.1c0,0.4-0.1,0.6-0.2,0.8c-0.1,0.2-0.3,0.3-0.7,0.4l1.2,3.1H34l-1.1-3v3h-1.3
			V10.2z M33.3,12.5c0.2,0,0.3,0,0.3-0.1c0.1-0.1,0.1-0.2,0.1-0.4v-0.1c0-0.2,0-0.3-0.1-0.4c0-0.1-0.1-0.1-0.3-0.1h-0.5v1.1H33.3z"
			/>
		<path class="st0" d="M36.8,10.2h2l0.8,6.6h-1.2L38.2,16h-0.9l-0.1,0.7H36L36.8,10.2z M38.1,14.8l-0.3-3.5l-0.4,3.5H38.1z"/>
		<path class="st0" d="M40.4,10.2h1.2l1.2,3.5v-3.5h1.2v6.6h-1.1l-1.2-3.5v3.5h-1.1V10.2z"/>
		<path class="st0" d="M46,14.6v0.5c0,0.4,0.1,0.6,0.4,0.6c0.2,0,0.3-0.1,0.3-0.1c0.1-0.1,0.1-0.3,0.1-0.5c0-0.1,0-0.2,0-0.3
			c0-0.1,0-0.1-0.1-0.2c0-0.1-0.1-0.1-0.2-0.2c-0.1-0.1-0.2-0.1-0.3-0.2l-0.6-0.5c-0.2-0.1-0.3-0.2-0.4-0.4
			c-0.1-0.1-0.2-0.2-0.3-0.4c-0.1-0.1-0.1-0.3-0.1-0.4c0-0.2,0-0.4,0-0.6c0-0.2,0-0.4,0-0.6c0-0.2,0-0.3,0.1-0.4s0.1-0.2,0.1-0.3
			s0.1-0.1,0.1-0.2c0.1-0.1,0.3-0.2,0.5-0.3c0.2-0.1,0.5-0.1,0.8-0.1c0.2,0,0.4,0,0.6,0.1c0.2,0,0.4,0.1,0.5,0.2
			c0.1,0.1,0.3,0.3,0.3,0.5C48,11,48,11.3,48,11.6v0.6h-1.2c0,0,0-0.1,0-0.1c0,0,0-0.1,0-0.1c0-0.1,0-0.2,0-0.2c0-0.1,0-0.2-0.1-0.2
			c0-0.1-0.1-0.1-0.1-0.2s-0.1-0.1-0.2-0.1c-0.3,0-0.4,0.2-0.4,0.6c0,0.1,0,0.2,0.1,0.3s0.1,0.2,0.2,0.3s0.2,0.2,0.3,0.2
			c0.1,0.1,0.2,0.2,0.4,0.3c0.1,0.1,0.3,0.2,0.4,0.3c0.1,0.1,0.3,0.2,0.4,0.4s0.2,0.3,0.3,0.4c0.1,0.1,0.1,0.3,0.1,0.4v0.7
			c0,0.5-0.1,0.9-0.4,1.2c-0.3,0.3-0.7,0.4-1.3,0.4c-0.3,0-0.6-0.1-0.8-0.2c-0.2-0.1-0.4-0.3-0.5-0.4c-0.1-0.1-0.2-0.3-0.2-0.5
			c0-0.2-0.1-0.5-0.1-0.8c0,0,0-0.1,0-0.1s0-0.1,0-0.2H46z"/>
		<path class="st0" d="M50.1,11.4h-1.2l0-1.2h2.8l-1.3,5.4h1.4v1.2h-2.9L50.1,11.4z"/>
		<path class="st0" d="M52.6,11.6c0-0.5,0.1-0.9,0.4-1.2s0.7-0.4,1.3-0.4c0.3,0,0.6,0.1,0.9,0.2c0.2,0.1,0.4,0.3,0.5,0.5
			c0,0.1,0.1,0.2,0.1,0.2s0.1,0.2,0.1,0.3s0,0.2,0,0.4c0,0.1,0,0.3,0,0.5v2.8c0,0.2,0,0.4,0,0.5s0,0.2,0,0.3c0,0.1,0,0.2-0.1,0.2
			c0,0.1-0.1,0.2-0.1,0.2c-0.1,0.2-0.3,0.4-0.6,0.5c-0.3,0.1-0.6,0.2-1,0.2c-1.1,0-1.6-0.5-1.6-1.5L52.6,11.6z M54.7,11.8
			c0-0.2,0-0.3-0.1-0.4c-0.1-0.1-0.2-0.1-0.3-0.1c-0.3,0-0.4,0.2-0.4,0.5v3.1c0,0.3,0,0.5,0.1,0.6c0.1,0.1,0.2,0.2,0.3,0.2
			c0.3,0,0.4-0.2,0.4-0.5V11.8z"/>
		<path class="st0" d="M57,11.6c0-0.5,0.1-0.9,0.4-1.2s0.7-0.4,1.3-0.4c0.3,0,0.6,0.1,0.9,0.2c0.2,0.1,0.4,0.3,0.5,0.5
			c0,0.1,0.1,0.2,0.1,0.2s0.1,0.2,0.1,0.3s0,0.2,0,0.4c0,0.1,0,0.3,0,0.5v2.8c0,0.2,0,0.4,0,0.5s0,0.2,0,0.3c0,0.1,0,0.2-0.1,0.2
			c0,0.1-0.1,0.2-0.1,0.2c-0.1,0.2-0.3,0.4-0.6,0.5c-0.3,0.1-0.6,0.2-1,0.2c-1.1,0-1.6-0.5-1.6-1.5L57,11.6z M59.2,11.8
			c0-0.2,0-0.3-0.1-0.4c-0.1-0.1-0.2-0.1-0.3-0.1c-0.3,0-0.4,0.2-0.4,0.5v3.1c0,0.3,0,0.5,0.1,0.6c0.1,0.1,0.2,0.2,0.3,0.2
			c0.3,0,0.4-0.2,0.4-0.5V11.8z"/>
		<path class="st0" d="M61.4,10.2h1.2l1.2,3.5v-3.5h1.2v6.6h-1.1l-1.2-3.5v3.5h-1.1V10.2z"/>
	</g>
	<g>
		<path class="st0" d="M0.4,20.2H3v1.2H1.6v1.2H3v1.2H1.6v1.7H3v1.2H0.4V20.2z"/>
		<path class="st0" d="M3.9,20.2h1.2l1.2,3.5v-3.5h1.2v6.6H6.3l-1.2-3.5v3.5H3.9V20.2z"/>
		<path class="st0" d="M11.3,21.4H10l0-1.2h2.8l-1.3,5.4h1.4v1.2H9.9L11.3,21.4z"/>
		<path class="st0" d="M13.7,20.2H15v6.6h-1.3V20.2z"/>
		<path class="st0" d="M15.9,25.5L15.9,25.5c0.2,0,0.4,0,0.4-0.1s0.1-0.2,0.1-0.4v-4.8h1.3v5.2c0,0.1,0,0.3,0,0.4c0,0.1,0,0.2,0,0.2
			c0,0.1,0,0.1,0,0.2c0,0.1,0,0.1-0.1,0.2c-0.1,0.1-0.2,0.3-0.3,0.3c-0.2,0.1-0.4,0.1-0.6,0.1c-0.1,0-0.2,0-0.4,0
			c-0.1,0-0.2,0-0.3,0V25.5z"/>
		<path class="st0" d="M18.7,20.2h1.2l1.2,3.5v-3.5h1.2v6.6h-1.1l-1.2-3.5v3.5h-1.1V20.2z"/>
		<path class="st0" d="M25,20.2h1.6l0.8,3.5l0.8-3.5h1.6v6.6h-1.2v-3.7l-0.9,3.7H27l-0.9-3.7v3.7H25V20.2z"/>
		<path class="st0" d="M30.8,21.7c0-0.5,0.1-0.9,0.4-1.2s0.7-0.4,1.3-0.4c0.3,0,0.6,0.1,0.9,0.2c0.2,0.1,0.4,0.3,0.5,0.5
			c0,0.1,0.1,0.2,0.1,0.2s0.1,0.2,0.1,0.3c0,0.1,0,0.2,0,0.4c0,0.1,0,0.3,0,0.5v2.8c0,0.2,0,0.4,0,0.5s0,0.2,0,0.3
			c0,0.1,0,0.2-0.1,0.2c0,0.1-0.1,0.2-0.1,0.2c-0.1,0.2-0.3,0.4-0.6,0.5c-0.3,0.1-0.6,0.2-1,0.2c-1.1,0-1.6-0.5-1.6-1.5L30.8,21.7z
			 M32.9,21.9c0-0.2,0-0.3-0.1-0.4c-0.1-0.1-0.2-0.1-0.3-0.1c-0.3,0-0.4,0.2-0.4,0.5v3.1c0,0.3,0,0.5,0.1,0.6
			c0.1,0.1,0.2,0.2,0.3,0.2c0.3,0,0.4-0.2,0.4-0.5V21.9z"/>
		<path class="st0" d="M35.3,20.2h2.6v1.2h-1.4v1.2h1.4v1.2h-1.4v1.7h1.4v1.2h-2.6V20.2z"/>
		<path class="st0" d="M38.8,20.2h1.8c0.1,0,0.3,0,0.4,0c0.1,0,0.2,0,0.3,0c0.1,0,0.1,0,0.2,0c0.1,0,0.1,0,0.2,0.1
			c0.2,0.1,0.3,0.2,0.4,0.4c0.1,0.2,0.1,0.4,0.1,0.8v3.9c0,0.1,0,0.2,0,0.3c0,0.1,0,0.2,0,0.2c0,0.1,0,0.1-0.1,0.2
			c0,0.1,0,0.1-0.1,0.2c-0.1,0.1-0.2,0.3-0.3,0.3c-0.1,0-0.1,0.1-0.2,0.1c0,0-0.1,0-0.2,0c-0.1,0-0.1,0-0.2,0c-0.1,0-0.2,0-0.3,0h-2
			V20.2z M40.5,25.6c0.2,0,0.3,0,0.3-0.1c0.1-0.1,0.1-0.2,0.1-0.4v-3.2c0-0.2,0-0.3-0.1-0.3c-0.1-0.1-0.2-0.1-0.3-0.1h-0.4v4.2H40.5
			z"/>
		<path class="st0" d="M43.2,20.2h2.6v1.2h-1.4v1.2h1.4v1.2h-1.4v1.7h1.4v1.2h-2.6V20.2z"/>
		<path class="st0" d="M46.8,20.2h1.8c0.2,0,0.3,0,0.4,0s0.2,0,0.3,0c0.1,0,0.2,0,0.2,0.1c0.1,0,0.1,0,0.2,0.1
			c0.1,0.1,0.2,0.2,0.3,0.4c0.1,0.2,0.1,0.4,0.1,0.7v1.1c0,0.4-0.1,0.6-0.2,0.8c-0.1,0.2-0.3,0.3-0.7,0.4l1.2,3.1h-1.3l-1.1-3v3
			h-1.3V20.2z M48.5,22.6c0.2,0,0.3,0,0.3-0.1c0.1-0.1,0.1-0.2,0.1-0.4v-0.1c0-0.2,0-0.3-0.1-0.4c0-0.1-0.1-0.1-0.3-0.1h-0.5v1.1
			H48.5z"/>
	</g>
</g>
</svg>
