<?xml version="1.0" encoding="utf-8"?>
<!-- Generator: Adobe Illustrator 24.0.0, SVG Export Plug-In . SVG Version: 6.00 Build 0)  -->
<svg version="1.1" id="Laag_1" xmlns="http://www.w3.org/2000/svg" xmlns:xlink="http://www.w3.org/1999/xlink" x="0px" y="0px"
	 width="99px" height="26.7px" viewBox="0 0 99 26.7" style="enable-background:new 0 0 99 26.7;" xml:space="preserve">
<g>
	<path d="M5.2,9.1h1.5v3.5l3.7-3.5h2.1l-3.8,3.6l3.8,4.8h-1.9l-2.9-3.7l-0.8,0.8v2.9H5.2V9.1z"/>
	<path d="M18.2,14.6c0,1.7-1.2,3.1-3,3.1c-1.8,0-3-1.4-3-3.1c0-1.8,1.2-3.1,3-3.1C17,11.5,18.2,12.8,18.2,14.6z M16.3,15.7
		c0.3-0.3,0.4-0.7,0.4-1.2s-0.1-0.9-0.4-1.2c-0.3-0.3-0.6-0.5-1.1-0.5c-0.9,0-1.5,0.7-1.5,1.7c0,0.9,0.6,1.6,1.5,1.6
		C15.7,16.2,16,16.1,16.3,15.7z"/>
	<path d="M25,14.6c0,1.7-1.2,3.1-3,3.1c-1.8,0-3-1.4-3-3.1c0-1.8,1.2-3.1,3-3.1C23.8,11.5,25,12.8,25,14.6z M23.1,15.7
		c0.3-0.3,0.4-0.7,0.4-1.2s-0.1-0.9-0.4-1.2c-0.3-0.3-0.6-0.5-1.1-0.5c-0.9,0-1.5,0.7-1.5,1.7c0,0.9,0.6,1.6,1.5,1.6
		C22.4,16.2,22.8,16.1,23.1,15.7z"/>
	<path d="M26,11.6h1.5v0.6c0.5-0.5,1.1-0.8,1.8-0.8c1.5,0,2.7,1.4,2.7,3.1c0,1.7-1.2,3.1-2.7,3.1c-0.8,0-1.4-0.3-1.8-0.8v3.3H26
		V11.6z M30.5,14.6c0-1-0.6-1.7-1.5-1.7c-0.9,0-1.5,0.7-1.5,1.7c0,1,0.6,1.7,1.5,1.7C29.9,16.2,30.5,15.5,30.5,14.6z"/>
	<path d="M35.9,11.6h1.5v0.6c0.4-0.5,1-0.7,1.7-0.7c1.3,0,2,0.9,2,2.3v3.7h-1.5V14c0-0.8-0.3-1.2-1-1.2c-0.7,0-1.2,0.6-1.2,1.5v3.2
		h-1.5V11.6z"/>
	<path d="M47.5,17.5h-1.5v-0.6c-0.4,0.5-1,0.7-1.7,0.7c-1.3,0-2-0.9-2-2.3v-3.7h1.5v3.5c0,0.8,0.3,1.2,1,1.2c0.7,0,1.2-0.6,1.2-1.5
		v-3.2h1.5V17.5z"/>
	<path d="M51.7,9.1h1.5v4.6l2-2h1.9l-2.4,2.4l2.6,3.4h-1.8l-1.8-2.3l-0.5,0.5v1.9h-1.5V9.1z"/>
	<path d="M60.9,13.7v-0.2c0-0.4-0.4-0.8-1-0.8c-0.7,0-1.1,0.4-1.1,1.1l-1.4-0.1c-0.1-1.5,1-2.3,2.4-2.3c1.6,0,2.5,0.8,2.5,2.1v3.9
		h-1.4v-0.6c-0.3,0.4-0.8,0.8-1.5,0.8c-1.3,0-2-0.9-2-1.7c0-1.2,0.7-1.8,2.2-2L60.9,13.7z M60.9,15v-0.2l-1,0.2
		c-0.6,0.1-1,0.3-1,0.7c0,0.4,0.3,0.6,0.9,0.6C60.4,16.3,60.9,15.8,60.9,15z"/>
	<path d="M66.9,13.7v-0.2c0-0.4-0.4-0.8-1-0.8c-0.7,0-1.1,0.4-1.1,1.1l-1.4-0.1c-0.1-1.5,1-2.3,2.4-2.3c1.6,0,2.5,0.8,2.5,2.1v3.9
		h-1.4v-0.6c-0.3,0.4-0.8,0.8-1.5,0.8c-1.3,0-2-0.9-2-1.7c0-1.2,0.7-1.8,2.2-2L66.9,13.7z M66.9,15v-0.2l-1,0.2
		c-0.6,0.1-1,0.3-1,0.7c0,0.4,0.3,0.6,0.9,0.6C66.4,16.3,66.9,15.8,66.9,15z"/>
	<path d="M69.5,11.6H71v0.5c0.4-0.5,0.9-0.7,1.5-0.7c1.1,0,1.7,0.8,1.7,2.4l-1.5,0.2c0-0.1,0-0.1,0-0.3c0-0.7-0.3-1-0.8-1
		c-0.6,0-1,0.5-1,1.5v3.2h-1.5V11.6z"/>
	<path d="M74.7,11.6h1V10h1.5v1.7h2.8v1.3h-2.8v2.5c0,0.5,0.3,0.8,0.8,0.8c0.5,0,0.8-0.4,0.8-1.1l1.4,0.1c0.1,1.4-0.9,2.3-2.1,2.3
		c-1.5,0-2.4-0.9-2.4-2.3v-2.5h-1V11.6z"/>
	<path d="M86.2,14.3V15h-4.1c0.2,0.9,0.8,1.4,1.6,1.4c0.7,0,1.2-0.4,1.3-1.1l1.4,0.3c-0.1,0.6-0.4,1.2-0.9,1.5
		c-0.5,0.4-1.1,0.6-1.8,0.6c-1.8,0-3-1.3-3-3.1s1.2-3.1,2.9-3.1C85.2,11.5,86.2,12.6,86.2,14.3z M84.9,13.8c0-0.6-0.6-1.1-1.3-1.1
		c-0.7,0-1.2,0.4-1.4,1.1H84.9z"/>
	<path d="M87.3,11.6h1.5v0.6c0.4-0.5,1-0.7,1.7-0.7c1.3,0,2,0.9,2,2.3v3.7h-1.5V14c0-0.8-0.3-1.2-1-1.2c-0.7,0-1.2,0.6-1.2,1.5v3.2
		h-1.5V11.6z"/>
</g>
</svg>
