<?xml version="1.0" encoding="utf-8"?>
<!-- Generator: Adobe Illustrator 22.1.0, SVG Export Plug-In . SVG Version: 6.00 Build 0)  -->
<svg version="1.1" id="Laag_1" xmlns="http://www.w3.org/2000/svg" xmlns:xlink="http://www.w3.org/1999/xlink" x="0px" y="0px"
	 width="155.5px" height="52.8px" viewBox="0 0 155.5 52.8" style="enable-background:new 0 0 155.5 52.8;" xml:space="preserve">
<style type="text/css">
	.st0{fill:#EAEDE1;}
</style>
<g>
	<path class="st0" d="M5.1,41.2c-2.1,0-3.8,1.7-3.8,3.8c0,1.6,2.5,4.8,3.8,6.2c1.3-1.4,3.8-4.6,3.8-6.2C8.8,42.9,7.1,41.2,5.1,41.2
		 M5.1,52.3L4.8,52c-0.2-0.2-4.3-4.6-4.3-7.1s2-4.5,4.5-4.5s4.5,2,4.5,4.5c0,2.4-4.1,6.9-4.3,7.1L5.1,52.3z"/>
	<path class="st0" d="M5.1,43.2c-0.9,0-1.6,0.7-1.6,1.6c0,0.9,0.7,1.6,1.6,1.6s1.6-0.7,1.6-1.6S6,43.2,5.1,43.2 M5.1,44
		C5.6,44,6,44.4,6,44.9s-0.4,0.8-0.9,0.8s-0.8-0.4-0.8-0.8S4.6,44,5.1,44"/>
	<g>
		<path class="st0" d="M18.7,41.5v0.9h-2.2V49h-1v-6.6h-2.2v-0.9H18.7z"/>
		<path class="st0" d="M25.2,48.9h-1.1l-1.8-3l0,0h-1.4v3H20v-7.5h2.5c0.7,0,1.3,0.2,1.8,0.6c0.4,0.4,0.7,0.9,0.7,1.6
			c0,0.5-0.1,0.9-0.4,1.3c-0.3,0.4-0.7,0.6-1.1,0.8L25.2,48.9z M20.9,42.4V45h1.4c0.5,0,0.9-0.1,1.1-0.4c0.3-0.2,0.4-0.6,0.4-1
			s-0.1-0.7-0.4-1c-0.3-0.2-0.7-0.3-1.1-0.3h-1.4V42.4z"/>
		<path class="st0" d="M34.2,47.1c0,0.6-0.2,1.1-0.7,1.5c-0.5,0.3-1.1,0.5-1.8,0.5c-0.9,0-1.5-0.2-2-0.7c-0.5-0.4-0.7-1-0.7-1.7h1
			c0,0.4,0.2,0.8,0.4,1.1c0.3,0.3,0.7,0.4,1.3,0.4c0.4,0,0.8-0.1,1.1-0.3s0.4-0.5,0.4-0.8s-0.1-0.6-0.4-0.9
			c-0.3-0.2-0.7-0.5-1.4-0.7c-0.7-0.2-1.2-0.5-1.6-0.8s-0.6-0.7-0.6-1.3s0.2-1.1,0.7-1.5c0.4-0.4,1-0.6,1.7-0.6
			c0.8,0,1.4,0.2,1.8,0.6c0.4,0.4,0.7,0.9,0.7,1.5h-0.9c0-0.4-0.2-0.7-0.4-0.9c-0.3-0.3-0.6-0.4-1.1-0.4c-0.4,0-0.7,0.1-1,0.3
			c-0.2,0.2-0.4,0.5-0.4,0.8s0.1,0.6,0.4,0.8s0.7,0.4,1.3,0.6c0.8,0.3,1.4,0.6,1.7,0.9C34,46,34.2,46.5,34.2,47.1z"/>
		<path class="st0" d="M42,46.7c-0.1,0.7-0.5,1.3-1.1,1.7s-1.3,0.6-2,0.6c-1.1,0-1.9-0.4-2.6-1.1c-0.6-0.7-1-1.6-1-2.8
			c0-1.1,0.3-2,1-2.8c0.6-0.7,1.5-1.1,2.5-1.1c0.8,0,1.5,0.2,2,0.6c0.6,0.4,0.9,1,1.1,1.8h-1c-0.1-0.5-0.4-0.8-0.7-1.1
			c-0.4-0.3-0.8-0.4-1.3-0.4c-0.7,0-1.3,0.3-1.8,0.8c-0.4,0.6-0.7,1.3-0.7,2.1c0,0.9,0.2,1.6,0.7,2.1s1.1,0.8,1.8,0.8
			c0.5,0,0.9-0.1,1.3-0.4c0.4-0.3,0.6-0.6,0.8-1h1V46.7z"/>
		<path class="st0" d="M48,41.5h1V49h-1v-3.3h-3.6V49h-1v-7.5h1v3.2H48V41.5z"/>
		<path class="st0" d="M54.2,49c-1.1,0-1.9-0.4-2.6-1.1c-0.7-0.7-1.1-1.6-1.1-2.7s0.4-2,1.1-2.7c0.7-0.7,1.6-1.1,2.6-1.1
			s1.9,0.4,2.6,1.1c0.7,0.7,1.1,1.6,1.1,2.7s-0.3,2-1,2.7C56.1,48.7,55.2,49,54.2,49z M54.2,48.1c0.8,0,1.4-0.3,1.9-0.8
			c0.5-0.6,0.8-1.2,0.8-2s-0.3-1.5-0.8-2s-1.1-0.8-1.9-0.8c-0.8,0-1.4,0.3-1.9,0.8c-0.5,0.6-0.8,1.2-0.8,2s0.3,1.5,0.8,2
			S53.4,48.1,54.2,48.1z"/>
		<path class="st0" d="M65.1,41.5V46c0,1-0.3,1.7-0.8,2.3c-0.5,0.5-1.2,0.8-2.1,0.8c-0.9,0-1.6-0.3-2.1-0.8
			c-0.6-0.5-0.8-1.3-0.8-2.3v-4.5h1V46c0,0.7,0.2,1.2,0.5,1.6c0.4,0.4,0.8,0.5,1.4,0.5c0.6,0,1-0.2,1.4-0.5c0.3-0.4,0.5-0.9,0.5-1.6
			v-4.5H65.1z"/>
		<path class="st0" d="M74.3,41.5h0.9L73.7,49h-1.4l-1.5-5.6h-0.1L69.2,49h-1.4l-1.5-7.5h1l1.3,6.3h0.1l1.5-5.7h1.3l1.5,5.7l0,0
			L74.3,41.5z"/>
		<path class="st0" d="M80,45c1,0.3,1.4,0.9,1.4,1.9c0,0.7-0.2,1.2-0.7,1.5s-1,0.5-1.7,0.5h-2.6v-7.5h2.4c0.7,0,1.3,0.2,1.7,0.5
			c0.4,0.3,0.6,0.8,0.6,1.4C81.1,44.1,80.8,44.7,80,45L80,45z M77.4,42.3v2.3h1.4c0.5,0,0.8-0.1,1-0.3s0.4-0.5,0.4-0.9
			s-0.1-0.7-0.4-0.8c-0.3-0.2-0.6-0.3-1-0.3H77.4z M78.9,48.1c0.5,0,0.8-0.1,1.1-0.3c0.3-0.2,0.4-0.5,0.4-0.9s-0.1-0.7-0.4-1
			c-0.3-0.2-0.6-0.4-1.1-0.4h-1.6v2.6C77.3,48.1,78.9,48.1,78.9,48.1z"/>
		<path class="st0" d="M88.7,41.5V46c0,1-0.3,1.7-0.8,2.3c-0.5,0.5-1.2,0.8-2.1,0.8s-1.6-0.3-2.1-0.8S82.9,47,82.9,46v-4.5h1V46
			c0,0.7,0.2,1.2,0.5,1.6c0.4,0.4,0.8,0.5,1.4,0.5s1-0.2,1.4-0.5c0.3-0.4,0.5-0.9,0.5-1.6v-4.5H88.7z"/>
		<path class="st0" d="M95.8,48.9h-1.1l-1.8-3l0,0h-1.4v3h-0.9v-7.5H93c0.7,0,1.3,0.2,1.8,0.6c0.4,0.4,0.7,0.9,0.7,1.6
			c0,0.5-0.1,0.9-0.4,1.3c-0.3,0.4-0.7,0.6-1.1,0.8L95.8,48.9z M91.4,42.4V45h1.4c0.5,0,0.9-0.1,1.1-0.4c0.3-0.2,0.4-0.6,0.4-1
			s-0.1-0.7-0.4-1c-0.3-0.2-0.7-0.3-1.1-0.3h-1.4V42.4z"/>
		<path class="st0" d="M99.8,45.1h3.2V49h-0.7l-0.2-0.8H102c-0.6,0.6-1.3,0.9-2.3,0.9s-1.8-0.3-2.4-1s-0.9-1.6-0.9-2.6
			c0-1.2,0.3-2.1,1-2.9c0.6-0.8,1.5-1.1,2.5-1.1c0.9,0,1.6,0.2,2.1,0.6c0.5,0.4,0.8,1,0.9,1.7h-1c-0.1-0.4-0.3-0.7-0.6-1
			c-0.3-0.3-0.8-0.4-1.3-0.4c-0.7,0-1.3,0.3-1.8,0.9c-0.4,0.6-0.7,1.3-0.7,2.2c0,0.8,0.2,1.5,0.6,2s1,0.8,1.8,0.8
			c0.4,0,0.8-0.1,1.2-0.3c0.4-0.2,0.6-0.4,0.8-0.6v-1.3h-2.3v-1C99.6,45.1,99.8,45.1,99.8,45.1z"/>
	</g>
</g>
<g>
	<path class="st0" d="M3.6,2.8v2.9H3.1v-2l0,0L2.4,5.5H1.8L1.1,3.7l0,0v2H0.5V2.8h0.7l0.8,2l0,0l0.8-2C2.8,2.8,3.6,2.8,3.6,2.8z"/>
	<path class="st0" d="M4.6,5.2H6v0.5H4V2.8h2v0.5H4.6V4h1.2v0.5H4.6V5.2z"/>
	<path class="st0" d="M8.3,2.8v0.5H7.5v2.4H6.9V3.3H6.1V2.8H8.3z"/>
</g>
<g>
	<path class="st0" d="M17,0.5h1v7.8h-1V4.9h-3.8v3.5h-1V0.5h1v3.4H17V0.5z"/>
	<path class="st0" d="M24.4,8.3l-0.7-2h-3.2l-0.7,2h-1.1l2.7-7.8h1.4l2.7,7.8H24.4z M20.8,5.4h2.6l-1.2-3.7h-0.1L20.8,5.4z"/>
	<path class="st0" d="M31.5,0.5h1v7.8h-1.1l-4.1-6h-0.1v6h-1V0.5h1.2l4,6h0.1V0.5z"/>
	<path class="st0" d="M39,6.4c0,0.7-0.2,1.2-0.7,1.5c-0.5,0.4-1.1,0.5-1.9,0.5c-0.9,0-1.6-0.2-2.1-0.7s-0.7-1.1-0.8-1.8h1
		c0,0.5,0.2,0.8,0.5,1.1c0.3,0.3,0.7,0.4,1.3,0.4c0.5,0,0.8-0.1,1.1-0.3s0.4-0.5,0.4-0.9s-0.1-0.7-0.4-0.9c-0.3-0.2-0.7-0.5-1.4-0.7
		s-1.3-0.5-1.7-0.9c-0.4-0.3-0.6-0.8-0.6-1.4s0.2-1.2,0.7-1.6s1-0.6,1.8-0.6s1.4,0.2,1.9,0.7c0.5,0.4,0.7,1,0.7,1.6h-1
		c0-0.4-0.2-0.7-0.4-1C37.1,1.1,36.7,1,36.2,1c-0.4,0-0.7,0.1-1,0.3s-0.4,0.5-0.4,0.8s0.1,0.6,0.4,0.8c0.3,0.2,0.7,0.4,1.3,0.6
		c0.8,0.3,1.4,0.6,1.8,1C38.8,5.3,39,5.8,39,6.4z"/>
	<path class="st0" d="M49.8,6c-0.2,0.7-0.5,1.3-1.1,1.8s-1.3,0.7-2.1,0.7c-1.1,0-2-0.4-2.7-1.1s-1-1.7-1-2.9s0.3-2.1,1-2.9
		s1.5-1.1,2.6-1.1c0.8,0,1.5,0.2,2.1,0.6s1,1.1,1.1,1.9h-1.1c-0.1-0.5-0.4-0.9-0.8-1.1c-0.4-0.3-0.8-0.4-1.4-0.4
		c-0.8,0-1.4,0.3-1.8,0.9c-0.5,0.6-0.7,1.3-0.7,2.2s0.2,1.6,0.7,2.2s1.1,0.8,1.9,0.8c0.5,0,1-0.1,1.4-0.4s0.7-0.6,0.8-1.1h1.1V6z"/>
	<path class="st0" d="M56.4,8.3h-1.1l-1.9-3.2l0,0h-1.5v3.2h-1V0.5h2.6c0.8,0,1.4,0.2,1.8,0.6c0.5,0.4,0.7,1,0.7,1.7
		c0,0.5-0.1,1-0.4,1.4c-0.3,0.4-0.7,0.7-1.2,0.8L56.4,8.3z M51.9,1.5v2.7h1.5c0.5,0,0.9-0.1,1.2-0.4c0.3-0.2,0.4-0.6,0.4-1
		s-0.1-0.8-0.4-1c-0.3-0.2-0.7-0.4-1.2-0.4h-1.5V1.5z"/>
	<path class="st0" d="M60.5,8.4c-1.1,0-2-0.4-2.8-1.1c-0.7-0.8-1.1-1.7-1.1-2.9c0-1.1,0.4-2.1,1.1-2.9c0.7-0.8,1.6-1.1,2.7-1.1
		c1.1,0,2,0.4,2.7,1.1c0.7,0.8,1.1,1.7,1.1,2.9c0,1.1-0.4,2.1-1.1,2.9C62.5,8.1,61.6,8.4,60.5,8.4z M60.5,7.4c0.8,0,1.5-0.3,2-0.9
		C63,6,63.3,5.3,63.3,4.4S63,2.9,62.5,2.3s-1.2-0.9-2-0.9s-1.5,0.3-2,0.9s-0.8,1.3-0.8,2.1S58,6,58.5,6.6C59,7.1,59.7,7.4,60.5,7.4z
		"/>
	<path class="st0" d="M66.6,0.5v7.8h-1.1V0.5H66.6z"/>
	<path class="st0" d="M73.1,6.4c0,0.7-0.2,1.2-0.7,1.5c-0.5,0.4-1.1,0.5-1.9,0.5c-0.9,0-1.6-0.2-2.1-0.7c-0.4-0.4-0.7-1-0.7-1.7h1
		c0,0.5,0.2,0.8,0.5,1.1c0.3,0.3,0.7,0.4,1.3,0.4c0.5,0,0.8-0.1,1.1-0.3C71.9,7,72,6.8,72,6.4s-0.1-0.7-0.4-0.9
		c-0.3-0.2-0.7-0.5-1.4-0.7c-0.7-0.2-1.3-0.5-1.7-0.9c-0.4-0.3-0.6-0.8-0.6-1.4s0.2-1.2,0.7-1.6s1-0.6,1.8-0.6s1.4,0.2,1.9,0.7
		C72.8,1.4,73,2,73,2.6h-1c0-0.4-0.2-0.7-0.4-1c-0.3-0.3-0.7-0.4-1.2-0.4c-0.4,0-0.7,0.1-1,0.3c-0.3,0.4-0.4,0.7-0.4,1
		s0.1,0.6,0.4,0.8s0.7,0.4,1.3,0.6c0.8,0.3,1.4,0.6,1.8,1C72.9,5.3,73.1,5.8,73.1,6.4z"/>
	<path class="st0" d="M75.2,7.4h4v0.9h-5V0.5h4.9v0.9h-3.9v2.4h3.5v0.9h-3.5V7.4z"/>
	<path class="st0" d="M85,0.5v0.9h-2.3v6.8h-1V1.5h-2.2v-1H85z"/>
</g>
<g>
	<path class="st0" d="M13.2,18.2h4v0.9h-5v-7.8h4.9v0.9h-3.9v2.4h3.5v0.9h-3.5C13.2,15.5,13.2,18.2,13.2,18.2z"/>
	<path class="st0" d="M19,18.2h4v1h-5.1v-7.8H19V18.2z"/>
	<path class="st0" d="M28.7,17.2c0,0.7-0.2,1.2-0.7,1.5c-0.5,0.4-1.1,0.5-1.9,0.5c-0.9,0-1.6-0.2-2.1-0.7s-0.7-1.1-0.8-1.8h1
		c0,0.5,0.2,0.8,0.5,1.1c0.3,0.3,0.7,0.4,1.3,0.4c0.5,0,0.8-0.1,1.1-0.3c0.3-0.2,0.4-0.5,0.4-0.9s-0.1-0.7-0.4-0.9
		c-0.3-0.2-0.7-0.5-1.4-0.7c-0.7-0.2-1.3-0.5-1.7-0.9c-0.4-0.3-0.6-0.8-0.6-1.4c0-0.6,0.2-1.2,0.7-1.6c0.5-0.4,1-0.6,1.8-0.6
		s1.4,0.2,1.9,0.7c0.5,0.4,0.7,1,0.7,1.6h-1c0-0.4-0.2-0.7-0.4-1c-0.3-0.3-0.7-0.4-1.2-0.4c-0.4,0-0.7,0.1-1,0.3s-0.4,0.5-0.4,0.8
		s0.1,0.6,0.4,0.8s0.7,0.4,1.3,0.6c0.8,0.3,1.4,0.6,1.8,1C28.5,16.1,28.7,16.6,28.7,17.2z"/>
	<path class="st0" d="M30.9,11.4v7.8h-1.1v-7.8C29.8,11.4,30.9,11.4,30.9,11.4z"/>
	<path class="st0" d="M33.3,18.2h4v0.9h-5v-7.8h4.9v0.9h-3.9v2.4h3.5v0.9h-3.5V18.2z"/>
	<path class="st0" d="M43.4,11.4c1.2,0,2.2,0.3,2.9,1s1,1.6,1,2.8s-0.3,2.2-1,2.9s-1.6,1.1-2.9,1.1h-2.3v-7.8
		C41.1,11.4,43.4,11.4,43.4,11.4z M43.4,18.2c0.9,0,1.7-0.3,2.1-0.8c0.5-0.5,0.7-1.3,0.7-2.2c0-0.9-0.2-1.6-0.7-2.1
		c-0.5-0.5-1.2-0.8-2.1-0.8h-1.2v5.9C42.2,18.2,43.4,18.2,43.4,18.2z"/>
	<path class="st0" d="M49.4,18.2h4v0.9h-5v-7.8h4.9v0.9h-3.9v2.4h3.5v0.9h-3.5V18.2z"/>
	<path class="st0" d="M60.9,15.1c1,0.3,1.5,1,1.5,2c0,0.7-0.2,1.2-0.7,1.6s-1.1,0.5-1.8,0.5h-2.8v-7.8h2.5c0.7,0,1.3,0.2,1.8,0.5
		c0.4,0.3,0.7,0.8,0.7,1.4C62.1,14.2,61.7,14.7,60.9,15.1L60.9,15.1z M58.1,12.3v2.4h1.5c0.5,0,0.8-0.1,1.1-0.3s0.4-0.5,0.4-0.9
		s-0.1-0.7-0.4-0.9c-0.3-0.2-0.6-0.3-1-0.3C59.7,12.3,58.1,12.3,58.1,12.3z M59.8,18.3c0.5,0,0.9-0.1,1.2-0.3c0.3-0.2,0.4-0.6,0.4-1
		s-0.1-0.8-0.4-1c-0.3-0.3-0.7-0.4-1.2-0.4h-1.6v2.7C58.2,18.3,59.8,18.3,59.8,18.3z"/>
	<path class="st0" d="M68.9,19.2h-1.1L65.9,16l0,0h-1.5v3.2h-1v-7.8H66c0.8,0,1.4,0.2,1.8,0.6c0.5,0.4,0.7,1,0.7,1.7
		c0,0.5-0.1,1-0.4,1.4s-0.7,0.7-1.2,0.8L68.9,19.2z M64.4,12.3V15h1.5c0.5,0,0.9-0.1,1.2-0.4c0.3-0.2,0.4-0.6,0.4-1s-0.1-0.8-0.4-1
		s-0.7-0.4-1.2-0.4L64.4,12.3L64.4,12.3z"/>
	<path class="st0" d="M74.9,19.2l-0.7-2H71l-0.7,2h-1.1l2.7-7.8h1.4l2.7,7.8H74.9z M71.3,16.3h2.6l-1.2-3.7h-0.1L71.3,16.3z"/>
	<path class="st0" d="M82.6,11.4v4.7c0,1-0.3,1.8-0.9,2.4s-1.3,0.8-2.2,0.8c-0.9,0-1.6-0.3-2.2-0.8s-0.9-1.3-0.9-2.4v-4.7h1.1v4.7
		c0,0.7,0.2,1.2,0.6,1.6s0.8,0.6,1.4,0.6s1.1-0.2,1.4-0.6c0.4-0.4,0.5-0.9,0.5-1.6v-4.7C81.4,11.4,82.6,11.4,82.6,11.4z"/>
	<path class="st0" d="M91.6,11.4h1L91,19.2h-1.5L88,13.3h-0.1l-1.6,5.8h-1.5l-1.6-7.8h1l1.3,6.5h0.1l1.6-6h1.3l1.6,6h0.1L91.6,11.4z
		"/>
</g>
<g>
	<path class="st0" d="M109.2,6.1c0,0.4,0.2,0.7,0.4,1c0.2,0.3,0.6,0.4,1,0.4s0.7-0.1,1-0.4s0.4-0.7,0.4-1.2V0.5h1V6
		c0,0.8-0.2,1.4-0.7,1.8c-0.4,0.4-1,0.6-1.7,0.6s-1.3-0.2-1.7-0.6c-0.4-0.4-0.6-1-0.7-1.7C108.2,6.1,109.2,6.1,109.2,6.1z"/>
	<path class="st0" d="M117.8,8.4c-1.1,0-2-0.4-2.8-1.1c-0.7-0.8-1.1-1.7-1.1-2.9c0-1.1,0.4-2.1,1.1-2.9s1.6-1.1,2.7-1.1
		s2,0.4,2.7,1.1c0.7,0.8,1.1,1.7,1.1,2.9c0,1.1-0.4,2.1-1.1,2.9C119.8,8.1,118.9,8.4,117.8,8.4z M117.8,7.4c0.8,0,1.5-0.3,2-0.9
		s0.8-1.3,0.8-2.1s-0.3-1.6-0.8-2.1s-1.2-0.9-2-0.9s-1.5,0.3-2,0.9S115,3.6,115,4.4s0.3,1.6,0.8,2.1C116.4,7.1,117,7.4,117.8,7.4z"
		/>
	<path class="st0" d="M127.6,0.5h1v7.8h-1V4.9h-3.8v3.5h-1V0.5h1v3.4h3.8C127.6,3.9,127.6,0.5,127.6,0.5z"/>
	<path class="st0" d="M135,8.3l-0.7-2h-3.2l-0.7,2h-1.1l2.7-7.8h1.4l2.7,7.8H135z M131.4,5.4h2.6l-1.2-3.7h-0.1L131.4,5.4z"/>
	<path class="st0" d="M142,0.5h1v7.8h-1.1l-4.1-6h-0.1v6h-1V0.5h1.2l4,6h0.1L142,0.5L142,0.5z"/>
</g>
<g>
	<path class="st0" d="M113.8,17.2c0,0.7-0.2,1.2-0.7,1.5c-0.5,0.4-1.1,0.5-1.9,0.5c-0.9,0-1.6-0.2-2.1-0.7s-0.7-1.1-0.8-1.8h1
		c0,0.5,0.2,0.8,0.5,1.1c0.3,0.3,0.7,0.4,1.3,0.4c0.5,0,0.8-0.1,1.1-0.3c0.3-0.2,0.4-0.5,0.4-0.9s-0.1-0.7-0.4-0.9
		c-0.3-0.2-0.7-0.5-1.4-0.7c-0.7-0.2-1.3-0.5-1.7-0.9c-0.4-0.3-0.6-0.8-0.6-1.4c0-0.6,0.2-1.2,0.7-1.6c0.5-0.4,1-0.6,1.8-0.6
		s1.4,0.2,1.9,0.7c0.5,0.4,0.7,1,0.7,1.6h-1c0-0.4-0.2-0.7-0.4-1c-0.3-0.3-0.7-0.4-1.2-0.4c-0.4,0-0.7,0.1-1,0.3s-0.4,0.5-0.4,0.8
		s0.1,0.6,0.4,0.8s0.7,0.4,1.3,0.6c0.8,0.3,1.4,0.6,1.8,1C113.6,16.1,113.8,16.6,113.8,17.2z"/>
	<path class="st0" d="M116.1,11.4v7.8H115v-7.8C115,11.4,116.1,11.4,116.1,11.4z"/>
	<path class="st0" d="M125.3,11.4v7.8h-1V13h-0.1l-2.3,5.6h-1.1l-2.3-5.6h-0.1v6.2h-1v-7.8h1.5l2.4,5.9h0.1l2.4-5.9
		C123.8,11.4,125.3,11.4,125.3,11.4z"/>
	<path class="st0" d="M130.3,19.3c-1.1,0-2-0.4-2.8-1.1c-0.7-0.8-1.1-1.7-1.1-2.9c0-1.1,0.4-2.1,1.1-2.9c0.7-0.8,1.6-1.1,2.7-1.1
		c1.1,0,2,0.4,2.7,1.1c0.7,0.8,1.1,1.7,1.1,2.9c0,1.1-0.4,2.1-1.1,2.9C132.3,18.9,131.4,19.3,130.3,19.3z M130.3,18.3
		c0.8,0,1.5-0.3,2-0.9s0.8-1.3,0.8-2.1c0-0.9-0.3-1.6-0.8-2.1c-0.5-0.6-1.2-0.9-2-0.9s-1.5,0.3-2,0.9c-0.5,0.6-0.8,1.3-0.8,2.1
		c0,0.9,0.3,1.6,0.8,2.1C128.8,18,129.5,18.3,130.3,18.3z"/>
	<path class="st0" d="M140.5,11.4h1v7.8h-1.1l-4.1-6h-0.1v6h-1v-7.8h1.2l4,6h0.1L140.5,11.4L140.5,11.4z"/>
	<path class="st0" d="M148.1,17.2c0,0.7-0.2,1.2-0.7,1.5c-0.5,0.4-1.1,0.5-1.9,0.5c-0.9,0-1.6-0.2-2.1-0.7s-0.7-1.1-0.8-1.8h1
		c0,0.5,0.2,0.8,0.5,1.1c0.3,0.3,0.7,0.4,1.3,0.4c0.5,0,0.8-0.1,1.1-0.3c0.3-0.2,0.4-0.5,0.4-0.9s-0.1-0.7-0.4-0.9
		c-0.3-0.2-0.7-0.5-1.4-0.7s-1.3-0.5-1.7-0.9c-0.4-0.3-0.6-0.8-0.6-1.4c0-0.6,0.2-1.2,0.7-1.6c0.5-0.4,1-0.6,1.8-0.6
		s1.4,0.2,1.9,0.7c0.5,0.4,0.7,1,0.7,1.6h-1c0-0.4-0.2-0.7-0.4-1c-0.3-0.3-0.7-0.4-1.2-0.4c-0.4,0-0.7,0.1-1,0.3s-0.4,0.5-0.4,0.8
		s0.1,0.6,0.4,0.8c0.3,0.2,0.7,0.4,1.3,0.6c0.8,0.3,1.4,0.6,1.8,1C147.9,16.1,148.1,16.6,148.1,17.2z"/>
</g>
<g>
	<path class="st0" d="M96.3,5.7h-0.6l-0.6-1.1h-0.4v1.1h-0.5V2.8h1.1c0.3,0,0.5,0.1,0.7,0.2c0.2,0.2,0.3,0.4,0.3,0.7
		c0,0.2,0,0.4-0.1,0.5S96,4.5,95.8,4.5L96.3,5.7z M94.7,3.3v0.8h0.5c0.1,0,0.3,0,0.3-0.1c0.1-0.1,0.1-0.2,0.1-0.3s0-0.2-0.1-0.3
		s-0.2-0.1-0.3-0.1C95.2,3.3,94.7,3.3,94.7,3.3z"/>
	<path class="st0" d="M97,5.2h1.4v0.5h-2V2.8h1.9v0.5H97V4h1.2v0.5H97V5.2z"/>
	<path class="st0" d="M99.8,4.1h1.3v1.6h-0.4l-0.1-0.3l0,0c-0.1,0.1-0.2,0.2-0.3,0.2c-0.1,0.1-0.3,0.1-0.5,0.1c-0.4,0-0.7-0.1-1-0.4
		c-0.2-0.3-0.4-0.6-0.4-1c0-0.5,0.1-0.8,0.4-1.1s0.6-0.4,1-0.4s0.7,0.1,0.9,0.3c0.2,0.2,0.3,0.4,0.4,0.7h-0.6c0-0.1-0.1-0.2-0.2-0.3
		s-0.3-0.1-0.4-0.1c-0.3,0-0.5,0.1-0.6,0.3s-0.2,0.4-0.2,0.7c0,0.3,0.1,0.5,0.2,0.7s0.4,0.3,0.6,0.3c0.3,0,0.5-0.1,0.7-0.3V4.6h-0.8
		V4.1z"/>
	<path class="st0" d="M102.2,2.8v2.9h-0.6V2.8H102.2z"/>
	<path class="st0" d="M103.2,5.2h1.4v0.5h-2V2.8h1.9v0.5h-1.4V4h1.2v0.5h-1.2L103.2,5.2L103.2,5.2z"/>
</g>
<g>
	<path class="st0" d="M5.4,28.1h1.1v8.5H5.6l-0.2-0.9H5.3c-0.4,0.6-1.1,1-1.9,1s-1.4-0.3-2-0.9c-0.5-0.6-0.8-1.3-0.8-2.3
		S1,32,1.5,31.4s1.2-0.9,2-0.9c0.9,0,1.5,0.3,1.9,1V28.1z M2.3,35.2c0.3,0.4,0.8,0.6,1.3,0.6s1-0.2,1.3-0.6c0.3-0.4,0.5-0.9,0.5-1.6
		c0-0.6-0.2-1.2-0.5-1.6c-0.3-0.4-0.8-0.6-1.3-0.6s-1,0.2-1.3,0.6c-0.3,0.4-0.5,0.9-0.5,1.6C1.8,34.3,1.9,34.8,2.3,35.2z"/>
	<path class="st0" d="M10.8,36.8c-0.9,0-1.6-0.3-2.2-0.9c-0.6-0.6-0.9-1.3-0.9-2.2s0.3-1.6,0.9-2.2c0.6-0.6,1.3-0.9,2.2-0.9
		s1.6,0.3,2.2,0.9c0.6,0.6,0.9,1.3,0.9,2.2s-0.3,1.7-0.9,2.2C12.4,36.5,11.6,36.8,10.8,36.8z M10.7,35.8c0.6,0,1.1-0.2,1.4-0.6
		c0.4-0.4,0.6-0.9,0.6-1.5c0-0.6-0.2-1.1-0.6-1.5c-0.4-0.4-0.8-0.6-1.4-0.6c-0.6,0-1,0.2-1.4,0.6C9,32.5,8.8,33,8.8,33.6
		c0,0.6,0.2,1.1,0.5,1.5C9.7,35.6,10.2,35.8,10.7,35.8z"/>
	<path class="st0" d="M19.4,36.7v-5.6h-1.5v-0.9h0.7c0.6,0,0.9-0.3,0.9-0.9V29h1v7.7H19.4z"/>
	<path class="st0" d="M27.3,35.8c-0.5,0.7-1.2,1-2.1,1s-1.6-0.3-2.1-1s-0.8-1.7-0.8-3s0.3-2.3,0.8-2.9c0.5-0.7,1.2-1,2.1-1
		s1.6,0.3,2.1,1s0.8,1.7,0.8,3C28.1,34.1,27.8,35.1,27.3,35.8z M24,35c0.3,0.5,0.7,0.7,1.2,0.7s0.9-0.2,1.2-0.7
		c0.3-0.5,0.4-1.2,0.4-2.2s-0.2-1.7-0.4-2.2c-0.3-0.5-0.7-0.8-1.2-0.8S24.3,30,24,30.5c-0.3,0.5-0.4,1.2-0.4,2.2
		C23.6,33.8,23.7,34.5,24,35z"/>
	<path class="st0" d="M31.9,37.9c0.2,0.2,0.4,0.3,0.7,0.3c0.2,0,0.4-0.1,0.5-0.2c0.1-0.1,0.2-0.3,0.2-0.6v-6.8h1.1v6.9
		c0,0.5-0.1,0.9-0.4,1.2c-0.3,0.3-0.7,0.4-1.1,0.4c-0.5,0-0.9-0.1-1.2-0.4L31.9,37.9z M34.2,29.5c-0.1,0.1-0.3,0.2-0.5,0.2
		s-0.4-0.1-0.5-0.2C33.1,29.4,33,29.2,33,29s0.1-0.4,0.2-0.5c0.1-0.1,0.3-0.2,0.5-0.2s0.4,0.1,0.5,0.2s0.2,0.3,0.2,0.5
		S34.4,29.4,34.2,29.5z"/>
	<path class="st0" d="M40.5,35.2c0,0.2,0,0.4,0.1,0.5s0.2,0.1,0.4,0.1v0.9h-0.2c-0.6,0-1-0.3-1.2-0.8c-0.2,0.3-0.5,0.5-0.9,0.7
		s-0.8,0.3-1.2,0.3c-0.6,0-1.1-0.1-1.4-0.4c-0.4-0.3-0.6-0.7-0.6-1.2c0-0.6,0.2-1.1,0.7-1.4c0.5-0.3,1.1-0.5,2-0.6l1.1-0.1v-0.1
		c0-0.5-0.1-0.8-0.3-1.1c-0.2-0.3-0.5-0.4-0.9-0.4s-0.7,0.1-0.9,0.3c-0.2,0.2-0.3,0.5-0.4,0.8h-1c0-0.6,0.3-1.1,0.7-1.4
		c0.4-0.4,1-0.6,1.6-0.6c0.7,0,1.2,0.2,1.7,0.6c0.4,0.4,0.6,1,0.6,1.7v2.2H40.5z M37.8,35.9c0.5,0,0.9-0.1,1.2-0.4
		c0.3-0.3,0.5-0.7,0.5-1.2v-0.4l-1,0.1c-0.6,0-1,0.2-1.3,0.4s-0.5,0.5-0.5,0.8s0.1,0.5,0.3,0.6C37.2,35.8,37.5,35.9,37.8,35.9z"/>
	<path class="st0" d="M45.1,30.5c0.6,0,1.2,0.2,1.6,0.7c0.4,0.4,0.6,1.1,0.6,1.9v3.6h-1.1v-3.4c0-0.6-0.1-1-0.4-1.3
		c-0.3-0.3-0.6-0.4-1.1-0.4c-0.4,0-0.8,0.1-1,0.4c-0.3,0.3-0.4,0.7-0.4,1.3v3.4h-1.1v-6H43l0.2,0.8h0.1
		C43.7,30.8,44.3,30.5,45.1,30.5z"/>
	<path class="st0" d="M51.7,32.5H56v0.9h-4.3V32.5z"/>
	<path class="st0" d="M61.6,35.8h3.1v0.9h-4.5V36l3-4.4v-0.1h-2.9v-0.9h4.3v0.7L61.6,35.8L61.6,35.8z"/>
	<path class="st0" d="M70.4,35.2c0,0.2,0,0.4,0.1,0.5s0.2,0.1,0.4,0.1v0.9h-0.2c-0.6,0-1-0.3-1.2-0.8c-0.2,0.3-0.5,0.5-0.9,0.7
		s-0.8,0.3-1.2,0.3c-0.6,0-1.1-0.1-1.4-0.4c-0.4-0.3-0.6-0.7-0.6-1.2c0-0.6,0.2-1.1,0.7-1.4c0.5-0.3,1.1-0.5,2-0.6l1.1-0.1v-0.1
		c0-0.5-0.1-0.8-0.3-1.1c-0.2-0.3-0.5-0.4-0.9-0.4s-0.7,0.1-0.9,0.3c-0.2,0.2-0.3,0.5-0.4,0.8h-1c0-0.6,0.3-1.1,0.7-1.4
		c0.4-0.4,1-0.6,1.6-0.6c0.7,0,1.2,0.2,1.7,0.6s0.6,1,0.6,1.7v2.2H70.4z M67.6,35.9c0.5,0,0.9-0.1,1.2-0.4s0.5-0.7,0.5-1.2v-0.4
		l-1,0.1c-0.6,0-1,0.2-1.3,0.4s-0.5,0.5-0.5,0.8s0.1,0.5,0.3,0.6C67.1,35.8,67.3,35.9,67.6,35.9z"/>
	<path class="st0" d="M76.4,36.7v-5.6h-1.5v-0.9h0.7c0.6,0,0.9-0.3,0.9-0.9V29h1v7.7H76.4z"/>
	<path class="st0" d="M82.4,33.5c-1.1,0.7-1.7,1.4-1.8,2.1h3.7v1h-5v-0.4c0-1.3,0.7-2.4,2.1-3.3c0.8-0.5,1.3-0.8,1.5-1
		c0.3-0.3,0.4-0.6,0.4-0.9c0-0.4-0.1-0.7-0.4-0.9c-0.2-0.2-0.6-0.3-1-0.3c-0.5,0-0.9,0.2-1.1,0.5s-0.4,0.7-0.4,1.2h-1.1
		c0-0.4,0.1-0.8,0.3-1.2c0.2-0.4,0.5-0.7,0.9-1s0.9-0.4,1.5-0.4c0.7,0,1.3,0.2,1.8,0.6s0.7,0.9,0.7,1.6c0,0.5-0.2,1-0.5,1.3
		C83.5,32.7,83.1,33.1,82.4,33.5z"/>
	<path class="st0" d="M88.1,37.9c0.2,0.2,0.4,0.3,0.7,0.3c0.2,0,0.4-0.1,0.5-0.2c0.1-0.1,0.2-0.3,0.2-0.6v-6.8h1.1v6.9
		c0,0.5-0.1,0.9-0.4,1.2s-0.7,0.4-1.1,0.4c-0.5,0-0.9-0.1-1.2-0.4L88.1,37.9z M90.5,29.5c-0.1,0.1-0.3,0.2-0.5,0.2s-0.4-0.1-0.5-0.2
		s-0.2-0.3-0.2-0.5s0.1-0.4,0.2-0.5s0.3-0.2,0.5-0.2s0.4,0.1,0.5,0.2s0.2,0.3,0.2,0.5S90.7,29.4,90.5,29.5z"/>
	<path class="st0" d="M96.8,35.2c0,0.2,0,0.4,0.1,0.5s0.2,0.1,0.4,0.1v0.9h-0.2c-0.6,0-1-0.3-1.2-0.8c-0.2,0.3-0.5,0.5-0.9,0.7
		s-0.8,0.3-1.2,0.3c-0.6,0-1.1-0.1-1.4-0.4c-0.4-0.3-0.6-0.7-0.6-1.2c0-0.6,0.2-1.1,0.7-1.4c0.5-0.3,1.1-0.5,2-0.6l1.1-0.1v-0.1
		c0-0.5-0.1-0.8-0.3-1.1c-0.2-0.3-0.5-0.4-0.9-0.4s-0.7,0.1-0.9,0.3c-0.2,0.2-0.3,0.5-0.4,0.8h-1c0-0.6,0.3-1.1,0.7-1.4
		c0.4-0.4,1-0.6,1.6-0.6c0.7,0,1.2,0.2,1.7,0.6s0.6,1,0.6,1.7v2.2H96.8z M94,35.9c0.5,0,0.9-0.1,1.2-0.4s0.5-0.7,0.5-1.2v-0.4
		l-1,0.1c-0.6,0-1,0.2-1.3,0.4C93.1,34.5,93,34.7,93,35s0.1,0.5,0.3,0.6C93.5,35.8,93.7,35.9,94,35.9z"/>
	<path class="st0" d="M101.4,30.5c0.6,0,1.2,0.2,1.6,0.7c0.4,0.4,0.6,1.1,0.6,1.9v3.6h-1.1v-3.4c0-0.6-0.1-1-0.4-1.3
		c-0.3-0.3-0.6-0.4-1.1-0.4c-0.4,0-0.8,0.1-1,0.4c-0.2,0.3-0.4,0.7-0.4,1.3v3.4h-1.1v-6h0.8l0.2,0.8h0.1
		C100,30.8,100.6,30.5,101.4,30.5z"/>
</g>
</svg>
