<?xml version="1.0" encoding="utf-8"?>
<!-- Generator: Adobe Illustrator 19.1.0, SVG Export Plug-In . SVG Version: 6.00 Build 0)  -->
<svg version="1.1" id="Laag_1" xmlns="http://www.w3.org/2000/svg" xmlns:xlink="http://www.w3.org/1999/xlink" x="0px" y="0px"
	 viewBox="-354 484.9 169.4 67.9" style="enable-background:new -354 484.9 169.4 67.9;" xml:space="preserve">
<style type="text/css">
	.st0{fill:#FFFFFF;}
</style>
<g>
	<path class="st0" d="M-327.8,517.2c0,0-1.3-0.1-4.4-0.1s-4.4,0.1-4.4,0.1l0.4-0.7c0.7-1.5,1-1.9,1-12.3h-11.4
		c0,10.5,0.2,10.8,1,12.3l0.4,0.7c0,0-1.3-0.1-4.4-0.1s-4.4,0.1-4.4,0.1l0.4-0.7c0.8-1.6,1-1.8,1-14.2c0-11.9-0.2-12.1-1-13.8
		l-0.3-0.6c0,0,1.2,0.1,4.4,0.1c3.2,0,4.3-0.1,4.3-0.1l-0.3,0.7c-0.8,1.4-1,1.8-1,11.5h11.5c0-9.6-0.2-10-1-11.5l-0.5-0.7
		c0,0,1.2,0.1,4.4,0.1c3.2,0,4.3-0.1,4.3-0.1l-0.4,0.7c-0.8,1.5-1,1.8-1,14.2c0,11.9,0.2,12.1,1,13.8L-327.8,517.2z M-303.4,516.3
		v0.9H-322v-23.4h18.5v13.5h-6.5c-2.7,0-3.6,0.5-3.6,0.5s0-0.7,0-2.2s0-2.1,0-2.1s0.9,0.5,3.6,0.5h1.4v-6.7h-7.8v16.6h6.3
		c5,0,5.7-1.1,7.2-2.9C-302.9,511-303.2,513.1-303.4,516.3z M-287.8,496.9c-1.8,0-3.2,1-3.2,1v8.2c0,8.9,0.5,9.3,1.1,10.4l0.4,0.7
		c0,0-1.4-0.1-4.4-0.1c-3.1,0-4.4,0.1-4.4,0.1l0.4-0.7c0.7-1.2,1-1.5,1-10.5v-1.6c0-8.8-0.4-11.2-0.4-11.2l5.4,1.6
		c0.5-0.2,2.3-1.6,5.7-1.6c2.1,0,3.5,0.7,3.5,0.7s-0.1,1-0.1,3.1c0,2.3,0.1,3.4,0.1,3.4C-283.8,498.3-285.1,496.9-287.8,496.9z
		 M-275.8,517.2c-3.1,0-4.4,0.1-4.4,0.1l0.4-0.7c0.8-1.4,1-2.2,1-10.5v-8.4h-2.5c1.8-1.6,2.5-2.7,2.5-5.4v-7.4h11.4c0,0,0,0.7,0,2.1
		c0,1.3,0,2.1,0,2.1s-0.9-0.9-4-0.9h-1.5v6.2h1.4c3.1,0,4-0.5,4-0.5s0,0.7,0,2.2s0,2.1,0,2.1s-1-0.5-4-0.5h-1.4v8
		c0,7.9,0.2,9,1.1,10.6l0.4,0.7C-271.4,517.2-272.6,517.2-275.8,517.2z"/>
	<g>
		<path class="st0" d="M-265.2,501.5c0-0.6,0.1-1.3,0.2-1.8c0.2-0.6,0.4-1.1,0.8-1.7s0.9-1.1,1.5-1.5s1.4-0.7,2.4-1
			c1-0.2,2.1-0.4,3.4-0.4c1.2,0,2.3,0.1,3.4,0.3s1.8,0.4,2.3,0.6l0.7,0.3c-0.1,0.5-0.1,1.3-0.1,2.4l0.1,2.7
			c-0.9-1.3-1.8-2.2-2.7-2.8c-0.9-0.6-2.1-0.9-3.5-0.9c-2.8,0-4.1,1-4.1,3c0,0.7,0.2,1.3,0.6,1.8s1,0.9,1.8,1.3l3.6,1.9
			c0.5,0.2,0.9,0.5,1.1,0.6s0.6,0.4,1.1,0.8c0.4,0.4,0.8,0.7,1,1.1c0.3,0.4,0.5,0.8,0.7,1.4s0.3,1.2,0.3,1.9c0,2-0.7,3.4-2,4.4
			c-1.4,1-3.2,1.5-5.6,1.5c-0.8,0-1.5,0-2.2-0.1s-1.3-0.2-1.7-0.3c-0.5-0.1-0.9-0.2-1.2-0.3c-0.3-0.1-0.6-0.2-0.7-0.3l-0.2-0.1
			c0.1-0.5,0.1-1.3,0.1-2.4l-0.1-2.6c0.9,1.2,1.8,2.2,2.6,2.8c0.9,0.6,1.9,0.9,3.2,0.9c2.5,0,3.8-0.9,3.8-2.6c0-0.7-0.2-1.3-0.7-1.8
			s-1.3-1-2.4-1.6l-2.8-1.5c-1.5-0.8-2.6-1.6-3.3-2.5C-264.6,504.1-265.2,502.9-265.2,501.5z"/>
		<path class="st0" d="M-247.1,498.2c0.1,0,0.2-0.1,0.5-0.4c0.3-0.2,0.6-0.6,1.1-1.2s1-1.2,1.4-1.8c0.5-0.6,0.9-1.3,1.3-2
			c0.4-0.7,0.7-1.2,0.9-1.5l0.2-0.5h1.9v4.8h2.6c1,0,1.8,0,2.5-0.1s1.1-0.1,1.3-0.2l0.3-0.1c0,0.4,0,0.9,0,1.7v1.6
			c-0.4-0.3-1.8-0.4-4-0.4h-2.8v12.4c0,1.4,0.2,2.5,0.5,3.1c0.5,0.9,1.5,1.4,2.9,1.4c0.4,0,0.8,0,1.2-0.1s0.7-0.2,1-0.3
			s0.5-0.2,0.7-0.3s0.3-0.2,0.4-0.3l0.1-0.1c0,0.2,0,0.4-0.1,0.6c-0.1,0.2-0.2,0.5-0.4,0.9s-0.5,0.7-0.9,1c-0.4,0.3-0.9,0.6-1.7,0.8
			c-0.7,0.2-1.6,0.3-2.6,0.3c-2.3,0-3.9-0.7-4.8-2c-0.4-0.5-0.6-1.1-0.7-1.9c-0.1-0.8-0.2-1.8-0.2-3.2c0-2.7,0-5.1,0-7.1
			s0.1-3.4,0.1-4.1v-1H-247.1z"/>
	</g>
</g>
<path class="st0" d="M-354,530.3c0.8,0,2.2,0.1,4,0.1l4.4-0.1c-0.8,0.5-1.2,1.2-1.2,2.1c0,0.5,0.1,1.1,0.3,1.8
	c0.2,0.8,0.6,2.2,1.2,4.2l2.6,8.9l0.6,2.4c0.9-1.4,1.9-4.1,3.2-8.1s1.9-6.9,1.9-8.8c0-1.2-0.4-2-1.1-2.5c0.9,0,2.1,0.1,3.7,0.1
	l3.4-0.1c-0.6,0.5-1.1,1.2-1.5,2.1c-0.2,0.4-0.5,1.4-0.9,2.9c-0.4,1.5-0.8,3.1-1.3,4.7c-0.4,1.6-1.1,3.6-2,5.8
	c-0.9,2.2-1.9,4.3-3,6.1c-0.7,0-1.7-0.1-2.9-0.1l-3.3,0.1l-4.3-13c-1.2-3.6-2-5.9-2.4-6.7C-353,531.4-353.5,530.7-354,530.3z"/>
<path class="st0" d="M-329.8,546.1c0-0.9,0.1-1.7,0.3-2.4c0.2-0.7,0.5-1.3,0.9-1.8s0.8-0.9,1.4-1.2c0.6-0.3,1.1-0.6,1.6-0.8
	s1.1-0.3,1.8-0.4c0.7-0.1,1.3-0.2,1.8-0.2s1.1,0,1.7,0c0.7,0,1.4,0,2.1,0.1c0.7,0,1.2,0.1,1.5,0.1l0.5,0.1v-1.7c0-0.6,0-1.1,0-1.5
	c0-0.4-0.1-0.8-0.2-1.2c-0.1-0.4-0.3-0.8-0.6-1.1c-0.8-0.9-2.1-1.3-4.2-1.3c-2.9,0-5.1,0.9-6.3,2.7c0.1-0.6,0.1-1.3,0.1-2.2
	l-0.1-2.1c0.2-0.1,0.4-0.2,0.7-0.3c0.3-0.1,1.1-0.3,2.4-0.5c1.2-0.2,2.6-0.3,4.1-0.3c3.6,0,6.1,0.7,7.3,2.2c0.3,0.4,0.6,0.8,0.8,1.2
	c0.2,0.4,0.3,0.9,0.4,1.5c0.1,0.6,0.1,1.1,0.1,1.5c0,0.4,0,1,0,1.8c0,0.1,0,1,0,2.5c0,1.6,0,3.2,0,4.7c0,1.4,0.1,2.5,0.2,3.3
	c0.1,0.8,0.4,1.5,0.8,2.1l0.4,0.7l-5.8,1l0.2-4.5c-0.8,3.1-3,4.7-6.7,4.7c-1.1,0-2.1-0.1-3-0.4s-1.6-0.6-2.1-1s-0.9-0.9-1.3-1.5
	c-0.3-0.6-0.6-1.1-0.7-1.7C-329.8,547.3-329.8,546.7-329.8,546.1z M-325.2,545.7c0,1.3,0.4,2.3,1.2,2.9c0.8,0.7,1.8,1,3.1,1
	c0.7,0,1.4-0.1,2-0.2c0.6-0.1,1.1-0.3,1.4-0.5s0.6-0.4,0.8-0.6c0.2-0.2,0.4-0.4,0.4-0.5l0.1-0.2V542c-0.6-0.1-1.7-0.1-3.2-0.1
	c-0.6,0-1.1,0-1.4,0c-0.4,0-0.9,0.1-1.5,0.3c-0.6,0.1-1.1,0.4-1.5,0.6c-0.4,0.2-0.7,0.7-1,1.2C-325,544.4-325.2,545-325.2,545.7z"/>
<path class="st0" d="M-305.5,552l0.4-0.7c0.3-0.5,0.5-1,0.6-1.5s0.2-1.3,0.3-2.6c0.1-1.3,0.1-3.2,0.1-5.7v-8.6
	c0-3.3-0.1-5.5-0.2-6.7c-0.1-1.1-0.4-2.1-0.8-2.8l-0.4-0.7l6-1c-0.1,2.8-0.1,5.5-0.1,8.1v11.9c0,3.5,0.1,5.8,0.2,6.9
	s0.4,2.1,0.8,2.8l0.4,0.7c-0.7,0-1.9-0.1-3.6-0.1H-305.5z M-298.8,541c0.2-0.1,0.5-0.3,0.9-0.6c0.4-0.3,1.1-0.7,1.9-1.3
	c0.8-0.6,1.5-1.3,2.2-1.9c0.7-0.6,1.3-1.5,1.8-2.4c0.5-0.9,0.8-1.8,0.8-2.6c0-0.8-0.3-1.4-1-1.8c1.1,0,2.3,0.1,3.7,0.1l4.5-0.1
	c-0.7,0.4-1.3,0.9-1.8,1.4c-0.4,0.4-0.8,1-1.3,1.7s-0.9,1.5-1.3,2.1c-0.4,0.7-1.1,1.4-2,2.3c-0.9,0.9-2.1,1.7-3.4,2.4
	c0.1,0,0.2,0.1,0.3,0.1c0.1,0,0.4,0.1,0.7,0.3c0.4,0.2,0.7,0.4,1.1,0.6c0.3,0.2,0.7,0.6,1.2,1c0.5,0.4,0.9,0.9,1.2,1.4
	c0.7,0.9,1.4,2.2,2.2,3.8c0.8,1.6,1.4,2.7,1.7,3.1c0.6,0.7,1.1,1.2,1.6,1.4c-1.1,0-2.3,0-3.7,0h-3.2c0-0.1,0-0.2,0-0.4
	s-0.1-0.5-0.2-1.1c-0.1-0.5-0.3-1.1-0.4-1.6c-0.1-0.5-0.4-1.1-0.7-1.8s-0.7-1.3-1.1-1.8c-0.4-0.6-0.9-1.1-1.5-1.6
	c-0.5-0.5-1-0.9-1.4-1.2s-0.9-0.6-1.3-0.8c-0.4-0.3-0.8-0.4-0.9-0.5C-298.3,541.1-298.7,541-298.8,541z"/>
<path class="st0" d="M-281.8,546.1c0-0.9,0.1-1.7,0.3-2.4c0.2-0.7,0.5-1.3,0.9-1.8s0.8-0.9,1.4-1.2c0.6-0.3,1.1-0.6,1.6-0.8
	s1.1-0.3,1.8-0.4c0.7-0.1,1.3-0.2,1.8-0.2s1.1,0,1.7,0c0.7,0,1.4,0,2.1,0.1c0.7,0,1.2,0.1,1.5,0.1l0.5,0.1v-1.7c0-0.6,0-1.1,0-1.5
	c0-0.4-0.1-0.8-0.2-1.2c-0.1-0.4-0.3-0.8-0.6-1.1c-0.8-0.9-2.1-1.3-4.2-1.3c-2.9,0-5.1,0.9-6.3,2.7c0.1-0.6,0.1-1.3,0.1-2.2
	l-0.1-2.1c0.2-0.1,0.4-0.2,0.7-0.3c0.3-0.1,1.1-0.3,2.4-0.5c1.2-0.2,2.6-0.3,4.1-0.3c3.6,0,6.1,0.7,7.3,2.2c0.3,0.4,0.6,0.8,0.8,1.2
	c0.2,0.4,0.3,0.9,0.4,1.5c0.1,0.6,0.1,1.1,0.1,1.5c0,0.4,0,1,0,1.8c0,0.1,0,1,0,2.5c0,1.6,0,3.2,0,4.7c0,1.4,0.1,2.5,0.2,3.3
	c0.1,0.8,0.4,1.5,0.8,2.1l0.4,0.7l-5.8,1l0.2-4.5c-0.8,3.1-3,4.7-6.7,4.7c-1.1,0-2.1-0.1-3-0.4s-1.6-0.6-2.1-1s-0.9-0.9-1.3-1.5
	c-0.3-0.6-0.6-1.1-0.7-1.7C-281.8,547.3-281.8,546.7-281.8,546.1z M-277.1,545.7c0,1.3,0.4,2.3,1.2,2.9c0.8,0.7,1.8,1,3.1,1
	c0.7,0,1.4-0.1,2-0.2c0.6-0.1,1.1-0.3,1.4-0.5s0.6-0.4,0.8-0.6c0.2-0.2,0.4-0.4,0.4-0.5l0.1-0.2V542c-0.6-0.1-1.7-0.1-3.2-0.1
	c-0.6,0-1.1,0-1.4,0c-0.4,0-0.9,0.1-1.5,0.3c-0.6,0.1-1.1,0.4-1.5,0.6c-0.4,0.2-0.7,0.7-1,1.2C-277,544.4-277.1,545-277.1,545.7z"/>
<path class="st0" d="M-257.3,552l0.4-0.7c0.3-0.5,0.5-0.9,0.6-1.2c0.1-0.3,0.2-1.2,0.3-2.5c0.1-1.4,0.1-3.4,0.1-6v-1.2
	c0-3-0.1-5.1-0.2-6.2c-0.2-1.1-0.4-2-0.8-2.6l-0.4-0.6l5.9-0.9l-0.2,4.8c0.8-3.3,3.1-4.9,6.9-4.9c3.1,0,5.2,0.9,6.3,2.8
	c0.5,0.8,0.8,1.7,0.9,2.8c0.1,1.1,0.2,2.8,0.2,5.1v1.1c0,2.7,0.1,4.7,0.2,6c0.1,1.4,0.2,2.2,0.3,2.5s0.3,0.7,0.6,1.2l0.4,0.7
	c-0.7,0-1.9-0.1-3.7-0.1l-3.7,0.1l0.4-0.7c0.3-0.5,0.5-0.9,0.6-1.2s0.2-1.2,0.3-2.5c0.1-1.4,0.1-3.4,0.1-6c0-2.2-0.1-3.9-0.2-4.9
	c-0.1-1-0.3-1.8-0.7-2.3c-0.8-1.1-2-1.7-3.8-1.7c-0.8,0-1.5,0.1-2.1,0.3c-0.6,0.2-1.1,0.4-1.4,0.6c-0.3,0.2-0.6,0.5-0.8,0.7
	s-0.4,0.4-0.4,0.6l-0.1,0.2v6.5c0,2.7,0,4.7,0.1,6c0.1,1.4,0.2,2.2,0.3,2.5s0.3,0.7,0.6,1.2l0.4,0.7c-0.7,0-1.9-0.1-3.6-0.1
	L-257.3,552z"/>
<path class="st0" d="M-232.3,533c0.1,0,0.2-0.1,0.5-0.4c0.3-0.2,0.6-0.6,1.1-1.2c0.5-0.6,1-1.2,1.4-1.8c0.5-0.6,0.9-1.3,1.3-2
	s0.7-1.2,0.9-1.5l0.2-0.5h1.9v4.8h2.6c1,0,1.8,0,2.5-0.1c0.7-0.1,1.1-0.1,1.3-0.2l0.3-0.1c0,0.4,0,0.9,0,1.7v1.6
	c-0.4-0.3-1.8-0.4-4-0.4h-2.6v12.4c0,1.4,0.2,2.5,0.5,3.1c0.5,0.9,1.5,1.4,2.9,1.4c0.4,0,0.8,0,1.2-0.1s0.7-0.2,1-0.3
	c0.3-0.1,0.5-0.2,0.7-0.3c0.2-0.1,0.3-0.2,0.4-0.3l0.1-0.1c0,0.2,0,0.4-0.1,0.6c-0.1,0.2-0.2,0.5-0.4,0.9c-0.2,0.4-0.5,0.7-0.9,1
	s-0.9,0.6-1.7,0.8c-0.7,0.2-1.6,0.3-2.6,0.3c-2.3,0-3.9-0.7-4.8-2c-0.4-0.5-0.6-1.1-0.7-1.9c-0.1-0.8-0.2-1.8-0.2-3.2
	c0-2.7,0-5.1,0-7.1s0.1-3.4,0.1-4.1v-1C-229.4,533-232.3,533-232.3,533z"/>
<path class="st0" d="M-215.3,531l6.2-1c-0.2,1.5-0.4,5-0.4,10.5v4.2c0,1.3,0,2.2,0.1,2.9s0.1,1.3,0.3,1.8c0.1,0.5,0.3,0.9,0.6,1.2
	c0.2,0.3,0.6,0.5,1,0.7c-0.1,0.1-0.2,0.1-0.3,0.2c-0.1,0.1-0.5,0.2-1.1,0.4c-0.6,0.1-1.3,0.2-2,0.2s-1.2-0.1-1.7-0.2
	c-0.4-0.2-0.7-0.4-0.9-0.7c-0.2-0.3-0.3-0.7-0.4-1s-0.1-0.8-0.1-1.3c0-0.7,0-2.1,0.1-4.1c0-2,0.1-3.5,0.1-4.4c0-2.1,0-3.8-0.1-5
	s-0.2-2-0.3-2.5s-0.3-0.9-0.6-1.3L-215.3,531z M-215.3,524.9l3.6-3.2l3.7,3.2l-3.7,3.1L-215.3,524.9z"/>
<path class="st0" d="M-203.6,541.6c0-1.4,0.1-2.6,0.3-3.8c0.2-1.1,0.5-2.1,0.9-2.9c0.4-0.8,0.8-1.5,1.4-2.1c0.5-0.6,1.1-1.1,1.7-1.5
	c0.6-0.4,1.2-0.7,1.9-0.9c0.7-0.2,1.3-0.4,1.9-0.5c0.6-0.1,1.2-0.1,1.9-0.1c2.7,0,4.9,0.5,6.5,1.6c1.7,1,2.5,2.6,2.5,4.7
	c0,2.2-0.8,3.9-2.3,5c-1.5,1.1-3.9,1.6-7.2,1.6c-0.8,0-1.6,0-2.4-0.1c-0.8-0.1-1.4-0.1-1.8-0.2l-0.6-0.1c0,0.7,0.1,1.3,0.2,1.9
	c0.1,0.6,0.3,1.3,0.6,1.9c0.3,0.6,0.7,1.2,1.2,1.7s1.2,0.9,2,1.2s1.8,0.5,2.9,0.5c1.1,0,2-0.1,2.9-0.3s1.6-0.4,2.1-0.7
	s0.9-0.5,1.2-0.8c0.3-0.3,0.6-0.5,0.7-0.7l0.2-0.3c0,0.7-0.2,1.4-0.5,2.1c-0.3,0.6-0.8,1.2-1.4,1.7c-0.6,0.5-1.5,0.9-2.6,1.2
	s-2.4,0.4-3.8,0.4c-1.8,0-3.5-0.3-4.8-0.8c-1.4-0.5-2.5-1.3-3.3-2.3s-1.4-2.1-1.8-3.4C-203.4,544.6-203.6,543.2-203.6,541.6z
	 M-198.8,539.8c0.9,0.2,2.3,0.4,4.4,0.4c0.5,0,0.9,0,1.3-0.1c0.4,0,0.8-0.1,1.3-0.3s0.9-0.4,1.3-0.6c0.3-0.3,0.6-0.6,0.9-1.1
	c0.2-0.5,0.4-1.1,0.4-1.8c0-2.6-1.4-3.9-4.2-3.9c-0.6,0-1.2,0.1-1.7,0.2c-0.5,0.1-1,0.4-1.4,0.7c-0.5,0.3-0.8,0.8-1.1,1.3
	c-0.3,0.5-0.5,1.3-0.7,2.1C-198.7,537.6-198.8,538.6-198.8,539.8z"/>
</svg>
