<?xml version="1.0" encoding="utf-8"?>
<!-- Generator: Adobe Illustrator 24.3.0, SVG Export Plug-In . SVG Version: 6.00 Build 0)  -->
<svg version="1.1" id="Laag_1" xmlns="http://www.w3.org/2000/svg" xmlns:xlink="http://www.w3.org/1999/xlink" x="0px" y="0px"
	 width="225px" height="14px" viewBox="0 0 225 14" style="enable-background:new 0 0 225 14;" xml:space="preserve">
<g>
	<path d="M3.9,11.3c-0.5,0-1.1-0.1-1.5-0.2c-0.5-0.2-0.9-0.4-1.2-0.7c-0.3-0.3-0.6-0.6-0.8-1C0.2,9,0,8.5,0,8h1.3
		c0.1,0.7,0.3,1.2,0.8,1.6c0.4,0.4,1.1,0.6,1.8,0.6c0.8,0,1.4-0.2,1.8-0.7C6.2,9,6.4,8.4,6.4,7.6c0-0.4-0.1-0.8-0.2-1.1
		C6.1,6.2,5.9,6,5.7,5.7C5.4,5.5,5.2,5.4,4.9,5.2c-0.3-0.1-0.6-0.2-1-0.2c-0.6,0-1.1,0.1-1.5,0.3C2.1,5.6,1.7,5.8,1.5,6.2H0.3
		l1.2-5.7h5.7v1.2H2.4L1.7,4.8h0C2,4.5,2.3,4.3,2.7,4.2C3.1,4,3.6,3.9,4.1,3.9c0.5,0,0.9,0.1,1.4,0.2c0.4,0.2,0.8,0.4,1.1,0.7
		C7,5.2,7.2,5.6,7.4,6.1c0.2,0.5,0.3,1,0.3,1.6c0,0.6-0.1,1.1-0.3,1.5C7.3,9.6,7,10,6.7,10.3c-0.3,0.3-0.7,0.6-1.2,0.7
		C5,11.2,4.5,11.3,3.9,11.3z"/>
	<path d="M11,13.4c-0.1,0-0.3,0-0.4,0s-0.2,0-0.3,0v-1h0c0.2,0,0.3,0,0.4,0c0.5,0,0.8-0.3,0.8-0.8V3.1h1.3v8.5c0,0.4,0,0.7-0.1,0.9
		c-0.1,0.2-0.2,0.4-0.4,0.5c-0.2,0.1-0.4,0.2-0.6,0.3C11.5,13.3,11.2,13.4,11,13.4z M11.6,0h1.3v1.6h-1.3V0z"/>
	<path d="M19.6,11.1V10h0c-0.3,0.4-0.6,0.7-1,0.9c-0.4,0.2-0.8,0.3-1.4,0.3c-0.8,0-1.5-0.2-2-0.7c-0.5-0.5-0.7-1.1-0.7-2V3.1h1.3
		v5.5c0,0.5,0.2,0.9,0.5,1.2c0.3,0.3,0.8,0.4,1.3,0.4c0.3,0,0.6-0.1,0.9-0.2c0.3-0.1,0.5-0.3,0.7-0.5c0.2-0.2,0.3-0.4,0.4-0.7
		c0.1-0.3,0.1-0.6,0.1-0.9V3.1h1.3v8H19.6z"/>
	<path d="M23.8,4.1L23.8,4.1c0.3-0.4,0.7-0.7,1.1-0.9c0.4-0.2,0.9-0.3,1.5-0.3c0.8,0,1.5,0.2,2,0.7c0.5,0.4,0.7,1.1,0.7,1.9v5.6
		h-1.3V5.6c0-0.5-0.2-0.9-0.5-1.2C27,4.1,26.6,3.9,26,3.9c-0.3,0-0.6,0.1-0.9,0.2c-0.3,0.1-0.5,0.3-0.7,0.5C24.3,4.7,24.1,5,24,5.2
		s-0.2,0.6-0.2,0.9v4.9h-1.3v-8h1.3V4.1z"/>
	<path d="M30.8,0H32v1.6h-1.3V0z M30.8,3.1H32v8h-1.3V3.1z"/>
	<path d="M35.7,3.1h1.2V0.5h1.3v2.5h1.5v1h-1.5v5.2c0,0.3,0.1,0.5,0.2,0.6s0.3,0.2,0.6,0.2c0.1,0,0.2,0,0.4,0c0.1,0,0.2,0,0.3-0.1h0
		V11c-0.1,0-0.3,0.1-0.5,0.1c-0.2,0-0.3,0-0.5,0c-0.5,0-0.9-0.1-1.3-0.3c-0.3-0.2-0.5-0.6-0.5-1.2V4.1h-1.2V3.1z"/>
	<path d="M44.7,0H46l-4.4,11.1h-1.3L44.7,0z"/>
	<path d="M46.4,3.1h1.3v1.1h0c0.2-0.4,0.6-0.7,1-1c0.4-0.2,0.9-0.4,1.4-0.4c0.5,0,0.9,0.1,1.3,0.4c0.4,0.2,0.6,0.6,0.8,1.1h0
		c0.3-0.5,0.6-0.8,1-1.1c0.4-0.2,0.9-0.4,1.4-0.4c0.7,0,1.3,0.2,1.8,0.7s0.7,1.1,0.7,1.9v5.6h-1.3V5.5c0-0.5-0.1-0.9-0.4-1.2
		c-0.3-0.3-0.6-0.4-1-0.4c-0.3,0-0.5,0.1-0.7,0.2c-0.2,0.1-0.4,0.3-0.6,0.5c-0.2,0.2-0.3,0.4-0.4,0.7c-0.1,0.3-0.2,0.6-0.2,0.9v5
		h-1.3V5.5c0-0.5-0.1-0.9-0.4-1.2c-0.3-0.3-0.6-0.4-1-0.4c-0.2,0-0.5,0.1-0.7,0.2c-0.2,0.1-0.5,0.3-0.7,0.5C48.2,4.7,48,5,47.9,5.2
		c-0.1,0.3-0.2,0.6-0.2,0.9v5h-1.3V3.1z"/>
	<path d="M61.3,9.3c0.2-0.5,0.6-0.9,0.9-1.3c0.4-0.4,0.8-0.7,1.3-1c0.5-0.3,0.9-0.6,1.4-0.8c0.4-0.2,0.7-0.4,0.9-0.6
		C66,5.4,66.3,5.2,66.5,5c0.2-0.2,0.3-0.4,0.4-0.7c0.1-0.2,0.2-0.5,0.2-0.8c0-0.7-0.2-1.2-0.6-1.6c-0.4-0.4-1-0.6-1.7-0.6
		c-0.4,0-0.7,0.1-1,0.2c-0.3,0.1-0.5,0.3-0.7,0.5c-0.2,0.2-0.4,0.5-0.5,0.8c-0.1,0.3-0.1,0.8-0.1,1.3h-1.4c0-0.7,0.1-1.3,0.3-1.7
		c0.2-0.5,0.4-0.8,0.8-1.2c0.3-0.3,0.7-0.6,1.2-0.7c0.5-0.2,1-0.2,1.5-0.2c0.5,0,1,0.1,1.5,0.2c0.4,0.2,0.8,0.4,1.1,0.7
		c0.3,0.3,0.5,0.6,0.7,1c0.2,0.4,0.2,0.8,0.2,1.3c0,0.5-0.1,1-0.2,1.3c-0.2,0.4-0.4,0.7-0.7,0.9c-0.3,0.3-0.6,0.5-1,0.7
		c-0.4,0.2-0.8,0.5-1.2,0.7c-0.3,0.2-0.6,0.3-0.9,0.5c-0.3,0.2-0.6,0.4-0.9,0.6C63.3,8.5,63,8.8,62.8,9c-0.2,0.3-0.3,0.5-0.4,0.8
		h5.8v1.2h-7.4C60.9,10.4,61,9.8,61.3,9.3z"/>
	<path d="M69.9,9.3c0.2-0.5,0.6-0.9,0.9-1.3c0.4-0.4,0.8-0.7,1.3-1c0.5-0.3,0.9-0.6,1.4-0.8c0.4-0.2,0.7-0.4,0.9-0.6
		c0.3-0.2,0.5-0.4,0.7-0.6c0.2-0.2,0.3-0.4,0.4-0.7c0.1-0.2,0.2-0.5,0.2-0.8c0-0.7-0.2-1.2-0.6-1.6c-0.4-0.4-1-0.6-1.7-0.6
		c-0.4,0-0.7,0.1-1,0.2c-0.3,0.1-0.5,0.3-0.7,0.5c-0.2,0.2-0.4,0.5-0.5,0.8c-0.1,0.3-0.1,0.8-0.1,1.3h-1.4c0-0.7,0.1-1.3,0.3-1.7
		c0.2-0.5,0.4-0.8,0.8-1.2c0.3-0.3,0.7-0.6,1.2-0.7c0.5-0.2,1-0.2,1.5-0.2c0.5,0,1,0.1,1.5,0.2c0.4,0.2,0.8,0.4,1.1,0.7
		c0.3,0.3,0.5,0.6,0.7,1C77,2.6,77,3,77,3.5c0,0.5-0.1,1-0.2,1.3c-0.2,0.4-0.4,0.7-0.7,0.9c-0.3,0.3-0.6,0.5-1,0.7
		c-0.4,0.2-0.8,0.5-1.2,0.7c-0.3,0.2-0.6,0.3-0.9,0.5c-0.3,0.2-0.6,0.4-0.9,0.6c-0.3,0.2-0.5,0.5-0.7,0.7c-0.2,0.3-0.3,0.5-0.4,0.8
		h5.8v1.2h-7.4C69.5,10.4,69.6,9.8,69.9,9.3z"/>
	<path d="M87.2,11.2c-0.8,0-1.3-0.4-1.4-1.2h0c-0.1,0.2-0.3,0.3-0.4,0.5c-0.2,0.2-0.4,0.3-0.6,0.4c-0.2,0.1-0.5,0.2-0.7,0.3
		c-0.3,0.1-0.6,0.1-0.9,0.1c-0.4,0-0.7,0-1.1-0.1c-0.3-0.1-0.6-0.2-0.9-0.4c-0.2-0.2-0.4-0.4-0.6-0.7c-0.1-0.3-0.2-0.6-0.2-1
		c0-0.5,0.1-0.9,0.3-1.2c0.2-0.3,0.4-0.5,0.7-0.7c0.3-0.2,0.7-0.3,1.1-0.4c0.4-0.1,0.9-0.2,1.4-0.3c0.3,0,0.5-0.1,0.8-0.1
		c0.2,0,0.4-0.1,0.6-0.2c0.2-0.1,0.3-0.2,0.4-0.3c0.1-0.1,0.1-0.3,0.1-0.5c0-0.5-0.2-0.8-0.5-1c-0.3-0.2-0.8-0.4-1.3-0.4
		c-0.7,0-1.1,0.1-1.5,0.4c-0.3,0.3-0.5,0.7-0.5,1.3h-1.2c0-0.4,0.1-0.7,0.2-1.1c0.1-0.3,0.3-0.6,0.6-0.9c0.3-0.2,0.6-0.4,1-0.6
		C83,3,83.5,2.9,84,2.9c0.4,0,0.8,0,1.2,0.1c0.4,0.1,0.7,0.2,0.9,0.4c0.3,0.2,0.5,0.5,0.6,0.8C86.9,4.6,87,5,87,5.5v3.8
		c0,0.3,0.1,0.6,0.2,0.7c0.1,0.2,0.3,0.2,0.7,0.1h0V11c-0.1,0-0.2,0.1-0.3,0.1C87.5,11.1,87.4,11.2,87.2,11.2z M83.4,10.3
		c0.4,0,0.8-0.1,1.1-0.2c0.3-0.1,0.6-0.3,0.8-0.5c0.2-0.2,0.3-0.4,0.4-0.7c0.1-0.3,0.1-0.5,0.1-0.7V6.8c-0.2,0.1-0.5,0.2-0.8,0.3
		c-0.3,0.1-0.7,0.2-1,0.2c-0.3,0.1-0.6,0.1-0.9,0.2c-0.3,0.1-0.5,0.2-0.7,0.3c-0.2,0.1-0.4,0.3-0.5,0.5c-0.1,0.2-0.2,0.4-0.2,0.7
		c0,0.3,0,0.5,0.1,0.7c0.1,0.2,0.2,0.3,0.4,0.4c0.2,0.1,0.3,0.2,0.5,0.2C83,10.3,83.2,10.3,83.4,10.3z"/>
	<path d="M93.9,11.1V10h0c-0.3,0.4-0.6,0.7-1,0.9c-0.4,0.2-0.8,0.3-1.4,0.3c-0.8,0-1.5-0.2-2-0.7c-0.5-0.5-0.7-1.1-0.7-2V3.1H90v5.5
		c0,0.5,0.2,0.9,0.5,1.2c0.3,0.3,0.8,0.4,1.3,0.4c0.3,0,0.6-0.1,0.9-0.2c0.3-0.1,0.5-0.3,0.7-0.5c0.2-0.2,0.3-0.4,0.4-0.7
		c0.1-0.3,0.1-0.6,0.1-0.9V3.1h1.3v8H93.9z"/>
	<path d="M100.1,13.8c-1,0-1.9-0.2-2.4-0.6c-0.6-0.4-0.9-0.9-1-1.6h1.2c0.1,0.4,0.3,0.8,0.7,0.9c0.4,0.2,0.9,0.3,1.5,0.3
		c0.7,0,1.3-0.2,1.7-0.5c0.4-0.3,0.6-0.9,0.6-1.6V9.6h0c-0.3,0.4-0.6,0.7-1,0.9c-0.4,0.2-0.8,0.3-1.4,0.3c-0.5,0-1-0.1-1.4-0.3
		c-0.4-0.2-0.8-0.5-1.1-0.8c-0.3-0.4-0.6-0.8-0.7-1.3c-0.2-0.5-0.3-1-0.3-1.6c0-0.6,0.1-1.2,0.3-1.7c0.2-0.5,0.4-0.9,0.7-1.2
		c0.3-0.3,0.7-0.6,1.1-0.8C99,3,99.4,2.9,99.9,2.9c0.6,0,1.1,0.1,1.5,0.3c0.4,0.2,0.7,0.5,1,0.9h0v-1h1.3v7.6c0,0.5-0.1,1-0.2,1.4
		c-0.2,0.4-0.4,0.7-0.7,1c-0.3,0.3-0.7,0.5-1.1,0.6C101.1,13.7,100.6,13.8,100.1,13.8z M100,9.8c0.5,0,0.9-0.1,1.2-0.2
		c0.3-0.2,0.6-0.4,0.7-0.6c0.2-0.3,0.3-0.6,0.4-0.9c0.1-0.4,0.1-0.8,0.1-1.2c0-0.9-0.2-1.6-0.6-2.1c-0.4-0.5-1-0.8-1.9-0.8
		c-0.8,0-1.3,0.3-1.7,0.8S97.7,6,97.7,6.9c0,0.9,0.2,1.6,0.6,2.1C98.7,9.5,99.3,9.8,100,9.8z"/>
	<path d="M110.4,11.1V10h0c-0.3,0.4-0.6,0.7-1,0.9c-0.4,0.2-0.8,0.3-1.4,0.3c-0.8,0-1.5-0.2-2-0.7c-0.5-0.5-0.7-1.1-0.7-2V3.1h1.3
		v5.5c0,0.5,0.2,0.9,0.5,1.2c0.3,0.3,0.8,0.4,1.3,0.4c0.3,0,0.6-0.1,0.9-0.2c0.3-0.1,0.5-0.3,0.7-0.5c0.2-0.2,0.3-0.4,0.4-0.7
		c0.1-0.3,0.1-0.6,0.1-0.9V3.1h1.3v8H110.4z"/>
	<path d="M116.4,11.3c-1.1,0-2-0.2-2.6-0.7c-0.6-0.5-0.9-1.2-1-2.1h1.3c0,0.4,0.1,0.6,0.3,0.9c0.1,0.2,0.3,0.4,0.5,0.5
		c0.2,0.1,0.4,0.2,0.7,0.3c0.3,0.1,0.5,0.1,0.8,0.1c0.7,0,1.1-0.1,1.4-0.4c0.3-0.3,0.4-0.6,0.4-0.9c0-0.2,0-0.4-0.1-0.6
		c-0.1-0.2-0.2-0.3-0.4-0.4c-0.2-0.1-0.4-0.2-0.7-0.3c-0.3-0.1-0.6-0.2-1-0.2c-0.4-0.1-0.8-0.2-1.1-0.3c-0.4-0.1-0.7-0.2-1-0.4
		c-0.3-0.2-0.5-0.4-0.7-0.7s-0.2-0.6-0.2-1.1c0-0.7,0.2-1.2,0.7-1.6s1.2-0.6,2.1-0.6c1,0,1.8,0.2,2.3,0.7c0.5,0.4,0.8,1.1,0.9,1.8
		H118c-0.1-0.5-0.2-0.9-0.5-1.2c-0.3-0.2-0.7-0.4-1.3-0.4c-0.6,0-1,0.1-1.2,0.3c-0.2,0.2-0.4,0.5-0.4,0.8c0,0.2,0,0.4,0.1,0.5
		c0.1,0.1,0.2,0.3,0.4,0.3c0.2,0.1,0.4,0.2,0.7,0.2c0.3,0.1,0.6,0.1,0.9,0.2c0.4,0.1,0.8,0.2,1.1,0.3c0.4,0.1,0.7,0.2,0.9,0.4
		c0.3,0.2,0.5,0.4,0.6,0.7c0.2,0.3,0.2,0.7,0.2,1.1c0,0.4-0.1,0.8-0.2,1.1c-0.2,0.3-0.4,0.6-0.7,0.8c-0.3,0.2-0.6,0.4-1,0.5
		C117.3,11.3,116.9,11.3,116.4,11.3z"/>
	<path d="M120.1,3.1h1.2V0.5h1.3v2.5h1.5v1h-1.5v5.2c0,0.3,0.1,0.5,0.2,0.6s0.3,0.2,0.6,0.2c0.1,0,0.2,0,0.4,0c0.1,0,0.2,0,0.3-0.1
		h0V11c-0.1,0-0.3,0.1-0.5,0.1c-0.2,0-0.3,0-0.5,0c-0.5,0-0.9-0.1-1.3-0.3c-0.3-0.2-0.5-0.6-0.5-1.2V4.1h-1.2V3.1z"/>
	<path d="M130.5,11.1V10h0c-0.3,0.4-0.6,0.7-1,0.9c-0.4,0.2-0.8,0.3-1.4,0.3c-0.8,0-1.5-0.2-2-0.7c-0.5-0.5-0.7-1.1-0.7-2V3.1h1.3
		v5.5c0,0.5,0.2,0.9,0.5,1.2c0.3,0.3,0.8,0.4,1.3,0.4c0.3,0,0.6-0.1,0.9-0.2c0.3-0.1,0.5-0.3,0.7-0.5c0.2-0.2,0.3-0.4,0.4-0.7
		c0.1-0.3,0.1-0.6,0.1-0.9V3.1h1.3v8H130.5z"/>
	<path d="M136.5,11.3c-1.1,0-2-0.2-2.6-0.7c-0.6-0.5-0.9-1.2-1-2.1h1.3c0,0.4,0.1,0.6,0.3,0.9s0.3,0.4,0.5,0.5
		c0.2,0.1,0.4,0.2,0.7,0.3c0.3,0.1,0.5,0.1,0.8,0.1c0.7,0,1.1-0.1,1.4-0.4c0.3-0.3,0.4-0.6,0.4-0.9c0-0.2,0-0.4-0.1-0.6
		c-0.1-0.2-0.2-0.3-0.4-0.4c-0.2-0.1-0.4-0.2-0.7-0.3c-0.3-0.1-0.6-0.2-1-0.2c-0.4-0.1-0.8-0.2-1.1-0.3c-0.4-0.1-0.7-0.2-1-0.4
		c-0.3-0.2-0.5-0.4-0.7-0.7s-0.2-0.6-0.2-1.1c0-0.7,0.2-1.2,0.7-1.6s1.2-0.6,2.1-0.6c1,0,1.8,0.2,2.3,0.7c0.5,0.4,0.8,1.1,0.9,1.8
		H138c-0.1-0.5-0.2-0.9-0.5-1.2c-0.3-0.2-0.7-0.4-1.3-0.4c-0.6,0-1,0.1-1.2,0.3c-0.2,0.2-0.4,0.5-0.4,0.8c0,0.2,0,0.4,0.1,0.5
		c0.1,0.1,0.2,0.3,0.4,0.3c0.2,0.1,0.4,0.2,0.7,0.2c0.3,0.1,0.6,0.1,0.9,0.2c0.4,0.1,0.8,0.2,1.1,0.3c0.4,0.1,0.7,0.2,0.9,0.4
		c0.3,0.2,0.5,0.4,0.6,0.7c0.2,0.3,0.2,0.7,0.2,1.1c0,0.4-0.1,0.8-0.2,1.1c-0.2,0.3-0.4,0.6-0.7,0.8c-0.3,0.2-0.6,0.4-1,0.5
		C137.4,11.3,136.9,11.3,136.5,11.3z"/>
	<path d="M143.4,9.3c0.2-0.5,0.6-0.9,0.9-1.3c0.4-0.4,0.8-0.7,1.3-1c0.5-0.3,0.9-0.6,1.4-0.8c0.4-0.2,0.7-0.4,0.9-0.6
		c0.3-0.2,0.5-0.4,0.7-0.6c0.2-0.2,0.3-0.4,0.4-0.7c0.1-0.2,0.2-0.5,0.2-0.8c0-0.7-0.2-1.2-0.6-1.6c-0.4-0.4-1-0.6-1.7-0.6
		c-0.4,0-0.7,0.1-1,0.2c-0.3,0.1-0.5,0.3-0.7,0.5c-0.2,0.2-0.4,0.5-0.5,0.8c-0.1,0.3-0.1,0.8-0.1,1.3h-1.4c0-0.7,0.1-1.3,0.3-1.7
		c0.2-0.5,0.4-0.8,0.8-1.2c0.3-0.3,0.7-0.6,1.2-0.7c0.5-0.2,1-0.2,1.5-0.2c0.5,0,1,0.1,1.5,0.2c0.4,0.2,0.8,0.4,1.1,0.7
		c0.3,0.3,0.5,0.6,0.7,1c0.2,0.4,0.2,0.8,0.2,1.3c0,0.5-0.1,1-0.2,1.3c-0.2,0.4-0.4,0.7-0.7,0.9c-0.3,0.3-0.6,0.5-1,0.7
		c-0.4,0.2-0.8,0.5-1.2,0.7c-0.3,0.2-0.6,0.3-0.9,0.5c-0.3,0.2-0.6,0.4-0.9,0.6c-0.3,0.2-0.5,0.5-0.7,0.7c-0.2,0.3-0.3,0.5-0.4,0.8
		h5.8v1.2h-7.4C143,10.4,143.1,9.8,143.4,9.3z"/>
	<path d="M155.9,11.3c-0.7,0-1.2-0.1-1.7-0.4c-0.5-0.3-0.9-0.6-1.3-1.1c-0.4-0.5-0.6-1.1-0.8-1.7s-0.3-1.4-0.3-2.3
		c0-0.9,0.1-1.6,0.3-2.3c0.2-0.7,0.5-1.3,0.8-1.8c0.4-0.5,0.8-0.8,1.3-1.1c0.5-0.3,1.1-0.4,1.7-0.4s1.2,0.1,1.7,0.4
		c0.5,0.3,0.9,0.6,1.3,1.1c0.4,0.5,0.6,1.1,0.8,1.7c0.2,0.7,0.3,1.5,0.3,2.3c0,0.8-0.1,1.6-0.3,2.3c-0.2,0.7-0.4,1.3-0.8,1.7
		c-0.4,0.5-0.8,0.9-1.3,1.1C157.1,11.2,156.6,11.3,155.9,11.3z M155.9,10.2c0.9,0,1.6-0.4,2.1-1.2c0.4-0.8,0.7-1.9,0.7-3.2
		c0-0.7-0.1-1.3-0.2-1.8c-0.1-0.5-0.3-1-0.5-1.4s-0.5-0.7-0.9-0.9s-0.7-0.3-1.2-0.3c-0.9,0-1.6,0.4-2.1,1.2
		c-0.5,0.8-0.7,1.9-0.7,3.2c0,0.7,0.1,1.3,0.2,1.8c0.1,0.5,0.3,1,0.5,1.4s0.5,0.7,0.9,0.9C155,10.1,155.4,10.2,155.9,10.2z"/>
	<path d="M161.5,9.3c0.2-0.5,0.6-0.9,0.9-1.3c0.4-0.4,0.8-0.7,1.3-1c0.5-0.3,0.9-0.6,1.4-0.8c0.4-0.2,0.7-0.4,0.9-0.6
		c0.3-0.2,0.5-0.4,0.7-0.6c0.2-0.2,0.3-0.4,0.4-0.7c0.1-0.2,0.2-0.5,0.2-0.8c0-0.7-0.2-1.2-0.6-1.6c-0.4-0.4-1-0.6-1.7-0.6
		c-0.4,0-0.7,0.1-1,0.2c-0.3,0.1-0.5,0.3-0.7,0.5c-0.2,0.2-0.4,0.5-0.5,0.8c-0.1,0.3-0.1,0.8-0.1,1.3h-1.4c0-0.7,0.1-1.3,0.3-1.7
		c0.2-0.5,0.4-0.8,0.8-1.2c0.3-0.3,0.7-0.6,1.2-0.7c0.5-0.2,1-0.2,1.5-0.2c0.5,0,1,0.1,1.5,0.2c0.4,0.2,0.8,0.4,1.1,0.7
		c0.3,0.3,0.5,0.6,0.7,1c0.2,0.4,0.2,0.8,0.2,1.3c0,0.5-0.1,1-0.2,1.3c-0.2,0.4-0.4,0.7-0.7,0.9c-0.3,0.3-0.6,0.5-1,0.7
		c-0.4,0.2-0.8,0.5-1.2,0.7c-0.3,0.2-0.6,0.3-0.9,0.5c-0.3,0.2-0.6,0.4-0.9,0.6c-0.3,0.2-0.5,0.5-0.7,0.7c-0.2,0.3-0.3,0.5-0.4,0.8
		h5.8v1.2h-7.4C161.1,10.4,161.3,9.8,161.5,9.3z"/>
	<path d="M172.1,3.3h-2.3V2.5c0.3,0,0.6,0,0.9-0.1c0.3-0.1,0.6-0.2,0.8-0.3s0.4-0.4,0.6-0.6c0.2-0.3,0.3-0.6,0.3-1h1v10.7h-1.3V3.3z
		"/>
</g>
</svg>
