<?xml version="1.0" encoding="utf-8"?>
<!-- Generator: Adobe Illustrator 24.3.0, SVG Export Plug-In . SVG Version: 6.00 Build 0)  -->
<svg version="1.1" id="Laag_1" xmlns="http://www.w3.org/2000/svg" xmlns:xlink="http://www.w3.org/1999/xlink" x="0px" y="0px"
	 width="225px" height="23px" viewBox="0 0 225 23" style="enable-background:new 0 0 225 23;" xml:space="preserve">
<g>
	<path d="M0,1.9h4.1v6.1l5.8-6.1h4.9L8.4,8.6l6.8,10h-4.8l-4.8-7.2l-1.4,1.5v5.8H0V1.9z"/>
	<path d="M16.1,1.9h3.8V5h-3.8V1.9z M16.1,6.6h3.8v12h-3.8V6.6z"/>
	<path d="M21.9,22.6c-0.3,0-0.7,0-1.1,0c-0.4,0-0.8-0.1-1.1-0.1v-2.6c0.3,0,0.6,0,0.9,0c0.3,0,0.5-0.1,0.6-0.1
		c0.2-0.1,0.3-0.2,0.4-0.4c0.1-0.2,0.1-0.4,0.1-0.7V6.6h3.8v12.1c0,0.8-0.1,1.4-0.2,1.9c-0.2,0.5-0.4,0.8-0.7,1.1
		c-0.3,0.3-0.7,0.6-1.2,0.7C23,22.6,22.4,22.6,21.9,22.6z M21.7,1.9h3.8V5h-3.8V1.9z"/>
	<path d="M27.4,1.9h3.8v8.8l3.6-4h4.4l-4.2,4.5l4.7,7.5h-4.4l-2.9-4.9l-1.1,1.2v3.7h-3.8V1.9z"/>
	<path d="M44.2,19c-0.8,0-1.5-0.1-2.1-0.4c-0.6-0.3-1.2-0.7-1.7-1.3c-0.5-0.5-0.8-1.2-1.1-2c-0.3-0.8-0.4-1.7-0.4-2.7
		c0-0.9,0.1-1.8,0.4-2.6c0.3-0.8,0.6-1.4,1.1-2c0.5-0.6,1-1,1.7-1.3c0.6-0.3,1.3-0.5,2.1-0.5c0.8,0,1.5,0.2,2,0.5
		c0.5,0.3,1,0.7,1.3,1.2h0.1V1.9h3.8v16.7h-3.7V17h0c-0.4,0.6-0.8,1.1-1.4,1.5C45.7,18.8,45,19,44.2,19z M45.2,16
		c0.8,0,1.4-0.3,1.9-0.9c0.4-0.6,0.7-1.4,0.7-2.4c0-0.5-0.1-1-0.2-1.4c-0.1-0.4-0.3-0.8-0.5-1.1c-0.2-0.3-0.5-0.5-0.8-0.7
		c-0.3-0.2-0.7-0.3-1.1-0.3c-0.8,0-1.4,0.3-1.8,0.9c-0.4,0.6-0.6,1.5-0.6,2.5c0,1,0.2,1.9,0.6,2.5C43.9,15.7,44.5,16,45.2,16z"/>
	<path d="M59.1,19c-1,0-1.9-0.2-2.7-0.5c-0.8-0.3-1.5-0.8-2-1.3c-0.5-0.6-1-1.2-1.3-2c-0.3-0.8-0.4-1.6-0.4-2.5
		c0-0.9,0.1-1.7,0.4-2.5c0.3-0.8,0.7-1.4,1.3-2c0.5-0.6,1.2-1,1.9-1.3c0.7-0.3,1.6-0.5,2.5-0.5c0.9,0,1.6,0.1,2.3,0.4
		c0.7,0.3,1.3,0.6,1.8,1.1c0.7,0.7,1.3,1.5,1.6,2.5c0.4,1,0.5,2.1,0.5,3.3h-8.6c0.1,0.8,0.4,1.5,0.8,1.9c0.4,0.5,1.1,0.7,1.8,0.7
		c0.5,0,0.9-0.1,1.2-0.3c0.3-0.2,0.6-0.5,0.7-0.9h3.7c-0.1,0.5-0.4,1.1-0.7,1.6c-0.3,0.5-0.8,0.9-1.3,1.3c-0.5,0.4-1.1,0.6-1.7,0.8
		C60.6,18.9,59.9,19,59.1,19z M61.2,11.3c-0.1-0.7-0.3-1.3-0.7-1.7C60.1,9.2,59.6,9,59,9c-0.7,0-1.3,0.2-1.7,0.6
		c-0.4,0.4-0.6,1-0.8,1.7H61.2z"/>
	<path d="M66.4,6.6H70v1.5h0.1c0.4-0.5,0.9-1,1.5-1.3c0.6-0.3,1.3-0.5,2.1-0.5c0.8,0,1.5,0.2,2.1,0.5c0.6,0.3,1.2,0.8,1.6,1.3
		c0.4,0.6,0.8,1.2,1,2c0.2,0.8,0.4,1.6,0.4,2.5c0,1-0.1,1.8-0.4,2.6c-0.2,0.8-0.6,1.5-1.1,2c-0.5,0.6-1,1-1.7,1.3
		c-0.6,0.3-1.3,0.4-2.1,0.4s-1.4-0.1-2-0.4c-0.6-0.3-1-0.7-1.4-1.2h0v5.2h-3.8V6.6z M72.7,16c0.7,0,1.3-0.3,1.7-0.9
		c0.4-0.6,0.6-1.4,0.6-2.4s-0.2-1.9-0.6-2.5c-0.4-0.6-1-0.9-1.8-0.9c-0.4,0-0.8,0.1-1.1,0.3c-0.3,0.2-0.6,0.4-0.8,0.7
		c-0.2,0.3-0.4,0.7-0.5,1.1c-0.1,0.4-0.2,0.9-0.2,1.4c0,1,0.2,1.8,0.7,2.4C71.2,15.7,71.8,16,72.7,16z"/>
	<path d="M86,19c-1,0-1.8-0.2-2.6-0.5c-0.8-0.3-1.5-0.8-2-1.3c-0.6-0.6-1-1.2-1.3-2c-0.3-0.8-0.5-1.6-0.5-2.5c0-0.9,0.2-1.7,0.5-2.5
		c0.3-0.8,0.7-1.4,1.3-2c0.6-0.6,1.2-1,2-1.3c0.8-0.3,1.7-0.5,2.6-0.5s1.8,0.2,2.6,0.5c0.8,0.3,1.5,0.8,2,1.3c0.6,0.6,1,1.2,1.3,2
		c0.3,0.8,0.5,1.6,0.5,2.5c0,0.9-0.2,1.7-0.5,2.5c-0.3,0.8-0.7,1.4-1.3,2c-0.6,0.6-1.2,1-2,1.3C87.9,18.8,87,19,86,19z M86,16.3
		c0.8,0,1.5-0.3,1.9-1c0.4-0.7,0.6-1.5,0.6-2.6s-0.2-2-0.6-2.6c-0.4-0.7-1.1-1-1.9-1c-0.8,0-1.5,0.3-1.9,1c-0.4,0.7-0.6,1.6-0.6,2.6
		s0.2,2,0.6,2.6C84.5,15.9,85.2,16.3,86,16.3z"/>
	<path d="M98.2,18.7c-0.6,0-1.1-0.1-1.5-0.2c-0.5-0.1-0.9-0.3-1.2-0.5c-0.3-0.2-0.6-0.6-0.8-1c-0.2-0.4-0.3-1-0.3-1.6V9h-1.6V6.6
		h1.6V2.8h3.7v3.8h2.2V9h-2.2v5.6c0,0.5,0.1,0.8,0.4,0.9c0.2,0.2,0.6,0.2,1,0.2c0.2,0,0.3,0,0.5,0s0.3,0,0.4,0v2.8
		c-0.2,0-0.4,0.1-0.8,0.1C99.2,18.7,98.7,18.7,98.2,18.7z"/>
	<path d="M112.2,19c-1.1,0-2.1-0.1-3-0.4c-0.9-0.2-1.7-0.6-2.3-1.1c-0.6-0.5-1.2-1.1-1.5-1.8c-0.4-0.7-0.6-1.5-0.6-2.4h4.2
		c0.1,0.8,0.4,1.5,1,1.8c0.5,0.4,1.3,0.6,2.3,0.6c0.3,0,0.7,0,1-0.1c0.3-0.1,0.6-0.2,0.9-0.3c0.2-0.1,0.5-0.3,0.6-0.5
		c0.2-0.2,0.2-0.5,0.2-0.8c0-0.3-0.1-0.6-0.2-0.8c-0.2-0.2-0.4-0.4-0.7-0.6c-0.3-0.2-0.7-0.3-1.1-0.4s-1-0.2-1.5-0.4
		c-0.7-0.2-1.5-0.4-2.2-0.6c-0.7-0.2-1.3-0.5-1.9-0.9c-0.6-0.4-1-0.9-1.4-1.4c-0.4-0.6-0.5-1.3-0.5-2.2c0-0.9,0.2-1.7,0.5-2.3
		c0.3-0.6,0.8-1.2,1.4-1.6c0.6-0.4,1.3-0.7,2.1-0.9s1.7-0.3,2.6-0.3c0.9,0,1.8,0.1,2.5,0.3c0.8,0.2,1.5,0.5,2.1,0.9
		c0.6,0.4,1.1,1,1.4,1.6c0.4,0.6,0.5,1.4,0.6,2.3h-4c-0.1-0.7-0.4-1.2-0.8-1.5c-0.5-0.3-1.1-0.5-1.9-0.5c-0.7,0-1.3,0.1-1.8,0.4
		c-0.4,0.3-0.7,0.7-0.7,1.1c0,0.3,0.1,0.5,0.2,0.7s0.4,0.4,0.7,0.5c0.3,0.1,0.7,0.3,1.2,0.4c0.5,0.1,1,0.2,1.6,0.4
		c0.8,0.2,1.5,0.4,2.2,0.6c0.7,0.2,1.3,0.5,1.9,0.9c0.5,0.4,1,0.9,1.3,1.5c0.3,0.6,0.5,1.3,0.5,2.2c0,0.9-0.2,1.6-0.5,2.3
		c-0.4,0.7-0.8,1.2-1.5,1.7c-0.6,0.5-1.3,0.8-2.2,1.1C114.1,18.9,113.2,19,112.2,19z"/>
	<path d="M126.5,19c-1,0-1.8-0.2-2.6-0.5c-0.8-0.3-1.4-0.8-2-1.3c-0.6-0.6-1-1.2-1.3-2c-0.3-0.8-0.5-1.6-0.5-2.5
		c0-0.9,0.1-1.7,0.4-2.5c0.3-0.8,0.7-1.4,1.3-2c0.5-0.6,1.2-1,2-1.3s1.6-0.5,2.6-0.5c0.8,0,1.5,0.1,2.2,0.3c0.7,0.2,1.2,0.5,1.7,0.9
		c0.5,0.4,0.9,0.9,1.2,1.5c0.3,0.6,0.5,1.2,0.6,1.8h-3.7c-0.1-0.5-0.3-1-0.7-1.3c-0.3-0.3-0.8-0.5-1.3-0.5c-0.8,0-1.4,0.3-1.8,0.9
		c-0.4,0.6-0.6,1.5-0.6,2.6c0,1.1,0.2,1.9,0.6,2.6c0.4,0.6,1,0.9,1.8,0.9c1.2,0,1.9-0.7,2.1-2.1h3.7c0,0.7-0.2,1.3-0.5,1.9
		c-0.3,0.6-0.7,1.1-1.1,1.6c-0.5,0.4-1.1,0.8-1.8,1C128.1,18.9,127.3,19,126.5,19z"/>
	<path d="M133.4,1.9h3.8v6.2h0.1c0.4-0.6,0.9-1,1.5-1.3c0.5-0.3,1.2-0.5,2.1-0.5c0.7,0,1.2,0.1,1.8,0.3c0.5,0.2,1,0.5,1.3,0.9
		c0.4,0.4,0.6,0.9,0.8,1.4c0.2,0.6,0.3,1.2,0.3,1.8v7.8h-3.8v-7c0-0.6-0.2-1.2-0.5-1.5c-0.3-0.4-0.8-0.6-1.4-0.6
		c-0.6,0-1.2,0.2-1.5,0.7c-0.4,0.5-0.6,1.1-0.6,1.8v6.6h-3.8V1.9z"/>
	<path d="M146.7,1.9h3.8V5h-3.8V1.9z M146.7,6.6h3.8v12h-3.8V6.6z"/>
	<path d="M158.2,19c-1,0-1.9-0.2-2.7-0.5c-0.8-0.3-1.5-0.8-2-1.3c-0.5-0.6-1-1.2-1.3-2c-0.3-0.8-0.4-1.6-0.4-2.5
		c0-0.9,0.1-1.7,0.4-2.5c0.3-0.8,0.7-1.4,1.3-2c0.5-0.6,1.2-1,1.9-1.3c0.7-0.3,1.6-0.5,2.5-0.5c0.9,0,1.6,0.1,2.3,0.4
		c0.7,0.3,1.3,0.6,1.8,1.1c0.7,0.7,1.3,1.5,1.6,2.5c0.4,1,0.5,2.1,0.5,3.3h-8.6c0.1,0.8,0.4,1.5,0.8,1.9c0.4,0.5,1.1,0.7,1.8,0.7
		c0.5,0,0.9-0.1,1.2-0.3c0.3-0.2,0.6-0.5,0.7-0.9h3.7c-0.1,0.5-0.4,1.1-0.7,1.6c-0.3,0.5-0.8,0.9-1.3,1.3c-0.5,0.4-1.1,0.6-1.7,0.8
		C159.7,18.9,159,19,158.2,19z M160.3,11.3c-0.1-0.7-0.3-1.3-0.7-1.7C159.2,9.2,158.7,9,158,9c-0.7,0-1.3,0.2-1.7,0.6
		c-0.4,0.4-0.6,1-0.8,1.7H160.3z"/>
	<path d="M170.2,19c-0.8,0-1.5-0.1-2.1-0.4c-0.6-0.3-1.2-0.7-1.7-1.3c-0.5-0.5-0.8-1.2-1.1-2c-0.3-0.8-0.4-1.7-0.4-2.7
		c0-0.9,0.1-1.8,0.4-2.6c0.3-0.8,0.6-1.4,1.1-2c0.5-0.6,1-1,1.7-1.3c0.6-0.3,1.3-0.5,2.1-0.5c0.8,0,1.5,0.2,2,0.5
		c0.5,0.3,1,0.7,1.3,1.2h0.1V1.9h3.8v16.7h-3.7V17h0c-0.4,0.6-0.8,1.1-1.4,1.5C171.7,18.8,171,19,170.2,19z M171.1,16
		c0.8,0,1.4-0.3,1.9-0.9c0.4-0.6,0.7-1.4,0.7-2.4c0-0.5-0.1-1-0.2-1.4c-0.1-0.4-0.3-0.8-0.5-1.1c-0.2-0.3-0.5-0.5-0.8-0.7
		c-0.3-0.2-0.7-0.3-1.1-0.3c-0.8,0-1.4,0.3-1.8,0.9c-0.4,0.6-0.6,1.5-0.6,2.5c0,1,0.2,1.9,0.6,2.5C169.8,15.7,170.4,16,171.1,16z"/>
	<path d="M182.8,18.9c-0.6,0-1.1-0.1-1.6-0.2c-0.5-0.2-0.9-0.4-1.3-0.7c-0.4-0.3-0.6-0.7-0.8-1.1c-0.2-0.5-0.3-1-0.3-1.6
		c0-0.7,0.1-1.2,0.4-1.7c0.2-0.4,0.6-0.8,1-1.1s0.9-0.5,1.5-0.7c0.6-0.2,1.1-0.3,1.8-0.4c1.1-0.1,1.9-0.3,2.4-0.5
		c0.5-0.2,0.7-0.5,0.7-0.9c0-0.4-0.1-0.7-0.4-0.9c-0.3-0.2-0.7-0.4-1.3-0.4c-0.6,0-1.1,0.1-1.4,0.4c-0.3,0.3-0.5,0.6-0.6,1.1h-3.5
		c0-0.6,0.1-1.1,0.4-1.6c0.2-0.5,0.6-0.9,1-1.3c0.4-0.4,1-0.7,1.7-0.9c0.7-0.2,1.5-0.3,2.4-0.3c0.9,0,1.7,0.1,2.3,0.2
		c0.6,0.2,1.2,0.4,1.6,0.7c0.5,0.4,0.9,0.9,1.1,1.4c0.2,0.6,0.4,1.2,0.4,2v6c0,0.5,0,0.9,0.1,1.1c0.1,0.3,0.2,0.5,0.3,0.6v0.2h-3.7
		c-0.1-0.1-0.2-0.3-0.2-0.5c-0.1-0.2-0.1-0.5-0.2-0.8h0c-0.4,0.5-0.8,0.9-1.4,1.2C184.4,18.8,183.7,18.9,182.8,18.9z M184,16.5
		c0.7,0,1.3-0.2,1.7-0.6c0.4-0.4,0.7-0.9,0.7-1.6v-1.4c-0.3,0.1-0.5,0.2-0.9,0.3s-0.7,0.2-1.1,0.3c-0.7,0.2-1.3,0.4-1.6,0.6
		c-0.3,0.2-0.5,0.6-0.5,1c0,0.5,0.2,0.8,0.5,1C183.1,16.4,183.5,16.5,184,16.5z"/>
	<path d="M191.9,6.6h3.7v1.7h0.1c0.4-0.6,0.9-1.1,1.4-1.5c0.6-0.4,1.3-0.6,2.2-0.6c0.8,0,1.5,0.2,2,0.6c0.6,0.4,1,0.9,1.3,1.5h0
		c0.5-0.7,1-1.3,1.7-1.6s1.3-0.5,2.1-0.5c0.7,0,1.3,0.1,1.8,0.3c0.5,0.2,0.9,0.5,1.3,0.9c0.3,0.4,0.6,0.9,0.8,1.4s0.3,1.2,0.3,1.8
		v7.8h-3.8v-7.1c0-0.7-0.1-1.2-0.4-1.5c-0.3-0.4-0.7-0.5-1.3-0.5c-0.6,0-1.1,0.2-1.4,0.7c-0.3,0.5-0.5,1-0.5,1.8v6.7h-3.8v-7.1
		c0-0.7-0.1-1.2-0.4-1.5c-0.3-0.4-0.7-0.5-1.3-0.5c-0.6,0-1.1,0.2-1.4,0.7c-0.3,0.5-0.5,1-0.5,1.8v6.7h-3.8V6.6z"/>
	<path d="M217.2,0h3.2v3.6l3.1-1.8l1.6,2.7l-3.1,1.8l3.1,1.8l-1.6,2.7L220.3,9v3.6h-3.2V9l-3.1,1.8l-1.6-2.7l3.1-1.8l-3.1-1.8
		l1.6-2.7l3.1,1.8V0z"/>
</g>
</svg>
