<?xml version="1.0" encoding="utf-8"?>
<!-- Generator: Adobe Illustrator 22.0.0, SVG Export Plug-In . SVG Version: 6.00 Build 0)  -->
<svg version="1.1" id="Laag_1" xmlns="http://www.w3.org/2000/svg" xmlns:xlink="http://www.w3.org/1999/xlink" x="0px" y="0px"
	 viewBox="0 0 145.2 32.9" style="enable-background:new 0 0 145.2 32.9;" xml:space="preserve">
<style type="text/css">
	.st0{fill:#FFFFFF;}
</style>
<g>
	<path class="st0" d="M8.8,2.6H6.1v26.5H2.7V2.7H0v-2l8.8,0V2.6z"/>
	<path class="st0" d="M19.7,0.5L12,32.1H8.8l7.6-31.7H19.7z"/>
	<path class="st0" d="M28.2,14l1.3-13.4h4.6v28.5h-3l0-10l0.2-11.4h-0.3l-1.8,21.4h-3.4L24.1,7.7h-0.3l0.2,11.4v10h-3V0.6h4.7
		L27.1,14l0.4,6.8h0.3L28.2,14z"/>
	<path class="st0" d="M45.9,21.7h-2.5l-0.4,7.4h-3.4l2.4-28.5h5.3l2.5,28.5h-3.5L45.9,21.7z M45.8,19.7L45.1,7.5l-0.3-4.3h-0.3
		l-0.3,4.3l-0.7,12.2H45.8z"/>
	<path class="st0" d="M54.4,19.6v9.5h-3.3V0.6h4.6c2.7,0,4.5,1,4.5,2.9v13.1c0,2-1.9,3-4.5,3H54.4z M56.7,16.5V3.7
		c0-0.7-0.5-1.1-1.3-1.1h-1v14.9h1C56.3,17.6,56.7,17.2,56.7,16.5z"/>
	<path class="st0" d="M67.9,29.1l-1.1-11.6h-1.5v11.6h-3.3V0.6h4.6c2.7,0,4.4,0.9,4.4,2.9v10.9c0,1-0.5,1.7-1.2,2.1l1.5,12.5H67.9z
		 M66.1,15.5c0.9,0,1.3-0.3,1.3-1.1V3.7c0-0.7-0.5-1.1-1.3-1.1h-0.9v12.9H66.1z"/>
	<path class="st0" d="M76.3,0.6v28.5H73V0.6H76.3z"/>
	<path class="st0" d="M85.1,27.1v2h-6.5V0.6h3.3v26.5H85.1z"/>
	<path class="st0" d="M98.1,2.6h-2.7v26.5h-3.4V2.7h-2.7v-2l8.8,0V2.6z"/>
	<path class="st0" d="M105.9,27.1v2h-6.7V0.6h6.6v2h-3.2v10.7h3v2h-3v11.8H105.9z"/>
	<path class="st0" d="M119.4,27.1v2H111v-1.9l4.5-24.5h-4.3v-2h7.9l-0.1,2l-4.3,24.5H119.4z"/>
	<path class="st0" d="M124.1,0.6v28.5h-3.3V0.6H124.1z"/>
	<path class="st0" d="M133,27.1v2h-6.7V0.6h6.6v2h-3.2v10.7h3v2h-3v11.8H133z"/>
	<path class="st0" d="M140.6,8.5V0.6h3v28.5h-3.2l-3-18.5h-0.3l0.5,9.7v8.8h-3V0.6h3.3l2.9,17.5h0.3L140.6,8.5z"/>
</g>
</svg>
