<?xml version="1.0" encoding="utf-8"?>
<!-- Generator: Adobe Illustrator 22.1.0, SVG Export Plug-In . SVG Version: 6.00 Build 0)  -->
<svg version="1.1" id="Laag_1" xmlns="http://www.w3.org/2000/svg" xmlns:xlink="http://www.w3.org/1999/xlink" x="0px" y="0px"
	 width="113.1px" height="70.8px" viewBox="0 0 113.1 70.8" style="enable-background:new 0 0 113.1 70.8;" xml:space="preserve">
<style type="text/css">
	.st0{fill:#EDF9D6;}
</style>
<g>
	<path class="st0" d="M26.3,19.4c0,1.5-0.2,2.8-0.5,4.2c-0.4,1.3-0.9,2.5-1.5,3.6c-0.9,1.4-2,2.4-3.3,3.2c-1.4,0.7-2.9,1.1-4.7,1.1
		H6.7V7.6h9.6c1.5,0,2.9,0.3,4.1,0.8c1.2,0.6,2.3,1.3,3.2,2.3c0.9,1,1.5,2.2,2,3.7C26.1,16,26.3,17.6,26.3,19.4z M23,19.3
		c0-2.8-0.6-5-1.9-6.6c-1.2-1.5-3-2.3-5.3-2.3h-6v18.3H16c2.2,0,3.9-0.8,5.1-2.5C22.4,24.5,23,22.2,23,19.3z"/>
	<path class="st0" d="M30.1,11V7.6H33V11H30.1z M30.1,31.4V14.1H33v17.3H30.1z"/>
	<path class="st0" d="M51.7,30c0,1.1-0.1,2.1-0.2,2.8c-0.1,0.7-0.3,1.5-0.6,2.2c-0.6,1.2-1.4,2.1-2.7,2.8c-1.2,0.7-2.7,1-4.4,1
		c-0.9,0-1.8-0.1-2.5-0.3s-1.4-0.5-2-0.9c-0.3-0.2-0.6-0.4-0.8-0.6c-0.2-0.2-0.4-0.5-0.6-0.8c-0.2-0.3-0.3-0.6-0.4-1
		s-0.2-0.9-0.4-1.5H40c0.3,1,0.7,1.7,1.3,2.1c0.6,0.4,1.5,0.6,2.6,0.6c1.7,0,3-0.5,3.8-1.5c0.4-0.5,0.7-1.1,0.8-1.8
		c0.2-0.7,0.2-1.6,0.2-2.9v-0.7h-0.1c-0.2,0.4-0.4,0.8-0.6,0.9c-0.2,0.2-0.5,0.4-0.8,0.6c-0.9,0.6-2,0.9-3.2,0.9
		c-1.1,0-2.2-0.2-3.1-0.7c-0.9-0.5-1.7-1.1-2.4-1.9s-1.2-1.8-1.5-3c-0.4-1.2-0.5-2.5-0.5-3.9c0-1.3,0.2-2.5,0.5-3.6s0.8-2,1.5-2.7
		c0.6-0.8,1.4-1.4,2.2-1.8c0.9-0.4,1.8-0.6,2.9-0.6c1.4,0,2.5,0.4,3.5,1.1c0.3,0.2,0.6,0.5,0.8,0.7s0.5,0.6,0.9,1.2H49v-2.4h2.7V30z
		 M49,23.1c0-2.3-0.4-4-1.2-5.2c-0.8-1.2-2-1.8-3.6-1.8c-1.5,0-2.7,0.5-3.4,1.6c-0.8,1-1.2,2.6-1.2,4.7c0,2.2,0.4,3.9,1.2,5.1
		s2,1.8,3.5,1.8s2.7-0.5,3.5-1.6S49,25.1,49,23.1z"/>
	<path class="st0" d="M55.8,11V7.6h2.9V11H55.8z M55.8,31.4V14.1h2.9v17.3H55.8z"/>
	<path class="st0" d="M67,16.5v14.9h-3V16.5h-2.3v-2.4H64V9.3h3v4.8h2.8v2.4H67z"/>
	<path class="st0" d="M83.8,31.4v-2.3c-1.3,1.9-3,2.8-5.2,2.8c-1.1,0-2.1-0.2-2.9-0.7c-0.9-0.5-1.6-1.1-2.3-1.9
		c-0.6-0.8-1.1-1.8-1.5-2.9s-0.5-2.4-0.5-3.8c0-1.3,0.2-2.6,0.5-3.7s0.8-2.1,1.5-2.9c0.6-0.8,1.4-1.4,2.3-1.8c0.9-0.4,1.9-0.6,3-0.6
		c0.6,0,1.3,0.1,1.9,0.2c0.6,0.2,1.1,0.4,1.6,0.7c0.3,0.2,0.6,0.5,0.8,0.7c0.2,0.2,0.6,0.6,1,1.2v-2.3h2.7v17.3
		C86.7,31.4,83.8,31.4,83.8,31.4z M83.8,22.6c0-2.1-0.4-3.6-1.3-4.8c-0.8-1.1-2-1.7-3.6-1.7c-1.5,0-2.6,0.6-3.4,1.7
		s-1.2,2.8-1.2,4.9s0.4,3.8,1.2,4.9c0.8,1.1,1.9,1.7,3.4,1.7s2.7-0.6,3.5-1.8C83.3,26.5,83.8,24.8,83.8,22.6z"/>
	<path class="st0" d="M90.8,31.4V7.6h2.9v23.8H90.8z"/>
	<path class="st0" d="M100.3,23.7c0,0.7,0.1,1.2,0.1,1.5s0.1,0.7,0.2,1.1c0.3,1,0.9,1.8,1.7,2.3c0.8,0.6,1.8,0.8,2.9,0.8
		c0.6,0,1.2-0.1,1.7-0.2c0.5-0.2,1-0.4,1.4-0.7c0.4-0.3,0.7-0.7,1-1.1s0.4-0.9,0.5-1.4h2.9c-0.4,1.9-1.2,3.3-2.5,4.4
		c-1.3,1-3,1.6-4.9,1.6c-2.5,0-4.5-0.8-5.9-2.3c-1.4-1.6-2.1-3.7-2.1-6.5c0-1.5,0.2-2.8,0.6-3.9c0.4-1.2,0.9-2.2,1.6-3
		c0.7-0.8,1.6-1.5,2.6-1.9s2.2-0.7,3.4-0.7c2.8,0,4.8,1.1,6.1,3.4c0.5,0.8,0.8,1.6,1,2.3c0.1,0.3,0.2,0.6,0.2,0.9s0.1,0.5,0.1,0.8
		s0.1,0.7,0.1,1.1s0.1,0.9,0.1,1.5C113.1,23.7,100.3,23.7,100.3,23.7z M110,21.4c-0.1-0.6-0.1-1-0.2-1.3s-0.1-0.6-0.3-1
		c-0.3-0.9-0.9-1.6-1.6-2.1s-1.6-0.7-2.6-0.7c-1.4,0-2.6,0.5-3.5,1.4s-1.4,2.2-1.5,3.8L110,21.4L110,21.4z"/>
	<path class="st0" d="M27.1,61.5c0,0.2-0.1,0.4-0.1,0.5c0,0.1-0.1,0.3-0.1,0.5c-0.3,1.3-0.6,2.3-1,3c-0.4,0.8-0.8,1.5-1.4,2.1
		c-0.9,1.1-2.1,1.9-3.4,2.4c-1.3,0.6-2.8,0.8-4.4,0.8c-1.6,0-3.1-0.3-4.4-0.9c-1.3-0.6-2.4-1.4-3.4-2.5C8,66.3,7.3,65,6.8,63.5
		s-0.7-3.3-0.7-5.2s0.3-3.6,0.8-5.2c0.5-1.5,1.3-2.9,2.2-4c0.9-1.1,2.1-1.9,3.5-2.5c1.4-0.6,2.9-0.9,4.6-0.9c2.7,0,4.9,0.7,6.6,2
		c1.7,1.3,2.7,3.3,3.2,5.8h-3.1c-0.1-0.4-0.2-0.8-0.3-1.1c-0.1-0.3-0.2-0.6-0.3-0.8c-0.1-0.2-0.2-0.4-0.4-0.6s-0.3-0.4-0.5-0.6
		c-0.6-0.6-1.3-1-2.2-1.3c-0.9-0.3-1.8-0.5-2.8-0.5c-1.2,0-2.3,0.2-3.3,0.7c-1,0.4-1.8,1.1-2.5,1.9c-0.7,0.8-1.2,1.9-1.6,3.1
		c-0.4,1.2-0.5,2.6-0.5,4.1c0,3.1,0.7,5.5,2,7.1s3.2,2.5,5.7,2.5c2.3,0,4.1-0.9,5.4-2.6c0.2-0.3,0.4-0.5,0.5-0.8
		c0.1-0.2,0.3-0.5,0.4-0.8c0.1-0.3,0.2-0.6,0.3-1c0.1-0.4,0.2-0.8,0.4-1.4L27.1,61.5L27.1,61.5L27.1,61.5z"/>
	<path class="st0" d="M44.7,64.1c0,1.1-0.2,2.1-0.6,2.9s-0.9,1.5-1.5,2c-0.7,0.5-1.4,0.9-2.2,1.2c-0.8,0.3-1.7,0.4-2.7,0.4
		s-2-0.1-2.8-0.4c-0.9-0.3-1.6-0.7-2.2-1.3c-0.6-0.6-1.1-1.2-1.5-2.1c-0.3-0.8-0.5-1.7-0.5-2.8V52.9h2.9v11c0,1.4,0.4,2.4,1.1,3.1
		c0.7,0.7,1.7,1.1,3.1,1.1c1.3,0,2.3-0.4,3.1-1.1c0.7-0.7,1.1-1.8,1.1-3.1v-11h2.9v11.2H44.7z"/>
	<path class="st0" d="M49.1,70.2V46.4H52v23.8H49.1z"/>
	<path class="st0" d="M60.2,55.3v14.9h-2.9V55.3H55v-2.4h2.3v-4.8h2.9v4.8H63v2.4H60.2z"/>
	<path class="st0" d="M79.7,64.1c0,1.1-0.2,2.1-0.6,2.9s-0.9,1.5-1.5,2c-0.7,0.5-1.4,0.9-2.2,1.2c-0.8,0.3-1.7,0.4-2.7,0.4
		s-2-0.1-2.8-0.4c-0.9-0.3-1.6-0.7-2.2-1.3c-0.6-0.6-1.1-1.2-1.5-2.1c-0.3-0.8-0.5-1.7-0.5-2.8V52.9h2.9v11c0,1.4,0.4,2.4,1.1,3.1
		c0.7,0.7,1.7,1.1,3.1,1.1c1.3,0,2.3-0.4,3.1-1.1c0.7-0.7,1.1-1.8,1.1-3.1v-11h2.9v11.2H79.7z"/>
	<path class="st0" d="M98.1,64.1c0,1.1-0.2,2.1-0.6,2.9s-0.9,1.5-1.5,2c-0.7,0.5-1.4,0.9-2.2,1.2c-0.8,0.3-1.7,0.4-2.7,0.4
		s-2-0.1-2.8-0.4c-0.9-0.3-1.6-0.7-2.2-1.3c-0.6-0.6-1.1-1.2-1.5-2.1c-0.3-0.8-0.5-1.7-0.5-2.8V52.9H87v11c0,1.4,0.4,2.4,1.1,3.1
		c0.7,0.7,1.7,1.1,3.1,1.1c1.3,0,2.3-0.4,3.1-1.1c0.7-0.7,1.1-1.8,1.1-3.1v-11h2.9v11.2H98.1z"/>
	<path class="st0" d="M110.1,55.5c-0.6,0-1.2,0.1-1.8,0.3c-0.5,0.2-1,0.6-1.4,1c-0.4,0.4-0.7,0.9-0.9,1.5c-0.2,0.6-0.3,1.2-0.3,1.9
		v10.1h-2.9V52.9h2.7v2.9h0.1c0.3-0.5,0.5-0.8,0.7-1c0.1-0.2,0.3-0.4,0.6-0.7c0.5-0.5,1-0.9,1.7-1.2c0.6-0.3,1.3-0.4,2-0.4
		c0.2,0,0.5,0,0.7,0.1v3h-1.2V55.5z"/>
</g>
</svg>
