<?xml version="1.0" encoding="utf-8"?>
<!-- Generator: Adobe Illustrator 24.0.0, SVG Export Plug-In . SVG Version: 6.00 Build 0)  -->
<svg version="1.1" id="Laag_1" xmlns="http://www.w3.org/2000/svg" xmlns:xlink="http://www.w3.org/1999/xlink" x="0px" y="0px"
	 width="75.5px" height="39px" viewBox="0 0 75.5 39" style="enable-background:new 0 0 75.5 39;" xml:space="preserve">
<style type="text/css">
	.st0{fill:#FFFFFF;}
</style>
<g>
	<polygon class="st0" points="0,4.4 0,10.2 5.5,6.1 5.5,35.3 5.5,38.7 11,38.7 11,34.5 11,0.3 5.5,0.3 	"/>
	<path class="st0" d="M35.2,6.4c-0.1-0.5-0.3-1-0.4-1.4c-0.2-0.4-0.4-0.8-0.6-1.2c-0.7-1.1-1.7-2.1-2.9-2.7c-1.2-0.7-2.5-1-4-1
		c-1.5,0-2.9,0.3-4.1,1c-1.2,0.6-2.2,1.6-2.9,2.7C20,4.2,19.8,4.6,19.6,5c-0.2,0.4-0.3,0.9-0.3,1.4c-0.1,0.6-0.2,1.3-0.2,2.1
		c0,0.8-0.1,1.8-0.1,3.1c0,1.5,0,2.8,0.1,3.7c0,1,0.1,1.8,0.2,2.5c0.1,0.6,0.2,1.2,0.3,1.6c0.1,0.4,0.3,0.8,0.6,1.2
		c0.5,0.7,1.1,1.3,1.9,1.8c0.8,0.5,1.7,0.7,2.7,0.7c0.6,0,1.1,0,1.5-0.1c0.4-0.1,0.7-0.2,0.8-0.3l0.1,0.1l-3.9,10.1l-2.3,6h6.1
		l2.6-6.9l4.6-12.4c0.2-0.5,0.3-1,0.5-1.4c0.1-0.4,0.2-1,0.3-1.5c0.1-0.5,0.1-1.2,0.2-2c0-0.8,0.1-1.8,0.1-2.9c0-1.3,0-2.3-0.1-3.1
		C35.3,7.6,35.2,6.9,35.2,6.4z M29.9,15.4c0,0.8-0.3,1.5-0.8,2c-0.5,0.5-1.2,0.8-1.9,0.8c-0.7,0-1.3-0.3-1.9-0.8
		c-0.5-0.5-0.8-1.2-0.8-2V8.2c0-0.8,0.3-1.5,0.8-2c0.5-0.5,1.2-0.8,1.9-0.8c0.7,0,1.3,0.3,1.9,0.8c0.5,0.5,0.8,1.2,0.8,2V15.4z"/>
	<path class="st0" d="M54.9,16.1c0.2-0.5,0.3-1.2,0.4-2c0.1-0.8,0.1-1.9,0.1-3.2c0-2.3-0.2-4.1-0.5-5.3c-0.2-0.6-0.4-1.1-0.7-1.6
		c-0.3-0.4-0.6-0.9-0.9-1.3c-0.5-0.6-1.2-1.2-2.2-1.8c-1-0.6-2.2-0.9-3.7-0.9c-1.2,0-2.2,0.2-3.2,0.6c-1,0.4-1.9,1-2.6,1.7
		C40.7,3.1,40.1,4,39.7,5C39.3,6,39,7,39,8.1v3.2h5.5V8.2c0-0.6,0.2-1.2,0.6-1.8c0.4-0.6,1.1-0.9,2.1-0.9c0.8,0,1.5,0.3,2,0.8
		c0.5,0.5,0.7,1.1,0.7,1.9v5c0,1.4-0.3,2.4-0.9,2.7c-0.6,0.4-1.8,0.6-3.4,0.6v4.9c0.9,0,1.6,0,2.2,0.1c0.6,0.1,1,0.3,1.3,0.5
		c0.6,0.5,0.9,1.5,0.9,3v3.9v1.6c0,0.9-0.2,1.7-0.7,2.2c-0.5,0.6-1.1,0.8-2,0.8c-0.8,0-1.5-0.3-2-0.8c-0.5-0.6-0.7-1.3-0.7-2.1v-0.9
		v-1.9H39v2.7v0.4c0,1.5,0.3,2.8,0.8,3.8c0.5,1,1.2,1.9,2,2.5s1.7,1.1,2.6,1.4c1,0.3,1.9,0.4,2.7,0.4c1.7,0,3.1-0.3,4.2-1
		c1.1-0.7,1.9-1.5,2.6-2.5c0.3-0.4,0.5-0.8,0.7-1.2c0.2-0.4,0.3-0.9,0.4-1.5c0.1-0.5,0.2-1.2,0.2-2c0-0.7,0.1-1.7,0.1-2.8
		c0-0.1,0-0.2,0-0.4c0-1.4,0-2.5-0.1-3.4c0-0.9-0.2-1.6-0.4-2.3c-0.2-0.6-0.5-1.2-1-1.6c-0.4-0.5-1.1-1-2-1.5
		c0.8-0.5,1.4-0.9,1.9-1.3C54.3,17.2,54.7,16.7,54.9,16.1z"/>
	<path class="st0" d="M75,16.1c0.2-0.5,0.3-1.2,0.4-2c0.1-0.8,0.1-1.9,0.1-3.2c0-2.3-0.2-4.1-0.5-5.3c-0.2-0.6-0.4-1.1-0.7-1.6
		c-0.3-0.4-0.6-0.9-0.9-1.3c-0.5-0.6-1.2-1.2-2.2-1.8c-1-0.6-2.2-0.9-3.7-0.9c-1.1,0-2.2,0.2-3.2,0.6c-1,0.4-1.9,1-2.6,1.7
		C60.8,3.1,60.2,4,59.7,5c-0.4,1-0.6,2.1-0.6,3.2v3.2h5.5V8.2c0-0.6,0.2-1.2,0.6-1.8c0.4-0.6,1.1-0.9,2.1-0.9c0.8,0,1.5,0.3,2,0.8
		C69.7,6.8,70,7.4,70,8.2v5c0,1.4-0.3,2.4-0.9,2.7c-0.6,0.4-1.8,0.6-3.4,0.6v4.9c0.9,0,1.6,0,2.2,0.1c0.6,0.1,1,0.3,1.3,0.5
		c0.6,0.5,0.9,1.5,0.9,3v0.9v4.5c0,0.9-0.2,1.7-0.7,2.2c-0.5,0.6-1.1,0.8-2,0.8c-0.8,0-1.5-0.3-2-0.8c-0.5-0.6-0.7-1.3-0.7-2.1v-2.9
		h-5.5v3.1c0,1.5,0.3,2.8,0.8,3.8c0.5,1,1.2,1.9,2,2.5s1.7,1.1,2.6,1.4c1,0.3,1.9,0.4,2.7,0.4c1.7,0,3.1-0.3,4.2-1
		c1.1-0.7,1.9-1.5,2.6-2.5c0.3-0.4,0.5-0.8,0.7-1.2c0.2-0.4,0.3-0.9,0.4-1.5c0.1-0.5,0.2-1.2,0.2-2c0.1-0.8,0.1-1.9,0.1-3.1
		c0-1,0-1.8,0-2.5c0-0.3,0-0.6,0-0.8c0-0.9-0.2-1.6-0.4-2.3c-0.2-0.6-0.5-1.2-1-1.6c-0.4-0.5-1.1-1-2-1.5c0.8-0.5,1.4-0.9,1.9-1.3
		C74.4,17.2,74.7,16.7,75,16.1z"/>
</g>
</svg>
