<?xml version="1.0" encoding="utf-8"?>
<!-- Generator: Adobe Illustrator 24.0.0, SVG Export Plug-In . SVG Version: 6.00 Build 0)  -->
<svg version="1.1" id="Laag_1" xmlns="http://www.w3.org/2000/svg" xmlns:xlink="http://www.w3.org/1999/xlink" x="0px" y="0px"
	 width="164.5px" height="49.7px" viewBox="0 0 164.5 49.7" style="enable-background:new 0 0 164.5 49.7;" xml:space="preserve">
<g>
	<path d="M21.6,40.5c0,5.4,2.7,9.2,7.5,9.2c4.8,0,7.5-3.8,7.5-9.2c0-5.4-2.7-9.2-7.5-9.2C24.3,31.4,21.6,35.1,21.6,40.5L21.6,40.5z
		 M26.4,40.5c0-3,0.7-5.1,2.6-5.1c2,0,2.7,2,2.7,5.1c0,3-0.7,5.1-2.7,5.1C27.2,45.6,26.4,43.5,26.4,40.5L26.4,40.5z M44.8,49.7
		c4.1,0,6.8-2.4,6.8-5.4c0-2.1-1.1-3.3-2.6-4c1.2-0.5,2.3-1.9,2.3-3.7c0-3-2.4-5.3-6.4-5.3c-4.1,0-6.6,2.6-7,5.8l4.5,0.4
		c0.2-1.2,1-2.1,2.3-2.1c1.2,0,1.8,0.6,1.8,1.6c0,1.1-0.9,1.6-2.2,1.6h-1.5v3.7h1.6c1.4,0,2.4,0.4,2.4,1.6c0,1.2-1,1.8-2.1,1.8
		c-1.3,0-2.3-0.8-2.4-2.2l-4.8,0.7C38,47.7,40.9,49.7,44.8,49.7L44.8,49.7z M57.8,49.3c0.6,0.1,1.5,0.1,2.3,0.1
		c3.8,0,6.5-1.6,6.5-5.5V31.6h-4.8v11.5c0,1.6-0.7,2.2-2.3,2.2c-0.5,0-1.1,0-1.7-0.1V49.3L57.8,49.3z M73.3,31.6l-6.4,17.7h4.8
		l1.1-3.2h6.4l1.1,3.2h4.9l-6.4-17.7H73.3L73.3,31.6z M76,37l1.9,5.3h-3.7L76,37L76,37z M102.7,31.6H98v9.7l-6.5-9.7h-4.7v17.7h4.6
		V39.1l7.1,10.3h4.2V31.6L102.7,31.6z M110,46v3.4h13.3v-4.1H117l2.7-2.2c2-1.7,3.5-3.5,3.5-5.9c0-3.4-2.6-5.8-6.6-5.8
		c-3.7,0-6.9,2.4-6.9,6c0,0.6,0.1,1.2,0.3,1.9h4.6c-0.2-0.5-0.3-1-0.3-1.6c0-1.2,0.7-2.3,2.1-2.3c1.3,0,2,1,2,2
		c0,1.4-1.3,2.6-3.5,4.4L110,46L110,46z M124.6,40.5c0,5.4,2.7,9.2,7.5,9.2c4.8,0,7.5-3.8,7.5-9.2c0-5.4-2.7-9.2-7.5-9.2
		C127.3,31.4,124.6,35.1,124.6,40.5L124.6,40.5z M129.5,40.5c0-3,0.7-5.1,2.6-5.1c1.9,0,2.7,2,2.7,5.1c0,3-0.7,5.1-2.7,5.1
		C130.2,45.6,129.5,43.5,129.5,40.5L129.5,40.5z M141.2,46v3.4h13.3v-4.1h-6.2l2.7-2.2c2-1.7,3.5-3.5,3.5-5.9c0-3.4-2.6-5.8-6.6-5.8
		c-3.7,0-6.9,2.4-6.9,6c0,0.6,0.1,1.2,0.3,1.9h4.6c-0.2-0.5-0.3-1-0.3-1.6c0-1.2,0.7-2.3,2-2.3c1.3,0,2,1,2,2c0,1.4-1.3,2.6-3.5,4.4
		L141.2,46L141.2,46z M160.7,31.6c-0.3,2-1.4,2.8-3.8,2.9l-1.3,0.1v3.7h3.9v11.1h4.8V31.6H160.7L160.7,31.6z"/>
	<path d="M0.3,14.7V18h13.3v-4.1H7.4l2.7-2.2c2-1.7,3.5-3.5,3.5-5.9C13.6,2.4,11,0,7,0C3.3,0,0.1,2.4,0.1,6c0,0.6,0.1,1.2,0.3,1.9
		h4.6C4.9,7.5,4.8,7,4.8,6.4c0-1.2,0.7-2.3,2-2.3c1.3,0,2,1,2,2c0,1.4-1.3,2.6-3.5,4.4L0.3,14.7L0.3,14.7z M28.9,4
		c-1-2.4-2.8-4-6.2-4c-4.8,0-7.8,4-7.8,9.5c0,4.9,2.6,8.8,7.2,8.8c4,0,6.8-2.7,6.8-6.3c0-3.3-2.4-5.7-6-5.7c-1.5,0-2.7,0.6-3.4,1.3
		c0-2,1.2-3.8,3.1-3.8c1.3,0,2.2,0.8,2.5,1.8L28.9,4L28.9,4z M24.4,12.1c0,1.4-1,2.4-2.4,2.4c-1.4,0-2.4-1-2.4-2.4
		c0-1.3,1.1-2.4,2.4-2.4C23.4,9.8,24.4,10.8,24.4,12.1L24.4,12.1z M34.1,15.4c1.5,1.8,4.9,3,7.8,3c4.1,0,7.5-2.2,7.5-6
		c0-4-3.5-4.7-6.2-5.3c-2.1-0.4-3.2-0.6-3.2-1.6c0-0.9,0.9-1.4,2.2-1.4c1.8,0,3.3,0.7,4.5,2l2.6-3.3c-1.4-1.5-3.9-2.7-7-2.7
		c-3.9,0-7.1,2.2-7.1,5.9c0,3.6,2.8,4.6,5.4,5.1c2.7,0.5,4,0.7,4,1.8c0,1-1,1.6-2.5,1.6c-1.8,0-3.8-0.8-5.3-2.5L34.1,15.4L34.1,15.4
		z M51.1,0.3V18H64v-4.1h-8.2V11h6.8V7h-6.8V4.4H64V0.3H51.1L51.1,0.3z M71.1,12.4H74c4.4,0,7.1-2.1,7.1-6c0-4-2.7-6-7.1-6h-7.8V18
		h4.8V12.4L71.1,12.4z M71.1,8.3v-4h2.7c1.7,0,2.5,0.7,2.5,2c0,1.2-0.8,2-2.5,2H71.1L71.1,8.3z M97.1,4.4V0.3H81.9v4.1h5.2V18h4.8
		V4.4H97.1L97.1,4.4z M103.6,14.7V18h13.3v-4.1h-6.2l2.7-2.2c2.1-1.7,3.5-3.5,3.5-5.9c0-3.4-2.6-5.8-6.6-5.8c-3.7,0-6.9,2.4-6.9,6
		c0,0.6,0.1,1.2,0.3,1.9h4.6c-0.2-0.5-0.3-1-0.3-1.6c0-1.2,0.7-2.3,2-2.3c1.3,0,2,1,2,2c0,1.4-1.3,2.6-3.5,4.4L103.6,14.7
		L103.6,14.7z M118.3,9.2c0,5.4,2.7,9.2,7.5,9.2c4.8,0,7.5-3.8,7.5-9.2c0-5.4-2.7-9.2-7.5-9.2C120.9,0,118.3,3.8,118.3,9.2
		L118.3,9.2z M123.1,9.2c0-3,0.7-5.1,2.6-5.1c1.9,0,2.7,2,2.7,5.1c0,3-0.7,5.1-2.7,5.1C123.8,14.2,123.1,12.2,123.1,9.2L123.1,9.2z
		 M134.9,14.7V18h13.3v-4.1h-6.2l2.7-2.2c2-1.7,3.5-3.5,3.5-5.9c0-3.4-2.6-5.8-6.6-5.8c-3.7,0-6.9,2.4-6.9,6c0,0.6,0.1,1.2,0.3,1.9
		h4.6c-0.2-0.5-0.3-1-0.3-1.6c0-1.2,0.7-2.3,2-2.3c1.3,0,2,1,2,2c0,1.4-1.3,2.6-3.5,4.4L134.9,14.7L134.9,14.7z M149.5,9.2
		c0,5.4,2.7,9.2,7.5,9.2c4.8,0,7.5-3.8,7.5-9.2c0-5.4-2.7-9.2-7.5-9.2C152.2,0,149.5,3.8,149.5,9.2L149.5,9.2z M154.4,9.2
		c0-3,0.7-5.1,2.6-5.1c2,0,2.7,2,2.7,5.1c0,3-0.7,5.1-2.7,5.1C155.1,14.2,154.4,12.2,154.4,9.2L154.4,9.2z"/>
	<polygon points="0,44 17,44 17,40.2 0,40.2 0,44 	"/>
</g>
</svg>
