<?xml version="1.0" encoding="utf-8"?>
<!-- Generator: Adobe Illustrator 24.0.0, SVG Export Plug-In . SVG Version: 6.00 Build 0)  -->
<svg version="1.1" id="Laag_1" xmlns="http://www.w3.org/2000/svg" xmlns:xlink="http://www.w3.org/1999/xlink" x="0px" y="0px"
	 width="4473.4px" height="687.6px" viewBox="0 0 4473.4 687.6" style="enable-background:new 0 0 4473.4 687.6;"
	 xml:space="preserve">
<style type="text/css">
	.st0{fill:#00269A;}
	.st1{fill:#FFFFFF;}
</style>
<g>
	<path class="st0" d="M89.9,7.5L0,680.1h135.8L149,545.2h70.3l14.1,134.9h140.5L282.9,7.5H89.9L89.9,7.5z M171.4,317.6l11.2-126.5
		h1.9l12.2,126.5L208,430h-47.8L171.4,317.6L171.4,317.6z M578.9,408.5c22.5,0,32.8,14.1,32.8,39.3v147.1c0,32.8,1.9,63.7,10.3,85.3
		h143.3c-8.4-22.5-10.3-54.3-10.3-89.9V445c0-44-16.9-83.4-60-100.2c41.2-15,61.8-54.3,61.8-99.3v-94.6
		c0-94.6-51.5-143.3-157.4-143.3H410.3v672.6h143.3V408.5H578.9L578.9,408.5z M612.7,167.7v80.6c0,23.4-10.3,36.5-29,36.5h-30V131.2
		h30C602.4,131.2,612.7,145.2,612.7,167.7L612.7,167.7z M1125.6,135.8V7.5H793.9v128.3h93.7v544.3h144.3V135.8H1125.6L1125.6,135.8z
		 M1515.3,528.4c0,23.4-9.4,38.4-29,38.4c-19.7,0-30-15-30-38.4V7.5h-143.3v524.6c0,93.7,67.4,155.5,173.3,155.5
		c105.9,0,173.3-61.8,173.3-155.5V7.5h-144.3V528.4L1515.3,528.4z M1894.4,528.4c0,23.4-8.4,38.4-27.2,38.4
		c-19.7,0-28.1-15-28.1-38.4V430h-140.5v102.1c0,94.6,60.9,155.5,166.7,155.5c105.9,0,173.3-60.9,173.3-155.5V445
		c0-59-19.7-91.8-64.6-121.8l-109.6-77.8c-15-11.2-21.5-22.5-21.5-45.9v-40.3c0-23.4,8.4-38.4,28.1-38.4c18.7,0,27.2,15,27.2,38.4
		v86.2h139.6v-89.9C2037.7,60.9,1976.8,0,1871,0c-105.9,0-172.4,60.9-172.4,155.5v72.1c0,59,19.7,91.8,64.6,121.8l109.6,78.7
		c15,11.2,21.5,21.5,21.5,45.9V528.4L1894.4,528.4z M2153,7.5l-89.9,672.6h135.8l13.1-134.9h70.3l14,134.9h140.5L2346,7.5H2153
		L2153,7.5z M2940.9,135.8V7.5h-331.6v128.3h93.7v544.3h144.3V135.8H2940.9L2940.9,135.8z M3151.9,0
		c-105.9,0-173.3,61.8-173.3,155.5v376.6c0,93.7,67.5,155.5,173.3,155.5c105.9,0,173.3-61.8,173.3-155.5V155.5
		C3325.3,61.8,3257.8,0,3151.9,0L3151.9,0z M3151.9,120.8c19.7,0,29,15,29,38.4v369.1c0,23.4-9.4,38.4-29,38.4
		c-19.7,0-30-15-30-38.4V159.3C3122,135.8,3132.3,120.8,3151.9,120.8L3151.9,120.8z M3545.9,7.5h-176.1v672.6h176.1
		c105.9,0,170.5-61.8,170.5-155.5V163C3716.4,69.3,3651.7,7.5,3545.9,7.5L3545.9,7.5z M3543.1,131.2c18.7,0,29,14.1,29,36.5v352.2
		c0,22.5-10.3,36.5-29,36.5h-30V131.2H3543.1L3543.1,131.2z M3832.8,7.5l-89.9,672.6h135.8l13.1-134.9h70.3l14,134.9h140.5
		L4025.8,7.5H3832.8L3832.8,7.5z M3914.3,317.6l11.2-126.5h1.9l12.2,126.5l11.2,112.4h-47.8L3914.3,317.6L3914.3,317.6z
		 M4356.3,406.6L4473.4,7.5h-140.5l-44,210.8h-1.9L4242,7.5h-146.1l115.2,395.3v277.3h145.2V406.6L4356.3,406.6z"/>
	<polygon class="st1" points="2158.2,406 2213.2,446 2192.2,510.7 2247.2,470.7 2302.2,510.7 2281.2,446 2336.2,406 2268.2,406 
		2247.2,341.3 2226.2,406 2158.2,406 	"/>
</g>
</svg>
