<?xml version="1.0" encoding="utf-8"?>
<!-- Generator: Adobe Illustrator 24.3.0, SVG Export Plug-In . SVG Version: 6.00 Build 0)  -->
<svg version="1.1" id="Laag_1" xmlns="http://www.w3.org/2000/svg" xmlns:xlink="http://www.w3.org/1999/xlink" x="0px" y="0px"
	 width="127.5px" height="103px" viewBox="0 0 127.5 103" style="enable-background:new 0 0 127.5 103;" xml:space="preserve">
<style type="text/css">
	.st0{fill:#1D1D1B;}
</style>
<g>
	<g>
		<path class="st0" d="M20.4,27.8V11.9h-0.1l-3.6,15.8h-5.5L7.5,11.9H7.3v15.8H2V0h7.7l4.1,17.2h0.1L18,0h7.7v27.7H20.4z"/>
		<path class="st0" d="M46.8,20.2c0,1.2-0.2,2.3-0.7,3.3c-0.4,1-1,1.9-1.8,2.7c-0.8,0.8-1.6,1.4-2.6,1.8c-1,0.4-2.1,0.7-3.2,0.7
			c-1.1,0-2.2-0.2-3.2-0.7c-1-0.4-1.9-1-2.6-1.8c-0.8-0.8-1.3-1.7-1.8-2.7c-0.4-1-0.6-2.1-0.6-3.3V0h5.3v20.2c0,0.8,0.3,1.5,0.9,2.1
			c0.6,0.6,1.3,0.9,2,0.9c0.8,0,1.5-0.3,2.1-0.9c0.6-0.6,0.9-1.3,0.9-2.1V0h5.3V20.2z"/>
		<path class="st0" d="M51.3,27.8v-5.4L60,5.5h-8.3V0.1h14.4v5.4l-8.8,16.8h9.5v5.4H51.3z"/>
		<path class="st0" d="M71.4,27.8V0.1h5.3v27.7H71.4z"/>
		<path class="st0" d="M81.3,27.8V0.1h13.4v5.4h-7.8v5.7h7.8v5.4h-7.8v5.7h7.8v5.4H81.3z"/>
		<path class="st0" d="M111.1,27.8l-6.4-12.7h-0.1v12.7h-5.3V0h5.3v11.3h0.1L110.2,0h5.9l-6.6,13.2l7.6,14.5H111.1z"/>
		<path class="st0" d="M119.7,16.6v-5.4h7.8v5.4H119.7z"/>
	</g>
	<g>
		<path class="st0" d="M2,64.8V37.1h5.7v22.2h7.8v5.4H2z"/>
		<path class="st0" d="M17.3,64.8V37.1h13.4v5.4H23v5.7h7.8v5.4H23v5.7h7.8v5.4H17.3z"/>
		<path class="st0" d="M52.2,56.6c0,1.2-0.2,2.4-0.7,3.5c-0.4,1.1-1.1,2-1.8,2.9c-0.8,0.8-1.7,1.5-2.8,2c-1.1,0.5-2.3,0.7-3.6,0.7
			c-1.1,0-2.2-0.2-3.2-0.7c-1-0.4-1.9-1-2.6-1.8s-1.3-1.7-1.8-2.7c-0.4-1-0.7-2.1-0.7-3.3v-2.6h5.3v2.6c0,0.8,0.3,1.5,0.9,2.1
			c0.6,0.6,1.3,0.9,2.1,0.9c1.1,0,2-0.3,2.6-0.9c0.6-0.6,0.9-1.5,0.9-2.6c0-0.6-0.1-1-0.3-1.4c-0.2-0.4-0.4-0.7-0.7-0.9
			c-0.3-0.2-0.7-0.4-1.1-0.6s-0.9-0.3-1.4-0.4c-1.2-0.2-2.3-0.6-3.3-1c-1-0.4-1.8-1-2.6-1.7c-0.7-0.7-1.3-1.5-1.7-2.5
			c-0.4-1-0.6-2.2-0.6-3.5c0-1.2,0.2-2.3,0.7-3.3c0.4-1,1-1.9,1.8-2.7c0.7-0.8,1.6-1.4,2.6-1.8c1-0.4,2.1-0.7,3.2-0.7
			c1.1,0,2.2,0.2,3.2,0.7c1,0.4,1.9,1,2.6,1.8c0.7,0.8,1.3,1.7,1.8,2.7c0.4,1,0.7,2.1,0.7,3.3v1.6h-5.3v-1.6c0-0.8-0.3-1.5-0.8-2.1
			c-0.6-0.6-1.2-0.9-2.1-0.9c-0.8,0-1.5,0.3-2.1,0.8c-0.6,0.6-0.9,1.3-0.9,2.1c0,0.6,0.1,1.1,0.2,1.5c0.1,0.4,0.3,0.7,0.6,1
			s0.6,0.4,1,0.6c0.4,0.1,0.9,0.3,1.4,0.4c1.1,0.2,2.2,0.6,3.2,1c1,0.4,2,1,2.8,1.7c0.8,0.7,1.4,1.5,1.9,2.5
			C51.9,54.2,52.2,55.3,52.2,56.6z"/>
	</g>
	<g>
		<path class="st0" d="M11.5,101.8H6L0,74h5.5l3.2,17.2h0.1L12,74h5.5L11.5,101.8z"/>
		<path class="st0" d="M35.3,94.2c0,1.2-0.2,2.3-0.7,3.3c-0.4,1-1,1.9-1.8,2.7s-1.6,1.4-2.6,1.8c-1,0.4-2.1,0.7-3.2,0.7
			c-1.1,0-2.2-0.2-3.2-0.7c-1-0.4-1.9-1-2.6-1.8s-1.3-1.7-1.8-2.7c-0.4-1-0.6-2.1-0.6-3.3V81.5c0-1.2,0.2-2.2,0.7-3.3
			c0.4-1,1-1.9,1.8-2.7c0.7-0.8,1.6-1.4,2.6-1.8c1-0.4,2.1-0.7,3.2-0.7c1.1,0,2.2,0.2,3.2,0.7c1,0.4,1.9,1,2.6,1.8
			c0.7,0.8,1.3,1.7,1.8,2.7c0.4,1,0.7,2.1,0.7,3.3V94.2z M30,81.5c0-0.8-0.3-1.5-0.8-2.1c-0.6-0.6-1.2-0.9-2.1-0.9
			c-0.8,0-1.5,0.3-2.1,0.9c-0.6,0.6-0.9,1.3-0.9,2.1v12.7c0,0.8,0.3,1.5,0.8,2.1c0.6,0.6,1.2,0.9,2.1,0.9c0.8,0,1.5-0.3,2.1-0.9
			c0.6-0.6,0.9-1.3,0.9-2.1V81.5z"/>
		<path class="st0" d="M38.7,101.8V74.1h5.7v22.2h7.8v5.4H38.7z"/>
		<path class="st0" d="M69.6,94.2c0,1.2-0.2,2.2-0.7,3.3c-0.4,1-1,1.9-1.8,2.7c-0.8,0.8-1.6,1.4-2.6,1.8c-1,0.4-2.1,0.7-3.2,0.7
			c-1.1,0-2.2-0.2-3.2-0.7c-1-0.4-1.9-1-2.6-1.8s-1.3-1.7-1.8-2.7c-0.4-1-0.7-2.1-0.7-3.3V81.5c0-1.2,0.2-2.2,0.7-3.3
			c0.4-1,1-1.9,1.8-2.7c0.7-0.8,1.6-1.4,2.6-1.8c1-0.4,2.1-0.7,3.2-0.7c1.1,0,2.2,0.2,3.2,0.7c1,0.4,1.9,1,2.6,1.8
			c0.7,0.8,1.3,1.7,1.8,2.7c0.4,1,0.7,2.1,0.7,3.3v1.1h-5.3v-1.1c0-0.8-0.3-1.5-0.8-2.1c-0.6-0.6-1.2-0.9-2.1-0.9
			c-0.8,0-1.5,0.3-2.1,0.9s-0.9,1.3-0.9,2.1v12.7c0,0.8,0.3,1.5,0.9,2.1c0.6,0.6,1.3,0.9,2.1,0.9c0.8,0,1.5-0.3,2.1-0.9
			c0.6-0.6,0.9-1.3,0.9-2.1v-2.6h-3v-5.4h8.3V94.2z"/>
		<path class="st0" d="M72.1,101.8V74.1h13.4v5.4h-7.8v5.7h7.8v5.4h-7.8v5.7h7.8v5.4H72.1z"/>
		<path class="st0" d="M101,101.8l-6.6-17.3h-0.1v17.3h-5.3V74h6.9l5.5,14.2h0.1V74h5.3v27.7H101z"/>
		<path class="st0" d="M126.6,81.6c0,1.8-0.3,3.2-1,4.3c-0.7,1.1-1.7,2.1-3.1,3c-0.6,0.4-1,0.9-1.3,1.4s-0.4,1.1-0.4,1.8v2.4h-5.3
			v-2.5c0-3.4,1.4-5.9,4.2-7.7c0.6-0.4,1-0.8,1.2-1.2c0.2-0.4,0.4-1,0.4-1.7c0-0.9-0.3-1.6-0.8-2.1c-0.6-0.6-1.3-0.8-2.1-0.8
			c-0.8,0-1.5,0.3-2.1,0.9c-0.6,0.6-0.8,1.3-0.8,2.1v1.7h-5.3v-1.6c0-1.2,0.2-2.3,0.7-3.3c0.4-1,1-1.9,1.8-2.7
			c0.7-0.8,1.6-1.4,2.6-1.8c1-0.4,2.1-0.7,3.2-0.7c1.1,0,2.2,0.2,3.2,0.7c1,0.5,1.9,1.1,2.6,1.8c0.7,0.8,1.3,1.7,1.8,2.7
			C126.4,79.3,126.6,80.4,126.6,81.6z M121.6,99.5c0,1-0.3,1.8-1,2.5c-0.7,0.7-1.5,1-2.5,1c-1,0-1.8-0.3-2.4-1c-0.7-0.7-1-1.5-1-2.5
			s0.3-1.8,1-2.5c0.7-0.7,1.5-1,2.4-1c1,0,1.8,0.3,2.5,1C121.3,97.7,121.6,98.5,121.6,99.5z"/>
	</g>
</g>
</svg>
