<?xml version="1.0" encoding="utf-8"?>
<!-- Generator: Adobe Illustrator 24.0.0, SVG Export Plug-In . SVG Version: 6.00 Build 0)  -->
<svg version="1.1" id="Laag_1" xmlns="http://www.w3.org/2000/svg" xmlns:xlink="http://www.w3.org/1999/xlink" x="0px" y="0px"
	 width="163.5px" height="29px" viewBox="0 0 163.5 29" style="enable-background:new 0 0 163.5 29;" xml:space="preserve">
<g>
	<path d="M6.5,13.3V9.2H17v4.1l-3.7-3.1V20h-3.2v-9.7L6.5,13.3z"/>
	<path d="M17.2,19.1L27,8.7l1.2,1.1l-9.9,10.3L17.2,19.1z"/>
	<path d="M29.3,20V8.6l5.9,7l5.9-7V20h-3.2v-3.6l-2.7,4l-2.7-4V20H29.3z"/>
	<path d="M49.1,16.4c0.3,0.6,0.4,0.8,0.7,1.1c0.4,0.3,0.8,0.5,1.3,0.5c1,0,1.7-0.6,1.7-1.5c0-0.8-0.6-1.4-1.5-1.4
		c-0.3,0-0.5,0.1-0.9,0.3l-1-0.9l1.8-2.5h-3.9l1-2.8h7.4L53,13.4c0.7,0.2,1,0.2,1.4,0.5c1,0.5,1.5,1.5,1.5,2.7c0,2.2-2,3.8-4.6,3.8
		c-1.2,0-2.4-0.4-3.3-1.1c-0.6-0.5-0.9-0.9-1.5-1.9L49.1,16.4z"/>
	<path d="M62.4,8.9c3.2,0,5.1,2.1,5.1,5.7c0,3.6-1.9,5.7-5.1,5.7c-3.2,0-5.1-2.1-5.1-5.7C57.2,11,59.1,8.9,62.4,8.9z M60.4,14.6
		c0,2.2,0.7,3.2,2,3.2c1.3,0,2-1.1,2-3.2c0-2.2-0.7-3.2-2-3.2C61,11.4,60.4,12.5,60.4,14.6z"/>
	<path d="M71.4,20l6.7-11.4L84.9,20h-3.7L80,18.1l-1.9,2.1l-1.9-2.2L75.1,20H71.4z M78.1,14.5l-1.4,2.9h2.9L78.1,14.5z"/>
	<path d="M86.1,19.2c-0.9-0.8-1.3-1.8-1.3-3.4V9.2h3.2v6.1c0,1.1,0.1,1.3,0.4,1.7c0.3,0.3,0.8,0.6,1.3,0.6c0.5,0,1-0.2,1.3-0.6
		c0.3-0.3,0.4-0.6,0.4-1.7V9.2h3.2v6.5c0,1.6-0.4,2.6-1.3,3.4c-0.9,0.8-1.7,1-3.6,1.2C87.9,20.2,87.1,20,86.1,19.2z"/>
	<path d="M97.5,10.6c1.1-1.1,2.6-1.6,4.2-1.6c0.5,0,1.1,0.1,1.6,0.2c0.9,0.2,1.2,0.4,2.1,0.9l-1.3,2.4c-0.3-0.2-0.4-0.3-0.6-0.4
		c-0.5-0.3-1.1-0.5-1.8-0.5c-1.7,0-2.9,1.2-2.9,3c0,1.7,1,2.9,2.5,2.9c1.2,0,1.9-0.5,2.1-1.5h-2v-2.3h5.4c0,2.4-0.3,3.4-1.2,4.6
		c-1,1.3-2.5,2-4.4,2c-1.5,0-2.8-0.5-3.9-1.5c-1.2-1.1-1.5-2-1.7-4.2C96,12.5,96.4,11.6,97.5,10.6z"/>
	<path d="M109.4,19.2c-0.9-0.8-1.3-1.8-1.3-3.4V9.2h3.2v6.1c0,1.1,0.1,1.3,0.4,1.7c0.3,0.3,0.8,0.6,1.3,0.6c0.5,0,1-0.2,1.3-0.6
		c0.3-0.3,0.4-0.6,0.4-1.7V9.2h3.2v6.5c0,1.6-0.4,2.6-1.3,3.4c-0.9,0.8-1.7,1-3.6,1.2C111.1,20.2,110.3,20,109.4,19.2z"/>
	<path d="M119.1,17.4c0.4,0,0.7,0.1,0.9,0.1c0.7,0.1,1.4,0.1,2.1,0.1c1.5,0,2-0.1,2-0.6c0-0.3-0.2-0.5-1.1-1l-0.7-0.4
		c-2.2-1.2-3-2.1-3-3.5c0-2.1,1.7-3.2,4.9-3.2c0.4,0,0.8,0,1.3,0.1c0.7,0,0.9,0.1,1.5,0.2v2.5c-0.4,0-0.6-0.1-0.8-0.1
		c-0.8-0.1-1.4-0.1-1.9-0.1c-1.2,0-1.6,0.1-1.6,0.6c0,0.2,0.1,0.3,0.4,0.5c0.2,0.1,0.3,0.2,0.4,0.3c0.3,0.2,0.6,0.3,0.6,0.4l0.8,0.4
		c1.8,1,2.5,2,2.5,3.3c0,2.1-1.6,3.2-5,3.2c-0.5,0-1.2,0-1.8-0.1c-0.7-0.1-1-0.1-1.7-0.2V17.4z"/>
	<path d="M126.5,13.3V9.2h10.6v4.1l-3.7-3.1V20h-3.2v-9.7L126.5,13.3z"/>
	<path d="M138.9,19.2c-0.9-0.8-1.3-1.8-1.3-3.4V9.2h3.2v6.1c0,1.1,0.1,1.3,0.4,1.7c0.3,0.3,0.8,0.6,1.3,0.6c0.5,0,1-0.2,1.3-0.6
		c0.3-0.3,0.4-0.6,0.4-1.7V9.2h3.2v6.5c0,1.6-0.4,2.6-1.3,3.4c-0.9,0.8-1.7,1-3.6,1.2C140.6,20.2,139.8,20,138.9,19.2z"/>
	<path d="M148.6,17.4c0.4,0,0.7,0.1,0.9,0.1c0.7,0.1,1.4,0.1,2.1,0.1c1.5,0,2-0.1,2-0.6c0-0.3-0.2-0.5-1.1-1l-0.7-0.4
		c-2.2-1.2-3-2.1-3-3.5c0-2.1,1.7-3.2,4.9-3.2c0.4,0,0.8,0,1.3,0.1c0.7,0,0.9,0.1,1.5,0.2v2.5c-0.4,0-0.6-0.1-0.8-0.1
		c-0.8-0.1-1.4-0.1-1.9-0.1c-1.2,0-1.6,0.1-1.6,0.6c0,0.2,0.1,0.3,0.4,0.5c0.2,0.1,0.3,0.2,0.4,0.3c0.3,0.2,0.6,0.3,0.6,0.4l0.8,0.4
		c1.8,1,2.5,2,2.5,3.3c0,2.1-1.6,3.2-5,3.2c-0.5,0-1.2,0-1.8-0.1c-0.7-0.1-1-0.1-1.7-0.2V17.4z"/>
</g>
</svg>
