<?xml version="1.0" encoding="utf-8"?>
<!-- Generator: Adobe Illustrator 24.3.0, SVG Export Plug-In . SVG Version: 6.00 Build 0)  -->
<svg version="1.1" id="Laag_1" xmlns="http://www.w3.org/2000/svg" xmlns:xlink="http://www.w3.org/1999/xlink" x="0px" y="0px"
	 width="145.2px" height="30.5px" viewBox="0 0 145.2 30.5" style="enable-background:new 0 0 145.2 30.5;" xml:space="preserve">
<style type="text/css">
	.st0{clip-path:url(#SVGID_1_);}
	.st1{fill:#FAE513;}
	.st2{fill:none;}
	.st3{fill:#5F3A4E;}
</style>
<g>
	<defs>
		<rect id="SVGID_3_" x="23.8" y="0" width="132.6" height="24"/>
	</defs>
	<clipPath id="SVGID_1_">
		<use xlink:href="#SVGID_3_"  style="overflow:visible;"/>
	</clipPath>
	<g class="st0">
		<g>
			<g>
				<path class="st1" d="M12.2,3.6h1.2l-1.7,7.1h-1.6L8.8,5.4H8.7l-1.4,5.3H5.7L4,3.6h1.2l1.3,5.8h0.1L8,4.1h1.5l1.4,5.3H11
					L12.2,3.6z"/>
				<path class="st1" d="M17.6,10.8c-1,0-1.9-0.3-2.6-1s-1-1.6-1-2.6c0-1,0.3-1.9,1-2.6s1.5-1,2.6-1c1,0,1.9,0.3,2.6,1s1,1.6,1,2.6
					c0,1.1-0.3,1.9-1,2.6S18.6,10.8,17.6,10.8z M17.5,9.7c0.7,0,1.2-0.2,1.7-0.7s0.6-1.1,0.6-1.8c0-0.7-0.2-1.3-0.7-1.8
					c-0.4-0.5-1-0.7-1.7-0.7s-1.2,0.2-1.7,0.7c-0.4,0.5-0.6,1.1-0.6,1.8c0,0.7,0.2,1.3,0.6,1.8C16.3,9.5,16.9,9.7,17.5,9.7z"/>
				<path class="st1" d="M29.4,7c-1.3,0.9-2,1.7-2.1,2.5h4.3v1.2h-5.9v-0.5c0-1.5,0.8-2.8,2.5-3.8c0.9-0.6,1.5-1,1.7-1.2
					c0.3-0.3,0.5-0.7,0.5-1c0-0.4-0.1-0.8-0.4-1c-0.3-0.3-0.7-0.4-1.1-0.4c-0.6,0-1,0.2-1.3,0.6S27.1,4,27.1,4.6h-1.3
					c0-0.5,0.1-1,0.3-1.4c0.2-0.4,0.5-0.8,1-1.2s1.1-0.5,1.7-0.5c0.8,0,1.5,0.2,2.1,0.7c0.5,0.5,0.8,1.1,0.8,1.9
					c0,0.6-0.2,1.2-0.6,1.6C30.8,6.1,30.2,6.5,29.4,7z"/>
				<path class="st1" d="M37.4,5.9c0.5,0.2,0.9,0.4,1.1,0.8C38.8,7.2,39,7.6,39,8.2c0,0.8-0.3,1.4-0.8,1.9s-1.3,0.7-2.2,0.7
					c-1,0-1.7-0.3-2.2-0.8s-0.8-1.2-0.9-2h1.2c0,0.5,0.2,0.8,0.5,1.2s0.7,0.5,1.3,0.5c0.5,0,0.9-0.1,1.3-0.4s0.5-0.7,0.5-1.2
					c0-0.5-0.2-0.9-0.5-1.2c-0.3-0.3-0.8-0.5-1.3-0.5h-0.5V5.4h0.5c0.5,0,0.8-0.1,1.1-0.4c0.3-0.3,0.4-0.6,0.4-1
					c0-0.4-0.1-0.7-0.4-1S36.4,2.6,36,2.6c-0.4,0-0.8,0.1-1.1,0.4c-0.3,0.2-0.4,0.6-0.5,1h-1.2c0-0.7,0.3-1.3,0.8-1.8
					c0.5-0.5,1.2-0.7,2-0.7c0.8,0,1.4,0.2,1.9,0.7s0.7,1,0.7,1.7C38.6,4.7,38.2,5.4,37.4,5.9L37.4,5.9z"/>
				<path class="st1" d="M9.5,21.9c0,0.6-0.2,1.1-0.7,1.4c-0.5,0.3-1.1,0.5-1.8,0.5c-0.8,0-1.5-0.2-2-0.7s-0.8-1-0.8-1.7h1.2
					c0,0.5,0.2,0.8,0.5,1.1c0.3,0.2,0.7,0.4,1.1,0.4c0.4,0,0.7-0.1,0.9-0.3c0.2-0.2,0.4-0.4,0.4-0.7c0-0.3-0.1-0.6-0.4-0.8
					c-0.3-0.2-0.7-0.4-1.2-0.5c-0.3-0.1-0.6-0.2-0.8-0.3s-0.5-0.2-0.7-0.4c-0.2-0.2-0.4-0.4-0.5-0.6s-0.2-0.5-0.2-0.8
					c0-0.6,0.2-1.1,0.7-1.4s1-0.5,1.8-0.5c0.7,0,1.3,0.2,1.8,0.6s0.7,0.9,0.7,1.5H8.2c0-0.3-0.2-0.6-0.4-0.8s-0.6-0.3-1-0.3
					c-0.3,0-0.6,0.1-0.8,0.2c-0.2,0.2-0.3,0.4-0.3,0.7c0,0.3,0.1,0.5,0.4,0.7c0.2,0.2,0.6,0.4,1.1,0.5c0.8,0.2,1.3,0.5,1.8,0.9
					C9.3,20.8,9.5,21.3,9.5,21.9z"/>
				<path class="st1" d="M13.7,16.5c1,0,1.8,0.3,2.4,1c0.6,0.7,0.9,1.6,0.8,2.9h-5.4c0,0.7,0.3,1.3,0.6,1.7c0.4,0.4,0.9,0.6,1.6,0.6
					c0.4,0,0.8-0.1,1.1-0.3s0.6-0.5,0.7-0.8h1.2c-0.2,0.7-0.6,1.2-1.1,1.6c-0.6,0.4-1.2,0.6-2,0.6c-1.1,0-1.9-0.3-2.5-1
					c-0.6-0.7-0.9-1.6-0.9-2.7c0-1.1,0.3-1.9,1-2.6C12,16.9,12.8,16.5,13.7,16.5z M11.6,19.5h4.1c0-0.5-0.2-1-0.6-1.4
					c-0.4-0.4-0.8-0.6-1.4-0.6c-0.6,0-1,0.2-1.4,0.5C12,18.4,11.7,18.9,11.6,19.5z"/>
				<path class="st1" d="M21.8,16.5c0.9,0,1.7,0.3,2.3,1c0.6,0.7,0.9,1.6,0.9,2.6s-0.3,2-0.9,2.6c-0.6,0.7-1.4,1-2.3,1
					c-1.1,0-1.8-0.4-2.2-1.2v3.9h-1.2v-9.9h0.9l0.2,1h0.1C20.1,16.9,20.8,16.5,21.8,16.5z M21.6,22.7c0.6,0,1.2-0.2,1.6-0.7
					s0.6-1.1,0.6-1.8s-0.2-1.4-0.6-1.8c-0.4-0.5-0.9-0.7-1.6-0.7c-0.6,0-1.1,0.2-1.5,0.7c-0.4,0.5-0.6,1.1-0.6,1.8
					c0,0.8,0.2,1.4,0.6,1.8C20.5,22.5,21,22.7,21.6,22.7z"/>
			</g>
		</g>
		<g>
			<g>
				<path class="st1" d="M114,9.9h3.6v1.1h-5.3v-0.8L116,5V4.9h-3.4V3.9h5.1v0.8L114,9.9L114,9.9z"/>
				<path class="st1" d="M125.3,9.7l0.5,0.8c-0.1,0.1-0.2,0.3-0.4,0.4c-0.2,0.1-0.4,0.2-0.6,0.2c-0.4,0-0.7-0.1-0.9-0.3
					c-0.2-0.2-0.4-0.4-0.4-0.8c-0.6,0.7-1.4,1.1-2.4,1.1c-0.7,0-1.3-0.2-1.7-0.5c-0.4-0.3-0.7-0.8-0.7-1.5c0-0.7,0.3-1.3,0.8-1.6
					c0.6-0.4,1.3-0.6,2.4-0.7l1.3-0.1V6.5c0-0.5-0.1-1-0.4-1.3c-0.3-0.3-0.6-0.5-1.1-0.5c-0.5,0-0.8,0.1-1.1,0.4
					c-0.3,0.3-0.4,0.6-0.5,1H119c0.1-0.7,0.3-1.3,0.8-1.7s1.1-0.7,1.9-0.7c0.8,0,1.5,0.2,2,0.7s0.7,1.2,0.7,2.1v2.7
					c0,0.5,0.2,0.8,0.5,0.8C125,10,125.1,9.9,125.3,9.7z M121.2,10c0.5,0,1-0.2,1.4-0.5c0.4-0.3,0.6-0.8,0.6-1.5V7.6L122,7.6
					c-0.7,0.1-1.2,0.2-1.6,0.4c-0.4,0.2-0.6,0.5-0.6,0.9c0,0.3,0.1,0.6,0.4,0.8C120.5,9.9,120.8,10,121.2,10z"/>
				<path class="st1" d="M133.1,7.2c-1.3,0.9-2,1.7-2.1,2.5h4.3v1.2h-5.9v-0.5c0-1.5,0.8-2.8,2.5-3.8c0.9-0.6,1.5-1,1.7-1.2
					c0.3-0.3,0.5-0.7,0.5-1c0-0.4-0.1-0.8-0.4-1c-0.3-0.3-0.7-0.4-1.1-0.4c-0.6,0-1,0.2-1.3,0.6s-0.4,0.8-0.5,1.4h-1.3
					c0-0.5,0.1-1,0.3-1.4c0.2-0.4,0.5-0.8,1-1.2s1.1-0.5,1.7-0.5c0.8,0,1.5,0.2,2.1,0.7c0.5,0.5,0.8,1.1,0.8,1.9
					c0,0.6-0.2,1.2-0.6,1.6C134.4,6.3,133.9,6.7,133.1,7.2z"/>
				<path class="st1" d="M142.4,9.9c-0.6,0.8-1.4,1.2-2.4,1.2s-1.8-0.4-2.4-1.2c-0.6-0.8-0.9-2-0.9-3.5c0-1.5,0.3-2.7,0.9-3.5
					c0.6-0.8,1.4-1.2,2.4-1.2s1.8,0.4,2.4,1.2c0.6,0.8,0.9,2,0.9,3.5C143.3,7.9,143,9.1,142.4,9.9z M138.6,9
					c0.3,0.6,0.8,0.9,1.4,0.9s1.1-0.3,1.4-0.9c0.3-0.6,0.5-1.4,0.5-2.6s-0.2-2-0.5-2.6c-0.4-0.6-0.8-0.9-1.4-0.9
					c-0.6,0-1.1,0.3-1.4,0.9c-0.3,0.6-0.5,1.4-0.5,2.6S138.2,8.4,138.6,9z"/>
				<path class="st1" d="M125.5,16.7c0.8,0,1.4,0.3,1.9,0.8s0.7,1.3,0.7,2.2v4.2h-1.3v-4c0-0.7-0.2-1.2-0.5-1.5
					c-0.3-0.4-0.7-0.5-1.3-0.5c-0.5,0-0.9,0.2-1.2,0.5c-0.3,0.3-0.5,0.8-0.5,1.5v4.1H122v-7.1h1l0.2,0.9h0.1
					C123.8,17.1,124.5,16.7,125.5,16.7z"/>
				<path class="st1" d="M132.8,24.1c-1,0-1.9-0.3-2.6-1s-1-1.6-1-2.6c0-1,0.3-1.9,1-2.6s1.5-1,2.6-1c1,0,1.9,0.3,2.6,1s1,1.6,1,2.6
					c0,1.1-0.3,1.9-1,2.6S133.9,24.1,132.8,24.1z M132.8,23c0.7,0,1.2-0.2,1.7-0.7s0.6-1.1,0.6-1.8c0-0.7-0.2-1.3-0.7-1.8
					c-0.4-0.5-1-0.7-1.7-0.7s-1.2,0.2-1.7,0.7c-0.4,0.5-0.6,1.1-0.6,1.8c0,0.7,0.2,1.3,0.6,1.8C131.6,22.7,132.2,23,132.8,23z"/>
				<path class="st1" d="M142.4,16.9h1.3l-2.6,7.1h-1.8l-2.6-7.1h1.3l2.1,5.9h0.1L142.4,16.9z"/>
			</g>
		</g>
		<rect x="43.8" y="6.2" class="st1" width="61.1" height="0.8"/>
	</g>
</g>
<g>
	<path class="st2" d="M127.2,26.2c0.4,0.5,1,0.7,1.7,0.7c0.7,0,1.2-0.2,1.7-0.7s0.6-1.1,0.6-1.8c0-0.1,0-0.3,0-0.4h-4.6
		c0,0.1,0,0.2,0,0.4C126.5,25.1,126.7,25.7,127.2,26.2z"/>
	<path class="st2" d="M9.8,21.6c-0.6,0-1,0.2-1.4,0.5c-0.4,0.4-0.6,0.8-0.7,1.4h4.1c0-0.5-0.2-1-0.6-1.4
		C10.9,21.7,10.4,21.6,9.8,21.6z"/>
	<path class="st2" d="M13.5,8.6c-0.7,0-1.2,0.2-1.7,0.7c-0.4,0.5-0.6,1.1-0.6,1.8c0,0.7,0.2,1.3,0.6,1.8c0.4,0.5,1,0.7,1.7,0.7
		c0.7,0,1.2-0.2,1.7-0.7s0.6-1.1,0.6-1.8c0-0.7-0.2-1.3-0.7-1.8C14.8,8.9,14.2,8.6,13.5,8.6z"/>
	<path class="st2" d="M17.6,21.7c-0.6,0-1.1,0.2-1.5,0.7c-0.4,0.5-0.6,1.1-0.6,1.8c0,0.8,0.2,1.4,0.6,1.8c0.4,0.5,0.9,0.7,1.5,0.7
		c0.6,0,1.2-0.2,1.6-0.7s0.6-1.1,0.6-1.8s-0.2-1.4-0.6-1.8C18.7,21.9,18.2,21.7,17.6,21.7z"/>
	<polygon class="st3" points="9.4,7.6 8.2,7.6 7,13.4 6.9,13.4 5.4,8.1 4,8.1 2.6,13.4 2.5,13.4 1.2,7.6 0,7.6 1.7,14.7 3.2,14.7 
		4.7,9.4 4.8,9.4 6.2,14.7 7.8,14.7 	"/>
	<path class="st3" d="M17.1,11.2c0-1.1-0.3-1.9-1-2.6c-0.7-0.7-1.5-1-2.6-1c-1,0-1.9,0.3-2.6,1s-1,1.6-1,2.6c0,1.1,0.3,1.9,1,2.6
		s1.5,1,2.6,1c1,0,1.9-0.3,2.6-1C16.8,13.1,17.1,12.2,17.1,11.2z M15.2,13c-0.4,0.5-1,0.7-1.7,0.7c-0.7,0-1.2-0.2-1.7-0.7
		c-0.4-0.5-0.6-1.1-0.6-1.8c0-0.7,0.2-1.3,0.6-1.8c0.4-0.5,1-0.7,1.7-0.7s1.2,0.2,1.7,0.7c0.4,0.5,0.7,1.1,0.7,1.8
		C15.9,11.9,15.7,12.5,15.2,13z"/>
	<path class="st3" d="M21.8,14.2v0.5h0.8v-2.9C22,12.5,21.8,13.3,21.8,14.2z"/>
	<path class="st3" d="M22.1,7.2c-0.2,0.4-0.3,0.9-0.3,1.4h0.8V6.5C22.4,6.7,22.2,6.9,22.1,7.2z"/>
	<path class="st3" d="M3.2,23.7c-0.5-0.2-0.9-0.3-1.1-0.5c-0.2-0.2-0.4-0.4-0.4-0.7c0-0.3,0.1-0.5,0.3-0.7c0.2-0.2,0.5-0.2,0.8-0.2
		c0.4,0,0.7,0.1,1,0.3s0.4,0.5,0.4,0.8h1.2c0-0.6-0.2-1.1-0.7-1.5s-1-0.6-1.8-0.6c-0.7,0-1.3,0.2-1.8,0.5s-0.7,0.8-0.7,1.4
		c0,0.3,0.1,0.6,0.2,0.8s0.3,0.4,0.5,0.6c0.2,0.2,0.5,0.3,0.7,0.4s0.5,0.2,0.8,0.3c0.5,0.2,0.9,0.3,1.2,0.5c0.3,0.2,0.4,0.5,0.4,0.8
		c0,0.3-0.1,0.6-0.4,0.7c-0.2,0.2-0.6,0.3-0.9,0.3c-0.4,0-0.8-0.1-1.1-0.4c-0.3-0.2-0.5-0.6-0.5-1.1H0.2c0,0.7,0.3,1.3,0.8,1.7
		s1.2,0.7,2,0.7c0.7,0,1.4-0.2,1.8-0.5c0.5-0.3,0.7-0.8,0.7-1.4c0-0.6-0.2-1.1-0.6-1.4C4.5,24.2,3.9,23.9,3.2,23.7z"/>
	<path class="st3" d="M12.2,21.5c-0.6-0.7-1.4-1-2.4-1c-1,0-1.8,0.3-2.4,1c-0.6,0.7-1,1.6-1,2.6c0,1.1,0.3,2,0.9,2.7
		c0.6,0.7,1.5,1,2.5,1c0.7,0,1.4-0.2,2-0.6c0.6-0.4,0.9-0.9,1.1-1.6h-1.2c-0.2,0.4-0.4,0.6-0.7,0.8s-0.7,0.3-1.1,0.3
		c-0.7,0-1.2-0.2-1.6-0.6c-0.4-0.4-0.6-1-0.6-1.7h5.4C13,23.2,12.8,22.2,12.2,21.5z M7.6,23.5c0.1-0.6,0.3-1.1,0.7-1.4
		c0.4-0.4,0.9-0.5,1.4-0.5c0.6,0,1.1,0.2,1.4,0.6c0.4,0.4,0.5,0.8,0.6,1.4H7.6z"/>
	<path class="st3" d="M17.8,20.5c-1,0-1.7,0.4-2.2,1.1h-0.1l-0.2-1h-0.9v9.9h1.2v-3.9c0.4,0.8,1.2,1.2,2.2,1.2c0.9,0,1.7-0.3,2.3-1
		c0.6-0.7,0.9-1.6,0.9-2.6s-0.3-2-0.9-2.6C19.5,20.9,18.7,20.5,17.8,20.5z M19.2,26c-0.4,0.5-0.9,0.7-1.6,0.7
		c-0.6,0-1.1-0.2-1.5-0.7c-0.4-0.5-0.6-1.1-0.6-1.8c0-0.8,0.2-1.4,0.6-1.8c0.4-0.5,0.9-0.7,1.5-0.7c0.6,0,1.1,0.2,1.6,0.7
		c0.4,0.5,0.6,1.1,0.6,1.8S19.6,25.5,19.2,26z"/>
	<path class="st2" d="M122.3,22.4c-0.3-0.4-0.7-0.5-1.3-0.5c-0.5,0-0.9,0.2-1.2,0.5c-0.3,0.3-0.5,0.8-0.5,1.5V24h3.5V24
		C122.8,23.3,122.6,22.8,122.3,22.4z"/>
	<path class="st2" d="M136,13.9c0.6,0,1.1-0.3,1.4-0.9c0.3-0.6,0.5-1.4,0.5-2.6s-0.2-2-0.5-2.6c-0.4-0.6-0.8-0.9-1.4-0.9
		c-0.6,0-1.1,0.3-1.4,0.9c-0.3,0.6-0.5,1.4-0.5,2.6s0.2,2,0.5,2.6C134.9,13.6,135.4,13.9,136,13.9z"/>
	<path class="st2" d="M116.5,12.1c-0.4,0.2-0.6,0.5-0.6,0.9c0,0.3,0.1,0.6,0.4,0.8c0.2,0.2,0.5,0.3,0.9,0.3c0.5,0,1-0.2,1.4-0.5
		c0.4-0.3,0.6-0.8,0.6-1.5v-0.5l-1.2,0.1C117.4,11.7,116.8,11.9,116.5,12.1z"/>
	<path class="st2" d="M130.5,22.6c-0.4-0.5-1-0.7-1.7-0.7s-1.2,0.2-1.7,0.7c-0.3,0.4-0.5,0.9-0.6,1.4h4.6
		C131.1,23.5,130.9,23,130.5,22.6z"/>
	<rect x="118" y="24" class="st3" width="1.3" height="3.9"/>
	<rect x="122.8" y="24" class="st3" width="1.3" height="3.9"/>
	<path class="st3" d="M131.1,24c0,0.1,0,0.2,0,0.4c0,0.7-0.2,1.3-0.6,1.8s-1,0.7-1.7,0.7c-0.7,0-1.2-0.2-1.7-0.7
		c-0.4-0.5-0.6-1.1-0.6-1.8c0-0.1,0-0.3,0-0.4h-1.3c0,0.1,0,0.2,0,0.4c0,1.1,0.3,1.9,1,2.6s1.5,1,2.6,1c1,0,1.9-0.3,2.6-1
		s1-1.6,1-2.6c0-0.1,0-0.3,0-0.4H131.1z"/>
	<polygon class="st3" points="136.3,26.8 136.2,26.8 135.2,24 133.9,24 135.3,27.9 137.1,27.9 138.6,24 137.3,24 	"/>
</g>
</svg>
