<?xml version="1.0" encoding="utf-8"?>
<!-- Generator: Adobe Illustrator 24.3.0, SVG Export Plug-In . SVG Version: 6.00 Build 0)  -->
<svg version="1.1" id="Laag_1" xmlns="http://www.w3.org/2000/svg" xmlns:xlink="http://www.w3.org/1999/xlink" x="0px" y="0px"
	 width="74.7px" height="79.5px" viewBox="0 0 74.7 79.5" style="enable-background:new 0 0 74.7 79.5;" xml:space="preserve">
<style type="text/css">
	.st0{fill:none;}
	.st1{fill:#563E4A;}
	.st2{clip-path:url(#SVGID_1_);}
	.st3{fill:#FAE513;}
	.st4{fill:none;stroke:#FAE513;stroke-width:0.3471;stroke-miterlimit:10;}
</style>
<g>
	<g>
		<path class="st0" d="M5.9,66.5c-0.7,0-1.3,0.2-1.7,0.7c-0.4,0.4-0.6,1-0.6,1.8v3.3h5v-3.3c0-0.7-0.2-1.3-0.7-1.8
			C7.3,66.7,6.6,66.5,5.9,66.5z"/>
		<path class="st0" d="M5.9,51.9c-0.7,0-1.3,0.2-1.7,0.7c-0.4,0.4-0.6,1-0.6,1.8v2.8h5v-2.8c0-0.7-0.2-1.3-0.7-1.8
			C7.3,52.1,6.7,51.9,5.9,51.9z"/>
		<path class="st1" d="M9,49.4c-0.9-0.6-2-0.9-3.1-0.9c-1.7,0-3,0.5-4,1.6c-1,1.1-1.5,2.4-1.5,3.9v6.3h13.3v-3.2h-1.9V55l1.9-1.1
			v-3.7l-2.5,1.5C10.7,50.8,10,50,9,49.4z M8.6,57.1h-5v-2.8c0-0.7,0.2-1.3,0.6-1.8c0.4-0.4,1-0.7,1.7-0.7c0.8,0,1.4,0.2,1.9,0.7
			c0.5,0.5,0.7,1,0.7,1.8V57.1z"/>
		<path class="st1" d="M2.9,31.1c-1.7,1.7-2.6,3.8-2.6,6.2c0,2.4,0.9,4.4,2.6,6.2C4.6,45.1,6.8,46,9.3,46c1.6,0,3-0.3,4.3-1v-4.2
			c-0.1,0.1-0.1,0.1-0.2,0.2c-1.1,1-2.4,1.5-4.1,1.5c-1.7,0-3-0.5-4.1-1.4c-1.1-1-1.6-2.2-1.6-3.7c0-1.5,0.5-2.8,1.6-3.8
			c1.1-1,2.4-1.5,4.1-1.5c1.7,0,3,0.5,4.1,1.4c0.1,0.1,0.1,0.1,0.2,0.2v-4.2c-1.3-0.7-2.7-1-4.3-1C6.8,28.5,4.6,29.4,2.9,31.1z"/>
		<path class="st1" d="M11.6,68.6c0-1.5-0.5-2.8-1.6-3.9c-1.1-1.1-2.4-1.6-4.2-1.6c-1.7,0-3,0.5-4,1.6c-1,1.1-1.5,2.4-1.5,3.9v6.8
			h13.3v-3.2h-2V68.6z M8.5,72.2h-5v-3.3c0-0.7,0.2-1.3,0.6-1.8c0.4-0.4,1-0.7,1.7-0.7c0.8,0,1.4,0.2,1.9,0.7c0.5,0.5,0.7,1,0.7,1.8
			V72.2z"/>
		<path class="st1" d="M2.8,13.4c-1.6,1.7-2.4,3.9-2.4,6.3v5.7h13.3v-3.5H3.8v-2.2c0-1.6,0.5-2.9,1.5-3.9c1-1,2.3-1.5,4-1.5
			c1.7,0,3.1,0.5,4.1,1.5c0.1,0.1,0.2,0.2,0.3,0.3v-4.4c-1.2-0.6-2.7-0.9-4.3-0.9C6.6,10.7,4.4,11.6,2.8,13.4z"/>
		<polygon class="st1" points="21.1,19.2 21.1,10.7 18,10.7 18,22.5 24.5,22.5 24.5,19.2 		"/>
		<rect x="18" y="26.2" class="st1" width="6.6" height="3.6"/>
		<rect x="18" y="65.1" class="st1" width="6.6" height="3.6"/>
		<polygon class="st1" points="21.1,37.3 21.1,32.5 18,32.5 18,45.6 21.1,45.6 21.1,40.7 24.5,40.7 24.5,37.3 		"/>
		<rect x="18" y="75.9" class="st1" width="6.6" height="3.6"/>
		<path class="st1" d="M22.8,57.5c-1-0.8-1.6-1.9-1.6-3.4c0-1.6,0.7-2.8,2.1-3.5v-3.9c-1.7,0.5-3,1.4-4,2.8c-1,1.3-1.5,2.9-1.5,4.6
			c0,2.3,0.9,4.3,2.6,5.8c1.2,1,2.5,1.7,4.1,2v-3.6C23.9,58.2,23.3,57.9,22.8,57.5z"/>
	</g>
</g>
<g>
	<defs>
		<polygon id="SVGID_3_" points="79.3,93.4 24.5,93.4 24.5,-11.6 79.3,-11.7 		"/>
	</defs>
	<clipPath id="SVGID_1_">
		<use xlink:href="#SVGID_3_"  style="overflow:visible;"/>
	</clipPath>
	<g class="st2">
		<g>
			<g>
				<path class="st3" d="M12,46.4c-0.9-0.6-2-0.9-3.1-0.9c-1.7,0-3,0.5-4,1.6c-1,1.1-1.5,2.4-1.5,3.9v6.3h13.3v-3.2h-1.9V52l1.9-1.1
					v-3.7l-2.5,1.5C13.7,47.8,13,47,12,46.4z M11.6,54.1h-5v-2.8c0-0.7,0.2-1.3,0.6-1.8c0.4-0.4,1-0.7,1.7-0.7
					c0.8,0,1.4,0.2,1.9,0.7c0.5,0.5,0.7,1,0.7,1.8V54.1z"/>
				<path class="st3" d="M12.3,43c1.6,0,3-0.3,4.3-1v-4.2c-0.1,0.1-0.1,0.1-0.2,0.2c-1.1,1-2.4,1.5-4.1,1.5c-1.7,0-3-0.5-4.1-1.4
					c-1.1-1-1.6-2.2-1.6-3.7c0-1.5,0.5-2.8,1.6-3.8c1.1-1,2.4-1.5,4.1-1.5c1.7,0,3,0.5,4.1,1.4c0.1,0.1,0.1,0.1,0.2,0.2v-4.2
					c-1.3-0.7-2.7-1-4.3-1c-2.6,0-4.7,0.9-6.5,2.6c-1.7,1.7-2.6,3.8-2.6,6.2c0,2.4,0.9,4.4,2.6,6.2C7.6,42.1,9.8,43,12.3,43z"/>
				<path class="st3" d="M16.7,69.2h-2v-3.6c0-1.5-0.5-2.8-1.6-3.9c-1.1-1.1-2.4-1.6-4.2-1.6c-1.7,0-3,0.5-4,1.6
					c-1,1.1-1.5,2.4-1.5,3.9v6.8h13.3V69.2z M11.5,69.2h-5v-3.3c0-0.7,0.2-1.3,0.6-1.8c0.4-0.4,1-0.7,1.7-0.7c0.8,0,1.4,0.2,1.9,0.7
					c0.5,0.5,0.7,1,0.7,1.8V69.2z"/>
				<path class="st3" d="M16.7,18.9H6.8v-2.2c0-1.6,0.5-2.9,1.5-3.9c1-1,2.3-1.5,4-1.5c1.7,0,3.1,0.5,4.1,1.5
					c0.1,0.1,0.2,0.2,0.3,0.3V8.7c-1.2-0.6-2.7-0.9-4.3-0.9c-2.8,0-5,0.9-6.6,2.6c-1.6,1.7-2.4,3.9-2.4,6.3v5.7h13.3V18.9z"/>
			</g>
			<g>
				<polygon class="st3" points="34.2,16.2 31.4,16.2 31.4,8.5 28.2,8.5 28.2,16.2 24.1,16.2 24.1,7.7 21,7.7 21,19.5 34.2,19.5 
									"/>
				<rect x="21" y="23.2" class="st3" width="13.3" height="3.6"/>
				<path class="st3" d="M21,62.1v3.6h10c1.4,0,2.5,0.3,3.3,0.8v-4c-0.9-0.3-1.9-0.4-3-0.4H21z"/>
				<polygon class="st3" points="24.1,37.7 34.2,37.7 34.2,34.3 24.1,34.3 24.1,29.5 21,29.5 21,42.6 24.1,42.6 				"/>
				<path class="st3" d="M34.2,72.1c-0.8,0.5-1.9,0.8-3.3,0.8H21v3.6h10.2c1.1,0,2.1-0.1,3-0.4V72.1z"/>
				<path class="st3" d="M23.4,57c1.7,1.5,3.9,2.3,6.5,2.3c1.6,0,3-0.3,4.3-0.9v-4.1c-0.1,0.1-0.1,0.1-0.2,0.2
					c-1,0.8-2.4,1.2-4.1,1.2c-1.7,0-3.1-0.4-4.1-1.2c-1-0.8-1.6-1.9-1.6-3.4c0-1.6,0.7-2.8,2.1-3.5v-3.9c-1.7,0.5-3,1.4-4,2.8
					c-1,1.3-1.5,2.9-1.5,4.6C20.8,53.6,21.7,55.5,23.4,57z"/>
			</g>
			<g>
				<rect x="38.5" y="23.3" class="st3" width="13.3" height="3.5"/>
				<path class="st3" d="M38.5,33.8h9.8c1.5,0,2.6,0.3,3.4,0.9c0,0,0.1,0.1,0.1,0.1v-4c-0.9-0.3-2-0.5-3.2-0.5h-10V33.8z"/>
				<path class="st3" d="M38.5,44.5h10c1.2,0,2.3-0.2,3.2-0.5v-4c0,0-0.1,0.1-0.1,0.1c-0.8,0.6-1.9,0.9-3.4,0.9h-9.8V44.5z"/>
				<path class="st3" d="M43.2,19.6c1.5,0,2.7-0.7,3.7-2.1c0.4-0.6,1-1.8,1.7-3.6c0.2-0.5,0.3-0.8,0.4-1.1c0.1-0.3,0.3-0.6,0.5-0.9
					c0.2-0.3,0.5-0.5,0.7-0.7c0.3-0.2,0.6-0.2,0.9-0.2c0.2,0,0.4,0,0.6,0.1V7.8c-0.2,0-0.4,0-0.6,0c-0.6,0-1.2,0.1-1.8,0.3
					c-0.5,0.2-1,0.5-1.3,0.7c-0.3,0.3-0.7,0.7-1,1.2c-0.3,0.5-0.6,0.9-0.7,1.2c-0.1,0.3-0.3,0.7-0.6,1.3c-0.2,0.6-0.4,0.9-0.4,1
					c-0.3,0.6-0.4,0.9-0.6,1.2c-0.1,0.2-0.3,0.5-0.5,0.8c-0.2,0.3-0.4,0.5-0.6,0.6c-0.2,0.1-0.4,0.2-0.7,0.2c-0.5,0-1-0.2-1.3-0.6
					c-0.3-0.4-0.5-0.9-0.5-1.6c0-0.6,0.1-1.2,0.4-1.7c0.3-0.5,0.7-0.8,1.2-0.8V8.2c-1.2,0-2.3,0.5-3.2,1.5c-1,1-1.4,2.4-1.4,4.1
					c0,1.6,0.4,3,1.3,4.1C40.6,19.1,41.7,19.6,43.2,19.6z"/>
				<polygon class="st3" points="51.8,58 48.8,58 48.8,51.1 51.8,51.1 51.8,47.7 38.5,47.7 38.5,51.1 45.6,51.1 45.6,58 38.5,58 
					38.5,61.4 51.8,61.4 				"/>
			</g>
		</g>
		<g>
			<g>
				<path class="st4" d="M70.6,34.2l3.5-1.9V21l-3.5-1.9l-3.4,1.8c0,0,0,0.1,0,0.1l3.4,1.8V34.2z"/>
				<polygon class="st4" points="63.6,11.5 67.1,9.6 67.1,32.3 63.6,30.4 				"/>
				<polygon class="st4" points="67.1,5.9 63.6,7.8 53.1,2.1 56.6,0.2 				"/>
				<path class="st4" d="M60.1,6.1v18.7l-3.5,1.9V7.7L59.9,6C60,5.9,60.1,6,60.1,6.1z"/>
				<path class="st4" d="M67.1,9.6l3.5-1.9c0,0,5.7,2,3.5,9.5l-3.5,1.9C72.7,11.6,67.1,9.6,67.1,9.6z"/>
			</g>
		</g>
	</g>
</g>
</svg>
