<?xml version="1.0" encoding="utf-8"?>
<!-- Generator: Adobe Illustrator 24.3.0, SVG Export Plug-In . SVG Version: 6.00 Build 0)  -->
<svg version="1.1" id="Laag_1" xmlns="http://www.w3.org/2000/svg" xmlns:xlink="http://www.w3.org/1999/xlink" x="0px" y="0px"
	 width="162.9px" height="81.9px" viewBox="0 0 162.9 81.9" style="enable-background:new 0 0 162.9 81.9;" xml:space="preserve">
<style type="text/css">
	.st0{clip-path:url(#SVGID_1_);}
	.st1{fill:none;stroke:#FAE513;stroke-width:0.75;stroke-miterlimit:10;}
</style>
<g>
	<defs>
		<rect id="SVGID_3_" x="0" y="0" width="162.9" height="81.9"/>
	</defs>
	<clipPath id="SVGID_1_">
		<use xlink:href="#SVGID_3_"  style="overflow:visible;"/>
	</clipPath>
	<g class="st0">
		<path class="st1" d="M-3.4,21.7c-0.5,2.9-1.8,5.1-4,6.7c-2.1,1.6-4.7,2.4-7.7,2.4c-4.1,0-7.3-1.3-9.7-3.9c-2.4-2.6-3.6-6-3.6-10.1
			c0-4.1,1.2-7.5,3.6-10.1c2.4-2.6,5.5-3.9,9.3-3.9c3,0,5.6,0.8,7.7,2.3c2.1,1.5,3.5,3.8,4,6.9h-5.6c-0.4-1.3-1.1-2.3-2.1-3.1
			c-1-0.8-2.3-1.1-3.9-1.1c-2.2,0-4,0.9-5.3,2.6c-1.3,1.7-2,3.9-2,6.5c0,2.7,0.7,4.9,2,6.5c1.4,1.6,3.2,2.5,5.6,2.5
			c1.5,0,2.8-0.4,3.9-1.1c1.1-0.8,1.9-1.8,2.3-3.1H-3.4z"/>
		<path class="st1" d="M10.9,10.6c2.3,0,4.1,0.7,5.4,2.1c1.4,1.4,2,3.4,2,6v11.7h-5.2v-9.9c0-1.6-0.4-2.9-1.2-3.8
			c-0.8-0.9-1.9-1.3-3.2-1.3c-1.2,0-2.2,0.4-3,1.3c-0.8,0.8-1.2,2.1-1.2,3.7v10.1h-5.4V2.8h5.4v10.4h0.4
			C6.5,11.4,8.5,10.6,10.9,10.6z"/>
		<path class="st1" d="M24.2,8.6c-0.9,0-1.6-0.3-2.3-1c-0.6-0.6-1-1.4-1-2.2c0-0.9,0.3-1.7,1-2.3c0.6-0.6,1.4-0.9,2.3-0.9
			c0.9,0,1.6,0.3,2.2,0.9c0.6,0.6,0.9,1.4,0.9,2.3c0,0.9-0.3,1.6-0.9,2.2C25.8,8.3,25.1,8.6,24.2,8.6z M26.7,10.9v19.5h-5.1V10.9
			H26.7z"/>
		<path class="st1" d="M30.1,2.8h5.1v27.7h-5.1V2.8z"/>
		<path class="st1" d="M51.8,2.7h5v27.8h-3.9l-0.6-2.3h-0.5c-1.4,1.7-3.2,2.6-5.5,2.6c-2.5,0-4.6-0.9-6.3-2.8
			c-1.7-1.8-2.6-4.3-2.6-7.3c0-3.1,0.9-5.5,2.7-7.4c1.8-1.9,3.9-2.8,6.5-2.8c2.4,0,4.2,0.8,5.3,2.4V2.7z M43.7,24.7
			c0.9,1,2,1.6,3.4,1.6s2.5-0.5,3.4-1.6c0.9-1.1,1.3-2.4,1.3-4c0-1.6-0.4-3-1.3-4c-0.9-1-2-1.6-3.4-1.6s-2.6,0.5-3.4,1.6
			c-0.9,1-1.3,2.4-1.3,4C42.4,22.3,42.8,23.7,43.7,24.7z"/>
		<path class="st1" d="M71.4,10.6h1.4v5.1c-0.7-0.2-1.4-0.2-2-0.2c-1.6,0-2.9,0.5-3.9,1.6c-1,1.1-1.5,2.7-1.5,4.9v8.6h-5.3V10.9h4.1
			l0.7,2.7h0.4C66.8,11.6,68.8,10.6,71.4,10.6z"/>
		<path class="st1" d="M87.7,24.3h4.8c-0.4,2.1-1.5,3.7-3.2,4.8c-1.7,1.2-3.7,1.7-6,1.7c-3,0-5.4-0.9-7.3-2.8
			c-1.8-1.9-2.7-4.3-2.7-7.4c0-3,0.9-5.4,2.8-7.3c1.8-1.9,4.1-2.8,6.9-2.8c1.4,0,2.6,0.2,3.8,0.6c1.2,0.4,2.2,1.1,3.1,2
			c0.9,0.9,1.6,2.1,2.1,3.6c0.5,1.5,0.6,3.3,0.4,5.3H78.2c0.4,3.1,2.2,4.6,5.2,4.6c1,0,1.8-0.2,2.6-0.6S87.3,25,87.7,24.3z
			 M83.2,14.5c-1.2,0-2.2,0.3-3.1,1c-0.8,0.7-1.4,1.6-1.7,2.8h9.3c-0.1-1-0.5-1.9-1.3-2.7C85.5,14.9,84.5,14.5,83.2,14.5z"/>
		<path class="st1" d="M105.9,10.6c2.2,0,4.1,0.8,5.5,2.3c1.4,1.5,2.1,3.7,2.1,6.5v11h-5.3V20.3c0-1.7-0.4-2.9-1.2-3.8
			c-0.8-0.9-1.8-1.3-3-1.3c-1.1,0-2.1,0.4-2.9,1.2c-0.8,0.8-1.2,2.1-1.2,3.7v10.3h-5.3V10.9h4.1l0.7,2.4h0.4
			c0.4-0.5,0.8-0.9,1.2-1.3c0.4-0.3,1-0.7,1.9-1C103.8,10.7,104.8,10.6,105.9,10.6z"/>
		<path class="st1" d="M142.9,28c-1.9,1.9-4.4,2.8-7.3,2.8c-2.9,0-5.4-0.9-7.3-2.8s-3-4.3-3-7.3s1-5.4,3-7.3c2-1.9,4.4-2.8,7.3-2.8
			c2.9,0,5.3,0.9,7.3,2.8c2,1.9,2.9,4.3,2.9,7.3C145.9,23.6,144.9,26.1,142.9,28z M135.6,26.3c1.5,0,2.7-0.5,3.7-1.6
			c1-1.1,1.4-2.4,1.4-4c0-1.6-0.5-3-1.4-4c-1-1.1-2.2-1.6-3.7-1.6s-2.8,0.5-3.8,1.6c-1,1.1-1.5,2.4-1.5,4c0,1.6,0.5,3,1.5,4
			C132.8,25.8,134.1,26.3,135.6,26.3z"/>
		<path class="st1" d="M155.1,9.8v1.1h5.1V15h-5.1v15.4h-5V15h-3.8v-4.1h3.8V9.3c0-2,0.6-3.6,1.8-4.8c1.2-1.2,2.7-1.8,4.5-1.8
			c2,0,3.6,0.5,4.7,1.4l-1.4,3.9c-0.7-0.6-1.4-0.9-2.3-0.9c-0.7,0-1.3,0.2-1.7,0.7C155.3,8.3,155.1,9,155.1,9.8z"/>
		<path class="st1" d="M-11.4,37.9h5.3v27.3h-5.3V53.7h-11v11.5h-5.3V37.9h5.3V49h11V37.9z"/>
		<path class="st1" d="M13.7,59.3c0,0.6,0.1,1.1,0.4,1.3c0.2,0.3,0.7,0.4,1.2,0.4v4.1h-0.9c-2.2,0-3.7-0.8-4.2-2.5
			c-1.6,1.9-3.9,2.9-6.8,2.9c-2.1,0-3.7-0.5-5-1.5c-1.3-1-1.9-2.4-1.9-4.2c0-3.9,2.9-6.1,8.7-6.5l3.6-0.3v-0.4c0-1.1-0.3-2-0.9-2.7
			c-0.6-0.6-1.4-1-2.4-1c-1.1,0-1.9,0.3-2.4,1c-0.6,0.6-0.9,1.4-1,2.2h-4.8c0.2-2.1,1-3.7,2.4-5c1.5-1.3,3.4-1.9,5.8-1.9
			c2.4,0,4.4,0.7,5.9,2.1c1.5,1.4,2.3,3.4,2.3,6V59.3z M4.2,61.6c1.2,0,2.3-0.4,3.3-1.2c0.9-0.8,1.4-1.9,1.4-3.4v-0.4l-2.5,0.2
			c-3.2,0.3-4.8,1.2-4.8,2.8c0,0.6,0.2,1.1,0.7,1.5S3.4,61.6,4.2,61.6z"/>
		<path class="st1" d="M27.9,45.4c2.5,0,4.6,0.9,6.3,2.8c1.7,1.8,2.6,4.3,2.6,7.3c0,3.1-0.9,5.5-2.7,7.4c-1.8,1.9-3.9,2.8-6.5,2.8
			c-2.4,0-4.2-0.8-5.3-2.4V73h-5V45.7h3.9l0.6,2.3h0.5C23.7,46.2,25.6,45.4,27.9,45.4z M23.6,59.5c0.9,1,2,1.6,3.4,1.6
			s2.6-0.5,3.4-1.6c0.9-1,1.3-2.4,1.3-4c0-1.7-0.4-3-1.3-4.1s-2-1.6-3.4-1.6s-2.5,0.5-3.4,1.6c-0.9,1.1-1.3,2.4-1.3,4
			C22.4,57.1,22.8,58.5,23.6,59.5z"/>
		<path class="st1" d="M49.3,45.4c2.5,0,4.6,0.9,6.3,2.8c1.7,1.8,2.6,4.3,2.6,7.3c0,3.1-0.9,5.5-2.7,7.4c-1.8,1.9-3.9,2.8-6.5,2.8
			c-2.4,0-4.2-0.8-5.3-2.4V73h-5V45.7h3.9l0.6,2.3h0.5C45.2,46.2,47,45.4,49.3,45.4z M45.1,59.5c0.9,1,2,1.6,3.4,1.6
			s2.6-0.5,3.4-1.6c0.9-1,1.3-2.4,1.3-4c0-1.7-0.4-3-1.3-4.1s-2-1.6-3.4-1.6s-2.5,0.5-3.4,1.6c-0.9,1.1-1.3,2.4-1.3,4
			C43.8,57.1,44.2,58.5,45.1,59.5z"/>
		<path class="st1" d="M73.7,45.7h5.2l-7,21c-0.7,2.1-1.7,3.8-2.9,4.9s-2.9,1.7-5.2,1.7c-2.2,0-4-0.6-5.1-1.8l2.1-3.6
			c0.9,0.8,1.8,1.1,2.8,1.1c0.7,0,1.4-0.3,2-0.8c0.6-0.5,1-1.2,1.3-2l0.4-1.1h-1.9l-7.6-19.5h5.5L68.6,60h0.4L73.7,45.7z"/>
		<path class="st1" d="M80.6,37.5h5.1v27.7h-5.1V37.5z"/>
		<path class="st1" d="M105.2,59.3c0,0.6,0.1,1.1,0.4,1.3s0.7,0.4,1.2,0.4v4.1h-0.9c-2.2,0-3.7-0.8-4.2-2.5
			c-1.6,1.9-3.9,2.9-6.8,2.9c-2.1,0-3.7-0.5-5-1.5c-1.3-1-1.9-2.4-1.9-4.2c0-3.9,2.9-6.1,8.7-6.5l3.6-0.3v-0.4c0-1.1-0.3-2-0.9-2.7
			c-0.6-0.6-1.4-1-2.4-1c-1.1,0-1.9,0.3-2.4,1c-0.6,0.6-0.9,1.4-1,2.2h-4.8c0.2-2.1,1-3.7,2.4-5s3.4-1.9,5.8-1.9
			c2.4,0,4.4,0.7,5.9,2.1c1.5,1.4,2.3,3.4,2.3,6V59.3z M95.6,61.6c1.2,0,2.3-0.4,3.3-1.2c0.9-0.8,1.4-1.9,1.4-3.4v-0.4l-2.5,0.2
			c-3.2,0.3-4.8,1.2-4.8,2.8c0,0.6,0.2,1.1,0.7,1.5S94.9,61.6,95.6,61.6z"/>
		<path class="st1" d="M120.1,45.3c2.2,0,4.1,0.8,5.5,2.3c1.4,1.5,2.1,3.7,2.1,6.5v11h-5.3V55c0-1.7-0.4-2.9-1.2-3.8s-1.8-1.3-3-1.3
			c-1.1,0-2.1,0.4-2.9,1.2c-0.8,0.8-1.2,2.1-1.2,3.7v10.3h-5.3V45.7h4.1l0.7,2.4h0.4c0.4-0.5,0.8-0.9,1.2-1.3c0.4-0.3,1-0.7,1.9-1
			C118,45.5,119,45.3,120.1,45.3z"/>
		<path class="st1" d="M144.3,37.4h5v27.8h-3.9l-0.6-2.3h-0.5c-1.4,1.7-3.2,2.6-5.5,2.6c-2.5,0-4.6-0.9-6.3-2.8
			c-1.7-1.8-2.6-4.3-2.6-7.3c0-3.1,0.9-5.5,2.7-7.4c1.8-1.9,3.9-2.8,6.5-2.8c2.4,0,4.2,0.8,5.3,2.4V37.4z M136.2,59.5
			c0.9,1,2,1.6,3.5,1.6s2.5-0.5,3.4-1.6c0.9-1.1,1.3-2.4,1.3-4c0-1.6-0.4-3-1.3-4c-0.9-1-2-1.6-3.4-1.6s-2.6,0.5-3.5,1.6
			c-0.9,1-1.3,2.4-1.3,4C134.9,57.1,135.3,58.4,136.2,59.5z"/>
	</g>
</g>
</svg>
