<?xml version="1.0" encoding="utf-8"?>
<!-- Generator: Adobe Illustrator 24.0.0, SVG Export Plug-In . SVG Version: 6.00 Build 0)  -->
<svg version="1.1" id="Laag_1" xmlns="http://www.w3.org/2000/svg" xmlns:xlink="http://www.w3.org/1999/xlink" x="0px" y="0px"
	 width="94.8px" height="23.8px" viewBox="0 0 94.8 23.8" style="enable-background:new 0 0 94.8 23.8;" xml:space="preserve">
<g>
	<path d="M8.1,6.3l1-5.5h2l-2,8.4H7.3L5.6,3.3L3.9,9.2H2L0,0.7h2l1,5.5l1.6-5.5h1.9L8.1,6.3z"/>
	<path d="M14.4,9.1h-2.1V0.7h2.1V9.1z"/>
	<path d="M18.2,0.7v6.7h3.7v1.7h-5.8V0.7H18.2z"/>
	<path d="M31.6,0.7v5.8c0,1.6-1.3,2.7-3.1,2.7c-1.9,0-3.1-1.1-3.1-2.8l0,0h2v0.1c0,0.6,0.3,1.1,1.1,1.1c0.7,0,1.1-0.4,1.1-1V0.7
		H31.6z"/>
	<path d="M35.4,9.1h-2.1V0.7h2.1V9.1z"/>
	<path d="M42.9,0.7v5.8c0,1.6-1.3,2.7-3.1,2.7c-1.9,0-3.1-1.1-3.1-2.8l0,0h2v0.1c0,0.6,0.3,1.1,1.1,1.1c0.7,0,1.1-0.4,1.1-1V0.7
		H42.9z"/>
	<path d="M0,15.1h6.1v1.7h-4v1.6h3.7v1.7H2.1v1.7h4v1.7H0V15.1z"/>
	<path d="M7.5,15.1h6.1v1.7h-4v1.6h3.7v1.7H9.6v1.7h4v1.7H7.5V15.1z"/>
	<path d="M20.1,15.1h2.1v5.3c0,2-1.4,3.3-3.6,3.3S15,22.4,15,20.4v-5.3h2.1v5.3c0,1,0.6,1.5,1.5,1.5s1.5-0.5,1.5-1.5V15.1z"/>
	<path d="M31.3,20.7l1-5.5h2l-2,8.4h-1.9l-1.6-5.9l-1.7,5.9h-1.9l-2-8.4h2l1,5.5l1.6-5.6h1.9L31.3,20.7z"/>
	<path d="M37.6,23.5h-2.1v-8.4h2.1V23.5z"/>
	<path d="M44.4,18c0-0.7-0.6-1.4-1.6-1.4c-1.2,0-1.7,0.6-1.7,2v1.3c0,1.2,0.5,2.1,1.7,2.1c1,0,1.6-0.6,1.6-1.3h-1.6v-1.6h3.7v1.2
		c0,2.1-1.5,3.5-3.7,3.5c-2.5,0-3.8-1.7-3.8-3.8v-1.3c0-2.3,1.5-3.8,3.7-3.8s3.6,1.3,3.6,3.1C46.3,18,44.4,18,44.4,18z"/>
	<path d="M52.6,15.1v6.7h3.7v1.7h-5.8v-8.4H52.6z"/>
	<path d="M57.6,15.1h6.1v1.7h-4v1.6h3.7v1.7h-3.7v1.7h4v1.7h-6.1V15.1z"/>
	<path d="M69.4,23.5h-2.2l-2.8-8.4h2.1l1.8,6.1l1.8-6.1h2.1L69.4,23.5z"/>
	<path d="M73.2,15.1h6.1v1.7h-4v1.6H79v1.7h-3.7v1.7h4v1.7h-6.1V15.1z"/>
	<path d="M85.8,23.5l-3.1-4.9v4.9h-2v-8.4h2l3.2,4.9v-4.9h2v8.4C87.9,23.5,85.8,23.5,85.8,23.5z"/>
	<path d="M90.8,20.3c0-0.9,0.2-1.4,0.7-1.8l0.5-0.4c0.4-0.3,0.7-0.4,0.7-0.8s-0.4-0.7-0.9-0.7c-0.6,0-1,0.3-1,0.8v0.2H89v-0.2
		c0-1.7,1.2-2.4,2.9-2.4c1.6,0,2.9,0.9,2.9,2.3c0,0.9-0.4,1.4-0.9,1.8l-0.6,0.4c-0.4,0.3-0.6,0.5-0.6,1.1v0.3h-1.9V20.3z M91.7,21.4
		c0.7,0,1.1,0.5,1.1,1.1s-0.5,1.1-1.1,1.1c-0.7,0-1.1-0.5-1.1-1.1S91,21.4,91.7,21.4z"/>
</g>
</svg>
