<?xml version="1.0" encoding="utf-8"?>
<!-- Generator: Adobe Illustrator 24.3.0, SVG Export Plug-In . SVG Version: 6.00 Build 0)  -->
<svg version="1.1" id="Laag_1" xmlns="http://www.w3.org/2000/svg" xmlns:xlink="http://www.w3.org/1999/xlink" x="0px" y="0px"
	 width="199.1px" height="40.2px" viewBox="0 0 199.1 40.2" style="enable-background:new 0 0 199.1 40.2;" xml:space="preserve">
<style type="text/css">
	.st0{clip-path:url(#SVGID_2_);fill:#231F20;}
</style>
<g>
	<defs>
		<rect id="SVGID_1_" width="199.1" height="40.2"/>
	</defs>
	<clipPath id="SVGID_2_">
		<use xlink:href="#SVGID_1_"  style="overflow:visible;"/>
	</clipPath>
	<path class="st0" d="M183.2,7.3c4.1,0,6,2.1,6,5.3c0,3.2-1.9,5.2-6,5.2h-6.1V7.3H183.2z M199.1,39.4l-11.4-15.7
		c5.7-1.2,9-5.5,9-11.2c0-6.9-4.8-11.7-12.4-11.7h-14.2v38.5h7V24h2.6l10.5,15.4H199.1z M145.4,7.2c7.3,0,12.4,5.2,12.4,12.9
		c0,7.7-5.2,12.9-12.4,12.9c-7.2,0-12.4-5.2-12.4-12.9C133,12.4,138.2,7.2,145.4,7.2 M145.4,0c-11.5,0-20.2,8.1-20.2,20.1
		c0,11.9,8.7,20.1,20.2,20.1c11.5,0,20.2-8.1,20.2-20.1C165.6,8.1,156.9,0,145.4,0 M109.2,7.3c4.1,0,6,2.1,6,5.3
		c0,3.2-1.9,5.2-6,5.2h-6.1V7.3H109.2z M125.1,39.4l-11.4-15.7c5.7-1.2,9-5.5,9-11.2c0-6.9-4.8-11.7-12.4-11.7H96.1v38.5h7V24h2.6
		l10.5,15.4H125.1z M77.3,7.3c4.1,0,6,2.1,6,5.3c0,3.2-1.9,5.2-6,5.2h-6.1V7.3H77.3z M93.3,39.4L81.9,23.7c5.7-1.2,9-5.5,9-11.2
		c0-6.9-4.8-11.7-12.4-11.7H64.2v38.5h7V24h2.6l10.5,15.4H93.3z M50.7,39.4h7.1V0.8h-7.1V39.4z M32.7,0.8l-8.8,21.9h-0.1L15.1,0.8
		H9.6L0,39.4h7.4l5.9-25.1h0.1l7.9,19.3h5.1l7.9-19.3h0.1l5.8,25.1h7.4L38.2,0.8H32.7z"/>
</g>
</svg>
