<?xml version="1.0" encoding="utf-8"?>
<!-- Generator: Adobe Illustrator 24.3.0, SVG Export Plug-In . SVG Version: 6.00 Build 0)  -->
<svg version="1.1" id="Laag_1" xmlns="http://www.w3.org/2000/svg" xmlns:xlink="http://www.w3.org/1999/xlink" x="0px" y="0px"
	 width="74.1px" height="43.1px" viewBox="0 0 74.1 43.1" style="enable-background:new 0 0 74.1 43.1;" xml:space="preserve">
<style type="text/css">
	.st0{fill:#FFFFFF;}
</style>
<g>
	<g>
		<path class="st0" d="M3.8,0h3.2v1.4H5.2v2.2h1.7v1.4H5.2v3.3h1.7v1.4H3.8V0z"/>
		<path class="st0" d="M9.2,0h3.2v1.4h-1.7v2.2h1.7v1.4h-1.7v3.3h1.7v1.4H9.2V0z"/>
		<path class="st0" d="M14.5,0h1.4l1.8,5.6V0h1.5v9.8h-1.3L16,4.2v5.6h-1.4V0z"/>
		<path class="st0" d="M24.9,0h1.7l1.1,5l1.1-5h1.7v9.8h-1.4V3.6l-1.2,6.2h-0.4l-1.1-6.2v6.2h-1.5V0z"/>
		<path class="st0" d="M32.9,0h1.4v7.9c0,0.4,0.2,0.6,0.5,0.6s0.5-0.2,0.5-0.6V0h1.4v7.8c0,1.4-0.6,2.1-1.9,2.1
			c-0.6,0-1-0.2-1.4-0.5C33,9.1,32.9,8.6,32.9,8V0z"/>
		<path class="st0" d="M40.3,1.4h-1.5V0H42l-1.4,8.4h1.8v1.4H39L40.3,1.4z"/>
		<path class="st0" d="M44.6,0H46v9.8h-1.4V0z"/>
		<path class="st0" d="M48.4,0h1.5v3.9L51,0h1.4l-1.2,4.3l1.5,5.5h-1.5l-1.3-5.2v5.2h-1.5V0z"/>
		<path class="st0" d="M55.6,0h2.6l1.1,9.8h-1.5l-0.2-1.6h-1.5L56,9.8h-1.4L55.6,0z M57.5,6.7l-0.7-5.8l-0.6,5.8H57.5z"/>
		<path class="st0" d="M62.3,0h2.6L66,9.8h-1.5l-0.2-1.6h-1.5l-0.2,1.6h-1.4L62.3,0z M64.3,6.7l-0.7-5.8L63,6.7H64.3z"/>
		<path class="st0" d="M68.1,0h1.5v8.3h1.1v1.4h-2.5V0z"/>
	</g>
	<g>
		<path class="st0" d="M2.4,23.3c0-0.1,0-0.3,0-0.4c0-0.1,0-0.2-0.1-0.2s-0.1-0.1-0.2-0.2c-0.1-0.1-0.2-0.2-0.3-0.3L1,21.7
			c-0.2-0.2-0.4-0.3-0.6-0.4c-0.1-0.1-0.2-0.2-0.3-0.4C0.1,20.8,0,20.7,0,20.5c0-0.1,0-0.3,0-0.5v-1.9c0-0.5,0.2-0.9,0.5-1.2
			c0.3-0.3,0.8-0.4,1.4-0.4c0.4,0,0.7,0.1,0.9,0.2c0.3,0.1,0.5,0.3,0.6,0.5c0.1,0.2,0.2,0.3,0.2,0.5c0,0.2,0.1,0.4,0.1,0.7v1H2.3v-1
			c0-0.4-0.1-0.7-0.4-0.7c-0.3,0-0.5,0.2-0.5,0.7v1.2c0,0.1,0,0.3,0,0.4c0,0.1,0,0.2,0.1,0.3c0,0.1,0.1,0.1,0.2,0.2
			c0.1,0.1,0.2,0.1,0.3,0.2l0.9,0.6c0.2,0.1,0.3,0.2,0.5,0.3c0.1,0.1,0.2,0.2,0.3,0.3c0.1,0.1,0.1,0.3,0.2,0.4
			c0,0.1,0.1,0.3,0.1,0.5v1.8c0,0.6-0.2,1.1-0.5,1.4C3,26.4,2.6,26.5,2,26.5c-0.4,0-0.7-0.1-0.9-0.2c-0.3-0.1-0.5-0.3-0.7-0.5
			c-0.1-0.2-0.2-0.4-0.3-0.6C0,25,0,24.7,0,24.4v-0.8h1.5v0.9c0,0.2,0,0.4,0.1,0.5c0.1,0.1,0.2,0.1,0.3,0.2c0.2,0,0.3,0,0.4-0.2
			c0.1-0.1,0.1-0.3,0.1-0.5V23.3z"/>
		<path class="st0" d="M6.1,18.3c0-0.6,0.2-1.1,0.5-1.4c0.3-0.3,0.8-0.5,1.4-0.5c0.6,0,1,0.2,1.4,0.5c0.3,0.3,0.5,0.8,0.5,1.4v1.1
			H8.4v-1c0-0.2,0-0.3-0.1-0.4S8.2,17.8,8,17.8c-0.3,0-0.5,0.2-0.5,0.5v6.2c0,0.4,0.1,0.6,0.4,0.6c0.3,0,0.5-0.2,0.5-0.5v-1.1h1.4
			v1.3c0,0.3,0,0.5-0.1,0.6c0,0.2-0.1,0.3-0.2,0.5C9.5,26,9.2,26.2,9,26.3c-0.3,0.1-0.6,0.2-0.9,0.2s-0.6-0.1-0.9-0.2
			c-0.3-0.1-0.5-0.3-0.7-0.5c-0.1-0.2-0.2-0.3-0.3-0.5c0-0.1-0.1-0.4-0.1-0.7V18.3z"/>
		<path class="st0" d="M12.1,16.6h1.4v9.8h-1.4V16.6z"/>
		<path class="st0" d="M15.8,16.6H19V18h-1.7v2.2H19v1.4h-1.7v3.3H19v1.4h-3.2V16.6z"/>
		<path class="st0" d="M21.2,16.6h1.4l1.8,5.6v-5.6h1.5v9.8h-1.3l-1.8-5.6v5.6h-1.4V16.6z"/>
		<path class="st0" d="M28.1,18.3c0-0.6,0.2-1.1,0.5-1.4c0.3-0.3,0.8-0.5,1.4-0.5c0.6,0,1,0.2,1.4,0.5c0.3,0.3,0.5,0.8,0.5,1.4v1.1
			h-1.4v-1c0-0.2,0-0.3-0.1-0.4s-0.2-0.1-0.3-0.1c-0.3,0-0.5,0.2-0.5,0.5v6.2c0,0.4,0.1,0.6,0.4,0.6c0.3,0,0.5-0.2,0.5-0.5v-1.1h1.4
			v1.3c0,0.3,0,0.5-0.1,0.6c0,0.2-0.1,0.3-0.2,0.5c-0.2,0.2-0.4,0.4-0.7,0.5c-0.3,0.1-0.6,0.2-0.9,0.2s-0.6-0.1-0.9-0.2
			c-0.3-0.1-0.5-0.3-0.7-0.5c-0.1-0.2-0.2-0.3-0.3-0.5c0-0.1-0.1-0.4-0.1-0.7V18.3z"/>
		<path class="st0" d="M34,16.6h3.2V18h-1.7v2.2h1.7v1.4h-1.7v3.3h1.7v1.4H34V16.6z"/>
		<path class="st0" d="M39.4,16.6h3V18h-1.6v2.4h1.5v1.4h-1.5v4.6h-1.5V16.6z"/>
		<path class="st0" d="M44.6,16.6H46v9.8h-1.4V16.6z"/>
		<path class="st0" d="M48.3,18.3c0-0.6,0.2-1.1,0.5-1.4c0.3-0.3,0.8-0.5,1.4-0.5c0.6,0,1,0.2,1.4,0.5s0.5,0.8,0.5,1.4v1.1h-1.4v-1
			c0-0.2,0-0.3-0.1-0.4s-0.2-0.1-0.3-0.1c-0.3,0-0.5,0.2-0.5,0.5v6.2c0,0.4,0.1,0.6,0.4,0.6c0.3,0,0.5-0.2,0.5-0.5v-1.1h1.4v1.3
			c0,0.3,0,0.5-0.1,0.6c0,0.2-0.1,0.3-0.2,0.5c-0.2,0.2-0.4,0.4-0.7,0.5c-0.3,0.1-0.6,0.2-0.9,0.2s-0.6-0.1-0.9-0.2
			c-0.3-0.1-0.5-0.3-0.7-0.5c-0.1-0.2-0.2-0.3-0.3-0.5s-0.1-0.4-0.1-0.7V18.3z"/>
		<path class="st0" d="M55.1,18h-1v-1.4h3.4V18h-1v8.3h-1.5V18z"/>
		<path class="st0" d="M59.7,16.6h1.4v9.8h-1.4V16.6z"/>
		<path class="st0" d="M63.4,18.2c0-0.6,0.2-1,0.5-1.4s0.8-0.5,1.4-0.5c0.6,0,1,0.2,1.4,0.5c0.3,0.3,0.5,0.7,0.5,1.3v6.6
			c0,0.6-0.2,1.1-0.5,1.4s-0.8,0.5-1.4,0.5c-0.6,0-1.1-0.2-1.4-0.5s-0.5-0.8-0.5-1.4V18.2z M65.8,18.5c0-0.5-0.2-0.7-0.5-0.7
			c-0.2,0-0.3,0.1-0.3,0.2s-0.1,0.3-0.1,0.5v6c0,0.4,0.2,0.6,0.5,0.6c0.3,0,0.5-0.2,0.5-0.6V18.5z"/>
		<path class="st0" d="M69.5,16.6h1.4l1.8,5.6v-5.6h1.5v9.8h-1.3L71,20.7v5.6h-1.4V16.6z"/>
	</g>
	<g>
		<path class="st0" d="M14.3,33.2h2.6L18,43h-1.5l-0.2-1.6h-1.5L14.7,43h-1.4L14.3,33.2z M16.3,39.9l-0.7-5.8L15,39.9H16.3z"/>
		<path class="st0" d="M19.4,33.2h1.5l0.9,6.9l1.1-6.9h1.4L22.5,43h-1.6L19.4,33.2z"/>
		<path class="st0" d="M26.2,34.8c0-0.6,0.2-1,0.5-1.4c0.3-0.3,0.8-0.5,1.4-0.5c0.6,0,1,0.2,1.4,0.5c0.4,0.3,0.5,0.7,0.5,1.3v6.6
			c0,0.6-0.2,1.1-0.5,1.4s-0.8,0.5-1.4,0.5c-0.6,0-1.1-0.2-1.4-0.5c-0.3-0.3-0.5-0.8-0.5-1.4V34.8z M28.6,35.1
			c0-0.5-0.2-0.7-0.5-0.7c-0.2,0-0.3,0.1-0.3,0.2c-0.1,0.1-0.1,0.3-0.1,0.5v6c0,0.4,0.2,0.6,0.5,0.6c0.3,0,0.5-0.2,0.5-0.6V35.1z"/>
		<path class="st0" d="M32.3,33.2h1.4l1.8,5.6v-5.6h1.5V43h-1.3l-1.8-5.6V43h-1.4V33.2z"/>
		<path class="st0" d="M40,34.6h-1v-1.4h3.4v1.4h-1V43H40V34.6z"/>
		<path class="st0" d="M44.6,33.2H46v7.9c0,0.4,0.2,0.6,0.5,0.6s0.5-0.2,0.5-0.6v-7.9h1.4V41c0,1.4-0.6,2.1-1.9,2.1
			c-0.6,0-1-0.2-1.4-0.5c-0.3-0.3-0.5-0.8-0.5-1.4V33.2z"/>
		<path class="st0" d="M50.6,33.2h1.4v7.9c0,0.4,0.2,0.6,0.5,0.6s0.5-0.2,0.5-0.6v-7.9h1.4V41c0,1.4-0.6,2.1-1.9,2.1
			c-0.6,0-1-0.2-1.4-0.5c-0.3-0.3-0.5-0.8-0.5-1.4V33.2z"/>
		<path class="st0" d="M56.7,33.2h2.2h0.4c0.1,0,0.2,0,0.3,0c0.1,0,0.2,0.1,0.3,0.1c0.2,0.1,0.3,0.2,0.4,0.4
			c0.1,0.1,0.1,0.3,0.2,0.4s0,0.3,0,0.6v2c0,0.4-0.1,0.7-0.2,0.9c-0.1,0.2-0.3,0.3-0.6,0.4c0.5,0.1,0.8,0.4,0.8,1v0v4h-1.5v-4.1
			c0-0.2,0-0.4-0.1-0.5s-0.2-0.1-0.4-0.1h-0.5V43h-1.5V33.2z M58.6,36.9c0.4,0,0.5-0.1,0.5-0.4v-1.1c0-0.4,0-0.6-0.1-0.7
			c-0.1-0.1-0.2-0.2-0.4-0.2h-0.5v2.4H58.6z"/>
	</g>
</g>
</svg>
