<?xml version="1.0" encoding="utf-8"?>
<!-- Generator: Adobe Illustrator 23.0.2, SVG Export Plug-In . SVG Version: 6.00 Build 0)  -->
<svg version="1.1" id="Laag_1" xmlns="http://www.w3.org/2000/svg" xmlns:xlink="http://www.w3.org/1999/xlink" x="0px" y="0px"
	 width="93.3px" height="12.1px" viewBox="0 0 93.3 12.1" style="enable-background:new 0 0 93.3 12.1;" xml:space="preserve">
<style type="text/css">
	.st0{fill:#6CA8DC;}
</style>
<g>
	<path class="st0" d="M19.7,9.3c-0.4,0.5-1,0.7-1.8,0.7S16.4,9.8,16,9.3c-0.4-0.5-0.6-1.2-0.6-2.2V4.6c0-0.8,0.2-1.4,0.6-1.8
		c0.4-0.4,1-0.7,1.8-0.7s1.4,0.2,1.8,0.7c0.4,0.4,0.6,1,0.6,1.8v2.5C20.2,8.1,20,8.9,19.7,9.3z M16.8,8.7C17,9,17.4,9.2,17.9,9.2
		c0.5,0,0.8-0.1,1.1-0.4c0.2-0.3,0.3-0.8,0.3-1.6V4.5c0-0.3,0-0.6-0.1-0.8C19,3.6,19,3.4,18.8,3.3c-0.1-0.1-0.2-0.2-0.4-0.3
		c-0.1-0.1-0.3-0.1-0.4-0.1c-0.1,0-0.2,0-0.3,0c-0.1,0-0.2,0-0.3,0c-0.1,0-0.2,0-0.4,0.1c-0.1,0.1-0.3,0.1-0.4,0.3
		c-0.1,0.1-0.2,0.3-0.3,0.5c-0.1,0.2-0.1,0.5-0.1,0.8v2.6C16.5,7.9,16.6,8.4,16.8,8.7z"/>
	<path class="st0" d="M26.3,2.3h0.9v7.6h-1.3l-3-6.6h0v6.6H22V2.3h1.4l3,6.5h0V2.3z"/>
	<path class="st0" d="M28.2,2.3h5v0.8h-2v6.7h-1V3.1h-2V2.3z"/>
	<path class="st0" d="M34.2,9.8V2.3h2.3c1,0,1.7,0.4,2,1.2c0.2,0.5,0.3,1.3,0.3,2.4c0,1.5-0.2,2.6-0.5,3.1c-0.4,0.7-1.2,1-2.5,1
		H34.2z M35.2,3.1V9h0.9c0.7,0,1.2-0.2,1.4-0.5c0.3-0.3,0.4-0.9,0.4-1.8V5.2c0-0.8-0.1-1.3-0.4-1.6S37,3.1,36.4,3.1H35.2z"/>
	<path class="st0" d="M44.6,9.8h-4V2.3h3.9v0.8h-2.9v2.4h2.7v0.8h-2.7V9h3V9.8z"/>
	<path class="st0" d="M46.8,9.8h-1V2.3h1v3.3h0l2.6-3.3h1.1l-2.8,3.4l2.9,4.2h-1.2l-2.7-4h0V9.8z"/>
	<path class="st0" d="M55,3.1v6.7H54V2.3h1.6l1.9,6.4h0l1.9-6.4h1.6v7.6h-1V3.1h0L58,9.8h-0.9L55,3.1L55,3.1z"/>
	<path class="st0" d="M66.8,9.8h-4V2.3h3.9v0.8h-2.9v2.4h2.7v0.8h-2.7V9h3V9.8z"/>
	<path class="st0" d="M72,9.8h-4V2.3H72v0.8H69v2.4h2.7v0.8H69V9h3V9.8z"/>
	<path class="st0" d="M75.4,6.4h-1.1v3.5h-1V2.3h2.6c0.6,0,1.1,0.2,1.4,0.5c0.3,0.4,0.4,0.8,0.4,1.3c0,0.5-0.1,0.8-0.4,1.2
		s-0.6,0.5-1,0.6v0c0.5,0.1,0.8,0.2,0.9,0.5c0.2,0.2,0.3,0.7,0.3,1.5c0,0.2,0,0.6,0.1,1s0.1,0.8,0.2,1h-1c-0.1-0.2-0.1-0.4-0.2-0.6
		c0-0.2-0.1-0.6-0.1-1s0-0.7,0-0.9C76.5,6.7,76.1,6.4,75.4,6.4z M74.3,3.1v2.4h1.5c0.3,0,0.6-0.1,0.8-0.4c0.2-0.2,0.3-0.5,0.3-0.9
		c0-0.3-0.1-0.6-0.3-0.8c-0.2-0.2-0.4-0.3-0.8-0.3H74.3z"/>
</g>
</svg>
