<?xml version="1.0" encoding="utf-8"?>
<!-- Generator: Adobe Illustrator 24.3.0, SVG Export Plug-In . SVG Version: 6.00 Build 0)  -->
<svg version="1.1" id="Laag_1" xmlns="http://www.w3.org/2000/svg" xmlns:xlink="http://www.w3.org/1999/xlink" x="0px" y="0px"
	 width="141.5px" height="26.6px" viewBox="0 0 141.5 26.6" style="enable-background:new 0 0 141.5 26.6;" xml:space="preserve">
<style type="text/css">
	.st0{fill:#EAFF00;}
	.st1{fill:#55374C;}
</style>
<g>
	<g>
		<path class="st0" d="M9.3,2.4h1.3l-1.9,8H7l-1.6-6H5.3l-1.6,6H1.9L0,2.4h1.3l1.4,6.5h0.1l1.6-6h1.7l1.6,6h0.1L9.3,2.4z"/>
		<path class="st0" d="M15.7,10.6c-1.2,0-2.1-0.4-2.9-1.2c-0.8-0.8-1.2-1.8-1.2-3c0-1.2,0.4-2.2,1.1-3c0.8-0.8,1.7-1.2,2.9-1.2
			c1.2,0,2.1,0.4,2.9,1.2c0.8,0.8,1.2,1.8,1.2,3c0,1.2-0.4,2.2-1.1,3C17.9,10.2,16.9,10.6,15.7,10.6z M15.7,9.3
			c0.8,0,1.4-0.3,1.9-0.8c0.5-0.6,0.7-1.2,0.7-2.1c0-0.8-0.2-1.5-0.7-2s-1.1-0.8-1.9-0.8c-0.8,0-1.4,0.3-1.9,0.8s-0.7,1.2-0.7,2
			c0,0.8,0.2,1.5,0.7,2.1C14.3,9,15,9.3,15.7,9.3z"/>
		<path class="st0" d="M30.9,5c0.5,0.2,1,0.5,1.3,0.9s0.5,1,0.5,1.6c0,0.9-0.3,1.6-0.9,2.2c-0.6,0.6-1.5,0.8-2.5,0.8
			c-1.1,0-1.9-0.3-2.5-0.9s-0.9-1.3-1-2.3h1.4c0,0.5,0.2,1,0.6,1.3c0.4,0.4,0.8,0.5,1.5,0.5c0.6,0,1.1-0.2,1.4-0.5
			c0.4-0.3,0.6-0.8,0.6-1.3c0-0.5-0.2-1-0.5-1.3c-0.4-0.3-0.9-0.5-1.5-0.5h-0.5V4.4h0.5c0.5,0,1-0.1,1.3-0.4
			c0.3-0.3,0.5-0.7,0.5-1.1c0-0.4-0.2-0.8-0.4-1.1c-0.3-0.3-0.7-0.4-1.2-0.4c-0.5,0-0.9,0.1-1.2,0.4c-0.3,0.3-0.5,0.7-0.5,1.1h-1.4
			c0-0.8,0.3-1.5,0.9-2C27.6,0.3,28.4,0,29.3,0c0.9,0,1.6,0.3,2.1,0.8c0.6,0.5,0.8,1.1,0.8,1.9c0,1-0.5,1.8-1.4,2.3V5z"/>
		<path class="st0" d="M4.5,18.3c0.9,0,1.6,0.3,2.1,0.9c0.6,0.6,0.8,1.4,0.8,2.5v4.8H6v-4.5c0-0.8-0.2-1.4-0.5-1.8
			c-0.4-0.4-0.8-0.6-1.4-0.6c-0.5,0-1,0.2-1.4,0.6s-0.6,0.9-0.6,1.7v4.6H0.6v-8h1.1l0.2,1h0.1C2.6,18.6,3.4,18.3,4.5,18.3z"/>
		<path class="st0" d="M13.1,26.6c-1.2,0-2.1-0.4-2.9-1.2c-0.8-0.8-1.2-1.8-1.2-3c0-1.2,0.4-2.2,1.1-3c0.8-0.8,1.7-1.2,2.9-1.2
			c1.2,0,2.1,0.4,2.9,1.2c0.8,0.8,1.2,1.8,1.2,3c0,1.2-0.4,2.2-1.1,3C15.3,26.2,14.3,26.6,13.1,26.6z M13.1,25.3
			c0.8,0,1.4-0.3,1.9-0.8c0.5-0.6,0.7-1.2,0.7-2.1c0-0.8-0.2-1.5-0.7-2c-0.5-0.6-1.1-0.8-1.9-0.8c-0.8,0-1.4,0.3-1.9,0.8
			c-0.5,0.6-0.7,1.2-0.7,2c0,0.8,0.2,1.5,0.7,2.1C11.7,25,12.3,25.3,13.1,25.3z"/>
		<path class="st0" d="M24.1,18.4h1.5l-2.9,8h-2l-2.9-8h1.5l2.4,6.7h0.1L24.1,18.4z"/>
	</g>
	<g>
		<path class="st0" d="M116.1,9.2h4.1v1.2h-6V9.5l4.1-5.8V3.6h-3.8V2.4h5.7v0.9L116.1,9.2L116.1,9.2z"/>
		<path class="st0" d="M128.8,9l0.5,0.9c-0.1,0.1-0.2,0.3-0.4,0.4c-0.2,0.1-0.4,0.2-0.7,0.2c-0.4,0-0.8-0.1-1-0.3
			c-0.3-0.2-0.4-0.5-0.5-0.9c-0.7,0.8-1.6,1.2-2.7,1.2c-0.8,0-1.4-0.2-1.9-0.6c-0.5-0.4-0.8-0.9-0.8-1.7c0-0.8,0.3-1.4,1-1.9
			s1.5-0.7,2.7-0.8l1.5-0.1V5.4c0-0.6-0.1-1.1-0.4-1.5c-0.3-0.4-0.7-0.5-1.2-0.5c-0.5,0-0.9,0.2-1.2,0.5c-0.3,0.3-0.5,0.7-0.5,1.1
			h-1.3c0.1-0.8,0.4-1.4,0.9-1.9c0.6-0.5,1.3-0.8,2.2-0.8c0.9,0,1.7,0.3,2.2,0.8c0.6,0.6,0.8,1.3,0.8,2.3v3.1c0,0.6,0.2,0.9,0.5,0.9
			C128.5,9.4,128.6,9.3,128.8,9z M124.1,9.4c0.6,0,1.2-0.2,1.6-0.6s0.7-0.9,0.7-1.6V6.6l-1.3,0.1c-0.8,0.1-1.4,0.2-1.8,0.5
			s-0.6,0.6-0.6,1c0,0.4,0.1,0.7,0.4,0.9C123.4,9.3,123.7,9.4,124.1,9.4z"/>
		<path class="st0" d="M138,4c0.8,0,1.5,0.3,2.1,0.9s0.9,1.4,0.9,2.4c0,1-0.3,1.8-1,2.4c-0.6,0.6-1.5,0.9-2.5,0.9
			c-1,0-1.9-0.3-2.5-1c-0.6-0.6-1-1.5-1-2.5c0-0.6,0.1-1.1,0.3-1.6s0.5-1.1,1-1.8l2.2-3.5h1.7l-2.8,4.2C136.9,4.1,137.4,4,138,4z
			 M137.6,9.3c0.6,0,1.1-0.2,1.5-0.6s0.6-0.9,0.6-1.5c0-0.6-0.2-1.1-0.6-1.5c-0.4-0.4-0.9-0.6-1.5-0.6c-0.6,0-1.1,0.2-1.5,0.6
			c-0.4,0.4-0.6,0.9-0.6,1.5c0,0.6,0.2,1.1,0.6,1.5C136.5,9.1,137,9.3,137.6,9.3z"/>
		<path class="st0" d="M120.5,18.3c0.9,0,1.6,0.3,2.1,0.9c0.6,0.6,0.8,1.4,0.8,2.5v4.8h-1.5v-4.5c0-0.8-0.2-1.4-0.5-1.8
			c-0.4-0.4-0.8-0.6-1.4-0.6c-0.5,0-1,0.2-1.4,0.6s-0.6,0.9-0.6,1.7v4.6h-1.5v-8h1.1l0.2,1h0.1C118.5,18.6,119.3,18.3,120.5,18.3z"
			/>
		<path class="st0" d="M129.1,26.6c-1.2,0-2.1-0.4-2.9-1.2c-0.8-0.8-1.2-1.8-1.2-3c0-1.2,0.4-2.2,1.1-3c0.8-0.8,1.7-1.2,2.9-1.2
			c1.2,0,2.1,0.4,2.9,1.2c0.8,0.8,1.2,1.8,1.2,3c0,1.2-0.4,2.2-1.1,3C131.2,26.2,130.2,26.6,129.1,26.6z M129,25.3
			c0.8,0,1.4-0.3,1.9-0.8c0.5-0.6,0.7-1.2,0.7-2.1c0-0.8-0.2-1.5-0.7-2c-0.5-0.6-1.1-0.8-1.9-0.8c-0.8,0-1.4,0.3-1.9,0.8
			c-0.5,0.6-0.7,1.2-0.7,2c0,0.8,0.2,1.5,0.7,2.1C127.7,25,128.3,25.3,129,25.3z"/>
		<path class="st0" d="M140,18.4h1.5l-2.9,8h-2l-2.9-8h1.5l2.4,6.7h0.1L140,18.4z"/>
	</g>
	<rect x="36.8" y="5.2" class="st1" width="73" height="1.3"/>
</g>
</svg>
