<?xml version="1.0" encoding="utf-8"?>
<!-- Generator: Adobe Illustrator 24.0.0, SVG Export Plug-In . SVG Version: 6.00 Build 0)  -->
<svg version="1.1" id="Layer_1" xmlns="http://www.w3.org/2000/svg" xmlns:xlink="http://www.w3.org/1999/xlink" x="0px" y="0px"
	 width="340px" height="420px" viewBox="0 0 340 420" style="enable-background:new 0 0 340 420;" xml:space="preserve">
<style type="text/css">
	.st0{fill:#ffffff;}
	.st1{fill:#060000;}
</style>
<g>
	<g>
		<path class="st0" d="M41,35.9l2.3,25.3l0,11.2L42.9,86l-0.4,15.1c0,0,0.3,32.6,0.3,35.1c0,2.5-0.3,27.5-0.3,27.5l0.6,24.1
			l-0.3,28.5l1.9,27.2l-0.6,12.7l-0.6,23.1l0.6,19.6l0.5,25.4l1.4,25.6l1.3,28.8l5.8,7.2l59.8-0.9l0.9-44l87.7-3.2l82.3,2.9
			l2.8-39.9l-20.3,4.1l-71.5,0.3l-83.3,0.3l-3.8-11.4l3.7-26.5c0,0,20.4,0.2,22,0.2s64.3-0.3,64.3-0.3l28.8-0.9h26l39.3-1.7
			l-0.6-4.3l-2.2-53.8l-1.6-42.4l-0.9-55.7L286,58.1l-0.7-21.9l-54.7-0.9l-50-0.9L148,37l-36.7-1.1L41,35.9L41,35.9z"/>
		<g>
			<polygon class="st0" points="71.6,381.9 71.6,381.9 71.6,381.9 			"/>
			<path class="st0" d="M71.6,382C71.6,382,71.6,382,71.6,382C71.6,382,71.6,382,71.6,382C71.6,382,71.6,382,71.6,382z"/>
			<path class="st0" d="M47.9,386.7c0.1,0,0.2-0.2,0.2-0.5l0,0l0,0c-0.3,0.6-1-0.4-0.8,1.9C47.3,387.1,47.5,386.6,47.9,386.7z"/>
			<path class="st0" d="M79.5,387.8c-0.1,0-0.3,0-0.4,0C79.2,387.9,79.4,387.9,79.5,387.8z"/>
			<path class="st0" d="M54,384.6c0.3,0.1,0.6,0.2,0.9,0.3C54.7,384.4,54.4,384.5,54,384.6z"/>
			<path class="st0" d="M48.1,386.2c0.8-0.3,1.6-1.5,2.4-1.5c0.9,0,1.8-1.1,2.5-0.3c0.4,0.4,0.7,0.3,1.1,0.2
				c-0.7-0.3-1.5-0.5-2.3-0.7c-1-0.2-1.9-1.1-2.8-1.8c-0.3-0.2-0.7,0.1-0.7-1.3c-1.1,0.6-2.1,0.2-3.3,0.6c0.2,0.9,0.5,0.3,0.6,0.8
				c0.1,0.9,0.3,0.8,0.6,0.8c0.6,0,1.3,0.4,1.9,0.2c0.2-0.1,0.4,0.3,0.7,0.5c-0.2,0.5-0.4,0.9-0.6,0.4c-0.3-0.7-0.5-0.2-0.7,0.5
				c0.2,0.7,0.4,0.7,0.7,0.9C48.5,385.6,48.1,385.9,48.1,386.2L48.1,386.2L48.1,386.2z"/>
			<path class="st0" d="M48.9,382c0.9,0.7,1.8,1.6,2.8,1.8c0.8,0.2,1.5,0.4,2.3,0.7c0.3-0.1,0.6-0.1,0.9,0.3
				c-0.3-0.1-0.6-0.2-0.9-0.3c-0.3,0.1-0.7,0.2-1.1-0.2c-0.7-0.8-1.7,0.3-2.5,0.3c-0.8,0-1.6,1.2-2.4,1.5l0,0
				c0.1,0.2,0.2,0.4,0.3,0.3c0.4-0.3,0.7-0.3,1.1-0.9c0.4-0.6,0.9,0,1.3-0.7c0.1-0.2,0.2,0.2,0.3,0.4c0.2,0.4,0.4,0.4,0.7,0
				c0.5-0.8,1-0.8,1.5-0.6c0,0.6-0.2,0.8-0.1,1.3c0,0.3,0.2,0.3,0.2,0.1c0.5-1.5,1.1-0.7,1.6-0.9c0.2-0.1,0.4,0.3,0.6-0.6
				c-0.6-0.2-1.2-0.5-1.7-0.6c-0.6-0.1-1.2-0.2-1.8-0.6c-0.4-0.3-0.7-0.7-1.1-0.3c-0.2,0.2-0.5-0.4-0.7-0.2c-0.3-1.4-0.8-1-1.2-1.4
				c-0.3-0.3-0.6-0.2-0.8-0.9C48.3,382.1,48.7,381.8,48.9,382z"/>
			<path class="st0" d="M48.1,386.2L48.1,386.2L48.1,386.2z"/>
			<path class="st0" d="M48.1,386.2L48.1,386.2L48.1,386.2z"/>
			<path class="st0" d="M48.1,386.2L48.1,386.2L48.1,386.2z"/>
			<path class="st0" d="M48.1,386.2L48.1,386.2L48.1,386.2z"/>
			<path class="st0" d="M71.6,381.9C71.6,381.9,71.6,381.9,71.6,381.9C71.6,381.9,71.6,381.9,71.6,381.9
				C71.6,381.9,71.6,381.9,71.6,381.9z"/>
			<path class="st0" d="M71.6,382L71.6,382L71.6,382C71.6,381.9,71.6,381.9,71.6,382C71.6,381.9,71.6,382,71.6,382z"/>
			<path class="st0" d="M71.6,381.9c0-0.1,0-0.2,0-0.3c0.1-0.8,0.4-0.6,0.6-0.6c0.6,0.1,1.2,0.4,1.8,0.2c-1-0.3-2-0.1-2.9-0.7
				C71.3,381,71.5,381.1,71.6,381.9z"/>
			<path class="st0" d="M71.6,381.9C71.6,381.9,71.6,381.9,71.6,381.9C71.6,381.9,71.6,381.9,71.6,381.9c-0.1-0.8-0.4-0.9-0.5-1.4
				C71.2,381.2,71.4,381.6,71.6,381.9z"/>
			<path class="st0" d="M71.6,382L71.6,382L71.6,382z"/>
			<path class="st0" d="M71.6,381.9L71.6,381.9C71.6,382,71.6,382,71.6,381.9L71.6,381.9C71.6,382,71.6,381.9,71.6,381.9z"/>
			<path class="st0" d="M72.2,381c-0.2,0-0.5-0.2-0.6,0.6c0,0.1,0,0.2,0,0.3c0,0,0,0,0,0.1c0.2-0.7,0.4-0.7,0.7-0.6
				c0.6,0.1,1.2,0.5,1.8-0.1C73.4,381.4,72.8,381.1,72.2,381z"/>
			<path class="st0" d="M49.8,380.7c-0.5-0.1-1-0.7-1.6,0.1C48.7,380.3,49.3,381,49.8,380.7z"/>
			<path class="st0" d="M49.8,380.7c-0.5,0.4-1-0.3-1.6,0.1C48.7,380.8,49.3,381.1,49.8,380.7z"/>
			<path class="st0" d="M75.4,384.2c0.4,0,0.8,0.2,1.2-0.4c-1.2,0.6-2.5-0.1-3.7,0C73.7,383.8,74.6,384.3,75.4,384.2z"/>
			<path class="st0" d="M71.8,384.1c0,0,0-0.1,0.1-0.1h0C71.9,384,71.8,384.1,71.8,384.1L71.8,384.1z"/>
			<polygon class="st0" points="71.8,384.1 71.8,384.1 71.8,384.1 71.8,384.1 			"/>
			<path class="st0" d="M71.8,384.1L71.8,384.1L71.8,384.1C71.8,384.1,71.8,384.1,71.8,384.1z"/>
			<path class="st0" d="M71.9,384C71.9,384,71.9,384,71.9,384c0.3-0.1,0.7-0.2,1-0.2C72.6,383.8,72.2,383.8,71.9,384z"/>
			<path class="st0" d="M71.9,384c0.3-0.2,0.7-0.2,1-0.2c1.2,0,2.5,0.7,3.7,0c-0.4,0.6-0.8,0.3-1.2,0.4c-0.8,0.1-1.7-0.4-2.5-0.4
				C72.5,383.8,72.2,383.8,71.9,384c0,0.1-0.1,0.1-0.1,0.1c1.8,0.1,3.5,1.2,5.4,0.2c-0.5-1.1-0.8-1.8-1.2-1.1
				c-0.2,0.3-0.4,0.3-0.6,0c-0.2-0.3-0.4-0.2-0.5,0c-0.4,0.5-0.7,0.4-1.1,0C73.1,382.9,72.5,382.8,71.9,384L71.9,384
				C71.9,384,71.9,384,71.9,384z"/>
			<rect x="71.6" y="382" class="st0" width="0" height="0"/>
			<path class="st0" d="M71.8,384.1L71.8,384.1L71.8,384.1z"/>
			<path class="st0" d="M71.6,382.1C71.6,382.1,71.6,382.1,71.6,382.1c0-0.1,0-0.1,0-0.1c0,0,0,0,0,0
				C71.6,382,71.6,382.1,71.6,382.1z"/>
			<path class="st0" d="M71.6,383.4c0-0.4,0-0.8,0-1.3c0,0.1,0,0.3-0.1,0.3c-0.8,0.9-0.8,1.8-0.1,3.7c0.2-0.4,0.2-1.5,0.4-2
				c0,0,0,0,0,0l0,0l0,0l0,0l0,0l0,0c0,0,0,0,0,0C71.6,384.3,71.6,383.8,71.6,383.4z"/>
			<path class="st0" d="M71.6,382L71.6,382L71.6,382z"/>
			<path class="st0" d="M71.6,382.1c0,0.4,0,0.9,0,1.3c0,0.4,0,0.9,0.2,0.7c-0.1-0.3-0.1-0.7-0.1-1c0.1-0.5,0-0.9-0.1-1.1
				C71.6,382,71.6,382.1,71.6,382.1C71.6,382.1,71.6,382.1,71.6,382.1z"/>
			<path class="st0" d="M71.4,386.1c-0.7-1.9-0.6-2.8,0.1-3.7c0,0,0.1-0.2,0.1-0.3c0,0,0-0.1,0-0.1c0,0,0,0,0,0
				c-0.2,0.7-0.4,0.1-0.6,0.1c-0.2,0-0.5,0.2-0.4,1.1c0.2,1.5,0.2,3.3,0.8,3.9c0.3-0.8,0.4-1.8,0.3-2.9
				C71.6,384.6,71.7,385.7,71.4,386.1z"/>
			<path class="st0" d="M71.6,382L71.6,382C71.6,382,71.6,382,71.6,382C71.6,382,71.6,382,71.6,382C71.6,382,71.6,382,71.6,382z"/>
			<path class="st0" d="M71.8,384.1L71.8,384.1L71.8,384.1z"/>
			<rect x="71.8" y="384.1" class="st0" width="0" height="0"/>
			<g>
				<path class="st0" d="M295.8,341.8l-1.4-6.1c-4.2,0.2-8.4,0.5-12.6,0.8c-3.5,0.2-6.9,0.2-10.4,0.1c-0.7,0-1.2,0.4-1.9,0.3
					c-1.7-0.1-3.5,0.1-5.2,0.1c-3.3,0-6.6,0.1-9.8,0.1c0.4,0.2,0.7,0.5,0,0.6c-0.8,0.2-1.7,0.3-2.5,0.3c-1.2,0-2.5,0-3.7-0.1
					c-0.2,0-0.5,0-0.7-0.1c-1.2-0.9-2.8-0.7-4.2-1l0,0l0,0c-2.9-0.2-5.9-0.2-8.8-0.2c-4.2,0-8.4-0.2-12.5-0.2c-2.3,0-4.6,0-6.9-0.1
					c-1.5-0.1-3.1-0.2-4.6-0.1c-1.2,0.1-2.4,0-3.6-0.1c-2.7-0.2-5.3-0.3-8-0.3c-1.9,0-3.7,0-5.6-0.1c-2.4-0.2-4.8-0.2-7.3-0.1
					c-4.5,0.1-8.9,0.3-13.4,0.1c-3.2-0.2-6.5-0.1-9.7-0.3c-4.2-0.3-8.3-0.2-12.5-0.2c-2.4,0-4.7,0.2-7.1,0.1
					c-4.9-0.2-9.7-0.5-14.6-0.7c-0.4,0.2-0.9,0.3-1.4,0.3c-0.6-0.1-1.3-0.3-1.9-0.1c-0.2,0.1-0.4-0.2-0.5-0.4c-0.1,0-0.2,0-0.3,0
					c0,0.4-0.2,0.6-0.6,0.4c-0.6-0.2-1,0.1-1.4,0.1c-0.2,0.4,0.4,0.4,0.5,0.8c-0.9-0.4-2,0.5-2.6-0.7c-1,0.8-2.2,0.8-3.5,0.6
					c-0.4-0.1-0.8,0-1.3-0.1c-0.5-0.1-1.2,0.2-1.5-0.6c-0.1-0.2-0.5-0.1-0.8-0.2c-0.3-0.1-0.2-0.3-0.1-0.5c-0.9-0.1-1.9-0.1-2.8,0.2
					c0,0.3-0.1,0.5-0.4,0.5c-0.5,0-1,0.3-1.6,0.1c-0.1,0-0.3,0-0.4,0l0.5,7.4c0.3,0,0.6,0,0.8,0.1c1.5,0.6,3.1,0.6,4.6,0.7
					c1.4,0.1,2.9-0.3,4.3,0.3c0.1,0.1,0.3-0.1,0.5-0.1c1.3,0,2.6-0.5,4-0.3c1.3,0.2,2.6,0.2,3.9-0.1c1-0.2,2-0.1,3-0.1
					c1.4,0,2.8,0,4.1-0.4c0.2,0,0.4-0.1,0.5,0c2.6,0.5,5.1,0.7,7.6,0.1c0.3-0.1,0.6,0,0.8,0c3.5,0,7.1-0.1,10.6-0.1
					c1.7,0,3.4-0.3,5,0.6c0.3,0.1,0.6,0,0.6-0.3c0-0.3,0.3-0.3,0.5-0.3c0.1,0,0.2,0.1,0.2,0.3c-0.1,0.2-0.5,0-0.5,0.3
					c0.5,0.1,1,0.2,1.5,0c0.3-0.1,0.8-0.2,0.9,0.1c0.4,0.7,1,0.4,1.4,0.2c0.7-0.5,1.8,0,2.4-0.9c0.1-0.1,0.5-0.1,0.6,0.2
					c0.1,0.2,0.2,0.4,0.5,0.3c0.6-0.1,1.2,0,1.8,0c1.4-0.1,2.8-0.2,4.1,0.2c1,0.3,1.8,0.2,2.6-0.1c0.3-0.1,0.6-0.1,1-0.1
					c1.3-0.1,2.5,0.2,3.8,0.3c2.7,0.2,5.5,0.1,8.3-0.1c3.2-0.3,6.4-0.4,9.6-0.6c0.9-0.1,1.8-0.3,2.6,0.5c0.1,0.1,0.4,0.1,0.5,0.1
					c2.3-0.2,4.6,0.4,6.8-0.1c0.6-0.1,1.2-0.3,1.8-0.2c2.9,0.3,5.9-0.3,8.8,0.2c1.1,0.2,2.2,0.1,3.3,0.5c0.8,0.4,1.9,0.4,2.5,0.1
					c1.1-0.5,2.2-0.3,3.3-0.2c2.1,0.2,4.2,0.1,6.2-0.1c2.1-0.2,4.3-0.4,6.4-0.5c0.1,0,0.3,0,0.4,0.1c1.2,0.4,1.2,0.4,1.7,0.4
					c1.4-0.2,2.8-0.3,4.3-0.3c2.3,0.1,4.5,0.2,6.8,0c2.1-0.2,4.1-0.4,6.2-0.3c0.7,0,1.7-0.6,2.2,0.5c0,0.1,0.3,0.1,0.4,0
					c3-0.4,6.1,0.1,9.1-0.2c0.9-0.1,1.9-0.3,2.9,0.1c0.1,0.1,0.4,0,0.6-0.1c1.3-0.7,2.7-0.3,4.1-0.5c2.8-0.3,5.7-0.1,8.5-0.3
					c1.8-0.1,3.6-0.4,5.5-0.4"/>
				<path class="st0" d="M293.2,300.6c0.2-0.2,0.3-0.5,0.5-0.8c0.2-0.4,0.1-0.7-0.2-0.9c-1.1-0.9-2.3-0.8-3.5-0.7
					c-0.1,0-0.1,0.1-0.2,0.1c-0.3,0.2-0.6,0.1-0.9,0.1c-0.3,0.2-0.6,0.1-0.9,0.2c-1,0.1-2.1,0.3-3.2,0.3c-0.2,0.1-0.4,0-0.5,0
					c-1.2,0-2.4-0.1-3.5,0c-1.3,0.1-2.5,0-3.8,0c-0.5,0-1,0-1.5,0.2c-0.5,0.2-1,0.3-1.5,0.5c-0.9,0.3-1.8,0.4-2.6,0.6
					c-1.1,0.3-2.3,0.5-3.5,0.5c-1.2,0-2.3,0.3-3.4,0.7c-0.5,0.2-1,0.3-1.5,0.2c-2.2-0.2-4.3-0.2-6.6-0.1c-1.2,0.1-2.5,0.4-3.8,0.3
					c-2.8-0.1-5.7,0.2-8.7,0.2c-1.5,0-3-0.1-4.6-0.1c-1.5,0-3-0.1-4.6-0.1c-2,0-4-0.1-6,0.1c-1.5,0.2-3,0.2-4.5,0.3
					c-0.7,0-1.3,0.1-2,0c-2.3-0.3-4.7-0.2-7.1-0.4c-2.6-0.2-5.3,0.1-8.1,0.1c-2,0-4.1-0.1-6.2,0.1c-2,0.1-4.1,0.2-6.1,0.1
					c-2.4-0.2-4.9-0.3-7.4-0.1c-1.8,0.1-3.7,0.3-5.5,0.3c-5.5,0.1-11.3,0.2-17.2,0.4c-1.3,0-2.7,0-4.1,0.1
					c-3.9,0.3-7.9,0.2-11.9-0.1c-3.4-0.3-6.9-0.4-10.4-0.3c-3.7,0.1-7.4,0.3-11.2,0.4c-4.3,0.1-8.7-0.3-13.3-0.2
					c-1.4,0-2.6,0.5-3.9,0.7c-0.3,0-0.6,0.2-0.6,0.4c-0.6,1.4-1.1,2.8-0.5,4.3c0.2,0.5,0.6,0.7,1.3,0.7c2.2,0,4.3,0.1,6.4,0.2
					c5.4,0.1,10.6,0.2,15.7,0c2.1-0.1,4.2,0,6.2-0.3c2.6-0.3,5.2-0.3,7.8-0.1c4.1,0.2,8.2,0.2,12.1,0.1c0.6,0,1.3-0.1,1.8,0
					c1.2,0.4,2.3,0.3,3.5,0.2c3.2-0.1,6.3-0.4,9.4-0.5c4.1-0.1,8.2-0.3,12.1-0.6c3-0.3,6-0.7,8.9-0.6c1,0,1.9,0,2.9,0
					c2.8-0.1,5.6-0.1,8.3-0.1c1.7,0,3.4,0,5-0.1c3.1-0.3,6.1-0.2,9,0c2.3,0.2,4.6,0,6.9-0.2c1.3-0.1,2.6-0.2,3.8-0.2
					c1.4,0,2.8,0,4.2-0.2c0.7-0.1,1.5-0.2,2.2-0.1c0.6,0.1,1.1,0.1,1.7,0c1-0.2,2-0.2,3,0c0.3,0.1,0.6,0.1,0.9,0.2
					c1.3,0.2,2.7,0,4-0.1c2,0,4-0.1,6-0.1c1,0,1.9-0.1,2.9-0.2c2.1-0.2,4.2-0.4,6.3-0.3c0.5,0,1,0,1.5,0.1c0.6,0.2,1.2,0.2,1.7,0.1
					c0.7-0.1,1.4,0,2,0.1c0.2,0,0.4,0.1,0.5,0c0.4-0.3,0.9-0.3,1.3-0.3c1.3-0.1,2.6-0.2,3.9-0.4c0.8-0.2,1.6-0.4,2.4-0.5
					c2.4-0.2,4.8-0.2,7.1-0.4c0.3,0,0.5,0,0.8,0.1c1,0.4,2,0.5,3,0.4c1.5-0.1,3-0.3,4.5-0.5c0.6-0.1,1.2-0.1,1.8-0.2
					c1.1-0.2,2.2-0.4,3.3-0.3"/>
				<path class="st0" d="M115.2,271.3c0,0.2-0.3,0.1-0.2,0.5c0.7-0.4,1.4-0.1,2.2-0.4c0.4-0.1,1-0.4,1.5,0c0.3,0.2,0.6,0.1,1,0.2
					c0.7,0.1,1.4-0.4,2.1-0.2c0.9,0.3,1.9,0.1,2.8,0c2.5-0.2,5-0.4,7.6-0.2c1,0.1,2,0.1,3,0.1c1.7,0,3.4-0.3,5.1-0.5
					c3.2-0.3,6.3-0.5,9.5-0.5c1.8,0,3.6,0,5.3-0.2c3.2-0.4,6.4-0.6,9.6-0.4c1.3,0.1,2.6,0.3,3.9-0.2c0.3-0.1,0.7-0.2,0.8,0.1
					c0.2,0.6,0.6,0.2,0.8,0.4c0.1-0.3-0.3-0.3-0.1-0.6c0.3-0.1,0.6,0,0.8-0.1c1.1-0.4,2.3-0.5,3.5-0.5c2.8,0,5.6,0.1,8.4,0.2
					c1.8,0.1,3.5,0,5.3-0.2c2.3-0.2,4.6-0.4,6.9-0.5c1.5-0.1,3-0.1,4.4-0.2c3-0.2,6-0.2,9-0.3c1.9,0,3.7,0.1,5.6,0.1
					c2.3,0,4.6-0.3,6.9-0.1c0.6,0,1.1,0.1,1.7-0.1c2.4-0.5,4.7-0.3,7.1-0.1c1.9,0.2,3.8,0.3,5.7,0.1c2.4-0.4,4.8-0.6,7.2-1
					c0.6-0.1,1,0.3,1.6,0.1c0.6-0.2,1.2-0.2,1.8-0.1c2.8,0.3,5.6,0.2,8.5,0.2c3.1,0,6.2-0.1,9.3-0.3c1.9-0.1,3.9-0.4,5.8-0.5
					c1.4,0,2.9-0.3,4.3-0.1c1.5,0.1,3,0.3,4.5,0c2.1-0.5,4.2-0.6,6.3-0.4c1.3,0.2,2.6-0.3,3.9,0c1.6,0.3,3.2,0.2,4.7,0.6
					c0.1,0,0.3,0,0.4,0c0.3,0,0.7,0,0.8-0.5c0.1-0.6-0.3-0.7-0.6-0.9c-0.2,0-0.3,0-0.5,0c-0.5-0.1-1,0-1.4-0.2
					c-2.8-1-5.7-0.2-8.6-0.6c-0.2,0-0.3,0.1-0.5,0.1c-1.1,0.1-2.3,0.6-3.4,0.4c-1.3-0.2-2.6-0.2-3.9,0.2c-0.5,0.2-0.9,0.1-1.4-0.1
					c-0.9-0.3-1.9-0.3-2.8-0.1c-1,0.3-1.9,0.4-2.9,0.4c-1.3-0.1-2.5,0.2-3.7,0.3c-2.5,0.3-4.9,0.8-7.4,1c-1.1,0.1-2.2,0.1-3.3-0.4
					c-1.6-0.8-3.3-1.1-5.1-0.5c-1,0.4-2,0.4-3,0.2c-1.5-0.2-3.1-0.4-4.6,0.3c-1.5,0.6-2.9,0.5-4.4,0.2c-1.1-0.2-2.3-0.4-3.4-0.4
					c-1.7,0-3.4,0-5.1-0.1c-1.6-0.1-3.1,0-4.6,0.2c-0.7,0.1-1.5,0.2-2.2,0.1c-3.7-0.6-7.4-0.4-11.1-0.8c-1.5-0.2-3.1-0.3-4.6-0.1
					c-0.4,0-0.7,0-1.1-0.5c1.2,0,2.3,0.1,3.4,0.1c-1.4-0.4-3.6-0.3-4.2,0c0.1,0,0.3-0.1,0.4,0c0.1,0.3-0.1,0.3-0.2,0.4
					c-0.2,0-0.5,0-0.8,0c-0.1,0-0.1-0.1-0.1-0.1c0-0.3,0.4-0.1,0.4-0.4c-0.2-0.2-0.5-0.1-0.7-0.1c-0.9,0.2-1.7,0-2.6,0
					c-0.7,0-1.4-0.1-2.1,0c-2,0.3-4.1,0.6-6.1,0.6c-1.9,0-3.8,0.1-5.6-0.1c-1.1-0.1-2.4,0.3-3.5-0.5c-0.2-0.1-0.5-0.2-0.7-0.1
					c-0.8,0.2-1.6-0.1-2.4-0.2c-1.4-0.1-2.8,0-4.2-0.2c-0.9-0.2-1.9-0.2-2.8,0.1c-1.4,0.5-2.8,0.5-4.2,0.5c-3.7,0.1-7.4-0.1-11.2,0
					c-0.3,0-0.6,0-0.9-0.4c-0.3,0.5-1,0.4-1.1,0.2c-0.4-0.6-0.7,0.5-1,0.1c0-0.1-0.1-0.1-0.2-0.1c0.1,0,0.2,0,0.3-0.3
					c-0.6,0-1.1-0.2-1.6,0.1c-0.3,0.2-0.4,0.3-0.6,0.1c-0.2-0.2-0.5-0.1-0.7-0.1c-0.8,0.1-1.6,0.1-2.4,0.2c-1.7,0-3.4,0.7-5.1,0.5
					c-0.3,0-0.7,0.3-1,0.2c-0.8-0.2-1.7,0.2-2.5-0.1c-0.3-0.1-0.6,0-0.9,0.1c-0.7,0.2-1.5,0.4-2.2,0.6c-1.7,0.5-3.5,0.2-5.3,0.2
					c-0.2,0-0.3-0.1-0.3-0.3c-0.4,0-0.8,0.1-0.8-0.7c-0.2,0-0.4,0-0.5,0c0,0.2,0.2,0.4-0.1,0.5c-0.5,0.3-1,0.3-1.4,0c0,0,0,0-0.1,0
					c-0.1,0-0.3,0-0.4,0c0,0-0.1,0.1-0.1,0.1c-0.2,0.3-0.5,0.3-0.8,0.3c-0.3,0-0.4-0.2-0.5-0.6c0-0.1,0-0.1-0.1-0.1
					c-0.1,0-0.2,0-0.4,0c0,0,0,0-0.1,0c-0.9-0.1-1.8,0.1-2.8-0.1c-1.2,0.1-2.3,0.4-3.4,0.7c-1.3,0.3-2.5,0.6-3.8,0.9
					c-0.1,0.3-0.4,0.2-0.6,0.2c-0.9,0-1.9,0.4-2.8-0.1c-0.1,0.1-0.3,0.1-0.3,0.3c-0.2,1-0.9,1-1.4,0.8c-0.3-0.1-0.6,0-0.9-0.1
					c-0.6,0.1-1.2,0.1-1.1,1.2c0,0,0,0.1,0,0.1c-0.3,0.5-0.3,0.8,0.3,0.8c0.1,0,0.4,0.2,0.3,0.3c-0.5,0.4,0.1,0.7,0.1,1.1
					c-0.1,0.5,0.2,0.6,0.5,0.6c0.3,0,0.6,0.1,0.8,0c1.2-0.6,2.4-0.4,3.7-0.5C115.1,271.1,115.2,271.2,115.2,271.3z M199.2,265.1
					c0-0.1,0.1-0.2,0.2-0.2c0.1,0,0.3,0,0.3,0.2c0,0.2-0.1,0.2-0.2,0.3C199.3,265.4,199.2,265.3,199.2,265.1z M125.5,265.5
					c0-0.2,0.2-0.2,0.3-0.2c0.1,0,0.3,0,0.3,0.2c0,0.2-0.2,0.2-0.3,0.2C125.6,265.7,125.5,265.7,125.5,265.5z"/>
				<path class="st0" d="M287.5,36.2c-0.1-0.5-0.9-0.5-1.7-0.5c-1.2,0-2.7,0.2-2.9-0.8c0-0.2-0.8-0.4-1.2-0.4
					c-2.8-0.1-5.5-0.5-8.5-0.3c-2.5,0.2-5.1,0-7.6-0.1c-2.2-0.3-4.5,0-6.7,0c-7.8,0-15.5,0.2-23.3,0.1c-9.2-0.1-18.4-0.1-27.6-0.2
					c-7.1-0.1-14.2-0.2-21.3-0.3c-3.4,0-6.8,0.2-10.2,0.2c-6.7,0-13.2,0.6-19.8,1.1c-5.7,0.4-11.4,0.5-17,0.3
					c-7.9-0.3-15.9-0.7-23.8-0.7c-7.9,0.1-15.7,0.2-23.5,0.4c-5.9,0.1-11.8,0.1-17.6,0.3c-4.8,0.2-9.5,0.3-14.3,0.1
					c-2.3-0.1-4.7,0-7,0.1c-3.7,0.2-7.3,0.4-11,0.2c-1.1-0.1-2.2,0-3.3,0c-0.5,0-1,0.1-1.1,0.4c-0.1,0.3,0.3,0.4,0.7,0.5
					c0.7,0.1,1.4,0.3,2.2,0.3c4.1,0.2,8.1,0.5,12.3,0.3c3.4-0.2,6.8-0.3,10.3-0.1c1.6,0.1,3.2,0.1,4.8,0.1c7.4,0,14.7-0.4,22.1-0.1
					c0.5,0,1,0,1.5,0c4.5-0.3,9.1-0.4,13.6-0.3c3.7,0.1,7.4,0.1,11.1,0.3c6.5,0.4,13,0.4,19.5,0.5c1.4,0,2.9-0.1,4.3-0.2
					c2.5-0.2,5-0.3,7.6-0.3c5.1,0,10.2-0.1,15.2-0.6c2.6-0.3,5.1-0.8,7.7-0.9c8.5-0.4,17-0.2,25.5,0.1c5.8,0.2,11.5,0.7,17.4,0.6
					c4.5,0,9.1,0.1,13.6,0.2c8.3,0.3,16.7,0.3,25,0.1c10.9-0.2,21.9-0.8,32.9-0.3C286.1,36.1,286.8,36.1,287.5,36.2z"/>
				<path class="st0" d="M107.3,263.8c0.5,2.1,0.8,4.1,0.6,6c-0.2,2.1,0.4,4.1,0.1,6c-0.2,0.9-0.7,1.9-0.3,2.8
					c0.4,0.9,0.2,1.8,0.2,2.6c0,1-0.2,2-0.4,3c-0.3,2.2-0.3,4.2-0.5,6.2c-0.3,2-0.7,3.9-0.7,5.7c0,1-0.1,2,0.1,3
					c0.2,0.8,0.6,1.5,0.5,2.3c0,0.4,0.1,0.8,0.7,1.2c0.3,0.2,0.6,0.3,1.3,0.3c0.7,0,1-0.2,1.2-0.3c0.6-0.3,1.1-0.6,1.6-1
					c1-0.6,1.2-1.3,0.5-2c0,0,0-0.2,0-0.2c0.9-0.2,0.5-0.4,0.4-0.7c-0.2-0.6-0.5-1.1-0.5-1.7c0-1.2-0.3-2.5-0.1-3.8
					c0.2-1.2-0.4-2.4-0.7-3.6c-0.5-1.5-0.5-3.2-0.3-4.9c0.3-1.9,0.8-4,1-6.2c0.4-3.5,0.1-7.3,0.6-11.5c0.3-1.9,1.1-4.1-0.4-6.2
					c-0.1-0.2,0-0.5,0-0.8"/>
				<g>
					<path class="st0" d="M46,386.2c0.1,0,0.1,0.1,0.2,0.2c0.3,0.5,0.9,0.5,1.3,0.5c0.5-0.1,0.9-0.1,1.4-0.1c0.6,0.1,1-0.2,1.2-0.7
						c0.8-1.4,1.1-2.9,1.2-4.5c0-1.3-0.1-2.6-0.2-4c-0.2-3.3,0-6.6-0.5-9.8c-0.3-1.8-0.2-3.6-0.3-5.3c-0.1-2.7-0.7-5.3-0.8-8
						c-0.2-3.9-0.7-7.8-1.2-11.7c-0.3-2.8-0.5-5.5-0.3-8.3c0.3-3.6,0.4-7.2-1.2-10.7c-0.6-0.3-1.2-0.7-2-0.8c-0.2,0.8,0,1.5-0.1,2.2
						c0,0.4,0.2,0.9-0.2,1.3c-0.3,1.5-0.1,3-0.2,4.4c-0.3,3-0.2,5.9,0.1,8.9c0.1,1.1,0.2,2.2,0.1,3.3c-0.2,1.8-0.3,3.7-0.3,5.5
						c0,2,0.2,4,0.1,5.9c-0.1,3.1-0.6,6.1-0.7,9.1c0,3.5-0.4,6.9-0.3,10.4c0.1,1.9,0.4,3.9,0.1,5.9c-0.1,0.7,0,1.5,0.1,2.2
						C44,383.8,44.1,385.6,46,386.2z"/>
					<path class="st0" d="M43.8,158.9c0.1-0.6,0-1.4,0.9-1.2c0.2,0,0.3-0.1,0.4-0.3c0.4-1.3,1.2-2.4,1.1-3.8
						c-0.1-2.8,0.1-5.5-0.1-8.3c-0.1-0.9-0.1-1.9,0-2.8c0.2-2.1,0.1-4.3-0.1-6.4c-0.1-1.5-0.2-3.1-0.3-4.6c-0.1-2.2-0.2-4.4-0.5-6.6
						c-0.4-3.5-0.3-7-0.6-10.5c-0.2-2.2-0.1-4.5-0.4-6.8c-0.4-2.5-0.4-4.9-0.6-7.4c-0.2-2.1,0-4.3,0.2-6.4c0.1-1.5,0.2-3,0-4.6
						c-0.4-0.4-0.4-1-0.3-1.6c0-0.2,0-0.4,0-0.6c-0.4-0.2-0.1-0.9-0.6-1.2c-0.5,0.4-0.4,1-0.4,1.6c0,2.2-0.5,4.4-0.6,6.6
						c0,0.1-0.1,0.2-0.2,0.2c-0.1,1.4-0.2,2.8-0.2,4.2c0,4.9-0.1,9.8-0.5,14.7c-0.3,3.4-0.6,6.8-0.3,10.3c0.1,0.6,0,1.2-0.1,1.8
						c-0.5,2-0.4,4.1-0.4,6.2c0,1-0.1,2-0.1,3c-0.1,2.8-0.4,5.6,0,8.5c0.3,1.9,0.3,3.8,0.4,5.8c0.1,0.9,0.3,1.8,0.7,2.5
						c0.4,0.7,0.6,1.4,0.6,2.1c0,2.1,0.4,4.2,0.3,6.3C43.2,160.3,43.4,159.4,43.8,158.9z"/>
					<path class="st0" d="M44.7,324.3c0.1-0.5-0.3-1.2,0.3-1.4c0.6-0.2,1.1,0.1,1.5,0.5c0.1,0.1,0.2,0.3,0.3,0.4
						c0.1-0.4,0-0.7-0.1-1.1c-0.3-1.1-0.5-2.3-0.5-3.4c-0.2-2.9,0.2-5.8,0.3-8.6c0.2-4.1,0.1-8.2-0.7-12.3c-0.5-2.3-0.6-4.6-0.5-6.9
						c0-0.7,0.2-1.3,0.2-2c0.1-4.3,0.3-8.7,0-13c-0.3-0.7-1-1.5-0.2-2.3c0-0.2,0-0.4,0-0.6c-0.6-0.6-1.5-0.9-1.9-1.7l0,0
						c0,0.1,0,0.2,0,0.3c0.1,0.3,0.1,0.6,0,0.9c0,0.1,0,0.1,0,0.2c0,1.1,0.4,2.2-0.1,3.2c0,2.7-0.1,5.4-0.1,8.1c0,1.6-0.1,3.2,0,4.8
						c0.1,2.5,0,5.1,0.3,7.6c0.2,1.6,0.4,3.3,0.5,4.9c0.3,2.8,0.1,5.5,0,8.3c-0.1,5.5,0.8,11,0.8,16.5
						C44.8,325.9,44.6,325.1,44.7,324.3z"/>
					<path class="st0" d="M44.8,325.3c0-0.7-0.1-1.5,0.1-2.2c0.8,0.1,1.4,0.4,2,0.8c-0.1-0.1-0.2-0.3-0.3-0.4
						c-0.4-0.4-1-0.7-1.5-0.5c-0.7,0.2-0.3,0.9-0.3,1.4c-0.1,0.8,0.2,1.6-0.1,2.3C45,326.3,44.8,325.8,44.8,325.3z"/>
					<path class="st0" d="M43,220.6c0-1.4,0-2.9-0.1-4.3c0-0.8,0.2-1.3,0.6-2c0.6-0.8,0.6,0,0.9,0.1c0.2-0.8-0.2-1.6-0.2-2.4
						c-0.4-5.1-0.3-10.1-0.1-15.2c0.1-2.6,0.2-5.1-0.1-7.7c-0.3-2.4-0.1-4.8,0-7.2c0.1-2.7-0.3-5.5-0.5-8.2
						c-0.1-1.3-0.5-2.7-0.3-3.9c0.4-3.6,0.6-7.3,0.7-10.9c-0.3,0.7-0.4,1.9-1.5,0.9c0,0.1-0.1,0.3-0.1,0.4c-0.2,1.8,0,3.6,0,5.5
						c0,1.1,0.2,2.2,0,3.3c-0.1,1.1-0.2,2.2-0.2,3.4c0.1,4,0.1,7.9,0.1,11.9c0,1.4-0.1,2.8,0,4.2c0.2,1.9,0.2,3.9,0.3,5.8
						c0.1,1.8,0.1,3.6,0,5.4c-0.1,1.4-0.1,2.7-0.1,4.1c-0.1,2.6,0.2,5.2,0.2,7.8c0,3.6,0.2,7.1,0.2,10.7
						C43.1,221.8,43,221.2,43,220.6z"/>
					<path class="st0" d="M43.8,158.9c-0.4,0.5-0.7,1.3-1.5,0.9C43.4,160.8,43.5,159.7,43.8,158.9z"/>
					<path class="st0" d="M43.3,72.4c0,0.4,0.3,0.6,0.6,0.8c0.5-2.4-0.2-4.6-0.6-6.9c-0.1-0.8,0-1.2,0.8-1.2c0.1-0.5-0.2-1-0.1-1.6
						c-0.2,0-0.5,0.2-0.5-0.2c-0.1-0.8-0.3-1.6-0.1-2.3c0.2-0.6,0.2-1.2,0.3-1.9c-0.6,0-0.6-0.5-0.6-1c-0.1-1.9,0-3.7,0.1-5.6
						c0-2.7,0.1-5.4-0.4-8c-0.2-1.1-0.2-2.2,0-3.3l0,0c-0.4,0.2-0.6,0.1-0.5-0.4c0.1-0.3,0.1-0.6,0.2-0.8c-0.1-0.4-0.2-0.8-0.3-1.2
						c-1.2,0-1.2,0-1.3,1.5c0.1,1.7,0.2,3.5,0.4,5.2c0.3,4,0,7.9,0.1,11.9c0.2,4.7,0.4,9.4,1.2,14C42.7,71.8,43.3,71.6,43.3,72.4z"
						/>
					<polygon class="st0" points="44.1,237 44.1,237 44.1,237 					"/>
					<path class="st0" d="M44.5,236.1c-0.1-0.4-0.3-0.8,0.2-1.2c0.4,0.7-0.1,1.5,0.4,2.1c-0.1-1.7-0.1-3.4-0.1-5.2
						c0-3.9,0.1-7.8,0-11.7c0-1.9-0.2-3.8-0.6-5.7c-0.9,0.4-1.2,1.1-1.2,2.1c0.1,1.4,0.1,2.9,0.1,4.3c0,0.5,0.1,1.2-0.5,1.4
						c0,1.4,0,2.9,0,4.3c0,2.9-0.2,5.8,0.2,8.7c0.3,0.6,0.9,1.1,1.1,1.7C44.4,236.9,44.6,236.6,44.5,236.1z"/>
					<path class="st0" d="M43.3,220.9c0-1.4,0-2.9-0.1-4.3c0-1,0.3-1.8,1.2-2.1c-0.3-0.1-0.3-1-0.9-0.1c-0.5,0.7-0.6,1.2-0.6,2
						c0,1.4,0.1,2.9,0.1,4.3c0,0.6,0.1,1.1-0.2,1.7C43.5,222.1,43.3,221.4,43.3,220.9z"/>
					<path class="st0" d="M42.2,87.2c0-0.6,0.1-1.4,0.8-1.4c0.7,0,0.5,0.8,0.6,1.3c0.1-0.3,0.2-0.7,0.3-1c0.1-2,0.3-4,0.4-6
						c0-1.2,0.2-2.4,0.2-3.6c0-1.7,0.1-3.4,0.1-5.1c0-2.1-0.3-4.1-0.6-6.2c-0.7,1-0.3,2.1,0,3c0.4,1.5,0.3,2.9,0.3,4.4
						c0,0.3,0.1,0.7-0.2,0.8c-0.3,0.1-0.6-0.1-0.8-0.4c-0.3-0.5-0.5-1-0.8-1.4c-0.1,1.6,0.2,3.2,0.1,4.9c-0.1,1.3-0.2,2.6-0.2,3.9
						c0,2.7-0.3,5.3-0.5,7.9c-0.2,2-0.2,4.1,0,6.2c0.2-2.2,0.2-4.5,0.4-6.8C42.2,87.5,42.2,87.4,42.2,87.2z"/>
					<path class="st0" d="M42,94.2c0-2.2,0.6-4.4,0.6-6.6c0-0.6,0-1.2,0.4-1.6c0.5,0.3,0.2,0.9,0.6,1.2c-0.1-0.5,0.1-1.3-0.6-1.3
						c-0.6,0-0.7,0.8-0.8,1.4c0,0.2,0,0.3,0,0.5c-0.2,2.2-0.2,4.5-0.4,6.8C41.9,94.3,42,94.3,42,94.2z"/>
					<path class="st0" d="M44,73.4c0.3-0.1,0.2-0.5,0.2-0.8c0.1-1.5,0.1-2.9-0.3-4.4c-0.2-1-0.7-2.1,0-3c-0.8,0-0.9,0.4-0.8,1.2
						c0.4,2.3,1.1,4.5,0.6,6.9c-0.3-0.2-0.6-0.4-0.6-0.8c0.1-0.8-0.6-0.6-0.9-0.8c0.4,0.4,0.6,0.9,0.8,1.4
						C43.4,73.2,43.7,73.5,44,73.4z"/>
					<path class="st0" d="M45.1,273.7c0.1-1.4-0.1-2.7-0.1-4.1c0-1.7-0.3-3.4,0-5.1c0.2-0.9,0.2-1.9,0.3-2.8
						c0.2-2.2-0.2-4.4-0.4-6.5l0,0c-0.1,0-0.2-0.1-0.2-0.1c-0.2,0.7-0.7,1.3-0.8,2.1c-0.1,0.9-0.3,1.7,0,2.6
						c0.1,0.2-0.1,0.5-0.3,0.7c-0.1,3.3-0.3,6.7-0.4,10c0,0.5-0.2,0.9,0,1.4l0,0C44.1,272.3,44.6,272.9,45.1,273.7z"/>
					<path class="st0" d="M45.1,273.7c-0.4-0.8-1-1.4-1.9-1.7C43.6,272.9,44.5,273.1,45.1,273.7z"/>
					<path class="st0" d="M43.5,246.7c0.1,0.5-0.1,1,0.5,1.1c0.3,0.1,0.2,0.3,0.2,0.5c0,0.3-0.5,0.5-0.2,0.9c0.6-0.5,0.9-1,0.8-1.9
						c-0.1-0.7,0.1-1.4,0.5-2c0.3-2.8,0.3-5.5-0.2-8.3c-0.7-0.1-0.2-0.8-0.5-1.1c0.1,0.4,0.2,0.8-0.3,1.1c-0.1,0-0.2,0-0.3,0
						c0,0.1,0,0.2,0,0.3c0,0.1-0.1,0.2-0.1,0.2c-0.2-0.1-0.2-0.2-0.1-0.3c0-0.1,0.1-0.2,0.2-0.3c0,0,0,0,0,0c-0.7-0.4-0.8-1.1-1-1.8
						c0.1,3.5,0.2,6.9,0.2,10.4C43.8,245.9,43.4,246.4,43.5,246.7z"/>
					<path class="st0" d="M44,237.1C44,237.1,44,237.1,44,237.1C44.1,237.1,44.1,237.1,44,237.1C44.1,237,44.1,237,44,237.1
						C44.1,237,44.1,237,44,237.1c-0.2-0.7-0.8-1.1-1-1.8C43.2,236,43.3,236.7,44,237.1z"/>
					<path class="st0" d="M44.7,234.9c-0.5,0.4-0.4,0.8-0.2,1.2c0.2,0.5,0,0.7-0.4,0.9c0,0,0,0,0,0c0,0,0,0,0,0c0,0,0,0,0,0
						c0.1,0,0.2,0,0.3,0c0.4-0.3,0.4-0.7,0.3-1.1c0.3,0.3-0.2,0.9,0.5,1.1C44.6,236.5,45.1,235.6,44.7,234.9z"/>
					<path class="st0" d="M43.6,257.2c0-0.9,0.4-1.5,0.8-2.2c0.1-0.3,0.4-0.2,0.6,0.2l0,0c0-0.5,0-0.9,0-1.4
						c-0.2-1.7-0.2-3.4,0.1-5.2c0.1-1,0.4-2.1,0.3-3.2c-0.2,0.8-0.4,1.6-0.3,2.4c0,0.5-0.1,0.9-0.3,1.3c-0.1,0.2-0.3,0.5-0.6,0.4
						c-0.3-0.1-0.3-0.4-0.3-0.7c-0.2-1.1-0.3-2.1-0.5-3.2c-0.1,1.6,0,3.2,0.2,4.8c0.1,0.9,0.3,1.9,0.2,2.8c-0.3,2.4-0.1,4.8-0.1,7.2
						C43.8,259.5,43.6,258.3,43.6,257.2z"/>
					<path class="st0" d="M43.9,259.9c-0.3-0.9-0.1-1.8,0-2.6c0.1-0.8,0.6-1.4,0.8-2.1c0,0,0.2,0.1,0.2,0.1
						c-0.1-0.3-0.4-0.5-0.6-0.2c-0.3,0.7-0.7,1.3-0.8,2.2c0,1.1,0.2,2.3-0.1,3.4C43.8,260.4,43.9,260.1,43.9,259.9z"/>
					<path class="st0" d="M44,249.5c0.3,0.1,0.4-0.2,0.6-0.4c0.2-0.4,0.4-0.8,0.3-1.3c-0.1-0.8,0.1-1.6,0.3-2.4
						c-0.4,0.6-0.6,1.2-0.5,2c0.1,0.8-0.2,1.4-0.8,1.9c-0.2-0.4,0.2-0.6,0.2-0.9c0-0.2,0.1-0.5-0.2-0.5c-0.7-0.1-0.5-0.6-0.5-1.1
						c0-0.4,0.4-0.9-0.3-1.1c0.2,1.1,0.3,2.1,0.5,3.2C43.7,249.1,43.7,249.4,44,249.5z"/>
					<path class="st0" d="M43.4,51.6c-0.1,2.2-0.1,4.5,0,6.7c0,0.4-0.1,0.7,0.2,1c0.2-0.7,0.2-1.5,0.2-2.3c-0.1-2.3-0.2-4.7-0.1-7
						c0.1-2.8-0.3-5.5-0.6-8.2c0-0.2-0.1-0.4-0.3-0.5C42.9,44.8,43.5,48.1,43.4,51.6z"/>
					<path class="st0" d="M42.6,44.7c0.5,2.7,0.4,5.3,0.4,8c0,1.9-0.1,3.7-0.1,5.6c0,0.5,0,1,0.6,1c-0.3-0.3-0.2-0.6-0.2-1
						c-0.1-2.2,0-4.5,0-6.7c0.1-3.4-0.5-6.8-0.7-10.2C42.4,42.5,42.4,43.6,42.6,44.7z"/>
					<path class="st0" d="M42,38.9c0-0.6-0.5-1-0.6-1.5c0-0.2-0.2-0.3-0.4-0.3c-0.2,0-0.4,0.1-0.4,0.3c-0.1,1-0.6,2,0,3.1
						C40.5,38.7,40.7,38.5,42,38.9z"/>
					<path class="st0" d="M42,38.9c-1.3-0.5-1.5-0.2-1.3,1.5C40.9,38.9,40.9,38.9,42,38.9z"/>
					<path class="st0" d="M43.6,62.7c0.1,0.3,0,0.7,0.3,0.9c-0.1-1.4,0.1-2.9-0.3-4.3C44,60.4,43.3,61.5,43.6,62.7z"/>
					<path class="st0" d="M43.3,63.4c0,0.4,0.3,0.1,0.5,0.2c-0.3-0.2-0.2-0.6-0.3-0.9c-0.2-1.1,0.4-2.3,0-3.4
						c-0.1,0.6-0.1,1.2-0.3,1.9C43.1,61.8,43.3,62.7,43.3,63.4z"/>
					<path class="st0" d="M45.4,276.6c0.1-0.8,0.1-1.6-0.2-2.3C45,275,45.1,275.8,45.4,276.6z"/>
					<path class="st0" d="M45.4,276.6c-0.2-0.8-0.3-1.5-0.2-2.3C44.3,275.1,45,275.8,45.4,276.6z"/>
					<path class="st0" d="M43.2,273.3c-0.3,1-0.1,2.1-0.1,3.2C43.3,275.5,43,274.4,43.2,273.3z"/>
					<path class="st0" d="M43.2,273.3c-0.2,1,0.1,2.1-0.1,3.2C43.6,275.5,43.2,274.4,43.2,273.3z"/>
					<path class="st0" d="M43.6,87.7c0.2,0.5,0.3,1,0.3,1.6C44.3,88.6,43.8,88.2,43.6,87.7z"/>
					<path class="st0" d="M43.9,89.3c0-0.5-0.1-1.1-0.3-1.6C43.5,88.3,43.4,88.8,43.9,89.3z"/>
					<path class="st0" d="M42.7,41.4c0-0.5,0.1-0.9-0.3-1.2C42.7,40.5,42.1,41.1,42.7,41.4z"/>
					<path class="st0" d="M42.7,41.4c-0.5-0.3,0-0.9-0.3-1.2c-0.1,0.3-0.1,0.6-0.2,0.8C42.1,41.5,42.3,41.5,42.7,41.4z"/>
					<path class="st0" d="M43.2,272.2c-0.2,0.3-0.2,0.6,0,0.9C43.1,272.8,43,272.5,43.2,272.2z"/>
					<path class="st0" d="M43.2,272.2c-0.2,0.3-0.1,0.6,0,0.9C43.3,272.8,43.3,272.5,43.2,272.2z"/>
					<path class="st0" d="M43.9,237.3c0,0.1,0,0.3,0.1,0.3c0,0,0.1-0.1,0.1-0.2c0-0.1,0-0.2,0-0.3c0,0,0,0,0,0
						C44,237.2,43.9,237.2,43.9,237.3z"/>
					<path class="st0" d="M44.1,237.1C44.1,237.1,44.1,237.1,44.1,237.1C44.1,237.1,44.1,237.1,44.1,237.1
						C44.1,237.1,44.1,237.1,44.1,237.1z"/>
					<polygon class="st0" points="44.1,237 44.1,237 44.1,237 					"/>
				</g>
				<g>
					<path class="st0" d="M287.4,90.1c0-4.3,0.5-8.5,0.5-12.8c0.1-9.5-0.7-19-0.9-28.6c-0.1-4.1-0.4-8.1-0.4-12.2
						c0-1.5-0.2-2.7-1.6-3.5c0,0.5-0.5,0.8-0.4,1.5c0.1,1.4,0,2.9,0,4.3c0,5.9-0.1,11.8-0.1,17.7c0,3.4,0.1,6.8,0.2,10.2
						c0.1,3,0.1,6,0.2,9c0,1.9-0.5,3.8,0.4,5.6c-0.7,1.3-0.4,2.6-0.5,4c-0.1,2.4-0.3,4.9,0,7.3c0.3,2.2,0.5,4.3,0.2,6.5
						c-0.2,1.9,0,3.9,0,5.8c0.1,3.6,0.2,7.1,0.5,10.7c0.5,5.5-0.1,11,0.2,16.5c0.3,6.6-0.1,13.3-0.4,19.9c-0.2,7-0.2,14,0.4,20.9
						c0.7,8.1,1.2,16.1,1.5,24.1c0.2,4.1,0.4,8.2,0.5,12.2c0.1,5.1,0.3,10.2,0.6,15.3c0.5,8.4-0.1,16.9,0.9,25.3
						c0.5,3.9,0.2,7.9,0.6,11.8c0.2,1.4,0.5,2.8,0,4.3c-0.4,1.2,1.2,2.7,2.7,3.1c0.3-1.1-0.4-2.1-0.4-3.2c-0.2-3,0.1-6.1-0.1-9.1
						c-0.4-4.8-1-9.6-1.1-14.5c-0.1-8.8-0.6-17.6-1.1-26.5c-0.3-5.4-0.8-10.7-1.3-16.1c-0.2-2.5-0.1-5-0.3-7.4
						c-0.2-3-0.2-6.1-0.4-9.2c-0.1-2.2,0.3-4.4,0.3-6.6c0.3-6.6,0.1-13.2,0.2-19.8c0.1-11-0.4-22.1-0.1-33.2
						c0.1-2.7-0.1-5.3-0.5-7.9c-0.8-6.2-0.4-12.4-0.9-18.7C287.1,94.7,287.4,92.4,287.4,90.1z"/>
				</g>
				<path class="st0" d="M293.7,341c0-1.5-0.5-3.1,1-4.5c0.2-0.2,0.1-0.5-0.5-0.6c-0.5,0-0.5-0.3-0.4-0.5c0-0.1,0.2-0.2,0.5-0.2
					c0.4,0.1,0,0.4,0.5,0.5c0.1-0.4,0.3-0.9,0.1-1.4c-0.1-0.3-0.2-0.7,0.2-0.8c1.1-0.3,0.7-0.9,0.3-1.3c-0.8-0.7,0-1.7-1.4-2.2
					c-0.2-0.1-0.1-0.4,0.3-0.5c0.3-0.1,0.6-0.2,0.4-0.5c-0.2-0.6,0-1.1,0-1.7c-0.1-1.2-0.3-2.5,0.3-3.7c0.4-0.9,0.3-1.6-0.1-2.4
					c-0.1-0.3-0.1-0.6-0.2-0.9c-0.2-1.2,0.4-2.3,0.5-3.4c0.3-2.5,0.2-5-0.1-7.5c-0.4-2.9-0.6-5.9-1-8.8l-10.8,3.9
					c-0.4,2.2-0.3,4.4-0.2,6.6c0.2,4.1,0.4,8.1,0,12.1c-0.3,2.9-0.3,5.9-0.6,8.8c-0.5,3.8-0.5,7.5-0.5,11.3L293.7,341z"/>
				<path class="st0" d="M56.4,389.3c0.4,0,0.7,0,1.1-0.1c1.1-0.2,2.2-0.5,3.3-0.5c0.8,0,1.6-0.2,2.4,0c0.4,0.1,0.9-0.3,1.3-0.2
					c2.5,0.4,5,1,7.4,1c2.8-0.1,5.5,0.2,8.3-0.4c1-0.2,2.1-0.1,3.1-0.4c-0.9-0.3-1.7-0.2-2.6-0.7c-0.1-0.1-0.2-0.1-0.3,0.1
					c-0.2,0.6-0.5,0.5-0.7,0.3c-0.4-0.4-0.7-0.4-1,0.1c-0.1,0.2-0.3,0.2-0.3-0.3c-0.1-0.6,0.1-0.9,0.3-1.1c0,0,0.1-0.1,0.1,0
					c0.6,1,1.2-0.3,1.8,0c0.3,0.1,0.7-0.9,0.8-1.8c0-0.5-0.1-0.7-0.3-0.7c-0.9,0.2-1.8,0.2-2.7-0.1c-0.2-0.1-0.3,0-0.5-0.3
					c0-0.1-0.1-0.3-0.1-0.5c0-0.2,0.1-0.4,0.1-0.4c0.1-0.1,0.2-0.1,0.3-0.1c0.6,0,0.6,0,0.8-1.7c0-0.3,0.1-0.5,0.1-0.8
					c-0.2,0-0.5-0.1-0.7-0.1c-1.5,0.4-2.9,0.6-4.4,0.5c-0.6,0.7-1.2,0.2-1.8,0.1c-0.3,0-0.5-0.1-0.7,0.6c0,0,0,0,0,0l0,0l0,0
					c0,0,0,0,0,0c0.2,0.2,0.2,0.5,0.1,1.1c0,0.3-0.1,0.8,0.1,1c0,0,0-0.1,0.1-0.1c0,0,0,0,0,0c0.6-1.2,1.2-1.1,1.9-0.6
					c0.4,0.3,0.7,0.5,1.1,0c0.2-0.3,0.4-0.4,0.5,0c0.2,0.3,0.4,0.3,0.6,0c0.5-0.7,0.8,0,1.2,1.1c-1.9,0.9-3.7-0.2-5.4-0.2
					c0,0,0,0,0,0c0.1,1.1-0.1,2.1-0.3,2.9c-0.6-0.6-0.6-2.4-0.8-3.9c-0.1-0.9,0.1-1.1,0.4-1.1c0.2,0,0.4,0.6,0.6-0.1c0,0,0,0,0,0
					c0,0,0,0,0,0c-0.2-0.4-0.4-0.7-0.5-1.4c-0.1-0.1-0.1-0.3-0.2-0.3c-0.7,0.9-1.4,0.5-2.1,0.4c-0.9-0.1-1.8-0.6-2.7-0.5
					c-1.2,0.1-2.4,0.3-3.6-0.1c-0.2-0.1-0.3,0-0.5-0.1c-0.9-0.3-1.8,1-2.7-0.2c-0.1-0.1-0.1,0.1-0.2,0c-0.4-0.1-0.8,0-1.2,0
					c-1.5,0.2-3,0.3-4.4,0.5c-1.3,0.1-2.6,0.7-3.8,0.4c-0.5,0.4-1,0.2-1.6,0.1l0,0c0.2,0.6,0.5,0.6,0.8,0.9c0.4,0.4,0.9,0,1.2,1.4
					c0.3-0.3,0.5,0.4,0.7,0.2c0.4-0.4,0.7,0,1.1,0.3c0.6,0.4,1.2,0.5,1.8,0.6c0.5,0.1,1.1,0.4,1.7,0.6c-0.2,0.9-0.4,0.5-0.6,0.6
					c-0.5,0.2-1.1-0.6-1.6,0.9c-0.1,0.2-0.2,0.1-0.2-0.1c-0.1-0.5,0.1-0.7,0.1-1.3c-0.5-0.2-1-0.2-1.5,0.6c-0.2,0.4-0.4,0.4-0.7,0
					c-0.1-0.2-0.2-0.6-0.3-0.4c-0.4,0.8-0.9,0.2-1.3,0.7c-0.4,0.6-0.7,0.5-1.1,0.9c-0.1,0.1-0.2-0.1-0.3-0.3c0,0.3-0.1,0.5-0.2,0.5
					c-0.3-0.1-0.5,0.4-0.6,1.4c2.8,0.5,5.6,1,8.4,1.5C55.9,389,56.2,389.3,56.4,389.3z M63.7,387.2c0-0.1-0.1-0.3-0.1-0.5
					c0.5-0.4,0.1-1.3,0.2-1.8c0.1-0.7,0.4-1.3,0.5-2.1c0.1-0.4,0.3-0.2,0.5-0.6c0-0.1,0.2,0.1,0.2,0.2c0.2,1.8,0.7,0.2,1,0.7
					c0.6-0.9,1.2,0.2,1.8-0.3c0,0,0.1,0,0.1,0.1c0.5,0.7,0.5,0.7,0.9-0.6c0.3,0.7,0.6,1.3,0.8,2c0.1,0.4,0.3,0.7-0.1,1.1
					c-0.4,0.4-0.8,0.3-1.1,0.2c-0.8-0.3-1.6,0.2-2.4,0.3c-0.3,0-0.6,0.2-0.8,0.1c-0.3-0.1-0.5,0.1-0.7,1.1
					C64.3,387.9,64,387.9,63.7,387.2z"/>
				<path class="st0" d="M48.1,386.2L48.1,386.2c-0.2-0.2-0.4-0.2-0.5-0.2c-0.7-0.1-1.4,0.6-2.1,0.7c-1.5,0.3-2.9,0.1-4.4-0.2
					c-0.1,0-0.3-0.1-0.4,0.3c2.2,0.4,4.4,0.8,6.6,1.2C47.1,385.8,47.8,386.8,48.1,386.2z"/>
				<path class="st0" d="M78.3,383.8c0.4,0.1,0.8,0.5,1.2,0.4s0.8-0.2,1.2,0c0.3,0.1,0.7-0.3,0.7,1.1c0,1.1-0.3,2-0.7,2.2
					c-0.4,0.2-0.8,0.4-1.1,0.5c0.9,0,1.9-0.4,3,0.2c0.3,0.1,0.6-0.1,0.8,0.7c1.1,0.2,2.3,0.4,3.4,0.5c1.5,0.1,3,0,4.4,0.5
					c0.6,0.2,1.2,0.1,1.8,0.1c1.9-0.1,3.8-0.2,5.6,0c1.7,0.2,3.4-0.3,5.1-0.8c1.5-0.5,3.1-1,4.6-1c1.1-0.1,2.1-0.3,3.2-0.4
					c1.1-0.1,2.2-0.6,3.3,0c0.1,0.1,0.3,0.1,0.4-0.1c0.4-0.6,0.8-0.6,1.3-0.8c0.4-0.1,0.8-0.4,1.1-0.8c0.3-0.3,0.3-1.2,0.1-1.4
					c-0.4-0.4-0.6-1.4-1-1.5c-1-0.3-1.9-0.7-2.9-1.1c-0.2-0.1-0.3-0.1-0.5,0c-0.5,0.3-1,0.2-1.5,0.1c-1.1-0.1-2.2-0.5-3.4-0.8
					c-1.8-0.5-3.5,0.1-5.3,0.3c-1.2,0.2-2.5,0.5-3.7,0c-0.3-0.1-0.7-0.2-1.1-0.1c-1.5,0.3-3.1,0.4-4.6,0.3c-1-0.1-2-0.5-2.9-0.6
					c-1.9-0.2-3.8-0.4-5.7-0.5c-2-0.1-4-0.5-6,0.2C79.1,383,79,383.3,78.3,383.8z"/>
				<path class="st0" d="M78.2,383.2c-0.1,0-0.2,0-0.3,0.1c-0.1,0-0.1,0.3-0.1,0.4c0,0.2,0,0.4,0.1,0.5c0.1,0.3,0.3,0.2,0.5,0.3
					c0.9,0.4,1.8,0.3,2.7,0.1c0.2,0,0.3,0.1,0.3,0.7c-0.1,0.9-0.5,1.9-0.8,1.8c-0.6-0.3-1.2,1-1.8,0c0,0,0,0-0.1,0
					c-0.2,0.2-0.3,0.5-0.3,1.1c0,0.5,0.2,0.5,0.3,0.3c0.3-0.5,0.7-0.5,1-0.1c0.2,0.2,0.5,0.4,0.7-0.3c0.1-0.2,0.2-0.2,0.3-0.1
					c0.8,0.5,1.7,0.4,2.6,0.7c-0.2-0.8-0.5-0.6-0.8-0.7c-1-0.6-2.1-0.2-3-0.2c-0.2,0-0.3,0-0.4,0c0.1,0,0.3,0,0.4,0
					c0.3-0.1,0.7-0.3,1.1-0.5c0.4-0.2,0.7-1,0.7-2.2c0-1.4-0.4-1-0.7-1.1c-0.4-0.1-0.8,0-1.2,0s-0.8-0.3-1.2-0.4
					c0.8-0.5,0.9-0.8,0.9-3.1c0,0.3-0.1,0.5-0.1,0.8C78.8,383.1,78.8,383.1,78.2,383.2z"/>
				<path class="st0" d="M64.4,387c0.2-1,0.4-1.2,0.7-1.1c0.3,0.1,0.6-0.1,0.8-0.1c0.8-0.1,1.6-0.6,2.4-0.3c0.4,0.1,0.7,0.2,1.1-0.2
					c0.4-0.3,0.2-0.7,0.1-1.1c-0.3-0.7-0.5-1.3-0.8-2c-0.4,1.3-0.4,1.3-0.9,0.6c0-0.1-0.1-0.1-0.1-0.1c-0.6,0.5-1.2-0.6-1.8,0.3
					c-0.3-0.5-0.8,1.1-1-0.7c0-0.1-0.2-0.2-0.2-0.2c-0.1,0.4-0.4,0.2-0.5,0.6c-0.1,0.8-0.4,1.4-0.5,2.1c-0.1,0.5,0.3,1.5-0.2,1.8
					c0,0.2,0,0.4,0.1,0.5C64,387.9,64.3,387.9,64.4,387z"/>
				<path class="st0" d="M109.5,387.3c0-2.4,0.2-4.8,0.8-7.1c0.1-0.6,0-1.2-0.2-1.8c-0.6-1.4-0.9-2.7-0.8-4.1
					c0.1-1.4-0.1-2.8-0.5-4.2c-0.3-1.1-0.4-2.2-0.8-3.3c-0.2-0.7-0.4-1.3-0.7-2c-0.4-0.6-0.4-1.3-0.3-1.9c0.2-1.7,0.5-3.3,0.4-5
					c-0.1-1.6,0.2-3.2,0.3-4.8c0-0.2,0.1-0.5,0-0.7c0.1-1.5-0.1-3-0.3-4.5c-0.1-0.5,0.2-0.9-0.2-1.4c0-0.5,0.1-0.9-0.2-1.4
					c-0.1-0.1-0.2-0.2-0.2-0.3c-0.1-1.8-0.2-3.7,1.6-5.2c0.5-0.4,1-0.5,1.8-0.2c0.6,0.3,1.3,0.5,1.6,0.9c0-2.2,0.4-4.3,1-6.4
					l5.3,5.1c-0.4,1.7-0.2,3.4,0,5.1c0.1,0.9,0.1,1.7,0.2,2.6c0.2,2.1,0.3,4.3,0.4,6.4c0,1.4-0.2,2.7-1.1,4
					c-0.2,0.3-0.3,0.7-0.3,1.1c-0.1,3.1-0.3,6.2-0.3,9.3c0,1,0.4,2,0.6,3.1c0.3,1.6,0.3,3.1,0.2,4.7c0,0.5-0.2,1,0.3,1.6
					c0.2,0.2,0,0.4,0,0.6c-0.3,0.7-0.6,1.5-0.5,2.3c0.1,0.7-0.1,1.3-0.5,1.9c-0.3,0.5-0.3,1.1-0.4,1.6L109.5,387.3z"/>
			</g>
		</g>
	</g>
	<g>
		<g>
			<path class="st1" d="M93.7,80.1V68.3h7.3v30.4h-7.3v-12H80.9v12h-7.3V68.3h7.3v11.7H93.7z"/>
			<path class="st1" d="M126.6,88.1c0,0.7,0,1.7-0.1,2.1H112c0.6,2.3,2.2,3.4,4.6,3.4c1.6,0,3.3-0.7,4.7-1.9l4.4,4.1
				c-2.2,2.2-5.4,3.5-9.4,3.5c-6.7,0-11.2-4.5-11.2-11.1c0-6.7,4.4-11.4,10.9-11.4C122.2,76.9,126.6,81.4,126.6,88.1z M112,85.9h7.8
				c-0.5-2.2-1.8-3.3-3.8-3.3C113.8,82.6,112.5,83.8,112,85.9z"/>
			<path class="st1" d="M139.3,83.5v6.2c0,2.5,1.3,3.3,3,3.3c1.3,0,2.6-0.7,3.7-1.3l2.4,5.3c-2,1.4-4.1,2.4-7.6,2.4
				c-5.7,0-8.3-3.4-8.3-8.8v-7.1h-4v-6h4v-6.2h6.8v6.2h7.3v6L139.3,83.5L139.3,83.5z"/>
		</g>
		<g>
			<path class="st1" d="M80.9,130.6v11.6h-7.3v-30.4h23v6.5H80.9v5.7h14.7v6.6L80.9,130.6L80.9,130.6z"/>
			<path class="st1" d="M108.1,114.4c0,2.3-1.8,4-4.1,4c-2.3,0-4.1-1.8-4.1-4c0-2.3,1.8-4.1,4.1-4.1
				C106.3,110.3,108.1,112.1,108.1,114.4z M100.6,142.3v-21.3h6.8v21.3H100.6z"/>
			<path class="st1" d="M112.2,142.3V111h6.8v31.3H112.2z"/>
			<path class="st1" d="M131.2,114.4c0,2.3-1.8,4-4.1,4c-2.3,0-4.1-1.8-4.1-4c0-2.3,1.8-4.1,4.1-4.1
				C129.4,110.3,131.2,112.1,131.2,114.4z M123.8,142.3v-21.3h6.8v21.3H123.8z"/>
		</g>
		<g>
			<path class="st1" d="M149.8,142.3V140c-1.3,1.7-3.2,2.9-6.1,2.9c-5.7,0-9.9-4.9-9.9-11.3c0-6.3,4.2-11.2,9.9-11.2
				c2.9,0,4.8,1.2,6.1,2.9v-2.3h6.6v21.3L149.8,142.3L149.8,142.3z M140.7,131.6c0,2.8,1.8,4.9,4.5,4.9c2.7,0,4.6-2.1,4.6-4.9
				c0-2.8-1.9-4.9-4.6-4.9C142.5,126.7,140.7,128.8,140.7,131.6z"/>
			<path class="st1" d="M176,142.3V140c-1.3,1.7-3.2,2.9-6.1,2.9c-5.7,0-9.9-4.9-9.9-11.3c0-6.3,4.2-11.2,9.9-11.2
				c2.9,0,4.8,1.2,6.1,2.9v-2.3h6.6v21.3L176,142.3L176,142.3z M167,131.6c0,2.8,1.8,4.9,4.5,4.9c2.7,0,4.6-2.1,4.6-4.9
				c0-2.8-1.9-4.9-4.6-4.9C168.8,126.7,167,128.8,167,131.6z"/>
		</g>
		<g>
			<path class="st1" d="M187.5,142.3V111h6.8v31.3H187.5z"/>
		</g>
		<g>
			<path class="st1" d="M82.3,170.5v6.2c0,2.5,1.3,3.3,3,3.3c1.3,0,2.6-0.7,3.7-1.3l2.3,5.3c-2,1.4-4.1,2.4-7.6,2.4
				c-5.7,0-8.3-3.4-8.3-8.8v-7.1h-4v-6h4v-6.2h6.8v6.2h7.3v6L82.3,170.5L82.3,170.5z"/>
			<path class="st1" d="M106.9,163.8c4.3,0,7.6,3,7.6,7.9v14h-6.8v-11.6c0-2.5-1.3-3.9-3.4-3.9c-1.9,0-3.5,1.3-3.5,4v11.5h-6.8
				v-31.3h6.8v12.2C102.3,164.7,104.3,163.8,106.9,163.8z"/>
			<path class="st1" d="M139.6,175.1c0,0.7,0,1.7-0.1,2.1H125c0.6,2.3,2.2,3.4,4.6,3.4c1.6,0,3.3-0.7,4.7-1.9l4.4,4.1
				c-2.2,2.2-5.4,3.5-9.4,3.5c-6.7,0-11.2-4.5-11.2-11.1c0-6.7,4.4-11.4,10.9-11.4C135.3,163.8,139.6,168.4,139.6,175.1z
				 M125.1,172.9h7.8c-0.5-2.2-1.8-3.3-3.9-3.3C126.9,169.6,125.6,170.8,125.1,172.9z"/>
			<path class="st1" d="M158.2,185.8v-2.3c-1.3,1.7-3.2,2.9-6.1,2.9c-5.7,0-9.9-4.9-9.9-11.3c0-6.3,4.2-11.2,9.9-11.2
				c2.9,0,4.8,1.2,6.1,2.9v-2.3h6.6v21.3L158.2,185.8L158.2,185.8z M149.2,175.1c0,2.8,1.8,4.9,4.6,4.9c2.7,0,4.6-2.1,4.6-4.9
				c0-2.8-1.9-4.9-4.6-4.9C151,170.2,149.2,172.3,149.2,175.1z"/>
			<path class="st1" d="M178.7,170.5v6.2c0,2.5,1.3,3.3,3,3.3c1.3,0,2.6-0.7,3.7-1.3l2.4,5.3c-2,1.4-4.1,2.4-7.6,2.4
				c-5.7,0-8.3-3.4-8.3-8.8v-7.1h-4v-6h4v-6.2h6.8v6.2h7.3v6L178.7,170.5L178.7,170.5z"/>
			<path class="st1" d="M210.9,175.1c0,0.7,0,1.7-0.1,2.1h-14.5c0.6,2.3,2.2,3.4,4.6,3.4c1.6,0,3.3-0.7,4.7-1.9l4.4,4.1
				c-2.2,2.2-5.4,3.5-9.4,3.5c-6.7,0-11.2-4.5-11.2-11.1c0-6.7,4.4-11.4,10.9-11.4C206.5,163.8,210.9,168.4,210.9,175.1z
				 M196.3,172.9h7.8c-0.5-2.2-1.8-3.3-3.8-3.3C198.1,169.6,196.9,170.8,196.3,172.9z"/>
		</g>
		<g>
			<path class="st1" d="M229.3,164.2l-0.6,6.8c-0.9-0.3-2.2-0.6-3.4-0.6c-2.4,0-3.9,1.2-3.9,3.9v11.5h-6.8v-21.3h6.5v2.5
				c1.2-2.1,3.2-3,5.8-3C227.9,163.8,228.8,164,229.3,164.2z"/>
		</g>
		<g>
			<path class="st1" d="M107.3,215.3v14h-6.8v-11.6c0-2.5-1.2-3.9-3.4-3.9c-1.9,0-3.5,1.3-3.5,4v11.5h-6.8v-11.6
				c0-2.5-1.3-3.9-3.4-3.9c-1.9,0-3.5,1.3-3.5,4v11.5h-6.8v-21.3h6.5v2.7c1.4-2.3,3.5-3.3,6.3-3.3c2.8,0,5.2,1.3,6.5,3.6
				c1.5-2.5,3.8-3.6,6.8-3.6C104.2,207.3,107.3,210.3,107.3,215.3z"/>
			<path class="st1" d="M126.9,229.3V227c-1.3,1.7-3.2,2.9-6.1,2.9c-5.7,0-9.9-4.9-9.9-11.3c0-6.3,4.2-11.2,9.9-11.2
				c2.9,0,4.8,1.2,6.1,2.9v-2.3h6.6v21.3L126.9,229.3L126.9,229.3z M117.8,218.6c0,2.8,1.8,4.9,4.5,4.9c2.7,0,4.6-2.1,4.6-4.9
				c0-2.8-1.9-4.9-4.6-4.9C119.7,213.7,117.8,215.8,117.8,218.6z"/>
		</g>
		<g>
			<path class="st1" d="M146.8,215l5-7.1h8.2l-7.9,10.1l7.9,11.3h-8.2l-5.3-8.2h-1.5v8.2h-6.8v-31.3h6.8v17H146.8z"/>
			<path class="st1" d="M182.8,218.6c0,0.7,0,1.7-0.1,2.1h-14.5c0.6,2.3,2.2,3.4,4.6,3.4c1.6,0,3.3-0.6,4.7-1.9l4.4,4.1
				c-2.2,2.2-5.4,3.5-9.4,3.5c-6.7,0-11.2-4.5-11.2-11.1c0-6.7,4.4-11.4,10.9-11.4C178.5,207.3,182.8,211.9,182.8,218.6z
				 M168.3,216.4h7.8c-0.5-2.1-1.9-3.3-3.9-3.3C170.1,213.1,168.8,214.3,168.3,216.4z"/>
		</g>
		<g>
			<path class="st1" d="M200.4,207.7l-0.6,6.8c-0.9-0.3-2.2-0.6-3.4-0.6c-2.4,0-3.9,1.2-3.9,3.8v11.5h-6.8v-21.3h6.5v2.5
				c1.2-2.1,3.2-3,5.8-3C199.1,207.3,199.9,207.5,200.4,207.7z"/>
			<path class="st1" d="M212.6,212.8c-1.8,0-2.5,0.5-2.5,1.3c0,0.9,1.4,1.1,3.4,1.5l1.6,0.2c4.6,0.7,7,2.8,7,6.5
				c0,4.7-3.7,7.5-9.9,7.5c-3.6,0-7.4-0.7-9.9-2.2l2.4-5.3c2.2,1.3,4.5,2,7.5,2c2.1,0,3-0.5,3-1.4c0-0.8-1-1.2-3.4-1.5l-1.2-0.2
				c-5.2-0.8-7.5-2.9-7.5-6.7c0-4.5,3.4-7.1,9.2-7.1c3.5,0,5.7,0.5,9.2,1.8l-1.9,5.3C217.5,213.6,214.7,212.8,212.6,212.8z"/>
		</g>
	</g>
</g>
</svg>
