<?xml version="1.0" encoding="utf-8"?>
<!-- Generator: Adobe Illustrator 23.0.2, SVG Export Plug-In . SVG Version: 6.00 Build 0)  -->
<svg version="1.1" id="Laag_1" xmlns="http://www.w3.org/2000/svg" xmlns:xlink="http://www.w3.org/1999/xlink" x="0px" y="0px"
	 width="124.3px" height="12.4px" viewBox="0 0 124.3 12.4" style="enable-background:new 0 0 124.3 12.4;" xml:space="preserve">
<style type="text/css">
	.st0{fill:#FFFFFF;}
</style>
<g>
	<path class="st0" d="M0.6,11.8V0.6h4c1.1,0,2,0.4,2.6,1.1s1,1.6,1,2.8c0,1.1-0.3,2-1,2.8C6.5,7.9,5.6,8.3,4.6,8.3H2.3v3.5H0.6z
		 M2.3,6.5h2.2c0.6,0,1-0.2,1.4-0.6C6.3,5.5,6.5,5,6.5,4.4S6.3,3.4,5.9,3C5.6,2.6,5.1,2.4,4.6,2.4H2.3V6.5z"/>
	<path class="st0" d="M9.8,11.8V0.6h1.7V10h5.1v1.8H9.8z"/>
	<path class="st0" d="M26.8,11.8l-0.9-2h-6.1l-0.9,2h-1.9l5-11.2h1.7l5,11.2H26.8z M20.7,8h4.5l-2.2-5L20.7,8z"/>
	<path class="st0" d="M30.1,11.8V0.6h1.6L38,8.8V0.6h1.7v11.2h-1.6l-6.3-8.2v8.2H30.1z"/>
	<path class="st0" d="M48.8,11.8c-1.1,0-1.9-0.3-2.4-1c-0.6-0.7-0.8-1.4-0.8-2.3l1.6-0.8c0,0.7,0.1,1.2,0.4,1.6
		c0.3,0.4,0.7,0.6,1.3,0.6c0.5,0,0.9-0.2,1.1-0.5c0.2-0.3,0.4-0.8,0.4-1.4V0.6h1.7v7.5c0,1.2-0.3,2.1-0.9,2.7
		C50.6,11.5,49.8,11.8,48.8,11.8z"/>
	<path class="st0" d="M54.3,11.8V0.6H61v1.8h-5v2.9h5v1.8h-5V10h5v1.8H54.3z"/>
	<path class="st0" d="M67.4,11.8V0.6h4.5c0.9,0,1.7,0.3,2.2,0.9C74.7,2.1,75,2.8,75,3.7c0,0.5-0.1,1-0.4,1.5c-0.2,0.4-0.6,0.8-1,1
		c0.4,0.2,0.7,0.6,1,1C74.9,7.6,75,8.1,75,8.7c0,0.9-0.3,1.7-0.9,2.3c-0.6,0.6-1.3,0.9-2.2,0.9H67.4z M69.2,5.3H72
		c0.4,0,0.7-0.1,1-0.4c0.3-0.3,0.4-0.6,0.4-1.1c0-0.4-0.1-0.8-0.4-1s-0.6-0.4-1-0.4h-2.8V5.3z M69.2,10h2.8c0.4,0,0.7-0.1,1-0.4
		s0.4-0.6,0.4-1s-0.1-0.8-0.4-1.1c-0.3-0.3-0.6-0.4-1-0.4h-2.8V10z"/>
	<path class="st0" d="M76.8,11.8V0.6h6.7v1.8h-5v2.9h5v1.8h-5V10h5v1.8H76.8z"/>
	<path class="st0" d="M84.9,11.8v-1.3l6.1-8h-6.1V0.6h8.7v1.3l-6.1,8h6.1v1.8H84.9z"/>
	<path class="st0" d="M99.1,11.8c-1.5,0-2.8-0.5-3.8-1.6c-1-1.1-1.5-2.4-1.5-4c0-1.6,0.5-2.9,1.5-4c1-1.1,2.3-1.6,3.8-1.6
		c1.5,0,2.8,0.5,3.8,1.6c1,1.1,1.5,2.4,1.5,4c0,1.6-0.5,2.9-1.5,4C102,11.3,100.7,11.8,99.1,11.8z M96.5,8.9
		c0.7,0.7,1.5,1.1,2.6,1.1s1.9-0.4,2.6-1.1c0.7-0.7,1-1.6,1-2.7c0-1.1-0.3-2-1-2.7s-1.5-1.1-2.6-1.1s-1.9,0.4-2.6,1.1
		c-0.7,0.7-1,1.6-1,2.7C95.5,7.3,95.9,8.2,96.5,8.9z"/>
	<path class="st0" d="M106.2,11.8V0.6h6.7v1.8h-5v2.9h5v1.8h-5V10h5v1.8H106.2z"/>
	<path class="st0" d="M115,11.8V0.6h1.7v5.2l4.9-5.2h2.5l-4.6,4.9l4.7,6.3h-2.2l-3.7-5l-1.5,1.6v3.4H115z"/>
</g>
</svg>
