<?xml version="1.0" encoding="utf-8"?>
<!-- Generator: Adobe Illustrator 23.0.2, SVG Export Plug-In . SVG Version: 6.00 Build 0)  -->
<svg version="1.1" id="Laag_1" xmlns="http://www.w3.org/2000/svg" xmlns:xlink="http://www.w3.org/1999/xlink" x="0px" y="0px"
	 width="475.2px" height="54.8px" viewBox="0 0 475.2 54.8" style="enable-background:new 0 0 475.2 54.8;" xml:space="preserve">
<style type="text/css">
	.st0{fill:#FFFFFF;}
</style>
<g>
	<polygon class="st0" points="118.9,28.4 118.9,31.9 160.1,31.9 160.1,28.4 	"/>
	<path class="st0" d="M169.5,30.4c0,2.3,0.3,4.2,0.8,5.9s1.2,3.1,2.1,4.2c0.9,1.1,2,1.9,3.2,2.5c1.2,0.5,2.5,0.8,3.9,0.8
		s2.7-0.3,3.9-0.8c1.2-0.5,2.3-1.4,3.2-2.5c0.9-1.1,1.6-2.5,2.1-4.2s0.8-3.6,0.8-5.9c0-2.2-0.3-4.2-0.8-5.9s-1.2-3.1-2.1-4.2
		s-2-1.9-3.2-2.5c-1.2-0.5-2.5-0.8-3.9-0.8s-2.7,0.3-3.9,0.8c-1.2,0.5-2.3,1.4-3.2,2.5c-0.9,1.1-1.6,2.5-2.1,4.2
		C169.7,26.2,169.5,28.2,169.5,30.4L169.5,30.4z M185.8,30.4c0,1.8-0.2,3.3-0.5,4.5c-0.3,1.3-0.8,2.3-1.4,3.1s-1.3,1.4-2,1.8
		c-0.8,0.4-1.6,0.6-2.6,0.6c-0.9,0-1.8-0.2-2.6-0.6c-0.8-0.4-1.5-1-2-1.8c-0.6-0.8-1-1.8-1.4-3.1c-0.3-1.3-0.5-2.8-0.5-4.5
		s0.2-3.2,0.5-4.5s0.8-2.3,1.4-3.1c0.6-0.8,1.3-1.4,2-1.8c0.8-0.4,1.6-0.6,2.6-0.6c0.9,0,1.8,0.2,2.6,0.6c0.8,0.4,1.5,1,2,1.8
		c0.6,0.8,1,1.8,1.4,3.1C185.7,27.2,185.8,28.7,185.8,30.4L185.8,30.4z M204.4,17h-3.2l-9,9l2.4,2.5l6.4-6.4v21.7h3.4L204.4,17
		L204.4,17z M213.5,37.8c-0.8,0-1.6,0.3-2.1,0.9c-0.6,0.6-0.9,1.3-0.9,2.1s0.3,1.6,0.9,2.1c0.6,0.6,1.3,0.9,2.1,0.9s1.6-0.3,2.1-0.9
		c0.6-0.6,0.9-1.3,0.9-2.1s-0.3-1.6-0.9-2.1C215.1,38.1,214.4,37.8,213.5,37.8L213.5,37.8z M219.2,30.4c0,2.3,0.3,4.2,0.8,5.9
		s1.2,3.1,2.1,4.2c0.9,1.1,2,1.9,3.2,2.5c1.2,0.5,2.5,0.8,3.9,0.8s2.7-0.3,3.9-0.8c1.2-0.5,2.3-1.4,3.2-2.5c0.9-1.1,1.6-2.5,2.1-4.2
		s0.8-3.6,0.8-5.9c0-2.2-0.3-4.2-0.8-5.9s-1.2-3.1-2.1-4.2s-2-1.9-3.2-2.5c-1.2-0.5-2.5-0.8-3.9-0.8s-2.7,0.3-3.9,0.8
		c-1.2,0.5-2.3,1.4-3.2,2.5c-0.9,1.1-1.6,2.5-2.1,4.2C219.4,26.2,219.2,28.2,219.2,30.4L219.2,30.4z M235.6,30.4
		c0,1.8-0.2,3.3-0.5,4.5c-0.3,1.3-0.8,2.3-1.4,3.1s-1.3,1.4-2,1.8c-0.8,0.4-1.6,0.6-2.6,0.6c-0.9,0-1.8-0.2-2.6-0.6
		c-0.8-0.4-1.5-1-2-1.8c-0.6-0.8-1-1.8-1.4-3.1c-0.3-1.3-0.5-2.8-0.5-4.5s0.2-3.2,0.5-4.5s0.8-2.3,1.4-3.1c0.6-0.8,1.3-1.4,2-1.8
		c0.8-0.4,1.6-0.6,2.6-0.6c0.9,0,1.8,0.2,2.6,0.6c0.8,0.4,1.5,1,2,1.8c0.6,0.8,1,1.8,1.4,3.1C235.4,27.2,235.6,28.7,235.6,30.4
		L235.6,30.4z M256.6,25.8c0,0.8-0.1,1.6-0.4,2.2c-0.3,0.7-0.6,1.2-1.1,1.7s-1.1,0.9-1.7,1.1c-0.7,0.3-1.4,0.4-2.2,0.4
		c-1.6,0-2.8-0.5-3.8-1.4s-1.5-2.2-1.5-3.8c0-0.8,0.1-1.6,0.4-2.2c0.3-0.7,0.6-1.2,1.1-1.7s1-0.9,1.7-1.1c0.7-0.3,1.4-0.4,2.1-0.4
		s1.4,0.1,2,0.3s1.2,0.6,1.7,1c0.5,0.5,0.9,1,1.2,1.7C256.4,24.2,256.6,24.9,256.6,25.8L256.6,25.8z M242.4,26
		c0,1.3,0.2,2.5,0.7,3.5c0.4,1.1,1.1,2,1.8,2.7c0.8,0.8,1.7,1.3,2.8,1.8c1.1,0.4,2.2,0.6,3.4,0.6c0.8,0,1.7-0.1,2.5-0.4
		c0.8-0.2,1.7-0.7,2.5-1.2l0,0c0,0.9-0.1,1.7-0.3,2.6c-0.2,0.9-0.6,1.7-1.1,2.4s-1.2,1.3-2,1.7s-1.8,0.7-2.9,0.7
		c-1.5,0-3.1-0.4-4.8-1.3l-1.5,3.1c0.9,0.5,1.9,0.9,2.8,1.2c1,0.3,2.1,0.4,3.3,0.4c2.2,0,4-0.5,5.4-1.4s2.4-2.1,3.1-3.5
		s1.2-3,1.5-4.8c0.2-1.7,0.4-3.4,0.4-5.1c0-1.8-0.1-3.4-0.4-4.8c-0.3-1.4-0.7-2.6-1.4-3.6c-0.7-1.1-1.7-1.9-2.9-2.6
		c-1.2-0.7-2.6-1-4.2-1c-1.3,0-2.4,0.2-3.5,0.7c-1.1,0.4-2,1.1-2.8,1.8c-0.8,0.8-1.4,1.7-1.9,2.8C242.6,23.5,242.4,24.7,242.4,26
		L242.4,26z M266.6,37.8c-0.8,0-1.6,0.3-2.1,0.9c-0.6,0.6-0.9,1.3-0.9,2.1s0.3,1.6,0.9,2.1c0.6,0.6,1.3,0.9,2.1,0.9s1.6-0.3,2.1-0.9
		c0.6-0.6,0.9-1.3,0.9-2.1s-0.3-1.6-0.9-2.1C268.2,38.1,267.5,37.8,266.6,37.8L266.6,37.8z M281.9,17h-3.2l-9,9l2.4,2.5l6.4-6.4
		v21.7h3.4L281.9,17L281.9,17z M301.1,25.8c0,0.8-0.1,1.6-0.4,2.2c-0.3,0.7-0.6,1.2-1.1,1.7s-1.1,0.9-1.7,1.1
		c-0.7,0.3-1.4,0.4-2.2,0.4c-1.6,0-2.8-0.5-3.8-1.4s-1.5-2.2-1.5-3.8c0-0.8,0.1-1.6,0.4-2.2c0.3-0.7,0.6-1.2,1.1-1.7s1-0.9,1.7-1.1
		c0.7-0.3,1.4-0.4,2.1-0.4s1.4,0.1,2,0.3c0.7,0.2,1.2,0.6,1.7,1c0.5,0.5,0.9,1,1.2,1.7C300.9,24.2,301.1,24.9,301.1,25.8L301.1,25.8
		z M286.9,26c0,1.3,0.2,2.5,0.7,3.5c0.4,1.1,1.1,2,1.8,2.7c0.8,0.8,1.7,1.3,2.8,1.8c1.1,0.4,2.2,0.6,3.4,0.6c0.8,0,1.7-0.1,2.5-0.4
		c0.8-0.2,1.7-0.7,2.5-1.2l0,0c0,0.9-0.1,1.7-0.3,2.6c-0.2,0.9-0.6,1.7-1.1,2.4s-1.2,1.3-2,1.7s-1.8,0.7-2.9,0.7
		c-1.5,0-3.1-0.4-4.8-1.3l-1.5,3.1c0.9,0.5,1.9,0.9,2.8,1.2c1,0.3,2.1,0.4,3.3,0.4c2.2,0,4-0.5,5.4-1.4s2.4-2.1,3.1-3.5
		s1.2-3,1.5-4.8c0.2-1.7,0.4-3.4,0.4-5.1c0-1.8-0.1-3.4-0.4-4.8c-0.3-1.4-0.7-2.6-1.4-3.6c-0.7-1.1-1.7-1.9-2.9-2.6
		c-1.2-0.7-2.6-1-4.2-1c-1.3,0-2.4,0.2-3.5,0.7c-1.1,0.4-2,1.1-2.8,1.8c-0.8,0.8-1.4,1.7-1.9,2.8C287.1,23.5,286.9,24.7,286.9,26
		L286.9,26z"/>
	<path class="st0" d="M19.8,21.1L19.8,21.1l2.8,2.4c0.5-1.4,1.3-2.6,2.4-3.5c1-0.9,2.2-1.4,3.6-1.4c0.7,0,1.3,0.1,1.9,0.4
		c0.6,0.2,1.1,0.6,1.6,1c0.4,0.4,0.8,1,1.1,1.6s0.4,1.3,0.4,2c0,0.8-0.1,1.5-0.4,2.2s-0.7,1.3-1.1,1.8L20.8,39v3h16.1v-3.4h-11
		l8.4-8.6c0.7-0.7,1.3-1.7,1.8-2.8c0.5-1.1,0.8-2.4,0.8-3.7c0-1.2-0.2-2.3-0.7-3.3c-0.4-1-1-1.9-1.8-2.6s-1.7-1.3-2.7-1.7
		s-2.1-0.6-3.3-0.6c-1,0-2,0.2-2.9,0.5c-0.9,0.3-1.7,0.8-2.4,1.3c-0.7,0.5-1.3,1.2-1.9,1.9C20.7,19.6,20.2,20.3,19.8,21.1L19.8,21.1
		z M57,15.2H41.8v13.9c1-0.5,2-0.9,3-1.1c1.1-0.3,2.1-0.4,3-0.4c1.7,0,3,0.5,4.1,1.4c1,0.9,1.6,2.3,1.6,4c0,0.9-0.1,1.7-0.4,2.4
		c-0.3,0.7-0.7,1.3-1.2,1.7c-0.5,0.5-1.1,0.8-1.8,1s-1.4,0.3-2.2,0.3c-1,0-1.9-0.2-2.9-0.6c-1-0.4-1.9-1-2.9-1.7l-1.8,3.1
		c1,0.9,2.2,1.6,3.5,2s2.6,0.7,3.9,0.7c1.2,0,2.3-0.2,3.4-0.6c1.1-0.4,2.1-0.9,3-1.7s1.6-1.7,2.1-2.8s0.8-2.4,0.8-3.9
		c0-1.3-0.2-2.5-0.6-3.6c-0.4-1.1-1-2-1.8-2.8s-1.7-1.4-2.8-1.8S49.5,24,48.2,24c-0.7,0-1.2,0-1.7,0.1s-0.8,0.2-1.1,0.2v-5.8H57
		V15.2L57,15.2z M64,36c-0.8,0-1.6,0.3-2.1,0.9C61.3,37.4,61,38.1,61,39c0,0.8,0.3,1.6,0.9,2.1c0.6,0.6,1.3,0.9,2.1,0.9
		c0.8,0,1.6-0.3,2.1-0.9c0.6-0.6,0.9-1.3,0.9-2.1s-0.3-1.6-0.9-2.1C65.5,36.3,64.8,36,64,36L64,36z M69.6,28.6
		c0,2.3,0.3,4.2,0.8,5.9s1.2,3.1,2.1,4.2c0.9,1.1,2,1.9,3.2,2.5c1.2,0.5,2.5,0.8,3.9,0.8s2.7-0.3,3.9-0.8c1.2-0.5,2.3-1.4,3.2-2.5
		c0.9-1.1,1.6-2.5,2.1-4.2s0.8-3.6,0.8-5.9c0-2.2-0.3-4.2-0.8-5.9s-1.2-3.1-2.1-4.2s-2-1.9-3.2-2.5c-1.2-0.5-2.5-0.8-3.9-0.8
		s-2.7,0.3-3.9,0.8c-1.2,0.5-2.3,1.4-3.2,2.5c-0.9,1.1-1.6,2.5-2.1,4.2C69.9,24.3,69.6,26.3,69.6,28.6L69.6,28.6z M86,28.6
		c0,1.8-0.2,3.3-0.5,4.5c-0.3,1.3-0.8,2.3-1.4,3.1s-1.3,1.4-2,1.8c-0.8,0.4-1.6,0.6-2.6,0.6c-0.9,0-1.8-0.2-2.6-0.6
		c-0.8-0.4-1.5-1-2-1.8c-0.6-0.8-1-1.8-1.4-3.1c-0.3-1.3-0.5-2.8-0.5-4.5s0.2-3.2,0.5-4.5s0.8-2.3,1.4-3.1c0.6-0.8,1.3-1.4,2-1.8
		c0.8-0.4,1.6-0.6,2.6-0.6c0.9,0,1.8,0.2,2.6,0.6c0.8,0.4,1.5,1,2,1.8c0.6,0.8,1,1.8,1.4,3.1C85.8,25.3,86,26.8,86,28.6L86,28.6z
		 M109.6,15.2H94.4v13.9c1-0.5,2-0.9,3-1.1c1.1-0.3,2.1-0.4,3-0.4c1.7,0,3,0.5,4.1,1.4c1,0.9,1.6,2.3,1.6,4c0,0.9-0.1,1.7-0.4,2.4
		s-0.7,1.3-1.2,1.7c-0.5,0.5-1.1,0.8-1.8,1c-0.7,0.2-1.4,0.3-2.2,0.3c-1,0-1.9-0.2-2.9-0.6c-1-0.4-1.9-1-2.9-1.7l-1.8,3.1
		c1,0.9,2.2,1.6,3.5,2s2.6,0.7,3.9,0.7c1.2,0,2.3-0.2,3.4-0.6c1.1-0.4,2.1-0.9,3-1.7s1.6-1.7,2.1-2.8s0.8-2.4,0.8-3.9
		c0-1.3-0.2-2.5-0.6-3.6s-1-2-1.8-2.8s-1.7-1.4-2.8-1.8c-1.1-0.4-2.3-0.7-3.6-0.7c-0.7,0-1.2,0-1.7,0.1s-0.8,0.2-1.1,0.2v-5.8h11.7
		L109.6,15.2L109.6,15.2z"/>
</g>
</svg>
