<?xml version="1.0" encoding="utf-8"?>
<!-- Generator: Adobe Illustrator 24.3.0, SVG Export Plug-In . SVG Version: 6.00 Build 0)  -->
<svg version="1.1" id="Laag_1" xmlns="http://www.w3.org/2000/svg" xmlns:xlink="http://www.w3.org/1999/xlink" x="0px" y="0px"
	 width="86.6px" height="14.2px" viewBox="0 0 86.6 14.2" style="enable-background:new 0 0 86.6 14.2;" xml:space="preserve">
<style type="text/css">
	.st0{fill:#FFFFFF;}
</style>
<g>
	<path class="st0" d="M9.5,0h1.8v14h-2L2,3.2H1.8V14H0V0h2.1l7.2,10.9h0.2V0z"/>
	<path class="st0" d="M17.5,14.2c-1.1,0-2-0.4-2.7-1.1c-0.7-0.7-1-1.8-1-3.1V4h1.8v5.7c0,1,0.2,1.7,0.7,2.2c0.4,0.5,1,0.8,1.8,0.8
		c0.7,0,1.3-0.2,1.7-0.7c0.5-0.5,0.7-1.2,0.7-2.1V4h1.8v10H21l-0.3-1.3h-0.2C19.9,13.8,18.9,14.2,17.5,14.2z"/>
	<path class="st0" d="M34.2,13.8c-0.5,0.3-1,0.5-1.6,0.5c-1.6,0-2.5-0.9-2.5-2.7V5.5h-1.9V4.2h0.6c1,0,1.5-0.5,1.5-1.4V1.5h1.6V4
		h2.4v1.5h-2.4v5.9c0,0.8,0.3,1.3,1,1.3c0.3,0,0.6-0.1,0.9-0.3L34.2,13.8z"/>
	<path class="st0" d="M39.7,3.8c1.4,0,2.6,0.5,3.4,1.4c0.9,1,1.2,2.3,1.1,4.2h-7.6c0.1,1,0.4,1.8,0.9,2.4c0.5,0.6,1.3,0.9,2.3,0.9
		c0.6,0,1.1-0.1,1.6-0.4c0.5-0.3,0.8-0.7,1.1-1.2h1.7c-0.3,1-0.8,1.8-1.6,2.3s-1.7,0.8-2.8,0.8c-1.5,0-2.7-0.5-3.6-1.4
		c-0.9-1-1.3-2.2-1.3-3.8c0-1.5,0.5-2.7,1.4-3.7C37.2,4.3,38.4,3.8,39.7,3.8z M36.7,8h5.9c0-0.8-0.3-1.4-0.8-2s-1.2-0.8-2-0.8
		c-0.8,0-1.5,0.3-2,0.8C37.2,6.5,36.9,7.2,36.7,8z"/>
	<path class="st0" d="M52.2,12.5h5.2V14h-7.5v-1.1l5.1-7.3V5.5h-4.8V4h7.2v1.1l-5.1,7.3V12.5z"/>
	<path class="st0" d="M60.6,2.1c-0.2,0.2-0.5,0.4-0.9,0.4s-0.6-0.1-0.9-0.4s-0.4-0.5-0.4-0.9c0-0.3,0.1-0.6,0.4-0.9S59.4,0,59.8,0
		s0.6,0.1,0.9,0.4C60.9,0.6,61,0.9,61,1.2C61,1.6,60.9,1.9,60.6,2.1z M60.6,4v10h-1.8V4H60.6z"/>
	<path class="st0" d="M67.1,3.8c1.4,0,2.6,0.5,3.4,1.4c0.9,1,1.2,2.3,1.1,4.2h-7.6c0.1,1,0.4,1.8,0.9,2.4c0.5,0.6,1.3,0.9,2.3,0.9
		c0.6,0,1.1-0.1,1.6-0.4c0.5-0.3,0.8-0.7,1.1-1.2h1.7c-0.3,1-0.8,1.8-1.6,2.3s-1.7,0.8-2.8,0.8c-1.5,0-2.7-0.5-3.6-1.4
		c-0.9-1-1.3-2.2-1.3-3.8c0-1.5,0.5-2.7,1.4-3.7C64.6,4.3,65.8,3.8,67.1,3.8z M64.2,8H70c0-0.8-0.3-1.4-0.8-2s-1.2-0.8-2-0.8
		c-0.8,0-1.5,0.3-2,0.8C64.6,6.5,64.3,7.2,64.2,8z"/>
	<path class="st0" d="M78.4,3.8c1.1,0,2,0.4,2.7,1.1c0.7,0.7,1,1.8,1,3.1v6h-1.8V8.4c0-1-0.2-1.7-0.7-2.2s-1-0.8-1.8-0.8
		c-0.7,0-1.3,0.2-1.7,0.7c-0.5,0.5-0.7,1.2-0.7,2.1V14h-1.8V4h1.4l0.3,1.3h0.2C76,4.3,77,3.8,78.4,3.8z"/>
	<path class="st0" d="M85.4,14.2c-0.3,0-0.6-0.1-0.9-0.4c-0.2-0.2-0.4-0.5-0.4-0.9c0-0.3,0.1-0.6,0.4-0.9c0.2-0.2,0.5-0.4,0.9-0.4
		c0.3,0,0.6,0.1,0.8,0.4c0.2,0.2,0.4,0.5,0.4,0.9c0,0.3-0.1,0.6-0.4,0.9C86,14.1,85.8,14.2,85.4,14.2z M84.5,0h1.9l-0.3,10.2h-1.3
		L84.5,0z"/>
</g>
</svg>
