<?xml version="1.0" encoding="utf-8"?>
<!-- Generator: Adobe Illustrator 24.0.0, SVG Export Plug-In . SVG Version: 6.00 Build 0)  -->
<svg version="1.1" id="Laag_1" xmlns="http://www.w3.org/2000/svg" xmlns:xlink="http://www.w3.org/1999/xlink" x="0px" y="0px"
	 width="627.8px" height="673.8px" viewBox="0 0 627.8 673.8" style="enable-background:new 0 0 627.8 673.8;" xml:space="preserve"
	>
<style type="text/css">
	.st0{fill:#00269A;}
	.st1{fill:#FFFFFF;}
</style>
<g>
	<path class="st0" d="M135.2,515.6v-37.3H38.8v37.3H66v158.2h42V515.6H135.2L135.2,515.6z M198.8,476.1c-30.8,0-50.4,18-50.4,45.2
		v109.5c0,27.2,19.6,45.2,50.4,45.2s50.4-18,50.4-45.2V521.3C249.2,494.1,229.6,476.1,198.8,476.1L198.8,476.1z M198.8,511.2
		c5.7,0,8.4,4.4,8.4,11.2v107.3c0,6.8-2.7,11.2-8.4,11.2s-8.7-4.4-8.7-11.2V522.4C190.1,515.6,193.1,511.2,198.8,511.2L198.8,511.2z
		 M315.7,478.3h-51.2v195.5h51.2c30.8,0,49.6-18,49.6-45.2V523.5C365.3,496.3,346.5,478.3,315.7,478.3L315.7,478.3z M314.9,514.2
		c5.4,0,8.4,4.1,8.4,10.6v102.4c0,6.5-3,10.6-8.4,10.6h-8.7V514.2H314.9L314.9,514.2z M401.5,478.3l-26.1,195.5h39.5l3.8-39.2h20.4
		l4.1,39.2H484l-26.4-195.5H401.5L401.5,478.3z M425.2,568.4l3.3-36.8h0.5l3.5,36.8l3.3,32.7h-13.9L425.2,568.4L425.2,568.4z
		 M556.6,594.3l34-116h-40.8L537,539.6h-0.5l-13.1-61.3h-42.5l33.5,114.9v80.6h42.2L556.6,594.3L556.6,594.3z"/>
	<path class="st0" d="M100.1,390.6c0,6.8-2.7,11.2-8.4,11.2c-5.7,0-8.7-4.4-8.7-11.2V239.1H41.3v152.5c0,27.2,19.6,45.2,50.4,45.2
		s50.4-18,50.4-45.2V239.1h-41.9v151.5H100.1z M212.6,390.6c0,6.8-2.5,11.2-7.9,11.2c-5.7,0-8.2-4.4-8.2-11.2V362h-40.8v29.6
		c0,27.5,17.7,45.2,48.5,45.2s50.4-17.7,50.4-45.2v-25.3c0-17.2-5.7-26.7-18.8-35.4l-31.9-22.6c-4.4-3.3-6.3-6.5-6.3-13.3v-11.7
		c0-6.8,2.5-11.2,8.2-11.2c5.4,0,7.9,4.4,7.9,11.2v25.1h40.6v-26.1c0-27.5-17.7-45.2-48.5-45.2s-50.1,17.7-50.1,45.2v21
		c0,17.2,5.7,26.7,18.8,35.4l31.9,22.9c4.4,3.3,6.3,6.3,6.3,13.3L212.6,390.6L212.6,390.6z M290.1,239.1L264,434.7h39.5l3.8-39.2
		h20.4l4.1,39.2h40.8l-26.4-195.5h-56.1V239.1z"/>
	<path class="st0" d="M63.3,0L37.2,195.5h39.5l3.8-39.2h20.4l4.1,39.2h40.8L119.4,0H63.3L63.3,0z M87,90.1l3.3-36.8h0.5l3.5,36.8
		l3.3,32.7H83.7L87,90.1L87,90.1z M207.7,116.5c6.5,0,9.5,4.1,9.5,11.4v42.8c0,9.5,0.5,18.5,3,24.8h41.7c-2.5-6.5-3-15.8-3-26.1
		v-42.2c0-12.8-4.9-24.2-17.4-29.1c12-4.4,18-15.8,18-28.9V41.7c0-27.5-15-41.7-45.8-41.7h-55v195.5h41.7v-79H207.7L207.7,116.5z
		 M217.5,46.6V70c0,6.8-3,10.6-8.4,10.6h-8.7V35.9h8.7C214.5,35.9,217.5,40,217.5,46.6L217.5,46.6z M368.9,37.3V0h-96.4v37.3h27.2
		v158.2h41.9V37.3H368.9L368.9,37.3z"/>
	<polygon class="st1" points="291.7,354.8 307.7,366.4 301.6,385.2 317.6,373.6 333.6,385.2 327.5,366.4 343.4,354.8 323.7,354.8 
		317.6,336 311.5,354.8 	"/>
</g>
</svg>
