<?xml version="1.0" encoding="utf-8"?>
<!-- Generator: Adobe Illustrator 23.0.2, SVG Export Plug-In . SVG Version: 6.00 Build 0)  -->
<svg version="1.1" id="Laag_1" xmlns="http://www.w3.org/2000/svg" xmlns:xlink="http://www.w3.org/1999/xlink" x="0px" y="0px"
	 width="175px" height="6.6px" viewBox="0 0 175 6.6" style="enable-background:new 0 0 175 6.6;" xml:space="preserve">
<style type="text/css">
	.st0{fill:#FFFFFF;}
</style>
<g>
	<path class="st0" d="M3,0.2h2.4c1.3,0,2.1,0.5,2.1,1.6c0,0.7-0.4,1.1-1,1.3C7.4,3.3,8,3.8,8,4.7c0,1-0.7,1.6-2.2,1.6H3V0.2z
		 M5.2,2.8c0.8,0,1.3-0.3,1.3-0.9C6.5,1.2,6,1,5.3,1H3.9v1.8H5.2z M5.7,5.5C6.5,5.5,7,5.2,7,4.6c0-0.7-0.5-1-1.4-1H3.9v1.9H5.7z"/>
	<path class="st0" d="M9.3,0.2h0.9v6.1H9.3V0.2z"/>
	<path class="st0" d="M16.2,0.2v3.7c0,1.4-0.8,2.5-2.4,2.5c-1.6,0-2.3-1-2.4-2.4l0.9-0.1c0.1,1,0.5,1.6,1.5,1.6c1,0,1.5-0.6,1.5-1.7
		V0.2H16.2z"/>
</g>
<g>
	<path class="st0" d="M25.5,2.6l-1.9,2.2h-0.3l-1.8-2.2v3.7H20V0.2h1.3l2.2,2.6l2.2-2.6H27v6.1h-1.5V2.6z"/>
	<path class="st0" d="M31.4,0.1c1.8,0,3.2,1.4,3.2,3.2c0,1.8-1.4,3.1-3.2,3.1c-1.8,0-3.2-1.4-3.2-3.1C28.2,1.5,29.6,0.1,31.4,0.1z
		 M31.4,5c1,0,1.7-0.7,1.7-1.7c0-1-0.7-1.7-1.7-1.7c-1,0-1.7,0.7-1.7,1.7C29.7,4.2,30.4,5,31.4,5z"/>
	<path class="st0" d="M37.2,2.6v3.7h-1.5V0.2H37l3.1,3.7V0.2h1.5v6.1h-1.3L37.2,2.6z"/>
	<path class="st0" d="M43.2,0.2H46c1.8,0,3.2,1.1,3.2,3.1c0,2-1.4,3.1-3.2,3.1h-2.8V0.2z M44.7,1.5V5h1.2c1,0,1.7-0.6,1.7-1.7
		c0-1.1-0.7-1.8-1.7-1.8H44.7z"/>
	<path class="st0" d="M50.3,0.2h2.9c1.4,0,2.4,0.6,2.4,2c0,0.9-0.6,1.6-1.5,1.8L56,6v0.3h-1.6l-1.9-2.2h-0.6v2.2h-1.5V0.2z
		 M51.8,1.5V3h1.4C53.7,3,54,2.7,54,2.3c0-0.5-0.3-0.8-0.8-0.8H51.8z"/>
	<path class="st0" d="M57,0.2h1.5v6.1H57V0.2z"/>
	<path class="st0" d="M61.7,0.2h1.8l2.3,6.1h-1.5l-0.4-1.1h-2.6l-0.4,1.1h-1.5L61.7,0.2z M61.6,4.1h1.8l-0.9-2.4L61.6,4.1z"/>
	<path class="st0" d="M68.3,0.2H70l2.3,6.1h-1.5l-0.4-1.1h-2.6l-0.4,1.1h-1.5L68.3,0.2z M68.2,4.1H70l-0.9-2.4L68.2,4.1z"/>
	<path class="st0" d="M74.7,2.6v3.7h-1.5V0.2h1.3l3.1,3.7V0.2h1.5v6.1h-1.3L74.7,2.6z"/>
	<path class="st0" d="M85.1,3.9h-2.9v2.4h-1.5V0.2h1.5v2.4h2.9V0.2h1.5v6.1h-1.5V3.9z"/>
	<path class="st0" d="M89.6,3.6c0,0.9,0.5,1.4,1.3,1.4c0.9,0,1.4-0.6,1.4-1.4V0.2h1.5v3.5c0,1.5-1,2.7-2.9,2.7
		c-1.8,0-2.9-1.1-2.9-2.7V0.2h1.5V3.6z"/>
	<path class="st0" d="M95.3,0.2h1.5v6.1h-1.5V0.2z"/>
	<path class="st0" d="M98.4,4.5c0.5,0.3,1.2,0.6,1.9,0.6c0.6,0,1-0.2,1-0.6c0-0.3-0.2-0.4-0.7-0.6l-1-0.3C98.5,3.4,98,2.9,98,2
		c0-1,0.8-1.9,2.5-1.9c0.9,0,1.7,0.2,2.2,0.5l-0.4,1.3c-0.5-0.3-1.2-0.5-1.9-0.5c-0.6,0-0.9,0.2-0.9,0.5c0,0.3,0.2,0.4,0.6,0.5
		l1.1,0.3c1.1,0.3,1.6,0.9,1.6,1.7c0,1.2-1,2-2.6,2c-0.9,0-1.9-0.3-2.3-0.5L98.4,4.5z"/>
</g>
<g>
	<path class="st0" d="M108.1,0.2h1.1l2.4,6.1h-1L110.2,5h-3.1l-0.6,1.4h-1L108.1,0.2z M107.3,4.3h2.6l-1.2-3.1L107.3,4.3z"/>
	<path class="st0" d="M118.5,1.7l-2.3,2.8H116l-2.3-2.8v4.6h-0.9V0.2h0.9l2.5,3l2.5-3h0.9v6.1h-0.9V1.7z"/>
	<path class="st0" d="M121.3,6.3V0.2h4.8V1h-3.9v1.7h3.2v0.8h-3.2v1.9h3.9v0.8H121.3z"/>
	<path class="st0" d="M127.5,0.2h2.7c1.4,0,2.3,0.6,2.3,2c0,1.1-0.8,1.8-1.8,1.9l2.2,2.1v0.2h-1.1l-2.2-2.3h-1.1v2.3h-0.9V0.2z
		 M128.4,1v2.3h1.8c0.7,0,1.2-0.4,1.2-1.1c0-0.8-0.5-1.2-1.2-1.2H128.4z"/>
	<path class="st0" d="M133.9,5c0.4,0.3,1.1,0.6,2,0.6c0.9,0,1.5-0.3,1.5-0.9c0-0.4-0.3-0.7-1.1-0.9l-1.1-0.3c-1-0.2-1.5-0.8-1.5-1.6
		c0-1,0.8-1.8,2.4-1.8c0.9,0,1.7,0.2,2.2,0.5l-0.3,0.9C137.5,1.2,136.7,1,136,1c-1,0-1.4,0.4-1.4,0.8c0,0.4,0.3,0.6,0.9,0.8l1.2,0.3
		c1.1,0.3,1.7,0.8,1.7,1.6c0,1.1-1,1.9-2.5,1.9c-0.9,0-1.8-0.3-2.2-0.5L133.9,5z"/>
	<path class="st0" d="M140.6,4v2.3h-0.9V0.2h4.6V1h-3.7v2.1h3.2V4H140.6z"/>
	<path class="st0" d="M148.3,0.1c1.8,0,3.2,1.4,3.2,3.2c0,1.8-1.4,3.1-3.2,3.1c-1.8,0-3.2-1.4-3.2-3.1
		C145.1,1.5,146.5,0.1,148.3,0.1z M148.3,5.5c1.3,0,2.2-1,2.2-2.3c0-1.3-0.9-2.3-2.2-2.3C147,1,146,2,146,3.3
		C146,4.6,147,5.5,148.3,5.5z"/>
	<path class="st0" d="M155.6,0.1c1.8,0,3.2,1.4,3.2,3.2c0,1.8-1.4,3.1-3.2,3.1c-1.8,0-3.2-1.4-3.2-3.1
		C152.5,1.5,153.8,0.1,155.6,0.1z M155.6,5.5c1.3,0,2.2-1,2.2-2.3c0-1.3-0.9-2.3-2.2-2.3c-1.3,0-2.2,1-2.2,2.3
		C153.4,4.6,154.4,5.5,155.6,5.5z"/>
	<path class="st0" d="M160.2,0.2h2.7c1.4,0,2.3,0.6,2.3,2c0,1.1-0.8,1.8-1.8,1.9l2.2,2.1v0.2h-1.1l-2.2-2.3h-1.1v2.3h-0.9V0.2z
		 M161.2,1v2.3h1.8c0.7,0,1.2-0.4,1.2-1.1c0-0.8-0.5-1.2-1.2-1.2H161.2z"/>
	<path class="st0" d="M169.1,1v5.3h-0.9V1h-2.2V0.2h5.2V1H169.1z"/>
</g>
</svg>
