<?xml version="1.0" encoding="utf-8"?>
<!-- Generator: Adobe Illustrator 24.0.0, SVG Export Plug-In . SVG Version: 6.00 Build 0)  -->
<svg version="1.1" id="Laag_1" xmlns="http://www.w3.org/2000/svg" xmlns:xlink="http://www.w3.org/1999/xlink" x="0px" y="0px"
	 width="52.7px" height="34.2px" viewBox="0 0 52.7 34.2" style="enable-background:new 0 0 52.7 34.2;" xml:space="preserve">
<style type="text/css">
	.st0{fill:#E30613;}
</style>
<g>
	<path class="st0" d="M9.3,9.3l0.8,5.2l-0.9,0.1L8.4,9.5L7,9.7L6.8,8.9l3.7-0.6l0.1,0.9L9.3,9.3z"/>
	<path class="st0" d="M12.7,10.4l2.6-0.4l-0.4-2.4l0.9-0.1l1,6.1l-0.9,0.1l-0.5-2.8l-2.6,0.4l0.5,2.8l-0.9,0.1l-1-6.1L12.3,8
		L12.7,10.4z"/>
	<path class="st0" d="M20.8,7.5l-2.4,0.4l0.2,1.5L20.9,9l0.1,0.9l-2.4,0.4l0.3,2l2.4-0.4l0.1,0.9l-3.4,0.5l-1-6.1l3.4-0.5L20.8,7.5z
		"/>
	<path class="st0" d="M26.2,10.4l-2.6,0.4l-0.4,1.6l-1,0.2l2-7l4,6l-1,0.2L26.2,10.4z M25.6,9.6l-1.2-1.9l-0.6,2.2L25.6,9.6z"/>
	<path class="st0" d="M29.3,6.1l0.8,5.2l-0.9,0.1l-0.8-5.2L27,6.5l-0.1-0.9L30.5,5l0.1,0.9L29.3,6.1z"/>
	<path class="st0" d="M34.9,5.2l-2.4,0.4L32.7,7L35,6.7l0.1,0.9l-2.4,0.4l0.3,2l2.4-0.4l0.1,0.9L32.4,11l-1-6.1l3.4-0.5L34.9,5.2z"
		/>
	<path class="st0" d="M38.6,7.3l2.3,2.3l-1.1,0.2l-2.1-2.2l-0.2,0l0.4,2.5l-0.9,0.1l-1-6.1L37,3.9c0.8-0.1,1.4-0.1,1.8,0.2
		c0.4,0.3,0.7,0.7,0.8,1.2c0.1,0.4,0,0.8-0.2,1.2C39.2,6.9,38.9,7.1,38.6,7.3z M37.3,6.8l0.3,0c0.9-0.1,1.3-0.5,1.1-1.2
		c-0.1-0.6-0.6-0.9-1.4-0.7L37,4.8L37.3,6.8z"/>
	<path class="st0" d="M42,8.2l0.8,0.2l-0.8,2.4l-0.6-0.2L42,8.2z"/>
	<path class="st0" d="M16.1,21.9l-1-6.1l1.3-0.2c0.6-0.1,1.1-0.1,1.5-0.1c0.4,0.1,0.8,0.2,1.1,0.4c0.7,0.5,1.2,1.2,1.3,2.1
		c0.2,0.9-0.1,1.7-0.6,2.4c-0.3,0.3-0.6,0.6-0.9,0.8c-0.3,0.2-0.8,0.3-1.4,0.4L16.1,21.9z M16.9,20.9l0.4-0.1c0.4-0.1,0.7-0.2,1-0.3
		c0.3-0.1,0.5-0.3,0.7-0.6c0.4-0.5,0.5-1.1,0.4-1.7c-0.1-0.7-0.4-1.2-0.9-1.5c-0.5-0.3-1.1-0.4-1.9-0.3l-0.4,0.1L16.9,20.9z"/>
	<path class="st0" d="M25,18.9l-2.6,0.4L22,20.9l-1,0.2l2-7l4,6l-1,0.2L25,18.9z M24.5,18.1l-1.2-1.9l-0.6,2.2L24.5,18.1z"/>
	<path class="st0" d="M27.7,20l-1.1-6.5l5.2,3.9l-0.7-4.2L32,13l1.1,6.5l-5.2-3.9l0.7,4.3L27.7,20z"/>
	<path class="st0" d="M37.1,13.1l-0.7,0.6c-0.2-0.2-0.3-0.4-0.5-0.4c-0.1-0.1-0.3-0.1-0.5,0c-0.3,0-0.5,0.1-0.6,0.3
		c-0.1,0.2-0.2,0.4-0.2,0.6c0,0.3,0.3,0.5,0.8,0.6l0.6,0.1c0.5,0.1,0.9,0.3,1.2,0.6s0.4,0.6,0.5,1c0.1,0.6,0,1.1-0.3,1.5
		c-0.3,0.4-0.8,0.7-1.3,0.8c-0.5,0.1-1,0-1.4-0.3c-0.4-0.3-0.7-0.7-0.8-1.2l0.9-0.4c0.1,0.4,0.2,0.6,0.3,0.7
		c0.2,0.2,0.5,0.3,0.9,0.3c0.3,0,0.5-0.2,0.7-0.4c0.2-0.2,0.2-0.5,0.2-0.8c0-0.1-0.1-0.2-0.1-0.3s-0.1-0.2-0.2-0.2s-0.2-0.1-0.3-0.2
		s-0.3-0.1-0.4-0.1l-0.6-0.1c-0.9-0.2-1.4-0.7-1.5-1.3c-0.1-0.5,0-0.9,0.3-1.2c0.3-0.4,0.7-0.6,1.2-0.7C36,12.3,36.6,12.5,37.1,13.1
		z"/>
	<path class="st0" d="M13.7,25.2l-2.4,0.4l0.2,1.5l2.4-0.4l0.1,0.9l-2.4,0.4l0.3,2l2.4-0.4l0.1,0.9L11.2,31l-1-6.1l3.4-0.5
		L13.7,25.2z"/>
	<path class="st0" d="M15.7,30.2l-1.1-6.5l5.2,3.9l-0.7-4.2l0.9-0.1l1.1,6.5L16,25.8l0.7,4.3L15.7,30.2z"/>
	<path class="st0" d="M24.8,28.7l0.2-6.7l2.9,4.4l1.4-5.1l2.2,6.4l-0.9,0.2l-1.2-3.6l-1.2,4.2l-2.4-3.7l-0.1,3.8L24.8,28.7z"/>
	<path class="st0" d="M35.3,21.7l-2.4,0.4l0.2,1.5l2.4-0.4l0.1,0.9l-2.4,0.4l0.3,2L36,26l0.1,0.9l-3.4,0.5l-1-6.1l3.4-0.5L35.3,21.7
		z"/>
	<path class="st0" d="M39.9,20.9l-2.4,0.4l0.2,1.5l2.4-0.4l0.1,0.9l-2.4,0.4l0.3,2l2.4-0.4l0.1,0.9l-3.4,0.5l-1-6.1l3.4-0.5
		L39.9,20.9z"/>
	<path class="st0" d="M43.6,23l2.3,2.3l-1.1,0.2l-2.1-2.2l-0.2,0l0.4,2.5L41.9,26l-1-6.1l1.1-0.2c0.8-0.1,1.4-0.1,1.8,0.2
		c0.4,0.3,0.7,0.7,0.8,1.2c0.1,0.4,0,0.8-0.2,1.2C44.3,22.6,44,22.9,43.6,23z M42.3,22.5l0.3,0c0.9-0.1,1.3-0.5,1.1-1.2
		c-0.1-0.6-0.6-0.9-1.4-0.7L42,20.6L42.3,22.5z"/>
</g>
</svg>
