<svg xmlns="http://www.w3.org/2000/svg" width="118.9" height="10.9" fill="#fff" xmlns:v="https://vecta.io/nano"><path d="M20.6 2.7h-4.2v2.1h4v1.4h-4v3.5h-1.6V1.3h5.7v1.4zm6.5 5.7c.1 0 .2.2.2.4v1h-.2c-.7 0-1.2-.3-1.5-.8-.5.6-1.3.9-2.3.9-.6 0-1.1-.2-1.5-.5s-.5-.8-.5-1.4.2-1 .6-1.4 1-.6 1.7-.7c.4 0 .7-.1 1-.2s.4-.1.5-.2.2-.1.3-.2h0c0-.2-.1-.4-.3-.6s-.5-.2-.9-.2h-.4c-.1 0-.2 0-.3.1s-.2.1-.3.1-.1.2-.2.2-.1.1-.2.2l-.1.1c-.1.1-.2.1-.4.1s-.2-.1-.3-.2l-.5-.6c.1-.1.2-.3.4-.4s.3-.3.5-.4.5-.2.8-.3.6-.1.9-.1c.9 0 1.6.2 2.1.6s.7 1 .7 1.9v2.1c0 .1 0 .2.1.3s0 .2.1.2h0zm-3.6.2c.3 0 .5 0 .7-.1l.6-.3c.2-.1.3-.3.4-.5s.1-.5.1-.8v-.2c-.3.3-.8.4-1.5.5-.4 0-.7.1-.9.2s-.2.3-.2.6c0 .2.1.4.2.5s.4.1.6.1zm5.8-5.9c-.2 0-.4-.1-.6-.2s-.2-.4-.2-.6.1-.4.2-.6.3-.3.6-.3c.2 0 .4.1.6.2s.2.4.2.6-.1.4-.2.6-.4.3-.6.3zm-.8 7.1V3.4H30v6.4h-1.5zM36 2.7c-.2 0-.4-.1-.6-.2s-.2-.4-.2-.6.1-.4.2-.6.4-.3.6-.3.4.1.6.2.2.4.2.6-.1.4-.2.6-.3.3-.6.3zm-.7 7.1V3.4h1.5v6.4h-1.5zm5.2 0c-.6 0-1.1-.2-1.4-.5s-.5-.8-.5-1.4V1.3h1.5v6.6c0 .2 0 .3.1.4s.2.1.4.1h.4c.1 0 .2 0 .3.1s.1.2.1.3v1h-.9zm9.2-5.1h-1.9v2.9c0 .2.1.4.2.6s.3.2.6.2h.8c.1 0 .2 0 .3.1s.1.2.1.3v1h-1.3c-.7 0-1.2-.2-1.6-.6s-.6-.9-.6-1.6V4.7h-.6c-.1 0-.2 0-.3-.1s-.1-.2-.1-.3v-.9h1V1.3h1.5v2.1h1.9v1.3zM55 3.4h1.5v6.4h-1.1c-.1 0-.1 0-.2-.1s-.1-.1-.1-.2V9c-.4.6-1 .9-1.8.9-1.7 0-2.5-.9-2.5-2.7V3.4h1.5V7c0 .5.1.9.3 1.2s.5.4.9.4c.5 0 .8-.1 1.1-.4s.4-.7.4-1.2V3.4zm5.9 6.5c-1 0-1.7-.3-2.3-.9s-.8-1.4-.8-2.4.3-1.8.8-2.4 1.3-.9 2.3-.9 1.7.3 2.3.9.8 1.4.8 2.4-.3 1.8-.8 2.4-1.3.9-2.3.9zm-1.2-1.8c.3.4.7.5 1.2.5s.9-.2 1.2-.5.4-.8.4-1.5-.1-1.1-.4-1.5-.7-.5-1.2-.5-.9.2-1.2.6-.4.8-.4 1.4.1 1.1.4 1.5zm11.6 1.8c-1 0-1.7-.3-2.3-.9s-.8-1.4-.8-2.4.3-1.8.8-2.4 1.3-.9 2.3-.9 1.7.3 2.3.9.8 1.4.8 2.4-.3 1.8-.8 2.4-1.4.9-2.3.9zm-1.2-1.8c.3.4.7.5 1.2.5s.9-.2 1.2-.5.4-.8.4-1.5-.1-1.1-.4-1.5-.7-.5-1.2-.5-.9.2-1.2.5-.4.9-.4 1.5.1 1.1.4 1.5zm8.8-4.7h.1v.9c0 .1 0 .2-.1.3s-.2.1-.3.1h-.1c-.5 0-.9.2-1.2.5S77 6 77 6.5v3.2h-1.5V3.4h1.1c.1 0 .1 0 .2.1s.1.1.1.2v.7c.5-.7 1.2-1 2-1zm5.3-2.1h1.5v8.5h-1.1c-.1 0-.1 0-.2-.1s-.1-.1-.1-.2V9c-.5.6-1.2.9-2 .9-.9 0-1.6-.3-2.1-.9s-.8-1.4-.8-2.4.3-1.9.8-2.4a2.99 2.99 0 0 1 2.2-.9c.7 0 1.3.2 1.8.7V1.3zm-1.6 7.3c.5 0 .9-.2 1.2-.5s.4-.8.4-1.4v-.2c0-.6-.2-1.1-.5-1.4s-.7-.5-1.2-.5-.9.2-1.2.5-.4.9-.4 1.5.1 1.1.4 1.4.8.6 1.3.6zm5.7-5.9c-.2 0-.4-.1-.6-.2s-.2-.4-.2-.6.1-.4.2-.6.3-.3.6-.3c.2 0 .4.1.6.2s.2.4.2.6-.1.4-.2.6-.4.3-.6.3zm-.8 7.1V3.4H89v6.4h-1.5zm6.4-6.5c.8 0 1.5.2 1.9.7s.6 1.1.6 2v3.8h-1.5V6.2c0-.5-.1-.9-.3-1.2s-.5-.4-.9-.4c-.5 0-.8.1-1.1.4s-.4.6-.4 1.1v3.6h-1.5V3.4h1.1c.1 0 .1 0 .2.1s.1.1.1.2v.5c.5-.6 1.1-.9 1.8-.9zm6.9 0c1 0 1.7.3 2.3.9s.9 1.4.9 2.5v.2c0 .1 0 .1-.1.2s-.1.1-.2.1h-4.6c.1.4.3.8.6 1.1s.7.4 1.1.4c.3 0 .6-.1.9-.2s.4-.4.5-.6c.1-.1.2-.2.3-.1l1.2.4c-.2.6-.6 1-1.1 1.4s-1.1.5-1.9.5c-1 0-1.7-.3-2.3-.9s-.9-1.4-.9-2.4.3-1.8.9-2.4 1.4-1.1 2.4-1.1zm0 1.3c-.4 0-.8.1-1 .3s-.5.5-.6.9h3.2c-.1-.4-.3-.7-.6-.9a1.69 1.69 0 0 0-1-.3z"/></svg>