<?xml version="1.0" encoding="utf-8"?>
<!-- Generator: Adobe Illustrator 24.3.0, SVG Export Plug-In . SVG Version: 6.00 Build 0)  -->
<svg version="1.1" id="Layer_1" xmlns="http://www.w3.org/2000/svg" xmlns:xlink="http://www.w3.org/1999/xlink" x="0px" y="0px"
	 width="698.5px" height="643.9px" viewBox="0 0 698.5 643.9" style="enable-background:new 0 0 698.5 643.9;" xml:space="preserve"
	>
<style type="text/css">
	.st0{fill:#FFFFFF;}
</style>
<g>
	<g>
		<polygon class="st0" points="395.4,416.7 395.4,467.7 347.5,467.7 347.5,416.7 314.6,416.7 314.6,552.6 347.5,552.6 347.5,497.6 
			395.4,497.6 395.4,552.6 428.3,552.6 428.3,416.7 		"/>
	</g>
	<g>
		<rect x="108.6" y="416.7" class="st0" width="32.9" height="135.9"/>
	</g>
	<g>
		<rect x="567.5" y="416.6" class="st0" width="32.9" height="135.9"/>
	</g>
	<g>
		<g>
			<path class="st0" d="M73.8,481.3c8.6-3.3,18.3-14.9,18.3-29.2c0-16.4-14-35.4-43.4-35.4l-48.5,0l0,135.9h44
				c40.2,0,51.2-18.9,51.2-39.8C95.4,499.4,86.9,486.1,73.8,481.3z M30.1,442.7l15.5,0c9.1,0,14.8,6.6,14.8,13.4
				c0,8.3-4.8,14.6-17,14.6l-13.3,0V442.7z M46.5,526.9c0,0-16.3,0-16.3,0l0-29.8h13.5c13.4,0,18.2,7.1,18.2,15.8
				C61.8,520.2,55.8,526.9,46.5,526.9z"/>
		</g>
	</g>
	<g>
		<path class="st0" d="M696.4,430.7c-9.4-7.9-22.8-15.2-39.5-15.2c-23.4,0-41.3,18.9-41.3,40.7c0,12.8,6.1,21.5,15.4,28.8
			c13.3,10.5,35.6,14.1,35.6,28.6c0,6.2-6.2,11.9-13.7,11.9c-8.7,0.1-19.2-7.3-26.7-15.3c-2.1,3.3-13,20.6-15.4,24.3
			c9.9,11.9,27.8,19.9,43.7,19.9c27.1,0,44-19.4,44-41.9c0-17.8-12.1-26.9-24.3-35.3c-14-9.6-27.4-13.3-27.4-23.1
			c0-7.8,5.4-11.9,14.1-11.9c7.3,0,16.9,6.4,21.6,10.8L696.4,430.7z"/>
	</g>
	<g>
		<g>
			<g>
				<path class="st0" d="M496.9,555.2L496.9,555.2L496.9,555.2L496.9,555.2L496.9,555.2L496.9,555.2c-12.4,0-25.1-3.6-34.8-12.1l0,0
					c-9.7-8.5-16.2-21.9-16.1-40.7l0,0c0,0,0-0.1,0-0.1l0,0v-85.8h31.4v81.8c0,0.1,0,0.1,0,0.2l0,0c0,6,0.6,12.5,3.4,17.2l0,0
					c2.8,4.7,7.4,9.1,17.3,9.2l0,0c8.8-0.1,13.2-4,16.1-8.7l0,0c2.8-4.7,3.8-11.8,3.8-20.1l0,0c0-0.1,0-0.1,0-0.2l0,0v-79.5h31.4
					v89.7c0,0,0,0,0,0l0,0c0,13.5-5,25.8-14.1,34.7l0,0c-9,8.7-22,14.1-37.7,14.2l0,0v0H496.9L496.9,555.2z"/>
			</g>
		</g>
	</g>
	<g>
		<polygon class="st0" points="287.1,416.7 264.5,416.7 228.3,494.3 192,416.7 169.4,416.7 155.4,552.6 185.2,552.6 192.6,488.1 
			222.8,552.5 233.7,552.5 263.9,488.1 271.3,552.6 301.1,552.6 		"/>
	</g>
	<g>
		<path class="st0" d="M0,565.6h62.5v30.6h-13v-17.9H39.3v52.7h7.2v12.8H16.1v-12.8h7.1v-52.7H13v17.9H0V565.6z"/>
		<path class="st0" d="M67.6,565.6h27.5v12.8h-5.6l15,50.2l15.2-50.2H114v-12.8h27.5v12.8h-6l-21.4,65.5H95.3l-21.8-65.5h-5.9V565.6
			z"/>
	</g>
</g>
<g>
	<path class="st0" d="M338.4,332.5c-5.8,0-142.2-0.1-178.6-9.9c-22.2-6-39.7-23.5-45.7-45.7c-9.5-35.6-9.6-107.6-9.6-110.6
		c0-3,0.1-74.6,9.6-110.6c5.9-22,23.9-40.1,45.7-46.1C195.8,0.1,332.6,0,338.4,0c5.8,0,142.6,0.1,178.6,10
		c22.2,6,39.7,23.5,45.7,45.7c9.8,36,9.6,108,9.6,111.1c0,3-0.1,74.6-9.6,110.5c-6,22.3-23.5,39.8-45.7,45.8
		C481,332.4,344.2,332.5,338.4,332.5z M338.4,17c-1.4,0-140.4,0.1-174.2,9c-16,4.4-29.3,17.8-33.7,34.1c-8.9,33.7-9,105.5-9,106.2
		c0,0.7,0.1,72.8,9,106.2c4.4,16.4,17.3,29.3,33.7,33.7c34.2,9.3,172.7,9.4,174.1,9.4c1.4,0,140.4-0.1,174.2-9
		c16.3-4.4,29.3-17.3,33.7-33.7c8.9-33.7,9-105.5,9-106.2c0-0.8,0.3-72.8-9-106.5c0,0,0,0,0,0c-4.4-16.4-17.3-29.3-33.7-33.7
		C478.7,17.1,339.8,17,338.4,17z"/>
</g>
<g>
	<path class="st0" d="M281,254.3"/>
</g>
<g>
	<path class="st0" d="M280.4,88.9c-2.8,0-5.5-1.4-7.2-3.9c-2.5-4-1.4-9.2,2.6-11.7l3.5-2.3c4-2.5,9.2-1.4,11.7,2.6
		c2.5,4,1.4,9.2-2.6,11.7l-3.5,2.3C283.6,88.4,282,88.9,280.4,88.9z"/>
</g>
<g>
	<path class="st0" d="M281,129.8c-2.8,0-5.5-1.4-7.1-3.9c-2.6-3.9-1.5-9.2,2.5-11.8l31-20.2c3.9-2.6,9.2-1.5,11.8,2.5
		c2.6,3.9,1.5,9.2-2.5,11.8l-31,20.2C284.2,129.4,282.6,129.8,281,129.8z"/>
</g>
<g>
	<path class="st0" d="M281,173.9c-2.8,0-5.5-1.4-7.2-3.9c-2.5-4-1.4-9.2,2.6-11.7l65.6-42.1c4-2.5,9.2-1.4,11.7,2.6
		c2.5,4,1.4,9.2-2.6,11.7l-65.6,42.1C284.1,173.4,282.6,173.9,281,173.9z"/>
</g>
<g>
	<path class="st0" d="M281,217.9c-2.8,0-5.5-1.4-7.2-3.9c-2.5-4-1.4-9.2,2.6-11.7l98.8-63.3c4-2.5,9.2-1.4,11.7,2.6
		c2.5,4,1.4,9.2-2.6,11.7l-98.8,63.3C284.1,217.5,282.6,217.9,281,217.9z"/>
</g>
<g>
	<path class="st0" d="M281,262c-2.8,0-5.5-1.4-7.2-3.9c-2.5-4-1.4-9.2,2.6-11.7l134.5-86.1c4-2.5,9.2-1.4,11.7,2.6
		c2.5,4,1.4,9.2-2.6,11.7l-134.5,86.1C284.1,261.6,282.6,262,281,262z"/>
</g>
</svg>
