<?xml version="1.0" encoding="utf-8"?>
<!-- Generator: Adobe Illustrator 24.0.0, SVG Export Plug-In . SVG Version: 6.00 Build 0)  -->
<svg version="1.1" id="Laag_1" xmlns="http://www.w3.org/2000/svg" xmlns:xlink="http://www.w3.org/1999/xlink" x="0px" y="0px"
	 width="65.1px" height="46.9px" viewBox="0 0 65.1 46.9" style="enable-background:new 0 0 65.1 46.9;" xml:space="preserve">
<style type="text/css">
	.st0{fill:#004995;}
	.st1{fill:#1D1D1B;}
</style>
<g>
	<path class="st0" d="M0.2,13.4c0-1.8,1.1-2.3,2.7-3c1.9-0.9,2.9-1.2,4.8-2.1C8.1,8.2,8.4,8,8.4,7.5V4c0-0.5-0.4-0.8-0.8-0.8h-3
		C4.1,3.2,3.7,3.6,3.7,4v2H0.2V3.2C0.2,1.4,1.6,0,3.3,0h5.3c1.8,0,3.3,1.4,3.3,3.2v5.1c0,1.4-0.6,2-2.1,2.7
		c-1.4,0.7-3.2,1.4-5.4,2.5c-0.4,0.2-0.7,0.4-0.7,0.8v2.9h8.4v3.2H0.2V13.4z"/>
	<path class="st0" d="M14.4,12.4L22.7,0h3.5v12.4h3.2v3.1h-3.2v5h-3.5v-5h-8.3V12.4z M22.7,12.4v-7l-4.5,7H22.7z"/>
	<path class="st0" d="M39.6,17.2v-14C39.6,1.4,41,0,42.8,0h5.9c1.8,0,3.3,1.4,3.3,3.2v14c0,1.8-1.4,3.2-3.3,3.2h-5.9
		C41,20.4,39.6,19,39.6,17.2z M48.4,4c0-0.5-0.4-0.8-0.8-0.8h-3.7c-0.5,0-0.8,0.3-0.8,0.8v12.4c0,0.5,0.4,0.8,0.8,0.8h3.7
		c0.5,0,0.8-0.3,0.8-0.8V4z"/>
	<path class="st0" d="M63.7,0v20.4h-3.5V3.5L55,5.2V1.7L60.2,0H63.7z"/>
</g>
<g>
	<path class="st1" d="M0,39.9c0-1.8,1.1-2.3,2.7-3c1.9-0.9,2.9-1.2,4.8-2.1c0.4-0.2,0.7-0.4,0.7-0.9v-3.5c0-0.5-0.4-0.8-0.8-0.8h-3
		c-0.5,0-0.8,0.3-0.8,0.8v2H0v-2.8c0-1.8,1.4-3.2,3.2-3.2h5.3c1.8,0,3.3,1.4,3.3,3.2v5.1c0,1.4-0.6,2-2.1,2.7
		c-1.4,0.7-3.2,1.4-5.4,2.5c-0.4,0.2-0.7,0.4-0.7,0.8v2.9h8.4v3.2H0V39.9z"/>
	<path class="st1" d="M18.8,43.7v-14c0-1.8,1.4-3.2,3.2-3.2H28c1.8,0,3.3,1.4,3.3,3.2v14c0,1.8-1.4,3.2-3.3,3.2H22
		C20.3,46.9,18.8,45.5,18.8,43.7z M27.7,30.5c0-0.5-0.4-0.8-0.8-0.8h-3.7c-0.5,0-0.8,0.3-0.8,0.8v12.4c0,0.5,0.4,0.8,0.8,0.8h3.7
		c0.5,0,0.8-0.3,0.8-0.8V30.5z"/>
	<path class="st1" d="M38,39.9c0-1.8,1.1-2.3,2.7-3c1.9-0.9,2.9-1.2,4.8-2.1c0.4-0.2,0.7-0.4,0.7-0.9v-3.5c0-0.5-0.4-0.8-0.8-0.8h-3
		c-0.5,0-0.8,0.3-0.8,0.8v2H38v-2.8c0-1.8,1.4-3.2,3.2-3.2h5.3c1.8,0,3.3,1.4,3.3,3.2v5.1c0,1.4-0.6,2-2.1,2.7
		c-1.4,0.7-3.2,1.4-5.4,2.5c-0.4,0.2-0.7,0.4-0.7,0.8v2.9h8.4v3.2H38V39.9z"/>
	<path class="st1" d="M63.7,26.5v20.4h-3.5V30L55,31.7v-3.5l5.2-1.7H63.7z"/>
</g>
</svg>
