<?xml version="1.0" encoding="utf-8"?>
<!-- Generator: Adobe Illustrator 24.0.0, SVG Export Plug-In . SVG Version: 6.00 Build 0)  -->
<svg version="1.1" id="Laag_1" xmlns="http://www.w3.org/2000/svg" xmlns:xlink="http://www.w3.org/1999/xlink" x="0px" y="0px"
	 width="212.1px" height="43.3px" viewBox="0 0 212.1 43.3" style="enable-background:new 0 0 212.1 43.3;" xml:space="preserve">
<style type="text/css">
	.st0{fill:#FFED00;}
</style>
<g>
	<path class="st0" d="M3,9C1.6,8.6,0.5,7.9,0.5,6.5V3.2c0-1.4,1.1-2.6,2.6-2.6h5c1.4,0,2.6,1.2,2.6,2.6v2.2H7.8V3.8
		c0-0.4-0.3-0.6-0.6-0.6H3.9c-0.4,0-0.6,0.3-0.6,0.6v2c0,0.4,0.3,0.6,0.6,0.7c1.4,0.4,2.6,0.7,4.3,1.2c1.3,0.4,2.5,1.1,2.5,2.5v3.5
		c0,1.4-1.1,2.6-2.6,2.6H3c-1.4,0-2.6-1.2-2.6-2.6v-2.1h2.8v1.5c0,0.4,0.3,0.6,0.6,0.6h3.3c0.4,0,0.6-0.3,0.6-0.6v-2.3
		c0-0.4-0.3-0.6-0.6-0.7C5.4,9.7,4.7,9.5,3,9z"/>
	<path class="st0" d="M19.8,12.2h2.6v1.6c0,1.4-1.1,2.5-2.5,2.5h-4c-1.4,0-2.5-1.1-2.5-2.5V7.6c0-1.4,1.1-2.5,2.5-2.5h4
		c1.4,0,2.5,1.1,2.5,2.5v1.5h-2.6V8.3c0-0.4-0.3-0.6-0.6-0.6h-2.3c-0.4,0-0.6,0.3-0.6,0.6v5c0,0.4,0.3,0.6,0.6,0.6h2.3
		c0.4,0,0.6-0.3,0.6-0.6V12.2z"/>
	<path class="st0" d="M27.9,16.3h-2.7V0.6h2.7V6c0.9-0.4,2.8-1.1,4-1.1c1.6,0,2.5,1.1,2.5,2.5v8.9h-2.7V8.2c0-0.4-0.2-0.6-0.6-0.6
		c-0.6,0-2,0.5-2.5,0.7c-0.4,0.2-0.6,0.5-0.6,0.9V16.3z"/>
	<path class="st0" d="M37.6,0.5h2.7v3h-2.7V0.5z M37.6,5.2h2.7v11.2h-2.7V5.2z"/>
	<path class="st0" d="M43.6,0.6h2.7v15.7h-2.7V0.6z"/>
	<path class="st0" d="M49.4,7.4c0-1.4,0.9-2.5,2.5-2.5c1.2,0,2.9,0.6,4,1V0.6h2.7v15.7h-2.7v-0.8c-1.1,0.4-2.8,1-4,1
		c-1.6,0-2.5-1.1-2.5-2.5V7.4z M52.1,13.4c0,0.4,0.2,0.6,0.6,0.6c0.6,0,2-0.5,2.5-0.7c0.4-0.2,0.6-0.4,0.6-0.8V9
		c0-0.4-0.2-0.6-0.6-0.8c-0.5-0.2-1.9-0.7-2.5-0.7c-0.4,0-0.6,0.3-0.6,0.6V13.4z"/>
	<path class="st0" d="M65,14h2.4c0.4,0,0.6-0.3,0.6-0.6v-0.5h2.6v1.1c0,1.4-1.1,2.4-2.5,2.4h-4.1c-1.4,0-2.5-1.1-2.5-2.5V7.6
		c0-1.4,1.1-2.5,2.5-2.5h4.1c1.4,0,2.5,1.1,2.5,2.5v3.9h-6.3v1.8C64.4,13.7,64.6,14,65,14z M64.4,9.3H68V8.1c0-0.4-0.3-0.6-0.6-0.6
		H65c-0.4,0-0.6,0.3-0.6,0.6V9.3z"/>
	<path class="st0" d="M79.7,7.6c-0.9,0.4-2,0.8-2.8,1.3c-0.4,0.2-0.6,0.5-0.6,0.9v6.5h-2.7V5.2h2.7v1.2c1-0.5,2.1-1,3.2-1.5
		L79.7,7.6z"/>
	<path class="st0" d="M81.2,10.7V8.4h5.9v2.4H81.2z"/>
	<path class="st0" d="M95.3,16.3h-2.8c-1.4,0-2.5-1.1-2.5-2.5V7.5h-1.7V5.2h1.7V2.3h2.7v2.9h2.5v2.4h-2.5v5.9c0,0.4,0.3,0.6,0.6,0.6
		h1.9V16.3z"/>
	<path class="st0" d="M100.7,14h2.4c0.4,0,0.6-0.3,0.6-0.6v-0.5h2.6v1.1c0,1.4-1.1,2.4-2.5,2.4h-4.1c-1.4,0-2.5-1.1-2.5-2.5V7.6
		c0-1.4,1.1-2.5,2.5-2.5h4.1c1.4,0,2.5,1.1,2.5,2.5v3.9h-6.3v1.8C100.1,13.7,100.4,14,100.7,14z M100.1,9.3h3.7V8.1
		c0-0.4-0.3-0.6-0.6-0.6h-2.4c-0.4,0-0.6,0.3-0.6,0.6V9.3z"/>
	<path class="st0" d="M114.8,10.7l3.7,5.6h-3.1L112,11v5.3h-2.7V0.6h2.7v9.8l3.3-5.2h3L114.8,10.7z"/>
	<path class="st0" d="M123.4,14h2.4c0.4,0,0.6-0.3,0.6-0.6v-0.5h2.6v1.1c0,1.4-1.1,2.4-2.5,2.4h-4.1c-1.4,0-2.5-1.1-2.5-2.5V7.6
		c0-1.4,1.1-2.5,2.5-2.5h4.1c1.4,0,2.5,1.1,2.5,2.5v3.9h-6.3v1.8C122.8,13.7,123.1,14,123.4,14z M122.8,9.3h3.7V8.1
		c0-0.4-0.3-0.6-0.6-0.6h-2.4c-0.4,0-0.6,0.3-0.6,0.6V9.3z"/>
	<path class="st0" d="M134.7,16.3H132V5.2h2.6V6c1-0.4,3-1.1,4.1-1.1c1.6,0,2.5,1.1,2.5,2.5v8.9h-2.7V8.2c0-0.4-0.2-0.6-0.6-0.6
		c-0.6,0-2,0.5-2.5,0.7c-0.4,0.2-0.6,0.5-0.6,0.9V16.3z"/>
	<path class="st0" d="M144.2,12.2c0-1.4,0.9-2.5,2.5-2.5c1.2,0,2.9,0.2,3.8,0.5V8.2c0-0.4-0.3-0.6-0.6-0.6h-2.1
		c-0.4,0-0.6,0.3-0.6,0.6v0.4h-2.6V7.6c0-1.4,1.1-2.4,2.5-2.4h3.8c1.4,0,2.5,1.1,2.5,2.5v8.7h-2.7v-0.5c-1.2,0.4-2.7,0.8-3.8,0.8
		c-1.6,0-2.5-1.1-2.5-2.5V12.2z M146.8,13.6c0,0.4,0.2,0.6,0.6,0.6c0.6,0,1.8-0.3,2.4-0.5c0.4-0.1,0.6-0.3,0.6-0.6v-0.5
		c0-0.3-0.2-0.4-0.6-0.5c-0.6-0.1-1.9-0.2-2.4-0.2c-0.4,0-0.6,0.3-0.6,0.6V13.6z"/>
	<path class="st0" d="M156.2,12.2c0-1.4,0.9-2.5,2.5-2.5c1.2,0,2.9,0.2,3.8,0.5V8.2c0-0.4-0.3-0.6-0.6-0.6h-2.1
		c-0.4,0-0.6,0.3-0.6,0.6v0.4h-2.6V7.6c0-1.4,1.1-2.4,2.5-2.4h3.8c1.4,0,2.5,1.1,2.5,2.5v8.7h-2.7v-0.5c-1.2,0.4-2.7,0.8-3.8,0.8
		c-1.6,0-2.5-1.1-2.5-2.5V12.2z M158.8,13.6c0,0.4,0.2,0.6,0.6,0.6c0.6,0,1.8-0.3,2.4-0.5c0.4-0.1,0.6-0.3,0.6-0.6v-0.5
		c0-0.3-0.2-0.4-0.6-0.5c-0.6-0.1-1.9-0.2-2.4-0.2c-0.4,0-0.6,0.3-0.6,0.6V13.6z"/>
	<path class="st0" d="M174.6,7.6c-0.9,0.4-2,0.8-2.8,1.3c-0.4,0.2-0.6,0.5-0.6,0.9v6.5h-2.7V5.2h2.7v1.2c1-0.5,2.1-1,3.2-1.5
		L174.6,7.6z"/>
	<path class="st0" d="M181.6,0.5h2.7v3h-2.7V0.5z M181.6,5.2h2.7v11.2h-2.7V5.2z"/>
	<path class="st0" d="M190.4,16.3h-2.7V5.2h2.6V6c1-0.4,3-1.1,4.1-1.1c1.6,0,2.5,1.1,2.5,2.5v8.9h-2.7V8.2c0-0.4-0.2-0.6-0.6-0.6
		c-0.6,0-2,0.5-2.5,0.7c-0.4,0.2-0.6,0.5-0.6,0.9V16.3z"/>
</g>
<g>
	<path class="st0" d="M0.2,36.3v-6.2c0-1.4,1.1-2.5,2.5-2.5h4.5c1.4,0,2.5,1.1,2.5,2.5v6.2c0,1.4-1.1,2.5-2.5,2.5H2.6
		C1.3,38.8,0.2,37.7,0.2,36.3z M6.9,30.7c0-0.4-0.3-0.6-0.6-0.6H3.5c-0.4,0-0.6,0.3-0.6,0.6v5c0,0.4,0.3,0.6,0.6,0.6h2.7
		c0.4,0,0.6-0.3,0.6-0.6V30.7z"/>
	<path class="st0" d="M12.5,36.3v-6.2c0-1.4,1.1-2.5,2.5-2.5h4.5c1.4,0,2.5,1.1,2.5,2.5v6.2c0,1.4-1.1,2.5-2.5,2.5h-4.5
		C13.5,38.8,12.5,37.7,12.5,36.3z M19.2,30.7c0-0.4-0.3-0.6-0.6-0.6h-2.7c-0.4,0-0.6,0.3-0.6,0.6v5c0,0.4,0.3,0.6,0.6,0.6h2.7
		c0.4,0,0.6-0.3,0.6-0.6V30.7z"/>
	<path class="st0" d="M31.1,30.1c-0.9,0.4-2,0.8-2.8,1.3c-0.4,0.2-0.6,0.5-0.6,0.9v6.5H25V27.6h2.7v1.2c1-0.5,2.1-1,3.2-1.5
		L31.1,30.1z"/>
	<path class="st0" d="M33.1,23.1h2.7v15.7h-2.7V23.1z"/>
	<path class="st0" d="M38.9,36.3v-6.2c0-1.4,1.1-2.5,2.5-2.5h4.5c1.4,0,2.5,1.1,2.5,2.5v6.2c0,1.4-1.1,2.5-2.5,2.5h-4.5
		C39.9,38.8,38.9,37.7,38.9,36.3z M45.6,30.7c0-0.4-0.3-0.6-0.6-0.6h-2.7c-0.4,0-0.6,0.3-0.6,0.6v5c0,0.4,0.3,0.6,0.6,0.6H45
		c0.4,0,0.6-0.3,0.6-0.6V30.7z"/>
	<path class="st0" d="M51.1,29.9c0-1.4,0.9-2.5,2.5-2.5c1.2,0,2.9,0.6,4,1v-0.8h2.7v13.2c0,1.4-1.1,2.5-2.5,2.5h-5.7V41H57
		c0.4,0,0.6-0.3,0.6-0.6v-2.9c-1.1,0.4-2.8,1-4,1c-1.6,0-2.5-1.1-2.5-2.5V29.9z M53.8,35.3c0,0.4,0.2,0.6,0.6,0.6
		c0.6,0,2-0.5,2.5-0.7c0.4-0.2,0.6-0.4,0.6-0.8v-3c0-0.4-0.2-0.6-0.6-0.8c-0.5-0.2-1.9-0.7-2.5-0.7c-0.4,0-0.6,0.3-0.6,0.6V35.3z"/>
	<path class="st0" d="M69.4,35.5c0,0,0.1-0.5-0.5-0.7c-1.3-0.4-2.7-0.8-3.9-1.2c-1-0.3-1.8-1.2-1.8-2.3v-1.3c0-1.4,1.1-2.5,2.5-2.5
		h3.8c1.4,0,2.5,1.1,2.5,2.5v1h-2.6v-0.5c0-0.4-0.3-0.6-0.6-0.6h-2.1c-0.4,0-0.7,0.3-0.7,0.6v0.3c0,0.3,0.2,0.6,0.5,0.7
		c0.9,0.3,2.8,0.8,3.9,1.2c1.2,0.4,1.8,1.2,1.8,2.3v1.3c0,1.4-1.1,2.5-2.5,2.5h-3.9c-1.4,0-2.5-1.1-2.5-2.5v-1h2.6v0.6
		c0,0.4,0.3,0.6,0.6,0.6h2.4c0.4,0,0.6-0.3,0.6-0.6V35.5z"/>
	<path class="st0" d="M74.5,33.2v-2.4h5.9v2.4H74.5z"/>
	<path class="st0" d="M91.2,36.4h2.4c0.4,0,0.6-0.3,0.6-0.6v-0.5h2.6v1.1c0,1.4-1.1,2.4-2.5,2.4h-4.1c-1.4,0-2.5-1.1-2.5-2.5v-6.2
		c0-1.4,1.1-2.5,2.5-2.5h4.1c1.4,0,2.5,1.1,2.5,2.5V34h-6.3v1.8C90.5,36.2,90.8,36.4,91.2,36.4z M90.5,31.7h3.7v-1.1
		c0-0.4-0.3-0.6-0.6-0.6h-2.4c-0.4,0-0.6,0.3-0.6,0.6V31.7z"/>
	<path class="st0" d="M102.5,38.8h-2.7V27.6h2.6v0.8c1-0.4,3-1.1,4.1-1.1c1.6,0,2.5,1.1,2.5,2.5v8.9h-2.7v-8.1
		c0-0.4-0.2-0.6-0.6-0.6c-0.6,0-2,0.5-2.5,0.7c-0.4,0.2-0.6,0.5-0.6,0.9V38.8z"/>
	<path class="st0" d="M115.9,27.6h2.8l2.3,7.9l2.3-7.9h2.8l-3.7,11.2h-2.9L115.9,27.6z"/>
	<path class="st0" d="M134.3,30.1c-0.9,0.4-2,0.8-2.8,1.3c-0.4,0.2-0.6,0.5-0.6,0.9v6.5h-2.7V27.6h2.7v1.2c1-0.5,2.1-1,3.2-1.5
		L134.3,30.1z"/>
	<path class="st0" d="M139.2,36.4h2.4c0.4,0,0.6-0.3,0.6-0.6v-0.5h2.6v1.1c0,1.4-1.1,2.4-2.5,2.4h-4.1c-1.4,0-2.5-1.1-2.5-2.5v-6.2
		c0-1.4,1.1-2.5,2.5-2.5h4.1c1.4,0,2.5,1.1,2.5,2.5V34h-6.3v1.8C138.5,36.2,138.8,36.4,139.2,36.4z M138.5,31.7h3.7v-1.1
		c0-0.4-0.3-0.6-0.6-0.6h-2.4c-0.4,0-0.6,0.3-0.6,0.6V31.7z"/>
	<path class="st0" d="M147.5,29.9c0-1.4,0.9-2.5,2.5-2.5c1.2,0,2.9,0.6,4,1v-5.3h2.7v15.7H154v-0.8c-1.1,0.4-2.8,1-4,1
		c-1.6,0-2.5-1.1-2.5-2.5V29.9z M150.2,35.9c0,0.4,0.2,0.6,0.6,0.6c0.6,0,2-0.5,2.5-0.7c0.4-0.2,0.6-0.4,0.6-0.8v-3.5
		c0-0.4-0.2-0.6-0.6-0.8c-0.5-0.2-1.9-0.7-2.5-0.7c-0.4,0-0.6,0.3-0.6,0.6V35.9z"/>
	<path class="st0" d="M163.1,36.4h2.4c0.4,0,0.6-0.3,0.6-0.6v-0.5h2.6v1.1c0,1.4-1.1,2.4-2.5,2.4h-4.1c-1.4,0-2.5-1.1-2.5-2.5v-6.2
		c0-1.4,1.1-2.5,2.5-2.5h4.1c1.4,0,2.5,1.1,2.5,2.5V34h-6.3v1.8C162.5,36.2,162.8,36.4,163.1,36.4z M162.5,31.7h3.7v-1.1
		c0-0.4-0.3-0.6-0.6-0.6h-2.4c-0.4,0-0.6,0.3-0.6,0.6V31.7z"/>
	<path class="st0" d="M177.6,35.5c0,0,0.1-0.5-0.5-0.7c-1.3-0.4-2.7-0.8-3.9-1.2c-1-0.3-1.8-1.2-1.8-2.3v-1.3c0-1.4,1.1-2.5,2.5-2.5
		h3.8c1.4,0,2.5,1.1,2.5,2.5v1h-2.6v-0.5c0-0.4-0.3-0.6-0.6-0.6h-2.1c-0.4,0-0.7,0.3-0.7,0.6v0.3c0,0.3,0.2,0.6,0.5,0.7
		c0.9,0.3,2.8,0.8,3.9,1.2c1.2,0.4,1.8,1.2,1.8,2.3v1.3c0,1.4-1.1,2.5-2.5,2.5h-3.9c-1.4,0-2.5-1.1-2.5-2.5v-1h2.6v0.6
		c0,0.4,0.3,0.6,0.6,0.6h2.4c0.4,0,0.6-0.3,0.6-0.6V35.5z"/>
	<path class="st0" d="M188.6,38.8h-2.8c-1.4,0-2.5-1.1-2.5-2.5V30h-1.7v-2.4h1.7v-2.9h2.7v2.9h2.5V30h-2.5v5.9
		c0,0.4,0.3,0.6,0.6,0.6h1.9V38.8z"/>
	<path class="st0" d="M191.1,22.9h2.7v3h-2.7V22.9z M191.1,27.6h2.7v11.2h-2.7V27.6z"/>
	<path class="st0" d="M199.8,27.6v13.2c0,1.4-1.1,2.5-2.5,2.5h-2.5v-2.4h1.6c0.4,0,0.6-0.3,0.6-0.6V27.6H199.8z M197.1,22.9h2.7v3
		h-2.7V22.9z"/>
	<path class="st0" d="M202.9,29.9c0-1.4,0.9-2.5,2.5-2.5c1.2,0,2.9,0.6,4,1v-5.3h2.7v15.7h-2.7v-0.8c-1.1,0.4-2.8,1-4,1
		c-1.6,0-2.5-1.1-2.5-2.5V29.9z M205.6,35.9c0,0.4,0.2,0.6,0.6,0.6c0.6,0,2-0.5,2.5-0.7c0.4-0.2,0.6-0.4,0.6-0.8v-3.5
		c0-0.4-0.2-0.6-0.6-0.8c-0.5-0.2-1.9-0.7-2.5-0.7c-0.4,0-0.6,0.3-0.6,0.6V35.9z"/>
</g>
</svg>
