<?xml version="1.0" encoding="utf-8"?>
<!-- Generator: Adobe Illustrator 24.3.0, SVG Export Plug-In . SVG Version: 6.00 Build 0)  -->
<svg version="1.1" id="Laag_1" xmlns="http://www.w3.org/2000/svg" xmlns:xlink="http://www.w3.org/1999/xlink" x="0px" y="0px"
	 width="587.4px" height="94.1px" viewBox="0 0 587.4 94.1" style="enable-background:new 0 0 587.4 94.1;" xml:space="preserve">
<style type="text/css">
	.st0{fill:#FFFFFF;}
</style>
<g>
	<path class="st0" d="M32.8,1.8V1.2c0-0.3-0.2-0.5-0.6-0.5H21.7c-0.3,0-0.5,0.1-0.5,0.4v0.9c0,0.3,0.3,0.5,0.9,0.5
		c1.3,0,2.3,0.1,2.9,0.2c0.6,0.2,0.9,0.6,0.9,1.2c0,0.4-0.2,1.1-0.5,2l0,0c-1.2,3.5-3.2,8.6-5.9,15.5l-2.3,5.7
		c-1.1-2.7-2.2-5.5-3.3-8.3c-1.1-2.9-2.2-5.8-3.3-9C9.6,6.8,9.1,4.9,9.1,4.1c0-0.7,0.3-1.2,1-1.3c0.7-0.2,1.7-0.3,3.1-0.3
		c0.6,0,0.8-0.2,0.8-0.5V1.1c0-0.3-0.2-0.4-0.7-0.4h-13C0.1,0.7,0,0.9,0,1.2v0.8c0,0.3,0.2,0.5,0.6,0.5c0.7,0,1.2,0.2,1.6,0.5
		s1,1.3,1.8,3s1.6,3.5,2.3,5.4l8.2,21.1l0.1,0.2c0.2,0.5,0.4,0.8,0.7,0.8h1.4c0.3,0,0.4-0.1,0.6-0.2s0.3-0.5,0.5-1.1
		c0.3-0.7,0.5-1.4,0.7-2l1.5-3.6C24.3,15.9,27.1,9.3,28.1,7c1.1-2.3,1.9-3.7,2.4-4c0.4-0.3,1.1-0.5,2.1-0.5
		C32.8,2.4,32.8,2.2,32.8,1.8z"/>
	<path class="st0" d="M67.1,31h-0.7c-0.4,0-0.8-0.2-1.2-0.5c-0.4-0.3-0.8-0.8-1.2-1.5c-0.4-0.8-1.7-3.4-3.7-7.7L51.1,0.1H49
		L36.7,26.5c-1.4,3-2.8,4.5-4,4.5h-0.7c-0.2,0-0.4,0.1-0.4,0.4v0.8c0,0.3,0.1,0.5,0.2,0.5h10.7c0.2,0,0.3-0.1,0.3-0.4v-0.8
		c0-0.3-0.2-0.5-0.5-0.5h-1.2c-1.5,0-2.3-0.6-2.3-1.7c0-0.4,0.1-0.8,0.3-1.3l2.3-5.5h14.1l1.9,4.8c0.3,0.8,0.5,1.5,0.5,2
		c0,1.1-0.8,1.7-2.4,1.7h-1.3c-0.3,0-0.4,0.1-0.4,0.4v0.8c0,0.3,0.1,0.5,0.4,0.5H67c0,0,0.1,0,0.2-0.1c0.1,0,0.1,0,0.1,0l0.2-0.2
		v-1.1C67.6,31.1,67.4,31,67.1,31z M42.5,20.5l6.3-14.4l6.1,14.4H42.5z"/>
	<path class="st0" d="M106.4,2.1V1.2c0-0.3-0.1-0.5-0.4-0.5H94.2c-0.4,0-0.6,0.1-0.6,0.4v0.8c0,0.2,0.1,0.4,0.2,0.4
		c0.1,0.1,0.5,0.1,1,0.1c1.5,0,2.4,0.1,3,0.2c0.5,0.2,0.9,0.6,1,1.4s0.2,2,0.2,3.8v16.8l-4-5.1l-11.4-15l-2.9-4h-10
		c-0.2,0-0.4,0.2-0.4,0.6v0.7c0,0.2,0,0.4,0.1,0.4c0.1,0.1,0.2,0.1,0.5,0.1c2.4,0,3.8,0.3,4.1,0.8c0.3,0.6,0.4,2.1,0.4,4.6v18.5
		c0,1.5-0.1,2.5-0.3,3.1c-0.2,0.6-0.5,1-1.1,1.2S72.6,31,71,31c-0.5,0-0.7,0.2-0.7,0.7v0.6c0,0.3,0.1,0.4,0.4,0.4H83
		c0.2,0,0.3-0.1,0.3-0.3v-0.8c0-0.4-0.3-0.5-0.8-0.5c-1.1,0-2-0.1-2.5-0.2c-0.5-0.1-0.9-0.3-1.2-0.5c-0.5-0.5-0.8-2.6-0.8-6.2V5.6
		l3.7,4.3l14,18.3l2.4,3.2l1.2,1.7h2c0.2,0,0.3-0.2,0.3-0.5V7.9c0-2.3,0.1-3.8,0.3-4.5c0.1-0.4,0.4-0.7,1-0.8s1.5-0.2,2.8-0.2
		C106.2,2.4,106.4,2.3,106.4,2.1z"/>
	<path class="st0" d="M142.9,31h-0.7c-0.4,0-0.8-0.2-1.2-0.5c-0.4-0.3-0.8-0.8-1.2-1.5c-0.4-0.8-1.7-3.4-3.7-7.7l-9.2-21.1h-2.1
		l-12.3,26.4c-1.4,3-2.8,4.5-4,4.5h-0.7c-0.2,0-0.4,0.1-0.4,0.4v0.8c0,0.3,0.1,0.5,0.2,0.5h10.7c0.2,0,0.3-0.1,0.3-0.4v-0.8
		c0-0.3-0.2-0.5-0.5-0.5h-1.2c-1.5,0-2.3-0.6-2.3-1.7c0-0.4,0.1-0.8,0.3-1.3l2.3-5.5h14.1l1.9,4.8c0.3,0.8,0.5,1.5,0.5,2
		c0,1.1-0.8,1.7-2.4,1.7h-1.3c-0.3,0-0.4,0.1-0.4,0.4v0.8c0,0.3,0.1,0.5,0.4,0.5h12.6c0,0,0.1,0,0.2-0.1c0.1,0,0.1,0,0.1,0l0.2-0.2
		v-1.1C143.3,31.1,143.2,31,142.9,31z M118.3,20.5l6.3-14.4l6.1,14.4H118.3z"/>
	<path class="st0" d="M161.4,32.5v-1.2c0-0.2-0.2-0.3-0.5-0.3c-1.5,0-2.8-0.1-3.8-0.3c-0.5-0.1-0.9-0.2-1.1-0.4
		c-0.3-0.1-0.4-0.6-0.5-1.3c-0.2-1.3-0.3-3.2-0.3-5.7v-6h7.7c0.9,0,1.6,0.1,2.1,0.3c0.5,0.2,0.9,0.7,1.1,1.5
		c0.2,0.8,0.3,1.7,0.3,2.7c0,0.4,0.1,0.7,0.4,0.7h1c0.3,0,0.4-0.2,0.4-0.5V11c0-0.4-0.2-0.6-0.5-0.6h-0.7c-0.2,0-0.3,0-0.4,0.1
		c0,0.1-0.1,0.3-0.1,0.7c0,0.9-0.1,1.7-0.3,2.5s-0.6,1.3-1.2,1.5c-0.6,0.2-1.6,0.3-3,0.3h-6.8V7.7c0-2.2,0-3.8,0.1-4.9h7.1
		c1.9,0,3.2,0.1,4.1,0.2s1.4,0.6,1.7,1.2c0.3,0.7,0.4,1.5,0.4,2.4c0,0.1,0,0.3,0,0.4v0.1c0,0.3,0.2,0.5,0.7,0.5h0.6
		c0.3,0,0.5-0.1,0.5-0.2V1.2c0-0.3-0.1-0.5-0.4-0.5h-23.6c-0.2,0-0.3,0.1-0.3,0.4v1.2c0,0.1,0.2,0.2,0.7,0.2c1.4,0,2.3,0.1,2.7,0.3
		c0.4,0.2,0.7,0.9,0.9,1.9c0.2,1.1,0.2,2.9,0.2,5.4v13.5c0,2.8-0.1,4.7-0.4,5.8c-0.1,0.3-0.2,0.6-0.3,0.7c-0.2,0.3-0.6,0.5-1.2,0.7
		c-0.6,0.2-1.4,0.3-2.3,0.3c-0.3,0-0.4,0.2-0.4,0.5v0.8c0,0.3,0.1,0.4,0.4,0.4H161C161.2,32.7,161.4,32.6,161.4,32.5z"/>
	<path class="st0" d="M187.8,32.7h20.3c0.2,0,0.3-0.2,0.3-0.6v-6.2c0-0.3-0.1-0.4-0.2-0.4h-1.1c-0.3,0-0.4,0.2-0.4,0.5
		c0,0.4,0,0.8-0.1,1.1c-0.1,0.3-0.2,0.6-0.3,0.8c-0.5,0.6-2.5,1-6.2,1h-8.2v-0.1c2-1.5,4.5-3.7,7.6-6.6c3-2.9,5.2-5.4,6.4-7.5
		c1.2-2.1,1.8-4.2,1.8-6.3c0-2.5-0.8-4.5-2.5-6.1S201.3,0,198.6,0c-2.7,0-5.1,0.8-7.1,2.5c-0.8,0.7-1.5,1.5-2.1,2.4
		c-0.6,0.9-0.9,1.5-0.9,1.9c0,0.1,0,0.1,0.1,0.2l1,0.5c0,0,0.1,0,0.1,0c0.1,0,0.3-0.1,0.5-0.4c1.7-2.5,3.9-3.8,6.7-3.8
		c1.7,0,3.1,0.6,4.3,1.9s1.7,2.8,1.7,4.6c0,2.5-1.1,5.3-3.4,8.4c-2.2,3.1-5.6,6.5-10,10.2c-0.9,0.7-1.6,1.4-2.1,1.8v2.1
		C187.5,32.6,187.6,32.7,187.8,32.7z"/>
	<path class="st0" d="M233.3,28.5c2.3-3.3,3.5-7.6,3.5-12.9c0-4.8-1-8.6-3.1-11.4S229,0,225.6,0c-3.7,0-6.7,1.6-9,4.9
		s-3.4,7.7-3.4,13.2c0,4.8,1,8.6,3.1,11.3c2,2.7,4.8,4,8.2,4C228,33.4,231,31.8,233.3,28.5z M225,31.6c-2.2,0-4-1.3-5.1-3.9
		c-1.2-2.6-1.8-6.4-1.8-11.5c0-9.5,2.2-14.3,6.7-14.3c4.7,0,7,5.3,7,15.8c0,4.5-0.6,7.9-1.8,10.3C228.9,30.4,227.2,31.6,225,31.6z"
		/>
	<path class="st0" d="M274,1.9V1c0-0.2-0.2-0.2-0.5-0.2h-13.5c-0.4,0-0.5,0.2-0.5,0.5v0.7c0,0.4,0.3,0.6,0.9,0.6
		c1.1,0,1.9,0.1,2.5,0.2c0.6,0.1,1,0.3,1.2,0.5c0.2,0.2,0.4,1.2,0.6,3c0.2,2.5,0.3,5.8,0.3,10.1V23c0,3.2-0.4,5.4-1.3,6.6
		s-2.2,1.8-3.8,1.8c-1.1,0-2-0.3-2.9-0.8c-0.7-0.4-1.1-0.9-1.3-1.3c-0.2-0.4-0.3-1.2-0.5-2.5c-0.2-1.2-0.3-1.8-0.4-1.8h-1.2
		c-0.2,0-0.2,0.2-0.2,0.5v7c2,0.5,3.9,0.7,5.7,0.7c2.2,0,4.2-0.4,5.9-1.2c1.7-0.8,2.9-1.9,3.8-3.3s1.3-3.8,1.3-7l-0.1-4.5L269.5,9
		c0-1.5,0-2.8,0.1-3.8c0.1-1,0.2-1.6,0.3-2c0.2-0.5,1.4-0.8,3.5-0.8C273.8,2.4,274,2.3,274,1.9z"/>
	<path class="st0" d="M275.2,32.7H286c0.2,0,0.3-0.1,0.3-0.4v-0.8c0-0.3-0.2-0.5-0.5-0.5h-1.2c-1.5,0-2.3-0.6-2.3-1.7
		c0-0.4,0.1-0.8,0.3-1.3l2.3-5.5H299l1.9,4.8c0.3,0.8,0.5,1.5,0.5,2c0,1.1-0.8,1.7-2.4,1.7h-1.3c-0.3,0-0.4,0.1-0.4,0.4v0.8
		c0,0.3,0.1,0.5,0.4,0.5h12.6c0,0,0.1,0,0.2-0.1c0.1,0,0.1,0,0.1,0l0.2-0.2v-1.1c0-0.2-0.1-0.3-0.4-0.3h-0.7c-0.4,0-0.8-0.2-1.2-0.5
		c-0.4-0.3-0.8-0.8-1.2-1.5c-0.4-0.8-1.7-3.4-3.7-7.7l-9.2-21.1h-2.1L280,26.5c-1.4,3-2.8,4.5-4,4.5h-0.7c-0.2,0-0.4,0.1-0.4,0.4
		v0.8C275,32.6,275.1,32.7,275.2,32.7z M292,6.1l6.1,14.4h-12.4L292,6.1z"/>
	<path class="st0" d="M344.9,7.9c0-2.3,0.1-3.8,0.3-4.5c0.1-0.4,0.4-0.7,1-0.8s1.5-0.2,2.8-0.2c0.5,0,0.7-0.1,0.7-0.4V1.2
		c0-0.3-0.1-0.5-0.4-0.5h-11.8c-0.4,0-0.6,0.1-0.6,0.4v0.8c0,0.2,0.1,0.4,0.2,0.4c0.1,0.1,0.5,0.1,1,0.1c1.5,0,2.4,0.1,3,0.2
		s0.9,0.6,1,1.4s0.2,2,0.2,3.8v16.8l-4-5.1l-11.4-15l-2.9-4h-10c-0.2,0-0.4,0.2-0.4,0.6v0.7c0,0.2,0,0.4,0.1,0.4s0.2,0.1,0.5,0.1
		c2.4,0,3.8,0.3,4.1,0.8c0.3,0.6,0.4,2.1,0.4,4.6v18.5c0,1.5-0.1,2.5-0.3,3.1s-0.5,1-1.1,1.2s-1.5,0.3-3.1,0.3
		c-0.5,0-0.7,0.2-0.7,0.7v0.6c0,0.3,0.1,0.4,0.4,0.4h12.3c0.2,0,0.3-0.1,0.3-0.3v-0.8c0-0.4-0.3-0.5-0.8-0.5c-1.1,0-2-0.1-2.5-0.2
		s-0.9-0.3-1.2-0.5c-0.5-0.5-0.8-2.6-0.8-6.2V5.6L325,10l14,18.3l2.4,3.2l1.2,1.7h2c0.2,0,0.3-0.2,0.3-0.5V7.9z"/>
	<path class="st0" d="M353.5,2.4c1.4,0,2.3,0.1,2.8,0.2c0.5,0.2,0.8,0.5,1,1.2c0.2,0.6,0.2,1.7,0.2,3.3v14.9c0,3.7,1,6.5,3.1,8.5
		s5.1,2.9,9,2.9c3.4,0,6.1-1,8.4-3.1c2.2-2.1,3.4-5.3,3.4-9.9V8.2c0-2,0.1-3.5,0.4-4.4c0.1-0.5,0.5-0.9,1-1.1
		c0.5-0.2,1.3-0.3,2.3-0.3c0.4,0,0.7,0,0.8-0.1c0.1-0.1,0.2-0.2,0.2-0.5V1c0-0.2-0.1-0.3-0.4-0.3H374c-0.5,0-0.7,0.2-0.7,0.5v0.8
		c0,0.3,0.3,0.5,0.9,0.5c1.1,0,2,0.1,2.6,0.2c0.6,0.1,1,0.3,1.1,0.7c0.2,0.3,0.3,0.8,0.4,1.5c0.3,1.6,0.4,3.5,0.4,5.6v8
		c0,3.2-0.3,5.7-0.8,7.3c-0.5,1.6-1.5,2.9-2.9,3.8c-1.4,1-3,1.5-4.7,1.5c-1.7,0-3.1-0.4-4.5-1.2c-1.3-0.8-2.3-1.9-2.9-3.4
		c-0.6-1.5-0.9-4-0.9-7.6V9.2c0-2.2,0.1-3.9,0.4-5c0.1-0.4,0.2-0.7,0.3-0.9c0.2-0.3,0.5-0.5,1.1-0.6c0.5-0.1,1.4-0.2,2.7-0.2
		c0.3,0,0.5,0,0.6-0.1s0.1-0.3,0.1-0.5V1.1c0-0.2-0.1-0.4-0.4-0.4h-13.8c-0.3,0-0.5,0.1-0.5,0.2v1C352.7,2.3,352.9,2.4,353.5,2.4z"
		/>
	<path class="st0" d="M385.1,31.4v0.8c0,0.3,0.1,0.5,0.2,0.5h10.7c0.2,0,0.3-0.1,0.3-0.4v-0.8c0-0.3-0.2-0.5-0.5-0.5h-1.2
		c-1.5,0-2.3-0.6-2.3-1.7c0-0.4,0.1-0.8,0.3-1.3l2.3-5.5h14.1l1.9,4.8c0.3,0.8,0.5,1.5,0.5,2c0,1.1-0.8,1.7-2.4,1.7h-1.3
		c-0.3,0-0.4,0.1-0.4,0.4v0.8c0,0.3,0.1,0.5,0.4,0.5h12.6c0,0,0.1,0,0.2-0.1c0.1,0,0.1,0,0.1,0l0.2-0.2v-1.1c0-0.2-0.1-0.3-0.4-0.3
		h-0.7c-0.4,0-0.8-0.2-1.2-0.5c-0.4-0.3-0.8-0.8-1.2-1.5c-0.4-0.8-1.7-3.4-3.7-7.7l-9.2-21.1h-2.1l-12.3,26.4c-1.4,3-2.8,4.5-4,4.5
		h-0.7C385.2,31,385.1,31.2,385.1,31.4z M402.1,6.1l6.1,14.4h-12.4L402.1,6.1z"/>
	<path class="st0" d="M424.5,32.7h13.4c0.3,0,0.5-0.1,0.5-0.3v-1.1c0-0.2-0.2-0.4-0.6-0.4c-1.1,0-2,0-2.6-0.1s-1-0.2-1.2-0.3
		c-0.5-0.3-0.7-2.4-0.7-6.3v-7.1h2l2.4-0.2c4.5,6.7,7.5,11.7,8.9,14.8c0.3,0.7,0.5,1,0.8,1h6.7c0.3,0,0.5-0.1,0.5-0.4v-0.9
		c0-0.3-0.3-0.4-0.8-0.5c-0.7-0.1-1.1-0.2-1.5-0.5c-0.6-0.4-1.8-2-3.8-4.9c-2-2.9-4-6-6.1-9.3c2.3-0.6,4.1-1.6,5.4-3s1.9-3,1.9-4.9
		c0-1.4-0.4-2.7-1.2-4c-0.8-1.3-2-2.2-3.6-2.8c-1.5-0.6-3.2-0.9-4.9-0.9h-15.3c-0.3,0-0.5,0.1-0.5,0.3v0.8c0,0.4,0.3,0.6,0.9,0.6
		c1.2,0,2.1,0.1,2.5,0.2s0.8,0.7,0.9,1.6c0.1,0.9,0.2,2.7,0.2,5.3v13.5c0,1.8,0,3.3-0.1,4.6c-0.1,1.3-0.2,2.2-0.3,2.6
		c-0.2,0.5-1.2,0.7-3.1,0.7c-0.6,0-1,0.2-1,0.6v0.9C424.1,32.6,424.2,32.7,424.5,32.7z M433.2,2.5l2.9-0.1c2.2,0,3.9,0.2,5,0.6
		c1.1,0.4,1.9,1.1,2.4,2.1c0.5,1,0.8,2.1,0.8,3.3c0,2.3-0.9,4-2.6,5.1c-1.7,1.1-4.4,1.7-8,1.7h-0.6V2.5z"/>
	<path class="st0" d="M472.1,0.7h-14.5c-0.3,0-0.5,0.1-0.5,0.2v1.1c0,0.2,0.3,0.3,1,0.3c1.2,0,2.2,0.1,2.8,0.2s1.1,0.5,1.3,0.9
		c0.2,0.4,0.3,1.3,0.3,2.7v15.6c0,2.6,0,4.6-0.1,5.8c-0.1,1.3-0.2,2.1-0.4,2.5c-0.3,0.5-1.6,0.8-4.1,0.8c-0.1,0-0.1,0-0.2,0
		c-0.3,0-0.5,0.1-0.5,0.4v0.9c0,0.3,0.1,0.4,0.3,0.4H472c0.2,0,0.3,0,0.4-0.1c0,0,0.1-0.2,0.1-0.5v-0.8c0-0.2-0.2-0.3-0.6-0.3
		c-1.8,0-3-0.1-3.5-0.2c-0.5-0.2-0.8-0.5-0.9-0.9c-0.2-0.8-0.3-2.2-0.3-4.2V8.6c0-1.7,0-2.9,0.1-3.7c0.1-0.8,0.3-1.3,0.5-1.6
		c0.4-0.6,1.8-0.9,4-0.9c0.5,0,0.8-0.1,0.8-0.3v-1C472.5,0.8,472.4,0.7,472.1,0.7z"/>
	<path class="st0" d="M510.4,25.5h-1.1c-0.3,0-0.4,0.2-0.4,0.5c0,0.4,0,0.8-0.1,1.1c-0.1,0.3-0.2,0.6-0.3,0.8c-0.5,0.6-2.5,1-6.2,1
		h-8.2v-0.1c2-1.5,4.5-3.7,7.6-6.6c3-2.9,5.2-5.4,6.4-7.5c1.2-2.1,1.8-4.2,1.8-6.3c0-2.5-0.8-4.5-2.5-6.1c-1.7-1.6-3.9-2.3-6.5-2.3
		c-2.7,0-5.1,0.8-7.1,2.5c-0.8,0.7-1.5,1.5-2.1,2.4c-0.6,0.9-0.9,1.5-0.9,1.9c0,0.1,0,0.1,0.1,0.2l1,0.5c0,0,0.1,0,0.1,0
		c0.1,0,0.3-0.1,0.5-0.4c1.7-2.5,3.9-3.8,6.7-3.8c1.7,0,3.1,0.6,4.3,1.9s1.7,2.8,1.7,4.6c0,2.5-1.1,5.3-3.4,8.4
		c-2.2,3.1-5.6,6.5-10,10.2c-0.9,0.7-1.6,1.4-2.1,1.8v2.1c0,0.2,0.1,0.3,0.4,0.3h20.3c0.2,0,0.3-0.2,0.3-0.6v-6.2
		C510.6,25.6,510.6,25.5,510.4,25.5z"/>
	<path class="st0" d="M528.2,0c-3.7,0-6.7,1.6-9,4.9c-2.3,3.3-3.4,7.7-3.4,13.2c0,4.8,1,8.6,3.1,11.3c2,2.7,4.8,4,8.2,4
		c3.5,0,6.4-1.6,8.8-4.9c2.3-3.3,3.5-7.6,3.5-12.9c0-4.8-1-8.6-3.1-11.4S531.5,0,528.2,0z M532.6,28c-1.2,2.4-2.9,3.6-5,3.6
		c-2.2,0-4-1.3-5.1-3.9c-1.2-2.6-1.8-6.4-1.8-11.5c0-9.5,2.2-14.3,6.7-14.3c4.7,0,7,5.3,7,15.8C534.4,22.2,533.8,25.6,532.6,28z"/>
	<path class="st0" d="M564.3,25.5h-1.1c-0.3,0-0.4,0.2-0.4,0.5c0,0.4,0,0.8-0.1,1.1c-0.1,0.3-0.2,0.6-0.3,0.8c-0.5,0.6-2.5,1-6.2,1
		h-8.2v-0.1c2-1.5,4.5-3.7,7.6-6.6c3-2.9,5.2-5.4,6.4-7.5c1.2-2.1,1.8-4.2,1.8-6.3c0-2.5-0.8-4.5-2.5-6.1c-1.7-1.6-3.9-2.3-6.5-2.3
		c-2.7,0-5.1,0.8-7.1,2.5c-0.8,0.7-1.5,1.5-2.1,2.4c-0.6,0.9-0.9,1.5-0.9,1.9c0,0.1,0,0.1,0.1,0.2l1,0.5c0,0,0.1,0,0.1,0
		c0.1,0,0.3-0.1,0.5-0.4c1.7-2.5,3.9-3.8,6.7-3.8c1.7,0,3.1,0.6,4.3,1.9s1.7,2.8,1.7,4.6c0,2.5-1.1,5.3-3.4,8.4
		c-2.2,3.1-5.6,6.5-10,10.2c-0.9,0.7-1.6,1.4-2.1,1.8v2.1c0,0.2,0.1,0.3,0.4,0.3h20.3c0.2,0,0.3-0.2,0.3-0.6v-6.2
		C564.5,25.6,564.5,25.5,564.3,25.5z"/>
	<path class="st0" d="M587.1,31h-1.4c-1.4,0-2.3-0.3-2.9-1c-0.5-0.7-0.8-2-0.8-4V3.8c0-0.8,0-1.7,0.1-2.6c0-0.4,0.1-0.6,0.1-0.7
		c0-0.3-0.1-0.5-0.4-0.5c-0.1,0-0.2,0-0.5,0.1c-1.9,0.3-3.8,0.5-5.5,0.5h-2.3c-0.3,0-0.5,0.2-0.5,0.5V2c0,0.2,0.2,0.3,0.7,0.3
		c1.9,0,3,0.3,3.4,0.9c0.4,0.6,0.6,1.9,0.6,4v18.3c0,1.8-0.1,3.1-0.4,3.7c-0.2,0.7-0.6,1.1-1.2,1.4s-1.4,0.4-2.5,0.4h-1
		c-0.2,0-0.3,0-0.3,0.1c0,0,0,0.2,0,0.4v1c0,0.2,0.1,0.3,0.4,0.3h13.9c0.5,0,0.8-0.1,0.8-0.2v-1.1C587.4,31.2,587.3,31,587.1,31z"/>
	<path class="st0" d="M100.5,61.7H86.1c-0.3,0-0.5,0.1-0.5,0.2v1.1c0,0.2,0.3,0.3,1,0.3c1.2,0,2.2,0.1,2.8,0.2
		c0.7,0.2,1.1,0.5,1.3,0.9c0.2,0.4,0.3,1.3,0.3,2.7v15.6c0,2.6,0,4.6-0.1,5.8c-0.1,1.3-0.2,2.1-0.4,2.5c-0.3,0.5-1.6,0.8-4.1,0.8
		c-0.1,0-0.1,0-0.2,0c-0.3,0-0.5,0.1-0.5,0.4v0.9c0,0.3,0.1,0.4,0.3,0.4h14.6c0.2,0,0.3,0,0.4-0.1c0,0,0.1-0.2,0.1-0.5v-0.8
		c0-0.2-0.2-0.3-0.6-0.3c-1.8,0-3-0.1-3.5-0.2c-0.5-0.2-0.8-0.5-0.9-0.9c-0.2-0.8-0.3-2.2-0.3-4.2V69.6c0-1.7,0-2.9,0.1-3.7
		s0.3-1.3,0.5-1.6c0.4-0.6,1.8-0.9,4-0.9c0.5,0,0.8-0.1,0.8-0.3v-1C101,61.8,100.8,61.7,100.5,61.7z"/>
	<path class="st0" d="M139.2,61.7h-11.8c-0.4,0-0.6,0.1-0.6,0.4v0.8c0,0.2,0.1,0.4,0.2,0.4c0.1,0.1,0.5,0.1,1,0.1
		c1.4,0,2.4,0.1,3,0.2c0.5,0.2,0.9,0.6,1,1.4s0.2,2,0.2,3.8v16.8l-4-5.1l-11.4-15l-2.9-4h-10c-0.2,0-0.4,0.2-0.4,0.6v0.7
		c0,0.2,0,0.4,0.1,0.4c0.1,0.1,0.2,0.1,0.5,0.1c2.4,0,3.8,0.3,4.1,0.8c0.3,0.6,0.4,2.1,0.4,4.6v18.5c0,1.5-0.1,2.5-0.3,3.1
		c-0.2,0.6-0.5,1-1.1,1.2c-0.5,0.2-1.5,0.3-3.1,0.3c-0.5,0-0.7,0.2-0.7,0.7v0.6c0,0.3,0.1,0.4,0.4,0.4h12.3c0.2,0,0.3-0.1,0.3-0.3
		v-0.8c0-0.4-0.3-0.5-0.8-0.5c-1.1,0-2-0.1-2.5-0.2c-0.5-0.1-0.9-0.3-1.2-0.5c-0.5-0.5-0.8-2.6-0.8-6.2V66.6l3.7,4.3l14,18.3
		l2.4,3.2l1.2,1.7h2c0.2,0,0.3-0.2,0.3-0.5V68.9c0-2.3,0.1-3.8,0.3-4.5c0.1-0.4,0.4-0.7,1-0.8c0.5-0.1,1.5-0.2,2.8-0.2
		c0.5,0,0.7-0.1,0.7-0.4v-0.9C139.6,61.9,139.5,61.7,139.2,61.7z"/>
	<path class="st0" d="M191.5,61.7h-13.8c-0.2,0-0.3,0.1-0.3,0.4v1c0,0.2,0.3,0.3,0.8,0.3c1.2,0,2.1,0.1,2.7,0.2c0.6,0.2,1,0.5,1.1,1
		c0.3,0.8,0.4,2.3,0.4,4.6v6.4h-16.9v-5.1c0-1.8,0.1-3.3,0.2-4.4c0.1-1.1,0.3-1.9,0.6-2.2c0.3-0.4,1.5-0.6,3.7-0.6
		c0.4,0,0.6-0.2,0.6-0.5V62c0-0.2-0.1-0.3-0.4-0.3h-13.9c-0.3,0-0.4,0-0.4,0.1c0,0.1-0.1,0.2-0.1,0.3v0.8c0,0.2,0.1,0.3,0.2,0.4
		c0.1,0.1,0.4,0.1,0.8,0.1c1.4,0,2.4,0.1,2.9,0.2s0.8,0.5,0.9,0.9c0.2,0.8,0.4,3,0.4,6.8v16.3c0,1.3-0.1,2.4-0.4,3.2
		c-0.1,0.4-0.2,0.6-0.4,0.8c-0.1,0.1-0.5,0.3-1,0.3c-0.6,0.1-1.5,0.1-2.8,0.1c-0.3,0-0.5,0.1-0.5,0.4v1c0,0.2,0.1,0.3,0.2,0.3h14.3
		c0.2,0,0.3-0.1,0.3-0.4v-0.9c0-0.3-0.2-0.5-0.5-0.5c-0.1,0-0.2,0-0.2,0c-0.9,0-1.6,0-2.2-0.1s-1-0.2-1.2-0.3
		c-0.6-0.4-0.9-2.5-0.9-6.4v-7h16.9v7.6c0,2.2-0.1,3.8-0.2,4.8c-0.1,0.3-0.1,0.6-0.2,0.7c-0.1,0.2-0.4,0.4-0.9,0.6
		c-0.5,0.1-1.5,0.2-3.2,0.2c-0.3,0-0.5,0.1-0.5,0.4v1.1c0,0.1,0.1,0.2,0.3,0.2h14c0.3,0,0.4-0.2,0.4-0.5v-0.9c0-0.2-0.3-0.3-0.8-0.3
		c-0.7,0-1.4,0-1.9-0.1s-1-0.2-1.2-0.3c-0.3-0.1-0.5-0.5-0.7-1c-0.3-1-0.4-1.9-0.4-2.8V69.7c0-1.7,0.1-3,0.2-3.9
		c0.1-0.9,0.3-1.6,0.6-1.8c0.4-0.4,1.6-0.6,3.6-0.6c0.5,0,0.7-0.1,0.7-0.4V62C192.1,61.8,191.9,61.7,191.5,61.7z"/>
	<path class="st0" d="M221,86h-1.1c-0.2,0-0.3,0.2-0.3,0.7c0,0.9,0,1.7-0.1,2.3s-0.2,1.2-0.4,1.5c-0.2,0.3-0.6,0.6-1.2,0.8
		c-1.2,0.3-3.1,0.5-5.6,0.5h-7.5c-0.1-2.2-0.2-4.4-0.2-6.6v-7h9.4c1.4,0,2.3,0.3,2.8,0.8s0.7,1.6,0.7,3.1c0,0.4,0.1,0.6,0.3,0.6h1
		c0.3,0,0.4-0.2,0.4-0.5V72c0-0.4-0.1-0.5-0.4-0.5h-0.9c-0.3,0-0.5,0.3-0.5,0.9c0,1.6-0.3,2.6-0.8,3.1c-0.5,0.5-1.6,0.7-3.3,0.7
		h-8.7v-8l0.1-2.2l0.1-2.2H216c1,0,1.8,0.3,2.2,0.8c0.4,0.6,0.6,1.7,0.6,3.5c0,0.4,0.1,0.5,0.4,0.5h1.1c0.2,0,0.2-0.2,0.2-0.6v-5.8
		c0-0.3-0.2-0.5-0.6-0.5h-24.5c-0.4,0-0.6,0.1-0.6,0.3v1.1c0,0.2,0.3,0.3,0.8,0.3c1.7,0,2.8,0.3,3.4,0.8c0.6,0.5,0.8,1.9,0.8,4.2
		v15.8c0,2.7-0.1,4.7-0.4,5.9c-0.1,0.6-0.2,1-0.4,1.2c-0.2,0.2-0.6,0.4-1.3,0.5c-0.7,0.2-1.5,0.2-2.4,0.2c-0.4,0-0.6,0.1-0.6,0.3v1
		c0,0.3,0.1,0.4,0.3,0.4h25.8c0.2,0,0.3-0.1,0.3-0.3v-7.1C221.3,86.1,221.2,86,221,86z"/>
	<path class="st0" d="M254.2,61.7H226c-0.3,0-0.4,0.2-0.4,0.7v7.9c0,0.2,0.1,0.3,0.3,0.3h0.9c0.3,0,0.4-0.3,0.5-1
		c0.2-1.4,0.4-2.5,0.6-3.3c0.2-0.7,0.5-1.3,0.8-1.6c0.3-0.3,0.9-0.4,1.7-0.4h7.4v20.4c0,2.2-0.2,3.9-0.5,5.3
		c-0.2,0.7-0.4,1.2-0.6,1.4s-0.7,0.4-1.3,0.5c-0.6,0.1-1.6,0.1-2.9,0.1c-0.3,0-0.5,0.1-0.5,0.4v0.9c0,0.3,0.1,0.4,0.4,0.4h15.3
		c0.2,0,0.3-0.1,0.3-0.3v-1.2c0-0.2-0.2-0.3-0.7-0.3c-1.4,0-2.3-0.1-2.9-0.2c-0.6-0.1-1-0.3-1.3-0.5c-0.5-0.5-0.7-3.2-0.7-8.2V64.3
		h7.3c1,0,1.7,0.3,2,0.8c0.3,0.5,0.7,2.1,1.1,4.8c0.1,0.4,0.1,0.6,0.1,0.6c0,0.1,0.1,0.1,0.2,0.1h1.1c0.2,0,0.3-0.2,0.3-0.5v-7.9
		C254.7,61.9,254.6,61.7,254.2,61.7z"/>
	<path class="st0" d="M300.7,61.7h-28.1c-0.3,0-0.4,0.2-0.4,0.7v7.9c0,0.2,0.1,0.3,0.3,0.3h0.9c0.3,0,0.4-0.3,0.5-1
		c0.2-1.4,0.4-2.5,0.6-3.3c0.2-0.7,0.5-1.3,0.8-1.6c0.3-0.3,0.9-0.4,1.7-0.4h7.4v20.4c0,2.2-0.2,3.9-0.5,5.3
		c-0.2,0.7-0.4,1.2-0.6,1.4s-0.7,0.4-1.3,0.5S280.4,92,279,92c-0.3,0-0.5,0.1-0.5,0.4v0.9c0,0.3,0.1,0.4,0.4,0.4h15.3
		c0.2,0,0.3-0.1,0.3-0.3v-1.2c0-0.2-0.2-0.3-0.7-0.3c-1.4,0-2.3-0.1-2.9-0.2c-0.6-0.1-1-0.3-1.3-0.5c-0.5-0.5-0.7-3.2-0.7-8.2V64.3
		h7.3c1,0,1.7,0.3,2,0.8c0.3,0.5,0.7,2.1,1.1,4.8c0.1,0.4,0.1,0.6,0.1,0.6c0,0.1,0.1,0.1,0.2,0.1h1.1c0.2,0,0.3-0.2,0.3-0.5v-7.9
		C301.2,61.9,301,61.7,300.7,61.7z"/>
	<path class="st0" d="M340.6,61.7h-13.8c-0.2,0-0.3,0.1-0.3,0.4v1c0,0.2,0.3,0.3,0.8,0.3c1.2,0,2.1,0.1,2.7,0.2c0.6,0.2,1,0.5,1.1,1
		c0.3,0.8,0.4,2.3,0.4,4.6v6.4h-16.9v-5.1c0-1.8,0.1-3.3,0.2-4.4c0.1-1.1,0.3-1.9,0.6-2.2c0.3-0.4,1.5-0.6,3.7-0.6
		c0.4,0,0.6-0.2,0.6-0.5V62c0-0.2-0.1-0.3-0.4-0.3h-13.9c-0.3,0-0.4,0-0.4,0.1c0,0.1-0.1,0.2-0.1,0.3v0.8c0,0.2,0.1,0.3,0.2,0.4
		c0.1,0.1,0.4,0.1,0.8,0.1c1.4,0,2.4,0.1,2.9,0.2s0.8,0.5,0.9,0.9c0.2,0.8,0.4,3,0.4,6.8v16.3c0,1.3-0.1,2.4-0.4,3.2
		c-0.1,0.4-0.2,0.6-0.4,0.8c-0.1,0.1-0.5,0.3-1,0.3s-1.5,0.1-2.8,0.1c-0.3,0-0.5,0.1-0.5,0.4v1c0,0.2,0.1,0.3,0.2,0.3h14.3
		c0.2,0,0.3-0.1,0.3-0.4v-0.9c0-0.3-0.2-0.5-0.5-0.5c-0.1,0-0.2,0-0.2,0c-0.9,0-1.6,0-2.2-0.1s-1-0.2-1.2-0.3
		c-0.6-0.4-0.9-2.5-0.9-6.4v-7h16.9v7.6c0,2.2-0.1,3.8-0.2,4.8c-0.1,0.3-0.1,0.6-0.2,0.7c-0.1,0.2-0.4,0.4-0.9,0.6
		c-0.5,0.1-1.5,0.2-3.2,0.2c-0.3,0-0.5,0.1-0.5,0.4v1.1c0,0.1,0.1,0.2,0.3,0.2h14c0.3,0,0.4-0.2,0.4-0.5v-0.9c0-0.2-0.3-0.3-0.8-0.3
		c-0.7,0-1.4,0-1.9-0.1c-0.5-0.1-1-0.2-1.2-0.3c-0.3-0.1-0.5-0.5-0.7-1c-0.3-1-0.4-1.9-0.4-2.8V69.7c0-1.7,0.1-3,0.2-3.9
		c0.1-0.9,0.3-1.6,0.6-1.8c0.4-0.4,1.6-0.6,3.6-0.6c0.5,0,0.7-0.1,0.7-0.4V62C341.3,61.8,341.1,61.7,340.6,61.7z"/>
	<path class="st0" d="M370.9,86h-1.1c-0.2,0-0.3,0.2-0.3,0.7c0,0.9,0,1.7-0.1,2.3s-0.2,1.2-0.4,1.5c-0.2,0.3-0.6,0.6-1.2,0.8
		c-1.2,0.3-3.1,0.5-5.6,0.5h-7.5c-0.1-2.2-0.2-4.4-0.2-6.6v-7h9.4c1.4,0,2.3,0.3,2.8,0.8s0.7,1.6,0.7,3.1c0,0.4,0.1,0.6,0.3,0.6h1
		c0.3,0,0.4-0.2,0.4-0.5V72c0-0.4-0.1-0.5-0.4-0.5h-0.9c-0.3,0-0.5,0.3-0.5,0.9c0,1.6-0.3,2.6-0.8,3.1c-0.5,0.5-1.6,0.7-3.3,0.7
		h-8.7v-8l0.1-2.2l0.1-2.2h11.3c1,0,1.8,0.3,2.2,0.8c0.4,0.6,0.6,1.7,0.6,3.5c0,0.4,0.1,0.5,0.4,0.5h1.1c0.2,0,0.2-0.2,0.2-0.6v-5.8
		c0-0.3-0.2-0.5-0.6-0.5h-24.5c-0.4,0-0.6,0.1-0.6,0.3v1.1c0,0.2,0.3,0.3,0.8,0.3c1.7,0,2.8,0.3,3.4,0.8c0.6,0.5,0.8,1.9,0.8,4.2
		v15.8c0,2.7-0.1,4.7-0.4,5.9c-0.1,0.6-0.2,1-0.4,1.2c-0.2,0.2-0.6,0.4-1.3,0.5c-0.7,0.2-1.5,0.2-2.4,0.2c-0.4,0-0.6,0.1-0.6,0.3v1
		c0,0.3,0.1,0.4,0.3,0.4h25.8c0.2,0,0.3-0.1,0.3-0.3v-7.1C371.2,86.1,371.1,86,370.9,86z"/>
	<path class="st0" d="M410.6,92h-0.7c-0.4,0-0.8-0.2-1.2-0.5c-0.4-0.3-0.8-0.8-1.2-1.6c-0.4-0.8-1.7-3.4-3.7-7.7l-9.2-21.1h-2.1
		l-12.3,26.4c-1.4,3-2.8,4.5-4,4.5h-0.7c-0.2,0-0.4,0.1-0.4,0.4v0.8c0,0.3,0.1,0.5,0.2,0.5h10.7c0.2,0,0.3-0.1,0.3-0.4v-0.8
		c0-0.3-0.2-0.5-0.5-0.5h-1.2c-1.5,0-2.3-0.6-2.3-1.7c0-0.4,0.1-0.8,0.3-1.3l2.3-5.5h14.1l1.9,4.8c0.3,0.8,0.5,1.5,0.5,2
		c0,1.1-0.8,1.7-2.4,1.7h-1.3c-0.3,0-0.4,0.1-0.4,0.4v0.8c0,0.3,0.1,0.5,0.4,0.5h12.6c0,0,0.1,0,0.2-0.1c0.1,0,0.1,0,0.1,0l0.2-0.2
		v-1.1C411.1,92.1,410.9,92,410.6,92z M386,81.5l6.3-14.4l6.1,14.4H386z"/>
	<path class="st0" d="M441.4,61.7h-28.1c-0.3,0-0.4,0.2-0.4,0.7v7.9c0,0.2,0.1,0.3,0.3,0.3h0.9c0.3,0,0.4-0.3,0.5-1
		c0.2-1.4,0.4-2.5,0.6-3.3c0.2-0.7,0.5-1.3,0.8-1.6c0.3-0.3,0.9-0.4,1.7-0.4h7.4v20.4c0,2.2-0.2,3.9-0.5,5.3
		c-0.2,0.7-0.4,1.2-0.6,1.4s-0.7,0.4-1.3,0.5s-1.6,0.1-2.9,0.1c-0.3,0-0.5,0.1-0.5,0.4v0.9c0,0.3,0.1,0.4,0.4,0.4h15.3
		c0.2,0,0.3-0.1,0.3-0.3v-1.2c0-0.2-0.2-0.3-0.7-0.3c-1.4,0-2.3-0.1-2.9-0.2c-0.6-0.1-1-0.3-1.3-0.5c-0.5-0.5-0.7-3.2-0.7-8.2V64.3
		h7.3c1,0,1.7,0.3,2,0.8c0.3,0.5,0.7,2.1,1.1,4.8c0.1,0.4,0.1,0.6,0.1,0.6c0,0.1,0.1,0.1,0.2,0.1h1.1c0.2,0,0.3-0.2,0.3-0.5v-7.9
		C441.9,61.9,441.7,61.7,441.4,61.7z"/>
	<path class="st0" d="M471.4,86h-1.1c-0.2,0-0.3,0.2-0.3,0.7c0,0.9,0,1.7-0.1,2.3s-0.2,1.2-0.4,1.5c-0.2,0.3-0.6,0.6-1.2,0.8
		c-1.2,0.3-3.1,0.5-5.6,0.5h-7.5c-0.1-2.2-0.2-4.4-0.2-6.6v-7h9.4c1.4,0,2.3,0.3,2.8,0.8s0.7,1.6,0.7,3.1c0,0.4,0.1,0.6,0.3,0.6h1
		c0.3,0,0.4-0.2,0.4-0.5V72c0-0.4-0.1-0.5-0.4-0.5h-0.9c-0.3,0-0.5,0.3-0.5,0.9c0,1.6-0.3,2.6-0.8,3.1c-0.5,0.5-1.6,0.7-3.3,0.7H455
		v-8l0.1-2.2l0.1-2.2h11.3c1,0,1.8,0.3,2.2,0.8c0.4,0.6,0.6,1.7,0.6,3.5c0,0.4,0.1,0.5,0.4,0.5h1.1c0.2,0,0.2-0.2,0.2-0.6v-5.8
		c0-0.3-0.2-0.5-0.6-0.5h-24.5c-0.4,0-0.6,0.1-0.6,0.3v1.1c0,0.2,0.3,0.3,0.8,0.3c1.7,0,2.8,0.3,3.4,0.8c0.6,0.5,0.8,1.9,0.8,4.2
		v15.8c0,2.7-0.1,4.7-0.4,5.9c-0.1,0.6-0.2,1-0.4,1.2c-0.2,0.2-0.6,0.4-1.3,0.5c-0.7,0.2-1.5,0.2-2.4,0.2c-0.4,0-0.6,0.1-0.6,0.3v1
		c0,0.3,0.1,0.4,0.3,0.4h25.8c0.2,0,0.3-0.1,0.3-0.3v-7.1C471.7,86.1,471.6,86,471.4,86z"/>
	<path class="st0" d="M505,91.9c-0.7-0.1-1.1-0.2-1.5-0.5c-0.6-0.4-1.8-2-3.8-4.9c-2-2.9-4-6-6.1-9.3c2.3-0.6,4.1-1.6,5.4-3
		c1.3-1.4,1.9-3,1.9-4.9c0-1.4-0.4-2.7-1.2-4c-0.8-1.3-2-2.2-3.6-2.8c-1.5-0.6-3.2-0.9-4.9-0.9h-15.3c-0.3,0-0.5,0.1-0.5,0.3v0.8
		c0,0.4,0.3,0.6,0.9,0.6c1.2,0,2.1,0.1,2.5,0.2c0.5,0.2,0.8,0.7,0.9,1.6c0.1,0.9,0.2,2.7,0.2,5.3v13.5c0,1.8,0,3.3-0.1,4.6
		c-0.1,1.3-0.2,2.2-0.3,2.6c-0.2,0.5-1.2,0.7-3.1,0.7c-0.6,0-1,0.2-1,0.6v0.9c0,0.2,0.1,0.3,0.4,0.3h13.4c0.3,0,0.5-0.1,0.5-0.3
		v-1.1c0-0.2-0.2-0.4-0.6-0.4c-1.1,0-2,0-2.6-0.1s-1-0.2-1.2-0.3c-0.5-0.3-0.7-2.4-0.7-6.3v-7.1h2l2.4-0.2
		c4.5,6.7,7.5,11.7,8.9,14.8c0.3,0.7,0.5,1,0.8,1h6.7c0.3,0,0.5-0.1,0.5-0.4v-0.9C505.7,92.2,505.5,92,505,91.9z M485.1,76.4h-0.6
		V63.5l2.9-0.1c2.2,0,3.9,0.2,5,0.6c1.1,0.4,1.9,1.1,2.4,2.1c0.5,1,0.8,2.1,0.8,3.3c0,2.3-0.9,4-2.6,5.1
		C491.4,75.8,488.7,76.4,485.1,76.4z"/>
</g>
</svg>
