<?xml version="1.0" encoding="utf-8"?>
<!-- Generator: Adobe Illustrator 22.1.0, SVG Export Plug-In . SVG Version: 6.00 Build 0)  -->
<svg version="1.1" id="Laag_1" xmlns="http://www.w3.org/2000/svg" xmlns:xlink="http://www.w3.org/1999/xlink" x="0px" y="0px"
	 width="1162.1px" height="144.8px" viewBox="0 0 1162.1 144.8" style="enable-background:new 0 0 1162.1 144.8;"
	 xml:space="preserve">
<style type="text/css">
	.st0{fill:#FFFFFF;}
</style>
<g>
	<path class="st0" d="M51.7,94.4l-4.6,15.5H3.5v-2.4l31.5-42c2.7-3.7,3.9-7.6,3.6-11.7c-0.3-4.2-1.6-7.8-3.9-10.9
		c-2.5-3.3-5.8-4.7-9.8-4.5c-3.3,0.3-5.9,1.9-7.9,4.9c-1.8,2.6-2.6,5.6-2.5,8.9c0.1,2.9,0.9,5.3,2.4,7.1c1.8,2,4.2,2.9,7.2,2.6v2.6
		c-1.9,0.5-3.6,0.8-5.3,0.8c-4,0-7.3-1.2-9.9-3.5c-2.9-2.5-4.3-5.8-4.3-9.8c-0.1-5.4,1.9-9.7,6.1-12.8c3.8-2.9,8.6-4.4,14.3-4.3
		c6.3,0.1,11.5,1.8,15.6,5.1c4.1,3.3,6.6,8,7.6,13.9c0.2,1,0.3,1.9,0.3,2.9c0,4.2-1.6,8.3-4.8,12.5l-26.6,34.9h16.9
		c3.6,0,6.7-0.9,9.5-2.7c2.7-1.8,4.5-4.1,5.4-7.1H51.7z"/>
	<path class="st0" d="M102.9,82.6c0.1,7.1-1.5,13.4-4.8,18.8c-3.8,6.3-9,9.5-15.8,9.5c-7.1,0-12.8-3.1-17.2-9.4
		c-3.7-5.3-5.7-11.8-6-19.5c-0.4-11.4,2.5-22,8.7-31.7c7-11,15.9-16.1,26.8-15.4l-0.3,1.9c-5.7,0.1-10.6,2.8-14.9,8
		c-3.7,4.6-6,10-6.9,16.2c2.8-2.6,6.1-3.9,10-4c6.4-0.2,11.5,2.5,15.3,8.1C101.1,69.8,102.8,75.6,102.9,82.6z M93.3,82.2
		c-0.2-6.2-1.3-11.3-3.3-15.3c-2.3-4.7-5.3-7-9.2-6.8c-3.8,0.1-6.8,2.4-9,6.9c-1.9,4.2-2.8,9.3-2.7,15.2c0.1,6.5,1.2,12.2,3.5,17.1
		c2.4,5.4,5.5,8.2,9.4,8.3c3.6,0.1,6.5-2.6,8.7-8.1C92.4,94.6,93.3,88.8,93.3,82.2z"/>
	<path class="st0" d="M200.6,37.6c-1.5-0.1-2.8,0.4-3.9,1.5c-1.1,1-1.6,2.3-1.6,3.8v44c0,7.8-1.7,13.7-5.2,17.7
		c-3.6,4.2-9.3,6.3-17,6.3c-6.5,0.1-11.7-1.7-15.5-5.6V88.7h2c-0.5,4.3,0.6,8.1,3,11.5c2.7,3.5,6.1,5.3,10.2,5.3c5,0,8.4-2,10.2-5.9
		c1.3-2.9,2-7.2,2-12.9V42.9c0-1.5-0.6-2.8-1.7-3.8c-1.1-1-2.4-1.5-3.9-1.5v-1.9h21.2V37.6z"/>
	<path class="st0" d="M286,109.9h-21.4v-1.9c2.5,0.1,3.7-1,3.7-3.3c0-1.1-0.3-2.2-0.9-3.4l-9.2-19.1h-31.2l-8.7,19.1
		c-0.5,1.4-0.8,2.5-0.8,3.5c0,2.3,1.2,3.4,3.7,3.2v1.9h-16.7v-1.9c1.4,0.1,2.8-0.5,4.3-1.6c1.5-1.1,2.6-2.4,3.2-3.8l27.5-59.3
		c-0.7-1.6-1.9-2.9-3.6-4.1c-1.7-1.2-3.3-1.7-4.8-1.7v-1.9h15.8l31.3,66.9c0.8,1.5,1.9,2.8,3.4,3.9c1.5,1.1,2.9,1.6,4.2,1.5V109.9z
		 M256.2,77.9l-14-29.2L229,77.9H256.2z"/>
	<path class="st0" d="M354.9,37.6c-1.5-0.1-2.8,0.4-3.9,1.5c-1.1,1.1-1.7,2.4-1.7,3.9v67.7l-47.9-57.2v49.2c0,1.5,0.5,2.8,1.6,3.9
		s2.4,1.6,3.9,1.5v1.9h-16.4v-1.9c1.5,0.1,2.8-0.4,3.9-1.5c1.1-1.1,1.7-2.4,1.7-3.9V47.1l-5.1-6.2c-2-2-4.3-3.1-6.9-3.2v-1.9h14.5
		l45.4,54.5V43c0-1.5-0.6-2.8-1.7-3.9c-1.1-1.1-2.4-1.6-3.9-1.5v-1.9h16.4V37.6z"/>
	<path class="st0" d="M486.4,76.1h-77v-6.4h77V76.1z"/>
	<path class="st0" d="M598.2,46c6.3,7.5,9.4,16.4,9.4,26.8c0,10.4-3.1,19.3-9.4,26.8c-6.3,7.5-13.9,11.2-23,11.2s-16.7-3.7-23-11.2
		c-6.3-7.5-9.4-16.4-9.4-26.8c0-10.4,3.1-19.3,9.4-26.8c6.3-7.5,13.9-11.2,23-11.2S591.9,38.5,598.2,46z M596.1,72.8
		c0-9.5-2-17.5-5.9-24.1c-4-6.9-8.9-10.3-14.9-10.3c-5.9,0-10.9,3.4-15,10.3c-3.9,6.6-5.9,14.7-5.9,24.1c0,9.4,2,17.5,5.9,24.1
		c4.1,6.9,9.1,10.3,15,10.3c6,0,11-3.4,14.9-10.3C594.1,90.4,596.1,82.3,596.1,72.8z"/>
	<path class="st0" d="M659.4,90.4c-0.3,5.9-2.7,10.7-7.2,14.4c-4.2,3.8-9.3,5.8-15.1,6.1c-9,0.5-15.9-2.6-20.7-9.4l3-1
		c3,4.2,7.2,6.2,12.8,6.2c1.6,0,3-0.1,4.4-0.4c3.8-1.2,6.8-3.4,9.2-6.7c2-3,3.2-6.3,3.5-9.8c0.3-5.9-1.8-10.4-6.2-13.4
		c-3.6-2.6-8.5-3.9-14.6-3.9c-1.6,0-3.2,0.1-4.9,0.3l5-37.1h21.7c1.8,0,3-0.2,3.7-0.6c1-0.6,1.8-2,2.5-4.3h2.6l-3.3,10.5h-17.9
		L634,69c7.5-0.4,13.7,1.5,18.6,5.6C657.4,78.8,659.7,84,659.4,90.4z"/>
	<path class="st0" d="M799.8,109.9h-21.4v-1.9c1.6,0.1,2.9-0.4,4-1.5c1.1-1.1,1.6-2.4,1.5-3.9l-3.7-54.5l-22.9,62.5l-25.6-57.2
		l-1.3,49.2c-0.1,1.5,0.5,2.8,1.6,3.9c1.1,1.1,2.5,1.6,4,1.5v1.9h-16.4v-1.9c1.5,0.1,2.8-0.4,3.9-1.5c1.1-1.1,1.6-2.4,1.6-3.9
		l1.3-54c0.1-3.1-1.1-5.6-3.5-7.8c-2.4-2.1-5.2-3.2-8.5-3.3v-1.9h18.2l26.8,54.5l20.2-54.5h16.8v1.9c-4.4,0.1-6.8,2.8-7,8l3.7,57.1
		c0.1,1.5,0.8,2.8,2.2,3.9c1.4,1.1,2.9,1.6,4.5,1.5V109.9z"/>
	<path class="st0" d="M862.6,96.2l-6,13.8h-48v-1.9c1.5,0.1,2.8-0.4,3.9-1.5c1.1-1.1,1.7-2.4,1.7-3.9V43c0-1.5-0.6-2.8-1.7-3.9
		c-1.1-1.1-2.4-1.6-3.9-1.5v-1.9h47v17.1h-2V49c0-4.9-2.6-7.4-7.8-7.4h-21.4v28h16.4c5.2,0,7.8-2.6,7.8-7.8h2.1v20.4h-2.1
		c0-5.2-2.6-7.8-7.8-7.8h-16.4V104h24.4c3.4,0,6-0.7,7.6-2c0.9-0.7,2.3-2.7,4.2-5.9H862.6z"/>
	<path class="st0" d="M892.7,109.9h-21.4v-1.9c1.5,0.1,2.8-0.4,3.9-1.5c1.1-1.1,1.7-2.4,1.7-3.9V43c0-1.5-0.6-2.8-1.7-3.9
		c-1.1-1.1-2.4-1.6-3.9-1.5v-1.9h21.4v1.9c-1.5-0.1-2.8,0.4-3.9,1.5c-1.1,1.1-1.7,2.4-1.7,3.9v59.7c0,1.5,0.6,2.8,1.7,3.9
		c1.1,1.1,2.4,1.6,3.9,1.5V109.9z"/>
	<path class="st0" d="M999.4,94.4l-4.6,15.5h-43.6v-2.4l31.5-42c2.7-3.7,3.9-7.6,3.6-11.7c-0.3-4.2-1.6-7.8-3.9-10.9
		c-2.5-3.3-5.8-4.7-9.8-4.5c-3.3,0.3-5.9,1.9-7.9,4.9c-1.8,2.6-2.6,5.6-2.5,8.9c0.1,2.9,0.9,5.3,2.4,7.1c1.8,2,4.2,2.9,7.2,2.6v2.6
		c-1.9,0.5-3.6,0.8-5.3,0.8c-4,0-7.3-1.2-9.9-3.5c-2.9-2.5-4.3-5.8-4.3-9.8c-0.1-5.4,1.9-9.7,6.1-12.8c3.8-2.9,8.6-4.4,14.3-4.3
		c6.3,0.1,11.5,1.8,15.6,5.1c4.1,3.3,6.6,8,7.6,13.9c0.2,1,0.3,1.9,0.3,2.9c0,4.2-1.6,8.3-4.8,12.5l-26.6,34.9h16.9
		c3.6,0,6.7-0.9,9.5-2.7c2.7-1.8,4.5-4.1,5.4-7.1H999.4z"/>
	<path class="st0" d="M1063.5,46c6.3,7.5,9.4,16.4,9.4,26.8c0,10.4-3.1,19.3-9.4,26.8c-6.3,7.5-13.9,11.2-23,11.2
		c-9,0-16.7-3.7-23-11.2c-6.3-7.5-9.4-16.4-9.4-26.8c0-10.4,3.1-19.3,9.4-26.8c6.3-7.5,13.9-11.2,23-11.2
		C1049.6,34.8,1057.2,38.5,1063.5,46z M1061.4,72.8c0-9.5-2-17.5-5.9-24.1c-4-6.9-8.9-10.3-14.9-10.3c-5.9,0-10.9,3.4-15,10.3
		c-3.9,6.6-5.9,14.7-5.9,24.1c0,9.4,2,17.5,5.9,24.1c4.1,6.9,9.1,10.3,15,10.3c6,0,11-3.4,14.9-10.3
		C1059.4,90.4,1061.4,82.3,1061.4,72.8z"/>
	<path class="st0" d="M1106.3,109.9h-21.4v-1.9c1.5,0.1,2.8-0.4,3.9-1.5s1.7-2.4,1.7-3.9V43c0-1.4-0.9-2.1-2.6-2.1
		c-0.1,0-0.8,0.1-2.1,0.2c-1.3,0.1-2,0.2-2,0.2v-1.9c5.3-0.8,11-2.1,17.1-3.7v66.9c0,1.5,0.6,2.8,1.7,3.9s2.4,1.6,3.9,1.5V109.9z"/>
	<path class="st0" d="M1114.2,57c-0.1-7.1,1.7-12.6,5.2-16.5s8.6-5.8,15.4-5.8c7.2,0,12.9,3.1,17.2,9.4c3.9,5.7,6,12.2,6.2,19.5
		c0.3,6-0.2,11.7-1.4,17.2c-1.2,5.5-3,10.5-5.5,15c-2.5,4.5-5.9,8.1-10.1,10.8c-4.3,2.7-9.1,4-14.6,4c-5.3,0-9.7-1.4-13-4.2v-3.2
		c3.4,2.5,7.8,3.7,13.3,3.7c3.3,0,6.2-0.8,8.8-2.5s4.5-3.8,6-6.3c1.5-2.5,2.7-5.5,3.6-9c0.9-3.5,1.6-6.8,1.9-10
		c0.3-3.2,0.5-6.5,0.5-9.9c-0.9,2.4-2.6,4.5-5.2,6.2c-2.6,1.7-5.9,2.6-10,2.6c-5.8,0-10.2-2-13.4-5.9
		C1115.9,68.2,1114.3,63.2,1114.2,57z M1123.8,57.4c0.6,11.7,4.1,17.6,10.5,17.6c3,0,5.6-1.1,7.8-3.2c2.2-2.1,3.8-4.6,4.7-7.3
		c0.9-2.7,1.3-5.3,1.2-7.8c-0.2-5.2-1.6-9.6-4.1-13.2c-2.6-3.6-5.5-5.4-8.7-5.4c-4,0-7,1.8-8.9,5.3
		C1124.3,47,1123.5,51.6,1123.8,57.4z"/>
</g>
</svg>
