<?xml version="1.0" encoding="utf-8"?>
<!-- Generator: Adobe Illustrator 23.0.2, SVG Export Plug-In . SVG Version: 6.00 Build 0)  -->
<svg version="1.1" id="Laag_1" xmlns="http://www.w3.org/2000/svg" xmlns:xlink="http://www.w3.org/1999/xlink" x="0px" y="0px"
	 width="93.3px" height="12.1px" viewBox="0 0 93.3 12.1" style="enable-background:new 0 0 93.3 12.1;" xml:space="preserve">
<style type="text/css">
	.st0{fill:#6CA8DC;}
</style>
<g>
	<path class="st0" d="M13.9,9.8h-4V2.3h3.9v0.8h-2.9v2.4h2.7v0.8h-2.7V9h3V9.8z"/>
	<path class="st0" d="M19.6,2.3h0.9v7.6h-1.3l-3-6.6h0v6.6h-0.9V2.3h1.4l3,6.5h0V2.3z"/>
	<path class="st0" d="M21.5,2.3h5v0.8h-2v6.7h-1V3.1h-2V2.3z"/>
	<path class="st0" d="M27.5,9.8V2.3h2.3c1,0,1.7,0.4,2,1.2c0.2,0.5,0.3,1.3,0.3,2.4c0,1.5-0.2,2.6-0.5,3.1c-0.4,0.7-1.2,1-2.5,1
		H27.5z M28.4,3.1V9h0.9c0.7,0,1.2-0.2,1.4-0.5c0.3-0.3,0.4-0.9,0.4-1.8V5.2c0-0.8-0.1-1.3-0.4-1.6s-0.6-0.5-1.1-0.5H28.4z"/>
	<path class="st0" d="M37.8,9.8h-4V2.3h3.9v0.8h-2.9v2.4h2.7v0.8h-2.7V9h3V9.8z"/>
	<path class="st0" d="M43.5,4.3h-1c0-0.5-0.1-0.9-0.2-1.1C42.2,3.1,42,3.1,41.9,3c-0.2-0.1-0.3-0.1-0.5-0.1c-0.2,0-0.5,0-0.6,0.1
		c-0.2,0.1-0.3,0.2-0.4,0.3c-0.1,0.1-0.1,0.1-0.1,0.2c0,0,0,0,0,0.1s0,0.1,0,0.1c0,0,0,0.1,0,0.2c0,0.1,0,0.2,0,0.3
		c0,0.1,0,0.2,0,0.4c0,0.2,0,0.4,0,0.6v2c0,0.4,0,0.8,0.1,1.1c0.1,0.3,0.2,0.5,0.3,0.6c0.1,0.1,0.3,0.2,0.4,0.3
		c0.1,0,0.3,0.1,0.5,0.1c0.1,0,0.2,0,0.3,0c0.1,0,0.2-0.1,0.4-0.2c0.1-0.1,0.3-0.3,0.4-0.5c0.1-0.2,0.1-0.5,0.1-0.9h1
		c0,0.3,0,0.6-0.1,0.9c-0.1,0.3-0.1,0.5-0.2,0.6c-0.1,0.2-0.2,0.3-0.4,0.4s-0.3,0.2-0.4,0.3c-0.1,0.1-0.3,0.1-0.4,0.1
		c-0.2,0-0.3,0-0.4,0.1s-0.2,0-0.3,0c-0.2,0-0.3,0-0.4,0c-0.1,0-0.3,0-0.4-0.1s-0.3-0.1-0.5-0.2c-0.1-0.1-0.3-0.2-0.4-0.3
		c-0.1-0.1-0.3-0.3-0.3-0.5c-0.1-0.2-0.2-0.5-0.2-0.8S39,7.4,39,7V4.9c0-1,0.2-1.7,0.6-2.1c0.4-0.4,1-0.6,1.8-0.6
		c0.7,0,1.3,0.2,1.6,0.6C43.4,3,43.5,3.6,43.5,4.3z"/>
	<path class="st0" d="M45.9,9.8h-1V2.3h1v3.3h0l2.6-3.3h1.1L47,5.7l2.9,4.2h-1.2l-2.7-4h0V9.8z"/>
	<path class="st0" d="M54.8,9.8h-4V2.3h3.9v0.8h-2.9v2.4h2.7v0.8h-2.7V9h3V9.8z"/>
	<path class="st0" d="M59.3,3.1v6.7h-0.9V2.3H60l1.9,6.4h0l1.9-6.4h1.6v7.6h-1V3.1h0l-2.1,6.7h-0.9L59.3,3.1L59.3,3.1z"/>
	<path class="st0" d="M71.1,9.8h-4V2.3h3.9v0.8h-2.9v2.4h2.7v0.8h-2.7V9h3V9.8z"/>
	<path class="st0" d="M73.4,9.8h-1V2.3h1v3.3h2.7V2.3h1v7.6h-1V6.4h-2.7V9.8z"/>
	<path class="st0" d="M80.9,6.4h-1.1v3.5h-1V2.3h2.6c0.6,0,1.1,0.2,1.4,0.5c0.3,0.4,0.4,0.8,0.4,1.3c0,0.5-0.1,0.8-0.4,1.2
		c-0.2,0.3-0.6,0.5-1,0.6v0c0.5,0.1,0.8,0.2,0.9,0.5c0.2,0.2,0.3,0.7,0.3,1.5c0,0.2,0,0.6,0.1,1s0.1,0.8,0.2,1h-1
		c-0.1-0.2-0.1-0.4-0.2-0.6s-0.1-0.6-0.1-1s0-0.7,0-0.9C82,6.7,81.6,6.4,80.9,6.4z M79.8,3.1v2.4h1.5c0.3,0,0.6-0.1,0.8-0.4
		c0.2-0.2,0.3-0.5,0.3-0.9c0-0.3-0.1-0.6-0.3-0.8c-0.2-0.2-0.4-0.3-0.8-0.3H79.8z"/>
</g>
</svg>
