<?xml version="1.0" encoding="utf-8"?>
<!-- Generator: Adobe Illustrator 24.0.0, SVG Export Plug-In . SVG Version: 6.00 Build 0)  -->
<svg version="1.1" id="Laag_1" xmlns="http://www.w3.org/2000/svg" xmlns:xlink="http://www.w3.org/1999/xlink" x="0px" y="0px"
	 width="247.9px" height="33px" viewBox="0 0 247.9 33" style="enable-background:new 0 0 247.9 33;" xml:space="preserve">
<style type="text/css">
	.st0{fill:#EE2D29;}
	.st1{clip-path:url(#SVGID_2_);fill:#EE2D29;}
	.st2{clip-path:url(#SVGID_4_);fill:#EE2D29;}
	.st3{clip-path:url(#SVGID_6_);fill:#EE2D29;}
</style>
<polygon class="st0" points="11.5,0.5 11.5,20 11.4,20 4.4,0.5 0,0.5 0,32.8 4.6,32.8 4.6,13.4 4.7,13.4 11.8,32.8 16.1,32.8 
	16.1,0.5 "/>
<path class="st0" d="M27.3,9.8L27.3,9.8l2.4,11.7H25L27.3,9.8z M25.4,0.5l-7.2,32.2h4.6l1.4-6.9h6.3l1.4,6.9h4.6L29.2,0.5H25.4z"/>
<polygon class="st0" points="37.7,0.5 37.7,4.9 45.9,4.9 37.2,28.7 37.2,32.8 50.9,32.8 50.9,28.4 42.1,28.4 50.9,4.2 50.9,0.5 "/>
<rect x="53.9" y="0.5" class="st0" width="4.6" height="32.2"/>
<g>
	<defs>
		<rect id="SVGID_1_" y="0.3" width="247.9" height="32.8"/>
	</defs>
	<clipPath id="SVGID_2_">
		<use xlink:href="#SVGID_1_"  style="overflow:visible;"/>
	</clipPath>
	<path class="st1" d="M67.6,4.9v11h2.2c0.9,0,1.7-0.1,2.2-0.4c0.5-0.3,0.9-0.6,1.1-1.1c0.2-0.5,0.4-1,0.4-1.7c0-0.7,0.1-1.4,0.1-2.2
		c0-0.8,0-1.5,0-2.1c0-0.7-0.2-1.3-0.4-1.8C73,6,72.6,5.6,72.1,5.3C71.6,5,70.9,4.9,70,4.9H67.6z M63,32.8V0.5h6.9
		c1.3,0,2.4,0.2,3.3,0.5c1,0.3,1.8,0.9,2.6,1.8c0.8,0.8,1.3,1.8,1.6,3c0.3,1.1,0.5,2.7,0.5,4.6c0,1.4-0.1,2.7-0.2,3.7
		c-0.2,1-0.5,1.9-1.1,2.8c-0.6,1.1-1.5,1.9-2.5,2.5c-1.1,0.6-2.4,0.9-4.2,0.9h-2.4v12.6H63z"/>
	<path class="st1" d="M86,4.9v10.1h2.6c0.8,0,1.5-0.1,1.9-0.3c0.5-0.2,0.9-0.6,1.1-1c0.2-0.4,0.4-0.9,0.5-1.6
		c0.1-0.6,0.1-1.3,0.1-2.1s0-1.5-0.1-2.1c-0.1-0.6-0.3-1.2-0.5-1.6c-0.6-0.8-1.7-1.3-3.3-1.3H86z M81.4,32.8V0.5h7.4
		c5.4,0,8.1,3.2,8.1,9.5c0,1.9-0.3,3.5-0.9,4.8c-0.6,1.3-1.6,2.4-3.1,3.2l5,14.7h-4.9L88.8,19H86v13.8H81.4z"/>
	<path class="st1" d="M105.1,25.2c0,1.1,0.3,1.9,0.9,2.5c0.6,0.5,1.3,0.8,2.2,0.8s1.6-0.3,2.2-0.8c0.6-0.5,0.9-1.4,0.9-2.5v-17
		c0-1.1-0.3-1.9-0.9-2.5c-0.6-0.5-1.4-0.8-2.2-0.8s-1.6,0.3-2.2,0.8c-0.6,0.5-0.9,1.4-0.9,2.5V25.2z M100.4,8.1
		c0-1.3,0.2-2.4,0.7-3.4c0.5-1,1.1-1.8,1.8-2.5c0.7-0.6,1.5-1.1,2.5-1.4c0.9-0.3,1.8-0.5,2.8-0.5c0.9,0,1.9,0.2,2.8,0.5
		c0.9,0.3,1.8,0.8,2.5,1.4c0.7,0.7,1.3,1.5,1.8,2.5c0.5,1,0.7,2.1,0.7,3.4v17c0,1.4-0.2,2.5-0.7,3.5c-0.5,1-1,1.8-1.8,2.4
		c-0.8,0.7-1.6,1.2-2.5,1.5c-0.9,0.3-1.8,0.5-2.8,0.5c-0.9,0-1.9-0.2-2.8-0.5c-0.9-0.3-1.7-0.8-2.5-1.5c-0.8-0.6-1.4-1.4-1.8-2.4
		c-0.5-1-0.7-2.1-0.7-3.5V8.1z"/>
	<path class="st1" d="M124.6,4.9v11h2.2c0.9,0,1.7-0.1,2.2-0.4c0.5-0.3,0.9-0.6,1.1-1.1c0.2-0.5,0.4-1,0.4-1.7
		c0-0.7,0.1-1.4,0.1-2.2c0-0.8,0-1.5,0-2.1c0-0.7-0.2-1.3-0.4-1.8c-0.2-0.5-0.6-0.9-1.1-1.2c-0.5-0.3-1.2-0.4-2.1-0.4H124.6z
		 M120,32.8V0.5h6.9c1.3,0,2.4,0.2,3.3,0.5c1,0.3,1.8,0.9,2.6,1.8c0.8,0.8,1.3,1.8,1.6,3c0.3,1.1,0.5,2.7,0.5,4.6
		c0,1.4-0.1,2.7-0.2,3.7c-0.2,1-0.5,1.9-1.1,2.8c-0.6,1.1-1.5,1.9-2.5,2.5c-1.1,0.6-2.4,0.9-4.2,0.9h-2.4v12.6H120z"/>
</g>
<path class="st0" d="M143.7,9.8L143.7,9.8l2.4,11.7h-4.6L143.7,9.8z M141.9,0.5l-7.2,32.2h4.6l1.4-6.9h6.3l1.4,6.9h4.6l-7.2-32.2
	H141.9z"/>
<g>
	<defs>
		<rect id="SVGID_3_" y="0.3" width="247.9" height="32.8"/>
	</defs>
	<clipPath id="SVGID_4_">
		<use xlink:href="#SVGID_3_"  style="overflow:visible;"/>
	</clipPath>
	<path class="st2" d="M154.9,8.1c0-1.3,0.2-2.4,0.7-3.4c0.5-1,1.1-1.8,1.8-2.5c0.7-0.6,1.5-1.1,2.5-1.4c0.9-0.3,1.8-0.5,2.8-0.5
		c0.9,0,1.9,0.2,2.8,0.5c0.9,0.3,1.8,0.8,2.5,1.4c0.7,0.7,1.3,1.5,1.8,2.5c0.5,1,0.7,2.1,0.7,3.4v1.6h-4.6V8.1
		c0-1.1-0.3-1.9-0.9-2.5c-0.6-0.5-1.4-0.8-2.2-0.8c-0.8,0-1.6,0.3-2.2,0.8c-0.6,0.5-0.9,1.4-0.9,2.5v17c0,1.1,0.3,1.9,0.9,2.5
		c0.6,0.5,1.4,0.8,2.2,0.8c0.8,0,1.6-0.3,2.2-0.8c0.6-0.5,0.9-1.4,0.9-2.5v-6.1h-3.7V15h8.3v10.1c0,1.4-0.2,2.5-0.7,3.5
		c-0.5,1-1,1.8-1.8,2.4c-0.8,0.7-1.6,1.2-2.5,1.5c-0.9,0.3-1.8,0.5-2.8,0.5c-0.9,0-1.9-0.2-2.8-0.5c-0.9-0.3-1.7-0.8-2.5-1.5
		c-0.8-0.6-1.4-1.4-1.8-2.4c-0.5-1-0.7-2.1-0.7-3.5V8.1z"/>
</g>
<path class="st0" d="M181.4,9.8L181.4,9.8l2.4,11.7h-4.6L181.4,9.8z M179.6,0.5l-7.2,32.2h4.6l1.4-6.9h6.3l1.4,6.9h4.6l-7.2-32.2
	H179.6z"/>
<polygon class="st0" points="204.2,0.5 204.2,20 204.1,20 197.1,0.5 192.7,0.5 192.7,32.8 197.3,32.8 197.3,13.4 197.4,13.4 
	204.5,32.8 208.8,32.8 208.8,0.5 "/>
<g>
	<defs>
		<rect id="SVGID_5_" y="0.3" width="247.9" height="32.8"/>
	</defs>
	<clipPath id="SVGID_6_">
		<use xlink:href="#SVGID_5_"  style="overflow:visible;"/>
	</clipPath>
	<path class="st3" d="M217.6,4.9v23.5h2.1c1.3,0,2.2-0.3,2.8-1c0.5-0.6,0.8-1.7,0.8-3.1V8.9c0-1.3-0.3-2.2-0.8-2.9
		c-0.5-0.7-1.4-1-2.8-1H217.6z M213,32.8V0.5h6.8c2.7,0,4.7,0.7,6,2.2c1.4,1.4,2.1,3.5,2.1,6.2v15.1c0,3-0.7,5.2-2.2,6.7
		c-1.5,1.4-3.6,2.2-6.3,2.2H213z"/>
</g>
<path class="st0" d="M238.7,9.8L238.7,9.8l2.4,11.7h-4.6L238.7,9.8z M236.8,0.5l-7.2,32.2h4.6l1.4-6.9h6.3l1.4,6.9h4.6l-7.2-32.2
	H236.8z"/>
</svg>
