<?xml version="1.0" encoding="utf-8"?>
<!-- Generator: Adobe Illustrator 24.3.0, SVG Export Plug-In . SVG Version: 6.00 Build 0)  -->
<svg version="1.1" id="Laag_1" xmlns="http://www.w3.org/2000/svg" xmlns:xlink="http://www.w3.org/1999/xlink" x="0px" y="0px"
	 width="224.4px" height="12px" viewBox="0 0 224.4 12" style="enable-background:new 0 0 224.4 12;" xml:space="preserve">
<style type="text/css">
	.st0{fill:#FFFFFF;}
</style>
<g>
	<path class="st0" d="M3.9,4.5h4v4.7H7.1l-0.2-1H6.8C6.1,9,5.1,9.4,4,9.4c-1.3,0-2.2-0.4-3-1.3C0.4,7.3,0,6.2,0,4.9
		c0-1.4,0.4-2.6,1.2-3.5C1.9,0.5,2.9,0,4.2,0c1.1,0,1.9,0.3,2.6,0.8c0.6,0.5,1,1.2,1.1,2.1H6.6C6.5,2.4,6.2,2,5.8,1.7
		C5.4,1.3,4.9,1.2,4.2,1.2c-0.9,0-1.6,0.3-2.2,1S1.2,3.8,1.2,4.8c0,1,0.3,1.8,0.8,2.5s1.3,1,2.2,1c0.5,0,1-0.1,1.4-0.3
		s0.8-0.5,1-0.8V5.5H3.9V4.5z"/>
	<path class="st0" d="M13.1,2.6h0.4v1.2c-0.1,0-0.3-0.1-0.5-0.1c-0.5,0-0.9,0.2-1.3,0.5c-0.3,0.4-0.5,0.9-0.5,1.6v3.4H10V2.8h0.9
		l0.2,0.9h0.1C11.7,3,12.3,2.6,13.1,2.6z"/>
	<path class="st0" d="M17.6,9.4c-1,0-1.7-0.3-2.4-1S14.3,7,14.3,6c0-1,0.3-1.8,0.9-2.4c0.6-0.6,1.4-1,2.4-1c1,0,1.7,0.3,2.4,1
		S20.9,5,20.9,6c0,1-0.3,1.8-0.9,2.4C19.4,9.1,18.6,9.4,17.6,9.4z M17.6,8.4c0.6,0,1.1-0.2,1.5-0.7s0.6-1,0.6-1.7
		c0-0.7-0.2-1.2-0.6-1.7c-0.4-0.5-0.9-0.7-1.5-0.7s-1.1,0.2-1.5,0.7c-0.4,0.5-0.6,1-0.6,1.7c0,0.7,0.2,1.2,0.6,1.7
		C16.5,8.1,17,8.4,17.6,8.4z"/>
	<path class="st0" d="M24.7,9.4c-0.7,0-1.3-0.2-1.7-0.7c-0.4-0.5-0.7-1.2-0.7-2V2.8h1.2v3.7c0,0.6,0.1,1.1,0.4,1.4
		c0.3,0.3,0.7,0.5,1.2,0.5c0.4,0,0.8-0.2,1.1-0.5c0.3-0.3,0.5-0.8,0.5-1.4V2.8h1.2v6.5H27l-0.2-0.8h-0.1C26.3,9.1,25.6,9.4,24.7,9.4
		z"/>
	<path class="st0" d="M32.8,2.6c0.7,0,1.3,0.2,1.7,0.7s0.7,1.2,0.7,2v3.9H34V5.6c0-0.6-0.1-1.1-0.4-1.4c-0.3-0.3-0.7-0.5-1.2-0.5
		c-0.4,0-0.8,0.2-1.1,0.5s-0.5,0.8-0.5,1.4v3.7h-1.2V2.8h0.9l0.2,0.8h0.1C31.3,2.9,31.9,2.6,32.8,2.6z"/>
	<path class="st0" d="M41.7,0h1.1v9.3H42l-0.2-0.9h-0.1c-0.5,0.7-1.2,1.1-2.1,1.1c-0.9,0-1.6-0.3-2.1-0.9C37,7.8,36.7,7,36.7,6
		c0-1,0.3-1.8,0.9-2.4c0.6-0.6,1.3-0.9,2.2-0.9c1,0,1.7,0.4,2,1.1V0z M38.4,7.7c0.4,0.4,0.8,0.7,1.4,0.7c0.6,0,1-0.2,1.4-0.6
		c0.4-0.4,0.5-1,0.5-1.7c0-0.7-0.2-1.3-0.5-1.7c-0.4-0.4-0.8-0.6-1.4-0.6c-0.6,0-1.1,0.2-1.4,0.7s-0.6,1-0.6,1.7S38,7.3,38.4,7.7z"
		/>
	<path class="st0" d="M47.9,2.6c0.9,0,1.6,0.3,2.2,0.9C50.6,4.2,50.9,5,50.9,6c0,1-0.3,1.8-0.8,2.4c-0.6,0.6-1.3,0.9-2.1,0.9
		c-0.9,0-1.6-0.4-2.1-1.1h-0.1l-0.2,0.9h-0.8V0h1.1v3.7C46.2,3,46.9,2.6,47.9,2.6z M46.3,7.7c0.4,0.4,0.8,0.6,1.4,0.6
		c0.6,0,1.1-0.2,1.4-0.7c0.4-0.4,0.6-1,0.6-1.7s-0.2-1.2-0.6-1.7c-0.4-0.4-0.8-0.7-1.4-0.7c-0.6,0-1,0.2-1.4,0.6
		c-0.4,0.4-0.5,1-0.5,1.7C45.8,6.7,46,7.3,46.3,7.7z"/>
	<path class="st0" d="M55.4,2.6h0.4v1.2c-0.1,0-0.3-0.1-0.5-0.1c-0.5,0-0.9,0.2-1.3,0.5c-0.3,0.4-0.5,0.9-0.5,1.6v3.4h-1.2V2.8h0.9
		l0.2,0.9h0.1C54,3,54.6,2.6,55.4,2.6z"/>
	<path class="st0" d="M59.7,2.6c0.9,0,1.7,0.3,2.2,0.9c0.6,0.6,0.8,1.5,0.7,2.7h-4.9c0,0.7,0.2,1.2,0.6,1.6c0.3,0.4,0.8,0.6,1.5,0.6
		c0.4,0,0.7-0.1,1-0.3c0.3-0.2,0.5-0.4,0.7-0.8h1.1c-0.2,0.6-0.5,1.1-1,1.5s-1.1,0.5-1.8,0.5c-1,0-1.8-0.3-2.3-0.9
		C56.9,7.8,56.6,7,56.6,6c0-1,0.3-1.8,0.9-2.4C58.1,2.9,58.8,2.6,59.7,2.6z M57.8,5.4h3.8c0-0.5-0.2-0.9-0.5-1.3
		c-0.3-0.3-0.8-0.5-1.3-0.5c-0.5,0-1,0.2-1.3,0.5S57.9,4.8,57.8,5.4z"/>
	<path class="st0" d="M69.2,7.7c0,0.2,0,0.4,0.1,0.5c0.1,0.1,0.2,0.1,0.5,0.1v0.9h-0.2c-0.7,0-1.1-0.3-1.3-0.9
		c-0.3,0.3-0.6,0.6-1,0.7c-0.4,0.2-0.8,0.3-1.3,0.3c-0.6,0-1.2-0.2-1.6-0.5c-0.4-0.3-0.6-0.8-0.6-1.4c0-0.6,0.3-1.2,0.8-1.5
		c0.5-0.4,1.2-0.6,2.2-0.6l1.2-0.1V5.2c0-0.5-0.1-0.9-0.4-1.2c-0.2-0.3-0.6-0.4-1-0.4c-0.4,0-0.8,0.1-1,0.4
		c-0.2,0.3-0.4,0.5-0.4,0.9h-1.1c0.1-0.6,0.3-1.2,0.8-1.6c0.5-0.4,1-0.6,1.8-0.6c0.7,0,1.3,0.2,1.8,0.7s0.7,1.1,0.7,1.9V7.7z
		 M66.3,8.4c0.5,0,0.9-0.2,1.3-0.5c0.4-0.3,0.6-0.8,0.6-1.3V6.2l-1.1,0.1c-0.6,0.1-1.1,0.2-1.4,0.4s-0.5,0.5-0.5,0.8
		c0,0.3,0.1,0.5,0.3,0.7C65.7,8.4,65.9,8.4,66.3,8.4z"/>
	<path class="st0" d="M76.5,2.8l-2.6,2.7l2.6,3.8h-1.3l-2.1-3l-0.9,0.9v2h-1.1V0h1.1v5.6h0.1l2.7-2.9H76.5z"/>
	<path class="st0" d="M79.1,1.5c-0.2,0.2-0.3,0.2-0.6,0.2S78.1,1.7,78,1.5c-0.2-0.2-0.2-0.3-0.2-0.6s0.1-0.4,0.2-0.6
		c0.2-0.2,0.3-0.2,0.6-0.2s0.4,0.1,0.6,0.2c0.2,0.2,0.2,0.3,0.2,0.6S79.2,1.4,79.1,1.5z M79.1,2.8v6.5h-1.2V2.8H79.1z"/>
	<path class="st0" d="M84.2,2.6c0.7,0,1.3,0.2,1.7,0.7c0.5,0.5,0.7,1.2,0.7,2v3.9h-1.2V5.6c0-0.6-0.1-1.1-0.4-1.4
		c-0.3-0.3-0.7-0.5-1.2-0.5c-0.4,0-0.8,0.2-1.1,0.5s-0.5,0.8-0.5,1.4v3.7H81V2.8h0.9l0.2,0.8h0.1C82.6,2.9,83.3,2.6,84.2,2.6z"/>
	<path class="st0" d="M93.9,3c-0.2,0.3-0.5,0.5-1,0.7c0.2,0.4,0.4,0.8,0.4,1.2c0,0.6-0.2,1.2-0.7,1.6c-0.5,0.4-1.1,0.6-1.8,0.6
		c-0.4,0-0.8-0.1-1.1-0.2c-0.3,0.2-0.5,0.4-0.5,0.6c0,0.4,0.4,0.6,1.1,0.6h1.1c0.7,0,1.3,0.2,1.7,0.5c0.4,0.3,0.6,0.8,0.6,1.4
		c0,0.6-0.3,1.1-0.8,1.5s-1.2,0.6-2,0.6c-0.9,0-1.6-0.2-2.1-0.7s-0.8-1-0.8-1.7l1-0.8c-0.6-0.2-0.8-0.6-0.8-1.1
		c0-0.5,0.3-0.9,0.9-1.2c-0.5-0.4-0.7-0.9-0.7-1.6c0-0.7,0.2-1.2,0.7-1.6s1-0.6,1.7-0.6c0.6,0,1.2,0.2,1.7,0.5
		c0.4-0.2,0.7-0.5,1-0.9L93.9,3z M92.5,9.9c0-0.3-0.1-0.6-0.4-0.8c-0.3-0.2-0.6-0.2-1-0.2h-1.1l-1,0.8c0.1,0.4,0.2,0.7,0.5,0.9
		c0.3,0.2,0.7,0.4,1.3,0.4c0.5,0,0.9-0.1,1.2-0.3C92.4,10.6,92.5,10.3,92.5,9.9z M90.8,6.2c0.4,0,0.7-0.1,1-0.4s0.4-0.6,0.4-1
		s-0.1-0.7-0.4-1c-0.2-0.3-0.6-0.4-1-0.4c-0.4,0-0.7,0.1-1,0.4c-0.3,0.3-0.4,0.6-0.4,1c0,0.4,0.1,0.7,0.4,1S90.4,6.2,90.8,6.2z"/>
	<path class="st0" d="M95.9,7.8c0.3,0,0.5,0.1,0.6,0.3c0.1,0.2,0.2,0.4,0.2,0.8c0,0.5-0.1,0.9-0.4,1.2s-0.6,0.6-0.9,0.8l-0.3-0.4
		c0.5-0.4,0.7-0.8,0.7-1.2c-0.2,0-0.4,0-0.6-0.2c-0.2-0.1-0.2-0.3-0.2-0.6c0-0.2,0.1-0.4,0.2-0.6C95.5,7.9,95.7,7.8,95.9,7.8z"/>
	<path class="st0" d="M107.1,7.7c0,0.2,0,0.4,0.1,0.5c0.1,0.1,0.2,0.1,0.5,0.1v0.9h-0.2c-0.7,0-1.1-0.3-1.3-0.9
		c-0.3,0.3-0.6,0.6-1,0.7c-0.4,0.2-0.8,0.3-1.3,0.3c-0.6,0-1.2-0.2-1.6-0.5c-0.4-0.3-0.6-0.8-0.6-1.4c0-0.6,0.3-1.2,0.8-1.5
		c0.5-0.4,1.2-0.6,2.2-0.6l1.2-0.1V5.2c0-0.5-0.1-0.9-0.4-1.2c-0.2-0.3-0.6-0.4-1-0.4c-0.4,0-0.8,0.1-1,0.4
		c-0.2,0.3-0.4,0.5-0.4,0.9h-1.1c0.1-0.6,0.3-1.2,0.8-1.6c0.5-0.4,1-0.6,1.8-0.6c0.7,0,1.3,0.2,1.8,0.7s0.7,1.1,0.7,1.9V7.7z
		 M104.2,8.4c0.5,0,0.9-0.2,1.3-0.5c0.4-0.3,0.6-0.8,0.6-1.3V6.2l-1.1,0.1c-0.6,0.1-1.1,0.2-1.4,0.4S103,7.2,103,7.5
		c0,0.3,0.1,0.5,0.3,0.7C103.6,8.4,103.8,8.4,104.2,8.4z"/>
	<path class="st0" d="M113.8,0h1.1v9.3h-0.8l-0.2-0.9h-0.1c-0.5,0.7-1.2,1.1-2.1,1.1c-0.9,0-1.6-0.3-2.1-0.9
		C109,7.8,108.7,7,108.7,6c0-1,0.3-1.8,0.9-2.4c0.6-0.6,1.3-0.9,2.2-0.9c1,0,1.7,0.4,2,1.1V0z M110.4,7.7c0.4,0.4,0.8,0.7,1.4,0.7
		c0.6,0,1-0.2,1.4-0.6c0.4-0.4,0.5-1,0.5-1.7c0-0.7-0.2-1.3-0.5-1.7c-0.4-0.4-0.8-0.6-1.4-0.6c-0.6,0-1.1,0.2-1.4,0.7
		c-0.4,0.4-0.6,1-0.6,1.7S110.1,7.3,110.4,7.7z"/>
	<path class="st0" d="M121.5,2.8h1.2l-2.4,6.5h-1.7l-2.4-6.5h1.2l1.9,5.5h0.1L121.5,2.8z"/>
	<path class="st0" d="M126.4,2.6c0.9,0,1.7,0.3,2.2,0.9c0.6,0.6,0.8,1.5,0.7,2.7h-4.9c0,0.7,0.2,1.2,0.6,1.6s0.8,0.6,1.5,0.6
		c0.4,0,0.7-0.1,1-0.3c0.3-0.2,0.5-0.4,0.7-0.8h1.1c-0.2,0.6-0.5,1.1-1,1.5c-0.5,0.3-1.1,0.5-1.8,0.5c-1,0-1.8-0.3-2.3-0.9
		c-0.6-0.6-0.9-1.4-0.9-2.5c0-1,0.3-1.8,0.9-2.4C124.8,2.9,125.5,2.6,126.4,2.6z M124.5,5.4h3.8c0-0.5-0.2-0.9-0.5-1.3
		c-0.3-0.3-0.8-0.5-1.3-0.5c-0.5,0-1,0.2-1.3,0.5S124.6,4.8,124.5,5.4z"/>
	<path class="st0" d="M134.1,2.6c0.7,0,1.3,0.2,1.7,0.7c0.5,0.5,0.7,1.2,0.7,2v3.9h-1.2V5.6c0-0.6-0.1-1.1-0.4-1.4
		c-0.3-0.3-0.7-0.5-1.2-0.5c-0.4,0-0.8,0.2-1.1,0.5s-0.5,0.8-0.5,1.4v3.7h-1.2V2.8h0.9l0.2,0.8h0.1C132.5,2.9,133.2,2.6,134.1,2.6z"
		/>
	<path class="st0" d="M141.3,9.1c-0.3,0.2-0.7,0.3-1.1,0.3c-1.1,0-1.6-0.6-1.6-1.7V3.7h-1.3V2.9h0.4c0.7,0,1-0.3,1-0.9V1.1h1v1.6
		h1.5v0.9h-1.5v3.8c0,0.5,0.2,0.8,0.6,0.8c0.2,0,0.4-0.1,0.6-0.2L141.3,9.1z"/>
	<path class="st0" d="M145.2,9.4c-0.7,0-1.3-0.2-1.7-0.7s-0.7-1.2-0.7-2V2.8h1.2v3.7c0,0.6,0.1,1.1,0.4,1.4c0.3,0.3,0.7,0.5,1.2,0.5
		c0.4,0,0.8-0.2,1.1-0.5c0.3-0.3,0.5-0.8,0.5-1.4V2.8h1.2v6.5h-0.9l-0.2-0.8h-0.1C146.7,9.1,146.1,9.4,145.2,9.4z"/>
	<path class="st0" d="M153.2,2.6h0.4v1.2c-0.1,0-0.3-0.1-0.5-0.1c-0.5,0-0.9,0.2-1.3,0.5c-0.3,0.4-0.5,0.9-0.5,1.6v3.4h-1.2V2.8h0.9
		l0.2,0.9h0.1C151.8,3,152.4,2.6,153.2,2.6z"/>
	<path class="st0" d="M157.7,9.4c-1,0-1.7-0.3-2.4-1S154.4,7,154.4,6c0-1,0.3-1.8,0.9-2.4c0.6-0.6,1.4-1,2.4-1s1.7,0.3,2.4,1
		S161,5,161,6c0,1-0.3,1.8-0.9,2.4C159.4,9.1,158.7,9.4,157.7,9.4z M157.7,8.4c0.6,0,1.1-0.2,1.5-0.7s0.6-1,0.6-1.7
		c0-0.7-0.2-1.2-0.6-1.7c-0.4-0.5-0.9-0.7-1.5-0.7s-1.1,0.2-1.5,0.7c-0.4,0.5-0.6,1-0.6,1.7c0,0.7,0.2,1.2,0.6,1.7
		S157.1,8.4,157.7,8.4z"/>
	<path class="st0" d="M164.8,9.4c-0.7,0-1.3-0.2-1.7-0.7s-0.7-1.2-0.7-2V2.8h1.2v3.7c0,0.6,0.1,1.1,0.4,1.4c0.3,0.3,0.7,0.5,1.2,0.5
		c0.4,0,0.8-0.2,1.1-0.5c0.3-0.3,0.5-0.8,0.5-1.4V2.8h1.2v6.5H167l-0.2-0.8h-0.1C166.3,9.1,165.7,9.4,164.8,9.4z"/>
	<path class="st0" d="M174.3,7.6c0,0.6-0.2,1-0.7,1.3c-0.4,0.3-1,0.5-1.7,0.5c-0.8,0-1.4-0.2-1.9-0.6c-0.5-0.4-0.7-0.9-0.7-1.6h1.1
		c0,0.4,0.2,0.8,0.5,1c0.3,0.2,0.6,0.3,1,0.3c0.3,0,0.6-0.1,0.9-0.2s0.3-0.4,0.3-0.7c0-0.3-0.1-0.5-0.4-0.7
		c-0.3-0.2-0.6-0.3-1.1-0.5c-0.3-0.1-0.5-0.2-0.7-0.3c-0.2-0.1-0.4-0.2-0.6-0.4c-0.2-0.1-0.4-0.3-0.5-0.5c-0.1-0.2-0.2-0.5-0.2-0.7
		c0-0.6,0.2-1,0.6-1.3c0.4-0.3,1-0.5,1.6-0.5c0.7,0,1.2,0.2,1.6,0.6s0.6,0.8,0.6,1.4h-1.1c0-0.3-0.1-0.5-0.4-0.7
		c-0.2-0.2-0.5-0.3-0.9-0.3c-0.3,0-0.5,0.1-0.7,0.2c-0.2,0.2-0.3,0.4-0.3,0.6c0,0.3,0.1,0.5,0.3,0.7c0.2,0.2,0.6,0.3,1.1,0.5
		c0.7,0.2,1.2,0.5,1.6,0.8C174.1,6.6,174.3,7,174.3,7.6z"/>
	<path class="st0" d="M176.7,7.8c0.3,0,0.5,0.1,0.6,0.3c0.1,0.2,0.2,0.4,0.2,0.8c0,0.5-0.1,0.9-0.4,1.2s-0.6,0.6-0.9,0.8l-0.3-0.4
		c0.5-0.4,0.7-0.8,0.7-1.2c-0.2,0-0.4,0-0.6-0.2c-0.2-0.1-0.2-0.3-0.2-0.6c0-0.2,0.1-0.4,0.2-0.6C176.3,7.9,176.5,7.8,176.7,7.8z"/>
	<path class="st0" d="M187.7,0h1.1v9.3H188l-0.2-0.9h-0.1c-0.5,0.7-1.2,1.1-2.1,1.1c-0.9,0-1.6-0.3-2.1-0.9C183,7.8,182.7,7,182.7,6
		c0-1,0.3-1.8,0.9-2.4c0.6-0.6,1.3-0.9,2.2-0.9c1,0,1.7,0.4,2,1.1V0z M184.4,7.7c0.4,0.4,0.8,0.7,1.4,0.7c0.6,0,1-0.2,1.4-0.6
		c0.4-0.4,0.5-1,0.5-1.7c0-0.7-0.2-1.3-0.5-1.7c-0.4-0.4-0.8-0.6-1.4-0.6c-0.6,0-1.1,0.2-1.4,0.7c-0.4,0.4-0.6,1-0.6,1.7
		S184,7.3,184.4,7.7z"/>
	<path class="st0" d="M191.8,1.5c-0.2,0.2-0.3,0.2-0.6,0.2s-0.4-0.1-0.6-0.2c-0.2-0.2-0.2-0.3-0.2-0.6s0.1-0.4,0.2-0.6
		c0.2-0.2,0.3-0.2,0.6-0.2s0.4,0.1,0.6,0.2C192,0.6,192,0.7,192,1S192,1.4,191.8,1.5z M191.8,2.8v6.5h-1.2V2.8H191.8z"/>
	<path class="st0" d="M198.4,2.8h1.2l-2.4,6.5h-1.7l-2.4-6.5h1.2l1.9,5.5h0.1L198.4,2.8z"/>
	<path class="st0" d="M203.3,2.6c0.9,0,1.7,0.3,2.2,0.9c0.6,0.6,0.8,1.5,0.7,2.7h-4.9c0,0.7,0.2,1.2,0.6,1.6s0.8,0.6,1.5,0.6
		c0.4,0,0.7-0.1,1-0.3c0.3-0.2,0.5-0.4,0.7-0.8h1.1c-0.2,0.6-0.5,1.1-1,1.5c-0.5,0.3-1.1,0.5-1.8,0.5c-1,0-1.8-0.3-2.3-0.9
		c-0.6-0.6-0.9-1.4-0.9-2.5c0-1,0.3-1.8,0.9-2.4C201.7,2.9,202.4,2.6,203.3,2.6z M201.4,5.4h3.8c0-0.5-0.2-0.9-0.5-1.3
		c-0.3-0.3-0.8-0.5-1.3-0.5c-0.5,0-1,0.2-1.3,0.5S201.4,4.8,201.4,5.4z"/>
	<path class="st0" d="M210.9,2.6h0.4v1.2c-0.1,0-0.3-0.1-0.5-0.1c-0.5,0-0.9,0.2-1.3,0.5c-0.3,0.4-0.5,0.9-0.5,1.6v3.4h-1.2V2.8h0.9
		l0.2,0.9h0.1C209.5,3,210.1,2.6,210.9,2.6z"/>
	<path class="st0" d="M217.1,7.6c0,0.6-0.2,1-0.7,1.3c-0.4,0.3-1,0.5-1.7,0.5c-0.8,0-1.4-0.2-1.9-0.6c-0.5-0.4-0.7-0.9-0.7-1.6h1.1
		c0,0.4,0.2,0.8,0.5,1c0.3,0.2,0.6,0.3,1,0.3c0.3,0,0.6-0.1,0.9-0.2s0.3-0.4,0.3-0.7c0-0.3-0.1-0.5-0.4-0.7
		c-0.3-0.2-0.6-0.3-1.1-0.5c-0.3-0.1-0.5-0.2-0.7-0.3c-0.2-0.1-0.4-0.2-0.6-0.4c-0.2-0.1-0.4-0.3-0.5-0.5c-0.1-0.2-0.2-0.5-0.2-0.7
		c0-0.6,0.2-1,0.6-1.3c0.4-0.3,1-0.5,1.6-0.5c0.7,0,1.2,0.2,1.6,0.6s0.6,0.8,0.6,1.4h-1.1c0-0.3-0.1-0.5-0.4-0.7
		c-0.2-0.2-0.5-0.3-0.9-0.3c-0.3,0-0.5,0.1-0.7,0.2c-0.2,0.2-0.3,0.4-0.3,0.6c0,0.3,0.1,0.5,0.3,0.7c0.2,0.2,0.6,0.3,1.1,0.5
		c0.7,0.2,1.2,0.5,1.6,0.8C216.9,6.6,217.1,7,217.1,7.6z"/>
	<path class="st0" d="M221.4,2.6c0.9,0,1.7,0.3,2.2,0.9c0.6,0.6,0.8,1.5,0.7,2.7h-4.9c0,0.7,0.2,1.2,0.6,1.6s0.8,0.6,1.5,0.6
		c0.4,0,0.7-0.1,1-0.3c0.3-0.2,0.5-0.4,0.7-0.8h1.1c-0.2,0.6-0.5,1.1-1,1.5c-0.5,0.3-1.1,0.5-1.8,0.5c-1,0-1.8-0.3-2.3-0.9
		c-0.6-0.6-0.9-1.4-0.9-2.5c0-1,0.3-1.8,0.9-2.4C219.8,2.9,220.5,2.6,221.4,2.6z M219.5,5.4h3.8c0-0.5-0.2-0.9-0.5-1.3
		c-0.3-0.3-0.8-0.5-1.3-0.5c-0.5,0-1,0.2-1.3,0.5S219.6,4.8,219.5,5.4z"/>
</g>
</svg>
