<?xml version="1.0" encoding="utf-8"?>
<!-- Generator: Adobe Illustrator 24.3.0, SVG Export Plug-In . SVG Version: 6.00 Build 0)  -->
<svg version="1.1" id="Laag_1" xmlns="http://www.w3.org/2000/svg" xmlns:xlink="http://www.w3.org/1999/xlink" x="0px" y="0px"
	 width="302.2px" height="33.4px" viewBox="0 0 302.2 33.4" style="enable-background:new 0 0 302.2 33.4;" xml:space="preserve">
<style type="text/css">
	.st0{clip-path:url(#SVGID_2_);fill:#FFFFFF;}
</style>
<g>
	<defs>
		<rect id="SVGID_1_" width="302.2" height="33.4"/>
	</defs>
	<clipPath id="SVGID_2_">
		<use xlink:href="#SVGID_1_"  style="overflow:visible;"/>
	</clipPath>
	<path class="st0" d="M54.4,9.8c-3.7,0-6.7,3-6.7,6.7c0,3.7,3,6.7,6.7,6.7c3.7,0,6.7-3,6.7-6.7C61.1,12.8,58.1,9.8,54.4,9.8
		 M64.4,16.5c0,5.6-4.5,10.1-10.1,10.1c-5.6,0-10.1-4.5-10.1-10.1c0-5.6,4.5-10.1,10.1-10.1C59.9,6.4,64.4,10.9,64.4,16.5
		 M240.1,26.5c-5.6,0-10.1-4.5-10.1-10.1c0-5.6,4.5-10.1,10.1-10.1c5.2,0,10,3.9,10,9l-3.4,0c0-3.2-3.3-5.6-6.6-5.6
		c-3.7,0-6.7,3-6.7,6.7c0,3.7,3,6.7,6.7,6.7c1.8,0,3.5-0.7,4.7-2l2.4,2.4C245.4,25.4,242.9,26.5,240.1,26.5 M77.7,26.5
		c-5.6,0-10.1-4.5-10.1-10.1c0-5.6,4.5-10.1,10.1-10.1c5.2,0,10,3.9,10,9l-3.4,0c0-3.2-3.3-5.6-6.6-5.6c-3.7,0-6.7,3-6.7,6.7
		c0,3.7,3,6.7,6.7,6.7c1.8,0,3.5-0.7,4.7-2l2.4,2.4C83,25.4,80.4,26.5,77.7,26.5 M143.8,26.1c0,2.2-1.8,3.9-3.9,3.9v3.4
		c4,0,7.3-3.3,7.3-7.3H143.8z M147.8,2.3c0,1.3-1,2.3-2.3,2.3c-1.3,0-2.3-1-2.3-2.3s1-2.3,2.3-2.3C146.7,0,147.8,1,147.8,2.3
		 M137.8,2.3c0,1.3-1,2.3-2.3,2.3c-1.3,0-2.3-1-2.3-2.3s1-2.3,2.3-2.3C136.8,0,137.8,1,137.8,2.3 M199.1,17.6c0,3.1,2.5,5.6,5.6,5.6
		c3.1,0,5.6-2.5,5.6-5.6h3.4c0,5-4,9-9,9c-5,0-9-4-9-9H199.1z M37.8,15.4c0-3.1-2.5-5.6-5.6-5.6c-3.1,0-5.6,2.5-5.6,5.6h-3.4
		c0-5,4-9,9-9s9,4,9,9H37.8z M178.5,9c1.3-1.6,3.4-2.6,5.6-2.6c4,0,7.3,3.3,7.3,7.3h-3.4c0-2.2-1.8-3.9-3.9-3.9s-3.9,1.8-3.9,3.9
		h-3.4c0-2.2-1.8-3.9-3.9-3.9c-2.2,0-3.9,1.8-3.9,3.9h-3.4c0-4,3.3-7.3,7.3-7.3C175.2,6.4,177.2,7.4,178.5,9 M94.8,13.7
		c0-2.2,1.8-3.9,3.9-3.9V6.4c-4,0-7.3,3.3-7.3,7.3H94.8z M10.1,9.8c-3.7,0-6.7,3-6.7,6.7c0,3.7,3,6.7,6.7,6.7c3.7,0,6.7-3,6.7-6.7
		C16.8,12.8,13.8,9.8,10.1,9.8 M20.1,16.5c0,5.6-4.5,10.1-10.1,10.1C4.5,26.5,0,22,0,16.5C0,10.9,4.5,6.4,10.1,6.4
		C15.6,6.4,20.1,10.9,20.1,16.5 M115.4,23.9c-1.3,1.6-3.4,2.6-5.6,2.6c-4,0-7.3-3.3-7.3-7.3h3.4c0,2.2,1.8,3.9,3.9,3.9
		c2.2,0,3.9-1.8,3.9-3.9h3.4c0,2.2,1.8,3.9,3.9,3.9c2.2,0,3.9-1.8,3.9-3.9h3.4c0,4-3.3,7.3-7.3,7.3
		C118.8,26.6,116.8,25.5,115.4,23.9 M155,19.2c0,2.2-1.8,3.9-3.9,3.9v3.4c4,0,7.3-3.3,7.3-7.3H155z M220.1,19.2
		c0,2.2-1.8,3.9-3.9,3.9v3.4c4,0,7.3-3.3,7.3-7.3H220.1z M223.5,13.7c0-2.2,1.8-3.9,3.9-3.9V6.4c-4,0-7.3,3.3-7.3,7.3H223.5z
		 M257.5,17.6c0,3.1,2.5,5.6,5.6,5.6c3.1,0,5.6-2.5,5.6-5.6h3.4c0,5-4,9-9,9c-5,0-9-4-9-9H257.5z M289.2,9c1.3-1.6,3.4-2.6,5.6-2.6
		c4,0,7.3,3.3,7.3,7.3h-3.4c0-2.2-1.8-3.9-3.9-3.9c-2.2,0-3.9,1.8-3.9,3.9h-3.4c0-2.2-1.8-3.9-3.9-3.9c-2.2,0-3.9,1.8-3.9,3.9h-3.4
		c0-4,3.3-7.3,7.3-7.3C285.8,6.4,287.9,7.4,289.2,9 M155,13.7c0-4,3.3-7.3,7.3-7.3v3.4c-2.2,0-3.9,1.8-3.9,3.9H155z"/>
	<path class="st0" d="M64.4,16.5c0-3-1.3-5.7-3.4-7.5h0V0.5h3.4V16.5z M250.1,15.4v3.4h-16.3c-0.3-0.7-0.4-1.5-0.4-2.3
		c0-0.4,0-0.7,0.1-1.1H250.1z M87.7,15.4v3.4H71.4C71.1,18,71,17.3,71,16.5c0-0.4,0-0.7,0.1-1.1H87.7z M133.9,26.1h3.4V6.9h-3.4
		V26.1z M199.1,6.9h-3.4v10.7h3.4V6.9z M37.8,26.1h3.4V15.4h-3.4V26.1z M23.3,26.1h3.4V15.4h-3.4V26.1z M180.2,13.7h-3.4v12.3h3.4
		V13.7z M191.5,13.7h-3.4v12.3h3.4V13.7z M91.4,26.1h3.4V13.7h-3.4V26.1z M125,19.2h3.4V6.9H125V19.2z M113.7,19.2h3.4V6.9h-3.4
		V19.2z M102.5,19.2h3.4V6.9h-3.4V19.2z M143.8,26.1h3.4V6.9h-3.4V26.1z M155,19.2h3.4v-5.5H155V19.2z M220.1,19.2h3.4v-5.5h-3.4
		V19.2z M213.6,6.9h-3.4v10.7h3.4V6.9z M257.5,6.9h-3.4v10.7h3.4V6.9z M272.1,6.9h-3.4v10.7h3.4V6.9z M279.6,13.7h-3.4v12.3h3.4
		V13.7z M290.9,13.7h-3.4v12.3h3.4V13.7z M302.2,13.7h-3.4v12.3h3.4V13.7z M169,26.1h-3.4V13.7h3.4V26.1z"/>
</g>
</svg>
