<?xml version="1.0" encoding="utf-8"?>
<!-- Generator: Adobe Illustrator 24.3.0, SVG Export Plug-In . SVG Version: 6.00 Build 0)  -->
<svg version="1.1" id="Laag_1" xmlns="http://www.w3.org/2000/svg" xmlns:xlink="http://www.w3.org/1999/xlink" x="0px" y="0px"
	 width="367.9px" height="100px" viewBox="0 0 367.9 100" style="enable-background:new 0 0 367.9 100;" xml:space="preserve">
<style type="text/css">
	.st0{fill:#1D1D1B;}
</style>
<g>
	<g>
		<path class="st0" d="M12.6,39.4C4.8,39.4,0,34.5,0,27.3s4.7-12.2,12.6-12.2c7.6,0,12.5,4.7,12.5,12.2
			C25.1,34.5,20.3,39.4,12.6,39.4z M12.6,19.3c-4.3,0-7.4,3.1-7.4,8s3.1,8,7.5,8c4.2,0,7.3-3.2,7.3-8C20,22.4,16.8,19.3,12.6,19.3z"
			/>
		<path class="st0" d="M38.1,40.4L27.9,15.7h5.4l5.4,13l5.5-13h5.4L38.1,40.4z"/>
		<path class="st0" d="M57.4,28.3c0.1,4.9,3.7,7.1,7.9,7.1c2.2,0,4.8-1,6.8-3.4l2.8,3.6c-3.9,3.4-6.3,4-10.3,4
			c-7.2,0-12.4-4.2-12.4-12.1c0-7.4,5.1-12.3,12-12.3c5.6,0,11.2,3.5,11.2,11.8v1.3H57.4z M64.1,19.4c-3.2,0-5.8,1.7-6.6,5H70
			C69.7,21.4,67.5,19.4,64.1,19.4z"/>
		<path class="st0" d="M96.5,22.1c-1.4-1-2.5-1.5-3.7-1.5c-2.8,0-5,2.3-5,5.3v12.9h-5.1V15.7h5.1V19l1.2-1.3c1.5-1.5,3.2-2.3,5-2.3
			c1.6,0,2.9,0.3,5,1.8L96.5,22.1z"/>
		<path class="st0" d="M115.9,38.8V0h5.1v38.8H115.9z"/>
		<path class="st0" d="M133.7,28.3c0.1,4.9,3.7,7.1,7.9,7.1c2.2,0,4.8-1,6.8-3.4l2.8,3.6c-3.9,3.4-6.3,4-10.3,4
			c-7.2,0-12.4-4.2-12.4-12.1c0-7.4,5.1-12.3,12-12.3c5.6,0,11.2,3.5,11.2,11.8v1.3H133.7z M140.4,19.4c-3.2,0-5.8,1.7-6.6,5h12.5
			C146,21.4,143.8,19.4,140.4,19.4z"/>
		<path class="st0" d="M172.8,22.1c-1.4-1-2.5-1.5-3.7-1.5c-2.8,0-5,2.3-5,5.3v12.9H159V15.7h5.1V19l1.2-1.3c1.5-1.5,3.2-2.3,5-2.3
			c1.6,0,2.9,0.3,5,1.8L172.8,22.1z"/>
		<path class="st0" d="M182.8,28.3c0.1,4.9,3.7,7.1,7.9,7.1c2.2,0,4.8-1,6.8-3.4l2.8,3.6c-3.9,3.4-6.3,4-10.3,4
			c-7.2,0-12.4-4.2-12.4-12.1c0-7.4,5.1-12.3,12-12.3c5.6,0,11.2,3.5,11.2,11.8v1.3H182.8z M189.5,19.4c-3.2,0-5.8,1.7-6.6,5h12.5
			C195.1,21.4,192.9,19.4,189.5,19.4z"/>
		<path class="st0" d="M223.7,38.8V24.9c0-3.6-1.9-4.9-4.6-4.9c-3.3,0-5.8,1.8-5.8,5.4v13.4h-5.1V15.7h5.1v2.6
			c1.9-2.2,5.2-3.1,7.4-3.1c3.8,0,8.2,1.7,8.2,8.2v15.4H223.7z"/>
		<path class="st0" d="M250.7,38.8V0h5.1v38.8H250.7z"/>
		<path class="st0" d="M268.5,28.3c0.1,4.9,3.7,7.1,7.9,7.1c2.2,0,4.8-1,6.8-3.4l2.8,3.6c-3.9,3.4-6.3,4-10.3,4
			c-7.2,0-12.4-4.2-12.4-12.1c0-7.4,5.1-12.3,12-12.3c5.6,0,11.2,3.5,11.2,11.8v1.3H268.5z M275.2,19.4c-3.2,0-5.8,1.7-6.6,5h12.5
			C280.8,21.4,278.5,19.4,275.2,19.4z"/>
		<path class="st0" d="M300,33.7H312v5.1h-21.8v-0.2l13.2-17.7h-11.8v-4.8h20.9v0.2L300,33.7z"/>
		<path class="st0" d="M321.8,28.3c0.1,4.9,3.7,7.1,7.9,7.1c2.2,0,4.8-1,6.8-3.4l2.8,3.6c-3.9,3.4-6.3,4-10.3,4
			c-7.2,0-12.4-4.2-12.4-12.1c0-7.4,5.1-12.3,12-12.3c5.6,0,11.2,3.5,11.2,11.8v1.3H321.8z M328.5,19.4c-3.2,0-5.8,1.7-6.6,5h12.5
			C334.1,21.4,331.9,19.4,328.5,19.4z"/>
		<path class="st0" d="M362.7,38.8V24.9c0-3.6-1.9-4.9-4.6-4.9c-3.3,0-5.8,1.8-5.8,5.4v13.4h-5.1V15.7h5.1v2.6
			c1.9-2.2,5.2-3.1,7.4-3.1c3.8,0,8.2,1.7,8.2,8.2v15.4H362.7z"/>
	</g>
	<g>
		<path class="st0" d="M5.1,80.1c0.1,4.9,3.7,7.1,7.9,7.1c2.2,0,4.8-1,6.8-3.4l2.8,3.6c-3.9,3.4-6.3,4-10.3,4
			C5.1,91.4,0,87.3,0,79.3C0,71.9,5.1,67,12,67c5.6,0,11.2,3.5,11.2,11.8v1.3H5.1z M11.8,71.3c-3.2,0-5.8,1.7-6.6,5h12.5
			C17.4,73.2,15.2,71.3,11.8,71.3z"/>
		<path class="st0" d="M46,90.7V76.7c0-3.6-1.9-4.9-4.6-4.9c-3.3,0-5.8,1.8-5.8,5.4v13.4h-5.1V67.5h5.1v2.6c1.9-2.2,5.2-3.1,7.4-3.1
			c3.8,0,8.2,1.7,8.2,8.2v15.4H46z"/>
		<path class="st0" d="M72.9,90.7V51.8h5.1v38.8H72.9z"/>
		<path class="st0" d="M90.7,80.1c0.1,4.9,3.7,7.1,7.9,7.1c2.2,0,4.8-1,6.8-3.4l2.8,3.6c-3.9,3.4-6.3,4-10.3,4
			c-7.2,0-12.4-4.2-12.4-12.1c0-7.4,5.1-12.3,12-12.3c5.6,0,11.2,3.5,11.2,11.8v1.3H90.7z M97.4,71.3c-3.2,0-5.8,1.7-6.6,5h12.5
			C103,73.2,100.8,71.3,97.4,71.3z"/>
		<path class="st0" d="M119.1,80.1c0.1,4.9,3.7,7.1,7.9,7.1c2.2,0,4.8-1,6.8-3.4l2.8,3.6c-3.9,3.4-6.3,4-10.3,4
			c-7.2,0-12.4-4.2-12.4-12.1c0-7.4,5.1-12.3,12-12.3c5.6,0,11.2,3.5,11.2,11.8v1.3H119.1z M125.8,71.3c-3.2,0-5.8,1.7-6.6,5h12.5
			C131.4,73.2,129.2,71.3,125.8,71.3z"/>
		<path class="st0" d="M150.8,91.4c-2.8,0-6-0.8-8.7-2.4l1.8-4.3c2,1.3,4.8,2.4,6.9,2.4c1.7,0,3.9-0.3,3.9-2.4c0-2.1-2.1-3-3.9-3.6
			l-2.4-0.8c-2.3-0.7-5.7-2.3-5.7-6.8c0-4.1,3.6-6.7,8.3-6.7c3,0,6,0.6,8.3,2.3l-2.4,3.7c-1.3-1-3.5-1.7-5.7-1.7
			c-2.3,0-3.4,0.9-3.4,2.2c0,1.9,1.3,2.3,3.3,3.1l2.4,0.9c3,1.1,6.3,2.9,6.3,7.2C159.8,89.1,156.2,91.4,150.8,91.4z"/>
		<path class="st0" d="M179.7,91.3c-2.5,0-5-0.1-7.5-2.4V100h-5.1V67.5h5.1v2.6c2.2-2.4,5-2.9,7.7-2.9c5.9,0,10,4.7,10,11.9
			C189.9,86.1,185.3,91.3,179.7,91.3z M178.5,71.9c-3.9,0-6.6,2.9-6.6,7.3c0,4.6,2.6,7.6,6.5,7.6c4.2,0,6.4-3.2,6.4-7.8
			C184.8,74.7,182.1,71.9,178.5,71.9z"/>
		<path class="st0" d="M197.5,90.7V51.8h5.1v38.8H197.5z"/>
		<path class="st0" d="M215.2,80.1c0.1,4.9,3.7,7.1,7.9,7.1c2.2,0,4.8-1,6.8-3.4l2.8,3.6c-3.9,3.4-6.3,4-10.3,4
			c-7.2,0-12.4-4.2-12.4-12.1c0-7.4,5.1-12.3,12-12.3c5.6,0,11.2,3.5,11.2,11.8v1.3H215.2z M222,71.3c-3.2,0-5.8,1.7-6.6,5h12.5
			C227.5,73.2,225.3,71.3,222,71.3z"/>
		<path class="st0" d="M246.8,85.5h12.1v5.1H237v-0.2l13.2-17.7h-11.8v-4.8h20.9v0.2L246.8,85.5z"/>
		<path class="st0" d="M266.4,62.1v-5.8h5.1v5.8H266.4z M266.4,90.7V67.5h5.1v23.1H266.4z"/>
		<path class="st0" d="M284.2,80.1c0.1,4.9,3.7,7.1,7.9,7.1c2.2,0,4.8-1,6.8-3.4l2.8,3.6c-3.9,3.4-6.3,4-10.3,4
			c-7.2,0-12.4-4.2-12.4-12.1c0-7.4,5.1-12.3,12-12.3c5.6,0,11.2,3.5,11.2,11.8v1.3H284.2z M290.9,71.3c-3.2,0-5.8,1.7-6.6,5h12.5
			C296.5,73.2,294.3,71.3,290.9,71.3z"/>
		<path class="st0" d="M323.3,73.9c-1.4-1-2.5-1.5-3.7-1.5c-2.8,0-5,2.3-5,5.3v12.9h-5.1V67.5h5.1v3.3l1.2-1.3
			c1.5-1.5,3.2-2.3,5-2.3c1.6,0,2.9,0.3,5,1.8L323.3,73.9z"/>
	</g>
</g>
</svg>
