<?xml version="1.0" encoding="utf-8"?>
<!-- Generator: Adobe Illustrator 24.3.0, SVG Export Plug-In . SVG Version: 6.00 Build 0)  -->
<svg version="1.1" id="Laag_1" xmlns="http://www.w3.org/2000/svg" xmlns:xlink="http://www.w3.org/1999/xlink" x="0px" y="0px"
	 width="67px" height="40.5px" viewBox="0 0 67 40.5" style="enable-background:new 0 0 67 40.5;" xml:space="preserve">
<style type="text/css">
	.st0{fill:#FFFFFF;}
</style>
<g>
	<path class="st0" d="M7.7,7.4H4.9l-1.1,5.1c0,0.2-0.1,0.3-0.1,0.4s0,0.2,0,0.3c0,0.3,0.1,0.5,0.2,0.6C4.1,13.9,4.4,14,4.7,14
		c0.2,0,0.6,0,1-0.1c0.4-0.1,0.7-0.1,1-0.2l-0.4,2.2c-0.4,0.1-0.7,0.2-1.1,0.2c-0.4,0.1-0.8,0.1-1.2,0.1c-0.5,0-0.9-0.1-1.3-0.2
		c-0.4-0.1-0.7-0.3-0.9-0.5s-0.4-0.4-0.5-0.7c-0.1-0.3-0.2-0.6-0.2-1c0-0.1,0-0.3,0-0.4c0-0.2,0-0.4,0.1-0.6l1.1-5.4h-2l0.5-2.1h2
		l0.6-3H6l-0.6,3h2.8L7.7,7.4z"/>
	<path class="st0" d="M16.4,9.4c0-0.2,0.1-0.4,0.1-0.6c0-0.2,0-0.3,0-0.5c0-0.4-0.1-0.7-0.3-0.9c-0.2-0.2-0.5-0.3-1-0.3
		c-0.5,0-1,0.1-1.5,0.4c-0.5,0.3-0.8,0.7-1.2,1.2c-0.1,0.1-0.1,0.2-0.2,0.3c-0.1,0.1-0.1,0.2-0.2,0.4c-0.1,0.1-0.1,0.3-0.1,0.5
		c0,0.2-0.1,0.4-0.1,0.6l-1.1,5.3H8.3L11.6,0h2.6l-1,5c-0.1,0.4-0.2,1-0.4,1.6h0C13,6.4,13.2,6.2,13.4,6c0.2-0.2,0.5-0.4,0.8-0.5
		c0.3-0.1,0.6-0.3,0.9-0.4C15.5,5,15.8,5,16.2,5c0.4,0,0.8,0.1,1.2,0.2c0.4,0.1,0.7,0.3,1,0.5c0.3,0.2,0.5,0.5,0.7,0.9
		s0.2,0.7,0.2,1.2c0,0.3,0,0.6-0.1,0.9c-0.1,0.3-0.1,0.7-0.2,1l-1.3,6.3h-2.6L16.4,9.4z"/>
	<path class="st0" d="M25,16.2c-0.7,0-1.3-0.1-1.8-0.2c-0.5-0.2-0.9-0.4-1.2-0.7s-0.6-0.6-0.7-1c-0.2-0.4-0.2-0.8-0.2-1.3
		c0-0.2,0-0.3,0-0.5s0.1-0.5,0.1-0.8l1.3-6.4h2.6l-1.3,6.5c0,0.2-0.1,0.3-0.1,0.5c0,0.2,0,0.3,0,0.4c0,0.4,0.1,0.8,0.4,1
		s0.6,0.4,1.2,0.4c0.4,0,0.7-0.1,1-0.2c0.3-0.1,0.5-0.3,0.7-0.5c0.2-0.2,0.3-0.4,0.5-0.7c0.1-0.3,0.2-0.6,0.3-1L29,5.3h2.6l-1.5,7.2
		c-0.1,0.5-0.3,1-0.5,1.4s-0.5,0.8-0.9,1.2c-0.4,0.3-0.9,0.6-1.5,0.8C26.6,16.1,25.9,16.2,25,16.2z"/>
	<path class="st0" d="M32.3,15.9l2.2-10.6h2.6l-2.2,10.6H32.3z M34.9,2.8L35.5,0h2.7l-0.6,2.8H34.9z"/>
	<path class="st0" d="M43.2,12.7c0-0.2-0.1-0.4-0.2-0.5s-0.3-0.3-0.5-0.4c-0.2-0.1-0.5-0.2-0.8-0.3c-0.3-0.1-0.6-0.2-0.9-0.3
		c-0.3-0.1-0.5-0.2-0.8-0.4c-0.2-0.1-0.5-0.3-0.7-0.5c-0.2-0.2-0.3-0.5-0.5-0.7c-0.1-0.3-0.2-0.6-0.2-1c0-0.6,0.1-1.1,0.3-1.6
		s0.5-0.8,0.9-1.1c0.4-0.3,0.8-0.5,1.3-0.6C41.9,5.1,42.4,5,43,5c0.3,0,0.6,0,0.9,0.1c0.3,0,0.6,0.1,0.9,0.2
		c0.3,0.1,0.6,0.2,0.9,0.2s0.5,0.2,0.8,0.3l-0.4,2c-0.5-0.2-1.1-0.4-1.6-0.5c-0.5-0.1-1-0.2-1.5-0.2c-0.5,0-0.9,0.1-1.2,0.3
		c-0.3,0.2-0.4,0.5-0.4,0.8c0,0.2,0,0.4,0.1,0.5c0.1,0.1,0.2,0.3,0.4,0.4c0.2,0.1,0.4,0.2,0.6,0.3c0.2,0.1,0.4,0.2,0.7,0.3
		c0.3,0.1,0.6,0.2,0.9,0.4s0.6,0.3,0.8,0.5c0.2,0.2,0.5,0.5,0.6,0.8c0.2,0.3,0.2,0.7,0.2,1.2c0,0.6-0.1,1.1-0.3,1.6
		c-0.2,0.5-0.6,0.8-1,1.2c-0.4,0.3-0.9,0.6-1.5,0.7c-0.6,0.2-1.2,0.2-2,0.2c-0.4,0-0.8,0-1.1-0.1c-0.4,0-0.7-0.1-1-0.2
		c-0.3-0.1-0.5-0.1-0.8-0.2c-0.2-0.1-0.4-0.1-0.5-0.2l0.4-2.1c0.5,0.2,1,0.3,1.5,0.4c0.5,0.1,1,0.2,1.5,0.2c0.7,0,1.3-0.1,1.7-0.4
		C43,13.5,43.2,13.1,43.2,12.7z"/>
	<path class="st0" d="M0.7,29.6H0v-5.7h1.6c0.2,0,0.5,0,0.7,0c0.2,0,0.4,0.1,0.6,0.1c0.3,0.1,0.6,0.3,0.8,0.5
		c0.2,0.2,0.3,0.5,0.3,0.9c0,0.3-0.1,0.5-0.2,0.8c-0.1,0.2-0.3,0.4-0.5,0.6c-0.2,0.1-0.5,0.3-0.8,0.3c-0.3,0.1-0.7,0.1-1.1,0.1
		c-0.2,0-0.4,0-0.6,0V29.6z M0.7,26.7c0.1,0,0.2,0,0.3,0c0.1,0,0.2,0,0.3,0c0.3,0,0.6,0,0.8-0.1s0.4-0.1,0.6-0.2
		C2.8,26.3,2.9,26.2,3,26c0.1-0.1,0.1-0.3,0.1-0.5c0-0.2-0.1-0.4-0.2-0.5c-0.1-0.1-0.3-0.3-0.5-0.3c-0.1,0-0.3-0.1-0.4-0.1
		c-0.2,0-0.3,0-0.6,0H0.7V26.7z"/>
	<path class="st0" d="M7.1,26.1L7.1,26.1c-0.2,0-0.4,0-0.5,0c-0.2,0-0.3,0.1-0.4,0.1c-0.1,0.1-0.3,0.1-0.4,0.2
		c-0.1,0.1-0.2,0.2-0.3,0.3v2.8H4.9v-4.1h0.5l0.1,0.6h0c0.1-0.1,0.1-0.2,0.2-0.3c0.1-0.1,0.2-0.2,0.3-0.2s0.3-0.1,0.4-0.2
		c0.1,0,0.3-0.1,0.4-0.1c0,0,0.1,0,0.1,0c0,0,0.1,0,0.1,0V26.1z"/>
	<path class="st0" d="M7.9,24.6v-0.7h0.7v0.7H7.9z M7.9,29.6v-4.1h0.7v4.1H7.9z"/>
	<path class="st0" d="M12.5,25.6h0.9l-2,1.9l2,2.2h-0.8l-1.9-2.2h0v2.2H9.9v-6.2h0.7v3.9h0L12.5,25.6z"/>
	<path class="st0" d="M16.7,25.6h0.9l-2,1.9l2,2.2h-0.8l-1.9-2.2h0v2.2h-0.7v-6.2h0.7v3.9h0L16.7,25.6z"/>
	<path class="st0" d="M20.1,29.2c0.2,0,0.4,0,0.6-0.1c0.2,0,0.4-0.1,0.5-0.2v0.6c-0.1,0.1-0.3,0.1-0.5,0.2c-0.2,0-0.4,0.1-0.7,0.1
		c-0.3,0-0.6,0-0.8-0.1c-0.3-0.1-0.5-0.2-0.7-0.4c-0.2-0.2-0.3-0.4-0.4-0.6c-0.1-0.3-0.2-0.6-0.2-1c0-0.4,0.1-0.7,0.2-1
		c0.1-0.3,0.2-0.5,0.4-0.7c0.2-0.2,0.4-0.3,0.6-0.4c0.2-0.1,0.5-0.1,0.7-0.1c0.2,0,0.4,0,0.6,0.1c0.2,0.1,0.4,0.2,0.5,0.4
		c0.1,0.2,0.3,0.4,0.3,0.6s0.1,0.6,0.1,0.9c0,0,0,0.1,0,0.1c0,0,0,0.1,0,0.2h-2.8c0,0.3,0,0.5,0.1,0.7c0.1,0.2,0.2,0.3,0.3,0.4
		c0.1,0.1,0.3,0.2,0.5,0.2C19.7,29.2,19.9,29.2,20.1,29.2z M19.8,26.1c-0.2,0-0.3,0-0.4,0.1c-0.1,0.1-0.2,0.1-0.3,0.2
		c-0.1,0.1-0.2,0.2-0.2,0.4c-0.1,0.1-0.1,0.3-0.1,0.4h2.1c0-0.2,0-0.3-0.1-0.4c0-0.1-0.1-0.3-0.2-0.4c-0.1-0.1-0.2-0.2-0.3-0.2
		C20.1,26.1,19.9,26.1,19.8,26.1z"/>
	<path class="st0" d="M22.6,29.6v-6.2h0.7v6.2H22.6z"/>
	<path class="st0" d="M27.1,30.6c0,0.4-0.1,0.7-0.3,0.9c-0.2,0.2-0.6,0.3-1,0.3c-0.1,0-0.2,0-0.4,0c-0.1,0-0.2,0-0.3-0.1v-0.6
		c0.1,0,0.2,0,0.3,0.1c0.1,0,0.2,0,0.3,0c0.3,0,0.5-0.1,0.6-0.2c0.1-0.1,0.2-0.3,0.2-0.5v-4.9h0.7V30.6z M26.4,24.6v-0.7h0.7v0.7
		H26.4z"/>
	<path class="st0" d="M30.4,29.2c0.2,0,0.4,0,0.6-0.1c0.2,0,0.4-0.1,0.5-0.2v0.6c-0.1,0.1-0.3,0.1-0.5,0.2c-0.2,0-0.4,0.1-0.7,0.1
		c-0.3,0-0.6,0-0.8-0.1c-0.3-0.1-0.5-0.2-0.7-0.4c-0.2-0.2-0.3-0.4-0.4-0.6c-0.1-0.3-0.2-0.6-0.2-1c0-0.4,0.1-0.7,0.2-1
		c0.1-0.3,0.2-0.5,0.4-0.7c0.2-0.2,0.4-0.3,0.6-0.4c0.2-0.1,0.5-0.1,0.7-0.1c0.2,0,0.4,0,0.6,0.1c0.2,0.1,0.4,0.2,0.5,0.4
		c0.1,0.2,0.3,0.4,0.3,0.6c0.1,0.3,0.1,0.6,0.1,0.9c0,0,0,0.1,0,0.1c0,0,0,0.1,0,0.2h-2.8c0,0.3,0,0.5,0.1,0.7
		c0.1,0.2,0.2,0.3,0.3,0.4c0.1,0.1,0.3,0.2,0.5,0.2C30,29.2,30.2,29.2,30.4,29.2z M30,26.1c-0.2,0-0.3,0-0.4,0.1
		c-0.1,0.1-0.2,0.1-0.3,0.2c-0.1,0.1-0.2,0.2-0.2,0.4c-0.1,0.1-0.1,0.3-0.1,0.4H31c0-0.2,0-0.3-0.1-0.4c0-0.1-0.1-0.3-0.2-0.4
		c-0.1-0.1-0.2-0.2-0.3-0.2C30.3,26.1,30.2,26.1,30,26.1z"/>
	<path class="st0" d="M36.5,26.2L36.5,26.2l-2.2,0v-0.6h3.1V26l-2.3,3.1v0h2.4v0.6h-3.3v-0.4L36.5,26.2z"/>
	<path class="st0" d="M38.5,24.6v-0.7h0.7v0.7H38.5z M38.5,29.6v-4.1h0.7v4.1H38.5z"/>
	<path class="st0" d="M41.1,26.2L41.1,26.2c0.1-0.1,0.2-0.2,0.3-0.3c0.1-0.1,0.2-0.2,0.3-0.2c0.1-0.1,0.2-0.1,0.4-0.1
		c0.1,0,0.3-0.1,0.4-0.1c0.2,0,0.4,0,0.5,0.1s0.3,0.1,0.4,0.2c0.1,0.1,0.2,0.3,0.3,0.4c0.1,0.2,0.1,0.4,0.1,0.7v2.7h-0.7V27
		c0-0.4-0.1-0.6-0.2-0.8s-0.3-0.2-0.6-0.2c-0.2,0-0.4,0.1-0.7,0.2s-0.4,0.3-0.6,0.5v2.9h-0.7v-4.1H41L41.1,26.2z"/>
	<path class="st0" d="M47.2,29.7c-0.1,0-0.1,0-0.3,0.1c-0.1,0-0.3,0-0.4,0c-0.2,0-0.4,0-0.6-0.1c-0.2-0.1-0.3-0.1-0.4-0.2
		c-0.1-0.1-0.2-0.2-0.2-0.4c-0.1-0.1-0.1-0.3-0.1-0.5v-2.5h-0.8v-0.6h0.8v-1.1H46v1.1h1.2v0.6H46v2.4c0,0.1,0,0.2,0,0.3
		s0.1,0.1,0.1,0.2c0.1,0.1,0.1,0.1,0.2,0.1c0.1,0,0.2,0,0.3,0c0.1,0,0.2,0,0.3,0c0.1,0,0.2,0,0.3-0.1V29.7z"/>
	<path class="st0" d="M49.7,29.8c-0.2,0-0.4,0-0.6-0.1c-0.2,0-0.3-0.1-0.4-0.2c-0.1-0.1-0.2-0.2-0.3-0.3c-0.1-0.1-0.2-0.2-0.2-0.4
		c0-0.1-0.1-0.2-0.1-0.3c0-0.1,0-0.3,0-0.4v-2.5h0.7v2.5c0,0.2,0,0.4,0.1,0.6c0.1,0.2,0.2,0.3,0.3,0.4c0.2,0.1,0.3,0.1,0.6,0.1
		c0.3,0,0.5-0.1,0.6-0.2c0.2-0.1,0.3-0.3,0.3-0.4c0-0.1,0.1-0.3,0.1-0.5v-2.5h0.7v2.5c0,0.1,0,0.3,0,0.4c0,0.1,0,0.2-0.1,0.3
		c-0.1,0.1-0.1,0.3-0.2,0.4c-0.1,0.1-0.2,0.2-0.3,0.3c-0.1,0.1-0.3,0.2-0.5,0.2C50.1,29.7,49.9,29.8,49.7,29.8z"/>
	<path class="st0" d="M52.7,24.6v-0.7h0.7v0.7H52.7z M52.7,29.6v-4.1h0.7v4.1H52.7z"/>
	<path class="st0" d="M56.2,25.5c0.2,0,0.3,0,0.5,0.1c0.1,0,0.2,0.1,0.3,0.2c0.1,0.1,0.2,0.1,0.2,0.2c0.1,0.1,0.1,0.1,0.1,0.2h0
		l0.1-0.5H58v4.3c0,0.3-0.1,0.6-0.2,0.8c-0.1,0.2-0.2,0.4-0.4,0.6c-0.2,0.2-0.4,0.3-0.7,0.3c-0.3,0.1-0.5,0.1-0.9,0.1
		c-0.3,0-0.5,0-0.7-0.1c-0.2,0-0.4-0.1-0.5-0.2v-0.6c0.1,0,0.2,0.1,0.3,0.1c0.1,0,0.2,0.1,0.3,0.1c0.1,0,0.2,0,0.3,0
		c0.1,0,0.2,0,0.3,0c0.5,0,0.8-0.1,1.1-0.3c0.3-0.2,0.4-0.6,0.4-1v-0.5h0c-0.1,0.2-0.3,0.3-0.5,0.4c-0.2,0.1-0.4,0.1-0.7,0.1
		c-0.1,0-0.2,0-0.4,0c-0.1,0-0.3-0.1-0.4-0.1c-0.1-0.1-0.3-0.1-0.4-0.2s-0.2-0.2-0.3-0.4s-0.2-0.3-0.2-0.5c-0.1-0.2-0.1-0.4-0.1-0.7
		c0-0.4,0.1-0.7,0.2-1c0.1-0.3,0.2-0.5,0.4-0.7c0.2-0.2,0.4-0.3,0.6-0.4C55.8,25.5,56,25.5,56.2,25.5z M55.1,27.6
		c0,0.3,0,0.6,0.1,0.8c0.1,0.2,0.2,0.4,0.3,0.5c0.1,0.1,0.2,0.2,0.4,0.2c0.1,0,0.3,0.1,0.4,0.1c0.2,0,0.4,0,0.6-0.1
		c0.2-0.1,0.3-0.2,0.5-0.3v-2.1c0-0.1-0.1-0.1-0.2-0.2c-0.1-0.1-0.1-0.1-0.2-0.2c-0.1-0.1-0.2-0.1-0.3-0.1c-0.1,0-0.2-0.1-0.4-0.1
		c-0.2,0-0.4,0-0.5,0.1c-0.2,0.1-0.3,0.2-0.4,0.3c-0.1,0.1-0.2,0.3-0.2,0.5C55.2,27.2,55.1,27.4,55.1,27.6z"/>
	<path class="st0" d="M61.2,29.2c0.2,0,0.4,0,0.6-0.1c0.2,0,0.4-0.1,0.5-0.2v0.6c-0.1,0.1-0.3,0.1-0.5,0.2s-0.4,0.1-0.7,0.1
		c-0.3,0-0.6,0-0.8-0.1c-0.3-0.1-0.5-0.2-0.7-0.4c-0.2-0.2-0.3-0.4-0.4-0.6c-0.1-0.3-0.2-0.6-0.2-1c0-0.4,0.1-0.7,0.2-1
		c0.1-0.3,0.2-0.5,0.4-0.7c0.2-0.2,0.4-0.3,0.6-0.4c0.2-0.1,0.5-0.1,0.7-0.1c0.2,0,0.4,0,0.6,0.1c0.2,0.1,0.4,0.2,0.5,0.4
		c0.1,0.2,0.3,0.4,0.3,0.6c0.1,0.3,0.1,0.6,0.1,0.9c0,0,0,0.1,0,0.1c0,0,0,0.1,0,0.2h-2.8c0,0.3,0,0.5,0.1,0.7s0.2,0.3,0.3,0.4
		c0.1,0.1,0.3,0.2,0.5,0.2C60.8,29.2,61,29.2,61.2,29.2z M60.9,26.1c-0.2,0-0.3,0-0.4,0.1c-0.1,0.1-0.2,0.1-0.3,0.2
		c-0.1,0.1-0.2,0.2-0.2,0.4c-0.1,0.1-0.1,0.3-0.1,0.4h2.1c0-0.2,0-0.3-0.1-0.4c0-0.1-0.1-0.3-0.2-0.4c-0.1-0.1-0.2-0.2-0.3-0.2
		C61.2,26.1,61,26.1,60.9,26.1z"/>
	<path class="st0" d="M64.3,26.2L64.3,26.2c0.1-0.1,0.2-0.2,0.3-0.3c0.1-0.1,0.2-0.2,0.3-0.2c0.1-0.1,0.2-0.1,0.4-0.1
		c0.1,0,0.3-0.1,0.4-0.1c0.2,0,0.4,0,0.5,0.1s0.3,0.1,0.4,0.2c0.1,0.1,0.2,0.3,0.3,0.4c0.1,0.2,0.1,0.4,0.1,0.7v2.7h-0.7V27
		c0-0.4-0.1-0.6-0.2-0.8s-0.3-0.2-0.6-0.2c-0.2,0-0.4,0.1-0.7,0.2s-0.4,0.3-0.6,0.5v2.9h-0.7v-4.1h0.5L64.3,26.2z"/>
</g>
</svg>
