<?xml version="1.0" encoding="utf-8"?>
<!-- Generator: Adobe Illustrator 24.0.0, SVG Export Plug-In . SVG Version: 6.00 Build 0)  -->
<svg version="1.1" id="Laag_1" xmlns="http://www.w3.org/2000/svg" xmlns:xlink="http://www.w3.org/1999/xlink" x="0px" y="0px"
	 width="265.4px" height="47.9px" viewBox="0 0 265.4 47.9" style="enable-background:new 0 0 265.4 47.9;" xml:space="preserve">
<style type="text/css">
	.st0{fill:#000000;}
</style>
<g>
	<path class="st0" d="M5.6,18.3c-0.8,0-1.6-0.2-2.2-0.5c-0.7-0.3-1.3-0.8-1.8-1.3c-0.5-0.6-0.9-1.3-1.2-2.1S0,12.5,0,11.5
		c0-1,0.1-1.9,0.4-2.8c0.3-0.8,0.7-1.5,1.1-2.1s1.1-1.1,1.8-1.4C4,4.9,4.8,4.7,5.6,4.7c0.9,0,1.6,0.2,2.2,0.5c0.6,0.3,1,0.8,1.4,1.3
		h0.1V0h4.1v17.9H9.4v-1.7H9.4c-0.4,0.7-0.9,1.2-1.5,1.6S6.4,18.3,5.6,18.3z M6.6,15c0.9,0,1.5-0.3,2-1c0.5-0.7,0.7-1.5,0.7-2.6
		c0-0.5-0.1-1-0.2-1.5C9.1,9.5,8.9,9.1,8.7,8.8S8.2,8.2,7.9,8C7.5,7.9,7.1,7.8,6.7,7.8c-0.8,0-1.5,0.3-1.9,1
		c-0.5,0.7-0.7,1.6-0.7,2.6c0,1.1,0.2,2,0.7,2.7C5.2,14.7,5.8,15,6.6,15z"/>
	<path class="st0" d="M21.5,18.2c-1.1,0-2-0.2-2.9-0.5c-0.9-0.3-1.6-0.8-2.1-1.4c-0.6-0.6-1-1.3-1.4-2.2c-0.3-0.8-0.5-1.7-0.5-2.7
		c0-1,0.2-1.8,0.5-2.7c0.3-0.8,0.8-1.5,1.4-2.1c0.6-0.6,1.3-1.1,2.1-1.4c0.8-0.3,1.7-0.5,2.7-0.5c0.9,0,1.7,0.1,2.5,0.4
		s1.4,0.7,1.9,1.2C26.4,7,27,7.9,27.4,9c0.4,1.1,0.6,2.3,0.5,3.6h-9.2c0.1,0.9,0.4,1.5,0.9,2s1.1,0.8,2,0.8c0.5,0,1-0.1,1.3-0.3
		c0.4-0.2,0.6-0.5,0.8-0.9h4c-0.1,0.6-0.4,1.1-0.8,1.7c-0.4,0.5-0.8,1-1.4,1.4c-0.5,0.4-1.1,0.7-1.8,0.9
		C23.1,18.2,22.3,18.2,21.5,18.2z M23.8,10.1c-0.1-0.8-0.3-1.4-0.8-1.8c-0.4-0.5-1-0.7-1.7-0.7c-0.8,0-1.4,0.2-1.8,0.7
		c-0.4,0.4-0.7,1.1-0.8,1.8H23.8z"/>
	<path class="st0" d="M32.1,0h4.6l2.8,9.4c0.1,0.3,0.2,0.7,0.3,1c0.1,0.4,0.2,0.7,0.3,1c0.1,0.4,0.2,0.7,0.3,1.1h0.1
		c0.1-0.4,0.2-0.7,0.3-1.1c0.1-0.3,0.2-0.7,0.3-1c0.1-0.4,0.2-0.7,0.3-1L44,0h4.5l-5.9,17.9H38L32.1,0z"/>
	<path class="st0" d="M53.8,18.3c-1,0-2-0.2-2.8-0.5c-0.8-0.3-1.6-0.8-2.2-1.4s-1.1-1.3-1.4-2.2c-0.3-0.8-0.5-1.7-0.5-2.7
		s0.2-1.9,0.5-2.7c0.3-0.8,0.8-1.5,1.4-2.2c0.6-0.6,1.3-1.1,2.2-1.4c0.8-0.3,1.8-0.5,2.8-0.5c1,0,2,0.2,2.8,0.5
		c0.8,0.3,1.6,0.8,2.1,1.4c0.6,0.6,1.1,1.3,1.4,2.2c0.3,0.8,0.5,1.7,0.5,2.7s-0.2,1.9-0.5,2.7c-0.3,0.8-0.8,1.5-1.4,2.2
		c-0.6,0.6-1.3,1.1-2.1,1.4C55.8,18.1,54.9,18.3,53.8,18.3z M53.8,15.4c0.9,0,1.6-0.4,2-1.1c0.5-0.7,0.7-1.6,0.7-2.8
		c0-1.2-0.2-2.1-0.7-2.8c-0.5-0.7-1.1-1.1-2-1.1s-1.6,0.4-2,1.1c-0.5,0.7-0.7,1.7-0.7,2.8c0,1.2,0.2,2.1,0.7,2.8
		C52.2,15,52.9,15.4,53.8,15.4z"/>
	<path class="st0" d="M62.1,0h4.1v17.9h-4.1V0z"/>
	<path class="st0" d="M68.2,0h4v9.4L76,5.1h4.7l-4.5,4.8l5,8h-4.7l-3.1-5.2L72.2,14v3.9h-4V0z"/>
	<path class="st0" d="M87.1,18.3c-1.9,0-3.4-0.4-4.5-1.2c-1.1-0.8-1.7-1.9-1.8-3.3h3.8c0.1,0.6,0.3,1.1,0.7,1.4s0.9,0.5,1.6,0.5
		c0.6,0,1.1-0.1,1.5-0.3c0.4-0.2,0.5-0.5,0.5-1c0-0.3-0.1-0.5-0.3-0.7c-0.2-0.2-0.4-0.3-0.7-0.4c-0.3-0.1-0.6-0.2-1-0.2
		c-0.4-0.1-0.8-0.1-1.2-0.2c-0.5-0.1-1.1-0.2-1.6-0.4c-0.5-0.1-1-0.4-1.5-0.6c-0.4-0.3-0.8-0.7-1.1-1.1c-0.3-0.5-0.4-1.1-0.4-1.8
		c0-0.7,0.1-1.3,0.4-1.8s0.7-0.9,1.2-1.3C83.4,5.4,84,5.1,84.6,5c0.7-0.2,1.4-0.3,2.1-0.3c1.8,0,3.2,0.4,4.2,1.1
		c1,0.7,1.5,1.7,1.6,3h-3.8c-0.1-0.6-0.3-1-0.7-1.2c-0.4-0.2-0.8-0.3-1.4-0.3c-0.5,0-0.9,0.1-1.3,0.3C85.1,7.8,85,8.1,85,8.5
		C85,8.7,85,8.9,85.2,9c0.2,0.1,0.4,0.2,0.7,0.3c0.3,0.1,0.6,0.2,1,0.2c0.4,0.1,0.8,0.1,1.2,0.2c0.6,0.1,1.1,0.2,1.7,0.4
		c0.6,0.1,1.1,0.4,1.6,0.7c0.5,0.3,0.9,0.7,1.2,1.2c0.3,0.5,0.5,1.2,0.5,2c0,0.7-0.1,1.3-0.4,1.8c-0.3,0.5-0.7,1-1.2,1.3
		c-0.5,0.3-1.1,0.6-1.9,0.8C88.7,18.2,87.9,18.3,87.1,18.3z"/>
	<path class="st0" d="M94.3,0h4v9.4l3.8-4.3h4.7l-4.5,4.8l5,8h-4.7l-3.1-5.2L98.3,14v3.9h-4V0z"/>
	<path class="st0" d="M108.3,5.1h3.9v2h0.1c0.4-0.8,0.9-1.3,1.5-1.7c0.5-0.4,1.2-0.5,2-0.5c0.4,0,0.6,0,0.8,0.1v3.5h-0.1
		c-1.2-0.2-2.2,0-3,0.6c-0.7,0.6-1.1,1.6-1.1,3v5.8h-4.1V5.1z"/>
	<path class="st0" d="M121.3,18.2c-0.6,0-1.2-0.1-1.8-0.2c-0.5-0.2-1-0.4-1.4-0.8c-0.4-0.3-0.7-0.7-0.9-1.2c-0.2-0.5-0.3-1-0.3-1.7
		c0-0.7,0.1-1.3,0.4-1.8c0.3-0.5,0.6-0.9,1.1-1.2c0.4-0.3,1-0.5,1.6-0.7c0.6-0.2,1.2-0.3,1.9-0.4c1.2-0.2,2-0.3,2.5-0.5
		s0.7-0.5,0.7-0.9c0-0.4-0.1-0.8-0.4-1c-0.3-0.2-0.7-0.4-1.3-0.4c-0.6,0-1.1,0.1-1.5,0.4s-0.5,0.7-0.6,1.2h-3.8
		c0-0.6,0.1-1.2,0.4-1.7c0.2-0.5,0.6-1,1.1-1.4c0.5-0.4,1.1-0.7,1.8-1c0.7-0.2,1.6-0.4,2.5-0.4c1,0,1.8,0.1,2.5,0.3
		c0.7,0.2,1.2,0.4,1.7,0.8c0.6,0.4,1,0.9,1.2,1.5c0.3,0.6,0.4,1.3,0.4,2.1v6.5c0,0.5,0,0.9,0.1,1.2c0.1,0.3,0.2,0.5,0.4,0.6v0.2h-4
		c-0.1-0.1-0.2-0.3-0.2-0.6c-0.1-0.2-0.1-0.5-0.2-0.9h-0.1c-0.4,0.5-0.9,1-1.5,1.3C123,18,122.2,18.2,121.3,18.2z M122.6,15.6
		c0.8,0,1.4-0.2,1.9-0.6c0.5-0.4,0.7-1,0.7-1.7v-1.5c-0.3,0.1-0.6,0.3-0.9,0.4s-0.7,0.2-1.2,0.3c-0.8,0.2-1.4,0.4-1.7,0.6
		c-0.4,0.2-0.5,0.6-0.5,1.1c0,0.5,0.2,0.9,0.5,1.1S122.1,15.6,122.6,15.6z"/>
	<path class="st0" d="M131,5.1h3.9v1.8h0.1c0.5-0.7,1-1.2,1.7-1.6s1.4-0.5,2.3-0.5c0.7,0,1.3,0.1,1.9,0.4c0.6,0.2,1,0.6,1.4,1
		s0.7,0.9,0.9,1.5c0.2,0.6,0.3,1.2,0.3,2v8.3h-4.1v-7.5c0-0.7-0.2-1.2-0.5-1.7c-0.3-0.4-0.8-0.6-1.5-0.6c-0.7,0-1.2,0.2-1.6,0.8
		c-0.4,0.5-0.6,1.2-0.6,2v7.1H131V5.1z"/>
	<path class="st0" d="M150.1,18c-0.6,0-1.1-0.1-1.6-0.2s-0.9-0.3-1.3-0.6c-0.4-0.3-0.6-0.6-0.8-1.1c-0.2-0.5-0.3-1-0.3-1.7V7.6h-1.7
		V5.1h1.7V1h4v4h2.3v2.5H150v6c0,0.5,0.1,0.8,0.4,1c0.3,0.2,0.6,0.2,1,0.2c0.2,0,0.4,0,0.5,0c0.2,0,0.3,0,0.4,0v3
		c-0.2,0-0.5,0.1-0.8,0.1C151.1,18,150.7,18,150.1,18z"/>
</g>
<g>
	<path class="st0" d="M0.8,24h8.6c0.9,0,1.7,0.1,2.4,0.3c0.7,0.2,1.3,0.5,1.8,0.9c1,0.9,1.6,2,1.6,3.4c0,0.9-0.2,1.6-0.7,2.2
		s-1,1-1.8,1.3v0.1c1,0.3,1.8,0.8,2.3,1.6c0.6,0.8,0.9,1.7,0.9,2.8c0,0.9-0.2,1.7-0.5,2.3s-0.8,1.2-1.3,1.7
		c-1.1,0.8-2.6,1.3-4.4,1.3H0.8V24z M8.8,31.1c0.6,0,1.1-0.2,1.5-0.5c0.4-0.3,0.6-0.8,0.6-1.3c0-0.6-0.2-1-0.6-1.3s-0.9-0.5-1.5-0.5
		H5.2v3.6H8.8z M9.1,38.3c0.7,0,1.3-0.2,1.7-0.6s0.6-0.9,0.6-1.5c0-0.7-0.2-1.3-0.7-1.6c-0.5-0.4-1-0.5-1.7-0.5H5.2v4.2H9.1z"/>
	<path class="st0" d="M23.8,42.3c-1.1,0-2-0.2-2.9-0.5c-0.9-0.3-1.6-0.8-2.1-1.4c-0.6-0.6-1-1.3-1.4-2.2c-0.3-0.8-0.5-1.7-0.5-2.7
		c0-0.9,0.2-1.8,0.5-2.7c0.3-0.8,0.8-1.5,1.4-2.2c0.6-0.6,1.3-1.1,2.1-1.4c0.8-0.3,1.7-0.5,2.7-0.5c0.9,0,1.7,0.1,2.5,0.4
		s1.4,0.7,1.9,1.2c0.8,0.7,1.3,1.6,1.7,2.7c0.4,1.1,0.6,2.3,0.5,3.6H21c0.1,0.9,0.4,1.5,0.9,2s1.1,0.8,2,0.8c0.5,0,1-0.1,1.3-0.3
		c0.4-0.2,0.6-0.5,0.8-0.9h4c-0.1,0.6-0.4,1.1-0.8,1.7c-0.4,0.5-0.8,1-1.4,1.4c-0.5,0.4-1.1,0.7-1.8,0.9
		C25.4,42.2,24.7,42.3,23.8,42.3z M26.1,34.1c-0.1-0.8-0.3-1.4-0.8-1.8c-0.4-0.5-1-0.7-1.7-0.7c-0.8,0-1.4,0.2-1.8,0.7
		c-0.4,0.4-0.7,1.1-0.8,1.8H26.1z"/>
	<path class="st0" d="M37.8,42.3c-1.1,0-2-0.2-2.9-0.5c-0.9-0.3-1.6-0.8-2.1-1.4c-0.6-0.6-1-1.3-1.4-2.2c-0.3-0.8-0.5-1.7-0.5-2.7
		c0-0.9,0.2-1.8,0.5-2.7c0.3-0.8,0.8-1.5,1.4-2.2c0.6-0.6,1.3-1.1,2.1-1.4c0.8-0.3,1.7-0.5,2.7-0.5c0.9,0,1.7,0.1,2.5,0.4
		s1.4,0.7,1.9,1.2c0.8,0.7,1.3,1.6,1.7,2.7c0.4,1.1,0.6,2.3,0.5,3.6H35c0.1,0.9,0.4,1.5,0.9,2s1.1,0.8,2,0.8c0.5,0,1-0.1,1.3-0.3
		c0.4-0.2,0.6-0.5,0.8-0.9h4c-0.1,0.6-0.4,1.1-0.8,1.7c-0.4,0.5-0.8,1-1.4,1.4c-0.5,0.4-1.1,0.7-1.8,0.9
		C39.4,42.2,38.7,42.3,37.8,42.3z M40.1,34.1c-0.1-0.8-0.3-1.4-0.8-1.8c-0.4-0.5-1-0.7-1.7-0.7c-0.8,0-1.4,0.2-1.8,0.7
		c-0.4,0.4-0.7,1.1-0.8,1.8H40.1z"/>
	<path class="st0" d="M45.6,24h4.1v17.9h-4.1V24z"/>
	<path class="st0" d="M56.7,42.3c-0.8,0-1.6-0.2-2.2-0.5c-0.7-0.3-1.3-0.8-1.8-1.3s-0.9-1.3-1.2-2.1s-0.4-1.8-0.4-2.9
		c0-1,0.1-1.9,0.4-2.8s0.7-1.5,1.1-2.1s1.1-1.1,1.8-1.4c0.7-0.3,1.4-0.5,2.3-0.5c0.9,0,1.6,0.2,2.2,0.5c0.6,0.3,1,0.8,1.4,1.3h0.1
		V24h4.1v17.9h-3.9v-1.7h-0.1c-0.4,0.7-0.9,1.2-1.5,1.6S57.6,42.3,56.7,42.3z M57.8,39c0.9,0,1.5-0.3,2-1c0.5-0.7,0.7-1.5,0.7-2.6
		c0-0.5-0.1-1-0.2-1.5c-0.1-0.5-0.3-0.8-0.5-1.2c-0.2-0.3-0.5-0.6-0.8-0.8c-0.3-0.2-0.7-0.3-1.2-0.3c-0.8,0-1.5,0.3-1.9,1
		c-0.5,0.7-0.7,1.6-0.7,2.6c0,1.1,0.2,2,0.7,2.7C56.4,38.7,57,39,57.8,39z"/>
	<path class="st0" d="M72.7,42.3c-1.1,0-2-0.2-2.9-0.5c-0.9-0.3-1.6-0.8-2.1-1.4c-0.6-0.6-1-1.3-1.4-2.2c-0.3-0.8-0.5-1.7-0.5-2.7
		c0-0.9,0.2-1.8,0.5-2.7c0.3-0.8,0.8-1.5,1.4-2.2c0.6-0.6,1.3-1.1,2.1-1.4c0.8-0.3,1.7-0.5,2.7-0.5c0.9,0,1.7,0.1,2.5,0.4
		s1.4,0.7,1.9,1.2c0.8,0.7,1.3,1.6,1.7,2.7c0.4,1.1,0.6,2.3,0.5,3.6h-9.2c0.1,0.9,0.4,1.5,0.9,2s1.1,0.8,2,0.8c0.5,0,1-0.1,1.3-0.3
		c0.4-0.2,0.6-0.5,0.8-0.9h4c-0.1,0.6-0.4,1.1-0.8,1.7c-0.4,0.5-0.8,1-1.4,1.4c-0.5,0.4-1.1,0.7-1.8,0.9
		C74.2,42.2,73.5,42.3,72.7,42.3z M74.9,34.1c-0.1-0.8-0.3-1.4-0.8-1.8c-0.4-0.5-1-0.7-1.7-0.7c-0.8,0-1.4,0.2-1.8,0.7
		c-0.4,0.4-0.7,1.1-0.8,1.8H74.9z"/>
	<path class="st0" d="M80.4,29.1h3.9v1.8h0.1c0.5-0.7,1-1.2,1.7-1.6c0.6-0.4,1.4-0.5,2.3-0.5c0.7,0,1.3,0.1,1.9,0.4
		c0.6,0.2,1,0.6,1.4,1c0.4,0.4,0.7,0.9,0.9,1.5c0.2,0.6,0.3,1.2,0.3,2v8.3h-4.1v-7.5c0-0.7-0.2-1.2-0.5-1.7s-0.8-0.6-1.5-0.6
		c-0.7,0-1.2,0.2-1.6,0.8c-0.4,0.5-0.6,1.2-0.6,1.9v7.1h-4.1V29.1z"/>
	<path class="st0" d="M99.7,42.3c-0.8,0-1.6-0.2-2.2-0.5c-0.7-0.3-1.3-0.8-1.8-1.3s-0.9-1.3-1.2-2.1s-0.4-1.8-0.4-2.9
		c0-1,0.1-1.9,0.4-2.8s0.7-1.5,1.1-2.1s1.1-1.1,1.8-1.4c0.7-0.3,1.4-0.5,2.3-0.5c0.9,0,1.6,0.2,2.2,0.5c0.6,0.3,1,0.8,1.4,1.3h0.1
		V24h4.1v17.9h-3.9v-1.7h-0.1c-0.4,0.7-0.9,1.2-1.5,1.6S100.5,42.3,99.7,42.3z M100.7,39c0.9,0,1.5-0.3,2-1c0.5-0.7,0.7-1.5,0.7-2.6
		c0-0.5-0.1-1-0.2-1.5c-0.1-0.5-0.3-0.8-0.5-1.2c-0.2-0.3-0.5-0.6-0.8-0.8c-0.3-0.2-0.7-0.3-1.2-0.3c-0.8,0-1.5,0.3-1.9,1
		c-0.5,0.7-0.7,1.6-0.7,2.6c0,1.1,0.2,2,0.7,2.7C99.3,38.7,99.9,39,100.7,39z"/>
	<path class="st0" d="M115.6,42.3c-1.1,0-2-0.2-2.9-0.5c-0.9-0.3-1.6-0.8-2.1-1.4c-0.6-0.6-1-1.3-1.4-2.2c-0.3-0.8-0.5-1.7-0.5-2.7
		c0-0.9,0.2-1.8,0.5-2.7c0.3-0.8,0.8-1.5,1.4-2.2c0.6-0.6,1.3-1.1,2.1-1.4c0.8-0.3,1.7-0.5,2.7-0.5c0.9,0,1.7,0.1,2.5,0.4
		s1.4,0.7,1.9,1.2c0.8,0.7,1.3,1.6,1.7,2.7c0.4,1.1,0.6,2.3,0.5,3.6h-9.2c0.1,0.9,0.4,1.5,0.9,2s1.1,0.8,2,0.8c0.5,0,1-0.1,1.3-0.3
		c0.4-0.2,0.6-0.5,0.8-0.9h4c-0.1,0.6-0.4,1.1-0.8,1.7c-0.4,0.5-0.8,1-1.4,1.4c-0.5,0.4-1.1,0.7-1.8,0.9
		C117.2,42.2,116.4,42.3,115.6,42.3z M117.9,34.1c-0.1-0.8-0.3-1.4-0.8-1.8c-0.4-0.5-1-0.7-1.7-0.7c-0.8,0-1.4,0.2-1.8,0.7
		c-0.4,0.4-0.7,1.1-0.8,1.8H117.9z"/>
	<path class="st0" d="M127.5,24h4.4v6.5l6.1-6.5h5.2l-6.8,7.2l7.2,10.7h-5.2l-5.1-7.7l-1.5,1.6v6.2h-4.4V24z"/>
	<path class="st0" d="M148.3,42.3c-1.5,0-2.6-0.4-3.4-1.3c-0.8-0.9-1.1-2-1.1-3.5v-8.4h4v7.6c0,0.7,0.2,1.2,0.5,1.6s0.8,0.6,1.5,0.6
		c0.7,0,1.2-0.2,1.6-0.7c0.4-0.5,0.6-1.1,0.6-1.9v-7.2h4.1v12.8h-3.9v-1.6h-0.1c-0.5,0.6-1,1.1-1.6,1.5
		C150,42.1,149.2,42.3,148.3,42.3z"/>
	<path class="st0" d="M158.1,29.1h3.9v1.8h0.1c0.5-0.7,1-1.2,1.7-1.6c0.6-0.4,1.4-0.5,2.3-0.5c0.7,0,1.3,0.1,1.9,0.4
		c0.5,0.2,1,0.6,1.4,1c0.4,0.4,0.7,0.9,0.9,1.5c0.2,0.6,0.3,1.2,0.3,2v8.3h-4.1v-7.5c0-0.7-0.2-1.2-0.5-1.7
		c-0.3-0.4-0.8-0.6-1.5-0.6c-0.7,0-1.2,0.2-1.6,0.8c-0.4,0.5-0.6,1.2-0.6,1.9v7.1h-4.1V29.1z"/>
	<path class="st0" d="M177.8,42.3c-1.9,0-3.4-0.4-4.5-1.2c-1.1-0.8-1.7-1.9-1.8-3.3h3.8c0.1,0.6,0.3,1.1,0.7,1.4s0.9,0.5,1.6,0.5
		c0.6,0,1.1-0.1,1.5-0.3c0.4-0.2,0.5-0.5,0.5-0.9c0-0.3-0.1-0.5-0.3-0.7s-0.4-0.3-0.7-0.4c-0.3-0.1-0.6-0.2-1-0.2
		c-0.4-0.1-0.8-0.1-1.2-0.2c-0.5-0.1-1.1-0.2-1.7-0.4c-0.5-0.1-1-0.4-1.5-0.6c-0.4-0.3-0.8-0.7-1.1-1.1c-0.3-0.5-0.4-1.1-0.4-1.8
		c0-0.7,0.1-1.3,0.4-1.8c0.3-0.5,0.7-0.9,1.2-1.3c0.5-0.3,1.1-0.6,1.8-0.8c0.7-0.2,1.4-0.3,2.1-0.3c1.8,0,3.2,0.4,4.2,1.1
		c1,0.7,1.5,1.7,1.6,3h-3.8c-0.1-0.6-0.3-1-0.7-1.2c-0.4-0.2-0.8-0.3-1.4-0.3c-0.5,0-0.9,0.1-1.3,0.3c-0.3,0.2-0.5,0.5-0.5,0.9
		c0,0.2,0.1,0.4,0.2,0.6c0.2,0.1,0.4,0.2,0.7,0.3c0.3,0.1,0.6,0.2,1,0.2s0.8,0.1,1.2,0.2c0.6,0.1,1.1,0.2,1.7,0.4
		c0.6,0.1,1.1,0.4,1.6,0.7c0.5,0.3,0.9,0.7,1.2,1.2c0.3,0.5,0.4,1.2,0.4,2c0,0.7-0.1,1.3-0.4,1.8c-0.3,0.5-0.7,1-1.2,1.3
		s-1.1,0.6-1.9,0.8S178.6,42.3,177.8,42.3z"/>
	<path class="st0" d="M189.6,42c-0.6,0-1.1-0.1-1.6-0.2c-0.5-0.1-0.9-0.3-1.3-0.6c-0.4-0.3-0.6-0.6-0.9-1.1c-0.2-0.5-0.3-1-0.3-1.7
		v-6.9h-1.7v-2.6h1.7v-4h4v4h2.3v2.6h-2.3v6c0,0.5,0.1,0.8,0.4,1c0.3,0.2,0.6,0.2,1,0.2c0.2,0,0.4,0,0.5,0c0.2,0,0.3,0,0.4,0v3
		c-0.2,0.1-0.5,0.1-0.8,0.1C190.6,42,190.2,42,189.6,42z"/>
	<path class="st0" d="M197.4,24h8c1.1,0,2.1,0.1,2.8,0.4c0.8,0.3,1.5,0.7,2,1.2c0.6,0.5,1,1.2,1.3,1.9s0.5,1.6,0.5,2.5
		c0,0.9-0.1,1.6-0.4,2.4s-0.7,1.3-1.2,1.8c-0.5,0.5-1.2,0.9-1.9,1.2c-0.8,0.3-1.6,0.4-2.5,0.4h-4.2v6h-4.5V24z M205.2,32.4
		c0.8,0,1.4-0.2,1.9-0.7c0.4-0.4,0.6-1,0.6-1.7s-0.2-1.3-0.6-1.7c-0.4-0.4-1-0.6-1.9-0.6h-3.3v4.7H205.2z"/>
	<path class="st0" d="M213.5,29.1h3.9v2h0.1c0.5-0.8,1-1.3,1.5-1.7c0.6-0.4,1.2-0.5,2-0.5c0.4,0,0.7,0,0.8,0.1v3.5h-0.1
		c-1.2-0.2-2.2,0-3,0.6c-0.7,0.6-1.1,1.6-1.1,3v5.8h-4.1V29.1z"/>
	<path class="st0" d="M223.1,24h4.1v3.3h-4.1V24z M223.1,29.1h4.1v12.8h-4.1V29.1z"/>
	<path class="st0" d="M229.2,46.2c-0.4,0-0.7,0-1.2,0s-0.8-0.1-1.1-0.2v-2.8c0.3,0,0.7,0,0.9,0c0.3,0,0.5-0.1,0.7-0.2
		c0.2-0.1,0.3-0.2,0.4-0.4c0.1-0.2,0.1-0.4,0.1-0.8V29.1h4.1V42c0,0.8-0.1,1.5-0.3,2c-0.2,0.5-0.4,0.9-0.7,1.2
		c-0.4,0.4-0.8,0.6-1.3,0.8C230.4,46.1,229.9,46.2,229.2,46.2z M229.1,24h4.1v3.3h-4.1V24z"/>
	<path class="st0" d="M240.6,42.3c-1.9,0-3.4-0.4-4.5-1.2s-1.7-1.9-1.8-3.3h3.8c0.1,0.6,0.3,1.1,0.7,1.4c0.4,0.3,0.9,0.5,1.6,0.5
		c0.6,0,1.1-0.1,1.5-0.3c0.4-0.2,0.5-0.5,0.5-0.9c0-0.3-0.1-0.5-0.3-0.7c-0.2-0.2-0.4-0.3-0.7-0.4c-0.3-0.1-0.6-0.2-1-0.2
		c-0.4-0.1-0.8-0.1-1.2-0.2c-0.5-0.1-1.1-0.2-1.6-0.4c-0.5-0.1-1-0.4-1.5-0.6s-0.8-0.7-1.1-1.1c-0.3-0.5-0.4-1.1-0.4-1.8
		c0-0.7,0.1-1.3,0.4-1.8c0.3-0.5,0.7-0.9,1.2-1.3c0.5-0.3,1.1-0.6,1.8-0.8c0.7-0.2,1.4-0.3,2.1-0.3c1.8,0,3.2,0.4,4.2,1.1
		c1,0.7,1.5,1.7,1.6,3h-3.8c-0.1-0.6-0.3-1-0.7-1.2c-0.4-0.2-0.8-0.3-1.4-0.3c-0.5,0-0.9,0.1-1.3,0.3c-0.3,0.2-0.5,0.5-0.5,0.9
		c0,0.2,0.1,0.4,0.2,0.6c0.2,0.1,0.4,0.2,0.7,0.3c0.3,0.1,0.6,0.2,1,0.2s0.8,0.1,1.2,0.2c0.6,0.1,1.1,0.2,1.7,0.4
		c0.6,0.1,1.1,0.4,1.6,0.7c0.5,0.3,0.9,0.7,1.2,1.2c0.3,0.5,0.5,1.2,0.5,2c0,0.7-0.1,1.3-0.4,1.8s-0.7,1-1.2,1.3
		c-0.5,0.3-1.1,0.6-1.9,0.8C242.2,42.2,241.4,42.3,240.6,42.3z"/>
</g>
<g>
	<path class="st0" d="M256.9,22h3.4v3.9l3.3-1.9l1.7,2.9l-3.3,1.9l3.3,1.9l-1.7,2.9l-3.3-1.9v3.8h-3.4v-3.8l-3.3,1.9l-1.7-2.9
		l3.3-1.9l-3.3-1.9l1.7-2.9l3.3,1.9V22z"/>
</g>
</svg>
