<?xml version="1.0" encoding="utf-8"?>
<!-- Generator: Adobe Illustrator 22.1.0, SVG Export Plug-In . SVG Version: 6.00 Build 0)  -->
<svg version="1.1" id="Layer_1" xmlns="http://www.w3.org/2000/svg" xmlns:xlink="http://www.w3.org/1999/xlink" x="0px" y="0px"
	 width="359.5px" height="144.3px" viewBox="0 0 359.5 144.3" style="enable-background:new 0 0 359.5 144.3;" xml:space="preserve"
	>
<style type="text/css">
	.st0{fill:#FFFFFF;}
	.st1{clip-path:url(#SVGID_2_);fill:url(#SVGID_3_);}
	.st2{clip-path:url(#SVGID_5_);fill:url(#SVGID_6_);}
	.st3{clip-path:url(#SVGID_8_);fill:url(#SVGID_9_);}
	.st4{clip-path:url(#SVGID_11_);fill:url(#SVGID_12_);}
	.st5{clip-path:url(#SVGID_14_);fill:url(#SVGID_15_);}
	.st6{clip-path:url(#SVGID_17_);fill:url(#SVGID_18_);}
	.st7{clip-path:url(#SVGID_20_);fill:url(#SVGID_21_);}
	.st8{clip-path:url(#SVGID_23_);fill:url(#SVGID_24_);}
	.st9{clip-path:url(#SVGID_26_);fill:url(#SVGID_27_);}
	.st10{clip-path:url(#SVGID_29_);fill:url(#SVGID_30_);}
	.st11{clip-path:url(#SVGID_32_);fill:url(#SVGID_33_);}
	.st12{clip-path:url(#SVGID_35_);fill:url(#SVGID_36_);}
	.st13{clip-path:url(#SVGID_38_);fill:url(#SVGID_39_);}
	.st14{clip-path:url(#SVGID_41_);fill:url(#SVGID_42_);}
	.st15{clip-path:url(#SVGID_44_);fill:url(#SVGID_45_);}
	.st16{clip-path:url(#SVGID_47_);fill:url(#SVGID_48_);}
	.st17{clip-path:url(#SVGID_50_);fill:url(#SVGID_51_);}
	.st18{clip-path:url(#SVGID_53_);fill:url(#SVGID_54_);}
	.st19{clip-path:url(#SVGID_56_);fill:url(#SVGID_57_);}
	.st20{clip-path:url(#SVGID_59_);fill:url(#SVGID_60_);}
	.st21{clip-path:url(#SVGID_62_);fill:url(#SVGID_63_);}
	.st22{clip-path:url(#SVGID_65_);fill:url(#SVGID_66_);}
	.st23{clip-path:url(#SVGID_68_);fill:url(#SVGID_69_);}
	.st24{clip-path:url(#SVGID_71_);fill:url(#SVGID_72_);}
	.st25{clip-path:url(#SVGID_74_);fill:url(#SVGID_75_);}
	.st26{clip-path:url(#SVGID_77_);fill:url(#SVGID_78_);}
	.st27{clip-path:url(#SVGID_80_);fill:url(#SVGID_81_);}
	.st28{clip-path:url(#SVGID_83_);fill:url(#SVGID_84_);}
	.st29{clip-path:url(#SVGID_86_);fill:url(#SVGID_87_);}
	.st30{clip-path:url(#SVGID_89_);fill:url(#SVGID_90_);}
	.st31{clip-path:url(#SVGID_92_);fill:url(#SVGID_93_);}
	.st32{clip-path:url(#SVGID_95_);fill:url(#SVGID_96_);}
	.st33{clip-path:url(#SVGID_98_);fill:url(#SVGID_99_);}
	.st34{clip-path:url(#SVGID_101_);}
	.st35{filter:url(#Adobe_OpacityMaskFilter);}
	.st36{clip-path:url(#SVGID_103_);fill:url(#SVGID_105_);}
	.st37{clip-path:url(#SVGID_103_);mask:url(#SVGID_104_);fill:url(#SVGID_106_);}
	.st38{clip-path:url(#SVGID_108_);}
	.st39{filter:url(#Adobe_OpacityMaskFilter_1_);}
	.st40{clip-path:url(#SVGID_110_);fill:url(#SVGID_112_);}
	.st41{clip-path:url(#SVGID_110_);mask:url(#SVGID_111_);fill:url(#SVGID_113_);}
</style>
<rect class="st0" width="359.5" height="144.3"/>
<g>
	<g>
		<path d="M170.6,93.9c1.6,0,2.5,1,2.5,2.5v1.5c0,1.4-0.9,2.5-2.5,2.5h-2.4v-6.5H170.6z M172.4,97.8v-1.5c0-1.1-0.7-1.9-1.9-1.9
			h-1.6v5.3h1.6C171.8,99.7,172.4,99,172.4,97.8"/>
		<rect x="175.1" y="93.9" width="0.7" height="6.5"/>
		<path d="M177.8,98.5v-0.2h0.7v0.1c0,0.8,0.7,1.4,1.7,1.4c1.1,0,1.7-0.5,1.7-1.3c0-0.5-0.3-0.9-0.9-1.1l-1.8-0.5
			c-0.9-0.2-1.3-0.8-1.3-1.5c0-1.1,0.9-1.8,2.2-1.8s2.3,0.7,2.3,1.8v0.2h-0.7v-0.1c0-0.8-0.6-1.3-1.6-1.3c-0.9,0-1.5,0.4-1.5,1.2
			c0,0.5,0.2,0.8,0.8,1l1.9,0.5c0.8,0.2,1.4,0.7,1.4,1.6c0,1.2-1,1.9-2.4,1.9C178.8,100.4,177.8,99.7,177.8,98.5"/>
		<path d="M184.3,97.6v-1.1c0-1.6,0.9-2.8,2.7-2.8c1.5,0,2.4,1,2.5,2.3h-0.7c-0.1-0.9-0.7-1.7-1.9-1.7c-1.3,0-2,0.9-2,2.2v1.1
			c0,1.3,0.6,2.2,2,2.2c1.2,0,1.8-0.8,1.9-1.7h0.7c-0.1,1.2-1.1,2.3-2.5,2.3C185.2,100.4,184.3,99.2,184.3,97.6"/>
		<path d="M193.9,100.4c-1.8,0-2.7-1.3-2.7-2.8v-1c0-1.6,0.9-2.8,2.7-2.8c1.8,0,2.7,1.3,2.7,2.8v1
			C196.6,99.2,195.7,100.4,193.9,100.4 M195.9,97.6v-1.1c0-1.2-0.6-2.2-2-2.2c-1.4,0-2,1-2,2.2v1.1c0,1.2,0.6,2.2,2,2.2
			C195.3,99.8,195.9,98.9,195.9,97.6"/>
		<polygon points="198,93.9 198.7,93.9 200.6,99.6 202.6,93.9 203.3,93.9 201,100.3 200.2,100.3 		"/>
		<polygon points="204.8,93.9 209.1,93.9 209.1,94.5 205.5,94.5 205.5,96.8 208.8,96.8 208.8,97.4 205.5,97.4 205.5,99.7 
			209.1,99.7 209.1,100.3 204.8,100.3 		"/>
		<path d="M210.9,93.9h2.7c1.4,0,2.2,0.9,2.2,2.1c0,0.9-0.5,1.7-1.4,1.9l1.4,2.5h-0.8l-1.3-2.4h-2v2.4h-0.7V93.9z M213.5,97.4
			c1,0,1.5-0.6,1.5-1.5c0-0.8-0.5-1.5-1.5-1.5h-1.9v2.9H213.5z"/>
		<polygon points="219.2,97.9 216.9,93.9 217.6,93.9 219.5,97.2 221.4,93.9 222.2,93.9 219.9,97.9 219.9,100.3 219.2,100.3 		"/>
		<path d="M225.9,97.6v-1.1c0-1.6,0.9-2.8,2.7-2.8c1.5,0,2.4,1,2.5,2.3h-0.7c-0.1-0.9-0.7-1.7-1.9-1.7c-1.3,0-2,0.9-2,2.2v1.1
			c0,1.3,0.6,2.2,2,2.2c1.2,0,1.8-0.8,1.9-1.7h0.7c-0.1,1.2-1.1,2.3-2.5,2.3C226.8,100.4,225.9,99.2,225.9,97.6"/>
		<polygon points="233,93.9 237.3,93.9 237.3,94.5 233.8,94.5 233.8,96.8 237,96.8 237,97.4 233.8,97.4 233.8,99.7 237.3,99.7 
			237.3,100.3 233,100.3 		"/>
		<polygon points="239.1,93.9 239.8,93.9 243.3,99.2 243.3,93.9 244,93.9 244,100.3 243.4,100.3 239.8,95 239.8,100.3 239.1,100.3 
					"/>
		<polygon points="247.6,94.5 245.6,94.5 245.6,93.9 250.3,93.9 250.3,94.5 248.3,94.5 248.3,100.3 247.6,100.3 		"/>
		<polygon points="251.8,93.9 256.1,93.9 256.1,94.5 252.5,94.5 252.5,96.8 255.8,96.8 255.8,97.4 252.5,97.4 252.5,99.7 
			256.1,99.7 256.1,100.3 251.8,100.3 		"/>
		<path d="M257.9,93.9h2.7c1.4,0,2.2,0.9,2.2,2.1c0,0.9-0.5,1.7-1.4,1.9l1.4,2.5h-0.8l-1.3-2.4h-2v2.4h-0.7V93.9z M260.5,97.4
			c1,0,1.5-0.6,1.5-1.5c0-0.8-0.5-1.5-1.5-1.5h-1.9v2.9H260.5z"/>
	</g>
	<g>
		<defs>
			<path id="SVGID_1_" d="M100.9,69.8v3.7c0,7.7,4.4,12.8,13.5,12.8c8,0,12.4-5.2,12.6-11.5h-8.4c-0.2,2.1-1.3,4.2-4.4,4.2
				c-3,0-4.5-2-4.5-5.1v-4.5c0-3.1,1.5-5.1,4.5-5.1c3.1,0,4.2,2.1,4.4,4.2h8.4c-0.2-6.4-4.6-11.5-12.6-11.5
				C105.3,57,100.9,62.1,100.9,69.8"/>
		</defs>
		<clipPath id="SVGID_2_">
			<use xlink:href="#SVGID_1_"  style="overflow:visible;"/>
		</clipPath>
		
			<linearGradient id="SVGID_3_" gradientUnits="userSpaceOnUse" x1="-437.771" y1="320.1818" x2="-437.4801" y2="320.1818" gradientTransform="matrix(-940.505 0 0 940.505 -411380.6875 -301060.9062)">
			<stop  offset="0" style="stop-color:#E4032E"/>
			<stop  offset="0.4999" style="stop-color:#E4032E"/>
			<stop  offset="0.5616" style="stop-color:#E5252C"/>
			<stop  offset="0.8592" style="stop-color:#EC671A"/>
			<stop  offset="1" style="stop-color:#EF7D00"/>
		</linearGradient>
		<rect x="100.9" y="57" class="st1" width="26.1" height="29.4"/>
	</g>
	<g>
		<defs>
			<path id="SVGID_4_" d="M138.6,74v-4.6c0-3.3,1.6-5,4.6-5c3,0,4.6,1.8,4.6,5V74c0,3.3-1.7,5-4.6,5C140.2,79,138.6,77.2,138.6,74
				 M129.7,69.9v3.5c0,7.7,4.7,12.9,13.5,12.9c8.8,0,13.5-5.2,13.5-12.9v-3.5c0-7.7-4.6-12.9-13.5-12.9
				C134.4,57,129.7,62.2,129.7,69.9"/>
		</defs>
		<clipPath id="SVGID_5_">
			<use xlink:href="#SVGID_4_"  style="overflow:visible;"/>
		</clipPath>
		
			<linearGradient id="SVGID_6_" gradientUnits="userSpaceOnUse" x1="-437.7704" y1="320.1825" x2="-437.4798" y2="320.1825" gradientTransform="matrix(-940.5018 0 0 940.5018 -411379.0312 -301060.5625)">
			<stop  offset="0" style="stop-color:#E4032E"/>
			<stop  offset="0.4999" style="stop-color:#E4032E"/>
			<stop  offset="0.5616" style="stop-color:#E5252C"/>
			<stop  offset="0.8592" style="stop-color:#EC671A"/>
			<stop  offset="1" style="stop-color:#EF7D00"/>
		</linearGradient>
		<rect x="129.7" y="57" class="st2" width="27" height="29.4"/>
	</g>
	<g>
		<defs>
			<polygon id="SVGID_7_" points="176.9,57.5 176.9,70.8 168.6,57.5 160.2,57.5 160.2,85.8 168.8,85.8 168.8,72.5 177.2,85.8 
				185.6,85.8 185.6,57.5 			"/>
		</defs>
		<clipPath id="SVGID_8_">
			<use xlink:href="#SVGID_7_"  style="overflow:visible;"/>
		</clipPath>
		
			<linearGradient id="SVGID_9_" gradientUnits="userSpaceOnUse" x1="-437.7713" y1="320.1819" x2="-437.4809" y2="320.1819" gradientTransform="matrix(-940.498 0 0 940.498 -411378.0938 -301058.7188)">
			<stop  offset="0" style="stop-color:#E4032E"/>
			<stop  offset="0.4999" style="stop-color:#E4032E"/>
			<stop  offset="0.5616" style="stop-color:#E5252C"/>
			<stop  offset="0.8592" style="stop-color:#EC671A"/>
			<stop  offset="1" style="stop-color:#EF7D00"/>
		</linearGradient>
		<rect x="160.2" y="57.5" class="st3" width="25.3" height="28.2"/>
	</g>
	<g>
		<defs>
			<polygon id="SVGID_10_" points="188.6,57.5 188.6,65 195.7,65 195.7,85.8 204.5,85.8 204.5,65 211.7,65 211.7,57.5 			"/>
		</defs>
		<clipPath id="SVGID_11_">
			<use xlink:href="#SVGID_10_"  style="overflow:visible;"/>
		</clipPath>
		
			<linearGradient id="SVGID_12_" gradientUnits="userSpaceOnUse" x1="-437.772" y1="320.182" x2="-437.4798" y2="320.182" gradientTransform="matrix(-940.5018 0 0 940.5018 -411379.5312 -301060.0625)">
			<stop  offset="0" style="stop-color:#E4032E"/>
			<stop  offset="0.4999" style="stop-color:#E4032E"/>
			<stop  offset="0.5616" style="stop-color:#E5252C"/>
			<stop  offset="0.8592" style="stop-color:#EC671A"/>
			<stop  offset="1" style="stop-color:#EF7D00"/>
		</linearGradient>
		<rect x="188.6" y="57.5" class="st4" width="23.1" height="28.2"/>
	</g>
	<g>
		<defs>
			<rect id="SVGID_13_" x="214.8" y="57.5" width="8.8" height="28.2"/>
		</defs>
		<clipPath id="SVGID_14_">
			<use xlink:href="#SVGID_13_"  style="overflow:visible;"/>
		</clipPath>
		
			<linearGradient id="SVGID_15_" gradientUnits="userSpaceOnUse" x1="-437.7713" y1="320.1821" x2="-437.48" y2="320.1821" gradientTransform="matrix(-940.5025 0 0 940.5025 -411379.6562 -301060.375)">
			<stop  offset="0" style="stop-color:#E4032E"/>
			<stop  offset="0.4999" style="stop-color:#E4032E"/>
			<stop  offset="0.5616" style="stop-color:#E5252C"/>
			<stop  offset="0.8592" style="stop-color:#EC671A"/>
			<stop  offset="1" style="stop-color:#EF7D00"/>
		</linearGradient>
		<rect x="214.8" y="57.5" class="st5" width="8.8" height="28.2"/>
	</g>
	<g>
		<defs>
			<polygon id="SVGID_16_" points="244.8,57.5 244.8,70.8 236.5,57.5 228.1,57.5 228.1,85.8 236.8,85.8 236.8,72.5 245.1,85.8 
				253.4,85.8 253.4,57.5 			"/>
		</defs>
		<clipPath id="SVGID_17_">
			<use xlink:href="#SVGID_16_"  style="overflow:visible;"/>
		</clipPath>
		
			<linearGradient id="SVGID_18_" gradientUnits="userSpaceOnUse" x1="-437.7714" y1="320.1816" x2="-437.4811" y2="320.1816" gradientTransform="matrix(-940.5048 0 0 940.5048 -411381.0625 -301060.7188)">
			<stop  offset="0" style="stop-color:#E4032E"/>
			<stop  offset="0.4999" style="stop-color:#E4032E"/>
			<stop  offset="0.5616" style="stop-color:#E5252C"/>
			<stop  offset="0.8592" style="stop-color:#EC671A"/>
			<stop  offset="1" style="stop-color:#EF7D00"/>
		</linearGradient>
		<rect x="228.1" y="57.5" class="st6" width="25.3" height="28.2"/>
	</g>
	<g>
		<defs>
			<rect id="SVGID_19_" x="258" y="57.5" width="8.8" height="28.2"/>
		</defs>
		<clipPath id="SVGID_20_">
			<use xlink:href="#SVGID_19_"  style="overflow:visible;"/>
		</clipPath>
		
			<linearGradient id="SVGID_21_" gradientUnits="userSpaceOnUse" x1="-437.7719" y1="320.182" x2="-437.4801" y2="320.182" gradientTransform="matrix(-940.5015 0 0 940.5015 -411379.625 -301060)">
			<stop  offset="0" style="stop-color:#E4032E"/>
			<stop  offset="0.4999" style="stop-color:#E4032E"/>
			<stop  offset="0.5616" style="stop-color:#E5252C"/>
			<stop  offset="0.8592" style="stop-color:#EC671A"/>
			<stop  offset="1" style="stop-color:#EF7D00"/>
		</linearGradient>
		<rect x="258" y="57.5" class="st7" width="8.8" height="28.2"/>
	</g>
	<g>
		<defs>
			<path id="SVGID_22_" d="M287.7,57.5V75c0,2.9-1.6,3.9-3.9,3.9c-2.2,0-3.9-1.1-3.9-3.9V57.5h-8.8V75c0,7,4.8,11.3,12.7,11.3
				c7.9,0,12.7-4.3,12.7-11.3V57.5H287.7z"/>
		</defs>
		<clipPath id="SVGID_23_">
			<use xlink:href="#SVGID_22_"  style="overflow:visible;"/>
		</clipPath>
		
			<linearGradient id="SVGID_24_" gradientUnits="userSpaceOnUse" x1="-437.7707" y1="320.1824" x2="-437.4809" y2="320.1824" gradientTransform="matrix(-940.5051 0 0 940.5051 -411380.4688 -301061.2812)">
			<stop  offset="0" style="stop-color:#E4032E"/>
			<stop  offset="0.4999" style="stop-color:#E4032E"/>
			<stop  offset="0.5616" style="stop-color:#E5252C"/>
			<stop  offset="0.8592" style="stop-color:#EC671A"/>
			<stop  offset="1" style="stop-color:#EF7D00"/>
		</linearGradient>
		<rect x="271.1" y="57.5" class="st8" width="25.4" height="28.8"/>
	</g>
	<g>
		<defs>
			<polygon id="SVGID_25_" points="321.9,57.5 315.4,71.3 308.8,57.5 300.8,57.5 300.8,85.8 309.2,85.8 309.2,74.2 312.1,79.8 
				318.7,79.8 321.6,74.2 321.6,85.8 330,85.8 330,57.5 			"/>
		</defs>
		<clipPath id="SVGID_26_">
			<use xlink:href="#SVGID_25_"  style="overflow:visible;"/>
		</clipPath>
		
			<linearGradient id="SVGID_27_" gradientUnits="userSpaceOnUse" x1="-437.7715" y1="320.1817" x2="-437.481" y2="320.1817" gradientTransform="matrix(-940.5023 0 0 940.5023 -411380.0312 -301060)">
			<stop  offset="0" style="stop-color:#E4032E"/>
			<stop  offset="0.4999" style="stop-color:#E4032E"/>
			<stop  offset="0.5616" style="stop-color:#E5252C"/>
			<stop  offset="0.8592" style="stop-color:#EC671A"/>
			<stop  offset="1" style="stop-color:#EF7D00"/>
		</linearGradient>
		<rect x="300.8" y="57.5" class="st9" width="29.2" height="28.2"/>
	</g>
	<g>
		<defs>
			<path id="SVGID_28_" d="M51.7,32.4c-2.4,1.5-4.7,3.2-6.8,5.1c-3.9,4.2-5.9,10.1-4.6,18.1c2.8,16.2-5.7,18.4-6.2,27.7
				c-0.5,9.2,6.4,18,10.6,22.6c3.8,3.4,8.1,6.3,12.9,8.3v-12.8c-5.3-4-7.9-10.7-9.3-18.8c-0.1-0.6-0.2-1.2-0.3-1.8
				c-0.7-2.2-1.2-4.6-1.4-7c-0.5-6.9,1.5-13.4,5.1-18.6c-0.1-4.5,1.1-9,5.8-12.5V29.9C55.6,30.6,53.6,31.4,51.7,32.4"/>
		</defs>
		<clipPath id="SVGID_29_">
			<use xlink:href="#SVGID_28_"  style="overflow:visible;"/>
		</clipPath>
		
			<radialGradient id="SVGID_30_" cx="-437.2565" cy="319.2079" r="0.2912" gradientTransform="matrix(130.7301 -130.7301 -130.7301 -130.7301 98969.6719 -15362.0566)" gradientUnits="userSpaceOnUse">
			<stop  offset="0" style="stop-color:#E4032E"/>
			<stop  offset="0.5778" style="stop-color:#E4032E"/>
			<stop  offset="0.6299" style="stop-color:#E5252C"/>
			<stop  offset="0.8811" style="stop-color:#EC671A"/>
			<stop  offset="1" style="stop-color:#EF7D00"/>
		</radialGradient>
		<polygon class="st10" points="-8.5,72 45.7,17.9 99.8,72 45.7,126.2 		"/>
	</g>
	<g>
		<defs>
			<path id="SVGID_31_" d="M48.4,82.6c1.4,8,4,14.7,9.3,18.8v-6.9c-4.4-3.5-7.8-8.3-9.6-13.7C48.2,81.4,48.3,82,48.4,82.6"/>
		</defs>
		<clipPath id="SVGID_32_">
			<use xlink:href="#SVGID_31_"  style="overflow:visible;"/>
		</clipPath>
		
			<radialGradient id="SVGID_33_" cx="-437.2566" cy="319.2079" r="0.291" gradientTransform="matrix(130.7296 -130.7296 -130.7296 -130.7296 98969.2891 -15361.9912)" gradientUnits="userSpaceOnUse">
			<stop  offset="0" style="stop-color:#E21830"/>
			<stop  offset="0.5778" style="stop-color:#E21830"/>
			<stop  offset="0.6041" style="stop-color:#E3232F"/>
			<stop  offset="0.8728" style="stop-color:#E9661C"/>
			<stop  offset="1" style="stop-color:#EC7B01"/>
		</radialGradient>
		<polygon class="st11" points="37.8,91.1 52.9,76 68,91.1 52.9,106.2 		"/>
	</g>
	<g>
		<defs>
			<path id="SVGID_34_" d="M48.4,82.6c1.4,8,4,14.7,9.3,18.8v-6.9c-4.4-3.5-7.8-8.3-9.6-13.7C48.2,81.4,48.3,82,48.4,82.6"/>
		</defs>
		<clipPath id="SVGID_35_">
			<use xlink:href="#SVGID_34_"  style="overflow:visible;"/>
		</clipPath>
		
			<linearGradient id="SVGID_36_" gradientUnits="userSpaceOnUse" x1="-436.5427" y1="323.9404" x2="-436.2517" y2="323.9404" gradientTransform="matrix(35.8197 69.8024 69.8024 -35.8197 -6927.6997 42155.3086)">
			<stop  offset="0" style="stop-color:#E4032E"/>
			<stop  offset="1" style="stop-color:#831F82"/>
		</linearGradient>
		<polygon class="st12" points="55.7,76.9 66.1,97.1 50.1,105.3 39.7,85.1 		"/>
	</g>
	<g>
		<defs>
			<path id="SVGID_37_" d="M51.7,32.4c1.9-1,3.9-1.8,5.9-2.4v-0.7C55.6,30.2,53.6,31.2,51.7,32.4"/>
		</defs>
		<clipPath id="SVGID_38_">
			<use xlink:href="#SVGID_37_"  style="overflow:visible;"/>
		</clipPath>
		
			<radialGradient id="SVGID_39_" cx="-437.2596" cy="319.2051" r="0.2901" gradientTransform="matrix(130.73 -130.73 -130.73 -130.73 98969.5234 -15362.9434)" gradientUnits="userSpaceOnUse">
			<stop  offset="0" style="stop-color:#E21830"/>
			<stop  offset="0.5778" style="stop-color:#E21830"/>
			<stop  offset="0.6041" style="stop-color:#E3232F"/>
			<stop  offset="0.8728" style="stop-color:#E9661C"/>
			<stop  offset="1" style="stop-color:#EC7B01"/>
		</radialGradient>
		<polygon class="st13" points="50.2,30.8 54.7,26.3 59.2,30.8 54.7,35.3 		"/>
	</g>
	<g>
		<defs>
			<path id="SVGID_40_" d="M51.7,32.4c1.9-1,3.9-1.8,5.9-2.4v-0.7C55.6,30.2,53.6,31.2,51.7,32.4"/>
		</defs>
		<clipPath id="SVGID_41_">
			<use xlink:href="#SVGID_40_"  style="overflow:visible;"/>
		</clipPath>
		
			<radialGradient id="SVGID_42_" cx="-436.2086" cy="320.0935" r="0.2911" gradientTransform="matrix(137.7952 0 0 -137.7952 60174.5312 44174.7383)" gradientUnits="userSpaceOnUse">
			<stop  offset="0" style="stop-color:#E4032E"/>
			<stop  offset="0.4999" style="stop-color:#E4032E"/>
			<stop  offset="0.5367" style="stop-color:#E5252C"/>
			<stop  offset="0.7139" style="stop-color:#EC671A"/>
			<stop  offset="0.7978" style="stop-color:#EF7D00"/>
			<stop  offset="1" style="stop-color:#FDC62F"/>
		</radialGradient>
		<rect x="51.7" y="29.3" class="st14" width="5.9" height="3.1"/>
	</g>
	<g>
		<defs>
			<path id="SVGID_43_" d="M29.7,69.5c-0.7,14.4,5.3,27.4,15,36.3c-4.2-4.6-11.1-13.5-10.6-22.6c0.5-9.3,9-11.5,6.2-27.7
				c-1.4-8,0.7-13.8,4.6-18.1C36.1,45.5,30.3,56.9,29.7,69.5"/>
		</defs>
		<clipPath id="SVGID_44_">
			<use xlink:href="#SVGID_43_"  style="overflow:visible;"/>
		</clipPath>
		
			<radialGradient id="SVGID_45_" cx="-437.257" cy="319.207" r="0.2911" gradientTransform="matrix(130.7303 -130.7303 -130.7303 -130.7303 98969.7812 -15362.2832)" gradientUnits="userSpaceOnUse">
			<stop  offset="0" style="stop-color:#E21830"/>
			<stop  offset="0.5778" style="stop-color:#E21830"/>
			<stop  offset="0.6041" style="stop-color:#E3232F"/>
			<stop  offset="0.8728" style="stop-color:#E9661C"/>
			<stop  offset="1" style="stop-color:#EC7B01"/>
		</radialGradient>
		<polygon class="st15" points="-5.1,71.7 37,29.5 79.2,71.7 37,113.8 		"/>
	</g>
	<g>
		<defs>
			<path id="SVGID_46_" d="M29.7,69.5c-0.7,14.4,5.3,27.4,15,36.3c-4.2-4.6-11.1-13.5-10.6-22.6c0.5-9.3,9-11.5,6.2-27.7
				c-1.4-8,0.7-13.8,4.6-18.1C36.1,45.5,30.3,56.9,29.7,69.5"/>
		</defs>
		<clipPath id="SVGID_47_">
			<use xlink:href="#SVGID_46_"  style="overflow:visible;"/>
		</clipPath>
		
			<radialGradient id="SVGID_48_" cx="-436.209" cy="320.0934" r="0.2909" gradientTransform="matrix(137.795 0 0 -137.795 60174.5156 44174.6094)" gradientUnits="userSpaceOnUse">
			<stop  offset="0" style="stop-color:#E4032E"/>
			<stop  offset="0.4999" style="stop-color:#E4032E"/>
			<stop  offset="0.5367" style="stop-color:#E5252C"/>
			<stop  offset="0.7139" style="stop-color:#EC671A"/>
			<stop  offset="0.7978" style="stop-color:#EF7D00"/>
			<stop  offset="1" style="stop-color:#FDC62F"/>
		</radialGradient>
		<rect x="29.1" y="37.4" class="st16" width="15.9" height="68.4"/>
	</g>
	<g>
		<defs>
			<path id="SVGID_49_" d="M51.8,55.1c1.6-2.4,3.6-4.5,5.8-6.2v-6.2C53,46.1,51.8,50.7,51.8,55.1"/>
		</defs>
		<clipPath id="SVGID_50_">
			<use xlink:href="#SVGID_49_"  style="overflow:visible;"/>
		</clipPath>
		
			<radialGradient id="SVGID_51_" cx="-437.2555" cy="319.2092" r="0.2914" gradientTransform="matrix(130.7305 -130.7305 -130.7305 -130.7305 98970.0703 -15361.7598)" gradientUnits="userSpaceOnUse">
			<stop  offset="0" style="stop-color:#E21830"/>
			<stop  offset="0.5778" style="stop-color:#E21830"/>
			<stop  offset="0.6041" style="stop-color:#E3232F"/>
			<stop  offset="0.8728" style="stop-color:#E9661C"/>
			<stop  offset="1" style="stop-color:#EC7B01"/>
		</radialGradient>
		<polygon class="st17" points="45.5,48.9 54.7,39.7 63.9,48.9 54.7,58.1 		"/>
	</g>
	<g>
		<defs>
			<path id="SVGID_52_" d="M51.8,55.1c1.6-2.4,3.6-4.5,5.8-6.2v-6.2C53,46.1,51.8,50.7,51.8,55.1"/>
		</defs>
		<clipPath id="SVGID_53_">
			<use xlink:href="#SVGID_52_"  style="overflow:visible;"/>
		</clipPath>
		
			<linearGradient id="SVGID_54_" gradientUnits="userSpaceOnUse" x1="-435.4756" y1="320.6816" x2="-435.1848" y2="320.6816" gradientTransform="matrix(102.3105 38.8075 38.8075 -102.3105 32166.2793 49758.7344)">
			<stop  offset="0" style="stop-color:#E4032E"/>
			<stop  offset="1" style="stop-color:#831F82"/>
		</linearGradient>
		<polygon class="st18" points="52.5,40.7 61.8,44.2 56.9,57.1 47.6,53.6 		"/>
	</g>
	<g>
		<defs>
			<path id="SVGID_55_" d="M57.7,35.2V47c0.9-0.8,1.9-1.5,3.2-2.2c8.9-4.7,16.5-1.5,23.1,2.8c0.4,0.1,0.7,0.3,1.1,0.5V34.6
				c-1.8-0.5-3.6-1-5.5-1.3c-1.8-0.3-4-0.5-6.5-0.5C68.4,32.8,62.8,33.4,57.7,35.2"/>
		</defs>
		<clipPath id="SVGID_56_">
			<use xlink:href="#SVGID_55_"  style="overflow:visible;"/>
		</clipPath>
		
			<radialGradient id="SVGID_57_" cx="-437.1219" cy="319.0813" r="0.2908" gradientTransform="matrix(116.2952 -116.2952 -116.2952 -116.2952 88018.6562 -13656.6816)" gradientUnits="userSpaceOnUse">
			<stop  offset="0" style="stop-color:#E4032E"/>
			<stop  offset="0.5778" style="stop-color:#E4032E"/>
			<stop  offset="0.6299" style="stop-color:#E5252C"/>
			<stop  offset="0.8811" style="stop-color:#EC671A"/>
			<stop  offset="1" style="stop-color:#EF7D00"/>
		</radialGradient>
		<polygon class="st19" points="50,40.4 71.4,19.1 92.8,40.4 71.4,61.8 		"/>
	</g>
	<g>
		<defs>
			<path id="SVGID_58_" d="M57.7,109.1c5.1,2.3,10.8,3.6,16.8,3.6c3.7,0,7.3-0.5,10.7-1.4V98c-3.3,2-7.4,3.9-13.1,4
				c-6.5,0.1-11-1.5-14.3-4.5V109.1z"/>
		</defs>
		<clipPath id="SVGID_59_">
			<use xlink:href="#SVGID_58_"  style="overflow:visible;"/>
		</clipPath>
		
			<radialGradient id="SVGID_60_" cx="-437.126" cy="319.0765" r="0.2912" gradientTransform="matrix(116.2952 -116.2952 -116.2952 -116.2952 88018.5938 -13657.6572)" gradientUnits="userSpaceOnUse">
			<stop  offset="0" style="stop-color:#E4032E"/>
			<stop  offset="0.5778" style="stop-color:#E4032E"/>
			<stop  offset="0.6299" style="stop-color:#E5252C"/>
			<stop  offset="0.8811" style="stop-color:#EC671A"/>
			<stop  offset="1" style="stop-color:#EF7D00"/>
		</radialGradient>
		<polygon class="st20" points="50.2,105.1 71.4,83.9 92.7,105.1 71.4,126.4 		"/>
	</g>
	<g>
		<defs>
			<path id="SVGID_61_" d="M57.7,97.6c3.3,2.9,7.8,4.6,14.3,4.5c5.7-0.1,9.8-2,13.1-4v-2.7c-3.6,1.6-7.6,2.5-11.8,2.3
				c-5.9-0.3-11.3-2.6-15.6-6.2V97.6z"/>
		</defs>
		<clipPath id="SVGID_62_">
			<use xlink:href="#SVGID_61_"  style="overflow:visible;"/>
		</clipPath>
		
			<radialGradient id="SVGID_63_" cx="-437.1219" cy="319.081" r="0.2908" gradientTransform="matrix(116.2952 -116.2952 -116.2952 -116.2952 88018.6562 -13656.6816)" gradientUnits="userSpaceOnUse">
			<stop  offset="0" style="stop-color:#E21830"/>
			<stop  offset="0.5778" style="stop-color:#E21830"/>
			<stop  offset="0.6041" style="stop-color:#E3232F"/>
			<stop  offset="0.8728" style="stop-color:#E9661C"/>
			<stop  offset="1" style="stop-color:#EC7B01"/>
		</radialGradient>
		<polygon class="st21" points="52.3,96.8 71.4,77.7 90.5,96.8 71.4,115.9 		"/>
	</g>
	<g>
		<defs>
			<path id="SVGID_64_" d="M57.7,97.6c3.3,2.9,7.8,4.6,14.3,4.5c5.7-0.1,9.8-2,13.1-4v-2.7c-3.6,1.6-7.6,2.5-11.8,2.3
				c-5.9-0.3-11.3-2.6-15.6-6.2V97.6z"/>
		</defs>
		<clipPath id="SVGID_65_">
			<use xlink:href="#SVGID_64_"  style="overflow:visible;"/>
		</clipPath>
		
			<linearGradient id="SVGID_66_" gradientUnits="userSpaceOnUse" x1="-436.1533" y1="322.4364" x2="-435.8625" y2="322.4364" gradientTransform="matrix(71.6623 71.6623 71.6623 -71.6623 8202.3613 54440.8164)">
			<stop  offset="0" style="stop-color:#E4032E"/>
			<stop  offset="1" style="stop-color:#831F82"/>
		</linearGradient>
		<polygon class="st22" points="71.4,77.7 90.5,96.8 71.4,115.9 52.3,96.8 		"/>
	</g>
	<g>
		<defs>
			<path id="SVGID_67_" d="M73.4,31c-5.6,0.1-10.9,1.3-15.8,3.4v0.8c7.8-2.7,16.8-2.9,22-1.9c1.8,0.3,3.7,0.8,5.5,1.3v-2
				c-3.6-1-7.3-1.5-11.2-1.5C73.8,31,73.6,31,73.4,31"/>
		</defs>
		<clipPath id="SVGID_68_">
			<use xlink:href="#SVGID_67_"  style="overflow:visible;"/>
		</clipPath>
		
			<radialGradient id="SVGID_69_" cx="-437.1241" cy="319.0788" r="0.2908" gradientTransform="matrix(116.2962 -116.2962 -116.2962 -116.2962 88019.4219 -13657.3125)" gradientUnits="userSpaceOnUse">
			<stop  offset="0" style="stop-color:#E21830"/>
			<stop  offset="0.5778" style="stop-color:#E21830"/>
			<stop  offset="0.6041" style="stop-color:#E3232F"/>
			<stop  offset="0.8728" style="stop-color:#E9661C"/>
			<stop  offset="1" style="stop-color:#EC7B01"/>
		</radialGradient>
		<polygon class="st23" points="55.6,33.1 71.4,17.3 87.2,33.1 71.4,48.9 		"/>
	</g>
	<g>
		<defs>
			<path id="SVGID_70_" d="M73.4,31c-5.6,0.1-10.9,1.3-15.8,3.4v0.8c7.8-2.7,16.8-2.9,22-1.9c1.8,0.3,3.7,0.8,5.5,1.3v-2
				c-3.6-1-7.3-1.5-11.2-1.5C73.8,31,73.6,31,73.4,31"/>
		</defs>
		<clipPath id="SVGID_71_">
			<use xlink:href="#SVGID_70_"  style="overflow:visible;"/>
		</clipPath>
		
			<radialGradient id="SVGID_72_" cx="-435.9596" cy="320.1003" r="0.2914" gradientTransform="matrix(122.5825 0 0 -122.5825 53508.0859 39306.9609)" gradientUnits="userSpaceOnUse">
			<stop  offset="0" style="stop-color:#E21830"/>
			<stop  offset="0.4999" style="stop-color:#E21830"/>
			<stop  offset="0.5185" style="stop-color:#E3232F"/>
			<stop  offset="0.7081" style="stop-color:#E9661C"/>
			<stop  offset="0.7978" style="stop-color:#EC7B01"/>
			<stop  offset="1" style="stop-color:#FDC62F"/>
		</radialGradient>
		<rect x="57.7" y="31" class="st24" width="27.4" height="4.2"/>
	</g>
	<g>
		<defs>
			<path id="SVGID_73_" d="M60.9,44.9c-1.3,0.7-2.3,1.4-3.2,2.2v5c4.5-3.9,10.4-6.2,16.8-6.2c3.4,0,6.6,0.7,9.6,1.8
				c-4.3-2.8-9-5.1-14.2-5.1C67,42.5,64,43.2,60.9,44.9"/>
		</defs>
		<clipPath id="SVGID_74_">
			<use xlink:href="#SVGID_73_"  style="overflow:visible;"/>
		</clipPath>
		
			<radialGradient id="SVGID_75_" cx="-437.1269" cy="319.0753" r="0.291" gradientTransform="matrix(116.2952 -116.2952 -116.2952 -116.2952 88018.5234 -13657.9072)" gradientUnits="userSpaceOnUse">
			<stop  offset="0" style="stop-color:#E21830"/>
			<stop  offset="0.5778" style="stop-color:#E21830"/>
			<stop  offset="0.6041" style="stop-color:#E3232F"/>
			<stop  offset="0.8728" style="stop-color:#E9661C"/>
			<stop  offset="1" style="stop-color:#EC7B01"/>
		</radialGradient>
		<polygon class="st25" points="52.9,47.3 70.9,29.4 88.8,47.3 70.9,65.2 		"/>
	</g>
	<g>
		<defs>
			<path id="SVGID_76_" d="M60.9,44.9c-1.3,0.7-2.3,1.4-3.2,2.2v5c4.5-3.9,10.4-6.2,16.8-6.2c3.4,0,6.6,0.7,9.6,1.8
				c-4.3-2.8-9-5.1-14.2-5.1C67,42.5,64,43.2,60.9,44.9"/>
		</defs>
		<clipPath id="SVGID_77_">
			<use xlink:href="#SVGID_76_"  style="overflow:visible;"/>
		</clipPath>
		
			<linearGradient id="SVGID_78_" gradientUnits="userSpaceOnUse" x1="-435.1867" y1="320.6367" x2="-434.8958" y2="320.6367" gradientTransform="matrix(91.0463 34.5349 34.5349 -91.0463 28610.8184 44265.7578)">
			<stop  offset="0" style="stop-color:#E4032E"/>
			<stop  offset="1" style="stop-color:#831F82"/>
		</linearGradient>
		<polygon class="st26" points="61,33.8 87.2,43.7 80.7,60.7 54.5,50.8 		"/>
	</g>
	<g>
		<defs>
			<path id="SVGID_79_" d="M85.1,99v9.1c3.2-0.8,6.2-2.1,9-3.7c3-1.7,4-5.2,3.1-8.2c-0.2-0.2-0.4-0.3-0.7-0.5c-1-0.7-2-1-3-1
				C91,94.9,88.4,96.8,85.1,99"/>
		</defs>
		<clipPath id="SVGID_80_">
			<use xlink:href="#SVGID_79_"  style="overflow:visible;"/>
		</clipPath>
		
			<radialGradient id="SVGID_81_" cx="-437.2423" cy="319.1721" r="0.2901" gradientTransform="matrix(133.2047 -133.2047 -133.2047 -133.2047 100830.3828 -15658.1279)" gradientUnits="userSpaceOnUse">
			<stop  offset="0" style="stop-color:#E4032E"/>
			<stop  offset="0.5778" style="stop-color:#E4032E"/>
			<stop  offset="0.6253" style="stop-color:#E5232C"/>
			<stop  offset="0.8796" style="stop-color:#EA661B"/>
			<stop  offset="1" style="stop-color:#EC7B01"/>
		</radialGradient>
		<polygon class="st27" points="78.5,101.5 91.7,88.3 104.8,101.5 91.7,114.7 		"/>
	</g>
	<g>
		<defs>
			<path id="SVGID_82_" d="M87.1,92.5c-0.6,0.4-1.3,0.7-2,1V99c4.6-3.1,7.7-5.6,11.4-3.2c0.2,0.2,0.4,0.3,0.7,0.5
				c-0.5-1.5-1.6-2.9-3.1-3.8v0c-1.1-0.6-2.2-0.9-3.4-0.9C89.4,91.6,88.2,91.9,87.1,92.5"/>
		</defs>
		<clipPath id="SVGID_83_">
			<use xlink:href="#SVGID_82_"  style="overflow:visible;"/>
		</clipPath>
		
			<radialGradient id="SVGID_84_" cx="-437.2446" cy="319.1707" r="0.2919" gradientTransform="matrix(133.2117 -133.2117 -133.2117 -133.2117 100835.6719 -15659.5449)" gradientUnits="userSpaceOnUse">
			<stop  offset="0" style="stop-color:#E21830"/>
			<stop  offset="0.5778" style="stop-color:#E21830"/>
			<stop  offset="0.6041" style="stop-color:#E3232F"/>
			<stop  offset="0.8728" style="stop-color:#E9661C"/>
			<stop  offset="1" style="stop-color:#EC7B01"/>
		</radialGradient>
		<polygon class="st28" points="81.4,95.3 91.2,85.6 100.9,95.3 91.2,105.1 		"/>
	</g>
	<g>
		<defs>
			<path id="SVGID_85_" d="M87.1,92.5c-0.6,0.4-1.3,0.7-2,1V99c4.6-3.1,7.7-5.6,11.4-3.2c0.2,0.2,0.4,0.3,0.7,0.5
				c-0.5-1.5-1.6-2.9-3.1-3.8v0c-1.1-0.6-2.2-0.9-3.4-0.9C89.4,91.6,88.2,91.9,87.1,92.5"/>
		</defs>
		<clipPath id="SVGID_86_">
			<use xlink:href="#SVGID_85_"  style="overflow:visible;"/>
		</clipPath>
		
			<linearGradient id="SVGID_87_" gradientUnits="userSpaceOnUse" x1="-436.2315" y1="321.0591" x2="-435.9404" y2="321.0591" gradientTransform="matrix(140.9038 53.4464 53.4464 -140.9038 44354.2109 68632.0078)">
			<stop  offset="0" style="stop-color:#E4032E"/>
			<stop  offset="1" style="stop-color:#831F82"/>
		</linearGradient>
		<polygon class="st29" points="86.6,87.6 99.7,92.5 95.7,103 82.7,98.1 		"/>
	</g>
	<g>
		<defs>
			<path id="SVGID_88_" d="M85.1,36.8v13.1c0.7,0.3,1.3,0.6,2,1c2.2,1.2,4.8,1.3,7,0c1.7-1,2.7-2.4,3.2-4c0,0,0,0,0,0
				c0.1-1.7-0.3-3.2-1.1-4.5c-2-3-6.3-4.7-11-5.7V36.8z"/>
		</defs>
		<clipPath id="SVGID_89_">
			<use xlink:href="#SVGID_88_"  style="overflow:visible;"/>
		</clipPath>
		
			<radialGradient id="SVGID_90_" cx="-436.8902" cy="317.9146" r="0.291" gradientTransform="matrix(59.004 -72.9786 -72.9786 -59.004 49059.332 -13068.8887)" gradientUnits="userSpaceOnUse">
			<stop  offset="0" style="stop-color:#E4032E"/>
			<stop  offset="0.5778" style="stop-color:#E4032E"/>
			<stop  offset="0.6299" style="stop-color:#E5252C"/>
			<stop  offset="0.8811" style="stop-color:#EC671A"/>
			<stop  offset="1" style="stop-color:#EF7D00"/>
		</radialGradient>
		<polygon class="st30" points="77.6,46 90,30.7 105,42.8 92.5,58.1 		"/>
	</g>
	<g>
		<defs>
			<path id="SVGID_91_" d="M97.3,46.9C97.3,46.9,97.3,46.9,97.3,46.9c0.3-1.1,0.4-2.2,0.2-3.3c-0.4-0.4-0.8-0.8-1.3-1.2
				C97,43.7,97.4,45.1,97.3,46.9"/>
		</defs>
		<clipPath id="SVGID_92_">
			<use xlink:href="#SVGID_91_"  style="overflow:visible;"/>
		</clipPath>
		
			<radialGradient id="SVGID_93_" cx="-437.1195" cy="319.1537" r="0.2894" gradientTransform="matrix(120.713 -120.713 -120.713 -120.713 91367.5469 -14165.6494)" gradientUnits="userSpaceOnUse">
			<stop  offset="0" style="stop-color:#E21830"/>
			<stop  offset="0.5778" style="stop-color:#E21830"/>
			<stop  offset="0.6041" style="stop-color:#E3232F"/>
			<stop  offset="0.8728" style="stop-color:#E9661C"/>
			<stop  offset="1" style="stop-color:#EC7B01"/>
		</radialGradient>
		<polygon class="st31" points="93.9,44.6 96.9,41.6 99.9,44.6 96.9,47.6 		"/>
	</g>
	<g>
		<defs>
			<path id="SVGID_94_" d="M85.1,36.7c4.7,1,9,2.8,11,5.7c0.5,0.4,0.9,0.8,1.3,1.2c-0.4-1.9-1.5-3.7-3.4-4.8
				c-2.8-1.5-5.7-2.8-8.9-3.6V36.7z"/>
		</defs>
		<clipPath id="SVGID_95_">
			<use xlink:href="#SVGID_94_"  style="overflow:visible;"/>
		</clipPath>
		
			<radialGradient id="SVGID_96_" cx="-437.1227" cy="319.1503" r="0.291" gradientTransform="matrix(120.6917 -120.6917 -120.6917 -120.6917 91351.3359 -14163.6836)" gradientUnits="userSpaceOnUse">
			<stop  offset="0" style="stop-color:#E21830"/>
			<stop  offset="0.5778" style="stop-color:#E21830"/>
			<stop  offset="0.6041" style="stop-color:#E3232F"/>
			<stop  offset="0.8728" style="stop-color:#E9661C"/>
			<stop  offset="1" style="stop-color:#EC7B01"/>
		</radialGradient>
		<polygon class="st32" points="81,39.4 91.3,29.1 101.6,39.4 91.3,49.7 		"/>
	</g>
	<g>
		<defs>
			<path id="SVGID_97_" d="M85.1,36.7c4.7,1,9,2.8,11,5.7c0.9,1.3,1.3,2.8,1.1,4.5c0,0,0,0,0,0c0.3-1.1,0.4-2.2,0.2-3.3
				c-0.4-1.9-1.5-3.7-3.4-4.8c-2.8-1.5-5.7-2.8-8.9-3.6V36.7z"/>
		</defs>
		<clipPath id="SVGID_98_">
			<use xlink:href="#SVGID_97_"  style="overflow:visible;"/>
		</clipPath>
		
			<radialGradient id="SVGID_99_" cx="-435.9299" cy="320.1662" r="0.2908" gradientTransform="matrix(123.5558 0 0 -123.5558 53926.3594 39629.7383)" gradientUnits="userSpaceOnUse">
			<stop  offset="0" style="stop-color:#E4032E"/>
			<stop  offset="0.4999" style="stop-color:#E4032E"/>
			<stop  offset="0.5367" style="stop-color:#E5252C"/>
			<stop  offset="0.7139" style="stop-color:#EC671A"/>
			<stop  offset="0.7978" style="stop-color:#EF7D00"/>
			<stop  offset="1" style="stop-color:#FDC62F"/>
		</radialGradient>
		<rect x="85.1" y="35.2" class="st33" width="12.5" height="11.6"/>
	</g>
	<g>
		<g>
			<g>
				<defs>
					<rect id="SVGID_100_" x="57.7" width="12.7" height="144.3"/>
				</defs>
				<clipPath id="SVGID_101_">
					<use xlink:href="#SVGID_100_"  style="overflow:visible;"/>
				</clipPath>
				<g class="st34">
					<defs>
						<path id="SVGID_102_" d="M57.7,0c0,0,12.7,24,12.7,72.1c0,48.2-12.7,72.1-12.7,72.1V0z"/>
					</defs>
					<clipPath id="SVGID_103_">
						<use xlink:href="#SVGID_102_"  style="overflow:visible;"/>
					</clipPath>
					<defs>
						<filter id="Adobe_OpacityMaskFilter" filterUnits="userSpaceOnUse" x="57.7" y="0" width="12.7" height="144.3">
							<feColorMatrix  type="matrix" values="1 0 0 0 0  0 1 0 0 0  0 0 1 0 0  0 0 0 1 0"/>
						</filter>
					</defs>
					<mask maskUnits="userSpaceOnUse" x="57.7" y="0" width="12.7" height="144.3" id="SVGID_104_">
						<g class="st35">
							
								<radialGradient id="SVGID_105_" cx="-438.1995" cy="328.6313" r="0.2908" gradientTransform="matrix(0 226.9298 35.3144 0 -11548.0713 99512.6719)" gradientUnits="userSpaceOnUse">
								<stop  offset="0" style="stop-color:#333333"/>
								<stop  offset="7.011169e-02" style="stop-color:#2C2C2C"/>
								<stop  offset="0.34" style="stop-color:#141414"/>
								<stop  offset="0.5901" style="stop-color:#050505"/>
								<stop  offset="0.7996" style="stop-color:#000000"/>
								<stop  offset="1" style="stop-color:#000000"/>
							</radialGradient>
							<rect x="57.7" class="st36" width="12.7" height="144.3"/>
						</g>
					</mask>
					
						<radialGradient id="SVGID_106_" cx="-438.1995" cy="328.6313" r="0.2908" gradientTransform="matrix(0 226.9298 35.3144 0 -11548.0713 99512.6719)" gradientUnits="userSpaceOnUse">
						<stop  offset="0" style="stop-color:#000000"/>
						<stop  offset="0.7996" style="stop-color:#000000"/>
						<stop  offset="1" style="stop-color:#000000"/>
					</radialGradient>
					<rect x="57.7" class="st37" width="12.7" height="144.3"/>
				</g>
			</g>
		</g>
		<g>
			<g>
				<defs>
					<rect id="SVGID_107_" x="85.3" y="5" width="12" height="139.3"/>
				</defs>
				<clipPath id="SVGID_108_">
					<use xlink:href="#SVGID_107_"  style="overflow:visible;"/>
				</clipPath>
				<g class="st38">
					<defs>
						<path id="SVGID_109_" d="M85.3,5c0,0,12.7,10.7,12,69.6c0,46.5-12,69.7-12,69.7V5z"/>
					</defs>
					<clipPath id="SVGID_110_">
						<use xlink:href="#SVGID_109_"  style="overflow:visible;"/>
					</clipPath>
					<defs>
						<filter id="Adobe_OpacityMaskFilter_1_" filterUnits="userSpaceOnUse" x="85.3" y="5" width="12.7" height="139.3">
							<feColorMatrix  type="matrix" values="1 0 0 0 0  0 1 0 0 0  0 0 1 0 0  0 0 0 1 0"/>
						</filter>
					</defs>
					<mask maskUnits="userSpaceOnUse" x="85.3" y="5" width="12.7" height="139.3" id="SVGID_111_">
						<g class="st39">
							
								<radialGradient id="SVGID_112_" cx="-438.227" cy="328.2305" r="0.2908" gradientTransform="matrix(0 219.08 28.7093 0 -9338.2676 96081.3906)" gradientUnits="userSpaceOnUse">
								<stop  offset="0" style="stop-color:#333333"/>
								<stop  offset="7.014308e-02" style="stop-color:#2C2C2C"/>
								<stop  offset="0.3402" style="stop-color:#141414"/>
								<stop  offset="0.5904" style="stop-color:#050505"/>
								<stop  offset="0.8" style="stop-color:#000000"/>
								<stop  offset="1" style="stop-color:#000000"/>
							</radialGradient>
							<rect x="85.3" y="5" class="st40" width="12.7" height="139.3"/>
						</g>
					</mask>
					
						<radialGradient id="SVGID_113_" cx="-438.227" cy="328.2305" r="0.2908" gradientTransform="matrix(0 219.08 28.7093 0 -9338.2676 96081.3906)" gradientUnits="userSpaceOnUse">
						<stop  offset="0" style="stop-color:#000000"/>
						<stop  offset="0.8" style="stop-color:#000000"/>
						<stop  offset="1" style="stop-color:#000000"/>
					</radialGradient>
					<rect x="85.3" y="5" class="st41" width="12.7" height="139.3"/>
				</g>
			</g>
		</g>
	</g>
</g>
</svg>
