<?xml version="1.0" encoding="utf-8"?>
<!-- Generator: Adobe Illustrator 24.0.0, SVG Export Plug-In . SVG Version: 6.00 Build 0)  -->
<svg version="1.1" id="Laag_1" xmlns="http://www.w3.org/2000/svg" xmlns:xlink="http://www.w3.org/1999/xlink" x="0px" y="0px"
	 width="66px" height="34.6px" viewBox="0 0 66 34.6" style="enable-background:new 0 0 66 34.6;" xml:space="preserve">
<style type="text/css">
	.st0{fill:#E2E8DB;}
</style>
<g>
	<path class="st0" d="M27.1,29.1c-2.7,3.1-6.1,4.9-10.3,5.4S8.9,34,5.7,31.6c-3.2-2.4-5.1-5.9-5.6-10.4c-0.5-4.5,0.6-8.4,3.3-11.5
		c2.7-3.1,6.1-4.9,10.3-5.4c4.1-0.5,7.8,0.5,11.1,3c3.2,2.4,5.1,5.9,5.6,10.4C30.8,22.2,29.8,26,27.1,29.1z M10.6,25.9
		c1.6,1.4,3.5,2,5.7,1.8c2.2-0.2,3.9-1.2,5-2.9c1.1-1.7,1.6-3.7,1.3-6.1s-1.1-4.3-2.6-5.7c-1.5-1.4-3.3-2-5.5-1.7
		c-2.2,0.2-3.9,1.2-5.1,3c-1.2,1.7-1.7,3.8-1.4,6.1C8.1,22.6,9,24.4,10.6,25.9z"/>
	<path class="st0" d="M51.3,0.1C55-0.3,58,0.6,60.2,2.9c2.2,2.3,3.6,5.5,4,9.8l1.8,16l-7.9,0.9l-1.6-14.3l0-0.5
		c0-0.4-0.1-0.7-0.1-0.9c-0.1-0.3-0.1-0.7-0.2-1.1c-0.1-0.5-0.2-0.9-0.3-1.3c-0.1-0.4-0.3-0.8-0.5-1.3c-0.2-0.5-0.4-0.9-0.7-1.2
		c-0.3-0.3-0.6-0.7-1-0.9c-0.4-0.3-0.8-0.5-1.4-0.6c-0.5-0.1-1.1-0.2-1.7-0.2c-0.8,0-1.6,0.2-2.4,0.6s-1.6,0.8-2.3,1.5
		c-0.8,0.7-1.4,1.7-1.7,3.1s-0.5,2.9-0.3,4.8L45.4,31l-7.8,0.9L34.3,2.3l6-0.7l1.4,3.5l1-0.1C44.6,2.2,47.5,0.5,51.3,0.1z"/>
</g>
</svg>
