<?xml version="1.0" encoding="utf-8"?>
<!-- Generator: Adobe Illustrator 23.0.2, SVG Export Plug-In . SVG Version: 6.00 Build 0)  -->
<svg version="1.1" id="Laag_1" xmlns="http://www.w3.org/2000/svg" xmlns:xlink="http://www.w3.org/1999/xlink" x="0px" y="0px"
	 width="1612.5px" height="46.2px" viewBox="0 0 1612.5 46.2" style="enable-background:new 0 0 1612.5 46.2;" xml:space="preserve"
	>
<style type="text/css">
	.st0{fill:#FFFFFF;}
</style>
<g>
	<path class="st0" d="M605.6,21.9c-3.8,0-6.5-1.5-6.5-5c0-2.9,2.3-5.4,6.4-5.4c5,0,7.5,3,8.3,7.5C612,20.3,609.1,21.9,605.6,21.9
		 M593.6,32.7l-2.7,8c2.2,1,7.9,2.8,14.3,2.8c12.3,0,19-8.3,19-20.5c0-12.4-6.6-20.6-18.9-20.6c-9.4,0-16.3,5.5-16.3,14.4
		c0,7.9,5.3,12.6,15,12.6c4.5,0,7.8-1.5,10-3c-0.7,5.3-3.4,8.7-9.9,8.7C599.9,35.2,595.8,33.7,593.6,32.7 M557.9,12.8l3.8,7.5
		l11.2-6V43H583V3.1h-7.4L557.9,12.8z M529.8,23.1c0-6.4,1.9-11.6,8.3-11.6c6.6,0,8.4,5.3,8.4,11.6s-1.8,11.4-8.4,11.4
		C531.6,34.5,529.8,29.4,529.8,23.1 M520,23.1c0,12.6,6.1,20.5,18.1,20.5c12.1,0,18.2-7.9,18.2-20.5c0-12.7-6.1-20.6-18.2-20.6
		C526.1,2.5,520,10.4,520,23.1 M498.7,34.4l7.7-5.3c6.6-4.5,8.3-8.6,8.3-13.5c0-7-5-13.2-15.7-13.2c-10.3,0-16.2,5.7-16.4,14.5
		l9.2,1.7c0-4.3,2.2-7.3,7.1-7.3c3.7,0,5.6,2.3,5.6,5s-1.4,5.1-5.3,7.9l-15.3,11.2v7.4h31.9v-8.4H498.7z M451.8,11.6
		c3.5,0,6.2,2.3,6.2,6.2c0,3.6-2.7,6-6.2,6h-8.6V11.6H451.8z M433.1,43h10.1V32.4h10.2c8.1,0,15-5.5,15-14.5c0-10.2-7-14.8-15-14.8
		h-20.3L433.1,43L433.1,43z M425.8,43v-8.6h-23.1v-7.6h18.7v-8.3h-18.7v-6.9h23.1V3.1H393V43H425.8z M354.2,40.1
		c2.7,1.5,9,3.5,15,3.5c10.2,0,17.1-5.3,17.1-13c0-5.5-3.3-9.1-10.7-11.2l-7.2-2c-2.5-0.7-3.7-1.4-3.7-3.2c0-1.9,1.7-3.2,5.6-3.2
		c4.2,0,9.1,1.5,12.3,3.2l2.8-8.5c-3.2-1.6-8.9-3.2-14.7-3.2c-11,0-16.3,5.5-16.3,12.3c0,5.6,3.4,9.3,10.4,11.1l6.6,1.8
		c3.3,0.8,4.6,1.9,4.6,3.6c0,2.5-2.5,3.8-6.5,3.8c-5.1,0-9.8-2-12.9-4L354.2,40.1z M307.6,25.5h11.8c4.5,0,7.4,1.3,7.4,4.5
		c0,3.6-3.4,5.3-8.1,5.3c-4.8,0-9.1-1.4-11.2-2.3l-2.5,8.1c2.2,0.8,7.6,2.5,14.2,2.5c10.7,0,17.9-4.5,17.9-13.9
		c0-7.9-6.3-11.4-17.1-11.4h-3l0.6-6.6h18.2V3.1h-26.6l-2,22L307.6,25.5z M274.3,12.8l3.8,7.5l11.2-6V43h10.1V3.1H292L274.3,12.8z
		 M233.5,42.2V43h6.9l21.3-39.2V3.1h-6.9L233.5,42.2z M208.2,11.7V3.1h-34.8v8.6H186V43h10.1V11.7H208.2z M153.8,11.6
		c3.3,0,5.5,1.9,5.5,4.9c0,2.9-2.2,4.9-5.5,4.9h-9.1v-9.8H153.8z M134.6,43h10.1V28.8h4.1L161.2,43h10.7v-1.9L160,28.2
		c5.6-1.6,9.7-6,9.7-12c0-9-6.2-13.2-15.7-13.2h-19.4V43z M115.3,43h10.1V3.1h-8.7l-14.5,16.7L87.6,3.1h-8.7V43H89V18.5l12.2,14.4
		h1.8l12.3-14.4V43L115.3,43z M34.3,42.1V43h11.1L61.3,9.9V3.1h-31v8.6H50L34.3,42.1z M0,12.8l3.8,7.5l11.2-6V43h10.1V3.1h-7.3
		L0,12.8z"/>
</g>
<g>
	<path class="st0" d="M685.9,12.2L670,31.3h-1.2l-15.9-19.1v31.7h-6.4V2.1h5.9l17,20.5l17.1-20.5h5.9v41.7H686L685.9,12.2
		L685.9,12.2z"/>
	<path class="st0" d="M723.7,1.5c12.5,0,21.7,9.2,21.7,21.6c0,12.3-9.3,21.5-21.7,21.5c-12.3,0-21.6-9.2-21.6-21.5
		C702.1,10.7,711.4,1.5,723.7,1.5z M723.7,38.5c9,0,15.3-6.6,15.3-15.4c0-8.9-6.4-15.5-15.3-15.5c-8.9,0-15.3,6.6-15.3,15.5
		C708.5,31.8,714.9,38.5,723.7,38.5z"/>
	<path class="st0" d="M761.5,12.3v31.6h-6.4V2.1h5.6l26.7,31.7V2.1h6.4v41.7h-5.6L761.5,12.3z"/>
	<path class="st0" d="M806.3,2.1h17.1c12.5,0.1,21.7,7.4,21.7,20.9c0,13.4-9.3,20.8-21.7,20.8h-17.1V2.1z M812.8,7.7v30.6h10.4
		c9,0,15.3-5.4,15.3-15.3c0-10-6.4-15.3-15.3-15.4L812.8,7.7L812.8,7.7z"/>
	<path class="st0" d="M855,2.1h18.3c9.3,0,15.7,4.1,15.7,13.4c0,7.2-5.2,12-12,12.9l14.7,14.4v1.1h-7.4L869,28.4h-7.6v15.4H855V2.1z
		 M861.5,7.7v15.7h12.6c4.7,0,8.5-2.8,8.5-7.8c0-5.3-3.7-7.9-8.5-7.9H861.5z"/>
	<path class="st0" d="M899.7,2.1h6.4v41.7h-6.4V2.1z"/>
	<path class="st0" d="M930.8,2.1h7.5L955,43.9h-6.5l-3.7-9.2h-20.9l-3.8,9.2h-6.5L930.8,2.1z M925.5,29.8H943l-8.6-21.4L925.5,29.8z
		"/>
	<path class="st0" d="M974.9,2.1h7.5l16.7,41.7h-6.5l-3.7-9.2H968l-3.8,9.2h-6.5L974.9,2.1z M969.6,29.8h17.6l-8.6-21.3L969.6,29.8z
		"/>
	<path class="st0" d="M1013.2,12.3v31.6h-6.4V2.1h5.6l26.7,31.7V2.1h6.4v41.7h-5.6L1013.2,12.3z"/>
	<path class="st0" d="M1090.5,25.7h-26.1v18.2h-6.4V2.1h6.4V20h26.1V2.1h6.4v41.7h-6.4V25.7z"/>
	<path class="st0" d="M1115.2,26.2c0,7.5,3.8,12.4,12,12.4c8.3,0,12.3-5.3,12.3-12.5v-24h6.4v24.5c0,9.7-6.4,18-18.7,18
		c-12.1,0-18.4-7.5-18.4-18V2.1h6.4L1115.2,26.2L1115.2,26.2z"/>
	<path class="st0" d="M1157.7,2.1h6.4v41.7h-6.4V2.1z"/>
	<path class="st0" d="M1175.7,34.8c2.8,1.7,7.8,3.9,13.3,3.9c6.1,0,10.3-2.4,10.3-6.5c0-2.9-2.2-4.6-7.3-5.9l-7.6-1.8
		c-7-1.6-10.5-5.4-10.5-10.8c0-6.6,5.1-12,16.3-12c5.9,0,11.6,1.6,14.7,3.4l-1.8,5.9c-2.9-1.7-8.5-3.4-13.1-3.4
		c-6.5,0-9.3,2.5-9.3,5.6c0,2.9,2,4.3,5.9,5.3l8.1,2.1c7.4,2,11.4,5.3,11.4,11.2c0,7.7-7.2,12.8-17.1,12.8c-6.1,0-12.1-2.1-14.7-3.6
		L1175.7,34.8z"/>
</g>
</svg>
