<?xml version="1.0" encoding="utf-8"?>
<!-- Generator: Adobe Illustrator 24.3.0, SVG Export Plug-In . SVG Version: 6.00 Build 0)  -->
<svg version="1.1" id="Laag_1" xmlns="http://www.w3.org/2000/svg" xmlns:xlink="http://www.w3.org/1999/xlink" x="0px" y="0px"
	 width="631.7px" height="196.4px" viewBox="0 0 631.7 196.4" style="enable-background:new 0 0 631.7 196.4;" xml:space="preserve"
	>
<style type="text/css">
	.st0{fill:none;stroke:#FFFFFF;stroke-width:2.999;stroke-miterlimit:10;}
	.st1{fill:#FFFFFF;}
</style>
<line class="st0" x1="0.1" y1="192.4" x2="461" y2="192.4"/>
<g>
	<path class="st1" d="M14.5,42.4V17.5c0-2.8-1.3-3.2-2.9-3.2h-7V9.6h0.8c2.6,0,4.8-0.1,7-1.7c2.2-1.6,2.9-3.6,3.5-6.1h6v40.5H14.5z"
		/>
	<path class="st1" d="M48.2,42.4V17.5c0-2.8-1.3-3.2-2.9-3.2h-7V9.6h0.8c2.6,0,4.8-0.1,7-1.7c2.2-1.6,2.9-3.6,3.5-6.1h6v40.5H48.2z"
		/>
	<path class="st1" d="M87.3,27.5v-6.8h17.3v6.8H87.3z"/>
	<path class="st1" d="M138.8,42.4V17.5c0-2.8-1.3-3.2-2.9-3.2h-7V9.6h0.8c2.6,0,4.8-0.1,7-1.7c2.2-1.6,2.9-3.6,3.5-6.1h6v40.5H138.8
		z"/>
	<path class="st1" d="M184.3,33.1v9.3h-7.4v-9.3h-17.8v-5.3l17.8-25.9h7.4v25h5.2v6.2H184.3z M176.9,26.9c0-0.9,0.4-16.1,0.4-16.1
		l-10.4,16.1H176.9z"/>
	<path class="st1" d="M239.8,42.4l-18.5-29.7c0,0,0.5,28.9,0.5,29.7H214V0h7.1l18.8,29.9c0,0-0.9-28.9-1-29.9h7.8v42.4H239.8z"/>
	<path class="st1" d="M269.3,43.3c-10.9,0-15.6-8.7-15.6-16c0-7.2,4.7-15.8,15.4-15.8c6.5,0,15.4,4.4,15.5,15.8
		C284.5,35.3,279.5,43.3,269.3,43.3z M269.3,36.7c5.3,0,7.7-4.5,7.7-9.1c0-4.8-2.6-9.7-8.1-9.7c-4.2,0-7.7,3.1-7.7,9.1
		C261.2,32.3,264.1,36.7,269.3,36.7z"/>
	<path class="st1" d="M304.7,42.4h-7.7l-9.7-30h7.4L301,33l6.1-20.6h7.5L304.7,42.4z"/>
	<path class="st1" d="M325,28.8c0.1,1.5,1.5,7.4,8.5,7.4c5.1,0,7.3-3.1,7.9-4.1l6.1,3.5c-2.4,3.2-6.8,7.6-14.6,7.6
		c-8.9,0-15.4-6.1-15.4-16.1c0-10.7,7.3-15.7,15.1-15.7c11.5,0,14.8,9.2,14.8,17.3H325z M339.2,23.5c-0.1-1.5-1.1-6.3-6.7-6.3
		c-5.9,0-7.1,5.1-7.3,6.3H339.2z"/>
	<path class="st1" d="M360.1,12.4v3.4c1.3-1.7,4.8-4.3,9.4-4.3c3.4,0,6.7,1.6,8.3,4.6c1.9-2.5,5-4.6,9.7-4.6
		c6.1,0,10.3,3.2,10.3,10.4v20.5h-7.1V24c0-1.1-0.2-5.8-5-5.8c-1.1,0-3.7,0.4-5.3,3.1c-1.4,2.2-1.4,4.6-1.4,7v14.1h-7.1V23.9
		c0-2.3-1-5.7-4.9-5.7c-0.7,0-2.3,0.2-3.8,1.4c-2.9,2.5-3,6.7-3,10.1v12.6h-7.2v-30H360.1z"/>
	<path class="st1" d="M412.6,0v14.9c3.1-3.1,7.2-3.4,8.6-3.4c7,0,13.2,6.1,13.2,15.7c0,10.7-7.3,16.1-13.6,16.1c-1.7,0-5-0.4-8.2-4
		v3.1h-7.1V0H412.6z M419.8,36.4c3.9,0,7.2-3.4,7.2-9.8c0-4-2.3-8.6-7.5-8.6c-4.3,0-7,3.8-7,8.6C412.4,33.1,415.4,36.4,419.8,36.4z"
		/>
	<path class="st1" d="M446.2,28.8c0.1,1.5,1.5,7.4,8.5,7.4c5.1,0,7.3-3.1,7.9-4.1l6.1,3.5c-2.4,3.2-6.8,7.6-14.6,7.6
		c-8.9,0-15.4-6.1-15.4-16.1c0-10.7,7.3-15.7,15.1-15.7c11.5,0,14.8,9.2,14.8,17.3H446.2z M460.4,23.5c-0.1-1.5-1.1-6.3-6.7-6.3
		c-5.9,0-7.1,5.1-7.3,6.3H460.4z"/>
	<path class="st1" d="M481,12.4v4.3c2.3-4.7,7.5-4.9,8.9-4.9h0.6v7.4c-1.5,0-7.3,0-9,5.5c-0.5,1.7-0.5,3.2-0.5,4.9v12.8h-7v-30H481z
		"/>
	<path class="st1" d="M512.2,36.5c7-5,12-10,14.2-12.4c1-1.1,4.4-4.8,4.4-9.9c0-3.3-1.7-6.1-5.3-6.1c-5.5,0-5.7,5.5-5.7,8.6v0.8
		l-7.5-0.7v-0.3c0-5.1,1.6-8.4,2.9-10.2c1.3-1.9,4.9-5.1,11-5.1c4.8,0,7.8,2,9.2,3.3c2.6,2.3,3.8,5.9,3.8,9.4c0,1.2-0.1,3.7-1.6,6.7
		c-2.4,5-7.1,8.6-11.2,12.1c-1.4,1.2-2.8,2.4-4.3,3.4h17.8v6.2h-27.5V36.5z"/>
	<path class="st1" d="M559.3,42.9c-14.1,0-14.7-14.3-14.7-21c0-14.8,6.4-20.7,15.1-20.7c7.6,0,14.5,5.3,14.5,20.8
		C574.2,38.6,566.4,42.9,559.3,42.9z M559.4,36.2c5.8,0,7-5.8,7-14.2c0-5.8-0.2-14.2-6.8-14.2c-6.1,0-7.2,6.9-7.2,14.5
		C552.4,26.8,552.4,36.2,559.4,36.2z"/>
	<path class="st1" d="M579.6,36.5c7-5,12-10,14.2-12.4c1-1.1,4.4-4.8,4.4-9.9c0-3.3-1.7-6.1-5.3-6.1c-5.5,0-5.7,5.5-5.7,8.6v0.8
		l-7.5-0.7v-0.3c0-5.1,1.6-8.4,2.9-10.2c1.3-1.9,4.9-5.1,11-5.1c4.8,0,7.8,2,9.2,3.3c2.6,2.3,3.8,5.9,3.8,9.4c0,1.2-0.1,3.7-1.6,6.7
		c-2.4,5-7.1,8.6-11.2,12.1c-1.4,1.2-2.8,2.4-4.3,3.4h17.8v6.2h-27.5V36.5z"/>
	<path class="st1" d="M624.3,42.4V17.5c0-2.8-1.3-3.2-2.9-3.2h-7V9.6h0.8c2.6,0,4.8-0.1,7-1.7c2.2-1.6,2.9-3.6,3.5-6.1h6v40.5H624.3
		z"/>
</g>
<g>
	<path class="st1" d="M39.1,98.2c0,3.6-0.1,5.4-0.7,7.5c-1.4,4.3-6.2,9.7-16.6,9.7c-6.8,0-13.9-2.6-16.1-9.6
		c-0.7-2.2-0.7-4.1-0.7-8.6V72h8v26c0,2.5,0,3.4,0.4,4.7c0.8,2.5,3.1,5,8.7,5c1,0,6.8,0,8.6-4.8c0.5-1.4,0.5-2.5,0.5-5.3V72h7.9
		V98.2z"/>
	<path class="st1" d="M44.1,84.4h4.4V73.7h7.2v10.7h6.4v5.1h-6.4v14.9c0,1.1,0.1,2.5,0.7,3.2c0.8,0.9,2.4,0.9,2.7,0.9
		c1,0,2.1-0.1,3-0.4v6.1c-1,0.1-2.7,0.5-5.2,0.5c-6.4,0-8.5-2.3-8.5-7.3V89.5h-4.4V84.4z"/>
	<path class="st1" d="M73.4,84.4v4.3c2.3-4.7,7.5-4.9,8.9-4.9H83v7.4c-1.5,0-7.3,0-9,5.5c-0.5,1.7-0.5,3.2-0.5,4.9v12.8h-7v-30H73.4
		z"/>
	<path class="st1" d="M92.4,100.8c0.1,1.5,1.5,7.4,8.5,7.4c5.1,0,7.3-3.1,7.9-4.1l6.1,3.5c-2.4,3.2-6.8,7.6-14.6,7.6
		c-8.9,0-15.4-6.1-15.4-16.1c0-10.7,7.3-15.7,15.1-15.7c11.5,0,14.8,9.2,14.8,17.3H92.4z M106.7,95.5c-0.1-1.5-1.1-6.3-6.7-6.3
		c-5.9,0-7.1,5.1-7.3,6.3H106.7z"/>
	<path class="st1" d="M146.3,105.9c-2.1,5.9-7.6,9.4-13.6,9.4c-8.8,0-14.8-7-14.8-15.9c0-7.8,5.3-15.9,15.2-15.9
		c7.8,0,11.8,5.7,12.9,8.5l-6.4,3c-0.8-2.6-2.9-5.1-6.8-5.1c-4.9,0-7.4,4.3-7.4,9.3c0,5.2,2.7,9.4,7.6,9.4c5.1,0,6.7-4.4,7.3-5.9
		L146.3,105.9z"/>
	<path class="st1" d="M170.5,114.4V96.8c0-4.4-2.2-6.5-5.6-6.5c-3.9,0-7.5,2.9-7.5,7.4v16.6h-7.2V72h7.2v15.4c1.8-1.9,5-4,9.5-4
		c6.5,0,10.7,3.7,10.7,10.6v20.3H170.5z"/>
	<path class="st1" d="M181.6,84.4h4.4V73.7h7.2v10.7h6.4v5.1h-6.4v14.9c0,1.1,0.1,2.5,0.7,3.2c0.8,0.9,2.4,0.9,2.7,0.9
		c1,0,2.1-0.1,3-0.4v6.1c-1,0.1-2.7,0.5-5.2,0.5c-6.4,0-8.5-2.3-8.5-7.3V89.5h-4.4V84.4z"/>
	<path class="st1" d="M210.3,115.4c0,4.6-3.2,6.5-7.5,7.3v-3.5c2.8-0.3,3.2-2.5,3.2-4.9h-3.7v-8.2h8V115.4z"/>
	<path class="st1" d="M260.6,114.4L242,84.7c0,0,0.5,28.9,0.5,29.7h-7.7V72h7.1l18.8,29.9c0,0-0.9-28.9-1-29.9h7.8v42.4H260.6z"/>
	<path class="st1" d="M282,100.8c0.1,1.5,1.5,7.4,8.5,7.4c5.1,0,7.3-3.1,7.9-4.1l6.1,3.5c-2.4,3.2-6.8,7.6-14.6,7.6
		c-8.9,0-15.4-6.1-15.4-16.1c0-10.7,7.3-15.7,15.1-15.7c11.5,0,14.8,9.2,14.8,17.3H282z M296.3,95.5c-0.1-1.5-1.1-6.3-6.7-6.3
		c-5.9,0-7.1,5.1-7.3,6.3H296.3z"/>
	<path class="st1" d="M306.3,84.4h4.4V73.7h7.2v10.7h6.4v5.1h-6.4v14.9c0,1.1,0.1,2.5,0.7,3.2c0.8,0.9,2.4,0.9,2.7,0.9
		c1,0,2.1-0.1,3-0.4v6.1c-1,0.1-2.7,0.5-5.2,0.5c-6.4,0-8.5-2.3-8.5-7.3V89.5h-4.4V84.4z"/>
	<path class="st1" d="M349,114.4V96.8c0-4.4-2.2-6.5-5.6-6.5c-3.9,0-7.5,2.9-7.5,7.4v16.6h-7.2V72h7.2v15.4c1.8-1.9,5-4,9.5-4
		c6.5,0,10.7,3.7,10.7,10.6v20.3H349z"/>
	<path class="st1" d="M369.5,100.8c0.1,1.5,1.5,7.4,8.5,7.4c5.1,0,7.3-3.1,7.9-4.1l6.1,3.5c-2.4,3.2-6.8,7.6-14.6,7.6
		c-8.9,0-15.4-6.1-15.4-16.1c0-10.7,7.3-15.7,15.1-15.7c11.5,0,14.8,9.2,14.8,17.3H369.5z M383.8,95.5c-0.1-1.5-1.1-6.3-6.7-6.3
		c-5.9,0-7.1,5.1-7.3,6.3H383.8z"/>
	<path class="st1" d="M404.3,84.4v4.3c2.3-4.7,7.5-4.9,8.9-4.9h0.6v7.4c-1.5,0-7.3,0-9,5.5c-0.5,1.7-0.5,3.2-0.5,4.9v12.8h-7v-30
		H404.3z"/>
	<path class="st1" d="M418.7,114.4V72h7.3v42.4H418.7z"/>
	<path class="st1" d="M451.3,114.4l-0.2-2.3c-2,1.6-5.2,3.1-8.8,3.1c-6.8,0-10.9-4.1-10.9-9.2c0-6.5,5-9.1,10.7-10.1
		c4.5-0.8,7.3-1.6,9.2-2.2c0-2.3-0.7-4.5-5.2-4.5c-5.5,0-6.1,2.9-6.1,4.5l-7.3-0.4c0.1-2,0.5-9.7,13.1-9.7c8.8,0,12.6,3.2,12.6,8.5
		v17.5c0,2.3,0.1,2.9,1.3,4.9H451.3z M451.3,99.4c-1.2,0.6-2.9,1.3-5.7,1.7c-3.3,0.5-6.6,1.1-6.6,4.1c0,2,1.3,3.7,4.9,3.7
		c3.3,0,7.4-1.7,7.4-5.5V99.4z"/>
	<path class="st1" d="M473.3,84.4v3.5c2.7-4.1,8-4.4,9.2-4.4c6.4,0,9.7,4.1,9.7,10v20.9h-7.1V97.5c0-3.3-0.8-7-5.3-7
		c-0.8,0-2.3,0.1-3.8,1.4c-2.2,1.8-2.8,4.3-2.8,9.5v13h-7.3v-30H473.3z"/>
	<path class="st1" d="M519.8,114.4v-2.9c-0.6,0.7-3,3.8-8.3,3.8c-6.3,0-13.3-4.4-13.3-15.3c0-10.7,6.5-16.5,13.6-16.5
		c2.5,0,6.1,0.9,8,3.4V72h7.1v42.4H519.8z M512.8,108.7c3.9,0,7-3.2,7-8.8c0-4.6-1.3-9.8-6.9-9.8c-4.5,0-7.2,4-7.2,9.1
		C505.7,103.6,507.5,108.7,512.8,108.7z"/>
	<path class="st1" d="M554.3,93.8c-1.6-3.2-4.7-4.6-8.2-4.6c-1.4,0-5,0.4-5,3.1c0,2,1.8,2.6,6.1,3.4l4.9,0.9c4.6,0.8,8,3.5,8,8.4
		c0,5.5-5.2,10.3-13.5,10.3c-8.3,0-12.7-3.7-14.4-5.4l5.4-4.4c1.4,1.9,4.1,3.8,8.6,3.8c4.3,0,5.9-2.2,5.9-3.5c0-1.7-1.7-2.4-4.4-2.9
		l-3.7-0.7c-2.3-0.4-10.4-1.9-10.4-9c0-5.9,5.7-9.8,12.9-9.8c2.3,0,8.4,0.4,12.9,5.6L554.3,93.8z"/>
</g>
<g>
	<path class="st1" d="M4,186.4V144h7.3v42.4H4z"/>
	<path class="st1" d="M24.8,172.8c0.1,1.5,1.5,7.4,8.5,7.4c5.1,0,7.3-3.1,7.9-4.1l6.1,3.5c-2.4,3.2-6.8,7.6-14.6,7.6
		c-8.9,0-15.4-6.1-15.4-16.1c0-10.7,7.3-15.7,15.1-15.7c11.5,0,14.8,9.2,14.8,17.3H24.8z M39.1,167.5c-0.1-1.5-1.1-6.3-6.7-6.3
		c-5.9,0-7.1,5.1-7.3,6.3H39.1z"/>
	<path class="st1" d="M80,184.9c0,8.7-5.9,11.5-14.5,11.5c-11.2,0-12.9-5.3-13.7-9.4h7.9c0.7,3.1,4.3,3.7,6,3.7
		c4.3,0,7.1-1.5,7.1-6.7v-2.6c-3.4,3-7.6,3.2-9.1,3.2c-6.3,0-13-4-13-14.3c0-10.5,7.1-14.9,13.6-14.9c3.8,0,6.8,1.6,8.5,4.1v-3.2H80
		V184.9z M65.6,161.9c-3.7,0-7.4,2.5-7.4,8.3c0,4.7,2.6,7.9,7.4,7.9c4.7,0,7.4-3.1,7.4-7.7C73.1,165.7,70.6,161.9,65.6,161.9z"/>
	<path class="st1" d="M107.6,186.4v-3.1c-1.5,1.4-4.5,3.8-9.7,3.8c-5,0-7.4-2.2-8.6-4c-1.6-2.4-1.7-5.2-1.7-7.9v-18.8h7.3v17.3
		c0,2.9,0.7,6.7,5.9,6.7c3.5,0,5.3-2.3,5.8-3.4c1.1-2.1,1.1-4.9,1.1-7.2v-13.4h7.2v30H107.6z"/>
	<path class="st1" d="M128.5,172.8c0.1,1.5,1.5,7.4,8.5,7.4c5.1,0,7.3-3.1,7.9-4.1l6.1,3.5c-2.4,3.2-6.8,7.6-14.6,7.6
		c-8.9,0-15.4-6.1-15.4-16.1c0-10.7,7.3-15.7,15.1-15.7c11.5,0,14.8,9.2,14.8,17.3H128.5z M142.7,167.5c-0.1-1.5-1.1-6.3-6.7-6.3
		c-5.9,0-7.1,5.1-7.3,6.3H142.7z"/>
	<path class="st1" d="M175.9,165.8c-1.6-3.2-4.7-4.6-8.2-4.6c-1.4,0-5,0.4-5,3.1c0,2,1.8,2.6,6.1,3.4l4.9,0.9c4.6,0.8,8,3.5,8,8.4
		c0,5.5-5.2,10.3-13.5,10.3s-12.7-3.7-14.4-5.4l5.4-4.4c1.4,1.9,4.1,3.8,8.6,3.8c4.3,0,5.9-2.2,5.9-3.5c0-1.7-1.7-2.4-4.4-2.9
		l-3.7-0.7c-2.3-0.4-10.4-1.9-10.4-9c0-5.9,5.7-9.8,12.9-9.8c2.3,0,8.4,0.4,12.9,5.6L175.9,165.8z"/>
	<path class="st1" d="M207.1,165.8c-1.6-3.2-4.7-4.6-8.2-4.6c-1.4,0-5,0.4-5,3.1c0,2,1.8,2.6,6.1,3.4l4.9,0.9c4.6,0.8,8,3.5,8,8.4
		c0,5.5-5.2,10.3-13.5,10.3s-12.7-3.7-14.4-5.4l5.4-4.4c1.4,1.9,4.1,3.8,8.6,3.8c4.3,0,5.9-2.2,5.9-3.5c0-1.7-1.7-2.4-4.4-2.9
		l-3.7-0.7c-2.3-0.4-10.4-1.9-10.4-9c0-5.9,5.7-9.8,12.9-9.8c2.3,0,8.4,0.4,12.9,5.6L207.1,165.8z"/>
	<path class="st1" d="M250.1,186.4H243l-5.4-19.1l-5.7,19.1h-7.1l-8.7-30h7.5l5.2,20.5l5.6-20.5h6.4l5.5,20.5l5.3-20.5h7.5
		L250.1,186.4z"/>
	<path class="st1" d="M284.2,186.4v-17.6c0-4.4-2.2-6.5-5.6-6.5c-3.9,0-7.5,2.9-7.5,7.4v16.6h-7.2V144h7.2v15.4c1.8-1.9,5-4,9.5-4
		c6.5,0,10.7,3.7,10.7,10.6v20.3H284.2z"/>
	<path class="st1" d="M312.7,187.3c-10.9,0-15.6-8.7-15.6-16c0-7.2,4.7-15.8,15.4-15.8c6.5,0,15.4,4.4,15.5,15.8
		C328,179.3,322.9,187.3,312.7,187.3z M312.7,180.7c5.3,0,7.7-4.5,7.7-9.1c0-4.8-2.6-9.7-8.1-9.7c-4.2,0-7.7,3.1-7.7,9.1
		C304.6,176.3,307.6,180.7,312.7,180.7z"/>
	<path class="st1" d="M332.2,186.4v-8.2h7.9v8.2H332.2z"/>
	<path class="st1" d="M372.3,177.9c-2.1,5.9-7.6,9.4-13.6,9.4c-8.8,0-14.8-7-14.8-15.9c0-7.8,5.3-15.9,15.2-15.9
		c7.8,0,11.8,5.7,12.9,8.5l-6.4,3c-0.8-2.6-2.9-5.1-6.8-5.1c-4.9,0-7.4,4.3-7.4,9.3c0,5.2,2.7,9.4,7.6,9.4c5.1,0,6.7-4.4,7.3-5.9
		L372.3,177.9z"/>
	<path class="st1" d="M391.2,187.3c-10.9,0-15.6-8.7-15.6-16c0-7.2,4.7-15.8,15.4-15.8c6.5,0,15.4,4.4,15.5,15.8
		C406.4,179.3,401.4,187.3,391.2,187.3z M391.2,180.7c5.3,0,7.7-4.5,7.7-9.1c0-4.8-2.6-9.7-8.1-9.7c-4.2,0-7.7,3.1-7.7,9.1
		C383.1,176.3,386,180.7,391.2,180.7z"/>
	<path class="st1" d="M419.5,156.4v3.4c1.3-1.7,4.8-4.3,9.4-4.3c3.4,0,6.7,1.6,8.3,4.6c1.9-2.5,5-4.6,9.7-4.6
		c6.1,0,10.3,3.2,10.3,10.4v20.5h-7.1V168c0-1.1-0.2-5.8-5-5.8c-1.1,0-3.7,0.4-5.3,3.1c-1.4,2.2-1.4,4.6-1.4,7v14.1h-7.1v-18.4
		c0-2.3-1-5.7-4.9-5.7c-0.7,0-2.3,0.2-3.8,1.4c-2.9,2.5-3,6.7-3,10.1v12.6h-7.2v-30H419.5z"/>
</g>
</svg>
