<?xml version="1.0" encoding="utf-8"?>
<!-- Generator: Adobe Illustrator 24.3.0, SVG Export Plug-In . SVG Version: 6.00 Build 0)  -->
<svg version="1.1" id="Laag_1" xmlns="http://www.w3.org/2000/svg" xmlns:xlink="http://www.w3.org/1999/xlink" x="0px" y="0px"
	 width="1045.1px" height="215.2px" viewBox="0 0 1045.1 215.2" style="enable-background:new 0 0 1045.1 215.2;"
	 xml:space="preserve">
<style type="text/css">
	.st0{fill:#FFFFFF;}
</style>
<g>
	<path class="st0" d="M0,16.7V8c0-5,2.5-7.1,7.3-8v3.4c-3.1,1.3-3.1,2-3.1,5.1h3.6v8.3H0z M10.3,16.7V7.6c0-2.5,0.5-4.1,2.5-5.7
		c1.4-1.1,3.1-1.6,4.9-1.7v3.2c-2.9,1.1-3.3,1.7-3.3,5h3.7v8.3H10.3z"/>
	<path class="st0" d="M46.3,42.9l-2.5-8.3H27.9l-2.5,8.3h-8.5L31.3,0.5h9l14.5,42.4H46.3z M35.9,8.2L30,27.7h11.7L35.9,8.2z"/>
	<path class="st0" d="M84.5,18v24.9h-7.2V18h-4.5v-5.1h4.5V8.8c0-5.2,1.6-8.3,9.7-8.3c1.4,0,2.7,0.1,4.1,0.3v6.1
		c-0.2-0.1-1.4-0.2-2.3-0.2c-4.1,0-4.3,2.3-4.3,4.1v2h6.5V18H84.5z"/>
	<path class="st0" d="M109.1,43.8c-10.9,0-15.6-8.7-15.6-16c0-7.2,4.7-15.8,15.4-15.8c6.5,0,15.4,4.4,15.5,15.8
		C124.3,35.8,119.3,43.8,109.1,43.8z M109.1,37.2c5.3,0,7.7-4.5,7.7-9.1c0-4.8-2.6-9.7-8.1-9.7c-4.2,0-7.7,3.1-7.7,9.1
		C101,32.9,103.9,37.2,109.1,37.2z"/>
	<path class="st0" d="M137.2,12.9v4.3c2.3-4.7,7.5-4.9,8.9-4.9h0.6v7.4c-1.5,0-7.3,0-9,5.5c-0.5,1.7-0.5,3.2-0.5,4.9v12.8h-7v-30
		H137.2z"/>
	<path class="st0" d="M176.3,34.4c-2.1,5.9-7.6,9.4-13.6,9.4c-8.8,0-14.8-7-14.8-15.9c0-7.8,5.3-15.9,15.2-15.9
		c7.8,0,11.8,5.7,12.9,8.5l-6.4,3c-0.8-2.6-2.9-5.1-6.8-5.1c-4.9,0-7.4,4.3-7.4,9.3c0,5.2,2.7,9.4,7.6,9.4c5.1,0,6.7-4.4,7.3-5.9
		L176.3,34.4z"/>
	<path class="st0" d="M187.1,29.3c0.1,1.5,1.5,7.4,8.5,7.4c5.1,0,7.3-3.1,7.9-4.1l6.1,3.5c-2.4,3.2-6.8,7.6-14.6,7.6
		c-8.9,0-15.4-6.1-15.4-16.1c0-10.7,7.3-15.7,15.1-15.7c11.5,0,14.8,9.2,14.8,17.3H187.1z M201.4,24.1c-0.1-1.5-1.1-6.3-6.7-6.3
		c-5.9,0-7.1,5.1-7.3,6.3H201.4z"/>
	<path class="st0" d="M240.4,18v24.9h-7.2V18h-4.5v-5.1h4.5V8.8c0-5.2,1.6-8.3,9.7-8.3c1.4,0,2.7,0.1,4.1,0.3v6.1
		c-0.2-0.1-1.4-0.2-2.3-0.2c-4.1,0-4.3,2.3-4.3,4.1v2h6.5V18H240.4z"/>
	<path class="st0" d="M265,43.8c-10.9,0-15.6-8.7-15.6-16c0-7.2,4.7-15.8,15.4-15.8c6.5,0,15.4,4.4,15.5,15.8
		C280.2,35.8,275.2,43.8,265,43.8z M265,37.2c5.3,0,7.7-4.5,7.7-9.1c0-4.8-2.6-9.7-8.1-9.7c-4.2,0-7.7,3.1-7.7,9.1
		C256.9,32.9,259.8,37.2,265,37.2z"/>
	<path class="st0" d="M293,12.9v4.3c2.3-4.7,7.5-4.9,8.9-4.9h0.6v7.4c-1.5,0-7.3,0-9,5.5c-0.5,1.7-0.5,3.2-0.5,4.9v12.8h-7v-30H293z
		"/>
	<path class="st0" d="M352,41.4c0,8.7-5.9,11.5-14.5,11.5c-11.2,0-12.9-5.3-13.7-9.4h7.9c0.7,3.1,4.3,3.7,6,3.7
		c4.3,0,7.1-1.5,7.1-6.7V38c-3.4,3-7.6,3.2-9.1,3.2c-6.3,0-13-4-13-14.3c0-10.5,7.1-14.9,13.6-14.9c3.8,0,6.8,1.6,8.5,4.1v-3.2h7.1
		V41.4z M337.6,18.4c-3.7,0-7.4,2.5-7.4,8.3c0,4.7,2.6,7.9,7.4,7.9c4.7,0,7.4-3.1,7.4-7.7C345,22.3,342.5,18.4,337.6,18.4z"/>
	<path class="st0" d="M373.4,43.8c-10.9,0-15.6-8.7-15.6-16c0-7.2,4.7-15.8,15.4-15.8c6.5,0,15.4,4.4,15.5,15.8
		C388.7,35.8,383.6,43.8,373.4,43.8z M373.4,37.2c5.3,0,7.7-4.5,7.7-9.1c0-4.8-2.6-9.7-8.1-9.7c-4.2,0-7.7,3.1-7.7,9.1
		C365.3,32.9,368.3,37.2,373.4,37.2z"/>
	<path class="st0" d="M408.4,43.8c-10.9,0-15.6-8.7-15.6-16c0-7.2,4.7-15.8,15.4-15.8c6.5,0,15.4,4.4,15.5,15.8
		C423.7,35.8,418.6,43.8,408.4,43.8z M408.4,37.2c5.3,0,7.7-4.5,7.7-9.1c0-4.8-2.6-9.7-8.1-9.7c-4.2,0-7.7,3.1-7.7,9.1
		C400.3,32.9,403.3,37.2,408.4,37.2z"/>
	<path class="st0" d="M449.5,42.9V40c-0.6,0.7-3,3.8-8.3,3.8c-6.3,0-13.3-4.4-13.3-15.3c0-10.7,6.5-16.5,13.6-16.5
		c2.5,0,6.1,0.9,8,3.4V0.5h7.1v42.4H449.5z M442.5,37.3c3.9,0,7-3.2,7-8.8c0-4.6-1.3-9.8-6.9-9.8c-4.5,0-7.2,4-7.2,9.1
		C435.4,32.2,437.2,37.3,442.5,37.3z"/>
	<path class="st0" d="M470.9,43.9c0,4.6-3.2,6.5-7.5,7.3v-3.5c2.8-0.3,3.2-2.5,3.2-4.9h-3.7v-8.2h8V43.9z"/>
	<path class="st0" d="M501.5,0.5v14.9c3.1-3.1,7.2-3.4,8.6-3.4c7,0,13.2,6.1,13.2,15.7c0,10.7-7.3,16.1-13.6,16.1
		c-1.7,0-5-0.4-8.2-4v3.1h-7.1V0.5H501.5z M508.7,37c3.9,0,7.2-3.4,7.2-9.8c0-4-2.3-8.6-7.5-8.6c-4.3,0-7,3.8-7,8.6
		C501.4,33.7,504.4,37,508.7,37z"/>
	<path class="st0" d="M536.2,12.9v4.3c2.3-4.7,7.5-4.9,8.9-4.9h0.6v7.4c-1.5,0-7.3,0-9,5.5c-0.5,1.7-0.5,3.2-0.5,4.9v12.8h-7v-30
		H536.2z"/>
	<path class="st0" d="M550.6,8.2V1h7.1v7.3H550.6z M550.6,42.9v-30h7.1v30H550.6z"/>
	<path class="st0" d="M572.7,12.9v3.5c2.7-4.1,8-4.4,9.2-4.4c6.4,0,9.7,4.1,9.7,10v20.9h-7.1V26c0-3.3-0.8-7-5.3-7
		c-0.8,0-2.3,0.1-3.8,1.4c-2.2,1.8-2.8,4.3-2.8,9.5v13h-7.3v-30H572.7z"/>
	<path class="st0" d="M626.6,41.4c0,8.7-5.9,11.5-14.5,11.5c-11.2,0-12.9-5.3-13.7-9.4h7.9c0.7,3.1,4.3,3.7,6,3.7
		c4.3,0,7.1-1.5,7.1-6.7V38c-3.4,3-7.6,3.2-9.1,3.2c-6.3,0-13-4-13-14.3c0-10.5,7.1-14.9,13.6-14.9c3.8,0,6.8,1.6,8.5,4.1v-3.2h7.1
		V41.4z M612.2,18.4c-3.7,0-7.4,2.5-7.4,8.3c0,4.7,2.6,7.9,7.4,7.9c4.7,0,7.4-3.1,7.4-7.7C619.6,22.3,617.2,18.4,612.2,18.4z"/>
	<path class="st0" d="M634.3,8.2V1h7.1v7.3H634.3z M634.3,42.9v-30h7.1v30H634.3z"/>
	<path class="st0" d="M656.4,12.9v3.5c2.7-4.1,8-4.4,9.2-4.4c6.4,0,9.7,4.1,9.7,10v20.9h-7.1V26c0-3.3-0.8-7-5.3-7
		c-0.8,0-2.3,0.1-3.8,1.4c-2.2,1.8-2.8,4.3-2.8,9.5v13h-7.3v-30H656.4z"/>
	<path class="st0" d="M710.3,41.4c0,8.7-5.9,11.5-14.5,11.5c-11.2,0-12.9-5.3-13.7-9.4h7.9c0.7,3.1,4.3,3.7,6,3.7
		c4.3,0,7.1-1.5,7.1-6.7V38c-3.4,3-7.6,3.2-9.1,3.2c-6.3,0-13-4-13-14.3c0-10.5,7.1-14.9,13.6-14.9c3.8,0,6.8,1.6,8.5,4.1v-3.2h7.1
		V41.4z M695.9,18.4c-3.7,0-7.4,2.5-7.4,8.3c0,4.7,2.6,7.9,7.4,7.9c4.7,0,7.4-3.1,7.4-7.7C703.3,22.3,700.9,18.4,695.9,18.4z"/>
	<path class="st0" d="M755.1,42.9v-3.1c-1.5,1.4-4.5,3.8-9.7,3.8c-5,0-7.4-2.2-8.6-4c-1.6-2.4-1.7-5.2-1.7-7.9V12.9h7.3v17.3
		c0,2.9,0.7,6.7,5.9,6.7c3.5,0,5.3-2.3,5.8-3.4c1.1-2.1,1.1-4.9,1.1-7.2V12.9h7.2v30H755.1z"/>
	<path class="st0" d="M789.6,22.3c-1.6-3.2-4.7-4.6-8.2-4.6c-1.4,0-5,0.4-5,3.1c0,2,1.8,2.6,6.1,3.4l4.9,0.9c4.6,0.8,8,3.5,8,8.4
		c0,5.5-5.2,10.3-13.5,10.3c-8.3,0-12.7-3.7-14.4-5.4L773,34c1.4,1.9,4.1,3.8,8.6,3.8c4.3,0,5.9-2.2,5.9-3.5c0-1.7-1.7-2.4-4.4-2.9
		l-3.7-0.7c-2.3-0.4-10.4-1.9-10.4-9c0-5.9,5.7-9.8,12.9-9.8c2.3,0,8.4,0.4,12.9,5.6L789.6,22.3z"/>
	<path class="st0" d="M815.1,12.9h4.4V2.2h7.2v10.7h6.4V18h-6.4v14.9c0,1.1,0.1,2.5,0.7,3.2c0.8,0.9,2.4,0.9,2.7,0.9
		c1,0,2.1-0.1,3-0.4v6.1c-1,0.1-2.7,0.5-5.2,0.5c-6.4,0-8.5-2.3-8.5-7.3V18h-4.4V12.9z"/>
	<path class="st0" d="M851.3,43.8c-10.9,0-15.6-8.7-15.6-16c0-7.2,4.7-15.8,15.4-15.8c6.5,0,15.4,4.4,15.5,15.8
		C866.6,35.8,861.5,43.8,851.3,43.8z M851.3,37.2c5.3,0,7.7-4.5,7.7-9.1c0-4.8-2.6-9.7-8.1-9.7c-4.2,0-7.7,3.1-7.7,9.1
		C843.2,32.9,846.2,37.2,851.3,37.2z"/>
	<path class="st0" d="M899.8,41.4c0,8.7-5.9,11.5-14.5,11.5c-11.2,0-12.9-5.3-13.7-9.4h7.9c0.7,3.1,4.3,3.7,6,3.7
		c4.3,0,7.1-1.5,7.1-6.7V38c-3.4,3-7.6,3.2-9.1,3.2c-6.3,0-13-4-13-14.3c0-10.5,7.1-14.9,13.6-14.9c3.8,0,6.8,1.6,8.5,4.1v-3.2h7.1
		V41.4z M885.4,18.4c-3.7,0-7.4,2.5-7.4,8.3c0,4.7,2.6,7.9,7.4,7.9c4.7,0,7.4-3.1,7.4-7.7C892.8,22.3,890.4,18.4,885.4,18.4z"/>
	<path class="st0" d="M913.2,29.3c0.1,1.5,1.5,7.4,8.5,7.4c5.1,0,7.3-3.1,7.9-4.1l6.1,3.5c-2.4,3.2-6.8,7.6-14.6,7.6
		c-8.9,0-15.4-6.1-15.4-16.1c0-10.7,7.3-15.7,15.1-15.7c11.5,0,14.8,9.2,14.8,17.3H913.2z M927.5,24.1c-0.1-1.5-1.1-6.3-6.7-6.3
		c-5.9,0-7.1,5.1-7.3,6.3H927.5z"/>
	<path class="st0" d="M937.5,12.9h4.4V2.2h7.2v10.7h6.4V18h-6.4v14.9c0,1.1,0.1,2.5,0.7,3.2c0.8,0.9,2.4,0.9,2.7,0.9
		c1,0,2.1-0.1,3-0.4v6.1c-1,0.1-2.7,0.5-5.2,0.5c-6.4,0-8.5-2.3-8.5-7.3V18h-4.4V12.9z"/>
	<path class="st0" d="M980.2,42.9V25.3c0-4.4-2.2-6.5-5.6-6.5c-3.9,0-7.5,2.9-7.5,7.4v16.6h-7.2V0.5h7.2V16c1.8-1.9,5-4,9.5-4
		c6.5,0,10.7,3.7,10.7,10.6v20.3H980.2z"/>
	<path class="st0" d="M1000.7,29.3c0.1,1.5,1.5,7.4,8.5,7.4c5.1,0,7.3-3.1,7.9-4.1l6.1,3.5c-2.4,3.2-6.8,7.6-14.6,7.6
		c-8.9,0-15.4-6.1-15.4-16.1c0-10.7,7.3-15.7,15.1-15.7c11.5,0,14.8,9.2,14.8,17.3H1000.7z M1015,24.1c-0.1-1.5-1.1-6.3-6.7-6.3
		c-5.9,0-7.1,5.1-7.3,6.3H1015z"/>
	<path class="st0" d="M1035.6,12.9v4.3c2.3-4.7,7.5-4.9,8.9-4.9h0.6v7.4c-1.5,0-7.3,0-9,5.5c-0.5,1.7-0.5,3.2-0.5,4.9v12.8h-7v-30
		H1035.6z"/>
</g>
<g>
	<path class="st0" d="M201.4,114.9l-0.2-2.3c-2,1.6-5.2,3.1-8.8,3.1c-6.8,0-10.9-4.1-10.9-9.2c0-6.5,5-9.1,10.7-10.1
		c4.5-0.8,7.3-1.6,9.2-2.2c0-2.3-0.7-4.5-5.2-4.5c-5.5,0-6.1,2.9-6.1,4.5l-7.3-0.4c0.1-2,0.5-9.7,13.1-9.7c8.8,0,12.6,3.2,12.6,8.5
		V110c0,2.3,0.1,2.9,1.3,4.9H201.4z M201.4,100c-1.2,0.6-2.9,1.3-5.7,1.7c-3.3,0.5-6.6,1.1-6.6,4.1c0,2,1.3,3.7,4.9,3.7
		c3.3,0,7.4-1.7,7.4-5.5V100z"/>
	<path class="st0" d="M223.4,84.9v3.5c2.7-4.1,8-4.4,9.2-4.4c6.4,0,9.7,4.1,9.7,10v20.9h-7.1V98c0-3.3-0.8-7-5.3-7
		c-0.8,0-2.3,0.1-3.8,1.4c-2.2,1.8-2.8,4.3-2.8,9.5v13h-7.3v-30H223.4z"/>
	<path class="st0" d="M269.9,114.9V112c-0.6,0.7-3,3.8-8.3,3.8c-6.3,0-13.3-4.4-13.3-15.3c0-10.7,6.5-16.5,13.6-16.5
		c2.5,0,6.1,0.9,8,3.4V72.5h7.1v42.4H269.9z M262.9,109.3c3.9,0,7-3.2,7-8.8c0-4.6-1.3-9.8-6.9-9.8c-4.5,0-7.2,4-7.2,9.1
		C255.8,104.2,257.6,109.3,262.9,109.3z"/>
	<path class="st0" d="M328.2,106.4c-2.1,5.9-7.6,9.4-13.6,9.4c-8.8,0-14.8-7-14.8-15.9c0-7.8,5.3-15.9,15.2-15.9
		c7.8,0,11.8,5.7,12.9,8.5l-6.4,3c-0.8-2.6-2.9-5.1-6.8-5.1c-4.9,0-7.4,4.3-7.4,9.3c0,5.2,2.7,9.4,7.6,9.4c5.1,0,6.7-4.4,7.3-5.9
		L328.2,106.4z"/>
	<path class="st0" d="M352.3,114.9V97.3c0-4.4-2.2-6.5-5.6-6.5c-3.9,0-7.5,2.9-7.5,7.4v16.6H332V72.5h7.2V88c1.8-1.9,5-4,9.5-4
		c6.5,0,10.7,3.7,10.7,10.6v20.3H352.3z"/>
	<path class="st0" d="M384.7,114.9l-0.2-2.3c-2,1.6-5.2,3.1-8.8,3.1c-6.8,0-10.9-4.1-10.9-9.2c0-6.5,5-9.1,10.7-10.1
		c4.5-0.8,7.3-1.6,9.2-2.2c0-2.3-0.7-4.5-5.2-4.5c-5.5,0-6.1,2.9-6.1,4.5l-7.3-0.4c0.1-2,0.5-9.7,13.1-9.7c8.8,0,12.6,3.2,12.6,8.5
		V110c0,2.3,0.1,2.9,1.3,4.9H384.7z M384.7,100c-1.2,0.6-2.9,1.3-5.7,1.7c-3.3,0.5-6.6,1.1-6.6,4.1c0,2,1.3,3.7,4.9,3.7
		c3.3,0,7.4-1.7,7.4-5.5V100z"/>
	<path class="st0" d="M406.7,84.9v3.5c2.7-4.1,8-4.4,9.2-4.4c6.4,0,9.7,4.1,9.7,10v20.9h-7.1V98c0-3.3-0.8-7-5.3-7
		c-0.8,0-2.3,0.1-3.8,1.4c-2.2,1.8-2.8,4.3-2.8,9.5v13h-7.3v-30H406.7z"/>
	<path class="st0" d="M460.6,113.4c0,8.7-5.9,11.5-14.5,11.5c-11.2,0-12.9-5.3-13.7-9.4h7.9c0.7,3.1,4.3,3.7,6,3.7
		c4.3,0,7.1-1.5,7.1-6.7V110c-3.4,3-7.6,3.2-9.1,3.2c-6.3,0-13-4-13-14.3c0-10.5,7.1-14.9,13.6-14.9c3.8,0,6.8,1.6,8.5,4.1v-3.2h7.1
		V113.4z M446.2,90.4c-3.7,0-7.4,2.5-7.4,8.3c0,4.7,2.6,7.9,7.4,7.9c4.7,0,7.4-3.1,7.4-7.7C453.7,94.3,451.2,90.4,446.2,90.4z"/>
	<path class="st0" d="M468.3,80.2V73h7.1v7.3H468.3z M468.3,114.9v-30h7.1v30H468.3z"/>
	<path class="st0" d="M490.4,84.9v3.5c2.7-4.1,8-4.4,9.2-4.4c6.4,0,9.7,4.1,9.7,10v20.9h-7.1V98c0-3.3-0.8-7-5.3-7
		c-0.8,0-2.3,0.1-3.8,1.4c-2.2,1.8-2.8,4.3-2.8,9.5v13h-7.3v-30H490.4z"/>
	<path class="st0" d="M544.3,113.4c0,8.7-5.9,11.5-14.5,11.5c-11.2,0-12.9-5.3-13.7-9.4h7.9c0.7,3.1,4.3,3.7,6,3.7
		c4.3,0,7.1-1.5,7.1-6.7V110c-3.4,3-7.6,3.2-9.1,3.2c-6.3,0-13-4-13-14.3c0-10.5,7.1-14.9,13.6-14.9c3.8,0,6.8,1.6,8.5,4.1v-3.2h7.1
		V113.4z M529.9,90.4c-3.7,0-7.4,2.5-7.4,8.3c0,4.7,2.6,7.9,7.4,7.9c4.7,0,7.4-3.1,7.4-7.7C537.4,94.3,534.9,90.4,529.9,90.4z"/>
	<path class="st0" d="M583.1,115.8c-10.9,0-15.6-8.7-15.6-16c0-7.2,4.7-15.8,15.4-15.8c6.5,0,15.4,4.4,15.5,15.8
		C598.3,107.8,593.3,115.8,583.1,115.8z M583.1,109.2c5.3,0,7.7-4.5,7.7-9.1c0-4.8-2.6-9.7-8.1-9.7c-4.2,0-7.7,3.1-7.7,9.1
		C575,104.9,577.9,109.2,583.1,109.2z"/>
	<path class="st0" d="M624.2,114.9v-3.1c-1.5,1.4-4.5,3.8-9.7,3.8c-5,0-7.4-2.2-8.6-4c-1.6-2.4-1.7-5.2-1.7-7.9V84.9h7.3v17.3
		c0,2.9,0.7,6.7,5.9,6.7c3.5,0,5.3-2.3,5.8-3.4c1.1-2.1,1.1-4.9,1.1-7.2V84.9h7.2v30H624.2z"/>
	<path class="st0" d="M646.1,84.9v4.3c2.3-4.7,7.5-4.9,8.9-4.9h0.6v7.4c-1.5,0-7.3,0-9,5.5c-0.5,1.7-0.5,3.2-0.5,4.9v12.8h-7v-30
		H646.1z"/>
	<path class="st0" d="M684.9,84.9v3.4c1.3-1.7,4.8-4.3,9.4-4.3c3.4,0,6.7,1.6,8.3,4.6c1.9-2.5,5-4.6,9.7-4.6
		c6.1,0,10.3,3.2,10.3,10.4v20.5h-7.1V96.5c0-1.1-0.2-5.8-5-5.8c-1.1,0-3.7,0.4-5.3,3.1c-1.4,2.2-1.4,4.6-1.4,7v14.1h-7.1V96.5
		c0-2.3-1-5.7-4.9-5.7c-0.7,0-2.3,0.2-3.8,1.4c-2.9,2.5-3,6.7-3,10.1v12.6h-7.2v-30H684.9z"/>
	<path class="st0" d="M730.3,80.2V73h7.1v7.3H730.3z M730.3,114.9v-30h7.1v30H730.3z"/>
	<path class="st0" d="M752.4,84.9v3.5c2.7-4.1,8-4.4,9.2-4.4c6.4,0,9.7,4.1,9.7,10v20.9h-7.1V98c0-3.3-0.8-7-5.3-7
		c-0.8,0-2.3,0.1-3.8,1.4c-2.2,1.8-2.8,4.3-2.8,9.5v13h-7.3v-30H752.4z"/>
	<path class="st0" d="M798.9,114.9V112c-0.6,0.7-3,3.8-8.3,3.8c-6.3,0-13.3-4.4-13.3-15.3c0-10.7,6.5-16.5,13.6-16.5
		c2.5,0,6.1,0.9,8,3.4V72.5h7.1v42.4H798.9z M791.9,109.3c3.9,0,7-3.2,7-8.8c0-4.6-1.3-9.8-6.9-9.8c-4.5,0-7.2,4-7.2,9.1
		C784.7,104.2,786.6,109.3,791.9,109.3z"/>
	<path class="st0" d="M833.4,94.3c-1.6-3.2-4.7-4.6-8.2-4.6c-1.4,0-5,0.4-5,3.1c0,2,1.8,2.6,6.1,3.4l4.9,0.9c4.6,0.8,8,3.5,8,8.4
		c0,5.5-5.2,10.3-13.5,10.3c-8.3,0-12.7-3.7-14.4-5.4l5.4-4.4c1.4,1.9,4.1,3.8,8.6,3.8c4.3,0,5.9-2.2,5.9-3.5c0-1.7-1.7-2.4-4.4-2.9
		l-3.7-0.7c-2.3-0.4-10.4-1.9-10.4-9c0-5.9,5.7-9.8,12.9-9.8c2.3,0,8.4,0.4,12.9,5.6L833.4,94.3z"/>
	<path class="st0" d="M851.3,81.1c0,5-2.4,7.3-7.3,8.2V86c3.1-1,3.1-2.2,3.1-5.1h-3.6v-8.3h7.8V81.1z M861.6,81.1
		c0,5-2.4,7.3-7.3,8.2V86c3.1-1,3.1-2.2,3.1-5.1h-3.6v-8.3h7.8V81.1z"/>
</g>
<g>
	<path class="st0" d="M337.7,183v-4.5h14.4v4.5H337.7z"/>
	<path class="st0" d="M389.2,196.9h-5v-38.4h-13.6v-4.4h32.1v4.4h-13.6V196.9z"/>
	<path class="st0" d="M430.5,196.9v-20.8c0-2.6-0.6-4.6-1.8-5.9s-3.1-1.9-5.6-1.9c-3.4,0-5.8,0.9-7.4,2.8s-2.3,4.8-2.3,9v16.8h-4.9
		v-45.6h4.9v13.8c0,1.7-0.1,3-0.2,4.1h0.3c1-1.5,2.3-2.8,4.1-3.6s3.8-1.3,6-1.3c3.9,0,6.9,0.9,8.8,2.8s2.9,4.8,2.9,8.9v20.9H430.5z"
		/>
	<path class="st0" d="M458.9,197.5c-4.7,0-8.5-1.4-11.2-4.3s-4.1-6.9-4.1-12c0-5.2,1.3-9.3,3.8-12.3s6-4.6,10.3-4.6
		c4,0,7.2,1.3,9.6,4s3.5,6.1,3.5,10.5v3.1h-22.1c0.1,3.8,1,6.6,2.9,8.6s4.4,2.9,7.6,2.9c3.5,0,6.9-0.7,10.3-2.2v4.3
		c-1.7,0.7-3.3,1.3-4.9,1.6S461.1,197.5,458.9,197.5z M457.6,168.3c-2.6,0-4.6,0.8-6.2,2.5s-2.4,4-2.7,7h16.8c0-3.1-0.7-5.4-2.1-7
		S460.1,168.3,457.6,168.3z"/>
	<path class="st0" d="M532.5,175.4c0,5.5-1.1,10-3.3,13.7s-5.3,6.1-9.3,7.4l10.2,10.6h-7.2l-8.3-9.7l-1.6,0.1
		c-6.3,0-11.2-1.9-14.6-5.8s-5.1-9.3-5.1-16.3c0-7,1.7-12.4,5.2-16.2s8.3-5.8,14.6-5.8c6.2,0,11,2,14.4,5.9S532.5,168.5,532.5,175.4
		z M498.4,175.4c0,5.8,1.2,10.2,3.7,13.2s6.1,4.5,10.8,4.5c4.7,0,8.3-1.5,10.8-4.5s3.6-7.4,3.6-13.2c0-5.8-1.2-10.1-3.6-13.1
		s-6-4.5-10.7-4.5c-4.7,0-8.4,1.5-10.8,4.5S498.4,169.7,498.4,175.4z"/>
	<path class="st0" d="M545.9,164.8v20.8c0,2.6,0.6,4.6,1.8,5.9s3.1,1.9,5.6,1.9c3.4,0,5.8-0.9,7.4-2.8s2.3-4.8,2.3-9v-16.9h4.9v32.1
		h-4l-0.7-4.3h-0.3c-1,1.6-2.4,2.8-4.1,3.6s-3.8,1.3-6,1.3c-3.9,0-6.8-0.9-8.8-2.8s-2.9-4.8-2.9-8.9v-21H545.9z"/>
	<path class="st0" d="M577.7,156.1c0-1.1,0.3-1.9,0.8-2.4s1.2-0.8,2.1-0.8c0.8,0,1.5,0.3,2,0.8s0.8,1.3,0.8,2.4s-0.3,1.9-0.8,2.4
		s-1.2,0.8-2,0.8c-0.8,0-1.5-0.3-2.1-0.8S577.7,157.2,577.7,156.1z M583,196.9h-4.9v-32.1h4.9V196.9z"/>
	<path class="st0" d="M606.9,197.5c-4.7,0-8.5-1.4-11.2-4.3s-4.1-6.9-4.1-12c0-5.2,1.3-9.3,3.8-12.3s6-4.6,10.3-4.6
		c4,0,7.2,1.3,9.6,4s3.5,6.1,3.5,10.5v3.1h-22.1c0.1,3.8,1,6.6,2.9,8.6s4.4,2.9,7.6,2.9c3.5,0,6.9-0.7,10.3-2.2v4.3
		c-1.7,0.7-3.3,1.3-4.9,1.6S609.1,197.5,606.9,197.5z M605.6,168.3c-2.6,0-4.6,0.8-6.2,2.5s-2.4,4-2.7,7h16.8c0-3.1-0.7-5.4-2.1-7
		S608.1,168.3,605.6,168.3z"/>
	<path class="st0" d="M637.4,193.5c0.9,0,1.7-0.1,2.5-0.2s1.4-0.3,1.9-0.4v3.7c-0.5,0.3-1.3,0.5-2.3,0.6s-1.9,0.2-2.8,0.2
		c-6.2,0-9.3-3.3-9.3-9.8v-19.1h-4.6v-2.3l4.6-2l2.1-6.9h2.8v7.4h9.3v3.8h-9.3v18.9c0,1.9,0.5,3.4,1.4,4.5S635.8,193.5,637.4,193.5z
		"/>
	<path class="st0" d="M652.7,164.8v20.8c0,2.6,0.6,4.6,1.8,5.9s3.1,1.9,5.6,1.9c3.4,0,5.8-0.9,7.4-2.8s2.3-4.8,2.3-9v-16.9h4.9v32.1
		h-4l-0.7-4.3h-0.3c-1,1.6-2.4,2.8-4.1,3.6s-3.8,1.3-6,1.3c-3.9,0-6.8-0.9-8.8-2.8s-2.9-4.8-2.9-8.9v-21H652.7z"/>
	<path class="st0" d="M705.7,188.1c0,3-1.1,5.3-3.3,6.9s-5.4,2.4-9.4,2.4c-4.3,0-7.6-0.7-10-2V191c1.5,0.8,3.2,1.4,5,1.8
		s3.5,0.7,5.1,0.7c2.5,0,4.5-0.4,5.9-1.2s2.1-2,2.1-3.7c0-1.2-0.5-2.3-1.6-3.2s-3.2-1.9-6.3-3.1c-3-1.1-5.1-2.1-6.4-2.9
		s-2.2-1.8-2.8-2.8s-0.9-2.3-0.9-3.8c0-2.6,1.1-4.7,3.2-6.2s5-2.3,8.8-2.3c3.5,0,6.8,0.7,10.1,2.1l-1.7,4c-3.2-1.3-6.1-2-8.8-2
		c-2.3,0-4,0.4-5.2,1.1s-1.8,1.7-1.8,3c0,0.9,0.2,1.6,0.7,2.2s1.1,1.2,2.1,1.7s2.9,1.3,5.6,2.4c3.8,1.4,6.4,2.8,7.7,4.2
		S705.7,186,705.7,188.1z"/>
</g>
</svg>
