<?xml version="1.0" encoding="utf-8"?>
<!-- Generator: Adobe Illustrator 24.3.0, SVG Export Plug-In . SVG Version: 6.00 Build 0)  -->
<svg version="1.1" id="Laag_1" xmlns="http://www.w3.org/2000/svg" xmlns:xlink="http://www.w3.org/1999/xlink" x="0px" y="0px"
	 width="93.5px" height="25px" viewBox="0 0 93.5 25" style="enable-background:new 0 0 93.5 25;" xml:space="preserve">
<style type="text/css">
	.st0{fill:#FFFFFF;}
</style>
<g>
	<path class="st0" d="M21.3,0.7H20c-1.1,0-1.4,0.2-2.1,1.4h-0.4l0.1-1.9h8.5l0.1,1.9h-0.4c-0.7-1.2-1-1.4-2.1-1.4h-1.3v6
		c0,0.8,0.3,1.2,1.3,1.2v0.5H20V7.9c1,0,1.3-0.4,1.3-1.2V0.7z"/>
	<path class="st0" d="M27.8,6.8c0,0.9,0.2,1.2,1.2,1.2v0.4h-3.1V7.9c0.5,0,0.9-0.2,0.9-0.9V4.2l-0.9-0.4V3.5l1.6-0.6h0.3V4h0
		c0.5-0.9,0.8-1.1,1.5-1.1c0.5,0,0.9,0.4,0.9,0.7c0,0.1-0.1,0.8-0.5,0.8c-0.4,0-0.5-0.6-0.9-0.6c-0.3,0-0.5,0.2-1,0.9V6.8z"/>
	<path class="st0" d="M31.6,4.1l-0.9-0.5V3.4l1.6-0.6h0.3v4.1c0,0.7,0.3,0.9,0.7,1v0.4h-2.6V7.9c0.5,0,0.9-0.3,0.9-0.9V4.1z M32,0
		c0.4,0,0.6,0.3,0.6,0.6c0,0.4-0.3,0.6-0.6,0.6c-0.4,0-0.6-0.3-0.6-0.6C31.4,0.3,31.7,0,32,0z"/>
	<path class="st0" d="M37.3,4.3c0-0.7-0.7-0.9-1.1-0.9c-0.5,0-0.9,0.3-0.9,0.6c0,0.3,0.5,0.7,0.2,0.8L34.7,5c-0.1,0-0.4-0.6-0.4-0.8
		c0-0.6,0.6-1.4,2.2-1.4c1.1,0,1.8,0.4,1.8,1.3v3.1c0,0.4,0.3,0.6,0.7,0.3L39,7.9c-0.3,0.4-0.6,0.6-1,0.6c-0.5,0-0.8-0.3-0.8-0.9
		c-0.7,0.6-1.2,0.9-1.8,0.9c-0.8,0-1.3-0.5-1.3-1.3S34.6,6,36,5.5l1.3-0.4V4.3z M36.6,5.8c-1,0.4-1.4,0.6-1.4,1.1
		c0,0.4,0.2,0.8,0.8,0.8c0.4,0,0.8-0.2,1.2-0.6V5.5L36.6,5.8z"/>
	<path class="st0" d="M44.8,6.9c0,0.6,0.2,1,0.7,1v0.4H43V7.9c0.6,0,0.8-0.4,0.8-0.9V1.3L43,0.8V0.6L44.5,0h0.3V6.9z"/>
	<path class="st0" d="M49.6,4.3c0-0.7-0.7-0.9-1.1-0.9c-0.5,0-0.9,0.3-0.9,0.6c0,0.3,0.5,0.7,0.2,0.8L47,5c-0.1,0-0.4-0.6-0.4-0.8
		c0-0.6,0.6-1.4,2.2-1.4c1.1,0,1.8,0.4,1.8,1.3v3.1c0,0.4,0.3,0.6,0.7,0.3l0.1,0.4c-0.3,0.4-0.6,0.6-1,0.6c-0.5,0-0.8-0.3-0.8-0.9
		c-0.7,0.6-1.2,0.9-1.8,0.9c-0.8,0-1.3-0.5-1.3-1.3S47,6,48.3,5.5l1.3-0.4V4.3z M49,5.8c-1,0.4-1.4,0.6-1.4,1.1
		c0,0.4,0.2,0.8,0.8,0.8c0.4,0,0.8-0.2,1.2-0.6V5.5L49,5.8z"/>
	<path class="st0" d="M57.2,7c0,0.6,0.1,0.7,0.8,0.7c0.2,0,0.6,0,0.9-0.1v0.6c-0.5,0.1-1.1,0.2-1.6,0.2c-0.8,0-1.1-0.3-1.1-1.1V3.5
		h-0.9V3.2C55.9,3,56.4,2.4,56.8,2h0.4v1h1.6v0.6h-1.6V7z"/>
	<path class="st0" d="M60.4,5c-0.1,1.6,1,2.5,2.1,2.5c0.6,0,1-0.2,1.5-0.6l0.3,0.2C63.7,8,62.9,8.5,62,8.5c-1.5,0-2.5-1.2-2.5-2.8
		c0-1.6,1.1-2.9,2.5-2.9c1.5,0,2.2,1.4,2.2,2.2H60.4z M63,4.6c-0.1-0.9-0.5-1.3-1.2-1.3c-0.7,0-1.2,0.5-1.3,1.3H63z"/>
	<path class="st0" d="M67.6,8.5h-0.4L65.4,4c-0.2-0.4-0.3-0.6-0.7-0.6V2.9h2.5v0.4c-0.7,0-0.9,0.3-0.7,0.8l1.2,2.9l1.2-2.6
		c0.3-0.6,0-1.1-0.6-1.1V2.9h2.1v0.4c-0.5,0.1-0.6,0.2-0.9,0.9L67.6,8.5z"/>
	<path class="st0" d="M73.9,4.3c0-0.7-0.7-0.9-1.1-0.9c-0.5,0-0.9,0.3-0.9,0.6c0,0.3,0.5,0.7,0.2,0.8L71.3,5c-0.1,0-0.4-0.6-0.4-0.8
		c0-0.6,0.6-1.4,2.2-1.4c1.1,0,1.8,0.4,1.8,1.3v3.1c0,0.4,0.3,0.6,0.7,0.3l0.1,0.4c-0.3,0.4-0.6,0.6-1,0.6c-0.5,0-0.8-0.3-0.8-0.9
		c-0.7,0.6-1.2,0.9-1.8,0.9c-0.8,0-1.3-0.5-1.3-1.3s0.5-1.2,1.8-1.7l1.3-0.4V4.3z M73.2,5.8c-1,0.4-1.4,0.6-1.4,1.1
		c0,0.4,0.2,0.8,0.8,0.8c0.4,0,0.8-0.2,1.2-0.6V5.5L73.2,5.8z"/>
	<path class="st0" d="M0.9,19.4c-0.1,1.6,1,2.5,2.1,2.5c0.6,0,1-0.2,1.5-0.6l0.3,0.2c-0.5,0.8-1.3,1.3-2.2,1.3C1,22.9,0,21.7,0,20.1
		c0-1.6,1.1-2.9,2.5-2.9c1.5,0,2.2,1.4,2.2,2.2H0.9z M3.5,19c-0.1-0.9-0.5-1.3-1.2-1.3c-0.7,0-1.2,0.5-1.3,1.3H3.5z"/>
	<path class="st0" d="M7.6,20.2l-1.7-2c-0.2-0.3-0.4-0.4-0.7-0.4v-0.4h2.5v0.4c-0.6,0.1-0.6,0.3-0.3,0.6l0.9,1L9,18.6
		c0.4-0.4,0.3-0.8-0.4-0.8v-0.4h2.2v0.4c-0.5,0.1-0.6,0.2-1.4,1l-0.9,1l1.7,2c0.3,0.4,0.5,0.5,0.7,0.6v0.4H8.3v-0.4
		c0.8-0.1,0.8-0.4,0.4-0.8l-0.9-1l-0.7,0.8c-0.4,0.5-0.3,1,0.4,1v0.4H5.2v-0.4c0.3-0.1,0.6-0.3,1-0.7L7.6,20.2z"/>
	<path class="st0" d="M13.1,23.6c0,0.8,0.3,1,1,1V25h-2.9v-0.4c0.6,0,0.9-0.4,0.9-0.9v-5.2l-0.9-0.5v-0.3l1.6-0.6h0.3v0.9
		c0.6-0.6,1.2-0.9,2-0.9c1.3,0,2.2,1.1,2.2,2.5c0,1.7-1.2,3.1-2.8,3.1c-0.5,0-0.9-0.1-1.4-0.3V23.6z M13.1,20.7c0,1,0.6,1.6,1.5,1.6
		c1,0,1.7-0.7,1.7-2.1c0-1.7-1-2.3-1.7-2.3c-0.5,0-1,0.2-1.4,0.6V20.7z"/>
	<path class="st0" d="M19.3,19.4c-0.1,1.6,1,2.5,2.1,2.5c0.6,0,1-0.2,1.5-0.6l0.3,0.2c-0.5,0.8-1.3,1.3-2.2,1.3
		c-1.5,0-2.5-1.2-2.5-2.8c0-1.6,1.1-2.9,2.5-2.9c1.5,0,2.2,1.4,2.2,2.2H19.3z M21.8,19c-0.1-0.9-0.5-1.3-1.2-1.3
		c-0.7,0-1.2,0.5-1.3,1.3H21.8z"/>
	<path class="st0" d="M25.6,21.2c0,0.9,0.2,1.2,1.2,1.2v0.4h-3.1v-0.4c0.5,0,0.9-0.2,0.9-0.9v-2.8l-0.9-0.4v-0.3l1.6-0.6h0.3v1.2h0
		c0.5-0.9,0.8-1.1,1.5-1.1c0.5,0,0.9,0.4,0.9,0.7c0,0.1-0.1,0.8-0.5,0.8c-0.4,0-0.5-0.6-0.9-0.6c-0.3,0-0.5,0.2-1,0.9V21.2z"/>
	<path class="st0" d="M29.4,18.5l-0.9-0.5v-0.3l1.6-0.6h0.3v4.1c0,0.7,0.3,0.9,0.7,1v0.4h-2.6v-0.4c0.5,0,0.9-0.3,0.9-0.9V18.5z
		 M29.9,14.4c0.4,0,0.6,0.3,0.6,0.6c0,0.4-0.3,0.6-0.6,0.6c-0.4,0-0.6-0.3-0.6-0.6C29.2,14.7,29.5,14.4,29.9,14.4z"/>
	<path class="st0" d="M32.9,19.4c-0.1,1.6,1,2.5,2.1,2.5c0.6,0,1-0.2,1.5-0.6l0.3,0.2c-0.5,0.8-1.3,1.3-2.2,1.3
		c-1.5,0-2.5-1.2-2.5-2.8c0-1.6,1.1-2.9,2.5-2.9c1.5,0,2.2,1.4,2.2,2.2H32.9z M35.4,19c-0.1-0.9-0.5-1.3-1.2-1.3
		c-0.7,0-1.2,0.5-1.3,1.3H35.4z M34.4,14.4l0.6,2h-0.2l-1.7-2H34.4z"/>
	<path class="st0" d="M39.2,21.3c0,0.7,0.3,1,1,1v0.4h-2.9v-0.4c0.6,0,0.9-0.3,0.9-0.9v-2.9L37.4,18v-0.3l1.5-0.6h0.3v1h0
		c0.5-0.6,1.3-1,1.9-1c1.1,0,1.8,0.6,1.8,1.9v2.3c0,0.6,0.2,0.9,0.9,1v0.4h-2.8v-0.4c0.7,0,1-0.3,1-1v-2c0-0.8-0.3-1.3-1.1-1.3
		c-0.6,0-1.1,0.3-1.6,0.7V21.3z"/>
	<path class="st0" d="M49.2,21.3c-0.3,0.9-1.1,1.5-2.2,1.5c-1.8,0-2.6-1.5-2.6-2.8c0-1.3,0.8-2.9,2.8-2.9c1,0,1.9,0.3,1.9,1.1
		c0,0.4-0.2,0.6-0.5,0.6c-0.8,0-0.3-1.1-1.6-1.1c-1,0-1.7,0.8-1.7,1.9c0,1.1,0.7,2.3,2,2.3c0.8,0,1.2-0.2,1.5-0.8L49.2,21.3z"/>
	<path class="st0" d="M50.8,18.5l-0.9-0.5v-0.3l1.6-0.6h0.3v4.1c0,0.7,0.3,0.9,0.7,1v0.4H50v-0.4c0.5,0,0.9-0.3,0.9-0.9V18.5z
		 M51.3,14.4c0.4,0,0.6,0.3,0.6,0.6c0,0.4-0.3,0.6-0.6,0.6c-0.4,0-0.6-0.3-0.6-0.6C50.6,14.7,50.9,14.4,51.3,14.4z"/>
	<path class="st0" d="M56.5,18.7c0-0.7-0.7-0.9-1.1-0.9c-0.5,0-0.9,0.3-0.9,0.6c0,0.3,0.5,0.7,0.2,0.8L54,19.4
		c-0.1,0-0.4-0.6-0.4-0.8c0-0.6,0.6-1.4,2.2-1.4c1.1,0,1.8,0.4,1.8,1.3v3.1c0,0.4,0.3,0.6,0.7,0.3l0.1,0.4c-0.3,0.4-0.6,0.6-1,0.6
		c-0.5,0-0.8-0.3-0.8-0.9c-0.7,0.6-1.2,0.9-1.8,0.9c-0.8,0-1.3-0.5-1.3-1.3s0.5-1.2,1.8-1.7l1.3-0.4V18.7z M55.9,20.2
		c-1,0.4-1.4,0.6-1.4,1.1c0,0.4,0.2,0.8,0.8,0.8c0.4,0,0.8-0.2,1.2-0.6v-1.5L55.9,20.2z"/>
	<path class="st0" d="M67,19.5h-3.2l-0.4,1.1c-0.3,0.8,0,1.6,0.9,1.6v0.5h-2.8v-0.5c0.6-0.2,0.8-0.5,1.2-1.3l2.4-6l-0.2-0.4h1.3
		l3,6.9c0.2,0.6,0.5,0.8,0.9,0.8v0.5h-3.4v-0.5c1-0.1,1.2-0.6,0.9-1.3L67,19.5z M65.3,15.6L64,18.9h2.6L65.3,15.6z"/>
	<path class="st0" d="M79.4,25C78,24.9,77,24.7,76,24.2c-0.9-0.5-1.8-1-2.6-1.5c-2-0.7-3-1.9-3-4c0-2.5,1.8-4.3,4.2-4.3
		c2.4,0,4.2,1.8,4.2,4.2c0,2-1.3,3.6-3.4,4.1v0c1.1,0.5,2.5,1,3.8,1.2V25z M74.8,22.4c1.5,0,2.6-1.1,2.6-3.3c0-2-1-4.2-3-4.2
		c-1.5,0-2.6,1.3-2.6,3.1C71.9,20.6,73.1,22.4,74.8,22.4z"/>
	<path class="st0" d="M83.4,14.6V15c-1,0-1.4,0.3-1.4,1.2V20c0,1.3,0.9,2.2,2.6,2.2c1.4,0,2.7-0.7,2.7-2.6v-3.1
		c0-0.9-0.3-1.4-1.4-1.4v-0.5h3.2V15c-0.7,0-1.3,0.3-1.3,1.3v3.4c0,2.5-1.6,3.2-3.5,3.2c-2.5,0-3.5-1.2-3.5-2.7v-4.1
		c0-0.7-0.3-1.2-1.3-1.2v-0.5H83.4z"/>
	<path class="st0" d="M92.2,21.1c0,0.8,0.3,1.2,1.3,1.2v0.5h-3.8v-0.5c1.1,0,1.3-0.4,1.3-1.4v-4.6c0-0.9-0.3-1.3-1.3-1.3v-0.5h3.8
		V15c-0.9,0-1.3,0.3-1.3,1.2V21.1z M91.1,13.9h-0.2l0.6-2h1.3L91.1,13.9z"/>
</g>
</svg>
