<?xml version="1.0" encoding="utf-8"?>
<!-- Generator: Adobe Illustrator 24.3.0, SVG Export Plug-In . SVG Version: 6.00 Build 0)  -->
<svg version="1.1" id="Laag_1" xmlns="http://www.w3.org/2000/svg" xmlns:xlink="http://www.w3.org/1999/xlink" x="0px" y="0px"
	 width="186px" height="171px" viewBox="0 0 186 171" style="enable-background:new 0 0 186 171;" xml:space="preserve">
<style type="text/css">
	.st0{fill:#FFFFFF;}
</style>
<g>
	<path class="st0" d="M12.2,15.6c0.6,1.3,1.1,2.6,1.6,3.9c0.5-1.5,1-2.7,1.6-4l3-7c1.6-3.7,2-6.3-1.9-6.7V0.5h8.2v1.3
		c-1,0.3-1.7,0.8-2.2,1.3c-0.8,0.8-1.8,4.1-2.9,6.7l-4.3,9.9c-0.6,1.3-1.2,3.1-1.5,5h-1.9c-0.3-1.3-0.7-2.5-1.5-4.1L3.1,4.9
		C1.8,2.1,1.4,1.8,0,1.8V0.5h9.6v1.3C6.3,1.9,6.1,3,7.7,6.2L12.2,15.6z"/>
	<path class="st0" d="M28.3,12l-2.7-1.3V9.9l4.7-1.7h0.9v12.1c0,1.9,0.9,2.8,2.2,2.8v1.3h-7.6v-1.3c1.3,0,2.5-0.8,2.5-2.6V12z
		 M29.6,0c1.1,0,1.9,0.8,1.9,1.9c0,1.1-0.8,1.9-1.9,1.9c-1,0-1.9-0.8-1.9-1.9C27.7,0.8,28.6,0,29.6,0z"/>
	<path class="st0" d="M45.5,13.5h-1.1c-0.5-2.8-1.6-4-3.6-4c-1.6,0-2.6,0.8-2.6,2.3c0,2.6,5.3,3.3,7.3,5.3c0.7,0.7,1.1,1.9,1.1,3
		c0,2.9-2.1,4.6-5.4,4.6c-1.8,0-3.8-0.5-5.1-1.1v-4.4h1.2c0.4,2.7,1.6,4.2,3.7,4.2c1.9,0,3.2-1.1,3.2-2.5c0-2.7-4.6-2.6-7.5-5.5
		c-0.7-0.7-1.1-1.9-1.1-2.9c0-2.6,2.1-4.3,5.1-4.3c1.9,0,3.4,0.5,4.7,1.5V13.5z"/>
	<path class="st0" d="M51.6,12L49,10.7V9.9l4.7-1.7h0.9v12.1c0,1.9,0.9,2.8,2.2,2.8v1.3h-7.6v-1.3c1.3,0,2.5-0.8,2.5-2.6V12z M53,0
		c1.1,0,1.9,0.8,1.9,1.9c0,1.1-0.8,1.9-1.9,1.9c-1,0-1.9-0.8-1.9-1.9C51.1,0.8,51.9,0,53,0z"/>
	<path class="st0" d="M63.8,20.5c0,1.6,0.4,2.1,2.5,2.1c0.7,0,1.9-0.1,2.5-0.2v1.7c-1.5,0.2-3.1,0.6-4.6,0.6c-2.3,0-3.3-0.9-3.3-3.1
		V10.3h-2.6V9.4c2-0.7,3.3-2.2,4.4-3.6h1.2v2.8h4.8v1.8h-4.8V20.5z"/>
	<path class="st0" d="M73.3,14.6c-0.2,4.7,2.8,7.3,6.1,7.3c1.6,0,3-0.5,4.4-1.7l0.7,0.7c-1.5,2.5-3.9,3.8-6.5,3.8
		c-4.2,0-7.3-3.4-7.3-8.1c0-4.8,3.2-8.4,7.3-8.4c4.5,0,6.5,4,6.5,6.4H73.3z M80.8,13.4c-0.3-2.5-1.5-3.9-3.5-3.9
		c-2,0-3.5,1.5-3.8,3.9H80.8z"/>
	<path class="st0" d="M96.9,13.5h-1.1c-0.5-2.8-1.6-4-3.6-4c-1.6,0-2.6,0.8-2.6,2.3c0,2.6,5.3,3.3,7.3,5.3c0.7,0.7,1.1,1.9,1.1,3
		c0,2.9-2.1,4.6-5.4,4.6c-1.8,0-3.8-0.5-5.1-1.1v-4.4h1.2c0.4,2.7,1.6,4.2,3.7,4.2c1.9,0,3.2-1.1,3.2-2.5c0-2.7-4.6-2.6-7.5-5.5
		c-0.7-0.7-1.1-1.9-1.1-2.9c0-2.6,2.1-4.3,5.1-4.3c1.9,0,3.4,0.5,4.7,1.5V13.5z"/>
	<path class="st0" d="M17.3,46.5c-0.8,0.1-2.2,0.1-3.4-0.2c0.4,0.9,0.5,1.6,0.5,2.5c0,4-3.8,5.6-6.5,5.6c-0.6,0-1.2-0.1-2.2-0.3
		c-0.7,0.6-1.1,0.9-1.1,1.3c0,0.8,0.8,1.1,3.7,1.1h2.8c3.2,0,5.6,1.4,5.6,3.7c0,3.4-3.9,5.8-9.2,5.8c-4.9,0-6.8-2-6.8-3.2
		c0-1,0.8-2,3-3.6c-1.3-0.6-2-1.2-2-2c0-0.8,0.9-1.9,2.9-3.6c-1.9-1.1-2.9-2.7-2.9-4.7c0-3.2,2.6-5.7,6.1-5.7c1.3,0,2.3,0.2,3.4,0.5
		c1.2,0.3,2.5,0.6,4.4,0.6c0.6,0,0.9,0,1.5-0.1V46.5z M8.4,59.7c-1.1,0-2.2-0.1-3.5-0.3c-1.2,1.2-1.6,1.7-1.6,2.5c0,2,4,2.3,4.9,2.3
		c2.2,0,6.3-0.7,6.3-2.7c0-1.3-1.3-1.9-4.3-1.9H8.4z M8.4,53.1c2,0,3-1.5,3-3.9c0-3.2-2.1-4.5-3.5-4.5c-1.6,0-3,1.5-3,3.9
		C4.9,51,6.1,53.1,8.4,53.1z"/>
	<path class="st0" d="M36.8,58.7l-5.3,1V57c-2,1.9-3.8,2.7-5.8,2.7c-2.6,0-4.7-1.3-4.7-4.6v-6.9c0-2.8-0.6-3-2.8-3V44l5.7-0.4v9.8
		c0,2.7,1.1,3.9,3.2,3.9c1.5,0,2.8-0.5,4.4-1.8v-7.1c0-2.8-0.6-3-3-3V44l6-0.4v12.1c0,1.6,0.5,2.1,2.4,1.7V58.7z"/>
	<path class="st0" d="M41.1,47l-2.7-1.3v-0.8l4.7-1.7H44v12.1c0,1.9,0.9,2.8,2.2,2.8v1.3h-7.6v-1.3c1.3,0,2.5-0.8,2.5-2.6V47z
		 M42.4,35c1.1,0,1.9,0.8,1.9,1.9c0,1.1-0.8,1.9-1.9,1.9c-1,0-1.9-0.8-1.9-1.9C40.5,35.8,41.3,35,42.4,35z"/>
	<path class="st0" d="M57.6,47.5c0-2.1-2.1-2.8-3.2-2.8c-1.4,0-2.7,0.8-2.7,1.6c0,0.8,1.4,2,0.5,2.4l-2.1,1C50,49.8,49,48.1,49,47.3
		c0-1.6,1.9-4.1,6.4-4.1c3.3,0,5.1,1.1,5.1,3.7v9c0,1.3,0.8,1.7,2,0.9l0.3,1.3c-1,1.2-1.9,1.6-2.8,1.6c-1.3,0-2.2-0.9-2.4-2.5
		c-2,1.8-3.5,2.5-5.2,2.5c-2.3,0-3.9-1.6-3.9-3.7s1.5-3.5,5.4-4.8l3.7-1.3V47.5z M55.8,51.9c-2.8,1-4.1,1.8-4.1,3.2
		c0,1.1,0.7,2.3,2.5,2.3c1.3,0,2.3-0.6,3.5-1.8v-4.4L55.8,51.9z"/>
	<path class="st0" d="M77.6,38.6L75,37.2v-0.8l4.6-1.4h0.9v20.7c0,1.5,0.8,2.1,2.5,1.6v1.4l-4.6,1h-0.9v-2.6
		c-1.8,1.7-3.9,2.6-5.8,2.6c-3.7,0-6.6-3.3-6.6-7.5c0-4.9,3.9-9,8.5-9c1.1,0,2.3,0.2,3.9,0.7V38.6z M77.6,50.4
		c0-4.3-2.7-5.7-4.6-5.7c-2.7,0-4.9,2.6-4.9,5.7c0,2.5,1.3,7,5.4,7c1.6,0,3.1-0.7,4.1-2V50.4z"/>
	<path class="st0" d="M87.9,49.6c-0.2,4.7,2.8,7.3,6.1,7.3c1.6,0,3-0.5,4.4-1.7l0.7,0.7c-1.5,2.5-3.9,3.8-6.5,3.8
		c-4.2,0-7.3-3.4-7.3-8.1c0-4.8,3.2-8.4,7.3-8.4c4.5,0,6.5,4,6.5,6.4H87.9z M95.4,48.4c-0.3-2.5-1.5-3.9-3.5-3.9
		c-2,0-3.5,1.5-3.8,3.9H95.4z"/>
	<path class="st0" d="M111.5,48.5h-1.1c-0.5-2.8-1.6-4-3.6-4c-1.6,0-2.6,0.8-2.6,2.3c0,2.6,5.3,3.3,7.3,5.3c0.7,0.7,1.1,1.9,1.1,3
		c0,2.9-2.1,4.6-5.4,4.6c-1.8,0-3.8-0.5-5.1-1.1v-4.4h1.2c0.4,2.7,1.6,4.2,3.7,4.2c1.9,0,3.2-1.1,3.2-2.5c0-2.7-4.6-2.6-7.5-5.5
		c-0.7-0.7-1.1-1.9-1.1-2.9c0-2.6,2.1-4.3,5.1-4.3c1.9,0,3.4,0.5,4.7,1.5V48.5z"/>
	<path class="st0" d="M115.2,63.4c3.1-0.4,5-1.3,5-3.6c0-1.4-0.5-2-1.7-2c-1.4,0-2.2-0.7-2.2-2c0-1.4,0.9-2.2,2.2-2.2
		c2.1,0,3.6,2.2,3.6,5.1c0,3.7-2.6,5.9-7,6V63.4z"/>
	<path class="st0" d="M6.2,90.5c0,1.6,0.4,2.1,2.5,2.1c0.7,0,1.9-0.1,2.5-0.2v1.7c-1.5,0.2-3.1,0.6-4.6,0.6c-2.3,0-3.3-0.9-3.3-3.1
		V80.3H0.6v-0.9c2-0.7,3.3-2.2,4.4-3.6h1.2v2.8H11v1.8H6.2V90.5z"/>
	<path class="st0" d="M15.7,84.6c-0.2,4.7,2.8,7.3,6.1,7.3c1.6,0,3-0.5,4.4-1.7l0.7,0.7c-1.5,2.5-3.9,3.8-6.5,3.8
		c-4.2,0-7.3-3.4-7.3-8.1c0-4.8,3.2-8.4,7.3-8.4c4.5,0,6.5,4,6.5,6.4H15.7z M23.2,83.4c-0.3-2.5-1.5-3.9-3.5-3.9
		c-2,0-3.5,1.5-3.8,3.9H23.2z"/>
	<path class="st0" d="M34.3,90c0,2.1,0.5,2.9,2.5,3.1v1.3h-8v-1.3c1.6-0.1,2.6-0.9,2.6-2.7v-8.3l-2.5-1.5v-0.8l4.6-1.6h0.9v2.7
		c2.1-2,3.6-2.7,5.8-2.7c2.3,0,3.6,0.8,4.4,2.7c2.1-2,3.6-2.7,5.7-2.7c2.8,0,4.9,1.4,4.9,4.4v7.7c0,1.7,0.6,2.6,2.4,2.8v1.3h-8v-1.3
		c1.9-0.1,2.7-0.9,2.7-2.9v-6.6c0-2.1-1.5-3.1-3.5-3.1c-1.3,0-2.8,0.7-4,1.6v8c0,1.9,0.5,2.8,2.5,3v1.3h-8.2v-1.3
		c2,0,2.8-0.9,2.8-2.9v-6c0-2.6-0.9-3.6-3.2-3.6c-1.8,0-2.9,0.5-4.3,1.8V90z"/>
	<path class="st0" d="M69,82.5c0-2.1-2.1-2.8-3.2-2.8c-1.4,0-2.7,0.8-2.7,1.6c0,0.8,1.4,2,0.5,2.4l-2.1,1c-0.2,0.1-1.2-1.6-1.2-2.4
		c0-1.6,1.9-4.1,6.4-4.1c3.3,0,5.1,1.1,5.1,3.7v9c0,1.3,0.8,1.7,2,0.9l0.3,1.3c-1,1.2-1.9,1.6-2.8,1.6c-1.3,0-2.2-0.9-2.4-2.5
		c-2,1.8-3.5,2.5-5.2,2.5c-2.3,0-3.9-1.6-3.9-3.7c0-2.2,1.5-3.5,5.4-4.8l3.7-1.3V82.5z M67.1,86.9c-2.8,1-4.1,1.8-4.1,3.2
		c0,1.1,0.7,2.3,2.5,2.3c1.3,0,2.3-0.6,3.5-1.8v-4.4L67.1,86.9z M67,70l1.8,5.9h-0.6l-5-5.9H67z"/>
	<path class="st0" d="M81,90.5c0,1.6,0.4,2.1,2.5,2.1c0.7,0,1.9-0.1,2.5-0.2v1.7c-1.5,0.2-3.1,0.6-4.6,0.6c-2.3,0-3.3-0.9-3.3-3.1
		V80.3h-2.6v-0.9c2-0.7,3.3-2.2,4.4-3.6H81v2.8h4.8v1.8H81V90.5z"/>
	<path class="st0" d="M89.9,82l-2.7-1.3v-0.8l4.7-1.7h0.9v12.1c0,1.9,0.9,2.8,2.2,2.8v1.3h-7.6v-1.3c1.3,0,2.5-0.8,2.5-2.6V82z
		 M91.2,70c1.1,0,1.9,0.8,1.9,1.9c0,1.1-0.8,1.9-1.9,1.9c-1,0-1.9-0.8-1.9-1.9C89.4,70.8,90.2,70,91.2,70z"/>
	<path class="st0" d="M109.8,92c-2.4,2.1-3.8,2.7-5.7,2.7c-4.8,0-6.8-4.1-6.8-7.7c0-5.2,3.4-8.9,8.4-8.9c2,0,3.9,0.5,5.6,1.5v-1.1
		c0-0.2,0.1-0.4,0.4-0.4h0.6c0.2,0,0.4,0.1,0.4,0.4v18.2c0,1.9,0.5,2.7,2.4,3v1.2h-8.2v-1.2c2,0,2.9-0.8,2.9-2.8V92z M109.8,85.3
		c0-3.6-1.8-5.8-4.7-5.8c-3,0-5,2.3-5,5.8c0,3.9,2.4,6.9,5.5,6.9c1.3,0,2.3-0.4,4.2-1.7V85.3z"/>
	<path class="st0" d="M134.8,93.7l-5.3,1V92c-2,1.9-3.8,2.7-5.8,2.7c-2.6,0-4.7-1.3-4.7-4.6v-6.9c0-2.8-0.6-3-2.8-3V79l5.7-0.4v9.8
		c0,2.7,1.1,3.9,3.2,3.9c1.5,0,2.8-0.5,4.4-1.8v-7.1c0-2.8-0.6-3-3-3V79l6-0.4v12.1c0,1.6,0.5,2.1,2.4,1.7V93.7z"/>
	<path class="st0" d="M139.6,84.6c-0.2,4.7,2.8,7.3,6.1,7.3c1.6,0,3-0.5,4.4-1.7l0.7,0.7c-1.5,2.5-3.9,3.8-6.5,3.8
		c-4.2,0-7.3-3.4-7.3-8.1c0-4.8,3.2-8.4,7.3-8.4c4.5,0,6.5,4,6.5,6.4H139.6z M147.1,83.4c-0.3-2.5-1.5-3.9-3.5-3.9
		c-2,0-3.5,1.5-3.8,3.9H147.1z"/>
	<path class="st0" d="M163.2,83.5h-1.1c-0.5-2.8-1.6-4-3.6-4c-1.6,0-2.6,0.8-2.6,2.3c0,2.6,5.3,3.3,7.3,5.2c0.7,0.7,1.1,1.9,1.1,3
		c0,2.9-2.1,4.6-5.4,4.6c-1.8,0-3.8-0.5-5.1-1.1v-4.4h1.2c0.4,2.7,1.6,4.2,3.7,4.2c1.9,0,3.2-1.1,3.2-2.5c0-2.7-4.6-2.6-7.5-5.5
		c-0.7-0.7-1.1-1.9-1.1-2.9c0-2.6,2.1-4.3,5.1-4.3c1.9,0,3.4,0.5,4.7,1.5V83.5z"/>
	<path class="st0" d="M3.5,117l-2.7-1.3v-0.8l4.7-1.7h0.9v12.1c0,1.9,0.9,2.8,2.2,2.8v1.3H1v-1.3c1.3,0,2.5-0.8,2.5-2.6V117z
		 M4.8,105c1.1,0,1.9,0.8,1.9,1.9s-0.8,1.9-1.9,1.9c-1,0-1.9-0.8-1.9-1.9S3.8,105,4.8,105z"/>
	<path class="st0" d="M25.5,125.2c0,1.8,0.6,2.8,2.2,2.9v1.3h-7.5v-1.3c1.8-0.1,2.4-1.2,2.4-2.7v-16.7l-2.4-1.3v-0.8l4.5-1.6h0.9
		V125.2z"/>
	<path class="st0" d="M35,125.2c0,1.8,0.6,2.8,2.2,2.9v1.3h-7.5v-1.3c1.8-0.1,2.4-1.2,2.4-2.7v-16.7l-2.4-1.3v-0.8l4.5-1.6H35V125.2
		z"/>
	<path class="st0" d="M41.7,117l-2.7-1.3v-0.8l4.7-1.7h0.9v12.1c0,1.9,0.9,2.8,2.2,2.8v1.3h-7.6v-1.3c1.3,0,2.5-0.8,2.5-2.6V117z
		 M43,105c1.1,0,1.9,0.8,1.9,1.9s-0.8,1.9-1.9,1.9c-1,0-1.9-0.8-1.9-1.9S42,105,43,105z"/>
	<path class="st0" d="M67,128.7l-5.3,1V127c-2,1.9-3.8,2.7-5.8,2.7c-2.6,0-4.7-1.3-4.7-4.6v-6.9c0-2.8-0.6-3-2.8-3V114l5.7-0.4v9.8
		c0,2.7,1.1,3.9,3.2,3.9c1.5,0,2.8-0.5,4.4-1.8v-7.1c0-2.8-0.6-3-3-3V114l6-0.4v12.1c0,1.6,0.5,2.1,2.4,1.7V128.7z"/>
	<path class="st0" d="M74,124.7c0,2.6,0.5,3.4,3.6,3.4v1.3h-9.1v-1.3c1.4,0,2.6-0.7,2.6-2.7v-8.2l-2.6-1.3v-0.8l4.7-1.9H74v3.5H74
		c1.6-2.6,2.5-3.3,4.3-3.3c1.5,0,2.6,1.3,2.6,2c0,0.2-0.4,2.3-1.4,2.3c-1.2,0-1.5-1.6-2.6-1.6c-0.8,0-1.5,0.6-2.9,2.6V124.7z"/>
	<path class="st0" d="M84.9,119.6c-0.2,4.7,2.8,7.3,6.1,7.3c1.6,0,3-0.5,4.4-1.7l0.7,0.7c-1.5,2.5-3.9,3.8-6.5,3.8
		c-4.2,0-7.3-3.4-7.3-8.1c0-4.8,3.2-8.4,7.3-8.4c4.5,0,6.5,4,6.5,6.4H84.9z M92.4,118.4c-0.3-2.5-1.5-3.9-3.5-3.9
		c-2,0-3.5,1.5-3.8,3.9H92.4z"/>
	<path class="st0" d="M108.5,118.5h-1.1c-0.5-2.8-1.6-4-3.6-4c-1.6,0-2.6,0.8-2.6,2.3c0,2.6,5.3,3.3,7.3,5.2c0.7,0.7,1.1,1.9,1.1,3
		c0,2.9-2.1,4.6-5.4,4.6c-1.8,0-3.8-0.5-5.1-1.1v-4.4h1.2c0.4,2.7,1.6,4.2,3.7,4.2c1.9,0,3.2-1.1,3.2-2.5c0-2.7-4.6-2.6-7.5-5.5
		c-0.7-0.7-1.1-1.9-1.1-2.9c0-2.6,2.1-4.3,5.1-4.3c1.9,0,3.4,0.5,4.7,1.5V118.5z"/>
	<path class="st0" d="M131.5,117.5c0-2.1-2.1-2.8-3.2-2.8c-1.4,0-2.7,0.8-2.7,1.6c0,0.8,1.4,2,0.5,2.4l-2.1,1
		c-0.2,0.1-1.2-1.6-1.2-2.4c0-1.6,1.9-4.1,6.4-4.1c3.3,0,5.1,1.1,5.1,3.7v9c0,1.3,0.8,1.7,2,0.9l0.3,1.3c-1,1.2-1.9,1.6-2.8,1.6
		c-1.3,0-2.2-0.9-2.4-2.5c-2,1.8-3.5,2.5-5.2,2.5c-2.3,0-3.9-1.6-3.9-3.7c0-2.2,1.5-3.5,5.4-4.8l3.7-1.3V117.5z M129.6,121.9
		c-2.8,1-4.1,1.8-4.1,3.2c0,1.1,0.7,2.3,2.5,2.3c1.3,0,2.3-0.6,3.5-1.8v-4.4L129.6,121.9z"/>
	<path class="st0" d="M143.9,125c0,2.1,0.5,2.9,2.5,3.1v1.3h-8v-1.3c1.6-0.1,2.6-0.9,2.6-2.7v-8.3l-2.5-1.5v-0.8l4.6-1.6h0.9v2.7
		c2.1-2,3.6-2.7,5.8-2.7c2.3,0,3.6,0.8,4.4,2.7c2.1-2,3.6-2.7,5.7-2.7c2.8,0,4.9,1.4,4.9,4.4v7.7c0,1.7,0.6,2.6,2.4,2.8v1.3h-8v-1.3
		c1.9-0.1,2.7-0.9,2.7-2.9v-6.6c0-2.1-1.5-3.1-3.5-3.1c-1.3,0-2.8,0.7-4,1.6v8c0,1.9,0.5,2.8,2.5,3v1.3h-8.2v-1.3
		c2,0,2.8-0.9,2.8-2.9v-6c0-2.6-0.9-3.6-3.2-3.6c-1.8,0-2.9,0.5-4.3,1.8V125z"/>
	<path class="st0" d="M170.6,108.9l-2.5-1.4v-0.8l4.6-1.8h0.9v11c2-2,3.7-2.8,5.9-2.8c4.6,0,6.6,4.6,6.6,8c0,5-3.6,8.5-8.8,8.5
		c-2,0-4-0.5-6.6-1.8V108.9z M173.5,123.5c0,3.5,2.3,4.7,4.6,4.7c3.9,0,4.9-3.7,4.9-5.7c0-3.5-2.1-6.8-5.3-6.8
		c-1.6,0-3.2,0.7-4.2,1.9V123.5z"/>
	<path class="st0" d="M6.2,159.7c0,2.6,0.5,3.4,3.6,3.4v1.3H0.7v-1.3c1.4,0,2.6-0.7,2.6-2.7v-8.2l-2.6-1.3v-0.8l4.7-1.9h0.9v3.5h0.1
		c1.6-2.6,2.5-3.3,4.3-3.3c1.5,0,2.6,1.3,2.6,2c0,0.2-0.4,2.3-1.4,2.3c-1.2,0-1.5-1.6-2.6-1.6c-0.8,0-1.5,0.6-2.9,2.6V159.7z"/>
	<path class="st0" d="M23.7,152.5c0-2.1-2.1-2.8-3.2-2.8c-1.4,0-2.7,0.8-2.7,1.6c0,0.8,1.4,2,0.5,2.4l-2.1,1
		c-0.2,0.1-1.2-1.6-1.2-2.4c0-1.6,1.9-4.1,6.4-4.1c3.3,0,5.1,1.1,5.1,3.7v9c0,1.3,0.8,1.7,2,0.9l0.3,1.3c-1,1.2-1.9,1.6-2.8,1.6
		c-1.3,0-2.2-0.9-2.4-2.5c-2,1.8-3.5,2.5-5.2,2.5c-2.3,0-3.9-1.6-3.9-3.7c0-2.2,1.5-3.5,5.4-4.8l3.7-1.3V152.5z M21.9,156.9
		c-2.8,1-4.1,1.8-4.1,3.2c0,1.1,0.7,2.3,2.5,2.3c1.3,0,2.3-0.6,3.5-1.8v-4.4L21.9,156.9z"/>
	<path class="st0" d="M43.6,143.6l-2.6-1.4v-0.8l4.6-1.4h0.9v20.7c0,1.5,0.8,2.1,2.5,1.6v1.4l-4.6,1h-0.9v-2.6
		c-1.8,1.7-3.9,2.6-5.8,2.6c-3.7,0-6.6-3.3-6.6-7.5c0-4.9,3.9-9,8.5-9c1.1,0,2.3,0.2,3.9,0.7V143.6z M43.6,155.4
		c0-4.3-2.7-5.7-4.6-5.7c-2.7,0-4.9,2.6-4.9,5.7c0,2.5,1.3,7,5.4,7c1.6,0,3.1-0.7,4.1-2V155.4z"/>
	<path class="st0" d="M53.4,152l-2.7-1.3v-0.8l4.7-1.7h0.9v12.1c0,1.9,0.9,2.8,2.2,2.8v1.3h-7.6v-1.3c1.3,0,2.5-0.8,2.5-2.6V152z
		 M54.8,140c1.1,0,1.9,0.8,1.9,1.9s-0.8,1.9-1.9,1.9c-1,0-1.9-0.8-1.9-1.9S53.7,140,54.8,140z"/>
	<path class="st0" d="M68.7,148.2c4.8,0,8.2,3.4,8.2,8.1c0,4.8-3.4,8.4-7.9,8.4c-4.4,0-8.1-3.8-8.1-8.4
		C60.9,151.8,64.3,148.2,68.7,148.2z M69.3,163.4c2.7,0,4.4-1.9,4.4-5c0-3-1.2-9-5.1-9c-2.6,0-4.3,1.5-4.3,5.5
		C64.2,158.1,65.7,163.4,69.3,163.4z"/>
	<path class="st0" d="M95.7,151.5c-0.8,0.1-2.2,0.1-3.4-0.2c0.4,0.9,0.5,1.6,0.5,2.5c0,4-3.8,5.6-6.5,5.6c-0.6,0-1.2-0.1-2.2-0.3
		c-0.7,0.6-1.1,0.9-1.1,1.3c0,0.8,0.8,1.1,3.7,1.1h2.8c3.2,0,5.6,1.4,5.6,3.7c0,3.4-3.9,5.8-9.2,5.8c-4.9,0-6.8-2-6.8-3.2
		c0-1,0.8-2,3-3.6c-1.3-0.6-2-1.2-2-2c0-0.8,0.9-1.9,2.9-3.6c-1.9-1.1-2.9-2.7-2.9-4.7c0-3.2,2.6-5.7,6.1-5.7c1.3,0,2.3,0.2,3.4,0.5
		c1.2,0.3,2.5,0.6,4.4,0.6c0.6,0,0.9,0,1.5-0.1V151.5z M86.8,164.7c-1.1,0-2.2-0.1-3.5-0.3c-1.2,1.2-1.6,1.7-1.6,2.5
		c0,2,4,2.3,4.9,2.3c2.2,0,6.3-0.7,6.3-2.7c0-1.3-1.3-1.9-4.3-1.9H86.8z M86.8,158.1c2,0,3-1.5,3-3.9c0-3.2-2.1-4.5-3.5-4.5
		c-1.6,0-3,1.5-3,3.9C83.3,156,84.5,158.1,86.8,158.1z"/>
	<path class="st0" d="M115.2,163.7l-5.3,1V162c-2,1.9-3.8,2.7-5.8,2.7c-2.6,0-4.7-1.3-4.7-4.6v-6.9c0-2.8-0.6-3-2.8-3V149l5.7-0.4
		v9.8c0,2.7,1.1,3.9,3.2,3.9c1.5,0,2.8-0.5,4.4-1.8v-7.1c0-2.8-0.6-3-3-3V149l6-0.4v12.1c0,1.6,0.5,2.1,2.4,1.7V163.7z"/>
	<path class="st0" d="M119.5,152l-2.7-1.3v-0.8l4.7-1.7h0.9v12.1c0,1.9,0.9,2.8,2.2,2.8v1.3h-7.6v-1.3c1.3,0,2.5-0.8,2.5-2.6V152z
		 M120.8,140c1.1,0,1.9,0.8,1.9,1.9s-0.8,1.9-1.9,1.9c-1,0-1.9-0.8-1.9-1.9S119.7,140,120.8,140z"/>
	<path class="st0" d="M136,152.5c0-2.1-2.1-2.8-3.2-2.8c-1.4,0-2.7,0.8-2.7,1.6c0,0.8,1.4,2,0.5,2.4l-2.1,1
		c-0.2,0.1-1.2-1.6-1.2-2.4c0-1.6,1.9-4.1,6.4-4.1c3.3,0,5.1,1.1,5.1,3.7v9c0,1.3,0.8,1.7,2,0.9l0.3,1.3c-1,1.2-1.9,1.6-2.8,1.6
		c-1.3,0-2.2-0.9-2.4-2.5c-2,1.8-3.5,2.5-5.2,2.5c-2.3,0-3.9-1.6-3.9-3.7c0-2.2,1.5-3.5,5.4-4.8l3.7-1.3V152.5z M134.2,156.9
		c-2.8,1-4.1,1.8-4.1,3.2c0,1.1,0.7,2.3,2.5,2.3c1.3,0,2.3-0.6,3.5-1.8v-4.4L134.2,156.9z"/>
</g>
</svg>
