<?xml version="1.0" encoding="utf-8"?>
<!-- Generator: Adobe Illustrator 24.3.0, SVG Export Plug-In . SVG Version: 6.00 Build 0)  -->
<svg version="1.1" id="Laag_1" xmlns="http://www.w3.org/2000/svg" xmlns:xlink="http://www.w3.org/1999/xlink" x="0px" y="0px"
	 width="176.1px" height="136px" viewBox="0 0 176.1 136" style="enable-background:new 0 0 176.1 136;" xml:space="preserve">
<style type="text/css">
	.st0{fill:#FFFFFF;}
</style>
<g>
	<path class="st0" d="M11.5,0.5v1.3c-3,0-4,0.9-4,3.6v10.9c0,3.9,2.8,6.3,7.5,6.3c4,0,7.7-2.1,7.7-7.6V5.9c0-2.5-0.8-4.1-4.1-4.1
		V0.5H28v1.3c-2.2,0-3.7,0.9-3.7,3.7v9.9c0,7.2-4.7,9.4-10.2,9.4c-7.2,0-10.3-3.6-10.3-7.7V5.1C3.8,3,3,1.8,0,1.8V0.5H11.5z"/>
	<path class="st0" d="M34.7,20.2c0,1.9,0.8,2.9,2.8,2.9v1.3h-8.4v-1.3c1.8-0.1,2.6-0.9,2.6-2.7V12l-2.3-1.3V9.8l4.4-1.6h0.9v3h0.1
		c1.4-1.9,3.7-3,5.6-3c3.3,0,5.1,1.6,5.1,5.4v6.7c0,1.8,0.5,2.6,2.5,2.8v1.3h-8.3v-1.3c2,0,2.8-1,2.8-2.9v-5.8c0-2.2-1-3.9-3.3-3.9
		c-1.6,0-3.1,0.8-4.6,2.1V20.2z"/>
	<path class="st0" d="M59.3,12.5c0-2.1-2.1-2.8-3.2-2.8c-1.4,0-2.7,0.8-2.7,1.6c0,0.8,1.4,2,0.5,2.4l-2.1,1
		c-0.2,0.1-1.2-1.6-1.2-2.4c0-1.6,1.9-4.1,6.4-4.1c3.3,0,5.1,1.1,5.1,3.7v9c0,1.3,0.8,1.7,2,0.9l0.3,1.3c-1,1.2-1.9,1.6-2.8,1.6
		c-1.3,0-2.2-0.9-2.4-2.5c-2,1.8-3.5,2.5-5.2,2.5c-2.3,0-3.9-1.6-3.9-3.7s1.5-3.5,5.4-4.8l3.7-1.3V12.5z M57.4,16.9
		c-2.8,1-4.1,1.8-4.1,3.2c0,1.1,0.7,2.3,2.5,2.3c1.3,0,2.3-0.6,3.5-1.8v-4.4L57.4,16.9z"/>
	<path class="st0" d="M90.5,20.2c-0.7,2.8-3.2,4.5-6.4,4.5c-5.2,0-7.5-4.4-7.5-8.1c0-3.7,2.3-8.4,8.3-8.4c2.9,0,5.5,0.8,5.5,3.2
		c0,1.1-0.5,1.7-1.3,1.7c-2.3,0-0.8-3.3-4.8-3.3c-2.9,0-4.8,2.3-4.8,5.7c0,3.1,2,6.6,5.7,6.6c2.2,0,3.5-0.7,4.5-2.2L90.5,20.2z"/>
	<path class="st0" d="M102.2,12.5c0-2.1-2.1-2.8-3.2-2.8c-1.4,0-2.7,0.8-2.7,1.6c0,0.8,1.4,2,0.5,2.4l-2.1,1
		c-0.2,0.1-1.2-1.6-1.2-2.4c0-1.6,1.9-4.1,6.4-4.1c3.3,0,5.1,1.1,5.1,3.7v9c0,1.3,0.8,1.7,2,0.9l0.3,1.3c-1,1.2-1.9,1.6-2.8,1.6
		c-1.3,0-2.2-0.9-2.4-2.5c-2,1.8-3.5,2.5-5.2,2.5c-2.3,0-3.9-1.6-3.9-3.7s1.5-3.5,5.4-4.8l3.7-1.3V12.5z M100.3,16.9
		c-2.8,1-4.1,1.8-4.1,3.2c0,1.1,0.7,2.3,2.5,2.3c1.3,0,2.3-0.6,3.5-1.8v-4.4L100.3,16.9z"/>
	<path class="st0" d="M111.9,12l-2.7-1.3V9.9l4.7-1.7h0.9v12.1c0,1.9,0.9,2.8,2.2,2.8v1.3h-7.6v-1.3c1.3,0,2.5-0.8,2.5-2.6V12z
		 M113.2,0c1.1,0,1.9,0.8,1.9,1.9c0,1.1-0.8,1.9-1.9,1.9c-1,0-1.9-0.8-1.9-1.9C111.3,0.8,112.1,0,113.2,0z"/>
	<path class="st0" d="M125,16.8l-5-5.8c-0.7-0.8-1.1-1-1.9-1.1V8.6h7.2v1.3c-1.8,0.2-1.8,1-1,1.9l2.5,3l2.2-2.4
		c1.1-1.2,0.8-2.5-1.1-2.5V8.6h6.4v1.3c-1.5,0.3-1.9,0.6-4,3l-2.6,2.9l5,5.7c0.9,1.1,1.3,1.5,2.1,1.6v1.3h-7.8v-1.3
		c2.2-0.4,2.3-1.1,1.2-2.4l-2.6-2.9l-2.2,2.4c-1.3,1.4-1,2.9,1.2,2.9v1.3h-6.7v-1.3c1-0.2,1.8-0.8,3-2.1L125,16.8z"/>
	<path class="st0" d="M145.9,12.5c0-2.1-2.1-2.8-3.2-2.8c-1.4,0-2.7,0.8-2.7,1.6c0,0.8,1.4,2,0.5,2.4l-2.1,1
		c-0.2,0.1-1.2-1.6-1.2-2.4c0-1.6,1.9-4.1,6.4-4.1c3.3,0,5.1,1.1,5.1,3.7v9c0,1.3,0.8,1.7,2,0.9l0.3,1.3c-1,1.2-1.9,1.6-2.8,1.6
		c-1.3,0-2.2-0.9-2.4-2.5c-2,1.8-3.5,2.5-5.2,2.5c-2.3,0-3.9-1.6-3.9-3.7s1.5-3.5,5.4-4.8l3.7-1.3V12.5z M144.1,16.9
		c-2.8,1-4.1,1.8-4.1,3.2c0,1.1,0.7,2.3,2.5,2.3c1.3,0,2.3-0.6,3.5-1.8v-4.4L144.1,16.9z"/>
	<path class="st0" d="M13.2,38.6l-2.6-1.4v-0.8l4.6-1.4h0.9v20.7c0,1.5,0.8,2.1,2.5,1.6v1.4l-4.6,1h-0.9v-2.6
		c-1.8,1.7-3.9,2.6-5.8,2.6c-3.7,0-6.6-3.3-6.6-7.5c0-4.9,3.9-9,8.5-9c1.1,0,2.3,0.2,3.9,0.7V38.6z M13.2,50.4
		c0-4.3-2.7-5.7-4.6-5.7c-2.7,0-4.9,2.6-4.9,5.7c0,2.5,1.3,7,5.4,7c1.6,0,3.1-0.7,4.1-2V50.4z"/>
	<path class="st0" d="M23.6,49.6c-0.2,4.7,2.8,7.3,6.1,7.3c1.6,0,3-0.5,4.4-1.7l0.7,0.7c-1.5,2.5-3.9,3.8-6.5,3.8
		c-4.2,0-7.3-3.4-7.3-8.1c0-4.8,3.2-8.4,7.3-8.4c4.5,0,6.5,4,6.5,6.4H23.6z M31.1,48.4c-0.3-2.5-1.5-3.9-3.5-3.9
		c-2,0-3.5,1.5-3.8,3.9H31.1z"/>
	<path class="st0" d="M51.9,55c0,2.1,0.5,2.9,2.5,3.1v1.3h-8v-1.3C48,58,49,57.2,49,55.4v-8.3l-2.5-1.5v-0.8l4.6-1.6h0.9v2.7
		c2.1-2,3.6-2.7,5.8-2.7c2.3,0,3.6,0.8,4.4,2.7c2.1-2,3.6-2.7,5.7-2.7c2.8,0,4.9,1.4,4.9,4.4v7.7c0,1.7,0.6,2.6,2.4,2.8v1.3h-8v-1.3
		c1.9-0.1,2.7-0.9,2.7-2.9v-6.6c0-2.1-1.5-3.1-3.5-3.1c-1.3,0-2.8,0.7-4,1.6v8c0,1.9,0.5,2.8,2.5,3v1.3h-8.2v-1.3
		c2,0,2.8-0.9,2.8-2.9v-6c0-2.6-0.9-3.6-3.2-3.6c-1.8,0-2.9,0.5-4.3,1.8V55z"/>
	<path class="st0" d="M95.2,58.7l-5.3,1V57c-2,1.9-3.8,2.7-5.8,2.7c-2.6,0-4.7-1.3-4.7-4.6v-6.9c0-2.8-0.6-3-2.8-3V44l5.7-0.4v9.8
		c0,2.7,1.1,3.9,3.2,3.9c1.5,0,2.8-0.5,4.4-1.8v-7.1c0-2.8-0.6-3-3-3V44l6-0.4v12.1c0,1.6,0.5,2.1,2.4,1.7V58.7z M84.7,41h-0.6
		l1.8-5.9h3.8L84.7,41z"/>
	<path class="st0" d="M107.2,48.5h-1.1c-0.5-2.8-1.6-4-3.6-4c-1.6,0-2.6,0.8-2.6,2.3c0,2.6,5.3,3.3,7.3,5.3c0.7,0.7,1.1,1.9,1.1,3
		c0,2.9-2.1,4.6-5.4,4.6c-1.8,0-3.8-0.5-5.1-1.1v-4.4H99c0.4,2.7,1.6,4.2,3.7,4.2c1.9,0,3.2-1.1,3.2-2.5c0-2.7-4.6-2.6-7.5-5.5
		c-0.7-0.7-1.1-1.9-1.1-2.9c0-2.6,2.1-4.3,5.1-4.3c1.9,0,3.4,0.5,4.7,1.5V48.5z"/>
	<path class="st0" d="M113.4,47l-2.7-1.3v-0.8l4.7-1.7h0.9v12.1c0,1.9,0.9,2.8,2.2,2.8v1.3h-7.6v-1.3c1.3,0,2.5-0.8,2.5-2.6V47z
		 M114.7,35c1.1,0,1.9,0.8,1.9,1.9c0,1.1-0.8,1.9-1.9,1.9c-1,0-1.9-0.8-1.9-1.9C112.8,35.8,113.6,35,114.7,35z"/>
	<path class="st0" d="M134.7,55.2c-0.7,2.8-3.2,4.5-6.4,4.5c-5.2,0-7.5-4.4-7.5-8.1c0-3.7,2.3-8.4,8.3-8.4c2.9,0,5.5,0.8,5.5,3.2
		c0,1.1-0.5,1.7-1.3,1.7c-2.3,0-0.8-3.3-4.8-3.3c-2.9,0-4.8,2.3-4.8,5.7c0,3.1,2,6.6,5.7,6.6c2.2,0,3.5-0.7,4.5-2.2L134.7,55.2z"/>
	<path class="st0" d="M146.4,47.5c0-2.1-2.1-2.8-3.2-2.8c-1.4,0-2.7,0.8-2.7,1.6c0,0.8,1.4,2,0.5,2.4l-2.1,1
		c-0.2,0.1-1.2-1.6-1.2-2.4c0-1.6,1.9-4.1,6.4-4.1c3.3,0,5.1,1.1,5.1,3.7v9c0,1.3,0.8,1.7,2,0.9l0.3,1.3c-1,1.2-1.9,1.6-2.8,1.6
		c-1.3,0-2.2-0.9-2.4-2.5c-2,1.8-3.5,2.5-5.2,2.5c-2.3,0-3.9-1.6-3.9-3.7s1.5-3.5,5.4-4.8l3.7-1.3V47.5z M144.5,51.9
		c-2.8,1-4.1,1.8-4.1,3.2c0,1.1,0.7,2.3,2.5,2.3c1.3,0,2.3-0.6,3.5-1.8v-4.4L144.5,51.9z"/>
	<path class="st0" d="M8.7,78.2c4.8,0,8.2,3.4,8.2,8.1c0,4.8-3.4,8.4-7.9,8.4c-4.4,0-8.1-3.8-8.1-8.4C0.9,81.8,4.4,78.2,8.7,78.2z
		 M9.3,93.4c2.7,0,4.4-1.9,4.4-5c0-3-1.2-9-5.1-9C6,79.5,4.2,81,4.2,85C4.2,88.1,5.7,93.4,9.3,93.4z"/>
	<path class="st0" d="M24.5,90.2c0,1.9,0.8,2.9,2.8,2.9v1.3H19v-1.3c1.8-0.1,2.6-0.9,2.6-2.7V82l-2.3-1.3v-0.8l4.4-1.6h0.9v3h0.1
		c1.4-1.9,3.7-3,5.6-3c3.3,0,5.1,1.6,5.1,5.4v6.7c0,1.8,0.5,2.6,2.5,2.8v1.3h-8.3v-1.3c2,0,2.8-1,2.8-2.9v-5.8c0-2.2-1-3.9-3.3-3.9
		c-1.6,0-3.1,0.8-4.6,2.1V90.2z"/>
	<path class="st0" d="M54.1,96.8c0,2.3,1,2.9,3,2.9v1.3h-8.5v-1.3c1.7,0,2.6-1.1,2.6-2.6V82l-2.5-1.3v-0.8l4.6-1.7h0.9v2.6
		c1.8-1.8,3.6-2.6,5.7-2.6c3.8,0,6.4,3.1,6.4,7.4c0,5-3.6,9.1-8.1,9.1c-1.4,0-2.8-0.3-4.1-1V96.8z M54.1,88.5c0,3,1.9,4.7,4.4,4.7
		c3,0,4.8-2.1,4.8-6c0-4.9-3-6.6-5.1-6.6c-1.3,0-2.8,0.6-4.1,1.6V88.5z"/>
	<path class="st0" d="M71.9,84.6c-0.2,4.7,2.8,7.3,6.1,7.3c1.6,0,3-0.5,4.4-1.7l0.7,0.7c-1.5,2.5-3.9,3.8-6.5,3.8
		c-4.2,0-7.3-3.4-7.3-8.1c0-4.8,3.2-8.4,7.3-8.4c4.5,0,6.5,4,6.5,6.4H71.9z M79.4,83.4c-0.3-2.5-1.5-3.9-3.5-3.9
		c-2,0-3.5,1.5-3.8,3.9H79.4z"/>
	<path class="st0" d="M90.5,89.7c0,2.6,0.5,3.4,3.6,3.4v1.3H85v-1.3c1.4,0,2.6-0.7,2.6-2.7v-8.2L85,80.9v-0.8l4.7-1.9h0.9v3.5h0.1
		c1.6-2.6,2.5-3.3,4.3-3.3c1.5,0,2.6,1.3,2.6,2c0,0.2-0.4,2.3-1.4,2.3c-1.2,0-1.5-1.6-2.6-1.6c-0.8,0-1.5,0.6-2.9,2.6V89.7z"/>
	<path class="st0" d="M111.2,73.6l-2.6-1.4v-0.8l4.6-1.4h0.9v20.7c0,1.5,0.8,2.1,2.5,1.6v1.4l-4.6,1h-0.9v-2.6
		c-1.8,1.7-3.9,2.6-5.8,2.6c-3.7,0-6.6-3.3-6.6-7.5c0-4.9,3.9-9,8.5-9c1.1,0,2.3,0.2,3.9,0.7V73.6z M111.2,85.4
		c0-4.3-2.7-5.7-4.6-5.7c-2.7,0-4.9,2.6-4.9,5.7c0,2.5,1.3,7,5.4,7c1.6,0,3.1-0.7,4.1-2V85.4z"/>
	<path class="st0" d="M123.7,89.7c0,2.6,0.5,3.4,3.6,3.4v1.3h-9.1v-1.3c1.4,0,2.6-0.7,2.6-2.7v-8.2l-2.6-1.3v-0.8l4.7-1.9h0.9v3.5
		h0.1c1.6-2.6,2.5-3.3,4.3-3.3c1.5,0,2.6,1.3,2.6,2c0,0.2-0.4,2.3-1.4,2.3c-1.2,0-1.5-1.6-2.6-1.6c-0.8,0-1.5,0.6-2.9,2.6V89.7z"/>
	<path class="st0" d="M134.6,84.6c-0.2,4.7,2.8,7.3,6.1,7.3c1.6,0,3-0.5,4.4-1.7l0.7,0.7c-1.5,2.5-3.9,3.8-6.5,3.8
		c-4.2,0-7.3-3.4-7.3-8.1c0-4.8,3.2-8.4,7.3-8.4c4.5,0,6.5,4,6.5,6.4H134.6z M142.1,83.4c-0.3-2.5-1.5-3.9-3.5-3.9
		c-2,0-3.5,1.5-3.8,3.9H142.1z"/>
	<path class="st0" d="M148.8,75.4l-0.3-1.7l-0.1-1.3c0-1.1,0.7-1.9,1.8-1.9c1,0,1.7,0.8,1.7,1.9l-0.1,1.3l-0.3,1.7l-0.9,5.1h-0.7
		L148.8,75.4z"/>
	<path class="st0" d="M164.5,83.5h-1.1c-0.5-2.8-1.6-4-3.6-4c-1.6,0-2.6,0.8-2.6,2.3c0,2.6,5.3,3.3,7.3,5.2c0.7,0.7,1.1,1.9,1.1,3
		c0,2.9-2.1,4.6-5.4,4.6c-1.8,0-3.8-0.5-5.1-1.1v-4.4h1.2c0.4,2.7,1.6,4.2,3.7,4.2c1.9,0,3.2-1.1,3.2-2.5c0-2.7-4.6-2.6-7.5-5.5
		c-0.7-0.7-1.1-1.9-1.1-2.9c0-2.6,2.1-4.3,5.1-4.3c1.9,0,3.4,0.5,4.7,1.5V83.5z"/>
	<path class="st0" d="M3,117l-2.7-1.3v-0.8l4.7-1.7h0.9v12.1c0,1.9,0.9,2.8,2.2,2.8v1.3H0.5v-1.3c1.3,0,2.5-0.8,2.5-2.6V117z
		 M4.3,105c1.1,0,1.9,0.8,1.9,1.9s-0.8,1.9-1.9,1.9c-1,0-1.9-0.8-1.9-1.9S3.3,105,4.3,105z"/>
	<path class="st0" d="M22.2,117l-2.7-1.3v-0.8l4.7-1.7h0.9v12.1c0,1.9,0.9,2.8,2.2,2.8v1.3h-7.6v-1.3c1.3,0,2.5-0.8,2.5-2.6V117z
		 M23.5,105c1.1,0,1.9,0.8,1.9,1.9s-0.8,1.9-1.9,1.9c-1,0-1.9-0.8-1.9-1.9S22.5,105,23.5,105z"/>
	<path class="st0" d="M34.2,125.2c0,1.9,0.8,2.9,2.8,2.9v1.3h-8.4v-1.3c1.8-0.1,2.6-0.9,2.6-2.7V117l-2.3-1.3v-0.8l4.4-1.6h0.9v3
		h0.1c1.4-1.9,3.7-3,5.6-3c3.3,0,5.1,1.6,5.1,5.4v6.7c0,1.8,0.5,2.6,2.5,2.8v1.3h-8.3v-1.3c2,0,2.8-1,2.8-2.9v-5.8
		c0-2.2-1-3.9-3.3-3.9c-1.6,0-3.1,0.8-4.6,2.1V125.2z"/>
	<path class="st0" d="M59.4,118.5h-1.1c-0.5-2.8-1.6-4-3.6-4c-1.6,0-2.6,0.8-2.6,2.3c0,2.6,5.3,3.3,7.3,5.2c0.7,0.7,1.1,1.9,1.1,3
		c0,2.9-2.1,4.6-5.4,4.6c-1.8,0-3.8-0.5-5.1-1.1v-4.4h1.2c0.4,2.7,1.6,4.2,3.7,4.2c1.9,0,3.2-1.1,3.2-2.5c0-2.7-4.6-2.6-7.5-5.5
		c-0.7-0.7-1.1-1.9-1.1-2.9c0-2.6,2.1-4.3,5.1-4.3c1.9,0,3.4,0.5,4.7,1.5V118.5z"/>
	<path class="st0" d="M67.9,131.8c0,2.3,1,2.9,3,2.9v1.3h-8.5v-1.3c1.7,0,2.6-1.1,2.6-2.6V117l-2.5-1.3v-0.8l4.6-1.7h0.9v2.6
		c1.8-1.8,3.6-2.6,5.7-2.6c3.8,0,6.4,3.1,6.4,7.4c0,5-3.6,9.1-8.1,9.1c-1.4,0-2.8-0.3-4.1-1V131.8z M67.9,123.5c0,3,1.9,4.7,4.4,4.7
		c3,0,4.8-2.1,4.8-6c0-4.9-3-6.6-5.1-6.6c-1.3,0-2.8,0.6-4.1,1.6V123.5z"/>
	<path class="st0" d="M85.2,117l-2.7-1.3v-0.8l4.7-1.7h0.9v12.1c0,1.9,0.9,2.8,2.2,2.8v1.3h-7.6v-1.3c1.3,0,2.5-0.8,2.5-2.6V117z
		 M86.6,105c1.1,0,1.9,0.8,1.9,1.9s-0.8,1.9-1.9,1.9c-1,0-1.9-0.8-1.9-1.9S85.5,105,86.6,105z"/>
	<path class="st0" d="M97.4,124.7c0,2.6,0.5,3.4,3.6,3.4v1.3h-9.1v-1.3c1.4,0,2.6-0.7,2.6-2.7v-8.2l-2.6-1.3v-0.8l4.7-1.9h0.9v3.5
		h0.1c1.6-2.6,2.5-3.3,4.3-3.3c1.5,0,2.6,1.3,2.6,2c0,0.2-0.4,2.3-1.4,2.3c-1.2,0-1.5-1.6-2.6-1.6c-0.8,0-1.5,0.6-2.9,2.6V124.7z"/>
	<path class="st0" d="M114.9,117.5c0-2.1-2.1-2.8-3.2-2.8c-1.4,0-2.7,0.8-2.7,1.6c0,0.8,1.4,2,0.5,2.4l-2.1,1
		c-0.2,0.1-1.2-1.6-1.2-2.4c0-1.6,1.9-4.1,6.4-4.1c3.3,0,5.1,1.1,5.1,3.7v9c0,1.3,0.8,1.7,2,0.9l0.3,1.3c-1,1.2-1.9,1.6-2.8,1.6
		c-1.3,0-2.2-0.9-2.4-2.5c-2,1.8-3.5,2.5-5.2,2.5c-2.3,0-3.9-1.6-3.9-3.7c0-2.2,1.5-3.5,5.4-4.8l3.7-1.3V117.5z M113.1,121.9
		c-2.8,1-4.1,1.8-4.1,3.2c0,1.1,0.7,2.3,2.5,2.3c1.3,0,2.3-0.6,3.5-1.8v-4.4L113.1,121.9z"/>
	<path class="st0" d="M127.3,124.7c0,2.6,0.5,3.4,3.6,3.4v1.3h-9.1v-1.3c1.4,0,2.6-0.7,2.6-2.7v-8.2l-2.6-1.3v-0.8l4.7-1.9h0.9v3.5
		h0.1c1.6-2.6,2.5-3.3,4.3-3.3c1.5,0,2.6,1.3,2.6,2c0,0.2-0.4,2.3-1.4,2.3c-1.2,0-1.5-1.6-2.6-1.6c-0.8,0-1.5,0.6-2.9,2.6V124.7z"/>
	<path class="st0" d="M135.2,119.7h10.7v2.7h-10.7V119.7z"/>
	<path class="st0" d="M158.2,118.5h-1.1c-0.5-2.8-1.6-4-3.6-4c-1.6,0-2.6,0.8-2.6,2.3c0,2.6,5.3,3.3,7.3,5.2c0.7,0.7,1.1,1.9,1.1,3
		c0,2.9-2.1,4.6-5.4,4.6c-1.8,0-3.8-0.5-5.1-1.1v-4.4h1.2c0.4,2.7,1.6,4.2,3.7,4.2c1.9,0,3.2-1.1,3.2-2.5c0-2.7-4.6-2.6-7.5-5.5
		c-0.7-0.7-1.1-1.9-1.1-2.9c0-2.6,2.1-4.3,5.1-4.3c1.9,0,3.4,0.5,4.7,1.5V118.5z"/>
	<path class="st0" d="M164.9,119.6c-0.2,4.7,2.8,7.3,6.1,7.3c1.6,0,3-0.5,4.4-1.7l0.7,0.7c-1.5,2.5-3.9,3.8-6.5,3.8
		c-4.2,0-7.3-3.4-7.3-8.1c0-4.8,3.2-8.4,7.3-8.4c4.5,0,6.5,4,6.5,6.4H164.9z M172.4,118.4c-0.3-2.5-1.5-3.9-3.5-3.9
		c-2,0-3.5,1.5-3.8,3.9H172.4z"/>
</g>
</svg>
