<?xml version="1.0" encoding="utf-8"?>
<!-- Generator: Adobe Illustrator 24.3.0, SVG Export Plug-In . SVG Version: 6.00 Build 0)  -->
<svg version="1.1" id="Laag_1" xmlns="http://www.w3.org/2000/svg" xmlns:xlink="http://www.w3.org/1999/xlink" x="0px" y="0px"
	 width="167.6px" height="160.7px" viewBox="0 0 167.6 160.7" style="enable-background:new 0 0 167.6 160.7;" xml:space="preserve"
	>
<style type="text/css">
	.st0{fill:#FFFFFF;}
	.st1{fill-rule:evenodd;clip-rule:evenodd;fill:#FFFFFF;}
</style>
<path class="st0" d="M119.7,10.8l-1.6-4.2l-1.6,4.2H119.7z M117.3,4.5h1.6l4.4,10.2h-2.1l-1-2.3h-4.4l-0.9,2.3h-2L117.3,4.5z"/>
<polygon class="st0" points="125.8,4.5 127.7,4.5 127.7,13 132,13 132,14.7 125.8,14.7 "/>
<path class="st0" d="M141.2,10.8l-1.6-4.2l-1.6,4.2H141.2z M138.9,4.5h1.6l4.4,10.2h-2.1l-1-2.3h-4.4l-0.9,2.3h-2L138.9,4.5z"/>
<polygon class="st0" points="117.6,20.9 124.4,20.9 124.4,22.5 119.4,22.5 119.4,25 124.1,25 124.1,26.7 119.4,26.7 119.4,29.5 
	124.6,29.5 124.6,31.1 117.6,31.1 "/>
<polygon class="st0" points="132.9,20.9 134.7,20.9 134.7,29.5 139,29.5 139,31.1 132.9,31.1 "/>
<path class="st0" d="M148.2,27.2l-1.6-4.2l-1.6,4.2H148.2z M145.9,20.9h1.6l4.4,10.2h-2.1l-1-2.3h-4.4l-0.9,2.3h-2L145.9,20.9z"/>
<polygon class="st0" points="105.6,37.3 108.4,37.3 111.1,44.5 113.9,37.3 116.6,37.3 116.6,47.5 114.9,47.5 114.9,39 114.9,39 
	111.8,47.5 110.5,47.5 107.4,39 107.4,39 107.4,47.5 105.6,47.5 "/>
<rect x="140.9" y="37.3" class="st0" width="1.8" height="10.2"/>
<g>
	<path class="st0" d="M153,39.7c-0.8-0.8-1.4-1-2.2-1c-2.1,0-3.5,1.6-3.5,3.7c0,2.2,1.4,3.8,3.5,3.8c0.8,0,1.6-0.4,2.3-1.2l1.5,1.1
		c-0.9,1.3-2.3,1.8-3.8,1.8c-3.1,0-5.4-2.1-5.4-5.3c0-3.3,2.3-5.4,5.4-5.4c1.4,0,2.6,0.4,3.6,1.6L153,39.7z"/>
</g>
<path class="st0" d="M162.9,43.6l-1.6-4.2l-1.6,4.2H162.9z M160.6,37.3h1.6l4.4,10.2h-2.1l-1-2.3h-4.4l-0.9,2.3h-2L160.6,37.3z"/>
<g>
	<path class="st0" d="M114.5,58.8c0-2.4-1.6-4.2-4-4.2s-4,1.9-4,4.2c0,2.4,1.6,4.2,4,4.2C112.9,63.1,114.5,61.2,114.5,58.8
		 M105.1,58.8c0-3.1,2.2-5.4,5.3-5.4s5.3,2.3,5.3,5.4c0,3.1-2.2,5.4-5.3,5.4S105.1,61.9,105.1,58.8"/>
	<path class="st0" d="M120,58.2h1.1c1.3,0,3.1,0,3.1-1.7c0-1.5-1.3-1.7-2.5-1.7H120V58.2z M118.8,53.7h2.6c2,0,4.1,0.3,4.1,2.8
		c0,1.5-1,2.5-2.6,2.7l2.9,4.7h-1.5l-2.8-4.6H120V64h-1.2V53.7z"/>
</g>
<polygon class="st0" points="128.7,53.7 135.1,53.7 135.1,54.9 129.9,54.9 129.9,58.2 134.7,58.2 134.7,59.4 129.9,59.4 129.9,64 
	128.7,64 "/>
<polygon class="st0" points="137.8,53.7 144.3,53.7 144.3,54.9 139.1,54.9 139.1,58.1 143.9,58.1 143.9,59.2 139.1,59.2 139.1,62.8 
	144.5,62.8 144.5,64 137.8,64 "/>
<g>
	<path class="st0" d="M152.7,50.9h1.6l-2.1,2.1h-1L152.7,50.9z M156.3,58.8c0-2.4-1.6-4.2-4-4.2s-4,1.9-4,4.2c0,2.4,1.6,4.2,4,4.2
		C154.6,63.1,156.3,61.2,156.3,58.8 M146.9,58.8c0-3.1,2.2-5.4,5.3-5.4s5.3,2.3,5.3,5.4c0,3.1-2.2,5.4-5.3,5.4
		C149.1,64.2,146.9,61.9,146.9,58.8"/>
	<path class="st0" d="M112.9,72.3c-0.6-0.8-1.6-1.2-2.6-1.2c-2.3,0-3.9,2-3.9,4.2c0,2.4,1.6,4.2,3.9,4.2c1.2,0,2.2-0.5,3-1.4
		l0.9,0.8c-0.9,1.2-2.2,1.8-3.9,1.8c-2.9,0-5.2-2.3-5.2-5.4c0-3,2.2-5.4,5.2-5.4c1.4,0,2.7,0.5,3.6,1.6L112.9,72.3z"/>
</g>
<path class="st0" d="M121.4,71.7L121.4,71.7l-2.2,5h4.2L121.4,71.7z M120.9,70.2h1.1l4.3,10.2h-1.4l-1-2.5h-5.1l-1.1,2.5h-1.4
	L120.9,70.2z"/>
<polygon class="st0" points="135.6,71.3 132.3,71.3 132.3,80.4 131,80.4 131,71.3 127.7,71.3 127.7,70.2 135.6,70.2 "/>
<path class="st0" d="M141.4,71.7L141.4,71.7l-2.2,5h4.2L141.4,71.7z M140.9,70.2h1.1l4.3,10.2H145l-1-2.5h-5.1l-1.1,2.5h-1.4
	L140.9,70.2z"/>
<polygon class="st0" points="149.1,70.2 150.3,70.2 150.3,79.3 155,79.3 155,80.4 149.1,80.4 "/>
<path class="st0" d="M162.7,71.7L162.7,71.7l-2.2,5h4.2L162.7,71.7z M163.6,69.4h-1l-2.1-2.1h1.6L163.6,69.4z M162.2,70.2h1.1
	l4.3,10.2h-1.4l-1-2.5h-5.1l-1.1,2.5h-1.4L162.2,70.2z"/>
<g>
	<path class="st0" d="M71.4,54.1c-1.9,3.1-5.2,4.2-9,4.2c-3.8,0-7.1-1.1-9-4.2c-1.6-2.5-2.3-6.3-2.7-9.8c8.9-1.6,17.5-9.9,17.5-22
		c0-2.3-0.3-4.4-0.9-6.3c1.7,0.7,3.1,1.7,4,3.4c3,5,3,14.3,3,17.4C74.5,39.7,74.4,49.2,71.4,54.1 M43.8,80.8c-1.9,3.1-5.2,4.2-9,4.2
		s-7.1-1.1-9-4.2c-1.4-2.3-2.2-5.8-2.6-9.1c9-1.4,17.7-9.8,17.7-22c0-2.5-0.4-4.8-1-7c1.6,0.7,2.9,1.7,3.9,3.3c3,5,3,14.3,3,17.4
		C46.8,66.4,46.7,76,43.8,80.8 M11.5,67c-3-5-3-14.3-3-17.4c0-3,0.1-12.6,3-17.4c1.9-3.1,5.2-4.2,9-4.2s7.1,1.1,9,4.2
		c1.4,2.3,2.2,5.8,2.6,9.1c-9,1.4-17.7,9.8-17.7,22c0,2.5,0.4,4.8,1,7C13.8,69.7,12.4,68.6,11.5,67 M38.8,4.9c1.9-3.1,5.2-4.2,9-4.2
		s7.1,1.1,9,4.2c1.6,2.5,2.3,6.3,2.7,9.8c-8.9,1.6-17.5,9.9-17.5,22c0,2.3,0.3,4.4,0.9,6.3c-1.7-0.7-3.1-1.7-4-3.4
		c-3-5-3-14.3-3-17.4C35.8,19.2,35.8,9.7,38.8,4.9 M32.5,49.7c0,3-0.1,12.4-3,17.4c-1.4,2.4-3.7,3.6-6.3,4c-0.3-3.2-0.4-6.2-0.4-7.7
		c0-3,0.1-12.4,3-17.4c1.4-2.3,3.7-3.6,6.3-4C32.5,45.2,32.5,48.2,32.5,49.7 M59.8,22.3c0,3-0.1,12.4-3,17.4c-1.3,2.3-3.5,3.5-6.1,4
		c-0.3-2.9-0.3-5.6-0.3-6.9c0-3,0.1-12.4,3-17.4c1.4-2.3,3.5-3.5,6.1-4C59.8,18.3,59.8,20.9,59.8,22.3 M67.1,15.1
		C64.1,5.8,55.5,0,47.8,0c-9.6,0-20.5,8.8-20.5,22.3c0,2.5,0.4,4.9,1,7c-2.6-1.2-5.3-1.9-7.9-1.9C10.9,27.4,0,36.2,0,49.7
		C0,60.9,7.4,69,15.7,71.2c3.2,8.9,11.6,14.4,19.1,14.4c9.6,0,20.5-8.8,20.5-22.3c0-2.3-0.3-4.4-0.9-6.4c2.6,1.3,5.4,2,8.1,2
		c9.6,0,20.5-8.8,20.5-22.3C82.9,25.3,75.4,17.3,67.1,15.1"/>
</g>
<path class="st0" d="M108.5,8.9c1,0,2.4-0.1,2.4-1.4s-1.2-1.4-2.2-1.4h-1.3V9h1.1V8.9z M105.6,4.5h3.4c2,0,3.8,0.7,3.8,3
	c0,2.6-1.9,3-4.1,3h-1.3v4.2h-1.8V4.5z"/>
<path class="st0" d="M155.2,10.9c0,2.5-1.8,4-4.1,4s-4.1-1.5-4.1-4V4.5h1.8v6.4c0,1,0.5,2.3,2.3,2.3c1.7,0,2.3-1.3,2.3-2.3V4.5h1.8
	V10.9z"/>
<path class="st0" d="M108.8,29.5c2.3,0,4.1-1,4.1-3.5s-1.6-3.5-3.8-3.5h-1.7v6.9h1.4V29.5z M105.6,20.9h4c2.7,0,5.2,1.6,5.2,5.1
	s-3,5.1-5.4,5.1h-3.8C105.6,31.1,105.6,20.9,105.6,20.9z"/>
<path class="st0" d="M124.9,34.5h2l-2,2.1h-1.4L124.9,34.5z M128.2,43.8c0,2.5-1.8,4-4.1,4c-2.3,0-4.1-1.5-4.1-4v-6.5h1.8v6.4
	c0,1,0.5,2.3,2.3,2.3c1.7,0,2.3-1.3,2.3-2.3v-6.4h1.8L128.2,43.8L128.2,43.8z"/>
<path class="st0" d="M136.5,39.5c-0.4-0.5-1.1-0.8-1.8-0.8c-0.8,0-1.7,0.4-1.7,1.3c0,2.1,4.9,0.9,4.9,4.5c0,2.2-1.7,3.3-3.7,3.3
	c-1.3,0-2.5-0.4-3.3-1.4l1.4-1.3c0.4,0.7,1.2,1.1,2,1.1s1.8-0.5,1.8-1.4c0-2.2-4.9-1-4.9-4.6c0-2.1,1.9-3.1,3.8-3.1
	c1.1,0,2.1,0.3,2.9,1.1L136.5,39.5z"/>
<path class="st0" d="M35.4,99.9c-14.1,0-25.5,11.4-25.5,25.5c0,12.6,9.3,23.4,21.8,25.2c0.2,0,0.5,0.1,0.7,0.1c1,0,1.8-0.8,1.8-1.8
	v-12.6l-10.9-10.8l12.2-12.2l12.2,12.2l-10.8,10.8l0,0v12.5c0,1.4,0.8,2.2,2,1.9c14-2,23.7-14.9,21.7-28.8
	C58.8,109.3,48.1,100,35.4,99.9L35.4,99.9z M40.9,146.2v-8l-0.1,0l12.5-12.6l-17.9-17.8l-17.9,17.9l12.8,12.8v7.8
	c-11.5-2.9-18.5-14.7-15.6-26.2s14.7-18.5,26.2-15.6c11.5,2.9,18.5,14.7,15.6,26.2C54.6,138.3,48.5,144.3,40.9,146.2L40.9,146.2z"/>
<path id="l" class="st0" d="M7.3,109c-0.6-0.3-0.9-0.6-1.3-0.8c0.1-0.1,0.2-0.2,0.3-0.4c0.1-0.2,0.3-0.5,0.4-0.7
	c0.3-0.5,0.5-0.6,0.7-0.7c0.3-0.1,0.6,0,0.8,0.1c0.7,0.5,0.7,1.2,0.2,1.9l-0.2,0.2c0.5,0.3,0.9,0.6,1.5,0.9
	c-0.1,0.1-0.2,0.2-0.3,0.4c-0.1,0.1-0.2,0.3-0.2,0.4c-0.4-0.3-0.8-0.6-1.3-0.9L7.3,109z M6.9,107.4c0,0.1-0.1,0.1-0.1,0.2l1.3,0.9
	c0.3-0.3,0.3-0.8,0-1c0,0-0.1-0.1-0.2-0.1C7.4,107,7.1,107.1,6.9,107.4L6.9,107.4L6.9,107.4z"/>
<path id="c" class="st0" d="M12.8,105.4c-0.1,0.1-0.2,0.2-0.3,0.4c-0.1,0.1-0.2,0.3-0.3,0.4c-0.4-0.1-0.8-0.3-1.1-0.4
	c-0.1,0.2-0.3,0.4-0.5,0.6l-0.4,0.5c0.2,0.4,0.4,0.7,0.7,1c-0.1,0.1-0.1,0.1-0.2,0.2c0,0.1-0.1,0.1-0.1,0.2
	c-0.3-0.6-1.4-2.5-2.1-3.7c0.1,0,0.1-0.1,0.2-0.1c0,0,0.1-0.1,0.1-0.2C10.1,104.6,11.8,105.1,12.8,105.4z M10.7,105.6
	c-0.5-0.2-0.9-0.3-1.4-0.4c0.2,0.4,0.5,0.8,0.7,1.3L10.7,105.6z"/>
<path id="f" class="st0" d="M11.4,102.6c-0.1-0.1-0.2-0.2-0.4-0.3c-0.1,0.2-0.5,0.6-0.7,0.8c0-0.1-0.1-0.1-0.1-0.2
	c-0.1-0.1-0.1-0.1-0.2-0.1c0.4-0.4,0.6-0.6,1-1c0.5-0.5,0.7-0.7,1-1c0,0.1,0.1,0.1,0.2,0.2c0.1,0.1,0.1,0.1,0.2,0.1
	c-0.3,0.2-0.5,0.4-0.7,0.7c0.1,0.1,0.2,0.2,0.3,0.3l1,1c0.5,0.4,0.8,0.7,1.2,1.1c-0.1,0.1-0.2,0.2-0.3,0.3s-0.2,0.3-0.3,0.3
	c-0.3-0.4-0.6-0.7-1.1-1.1L11.4,102.6z"/>
<path id="b" class="st0" d="M14.8,101L14.8,101l0.1,0.2c0.4,0.5,0.7,0.8,1,1.2c-0.1,0.1-0.3,0.2-0.4,0.3c-0.1,0.1-0.2,0.2-0.3,0.3
	c-0.3-0.4-0.6-0.7-1-1.2l-0.5-0.6c-0.4-0.5-0.7-0.8-1-1.2c0.1-0.1,0.3-0.2,0.4-0.3c0.2-0.1,0.3-0.3,0.6-0.6c0.4-0.4,0.6-0.5,0.9-0.5
	c0.3,0,0.6,0.1,0.7,0.3c0.3,0.4,0.3,1,0,1.4c0.7,0.3,1.4,0.5,2.2,0.7c-0.1,0.1-0.3,0.2-0.4,0.3c-0.1,0.1-0.3,0.2-0.4,0.3L14.8,101z
	 M13.7,99.7c0.3,0.4,0.6,0.8,1,1.2l0.1-0.1c0.3-0.2,0.4-0.7,0.2-1c0,0-0.1-0.1-0.1-0.1C14.4,99.2,14.1,99.3,13.7,99.7L13.7,99.7z"/>
<path id="a" class="st0" d="M16.7,98.9c-0.4-0.6-0.6-0.9-0.9-1.3c0.1-0.1,0.2-0.1,0.4-0.2s0.3-0.2,0.4-0.3c0.3,0.4,0.5,0.8,0.8,1.3
	l0.4,0.6c0.4,0.6,0.6,0.9,0.9,1.3c-0.1,0.1-0.3,0.1-0.4,0.2c-0.2,0.1-0.3,0.2-0.4,0.3c-0.2-0.4-0.5-0.8-0.8-1.3
	C17.1,99.5,16.7,98.9,16.7,98.9L16.7,98.9z"/>
<path id="k" class="st0" d="M18.7,97.3c0.3,0.8,0.7,1.6,1,2.4c-0.1,0-0.2,0-0.2,0.1c-0.1,0-0.1,0.1-0.2,0.1
	c-0.4-1.3-0.8-2.5-1.3-3.7c0.1,0,0.1,0,0.2-0.1c0.1,0,0.1-0.1,0.2-0.1c0.8,0.6,1.7,1.3,2.4,1.8c0-0.9,0-2-0.1-3c0.1,0,0.1,0,0.2-0.1
	c0.1,0,0.1-0.1,0.2-0.1c0.7,1.1,1.7,2.6,2.2,3.2c-0.1,0-0.3,0.1-0.4,0.2c-0.1,0.1-0.3,0.1-0.4,0.2c-0.4-0.7-0.9-1.5-1.4-2.2
	c0,1,0.1,1.9,0.1,2.9c0,0-0.1,0-0.1,0L21,99C20.3,98.4,19.5,97.8,18.7,97.3L18.7,97.3z"/>
<path id="d" class="st0" d="M24.4,93.2c1.1-0.4,2.2-0.1,2.7,1.2c0.4,1.1-0.2,2.2-1.3,2.6c0,0,0,0-0.1,0c-1.1,0.4-2.2,0.1-2.7-1.2
	c-0.4-1.1,0.2-2.2,1.3-2.6C24.3,93.2,24.4,93.2,24.4,93.2z M24.5,93.5c-0.7,0.2-0.9,1.1-0.6,2c0.4,1.1,1,1.4,1.6,1.1
	c0.6-0.2,1-0.9,0.6-2.1C25.9,93.6,25.2,93.2,24.5,93.5L24.5,93.5z"/>
<path id="j" class="st0" d="M27.7,92.2c0.1,0,0.2,0,0.3,0s0.2,0,0.2-0.1c1,0.7,1.9,1.5,2.9,2.2c-0.2-0.9-0.4-2.4-0.5-2.6
	c0.1,0,0.2,0,0.2,0c0.1,0,0.2,0,0.2-0.1c0.2,1.6,0.3,2.4,0.6,3.8c-0.1,0-0.2,0-0.2,0s-0.1,0-0.2,0.1c-0.9-0.7-1.9-1.5-2.9-2.2
	c0.1,0.4,0.1,0.9,0.2,1.3c0.2,0.9,0.2,1.2,0.3,1.4h-0.3c-0.1,0-0.2,0-0.2,0.1c0-0.2-0.2-1.6-0.4-2.7C27.8,92.8,27.7,92.5,27.7,92.2
	L27.7,92.2z"/>
<path class="st0" d="M32.6,93.1c0-0.6-0.1-1.1-0.2-1.5h0.5c0.2,0,0.3,0,0.5-0.1c0,0.5,0,0.9,0.1,1.6l0,0.8c0,0.6,0.1,1.1,0.2,1.5
	c-0.1,0-0.3,0-0.5,0c-0.2,0-0.3,0-0.5,0.1c0-0.5,0-0.9-0.1-1.6L32.6,93.1z"/>
<path class="st0" d="M36.6,91.4c1.2,0,2.1,0.7,2.1,2.1c0,1.1-1,2-2.1,2h-0.1c-1.2,0-2.1-0.7-2.1-2.1c0-1.1,1-2,2.1-2
	C36.5,91.3,36.5,91.3,36.6,91.4z M36.6,91.7c-0.8,0-1.2,0.7-1.3,1.7c0,1.2,0.5,1.6,1.1,1.6c0.6,0,1.3-0.6,1.3-1.7
	C37.8,92.3,37.3,91.7,36.6,91.7L36.6,91.7z"/>
<path class="st0" d="M41.9,93.3c-0.3,0.8-0.6,1.6-0.8,2.4l-0.2-0.1c-0.1,0-0.2,0-0.3,0c0.6-1.2,1-2.4,1.5-3.6c0.1,0,0.1,0.1,0.2,0.1
	h0.2c0.2,1,0.4,2.1,0.6,2.9c0.6-0.7,1.3-1.5,1.9-2.3l0.2,0.1h0.2c-0.2,1.3-0.4,3.1-0.5,3.9c-0.1,0-0.3-0.1-0.4-0.1
	c-0.1,0-0.3-0.1-0.5-0.1c0.1-0.8,0.3-1.7,0.4-2.6c-0.6,0.7-1.2,1.5-1.8,2.2c0,0-0.1,0-0.1,0h-0.1C42.3,95.2,42.1,94.3,41.9,93.3
	L41.9,93.3z"/>
<path class="st0" d="M46.2,95.7c0.2-0.6,0.4-0.8,0.5-1.2c0.2-0.6,0.4-0.9,0.4-1.1c0.3,0.1,0.6,0.3,0.8,0.4c-0.3,0.6-0.6,1.2-0.8,1.8
	c-0.6,1.3-0.3,1.6,0.4,1.9c0.8,0.3,1.3-0.6,1.7-1.5c0.2-0.5,0.4-1,0.6-1.5c0.1,0,0.2,0.1,0.2,0.1c0.1,0,0.2,0.1,0.3,0.1
	c-0.2,0.3-0.5,1-0.9,1.9c-0.5,1.2-1.2,1.5-2.2,1.1C46.3,97.3,45.8,96.6,46.2,95.7L46.2,95.7z"/>
<path class="st0" d="M51.7,95.4c0.1,0.1,0.1,0.1,0.2,0.1c0.1,0,0.1,0.1,0.2,0.1c0.2,1.2,0.5,2.4,0.7,3.6c0.5-0.8,1.3-2.1,1.4-2.3
	c0.1,0.1,0.3,0.2,0.4,0.3c-0.9,1.4-1.3,2-2.1,3.3c-0.1,0-0.1-0.1-0.2-0.1c-0.1,0-0.1-0.1-0.2-0.1c-0.2-1.2-0.4-2.4-0.7-3.6
	c-0.2,0.4-0.5,0.7-0.7,1.1c-0.5,0.8-0.6,1.1-0.7,1.2c-0.1-0.1-0.1-0.1-0.2-0.2c-0.1,0-0.1-0.1-0.2-0.1c0.1-0.1,0.9-1.3,1.5-2.3
	C51.4,95.9,51.6,95.6,51.7,95.4L51.7,95.4z"/>
<path id="i" class="st0" d="M54.8,99.3c0.4-0.5,0.7-0.8,0.9-1.2c0.1,0.1,0.2,0.2,0.3,0.3c0.1,0.1,0.4,0.3,0.8,0.6
	c1,0.8,1.4,1.7,0.6,2.8c-0.6,0.9-1.9,1.1-2.7,0.4c0,0,0,0-0.1-0.1c-0.4-0.4-0.7-0.6-0.9-0.8c-0.1-0.1-0.2-0.2-0.4-0.3
	c0.3-0.4,0.6-0.7,1-1.2L54.8,99.3L54.8,99.3z M54.9,100.5c-0.2,0.2-0.6,0.8-0.7,0.8c0.1,0.1,0.2,0.2,0.4,0.3
	c0.7,0.6,1.4,0.4,2.2-0.5c0.6-0.7,0.6-1.5,0-2c-0.1-0.1-0.3-0.2-0.5-0.3c-0.1,0.1-0.5,0.6-0.7,0.8L54.9,100.5L54.9,100.5z"/>
<path class="st0" d="M58.3,102.3c0.5-0.4,0.7-0.8,1.1-1.1c0.1,0.1,0.2,0.2,0.3,0.3s0.2,0.2,0.3,0.3c-0.4,0.3-0.7,0.6-1.1,1.1
	l-0.6,0.6c-0.5,0.4-0.7,0.8-1.1,1.1c-0.1-0.1-0.2-0.2-0.3-0.3c-0.1-0.1-0.2-0.2-0.3-0.3c0.4-0.3,0.7-0.6,1.1-1.1L58.3,102.3z"/>
<path class="st0" d="M60,107.7c-0.1-0.1-0.2-0.3-0.3-0.4c-0.1-0.1-0.2-0.2-0.3-0.4c0.2-0.3,0.4-0.7,0.6-1c-0.1-0.2-0.3-0.4-0.5-0.6
	c-0.2-0.2-0.2-0.3-0.4-0.5c-0.4,0.1-0.8,0.3-1.1,0.4c0-0.1-0.1-0.1-0.1-0.2c-0.1-0.1-0.1-0.1-0.2-0.2c0.7-0.2,2.7-0.8,4-1.3
	c0,0.1,0.1,0.1,0.1,0.2S62,104,62,104C61.3,105.2,60.4,106.8,60,107.7L60,107.7z M60.2,105.6c0.2-0.4,0.5-0.8,0.7-1.2
	c-0.5,0.1-0.9,0.3-1.4,0.4L60.2,105.6z"/>
<path id="h" class="st0" d="M62.2,107c0.6-0.3,0.9-0.6,1.3-0.9c0.1,0.1,0.1,0.2,0.2,0.4c0.1,0.1,0.2,0.3,0.3,0.4
	c-0.4,0.2-0.8,0.5-1.3,0.8l-0.6,0.4c-0.3,0.2-0.7,0.5-0.9,0.6c0.2,0.4,0.5,0.7,0.8,1c-0.1,0-0.1,0.1-0.2,0.1c-0.1,0-0.1,0.1-0.2,0.1
	c-0.1-0.2-0.2-0.4-0.6-0.8c-0.5-0.8-0.6-0.9-0.7-1c0.4-0.2,0.8-0.5,1.3-0.8L62.2,107L62.2,107z"/>
<path id="g" class="st0" d="M6.6,112.5c-0.1,0.3-0.4,0.4-0.7,0.3c-0.3-0.1-0.4-0.4-0.3-0.7c0.1-0.3,0.4-0.4,0.7-0.3h0
	C6.6,111.9,6.7,112.2,6.6,112.5z"/>
<g>
	<path class="st0" d="M5.2,117.6c-0.7-0.5-1.8-1.2-2.5-1.7c0-0.1,0.1-0.2,0.1-0.3l0-0.3c1,0,3.9-0.1,4.1-0.1c0,0.2-0.1,0.3-0.1,0.5
		c0,0.1-0.1,0.3-0.1,0.5h-3c0.8,0.6,2.1,1.4,2.6,1.7c0,0.1-0.1,0.2-0.1,0.3s0,0.2,0,0.3c-0.5,0-2.2,0.1-3,0.1
		c0.9,0.6,2.2,1.4,2.6,1.6c0,0.1-0.1,0.1-0.1,0.2c0,0.1,0,0.2,0,0.3c-0.4-0.3-2.4-1.6-3.5-2.3c0-0.1,0.1-0.2,0.1-0.3l0-0.3
		C3.2,117.7,4.2,117.7,5.2,117.6L5.2,117.6z"/>
	<path class="st0" d="M7.1,141c-0.1-0.3-0.2-0.6-0.4-0.8c-0.1-0.2-0.3-0.5-0.4-0.8L6,139.6c-0.6,0.3-1,0.5-1.4,0.8
		c0-0.1-0.1-0.3-0.2-0.4c-0.1-0.1-0.1-0.3-0.2-0.4c0.5-0.2,0.9-0.4,1.4-0.7l0.7-0.3c0.6-0.3,1-0.5,1.4-0.8c0,0.1,0.1,0.3,0.2,0.4
		c0.1,0.1,0.1,0.3,0.2,0.4c-0.5,0.2-0.9,0.4-1.4,0.7c0.1,0.2,0.2,0.4,0.4,0.8c0.2,0.4,0.3,0.6,0.4,0.8c0.6-0.3,1-0.5,1.4-0.7
		c0,0.1,0.1,0.3,0.2,0.4c0.1,0.2,0.2,0.3,0.2,0.4c-0.5,0.2-0.9,0.4-1.5,0.7l-0.7,0.4c-0.6,0.3-1,0.5-1.4,0.8c0-0.1-0.1-0.3-0.2-0.4
		c-0.1-0.1-0.1-0.3-0.2-0.4c0.5-0.2,0.9-0.4,1.5-0.7L7.1,141z"/>
	<path class="st0" d="M22.8,154c-0.1-0.5-0.3-0.8-0.8-1c-0.6-0.3-1.6-0.1-2.1,0.9c-0.4,0.8-0.3,1.6,0.5,2.1c0.2,0.1,0.4,0.2,0.6,0.2
		c0.1-0.1,0.1-0.2,0.2-0.3c0.3-0.6,0.4-0.8,0.4-0.9c0.1,0.1,0.2,0.2,0.4,0.2c0.1,0.1,0.3,0.1,0.4,0.2c-0.2,0.3-0.3,0.6-0.5,0.8
		c-0.1,0.2-0.2,0.5-0.3,0.6c-0.5-0.1-1-0.2-1.5-0.5c-1.2-0.6-1.7-1.7-1.2-2.7c0.7-1.3,1.9-1.5,3.1-0.9c0.4,0.2,0.8,0.5,1.1,0.9
		C23.1,153.7,23,153.8,22.8,154L22.8,154L22.8,154z"/>
	<path id="e" class="st0" d="M60.6,145.1c-0.5-0.4-0.9-0.6-1.3-0.9c0.2-0.3,0.4-0.6,0.6-0.8c0.3-0.5,0.6-0.8,0.7-1
		c0,0.1,0.1,0.1,0.2,0.2c0.1,0,0.1,0.1,0.2,0.1c-0.3,0.3-0.7,0.9-0.8,1c0.3,0.3,0.7,0.5,1,0.8c0.3-0.4,0.5-0.7,0.7-1.1
		c0,0.1,0.1,0.1,0.2,0.2c0.1,0,0.1,0.1,0.2,0.1c-0.3,0.3-0.6,0.7-0.8,1l0.6,0.4c0.2,0.1,0.4,0.3,0.6,0.4c0.3-0.3,0.5-0.7,0.7-1.1
		c0.1,0.1,0.1,0.1,0.2,0.2s0.1,0.1,0.2,0.1c-0.1,0.2-0.3,0.4-0.6,0.8c-0.2,0.3-0.5,0.7-0.7,1c-0.4-0.3-0.7-0.6-1.3-1L60.6,145.1z"/>
</g>
<g transform="matrix(.48833 .89577 -.89577 .48833 323 302.36)">
	<path id="l_1_" class="st0" d="M31.9,157.2c0-0.7,0.1-1.1,0.1-1.6c0.1,0,0.3,0,0.5,0.1c0.2,0,0.6,0,0.8,0c0.5,0,0.8,0.1,1,0.3
		c0.2,0.2,0.3,0.5,0.3,0.8c-0.1,0.9-0.7,1.2-1.6,1.1l-0.3,0c0,0.6-0.1,1.1-0.1,1.7c-0.1,0-0.3-0.1-0.5-0.1c-0.2,0-0.3,0-0.5,0
		c0.1-0.5,0.1-1,0.2-1.6L31.9,157.2z M33.1,156c-0.1,0-0.2,0-0.2,0l-0.1,1.6c0.4,0.1,0.8-0.1,0.9-0.5c0-0.1,0-0.1,0-0.2
		C33.7,156.2,33.4,156,33.1,156L33.1,156L33.1,156z"/>
</g>
<g transform="matrix(.64632 .78322 -.78322 .64632 293.55 291.17)">
	<path id="c_1_" class="st0" d="M38.2,159.7c-0.2,0-0.3,0-0.5,0c-0.2,0-0.3,0-0.5,0c-0.1-0.4-0.3-0.8-0.4-1.2c-0.2,0-0.5,0-0.7,0
		l-0.6,0c-0.1,0.4-0.3,0.8-0.4,1.2c-0.1,0-0.2,0-0.3,0s-0.2,0-0.3,0c0.3-0.6,1.1-2.7,1.6-4c0.1,0,0.2,0,0.2,0c0.1,0,0.1,0,0.2,0
		C37,157.1,37.7,158.8,38.2,159.7z M36.6,158.2c-0.2-0.5-0.3-0.9-0.5-1.4c-0.2,0.5-0.3,0.9-0.5,1.4L36.6,158.2z"/>
</g>
<g transform="matrix(.78967 .64088 -.64088 .78967 261.86 288.12)">
	<path id="f_1_" class="st0" d="M39.1,156.5c0-0.2,0-0.3-0.1-0.5c-0.2,0-0.7,0.1-1,0.2c0-0.1,0-0.2,0-0.2c0-0.1,0-0.2-0.1-0.2
		c0.5,0,0.8-0.1,1.5-0.1c0.7-0.1,1-0.1,1.4-0.2c0,0.1,0,0.2,0,0.3c0,0.1,0,0.2,0.1,0.2c-0.3,0-0.7,0-1,0c0,0.2,0,0.3,0.1,0.5
		l0.2,1.4c0.1,0.6,0.1,1.1,0.2,1.6c-0.1,0-0.3,0-0.5,0c-0.2,0-0.3,0.1-0.5,0.1c0-0.5-0.1-0.9-0.1-1.6L39.1,156.5z"/>
</g>
<g transform="matrix(.91401 .44455 -.44455 .91401 227.07 297.85)">
	<path id="b_1_" class="st0" d="M42.9,157.1L42.9,157.1l0,0.2c0.1,0.6,0.3,1,0.4,1.5c-0.2,0-0.3,0-0.5,0.1c-0.2,0-0.3,0.1-0.5,0.1
		c-0.1-0.5-0.2-0.9-0.3-1.6l-0.2-0.8c-0.1-0.6-0.3-1-0.4-1.5c0.2,0,0.3,0,0.5-0.1c0.2,0,0.4-0.1,0.8-0.2c0.6-0.1,0.8-0.1,1,0
		c0.3,0.1,0.5,0.3,0.5,0.6c0.1,0.5-0.1,1-0.6,1.2c0.5,0.5,1.1,1.1,1.6,1.6c-0.2,0-0.3,0.1-0.5,0.1c-0.2,0-0.3,0.1-0.5,0.1
		L42.9,157.1z M42.4,155.3c0.1,0.5,0.2,1,0.4,1.5l0.1,0c0.4,0,0.7-0.4,0.6-0.8c0-0.1,0-0.1,0-0.1C43.3,155.2,43,155.2,42.4,155.3
		L42.4,155.3z"/>
</g>
<g transform="matrix(.98036 .27193 -.27193 .98036 202.26 314.06)">
	<path id="a_1_" class="st0" d="M45.4,155.8c-0.2-0.6-0.4-1-0.5-1.5c0.1,0,0.3-0.1,0.4-0.1c0.2-0.1,0.3-0.1,0.4-0.2
		c0.1,0.5,0.3,0.9,0.5,1.5l0.3,0.7c0.2,0.6,0.4,1,0.6,1.5c-0.1,0-0.3,0.1-0.4,0.1c-0.2,0.1-0.3,0.1-0.4,0.2
		c-0.1-0.5-0.3-0.9-0.5-1.5C45.7,156.5,45.4,155.8,45.4,155.8L45.4,155.8z"/>
</g>
<g transform="matrix(1.016 .037463 -.037463 1.016 178.06 346.19)">
	<path id="k_1_" class="st0" d="M47.7,154.8c0.3,0.8,0.6,1.6,0.9,2.5c-0.1,0-0.2,0-0.3,0.1c-0.1,0-0.2,0.1-0.2,0.1
		c-0.4-1.3-0.8-2.6-1.2-3.8c0.1,0,0.2,0,0.2-0.1c0.1,0,0.1-0.1,0.2-0.1c0.8,0.6,1.7,1.4,2.4,1.9c0-1,0-2.1,0-3.1
		c0.1,0,0.2,0,0.2-0.1c0.1,0,0.2-0.1,0.2-0.1c0.7,1.1,1.7,2.7,2.2,3.3c-0.2,0-0.3,0.1-0.4,0.2c-0.1,0.1-0.3,0.1-0.4,0.2
		c-0.4-0.7-0.9-1.5-1.4-2.3c0,1,0,2,0,3c0,0-0.1,0-0.1,0l-0.1,0C49.2,156,48.4,155.4,47.7,154.8L47.7,154.8z"/>
</g>
<g transform="matrix(.82286 -.61803 .61803 .82286 183.37 471.52)">
	<path id="j_1_" class="st0" d="M56.3,147.4c0.1,0,0.2-0.1,0.2-0.2c0.1-0.1,0.1-0.1,0.2-0.2c1.2,0,2.5,0,3.7,0
		c-0.7-0.6-1.8-1.7-2.1-1.9c0.1-0.1,0.1-0.1,0.2-0.2c0.1-0.1,0.1-0.1,0.2-0.2c1.2,1.2,1.7,1.7,2.9,2.8c-0.1,0-0.1,0.1-0.2,0.1
		c0,0.1-0.1,0.1-0.1,0.2c-1.2,0-2.5,0-3.8,0c0.3,0.3,0.7,0.6,1,0.9c0.7,0.6,0.9,0.8,1.1,1l-0.2,0.2c-0.1,0.1-0.1,0.1-0.2,0.2
		c-0.1-0.1-1.1-1.2-2-2C56.8,147.8,56.5,147.6,56.3,147.4L56.3,147.4z"/>
</g>
<g transform="matrix(-.66191 -.78816 .78816 -.66191 619.13 607.56)">
	<path id="i_1_" class="st0" d="M67.3,127c-0.6,0-1.1,0-1.6,0.1c0-0.1,0-0.3,0-0.5s0-0.5,0-1c0-1.3,0.4-2.2,1.8-2.3
		c1.1-0.1,2.1,0.8,2.1,1.9c0,0,0,0.1,0,0.1c0,0.6,0,1,0,1.3c0,0.2,0,0.3,0,0.5c-0.5,0-1,0-1.6,0L67.3,127L67.3,127z M68.2,126.1
		c0.3,0,1,0,1.1,0c0-0.1,0-0.3,0-0.5c0-0.9-0.6-1.4-1.8-1.4c-1,0-1.5,0.5-1.5,1.3c0,0.2,0,0.4,0,0.6c0.1,0,0.8,0,1.1,0L68.2,126.1
		L68.2,126.1z"/>
</g>
<g transform="matrix(-.0010562 1.0145 -1.0145 -.0010562 197.25 251)">
	<path id="b_2_" class="st0" d="M10.4,146.1L10.4,146.1l-0.2,0.1c-0.5,0.4-0.8,0.7-1.2,1c-0.1-0.1-0.2-0.3-0.3-0.4
		c-0.1-0.1-0.2-0.2-0.3-0.3c0.4-0.3,0.8-0.6,1.3-1l0.6-0.5c0.5-0.4,0.8-0.7,1.2-1c0.1,0.1,0.2,0.3,0.3,0.4c0.1,0.2,0.3,0.3,0.6,0.6
		c0.4,0.4,0.5,0.6,0.5,0.9c0,0.3-0.1,0.6-0.3,0.8c-0.4,0.3-1,0.3-1.4,0c-0.3,0.7-0.5,1.5-0.7,2.2c-0.1-0.1-0.2-0.3-0.3-0.4
		c-0.1-0.1-0.2-0.3-0.3-0.4L10.4,146.1z M11.8,144.9c-0.4,0.3-0.8,0.6-1.2,1l0.1,0.1c0.2,0.3,0.7,0.4,1,0.2c0,0,0.1-0.1,0.1-0.1
		C12.3,145.6,12.2,145.4,11.8,144.9L11.8,144.9z"/>
</g>
<g transform="matrix(-.62215 .82217 -.82217 -.62215 210.01 217.61)">
	<path id="b_3_" class="st0" d="M3.2,126.7L3.2,126.7l-0.2-0.1c-0.6,0-1.1,0.1-1.6,0.1c0-0.2,0-0.3,0-0.5c0-0.2,0-0.3,0-0.5
		c0.5,0,1,0,1.6,0l0.8,0c0.6,0,1.1-0.1,1.6-0.1c0,0.2,0,0.3,0,0.5c0,0.2,0,0.5,0.1,0.9c0,0.6,0,0.8-0.1,1c-0.2,0.3-0.4,0.4-0.7,0.4
		c-0.5,0-1-0.3-1.1-0.8c-0.6,0.4-1.3,0.9-1.9,1.3c0-0.2,0-0.3,0-0.5s0-0.4,0-0.5L3.2,126.7z M5,126.6c-0.5,0-1.1,0-1.6,0.1l0,0.1
		c0,0.4,0.3,0.7,0.7,0.8c0.1,0,0.1,0,0.2,0C5,127.5,5,127.2,5,126.6L5,126.6z"/>
</g>
<g transform="matrix(.074296 1.0127 -1.0127 .074296 260.9 308.21)">
	<path id="c_2_" class="st0" d="M17.8,154.9c-0.1-0.1-0.3-0.2-0.4-0.3c-0.1-0.1-0.3-0.2-0.4-0.3c0.1-0.4,0.2-0.8,0.3-1.2
		c-0.2-0.1-0.4-0.3-0.6-0.4l-0.5-0.3c-0.3,0.2-0.7,0.5-1,0.8c-0.1-0.1-0.1-0.1-0.2-0.2c-0.1,0-0.2-0.1-0.3-0.1
		c0.6-0.4,2.4-1.6,3.6-2.4c0.1,0.1,0.1,0.1,0.2,0.2c0.1,0,0.1,0.1,0.2,0.1C18.4,152.1,18,153.9,17.8,154.9z M17.4,152.8
		c0.1-0.5,0.2-0.9,0.3-1.4c-0.4,0.3-0.8,0.5-1.2,0.8L17.4,152.8z"/>
</g>
<g transform="matrix(.061139 1.0152 -1.0152 .061139 229.62 284.19)">
	<path id="f_2_" class="st0" d="M15.1,149.1c0.1-0.1,0.2-0.3,0.3-0.4c-0.2-0.1-0.6-0.4-0.9-0.6c0.1-0.1,0.1-0.1,0.2-0.2
		c0.1-0.1,0.1-0.1,0.1-0.2c0.4,0.4,0.6,0.5,1.1,1c0.5,0.5,0.7,0.6,1.1,0.9c-0.1,0.1-0.1,0.1-0.2,0.2s-0.1,0.1-0.1,0.2
		c-0.2-0.3-0.5-0.5-0.7-0.7c-0.1,0.1-0.2,0.2-0.3,0.4l-0.9,1.1c-0.4,0.5-0.7,0.8-1,1.2c-0.1-0.1-0.2-0.2-0.3-0.3
		c-0.1-0.1-0.3-0.2-0.4-0.3c0.3-0.4,0.7-0.7,1.1-1.2L15.1,149.1z"/>
</g>
<g transform="matrix(1.0096 -.12588 .12588 1.0096 229.22 328.81)">
	<path id="a_2_" class="st0" d="M56,149.9c-0.4-0.5-0.7-0.8-1.1-1.2c0.1-0.1,0.2-0.2,0.4-0.3c0.1-0.1,0.2-0.2,0.3-0.3
		c0.3,0.4,0.6,0.7,1,1.2l0.5,0.6c0.4,0.5,0.7,0.8,1.1,1.2c-0.1,0.1-0.3,0.2-0.4,0.3c-0.2,0.1-0.2,0.2-0.3,0.3
		c-0.3-0.4-0.6-0.7-1-1.2C56.5,150.4,56,149.9,56,149.9L56,149.9z"/>
</g>
<g transform="matrix(.47929 -.8974 .8974 .47929 302.12 309.51)">
	<path id="a_3_" class="st0" d="M67.1,122.3c-0.7,0.1-1.1,0.1-1.6,0.2c0-0.1,0-0.3,0-0.5c0-0.2-0.1-0.3-0.1-0.5
		c0.5,0,0.9-0.1,1.6-0.1l0.8-0.1c0.7-0.1,1.1-0.1,1.6-0.2c0,0.1,0,0.3,0,0.5c0,0.2,0.1,0.3,0.1,0.5c-0.5,0-1,0.1-1.6,0.1
		C67.9,122.2,67.1,122.3,67.1,122.3L67.1,122.3z"/>
</g>
<g transform="matrix(.18145 1.0011 -1.0011 .18145 172.23 235.69)">
	<path id="a_4_" class="st0" d="M12.7,147.8c0.5-0.5,0.8-0.8,1.1-1.1c0.1,0.1,0.2,0.2,0.3,0.4s0.2,0.2,0.3,0.3
		c-0.4,0.3-0.7,0.6-1.2,1.1l-0.6,0.6c-0.5,0.5-0.8,0.8-1.1,1.2c-0.1-0.1-0.2-0.3-0.3-0.4c-0.1-0.1-0.3-0.2-0.3-0.3
		c0.4-0.3,0.7-0.6,1.2-1.1C12.2,148.3,12.7,147.8,12.7,147.8L12.7,147.8z"/>
</g>
<g transform="matrix(.81282 -.61069 .61069 .81282 254.47 370.18)">
	<path id="k_2_" class="st0" d="M63.3,140.6c0.7,0.5,1.5,0.9,2.3,1.3c-0.1,0.1-0.1,0.1-0.1,0.2c0,0.1-0.1,0.2-0.1,0.3
		c-1.1-0.8-2.2-1.5-3.3-2.2c0.1-0.1,0.1-0.1,0.1-0.2c0-0.1,0.1-0.1,0.1-0.2c1,0,2.1,0,3,0c-0.6-0.8-1.3-1.6-1.9-2.4
		c0.1-0.1,0.1-0.1,0.1-0.2c0-0.1,0.1-0.2,0.1-0.2c1.3,0.4,3,1,3.8,1.2c-0.1,0.1-0.2,0.3-0.2,0.4c-0.1,0.1-0.1,0.3-0.2,0.4
		c-0.7-0.3-1.7-0.6-2.5-0.9c0.6,0.8,1.2,1.5,1.9,2.3c0,0,0,0.1-0.1,0.1l0,0.1C65.3,140.6,64.3,140.6,63.3,140.6L63.3,140.6z"/>
</g>
<g transform="matrix(.96752 -.30015 .30015 .96752 163.54 407.38)">
	<path id="d_1_" class="st0" d="M52.6,150.4c1-0.7,2.1-0.7,3,0.4c0.7,0.9,0.4,2.2-0.5,2.9c0,0,0,0-0.1,0c-0.9,0.7-2.1,0.8-3-0.4
		c-0.7-0.9-0.5-2.2,0.5-2.9C52.5,150.4,52.6,150.4,52.6,150.4z M52.8,150.6c-0.6,0.5-0.5,1.4,0,2.2c0.7,1,1.4,1,1.9,0.6
		c0.5-0.4,0.7-1.2,0-2.2C54.2,150.4,53.4,150.2,52.8,150.6L52.8,150.6z"/>
</g>
<g transform="matrix(.60388 -.81334 .81334 .60388 276.02 418.84)">
	<path id="d_2_" class="st0" d="M64.4,134c0.4-1.2,1.3-1.9,2.6-1.4c1.1,0.4,1.7,1.5,1.3,2.6c0,0,0,0,0,0.1c-0.4,1.1-1.3,1.9-2.6,1.4
		c-1.1-0.3-1.7-1.5-1.3-2.6C64.4,134.1,64.4,134,64.4,134z M64.7,134.1c-0.2,0.7,0.4,1.4,1.3,1.7c1.1,0.4,1.7,0,1.9-0.6
		c0.2-0.6-0.1-1.4-1.3-1.8C65.7,133.1,65,133.4,64.7,134.1L64.7,134.1z"/>
</g>
<g transform="matrix(.46171 -.90167 .90167 .46171 -89.152 370.86)">
	<path id="d_3_" class="st0" d="M1.4,122.4c0.2-1.2,1-2,2.3-1.8c1.1,0.2,1.9,1.3,1.7,2.4c0,0,0,0.1,0,0.1c-0.2,1.2-0.9,2.1-2.3,1.8
		c-1.1-0.2-1.9-1.2-1.7-2.3C1.4,122.4,1.4,122.4,1.4,122.4z M1.8,122.4c-0.1,0.8,0.6,1.3,1.6,1.5c1.2,0.2,1.7-0.3,1.8-1
		c0.1-0.6-0.4-1.4-1.6-1.5C2.5,121.3,1.8,121.7,1.8,122.4L1.8,122.4z"/>
</g>
<g transform="matrix(.31796 -.97875 .97875 .31796 323.21 468.65)">
	<path id="j_2_" class="st0" d="M65.2,131.3c0-0.1,0.1-0.2,0.1-0.3c0-0.1,0-0.2,0-0.3c1-0.7,2-1.4,3.1-2.1c-0.9-0.1-2.5-0.3-2.8-0.3
		c0-0.1,0-0.2,0-0.2c0-0.1,0-0.2,0-0.3c1.7,0.3,2.4,0.4,3.9,0.6c0,0.1-0.1,0.2-0.1,0.2c0,0.1,0,0.2,0,0.2c-1,0.7-2,1.4-3.1,2.1
		c0.4,0.1,0.9,0.1,1.3,0.2c0.9,0.1,1.2,0.2,1.5,0.2l-0.1,0.3c0,0.1,0,0.2,0,0.3c-0.2-0.1-1.6-0.3-2.8-0.5
		C65.8,131.4,65.4,131.3,65.2,131.3L65.2,131.3z"/>
</g>
<g transform="matrix(.83788 .59772 -.59772 .83788 -196.51 -2.4279)">
	<path id="i_2_" class="st0" d="M4.4,132.4c0.6-0.2,1.1-0.3,1.5-0.5c0,0.1,0,0.3,0.1,0.5c0.1,0.2,0.2,0.5,0.3,1
		c0.3,1.3,0.2,2.3-1.2,2.7c-1,0.3-2.2-0.2-2.5-1.3c0,0,0-0.1,0-0.1c-0.2-0.6-0.2-0.9-0.3-1.2c0-0.2-0.1-0.3-0.1-0.5
		c0.5-0.1,0.9-0.2,1.5-0.4L4.4,132.4L4.4,132.4z M3.7,133.5c-0.3,0.1-1,0.3-1.1,0.3c0,0.1,0.1,0.3,0.1,0.5c0.2,0.9,0.9,1.2,2.1,0.9
		c0.9-0.3,1.4-0.9,1.1-1.7c0-0.2-0.1-0.4-0.2-0.6c-0.1,0-0.8,0.2-1.1,0.3L3.7,133.5L3.7,133.5z"/>
</g>
<g transform="matrix(.64494 -.78435 .78435 .64494 282.02 201)">
	<path id="c_3_" class="st0" d="M68.5,116.7c0,0.2,0,0.3,0.1,0.5c0,0.2,0.1,0.3,0.1,0.5c-0.4,0.2-0.7,0.4-1.1,0.6
		c0,0.2,0.1,0.5,0.1,0.7l0.1,0.6c0.4,0.1,0.8,0.1,1.2,0.1c0,0.1,0,0.2,0,0.3c0,0.1,0.1,0.2,0.1,0.3c-0.7-0.1-2.9-0.5-4.2-0.8
		c0-0.1,0-0.2,0-0.2c0-0.1,0-0.1-0.1-0.2C66.1,118.3,67.6,117.3,68.5,116.7z M67.3,118.4c-0.4,0.3-0.8,0.5-1.2,0.8
		c0.5,0.1,1,0.2,1.4,0.2L67.3,118.4z"/>
</g>
<g transform="matrix(-.97434 -.2541 .2541 -.97434 805.91 431.34)">
	<path id="h_1_" class="st0" d="M66,116.4c-0.6,0.2-1,0.3-1.5,0.6c0-0.1-0.1-0.3-0.1-0.4s-0.1-0.3-0.2-0.4c0.5-0.1,0.9-0.3,1.5-0.5
		l0.7-0.3c0.4-0.1,0.8-0.3,1.1-0.4c-0.1-0.4-0.3-0.8-0.5-1.2c0.1,0,0.2,0,0.3-0.1c0.1,0,0.2-0.1,0.2-0.1c0.1,0.2,0.1,0.5,0.3,1
		c0.3,0.9,0.4,1,0.4,1.1c-0.5,0.1-0.9,0.3-1.5,0.5L66,116.4L66,116.4z"/>
</g>
<g transform="matrix(.91621 .41769 -.41769 .91621 -266.64 -23.649)">
	<path id="h_2_" class="st0" d="M3.9,129.4c0.7-0.1,1.1-0.2,1.5-0.3c0,0.1,0,0.3,0,0.5c0,0.2,0.1,0.3,0.1,0.5
		c-0.5,0-0.9,0.1-1.6,0.2l-0.8,0.1c-0.4,0.1-0.8,0.1-1.1,0.2c0.1,0.4,0.2,0.8,0.3,1.3c-0.1,0-0.2,0-0.3,0c-0.1,0-0.2,0-0.2,0.1
		c0-0.2,0-0.5-0.2-1c-0.1-0.9-0.2-1.1-0.2-1.2c0.5,0,0.9-0.1,1.6-0.2L3.9,129.4L3.9,129.4z"/>
</g>
<g transform="rotate(73.736 250.08 249.71)">
	<path id="e_1_" class="st0" d="M23.7,155.1c0.2-0.6,0.4-1,0.5-1.5c0.3,0.1,0.7,0.3,1,0.4c0.5,0.2,1,0.4,1.1,0.4
		c0,0.1-0.1,0.1-0.1,0.2c0,0.1-0.1,0.2-0.1,0.3c-0.4-0.2-1-0.4-1.2-0.5c-0.2,0.4-0.3,0.8-0.5,1.2c0.5,0.2,0.8,0.3,1.3,0.4
		c0,0.1-0.1,0.1-0.1,0.2c0,0.1,0,0.1-0.1,0.2c-0.4-0.2-0.8-0.3-1.2-0.5l-0.3,0.7c-0.1,0.2-0.2,0.5-0.2,0.7c0.4,0.2,0.8,0.3,1.2,0.4
		c0,0.1-0.1,0.2-0.1,0.2c0,0.1-0.1,0.2-0.1,0.2c-0.2-0.1-0.4-0.2-0.9-0.4c-0.4-0.1-0.8-0.3-1.2-0.4c0.2-0.5,0.4-0.9,0.6-1.5
		L23.7,155.1z"/>
</g>
<g transform="rotate(109.14 250.03 248.13)">
	<path id="e_2_" class="st0" d="M8.5,142.5c0.5-0.4,0.9-0.6,1.3-1c0.2,0.3,0.4,0.6,0.6,0.9c0.3,0.5,0.6,0.9,0.7,1
		c-0.1,0-0.1,0.1-0.2,0.1s-0.1,0.1-0.2,0.2c-0.2-0.4-0.6-1-0.7-1.1c-0.4,0.2-0.7,0.5-1,0.7c0.3,0.4,0.5,0.7,0.8,1.1
		c-0.1,0-0.2,0.1-0.2,0.1c-0.1,0-0.1,0.1-0.2,0.2c-0.2-0.4-0.4-0.7-0.7-1.1L8,143.9c-0.2,0.1-0.4,0.3-0.6,0.4c0.2,0.4,0.5,0.7,0.8,1
		c-0.1,0-0.2,0.1-0.2,0.1c-0.1,0-0.1,0.1-0.2,0.2c-0.1-0.2-0.2-0.4-0.6-0.8c-0.2-0.3-0.5-0.7-0.7-1c0.4-0.3,0.8-0.5,1.3-0.9
		L8.5,142.5z"/>
</g>
<g transform="translate(358.13 -3.391)">
	<path id="g_1_" class="st0" d="M65,111.9c-0.1,0.3-0.4,0.4-0.7,0.3c-0.3-0.1-0.4-0.4-0.3-0.7c0.1-0.3,0.4-0.4,0.7-0.3h0
		C65,111.3,65.1,111.7,65,111.9z"/>
</g>
<g transform="translate(138.65 275.4)">
	<path id="g_2_" class="st0" d="M29.2,157.4c-0.1,0.3-0.4,0.4-0.7,0.3c-0.3-0.1-0.4-0.4-0.3-0.7c0.1-0.3,0.4-0.4,0.7-0.3h0
		C29.2,156.8,29.3,157.1,29.2,157.4z"/>
</g>
<path id="path10" class="st1" d="M96.4,116.3v25.5c0,0.7-0.1,1,0.2,1.4c0.1,0.2,0.3,0.3,0.5,0.3c0.3,0,0.5-0.1,0.7-0.4
	c0.2-0.3,0.2-0.7,0.2-1.4v-25.5h1.2v26c0,1.8-0.7,2.7-2,2.7c-0.6,0-1.1-0.2-1.5-0.6c-0.4-0.4-0.6-1.1-0.6-2v-26.1H96.4L96.4,116.3z"
	/>
<path id="polygon12" class="st1" d="M109.1,144.9l-1.9-17.5v17.5h-1v-28.5h1.4l0,0l2,16.5v-16.5h0.9v28.5H109.1z"/>
<path id="polygon14" class="st1" d="M120.8,129.2v1h-1.9v13.5h2.2v1.2h-3.8v-28.5h3.6v1.2l0,0h-1.9v11.6H120.8z"/>
<path id="polygon16" class="st1" d="M158.1,112.3v2.4H90.9v-2.4l0,0H158.1z"/>
<path id="polygon18" class="st1" d="M158.1,147v2.4H90.9V147l0,0H158.1z"/>
<path id="polygon20" class="st1" d="M161.8,151.8v2.4H86.6v-2.4l0,0H161.8z"/>
<path id="polygon22" class="st1" d="M165.6,156.4v2.4H82.8v-2.4l0,0H165.6z"/>
<path id="polygon24" class="st1" d="M124.2,97.3l33.8,9.6v2.5l-34.1-9.3l-33.1,9.4l0,0V107L124.2,97.3z"/>
<path id="polygon26" class="st1" d="M150.3,109.6h-7l-18.9-5.1l-18.9,5l-7.2,0.2l0,0l26.1-7.5L150.3,109.6z"/>
<path id="path28" class="st1" d="M130.4,124.6h1.5V119c0,0,0-1.6-0.4-2.1c-0.4-0.4-0.8-0.8-1.8-0.8c-1,0-1.2,0.3-1.5,0.7
	c-0.4,0.4-0.5,1.2-0.5,1.9c0,0.8,0,4.2,0.2,5.3c0.1,1.1,1.2,5.7,1.8,7.8c0.6,2.2,0.8,3.3,0.9,4c0,0.7,0.1,2.8,0,3.9
	c0,1.1,0,2.6,0,2.6s0.1,1.2-0.6,1.2c-0.7,0-0.7-1.2-0.7-1.2v-6.8h-1.5v6.7c0,0-0.4,2.5,1.9,2.5c2.3,0,2.3-2.2,2.3-2.2v-6.2
	c0,0-0.1-2-0.5-3.5c-0.4-1.4-1.6-5.8-1.9-7c-0.3-1.3-0.4-3.2-0.4-5c0-1.7,0-2.8,0-2.8s0-0.8,0.6-0.8c0.6,0,0.6,0.8,0.6,0.8
	L130.4,124.6L130.4,124.6z"/>
<path id="path30" class="st1" d="M141.6,124.6h1.3V118c0-1-0.6-2.1-2-2.1c-1.3,0-2.1,1-2.1,2.1v25c0,1.1,0.8,2.1,2.1,2.1
	c1.4,0,2-1,2-2v-7.5h-1.3v7.5c0,0.4,0,0.8-0.7,0.8c-0.8,0-0.7-0.7-0.7-1v-24.8c0-0.3-0.1-1,0.7-1c0.8,0,0.7,0.5,0.7,0.9V124.6
	L141.6,124.6z"/>
<path id="path32" class="st1" d="M152.2,115.9c-1.3,0-2.2,1-2.2,2.1v25c0,1.1,0.9,2.1,2.2,2.1c1.4,0,2.2-1,2.2-2V118
	C154.3,116.9,153.6,115.9,152.2,115.9L152.2,115.9z M153.1,143c0,0.4-0.1,0.8-0.9,0.8c-0.8,0-0.9-0.7-0.9-1v-24.8c0-0.3,0.1-1,0.9-1
	c0.8,0,0.9,0.5,0.9,0.9V143L153.1,143z"/>
</svg>
