<?xml version="1.0" encoding="utf-8"?>
<!-- Generator: Adobe Illustrator 24.3.0, SVG Export Plug-In . SVG Version: 6.00 Build 0)  -->
<svg version="1.1" id="Laag_1" xmlns="http://www.w3.org/2000/svg" xmlns:xlink="http://www.w3.org/1999/xlink" x="0px" y="0px"
	 width="272px" height="154.2px" viewBox="0 0 272 154.2" style="enable-background:new 0 0 272 154.2;" xml:space="preserve">
<style type="text/css">
	.st0{fill:#1A1D56;}
</style>
<g>
	<path class="st0" d="M8.5,23.2c0,2.7,1,3.6,4.4,3.4v1.2H0.6v-1.2c3,0.1,4.1-0.6,4.1-3.4V5c0-2.3-0.6-3.5-4.3-3.4V0.5h10.4
		c3.6,0,4.7,0.1,6,0.4c4.1,0.9,6.4,3.3,6.4,6.7c0,4.4-3.9,7.7-9.2,7.7c-2.7,0-3.3-0.4-3.3-1c0-0.4,0.3-0.7,0.9-0.7
		c0.4,0,1.2,0.1,1.5,0.1c2.6,0,5.7-1.6,5.7-5.5c0-3.7-2.5-6.5-6.8-6.5H8.5V23.2z"/>
	<path class="st0" d="M40.7,26c-1.3,1.5-2.4,2.2-3.4,2.2c-1.6,0-2.5-1.1-2.6-3.2c-1.9,2.1-4,3.2-5.8,3.2c-2.7,0-4.6-1.8-4.6-4.3
		s1.5-3.8,6.8-5.6l3.7-1.2V14c0-2-1.5-3.4-3.8-3.4c-1.8,0-3.4,1-3.4,2.2c0,0.9,1,1.9,1,2.4c0,0.6-2.4,1.4-2.6,1.4
		c-0.4,0-1.1-1.4-1.1-2.5c0-2.7,3.1-4.7,7.3-4.7c4,0,5.7,1.6,5.7,4.8v9.3c0,1.4,0.3,2,1.1,2c0.4,0,0.9-0.1,1.4-0.4L40.7,26z
		 M29.9,20.2c-1.7,0.7-2.5,1.6-2.5,2.8c0,1.6,1.2,2.7,3,2.7c1.4,0,2.9-0.8,4.2-2.2v-5.4L29.9,20.2z"/>
	<path class="st0" d="M47.7,0v23.2c0,2.8,0.5,3.5,2.8,3.5v1h-8.9v-1c2.3-0.1,2.9-0.5,2.9-3.6V3.7l-2.9-1.2V1.8L47.7,0z"/>
	<path class="st0" d="M68.2,26c-1.3,1.5-2.4,2.2-3.4,2.2c-1.6,0-2.5-1.1-2.6-3.2c-1.9,2.1-4,3.2-5.8,3.2c-2.7,0-4.6-1.8-4.6-4.3
		s1.5-3.8,6.8-5.6l3.7-1.2V14c0-2-1.5-3.4-3.8-3.4c-1.8,0-3.4,1-3.4,2.2c0,0.9,1,1.9,1,2.4c0,0.6-2.4,1.4-2.6,1.4
		c-0.4,0-1.1-1.4-1.1-2.5c0-2.7,3.1-4.7,7.3-4.7c4,0,5.7,1.6,5.7,4.8v9.3c0,1.4,0.3,2,1.1,2c0.4,0,0.9-0.1,1.4-0.4L68.2,26z
		 M57.4,20.2C55.8,20.9,55,21.8,55,23c0,1.6,1.2,2.7,3,2.7c1.4,0,2.9-0.8,4.2-2.2v-5.4L57.4,20.2z"/>
	<path class="st0" d="M88.8,27l-6.1,1.1v-3.5c-2,2.2-4.6,3.5-6.8,3.5c-2.8,0-5.4-1.8-5.4-5.7v-8.9c0-1.9-0.6-2.6-3.1-2.8v-1
		c2,0,3.3-0.1,4.2-0.1c1-0.1,1.5-0.1,2-0.2v12.3c0,2.6,1.4,4,3.8,4c1.8,0,3.6-0.8,5.3-2.3V14c0-2.3-0.5-3.1-3.3-3.2v-1
		c1.7,0,3-0.1,4-0.1c1-0.1,1.8-0.2,2.4-0.2V24c0,2.2,0.9,2.2,3,2V27z"/>
</g>
<g>
	<path class="st0" d="M120.3,27.1l-6,1v-3.3c-2.5,2.5-4.2,3.4-6.6,3.4c-4.3,0-7.6-3.7-7.6-8.5c0-4.5,3.3-10.4,9.6-10.4
		c1.8,0,3.1,0.4,4.6,1.4v-7l-3.1-1.3V1.8l6.2-1.8v23.8c0,1.7,0.5,2.4,1.7,2.4c0.5,0,1,0,1.2-0.1C120.3,26.1,120.3,27.1,120.3,27.1z
		 M114.3,16.4c0-3-2-5.8-5.4-5.8s-5.6,2.8-5.6,7.2c0,4.6,2.6,8,6.2,8c1.8,0,3.3-0.8,4.8-2.4V16.4z"/>
	<path class="st0" d="M123.7,16.4c-0.2,6.1,3.6,9,7.2,9c2,0,3.3-0.6,4.9-2.2l0.7,0.7c-1.9,2.9-4.3,4.4-7.2,4.4
		c-4.9,0-8.4-3.9-8.4-9.3c0-5.6,3.4-9.6,8.2-9.6c4,0,7.2,3.1,7.4,7H123.7z M132.8,15.3c-0.3-3-1.9-4.8-4.2-4.8s-4.2,1.9-4.7,4.8
		H132.8z"/>
	<path class="st0" d="M153.3,0v23.2c0,2.8,0.5,3.5,2.8,3.5v1h-8.9v-1c2.3-0.1,2.9-0.5,2.9-3.6V3.7l-2.9-1.2V1.8L153.3,0z"/>
	<path class="st0" d="M173.8,26c-1.3,1.5-2.4,2.2-3.4,2.2c-1.6,0-2.5-1.1-2.6-3.2c-1.9,2.1-4,3.2-5.8,3.2c-2.7,0-4.6-1.8-4.6-4.3
		s1.5-3.8,6.8-5.6l3.7-1.2V14c0-2-1.5-3.4-3.8-3.4c-1.8,0-3.4,1-3.4,2.2c0,0.9,1,1.9,1,2.4c0,0.6-2.4,1.4-2.6,1.4
		c-0.4,0-1.1-1.4-1.1-2.5c0-2.7,3.1-4.7,7.3-4.7c4,0,5.7,1.6,5.7,4.8v9.3c0,1.4,0.3,2,1.1,2c0.4,0,0.9-0.1,1.4-0.4L173.8,26z
		 M163,20.2c-1.7,0.7-2.5,1.6-2.5,2.8c0,1.6,1.2,2.7,3,2.7c1.4,0,2.9-0.8,4.2-2.2v-5.4L163,20.2z"/>
</g>
<g>
	<path class="st0" d="M6.2,51c0.3-1.8,0.6-3.6,0.6-5.2c0-2-1.2-3.1-3.2-3.1v-1.2h7c0.2,2,2.3,7.5,3.5,10.2l1.8,4.1
		c1.4,3,2.1,4,3.7,8c0.6-1.4,1-2.5,2.3-5l2.9-5.8c3-6,3.6-8.6,3.6-11.5H36v1.2c-2.5-0.1-3.3,0.8-3.3,3c0,0.6,0.1,1.5,0.2,2.5
		L35,63.6c0.4,2.9,1.4,3.8,3.9,4v1.2H27.3v-1.2c2.4,0,3.8-1.2,3.8-3.3c0-0.3-0.1-1.9-0.4-4.2l-1.6-13.6H29c-0.2,0.7-0.4,1.2-0.9,2.3
		c-1,2.2-1.1,2.7-2.3,5l-1.4,2.6c-1.8,3.5-2.1,4.2-2.8,5.8c-0.9,2-1.7,3.8-2,4.9c-0.2,0.7-0.3,1-0.4,1.7h-1.6
		c-0.5-2-1.1-3.8-2.5-6.7l-3.9-8.2c-1.2-2.6-2.4-5.4-3-7.4h0L6,61.4c-0.2,1.2-0.2,1.7-0.2,2.4c0,2.4,1,3.4,3.7,3.8v1.2H0v-1.2
		c2.9-0.3,3.8-3.1,4.6-7.8L6.2,51z"/>
	<path class="st0" d="M59.5,68l-6.1,1.1v-3.5c-2,2.2-4.6,3.5-6.8,3.5c-2.8,0-5.4-1.8-5.4-5.7v-8.9c0-1.9-0.6-2.6-3.1-2.8v-1
		c2,0,3.3-0.1,4.2-0.1c1-0.1,1.5-0.1,2-0.2v12.3c0,2.6,1.4,4,3.8,4c1.8,0,3.6-0.8,5.3-2.3V55c0-2.3-0.5-3.1-3.3-3.2v-1
		c1.7,0,3-0.1,4-0.1c1-0.1,1.8-0.2,2.4-0.2V65c0,2.2,0.9,2.2,3,2C59.5,67,59.5,68,59.5,68z M46.1,47.8l1.7-4.6
		c0.4-1.1,0.8-1.4,2.1-1.4h1c0.8,0,1,0.1,1,0.6c0,0.2-0.2,0.5-0.4,0.8l-4,4.5h-1.4V47.8z"/>
	<path class="st0" d="M62.5,62.8c0.3,3.2,2,5.3,4.6,5.3c2,0,3.5-1.4,3.5-3.2c0-0.5-0.2-1.3-0.6-1.8c-2-2-5.6-2.6-7.8-4.8
		c-0.7-0.7-1.2-1.8-1.2-3.1c0-2.8,2.4-4.8,5.8-4.8c1.8,0,3.6,0.6,5.2,1.7v4.2h-1c-0.6-3.3-1.9-4.8-4.1-4.8c-1.9,0-3.2,1.1-3.2,2.7
		c0,0.8,0.2,1.4,0.7,1.9c1.6,1.6,5.3,2.3,7.5,4.5c1,1,1.4,2.2,1.4,3.3c0,3-2.7,5.3-6.3,5.3c-1.9,0-3.9-0.5-5.5-1.5v-5L62.5,62.8
		L62.5,62.8z"/>
	<path class="st0" d="M80.5,50.4v14c0,2.5,0.5,3.4,2.8,3.4v1h-9v-1c2.6,0,3.1-0.7,3.1-3.6V54l-2.9-1.3v-0.6L80.5,50.4z M78.9,41
		c1.1,0,2,0.9,2,2s-0.9,2-2,2s-2-0.9-2-2C76.8,41.9,77.8,41,78.9,41z"/>
	<path class="st0" d="M99.8,64.4c-1.7,3-4.4,4.8-7.3,4.8c-4.8,0-8.7-3.8-8.7-9.2c0-5.6,4.1-9.7,9.6-9.7c3.6,0,6.1,1.5,6.1,3.7
		c0,1.1-0.6,1.7-1.5,1.7c-2.6,0-1-4.2-5.4-4.2c-3.5,0-5.7,2.7-5.7,6.8c0,4.6,2.8,8,6.8,8c1.8,0,3.6-0.8,5.2-2.5L99.8,64.4z"/>
	<path class="st0" d="M118,67c-1.3,1.5-2.4,2.2-3.4,2.2c-1.6,0-2.5-1.1-2.6-3.2c-1.9,2.1-4,3.2-5.8,3.2c-2.7,0-4.6-1.8-4.6-4.3
		s1.5-3.8,6.8-5.6l3.7-1.2V55c0-2-1.5-3.4-3.8-3.4c-1.8,0-3.4,1-3.4,2.2c0,0.9,1,1.9,1,2.4c0,0.6-2.4,1.4-2.6,1.4
		c-0.4,0-1.1-1.4-1.1-2.5c0-2.7,3.1-4.7,7.3-4.7c4,0,5.7,1.6,5.7,4.8v9.3c0,1.4,0.3,2,1.1,2c0.4,0,0.9-0.1,1.4-0.4L118,67z
		 M107.3,61.2c-1.7,0.7-2.5,1.6-2.5,2.8c0,1.6,1.2,2.7,3,2.7c1.4,0,2.9-0.8,4.2-2.2v-5.4L107.3,61.2z"/>
	<path class="st0" d="M156.3,60.9l-0.1,5.8c-2.7,1.5-7.1,2.5-11,2.5c-8.8,0-15-5.8-15-13.9c0-9.3,8.1-14.4,15.5-14.4
		c3.1,0,6.8,0.7,9.4,1.8l1,6h-1.3c-2.3-4.5-5.2-6.5-9.4-6.5c-3.3,0-5.7,1.2-7.3,2.8c-2.4,2.4-3.6,6-3.6,9.8c0,4.3,1.3,7.6,4,10.3
		c1.7,1.7,4.2,2.7,7.1,2.7c4.9,0,7.9-2.2,9.4-7h1.3V60.9z"/>
	<path class="st0" d="M175.5,67c-1.3,1.5-2.4,2.2-3.4,2.2c-1.6,0-2.5-1.1-2.6-3.2c-1.9,2.1-4,3.2-5.8,3.2c-2.7,0-4.6-1.8-4.6-4.3
		s1.5-3.8,6.8-5.6l3.7-1.2V55c0-2-1.5-3.4-3.8-3.4c-1.8,0-3.4,1-3.4,2.2c0,0.9,1,1.9,1,2.4c0,0.6-2.4,1.4-2.6,1.4
		c-0.4,0-1.1-1.4-1.1-2.5c0-2.7,3.1-4.7,7.3-4.7c4,0,5.7,1.6,5.7,4.8v9.3c0,1.4,0.3,2,1.1,2c0.4,0,0.9-0.1,1.4-0.4L175.5,67z
		 M164.8,61.2c-1.7,0.7-2.5,1.6-2.5,2.8c0,1.6,1.2,2.7,3,2.7c1.4,0,2.9-0.8,4.2-2.2v-5.4L164.8,61.2z"/>
	<path class="st0" d="M187,68.2c-1.6,0.6-3.8,1-5.1,1c-2.9,0-3.9-1.4-3.9-4.1V52.2h-3.2v-0.9c2.6-0.7,4.3-2.2,5.3-4.4h1v3.9h5.5v1.4
		h-5.5v12.4c0,2,0.6,2.7,2.7,2.7c0.9,0,1.8-0.1,3.2-0.3V68.2z"/>
	<path class="st0" d="M204.5,67c-1.3,1.5-2.4,2.2-3.4,2.2c-1.6,0-2.5-1.1-2.6-3.2c-1.9,2.1-4,3.2-5.8,3.2c-2.7,0-4.6-1.8-4.6-4.3
		s1.5-3.8,6.8-5.6l3.7-1.2V55c0-2-1.5-3.4-3.8-3.4c-1.8,0-3.4,1-3.4,2.2c0,0.9,1,1.9,1,2.4c0,0.6-2.4,1.4-2.6,1.4
		c-0.4,0-1.1-1.4-1.1-2.5c0-2.7,3.1-4.7,7.3-4.7c4,0,5.7,1.6,5.7,4.8v9.3c0,1.4,0.3,2,1.1,2c0.4,0,0.9-0.1,1.4-0.4L204.5,67z
		 M193.8,61.2c-1.7,0.7-2.5,1.6-2.5,2.8c0,1.6,1.2,2.7,3,2.7c1.4,0,2.9-0.8,4.2-2.2v-5.4L193.8,61.2z"/>
	<path class="st0" d="M211.6,41v23.2c0,2.8,0.5,3.5,2.8,3.5v1h-8.9v-1c2.3-0.1,2.9-0.5,2.9-3.6V44.7l-2.9-1.2v-0.7L211.6,41z"/>
	<path class="st0" d="M232,67c-1.3,1.5-2.4,2.2-3.4,2.2c-1.6,0-2.5-1.1-2.6-3.2c-1.9,2.1-4,3.2-5.8,3.2c-2.7,0-4.6-1.8-4.6-4.3
		s1.5-3.8,6.8-5.6l3.7-1.2V55c0-2-1.5-3.4-3.8-3.4c-1.8,0-3.4,1-3.4,2.2c0,0.9,1,1.9,1,2.4c0,0.6-2.4,1.4-2.6,1.4
		c-0.4,0-1.1-1.4-1.1-2.5c0-2.7,3.1-4.7,7.3-4.7c4,0,5.7,1.6,5.7,4.8v9.3c0,1.4,0.3,2,1.1,2c0.4,0,0.9-0.1,1.4-0.4L232,67z
		 M221.3,61.2c-1.7,0.7-2.5,1.6-2.5,2.8c0,1.6,1.2,2.7,3,2.7c1.4,0,2.9-0.8,4.2-2.2v-5.4L221.3,61.2z"/>
	<path class="st0" d="M239.3,50.4v3.4c2-2,4.4-3.4,6.9-3.4c3,0,5.3,2,5.3,5.8v8.3c0,2.5,0.6,3.3,2.9,3.3v1h-9.2v-1
		c2.6,0,3.1-0.9,3.1-3.4v-7.9c0-2.1-1.4-3.7-3.6-3.7c-1.9,0-3.9,0.9-5.5,2.4v9.1c0,2.6,0.3,3.6,3.2,3.5v1h-9.3v-1c2.3,0,3-0.6,3-3.5
		V54l-2.8-1.3v-0.6L239.3,50.4z"/>
	<path class="st0" d="M272,67c-1.3,1.5-2.4,2.2-3.4,2.2c-1.6,0-2.5-1.1-2.6-3.2c-1.9,2.1-4,3.2-5.8,3.2c-2.7,0-4.6-1.8-4.6-4.3
		s1.5-3.8,6.8-5.6l3.7-1.2V55c0-2-1.5-3.4-3.8-3.4c-1.8,0-3.4,1-3.4,2.2c0,0.9,1,1.9,1,2.4c0,0.6-2.4,1.4-2.6,1.4
		c-0.4,0-1.1-1.4-1.1-2.5c0-2.7,3.1-4.7,7.3-4.7c4,0,5.7,1.6,5.7,4.8v9.3c0,1.4,0.3,2,1.1,2c0.4,0,0.9-0.1,1.4-0.4L272,67z
		 M261.2,61.2c-1.7,0.7-2.5,1.6-2.5,2.8c0,1.6,1.2,2.7,3,2.7c1.4,0,2.9-0.8,4.2-2.2v-5.4L261.2,61.2z"/>
</g>
<g>
	<path class="st0" d="M29.5,82.5l0.5,6.4h-1.1c-1.7-4-3.4-5.3-6.1-5.3H17V105c0,2.8,0.8,3.8,4.2,3.6v1.2h-12v-1.2
		c3.1,0.1,4.1-0.6,4.1-3.6V83.6H8.2c-3.4,0-5,1.5-6.6,5.3H0.4l0.5-6.4H29.5z"/>
	<path class="st0" d="M28.8,98.4c-0.2,6.1,3.6,9,7.2,9c2,0,3.3-0.6,4.9-2.2l0.7,0.7c-1.9,2.9-4.3,4.4-7.2,4.4
		c-4.9,0-8.4-3.9-8.4-9.3c0-5.6,3.4-9.6,8.2-9.6c4,0,7.2,3.1,7.4,7H28.8z M37.8,97.3c-0.3-3-1.9-4.8-4.2-4.8s-4.2,1.9-4.7,4.8H37.8z
		"/>
	<path class="st0" d="M48.3,91.4v3.2c1.8-2,4.3-3.2,6.6-3.2c2.5,0,4.6,1.4,5.1,3.4c2.2-2.3,4.4-3.4,6.8-3.4c2.1,0,5.4,1.3,5.4,4.8
		v9.2c0,2.4,0.4,3.4,2.9,3.4v1h-8.8v-1c1.8,0,2.8-0.7,2.8-3.2v-7.4c0-2.5-0.8-4.4-3.9-4.4c-1.6,0-3.4,0.8-4.9,2.1v9.6
		c0,2.3,0.6,3.3,2.9,3.2v1h-9v-1c2.4,0,3-0.8,3-3.4v-8c0-2.1-1.5-3.5-3.9-3.5c-1.7,0-3.5,0.8-4.9,2.1v9.5c0,2.6,0.6,3.3,2.8,3.3v1
		H42v-1c2.7,0,3.2-0.8,3.2-3.7V95l-2.8-1.4V93L48.3,91.4z"/>
	<path class="st0" d="M74.6,93.7v-0.6l6-1.8v3.4c2.1-2.3,4.3-3.4,6.6-3.4c4.4,0,7.6,3.6,7.6,8.5c0,5.5-4.4,10.3-9.4,10.3
		c-1.7,0-3.4-0.5-4.8-1.5v4.4c0,2.4,0.1,3.1,3.6,3.1v1h-9.6v-1c3.2,0,2.9-1.5,2.9-3.6V95L74.6,93.7z M80.6,102.8
		c0,3.5,2.2,6.2,5.6,6.2s5.6-2.9,5.6-7.2c0-4.8-2.5-8-6.2-8c-1.8,0-3.2,0.8-4.9,2.4L80.6,102.8L80.6,102.8z"/>
	<path class="st0" d="M106.1,91.4c5.1,0,9,4,9,9.3c0,5.4-3.9,9.6-8.9,9.6c-5.2,0-9.1-4-9.1-9.4S101,91.4,106.1,91.4z M103.2,107.6
		c0.6,0.6,1.8,1.4,3.6,1.4c3,0,5.1-2.5,5.1-6c0-1.9-0.5-6.6-3-9.2c-0.8-0.8-1.9-1.3-3.2-1.3c-2.5,0-5.4,1.6-5.4,6.5
		C100.2,101.6,101.2,105.6,103.2,107.6z"/>
	<path class="st0" d="M122,91.4V96h0.1c1.5-3.2,3-4.4,4.7-4.4c1.4,0,3,1.2,3,2.2c0,0.9-0.7,2.4-1.4,2.4c-1,0-1.6-1.9-3-1.9
		c-1,0-1.6,0.7-3.4,3.5v7.8c0,2.6,0.4,3.4,4.1,3.2v1h-10.4v-1c2.3,0,3.2-0.5,3.2-2.9V95l-3.2-1.4V93L122,91.4z"/>
	<path class="st0" d="M147.2,108c-1.3,1.5-2.4,2.2-3.4,2.2c-1.6,0-2.5-1.1-2.6-3.2c-1.9,2.1-4,3.2-5.8,3.2c-2.7,0-4.6-1.8-4.6-4.3
		s1.5-3.8,6.8-5.6l3.7-1.2V96c0-2-1.5-3.4-3.8-3.4c-1.8,0-3.4,1-3.4,2.2c0,0.9,1,1.9,1,2.4c0,0.6-2.4,1.4-2.6,1.4
		c-0.4,0-1.1-1.4-1.1-2.5c0-2.7,3.1-4.7,7.3-4.7c4,0,5.7,1.6,5.7,4.8v9.3c0,1.4,0.3,2,1.1,2c0.4,0,0.9-0.1,1.4-0.4L147.2,108z
		 M136.5,102.2c-1.7,0.7-2.5,1.6-2.5,2.8c0,1.6,1.2,2.7,3,2.7c1.4,0,2.9-0.8,4.2-2.2v-5.4L136.5,102.2z"/>
	<path class="st0" d="M168.3,109.1l-6,1v-3.3c-2.5,2.5-4.2,3.4-6.6,3.4c-4.3,0-7.6-3.7-7.6-8.5c0-4.5,3.3-10.4,9.6-10.4
		c1.8,0,3.1,0.4,4.6,1.4v-7.1l-3.1-1.3v-0.6l6.2-1.8v23.8c0,1.7,0.5,2.4,1.7,2.4c0.5,0,1,0,1.2-0.1L168.3,109.1L168.3,109.1z
		 M162.2,98.4c0-3-2-5.8-5.4-5.8s-5.6,2.8-5.6,7.2c0,4.6,2.6,8,6.2,8c1.8,0,3.3-0.8,4.8-2.4V98.4z"/>
	<path class="st0" d="M186.2,108c-1.3,1.5-2.4,2.2-3.4,2.2c-1.6,0-2.5-1.1-2.6-3.2c-1.9,2.1-4,3.2-5.8,3.2c-2.7,0-4.6-1.8-4.6-4.3
		s1.5-3.8,6.8-5.6l3.7-1.2V96c0-2-1.5-3.4-3.8-3.4c-1.8,0-3.4,1-3.4,2.2c0,0.9,1,1.9,1,2.4c0,0.6-2.4,1.4-2.6,1.4
		c-0.4,0-1.1-1.4-1.1-2.5c0-2.7,3.1-4.7,7.3-4.7c4,0,5.7,1.6,5.7,4.8v9.3c0,1.4,0.3,2,1.1,2c0.4,0,0.9-0.1,1.4-0.4L186.2,108z
		 M175.4,102.2c-1.7,0.7-2.5,1.6-2.5,2.8c0,1.6,1.2,2.7,3,2.7c1.4,0,2.9-0.8,4.2-2.2v-5.4L175.4,102.2z"/>
</g>
<g>
	<path class="st0" d="M19.4,147.3l-2.2,6.4H1.6v-1.4l7.8-7.8c3.8-3.8,5.3-7.6,5.3-9.9c0-2.8-2.4-4.9-5.8-4.9c-2.2,0-4,0.8-5.9,2.7
		l-0.9-0.8c2.9-3.3,5.2-4.5,8.5-4.5c4.6,0,7.5,3.2,7.5,6.9c0,2.4-1.5,5.8-6.9,10.9l-6.4,6h9.8c1.8,0,2.4-0.6,3.5-3.6L19.4,147.3
		L19.4,147.3z"/>
	<path class="st0" d="M25.8,129.4c0.8-0.8,2.6-2.3,5.3-2.3c1.8,0,4,0.9,5.2,2.2c2.5,2.5,3.7,6.4,3.7,11.4c0,4.4-0.8,8.5-3.6,11.3
		c-1.4,1.4-3.4,2.3-5.3,2.3c-2.6,0-4.4-1.4-5.5-2.5c-2.3-2.3-3.4-6.1-3.4-11.1C22.2,136.4,23,132.1,25.8,129.4z M28.1,151.8
		c0.8,0.8,1.9,1.2,3,1.2c1.4,0,2.4-0.6,3.2-1.3c1.8-1.8,2.3-5.6,2.3-11c0-5.6-0.5-9.1-2.4-11c-0.7-0.7-1.8-1.2-3-1.2
		s-2.3,0.4-3.1,1.2c-2,2-2.4,6.2-2.4,11C25.6,145.1,25.9,149.5,28.1,151.8z"/>
	<path class="st0" d="M59.8,147.3l-2.2,6.4H42v-1.4l7.8-7.8c3.8-3.8,5.3-7.6,5.3-9.9c0-2.8-2.4-4.9-5.8-4.9c-2.2,0-4,0.8-5.9,2.7
		l-0.9-0.8c2.9-3.3,5.2-4.5,8.5-4.5c4.6,0,7.5,3.2,7.5,6.9c0,2.4-1.5,5.8-6.9,10.9l-6.4,6H55c1.8,0,2.4-0.6,3.5-3.6L59.8,147.3
		L59.8,147.3z"/>
	<path class="st0" d="M70.8,127.1v22c0,3,0.7,3.5,3.8,3.4v1.3H64.1v-1.3c3,0.1,3.6-0.2,3.6-3.5v-14.1c0-2.2-0.9-2.9-2.3-2.9h-1.8
		v-1.3c1.9-0.6,4.4-1.9,6-3.5L70.8,127.1L70.8,127.1z"/>
	<path class="st0" d="M90.5,143.3v2.9h-12v-2.9H90.5z"/>
	<path class="st0" d="M109.1,147.3l-2.2,6.4H91.3v-1.4l7.8-7.8c3.8-3.8,5.3-7.6,5.3-9.9c0-2.8-2.4-4.9-5.8-4.9c-2.2,0-4,0.8-5.9,2.7
		l-0.9-0.8c2.9-3.3,5.2-4.5,8.5-4.5c4.6,0,7.5,3.2,7.5,6.9c0,2.4-1.5,5.8-6.9,10.9l-6.4,6h9.8c1.8,0,2.4-0.6,3.5-3.6L109.1,147.3
		L109.1,147.3z"/>
	<path class="st0" d="M115.5,129.4c0.8-0.8,2.6-2.3,5.3-2.3c1.8,0,4,0.9,5.2,2.2c2.5,2.5,3.7,6.4,3.7,11.4c0,4.4-0.8,8.5-3.6,11.3
		c-1.4,1.4-3.4,2.3-5.3,2.3c-2.6,0-4.4-1.4-5.5-2.5c-2.3-2.3-3.4-6.1-3.4-11.1C111.9,136.4,112.8,132.1,115.5,129.4z M117.8,151.8
		c0.8,0.8,1.9,1.2,3,1.2c1.4,0,2.4-0.6,3.2-1.3c1.8-1.8,2.3-5.6,2.3-11c0-5.6-0.5-9.1-2.4-11c-0.7-0.7-1.8-1.2-3-1.2
		s-2.3,0.4-3.1,1.2c-2,2-2.4,6.2-2.4,11C115.3,145.1,115.6,149.5,117.8,151.8z"/>
	<path class="st0" d="M149.5,147.3l-2.2,6.4h-15.6v-1.4l7.8-7.8c3.8-3.8,5.3-7.6,5.3-9.9c0-2.8-2.4-4.9-5.8-4.9
		c-2.2,0-4,0.8-5.9,2.7l-0.9-0.8c2.9-3.3,5.2-4.5,8.5-4.5c4.6,0,7.5,3.2,7.5,6.9c0,2.4-1.5,5.8-6.9,10.9l-6.4,6h9.8
		c1.8,0,2.4-0.6,3.5-3.6L149.5,147.3L149.5,147.3z"/>
	<path class="st0" d="M169.4,147.3l-2.2,6.4h-15.6v-1.4l7.8-7.8c3.8-3.8,5.3-7.6,5.3-9.9c0-2.8-2.4-4.9-5.8-4.9
		c-2.2,0-4,0.8-5.9,2.7l-0.9-0.8c2.9-3.3,5.2-4.5,8.5-4.5c4.6,0,7.5,3.2,7.5,6.9c0,2.4-1.5,5.8-6.9,10.9l-6.4,6h9.8
		c1.8,0,2.4-0.6,3.5-3.6L169.4,147.3L169.4,147.3z"/>
</g>
</svg>
