<?xml version="1.0" encoding="utf-8"?>
<!-- Generator: Adobe Illustrator 22.1.0, SVG Export Plug-In . SVG Version: 6.00 Build 0)  -->
<svg version="1.1" id="Laag_1" xmlns="http://www.w3.org/2000/svg" xmlns:xlink="http://www.w3.org/1999/xlink" x="0px" y="0px"
	 viewBox="0 0 307 23.8" style="enable-background:new 0 0 307 23.8;" xml:space="preserve">
<style type="text/css">
	.st0{fill:#F8E934;}
	.st1{enable-background:new    ;}
</style>
<g>
	<path class="st0" d="M25.7,23.1h-4.9l-3.4-11l-3.3,11H9.2l-6-18.3h4.9L11.8,17l3.9-12.2h3.4L23,16.9l3.7-12.1h4.8L25.7,23.1z"/>
	<path class="st0" d="M43.1,23.8c-5.9,0-10.1-4.2-10.1-9.9c0-5.9,4.6-9.8,10.1-9.8c5.7,0,10.1,4.2,10.1,9.7
		C53.2,19.7,48.7,23.8,43.1,23.8z M43.1,8.6c-3.1,0-5.3,2.3-5.3,5.4s2.1,5.3,5.2,5.3c3.1,0,5.3-2.3,5.3-5.5
		C48.4,10.9,46.2,8.6,43.1,8.6z"/>
	<path class="st0" d="M60.2,23.1l8-9.2c0.7-0.8,1.7-2.3,1.7-3.6S69,8.1,67.6,8.1c-1.7,0-2.3,1.2-2.3,3h-4.7C60.6,7,63.1,4,67.8,4
		c3.8,0,6.8,2.7,6.8,6.3c0,3.7-2.8,6.3-5.7,8.9H75v3.9H60.2z"/>
	<path class="st0" d="M85.7,23.8c-5.1,0-9-4-9-9.6c0-6.2,3.7-10.1,9-10.1c5.1,0,8.8,4,8.8,9.7C94.5,19.7,90.9,23.8,85.7,23.8z
		 M85.5,8.2c-2.8,0-4,2.3-4,5.8s1.5,5.7,4.3,5.7c2.7,0,4-2.3,4-5.7C89.7,10.5,88.3,8.2,85.5,8.2z"/>
	<path class="st0" d="M105.1,23.5c-2,0-3.4-0.7-5.5-2.6l2.9-2.8c0,0,1,1.3,2.1,1.3c1.2,0,1.4-0.6,1.4-2.4V4.8h4.8v12.3
		C110.8,21,108.8,23.5,105.1,23.5z"/>
	<path class="st0" d="M122.9,23.7c-4,0-8-2.1-8-6.6V4.8h4.8V16c0,2.4,1.5,3.3,3.3,3.3c1.7,0,3.3-0.9,3.3-3.1V4.8h4.8v11.7
		C131.1,20.7,128.2,23.7,122.9,23.7z"/>
	<path class="st0" d="M148.4,23.1L140,12.2v10.9h-4.8V4.8h4.8l8.6,10.9V4.8h4.6v18.3C153.2,23.1,148.4,23.1,148.4,23.1z"/>
	<path class="st0" d="M157.3,23.1V4.8h4.8v18.3C162.1,23.1,157.3,23.1,157.3,23.1z"/>
	<path class="st0" d="M170.3,17v-4.1h8.8V17H170.3z"/>
	<path class="st0" d="M193.2,19.2h8v4h-15.6L193.8,9h-7.5V4.8h15.2L193.2,19.2z"/>
	<path class="st0" d="M216.6,23.1l-1.2-3.4h-6.3l-1.2,3.4h-5.1l6.8-18.3h5.5l6.8,18.3H216.6z M212.2,10.4l-2,5.6h3.9L212.2,10.4z"/>
	<path class="st0" d="M234.3,23.1h-5.6L237,8.7h-7.7V4.8h15L234.3,23.1z"/>
	<path class="st0" d="M253.7,23.5c-2,0-3.4-0.7-5.5-2.6l2.9-2.8c0,0,1,1.3,2.1,1.3c1.2,0,1.4-0.6,1.4-2.4V4.8h4.8v12.3
		C259.4,21,257.4,23.5,253.7,23.5z"/>
	<path class="st0" d="M271.5,23.7c-4,0-8-2.1-8-6.6V4.8h4.8V16c0,2.4,1.5,3.3,3.3,3.3c1.7,0,3.3-0.9,3.3-3.1V4.8h4.8v11.7
		C279.7,20.7,276.8,23.7,271.5,23.7z"/>
	<path class="st0" d="M283.8,23.1V4.8h4.8V19h5.8v4.2h-10.6V23.1z"/>
	<path class="st0" d="M297.3,23.1V4.8h4.8v18.3C302.1,23.1,297.3,23.1,297.3,23.1z"/>
</g>
<text transform="matrix(1 0 0 1 576.1063 147.3257)" class="st0" style="font-family:'FuturaHEMAProOT-Bold'; font-size:12px;"> </text>
</svg>
