<?xml version="1.0" encoding="utf-8"?>
<!-- Generator: Adobe Illustrator 24.0.0, SVG Export Plug-In . SVG Version: 6.00 Build 0)  -->
<svg version="1.1" id="Laag_1" xmlns="http://www.w3.org/2000/svg" xmlns:xlink="http://www.w3.org/1999/xlink" x="0px" y="0px"
	 width="55.3px" height="12.1px" viewBox="0 0 55.3 12.1" style="enable-background:new 0 0 55.3 12.1;" xml:space="preserve">
<style type="text/css">
	.st0{fill:#E73F12;}
</style>
<g>
	<path class="st0" d="M45.6,7.8c0-1.5,0.9-2.1,2-2.6C47.2,4.6,47,3.9,47,3.3C47,2.1,47.8,1,49.6,1S52,2,52,3c0,1.3-0.9,2-1.9,2.5
		c0.2,0.2,0.3,0.4,0.5,0.5c0.2,0.3,0.4,0.6,0.7,0.8c0.2-0.4,0.3-0.9,0.4-1.4h2c-0.2,0.8-0.4,1.7-0.9,2.5c0.5,0.2,1,0.3,1.6,0.3v1.9
		c-1.2,0-2.2-0.2-3-0.6c-0.6,0.3-1.4,0.6-2.4,0.6C46.7,10.1,45.6,9.2,45.6,7.8z M49.9,8.3c-0.3-0.3-0.7-0.7-1-1.1
		c-0.2-0.2-0.4-0.4-0.6-0.7c-0.2,0.3-0.4,0.5-0.4,0.9c0,0.7,0.5,1.1,1.1,1.1C49.3,8.5,49.6,8.4,49.9,8.3z M50.2,3.1
		c0-0.3-0.1-0.6-0.5-0.6c-0.3,0-0.6,0.2-0.6,0.7c0,0.4,0.1,0.8,0.3,1.2C49.9,4,50.2,3.7,50.2,3.1z"/>
</g>
</svg>
