<?xml version="1.0" encoding="utf-8"?>
<!-- Generator: Adobe Illustrator 24.3.0, SVG Export Plug-In . SVG Version: 6.00 Build 0)  -->
<svg version="1.1" id="Laag_1" xmlns="http://www.w3.org/2000/svg" xmlns:xlink="http://www.w3.org/1999/xlink" x="0px" y="0px"
	 width="1261.7px" height="271.6px" viewBox="0 0 1261.7 271.6" style="enable-background:new 0 0 1261.7 271.6;"
	 xml:space="preserve">
<style type="text/css">
	.st0{fill:#FFFFFF;}
	.st1{fill:#1D1D1B;}
</style>
<g>
	<path class="st0" d="M71.2,84.4V23.5c-0.2,1.1-0.3,2-0.4,2.7c-0.1,0.7-0.2,1.4-0.4,2.2c-0.2,0.8-0.5,1.7-0.8,2.7
		c-0.3,1-0.8,2.5-1.5,4.2l-19,49H34.8L17.5,36.2c-0.4-1.2-0.8-2.2-1.1-3.1c-0.3-0.9-0.5-1.8-0.7-2.7c-0.2-0.9-0.4-1.9-0.6-3.1
		c-0.2-1.1-0.5-2.6-0.8-4.3v61.4H0v-83h19l22.1,59.2c0.4,1.2,0.8,2.1,1,2.9c0.3,0.8,0.5,1.9,0.6,3.5c0.3-1.9,0.5-3.2,0.6-3.9
		c0.2-0.7,0.5-1.5,0.9-2.5l23-59.2h19v83H71.2z"/>
	<path class="st0" d="M196.1,51.9c0,3.8-0.2,7.1-0.6,9.9c-0.4,2.9-1,5.4-1.9,7.5c-0.9,2.2-2.1,4.1-3.5,5.8c-1.5,1.7-3.3,3.3-5.5,4.8
		c-3,2.1-6.4,3.6-10.1,4.6c-3.7,1-8.1,1.4-13.3,1.4c-5.3,0-9.7-0.5-13.3-1.4c-3.6-0.9-7-2.5-10.2-4.7c-2.2-1.5-4-3.1-5.4-4.8
		c-1.4-1.7-2.6-3.6-3.5-5.8c-0.9-2.2-1.5-4.7-1.9-7.5c-0.4-2.8-0.6-6.2-0.6-9.9V1.4h15.7v51.4c0,12.3,6.5,18.5,19.6,18.5
		c6,0,10.6-1.6,13.8-4.7c3.1-3.1,4.7-7.7,4.7-13.8V1.4h15.8V51.9z"/>
	<path class="st0" d="M282.5,21.1c-8.9-3.9-16.1-5.9-21.5-5.9c-3.8,0-6.7,0.7-8.9,2.1c-2.2,1.4-3.3,3.2-3.3,5.6
		c0,1.8,0.6,3.3,1.8,4.5c1.2,1.3,3.2,2.7,6.2,4.3c12.8,6.9,21.1,12.2,24.9,16c1.8,1.8,3.1,3.9,4.1,6.5c1,2.6,1.5,5.4,1.5,8.3
		c0,7.5-2.6,13.2-7.7,17.3c-5.1,4.1-12.3,6.2-21.5,6.2c-1.3,0-2.5,0-3.8-0.1c-1.3-0.1-2.5-0.2-3.6-0.4c-1.5-0.2-2.9-0.4-4-0.6
		c-1.2-0.3-2.4-0.6-3.6-1c-1.3-0.4-2.6-1-4.1-1.6c-1.5-0.7-3.4-1.5-5.5-2.5c-1.1-0.5-2.9-1.3-5.4-2.5l6.7-14.6
		c1.5,0.8,2.8,1.6,4,2.1c1.1,0.6,2.1,1.1,3,1.5c0.9,0.4,1.7,0.8,2.5,1.1c0.8,0.3,1.5,0.7,2.4,1c2.1,0.8,4.2,1.3,6.3,1.8
		c2.1,0.4,4,0.6,5.7,0.6c3.7,0,6.6-0.8,8.8-2.3c2.2-1.5,3.3-3.5,3.3-6c0-1.8-0.5-3.3-1.6-4.7c-1.1-1.3-3-2.8-5.7-4.3l-12.8-7.3
		c-3.7-2.1-6.8-4-9.2-5.8c-2.5-1.8-4.4-3.6-5.9-5.4c-1.5-1.8-2.5-3.6-3.1-5.5c-0.6-1.9-0.9-4-0.9-6.2c0-2.1,0.3-4.1,0.9-6.2
		c0.6-2,1.4-3.8,2.4-5.4c1.4-2.2,3.5-4.2,6.2-6.2c1.5-1,3-1.9,4.5-2.6c1.5-0.7,3-1.3,4.7-1.8c1.6-0.5,3.4-0.8,5.3-0.9
		c1.9-0.2,4-0.3,6.5-0.3c2.8,0,5.4,0.2,7.9,0.5c2.5,0.3,5.1,0.9,7.7,1.6c1,0.3,1.9,0.7,2.8,0.9c0.8,0.3,1.7,0.6,2.6,0.9
		c0.9,0.3,1.8,0.7,2.8,1.2c1,0.5,2.2,1,3.6,1.7L282.5,21.1z"/>
	<path class="st0" d="M323.5,84.4v-83H374v13.5h-34.7v20.5h28.4v13.5h-28.4v22.1h36.3v13.5H323.5z"/>
	<path class="st0" d="M478.1,51.9c0,3.8-0.2,7.1-0.6,9.9c-0.4,2.9-1,5.4-1.9,7.5c-0.9,2.2-2.1,4.1-3.5,5.8c-1.5,1.7-3.3,3.3-5.5,4.8
		c-3,2.1-6.4,3.6-10.1,4.6c-3.7,1-8.1,1.4-13.3,1.4c-5.3,0-9.7-0.5-13.3-1.4c-3.6-0.9-7-2.5-10.2-4.7c-2.2-1.5-4-3.1-5.4-4.8
		c-1.4-1.7-2.6-3.6-3.5-5.8c-0.9-2.2-1.5-4.7-1.9-7.5c-0.4-2.8-0.6-6.2-0.6-9.9V1.4h15.7v51.4c0,12.3,6.5,18.5,19.6,18.5
		c6,0,10.6-1.6,13.8-4.7c3.1-3.1,4.7-7.7,4.7-13.8V1.4h15.8V51.9z"/>
	<path class="st0" d="M589.5,84.4V23.5c-0.2,1.1-0.3,2-0.4,2.7c-0.1,0.7-0.2,1.4-0.4,2.2c-0.2,0.8-0.5,1.7-0.8,2.7
		c-0.3,1-0.8,2.5-1.5,4.2l-19,49h-14.2l-17.3-48.2c-0.4-1.2-0.8-2.2-1.1-3.1c-0.3-0.9-0.5-1.8-0.7-2.7c-0.2-0.9-0.4-1.9-0.6-3.1
		c-0.2-1.1-0.5-2.6-0.8-4.3v61.4h-14.3v-83h19l22.1,59.2c0.4,1.2,0.8,2.1,1,2.9c0.3,0.8,0.5,1.9,0.6,3.5c0.3-1.9,0.5-3.2,0.6-3.9
		c0.2-0.7,0.5-1.5,0.9-2.5l23-59.2h19v83H589.5z"/>
	<path class="st0" d="M715.6,14.8v21.4h29.2v13.3h-29.2v34.8h-15.8v-83h51.4v13.5H715.6z"/>
	<path class="st0" d="M782.8,84.4v-83h15.8v69.5h33.9v13.5H782.8z"/>
	<path class="st0" d="M863.6,84.4v-83h50.5v13.5h-34.7v20.5h28.4v13.5h-28.4v22.1h36.3v13.5H863.6z"/>
	<path class="st0" d="M1009.5,84.4V48.8h-42.6v35.6h-15.8v-83h15.8v33.2h42.6V1.4h15.8v83H1009.5z"/>
	<path class="st0" d="M1066.2,84.4v-83h15.8v83H1066.2z"/>
	<path class="st0" d="M1153.6,14.8v69.5h-15.8V14.8h-24.9V1.4h65.6v13.5H1153.6z"/>
	<path class="st0" d="M1209.5,84.4v-83h50.5v13.5h-34.7v20.5h28.4v13.5h-28.4v22.1h36.3v13.5H1209.5z"/>
</g>
<g>
	<path class="st1" d="M216.7,269.9l-8.5-24.5h-33.6l-8.5,24.5H155l30.9-85.4H197l30.8,85.4H216.7z M191.5,198l-13.6,38h27L191.5,198
		z"/>
	<path class="st1" d="M332.9,269.9v-72.7c-0.9,4.3-1.4,5.7-3.1,10.2l-24.5,62.5h-9.4l-22.9-60.8c-1.9-4.5-2.3-5.9-3.3-11.1v71.9
		h-9.4v-83h14.2l25.3,66.4c1.1,3.4,1.3,3.9,1.6,6.3c0.5-3.3,0.8-4,1.5-6.3l26.1-66.4h14.2v83H332.9z"/>
	<path class="st1" d="M386.5,269.9v-83h46.6v8.7h-36.3v27.7h30v8.7h-30v29.3h37.5v8.7H386.5z"/>
	<path class="st1" d="M513.2,269.9l-22.9-35.6h-11.1v35.6h-10.3v-83h25.3c10.1,0,14.8,1.5,19.6,6.2c4,3.9,6.5,9.9,6.5,16.2
		c0,6.5-2.6,12.8-7.3,17.2c-3.4,3.4-6.4,4.9-12.6,6.3l24.5,37.1H513.2z M504.8,198c-2.5-2-4.7-2.4-12.1-2.4h-13.5v30h13.5
		c10.9,0,16.6-5.5,16.6-16.2C509.3,204.2,507.8,200.4,504.8,198z"/>
	<path class="st1" d="M602.7,201c-4.3-2.5-6-3.4-8.7-4.3c-3.1-1-8.2-1.8-11.4-1.8c-9.4,0-15.8,4.7-15.8,11.7
		c0,6.2,3.6,9.3,20.5,18.2c5.7,3,10.1,5.8,13.1,8.4c4,3.4,6.4,9.1,6.4,15.1c0,14.2-10.6,23.1-27.3,23.1c-5.7,0-10.9-1-15.3-2.8
		c-3.1-1.3-5.3-2.5-10.7-6.2l5.3-8.2c4.7,3.1,6.7,4.3,9.6,5.4c3.6,1.4,7.7,2.1,11.9,2.1c9.8,0,15.7-4.7,15.7-12.6
		c0-2.4-0.4-4.4-1.3-5.9c-1.4-2.5-3.8-4.9-7-6.8c-1.4-0.8-6-3.1-13.8-7.4c-12.4-6.7-17.7-13.2-17.7-21.7c0-13.2,10.9-22,27.4-22
		c4.8,0,9.7,0.6,14,2c3.4,1.1,5.4,2.1,10.1,4.9L602.7,201z"/>
	<path class="st1" d="M654.4,195.6V224h30v8.8h-30v37.1h-10.3v-83h46.6v8.7H654.4z"/>
	<path class="st1" d="M759.8,271.6c-24.1,0-41.7-18.1-41.7-43.1c0-24.9,17.6-43,41.7-43s41.6,18.1,41.6,43
		C801.5,253.5,784,271.6,759.8,271.6z M759.8,194.5c-16.7,0-30.4,15.3-30.4,33.9c0,18.7,13.7,34.1,30.4,34.1
		c16.6,0,30.3-15.3,30.3-34.1C790.1,209.8,776.4,194.5,759.8,194.5z"/>
	<path class="st1" d="M874.7,271.6c-24.1,0-41.7-18.1-41.7-43.1c0-24.9,17.6-43,41.7-43s41.6,18.1,41.6,43
		C916.4,253.5,898.9,271.6,874.7,271.6z M874.7,194.5c-16.7,0-30.4,15.3-30.4,33.9c0,18.7,13.7,34.1,30.4,34.1
		c16.6,0,30.3-15.3,30.3-34.1C905,209.8,891.3,194.5,874.7,194.5z"/>
	<path class="st1" d="M997.9,269.9l-22.9-35.6H964v35.6h-10.3v-83H979c10.1,0,14.8,1.5,19.6,6.2c4,3.9,6.5,9.9,6.5,16.2
		c0,6.5-2.6,12.8-7.3,17.2c-3.4,3.4-6.4,4.9-12.6,6.3l24.5,37.1H997.9z M989.5,198c-2.5-2-4.7-2.4-12.1-2.4H964v30h13.5
		c10.9,0,16.6-5.5,16.6-16.2C994,204.2,992.5,200.4,989.5,198z"/>
	<path class="st1" d="M1071.4,195.6v74.3h-10.3v-74.3h-27.7v-8.7h65.6v8.7H1071.4z"/>
</g>
</svg>
