<?xml version="1.0" encoding="utf-8"?>
<!-- Generator: Adobe Illustrator 24.3.0, SVG Export Plug-In . SVG Version: 6.00 Build 0)  -->
<svg version="1.1" id="Layer_1" xmlns="http://www.w3.org/2000/svg" xmlns:xlink="http://www.w3.org/1999/xlink" x="0px" y="0px"
	 width="290.7px" height="132.5px" viewBox="0 0 290.7 132.5" style="enable-background:new 0 0 290.7 132.5;" xml:space="preserve"
	>
<g>
	<polygon points="12,42.5 19.6,34.9 39.1,60.2 54.4,60.2 28.1,26.3 54.3,0 37.3,0 12,25.4 12,0 0,0 0,60.2 12,60.2 	"/>
	<path d="M103.2,32.4c0,2.5-0.4,4.7-1.2,6.6c-0.8,2-1.9,3.6-3.4,5c-1.4,1.4-3.1,2.4-5,3.1c-1.9,0.7-4,1.1-6.3,1.1
		c-2.3,0-4.4-0.4-6.4-1.1s-3.6-1.8-5.1-3.1c-1.4-1.4-2.6-3-3.4-5c-0.8-1.9-1.2-4.2-1.2-6.6V0h-12v32.4c0,4.1,0.7,7.9,2.2,11.3
		c1.4,3.4,3.4,6.4,5.9,8.8c2.5,2.5,5.4,4.4,8.9,5.7c3.4,1.3,7.1,2,11.1,2c4,0,7.7-0.7,11.1-2c3.4-1.3,6.4-3.3,8.9-5.7
		c2.5-2.5,4.4-5.4,5.9-8.8c1.4-3.4,2.1-7.2,2.1-11.3V0h-12V32.4z"/>
	<polygon points="139.4,20.6 171.9,60.2 182.4,60.2 182.4,0 170.4,0 170.4,39.6 137.8,0 127.3,0 127.3,60.2 139.4,60.2 	"/>
	<path d="M226.1,55.7c1.7-1.5,3.1-3.3,4.1-5.5c1-2.2,1.5-4.7,1.5-7.5s-0.4-5.2-1.3-7.1c-0.9-2-2.1-3.6-3.5-4.9
		c-1.5-1.3-3.1-2.5-5-3.4c-1.9-0.9-3.9-1.7-5.9-2.4c-1.6-0.5-3.1-1-4.4-1.5c-1.3-0.5-2.5-1-3.5-1.5c-1-0.5-1.7-1.2-2.3-1.9
		c-0.5-0.7-0.8-1.6-0.8-2.7c0-1.5,0.6-2.8,1.8-3.8c1.2-1,3-1.5,5.5-1.5c2.4,0,4.4,0.6,5.9,1.7c1.5,1.1,2.6,3.1,3.3,5.9l10.9-4.4
		c-1.1-5-3.4-8.8-7-11.4c-3.6-2.6-7.9-3.9-13-3.9c-2.8,0-5.3,0.4-7.7,1.2c-2.4,0.8-4.4,1.9-6.2,3.4c-1.7,1.5-3.1,3.3-4.1,5.4
		s-1.5,4.6-1.5,7.3c0,2.9,0.5,5.3,1.5,7.3s2.2,3.7,3.8,5.1c1.5,1.4,3.3,2.5,5.2,3.4c1.9,0.9,3.8,1.6,5.7,2.2
		c1.5,0.5,2.9,0.9,4.2,1.3c1.3,0.4,2.4,0.9,3.4,1.4c1,0.5,1.7,1.2,2.3,2c0.5,0.8,0.8,1.7,0.8,2.8c0,1.7-0.6,3-1.9,4
		c-1.3,1-3.1,1.5-5.4,1.5c-5.1,0-8.3-2.6-9.5-7.8L192.1,45c0.6,2.7,1.5,5,2.8,6.9c1.3,1.9,2.8,3.5,4.6,4.7c1.8,1.2,3.8,2.1,5.9,2.7
		c2.2,0.6,4.4,0.9,6.8,0.9c2.8,0,5.3-0.4,7.7-1.2C222.3,58.3,224.4,57.2,226.1,55.7z"/>
	<polygon points="235.1,0 235.1,12 256.9,12 256.9,60.2 269,60.2 269,12 290.7,12 290.7,0 	"/>
	<polygon points="68.7,72.3 56.7,72.3 56.7,72.3 0,72.3 0,84.3 56.7,84.3 56.7,132.5 96.1,132.5 96.1,120.5 68.7,120.5 	"/>
	<rect x="103.2" y="72.3" width="12" height="60.2"/>
	<polygon points="170.4,111.9 137.8,72.3 127.3,72.3 127.3,132.5 139.4,132.5 139.4,92.9 171.9,132.5 182.4,132.5 182.4,72.3 
		170.4,72.3 	"/>
	<rect x="194.4" y="72.3" width="12" height="60.2"/>
	<polygon points="218.5,132.5 269,132.5 269,120.5 230.6,120.5 230.6,108.4 269,108.4 269,96.4 230.6,96.4 230.6,84.3 269,84.3 
		269,72.3 218.5,72.3 	"/>
</g>
</svg>
