<?xml version="1.0" encoding="utf-8"?>
<!-- Generator: Adobe Illustrator 24.3.0, SVG Export Plug-In . SVG Version: 6.00 Build 0)  -->
<svg version="1.1" id="Laag_1" xmlns:v="https://vecta.io/nano"
	 xmlns="http://www.w3.org/2000/svg" xmlns:xlink="http://www.w3.org/1999/xlink" x="0px" y="0px" width="489.5px" height="91.4px"
	 viewBox="0 0 489.5 91.4" style="enable-background:new 0 0 489.5 91.4;" xml:space="preserve">
<style type="text/css">
	.st0{fill:#6A3F24;}
</style>
<g>
	<path class="st0" d="M18.1,0c3.3,0,6,0.9,7.9,2.8s2.9,4.4,2.9,7.7c0,3.3-1,5.8-2.9,7.7S21.5,21,18.1,21H9.5v12.8H2.3V0H18.1z
		 M17.3,14.4c1.4,0,2.5-0.3,3.2-1s1.2-1.7,1.2-2.9c0-1.2-0.4-2.1-1.2-2.8s-1.9-1-3.2-1H9.5v7.8H17.3z"/>
	<path class="st0" d="M43.1,7.9c3.8,0,7,1.3,9.3,3.8s3.6,5.8,3.6,9.9v1.1c0,0.2-0.1,0.5-0.3,0.7s-0.4,0.3-0.7,0.3H37.3
		c0.4,1.4,1.1,2.6,2.1,3.4s2.2,1.3,3.8,1.3c1.1,0,2.1-0.3,2.9-0.8s1.4-1.2,1.8-1.9c0.3-0.5,0.8-0.6,1.3-0.4l5.7,2
		c-0.9,2.2-2.3,4-4.3,5.2s-4.5,1.9-7.5,1.9c-3.9,0-7-1.2-9.4-3.6s-3.6-5.6-3.6-9.5c0-4,1.2-7.2,3.6-9.7S39.3,7.9,43.1,7.9z
		 M43.1,13.9c-1.4,0-2.6,0.4-3.5,1.1s-1.7,1.8-2.1,3.1h11.2c-0.5-1.3-1.2-2.3-2.1-3.1S44.5,13.9,43.1,13.9z"/>
	<path class="st0" d="M74.5,8.5h0.4v3.9c0,0.5-0.2,1-0.5,1.3s-0.7,0.5-1.2,0.5h-0.3c-2,0-3.4,0.6-4.4,1.8S67,18.8,67,21v12.9h-6.9
		V8.5h5.2c0.3,0,0.5,0.1,0.7,0.3s0.3,0.4,0.3,0.7V12C68.2,9.6,71,8.5,74.5,8.5z"/>
	<path class="st0" d="M114.7,0h7.2v33.9h-7.6L99.1,10.6H99c-0.1,0-0.1,0-0.2,0.1s-0.1,0.1,0,0.2c0.3,1,0.5,2,0.5,2.9v20h-7.1V0h7.6
		l15.1,23.2h0.1c0.1,0,0.1,0,0.2-0.1s0.1-0.1,0-0.2c-0.3-1-0.5-2-0.5-2.9V0z"/>
	<path class="st0" d="M150.6,27.4c0.3,0.3,0.5,0.9,0.5,1.7v4.9h-0.7c-3,0-5.1-1-6.4-2.9c-2.1,2.2-5.1,3.3-9,3.3c-2.5,0-4.5-0.7-6-2
		s-2.2-3.2-2.2-5.5c0-2.2,0.7-4,2.1-5.5s3.6-2.4,6.5-2.8c3.7-0.4,6.1-1,7.4-1.7v-0.1c0-0.8-0.4-1.5-1.2-2s-1.7-0.8-2.9-0.8
		c-0.6,0-1.2,0-1.7,0.1s-1,0.2-1.5,0.4s-0.8,0.3-1,0.4s-0.5,0.3-1,0.6s-0.7,0.4-0.7,0.4c-0.6,0.3-1.1,0.4-1.7,0.3s-1-0.4-1.3-0.8
		l-2.1-2.9c0.3-0.4,0.8-0.9,1.3-1.3s1.3-0.9,2.2-1.4s1.9-0.9,3.1-1.3s2.5-0.5,3.8-0.5c3.7,0,6.6,0.9,8.5,2.6s2.9,4.3,2.9,7.7v7.2
		C149.6,26.3,149.9,27,150.6,27.4L150.6,27.4z M135.9,28.6c0.7,0,1.4,0,2-0.1s1.2-0.3,1.8-0.5s1.2-0.6,1.6-1s0.8-1,1.1-1.7
		s0.4-1.5,0.4-2.4v-0.7c-1.3,1.1-3.3,1.6-5.9,1.7c-1.2,0.1-2.1,0.4-2.7,0.8s-0.9,1-0.9,1.8c0,0.7,0.2,1.2,0.7,1.6
		S135.1,28.6,135.9,28.6z"/>
	<path class="st0" d="M171.1,14.5h-7.4v10.3c0,0.8,0.2,1.5,0.8,2.1s1.2,0.8,2,0.8h2.9c0.5,0,1,0.2,1.3,0.5s0.5,0.8,0.5,1.3V34h-5.2
		c-2.8,0-5-0.8-6.6-2.4s-2.4-3.9-2.4-6.8V14.5h-2.2c-0.5,0-1-0.2-1.3-0.5s-0.5-0.8-0.5-1.3V8.5h4V0h6.9v8.5h7.4V14.5z"/>
	<path class="st0" d="M198.3,27.4c0.3,0.3,0.5,0.9,0.5,1.7v4.9h-0.7c-3,0-5.1-1-6.4-2.9c-2.1,2.2-5.1,3.3-9,3.3c-2.5,0-4.5-0.7-6-2
		s-2.2-3.2-2.2-5.5c0-2.2,0.7-4,2.1-5.5s3.6-2.4,6.5-2.8c3.7-0.4,6.1-1,7.4-1.7v-0.1c0-0.8-0.4-1.5-1.2-2s-1.7-0.8-2.9-0.8
		c-0.6,0-1.2,0-1.7,0.1s-1,0.2-1.5,0.4s-0.8,0.3-1,0.4s-0.5,0.3-1,0.6s-0.7,0.4-0.7,0.4c-0.6,0.3-1.1,0.4-1.7,0.3s-1-0.4-1.3-0.8
		l-2.1-2.9c0.3-0.4,0.8-0.9,1.3-1.3s1.3-0.9,2.2-1.4s1.9-0.9,3.1-1.3s2.5-0.5,3.8-0.5c3.7,0,6.6,0.9,8.5,2.6s2.9,4.3,2.9,7.7v7.2
		C197.3,26.3,197.6,27,198.3,27.4L198.3,27.4z M183.6,28.6c0.7,0,1.4,0,2-0.1s1.2-0.3,1.8-0.5s1.2-0.6,1.6-1s0.8-1,1.1-1.7
		s0.4-1.5,0.4-2.4v-0.7c-1.3,1.1-3.3,1.6-5.9,1.7c-1.2,0.1-2.1,0.4-2.7,0.8s-0.9,1-0.9,1.8c0,0.7,0.2,1.2,0.7,1.6
		S182.8,28.6,183.6,28.6z"/>
	<path class="st0" d="M211.8,34c-2.6,0-4.7-0.7-6.2-2.2s-2.2-3.5-2.2-6.2V0h6.9v25.6c0,0.6,0.2,1.1,0.6,1.5s0.9,0.6,1.5,0.6h1.3
		c0.5,0,0.9,0.2,1.3,0.5s0.5,0.8,0.5,1.3V34H211.8z"/>
	<path class="st0" d="M230.7,7.9c3.8,0,7,1.3,9.3,3.8s3.6,5.8,3.6,9.9v1.1c0,0.2-0.1,0.5-0.3,0.7s-0.4,0.3-0.7,0.3h-17.8
		c0.4,1.4,1.1,2.6,2.1,3.4s2.2,1.3,3.8,1.3c1.1,0,2.1-0.3,2.9-0.8s1.4-1.2,1.8-1.9c0.3-0.5,0.8-0.6,1.3-0.4l5.7,2
		c-0.9,2.2-2.3,4-4.3,5.2s-4.5,1.9-7.5,1.9c-3.9,0-7-1.2-9.4-3.6s-3.6-5.6-3.6-9.5c0-4,1.2-7.2,3.6-9.7S226.8,7.9,230.7,7.9z
		 M230.7,13.9c-1.4,0-2.6,0.4-3.5,1.1s-1.7,1.8-2.1,3.1h11.2c-0.5-1.3-1.2-2.3-2.1-3.1S232,13.9,230.7,13.9z"/>
	<path class="st0" d="M272.5,34.5c-3.9,0-7-1.2-9.3-3.6s-3.4-5.6-3.4-9.5c0-4.1,1.1-7.3,3.4-9.7s5.4-3.6,9.3-3.6
		c3.1,0,5.6,0.8,7.8,2.3s3.5,3.8,4.2,6.7l-5.3,1c-1,0.2-1.7-0.1-2.1-0.9c-0.8-2.1-2.4-3.1-4.6-3.1c-1.9,0-3.3,0.7-4.4,2
		s-1.5,3.1-1.5,5.3c0,2.1,0.5,3.8,1.5,5.1s2.5,2,4.3,2c1.3,0,2.3-0.3,3-0.8s1.3-1.4,1.7-2.5c0.2-0.4,0.5-0.7,0.9-0.9
		s0.8-0.2,1.3-0.1l5.2,1c-0.6,3.1-2,5.4-4.2,7S275.7,34.5,272.5,34.5z"/>
	<path class="st0" d="M309.2,30.9c-2.3,2.4-5.4,3.6-9.3,3.6s-7-1.2-9.3-3.6s-3.5-5.6-3.5-9.7s1.2-7.3,3.5-9.7s5.4-3.6,9.3-3.6
		s7,1.2,9.3,3.6s3.5,5.6,3.5,9.7C312.6,25.2,311.5,28.5,309.2,30.9z M295.5,26.4c1,1.3,2.5,2,4.3,2s3.3-0.7,4.3-2s1.5-3.1,1.5-5.2
		s-0.5-3.9-1.5-5.2s-2.5-2-4.3-2s-3.3,0.7-4.3,2S294,19,294,21.2S294.5,25.1,295.5,26.4z"/>
	<path class="st0" d="M330.3,8c3.3,0,5.8,0.9,7.5,2.8s2.6,4.6,2.6,8.1v15h-6.9V19.6c0-1.9-0.3-3.4-0.9-4.3s-1.8-1.4-3.4-1.4
		c-1.6,0-2.8,0.5-3.7,1.5s-1.3,2.4-1.3,4.2v14.2h-6.9V8.5h5.2c0.3,0,0.5,0.1,0.7,0.3s0.3,0.4,0.3,0.7v1.9C325.3,9.1,327.5,8,330.3,8
		z"/>
	<path class="st0" d="M368.7,34c-2.6,0-4.7-0.7-6.2-2.2s-2.2-3.5-2.2-6.2V0h6.9v25.6c0,0.6,0.2,1.1,0.6,1.5s0.9,0.6,1.5,0.6h1.3
		c0.5,0,0.9,0.2,1.3,0.5s0.5,0.8,0.5,1.3V34H368.7z"/>
	<path class="st0" d="M398.3,27.4c0.3,0.3,0.5,0.9,0.5,1.7v4.9h-0.7c-3,0-5.1-1-6.4-2.9c-2.1,2.2-5.1,3.3-9,3.3c-2.5,0-4.5-0.7-6-2
		s-2.2-3.2-2.2-5.5c0-2.2,0.7-4,2.1-5.5s3.6-2.4,6.5-2.8c3.7-0.4,6.1-1,7.4-1.7v-0.1c0-0.8-0.4-1.5-1.2-2s-1.7-0.8-2.9-0.8
		c-0.6,0-1.2,0-1.7,0.1s-1,0.2-1.5,0.4s-0.8,0.3-1,0.4s-0.5,0.3-1,0.6s-0.7,0.4-0.7,0.4c-0.6,0.3-1.1,0.4-1.7,0.3s-1-0.4-1.3-0.8
		l-2.1-2.9c0.3-0.4,0.8-0.9,1.3-1.3s1.3-0.9,2.2-1.4s1.9-0.9,3.1-1.3s2.5-0.5,3.8-0.5c3.7,0,6.6,0.9,8.5,2.6s2.9,4.3,2.9,7.7v7.2
		C397.4,26.3,397.7,27,398.3,27.4L398.3,27.4z M383.7,28.6c0.7,0,1.4,0,2-0.1s1.2-0.3,1.8-0.5s1.2-0.6,1.6-1s0.8-1,1.1-1.7
		s0.4-1.5,0.4-2.4v-0.7c-1.3,1.1-3.3,1.6-5.9,1.7c-1.2,0.1-2.1,0.4-2.7,0.8s-0.9,1-0.9,1.8c0,0.7,0.2,1.2,0.7,1.6
		S382.9,28.6,383.7,28.6z"/>
	<path class="st0" d="M432.4,14.5H425v10.3c0,0.8,0.2,1.5,0.8,2.1s1.2,0.8,2,0.8h2.9c0.5,0,1,0.2,1.3,0.5s0.5,0.8,0.5,1.3V34h-5.2
		c-2.8,0-5-0.8-6.6-2.4s-2.4-3.9-2.4-6.8V14.5h-2.2c-0.5,0-1-0.2-1.3-0.5s-0.5-0.8-0.5-1.3V8.5h4V0h6.9v8.5h7.4V14.5z"/>
	<path class="st0" d="M453.6,8.5h6.9v25.4h-5.2c-0.3,0-0.5-0.1-0.7-0.3s-0.3-0.4-0.3-0.7v-1.9c-1.8,2.2-4.1,3.3-6.8,3.3
		c-3.3,0-5.8-0.9-7.5-2.6s-2.5-4.4-2.5-7.9V8.5h6.9v14.2c0,1.9,0.3,3.4,0.9,4.3s1.8,1.4,3.4,1.4c1.6,0,2.8-0.5,3.7-1.5
		s1.3-2.4,1.3-4.2V8.5z"/>
	<path class="st0" d="M489,27.4c0.3,0.3,0.5,0.9,0.5,1.7v4.9h-0.7c-3,0-5.1-1-6.4-2.9c-2.1,2.2-5.1,3.3-9,3.3c-2.5,0-4.5-0.7-6-2
		s-2.2-3.2-2.2-5.5c0-2.2,0.7-4,2.1-5.5s3.6-2.4,6.5-2.8c3.7-0.4,6.1-1,7.4-1.7v-0.1c0-0.8-0.4-1.5-1.2-2s-1.7-0.8-2.9-0.8
		c-0.6,0-1.2,0-1.7,0.1s-1,0.2-1.5,0.4s-0.8,0.3-1,0.4s-0.5,0.3-1,0.6s-0.7,0.4-0.7,0.4c-0.6,0.3-1.1,0.4-1.7,0.3s-1-0.4-1.3-0.8
		l-2.1-2.9c0.3-0.4,0.8-0.9,1.3-1.3s1.3-0.9,2.2-1.4s1.9-0.9,3.1-1.3s2.5-0.5,3.8-0.5c3.7,0,6.6,0.9,8.5,2.6s2.9,4.3,2.9,7.7v7.2
		C488,26.3,488.3,27,489,27.4L489,27.4z M474.3,28.6c0.7,0,1.4,0,2-0.1s1.2-0.3,1.8-0.5s1.2-0.6,1.6-1s0.8-1,1.1-1.7
		s0.4-1.5,0.4-2.4v-0.7c-1.3,1.1-3.3,1.6-5.9,1.7c-1.2,0.1-2.1,0.4-2.7,0.8s-0.9,1-0.9,1.8c0,0.7,0.2,1.2,0.7,1.6
		S473.5,28.6,474.3,28.6z"/>
	<path class="st0" d="M23.8,75.4c0.3,0.3,0.5,0.9,0.5,1.7v4.9h-0.7c-3,0-5.1-1-6.4-2.9c-2.1,2.2-5.1,3.3-9,3.3c-2.5,0-4.5-0.7-6-2
		S0,77.2,0,74.9c0-2.2,0.7-4,2.1-5.5s3.6-2.4,6.5-2.8c3.7-0.4,6.1-1,7.4-1.7v-0.1c0-0.8-0.4-1.5-1.2-2s-1.7-0.8-2.9-0.8
		c-0.6,0-1.2,0-1.7,0.1s-1,0.2-1.5,0.4s-0.8,0.3-1,0.4s-0.5,0.3-1,0.6S6,63.8,6,63.8c-0.6,0.3-1.1,0.4-1.7,0.3s-1-0.4-1.3-0.8
		l-2.1-2.9c0.3-0.4,0.8-0.9,1.3-1.3s1.3-0.9,2.2-1.4s1.9-0.9,3.1-1.3s2.5-0.5,3.8-0.5c3.7,0,6.6,0.9,8.5,2.6s2.9,4.3,2.9,7.7v7.2
		C22.8,74.3,23.1,75,23.8,75.4L23.8,75.4z M9.1,76.6c0.7,0,1.4,0,2-0.1s1.2-0.3,1.8-0.5s1.2-0.6,1.6-1s0.8-1,1.1-1.7
		s0.4-1.5,0.4-2.4v-0.7c-1.3,1.1-3.3,1.6-5.9,1.7c-1.2,0.1-2.1,0.4-2.7,0.8s-0.9,1-0.9,1.8c0,0.7,0.2,1.2,0.7,1.6S8.3,76.6,9.1,76.6
		z"/>
	<path class="st0" d="M47.8,56.5v6L36,75.9h11.8v6H26.9v-6l12-13.4h-12v-6H47.8z"/>
	<path class="st0" d="M55.9,53.8c-1.1,0-2-0.3-2.7-1s-1-1.6-1-2.7c0-1.1,0.3-2,1-2.7s1.6-1.1,2.7-1.1c1.1,0,2,0.4,2.7,1.1
		s1.1,1.6,1.1,2.7c0,1.1-0.4,2-1.1,2.7S57,53.8,55.9,53.8z M52.5,81.9V56.5h6.9v25.4H52.5z"/>
	<path class="st0" d="M77,55.9c3.8,0,7,1.3,9.3,3.8s3.6,5.8,3.6,9.9v1.1c0,0.2-0.1,0.5-0.3,0.7s-0.4,0.3-0.7,0.3H71.2
		c0.4,1.4,1.1,2.6,2.1,3.4s2.2,1.3,3.8,1.3c1.1,0,2.1-0.3,2.9-0.8s1.4-1.2,1.8-1.9c0.3-0.5,0.8-0.6,1.3-0.4l5.7,2
		c-0.9,2.2-2.3,4-4.3,5.2S80,82.5,77,82.5c-3.9,0-7-1.2-9.4-3.6s-3.6-5.6-3.6-9.5c0-4,1.2-7.2,3.6-9.7S73.2,55.9,77,55.9z M77,61.9
		c-1.4,0-2.6,0.4-3.5,1.1s-1.7,1.8-2.1,3.1h11.2c-0.5-1.3-1.2-2.3-2.1-3.1S78.4,61.9,77,61.9z"/>
	<path class="st0" d="M107.6,56c3.3,0,5.8,0.9,7.5,2.8s2.6,4.6,2.6,8.1v15h-6.9V67.6c0-1.9-0.3-3.4-0.9-4.3s-1.8-1.4-3.4-1.4
		c-1.6,0-2.8,0.5-3.7,1.5s-1.3,2.4-1.3,4.2v14.2h-6.9V56.5h5.2c0.3,0,0.5,0.1,0.7,0.3s0.3,0.4,0.3,0.7v1.9
		C102.6,57.1,104.9,56,107.6,56z"/>
	<path class="st0" d="M140.7,48h6.9v33.9h-5.2c-0.3,0-0.5-0.1-0.7-0.3s-0.3-0.4-0.3-0.7v-2.2c-2.1,2.4-4.8,3.6-7.9,3.6
		c-3.5,0-6.3-1.2-8.4-3.6s-3.1-5.6-3.1-9.6c0-4.2,1-7.4,3.1-9.7s5-3.5,8.7-3.5c2.7,0,5,0.8,6.8,2.3V48z M134.8,76.4
		c1.8,0,3.3-0.6,4.3-1.9s1.6-2.9,1.6-5.1V69c0-2.1-0.5-3.8-1.6-5.1s-2.5-1.9-4.3-1.9s-3.2,0.7-4.3,2S129,67,129,69.2
		s0.5,3.9,1.6,5.2S133,76.4,134.8,76.4z"/>
	<path class="st0" d="M176.1,75.4c0.3,0.3,0.5,0.9,0.5,1.7v4.9H176c-3,0-5.1-1-6.4-2.9c-2.1,2.2-5.1,3.3-9,3.3c-2.5,0-4.5-0.7-6-2
		s-2.2-3.2-2.2-5.5c0-2.2,0.7-4,2.1-5.5s3.6-2.4,6.5-2.8c3.7-0.4,6.1-1,7.4-1.7v-0.1c0-0.8-0.4-1.5-1.2-2s-1.7-0.8-2.9-0.8
		c-0.6,0-1.2,0-1.7,0.1s-1,0.2-1.5,0.4s-0.8,0.3-1,0.4s-0.5,0.3-1,0.6s-0.7,0.4-0.7,0.4c-0.6,0.3-1.1,0.4-1.7,0.3s-1-0.4-1.3-0.8
		l-2.1-2.9c0.3-0.4,0.8-0.9,1.3-1.3s1.3-0.9,2.2-1.4s1.9-0.9,3.1-1.3s2.5-0.5,3.8-0.5c3.7,0,6.6,0.9,8.5,2.6s2.9,4.3,2.9,7.7v7.2
		C175.1,74.3,175.4,75,176.1,75.4L176.1,75.4z M161.4,76.6c0.7,0,1.4,0,2-0.1s1.2-0.3,1.8-0.5s1.2-0.6,1.6-1s0.8-1,1.1-1.7
		s0.4-1.5,0.4-2.4v-0.7c-1.3,1.1-3.3,1.6-5.9,1.7c-1.2,0.1-2.1,0.4-2.7,0.8s-0.9,1-0.9,1.8c0,0.7,0.2,1.2,0.7,1.6
		S160.6,76.6,161.4,76.6z"/>
	<path class="st0" d="M203,82.4c-2.2,0-4.2-0.3-6-0.9s-3.4-1.4-4.5-2.4l2.7-4.1c0.2-0.3,0.5-0.5,0.8-0.5s0.7,0,1,0.2
		c2,1.2,4,1.7,5.9,1.7c1.2,0,2.1-0.2,2.7-0.6s0.9-0.9,0.9-1.6c0-0.5-0.2-1-0.6-1.3s-0.9-0.6-1.7-0.8c-0.6-0.2-1.5-0.4-2.6-0.6
		s-2.1-0.5-2.8-0.7c-1.8-0.5-3.2-1.3-4.2-2.6s-1.5-2.7-1.5-4.5c0-2.4,0.9-4.3,2.7-5.8s4.1-2.2,7.1-2.2c1.9,0,3.7,0.3,5.4,0.9
		s3,1.4,4.1,2.2l-2.5,4.1c-0.4,0.7-1,0.8-1.7,0.4c-2-1.2-4-1.8-6-1.8c-0.8,0-1.4,0.2-1.8,0.5s-0.7,0.7-0.7,1.2c0,0.4,0.1,0.7,0.4,1
		s0.7,0.5,1.2,0.6c1.1,0.3,2.6,0.8,4.5,1.2c2.5,0.6,4.4,1.6,5.6,3s1.9,3.1,1.9,5c0,2.5-0.9,4.4-2.7,5.9S206.1,82.4,203,82.4z"/>
	<path class="st0" d="M228.3,82.5c-3.9,0-7-1.2-9.3-3.6s-3.4-5.6-3.4-9.5c0-4.1,1.1-7.3,3.4-9.7s5.4-3.6,9.3-3.6
		c3.1,0,5.6,0.8,7.8,2.3s3.5,3.8,4.2,6.7l-5.3,1c-1,0.2-1.7-0.1-2.1-0.9c-0.8-2.1-2.4-3.1-4.6-3.1c-1.9,0-3.3,0.7-4.4,2
		s-1.5,3.1-1.5,5.3c0,2.1,0.5,3.8,1.5,5.1s2.5,2,4.3,2c1.3,0,2.3-0.3,3-0.8s1.3-1.4,1.7-2.5c0.2-0.4,0.5-0.7,0.9-0.9
		s0.8-0.2,1.3-0.1l5.2,1c-0.6,3.1-2,5.4-4.2,7S231.4,82.5,228.3,82.5z"/>
	<path class="st0" d="M255.9,55.9c3.8,0,7,1.3,9.3,3.8s3.6,5.8,3.6,9.9v1.1c0,0.2-0.1,0.5-0.3,0.7s-0.4,0.3-0.7,0.3H250
		c0.4,1.4,1.1,2.6,2.1,3.4s2.2,1.3,3.8,1.3c1.1,0,2.1-0.3,2.9-0.8s1.4-1.2,1.8-1.9c0.3-0.5,0.8-0.6,1.3-0.4l5.7,2
		c-0.9,2.2-2.3,4-4.3,5.2s-4.5,1.9-7.5,1.9c-3.9,0-7-1.2-9.4-3.6s-3.6-5.6-3.6-9.5c0-4,1.2-7.2,3.6-9.7S252,55.9,255.9,55.9z
		 M255.9,61.9c-1.4,0-2.6,0.4-3.5,1.1s-1.7,1.8-2.1,3.1h11.2c-0.5-1.3-1.2-2.3-2.1-3.1S257.2,61.9,255.9,61.9z"/>
	<path class="st0" d="M287.9,77.2c2.8,0,5,0.6,6.5,1.7s2.2,2.8,2.2,5c0,2.2-1,4.1-3.1,5.4s-5.3,2.1-9.6,2.1c-3.9,0-6.9-0.7-9.1-2.2
		s-3.3-3.2-3.3-5.4c0-1.4,0.3-2.5,1-3.5s1.4-1.6,2.1-1.8c-0.4-0.1-0.8-0.4-1.2-1s-0.7-1.3-0.7-2.2c0-1.7,0.7-2.9,2.2-3.8
		c-1.7-1.7-2.6-3.8-2.6-6.3c0-3,1-5.3,2.9-6.9s4.6-2.4,7.9-2.4c2.6,0,4.8,0.5,6.5,1.5c0.6-0.6,1.5-0.9,2.6-0.9h3.5v3.9
		c0,0.5-0.1,0.8-0.4,1.1s-0.6,0.4-1.1,0.4h-0.7c0.3,1,0.5,2.1,0.5,3.3c0,3-1,5.3-3.1,6.9s-4.8,2.4-8.4,2.4h-1.7
		c-0.6,0-1.2,0.1-1.5,0.3s-0.6,0.6-0.6,1c0,0.9,0.9,1.4,2.7,1.4H287.9z M283.9,85.7c2.3,0,3.9-0.2,5-0.6s1.6-0.9,1.6-1.5
		c0-1-0.9-1.5-2.8-1.5h-7c-2,0-2.9,0.5-2.9,1.5c0,0.6,0.6,1.1,1.7,1.5S282.2,85.7,283.9,85.7z M286.3,62.6c-0.8-0.6-1.9-0.9-3.3-0.9
		s-2.4,0.3-3.2,0.9s-1.2,1.4-1.2,2.5c0,1.1,0.4,2,1.2,2.6s1.9,0.9,3.2,0.9c1.4,0,2.5-0.3,3.3-0.9s1.2-1.5,1.2-2.6
		C287.5,64.1,287.1,63.2,286.3,62.6z"/>
	<path class="st0" d="M308.7,82c-2.6,0-4.7-0.7-6.2-2.2s-2.2-3.5-2.2-6.2V48h6.9v25.6c0,0.6,0.2,1.1,0.6,1.5s0.9,0.6,1.5,0.6h1.3
		c0.5,0,0.9,0.2,1.3,0.5s0.5,0.8,0.5,1.3V82H308.7z"/>
	<path class="st0" d="M320,53.8c-1.1,0-2-0.3-2.7-1s-1-1.6-1-2.7c0-1.1,0.3-2,1-2.7s1.6-1.1,2.7-1.1c1.1,0,2,0.4,2.7,1.1
		s1.1,1.6,1.1,2.7c0,1.1-0.4,2-1.1,2.7S321.1,53.8,320,53.8z M316.6,81.9V56.5h6.9v25.4H316.6z"/>
</g>
</svg>
