<?xml version="1.0" encoding="utf-8"?>
<!-- Generator: Adobe Illustrator 24.3.0, SVG Export Plug-In . SVG Version: 6.00 Build 0)  -->
<svg version="1.1" id="Layer_1" xmlns="http://www.w3.org/2000/svg" xmlns:xlink="http://www.w3.org/1999/xlink" x="0px" y="0px"
	 width="1846.5px" height="2381.2px" viewBox="0 0 1846.5 2381.2" style="enable-background:new 0 0 1846.5 2381.2;"
	 xml:space="preserve">
<style type="text/css">
	.st0{fill:#1D1D1B;}
	.st1{fill:#E20613;}
</style>
<g>
	<path class="st0" d="M617.7,750.5c-1.1,1.3-4.9,5.7-14.3,16.5c36.5-13.8,45.5,13.7,54.8,28.7c25,40.4,50.6,75.8,102.6,80.4
		c5.6,0.5,13.3,10.3,14.6,16.9c1,4.8-5.6,13.2-11,17c-30.1,21.3-81.4,11.1-117-5c-60.6-27.3-83.6-84.8-122.6-130
		c-25.5-29.5-221.8-167.7-249.5-195.9c-12.7-12.9-21.1-30.2-33.6-43.5c-6.6-7.1-17.8-9.9-26.9-14.6c-2.4,8.8-7.3,17.7-6.7,26.2
		c4.6,62.8,10.4,125.5,15.7,188.3c0.8,9,0.7,18.1,1,27.1c-21.6,6.2-41.6,12-66.8,19.4C95.3,572.9,39.3,234.1,0,20.1
		c8.9-2.6,14.8-4.9,20.9-6.1C44.7,9.2,68.6,4.6,92.3,0c22,112,72.9,344.2,94.4,453.5c3.5,0.4,7,0.8,10.5,1.2c1.4-28,33.1-38.3,30-73
		c-2.3-25.9,12.7-53.5,20.8-80.1c16.5-54.3,33.6-108.4,50.5-162.7c6.5,2,20,5.5,32.9,10.5c2.7,1.1,4.1,7.9,4.4,12.3
		c3.8,57-1,112.5-20.9,166.9c-13.3,36.3-25.2,74.2-29.7,112.4c-2,16.5,13,38.2,25.7,52.7C355.1,544.3,571.7,701,617.7,750.5
		 M182.8,763.5c-19.1-90.4-37.9-179.2-56.7-268c-3.8,0.3-7.6,0.6-11.4,0.9c-0.5,9.9-2.6,20-1.2,29.6c3.6,24.7,9,49.2,13.4,73.8
		c8.7,49.4,16.5,99,26.1,148.3C155.6,761.3,161.3,776.7,182.8,763.5"/>
	<path class="st0" d="M1407.5,310.3c55.7,1.2,104.3,2.2,152.8,3.2c0.6-2.2,1.1-4.4,1.7-6.6c-14.2-5.9-28.1-13.2-42.8-17.3
		c-17.2-4.7-22.2-13.3-15.8-28.4c47-6.5,88.1,6.9,126.8,31.5c44.4,28.3,70.6,71,69.2,125.6c-0.7,26.4-13.6,42.4-30.5,59.4
		c-16,16-28.4,35.7-45.5,57.8c8.4,8,22.6,21,36.4,34.6c16,15.7,35,72.7,33.8,95.7c-0.4,6.2,4.8,12.6,6,19.1
		c0.8,4.6-0.5,9.7-1.8,14.3c-0.8,2.7-5.2,5.3-4.9,7.4c4.2,25.3,13.3,50.6,12.2,75.6c-0.9,20.4,2.7,35.8,16.3,49
		c23.4,22.6,39.9,55.4,79.5,55.2c3.3,0,10.3,12.9,9.3,14c-8.6,9.5-18.4,24.3-28.4,24.8c-19.9,1-40.9,10.3-60.8-12
		c-13.9-15.6-41-18.9-62-28.3c-5.9-2.6-13-6.2-15.9-11.4c-16-29.2-34-57.8-44.8-89c-6.4-18.3,0.6-41-0.6-61.6
		c-1-15.7-5.4-31.3-8.4-46.9c-4.9-25.7-11.9-51.1-14.4-77c-3.8-38.2-15.5-52.3-55.1-55.3c-13.2-1-26.7,1.8-42.1,3.1
		c4.4,51.1,8.5,99.1,13,151.7l-76.8-7.4C1411.7,561.7,1409.6,435.1,1407.5,310.3 M1462.4,493.2c20.8,2,38.6,3.3,56.3,5.5
		c46.3,5.8,77.1-13,90.1-55.7c11.1-36.1,5.3-62.6-18.3-78.2c-31.3-20.6-66.1-24.2-102.2-18.8c-3.7,0.6-8.7,3.2-10.1,6.2
		c-15.1,34.1-21.3,69.7-14.1,106.7c0.6,2.9,8.5,4.4,12.8,6.4C1473,472.9,1469.1,480.3,1462.4,493.2"/>
	<path class="st0" d="M568.5,573.3c-6.7,13.9-12,32.5-16,32.2c-19.3-1.3-41.7-2.7-56.9-13.1c-62.3-42.8-60.6-110.3-59.1-175.9
		c0.6-27.1,6.4-54.2,10.4-81.2c4.9-33.9,23.9-59.2,46-84.3c12.2-13.8,22.3-22.9,40.8-24.9c53.5-5.7,78.8-4.4,103.6,10.7
		c-24.3-0.7-43.9-1.3-63.5-1.9c-17.1-0.5-24.4,6-15.9,25.2c53.1-7.6,93.7,23.1,136.2,48.2c4.9,2.9,11.2,9.2,11.1,13.8
		c-0.8,32.5,22,55.6,30.8,84.1c2.4,7.7,0.1,16.9-0.6,25.4c-0.5,6.7-3.2,13.6-2.3,20c0.9,6.4,9.2,15.4,7.4,17.8
		c-9.6,12.1-21.2,22.7-32.5,33.2c-3.7,3.4-10.4,4.1-13.2,7.9C662.4,554.2,617.3,571.2,568.5,573.3 M575.7,541
		c28.9-2.2,48.6-15.2,51.4-44.4c4-41.1,5.7-83.3,0.7-124.1c-3.7-30.1-17-60.3-47.6-76.4c-15-7.9-47.2-0.2-46.2,12.4
		c1.6,20.1-11.9,36.8-11,53.9c2.4,46.1-10.9,94.9,18.5,137.5c1.1,1.7-0.8,5.3-0.9,8.1C539.2,533.9,548.9,543,575.7,541"/>
	<path class="st0" d="M1841.7,2066.7c-9.2-1.6-16.2-2.8-23.5-4c-13.1,49.5-26.3,98.3-38.9,147.3c-9.2,36-10.6,70.5-36.8,98.7
		c-23.8,25.7-27.2,43.4-60.6,52.3c-41,11-87.2,39.6-120.7-0.5c-27.5-32.8,1.2-71.5,36.5-62.7c42.3,10.5,21.2,26.9,67.5,12.7
		c23.7-7.3,18.8-8.3,42-17.5c50-19.9,75.5-132.3,35.8-168.9c-36.2-33.4-51.3-78.5-78.9-116.3c-24.6-33.6-53.4-92.7-76.7-130
		c26.2-8.7,50.3-17.7,75.1-24.1c4.6-1.2,14.4,6.8,17.6,12.9c27.3,52.7,62.2,128.1,88.8,181.1c1.9,3.7,4.1,7.3,8.9,15.7
		c0.9-9.4,1.7-13.7,1.7-18c-1-60.2-18.2-171-18.7-231.2c-0.2-25.1,23.8-22.4,38.2-29.9c5.9-3,13.9-1.8,20.1-2.4
		c7.5,21.1,14.6,40.5,21.2,60.1c1.3,3.9,1.1,8.5,0.8,12.8c-3.5,49.5,8.6,149.7,4.8,199.2C1845.5,2058,1843.2,2062,1841.7,2066.7"/>
	<path class="st0" d="M1661.1,1814.3c-26.8,2.2-96.5,3.9-123.4,5.3c-25.5,1.3-51.2,0.1-76.6,1.8c-24.1,1.5-48,5.1-72,8.1
		c-18.2,2.3-33-0.6-38.3-23.5c13.1-4.5,26.3-9,44.4-15.2c-3-22.4-8-47.6-9.4-72.9c-1.3-24.3,2.5-48.8,1.5-73.1
		c-0.7-16.9-6.7-33.6-8.3-50.6c-1.4-15-2.1-30.8,1-45.4c4.5-20.8-2.5-34.2-22.3-39.9c-7.9-2.3-14.2-10.5-21.2-16
		c7.1-4,14.1-11.3,21.3-11.5c37.3-1.1,74.6-0.3,111.9-0.5c28.2-0.2,84.7-4.9,112.9-5.2c7.1-0.1,14.4-0.7,21.3,0.5
		c11.3,2,25.6-1.1,21.4,21.1c-1.9,10.4,9.1,23.2,14.3,34.9c-14.4,10.4-24.2,10-35.3-7.9c-17.3-27.8-47.5-30-69.4-24.2
		c-19.3,5.1-69.1-10.5-84.2,13.4c1.1,0.5,3.6,1.7,6.4,3.1c-7.8,5.1-15.5,10.2-26.3,17.2c7.3,1.9,11.4,3,16.5,4.3
		c-2.7,17.1-4.5,34.4-8.4,51.3c-5.4,23.2,2,38.5,25.1,47.2c16.2,6.1,73.7-7,81.8-22.6c5.8-11.1,4.7-31.5,22.2-28
		c7.3,1.5,13.4,19.7,16.3,31.3c5.5,22,10.3,44.6,11.5,67.2c0.6,11.8-7,24-10.9,35.8c-18-4-28-9.3-30.5-28.2
		c-2.9-22.2-62.2-31.3-84-23.4c-5.5,2-13.1,0.6-17.2,3.9c-5.1,4.1-10.5,11.4-10.8,17.5c-1.1,20.2,0.3,40.6,0.4,60.9
		c0.2,26.9,12.2,42,37,36c21.7-5.2,44.3-3.3,61.8,1.2c33.5,8.7,88.3-10.2,103.6-29.1c6.5-8,14.6-11.6,23-10.1
		c20.1,3.5,25.5,18.5,13.8,36.7C1675.4,1796,1667.4,1805.7,1661.1,1814.3"/>
	<path class="st0" d="M1324.8,655.7c2.6,0.9,12.1,2.5,19.7,7.3c13.8,8.6,12.5,28.7-1.5,38.2c-2.4,1.7-7.8,1.8-8.1,3.3
		c-5.4,29.2-26.7,20.3-43.7,17.8c-62.4-9.2-124.6-19.8-187-29.3c-8.6-1.3-17.8,1.7-26.5,0.7c-17.4-2.1-33.5-6.8-30.2-32.2
		c11.4-0.6,22.7-0.5,33.8-2c4.2-0.6,10.6-4.4,11.2-7.7c2.8-14.7,4.1-29.6,5.5-44.6c0.8-8.3-0.4-16.8,1.1-24.9
		c5.9-32.8,16.4-65.4,17.4-98.2c0.8-24,2.1-47,8.4-69.9c0.2-0.6-0.8-1.7-0.5-2.1c20.2-30.2,7-47.6-21.5-60.7
		c-4.3-2-5.3-11.1-7.9-16.8c5.8-2.2,12.1-7.2,17.4-6.3c37.1,6.3,74,13.9,111,21c11.4,2.2,23,3.9,34.4,6.2
		c29.3,5.9,58.7,11.4,87.8,18.4c10.7,2.6,24.4,4.5,16.3,24c-3.5,8.3,3,20.5,3.2,31c0.1,6.3-3.3,12.6-6.5,23.7
		c-16-19.7-27-35.9-40.7-49.3c-18-17.7-25.3-18.2-55.7-13.6c-1.8,0.3-4.1-1.3-5.7-2.6c-19.6-15-37.9-15.5-55.6,3.6
		c-3.2,3.5-8.7,4.8-15.8,8.5c6.8,2.9,11.1,4.7,15.3,6.6c-6.6,17.1-13.8,33.4-19.3,50.3c-9.2,28.1-3.4,46.2,16.9,57.7
		c16.1,9,42.5,0.4,57.7-18.9c3.6-4.6,5.9-10.7,10.4-13.9c4.4-3.2,11.2-5.6,16.2-4.5c3.6,0.7,8.3,7.7,8.3,11.9
		c-0.3,34.1-0.4,68.3-3.5,102.2c-0.9,9.7-11.5,18.4-17.8,28c-13.4-8.4-26.7-12.7-23.1-34.4c3.3-19.9-12.9-34-33.4-35.9
		c-12.2-1.1-24.8-2.9-36.7-1.2c-4.8,0.7-10.8,9.4-12.2,15.3c-4.7,20.7-8,41.8-11.2,62.9c-4.8,31.2,1,38.5,30.9,44.2
		c26.8,5.1,53.8,9.9,79.7,18.2c15.1,4.9,24.3,4.3,34-8.9C1303.2,670.2,1313.3,665,1324.8,655.7"/>
	<path class="st0" d="M1834.4,1144.6c-1.4,7.6-2.5,13.7-3.7,19.9c-24.1-9-28.9-2.8-34.8,22.3c-4.7,20-5.2,38.9-2.5,58.6
		c0.5,3.8,3.8,7.5,3.5,11c-0.6,6.4-2,17.8-4.7,18.2c-38.7,6.8-77.6,12.6-116.6,17.3c-4.7,0.6-10.2-6.4-17.2-11.1
		c0,5.2-0.1,8.6-0.1,13.2c-14.5-5.3-28.1-13.3-41.3-18.1c-21.2-7.7-39.2-19.5-57.7-30.7c-9.4-5.6-16.4-16.6-22.4-26.5
		c-11.7-19.2-23.8-38.4-32.2-59.1c-10.2-25.1-2.4-50.4,6.3-74.7c4.2-11.8,8.1-24.3,15.2-34.4c25.8-37,61.7-57.3,105.9-66.9
		c33-7.2,63.7-0.5,95.2,4.9c4.7,0.8,8.5,5.9,13.2,6.9c7.6,1.6,17.2,4.4,23.2,1.4c14.4-7.3,23.2-4.4,28.1,10.2
		c6,17.8,7.1,35.5-6.2,53.8c-5.1-5.3-9-9.9-13.5-13.9c-11.2-10.2-22.2-20.9-34.2-30.1c-20.9-16.2-44.4-15-68.1-7.4
		c-22.5,7.2-45,14.6-67.1,22.9c-7.3,2.7-15.2,7.3-19.5,13.4c-8.8,12.4-19.3,25.7-21.8,39.9c-3.8,22.3-4.9,46.3-0.9,68.4
		c3.8,21.2,13.5,42.3,24.7,60.9c5.8,9.6,9.1,27,28.6,24.7c4.1-0.5,13.5,9.8,18.3,12.6c15.4,9,32.6,20.1,52.5,16
		c14.9-3.1,29.6-7.2,44.3-11.3c5.1-1.4,9.7-4.3,11.2-5c5.2-6.8,10.9-11.2,11.9-16.4c2.2-11,2-22.6,2.6-33.9c0.4-8.7-1-17.6,0.8-26
		c2.9-14.1,1-24-14.8-27c-1.2-0.2-3.2,0.5-3.7-0.1c-6.2-8.2-12.2-16.6-18.2-25c8.8-1.7,18.1-6.1,26.4-4.7
		c23.4,4.1,46.5,10.2,69.5,16.2C1820.7,1136.7,1826.5,1140.7,1834.4,1144.6"/>
	<path class="st0" d="M771.3,802.7c-3.3-18.4-0.2-28.3,15.8-33.7c6.7-2.3,14.2-12,15.2-19.3c2.8-20.1,2.7-40.7,3-61.1
		c0.3-20.5,4-49.5,4.7-70c1.2-31.9-0.3-63.9,1.2-95.8c1.1-24.3,5.1-48.4,8.1-75.3c-12.8-3.4-28-7.5-43.8-11.8
		c1.5-14.5,5.1-21.4,20.3-18.3c9.9,2,20.8-0.3,31.2-1.4c19.1-2,38.1-5.7,57.2-6.7c27.9-1.4,56-0.9,84-1.5
		c22.3-0.5,66.8,35.2,74.5,56.7c5.6,15.5,15.9,29.2,26.1,47.2c-11,14.2-27.1,28.2-34,45.8c-6.9,17.9-18.5,29.1-33.3,34.8
		c-17,6.6-33.9,10.6-46.1,26.2c-2.6,3.4-13,1.2-19.7,0.7c-12.4-0.9-25.1-4.7-37.1-3.1c-11.3,1.5-25.3,6.3-22.9,22.7
		c4.8,33.9-0.3,66.3-6.6,98.9c-2.4,12.7,3.5,19.4,15.9,22.7c11.9,3.1,23.2,8.3,34.7,12.6c-0.2,2.3-0.4,4.5-0.6,6.8
		C870.3,787.4,821.4,795,771.3,802.7 M871.7,566.2c2.8-0.8,5.6-1.5,8.3-2.2c6.9,6.7,13,14.7,21,19.7c7.1,4.4,17.6,9.5,24.4,7.3
		c22.3-7.1,42.4-17.7,54.7-40.7c13.4-24.9,25.3-50.1,12.6-77.5c-5.5-11.9-19.8-19.9-30.5-29.1c-6.3-5.4-13.1-10.6-20.6-14
		c-7.1-3.3-15.6-6.5-23-5.6c-22.8,2.6-47.7,41.7-35.3,62.7c13.8,23.3-2.2,26.7-15.8,36.2c6.6,3.1,11.5,5.5,12,5.7
		C876.6,542.8,874.2,554.5,871.7,566.2"/>
	<path class="st0" d="M1146.3,2194.2c6.6-2.2,12.3-4.3,18.2-5.9c15.6-4.3,21.8-10.5,19.6-30.4c-2.6-23.3,5.9-47.7,7.8-71.8
		c1.4-17.1-0.9-34.4,0-51.5c1.7-32.5,4.1-65,6.9-97.5c1.6-18.2-8.2-25.5-23.7-30.4c-5.6-1.8-9.2-9.5-13.8-14.5
		c5.8-3.5,12.1-10.6,17.3-9.9c65,9,131.6,8.4,194.3,31.7c2,0.7,4.2,1.2,6.3,1.1c24.2-1.5,34.4,13.4,40.9,39.4
		c-26.6-8.9-50.5-17.3-74.7-24.9c-15.5-4.8-32.1-12.9-47.1-11c-11.2,1.5-26.2,15-29.5,26.2c-7.6,25.9-9.1,53.6-13.1,80.8
		c34.2,1.5,66.9,2.8,100.9,4.3c-3.2,17-6,31.4-8.7,45.5c-70.7-1.7-78.1-4.2-78.5-27.4c-4.2,7.2-8.4,14.4-12.7,21.6
		c-9.8-5.1-17.4-9.8-17.2,10.3c0.3,27-3.6,54.2-6.3,81.2c-2.2,22.4,12.5,29.1,29.6,31.8c25.4,4,51.1,6.6,76.6,9.1
		c22.5,2.2,25,6.6,16.2,30c-34.2-3.7-69.6-2.7-101.7-12.4c-28.1-8.5-54-3.6-80.5-1.2C1153.5,2220,1152.8,2205.5,1146.3,2194.2"/>
	<path class="st0" d="M1471.5,2271.7c-9.2,0.9-17.5,1.4-25.8,2.5c-19.4,2.6-19.3-18-21.2-29.7c-5.5-34.3-7.3-69.2-11.2-103.8
		c-4.5-39.4-9.7-78.7-14.3-118.1c-0.6-5.4,0.5-11,0.8-16c41-2.1,81.3-6,121.7-5.5c30.4,0.4,59.1,11.4,80.3,41.6
		c21.2,30.3,17.2,58.1-10.5,77.2c-8.8,6.1-16.9,13.5-27.5,22.1c4,5,7.9,14,13.6,16.4c36.7,15.3,48.5,15.5,49,58.2
		c0.2,12.8,7.3,0.5,9.6,13.5c0.8,4.5,0.4,11.2-1.9,14.1c-13.2,16.3-29.1,9-44.7,4.4c-11-3.3-10.2-11.2-10.4-23
		c-0.5-28-6.7,0.9-8-27.2c-0.8-17.8-8-25.9-21.1-30.3c-5.7-1.9-11.1-6.6-16.8-7.3c-5.2-0.7-13.1-15.5-16.9,3.6
		c-1,4.8-15.5,6.1-24,7.3c-19.1,2.9-22.2,17.4-21.2,37.3C1472,2230.1,1471.4,2251.2,1471.5,2271.7 M1509.2,2142.4
		c42.9-0.8,55.8-17.4,53.6-69.1c-1.2-27.6-26.6-53.8-51.2-52.8c-35.8,1.4-50.6,25.1-49.9,79.7
		C1462,2119.9,1487.8,2142.8,1509.2,2142.4"/>
	<path class="st0" d="M1105.1,1722.3c-31.3-27.2-73.8-30.8-114.4-44.7c3.9-13.3,7.4-25.1,9.3-31.7c17.6,0.8,29.8,1.3,42.1,2
		c5,0.3,10.3,0.2,14.9,1.9c30,11.2,59.5,24,89.9,34c42.5,13.9,85.5,26.4,128.6,38c9,2.4,19.8-2.2,29.8-2.6
		c12.5-0.4,24-0.1,14.8,18.7c-3.1,6.4-0.6,15.6-0.6,23.6c-1.1,0.7-2.4,2.3-3.3,2.1c-20.2-5.1-40.2-11.2-60.6-15.4
		c-25.4-5.2-51-11.1-76.6-11.7c-8.4-0.2-20.8,13.6-25.2,23.7c-10.9,25.6-23.9,52.5-25.5,79.5c-1.5,24.9-20.3,43.3-16.4,70.4
		c2.2,15.4-12.6,33.7-21.1,50.1c-9.9,19.1-18.6,37.3-0.1,56.3c2,2,2,7,1.5,10.3c-1.6,9.2-31.8,23.2-45.6,18
		c-7-2.6-11.9-14.4-14.9-23c-1.9-5.4,0.4-12.9,2.2-19.1c14.3-49.6,6.6-103.3,27.5-151.7c8.5-19.8,16.5-39.7,25.4-59.3
		c6.8-15.1,13.8-29.4,10.4-47.2C1096.2,1738.8,1101.6,1731.8,1105.1,1722.3"/>
	<path class="st0" d="M1457.7,1237.2c0.3,6.1,2.1,12.6,0.5,18.1c-5.8,20.7,14,24.3,21.8,36c12.9,19.2,32.3,26.6,52.4,27.4
		c32.7,1.3,49.4,28.6,74.7,41.6c35.2,18.1,68.8,40.1,112.8,20.8c-1,7.1-0.5,11.8-2.3,15.3c-12,23.2-24.1,46.3-37.1,68.9
		c-2.6,4.6-9.3,6.8-14.1,10.1c-1.4-5.2-5.4-11.6-3.7-15.5c7.6-17.2-5-25.7-15.3-30.8c-27.5-13.8-56.4-24.8-84.7-36.9
		c-13.4-5.8-27-11.1-40.1-17.5c-28.6-14-56.6-29.6-85.8-42.3c-6.3-2.7-17.4,3.3-25.1,7.5c-7.3,4.1-13,11.1-19.4,16.8
		c-2.7-1.3-5.4-2.5-8.1-3.8c3.3-11.8,4.7-24.7,10.4-35.2c12.3-23.1,26.6-45.1,40.5-67.2c3.6-5.7,9-10.2,13.6-15.3
		C1451.8,1235.9,1454.8,1236.6,1457.7,1237.2"/>
	<path class="st1" d="M798.4,1120.5c1.3,6.7,18.3,9,5.8,19.1c2.7,4.6,5,8.8,7.5,13c1.5,2.6,3.4,7.3,4.8,7.2c3.6-0.3,8-1.9,10.3-4.6
		c3.1-3.5,4.6-8.5,6.8-12.8c13.9,2.6,22-2.8,24.6-16.4c3.1-16.7,6.8-33.3,8.7-50.2c0.5-3.8-4.6-9-8.2-12.3
		c-8.2-7.6-17.1-14.4-28.8-24.1c5.6-3.2,8.3-4.7,8-4.5c-1-9.1-2-16.2-2.5-23.3c-0.2-2.8,1.4-6,0.8-8.6c-0.8-2.8-2.8-6.2-5.2-7.4
		c-1.8-1-5.2,1-8.2,1.8l0.2-12.1c1,0.8,1.9,1.6,2.8,2.4c4.3-4.4,9.2-8.5,12.9-13.4c10.7-13.8,20.9-27.9,31.3-41.9
		c3.6-4.9,7.1-9.8,10.7-14.7c12.9-18,34.2-23.2,51.8-34c4.6-2.9,10.2-4.2,15.4-6.2c6.8,1.9,14.1,4,22.5,6.4
		c5.3,0.3,12.1,1.3,18.7,0.9c2.8-0.2,5.5-3.5,8.4-5.5c8.2,13.8,22.5,14,35.9,16.4c4.9,0.9,9.4,4,14.2,5.6c2.8,1,6,0.9,10,1.5
		c-0.2,1.8-0.4,5-1.1,11.2c5.9-3.5,9.9-5.9,13.9-8.2c0.9,0.4,1.7,0.8,2.6,1.2c-2,4.9-4,9.8-6.2,15.1c13,12.3,15.9,31.2,8.7,49.2
		c-2.3,5.8,0.3,13.5,0.3,20.3c0.1,8.4,0.4,16.8-0.4,25.2c-0.9,8.1,3.8,11.3,18,10.2c-1.4,3.1-2.6,5.8-3.4,7.5
		c6.2,1.1,12.2,2.2,18.2,3c1.2,0.2,2.5-0.3,3.7-0.7c7.6-2.9,15-6.6,22.8-8.5c9-2.1,10.8-5.2,5.4-13.5c6.5-4.6,12.3-14.4,20.7-1.6
		c0.8-2.4,1.6-4.5,2.2-6.3c6.4,1.2,12.6,2.4,20,3.9c-1-3.7-1.8-6.8-3.1-11.7c5,1.8,9,3.3,14.1,5.1c18.1-15.7,37.9-30.5,65.1-29.1
		c0.3-10.7,9.3-11.1,18.2-11.7c5.4-0.3,10.7,2.2,13.3-7.3c1.4-5.2,11.4-8.7,18.1-11.5c2.2-0.9,6.3,2.7,9.6,4.3c-0.3,1-0.6,2-0.9,3
		c3.8-0.7,7.7-1.5,12.6-2.4c-1.5-2.3-2.8-4.4-4.3-6.7c3.2-2.5,6.8-5.3,10.1-7.9c3.6,3.8,7,7.3,10.3,10.8c1-0.7,2-1.5,3-2.3
		c-1-2.5-2.1-4.9-3.5-8.5c7.1-0.3,13.9-0.6,20.5-1c-0.4-0.5-0.7-0.9-1.1-1.4c5.1-2.4,10.8-4,15.1-7.4c5-4.1,9.2-9.5,12.8-15
		c2.3-3.5,2.9-8.2,4.2-12.2c15.9,2.3,23.2-4.3,18.7-16.7c11.5-4.7,13.7-11.7,9.7-24.8c-0.6-2,5.7-6,9.1-9.3
		c-1.6-1.4-4.7-3.9-7.5-6.3c3-2.7,5.5-5,9.7-8.9c2.8,3.7,5.4,7.3,7.9,10.7c10-2.1,18.4-16.1,29.3-4.6c2.8,2.9,10.5,10.7-0.7,15.3
		c1.9,3.5,3.8,7.1,7.6,14.1l0.2-14.5c5.3-0.3,10.6-0.6,17.3-1c0.4,0.7,1.7,3.1,3.1,5.6c3.5-1,6.9-2,10.4-2.9
		c0.4,0.7,0.7,1.3,1.1,1.9c-3.6,3.2-7.3,6.4-12.3,10.8c-2.2-1.3-6-3.5-9.1-5.4c2.5,4.9,6.6,10.3,8,16.4c1.2,5.2-0.7,11.2-1,16.9
		c-0.4,6.9-5.1,14.7,4.1,19.8c1.4,0.7,1.3,3.7,2.3,5.4c3.6,6.4,7.3,12.7,11.3,19.6c-5.9,2.7-16.8,5.3-6.4,18.3
		c1.9,2.4-1.3,9-2.2,13.7c-1.2,5.8-2.6,11.5-3.8,17.3c1.4,0.8,2.8,1.6,4.2,2.3c-8.5,4.2-16.9,8.4-25.7,12.8
		c-3-5.1-6.8-13.7-12.5-20.7c-3-3.7-9.5-4.3-14-6.8c-7.8-4.4-15.1-9.8-23.1-13.7c-2.7-1.3-7,0.5-13.8,1.2
		c-1.7-5.4-4.4-14.2-7.6-24.2c-0.8,6.7-1.5,12.5-2.2,18.3c-6.1,0.4-11.8-0.4-16.4,1.4c-12.8,5-16.3,13.3-12.4,26.6
		c2.8,9.4,3.6,18.1-9.7,21.5c2.2,2.6,4.1,4.9,5.3,6.3c-7.2,15.6-22.4,25.6-25.5,44.3c-6.6,6.6-14.5,14.6-22.6,22.8
		c2.7,2,6.2,4.5,10.7,7.9c-6.6,3.9-13.6,5.9-15.9,10.4c-1.7,3.1,3.1,9.7,5.1,14.7l-9.6-0.1c-12.4,37.8-27.2,74-33.2,113.8
		c7.4,5.4,7,16.9-1.4,25.1c-5.9,5.9-11,13.3-14.4,20.9c-5.2,11.3-16.5,12-24.5,12.3c-10.7,0.4-19.4,4.6-27.9,8.6
		c-22,10.2-45.3,11.1-68.7,12.8c-3.5,0.2-7.4,1.3-10.2,3.4c-10,7.4-20.2,1.1-28.8-1.3c-9.7-2.7-14.4-0.7-18.1,7
		c-1.9-3.7-3.6-7.1-6.6-12.9c-1.6,4.4-2.3,6.3-3,8.3c-17.5-7-35.3-5.7-40.2,3.8c-2.2-3.7-4.2-7-6.7-11.4c-2.9,7.5-5.5,13.8-7.7,20.1
		c-1.7,4.8-3,9.7-4.1,13.4c-3.7-1.2-7.7-2.5-11.7-3.8c-0.1,4.3-1.3,9,0,12.8c2.4,7,6.2,13.5,9,19.4c-4.6,2.9-7.7,4.8-10.8,6.8
		c3.1,4.4,6.1,8.8,9.7,14c-1.2,3.6-3,9.2-4.1,12.5c-6.3-4.4-12.3-8.6-19.9-13.9c-1.8,13.2-4.1,24.2-4.3,35.4
		c-0.1,3.8,5.6,7.4,7.8,11.6c3.4,6.7,8.4,12.7,8.4,21.2c0,2.4,7.1,4.7,12.2,7.8l-0.2,11.7c2.5-2,4.3-3.5,6.9-5.6
		c10.2,18.7,30.1,20.2,47.2,26.7c13.6,5.2,27.6,9.7,41.8,12c7.5,1.2,15.9-3.1,23.9-4.9c0-1.2,0-2.4,0.1-3.7c1.3,1.8,2.6,3.6,4.6,6.5
		c2.2-3.9,4.2-7.2,6.4-11c11.9-0.7,24.7-1.3,37.5-2.4c0.6-0.1,1-4.2,1.4-6.1c18.4,6.1,40.7,4.7,52.4,28c-9.2,1.3-17.8,2.5-29.7,4.1
		c5.4,3.1,7.8,4.4,11.5,6.5c-5.3,2.1-9.5,3.8-14.2,5.7c3.8,2,7.2,3.8,10.7,5.5c-21-4-24,15.8-33,25.7c-5,5.5-9.4,5.8-13.1,3.3
		c-8.7-5.9-15-2.9-21.4,3.2c-7.3-2.1-14.2-14.6-22.3-0.9c-0.4,0.8-6.9-3-10.4-2.9c-13,0.6-26.1,2.1-39.1,2.9c-2.8,0.1-5.7-1.2-8.7-2
		c0-0.1-1.4,2.5-3.5,6.2c-4-6.2-7.1-10.9-10.9-16.9c-1.9,3.8-3.2,6.5-4.2,8.5c-3.6-2.2-7.6-4.5-11.5-6.9c-1.7,3.2-3.5,6.3-6,11
		c-3.4-0.4-7.9-1-12.4-1.5c-0.1-0.9-0.2-1.8-0.2-2.6c2.5-0.7,5.1-1.4,7.7-2.1c-10.2-16.9-21.1-20-35.9-8.6c4.7,2.5,8.7,4.6,13.2,6.9
		c-2.2,4-4.3,8-6.6,12.4c-5.2-15.3-11.9-18.7-26.8-15.5c-3.3,0.7-7.3-1.9-11.4-3.1c4.3,7.9,8.8,16.1,13.2,24.2c-0.7,0.7-1.4,1.4-2,2
		c-5.8-3.8-11.5-7.7-18.1-12.1c-2.1,3.9-3.5,6.7-5.4,10.3c3.7,0.9,6.9,1.6,10.8,2.5c-2.5,4.3-4.6,8.1-6.8,11.9
		c-11.4-4.8-19.4,3.1-18.5,17c0.5,8.2-0.8,16.7-2.5,24.9c-2.1,10.6-4.9,21.1-8.3,31.3c-1.9,6-5.5,11.5-8.3,17.1
		c2.8,10.1,4.7,23.1,10.2,34.4c4.4,9,1.8,10.1-5.2,14.7c-8.6,5.7-2.9,13.5,3.2,19.2c-5.2,5.4-8.8,10.7-5.1,18.3
		c-2.2,0.5-4.4,0.9-3.9,0.8c8.5,6.8,18.1,14.6,27.8,22.4c-0.7,1-1.4,2-2.1,2.9c-10.1-4-20.3-8-30.4-11.9c-0.7,1.2-1.4,2.4-2.2,3.5
		c6.2,4.2,12.4,8.4,21.8,14.8c-9.2,0.6-14.9,1-20.7,1.3c-0.7,1-1.3,2-1.9,3.1c9.8,5.1,19.5,10.3,31.2,16.5
		c-15.3,1-29.1,1.8-42.9,2.7c-0.4,1-0.8,2.1-1.2,3.1c4.4,4,8.8,7.9,14.3,12.9c-4.2,1.4-7.2,2.4-11.1,3.7c1.3,3.4,2.5,6.6,4,10.3
		c-2.8,0.9-5.6,1.7-10.1,3.2c5.5,4.1,9.5,7.1,13.6,10.2c-3.5,5.2-6.8,10-10.4,15.4c4.1,2.4,7.2,4.1,12.8,7.4
		c-5.1,2-7.8,3.4-10.6,4.2c-3.2,0.9-6.6,1.3-10,1.9c1.1,3.7,2.2,7.4,4,13.8c-3.2,2.4-7.9,5.9-12.8,9.5c0.2,12.2,5.6,25.6-2.6,40.1
		c-5.1,9-4.2,21.2-6.5,31.9c-1,4.3-3.2,8.3-4.9,12.5c2,13.1,4.2,27.1,6.9,43.4c-4.9-2.5-7.5-3.9-12.2-6.3c1.7,15.5,3.2,29,4.7,41.7
		c-3.2,0.2-6.9,0.4-10.6,0.5c3.7,6.8,7.4,13.5,12.7,23.2c-1.7,1.8-6,5.4-9.1,9.8c-3.7,5.3-6.5,11.3-9.4,17.1
		c-4,8.2-7.6,16.6-11.9,24.6c-3.7,6.9-8.1,13.4-12.5,19.8c-1.5,2.3-4.1,3.8-6.2,5.6c-0.8-2.7-1.8-5.3-2.3-8c-0.4-2.4-0.2-4.8-0.5-10
		c-29.6,10-58.8,7.7-88.1,1.2c-3.6-2.6-3-14.5-14.3-6.3c-0.5,0.4-4.3-3.6-8-6.9l-0.5,32.4c-8.6-10.7-16.3-20.4-23.9-30.1
		c-1.3,0.8-2.6,1.6-3.9,2.3c0.1,2.1,0.2,4.1,0.3,7.2c-4.3-1.1-8.2-2.1-14.8-3.8c3.5,9.3,6.3,16.9,9.1,24.4c-0.8,0.5-1.5,0.9-2.3,1.4
		c-7-9.9-13.9-19.8-20.8-29.6c-13.6,7.8-22.1-4.2-32.1-8.4c-6.9-2.8-10.4-3.9-14.1,3.5c-1.2,2.5-5.4,3.4-10.3,6.4
		c7,5.4,13.3,10.4,19.2,14.9c-10.8,2.2-21.6-0.1-32.4-4.8c-6.2-2.6-12.5-2.4-10.6,6.9c-13-4.2-26.2-8.5-39.2-12.8
		c-7.8,14.8-14.3,27.3-20.3,38.6c-4.6,1.8-9.1,4.3-13.9,5.1c-4.5,0.7-9.4-0.5-15.5-1c2.6-3.9,3.9-5.7,4.6-6.8
		c-4.6-2.2-10.6-3.2-12.8-6.6c-4.9-7.6-7.9-16.3-11.4-24.7c-2.4-5.9-4.6-11.8-6.8-17.8c-2.7-7.4-4.8-15.1-8.4-22.1
		c-1.7-3.2-5.9-6.8-9.2-7.1c-12.2-0.9-18-9-23.9-19.7c16.8,3.1,32.6,6,48.4,9c0.2-1,0.4-2,0.6-3c-14.6-2.7-29.1-6.1-43.8-8
		c-9.2-1.2-12.9-7.1-15.5-14.3c-0.7-1.9,1-4.7,1.8-8c-8.8-1.2-16.8-5.5-18.9-17.7c-0.7-4.2-5.8-7.4-7.7-11.6
		c-2.1-4.8-2.1-10.5-4.4-15.1c-2.1-4.1-5.8-9.6-9.4-10.2c-5.2-0.7-6.4,3-3.9,9.2c2.2,5.5,0.8,12.5,1,18.8c0.1,1,0.2,2.9,0.4,2.9
		c16.4,1.8,7.3,12.8,6.7,20.2c-0.1,2-4.9,3.6-9.3,6.6c4.1,2.7,7.2,4.7,10.6,6.9c-3.5,0.7-7.3,1.5-13.8,2.7c4.8,2.8,7.5,4.5,11.6,6.9
		c-16.4-5.7-11,8.4-13.9,13.8c-7.3,13.9-19.9,11.9-31.3,11c-3.9-0.3-8.1-7.4-10.6-12.2c-2.7-5.3-3.3-11.7-5.6-17.1
		c-1.1-2.6-4.3-4.3-7.6-7.4c12.2-20.4-4.5-37.7-8.7-57.8c-4.2,1.7-7.2,3-10.3,4.2c-0.4-0.9-0.9-1.8-1.4-2.7c3-1.7,6-3.3,12.4-6.9
		c-6.8-6.1-12.9-11.5-18.9-17c-1.5-1.4-3.7-2.7-4.1-4.4c-2.2-10.5-3.7-20.6-8.7-30.8c-4.1-8.6-6.6-21.8,7.6-30.7
		c12.1-7.7,21.7-19.9,31.2-31.2c8-9.5,14.4-20.5,21.2-30.9c0.5-0.8-0.7-2.8-0.2-1c10.3-7.2,19.2-13.4,26.4-18.4
		c1.9-8.8,3.4-16.6,5.1-25c-2.9-0.6-6.6-1.3-10.2-2c4.1-10.6,10.7-9.6,20.7-8.3c10.8,1.5,23.8,0,30.7-14.4c-5.8-1.9-12-4-18.2-6
		c0-1.2,0.1-2.4,0.1-3.6c8.4-0.2,17.6-2.6,25.1,0c11.5,4,19.6-3.2,28.9-5.7c8.6-2.3,7-11.6,7-18.8c0-5.4-0.7-11.1,7.8-9.5
		c1.8,0.3,5.4-0.8,5.5-1.5c1.1-13.5,15.4-11.5,22.2-19.4c-6.7-7.3-13.4-14.7-20.6-22.5c18.2-2.6,15.8-22.1,27.7-28.9
		c-3.7-4.7-7.5-9.2-12.2-15.1c6.8,1.3,12.4,2.3,19.7,3.7c-1.4,0.8-0.3,0.6-0.2,0c7.5-19.8,24.2-33,35.6-50c1.9-2.9,0.4-8.1,0.4-11.6
		c9.4-6.5,19.3-13.1,29-20c1.9-1.3,4.4-3.7,4.3-5.6c-0.3-23.7,20.6-31.7,33.1-45.6c1.8-2,5.2-2.5,7.5-5.6
		c-11.8,0.9-23.7,1.9-35.5,2.6c-9.8,0.6-17.4-1.5-14.4-15.5c-13.3,2.5-25.5,5-37.7,7.1c-7.5,1.3-14.2,1-14.5-9.5
		c0-1.8-1.7-3.6-2.8-5.3c-15.3-22-14.9-27.9,3.3-48.4c-33.5-11.1-67.8-20.2-97.7-42.7c2.4-3.5,4.7-7,7.1-10.6
		c-12.5-7.4-24.4-15.7-37.3-21.6c-13.9-6.4-19.1-19.7-28.3-29.9c-5.2-5.8-7.7-15.6-19.1-15.4c-7.2,0.1-20.4-21.7-19.7-30
		c-20.9-0.3-41.8-0.4-62.6-1.2c-2.8-0.1-5.5-4-8.2-6.3c-5-4.4-10.2-8.7-15-13.4c-9.8-9.4-19.4-18.9-29-28.5c-1.8-1.8-3-5.8-4.7-6
		c-15.9-1.2-19.2-14-24-25.5c-0.5-1.1-0.6-2.3-1.2-3.4c-5.2-9.3-10.5-18.5-16.5-29.1c22.7-5.1,42-9.5,55-12.4
		c-2.2-5-5.1-11.7-8.6-19.5c-7,9.5-12,10-18.7,1.2c-3.3-4.4-11.5-4.7-16.7-8.1c-14.6-9.7-31.4-17.8-42.5-30.8
		c-16.7-19.4-29.7-42.2-43.3-64.1c-6.3-10.1,1.9-29.9,13.5-31.8c6.3-1,13.6,3.5,20.3,5.7c4.4,1.4,8.7,3.1,13,4.7
		c0.7-0.8,1.3-1.7,1.9-2.5c-1.6-2.4-2.7-6-4.9-7.1c-17.9-8.9-28.8-23.6-37.3-41.5c-3.9-8.2-13.4-13.7-17.7-21.8
		c-7-13.4-14-27.5-16.9-42.1c-3.8-19-4.6-38.8-4.8-58.3c-0.1-12.4,3.2-24.8,5-37.2c0.1-0.8,0.2-1.9,0.7-2.3
		C51,824,60.3,793.3,93.1,794.2c3,0.1,6.1-3.8,9.1-5.8c5.3,2,12.6,4.8,20.1,7.6c2.7-4.8,4.5-7.9,4.8-8.5
		c11.3,7.7,22.1,15.4,33.3,22.5c8.3,5.3,15.1,10.7,14.3,22c-0.1,2.1,3.3,4.8,5.7,6.4c4.3,3,9.1,5.3,16.2,9.3
		c-8.7,3.6-16,6.2-22.8,9.7c-2.7,1.4-4.7,4.8-6.6,7.5c-3.8,5.5-7.2,11.2-10.9,16.9c1.4,1,3.3,2.4,5.7,4.2c-4,2.5-7.9,4.1-10.7,6.8
		c-2.8,2.7-4.6,6.6-6.9,9.9c4.1,1.9,8.1,4.3,12.4,5.4c2.9,0.7,6.2-0.7,10.5-0.5c-8.9,7-23.2,11.5-10,26.7c7.3-1.5,15.4-3.1,23.5-4.7
		c0.2,0.5,0.4,1.1,0.5,1.6c-4.9,3.5-9.9,6.9-15,10.4c10.5,11.6,21,18.6,38.1,12.9c-3.5,4-5.3,6.7-7.8,8.6c-2.7,2.2-6,3.7-8.7,8.2
		c4.8,0.7,9.6,1.3,14.9,2.1c-3.3,1.3-6.4,2.6-9.7,4c5.2,12.7,15.1,5,23.2,8.3c-4,0.7-8,1.5-15.2,2.9c11.1,2.7,23.5,0.6,21.2,11.7
		c12.7,7.6,23.3,13.9,35.8,21.3c3-1.5,9.1-4.4,15.1-7.2c0.7,0.8,1.3,1.7,2,2.5c-2.7,2.9-5.3,5.8-8.4,9.2
		c5.1,11.9,14.9,13.3,25.9,11.2c12.5-2.3,24.9-5.2,37.3-7.9c0.3,1.4,0.6,2.8,0.9,4.1c-6.8,1.7-13.5,3.5-20.7,5.3
		c14.7,17.8,34.2,18.3,53.2,19.2l0.7-47.2c2.6-1.7,5.4-3.7,8.7-5.9c-5-11.1-11.6-18.4-24.9-16.4c-2.6,0.4-6.7-1.5-8.4-3.7
		c-5.5-6.7-10.3-13.9-15-21.2c-2.3-3.6-34.5-37.1-37.7-37.6c-4-0.7-10.3,1.1-12-1.1c-4-5.1-6.6-11.6-8.2-18
		c-1.3-4.9,0-10.4-0.4-15.5c-0.8-11,5.9-17.1,17.2-16.8c9,0.2,18.2-2.6,27.2-2c9.4,0.6,18.7,4,28.1,5.6c9.1,1.5,18.4,2.2,28.3,3.3
		c0.5-2.4,1-5,1.5-7.4c18.7,5,38.7,7.2,55.5,15.7c13.6,6.9,26.4,7.2,40.9,8.5c-2.1,1.6-4.2,3.2-7.9,6.1l34.7,0.5
		c-6.1,2.9-10.4,4.9-16.4,7.7c7.2,2.5,13.3,6.3,19.3,6c5.3-0.2,10.3-5.1,15.4-7.9c0.7,1,1.5,1.9,2.3,2.8c-1,2.2-2,4.5-3.4,7.6
		c8.3-0.1,12.6,15.4,23.5,4.8c10.9,14.9,27.3,19.3,44,24.1c26.4,7.5,52.4,16.4,78.9,24.9c1.1-1.4,3.6-4.2,6-7.1
		c1.5,2.6,2.6,6,4.8,7.7c7.7,6.1,15.7,11.7,23.8,17.2c5.2,3.5,10.8,6.6,16.5,9.3c7.9,3.8,15,8.2,25.3,6.7c6.9-1,14.8,5.1,23.6,8.5
		c0.9-3,2.6-8.5,4.1-13.6c0.3,8,0.2,16.7,1.4,25.3c0.5,4,4,7.6,5.4,11.6c2.5,7.5,4.8,15,6.4,22.7c0.9,4.3,0.1,9,0,10.4
		c4.3,6.3,7.3,10.6,11.3,16.3c1.1-0.3,5.2-1.4,9.2-2.5c0.3,0.5,0.7,1.1,1,1.6c-3.2,2.8-6.3,5.7-10.4,9.3c3.4-0.6,6.1-1,8.7-1.4
		c4.7,7.5-6.4,18.8,6.2,23.9L798.4,1120.5z M656.1,1446.1c-1.4,0.7-2.8,1.4-4.2,2.1c5.9,9.5-1,18-6.2,21.8
		c-13.7,9.9-29.7,16.6-44.2,25.5c-13.6,8.4-26.5,18-41.8,28.6c17.7,4.5,76.7-21.4,76.4-28.2c6.7-2.5,12.8-4,17.9-6.9
		c4-2.3,9.1-6.1,9.7-10c0.5-3-5.2-7-8.2-10.6c1.4-0.6,3.9-2.7,6.3-2.6c12.1,0.5,22.9-2.7,30.7-12.2c8.2-10,14.8-21.5,23.3-31.2
		c11.8-13.2,18.9-30.4,35.8-39.2c6.2-3.2,3.9-10.8-3-13.8c-3.5-1.5-6.4-4.3-10.7-7.4c-3.6,5.6-8.3,12.8-12.8,19.8
		c3.7,1.8,5.8,2.9,10.8,5.5c-11.4,3.3-21.6-10.5-29,3.2c4.8,2.5,9.6,4.9,16.4,8.4c-4.3,4.2-7.2,9.3-10.8,10
		c-20.5,4-37.4,14.7-54.3,26.2C652.4,1438.9,654.9,1442.2,656.1,1446.1L656.1,1446.1z M433.8,1428.7c-0.2,0.8-0.4,1.7-0.5,2.5
		c11.9,3.3,23.9,6.8,35.9,10c13.6,3.7,27.1,7.3,40.7,10.9c19.3,5.1,37.7,4.4,56.6-3.9c22.7-10.1,46.5-17.8,69.7-26.9
		c7.2-2.8,14.2-6.5,21-10.3c6.7-3.8,13-8.4,19.4-12.6c-22.4,2.8-29.1-4.9-24-27.4c2.3-10.1,3.7-20.4,5.4-30.5
		c-26.5,6-51.3,11.8-76.2,17c-4.7,1-9.8-0.8-15.7-1.4c2.5-5.3,3.7-8.1,5-10.8c-1.3,0.3-2.7,0.6-4,0.9c-2.3-5.3-6.2-10.5-6.5-15.9
		c-0.2-5,3.5-10.3,5.4-15.4c-1.5-0.5-3-1-4.6-1.6c-1.7,5.3-3,10.8-5.1,15.9c-1.3,3-3.9,5.4-5.8,8.1c-1.2-3.4-3.6-6.8-3.4-10.1
		c0.3-4.1,2.7-8.1,4.4-13.1c-11.7-1.9-22.1-3.3-32.5-5.4c-10.6-2.1-21-5.3-31.6-7.3c-9.5-1.8-19.1-3.1-28.7-3.8
		c-8.6-0.6-8.6-6.4-8-12.2c0.4-3.7,2.8-7.1,4.2-10.6c-0.8-0.7-1.5-1.3-2.2-1.9c-5.7,5.7-11.4,11.5-17.1,17.3
		c-0.8-0.7-1.7-1.5-2.5-2.2c1.7-5.2,2.3-11.3,5.3-15.5c2.8-3.9,8.3-5.9,12.7-8.8c-7-9,1.2-19.5,36.5-48.7c-2.7-0.2-5.4-1.1-6.3-0.3
		c-10,10.2-18.7,4.6-27.7-1.6c-6.4-4.4-13.2-8.2-20-11.7c-9.7-5-7.9-13.4-5.9-21.1c0.8-3.5,5-6.1,10-11.6
		c-11.7-11.2-24.1-21.3-34.2-33.3c-6.8-8.1-17.9-17.1-8.6-28.8c-7.8-9.3-15.2-18.2-23-27.4c-10.4,5.6-21.3,4.5-32.7-1.1
		c-3.7-1.8-9.5,0.5-14.4,1c-3.4,0.4-8.7,2.4-10,1c-5.5-6.5-9.4-8.5-16.7-1.7c-4.2,4-11.5,4.8-17.4,7c0.3,1.1,0.6,2.1,1,3.2
		c21,1.5,42,3,64.1,4.6c-9.6,13.7-24.6,16.7-37.2,16.2c-31-1.2-62.1-4.8-92.8-9.8c-36.6-5.9-72.9-13.8-109.1-21.9
		c-8.5-1.9-12.7-1.1-15,5.4c10.7,28.4,29.4,47.6,55.9,58.6c9.2,3.8,19.5,5.5,28.1,10.3c22.2,12.4,44.8,19.2,70.2,11.2
		c2.6-0.8,6.2,0.6,9.1,1.7c8.2,3.2,16.1,7.7,24.5,9.8c14.3,3.7,29.3,4.7,43.4,9.1c14.1,4.4,27.6,8.7,42.3,1.2
		c-1.8,2.3-3.5,4.6-4.4,5.7c2.5,2.8,4.4,6.9,7,7.6c23.6,6,47.3,11.3,70.9,17.1c3.3,0.8,6.5,2.9,9.2,5.1c0.7,0.5-0.1,4.8-1.2,5.3
		c-8.3,3.8-17.1,10.6-25,9.7c-26-2.7-51.7-8.3-77.5-12.8c-8.2-1.4-18.4-0.1-24.3-4.6c-12.1-9.2-25.3-8.9-38-7.6
		c-26.5,2.5-52.9,6.8-79.1,11.7c-7.5,1.4-16,6-20.7,11.8c-4.9,6,2,11.4,7.2,15.5c1.6,1.2,2.1,3.7,3.5,5.1
		c11.4,11.1,22.2,22.5,39.2,25.6c13.5,2.4,28,4.9,39.4,11.9c21.6,13.1,44.3,8.9,66.5,8.1c21.5-0.8,42.9-5.5,64.3-8.8
		c10.2-1.6,14.9,4,18.8,13.7c-8,2.4-15.4,4.6-23.2,6.9c2,2.9,3.4,4.7,4.7,6.6c-13.1-9.8-23.8,2.4-35.3,2.9
		c-12.7,0.5-25.3,2.7-37.9,4.2c-0.5,1.2-1,2.5-1.6,3.8c9.3,5,18.1,11.8,28,14.7c14.9,4.4,30.4,6.9,45.9,8.6
		c10.6,1.1,21.5-0.3,32.3-0.8c17.7-0.9,35.3-2.4,53-3.1c9.6-0.4,19.2,0.2,31.2,0.3c-6.6,10.3-8.4,19.1-19.3,24
		c-13.8,6.2-27.5,8.4-42.2,8.1c-7.5-0.1-16.9,0.2-22.1,4.5c-8.6,7-16,5.9-24.6,2.6c-5.3-2-10.7-4-16.2-5.7
		c-5.3-1.6-10.8-2.9-16.1-4.4c16.6,11.3,34.1,19.5,54.2,20.1c12.5,0.3,25,0.4,37.5,1.1c7.4,0.4,14.9,2.5,22.3,2.2
		c22.5-1.1,44.9-3.2,67.3-4.3c4.4-0.2,8.9,1.9,14.6,3.3c-11.5,15.6-24.3,21.8-40.3,21.8c-5.6,0-11.3,1.1-16.9,1
		c-18.9-0.1-37.9-0.3-56.9-0.8c-6.9-0.2-14.9-6.3-19.1,5C440.2,1428.6,436.2,1428.4,433.8,1428.7 M1044.5,1133.5
		c-7.3-1.2-11.5-1.9-17-2.8c2.3,3.1,3.7,5.1,5.2,7.2c-14.1,1.4-27.2,3.9-40.1,3.7c-7.6-0.1-10.6,1.5-9.5,8.4
		c1.8,11.4,4.5,22.6,6.9,34.5c3.6,1.7,10.2,2.7,13.3,6.6c3.8,4.7,9.8,4.3,11.9,6.2c7.9,7.1,25.2-5.9,25.5,13.7
		c5.3-2.4,7.4-17.8,14.9-2.6c1.4,2.9,11.3,2,17.3,2.1c5.6,0,11.1-1.2,16.7-1.4c3.7-0.2,8.1,1.7,11,0.3c2.5-1.3,3.5-5.9,5.4-9.6
		c3.8,5.5,7.7,11.2,11.6,17c4.5-6.3,10-14.1,15.5-22.1c0.2,4,0.4,8.2,0.8,13.9l67.4,1c-3.1-5.9-5.3-10-8-15.2
		c3.1-0.9,8.1-1.4,12.1-3.7c3.4-2,6.9-5.8,7.7-9.3c1.8-7.9,1.6-16.2,2.9-24.3c0.8-4.9,1.7-10.4,4.4-14.4c10.7-16,14.1-34,15.5-52.3
		c3.2-1.3,8.5-1.9,9.2-4.1c4.2-12.2,11.5-20.5,24.2-25.1c-2.3-0.7-4.6-1.3-7.3-2.1c1.8-8.2,3.5-16.4,5.3-24.6
		c-6.8-4.3-17-5.9-13.3-18.2c0.2-0.9-3.5-4.4-4.6-4c-11,3.1-21.9,7.1-32.9,10c-6.6,1.7-13.6,1.9-19.9,2.7
		c-8.2,13.2-33,5.6-36.1,23.2c-4.4-0.8-9.8-2.7-10.5-1.7c-2.2,3.5-2.8,8.2-4.5,14.1c-12-13.5-13.4,0-18.1,4.1
		c-7-8-10.2-7.7-18.5-1.5c-2.9,2.1-7.7,1.6-11.7,2.2c-2.5,0.4-5.5,0-7.3,1.4c-7.4,5.4-15.3,10.6-21.4,17.4
		c-11.4,12.9-26.4,25-17.4,46.1c0.6,1.4-0.8,3.6-2.2,9C1045.6,1135,1044,1132.9,1044.5,1133.5 M300.8,1070.5
		c-4.9-1.4-7.7-3.3-9.4-2.6c-7.2,2.8-10.4-1.9-15.3-5.7c-6.7-5.1-17.7-13.2-22.2-10.9c-14.3,7.4-22.2-2.7-30.7-8.4
		c-13.3-8.9-24-21.9-37.5-30.4c-21.2-13.5-32.9-34.8-48.1-53.3c-3.7-4.5-4.7-11.2-7.2-16.7c-6.6-15-14.6-29.6-19.6-45.2
		c-4.9-15.3-0.4-24.1,13.7-32c10.8-6,22.3-10.6,33.5-15.8c0.5-1.3,1.1-2.5,1.6-3.8c-15.5-8.9-30.8-18.1-46.5-26.6
		c-11.4-6.2-22.2-3.8-32.6,3.7c-8.6,6.2-17.9,11.7-28.3,18.3c11.4,11.9,1.8,23-4.2,34.6c-0.9,1.7-1.1,4-0.8,5.9
		c2.3,14.8,1.7,31.1,7.8,44.1c13,27.8,19,59.4,39.6,83.1c10,11.4,22.4,22.2,35.9,28.3c22.5,10,46.7,15.8,70.1,23.8
		c12.1,4.1,23.7,10.6,36,13.4C256.9,1078.9,277.6,1081.2,300.8,1070.5 M552.7,1168.8c-16.7-4.9-35.8-0.1-52.1-11.3
		c-7.3-5-16.2-16.2-14.1-25c1.2-5.4,3-10.8,5.3-18.9c-13.4,9.7-21.1,2.7-28.9-5.1c-1.4-1.4-5.2-1.9-6.9-0.9c-2.1,1.1-3,4.3-4.6,6.8
		c3.6,1.8,6.4,3.2,9.9,4.9c-1.4,4.1-2.3,11-4,11.2c-8,1.1-16.2,0.3-26.9,0.1c8.1,7.4,16.2,13.2,22.2,20.7
		c5.8,7.3,9.6,16.3,14.2,24.5c-11.4-9.6-11.4-9.6-18.6,5.6c4.5,2.2,8.8,4.8,13.5,6.4c9.8,3.4,19.8,6.2,29.7,9.3
		c11.4,3.6,22.8,7.3,34.2,11c3.6,1.2,7.3,2.2,11.4,3.4c-12.5,8.3-22.8,14.4-32.2,21.7c-10.4,8.2-20,17.6-30.3,26.9
		c12.2,6.2,21.3,11.1,30.7,15.6c1,0.5,2.9-1.1,4.4-1c26.4,1,51.9-10.8,78.8-4.7c7,1.6,14.9-1.4,25.2-2.6c-6-6.6-10.2-11.5-14.6-16.1
		c-6.5-7-17.9-7.6-21.9-18.3c-4.3-11.4-13.4-12.5-23.9-8.5c2.5-13.6-2.8-20.6-18.5-21.4C541.4,1190.8,546.9,1180.1,552.7,1168.8
		 M501.6,1500.6c6,0.1,8.5,0.6,10.7,0.1c25.8-5.3,51.6-10.6,77.3-16.3c3.4-0.7,6.3-3.7,9.3-5.8c11.3-7.8,22.3-15.7,33.7-23.3
		c5.1-3.4,10.7-6,16.1-9.1c-3.8-2.2-6.6-2.2-9-1.1c-8.3,3.8-16.2,9.1-24.9,11.7c-24.6,7.3-49.7,13.3-74.5,20.5
		C526.8,1481.3,513.1,1485.7,501.6,1500.6 M688.6,1361.4c15.6-5.6,31.6-10.8,47.3-17c5.5-2.2,8-7.1,2-12.3c-5-4.2-9.9-8.4-14.7-12.6
		C689.1,1332.9,679.6,1343.8,688.6,1361.4 M653.6,1292c3.8-2.2,6.8-4,9.8-5.8c-0.6-1-1.2-2-1.9-3c-7.8,6.6-22.9-7.3-25.6,11
		c-15.1-5.9-23.9,3.8-35.2,11.1c4.7,2.3,7.7,4.4,11.1,5.4c7.7,2.2,15.8,5.8,23.3,5.1c6.3-0.6,16.3,2.3,19-8.4
		c1-3.7,2.5-7.3,4.1-12.1C658,1295.1,656,1293.7,653.6,1292 M871.4,1084.8c-3.6,15.6-7.3,31.6-11.4,49.1
		c14.7-3.2,19.5-12.5,22.2-23.5c0.8-3.3,2.1-7.7,0.7-10.3C880.2,1095,875.8,1090.5,871.4,1084.8 M398.9,1071.6
		c10.1,10.4,13.6,25.8,27.6,23.6c1.3-6.6,2.4-11.5,3.3-16.4c-0.5-0.2-1.1-0.5-1.6-0.7c-1.6,2.2-3.2,4.4-5.2,7.1
		c-2.9-6.7-5.3-12.3-8.1-18.9C410,1068,405.2,1069.5,398.9,1071.6 M410.5,1062.4c-5.7-13.8-13.8-20-21.8-16.4
		c-1.7,0.8-3.3,5.6-2.5,7.8C389.7,1064.2,397,1066.8,410.5,1062.4 M624.4,1231.6c0-0.5-0.1-1-0.1-1.4c-4.3,0.1-8.6,0.3-12.8,0.4
		c-2.6,0-6.9,0.8-7.7-0.5c-8.6-13.8-13-4.8-17.8,2.9c3.6,2.1,7.4,6.5,10.6,6.1C606,1237.6,615.1,1234.2,624.4,1231.6 M662.2,1246.1
		c-1.3,2.4-2.6,4.8-3.9,7.3c4.8,2.9,9.4,6.1,14.5,8.2c0.6,0.3,3.7-5.5,5.6-8.5C673,1250.8,667.6,1248.5,662.2,1246.1 M776.2,1358.9
		c-0.7-0.7-1.4-1.5-2.1-2.2c-5.9,3.3-11.9,6.5-16.5,9c2.4,5.9,3.8,9.3,6.1,14.9C768.3,1372.8,772.2,1365.9,776.2,1358.9
		 M492.3,2147.4c-1.1,0.4-2.2,0.8-3.2,1.3c2,3.3,3.6,9.1,6.1,9.5c7.9,1.3,16.2,0.7,26.6,0.8C510.3,2154.5,501.3,2151,492.3,2147.4"
		/>
</g>
</svg>
