<svg xmlns="http://www.w3.org/2000/svg" width="205.3" height="23.8" xmlns:v="https://vecta.io/nano"><path d="M51.6 17c-.3 0-.1-.1.6-.2.6-.1.9 0 .6.1-.4 0-.9.1-1.2.1m15.8 1.5c-1.4-.1-1.4-.1-.7-.3 1.2-.4 1.7-.4 3-.3.6.1 1.1.2 1.1.3.1.2-1.4.3-3.4.3m8.2-.3c-3.2.3-3.9.3-3.9 0 0-.2.1-.5.3-.6.4-.3 4.3-.5 5.9-.2.7.1 1.3.3 1.4.4.1 0-1.6.2-3.7.4m1.7 1c-1 .1-1.5 0-1.4-.2.1-.4 2.2-.5 2.6-.2.2.3-.1.4-1.2.4m2.2-6c-.1-.1 0-.2.1-.2s.2.1.2.2c-.1.1-.2.1-.3 0m2 4.5l1.6-.3c.9-.2 1.6-.4 1.8-.5s1.1-.1 2.4.2l.7.1-.7.5c-.5.4-.8.4-1.2.2-.3-.2-1-.2-2 .1-1.3.4-1.6.4-2.1 0l-.5-.3zm4.2-4.5c.8-.1 1.3 0 1.3.2 0 .5-.5.6-1.6.3l-1.1-.3 1.4-.2m10.3-.3l.7-.2c1-.3 3.8-.5 4.3-.3.3.1.1.3-.9.5-1.6.3-2.2.4-3.3.1l-.8-.1zm25.6-1.6c-.7-.3-.3-.6.6-.7.9 0 1 0 .6.4-.3.5-.6.6-1.2.3M180.7 8c-.1-.1 0-.2.1-.2s.2.1.2.2c-.1.1-.2.1-.3 0M0 18.3c-.1.6 0 1.1 0 1.7.1.5.3 1.2.4 1.4.1.3.3.5.4.8.1.1.2.2.2.4 0 .1.1.1.1.1l.1.1.3.3.3.3c.1.1.1.1.2.1.1.1.2.1.4.2s.3.1.5.2h.3.3c.2 0 .3-.1.5-.2.6-.3.9-.7 1.2-1s.5-.7.6-1c.1-.2.2-.4.2-.6.2.1.5.2.8.4.2 0 .6.2 1.2.3.3 0 .6.1 1 .1h.6.8.5c1.3-.2 2.4-.2 2.7-.1s1.2 0 2-.3c1.1-.3 2.1-.4 3.6-.3l2.3.1c.1 0 1.5-.2 3.1-.5 1.9-.3 3.1-.4 3.3-.2.6.4 8.4.4 13 0 2.3-.2 4.7-.2 5.5-.2 1.5.2 7.1.1 10.7-.3 1.3-.1 3.5-.3 5-.2H67h4.1 1.2c0-.1.1-.1.2-.2l7-.7s0-.1.2-.2c.2-.2.6-.1 1.1.1l1.9-.2c.3 0 .3.5 0 .5l-.6.1c1.7.4 3.6.4 5.4-.1 2.3-.5 3.5-.6 6-.3 1.9.2 4.5-.2 4.3-.6 0-.2-.7-.5-1.4-.7-1-.3-1.4-.3-1.8-.1-.3.2-.6.2-.7.1s-1.4-.2-2.8-.2-2.6 0-2.7-.1c-.3-.3.4-.7.9-.6.4.1.5 0 .3-.2-.1-.2 0-.3.3-.3s.4.1.3.3.4.3 1.2.2c.7 0 1.7 0 2.2.2.8.2 1.2.2 2.1-.2 1.2-.5 1.9-.5 2.2-.1.4.4 1.5.2 1.7-.3.1-.4.1-.4.5 0 .3.4.9.4 3.2.3 1.5-.1 2.8-.3 2.9-.3.1-.1 0-.4-.2-.7-.2-.5-.2-.6.1-.9.2-.2.8-.5 1.3-.6.8-.2 1-.2 1.3.4.2.3.4.7.3.8-.1.3.8.8 1.2.6.2-.1 1.2-.1 2.2 0s2 .1 2.2 0c.6-.3 0-.7-1.3-.9l-1.1-.1.5-.8c.4-.5.7-.8.9-.6.2.1 1.4.2 2.7.3 1.3 0 2.4.1 2.5.1s.2.1.2.3c0 .4-1.2 1.2-1.9 1.2-.8-.1-1 .5-.2.7s5.7-.8 5.6-1.1c0-.1-.4-.3-.7-.4-1-.2-.3-.8 1.3-1.2 1.5-.3 4.9-.5 5.3-.2.1.1.2.3.2.6 0 .4-.2.6-1 .8-1.7.4-.9.9 1.5.9 2.1.1 3.9-.3 4.1-.9.1-.2-.5-.2-1.7-.1-1.9.2-2.4.1-2.4-.6 0-.4.3-.4 2-.5 1.1 0 2.2-.1 2.5-.2 1.2-.1 2.7 0 2.8.3.1.4.7.4.7 0 0-.2.4-.3 1.4-.3.8.1 1.5 0 1.6-.1.2-.3 4.4-.4 5-.1.5.2.7.2 1.2-.2.4-.4.8-.4 2.1-.3 1.4.1 1.6.1 1.8-.3s.3-.5.9-.2c.5.2.8.2 1.3-.2.6-.4.9-.5 2.5-.3 1.3.1 2 .3 2.3.7.4.5.4.5 0 .9-.2.3-.6.4-.9.3a4.3 4.3 0 0 0-1.2-.2c-.6-.1-.6-.1-.2.3.3.3.9.4 2.5.2l2-.2-.7-.6c-.4-.4-.6-.7-.4-.8.1-.1.2-.3.2-.5 0-.5.1-.5.6-.1.3.2.5.2.9-.1s4.4-.8 8.3-1.1 7.8-.4 7.8-.2c0 .1-.3.3-.7.4l-.7.1.6.2c.5.2.8.2 1.3-.1s2.2-.4 6.7-.8l6.3-.5c.1.1.7 0 1.4-.1.9-.2 1.4-.2 2.3.2.8.3 1.5.4 2.3.2.9-.2 1.2-.2 1.4.1.1.2.2.5.1.5 0 .1-1.1.4-2.4.7-1.7.4-2.3.6-2.3.8s-.3.4-.8.6c-.9.3-1.7.1-1.5-.4.1-.2-.2-.2-.5-.2-.4.1-.6.3-.6.7 0 .6-.1.6-1.2.6-1.5 0-5.9.5-8.5 1.1-1.4.3-3.1.5-4.9.4-1.5-.1-3.4 0-4.2.1-2.2.3-3.6.4-4.2.1-.4-.1-1.9 0-5 .4-.2 0-1.8.1-3.6.2-1.7.1-3.3.2-3.4.3-.4.2-.3.6.1.8.3.1 3.7.1 7.5-.1 3.6-.1 7.5-.3 8.6-.4l2.2-.2h5.8c3 0 7.4-.3 9.6-.6 1.9-.3 3.2-.4 4.7-.6 1.5-.1 3.1-.2 5.7-.5 2.8-.3 4.4-1.2 5.6-3.3.8-1.2.9-1.7.7-3 0-.9-.1-2.1 0-2.7.1-1.3-.1-2-.6-2.3-.2-.1-.3-.3-.2-.7s0-.6-.7-1.1c-1.1-.8-1.3-.9-1.6-.6-.1.1-.4.3-.5.3-1.1.2-3.6.9-6.8 1.5s-7.1 1.1-11 1.4l-10.8.8c-3 .2-5.3.4-5.9.6-.3.1-1.9.1-3.6 0-1.7 0-6.7.3-11.1.6l-4.1.3c-.7.3-1.5.5-2.5.5h-2.9c-3.1.4-14.8.7-15.5.5-.8-.1-2.5-.2-4.1-.1l-8.1.6h-.6c-.1 0-1.5-.1-2.9-.1-1.5-.1-3.9 0-5.4.1s-3.1.2-3.5.3c-.4 0-3.1 0-6 .1-2.9 0-5.5.1-5.9.2s-.6.1-.6-.1c0-.5-1.4-.6-2-.1-.5.4-.7.4-1.7.1-1.1-.3-1.2-.3-1.9.2-.6.5-.8.5-1.2.3-.2-.2-.8-.3-1.2-.2-.5 0-1.1 0-1.4-.2-.3-.1-1.5-.1-2.7-.1-3.7.3-4.2.3-4.5 0s-1.6 0-2.5.5c-.4.2-.9.2-1.9 0s-2.3-.3-5.4 0c-2.2.2-4.6.3-5.3.2-.8-.1-3.2 0-5.4.1-1.9.1-3.8.1-4.6.1 0 .1 0 .3-.2.3-2.7-.3-5.4-.9-8.2-1l-.5.2c-1.3.5-2.8.5-7.7.3-1.2-.1-6.8 0-12.4.4l-4.4.3c-1.4.1-2.9.2-4.3.4h0 0-.2l-.5.6c-.3.3-1.1.9-2 1.3-.8.3-1.3.5-2 .9-.2.1-.4.2-.7.4-.1.1-.3.2-.7.3-.1 0-.2.1-.3.1-.1.1-.3.1-.4.2l-.2.1-.3.2c-.1.1-.3.2-.4.3l-.2.2-.3.1c-.3.2-.5.5-.8.8-.2.3-.4.5-.7 1.2-.2.6-.4 1.3-.5 1.9" fill="#e73b32"/></svg>