<svg xmlns="http://www.w3.org/2000/svg" xmlns:xlink="http://www.w3.org/1999/xlink" width="309" height="100.6" xmlns:v="https://vecta.io/nano"><style><![CDATA[.J{fill:#6a3f24}.K{clip-path:url(#H)}.L{clip-path:url(#D)}]]></style><defs><path id="A" d="M0 0h309v100.6H0z"/><path id="B" d="M69.6 71h6.7v1.6h-5v3.6h4.9v1.6h-4.9v3.7h5.2V83h-6.9z"/><path id="C" d="M148.1 78l-1.9-4.4-1.8 4.4h3.7zm-2.5-7h1.2l5.3 12.1h-1.7l-1.6-3.6h-5.1l-1.5 3.6h-1.7l5.1-12.1z"/></defs><clipPath id="D"><use xlink:href="#A"/></clipPath><g fill="#ff4438"><path d="M295.7 96.6c5.1-1.1-3.9-.1-6.3-.1l-68.2-.6-150.7-1c-20.7-.3-45 .2-64.2-3.1.9-1.4.7-.2 1.5.2" class="L"/><path d="M42.3 95.2c.1.1.3.1.4 0s0-.1-.2-.1-.3 0-.2.1m84.3-.2c.6.3 1.1.4 1.8.2 1-.2.5-.5-.9-.5-1.4.1-1.5.1-.9.3m33.1.5c2.4.2 3.1.2 4.7 0l1.2-.1-1.1-.1c-1.5-.2-5.5-.2-6.3 0-.3 0 .1.1 1.5.2m17.6 2.6l1 .3c.7.2 1.2.3 1.7.1s1.4-.1 2.9 0c1.9.2 2.3.2 3-.1l.8-.3-2.3-.2-2.6-.3c-.3-.1-1.6 0-3.5.2l-1 .3zm1.3-2.8c0 .4.8.4 2.3.1l1.5-.3h-1.9c-1.1 0-1.9.1-1.9.2m10.5-.4c.1.1.3.1.4 0s0-.1-.2-.1-.3 0-.2.1m.8 3.2c-.1.1 2.3.2 5.4.2 4.6.1 5.6.1 5.6-.2 0-.2-.1-.4-.4-.4-.6-.2-6.2-.2-8.6.1-.9 0-1.9.2-2 .3m5 .8c-.2-.3-3.2-.3-3.8 0-.3.1.2.2 1.7.2 1.4 0 2.2-.1 2.1-.2m7.2-.9c0 .2 2.1.2 5 .1 2-.1 2.1-.1.9-.3-1.7-.2-2.5-.2-4.3-.1-.8.1-1.6.3-1.6.3m26.2-1.6c.5 0 1.2.1 1.7 0 .5 0 .1-.1-.8-.1l-.9.1m-115.4-4.1c0 .2 5.1.1 7-.1 1.1-.1 3.7-.2 6-.2 3.9.1 10.8.1 11.8.1h.9c.2 0 2.1-.1 4.2-.2s5.6-.2 7.8-.2 4.5 0 5 .1c.6 0 4.5-.1 8.6-.2l8.5-.1c.5.1.9 0 .9-.1 0-.4 2-.5 2.9-.2.7.2 1 .2 2.5 0s1.7-.2 2.8.1c.9.3 1.2.3 1.7.1.3-.1 1.1-.2 1.8-.2s1.6-.1 2-.2 2.2-.2 3.9-.1c5.4 0 6.2 0 6.5-.2.4-.2 2.3-.1 3.6.3.6.1 1.3.1 2.8-.1s3.3-.3 7.8-.2c3.2.1 6.7 0 7.8 0 1.1-.1 4.6-.1 7.9-.2 2.8 0 5.4-.1 6.6-.1 0 .1.1.2.3.2 3.9-.3 7.9-.8 11.8-1.1l1.7.3c1.9.3 4.1.3 11.1-.1 1.8-.1 9.9-.2 18.1-.2h6.4c2.1 0 4.2 0 6.3.1h0 0 .3l.7.4c.4.2 1.7.6 3 .9 1.2.2 1.9.3 2.8.6.2.1.5.1 1 .2.2.1.5.1 1 .2.1 0 .3.1.4.1.2 0 .4.1.6.1l.3.1.5.1c.2.1.4.1.6.2l.3.1.4.1c.4.2.8.4 1.1.6a5.77 5.77 0 0 1 1 .8c.4.4.6.9.8 1.3.1.4.1.8 0 1.2s-.4.9-.5 1l-.6.6-.3.3-.1.1-.1.1a.76.76 0 0 1-.4.2c-.1.1-.3.1-.4.2-.1 0-.2.1-.3.1-.2.1-.3.1-.5.2s-.5.1-.7.1h-.5-.4c-.2 0-.5-.1-.7-.1-.8-.2-1.3-.5-1.7-.7s-.7-.5-.9-.7c-.4-.4-.5-.8-.4-1.1.1-.1.1-.6-.1-.9-.1-.2-.1-.4-.2-.5.1 0-.3-.3.4.3.2.2.5.3.6.4.1 0 .2.1.2 0 0 0-.1 0-.1.1-.1.1-.2.3-.3.7 0 .1 0 .2-.1.3v.1c-.1 0-.2.1-.4.1-.3.1-.7.2-1.1.3-.5.1-1.1.2-1.9.3-.4 0-.9.1-1.4.1h-.9-1.2-.8c-1.9-.1-3.5 0-3.9 0-.4.1-1.7 0-2.9-.1-1.6-.2-3-.2-5.2-.1l-3.3.2c-.2 0-2.2-.1-4.5-.2-2.8-.1-4.4-.1-4.8 0-.9.3-12.2.6-18.9.5l-8 .1c-2.2.2-10.3.3-15.5.2-1.8-.1-5.1 0-7.3 0-2.2.1-5.4.2-7.1.2s-4.3.1-5.9.2l-1.8.1c0-.1-.1-.1-.2-.1-3.4 0-6.8-.2-10.2-.3 0 0-.1-.1-.2-.1-.3-.1-.9-.1-1.6.1h-2.8c-.4 0-.4.4 0 .4h.9a40.27 40.27 0 0 1-7.8.2c-3.3-.3-5.1-.3-8.8 0-2.8.2-6.5.1-6.3-.3.1-.1.9-.4 2-.6 1.4-.3 2-.3 2.5-.1.4.1.8.1 1.1 0 .2-.1 2-.2 4.1-.3 2 0 3.8-.1 3.9-.2.4-.2-.6-.5-1.4-.4-.5.1-.7 0-.5-.1s0-.2-.4-.2-.6.1-.5.2-.5.2-1.7.2a28.8 28.8 0 0 0-3.2.2c-1.1.2-1.8.2-3.1 0-1.8-.3-2.8-.3-3.3 0s-2.2.2-2.4-.1-.2-.3-.8 0c-.5.3-1.3.3-4.6.3-2.2 0-4.1-.1-4.2-.1-.1-.1 0-.3.2-.5.3-.4.3-.5-.1-.7-.3-.1-1.1-.3-1.9-.4-1.2-.1-1.4-.1-1.9.3-.3.3-.5.5-.4.6.2.2-1.1.6-1.7.5-.3-.1-1.7 0-3.2.1-1.4.1-2.9.1-3.1.1-.8-.2 0-.5 1.8-.7l1.7-.1-.8-.6c-.6-.4-1-.5-1.3-.4s-2.1.2-3.9.3c-1.9.1-3.5.1-3.6.2-.1 0-.2.1-.2.2 0 .3 1.8.8 2.8.7 1.2-.1 1.4.3.3.5-1.2.2-8.3-.3-8.2-.6.1-.1.5-.2.9-.3 1.5-.2.5-.6-1.9-.8-2.1-.2-7.1-.1-7.7.1-.1.1-.3.3-.3.5 0 .3.3.4 1.5.5 2.4.2 1.3.6-2.2.7-3 .1-5.7-.1-6-.5-.1-.1.8-.2 2.5-.1 2.8.1 3.5 0 3.5-.5 0-.3-.5-.3-3-.3h-3.6c-1.8 0-4 .1-4.1.3-.2.3-1 .3-1 0 0-.2-.6-.2-2.1-.1-1.2.1-2.2.1-2.3 0-.3-.2-6.3-.1-7.3.1-.7.2-1.1.1-1.7-.1-.6-.3-1.2-.3-3.1-.1-2 .2-2.3.1-2.6-.2s-.5-.3-1.3-.1-1.1.2-1.9-.1c-.9-.3-1.3-.3-3.7-.1-1.9.1-2.8.3-3.3.6-.6.4-.6.4 0 .7.3.2.9.3 1.4.2.4-.1 1.2-.1 1.7-.2.9-.1.9-.1.3.2-.5.2-1.3.3-3.6.3l-2.9-.1 1-.5c.6-.3.9-.5.6-.6-.2 0-.3-.2-.3-.4 0-.3-.1-.3-.9-.1-.4.2-.8.2-1.3 0-.6-.2-6.4-.4-12.1-.4s-11.3 0-11.3.2c0 .1.4.2 1 .2h1l-.9.2c-.7.2-1.2.1-1.9 0-.7-.2-3.2-.2-9.7-.3-4.8 0-8.9-.1-9.1-.1-.2.1-1.1 0-2-.1-1.4-.1-2.1-.1-3.4.3-1.2.3-2.1.3-3.4.2s-1.8-.1-2 .1-.3.3-.2.4c0 0 1.6.3 3.5.4 2.5.2 3.4.3 3.3.5 0 .2.5.3 1.2.4 1.4.2 2.4 0 2.2-.3-.1-.1.2-.2.7-.1.6 0 .9.2.9.5.1.4.2.4 1.8.4 2.2-.1 8.5.2 12.3.5 2 .2 4.5.2 7.1.1 2.2-.1 5-.1 6.1-.1 3.1.1 5.3.1 6.1-.1.5-.1 2.8-.1 7.2.1h5.2c2.5 0 4.8 0 5 .1.6.1.5.4-.2.5-.4.1-5.4.2-10.8.2H57.2c-1.5 0-3-.1-3.2-.1s-4 .1-8.4.2-10.7.1-14-.1l-6.8-.2c-2.1 0-4.5 0-8.3-.1-4.1-.1-6.3-.7-8.2-2.1-1.1-.9-1.3-1.2-1.1-2.1.1-.6.1-1.5 0-1.9-.2-.9.1-1.4.8-1.7.3-.1.4-.2.3-.5-.2-.3 0-.4 1-.8 1.6-.6 1.9-.7 2.2-.5.2.1.6.2.8.2 1.6.1 5.2.5 9.9.8 4.6.3 10.3.5 15.9.6l15.6.1c4.4 0 7.7.1 8.6.2.4 0 2.8 0 5.2-.1 2.5-.1 9.7-.1 16.1 0h8.7l20.1.5c.4 0 .4-.4 0-.4-5.8 0-11.6-.2-17.4-.4m57 6.7c-.8.2-3.5.2-5.5 0-1.1-.1-1.8-.1-2.3.1s-2.4.3-6 .3c-3.1 0-5.6.1-5.9.3-.5.2-1.2.2-2.7 0l-2.4-.1-4.4.1-10.3.1-25.9.1c-3.8.1-4 .2-4.6.4s-.5.3.3.4c.5.1 2.3.1 4 0l12.8-.1 17.4-.2c4.3-.1 10-.2 12.7-.1l18.8-.1 13.5-.2c1.1-.3.5-.5-1.5-.5-1.1 0-2.6-.1-3.3-.1s-1.6-.1-2.1-.1-1.1-.1-1.4-.2c-.4-.1-.9-.1-1.2-.1" class="L"/></g><path d="M15.4 18.9L20 29.6h-8.7l4.1-10.7zM0 44.4h5.9l3.8-9.8h12.1l4.1 9.8h6.7L18.8 11.8l-6-.1L0 44.4zm212-14.8l4.1-10.7 4.6 10.7H212zm1.6-17.9l-12.8 32.7h5.9l3.8-9.8h12.1l4.1 9.8h6.7l-13.6-32.6-6.2-.1zM61.2 33.4L42.9 12h-4.8v32.4h6.2V23l18.3 21.4h4.7V12h-6.1z" class="J"/><defs><path id="E" d="M0 0h309v100.6H0z"/></defs><clipPath id="F"><use xlink:href="#E"/></clipPath><g class="J"><path d="M125.7 38.7c-3 0-5.4-1-7.5-3-2-2-3-4.5-3-7.4 0-3 1-5.4 3-7.5 2.1-2 4.5-3 7.5-3s5.4 1 7.4 3 3 4.5 3 7.5-1 5.4-3 7.5c-2.1 1.9-4.5 2.9-7.4 2.9m-.1-27.1c-4.6 0-8.6 1.6-11.9 4.8-3.2 3.2-4.9 7.2-4.9 11.8s1.6 8.6 4.9 11.8c3.2 3.2 7.2 4.8 11.9 4.8 4.6 0 8.7-1.6 11.9-4.8 3.3-3.2 4.9-7.2 4.9-11.8s-1.7-8.6-4.9-11.8c-3.3-3.2-7.3-4.8-11.9-4.8" clip-path="url(#F)"/><path d="M172.5 33.4L154.2 12h-4.7v32.4h6.1V23L174 44.4h4.7V12h-6.2zm16-21.4h6.1v32.4h-6.1zm73.7 21.4L243.9 12h-4.8v32.4h6.2V23l18.3 21.4h4.7V12h-6.1z"/></g><defs><path id="G" d="M0 0h309v100.6H0z"/></defs><clipPath id="H"><use xlink:href="#G"/></clipPath><path d="M292.2 38.7c-3 0-5.4-1-7.5-3-2-2-3-4.5-3-7.4 0-3 1-5.4 3-7.5 2.1-2 4.5-3 7.5-3s5.4 1 7.4 3 3 4.5 3 7.5-1 5.4-3 7.5c-2 1.9-4.4 2.9-7.4 2.9m11.9-22.3c-3.2-3.2-7.2-4.8-11.9-4.8-4.6 0-8.6 1.6-11.9 4.8-3.2 3.2-4.9 7.2-4.9 11.8s1.6 8.6 4.9 11.8c3.2 3.2 7.2 4.8 11.9 4.8s8.7-1.6 11.9-4.8c3.3-3.2 4.9-7.2 4.9-11.8s-1.7-8.6-4.9-11.8" class="J K"/><g fill="#ff4438"><path d="M120.9 4.5c-.1.1-.1.1 0 0-.2-.1-.5 0-.6-.1 0 .1-.1.1-.2.1 0 .1 0 .2-.1.3-.3 0-.6.1-.8-.1.1-.1-.1-.4.1-.4.1 0 .1.1.2.1 0 .1-.1.1-.1.2.2-.1.7.2.5-.2-.1 0-.2.1-.2 0-.1-.2-.3-.2-.4-.5.3 0 .2-.2.3-.2s.1.2.2.1c-.1-.2-.1-.1-.1-.4-.1 0-.2 0-.2-.1.2 0-.1 0-.1-.2.3 0 0-.2.1-.3h.1c.1 0 .2.1.3.1v-.1c.2 0 .3-.1.4-.1h.3c.1.1.2.4.3.7.1.5.1.8 0 1.1m-.5.6c0-.1 0-.2.1-.1 0-.1-.1-.1-.1-.2.1-.1.2-.1.3-.1 0 .1-.2.3-.3.4m-22.5 5.4h.3c-.1.2-.2.1-.3 0m-21.1-2c-.1 0-.2-.1-.1-.2s.2-.1.2 0c.1 0 0 .2-.1.2m11.3-2.6c.1.2.1.5-.3.5 0-.1 0-.2-.1-.2.2-.1.1-.3.4-.3m.7.6c.1.1 0 .2.2.1-.2.2-.4.1-.7.1 0-.2.3-.1.5-.2m.4-.5c.1.1.3.1.4.2.1-.1.2 0 .3-.1.1.1 0 .2-.2.2 0 .1.1.1.1.2.1 0 .1-.1.2 0 0 .3.2.3.3.3-.1 0-.1.1-.2.1-.1-.2-.3-.1-.3-.3-.2.1-.2 0-.5 0 0-.2-.1-.2-.1-.4 0 0 .2.2.2.3.1 0 .2 0 .2-.1 0-.3-.3-.2-.4-.4m.8-.7c.3.2.4-.1.7 0v.2c-.1 0-.1 0-.1-.1l-.3.3c-.2 0-.4-.2-.3-.4m1.3 1c0 .2-.1.4-.2.4 0 .1.1.1.2.1.3-.1.3-.4.6-.4 0 .2-.6.1-.3.5.1.1.3 0 .3.2-.3 0-.3.2-.5.1-.1-.2.1-.2.1-.3-.2.1-.4.2-.8.3-.1-.1-.1-.2-.1-.3.3 0 .3-.3.4-.5 0-.1-.3 0-.3-.1s.3.1.6 0m.2-.3c-.1.1-.3.1-.4 0 .2-.1.2 0 .4 0m.3 0c0 .1 0 .1 0 0 0 .1.1.3-.1.3.1 0-.1-.3.1-.3m.3.6c-.1 0-.1-.2-.2-.1 0-.1.2-.1.2.1m-.1-.9c.2 0 .3 0 .4.1.2-.2.6-.4.9-.4h.3c0 .2-.2 0-.2.1.2.2.6.1.8 0v.2c-.1.1-.3 0-.4.1.2 0 .2.2.4.3-.1.3-.7.1-1 .4.1.1.2.2.3.2.2 0 .3-.4.5-.1.2-.1.2-.3.4-.4.2 0 .6.1.7.1-.4.4-1 .4-1.7.6.1-.1 0-.1-.1-.2-.2.1-.5-.1-.7 0 0-.2.3-.2.3-.3-.2-.1-.4 0-.6-.1 0 .1-.1.2-.2.2-.1-.2 0-.3.2-.4-.3-.1-.3-.3-.5-.4.1.1.2.2.2 0m2.2-.5c.1 0 .1-.1.1-.1.1.1-.1.1-.1.1m.6.5c.2.1 0 .3-.1.3-.1-.2.2-.1.1-.3M96 6c-.1.2-.6 0-.8.2V6c.3.1.5-.1.8 0m.2-.7c.1.1 0 .2-.1.2 0 0-.1-.1-.1-.2 0 0 .1 0 .2 0m-.5 1.5c.1 0 .1.1.3 0 0 .2-.3.2-.3 0M95 7.9c.2-.1.2-.2.3-.3.1.2 0 .1.2.3-.2 0-.1 0-.2.1-.2 0-.2-.2-.3-.1m1.7-.4h.1c.1 0 .2 0 .2.1h.1c0 .3-.1.5-.3.7-.2-.1-.4.1-.5.2h-.1c-.1 0-.2-.1-.3-.1-.2-.2-.5-.1-.8.2 0 0-.1 0-.1.1-.2-.1-.4-.1-.6-.1v-.1a1.38 1.38 0 0 1 .4-.3c.1.1.1.2.2.2s0-.1 0-.2c.4 0 .5.1.7-.1.3.3.5-.2 1 0 .1 0-.2-.1 0-.2-.4 0-.5-.1-.8.1-.1 0-.3-.1-.3-.2.3.1.3-.2.2-.3.5-.1.7 0 .9 0m-.1-.8c.1 0 .1.3.3.2v.2c0-.1-.1-.1-.1 0-.1 0-.2-.2-.3-.2-.2-.1 0-.1.1-.2m.1-.3s0 .1 0 0c.1.1.1.1.2.1 0 .2-.3 0-.2-.1m-5.3 3.5v-.2c.1 0 .2-.1.2-.1v.2.1l-.1.1h.1c0 .1 0 .2-.1.2 0-.1-.1-.2-.1-.3m-1.2.1c-.1 0-.2.3-.4.1 0-.1.2-.1.1-.2.2.1.2 0 .2-.2.3-.1.6 0 .8-.1 0 0 .1 0 .1.1-.1.2-.4.4-.8.5 0-.1.1-.1 0-.2M88 7.1c.2-.1.3-.2.5-.2 0 .2-.4.2-.5.2m1.2.1s0-.1.1-.1l.1.1v.1c0-.1-.1-.1-.2-.1m1.1.2s-.1.1-.3.1l-.1-.1c.1-.1.2-.2.2-.3.1 0 .2.1.4.1.1.1-.5.1-.2.2m-1 1.7c0 .1-.1.2-.1.3h-.1c.1-.2.1-.2.2-.3m-.5 1.4c-.2-.1-.3-.2-.4-.3v-.4h.3c.1.2.1.4.1.6 0 0 0 0 0 .1zm1-1c-.1 0-.1-.1-.3 0 0 .2.2.1.3.2-.1.3-.3.2-.4.5h-.2c-.1-.1-.1-.2-.1-.4v-.2c.1 0 .2-.1.3-.1-.3-.2.2-.3 0-.6.2-.1.7-.2 1 0 0 .1-.1.2-.3.3 0 .1.2 0 .3 0-.2.2-.4-.2-.6 0-.1.2.1.2 0 .3m.8-.8h-.8c0-.1 0-.1.1-.1l-.1-.1c0-.1.1-.1.1-.2.3.1.5.2.7.4m0-.3h0m2.6 1.3c0-.1 0-.1 0 0 0-.1 0-.1 0 0m.4-.4v-.1-.1c.1 0 .1.1.2.1 0 .2-.1.4-.1.5h-.1v-.4c0 .1.1.1.1.1 0-.1-.1-.1-.1-.1m-.2.2c0-.1 0-.1.1-.1 0 .1 0 .1-.1.1 0 .1 0 .1 0 0m-1.8-1.2c.2 0 .3-.1.5-.1h.1c0-.1 0-.2-.1-.2 0-.1.1-.1.2-.1-.2-.1-.3-.1-.3-.3.2-.1.4-.2.6 0 0 .1-.3.1-.3.3 0 .3.4 0 .4.3.1 0 .1-.1.1-.1.3.1.6-.3 1.1-.3.1.1.4.1.6.2.1-.1.7 0 .3 0-.1.1-.2.2-.4.2-.3-.3-.5-.1-.5.8-.1 0-.2 0-.2.1 0-.3 0-.6-.1-.7 0-.1-.1.2-.1.7v.3c-.1 0-.2 0-.4.1v-.2c-.1-.8-.2-.8-.8-.7-.2-.2-.5-.2-.7-.3m-3.1-1.2c.2 0 .4 0 .5.1h-.5c.1 0 0 0 0-.1M97.6 9c.1 0 .2.2.3.3-.2-.1-.4-.2-.3-.3m-.3-3.1c.1 0 .2.1.2-.1h.4c.1-.1.2-.3.4-.4h.1c0 .1 0 .2.1.2.2.2.2-.1.5-.1 0 .2-.1.3 0 .5-.2-.1-.3-.2-.6-.2.1.1.1.2.2.3l-.3.3c.1.2.3.2.4.5 0 .1-.1.2-.1.3.2.1.4 0 .6 0 0 .1.1.1.1.3-.1 0-.1.2-.2.1.1.3.4.2.5.6-.2 0-.2-.2-.3-.2 0 .2-.3.1-.3.3h-.2c-.5 0-.7.1-.7.4-.1-.1-.3 0-.5 0a4.3 4.3 0 0 0-.2-1.2h.2c0-.1-.1-.2-.2-.3.1-.1.4-.1.5 0 0-.1 0-.2.1-.3-.1-.1-.2.1-.3 0 0-.1.3-.1.1-.1.2 0 .3-.1.5-.1-.1-.1-.4-.2-.4-.4-.2-.1-.3-.1-.6-.1 0 .1-.1.2-.3.2.1.2.4 0 .5.1.1 0 .1-.1 0-.1.1-.1.3.1.4.2-.1 0-.1.1-.2.1v-.1c-.5.2-1-.2-1.1-.5.4.1.7.1.7-.2m-.2-.3c0 .1-.2.1-.3.1-.1-.2.1-.2.3-.1m0-1.1c0 .1.1.2.3.2 0 .1 0 .2-.1.3-.1 0-.1-.1-.2 0s-.1.2-.1.3c-.1 0-.1 0-.2-.1.3-.1.1-.5.3-.7m1.9-.1c-.1.2-.3.1-.5.1v-.1c.1-.1.1-.1.1-.2a.76.76 0 0 0 .4.2m.9-.2c-.1 0-.1 0 0 0-.1-.1-.1-.1-.2-.1-.2 0-.2.1-.2.3h-.2c0-.2-.2-.3-.2-.5.2 0 .6 0 .8.3m.1 1.3c.1-.1.2 0 .3 0s-.1-.2 0-.2c.2.1.4-.1.7-.1.1.2.2.2.4.3.1-.3.6-.6.7 0-.1 0-.1.1-.3.1.3.1.5.6 1 .4 0 .2.3.1.2.3-.2 0-.3-.1-.6 0-.2-.3-.5-.5-.8-.6v.4h-.1c0 .3-.5.6-.7.2.2 0 .3-.1.4-.2 0-.2-.3-.1-.4-.2 0-.1 0-.2.1-.3-.1-.3-.2 0-.3-.1-.2 0-.1.2-.1.3-.2 0-.4-.1-.5-.1-.2 0-.1.2-.3.2.2-.3-.4-.4-.4-.2-.1 0-.1-.1-.1-.1.2-.3.6-.4.8-.1m7.8.2c0 .1-.1.1-.2.1 0-.1.1-.2.2-.1m-3.9-.3c0 .1-.1.1-.2.1-.1-.1.1-.2.2-.1m.4.4h-.2c0-.1.1-.1 0-.2l.2.2m2.2.4c-.1-.1-.1 0-.2 0 0-.1-.1-.1-.1-.3 0 0 .1-.1.2-.1 0 .2.1.2.1.4m-.8-1.9c0 .1 0 .1 0 0-.1.1-.1.1-.2.1.1 0 .1-.1.2-.1m.6.4c-.1.1-.1.2-.2.2v-.2c-.1-.1.2 0 .2 0m.5-.4c0 .1-.4.2-.5.1 0 .1-.2.2-.3.1 0-.1.1-.1.1-.1.1 0 .3-.1.4-.1.2-.1.3-.1.3 0m-.1 1.5c0-.1 0-.2.1-.2.1.1.1.2-.1.2m.1-.3c0-.1.1-.2.2-.3.2 0 .3.1.3.3-.2.1-.3 0-.5 0m-3.9.3c-.1 0-.1 0-.2-.1 0 0 .2 0 .2.1m-.1-.7c-.3.2-.3-.2-.5-.2 0-.1.1-.2.1-.3v-.1c.2 0 .4 0 .7-.1 0 .1-.1.1-.1.2-.1-.2-.2 0-.4 0-.1.4.1.3.2.5.1-.1.1-.1.3-.2.1.1 0 .1 0 .2.1.2.2 0 .4.1.1 0-.1-.1 0-.2-.2 0-.5-.2-.3-.4a1.38 1.38 0 0 0 .4.3c.1 0 .1-.1.3-.1 0 0 .1.1.2.1.2-.2.6-.2.9-.2.1 0 0-.2.1-.2.1.1-.1.2 0 .4-.1 0-.1-.1-.3 0 .2.2.3.2.4.4.5-.2.7-.1 1.1-.2 0 .2.1.3.2.6-.1-.2-.4-.2-.8-.2 0 .2-.2.1-.1.3-.2-.1-.5-.3-.7-.1v-.1h-.1c-.1.1 0 .1 0 .2-.2-.1-.3-.2-.5-.3.2 0 .2-.1.2-.2-.1-.1-.3 0-.3-.2-.2 0-.1.1-.2.2-.2-.1-.5 0-.5.1-.3-.1-.5 0-.7-.3m5.2 2.1c0 .3.2.7.1.9-.3-.1-.7-.1-1.1 0-.1.3-.2.6-.8.7-5.8.4-9.1.6-10.5 1-2.4.5-4.4 1-6.1 1.4 0 0-.1 0-.1-.1.2 0 .4-.1.5-.2-.5-.8-.7.5-1.4-.1.6 0-.1-.3.3-.4.6-.2.8 0 1.1-.4 0 .2.2.3.4.2-.3-.8 1.4-1.2.7-1.8-.2.2-.8 0-.9-.3 0-.1 0-.2.1-.3.5-.2.6.3 1.1.2.2-.2-.3-.2 0-.3.4.1 1.2.1 1.1.6.3 0 .2-.2.3-.2.1.1.3.3.4.5.5 0 1 0 1.4.2-.1.2.1.1.1.3-.1.1-.4-.2-.4.1.7.3 1.6-.5 1.7-1-.3-.1-.3.3-.5.1 0-.1-.1-.1-.2-.1.8-.5 1.8.4 2.4-.5.1.1.2.1.2.3.3-.1.9 0 .8-.3-.1-.1-.2-.3-.4-.3.3-.4.8.1 1-.2.1-.2-.1-.2-.1-.5.5-.8 1.7-.3.3.1 0 .2 0 .4.2.7.5-.1.3-.5.6-.6.6.1 1-.1 1.7 0 .1-.1-.1-.3.2-.3.3.1.5.2.3.5 1.5-.4 2.8-.2 4.2-.6.2.6 1 .3 1.3.7m.1-2.3s.3.4 0 .5c-.1-.2-.1-.4 0-.5m3.2-1h0c0 .1-.1.1-.3.1v-.1h.3m1.1.4c.1-.1.2.1.4.1-.1.1-.4 0-.4-.1m-1.1.3c0-.1.2 0 .2 0 0 .2-.1.1-.2 0m-.7-.2c.2 0 .4-.2.6-.1v.3c-.2 0-.2.1-.4.1-.1-.2-.2-.2-.2-.3m-1.1 0c.1-.1.3-.2.5-.1 0 .2-.2.2-.2.4-.2-.1-.2-.3-.3-.3m.2.6c.2-.1.3-.2.6-.2.1.1.2.4.5.4 0 .2.1.3.3.2-.1.2-.3 0-.5.1 0-.1-.1-.2-.1-.3-.2-.1-.5 0-.8-.2m1.8.8c0 .1-.1.2-.2.1 0-.1.1-.1.2-.1m.4-.6c-.1 0 0 .2-.1.3-.1 0-.1-.1-.3 0-.1-.4-.3-.3-.5-.5.2-.2-.1-.2 0-.3.1.1.2.3.5.2.2-.6.7.1 1 .3.2 0 .2-.1.4-.1 0 .3-.4.3-.6.4 0-.2-.1-.2-.1-.3-.1-.1-.2-.1-.3 0m1-1.5h.3c0 .2-.2.1-.1.3.1.1.1.1.2.3-.1 0-.1.1-.2.1-.1-.2-.1-.3-.1-.5-.2-.1-.4.2-.6-.1v-.1h.5m1.9.7c-.1.1-.2.1-.4.1-.1.4-.4.9-.9.5-.3-.4.4-.5.4-1 .1 0 .1-.1.2-.1.1.1 0 .1.1.2.5.1.8-.4 1.1 0-.3.1-.4.4-.5.3m2.1-.2c0 .1-.1-.2-.2-.1 0-.2.4 0 .5-.1 0 .1-.5.1-.3.2m-.5.2c.2.1.3 0 .6.1-.1.1.1.4 0 .5-.1 0-.2-.1-.3-.2-.1 0-.3.1-.3 0-.1-.2.1-.1 0-.4m.1-.8h-.2.2m-.4.1l-.1-.1s.1 0 .1.1c0-.1 0-.1 0 0m-.1.6c0-.2 0-.2.2-.3.1.2-.1.3-.2.3m.1.5c-.1 0-.2 0-.2-.1.1-.1.1 0 .2.1m-.4-1.1c.1 0 0-.2.1-.2.2 0 .2.2.2.4h-.2c0-.2-.2 0-.3-.3 0 0 .1.1.2.1m.9.4c-.2 0-.2-.1-.3-.1 0-.1.1-.2.2-.2.2.1 0 .2.1.3m-1.2-.2c-.1 0-.2-.2-.1-.3.2 0 .1.2.1.3m3.1.2c-.1 0-.4 0-.4.1-.2-.2.3-.2.1-.5a.9.9 0 0 1 .5.1c-.1.1-.2.2-.2.3m.2.4c-.2 0-.3.3-.5.2-.1-.2.2-.1.1-.3.2-.1.4-.1.4.1m0-1c0-.1.2 0 .3-.1 0 .1.1.3 0 .3-.2 0-.1-.1 0-.2-.1 0-.2-.1-.3 0m-10.5 4.1c.1-.1.2-.1.3 0h-.3m-8.1.6c0-.1 0-.1.1-.1v.1c0 0 0 0-.1 0m-.3-2c.1 0 .2.1.3.1-.1.1-.1.1-.2.1s-.1-.1-.2-.1c0 0 .2 0 .1-.1m15.9.8c-.8.2-1.5.3-2.3.4-1.6.2-3 .2-3.1 0-.2-.2-.3-.2-.4.1s-.2.4-.4.3c-.1-.1-.5-.2-1-.2.1-.1.4-.1.5-.2 0-.1-.1-.1-.1-.2-.2 0-.5 0-.6-.2.2-.3.4-.2.7-.4-.2-.1-.3-.3-.6-.2 0 .2-.1.4-.3.2v-.3c.1-.1.1 0 .3 0 0-.1-.2-.1-.2-.2.1-.2.2-.1.4-.2 0-.2.2-.3 0-.5.1 0 .1-.1.2-.2-.1-.1-.3-.2-.4-.3.1-.1.2-.1.2-.2-.1-.2-.1-.5-.2-.7.2 0 .3.2.4.2.1.1.2.4.1.6.1 0 .2 0 .3.1-.2.1 0 .4-.1.5-.2 0-.4.1-.4.2.1.1.2.1.4.2.1-.1.2-.1.4-.1 0-.1 0-.2.1-.2.2.1.4.3.7.1.1.4-.2.5-.5.4v.2c.2 0 .2.2.4 0 0 .1 0 .1.1.2.3 0 .4-.2.7-.2 0-.1 0-.2.1-.3.1 0 .1.1.1.2h.3c-.1-.1-.1-.5-.1-.6.1.1.2-.1.4-.1.1.1.3.2.3.4-.2 0 0 .1-.2.1-.1 0-.1-.2-.2-.2h-.2c.1.2.2.2.1.4.6-.1 1-.4 1.5.1 0 .2-.2.2-.2.4.1-.1.2.2.3 0-.1 0-.2 0-.1-.1.2 0 .3 0 .4-.1 0-.2-.2-.1-.3-.3.6 0 .9 0 1.3-.3 0-.1-.2-.2-.1-.2.2.2.7.5 1 .3-.1 0-.2-.1-.3-.2.2 0 .1-.1.1-.1.2 0 .3.3.5.1.2.1.1.5.3.5-.1 0-.1-.2 0-.2 0 .1.2.2.1.1-.2-.2-.1-.5-.4-.6.2 0 .2-.4.4-.3 0 .2-.1.2-.2.3.1 0 .1.1.1.1.1 0 .1-.1.2-.1 0 .2.2.1.2.2s-.2 0-.1.1c.1 0 .2 0 .3.1-.2.3-.7.4-.8.8.2 0 0-.1.1-.2.2 0 .3 0 .4.1.1.2-.2.3-.6.4m2-.6s.1-.1.1-.2c-.1 0-.2 0-.2-.1-.1-.2 0-.3.1-.4.1.1.1.1.2.1 0-.1-.1-.4.1-.5.1 0 .1.1.1.1.1 0 .1-.1.3-.1-.1-.1-.1-.2 0-.2.2.2.3 0 .6-.1 0 .2.1.5.1.6-.4.5-.9.7-1.4.8m2.1-1.3c.2 0 .3.1.5-.1 0 0-.1.1 0 .2-.1.1-.2.2-.4.3-.4 0-.7.1-.8-.4.3.1.5.2.8.3 0-.1-.1-.3-.1-.3M86.8 26c-.1-.2-.4-.1-.3-.4.1.1.1-.3 0-.3 0 0-.1.1 0 .1-.1 0-.1-.1-.1-.1-.1.1 0 .2 0 .2-.1 0-.1 0-.1.1-.1-.2-.1-.4-.1-.6.1.1.2.1.2.2.2-.1.1-.2.1-.4.1.1.1.3.3.3l-.1.1c.1.1.2-.1.3-.1 0 .1-.2.2-.2.3.1.3.4 0 .4.3-.2.2-.3.2-.4.3m0 1.1c-.2-.1.2-.4.3-.5-.1.2-.2.3-.3.5m.4.5c-.4.2-.2-.3-.3-.5.2 0 .3.4.3.5m.5 1.2c0 .2.1.3 0 .4 0 .1.1 0 .2.1 0 0-.1.1 0 .1-.1.1-.1 0-.2.1 0-.1.1-.3-.1-.2-.1-.1 0-.2-.1-.3 0-.2 0-.1.2-.2M88 34c0-.1 0-.1-.1-.1 0-.1.1-.2 0-.2.1.1.2.1.3.1-.1.1 0 .1-.2.2m-.2-.4c-.1-.1-.3-.2-.4-.3-.1.3-.3.2-.5.4 0-.1-.1-.4-.3-.6-.2.2.1.4.2.6-.1.1-.1.1-.2.1 0-.1 0-.1-.1-.2 0-.1 0-.2-.1-.3v-.2-.1c0-.2-.1-.4-.1-.6h.1c.1 0 0-.1.1-.1h-.2c0-.4.1-.7.3-.9 0 .1 0 .2.1.3.1-.1 0-.2.2-.3 0 .1.1.2.1.3h.1c.1-.1.2-.1.2-.2.1 0 .1 0 .1.1 0-.1 0-.2.2-.2.1.1.1.1.1.2-.1 0-.1.1-.1.1-.1 0-.1-.1-.2-.1-.2.1.1.3-.2.4h.1c0 .3.3.3.4.7-.1.1 0 .3-.1.5.4.2.3.6.2.4m-1.2 1v-.3c.1 0 .1.1.1.3 0 0 0 0-.1 0m-1.4 1.5c-.6.6-1 .5-1.5-.6-.3-.8-.3-1 .2-1.1.4-.1.7-.1.8.1.1.1.3.3.5.4.2.3.2.6.4.8 0 0-.1.1-.4.4m-.7 1.1c-.2.1-.4.1-.5 0 0-.1.1-.2.3-.3s.4-.1.5 0-.1.2-.3.3M83 34c0-.2.8-.5 1.2-.5.5 0-.1.5-.7.5H83m.1-3.6c.2-.1.4-.1.5-.1l.3.9c.1-.1.1 0 .1 0v.1.1h.1c0 .2-.1.3-.5.4s-.6-.1-.7-.5c0-.4 0-.8.2-.9m-.5-2c0-.1.1-.2.2-.2v.2l.1.1c-.1 0-.3 0-.3-.1m-.1-1.1c0-.1 0-.1.1-.2v.1l-.1.1c.1 0 .1.1.2.1-.2 0-.2 0-.2-.1m3.7-4.3c-.2.1-.4-.1-.4-.3s.1-.4.4-.4c.2 0 .4.1.4.3 0 .1-.2.3-.4.4m-.3 4.5c0-.2 0-.3.1-.4.1.1 0 .2.1.4h-.2m0 .3v-.2c.2.1.5 0 .5.2-.3.2-.3 0-.5 0m.8 1c-.1.1-.1 0-.1 0 0 .1-.1.2-.1.3h-.1c0 .2-.1.2-.2.2v-.1-.2c.1-.1.1-.3-.1-.3 0-.2-.1-.4-.1-.5.1-.1 0-.2.1-.2s.1.1.1.2l-.1.1c0 .1 0 .1.1.1 0-.2.1-.1.1 0 .2 0 .5.1.4.4m0 1.9h-.1c0-.1-.1-.2-.1-.4.1-.1.1-.1.1 0 .1-.1.1-.2.2-.2 0-.1 0-.2.2-.3 0 .1 0 .2.1.1-.2.3-.3.5-.4.8m-.9-6.4c.2-.1 0-.2.2-.2 0 .1-.1.3-.1.4 0 0-.1-.1-.1-.2m.3 4.7c0 .1 0 0 0 0m.8 2.3s0-.1 0 0c.1-.1.1 0 0 0m-1.2-7.2v-.3l.2-.6.3.4c-.1.2-.3.4-.5.5m.6.3c.1-.1.2-.1.3-.2l-.1.1h.1v.1c-.1 0-.1-.1-.2 0 0 .1 0 .2-.2.2 0 .1.2-.2.1-.2M87.4 38c.1.1-.1.2-.1.3.1-.2-.1-.1-.1-.2.1 0 .1 0 .2-.1m.1 1c0-.2-.1-.2-.2-.5.2-.1.4.3.2.5m-.4 4.3c.2-.1.7-.4 1.1-.7.1.1 0 .4.2.6.1 0 .1-.1.2-.1 0 .1 0 .2-.1.3v-.2c-.1 0-.1.1-.2.1.1.1.1.1.2.1v.1c-.2-.3-.4-.2-.9.2-.4.3-.8.5-1 .6-.5.1 0-.8.5-1m5.7 4.4c0 .1.1 0 .1 0 0 .1-.2.3-.1.4l-.2-.2c0-.1.1-.1.2-.2m.5.5c-.1.1-.2 0-.3 0 0 0 0 .1-.1.1 0-.1.1-.1.1-.2 0 0 .3-.1.3.1m-.2-2.3c.3-.3.5.1.9-.1 0 .1.1 0 .1.1s-.1 0-.2.1c0 .4.5.4.1.8 0-.2-.2-.1-.1-.3 0 0-.1 0-.1.1-.1 0-.1-.1-.2-.3-.2.1-.8.2-.5-.4m2.9 1.7c-.2.1-.4 0-.4 0 .1 0 0 .1 0 .1-.1-.1 0-.2.1-.3-.1-.2-.2-.2-.3-.3l.1-.1c.1 0 .1.1.1 0s0-.2.1-.2c-.1-.1-.1-.2-.2-.4-.2.1-.2.2-.3.3-.1-.2-.2-.4-.2-.7.2-.2.1 0 .2.2.1-.1.1-.2.2-.2.2.2.4.3.6.5-.1.1-.1.2-.3.2 0 .4.4.4.3.9m.4 1.7c0 .1 0 .1-.1.1 0 .1.1 0 .1.1s0 0 .1.1c-.1 0-.1.1-.1.1l-.2-.2c.1 0 0-.1 0-.2.1.1.1.1.2 0m.6.2s0 .1.1.1c-.1 0-.1 0-.1-.1v.3c-.1 0-.3-.1-.3-.3.2.1.1-.1.3 0m.3 1.1s0 .1-.1.1c-.1-.1-.2-.1-.3-.2-.1.1-.1 0-.2 0-.1-.1-.1-.2-.2-.3l.2.2s.1 0 .1-.1c-.1-.2-.2-.1-.4-.3.1 0 .2.1.3.1 0 0 .1 0 .1-.1.1 0 .1.2 0 .2 0 .1.1 0 .1.1 0 0 0-.1.1 0 .2.3.3.3.3.3m.2-1.1s-.1 0-.1-.1l.1.1m.1.5c0 .1-.1.1-.2 0 .1-.1.2 0 .2 0m.1.6c0 .1.1.1.1.1.1-.1 0-.3.1-.3.1.2-.2.1.1.4.1 0 .1 0 .2.1-.1 0-.1.2-.2.1s0-.1-.1-.2c-.1.1-.1.2-.3.2-.1 0-.1-.1-.2-.2.1 0 0-.2 0-.4-.1-.1-.1 0-.2-.1 0-.2.2 0 .3-.1.2.1.2.3.2.4m.1-.6c0 .1.2.2.1.3 0-.1-.2-.3-.1-.3m.3.4c-.1 0-.1-.1-.1-.1 0-.1.1 0 .1.1m-.1-.6c.1-.2.2-.4.5-.3.1.1-.1 0-.1.1.1.1.3.1.4 0l.1.1s-.1 0-.1.1c.1 0 .2.2.3.2.1.3-.3.1-.3.3.1.1.2.1.2.1.1 0 0-.3.2-.1.1-.1 0-.2.1-.3.1 0 .3.1.4.1-.1.3-.4.4-.6.5 0-.1-.1-.1-.1-.1-.1.1-.3-.1-.3 0-.1-.1.1-.1.1-.3-.1-.1-.2 0-.3 0v.2c-.1-.1-.1-.2 0-.3-.2-.1-.2-.2-.4-.3-.1-.1 0-.1-.1-.2-.1.1-.1.2 0 .2m.6-.6h.1c0 .1 0 .1-.1.1 0-.1.1-.1 0-.1m.6.5c.1.1.1.2.1.3-.2-.2-.1-.2-.1-.3m-.3-1.4h0 .2c.3.1.6.1.9.1 0 .1.1.1.1.2-.2 0 0 .3 0 .5h-.1c0 .1 0 .2.1.2 0 0-.1 0-.1-.1.1-.1-.2-.5 0-.6 0-.1 0-.1-.1-.2h-.4c0 .1.1.2 0 .2s-.1.1-.2 0c0-.1 0-.2-.1-.2-.1.1-.2.3 0 .5-.1.1-.2 0-.3-.1 0 .1.1.1 0 .1-.1.1-.2-.2-.3-.3h.1c0-.1 0-.1-.1-.2.2-.1.3-.1.4-.3-.2 0-.3 0-.3.1h-.1c.2.2.3.1.3.1m7.5-.8h0 0m1-.4h0c0 .1.1.2.1.3h-.2l-.1-.1c-.2-.1-.3.1-.4.1h-.1c.4-.3.7-.4.7-.3m-12.5.4c-.1-.1.1-.3-.1-.3 0-.1.1-.1.1-.2.1.1.2.4 0 .5m.2 0c-.1-.1.1-.2 0-.3.1-.1.2.1.2.2-.2 0-.1 0-.2.1m.7 2c-.1 0-.1 0 0 0h0c-.1-.1-.1-.1 0 0m.6 1.1c-.1-.2.1-.1.1-.2.1 0 0 .1.1.1 0 .2-.1.1-.2.1m1.8 1.1s-.1 0-.1-.1c0 0 0 0 .1.1 0-.1 0-.1 0 0m1.8-.7c.1.2.1.1.2.3-.1 0-.1 0-.1.1-.1 0-.1-.1-.2-.1.1-.1.1-.2.1-.3m.1-.5c.1.1 0 .2-.1 0 0-.1 0 0 .1 0m.1-1c.1.1-.1.1-.1.1-.1-.2 0-.2.1-.1m0-.8c.1 0 .1.1.1.1s-.1-.1-.1 0c-.1-.1 0 0 0-.1m3.8-.3c-.1 0 0-.1 0 0 0-.1 0-.1 0 0-.1-.1-.1-.1 0 0-.1-.1-.1-.1 0-.1v.1m1.3.3s.3.3.1.3c0-.1 0-.2-.1-.3m.2.6c0 .1-.1.1 0 0-.1 0-.1 0 0 0m2.1 0s-.1 0 0 0h-.1s0 .1.1 0c-.1.1-.1.1-.1.2-.1-.1-.1-.2-.1-.3.1.1.1-.1.1-.1s.1.1.1.2m-.3 0c0 .1 0 .1 0 0-.1 0-.1-.1 0 0m0 .4c0-.1-.1-.2 0-.2v.2c0-.1 0-.1 0 0m.6-1.8s0-.1 0 0c.1 0 .1 0 .2.1v.6c-.3-.2-.1-.4-.2-.7m-.9.6c-.1-.5.4 0 .6.2.1 0 .1-.1.1-.1.1.2-.1.2-.2.3 0-.1-.1-.2-.1-.2h-.2v.2h-.1c-.2-.3-.2-.2-.4-.3 0-.1-.1-.1-.1-.3.2.2.3.3.4.2m-.1-.1c.1.1-.1 0-.1 0 0-.1.1 0 .1 0m.5-.2c0 .1-.2 0-.2-.1s.2.1.2.1m.1-.2c.1.1.1.1.1.2-.1 0 0 .1-.1.1 0-.2-.1-.2 0-.3-.1 0 0 0 0 0m-1.1.2c.1 0 .1-.2.2-.1s.1.1.1.2c-.1 0-.1.1-.2.1 0-.1-.1-.1-.1-.2m0 .3c.1.1.2.3.3.3.1.1.1.2.2.1 0 .1-.1 0-.2.1 0-.1-.1-.1-.1-.2-.2 0-.3 0-.5-.1.1-.1.2-.1.3-.2m-.4.3c-.1.1.1.3.1.4-.1 0-.2 0-.1.2.1.1.2.1.3.1 0-.1.1-.1.2-.1v-.2c.1.1.3.2.4 0 .2.3.1.4-.1.3 0 .1 0 .1.1.1s.2.1.2 0l.1.1c.1 0 .1-.1.2-.1l-.2.2c-.1.1-.2.1-.2.2 0-.2 0-.4-.3-.4-.1 0-.2.1-.3.2-.1 0-.1-.1-.2 0 .1.1.1.3-.1.2 0-.1-.1-.2-.1-.2 0-.1.1 0 .1 0l-.2-.2c0-.1 0-.1.1-.1 0-.1 0-.2-.1-.3V49c-.1-.1-.2-.1-.3-.2 0-.1.1-.1 0-.2s-.2-.4-.3-.5c.1 0 .2.2.2.1.1.1.2.3.3.4l.2.2m.1-.4c-.1 0-.2-.2-.3-.2 0-.1.1-.1.2-.1.1.1 0 .2.1.3m-2.8 3.5v-.1c-.2-.2-.4-.2-.6-.5 0 0 .1 0 .1-.1-.2-.3-.1.2-.3-.1.1 0-.1-.1 0-.1.1-.1.2 0 .2-.1 0 .1.1.1.1.1-.2-.3.1-.4-.1-.6 0 .1-.2 0-.2-.1v-.1c.1-.1.2.1.3.1 0-.1-.1-.1-.1-.1.1 0 .3 0 .3.2.1 0 0-.1 0-.1 0 .1.1.1.1.2.1 0 .2 0 .3.1 0 .1 0 0 .1.1 0 0-.1-.1-.1 0 .2.1.3-.1.2-.3-.1 0 0 .1-.1 0l-.1-.1c.1-.2.5.2.5-.1l.1.1c.1 0 .2 0 .1-.1l-.1-.1c0-.1.2 0 .2-.1s-.1-.1-.1-.2c0-.3.3-.1.1 0 0 .1.1.2.1.2.1 0 0-.2 0-.2.1.1.2 0 .4 0 0 0-.1-.1 0-.1s.1.1.1.2c.3-.1.6 0 .8-.2.1.3.2.2.4.3 0 .1 0 .2.1.3h-.2v.1c-.4.3-.8.5-1.3.7h-.1V51v-.1s0-.1-.1-.1h-.2-.1s-.1 0-.1.1v.1.1.3l-.1-.1c0 .1 0 .1-.1.1v.1c-.1.3-.3.3-.5.4m-1.5-2c.1 0 .1.1.2.1v.1l-.1-.1c-.2 0-.1 0-.1-.1m-.2-.6c0-.1.1 0 .2 0l-.1-.2c.1.1.2-.1.3-.1.1.1.2.2.3.2-.1-.2.1-.5.3 0-.1 0 0 .1-.1.1.2.1.5.5.6.3.1.2.2.1.2.2-.1 0-.2-.1-.3 0-.2-.2-.4-.3-.6-.4 0 .1 0 .1.1.3h-.1c.1.2-.1.4-.3.1.1 0 .1-.1.1-.2-.1-.1-.2-.1-.3-.1v-.2c-.1-.2-.1 0-.2-.1-.1 0 0 .2 0 .2.2.1.1 0-.1-.1 0 .1.1.2 0 .2 0-.2-.3-.3-.3-.2h-.1c.1-.1.2-.1.4 0m1.5.2h-.1c0-.1.1-.1.1 0m.4-.3v.1c-.2-.1-.1-.2 0-.1m.3.3c-.1 0-.1 0 0 0-.1 0-.1-.1-.1-.1l.1.1m1.2.2c-.1-.1-.1 0 0 0-.1-.1-.2-.1-.2-.2 0 0 0-.1.1-.1 0 .2 0 .2.1.3m0-.3s-.1-.1 0-.1v.1m-.1-.2v-.3c.1 0 .2.1.3.2-.1.1-.2.1-.3.1m-.4-.2c.1.1.1.2.3.4-.1-.1-.3-.2-.4-.1 0 .1-.1.1 0 .2-.1-.1-.3-.2-.4-.1v-.1h-.1s0 .1.1.2c-.1-.1-.2-.2-.4-.2.1 0 0-.1 0-.1-.1-.1-.2 0-.2-.1-.1 0 0 .1 0 .1-.1 0-.2 0-.2.1-.2-.1-.2 0-.4-.2-.1.2-.2-.2-.3-.1-.1-.1 0-.1 0-.2.1 0 .2-.1.2-.2h.1v.2c-.1-.1-.1 0-.2 0 .1.2.1.1.2.2.1 0 .1-.1.1-.1.1.1 0 .1.1.1.1.1.1 0 .2 0s-.1-.1-.1-.1c-.1 0-.3-.1-.3-.3.1 0 .2.1.3.2.1 0 0-.1.1-.1l.1.1c.1-.1.2-.2.4-.1 0 0-.1-.2 0-.2.1.1 0 .1.1.3h-.1c.2.1.2.2.3.3.2-.1.4-.1.5-.1m-.1-.4v.2l-.1-.1c0-.1.1-.1.1-.1m-.1-.3c0 .1 0 .2-.1.1 0-.2.1-.2.3-.1.1 0-.1.1-.2 0m-3.4.3c0-.1-.1-.1-.1-.1h.3c-.1 0-.2.1-.2.1m-.4-.2c.1 0 .2.1.3.2 0 .1-.1.1-.2.1-.1-.1-.1-.2-.1-.3 0 .1 0 .1 0 0m-.2 1.8c0-.1 0 0 0 0l.1.1c.1.1-.1-.1-.1-.1m0 .2c.1 0 .1.2.2.1.1.1 0 .1.1.2-.1 0-.2-.1-.3-.2v-.1m1.4 1.8c0-.1-.1-.1 0 0 0-.1 0-.1 0 0m-7.3-4.6c.1 0 .2 0 .2.1-.1.1-.2 0-.2.2-.1-.1 0-.2 0-.3m-.1.5c-.1 0 .2-.1.1-.2.1 0 .1.3.2.3-.1.1-.2-.3-.3-.1m.4 1.1c-.1-.1-.1-.3-.2-.3.1-.2.2.2.4-.1v.4c-.1 0-.1-.1-.2 0m.1.6s0 .1 0 0c0 .1 0 0 0 0m-.4-.6c.1.1.1.2 0 .3 0-.1-.1-.1-.1-.1 0-.1 0-.1.1-.2m5.6 3c0-.1 0-.1 0 0 .1-.1.1-.1 0 0h0m-3.7-1.3c0-.1.1-.1.2-.2.1.2-.1.2-.2.2m-.4-.9c.1.1.2.4 0 .4 0-.1-.1-.1-.1-.2.2 0 0-.2.1-.2m-1.1-3c0 .2-.1.2-.3.3 0 0 0-.1-.1-.1.2-.1 0-.1.2-.3v.2c.1 0 .2-.2.2-.1m7.4 4.8c-.1-.1-.1-.1-.1-.2-.1 0 .1.1-.1.1.1.1.1.1.2.1-.2 0-.1.2-.2.2 0 0 0 .1.1.1h-.2c0-.1-.1-.1-.1-.2-.2-.2-.3-.1-.4 0 0 0 .1.2 0 .1 0 0 0 .1.1.1h-.4V52c0-.1-.1-.1-.1-.1s.1-.1.1 0c0-.1-.1-.3-.1-.3-.1-.1-.2 0-.2.1-.2 0-.5.1-.5.2-.1-.1-.2 0-.3 0 0-.1 0-.2.1-.3.1.1.1.1.2.1 0 0 0-.1-.1-.1.2 0 .2 0 .3-.1.2.2.2-.1.5 0 0 0-.1-.1-.1-.2-.2 0-.3 0-.3.1-.1 0-.1 0-.2-.1.2.1.1-.1 0-.2.1-.1.2.1.4-.1.1 0 .1.1.1.1.1-.1.2 0 .3 0l-.2-.2c0-.1.2-.1.3 0 0-.1-.1-.1-.1-.2-.1-.1 0 .1-.1 0 0 0 .1-.1 0-.1.1 0 .1-.1.2-.1-.1-.1-.3-.2-.3-.3-.1 0-.2-.1-.3-.1 0 .1 0 .1-.1.1.1.1.2 0 .3.1v-.1c0-.1.2.1.3.2 0 0 0 .1-.1.1 0 0 0-.1-.1-.1-.2.1-.6-.1-.7-.3.1 0 .3 0 .2-.2.1 0 .1 0 .1-.1h.2c0-.1 0-.2.1-.3h.1c0 .1.1.1.1.2.1.1.1-.1.2-.1 0 .1 0 .2.2.3-.1-.1-.2-.2-.4-.1.1.1.1.2.2.2 0 .1 0 .2-.1.2.1.2.2.2.4.3 0 .1 0 .2.1.3s.2 0 .3 0c0 .1.1.1.1.2-.1 0 0 .1-.1.1.1.2.3.2.4.4-.1 0-.1-.1-.2-.1 0 .1-.1.1-.1.2.1.1.1.1.1.2 0-.2.2-.2.3-.2 0 .1.1 0 .1.1 0 0-.1-.2-.1-.3.1.2.2.3.3.2 0 .1 0 .1.1.2-.1 0-.1 0-.2-.1v.1l.2.2c-.2 0-.4.1-.6.1 0-.1-.2-.2-.1-.3m-2.6-2.5h0c.2.1.2.1.1.1 0 .1-.1 0-.1-.1m.3.6c0 .2-.3 0-.3.2 0-.1 0 0-.1-.1.1-.1.2-.2.4-.1m-1.4 1.8c.1 0 .1-.1.2-.1 0-.1-.1-.2-.1-.2 0-.1 0-.1.1-.1-.1 0-.1 0-.2-.2.1-.1.1-.1.3 0 0 .1-.1.1 0 .2.1.2.2 0 .3.2v-.1c.2.1.2-.2.4-.3.1.1.2.1.3.1 0-.1.3 0 .2 0 0 .1-.1.2-.2.3.2.1.2.3.3.5 0 0-.1 0-.2.1-.1 0-.3 0-.4-.1.3-.2.3-.7-.1-.7-.3 0-.4.3-.4.6-.2 0-.3-.1-.4-.1s-.1 0-.1-.1m-1.2-.9c.1 0 .1.1.2.1.1.1-.2.2 0 .2 0 0-.1.2-.2 0 .1 0 .1-.1 0-.3m-.4.1h0c.2.1.1.1.1.2-.1 0-.2-.1-.1.1h-.2c-.1-.1-.1-.1-.2-.3.1 0 .2-.1.3.1.2 0 .1-.1.1-.1m-.9-1.2h0c.1-.1.2-.1.3.1 0 .1-.1 0-.3-.1-.1 0-.1.2-.2.2s-.2-.1-.4-.1l.1-.1v-.1s.1-.1.2-.1c0 .1 0 .1.1.1v.2l.1-.1c0 0 0 .1.1 0m-2-4.6c0-.1 0-.1 0 0 .1 0 .1 0 .2.1-.1.1-.1-.1-.3 0-.1.1-.1.1-.3.2 0-.1-.1 0-.1-.1.3-.1.4-.2.5-.2m-.2 3c0-.1-.1-.2 0-.2s.1.1.3 0c-.1.2 0 .2 0 .4-.1-.1-.3.2-.4.2 0-.2 0-.3.1-.4m-5.3-1.4c-.3.2-.6.4-.8.4-.4 0-.4.1-.1-.5.2-.5.2-.5.6-.5.6 0 .8.2.3.6M88 5.2c0-.1.1 0 .2-.1v.1H88m35.4-.9c-1.4-1.3-2.6-2.9-3-3.5 0 0-.1-.2-.3-.4-.1-.2-.3-.4-.3-.4s-.3.3-1.1.7-1.8.7-1.8.7a54.61 54.61 0 0 1-5.1 1.3c-.2 0-.4-.1-.5-.1v-.2c-.2 0-.3.1-.3.2-.2-.1-.5 0-.7 0 .1-.1 0 0 0-.2-.2.1-.3.3-.4.3.1 0 .2.1.3.3-.3.1-.5.1-.8.2 0 0-.1 0-.1-.1.1.1.2 0 .3 0-.2-.2.3-.1.3-.3-.1.1-.1 0-.2-.1-.1.1-.2.1-.3 0 0 .2-.1.3-.2.3v.2c-.4.1-.7.2-.9.3-.1 0-.2.1-.2.1-.1-.5.4-.5.4-.9-.2 0-.5.1-.7 0 .1.2.2.5 0 .7h-.2c-.1-.1-.4-.1-.8-.1-.5 0-1 0-1-.1s-.7 0-1.6.1c-.1 0-.2-.1-.3-.3-.2 0-.4.1-.7.1 0-.1-.1-.1-.1-.2h.6c-.2-.2-.5-.1-.8 0 .1.2-.1.2-.2.3 0 .1.1.1.1.2h-.1c-.6.1-1.3.2-1.7.2 0 0 0-.1-.1-.1s-.1.1-.2.1c-.2 0-.3.1-.4.1s-.2.1-.2.2c-.1 0-.2-.1-.2-.3-.1 0-.3 0-.4-.1v-.2c-.4-.1-.9.1-1.2 0-.1-.1.1-.1.1-.2-.1 0-.3.1-.5.1 0 .2.3 0 .4.2-.1 0-.1.1-.2.2-.1-.2-.3 0-.4 0-.3 0-.5.1-.6.3-.3 0-.5-.1-.8 0 0 .1 0 .2-.1.3-.2 0-.3.2-.4.1h.1c.2 0 .3-.1.2-.2s-.2 0-.2 0c-.4.1-.6.3-.4.7-.2.1-.4-.1-.6-.1 0 .1 0 .2-.1.2s-.2 0-.3-.1c.2-.1.2-.3.2-.4v-.2c.6-.1.8-.2 1.1-.4-.3 0-.5 0-.7.1-.3-.2-.5 0-.7.2h-.2V4c-.1 0-.2 0-.3.1-.2 0-.5.1-.7.1H93c-.1 0 0 .1-.2.1v.1c-.2.1-.4.2-.4.4v.1c-.2 0-.4 0-.5-.1-.1 0 .1.2 0 .2-.1-.1-.2 0-.2-.3-.4-.1-.9-.1-1.5-.1 0 .1 0 .2-.1.3-.5 0-.5.2-.8.2 0 .2.2.1.2.1-.1.1 0 .1 0 .2-.2 0-.2.1-.3.1 0-.1-.2-.1-.2-.2.2 0 .1-.3 0-.4-.2.1-.3 0-.6.1v-.2c-.3.1-.5 0-.7.1 0 .1.2.1.3.2 0 .2 0 .2.1.3-.1 0-.2 0-.2.1.3-.1 1-.4 1.2.1-.3.2-.4 0-.6-.1-.2 0-.4.1-.6.1h-.2c0-.1-.1-.1-.1-.2.1-.1 0-.3.1-.4-.2-.1-.4-.1-.6 0 .1-1.5.1-2.5.2-3.2.2-1.2-.2-1.7-1.7-1.9-1.1.1-1.4.1-2.8.3-1.6.2-3.8.8-3.8 1 0 .1-1.7.9-1.8 1.3-.1.5-.1 1.3-.2 2.9v1.2c-.5.1-.9.2-1.3.3-.5.1-1.2.3-1.6.3-2.1.3-4 .5-5.6.7s-2.9.3-4 .3c-2.2.1-3.5.1-4.2 0-1-.2-1.4.2-1.6 1.8-.1 1.1-.1 1.4.1 2.9.2 1.6.9 3.8 1.1 3.8.1 0 .3.4.6.9.4 1 .5 1 3.5.8.9 0 6.4-.6 13.3-1.5.1 2.1.2 4.3.4 6.3.2 2.3.5 4.3.8 5.7.3 1.2.4 2.3.5 2.4 0 .4.6 2.7.7 3 .1.2.1.4.3 1 .1.3.2.8.3 1.3.2.6.4 1.3.7 2.3.1.3.3.7.5 1.2s.4 1.1.7 1.6c.6 1.1 1.2 2.4 2 3.5 1.4 2.2 2.8 4 2.8 4.1s.6 1 1.6 1.8 2.2 1.9 2.8 2.5c.3.2.9.8 1.9 1.4s2.4 1.3 4.1 1.7 3.7.6 5.7.4c2-.3 4-.9 5.7-1.9 1.6-.9 2.8-1.7 3-1.6.1.1.3-.1.6-.3.3-.3.7-.6 1-1 .7-.8 1.2-1.7 1.1-1.9-.2-.5-1.6-1.7-3.2-2.9-.2-.2-.4-.3-.6-.5h.1c-.1-.1 0-.1-.1-.2s-.1.1-.2 0c0-.1 0-.3-.2-.3 0 0 .1 0 .1-.1l-.2-.2c0-.1.1 0 0-.1s-.2-.1-.4-.1c.1.1 0 .1 0 .2.2.2 0 .2.1.3.2.1.2-.1.3-.1.1.2.1.3.2.5-1.2-1-2.4-1.8-3-2.2l-.4-.2c-.2-.1-.4-.3-.4-.3l-.1.1-.3.3c-.1.1-.3.3-.5.4s-.3.3-.5.4-.4.3-.5.4c-.2.1-.3.2-.5.3-.1.1-.2.2-.3.2s-.1.1-.1.1c-.8.4-1.6.7-2.4.8-.7.1-1.4.1-1.8 0-.8-.1-1.5-.2-1.6-.1s-.1.2-.1.3h-.1c-.4 0-.6.8-.1.8.3 0 .4-.3.4-.5 0 0 .1 0 .1.1-.2.2-.3.7.1.7.1 0 .3-.1.3-.2 0 .1.1.2.2.2-.1.1-.1.2-.2.2 0-.1.1-.1 0-.1-.2.1-.2.1-.4.3-.1-.1-.1-.1-.2-.1v.1c.3.4 0 .5-.3.4 0 0 .1.1.1.2-.1-.1-.1 0-.2-.2-.2 0-.3 0-.5-.1v-.3c-.1.1-.2 0-.2 0-.2.2-.3 0-.4.1-.1.2.2.3.2.4-.2.1-.2.1-.3.1h-.1-.1-.1 0c0-.2-.1-.5.1-.7-.1-.1-.2 0-.2-.1.1 0 .2-.1.2-.2s-.1-.2-.1-.2c-.1 0-.2.2-.2.1-.1-.2.1-.4.3-.4 0-.2.3-.2.3-.2 0-.1.1-.4-.1-.4.1-.1.3-.2.2-.3-.2.2-.3.1-.4 0 .1 0 .1-.1.2-.2.6.3 1.1.4 1.3.2s0-.4-.3-.6-.6-.5-.5-.6c0-.1-.7-.6-1.5-1.3-.4-.3-.8-.7-1.1-1s-.6-.6-.8-.7c-.1-.1-.3 0-.5.2-.1.1 0 .3.1.6.1.1.2.3.3.5l.2.2-.2-.2c-.1.1-.2.3-.1.4.6-.1 0 .5-.1.9 0 .1.1.1.1.2-.3.1-.3-.2-.5-.3l.2-.2c0-.1-.1-.2-.1-.3s-.2 0-.2 0c-.1-.1 0-.1 0-.2.3-.2.3-.3.4-.5.1 0 .2-.1.3-.1l-.3-.3c-.1.1-.2.2-.2.4-.2.1-.2.2-.1.3-.2 0 0-.2-.2-.3.1-.1.1-.2.2-.2v-.5c-.1-.1-.2-.2-.3-.4-.1 0-.2.1-.3.1 0-.1-.1-.3-.3-.2-.1.1-.1.2-.1.4.1.1.1.1.1.3h.2c0 .2-.2.4 0 .5-.3.2-.4.1-.4-.2-.1 0-.1 0-.1.1s-.1.2 0 .3c-.1 0-.1.1-.1.1.1.2.2.2.3.5.1 0 .2-.1.2 0s-.1.1-.2.2c0 .1 0 .2.1.2.1-.1.4-.2.5-.3 0 .1.1.1.1.2-.1.1-.1.3-.3.4 0-.1-.1 0-.1-.1s.1-.1.2-.2v-.1c-.2.1-.1.2-.3.2.1.4.5.6.1 1.1-.2.1-.2-.1-.4 0 .1.1-.1.2 0 .2v-.1c0 .2 0 .2.1.3.2-.1.1-.2.3-.3.1.5.2.7.5.8.1 0 .1-.2.2-.1-.2.2-.3.6-.2.8-.3-.3-.6-.6-.8-.7-.9-.8-1.6-1.5-2.2-2.1-.1-.3-.1-.5-.3-.8l.2-.2c-.1-.3-.2-.3-.2-.5-.1 0-.2.1-.2.1-.2-.2.1-.5.1-.7.1 0 .2.1.4-.1.1.3.7.1.5.6.1 0 .1.2.2.3.1 0 .1-.1.1-.1-.1-.2-.1-.3.1-.5.2 0 .3.2.5.3 0-.2.2-.3.1-.5-.1.1-.3.1-.3-.1.1 0 .2-.1.3-.1.1.1 0 .1 0 .2.1-.1 0-.2.2-.2.1 0 .1.1.2.2.2 0 .2 0 .4-.2 0 .1.1.1.2 0a13.77 13.77 0 0 1-1.4-2.4l-.1-.1c-.1 0-.2.1-.3.2 0 .1.2 0 .3.1 0 .2.1.3 0 .5 0 0 .1-.1.1 0s-.1.2-.2.2c.2.4.2.9.4 1.2-.3.1-.1.3-.3.5a.76.76 0 0 1-.4.2v-.3c-.1 0-.3 0-.3-.1l-.2.2c-.1-.1 0-.1-.1-.2-.1 0 0 .1-.1.2 0-.1-.1 0-.1-.1 0-.2.2-.3.1-.5h-.3c0 .2-.4.1-.4.4 0-.2-.2-.2-.1-.5l.3-.3c0-.1-.3.1-.5.2-.1.1-.2.1-.2.1 0-.1-.1-.1-.1-.2 0 0 .1 0 .1-.1s-.1-.3 0-.4.2-.1.3-.1c0-.1-.1-.2-.1-.4.1-.1.3-.3.4-.5h-.1c-.2.2-.2.1-.4.2 0-.1-.1-.1-.2 0s.1.2 0 .2c-.2 0-.4-.4-.1-.5 0 .1.1.2.3.1 0-.1-.1-.1-.2-.2-.2.1-.3 0-.4-.1.1-.1.1-.2.3-.2 0 .1.1.1.2.1.1-.1 0-.2.1-.3.1 0 .2-.1.3-.2-.1 0-.2-.1-.2-.2-.2.2-.5.3-.5.4-.1 0-.2.1-.2 0 .1 0 .1 0 .1-.1-.1.1-.1.1-.3.2 0-.2-.1-.1-.1-.3-.1.2-.2.5-.1.7.1 0 .1-.1.2-.1s.1.1.1.2c.1 0 .3-.1.4-.1.1.1 0 .2 0 .4-.1 0-.1.2-.3.2 0 .1-.1.2 0 .3.2 0 .2.3.2.5.2 0 .2.3.1.5-.3-.1-.5-.4-.4-.7s-.1-.5-.5-.7c-.6-.1-.6-.3-.2-.7.6-.7.4-.9-.6-.7s-1.3 0-.3-.2c.4-.1.7-.2.8-.3s-.2 0-.7.1c-1.1.4-1.2.1-.2-.4.7-.3.7-.4.4-1-.1-.3-.2-.9 0-1.1v-.1s.1 0 .1.1-.2.2-.2.3c.1 0 0 .3.1.4 0 0 .1-.1.2 0 0 .1.1.1 0 .2.1 0 .2-.1.3-.1-.1.2-.2.5 0 .5 0-.1 0-.1.1-.2h.2c.1.1 0 .3 0 .4-.1-.1-.2.2-.2.3 0 0 .1-.1.1 0 0 .3-.1.6.2.8.2 0 .2-.2.3-.1-.2.1-.1.3-.2.4.1-.1.2-.1.3 0-.1.2.1.1.2.2.2-.1.1-.3.2-.4.2 0 .2.4.3.4.2-.3-.1-.5 0-.7-.1 0-.1.1-.1.1v-.3h.3c.2-.3.2-.6.4-.8 0 .1 0 .1.1.1.3-.3-.2-.1 0-.5 0 .2.1-.1.2 0 .1.2 0 .3.2.3-.1 0-.1.1-.1.1.1-.1.2-.1.2-.1.1.2.2.5.4.6.3.3.7.4.9.1.2-.5-.5-1.8-1-1.7h-.1l-.3-.9h-.1c-.1.2.1.2.1.5-.1 0-.1.1-.2.2 0-.1-.2 0-.1-.1-.3.2-.1.4-.4.6-.1-.1 0-.2 0-.2-.1 0-.2-.2-.3-.1s-.1.2-.2.2c.3 0 .3.3.4.5-.1.1 0 .1-.1.2.1 0 .3-.1.3 0-.2.2-.3.3-.2.4h-.3c0-.1 0-.2.1-.3h-.1l-.3.3c-.1-.2-.3-.3-.2-.5-.1.1-.1 0-.1-.1h-.2c-.1-.1.2-.2.2-.4.1 0 .2-.2.3-.1.1-.1.1-.2.2-.2 0-.2-.2.1-.1-.1-.1 0-.1.1-.1.1-.1-.1-.2 0-.3-.1-.2.2-.2 0-.3 0 0-.1.2-.3.4-.3.3-.3 0-.4-.1-.6-.1 0-.2.1-.2-.1-.2.2-.3 0-.5.1 0-.1-.1-.2-.1-.3.1-.1.1-.1.3-.1v-.2c.1.1.2.1.3.1s.1-.1.2-.1c0 0 .1.1.1.2.1.1.3-.2.4 0 .1-.2-.1-.3-.2-.4 0-.2-.2-.7-.3-.8v-.5c.2 0 .3.1.4.2-.1.1-.1.1-.1.2 0 0 .1 0 .1-.1.1.3 0 .4.2.5-.2.3.2.3.1.7.1.1.1-.2.2-.1 0-.3 0-.4-.2-.5 0-.1 0-.2.1-.3-.1.3.2.1.3 0 .2.2 0 .4.2.5-.1.1-.1.1-.1.2.1.1 0 .3.1.4.1-.1.1-.2.2-.2s.2.2.1.4h.1c-.1-.3-.1-.6-.2-.8v-.1c-.2-.8-.4-1.7-.5-2.5.2-.2.1-.3-.1-.4 0-.2-.1-.4-.1-.6s-.2-.1-.2-.3l.1-.1v-.1c.1-.1.1-.2 0-.3 0-.2-.1-.3-.1-.3v-.1.2h-.1c-.1-.1-.1-.2-.1 0 0 0-.3-.2-.1-.4.1.1.2.2.4.1v-.1c.1 0 .1-.1 0-.1 0-.3-.1-.7-.1-1-.1 0-.2-.2-.1-.3l.1.1-.3-1.6v.1c-.1.1-.1 0-.1 0-.1.1.1.1 0 .2l-.1.1c0-.2-.1-.1-.2-.3.1 0 .2-.2.3-.2l-.3-1.8h.1c.2 0 .3-.8.3-1.8s-.1-2.3-.3-3.5c-.1-.6-.2-1.4-.2-1.8v-1.9l24.6-3.1c2.5-.2 5.7-.7 8.8-1.7 1.4-.5 2.8-.9 2.9-.8s1-.3 1.8-1c.2-.2.4-.4.6-.5.2-.2.3-.4.5-.6.3-.4.4-.7.4-.8-1-1-2.4-2.2-3.8-3.6" class="K"/><path d="M88.4 41.6c0 .1.2.1.3 0s.1-.2-.1-.2-.2.1-.2.2m4.3.7c-.1-.2-.2-.1-.4.2-.3.4-.2.5.2.3.2-.2.3-.4.2-.5m-1.5-1.8c-.2.2-.1.5.1.8s.6.4.8.3c.2-.2.1-.5-.1-.8-.3-.3-.6-.5-.8-.3M88.6 36c0 .1.1.1.2 0s.1-.2 0-.2c-.1.1-.2.1-.2.2m2.1 3.7c.1.1.2.2.3 0 0-.1 0-.2-.2-.2-.1-.1-.2 0-.1.2" class="K"/></g><g class="J"><path d="M45.4 72.5c-1.4 0-2.5.4-3.3 1.3-.9.9-1.3 2-1.3 3.3s.4 2.4 1.3 3.2c.9.9 2 1.3 3.3 1.3s2.4-.4 3.3-1.3 1.3-2 1.3-3.3-.4-2.3-1.3-3.2c-1-.9-2.1-1.3-3.3-1.3m-.1-1.6c1.8 0 3.4.6 4.6 1.8s1.8 2.7 1.8 4.4c0 1.8-.6 3.2-1.8 4.4s-2.8 1.7-4.7 1.7c-1.8 0-3.3-.6-4.5-1.7-1.2-1.2-1.8-2.6-1.8-4.4s.6-3.3 1.8-4.5 2.8-1.7 4.6-1.7m15.3 1.6h-1.8v3.8h1.9c.7 0 1.2-.2 1.6-.5s.6-.8.6-1.4c0-1.2-.8-1.9-2.3-1.9m-3.4 10.6V71H61c1.1 0 2 .3 2.7.9s1 1.5 1 2.5c0 .7-.2 1.3-.5 1.9-.3.5-.8.9-1.4 1.2-.6.2-1.5.4-2.6.4h-1.3v5.2h-1.7z" class="K"/><use xlink:href="#B"/></g><defs><path id="I" d="M0 0h309v100.6H0z"/></defs><clipPath id="J"><use xlink:href="#I"/></clipPath><g class="J"><path d="M84 72.5h-.5v3.8h.6c.9 0 1.4-.1 1.8-.2a1.21 1.21 0 0 0 .7-.7 1.69 1.69 0 0 0 .3-1 1.69 1.69 0 0 0-.3-1c-.2-.3-.5-.5-.8-.6-.3-.2-.9-.3-1.8-.3m-2.2 10.6V71h3c1.2 0 2.2.3 2.9.9a3.04 3.04 0 0 1 1.1 2.4c0 .7-.2 1.3-.5 1.8s-.8.9-1.5 1.1c.4.3.7.6 1.1 1s.9 1.2 1.5 2.3c.4.7.7 1.2 1 1.5l.6.9h-2l-.5-.8-.1-.1-.4-.4-.5-.9-.6-.9-1-1.2c-.3-.3-.6-.5-.8-.6s-.6-.2-1.2-.2h-.4V83h-1.7z" clip-path="url(#J)"/><path d="M95.7 71h6.8v1.6h-5.1v3.6h4.9v1.6h-4.9v3.7h5.2V83h-6.9zm20.5 0h6.4v1.6h-4.7v3.3h4.7v1.6h-4.7v5.6h-1.7z"/></g><defs><path id="K" d="M0 0h309v100.6H0z"/></defs><clipPath id="L"><use xlink:href="#K"/></clipPath><g class="J"><path d="M130.1 72.5h-.5v3.8h.6c.9 0 1.4-.1 1.8-.2a1.21 1.21 0 0 0 .7-.7 1.69 1.69 0 0 0 .3-1 1.69 1.69 0 0 0-.3-1c-.2-.3-.5-.5-.8-.6-.4-.2-1-.3-1.8-.3m-2.2 10.6V71h3c1.2 0 2.2.3 2.9.9a3.04 3.04 0 0 1 1.1 2.4c0 .7-.2 1.3-.5 1.8s-.8.9-1.5 1.1c.4.3.7.6 1.1 1s.9 1.2 1.5 2.3c.4.7.7 1.2 1 1.5l.6.9h-2l-.5-.8-.1-.1-.3-.5-.5-.9-.6-.9-1-1.2c-.3-.3-.6-.5-.8-.6s-.6-.2-1.2-.2h-.4v5.2h-1.8z" clip-path="url(#L)"/><use xlink:href="#C"/><path d="M166.3 71h1.6v12.1h-1.4l-8-9.3v9.3h-1.6V71h1.4l8 9.4z"/></g><defs><path id="M" d="M0 0h309v100.6H0z"/></defs><clipPath id="N"><use xlink:href="#M"/></clipPath><g class="J"><path d="M184.2 80.3v1.9c-1.2.7-2.7 1-4.3 1-1.3 0-2.4-.3-3.4-.8a5.81 5.81 0 0 1-2.2-2.2c-.5-.9-.8-2-.8-3.1 0-1.8.6-3.2 1.8-4.4s2.7-1.8 4.6-1.8c1.2 0 2.6.3 4.2 1v1.9c-1.4-.8-2.7-1.2-4.1-1.2s-2.5.4-3.4 1.3-1.3 2-1.3 3.3.4 2.4 1.3 3.3c.9.8 2 1.3 3.4 1.3 1.4-.2 2.8-.6 4.2-1.5" clip-path="url(#N)"/><use xlink:href="#B" x="120.1"/></g><defs><path id="O" d="M0 0h309v100.6H0z"/></defs><clipPath id="P"><use xlink:href="#O"/></clipPath><g class="J"><path d="M204.8 78l-1.3-.8c-.8-.5-1.4-1-1.7-1.5s-.5-1-.5-1.7c0-.9.3-1.7 1-2.3.6-.6 1.5-.9 2.5-.9s1.9.3 2.7.8v2c-.9-.8-1.8-1.3-2.8-1.3-.6 0-1 .1-1.4.4s-.5.6-.5 1 .1.7.4 1 .7.6 1.3 1l1.3.8c1.4.9 2.2 2 2.2 3.3 0 1-.3 1.7-1 2.4-.6.6-1.5.9-2.5.9-1.2 0-2.2-.4-3.2-1.1v-2.2c.9 1.2 2 1.8 3.2 1.8.5 0 1-.2 1.3-.5.4-.3.5-.7.5-1.1.1-.6-.4-1.3-1.5-2m18.7 2.3v1.9c-1.2.7-2.7 1-4.3 1-1.3 0-2.4-.3-3.4-.8a5.81 5.81 0 0 1-2.2-2.2c-.5-.9-.8-2-.8-3.1 0-1.8.6-3.2 1.8-4.4s2.7-1.8 4.6-1.8c1.2 0 2.6.3 4.2 1v1.9c-1.4-.8-2.7-1.2-4.1-1.2s-2.5.4-3.4 1.3-1.3 2-1.3 3.3.4 2.4 1.3 3.3c.9.8 2 1.3 3.4 1.3 1.5-.2 2.9-.6 4.2-1.5" clip-path="url(#P)"/><use xlink:href="#C" x="87.7"/><path d="M254 71h1.7v12.1h-1.5l-7.9-9.3v9.3h-1.6V71h1.3l8 9.4zm7.7 0h6.7v1.6h-5v3.6h4.8v1.6h-4.8v3.7h5.1V83h-6.8z"/></g></svg>