<?xml version="1.0" encoding="utf-8"?>
<!-- Generator: Adobe Illustrator 24.3.0, SVG Export Plug-In . SVG Version: 6.00 Build 0)  -->
<svg version="1.1" id="Laag_1" xmlns="http://www.w3.org/2000/svg" xmlns:xlink="http://www.w3.org/1999/xlink" x="0px" y="0px"
	 width="217.9px" height="44px" viewBox="0 0 217.9 44" style="enable-background:new 0 0 217.9 44;" xml:space="preserve">
<style type="text/css">
	.st0{fill:#FFFFFF;}
</style>
<path class="st0" d="M210.3,44H0l0.8-4.6l2.1-11.9L7.6,0h210.3L210.3,44z"/>
<g>
	<path d="M45.5,37h-6.7v-2.1c-0.6,0.8-1.3,1.4-2,1.7c-1.1,0.6-2.4,1-3.9,1c-2.4,0-4.5-0.8-6.3-2.4c-2.2-2-3.3-4.5-3.3-7.7
		s1.1-5.9,3.4-7.8c1.8-1.5,3.8-2.3,6.2-2.3c1.3,0,2.6,0.3,3.8,0.8c0.7,0.3,1.4,0.8,2.1,1.6V6.3h6.7L45.5,37L45.5,37z M39,27.5
		c0-1.2-0.4-2.2-1.3-3.1c-0.8-0.8-1.9-1.3-3.1-1.3c-1.3,0-2.4,0.5-3.3,1.5c-0.7,0.8-1,1.7-1,2.8s0.3,2,1,2.8c0.8,1,2,1.5,3.3,1.5
		c1.2,0,2.2-0.4,3.1-1.3S39,28.8,39,27.5z"/>
	<path d="M71.5,37h-6.7v-2.1c-0.6,0.8-1.3,1.4-2,1.7c-1.1,0.6-2.4,1-3.9,1c-2.4,0-4.5-0.8-6.3-2.4c-2.2-2-3.3-4.5-3.3-7.7
		s1.1-5.9,3.4-7.8c1.8-1.5,3.8-2.3,6.2-2.3c1.3,0,2.6,0.3,3.8,0.8c0.7,0.3,1.4,0.8,2.1,1.6V18h6.7L71.5,37L71.5,37z M65,27.5
		c0-1.2-0.4-2.2-1.3-3.1c-0.8-0.8-1.9-1.3-3.1-1.3c-1.3,0-2.4,0.5-3.3,1.5c-0.7,0.8-1,1.7-1,2.8s0.3,2,1,2.8c0.8,1,2,1.5,3.3,1.5
		c1.2,0,2.2-0.4,3.1-1.3C64.6,29.8,65,28.7,65,27.5z"/>
	<path d="M96.2,37h-6.7v-9.7c0-1.7-0.2-2.8-0.6-3.4c-0.6-0.8-1.4-1.2-2.5-1.2c-1,0-1.9,0.3-2.6,1c-0.6,0.6-0.9,1.6-0.9,2.9V37h-6.7
		V18h6.7v2.4c0.8-0.9,1.5-1.5,2.2-1.9c1-0.6,2.4-0.9,4-0.9c2,0,3.7,0.6,5,1.7c1.5,1.3,2.2,3.1,2.2,5.7C96.2,24.9,96.2,37,96.2,37z"
		/>
	<path d="M134.5,27.5c0,2.7-0.8,4.9-2.6,6.8c-2.1,2.3-5,3.4-8.8,3.4c-3.8,0-6.7-1.1-8.9-3.4c-1.7-1.9-2.6-4.2-2.6-6.9
		c0-2.4,0.8-4.7,2.7-6.6c2.1-2.3,5.1-3.5,9-3.5c3.6,0,6.4,1.2,8.6,3.5C133.6,22.7,134.5,24.9,134.5,27.5z M127.5,27.5
		c0-1.3-0.4-2.3-1.3-3.1c-0.8-0.8-1.9-1.3-3.1-1.3c-1.4,0-2.5,0.5-3.4,1.5c-0.7,0.8-1,1.8-1,2.9s0.3,2,1,2.9c0.8,1,2,1.5,3.4,1.5
		c1.3,0,2.3-0.4,3.1-1.3C127.1,29.8,127.5,28.8,127.5,27.5z"/>
	<path d="M160.5,27.5c0,2.7-0.8,4.9-2.6,6.8c-2.1,2.3-5,3.4-8.8,3.4c-3.8,0-6.7-1.1-8.9-3.4c-1.7-1.9-2.6-4.2-2.6-6.9
		c0-2.4,0.8-4.7,2.7-6.6c2.1-2.3,5.1-3.5,9-3.5c3.6,0,6.4,1.2,8.6,3.5C159.7,22.7,160.5,24.9,160.5,27.5z M153.5,27.5
		c0-1.3-0.4-2.3-1.3-3.1c-0.8-0.8-1.9-1.3-3.1-1.3c-1.4,0-2.5,0.5-3.4,1.5c-0.7,0.8-1,1.8-1,2.9s0.3,2,1,2.9c0.8,1,2,1.5,3.4,1.5
		c1.3,0,2.3-0.4,3.1-1.3C153.1,29.8,153.5,28.8,153.5,27.5z"/>
	<path d="M171.5,10.7c0,1-0.3,2-1.1,2.7c-0.7,0.7-1.6,1.1-2.7,1.1c-1,0-2-0.3-2.7-1.1c-0.7-0.8-1.1-1.6-1.1-2.7s0.3-2,1.1-2.7
		c0.7-0.7,1.6-1.1,2.7-1.1c1,0,2,0.3,2.7,1.1C171.1,8.8,171.5,9.7,171.5,10.7z M171.1,37h-6.7V18h6.7V37z"/>
	<path d="M187,23.5h-3.8V37h-6.7V23.5h-2.2V18h2.2v-5.7h6.7V18h3.8V23.5z"/>
	<path d="M194.6,34.9c0,0.7-0.2,1.3-0.7,1.7s-1,0.7-1.7,0.7c-0.7,0-1.3-0.2-1.8-0.7c-0.5-0.5-0.7-1-0.7-1.7s0.2-1.3,0.7-1.7
		s1.1-0.7,1.8-0.7c0.7,0,1.3,0.2,1.7,0.7C194.3,33.6,194.6,34.2,194.6,34.9z"/>
</g>
</svg>
