<?xml version="1.0" encoding="utf-8"?>
<!-- Generator: Adobe Illustrator 24.3.0, SVG Export Plug-In . SVG Version: 6.00 Build 0)  -->
<svg version="1.1" id="Laag_1" xmlns="http://www.w3.org/2000/svg" xmlns:xlink="http://www.w3.org/1999/xlink" x="0px" y="0px"
	 width="124.4px" height="26.7px" viewBox="0 0 124.4 26.7" style="enable-background:new 0 0 124.4 26.7;" xml:space="preserve">
<style type="text/css">
	.st0{fill:#FFFFFF;}
</style>
<g>
	<path class="st0" d="M6.7,10.6c0-0.4,0.1-0.8,0.2-1.1s0.3-0.6,0.6-0.8C7.8,8.5,8,8.3,8.3,8.2C8.6,8.1,8.9,8,9.2,8
		c0.3,0,0.6,0.1,0.9,0.2s0.6,0.3,0.8,0.5c0.2,0.2,0.4,0.5,0.6,0.8c0.1,0.3,0.2,0.7,0.2,1.1v5.5c0,0.4-0.1,0.8-0.2,1.1
		c-0.1,0.3-0.3,0.6-0.6,0.8c-0.2,0.2-0.5,0.4-0.8,0.5s-0.6,0.2-0.9,0.2c-0.3,0-0.6-0.1-0.9-0.2C8,18.4,7.8,18.2,7.5,18
		c-0.2-0.2-0.4-0.5-0.6-0.8c-0.1-0.3-0.2-0.7-0.2-1.1V10.6z M8.2,16.1c0,0.4,0.1,0.6,0.3,0.8c0.2,0.2,0.4,0.3,0.7,0.3
		c0.3,0,0.5-0.1,0.7-0.3c0.2-0.2,0.3-0.4,0.3-0.8v-5.5c0-0.4-0.1-0.6-0.3-0.8C9.7,9.6,9.5,9.5,9.2,9.5C9,9.5,8.7,9.6,8.5,9.8
		c-0.2,0.2-0.3,0.4-0.3,0.8V16.1z"/>
	<path class="st0" d="M13,18.6V8.1h1.4l2.3,6.3h0V8.1h1.5v10.5h-1.4l-2.3-6.3h0v6.3H13z"/>
	<path class="st0" d="M20.6,18.6V9.5h-1.7V8.1h5v1.4h-1.7v9.1H20.6z"/>
	<path class="st0" d="M24.5,18.6V8.1h2.2c0.9,0,1.5,0.2,2,0.7c0.4,0.5,0.7,1.1,0.7,2v4.9c0,1-0.2,1.7-0.7,2.2
		c-0.5,0.5-1.2,0.7-2.1,0.7H24.5z M26,9.5v7.6h0.7c0.4,0,0.7-0.1,0.9-0.3c0.2-0.2,0.3-0.5,0.3-1v-5c0-0.4-0.1-0.7-0.3-1
		c-0.2-0.2-0.5-0.3-0.9-0.3H26z"/>
	<path class="st0" d="M30.8,18.6V8.1h4.5v1.4h-3v3.1h2.6V14h-2.6v3.1h3v1.5H30.8z"/>
	<path class="st0" d="M36.2,18.6V8.1h1.5v4.8h0l2.2-4.8h1.5l-2,4.2l2.4,6.3h-1.6l-1.7-4.6l-0.8,1.5v3.1H36.2z"/>
	<path class="st0" d="M45.2,18.6V8.1h2.2c0.9,0,1.5,0.2,2,0.7c0.4,0.5,0.7,1.1,0.7,2v4.9c0,1-0.2,1.7-0.7,2.2
		c-0.5,0.5-1.2,0.7-2.1,0.7H45.2z M46.7,9.5v7.6h0.7c0.4,0,0.7-0.1,0.9-0.3c0.2-0.2,0.3-0.5,0.3-1v-5c0-0.4-0.1-0.7-0.3-1
		c-0.2-0.2-0.5-0.3-0.9-0.3H46.7z"/>
	<path class="st0" d="M51.5,18.6V8.1h4.5v1.4h-3v3.1h2.6V14H53v3.1h3v1.5H51.5z"/>
	<path class="st0" d="M59.6,10.6c0-0.4,0.1-0.8,0.2-1.1c0.1-0.3,0.3-0.6,0.6-0.8c0.2-0.2,0.5-0.4,0.8-0.5C61.5,8.1,61.8,8,62.1,8
		c0.3,0,0.6,0.1,0.9,0.2s0.6,0.3,0.8,0.5c0.2,0.2,0.4,0.5,0.6,0.8c0.1,0.3,0.2,0.7,0.2,1.1v5.5c0,0.4-0.1,0.8-0.2,1.1
		c-0.1,0.3-0.3,0.6-0.6,0.8c-0.2,0.2-0.5,0.4-0.8,0.5s-0.6,0.2-0.9,0.2c-0.3,0-0.6-0.1-0.9-0.2c-0.3-0.1-0.6-0.3-0.8-0.5
		c-0.2-0.2-0.4-0.5-0.6-0.8c-0.1-0.3-0.2-0.7-0.2-1.1V10.6z M61.1,16.1c0,0.4,0.1,0.6,0.3,0.8c0.2,0.2,0.4,0.3,0.7,0.3
		c0.3,0,0.5-0.1,0.7-0.3c0.2-0.2,0.3-0.4,0.3-0.8v-5.5c0-0.4-0.1-0.6-0.3-0.8c-0.2-0.2-0.4-0.3-0.7-0.3c-0.3,0-0.5,0.1-0.7,0.3
		c-0.2,0.2-0.3,0.4-0.3,0.8V16.1z"/>
	<path class="st0" d="M65.8,18.6V8.1h1.4l2.3,6.3h0V8.1h1.5v10.5h-1.4l-2.3-6.3h0v6.3H65.8z"/>
	<path class="st0" d="M72.4,18.6V8.1h1.5v9h3v1.5H72.4z"/>
	<path class="st0" d="M77.9,18.6V8.1h1.5v10.5H77.9z"/>
	<path class="st0" d="M80.8,18.6V8.1h1.4l2.3,6.3h0V8.1h1.5v10.5h-1.4l-2.3-6.3h0v6.3H80.8z"/>
	<path class="st0" d="M87.4,18.6V8.1h4.5v1.4h-3v3.1h2.6V14h-2.6v3.1h3v1.5H87.4z"/>
	<path class="st0" d="M95.6,18.6V8.1h4.5v1.4h-3v3.1h2.6V14h-2.6v3.1h3v1.5H95.6z"/>
	<path class="st0" d="M100.3,18.6l2.1-5.5l-2-5h1.6l1.1,3.1l1.1-3.1h1.6l-2,5l2.2,5.5h-1.6l-1.3-3.5l-1.3,3.5H100.3z"/>
	<path class="st0" d="M106.8,18.6V8.1h2.3c0.4,0,0.8,0.1,1.1,0.2c0.3,0.1,0.6,0.3,0.9,0.6c0.3,0.3,0.4,0.6,0.5,1
		c0.1,0.4,0.1,0.9,0.1,1.5c0,0.5,0,0.9-0.1,1.2c-0.1,0.3-0.2,0.6-0.3,0.9c-0.2,0.3-0.5,0.6-0.8,0.8c-0.3,0.2-0.8,0.3-1.4,0.3h-0.8
		v4.1H106.8z M108.3,9.5v3.6h0.7c0.3,0,0.5,0,0.7-0.1c0.2-0.1,0.3-0.2,0.4-0.4c0.1-0.1,0.1-0.3,0.1-0.5c0-0.2,0-0.5,0-0.7
		c0-0.2,0-0.5,0-0.7c0-0.2-0.1-0.4-0.1-0.6c-0.1-0.2-0.2-0.3-0.4-0.4c-0.2-0.1-0.4-0.1-0.7-0.1H108.3z"/>
	<path class="st0" d="M112.6,10.6c0-0.4,0.1-0.8,0.2-1.1c0.1-0.3,0.3-0.6,0.6-0.8c0.2-0.2,0.5-0.4,0.8-0.5c0.3-0.1,0.6-0.2,0.9-0.2
		s0.6,0.1,0.9,0.2s0.6,0.3,0.8,0.5c0.2,0.2,0.4,0.5,0.6,0.8c0.1,0.3,0.2,0.7,0.2,1.1v5.5c0,0.4-0.1,0.8-0.2,1.1
		c-0.1,0.3-0.3,0.6-0.6,0.8c-0.2,0.2-0.5,0.4-0.8,0.5s-0.6,0.2-0.9,0.2s-0.6-0.1-0.9-0.2c-0.3-0.1-0.6-0.3-0.8-0.5
		c-0.2-0.2-0.4-0.5-0.6-0.8c-0.1-0.3-0.2-0.7-0.2-1.1V10.6z M114.1,16.1c0,0.4,0.1,0.6,0.3,0.8c0.2,0.2,0.4,0.3,0.7,0.3
		c0.3,0,0.5-0.1,0.7-0.3c0.2-0.2,0.3-0.4,0.3-0.8v-5.5c0-0.4-0.1-0.6-0.3-0.8c-0.2-0.2-0.4-0.3-0.7-0.3c-0.3,0-0.5,0.1-0.7,0.3
		c-0.2,0.2-0.3,0.4-0.3,0.8V16.1z"/>
</g>
</svg>
