<?xml version="1.0" encoding="utf-8"?>
<!-- Generator: Adobe Illustrator 22.0.0, SVG Export Plug-In . SVG Version: 6.00 Build 0)  -->
<svg version="1.1" id="Laag_1" xmlns="http://www.w3.org/2000/svg" xmlns:xlink="http://www.w3.org/1999/xlink" x="0px" y="0px"
	 viewBox="0 0 120.8 37" style="enable-background:new 0 0 120.8 37;" xml:space="preserve">
<g>
	<path d="M11.5,23v9.5H8.1V4.1h4.6c2.7,0,4.5,1,4.5,2.9v13.1c0,2-1.9,3-4.5,3L11.5,23L11.5,23z M13.7,19.9V7.1
		c0-0.7-0.5-1.1-1.3-1.1h-1v14.9h1C13.3,21,13.7,20.6,13.7,19.9z"/>
	<path d="M24.9,32.5l-1.1-11.6h-1.5v11.6H19V4.1h4.6C26.3,4.1,28,5,28,7v10.9c0,1-0.5,1.7-1.2,2.1l1.5,12.5
		C28.3,32.5,24.9,32.5,24.9,32.5z M23.2,18.9c0.9,0,1.3-0.3,1.3-1.1V7.2c0-0.7-0.5-1.1-1.3-1.1h-0.9V19L23.2,18.9L23.2,18.9z"/>
	<path d="M36.7,30.5v2H30V4.1h6.6v2h-3.2v10.7h3v2h-3v11.8L36.7,30.5L36.7,30.5z"/>
	<path d="M43.7,14.5V6.7c0-0.5-0.4-0.8-1.1-0.8c-0.7,0-1.1,0.3-1.1,0.7v7.7c0,0.9,0.3,1.3,1.3,1.7l1.5,0.5c1.8,0.7,2.8,1.4,2.8,3.2
		v9.9c0,1.9-1.7,2.9-4.5,2.9s-4.6-1-4.6-2.8v-9.4h3.4v9.3c0,0.5,0.4,0.9,1.2,0.9c0.7,0,1.1-0.4,1.1-0.8v-9.3c0-1-0.4-1.4-1.4-1.8
		L40.7,18c-1.8-0.7-2.7-1.5-2.7-3.3V6.5c0-1.6,1.5-2.7,4.6-2.7c2.9,0,4.4,1,4.4,2.7v7.9L43.7,14.5L43.7,14.5z"/>
	<path d="M55.8,30.5v2h-6.7V4.1h6.6v2h-3.2v10.7h3v2h-3v11.8L55.8,30.5L55.8,30.5z"/>
	<path d="M63.4,11.9V4.1h3v28.5h-3.2l-3-18.5H60l0.4,9.7v8.8h-3V4.1h3.3l2.9,17.5h0.3L63.4,11.9z"/>
	<path d="M76.3,6.1h-2.7v26.5h-3.4V6.1h-2.7v-2h8.8V6.1z"/>
	<path d="M84.1,30.5v2h-6.7V4.1H84v2h-3.2v10.7h3v2h-3v11.8L84.1,30.5L84.1,30.5z"/>
	<path d="M91.6,32.5l-1.1-11.6H89v11.6h-3.3V4.1h4.6C93,4.1,94.7,5,94.7,7v10.9c0,1-0.5,1.7-1.2,2.1L95,32.5H91.6z M89.9,18.9
		c0.9,0,1.3-0.3,1.3-1.1V7.2c0-0.7-0.5-1.1-1.3-1.1H89V19L89.9,18.9L89.9,18.9z"/>
	<path d="M103.4,30.5v2h-6.7V4.1h6.6v2h-3.2v10.7h3v2h-3v11.8L103.4,30.5L103.4,30.5z"/>
	<path d="M110.9,11.9V4.1h3v28.5h-3.2l-3-18.5h-0.3l0.4,9.7v8.8h-3V4.1h3.3l2.9,17.5h0.3L110.9,11.9z"/>
	<path d="M7,36.3v-1.5h108v1.5H7z"/>
</g>
</svg>
