<?xml version="1.0" encoding="utf-8"?>
<!-- Generator: Adobe Illustrator 22.0.0, SVG Export Plug-In . SVG Version: 6.00 Build 0)  -->
<svg version="1.1" id="Laag_1" xmlns="http://www.w3.org/2000/svg" xmlns:xlink="http://www.w3.org/1999/xlink" x="0px" y="0px"
	 viewBox="0 0 127 60.5" style="enable-background:new 0 0 127 60.5;" xml:space="preserve">
<style type="text/css">
	.st0{fill:#FFFFFF;}
</style>
<path class="st0" d="M8.2,40.5l1.3-13.3h4.6v28.5h-3v-10l0.2-11.4H11L9.3,55.6H5.9L4.1,34.2H3.9l0.2,11.4v10h-3V27.2h4.7l1.3,13.4
	l0.4,6.8h0.3L8.2,40.5z"/>
<path class="st0" d="M23,53.6v2h-6.7V27.2h6.6v2h-3.2v10.7h3v2h-3v11.8L23,53.6L23,53.6z"/>
<path class="st0" d="M32.3,29.2h-2.7v26.5h-3.4V29.2h-2.7v-2h8.8V29.2z"/>
<path class="st0" d="M39.4,55.6L38.3,44h-1.5v11.6h-3.3V27.2H38c2.7,0,4.4,0.9,4.4,2.9V41c0,1-0.5,1.7-1.2,2.1l1.5,12.5H39.4z
	 M37.6,42c0.9,0,1.3-0.3,1.3-1.1V30.3c0-0.7-0.5-1.1-1.3-1.1h-0.9v12.9L37.6,42L37.6,42z"/>
<path class="st0" d="M53.4,30.1v22.6c0,2-1.6,3.1-4.5,3.1c-3,0-4.5-1.1-4.5-3.1V30.1c0-2,1.6-3.1,4.5-3.1
	C51.8,27,53.4,28.1,53.4,30.1z M49.9,29.9c0-0.5-0.4-0.9-1.1-0.9c-0.7,0-1.1,0.3-1.1,0.9v22.9c0,0.6,0.5,0.9,1.1,0.9
	c0.7,0,1.1-0.4,1.1-0.9V29.9z"/>
<path class="st0" d="M58.8,46.1v9.5h-3.3V27.2h4.6c2.7,0,4.5,1,4.5,2.9v13.1c0,2-1.9,3-4.5,3L58.8,46.1L58.8,46.1z M61.1,43V30.2
	c0-0.7-0.5-1.1-1.3-1.1h-1V44h1C60.7,44.1,61.1,43.7,61.1,43z"/>
<path class="st0" d="M75.2,30.1v22.6c0,2-1.6,3.1-4.5,3.1c-3,0-4.5-1.1-4.5-3.1V30.1c0-2,1.6-3.1,4.5-3.1
	C73.7,27,75.2,28.1,75.2,30.1z M71.8,29.9c0-0.5-0.4-0.9-1.1-0.9s-1.1,0.3-1.1,0.9v22.9c0,0.6,0.5,0.9,1.1,0.9
	c0.7,0,1.1-0.4,1.1-0.9V29.9z"/>
<path class="st0" d="M83.9,53.6v2h-6.5V27.2h3.3v26.5L83.9,53.6L83.9,53.6z"/>
<path class="st0" d="M88.3,27.2v28.5H85V27.2H88.3z"/>
<path class="st0" d="M96,37.6v-7.8c0-0.5-0.4-0.8-1.1-0.8s-1.1,0.3-1.1,0.7v7.7c0,0.9,0.3,1.3,1.3,1.7l1.5,0.5
	c1.8,0.7,2.8,1.4,2.8,3.2v9.9c0,1.9-1.7,2.9-4.5,2.9s-4.6-1-4.6-2.8v-9.4h3.4v9.3c0,0.5,0.4,0.9,1.2,0.9c0.7,0,1.1-0.4,1.1-0.8v-9.3
	c0-1-0.4-1.4-1.4-1.8L93,41.1c-1.8-0.7-2.7-1.5-2.7-3.3v-8c0-1.6,1.5-2.7,4.6-2.7c2.9,0,4.4,1,4.4,2.7v7.9H96V37.6z"/>
<path class="st0" d="M116.4,40.8l-0.3,3.3h2.9l-0.3,1.7h-2.8l-1.4,12.9h-2.8l1.4-12.8h-2.4l-1.5,12.8h-2.8l1.4-12.8h-3.1l0.3-1.7h3
	l0.3-3.3h-2.8l0.3-1.7h2.7l1.3-12.1h2.8l-1.3,12.1h2.4L115,27h2.8l-1.3,12.1h3.1l-0.3,1.7C119.3,40.8,116.4,40.8,116.4,40.8z
	 M113.5,40.8h-2.4l-0.3,3.3h2.4L113.5,40.8z"/>
<path class="st0" d="M125.3,27.1v28.5H122V31.7h-1.9v-1.5c2.5-0.2,2.9-1.6,3-3.1H125.3z"/>
<path class="st0" d="M0,59.4v-1.5h100.3v1.5H0z"/>
<path class="st0" d="M119.9,59.4v-1.5h6.4v1.5H119.9z"/>
</svg>
