<?xml version="1.0" encoding="utf-8"?>
<!-- Generator: Adobe Illustrator 24.3.0, SVG Export Plug-In . SVG Version: 6.00 Build 0)  -->
<svg version="1.1" id="Laag_1" xmlns="http://www.w3.org/2000/svg" xmlns:xlink="http://www.w3.org/1999/xlink" x="0px" y="0px"
	 width="987.1px" height="265.5px" viewBox="0 0 987.1 265.5" style="enable-background:new 0 0 987.1 265.5;" xml:space="preserve"
	>
<style type="text/css">
	.st0{fill:#FFFFFF;}
</style>
<g>
	<path class="st0" d="M179.7,35.2V23.5c0-6.6,3.3-9.4,9.7-10.7v4.5c-4.1,1.7-4.1,2.6-4.1,6.8h4.8v11H179.7z M193.4,35.2
		c0-4.1,0-8.1,0-12.2c0-3.4,0.6-5.5,3.4-7.6c1.9-1.4,4.2-2.1,6.5-2.2v4.2c-3.9,1.5-4.4,2.3-4.4,6.7h5v11H193.4z"/>
	<path class="st0" d="M246.4,70l-3.3-11h-21.2l-3.3,11h-11.4l19.1-56.5h12L257.7,70H246.4z M232.5,23.7l-7.8,26h15.6L232.5,23.7z"/>
	<path class="st0" d="M289,70V49.6c0-3.1,0-4.6-0.4-6.2c-1.1-4.6-4.7-5.3-6.6-5.3c-1,0-3,0.2-5,1.8c-2.9,2.4-3.8,5.8-3.8,12.6V70
		h-9.7V30h9.7v4.7c0.2-0.2,1-1.3,1.8-2.1c3.8-3.5,9.2-3.8,10.6-3.8c5.9,0,9.4,3,10.6,4.9c2.6,3.7,2.3,8.7,2.3,12.8V70H289z"/>
	<path class="st0" d="M368.8,58.8c-1.6,4.1-6.8,12.4-18.7,12.4c-1.7,0-5.1-0.1-9-1.8c-4.2-1.8-11.8-7.4-11.8-19.5
		c0-4.3,1.2-7.5,1.8-9c1.7-4,6.8-12.1,18.7-12.1c1.5,0,5,0.2,8.8,1.8c4.3,1.8,11.8,7.2,11.8,19.2C370.4,51.3,370.3,55.1,368.8,58.8z
		 M349.6,37.5c-0.9,0-3.3,0.2-5.4,1.5c-2.1,1.4-4.9,4.6-4.9,10.6c0,1.9,0.2,3.6,0.8,5.4c0.6,1.9,3.4,7.4,10,7.4
		c7.3,0,10.6-6.4,10.3-12.7C360.2,43.5,356.6,37.5,349.6,37.5z"/>
	<path class="st0" d="M412.9,63.9c-4.7,6.6-11.2,7.4-14.2,7.4c-2.4,0-6.6-0.5-10.9-4.5v16.3h-9.6V30h9.6v3.6c1.6-1.7,4.9-4.8,11-4.8
		c2.6,0,8.2,0.5,12.8,5.8c2.1,2.5,5.4,7.7,5.4,15.7C416.9,52.5,416.8,58.5,412.9,63.9z M406.4,44.8c-1.4-3.9-4.9-6.7-9.1-6.7
		c-2.5,0-4.2,1-5,1.4c-2.1,1.4-4.5,4.4-4.6,10.3c0,1.6,0.2,3.2,0.6,4.7c1.2,4.5,4.5,7.6,9.3,7.6c1.7,0,3.5-0.5,5-1.4
		c2.3-1.5,4.6-4.7,4.6-10.8C407.1,49.2,407.1,46.9,406.4,44.8z"/>
	<path class="st0" d="M458.9,65.2c-2.2,2.1-7.6,6-15.8,6c-2.6,0-8.9-0.3-14.3-5.4c-4.6-4.3-6.2-9.8-6.2-16.1c0-3.4,0.5-6.6,1.8-9.6
		c1.8-4,6.7-11.4,18.3-11.4c9,0,13.7,4.6,15.8,7.7c1.8,2.8,3.7,7.7,3.9,15.4h-29.6c0.2,1.2,0.6,3.7,2.6,6.1c1.4,1.7,3.8,3.8,8.7,3.8
		c5,0,7.8-2.3,9.1-3.7c0.3-0.3,0.8-1,1.4-1.8l8.2,4.7C461.9,62,460.8,63.5,458.9,65.2z M450.9,41.6c-0.9-1.9-3-5.1-8.2-5.1
		c-2.1,0-3.2,0.4-4,0.7c-4.5,1.8-5.5,6.3-5.8,7.7h18.7C451.7,44.9,451.4,43,450.9,41.6z"/>
	<path class="st0" d="M495.3,70V49.6c0-3.1,0-4.6-0.4-6.2c-1.1-4.6-4.7-5.3-6.6-5.3c-1,0-3,0.2-5,1.8c-2.9,2.4-3.8,5.8-3.8,12.6V70
		h-9.7V30h9.7v4.7c0.2-0.2,1-1.3,1.8-2.1c3.8-3.5,9.2-3.8,10.6-3.8c5.9,0,9.4,3,10.6,4.9c2.6,3.7,2.3,8.7,2.3,12.8V70H495.3z"/>
	<path class="st0" d="M512.9,50.3v-9h23.1v9H512.9z"/>
	<path class="st0" d="M594.9,70V45.6c0-1.5-0.3-7.8-6.7-7.8c-1.5,0-5,0.6-7.1,4.1c-1.8,2.9-1.9,6.2-1.9,9.4V70h-9.5V47.6
		c0-0.9-0.1-1.8-0.1-2.6c0-0.8,0-3.6-2.2-5.6c-1.6-1.4-3.6-1.5-4.3-1.5c-1,0-3,0.2-5,1.9c-3.9,3.4-4,9-4,13.4V70h-9.6V30h9.6
		l0.1,4.5c0.6-0.9,0.9-1.1,1.3-1.4c1.4-1.3,5.7-4.2,11.3-4.2c4.6,0,8.9,2.1,11.1,6.1c0.7-0.9,1.5-2,3.7-3.4c1.7-1.1,4.5-2.6,9.2-2.6
		c6.1,0,11.5,2.6,13.2,8.9c0.5,1.8,0.6,3.4,0.6,7V70H594.9z"/>
	<path class="st0" d="M614.6,23.8v-9.7h9.5v9.7H614.6z M614.6,70V30h9.5v40H614.6z"/>
	<path class="st0" d="M660,70V49.6c0-3.1,0-4.6-0.4-6.2c-1.1-4.6-4.7-5.3-6.6-5.3c-1,0-3,0.2-5,1.8c-2.9,2.4-3.8,5.8-3.8,12.6V70
		h-9.7V30h9.7v4.7c0.2-0.2,1-1.3,1.8-2.1c3.8-3.5,9.2-3.8,10.6-3.8c5.9,0,9.4,3,10.6,4.9c2.6,3.7,2.3,8.7,2.3,12.8V70H660z"/>
	<path class="st0" d="M706.1,70v-3.8c-0.4,0.4-0.7,0.9-1.1,1.3c-1.5,1.4-4.8,3.8-10,3.8c-1.4,0-4.2-0.2-7.4-1.7
		c-4.3-2-10.3-7.2-10.3-18.7c0-12.2,6.6-18.6,11.2-20.6c1.3-0.6,3.6-1.4,7-1.4c1.4,0,4.2,0.1,7.3,1.8c0.6,0.3,1,0.6,2,1.3
		c0.7,0.6,1.3,1.3,1.4,1.4V13.5h9.5V70H706.1z M704.3,42c-0.5-0.9-1.4-1.9-2.1-2.5c-1.6-1.3-3.4-1.8-5.4-1.8c-0.8,0-2.9,0.2-4.9,1.4
		c-4.6,3-4.7,9.4-4.7,10.6c0,5.9,2.5,12.7,9.5,12.7c2.6,0,4.6-0.8,6.2-2.7c2.5-2.7,3.1-6,3-9.6C706.1,47.6,705.7,44.3,704.3,42z"/>
	<path class="st0" d="M760.1,65.2c-2.2,2.1-7.6,6-15.8,6c-2.6,0-8.9-0.3-14.3-5.4c-4.6-4.3-6.2-9.8-6.2-16.1c0-3.4,0.5-6.6,1.8-9.6
		c1.8-4,6.7-11.4,18.3-11.4c9,0,13.7,4.6,15.8,7.7c1.8,2.8,3.7,7.7,3.9,15.4h-29.6c0.2,1.2,0.6,3.7,2.6,6.1c1.4,1.7,3.8,3.8,8.7,3.8
		c5,0,7.8-2.3,9.1-3.7c0.3-0.3,0.8-1,1.4-1.8l8.2,4.7C763.2,62,762.1,63.5,760.1,65.2z M752.1,41.6c-0.9-1.9-3-5.1-8.2-5.1
		c-2.1,0-3.2,0.4-4,0.7c-4.5,1.8-5.5,6.3-5.8,7.7h18.7C752.9,44.9,752.7,43,752.1,41.6z"/>
	<path class="st0" d="M797.7,70v-3.8c-0.4,0.4-0.7,0.9-1.1,1.3c-1.5,1.4-4.8,3.8-10,3.8c-1.4,0-4.2-0.2-7.4-1.7
		c-4.3-2-10.3-7.2-10.3-18.7c0-12.2,6.6-18.6,11.2-20.6c1.3-0.6,3.6-1.4,7-1.4c1.4,0,4.2,0.1,7.3,1.8c0.6,0.3,1,0.6,2,1.3
		c0.7,0.6,1.3,1.3,1.4,1.4V13.5h9.5V70H797.7z M795.9,42c-0.5-0.9-1.4-1.9-2.1-2.5c-1.6-1.3-3.4-1.8-5.4-1.8c-0.8,0-2.9,0.2-4.9,1.4
		c-4.6,3-4.7,9.4-4.7,10.6c0,5.9,2.5,12.7,9.5,12.7c2.6,0,4.6-0.8,6.2-2.7c2.5-2.7,3.1-6,3-9.6C797.7,47.6,797.3,44.3,795.9,42z"/>
	<path class="st0" d="M817.6,80.8c-0.5,0.1-0.9,0.2-1.4,0.3v-4.6c3.7-0.4,4.3-3.4,4.3-6.5h-5v-11h10.6v11.8v0.3
		C826.2,76.9,823,79.5,817.6,80.8z"/>
	<path class="st0" d="M145.8,154.8c-1.6,4.1-6.8,12.4-18.7,12.4c-1.7,0-5.1-0.1-9-1.8c-4.2-1.8-11.8-7.4-11.8-19.5
		c0-4.3,1.2-7.5,1.8-9c1.7-4,6.8-12.1,18.7-12.1c1.5,0,5,0.2,8.8,1.8c4.3,1.8,11.8,7.2,11.8,19.2
		C147.4,147.3,147.3,151.1,145.8,154.8z M126.6,133.5c-0.9,0-3.3,0.2-5.4,1.5c-2.1,1.4-4.9,4.6-4.9,10.6c0,1.9,0.2,3.6,0.8,5.4
		c0.6,1.9,3.4,7.4,10,7.4c7.3,0,10.6-6.4,10.3-12.7C137.2,139.5,133.6,133.5,126.6,133.5z"/>
	<path class="st0" d="M189.9,159.9c-4.7,6.6-11.2,7.4-14.2,7.4c-2.4,0-6.6-0.5-10.9-4.5v16.3h-9.6v-53h9.6v3.6
		c1.6-1.7,4.9-4.8,11-4.8c2.6,0,8.2,0.5,12.8,5.8c2.1,2.5,5.4,7.7,5.4,15.7C193.9,148.5,193.8,154.5,189.9,159.9z M183.4,140.8
		c-1.4-3.9-4.9-6.7-9.1-6.7c-2.5,0-4.2,1-5,1.4c-2.1,1.4-4.5,4.4-4.6,10.3c0,1.6,0.2,3.2,0.6,4.7c1.2,4.5,4.5,7.6,9.3,7.6
		c1.7,0,3.5-0.5,5-1.4c2.3-1.5,4.6-4.7,4.6-10.8C184.1,145.2,184.1,142.9,183.4,140.8z"/>
	<path class="st0" d="M235.9,161.2c-2.2,2.1-7.6,6-15.8,6c-2.6,0-8.9-0.3-14.3-5.4c-4.6-4.3-6.2-9.8-6.2-16.1c0-3.4,0.5-6.6,1.8-9.6
		c1.8-4,6.7-11.4,18.3-11.4c9,0,13.7,4.6,15.8,7.7c1.8,2.8,3.7,7.7,3.9,15.4h-29.6c0.2,1.2,0.6,3.7,2.6,6.1c1.4,1.7,3.8,3.8,8.7,3.8
		c5,0,7.8-2.3,9.1-3.7c0.3-0.3,0.8-1,1.4-1.8l8.2,4.7C238.9,158,237.8,159.5,235.9,161.2z M227.9,137.6c-0.9-1.9-3-5.1-8.2-5.1
		c-2.1,0-3.2,0.4-4,0.7c-4.5,1.8-5.5,6.3-5.8,7.7h18.7C228.7,140.9,228.4,139,227.9,137.6z"/>
	<path class="st0" d="M272.3,166v-20.4c0-3.1,0-4.6-0.4-6.2c-1.1-4.6-4.7-5.3-6.6-5.3c-1,0-3,0.2-5,1.8c-2.9,2.4-3.8,5.8-3.8,12.6
		V166h-9.7v-40h9.7v4.7c0.2-0.2,1-1.3,1.8-2.1c3.8-3.5,9.2-3.8,10.6-3.8c5.9,0,9.4,3,10.6,4.9c2.6,3.7,2.3,8.7,2.3,12.8V166H272.3z"
		/>
	<path class="st0" d="M289.9,146.3v-9h23.1v9H289.9z"/>
	<path class="st0" d="M348.6,166v-22c0-3.2,0.2-6.1-2.6-8.4c-0.8-0.7-2.3-1.7-5-1.7c-3.3,0-5.9,1.4-7.9,3.8c-0.8,1-1.4,2.2-1.8,3.4
		c-0.3,1.2-0.3,2.2-0.3,3.4V166h-9.6v-56.5h9.6v20.6c0.8-0.9,1.8-1.8,3.8-3c1.5-0.9,4.4-2.3,8.8-2.3c4.4,0,9.2,1.6,11.8,5.3
		c2.5,3.5,2.5,7.2,2.5,11.2V166H348.6z"/>
	<path class="st0" d="M402.2,161.2c-2.2,2.1-7.6,6-15.8,6c-2.6,0-8.9-0.3-14.3-5.4c-4.6-4.3-6.2-9.8-6.2-16.1c0-3.4,0.5-6.6,1.8-9.6
		c1.8-4,6.7-11.4,18.3-11.4c9,0,13.7,4.6,15.8,7.7c1.8,2.8,3.7,7.7,3.9,15.4h-29.6c0.2,1.2,0.6,3.7,2.6,6.1c1.4,1.7,3.8,3.8,8.7,3.8
		c5,0,7.8-2.3,9.1-3.7c0.3-0.3,0.8-1,1.4-1.8l8.2,4.7C405.2,158,404.1,159.5,402.2,161.2z M394.2,137.6c-0.9-1.9-3-5.1-8.2-5.1
		c-2.1,0-3.2,0.4-4,0.7c-4.5,1.8-5.5,6.3-5.8,7.7H395C395,140.9,394.7,139,394.2,137.6z"/>
	<path class="st0" d="M436.7,166l-0.2-3.1c-1.5,1.3-2.9,1.9-3.7,2.2c-2.6,1.2-5.1,1.8-8.1,1.8c-1.9,0-9.1-0.2-12.8-6.2
		c-0.6-1-1.8-3.2-1.8-6.4c0-2.2,0.6-6.7,5.4-10c3.3-2.2,6.4-2.7,10.1-3.4c5.9-1.2,8.1-1.7,11-2.7c0-1-0.1-2.3-0.6-3.3
		c-0.8-1.5-2.8-2.7-6.3-2.7c-3.7,0-6,1.1-7,2.5c-1.1,1.4-1,3-1,3.5l-9.8-0.6c0.1-1.8,0.4-6,4.3-9.2c2.5-2.1,6.2-3.7,13.2-3.7
		c6.6,0,10.4,1.4,12.9,3.1c1.7,1.2,2.6,2.6,2.9,3.2c1,2.1,1,4.9,1,7.1v21.3c0,3,0.2,3.9,1.8,6.5H436.7z M436.7,146.1
		c-1.6,0.8-3.7,1.6-7.6,2.2c-2.2,0.4-4.5,0.5-6.5,1.7c-1.4,0.9-2.3,2.2-2.3,4c0,2.4,1.8,4.7,6.6,4.7c5.3,0,8.4-2.7,9.3-4.6
		c0.6-1.3,0.6-2.4,0.6-3.7V146.1z"/>
	<path class="st0" d="M466.5,142.3c-0.7,2.2-0.7,4.2-0.7,6.6V166h-9.3v-40h9.3v5.7c0.6-1.2,1.4-2.4,2.4-3.3c3.2-3.1,8.4-3.3,9.5-3.3
		h0.8v9.8C476.5,135,468.8,135,466.5,142.3z"/>
	<path class="st0" d="M497.1,166.4c-5.3,0-8-1.3-9.6-3.2c-0.8-1-1.1-1.9-1.2-2.3c-0.4-1.3-0.5-4.1-0.5-7.6v-20.4H480V126h5.8v-14.2
		h9.6V126h8.6v6.8h-8.6V151c0,1.6-0.2,4.6,1,5.9c1.1,1.3,3.4,1.2,3.7,1.2c1.4,0,2.7-0.2,3.9-0.5v8.1
		C502.7,165.9,500.4,166.4,497.1,166.4z"/>
	<path class="st0" d="M543.9,161.2c-2.2,2.1-7.6,6-15.8,6c-2.6,0-8.9-0.3-14.3-5.4c-4.6-4.3-6.2-9.8-6.2-16.1c0-3.4,0.5-6.6,1.8-9.6
		c1.8-4,6.7-11.4,18.3-11.4c9,0,13.7,4.6,15.8,7.7c1.8,2.8,3.7,7.7,3.9,15.4h-29.6c0.2,1.2,0.6,3.7,2.6,6.1c1.4,1.7,3.8,3.8,8.7,3.8
		c5,0,7.8-2.3,9.1-3.7c0.3-0.3,0.8-1,1.4-1.8l8.2,4.7C546.9,158,545.8,159.5,543.9,161.2z M535.9,137.6c-0.9-1.9-3-5.1-8.2-5.1
		c-2.1,0-3.2,0.4-4,0.7c-4.5,1.8-5.5,6.3-5.8,7.7h18.7C536.7,140.9,536.4,139,535.9,137.6z"/>
	<path class="st0" d="M581.5,166v-3.8c-0.4,0.4-0.7,0.9-1.1,1.3c-1.5,1.4-4.8,3.8-10,3.8c-1.4,0-4.2-0.2-7.4-1.7
		c-4.3-2-10.3-7.2-10.3-18.7c0-12.2,6.6-18.6,11.2-20.6c1.3-0.6,3.6-1.4,7-1.4c1.4,0,4.2,0.1,7.3,1.8c0.6,0.3,1,0.6,2,1.3
		c0.7,0.6,1.3,1.3,1.4,1.4v-19.8h9.5V166H581.5z M579.6,138c-0.5-0.9-1.4-1.9-2.1-2.5c-1.6-1.3-3.4-1.8-5.4-1.8
		c-0.8,0-2.9,0.2-4.9,1.4c-4.6,3-4.7,9.4-4.7,10.6c0,5.9,2.5,12.7,9.5,12.7c2.6,0,4.6-0.8,6.2-2.7c2.5-2.7,3.1-6,3-9.6
		C581.4,143.6,581,140.3,579.6,138z"/>
	<path class="st0" d="M635.3,132.8V166h-9.6v-33.2h-6V126h6v-4.6c0-0.2-0.1-2.9,0.2-4.6c0.8-4.6,4.1-7.3,12.6-7.3
		c1.8,0,3.6,0.2,5.4,0.4v8.2c-0.2-0.1-1.8-0.2-3-0.2c-5.8,0-5.7,3.4-5.7,5.9v2.3h8.7v6.8H635.3z"/>
	<path class="st0" d="M683.5,161.2c-2.2,2.1-7.6,6-15.8,6c-2.6,0-8.9-0.3-14.3-5.4c-4.6-4.3-6.2-9.8-6.2-16.1c0-3.4,0.5-6.6,1.8-9.6
		c1.8-4,6.7-11.4,18.3-11.4c9,0,13.7,4.6,15.8,7.7c1.8,2.8,3.7,7.7,3.9,15.4h-29.6c0.2,1.2,0.6,3.7,2.6,6.1c1.4,1.7,3.8,3.8,8.7,3.8
		c5,0,7.8-2.3,9.1-3.7c0.3-0.3,0.8-1,1.4-1.8l8.2,4.7C686.6,158,685.5,159.5,683.5,161.2z M675.5,137.6c-0.9-1.9-3-5.1-8.2-5.1
		c-2.1,0-3.2,0.4-4,0.7c-4.5,1.8-5.5,6.3-5.8,7.7h18.7C676.3,140.9,676.1,139,675.5,137.6z"/>
	<path class="st0" d="M727,159c-1.9,3.7-6.9,8.2-16.6,8.2c-7.5,0-12.9-2.6-15.4-4.1c-1.4-0.9-2.6-1.9-3.8-3.1l7.2-5.8
		c0.3,0.4,0.8,1.1,1.8,2c3.4,3,8.6,3.1,9.7,3.1c2.4,0,5.2-0.6,6.8-2.4c0.6-0.6,1-1.5,1-2.3c0-0.3-0.1-1-0.6-1.7
		c-1-1.4-2.3-1.5-5.3-2.2c-2.6-0.6-5.3-0.9-7.8-1.5c-1.8-0.5-11-2.7-11-11.4c0-3,1.3-5.3,1.8-6.2c2-3.1,6.7-6.9,15.4-6.9
		c3.1,0,11.2,0.5,17.2,7.4l-6.8,6.3c-0.8-1.7-1.8-2.6-2.5-3.2c-2.5-2.2-5.1-2.9-8.4-2.9c-0.4,0-3.1,0-4.9,1.2c-1.4,1-1.8,2.2-1.8,3
		c0.1,1.4,1,2.3,1.3,2.5c1,0.8,3.7,1.4,6.9,2c2.2,0.4,4.3,0.7,6.5,1.2c2.2,0.5,4.6,1.2,6.3,2.5c1.4,1,4.4,3.8,4.4,8.7
		C728.3,155.5,727.9,157.3,727,159z"/>
	<path class="st0" d="M748.5,166.4c-5.3,0-8-1.3-9.6-3.2c-0.8-1-1.1-1.9-1.2-2.3c-0.4-1.3-0.5-4.1-0.5-7.6v-20.4h-5.8V126h5.8v-14.2
		h9.6V126h8.6v6.8h-8.6V151c0,1.6-0.2,4.6,1,5.9c1.1,1.3,3.4,1.2,3.7,1.2c1.4,0,2.7-0.2,3.9-0.5v8.1
		C754.1,165.9,751.8,166.4,748.5,166.4z"/>
	<path class="st0" d="M761.3,119.8v-9.7h9.5v9.7H761.3z M761.3,166v-40h9.5v40H761.3z"/>
	<path class="st0" d="M800.3,166h-10.2l-13-40h9.9l8.3,27.5l8.2-27.5h10L800.3,166z"/>
	<path class="st0" d="M843.1,166l-0.2-3.1c-1.5,1.3-2.9,1.9-3.7,2.2c-2.6,1.2-5.1,1.8-8.1,1.8c-1.9,0-9.1-0.2-12.8-6.2
		c-0.6-1-1.8-3.2-1.8-6.4c0-2.2,0.6-6.7,5.4-10c3.3-2.2,6.4-2.7,10.1-3.4c5.9-1.2,8.1-1.7,11-2.7c0-1-0.1-2.3-0.6-3.3
		c-0.8-1.5-2.8-2.7-6.3-2.7c-3.7,0-6,1.1-7,2.5c-1.1,1.4-1,3-1,3.5l-9.8-0.6c0.1-1.8,0.4-6,4.3-9.2c2.5-2.1,6.2-3.7,13.2-3.7
		c6.6,0,10.4,1.4,12.9,3.1c1.7,1.2,2.6,2.6,2.9,3.2c1,2.1,1,4.9,1,7.1v21.3c0,3,0.2,3.9,1.8,6.5H843.1z M843.1,146.1
		c-1.6,0.8-3.7,1.6-7.6,2.2c-2.2,0.4-4.5,0.5-6.5,1.7c-1.4,0.9-2.3,2.2-2.3,4c0,2.4,1.8,4.7,6.6,4.7c5.3,0,8.4-2.7,9.3-4.6
		c0.6-1.3,0.6-2.4,0.6-3.7V146.1z"/>
	<path class="st0" d="M863,166v-56.5h9.8V166H863z"/>
	<path class="st0" d="M887.8,129.3c-1.8,1.4-4.2,2.3-6.5,2.2v-4.2c3-0.8,4.4-2.5,4.4-5.5c0-0.4-0.1-0.7-0.1-1.1h-4.9v-11.1h10.4
		c0,4.2,0,8.3,0,12.4C891.1,125.2,890.4,127.3,887.8,129.3z M895.1,132v-4.5c4.1-1.3,4.2-3,4.2-6.8h-4.8v-11.1h10.4V121
		C904.8,127.7,901.6,130.8,895.1,132z"/>
	<path class="st0" d="M285.2,231.2v-3.6h15.9v3.6H285.2z"/>
	<path class="st0" d="M355.2,232.7c-0.1,3.9-0.7,7.6-3.3,10.7c-1.9,2.2-5.5,4.7-12.3,4.7c-1.6,0-6.7-0.1-10.9-3.3
		c-0.6-0.5-2-1.7-3.1-3.5c-2.2-3.9-2-8.2-2-17v-19.6h4v27.5c0,2.3,0.2,4.8,1.3,7c1.1,2.2,2.9,3.2,3.7,3.7c2.2,1.2,4.6,1.6,7,1.6
		c1.1,0,6.4,0,9.4-3.5c2.4-2.9,2.4-6.7,2.4-10.1v-26.1h4v19.3C355.3,226.9,355.3,229.8,355.2,232.7z"/>
	<path class="st0" d="M383.3,247v-14.9c0-3.8,0-6.1-0.7-7.8c-0.6-1.5-1.6-2.2-2.2-2.5c-1.6-1-3.2-0.9-3.9-0.9
		c-0.7,0-2.2,0.1-3.8,0.8c-2.1,1-3.8,3.3-4.3,5.5c-0.3,1.4-0.4,3.8-0.4,7.3V247h-3.5v-28.6h3.5v5.1c0.2-0.7,0.7-1.9,2-3.2
		c1.1-1.1,3.2-2.5,7-2.5c5.3,0,7.8,2.9,8.7,4.9c1.1,2.3,1,4.6,1,9.4V247H383.3z"/>
	<path class="st0" d="M415.5,244.9c-1.3,1.2-4,2.8-8.3,2.8c-1.6,0-5.5-0.1-8.8-3.2c-4.3-4-4.4-10-4.4-11.6c0-2.2,0.2-4,0.9-5.9
		c1.9-5.9,6.7-9.3,12.8-9.3c4.6,0,7,1.7,8.3,3.2c1.6,1.7,2.2,3.2,2.5,4l-3.3,0.8c-1.3-3.2-4.4-4.8-7.7-4.8c-1.1,0-3.6,0.1-5.9,2.1
		c-3.7,3.2-3.8,8.5-3.8,9.8c0,0.8,0.1,5.8,2.7,8.9c0.4,0.5,1.3,1.4,2.8,2.1c0.7,0.4,2,0.8,3.9,0.8c3.6,0,6.1-1.7,7.7-4.8l3.6,0.8
		C417.8,242.3,416.9,243.7,415.5,244.9z"/>
	<path class="st0" d="M443.3,247v-5.2c-0.5,1.1-0.8,1.7-1.1,2.1c-2.6,3.7-6.5,3.7-8,3.7c-0.5,0-1.9-0.1-3.4-0.5
		c-2.6-0.8-4.6-2.9-5.5-5.5c-0.6-2-0.8-4.7-0.8-9.2v-14h3.6v14.8c0,3.5,0.1,5.3,0.5,7c0.5,1.7,1.7,4.2,5.9,4.2
		c1.4,0,4.5-0.1,6.8-3.2c2.2-2.9,1.9-6.8,1.9-10.3v-12.5h3.5V247H443.3z"/>
	<path class="st0" d="M463.4,247.6c-0.3,0-0.7,0-1-0.1c-0.8-0.1-2.9-0.2-3.8-2.5c-0.5-1.3-0.4-4.3-0.4-5.7v-17.9h-6v-3h6v-12.2h3.4
		v12.2h6.3v3h-6.3v15.8c0,1,0,2,0,3.1c-0.1,1.7-0.1,4.2,2.3,4.2c1.4,0,2.9-1,4-1.8v3.6C467.2,246.8,465.8,247.6,463.4,247.6z"/>
	<path class="st0" d="M523.1,247l0.3-36l-13.8,36h-2.8l-14.1-36l0.5,36h-4v-42.4h4.7l14.3,35.9l13.7-35.9h5V247H523.1z"/>
	<path class="st0" d="M555,245.5c-1.1-1.1-1.2-2.3-1.3-3.7c-0.4,0.9-0.8,1.7-1.5,2.5c-1.1,1.3-4.1,3.4-8.6,3.4
		c-3.7,0-5.6-1.3-6.8-2.5c-0.7-0.7-2.2-2.6-2.2-5.3c0-0.8,0.1-2.8,1.6-4.5c2.2-2.6,5.7-3.5,8.8-4.4c1.8-0.5,3.6-1,5.4-1.4l3.4-0.7
		v-1.5c0-1.1,0.1-1.7-0.3-2.8c-0.6-1.9-2.2-3.8-6.5-3.8c-3.7,0-5.5,1-6.5,2.5c-0.9,1.4-1,2.9-1.1,4.4l-3.9-0.7
		c0.1-0.6,0.5-3.1,1.7-5c1.3-2,4.1-4.4,9.5-4.4c2.9,0,6.8,0.7,8.8,3.1c1.9,2.3,1.7,5.3,1.7,8.1v9.2c0,2.8-0.1,4.7,1,5.5
		c0.9,0.7,2.3,0.7,3.3,0.7v2.8C558,247,556.2,246.7,555,245.5z M553.7,231.9l-1.8,0.5c-5.6,1.5-10.4,2.6-12.1,3.9
		c-1.1,0.8-1.8,2.1-1.8,3.5c0,1,0.4,1.8,0.5,2c1.3,2.6,4.6,2.7,5.2,2.7c3.5,0,7.7-2.1,9.2-5.4c0.5-1.2,0.8-2.4,0.8-5V231.9z"/>
	<path class="st0" d="M589.7,250.9c-0.1,1-0.2,4.9-2.8,7.6c-1.6,1.6-4.7,3.2-9.8,3.2c-1.4,0-8.2,0-11.1-5.5c-1-1.9-1.2-4-1.3-4.7
		l3.7-0.7c0.5,3.2,1.4,7.8,9.1,7.8c1,0,5.8,0.1,7.7-3.9c1-2,0.9-4.2,1-8.6c0-1,0.1-2.1,0.1-3.1v-1.4c-0.1,0.2-0.3,1-0.6,1.6
		c-1,1.9-3.8,4.5-8.9,4.5c-2.9,0-4.9-0.9-5.8-1.4c-6.5-3.6-6.6-12-6.6-13.6c0-5,1.6-10.4,6.1-13.1c1.1-0.7,3.2-1.7,6.4-1.7
		c1.1,0,4.2,0.1,6.9,2.3c1.1,0.9,1.8,1.9,2,2.3c0.3,0.6,0.4,1,0.5,1.3v-5.3h3.4V244C589.8,246.3,589.9,248.6,589.7,250.9z
		 M584.3,224c-0.9-1.3-3-3.1-6.9-3.1c-0.5,0-1.9,0-3.3,0.5c-6.1,2.3-6,9.8-6,11.1c0,4.2,1.2,7.1,2.2,8.5c0.8,1.3,2.1,2.3,3.5,2.9
		c1.5,0.6,2.8,0.6,3.4,0.6c0.9,0,3.3,0,5.5-1.6c3.1-2.2,3.5-6.4,3.6-9.9C586.3,232.4,586.5,227.2,584.3,224z"/>
	<path class="st0" d="M617.5,245.5c-1.1-1.1-1.2-2.3-1.3-3.7c-0.4,0.9-0.8,1.7-1.5,2.5c-1.1,1.3-4.1,3.4-8.6,3.4
		c-3.7,0-5.6-1.3-6.8-2.5c-0.7-0.7-2.2-2.6-2.2-5.3c0-0.8,0.1-2.8,1.6-4.5c2.2-2.6,5.7-3.5,8.8-4.4c1.8-0.5,3.6-1,5.4-1.4l3.4-0.7
		v-1.5c0-1.1,0.1-1.7-0.3-2.8c-0.6-1.9-2.2-3.8-6.5-3.8c-3.7,0-5.5,1-6.5,2.5c-0.9,1.4-1,2.9-1.1,4.4l-3.9-0.7
		c0.1-0.6,0.5-3.1,1.7-5c1.3-2,4.1-4.4,9.5-4.4c2.9,0,6.8,0.7,8.8,3.1c1.9,2.3,1.7,5.3,1.7,8.1v9.2c0,2.8-0.1,4.7,1,5.5
		c0.9,0.7,2.3,0.7,3.3,0.7v2.8C620.6,247,618.7,246.7,617.5,245.5z M616.2,231.9l-1.8,0.5c-5.6,1.5-10.4,2.6-12.1,3.9
		c-1.1,0.8-1.8,2.1-1.8,3.5c0,1,0.4,1.8,0.5,2c1.3,2.6,4.6,2.7,5.2,2.7c3.5,0,7.7-2.1,9.2-5.4c0.5-1.2,0.8-2.4,0.8-5V231.9z"/>
	<path class="st0" d="M626.1,247v-2.2l15.5-23.3h-14.2v-3.1h19.1v2.1l-15.5,23.3H647v3.2H626.1z"/>
	<path class="st0" d="M652.7,211.7v-5.5h3.5v5.5H652.7z M652.7,247v-28.6h3.5V247H652.7z"/>
	<path class="st0" d="M683.9,247v-14.9c0-3.8,0-6.1-0.7-7.8c-0.6-1.5-1.6-2.2-2.2-2.5c-1.6-1-3.2-0.9-3.9-0.9
		c-0.7,0-2.2,0.1-3.8,0.8c-2.1,1-3.8,3.3-4.3,5.5c-0.3,1.4-0.4,3.8-0.4,7.3V247h-3.5v-28.6h3.5v5.1c0.2-0.7,0.7-1.9,2-3.2
		c1.1-1.1,3.2-2.5,7-2.5c5.3,0,7.8,2.9,8.7,4.9c1.1,2.3,1,4.6,1,9.4V247H683.9z"/>
	<path class="st0" d="M718.4,243.2c-1.6,1.9-4.4,4.6-10.2,4.6c-1,0-3.9-0.1-6.6-1.5c-6.8-3.5-7.1-11.9-7.1-13.8c0-1,0-3.3,0.9-5.8
		c1.9-5.4,6.5-8.9,12.3-8.9c1.7,0,5.9,0.4,9.2,4.1c2.3,2.6,3.7,6.6,3.7,10.1v0.9h-22.2c-0.1,2.3,0.2,3.8,0.5,4.8
		c0.6,2.3,2.6,7,9.2,7c2.5,0,6.5-0.6,9.2-6l3.3,1C720.3,240.1,719.6,241.7,718.4,243.2z M707.7,220.9c-5,0-7.3,3.4-8.1,5
		c-0.5,1.2-0.9,2.7-1.1,4h18.1C715.7,222.4,710.8,220.9,707.7,220.9z"/>
</g>
</svg>
