<?xml version="1.0" encoding="utf-8"?>
<!-- Generator: Adobe Illustrator 24.3.0, SVG Export Plug-In . SVG Version: 6.00 Build 0)  -->
<svg version="1.1" id="Laag_1" xmlns="http://www.w3.org/2000/svg" xmlns:xlink="http://www.w3.org/1999/xlink" x="0px" y="0px"
	 width="103.8px" height="12.7px" viewBox="0 0 103.8 12.7" style="enable-background:new 0 0 103.8 12.7;" xml:space="preserve">
<style type="text/css">
	.st0{fill:#FFFFFF;}
</style>
<g>
	<path class="st0" d="M5.7,7.4C5.9,7.9,6,8.3,6.2,8.8c0.2-0.5,0.4-0.9,0.6-1.4l1-2.4c0.5-1.3,0.7-2.1-0.6-2.3V2.3h2.8v0.5
		C9.6,2.8,9.3,3,9.2,3.2c-0.3,0.3-0.6,1.4-1,2.3L6.7,8.9c-0.2,0.5-0.4,1.1-0.5,1.7H5.5C5.5,10.1,5.3,9.7,5,9.2L2.5,3.8
		C2.1,2.8,2,2.7,1.5,2.7V2.3h3.3v0.5c-1.1,0-1.2,0.4-0.6,1.5L5.7,7.4z"/>
	<path class="st0" d="M15.8,10.2L14,10.6V9.6c-0.7,0.6-1.3,0.9-2,0.9c-0.9,0-1.6-0.4-1.6-1.6V6.6c0-0.9-0.2-1-1-1V5.2l2-0.1v3.3
		c0,0.9,0.4,1.3,1.1,1.3c0.5,0,0.9-0.2,1.5-0.6V6.6c0-0.9-0.2-1-1-1V5.2L15,5v4.1c0,0.5,0.2,0.7,0.8,0.6V10.2z"/>
	<path class="st0" d="M18.2,9c0,0.6,0.2,1,0.7,1v0.4h-2.6V10c0.6,0,0.8-0.4,0.8-0.9V3.4l-0.8-0.5V2.6l1.5-0.6h0.3V9z"/>
	<path class="st0" d="M21.5,9c0,0.6,0.2,1,0.7,1v0.4h-2.6V10c0.6,0,0.8-0.4,0.8-0.9V3.4l-0.8-0.5V2.6l1.5-0.6h0.3V9z"/>
	<path class="st0" d="M33.2,10.4h-7V10c0.9,0,1.3-0.3,1.3-1.2V3.9c0-0.8-0.3-1.2-1.3-1.2V2.3h6.9v1.8h-0.4c-0.4-1.1-1-1.3-2-1.3
		h-1.9v3.1h1.6c1.1,0,1.5-0.3,1.6-1.2h0.5v2.9H32c-0.1-0.9-0.6-1.2-1.6-1.2h-1.6v2c0,1.2,0.3,1.5,1.4,1.5h0.6c1.3,0,1.9-0.4,2.5-1.5
		h0.5L33.2,10.4z"/>
	<path class="st0" d="M35.7,3.7l-0.5-0.5c-0.4-0.4-0.6-0.4-1.1-0.5V2.3H36l6.1,6.2V4.5c0-0.9-0.2-1.8-1.4-1.8V2.3H44v0.5
		c-0.9,0-1.3,0.7-1.3,1.8v3.8c0,1.2,0.2,1.5,0.3,2.2h-0.8c-0.4-0.5-0.7-0.9-1-1.2l-5-5.1v4.2c0,1.1,0.5,1.5,1.5,1.5v0.5h-3.4V10
		c1.1,0,1.5-0.3,1.5-1.3V3.7z"/>
	<path class="st0" d="M52.3,4.6c-0.6-1.2-1.7-2-2.8-2c-1.6,0-3.2,1.2-3.2,3.6c0,2,1.2,3.8,3.3,3.8c1.3,0,2.4-0.7,2.7-2h0.4l-0.1,1.9
		c-0.9,0.4-2.3,0.6-3.3,0.6c-2.7,0-4.6-1.7-4.6-4.1c0-2.1,1.6-4.4,4.8-4.4c0.9,0,1.8,0.2,2.8,0.6l0.3,1.9H52.3z"/>
	<path class="st0" d="M59,7.2h-3.2l-0.4,1.1c-0.3,0.8,0,1.6,0.9,1.6v0.5h-2.8V10c0.6-0.2,0.8-0.5,1.2-1.3l2.4-6l-0.2-0.4h1.3l3,6.9
		c0.2,0.6,0.5,0.8,0.9,0.8v0.5h-3.4V10c1-0.1,1.2-0.6,0.9-1.3L59,7.2z M57.4,3.3l-1.3,3.3h2.6L57.4,3.3z"/>
	<path class="st0" d="M63.9,3.7l-0.5-0.5c-0.4-0.4-0.6-0.4-1.1-0.5V2.3h1.9l6.1,6.2V4.5c0-0.9-0.2-1.8-1.4-1.8V2.3h3.2v0.5
		c-0.9,0-1.3,0.7-1.3,1.8v3.8c0,1.2,0.2,1.5,0.3,2.2h-0.8c-0.4-0.5-0.7-0.9-1-1.2l-5-5.1v4.2c0,1.1,0.5,1.5,1.5,1.5v0.5h-3.4V10
		c1.1,0,1.5-0.3,1.5-1.3V3.7z"/>
	<path class="st0" d="M76.2,2.8h-1.3c-1.1,0-1.4,0.2-2.1,1.4h-0.4l0.1-1.9h8.5l0.1,1.9h-0.4c-0.7-1.2-1-1.4-2.1-1.4h-1.3v6
		c0,0.8,0.3,1.2,1.3,1.2v0.5h-3.8V10c1,0,1.3-0.4,1.3-1.2V2.8z"/>
	<path class="st0" d="M88.7,10.4h-7V10c0.9,0,1.3-0.3,1.3-1.2V3.9c0-0.8-0.3-1.2-1.3-1.2V2.3h6.9v1.8h-0.4c-0.4-1.1-1-1.3-2-1.3
		h-1.9v3.1h1.6c1.1,0,1.5-0.3,1.6-1.2h0.5v2.9h-0.5c-0.1-0.9-0.6-1.2-1.6-1.2h-1.6v2c0,1.2,0.3,1.5,1.4,1.5h0.6
		c1.3,0,1.9-0.4,2.5-1.5h0.5L88.7,10.4z"/>
	<path class="st0" d="M92.4,8.8c0,0.8,0.4,1.1,1.3,1.1v0.5H90V10c1.1,0,1.2-0.6,1.2-1.4V3.9c0-0.8-0.4-1.2-1.2-1.2V2.3h3.9
		c2.2,0,3.1,0.9,3.1,2.1c0,0.9-0.6,1.8-2.2,2.1l1.7,2c0.9,1,1.5,1.6,2,1.6v0.5h-1c-0.9,0-1.2-0.3-2.1-1.4l-1.6-2
		c-0.3-0.4-0.4-0.5-1-0.5h-0.3V8.8z M93.6,6.1c1.3,0,1.9-0.6,1.9-1.5c0-0.9-0.6-1.7-2.1-1.7h-0.9v3.3H93.6z"/>
	<path class="st0" d="M101,8.8c0,0.8,0.3,1.2,1.3,1.2v0.5h-3.8V10c1.1,0,1.3-0.4,1.3-1.4V4c0-0.9-0.3-1.3-1.3-1.3V2.3h3.8v0.5
		c-0.9,0-1.3,0.3-1.3,1.2V8.8z"/>
</g>
</svg>
