<?xml version="1.0" encoding="utf-8"?>
<!-- Generator: Adobe Illustrator 24.3.0, SVG Export Plug-In . SVG Version: 6.00 Build 0)  -->
<svg version="1.1" id="Laag_1" xmlns="http://www.w3.org/2000/svg" xmlns:xlink="http://www.w3.org/1999/xlink" x="0px" y="0px"
	 width="75.6px" height="24.6px" viewBox="0 0 75.6 24.6" style="enable-background:new 0 0 75.6 24.6;" xml:space="preserve">
<style type="text/css">
	.st0{fill:#FFFFFF;}
</style>
<g>
	<path class="st0" d="M5,13.6c0.2,0.5,0.4,1.1,0.7,1.6c0.2-0.6,0.4-1.1,0.7-1.7l1.2-2.9c0.7-1.5,0.8-2.6-0.8-2.8V7.4h3.4v0.6
		C9.8,8.1,9.5,8.2,9.3,8.5C9,8.8,8.6,10.1,8.1,11.2l-1.8,4.1c-0.2,0.6-0.5,1.3-0.6,2.1H4.9c-0.1-0.5-0.3-1-0.6-1.7l-3-6.5
		C0.8,8,0.6,7.9,0,7.9V7.4h4v0.6C2.6,8,2.5,8.4,3.2,9.7L5,13.6z"/>
	<path class="st0" d="M17.3,17l-2.2,0.4v-1.1c-0.8,0.8-1.6,1.1-2.4,1.1c-1.1,0-2-0.5-2-1.9v-2.8c0-1.1-0.3-1.3-1.2-1.3v-0.5l2.4-0.2
		v4c0,1.1,0.4,1.6,1.3,1.6c0.6,0,1.1-0.2,1.8-0.8v-3c0-1.1-0.2-1.3-1.2-1.3v-0.5l2.5-0.2v5c0,0.7,0.2,0.9,1,0.7V17z"/>
	<path class="st0" d="M20.2,15.5c0,0.7,0.2,1.2,0.9,1.2v0.5H18v-0.5c0.7,0,1-0.5,1-1.1V8.7l-1-0.5V7.8l1.9-0.7h0.4V15.5z"/>
	<path class="st0" d="M24.1,15.5c0,0.7,0.2,1.2,0.9,1.2v0.5h-3.1v-0.5c0.7,0,1-0.5,1-1.1V8.7l-1-0.5V7.8l1.9-0.7h0.4V15.5z"/>
	<path class="st0" d="M31.4,9.4c0-1-0.3-1.4-1.6-1.4V7.4h4.8v0.6c-1.3,0-1.6,0.6-1.6,1.4v5.4c0,1.3,0.5,1.9,1.9,1.9h1.3
		c1.3,0,2.1-0.5,2.8-1.8h0.6L39,17.2h-9.2v-0.5c1.4-0.1,1.6-0.4,1.6-1.7V9.4z"/>
	<path class="st0" d="M41.2,9.4c0-1-0.3-1.4-1.6-1.4V7.4h4.8v0.6c-1.3,0-1.6,0.6-1.6,1.4v5.4c0,1.3,0.5,1.9,1.9,1.9h1.3
		c1.3,0,2.1-0.5,2.8-1.8h0.6l-0.6,2.4h-9.2v-0.5c1.4-0.1,1.6-0.4,1.6-1.7V9.4z"/>
	<path class="st0" d="M54.1,7.4v0.6c-1.2,0-1.7,0.4-1.7,1.5v4.5c0,1.6,1.1,2.6,3.1,2.6c1.6,0,3.2-0.9,3.2-3.1V9.6
		c0-1-0.3-1.7-1.7-1.7V7.4h3.9v0.6c-0.9,0-1.5,0.4-1.5,1.5v4.1c0,3-2,3.9-4.2,3.9c-3,0-4.3-1.5-4.3-3.2V9.3c0-0.9-0.3-1.4-1.6-1.4
		V7.4H54.1z"/>
	<path class="st0" d="M74.1,15.2c0.1,0.8,0.4,1.3,1.5,1.4v0.5h-4.4v-0.5c1,0,1.4-0.6,1.3-1.5l-0.7-5.6h0c-1,3.1-2.9,5.7-3.4,7.7
		h-0.7c-0.3-1.8-2.5-5.2-3.4-7.9h0l-0.8,5.2c-0.2,1.5,0.1,2,1.3,2.1v0.5h-3.4v-0.5c0.9,0,1.2-0.4,1.4-1.5l0.8-5.4
		c0.2-1.2,0-1.9-1.1-1.9V7.4h2.9c0.2,2.5,2.3,5.5,3.1,7.8c1.3-2.5,2.1-4.2,2.5-5.3c0.4-1,0.6-1.8,0.4-2.5h2.9v0.6
		c-1.1,0.1-1.2,0.6-1.1,1.7L74.1,15.2z"/>
</g>
</svg>
