<?xml version="1.0" encoding="utf-8"?>
<!-- Generator: Adobe Illustrator 24.3.0, SVG Export Plug-In . SVG Version: 6.00 Build 0)  -->
<svg version="1.1" id="Laag_1" xmlns="http://www.w3.org/2000/svg" xmlns:xlink="http://www.w3.org/1999/xlink" x="0px" y="0px"
	 width="406.3px" height="66px" viewBox="0 0 406.3 66" style="enable-background:new 0 0 406.3 66;" xml:space="preserve">
<style type="text/css">
	.st0{fill:#FFFFFF;}
</style>
<g>
	<path class="st0" d="M12.2,15.6c0.6,1.3,1.1,2.6,1.6,3.9c0.5-1.5,1-2.7,1.6-4l3-7c1.6-3.7,2-6.3-1.9-6.7V0.5h8.2v1.3
		c-1,0.3-1.7,0.8-2.2,1.3c-0.8,0.8-1.8,4.1-2.9,6.7l-4.3,9.9c-0.6,1.3-1.2,3.1-1.5,5h-1.9c-0.3-1.3-0.7-2.5-1.5-4.1L3.1,4.9
		C1.8,2.1,1.4,1.8,0,1.8V0.5h9.6v1.3C6.3,1.9,6.1,3,7.7,6.2L12.2,15.6z"/>
	<path class="st0" d="M28.3,12l-2.7-1.3V9.9l4.7-1.7h0.9v12.1c0,1.9,0.9,2.8,2.2,2.8v1.3h-7.6v-1.3c1.3,0,2.5-0.8,2.5-2.6V12z
		 M29.6,0c1.1,0,1.9,0.8,1.9,1.9c0,1.1-0.8,1.9-1.9,1.9c-1,0-1.9-0.8-1.9-1.9C27.7,0.8,28.6,0,29.6,0z"/>
	<path class="st0" d="M45.5,13.5h-1.1c-0.5-2.8-1.6-4-3.6-4c-1.6,0-2.6,0.8-2.6,2.3c0,2.6,5.3,3.3,7.3,5.3c0.7,0.7,1.1,1.9,1.1,3
		c0,2.9-2.1,4.6-5.4,4.6c-1.8,0-3.8-0.5-5.1-1.1v-4.4h1.2c0.4,2.7,1.6,4.2,3.7,4.2c1.9,0,3.2-1.1,3.2-2.5c0-2.7-4.6-2.6-7.5-5.5
		c-0.7-0.7-1.1-1.9-1.1-2.9c0-2.6,2.1-4.3,5.1-4.3c1.9,0,3.4,0.5,4.7,1.5V13.5z"/>
	<path class="st0" d="M51.6,12L49,10.7V9.9l4.7-1.7h0.9v12.1c0,1.9,0.9,2.8,2.2,2.8v1.3h-7.6v-1.3c1.3,0,2.5-0.8,2.5-2.6V12z M53,0
		c1.1,0,1.9,0.8,1.9,1.9c0,1.1-0.8,1.9-1.9,1.9c-1,0-1.9-0.8-1.9-1.9C51.1,0.8,51.9,0,53,0z"/>
	<path class="st0" d="M63.8,20.5c0,1.6,0.4,2.1,2.5,2.1c0.7,0,1.9-0.1,2.5-0.2v1.7c-1.5,0.2-3.1,0.6-4.6,0.6c-2.3,0-3.3-0.9-3.3-3.1
		V10.3h-2.6V9.4c2-0.7,3.3-2.2,4.4-3.6h1.2v2.8h4.8v1.8h-4.8V20.5z"/>
	<path class="st0" d="M73.3,14.6c-0.2,4.7,2.8,7.3,6.1,7.3c1.6,0,3-0.5,4.4-1.7l0.7,0.7c-1.5,2.5-3.9,3.8-6.5,3.8
		c-4.2,0-7.3-3.4-7.3-8.1c0-4.8,3.2-8.4,7.3-8.4c4.5,0,6.5,4,6.5,6.4H73.3z M80.8,13.4c-0.3-2.5-1.5-3.9-3.5-3.9
		c-2,0-3.5,1.5-3.8,3.9H80.8z"/>
	<path class="st0" d="M96.9,13.5h-1.1c-0.5-2.8-1.6-4-3.6-4c-1.6,0-2.6,0.8-2.6,2.3c0,2.6,5.3,3.3,7.3,5.3c0.7,0.7,1.1,1.9,1.1,3
		c0,2.9-2.1,4.6-5.4,4.6c-1.8,0-3.8-0.5-5.1-1.1v-4.4h1.2c0.4,2.7,1.6,4.2,3.7,4.2c1.9,0,3.2-1.1,3.2-2.5c0-2.7-4.6-2.6-7.5-5.5
		c-0.7-0.7-1.1-1.9-1.1-2.9c0-2.6,2.1-4.3,5.1-4.3c1.9,0,3.4,0.5,4.7,1.5V13.5z"/>
	<path class="st0" d="M126.6,11.5c-0.8,0.1-2.2,0.1-3.4-0.2c0.4,0.9,0.5,1.6,0.5,2.5c0,4-3.8,5.6-6.5,5.6c-0.6,0-1.2-0.1-2.2-0.3
		c-0.7,0.6-1.1,0.9-1.1,1.3c0,0.8,0.8,1.1,3.7,1.1h2.8c3.2,0,5.6,1.4,5.6,3.7c0,3.4-3.9,5.8-9.2,5.8c-4.9,0-6.8-2-6.8-3.2
		c0-1,0.8-2,3-3.6c-1.3-0.6-2-1.2-2-2c0-0.8,0.9-1.9,2.9-3.6c-1.9-1.1-2.9-2.7-2.9-4.7c0-3.2,2.6-5.7,6.1-5.7c1.3,0,2.3,0.2,3.4,0.5
		c1.2,0.3,2.5,0.6,4.4,0.6c0.6,0,0.9,0,1.5-0.1V11.5z M117.7,24.7c-1.1,0-2.2-0.1-3.5-0.3c-1.2,1.2-1.6,1.7-1.6,2.5
		c0,2,4,2.3,4.9,2.3c2.2,0,6.3-0.7,6.3-2.7c0-1.3-1.3-1.9-4.3-1.9H117.7z M117.6,18.1c2,0,3-1.5,3-3.9c0-3.2-2.1-4.5-3.5-4.5
		c-1.6,0-3,1.5-3,3.9C114.2,16,115.4,18.1,117.6,18.1z"/>
	<path class="st0" d="M146.1,23.7l-5.3,1V22c-2,1.9-3.8,2.7-5.8,2.7c-2.6,0-4.7-1.3-4.7-4.6v-6.9c0-2.8-0.6-3-2.8-3V9l5.7-0.4v9.8
		c0,2.7,1.1,3.9,3.2,3.9c1.5,0,2.8-0.5,4.4-1.8v-7.1c0-2.8-0.6-3-3-3V9l6-0.4v12.1c0,1.6,0.5,2.1,2.4,1.7V23.7z"/>
	<path class="st0" d="M150.3,12l-2.7-1.3V9.9l4.7-1.7h0.9v12.1c0,1.9,0.9,2.8,2.2,2.8v1.3h-7.6v-1.3c1.3,0,2.5-0.8,2.5-2.6V12z
		 M151.7,0c1.1,0,1.9,0.8,1.9,1.9c0,1.1-0.8,1.9-1.9,1.9c-1,0-1.9-0.8-1.9-1.9C149.8,0.8,150.6,0,151.7,0z"/>
	<path class="st0" d="M166.9,12.5c0-2.1-2.1-2.8-3.2-2.8c-1.4,0-2.7,0.8-2.7,1.6c0,0.8,1.4,2,0.5,2.4l-2.1,1
		c-0.2,0.1-1.2-1.6-1.2-2.4c0-1.6,1.9-4.1,6.4-4.1c3.3,0,5.1,1.1,5.1,3.7v9c0,1.3,0.8,1.7,2,0.9l0.3,1.3c-1,1.2-1.9,1.6-2.8,1.6
		c-1.3,0-2.2-0.9-2.4-2.5c-2,1.8-3.5,2.5-5.2,2.5c-2.3,0-3.9-1.6-3.9-3.7s1.5-3.5,5.4-4.8l3.7-1.3V12.5z M165.1,16.9
		c-2.8,1-4.1,1.8-4.1,3.2c0,1.1,0.7,2.3,2.5,2.3c1.3,0,2.3-0.6,3.5-1.8v-4.4L165.1,16.9z"/>
	<path class="st0" d="M186.8,3.6l-2.6-1.4V1.4l4.6-1.4h0.9v20.7c0,1.5,0.8,2.1,2.5,1.6v1.4l-4.6,1h-0.9v-2.6
		c-1.8,1.7-3.9,2.6-5.8,2.6c-3.7,0-6.6-3.3-6.6-7.5c0-4.9,3.9-9,8.5-9c1.1,0,2.3,0.2,3.9,0.7V3.6z M186.8,15.4
		c0-4.3-2.7-5.7-4.6-5.7c-2.7,0-4.9,2.6-4.9,5.7c0,2.5,1.3,7,5.4,7c1.6,0,3.1-0.7,4.1-2V15.4z"/>
	<path class="st0" d="M197.2,14.6c-0.2,4.7,2.8,7.3,6.1,7.3c1.6,0,3-0.5,4.4-1.7l0.7,0.7c-1.5,2.5-3.9,3.8-6.5,3.8
		c-4.2,0-7.3-3.4-7.3-8.1c0-4.8,3.2-8.4,7.3-8.4c4.5,0,6.5,4,6.5,6.4H197.2z M204.7,13.4c-0.3-2.5-1.5-3.9-3.5-3.9
		c-2,0-3.5,1.5-3.8,3.9H204.7z"/>
	<path class="st0" d="M220.7,13.5h-1.1c-0.5-2.8-1.6-4-3.6-4c-1.6,0-2.6,0.8-2.6,2.3c0,2.6,5.3,3.3,7.3,5.3c0.7,0.7,1.1,1.9,1.1,3
		c0,2.9-2.1,4.6-5.4,4.6c-1.8,0-3.8-0.5-5.1-1.1v-4.4h1.2c0.4,2.7,1.6,4.2,3.7,4.2c1.9,0,3.2-1.1,3.2-2.5c0-2.7-4.6-2.6-7.5-5.5
		c-0.7-0.7-1.1-1.9-1.1-2.9c0-2.6,2.1-4.3,5.1-4.3c1.9,0,3.4,0.5,4.7,1.5V13.5z"/>
	<path class="st0" d="M224.5,28.4c3.1-0.4,5-1.3,5-3.6c0-1.4-0.5-2-1.7-2c-1.4,0-2.2-0.7-2.2-2c0-1.4,0.9-2.2,2.2-2.2
		c2.1,0,3.6,2.2,3.6,5.1c0,3.7-2.6,5.9-7,6V28.4z"/>
	<path class="st0" d="M248.1,20.5c0,1.6,0.4,2.1,2.5,2.1c0.7,0,1.9-0.1,2.5-0.2v1.7c-1.5,0.2-3.1,0.6-4.6,0.6
		c-2.3,0-3.3-0.9-3.3-3.1V10.3h-2.6V9.4c2-0.7,3.3-2.2,4.4-3.6h1.2v2.8h4.8v1.8h-4.8V20.5z"/>
	<path class="st0" d="M257.7,14.6c-0.2,4.7,2.8,7.3,6.1,7.3c1.6,0,3-0.5,4.4-1.7l0.7,0.7c-1.5,2.5-3.9,3.8-6.5,3.8
		c-4.2,0-7.3-3.4-7.3-8.1c0-4.8,3.2-8.4,7.3-8.4c4.5,0,6.5,4,6.5,6.4H257.7z M265.2,13.4c-0.3-2.5-1.5-3.9-3.5-3.9
		c-2,0-3.5,1.5-3.8,3.9H265.2z"/>
	<path class="st0" d="M276.3,20c0,2.1,0.5,2.9,2.5,3.1v1.3h-8v-1.3c1.6-0.1,2.6-0.9,2.6-2.7v-8.3l-2.5-1.5V9.8l4.6-1.6h0.9v2.7
		c2.1-2,3.6-2.7,5.8-2.7c2.3,0,3.6,0.8,4.4,2.7c2.1-2,3.6-2.7,5.7-2.7c2.8,0,4.9,1.4,4.9,4.4v7.7c0,1.7,0.6,2.6,2.4,2.8v1.3h-8v-1.3
		c1.9-0.1,2.7-0.9,2.7-2.9v-6.6c0-2.1-1.5-3.1-3.5-3.1c-1.3,0-2.8,0.7-4,1.6v8c0,1.9,0.5,2.8,2.5,3v1.3h-8.2v-1.3
		c2,0,2.8-0.9,2.8-2.9v-6c0-2.6-0.9-3.6-3.2-3.6c-1.8,0-2.9,0.5-4.3,1.8V20z"/>
	<path class="st0" d="M310.9,12.5c0-2.1-2.1-2.8-3.2-2.8c-1.4,0-2.7,0.8-2.7,1.6c0,0.8,1.4,2,0.5,2.4l-2.1,1
		c-0.2,0.1-1.2-1.6-1.2-2.4c0-1.6,1.9-4.1,6.4-4.1c3.3,0,5.1,1.1,5.1,3.7v9c0,1.3,0.8,1.7,2,0.9l0.3,1.3c-1,1.2-1.9,1.6-2.8,1.6
		c-1.3,0-2.2-0.9-2.4-2.5c-2,1.8-3.5,2.5-5.2,2.5c-2.3,0-3.9-1.6-3.9-3.7s1.5-3.5,5.4-4.8l3.7-1.3V12.5z M309,16.9
		c-2.8,1-4.1,1.8-4.1,3.2c0,1.1,0.7,2.3,2.5,2.3c1.3,0,2.3-0.6,3.5-1.8v-4.4L309,16.9z M309,0l1.8,5.9h-0.6l-5-5.9H309z"/>
	<path class="st0" d="M322.9,20.5c0,1.6,0.4,2.1,2.5,2.1c0.7,0,1.9-0.1,2.5-0.2v1.7c-1.5,0.2-3.1,0.6-4.6,0.6
		c-2.3,0-3.3-0.9-3.3-3.1V10.3h-2.6V9.4c2-0.7,3.3-2.2,4.4-3.6h1.2v2.8h4.8v1.8h-4.8V20.5z"/>
	<path class="st0" d="M331.9,12l-2.7-1.3V9.9l4.7-1.7h0.9v12.1c0,1.9,0.9,2.8,2.2,2.8v1.3h-7.6v-1.3c1.3,0,2.5-0.8,2.5-2.6V12z
		 M333.2,0c1,0,1.9,0.8,1.9,1.9c0,1.1-0.8,1.9-1.9,1.9s-1.9-0.8-1.9-1.9C331.3,0.8,332.1,0,333.2,0z"/>
	<path class="st0" d="M351.8,22c-2.4,2.1-3.8,2.7-5.7,2.7c-4.8,0-6.8-4.1-6.8-7.7c0-5.3,3.4-8.9,8.4-8.9c2,0,3.9,0.5,5.6,1.5V8.6
		c0-0.2,0.1-0.4,0.4-0.4h0.6c0.2,0,0.4,0.1,0.4,0.4v18.2c0,1.9,0.5,2.7,2.4,3V31h-8.2v-1.2c2,0,2.9-0.8,2.9-2.8V22z M351.8,15.3
		c0-3.6-1.8-5.8-4.7-5.8c-3,0-5,2.3-5,5.8c0,3.9,2.4,6.9,5.5,6.9c1.3,0,2.3-0.4,4.2-1.7V15.3z"/>
	<path class="st0" d="M376.8,23.7l-5.3,1V22c-2,1.9-3.8,2.7-5.8,2.7c-2.6,0-4.7-1.3-4.7-4.6v-6.9c0-2.8-0.6-3-2.8-3V9l5.7-0.4v9.8
		c0,2.7,1.1,3.9,3.2,3.9c1.5,0,2.8-0.5,4.4-1.8v-7.1c0-2.8-0.6-3-3-3V9l6-0.4v12.1c0,1.6,0.5,2.1,2.4,1.7V23.7z"/>
	<path class="st0" d="M381.6,14.6c-0.2,4.7,2.8,7.3,6.1,7.3c1.6,0,3-0.5,4.4-1.7l0.7,0.7c-1.5,2.5-3.9,3.8-6.5,3.8
		c-4.2,0-7.3-3.4-7.3-8.1c0-4.8,3.2-8.4,7.3-8.4c4.5,0,6.5,4,6.5,6.4H381.6z M389.1,13.4c-0.3-2.5-1.5-3.9-3.5-3.9
		c-2,0-3.5,1.5-3.8,3.9H389.1z"/>
	<path class="st0" d="M405.2,13.5h-1.1c-0.5-2.8-1.6-4-3.6-4c-1.6,0-2.6,0.8-2.6,2.3c0,2.6,5.3,3.3,7.3,5.3c0.7,0.7,1.1,1.9,1.1,3
		c0,2.9-2.1,4.6-5.4,4.6c-1.8,0-3.8-0.5-5.1-1.1v-4.4h1.2c0.4,2.7,1.6,4.2,3.7,4.2c1.9,0,3.2-1.1,3.2-2.5c0-2.7-4.6-2.6-7.5-5.5
		c-0.7-0.7-1.1-1.9-1.1-2.9c0-2.6,2.1-4.3,5.1-4.3c1.9,0,3.4,0.5,4.7,1.5V13.5z"/>
	<path class="st0" d="M3.5,47l-2.7-1.3v-0.8l4.7-1.7h0.9v12.1c0,1.9,0.9,2.8,2.2,2.8v1.3H1v-1.3c1.3,0,2.5-0.8,2.5-2.6V47z M4.8,35
		c1.1,0,1.9,0.8,1.9,1.9c0,1.1-0.8,1.9-1.9,1.9c-1,0-1.9-0.8-1.9-1.9C2.9,35.8,3.8,35,4.8,35z"/>
	<path class="st0" d="M25.5,55.2c0,1.8,0.6,2.8,2.2,2.9v1.3h-7.5v-1.3c1.8-0.1,2.4-1.2,2.4-2.7V38.7l-2.4-1.3v-0.8l4.5-1.6h0.9V55.2
		z"/>
	<path class="st0" d="M35,55.2c0,1.8,0.6,2.8,2.2,2.9v1.3h-7.5v-1.3c1.8-0.1,2.4-1.2,2.4-2.7V38.7l-2.4-1.3v-0.8l4.5-1.6H35V55.2z"
		/>
	<path class="st0" d="M41.7,47L39,45.7v-0.8l4.7-1.7h0.9v12.1c0,1.9,0.9,2.8,2.2,2.8v1.3h-7.6v-1.3c1.3,0,2.5-0.8,2.5-2.6V47z
		 M43,35c1.1,0,1.9,0.8,1.9,1.9c0,1.1-0.8,1.9-1.9,1.9c-1,0-1.9-0.8-1.9-1.9C41.1,35.8,42,35,43,35z"/>
	<path class="st0" d="M67,58.7l-5.3,1V57c-2,1.9-3.8,2.7-5.8,2.7c-2.6,0-4.7-1.3-4.7-4.6v-6.9c0-2.8-0.6-3-2.8-3V44l5.7-0.4v9.8
		c0,2.7,1.1,3.9,3.2,3.9c1.5,0,2.8-0.5,4.4-1.8v-7.1c0-2.8-0.6-3-3-3V44l6-0.4v12.1c0,1.6,0.5,2.1,2.4,1.7V58.7z"/>
	<path class="st0" d="M74,54.7c0,2.6,0.5,3.4,3.6,3.4v1.3h-9.1v-1.3c1.4,0,2.6-0.7,2.6-2.7v-8.2l-2.6-1.3v-0.8l4.7-1.9H74v3.5H74
		c1.6-2.6,2.5-3.3,4.3-3.3c1.5,0,2.6,1.3,2.6,2c0,0.2-0.4,2.3-1.4,2.3c-1.2,0-1.5-1.6-2.6-1.6c-0.8,0-1.5,0.6-2.9,2.6V54.7z"/>
	<path class="st0" d="M84.9,49.6c-0.2,4.7,2.8,7.3,6.1,7.3c1.6,0,3-0.5,4.4-1.7l0.7,0.7c-1.5,2.5-3.9,3.8-6.5,3.8
		c-4.2,0-7.3-3.4-7.3-8.1c0-4.8,3.2-8.4,7.3-8.4c4.5,0,6.5,4,6.5,6.4H84.9z M92.4,48.4c-0.3-2.5-1.5-3.9-3.5-3.9
		c-2,0-3.5,1.5-3.8,3.9H92.4z"/>
	<path class="st0" d="M108.5,48.5h-1.1c-0.5-2.8-1.6-4-3.6-4c-1.6,0-2.6,0.8-2.6,2.3c0,2.6,5.3,3.3,7.3,5.3c0.7,0.7,1.1,1.9,1.1,3
		c0,2.9-2.1,4.6-5.4,4.6c-1.8,0-3.8-0.5-5.1-1.1v-4.4h1.2c0.4,2.7,1.6,4.2,3.7,4.2c1.9,0,3.2-1.1,3.2-2.5c0-2.7-4.6-2.6-7.5-5.5
		c-0.7-0.7-1.1-1.9-1.1-2.9c0-2.6,2.1-4.3,5.1-4.3c1.9,0,3.4,0.5,4.7,1.5V48.5z"/>
	<path class="st0" d="M131.5,47.5c0-2.1-2.1-2.8-3.2-2.8c-1.4,0-2.7,0.8-2.7,1.6c0,0.8,1.4,2,0.5,2.4l-2.1,1
		c-0.2,0.1-1.2-1.6-1.2-2.4c0-1.6,1.9-4.1,6.4-4.1c3.3,0,5.1,1.1,5.1,3.7v9c0,1.3,0.8,1.7,2,0.9l0.3,1.3c-1,1.2-1.9,1.6-2.8,1.6
		c-1.3,0-2.2-0.9-2.4-2.5c-2,1.8-3.5,2.5-5.2,2.5c-2.3,0-3.9-1.6-3.9-3.7s1.5-3.5,5.4-4.8l3.7-1.3V47.5z M129.6,51.9
		c-2.8,1-4.1,1.8-4.1,3.2c0,1.1,0.7,2.3,2.5,2.3c1.3,0,2.3-0.6,3.5-1.8v-4.4L129.6,51.9z"/>
	<path class="st0" d="M143.9,55c0,2.1,0.5,2.9,2.5,3.1v1.3h-8v-1.3c1.6-0.1,2.6-0.9,2.6-2.7v-8.3l-2.5-1.5v-0.8l4.6-1.6h0.9v2.7
		c2.1-2,3.6-2.7,5.8-2.7c2.3,0,3.6,0.8,4.4,2.7c2.1-2,3.6-2.7,5.7-2.7c2.8,0,4.9,1.4,4.9,4.4v7.7c0,1.7,0.6,2.6,2.4,2.8v1.3h-8v-1.3
		c1.9-0.1,2.7-0.9,2.7-2.9v-6.6c0-2.1-1.5-3.1-3.5-3.1c-1.3,0-2.8,0.7-4,1.6v8c0,1.9,0.5,2.8,2.5,3v1.3h-8.2v-1.3
		c2,0,2.8-0.9,2.8-2.9v-6c0-2.6-0.9-3.6-3.2-3.6c-1.8,0-2.9,0.5-4.3,1.8V55z"/>
	<path class="st0" d="M170.6,38.9l-2.5-1.4v-0.8l4.6-1.8h0.9v11c2-2,3.7-2.8,5.9-2.8c4.6,0,6.6,4.6,6.6,8c0,5-3.6,8.5-8.8,8.5
		c-2,0-4-0.5-6.6-1.8V38.9z M173.5,53.5c0,3.5,2.3,4.7,4.6,4.7c3.9,0,4.9-3.7,4.9-5.7c0-3.5-2.1-6.8-5.3-6.8c-1.6,0-3.2,0.7-4.2,1.9
		V53.5z"/>
	<path class="st0" d="M203.5,54.7c0,2.6,0.5,3.4,3.6,3.4v1.3H198v-1.3c1.4,0,2.6-0.7,2.6-2.7v-8.2l-2.6-1.3v-0.8l4.7-1.9h0.9v3.5
		h0.1c1.6-2.6,2.5-3.3,4.3-3.3c1.5,0,2.6,1.3,2.6,2c0,0.2-0.4,2.3-1.4,2.3c-1.2,0-1.5-1.6-2.6-1.6c-0.8,0-1.5,0.6-2.9,2.6V54.7z"/>
	<path class="st0" d="M221,47.5c0-2.1-2.1-2.8-3.2-2.8c-1.4,0-2.7,0.8-2.7,1.6c0,0.8,1.4,2,0.5,2.4l-2.1,1c-0.2,0.1-1.2-1.6-1.2-2.4
		c0-1.6,1.9-4.1,6.4-4.1c3.3,0,5.1,1.1,5.1,3.7v9c0,1.3,0.8,1.7,2,0.9l0.3,1.3c-1,1.2-1.9,1.6-2.8,1.6c-1.3,0-2.2-0.9-2.4-2.5
		c-2,1.8-3.5,2.5-5.2,2.5c-2.3,0-3.9-1.6-3.9-3.7s1.5-3.5,5.4-4.8l3.7-1.3V47.5z M219.1,51.9c-2.8,1-4.1,1.8-4.1,3.2
		c0,1.1,0.7,2.3,2.5,2.3c1.3,0,2.3-0.6,3.5-1.8v-4.4L219.1,51.9z"/>
	<path class="st0" d="M240.9,38.6l-2.6-1.4v-0.8L243,35h0.9v20.7c0,1.5,0.8,2.1,2.5,1.6v1.4l-4.6,1h-0.9v-2.6
		c-1.8,1.7-3.9,2.6-5.8,2.6c-3.7,0-6.6-3.3-6.6-7.5c0-4.9,3.9-9,8.5-9c1.1,0,2.3,0.2,3.9,0.7V38.6z M240.9,50.4
		c0-4.3-2.7-5.7-4.6-5.7c-2.7,0-4.9,2.6-4.9,5.7c0,2.5,1.3,7,5.4,7c1.6,0,3.1-0.7,4.1-2V50.4z"/>
	<path class="st0" d="M250.7,47l-2.7-1.3v-0.8l4.7-1.7h0.9v12.1c0,1.9,0.9,2.8,2.2,2.8v1.3h-7.6v-1.3c1.3,0,2.5-0.8,2.5-2.6V47z
		 M252,35c1.1,0,1.9,0.8,1.9,1.9c0,1.1-0.8,1.9-1.9,1.9c-1,0-1.9-0.8-1.9-1.9C250.1,35.8,251,35,252,35z"/>
	<path class="st0" d="M265.9,43.2c4.8,0,8.2,3.4,8.2,8.1c0,4.8-3.4,8.4-7.9,8.4c-4.4,0-8.1-3.8-8.1-8.4
		C258.1,46.8,261.6,43.2,265.9,43.2z M266.5,58.4c2.7,0,4.4-1.9,4.4-5c0-3-1.2-9-5.1-9c-2.6,0-4.3,1.5-4.3,5.5
		C261.4,53.1,262.9,58.4,266.5,58.4z"/>
	<path class="st0" d="M292.9,46.5c-0.8,0.1-2.2,0.1-3.4-0.2c0.4,0.9,0.5,1.6,0.5,2.5c0,4-3.8,5.6-6.5,5.6c-0.6,0-1.2-0.1-2.2-0.3
		c-0.7,0.6-1,0.9-1,1.3c0,0.8,0.8,1.1,3.7,1.1h2.8c3.2,0,5.6,1.4,5.6,3.7c0,3.4-3.9,5.8-9.2,5.8c-4.9,0-6.8-2-6.8-3.2
		c0-1,0.8-2,3-3.6c-1.3-0.6-2-1.2-2-2c0-0.8,0.9-1.9,2.9-3.6c-1.9-1.1-2.9-2.7-2.9-4.7c0-3.2,2.6-5.7,6.1-5.7c1.3,0,2.3,0.2,3.4,0.5
		c1.2,0.3,2.5,0.6,4.4,0.6c0.6,0,0.9,0,1.5-0.1V46.5z M284.1,59.7c-1.1,0-2.2-0.1-3.5-0.3c-1.2,1.2-1.6,1.7-1.6,2.5
		c0,2,4,2.3,4.9,2.3c2.2,0,6.3-0.7,6.3-2.7c0-1.3-1.3-1.9-4.3-1.9H284.1z M284,53.1c2,0,3-1.5,3-3.9c0-3.2-2.1-4.5-3.5-4.5
		c-1.6,0-3,1.5-3,3.9C280.6,51,281.8,53.1,284,53.1z"/>
	<path class="st0" d="M312.4,58.7l-5.3,1V57c-2,1.9-3.8,2.7-5.8,2.7c-2.6,0-4.7-1.3-4.7-4.6v-6.9c0-2.8-0.6-3-2.8-3V44l5.7-0.4v9.8
		c0,2.7,1.1,3.9,3.2,3.9c1.5,0,2.8-0.5,4.4-1.8v-7.1c0-2.8-0.6-3-3-3V44l6-0.4v12.1c0,1.6,0.5,2.1,2.4,1.7V58.7z"/>
	<path class="st0" d="M316.7,47l-2.7-1.3v-0.8l4.7-1.7h0.9v12.1c0,1.9,0.9,2.8,2.2,2.8v1.3h-7.6v-1.3c1.3,0,2.5-0.8,2.5-2.6V47z
		 M318,35c1,0,1.9,0.8,1.9,1.9c0,1.1-0.8,1.9-1.9,1.9s-1.9-0.8-1.9-1.9C316.2,35.8,317,35,318,35z"/>
	<path class="st0" d="M333.3,47.5c0-2.1-2.1-2.8-3.2-2.8c-1.4,0-2.7,0.8-2.7,1.6c0,0.8,1.4,2,0.5,2.4l-2.1,1
		c-0.2,0.1-1.2-1.6-1.2-2.4c0-1.6,1.9-4.1,6.4-4.1c3.3,0,5.1,1.1,5.1,3.7v9c0,1.3,0.8,1.7,2,0.9l0.3,1.3c-1,1.2-1.9,1.6-2.8,1.6
		c-1.3,0-2.2-0.9-2.4-2.5c-2,1.8-3.5,2.5-5.2,2.5c-2.3,0-3.9-1.6-3.9-3.7s1.5-3.5,5.4-4.8l3.7-1.3V47.5z M331.4,51.9
		c-2.8,1-4.1,1.8-4.1,3.2c0,1.1,0.7,2.3,2.5,2.3c1.3,0,2.3-0.6,3.5-1.8v-4.4L331.4,51.9z"/>
</g>
</svg>
