<?xml version="1.0" encoding="utf-8"?>
<!-- Generator: Adobe Illustrator 24.3.0, SVG Export Plug-In . SVG Version: 6.00 Build 0)  -->
<svg version="1.1" id="Laag_1" xmlns="http://www.w3.org/2000/svg" xmlns:xlink="http://www.w3.org/1999/xlink" x="0px" y="0px"
	 width="447.6px" height="59.9px" viewBox="0 0 447.6 59.9" style="enable-background:new 0 0 447.6 59.9;" xml:space="preserve">
<style type="text/css">
	.st0{fill:#FFFFFF;}
</style>
<g>
	<path class="st0" d="M11.5,0.6v1.3c-3,0-4,0.9-4,3.6v10.9c0,3.9,2.8,6.3,7.5,6.3c4,0,7.7-2.1,7.7-7.6V6c0-2.5-0.8-4.1-4.1-4.1V0.6
		H28v1.3c-2.2,0-3.7,0.9-3.7,3.7v9.9c0,7.2-4.7,9.4-10.2,9.4c-7.2,0-10.3-3.6-10.3-7.7V5.3C3.8,3.2,3,1.9,0,1.9V0.6H11.5z"/>
	<path class="st0" d="M34.7,20.3c0,1.9,0.8,2.9,2.8,2.9v1.3h-8.4v-1.3c1.8-0.1,2.6-0.9,2.6-2.7v-8.4l-2.3-1.3V10l4.4-1.6h0.9v3h0.1
		c1.4-1.9,3.7-3,5.6-3c3.3,0,5.1,1.6,5.1,5.4v6.7c0,1.8,0.5,2.6,2.5,2.8v1.3h-8.3v-1.3c2,0,2.8-1,2.8-2.9v-5.8c0-2.2-1-3.9-3.3-3.9
		c-1.6,0-3.1,0.8-4.6,2.1V20.3z"/>
	<path class="st0" d="M64.3,27c0,2.3,1,2.9,3,2.9v1.3h-8.5v-1.3c1.7,0,2.6-1.1,2.6-2.6V12.2l-2.5-1.3V10l4.6-1.7h0.9V11
		c1.8-1.8,3.6-2.6,5.7-2.6c3.8,0,6.4,3.1,6.4,7.4c0,5-3.6,9.1-8.1,9.1c-1.4,0-2.8-0.4-4.1-1V27z M64.3,18.6c0,3,1.9,4.7,4.4,4.7
		c3,0,4.8-2.1,4.8-6c0-4.9-3-6.6-5.1-6.6c-1.3,0-2.8,0.6-4.1,1.6V18.6z"/>
	<path class="st0" d="M88.7,12.6c0-2.1-2.1-2.8-3.2-2.8c-1.4,0-2.7,0.8-2.7,1.6c0,0.8,1.4,2,0.5,2.4l-2.1,1C81,14.9,80,13.2,80,12.4
		c0-1.6,1.9-4.1,6.4-4.1c3.3,0,5.1,1.1,5.1,3.7v9c0,1.3,0.8,1.7,2,0.9l0.3,1.3c-1,1.2-1.9,1.6-2.8,1.6c-1.3,0-2.2-0.9-2.4-2.5
		c-2,1.8-3.5,2.5-5.2,2.5c-2.3,0-3.9-1.6-3.9-3.7s1.5-3.5,5.4-4.8l3.7-1.3V12.6z M86.8,17c-2.8,1-4.1,1.8-4.1,3.2
		c0,1.1,0.7,2.3,2.5,2.3c1.3,0,2.3-0.6,3.5-1.8v-4.4L86.8,17z"/>
	<path class="st0" d="M101,19.8c0,2.6,0.5,3.4,3.6,3.4v1.3h-9.1v-1.3c1.4,0,2.6-0.7,2.6-2.7v-8.2L95.5,11v-0.8l4.7-1.9h0.9v3.5h0.1
		c1.6-2.6,2.5-3.3,4.3-3.3c1.5,0,2.6,1.3,2.6,2c0,0.2-0.4,2.3-1.4,2.3c-1.2,0-1.5-1.6-2.6-1.6c-0.8,0-1.5,0.6-2.9,2.6V19.8z"/>
	<path class="st0" d="M118.5,12.6c0-2.1-2.1-2.8-3.2-2.8c-1.4,0-2.7,0.8-2.7,1.6c0,0.8,1.4,2,0.5,2.4l-2.1,1
		c-0.2,0.1-1.2-1.6-1.2-2.4c0-1.6,1.9-4.1,6.4-4.1c3.3,0,5.1,1.1,5.1,3.7v9c0,1.3,0.8,1.7,2,0.9l0.3,1.3c-1,1.2-1.9,1.6-2.8,1.6
		c-1.3,0-2.2-0.9-2.4-2.5c-2,1.8-3.5,2.5-5.2,2.5c-2.3,0-3.9-1.6-3.9-3.7s1.5-3.5,5.4-4.8l3.7-1.3V12.6z M116.7,17
		c-2.8,1-4.1,1.8-4.1,3.2c0,1.1,0.7,2.3,2.5,2.3c1.3,0,2.3-0.6,3.5-1.8v-4.4L116.7,17z"/>
	<path class="st0" d="M138.5,3.7l-2.6-1.4V1.5l4.6-1.4h0.9v20.7c0,1.5,0.8,2.1,2.5,1.6v1.4l-4.6,1h-0.9v-2.6
		c-1.8,1.7-3.9,2.6-5.8,2.6c-3.7,0-6.6-3.3-6.6-7.5c0-4.9,3.9-9,8.5-9c1.1,0,2.3,0.2,3.9,0.7V3.7z M138.5,15.5
		c0-4.3-2.7-5.7-4.6-5.7c-2.7,0-4.9,2.6-4.9,5.7c0,2.5,1.3,7,5.4,7c1.6,0,3.1-0.7,4.1-2V15.5z"/>
	<path class="st0" d="M148.3,12.2l-2.7-1.3V10l4.7-1.7h0.9v12.1c0,1.9,0.9,2.8,2.2,2.8v1.3h-7.6v-1.3c1.3,0,2.5-0.8,2.5-2.6V12.2z
		 M148.2,6.1h-0.6l1.8-5.9h3.8L148.2,6.1z"/>
	<path class="st0" d="M165.4,13.6h-1.1c-0.5-2.8-1.6-4-3.6-4c-1.6,0-2.6,0.8-2.6,2.3c0,2.6,5.3,3.3,7.3,5.3c0.7,0.7,1.1,1.9,1.1,3
		c0,2.9-2.1,4.6-5.4,4.6c-1.8,0-3.8-0.5-5.1-1.1v-4.4h1.2c0.3,2.7,1.6,4.2,3.7,4.2c1.9,0,3.2-1.1,3.2-2.5c0-2.7-4.6-2.6-7.5-5.5
		c-0.7-0.7-1.1-1.9-1.1-2.9c0-2.6,2.1-4.3,5.1-4.3c1.9,0,3.4,0.5,4.7,1.5V13.6z"/>
	<path class="st0" d="M191.6,3.7L189,2.3V1.5l4.6-1.4h0.9v20.7c0,1.5,0.8,2.1,2.5,1.6v1.4l-4.6,1h-0.9v-2.6
		c-1.8,1.7-3.9,2.6-5.8,2.6c-3.7,0-6.6-3.3-6.6-7.5c0-4.9,3.9-9,8.5-9c1.1,0,2.3,0.2,3.9,0.7V3.7z M191.6,15.5
		c0-4.3-2.7-5.7-4.6-5.7c-2.7,0-4.9,2.6-4.9,5.7c0,2.5,1.3,7,5.4,7c1.6,0,3.1-0.7,4.1-2V15.5z"/>
	<path class="st0" d="M201.9,14.8c-0.2,4.7,2.8,7.3,6.1,7.3c1.6,0,3-0.5,4.4-1.7l0.7,0.7c-1.5,2.5-3.9,3.8-6.5,3.8
		c-4.2,0-7.3-3.4-7.3-8.1c0-4.8,3.2-8.4,7.3-8.4c4.5,0,6.5,4,6.5,6.4H201.9z M209.4,13.5c-0.3-2.5-1.5-3.9-3.5-3.9
		c-2,0-3.5,1.5-3.8,3.9H209.4z"/>
	<path class="st0" d="M239.4,20.4c-0.7,2.8-3.2,4.5-6.4,4.5c-5.2,0-7.5-4.4-7.5-8.1c0-3.7,2.3-8.4,8.3-8.4c2.9,0,5.5,0.8,5.5,3.2
		c0,1.1-0.5,1.7-1.3,1.7c-2.3,0-0.8-3.3-4.8-3.3c-2.9,0-4.8,2.3-4.8,5.7c0,3.1,2,6.6,5.7,6.6c2.2,0,3.5-0.7,4.5-2.2L239.4,20.4z"/>
	<path class="st0" d="M249.7,8.3c4.8,0,8.2,3.4,8.2,8.1c0,4.8-3.4,8.4-7.9,8.4c-4.4,0-8.1-3.8-8.1-8.4
		C241.9,11.9,245.3,8.3,249.7,8.3z M250.3,23.6c2.7,0,4.4-1.9,4.4-5c0-3-1.2-9-5.1-9c-2.6,0-4.3,1.5-4.3,5.5
		C245.2,18.3,246.7,23.6,250.3,23.6z"/>
	<path class="st0" d="M265.7,20.3c0,1.8,0.6,2.8,2.2,2.9v1.3h-7.5v-1.3c1.8-0.1,2.4-1.2,2.4-2.7V3.9l-2.4-1.3V1.8l4.5-1.6h0.9V20.3z
		"/>
	<path class="st0" d="M278.1,8.3c4.8,0,8.2,3.4,8.2,8.1c0,4.8-3.4,8.4-7.9,8.4c-4.4,0-8.1-3.8-8.1-8.4
		C270.3,11.9,273.8,8.3,278.1,8.3z M278.7,23.6c2.7,0,4.4-1.9,4.4-5c0-3-1.2-9-5.1-9c-2.6,0-4.3,1.5-4.3,5.5
		C273.7,18.3,275.1,23.6,278.7,23.6z"/>
	<path class="st0" d="M294.1,19.8c0,2.6,0.5,3.4,3.6,3.4v1.3h-9.1v-1.3c1.4,0,2.6-0.7,2.6-2.7v-8.2l-2.6-1.3v-0.8l4.7-1.9h0.9v3.5
		h0.1c1.6-2.6,2.5-3.3,4.3-3.3c1.5,0,2.6,1.3,2.6,2c0,0.2-0.4,2.3-1.4,2.3c-1.2,0-1.5-1.6-2.6-1.6c-0.8,0-1.5,0.6-2.9,2.6V19.8z"/>
	<path class="st0" d="M312.9,13.6h-1.1c-0.5-2.8-1.6-4-3.6-4c-1.6,0-2.6,0.8-2.6,2.3c0,2.6,5.3,3.3,7.3,5.3c0.7,0.7,1.1,1.9,1.1,3
		c0,2.9-2.1,4.6-5.4,4.6c-1.8,0-3.8-0.5-5.1-1.1v-4.4h1.2c0.4,2.7,1.6,4.2,3.7,4.2c1.9,0,3.2-1.1,3.2-2.5c0-2.7-4.6-2.6-7.5-5.5
		c-0.7-0.7-1.1-1.9-1.1-2.9c0-2.6,2.1-4.3,5.1-4.3c1.9,0,3.4,0.5,4.7,1.5V13.6z"/>
	<path class="st0" d="M328.8,12.2l-2.7-1.3V10l4.7-1.7h0.9v12.1c0,1.9,0.9,2.8,2.2,2.8v1.3h-7.6v-1.3c1.3,0,2.5-0.8,2.5-2.6V12.2z
		 M330.1,0.1c1,0,1.9,0.8,1.9,1.9c0,1.1-0.8,1.9-1.9,1.9s-1.9-0.8-1.9-1.9C328.2,1,329.1,0.1,330.1,0.1z"/>
	<path class="st0" d="M351,20.1c0,2.3,0.5,3.1,3.6,3.1v1.3h-9.5v-1.3c2.2,0,2.9-1,2.9-2.8V10.4h-2.9V8.7h0.8c1.6,0,1.9-0.2,2-1.5
		c0.1-4,2.3-7.2,6.8-7.2c2.3,0,3.9,1.1,3.9,2.6c0,0.9-0.6,1.5-1.5,1.5c-1.6,0-2-2.6-3.7-2.6c-1.1,0-2.4,0.8-2.4,3.2v4h4.2v1.6H351
		V20.1z"/>
	<path class="st0" d="M364.6,8.3c4.8,0,8.2,3.4,8.2,8.1c0,4.8-3.4,8.4-7.9,8.4c-4.4,0-8.1-3.8-8.1-8.4
		C356.8,11.9,360.3,8.3,364.6,8.3z M365.2,23.6c2.7,0,4.4-1.9,4.4-5c0-3-1.2-9-5.1-9c-2.6,0-4.3,1.5-4.3,5.5
		C360.1,18.3,361.6,23.6,365.2,23.6z"/>
	<path class="st0" d="M380.6,19.8c0,2.6,0.5,3.4,3.6,3.4v1.3h-9.1v-1.3c1.4,0,2.6-0.7,2.6-2.7v-8.2l-2.6-1.3v-0.8l4.7-1.9h0.9v3.5
		h0.1c1.6-2.6,2.5-3.3,4.3-3.3c1.5,0,2.6,1.3,2.6,2c0,0.2-0.3,2.3-1.4,2.3c-1.2,0-1.5-1.6-2.6-1.6c-0.8,0-1.5,0.6-2.9,2.6V19.8z"/>
	<path class="st0" d="M394.8,20.1c0,2.1,0.5,2.9,2.5,3.1v1.3h-8v-1.3c1.6-0.1,2.6-0.9,2.6-2.7v-8.3l-2.5-1.5V10l4.6-1.6h0.9V11
		c2.1-2,3.6-2.7,5.8-2.7c2.3,0,3.6,0.8,4.4,2.7c2.1-2,3.6-2.7,5.7-2.7c2.8,0,4.9,1.4,4.9,4.4v7.7c0,1.7,0.6,2.6,2.4,2.8v1.3h-8v-1.3
		c1.9-0.1,2.7-0.9,2.7-2.9v-6.6c0-2.1-1.5-3.1-3.5-3.1c-1.3,0-2.8,0.7-4,1.6v8c0,1.9,0.5,2.8,2.5,3v1.3h-8.2v-1.3
		c2,0,2.8-0.9,2.8-2.9v-6c0-2.6-0.9-3.6-3.2-3.6c-1.8,0-2.9,0.5-4.3,1.8V20.1z"/>
	<path class="st0" d="M422.9,14.8c-0.2,4.7,2.8,7.3,6.1,7.3c1.6,0,3-0.5,4.4-1.7L434,21c-1.5,2.5-3.9,3.8-6.5,3.8
		c-4.2,0-7.3-3.4-7.3-8.1c0-4.8,3.2-8.4,7.3-8.4c4.5,0,6.5,4,6.5,6.4H422.9z M430.4,13.5c-0.3-2.5-1.5-3.9-3.5-3.9
		c-2,0-3.5,1.5-3.8,3.9H430.4z"/>
	<path class="st0" d="M446.4,13.6h-1.1c-0.5-2.8-1.6-4-3.6-4c-1.6,0-2.6,0.8-2.6,2.3c0,2.6,5.3,3.3,7.3,5.3c0.7,0.7,1.1,1.9,1.1,3
		c0,2.9-2.1,4.6-5.4,4.6c-1.8,0-3.8-0.5-5.1-1.1v-4.4h1.2c0.4,2.7,1.6,4.2,3.7,4.2c1.9,0,3.2-1.1,3.2-2.5c0-2.7-4.6-2.6-7.5-5.5
		c-0.7-0.7-1.1-1.9-1.1-2.9c0-2.6,2.1-4.3,5.1-4.3c1.9,0,3.4,0.5,4.7,1.5V13.6z"/>
	<path class="st0" d="M10.1,47.6c0-2.1-2.1-2.8-3.2-2.8c-1.4,0-2.7,0.8-2.7,1.6c0,0.8,1.4,2,0.5,2.4l-2.1,1
		c-0.2,0.1-1.2-1.6-1.2-2.4c0-1.6,1.9-4.1,6.4-4.1c3.3,0,5.1,1.1,5.1,3.7v9c0,1.3,0.8,1.7,2,0.9l0.3,1.3c-1,1.2-1.9,1.6-2.8,1.6
		c-1.3,0-2.2-0.9-2.4-2.5c-2,1.8-3.5,2.5-5.2,2.5c-2.3,0-3.9-1.6-3.9-3.7s1.5-3.5,5.4-4.8l3.7-1.3V47.6z M8.2,52
		c-2.8,1-4.1,1.8-4.1,3.2c0,1.1,0.7,2.3,2.5,2.3c1.3,0,2.3-0.6,3.5-1.8v-4.4L8.2,52z"/>
	<path class="st0" d="M22.5,55.3c0,1.8,0.6,2.8,2.2,2.9v1.3h-7.5v-1.3c1.8-0.1,2.4-1.2,2.4-2.7V38.9l-2.4-1.3v-0.8l4.5-1.6h0.9V55.3
		z"/>
	<path class="st0" d="M50.8,55.4c-0.7,2.8-3.2,4.5-6.4,4.5c-5.2,0-7.5-4.4-7.5-8.1c0-3.7,2.3-8.4,8.3-8.4c2.9,0,5.5,0.8,5.5,3.2
		c0,1.1-0.5,1.7-1.3,1.7c-2.3,0-0.8-3.3-4.8-3.3c-2.9,0-4.8,2.3-4.8,5.7c0,3.1,2,6.6,5.7,6.6c2.2,0,3.5-0.7,4.5-2.2L50.8,55.4z"/>
	<path class="st0" d="M55.9,49.8c-0.2,4.7,2.8,7.3,6.1,7.3c1.6,0,3-0.5,4.4-1.7l0.7,0.7c-1.5,2.5-3.9,3.8-6.5,3.8
		c-4.2,0-7.3-3.4-7.3-8.1c0-4.8,3.2-8.4,7.3-8.4c4.5,0,6.5,4,6.5,6.4H55.9z M63.4,48.5c-0.3-2.5-1.5-3.9-3.5-3.9
		c-2,0-3.5,1.5-3.8,3.9H63.4z"/>
	<path class="st0" d="M74.3,55.3c0,1.9,0.8,2.9,2.8,2.9v1.3h-8.4v-1.3c1.8-0.1,2.6-0.9,2.6-2.7v-8.4l-2.3-1.3V45l4.4-1.6h0.9v3h0.1
		c1.4-1.9,3.7-3,5.6-3c3.3,0,5.1,1.6,5.1,5.4v6.7c0,1.8,0.5,2.6,2.5,2.8v1.3h-8.3v-1.3c2,0,2.8-1,2.8-2.9v-5.8c0-2.2-1-3.9-3.3-3.9
		c-1.6,0-3.1,0.8-4.6,2.1V55.3z"/>
	<path class="st0" d="M94.5,55.6c0,1.6,0.4,2.1,2.5,2.1c0.7,0,1.9-0.1,2.5-0.2v1.7c-1.5,0.2-3.1,0.6-4.6,0.6c-2.3,0-3.3-0.9-3.3-3.1
		V45.5H89v-0.9c2-0.7,3.3-2.2,4.4-3.6h1.2v2.8h4.8v1.8h-4.8V55.6z"/>
	<path class="st0" d="M106.2,54.8c0,2.6,0.5,3.4,3.6,3.4v1.3h-9.1v-1.3c1.4,0,2.6-0.7,2.6-2.7v-8.2l-2.6-1.3v-0.8l4.7-1.9h0.9v3.5
		h0.1c1.6-2.6,2.5-3.3,4.3-3.3c1.5,0,2.6,1.3,2.6,2c0,0.2-0.4,2.3-1.4,2.3c-1.2,0-1.5-1.6-2.6-1.6c-0.8,0-1.5,0.6-2.9,2.6V54.8z"/>
	<path class="st0" d="M117.2,49.8c-0.2,4.7,2.8,7.3,6.1,7.3c1.6,0,3-0.5,4.4-1.7l0.7,0.7c-1.5,2.5-3.9,3.8-6.5,3.8
		c-4.2,0-7.3-3.4-7.3-8.1c0-4.8,3.2-8.4,7.3-8.4c4.5,0,6.5,4,6.5,6.4H117.2z M124.7,48.5c-0.3-2.5-1.5-3.9-3.5-3.9
		c-2,0-3.5,1.5-3.8,3.9H124.7z"/>
	<path class="st0" d="M153,38.7l-2.6-1.4v-0.8l4.6-1.4h0.9v20.7c0,1.5,0.8,2.1,2.5,1.6v1.4l-4.6,1H153v-2.6
		c-1.8,1.7-3.9,2.6-5.8,2.6c-3.7,0-6.6-3.3-6.6-7.5c0-4.9,3.9-9,8.5-9c1.1,0,2.3,0.2,3.9,0.7V38.7z M153,50.5c0-4.3-2.7-5.7-4.6-5.7
		c-2.7,0-4.9,2.6-4.9,5.7c0,2.5,1.3,7,5.4,7c1.6,0,3.1-0.7,4.1-2V50.5z"/>
	<path class="st0" d="M163.4,49.8c-0.2,4.7,2.8,7.3,6.1,7.3c1.6,0,3-0.5,4.4-1.7l0.7,0.7c-1.5,2.5-3.9,3.8-6.5,3.8
		c-4.2,0-7.3-3.4-7.3-8.1c0-4.8,3.2-8.4,7.3-8.4c4.5,0,6.5,4,6.5,6.4H163.4z M170.9,48.5c-0.3-2.5-1.5-3.9-3.5-3.9
		c-2,0-3.5,1.5-3.8,3.9H170.9z"/>
	<path class="st0" d="M190.3,40.3c0-2.3-1.1-3.4-3.7-3.4v-1.3h12.7c4.9,0,7.6,2.1,7.6,5.8c0,3.2-2.2,4.8-7.1,5.6V47
		c6.2,0.1,8.1,3.4,8.1,6.1c0,4-3.7,6.4-8,6.4h-13.3v-1.3c2.9,0,3.7-1.3,3.7-3.6V40.3z M197.3,46.2c3.7,0,5.4-1.1,5.4-4.2
		c0-3.2-2.1-4.8-5.9-4.8h-2.8v9.1H197.3z M193.9,54.4c0,2.3,1.1,3.5,3.3,3.5h1.8c2.8,0,4.6-1.8,4.6-4.6c0-2.6-1.7-5.5-6.1-5.5h-3.5
		V54.4z"/>
	<path class="st0" d="M220.1,47.6c0-2.1-2.1-2.8-3.2-2.8c-1.4,0-2.7,0.8-2.7,1.6c0,0.8,1.4,2,0.5,2.4l-2.1,1
		c-0.2,0.1-1.2-1.6-1.2-2.4c0-1.6,1.9-4.1,6.4-4.1c3.3,0,5.1,1.1,5.1,3.7v9c0,1.3,0.8,1.7,2,0.9l0.3,1.3c-1,1.2-1.9,1.6-2.8,1.6
		c-1.3,0-2.2-0.9-2.4-2.5c-2,1.8-3.5,2.5-5.2,2.5c-2.3,0-3.9-1.6-3.9-3.7s1.5-3.5,5.4-4.8l3.7-1.3V47.6z M218.3,52
		c-2.8,1-4.1,1.8-4.1,3.2c0,1.1,0.7,2.3,2.5,2.3c1.3,0,2.3-0.6,3.5-1.8v-4.4L218.3,52z"/>
	<path class="st0" d="M232.5,54.8c0,2.6,0.5,3.4,3.6,3.4v1.3H227v-1.3c1.4,0,2.6-0.7,2.6-2.7v-8.2L227,46v-0.8l4.7-1.9h0.9v3.5h0.1
		c1.6-2.6,2.5-3.3,4.3-3.3c1.5,0,2.6,1.3,2.6,2c0,0.2-0.4,2.3-1.4,2.3c-1.2,0-1.5-1.6-2.6-1.6c-0.8,0-1.5,0.6-2.9,2.6V54.8z"/>
	<path class="st0" d="M254.8,55.4c-0.7,2.8-3.2,4.5-6.4,4.5c-5.2,0-7.5-4.4-7.5-8.1c0-3.7,2.3-8.4,8.3-8.4c2.9,0,5.5,0.8,5.5,3.2
		c0,1.1-0.5,1.7-1.3,1.7c-2.3,0-0.8-3.3-4.8-3.3c-2.9,0-4.8,2.3-4.8,5.7c0,3.1,2,6.6,5.7,6.6c2.2,0,3.5-0.7,4.5-2.2L254.8,55.4z"/>
	<path class="st0" d="M259.9,49.8c-0.2,4.7,2.8,7.3,6.1,7.3c1.6,0,3-0.5,4.4-1.7l0.7,0.7c-1.5,2.5-3.9,3.8-6.5,3.8
		c-4.2,0-7.3-3.4-7.3-8.1c0-4.8,3.2-8.4,7.3-8.4c4.5,0,6.5,4,6.5,6.4H259.9z M267.4,48.5c-0.3-2.5-1.5-3.9-3.5-3.9
		c-2,0-3.5,1.5-3.8,3.9H267.4z"/>
	<path class="st0" d="M278.5,55.3c0,1.8,0.6,2.8,2.2,2.9v1.3h-7.5v-1.3c1.8-0.1,2.4-1.2,2.4-2.7V38.9l-2.4-1.3v-0.8l4.5-1.6h0.9
		V55.3z"/>
	<path class="st0" d="M291,43.3c4.8,0,8.2,3.4,8.2,8.1c0,4.8-3.4,8.4-7.9,8.4c-4.4,0-8.1-3.8-8.1-8.4
		C283.2,46.9,286.6,43.3,291,43.3z M291.6,58.6c2.7,0,4.4-1.9,4.4-5c0-3-1.2-9-5.1-9c-2.6,0-4.3,1.5-4.3,5.5
		C286.5,53.3,288,58.6,291.6,58.6z"/>
	<path class="st0" d="M306.8,55.3c0,1.9,0.8,2.9,2.8,2.9v1.3h-8.4v-1.3c1.8-0.1,2.6-0.9,2.6-2.7v-8.4l-2.3-1.3V45l4.4-1.6h0.9v3h0.1
		c1.4-1.9,3.7-3,5.6-3c3.3,0,5.1,1.6,5.1,5.4v6.7c0,1.8,0.5,2.6,2.5,2.8v1.3h-8.3v-1.3c2,0,2.8-1,2.8-2.9v-5.8c0-2.2-1-3.9-3.3-3.9
		c-1.6,0-3.1,0.8-4.6,2.1V55.3z"/>
	<path class="st0" d="M331.4,47.6c0-2.1-2.1-2.8-3.2-2.8c-1.4,0-2.7,0.8-2.7,1.6c0,0.8,1.4,2,0.5,2.4l-2.1,1
		c-0.2,0.1-1.2-1.6-1.2-2.4c0-1.6,1.9-4.1,6.4-4.1c3.3,0,5.1,1.1,5.1,3.7v9c0,1.3,0.8,1.7,2,0.9l0.3,1.3c-1,1.2-1.9,1.6-2.8,1.6
		c-1.3,0-2.2-0.9-2.4-2.5c-2,1.8-3.5,2.5-5.2,2.5c-2.3,0-3.9-1.6-3.9-3.7s1.5-3.5,5.4-4.8l3.7-1.3V47.6z M329.5,52
		c-2.8,1-4.1,1.8-4.1,3.2c0,1.1,0.7,2.3,2.5,2.3c1.3,0,2.3-0.6,3.5-1.8v-4.4L329.5,52z"/>
</g>
</svg>
