<?xml version="1.0" encoding="utf-8"?>
<!-- Generator: Adobe Illustrator 24.0.0, SVG Export Plug-In . SVG Version: 6.00 Build 0)  -->
<svg version="1.1" id="Layer_1" xmlns="http://www.w3.org/2000/svg" xmlns:xlink="http://www.w3.org/1999/xlink" x="0px" y="0px"
	 width="187.9px" height="85.6px" viewBox="0 0 187.9 85.6" style="enable-background:new 0 0 187.9 85.6;" xml:space="preserve">
<style type="text/css">
	.st0{fill:#3C2B77;}
</style>
<g>
	<path class="st0" d="M0.3,49.2c0-4.5,3.5-7.5,8.7-7.5s8.7,2.7,8.7,6.6h-3c-0.1-2.7-2.4-4.2-5.7-4.2c-3.5,0-5.8,1.9-5.8,5.1
		c0,3.2,2.3,5.1,5.8,5.1c3.4,0,5.6-1.5,5.7-4.2h3c0,3.9-3.5,6.6-8.7,6.6S0.3,53.7,0.3,49.2z"/>
	<path class="st0" d="M19.2,51.3c0-3.2,2.5-5.4,6.4-5.4s6.5,2.2,6.5,5.4c0,3.2-2.5,5.4-6.5,5.4C21.7,56.8,19.2,54.6,19.2,51.3z
		 M29.2,51.3c0-2-1.5-3.2-3.7-3.2s-3.7,1.3-3.7,3.2c0,1.9,1.5,3.2,3.7,3.2C27.8,54.4,29.2,53.2,29.2,51.3z"/>
	<path class="st0" d="M33.9,46.1H37l-0.5,4.2h0.1c0.5-2.8,2-4.5,5.1-4.5c2.9,0,4.3,1.6,4.3,6.1v4.4h-2.9v-4.1c0-3.1-0.8-4.3-2.8-4.3
		c-2.2,0-3.6,2.2-3.6,5.6v2.8h-2.9C33.9,56.3,33.9,46.1,33.9,46.1z"/>
	<path class="st0" d="M47.9,51.3c0-3.4,2.7-5.4,6.7-5.4c1.9,0,3,0.3,4.7,1v2.4c-1.5-0.8-2.8-1.3-4.7-1.3c-2.3,0-3.8,1.3-3.8,3.2
		c0,2,1.5,3.2,3.9,3.2c2.1,0,3.4-0.3,4.6-1.2v2.4c-1.6,0.7-2.7,1-4.7,1C50.6,56.8,47.9,54.6,47.9,51.3z"/>
	<path class="st0" d="M60.5,51.3c0-3.2,2.4-5.4,6.1-5.4s6.1,1.9,6.1,4.6v1.7h-9.5c0.3,1.7,1.6,2.3,4.3,2.3c2.5,0,3.5-0.6,4.7-1.2
		v2.3c-2,0.8-3.1,1-5.7,1C62.9,56.8,60.5,54.6,60.5,51.3z M70.1,50.6c-0.1-1.5-1.4-2.5-3.4-2.5c-1.9,0-3.1,1-3.4,2.7L70.1,50.6z"/>
	<path class="st0" d="M74.8,46.1h3.2l-0.5,3.8h0.2c0.6-3,2.1-4.2,5.9-4.2v2.4c-4.3,0-6,1.4-6,4.7v3.5h-2.9V46.1z"/>
	<path class="st0" d="M86.5,52.7v-4.4H85v-2.1h1.7v-2.4l2.8-0.5v2.9h3v2.1h-3v3.8c0,2.1,0,2.5,1.9,2.5c0.3,0,0.7,0,1,0v1.5
		c-0.8,0.2-1.7,0.5-2.8,0.5C87,56.6,86.5,55.6,86.5,52.7z"/>
	<path class="st0" d="M95.8,59.7v-2.5c1,0.7,3,1.2,5,1.2c3,0,4.1-1.3,4.2-3.6l0.1-1.4c-0.6,2.1-2.7,3.2-5.1,3.2
		c-3.4,0-5.8-2.1-5.8-5.4c0-3.2,2.4-5.3,5.3-5.3c2.5,0,4.9,1.3,5.3,3.7h0.3l-0.2-3.4h2.8v9c0,3.7-2.8,5.3-6.7,5.3
		C98.7,60.5,97.3,60.1,95.8,59.7z M104.3,51.2c0-2-1.7-3.1-3.7-3.1c-2.1,0-3.7,1.2-3.7,3.1c0,2,1.5,3.2,3.7,3.2
		C102.6,54.4,104.3,53.3,104.3,51.2z"/>
	<path class="st0" d="M109.6,51.3c0-3.2,2.4-5.4,6.1-5.4s6.1,1.9,6.1,4.6v1.7h-9.5c0.3,1.7,1.6,2.3,4.3,2.3c2.5,0,3.5-0.6,4.7-1.2
		v2.3c-2,0.8-3.1,1-5.7,1C112,56.8,109.6,54.6,109.6,51.3z M119,50.6c-0.1-1.5-1.4-2.5-3.4-2.5c-1.9,0-3.1,1-3.4,2.7L119,50.6z"/>
	<path class="st0" d="M127,53.1h-0.2l0.5,3.4h-3V42.1h2.9v7.4h0.1c0.5-2.4,2.8-3.7,5.3-3.7c2.9,0,5.3,2.2,5.3,5.3
		c0,3.4-2.4,5.6-5.8,5.6C129.6,56.8,127.5,55.3,127,53.1z M135,51.2c0-2-1.5-3.1-3.7-3.1c-2,0-3.7,1.2-3.7,3.1c0,2,1.7,3.2,3.7,3.2
		C133.5,54.4,135,53.3,135,51.2z"/>
	<path class="st0" d="M139.1,51.3c0-3.2,2.5-5.4,6.4-5.4c3.8,0,6.5,2.2,6.5,5.4c0,3.2-2.5,5.4-6.5,5.4
		C141.7,56.8,139.1,54.6,139.1,51.3z M149.2,51.3c0-2-1.5-3.2-3.7-3.2c-2.2,0-3.7,1.3-3.7,3.2c0,1.9,1.5,3.2,3.7,3.2
		C147.7,54.4,149.2,53.2,149.2,51.3z"/>
	<path class="st0" d="M166,56.4h-3.2l0.5-4.2h-0.1c-0.5,2.7-2,4.5-5.1,4.5c-2.9,0-4.3-1.7-4.3-6.1v-4.4h2.9v4.1
		c0,3.1,0.8,4.3,2.8,4.3c2.2,0,3.6-2.2,3.6-5.6v-2.8h2.9v10.2H166z"/>
	<path class="st0" d="M166.8,46.1h2.9l3.2,7.8l3.1-7.8h2.2l3.4,7.8l3.4-7.8h2.9l-4.4,10.3h-3.8l-2.4-5.9l-2.3,5.9h-3.7L166.8,46.1z"
		/>
</g>
<g>
	<g>
		<path class="st0" d="M1.1,66.6h6.7c5.2,0,8.3,2.4,8.3,7.2c0,4.7-3.2,7.2-8.3,7.2H1.1V66.6z M7.9,78.5c3.5,0,5.4-1.7,5.4-4.7
			c0-3-2-4.7-5.4-4.7H4v9.5H7.9z"/>
		<path class="st0" d="M18,75.9c0-3.2,2.4-5.4,6.1-5.4s6.1,1.9,6.1,4.6v1.7h-9.5c0.3,1.7,1.6,2.3,4.3,2.3c2.5,0,3.5-0.6,4.7-1.2v2.3
			c-2,0.8-3.1,1-5.7,1C20.4,81.3,18,79.2,18,75.9z M27.5,75.2c-0.1-1.5-1.4-2.5-3.4-2.5c-1.9,0-3.1,1-3.4,2.7L27.5,75.2z"/>
		<path class="st0" d="M58.3,66.6l-8,14.4h-4.2l-8-14.4h3.5l6.6,12.3l6.6-12.3H58.3z"/>
		<path class="st0" d="M57.6,75.9c0-3.2,2.4-5.4,6.1-5.4c3.7,0,6.1,1.9,6.1,4.6v1.7h-9.5c0.3,1.7,1.6,2.3,4.3,2.3
			c2.5,0,3.5-0.6,4.7-1.2v2.3c-2,0.8-3.1,1-5.7,1C60,81.3,57.6,79.2,57.6,75.9z M67.1,75.2c-0.1-1.5-1.4-2.5-3.4-2.5
			c-1.9,0-3.1,1-3.4,2.7L67.1,75.2z"/>
		<path class="st0" d="M71.8,70.8h3.2l-0.3,3.8h0.2c0.6-3,2.1-4.2,5.9-4.2v2.4c-4.3,0-6,1.4-6,4.7v3.5h-2.9V70.8H71.8z"/>
		<path class="st0" d="M81.1,75.9c0-3.2,2.4-5.4,6.1-5.4c3.7,0,6.1,1.9,6.1,4.6v1.7h-9.5c0.3,1.7,1.6,2.3,4.3,2.3
			c2.5,0,3.5-0.6,4.7-1.2v2.3c-2,0.8-3.1,1-5.7,1C83.5,81.3,81.1,79.2,81.1,75.9z M90.7,75.2c-0.1-1.5-1.4-2.5-3.4-2.5
			c-1.9,0-3.1,1-3.4,2.7L90.7,75.2z"/>
		<path class="st0" d="M95,75.9c0-3.2,2.4-5.4,6.1-5.4c3.7,0,6.1,1.9,6.1,4.6v1.7h-9.5c0.3,1.7,1.6,2.3,4.3,2.3
			c2.5,0,3.5-0.6,4.7-1.2v2.3c-2,0.8-3.1,1-5.7,1C97.5,81.3,95,79.2,95,75.9z M104.6,75.2c-0.1-1.5-1.4-2.5-3.4-2.5
			c-1.9,0-3.1,1-3.4,2.7L104.6,75.2z"/>
		<path class="st0" d="M109.3,70.8h3.2l-0.5,4.2h0.1c0.5-2.8,2-4.5,5.1-4.5c2.9,0,4.3,1.6,4.3,6.1v4.4h-2.9v-4.1
			c0-3.1-0.8-4.3-2.8-4.3c-2.2,0-3.6,2.2-3.6,5.6v2.8h-2.9V70.8H109.3z"/>
		<path class="st0" d="M123.7,67.3c0-1.2,0.7-1.6,1.7-1.6c1.2,0,1.9,0.6,1.9,1.6c0,1.2-0.7,1.6-1.9,1.6
			C124.4,69,123.7,68.4,123.7,67.3z M124,70.8h2.9v10.3H124V70.8z"/>
		<path class="st0" d="M130.5,84.2v-2.5c0.9,0.7,3,1.2,5,1.2c3,0,4.1-1.3,4.2-3.6l0.1-1.4c-0.6,2.1-2.7,3.2-5.1,3.2
			c-3.4,0-5.8-2.1-5.8-5.4c0-3.2,2.4-5.3,5.3-5.3c2.5,0,4.9,1.3,5.3,3.7h0.3l-0.2-3.4h2.8v9c0,3.7-2.8,5.3-6.7,5.3
			C133.4,85.1,132.1,84.8,130.5,84.2z M139.2,75.9c0-2-1.7-3.1-3.7-3.1c-2.1,0-3.7,1.2-3.7,3.1c0,2,1.5,3.2,3.7,3.2
			C137.4,79.1,139.2,77.8,139.2,75.9z"/>
		<path class="st0" d="M144.4,67.3c0-1.2,0.7-1.6,1.7-1.6c1.2,0,1.9,0.6,1.9,1.6c0,1.2-0.7,1.6-1.9,1.6
			C145.1,69,144.4,68.4,144.4,67.3z M144.7,70.8h2.9v10.3h-2.9V70.8z"/>
		<path class="st0" d="M150.2,70.8h3.2l-0.5,4.2h0.1c0.5-2.8,2-4.5,5.1-4.5c2.9,0,4.3,1.6,4.3,6.1v4.4h-2.9v-4.1
			c0-3.1-0.8-4.3-2.8-4.3c-2.2,0-3.6,2.2-3.6,5.6v2.8h-2.9V70.8H150.2z"/>
		<path class="st0" d="M165.9,84.2v-2.5c0.9,0.7,3,1.2,5,1.2c3,0,4.1-1.3,4.2-3.6l0.1-1.4c-0.6,2.1-2.7,3.2-5.1,3.2
			c-3.4,0-5.8-2.1-5.8-5.4c0-3.2,2.4-5.3,5.3-5.3c2.5,0,4.9,1.3,5.3,3.7h0.3l-0.2-3.4h2.8v9c0,3.7-2.8,5.3-6.7,5.3
			C168.8,85.1,167.5,84.8,165.9,84.2z M174.6,75.9c0-2-1.7-3.1-3.7-3.1c-2.1,0-3.7,1.2-3.7,3.1c0,2,1.5,3.2,3.7,3.2
			C172.9,79.1,174.6,77.8,174.6,75.9z"/>
	</g>
</g>
</svg>
