<?xml version="1.0" encoding="utf-8"?>
<!-- Generator: Adobe Illustrator 24.0.0, SVG Export Plug-In . SVG Version: 6.00 Build 0)  -->
<svg version="1.1" id="Layer_1" xmlns="http://www.w3.org/2000/svg" xmlns:xlink="http://www.w3.org/1999/xlink" x="0px" y="0px"
	 width="187.9px" height="85.6px" viewBox="0 0 187.9 85.6" style="enable-background:new 0 0 187.9 85.6;" xml:space="preserve">
<style type="text/css">
	.st0{fill:#3C2B77;}
</style>
<g>
	<path class="st0" d="M0.3,10.8h2.6c0,1.3,1.6,2.1,4.1,2.1c2.9,0,4.6-0.5,4.6-1.8c0-3.2-11,0.5-11-5.1c0-2.5,2.6-4,6.5-4
		c4,0,6.8,1.7,6.8,4.3h-2.6c0-1.3-1.6-2.1-4-2.1c-2.6,0-4.1,0.6-4.1,1.6c0,3.1,11-0.4,11,5.2c0,2.5-2.8,4-6.9,4
		C2.9,15.1,0.2,13.4,0.3,10.8z"/>
	<path class="st0" d="M16.3,11.6V7.8h-1.3V5.9h1.4V3.8l2.4-0.4v2.5h2.6v1.8h-2.6v3.3c0,1.8,0,2.2,1.6,2.2c0.3,0,0.6,0,0.9,0v1.3
		C20.7,14.9,19.9,15,19,15C16.7,15,16.3,14.1,16.3,11.6z"/>
	<path class="st0" d="M22.3,12.7c0-2.6,5-2.9,7.9-3.2c0-1.4-0.8-1.9-2.6-1.9c-1.4,0-3,0.5-4.2,1v-2c1.5-0.5,3.4-1,4.9-1
		c3.2,0,4.4,1.7,4.4,4.1v5h-2.5l0.5-3h-0.2c-0.6,2.2-2.3,3.3-5,3.3C24.3,15.1,22.3,14.8,22.3,12.7z M30.2,10.8
		C28.2,11,25,11.1,25,12.3c0,0.6,0.7,1,1.7,1C28.4,13.3,30.2,12.5,30.2,10.8z"/>
	<path class="st0" d="M34.3,10.3c0-2.8,2.1-4.6,4.6-4.6c2.2,0,4.2,1.1,4.6,3.2h0.1V2.4h2.5v12.4h-2.6l0.4-2.9h-0.2
		c-0.4,1.9-2.2,3.2-4.4,3.2C36.4,15.1,34.3,13.2,34.3,10.3z M43.1,10.3c0-1.7-1.5-2.7-3.2-2.7c-1.8,0-3.1,1-3.1,2.7
		c0,1.7,1.3,2.8,3.1,2.8C41.6,13.1,43.1,12.1,43.1,10.3z"/>
	<path class="st0" d="M48.1,14.4v-2.1c1.5,0.6,2.8,0.9,4.4,0.9c2.2,0,3.1-0.2,3.1-1c0-1.7-7.9,0.3-7.9-3.6c0-2,2.1-2.9,5.2-2.9
		c1.1,0,2.9,0.2,4.4,0.5v2c-1.3-0.3-2.8-0.5-4.2-0.5c-2.1,0-3,0.3-3,0.9c0,1.7,7.9-0.3,7.9,3.6c0,2.1-2.1,2.9-5.2,2.9
		C51.5,15.1,49.6,14.8,48.1,14.4z"/>
	<path class="st0" d="M60.3,14.4v-2.1c1.5,0.6,2.8,0.9,4.4,0.9c2.2,0,3.1-0.2,3.1-1c0-1.7-7.9,0.3-7.9-3.6c0-2,2.1-2.9,5.2-2.9
		c1.1,0,2.9,0.2,4.4,0.5v2c-1.3-0.3-2.8-0.5-4.2-0.5c-2.1,0-3,0.3-3,0.9c0,1.7,7.9-0.3,7.9,3.6c0,2.1-2.1,2.9-5.2,2.9
		C63.7,15.1,61.8,14.8,60.3,14.4z"/>
	<path class="st0" d="M71.4,10.4c0-2.9,2.3-4.7,5.8-4.7c1.6,0,2.6,0.3,4.1,0.9v2.1C80,8,78.8,7.6,77.1,7.6c-2,0-3.3,1.1-3.3,2.8
		s1.3,2.8,3.4,2.8c1.8,0,2.9-0.3,4-1v2.1c-1.4,0.6-2.3,0.9-4.1,0.9C73.8,15.1,71.4,13.2,71.4,10.4z"/>
	<path class="st0" d="M83.2,2.4h2.8l-0.4,7.2h0.1c0.4-2.4,1.7-3.9,4.4-3.9c2.5,0,3.7,1.4,3.7,5.3v3.8h-2.5v-3.5
		c0-2.7-0.7-3.7-2.4-3.7c-1.9,0-3.1,1.9-3.1,4.8v2.4h-2.5V2.4z"/>
	<path class="st0" d="M95.3,10.4c0-2.8,2.2-4.7,5.5-4.7c3.3,0,5.6,1.9,5.6,4.7c0,2.8-2.2,4.7-5.6,4.7C97.5,15.1,95.3,13.2,95.3,10.4
		z M104.1,10.4c0-1.7-1.3-2.8-3.2-2.8c-1.9,0-3.2,1.1-3.2,2.8c0,1.6,1.3,2.8,3.2,2.8C102.8,13.1,104.1,12,104.1,10.4z"/>
	<path class="st0" d="M118.6,14.8h-2.8l0.4-3.6H116c-0.4,2.3-1.7,3.9-4.4,3.9c-2.5,0-3.7-1.5-3.7-5.3V5.9h2.5v3.5
		c0,2.7,0.7,3.7,2.4,3.7c1.9,0,3.1-1.9,3.1-4.8V5.9h2.5V14.8z"/>
	<path class="st0" d="M119.2,5.9h2.5l2.8,6.7l2.7-6.7h1.9l2.9,6.7l2.9-6.7h2.5l-3.8,8.9h-3.3l-2.1-5.1l-2,5.1H123L119.2,5.9z"/>
	<path class="st0" d="M141.2,11.9h-0.2l0.4,2.9h-2.6V2.4h2.5v6.4h0.1c0.4-2.1,2.4-3.2,4.6-3.2c2.5,0,4.6,1.9,4.6,4.6
		c0,2.9-2.1,4.8-5,4.8C143.4,15.1,141.6,13.8,141.2,11.9z M148.1,10.3c0-1.7-1.3-2.7-3.2-2.7c-1.7,0-3.2,1-3.2,2.7
		c0,1.7,1.5,2.8,3.2,2.8C146.8,13.1,148.1,12.1,148.1,10.3z"/>
	<path class="st0" d="M162.7,14.8h-2.8l0.4-3.6h-0.1c-0.4,2.3-1.7,3.9-4.4,3.9c-2.5,0-3.7-1.5-3.7-5.3V5.9h2.5v3.5
		c0,2.7,0.7,3.7,2.4,3.7c1.9,0,3.1-1.9,3.1-4.8V5.9h2.5V14.8z"/>
	<path class="st0" d="M164.8,5.9h2.8l-0.4,3.3h0.2c0.5-2.6,1.8-3.6,5.1-3.6v2.1c-3.7,0-5.2,1.2-5.2,4.1v3h-2.5V5.9z"/>
	<path class="st0" d="M174.1,17.6v-2.2c0.8,0.6,2.6,1,4.3,1c2.6,0,3.5-1.1,3.6-3.1l0.1-1.2c-0.5,1.8-2.3,2.8-4.4,2.8
		c-2.9,0-5-1.8-5-4.7c0-2.8,2.1-4.6,4.6-4.6c2.2,0,4.2,1.1,4.6,3.2h0.3l-0.2-2.9h2.4v7.8c0,3.2-2.4,4.6-5.8,4.6
		C176.6,18.3,175.5,18,174.1,17.6z M181.6,10.3c0-1.7-1.5-2.7-3.2-2.7c-1.8,0-3.2,1-3.2,2.7c0,1.7,1.3,2.8,3.2,2.8
		C180.1,13.1,181.6,12.1,181.6,10.3z"/>
</g>
<g>
	<path class="st0" d="M1,23.6h2.3l9.3,8.9v-8.9h2.5V36h-2.3l-9.3-8.9V36H1V23.6z"/>
	<path class="st0" d="M17,24.2c0-1,0.6-1.4,1.5-1.4c1,0,1.6,0.5,1.6,1.4c0,1-0.6,1.4-1.6,1.4C17.6,25.7,17,25.2,17,24.2z M17.3,27.2
		h2.5V36h-2.5V27.2z"/>
	<path class="st0" d="M19.9,38c1.2,0,1.8-0.6,1.8-1.6v-9.3h2.5v9c0,2.1-1.9,3.4-4.3,3.4V38z M21.4,24.2c0-1,0.6-1.4,1.5-1.4
		c1,0,1.6,0.5,1.6,1.4c0,1-0.6,1.4-1.6,1.4C22,25.7,21.4,25.2,21.4,24.2z"/>
	<path class="st0" d="M26.4,27.2h2.8l-0.4,3.6h0.1c0.4-2.4,1.7-3.9,4.4-3.9c2.2,0,3.3,1.1,3.6,3.9H37c0.4-2.4,1.7-3.9,4.4-3.9
		c2.5,0,3.7,1.4,3.7,5.3V36h-2.5v-3.5c0-2.7-0.7-3.7-2.4-3.7c-1.9,0-3.1,1.9-3.1,4.8V36h-2.5v-3.5c0-2.7-0.7-3.7-2.4-3.7
		c-1.9,0-3.1,1.9-3.1,4.8V36h-2.5V27.2z"/>
	<path class="st0" d="M46.6,31.6c0-2.8,2.1-4.7,5.3-4.7c3.2,0,5.3,1.6,5.3,4v1.5h-8.2c0.3,1.5,1.4,2,3.7,2c2.2,0,3-0.5,4.1-1v2
		c-1.7,0.7-2.7,0.9-4.9,0.9C48.8,36.3,46.6,34.4,46.6,31.6z M54.9,31c-0.1-1.3-1.2-2.2-2.9-2.2c-1.6,0-2.7,0.9-2.9,2.3L54.9,31z"/>
	<path class="st0" d="M60.2,38.8v-2.2c0.8,0.6,2.6,1,4.3,1c2.6,0,3.5-1.1,3.6-3.1l0.1-1.2c-0.5,1.8-2.3,2.8-4.4,2.8
		c-2.9,0-5-1.8-5-4.7c0-2.8,2.1-4.6,4.6-4.6c2.2,0,4.2,1.1,4.6,3.2h0.3l-0.2-2.9h2.4V35c0,3.2-2.4,4.6-5.8,4.6
		C62.7,39.6,61.6,39.3,60.2,38.8z M67.7,31.6c0-1.7-1.5-2.7-3.2-2.7c-1.8,0-3.2,1-3.2,2.7c0,1.7,1.3,2.8,3.2,2.8
		C66.2,34.4,67.7,33.3,67.7,31.6z"/>
	<path class="st0" d="M72.1,31.6c0-2.8,2.1-4.7,5.3-4.7c3.2,0,5.3,1.6,5.3,4v1.5h-8.2c0.3,1.5,1.4,2,3.7,2c2.2,0,3-0.5,4.1-1v2
		c-1.7,0.7-2.7,0.9-4.9,0.9C74.2,36.3,72.1,34.4,72.1,31.6z M80.4,31c-0.1-1.3-1.2-2.2-2.9-2.2c-1.6,0-2.7,0.9-2.9,2.3L80.4,31z"/>
	<path class="st0" d="M84.5,27.2h2.8l-0.4,3.6H87c0.4-2.4,1.7-3.9,4.4-3.9c2.5,0,3.7,1.4,3.7,5.3V36h-2.5v-3.5
		c0-2.7-0.7-3.7-2.4-3.7c-1.9,0-3.1,1.9-3.1,4.8V36h-2.5V27.2z"/>
</g>
<g>
	<path class="st0" d="M101.7,29.2h7.1v2h-7.1V29.2z"/>
	<path class="st0" d="M107.2,29.2h7.1v2h-7.1V29.2z"/>
	<path class="st0" d="M112.7,29.2h7.1v2h-7.1V29.2z"/>
	<path class="st0" d="M118.2,29.2h7.1v2h-7.1V29.2z"/>
	<path class="st0" d="M123.7,29.2h7.1v2h-7.1V29.2z"/>
	<path class="st0" d="M129.2,29.2h7.1v2h-7.1V29.2z"/>
	<path class="st0" d="M134.7,29.2h7.1v2h-7.1V29.2z"/>
	<path class="st0" d="M140.2,29.2h7.1v2h-7.1V29.2z"/>
	<path class="st0" d="M145.7,29.2h7.1v2h-7.1V29.2z"/>
	<path class="st0" d="M151.2,29.2h7.1v2h-7.1V29.2z"/>
	<path class="st0" d="M156.7,29.2h7.1v2h-7.1V29.2z"/>
</g>
<g>
	<path class="st0" d="M0.3,51.1c0-3.9,3-6.5,7.5-6.5s7.5,2.3,7.5,5.7h-2.6c-0.1-2.3-2.1-3.6-4.9-3.6c-3,0-5,1.6-5,4.4s2,4.4,5,4.4
		c2.9,0,4.8-1.3,4.9-3.6h2.6c0,3.4-3,5.7-7.5,5.7S0.3,55,0.3,51.1z"/>
	<path class="st0" d="M16.6,52.9c0-2.8,2.2-4.7,5.5-4.7c3.3,0,5.6,1.9,5.6,4.7c0,2.8-2.2,4.7-5.6,4.7C18.8,57.6,16.6,55.7,16.6,52.9
		z M25.3,52.9c0-1.7-1.3-2.8-3.2-2.8c-1.9,0-3.2,1.1-3.2,2.8c0,1.6,1.3,2.8,3.2,2.8C24.1,55.6,25.3,54.5,25.3,52.9z"/>
	<path class="st0" d="M29.3,48.4H32l-0.4,3.6h0.1c0.4-2.4,1.7-3.9,4.4-3.9c2.5,0,3.7,1.4,3.7,5.3v3.8h-2.5v-3.5
		c0-2.7-0.7-3.7-2.4-3.7c-1.9,0-3.1,1.9-3.1,4.8v2.4h-2.5V48.4z"/>
	<path class="st0" d="M41.4,52.9c0-2.9,2.3-4.7,5.8-4.7c1.6,0,2.6,0.3,4.1,0.9v2.1c-1.3-0.7-2.4-1.1-4.1-1.1c-2,0-3.3,1.1-3.3,2.8
		s1.3,2.8,3.4,2.8c1.8,0,2.9-0.3,4-1v2.1c-1.4,0.6-2.3,0.9-4.1,0.9C43.8,57.6,41.4,55.7,41.4,52.9z"/>
	<path class="st0" d="M52.3,52.9c0-2.8,2.1-4.7,5.3-4.7c3.2,0,5.3,1.6,5.3,4v1.5h-8.2c0.3,1.5,1.4,2,3.7,2c2.2,0,3-0.5,4.1-1v2
		c-1.7,0.7-2.7,0.9-4.9,0.9C54.4,57.6,52.3,55.7,52.3,52.9z M60.6,52.3c-0.1-1.3-1.2-2.2-2.9-2.2c-1.6,0-2.7,0.9-2.9,2.3L60.6,52.3z
		"/>
	<path class="st0" d="M64.7,48.4h2.8l-0.4,3.3h0.2c0.5-2.6,1.8-3.6,5.1-3.6v2.1c-3.7,0-5.2,1.2-5.2,4.1v3h-2.5V48.4z"/>
	<path class="st0" d="M74.8,54.1v-3.8h-1.3v-1.8H75v-2.1l2.4-0.4v2.5h2.6v1.8h-2.6v3.3c0,1.8,0,2.2,1.6,2.2c0.3,0,0.6,0,0.9,0v1.3
		c-0.7,0.2-1.5,0.4-2.4,0.4C75.2,57.5,74.8,56.6,74.8,54.1z"/>
	<path class="st0" d="M82.8,60.1v-2.2c0.9,0.6,2.6,1,4.3,1c2.6,0,3.5-1.1,3.6-3.1l0.1-1.2c-0.5,1.8-2.3,2.8-4.4,2.8
		c-2.9,0-5-1.8-5-4.7c0-2.8,2.1-4.6,4.6-4.6c2.2,0,4.2,1.1,4.6,3.2h0.3l-0.2-2.9h2.4v7.8c0,3.2-2.4,4.6-5.8,4.6
		C85.3,60.8,84.1,60.5,82.8,60.1z M90.2,52.8c0-1.7-1.5-2.7-3.2-2.7c-1.8,0-3.2,1-3.2,2.7c0,1.7,1.3,2.8,3.2,2.8
		C88.7,55.6,90.2,54.6,90.2,52.8z"/>
	<path class="st0" d="M94.7,52.9c0-2.8,2.1-4.7,5.3-4.7c3.2,0,5.3,1.6,5.3,4v1.5h-8.2c0.3,1.5,1.4,2,3.7,2c2.2,0,3-0.5,4.1-1v2
		c-1.7,0.7-2.7,0.9-4.9,0.9C96.8,57.6,94.7,55.7,94.7,52.9z M102.9,52.3c-0.1-1.3-1.2-2.2-2.9-2.2c-1.6,0-2.7,0.9-2.9,2.3
		L102.9,52.3z"/>
	<path class="st0" d="M109.8,54.4h-0.2l0.4,2.9h-2.6V44.9h2.5v6.4h0.1c0.4-2.1,2.4-3.2,4.6-3.2c2.5,0,4.6,1.9,4.6,4.6
		c0,2.9-2.1,4.8-5,4.8C112,57.6,110.2,56.3,109.8,54.4z M116.7,52.8c0-1.7-1.3-2.7-3.2-2.7c-1.7,0-3.2,1-3.2,2.7
		c0,1.7,1.5,2.8,3.2,2.8C115.4,55.6,116.7,54.6,116.7,52.8z"/>
	<path class="st0" d="M120.2,52.9c0-2.8,2.2-4.7,5.5-4.7c3.3,0,5.6,1.9,5.6,4.7c0,2.8-2.2,4.7-5.6,4.7
		C122.5,57.6,120.2,55.7,120.2,52.9z M129,52.9c0-1.7-1.3-2.8-3.2-2.8c-1.9,0-3.2,1.1-3.2,2.8c0,1.6,1.3,2.8,3.2,2.8
		C127.7,55.6,129,54.5,129,52.9z"/>
	<path class="st0" d="M143.5,57.3h-2.8l0.4-3.6H141c-0.4,2.3-1.7,3.9-4.4,3.9c-2.5,0-3.7-1.5-3.7-5.3v-3.8h2.5V52
		c0,2.7,0.7,3.7,2.4,3.7c1.9,0,3.1-1.9,3.1-4.8v-2.4h2.5V57.3z"/>
	<path class="st0" d="M144.2,48.4h2.5l2.8,6.7l2.7-6.7h1.9l2.9,6.7l2.9-6.7h2.5l-3.8,8.9h-3.3l-2.1-5.1l-2,5.1H148L144.2,48.4z"/>
</g>
<g>
	<g>
		<path class="st0" d="M1,66.1h5.8c4.5,0,7.2,2.1,7.2,6.2c0,4.1-2.8,6.2-7.2,6.2H1V66.1z M6.9,76.4c3,0,4.7-1.5,4.7-4.1
			c0-2.6-1.7-4.1-4.7-4.1H3.5v8.2H6.9z"/>
		<path class="st0" d="M15.6,74.1c0-2.8,2.1-4.7,5.3-4.7c3.2,0,5.3,1.6,5.3,4v1.5h-8.2c0.3,1.5,1.4,2,3.7,2c2.2,0,3-0.5,4.1-1v2
			c-1.7,0.7-2.7,0.9-4.9,0.9C17.7,78.8,15.6,77,15.6,74.1z M23.8,73.5c-0.1-1.3-1.2-2.2-2.9-2.2c-1.6,0-2.7,0.9-2.9,2.3L23.8,73.5z"
			/>
		<path class="st0" d="M50.4,66.1l-6.9,12.4h-3.6l-6.9-12.4h3l5.7,10.6l5.7-10.6H50.4z"/>
		<path class="st0" d="M49.8,74.1c0-2.8,2.1-4.7,5.3-4.7c3.2,0,5.3,1.6,5.3,4v1.5h-8.2c0.3,1.5,1.4,2,3.7,2c2.2,0,3-0.5,4.1-1v2
			c-1.7,0.7-2.7,0.9-4.9,0.9C51.9,78.8,49.8,77,49.8,74.1z M58,73.5c-0.1-1.3-1.2-2.2-2.9-2.2c-1.6,0-2.7,0.9-2.9,2.3L58,73.5z"/>
		<path class="st0" d="M62.1,69.7h2.8L64.6,73h0.2c0.5-2.6,1.8-3.6,5.1-3.6v2.1c-3.7,0-5.2,1.2-5.2,4.1v3h-2.5V69.7z"/>
		<path class="st0" d="M70.1,74.1c0-2.8,2.1-4.7,5.3-4.7c3.2,0,5.3,1.6,5.3,4v1.5h-8.2c0.3,1.5,1.4,2,3.7,2c2.2,0,3-0.5,4.1-1v2
			c-1.7,0.7-2.7,0.9-4.9,0.9C72.2,78.8,70.1,77,70.1,74.1z M78.4,73.5c-0.1-1.3-1.2-2.2-2.9-2.2c-1.6,0-2.7,0.9-2.9,2.3L78.4,73.5z"
			/>
		<path class="st0" d="M82.1,74.1c0-2.8,2.1-4.7,5.3-4.7c3.2,0,5.3,1.6,5.3,4v1.5h-8.2c0.3,1.5,1.4,2,3.7,2c2.2,0,3-0.5,4.1-1v2
			c-1.7,0.7-2.7,0.9-4.9,0.9C84.3,78.8,82.1,77,82.1,74.1z M90.4,73.5c-0.1-1.3-1.2-2.2-2.9-2.2c-1.6,0-2.7,0.9-2.9,2.3L90.4,73.5z"
			/>
		<path class="st0" d="M94.5,69.7h2.8l-0.4,3.6h0.1c0.4-2.4,1.7-3.9,4.4-3.9c2.5,0,3.7,1.4,3.7,5.3v3.8h-2.5V75
			c0-2.7-0.7-3.7-2.4-3.7c-1.9,0-3.1,1.9-3.1,4.8v2.4h-2.5V69.7z"/>
		<path class="st0" d="M106.9,66.7c0-1,0.6-1.4,1.5-1.4c1,0,1.6,0.5,1.6,1.4c0,1-0.6,1.4-1.6,1.4C107.5,68.2,106.9,67.7,106.9,66.7z
			 M107.2,69.7h2.5v8.9h-2.5V69.7z"/>
		<path class="st0" d="M112.8,81.3v-2.2c0.8,0.6,2.6,1,4.3,1c2.6,0,3.5-1.1,3.6-3.1l0.1-1.2c-0.5,1.8-2.3,2.8-4.4,2.8
			c-2.9,0-5-1.8-5-4.7c0-2.8,2.1-4.6,4.6-4.6c2.2,0,4.2,1.1,4.6,3.2h0.3l-0.2-2.9h2.4v7.8c0,3.2-2.4,4.6-5.8,4.6
			C115.3,82.1,114.2,81.8,112.8,81.3z M120.3,74.1c0-1.7-1.5-2.7-3.2-2.7c-1.8,0-3.2,1-3.2,2.7c0,1.7,1.3,2.8,3.2,2.8
			C118.8,76.9,120.3,75.8,120.3,74.1z"/>
		<path class="st0" d="M124.8,66.7c0-1,0.6-1.4,1.5-1.4c1,0,1.6,0.5,1.6,1.4c0,1-0.6,1.4-1.6,1.4C125.4,68.2,124.8,67.7,124.8,66.7z
			 M125.1,69.7h2.5v8.9h-2.5V69.7z"/>
		<path class="st0" d="M129.8,69.7h2.8l-0.4,3.6h0.1c0.4-2.4,1.7-3.9,4.4-3.9c2.5,0,3.7,1.4,3.7,5.3v3.8h-2.5V75
			c0-2.7-0.7-3.7-2.4-3.7c-1.9,0-3.1,1.9-3.1,4.8v2.4h-2.5V69.7z"/>
		<path class="st0" d="M143.4,81.3v-2.2c0.8,0.6,2.6,1,4.3,1c2.6,0,3.5-1.1,3.6-3.1l0.1-1.2c-0.5,1.8-2.3,2.8-4.4,2.8
			c-2.9,0-5-1.8-5-4.7c0-2.8,2.1-4.6,4.6-4.6c2.2,0,4.2,1.1,4.6,3.2h0.3l-0.2-2.9h2.4v7.8c0,3.2-2.4,4.6-5.8,4.6
			C145.9,82.1,144.8,81.8,143.4,81.3z M150.9,74.1c0-1.7-1.5-2.7-3.2-2.7c-1.8,0-3.2,1-3.2,2.7c0,1.7,1.3,2.8,3.2,2.8
			C149.4,76.9,150.9,75.8,150.9,74.1z"/>
	</g>
</g>
</svg>
