<?xml version="1.0" encoding="utf-8"?>
<!-- Generator: Adobe Illustrator 24.0.0, SVG Export Plug-In . SVG Version: 6.00 Build 0)  -->
<svg version="1.1" id="Laag_1" xmlns="http://www.w3.org/2000/svg" xmlns:xlink="http://www.w3.org/1999/xlink" x="0px" y="0px"
	 width="161.6px" height="13.9px" viewBox="0 0 161.6 13.9" style="enable-background:new 0 0 161.6 13.9;" xml:space="preserve">
<style type="text/css">
	.st0{fill:#FFFFFF;}
</style>
<g>
	<path class="st0" d="M0.1,5.4c0-2.8,2.2-4.7,5.4-4.7S11,2.3,11,4.8H9.1C9.1,3.2,7.6,2.2,5.5,2.2c-2.2,0-3.6,1.2-3.6,3.2
		c0,2,1.4,3.2,3.6,3.2c2.1,0,3.5-0.9,3.6-2.6H11c0,2.5-2.2,4.1-5.4,4.1S0.1,8.2,0.1,5.4z"/>
	<path class="st0" d="M11.9,8.4c0-1.9,3.7-2.1,5.8-2.3c0-1-0.6-1.4-1.9-1.4c-1,0-2.2,0.3-3.1,0.7V4c1.1-0.4,2.5-0.7,3.6-0.7
		c2.3,0,3.2,1.2,3.2,3v3.6h-1.8l0.3-2.2H18c-0.4,1.6-1.7,2.4-3.6,2.4C13.4,10.1,11.9,9.9,11.9,8.4z M17.7,7
		c-1.5,0.1-3.8,0.2-3.8,1.1c0,0.4,0.5,0.7,1.2,0.7C16.4,8.8,17.7,8.2,17.7,7z"/>
	<path class="st0" d="M29.6,6.7c0,2-1.5,3.4-3.4,3.4c-1.6,0-3-0.8-3.4-2.3h-0.1v4.7H21v-9h1.9l-0.3,2.1h0.2c0.3-1.4,1.6-2.3,3.2-2.3
		C28.1,3.3,29.6,4.7,29.6,6.7z M23.2,6.7c0,1.2,1.1,2,2.3,2c1.3,0,2.3-0.7,2.3-2c0-1.3-1-2.1-2.3-2.1C24.3,4.7,23.2,5.4,23.2,6.7z"
		/>
	<path class="st0" d="M39.6,6.7c0,2-1.5,3.4-3.4,3.4c-1.6,0-3-0.8-3.4-2.3h-0.1v4.7H31v-9h1.9l-0.3,2.1h0.2c0.3-1.4,1.6-2.3,3.2-2.3
		C38.1,3.3,39.6,4.7,39.6,6.7z M33.2,6.7c0,1.2,1.1,2,2.3,2c1.3,0,2.3-0.7,2.3-2c0-1.3-1-2.1-2.3-2.1C34.3,4.7,33.2,5.4,33.2,6.7z"
		/>
	<path class="st0" d="M40.6,6.7c0-2.1,1.5-3.4,3.9-3.4c2.3,0,3.8,1.2,3.9,2.9v1.1h-5.9c0.2,1.1,1,1.5,2.7,1.5c1.6,0,2.2-0.4,3-0.7
		v1.5c-1.3,0.5-2,0.6-3.6,0.6C42.1,10.1,40.6,8.8,40.6,6.7z M46.6,6.2c0-1-0.9-1.6-2.1-1.6c-1.1,0-2,0.7-2.1,1.7L46.6,6.2z"/>
	<path class="st0" d="M49.7,0.9h1.8v9h-1.8V0.9z"/>
	<path class="st0" d="M53.5,0.9h1.8v9h-1.8V0.9z"/>
	<path class="st0" d="M56.7,8.4c0-1.9,3.7-2.1,5.8-2.3c0-1-0.6-1.4-1.9-1.4c-1,0-2.2,0.3-3.1,0.7V4c1.1-0.4,2.5-0.7,3.6-0.7
		c2.3,0,3.2,1.2,3.2,3v3.6h-1.8l0.3-2.2h-0.1c-0.4,1.6-1.7,2.4-3.6,2.4C58.2,10.1,56.7,9.9,56.7,8.4z M62.4,7
		c-1.5,0.1-3.8,0.2-3.8,1.1c0,0.4,0.5,0.7,1.2,0.7C61.1,8.8,62.4,8.2,62.4,7z"/>
	<path class="st0" d="M74.3,0.9h2.2l5.5,9h-2.1L78.8,8h-6.8L71,9.9h-2.1L74.3,0.9z M77.9,6.5l-2.5-4.3L73,6.5H77.9z"/>
	<path class="st0" d="M83.1,3.5h2l-0.3,2.7H85c0.3-1.7,1.2-2.9,3.2-2.9c1.6,0,2.4,0.8,2.6,2.9h0.1c0.3-1.7,1.2-2.9,3.2-2.9
		c1.8,0,2.7,1,2.7,3.9v2.8h-1.8V7.3c0-2-0.5-2.7-1.8-2.7c-1.4,0-2.3,1.4-2.3,3.5v1.8H89V7.3c0-2-0.5-2.7-1.8-2.7
		C85.9,4.6,85,6,85,8.1v1.8h-1.8V3.5z"/>
	<path class="st0" d="M98.1,9.6V8.1c1.1,0.4,2,0.6,3.2,0.6c1.6,0,2.3-0.2,2.3-0.7c0-1.2-5.7,0.2-5.7-2.6c0-1.4,1.5-2.1,3.8-2.1
		c0.8,0,2.1,0.1,3.2,0.4v1.5c-0.9-0.2-2.1-0.4-3-0.4c-1.5,0-2.2,0.2-2.2,0.7c0,1.2,5.7-0.2,5.7,2.6c0,1.5-1.5,2.1-3.8,2.1
		C100.6,10.1,99.2,9.9,98.1,9.6z"/>
	<path class="st0" d="M107.2,7.6V4.8h-0.9V3.5h1V1.9l1.8-0.3v1.8h1.9v1.3h-1.9v2.4c0,1.3,0,1.6,1.2,1.6c0.2,0,0.4,0,0.7,0v1
		c-0.5,0.2-1.1,0.3-1.8,0.3C107.5,10,107.2,9.4,107.2,7.6z"/>
	<path class="st0" d="M111.8,6.7c0-2.1,1.5-3.4,3.9-3.4c2.3,0,3.8,1.2,3.9,2.9v1.1h-5.9c0.2,1.1,1,1.5,2.7,1.5c1.6,0,2.2-0.4,3-0.7
		v1.5c-1.3,0.5-2,0.6-3.6,0.6C113.4,10.1,111.8,8.8,111.8,6.7z M117.8,6.2c0-1-0.9-1.6-2.1-1.6c-1.1,0-2,0.7-2.1,1.7L117.8,6.2z"/>
	<path class="st0" d="M120.8,3.5h2l-0.3,2.4h0.1c0.3-1.9,1.3-2.6,3.7-2.6v1.5c-2.7,0-3.8,0.9-3.8,3v2.2h-1.8V3.5z"/>
	<path class="st0" d="M127.2,6.6c0-2,1.5-3.4,3.4-3.4c1.6,0,3,0.8,3.3,2.3h0.1V0.9h1.8v9h-1.9l0.3-2.1h-0.2
		c-0.3,1.4-1.6,2.3-3.2,2.3C128.7,10.1,127.2,8.7,127.2,6.6z M133.6,6.7c0-1.2-1.1-2-2.3-2c-1.3,0-2.3,0.8-2.3,2c0,1.3,1,2,2.3,2
		C132.6,8.7,133.6,7.9,133.6,6.7z"/>
	<path class="st0" d="M137.3,8.4c0-1.9,3.7-2.1,5.8-2.3c0-1-0.6-1.4-1.9-1.4c-1,0-2.2,0.3-3.1,0.7V4c1.1-0.4,2.5-0.7,3.6-0.7
		c2.3,0,3.2,1.2,3.2,3v3.6H143l0.3-2.2h-0.1c-0.4,1.6-1.7,2.4-3.6,2.4C138.7,10.1,137.3,9.9,137.3,8.4z M143,7
		c-1.5,0.1-3.8,0.2-3.8,1.1c0,0.4,0.5,0.7,1.2,0.7C141.7,8.8,143,8.2,143,7z"/>
	<path class="st0" d="M146.1,3.5h2l-0.3,2.7h0.1c0.3-1.7,1.2-2.9,3.2-2.9c1.6,0,2.4,0.8,2.6,2.9h0.1c0.3-1.7,1.2-2.9,3.2-2.9
		c1.8,0,2.7,1,2.7,3.9v2.8h-1.8V7.3c0-2-0.5-2.7-1.8-2.7c-1.4,0-2.3,1.4-2.3,3.5v1.8H152V7.3c0-2-0.5-2.7-1.8-2.7
		c-1.4,0-2.3,1.4-2.3,3.5v1.8h-1.8V3.5z"/>
</g>
</svg>
