<?xml version="1.0" encoding="utf-8"?>
<!-- Generator: Adobe Illustrator 24.3.0, SVG Export Plug-In . SVG Version: 6.00 Build 0)  -->
<svg version="1.1" id="Laag_1" xmlns="http://www.w3.org/2000/svg" xmlns:xlink="http://www.w3.org/1999/xlink" x="0px" y="0px"
	 width="259.1px" height="179.3px" viewBox="0 0 259.1 179.3" style="enable-background:new 0 0 259.1 179.3;" xml:space="preserve"
	>
<style type="text/css">
	.st0{fill:#FF503C;}
	.st1{fill:#FFFFFF;}
</style>
<g>
	<path class="st0" d="M6.5,30.6h17.7v4.2H2.1V0.5h21.6v4.2H6.5v10.7h15.2v4H6.5V30.6z"/>
	<path class="st0" d="M39.2,9.8h1.6v4.4c-0.5-0.1-1.1-0.2-2-0.2c-1.9,0-3.5,0.7-4.8,2c-1.3,1.4-2,3.4-2,6v12.7h-4.5V10.3h3.4
		l0.7,3.4H32C33.8,11.1,36.2,9.8,39.2,9.8z"/>
	<path class="st0" d="M53.7,9.8c3.5,0,6.2,1.2,8.4,3.5c2.1,2.3,3,5.7,2.7,10.2H46.3c0.2,2.5,0.9,4.4,2.2,5.9
		c1.3,1.5,3.2,2.2,5.6,2.2c1.5,0,2.8-0.3,3.9-1c1.2-0.7,2-1.6,2.6-2.9h4.2c-0.6,2.4-1.9,4.3-3.9,5.6c-2,1.3-4.2,2-6.8,2
		c-3.7,0-6.6-1.2-8.8-3.5c-2.2-2.3-3.3-5.5-3.3-9.4c0-3.7,1.1-6.7,3.3-9C47.6,11,50.4,9.8,53.7,9.8z M46.4,20.1h14.3
		c-0.1-1.9-0.7-3.5-2-4.8c-1.2-1.3-2.9-2-4.9-2c-2,0-3.6,0.6-4.9,1.8C47.6,16.4,46.8,18.1,46.4,20.1z"/>
	<path class="st0" d="M89.7,11.2c-0.8,1-2.1,1.9-3.9,2.6c0.9,1.3,1.3,2.9,1.3,4.6c0,2.4-0.9,4.4-2.6,5.9c-1.8,1.5-4,2.3-6.8,2.3
		c-1.5,0-2.8-0.2-4-0.7c-1.2,0.6-1.9,1.3-1.9,2.1c0,1.5,1.3,2.3,4,2.3H80c2.8,0,5,0.6,6.5,1.9c1.5,1.2,2.3,3,2.3,5.2
		c0,2.4-1,4.3-2.9,5.7S81.4,45,78.1,45c-3.5,0-6.1-0.9-8.1-2.6c-1.9-1.7-2.9-3.8-2.8-6.2l3.9-3.1C69,32.3,68,30.9,68,28.9
		c0-2,1.1-3.5,3.2-4.6c-1.8-1.5-2.7-3.5-2.7-6c0-2.5,0.8-4.5,2.5-6.1c1.7-1.6,3.9-2.4,6.6-2.4c2.4,0,4.5,0.6,6.2,1.9
		c1.4-0.8,2.6-2,3.6-3.3L89.7,11.2z M84.5,37.3c0-1.3-0.5-2.2-1.4-2.8c-0.9-0.6-2.2-0.9-3.7-0.9h-4l-3.9,3.1c0.2,1.4,0.9,2.6,2,3.4
		c1.1,0.9,2.7,1.3,4.9,1.3c1.8,0,3.3-0.4,4.4-1.1C83.9,39.7,84.5,38.7,84.5,37.3z M77.8,23.3c1.5,0,2.8-0.5,3.7-1.5
		c0.9-1,1.4-2.2,1.4-3.7s-0.5-2.7-1.4-3.7c-0.9-1-2.1-1.5-3.6-1.5c-1.5,0-2.8,0.5-3.8,1.5s-1.5,2.2-1.5,3.7c0,1.4,0.5,2.7,1.5,3.6
		S76.3,23.3,77.8,23.3z"/>
	<path class="st0" d="M110.4,28.7c0,0.9,0.2,1.5,0.5,1.9c0.4,0.4,0.9,0.5,1.7,0.5v3.6h-0.8c-2.6,0-4.2-1.1-4.7-3.3
		c-0.9,1.2-2.2,2.1-3.6,2.8c-1.5,0.7-3.1,1-4.8,1c-2.4,0-4.3-0.6-5.9-1.8c-1.5-1.2-2.3-2.9-2.3-5.1c0-2.4,1-4.3,2.9-5.7
		c2-1.3,4.7-2.1,8.2-2.4l4.6-0.4v-0.6c0-1.9-0.4-3.3-1.3-4.5c-0.9-1.1-2.2-1.7-3.8-1.7c-1.6,0-2.9,0.5-3.8,1.4
		c-0.9,0.9-1.4,2.1-1.6,3.4h-4.1c0.2-2.4,1.1-4.3,2.8-5.9c1.7-1.5,3.9-2.3,6.6-2.3c2.8,0,5.1,0.9,6.8,2.6c1.7,1.7,2.6,4.1,2.6,7.1
		V28.7z M99.2,31.7c1.9,0,3.5-0.6,4.9-1.8c1.4-1.2,2.1-2.9,2.1-5v-1.7l-4.1,0.3c-2.3,0.2-4.2,0.7-5.4,1.5c-1.3,0.8-1.9,1.9-1.9,3.2
		c0,1.2,0.4,2.1,1.2,2.6C96.9,31.4,97.9,31.7,99.2,31.7z"/>
	<path class="st0" d="M115.9,0h4.4v34.7h-4.4V0z"/>
	<path class="st0" d="M135.8,9.8c3.5,0,6.2,1.2,8.4,3.5c2.1,2.3,3,5.7,2.7,10.2h-18.5c0.2,2.5,0.9,4.4,2.2,5.9
		c1.3,1.5,3.2,2.2,5.6,2.2c1.5,0,2.8-0.3,3.9-1c1.2-0.7,2-1.6,2.6-2.9h4.2c-0.6,2.4-1.9,4.3-3.9,5.6s-4.2,2-6.8,2
		c-3.7,0-6.6-1.2-8.8-3.5c-2.2-2.3-3.3-5.5-3.3-9.4c0-3.7,1.1-6.7,3.3-9S132.4,9.8,135.8,9.8z M128.5,20.1h14.3
		c-0.1-1.9-0.7-3.5-2-4.8c-1.2-1.3-2.9-2-4.9-2c-2,0-3.6,0.6-4.9,1.8C129.7,16.4,128.8,18.1,128.5,20.1z"/>
	<path class="st0" d="M162.5,9.8h1.6v4.4c-0.5-0.1-1.1-0.2-2-0.2c-1.9,0-3.5,0.7-4.8,2c-1.3,1.4-2,3.4-2,6v12.7h-4.5V10.3h3.4
		l0.7,3.4h0.4C157.1,11.1,159.5,9.8,162.5,9.8z"/>
	<path class="st0" d="M171.3,5.6c-0.6,0.6-1.3,0.9-2.1,0.9c-0.8,0-1.5-0.3-2.1-0.9c-0.6-0.6-0.9-1.3-0.9-2.1s0.3-1.5,0.9-2.1
		c0.6-0.6,1.3-0.9,2.1-0.9c0.8,0,1.5,0.3,2.1,0.9c0.6,0.6,0.9,1.3,0.9,2.1S171.9,5,171.3,5.6z M171.3,10.3v24.5H167V10.3H171.3z"/>
	<path class="st0" d="M171.8,40c0.8,0.8,1.8,1.2,2.8,1.2c0.8,0,1.5-0.3,2-0.9s0.7-1.4,0.7-2.5V10.3h4.3v28c0,2.1-0.6,3.8-1.8,5
		c-1.2,1.2-2.7,1.8-4.6,1.8c-2.1,0-3.8-0.6-4.9-1.8L171.8,40z M181.5,5.6c-0.6,0.6-1.3,0.9-2.1,0.9s-1.5-0.3-2.1-0.9
		c-0.6-0.6-0.9-1.3-0.9-2.1s0.3-1.5,0.9-2.1c0.6-0.6,1.3-0.9,2.1-0.9s1.5,0.3,2.1,0.9c0.6,0.6,0.9,1.3,0.9,2.1S182.1,5,181.5,5.6z"
		/>
</g>
<g>
	<path class="st1" d="M19.4,55H24l-8.9,24.5H8.9L0,55h4.6l7.2,20.6h0.4L19.4,55z"/>
	<path class="st1" d="M44.5,73.5c0,0.9,0.2,1.5,0.5,1.9c0.4,0.4,0.9,0.5,1.7,0.5v3.6h-0.8c-2.6,0-4.2-1.1-4.7-3.3
		c-0.9,1.2-2.2,2.1-3.6,2.8c-1.5,0.7-3.1,1-4.8,1c-2.4,0-4.3-0.6-5.9-1.8c-1.5-1.2-2.3-2.9-2.3-5.1c0-2.4,1-4.3,2.9-5.7
		c2-1.3,4.7-2.1,8.2-2.4l4.6-0.4v-0.6c0-1.9-0.4-3.3-1.3-4.5c-0.9-1.1-2.2-1.7-3.8-1.7c-1.6,0-2.9,0.5-3.8,1.4
		c-0.9,0.9-1.4,2.1-1.6,3.4h-4.1c0.2-2.4,1.1-4.3,2.8-5.9c1.7-1.5,3.9-2.3,6.6-2.3c2.8,0,5.1,0.9,6.8,2.6c1.7,1.7,2.6,4.1,2.6,7.1
		V73.5z M33.3,76.4c1.9,0,3.5-0.6,4.9-1.8c1.4-1.2,2.1-2.9,2.1-5v-1.7l-4.1,0.3c-2.3,0.2-4.2,0.7-5.4,1.5c-1.3,0.8-1.9,1.9-1.9,3.2
		c0,1.2,0.4,2.1,1.2,2.6C31,76.1,32,76.4,33.3,76.4z"/>
	<path class="st1" d="M61.8,54.6c2.6,0,4.8,0.9,6.5,2.7c1.7,1.8,2.5,4.3,2.5,7.6v14.6h-4.5V65.7c0-2.3-0.5-4.1-1.6-5.4
		c-1.1-1.2-2.6-1.8-4.4-1.8c-1.7,0-3.1,0.6-4.2,1.7c-1.2,1.2-1.7,2.9-1.7,5.2v14h-4.5V55h3.4l0.7,3.1h0.4
		C56,55.7,58.5,54.6,61.8,54.6z"/>
	<path class="st1" d="M104.3,44.7h4.3v34.8h-3.2l-0.7-3.5h-0.5c-1.8,2.6-4.4,4-7.7,4c-3.2,0-5.9-1.2-8-3.5c-2.1-2.4-3.2-5.4-3.2-9.2
		c0-3.8,1.1-6.8,3.2-9.2c2.2-2.4,4.9-3.5,8.1-3.5c3.7,0,6.2,1.4,7.7,4.1V44.7z M91.7,73.6c1.4,1.6,3.2,2.5,5.4,2.5
		c2.2,0,3.9-0.8,5.3-2.4c1.3-1.6,2-3.8,2-6.4c0-2.6-0.7-4.8-2-6.4c-1.3-1.6-3.1-2.4-5.3-2.4c-2.2,0-4,0.8-5.4,2.5
		c-1.4,1.6-2.1,3.8-2.1,6.3C89.6,69.9,90.3,72,91.7,73.6z"/>
	<path class="st1" d="M124.2,54.6c3.5,0,6.2,1.2,8.4,3.5c2.1,2.3,3,5.7,2.7,10.2h-18.5c0.2,2.5,0.9,4.4,2.2,5.9s3.2,2.2,5.6,2.2
		c1.5,0,2.8-0.3,3.9-1c1.2-0.7,2-1.6,2.6-2.9h4.2c-0.6,2.4-1.9,4.3-3.9,5.6c-2,1.3-4.2,2-6.8,2c-3.7,0-6.6-1.2-8.8-3.5
		c-2.2-2.3-3.3-5.5-3.3-9.4c0-3.7,1.1-6.7,3.3-9C118,55.7,120.8,54.6,124.2,54.6z M116.9,64.9h14.3c-0.1-1.9-0.7-3.5-2-4.8
		c-1.2-1.3-2.9-2-4.9-2c-2,0-3.6,0.6-4.9,1.8C118.1,61.2,117.2,62.8,116.9,64.9z"/>
</g>
<g>
	<path class="st1" d="M25.3,90h4.4v34.3h-4.8l-18-26.6H6.5v26.6H2.1V90h5.1l17.6,26.5h0.4V90z"/>
	<path class="st1" d="M46,99.3c3.5,0,6.2,1.2,8.4,3.5c2.1,2.3,3,5.7,2.7,10.2H38.6c0.2,2.5,0.9,4.4,2.2,5.9c1.3,1.5,3.2,2.2,5.6,2.2
		c1.5,0,2.8-0.3,3.9-1c1.2-0.7,2-1.6,2.6-2.9h4.2c-0.6,2.4-1.9,4.3-3.9,5.6c-2,1.3-4.2,2-6.8,2c-3.7,0-6.6-1.2-8.8-3.5
		c-2.2-2.3-3.3-5.5-3.3-9.4c0-3.7,1.1-6.7,3.3-9C39.9,100.5,42.7,99.3,46,99.3z M38.8,109.7h14.3c-0.1-1.9-0.7-3.5-2-4.8
		c-1.2-1.3-2.9-2-4.9-2c-2,0-3.6,0.6-4.9,1.8C39.9,106,39.1,107.6,38.8,109.7z"/>
	<path class="st1" d="M78.9,89.4h4.3v34.8H80l-0.7-3.5h-0.5c-1.8,2.6-4.4,4-7.7,4c-3.2,0-5.9-1.2-8-3.5c-2.1-2.4-3.2-5.4-3.2-9.2
		c0-3.8,1.1-6.8,3.2-9.2c2.2-2.4,4.9-3.5,8.1-3.5c3.7,0,6.2,1.4,7.7,4.1V89.4z M66.3,118.4c1.4,1.6,3.2,2.5,5.4,2.5
		c2.2,0,3.9-0.8,5.3-2.4c1.3-1.6,2-3.8,2-6.4c0-2.6-0.7-4.8-2-6.4c-1.3-1.6-3.1-2.4-5.3-2.4c-2.2,0-4,0.8-5.4,2.5
		c-1.4,1.6-2.1,3.8-2.1,6.3C64.2,114.6,64.9,116.7,66.3,118.4z"/>
	<path class="st1" d="M98.8,99.3c3.5,0,6.2,1.2,8.4,3.5c2.1,2.3,3,5.7,2.7,10.2H91.4c0.2,2.5,0.9,4.4,2.2,5.9
		c1.3,1.5,3.2,2.2,5.6,2.2c1.5,0,2.8-0.3,3.9-1c1.2-0.7,2-1.6,2.6-2.9h4.2c-0.6,2.4-1.9,4.3-3.9,5.6c-2,1.3-4.2,2-6.8,2
		c-3.7,0-6.6-1.2-8.8-3.5c-2.2-2.3-3.3-5.5-3.3-9.4c0-3.7,1.1-6.7,3.3-9C92.6,100.5,95.4,99.3,98.8,99.3z M91.5,109.7h14.3
		c-0.1-1.9-0.7-3.5-2-4.8c-1.2-1.3-2.9-2-4.9-2c-2,0-3.6,0.6-4.9,1.8C92.7,106,91.9,107.6,91.5,109.7z"/>
	<path class="st1" d="M125.5,99.3h1.6v4.4c-0.5-0.1-1.1-0.2-2-0.2c-1.9,0-3.5,0.7-4.8,2c-1.3,1.4-2,3.4-2,6v12.7h-4.5V99.8h3.4
		l0.7,3.4h0.4C120.1,100.6,122.5,99.3,125.5,99.3z"/>
	<path class="st1" d="M130,89.5h4.4v34.7H130V89.5z"/>
	<path class="st1" d="M158.1,118.3c0,0.9,0.2,1.5,0.5,1.9c0.4,0.4,0.9,0.5,1.7,0.5v3.6h-0.8c-2.6,0-4.2-1.1-4.7-3.3
		c-0.9,1.2-2.2,2.1-3.6,2.8c-1.5,0.7-3.1,1-4.8,1c-2.4,0-4.3-0.6-5.9-1.8c-1.5-1.2-2.3-2.9-2.3-5.1c0-2.4,1-4.3,2.9-5.7
		c2-1.3,4.7-2.1,8.2-2.4l4.6-0.4v-0.6c0-1.9-0.4-3.3-1.3-4.5c-0.9-1.1-2.2-1.7-3.8-1.7c-1.6,0-2.9,0.5-3.8,1.4
		c-0.9,0.9-1.4,2.1-1.6,3.4h-4.1c0.2-2.4,1.1-4.3,2.8-5.9c1.7-1.5,3.9-2.3,6.6-2.3c2.8,0,5.1,0.9,6.8,2.6c1.7,1.7,2.6,4.1,2.6,7.1
		V118.3z M146.9,121.2c1.9,0,3.5-0.6,4.9-1.8c1.4-1.2,2.1-2.9,2.1-5v-1.7l-4.1,0.3c-2.3,0.2-4.2,0.7-5.4,1.5
		c-1.3,0.8-1.9,1.9-1.9,3.2c0,1.2,0.4,2.1,1.2,2.6C144.7,120.9,145.7,121.2,146.9,121.2z"/>
	<path class="st1" d="M175.5,99.3c2.6,0,4.8,0.9,6.5,2.7s2.5,4.3,2.5,7.6v14.6H180v-13.8c0-2.3-0.5-4.1-1.6-5.4
		c-1.1-1.2-2.6-1.8-4.4-1.8c-1.7,0-3.1,0.6-4.2,1.7c-1.2,1.2-1.7,2.9-1.7,5.2v14h-4.5V99.8h3.4l0.7,3.1h0.4
		C169.6,100.5,172.1,99.3,175.5,99.3z"/>
	<path class="st1" d="M207.2,89.4h4.3v34.8h-3.2l-0.7-3.5h-0.5c-1.8,2.6-4.4,4-7.7,4c-3.2,0-5.9-1.2-8-3.5c-2.1-2.4-3.2-5.4-3.2-9.2
		c0-3.8,1.1-6.8,3.2-9.2s4.9-3.5,8.1-3.5c3.7,0,6.2,1.4,7.7,4.1V89.4z M194.5,118.4c1.4,1.6,3.2,2.5,5.4,2.5s3.9-0.8,5.3-2.4
		s2-3.8,2-6.4c0-2.6-0.7-4.8-2-6.4c-1.3-1.6-3.1-2.4-5.3-2.4c-2.2,0-4,0.8-5.4,2.5c-1.4,1.6-2.1,3.8-2.1,6.3
		C192.4,114.6,193.1,116.7,194.5,118.4z"/>
	<path class="st1" d="M233.9,118c0,2.1-0.8,3.8-2.5,5c-1.7,1.2-3.8,1.8-6.4,1.8c-2.9,0-5.2-0.8-7-2.3c-1.7-1.5-2.6-3.6-2.7-6h4.2
		c0,1.6,0.6,2.9,1.7,3.7c1.1,0.8,2.4,1.2,3.8,1.2c1.3,0,2.3-0.3,3.2-0.9s1.3-1.4,1.3-2.5c0-1.1-0.5-2-1.5-2.7
		c-1-0.7-2.4-1.3-4.3-1.8c-1-0.3-2-0.7-2.7-1c-0.8-0.3-1.6-0.8-2.4-1.3c-0.8-0.6-1.4-1.2-1.9-2.1s-0.7-1.7-0.7-2.7
		c0-2.1,0.8-3.8,2.4-5c1.6-1.3,3.6-1.9,6.1-1.9c2.6,0,4.6,0.7,6.2,2.1c1.5,1.4,2.3,3.1,2.4,5.2h-4.1c-0.1-1.1-0.5-2.1-1.4-2.8
		s-2-1.1-3.3-1.1c-1.1,0-2,0.3-2.8,0.9c-0.8,0.6-1.1,1.3-1.1,2.3c0,1,0.4,1.8,1.3,2.4c0.8,0.6,2.2,1.2,4,1.8c2.6,0.8,4.7,1.8,6.1,3
		C233.2,114.3,233.9,115.9,233.9,118z"/>
	<path class="st1" d="M247.9,99.3c3.5,0,6.2,1.2,8.4,3.5c2.1,2.3,3,5.7,2.7,10.2h-18.5c0.2,2.5,0.9,4.4,2.2,5.9
		c1.3,1.5,3.2,2.2,5.6,2.2c1.5,0,2.8-0.3,3.9-1c1.2-0.7,2-1.6,2.6-2.9h4.2c-0.6,2.4-1.9,4.3-3.9,5.6s-4.2,2-6.8,2
		c-3.7,0-6.6-1.2-8.8-3.5c-2.2-2.3-3.3-5.5-3.3-9.4c0-3.7,1.1-6.7,3.3-9S244.6,99.3,247.9,99.3z M240.6,109.7H255
		c-0.1-1.9-0.7-3.5-2-4.8c-1.2-1.3-2.9-2-4.9-2c-2,0-3.6,0.6-4.9,1.8C241.8,106,241,107.6,240.6,109.7z"/>
</g>
<g>
	<path class="st1" d="M8.8,141.5v3.1h6.2v3.6H8.8V169H4.5v-20.9H0.1v-3.6h4.4V141c0-2.1,0.6-3.8,1.8-5c1.2-1.2,2.7-1.8,4.6-1.8
		c2.1,0,3.8,0.6,4.9,1.8l-1.5,3.3c-0.8-0.8-1.8-1.2-2.8-1.2c-0.8,0-1.5,0.3-2,0.9C9,139.6,8.8,140.4,8.8,141.5z"/>
	<path class="st1" d="M28.8,169.5c-3.6,0-6.6-1.2-8.9-3.6c-2.3-2.4-3.5-5.5-3.5-9.1c0-3.6,1.2-6.6,3.5-9.1c2.3-2.4,5.3-3.6,8.9-3.6
		c3.6,0,6.6,1.2,8.9,3.6s3.5,5.4,3.5,9.1c0,3.7-1.2,6.7-3.5,9.1C35.4,168.3,32.4,169.5,28.8,169.5z M28.7,165.6
		c2.4,0,4.3-0.9,5.8-2.6c1.5-1.7,2.3-3.8,2.3-6.3c0-2.4-0.8-4.5-2.3-6.3c-1.5-1.7-3.4-2.6-5.8-2.6s-4.3,0.9-5.7,2.6
		c-1.5,1.7-2.2,3.8-2.2,6.3c0,2.5,0.7,4.6,2.2,6.3C24.5,164.8,26.4,165.6,28.7,165.6z"/>
	<path class="st1" d="M57,168.4c-1.2,0.8-2.5,1.1-4,1.1c-4,0-6-2.2-6-6.6v-14.8h-4.7V145h1.4c2.5,0,3.8-1.1,3.8-3.4v-3.1h3.9v6.2
		h5.8v3.6h-5.8v14.4c0,2.1,0.8,3.1,2.4,3.1c0.8,0,1.5-0.2,2.2-0.7L57,168.4z"/>
	<path class="st1" d="M70.6,169.5c-3.6,0-6.6-1.2-8.9-3.6c-2.3-2.4-3.5-5.5-3.5-9.1c0-3.6,1.2-6.6,3.5-9.1c2.3-2.4,5.3-3.6,8.9-3.6
		c3.6,0,6.6,1.2,8.9,3.6s3.5,5.4,3.5,9.1c0,3.7-1.2,6.7-3.5,9.1C77.1,168.3,74.2,169.5,70.6,169.5z M70.5,165.6
		c2.4,0,4.3-0.9,5.8-2.6c1.5-1.7,2.3-3.8,2.3-6.3c0-2.4-0.8-4.5-2.3-6.3c-1.5-1.7-3.4-2.6-5.8-2.6s-4.3,0.9-5.7,2.6
		c-1.5,1.7-2.2,3.8-2.2,6.3c0,2.5,0.7,4.6,2.2,6.3C66.2,164.8,68.2,165.6,70.5,165.6z"/>
	<path class="st1" d="M107.4,145.4c-0.8,1-2.1,1.9-3.9,2.6c0.9,1.3,1.3,2.9,1.3,4.6c0,2.4-0.9,4.4-2.6,5.9c-1.8,1.5-4,2.3-6.8,2.3
		c-1.5,0-2.8-0.2-4-0.7c-1.2,0.6-1.9,1.3-1.9,2.1c0,1.5,1.3,2.3,4,2.3h4.1c2.8,0,5,0.6,6.5,1.9c1.5,1.2,2.3,3,2.3,5.2
		c0,2.4-1,4.3-2.9,5.7s-4.5,2.1-7.7,2.1c-3.5,0-6.1-0.9-8.1-2.6c-1.9-1.7-2.9-3.8-2.8-6.2l3.9-3.1c-2.1-0.8-3.1-2.2-3.1-4.3
		c0-2,1.1-3.5,3.2-4.6c-1.8-1.5-2.7-3.5-2.7-6c0-2.5,0.8-4.5,2.5-6.1c1.7-1.6,3.9-2.4,6.6-2.4c2.4,0,4.5,0.6,6.2,1.9
		c1.4-0.8,2.6-2,3.6-3.3L107.4,145.4z M102.2,171.6c0-1.3-0.5-2.2-1.4-2.8c-0.9-0.6-2.2-0.9-3.7-0.9h-4l-3.9,3.1
		c0.2,1.4,0.9,2.6,2,3.4c1.1,0.9,2.7,1.3,4.9,1.3c1.8,0,3.3-0.4,4.4-1.1C101.6,174,102.2,173,102.2,171.6z M95.6,157.6
		c1.5,0,2.8-0.5,3.7-1.5c0.9-1,1.4-2.2,1.4-3.7s-0.5-2.7-1.4-3.7c-0.9-1-2.1-1.5-3.6-1.5c-1.5,0-2.8,0.5-3.8,1.5s-1.5,2.2-1.5,3.7
		c0,1.4,0.5,2.7,1.5,3.6S94.1,157.6,95.6,157.6z"/>
	<path class="st1" d="M121.9,144.1h1.6v4.4c-0.5-0.1-1.1-0.2-2-0.2c-1.9,0-3.5,0.7-4.8,2c-1.3,1.4-2,3.4-2,6V169h-4.5v-24.5h3.4
		l0.7,3.4h0.4C116.5,145.4,118.9,144.1,121.9,144.1z"/>
	<path class="st1" d="M144.7,163c0,0.9,0.2,1.5,0.5,1.9c0.4,0.4,0.9,0.5,1.7,0.5v3.6h-0.8c-2.6,0-4.2-1.1-4.7-3.3
		c-0.9,1.2-2.2,2.1-3.6,2.8c-1.5,0.7-3.1,1-4.8,1c-2.4,0-4.3-0.6-5.9-1.8c-1.5-1.2-2.3-2.9-2.3-5.1c0-2.4,1-4.3,2.9-5.7
		c2-1.3,4.7-2.1,8.2-2.4l4.6-0.4v-0.6c0-1.9-0.4-3.3-1.3-4.5c-0.9-1.1-2.2-1.7-3.8-1.7c-1.6,0-2.9,0.5-3.8,1.4
		c-0.9,0.9-1.4,2.1-1.6,3.4h-4.1c0.2-2.4,1.1-4.3,2.8-5.9c1.7-1.5,3.9-2.3,6.6-2.3c2.8,0,5.1,0.9,6.8,2.6c1.7,1.7,2.6,4.1,2.6,7.1
		V163z M133.5,165.9c1.9,0,3.5-0.6,4.9-1.8c1.4-1.2,2.1-2.9,2.1-5v-1.7l-4.1,0.3c-2.3,0.2-4.2,0.7-5.4,1.5c-1.3,0.8-1.9,1.9-1.9,3.2
		c0,1.2,0.4,2.1,1.2,2.6C131.2,165.6,132.3,165.9,133.5,165.9z"/>
	<path class="st1" d="M169.1,144.6V169h-4.4v-20.9h-9.1V169h-4.2v-20.9h-4.4v-3.6h4.4v-4c0-1.9,0.6-3.5,1.7-4.6
		c1.1-1.1,2.7-1.7,4.6-1.7c1.2,0,2.3,0.3,3.4,0.8l-1.1,3.4c-0.6-0.4-1.2-0.5-1.9-0.5c-1.7,0-2.6,1-2.6,3v3.6H169.1z M169.1,139.9
		c-0.6,0.6-1.3,0.9-2.1,0.9s-1.5-0.3-2.1-0.9c-0.6-0.6-0.9-1.3-0.9-2.1s0.3-1.5,0.9-2.1c0.6-0.6,1.3-0.9,2.1-0.9s1.5,0.3,2.1,0.9
		c0.6,0.6,0.9,1.3,0.9,2.1S169.7,139.3,169.1,139.9z"/>
	<path class="st1" d="M184.5,144.1c3.5,0,6.2,1.2,8.4,3.5c2.1,2.3,3,5.7,2.7,10.2h-18.5c0.2,2.5,0.9,4.4,2.2,5.9s3.2,2.2,5.6,2.2
		c1.5,0,2.8-0.3,3.9-1c1.2-0.7,2-1.6,2.6-2.9h4.2c-0.6,2.4-1.9,4.3-3.9,5.6c-2,1.3-4.2,2-6.8,2c-3.7,0-6.6-1.2-8.8-3.5
		c-2.2-2.3-3.3-5.5-3.3-9.4c0-3.7,1.1-6.7,3.3-9C178.4,145.3,181.1,144.1,184.5,144.1z M177.2,154.4h14.3c-0.1-1.9-0.7-3.5-2-4.8
		c-1.2-1.3-2.9-2-4.9-2c-2,0-3.6,0.6-4.9,1.8C178.4,150.7,177.6,152.3,177.2,154.4z"/>
</g>
</svg>
