<?xml version="1.0" encoding="utf-8"?>
<!-- Generator: Adobe Illustrator 24.3.0, SVG Export Plug-In . SVG Version: 6.00 Build 0)  -->
<svg version="1.1" id="Laag_1" xmlns="http://www.w3.org/2000/svg" xmlns:xlink="http://www.w3.org/1999/xlink" x="0px" y="0px"
	 width="470.5px" height="208.8px" viewBox="0 0 470.5 208.8" enable-background="new 0 0 470.5 208.8" xml:space="preserve">
<g>
	<path fill="#FFFFFF" d="M1.3,2.1h15.4l11.4,31.6L39.5,2.1h15.1L34.3,52.5H21.5L1.3,2.1z"/>
	<path fill="#FFFFFF" d="M58.1,0h14.1v10H58.1V0z M58.4,13.5h13.5v38.6H58.4V13.5z"/>
	<path fill="#FFFFFF" d="M76.6,13.5h14.3l7.4,22.6l7.5-22.6h14l-15.4,38.9H92L76.6,13.5z"/>
	<path fill="#FFFFFF" d="M124.2,0h14.1v10h-14.1V0z M124.5,13.5H138v38.6h-13.5V13.5z"/>
</g>
<g>
	<path fill="#FFFFFF" d="M4.1,116.6V91.4h13.6v20.9c0,4.2,2.2,6.5,5.5,6.5c3.3,0,5.7-2.3,5.7-6.5V91.4h13.5V130H28.9v-5.4
		c-2.5,3.2-6.1,6.2-11.6,6.2C9.1,130.9,4.1,125.4,4.1,116.6z"/>
	<path fill="#FFFFFF" d="M49.7,91.4h13.6v5.4c2.5-3.2,6.1-6.3,11.6-6.3C83,90.5,88,96,88,104.7V130H74.5v-20.9
		c0-4.3-2.2-6.6-5.5-6.6c-3.3,0-5.7,2.3-5.7,6.6V130H49.7V91.4z"/>
	<path fill="#FFFFFF" d="M93,100.7c4.8-0.6,7.3-2.9,7.1-6.7h-5.5V80h14.1v11.4c0,10.6-5.7,14.2-14.6,14.5L93,100.7z"/>
	<path fill="#FFFFFF" d="M112.7,118.9v-0.1c0-8.1,6.1-12.1,15.1-12.1c3.6,0,7.1,0.6,9.3,1.5v-0.6c0-4.1-2.5-6.4-7.7-6.4
		c-4.1,0-7.2,0.9-10.7,2.1l-2.8-9.5c4.4-1.8,9-3,15.6-3c6.9,0,11.6,1.6,14.7,4.7c2.9,2.9,4.1,6.9,4.1,12.3V130h-13.4v-4.1
		c-2.7,2.9-6.4,4.9-11.4,4.9C118.3,130.9,112.7,126.6,112.7,118.9z M137.3,116v-1.8c-1.4-0.6-3.4-1-5.4-1c-3.9,0-6.2,1.9-6.2,4.8
		v0.1c0,2.6,2,4.2,4.8,4.2C134.5,122.4,137.3,119.9,137.3,116z"/>
	<path fill="#FFFFFF" d="M152.5,91.4h14.3l7.4,22.6l7.5-22.6h14l-15.4,38.9h-12.4L152.5,91.4z"/>
	<path fill="#FFFFFF" d="M196,91.4h14.3l7.4,22.6l7.5-22.6h14l-15.4,38.9h-12.4L196,91.4z"/>
	<path fill="#FFFFFF" d="M239.8,110.9v-0.1c0-11.3,8.1-20.2,19.5-20.2c13.3,0,19.4,9.8,19.4,21.1c0,0.9,0,1.9-0.1,2.8h-25.8
		c1.1,4.2,4.1,6.4,8.4,6.4c3.3,0,5.8-1.2,8.6-3.9l7.5,6.2c-3.7,4.7-9.1,7.9-16.7,7.9C248.4,130.9,239.8,122.8,239.8,110.9z
		 M266.1,107.5c-0.5-4.3-3.1-7-6.8-7c-3.6,0-6,2.7-6.7,7H266.1z"/>
	<path fill="#FFFFFF" d="M284.6,91.4h13.6v5.4c2.5-3.2,6.1-6.3,11.6-6.3c8.2,0,13.1,5.4,13.1,14.2V130h-13.5v-20.9
		c0-4.3-2.2-6.6-5.5-6.6c-3.3,0-5.7,2.3-5.7,6.6V130h-13.6V91.4z"/>
	<path fill="#FFFFFF" d="M332.3,118v-15.8h-4.6V91.4h4.6v-9.8h13.5v9.8h9v10.9h-9v13.1c0,2.7,1.2,3.9,3.7,3.9c1.8,0,3.5-0.5,5.1-1.3
		v10.6c-2.4,1.4-5.6,2.3-9.4,2.3C337,130.8,332.3,127.2,332.3,118z"/>
	<path fill="#FFFFFF" d="M360.3,116.6V91.4h13.6v20.9c0,4.2,2.2,6.5,5.5,6.5c3.3,0,5.7-2.3,5.7-6.5V91.4h13.5V130h-13.5v-5.4
		c-2.5,3.2-6.1,6.2-11.6,6.2C365.3,130.9,360.3,125.4,360.3,116.6z"/>
	<path fill="#FFFFFF" d="M405.9,91.4h13.6v7.8c2.2-5.3,5.8-8.7,12.2-8.4V105h-1.1c-7.1,0-11.1,4.1-11.1,12.9V130h-13.6V91.4z"/>
	<path fill="#FFFFFF" d="M432.8,118.9v-0.1c0-8.1,6.1-12.1,15.1-12.1c3.6,0,7.1,0.6,9.3,1.5v-0.6c0-4.1-2.5-6.4-7.7-6.4
		c-4.1,0-7.2,0.9-10.7,2.1l-2.8-9.5c4.4-1.8,9-3,15.6-3c6.9,0,11.6,1.6,14.7,4.7c2.9,2.9,4.1,6.9,4.1,12.3V130h-13.4v-4.1
		c-2.7,2.9-6.4,4.9-11.4,4.9C438.4,130.9,432.8,126.6,432.8,118.9z M457.3,116v-1.8c-1.4-0.6-3.4-1-5.4-1c-3.9,0-6.2,1.9-6.2,4.8
		v0.1c0,2.6,2,4.2,4.8,4.2C454.6,122.4,457.3,119.9,457.3,116z"/>
</g>
<g>
	<path fill="#FFFFFF" d="M4.4,169.3H18v5.3c2.5-3.2,6.1-6.1,11.5-6.1c5.1,0,9.1,2.3,11.1,6.3c3.4-3.9,7.3-6.3,12.9-6.3
		c8.2,0,13.2,5.1,13.2,14.1v25.3H53.2v-21c0-4.2-2.1-6.5-5.3-6.5s-5.6,2.3-5.6,6.5v21H28.8v-21c0-4.2-2.1-6.5-5.4-6.5
		s-5.5,2.3-5.5,6.5v21H4.4V169.3z"/>
	<path fill="#FFFFFF" d="M73.8,155.8h14.1v10H73.8V155.8z M74.1,169.3h13.5v38.6H74.1V169.3z"/>
	<path fill="#FFFFFF" d="M95.6,155.8h13.5v52.1H95.6V155.8z"/>
	<path fill="#FFFFFF" d="M117.1,155.8h13.5v52.1h-13.5V155.8z"/>
	<path fill="#FFFFFF" d="M136.7,188.8v-0.1c0-11.3,8.1-20.2,19.5-20.2c13.3,0,19.4,9.8,19.4,21.1c0,0.9,0,1.9-0.1,2.8h-25.8
		c1.1,4.2,4.1,6.4,8.4,6.4c3.3,0,5.8-1.2,8.6-3.9l7.5,6.2c-3.7,4.7-9.1,7.9-16.7,7.9C145.3,208.8,136.7,200.7,136.7,188.8z
		 M163,185.4c-0.5-4.3-3.1-7-6.8-7c-3.6,0-6,2.7-6.7,7H163z"/>
	<path fill="#FFFFFF" d="M181.5,169.3H195v5.4c2.5-3.2,6.1-6.3,11.6-6.3c8.2,0,13.1,5.4,13.1,14.2v25.3h-13.5V187
		c0-4.3-2.2-6.6-5.5-6.6c-3.3,0-5.7,2.3-5.7,6.6v20.9h-13.6V169.3z"/>
	<path fill="#FFFFFF" d="M224.9,196.8v-0.1c0-8.1,6.1-12.1,15.1-12.1c3.6,0,7.1,0.6,9.3,1.5v-0.6c0-4.1-2.5-6.4-7.7-6.4
		c-4.1,0-7.2,0.9-10.7,2.1l-2.8-9.5c4.4-1.8,9-3,15.6-3c6.9,0,11.6,1.6,14.7,4.7c2.9,2.9,4.1,6.9,4.1,12.3v22.2h-13.4v-4.1
		c-2.7,2.9-6.4,4.9-11.4,4.9C230.5,208.8,224.9,204.5,224.9,196.8z M249.4,193.9v-1.8c-1.4-0.6-3.4-1-5.4-1c-3.9,0-6.2,1.9-6.2,4.8
		v0.1c0,2.6,2,4.2,4.8,4.2C246.7,200.3,249.4,197.8,249.4,193.9z"/>
	<path fill="#FFFFFF" d="M269.5,169.3h13.6v7.8c2.2-5.3,5.8-8.7,12.2-8.4v14.3h-1.1c-7.1,0-11.1,4.1-11.1,12.9v12.1h-13.6V169.3z"/>
	<path fill="#FFFFFF" d="M300.1,155.8h14.1v10h-14.1V155.8z M300.4,169.3h13.5v38.6h-13.5V169.3z"/>
	<path fill="#FFFFFF" d="M319.7,196.8v-0.1c0-8.1,6.1-12.1,15.1-12.1c3.6,0,7.1,0.6,9.3,1.5v-0.6c0-4.1-2.5-6.4-7.7-6.4
		c-4.1,0-7.2,0.9-10.7,2.1l-2.8-9.5c4.4-1.8,9-3,15.6-3c6.9,0,11.6,1.6,14.7,4.7c2.9,2.9,4.1,6.9,4.1,12.3v22.2H344v-4.1
		c-2.7,2.9-6.4,4.9-11.4,4.9C325.3,208.8,319.7,204.5,319.7,196.8z M344.3,193.9v-1.8c-1.4-0.6-3.4-1-5.4-1c-3.9,0-6.2,1.9-6.2,4.8
		v0.1c0,2.6,2,4.2,4.8,4.2C341.5,200.3,344.3,197.8,344.3,193.9z"/>
	<path fill="#FFFFFF" d="M363.8,194h14.1v13.9h-14.1V194z"/>
</g>
</svg>
