<?xml version="1.0" encoding="utf-8"?>
<!-- Generator: Adobe Illustrator 24.0.0, SVG Export Plug-In . SVG Version: 6.00 Build 0)  -->
<svg version="1.1" id="Layer_1" xmlns="http://www.w3.org/2000/svg" xmlns:xlink="http://www.w3.org/1999/xlink" x="0px" y="0px"
	 width="121.1px" height="121.1px" viewBox="0 0 121.1 121.1" style="enable-background:new 0 0 121.1 121.1;" xml:space="preserve"
	>
<style type="text/css">
	.st0{clip-path:url(#SVGID_2_);fill:#FFFFFF;}
	.st1{clip-path:url(#SVGID_2_);fill:#3AAA35;}
	.st2{fill:#3AAA35;}
</style>
<g>
	<defs>
		<rect id="SVGID_1_" width="121.1" height="121.1"/>
	</defs>
	<clipPath id="SVGID_2_">
		<use xlink:href="#SVGID_1_"  style="overflow:visible;"/>
	</clipPath>
	<path class="st0" d="M60.5,119.5c32.6,0,59-26.4,59-59s-26.4-59-59-59s-59,26.4-59,59S27.9,119.5,60.5,119.5"/>
	<path class="st1" d="M60.5,121.1C27.2,121.1,0,93.9,0,60.5C0,27.2,27.2,0,60.5,0s60.5,27.2,60.5,60.5
		C121.1,93.9,93.9,121.1,60.5,121.1z M60.5,3C28.8,3,3,28.8,3,60.5S28.8,118,60.5,118c31.7,0,57.5-25.8,57.5-57.5S92.2,3,60.5,3z"/>
</g>
<g>
	<path class="st2" d="M19.9,76.3v-3.5c0-1,0.2-2,0.6-3c2.3-5,4.3-10.6,5.9-16.7c1.7-6.1,2.9-11.9,3.6-17.4c0.3-2.2,1.5-3.3,3.4-3.3
		h7.6c1.9,0,2.9,0.8,2.9,2.5c0,0.3-0.1,1-0.3,2.1c-0.2,1.1-0.4,1.8-0.4,2c-2,10.6-5.5,20.4-10.5,29.3H43v-6.9c0-1,0.3-1.8,0.8-2.4
		s1.4-0.8,2.4-0.8h6.4c2.1,0,3.2,1.1,3.2,3.2v6.9h1.8c1,0,1.8,0.3,2.4,0.9c0.6,0.6,0.9,1.4,0.9,2.4v4.7c0,1-0.3,1.8-0.9,2.4
		c-0.6,0.6-1.4,0.9-2.4,0.9h-1.8v5.8c0,1-0.3,1.8-0.8,2.4c-0.6,0.6-1.4,0.8-2.4,0.8h-6.4c-1,0-1.8-0.3-2.4-0.9
		c-0.6-0.6-0.9-1.4-0.9-2.4v-5.8H23.1c-1,0-1.8-0.3-2.4-0.8C20.2,78.1,19.9,77.3,19.9,76.3z"/>
	<path class="st2" d="M65,63.1V59c0-1,0.3-1.8,0.8-2.3c0.6-0.6,1.4-0.8,2.4-0.8h7.9v-7.9c0-1,0.3-1.8,0.9-2.3
		c0.6-0.6,1.4-0.9,2.3-0.9h4.1c1,0,1.8,0.3,2.3,0.9c0.6,0.6,0.9,1.3,0.9,2.3v7.9h7.9c1.1,0,1.9,0.3,2.4,0.8c0.5,0.6,0.8,1.3,0.8,2.3
		v4.2c0,2.2-1.1,3.2-3.2,3.2h-7.9v7.9c0,1-0.3,1.8-0.9,2.3c-0.6,0.6-1.4,0.9-2.3,0.9h-4.1c-1,0-1.8-0.3-2.3-0.9
		c-0.6-0.6-0.9-1.3-0.9-2.3v-7.9h-7.9C66,66.4,65,65.3,65,63.1z"/>
</g>
</svg>
