<?xml version="1.0" encoding="utf-8"?>
<!-- Generator: Adobe Illustrator 24.3.0, SVG Export Plug-In . SVG Version: 6.00 Build 0)  -->
<svg version="1.1" id="Laag_1" xmlns="http://www.w3.org/2000/svg" xmlns:xlink="http://www.w3.org/1999/xlink" x="0px" y="0px"
	 width="124.4px" height="26.7px" viewBox="0 0 124.4 26.7" style="enable-background:new 0 0 124.4 26.7;" xml:space="preserve">
<style type="text/css">
	.st0{fill:#000B8C;}
</style>
<g>
	<path class="st0" d="M13,8H17c2,0,3.4,1.4,3.4,3.1c0,1-0.4,1.7-1.1,2.2c1,0.4,1.8,1.3,1.8,2.7c0,1.9-1.5,3.3-3.7,3.3H13V8z
		 M16.9,12.7c1,0,1.6-0.7,1.6-1.5c0-0.8-0.6-1.5-1.6-1.5h-2v3.1H16.9z M17.4,17.6c1.2,0,1.9-0.7,1.9-1.6c0-0.9-0.7-1.6-1.9-1.6h-2.5
		v3.3H17.4z"/>
	<path class="st0" d="M26.6,11.2c2.1,0,3.9,1.4,3.9,4c0,0.2,0,0.3,0,0.6h-6.3c0.1,1.3,1.1,2.2,2.5,2.2c1.1,0,1.9-0.5,2.3-1.2l1.3,1
		c-0.7,1.1-2,1.9-3.6,1.9c-2.4,0-4.2-1.7-4.2-4.2C22.4,13,24.1,11.2,26.6,11.2z M24.2,14.4h4.4c-0.2-1.2-1.1-1.8-2.1-1.8
		S24.4,13.2,24.2,14.4z"/>
	<path class="st0" d="M34.7,19.5c-1.3,0-2.6-0.5-3.1-1.7l1.3-0.9c0.3,0.7,1.1,1.1,1.9,1.1c0.7,0,1.2-0.3,1.2-0.8
		c0-0.5-0.4-0.8-1.3-1L34,15.9c-1.4-0.4-2.1-1.3-2.1-2.4c0-1.4,1.2-2.3,2.8-2.3c1.1,0,2,0.4,2.6,1.1l-1,1.1c-0.4-0.5-1-0.8-1.7-0.8
		c-0.6,0-1.1,0.3-1.1,0.7c0,0.4,0.2,0.7,1.1,0.9l0.8,0.3c1.4,0.4,2.2,1.2,2.2,2.5C37.6,18.6,36.4,19.5,34.7,19.5z"/>
	<path class="st0" d="M42.8,19.4c-1.5,0-2.7-0.8-2.7-2.7v-3.9h-1.7v-1.6h1.7V9.1h1.8v2.2h2.3v1.6h-2.3v3.6c0,1,0.4,1.4,1.3,1.4
		c0.3,0,0.7-0.1,0.9-0.2v1.6C43.8,19.3,43.3,19.4,42.8,19.4z"/>
	<path class="st0" d="M49.3,11.2c2.1,0,3.9,1.4,3.9,4c0,0.2,0,0.3,0,0.6h-6.3c0.1,1.3,1.1,2.2,2.5,2.2c1.1,0,1.9-0.5,2.3-1.2l1.3,1
		c-0.7,1.1-2,1.9-3.6,1.9c-2.4,0-4.2-1.7-4.2-4.2C45.1,13,46.8,11.2,49.3,11.2z M46.9,14.4h4.4c-0.2-1.2-1.1-1.8-2.1-1.8
		S47.1,13.2,46.9,14.4z"/>
	<path class="st0" d="M54.9,7.3h1.8v12h-1.8V7.3z"/>
	<path class="st0" d="M66,19.4c-1.5,0-2.7-0.8-2.7-2.7v-3.9h-1.7v-1.6h1.7V9.1H65v2.2h2.3v1.6H65v3.6c0,1,0.4,1.4,1.3,1.4
		c0.3,0,0.7-0.1,0.9-0.2v1.6C67,19.3,66.6,19.4,66,19.4z"/>
	<path class="st0" d="M69.9,9.6c-0.6,0-1.2-0.5-1.2-1.2c0-0.6,0.5-1.2,1.2-1.2c0.7,0,1.2,0.5,1.2,1.2C71,9,70.5,9.6,69.9,9.6z
		 M69,11.3h1.8v8H69V11.3z"/>
	<path class="st0" d="M76.8,19.5c-2.4,0-4.2-1.8-4.2-4.2c0-2.4,1.8-4.2,4.2-4.2c1.6,0,3,0.9,3.7,2.2L79,14.2
		c-0.4-0.8-1.2-1.4-2.2-1.4c-1.4,0-2.4,1.1-2.4,2.5c0,1.4,1,2.5,2.4,2.5c1,0,1.8-0.6,2.2-1.4l1.5,0.8C79.8,18.6,78.4,19.5,76.8,19.5
		z"/>
	<path class="st0" d="M82.1,7.3h1.8v7l3.1-3h2.2l-3.6,3.6l4.4,4.4h-2.3l-3.8-3.9v3.9h-1.8V7.3z"/>
	<path class="st0" d="M94,11.2c2.1,0,3.9,1.4,3.9,4c0,0.2,0,0.3,0,0.6h-6.3c0.1,1.3,1.1,2.2,2.5,2.2c1.1,0,1.9-0.5,2.3-1.2l1.3,1
		c-0.7,1.1-2,1.9-3.6,1.9c-2.4,0-4.2-1.7-4.2-4.2C89.8,13,91.5,11.2,94,11.2z M91.6,14.4h4.4c-0.2-1.2-1.1-1.8-2.1-1.8
		S91.8,13.2,91.6,14.4z"/>
	<path class="st0" d="M103,19.4c-1.5,0-2.7-0.8-2.7-2.7v-3.9h-1.7v-1.6h1.7V9.1h1.8v2.2h2.3v1.6H102v3.6c0,1,0.4,1.4,1.3,1.4
		c0.3,0,0.7-0.1,0.9-0.2v1.6C103.9,19.3,103.5,19.4,103,19.4z"/>
	<path class="st0" d="M108.4,19.5c-1.3,0-2.6-0.5-3.1-1.7l1.3-0.9c0.3,0.7,1.1,1.1,1.9,1.1c0.7,0,1.2-0.3,1.2-0.8
		c0-0.5-0.4-0.8-1.3-1l-0.7-0.2c-1.4-0.4-2.1-1.3-2.1-2.4c0-1.4,1.2-2.3,2.8-2.3c1.1,0,2,0.4,2.6,1.1l-1,1.1c-0.4-0.5-1-0.8-1.7-0.8
		c-0.6,0-1.1,0.3-1.1,0.7c0,0.4,0.2,0.7,1.1,0.9l0.8,0.3c1.4,0.4,2.2,1.2,2.2,2.5C111.4,18.6,110.1,19.5,108.4,19.5z"/>
</g>
</svg>
