<?xml version="1.0" encoding="utf-8"?>
<!-- Generator: Adobe Illustrator 22.1.0, SVG Export Plug-In . SVG Version: 6.00 Build 0)  -->
<svg version="1.1" id="Laag_1" xmlns="http://www.w3.org/2000/svg" xmlns:xlink="http://www.w3.org/1999/xlink" x="0px" y="0px"
	 viewBox="0 0 76 6.1" style="enable-background:new 0 0 76 6.1;" xml:space="preserve">
<g>
	<path d="M6.7,0.1H5.7c-0.1,0-0.2,0-0.2,0.1L4.8,3.9c0,0,0,0.1-0.1,0.1H4.7c0,0-0.1,0-0.1-0.1L4,0.2c0-0.1-0.1-0.1-0.2-0.1H3
		c-0.1,0-0.2,0-0.2,0.1L2.2,3.9c0,0,0,0.1-0.1,0.1H2.1C2.1,4,2,4,2,3.9L1.3,0.2c0-0.1-0.1-0.1-0.2-0.1H0.2c-0.1,0-0.1,0-0.2,0.1
		c0,0,0,0.1,0,0.1l1.2,5.6C1.3,6,1.3,6,1.4,6h1.3c0.1,0,0.2,0,0.2-0.1l0.5-2.7c0,0,0-0.1,0.1-0.1c0,0,0,0,0.1,0.1L4,5.9
		C4,6,4.1,6,4.2,6h1.3c0.1,0,0.2,0,0.2-0.1l1.2-5.6c0,0,0-0.1,0-0.1C6.8,0.1,6.7,0.1,6.7,0.1z"/>
	<path d="M11.1,4.8H8.9c-0.1,0-0.1,0-0.1-0.1v-1c0-0.1,0-0.1,0.1-0.1h2.1c0,0,0.1,0,0.1-0.1c0,0,0.1-0.1,0.1-0.1V2.6
		c0,0,0-0.1-0.1-0.1c0,0-0.1-0.1-0.1-0.1H8.9c-0.1,0-0.1,0-0.1-0.1v-1c0-0.1,0-0.1,0.1-0.1H11c0,0,0.1,0,0.1-0.1
		c0,0,0.1-0.1,0.1-0.1V0.3c0,0,0-0.1-0.1-0.1c0,0-0.1-0.1-0.1-0.1H7.7c0,0-0.1,0-0.1,0.1c0,0-0.1,0.1-0.1,0.1v5.6c0,0,0,0.1,0.1,0.1
		C7.6,6,7.6,6,7.7,6h3.4c0,0,0.1,0,0.1-0.1c0,0,0.1-0.1,0.1-0.1V5c0,0,0-0.1-0.1-0.1C11.1,4.8,11.1,4.8,11.1,4.8z"/>
	<path d="M16.1,2.7c0.2-0.2,0.2-0.5,0.2-0.8c0-0.2-0.1-0.5-0.2-0.7c-0.1-0.2-0.2-0.4-0.4-0.6c-0.2-0.2-0.4-0.3-0.6-0.4
		c-0.2-0.1-0.5-0.1-0.7-0.1h-2c0,0-0.1,0-0.1,0.1c0,0-0.1,0.1-0.1,0.1v5.6c0,0,0,0.1,0.1,0.1c0,0,0.1,0.1,0.1,0.1h0.9
		c0,0,0.1,0,0.1-0.1c0,0,0.1-0.1,0.1-0.1V3.7c0-0.1,0-0.1,0.1-0.1h0.2c0,0,0.1,0,0.1,0c0,0,0,0,0.1,0.1l0.9,2.1
		C14.9,5.9,15,5.9,15,6c0,0,0.1,0,0.2,0h0.9c0.1,0,0.2,0,0.2-0.1c0-0.1,0-0.1,0-0.2l-1-2.1c0-0.1,0-0.1,0-0.2c0,0,0-0.1,0.1-0.1
		C15.7,3.2,15.9,2.9,16.1,2.7z M14.9,2.3c-0.1,0.1-0.3,0.2-0.5,0.2h-0.8c-0.1,0-0.1,0-0.1-0.1v-1c0-0.1,0-0.1,0.1-0.1h0.8
		c0.2,0,0.3,0.1,0.5,0.2C15,1.6,15,1.7,15,1.9C15,2,15,2.2,14.9,2.3z"/>
	<path d="M20.9,4.8h-2.2c-0.1,0-0.1,0-0.1-0.1v-1c0-0.1,0-0.1,0.1-0.1h2.1c0,0,0.1,0,0.1-0.1c0,0,0.1-0.1,0.1-0.1V2.6
		c0,0,0-0.1-0.1-0.1c0,0-0.1-0.1-0.1-0.1h-2.1c-0.1,0-0.1,0-0.1-0.1v-1c0-0.1,0-0.1,0.1-0.1h2.1c0,0,0.1,0,0.1-0.1
		c0,0,0.1-0.1,0.1-0.1V0.3c0,0,0-0.1-0.1-0.1c0,0-0.1-0.1-0.1-0.1h-3.3c0,0-0.1,0-0.1,0.1c0,0-0.1,0.1-0.1,0.1v5.6
		c0,0,0,0.1,0.1,0.1c0,0,0.1,0.1,0.1,0.1h3.4C20.9,6,21,6,21,6c0,0,0.1-0.1,0.1-0.1V5c0,0,0-0.1-0.1-0.1C21,4.8,20.9,4.8,20.9,4.8z"
		/>
	<path d="M25.3,4.8h-1.9c-0.1,0-0.1,0-0.1-0.1V0.3c0,0,0-0.1-0.1-0.1c0,0-0.1-0.1-0.1-0.1h-0.9c0,0-0.1,0-0.1,0.1
		c0,0-0.1,0.1-0.1,0.1v5.6c0,0,0,0.1,0.1,0.1c0,0,0.1,0.1,0.1,0.1h3.1c0,0,0.1,0,0.1-0.1c0,0,0.1-0.1,0.1-0.1V5c0,0,0-0.1-0.1-0.1
		C25.4,4.8,25.4,4.8,25.3,4.8z"/>
	<path d="M30.2,1.2c-0.1-0.2-0.3-0.4-0.4-0.6c-0.2-0.2-0.4-0.3-0.6-0.4c-0.2-0.1-0.5-0.1-0.8-0.1h-1.9c0,0-0.1,0-0.1,0.1
		c0,0-0.1,0.1-0.1,0.1v5.6c0,0,0,0.1,0.1,0.1c0,0,0.1,0.1,0.1,0.1h1.9c0.3,0,0.5,0,0.8-0.1c0.2-0.1,0.4-0.2,0.6-0.4
		c0.2-0.2,0.3-0.4,0.4-0.6c0.1-0.2,0.2-0.5,0.2-0.7c0-0.4,0.1-0.7,0.1-1.1c0-0.4,0-0.7-0.1-1.1C30.4,1.7,30.3,1.5,30.2,1.2z
		 M29.1,4.1c0,0.2-0.1,0.3-0.2,0.5c-0.1,0.1-0.3,0.2-0.5,0.2h-0.7c-0.1,0-0.1,0-0.1-0.1V1.4c0-0.1,0-0.1,0.1-0.1h0.7
		c0.2,0,0.4,0.1,0.5,0.2s0.2,0.3,0.2,0.5c0,0.4,0.1,0.7,0.1,1.1C29.2,3.4,29.1,3.8,29.1,4.1z"/>
	<path d="M36.8,0.1h-1.3c-0.1,0-0.2,0-0.2,0.1l-1,3.7c0,0,0,0-0.1,0s0,0-0.1,0l-0.9-3.7c0-0.1-0.1-0.1-0.2-0.1h-1.4
		c0,0-0.1,0-0.1,0.1c0,0-0.1,0.1-0.1,0.1v5.6c0,0,0,0.1,0.1,0.1c0,0,0.1,0.1,0.1,0.1h0.8c0,0,0.1,0,0.1-0.1c0,0,0.1-0.1,0.1-0.1V2.7
		c0,0,0,0,0-0.1c0,0,0,0,0.1,0l0.9,3.2C33.7,6,33.7,6,33.8,6h0.7c0.1,0,0.2,0,0.2-0.1l0.9-3.2c0,0,0,0,0.1,0c0,0,0,0,0,0.1v3.2
		c0,0,0,0.1,0.1,0.1C35.9,6,35.9,6,36,6h0.8c0,0,0.1,0,0.1-0.1c0,0,0.1-0.1,0.1-0.1V0.3c0,0,0-0.1-0.1-0.1
		C36.9,0.1,36.8,0.1,36.8,0.1z"/>
	<path d="M42.2,0.1h-0.9c0,0-0.1,0-0.1,0.1c0,0-0.1,0.1-0.1,0.1v4c0,0.2-0.1,0.3-0.2,0.5c-0.2,0.1-0.4,0.2-0.7,0.2
		c-0.3,0-0.5-0.1-0.6-0.2s-0.2-0.3-0.2-0.5v-4c0,0,0-0.1-0.1-0.1c0,0-0.1-0.1-0.1-0.1h-0.9c0,0-0.1,0-0.1,0.1c0,0-0.1,0.1-0.1,0.1v4
		c0,0.3,0.1,0.5,0.2,0.7c0.1,0.2,0.3,0.4,0.4,0.6s0.4,0.3,0.7,0.4c0.3,0.1,0.6,0.1,0.9,0.1c0.3,0,0.6,0,0.9-0.1
		c0.3-0.1,0.5-0.2,0.7-0.4s0.3-0.4,0.5-0.6c0.1-0.2,0.2-0.5,0.2-0.7v-4c0,0,0-0.1-0.1-0.1C42.3,0.1,42.3,0.1,42.2,0.1z"/>
	<path d="M47,2.9c-0.2-0.1-0.4-0.3-0.7-0.4s-0.6-0.2-0.9-0.2c-0.2,0-0.4-0.1-0.6-0.2s-0.2-0.2-0.2-0.4c0-0.2,0.1-0.3,0.2-0.4
		c0.1-0.1,0.3-0.2,0.6-0.2c0.3,0,0.5,0.1,0.6,0.2c0.1,0.1,0.2,0.3,0.2,0.4v0.1c0,0,0,0.1,0.1,0.1c0,0,0.1,0.1,0.1,0.1h0.9
		c0,0,0.1,0,0.1-0.1c0,0,0.1-0.1,0.1-0.1V1.8c0-0.2-0.1-0.5-0.2-0.7c-0.1-0.2-0.2-0.4-0.4-0.6c-0.2-0.2-0.4-0.3-0.7-0.4
		C45.9,0,45.7,0,45.3,0s-0.6,0-0.8,0.1c-0.3,0.1-0.5,0.2-0.7,0.4c-0.2,0.2-0.3,0.3-0.4,0.6c-0.1,0.2-0.2,0.4-0.2,0.7
		c0,0.3,0.1,0.5,0.2,0.7c0.1,0.2,0.3,0.4,0.4,0.5c0.2,0.1,0.4,0.3,0.7,0.4c0.3,0.1,0.5,0.2,0.8,0.2c0.3,0.1,0.6,0.2,0.7,0.3
		c0.1,0.1,0.2,0.2,0.2,0.4c0,0.2-0.1,0.4-0.2,0.5c-0.2,0.1-0.4,0.2-0.7,0.2c-0.3,0-0.5-0.1-0.7-0.2c-0.2-0.1-0.2-0.3-0.2-0.5V4
		c0,0,0-0.1-0.1-0.1c0,0-0.1-0.1-0.1-0.1h-0.9c0,0-0.1,0-0.1,0.1c0,0-0.1,0.1-0.1,0.1v0.3c0,0.3,0.1,0.5,0.2,0.7
		c0.1,0.2,0.3,0.4,0.5,0.6s0.4,0.3,0.7,0.4c0.3,0.1,0.6,0.1,0.9,0.1c0.3,0,0.6,0,0.9-0.1c0.3-0.1,0.5-0.2,0.7-0.4
		c0.2-0.2,0.4-0.4,0.5-0.6c0.1-0.2,0.2-0.5,0.2-0.8c0-0.3-0.1-0.5-0.2-0.8C47.3,3.3,47.2,3.1,47,2.9z"/>
	<path d="M52,4.8h-2.2c-0.1,0-0.1,0-0.1-0.1v-1c0-0.1,0-0.1,0.1-0.1h2.1c0,0,0.1,0,0.1-0.1c0,0,0.1-0.1,0.1-0.1V2.6
		c0,0,0-0.1-0.1-0.1c0,0-0.1-0.1-0.1-0.1h-2.1c-0.1,0-0.1,0-0.1-0.1v-1c0-0.1,0-0.1,0.1-0.1H52c0,0,0.1,0,0.1-0.1s0.1-0.1,0.1-0.1
		V0.3c0,0,0-0.1-0.1-0.1c0,0-0.1-0.1-0.1-0.1h-3.3c0,0-0.1,0-0.1,0.1c0,0-0.1,0.1-0.1,0.1v5.6c0,0,0,0.1,0.1,0.1
		c0,0,0.1,0.1,0.1,0.1H52c0,0,0.1,0,0.1-0.1c0,0,0.1-0.1,0.1-0.1V5c0,0,0-0.1-0.1-0.1C52.1,4.8,52.1,4.8,52,4.8z"/>
	<path d="M57.2,0.1h-0.9c0,0-0.1,0-0.1,0.1c0,0-0.1,0.1-0.1,0.1v4c0,0.2-0.1,0.3-0.2,0.5c-0.2,0.1-0.4,0.2-0.7,0.2
		c-0.3,0-0.5-0.1-0.6-0.2s-0.2-0.3-0.2-0.5v-4c0,0,0-0.1-0.1-0.1c0,0-0.1-0.1-0.1-0.1h-0.9c0,0-0.1,0-0.1,0.1c0,0-0.1,0.1-0.1,0.1v4
		c0,0.3,0.1,0.5,0.2,0.7c0.1,0.2,0.3,0.4,0.4,0.6c0.2,0.2,0.4,0.3,0.7,0.4c0.3,0.1,0.6,0.1,0.9,0.1c0.3,0,0.6,0,0.9-0.1
		c0.3-0.1,0.5-0.2,0.7-0.4C57,5.4,57.1,5.2,57.2,5c0.1-0.2,0.2-0.5,0.2-0.7v-4c0,0,0-0.1-0.1-0.1C57.3,0.1,57.3,0.1,57.2,0.1z"/>
	<path d="M63.8,0.1h-1.3c-0.1,0-0.2,0-0.2,0.1l-1,3.7c0,0,0,0-0.1,0c0,0,0,0-0.1,0l-0.9-3.7c0-0.1-0.1-0.1-0.2-0.1h-1.4
		c0,0-0.1,0-0.1,0.1c0,0-0.1,0.1-0.1,0.1v5.6c0,0,0,0.1,0.1,0.1S58.6,6,58.7,6h0.8c0,0,0.1,0,0.1-0.1c0,0,0.1-0.1,0.1-0.1V2.7
		c0,0,0,0,0-0.1c0,0,0,0,0.1,0l0.9,3.2C60.7,6,60.8,6,60.9,6h0.7c0.1,0,0.2,0,0.2-0.1l0.9-3.2c0,0,0,0,0.1,0c0,0,0,0,0,0.1v3.2
		c0,0,0,0.1,0.1,0.1C62.9,6,62.9,6,63,6h0.8c0,0,0.1,0,0.1-0.1c0,0,0.1-0.1,0.1-0.1V0.3c0,0,0-0.1-0.1-0.1
		C63.9,0.1,63.9,0.1,63.8,0.1z"/>
	<path d="M66,4.7h-1.1c0,0-0.1,0-0.1,0.1c0,0-0.1,0.1-0.1,0.1v1c0,0,0,0.1,0.1,0.1c0,0,0.1,0.1,0.1,0.1H66c0,0,0.1,0,0.1-0.1
		c0,0,0.1-0.1,0.1-0.1v-1c0,0,0-0.1-0.1-0.1C66.1,4.7,66,4.7,66,4.7z"/>
	<path d="M71.2,0.1h-0.9c0,0-0.1,0-0.1,0.1c0,0-0.1,0.1-0.1,0.1v3.2c0,0,0,0,0,0.1c0,0,0,0-0.1,0l-1.3-3.2c0,0,0-0.1-0.1-0.1
		c0,0-0.1,0-0.2,0h-1.1c0,0-0.1,0-0.1,0.1c0,0-0.1,0.1-0.1,0.1v5.6c0,0,0,0.1,0.1,0.1c0,0,0.1,0.1,0.1,0.1h0.9c0,0,0.1,0,0.1-0.1
		c0,0,0.1-0.1,0.1-0.1V2.9c0,0,0,0,0-0.1c0,0,0,0,0.1,0l1.2,3c0,0,0,0.1,0.1,0.1c0,0,0.1,0,0.2,0h1.1c0,0,0.1,0,0.1-0.1
		s0.1-0.1,0.1-0.1V0.3c0,0,0-0.1-0.1-0.1C71.3,0.1,71.2,0.1,71.2,0.1z"/>
	<path d="M76,4.9c0,0-0.1-0.1-0.1-0.1h-1.9c-0.1,0-0.1,0-0.1-0.1V0.3c0,0,0-0.1-0.1-0.1c0,0-0.1-0.1-0.1-0.1h-0.9c0,0-0.1,0-0.1,0.1
		c0,0-0.1,0.1-0.1,0.1v5.6c0,0,0,0.1,0.1,0.1c0,0,0.1,0.1,0.1,0.1h3.1c0,0,0.1,0,0.1-0.1c0,0,0.1-0.1,0.1-0.1V5
		C76,4.9,76,4.9,76,4.9z"/>
</g>
</svg>
