<?xml version="1.0" encoding="utf-8"?>
<!-- Generator: Adobe Illustrator 24.0.0, SVG Export Plug-In . SVG Version: 6.00 Build 0)  -->
<svg version="1.1" id="Laag_1" xmlns="http://www.w3.org/2000/svg" xmlns:xlink="http://www.w3.org/1999/xlink" x="0px" y="0px"
	 width="167.3px" height="72.8px" viewBox="0 0 167.3 72.8" style="enable-background:new 0 0 167.3 72.8;" xml:space="preserve">
<style type="text/css">
	.st0{fill:#FCF4F7;}
</style>
<g>
	<path class="st0" d="M12.8,25.2v-1.2l2-0.2L13,17.6H5.3l-1,3.5c-0.1,0.4-0.2,0.8-0.2,1.1c0,1.3,0.8,1.7,2.4,1.7v1.2H0v-1.2
		c1.5-0.3,2.1-0.6,2.6-2.1L8.3,3.6l-0.9-2l3.8-0.2l6.9,22.3l1.7,0.2v1.2H12.8z M12.6,16.3L9.2,5.2H9.1L5.8,16.3H12.6z"/>
	<path class="st0" d="M31.9,22.8c0,0.8,0.4,0.9,0.8,0.9c0.5,0,0.9-0.4,1.1-0.6l0.7,0.7c-0.8,1.1-1.7,1.9-3.2,1.9c-1.2,0-2-1-2.1-2.2
		c-1.1,1.2-3,2.2-4.7,2.2c-2.3,0-4.2-1.6-4.2-4c0-4.3,5.3-6.4,8.9-7.2c0-3.7-2.2-4.7-3.3-4.7c-1.2,0-0.7,2.3-2.9,2.3
		c-0.8,0-1.4-0.6-1.4-1.5c0-1.4,0.8-1.9,3-1.9c2.1,0,7.3,1.1,7.3,5.8V22.8z M29.2,15.7c-2.3,0.4-5.9,1.9-5.9,5.2
		c0,1.7,1,2.8,2.7,2.8c1.3,0,2.4-0.8,3.2-1.8V15.7z"/>
	<path class="st0" d="M48.9,21.4c0,1.3,0.2,2.1,1.7,2.1v1l-3.2,1.2l-0.9-2.4c-1.3,1.2-2.6,2.4-4.7,2.4c-3.4,0-5.7-4-5.7-8
		c0-5.2,3-9,6.5-9c1.6,0,2.5,0.3,3.6,1.1V3.3c0-0.6-0.2-0.9-0.5-0.9c-0.5,0-1,0-1.3,0.1v-1L48.9,0c0,0.7-0.1,1.3-0.1,2.1V21.4z
		 M46.1,12.4c0-1.3-1.7-2.8-3.3-2.8c-3.3,0-4.1,3.9-4.1,6.2c0,3.8,1.4,7.3,4.4,7.3c1,0,2.5-0.6,3-1.4V12.4z"/>
	<path class="st0" d="M74.4,21.4c0,1.3,0.2,2.1,1.7,2.1v1l-3.2,1.2l-0.9-2.4c-1.3,1.2-2.6,2.4-4.7,2.4c-3.4,0-5.7-4-5.7-8
		c0-5.2,3-9,6.5-9c1.6,0,2.5,0.3,3.6,1.1V3.3c0-0.6-0.2-0.9-0.5-0.9c-0.5,0-1,0-1.3,0.1v-1L74.5,0c0,0.7-0.1,1.3-0.1,2.1V21.4z
		 M71.7,12.4c0-1.3-1.7-2.8-3.3-2.8c-3.3,0-4.1,3.9-4.1,6.2c0,3.8,1.4,7.3,4.4,7.3c1,0,2.5-0.6,3-1.4V12.4z"/>
	<path class="st0" d="M81.5,17.8c0.1,2.3,1.6,5.6,4.7,5.6c1.9,0,3-1.1,4.1-2.7l0.8,0.6c-1.1,2.4-3.1,4.4-5.9,4.4
		c-4.4,0-6.6-3.9-6.6-7.9c0-5.6,2.9-9.2,6.2-9.2c3.7,0,5.4,3.1,5.9,6.5L81.5,17.8z M85.8,15c1.1-0.3,1.8-0.6,1.8-2.2
		c0-1.3-0.6-3-2.6-3c-2.9,0-3.7,2.7-3.7,4.7c0,1,0,1.4,0,1.7L85.8,15z"/>
	<path class="st0" d="M104.4,3.1l-2-0.2V1.6h7.3v1.2l-2,0.2V12h10.8V3.1l-2-0.2V1.6h7.3v1.2l-2,0.2v20.7l2,0.2v1.2h-7.3v-1.2l2-0.2
		V13.3h-10.8v10.4l2,0.2v1.2h-7.3v-1.2l2-0.2V3.1z"/>
	<path class="st0" d="M137.7,22.8c0,0.8,0.4,0.9,0.8,0.9c0.5,0,0.9-0.4,1.1-0.6l0.7,0.7c-0.8,1.1-1.7,1.9-3.2,1.9
		c-1.2,0-2-1-2.1-2.2c-1.1,1.2-3,2.2-4.7,2.2c-2.3,0-4.2-1.6-4.2-4c0-4.3,5.3-6.4,8.9-7.2c0-3.7-2.2-4.7-3.3-4.7
		c-1.2,0-0.7,2.3-2.9,2.3c-0.8,0-1.4-0.6-1.4-1.5c0-1.4,0.8-1.9,3-1.9c2.1,0,7.3,1.1,7.3,5.8V22.8z M134.9,15.7
		c-2.3,0.4-5.9,1.9-5.9,5.2c0,1.7,1,2.8,2.7,2.8c1.3,0,2.4-0.8,3.2-1.8V15.7z"/>
	<path class="st0" d="M152.8,22.8c0,0.8,0.4,0.9,0.8,0.9c0.5,0,0.9-0.4,1.1-0.6l0.7,0.7c-0.8,1.1-1.7,1.9-3.2,1.9
		c-1.2,0-2-1-2.1-2.2c-1.1,1.2-3,2.2-4.7,2.2c-2.3,0-4.2-1.6-4.2-4c0-4.3,5.3-6.4,8.9-7.2c0-3.7-2.2-4.7-3.3-4.7
		c-1.2,0-0.7,2.3-2.9,2.3c-0.8,0-1.4-0.6-1.4-1.5c0-1.4,0.8-1.9,3-1.9c2.1,0,7.3,1.1,7.3,5.8V22.8z M150,15.7
		c-2.3,0.4-5.9,1.9-5.9,5.2c0,1.7,1,2.8,2.7,2.8c1.3,0,2.4-0.8,3.2-1.8V15.7z"/>
	<path class="st0" d="M161.5,25.7c-2.6,0-5.1-1.2-5.1-2.9c0-1.1,0.6-1.7,1.6-1.7c2.6,0,1.1,3.5,3.6,3.5c1.8,0,3.5-0.9,3.5-2.7
		c0-4.2-7.7-3.5-7.7-8.5c0-2.8,2.2-4.6,6.1-4.6c2,0,2.9,0.8,2.9,1.9c0,1.1-0.6,1.6-1.6,1.6c-1.6,0-1.5-2.3-2.8-2.3
		c-1.4,0-2.3,0.9-2.3,2.3c0,3.8,7.7,2.5,7.7,8.6C167.3,23.3,165.1,25.7,161.5,25.7z"/>
</g>
<g>
	<path class="st0" d="M80.6,39v-2.2h8.2V39H80.6z"/>
</g>
<g>
	<path class="st0" d="M31.8,66.7v-1.2l4.2-0.4V47.9c0-1.7-0.2-2.2-2.1-2.2c-0.7,0-1.3,0-2,0v-1.2l7.2-1.8v22.5l3.5,0.3v1.2H31.8z"/>
	<path class="st0" d="M60.8,55c0,5-2.6,12.3-6.9,12.3c-4.3,0-6.9-5.8-6.9-12.3c0-6.8,3.4-12.3,6.9-12.3C58,42.7,60.8,48.2,60.8,55z
		 M50.3,55c0,8.5,0.7,11.1,3.7,11.1c2.6,0,3.7-3.4,3.7-11.1c0-7.8-0.8-11.1-3.7-11.1C51.6,43.8,50.3,47.2,50.3,55z"/>
	<path class="st0" d="M77.8,55c0,5-2.6,12.3-6.9,12.3c-4.3,0-6.9-5.8-6.9-12.3c0-6.8,3.4-12.3,6.9-12.3C75,42.7,77.8,48.2,77.8,55z
		 M67.3,55c0,8.5,0.7,11.1,3.7,11.1c2.6,0,3.7-3.4,3.7-11.1c0-7.8-0.8-11.1-3.7-11.1C68.6,43.8,67.3,47.2,67.3,55z"/>
	<path class="st0" d="M94.5,50.2c0,0.7-0.1,1.3-0.1,2.1v12.4c0,3.9-3,8.1-5.7,8.1c-1.2,0-1.9-0.6-1.9-1.5c0-0.8,0.5-1.7,1.5-1.7
		c0.6,0,1,0.2,1.3,0.5c0.3,0.2,0.5,0.5,0.8,0.5c1,0,1.2-2,1.2-3.7V55.5c0-2.3-0.3-2.9-1-2.9c-0.2,0-0.5,0-0.8,0.1v-1L94.5,50.2z
		 M95,44.5c0,1-0.7,1.8-1.9,1.8c-1.2,0-1.8-0.8-1.8-1.8c0-1,0.7-1.8,1.8-1.8C94.3,42.7,95,43.5,95,44.5z"/>
	<path class="st0" d="M109.9,64.3c0,0.8,0.4,0.9,0.8,0.9c0.5,0,0.9-0.4,1.1-0.6l0.7,0.7c-0.8,1.1-1.7,1.9-3.2,1.9
		c-1.2,0-2-1-2.1-2.2c-1.1,1.2-3,2.2-4.7,2.2c-2.3,0-4.2-1.6-4.2-4c0-4.3,5.3-6.4,8.9-7.2c0-3.7-2.2-4.7-3.3-4.7
		c-1.2,0-0.7,2.3-2.9,2.3c-0.8,0-1.4-0.6-1.4-1.5c0-1.4,0.8-1.9,3-1.9c2.1,0,7.3,1.1,7.3,5.8V64.3z M107.2,57.3
		c-2.3,0.4-5.9,1.9-5.9,5.2c0,1.7,1,2.8,2.7,2.8c1.3,0,2.4-0.8,3.2-1.8V57.3z"/>
	<path class="st0" d="M125,64.3c0,0.8,0.4,0.9,0.8,0.9c0.5,0,0.9-0.4,1.1-0.6l0.7,0.7c-0.8,1.1-1.7,1.9-3.2,1.9c-1.2,0-2-1-2.1-2.2
		c-1.1,1.2-3,2.2-4.7,2.2c-2.3,0-4.2-1.6-4.2-4c0-4.3,5.3-6.4,8.9-7.2c0-3.7-2.2-4.7-3.3-4.7c-1.2,0-0.7,2.3-2.9,2.3
		c-0.8,0-1.4-0.6-1.4-1.5c0-1.4,0.8-1.9,3-1.9c2.1,0,7.3,1.1,7.3,5.8V64.3z M122.3,57.3c-2.3,0.4-5.9,1.9-5.9,5.2
		c0,1.7,1,2.8,2.7,2.8c1.3,0,2.4-0.8,3.2-1.8V57.3z"/>
	<path class="st0" d="M129.7,66.7v-1l1.7-0.2v-8.9c0-2.2-0.6-4.1-1.5-4.1c-0.2,0-0.5,0.1-0.7,0.1v-1l3.3-1.4
		c0.5,1.1,1.3,3.6,1.3,5.9h0.1c0.3-1.9,2.2-5.9,4.6-5.9c1.2,0,1.9,0.8,1.9,1.9c0,0.8-1,1.7-1.7,1.7c-0.8,0-1.2-0.4-1.7-0.4
		c-1.5,0-2.8,4.7-2.8,7.2v4.9l1.7,0.2v1H129.7z"/>
</g>
</svg>
