<?xml version="1.0" encoding="utf-8"?>
<!-- Generator: Adobe Illustrator 24.3.0, SVG Export Plug-In . SVG Version: 6.00 Build 0)  -->
<svg version="1.1" id="Laag_1" xmlns="http://www.w3.org/2000/svg" xmlns:xlink="http://www.w3.org/1999/xlink" x="0px" y="0px"
	 width="127.8px" height="48.3px" viewBox="0 0 127.8 48.3" style="enable-background:new 0 0 127.8 48.3;" xml:space="preserve">
<style type="text/css">
	.st0{fill:#FFFFFF;}
</style>
<g>
	<path class="st0" d="M5.2,6h5.2v6.2H9.4l-0.3-1.3H9c-1,1-2.2,1.5-3.7,1.5c-1.7,0-3-0.6-3.9-1.7S0,8.2,0,6.5c0-1.9,0.5-3.4,1.5-4.6
		c1-1.2,2.3-1.8,4-1.8c1.4,0,2.6,0.3,3.4,1c0.8,0.7,1.3,1.6,1.5,2.7H8.8c-0.2-0.7-0.5-1.2-1-1.6C7.2,1.7,6.5,1.5,5.6,1.5
		C4.4,1.5,3.4,2,2.7,2.9C2,3.8,1.6,5,1.6,6.4c0,1.3,0.3,2.4,1,3.3c0.7,0.8,1.7,1.3,3,1.3c0.7,0,1.3-0.2,1.9-0.5c0.6-0.3,1-0.6,1.3-1
		V7.3H5.2V6z"/>
	<path class="st0" d="M17.4,3.5h0.5V5c-0.2,0-0.4-0.1-0.7-0.1c-0.7,0-1.2,0.2-1.7,0.7s-0.7,1.2-0.7,2.1v4.5h-1.6V3.6h1.2l0.2,1.2
		h0.1C15.5,3.9,16.3,3.5,17.4,3.5z"/>
	<path class="st0" d="M23.3,12.4c-1.3,0-2.3-0.4-3.1-1.3c-0.8-0.8-1.2-1.9-1.2-3.2c0-1.3,0.4-2.3,1.2-3.2s1.9-1.3,3.1-1.3
		c1.3,0,2.3,0.4,3.1,1.3c0.8,0.8,1.2,1.9,1.2,3.2c0,1.3-0.4,2.4-1.2,3.2S24.6,12.4,23.3,12.4z M23.3,11c0.8,0,1.5-0.3,2-0.9
		c0.5-0.6,0.8-1.3,0.8-2.2c0-0.9-0.3-1.6-0.8-2.2c-0.5-0.6-1.2-0.9-2-0.9c-0.8,0-1.5,0.3-2,0.9c-0.5,0.6-0.8,1.3-0.8,2.2
		c0,0.9,0.3,1.6,0.8,2.2S22.5,11,23.3,11z"/>
	<path class="st0" d="M32.7,12.4c-0.9,0-1.7-0.3-2.3-0.9s-0.9-1.5-0.9-2.7V3.6h1.6v4.8c0,0.8,0.2,1.5,0.6,1.9s0.9,0.6,1.5,0.6
		c0.6,0,1.1-0.2,1.5-0.6c0.4-0.4,0.6-1,0.6-1.8V3.6h1.6v8.6h-1.2l-0.2-1.1h-0.1C34.7,12,33.9,12.4,32.7,12.4z"/>
	<path class="st0" d="M43.4,3.5c0.9,0,1.7,0.3,2.3,0.9c0.6,0.6,0.9,1.5,0.9,2.7v5.1H45V7.4c0-0.8-0.2-1.5-0.6-1.9
		c-0.4-0.4-0.9-0.6-1.5-0.6c-0.6,0-1.1,0.2-1.5,0.6c-0.4,0.4-0.6,1-0.6,1.8v4.9h-1.6V3.6h1.2l0.2,1.1h0.1
		C41.3,3.9,42.2,3.5,43.4,3.5z"/>
	<path class="st0" d="M55.2,0h1.5v12.2h-1.1L55.3,11h-0.2c-0.6,0.9-1.5,1.4-2.7,1.4c-1.1,0-2.1-0.4-2.8-1.2
		c-0.7-0.8-1.1-1.9-1.1-3.2c0-1.3,0.4-2.4,1.1-3.2c0.8-0.8,1.7-1.2,2.9-1.2c1.3,0,2.2,0.5,2.7,1.4V0z M50.7,10.2
		c0.5,0.6,1.1,0.9,1.9,0.9s1.4-0.3,1.9-0.9c0.5-0.6,0.7-1.3,0.7-2.2c0-0.9-0.2-1.7-0.7-2.2c-0.5-0.6-1.1-0.9-1.9-0.9
		c-0.8,0-1.4,0.3-1.9,0.9C50.2,6.3,50,7,50,7.9C50,8.8,50.2,9.6,50.7,10.2z"/>
	<path class="st0" d="M63.3,3.5c1.1,0,2.1,0.4,2.9,1.2c0.8,0.8,1.1,1.9,1.1,3.2c0,1.3-0.4,2.4-1.1,3.2c-0.7,0.8-1.7,1.2-2.8,1.2
		c-1.2,0-2.1-0.5-2.7-1.4h-0.2l-0.3,1.2h-1.1V0h1.5v4.9C61.1,3.9,62,3.5,63.3,3.5z M61.3,10.2c0.5,0.6,1.1,0.9,1.9,0.9
		s1.4-0.3,1.9-0.9s0.7-1.3,0.7-2.2c0-0.9-0.2-1.6-0.7-2.2s-1.1-0.9-1.9-0.9c-0.8,0-1.4,0.3-1.9,0.9c-0.5,0.6-0.7,1.3-0.7,2.2
		C60.5,8.9,60.8,9.6,61.3,10.2z"/>
	<path class="st0" d="M73.3,3.5h0.5V5c-0.2,0-0.4-0.1-0.7-0.1c-0.7,0-1.2,0.2-1.7,0.7s-0.7,1.2-0.7,2.1v4.5h-1.6V3.6h1.2l0.2,1.2
		h0.1C71.4,3.9,72.2,3.5,73.3,3.5z"/>
	<path class="st0" d="M78.9,3.5c1.2,0,2.2,0.4,2.9,1.2c0.7,0.8,1.1,2,1,3.6h-6.5c0.1,0.9,0.3,1.6,0.8,2.1s1.1,0.8,2,0.8
		c0.5,0,1-0.1,1.4-0.3c0.4-0.2,0.7-0.6,0.9-1h1.5c-0.2,0.9-0.7,1.5-1.4,2s-1.5,0.7-2.4,0.7c-1.3,0-2.3-0.4-3.1-1.2s-1.1-1.9-1.1-3.3
		c0-1.3,0.4-2.3,1.2-3.2C76.8,3.9,77.7,3.5,78.9,3.5z M76.4,7.1h5c0-0.7-0.3-1.2-0.7-1.7c-0.4-0.5-1-0.7-1.7-0.7
		c-0.7,0-1.3,0.2-1.7,0.6S76.5,6.4,76.4,7.1z"/>
	<path class="st0" d="M91.5,10.1c0,0.3,0.1,0.5,0.2,0.7c0.1,0.1,0.3,0.2,0.6,0.2v1.3H92c-0.9,0-1.5-0.4-1.7-1.2
		c-0.3,0.4-0.8,0.7-1.3,1c-0.5,0.2-1.1,0.4-1.7,0.4c-0.8,0-1.5-0.2-2.1-0.6c-0.5-0.4-0.8-1-0.8-1.8c0-0.9,0.3-1.5,1-2
		c0.7-0.5,1.6-0.8,2.9-0.8L90.1,7V6.8c0-0.7-0.2-1.2-0.5-1.6c-0.3-0.4-0.8-0.6-1.3-0.6c-0.6,0-1,0.2-1.3,0.5
		c-0.3,0.3-0.5,0.7-0.6,1.2h-1.4c0.1-0.8,0.4-1.5,1-2.1c0.6-0.5,1.4-0.8,2.3-0.8c1,0,1.8,0.3,2.4,0.9c0.6,0.6,0.9,1.4,0.9,2.5V10.1z
		 M87.6,11.2c0.7,0,1.2-0.2,1.7-0.6c0.5-0.4,0.7-1,0.7-1.8V8.2l-1.4,0.1c-0.8,0.1-1.5,0.2-1.9,0.5C86.3,9.1,86,9.5,86,9.9
		c0,0.4,0.1,0.7,0.4,0.9C86.8,11,87.1,11.2,87.6,11.2z"/>
	<path class="st0" d="M101.2,3.6l-3.5,3.6l3.5,5h-1.7l-2.8-3.9l-1.2,1.3v2.7h-1.5V0h1.5v7.4h0.2l3.6-3.8H101.2z"/>
	<path class="st0" d="M104.5,2c-0.2,0.2-0.4,0.3-0.7,0.3s-0.5-0.1-0.7-0.3c-0.2-0.2-0.3-0.4-0.3-0.7c0-0.3,0.1-0.5,0.3-0.7
		s0.5-0.3,0.7-0.3s0.5,0.1,0.7,0.3s0.3,0.4,0.3,0.7C104.8,1.6,104.7,1.8,104.5,2z M104.5,3.6v8.6H103V3.6H104.5z"/>
	<path class="st0" d="M111.3,3.5c0.9,0,1.7,0.3,2.3,0.9c0.6,0.6,0.9,1.5,0.9,2.7v5.1h-1.6V7.4c0-0.8-0.2-1.5-0.6-1.9
		c-0.4-0.4-0.9-0.6-1.5-0.6c-0.6,0-1.1,0.2-1.5,0.6c-0.4,0.4-0.6,1-0.6,1.8v4.9h-1.6V3.6h1.2l0.2,1.1h0.1
		C109.2,3.9,110.1,3.5,111.3,3.5z"/>
	<path class="st0" d="M124.2,4c-0.3,0.3-0.7,0.7-1.4,0.9c0.3,0.5,0.5,1,0.5,1.6c0,0.8-0.3,1.5-0.9,2.1c-0.6,0.5-1.4,0.8-2.4,0.8
		c-0.5,0-1-0.1-1.4-0.3c-0.4,0.2-0.7,0.5-0.7,0.7c0,0.5,0.5,0.8,1.4,0.8h1.4c1,0,1.7,0.2,2.3,0.7c0.5,0.4,0.8,1,0.8,1.8
		c0,0.8-0.3,1.5-1,2c-0.7,0.5-1.6,0.7-2.7,0.7c-1.2,0-2.2-0.3-2.8-0.9s-1-1.3-1-2.2l1.4-1.1c-0.7-0.3-1.1-0.8-1.1-1.5
		c0-0.7,0.4-1.2,1.1-1.6c-0.6-0.5-0.9-1.2-0.9-2.1c0-0.9,0.3-1.6,0.9-2.1c0.6-0.6,1.4-0.8,2.3-0.8c0.8,0,1.6,0.2,2.2,0.7
		c0.5-0.3,0.9-0.7,1.3-1.2L124.2,4z M122.3,13.1c0-0.4-0.2-0.8-0.5-1s-0.8-0.3-1.3-0.3h-1.4l-1.4,1.1c0.1,0.5,0.3,0.9,0.7,1.2
		c0.4,0.3,1,0.5,1.7,0.5c0.6,0,1.1-0.1,1.5-0.4C122.1,14,122.3,13.6,122.3,13.1z M120,8.2c0.5,0,1-0.2,1.3-0.5
		c0.3-0.3,0.5-0.8,0.5-1.3s-0.2-0.9-0.5-1.3c-0.3-0.3-0.8-0.5-1.3-0.5c-0.5,0-1,0.2-1.3,0.5s-0.5,0.8-0.5,1.3c0,0.5,0.2,0.9,0.5,1.3
		S119.5,8.2,120,8.2z"/>
	<path class="st0" d="M126.7,10.3c0.3,0,0.6,0.1,0.8,0.4c0.2,0.3,0.3,0.6,0.3,1c0,0.6-0.2,1.2-0.5,1.6c-0.3,0.5-0.7,0.8-1.2,1
		l-0.4-0.5c0.6-0.5,1-1,1-1.5c-0.3,0-0.5,0-0.7-0.2c-0.2-0.2-0.3-0.4-0.3-0.8c0-0.3,0.1-0.6,0.3-0.8
		C126.2,10.4,126.4,10.3,126.7,10.3z"/>
	<path class="st0" d="M20.8,28.1c0,0.3,0.1,0.5,0.2,0.7c0.1,0.1,0.3,0.2,0.6,0.2v1.3h-0.3c-0.9,0-1.5-0.4-1.7-1.2
		c-0.3,0.4-0.8,0.7-1.3,1c-0.5,0.2-1.1,0.4-1.7,0.4c-0.8,0-1.5-0.2-2.1-0.6c-0.5-0.4-0.8-1-0.8-1.8c0-0.9,0.3-1.5,1-2
		c0.7-0.5,1.6-0.8,2.9-0.8l1.6-0.1v-0.2c0-0.7-0.2-1.2-0.5-1.6c-0.3-0.4-0.8-0.6-1.3-0.6c-0.6,0-1,0.2-1.3,0.5
		c-0.3,0.3-0.5,0.7-0.6,1.2h-1.4c0.1-0.8,0.4-1.5,1-2.1c0.6-0.5,1.4-0.8,2.3-0.8c1,0,1.8,0.3,2.4,0.9c0.6,0.6,0.9,1.4,0.9,2.5V28.1z
		 M16.8,29.1c0.7,0,1.2-0.2,1.7-0.6c0.5-0.4,0.7-1,0.7-1.8v-0.6l-1.4,0.1c-0.8,0.1-1.5,0.2-1.9,0.5c-0.4,0.3-0.7,0.7-0.7,1.1
		c0,0.4,0.1,0.7,0.4,0.9C16,29,16.4,29.1,16.8,29.1z"/>
	<path class="st0" d="M29.6,17.9h1.5v12.2H30l-0.3-1.2h-0.2c-0.6,0.9-1.5,1.4-2.7,1.4c-1.1,0-2.1-0.4-2.8-1.2
		c-0.7-0.8-1.1-1.9-1.1-3.2c0-1.3,0.4-2.4,1.1-3.2c0.8-0.8,1.7-1.2,2.9-1.2c1.3,0,2.2,0.5,2.7,1.4V17.9z M25.1,28.1
		c0.5,0.6,1.1,0.9,1.9,0.9s1.4-0.3,1.9-0.9c0.5-0.6,0.7-1.3,0.7-2.2c0-0.9-0.2-1.7-0.7-2.2c-0.5-0.6-1.1-0.9-1.9-0.9
		c-0.8,0-1.4,0.3-1.9,0.9c-0.5,0.6-0.7,1.3-0.7,2.2C24.4,26.8,24.7,27.5,25.1,28.1z"/>
	<path class="st0" d="M39.7,21.6h1.6l-3.1,8.6H36l-3.1-8.6h1.6l2.5,7.2h0.2L39.7,21.6z"/>
	<path class="st0" d="M46.2,21.4c1.2,0,2.2,0.4,2.9,1.2c0.7,0.8,1.1,2,1,3.6h-6.5c0.1,0.9,0.3,1.6,0.8,2.1s1.1,0.8,2,0.8
		c0.5,0,1-0.1,1.4-0.3c0.4-0.2,0.7-0.6,0.9-1h1.5c-0.2,0.9-0.7,1.5-1.4,2s-1.5,0.7-2.4,0.7c-1.3,0-2.3-0.4-3.1-1.2s-1.1-1.9-1.1-3.3
		c0-1.3,0.4-2.3,1.2-3.2C44.1,21.8,45,21.4,46.2,21.4z M43.7,25h5c0-0.7-0.3-1.2-0.7-1.7c-0.4-0.5-1-0.7-1.7-0.7
		c-0.7,0-1.3,0.2-1.7,0.6S43.8,24.3,43.7,25z"/>
	<path class="st0" d="M56.4,21.4c0.9,0,1.7,0.3,2.3,0.9c0.6,0.6,0.9,1.5,0.9,2.7v5.1H58v-4.8c0-0.8-0.2-1.5-0.6-1.9
		c-0.4-0.4-0.9-0.6-1.5-0.6c-0.6,0-1.1,0.2-1.5,0.6c-0.4,0.4-0.6,1-0.6,1.8v4.9h-1.6v-8.6h1.2l0.2,1.1h0.1
		C54.3,21.8,55.2,21.4,56.4,21.4z"/>
	<path class="st0" d="M66,29.9c-0.4,0.3-0.9,0.4-1.4,0.4c-1.4,0-2.1-0.8-2.1-2.3v-5.2h-1.7v-1.1h0.5c0.9,0,1.3-0.4,1.3-1.2v-1.1H64
		v2.2h2v1.3h-2v5.1c0,0.7,0.3,1.1,0.9,1.1c0.3,0,0.5-0.1,0.8-0.2L66,29.9z"/>
	<path class="st0" d="M71,30.3c-0.9,0-1.7-0.3-2.3-0.9s-0.9-1.5-0.9-2.7v-5.1h1.6v4.8c0,0.8,0.2,1.5,0.6,1.9s0.9,0.6,1.5,0.6
		c0.6,0,1.1-0.2,1.5-0.6c0.4-0.4,0.6-1,0.6-1.8v-4.9h1.6v8.6H74l-0.2-1.1h-0.1C73.1,29.9,72.2,30.3,71,30.3z"/>
	<path class="st0" d="M81.7,21.4h0.5v1.5c-0.2,0-0.4-0.1-0.7-0.1c-0.7,0-1.2,0.2-1.7,0.7s-0.7,1.2-0.7,2.1v4.5h-1.6v-8.6h1.2
		l0.2,1.2h0.1C79.8,21.9,80.6,21.4,81.7,21.4z"/>
	<path class="st0" d="M87.6,30.3c-1.3,0-2.3-0.4-3.1-1.3c-0.8-0.8-1.2-1.9-1.2-3.2c0-1.3,0.4-2.3,1.2-3.2s1.9-1.3,3.1-1.3
		c1.3,0,2.3,0.4,3.1,1.3c0.8,0.8,1.2,1.9,1.2,3.2c0,1.3-0.4,2.4-1.2,3.2S88.9,30.3,87.6,30.3z M87.6,29c0.8,0,1.5-0.3,2-0.9
		c0.5-0.6,0.8-1.3,0.8-2.2c0-0.9-0.3-1.6-0.8-2.2c-0.5-0.6-1.2-0.9-2-0.9c-0.8,0-1.5,0.3-2,0.9c-0.5,0.6-0.8,1.3-0.8,2.2
		c0,0.9,0.3,1.6,0.8,2.2S86.7,29,87.6,29z"/>
	<path class="st0" d="M97,30.3c-0.9,0-1.7-0.3-2.3-0.9s-0.9-1.5-0.9-2.7v-5.1h1.6v4.8c0,0.8,0.2,1.5,0.6,1.9s0.9,0.6,1.5,0.6
		c0.6,0,1.1-0.2,1.5-0.6c0.4-0.4,0.6-1,0.6-1.8v-4.9h1.6v8.6H100l-0.2-1.1h-0.1C99,29.9,98.1,30.3,97,30.3z"/>
	<path class="st0" d="M109.5,27.9c0,0.7-0.3,1.3-0.9,1.8s-1.3,0.6-2.2,0.6c-1,0-1.8-0.3-2.4-0.8c-0.6-0.5-0.9-1.3-0.9-2.1h1.5
		c0,0.6,0.2,1,0.6,1.3s0.8,0.4,1.3,0.4c0.4,0,0.8-0.1,1.1-0.3c0.3-0.2,0.5-0.5,0.5-0.9c0-0.4-0.2-0.7-0.5-1
		c-0.3-0.2-0.8-0.4-1.5-0.6c-0.4-0.1-0.7-0.2-1-0.4c-0.3-0.1-0.6-0.3-0.8-0.5c-0.3-0.2-0.5-0.4-0.7-0.7c-0.2-0.3-0.2-0.6-0.2-1
		c0-0.7,0.3-1.3,0.8-1.8c0.6-0.4,1.3-0.7,2.1-0.7c0.9,0,1.6,0.2,2.2,0.7c0.5,0.5,0.8,1.1,0.8,1.8h-1.4c0-0.4-0.2-0.7-0.5-1
		s-0.7-0.4-1.2-0.4c-0.4,0-0.7,0.1-1,0.3c-0.3,0.2-0.4,0.5-0.4,0.8c0,0.4,0.1,0.6,0.4,0.9s0.8,0.4,1.4,0.6c0.9,0.3,1.6,0.6,2.1,1
		C109.3,26.7,109.5,27.2,109.5,27.9z"/>
	<path class="st0" d="M112.7,28.2c0.3,0,0.6,0.1,0.8,0.4c0.2,0.3,0.3,0.6,0.3,1c0,0.6-0.2,1.2-0.5,1.6c-0.3,0.5-0.7,0.8-1.2,1
		l-0.4-0.5c0.6-0.5,1-1,1-1.5c-0.3,0-0.5,0-0.7-0.2c-0.2-0.2-0.3-0.4-0.3-0.8c0-0.3,0.1-0.6,0.3-0.8
		C112.2,28.3,112.4,28.2,112.7,28.2z"/>
	<path class="st0" d="M43.1,35.9h1.5v12.2h-1.1l-0.3-1.2H43c-0.6,0.9-1.5,1.4-2.7,1.4c-1.1,0-2.1-0.4-2.8-1.2
		c-0.7-0.8-1.1-1.9-1.1-3.2c0-1.3,0.4-2.4,1.1-3.2c0.8-0.8,1.7-1.2,2.9-1.2c1.3,0,2.2,0.5,2.7,1.4V35.9z M38.6,46
		c0.5,0.6,1.1,0.9,1.9,0.9s1.4-0.3,1.9-0.9c0.5-0.6,0.7-1.3,0.7-2.2c0-0.9-0.2-1.7-0.7-2.2c-0.5-0.6-1.1-0.9-1.9-0.9
		c-0.8,0-1.4,0.3-1.9,0.9c-0.5,0.6-0.7,1.3-0.7,2.2C37.9,44.7,38.1,45.4,38.6,46z"/>
	<path class="st0" d="M48.5,37.9c-0.2,0.2-0.4,0.3-0.7,0.3s-0.5-0.1-0.7-0.3c-0.2-0.2-0.3-0.4-0.3-0.7c0-0.3,0.1-0.5,0.3-0.7
		s0.5-0.3,0.7-0.3s0.5,0.1,0.7,0.3s0.3,0.4,0.3,0.7C48.8,37.4,48.7,37.7,48.5,37.9z M48.5,39.5v8.6h-1.5v-8.6H48.5z"/>
	<path class="st0" d="M57.1,39.5h1.6l-3.1,8.6h-2.2l-3.1-8.6h1.6l2.5,7.2h0.2L57.1,39.5z"/>
	<path class="st0" d="M63.6,39.3c1.2,0,2.2,0.4,2.9,1.2c0.7,0.8,1.1,2,1,3.6H61c0.1,0.9,0.3,1.6,0.8,2.1s1.1,0.8,2,0.8
		c0.5,0,1-0.1,1.4-0.3c0.4-0.2,0.7-0.6,0.9-1h1.5c-0.2,0.9-0.7,1.5-1.4,2s-1.5,0.7-2.4,0.7c-1.3,0-2.3-0.4-3.1-1.2s-1.1-1.9-1.1-3.3
		c0-1.3,0.4-2.3,1.2-3.2C61.5,39.7,62.4,39.3,63.6,39.3z M61.1,43h5c0-0.7-0.3-1.2-0.7-1.7c-0.4-0.5-1-0.7-1.7-0.7
		c-0.7,0-1.3,0.2-1.7,0.6S61.2,42.2,61.1,43z"/>
	<path class="st0" d="M73.7,39.3h0.5v1.5c-0.2,0-0.4-0.1-0.7-0.1c-0.7,0-1.2,0.2-1.7,0.7s-0.7,1.2-0.7,2.1v4.5h-1.6v-8.6h1.2
		l0.2,1.2h0.1C71.8,39.8,72.6,39.3,73.7,39.3z"/>
	<path class="st0" d="M81.9,45.9c0,0.7-0.3,1.3-0.9,1.8s-1.3,0.6-2.2,0.6c-1,0-1.8-0.3-2.4-0.8c-0.6-0.5-0.9-1.3-0.9-2.1h1.5
		c0,0.6,0.2,1,0.6,1.3s0.8,0.4,1.3,0.4c0.4,0,0.8-0.1,1.1-0.3c0.3-0.2,0.5-0.5,0.5-0.9c0-0.4-0.2-0.7-0.5-1
		c-0.3-0.2-0.8-0.4-1.5-0.6c-0.4-0.1-0.7-0.2-1-0.4c-0.3-0.1-0.6-0.3-0.8-0.5c-0.3-0.2-0.5-0.4-0.7-0.7c-0.2-0.3-0.2-0.6-0.2-1
		c0-0.7,0.3-1.3,0.8-1.8c0.6-0.4,1.3-0.7,2.1-0.7c0.9,0,1.6,0.2,2.2,0.7c0.5,0.5,0.8,1.1,0.8,1.8h-1.4c0-0.4-0.2-0.7-0.5-1
		s-0.7-0.4-1.2-0.4c-0.4,0-0.7,0.1-1,0.3c-0.3,0.2-0.4,0.5-0.4,0.8c0,0.4,0.1,0.6,0.4,0.9s0.8,0.4,1.4,0.6c0.9,0.3,1.6,0.6,2.1,1
		C81.7,44.6,81.9,45.1,81.9,45.9z"/>
	<path class="st0" d="M87.6,39.3c1.2,0,2.2,0.4,2.9,1.2c0.7,0.8,1.1,2,1,3.6H85c0.1,0.9,0.3,1.6,0.8,2.1s1.1,0.8,2,0.8
		c0.5,0,1-0.1,1.4-0.3c0.4-0.2,0.7-0.6,0.9-1h1.5c-0.2,0.9-0.7,1.5-1.4,2s-1.5,0.7-2.4,0.7c-1.3,0-2.3-0.4-3.1-1.2s-1.1-1.9-1.1-3.3
		c0-1.3,0.4-2.3,1.2-3.2C85.4,39.7,86.4,39.3,87.6,39.3z M85,43h5c0-0.7-0.3-1.2-0.7-1.7c-0.4-0.5-1-0.7-1.7-0.7
		c-0.7,0-1.3,0.2-1.7,0.6S85.1,42.2,85,43z"/>
</g>
</svg>
