<?xml version="1.0" encoding="utf-8"?>
<!-- Generator: Adobe Illustrator 24.0.0, SVG Export Plug-In . SVG Version: 6.00 Build 0)  -->
<svg version="1.1" id="Laag_1" xmlns="http://www.w3.org/2000/svg" xmlns:xlink="http://www.w3.org/1999/xlink" x="0px" y="0px"
	 width="156.3px" height="18.7px" viewBox="0 0 156.3 18.7" style="enable-background:new 0 0 156.3 18.7;" xml:space="preserve">
<style type="text/css">
	.st0{fill:#FFFFFF;}
</style>
<g>
	<path class="st0" d="M15.2,5.7h6.2c1.7,0,2.7,0.9,2.7,2.2c0,1.2-0.9,1.8-2.3,1.9c1.6,0,2.6,0.7,2.6,2c0,1.3-1.1,2.2-2.7,2.2h-6.5
		V5.7z M21,9.3c0.9,0,1.4-0.3,1.4-1c0-0.8-0.5-1.1-1.4-1.1h-4.1l0,2.1H21z M21.2,12.7c0.9,0,1.4-0.3,1.4-1.1c0-0.8-0.5-1.1-1.4-1.1
		h-4.4l0,2.2H21.2z"/>
	<path class="st0" d="M25.9,5.7h7.9v1.4h-6.2v2h6.1v1.3h-6.1v2.2h6.2v1.4h-7.9V5.7z"/>
	<path class="st0" d="M35.2,11.4H37c0,0.9,1.1,1.4,2.8,1.4c2,0,3.1-0.4,3.1-1.2c0-2.2-7.4,0.3-7.4-3.5c0-1.7,1.8-2.7,4.4-2.7
		c2.7,0,4.6,1.1,4.6,2.9h-1.8c0-0.9-1.1-1.5-2.7-1.5c-1.8,0-2.8,0.4-2.8,1.1c0,2.1,7.4-0.3,7.4,3.6c0,1.7-1.9,2.7-4.7,2.7
		C37,14.3,35.2,13.1,35.2,11.4z"/>
	<path class="st0" d="M48.8,7.1h-4.1V5.7h9.9v1.4h-4.1v7h-1.7V7.1z"/>
	<path class="st0" d="M55.6,5.7h7.9v1.4h-6.2v2h6.1v1.3h-6.1v2.2h6.2v1.4h-7.9V5.7z"/>
	<path class="st0" d="M65.1,5.7h1.7v7h5.9v1.4h-7.6V5.7z"/>
	<path class="st0" d="M80.4,7.1h-4.1V5.7h9.9v1.4h-4.1v7h-1.7V7.1z"/>
	<path class="st0" d="M87.1,5.7h1.7v8.4h-1.7V5.7z"/>
	<path class="st0" d="M90.3,9.9c0-2.6,2-4.4,5.1-4.4c3,0,5.1,1.5,5.1,3.8h-1.7c-0.1-1.5-1.4-2.4-3.3-2.4c-2,0-3.4,1.1-3.4,3
		c0,1.9,1.3,3,3.4,3c1.9,0,3.3-0.9,3.3-2.4h1.7c0,2.3-2,3.9-5.1,3.9C92.4,14.3,90.3,12.5,90.3,9.9z"/>
	<path class="st0" d="M101.9,5.7h1.7v4.7l5.5-4.7h2.4l-3.7,3.2l4,5.2h-2.2l-3.2-4.1l-2.9,2.3v1.8h-1.7V5.7z"/>
	<path class="st0" d="M112.9,5.7h7.9v1.4h-6.2v2h6.1v1.3h-6.1v2.2h6.2v1.4h-7.9V5.7z"/>
	<path class="st0" d="M125.6,7.1h-4.1V5.7h9.9v1.4h-4.1v7h-1.7V7.1z"/>
	<path class="st0" d="M131.8,11.4h1.8c0,0.9,1.1,1.4,2.8,1.4c2,0,3.1-0.4,3.1-1.2c0-2.2-7.4,0.3-7.4-3.5c0-1.7,1.8-2.7,4.4-2.7
		c2.7,0,4.6,1.1,4.6,2.9h-1.8c0-0.9-1.1-1.5-2.7-1.5c-1.8,0-2.8,0.4-2.8,1.1c0,2.1,7.4-0.3,7.4,3.6c0,1.7-1.9,2.7-4.7,2.7
		C133.6,14.3,131.7,13.1,131.8,11.4z"/>
</g>
</svg>
