<?xml version="1.0" encoding="utf-8"?>
<!-- Generator: Adobe Illustrator 24.3.0, SVG Export Plug-In . SVG Version: 6.00 Build 0)  -->
<svg version="1.1" id="Laag_1" xmlns="http://www.w3.org/2000/svg" xmlns:xlink="http://www.w3.org/1999/xlink" x="0px" y="0px"
	 width="550.3px" height="52.8px" viewBox="0 0 550.3 52.8" style="enable-background:new 0 0 550.3 52.8;" xml:space="preserve">
<style type="text/css">
	.st0{fill:#FFFFFF;}
</style>
<g>
	<path class="st0" d="M28.1,3.3v37.6h15v10.6H15.5V3.3H28.1z"/>
	<path class="st0" d="M62.1,3.3v48.2H49.6V3.3H62.1z"/>
	<path class="st0" d="M80.8,3.3l11.6,29.4l11.7-29.4h13.6L97.4,51.5h-10L67.2,3.3H80.8z"/>
	<path class="st0" d="M150.2,13.9h-14.9v8.1h14.1v10.6h-14.1v8.3h14.9v10.6h-27.4V3.3h27.4V13.9z"/>
	<path class="st0" d="M215.7,19.4c-2.9-3.5-6.5-5.3-10.7-5.3c-1.9,0-3.6,0.3-5.2,1c-1.6,0.7-3,1.6-4.1,2.8c-1.2,1.2-2.1,2.6-2.7,4.2
		c-0.7,1.6-1,3.4-1,5.2c0,1.9,0.3,3.7,1,5.3c0.7,1.6,1.6,3,2.8,4.2c1.2,1.2,2.5,2.1,4.1,2.8c1.6,0.7,3.3,1,5.1,1
		c4,0,7.6-1.7,10.8-5.1v14.8l-1.3,0.4c-1.9,0.7-3.7,1.2-5.4,1.5c-1.7,0.3-3.3,0.5-4.9,0.5c-3.3,0-6.5-0.6-9.6-1.9
		c-3-1.3-5.7-3-8.1-5.3c-2.3-2.3-4.2-5-5.6-8.1c-1.4-3.1-2.1-6.6-2.1-10.3c0-3.7,0.7-7.1,2.1-10.2c1.4-3.1,3.2-5.8,5.6-8
		c2.3-2.2,5-4,8.1-5.2c3.1-1.3,6.3-1.9,9.7-1.9c1.9,0,3.8,0.2,5.7,0.6c1.9,0.4,3.8,1,5.9,1.9V19.4z"/>
	<path class="st0" d="M222.2,27.4c0-3.6,0.7-6.9,2-10c1.3-3.1,3.2-5.8,5.5-8.1c2.3-2.3,5.1-4.1,8.4-5.4c3.3-1.3,6.9-2,10.8-2
		c3.9,0,7.5,0.7,10.7,2c3.3,1.3,6.1,3.1,8.5,5.4s4.2,5,5.5,8.1c1.3,3.1,2,6.4,2,10c0,3.6-0.7,6.9-2,10c-1.3,3.1-3.2,5.8-5.5,8.1
		s-5.2,4.1-8.5,5.4c-3.3,1.3-6.9,2-10.7,2c-3.9,0-7.5-0.7-10.8-2c-3.3-1.3-6.1-3.1-8.4-5.4c-2.3-2.3-4.2-5-5.5-8.1
		C222.8,34.3,222.2,31,222.2,27.4z M235.3,27.4c0,1.9,0.4,3.7,1.1,5.3c0.7,1.6,1.7,3,2.9,4.2c1.2,1.2,2.7,2.1,4.3,2.8
		c1.6,0.7,3.4,1,5.2,1c1.8,0,3.6-0.3,5.2-1c1.6-0.7,3.1-1.6,4.3-2.8c1.3-1.2,2.2-2.6,3-4.2c0.7-1.6,1.1-3.4,1.1-5.3
		c0-1.9-0.4-3.7-1.1-5.3c-0.7-1.6-1.7-3-3-4.2c-1.3-1.2-2.7-2.1-4.3-2.8c-1.6-0.7-3.4-1-5.2-1c-1.8,0-3.6,0.3-5.2,1
		c-1.6,0.7-3.1,1.6-4.3,2.8c-1.2,1.2-2.2,2.6-2.9,4.2C235.6,23.7,235.3,25.5,235.3,27.4z"/>
	<path class="st0" d="M283.5,51.5V3.3H296l23.2,29.5V3.3h12.5v48.2h-12.5L296,22v29.5H283.5z"/>
	<path class="st0" d="M377.1,19.4c-2.9-3.5-6.5-5.3-10.7-5.3c-1.9,0-3.6,0.3-5.2,1c-1.6,0.7-3,1.6-4.1,2.8c-1.2,1.2-2.1,2.6-2.7,4.2
		c-0.7,1.6-1,3.4-1,5.2c0,1.9,0.3,3.7,1,5.3c0.7,1.6,1.6,3,2.8,4.2c1.2,1.2,2.5,2.1,4.1,2.8c1.6,0.7,3.3,1,5.1,1
		c4,0,7.6-1.7,10.8-5.1v14.8l-1.3,0.4c-1.9,0.7-3.7,1.2-5.4,1.5c-1.7,0.3-3.3,0.5-4.9,0.5c-3.3,0-6.5-0.6-9.6-1.9
		c-3-1.3-5.7-3-8.1-5.3c-2.3-2.3-4.2-5-5.6-8.1c-1.4-3.1-2.1-6.6-2.1-10.3c0-3.7,0.7-7.1,2.1-10.2c1.4-3.1,3.2-5.8,5.6-8
		c2.3-2.2,5-4,8.1-5.2c3.1-1.3,6.3-1.9,9.7-1.9c1.9,0,3.8,0.2,5.7,0.6c1.9,0.4,3.8,1,5.9,1.9V19.4z"/>
	<path class="st0" d="M412.5,13.9h-14.9v8.1h14.1v10.6h-14.1v8.3h14.9v10.6h-27.4V3.3h27.4V13.9z"/>
	<path class="st0" d="M461.6,51.5H446L434,33v18.5h-12.5V3.3H441c2.7,0,5,0.4,7,1.2c2,0.8,3.7,1.9,5,3.2c1.3,1.4,2.3,2.9,2.9,4.7
		c0.7,1.8,1,3.7,1,5.8c0,3.7-0.9,6.6-2.7,8.9c-1.8,2.3-4.4,3.8-7.8,4.6L461.6,51.5z M434,24.8h2.4c2.5,0,4.4-0.5,5.7-1.5
		c1.3-1,2-2.5,2-4.4c0-1.9-0.7-3.4-2-4.4c-1.3-1-3.2-1.5-5.7-1.5H434V24.8z"/>
	<path class="st0" d="M485.2,13.9v37.6h-12.5V13.9h-10.3V3.3h33.1v10.6H485.2z"/>
	<path class="st0" d="M527.6,15.6c-1.4-1.1-2.7-1.9-4.1-2.5c-1.4-0.5-2.7-0.8-4-0.8c-1.6,0-2.9,0.4-4,1.2c-1,0.8-1.5,1.8-1.5,3
		c0,0.9,0.3,1.6,0.8,2.1c0.5,0.6,1.2,1,2,1.4c0.8,0.4,1.8,0.8,2.8,1.1c1,0.3,2.1,0.6,3.1,1c4.1,1.4,7.1,3.2,9,5.5
		c1.9,2.3,2.8,5.3,2.8,8.9c0,2.5-0.4,4.7-1.2,6.7c-0.8,2-2,3.7-3.6,5.1c-1.6,1.4-3.6,2.5-5.9,3.3c-2.3,0.8-5,1.2-7.9,1.2
		c-6.1,0-11.7-1.8-16.9-5.4l5.4-10.1c1.9,1.7,3.7,2.9,5.6,3.7c1.8,0.8,3.6,1.2,5.4,1.2c2,0,3.6-0.5,4.6-1.4c1-0.9,1.5-2,1.5-3.2
		c0-0.7-0.1-1.4-0.4-1.9c-0.3-0.5-0.7-1-1.3-1.5c-0.6-0.4-1.4-0.9-2.3-1.2c-1-0.4-2.1-0.8-3.5-1.3c-1.6-0.5-3.2-1.1-4.8-1.7
		c-1.6-0.6-2.9-1.4-4.2-2.5c-1.2-1-2.2-2.3-2.9-3.9c-0.7-1.6-1.1-3.5-1.1-5.9c0-2.4,0.4-4.6,1.2-6.5c0.8-1.9,1.9-3.6,3.3-5
		c1.4-1.4,3.2-2.5,5.2-3.2c2.1-0.8,4.4-1.2,6.9-1.2c2.4,0,4.9,0.3,7.5,1c2.6,0.7,5.1,1.6,7.5,2.9L527.6,15.6z"/>
</g>
</svg>
