<?xml version="1.0" encoding="utf-8"?>
<!-- Generator: Adobe Illustrator 24.3.0, SVG Export Plug-In . SVG Version: 6.00 Build 0)  -->
<svg version="1.1" id="Laag_1" xmlns="http://www.w3.org/2000/svg" xmlns:xlink="http://www.w3.org/1999/xlink" x="0px" y="0px"
	 width="307px" height="18.4px" viewBox="0 0 307 18.4" style="enable-background:new 0 0 307 18.4;" xml:space="preserve">
<style type="text/css">
	.st0{fill:#EBEEE2;}
</style>
<g>
	<g>
		<g>
			<g>
				<path class="st0" d="M217.1,14c-1,0-1.8-0.3-2.5-1s-1-1.6-1-2.6s0.3-1.9,1-2.6s1.5-1,2.5-1s1.8,0.3,2.5,1s1,1.6,1,2.6
					s-0.3,1.9-1,2.6C219,13.7,218.1,14,217.1,14z M217.1,13.1c0.7,0,1.3-0.3,1.8-0.8s0.7-1.2,0.7-1.9c0-0.8-0.2-1.4-0.7-1.9
					s-1.1-0.8-1.8-0.8s-1.3,0.3-1.8,0.8s-0.7,1.2-0.7,1.9c0,0.8,0.2,1.4,0.7,1.9C215.8,12.9,216.4,13.1,217.1,13.1z"/>
				<path class="st0" d="M226.2,13.9l-0.6-1.8h-2.9l-0.6,1.8h-1l2.4-7h1.2l2.4,7H226.2z M223,11.3h2.3l-1.1-3.4h-0.1L223,11.3z"/>
				<path class="st0" d="M232.8,12.2c0,0.6-0.2,1.1-0.6,1.4c-0.4,0.3-1,0.5-1.7,0.5c-0.8,0-1.4-0.2-1.9-0.6c-0.4-0.4-0.7-1-0.7-1.6
					h0.9c0,0.4,0.2,0.8,0.4,1s0.7,0.4,1.2,0.4c0.4,0,0.7-0.1,1-0.3s0.4-0.4,0.4-0.8c0-0.3-0.1-0.6-0.4-0.8s-0.7-0.4-1.3-0.6
					c-0.7-0.2-1.2-0.5-1.5-0.8c-0.4-0.3-0.5-0.7-0.5-1.2c0-0.6,0.2-1.1,0.6-1.4s0.9-0.5,1.6-0.5c0.7,0,1.3,0.2,1.7,0.6
					s0.6,0.9,0.6,1.5h-0.9c0-0.3-0.2-0.6-0.4-0.9s-0.6-0.4-1.1-0.4c-0.4,0-0.7,0.1-0.9,0.3S229,8.4,229,8.8c0,0.3,0.1,0.6,0.4,0.7
					c0.2,0.2,0.6,0.4,1.2,0.6c0.7,0.2,1.3,0.5,1.6,0.9C232.6,11.2,232.8,11.6,232.8,12.2z"/>
				<path class="st0" d="M235.1,13.1h3.6V14h-4.5V7h4.4v0.9h-3.5v2.2h3.1v0.8h-3.1V13.1z"/>
				<path class="st0" d="M247.6,13.9h-1l-1.7-2.9l0,0h-1.4v2.9h-0.9v-7h2.4c0.7,0,1.3,0.2,1.7,0.6s0.6,0.9,0.6,1.5
					c0,0.5-0.1,0.9-0.4,1.2s-0.6,0.6-1.1,0.7L247.6,13.9z M243.5,7.7v2.5h1.4c0.5,0,0.8-0.1,1.1-0.3s0.4-0.5,0.4-0.9
					s-0.1-0.7-0.4-0.9c-0.3-0.2-0.6-0.3-1.1-0.3h-1.4V7.7z"/>
				<path class="st0" d="M251.8,14c-1,0-1.8-0.3-2.5-1s-1-1.6-1-2.6s0.3-1.9,1-2.6s1.5-1,2.5-1s1.8,0.3,2.5,1s1,1.6,1,2.6
					s-0.3,1.9-1,2.6C253.6,13.7,252.8,14,251.8,14z M251.8,13.1c0.7,0,1.3-0.3,1.8-0.8s0.7-1.2,0.7-1.9c0-0.8-0.2-1.4-0.7-1.9
					s-1.1-0.8-1.8-0.8S250.5,8,250,8.5s-0.7,1.2-0.7,1.9c0,0.8,0.2,1.4,0.7,1.9C250.5,12.9,251.1,13.1,251.8,13.1z"/>
				<path class="st0" d="M260.8,6.9v0.8h-2v6.2h-0.9V7.7h-2V6.9H260.8z"/>
				<path class="st0" d="M266.7,6.9v0.8h-2v6.2h-0.9V7.7h-2V6.9H266.7z"/>
				<path class="st0" d="M268.8,13.1h3.6V14h-4.5V7h4.4v0.9h-3.5v2.2h3.1v0.8h-3.1V13.1z"/>
				<path class="st0" d="M278.5,13.9h-1l-1.7-2.9l0,0h-1.4v2.9h-0.9v-7h2.4c0.7,0,1.3,0.2,1.7,0.6s0.6,0.9,0.6,1.5
					c0,0.5-0.1,0.9-0.4,1.2s-0.6,0.6-1.1,0.7L278.5,13.9z M274.5,7.7v2.5h1.4c0.5,0,0.8-0.1,1.1-0.3c0.3-0.2,0.4-0.5,0.4-0.9
					s-0.1-0.7-0.4-0.9s-0.6-0.3-1.1-0.3h-1.4V7.7z"/>
				<path class="st0" d="M281.7,6.9c1.1,0,2,0.3,2.6,0.9s0.9,1.5,0.9,2.5c0,1.1-0.3,2-0.9,2.6s-1.5,1-2.6,1h-2.1v-7
					C279.6,6.9,281.7,6.9,281.7,6.9z M281.7,13c0.9,0,1.5-0.2,1.9-0.7s0.6-1.1,0.6-2c0-0.8-0.2-1.4-0.7-1.9s-1.1-0.7-1.9-0.7h-1.1
					V13H281.7z"/>
				<path class="st0" d="M290.9,13.9l-0.6-1.8h-2.9l-0.6,1.8h-1l2.4-7h1.2l2.4,7H290.9z M287.7,11.3h2.3l-1.1-3.4h-0.1L287.7,11.3z"
					/>
				<path class="st0" d="M300,6.9v7h-0.9V8.3H299l-2.1,5.1h-1l-2.1-5.1h-0.1V14h-0.9V7h1.3l2.2,5.3h0.1l2.2-5.3L300,6.9L300,6.9z"/>
			</g>
		</g>
		<g>
			<path class="st0" d="M206.4,15.6l-0.3-0.3c-0.4-0.4-3.5-3.9-3.5-5.9c0-2.1,1.7-3.8,3.8-3.8s3.8,1.7,3.8,3.8c0,2-3.2,5.5-3.5,5.9
				L206.4,15.6z M206.4,6.4c-1.7,0-3.1,1.4-3.1,3.1c0,1.3,2,3.9,3.1,5.1c1.1-1.2,3.1-3.8,3.1-5.1C209.4,7.8,208.1,6.4,206.4,6.4z"/>
			<path class="st0" d="M206.4,8.7c0.3,0,0.6,0.3,0.6,0.6s-0.3,0.6-0.6,0.6s-0.6-0.3-0.6-0.6C205.8,9,206,8.7,206.4,8.7 M206.4,8
				c-0.7,0-1.3,0.6-1.3,1.3s0.6,1.3,1.3,1.3s1.3-0.6,1.3-1.3S207.1,8,206.4,8L206.4,8z"/>
		</g>
	</g>
	<g>
		<g>
			<path class="st0" d="M4.6-0.2h0.9v7.5H4.8L4.7,6.6H4.5c-0.4,0.6-1,0.9-1.7,0.9c-0.7,0-1.3-0.3-1.7-0.8c-0.5-0.5-0.7-1.2-0.7-2
				s0.2-1.5,0.7-2C1.6,2.2,2.2,2,2.9,2c0.8,0,1.3,0.3,1.7,0.9V-0.2z M1.8,6.1C2.1,6.4,2.5,6.6,3,6.6c0.5,0,0.9-0.2,1.1-0.5
				s0.4-0.8,0.4-1.4c0-0.6-0.1-1-0.4-1.4S3.5,2.8,3,2.8C2.5,2.8,2.1,3,1.8,3.3C1.5,3.7,1.4,4.2,1.4,4.7S1.5,5.7,1.8,6.1z"/>
			<path class="st0" d="M8.9,7.5C8.1,7.5,7.5,7.2,7,6.7s-0.8-1.2-0.8-2c0-0.8,0.3-1.4,0.8-2C7.5,2.2,8.1,2,8.9,2s1.4,0.3,1.9,0.8
				c0.5,0.5,0.8,1.2,0.8,2c0,0.8-0.3,1.5-0.8,2C10.3,7.2,9.7,7.5,8.9,7.5z M8.9,6.6c0.5,0,0.9-0.2,1.3-0.6s0.5-0.8,0.5-1.4
				c0-0.5-0.2-1-0.5-1.4C9.8,3,9.4,2.8,8.9,2.8C8.4,2.8,7.9,3,7.6,3.4C7.3,3.7,7.1,4.2,7.1,4.7c0,0.5,0.2,1,0.5,1.4
				C7.9,6.4,8.4,6.6,8.9,6.6z"/>
			<path class="st0" d="M15.7,7.4V2.4h-1.3V1.7H15c0.5,0,0.8-0.2,0.8-0.8V0.6h0.9v6.8H15.7z"/>
			<path class="st0" d="M22.2,6.6c-0.4,0.6-1.1,0.9-1.8,0.9c-0.8,0-1.4-0.3-1.8-0.9S17.9,5.1,17.9,4c0-1.1,0.2-2,0.7-2.6
				s1.1-0.9,1.8-0.9c0.8,0,1.4,0.3,1.8,0.9C22.6,2,22.9,2.8,22.9,4C22.9,5.1,22.6,6,22.2,6.6z M19.3,5.9c0.3,0.4,0.6,0.7,1.1,0.7
				c0.4,0,0.8-0.2,1.1-0.7c0.3-0.4,0.4-1.1,0.4-1.9S21.7,2.5,21.4,2c-0.3-0.4-0.6-0.7-1.1-0.7c-0.4,0-0.8,0.2-1.1,0.7
				c-0.3,0.4-0.4,1.1-0.4,1.9C18.9,4.8,19.1,5.5,19.3,5.9z"/>
			<path class="st0" d="M2.2,11.3V12h1.3v0.8H2.2v4.5H1.3v-4.5H0.3V12h0.9v-0.8c0-0.5,0.1-0.8,0.4-1.1c0.3-0.3,0.6-0.4,1-0.4
				c0.5,0,0.8,0.1,1.1,0.4l-0.3,0.7c-0.2-0.2-0.4-0.3-0.6-0.3c-0.2,0-0.3,0.1-0.4,0.2S2.2,11.1,2.2,11.3z"/>
			<path class="st0" d="M6.1,11.9c0.7,0,1.3,0.3,1.8,0.8c0.5,0.5,0.7,1.2,0.6,2.2h-4c0,0.5,0.2,1,0.5,1.3c0.3,0.3,0.7,0.5,1.2,0.5
				c0.3,0,0.6-0.1,0.9-0.2c0.2-0.1,0.4-0.3,0.6-0.6h0.9c-0.1,0.5-0.4,0.9-0.8,1.2c-0.4,0.3-0.9,0.4-1.5,0.4c-0.8,0-1.4-0.3-1.9-0.8
				s-0.7-1.2-0.7-2c0-0.8,0.2-1.4,0.7-2C4.8,12.1,5.4,11.9,6.1,11.9z M4.6,14.1h3.1c0-0.4-0.2-0.8-0.4-1c-0.3-0.3-0.6-0.4-1.1-0.4
				c-0.4,0-0.8,0.1-1.1,0.4C4.8,13.3,4.6,13.7,4.6,14.1z"/>
			<path class="st0" d="M11.8,11.9c0.7,0,1.3,0.3,1.8,0.8c0.5,0.5,0.7,1.2,0.7,2s-0.2,1.5-0.7,2c-0.5,0.5-1,0.8-1.7,0.8
				c-0.7,0-1.3-0.3-1.7-0.9h-0.1l-0.2,0.8H9.2V9.8h0.9v3C10.5,12.2,11,11.9,11.8,11.9z M10.6,16c0.3,0.4,0.7,0.5,1.1,0.5
				c0.5,0,0.9-0.2,1.2-0.5c0.3-0.4,0.5-0.8,0.5-1.4s-0.2-1-0.4-1.4c-0.3-0.4-0.7-0.5-1.2-0.5c-0.5,0-0.9,0.2-1.1,0.5
				c-0.3,0.3-0.4,0.8-0.4,1.4C10.2,15.2,10.3,15.7,10.6,16z"/>
		</g>
		<g>
			<path class="st0" d="M165.4,6.6h2.7v0.8h-4V6.8l2.7-3.8V2.9h-2.5V2.1h3.8v0.6L165.4,6.6L165.4,6.6z"/>
			<path class="st0" d="M173.4,6.5l0.3,0.6c-0.1,0.1-0.2,0.2-0.3,0.3c-0.1,0.1-0.3,0.1-0.5,0.1c-0.3,0-0.5-0.1-0.7-0.2
				C172.1,7.2,172,7,172,6.7c-0.5,0.5-1,0.8-1.8,0.8c-0.5,0-0.9-0.1-1.3-0.4c-0.3-0.3-0.5-0.6-0.5-1.1c0-0.5,0.2-0.9,0.6-1.2
				s1-0.5,1.8-0.5l1-0.1V4.1c0-0.4-0.1-0.7-0.3-1c-0.2-0.2-0.5-0.4-0.8-0.4c-0.4,0-0.6,0.1-0.8,0.3c-0.2,0.2-0.3,0.4-0.3,0.7h-0.9
				c0-0.5,0.2-0.9,0.6-1.3c0.4-0.3,0.8-0.5,1.4-0.5c0.6,0,1.1,0.2,1.5,0.6s0.6,0.9,0.6,1.5v2.1c0,0.4,0.1,0.6,0.3,0.6
				C173.2,6.7,173.3,6.7,173.4,6.5z M170.3,6.7c0.4,0,0.8-0.1,1.1-0.4c0.3-0.3,0.5-0.6,0.5-1.1V4.9L171,5c-0.5,0-0.9,0.2-1.2,0.3
				c-0.3,0.2-0.4,0.4-0.4,0.7c0,0.3,0.1,0.4,0.3,0.6S170,6.7,170.3,6.7z"/>
			<path class="st0" d="M178.5,3c0.7,0,1.2,0.2,1.6,0.6c0.4,0.4,0.6,1,0.6,1.7c0,0.7-0.2,1.2-0.7,1.6c-0.4,0.4-1,0.6-1.7,0.6
				c-0.7,0-1.3-0.2-1.7-0.6c-0.4-0.4-0.6-0.9-0.6-1.5h0.9c0,0.4,0.2,0.7,0.4,1s0.5,0.4,0.9,0.4c0.4,0,0.7-0.1,1-0.4
				c0.3-0.3,0.4-0.6,0.4-1c0-0.4-0.1-0.8-0.4-1.1s-0.6-0.4-1-0.4c-0.6,0-1.1,0.2-1.4,0.7l-0.8-0.2l0.4-3.6h3.8v0.9h-3l-0.2,1.9
				C177.5,3.1,178,3,178.5,3z"/>
			<path class="st0" d="M171.9,12c0.6,0,1,0.2,1.3,0.5s0.5,0.9,0.5,1.6v3.2h-1v-3.2c0-0.4-0.1-0.8-0.3-1c-0.2-0.2-0.5-0.3-0.8-0.3
				c-0.3,0-0.6,0.1-0.8,0.4c-0.2,0.2-0.3,0.6-0.3,1v3.1h-1v-3.1c0-0.5-0.1-0.8-0.3-1.1s-0.5-0.4-0.8-0.4c-0.3,0-0.6,0.1-0.8,0.4
				s-0.4,0.6-0.4,1v3.2h-1v-5.3h0.7l0.1,0.7h0.1c0.1-0.2,0.3-0.4,0.6-0.5c0.3-0.1,0.5-0.2,0.9-0.2c0.4,0,0.7,0.1,1,0.3
				s0.4,0.4,0.5,0.7h0.1c0.1-0.3,0.3-0.5,0.6-0.7C171.2,12.1,171.5,12,171.9,12z"/>
			<path class="st0" d="M177.1,11.9h0.3v1c-0.1,0-0.2,0-0.4,0c-0.4,0-0.8,0.1-1,0.4c-0.3,0.3-0.4,0.7-0.4,1.3v2.7h-1v-5.3h0.7
				l0.1,0.7h0.1C175.9,12.2,176.4,11.9,177.1,11.9z"/>
			<path class="st0" d="M180.9,17.2c-0.3,0.2-0.5,0.2-0.9,0.2c-0.9,0-1.3-0.5-1.3-1.4v-3.2h-1v-0.7h0.3c0.5,0,0.8-0.2,0.8-0.7v-0.7
				h0.8v1.3h1.3v0.8h-1.3v3.1c0,0.4,0.2,0.7,0.5,0.7c0.2,0,0.3,0,0.5-0.1L180.9,17.2z"/>
		</g>
		<rect x="30.6" y="8.2" class="st0" width="124" height="0.5"/>
	</g>
</g>
</svg>
