<?xml version="1.0" encoding="utf-8"?>
<!-- Generator: Adobe Illustrator 24.3.0, SVG Export Plug-In . SVG Version: 6.00 Build 0)  -->
<svg version="1.1" id="Laag_1" xmlns="http://www.w3.org/2000/svg" xmlns:xlink="http://www.w3.org/1999/xlink" x="0px" y="0px"
	 width="113.3px" height="11.8px" viewBox="0 0 113.3 11.8" style="enable-background:new 0 0 113.3 11.8;" xml:space="preserve">
<style type="text/css">
	.st0{fill:#EBEEE2;}
</style>
<g>
	<path class="st0" d="M12.5,0H14l-2.4,11.6H9.4L7.1,2.9H6.9l-2.3,8.7H2.4L0,0h1.5l2,9.8h0.1l2.4-9h2l2.4,9h0.1L12.5,0z"/>
	<path class="st0" d="M24.7,0v7.1c0,1.5-0.4,2.7-1.3,3.5s-1.9,1.2-3.2,1.2c-1.3,0-2.4-0.4-3.3-1.2c-0.9-0.8-1.3-2-1.3-3.5V0h1.6v7
		c0,1.1,0.3,1.9,0.8,2.4c0.6,0.6,1.3,0.9,2.1,0.9c0.9,0,1.6-0.3,2.1-0.9c0.5-0.6,0.8-1.4,0.8-2.4V0H24.7z"/>
	<path class="st0" d="M35.2,0h1.5v11.6H35l-6.1-9h-0.1v9h-1.5V0H29l6,9h0.2V0z"/>
	<path class="st0" d="M42.7,0C44.6,0,46,0.5,47,1.6c1,1,1.5,2.4,1.5,4.2c0,1.8-0.5,3.3-1.5,4.3c-1,1.1-2.4,1.6-4.3,1.6h-3.4V0H42.7z
		 M42.7,10.2c1.4,0,2.5-0.4,3.2-1.2s1.1-1.9,1.1-3.3c0-1.3-0.4-2.3-1.1-3.1c-0.7-0.8-1.8-1.2-3.2-1.2h-1.8v8.8H42.7z"/>
	<path class="st0" d="M52.1,10.2h6v1.4h-7.5V0H58v1.4h-5.9v3.6h5.2v1.4h-5.2V10.2z"/>
	<path class="st0" d="M68.2,11.6h-1.7l-2.8-4.8h0h-2.3v4.8h-1.5V0h3.9c1.2,0,2.1,0.3,2.8,0.9c0.7,0.6,1,1.4,1,2.5
		c0,0.8-0.2,1.4-0.6,2c-0.4,0.6-1,1-1.8,1.2L68.2,11.6z M61.4,1.4v4.1h2.3c0.8,0,1.4-0.2,1.8-0.6c0.4-0.4,0.6-0.9,0.6-1.5
		c0-0.6-0.2-1.1-0.6-1.5c-0.4-0.3-1-0.5-1.8-0.5H61.4z"/>
	<path class="st0" d="M75.6,5.5C77.1,6,77.8,7,77.8,8.5c0,1-0.4,1.8-1.1,2.4c-0.7,0.5-1.6,0.8-2.7,0.8H70V0h3.7c1.1,0,2,0.3,2.6,0.8
		c0.7,0.5,1,1.2,1,2.2c0,1.2-0.6,2.1-1.7,2.5V5.5z M71.4,1.3V5h2.2c0.7,0,1.3-0.2,1.6-0.5c0.4-0.3,0.6-0.8,0.6-1.4
		c0-0.6-0.2-1-0.6-1.3s-0.9-0.5-1.5-0.5H71.4z M73.8,10.3c0.7,0,1.3-0.2,1.8-0.5C76,9.5,76.3,9,76.3,8.3c0-0.6-0.2-1.1-0.6-1.5
		c-0.4-0.4-1-0.6-1.7-0.6h-2.5v4.1H73.8z"/>
	<path class="st0" d="M87.1,11.6l-1-3h-4.7l-1,3h-1.6l4-11.6h2l4,11.6H87.1z M81.8,7.3h3.8l-1.8-5.6h-0.1L81.8,7.3z"/>
	<path class="st0" d="M99,0v7.1c0,1.5-0.4,2.7-1.3,3.5s-1.9,1.2-3.2,1.2c-1.3,0-2.4-0.4-3.3-1.2c-0.9-0.8-1.3-2-1.3-3.5V0h1.6v7
		c0,1.1,0.3,1.9,0.8,2.4c0.6,0.6,1.3,0.9,2.1,0.9c0.9,0,1.6-0.3,2.1-0.9c0.5-0.6,0.8-1.4,0.8-2.4V0H99z"/>
	<path class="st0" d="M113.3,0v11.6h-1.5V2.3h-0.1l-3.4,8.3h-1.6l-3.4-8.3H103v9.3h-1.5V0h2.2l3.6,8.8h0.1l3.6-8.8H113.3z"/>
</g>
</svg>
