<?xml version="1.0" encoding="utf-8"?>
<!-- Generator: Adobe Illustrator 24.3.0, SVG Export Plug-In . SVG Version: 6.00 Build 0)  -->
<svg version="1.1" id="Laag_1" xmlns="http://www.w3.org/2000/svg" xmlns:xlink="http://www.w3.org/1999/xlink" x="0px" y="0px"
	 width="538.3px" height="440.9px" viewBox="0 0 538.3 440.9" style="enable-background:new 0 0 538.3 440.9;" xml:space="preserve"
	>
<style type="text/css">
	.st0{fill:#FFFFFF;}
</style>
<path class="st0" d="M317.1,45.5c8,0,14.7,5.3,15.4,12.3h-32.1C302.4,50.8,307.7,45.5,317.1,45.5 M345.2,69.5l1.3-4
	c0-19.4-13.4-32.1-29.4-32.1c-17.4,0-30.8,13.4-30.8,32.8c0,19.4,14,32.8,30.8,32.8c12.7,0,22.1-6.7,27.4-16l-11.2-5.3
	c-2,5.3-7.5,9.4-15.5,9.4c-11.4,0-18-8-18-17.4H345.2z M228.8,13.4c22.1,0,35.4,13.4,35.4,35.4c0,22.1-13.4,35.4-35.4,35.4h-8.7
	V13.4H228.8z M206.1,97.6h22.1c28.7,0,50.1-20.1,50.1-48.8c0-28.7-21.4-48.8-50.1-48.8h-22.1V97.6z"/>
<path class="st0" d="M388.6,244.3h17.8v-50.6c0.4-10.3,9.1-18.9,19.6-18.9c11.8,0,17.3,6.4,17.8,17.8v51.7h17.8v-51.7
	c0-19.6-12.5-33.9-33.9-33.9c-7.1,0-16,3.6-19.6,8.9l-0.9,0.9l-0.9-0.9l-1.8-7.1h-16V244.3z M334.3,174.7c10.7,0,19.6,7.1,20.5,16.4
	H312C314.6,181.9,321.8,174.7,334.3,174.7 M371.7,206.8l1.8-5.3c0-25.9-17.8-42.8-39.2-42.8c-23.2,0-41,17.8-41,43.7
	c0,25.8,18.7,43.7,41,43.7c16.9,0,29.4-8.9,36.5-21.4l-15-7.1c-2.7,7.1-10,12.5-20.7,12.5c-15.2,0-24.1-10.7-24.1-23.2H371.7z
	 M231.8,176.5H248v42.8c0,16,9.6,25,27.5,25l9.8-1.8v-16l-10.7,1.8c-5.3,0-9.1-3.6-9.1-8.9v-42.8h18v-16h-18v-35.7h-3.4L248,142.7
	v17.8h-16.2V176.5z M201.4,144.4h17.8v-19.6h-17.8V144.4z M201.6,244.3h17.5v-83.8h-17.5V244.3z M180.1,160.5h-17.8v50.8
	c-0.5,10.3-9.3,18.7-19.6,18.7c-11.9,0-17.5-6.4-17.8-17.8v-51.7H107v51.7c0,19.6,12.5,33.9,33.9,33.9c7.1,0,16-3.6,19.6-8.9
	l0.9-0.9l0.9,0.9l1.8,7.1h16V160.5z M18.7,169.4V132h28.5c10.7,0,21.4,5.3,21.4,18.7c0,13.4-10.7,18.7-21.4,18.7H18.7z M18.7,226.4
	v-39.2H49c10.7,0,21.4,5.3,21.4,19.6c0,12.5-10.7,19.6-21.4,19.6H18.7z M0,244.3h48.1c23.2,0,41-14.3,41-36.5
	c0-14.3-7-24.6-17.6-30.1c9.6-5.9,15.9-15.9,15.9-27.8c0-21.4-17.8-35.7-41-35.7H0V244.3z"/>
<path class="st0" d="M465.2,401.3h17.8v-50.6c0.4-10.3,9.1-18.9,19.6-18.9c11.8,0,17.3,6.4,17.8,17.8v51.7h17.8v-51.7
	c0-19.6-12.5-33.9-33.9-33.9c-7.1,0-16,3.6-19.6,8.9l-0.9,0.9l-0.9-0.9l-1.8-7.1h-16V401.3z M410.9,331.8c10.7,0,19.6,7.1,20.5,16.4
	h-42.8C391.3,338.9,398.4,331.8,410.9,331.8 M448.3,363.8l1.8-5.3c0-25.8-17.8-42.8-39.2-42.8c-23.2,0-41,17.8-41,43.7
	s18.7,43.7,41,43.7c16.9,0,29.4-8.9,36.5-21.4l-15-7.1c-2.7,7.1-10,12.5-20.7,12.5c-15.2,0-24.1-10.7-24.1-23.2H448.3z M353.8,265.8
	H336v119.4l1.8,16h17.8l-1.8-16V265.8z M281.6,331.8c10.7,0,19.6,7.1,20.5,16.4h-42.8C262,338.9,269.2,331.8,281.6,331.8
	 M319.1,363.8l1.8-5.3c0-25.8-17.8-42.8-39.2-42.8c-23.2,0-41,17.8-41,43.7s18.7,43.7,41,43.7c16.9,0,29.4-8.9,36.5-21.4l-15-7.1
	c-2.7,7.1-10,12.5-20.7,12.5c-15.2,0-24.1-10.7-24.1-23.2H319.1z M160.4,359.4c0-15.2,10.7-27.6,25.8-27.6
	c16.9,0,25.9,12.5,25.9,27.6c0,15.2-8.9,27.6-25.9,27.6C171.1,387,160.4,374.5,160.4,359.4 M144.4,439.1H162v-44.9l1.1-0.9l0.9,0.9
	c5.3,5.3,14.4,8.9,23.2,8.9c23.2,0,42.8-17.8,42.8-43.7s-19.6-43.7-42.8-43.7c-8.9,0-17.8,3.6-23.2,8.9l-0.9,0.9l-1.1-0.9l-1.6-7.1
	h-16V439.1z M121.2,305c0-21.4-18.7-37.1-41.9-37.1c-22.5,0-40.1,14.8-40.1,35.3c0,22.3,15.2,33.9,32.1,39c4.5,1.4,10,2.9,14.3,3.7
	c8.9,1.8,20.5,6.2,20.5,19.6c0,12.5-9.8,20.9-25,20.9c-13.4,0-27.1-10.3-26.7-28l-18.7,7.1c0.4,20,21.2,38.9,45.5,38.9
	c27.6,0,43.7-19.3,43.7-38.9c0-22.3-14.3-33.3-32.1-37.6c-4.6-1.1-9.4-2.1-14.3-3.4c-14.3-3.7-20.5-10.7-20.5-20.5
	c0-10.7,8.2-18.7,21.4-18.7c12.5,0,22.3,8.9,22.3,19.6H121.2z"/>
</svg>
