<?xml version="1.0" encoding="utf-8"?>
<!-- Generator: Adobe Illustrator 24.3.0, SVG Export Plug-In . SVG Version: 6.00 Build 0)  -->
<svg version="1.1" id="Laag_1" xmlns="http://www.w3.org/2000/svg" xmlns:xlink="http://www.w3.org/1999/xlink" x="0px" y="0px"
	 width="111.2px" height="10.2px" viewBox="0 0 111.2 10.2" style="enable-background:new 0 0 111.2 10.2;" xml:space="preserve">
<style type="text/css">
	.st0{fill:#FFFFFF;}
</style>
<g>
	<path class="st0" d="M0,1.3V1c0-0.4,0.1-0.7,0.3-1l0.3,0.1c0,0.2-0.1,0.4-0.1,0.7c0.2,0,0.3,0.1,0.3,0.3v0.3c0,0.2-0.1,0.3-0.3,0.3
		H0.3C0.1,1.6,0,1.6,0,1.3z M1.1,1.3V1c0-0.4,0.1-0.7,0.3-1l0.3,0.1C1.6,0.3,1.6,0.5,1.6,0.8c0.2,0,0.3,0.1,0.3,0.3v0.3
		c0,0.2-0.1,0.3-0.3,0.3H1.4C1.2,1.6,1.1,1.6,1.1,1.3z"/>
	<path class="st0" d="M7.1,0.5l0.2,3.8H6.4L6.2,0.9H6.1L5.5,3.5c0,0.2-0.2,0.3-0.4,0.3H4.5c-0.2,0-0.3-0.1-0.4-0.3L3.5,0.9H3.4
		L3.3,4.3H2.4l0.1-3.8c0-0.2,0.1-0.3,0.3-0.3h0.9c0.2,0,0.3,0.1,0.4,0.3l0.5,2.1c0,0.2,0.1,0.4,0.1,0.6h0.1c0-0.2,0.1-0.4,0.1-0.6
		l0.5-2.1c0-0.2,0.2-0.3,0.4-0.3h0.9C6.9,0.2,7.1,0.3,7.1,0.5z"/>
	<path class="st0" d="M11.4,2.3c0,1.7-0.5,2.1-1.8,2.1S7.8,3.9,7.8,2.3c0-1.7,0.5-2.1,1.8-2.1S11.4,0.6,11.4,2.3z M8.8,2.3
		c0,1.1,0.2,1.4,0.8,1.4s0.8-0.3,0.8-1.4s-0.2-1.4-0.8-1.4S8.8,1.2,8.8,2.3z"/>
	<path class="st0" d="M13.3,2.5h-0.4c0,0.1,0,0.3,0,0.4v1.4H12V0.2h0.9v1.2c0,0.2,0,0.3,0,0.5h0.3l1.1-1.7h1l-1.1,1.6
		C14.1,2,14,2.1,13.9,2.2l0,0c0.1,0.1,0.3,0.2,0.3,0.4l1.1,1.8h-1L13.3,2.5z"/>
	<path class="st0" d="M18.5,3.6v0.7c-0.5,0-1.3,0-1.9,0S15.7,4,15.7,3.5V1c0-0.5,0.4-0.8,0.9-0.8c0.6,0,1.3,0,1.9,0v0.7h-1.6
		c-0.2,0-0.3,0.1-0.3,0.3v0.6h1.6v0.7h-1.6v0.8c0,0.2,0.1,0.3,0.3,0.3H18.5z"/>
	<path class="st0" d="M22.4,4.3h-1L21.1,3c-0.1-0.3-0.2-0.3-0.4-0.3H20v1.6h-0.9V0.2c0.5,0,0.8-0.1,1.6-0.1c1.1,0,1.5,0.3,1.5,1.2
		c0,0.6-0.2,1-0.8,1l0,0C21.7,2.5,22,2.6,22,3L22.4,4.3z M21.3,1.4c0-0.5-0.1-0.6-0.6-0.6c-0.2,0-0.5,0-0.7,0V2h0.7
		C21.2,2,21.3,1.9,21.3,1.4z"/>
	<path class="st0" d="M25.6,0.2v0.7c-0.4,0-0.9,0-1.3,0s-0.6,0-0.6,0.4c0,0.3,0.2,0.4,0.5,0.5L24.9,2c0.7,0.3,0.9,0.6,0.9,1.2
		c0,0.8-0.4,1.2-1.6,1.2c-0.2,0-0.8,0-1.4-0.1V3.6c0.8,0,1.1,0,1.3,0c0.5,0,0.7-0.1,0.7-0.4s-0.1-0.4-0.4-0.5l-0.7-0.3
		c-0.7-0.2-0.9-0.6-0.9-1.2c0-0.9,0.5-1.1,1.6-1.1C24.6,0.1,25.2,0.1,25.6,0.2z"/>
	<path class="st0" d="M27.3,3.3c0,0.2,0.1,0.3,0.3,0.3H29v0.7c-0.5,0.1-1.1,0.1-1.7,0.1c-0.7,0-0.9-0.4-0.9-0.9V0.2h0.9
		C27.3,0.2,27.3,3.3,27.3,3.3z"/>
	<path class="st0" d="M31.8,3.2h-1.4l-0.3,1.1h-0.9l1.2-3.9c0-0.1,0.2-0.2,0.3-0.2h0.9c0.2,0,0.3,0.1,0.3,0.2l1.2,3.9h-0.9L31.8,3.2
		z M31.6,2.5l-0.3-1.3c0-0.1-0.1-0.3-0.1-0.4H31v0.5l-0.3,1.3L31.6,2.5L31.6,2.5z"/>
	<path class="st0" d="M36.6,1.9v2.4h-0.7l-0.1-0.4c-0.2,0.2-0.6,0.5-1.2,0.5c-0.9,0-1.3-0.6-1.3-2.2s0.5-2.1,1.9-2.1
		c0.5,0,0.9,0,1.3,0.1v0.7c-0.5,0-0.9,0-1.2,0c-0.7,0-0.9,0.2-0.9,1.4c0,1,0.2,1.3,0.7,1.3c0.3,0,0.5-0.1,0.7-0.2V1.9H36.6z"/>
	<path class="st0" d="M40.6,4.1c0,0.2-0.2,0.3-0.3,0.3h-0.8c-0.2,0-0.3-0.1-0.3-0.3L38,0.2h1l0.7,3c0,0.2,0.1,0.3,0.1,0.5H40
		c0-0.2,0.1-0.3,0.1-0.5l0.7-3h0.9L40.6,4.1z"/>
	<path class="st0" d="M44.2,3.2h-1.4l-0.3,1.1h-0.9l1.2-3.9c0-0.1,0.2-0.2,0.3-0.2H44c0.2,0,0.3,0.1,0.3,0.2l1.2,3.9h-0.9L44.2,3.2z
		 M44,2.5l-0.3-1.3c0-0.1-0.1-0.3-0.1-0.4h-0.2l-0.1,0.4L43,2.5H44z"/>
	<path class="st0" d="M45.8,0.5c0-0.2,0.1-0.3,0.3-0.3h0.6c0.2,0,0.3,0.1,0.4,0.3l1,2.1c0.1,0.2,0.2,0.4,0.3,0.7h0.1
		c0-0.2,0-0.5,0-0.7V0.2h0.9V4c0,0.2-0.1,0.3-0.3,0.3h-0.6c-0.2,0-0.3-0.1-0.4-0.3L47,1.9c-0.1-0.2-0.2-0.4-0.3-0.6h-0.1
		c0,0.2,0,0.4,0,0.7v2.5h-0.9L45.8,0.5L45.8,0.5z"/>
	<path class="st0" d="M4.7,6.3l0.2,3.8H4L3.9,6.7H3.7L3.1,9.3c0,0.2-0.2,0.3-0.4,0.3H2.1c-0.2,0-0.3-0.1-0.4-0.3L1.1,6.7H1l-0.1,3.4
		H0l0.2-3.8C0.2,6.1,0.3,6,0.5,6h0.9c0.2,0,0.3,0.1,0.4,0.3l0.5,2.1c0,0.2,0.1,0.4,0.1,0.6h0.1c0-0.2,0.1-0.4,0.1-0.6l0.5-2.1
		C3.1,6.1,3.3,6,3.5,6h0.9C4.5,6,4.7,6.1,4.7,6.3z"/>
	<path class="st0" d="M8.3,9.4v0.7c-0.5,0-1.3,0-1.9,0c-0.6,0-0.9-0.3-0.9-0.8V6.8C5.5,6.3,5.9,6,6.4,6C7,6,7.7,6,8.3,6v0.7H6.7
		C6.5,6.7,6.4,6.8,6.4,7v0.6H8v0.7H6.4v0.8c0,0.2,0.1,0.3,0.3,0.3H8.3z"/>
	<path class="st0" d="M11.8,9.4v0.7c-0.5,0-1.3,0-1.9,0C9.3,10.1,9,9.8,9,9.3V6.8C9,6.3,9.4,6,9.9,6c0.6,0,1.3,0,1.9,0v0.7h-1.6
		C10,6.7,9.9,6.8,9.9,7v0.6h1.6v0.7H9.9v0.8c0,0.2,0.1,0.3,0.3,0.3H11.8z"/>
	<path class="st0" d="M15.1,6v0.7c-0.4,0-0.9,0-1.3,0s-0.6,0-0.6,0.4c0,0.3,0.2,0.4,0.5,0.5l0.6,0.2C15,8.1,15.2,8.4,15.2,9
		c0,0.8-0.4,1.2-1.6,1.2c-0.2,0-0.8,0-1.4-0.1V9.4c0.8,0,1.1,0,1.3,0c0.5,0,0.7-0.1,0.7-0.4c0-0.3-0.2-0.4-0.4-0.5l-0.7-0.3
		C12.4,8,12.2,7.6,12.2,7c0-0.9,0.5-1.1,1.6-1.1C14.1,5.9,14.6,5.9,15.1,6z"/>
	<path class="st0" d="M18.9,6.7h-1.2v3.4h-0.9V6.7h-1.2V6H19v0.7H18.9z"/>
	<path class="st0" d="M22.2,9.4v0.7c-0.5,0-1.3,0-1.9,0s-0.9-0.3-0.9-0.8V6.8c0-0.5,0.4-0.8,0.9-0.8c0.6,0,1.3,0,1.9,0v0.7h-1.6
		c-0.2,0-0.3,0.1-0.3,0.3v0.6h1.6v0.7h-1.6v0.8c0,0.2,0.1,0.3,0.3,0.3H22.2z"/>
	<path class="st0" d="M26.1,10.1h-1l-0.3-1.3c-0.1-0.3-0.2-0.3-0.4-0.3h-0.6v1.6h-0.9V6c0.5,0,0.8-0.1,1.6-0.1
		c1.1,0,1.5,0.3,1.5,1.2c0,0.6-0.2,1-0.8,1l0,0c0.2,0,0.5,0.2,0.6,0.6L26.1,10.1z M25,7.2c0-0.5-0.1-0.6-0.6-0.6c-0.2,0-0.5,0-0.7,0
		v1.2h0.7C24.9,7.8,25,7.7,25,7.2z"/>
	<path class="st0" d="M28.9,9.9c0,0.2-0.2,0.3-0.3,0.3h-0.9c-0.2,0-0.3-0.1-0.3-0.3L26.3,6h0.9L28,9c0,0.2,0.1,0.3,0.1,0.5h0.2
		c0-0.2,0.1-0.3,0.1-0.5l0.7-3H30L28.9,9.9z"/>
	<path class="st0" d="M33.2,9.4v0.7c-0.5,0-1.3,0-1.9,0s-0.9-0.3-0.9-0.8V6.8c0-0.5,0.4-0.8,0.9-0.8c0.6,0,1.3,0,1.9,0v0.7h-1.6
		c-0.2,0-0.3,0.1-0.3,0.3v0.6h1.6v0.7h-1.6v0.8c0,0.2,0.1,0.3,0.3,0.3H33.2z"/>
	<path class="st0" d="M37.1,10.1h-1l-0.3-1.3c-0.1-0.3-0.2-0.3-0.4-0.3h-0.6v1.6h-0.9V6c0.5,0,0.8-0.1,1.6-0.1
		c1.1,0,1.5,0.3,1.5,1.2c0,0.6-0.2,1-0.8,1l0,0c0.2,0,0.5,0.2,0.6,0.6L37.1,10.1z M36,7.2c0-0.5-0.1-0.6-0.6-0.6c-0.2,0-0.5,0-0.7,0
		v1.2h0.7C35.9,7.8,36,7.7,36,7.2z"/>
	<path class="st0" d="M40.7,6.7h-1.2v3.4h-0.9V6.7h-1.2V6h3.3V6.7z"/>
	<path class="st0" d="M44,9.4v0.7c-0.5,0-1.3,0-1.9,0s-0.9-0.3-0.9-0.8V6.8c0-0.5,0.4-0.8,0.9-0.8c0.6,0,1.3,0,1.9,0v0.7h-1.6
		c-0.2,0-0.3,0.1-0.3,0.3v0.6h1.6v0.7h-1.6v0.8c0,0.2,0.1,0.3,0.3,0.3H44z"/>
	<path class="st0" d="M45.6,9.1c0,0.2,0.1,0.3,0.3,0.3h1.4v0.7c-0.5,0.1-1.1,0.1-1.7,0.1c-0.7,0-0.9-0.4-0.9-0.9V6h0.9
		C45.6,6,45.6,9.1,45.6,9.1z"/>
	<path class="st0" d="M48.7,9.1c0,0.2,0.1,0.3,0.3,0.3h1.4v0.7c-0.5,0.1-1.1,0.1-1.7,0.1c-0.7,0-0.9-0.4-0.9-0.9V6h0.9
		C48.7,6,48.7,9.1,48.7,9.1z"/>
	<path class="st0" d="M53.8,9.4v0.7c-0.5,0-1.3,0-1.9,0S51,9.8,51,9.3V6.8C51,6.3,51.4,6,51.9,6c0.6,0,1.3,0,1.9,0v0.7h-1.6
		c-0.2,0-0.3,0.1-0.3,0.3v0.6h1.6v0.7h-1.6v0.8c0,0.2,0.1,0.3,0.3,0.3H53.8z"/>
	<path class="st0" d="M57.7,10.1h-1l-0.3-1.3c-0.1-0.3-0.2-0.3-0.4-0.3h-0.6v1.6h-0.9V6c0.5,0,0.8-0.1,1.6-0.1
		c1.1,0,1.5,0.3,1.5,1.2c0,0.6-0.2,1-0.8,1l0,0c0.2,0,0.5,0.2,0.6,0.6L57.7,10.1z M56.6,7.2c0-0.5-0.1-0.6-0.6-0.6
		c-0.2,0-0.5,0-0.7,0v1.2H56C56.4,7.8,56.6,7.7,56.6,7.2z"/>
	<path class="st0" d="M58.9,6.1v0.3c0,0.4-0.1,0.7-0.3,1l-0.3-0.1c0.1-0.2,0.1-0.4,0.1-0.7c-0.2,0-0.3-0.1-0.3-0.3V6.1
		c0-0.2,0.1-0.3,0.3-0.3h0.2C58.8,5.9,58.9,5.9,58.9,6.1z M59.9,6.1v0.3c0,0.4-0.1,0.7-0.3,1l-0.3-0.1c0.1-0.2,0.1-0.4,0.1-0.7
		c-0.2,0-0.3-0.1-0.3-0.3V6.1c0-0.2,0.1-0.3,0.3-0.3h0.2C59.9,5.9,59.9,5.9,59.9,6.1z"/>
</g>
</svg>
