<?xml version="1.0" encoding="utf-8"?>
<!-- Generator: Adobe Illustrator 24.3.0, SVG Export Plug-In . SVG Version: 6.00 Build 0)  -->
<svg version="1.1" id="Laag_1" xmlns="http://www.w3.org/2000/svg" xmlns:xlink="http://www.w3.org/1999/xlink" x="0px" y="0px"
	 width="80.5px" height="11px" viewBox="0 0 80.5 11" style="enable-background:new 0 0 80.5 11;" xml:space="preserve">
<style type="text/css">
	.st0{fill:#FFFFFF;}
</style>
<g>
	<path class="st0" d="M8.3,0.3V3C7.1,2.9,6.4,2.8,5.3,2.8c-1.4,0-1.6,0.5-1.6,2.7s0.3,2.7,1.6,2.7c1.2,0,2.2,0,3.3-0.2v2.6
		c-0.9,0.3-2.2,0.4-3.3,0.4c-3.9,0-5.2-1.3-5.2-5.6C0.1,1.2,1.4,0,5.4,0C6.6,0,7.6,0.1,8.3,0.3z"/>
	<path class="st0" d="M13.6,10.9h-3.3V0.2h3.3V10.9z"/>
	<path class="st0" d="M24.3,2.7h-3v8.2h-3.4V2.7h-3V0.2h9.4V2.7z"/>
	<path class="st0" d="M29,10.9h-3.3V0.2H29V10.9z"/>
	<path class="st0" d="M30.7,8.5l4-4.9c0.2-0.2,0.6-0.6,1.1-0.8l-0.1-0.2c-0.4,0.1-0.8,0.1-1,0.1h-3.9V0.2h8.4v2.4l-4,4.9
		c-0.2,0.2-0.5,0.6-1.1,0.9l0.1,0.2c0.4-0.1,0.8-0.1,1-0.1h4.2v2.5h-8.7V8.5z"/>
	<path class="st0" d="M49,8.4v2.5c-1.5,0-3.7,0-5.5,0C42,11,41,10,41,8.5v-6c0-1.4,1-2.4,2.5-2.4c1.9,0,4,0,5.4,0v2.5H45
		c-0.4,0-0.6,0.2-0.6,0.6v1h4v2.2h-4v1.3c0,0.3,0.2,0.6,0.6,0.6H49z"/>
	<path class="st0" d="M50.7,1.4c0-0.8,0.4-1.2,1.2-1.2h1.4c0.7,0,0.9,0.3,1.3,1l2.2,3.5c0.4,0.7,0.6,1.4,0.9,2.3l0.3,0
		c-0.1-0.8-0.2-1.6-0.2-2.4l0-4.4h3.1v9.6c0,0.8-0.4,1.2-1.2,1.2h-1.4c-0.7,0-0.9-0.4-1.3-1l-2.3-3.7c-0.4-0.7-0.6-1.4-0.8-2.2
		l-0.3,0c0.1,0.7,0.2,1.6,0.2,2.4v4.5h-3.1V1.4z"/>
	<path class="st0" d="M70.6,6.4h-0.7c0.1,0.3,0.1,0.7,0.1,1v3.5h-3.4V0.2H70v2.7c0,0.4,0,0.9-0.2,1.4h0.8L73,0.2h3.6l-2.4,4
		c-0.3,0.5-0.9,0.9-1.3,1v0.2c0.5,0.1,1.1,0.5,1.4,1l2.5,4.4H73L70.6,6.4z"/>
	<path class="st0" d="M80.5,9.2v0.6c0,0.9-0.3,1.1-1.1,1.1h-0.7c-0.9,0-1.1-0.3-1.1-1.1V9.2c0-0.9,0.3-1.1,1.1-1.1h0.7
		C80.2,8,80.5,8.3,80.5,9.2z"/>
</g>
</svg>
