<?xml version="1.0" encoding="utf-8"?>
<!-- Generator: Adobe Illustrator 24.3.0, SVG Export Plug-In . SVG Version: 6.00 Build 0)  -->
<svg version="1.1" id="Laag_1" xmlns="http://www.w3.org/2000/svg" xmlns:xlink="http://www.w3.org/1999/xlink" x="0px" y="0px"
	 width="383.3px" height="80.7px" viewBox="0 0 383.3 80.7" style="enable-background:new 0 0 383.3 80.7;" xml:space="preserve">
<style type="text/css">
	.st0{fill:#FFFFFF;}
</style>
<path class="st0" d="M0,0.9h5.6l9,11.5V0.9h6v21.8h-5.3L6,10.8v12H0V0.9z"/>
<path class="st0" d="M23.5,14.4L23.5,14.4c0-4.9,3.9-8.9,9.3-8.9c5.4,0,9.3,4,9.3,8.8v0.1c0,4.8-3.9,8.8-9.4,8.8
	C27.4,23.2,23.5,19.2,23.5,14.4z M36.3,14.4L36.3,14.4c0-2.2-1.5-3.9-3.6-3.9c-2.2,0-3.5,1.7-3.5,3.8v0.1c0,2.1,1.5,3.8,3.6,3.8
	C34.9,18.1,36.3,16.4,36.3,14.4z"/>
<path class="st0" d="M44.6,5.9h5.9v2.4c1.1-1.4,2.6-2.7,5.1-2.7c3.6,0,5.7,2.4,5.7,6.2v11h-5.9v-9.1c0-1.9-1-2.9-2.4-2.9
	c-1.4,0-2.5,1-2.5,2.9v9.1h-5.9V5.9z"/>
<path class="st0" d="M73,5.9h5.9v2.2c1.2-1.4,2.6-2.6,5.1-2.6c4,0,7.5,3.3,7.5,8.7v0.1c0,5.5-3.5,8.8-7.5,8.8
	c-2.6,0-4.1-1.2-5.1-2.4v7H73V5.9z M85.7,14.3L85.7,14.3c0-2.3-1.6-3.9-3.5-3.9c-1.9,0-3.5,1.6-3.5,3.8v0.1c0,2.2,1.5,3.8,3.5,3.8
	C84.1,18.2,85.7,16.6,85.7,14.3z"/>
<path class="st0" d="M93.4,14.4L93.4,14.4c0-5,3.5-8.9,8.5-8.9c5.8,0,8.5,4.3,8.5,9.2c0,0.4,0,0.8,0,1.2H99.1
	c0.5,1.8,1.8,2.8,3.6,2.8c1.4,0,2.5-0.5,3.7-1.7l3.3,2.7c-1.6,2.1-4,3.4-7.3,3.4C97.1,23.2,93.4,19.6,93.4,14.4z M104.9,12.9
	c-0.2-1.9-1.3-3.1-3-3.1c-1.6,0-2.6,1.2-2.9,3.1H104.9z"/>
<path class="st0" d="M112.9,5.9h5.9v3.4c1-2.3,2.5-3.8,5.3-3.7v6.2h-0.5c-3.1,0-4.8,1.8-4.8,5.6v5.3h-5.9V5.9z"/>
<path class="st0" d="M125.3,14.4L125.3,14.4c0-5.5,3.5-8.9,7.5-8.9c2.6,0,4.1,1.2,5.1,2.4V0h5.9v22.8h-5.9v-2.2
	c-1.2,1.4-2.6,2.6-5.1,2.6C128.8,23.1,125.3,19.8,125.3,14.4z M138.1,14.3L138.1,14.3c0-2.3-1.5-3.9-3.5-3.9c-1.9,0-3.5,1.6-3.5,3.8
	v0.1c0,2.2,1.6,3.8,3.5,3.8C136.5,18.2,138.1,16.6,138.1,14.3z"/>
<path class="st0" d="M147.1,0h6.1v4.4h-6.1V0z M147.2,5.9h5.9v16.9h-5.9V5.9z"/>
<path class="st0" d="M155.6,17.9L155.6,17.9c0-3.6,2.6-5.4,6.6-5.4c1.6,0,3.1,0.3,4.1,0.7v-0.3c0-1.8-1.1-2.8-3.4-2.8
	c-1.8,0-3.1,0.4-4.7,0.9L157,7c1.9-0.8,3.9-1.3,6.8-1.3c3,0,5.1,0.7,6.4,2.1c1.3,1.2,1.8,3,1.8,5.4v9.7h-5.8V21
	c-1.2,1.3-2.8,2.2-5,2.2C158,23.1,155.6,21.3,155.6,17.9z M166.3,16.6v-0.8c-0.6-0.2-1.5-0.4-2.3-0.4c-1.7,0-2.7,0.8-2.7,2.1v0.1
	c0,1.2,0.9,1.8,2.1,1.8C165.1,19.4,166.3,18.3,166.3,16.6z"/>
<path class="st0" d="M175.1,5.9h5.9v2.3c1.1-1.4,2.6-2.7,5-2.7c2.2,0,4,1,4.9,2.7c1.5-1.7,3.2-2.7,5.6-2.7c3.6,0,5.8,2.2,5.8,6.2
	v11.1h-5.9v-9.2c0-1.8-0.9-2.8-2.3-2.8c-1.4,0-2.4,1-2.4,2.8v9.2h-5.9v-9.2c0-1.8-0.9-2.8-2.3-2.8c-1.4,0-2.4,1-2.4,2.8v9.2h-5.9
	V5.9z"/>
<path class="st0" d="M204.7,14.4L204.7,14.4c0-4.9,3.9-8.9,9.3-8.9c5.4,0,9.3,4,9.3,8.8v0.1c0,4.8-3.9,8.8-9.4,8.8
	C208.6,23.2,204.7,19.2,204.7,14.4z M217.6,14.4L217.6,14.4c0-2.2-1.5-3.9-3.6-3.9c-2.2,0-3.5,1.7-3.5,3.8v0.1
	c0,2.1,1.5,3.8,3.6,3.8C216.2,18.1,217.6,16.4,217.6,14.4z"/>
<path class="st0" d="M225.2,14.4L225.2,14.4c0-4.8,3.7-8.9,9-8.9c3.5,0,5.8,1.5,7.2,3.7l-4,3c-0.8-1.1-1.7-1.8-3.1-1.8
	c-1.9,0-3.3,1.7-3.3,3.8v0.1c0,2.2,1.4,3.8,3.4,3.8c1.4,0,2.3-0.7,3.2-1.7l4,2.9c-1.6,2.3-3.8,3.9-7.5,3.9
	C228.9,23.2,225.2,19.2,225.2,14.4z"/>
<path class="st0" d="M243.6,0h6.1v4.4h-6.1V0z M243.7,5.9h5.9v16.9h-5.9V5.9z"/>
<path class="st0" d="M260.9,14.4L260.9,14.4c0-5.5,3.5-8.9,7.5-8.9c2.6,0,4.1,1.2,5.1,2.4V0h5.9v22.8h-5.9v-2.2
	c-1.2,1.4-2.6,2.6-5.1,2.6C264.4,23.1,260.9,19.8,260.9,14.4z M273.7,14.3L273.7,14.3c0-2.3-1.5-3.9-3.5-3.9c-1.9,0-3.5,1.6-3.5,3.8
	v0.1c0,2.2,1.6,3.8,3.5,3.8C272.1,18.2,273.7,16.6,273.7,14.3z"/>
<path class="st0" d="M282.7,0h6.1v4.4h-6.1V0z M282.8,5.9h5.9v16.9h-5.9V5.9z"/>
<path class="st0" d="M299.4,5.9h6.2l3.2,9.9l3.3-9.9h6.1l-6.7,17h-5.4L299.4,5.9z"/>
<path class="st0" d="M320.2,0h6.1v4.4h-6.1V0z M320.3,5.9h5.9v16.9h-5.9V5.9z"/>
<path class="st0" d="M328.3,20.6l2.2-3.6c1.9,1.3,4,1.9,5.8,1.9c1,0,1.5-0.3,1.5-0.9V18c0-0.7-1-1-2.7-1.5c-3.3-0.9-6-2-6-5.4v-0.1
	c0-3.6,2.9-5.6,6.8-5.6c2.5,0,5,0.7,7,2l-2,3.7c-1.7-1-3.6-1.6-5-1.6c-0.9,0-1.4,0.3-1.4,0.8v0.1c0,0.7,1,1,2.7,1.5
	c3.3,0.9,6,2.1,6,5.4v0.1c0,3.7-2.8,5.6-6.9,5.6C333.4,23.1,330.6,22.3,328.3,20.6z"/>
<path class="st0" d="M346.3,17.5v-6.9h-2V5.9h2V1.6h5.9v4.3h3.9v4.7h-3.9v5.7c0,1.2,0.5,1.7,1.6,1.7c0.8,0,1.5-0.2,2.2-0.6v4.6
	c-1.1,0.6-2.5,1-4.1,1C348.4,23.1,346.3,21.5,346.3,17.5z"/>
<path class="st0" d="M357.9,17.9L357.9,17.9c0-3.6,2.6-5.4,6.6-5.4c1.6,0,3.1,0.3,4.1,0.7v-0.3c0-1.8-1.1-2.8-3.4-2.8
	c-1.8,0-3.1,0.4-4.7,0.9L359.3,7c1.9-0.8,3.9-1.3,6.8-1.3c3,0,5.1,0.7,6.4,2.1c1.3,1.2,1.8,3,1.8,5.4v9.7h-5.8V21
	c-1.2,1.3-2.8,2.2-5,2.2C360.3,23.1,357.9,21.3,357.9,17.9z M368.6,16.6v-0.8c-0.6-0.2-1.5-0.4-2.3-0.4c-1.7,0-2.7,0.8-2.7,2.1v0.1
	c0,1.2,0.9,1.8,2.1,1.8C367.4,19.4,368.6,18.3,368.6,16.6z"/>
<path class="st0" d="M377.2,16.7h6.1v6.1h-6.1V16.7z"/>
<path class="st0" d="M0,34.9h10.3c3.3,0,5.6,0.9,7.1,2.3c1.3,1.3,1.9,2.9,1.9,5.1v0.1c0,3.4-1.8,5.6-4.5,6.7l5.2,7.6h-7l-4.4-6.6H6
	v6.6H0V34.9z M10.1,45.4c2,0,3.2-1,3.2-2.6v-0.1c0-1.7-1.3-2.6-3.3-2.6H6v5.3H10.1z"/>
<path class="st0" d="M21.1,48.4L21.1,48.4c0-5,3.5-8.9,8.5-8.9c5.8,0,8.5,4.3,8.5,9.2c0,0.4,0,0.8,0,1.2H26.8
	c0.5,1.8,1.8,2.8,3.6,2.8c1.4,0,2.5-0.5,3.7-1.7l3.3,2.7c-1.6,2.1-4,3.4-7.3,3.4C24.8,57.2,21.1,53.6,21.1,48.4z M32.6,46.9
	c-0.2-1.9-1.3-3.1-3-3.1c-1.6,0-2.6,1.2-2.9,3.1H32.6z"/>
<path class="st0" d="M39.4,54.6l2.2-3.6c1.9,1.3,4,1.9,5.8,1.9c1,0,1.5-0.3,1.5-0.9V52c0-0.7-1-1-2.7-1.5c-3.3-0.9-6-2-6-5.4v-0.1
	c0-3.6,2.9-5.6,6.8-5.6c2.5,0,5,0.7,7,2l-2,3.7c-1.7-1-3.6-1.6-5-1.6c-0.9,0-1.4,0.3-1.4,0.8v0.1c0,0.7,1,1,2.7,1.5
	c3.3,0.9,6,2.1,6,5.4v0.1c0,3.7-2.8,5.6-6.9,5.6C44.5,57.1,41.7,56.3,39.4,54.6z"/>
<path class="st0" d="M57.5,51.5v-6.9h-2v-4.7h2v-4.3h5.9v4.3h3.9v4.7h-3.9v5.7c0,1.2,0.5,1.7,1.6,1.7c0.8,0,1.5-0.2,2.2-0.6v4.6
	c-1.1,0.6-2.5,1-4.1,1C59.5,57.1,57.5,55.6,57.5,51.5z"/>
<path class="st0" d="M69,51.9L69,51.9c0-3.6,2.6-5.4,6.6-5.4c1.6,0,3.1,0.3,4.1,0.7v-0.3c0-1.8-1.1-2.8-3.4-2.8
	c-1.8,0-3.1,0.4-4.7,0.9L70.4,41c1.9-0.8,3.9-1.3,6.8-1.3c3,0,5.1,0.7,6.4,2.1c1.3,1.2,1.8,3,1.8,5.4v9.7h-5.8V55
	c-1.2,1.3-2.8,2.2-5,2.2C71.4,57.1,69,55.3,69,51.9z M79.7,50.7v-0.8c-0.6-0.2-1.5-0.4-2.3-0.4c-1.7,0-2.7,0.8-2.7,2.1v0.1
	c0,1.2,0.9,1.8,2.1,1.8C78.5,53.4,79.7,52.3,79.7,50.7z"/>
<path class="st0" d="M96.8,45.9L96.8,45.9c0-6.4,4.9-11.4,11.5-11.4c4.5,0,7.3,1.9,9.3,4.5l-4.6,3.5c-1.2-1.5-2.7-2.6-4.8-2.6
	c-3.1,0-5.2,2.6-5.2,5.8v0.1c0,3.3,2.2,5.8,5.2,5.8c2.3,0,3.6-1.1,4.9-2.6l4.6,3.2c-2.1,2.8-4.8,4.9-9.6,4.9
	C101.8,57.2,96.8,52.4,96.8,45.9z"/>
<path class="st0" d="M119,48.4L119,48.4c0-4.9,3.9-8.9,9.3-8.9s9.3,4,9.3,8.8v0.1c0,4.8-3.9,8.8-9.4,8.8
	C122.9,57.2,119,53.2,119,48.4z M131.9,48.4L131.9,48.4c0-2.2-1.5-3.9-3.6-3.9c-2.2,0-3.5,1.7-3.5,3.8v0.1c0,2.1,1.5,3.8,3.6,3.8
	C130.5,52.2,131.9,50.4,131.9,48.4z"/>
<path class="st0" d="M140.1,39.9h5.9v2.4c1.1-1.4,2.6-2.7,5.1-2.7c3.6,0,5.7,2.4,5.7,6.2v11h-5.9v-9.1c0-1.9-1-2.9-2.4-2.9
	s-2.5,1-2.5,2.9v9.1h-5.9V39.9z"/>
<path class="st0" d="M159.9,39.9h5.9v2.4c1.1-1.4,2.6-2.7,5.1-2.7c3.6,0,5.7,2.4,5.7,6.2v11h-5.9v-9.1c0-1.9-1-2.9-2.4-2.9
	s-2.5,1-2.5,2.9v9.1h-5.9V39.9z"/>
<path class="st0" d="M179,48.4L179,48.4c0-5,3.5-8.9,8.5-8.9c5.8,0,8.5,4.3,8.5,9.2c0,0.4,0,0.8,0,1.2h-11.3
	c0.5,1.8,1.8,2.8,3.6,2.8c1.4,0,2.5-0.5,3.7-1.7l3.3,2.7c-1.6,2.1-4,3.4-7.3,3.4C182.7,57.2,179,53.6,179,48.4z M190.4,46.9
	c-0.2-1.9-1.3-3.1-3-3.1c-1.6,0-2.6,1.2-2.9,3.1H190.4z"/>
<path class="st0" d="M197.3,54.6l2.2-3.6c1.9,1.3,4,1.9,5.8,1.9c1,0,1.5-0.3,1.5-0.9V52c0-0.7-1-1-2.7-1.5c-3.3-0.9-6-2-6-5.4v-0.1
	c0-3.6,2.9-5.6,6.8-5.6c2.5,0,5,0.7,7,2l-2,3.7c-1.7-1-3.6-1.6-5-1.6c-0.9,0-1.4,0.3-1.4,0.8v0.1c0,0.7,1,1,2.7,1.5
	c3.3,0.9,6,2.1,6,5.4v0.1c0,3.7-2.8,5.6-6.9,5.6C202.4,57.1,199.6,56.3,197.3,54.6z"/>
<path class="st0" d="M213,54.6l2.2-3.6c1.9,1.3,4,1.9,5.8,1.9c1,0,1.5-0.3,1.5-0.9V52c0-0.7-1-1-2.7-1.5c-3.3-0.9-6-2-6-5.4v-0.1
	c0-3.6,2.9-5.6,6.8-5.6c2.5,0,5,0.7,7,2l-2,3.7c-1.7-1-3.6-1.6-5-1.6c-0.9,0-1.4,0.3-1.4,0.8v0.1c0,0.7,1,1,2.7,1.5
	c3.3,0.9,6,2.1,6,5.4v0.1c0,3.7-2.8,5.6-6.9,5.6C218.1,57.1,215.3,56.3,213,54.6z"/>
<path class="st0" d="M229.6,48.4L229.6,48.4c0-4.9,3.9-8.9,9.3-8.9c5.4,0,9.3,4,9.3,8.8v0.1c0,4.8-3.9,8.8-9.4,8.8
	C233.5,57.2,229.6,53.2,229.6,48.4z M242.5,48.4L242.5,48.4c0-2.2-1.5-3.9-3.6-3.9c-2.2,0-3.5,1.7-3.5,3.8v0.1
	c0,2.1,1.5,3.8,3.6,3.8C241.1,52.2,242.5,50.4,242.5,48.4z"/>
<path class="st0" d="M250.1,50.7h6.1v6.1h-6.1V50.7z"/>
</svg>
