<?xml version="1.0" encoding="utf-8"?>
<!-- Generator: Adobe Illustrator 23.0.2, SVG Export Plug-In . SVG Version: 6.00 Build 0)  -->
<svg version="1.1" id="Laag_1" xmlns="http://www.w3.org/2000/svg" xmlns:xlink="http://www.w3.org/1999/xlink" x="0px" y="0px"
	 width="119.6px" height="70.6px" viewBox="0 0 119.6 70.6" style="enable-background:new 0 0 119.6 70.6;" xml:space="preserve">
<style type="text/css">
	.st0{fill:#FFFFFF;}
</style>
<g>
	<path class="st0" d="M2.6,12.6H1.2V1.4h1.4v4.8h3.9V1.4H8v11.2H6.5V7.5H2.6V12.6z"/>
	<path class="st0" d="M16.4,12.6h-5.9V1.4h5.8v1.2H12v3.6h4v1.2h-4v3.9h4.4V12.6z"/>
	<path class="st0" d="M21.4,7.5h-1.7v5.2h-1.4V1.4h3.9c0.9,0,1.6,0.3,2,0.8s0.7,1.2,0.7,2c0,0.7-0.2,1.2-0.5,1.7
		c-0.4,0.5-0.9,0.7-1.5,0.9l0,0c0.7,0.1,1.1,0.3,1.4,0.7c0.3,0.4,0.4,1.1,0.4,2.2c0,0.3,0.1,0.8,0.1,1.5c0.1,0.7,0.2,1.1,0.3,1.4
		h-1.5c-0.1-0.2-0.2-0.5-0.3-0.9c0-0.4-0.1-0.8-0.1-1.5c0-0.6,0-1.1-0.1-1.4C23,8,22.5,7.5,21.4,7.5z M19.7,2.7v3.6h2.1
		c0.5,0,0.9-0.2,1.1-0.5c0.3-0.4,0.4-0.8,0.4-1.3s-0.1-0.9-0.4-1.2c-0.2-0.3-0.6-0.5-1.1-0.5L19.7,2.7L19.7,2.7z"/>
	<path class="st0" d="M28.3,12.6h-1.4V1.4h5.6v1.2h-4.1v3.6h3.9v1.2h-3.9v5.2C28.4,12.6,28.3,12.6,28.3,12.6z"/>
	<path class="st0" d="M33.6,9.3H35v0.3c0,0.7,0.2,1.2,0.5,1.5c0.4,0.3,0.8,0.5,1.3,0.5c1.3,0,2-0.6,2-1.8c0-0.5-0.2-0.9-0.5-1.2
		S37.6,8,37.1,7.7c-0.5-0.2-1-0.5-1.5-0.8s-0.9-0.6-1.3-1.1c-0.3-0.5-0.5-1-0.5-1.6c0-1,0.3-1.7,0.9-2.2s1.4-0.8,2.4-0.8
		c2.2,0,3.2,1.1,3.1,3.3h-1.5c0-0.7-0.1-1.2-0.4-1.5c-0.3-0.3-0.7-0.5-1.4-0.5c-0.5,0-0.9,0.1-1.2,0.4s-0.5,0.7-0.5,1.2
		c0,0.4,0.2,0.8,0.5,1.2s0.8,0.6,1.3,0.9c0.5,0.2,1,0.5,1.5,0.8s0.9,0.7,1.3,1.1c0.3,0.5,0.5,1,0.5,1.7c0,1.1-0.3,1.9-1,2.4
		c-0.6,0.5-1.5,0.7-2.5,0.7c-0.6,0-1.2-0.1-1.6-0.3c-0.4-0.2-0.8-0.4-1-0.7c-0.2-0.2-0.4-0.6-0.5-0.9c-0.1-0.4-0.2-0.7-0.2-0.9
		C33.5,9.9,33.5,9.6,33.6,9.3z"/>
	<path class="st0" d="M41.5,1.4h7.3v1.2h-3v10h-1.4v-10h-3V1.4H41.5z"/>
	<path class="st0" d="M57.4,1.4l-3.3,11.2h-1.7L49.2,1.4h1.6l2.6,9.9l0,0L56,1.4H57.4z"/>
	<path class="st0" d="M57.3,12.6l3.6-11.2h1.8l3.6,11.2h-1.6L63.9,10h-4.3l-0.8,2.7L57.3,12.6L57.3,12.6z M63.5,8.7l-1.8-6l0,0
		l-1.8,6H63.5z"/>
	<path class="st0" d="M69.3,12.6h-1.4V1.4h1.4v4.9l0,0l3.9-4.9h1.6l-4.1,5.1l4.3,6.1h-1.8l-3.9-5.9l0,0V12.6z"/>
	<path class="st0" d="M75.4,12.6L79,1.4h1.8l3.6,11.2h-1.6L82.1,10h-4.3L77,12.7L75.4,12.6L75.4,12.6z M81.7,8.7l-1.8-6l0,0l-1.8,6
		H81.7z"/>
	<path class="st0" d="M92.4,1.4h1.3v11.2h-2l-4.4-9.7l0,0v9.7H86V1.4h2l4.4,9.6l0,0V1.4z"/>
	<path class="st0" d="M95.3,1.4h7.3v1.2h-3v10h-1.4v-10h-3L95.3,1.4L95.3,1.4z"/>
	<path class="st0" d="M105.7,1.4v11.2h-1.4V1.4H105.7z"/>
	<path class="st0" d="M114.3,12.6h-5.9V1.4h5.8v1.2h-4.3v3.6h4v1.2h-4v3.9h4.4V12.6z"/>
</g>
<g>
	<path class="st0" d="M8.3,20.1L5,31.3H3.3L0,20.1h1.6L4.2,30l0,0l2.6-9.9H8.3z"/>
	<path class="st0" d="M15.9,30.5c-0.6,0.7-1.5,1-2.7,1s-2.1-0.3-2.7-1s-0.9-1.8-0.9-3.3v-3.7c0-1.1,0.3-2,0.9-2.7
		c0.6-0.6,1.5-1,2.6-1c1.2,0,2,0.3,2.6,1c0.6,0.6,0.9,1.5,0.9,2.7v3.7C16.7,28.7,16.4,29.8,15.9,30.5z M11.6,29.7
		c0.3,0.4,0.9,0.7,1.6,0.7s1.2-0.2,1.6-0.7c0.3-0.4,0.5-1.2,0.5-2.4v-3.8c0-0.4-0.1-0.8-0.2-1.1s-0.3-0.6-0.4-0.7
		c-0.2-0.2-0.3-0.3-0.6-0.4c-0.2-0.1-0.4-0.1-0.5-0.2c-0.1,0-0.3,0-0.4,0s-0.3,0-0.4,0c-0.1,0-0.3,0.1-0.5,0.2s-0.4,0.2-0.6,0.4
		c-0.2,0.2-0.3,0.4-0.4,0.7c-0.1,0.3-0.2,0.7-0.2,1.1v3.8C11.1,28.4,11.3,29.2,11.6,29.7z"/>
	<path class="st0" d="M24.8,31.3h-5.5V20.1h1.4v10h4.1V31.3z"/>
	<path class="st0" d="M30.9,21.3v10h-1.3V20.1h2.3l2.8,9.4l0,0l2.9-9.4H40v11.2h-1.4v-10l0,0l-3.1,10H34L30.9,21.3L30.9,21.3z"/>
	<path class="st0" d="M41.5,31.3L45,20.1h1.8l3.6,11.2h-1.6L48,28.6h-4.3l-0.8,2.7C42.9,31.3,41.5,31.3,41.5,31.3z M47.7,27.4
		l-1.8-6l0,0l-1.8,6H47.7z"/>
	<path class="st0" d="M58.8,23.1h-1.5c0-0.7-0.2-1.2-0.5-1.5s-0.8-0.5-1.5-0.5c-0.1,0-0.3,0-0.4,0c-0.1,0-0.3,0.1-0.5,0.2
		s-0.4,0.2-0.6,0.4c-0.2,0.2-0.3,0.4-0.4,0.7c-0.1,0.3-0.2,0.7-0.2,1.1v3.8c0,1.2,0.2,2,0.5,2.4s0.9,0.7,1.6,0.7
		c0.9,0,1.6-0.2,2-0.5v-3.4h-2.1v-1.2h3.5v5.5c-1,0.6-2.2,0.8-3.4,0.8s-2.1-0.3-2.7-1c-0.6-0.7-0.9-1.8-0.9-3.3v-3.7
		c0-1.1,0.3-2,0.9-2.7c0.6-0.6,1.5-1,2.6-1c1.2,0,2.1,0.3,2.7,0.8C58.6,21.1,58.9,21.9,58.8,23.1z"/>
	<path class="st0" d="M63.1,20.1v11.2h-1.4V20.1H63.1z"/>
	<path class="st0" d="M71.7,31.3h-5.9V20.1h5.8v1.2h-4.3v3.6h4v1.2h-4V30h4.4V31.3z"/>
	<path class="st0" d="M72.8,33.2l0.8-3.6h1.6l-1.4,3.6H72.8z"/>
</g>
<g>
	<path class="st0" d="M2.5,49.9H1.1V38.7h1.4v4.9l0,0l3.9-4.9H8l-4,5.1l4.3,6.1H6.5L2.6,44l0,0L2.5,49.9L2.5,49.9z"/>
	<path class="st0" d="M9.7,45.8v-7.1h1.4v7.2c0,1.2,0.2,2,0.5,2.4s0.9,0.7,1.6,0.7s1.3-0.2,1.6-0.7c0.3-0.4,0.5-1.2,0.5-2.4v-7.2
		h1.4v7.1c0,1.5-0.3,2.6-0.9,3.3s-1.5,1-2.7,1s-2.1-0.3-2.7-1C10,48.4,9.7,47.3,9.7,45.8z"/>
	<path class="st0" d="M25.7,38.7H27v11.2h-2l-4.4-9.7l0,0v9.7h-1.3V38.7h2l4.4,9.6l0,0V38.7z"/>
	<path class="st0" d="M29.3,46.6h1.4v0.3c0,0.7,0.2,1.2,0.5,1.5c0.4,0.3,0.8,0.5,1.3,0.5c1.3,0,2-0.6,2-1.8c0-0.5-0.2-0.9-0.5-1.2
		s-0.8-0.6-1.3-0.9c-0.5-0.2-1-0.5-1.5-0.8s-0.9-0.6-1.3-1.1c-0.3-0.5-0.5-1-0.5-1.6c0-1,0.3-1.7,0.9-2.2s1.4-0.8,2.4-0.8
		c2.2,0,3.2,1.1,3.1,3.3h-1.5c0-0.7-0.1-1.2-0.4-1.5c-0.3-0.3-0.7-0.5-1.4-0.5c-0.5,0-0.9,0.1-1.2,0.4S31,40.8,31,41.4
		c0,0.4,0.2,0.8,0.5,1.2c0.3,0.3,0.8,0.6,1.3,0.9c0.5,0.2,1,0.5,1.5,0.8s0.9,0.7,1.3,1.1c0.3,0.5,0.5,1,0.5,1.7c0,1.1-0.3,1.9-1,2.4
		c-0.6,0.5-1.5,0.7-2.5,0.7c-0.6,0-1.2-0.1-1.6-0.3s-0.8-0.4-1-0.7c-0.2-0.2-0.4-0.6-0.5-0.9c-0.1-0.4-0.2-0.7-0.2-0.9
		C29.2,47.2,29.2,46.9,29.3,46.6z"/>
	<path class="st0" d="M37.2,38.7h7.3v1.2h-3v10h-1.4v-10h-3v-1.2H37.2z"/>
</g>
<g>
	<path class="st0" d="M7,68.5H1.1V57.3h5.8v1.2H2.5v3.6h4v1.2h-4v3.9H7V68.5z"/>
	<path class="st0" d="M15.3,57.3h1.3v11.2h-2l-4.4-9.7l0,0v9.7H8.9V57.3h2l4.4,9.6l0,0C15.3,66.9,15.3,57.3,15.3,57.3z"/>
	<path class="st0" d="M24.2,68.5l-2.7-11.2H23l2.1,9.7l0,0l2.3-9.7h1.8l2,9.7l0,0l2.3-9.7H35l-3,11.2h-1.7l-2.1-9.7l0,0L26,68.5
		H24.2z"/>
	<path class="st0" d="M42.3,68.5h-5.9V57.3h5.8v1.2h-4.3v3.6h4v1.2h-4v3.9h4.4V68.5z"/>
	<path class="st0" d="M43.2,57.3h7.3v1.2h-3v10h-1.4v-10h-3v-1.2H43.2z"/>
	<path class="st0" d="M57.9,68.5H52V57.3h5.8v1.2h-4.3v3.6h4v1.2h-4v3.9h4.4V68.5z"/>
	<path class="st0" d="M66.2,57.3h1.3v11.2h-2l-4.4-9.7l0,0v9.7h-1.3V57.3h2l4.4,9.6l0,0V57.3z"/>
	<path class="st0" d="M69.8,65.2h1.4v0.3c0,0.7,0.2,1.2,0.5,1.5c0.4,0.3,0.8,0.5,1.3,0.5c1.3,0,2-0.6,2-1.8c0-0.5-0.2-0.9-0.5-1.2
		c-0.3-0.3-0.8-0.6-1.3-0.9c-0.5-0.2-1-0.5-1.5-0.8s-0.9-0.6-1.3-1.1c-0.3-0.5-0.5-1-0.5-1.6c0-1,0.3-1.7,0.9-2.2s1.4-0.8,2.4-0.8
		c2.2,0,3.2,1.1,3.1,3.3H75c0-0.7-0.1-1.2-0.4-1.5s-0.7-0.5-1.4-0.5c-0.5,0-0.9,0.1-1.2,0.4c-0.3,0.3-0.5,0.7-0.5,1.2
		c0,0.4,0.2,0.8,0.5,1.2c0.3,0.3,0.8,0.6,1.3,0.9c0.5,0.2,1,0.5,1.5,0.8s0.9,0.7,1.3,1.1c0.3,0.5,0.5,1,0.5,1.7c0,1.1-0.3,1.9-1,2.4
		c-0.6,0.5-1.5,0.7-2.5,0.7c-0.6,0-1.2-0.1-1.6-0.3c-0.4-0.2-0.8-0.4-1-0.7c-0.2-0.2-0.4-0.6-0.5-0.9c-0.1-0.4-0.2-0.7-0.2-0.9
		C69.8,65.8,69.8,65.5,69.8,65.2z"/>
	<path class="st0" d="M85.2,60.4h-1.5c0-0.8-0.1-1.3-0.3-1.6c-0.1-0.2-0.3-0.3-0.6-0.4c-0.3-0.1-0.5-0.1-0.7-0.1
		c-0.4,0-0.7,0.1-0.9,0.2c-0.3,0.1-0.5,0.3-0.6,0.4c-0.1,0.1-0.2,0.2-0.2,0.3c0,0,0,0,0,0.1c0,0,0,0.1-0.1,0.1c0,0.1,0,0.1-0.1,0.3
		c0,0.1,0,0.3-0.1,0.4s0,0.4-0.1,0.6c0,0.3,0,0.5,0,0.8v3c0,0.7,0,1.2,0.1,1.6s0.2,0.7,0.5,0.9c0.2,0.2,0.4,0.3,0.6,0.4
		s0.5,0.1,0.8,0.1c0.2,0,0.3,0,0.5-0.1c0.2,0,0.3-0.1,0.6-0.3s0.4-0.4,0.5-0.7c0.1-0.3,0.2-0.8,0.2-1.3h1.5c0,0.5,0,0.9-0.1,1.3
		s-0.2,0.7-0.3,0.9c-0.1,0.2-0.3,0.4-0.5,0.6s-0.4,0.3-0.6,0.4s-0.4,0.1-0.6,0.2c-0.2,0-0.4,0.1-0.5,0.1s-0.3,0-0.4,0
		c-0.3,0-0.5,0-0.6,0c-0.2,0-0.4,0-0.7-0.1c-0.3-0.1-0.5-0.1-0.7-0.3c-0.2-0.1-0.4-0.3-0.6-0.5s-0.4-0.5-0.5-0.8s-0.2-0.7-0.3-1.2
		c-0.1-0.5-0.1-1-0.1-1.6v-3.2c0-1.5,0.3-2.6,0.9-3.2c0.6-0.6,1.5-0.9,2.7-0.9c1.1,0,1.9,0.3,2.3,0.8C85,58.5,85.2,59.3,85.2,60.4z"
		/>
	<path class="st0" d="M88.9,68.5h-1.4V57.3h1.4v4.8h3.9v-4.8h1.4v11.2h-1.4v-5.1h-3.9V68.5z"/>
	<path class="st0" d="M95.8,68.5l3.6-11.2h1.8l3.6,11.2h-1.6l-0.8-2.7h-4.3l-0.8,2.7H95.8z M102.1,64.6l-1.8-6l0,0l-1.8,6H102.1z"/>
	<path class="st0" d="M108,68.5h-1.4V57.3h3.3c2.1,0,3.1,1.1,3.1,3.2c0,0.6-0.1,1.1-0.3,1.5c-0.2,0.4-0.5,0.7-0.8,1
		c-0.3,0.2-0.7,0.4-1,0.4c-0.3,0.1-0.7,0.1-1,0.1H108V68.5z M108,58.6v3.8h1.6c0.2,0,0.4,0,0.6-0.1c0.2,0,0.4-0.1,0.6-0.2
		c0.2-0.1,0.4-0.3,0.6-0.6c0.1-0.3,0.2-0.6,0.2-1s-0.1-0.7-0.2-1s-0.3-0.5-0.5-0.6s-0.4-0.2-0.5-0.2s-0.3-0.1-0.4-0.1
		C110,58.6,108,58.6,108,58.6z"/>
</g>
</svg>
