<?xml version="1.0" encoding="utf-8"?>
<!-- Generator: Adobe Illustrator 24.3.0, SVG Export Plug-In . SVG Version: 6.00 Build 0)  -->
<svg version="1.1" id="Laag_1" xmlns="http://www.w3.org/2000/svg" xmlns:xlink="http://www.w3.org/1999/xlink" x="0px" y="0px"
	 width="124.4px" height="26.7px" viewBox="0 0 124.4 26.7" style="enable-background:new 0 0 124.4 26.7;" xml:space="preserve">
<style type="text/css">
	.st0{fill:#C47951;}
</style>
<g>
	<path class="st0" d="M11.8,17.5V9.2H16c0.6,0,1.1,0.1,1.5,0.3c0.4,0.2,0.7,0.5,0.9,0.9c0.2,0.4,0.3,0.9,0.3,1.4
		c0,0.5-0.1,1-0.3,1.4c-0.2,0.4-0.5,0.7-0.9,0.9c-0.4,0.2-0.9,0.3-1.5,0.3h-2.5v2.9H11.8z M13.4,13.2h2.4c0.4,0,0.7-0.1,0.9-0.4
		c0.2-0.2,0.3-0.6,0.3-1c0-0.3,0-0.5-0.1-0.7c-0.1-0.2-0.2-0.3-0.4-0.4c-0.2-0.1-0.4-0.2-0.7-0.2h-2.4V13.2z"/>
	<path class="st0" d="M19.9,17.5V9.2h1.6v6.9h4.1v1.4H19.9z"/>
	<path class="st0" d="M25.9,17.5l3.2-8.2h2l3.2,8.2h-1.7l-0.7-1.8h-3.8l-0.7,1.8H25.9z M28.6,14.4h2.8l-0.8-2.2
		c0-0.1-0.1-0.2-0.1-0.3s-0.1-0.3-0.1-0.4c0-0.1-0.1-0.3-0.1-0.4c0-0.2-0.1-0.3-0.1-0.4H30c0,0.2-0.1,0.3-0.2,0.6
		c-0.1,0.2-0.1,0.4-0.2,0.6c-0.1,0.2-0.1,0.3-0.2,0.4L28.6,14.4z"/>
	<path class="st0" d="M35.2,17.5V9.2h1.5l3.5,4.9c0,0,0.1,0.1,0.1,0.2c0.1,0.1,0.1,0.2,0.2,0.2c0,0.1,0.1,0.1,0.1,0.2h0.1
		c0-0.1,0-0.2,0-0.3s0-0.2,0-0.3V9.2h1.5v8.2h-1.5l-3.5-4.9c-0.1-0.1-0.1-0.2-0.2-0.4c-0.1-0.1-0.1-0.2-0.2-0.3h-0.1
		c0,0.1,0,0.2,0,0.3s0,0.2,0,0.3v4.9H35.2z"/>
	<path class="st0" d="M48.8,17.6c-0.6,0-1.1-0.1-1.6-0.3c-0.4-0.2-0.8-0.5-1-0.8c-0.2-0.4-0.3-0.8-0.3-1.3v-0.5h1.5v0.5
		c0,0.4,0.1,0.6,0.3,0.8c0.2,0.2,0.5,0.3,1,0.3c0.4,0,0.7-0.1,1-0.4c0.2-0.3,0.3-0.7,0.3-1.2V9.2h1.6v5.4c0,0.7-0.1,1.2-0.3,1.6
		s-0.5,0.8-1,1C49.9,17.5,49.4,17.6,48.8,17.6z"/>
	<path class="st0" d="M53.4,17.5V9.2h6.4v1.3H55v2h4.3v1.3H55v2.2h4.9v1.3H53.4z"/>
	<path class="st0" d="M63.9,17.5V9.2h4.5c0.4,0,0.8,0.1,1.2,0.3s0.6,0.4,0.8,0.7c0.2,0.3,0.3,0.7,0.3,1.1c0,0.3-0.1,0.6-0.2,0.9
		c-0.1,0.3-0.3,0.5-0.5,0.6s-0.4,0.3-0.7,0.4v0c0.3,0.1,0.6,0.2,0.8,0.4c0.2,0.2,0.4,0.4,0.6,0.7c0.1,0.3,0.2,0.6,0.2,1
		c0,0.5-0.1,0.9-0.3,1.3c-0.2,0.3-0.5,0.6-0.9,0.8c-0.4,0.2-0.8,0.2-1.3,0.2H63.9z M65.5,12.6H68c0.2,0,0.4,0,0.6-0.1
		s0.3-0.2,0.4-0.4c0.1-0.2,0.1-0.3,0.1-0.5c0-0.4-0.1-0.6-0.3-0.8c-0.2-0.2-0.4-0.3-0.7-0.3h-2.6V12.6z M65.5,16.1h2.7
		c0.3,0,0.6-0.1,0.8-0.3s0.3-0.5,0.3-0.8c0-0.2,0-0.4-0.1-0.6c-0.1-0.2-0.2-0.3-0.4-0.4c-0.2-0.1-0.4-0.1-0.7-0.1h-2.6V16.1z"/>
	<path class="st0" d="M72.4,17.5V9.2h6.4v1.3h-4.9v2h4.3v1.3h-4.3v2.2h4.9v1.3H72.4z"/>
	<path class="st0" d="M79.9,17.5v-0.7l4.4-6.2h-4.1V9.2h6.4V10l-4.4,6.1h4.5v1.3H79.9z"/>
	<path class="st0" d="M91.7,17.6c-0.9,0-1.6-0.2-2.2-0.5s-1.1-0.8-1.4-1.4c-0.3-0.6-0.5-1.4-0.5-2.4c0-1,0.2-1.8,0.5-2.4
		s0.8-1.1,1.4-1.4c0.6-0.3,1.4-0.5,2.2-0.5c0.9,0,1.6,0.2,2.2,0.5c0.6,0.3,1.1,0.8,1.4,1.4s0.5,1.4,0.5,2.4c0,1-0.2,1.8-0.5,2.4
		c-0.3,0.6-0.8,1.1-1.4,1.4S92.6,17.6,91.7,17.6z M91.7,16.3c0.4,0,0.8-0.1,1.1-0.2c0.3-0.1,0.6-0.3,0.8-0.5
		c0.2-0.2,0.4-0.5,0.5-0.9c0.1-0.3,0.2-0.8,0.2-1.2v-0.3c0-0.5-0.1-0.9-0.2-1.2s-0.3-0.6-0.5-0.9s-0.5-0.4-0.8-0.5
		c-0.3-0.1-0.7-0.2-1.1-0.2c-0.4,0-0.8,0.1-1.1,0.2c-0.3,0.1-0.6,0.3-0.8,0.5s-0.4,0.5-0.5,0.9c-0.1,0.4-0.2,0.8-0.2,1.2v0.3
		c0,0.5,0.1,0.9,0.2,1.2c0.1,0.3,0.3,0.6,0.5,0.9c0.2,0.2,0.5,0.4,0.8,0.5C90.9,16.2,91.3,16.3,91.7,16.3z"/>
	<path class="st0" d="M97.3,17.5V9.2h6.4v1.3h-4.9v2h4.3v1.3h-4.3v2.2h4.9v1.3H97.3z"/>
	<path class="st0" d="M105.4,17.5V9.2h1.6V13l3.6-3.8h1.9l-3.2,3.3l3.3,4.9h-1.8l-2.5-3.8l-1.3,1.2v2.7H105.4z"/>
</g>
</svg>
