<?xml version="1.0" encoding="utf-8"?>
<!-- Generator: Adobe Illustrator 24.3.0, SVG Export Plug-In . SVG Version: 6.00 Build 0)  -->
<svg version="1.1" id="Laag_1" xmlns="http://www.w3.org/2000/svg" xmlns:xlink="http://www.w3.org/1999/xlink" x="0px" y="0px"
	 width="325.1px" height="16.7px" viewBox="0 0 325.1 16.7" style="enable-background:new 0 0 325.1 16.7;" xml:space="preserve">
<style type="text/css">
	.st0{fill:#C67951;}
</style>
<g>
	<path class="st0" d="M0.2,15.9V0.7h2.9v15.2H0.2z"/>
	<path class="st0" d="M6.2,15.9V4.2h2.3l0.2,1.6h0.2c0.3-0.4,0.6-0.7,0.9-0.9c0.4-0.3,0.8-0.5,1.2-0.6c0.5-0.2,1-0.2,1.5-0.2
		c0.7,0,1.4,0.1,2,0.4c0.6,0.3,1,0.7,1.3,1.3C16.2,6.2,16.3,7,16.3,8v7.9h-2.7V8.5c0-0.4,0-0.8-0.1-1c-0.1-0.3-0.2-0.5-0.4-0.7
		c-0.2-0.2-0.4-0.3-0.7-0.4c-0.3-0.1-0.6-0.1-0.9-0.1c-0.5,0-0.9,0.1-1.3,0.4c-0.4,0.2-0.7,0.6-0.9,1C9,8.1,8.9,8.5,8.9,9.1v6.8H6.2
		z"/>
	<path class="st0" d="M27.6,16.1c-0.9,0-1.8-0.2-2.5-0.6c-0.7-0.4-1.2-1.1-1.6-2C23.2,12.6,23,11.4,23,10c0-1.4,0.2-2.6,0.6-3.5
		c0.4-0.9,0.9-1.6,1.6-2c0.7-0.4,1.4-0.6,2.3-0.6c0.5,0,1,0.1,1.5,0.2c0.4,0.1,0.8,0.3,1.2,0.5c0.3,0.2,0.6,0.5,0.9,0.9h0.1v-5.7
		h2.7v16h-2.2l-0.2-1.6h-0.2c-0.4,0.6-0.9,1.1-1.5,1.4C29.1,16,28.4,16.1,27.6,16.1z M28.5,13.8c0.6,0,1.1-0.1,1.5-0.4
		c0.4-0.3,0.7-0.7,0.9-1.2s0.3-1.2,0.3-2V9.9c0-0.6-0.1-1.1-0.2-1.6c-0.1-0.5-0.3-0.8-0.5-1.2c-0.2-0.3-0.5-0.5-0.8-0.7
		c-0.3-0.2-0.7-0.2-1.2-0.2c-0.7,0-1.2,0.1-1.6,0.4c-0.4,0.3-0.7,0.7-0.8,1.2c-0.2,0.5-0.3,1.2-0.3,2.1v0.3c0,0.8,0.1,1.5,0.3,2
		c0.2,0.5,0.5,0.9,0.8,1.2C27.3,13.7,27.8,13.8,28.5,13.8z"/>
	<path class="st0" d="M41.7,16.1c-1.2,0-2.3-0.2-3.1-0.7c-0.8-0.4-1.5-1.1-1.9-2c-0.4-0.9-0.6-2-0.6-3.4c0-1.4,0.2-2.6,0.6-3.5
		c0.4-0.9,1-1.6,1.9-2c0.8-0.4,1.9-0.7,3.1-0.7c1.1,0,2.1,0.2,2.8,0.6c0.8,0.4,1.3,1.1,1.7,1.9c0.4,0.9,0.6,2,0.6,3.4v0.8h-7.9
		c0,0.7,0.1,1.3,0.3,1.8c0.2,0.5,0.5,0.9,0.9,1.1c0.4,0.2,0.9,0.4,1.6,0.4c0.3,0,0.7,0,1-0.1c0.3-0.1,0.6-0.2,0.8-0.4
		c0.2-0.2,0.4-0.4,0.5-0.7c0.1-0.3,0.2-0.6,0.2-1h2.7c0,0.7-0.1,1.4-0.4,1.9c-0.3,0.5-0.6,1-1.1,1.4c-0.5,0.4-1,0.6-1.6,0.8
		S42.5,16.1,41.7,16.1z M39,8.8h5.1c0-0.5-0.1-0.9-0.2-1.2c-0.1-0.3-0.3-0.6-0.5-0.8c-0.2-0.2-0.4-0.4-0.7-0.5
		c-0.3-0.1-0.6-0.1-1-0.1c-0.6,0-1.1,0.1-1.5,0.3c-0.4,0.2-0.7,0.5-0.9,0.9C39.2,7.7,39,8.2,39,8.8z"/>
	<path class="st0" d="M53.9,15.9V0.7h2.9v7.1l6.7-7.1H67l-5.9,6.2l6,9.1h-3.4l-4.6-7L56.7,11v4.9H53.9z"/>
	<path class="st0" d="M75.1,16.1c-1.6,0-3-0.3-4.1-0.9c-1.2-0.6-2-1.4-2.7-2.6c-0.6-1.2-0.9-2.6-0.9-4.4c0-1.8,0.3-3.3,0.9-4.4
		s1.5-2,2.7-2.6c1.2-0.6,2.5-0.9,4.1-0.9c1.6,0,3,0.3,4.1,0.9c1.1,0.6,2,1.4,2.6,2.6c0.6,1.2,0.9,2.6,0.9,4.4c0,1.8-0.3,3.2-0.9,4.4
		c-0.6,1.2-1.5,2-2.6,2.6C78,15.9,76.7,16.1,75.1,16.1z M75.1,13.7c0.8,0,1.4-0.1,2-0.3c0.6-0.2,1.1-0.6,1.5-1
		c0.4-0.4,0.7-1,0.9-1.6c0.2-0.6,0.3-1.4,0.3-2.2V8c0-0.9-0.1-1.6-0.3-2.3c-0.2-0.7-0.5-1.2-0.9-1.6c-0.4-0.4-0.9-0.8-1.5-1
		c-0.6-0.2-1.3-0.3-2-0.3s-1.4,0.1-2,0.3c-0.6,0.2-1.1,0.6-1.5,1c-0.4,0.4-0.7,1-0.9,1.6S70.4,7.2,70.4,8v0.5c0,0.8,0.1,1.6,0.3,2.2
		c0.2,0.6,0.5,1.2,0.9,1.6c0.4,0.4,0.9,0.8,1.5,1C73.6,13.6,74.3,13.7,75.1,13.7z"/>
	<path class="st0" d="M85.4,15.9V0.7h7.6c1.1,0,2.1,0.2,2.8,0.6c0.7,0.4,1.3,1,1.7,1.7c0.4,0.7,0.6,1.6,0.6,2.6c0,1-0.2,1.9-0.6,2.6
		c-0.4,0.7-1,1.3-1.7,1.7c-0.8,0.4-1.7,0.6-2.9,0.6h-4.6v5.4H85.4z M88.3,8h4.5c0.7,0,1.3-0.2,1.7-0.7c0.4-0.4,0.6-1,0.6-1.8
		c0-0.5-0.1-1-0.3-1.3c-0.2-0.4-0.4-0.6-0.8-0.8c-0.3-0.2-0.8-0.3-1.3-0.3h-4.5V8z"/>
	<path class="st0" d="M100.3,15.9V0.7h11.9v2.5h-9v3.8h8v2.5h-8v4.1h9.1v2.5H100.3z"/>
	<path class="st0" d="M115.2,15.9V0.7h8c1.1,0,2.1,0.2,2.8,0.6s1.3,0.9,1.7,1.6c0.4,0.7,0.6,1.5,0.6,2.5c0,1-0.2,1.9-0.7,2.6
		c-0.4,0.8-1.1,1.3-2,1.7l3.2,6.1h-3.2l-2.8-5.7h-4.7v5.7H115.2z M118.1,7.8h4.9c0.7,0,1.3-0.2,1.7-0.6c0.4-0.4,0.6-1,0.6-1.8
		c0-0.5-0.1-0.9-0.3-1.2c-0.2-0.3-0.4-0.6-0.8-0.8c-0.3-0.2-0.8-0.3-1.3-0.3h-4.9V7.8z"/>
	<path class="st0" d="M137.9,16.1c-2.4,0-4.2-0.6-5.5-1.9c-1.3-1.3-2-3.3-2-6c0-1.8,0.3-3.3,0.9-4.4c0.6-1.2,1.5-2,2.7-2.6
		c1.2-0.6,2.6-0.9,4.2-0.9c1,0,1.9,0.1,2.8,0.3c0.9,0.2,1.6,0.6,2.3,1c0.7,0.5,1.2,1,1.5,1.7c0.4,0.7,0.6,1.5,0.6,2.4h-3
		c0-0.5-0.1-0.9-0.3-1.3c-0.2-0.4-0.5-0.7-0.9-1c-0.4-0.3-0.8-0.5-1.3-0.6c-0.5-0.1-1-0.2-1.6-0.2c-0.8,0-1.5,0.1-2.1,0.3
		c-0.6,0.2-1.1,0.5-1.5,1c-0.4,0.4-0.7,1-0.9,1.6c-0.2,0.7-0.3,1.4-0.3,2.3v0.5c0,1.2,0.2,2.2,0.5,3c0.3,0.8,0.9,1.3,1.5,1.7
		c0.7,0.4,1.5,0.5,2.6,0.5c0.9,0,1.6-0.1,2.3-0.4c0.7-0.3,1.2-0.7,1.6-1.2c0.4-0.5,0.6-1.1,0.6-1.9v-0.2h-4.9V7.7h7.7v8.2h-2.1
		l-0.2-1.7c-0.4,0.4-0.9,0.8-1.4,1.1c-0.5,0.3-1.1,0.5-1.7,0.6C139.4,16.1,138.7,16.1,137.9,16.1z"/>
	<path class="st0" d="M148.6,15.9V0.7h2.9v15.2H148.6z"/>
	<path class="st0" d="M154.9,15.9V0.7h11.9v2.5h-9v3.8h8v2.5h-8v4.1h9.1v2.5H154.9z"/>
	<path class="st0" d="M173.5,15.9V3.1h-4.9V0.7h12.6v2.5h-4.9v12.7H173.5z"/>
	<path class="st0" d="M183.6,15.9V0.7h11.9v2.5h-9v3.8h8v2.5h-8v4.1h9.1v2.5H183.6z"/>
	<path class="st0" d="M198.5,15.9V0.7h8c1.1,0,2.1,0.2,2.8,0.6s1.3,0.9,1.7,1.6c0.4,0.7,0.6,1.5,0.6,2.5c0,1-0.2,1.9-0.7,2.6
		c-0.4,0.8-1.1,1.3-2,1.7l3.2,6.1h-3.2l-2.8-5.7h-4.7v5.7H198.5z M201.4,7.8h4.9c0.7,0,1.3-0.2,1.7-0.6c0.4-0.4,0.6-1,0.6-1.8
		c0-0.5-0.1-0.9-0.3-1.2c-0.2-0.3-0.4-0.6-0.8-0.8c-0.3-0.2-0.8-0.3-1.3-0.3h-4.9V7.8z"/>
	<path class="st0" d="M218.3,15.9V9.7l-5.9-9h3.3l4,6.4h0.1l4-6.4h3.2l-5.8,9v6.2H218.3z"/>
	<path class="st0" d="M232.6,11.1V8.6h5.6v2.5H232.6z"/>
	<path class="st0" d="M252.2,16.1c-2.4,0-4.2-0.6-5.5-1.9c-1.3-1.3-2-3.3-2-6c0-1.8,0.3-3.3,0.9-4.4c0.6-1.2,1.5-2,2.7-2.6
		c1.2-0.6,2.6-0.9,4.2-0.9c1,0,1.9,0.1,2.8,0.3c0.9,0.2,1.6,0.6,2.3,1c0.7,0.5,1.2,1,1.5,1.7s0.6,1.5,0.6,2.4h-3
		c0-0.5-0.1-0.9-0.3-1.3c-0.2-0.4-0.5-0.7-0.9-1c-0.4-0.3-0.8-0.5-1.3-0.6c-0.5-0.1-1-0.2-1.6-0.2c-0.8,0-1.5,0.1-2.1,0.3
		c-0.6,0.2-1.1,0.5-1.5,1c-0.4,0.4-0.7,1-0.9,1.6c-0.2,0.7-0.3,1.4-0.3,2.3v0.5c0,1.2,0.2,2.2,0.5,3c0.3,0.8,0.9,1.3,1.5,1.7
		c0.7,0.4,1.5,0.5,2.6,0.5c0.9,0,1.6-0.1,2.3-0.4c0.7-0.3,1.2-0.7,1.6-1.2c0.4-0.5,0.6-1.1,0.6-1.9v-0.2h-4.9V7.7h7.7v8.2h-2.1
		l-0.2-1.7c-0.4,0.4-0.9,0.8-1.4,1.1c-0.5,0.3-1.1,0.5-1.7,0.6C253.6,16.1,252.9,16.1,252.2,16.1z"/>
	<path class="st0" d="M267.6,16.1c-1.2,0-2.3-0.2-3.1-0.7c-0.8-0.4-1.5-1.1-1.9-2c-0.4-0.9-0.6-2-0.6-3.4c0-1.4,0.2-2.6,0.6-3.5
		c0.4-0.9,1-1.6,1.9-2c0.8-0.4,1.9-0.7,3.1-0.7c1.1,0,2.1,0.2,2.8,0.6c0.8,0.4,1.3,1.1,1.7,1.9s0.6,2,0.6,3.4v0.8h-7.9
		c0,0.7,0.1,1.3,0.3,1.8c0.2,0.5,0.5,0.9,0.9,1.1c0.4,0.2,0.9,0.4,1.6,0.4c0.3,0,0.7,0,1-0.1c0.3-0.1,0.6-0.2,0.8-0.4
		c0.2-0.2,0.4-0.4,0.5-0.7c0.1-0.3,0.2-0.6,0.2-1h2.7c0,0.7-0.1,1.4-0.4,1.9c-0.3,0.5-0.6,1-1.1,1.4c-0.5,0.4-1,0.6-1.6,0.8
		S268.4,16.1,267.6,16.1z M264.9,8.8h5.1c0-0.5-0.1-0.9-0.2-1.2c-0.1-0.3-0.3-0.6-0.5-0.8c-0.2-0.2-0.4-0.4-0.7-0.5
		c-0.3-0.1-0.6-0.1-1-0.1c-0.6,0-1.1,0.1-1.5,0.3c-0.4,0.2-0.7,0.5-0.9,0.9C265.1,7.7,264.9,8.2,264.9,8.8z"/>
	<path class="st0" d="M275.1,15.9V4.2h2.3l0.2,1.6h0.2c0.3-0.4,0.6-0.7,0.9-0.9c0.4-0.3,0.8-0.5,1.2-0.6c0.5-0.2,1-0.2,1.5-0.2
		c0.7,0,1.4,0.1,2,0.4c0.6,0.3,1,0.7,1.3,1.3c0.3,0.6,0.5,1.4,0.5,2.4v7.9h-2.7V8.5c0-0.4,0-0.8-0.1-1c-0.1-0.3-0.2-0.5-0.4-0.7
		c-0.2-0.2-0.4-0.3-0.7-0.4c-0.3-0.1-0.6-0.1-0.9-0.1c-0.5,0-0.9,0.1-1.3,0.4c-0.4,0.2-0.7,0.6-0.9,1c-0.2,0.4-0.3,0.9-0.3,1.4v6.8
		H275.1z"/>
	<path class="st0" d="M291.1,16.1c-0.7,0-1.3-0.1-1.7-0.4c-0.4-0.3-0.7-0.7-0.9-1.1c-0.2-0.5-0.3-0.9-0.3-1.4V6.4h-1.4V4.2h1.5
		l0.5-3.3h2.2v3.3h2v2.2h-2v6.5c0,0.3,0.1,0.6,0.2,0.7c0.2,0.2,0.4,0.3,0.7,0.3h1v1.9c-0.1,0.1-0.3,0.1-0.5,0.2
		c-0.2,0.1-0.4,0.1-0.7,0.1S291.3,16.1,291.1,16.1z"/>
</g>
</svg>
