<?xml version="1.0" encoding="utf-8"?>
<!-- Generator: Adobe Illustrator 23.0.2, SVG Export Plug-In . SVG Version: 6.00 Build 0)  -->
<svg version="1.1" id="Laag_1" xmlns="http://www.w3.org/2000/svg" xmlns:xlink="http://www.w3.org/1999/xlink" x="0px" y="0px"
	 width="650px" height="129.5px" viewBox="0 0 650 129.5" style="enable-background:new 0 0 650 129.5;" xml:space="preserve">
<style type="text/css">
	.st0{fill:#FFFFFF;}
</style>
<g>
	<path class="st0" d="M31.3,49.2H5.8V47l10-7.8c5.8-4.4,7.4-6.8,7.4-10.4c0-3.3-2.2-5.4-5.6-5.4c-3.2,0-5.5,1.3-8.6,4.8l-1.9-1.8
		c4.4-4.7,7.1-6.1,11.4-6.1c5.7,0,9.7,3.3,9.7,8c0,3.4-2.1,6.8-6.1,9.7l-9.6,7h16v-5.8l2.7-0.1V49.2z"/>
	<path class="st0" d="M63.4,49.2H37.9V47l10-7.8c5.8-4.4,7.4-6.8,7.4-10.4c0-3.3-2.2-5.4-5.6-5.4c-3.2,0-5.5,1.3-8.6,4.8l-1.9-1.8
		c4.4-4.7,7.1-6.1,11.4-6.1c5.7,0,9.7,3.3,9.7,8c0,3.4-2.1,6.8-6.1,9.7l-9.6,7h16v-5.8l2.7-0.1V49.2z"/>
	<path class="st0" d="M93.5,53.6c-2.2,5.3-3.2,6.8-7,11.1L85,63.6c3.5-5.8,4-7.3,4-12.4V25h-5.4v-1.6l8.8-2.4h1.2V53.6z M90.9,7.4
		c1.8,0,3.2,1.4,3.2,3.2c0,1.8-1.5,3.2-3.2,3.2c-1.8,0-3.2-1.4-3.2-3.2C87.7,8.8,89.1,7.4,90.9,7.4z"/>
	<path class="st0" d="M133.2,47.5l-8.8,2.2h-1.1v-6.9c-4.4,5.3-7.2,7.2-11,7.2c-4.6,0-7.4-3-7.4-7.8V25h-5.3v-1.6l8.8-2.4h1.2v20.4
		c0,3.7,1.5,5.5,4.4,5.5c2.3,0,3.8-1,6.5-4.2c0.6-0.7,1.5-1.7,2.8-3.1V25h-4.6v-1.9l8-2.1h1.2v24.8h5.3V47.5z"/>
	<path class="st0" d="M167.9,49.2h-13.7v-2.3h4.6V29.1c0-3.2-1.6-5.2-4.3-5.2c-2.6,0-4.1,1.2-9.4,7.2v15.8h4.6v2.3h-13.8v-2.3h4.6
		V25h-5.3v-1.6l8.8-2.4h1.1v6.8c4.6-5.3,7.2-6.9,11.1-6.9c4.5,0,7.3,2.9,7.3,7.6v18.4h4.6V49.2z"/>
	<path class="st0" d="M184.9,49.2h-13.8v-2.3h4.6V25h-5.3v-1.6l8.8-2.4h1.1v25.9h4.6V49.2z M177.8,7.4c1.8,0,3.2,1.4,3.2,3.2
		c0,1.8-1.4,3.2-3.2,3.2c-1.8,0-3.2-1.4-3.2-3.2C174.6,8.8,176,7.4,177.8,7.4z"/>
</g>
<g>
	<path class="st0" d="M205.4,47.7c-1.8,1.5-2.5,1.8-3.8,1.8c-2,0-3.2-1.3-3.2-3.4V35.4h-3v-0.9l3-0.8v-4.8h2.5v4.9h4.3v1.6h-4.3
		v10.4c0,1.3,0.5,1.8,1.6,1.8c0.7,0,1.2-0.1,2.4-0.8L205.4,47.7z"/>
	<path class="st0" d="M207.1,57.6l8.7-31.4h2l-8.8,31.4H207.1z"/>
	<path class="st0" d="M249.5,49.2h-7.9v-1.3h2.6V37.7c0-1.9-0.9-3-2.5-3c-1.1,0-2,0.5-3.5,2.1l-1.8,2v9h2.6v1.3h-7.9v-1.3h2.6V37.7
		c0-1.8-0.9-3-2.5-3c-1.5,0-2.4,0.7-5.4,4.1v9h2.6v1.3h-7.9v-1.3h2.6V35.4h-3v-0.9l5-1.4h0.6V37c2.6-3,4.1-4,6.3-4
		c2.5,0,3.8,1.3,4.2,4c2.6-3,4.1-4,6.3-4c2.6,0,4.2,1.7,4.2,4.3v10.6h2.6V49.2z"/>
</g>
<g>
	<path class="st0" d="M285.5,49.2H269v-2.3h5.9V23.4H269v-2.3h16.4v2.3h-6v23.5h6V49.2z"/>
	<path class="st0" d="M291,64.8v-2.6c5.1-0.5,8.1-1.6,10.9-4c2.8-2.4,4.4-5.6,4.4-8.8c0-4.8-3.5-8.5-8.2-8.5h-2.7v-2
		c6-3.5,8.3-6.4,8.3-10.6c0-2.8-1.8-4.9-4.3-4.9c-1.9,0-3.2,0.9-5.9,3.9l-1.9-1.8c3.1-3.6,5.9-5.2,9.6-5.2c4.4,0,7.8,3.3,7.8,7.6
		c0,3.8-1.8,6.1-6.9,9.3c5.5,0.4,9,4.4,9,10.5c0,4.8-2.1,8.6-6.6,12.1c-2.4,1.8-4.7,3.1-7.1,3.8C295.6,64.3,294.3,64.5,291,64.8z"/>
	<path class="st0" d="M332.4,35.4c0-8,6-14.5,13.3-14.5c7.4,0,13.3,6.5,13.3,14.5s-6,14.5-13.3,14.5C338.4,50,332.4,43.5,332.4,35.4
		z M337.6,35.4c0,6.7,3.5,12,8.1,12c4.6,0,8.2-5.2,8.2-12c0-6.8-3.6-12-8.2-12C341.2,23.4,337.6,28.7,337.6,35.4z"/>
	<path class="st0" d="M376.1,49.2h-13.7v-2.3h4.6V8.4h-5.4V6.7l8.8-2.4h1.2v42.6h4.6V49.2z M392,49.2h-7.5l-12.5-15l10.9-10.3h-4
		v-2.3h12.1v2.3h-4.7l-9.4,9l11.6,14.1h3.5V49.2z"/>
	<path class="st0" d="M410.2,46.6c-3.2,2.6-4.4,3.1-6.7,3.1c-3.5,0-5.7-2.2-5.7-5.9V25h-5.3v-1.6l5.3-1.3v-8.4h4.4v8.6h7.5V25h-7.5
		v18.2c0,2.3,0.8,3.2,2.8,3.2c1.3,0,2.1-0.2,4.1-1.5L410.2,46.6z"/>
	<path class="st0" d="M412.2,35.4c0-8,6-14.5,13.3-14.5c7.4,0,13.3,6.5,13.3,14.5s-6,14.5-13.3,14.5C418.2,50,412.2,43.5,412.2,35.4
		z M417.5,35.4c0,6.7,3.5,12,8.1,12c4.6,0,8.2-5.2,8.2-12c0-6.8-3.6-12-8.2-12C421,23.4,417.5,28.7,417.5,35.4z"/>
	<path class="st0" d="M446.6,48.7V8.4h-5.3V6.7l8.8-2.4h1.1v42c2,0.8,2.9,1,4.4,1c6,0,10.2-5.2,10.2-12.5c0-6.6-3-10.8-7.8-10.8
		h-4.4v-2c3.1-1,4.6-1.3,6.2-1.3c6.6,0,11.3,5.7,11.3,13.6c0,9.3-6.3,15.5-15.8,15.5C452.4,50,450.2,49.6,446.6,48.7z"/>
	<path class="st0" d="M498.4,46.6c-4.6,2.6-6.7,3.3-10.2,3.3c-7.7,0-13.2-6-13.2-14.4c0-8.5,5.5-14.7,13.1-14.7
		c6.6,0,11.1,4.5,11.1,11.1v1.6h-19.2v0.7c0,7.6,4,12.9,9.8,12.9c2.4,0,4.1-0.6,7.5-2.8L498.4,46.6z M494.1,31.2v-1.5
		c0-3.7-2.5-6.3-6-6.3c-4.4,0-7.5,3-8.1,7.7H494.1z"/>
	<path class="st0" d="M518,49.2h-15v-2.3h4.6V25h-5.3v-1.6l8.8-2.4h1.1v6.8c4.4-5.6,6-6.9,8.2-6.9c0.7,0,1.3,0.2,1.7,0.5l1.9,1.6
		l-3.5,4.3c-1.2-1.2-2.1-1.7-2.7-1.7c-1.1,0-2.2,1-5.5,5.1v16.2h5.8V49.2z"/>
</g>
<g>
	<g>
		<path class="st0" d="M28.7,108.9l0.6-25.2l-6.6,25.2h-5.2l-6.6-25.2l0.6,25.2H5.8V78.3h8.3l6,22.8L26,78.3h8.3v30.7H28.7z"/>
		<path class="st0" d="M70.8,102.7c-1,3.1-4.5,7-12,7c-3.6,0-7.2-0.9-9.7-3.6c-0.4-0.4-1.4-1.6-2-3.3c-0.5-1.6-0.5-3-0.5-6.3V78.3
			h5.8v18.9c0,1.8,0,2.5,0.3,3.4c0.6,1.8,2.2,3.6,6.3,3.6c0.7,0,5,0,6.2-3.5c0.3-1,0.4-1.8,0.4-3.9V78.3h5.7V96
			C71.4,99.5,71.4,100.9,70.8,102.7z"/>
		<path class="st0" d="M104.4,106.6c-3.7,3.1-8.6,3.2-10,3.2c-1.8,0-7.7-0.1-11.9-4.6c-0.5-0.6-1.1-1.3-1.5-2l4.8-3.3
			c1.3,2,3.9,4.6,9.5,4.6c0.3,0,1.3,0,2.3-0.2c0.7-0.1,3.6-1,3.6-3.8c0-0.3,0-1.1-0.6-1.8c-1-1.4-3.8-1.8-5.3-2.1l-3.6-0.8
			c-1.6-0.3-3.3-0.7-4.6-1.4c-1.4-0.7-4.4-2.7-4.4-7.1c0-0.7,0.1-2.7,1.2-4.5c1.4-2.3,4.7-5,10.9-5c2.7,0,8.1,0.4,12.4,6.2l-4.7,3.5
			c-1-1.5-3.1-4.6-7.9-4.6c-0.3,0-4.2,0-5.4,2.3c-0.3,0.5-0.3,0.9-0.3,1.4c0,0.5,0.1,1,0.4,1.4c0.7,1.3,2.4,1.7,5.3,2.3l3.2,0.7
			c2.9,0.7,6.1,1.5,8.2,3.9c0.9,1,1.8,2.3,1.8,5.2C107.4,102.6,106.5,104.7,104.4,106.6z"/>
		<path class="st0" d="M118.1,108.9V78.3h21.8v5.1h-16.2v7.2h14.8v5h-14.8v8.2h17.2v5.2H118.1z"/>
		<path class="st0" d="M174.9,102.7c-1,3.1-4.5,7-12,7c-3.6,0-7.2-0.9-9.7-3.6c-0.4-0.4-1.4-1.6-2-3.3c-0.5-1.6-0.5-3-0.5-6.3V78.3
			h5.8v18.9c0,1.8,0,2.5,0.3,3.4c0.6,1.8,2.2,3.6,6.3,3.6c0.7,0,5,0,6.2-3.5c0.3-1,0.4-1.8,0.4-3.9V78.3h5.7V96
			C175.4,99.5,175.4,100.9,174.9,102.7z"/>
		<path class="st0" d="M210.6,108.9l0.6-25.2l-6.6,25.2h-5.2l-6.6-25.2l0.6,25.2h-5.6V78.3h8.3l6,22.8l5.9-22.8h8.3v30.7H210.6z"/>
		<path class="st0" d="M251,83.4V91h12.8V96H251v13h-5.7V78.3h20.3v5.1H251z"/>
		<path class="st0" d="M274.8,108.9V78.3h5.8v25.5h12.2v5.2H274.8z"/>
		<path class="st0" d="M302.2,108.9V78.3h21.8v5.1h-16.2v7.2h14.8v5h-14.8v8.2h17.2v5.2H302.2z"/>
		<path class="st0" d="M354.3,108.9V95h-13.2v13.9h-5.8V78.3h5.8v11.6h13.2V78.3h5.8v30.7H354.3z"/>
		<path class="st0" d="M372.5,108.9V78.3h5.6v30.7H372.5z"/>
		<path class="st0" d="M401.7,83.4v25.5h-5.7V83.4h-8.3v-5.2h22.5v5.2H401.7z"/>
		<path class="st0" d="M419.5,108.9V78.3h21.8v5.1h-16.2v7.2h14.8v5h-14.8v8.2h17.2v5.2H419.5z"/>
		<path class="st0" d="M452.6,108.9v-6h5.7v6H452.6z"/>
		<path class="st0" d="M488.5,108.9l-13.4-21.5l0.3,21.5h-5.6V78.3h5.2l13.6,21.6l-0.7-21.6h5.6v30.7H488.5z"/>
		<path class="st0" d="M506,108.9V78.3h5.8v25.5h12.2v5.2H506z"/>
	</g>
</g>
</svg>
