<?xml version="1.0" encoding="utf-8"?>
<!-- Generator: Adobe Illustrator 24.3.0, SVG Export Plug-In . SVG Version: 6.00 Build 0)  -->
<svg version="1.1" id="Laag_1" xmlns:v="https://vecta.io/nano"
	 xmlns="http://www.w3.org/2000/svg" xmlns:xlink="http://www.w3.org/1999/xlink" x="0px" y="0px" width="543.5px" height="118.4px"
	 viewBox="0 0 543.5 118.4" style="enable-background:new 0 0 543.5 118.4;" xml:space="preserve">
<style type="text/css">
	.st0{fill:#6A3F24;}
</style>
<g>
	<path class="st0" d="M21.5,46.8c-4.4,0-8.2-0.9-11.5-2.8c-3.3-1.9-5.7-4.5-7.5-8C0.9,32.6,0,28.6,0,24.1c0-4.5,0.9-8.4,2.6-11.9
		c1.7-3.4,4.2-6.1,7.5-7.9c3.3-1.9,7.1-2.8,11.4-2.8c4.9,0,9.1,1.3,12.6,3.9c3.5,2.6,5.8,6.1,7.1,10.5l-6.8,1.6
		c-0.5,0.1-1,0.1-1.4-0.1c-0.5-0.2-0.9-0.5-1.1-0.9c-0.9-1.9-2.2-3.5-3.9-4.7c-1.7-1.2-3.8-1.7-6.3-1.7c-3.8,0-6.8,1.3-9,3.9
		c-2.2,2.6-3.2,6-3.2,10.2c0,1.3,0.1,2.6,0.4,3.9c0.3,1.3,0.7,2.5,1.3,3.8c0.6,1.2,1.4,2.3,2.3,3.3c0.9,0.9,2.1,1.7,3.5,2.3
		c1.4,0.6,3,0.9,4.8,0.9c2.7,0,4.9-0.7,6.6-2s3-3.1,3.8-5.3c0.3-0.5,0.6-0.9,1.1-1.1c0.5-0.2,1-0.3,1.5-0.1l6.8,1.6
		c-1.1,4.8-3.4,8.5-6.9,11.3C31,45.4,26.6,46.8,21.5,46.8z"/>
	<path class="st0" d="M64,12.5c4.3,0,7.5,1.2,9.7,3.6c2.2,2.4,3.3,5.9,3.3,10.5v19.5h-8.9V27.6c0-2.5-0.4-4.4-1.2-5.5
		c-0.8-1.2-2.3-1.8-4.4-1.8c-2.1,0-3.7,0.6-4.9,1.9c-1.2,1.3-1.8,3.1-1.8,5.4v18.5H47V2.2h8.9v13.7C58.1,13.6,60.8,12.5,64,12.5z"/>
	<path class="st0" d="M89.7,9.7c-1.4,0-2.5-0.5-3.4-1.4c-0.9-0.9-1.4-2.1-1.4-3.4c0-1.4,0.5-2.6,1.4-3.5c0.9-0.9,2-1.4,3.4-1.4
		c1.4,0,2.6,0.5,3.5,1.4c0.9,0.9,1.4,2.1,1.4,3.5c0,1.4-0.5,2.5-1.4,3.4C92.3,9.2,91.1,9.7,89.7,9.7z M85.3,46.1V13.2h8.9v32.9H85.3
		z"/>
	<path class="st0" d="M137.5,12.5c4.3,0,7.5,1.2,9.7,3.6s3.3,5.9,3.3,10.5v19.5h-8.9V27.6c0-2.5-0.4-4.4-1.2-5.5
		c-0.8-1.2-2.3-1.8-4.4-1.8c-2.1,0-3.7,0.6-4.9,1.9c-1.2,1.3-1.8,3.1-1.8,5.4v18.5h-8.9V2.2h8.9v13.7
		C131.6,13.6,134.3,12.5,137.5,12.5z"/>
	<path class="st0" d="M187,37.7c0.4,0.4,0.7,1.2,0.7,2.2v6.3h-0.8c-3.8,0-6.6-1.2-8.3-3.7c-2.7,2.8-6.6,4.3-11.7,4.3
		c-3.3,0-5.9-0.9-7.8-2.6c-1.9-1.7-2.9-4.1-2.9-7.1c0-2.9,0.9-5.2,2.8-7.2c1.8-1.9,4.6-3.1,8.4-3.7c4.8-0.6,8-1.3,9.6-2.2v-0.1
		c0-1.1-0.5-1.9-1.5-2.6c-1-0.7-2.3-1-3.7-1c-0.8,0-1.6,0.1-2.2,0.2c-0.7,0.1-1.3,0.3-1.9,0.5s-1.1,0.4-1.3,0.5
		c-0.3,0.1-0.7,0.4-1.3,0.7c-0.6,0.4-0.9,0.5-0.9,0.6c-0.7,0.4-1.5,0.5-2.2,0.4c-0.7-0.1-1.3-0.5-1.7-1l-2.7-3.8
		c0.4-0.5,1-1.1,1.7-1.7c0.7-0.6,1.7-1.2,2.8-1.9c1.1-0.7,2.5-1.2,4.1-1.6c1.6-0.4,3.2-0.6,4.9-0.6c4.8,0,8.5,1.1,11,3.4
		s3.8,5.6,3.8,10v9.3C185.8,36.3,186.2,37.2,187,37.7L187,37.7z M168,39.3c0.9,0,1.8-0.1,2.5-0.2c0.8-0.1,1.6-0.3,2.4-0.7
		c0.8-0.3,1.5-0.8,2.1-1.3c0.6-0.5,1-1.3,1.4-2.2c0.4-0.9,0.5-1.9,0.5-3.1v-0.9c-1.7,1.4-4.3,2.1-7.7,2.2c-1.6,0.2-2.8,0.5-3.5,1
		c-0.7,0.5-1.1,1.3-1.1,2.3c0,0.9,0.3,1.6,0.9,2.1C166.1,39,167,39.3,168,39.3z"/>
	<path class="st0" d="M229.4,12.6c4.5,0,8.1,1.5,10.8,4.6c2.7,3.1,4,7.2,4,12.4c0,5.4-1.4,9.6-4.1,12.6c-2.7,3-6.5,4.5-11.4,4.5
		c-3.5,0-6.5-1-8.7-2.9v13.3h-8.9V13.2h6.7c0.3,0,0.6,0.1,0.9,0.4c0.2,0.2,0.4,0.5,0.4,0.9v2.8C221.8,14.1,225.3,12.6,229.4,12.6z
		 M227.7,39c2.3,0,4.2-0.9,5.6-2.6c1.4-1.7,2.1-4,2.1-6.8c0-2.8-0.7-5-2-6.8c-1.3-1.7-3.2-2.6-5.5-2.6c-2.3,0-4.2,0.8-5.6,2.4
		c-1.4,1.6-2.1,3.7-2.1,6.5v0.7c0,2.8,0.7,5.1,2,6.7C223.4,38.2,225.3,39,227.7,39z"/>
	<path class="st0" d="M264.6,12.5c5,0,9,1.6,12.1,4.9c3.1,3.3,4.6,7.6,4.6,12.9v1.5c0,0.3-0.1,0.6-0.4,0.9s-0.5,0.4-0.9,0.4H257
		c0.5,1.9,1.4,3.3,2.7,4.4c1.3,1.1,2.9,1.7,4.9,1.7c1.5,0,2.7-0.4,3.8-1.1s1.9-1.5,2.4-2.5c0.4-0.6,1-0.7,1.6-0.5l7.4,2.6
		c-1.1,2.9-3,5.2-5.6,6.8s-5.8,2.5-9.7,2.5c-5.1,0-9.1-1.6-12.2-4.7c-3.1-3.1-4.6-7.3-4.6-12.3c0-5.2,1.5-9.4,4.6-12.5
		S259.6,12.5,264.6,12.5z M264.6,20.3c-1.8,0-3.3,0.5-4.6,1.4c-1.3,1-2.2,2.3-2.7,4h14.6c-0.6-1.7-1.5-3-2.8-4
		C267.8,20.7,266.3,20.3,264.6,20.3z"/>
	<path class="st0" d="M305.2,13.2h0.5v5c0,0.7-0.2,1.3-0.6,1.7s-0.9,0.7-1.6,0.7h-0.4c-2.5,0-4.4,0.8-5.7,2.3
		c-1.3,1.5-1.9,3.7-1.9,6.4v16.8h-8.9V13.2h6.7c0.3,0,0.6,0.1,0.9,0.4c0.2,0.2,0.3,0.5,0.3,0.9v3.3
		C297.1,14.7,300.7,13.2,305.2,13.2z"/>
	<path class="st0" d="M320.9,46.8c-2.8,0-5.4-0.4-7.8-1.2c-2.4-0.8-4.4-1.8-5.8-3.1l3.5-5.3c0.3-0.4,0.6-0.6,1-0.7
		c0.4-0.1,0.8,0,1.3,0.3c2.6,1.5,5.2,2.2,7.7,2.2c1.6,0,2.7-0.3,3.5-0.8c0.8-0.5,1.1-1.2,1.1-2c0-0.7-0.2-1.2-0.7-1.7
		c-0.5-0.5-1.2-0.8-2.2-1c-0.8-0.2-1.9-0.5-3.4-0.8s-2.7-0.6-3.6-0.9c-2.3-0.6-4.2-1.7-5.5-3.3s-2-3.5-2-5.8c0-3.1,1.1-5.6,3.4-7.5
		c2.3-1.9,5.4-2.8,9.2-2.8c2.5,0,4.8,0.4,7,1.2c2.2,0.8,3.9,1.8,5.3,2.9l-3.3,5.3c-0.5,0.9-1.3,1-2.2,0.5c-2.6-1.5-5.2-2.3-7.7-2.3
		c-1,0-1.8,0.2-2.4,0.6c-0.6,0.4-0.9,0.9-0.9,1.6c0,0.5,0.2,1,0.6,1.4c0.4,0.4,0.9,0.7,1.5,0.8c1.4,0.4,3.3,1,5.8,1.6
		c3.2,0.7,5.6,2,7.3,3.8c1.7,1.8,2.5,4,2.5,6.4c0,3.2-1.2,5.7-3.5,7.6S325,46.8,320.9,46.8z"/>
	<path class="st0" d="M365.8,42.2c-3,3.1-7,4.7-12,4.7c-5,0-9.1-1.6-12-4.7c-3-3.1-4.5-7.3-4.5-12.5c0-5.2,1.5-9.4,4.5-12.5
		c3-3.1,7-4.7,12-4.7c5,0,9.1,1.6,12,4.7c3,3.1,4.5,7.3,4.5,12.5C370.3,34.9,368.8,39.1,365.8,42.2z M348.1,36.5
		c1.3,1.7,3.2,2.6,5.6,2.6s4.3-0.9,5.6-2.6c1.3-1.7,2-4,2-6.8c0-2.8-0.7-5.1-2-6.8s-3.2-2.6-5.6-2.6s-4.3,0.9-5.6,2.6s-2,4-2,6.8
		C346.1,32.5,346.8,34.7,348.1,36.5z"/>
	<path class="st0" d="M413.8,21h-9.6v13.3c0,1.1,0.3,2,1,2.7c0.6,0.7,1.5,1,2.6,1h3.7c0.7,0,1.3,0.2,1.7,0.6c0.4,0.4,0.6,1,0.6,1.7
		v5.9h-6.8c-3.7,0-6.5-1.1-8.6-3.2c-2.1-2.1-3.1-5-3.1-8.7V21h-2.9c-0.7,0-1.2-0.2-1.7-0.7c-0.4-0.4-0.6-1-0.6-1.7v-5.5h5.2v-11h8.9
		v11h9.6V21z"/>
	<path class="st0" d="M441.4,13.2h8.9v32.9h-6.7c-0.3,0-0.6-0.1-0.9-0.4c-0.2-0.2-0.3-0.5-0.3-0.9v-2.4c-2.3,2.8-5.3,4.3-8.8,4.3
		c-4.3,0-7.6-1.1-9.8-3.4c-2.2-2.3-3.3-5.7-3.3-10.2V13.2h8.9v18.5c0,2.5,0.4,4.4,1.2,5.5c0.8,1.2,2.3,1.8,4.4,1.8
		c2,0,3.6-0.6,4.7-1.9c1.1-1.3,1.7-3.1,1.7-5.4V13.2z"/>
	<path class="st0" d="M479,21h-9.6v13.3c0,1.1,0.3,2,1,2.7c0.6,0.7,1.5,1,2.6,1h3.7c0.7,0,1.3,0.2,1.7,0.6c0.4,0.4,0.6,1,0.6,1.7
		v5.9h-6.8c-3.7,0-6.5-1.1-8.6-3.2c-2.1-2.1-3.1-5-3.1-8.7V21h-2.9c-0.7,0-1.2-0.2-1.7-0.7c-0.4-0.4-0.6-1-0.6-1.7v-5.5h5.2v-11h8.9
		v11h9.6V21z"/>
	<path class="st0" d="M506,21h-9.6v13.3c0,1.1,0.3,2,1,2.7c0.6,0.7,1.5,1,2.6,1h3.7c0.7,0,1.3,0.2,1.7,0.6c0.4,0.4,0.6,1,0.6,1.7
		v5.9h-6.8c-3.7,0-6.5-1.1-8.6-3.2c-2.1-2.1-3.1-5-3.1-8.7V21h-2.9c-0.7,0-1.2-0.2-1.7-0.7c-0.4-0.4-0.6-1-0.6-1.7v-5.5h5.2v-11h8.9
		v11h9.6V21z"/>
	<path class="st0" d="M539,42.2c-3,3.1-7,4.7-12,4.7c-5,0-9.1-1.6-12-4.7c-3-3.1-4.5-7.3-4.5-12.5c0-5.2,1.5-9.4,4.5-12.5
		c3-3.1,7-4.7,12-4.7c5,0,9.1,1.6,12,4.7c3,3.1,4.5,7.3,4.5,12.5C543.5,34.9,542,39.1,539,42.2z M521.4,36.5
		c1.3,1.7,3.2,2.6,5.6,2.6s4.3-0.9,5.6-2.6c1.3-1.7,2-4,2-6.8c0-2.8-0.7-5.1-2-6.8s-3.2-2.6-5.6-2.6s-4.3,0.9-5.6,2.6s-2,4-2,6.8
		C519.3,32.5,520,34.7,521.4,36.5z"/>
	<path class="st0" d="M19,72.5c4.3,0,7.5,1.2,9.7,3.6c2.2,2.4,3.3,5.9,3.3,10.5v19.5h-8.9V87.6c0-2.5-0.4-4.4-1.2-5.5
		c-0.8-1.2-2.3-1.8-4.4-1.8c-2.1,0-3.7,0.6-4.9,1.9c-1.2,1.3-1.8,3.1-1.8,5.4v18.5H2V62.2h8.9v13.7C13.2,73.6,15.9,72.5,19,72.5z"/>
	<path class="st0" d="M68.6,97.7c0.4,0.4,0.7,1.2,0.7,2.2v6.3h-0.9c-3.8,0-6.6-1.2-8.3-3.7c-2.7,2.8-6.6,4.3-11.7,4.3
		c-3.3,0-5.9-0.9-7.8-2.6c-1.9-1.7-2.9-4.1-2.9-7.1c0-2.9,0.9-5.2,2.8-7.2c1.8-1.9,4.6-3.1,8.4-3.7c4.8-0.6,8-1.3,9.6-2.2v-0.1
		c0-1.1-0.5-1.9-1.5-2.6c-1-0.7-2.3-1-3.7-1c-0.8,0-1.6,0.1-2.2,0.2c-0.7,0.1-1.3,0.3-1.9,0.5s-1.1,0.4-1.3,0.5s-0.7,0.4-1.3,0.7
		c-0.6,0.4-0.9,0.5-0.9,0.6c-0.7,0.4-1.5,0.5-2.2,0.4c-0.7-0.1-1.3-0.5-1.7-1l-2.7-3.8c0.4-0.5,1-1.1,1.7-1.7
		c0.7-0.6,1.7-1.2,2.8-1.9c1.1-0.7,2.5-1.2,4.1-1.6s3.2-0.6,4.9-0.6c4.8,0,8.5,1.1,11,3.4c2.5,2.2,3.8,5.6,3.8,10v9.3
		C67.3,96.3,67.7,97.2,68.6,97.7L68.6,97.7z M49.6,99.3c0.9,0,1.8-0.1,2.5-0.2c0.8-0.1,1.6-0.3,2.4-0.7c0.8-0.3,1.5-0.8,2.1-1.3
		c0.6-0.5,1-1.3,1.4-2.2c0.4-0.9,0.5-1.9,0.5-3.1v-0.9c-1.7,1.4-4.3,2.1-7.7,2.2c-1.6,0.2-2.8,0.5-3.5,1c-0.8,0.5-1.1,1.3-1.1,2.3
		c0,0.9,0.3,1.6,0.9,2.1C47.7,99,48.5,99.3,49.6,99.3z"/>
	<path class="st0" d="M110.5,72.6c4.9,0,8.6,1.5,11.3,4.5c2.7,3,4,7.2,4,12.6c0,5.2-1.4,9.3-4.1,12.4c-2.7,3.1-6.3,4.6-10.9,4.6
		c-4,0-7.4-1.5-10.2-4.6v2.8c0,0.3-0.1,0.6-0.4,0.9c-0.2,0.2-0.5,0.4-0.9,0.4h-6.7V62.2h8.9v13.5C104,73.6,107,72.6,110.5,72.6z
		 M109.3,99c2.3,0,4.2-0.9,5.6-2.6s2.1-4,2.1-6.8c0-2.8-0.7-5-2-6.8c-1.3-1.7-3.2-2.6-5.5-2.6c-2.4,0-4.3,0.8-5.7,2.5
		c-1.4,1.7-2.1,3.9-2.1,6.7V90c0,2.8,0.7,5,2,6.6C105,98.2,106.9,99,109.3,99z"/>
	<path class="st0" d="M136.3,69.7c-1.4,0-2.5-0.5-3.4-1.4c-0.9-0.9-1.4-2.1-1.4-3.4c0-1.4,0.5-2.6,1.4-3.5c0.9-0.9,2-1.4,3.4-1.4
		c1.4,0,2.6,0.5,3.5,1.4c0.9,0.9,1.4,2.1,1.4,3.5c0,1.4-0.5,2.5-1.4,3.4C138.9,69.2,137.7,69.7,136.3,69.7z M131.9,106.1V73.2h8.9
		v32.9H131.9z"/>
	<path class="st0" d="M160.2,106.8c-2.8,0-5.4-0.4-7.8-1.2c-2.4-0.8-4.4-1.8-5.8-3.1l3.5-5.3c0.3-0.4,0.6-0.6,1-0.7
		c0.4-0.1,0.9,0,1.3,0.3c2.6,1.5,5.2,2.2,7.7,2.2c1.6,0,2.7-0.3,3.5-0.8c0.8-0.5,1.1-1.2,1.1-2c0-0.7-0.2-1.2-0.7-1.7
		c-0.5-0.5-1.2-0.8-2.2-1c-0.7-0.2-1.9-0.5-3.4-0.8c-1.5-0.3-2.7-0.6-3.6-0.9c-2.3-0.6-4.2-1.7-5.5-3.3c-1.3-1.6-2-3.5-2-5.8
		c0-3.1,1.1-5.6,3.4-7.5c2.3-1.9,5.4-2.8,9.2-2.8c2.5,0,4.8,0.4,7,1.2c2.2,0.8,3.9,1.8,5.3,2.9l-3.3,5.3c-0.5,0.9-1.3,1-2.2,0.5
		c-2.6-1.5-5.2-2.3-7.7-2.3c-1,0-1.8,0.2-2.4,0.6c-0.6,0.4-0.9,0.9-0.9,1.6c0,0.5,0.2,1,0.6,1.4c0.4,0.4,0.9,0.7,1.5,0.8
		c1.4,0.4,3.3,1,5.8,1.6c3.2,0.7,5.6,2,7.3,3.8c1.7,1.8,2.5,4,2.5,6.4c0,3.2-1.2,5.7-3.5,7.6C167.5,105.8,164.3,106.8,160.2,106.8z"
		/>
	<path class="st0" d="M205.1,102.2c-3,3.1-7,4.7-12,4.7c-5,0-9.1-1.6-12-4.7c-3-3.1-4.5-7.3-4.5-12.5c0-5.2,1.5-9.4,4.5-12.5
		c3-3.1,7-4.7,12-4.7c5,0,9.1,1.6,12,4.7c3,3.1,4.5,7.3,4.5,12.5C209.6,94.9,208.1,99.1,205.1,102.2z M187.5,96.5
		c1.3,1.7,3.2,2.6,5.6,2.6s4.3-0.9,5.6-2.6c1.3-1.7,2-4,2-6.8c0-2.8-0.7-5.1-2-6.8c-1.3-1.7-3.2-2.6-5.6-2.6s-4.3,0.9-5.6,2.6
		c-1.3,1.7-2,4-2,6.8C185.4,92.5,186.1,94.7,187.5,96.5z"/>
	<path class="st0" d="M234.4,100.1c3.7,0,6.5,0.7,8.4,2.2c1.9,1.4,2.9,3.6,2.9,6.4c0,2.9-1.4,5.2-4.1,7.1c-2.7,1.8-6.9,2.7-12.5,2.7
		c-5,0-8.9-0.9-11.8-2.8c-2.8-1.9-4.3-4.2-4.3-7c0-1.8,0.4-3.3,1.3-4.6c0.9-1.3,1.8-2.1,2.7-2.4c-0.5-0.1-1-0.5-1.6-1.3
		c-0.6-0.8-0.9-1.7-0.9-2.8c0-2.1,0.9-3.8,2.8-4.9c-2.2-2.2-3.3-4.9-3.3-8.2c0-3.9,1.3-6.8,3.8-8.9c2.5-2.1,5.9-3.1,10.3-3.1
		c3.4,0,6.2,0.6,8.5,1.9c0.8-0.8,1.9-1.2,3.3-1.2h4.5v5.1c0,0.6-0.2,1.1-0.5,1.4c-0.4,0.4-0.8,0.5-1.4,0.5h-0.9
		c0.4,1.3,0.7,2.8,0.7,4.3c0,3.8-1.3,6.8-4,8.9c-2.7,2.1-6.3,3.1-10.8,3.1h-2.2c-0.8,0-1.5,0.1-2,0.4c-0.5,0.3-0.8,0.7-0.8,1.3
		c0,1.2,1.2,1.8,3.5,1.8H234.4z M229.3,111.1c2.9,0,5.1-0.3,6.4-0.8c1.4-0.5,2-1.2,2-2c0-1.3-1.2-2-3.6-2h-9c-2.5,0-3.8,0.7-3.8,2
		c0,0.8,0.8,1.4,2.3,2C225.1,110.8,227,111.1,229.3,111.1z M232.3,81.2c-1.1-0.8-2.5-1.2-4.2-1.2s-3.2,0.4-4.2,1.2
		c-1,0.8-1.5,1.9-1.5,3.3c0,1.4,0.5,2.6,1.6,3.4c1.1,0.8,2.4,1.2,4.2,1.2c1.8,0,3.2-0.4,4.2-1.2c1-0.8,1.6-1.9,1.6-3.4
		C233.9,83,233.4,81.9,232.3,81.2z"/>
	<path class="st0" d="M267.3,72.6c4.3,0,7.5,1.2,9.7,3.6s3.3,5.9,3.3,10.4v19.5h-8.9V87.6c0-2.5-0.4-4.4-1.2-5.5
		c-0.8-1.2-2.3-1.8-4.4-1.8c-2,0-3.6,0.6-4.7,1.9c-1.1,1.3-1.7,3.1-1.7,5.4v18.5h-8.9V73.2h6.7c0.3,0,0.6,0.1,0.9,0.4
		c0.2,0.2,0.4,0.5,0.4,0.9v2.4C260.8,74,263.7,72.6,267.3,72.6z"/>
	<path class="st0" d="M314.6,102.2c-3,3.1-7,4.7-12,4.7c-5,0-9.1-1.6-12-4.7c-3-3.1-4.5-7.3-4.5-12.5c0-5.2,1.5-9.4,4.5-12.5
		c3-3.1,7-4.7,12-4.7c5,0,9.1,1.6,12,4.7c3,3.1,4.5,7.3,4.5,12.5C319.1,94.9,317.6,99.1,314.6,102.2z M296.9,96.5
		c1.3,1.7,3.2,2.6,5.6,2.6s4.3-0.9,5.6-2.6c1.3-1.7,2-4,2-6.8c0-2.8-0.7-5.1-2-6.8s-3.2-2.6-5.6-2.6s-4.3,0.9-5.6,2.6s-2,4-2,6.8
		C294.9,92.5,295.6,94.7,296.9,96.5z"/>
	<path class="st0" d="M364.2,62.2h8.9v43.9h-6.7c-0.3,0-0.6-0.1-0.9-0.4c-0.2-0.2-0.4-0.5-0.4-0.9v-2.8c-2.8,3.1-6.2,4.6-10.2,4.6
		c-4.5,0-8.1-1.5-10.8-4.6c-2.7-3.1-4.1-7.2-4.1-12.4c0-5.4,1.3-9.6,4-12.6s6.4-4.5,11.3-4.5c3.5,0,6.5,1,8.8,3V62.2z M356.6,99
		c2.4,0,4.2-0.8,5.6-2.4c1.4-1.6,2-3.8,2-6.6v-0.6c0-2.8-0.7-4.9-2.1-6.6c-1.4-1.6-3.3-2.4-5.6-2.4c-2.3,0-4.2,0.9-5.5,2.6
		c-1.3,1.7-2,4-2,6.8c0,2.8,0.7,5,2.1,6.8C352.4,98.1,354.3,99,356.6,99z"/>
	<path class="st0" d="M386.3,69.7c-1.4,0-2.5-0.5-3.4-1.4c-0.9-0.9-1.4-2.1-1.4-3.4c0-1.4,0.5-2.6,1.4-3.5c0.9-0.9,2.1-1.4,3.4-1.4
		c1.4,0,2.6,0.5,3.5,1.4c0.9,0.9,1.4,2.1,1.4,3.5c0,1.4-0.5,2.5-1.4,3.4C388.9,69.2,387.7,69.7,386.3,69.7z M381.9,106.1V73.2h8.9
		v32.9H381.9z"/>
	<path class="st0" d="M437,81h-9.6v13.3c0,1.1,0.3,2,1,2.7c0.6,0.7,1.5,1,2.6,1h3.7c0.7,0,1.3,0.2,1.7,0.6c0.4,0.4,0.6,1,0.6,1.7
		v5.9h-6.8c-3.7,0-6.5-1.1-8.6-3.2c-2.1-2.1-3.1-5-3.1-8.7V81h-2.9c-0.7,0-1.2-0.2-1.7-0.7c-0.4-0.4-0.6-1-0.6-1.7v-5.5h5.2v-11h8.9
		v11h9.6V81z"/>
	<path class="st0" d="M458.3,72.5c5,0,9,1.6,12.1,4.9c3.1,3.3,4.6,7.6,4.6,12.9v1.5c0,0.3-0.1,0.6-0.4,0.9s-0.5,0.4-0.9,0.4h-23.1
		c0.5,1.9,1.4,3.3,2.7,4.4c1.3,1.1,2.9,1.7,4.9,1.7c1.5,0,2.7-0.4,3.8-1.1s1.9-1.5,2.4-2.5c0.4-0.6,1-0.7,1.6-0.5l7.4,2.6
		c-1.1,2.9-3,5.2-5.6,6.8s-5.8,2.5-9.7,2.5c-5.1,0-9.1-1.6-12.2-4.7c-3.1-3.1-4.6-7.3-4.6-12.3c0-5.2,1.5-9.4,4.6-12.5
		S453.2,72.5,458.3,72.5z M458.3,80.3c-1.8,0-3.3,0.5-4.6,1.4c-1.3,1-2.2,2.3-2.7,4h14.6c-0.6-1.7-1.5-3-2.8-4
		C461.5,80.7,460,80.3,458.3,80.3z"/>
</g>
</svg>
