<svg xmlns="http://www.w3.org/2000/svg" xmlns:xlink="http://www.w3.org/1999/xlink" width="773.9" height="101" xmlns:v="https://vecta.io/nano"><g fill="#6a3f24"><path d="M16.3 35.9c-3.3 0-6.2-.7-8.7-2.2S3.3 30.2 2 27.6 0 22 0 18.5c0-3.4.7-6.5 2-9.1s3.2-4.6 5.7-6.1 5.4-2.2 8.7-2.2 6.2.7 8.7 2.2 4.4 3.5 5.7 6.1 2 5.6 2 9.1c0 5.3-1.5 9.5-4.4 12.6s-7.1 4.8-12.1 4.8zm0-6.6c2.9 0 5.2-1 6.8-3s2.4-4.6 2.4-7.8c0-3.3-.8-5.9-2.4-7.8-1.6-2-3.9-2.9-6.8-2.9s-5.2 1-6.8 3-2.4 4.6-2.4 7.8c0 1 .1 2 .3 3s.5 1.9 1 2.9 1 1.8 1.7 2.5a7.82 7.82 0 0 0 2.6 1.7c1 .4 2.3.6 3.6.6zm35.1-19.2h.4V14c0 .5-.2 1-.5 1.3s-.7.5-1.2.5h-.3c-1.9 0-3.4.6-4.4 1.8s-1.5 2.8-1.5 4.9v12.9h-6.8V10.1h5.1c.3 0 .5.1.7.3s.3.4.3.7v2.5c2-2.3 4.7-3.5 8.2-3.5zm25.4 18.8c.3.3.5.9.5 1.7v4.8h-.7c-2.9 0-5.1-.9-6.4-2.8-2.1 2.2-5.1 3.3-9 3.3-2.5 0-4.5-.7-6-2S53 30.8 53 28.5c0-2.2.7-4 2.1-5.5s3.6-2.4 6.4-2.8c3.7-.4 6.1-1 7.3-1.7v-.1c0-.8-.4-1.5-1.2-2s-1.7-.8-2.9-.8c-.6 0-1.2 0-1.7.1s-1 .2-1.5.4l-1 .4c-.2.1-.5.3-1 .5-.4.3-.7.4-.7.4-.6.3-1.1.4-1.7.3s-1-.3-1.3-.8L54.1 14c.3-.4.8-.9 1.3-1.3.6-.5 1.3-.9 2.1-1.4.9-.5 1.9-.9 3.1-1.2s2.5-.5 3.8-.5c3.7 0 6.5.9 8.5 2.6s2.9 4.3 2.9 7.6v7.1c.1.9.4 1.6 1 2h0zm-14.5 1.2c.7 0 1.3 0 1.9-.1s1.2-.3 1.8-.5c.6-.3 1.1-.6 1.6-1s.8-1 1.1-1.7.4-1.5.4-2.4v-.7c-1.3 1.1-3.3 1.6-5.9 1.7-1.2.1-2.1.4-2.7.8s-.9 1-.9 1.8c0 .7.2 1.2.7 1.6.5.3 1.2.5 2 .5zm47-20.5c3.5 0 6.2 1.2 8.3 3.5 2.1 2.4 3.1 5.5 3.1 9.5 0 4.1-1 7.4-3.1 9.7s-5 3.5-8.7 3.5c-2.7 0-4.9-.7-6.7-2.2v10.2h-6.8V10.1h5.1c.3 0 .5.1.7.3s.3.4.3.7v2.1c2-2.4 4.7-3.6 7.8-3.6zM108 29.9c1.8 0 3.2-.7 4.3-2 1-1.3 1.6-3 1.6-5.2s-.5-3.9-1.5-5.2-2.4-2-4.2-2-3.2.6-4.3 1.8-1.6 2.9-1.6 4.9v.5c0 2.2.5 3.9 1.5 5.1 1 1.4 2.4 2.1 4.2 2.1z"/><use xlink:href="#B"/><use xlink:href="#C"/><path d="M192 35.9c-3.9 0-7-1.2-9.3-3.6s-3.4-5.6-3.4-9.5c0-4.1 1.1-7.3 3.4-9.7s5.4-3.6 9.3-3.6c3 0 5.6.8 7.7 2.3s3.5 3.7 4.2 6.6l-5.2 1c-1 .2-1.7-.1-2.1-.9-.8-2-2.3-3.1-4.5-3.1-1.9 0-3.3.7-4.3 2s-1.5 3.1-1.5 5.3c0 2.1.5 3.8 1.5 5.1s2.5 2 4.3 2c1.3 0 2.3-.3 3-.8s1.3-1.4 1.7-2.5a1.96 1.96 0 0 1 .9-.9c.4-.2.8-.2 1.3-.1l5.2 1c-.6 3-2 5.4-4.2 7s-4.8 2.4-8 2.4zm29.2-26.3c3.3 0 5.8.9 7.5 2.8s2.5 4.5 2.5 8v14.9h-6.8V21.2c0-1.9-.3-3.3-.9-4.2s-1.7-1.4-3.3-1.4-2.8.5-3.7 1.5-1.4 2.4-1.4 4.1v14.2h-6.8V1.7h6.8v10.5c1.6-1.8 3.7-2.6 6.1-2.6zm27.3-.1c3.8 0 6.9 1.3 9.3 3.8s3.6 5.8 3.6 9.9v1.1a1.08 1.08 0 0 1-.3.7c-.2.2-.4.3-.7.3h-17.7c.4 1.4 1.1 2.6 2.1 3.4a5.73 5.73 0 0 0 3.7 1.3c1.1 0 2.1-.3 2.9-.8s1.4-1.2 1.8-1.9c.3-.5.8-.6 1.3-.4l5.7 2c-.9 2.2-2.3 4-4.3 5.2-2 1.3-4.5 1.9-7.4 1.9-3.9 0-7-1.2-9.4-3.6s-3.5-5.6-3.5-9.5c0-4 1.2-7.2 3.6-9.6 2.3-2.5 5.4-3.8 9.3-3.8zm0 6c-1.4 0-2.6.4-3.5 1.1-1 .7-1.7 1.8-2.1 3H254c-.5-1.3-1.2-2.3-2.1-3s-2.1-1.1-3.4-1.1zm58.3-5.9c3.1 0 5.4.9 7 2.8s2.4 4.5 2.4 8v15h-6.8V21.1c0-1.9-.3-3.3-.9-4.2s-1.6-1.3-3-1.3c-1.5 0-2.6.5-3.2 1.4s-1 2.3-1 4.2v14.3h-6.8V21.1c0-1.8-.3-3.2-1-4.1-.6-.9-1.6-1.4-3-1.4-1.5 0-2.6.5-3.2 1.4s-1 2.3-1 4.2v14.2h-6.8V10.1h5.1c.3 0 .5.1.7.3s.3.4.3.7v1.7c1.6-2 3.7-3.1 6.3-3.1 3.6 0 6.2 1.3 7.8 3.8 1.7-2.6 4.1-3.9 7.1-3.9zm37.3 19.3c.3.3.5.9.5 1.7v4.8h-.7c-2.9 0-5.1-.9-6.4-2.8-2.1 2.2-5.1 3.3-9 3.3-2.5 0-4.5-.7-6-2s-2.2-3.1-2.2-5.4c0-2.2.7-4 2.1-5.5s3.6-2.4 6.4-2.8c3.7-.4 6.1-1 7.3-1.7v-.1c0-.8-.4-1.5-1.2-2s-1.7-.8-2.9-.8c-.6 0-1.2 0-1.7.1s-1 .2-1.5.4l-1 .4c-.2.1-.5.3-1 .5-.4.3-.7.4-.7.4-.6.3-1.1.4-1.7.3s-1-.3-1.3-.8L321 14c.3-.4.8-.9 1.3-1.3.6-.5 1.3-.9 2.1-1.4.9-.5 1.9-.9 3.1-1.2s2.5-.5 3.8-.5c3.7 0 6.5.9 8.5 2.6 1.9 1.7 2.9 4.3 2.9 7.6v7.1c.4.9.7 1.6 1.4 2h0zm-14.6 1.2c.7 0 1.3 0 1.9-.1s1.2-.3 1.8-.5c.6-.3 1.1-.6 1.6-1s.8-1 1.1-1.7.4-1.5.4-2.4v-.7c-1.3 1.1-3.3 1.6-5.9 1.7-1.2.1-2.1.4-2.7.8s-.9 1-.9 1.8c0 .7.2 1.2.7 1.6.5.3 1.2.5 2 .5z"/><use xlink:href="#B" x="223.9"/><path d="M379.4 7.4c-1.1 0-2-.3-2.6-1s-1-1.6-1-2.6c0-1.1.3-2 1-2.7s1.6-1.1 2.6-1.1c1.1 0 2 .3 2.7 1s1 1.6 1 2.7-.4 2-1.1 2.6c-.6.8-1.5 1.1-2.6 1.1zM376 35.3V10.1h6.8v25.2H376zm21.9.1c-2.6 0-4.7-.7-6.1-2.2-1.5-1.5-2.2-3.5-2.2-6.2V1.7h6.8v25.4c0 .6.2 1.1.6 1.5s.9.5 1.5.5h1.3c.5 0 .9.2 1.3.5.3.3.5.8.5 1.3v4.5h-3.7zm36.6-19.3h-7.3v10.2c0 .8.2 1.5.7 2s1.1.8 2 .8h2.9c.5 0 1 .2 1.3.5s.5.7.5 1.3v4.5h-5.2c-2.8 0-5-.8-6.6-2.4s-2.4-3.8-2.4-6.7V16.1h-2.2c-.5 0-1-.2-1.3-.5s-.5-.8-.5-1.3v-4.2h4V1.7h6.8v8.4h7.3v6z"/><use xlink:href="#C" x="301.2"/><path d="M489 32.3c-2.3 2.4-5.4 3.6-9.2 3.6s-6.9-1.2-9.2-3.6-3.4-5.6-3.4-9.6 1.1-7.2 3.4-9.6 5.4-3.6 9.2-3.6 6.9 1.2 9.2 3.6 3.4 5.6 3.4 9.6c.1 4-1.1 7.2-3.4 9.6zm-13.5-4.4c1 1.3 2.5 2 4.3 2s3.3-.7 4.3-2 1.5-3.1 1.5-5.2-.5-3.9-1.5-5.2-2.5-2-4.3-2-3.3.7-4.3 2-1.5 3.1-1.5 5.2.5 3.9 1.5 5.2zm51.6-26.2h6.8v33.7h-5.1c-.3 0-.5-.1-.7-.3s-.3-.4-.3-.7v-2.2c-2.1 2.4-4.7 3.6-7.8 3.6-3.5 0-6.2-1.2-8.3-3.6s-3.1-5.5-3.1-9.5c0-4.1 1-7.4 3.1-9.7s4.9-3.5 8.7-3.5c2.7 0 5 .8 6.8 2.3V1.7zm-5.9 28.2c1.8 0 3.2-.6 4.3-1.9 1-1.2 1.6-2.9 1.6-5.1v-.5c0-2.1-.5-3.8-1.6-5s-2.5-1.9-4.3-1.9-3.2.7-4.2 2-1.5 3-1.5 5.2.5 3.9 1.6 5.2c.9 1.3 2.3 2 4.1 2zm39.3 2.4c-2.3 2.4-5.4 3.6-9.2 3.6-3.9 0-6.9-1.2-9.2-3.6s-3.4-5.6-3.4-9.6 1.1-7.2 3.4-9.6 5.4-3.6 9.2-3.6c3.9 0 6.9 1.2 9.2 3.6s3.4 5.6 3.4 9.6c.1 4-1.1 7.2-3.4 9.6zM547 27.9c1 1.3 2.5 2 4.3 2s3.3-.7 4.3-2 1.5-3.1 1.5-5.2-.5-3.9-1.5-5.2-2.5-2-4.3-2-3.3.7-4.3 2-1.5 3.1-1.5 5.2.5 3.9 1.5 5.2zm34.5-18.3c3.3 0 5.8.9 7.5 2.8s2.5 4.5 2.5 8v14.9h-6.8V21.2c0-1.9-.3-3.3-.9-4.2s-1.7-1.4-3.3-1.4-2.8.5-3.6 1.5c-.9 1-1.3 2.4-1.3 4.2v14.2h-6.8V10.1h5.1c.3 0 .5.1.7.3s.3.4.3.7V13c1.6-2.3 3.9-3.4 6.6-3.4zm36.3 22.7c-2.3 2.4-5.4 3.6-9.2 3.6-3.9 0-6.9-1.2-9.2-3.6s-3.4-5.6-3.4-9.6 1.1-7.2 3.4-9.6 5.4-3.6 9.2-3.6c3.9 0 6.9 1.2 9.2 3.6s3.4 5.6 3.4 9.6-1.1 7.2-3.4 9.6zm-13.5-4.4c1 1.3 2.5 2 4.3 2s3.3-.7 4.3-2 1.5-3.1 1.5-5.2-.5-3.9-1.5-5.2-2.5-2-4.3-2-3.3.7-4.3 2-1.5 3.1-1.5 5.2.4 3.9 1.5 5.2zm56.7 1c.3.3.5.9.5 1.7v4.8h-.7c-2.9 0-5.1-.9-6.4-2.8-2.1 2.2-5.1 3.3-9 3.3-2.5 0-4.5-.7-6-2s-2.2-3.1-2.2-5.4c0-2.2.7-4 2.1-5.5s3.6-2.4 6.5-2.8c3.7-.4 6.1-1 7.3-1.7v-.1c0-.8-.4-1.5-1.2-2s-1.7-.8-2.9-.8c-.6 0-1.2 0-1.7.1s-1 .2-1.5.4l-1 .4c-.2.1-.5.3-1 .5-.4.3-.7.4-.7.4-.6.3-1.1.4-1.7.3s-1-.3-1.3-.8L638 14c.3-.4.8-.9 1.3-1.3.6-.5 1.3-.9 2.1-1.4.9-.5 1.9-.9 3.1-1.2s2.5-.5 3.8-.5c3.7 0 6.5.9 8.5 2.6 1.9 1.7 2.9 4.3 2.9 7.6v7.1c.3.9.6 1.6 1.3 2h0zm-14.6 1.2c.7 0 1.3 0 1.9-.1s1.2-.3 1.8-.5c.6-.3 1.1-.6 1.6-1 .4-.4.8-1 1.1-1.7s.4-1.5.4-2.4v-.7c-1.3 1.1-3.3 1.6-5.9 1.7-1.2.1-2.1.4-2.7.8s-.9 1-.9 1.8c0 .7.2 1.2.7 1.6.5.3 1.2.5 2 .5zm23-22.7c-1.1 0-2-.3-2.6-1s-1-1.6-1-2.6c0-1.1.3-2 1-2.7s1.6-1.1 2.6-1.1c1.1 0 2 .3 2.7 1s1 1.6 1 2.7-.4 2-1.1 2.6-1.5 1.1-2.6 1.1zM666 35.3V10.1h6.8v25.2H666zm29.3-25.2h6.8v25.2H697c-.3 0-.5-.1-.7-.3s-.3-.4-.3-.7v-1.9c-1.8 2.2-4 3.3-6.8 3.3-3.3 0-5.8-.9-7.5-2.6-1.7-1.8-2.5-4.4-2.5-7.8V10.1h6.8v14.2c0 1.9.3 3.3.9 4.2s1.7 1.4 3.3 1.4 2.8-.5 3.6-1.5c.9-1 1.3-2.4 1.3-4.2V10.1zm28.8 6h-7.3v10.2c0 .8.2 1.5.7 2s1.1.8 2 .8h2.9c.5 0 1 .2 1.3.5s.5.7.5 1.3v4.5H719c-2.8 0-5-.8-6.6-2.4s-2.4-3.8-2.4-6.7V16.1h-2.2c-.5 0-1-.2-1.3-.5s-.5-.8-.5-1.3v-4.2h4V1.7h6.8v8.4h7.3v6zm27 12.8c.3.3.5.9.5 1.7v4.8h-.6c-2.9 0-5.1-.9-6.4-2.8-2.1 2.2-5.1 3.3-9 3.3-2.5 0-4.5-.7-6-2s-2.2-3.1-2.2-5.4c0-2.2.7-4 2.1-5.5s3.6-2.4 6.5-2.8c3.7-.4 6.1-1 7.3-1.7v-.1c0-.8-.4-1.5-1.2-2s-1.7-.8-2.9-.8c-.6 0-1.2 0-1.7.1s-1 .2-1.5.4l-1 .4c-.2.1-.5.3-1 .5-.4.3-.7.4-.7.4-.6.3-1.1.4-1.7.3s-1-.3-1.3-.8l-2.1-2.9c.3-.4.8-.9 1.3-1.3.6-.5 1.3-.9 2.1-1.4.9-.5 1.9-.9 3.1-1.2s2.5-.5 3.8-.5c3.7 0 6.5.9 8.5 2.6 1.9 1.7 2.9 4.3 2.9 7.6v7.1c.2.9.5 1.6 1.2 2h0zm-14.6 1.2c.7 0 1.3 0 1.9-.1s1.2-.3 1.8-.5c.6-.3 1.1-.6 1.6-1 .4-.4.8-1 1.1-1.7s.4-1.5.4-2.4v-.7c-1.3 1.1-3.3 1.6-5.9 1.7-1.2.1-2.1.4-2.7.8s-.9 1-.9 1.8c0 .7.2 1.2.7 1.6.6.3 1.2.5 2 .5zM28.9 66.8c3.1 0 5.4.9 7 2.8 1.6 1.8 2.4 4.5 2.4 8v15h-6.8V78.3c0-1.9-.3-3.3-.9-4.2s-1.6-1.3-3-1.3c-1.5 0-2.6.5-3.2 1.4s-1 2.3-1 4.2v14.3h-6.8V78.3c0-1.8-.3-3.2-1-4.1-.6-.9-1.6-1.4-3-1.4-1.5 0-2.6.5-3.2 1.4s-1 2.3-1 4.2v14.2H1.6V67.3h5.1c.3 0 .5.1.7.3s.3.4.3.7V70c1.6-2 3.7-3.1 6.3-3.1 3.6 0 6.2 1.3 7.8 3.8 1.7-2.6 4.1-3.9 7.1-3.9zm37.3 19.3c.3.3.5.9.5 1.7v4.8H66c-2.9 0-5.1-.9-6.4-2.8-2.1 2.2-5.1 3.3-9 3.3-2.5 0-4.5-.7-6-2s-2.2-3.1-2.2-5.4c0-2.2.7-4 2.1-5.5s3.6-2.4 6.4-2.8c3.7-.4 6.1-1 7.3-1.7v-.1c0-.8-.4-1.5-1.2-2s-1.7-.8-2.9-.8c-.6 0-1.2 0-1.7.1s-1 .2-1.5.4l-1 .4c-.2.1-.5.3-1 .5s-.7.4-.7.4c-.6.3-1.1.4-1.7.3s-1-.3-1.3-.8l-2.1-2.9c.3-.4.8-.9 1.3-1.3.6-.5 1.3-.9 2.1-1.4.9-.5 1.9-.9 3.1-1.2s2.5-.5 3.8-.5c3.7 0 6.5.9 8.5 2.6 1.9 1.7 2.9 4.3 2.9 7.6v7.1c.4 1 .7 1.6 1.4 2h0zm-14.6 1.2c.7 0 1.3 0 1.9-.1s1.2-.3 1.8-.5c.6-.3 1.1-.6 1.6-1 .4-.4.8-1 1.1-1.7s.4-1.5.4-2.4v-.7c-1.3 1.1-3.3 1.6-5.9 1.7-1.2.1-2.1.4-2.7.8s-.9 1-.9 1.8c0 .7.2 1.2.7 1.6.6.3 1.2.5 2 .5zm47-20.5c3.1 0 5.4.9 7 2.8 1.6 1.8 2.4 4.5 2.4 8v15h-6.8V78.3c0-1.9-.3-3.3-.9-4.2s-1.6-1.3-3-1.3c-1.5 0-2.6.5-3.2 1.4s-1 2.3-1 4.2v14.3h-6.8V78.3c0-1.8-.3-3.2-1-4.1-.6-.9-1.6-1.4-3-1.4-1.5 0-2.6.5-3.2 1.4s-1 2.3-1 4.2v14.2h-6.8V67.3h5.1c.3 0 .5.1.7.3s.3.4.3.7V70c1.6-2 3.7-3.1 6.3-3.1 3.6 0 6.2 1.3 7.8 3.8 1.8-2.6 4.2-3.9 7.1-3.9zm43.1 0c3.1 0 5.4.9 7 2.8 1.6 1.8 2.4 4.5 2.4 8v15h-6.8V78.3c0-1.9-.3-3.3-.9-4.2s-1.6-1.3-3-1.3c-1.5 0-2.6.5-3.2 1.4s-1 2.3-1 4.2v14.3h-6.8V78.3c0-1.8-.3-3.2-1-4.1-.6-.9-1.6-1.4-3-1.4-1.5 0-2.6.5-3.2 1.4s-1 2.3-1 4.2v14.2h-6.8V67.3h5.1c.3 0 .5.1.7.3s.3.4.3.7V70c1.6-2 3.7-3.1 6.3-3.1 3.6 0 6.2 1.3 7.8 3.8 1.7-2.6 4.1-3.9 7.1-3.9zm26.6 0c3.8 0 6.9 1.3 9.3 3.8s3.6 5.8 3.6 9.9v1.1a1.08 1.08 0 0 1-.3.7c-.2.2-.4.3-.7.3h-17.7c.4 1.4 1.1 2.6 2.1 3.4a5.73 5.73 0 0 0 3.7 1.3c1.1 0 2.1-.3 2.9-.8s1.4-1.2 1.8-1.9c.3-.5.8-.6 1.3-.4l5.7 2c-.9 2.2-2.3 4-4.3 5.2-2 1.3-4.5 1.9-7.4 1.9-3.9 0-7-1.2-9.4-3.6s-3.5-5.6-3.5-9.5c0-4 1.2-7.2 3.6-9.6 2.3-2.6 5.4-3.8 9.3-3.8zm0 6c-1.4 0-2.6.4-3.5 1.1-1 .7-1.7 1.8-2.1 3h11.2c-.5-1.3-1.2-2.3-2.1-3-1.1-.8-2.2-1.1-3.5-1.1zm41.8-6c3.8 0 6.9 1.3 9.3 3.8s3.6 5.8 3.6 9.9v1.1a1.08 1.08 0 0 1-.3.7c-.2.2-.4.3-.7.3h-17.7c.4 1.4 1.1 2.6 2.1 3.4a5.73 5.73 0 0 0 3.7 1.3c1.1 0 2.1-.3 2.9-.8s1.4-1.2 1.8-1.9c.3-.5.8-.6 1.3-.4l5.7 2c-.9 2.2-2.3 4-4.3 5.2-2 1.3-4.5 1.9-7.4 1.9-3.9 0-7-1.2-9.4-3.6s-3.5-5.6-3.5-9.5c0-4 1.2-7.2 3.6-9.6 2.3-2.6 5.5-3.8 9.3-3.8zm0 6c-1.4 0-2.6.4-3.5 1.1-1 .7-1.7 1.8-2.1 3h11.2c-.5-1.3-1.2-2.3-2.1-3-1-.8-2.2-1.1-3.5-1.1zm44.9-5.9c3.5 0 6.2 1.2 8.3 3.5s3.1 5.5 3.1 9.5c0 4.1-1 7.4-3.1 9.7s-5 3.5-8.7 3.5c-2.7 0-4.9-.7-6.7-2.2V101H241V67.3h5.1c.3 0 .5.1.7.3s.3.4.3.7v2.1c2.1-2.4 4.8-3.5 7.9-3.5zm-1.3 20.2c1.8 0 3.2-.7 4.3-2 1-1.3 1.6-3 1.6-5.2s-.5-3.9-1.5-5.2-2.4-2-4.2-2-3.2.6-4.3 1.8-1.6 2.9-1.6 4.9v.5c0 2.2.5 3.9 1.5 5.1s2.4 2.1 4.2 2.1zm39-1c.3.3.5.9.5 1.7v4.8h-.7c-2.9 0-5.1-.9-6.4-2.8-2.1 2.2-5.1 3.3-9 3.3-2.5 0-4.5-.7-6-2s-2.2-3.1-2.2-5.4c0-2.2.7-4 2.1-5.5s3.6-2.4 6.4-2.8c3.7-.4 6.1-1 7.3-1.7v-.1c0-.8-.4-1.5-1.2-2s-1.7-.8-2.9-.8c-.6 0-1.2 0-1.7.1s-1 .2-1.5.4l-1 .4c-.2.1-.5.3-1 .5-.4.3-.7.4-.7.4-.6.3-1.1.4-1.7.3s-1-.3-1.3-.8l-2.1-2.9c.3-.4.8-.9 1.3-1.3.6-.5 1.3-.9 2.1-1.4.9-.5 1.9-.9 3.1-1.2s2.5-.5 3.8-.5c3.7 0 6.5.9 8.5 2.6 1.9 1.7 2.9 4.3 2.9 7.6v7.1c.4 1 .7 1.6 1.4 2h0zm-14.6 1.2c.7 0 1.3 0 1.9-.1s1.2-.3 1.8-.5c.6-.3 1.1-.6 1.6-1 .4-.4.8-1 1.1-1.7s.4-1.5.4-2.4v-.7c-1.3 1.1-3.3 1.6-5.9 1.7-1.2.1-2.1.4-2.7.8s-.9 1-.9 1.8c0 .7.2 1.2.7 1.6.6.3 1.2.5 2 .5zm33.7-20.4c3.5 0 6.2 1.2 8.3 3.5s3.1 5.5 3.1 9.5c0 4.1-1 7.4-3.1 9.7s-5 3.5-8.7 3.5c-2.7 0-4.9-.7-6.7-2.2V101h-6.8V67.3h5.1c.3 0 .5.1.7.3s.3.4.3.7v2.1c2-2.4 4.6-3.5 7.8-3.5zm-1.3 20.2c1.8 0 3.2-.7 4.3-2s1.6-3 1.6-5.2-.5-3.9-1.5-5.2-2.4-2-4.2-2-3.2.6-4.3 1.8-1.6 2.9-1.6 4.9v.5c0 2.2.5 3.9 1.5 5.1.9 1.5 2.3 2.1 4.2 2.1zm38.9-1c.3.3.5.9.5 1.7v4.8h-.7c-2.9 0-5.1-.9-6.4-2.8-2.1 2.2-5.1 3.3-9 3.3-2.5 0-4.5-.7-6-2s-2.2-3.1-2.2-5.4c0-2.2.7-4 2.1-5.5s3.6-2.4 6.4-2.8c3.7-.4 6.1-1 7.3-1.7v-.1c0-.8-.4-1.5-1.2-2s-1.7-.8-2.9-.8c-.6 0-1.2 0-1.7.1s-1 .2-1.5.4l-1 .4c-.2.1-.5.3-1 .5s-.7.4-.7.4c-.6.3-1.1.4-1.7.3s-1-.3-1.3-.8l-2.1-2.9c.3-.4.8-.9 1.3-1.3.6-.5 1.3-.9 2.1-1.4.9-.5 1.9-.9 3.1-1.2s2.5-.5 3.8-.5c3.7 0 6.5.9 8.5 2.6 1.9 1.7 2.9 4.3 2.9 7.6v7.1c.5 1 .8 1.6 1.4 2h0zm-14.5 1.2c.7 0 1.3 0 1.9-.1s1.2-.3 1.8-.5c.6-.3 1.1-.6 1.6-1 .4-.4.8-1 1.1-1.7s.4-1.5.4-2.4v-.7c-1.3 1.1-3.3 1.6-5.9 1.7-1.2.1-2.1.4-2.7.8s-.9 1-.9 1.8c0 .7.2 1.2.7 1.6.5.3 1.2.5 2 .5z"/><use xlink:href="#D"/><path d="M394.3 66.9c3.3 0 5.8.9 7.5 2.8s2.5 4.5 2.5 8v14.9h-6.8V78.4c0-1.9-.3-3.3-.9-4.2s-1.7-1.4-3.3-1.4-2.8.5-3.6 1.5-1.3 2.4-1.3 4.2v14.2h-6.8V67.3h5.1c.3 0 .5.1.7.3s.3.4.3.7v1.9c1.6-2.2 3.9-3.3 6.6-3.3zm46.3-8h6.8v33.7h-5.1c-.3 0-.5-.1-.7-.3s-.3-.4-.3-.7v-2.2c-2.1 2.4-4.7 3.6-7.8 3.6-3.5 0-6.2-1.2-8.3-3.6s-3.1-5.5-3.1-9.5c0-4.1 1-7.4 3.1-9.7 2-2.3 4.9-3.5 8.7-3.5 2.7 0 5 .8 6.8 2.3V58.9zm-5.8 28.2c1.8 0 3.2-.6 4.3-1.9 1-1.2 1.6-2.9 1.6-5.1v-.5c0-2.1-.5-3.8-1.6-5s-2.5-1.9-4.3-1.9-3.2.7-4.2 2-1.5 3-1.5 5.2.5 3.9 1.6 5.2c.8 1.3 2.3 2 4.1 2z"/><use xlink:href="#D" x="86.2"/><path d="M476.9 58h5.4v4.4c0 .5-.2.9-.5 1.3-.3.3-.8.5-1.3.5h-3.1c-.7 0-1.2.2-1.6.7a2.52 2.52 0 0 0-.6 1.7v.8h4.6v6h-4.6v19.3h-6.8V73.3h-1.5c-.5 0-.9-.2-1.3-.5-.3-.3-.5-.8-.5-1.3v-4.2h3.3v-.8c0-2.7.7-4.8 2.2-6.3 1.6-1.5 3.7-2.2 6.3-2.2zm18.5 0h5.4v4.4c0 .5-.2.9-.5 1.3-.3.3-.8.5-1.3.5h-3.1c-.7 0-1.2.2-1.6.7a2.52 2.52 0 0 0-.6 1.7v.8h4.6v6h-4.6v19.3h-6.8V73.3h-1.5c-.5 0-.9-.2-1.3-.5-.3-.3-.5-.8-.5-1.3v-4.2h3.3v-.8c0-2.7.7-4.8 2.2-6.3s3.6-2.2 6.3-2.2zm12.6 6.7c-1.1 0-2-.3-2.6-1-.7-.7-1-1.6-1-2.6 0-1.1.3-2 1-2.7s1.6-1.1 2.6-1.1c1.1 0 2 .3 2.7 1s1 1.6 1 2.7-.4 2-1.1 2.6c-.7.7-1.5 1.1-2.6 1.1zm-3.4 27.9V67.3h6.8v25.2h-6.8zm24.2.5c-3.9 0-7-1.2-9.3-3.6s-3.4-5.6-3.4-9.5c0-4.1 1.1-7.3 3.4-9.7s5.4-3.6 9.3-3.6c3 0 5.6.8 7.7 2.3s3.5 3.7 4.2 6.6l-5.2 1c-1 .2-1.7-.1-2.1-.9-.8-2-2.3-3.1-4.5-3.1-1.9 0-3.3.7-4.3 2s-1.5 3.1-1.5 5.3c0 2.1.5 3.8 1.5 5.1s2.5 2 4.3 2c1.3 0 2.3-.3 3-.8.7-.6 1.3-1.4 1.7-2.5a1.96 1.96 0 0 1 .9-.9c.4-.2.8-.2 1.3-.1l5.2 1c-.6 3-2 5.4-4.2 7s-4.9 2.4-8 2.4zm36.3-3.5c-2.3 2.4-5.4 3.6-9.2 3.6-3.9 0-6.9-1.2-9.2-3.6s-3.4-5.6-3.4-9.6 1.1-7.2 3.4-9.6 5.4-3.6 9.2-3.6c3.9 0 6.9 1.2 9.2 3.6s3.4 5.6 3.4 9.6c.1 4-1.1 7.2-3.4 9.6zm-13.5-4.4c1 1.3 2.5 2 4.3 2s3.3-.7 4.3-2 1.5-3.1 1.5-5.2-.5-3.9-1.5-5.2-2.5-2-4.3-2-3.3.7-4.3 2-1.5 3.1-1.5 5.2.5 3.8 1.5 5.2zm30 7.5c-2.6 0-4.7-.7-6.1-2.2-1.5-1.5-2.2-3.5-2.2-6.2V58.9h6.8v25.4c0 .6.2 1.1.6 1.5s.9.5 1.5.5h1.3c.5 0 .9.2 1.3.5.3.3.5.8.5 1.3v4.5h-3.7zm23.2-19.4h-7.3v10.2c0 .8.2 1.5.7 2s1.1.8 2 .8h2.9c.5 0 1 .2 1.3.5s.5.7.5 1.3v4.5h-5.2c-2.8 0-5-.8-6.6-2.4s-2.4-3.8-2.4-6.7V73.3h-2.2c-.5 0-1-.2-1.3-.5s-.5-.8-.5-1.3v-4.2h4v-8.4h6.8v8.4h7.3v6zm27 12.8c.3.3.5.9.5 1.7v4.8h-.7c-2.9 0-5.1-.9-6.4-2.8-2.1 2.2-5.1 3.3-9 3.3-2.5 0-4.5-.7-6-2S608 88 608 85.7c0-2.2.7-4 2.1-5.5s3.6-2.4 6.4-2.8c3.7-.4 6.1-1 7.3-1.7v-.1c0-.8-.4-1.5-1.2-2s-1.7-.8-2.9-.8c-.6 0-1.2 0-1.7.1s-1 .2-1.5.4l-1 .4c-.2.1-.5.3-1 .5-.4.3-.7.4-.7.4-.6.3-1.1.4-1.7.3s-1-.3-1.3-.8l-2.1-2.9c.3-.4.8-.9 1.3-1.3.6-.5 1.3-.9 2.1-1.4.9-.5 1.9-.9 3.1-1.2s2.5-.5 3.8-.5c3.7 0 6.5.9 8.5 2.6 1.9 1.7 2.9 4.3 2.9 7.6v7.1c.4 1 .7 1.6 1.4 2h0zm-14.6 1.2c.7 0 1.3 0 1.9-.1s1.2-.3 1.8-.5c.6-.3 1.1-.6 1.6-1 .4-.4.8-1 1.1-1.7s.4-1.5.4-2.4v-.7c-1.3 1.1-3.3 1.6-5.9 1.7-1.2.1-2.1.4-2.7.8s-.9 1-.9 1.8c0 .7.2 1.2.7 1.6.6.3 1.2.5 2 .5z"/><use xlink:href="#E"/><use xlink:href="#E" x="279.7" y="-0.3"/><path d="M154.9 6.2h-1.5c-1.3 0-2.5-.2-3.4-.6s-1.9-1.1-2.7-1.9L144.5.9c-.2-.2-.2-.4-.2-.6s.3-.3.5-.3h3.1c.9 0 1.6.2 2.3.5s1.2.7 1.5 1.1l3.2 4.6h0z"/></g><defs ><path id="B" d="M128.6 7.4c-1.1 0-2-.3-2.6-1-.7-.7-1-1.6-1-2.6 0-1.1.3-2 1-2.7s1.6-1.1 2.6-1.1c1.1 0 2 .3 2.7 1s1 1.6 1 2.7-.4 2-1.1 2.6-1.5 1.1-2.6 1.1zm-3.4 27.9V10.1h6.8v25.2h-6.8z"/><path id="C" d="M154.4 10.1h6.8v25.2h-5.1c-.3 0-.5-.1-.7-.3s-.3-.4-.3-.7v-1.9c-1.8 2.2-4 3.3-6.8 3.3-3.3 0-5.8-.9-7.5-2.6-1.7-1.8-2.5-4.4-2.5-7.8V10.1h6.8v14.2c0 1.9.3 3.3.9 4.2s1.7 1.4 3.3 1.4 2.8-.5 3.6-1.5 1.3-2.4 1.3-4.2V10.1z"/><path id="D" d="M371.3 64.7c-1.1 0-2-.3-2.6-1-.7-.7-1-1.6-1-2.6 0-1.1.3-2 1-2.7s1.6-1.1 2.6-1.1c1.1 0 2 .3 2.7 1s1 1.6 1 2.7-.4 2-1.1 2.6c-.6.7-1.5 1.1-2.6 1.1zm-3.4 27.9V67.3h6.8v25.2h-6.8z"/><path id="E" d="M344.9 63.3h-1.5c-1.3 0-2.5-.2-3.4-.6s-1.9-1.1-2.7-1.9l-2.8-2.8c-.2-.2-.2-.4-.2-.6s.3-.3.5-.3h3.1c.9 0 1.6.2 2.3.5s1.2.7 1.5 1.1c0 0 3.2 4.6 3.2 4.6z"/></defs></svg>