<?xml version="1.0" encoding="utf-8"?>
<!-- Generator: Adobe Illustrator 24.3.0, SVG Export Plug-In . SVG Version: 6.00 Build 0)  -->
<svg version="1.1" id="Laag_1" xmlns="http://www.w3.org/2000/svg" xmlns:xlink="http://www.w3.org/1999/xlink" x="0px" y="0px"
	 width="159.5px" height="21.5px" viewBox="0 0 159.5 21.5" style="enable-background:new 0 0 159.5 21.5;" xml:space="preserve">
<style type="text/css">
	.st0{fill:#FFFFFF;}
</style>
<g>
	<path class="st0" d="M4.6,9.6V21H0V0l12.9,11.9V0.6h4.6v20.9L4.6,9.6z"/>
	<path class="st0" d="M32.8,21.3c-6,0-8.4-3.7-8.4-8.2V0.9H29v11.8c0,3.1,1.1,4.5,3.8,4.5c2.7,0,3.6-1.4,3.6-4.5V0.9H41v12.2
		C41,17.4,38.8,21.3,32.8,21.3z"/>
	<path class="st0" d="M60.3,4.3V21h-4.6V4.3h-4.2V0.6h13.1v3.7H60.3z"/>
	<path class="st0" d="M69.3,21V0.6h11.9v3.7h-7.3v4.4h6.5v3.7h-6.5v4.7h8V21H69.3z"/>
	<path class="st0" d="M98.3,17.1h9.8V21H90.5l10.7-16.7h-9.2V0.6h16.7L98.3,17.1z"/>
	<path class="st0" d="M113,21V0.6h4.6V21H113z"/>
	<path class="st0" d="M123.7,21V0.6h11.9v3.7h-7.3v4.4h6.5v3.7h-6.5v4.7h8V21H123.7z"/>
	<path class="st0" d="M146.6,9.6V21H142V0L155,11.9V0.6h4.6v20.9L146.6,9.6z"/>
</g>
</svg>
