<svg width="148" height="66" viewBox="0 0 148 66" xmlns="http://www.w3.org/2000/svg"><g fill="none" fill-rule="evenodd"><path d="M14.1 29.8C5.4 29.8 0 24.1 0 14.9.1 5.6 5.6 0 15 0c6.9 0 11.9 3.4 13.2 9l-.3.3H21l-.5-.4c-.8-1.5-2-3-5.5-3-5.2 0-7.6 2.8-7.6 8.9 0 8 4.4 8.9 7.6 8.9 4.1 0 6-2.4 6-4.7v-.1l-.5-.5h-6.7l-.4-.2v-4.9l.3-.3h14.1l.3.3v15.8l-.3.3h-5.3l-.4-.4-.4-1.7h-.6c-1.1 1.1-3.2 2.5-7 2.5z" fill="#FFF"/><path d="M47.5 29.8c-8.9 0-14.5-5.7-14.5-14.9S38.6 0 47.5 0 62 5.7 62 14.9s-5.5 14.9-14.5 14.9zm0-23.8c-4.7 0-7.2 3.1-7.2 8.9 0 5.8 2.5 8.9 7.2 8.9s7.2-3.1 7.2-8.9c.1-5.8-2.4-8.9-7.2-8.9z" fill="#FFF" fill-rule="nonzero"/><path d="M13.8 65.8C5.4 65.8 1 62.5 1 56.4l.3-.3h6.6l.3.3c0 2.6 1.8 3.8 5.6 3.8 3.7 0 5.6-1 5.6-3.1 0-2.2-1.8-2.6-4.7-3l-2.9-.4c-7.1-1-10.3-3.9-10.3-9.5 0-5.1 4.5-8.2 12-8.2 7.7 0 11.9 3 12 8.6l-.3.3h-6.6l-.3-.3c0-1.4-.9-3-4.7-3-3.4 0-5.1.9-5.1 2.6 0 1.8 1.9 2.2 4.7 2.6l2.9.4c9.1 1.3 10.3 5.3 10.3 9.5-.2 2.2-1.1 9.1-12.6 9.1zM49.3 65.9l-.4-.3V54.7l-.5-.5h-9.7l-.5.5v10.9l-.3.3h-6.6l-.3-.3V37.3l.3-.3h6.6l.3.3v10.4l.5.5h9.7l.5-.5V37.3l.4-.3h6.5l.4.3v28.3l-.4.3z" fill="#FFF"/><path d="M75.5 65.8c-8.9 0-14.5-5.7-14.5-14.9S66.5 36 75.5 36C84.4 36 90 41.7 90 50.9s-5.6 14.9-14.5 14.9zm0-23.8c-4.7 0-7.2 3.1-7.2 8.9 0 5.8 2.5 8.9 7.2 8.9s7.2-3.1 7.2-8.9c0-5.8-2.5-8.9-7.2-8.9zM114.7 65.9l-.8-.4-8.3-10-.9-.4h-3l-.5.5v10l-.3.3h-6.6l-.3-.3V37.3l.3-.3h14.6c6.4 0 10.3 3.5 10.3 9.1 0 4.9-2.9 7.2-5.3 8.2h-.1v.5l4.6 5.4v5.3l-.3.3h-3.4v.1zm-13.5-22.5v5.1l.5.5h7.1c1.6 0 3-.4 3-3 0-2.7-1.5-3.1-3-3.1h-7.1l-.5.5z" fill="#FFF" fill-rule="nonzero"/><path fill="#FFF" d="M131.5 65.9l-.3-.3V43.4l-.5-.4h-8.3l-.4-.4v-5.3l.4-.3h24.9l.3.3v5.3l-.3.4H139l-.5.4v22.2l-.4.3z"/><path fill="#E20613" d="M67 3l9.5 11.8L67 26.6h11.4l9.5-11.8L78.4 3z"/></g></svg>