<?xml version="1.0" encoding="utf-8"?>
<!-- Generator: Adobe Illustrator 23.0.2, SVG Export Plug-In . SVG Version: 6.00 Build 0)  -->
<svg version="1.1" id="Laag_1" xmlns="http://www.w3.org/2000/svg" xmlns:xlink="http://www.w3.org/1999/xlink" x="0px" y="0px"
	 width="93.3px" height="12.1px" viewBox="0 0 93.3 12.1" style="enable-background:new 0 0 93.3 12.1;" xml:space="preserve">
<style type="text/css">
	.st0{fill:#224B9B;}
</style>
<g>
	<path class="st0" d="M9.9,1.2h3.2c1.8,0,2.9,1.1,2.9,2.6c0,1.5-1.1,2.6-2.9,2.6h-1.7v2.5H9.9V1.2z M13,5.1c1,0,1.4-0.6,1.4-1.4
		C14.4,3,14,2.4,13,2.4h-1.6v2.7H13z"/>
	<path class="st0" d="M17,0.8h1.5v8.1H17V0.8z"/>
	<path class="st0" d="M19.8,7.3c0-1.3,0.9-1.8,2.3-1.8c0.7,0,1.2,0.3,1.5,0.5V5.1c0-0.5-0.4-0.9-1-0.9c-0.5,0-0.8,0.2-1,0.5h-1.4
		C20.5,3.6,21.4,3,22.6,3c1.4,0,2.4,0.9,2.4,2.2v3.7h-1.5V8.4c-0.3,0.4-1,0.7-1.7,0.7C20.7,9.1,19.8,8.4,19.8,7.3z M23.6,7.2
		c0-0.5-0.5-0.8-1.2-0.8c-0.7,0-1.2,0.3-1.2,0.8s0.5,0.8,1.1,0.8C23,8.1,23.6,7.7,23.6,7.2z"/>
	<path class="st0" d="M26.5,3.2h1.4v0.7C28.2,3.3,28.8,3,29.6,3c1.3,0,2,0.8,2,2.2v3.7h-1.5V5.5c0-0.7-0.3-1.1-1.1-1.1
		c-0.7,0-1.1,0.4-1.1,1.2v3.4h-1.5V3.2z"/>
	<path class="st0" d="M34.8,9.7h0.3c0.3,0,0.4-0.1,0.4-0.4V3.2h1.5v6.3c0,0.9-0.5,1.4-1.5,1.4h-0.8V9.7z M36.3,0.8
		c0.5,0,0.9,0.4,0.9,0.9s-0.4,0.9-0.9,0.9c-0.5,0-0.9-0.4-0.9-0.9S35.8,0.8,36.3,0.8z"/>
	<path class="st0" d="M38.3,6.5V5.7C38.3,4.1,39.3,3,41,3c1.7,0,2.6,1.1,2.6,2.5v1h-3.8v0.1C39.8,7.4,40.1,8,41,8
		c0.6,0,1-0.3,1.2-0.7h1.3c-0.2,1.1-1.2,1.8-2.5,1.8C39.4,9.1,38.3,8.1,38.3,6.5z M39.8,5.5h2.4V5.4c0-0.7-0.4-1.3-1.2-1.3
		C40.1,4.1,39.8,4.7,39.8,5.5L39.8,5.5z"/>
	<path class="st0" d="M48.7,8.2v0.7h-1.4V0.8h1.5v3C49,3.4,49.6,3,50.4,3c1.5,0,2.4,1.2,2.4,2.5v1c0,1.4-0.9,2.5-2.4,2.5
		C49.5,9.1,48.9,8.7,48.7,8.2z M51.3,6.5V5.6c0-0.8-0.4-1.4-1.3-1.4c-0.7,0-1.3,0.5-1.3,1.4v0.8c0,0.8,0.5,1.4,1.3,1.4
		C50.9,7.8,51.3,7.2,51.3,6.5z"/>
	<path class="st0" d="M53.8,6.5V5.7c0-1.6,0.9-2.7,2.7-2.7C58.1,3,59,4.2,59,5.6v1h-3.8v0.1c0,0.7,0.3,1.3,1.2,1.3
		c0.6,0,1-0.3,1.2-0.7H59c-0.2,1.1-1.2,1.8-2.5,1.8C54.8,9.1,53.8,8.1,53.8,6.5z M55.2,5.5h2.4V5.4c0-0.7-0.4-1.3-1.2-1.3
		C55.6,4.1,55.2,4.7,55.2,5.5L55.2,5.5z"/>
	<path class="st0" d="M60,7.8l2.8-3.5h-2.7V3.2h4.4v1.1l-2.8,3.5h2.9v1.2H60V7.8z"/>
	<path class="st0" d="M65.5,6.5V5.6c0-1.5,1-2.6,2.7-2.6s2.7,1.1,2.7,2.6v0.8c0,1.5-1,2.6-2.7,2.6S65.5,7.9,65.5,6.5z M69.4,5.5
		c0-0.8-0.4-1.3-1.3-1.3c-0.9,0-1.3,0.6-1.3,1.3v1c0,0.8,0.4,1.3,1.3,1.3c0.9,0,1.3-0.6,1.3-1.3V5.5z"/>
	<path class="st0" d="M71.9,6.5V5.7c0-1.6,0.9-2.7,2.7-2.7c1.7,0,2.6,1.1,2.6,2.5v1h-3.8v0.1c0,0.7,0.3,1.3,1.2,1.3
		c0.6,0,1-0.3,1.2-0.7h1.3c-0.2,1.1-1.2,1.8-2.5,1.8C72.9,9.1,71.9,8.1,71.9,6.5z M73.3,5.5h2.4V5.4c0-0.7-0.4-1.3-1.2-1.3
		C73.7,4.1,73.3,4.7,73.3,5.5L73.3,5.5z"/>
	<path class="st0" d="M78.3,0.8h1.5v5l1.8-2.7h1.7l-2,2.8l2,2.9h-1.7l-1.9-2.8v2.8h-1.5V0.8z"/>
</g>
</svg>
