<?xml version="1.0" encoding="utf-8"?>
<!-- Generator: Adobe Illustrator 23.0.2, SVG Export Plug-In . SVG Version: 6.00 Build 0)  -->
<svg version="1.1" id="Laag_1" xmlns="http://www.w3.org/2000/svg" xmlns:xlink="http://www.w3.org/1999/xlink" x="0px" y="0px"
	 width="291px" height="176.9px" viewBox="0 0 291 176.9" style="enable-background:new 0 0 291 176.9;" xml:space="preserve">
<style type="text/css">
	.st0{fill:none;}
	.st1{fill:#224B9B;}
	.st2{fill:#244A9A;}
</style>
<g>
	<path class="st0" d="M34.4,58.2c-3.5,0-6,2.3-6.5,5.8h12.7C40.2,60.6,37.8,58.2,34.4,58.2z"/>
	<path class="st0" d="M200.5,12.9c-4,0-6.9,3.1-6.9,7.4c0,4.3,3,7.4,6.9,7.4c4.1,0,6.9-3.1,6.9-7.4C207.5,16,204.6,12.9,200.5,12.9z
		"/>
	<path class="st0" d="M63,27.7c4.1,0,6.9-3.1,6.9-7.4c0-4.3-2.9-7.4-6.9-7.4c-4,0-6.9,3.1-6.9,7.4C56.1,24.6,59.1,27.7,63,27.7z"/>
	<path class="st0" d="M113.6,27c3.9,0,6.8-3,6.8-7c0-4.1-2.9-7-6.8-7c-3.9,0-6.8,2.9-6.8,7C106.8,24.1,109.7,27,113.6,27z"/>
	<path class="st0" d="M140.7,13.6c-1.8,0-3.3,0.4-4.5,1.3c-1.1,0.8-1.8,2.3-2,4.3h12.2C146.4,15.4,144.5,13.6,140.7,13.6z"/>
	<path class="st0" d="M123.8,58.2c-4,0-6.9,3.1-6.9,7.4c0,4.3,3,7.4,6.9,7.4c4.1,0,6.9-3.1,6.9-7.4
		C130.8,61.3,127.9,58.2,123.8,58.2z"/>
	<path class="st0" d="M248.7,12.7c-0.1,0-0.2,0-0.4,0c-0.1,0-0.1,0-0.2,0l-0.1,0c-0.3,0-0.6,0.1-0.9,0.2c-0.1,0-0.1,0-0.2,0.1
		c-0.2,0.1-0.5,0.2-0.7,0.3c-0.1,0-0.1,0.1-0.2,0.1c-0.2,0.1-0.4,0.3-0.6,0.4c-0.1,0.1-0.1,0.1-0.2,0.2c0,0-0.1,0.1-0.1,0.1
		c-0.1,0.1-0.1,0.1-0.2,0.2c-0.1,0.1-0.1,0.2-0.2,0.3l-0.1,0.1c-0.5,0.9-0.8,2-0.8,3.4v0.4h9.4v-0.8
		C253.4,14.5,251.7,12.7,248.7,12.7z"/>
	<path class="st1" d="M130.9,56.1c0,1.1,0,1.7,0.1,2.1h-0.1c-1-2.1-3.8-4-7.6-4c-6.4,0-10.9,4.8-10.9,11.3c0,6.6,4.3,11.3,10.7,11.3
		c3.7,0,6.7-1.8,7.8-4.3h0.1c0,0.6-0.1,1.2-0.1,2.1v1.5h4.1V55h-4.1V56.1z M123.8,72.9c-4,0-6.9-3.1-6.9-7.4c0-4.3,3-7.4,6.9-7.4
		c4.1,0,6.9,3.1,6.9,7.4C130.8,69.8,127.9,72.9,123.8,72.9z"/>
	<path class="st1" d="M145.5,68.3V45.3H141v23.6c0,5,2.9,7.7,7.9,7.7c0.8,0,1.6-0.1,2.1-0.3v-3.9c-0.5,0.1-0.9,0.2-1.4,0.2
		C147.1,72.5,145.5,71.2,145.5,68.3z"/>
	<path class="st1" d="M84.7,46.1c-1.5,0-2.7,1.2-2.7,2.7c0,1.5,1.2,2.7,2.7,2.7c1.5,0,2.7-1.2,2.7-2.7
		C87.4,47.3,86.2,46.1,84.7,46.1z"/>
	<path class="st1" d="M55.4,58c2,0,3.4,1.3,4.1,2.9l3.2-1.8c-1.1-2.6-3.4-4.8-7.4-4.8c-4,0-6.9,2.7-6.9,6c0,3.5,2,5,4.6,6.2l2.4,1.2
		c2,0.9,2.8,1.7,2.8,2.9c0,1.7-1.2,2.6-3,2.6c-2.5,0-4-1.9-4.4-3.6l-3.4,1.9c0.7,2.9,3.2,5.5,7.7,5.5c4.7,0,7.6-2.6,7.6-6.3
		c0-3.3-2-4.9-4.6-6.1l-2.7-1.3c-2-0.9-2.8-1.6-2.8-2.9C52.6,58.9,53.7,58,55.4,58z"/>
	<rect x="82.5" y="55" class="st1" width="4.5" height="21.3"/>
	<path class="st1" d="M34.5,54.3c-6.5,0-11.3,4.8-11.3,11.3c0,6.5,4.8,11.3,11.4,11.3c3.6,0,6.6-1.4,8.7-4.2L40.7,70
		c-1.5,1.9-3.4,2.9-6.1,2.9c-3.6,0-6.2-2.2-6.7-5.7h17c0.1-0.4,0.1-1.1,0.1-1.6C45,59.1,40.7,54.3,34.5,54.3z M27.9,64
		c0.6-3.5,3-5.8,6.5-5.8c3.4,0,5.8,2.4,6.2,5.8H27.9z"/>
	<polygon class="st1" points="72.7,49.4 68.3,49.4 68.3,55 66,55 66,58.8 68.3,58.8 68.3,76.3 77.9,76.3 77.9,72.4 72.7,72.4 
		72.7,58.8 78.5,58.8 78.5,55 72.7,55 	"/>
	<path class="st1" d="M286.4,19.2l-2.7-1.3c-2-0.9-2.8-1.6-2.8-2.9c0-1.4,1.2-2.3,2.8-2.3c2,0,3.4,1.3,4.1,2.9l3.2-1.8
		c-1.1-2.6-3.4-4.8-7.4-4.8c-4,0-6.9,2.7-6.9,6c0,3.5,2,5,4.6,6.2l2.4,1.2c2,0.9,2.8,1.7,2.8,2.9c0,1.7-1.2,2.6-3,2.6
		c-2.5,0-4-1.9-4.4-3.6l-3.4,1.9c0.7,2.9,3.2,5.5,7.7,5.5c4.7,0,7.6-2.6,7.6-6.3C291,22.1,289,20.5,286.4,19.2z"/>
	<polygon class="st1" points="263.3,31 267.8,31 267.8,13.6 273.2,13.6 273.2,9.7 263.3,9.7 	"/>
	<path class="st1" d="M62.3,31.7c3.7,0,6.7-1.8,7.8-4.3h0.1c0,0.6-0.1,1.2-0.1,2.1V31h4.1V9.7h-4.1v1.2c0,1.1,0,1.7,0.1,2.1h-0.1
		c-1-2.1-3.8-4-7.6-4c-6.4,0-10.9,4.8-10.9,11.3C51.6,26.9,55.9,31.7,62.3,31.7z M63,12.9c4.1,0,6.9,3.1,6.9,7.4
		c0,4.3-2.9,7.4-6.9,7.4c-4,0-6.9-3.1-6.9-7.4C56.1,16,59.1,12.9,63,12.9z"/>
	<path class="st1" d="M112.9,31c3.6,0,6.3-1.7,7.2-3.8h0.2c-0.1,0.6-0.1,1.1-0.1,2.1v7.4h-11.5v3.9h15.9V9.7h-4.1V11
		c0,1,0,1.5,0.1,2h-0.1c-1.2-2.3-4-4-7.8-4c-6,0-10.4,4.6-10.4,11C102.3,26.4,106.8,31,112.9,31z M113.6,12.9c3.9,0,6.8,2.9,6.8,7
		c0,4.1-2.9,7-6.8,7c-3.9,0-6.8-2.9-6.8-7C106.8,15.9,109.7,12.9,113.6,12.9z"/>
	<path class="st1" d="M141.6,31.3c1.5,0,3-0.1,4.2-0.4c1.3-0.2,2.3-0.5,3-0.8v-3.6c-2.2,0.7-4.5,1.1-7.2,1.1c-2.3,0-4.1-0.4-5.3-1.3
		c-1.2-0.9-1.9-2.3-2.2-4.2h16V20c0-3.3-0.8-5.8-2.5-7.5c-1.7-1.7-4-2.5-7-2.5c-2.1,0-3.9,0.4-5.5,1.2c-1.6,0.8-2.9,2-3.8,3.6
		c-0.9,1.6-1.4,3.6-1.4,5.9c0,3.3,1,5.9,2.9,7.8C134.8,30.4,137.7,31.3,141.6,31.3z M136.2,14.8c1.1-0.8,2.6-1.3,4.5-1.3
		c3.8,0,5.7,1.9,5.7,5.6h-12.2C134.4,17.1,135.1,15.7,136.2,14.8z"/>
	<path class="st1" d="M39.6,9c-2.4,0-4.5,1-5.6,2.6h-0.2V0h-4.5v31h4.5V17.4c0-2.6,1.9-4.5,4.5-4.5s4.5,1.9,4.5,4.5V31h4.5V17
		C47.2,12.5,44.7,9,39.6,9z"/>
	<path class="st1" d="M234.9,12.1c0-1,0-1.7-0.1-2.4h-4.4c0.1,1,0.1,1.7,0.1,2.4c0,4.1-2.6,6.4-6.6,6.4c-0.6,0-1.1,0-1.6-0.1V0h-4.5
		v31h4.5v-8.8c0.5,0.1,1.2,0.1,1.8,0.1c0.7,0,1.3,0,1.9-0.1l5,8.8h5l-5.9-10C233.5,19.1,234.9,15.7,234.9,12.1z"/>
	<path class="st1" d="M176.4,9c-2.8,0-5,1.2-6.4,3.1c-1.4-1.9-3.6-3.1-6.4-3.1c-4.8,0-8.4,3.3-8.4,8.1V31h4.5V17
		c0-2.4,1.7-4.1,4-4.1c2.4,0,4,1.7,4,4.1v14h4.5V17c0-2.4,1.7-4.1,4-4.1c2.4,0,4.1,1.7,4.1,4.1v14h4.5V17.1
		C184.7,12.3,181.3,9,176.4,9z"/>
	<path class="st1" d="M207.6,10.9c0,1.1,0,1.7,0.1,2.1h-0.1c-1-2.1-3.8-4-7.6-4c-6.4,0-10.9,4.8-10.9,11.3c0,6.6,4.3,11.3,10.7,11.3
		c3.7,0,6.7-1.8,7.8-4.3h0.1c0,0.6-0.1,1.2-0.1,2.1V31h4.1V9.7h-4.1V10.9z M200.5,27.7c-4,0-6.9-3.1-6.9-7.4c0-4.3,3-7.4,6.9-7.4
		c4.1,0,6.9,3.1,6.9,7.4C207.5,24.6,204.6,27.7,200.5,27.7z"/>
	<path class="st1" d="M93.5,17.4V31h4.5V17.5c0-5.1-3.7-8.5-8.9-8.5c-5.2,0-8.9,3.4-8.9,8.3V31h4.5V17.4c0-2.6,1.9-4.5,4.5-4.5
		C91.6,12.9,93.5,14.8,93.5,17.4z"/>
	<polygon class="st1" points="100.6,71.3 100.3,70.5 95.8,55 90.7,55 97.8,76 103.3,76 110.5,55 105.4,55 	"/>
	<path class="st1" d="M248.7,9.2c-3,0-5.5,0.9-7.2,2.7c-1.6,1.7-2.5,4.1-2.5,7v2.9c0,2.9,0.9,5.2,2.6,6.9c1.7,1.6,4.2,2.5,7.1,2.5
		c2.2,0,4.4-0.7,6-1.9c1.5-1.1,2.6-2.7,3-4.4h-4.5c-0.3,0.8-0.8,1.4-1.5,1.9c-0.8,0.6-1.9,0.8-3,0.8c-0.1,0-0.3,0-0.4,0l-0.3,0
		c-0.3,0-0.7-0.1-1-0.2l-0.1,0c-0.3-0.1-0.6-0.2-0.8-0.3l-0.1-0.1c-0.2-0.1-0.4-0.3-0.6-0.4c-0.1-0.1-0.1-0.1-0.2-0.1
		c0,0-0.1-0.1-0.1-0.1c-0.1-0.1-0.1-0.1-0.2-0.2c-0.7-0.9-1.1-2.1-1.1-3.5v-0.8h14.1v-3.5c0-2.6-0.8-4.9-2.3-6.5
		C254.1,10.1,251.7,9.2,248.7,9.2z M253.4,18.4H244v-0.4c0-1.4,0.3-2.5,0.8-3.4l0.1-0.1c0.1-0.1,0.1-0.2,0.2-0.3
		c0-0.1,0.1-0.1,0.2-0.2c0,0,0.1,0,0.1-0.1c0.1-0.1,0.1-0.1,0.2-0.2c0.2-0.2,0.4-0.3,0.6-0.4c0.1,0,0.1-0.1,0.2-0.1
		c0.2-0.1,0.5-0.2,0.7-0.3c0.1,0,0.1,0,0.2-0.1c0.3-0.1,0.6-0.1,0.9-0.2l0.1,0c0.1,0,0.2,0,0.2,0c0.1,0,0.2,0,0.4,0
		c2.9,0,4.7,1.9,4.7,5V18.4z"/>
	<path class="st1" d="M18.8,21c-0.5,3.7-2.9,5.9-6.6,5.9c-2.3,0-4-0.7-5.2-2.2c-1.1-1.3-1.6-3.2-1.6-5.6v-4.6c0-2.4,0.5-4.3,1.6-5.6
		c1.2-1.5,2.9-2.2,5.2-2.2c3.7,0,6.2,2.2,6.6,5.9h5c-0.2-2.8-1.3-5.4-3.3-7.2c-2.1-2-5-3.1-8.4-3.1c-4,0-7.1,1.2-9.2,3.6
		C1,8,0,11.1,0,14.8v4c0,3.7,1,6.8,2.9,8.9c2.1,2.4,5.2,3.6,9.2,3.6c3.3,0,6.2-1.1,8.4-3.1c2-1.9,3.1-4.4,3.3-7.2H18.8z"/>
	<polygon class="st1" points="1.2,76.3 6.6,76.3 6.6,64.9 19,64.9 19,60.5 6.6,60.5 6.6,52.9 20.2,52.9 20.2,48.4 1.2,48.4 	"/>
	<path class="st2" d="M286.2,75.4c-1.5,0-2.6-1.2-2.6-2.8c0-1.6,1.1-2.8,2.6-2.8c1.5,0,2.6,1.2,2.6,2.8
		C288.8,74.2,287.7,75.4,286.2,75.4 M282.4,72.6c0,2.2,1.4,3.8,3.7,3.8c1.2,0,2.3-0.5,2.8-1.6h0c0,0.2,0,0.4,0,0.8v0.6h1V65.8h-1.1
		v3.6c0,0.4,0,0.6,0,0.8h0c-0.4-0.8-1.6-1.3-2.7-1.3C283.9,68.9,282.4,70.5,282.4,72.6 M281.3,76.3c0.3,0,0.5,0,0.7-0.1v-1
		c-0.2,0-0.3,0.1-0.5,0.1c-1,0-1.6-0.6-1.6-1.6v-7.8h-1.1v7.9C278.7,75.4,279.7,76.3,281.3,76.3 M276.8,68.9c-1.6,0-2.5,0.9-2.5,2.5
		v4.8h1.1v-4.7c0-1.1,0.6-1.6,1.5-1.6c0.2,0,0.4,0,0.6,0.1v-1C277.4,68.9,277.1,68.9,276.8,68.9 M269.1,75.4c-1.5,0-2.6-1.2-2.6-2.8
		c0-1.6,1.1-2.8,2.6-2.8c1.5,0,2.6,1.2,2.6,2.8C271.7,74.2,270.6,75.4,269.1,75.4 M269.1,76.4c2.2,0,3.7-1.6,3.7-3.8
		c0-2.2-1.6-3.8-3.7-3.8c-2.1,0-3.7,1.6-3.7,3.8C265.4,74.8,266.9,76.4,269.1,76.4 M264.6,69.1h-1.1l-1.5,6.1h-0.1l-1.6-6.1h-1.7
		l-1.6,6.1h-0.1l-1.5-6.1h-1.2l1.9,7.1h1.5l1.7-6.1h0.1l1.7,6.1h1.6L264.6,69.1z M246.7,69.9c1.4,0,2.3,1,2.4,2.3h-5
		C244.4,70.8,245.4,69.9,246.7,69.9 M249.7,75l-0.6-0.7c-0.6,0.7-1.3,1.1-2.2,1.1c-1.4,0-2.4-0.9-2.6-2.3h6c0-0.1,0-0.3,0-0.5
		c0-2.1-1.4-3.8-3.5-3.8c-2.1,0-3.7,1.6-3.7,3.8c0,2.2,1.6,3.8,3.7,3.8C248,76.4,249,75.9,249.7,75 M236.8,71.7
		c0-1.1,0.8-1.8,1.8-1.8c1.1,0,1.8,0.8,1.8,1.8v4.5h1.1v-4.6c0-1.5-0.9-2.7-2.7-2.7c-0.9,0-1.6,0.4-2,1h-0.1v-4h-1.1v10.3h1.1V71.7z
		 M233.5,76.3c0.3,0,0.6-0.1,0.8-0.1v-1c-0.2,0.1-0.4,0.1-0.6,0.1c-1,0-1.6-0.5-1.6-1.6v-3.6h2.4v-1h-2.4v-1.9H231v1.9h-0.9v1h0.9
		v3.7C231,75.4,231.9,76.3,233.5,76.3 M222.3,70.5c0.9,0,1.5,0.6,1.7,1.5h-3.4C220.8,71.1,221.4,70.5,222.3,70.5 M225.3,75l-1.1-1.2
		c-0.5,0.6-1,0.8-1.8,0.8c-1,0-1.6-0.5-1.8-1.5h5.3c0-0.2,0.1-0.4,0.1-0.6c0-2.2-1.4-3.8-3.5-3.8c-2.2,0-3.8,1.6-3.8,3.8
		c0,2.2,1.6,3.8,3.8,3.8C223.6,76.4,224.6,76,225.3,75 M213.3,77.2c0-0.7,0.6-1,1.2-1h0.1c0.7,0,1.2,0.3,1.2,1c0,0.6-0.6,1-1.3,1
		C213.8,78.2,213.3,77.8,213.3,77.2 M214.6,72.7c-0.8,0-1.3-0.4-1.3-1.2c0-0.7,0.5-1.2,1.3-1.2c0.8,0,1.3,0.5,1.3,1.2
		C215.9,72.2,215.4,72.7,214.6,72.7 M214.6,74.1c1.9,0,3.1-1,3.1-2.6c0-0.8-0.3-1.5-0.8-1.9l1-1.7l-1.5-0.8l-1,1.8
		c-0.2,0-0.5-0.1-0.8-0.1c-1.9,0-3.1,1.1-3.1,2.7c0,1,0.5,1.7,1.3,2.1c-0.2,0.2-0.4,0.5-0.4,0.9c0,0.3,0.1,0.5,0.4,0.8
		c-0.9,0.4-1.3,1.1-1.3,1.9c0,1.5,1.3,2.4,3.2,2.4c1.8,0,3.1-0.9,3.1-2.4c0-1.5-1.2-2.3-3-2.3h-0.3c-0.3,0-0.5-0.1-0.5-0.4
		c0-0.2,0.1-0.3,0.2-0.4C214.3,74.1,214.4,74.1,214.6,74.1 M204.1,71.6v4.6h1.9v-4.6c0-0.6,0.5-1.1,1.1-1.1c0.6,0,1.1,0.5,1.1,1.1
		v4.6h1.9v-4.5c0-1.7-1.3-2.8-3-2.8C205.4,68.8,204.1,69.9,204.1,71.6 M198.6,74.7c-1.1,0-1.9-0.9-1.9-2.1c0-1.2,0.8-2.1,1.9-2.1
		c1.1,0,1.9,0.9,1.9,2.1C200.5,73.8,199.7,74.7,198.6,74.7 M194.7,72.6c0,2.2,1.4,3.8,3.5,3.8c1.1,0,2-0.5,2.4-1.2h0.1
		c0,0.2,0,0.3,0,0.7v0.3h1.8V69h-1.8v0.3c0,0.4,0,0.5,0,0.6h-0.1c-0.4-0.7-1.2-1.1-2.3-1.1C196.2,68.8,194.7,70.4,194.7,72.6
		 M189.3,71.6c0-0.6,0.5-1.1,1.1-1.1c0.6,0,1.1,0.5,1.1,1.1v4.6h1.9v-4.8c0-1.4-0.7-2.6-2.4-2.6c-0.7,0-1.4,0.3-1.7,0.7h0v-3.7h-1.9
		v10.3h1.9V71.6z M186.2,70.2c-0.7-0.9-1.6-1.4-2.9-1.4c-2.2,0-3.8,1.6-3.8,3.8c0,2.2,1.6,3.8,3.8,3.8c1.3,0,2.3-0.6,2.9-1.5
		l-1.1-1.1c-0.3,0.5-0.9,0.9-1.7,0.9c-1.1,0-1.9-0.9-1.9-2.1c0-1.2,0.8-2.1,1.9-2.1c0.8,0,1.4,0.4,1.7,0.9L186.2,70.2z"/>
	<path class="st2" d="M251.7,59.3c0.3,0,0.5,0,0.7-0.1v-1c-0.2,0-0.3,0.1-0.5,0.1c-1,0-1.6-0.6-1.6-1.6v-7.8h-1.1v7.9
		C249.2,58.4,250.1,59.3,251.7,59.3 M247.4,59.3c0.3,0,0.5,0,0.7-0.1v-1c-0.2,0-0.3,0.1-0.5,0.1c-1,0-1.6-0.6-1.6-1.6v-7.8h-1.1v7.9
		C244.9,58.4,245.8,59.3,247.4,59.3 M242.7,52.2h-1.1v7.1h1.1V52.2z M242.2,50.8c0.4,0,0.7-0.3,0.7-0.7c0-0.4-0.3-0.7-0.7-0.7
		c-0.4,0-0.7,0.3-0.7,0.7C241.4,50.5,241.8,50.8,242.2,50.8 M240.2,52.2H239l-1.5,6.1h-0.1l-1.6-6.1h-1.7l-1.6,6.1h-0.1l-1.5-6.1
		h-1.2l1.9,7.1h1.5l1.7-6.1h0.1l1.7,6.1h1.6L240.2,52.2z M222.2,53.5c0.9,0,1.5,0.6,1.7,1.5h-3.4C220.6,54.1,221.3,53.5,222.2,53.5
		 M225.2,58.1l-1.1-1.2c-0.5,0.6-1,0.8-1.8,0.8c-1,0-1.6-0.5-1.8-1.5h5.3c0-0.2,0.1-0.4,0.1-0.6c0-2.2-1.4-3.8-3.5-3.8
		c-2.2,0-3.8,1.6-3.8,3.8c0,2.2,1.6,3.8,3.8,3.8C223.5,59.4,224.5,59,225.2,58.1 M217.2,59.3c0.3,0,0.6,0,0.7-0.1v-1.7
		c-0.1,0-0.2,0.1-0.4,0.1c-0.7,0-1.2-0.3-1.2-1.1v-7.6h-1.9v7.8C214.4,58.4,215.4,59.3,217.2,59.3 M209.1,53.5
		c1.1,0,1.9,0.9,1.9,2.1c0,1.2-0.8,2.1-1.9,2.1s-1.9-0.9-1.9-2.1C207.2,54.4,208,53.5,209.1,53.5 M213,55.7c0-2.2-1.4-3.8-3.4-3.8
		c-1.1,0-2,0.5-2.4,1.2h0c0-0.2,0-0.3,0-0.6v-0.3h-1.8v10.3h1.9v-3.3c0-0.4,0-0.5,0-0.6h0c0.3,0.6,1.2,1,2.2,1
		C211.5,59.4,213,57.9,213,55.7 M200.1,57.7c-1.1,0-1.9-0.9-1.9-2.1c0-1.2,0.8-2.1,1.9-2.1c1.1,0,1.9,0.9,1.9,2.1
		C202,56.9,201.2,57.7,200.1,57.7 M200.1,59.4c2.2,0,3.8-1.6,3.8-3.8c0-2.2-1.6-3.8-3.8-3.8c-2.2,0-3.8,1.6-3.8,3.8
		C196.3,57.9,197.9,59.4,200.1,59.4 M191.8,53.5c0.9,0,1.5,0.6,1.7,1.5h-3.4C190.3,54.1,190.9,53.5,191.8,53.5 M194.8,58.1l-1.1-1.2
		c-0.5,0.6-1,0.8-1.8,0.8c-1,0-1.6-0.5-1.8-1.5h5.3c0-0.2,0.1-0.4,0.1-0.6c0-2.2-1.4-3.8-3.5-3.8c-2.2,0-3.8,1.6-3.8,3.8
		c0,2.2,1.6,3.8,3.8,3.8C193.1,59.4,194.1,59,194.8,58.1 M183.9,53.9H182v-3.3h1.9c1,0,1.7,0.7,1.7,1.7
		C185.7,53.2,185,53.9,183.9,53.9 M184.1,48.9h-4.1v10.3h2v-3.6h2.1c2,0,3.5-1.5,3.5-3.4C187.6,50.3,186.2,48.9,184.1,48.9"/>
</g>
</svg>
