<?xml version="1.0" encoding="utf-8"?>
<!-- Generator: Adobe Illustrator 22.1.0, SVG Export Plug-In . SVG Version: 6.00 Build 0)  -->
<svg version="1.1" id="Laag_1" xmlns="http://www.w3.org/2000/svg" xmlns:xlink="http://www.w3.org/1999/xlink" x="0px" y="0px"
	 width="175px" height="82px" viewBox="0 0 175 82" style="enable-background:new 0 0 175 82;" xml:space="preserve">
<style type="text/css">
	.st0{fill:#FFFFFF;}
</style>
<g>
	<path class="st0" d="M9.8,18.9H1.7V2.1h8c3.2,0,4.8,1.9,4.8,4.3c0,1.8-0.7,3-2.2,3.8c1.8,0.5,3.2,1.6,3.2,4
		C15.6,17.1,13.1,18.9,9.8,18.9z M8.8,8.8c1.1,0,1.7-0.7,1.7-1.8c0-1-0.6-1.7-1.7-1.7h-3v3.5H8.8z M9.6,12H5.7v3.6h4
		c1.2,0,1.8-0.8,1.8-1.8C11.5,12.7,10.8,12,9.6,12z"/>
	<path class="st0" d="M21.7,13.9v0.3c0,1.2,0.7,2.2,2.2,2.2c1.1,0,1.8-0.6,2-1.2h3.6c-0.4,2.3-2.7,4-5.6,4c-3.6,0-6-2.1-6-5.7V12
		c0-3.5,2.1-5.9,6-5.9s5.8,2.5,5.8,5.5v2.3H21.7z M21.7,11.6h4.1v-0.5c0-1.2-0.6-2.2-2-2.2c-1.5,0-2.1,0.9-2.1,2.4V11.6z"/>
	<path class="st0" d="M32.6,18.9V1.4h4v17.5H32.6z"/>
	<path class="st0" d="M43.5,13.9v0.3c0,1.2,0.7,2.2,2.2,2.2c1.1,0,1.8-0.6,2-1.2h3.6c-0.4,2.3-2.7,4-5.6,4c-3.6,0-6-2.1-6-5.7V12
		c0-3.5,2.1-5.9,6-5.9s5.8,2.5,5.8,5.5v2.3H43.5z M43.5,11.6h4.1v-0.5c0-1.2-0.6-2.2-2-2.2c-1.5,0-2.1,0.9-2.1,2.4V11.6z"/>
	<path class="st0" d="M57.6,13.9v0.3c0,1.2,0.7,2.2,2.2,2.2c1.1,0,1.8-0.6,2-1.2h3.6c-0.4,2.3-2.7,4-5.6,4c-3.6,0-6-2.1-6-5.7V12
		c0-3.5,2.1-5.9,6-5.9s5.8,2.5,5.8,5.5v2.3H57.6z M57.6,11.6h4.1v-0.5c0-1.2-0.6-2.2-2-2.2c-1.5,0-2.1,0.9-2.1,2.4V11.6z"/>
	<path class="st0" d="M68.9,18.9V9.5h-1.5V6.3h1.5V5.5c0-2.8,1.1-4.1,4.1-4.1h2.4v3.2H74c-0.8,0-1.1,0.3-1.1,1v0.7h2.3v3.1h-2.3v9.5
		H68.9z"/>
	<path class="st0" d="M86.7,13.9v0.3c0,1.2,0.7,2.2,2.2,2.2c1.1,0,1.8-0.6,2-1.2h3.6c-0.4,2.3-2.7,4-5.6,4c-3.6,0-6-2.1-6-5.7V12
		c0-3.5,2.1-5.9,6-5.9s5.8,2.5,5.8,5.5v2.3H86.7z M86.7,11.6h4.1v-0.5c0-1.2-0.6-2.2-2-2.2c-1.5,0-2.1,0.9-2.1,2.4V11.6z"/>
	<path class="st0" d="M100.8,13.9v0.3c0,1.2,0.7,2.2,2.2,2.2c1.1,0,1.8-0.6,2-1.2h3.6c-0.4,2.3-2.7,4-5.6,4c-3.6,0-6-2.1-6-5.7V12
		c0-3.5,2.1-5.9,6-5.9s5.8,2.5,5.8,5.5v2.3H100.8z M100.8,11.6h4.1v-0.5c0-1.2-0.6-2.2-2-2.2c-1.5,0-2.1,0.9-2.1,2.4V11.6z"/>
	<path class="st0" d="M111.6,18.9V6.3h3.9v1.5c0.6-1.2,1.9-1.8,3.5-1.8c2.9,0,4.4,1.8,4.4,4.8v8.1h-4v-7.5c0-1.2-0.6-1.9-1.8-1.9
		c-1,0-1.9,0.5-1.9,1.9v7.4H111.6z"/>
	<path class="st0" d="M144.4,18.9h-3.8v-1.3c-0.4,0.7-1.7,1.6-3.5,1.6c-3.6,0-5.3-2.7-5.3-5.5v-2.1c0-2.9,1.8-5.5,5.3-5.5
		c1.5,0,2.7,0.7,3.3,1.3v-6h4V18.9z M140.4,11.7c0-1.6-1.1-2.4-2.3-2.4c-1.6,0-2.3,1-2.3,2.4v1.6c0,1.4,0.7,2.4,2.3,2.4
		c1.2,0,2.3-0.8,2.3-2.4V11.7z"/>
	<path class="st0" d="M155.7,18.9v-1.1c-0.7,0.8-2.1,1.3-3.7,1.3c-2.9,0-4.6-1.7-4.6-4c0-2.6,1.9-3.9,4.9-3.9c1.5,0,2.7,0.4,3.3,0.9
		v-1.5c0-0.9-0.6-1.6-1.8-1.6c-0.8,0-1.5,0.3-1.8,0.9h-3.7c0.5-2.5,2.7-4,5.6-4c3.6,0,5.7,1.9,5.7,5v7.8H155.7z M155.5,15.2
		c0-0.8-0.9-1.5-2.2-1.5c-1.4,0-2.2,0.5-2.2,1.5c0,1,0.9,1.5,2.2,1.5C154.5,16.6,155.5,16,155.5,15.2z"/>
	<path class="st0" d="M174.7,18.5c0,2.7-2.6,4.8-6.3,4.8c-3.1,0-5.7-1.5-6.1-4h3.9c0.3,0.7,1.2,1,2.2,1c1.4,0,2.3-0.8,2.3-2v-1.5
		c-0.6,0.7-1.9,1.4-3.3,1.4c-3.5,0-5.2-2.5-5.2-5.3v-1.7c0-2.8,1.7-5.3,5.2-5.3c1.7,0,3.1,0.9,3.5,1.6V6.3h3.8V18.5z M168.5,9.3
		c-1.5,0-2.2,1-2.2,2.3v1.2c0,1.3,0.7,2.3,2.2,2.3c1.4,0,2.3-0.8,2.3-2.2v-1.3C170.7,10.1,169.7,9.3,168.5,9.3z"/>
</g>
<g>
	<path class="st0" d="M4.4,47.7L0.1,35.1h4l2.3,8.4l2.3-8.4h4L8.4,47.7H4.4z"/>
	<path class="st0" d="M26.1,42.3c0,3.3-2.2,5.7-6.1,5.7c-3.9,0-6.1-2.4-6.1-5.7v-1.7c0-3.3,2.2-5.7,6.1-5.7c3.9,0,6.1,2.4,6.1,5.7
		V42.3z M20,38c-1.5,0-2.2,1.1-2.2,2.3v2.1c0,1.3,0.7,2.3,2.2,2.3s2.2-1.1,2.2-2.3v-2.1C22.2,39.1,21.5,38,20,38z"/>
	<path class="st0" d="M29,47.7V30.2h4v17.5H29z"/>
	<path class="st0" d="M47.3,48c-3.3,0-5.5-1.5-5.5-4v-0.3h3.6v0.2c0,0.9,0.8,1.3,2,1.3c1.1,0,1.9-0.4,1.9-1.1c0-0.5-0.2-0.7-0.8-0.9
		l-3.5-0.8c-1.9-0.4-3-1.6-3-3.4c0-2.7,2.2-4.2,5.2-4.2c3,0,5.1,1.5,5.1,4.1v0.2h-3.5v-0.2c0-0.8-0.5-1.3-1.6-1.3
		c-1,0-1.5,0.3-1.5,1c0,0.5,0.2,0.7,0.8,0.8l3.7,0.9c1.7,0.4,2.8,1.5,2.8,3.2C52.9,46.1,50.7,48,47.3,48z"/>
	<path class="st0" d="M55.6,35.1h3.8v1.3c0.4-0.7,1.7-1.6,3.5-1.6c3.6,0,5.3,2.7,5.3,5.5v2.1c0,2.9-1.8,5.5-5.3,5.5
		c-1.5,0-2.7-0.7-3.3-1.3v5.2h-4V35.1z M59.6,42.3c0,1.6,1.1,2.4,2.3,2.4c1.6,0,2.3-1,2.3-2.4v-1.6c0-1.4-0.7-2.4-2.3-2.4
		c-1.2,0-2.3,0.8-2.3,2.4V42.3z"/>
	<path class="st0" d="M78.8,47.7v-1.1c-0.7,0.8-2.1,1.3-3.7,1.3c-2.9,0-4.6-1.7-4.6-4c0-2.6,1.9-3.9,4.9-3.9c1.5,0,2.7,0.4,3.3,0.9
		v-1.5c0-0.9-0.6-1.6-1.8-1.6c-0.8,0-1.5,0.3-1.8,0.9h-3.7c0.5-2.5,2.7-4,5.6-4c3.6,0,5.7,1.9,5.7,5v7.8H78.8z M78.7,44
		c0-0.8-0.9-1.5-2.2-1.5c-1.4,0-2.2,0.5-2.2,1.5c0,1,0.9,1.5,2.2,1.5C77.7,45.4,78.7,44.8,78.7,44z"/>
	<path class="st0" d="M85.9,47.7V35.1h3.9v1.5c0.6-1.2,1.9-1.8,3.5-1.8c2.9,0,4.4,1.8,4.4,4.8v8.1h-4v-7.5c0-1.2-0.6-1.9-1.8-1.9
		c-1,0-1.9,0.5-1.9,1.9v7.4H85.9z"/>
	<path class="st0" d="M101,47.7V35.1h3.9v1.5c0.6-1.2,1.9-1.8,3.5-1.8c2.9,0,4.4,1.8,4.4,4.8v8.1h-4v-7.5c0-1.2-0.6-1.9-1.8-1.9
		c-1,0-1.9,0.5-1.9,1.9v7.4H101z"/>
	<path class="st0" d="M119.4,42.7V43c0,1.2,0.7,2.2,2.2,2.2c1.1,0,1.8-0.6,2-1.2h3.6c-0.4,2.3-2.7,4-5.6,4c-3.6,0-6-2.1-6-5.7v-1.6
		c0-3.5,2.1-5.9,6-5.9s5.8,2.5,5.8,5.5v2.3H119.4z M119.4,40.4h4.1v-0.5c0-1.2-0.6-2.2-2-2.2c-1.5,0-2.1,0.9-2.1,2.4V40.4z"/>
	<path class="st0" d="M130.1,47.7V35.1h3.9v1.5c0.6-1.2,1.9-1.8,3.5-1.8c2.9,0,4.4,1.8,4.4,4.8v8.1h-4v-7.5c0-1.2-0.6-1.9-1.8-1.9
		c-1,0-1.9,0.5-1.9,1.9v7.4H130.1z"/>
	<path class="st0" d="M157.2,47.7h-3.8v-1.3c-0.4,0.7-1.7,1.6-3.5,1.6c-3.6,0-5.3-2.7-5.3-5.5v-2.1c0-2.9,1.8-5.5,5.3-5.5
		c1.5,0,2.7,0.7,3.3,1.3v-6h4V47.7z M153.2,40.5c0-1.6-1.1-2.4-2.3-2.4c-1.6,0-2.3,1-2.3,2.4v1.6c0,1.4,0.7,2.4,2.3,2.4
		c1.2,0,2.3-0.8,2.3-2.4V40.5z"/>
	<path class="st0" d="M163.9,42.7V43c0,1.2,0.7,2.2,2.2,2.2c1.1,0,1.8-0.6,2-1.2h3.6c-0.4,2.3-2.7,4-5.6,4c-3.6,0-6-2.1-6-5.7v-1.6
		c0-3.5,2.1-5.9,6-5.9s5.8,2.5,5.8,5.5v2.3H163.9z M163.9,40.4h4.1v-0.5c0-1.2-0.6-2.2-2-2.2c-1.5,0-2.1,0.9-2.1,2.4V40.4z"/>
</g>
<g>
	<path class="st0" d="M13.2,71.1c0,3.3-2.2,5.7-6.1,5.7c-3.9,0-6.1-2.4-6.1-5.7v-1.7c0-3.3,2.2-5.7,6.1-5.7c3.9,0,6.1,2.4,6.1,5.7
		V71.1z M7,66.8c-1.5,0-2.2,1.1-2.2,2.3v2.1c0,1.3,0.7,2.3,2.2,2.3s2.2-1.1,2.2-2.3v-2.1C9.2,67.9,8.6,66.8,7,66.8z"/>
	<path class="st0" d="M16,76.5V63.9h3.9v1.5c0.6-1.2,1.9-1.8,3.5-1.8c2.9,0,4.4,1.8,4.4,4.8v8.1h-4V69c0-1.2-0.6-1.9-1.8-1.9
		c-1,0-1.9,0.5-1.9,1.9v7.4H16z"/>
	<path class="st0" d="M35.7,60.6v3.4h2.4v3.1h-2.4v5.4c0,0.6,0.3,0.8,0.9,0.8h1.3v3.3h-2.7c-2.4,0-3.6-1.4-3.6-3.7v-5.7H30v-3.1h1.6
		v-3.4H35.7z"/>
	<path class="st0" d="M52.9,76.5h-3.8v-1.3c-0.4,0.7-1.7,1.6-3.5,1.6c-3.6,0-5.3-2.7-5.3-5.5v-2.1c0-2.9,1.8-5.5,5.3-5.5
		c1.5,0,2.7,0.7,3.3,1.3v-6h4V76.5z M48.9,69.3c0-1.6-1.1-2.4-2.3-2.4c-1.6,0-2.3,1-2.3,2.4V71c0,1.4,0.7,2.4,2.3,2.4
		c1.2,0,2.3-0.8,2.3-2.4V69.3z"/>
	<path class="st0" d="M59.6,71.5v0.3c0,1.2,0.7,2.2,2.2,2.2c1.1,0,1.8-0.6,2-1.2h3.6c-0.4,2.3-2.7,4-5.6,4c-3.6,0-6-2.1-6-5.7v-1.6
		c0-3.5,2.1-5.9,6-5.9s5.8,2.5,5.8,5.5v2.3H59.6z M59.6,69.2h4.1v-0.5c0-1.2-0.6-2.2-2-2.2c-1.5,0-2.1,0.9-2.1,2.4V69.2z"/>
	<path class="st0" d="M70.4,76.5V59h4v10.8l3.2-5.8h4.5l-3.6,6.2l3.7,6.4h-4.5l-3.3-6v6H70.4z"/>
	<path class="st0" d="M84.6,76.5V59h4v10.8l3.2-5.8h4.5l-3.6,6.2l3.7,6.4h-4.5l-3.3-6v6H84.6z"/>
	<path class="st0" d="M100.9,58.6c1.3,0,2.2,0.8,2.2,2.1c0,1.3-0.9,2.1-2.2,2.1c-1.3,0-2.2-0.8-2.2-2.1
		C98.7,59.5,99.6,58.6,100.9,58.6z M98.9,76.5V63.9h4v12.6H98.9z"/>
	<path class="st0" d="M106.4,76.5V63.9h3.9v1.5c0.6-1.2,1.9-1.8,3.5-1.8c2.9,0,4.4,1.8,4.4,4.8v8.1h-4V69c0-1.2-0.6-1.9-1.8-1.9
		c-1,0-1.9,0.5-1.9,1.9v7.4H106.4z"/>
	<path class="st0" d="M133.4,76.1c0,2.7-2.6,4.8-6.3,4.8c-3.1,0-5.7-1.5-6.1-4h3.9c0.3,0.7,1.2,1,2.2,1c1.4,0,2.3-0.8,2.3-2v-1.5
		c-0.6,0.7-1.9,1.4-3.3,1.4c-3.5,0-5.2-2.5-5.2-5.3v-1.7c0-2.8,1.7-5.3,5.2-5.3c1.7,0,3.1,0.9,3.5,1.6v-1.3h3.8V76.1z M127.1,66.9
		c-1.5,0-2.2,1-2.2,2.3v1.2c0,1.3,0.7,2.3,2.2,2.3c1.4,0,2.3-0.8,2.3-2.2v-1.3C129.4,67.7,128.3,66.9,127.1,66.9z"/>
	<path class="st0" d="M140.1,71.5v0.3c0,1.2,0.7,2.2,2.2,2.2c1.1,0,1.8-0.6,2-1.2h3.6c-0.4,2.3-2.7,4-5.6,4c-3.6,0-6-2.1-6-5.7v-1.6
		c0-3.5,2.1-5.9,6-5.9s5.8,2.5,5.8,5.5v2.3H140.1z M140.1,69.2h4.1v-0.5c0-1.2-0.6-2.2-2-2.2c-1.5,0-2.1,0.9-2.1,2.4V69.2z"/>
	<path class="st0" d="M150.9,76.5V63.9h3.9v1.5c0.6-1.2,1.9-1.8,3.5-1.8c2.9,0,4.4,1.8,4.4,4.8v8.1h-4V69c0-1.2-0.6-1.9-1.8-1.9
		c-1,0-1.9,0.5-1.9,1.9v7.4H150.9z"/>
</g>
</svg>
