<?xml version="1.0" encoding="utf-8"?>
<!-- Generator: Adobe Illustrator 24.3.0, SVG Export Plug-In . SVG Version: 6.00 Build 0)  -->
<svg version="1.1" id="Laag_1" xmlns="http://www.w3.org/2000/svg" xmlns:xlink="http://www.w3.org/1999/xlink" x="0px" y="0px"
	 width="163.3px" height="27.6px" viewBox="0 0 163.3 27.6" style="enable-background:new 0 0 163.3 27.6;" xml:space="preserve">
<style type="text/css">
	.st0{fill:#FFEC00;}
	.st1{fill:#1D1D1B;}
</style>
<g>
	<rect x="0" y="0" class="st0" width="163.3" height="27.6"/>
	<g>
		<path class="st1" d="M35.2,18.5c-1.3,0-2.4-0.4-3.3-1.3c-0.9-0.9-1.3-2-1.3-3.4s0.4-2.5,1.3-3.4c0.9-0.9,2-1.3,3.3-1.3
			c1.3,0,2.4,0.4,3.3,1.3c0.9,0.9,1.3,2,1.3,3.4s-0.4,2.5-1.3,3.4C37.7,18,36.6,18.5,35.2,18.5z M35.2,16.8c0.8,0,1.4-0.3,2-0.9
			c0.5-0.6,0.8-1.3,0.8-2.1c0-0.9-0.3-1.6-0.8-2.1s-1.2-0.9-2-0.9c-0.8,0-1.5,0.3-2,0.9c-0.5,0.6-0.8,1.3-0.8,2.1
			c0,0.9,0.3,1.6,0.8,2.1C33.8,16.5,34.4,16.8,35.2,16.8z"/>
		<path class="st1" d="M47.1,9.2h1.7v9.1h-1.7l-4-5.9H43v5.9h-1.7V9.2h1.8l3.9,5.9h0.1V9.2z"/>
		<path class="st1" d="M52.6,16.7H57v1.7h-6.3V9.2h1.9V16.7z"/>
		<path class="st1" d="M60,9.2v9.1h-1.8V9.2H60z"/>
		<path class="st1" d="M67.6,9.2h1.7v9.1h-1.7l-4-5.9h-0.1v5.9h-1.7V9.2h1.8l3.9,5.9h0.1V9.2z"/>
		<path class="st1" d="M72.9,16.8h4.5v1.6h-6.2V9.2h6v1.6h-4.3V13h3.7v1.5h-3.7V16.8z"/>
		<path class="st1" d="M87.7,9.2h1.9l-2.9,9.1h-2.5l-2.9-9.1h1.9l2.2,7.2h0.1L87.7,9.2z"/>
		<path class="st1" d="M92.3,16.8h4.5v1.6h-6.2V9.2h6v1.6h-4.3V13H96v1.5h-3.7V16.8z"/>
		<path class="st1" d="M104.8,18.4h-1.9l-1.8-3.4h-1.3v3.4H98V9.2h3.4c0.9,0,1.7,0.3,2.2,0.8s0.8,1.2,0.8,2.1c0,0.6-0.2,1.1-0.5,1.6
			s-0.7,0.8-1.3,1L104.8,18.4z M99.7,10.8v2.5h1.5c0.4,0,0.8-0.1,1.1-0.4c0.3-0.2,0.4-0.5,0.4-0.9c0-0.4-0.1-0.7-0.4-0.9
			c-0.3-0.2-0.6-0.3-1.1-0.3H99.7z"/>
		<path class="st1" d="M112.2,9.2v1.6h-2.5v7.5h-1.7v-7.5h-2.5V9.2H112.2z"/>
		<path class="st1" d="M117.2,18.5c-1.3,0-2.4-0.4-3.3-1.3s-1.3-2-1.3-3.4s0.4-2.5,1.3-3.4c0.9-0.9,2-1.3,3.3-1.3
			c1.3,0,2.4,0.4,3.3,1.3c0.9,0.9,1.3,2,1.3,3.4s-0.4,2.5-1.3,3.4C119.6,18,118.5,18.5,117.2,18.5z M117.2,16.8c0.8,0,1.4-0.3,2-0.9
			c0.5-0.6,0.8-1.3,0.8-2.1c0-0.9-0.3-1.6-0.8-2.1c-0.5-0.6-1.2-0.9-2-0.9c-0.8,0-1.5,0.3-2,0.9c-0.5,0.6-0.8,1.3-0.8,2.1
			c0,0.9,0.3,1.6,0.8,2.1C115.8,16.5,116.4,16.8,117.2,16.8z"/>
		<path class="st1" d="M129.1,9.2h1.7v9.1h-1.7l-4-5.9H125v5.9h-1.7V9.2h1.8l3.9,5.9h0.1V9.2z"/>
		<path class="st1" d="M134.5,9.2v9.1h-1.8V9.2H134.5z"/>
		<path class="st1" d="M142.2,9.2h1.7v9.1h-1.7l-4-5.9h-0.1v5.9h-1.7V9.2h1.8l3.9,5.9h0.1V9.2z"/>
		<path class="st1" d="M149.5,13.4h4.1v4.9h-1.2l-0.2-0.9H152c-0.2,0.3-0.6,0.5-1,0.7s-1,0.3-1.6,0.3c-1.3,0-2.2-0.4-3-1.3
			c-0.7-0.8-1.1-1.9-1.1-3.3c0-1.4,0.4-2.6,1.2-3.5c0.8-0.9,1.8-1.4,3.1-1.4c1.2,0,2.1,0.3,2.8,0.8c0.7,0.6,1,1.3,1.1,2.2h-1.8
			c-0.1-0.4-0.3-0.7-0.7-1c-0.4-0.3-0.8-0.4-1.3-0.4c-0.8,0-1.4,0.3-1.9,0.9s-0.7,1.4-0.7,2.3c0,0.9,0.2,1.6,0.7,2.2
			c0.4,0.5,1.1,0.8,2,0.8c0.8,0,1.5-0.3,2-0.8v-1.2h-2.4V13.4z"/>
	</g>
	<g>
		<polygon class="st1" points="16.4,22.8 18,21.9 18,16.7 16.4,15.8 14.8,16.7 16.4,17.6 		"/>
		<polygon class="st1" points="13.1,21 14.8,21.9 14.8,16.7 14.8,11.5 13.1,12.3 		"/>
		<polygon class="st1" points="14.8,9.7 9.9,7.1 8.3,8 11.5,9.7 11.5,9.7 11.5,9.7 13.1,10.6 		"/>
		<polygon class="st1" points="9.9,10.6 9.9,19.3 11.5,18.4 11.5,9.7 11.5,9.7 		"/>
		<path class="st1" d="M16.4,10.6l-1.6,0.9c0,0,2.6,0.9,1.6,4.3l1.6-0.9C19,11.5,16.4,10.6,16.4,10.6z"/>
		<polygon class="st1" points="8.8,6.2 9,6.2 9,5.1 9.4,5.1 9.4,4.8 8.4,4.8 8.4,5.1 8.8,5.1 		"/>
		<polygon class="st1" points="10,5.6 10.6,5.6 10.6,6.2 10.9,6.2 10.9,4.8 10.6,4.8 10.6,5.4 10,5.4 10,4.8 9.8,4.8 9.8,6.2 
			10,6.2 		"/>
		<polygon class="st1" points="12.3,6 11.6,6 11.6,5.6 12.2,5.6 12.2,5.4 11.6,5.4 11.6,5.1 12.3,5.1 12.3,4.8 11.4,4.8 11.4,6.2 
			12.3,6.2 		"/>
		<path class="st1" d="M13.1,5.9h0.5l0.1,0.3H14l-0.5-1.4h-0.4l-0.5,1.4H13L13.1,5.9z M13.3,5.2L13.3,5.2l0.2,0.5h-0.4L13.3,5.2z"/>
		<polygon class="st1" points="14.5,6.2 14.8,6.2 14.8,5.1 15.1,5.1 15.1,4.8 14.1,4.8 14.1,5.1 14.5,5.1 		"/>
		<polygon class="st1" points="16.4,6 15.7,6 15.7,5.6 16.4,5.6 16.4,5.4 15.7,5.4 15.7,5.1 16.4,5.1 16.4,4.8 15.5,4.8 15.5,6.2 
			16.4,6.2 		"/>
		<path class="st1" d="M17.2,5.7h0.2l0.3,0.5h0.3l-0.4-0.6c0.1,0,0.1-0.1,0.2-0.2c0-0.1,0.1-0.2,0.1-0.3c0-0.1,0-0.2-0.1-0.3
			c-0.1-0.1-0.2-0.1-0.3-0.1h-0.5v1.4h0.3V5.7z M17.2,5.1h0.2c0.1,0,0.1,0,0.1,0c0,0,0,0.1,0,0.1s0,0.1-0.1,0.1c0,0-0.1,0.1-0.1,0.1
			h-0.2V5.1z"/>
		<path class="st1" d="M19.6,7.1v0.3h0.5v0.2l-0.5,0.3v0.3l0.6-0.3c0,0.1,0.1,0.1,0.2,0.2c0.1,0,0.2,0.1,0.3,0.1
			c0.1,0,0.2,0,0.3-0.1C21,7.9,21,7.8,21,7.6V7.1C21,7.1,19.6,7.1,19.6,7.1z M20.8,7.6c0,0.1,0,0.1,0,0.1c0,0-0.1,0-0.1,0
			c-0.1,0-0.1,0-0.1-0.1c0,0-0.1-0.1-0.1-0.1V7.4h0.4V7.6z"/>
		<path class="st1" d="M20.3,8.4c-0.2,0-0.4,0.1-0.5,0.2c-0.1,0.1-0.2,0.3-0.2,0.5c0,0.2,0.1,0.4,0.2,0.5c0.1,0.1,0.3,0.2,0.5,0.2
			c0.2,0,0.4-0.1,0.5-0.2C20.9,9.5,21,9.3,21,9.1c0-0.2-0.1-0.4-0.2-0.5C20.7,8.5,20.5,8.4,20.3,8.4z M20.6,9.5
			c-0.1,0.1-0.2,0.1-0.3,0.1S20,9.6,20,9.5c-0.1-0.1-0.1-0.2-0.1-0.3s0-0.2,0.1-0.3c0.1-0.1,0.2-0.1,0.3-0.1s0.2,0,0.3,0.1
			C20.7,9,20.7,9,20.7,9.2S20.7,9.4,20.6,9.5z"/>
		<polygon class="st1" points="21,11.1 21,10.1 20.8,10.1 20.8,10.5 19.6,10.5 19.6,10.8 20.8,10.8 20.8,11.1 		"/>
		<polygon class="st1" points="19.6,12.1 20.8,12.1 20.8,12.5 21,12.5 21,11.4 20.8,11.4 20.8,11.8 19.6,11.8 		"/>
		<polygon class="st1" points="19.6,13.8 19.8,13.8 19.8,13.1 20.2,13.1 20.2,13.7 20.4,13.7 20.4,13.1 20.8,13.1 20.8,13.8 
			21,13.8 21,12.8 19.6,12.8 		"/>
		<path class="st1" d="M19.6,14.5h0.5v0.2L19.6,15v0.3l0.6-0.3c0,0.1,0.1,0.1,0.2,0.2c0.1,0,0.2,0.1,0.3,0.1c0.1,0,0.2,0,0.3-0.1
			C21,15,21,14.9,21,14.8v-0.5h-1.4C19.6,14.3,19.6,14.5,19.6,14.5z M20.4,14.5h0.4v0.2c0,0.1,0,0.1,0,0.1c0,0-0.1,0-0.1,0
			c-0.1,0-0.1,0-0.1-0.1c0,0-0.1-0.1-0.1-0.1V14.5z"/>
		<path class="st1" d="M19.6,16.1c0,0.2,0.1,0.4,0.2,0.5c0.1,0.1,0.3,0.2,0.5,0.2s0.4-0.1,0.5-0.2c0.1-0.1,0.2-0.3,0.2-0.5h0v-0.4
			h-1.4C19.6,15.7,19.6,16.1,19.6,16.1z M19.8,16h0.9v0.2c0,0.1,0,0.2-0.1,0.3s-0.2,0.1-0.3,0.1c-0.1,0-0.2,0-0.3-0.1
			c-0.1-0.1-0.1-0.2-0.1-0.3V16z"/>
		<path class="st1" d="M19.6,17.4l0.3,0.1V18l-0.3,0.1v0.3L21,18v-0.4l-1.4-0.5V17.4z M20.1,17.6l0.5,0.2v0L20.1,18V17.6z"/>
		<polygon class="st1" points="19.6,19 20.4,19 19.7,19.3 19.7,19.6 20.4,19.9 19.6,19.9 19.6,20.2 21,20.2 21,19.8 20,19.5 
			20,19.5 21,19.1 21,18.7 19.6,18.7 		"/>
	</g>
</g>
</svg>
