<?xml version="1.0" encoding="utf-8"?>
<!-- Generator: Adobe Illustrator 24.3.0, SVG Export Plug-In . SVG Version: 6.00 Build 0)  -->
<svg version="1.1" id="Laag_1" xmlns="http://www.w3.org/2000/svg" xmlns:xlink="http://www.w3.org/1999/xlink" x="0px" y="0px"
	 width="114.4px" height="10.9px" viewBox="0 0 114.4 10.9" style="enable-background:new 0 0 114.4 10.9;" xml:space="preserve">
<style type="text/css">
	.st0{fill:#FFFFFF;}
</style>
<g>
	<path class="st0" d="M3.4,8.9C1.9,8.9,0.8,8.5,0,7.8l0.7-0.9c0.1-0.1,0.3-0.2,0.4,0c0.6,0.5,1.4,0.7,2.3,0.7c0.5,0,0.9-0.1,1.3-0.3
		s0.5-0.5,0.5-0.8c0-0.3-0.1-0.5-0.3-0.7s-0.6-0.4-1-0.5L2.5,4.8C1.8,4.7,1.3,4.4,0.8,4S0.2,3.1,0.2,2.5c0-0.8,0.3-1.3,0.8-1.7
		s1.3-0.6,2.2-0.6c0.3,0,0.6,0,1,0.1S4.8,0.4,5,0.5s0.4,0.2,0.6,0.3S6,1,6.1,1.1s0.2,0.1,0.2,0.2L5.6,2.2C5.5,2.3,5.4,2.3,5.3,2.3
		s-0.2,0-0.2-0.1C4.4,1.8,3.8,1.6,3.2,1.6c-0.9,0-1.4,0.3-1.4,0.9c0,0.2,0.1,0.4,0.2,0.6s0.4,0.3,0.8,0.3l1.4,0.4
		c1.7,0.4,2.6,1.3,2.6,2.6c0,0.8-0.3,1.5-0.9,1.9S4.4,8.9,3.4,8.9z"/>
	<path class="st0" d="M10.4,8.9c-1,0-1.7-0.3-2.3-0.9S7.3,6.6,7.3,5.7c0-1,0.3-1.8,0.8-2.4s1.3-0.9,2.3-0.9c0.8,0,1.4,0.2,1.9,0.6
		s0.9,0.9,1,1.6l-1.1,0.3c-0.2,0-0.4,0-0.4-0.2c-0.3-0.6-0.7-0.9-1.4-0.9c-0.5,0-0.9,0.2-1.2,0.6S8.8,5,8.8,5.7
		c0,0.6,0.1,1.1,0.4,1.4s0.7,0.5,1.2,0.5c0.4,0,0.7-0.1,0.9-0.3s0.4-0.4,0.5-0.8c0-0.1,0.1-0.2,0.2-0.2s0.2-0.1,0.3,0l1.1,0.2
		c-0.2,0.8-0.5,1.3-1,1.7S11.2,8.9,10.4,8.9z"/>
	<path class="st0" d="M17.2,8.9c-1,0-1.7-0.3-2.3-0.9s-0.8-1.4-0.8-2.4s0.3-1.8,0.8-2.4s1.3-0.9,2.3-0.9c1,0,1.7,0.3,2.3,0.9
		s0.8,1.4,0.8,2.4S20,7.4,19.5,8S18.1,8.9,17.2,8.9z M16,7.1c0.3,0.4,0.7,0.5,1.2,0.5s0.9-0.2,1.2-0.5s0.4-0.8,0.4-1.5
		s-0.1-1.1-0.4-1.5s-0.7-0.5-1.2-0.5S16.3,3.8,16,4.2S15.5,5,15.5,5.6S15.7,6.7,16,7.1z"/>
	<path class="st0" d="M24.9,2.3c0.9,0,1.6,0.3,2.1,0.9s0.8,1.4,0.8,2.4c0,1-0.3,1.9-0.8,2.4s-1.3,0.9-2.2,0.9
		c-0.7,0-1.3-0.2-1.8-0.6v2.6h-1.5V2.4h1.1c0.1,0,0.1,0,0.2,0.1s0.1,0.1,0.1,0.2v0.6C23.5,2.6,24.1,2.3,24.9,2.3z M24.7,7.6
		c0.5,0,0.9-0.2,1.2-0.5s0.4-0.8,0.4-1.4c0-0.6-0.1-1.1-0.4-1.4s-0.7-0.5-1.2-0.5c-0.5,0-0.9,0.2-1.2,0.5s-0.5,0.8-0.5,1.4v0.1
		c0,0.6,0.1,1.1,0.4,1.4S24.2,7.6,24.7,7.6z"/>
	<path class="st0" d="M32.3,2.4h0.1v0.9c0,0.1,0,0.2-0.1,0.3S32.1,3.7,32,3.7h-0.1c-0.5,0-0.9,0.2-1.2,0.5S30.3,5,30.3,5.6v3.2h-1.5
		V2.4h1.1c0.1,0,0.1,0,0.2,0.1s0.1,0.1,0.1,0.2v0.7C30.7,2.8,31.4,2.4,32.3,2.4z"/>
	<path class="st0" d="M34.1,1.7c-0.2,0-0.4-0.1-0.6-0.2s-0.2-0.4-0.2-0.6c0-0.2,0.1-0.4,0.2-0.6S33.8,0,34.1,0
		c0.2,0,0.4,0.1,0.6,0.2s0.2,0.4,0.2,0.6c0,0.2-0.1,0.4-0.2,0.6S34.3,1.7,34.1,1.7z M33.4,8.8V2.4h1.5v6.4H33.4z"/>
	<path class="st0" d="M42.7,8.9c-1,0-1.7-0.3-2.3-0.9s-0.8-1.4-0.8-2.4c0-1,0.3-1.8,0.8-2.4s1.3-0.9,2.3-0.9c0.8,0,1.4,0.2,1.9,0.6
		s0.9,0.9,1,1.6l-1.1,0.3c-0.2,0-0.4,0-0.4-0.2c-0.3-0.6-0.7-0.9-1.4-0.9c-0.5,0-0.9,0.2-1.2,0.6S41,5,41,5.7c0,0.6,0.1,1.1,0.4,1.4
		s0.7,0.5,1.2,0.5c0.4,0,0.7-0.1,0.9-0.3s0.4-0.4,0.5-0.8c0-0.1,0.1-0.2,0.2-0.2s0.2-0.1,0.3,0l1.1,0.2c-0.2,0.8-0.5,1.3-1,1.7
		S43.4,8.9,42.7,8.9z"/>
	<path class="st0" d="M49.4,8.9c-1,0-1.7-0.3-2.3-0.9s-0.8-1.4-0.8-2.4s0.3-1.8,0.8-2.4s1.3-0.9,2.3-0.9c1,0,1.7,0.3,2.3,0.9
		s0.8,1.4,0.8,2.4S52.3,7.4,51.7,8S50.4,8.9,49.4,8.9z M48.2,7.1c0.3,0.4,0.7,0.5,1.2,0.5s0.9-0.2,1.2-0.5s0.4-0.8,0.4-1.5
		s-0.1-1.1-0.4-1.5s-0.7-0.5-1.2-0.5s-0.9,0.2-1.2,0.5S47.8,5,47.8,5.6S47.9,6.7,48.2,7.1z"/>
	<path class="st0" d="M60.6,2.3c0.8,0,1.4,0.2,1.8,0.7s0.6,1.1,0.6,2v3.8h-1.5V5.1c0-0.5-0.1-0.9-0.3-1.1s-0.5-0.4-0.8-0.4
		c-0.4,0-0.8,0.1-0.9,0.4s-0.3,0.6-0.3,1.1v3.7h-1.5V5.1c0-1-0.4-1.5-1.1-1.5c-0.4,0-0.8,0.1-0.9,0.4s-0.3,0.6-0.3,1.2v3.6h-1.5V2.4
		h1.1c0.1,0,0.1,0,0.2,0.1s0.1,0.1,0.1,0.2v0.5c0.4-0.5,0.9-0.8,1.6-0.8c0.9,0,1.6,0.3,2,1C59.2,2.7,59.8,2.3,60.6,2.3z"/>
	<path class="st0" d="M67.3,2.3c1,0,1.7,0.3,2.3,0.9s0.9,1.4,0.9,2.5v0.2c0,0.1,0,0.1-0.1,0.2s-0.1,0.1-0.2,0.1h-4.6
		c0.1,0.4,0.3,0.8,0.6,1.1s0.7,0.4,1.1,0.4c0.3,0,0.6-0.1,0.9-0.2s0.4-0.4,0.5-0.6c0.1-0.1,0.2-0.2,0.3-0.1l1.2,0.4
		c-0.2,0.6-0.6,1-1.1,1.4S68,8.9,67.3,8.9c-1,0-1.7-0.3-2.3-0.9s-0.9-1.4-0.9-2.4c0-1,0.3-1.8,0.9-2.4S66.3,2.3,67.3,2.3z M67.3,3.6
		c-0.4,0-0.8,0.1-1,0.3s-0.5,0.5-0.6,0.9h3.2c-0.1-0.4-0.3-0.7-0.6-0.9S67.7,3.6,67.3,3.6z"/>
	<path class="st0" d="M80.5,7.4c0.1,0,0.2,0.2,0.2,0.4v1h-0.2c-0.7,0-1.2-0.3-1.5-0.8c-0.5,0.6-1.3,0.9-2.3,0.9
		c-0.6,0-1.1-0.2-1.5-0.5s-0.6-0.8-0.6-1.4c0-0.6,0.2-1,0.6-1.4s1-0.6,1.7-0.7c0.4,0,0.7-0.1,1-0.2s0.4-0.1,0.5-0.2s0.2-0.1,0.3-0.2
		v0c0-0.2-0.1-0.4-0.3-0.6s-0.5-0.2-0.9-0.2c-0.1,0-0.3,0-0.4,0s-0.2,0-0.3,0.1s-0.2,0.1-0.3,0.1s-0.2,0.1-0.2,0.1S76.2,4,76.2,4.1
		S76.1,4.2,76,4.2c-0.1,0.1-0.2,0.1-0.4,0.1s-0.2-0.1-0.3-0.2l-0.5-0.6c0.1-0.1,0.2-0.3,0.4-0.4s0.3-0.3,0.5-0.4s0.5-0.2,0.8-0.3
		s0.6-0.1,0.9-0.1c0.9,0,1.6,0.2,2.1,0.6s0.7,1,0.7,1.9V7c0,0.1,0,0.2,0.1,0.3S80.4,7.4,80.5,7.4L80.5,7.4z M76.9,7.7
		c0.3,0,0.5,0,0.7-0.1s0.4-0.2,0.6-0.3s0.3-0.3,0.4-0.5s0.1-0.5,0.1-0.8V5.7c-0.3,0.3-0.8,0.4-1.5,0.5c-0.4,0-0.7,0.1-0.9,0.2
		S76,6.7,76,7c0,0.2,0.1,0.4,0.2,0.5S76.6,7.7,76.9,7.7z"/>
	<path class="st0" d="M82.6,1.7c-0.2,0-0.4-0.1-0.6-0.2s-0.2-0.4-0.2-0.6c0-0.2,0.1-0.4,0.2-0.6S82.4,0,82.6,0
		c0.2,0,0.4,0.1,0.6,0.2s0.2,0.4,0.2,0.6c0,0.2-0.1,0.4-0.2,0.6S82.9,1.7,82.6,1.7z M81.9,8.8V2.4h1.5v6.4H81.9z"/>
	<path class="st0" d="M89.2,2.4h1.5v6.4h-1.1c-0.1,0-0.1,0-0.2-0.1s-0.1-0.1-0.1-0.2V8c-0.4,0.6-1,0.9-1.8,0.9
		c-1.7,0-2.5-0.9-2.5-2.7V2.4h1.5v3.6c0,0.5,0.1,0.9,0.3,1.2s0.5,0.4,0.9,0.4c0.5,0,0.8-0.1,1.1-0.4s0.4-0.6,0.4-1.1V2.4z"/>
	<path class="st0" d="M96.2,3.8h-1.9v2.9c0,0.2,0.1,0.4,0.2,0.6s0.3,0.2,0.6,0.2h0.8c0.1,0,0.2,0,0.3,0.1s0.1,0.2,0.1,0.3v1h-1.3
		c-0.7,0-1.2-0.2-1.6-0.6s-0.6-0.9-0.6-1.6V3.8h-0.6c-0.1,0-0.2,0-0.3-0.1s-0.1-0.2-0.1-0.3V2.4h1V0.3h1.5v2.1h1.9V3.8z"/>
	<path class="st0" d="M102.8,7.4c0.1,0,0.2,0.2,0.2,0.4v1h-0.2c-0.7,0-1.2-0.3-1.5-0.8c-0.5,0.6-1.3,0.9-2.3,0.9
		c-0.6,0-1.1-0.2-1.5-0.5S97,7.6,97,7.1c0-0.6,0.2-1,0.6-1.4s1-0.6,1.7-0.7c0.4,0,0.7-0.1,1-0.2s0.4-0.1,0.5-0.2s0.2-0.1,0.3-0.2v0
		c0-0.2-0.1-0.4-0.3-0.6s-0.5-0.2-0.9-0.2c-0.1,0-0.3,0-0.4,0s-0.2,0-0.3,0.1S99,3.8,98.9,3.8s-0.2,0.1-0.2,0.1S98.6,4,98.5,4.1
		s-0.1,0.1-0.1,0.1c-0.1,0.1-0.2,0.1-0.4,0.1s-0.2-0.1-0.3-0.2l-0.5-0.6c0.1-0.1,0.2-0.3,0.4-0.4s0.3-0.3,0.5-0.4s0.5-0.2,0.8-0.3
		s0.6-0.1,0.9-0.1c0.9,0,1.6,0.2,2.1,0.6s0.7,1,0.7,1.9V7c0,0.1,0,0.2,0.1,0.3S102.7,7.4,102.8,7.4L102.8,7.4z M99.2,7.7
		c0.3,0,0.5,0,0.7-0.1s0.4-0.2,0.6-0.3s0.3-0.3,0.4-0.5s0.1-0.5,0.1-0.8V5.7c-0.3,0.3-0.8,0.4-1.5,0.5c-0.4,0-0.7,0.1-0.9,0.2
		S98.4,6.7,98.4,7c0,0.2,0.1,0.4,0.2,0.5S99,7.7,99.2,7.7z"/>
	<path class="st0" d="M107.5,2.4h0.1v0.9c0,0.1,0,0.2-0.1,0.3s-0.2,0.1-0.3,0.1h-0.1c-0.5,0-0.9,0.2-1.2,0.5s-0.4,0.8-0.4,1.3v3.2
		H104V2.4h1.1c0.1,0,0.1,0,0.2,0.1s0.1,0.1,0.1,0.2v0.7C105.9,2.8,106.6,2.4,107.5,2.4z"/>
	<path class="st0" d="M111.2,2.3c1,0,1.7,0.3,2.3,0.9s0.9,1.4,0.9,2.5v0.2c0,0.1,0,0.1-0.1,0.2s-0.1,0.1-0.2,0.1h-4.6
		c0.1,0.4,0.3,0.8,0.6,1.1s0.7,0.4,1.1,0.4c0.3,0,0.6-0.1,0.9-0.2s0.4-0.4,0.5-0.6c0.1-0.1,0.2-0.2,0.3-0.1l1.2,0.4
		c-0.2,0.6-0.6,1-1.1,1.4s-1.1,0.5-1.9,0.5c-1,0-1.7-0.3-2.3-0.9S108,6.6,108,5.6c0-1,0.3-1.8,0.9-2.4S110.2,2.3,111.2,2.3z
		 M111.2,3.6c-0.4,0-0.8,0.1-1,0.3s-0.5,0.5-0.6,0.9h3.2c-0.1-0.4-0.3-0.7-0.6-0.9S111.6,3.6,111.2,3.6z"/>
</g>
</svg>
