<?xml version="1.0" encoding="utf-8"?>
<!-- Generator: Adobe Illustrator 24.3.0, SVG Export Plug-In . SVG Version: 6.00 Build 0)  -->
<svg version="1.1" id="Laag_1" xmlns="http://www.w3.org/2000/svg" xmlns:xlink="http://www.w3.org/1999/xlink" x="0px" y="0px"
	 width="297.8px" height="141.1px" viewBox="0 0 297.8 141.1" style="enable-background:new 0 0 297.8 141.1;" xml:space="preserve"
	>
<style type="text/css">
	.st0{fill:#6A3F24;}
</style>
<g>
	<path class="st0" d="M17.9,36.1c-3.4,0-6.3-0.7-8.8-2.2s-4.4-3.5-5.8-6.1s-2-5.7-2-9.1c0-3.5,0.7-6.5,2-9.2s3.2-4.7,5.8-6.1
		s5.5-2.2,8.8-2.2c3.8,0,7.1,1,9.7,3s4.5,4.7,5.4,8.1l-5.3,1.3c-0.4,0.1-0.7,0.1-1.1-0.1s-0.7-0.4-0.9-0.7c-0.7-1.5-1.7-2.7-3-3.6
		s-2.9-1.3-4.9-1.3c-3,0-5.3,1-6.9,3s-2.5,4.6-2.5,7.9c0,1,0.1,2,0.3,3s0.5,1.9,1,2.9s1.1,1.8,1.8,2.5s1.6,1.3,2.7,1.7
		s2.3,0.7,3.7,0.7c2.1,0,3.8-0.5,5.1-1.5s2.3-2.4,3-4.1c0.2-0.4,0.5-0.7,0.9-0.9s0.8-0.2,1.2-0.1l5.2,1.2c-0.8,3.7-2.6,6.6-5.3,8.7
		S21.9,36.1,17.9,36.1z"/>
	<path class="st0" d="M50.7,9.7c3.3,0,5.8,0.9,7.5,2.8s2.6,4.6,2.6,8.1v15h-6.9V21.3c0-1.9-0.3-3.4-0.9-4.3s-1.8-1.4-3.4-1.4
		c-1.6,0-2.8,0.5-3.8,1.5s-1.4,2.4-1.4,4.2v14.2h-6.9V1.7h6.9v10.5C46.1,10.5,48.2,9.7,50.7,9.7z"/>
	<path class="st0" d="M70.5,7.5c-1.1,0-2-0.3-2.7-1s-1-1.6-1-2.7c0-1.1,0.3-2,1-2.7S69.5,0,70.5,0c1.1,0,2,0.4,2.7,1.1
		s1.1,1.6,1.1,2.7c0,1.1-0.4,2-1.1,2.7S71.6,7.5,70.5,7.5z M67.1,35.6V10.2H74v25.4H67.1z"/>
	<path class="st0" d="M107.4,9.7c3.3,0,5.8,0.9,7.5,2.8s2.6,4.6,2.6,8.1v15h-6.9V21.3c0-1.9-0.3-3.4-0.9-4.3s-1.8-1.4-3.4-1.4
		c-1.6,0-2.8,0.5-3.8,1.5s-1.4,2.4-1.4,4.2v14.2h-6.9V1.7h6.9v10.5C102.9,10.5,104.9,9.7,107.4,9.7z"/>
	<path class="st0" d="M145.6,29.1c0.3,0.3,0.5,0.9,0.5,1.7v4.9h-0.7c-3,0-5.1-1-6.4-2.9c-2.1,2.2-5.1,3.3-9,3.3c-2.5,0-4.5-0.7-6-2
		s-2.2-3.2-2.2-5.5c0-2.2,0.7-4,2.1-5.5s3.6-2.4,6.5-2.8c3.7-0.4,6.1-1,7.4-1.7v-0.1c0-0.8-0.4-1.5-1.2-2s-1.7-0.8-2.9-0.8
		c-0.6,0-1.2,0-1.7,0.1s-1,0.2-1.5,0.4s-0.8,0.3-1,0.4s-0.5,0.3-1,0.6s-0.7,0.4-0.7,0.4c-0.6,0.3-1.1,0.4-1.7,0.3s-1-0.4-1.3-0.8
		l-2.1-2.9c0.3-0.4,0.8-0.9,1.3-1.3s1.3-0.9,2.2-1.4s1.9-0.9,3.1-1.3s2.5-0.5,3.8-0.5c3.7,0,6.6,0.9,8.5,2.6s2.9,4.3,2.9,7.7v7.2
		C144.6,28,144.9,28.7,145.6,29.1L145.6,29.1z M130.9,30.3c0.7,0,1.4,0,2-0.1s1.2-0.3,1.8-0.5s1.2-0.6,1.6-1s0.8-1,1.1-1.7
		s0.4-1.5,0.4-2.4v-0.7c-1.3,1.1-3.3,1.6-5.9,1.7c-1.2,0.1-2.1,0.4-2.7,0.8s-0.9,1-0.9,1.8c0,0.7,0.2,1.2,0.7,1.6
		S130.1,30.3,130.9,30.3z"/>
	<path class="st0" d="M178.3,9.7c3.5,0,6.3,1.2,8.3,3.6s3.1,5.6,3.1,9.6c0,4.2-1,7.4-3.1,9.7s-5,3.5-8.8,3.5c-2.7,0-5-0.8-6.7-2.2
		V44h-6.9V10.2h5.2c0.3,0,0.5,0.1,0.7,0.3s0.3,0.4,0.3,0.7v2.2C172.5,10.9,175.1,9.7,178.3,9.7z M177,30.1c1.8,0,3.2-0.7,4.3-2
		s1.6-3.1,1.6-5.2s-0.5-3.9-1.5-5.2s-2.4-2-4.3-2s-3.3,0.6-4.3,1.8s-1.6,2.9-1.7,5V23c0,2.2,0.5,3.9,1.6,5.2S175.2,30.1,177,30.1z"
		/>
	<path class="st0" d="M205.5,9.6c3.8,0,7,1.3,9.3,3.8s3.6,5.8,3.6,9.9v1.1c0,0.2-0.1,0.5-0.3,0.7s-0.4,0.3-0.7,0.3h-17.8
		c0.4,1.4,1.1,2.6,2.1,3.4s2.2,1.3,3.8,1.3c1.1,0,2.1-0.3,2.9-0.8s1.4-1.2,1.8-1.9c0.3-0.5,0.8-0.6,1.3-0.4l5.7,2
		c-0.9,2.2-2.3,4-4.3,5.2s-4.5,1.9-7.5,1.9c-3.9,0-7-1.2-9.4-3.6s-3.6-5.6-3.6-9.5c0-4,1.2-7.2,3.6-9.7S201.6,9.6,205.5,9.6z
		 M205.5,15.6c-1.4,0-2.6,0.4-3.5,1.1s-1.7,1.8-2.1,3.1h11.2c-0.5-1.3-1.2-2.3-2.1-3.1S206.8,15.6,205.5,15.6z"/>
	<path class="st0" d="M236.8,10.2h0.4v3.9c0,0.5-0.2,1-0.5,1.3s-0.7,0.5-1.2,0.5h-0.3c-2,0-3.4,0.6-4.4,1.8s-1.5,2.8-1.5,5v12.9
		h-6.9V10.2h5.2c0.3,0,0.5,0.1,0.7,0.3s0.3,0.4,0.3,0.7v2.5C230.6,11.3,233.3,10.2,236.8,10.2z"/>
	<path class="st0" d="M248.9,36.1c-2.2,0-4.2-0.3-6-0.9s-3.4-1.4-4.5-2.4l2.7-4.1c0.2-0.3,0.5-0.5,0.8-0.5s0.7,0,1,0.2
		c2,1.2,4,1.7,5.9,1.7c1.2,0,2.1-0.2,2.7-0.6s0.9-0.9,0.9-1.6c0-0.5-0.2-1-0.6-1.3s-0.9-0.6-1.7-0.8c-0.6-0.2-1.5-0.4-2.6-0.6
		s-2.1-0.5-2.8-0.7c-1.8-0.5-3.2-1.3-4.2-2.6s-1.5-2.7-1.5-4.5c0-2.4,0.9-4.3,2.7-5.8s4.1-2.2,7.1-2.2c1.9,0,3.7,0.3,5.4,0.9
		s3,1.4,4.1,2.2l-2.5,4.1c-0.4,0.7-1,0.8-1.7,0.4c-2-1.2-4-1.8-6-1.8c-0.8,0-1.4,0.2-1.8,0.5s-0.7,0.7-0.7,1.2c0,0.4,0.1,0.7,0.4,1
		s0.7,0.5,1.2,0.6c1.1,0.3,2.6,0.8,4.5,1.2c2.5,0.6,4.4,1.6,5.6,3s1.9,3.1,1.9,5c0,2.5-0.9,4.4-2.7,5.9S252,36.1,248.9,36.1z"/>
	<path class="st0" d="M283.5,32.5c-2.3,2.4-5.4,3.6-9.3,3.6s-7-1.2-9.3-3.6s-3.5-5.6-3.5-9.7s1.2-7.3,3.5-9.7s5.4-3.6,9.3-3.6
		s7,1.2,9.3,3.6s3.5,5.6,3.5,9.7C287,26.9,285.8,30.1,283.5,32.5z M269.9,28.1c1,1.3,2.5,2,4.3,2s3.3-0.7,4.3-2s1.5-3.1,1.5-5.2
		s-0.5-3.9-1.5-5.2s-2.5-2-4.3-2s-3.3,0.7-4.3,2s-1.5,3.1-1.5,5.2S268.9,26.8,269.9,28.1z"/>
	<path class="st0" d="M18.3,64.2h-7.4v10.3c0,0.8,0.2,1.5,0.8,2.1s1.2,0.8,2,0.8h2.9c0.5,0,1,0.2,1.3,0.5s0.5,0.8,0.5,1.3v4.6H13
		c-2.8,0-5-0.8-6.6-2.4S4,77.4,4,74.5V64.2H1.8c-0.5,0-1-0.2-1.3-0.5S0,62.9,0,62.4v-4.2h4v-8.5h6.9v8.5h7.4V64.2z"/>
	<path class="st0" d="M39.5,58.2h6.9v25.4h-5.2c-0.3,0-0.5-0.1-0.7-0.3s-0.3-0.4-0.3-0.7v-1.9C38.5,83,36.2,84,33.4,84
		c-3.3,0-5.8-0.9-7.5-2.6s-2.5-4.4-2.5-7.9V58.2h6.9v14.2c0,1.9,0.3,3.4,0.9,4.3s1.8,1.4,3.4,1.4c1.6,0,2.8-0.5,3.7-1.5
		s1.3-2.4,1.3-4.2V58.2z"/>
	<path class="st0" d="M68.5,64.2h-7.4v10.3c0,0.8,0.2,1.5,0.8,2.1s1.2,0.8,2,0.8h2.9c0.5,0,1,0.2,1.3,0.5s0.5,0.8,0.5,1.3v4.6h-5.2
		c-2.8,0-5-0.8-6.6-2.4s-2.4-3.9-2.4-6.8V64.2h-2.2c-0.5,0-1-0.2-1.3-0.5s-0.5-0.8-0.5-1.3v-4.2h4v-8.5h6.9v8.5h7.4V64.2z"/>
	<path class="st0" d="M89.4,64.2H82v10.3c0,0.8,0.2,1.5,0.8,2.1s1.2,0.8,2,0.8h2.9c0.5,0,1,0.2,1.3,0.5s0.5,0.8,0.5,1.3v4.6h-5.2
		c-2.8,0-5-0.8-6.6-2.4s-2.4-3.9-2.4-6.8V64.2h-2.2c-0.5,0-1-0.2-1.3-0.5s-0.5-0.8-0.5-1.3v-4.2h4v-8.5H82v8.5h7.4V64.2z"/>
	<path class="st0" d="M114.8,80.5c-2.3,2.4-5.4,3.6-9.3,3.6s-7-1.2-9.3-3.6s-3.5-5.6-3.5-9.7s1.2-7.3,3.5-9.7s5.4-3.6,9.3-3.6
		s7,1.2,9.3,3.6s3.5,5.6,3.5,9.7C118.3,74.9,117.1,78.1,114.8,80.5z M101.2,76.1c1,1.3,2.5,2,4.3,2s3.3-0.7,4.3-2s1.5-3.1,1.5-5.2
		s-0.5-3.9-1.5-5.2s-2.5-2-4.3-2s-3.3,0.7-4.3,2s-1.5,3.1-1.5,5.2S100.2,74.8,101.2,76.1z"/>
	<path class="st0" d="M149.7,57.7c3.3,0,5.8,0.9,7.5,2.8s2.6,4.6,2.6,8.1v15h-6.9V69.3c0-1.9-0.3-3.4-0.9-4.3s-1.8-1.4-3.4-1.4
		c-1.6,0-2.8,0.5-3.8,1.5s-1.4,2.4-1.4,4.2v14.2h-6.9V49.7h6.9v10.5C145.1,58.5,147.2,57.7,149.7,57.7z"/>
	<path class="st0" d="M187.9,77.1c0.3,0.3,0.5,0.9,0.5,1.7v4.9h-0.7c-3,0-5.1-1-6.4-2.9c-2.1,2.2-5.1,3.3-9,3.3c-2.5,0-4.5-0.7-6-2
		s-2.2-3.2-2.2-5.5c0-2.2,0.7-4,2.1-5.5s3.6-2.4,6.5-2.8c3.7-0.4,6.1-1,7.4-1.7v-0.1c0-0.8-0.4-1.5-1.2-2s-1.7-0.8-2.9-0.8
		c-0.6,0-1.2,0-1.7,0.1s-1,0.2-1.5,0.4s-0.8,0.3-1,0.4s-0.5,0.3-1,0.6s-0.7,0.4-0.7,0.4c-0.6,0.3-1.1,0.4-1.7,0.3s-1-0.4-1.3-0.8
		l-2.1-2.9c0.3-0.4,0.8-0.9,1.3-1.3s1.3-0.9,2.2-1.4s1.9-0.9,3.1-1.3s2.5-0.5,3.8-0.5c3.7,0,6.6,0.9,8.5,2.6s2.9,4.3,2.9,7.7v7.2
		C186.9,76,187.2,76.7,187.9,77.1L187.9,77.1z M173.2,78.3c0.7,0,1.4,0,2-0.1s1.2-0.3,1.8-0.5s1.2-0.6,1.6-1s0.8-1,1.1-1.7
		s0.4-1.5,0.4-2.4v-0.7c-1.3,1.1-3.3,1.6-5.9,1.7c-1.2,0.1-2.1,0.4-2.7,0.8s-0.9,1-0.9,1.8c0,0.7,0.2,1.2,0.7,1.6
		S172.4,78.3,173.2,78.3z"/>
	<path class="st0" d="M16.6,105.7c3.8,0,6.7,1.2,8.7,3.5s3.1,5.6,3.1,9.7c0,4-1.1,7.2-3.2,9.6s-4.9,3.6-8.4,3.6
		c-3.1,0-5.7-1.2-7.9-3.6v2.2c0,0.2-0.1,0.5-0.3,0.7s-0.4,0.3-0.7,0.3H2.9V97.7h6.9v10.5C11.6,106.5,13.9,105.7,16.6,105.7z
		 M15.6,126.1c1.8,0,3.2-0.7,4.3-2s1.6-3.1,1.6-5.2S21,115,20,113.7s-2.4-2-4.3-2c-1.8,0-3.3,0.6-4.4,1.9s-1.6,3-1.6,5.2v0.3
		c0,2.2,0.5,3.9,1.6,5.1S13.8,126.1,15.6,126.1z"/>
	<path class="st0" d="M36.5,103.5c-1.1,0-2-0.3-2.7-1s-1-1.6-1-2.7c0-1.1,0.3-2,1-2.7s1.6-1.1,2.7-1.1c1.1,0,2,0.4,2.7,1.1
		s1.1,1.6,1.1,2.7c0,1.1-0.4,2-1.1,2.7S37.6,103.5,36.5,103.5z M33.1,131.6v-25.4H40v25.4H33.1z"/>
	<path class="st0" d="M55,132.1c-2.2,0-4.2-0.3-6-0.9s-3.4-1.4-4.5-2.4l2.7-4.1c0.2-0.3,0.5-0.5,0.8-0.5s0.7,0,1,0.2
		c2,1.2,4,1.7,5.9,1.7c1.2,0,2.1-0.2,2.7-0.6s0.9-0.9,0.9-1.6c0-0.5-0.2-1-0.6-1.3s-0.9-0.6-1.7-0.8c-0.6-0.2-1.5-0.4-2.6-0.6
		s-2.1-0.5-2.8-0.7c-1.8-0.5-3.2-1.3-4.2-2.6s-1.5-2.7-1.5-4.5c0-2.4,0.9-4.3,2.7-5.8s4.1-2.2,7.1-2.2c1.9,0,3.7,0.3,5.4,0.9
		s3,1.4,4.1,2.2l-2.5,4.1c-0.4,0.7-1,0.8-1.7,0.4c-2-1.2-4-1.8-6-1.8c-0.8,0-1.4,0.2-1.8,0.5s-0.7,0.7-0.7,1.2c0,0.4,0.1,0.7,0.4,1
		s0.7,0.5,1.2,0.6c1.1,0.3,2.6,0.8,4.5,1.2c2.5,0.6,4.4,1.6,5.6,3s1.9,3.1,1.9,5c0,2.5-0.9,4.4-2.7,5.9S58.1,132.1,55,132.1z"/>
	<path class="st0" d="M89.6,128.5c-2.3,2.4-5.4,3.6-9.3,3.6s-7-1.2-9.3-3.6s-3.5-5.6-3.5-9.7s1.2-7.3,3.5-9.7s5.4-3.6,9.3-3.6
		s7,1.2,9.3,3.6s3.5,5.6,3.5,9.7C93,122.9,91.9,126.1,89.6,128.5z M76,124.1c1,1.3,2.5,2,4.3,2s3.3-0.7,4.3-2s1.5-3.1,1.5-5.2
		s-0.5-3.9-1.5-5.2s-2.5-2-4.3-2s-3.3,0.7-4.3,2s-1.5,3.1-1.5,5.2S74.9,122.8,76,124.1z"/>
	<path class="st0" d="M112.2,126.9c2.8,0,5,0.6,6.5,1.7s2.2,2.8,2.2,5c0,2.2-1,4.1-3.1,5.4s-5.3,2.1-9.6,2.1c-3.9,0-6.9-0.7-9.1-2.2
		s-3.3-3.2-3.3-5.4c0-1.4,0.3-2.5,1-3.5s1.4-1.6,2.1-1.8c-0.4-0.1-0.8-0.4-1.2-1s-0.7-1.3-0.7-2.2c0-1.7,0.7-2.9,2.2-3.8
		c-1.7-1.7-2.6-3.8-2.6-6.3c0-3,1-5.3,2.9-6.9s4.6-2.4,7.9-2.4c2.6,0,4.8,0.5,6.5,1.5c0.6-0.6,1.5-0.9,2.6-0.9h3.5v3.9
		c0,0.5-0.1,0.8-0.4,1.1s-0.6,0.4-1.1,0.4h-0.7c0.3,1,0.5,2.1,0.5,3.3c0,3-1,5.3-3.1,6.9s-4.8,2.4-8.4,2.4H105
		c-0.6,0-1.2,0.1-1.5,0.3s-0.6,0.6-0.6,1c0,0.9,0.9,1.4,2.7,1.4H112.2z M108.2,135.4c2.3,0,3.9-0.2,5-0.6s1.6-0.9,1.6-1.5
		c0-1-0.9-1.5-2.8-1.5h-7c-2,0-2.9,0.5-2.9,1.5c0,0.6,0.6,1.1,1.7,1.5S106.5,135.4,108.2,135.4z M110.6,112.3
		c-0.8-0.6-1.9-0.9-3.3-0.9s-2.4,0.3-3.2,0.9s-1.2,1.4-1.2,2.5c0,1.1,0.4,2,1.2,2.6s1.9,0.9,3.2,0.9c1.4,0,2.5-0.3,3.3-0.9
		s1.2-1.5,1.2-2.6C111.8,113.8,111.4,112.9,110.6,112.3z"/>
	<path class="st0" d="M137.6,105.7c3.3,0,5.8,0.9,7.5,2.8s2.6,4.6,2.6,8.1v15h-6.9v-14.2c0-1.9-0.3-3.4-0.9-4.3s-1.8-1.4-3.4-1.4
		c-1.6,0-2.8,0.5-3.7,1.5s-1.3,2.4-1.3,4.2v14.2h-6.9v-25.4h5.2c0.3,0,0.5,0.1,0.7,0.3s0.3,0.4,0.3,0.7v1.9
		C132.5,106.8,134.8,105.7,137.6,105.7z"/>
	<path class="st0" d="M174.1,128.5c-2.3,2.4-5.4,3.6-9.3,3.6s-7-1.2-9.3-3.6s-3.5-5.6-3.5-9.7s1.2-7.3,3.5-9.7s5.4-3.6,9.3-3.6
		s7,1.2,9.3,3.6s3.5,5.6,3.5,9.7C177.5,122.9,176.4,126.1,174.1,128.5z M160.4,124.1c1,1.3,2.5,2,4.3,2s3.3-0.7,4.3-2
		s1.5-3.1,1.5-5.2s-0.5-3.9-1.5-5.2s-2.5-2-4.3-2s-3.3,0.7-4.3,2s-1.5,3.1-1.5,5.2S159.4,122.8,160.4,124.1z"/>
	<path class="st0" d="M212.4,97.7h6.9v33.9h-5.2c-0.3,0-0.5-0.1-0.7-0.3s-0.3-0.4-0.3-0.7v-2.2c-2.1,2.4-4.8,3.6-7.9,3.6
		c-3.5,0-6.3-1.2-8.4-3.6s-3.1-5.6-3.1-9.6c0-4.2,1-7.4,3.1-9.7s5-3.5,8.7-3.5c2.7,0,5,0.8,6.8,2.3V97.7z M206.5,126.1
		c1.8,0,3.3-0.6,4.3-1.9s1.6-2.9,1.6-5.1v-0.5c0-2.1-0.5-3.8-1.6-5.1s-2.5-1.9-4.3-1.9s-3.2,0.7-4.3,2s-1.5,3.1-1.5,5.2
		s0.5,3.9,1.6,5.2S204.7,126.1,206.5,126.1z"/>
	<path class="st0" d="M229.4,103.5c-1.1,0-2-0.3-2.7-1s-1-1.6-1-2.7c0-1.1,0.3-2,1-2.7s1.6-1.1,2.7-1.1c1.1,0,2,0.4,2.7,1.1
		s1.1,1.6,1.1,2.7c0,1.1-0.4,2-1.1,2.7S230.5,103.5,229.4,103.5z M226,131.6v-25.4h6.9v25.4H226z"/>
	<path class="st0" d="M268.5,112.2h-7.4v10.3c0,0.8,0.2,1.5,0.8,2.1s1.2,0.8,2,0.8h2.9c0.5,0,1,0.2,1.3,0.5s0.5,0.8,0.5,1.3v4.6
		h-5.2c-2.8,0-5-0.8-6.6-2.4s-2.4-3.9-2.4-6.8v-10.3H252c-0.5,0-1-0.2-1.3-0.5s-0.5-0.8-0.5-1.3v-4.2h4v-8.5h6.9v8.5h7.4V112.2z"/>
	<path class="st0" d="M284.9,105.6c3.8,0,7,1.3,9.3,3.8s3.6,5.8,3.6,9.9v1.1c0,0.2-0.1,0.5-0.3,0.7s-0.4,0.3-0.7,0.3h-17.8
		c0.4,1.4,1.1,2.6,2.1,3.4s2.2,1.3,3.8,1.3c1.1,0,2.1-0.3,2.9-0.8s1.4-1.2,1.8-1.9c0.3-0.5,0.8-0.6,1.3-0.4l5.7,2
		c-0.9,2.2-2.3,4-4.3,5.2s-4.5,1.9-7.5,1.9c-3.9,0-7-1.2-9.4-3.6s-3.6-5.6-3.6-9.5c0-4,1.2-7.2,3.6-9.7S281,105.6,284.9,105.6z
		 M284.9,111.6c-1.4,0-2.6,0.4-3.5,1.1s-1.7,1.8-2.1,3.1h11.2c-0.5-1.3-1.2-2.3-2.1-3.1S286.2,111.6,284.9,111.6z"/>
</g>
</svg>
