<?xml version="1.0" encoding="utf-8"?>
<!-- Generator: Adobe Illustrator 24.3.0, SVG Export Plug-In . SVG Version: 6.00 Build 0)  -->
<svg version="1.1" id="Laag_1" xmlns="http://www.w3.org/2000/svg" xmlns:xlink="http://www.w3.org/1999/xlink" x="0px" y="0px"
	 width="379.6px" height="180.4px" viewBox="0 0 379.6 180.4" style="enable-background:new 0 0 379.6 180.4;" xml:space="preserve"
	>
<style type="text/css">
	.st0{fill:#6A3F24;}
</style>
<g>
	<path class="st0" d="M16.4,36.3c-3.3,0-6.3-0.7-8.8-2.2S3.3,30.6,2,28s-2-5.7-2-9.1c0-3.5,0.7-6.5,2-9.2s3.2-4.7,5.7-6.1
		s5.4-2.2,8.7-2.2s6.2,0.7,8.7,2.2s4.4,3.5,5.7,6.1s2,5.7,2,9.2c0,5.3-1.5,9.5-4.4,12.7S21.4,36.3,16.4,36.3z M16.4,29.7
		c2.9,0,5.2-1,6.8-3s2.4-4.6,2.4-7.9c0-3.3-0.8-5.9-2.4-7.9s-3.9-3-6.8-3c-2.9,0-5.2,1-6.8,3s-2.4,4.6-2.4,7.9c0,1,0.1,2,0.3,3
		s0.5,1.9,1,2.9s1,1.8,1.7,2.5s1.6,1.3,2.7,1.7S15.1,29.7,16.4,29.7z"/>
	<path class="st0" d="M51.7,10.4h0.4v3.9c0,0.5-0.2,1-0.5,1.3s-0.7,0.5-1.2,0.5h-0.3c-2,0-3.4,0.6-4.4,1.8s-1.5,2.8-1.5,5v12.9h-6.9
		V10.4h5.2c0.3,0,0.5,0.1,0.7,0.3s0.3,0.4,0.3,0.7v2.5C45.5,11.6,48.2,10.4,51.7,10.4z"/>
	<path class="st0" d="M77.3,29.3c0.3,0.3,0.5,0.9,0.5,1.7v4.9h-0.7c-3,0-5.1-1-6.4-2.9c-2.1,2.2-5.1,3.3-9,3.3c-2.5,0-4.5-0.7-6-2
		s-2.2-3.2-2.2-5.5c0-2.2,0.7-4,2.1-5.5s3.6-2.4,6.5-2.8c3.7-0.4,6.1-1,7.4-1.7v-0.1c0-0.8-0.4-1.5-1.2-2s-1.7-0.8-2.9-0.8
		c-0.6,0-1.2,0-1.7,0.1c-0.5,0.1-1,0.2-1.5,0.4s-0.8,0.3-1,0.4s-0.5,0.3-1,0.6s-0.7,0.4-0.7,0.4c-0.6,0.3-1.1,0.4-1.7,0.3
		s-1-0.4-1.3-0.8l-2.1-2.9c0.3-0.4,0.8-0.9,1.3-1.3s1.3-0.9,2.2-1.4s1.9-0.9,3.1-1.3s2.5-0.5,3.8-0.5c3.7,0,6.6,0.9,8.5,2.6
		s2.9,4.3,2.9,7.7v7.2C76.4,28.3,76.7,28.9,77.3,29.3L77.3,29.3z M62.7,30.6c0.7,0,1.4,0,2-0.1s1.2-0.3,1.8-0.5s1.2-0.6,1.6-1
		s0.8-1,1.1-1.7s0.4-1.5,0.4-2.4v-0.7c-1.3,1.1-3.3,1.6-5.9,1.7c-1.2,0.1-2.1,0.4-2.7,0.8s-0.9,1-0.9,1.8c0,0.7,0.2,1.2,0.7,1.6
		S61.9,30.6,62.7,30.6z"/>
	<path class="st0" d="M110,9.9c3.5,0,6.3,1.2,8.3,3.6s3.1,5.6,3.1,9.6c0,4.2-1,7.4-3.1,9.7s-5,3.5-8.8,3.5c-2.7,0-5-0.8-6.7-2.2
		v10.2H96V10.4h5.2c0.3,0,0.5,0.1,0.7,0.3s0.3,0.4,0.3,0.7v2.2C104.2,11.1,106.9,9.9,110,9.9z M108.7,30.3c1.8,0,3.2-0.7,4.3-2
		s1.6-3.1,1.6-5.2s-0.5-3.9-1.5-5.2s-2.4-2-4.3-2s-3.3,0.6-4.3,1.8s-1.6,2.9-1.7,5v0.5c0,2.2,0.5,3.9,1.6,5.2S106.9,30.3,108.7,30.3
		z"/>
	<path class="st0" d="M129.4,7.7c-1.1,0-2-0.3-2.7-1s-1-1.6-1-2.7c0-1.1,0.3-2,1-2.7s1.6-1.1,2.7-1.1c1.1,0,2,0.4,2.7,1.1
		s1.1,1.6,1.1,2.7c0,1.1-0.4,2-1.1,2.7S130.5,7.7,129.4,7.7z M126,35.8V10.4h6.9v25.4H126z"/>
	<path class="st0" d="M155.4,10.4h6.9v25.4h-5.2c-0.3,0-0.5-0.1-0.7-0.3s-0.3-0.4-0.3-0.7V33c-1.8,2.2-4.1,3.3-6.8,3.3
		c-3.3,0-5.8-0.9-7.5-2.6c-1.7-1.8-2.5-4.4-2.5-7.9V10.4h6.9v14.2c0,1.9,0.3,3.4,0.9,4.3s1.8,1.4,3.4,1.4c1.6,0,2.8-0.5,3.7-1.5
		s1.3-2.4,1.3-4.2V10.4z"/>
	<path class="st0" d="M193.3,36.4c-3.9,0-7-1.2-9.3-3.6s-3.4-5.6-3.4-9.5c0-4.1,1.1-7.3,3.4-9.7s5.4-3.6,9.3-3.6
		c3.1,0,5.6,0.8,7.8,2.3s3.5,3.8,4.2,6.7l-5.3,1c-1,0.2-1.7-0.1-2.1-0.9c-0.8-2.1-2.4-3.1-4.6-3.1c-1.9,0-3.3,0.7-4.4,2
		s-1.5,3.1-1.5,5.3c0,2.1,0.5,3.8,1.5,5.1s2.5,2,4.3,2c1.3,0,2.3-0.3,3-0.8s1.3-1.4,1.7-2.5c0.2-0.4,0.5-0.7,0.9-0.9
		s0.8-0.2,1.3-0.1l5.2,1c-0.6,3.1-2,5.4-4.2,7S196.4,36.4,193.3,36.4z"/>
	<path class="st0" d="M222.7,9.9c3.3,0,5.8,0.9,7.5,2.8s2.6,4.6,2.6,8.1v15h-6.9V21.6c0-1.9-0.3-3.4-0.9-4.3s-1.8-1.4-3.4-1.4
		c-1.6,0-2.8,0.5-3.8,1.5s-1.4,2.4-1.4,4.2v14.3h-6.9V1.9h6.9v10.5C218.1,10.8,220.2,9.9,222.7,9.9z"/>
	<path class="st0" d="M250.1,9.9c3.8,0,7,1.3,9.3,3.8s3.6,5.8,3.6,9.9v1.1c0,0.2-0.1,0.5-0.3,0.7s-0.4,0.3-0.7,0.3h-17.8
		c0.4,1.4,1.1,2.6,2.1,3.4s2.2,1.3,3.8,1.3c1.1,0,2.1-0.3,2.9-0.8s1.4-1.2,1.8-1.9c0.3-0.5,0.8-0.6,1.3-0.4l5.7,2
		c-0.9,2.2-2.3,4-4.3,5.3s-4.5,1.9-7.5,1.9c-3.9,0-7-1.2-9.4-3.6s-3.6-5.6-3.6-9.5c0-4,1.2-7.2,3.6-9.7S246.2,9.9,250.1,9.9z
		 M250.1,15.9c-1.4,0-2.6,0.4-3.5,1.1s-1.7,1.8-2.1,3.1h11.2c-0.5-1.3-1.2-2.3-2.1-3.1S251.4,15.9,250.1,15.9z"/>
	<path class="st0" d="M308.8,9.9c3.1,0,5.4,0.9,7,2.8s2.4,4.5,2.4,8v15.1h-6.9V21.5c0-1.9-0.3-3.3-0.9-4.2s-1.6-1.3-3-1.3
		c-1.5,0-2.6,0.5-3.3,1.4s-1,2.3-1,4.2v14.3h-6.9V21.5c0-1.9-0.3-3.2-1-4.2s-1.6-1.4-3-1.4c-1.5,0-2.6,0.5-3.2,1.4s-1,2.4-1,4.2
		v14.3h-6.9V10.4h5.2c0.3,0,0.5,0.1,0.7,0.3s0.3,0.4,0.3,0.7V13c1.7-2.1,3.8-3.1,6.4-3.1c3.7,0,6.3,1.3,7.8,3.8
		C303.4,11.2,305.8,9.9,308.8,9.9z"/>
	<path class="st0" d="M346.3,29.3c0.3,0.3,0.5,0.9,0.5,1.7v4.9h-0.7c-3,0-5.1-1-6.4-2.9c-2.1,2.2-5.1,3.3-9,3.3c-2.5,0-4.5-0.7-6-2
		s-2.2-3.2-2.2-5.5c0-2.2,0.7-4,2.1-5.5s3.6-2.4,6.5-2.8c3.7-0.4,6.1-1,7.4-1.7v-0.1c0-0.8-0.4-1.5-1.2-2s-1.7-0.8-2.9-0.8
		c-0.6,0-1.2,0-1.7,0.1c-0.5,0.1-1,0.2-1.5,0.4s-0.8,0.3-1,0.4s-0.5,0.3-1,0.6s-0.7,0.4-0.7,0.4c-0.6,0.3-1.1,0.4-1.7,0.3
		s-1-0.4-1.3-0.8l-2.1-2.9c0.3-0.4,0.8-0.9,1.3-1.3s1.3-0.9,2.2-1.4s1.9-0.9,3.1-1.3s2.5-0.5,3.8-0.5c3.7,0,6.6,0.9,8.5,2.6
		s2.9,4.3,2.9,7.7v7.2C345.3,28.3,345.6,28.9,346.3,29.3L346.3,29.3z M331.6,30.6c0.7,0,1.4,0,2-0.1s1.2-0.3,1.8-0.5s1.2-0.6,1.6-1
		s0.8-1,1.1-1.7s0.4-1.5,0.4-2.4v-0.7c-1.3,1.1-3.3,1.6-5.9,1.7c-1.2,0.1-2.1,0.4-2.7,0.8s-0.9,1-0.9,1.8c0,0.7,0.2,1.2,0.7,1.6
		S330.8,30.6,331.6,30.6z"/>
	<path class="st0" d="M354.8,7.7c-1.1,0-2-0.3-2.7-1s-1-1.6-1-2.7c0-1.1,0.3-2,1-2.7s1.6-1.1,2.7-1.1c1.1,0,2,0.4,2.7,1.1
		s1.1,1.6,1.1,2.7c0,1.1-0.4,2-1.1,2.7S355.9,7.7,354.8,7.7z M351.4,35.8V10.4h6.9v25.4H351.4z"/>
	<path class="st0" d="M4.9,55.7c-1.1,0-2-0.3-2.7-1s-1-1.6-1-2.7c0-1.1,0.3-2,1-2.7s1.6-1.1,2.7-1.1c1.1,0,2,0.4,2.7,1.1
		s1.1,1.6,1.1,2.7c0,1.1-0.4,2-1.1,2.7S6,55.7,4.9,55.7z M1.5,83.8V58.4h6.9v25.4H1.5z"/>
	<path class="st0" d="M23.5,83.9c-2.6,0-4.7-0.7-6.2-2.2s-2.2-3.5-2.2-6.2V49.9H22v25.6c0,0.6,0.2,1.1,0.6,1.5s0.9,0.6,1.5,0.6h1.3
		c0.5,0,0.9,0.2,1.3,0.5s0.5,0.8,0.5,1.3v4.6H23.5z"/>
	<path class="st0" d="M60.4,64.4H53v10.3c0,0.8,0.2,1.5,0.8,2.1s1.2,0.8,2,0.8h2.9c0.5,0,1,0.2,1.3,0.5s0.5,0.8,0.5,1.3v4.6h-5.2
		c-2.8,0-5-0.8-6.6-2.4s-2.4-3.9-2.4-6.8V64.4h-2.2c-0.5,0-1-0.2-1.3-0.5s-0.5-0.8-0.5-1.3v-4.2h4v-8.5H53v8.5h7.4V64.4z"/>
	<path class="st0" d="M81.6,58.4h6.9v25.4h-5.2c-0.3,0-0.5-0.1-0.7-0.3s-0.3-0.4-0.3-0.7V81c-1.8,2.2-4.1,3.3-6.8,3.3
		c-3.3,0-5.8-0.9-7.5-2.6s-2.5-4.4-2.5-7.9V58.4h6.9v14.2c0,1.9,0.3,3.4,0.9,4.3s1.8,1.4,3.4,1.4c1.6,0,2.8-0.5,3.7-1.5
		s1.3-2.4,1.3-4.2V58.4z"/>
	<path class="st0" d="M115.3,80.8c-2.3,2.4-5.4,3.6-9.3,3.6s-7-1.2-9.3-3.6s-3.5-5.6-3.5-9.7s1.2-7.3,3.5-9.7s5.4-3.6,9.3-3.6
		s7,1.2,9.3,3.6s3.5,5.6,3.5,9.7C118.7,75.2,117.6,78.4,115.3,80.8z M101.6,76.4c1,1.3,2.5,2,4.3,2s3.3-0.7,4.3-2s1.5-3.1,1.5-5.2
		s-0.5-3.9-1.5-5.2s-2.5-2-4.3-2s-3.3,0.7-4.3,2s-1.5,3.1-1.5,5.2S100.6,75,101.6,76.4z"/>
	<path class="st0" d="M153.6,49.9h6.9v33.9h-5.2c-0.3,0-0.5-0.1-0.7-0.3s-0.3-0.4-0.3-0.7v-2.2c-2.1,2.4-4.8,3.6-7.9,3.6
		c-3.5,0-6.3-1.2-8.4-3.6s-3.1-5.6-3.1-9.6c0-4.2,1-7.4,3.1-9.7s5-3.5,8.7-3.5c2.7,0,5,0.8,6.8,2.3V49.9z M147.7,78.3
		c1.8,0,3.3-0.6,4.3-1.9s1.6-2.9,1.6-5.1v-0.5c0-2.1-0.5-3.8-1.6-5.1s-2.5-1.9-4.3-1.9s-3.2,0.7-4.3,2s-1.5,3.1-1.5,5.2
		s0.5,3.9,1.6,5.2S145.9,78.3,147.7,78.3z"/>
	<path class="st0" d="M187.2,80.8c-2.3,2.4-5.4,3.6-9.3,3.6s-7-1.2-9.3-3.6s-3.5-5.6-3.5-9.7s1.2-7.3,3.5-9.7s5.4-3.6,9.3-3.6
		s7,1.2,9.3,3.6s3.5,5.6,3.5,9.7C190.7,75.2,189.5,78.4,187.2,80.8z M173.6,76.4c1,1.3,2.5,2,4.3,2s3.3-0.7,4.3-2s1.5-3.1,1.5-5.2
		s-0.5-3.9-1.5-5.2s-2.5-2-4.3-2s-3.3,0.7-4.3,2s-1.5,3.1-1.5,5.2S172.6,75,173.6,76.4z"/>
	<path class="st0" d="M208.4,57.9c3.3,0,5.8,0.9,7.5,2.8s2.6,4.6,2.6,8.1v15h-6.9V69.6c0-1.9-0.3-3.4-0.9-4.3s-1.8-1.4-3.4-1.4
		c-1.6,0-2.8,0.5-3.7,1.5s-1.3,2.4-1.3,4.2v14.2h-6.9V58.4h5.2c0.3,0,0.5,0.1,0.7,0.3s0.3,0.4,0.3,0.7v1.9
		C203.3,59,205.6,57.9,208.4,57.9z"/>
	<path class="st0" d="M244.9,80.8c-2.3,2.4-5.4,3.6-9.3,3.6s-7-1.2-9.3-3.6s-3.5-5.6-3.5-9.7s1.2-7.3,3.5-9.7s5.4-3.6,9.3-3.6
		s7,1.2,9.3,3.6s3.5,5.6,3.5,9.7C248.3,75.2,247.2,78.4,244.9,80.8z M231.3,76.4c1,1.3,2.5,2,4.3,2s3.3-0.7,4.3-2s1.5-3.1,1.5-5.2
		s-0.5-3.9-1.5-5.2s-2.5-2-4.3-2s-3.3,0.7-4.3,2s-1.5,3.1-1.5,5.2S230.2,75,231.3,76.4z"/>
	<path class="st0" d="M288.3,77.3c0.3,0.3,0.5,0.9,0.5,1.7v4.9h-0.7c-3,0-5.1-1-6.4-2.9c-2.1,2.2-5.1,3.3-9,3.3c-2.5,0-4.5-0.7-6-2
		s-2.2-3.2-2.2-5.5c0-2.2,0.7-4,2.1-5.5s3.6-2.4,6.5-2.8c3.7-0.4,6.1-1,7.4-1.7v-0.1c0-0.8-0.4-1.5-1.2-2s-1.7-0.8-2.9-0.8
		c-0.6,0-1.2,0-1.7,0.1s-1,0.2-1.5,0.4s-0.8,0.3-1,0.4s-0.5,0.3-1,0.6s-0.7,0.4-0.7,0.4c-0.6,0.3-1.1,0.4-1.7,0.3s-1-0.4-1.3-0.8
		l-2.1-2.9c0.3-0.4,0.8-0.9,1.3-1.3s1.3-0.9,2.2-1.4s1.9-0.9,3.1-1.3s2.5-0.5,3.8-0.5c3.7,0,6.6,0.9,8.5,2.6s2.9,4.3,2.9,7.7v7.2
		C287.3,76.3,287.7,76.9,288.3,77.3L288.3,77.3z M273.7,78.6c0.7,0,1.4,0,2-0.1s1.2-0.3,1.8-0.5s1.2-0.6,1.6-1s0.8-1,1.1-1.7
		s0.4-1.5,0.4-2.4v-0.7c-1.3,1.1-3.3,1.6-5.9,1.7c-1.2,0.1-2.1,0.4-2.7,0.8s-0.9,1-0.9,1.8c0,0.7,0.2,1.2,0.7,1.6
		S272.8,78.6,273.7,78.6z"/>
	<path class="st0" d="M296.8,55.7c-1.1,0-2-0.3-2.7-1s-1-1.6-1-2.7c0-1.1,0.3-2,1-2.7s1.6-1.1,2.7-1.1c1.1,0,2,0.4,2.7,1.1
		s1.1,1.6,1.1,2.7c0,1.1-0.4,2-1.1,2.7S297.9,55.7,296.8,55.7z M293.4,83.8V58.4h6.9v25.4H293.4z"/>
	<path class="st0" d="M322.9,58.4h6.9v25.4h-5.2c-0.3,0-0.5-0.1-0.7-0.3s-0.3-0.4-0.3-0.7V81c-1.8,2.2-4.1,3.3-6.8,3.3
		c-3.3,0-5.8-0.9-7.5-2.6s-2.5-4.4-2.5-7.9V58.4h6.9v14.2c0,1.9,0.3,3.4,0.9,4.3s1.8,1.4,3.4,1.4c1.6,0,2.8-0.5,3.7-1.5
		s1.3-2.4,1.3-4.2V58.4z"/>
	<path class="st0" d="M351.9,64.4h-7.4v10.3c0,0.8,0.2,1.5,0.8,2.1s1.2,0.8,2,0.8h2.9c0.5,0,1,0.2,1.3,0.5s0.5,0.8,0.5,1.3v4.6h-5.2
		c-2.8,0-5-0.8-6.6-2.4s-2.4-3.9-2.4-6.8V64.4h-2.2c-0.5,0-1-0.2-1.3-0.5s-0.5-0.8-0.5-1.3v-4.2h4v-8.5h6.9v8.5h7.4V64.4z"/>
	<path class="st0" d="M379.1,77.3c0.3,0.3,0.5,0.9,0.5,1.7v4.9h-0.7c-3,0-5.1-1-6.4-2.9c-2.1,2.2-5.1,3.3-9,3.3c-2.5,0-4.5-0.7-6-2
		s-2.2-3.2-2.2-5.5c0-2.2,0.7-4,2.1-5.5s3.6-2.4,6.5-2.8c3.7-0.4,6.1-1,7.4-1.7v-0.1c0-0.8-0.4-1.5-1.2-2s-1.7-0.8-2.9-0.8
		c-0.6,0-1.2,0-1.7,0.1s-1,0.2-1.5,0.4s-0.8,0.3-1,0.4s-0.5,0.3-1,0.6s-0.7,0.4-0.7,0.4c-0.6,0.3-1.1,0.4-1.7,0.3s-1-0.4-1.3-0.8
		l-2.1-2.9c0.3-0.4,0.8-0.9,1.3-1.3s1.3-0.9,2.2-1.4s1.9-0.9,3.1-1.3s2.5-0.5,3.8-0.5c3.7,0,6.6,0.9,8.5,2.6s2.9,4.3,2.9,7.7v7.2
		C378.1,76.3,378.4,76.9,379.1,77.3L379.1,77.3z M364.4,78.6c0.7,0,1.4,0,2-0.1s1.2-0.3,1.8-0.5s1.2-0.6,1.6-1s0.8-1,1.1-1.7
		s0.4-1.5,0.4-2.4v-0.7c-1.3,1.1-3.3,1.6-5.9,1.7c-1.2,0.1-2.1,0.4-2.7,0.8s-0.9,1-0.9,1.8c0,0.7,0.2,1.2,0.7,1.6
		S363.6,78.6,364.4,78.6z"/>
	<path class="st0" d="M29.1,105.9c3.1,0,5.4,0.9,7,2.8s2.4,4.5,2.4,8v15.1h-6.9v-14.3c0-1.9-0.3-3.3-0.9-4.2s-1.6-1.3-3-1.3
		c-1.5,0-2.6,0.5-3.3,1.4s-1,2.3-1,4.2v14.3h-6.9v-14.3c0-1.9-0.3-3.2-1-4.2s-1.6-1.4-3-1.4c-1.5,0-2.6,0.5-3.2,1.4s-1,2.4-1,4.2
		v14.2H1.6v-25.4h5.2c0.3,0,0.5,0.1,0.7,0.3s0.3,0.4,0.3,0.7v1.7c1.7-2.1,3.8-3.1,6.4-3.1c3.7,0,6.3,1.3,7.8,3.8
		C23.7,107.2,26.1,105.9,29.1,105.9z"/>
	<path class="st0" d="M66.6,125.3c0.3,0.3,0.5,0.9,0.5,1.7v4.9h-0.7c-3,0-5.1-1-6.4-2.9c-2.1,2.2-5.1,3.3-9,3.3c-2.5,0-4.5-0.7-6-2
		s-2.2-3.2-2.2-5.5c0-2.2,0.7-4,2.1-5.5s3.6-2.4,6.5-2.8c3.7-0.4,6.1-1,7.4-1.7v-0.1c0-0.8-0.4-1.5-1.2-2s-1.7-0.8-2.9-0.8
		c-0.6,0-1.2,0-1.7,0.1s-1,0.2-1.5,0.4s-0.8,0.3-1,0.4s-0.5,0.3-1,0.6s-0.7,0.4-0.7,0.4c-0.6,0.3-1.1,0.4-1.7,0.3s-1-0.4-1.3-0.8
		l-2.1-2.9c0.3-0.4,0.8-0.9,1.3-1.3s1.3-0.9,2.2-1.4s1.9-0.9,3.1-1.3s2.5-0.5,3.8-0.5c3.7,0,6.6,0.9,8.5,2.6s2.9,4.3,2.9,7.7v7.2
		C65.6,124.3,66,124.9,66.6,125.3L66.6,125.3z M52,126.6c0.7,0,1.4,0,2-0.1s1.2-0.3,1.8-0.5s1.2-0.6,1.6-1s0.8-1,1.1-1.7
		s0.4-1.5,0.4-2.4v-0.7c-1.3,1.1-3.3,1.6-5.9,1.7c-1.2,0.1-2.1,0.4-2.7,0.8s-0.9,1-0.9,1.8c0,0.7,0.2,1.2,0.7,1.6
		S51.1,126.6,52,126.6z"/>
	<path class="st0" d="M99.3,105.9c3.1,0,5.4,0.9,7,2.8s2.4,4.5,2.4,8v15.1h-6.9v-14.3c0-1.9-0.3-3.3-0.9-4.2s-1.6-1.3-3-1.3
		c-1.5,0-2.6,0.5-3.3,1.4s-1,2.3-1,4.2v14.3h-6.9v-14.3c0-1.9-0.3-3.2-1-4.2s-1.6-1.4-3-1.4c-1.5,0-2.6,0.5-3.2,1.4s-1,2.4-1,4.2
		v14.2h-6.9v-25.4h5.2c0.3,0,0.5,0.1,0.7,0.3s0.3,0.4,0.3,0.7v1.7c1.7-2.1,3.8-3.1,6.4-3.1c3.7,0,6.3,1.3,7.8,3.8
		C93.9,107.2,96.3,105.9,99.3,105.9z"/>
	<path class="st0" d="M142.6,105.9c3.1,0,5.4,0.9,7,2.8s2.4,4.5,2.4,8v15.1h-6.9v-14.3c0-1.9-0.3-3.3-0.9-4.2s-1.6-1.3-3-1.3
		c-1.5,0-2.6,0.5-3.3,1.4s-1,2.3-1,4.2v14.3h-6.9v-14.3c0-1.9-0.3-3.2-1-4.2s-1.6-1.4-3-1.4c-1.5,0-2.6,0.5-3.2,1.4s-1,2.4-1,4.2
		v14.2h-6.9v-25.4h5.2c0.3,0,0.5,0.1,0.7,0.3s0.3,0.4,0.3,0.7v1.7c1.7-2.1,3.8-3.1,6.4-3.1c3.7,0,6.3,1.3,7.8,3.8
		C137.2,107.2,139.6,105.9,142.6,105.9z"/>
	<path class="st0" d="M169.4,105.9c3.8,0,7,1.3,9.3,3.8s3.6,5.8,3.6,9.9v1.1c0,0.2-0.1,0.5-0.3,0.7s-0.4,0.3-0.7,0.3h-17.8
		c0.4,1.4,1.1,2.6,2.1,3.4s2.2,1.3,3.8,1.3c1.1,0,2.1-0.3,2.9-0.8s1.4-1.2,1.8-1.9c0.3-0.5,0.8-0.6,1.3-0.4l5.7,2
		c-0.9,2.2-2.3,4-4.3,5.2s-4.5,1.9-7.5,1.9c-3.9,0-7-1.2-9.4-3.6c-2.4-2.4-3.6-5.6-3.6-9.5c0-4,1.2-7.2,3.6-9.7
		S165.5,105.9,169.4,105.9z M169.4,111.9c-1.4,0-2.6,0.4-3.5,1.1s-1.7,1.8-2.1,3.1H175c-0.5-1.3-1.2-2.3-2.1-3.1
		S170.7,111.9,169.4,111.9z"/>
	<path class="st0" d="M211.5,105.9c3.8,0,7,1.3,9.3,3.8s3.6,5.8,3.6,9.9v1.1c0,0.2-0.1,0.5-0.3,0.7s-0.4,0.3-0.7,0.3h-17.8
		c0.4,1.4,1.1,2.6,2.1,3.4s2.2,1.3,3.8,1.3c1.1,0,2.1-0.3,2.9-0.8s1.4-1.2,1.8-1.9c0.3-0.5,0.8-0.6,1.3-0.4l5.7,2
		c-0.9,2.2-2.3,4-4.3,5.2s-4.5,1.9-7.5,1.9c-3.9,0-7-1.2-9.4-3.6c-2.4-2.4-3.6-5.6-3.6-9.5c0-4,1.2-7.2,3.6-9.7
		S207.6,105.9,211.5,105.9z M211.5,111.9c-1.4,0-2.6,0.4-3.5,1.1s-1.7,1.8-2.1,3.1h11.2c-0.5-1.3-1.2-2.3-2.1-3.1
		S212.8,111.9,211.5,111.9z"/>
	<path class="st0" d="M256.7,105.9c3.5,0,6.3,1.2,8.3,3.6s3.1,5.6,3.1,9.6c0,4.2-1,7.4-3.1,9.7c-2.1,2.3-5,3.5-8.8,3.5
		c-2.7,0-5-0.8-6.7-2.2v10.2h-6.9v-33.9h5.2c0.3,0,0.5,0.1,0.7,0.3s0.3,0.4,0.3,0.7v2.2C250.9,107.1,253.5,105.9,256.7,105.9z
		 M255.4,126.3c1.8,0,3.2-0.7,4.3-2s1.6-3.1,1.6-5.2s-0.5-3.9-1.5-5.2s-2.4-2-4.3-2s-3.3,0.6-4.3,1.8s-1.6,2.9-1.7,5v0.5
		c0,2.2,0.5,3.9,1.6,5.2S253.5,126.3,255.4,126.3z"/>
	<path class="st0" d="M294.6,125.3c0.3,0.3,0.5,0.9,0.5,1.7v4.9h-0.7c-3,0-5.1-1-6.4-2.9c-2.1,2.2-5.1,3.3-9,3.3c-2.5,0-4.5-0.7-6-2
		s-2.2-3.2-2.2-5.5c0-2.2,0.7-4,2.1-5.5s3.6-2.4,6.5-2.8c3.7-0.4,6.1-1,7.4-1.7v-0.1c0-0.8-0.4-1.5-1.2-2s-1.7-0.8-2.9-0.8
		c-0.6,0-1.2,0-1.7,0.1s-1,0.2-1.5,0.4s-0.8,0.3-1,0.4s-0.5,0.3-1,0.6s-0.7,0.4-0.7,0.4c-0.6,0.3-1.1,0.4-1.7,0.3s-1-0.4-1.3-0.8
		l-2.1-2.9c0.3-0.4,0.8-0.9,1.3-1.3s1.3-0.9,2.2-1.4s1.9-0.9,3.1-1.3s2.5-0.5,3.8-0.5c3.7,0,6.6,0.9,8.5,2.6s2.9,4.3,2.9,7.7v7.2
		C293.6,124.3,293.9,124.9,294.6,125.3L294.6,125.3z M279.9,126.6c0.7,0,1.4,0,2-0.1s1.2-0.3,1.8-0.5s1.2-0.6,1.6-1s0.8-1,1.1-1.7
		s0.4-1.5,0.4-2.4v-0.7c-1.3,1.1-3.3,1.6-5.9,1.7c-1.2,0.1-2.1,0.4-2.7,0.8s-0.9,1-0.9,1.8c0,0.7,0.2,1.2,0.7,1.6
		S279.1,126.6,279.9,126.6z"/>
	<path class="st0" d="M313.8,105.9c3.5,0,6.3,1.2,8.3,3.6s3.1,5.6,3.1,9.6c0,4.2-1,7.4-3.1,9.7c-2.1,2.3-5,3.5-8.8,3.5
		c-2.7,0-5-0.8-6.7-2.2v10.2h-6.9v-33.9h5.2c0.3,0,0.5,0.1,0.7,0.3s0.3,0.4,0.3,0.7v2.2C308,107.1,310.6,105.9,313.8,105.9z
		 M312.5,126.3c1.8,0,3.2-0.7,4.3-2s1.6-3.1,1.6-5.2s-0.5-3.9-1.5-5.2s-2.4-2-4.3-2s-3.3,0.6-4.3,1.8s-1.6,2.9-1.7,5v0.5
		c0,2.2,0.5,3.9,1.6,5.2S310.6,126.3,312.5,126.3z"/>
	<path class="st0" d="M351.7,125.3c0.3,0.3,0.5,0.9,0.5,1.7v4.9h-0.7c-3,0-5.1-1-6.4-2.9c-2.1,2.2-5.1,3.3-9,3.3c-2.5,0-4.5-0.7-6-2
		s-2.2-3.2-2.2-5.5c0-2.2,0.7-4,2.1-5.5s3.6-2.4,6.5-2.8c3.7-0.4,6.1-1,7.4-1.7v-0.1c0-0.8-0.4-1.5-1.2-2s-1.7-0.8-2.9-0.8
		c-0.6,0-1.2,0-1.7,0.1s-1,0.2-1.5,0.4s-0.8,0.3-1,0.4s-0.5,0.3-1,0.6s-0.7,0.4-0.7,0.4c-0.6,0.3-1.1,0.4-1.7,0.3s-1-0.4-1.3-0.8
		l-2.1-2.9c0.3-0.4,0.8-0.9,1.3-1.3s1.3-0.9,2.2-1.4s1.9-0.9,3.1-1.3s2.5-0.5,3.8-0.5c3.7,0,6.6,0.9,8.5,2.6s2.9,4.3,2.9,7.7v7.2
		C350.7,124.3,351.1,124.9,351.7,125.3L351.7,125.3z M337.1,126.6c0.7,0,1.4,0,2-0.1s1.2-0.3,1.8-0.5s1.2-0.6,1.6-1s0.8-1,1.1-1.7
		s0.4-1.5,0.4-2.4v-0.7c-1.3,1.1-3.3,1.6-5.9,1.7c-1.2,0.1-2.1,0.4-2.7,0.8s-0.9,1-0.9,1.8c0,0.7,0.2,1.2,0.7,1.6
		S336.2,126.6,337.1,126.6z"/>
	<path class="st0" d="M4.9,151.7c-1.1,0-2-0.3-2.7-1s-1-1.6-1-2.7c0-1.1,0.3-2,1-2.7s1.6-1.1,2.7-1.1c1.1,0,2,0.4,2.7,1.1
		s1.1,1.6,1.1,2.7c0,1.1-0.4,2-1.1,2.7S6,151.7,4.9,151.7z M1.5,179.8v-25.4h6.9v25.4H1.5z"/>
	<path class="st0" d="M28.1,153.9c3.3,0,5.8,0.9,7.5,2.8s2.6,4.6,2.6,8.1v15h-6.9v-14.2c0-1.9-0.3-3.4-0.9-4.3s-1.8-1.4-3.4-1.4
		c-1.6,0-2.8,0.5-3.7,1.5s-1.3,2.4-1.3,4.2v14.2h-6.9v-25.4h5.2c0.3,0,0.5,0.1,0.7,0.3s0.3,0.4,0.3,0.7v1.9
		C23.1,155,25.3,153.9,28.1,153.9z"/>
	<path class="st0" d="M74.7,145.9h6.9v33.9h-5.2c-0.3,0-0.5-0.1-0.7-0.3s-0.3-0.4-0.3-0.7v-2.2c-2.1,2.4-4.8,3.6-7.9,3.6
		c-3.5,0-6.3-1.2-8.4-3.6s-3.1-5.6-3.1-9.6c0-4.2,1-7.4,3.1-9.7s5-3.5,8.7-3.5c2.7,0,5,0.8,6.8,2.3V145.9z M68.8,174.3
		c1.8,0,3.3-0.6,4.3-1.9s1.6-2.9,1.6-5.1v-0.5c0-2.1-0.5-3.8-1.6-5.1s-2.5-1.9-4.3-1.9s-3.2,0.7-4.3,2s-1.5,3.1-1.5,5.2
		s0.5,3.9,1.6,5.2S67,174.3,68.8,174.3z"/>
	<path class="st0" d="M91.7,151.7c-1.1,0-2-0.3-2.7-1s-1-1.6-1-2.7c0-1.1,0.3-2,1-2.7s1.6-1.1,2.7-1.1c1.1,0,2,0.4,2.7,1.1
		s1.1,1.6,1.1,2.7c0,1.1-0.4,2-1.1,2.7S92.8,151.7,91.7,151.7z M88.3,179.8v-25.4h6.9v25.4H88.3z"/>
	<path class="st0" d="M111.3,145h5.4v4.4c0,0.5-0.2,0.9-0.5,1.3s-0.8,0.5-1.3,0.5h-3.1c-0.7,0-1.2,0.2-1.6,0.7s-0.6,1-0.6,1.7v0.8
		h4.7v6h-4.7v19.4h-6.9v-19.4h-1.5c-0.5,0-0.9-0.2-1.3-0.5s-0.5-0.8-0.5-1.3v-4.2h3.3v-0.8c0-2.7,0.8-4.8,2.3-6.3
		S108.6,145,111.3,145z"/>
	<path class="st0" d="M129.8,145h5.4v4.4c0,0.5-0.2,0.9-0.5,1.3s-0.8,0.5-1.3,0.5h-3.1c-0.7,0-1.2,0.2-1.6,0.7s-0.6,1-0.6,1.7v0.8
		h4.7v6h-4.7v19.4h-6.9v-19.4h-1.5c-0.5,0-0.9-0.2-1.3-0.5s-0.5-0.8-0.5-1.3v-4.2h3.3v-0.8c0-2.7,0.8-4.8,2.3-6.3
		S127.2,145,129.8,145z"/>
	<path class="st0" d="M142.5,151.7c-1.1,0-2-0.3-2.7-1s-1-1.6-1-2.7c0-1.1,0.3-2,1-2.7s1.6-1.1,2.7-1.1c1.1,0,2,0.4,2.7,1.1
		s1.1,1.6,1.1,2.7c0,1.1-0.4,2-1.1,2.7S143.6,151.7,142.5,151.7z M139.1,179.8v-25.4h6.9v25.4H139.1z"/>
	<path class="st0" d="M163.4,180.4c-3.9,0-7-1.2-9.3-3.6s-3.4-5.6-3.4-9.5c0-4.1,1.1-7.3,3.4-9.7s5.4-3.6,9.3-3.6
		c3.1,0,5.6,0.8,7.8,2.3s3.5,3.8,4.2,6.7l-5.3,1c-1,0.2-1.7-0.1-2.1-0.9c-0.8-2.1-2.4-3.1-4.6-3.1c-1.9,0-3.3,0.7-4.4,2
		s-1.5,3.1-1.5,5.3c0,2.1,0.5,3.8,1.5,5.1s2.5,2,4.3,2c1.3,0,2.3-0.3,3-0.8s1.3-1.4,1.7-2.5c0.2-0.4,0.5-0.7,0.9-0.9
		s0.8-0.2,1.3-0.1l5.2,1c-0.6,3.1-2,5.4-4.2,7S166.6,180.4,163.4,180.4z"/>
	<path class="st0" d="M200.1,176.8c-2.3,2.4-5.4,3.6-9.3,3.6s-7-1.2-9.3-3.6s-3.5-5.6-3.5-9.7s1.2-7.3,3.5-9.7s5.4-3.6,9.3-3.6
		s7,1.2,9.3,3.6s3.5,5.6,3.5,9.7C203.5,171.2,202.4,174.4,200.1,176.8z M186.4,172.4c1,1.3,2.5,2,4.3,2s3.3-0.7,4.3-2
		s1.5-3.1,1.5-5.2s-0.5-3.9-1.5-5.2s-2.5-2-4.3-2s-3.3,0.7-4.3,2s-1.5,3.1-1.5,5.2S185.4,171,186.4,172.4z"/>
	<path class="st0" d="M216.6,179.9c-2.6,0-4.7-0.7-6.2-2.2s-2.2-3.5-2.2-6.2v-25.6h6.9v25.6c0,0.6,0.2,1.1,0.6,1.5s0.9,0.6,1.5,0.6
		h1.3c0.5,0,0.9,0.2,1.3,0.5s0.5,0.8,0.5,1.3v4.6H216.6z"/>
	<path class="st0" d="M240,160.4h-7.4v10.3c0,0.8,0.2,1.5,0.8,2.1s1.2,0.8,2,0.8h2.9c0.5,0,1,0.2,1.3,0.5s0.5,0.8,0.5,1.3v4.6h-5.2
		c-2.8,0-5-0.8-6.6-2.4s-2.4-3.9-2.4-6.8v-10.3h-2.2c-0.5,0-1-0.2-1.3-0.5s-0.5-0.8-0.5-1.3v-4.2h4v-8.5h6.9v8.5h7.4V160.4z"/>
	<path class="st0" d="M267.1,173.3c0.3,0.3,0.5,0.9,0.5,1.7v4.9H267c-3,0-5.1-1-6.4-2.9c-2.1,2.2-5.1,3.3-9,3.3c-2.5,0-4.5-0.7-6-2
		s-2.2-3.2-2.2-5.5c0-2.2,0.7-4,2.1-5.5s3.6-2.4,6.5-2.8c3.7-0.4,6.1-1,7.4-1.7v-0.1c0-0.8-0.4-1.5-1.2-2s-1.7-0.8-2.9-0.8
		c-0.6,0-1.2,0-1.7,0.1s-1,0.2-1.5,0.4s-0.8,0.3-1,0.4s-0.5,0.3-1,0.6s-0.7,0.4-0.7,0.4c-0.6,0.3-1.1,0.4-1.7,0.3s-1-0.4-1.3-0.8
		l-2.1-2.9c0.3-0.4,0.8-0.9,1.3-1.3s1.3-0.9,2.2-1.4s1.9-0.9,3.1-1.3s2.5-0.5,3.8-0.5c3.7,0,6.6,0.9,8.5,2.6s2.9,4.3,2.9,7.7v7.2
		C266.2,172.3,266.5,172.9,267.1,173.3L267.1,173.3z M252.5,174.6c0.7,0,1.4,0,2-0.1s1.2-0.3,1.8-0.5s1.2-0.6,1.6-1s0.8-1,1.1-1.7
		s0.4-1.5,0.4-2.4v-0.7c-1.3,1.1-3.3,1.6-5.9,1.7c-1.2,0.1-2.1,0.4-2.7,0.8s-0.9,1-0.9,1.8c0,0.7,0.2,1.2,0.7,1.6
		S251.7,174.6,252.5,174.6z"/>
</g>
<g>
	<path class="st0" d="M154.9,6.2h-1.5c-1.3,0-2.5-0.2-3.4-0.6s-1.9-1.1-2.7-1.9l-2.8-2.8c-0.2-0.2-0.2-0.4-0.2-0.6s0.3-0.3,0.5-0.3
		h3.1c0.9,0,1.6,0.2,2.3,0.5s1.2,0.7,1.5,1.1L154.9,6.2z"/>
</g>
<g>
	<path class="st0" d="M344.9,103.3h-1.5c-1.3,0-2.5-0.2-3.4-0.6s-1.9-1.1-2.7-1.9l-2.8-2.8c-0.2-0.2-0.2-0.4-0.2-0.6
		s0.3-0.3,0.5-0.3h3.1c0.9,0,1.6,0.2,2.3,0.5s1.2,0.7,1.5,1.1L344.9,103.3z"/>
</g>
<g>
	<path class="st0" d="M259.9,151.1h-1.5c-1.3,0-2.5-0.2-3.4-0.6s-1.9-1.1-2.7-1.9l-2.8-2.8c-0.2-0.2-0.2-0.4-0.2-0.6
		s0.3-0.3,0.5-0.3h3.1c0.9,0,1.6,0.2,2.3,0.5s1.2,0.7,1.5,1.1L259.9,151.1z"/>
</g>
</svg>
