<?xml version="1.0" encoding="utf-8"?>
<!-- Generator: Adobe Illustrator 24.3.0, SVG Export Plug-In . SVG Version: 6.00 Build 0)  -->
<svg version="1.1" id="Laag_1" xmlns="http://www.w3.org/2000/svg" xmlns:xlink="http://www.w3.org/1999/xlink" x="0px" y="0px"
	 width="205.3px" height="23.8px" viewBox="0 0 205.3 23.8" style="enable-background:new 0 0 205.3 23.8;" xml:space="preserve">
<style type="text/css">
	.st0{fill:#E73B32;}
</style>
<path class="st0" d="M51.6,17c-0.3,0-0.1-0.1,0.6-0.2c0.6-0.1,0.9,0,0.6,0.1C52.4,16.9,51.9,17,51.6,17 M67.4,18.5
	c-1.4-0.1-1.4-0.1-0.7-0.3c1.2-0.4,1.7-0.4,3-0.3c0.6,0.1,1.1,0.2,1.1,0.3C70.9,18.4,69.4,18.5,67.4,18.5 M75.6,18.2
	c-3.2,0.3-3.9,0.3-3.9,0c0-0.2,0.1-0.5,0.3-0.6c0.4-0.3,4.3-0.5,5.9-0.2c0.7,0.1,1.3,0.3,1.4,0.4C79.4,17.8,77.7,18,75.6,18.2
	 M77.3,19.2c-1,0.1-1.5,0-1.4-0.2c0.1-0.4,2.2-0.5,2.6-0.2C78.7,19.1,78.4,19.2,77.3,19.2 M79.5,13.2c-0.1-0.1,0-0.2,0.1-0.2
	c0.1,0,0.2,0.1,0.2,0.2C79.7,13.3,79.6,13.3,79.5,13.2 M81.5,17.7l1.6-0.3c0.9-0.2,1.6-0.4,1.8-0.5c0.2-0.1,1.1-0.1,2.4,0.2l0.7,0.1
	l-0.7,0.5c-0.5,0.4-0.8,0.4-1.2,0.2c-0.3-0.2-1-0.2-2,0.1c-1.3,0.4-1.6,0.4-2.1,0L81.5,17.7z M85.7,13.2c0.8-0.1,1.3,0,1.3,0.2
	c0,0.5-0.5,0.6-1.6,0.3l-1.1-0.3L85.7,13.2 M96,12.9l0.7-0.2c1-0.3,3.8-0.5,4.3-0.3c0.3,0.1,0.1,0.3-0.9,0.5
	c-1.6,0.3-2.2,0.4-3.3,0.1L96,12.9z M121.6,11.3c-0.7-0.3-0.3-0.6,0.6-0.7c0.9,0,1,0,0.6,0.4C122.5,11.5,122.2,11.6,121.6,11.3
	 M180.7,8c-0.1-0.1,0-0.2,0.1-0.2c0.1,0,0.2,0.1,0.2,0.2C180.9,8.1,180.8,8.1,180.7,8 M0,18.3c-0.1,0.6,0,1.1,0,1.7
	c0.1,0.5,0.3,1.2,0.4,1.4c0.1,0.3,0.3,0.5,0.4,0.8c0.1,0.1,0.2,0.2,0.2,0.4c0,0.1,0.1,0.1,0.1,0.1l0.1,0.1c0.1,0.1,0.2,0.2,0.3,0.3
	c0.1,0.1,0.2,0.2,0.3,0.3c0.1,0.1,0.1,0.1,0.2,0.1c0.1,0.1,0.2,0.1,0.4,0.2c0.2,0.1,0.3,0.1,0.5,0.2c0.1,0,0.2,0,0.3,0
	c0.1,0,0.2,0,0.3,0c0.2,0,0.3-0.1,0.5-0.2c0.6-0.3,0.9-0.7,1.2-1c0.3-0.3,0.5-0.7,0.6-1c0.1-0.2,0.2-0.4,0.2-0.6c0,0,0,0,0,0
	c0.2,0.1,0.5,0.2,0.8,0.4C7,21.5,7.4,21.7,8,21.8c0.3,0,0.6,0.1,1,0.1c0.2,0,0.4,0,0.6,0c0.2,0,0.5,0,0.8,0c0.2,0,0.3,0,0.5,0
	c1.3-0.2,2.4-0.2,2.7-0.1c0.3,0.1,1.2,0,2-0.3c1.1-0.3,2.1-0.4,3.6-0.3c1.2,0.1,2.2,0.1,2.3,0.1c0.1,0,1.5-0.2,3.1-0.5
	c1.9-0.3,3.1-0.4,3.3-0.2c0.6,0.4,8.4,0.4,13,0c2.3-0.2,4.7-0.2,5.5-0.2c1.5,0.2,7.1,0.1,10.7-0.3c1.3-0.1,3.5-0.3,5-0.2
	c1.5,0,3.7,0,4.9,0c1.2,0,3,0,4.1,0l1.2,0c0-0.1,0.1-0.1,0.2-0.2c2.3-0.2,4.7-0.5,7-0.7c0,0,0-0.1,0.2-0.2c0.2-0.2,0.6-0.1,1.1,0.1
	l1.9-0.2c0.3,0,0.3,0.5,0,0.5l-0.6,0.1c1.7,0.4,3.6,0.4,5.4-0.1c2.3-0.5,3.5-0.6,6-0.3c1.9,0.2,4.5-0.2,4.3-0.6
	c0-0.2-0.7-0.5-1.4-0.7c-1-0.3-1.4-0.3-1.8-0.1c-0.3,0.2-0.6,0.2-0.7,0.1c-0.1-0.1-1.4-0.2-2.8-0.2c-1.4,0-2.6,0-2.7-0.1
	c-0.3-0.3,0.4-0.7,0.9-0.6c0.4,0.1,0.5,0,0.3-0.2c-0.1-0.2,0-0.3,0.3-0.3c0.3,0,0.4,0.1,0.3,0.3c-0.1,0.2,0.4,0.3,1.2,0.2
	c0.7,0,1.7,0,2.2,0.2c0.8,0.2,1.2,0.2,2.1-0.2c1.2-0.5,1.9-0.5,2.2-0.1c0.4,0.4,1.5,0.2,1.7-0.3c0.1-0.4,0.1-0.4,0.5,0
	c0.3,0.4,0.9,0.4,3.2,0.3c1.5-0.1,2.8-0.3,2.9-0.3c0.1-0.1,0-0.4-0.2-0.7c-0.2-0.5-0.2-0.6,0.1-0.9c0.2-0.2,0.8-0.5,1.3-0.6
	c0.8-0.2,1-0.2,1.3,0.4c0.2,0.3,0.4,0.7,0.3,0.8c-0.1,0.3,0.8,0.8,1.2,0.6c0.2-0.1,1.2-0.1,2.2,0c1,0.1,2,0.1,2.2,0
	c0.6-0.3,0-0.7-1.3-0.9l-1.1-0.1l0.5-0.8c0.4-0.5,0.7-0.8,0.9-0.6c0.2,0.1,1.4,0.2,2.7,0.3c1.3,0,2.4,0.1,2.5,0.1
	c0.1,0,0.2,0.1,0.2,0.3c0,0.4-1.2,1.2-1.9,1.2c-0.8-0.1-1,0.5-0.2,0.7c0.8,0.2,5.7-0.8,5.6-1.1c0-0.1-0.4-0.3-0.7-0.4
	c-1-0.2-0.3-0.8,1.3-1.2c1.5-0.3,4.9-0.5,5.3-0.2c0.1,0.1,0.2,0.3,0.2,0.6c0,0.4-0.2,0.6-1,0.8c-1.7,0.4-0.9,0.9,1.5,0.9
	c2.1,0.1,3.9-0.3,4.1-0.9c0.1-0.2-0.5-0.2-1.7-0.1c-1.9,0.2-2.4,0.1-2.4-0.6c0-0.4,0.3-0.4,2-0.5c1.1,0,2.2-0.1,2.5-0.2
	c1.2-0.1,2.7,0,2.8,0.3c0.1,0.4,0.7,0.4,0.7,0c0-0.2,0.4-0.3,1.4-0.3c0.8,0.1,1.5,0,1.6-0.1c0.2-0.3,4.4-0.4,5-0.1
	c0.5,0.2,0.7,0.2,1.2-0.2c0.4-0.4,0.8-0.4,2.1-0.3c1.4,0.1,1.6,0.1,1.8-0.3c0.2-0.4,0.3-0.5,0.9-0.2c0.5,0.2,0.8,0.2,1.3-0.2
	c0.6-0.4,0.9-0.5,2.5-0.3c1.3,0.1,2,0.3,2.3,0.7c0.4,0.5,0.4,0.5,0,0.9c-0.2,0.3-0.6,0.4-0.9,0.3c-0.3-0.1-0.8-0.2-1.2-0.2
	c-0.6-0.1-0.6-0.1-0.2,0.3c0.3,0.3,0.9,0.4,2.5,0.2l2-0.2l-0.7-0.6c-0.4-0.4-0.6-0.7-0.4-0.8c0.1-0.1,0.2-0.3,0.2-0.5
	c0-0.5,0.1-0.5,0.6-0.1c0.3,0.2,0.5,0.2,0.9-0.1c0.4-0.3,4.4-0.8,8.3-1.1c3.9-0.3,7.8-0.4,7.8-0.2c0,0.1-0.3,0.3-0.7,0.4l-0.7,0.1
	l0.6,0.2c0.5,0.2,0.8,0.2,1.3-0.1c0.5-0.3,2.2-0.4,6.7-0.8c3.3-0.3,6.1-0.5,6.3-0.5c0.1,0.1,0.7,0,1.4-0.1c0.9-0.2,1.4-0.2,2.3,0.2
	c0.8,0.3,1.5,0.4,2.3,0.2c0.9-0.2,1.2-0.2,1.4,0.1c0.1,0.2,0.2,0.5,0.1,0.5c0,0.1-1.1,0.4-2.4,0.7c-1.7,0.4-2.3,0.6-2.3,0.8
	c0,0.2-0.3,0.4-0.8,0.6c-0.9,0.3-1.7,0.1-1.5-0.4c0.1-0.2-0.2-0.2-0.5-0.2c-0.4,0.1-0.6,0.3-0.6,0.7c0,0.6-0.1,0.6-1.2,0.6
	c-1.5,0-5.9,0.5-8.5,1.1c-1.4,0.3-3.1,0.5-4.9,0.4c-1.5-0.1-3.4,0-4.2,0.1c-2.2,0.3-3.6,0.4-4.2,0.1c-0.4-0.1-1.9,0-5,0.4
	c-0.2,0-1.8,0.1-3.6,0.2c-1.7,0.1-3.3,0.2-3.4,0.3c-0.4,0.2-0.3,0.6,0.1,0.8c0.3,0.1,3.7,0.1,7.5-0.1c3.6-0.1,7.5-0.3,8.6-0.4
	c1-0.1,2-0.2,2.2-0.2c0.2,0,2.8,0,5.8,0c3,0,7.4-0.3,9.6-0.6c1.9-0.3,3.2-0.4,4.7-0.6c1.5-0.1,3.1-0.2,5.7-0.5
	c2.8-0.3,4.4-1.2,5.6-3.3c0.8-1.2,0.9-1.7,0.7-3c0-0.9-0.1-2.1,0-2.7c0.1-1.3-0.1-2-0.6-2.3c-0.2-0.1-0.3-0.3-0.2-0.7
	c0.1-0.4,0-0.6-0.7-1.1c-1.1-0.8-1.3-0.9-1.6-0.6c-0.1,0.1-0.4,0.3-0.5,0.3c-1.1,0.2-3.6,0.9-6.8,1.5c-3.2,0.6-7.1,1.1-11,1.4
	c-3.9,0.3-7.7,0.6-10.8,0.8c-3,0.2-5.3,0.4-5.9,0.6c-0.3,0.1-1.9,0.1-3.6,0c-1.7,0-6.7,0.3-11.1,0.6c-1.5,0.1-2.9,0.2-4.1,0.3
	c-0.7,0.3-1.5,0.5-2.5,0.5c-1,0-1.9,0-2.9,0c-3.1,0.4-14.8,0.7-15.5,0.5c-0.8-0.1-2.5-0.2-4.1-0.1c-2.7,0.2-7.4,0.6-8.1,0.6l-0.6,0
	c-0.1,0-1.5-0.1-2.9-0.1c-1.5-0.1-3.9,0-5.4,0.1c-1.5,0.1-3.1,0.2-3.5,0.3c-0.4,0-3.1,0-6,0.1c-2.9,0-5.5,0.1-5.9,0.2
	c-0.4,0.1-0.6,0.1-0.6-0.1c0-0.5-1.4-0.6-2-0.1c-0.5,0.4-0.7,0.4-1.7,0.1c-1.1-0.3-1.2-0.3-1.9,0.2c-0.6,0.5-0.8,0.5-1.2,0.3
	c-0.2-0.2-0.8-0.3-1.2-0.2c-0.5,0-1.1,0-1.4-0.2c-0.3-0.1-1.5-0.1-2.7-0.1c-3.7,0.3-4.2,0.3-4.5,0c-0.3-0.3-1.6,0-2.5,0.5
	c-0.4,0.2-0.9,0.2-1.9,0c-1-0.2-2.3-0.3-5.4,0c-2.2,0.2-4.6,0.3-5.3,0.2c-0.8-0.1-3.2,0-5.4,0.1c-1.9,0.1-3.8,0.1-4.6,0.1
	c0,0.1,0,0.3-0.2,0.3c-2.7-0.3-5.4-0.9-8.2-1L39,8.3c-1.3,0.5-2.8,0.5-7.7,0.3C30.1,8.5,24.5,8.6,18.9,9l-4.4,0.3
	c-1.4,0.1-2.9,0.2-4.3,0.4l0,0v0c0,0,0,0,0,0l-0.2,0c0,0-0.5,0.6-0.5,0.6c-0.3,0.3-1.1,0.9-2,1.3c-0.8,0.3-1.3,0.5-2,0.9
	c-0.2,0.1-0.4,0.2-0.7,0.4c-0.1,0.1-0.3,0.2-0.7,0.3c-0.1,0-0.2,0.1-0.3,0.1c-0.1,0.1-0.3,0.1-0.4,0.2l-0.2,0.1l-0.3,0.2
	c-0.1,0.1-0.3,0.2-0.4,0.3l-0.2,0.2L2,14.4c-0.3,0.2-0.5,0.5-0.8,0.8c-0.2,0.3-0.4,0.5-0.7,1.2C0.3,17,0.1,17.7,0,18.3"/>
</svg>
