<?xml version="1.0" encoding="utf-8"?>
<!-- Generator: Adobe Illustrator 24.3.0, SVG Export Plug-In . SVG Version: 6.00 Build 0)  -->
<svg version="1.1" id="Layer_1" xmlns="http://www.w3.org/2000/svg" xmlns:xlink="http://www.w3.org/1999/xlink" x="0px" y="0px"
	 width="378.4px" height="206.2px" viewBox="0 0 378.4 206.2" style="enable-background:new 0 0 378.4 206.2;" xml:space="preserve"
	>
<style type="text/css">
	.st0{clip-path:url(#SVGID_2_);fill:#FFFFFF;}
	.st1{fill:#FFFFFF;}
	.st2{clip-path:url(#SVGID_4_);fill:#FFFFFF;}
	.st3{clip-path:url(#SVGID_6_);fill:#FFFFFF;}
	.st4{clip-path:url(#SVGID_8_);fill:#FFFFFF;}
	.st5{clip-path:url(#SVGID_10_);fill:#EC7700;}
	.st6{clip-path:url(#SVGID_10_);fill:#E73B32;}
	.st7{clip-path:url(#SVGID_12_);fill:#FFFFFF;}
	.st8{clip-path:url(#SVGID_14_);fill:#FFFFFF;}
	.st9{clip-path:url(#SVGID_14_);fill:#FF4438;}
</style>
<g>
	<defs>
		<rect id="SVGID_1_" width="378.4" height="206.2"/>
	</defs>
	<clipPath id="SVGID_2_">
		<use xlink:href="#SVGID_1_"  style="overflow:visible;"/>
	</clipPath>
	<path class="st0" d="M13.6,141.3c-2.9,0-5.2,1-7.1,2.9c-1.9,1.9-2.8,4.4-2.8,7.3c0,2.9,0.9,5.3,2.8,7.2c1.9,1.9,4.2,2.9,7,2.9
		c2.8,0,5.2-1,7-2.9c1.9-2,2.8-4.4,2.8-7.3c0-2.8-0.9-5.2-2.8-7.1C18.7,142.2,16.4,141.3,13.6,141.3 M13.5,137.7
		c3.9,0,7.1,1.3,9.7,3.9c2.6,2.6,3.9,5.9,3.9,9.8c0,3.9-1.3,7.2-3.9,9.8c-2.6,2.6-5.9,3.9-9.9,3.9c-3.8,0-7-1.3-9.5-3.9
		c-2.5-2.6-3.8-5.8-3.8-9.7c0-4,1.3-7.3,3.8-9.9C6.4,139,9.6,137.7,13.5,137.7"/>
	<path class="st0" d="M42.4,141.4h-3.7v8.4h3.9c1.5,0,2.6-0.4,3.4-1.1c0.8-0.7,1.2-1.8,1.2-3.1C47.1,142.8,45.6,141.4,42.4,141.4
		 M35,164.7V138h8c2.4,0,4.3,0.7,5.8,2.1c1.4,1.4,2.1,3.2,2.1,5.5c0,1.6-0.4,2.9-1.1,4.1c-0.7,1.2-1.7,2.1-3,2.6
		c-1.3,0.5-3.1,0.8-5.5,0.8h-2.7v11.6H35z"/>
</g>
<polygon class="st1" points="57.7,138 72,138 72,141.4 61.3,141.4 61.3,149.6 71.6,149.6 71.6,153 61.3,153 61.3,161.3 72.3,161.3 
	72.3,164.7 57.7,164.7 "/>
<g>
	<defs>
		<rect id="SVGID_3_" width="378.4" height="206.2"/>
	</defs>
	<clipPath id="SVGID_4_">
		<use xlink:href="#SVGID_3_"  style="overflow:visible;"/>
	</clipPath>
	<path class="st2" d="M84.7,141.3h-1.1v8.4h1.4c1.8,0,3.1-0.2,3.8-0.5c0.7-0.3,1.2-0.8,1.6-1.5c0.4-0.7,0.6-1.4,0.6-2.3
		c0-0.8-0.2-1.6-0.6-2.3c-0.4-0.7-1-1.2-1.8-1.4C87.7,141.4,86.4,141.3,84.7,141.3 M80,164.7V138h6.3c2.5,0,4.6,0.7,6.1,2
		c1.5,1.3,2.2,3.1,2.2,5.4c0,1.6-0.4,2.9-1.1,4c-0.7,1.1-1.8,2-3.2,2.5c0.8,0.6,7.1,12.7,7.1,12.7h-4.3c0,0-5.6-10.9-6.1-11.2
		c-0.5-0.3-1.3-0.4-2.5-0.4h-0.9v11.6H80z"/>
</g>
<path class="st1" d="M117.1,153.4l-4.1-9.7l-3.8,9.7H117.1z M111.8,137.9h2.5l11.3,26.9h-3.7l-3.4-7.9h-10.7l-3.1,7.9H101
	L111.8,137.9z"/>
<polygon class="st1" points="130.8,138 152.5,138 136.4,161.3 152.5,161.3 152.5,164.7 129.7,164.7 145.8,141.4 130.8,141.4 "/>
<rect x="159.6" y="138" class="st1" width="3.6" height="26.7"/>
<g>
	<defs>
		<rect id="SVGID_5_" width="378.4" height="206.2"/>
	</defs>
	<clipPath id="SVGID_6_">
		<use xlink:href="#SVGID_5_"  style="overflow:visible;"/>
	</clipPath>
	<path class="st3" d="M185,141.3c-2.9,0-5.2,1-7.1,2.9c-1.9,1.9-2.8,4.4-2.8,7.3c0,2.9,0.9,5.3,2.8,7.2c1.9,1.9,4.2,2.9,7,2.9
		c2.8,0,5.2-1,7-2.9c1.9-2,2.8-4.4,2.8-7.3c0-2.8-0.9-5.2-2.8-7.1C190.1,142.2,187.8,141.3,185,141.3 M184.9,137.7
		c3.9,0,7.1,1.3,9.7,3.9c2.6,2.6,3.9,5.9,3.9,9.8c0,3.9-1.3,7.2-3.9,9.8c-2.6,2.6-5.9,3.9-9.9,3.9c-3.8,0-7-1.3-9.5-3.9
		c-2.5-2.6-3.8-5.8-3.8-9.7c0-4,1.3-7.3,3.8-9.9C177.8,139,181,137.7,184.9,137.7"/>
</g>
<polygon class="st1" points="226.6,138 230,138 230,164.7 226.9,164.7 210.1,144.2 210.1,164.7 206.7,164.7 206.7,138 209.6,138 
	226.6,158.8 "/>
<polygon class="st1" points="239.1,138 253.4,138 253.4,141.4 242.7,141.4 242.7,149.6 253,149.6 253,153 242.7,153 242.7,161.3 
	253.7,161.3 253.7,164.7 239.1,164.7 "/>
<g>
	<defs>
		<rect id="SVGID_7_" width="378.4" height="206.2"/>
	</defs>
	<clipPath id="SVGID_8_">
		<use xlink:href="#SVGID_7_"  style="overflow:visible;"/>
	</clipPath>
	<path class="st4" d="M281.6,141h-4.1v8.5h4.4c1.6,0,2.9-0.4,3.7-1.1c0.9-0.7,1.3-1.8,1.3-3.2C286.9,142.4,285.2,141,281.6,141
		 M273.5,164.7v-27.1h8.8c2.7,0,4.8,0.7,6.4,2.1c1.6,1.4,2.4,3.3,2.4,5.6c0,1.6-0.4,3-1.2,4.2c-0.8,1.2-1.9,2.1-3.3,2.6
		c-1.4,0.5-3.4,0.8-6.1,0.8h-2.9v11.7H273.5z"/>
</g>
<path class="st1" d="M311.6,153.2l-4.5-9.8l-4.2,9.8H311.6z M305.8,137.5h2.8l12.5,27.2H317l-3.7-8h-11.9l-3.5,8h-4.1L305.8,137.5z"
	/>
<polygon class="st1" points="349.7,137.6 353.5,137.6 353.5,164.7 350.1,164.7 331.4,143.8 331.4,164.7 327.7,164.7 327.7,137.6 
	330.9,137.6 349.7,158.6 "/>
<polygon class="st1" points="362.3,137.6 362.3,164.7 378.4,164.7 378.4,161.2 366.3,161.2 366.3,152.8 377.7,152.8 377.7,149.3 
	366.3,149.3 366.3,141.1 378.1,141.1 378.1,137.6 "/>
<g>
	<defs>
		<rect id="SVGID_9_" width="378.4" height="206.2"/>
	</defs>
	<clipPath id="SVGID_10_">
		<use xlink:href="#SVGID_9_"  style="overflow:visible;"/>
	</clipPath>
	<path class="st5" d="M255,57.6c-0.1,0.6-0.3,1-0.7,1.4c-0.7,0.9-0.8,1.1-0.7,2.1c0.1,1,0,1.2-0.7,1.3c-0.3,0.1-0.5,0.2-0.7,0.6
		c-0.2,0.4-0.4,1-0.8,2c-0.8,1.9-1.3,2.4-2.1,2.6c-0.8,0.3-1,0.5-1.4,1.3c-0.2,0.6-1.6,2.2-3.1,3.5c-1.5,1.3-3.1,2.4-3.4,2.4
		c-0.2-0.1-1.2,0.7-2.4,1.5c-1.5,1-2.1,1.4-2.3,1.1c-0.3-0.4-1.1,0-1,0.6c0.1,0.4-2.2,1.9-4.3,2.7c-0.4,0.1-2.3,0.9-4.2,1.6
		c-3,1-3.6,1.1-3.7,0.7c-0.2-0.8,0.5-1.2,3.8-2.2c2-0.7,3-1.2,2.8-1.3c-0.7-0.5-3.8,0.4-7.2,1.7c-2,0.7-3.3,1.2-3.7,1.6
		c-0.4,0.3,0.1,0.5,1.6,0.3c1.5-0.2,2-0.2,2.1,0.3c0.1,0.3,0,0.7-0.1,0.8c-0.3,0.3-1.9,0.9-3.9,1.3c-1.9,0.5-4.2,0.9-5.6,0.9
		c-3,0.2-4.4-0.4-2.7-0.9c0.5-0.2,1-0.5,1.1-0.7c0-0.3-2.2-0.2-4.6-0.2c-2.4,0.1-5,0.1-5.8,0.4c-1.4,0.4-1,1.1,0.5,0.9
		c1.2-0.2,3.6,0.4,3.7,1c0,0.2-0.1,0.4-0.2,0.4c-0.2,0-2.2,0.4-4.6,0.7c-2.3,0.3-4.6,0.6-4.9,0.8c-0.5,0.2-1,0-1.8-0.6l-1.1-1
		l2.1-0.3c2.2-0.3,3.3-1,2.2-1.3c-0.4-0.1-2.2,0-4,0.3c-1.8,0.2-3.6,0.3-4,0.2c-0.8-0.2-2.4,0.5-2.2,0.8c0.1,0.1-0.1,0.6-0.5,1.1
		c-0.6,0.7-0.9,0.7-2.4,0.5c-0.9-0.2-2-0.5-2.4-0.8c-0.6-0.4-0.6-0.6-0.2-1.2c0.3-0.4,0.5-0.8,0.3-0.9c-0.1-0.1-2.5-0.3-5.3-0.5
		c-4.3-0.3-5.3-0.3-5.9,0.1c-0.7,0.5-0.8,0.4-1-0.1c-0.2-0.6-2.3-1-3-0.5c-0.7,0.4-1.9,0.3-4.1-0.5c-1.6-0.6-2.5-0.7-3.9-0.6
		c-0.9,0.1-2.8-0.1-4.1-0.3c-1.4-0.3-2.2-0.3-2.1-0.1c0.1,0.2-0.2,0.3-0.6,0.2c-0.5-0.1-0.7-0.3-0.4-0.5c0.2-0.2,0.1-0.3-0.6-0.3
		c-1,0-2.1-0.7-1.5-1c0.2-0.1,2.3,0.3,4.8,0.7c2.6,0.4,4.9,0.5,5.1,0.4c0.3-0.2,0.8-0.1,1.3,0.2c0.6,0.4,1.4,0.4,3.2,0.2
		c1.3-0.2,2.4-0.5,2.5-0.7c0.2-0.5-4.3-1.3-7.8-1.4c-2.3-0.1-4-0.3-5.5-0.6c-1.6-0.3-3-0.8-4.8-1.5c-1.4-0.6-2.9-1.1-4.1-1.5
		c-1.3-0.4-2.4-0.8-3.2-1c0.2,0.1,0.3,0.2,0.5,0.3c0.3,0.2-0.1,0.7-0.3,0.6c-0.2-0.1-0.3-0.2-0.4-0.3c-0.1-0.1-0.3-0.2-0.4-0.3
		c-0.3-0.2-0.6-0.5-1-0.8c-0.8-0.3-1.3-0.7-1.3-1c0-0.2,0-0.3,0-0.3c-2.4-2.7-4.5-6.1-6.2-9.5c-0.1-0.1,0-0.2,0-0.3
		c0,0-0.2-0.4-0.5-0.8c-0.2-0.4-0.5-0.8-0.5-0.8c-0.4-0.7-0.9-1.7-1.2-2.7c-0.4-1-0.6-1.9-0.7-2.5c0-0.2-0.1-0.6-0.1-1.1
		c0-0.1,0-0.1,0-0.2c0-0.1,0-0.2,0-0.3c0-0.2,0-0.4,0.1-0.6c0.1-0.4,0.1-0.9,0.2-1.3c0.2-0.9,0.4-1.8,0.7-2.7c0.4-1.1,1-2.4,1.7-3.6
		c0.7-1.2,1.6-2.4,2.3-3.1c1.9-2.2,4.7-4.9,7.4-7.1c2.7-2.2,5.3-4,6.3-4.9c1-0.8,4.8-3.2,8.5-4.7c1.9-0.8,4.1-1.7,6.5-2.6
		c2.4-0.9,4.9-1.8,7.1-2.5c4.5-1.6,8.2-2.8,8.7-3.2c0.4-0.3,2.5-0.8,6-1.4c0.9-0.1,1.7-0.3,2.5-0.4c0.3,1.2,0.8,1.7,2.2,2.9
		c2.7,2.2,5.2,2.9,9.8,2.9c4.3,0,6.9,0.2,9.2,0.4c2.3,0.3,4.4,0.6,7.4,1.3c1.7,0.4,4.3,1.1,6.8,1.9c2.6,0.8,5.2,1.8,7.2,2.7
		c4.2,1.8,7.2,4.1,7.4,4.3c0.2,0.2,1.3,1.1,2.3,2.3c0.6,0.6,1.9,1.9,3.3,3.8c0.7,0.9,1.5,2,2.2,3.1c0.2,0.3,0.4,0.6,0.5,0.9
		c0.2,0.3,0.3,0.5,0.5,0.8c0.3,0.5,0.5,1,0.8,1.5c1,2.1,1.5,4.3,1.7,6c0.2,1.7,0.2,2.9,0.3,3c0.2,0.6,0.7,0.7,1,0.2
		c0.1-0.2,0.4-2.3,0-4.6c-0.4-2.3-1.2-4.3-1.3-4.6c-0.3-1-0.7-1.9-1-2.6c-0.1-0.2-0.2-0.4-0.3-0.6c-0.1-0.2-0.2-0.4-0.3-0.5
		c-0.2-0.3-0.4-0.7-0.5-0.9c-0.7-1.1-1.2-1.7-1.4-1.8c-0.7-0.5-2-2.3-4.3-4.8c-0.8-1-3-2.8-5.1-4c-2.4-1.4-4.7-2.7-6.6-3.9
		c-1.8-1.1-4.3-2.3-6.8-3.1c-2.5-0.9-4.9-1.4-6.1-1.6c-1.7-0.2-1.9-0.2-1.9-0.9c0-0.5-0.3-0.8-1-1c-0.5-0.1-0.9,0-0.8,0.2
		c0.2,0.6-1,0.7-2.5,0.3c-0.8-0.3-1.4-0.6-1.4-0.8c0.1-0.3-1-0.6-3.9-1.1c-2.2-0.4-4.1-0.7-4.2-0.8c-0.1-0.1,0-0.4,0.1-0.7
		c0.2-0.4,0.9-0.4,2.4-0.2c1.5,0.2,2.6,0.1,4-0.3c1.5-0.5,2.4-0.5,4.1-0.1c1.2,0.3,2.3,0.4,2.5,0.4c0.1,0,1.4,0.1,3.4,0.5
		c2,0.4,4.7,1,7.5,1.9c3.8,1.2,6.2,2.4,7.9,3.2c1.6,0.9,2.4,1.4,2.7,1.8c0.6,0.7,1.2,1.1,2,1.2l1.1,0.3l-1-0.7
		c-0.5-0.4-0.9-0.8-0.8-1c0.1-0.1,1.6,0.6,3.8,2.1c2.1,1.5,4.8,3.7,7,6.4c2.3,2.6,4.2,5.7,5.4,8.1c1.1,2.4,1.5,4.2,1.5,4.6
		c-0.1,0.7,0,1,0.4,1.4c0.7,0.7,0.7,0.9,0.2,1c-0.3,0.1-0.5,0.3-0.6,0.5c0,0.3-0.5,0.1-1.2-0.4c0,0-0.3-0.2-0.5-0.4
		c-0.3-0.2-0.5-0.4-0.5-0.4s0.2,0.7,0.3,1.5c0.1,0.8,0.2,1.5,0.2,1.5c0.2,2.3,0.3,3.1,0.7,3.6c0.5,0.6,0.5,0.6,0.4-0.3
		c-0.1-0.6-0.3-1.3-0.4-1.8c-0.2-0.5-0.1-1.1,0.2-1.5c0.4-0.7,0.4-0.7,1.2-0.2c0.5,0.4,1,1.4,1.2,3.6C255.1,56.2,255.1,57,255,57.6
		 M211.9,89.8c-1.9,0.3-2.5-0.1-1.4-0.6c0.9-0.4,1.5-0.5,2.4-0.1C213.7,89.4,213.5,89.5,211.9,89.8 M171.6,89.9
		c-1,0.2-6.2-0.2-8.1-0.8l-1.3-0.4l1.6,0c2.1-0.1,3.1,0,6.1,0.6C171.7,89.6,172.2,89.8,171.6,89.9 M146.8,81.2
		c-2.3-0.2-3.8-0.6-4.1-0.9c-0.2-0.1-1.3-0.8-2.4-1.5c0,0-0.1-0.1-0.3-0.2c-0.2-0.1-0.4-0.3-0.5-0.4c-0.4-0.3-0.8-0.7-0.8-0.7
		s0.3,0,0.5,0c0.2,0,0.5,0,0.5,0c0.4,0,0.6-0.1,0.9,0.1c0.3,0.2,0.7,0.5,1.6,1.1c1.4,0.9,2.4,1.2,3,1.1c0.7-0.1,1.1,0.1,1.9,0.8
		l1,0.9L146.8,81.2z M145.5,85.7c-0.1,0.2-1.1,0.1-2.5-0.4c0,0-0.6-0.2-1.2-0.4c-0.6-0.2-1.2-0.4-1.2-0.4s0.5,0.1,1,0.1
		c0.5,0,1,0.1,1,0.1C144.7,84.8,145.7,85.1,145.5,85.7 M136.4,73.2c-0.4-0.1-1.1-0.8-1.7-1.6c-0.6-0.8-1-1.6-0.9-1.8
		c0.1-0.2,0.7,0.4,1.6,1.7C136.5,72.9,136.8,73.3,136.4,73.2 M136.2,75.2c-0.2,0-1.1-0.6-2-1.4c-1-0.9-2.6-2.8-3.7-4.6
		c-1.2-1.8-1.9-3.5-1.9-3.9c0-0.3,0.2-0.7,0.5-0.8c0.2-0.1,0.4,0.1,0.9,0.9c0.5,0.8,1.2,2.3,2.7,4.6
		C134.6,73.2,136.4,75.3,136.2,75.2 M132.7,80c-0.2-0.2-0.2-0.4,0-0.4c0.2,0,0.4,0.2,0.4,0.4C133,80.2,132.9,80.2,132.7,80
		 M128.4,63.4c-0.1,0.1-0.7-0.6-1.1-1.5c-0.4-0.9-0.7-1.6-0.8-2.3c-0.1-0.7-0.2-1.4,0-2.1c0.1-0.5,0.2-0.7,0.2-0.6
		c0.1,0.1,0.1,0.5,0.3,1.4c0.3,1.3,0.8,2.6,1.1,3.5C128.4,62.7,128.6,63.3,128.4,63.4 M136.3,35.7c0.9-0.7,1.4-1,0.9-0.6
		c-0.4,0.4-1.1,1-1.7,1.4C135.1,36.9,135.4,36.5,136.3,35.7 M229.7,19.8c0.3,0.1,0.3,0.2,0.2,0.3c-0.2,0-0.4-0.1-0.5-0.2
		C229.3,19.8,229.5,19.7,229.7,19.8 M261.7,46.3c-0.5-2.1-1.2-4-1.9-5.5c-0.7-1.5-1.4-2.7-1.9-3.4c-1.9-2.9-4-5.4-4.3-6
		c-0.7-1.1-3.5-4.9-8.5-8.8c-2.5-1.9-5.5-3.9-8.9-5.6c-3.4-1.7-7-3.1-10.8-4.3c-0.9-0.3-1.7-0.5-2.6-0.7c0.1-0.8,0.1-1.9-0.3-3.3
		c-0.4-1.6-0.8-2.4-1.3-3.1c-0.6-0.7-1.4-1.2-2.9-2c-1.7-1-3.7-2-4.5-2.5l-1.4-0.9c0,0-1.5-0.1-3.6-0.1c-2.1,0-4.9,0.1-7.6,0.3
		c-5.4,0.4-10.4,1.3-10.4,1.3c-11.2,1.8-21.7,5.1-24.1,6c-4.5,1.7-7.4,2.9-9.6,3.7c-2.2,0.8-3.7,1.3-5.1,1.6c0,0-0.6,0.2-1.3,0.3
		c-0.6,0.2-1.3,0.3-1.3,0.3c-5.2,2.8-9.7,6.3-14.1,10.1c-0.2,0.2-0.4,0.1-0.5,0c-1.4,1.1-4.5,3.5-7.6,6.5c-1.8,1.7-3.6,3.7-5,5.5
		c-1.4,1.8-2.4,3.4-2.8,4.2c-0.4,0.7-1.4,2.3-2.4,4.5c-1,2.1-2.1,4.8-2.7,7.6c-0.1,0.6-0.2,1.1-0.3,1.6c-0.1,0.5-0.1,0.9-0.2,1.5
		c-0.2,1.8-0.1,3.4,0,4.7c0.2,1.2,0.4,2.2,0.6,3c0.5,1.6,1,2.7,1.5,3.6c1.2,2,1.7,3,1.9,3.9c0.3,2.1,1.6,4.7,2.2,5
		c0.3,0.1,0.6,0.5,1.4,1.6c0.8,1.1,2,3,4.7,6.2c0.9,1,1.9,2,2.8,2.8c0.9,0.8,1.7,1.3,2,1.5c0.4,0.2,0.9,0.5,1.5,0.8
		c0.6,0.4,1.3,0.7,1.8,1c1.1,0.6,2.4,1,2.9,1c0.8,0,1.3,0.3,2.4,1.2c1.3,1.1,1.7,1.2,3.9,1.4c2.1,0.1,2.5,0.2,3.4,0.9
		c1.1,0.8,3.8,1.2,3.9,0.5c0-0.2,0.6-0.2,1.3,0.1c0.7,0.2,5.8,1.1,11.4,1.5c5.6,0.4,10.7,0.6,11.5,0.7c0.8,0.1,3.8,0.3,6.7,0.5
		c2.9,0.2,7.6,0.1,10.5-0.2c2.8-0.2,5.4-0.5,5.7-0.5l1.2-0.1c0.7-0.1,3.4-0.2,6.5-0.5c3.2-0.3,6.8-0.7,9.5-1.1
		c3.1-0.5,6.5-1.4,7.9-2.1c1.2-0.5,3.5-1.3,5.5-2c0.8-0.3,1.6-0.6,2.3-0.8c0.8-1.1,2.1-1.9,3.8-2c2.5-1,4.9-2.2,7.3-3.4
		c1.1-0.7,2.2-1.5,3.3-2.2c4.3-2.9,8.1-6.5,12.1-9.9c0.9-1.2,1.7-2.6,2.6-4.2c1-2.1,1.9-4.5,2.4-7.1C263,55.8,262.8,50.5,261.7,46.3
		"/>
	<path class="st5" d="M179.8,84.3c1-0.2,4.4-0.1,7,0.3c1.3,0.2,2.2,0.1,2.9-0.2c0.6-0.3,3-0.5,7.5-0.7c3.8-0.2,6.9-0.8,7.3-1
		c0.5-0.3,1.4-0.4,3.4-0.4c1.5,0,2.8-0.1,3-0.2c0.1-0.1,2.1-0.4,5.2-1.2c3.1-0.7,7.3-1.9,11.6-3.6c8-3.1,12.9-6.9,16.2-10
		c0.4-0.4,0.8-0.8,1.1-1.1c0.2-0.2,0.4-0.4,0.5-0.5c0.1-0.1,0.3-0.3,0.4-0.4c0.5-0.6,0.9-1.1,1.2-1.7c0.7-1.1,1.1-2,1.3-2.8
		c0.5-1.6,0.6-2.5,0.6-3c0-0.5-0.2-0.7-0.3-1c-0.4-0.5-0.4-0.5-0.8,0.1c-0.2,0.4-0.5,1.8-0.9,3.1c-0.2,0.6-0.7,2-1.7,3.5
		c-0.3,0.4-0.5,0.7-0.9,1.1l-0.1,0.1l-0.2,0.2l-0.3,0.4c-0.2,0.2-0.5,0.5-0.7,0.7c-1,1-2,1.9-3.2,2.8c-2.2,1.8-5.2,3.7-8.3,5.3
		c-3.1,1.6-6.4,2.9-8.7,3.7c-2.3,0.8-5.2,1.6-7.8,2.2c-2.7,0.6-5.2,1-6.8,1.2c-2.3,0.3-5.9,0.7-10,0.9c-4.1,0.3-8.8,0.4-13.2,0.3
		c-4.4,0-8.6-0.2-11.7-0.4c-3.1-0.2-5.1-0.3-5.3-0.3c-1.4,0.3-0.6,0.8,1.9,1c1.4,0.2,3.3,0.4,4.1,0.5c0.8,0.1,2,0.3,2.7,0.3
		c0.6,0,1.4,0.3,1.7,0.4C178.8,84.4,179.4,84.5,179.8,84.3"/>
	<path class="st6" d="M279.4,120.8c3.5-1.3-2.6-0.3-4.2-0.4c-15.1-1.5-30.4-2-45.5-3.5c-33.4-3.3-67.1-4.2-100.6-7.2
		c-13.8-1.2-30.1-1.5-42.8-6.8c0.6-2,0.4-0.2,1,0.3"/>
	<path class="st6" d="M240.3,118c-0.3,0-0.8,0-1.2-0.1c-0.3-0.1,0-0.1,0.6-0.1C240.3,117.9,240.6,118,240.3,118 M224.5,119.5
		c-2,0.1-3.5,0-3.5-0.3c0-0.1,0.5-0.3,1.1-0.3c1.2-0.1,1.8,0,3,0.3C225.9,119.4,225.9,119.5,224.5,119.5 M216.3,119.3
		c-2.1-0.2-3.8-0.4-3.7-0.5c0.1-0.1,0.7-0.3,1.4-0.4c1.6-0.3,5.5-0.1,5.9,0.2c0.2,0.1,0.3,0.4,0.3,0.6
		C220.1,119.6,219.5,119.6,216.3,119.3 M214.6,120.3c-1.1-0.1-1.4-0.2-1.2-0.4c0.4-0.3,2.5-0.2,2.6,0.2
		C216.1,120.3,215.5,120.4,214.6,120.3 M212.4,114.3c-0.1,0.1-0.2,0.1-0.3,0c-0.1-0.1,0-0.2,0.2-0.2
		C212.4,114.1,212.5,114.2,212.4,114.3 M209.8,119.2c-0.5,0.4-0.8,0.4-2.1,0c-1.1-0.3-1.7-0.3-2-0.1c-0.4,0.2-0.7,0.1-1.2-0.2
		l-0.7-0.5l0.7-0.1c1.3-0.2,2.2-0.3,2.4-0.2c0.1,0.1,0.9,0.3,1.8,0.5l1.6,0.3L209.8,119.2z M206.2,114.2l1.3,0.1l-1.1,0.3
		c-1.1,0.3-1.6,0.2-1.6-0.3C204.9,114.2,205.4,114.2,206.2,114.2 M195.1,114.1c-1.1,0.2-1.6,0.2-3.3-0.1c-1-0.2-1.2-0.4-0.9-0.5
		c0.5-0.2,3.3-0.1,4.3,0.3l0.7,0.2L195.1,114.1z M170.2,112.4c-0.5,0.2-0.8,0.1-1.3-0.3c-0.4-0.4-0.3-0.4,0.6-0.4
		C170.6,111.8,170.9,112.1,170.2,112.4 M111.1,109.1c-0.1,0.1-0.2,0.1-0.3,0c-0.1-0.1,0-0.2,0.2-0.2
		C111.2,108.9,111.2,109,111.1,109.1 M291.8,119.4c-0.1-0.6-0.2-1.3-0.5-1.8c-0.3-0.7-0.5-0.9-0.7-1.2c-0.2-0.3-0.5-0.6-0.8-0.8
		l-0.2-0.2l-0.2-0.2c-0.1-0.1-0.3-0.2-0.4-0.3l-0.3-0.2l-0.2-0.1c-0.1-0.1-0.3-0.1-0.4-0.2c-0.1,0-0.2-0.1-0.3-0.1
		c-0.3-0.1-0.5-0.2-0.7-0.3c-0.3-0.2-0.5-0.3-0.7-0.4c-0.7-0.4-1.2-0.6-2-0.9c-0.9-0.4-1.7-1-2-1.3c0,0-0.5-0.6-0.5-0.6l-0.2,0
		c0,0,0,0,0,0v0l0,0c-1.4-0.2-2.9-0.3-4.3-0.4L273,110c-5.6-0.3-11.2-0.5-12.5-0.4c-4.8,0.2-6.4,0.2-7.7-0.3l-1.2-0.4
		c-2.7,0.2-5.5,0.7-8.2,1c-0.1,0-0.2-0.1-0.2-0.3c-0.8,0-2.7,0-4.6-0.1c-2.2-0.1-4.7-0.2-5.4-0.1c-0.7,0.1-3.2,0-5.3-0.2
		c-3.1-0.3-4.3-0.3-5.4,0c-1,0.2-1.5,0.3-1.9,0c-0.9-0.5-2.2-0.8-2.5-0.5c-0.3,0.3-0.8,0.2-4.5,0c-1.2-0.1-2.4-0.1-2.7,0.1
		c-0.3,0.1-0.9,0.2-1.4,0.2c-0.5,0-1,0.1-1.2,0.2c-0.3,0.2-0.6,0.2-1.2-0.3c-0.7-0.5-0.9-0.5-1.9-0.2c-1,0.3-1.2,0.3-1.7-0.1
		c-0.6-0.5-1.9-0.4-2,0.1c0,0.2-0.3,0.2-0.6,0.1c-0.4-0.1-3-0.2-5.9-0.2c-2.9,0-5.6,0-6-0.1c-0.4-0.1-2-0.2-3.5-0.3
		c-1.5-0.1-3.9-0.1-5.4-0.1c-1.5,0.1-2.8,0.1-2.9,0.1l-0.6,0c-0.7,0-5.4-0.3-8.1-0.6c-1.6-0.1-3.3-0.1-4.1,0.1
		c-0.8,0.1-12.4-0.2-15.5-0.5c-1,0-1.9,0-2.9,0c-1,0-1.8-0.2-2.5-0.5c-1.2-0.1-2.6-0.2-4.1-0.3c-4.4-0.3-9.4-0.6-11.1-0.6
		c-1.7,0-3.3,0-3.6,0c-0.6-0.2-2.9-0.4-5.9-0.6c-3-0.2-6.9-0.4-10.8-0.8c-3.9-0.3-7.8-0.8-11-1.4c-3.2-0.6-5.7-1.2-6.8-1.5
		c-0.2,0-0.4-0.2-0.5-0.3c-0.3-0.3-0.4-0.2-1.6,0.6c-0.7,0.5-0.8,0.7-0.7,1.1c0.1,0.4,0,0.6-0.2,0.7c-0.5,0.3-0.7,1-0.6,2.3
		c0.1,0.6,0,1.8,0,2.7c-0.1,1.3,0,1.8,0.7,3c1.2,2,2.7,3,5.6,3.3c2.7,0.3,4.3,0.4,5.7,0.5c1.5,0.1,2.8,0.3,4.7,0.6
		c2.2,0.3,6.6,0.6,9.6,0.6c3,0,5.6,0,5.8,0c0.2,0,1.2,0.1,2.2,0.2c1.2,0.2,5.1,0.3,8.6,0.4c3.7,0.1,7.2,0.2,7.5,0.1
		c0.5-0.2,0.5-0.5,0.1-0.8c-0.2-0.1-1.7-0.2-3.4-0.3c-1.7-0.1-3.3-0.1-3.6-0.2c-3.1-0.4-4.6-0.5-5-0.4c-0.5,0.2-2,0.1-4.2-0.1
		c-0.8-0.1-2.7-0.2-4.2-0.1c-1.8,0-3.5-0.1-4.9-0.4c-2.6-0.6-6.9-1.1-8.5-1.1c-1.1,0-1.2,0-1.2-0.6c0-0.4-0.2-0.6-0.6-0.7
		c-0.3,0-0.5,0-0.5,0.2c0.1,0.5-0.6,0.7-1.5,0.4c-0.5-0.2-0.8-0.4-0.8-0.6c0-0.2-0.6-0.5-2.3-0.8c-1.3-0.3-2.4-0.7-2.4-0.7
		c-0.1-0.1,0-0.3,0.1-0.5c0.2-0.3,0.5-0.3,1.4-0.1c0.9,0.2,1.5,0.1,2.3-0.2c0.9-0.4,1.4-0.4,2.3-0.2c0.7,0.1,1.3,0.2,1.4,0.1
		c0.1-0.1,2.9,0.2,6.3,0.5c4.5,0.4,6.2,0.5,6.7,0.8c0.5,0.3,0.9,0.3,1.3,0.1l0.6-0.2l-0.7-0.1c-0.4-0.1-0.7-0.2-0.7-0.4
		c0-0.3,3.9-0.1,7.8,0.2c3.9,0.3,7.9,0.8,8.3,1.1c0.4,0.3,0.6,0.3,0.9,0.1c0.6-0.4,0.7-0.4,0.6,0.1c0,0.2,0.1,0.5,0.2,0.5
		c0.2,0.1,0,0.4-0.4,0.8l-0.7,0.6l2,0.2c1.5,0.1,2.1,0.1,2.5-0.2c0.4-0.4,0.4-0.4-0.2-0.3c-0.4,0.1-0.9,0.2-1.2,0.2
		c-0.3,0.1-0.7-0.1-0.9-0.3c-0.4-0.4-0.4-0.4,0-0.9c0.3-0.4,0.9-0.6,2.3-0.7c1.6-0.2,1.9-0.1,2.5,0.3c0.6,0.4,0.8,0.5,1.3,0.2
		c0.6-0.3,0.7-0.2,0.9,0.2c0.2,0.4,0.4,0.5,1.8,0.3c1.3-0.1,1.7-0.1,2.1,0.3c0.4,0.4,0.7,0.4,1.2,0.2c0.7-0.3,4.8-0.2,5,0.1
		c0.1,0.1,0.8,0.2,1.6,0.1c1,0,1.4,0,1.4,0.3c0,0.4,0.5,0.4,0.7,0c0.1-0.3,1.6-0.4,2.8-0.3c0.2,0,1.3,0.1,2.5,0.2
		c1.7,0.1,2.1,0.2,2,0.5c0,0.7-0.5,0.8-2.4,0.6c-1.2-0.1-1.8-0.1-1.7,0.1c0.2,0.6,2.1,1,4.1,0.9c2.4,0,3.2-0.5,1.5-0.9
		c-0.8-0.2-1.1-0.3-1-0.8c0-0.3,0.1-0.5,0.2-0.6c0.4-0.3,3.8-0.2,5.3,0.2c1.6,0.3,2.3,1,1.3,1.2c-0.3,0.1-0.6,0.2-0.7,0.4
		c-0.1,0.4,4.8,1.4,5.6,1.1c0.8-0.2,0.6-0.8-0.2-0.7c-0.7,0-1.9-0.7-1.9-1.2c0-0.2,0.1-0.3,0.2-0.3c0.1,0,1.2,0,2.5-0.1
		c1.3,0,2.5-0.2,2.7-0.3c0.3-0.2,0.5,0.1,0.9,0.6l0.5,0.8l-1.1,0.1c-1.2,0.1-1.8,0.6-1.3,0.9c0.2,0.1,1.2,0.1,2.2,0
		c1-0.1,2-0.1,2.2,0c0.4,0.2,1.3-0.3,1.2-0.6c0-0.1,0.1-0.5,0.3-0.8c0.3-0.5,0.5-0.6,1.3-0.4c0.5,0.1,1.1,0.4,1.3,0.6
		c0.3,0.3,0.3,0.5,0.1,0.9c-0.2,0.3-0.3,0.6-0.2,0.7c0.1,0.1,1.4,0.2,2.9,0.3c2.3,0.1,2.9,0.1,3.2-0.3c0.4-0.4,0.4-0.4,0.5,0
		c0.1,0.5,1.3,0.7,1.7,0.3c0.4-0.4,1-0.4,2.2,0.1c0.9,0.3,1.4,0.4,2.1,0.2c0.5-0.1,1.5-0.2,2.2-0.2c0.8,0.1,1.2,0,1.2-0.2
		c-0.1-0.2,0.1-0.3,0.3-0.3c0.3,0,0.4,0.1,0.3,0.3c-0.1,0.2,0,0.3,0.3,0.2c0.6-0.2,1.2,0.3,0.9,0.6c-0.1,0.1-1.3,0.2-2.7,0.1
		c-1.4,0-2.7,0.1-2.8,0.2c-0.2,0.2-0.4,0.1-0.7-0.1c-0.4-0.2-0.8-0.2-1.8,0.1c-0.7,0.2-1.3,0.6-1.4,0.7c-0.1,0.4,2.4,0.8,4.3,0.6
		c2.6-0.2,3.8-0.2,6,0.3c1.8,0.4,3.7,0.4,5.4,0.1l-0.6-0.1c-0.3,0-0.2-0.5,0-0.5l1.9,0.2c0.5-0.2,1-0.2,1.1-0.1
		c0.1,0.1,0.2,0.2,0.2,0.2c2.3,0.3,4.7,0.5,7,0.7c0.1,0,0.1,0.1,0.2,0.2l1.2,0c1.1,0,2.9,0,4.1,0c1.2,0,3.3,0,4.9,0
		c1.5,0,3.8,0.1,5,0.2c3.6,0.4,9.1,0.5,10.7,0.3c0.8-0.1,3.2,0,5.5,0.2c4.6,0.4,12.4,0.4,13,0c0.3-0.1,1.4-0.1,3.3,0.2
		c1.6,0.3,3,0.5,3.1,0.5c0.1,0,1.1-0.1,2.3-0.1c1.5-0.1,2.5,0,3.6,0.3c0.8,0.2,1.7,0.4,2,0.3c0.3-0.1,1.4-0.1,2.7,0.1
		c0.2,0,0.3,0,0.5,0c0.3,0,0.6,0,0.8,0c0.2,0,0.4,0,0.6,0c0.4,0,0.7-0.1,1-0.1c0.6-0.1,1-0.2,1.3-0.4c0.3-0.1,0.5-0.3,0.8-0.4
		c0,0,0,0,0,0c0,0.2,0.1,0.4,0.2,0.6c0.1,0.3,0.3,0.6,0.6,1c0.3,0.3,0.6,0.7,1.2,1c0.1,0.1,0.3,0.1,0.5,0.2c0.1,0,0.2,0,0.3,0
		c0.1,0,0.2,0,0.3,0c0.1,0,0.3-0.1,0.5-0.2c0.1-0.1,0.2-0.1,0.4-0.2c0.1,0,0.1-0.1,0.2-0.1c0.1-0.1,0.2-0.2,0.3-0.3
		c0.1-0.1,0.2-0.2,0.3-0.3l0.1-0.1c0,0,0,0,0.1-0.1c0.1-0.1,0.2-0.2,0.2-0.4c0.2-0.2,0.3-0.5,0.4-0.8c0.1-0.2,0.3-0.8,0.4-1.4
		C291.9,120.5,291.9,120,291.8,119.4"/>
	<path class="st6" d="M183.3,118.1c-0.5,0.2-2.4,0.1-3.7-0.3c-0.7-0.2-1.2-0.2-1.5,0.1c-0.3,0.2-1.6,0.3-4,0.2c-2.1-0.1-3.7,0-4,0.1
		c-0.3,0.2-0.8,0.2-1.8-0.1c-0.8-0.2-1.5-0.3-1.6-0.2c-0.1,0-1.2,0-3,0c-1.8,0-4.2-0.1-6.9-0.3c-9.8-0.5-14.8-0.8-17.3-0.8
		c-2.5-0.1-2.7,0.1-3.1,0.4c-0.4,0.3-0.4,0.4,0.2,0.6c0.3,0.1,1.5,0.2,2.7,0.2c1.1,0,5,0.1,8.5,0.3c3.5,0.2,8.8,0.3,11.6,0.3
		c2.8,0,6.7,0.1,8.5,0.3c2.5,0.2,7.9,0.4,12.6,0.6c4.7,0.2,8.8,0.3,9,0.2c0.7-0.3,0.3-0.6-1-0.8c-0.8-0.1-1.7-0.2-2.2-0.3
		c-0.4-0.1-1.1-0.2-1.4-0.2c-0.3,0-0.7-0.2-0.9-0.3C183.9,118.1,183.5,118,183.3,118.1"/>
</g>
<path class="st1" d="M118.8,193.1l2-5.1l2.2,5.1H118.8z M119.5,184.6l-6.2,15.5h2.8l1.8-4.7l5.8,0l2,4.6h3.2l-6.6-15.5L119.5,184.6z
	"/>
<path class="st1" d="M215.3,193.1l2-5.1l2.2,5.1H215.3z M216,184.6l-6.2,15.5h2.8l1.8-4.7l5.8,0l2,4.6h3.2l-6.6-15.5L216,184.6z"/>
<polygon class="st1" points="142.8,194.9 134,184.8 131.7,184.8 131.7,200.1 134.7,200.1 134.7,190 143.5,200.1 145.7,200.1 
	145.7,184.8 142.8,184.8 "/>
<g>
	<defs>
		<rect id="SVGID_11_" width="378.4" height="206.2"/>
	</defs>
	<clipPath id="SVGID_12_">
		<use xlink:href="#SVGID_11_"  style="overflow:visible;"/>
	</clipPath>
	<path class="st7" d="M173.8,197.4c-1.4,0-2.6-0.5-3.6-1.4c-1-1-1.5-2.1-1.5-3.5c0-1.4,0.5-2.6,1.5-3.5c1-1,2.2-1.4,3.6-1.4
		c1.4,0,2.6,0.5,3.6,1.4c1,1,1.4,2.1,1.4,3.5c0,1.4-0.5,2.6-1.4,3.5C176.4,196.9,175.2,197.4,173.8,197.4 M173.7,184.6
		c-2.2,0-4.1,0.8-5.7,2.3c-1.6,1.5-2.4,3.4-2.4,5.6c0,2.2,0.8,4.1,2.4,5.6c1.6,1.5,3.5,2.3,5.7,2.3c2.2,0,4.2-0.8,5.7-2.3
		c1.6-1.5,2.4-3.4,2.4-5.6c0-2.2-0.8-4.1-2.4-5.6C177.9,185.3,176,184.6,173.7,184.6"/>
</g>
<polygon class="st1" points="196.3,194.9 187.5,184.8 185.2,184.8 185.2,200.1 188.2,200.1 188.2,190 197,200.1 199.3,200.1 
	199.3,184.8 196.3,184.8 "/>
<rect x="204" y="184.8" class="st1" width="3" height="15.4"/>
<polygon class="st1" points="239.4,194.9 230.6,184.8 228.3,184.8 228.3,200.1 231.3,200.1 231.3,190 240.1,200.1 242.4,200.1 
	242.4,184.8 239.4,184.8 "/>
<g>
	<defs>
		<rect id="SVGID_13_" width="378.4" height="206.2"/>
	</defs>
	<clipPath id="SVGID_14_">
		<use xlink:href="#SVGID_13_"  style="overflow:visible;"/>
	</clipPath>
	<path class="st8" d="M253.9,197.4c-1.4,0-2.6-0.5-3.6-1.4c-1-1-1.5-2.1-1.5-3.5c0-1.4,0.5-2.6,1.5-3.5c1-1,2.2-1.4,3.6-1.4
		c1.4,0,2.6,0.5,3.6,1.4c1,1,1.4,2.1,1.4,3.5c0,1.4-0.5,2.6-1.4,3.5C256.5,196.9,255.3,197.4,253.9,197.4 M259.5,186.9
		c-1.6-1.5-3.5-2.3-5.7-2.3c-2.2,0-4.1,0.8-5.7,2.3c-1.6,1.5-2.4,3.4-2.4,5.6c0,2.2,0.8,4.1,2.4,5.6c1.6,1.5,3.5,2.3,5.7,2.3
		c2.2,0,4.2-0.8,5.7-2.3c1.6-1.5,2.4-3.4,2.4-5.6C261.9,190.3,261.1,188.4,259.5,186.9"/>
	<path class="st9" d="M171.5,181.2C171.5,181.2,171.5,181.2,171.5,181.2c-0.1,0-0.2,0-0.3-0.1c0,0.1,0,0-0.1,0c0,0,0,0.1,0,0.1
		c-0.1,0-0.3,0-0.4,0c0.1,0,0-0.2,0.1-0.2c0,0,0.1,0,0.1,0c0,0.1-0.1,0.1-0.1,0.1c0.1-0.1,0.3,0.1,0.3-0.1c-0.1,0-0.1,0.1-0.1,0
		c0-0.1-0.2-0.1-0.2-0.2c0.1,0,0.1-0.1,0.2-0.1c0.1,0,0,0.1,0.1,0.1c0-0.1-0.1-0.1-0.1-0.2c0,0-0.1,0-0.1,0c0.1,0-0.1,0,0-0.1
		c0.1,0,0-0.1,0-0.1c0,0,0,0,0,0c0,0,0.1,0,0.1,0c0,0,0,0,0-0.1c0.1,0,0.1,0,0.2,0c0.1,0,0.1,0,0.2,0c0,0,0.1,0.2,0.2,0.3
		C171.6,180.9,171.6,181.1,171.5,181.2 M171.3,181.5C171.3,181.4,171.2,181.4,171.3,181.5c0.1-0.1,0-0.1,0-0.1c0-0.1,0.1,0,0.1,0
		C171.4,181.4,171.3,181.4,171.3,181.5 M160.4,184c0,0,0.1,0,0.1,0c0,0,0,0,0,0C160.5,184.1,160.5,184.1,160.4,184 M150.3,183.1
		c-0.1,0-0.1,0,0-0.1c0-0.1,0.1-0.1,0.1,0C150.4,183,150.4,183.1,150.3,183.1 M155.7,181.9c0,0.1,0.1,0.3-0.1,0.3c0,0,0-0.1,0-0.1
		C155.6,182,155.6,181.9,155.7,181.9 M156.1,182.1C156.1,182.2,156.1,182.2,156.1,182.1c0,0.2-0.1,0.1-0.2,0.1
		C155.8,182.2,156,182.2,156.1,182.1 M156.3,181.9c0.1,0,0.1,0,0.2,0.1c0,0,0.1,0,0.1-0.1c0.1,0,0,0.1-0.1,0.1c0,0,0.1,0,0.1,0.1
		c0.1,0,0,0,0.1,0c0,0.1,0.1,0.1,0.2,0.1c0,0-0.1,0-0.1,0.1c0-0.1-0.1,0-0.2-0.1c-0.1,0.1-0.1,0-0.2,0c0-0.1,0-0.1-0.1-0.2
		c0,0,0.1,0.1,0.1,0.1c0.1,0,0.1,0,0.1,0C156.5,182,156.3,182,156.3,181.9 M156.6,181.6c0.1,0.1,0.2-0.1,0.3,0c0,0,0,0.1,0,0.1
		c-0.1,0,0,0,0,0c-0.1,0-0.1,0.1-0.1,0.2C156.7,181.8,156.6,181.7,156.6,181.6 M157.3,182.1c0,0.1,0,0.2-0.1,0.2
		c0,0,0.1,0.1,0.1,0.1c0.1-0.1,0.1-0.2,0.3-0.2c0,0.1-0.3,0.1-0.1,0.2c0,0,0.1,0,0.1,0.1c-0.1,0-0.1,0.1-0.2,0c0-0.1,0-0.1,0-0.1
		c-0.1,0.1-0.2,0.1-0.4,0.1c0,0,0-0.1-0.1-0.1c0.1,0,0.1-0.1,0.2-0.2c0-0.1-0.1,0-0.2-0.1C157,182,157.1,182.1,157.3,182.1
		 M157.3,181.9c0,0-0.1,0.1-0.2,0C157.2,181.9,157.3,181.9,157.3,181.9 M157.5,181.9C157.5,182,157.5,182,157.5,181.9
		c0,0.1,0.1,0.2,0,0.2C157.5,182,157.4,181.9,157.5,181.9 M157.7,182.2c-0.1,0,0-0.1-0.1,0C157.6,182.1,157.7,182.1,157.7,182.2
		 M157.6,181.8c0.1,0,0.1,0,0.2,0c0.1-0.1,0.3-0.2,0.4-0.2c0,0,0,0,0,0c0.1,0,0.1,0,0.2,0c0,0.1-0.1,0-0.1,0.1
		c0.1,0.1,0.3,0.1,0.4,0c0,0,0,0.1,0,0.1c0,0-0.1,0-0.2,0.1c0.1,0,0.1,0.1,0.2,0.1c0,0.2-0.3,0.1-0.5,0.2c0,0.1,0.1,0.1,0.2,0.1
		c0.1,0,0.2-0.2,0.2,0c0.1,0,0.1-0.1,0.2-0.2c0.1,0,0.3,0.1,0.3,0.1c-0.2,0.2-0.5,0.2-0.8,0.3c0,0,0-0.1,0-0.1c-0.1,0-0.2-0.1-0.3,0
		c0-0.1,0.2-0.1,0.2-0.2c-0.1,0-0.2,0-0.3,0c0,0.1-0.1,0.1-0.1,0.1c0-0.1,0-0.1,0.1-0.2C157.7,182,157.7,181.9,157.6,181.8
		C157.5,181.8,157.6,181.8,157.6,181.8 M158.7,181.5C158.7,181.5,158.7,181.5,158.7,181.5C158.7,181.5,158.7,181.5,158.7,181.5
		C158.6,181.5,158.7,181.5,158.7,181.5 M159,181.8c0.1,0,0,0.1-0.1,0.2C158.8,181.8,159,181.9,159,181.8 M159.5,181.9
		c0,0.1-0.3,0-0.4,0.1c0,0,0,0,0-0.1C159.3,181.9,159.4,181.9,159.5,181.9 M159.6,181.6c0,0.1,0,0.1-0.1,0.1
		C159.5,181.7,159.5,181.6,159.6,181.6C159.5,181.6,159.6,181.6,159.6,181.6 M159.4,182.3c0,0,0.1,0,0.1,0
		C159.5,182.4,159.4,182.4,159.4,182.3 M159,182.8c0.1-0.1,0.1-0.1,0.1-0.2c0,0.1,0,0.1,0.1,0.2c-0.1,0-0.1,0-0.1,0
		C159.1,182.9,159.1,182.8,159,182.8 M159.9,182.6C159.9,182.6,159.9,182.6,159.9,182.6C159.9,182.6,159.9,182.6,159.9,182.6
		C159.9,182.6,159.9,182.6,159.9,182.6c0.1,0,0.1,0,0.1,0.1c0,0,0,0,0.1,0c0,0.1,0,0.3-0.1,0.3c-0.1,0-0.2,0-0.2,0.1c0,0,0,0,0,0
		c0,0-0.1,0-0.1-0.1c-0.1-0.1-0.2-0.1-0.4,0.1c0,0,0,0,0,0c0,0,0,0-0.1,0c-0.1,0-0.2,0-0.3,0c0,0,0,0,0,0c0,0,0,0,0,0
		c0-0.1,0.1-0.1,0.2-0.2c0,0,0.1,0.1,0.1,0.1c0,0,0-0.1,0-0.1c0.2,0,0.2,0,0.4-0.1c0.1,0.2,0.3-0.1,0.5,0c0,0-0.1-0.1,0-0.1
		c-0.2,0-0.3,0-0.4,0.1c-0.1,0-0.1,0-0.1-0.1c0.1,0.1,0.1-0.1,0.1-0.1C159.7,182.6,159.8,182.6,159.9,182.6 M159.8,182.3
		c0.1,0,0.1,0.1,0.1,0.1c0,0.1,0,0.1,0,0.1c0,0,0,0-0.1,0c-0.1,0-0.1-0.1-0.2-0.1C159.7,182.3,159.7,182.3,159.8,182.3 M159.9,182.1
		C159.9,182.1,159.9,182.1,159.9,182.1C159.9,182.2,159.9,182.2,159.9,182.1C160,182.3,159.8,182.2,159.9,182.1 M157.3,183.7
		C157.3,183.7,157.3,183.7,157.3,183.7c0-0.1,0.1-0.1,0.1-0.1c0,0,0,0,0,0c0,0,0,0.1,0,0.1c0,0,0,0,0,0c0,0,0,0,0,0.1c0,0,0,0,0,0
		c0,0.1,0,0.1,0,0.1c0,0,0,0,0,0c0,0,0,0,0,0c0,0,0,0,0,0C157.3,183.9,157.3,183.8,157.3,183.7 M156.7,183.8c-0.1,0-0.1,0.2-0.2,0.1
		c0,0,0.1,0,0-0.1c0.1,0,0.1,0,0.1-0.1c0.1,0,0.3,0,0.4-0.1c0,0,0,0,0,0C157.1,183.8,157,183.8,156.7,183.8
		C156.7,183.9,156.8,183.9,156.7,183.8 M155.7,182.4c0.1,0,0.1-0.1,0.2-0.1C155.9,182.4,155.8,182.4,155.7,182.4 M156.2,182.5
		C156.3,182.5,156.3,182.4,156.2,182.5c0.1,0,0.1,0,0.1,0c0,0,0,0,0,0C156.3,182.5,156.3,182.5,156.2,182.5 M156.8,182.6
		c0,0-0.1,0-0.1,0c0,0,0,0,0-0.1c0.1,0,0.1-0.1,0.1-0.2c0.1,0,0.1,0.1,0.2,0C156.9,182.5,156.6,182.5,156.8,182.6 M156.3,183.4
		c0,0.1,0,0.1,0,0.1c0,0,0,0,0,0C156.3,183.5,156.3,183.4,156.3,183.4 M156.1,184c-0.1,0-0.1-0.1-0.2-0.2c0-0.1,0-0.1,0-0.2
		c0.1,0,0.1,0,0.2,0C156,183.8,156.1,183.9,156.1,184C156.1,184,156.1,184,156.1,184z M156.6,183.6c0,0-0.1,0-0.1,0
		c0,0.1,0.1,0.1,0.1,0.1c-0.1,0.2-0.1,0.1-0.2,0.3c0,0-0.1,0-0.1,0c0,0-0.1-0.1-0.1-0.2c0,0,0,0,0-0.1c0,0,0.1,0,0.1-0.1
		c-0.1-0.1,0.1-0.1,0-0.3c0.1,0,0.3-0.1,0.5,0c0,0.1-0.1,0.1-0.1,0.1c0,0.1,0.1,0,0.1,0C156.8,183.6,156.7,183.4,156.6,183.6
		C156.5,183.5,156.6,183.5,156.6,183.6 M156.9,183.2c-0.1,0-0.2,0-0.4,0c0,0,0-0.1,0-0.1c0,0,0,0,0,0c0,0,0,0,0,0c0,0,0-0.1,0.1-0.1
		C156.7,183,156.8,183.1,156.9,183.2 M156.9,183.1C156.9,183.1,156.9,183.1,156.9,183.1L156.9,183.1
		C156.9,183.1,156.9,183.1,156.9,183.1 M158.2,183.6C158.2,183.6,158.2,183.6,158.2,183.6C158.2,183.6,158.2,183.6,158.2,183.6
		C158.2,183.6,158.2,183.6,158.2,183.6 M158.4,183.5C158.4,183.5,158.4,183.4,158.4,183.5c0-0.1,0-0.1,0-0.1c0,0,0.1,0,0.1,0
		c0,0.1,0,0.2,0,0.2c0,0,0,0-0.1,0C158.4,183.6,158.4,183.6,158.4,183.5C158.4,183.5,158.4,183.5,158.4,183.5
		C158.4,183.5,158.4,183.5,158.4,183.5 M158.3,183.6C158.3,183.6,158.3,183.6,158.3,183.6C158.3,183.6,158.3,183.6,158.3,183.6
		C158.3,183.6,158.3,183.6,158.3,183.6 M157.4,183c0.1,0,0.1-0.1,0.2,0c0,0,0,0,0,0c0,0,0-0.1-0.1-0.1c0,0,0.1,0,0.1-0.1
		c0,0-0.1,0-0.1-0.1c0.1,0,0.2-0.1,0.3,0c0,0.1-0.1,0.1-0.1,0.1c0,0.1,0.2,0,0.2,0.1c0,0,0,0,0-0.1c0.2,0.1,0.3-0.1,0.5-0.1
		c0.1,0.1,0.2,0,0.3,0.1c0.1-0.1,0.3,0,0.2,0c0,0-0.1,0.1-0.2,0.1c-0.1-0.1-0.2,0-0.3,0.4c0,0,0,0,0,0c0,0-0.1,0-0.1,0
		c0-0.2,0-0.3,0-0.3c0-0.1,0,0.1,0,0.3c0,0.1,0,0.1,0,0.2c-0.1,0-0.1,0-0.2,0c0,0,0-0.1,0-0.1c-0.1-0.4-0.1-0.4-0.4-0.3
		C157.6,183.1,157.5,183,157.4,183C157.4,183,157.4,183,157.4,183 M155.9,182.4c0.1,0,0.2,0,0.2,0
		C156.1,182.5,156,182.5,155.9,182.4C155.9,182.5,155.9,182.5,155.9,182.4 M160.3,183.3c0.1,0,0.1,0.1,0.1,0.1
		C160.4,183.5,160.3,183.4,160.3,183.3 M160.2,181.8C160.2,181.9,160.3,181.9,160.2,181.8c0.2-0.1,0.2-0.1,0.3-0.1
		c0.1-0.1,0.1-0.1,0.2-0.2c0,0,0,0,0,0c0,0,0,0.1,0,0.1c0.1,0.1,0.1,0,0.2,0c0,0.1-0.1,0.1,0,0.2c-0.1-0.1-0.2-0.1-0.3-0.1
		c0,0.1,0.1,0.1,0.1,0.1c-0.1,0-0.1,0.1-0.2,0.1c0,0.1,0.2,0.1,0.2,0.2c0,0.1,0,0.1,0,0.2c0.1,0.1,0.2,0,0.3,0c0,0.1,0,0.1,0,0.1
		c-0.1,0,0,0.1-0.1,0c0,0.1,0.2,0.1,0.2,0.3c-0.1,0-0.1,0-0.1,0c0,0.1-0.1,0.1-0.1,0.1c0,0,0,0,0,0c0,0-0.1,0-0.1,0
		c-0.2,0-0.3,0-0.3,0.2c-0.1-0.1-0.2,0-0.3,0c0-0.2-0.1-0.4-0.1-0.6c0,0,0.1,0,0.1,0c0-0.1-0.1-0.1-0.1-0.1c0.1-0.1,0.2,0,0.3,0
		c0-0.1,0-0.1,0-0.1c0,0-0.1,0-0.1,0c0,0,0.1,0,0-0.1c0.1,0,0.1-0.1,0.3,0c-0.1-0.1-0.2-0.1-0.2-0.2c-0.1,0-0.2-0.1-0.3-0.1
		c0,0.1-0.1,0.1-0.1,0.1c0,0.1,0.2,0,0.2,0.1c0,0,0.1-0.1,0-0.1c0,0,0.2,0,0.2,0.1c0,0-0.1,0-0.1,0.1c0,0,0,0,0-0.1
		c-0.2,0.1-0.5-0.1-0.5-0.2C160,182,160.2,182,160.2,181.8 M160,181.7c0,0.1-0.1,0-0.1,0.1C159.8,181.7,160,181.7,160,181.7
		 M160.1,181.2c0,0,0.1,0.1,0.1,0.1c0,0,0,0.1-0.1,0.1c0,0-0.1,0-0.1,0c0,0,0,0.1,0,0.1c0,0-0.1,0-0.1,0
		C160.1,181.5,160,181.3,160.1,181.2 M161,181.2c0,0.1-0.1,0-0.2,0c0,0,0,0,0,0c0,0,0.1-0.1,0.1-0.1
		C160.8,181.1,160.9,181.2,161,181.2 M161.4,181.1C161.4,181.1,161.4,181.1,161.4,181.1c0,0-0.1-0.1-0.1-0.1c-0.1,0-0.1,0-0.1,0.1
		c0,0-0.1,0-0.1,0c0-0.1-0.1-0.1-0.1-0.3C161.1,180.9,161.3,180.9,161.4,181.1 M161.5,181.7c0.1-0.1,0.1,0,0.2,0c0,0,0-0.1,0-0.1
		c0.1,0,0.2-0.1,0.3,0c0,0.1,0.1,0.1,0.2,0.2c0-0.1,0.3-0.3,0.3,0c-0.1,0-0.1,0-0.1,0c0.2,0.1,0.3,0.3,0.5,0.2c0,0.1,0.1,0,0.1,0.2
		c-0.1,0-0.1-0.1-0.3,0c-0.1-0.1-0.2-0.2-0.4-0.3c0,0,0,0.1,0,0.2c0,0,0,0-0.1,0c0,0.1-0.2,0.3-0.3,0.1c0.1,0,0.1-0.1,0.2-0.1
		c0-0.1-0.1-0.1-0.2-0.1c0,0,0-0.1,0.1-0.1c0-0.1-0.1,0-0.1-0.1c-0.1,0,0,0.1-0.1,0.1C161.7,181.8,161.6,181.7,161.5,181.7
		c0,0.1,0,0.2-0.1,0.1c0.1-0.1-0.2-0.2-0.2-0.1c0,0,0,0-0.1,0C161.2,181.6,161.4,181.5,161.5,181.7 M165.2,181.8c0,0.1-0.1,0-0.1,0
		C165.1,181.8,165.2,181.7,165.2,181.8 M163.3,181.6C163.3,181.7,163.3,181.7,163.3,181.6C163.2,181.6,163.3,181.6,163.3,181.6
		 M163.5,181.8C163.5,181.8,163.4,181.8,163.5,181.8C163.4,181.8,163.4,181.8,163.5,181.8C163.4,181.8,163.5,181.8,163.5,181.8
		 M164.6,182C164.5,182,164.5,182,164.6,182c-0.1-0.1-0.1-0.1-0.2-0.1c0,0,0,0,0.1,0C164.5,181.9,164.5,181.9,164.6,182
		 M164.2,181.1C164.2,181.1,164.2,181.1,164.2,181.1C164.2,181.2,164.2,181.2,164.2,181.1C164.1,181.1,164.2,181.1,164.2,181.1
		C164.2,181.1,164.2,181.1,164.2,181.1 M164.5,181.3c0,0,0,0.1-0.1,0.1c0,0,0-0.1,0-0.1C164.3,181.3,164.5,181.3,164.5,181.3
		 M164.7,181.1c0,0.1-0.2,0.1-0.2,0c0,0.1-0.1,0.1-0.2,0c0,0,0,0,0.1-0.1c0.1,0,0.1,0,0.2,0C164.7,181.1,164.7,181.1,164.7,181.1
		 M164.7,181.8C164.7,181.8,164.7,181.7,164.7,181.8C164.8,181.8,164.8,181.8,164.7,181.8 M164.7,181.7c0-0.1,0.1-0.1,0.1-0.2
		c0.1,0,0.1,0,0.2,0.2C164.9,181.7,164.8,181.7,164.7,181.7 M162.9,181.8c0,0-0.1,0-0.1,0C162.8,181.8,162.9,181.8,162.9,181.8
		 M162.8,181.5c-0.1,0.1-0.1-0.1-0.2-0.1c0-0.1,0-0.1,0.1-0.1c0,0,0,0,0,0c0.1,0,0.2,0,0.3,0c0,0,0,0.1-0.1,0.1
		c-0.1-0.1-0.1,0-0.2,0C162.6,181.4,162.7,181.4,162.8,181.5c0.1,0,0.1-0.1,0.1-0.1c0.1,0,0,0,0,0.1c0,0.1,0.1,0,0.2,0
		c0.1,0-0.1-0.1,0-0.1c-0.1,0-0.3-0.1-0.1-0.2c0.1,0,0.1,0.1,0.2,0.1c0.1,0,0.1-0.1,0.1-0.1c0,0,0,0.1,0.1,0.1
		c0.1-0.1,0.3-0.1,0.5-0.1c0.1,0,0-0.1,0.1-0.1c0.1,0,0,0.1,0,0.2c-0.1,0-0.1,0-0.1,0c0.1,0.1,0.1,0.1,0.2,0.2
		c0.2-0.1,0.3-0.1,0.5-0.1c0,0.1,0.1,0.1,0.1,0.3c-0.1-0.1-0.2-0.1-0.4-0.1c0,0.1-0.1,0-0.1,0.1c-0.1,0-0.2-0.2-0.3-0.1
		c0,0,0,0,0-0.1c0,0,0,0,0,0c-0.1,0,0,0,0,0.1c-0.1-0.1-0.2-0.1-0.2-0.2c0.1,0,0.1-0.1,0.1-0.1c0,0-0.2,0-0.2-0.1
		c-0.1,0-0.1,0.1-0.1,0.1c-0.1,0-0.2,0-0.3,0.1C163,181.6,162.9,181.6,162.8,181.5 M165.3,182.5c0,0.1,0.1,0.3,0.1,0.4
		c-0.1-0.1-0.3,0-0.5,0c0,0.1-0.1,0.3-0.4,0.3c-2.8,0.2-4.4,0.3-5.1,0.5c-1.1,0.3-2.1,0.5-2.9,0.6c0,0,0,0,0,0c0.1,0,0.2,0,0.2-0.1
		c-0.2-0.4-0.3,0.2-0.7,0c0.3,0-0.1-0.1,0.1-0.2c0.3-0.1,0.4,0,0.5-0.2c0,0.1,0.1,0.1,0.2,0.1c-0.1-0.4,0.7-0.6,0.3-0.9
		c-0.1,0.1-0.4,0-0.4-0.1c0,0,0-0.1,0.1-0.1c0.3-0.1,0.3,0.2,0.5,0.1c0.1-0.1-0.1-0.1,0-0.2c0.2,0,0.6,0,0.5,0.3
		c0.2,0,0.1-0.1,0.2-0.1c0.1,0.1,0.1,0.1,0.2,0.2c0.3,0,0.5,0,0.7,0.1c0,0.1,0,0,0.1,0.2c-0.1,0-0.2-0.1-0.2,0
		c0.3,0.2,0.7-0.2,0.8-0.4c-0.1,0-0.1,0.1-0.2,0c0,0-0.1,0-0.1-0.1c0.4-0.3,0.9,0.2,1.2-0.2c0,0,0.1,0.1,0.1,0.1
		c0.1,0,0.4,0,0.4-0.2c-0.1,0-0.1-0.1-0.2-0.1c0.2-0.2,0.4,0,0.5-0.1c0-0.1-0.1-0.1,0-0.2c0.2-0.4,0.8-0.2,0.2,0.1
		c0,0.1,0,0.2,0.1,0.3c0.2,0,0.2-0.2,0.3-0.3c0.3,0.1,0.5-0.1,0.8,0c0,0,0-0.1,0.1-0.1c0.1,0.1,0.2,0.1,0.1,0.2
		c0.7-0.2,1.3-0.1,2-0.3C164.8,182.5,165.2,182.3,165.3,182.5 M165.3,181.4c0,0,0.1,0.2,0,0.2C165.3,181.5,165.3,181.5,165.3,181.4
		 M166.9,180.9C166.9,180.9,166.9,180.9,166.9,180.9c0,0-0.1,0.1-0.1,0c0,0,0,0,0,0C166.8,180.9,166.9,180.9,166.9,180.9
		 M167.4,181.1c0,0,0.1,0.1,0.2,0.1C167.5,181.2,167.4,181.2,167.4,181.1 M166.9,181.3c0-0.1,0.1,0,0.1,0
		C167,181.3,166.9,181.3,166.9,181.3 M166.5,181.1c0.1,0,0.2-0.1,0.3-0.1c0,0.1,0,0.1,0,0.1c-0.1,0-0.1,0-0.2,0
		C166.6,181.2,166.5,181.2,166.5,181.1 M166,181.1c0.1-0.1,0.1-0.1,0.2-0.1c0,0.1-0.1,0.1-0.1,0.2
		C166.1,181.3,166.1,181.1,166,181.1 M166.1,181.4c0.1-0.1,0.1-0.1,0.3-0.1c0.1,0.1,0.1,0.2,0.2,0.2c0,0.1,0.1,0.1,0.1,0.1
		c-0.1,0.1-0.1,0-0.2,0.1c0-0.1-0.1-0.1,0-0.1C166.4,181.5,166.2,181.5,166.1,181.4 M167,181.8C167,181.9,166.9,181.9,167,181.8
		C166.9,181.8,166.9,181.8,167,181.8 M167.2,181.5c0,0,0,0.1-0.1,0.1c-0.1,0-0.1,0-0.1,0c0-0.2-0.1-0.2-0.2-0.2c0.1-0.1,0-0.1,0-0.2
		c0.1,0.1,0.1,0.1,0.2,0.1c0.1-0.3,0.3,0,0.5,0.1c0.1,0,0.1,0,0.2,0c0,0.2-0.2,0.1-0.3,0.2c0-0.1-0.1-0.1,0-0.1
		C167.3,181.5,167.2,181.5,167.2,181.5 M167.6,180.8c0,0,0.1,0,0.1,0c0,0.1-0.1,0.1-0.1,0.1c0.1,0.1,0,0.1,0.1,0.1c-0.1,0,0,0-0.1,0
		c0-0.1-0.1-0.1,0-0.2c-0.1-0.1-0.2,0.1-0.3,0c0,0,0,0,0-0.1C167.4,180.8,167.5,180.8,167.6,180.8 M168.6,181.2
		c-0.1,0.1-0.1,0-0.2,0.1c-0.1,0.2-0.2,0.4-0.4,0.2c-0.1-0.2,0.2-0.2,0.2-0.5c0.1,0,0,0,0.1,0c0,0,0,0,0,0.1c0.2,0,0.4-0.2,0.5,0
		C168.6,181.1,168.6,181.2,168.6,181.2C168.5,181.1,168.6,181.1,168.6,181.2 M169.6,181.1c0,0.1,0-0.1-0.1-0.1c0-0.1,0.2,0,0.3-0.1
		C169.7,181,169.5,181,169.6,181.1 M169.3,181.2c0.1,0.1,0.1,0,0.3,0c-0.1,0,0.1,0.2,0,0.2c-0.1,0-0.1,0-0.1-0.1c-0.1,0-0.1,0-0.2,0
		C169.3,181.3,169.4,181.3,169.3,181.2 M169.4,180.8C169.3,180.8,169.3,180.8,169.4,180.8C169.3,180.8,169.3,180.8,169.4,180.8
		 M169.2,180.8C169.2,180.8,169.2,180.8,169.2,180.8C169.2,180.8,169.2,180.8,169.2,180.8C169.2,180.8,169.2,180.8,169.2,180.8
		 M169.1,181.1c0-0.1,0-0.1,0.1-0.1C169.3,181,169.2,181.1,169.1,181.1 M169.2,181.3c-0.1,0-0.1,0-0.1-0.1
		C169.1,181.3,169.2,181.3,169.2,181.3 M169,180.8C169,180.8,169,180.7,169,180.8c0.2-0.1,0.1,0,0.1,0.1
		C169.1,180.9,169,180.9,169,180.8c0,0-0.1,0.1-0.1,0C168.9,180.8,168.9,180.8,169,180.8 M169.4,181c-0.1,0-0.1,0-0.2,0
		c0-0.1,0.1-0.1,0.1-0.1C169.5,180.9,169.4,181,169.4,181 M168.9,180.9c0,0-0.1-0.1-0.1-0.1C168.9,180.8,168.9,180.9,168.9,180.9
		 M170.3,181c-0.1,0-0.2,0-0.2,0c-0.1-0.1,0.1-0.1,0-0.2c0.1,0,0.2,0,0.2,0C170.4,180.9,170.3,181,170.3,181 M170.4,181.2
		c-0.1,0-0.1,0.1-0.2,0.1c0-0.1,0.1,0,0.1-0.1C170.3,181.1,170.4,181.1,170.4,181.2 M170.4,180.7c0,0,0.1,0,0.1,0c0,0,0.1,0.1,0,0.1
		c-0.1,0,0-0.1,0-0.1C170.5,180.7,170.5,180.7,170.4,180.7 M165.4,182.7c0,0,0.1,0,0.2,0C165.5,182.7,165.4,182.7,165.4,182.7
		C165.4,182.7,165.4,182.7,165.4,182.7 M161.5,183C161.5,182.9,161.5,182.9,161.5,183C161.6,182.9,161.6,182.9,161.5,183
		C161.6,182.9,161.5,182.9,161.5,183 M161.4,182c0.1,0,0.1,0.1,0.1,0.1c0,0,0,0.1-0.1,0.1C161.4,182.1,161.4,182.1,161.4,182
		C161.3,182,161.4,182,161.4,182 M169,182.4C169,182.4,169,182.4,169,182.4C169,182.4,169,182.4,169,182.4c-0.4,0.1-0.7,0.1-1.1,0.2
		c-0.8,0.1-1.4,0.1-1.5,0c-0.1-0.1-0.1-0.1-0.2,0.1c0,0.1-0.1,0.2-0.2,0.2c0,0-0.2-0.1-0.5-0.1c0,0,0.2,0,0.3-0.1c0,0,0,0,0-0.1
		c-0.1,0-0.2,0-0.3-0.1c0.1-0.1,0.2-0.1,0.3-0.2c-0.1,0-0.2-0.1-0.3-0.1c0,0.1-0.1,0.2-0.2,0.1c0-0.1,0-0.1,0-0.1c0.1,0,0.1,0,0.1,0
		c0-0.1-0.1,0-0.1-0.1c0.1-0.1,0.1-0.1,0.2-0.1c0-0.1,0.1-0.1,0-0.2c0.1,0,0.1-0.1,0.1-0.1c-0.1,0-0.1-0.1-0.2-0.1
		c0,0,0.1,0,0.1-0.1c-0.1-0.1,0-0.2-0.1-0.3c0.1,0,0.1,0.1,0.2,0.1c0,0.1,0.1,0.2,0.1,0.3c0.1,0,0.1,0,0.2,0c-0.1,0,0,0.2-0.1,0.3
		c-0.1,0-0.2,0-0.2,0.1c0.1,0,0.1,0.1,0.2,0.1c0.1,0,0.1-0.1,0.2,0c0,0,0-0.1,0-0.1c0.1,0,0.2,0.1,0.3,0c0.1,0.2-0.1,0.2-0.2,0.2
		c0,0,0,0,0,0.1c0.1,0,0.1,0.1,0.2,0c0,0,0,0.1,0,0.1c0.1,0,0.2-0.1,0.3-0.1c0,0,0-0.1,0.1-0.1c0,0,0.1,0.1,0.1,0.1
		c0.1,0,0.1,0,0.2,0c-0.1-0.1,0-0.2,0-0.3c0.1,0,0.1,0,0.2,0c0.1,0,0.1,0.1,0.2,0.2c-0.1,0,0,0.1-0.1,0c0,0-0.1-0.1-0.1-0.1l-0.1,0
		c0,0.1,0.1,0.1,0,0.2c0.3,0,0.5-0.2,0.7,0.1c0,0.1-0.1,0.1-0.1,0.2c0.1,0,0.1,0.1,0.1,0c0,0-0.1,0-0.1,0c0.1,0,0.1,0,0.2,0
		c0-0.1-0.1-0.1-0.1-0.2c0.3,0,0.5,0,0.6-0.1c0,0-0.1-0.1,0-0.1c0.1,0.1,0.3,0.2,0.5,0.2c-0.1,0-0.1,0-0.1-0.1c0.1,0,0-0.1,0.1-0.1
		c0.1,0,0.1,0.2,0.2,0.1c0.1,0,0,0.3,0.1,0.2c0,0-0.1-0.1,0-0.1c0,0,0.1,0.1,0.1,0c-0.1-0.1,0-0.3-0.2-0.3c0.1,0,0.1-0.2,0.2-0.1
		c0,0.1-0.1,0.1-0.1,0.1c0,0,0,0,0.1,0.1c0.1,0,0,0,0.1,0c0,0.1,0.1,0.1,0.1,0.1c0,0-0.1,0-0.1,0c0.1,0,0.1,0,0.2,0
		c-0.1,0.2-0.3,0.2-0.4,0.4c0.1,0,0-0.1,0.1-0.1c0.1,0,0.1,0,0.2,0C169.4,182.3,169.2,182.3,169,182.4 M170,182.1
		C170,182.1,170,182.1,170,182.1c0-0.1,0-0.1-0.1-0.1c0-0.1,0-0.1,0-0.2c0,0,0.1,0.1,0.1,0.1c0-0.1,0-0.2,0-0.2c0,0,0.1,0,0.1,0.1
		c0,0,0.1,0,0.1,0c0,0,0-0.1,0-0.1c0.1,0.1,0.2,0,0.3,0c0,0.1,0,0.2,0.1,0.3C170.4,182,170.2,182,170,182.1 M171,181.5
		c0.1,0,0.2,0,0.2,0c0,0,0,0.1,0,0.1c-0.1,0-0.1,0.1-0.2,0.1c-0.2,0-0.3,0-0.4-0.2c0.1,0,0.3,0.1,0.4,0.1
		C171,181.6,170.9,181.5,171,181.5 M155.1,191.4c0-0.1-0.2,0-0.2-0.2c0.1,0,0.1-0.1,0-0.1c0,0,0,0,0,0.1c0,0,0-0.1-0.1-0.1
		c0,0,0,0.1,0,0.1c0,0,0,0-0.1,0c-0.1-0.1,0-0.2,0-0.3c0,0.1,0.1,0,0.1,0.1c0.1,0,0.1-0.1,0.1-0.2c0.1,0,0.1,0.2,0.1,0.2
		c0,0,0,0-0.1,0.1c0,0,0.1-0.1,0.1,0c0,0.1-0.1,0.1-0.1,0.1c0,0.1,0.2,0,0.2,0.1C155.2,191.3,155.1,191.3,155.1,191.4 M155.1,191.9
		c-0.1,0,0.1-0.2,0.2-0.2C155.2,191.8,155.1,191.8,155.1,191.9 M155.3,192.2c-0.2,0.1-0.1-0.1-0.1-0.2
		C155.2,191.9,155.3,192.1,155.3,192.2 M155.5,192.7c0,0.1,0.1,0.1,0,0.2c0,0.1,0.1,0,0.1,0c0,0,0,0,0,0.1c0,0,0,0-0.1,0
		c0,0,0-0.2-0.1-0.1c0-0.1,0-0.1,0-0.1C155.4,192.7,155.4,192.8,155.5,192.7 M155.7,195.2C155.7,195.1,155.7,195.1,155.7,195.2
		c-0.1-0.1,0-0.1,0-0.2c0.1,0,0.1,0,0.2,0C155.7,195.1,155.8,195.1,155.7,195.2 M155.6,195c-0.1,0-0.1-0.1-0.2-0.1
		c0,0.2-0.2,0.1-0.3,0.2c0,0-0.1-0.2-0.1-0.3c-0.1,0.1,0,0.2,0.1,0.3c-0.1,0-0.1,0.1-0.1,0.1c0-0.1,0-0.1-0.1-0.1c0-0.1,0-0.1,0-0.2
		c0,0,0-0.1,0-0.1c0,0,0,0,0,0c0-0.1,0-0.2,0-0.3c0,0,0,0,0,0c0,0,0,0,0.1-0.1c0,0-0.1,0-0.1,0c0-0.2,0.1-0.3,0.2-0.4
		c0,0.1,0,0.1,0.1,0.1c0.1,0,0-0.1,0.1-0.1c0,0.1,0.1,0.1,0.1,0.1c0,0,0,0,0,0c0,0,0.1-0.1,0.1-0.1c0,0,0.1,0,0.1,0.1
		c0,0,0-0.1,0.1-0.1c0,0,0.1,0.1,0.1,0.1c0,0,0,0-0.1,0.1c0,0-0.1-0.1-0.1,0c-0.1,0.1,0,0.1-0.1,0.2c0,0,0,0,0.1,0
		c0,0.1,0.2,0.2,0.2,0.3c0,0.1,0,0.1,0,0.2C155.7,194.9,155.6,195.1,155.6,195 M155,195.5c0,0,0-0.1,0-0.1c0,0,0,0,0,0
		C155.1,195.3,155.1,195.4,155,195.5C155.1,195.5,155,195.5,155,195.5 M154.3,196.2c-0.3,0.3-0.5,0.2-0.7-0.3
		c-0.2-0.4-0.1-0.5,0.1-0.5c0.2,0,0.3,0,0.4,0c0,0.1,0.1,0.1,0.3,0.2c0,0,0,0,0,0c0.1,0.1,0.1,0.3,0.2,0.4
		C154.5,196,154.5,196,154.3,196.2 M154,196.7c-0.1,0-0.2,0-0.2,0c0,0,0-0.1,0.2-0.1c0.1,0,0.2,0,0.2,0
		C154.2,196.6,154.1,196.7,154,196.7 M153.3,195.2c0-0.1,0.4-0.2,0.6-0.2c0.3,0,0,0.2-0.3,0.3C153.4,195.2,153.3,195.2,153.3,195.2
		 M153.3,193.5c0.1,0,0.2-0.1,0.3-0.1c0.1,0.1,0.1,0.3,0.1,0.4c0,0,0.1,0,0.1,0c0,0,0,0,0,0c0,0,0,0,0,0c0,0,0,0,0,0c0,0,0,0,0,0
		c0,0.1-0.1,0.2-0.2,0.2c-0.2,0-0.3,0-0.3-0.3C153.2,193.7,153.2,193.5,153.3,193.5 M153.1,192.5c0,0,0-0.1,0.1-0.1
		C153.2,192.5,153.2,192.5,153.1,192.5c0.1,0,0.1,0,0.1,0.1C153.2,192.6,153.1,192.6,153.1,192.5 M153,192C153,192,153,192,153,192
		C153.1,192,153.1,192,153,192L153,192C153.1,192,153.1,192.1,153,192C153.1,192.1,153,192,153,192 M154.8,190c-0.1,0-0.2,0-0.2-0.1
		c0-0.1,0.1-0.2,0.2-0.2c0.1,0,0.2,0.1,0.2,0.1C155,189.8,154.9,189.9,154.8,190 M154.7,192.1c0-0.1,0-0.1,0-0.2
		C154.8,192,154.7,192,154.7,192.1C154.7,192.1,154.7,192.1,154.7,192.1 M154.7,192.2C154.7,192.2,154.7,192.2,154.7,192.2
		c0.1,0,0.2-0.1,0.2,0C154.8,192.3,154.8,192.2,154.7,192.2 M155,192.7C155,192.8,155,192.7,155,192.7c-0.1,0-0.1,0.1-0.1,0.1
		c0,0,0,0-0.1,0c0,0.1-0.1,0.1-0.1,0.1c0,0,0,0,0,0c0,0,0-0.1,0-0.1c0-0.1,0-0.1,0-0.1c0-0.1,0-0.2,0-0.3c0,0,0-0.1,0.1-0.1
		c0,0,0,0.1,0.1,0.1l0,0c0,0,0,0,0,0c0-0.1,0,0,0,0C155,192.5,155.1,192.6,155,192.7 M155,193.6C155,193.6,155,193.6,155,193.6
		c-0.1-0.1-0.1-0.1-0.1-0.2c0,0,0.1,0,0.1,0c0,0,0-0.1,0.1-0.1c0-0.1,0-0.1,0.1-0.2c0,0,0,0.1,0.1,0.1
		C155.1,193.4,155.1,193.5,155,193.6 M154.6,190.6c0.1,0,0-0.1,0.1-0.1C154.7,190.6,154.7,190.6,154.6,190.6
		C154.7,190.7,154.6,190.6,154.6,190.6 M154.7,192.8C154.8,192.8,154.8,192.8,154.7,192.8C154.8,192.8,154.8,192.8,154.7,192.8
		C154.7,192.8,154.7,192.8,154.7,192.8 M155.2,193.9C155.2,193.9,155.1,193.9,155.2,193.9C155.2,193.9,155.2,193.9,155.2,193.9
		C155.2,193.9,155.2,193.9,155.2,193.9 M154.6,190.5c0-0.1,0-0.1,0-0.1l0.1-0.3l0.2,0.2c0,0,0,0,0,0
		C154.8,190.4,154.7,190.4,154.6,190.5 M154.9,190.6c0,0,0.1,0,0.2-0.1c0,0,0,0,0,0c0,0,0,0,0,0.1c0,0,0,0,0.1,0c0,0,0,0,0,0.1
		C155,190.7,155,190.6,154.9,190.6c0.1,0.1,0.1,0.1,0,0.2C154.8,190.8,154.9,190.6,154.9,190.6 M155.4,197.1c0,0.1,0,0.1,0,0.2
		c0,0,0,0,0,0c0,0,0,0,0,0c0.1-0.1,0,0-0.1-0.1C155.3,197.1,155.3,197.1,155.4,197.1 M155.5,197.5c0-0.1-0.1-0.1-0.1-0.2
		C155.5,197.2,155.6,197.5,155.5,197.5 M155.2,199.6c0.1-0.1,0.3-0.2,0.5-0.3c0.1,0,0,0.2,0.1,0.3c0,0,0.1,0,0.1,0
		c0,0.1,0,0.1,0,0.1c0,0,0-0.1,0-0.1c0,0-0.1,0-0.1,0.1c0,0,0.1,0,0.1,0.1c0,0,0,0,0,0c-0.1-0.1-0.2-0.1-0.4,0.1
		c-0.2,0.1-0.4,0.3-0.5,0.3C154.8,200.1,155,199.7,155.2,199.6 M158,201.7C158,201.7,158,201.7,158,201.7c0.1,0.1,0,0.2,0,0.2
		c0,0,0,0,0,0c0,0-0.1-0.1-0.1-0.1C157.9,201.7,157.9,201.7,158,201.7 M158.2,201.9c-0.1,0-0.1,0-0.1,0c0,0,0,0,0,0c0,0,0,0,0,0
		c0,0,0-0.1,0-0.1C158.1,201.9,158.3,201.8,158.2,201.9 M158.2,200.8c0.1-0.2,0.2,0,0.4,0c0,0,0,0,0,0.1c0,0,0,0-0.1,0.1
		c0,0.2,0.2,0.2,0.1,0.4c0-0.1-0.1-0.1-0.1-0.1c0,0,0,0,0,0c-0.1,0,0-0.1-0.1-0.1C158.3,201.1,158,201.1,158.2,200.8 M159.6,201.2
		C159.6,201.2,159.6,201.2,159.6,201.2C159.6,201.2,159.6,201.2,159.6,201.2C159.6,201.2,159.6,201.2,159.6,201.2 M159.5,201.6
		c-0.1,0-0.2,0-0.2,0c0,0,0,0.1,0,0.1c0-0.1,0-0.1,0-0.2c0-0.1-0.1-0.1-0.1-0.1c0,0,0,0,0,0c0,0,0,0,0.1,0c0,0,0-0.1,0-0.1
		c-0.1,0-0.1-0.1-0.1-0.2c-0.1,0-0.1,0.1-0.1,0.2c-0.1-0.1-0.1-0.2-0.1-0.3c0.1-0.1,0.1,0,0.1,0.1c0.1,0,0.1-0.1,0.1-0.1
		c0.1,0.1,0.2,0.2,0.3,0.2c0,0-0.1,0.1-0.1,0.1C159.4,201.4,159.6,201.4,159.5,201.6 M159.7,202.4
		C159.7,202.4,159.7,202.4,159.7,202.4C159.7,202.5,159.7,202.5,159.7,202.4c0,0.1,0,0.1,0,0.1c0,0,0,0,0,0.1c0,0,0,0-0.1,0
		c0,0-0.1,0-0.1-0.1C159.7,202.6,159.7,202.5,159.7,202.4C159.7,202.5,159.7,202.5,159.7,202.4 M160,202.5
		C160,202.5,160,202.5,160,202.5C160,202.6,160,202.5,160,202.5c0,0.1,0,0.1,0,0.1c-0.1,0-0.2-0.1-0.2-0.1
		C160,202.6,159.9,202.5,160,202.5 M159.8,202.4C159.8,202.4,159.8,202.4,159.8,202.4C159.8,202.4,159.8,202.4,159.8,202.4
		C159.8,202.4,159.8,202.4,159.8,202.4 M160.2,203C160.2,203,160.1,203.1,160.2,203c-0.1,0-0.1,0-0.1,0c0,0-0.1,0-0.1,0
		c0-0.1-0.1-0.1-0.1-0.2c0,0,0.1,0.1,0.1,0.1c0,0,0,0,0,0c-0.1-0.1-0.1-0.1-0.2-0.2c0,0,0.1,0,0.1,0.1c0,0,0,0,0,0c0,0,0,0.1,0,0.1
		c0,0,0,0,0.1,0.1c0,0,0,0,0,0C160.1,203,160.1,203,160.2,203 M160.2,202.5C160.2,202.5,160.2,202.5,160.2,202.5
		C160.2,202.5,160.2,202.5,160.2,202.5 M160.3,202.7C160.3,202.8,160.3,202.8,160.3,202.7C160.2,202.7,160.3,202.7,160.3,202.7
		 M160.3,203C160.4,203,160.4,203.1,160.3,203c0.1,0,0.1-0.1,0.1-0.1c0,0.1-0.1,0.1,0,0.2c0,0,0.1,0,0.1,0.1c-0.1,0,0,0.1-0.1,0
		c0-0.1,0-0.1,0-0.1c0,0-0.1,0.1-0.1,0.1c0,0-0.1-0.1-0.1-0.1C160.3,203.1,160.3,203,160.3,203c-0.1-0.1-0.1-0.1-0.2-0.1
		c0-0.1,0.1,0,0.1-0.1C160.3,202.9,160.4,203,160.3,203 M160.4,202.8C160.4,202.8,160.4,202.8,160.4,202.8c0,0,0.1,0.1,0,0.1
		C160.4,202.8,160.4,202.8,160.4,202.8 M160.6,202.9C160.5,203,160.5,202.9,160.6,202.9C160.5,202.9,160.5,202.9,160.6,202.9
		 M160.5,202.7c0-0.1,0.1-0.2,0.2-0.1c0,0.1,0,0,0,0c0.1,0.1,0.2,0,0.2,0c0,0,0,0,0,0.1c0,0-0.1,0-0.1,0.1c0,0,0.1,0.1,0.1,0.1
		c0,0.1-0.1,0.1-0.2,0.2c0,0,0.1,0.1,0.1,0.1c0,0,0-0.1,0.1,0c0,0,0-0.1,0-0.1c0.1,0,0.2,0,0.2,0c0,0.1-0.2,0.2-0.3,0.2
		c0,0,0,0-0.1-0.1c0,0-0.1,0-0.2,0c0-0.1,0-0.1,0-0.1c-0.1,0-0.1,0-0.1,0c0,0,0,0.1,0,0.1c0-0.1,0-0.1,0-0.1
		C160.5,202.8,160.5,202.8,160.5,202.7c-0.1,0-0.1,0-0.1,0C160.4,202.6,160.5,202.6,160.5,202.7 M160.8,202.4
		C160.8,202.4,160.8,202.4,160.8,202.4C160.9,202.4,160.8,202.4,160.8,202.4C160.8,202.4,160.8,202.4,160.8,202.4 M161,202.6
		c0.1,0,0.1,0.1,0,0.1C161,202.6,161.1,202.7,161,202.6 M160.9,201.9C161,201.9,161,201.9,160.9,201.9
		C161,201.9,161,201.9,160.9,201.9c0.2,0,0.4,0,0.6,0.1c0,0,0,0.1,0,0.1c-0.1,0,0,0.2,0,0.2c0,0,0,0-0.1,0c0,0,0,0.1,0,0.1
		c0,0,0,0-0.1,0c0.1-0.1-0.1-0.3,0-0.3c0,0,0-0.1-0.1-0.1c-0.1,0-0.2,0-0.2,0c0,0,0,0.1,0,0.1c0,0,0,0.1-0.1,0c0,0,0-0.1,0-0.1
		c-0.1,0.1-0.1,0.1,0,0.3c0,0-0.1,0-0.2,0c0,0,0,0.1,0,0.1c-0.1,0-0.1-0.1-0.1-0.1c0,0,0,0,0.1,0c0-0.1,0-0.1,0-0.1
		C161,202.1,161,202.1,160.9,201.9C161,202,160.9,202,160.9,201.9C160.9,202,160.9,202,160.9,201.9C160.9,202,160.9,202,160.9,201.9
		 M164.5,201.6C164.5,201.6,164.5,201.6,164.5,201.6C164.5,201.6,164.5,201.6,164.5,201.6L164.5,201.6
		C164.5,201.6,164.5,201.6,164.5,201.6C164.6,201.6,164.6,201.6,164.5,201.6 M165,201.4C165,201.4,165,201.4,165,201.4
		C165,201.4,165,201.4,165,201.4c0,0.1,0,0.1,0,0.1c0,0,0,0,0,0c0,0,0,0-0.1,0C165,201.5,164.9,201.4,165,201.4
		c-0.2,0-0.2,0.1-0.3,0.1c0,0,0,0,0,0C164.9,201.4,165,201.4,165,201.4 M159,201.6c0,0,0-0.1-0.1-0.1c0,0,0.1-0.1,0.1-0.1
		C159,201.4,159.1,201.5,159,201.6 M159.1,201.6c0,0,0-0.1,0-0.1C159.1,201.4,159.1,201.5,159.1,201.6
		C159.1,201.5,159.1,201.5,159.1,201.6 M159.4,202.5C159.4,202.5,159.4,202.5,159.4,202.5L159.4,202.5
		C159.4,202.5,159.4,202.5,159.4,202.5 M159.7,203.1c0-0.1,0-0.1,0.1-0.1c0,0,0,0.1,0.1,0C159.8,203.1,159.8,203,159.7,203.1
		 M160.6,203.5C160.6,203.5,160.5,203.5,160.6,203.5C160.5,203.5,160.5,203.5,160.6,203.5C160.6,203.5,160.6,203.5,160.6,203.5
		 M161.4,203.2c0,0.1,0,0,0.1,0.1c0,0,0,0,0,0c0,0-0.1,0-0.1,0C161.5,203.3,161.4,203.3,161.4,203.2 M161.5,203
		C161.5,203,161.5,203.1,161.5,203C161.5,203,161.5,203,161.5,203 M161.5,202.5C161.6,202.6,161.5,202.6,161.5,202.5
		C161.4,202.5,161.5,202.5,161.5,202.5 M161.5,202.1C161.6,202.1,161.6,202.2,161.5,202.1C161.6,202.2,161.5,202.2,161.5,202.1
		C161.5,202.2,161.6,202.2,161.5,202.1 M163.4,202C163.4,202,163.4,202,163.4,202C163.3,202,163.4,202,163.4,202
		C163.4,202,163.4,202,163.4,202C163.3,202,163.3,202,163.4,202C163.4,201.9,163.4,201.9,163.4,202C163.4,202,163.4,202,163.4,202
		 M164,202.1c0,0,0.1,0.1,0.1,0.2C164,202.2,164,202.2,164,202.1 M164.1,202.4C164.1,202.5,164.1,202.5,164.1,202.4
		C164,202.4,164.1,202.4,164.1,202.4 M165.1,202.4C165.1,202.4,165.1,202.4,165.1,202.4L165.1,202.4
		C165,202.4,165.1,202.5,165.1,202.4C165.1,202.5,165,202.5,165.1,202.4c-0.1,0-0.1,0-0.1-0.1c0,0,0,0,0.1,0
		C165.1,202.3,165.1,202.4,165.1,202.4C165.1,202.4,165.1,202.4,165.1,202.4 M165,202.4C165,202.5,165,202.5,165,202.4
		C164.9,202.4,164.9,202.4,165,202.4 M165,202.6C164.9,202.6,164.9,202.5,165,202.6C165,202.5,165,202.5,165,202.6
		C165,202.6,165,202.6,165,202.6 M165.2,201.8C165.3,201.8,165.2,201.7,165.2,201.8C165.3,201.8,165.3,201.8,165.2,201.8
		c0.1,0.1,0.1,0.2,0.1,0.3C165.2,202,165.3,201.9,165.2,201.8 M164.8,202.1c0-0.2,0.2,0,0.3,0.1c0,0,0,0,0.1,0c0,0.1,0,0.1-0.1,0.2
		c0-0.1-0.1-0.1-0.1-0.1c0,0-0.1,0-0.1,0c0,0,0,0.1,0,0.1c0,0,0,0-0.1,0c-0.1-0.1-0.1-0.1-0.2-0.2c0-0.1,0-0.1,0-0.1
		C164.7,202,164.8,202.1,164.8,202.1 M164.8,202C164.8,202.1,164.7,202,164.8,202C164.7,202,164.8,202,164.8,202 M165,201.9
		c0,0-0.1,0-0.1,0C164.9,201.8,165,201.9,165,201.9 M165,201.8C165.1,201.8,165.1,201.8,165,201.8c0,0.1,0.1,0.1,0,0.1
		C165,201.9,165,201.8,165,201.8C165,201.8,165,201.8,165,201.8 M164.5,201.9c0,0,0.1-0.1,0.1-0.1c0,0,0,0.1,0,0.1
		C164.6,202,164.6,202,164.5,201.9C164.6,201.9,164.5,202,164.5,201.9 M164.5,202.1c0.1,0,0.1,0.1,0.2,0.1c0,0.1,0.1,0.1,0.1,0.1
		c0,0.1-0.1,0-0.1,0.1c0,0-0.1-0.1-0.1-0.1C164.6,202.2,164.5,202.2,164.5,202.1C164.4,202.1,164.5,202.1,164.5,202.1 M164.3,202.2
		c0,0,0.1,0.2,0.1,0.2c0,0-0.1,0-0.1,0.1c0,0,0.1,0,0.1,0.1c0,0,0,0,0.1,0c0,0,0-0.1,0-0.1c0.1,0,0.1,0.1,0.2,0c0.1,0.1,0,0.2,0,0.1
		c0,0,0,0,0,0.1c0,0,0.1,0.1,0.1,0c0,0,0,0,0,0.1c0,0,0.1,0,0.1-0.1c0,0-0.1,0.1-0.1,0.1c0,0-0.1,0.1-0.1,0.1c0-0.1,0-0.2-0.1-0.2
		c-0.1,0-0.1,0-0.1,0.1c0,0-0.1,0-0.1,0c0,0.1,0,0.1,0,0.1c0,0,0-0.1,0-0.1c0,0,0,0,0.1,0c0-0.1-0.1,0-0.1-0.1c0-0.1,0,0,0.1-0.1
		c0-0.1,0-0.1-0.1-0.2c0,0,0,0,0-0.1c0,0-0.1-0.1-0.1-0.1c0,0,0,0,0-0.1c-0.1-0.1-0.1-0.2-0.1-0.2c0,0,0.1,0.1,0.1,0.1
		C164.2,202,164.2,202.1,164.3,202.2C164.3,202.1,164.3,202.1,164.3,202.2 M164.4,202c0,0-0.1-0.1-0.1-0.1c0,0,0-0.1,0.1-0.1
		C164.4,201.9,164.3,201.9,164.4,202 M163,203.6C163,203.6,163,203.6,163,203.6c-0.1-0.2-0.2-0.2-0.3-0.3c0,0,0,0,0,0
		c-0.1-0.1,0,0.1-0.2,0c0.1,0,0-0.1,0-0.1c0,0,0.1,0,0.1-0.1c0,0,0,0,0.1,0c-0.1-0.1,0.1-0.2-0.1-0.3c0,0-0.1,0-0.1-0.1c0,0,0,0,0,0
		c0,0,0.1,0.1,0.1,0c0,0,0,0,0-0.1c0.1,0,0.1,0,0.2,0.1c0,0,0,0,0,0c0,0,0,0,0.1,0.1c0.1,0,0.1,0,0.2,0c0,0,0,0,0,0.1c0,0-0.1,0,0,0
		c0.1,0.1,0.1-0.1,0.1-0.1c0,0,0,0,0,0c0,0,0,0,0,0c0-0.1,0.2,0.1,0.2-0.1c0,0,0,0,0,0.1c0,0,0.1,0,0.1,0c0,0,0,0-0.1,0
		c0-0.1,0.1,0,0.1,0c0,0,0,0,0-0.1c0-0.1,0.2,0,0,0c0,0,0,0.1,0.1,0.1c0,0,0-0.1,0-0.1c0.1,0,0.1,0,0.2,0c0,0,0-0.1,0,0
		c0,0,0.1,0,0.1,0.1c0.1-0.1,0.3,0,0.4-0.1c0.1,0.1,0.1,0.1,0.2,0.1c0,0,0,0.1,0.1,0.1c0,0,0,0,0,0c0,0,0,0,0,0c0,0-0.1,0-0.1,0
		c0,0,0,0,0,0c-0.2,0.1-0.4,0.2-0.6,0.4c0,0,0,0-0.1,0c0,0,0,0,0,0c0,0,0,0,0-0.1c0,0,0,0,0,0c0,0,0,0,0-0.1c0,0,0,0,0,0
		c0,0,0,0,0,0c0,0,0,0,0,0c0,0,0,0-0.1,0c0,0,0,0-0.1,0c0,0,0,0,0,0c0,0,0,0,0,0c0,0,0,0,0,0c0,0,0,0,0,0c0,0,0,0,0,0c0,0,0,0,0,0
		c0,0.1,0,0.1,0,0.2c0,0,0,0,0,0c0,0,0,0.1-0.1,0.1c0,0,0,0,0,0C163.2,203.6,163.1,203.6,163,203.6 M162.3,202.7
		C162.3,202.7,162.4,202.7,162.3,202.7C162.4,202.8,162.4,202.8,162.3,202.7C162.3,202.8,162.3,202.8,162.3,202.7
		C162.3,202.7,162.3,202.7,162.3,202.7 M162.2,202.5C162.2,202.4,162.3,202.5,162.2,202.5C162.3,202.4,162.3,202.4,162.2,202.5
		c0.1-0.1,0.1-0.1,0.2-0.1c0,0.1,0.1,0.1,0.1,0.1c0-0.1,0-0.2,0.2,0c0,0,0,0-0.1,0c0.1,0,0.2,0.2,0.3,0.1c0,0.1,0.1,0,0.1,0.1
		c-0.1,0-0.1,0-0.2,0c-0.1-0.1-0.2-0.2-0.3-0.2c0,0,0,0.1,0.1,0.1c0,0,0,0,0,0c0,0.1,0,0.2-0.1,0.1c0,0,0-0.1,0.1-0.1
		c0-0.1-0.1,0-0.1-0.1c0,0,0-0.1,0-0.1c-0.1-0.1,0,0-0.1,0c0,0,0,0.1,0,0.1C162.4,202.5,162.3,202.5,162.2,202.5
		C162.2,202.5,162.3,202.6,162.2,202.5c0,0-0.2,0-0.1,0c0,0,0,0,0,0C162.1,202.4,162.1,202.4,162.2,202.5 M163,202.5
		C162.9,202.5,162.9,202.5,163,202.5C162.9,202.5,162.9,202.5,163,202.5 M163.1,202.4C163.1,202.4,163.1,202.4,163.1,202.4
		C163.1,202.4,163.1,202.4,163.1,202.4 M163.3,202.5C163.3,202.5,163.2,202.5,163.3,202.5C163.2,202.5,163.2,202.5,163.3,202.5
		C163.2,202.5,163.2,202.5,163.3,202.5 M163.8,202.6C163.8,202.6,163.8,202.6,163.8,202.6c-0.1,0-0.1,0-0.1-0.1c0,0,0,0,0,0
		C163.8,202.5,163.8,202.6,163.8,202.6 M163.8,202.5C163.8,202.4,163.8,202.4,163.8,202.5C163.9,202.4,163.9,202.5,163.8,202.5
		 M163.8,202.4c0,0,0-0.1,0-0.1c0,0,0.1,0,0.1,0.1C163.9,202.4,163.9,202.4,163.8,202.4 M163.6,202.3c0,0.1,0.1,0.1,0.1,0.2
		c-0.1-0.1-0.1-0.1-0.2,0c0,0.1,0,0,0,0.1c-0.1,0-0.2-0.1-0.2,0c0,0,0,0,0,0c0,0,0,0,0,0c0,0,0,0,0,0.1c-0.1,0-0.1-0.1-0.2-0.1
		c0,0,0,0,0-0.1c0,0-0.1,0-0.1-0.1c0,0,0,0,0,0.1c-0.1,0-0.1,0-0.1,0.1c-0.1,0-0.1,0-0.2-0.1c0,0.1-0.1-0.1-0.1-0.1c0,0,0-0.1,0-0.1
		c0,0,0,0,0,0c0,0,0.1,0,0.1-0.1c0,0,0,0,0,0c0,0,0,0.1,0,0.1c-0.1-0.1-0.1,0-0.1,0c0,0.1,0.1,0,0.1,0.1c0,0,0,0,0.1,0
		c0,0,0,0,0,0.1c0,0.1,0,0,0.1,0c0,0-0.1,0,0-0.1c-0.1,0-0.2-0.1-0.1-0.1c0,0,0.1,0.1,0.1,0.1c0,0,0,0,0,0c0,0,0,0,0.1,0
		c0-0.1,0.1-0.1,0.2-0.1c0,0,0-0.1,0-0.1c0.1,0,0,0.1,0.1,0.1c0,0,0,0-0.1,0c0.1,0.1,0.1,0.1,0.2,0.2
		C163.5,202.3,163.6,202.3,163.6,202.3 M163.6,202.1C163.6,202.1,163.6,202.2,163.6,202.1C163.5,202.2,163.5,202.1,163.6,202.1
		C163.5,202.1,163.6,202.1,163.6,202.1 M163.5,202C163.5,202,163.5,202,163.5,202C163.4,201.9,163.5,201.9,163.5,202
		C163.6,202,163.6,202,163.5,202 M161.9,202.1C161.8,202,161.8,202,161.9,202.1C161.9,202,161.9,202,161.9,202.1
		C161.9,202,161.9,202.1,161.9,202.1 M161.7,202c0,0,0.1,0.1,0.1,0.1c0,0.1-0.1,0-0.1,0C161.7,202.1,161.7,202.1,161.7,202
		C161.7,202,161.7,202,161.7,202 M161.6,202.8C161.6,202.8,161.6,202.8,161.6,202.8C161.6,202.9,161.7,202.9,161.6,202.8
		C161.7,202.9,161.6,202.9,161.6,202.8 M161.6,202.9c0,0,0.1,0.1,0.1,0.1c0,0,0,0.1,0,0.1C161.7,203.1,161.7,203,161.6,202.9
		C161.6,203,161.6,203,161.6,202.9 M162.3,203.8C162.2,203.8,162.2,203.8,162.3,203.8C162.2,203.7,162.3,203.8,162.3,203.8
		C162.3,203.8,162.3,203.8,162.3,203.8 M158.8,201.6c0.1,0,0.1,0,0.1,0c0,0.1-0.1,0-0.1,0.1C158.7,201.7,158.8,201.7,158.8,201.6
		 M158.7,201.8C158.7,201.8,158.8,201.8,158.7,201.8c0.1-0.1,0.1,0,0.1,0.1C158.8,201.9,158.8,201.8,158.7,201.8 M158.9,202.4
		c0,0,0-0.1-0.1-0.1c0.1-0.1,0.1,0.1,0.2-0.1c0,0.1,0,0.1,0,0.2C159,202.4,158.9,202.3,158.9,202.4 M158.9,202.7
		C158.9,202.7,158.9,202.6,158.9,202.7C159,202.6,159,202.6,158.9,202.7C159,202.7,159,202.7,158.9,202.7
		C159,202.7,158.9,202.7,158.9,202.7 M158.8,202.4c0,0,0.1,0.1,0,0.1C158.7,202.5,158.7,202.5,158.8,202.4
		C158.7,202.4,158.7,202.4,158.8,202.4C158.7,202.4,158.7,202.4,158.8,202.4 M161.5,203.8C161.5,203.8,161.5,203.8,161.5,203.8
		C161.5,203.8,161.5,203.8,161.5,203.8C161.5,203.8,161.5,203.8,161.5,203.8 M159.7,203.2C159.7,203.2,159.7,203.1,159.7,203.2
		C159.8,203.2,159.7,203.2,159.7,203.2 M159.5,202.8c0,0.1,0.1,0.2,0,0.2c0,0,0-0.1-0.1-0.1C159.5,202.8,159.4,202.8,159.5,202.8
		 M158.9,201.3c0,0.1-0.1,0.1-0.1,0.1c0,0,0,0,0-0.1C158.9,201.3,158.8,201.3,158.9,201.3C158.9,201.3,158.9,201.3,158.9,201.3
		C158.9,201.4,158.9,201.3,158.9,201.3 M162.5,203.6C162.5,203.6,162.5,203.6,162.5,203.6C162.4,203.5,162.5,203.6,162.5,203.6
		C162.5,203.6,162.5,203.6,162.5,203.6C162.4,203.6,162.5,203.7,162.5,203.6c-0.1,0.1-0.1,0.1-0.1,0.1c0,0-0.1,0-0.1,0
		c0,0,0-0.1,0-0.1c-0.1-0.1-0.1,0-0.2,0c0,0,0,0.1,0,0.1c0,0,0,0,0,0c-0.1,0-0.1,0-0.2,0c0,0,0,0,0-0.1c0,0,0,0-0.1-0.1
		c0,0,0,0,0.1,0c0,0-0.1-0.1,0-0.1c-0.1-0.1-0.1,0-0.1,0c-0.1,0-0.2,0-0.2,0.1c-0.1,0-0.1,0-0.2,0c0-0.1,0-0.1,0-0.1
		c0,0,0.1,0.1,0.1,0.1c0,0,0,0,0-0.1c0.1,0,0.1,0,0.2-0.1c0.1,0.1,0.1-0.1,0.2,0c0,0-0.1,0,0-0.1c-0.1,0-0.1,0-0.2,0.1
		c0,0-0.1,0-0.1-0.1c0.1,0,0-0.1,0-0.1c0.1,0,0.1,0,0.2,0c0,0,0,0,0.1,0.1c0,0,0.1,0,0.1,0c0-0.1-0.1-0.1-0.1-0.1c0,0,0.1,0,0.1,0
		c0,0,0-0.1,0-0.1c0,0,0,0-0.1,0c0,0,0.1,0,0,0c0.1,0,0,0,0.1,0c0,0-0.1-0.1-0.2-0.2c-0.1,0-0.1,0-0.2,0c0,0,0,0.1,0,0.1
		c0,0.1,0.1,0,0.1,0c0,0,0-0.1,0,0c0,0,0.1,0,0.1,0.1c0,0,0,0,0,0c0,0,0,0,0,0c-0.1,0.1-0.3-0.1-0.3-0.2c0.1,0,0.1,0,0.1-0.1
		c0,0,0.1,0,0,0c0,0,0.1,0,0.1,0c0,0,0-0.1,0-0.1c0,0,0,0,0,0c0,0,0,0.1,0.1,0.1c0.1,0.1,0,0,0.1,0c0,0.1,0,0.1,0.1,0.2
		c-0.1,0-0.1-0.1-0.2-0.1c0,0,0.1,0.1,0.1,0.1c0,0,0,0.1,0,0.1c0.1,0.1,0.1,0.1,0.2,0.2c0,0,0,0.1,0,0.1c0.1,0,0.1,0,0.2,0
		c0,0.1,0,0,0.1,0.1c0,0,0,0.1,0,0c0.1,0.1,0.1,0.1,0.2,0.2c0,0-0.1,0-0.1,0c0,0.1,0,0.1,0,0.1C162.5,203.5,162.5,203.5,162.5,203.6
		c0-0.2,0.1-0.2,0.1-0.2c0,0.1,0,0,0.1,0c0,0-0.1-0.1,0-0.1c0.1,0.1,0.1,0.1,0.1,0.1c0,0,0,0.1,0,0.1c0,0-0.1,0-0.1,0c0,0,0,0,0,0
		c0,0,0.1,0.1,0.1,0.1c-0.1,0-0.2,0-0.3,0.1C162.5,203.7,162.5,203.6,162.5,203.6 M161.3,202.4C161.3,202.4,161.3,202.4,161.3,202.4
		C161.3,202.5,161.3,202.5,161.3,202.4C161.3,202.5,161.3,202.5,161.3,202.4 M161.4,202.7c0,0.1-0.1,0-0.2,0.1c0,0,0,0,0-0.1
		C161.3,202.7,161.3,202.6,161.4,202.7 M160.7,203.6C160.7,203.5,160.8,203.5,160.7,203.6c0.1,0,0.1,0,0.1,0c0,0,0-0.1-0.1-0.1
		c0,0,0,0,0,0c0,0-0.1,0-0.1-0.1c0,0,0.1-0.1,0.1,0c0,0-0.1,0,0,0.1c0,0.1,0.1,0,0.1,0.1c0,0,0,0,0,0c0.1,0,0.1-0.1,0.2-0.1
		c0.1,0,0.1,0,0.2,0.1c0,0,0.2,0,0.1,0c0,0.1-0.1,0.1-0.1,0.1c0.1,0,0.1,0.1,0.2,0.2c0,0-0.1,0-0.1,0c-0.1,0-0.1,0-0.2,0
		c0.1-0.1,0.1-0.3,0-0.3c-0.1,0-0.2,0.2-0.2,0.3C160.9,203.7,160.8,203.6,160.7,203.6C160.7,203.6,160.7,203.6,160.7,203.6
		 M160.2,203.1C160.2,203.1,160.2,203.2,160.2,203.1c0.1,0.1,0,0.1,0.1,0.1c0,0-0.1,0.1-0.1,0C160.2,203.3,160.2,203.2,160.2,203.1
		 M160,203.2C160,203.2,160,203.2,160,203.2C160.1,203.2,160,203.2,160,203.2c0,0.1,0,0.1,0,0.1c0,0-0.1,0-0.1,0
		c0-0.1,0-0.1-0.1-0.1C159.9,203.2,159.9,203.2,160,203.2C160,203.2,159.9,203.2,160,203.2 M159.5,202.6
		C159.6,202.6,159.5,202.6,159.5,202.6c0.1,0,0.1,0,0.2,0C159.7,202.7,159.6,202.7,159.5,202.6c0,0-0.1,0.1-0.1,0.1
		c0,0-0.1,0-0.2-0.1c0,0,0,0,0.1,0c0,0,0,0,0-0.1c0,0,0,0,0.1,0c0,0,0,0,0,0.1c0,0,0,0,0,0.1c0,0,0,0,0,0
		C159.4,202.7,159.4,202.6,159.5,202.6C159.5,202.6,159.5,202.6,159.5,202.6 M158.6,200.4C158.6,200.4,158.6,200.4,158.6,200.4
		C158.6,200.4,158.6,200.4,158.6,200.4C158.6,200.5,158.6,200.4,158.6,200.4c-0.1,0.1-0.1,0.1-0.2,0.2c0,0,0,0,0-0.1
		C158.5,200.5,158.5,200.4,158.6,200.4 M158.5,201.8c0,0,0-0.1,0-0.1c0,0,0.1,0.1,0.1,0c0,0.1,0,0.1,0,0.2c0,0-0.1,0.1-0.2,0.1
		C158.4,201.9,158.4,201.9,158.5,201.8 M155.9,201.2c-0.1,0.1-0.3,0.2-0.4,0.2c-0.2,0-0.2,0-0.1-0.2c0.1-0.2,0.1-0.2,0.3-0.2
		C156.1,200.9,156.1,201,155.9,201.2 M155.7,181.5c0-0.1,0,0,0.1-0.1l0,0.1C155.8,181.6,155.7,181.5,155.7,181.5 M172.7,181.1
		c-0.6-0.6-1.3-1.4-1.5-1.7c0,0-0.1-0.1-0.1-0.2c-0.1-0.1-0.1-0.2-0.1-0.2c0,0-0.2,0.2-0.6,0.3c-0.4,0.2-0.9,0.3-0.9,0.3
		c-0.8,0.3-1.7,0.5-2.5,0.6c-0.1,0-0.2,0-0.2,0c0,0,0,0,0-0.1c-0.1,0-0.1,0-0.2,0.1c-0.1-0.1-0.2,0-0.3,0c0,0,0,0,0-0.1
		c-0.1,0-0.1,0.1-0.2,0.1c0.1,0,0.1,0.1,0.1,0.1c-0.1,0-0.3,0.1-0.4,0.1c0,0,0,0,0,0c0.1,0,0.1,0,0.1,0c-0.1-0.1,0.1-0.1,0.1-0.2
		c-0.1,0,0,0-0.1,0c-0.1,0-0.1,0-0.2,0c0,0.1,0,0.1-0.1,0.2c0,0,0,0.1,0,0.1c-0.2,0-0.3,0.1-0.4,0.1c-0.1,0-0.1,0-0.1,0.1
		c0-0.2,0.2-0.2,0.2-0.4c-0.1,0-0.2,0-0.3,0c0,0.1,0.1,0.2,0,0.3c0,0-0.1,0-0.1,0c0-0.1-0.2-0.1-0.4,0c-0.2,0-0.5,0-0.5,0
		c0,0-0.3,0-0.8,0c-0.1,0-0.1-0.1-0.1-0.1c-0.1,0-0.2,0-0.3,0c0,0,0,0,0-0.1c0.2,0,0.2,0,0.3,0c-0.1-0.1-0.2,0-0.4,0
		c0,0.1-0.1,0.1-0.1,0.1c0,0.1,0,0.1,0,0.1c0,0,0,0-0.1,0c-0.3,0-0.6,0.1-0.8,0.1c0,0,0,0,0,0c0,0,0,0-0.1,0c0,0,0,0,0,0
		c-0.1,0-0.1,0-0.2,0c0,0-0.1,0.1-0.1,0.1c-0.1,0-0.1-0.1-0.1-0.1c-0.1,0-0.1,0-0.2,0c0,0,0,0,0-0.1c-0.2,0-0.4,0.1-0.6,0
		c0-0.1,0.1,0,0-0.1c-0.1,0-0.1,0-0.3,0c0,0.1,0.2,0,0.2,0.1c-0.1,0-0.1,0.1-0.1,0.1c0-0.1-0.2,0-0.2,0c0,0,0,0,0,0
		c-0.1,0-0.2,0.1-0.3,0.1c-0.1,0-0.3,0-0.4,0c0,0.1,0,0.1-0.1,0.1c-0.1,0-0.1,0.1-0.2,0c0,0,0,0,0,0c0,0,0,0,0.1,0
		c0.1,0,0.1-0.1,0.1-0.1c0,0-0.1,0-0.1,0c0,0,0,0,0,0c-0.2,0.1-0.3,0.2-0.2,0.3c-0.1,0.1-0.2,0-0.3,0c0,0,0,0.1-0.1,0.1
		c-0.1,0-0.1,0-0.1-0.1c0.1-0.1,0.1-0.1,0.1-0.2c0,0,0,0,0-0.1c0.3-0.1,0.4-0.1,0.5-0.2c-0.1,0-0.2,0-0.4,0c-0.2-0.1-0.2,0-0.3,0.1
		c0,0-0.1,0-0.1,0c0,0,0,0,0,0c-0.1,0-0.1,0-0.2,0c-0.1,0-0.2,0-0.3,0.1c0,0,0,0-0.1,0c0,0,0,0.1-0.1,0c0,0,0,0,0,0
		c-0.1,0.1-0.2,0.1-0.2,0.2c0,0,0,0,0,0.1c-0.1,0-0.2,0-0.3,0c0,0,0,0.1,0,0.1c0,0-0.1,0-0.1-0.1c-0.2,0-0.4,0-0.7-0.1
		c0,0,0,0.1,0,0.1c-0.2,0-0.2,0.1-0.4,0.1c0,0.1,0.1,0,0.1,0.1c0,0,0,0,0,0.1c-0.1,0-0.1,0-0.1,0.1c0-0.1-0.1,0-0.1-0.1
		c0.1,0,0-0.1,0-0.2c-0.1,0-0.2,0-0.3,0l0-0.1c-0.1,0.1-0.2,0-0.4,0.1c0,0.1,0.1,0,0.1,0.1c0,0.1,0,0.1,0,0.2c-0.1,0-0.1,0-0.1,0.1
		c0.2,0,0.5-0.2,0.6,0c-0.2,0.1-0.2,0-0.3,0c-0.1,0-0.2,0.1-0.3,0.1c0,0-0.1,0-0.1,0c0,0,0-0.1-0.1-0.1c0,0,0-0.1,0.1-0.2
		c-0.1-0.1-0.2,0-0.3,0c0-0.7,0.1-1.2,0.1-1.5c0.1-0.6-0.1-0.8-0.8-0.9c-0.5-0.1-0.7-0.1-1.4,0c-0.8,0.1-1.8,0.4-1.8,0.5
		c0,0-0.8,0.4-0.9,0.6c-0.1,0.2-0.1,0.6-0.1,1.4c0,0.1,0,0.3,0,0.6c-0.2,0-0.4,0.1-0.6,0.2c-0.2,0.1-0.6,0.1-0.8,0.2
		c-1,0.1-1.9,0.3-2.7,0.3c-0.8,0.1-1.4,0.1-1.9,0.2c-1.1,0.1-1.7,0.1-2,0c-0.5-0.1-0.7,0.1-0.8,0.8c-0.1,0.5-0.1,0.7,0,1.4
		c0.1,0.8,0.4,1.8,0.5,1.8c0,0,0.2,0.2,0.3,0.4c0.2,0.5,0.2,0.5,1.7,0.4c0.5,0,3.1-0.3,6.4-0.7c0,1,0.1,2,0.2,3
		c0.1,1.1,0.3,2,0.4,2.7c0.1,0.6,0.2,1.1,0.2,1.1c0,0.2,0.3,1.3,0.4,1.4c0,0.1,0.1,0.2,0.1,0.5c0,0.2,0.1,0.4,0.2,0.6
		c0.1,0.3,0.2,0.6,0.3,1.1c0,0.1,0.1,0.3,0.2,0.6c0.1,0.2,0.2,0.5,0.3,0.8c0.3,0.5,0.6,1.1,0.9,1.6c0.7,1.1,1.3,1.9,1.3,2
		c0,0.1,0.3,0.5,0.8,0.8c0.5,0.4,1.1,0.9,1.3,1.2c0.1,0.1,0.4,0.4,0.9,0.6c0.5,0.3,1.1,0.6,1.9,0.8c0.8,0.2,1.8,0.3,2.7,0.2
		c1-0.1,1.9-0.4,2.7-0.9c0.8-0.4,1.4-0.8,1.4-0.8c0,0,0.2,0,0.3-0.2c0.1-0.1,0.3-0.3,0.5-0.5c0.3-0.4,0.6-0.8,0.5-0.9
		c-0.1-0.2-0.8-0.8-1.5-1.4c-0.1-0.1-0.2-0.2-0.3-0.2c0,0,0,0,0,0c0-0.1,0-0.1,0-0.1c0,0,0,0-0.1,0c0,0,0-0.1-0.1-0.2c0,0,0,0,0,0
		c0-0.1-0.1,0-0.1-0.1c0,0,0,0,0,0c-0.1,0-0.1-0.1-0.2-0.1c0,0.1,0,0.1,0,0.1c0.1,0.1,0,0.1,0,0.2c0.1,0.1,0.1,0,0.1,0
		c0.1,0.1,0.1,0.1,0.1,0.2c-0.6-0.5-1.1-0.9-1.4-1c0,0-0.1-0.1-0.2-0.1c-0.1-0.1-0.2-0.1-0.2-0.1s0,0-0.1,0.1c0,0-0.1,0.1-0.2,0.1
		c-0.1,0.1-0.1,0.1-0.2,0.2c-0.1,0.1-0.2,0.1-0.3,0.2c-0.1,0.1-0.2,0.1-0.3,0.2c-0.1,0.1-0.2,0.1-0.2,0.1c-0.1,0-0.1,0.1-0.2,0.1
		c0,0-0.1,0-0.1,0c-0.4,0.2-0.8,0.3-1.1,0.4c-0.4,0.1-0.7,0-0.9,0c-0.4-0.1-0.7-0.1-0.8,0c0,0.1-0.1,0.1,0,0.2c0,0,0,0,0,0
		c-0.2,0-0.3,0.4-0.1,0.4c0.1,0,0.2-0.2,0.2-0.3c0,0,0,0,0,0c0,0,0,0,0,0c-0.1,0.1-0.1,0.3,0,0.3c0.1,0,0.1,0,0.2-0.1
		c0,0.1,0,0.1,0.1,0.1c0,0,0,0.1-0.1,0.1c0,0,0,0,0-0.1c-0.1,0-0.1,0.1-0.2,0.1c0,0-0.1-0.1-0.1-0.1c0,0,0,0,0,0
		c0.1,0.2,0,0.2-0.1,0.2c0,0,0,0.1,0,0.1c0,0-0.1,0-0.1-0.1c-0.1,0-0.1,0-0.2,0c0,0,0-0.1,0-0.1c-0.1,0.1-0.1,0-0.1,0
		c-0.1,0.1-0.1,0-0.2,0c-0.1,0.1,0.1,0.2,0.1,0.2c-0.1,0-0.1,0.1-0.2,0.1c0,0,0,0,0,0c0,0,0,0,0,0c0,0,0,0,0,0c0,0,0,0,0,0
		c0,0,0,0,0,0l0,0c0-0.1-0.1-0.2,0.1-0.3c0,0-0.1,0-0.1-0.1c0.1,0,0.1,0,0.1-0.1c0,0,0-0.1-0.1-0.1c0,0-0.1,0.1-0.1,0.1
		c-0.1-0.1,0.1-0.2,0.2-0.2c0-0.1,0.1-0.1,0.1-0.1c0-0.1,0-0.2,0-0.2c0.1,0,0.1-0.1,0.1-0.2c-0.1,0.1-0.2,0-0.2,0
		c0.1,0,0.1-0.1,0.1-0.1c0.3,0.2,0.5,0.2,0.6,0.1c0.1-0.1,0-0.2-0.2-0.3c-0.2-0.1-0.3-0.2-0.3-0.3c0,0-0.3-0.3-0.7-0.6
		c-0.2-0.2-0.4-0.3-0.5-0.5c-0.2-0.2-0.3-0.3-0.4-0.3c-0.1,0-0.1,0-0.2,0.1c0,0,0,0.1,0.1,0.3c0,0.1,0.1,0.1,0.1,0.2
		c0,0,0.1,0.1,0.1,0.1c0,0-0.1-0.1-0.1-0.1c0,0.1-0.1,0.1,0,0.2c0.3,0,0,0.2,0,0.4c0,0.1,0.1,0,0.1,0.1c-0.1,0-0.1-0.1-0.2-0.1
		c0.1,0,0.1-0.1,0.1-0.1c0,0,0-0.1-0.1-0.1c0,0-0.1,0-0.1,0c0,0,0-0.1,0-0.1c0.2-0.1,0.1-0.2,0.2-0.3c0.1,0,0.1,0,0.1,0
		c0-0.1-0.1-0.1-0.1-0.2c0,0.1-0.1,0.1-0.1,0.2c-0.1,0-0.1,0.1-0.1,0.1c-0.1,0,0-0.1-0.1-0.1c0.1,0,0.1-0.1,0.1-0.1
		c0-0.1,0-0.2,0-0.2c0-0.1-0.1-0.1-0.1-0.2c0,0-0.1,0-0.1,0c0-0.1,0-0.1-0.1-0.1c0,0.1,0,0.1-0.1,0.2c0,0,0.1,0.1,0.1,0.1
		c0,0,0.1,0,0.1,0c0,0.1-0.1,0.2,0,0.3c-0.1,0.1-0.2,0-0.2-0.1c0,0,0,0-0.1,0c0,0.1-0.1,0.1,0,0.1c0,0,0,0-0.1,0.1
		c0,0.1,0.1,0.1,0.1,0.2c0,0,0.1,0,0.1,0c0,0,0,0.1-0.1,0.1c0,0.1,0,0.1,0,0.1c0-0.1,0.2-0.1,0.3-0.1c0,0.1,0,0.1,0.1,0.1
		c0,0.1-0.1,0.1-0.1,0.2c0-0.1-0.1,0-0.1,0c0,0,0.1-0.1,0.1-0.1l0-0.1c-0.1,0.1-0.1,0.1-0.1,0.1c0.1,0.2,0.3,0.3,0.1,0.5
		c-0.1,0-0.1,0-0.2,0c0,0-0.1,0.1,0,0.1c0,0,0-0.1,0-0.1c0,0.1,0,0.1,0.1,0.1c0.1,0,0-0.1,0.1-0.1c0,0.2,0.1,0.3,0.2,0.4
		c0,0,0.1-0.1,0.1-0.1c-0.1,0.1-0.1,0.3-0.1,0.4c-0.2-0.1-0.3-0.3-0.4-0.3c-0.4-0.4-0.8-0.7-1-1c0-0.1-0.1-0.3-0.1-0.4
		c0,0,0-0.1,0.1-0.1c0-0.1-0.1-0.1-0.1-0.3c0,0-0.1,0.1-0.1,0c-0.1-0.1,0.1-0.2,0-0.3c0,0,0.1,0,0.2,0c0,0.1,0.3,0.1,0.2,0.3
		c0.1,0,0.1,0.1,0.1,0.2c0,0,0,0,0.1-0.1c0-0.1,0-0.2,0-0.2c0.1,0,0.1,0.1,0.2,0.1c0-0.1,0.1-0.2,0-0.2c-0.1,0-0.2,0-0.1-0.1
		c0,0,0.1-0.1,0.1,0c0,0,0,0,0,0.1c0.1,0,0-0.1,0.1-0.1c0.1,0,0.1,0,0.1,0.1c0.1,0,0.1,0,0.2-0.1c0,0,0,0,0.1,0
		c-0.2-0.4-0.5-0.7-0.7-1.1c0,0,0,0-0.1-0.1c0,0-0.1,0-0.1,0.1c0,0.1,0.1,0,0.1,0c0,0.1,0,0.1,0,0.3c0,0,0.1,0,0.1,0
		c0,0.1,0,0.1-0.1,0.1c0.1,0.2,0.1,0.4,0.2,0.6c-0.1,0.1-0.1,0.2-0.1,0.2c-0.1,0-0.1,0.1-0.2,0.1c0-0.1,0-0.1,0-0.2
		c-0.1,0-0.1,0-0.1-0.1c0,0,0,0.1-0.1,0.1c0,0,0-0.1-0.1-0.1c-0.1,0,0,0.1-0.1,0.1c0,0,0,0,0-0.1c0-0.1,0.1-0.2,0-0.2
		c-0.1,0-0.1,0-0.1,0c0,0.1-0.2,0-0.2,0.2c0-0.1-0.1-0.1,0-0.2c0,0,0,0,0,0c0.1-0.1,0.1-0.1,0.1-0.1c0,0-0.1,0-0.2,0.1
		c0,0-0.1,0-0.1,0.1c0,0,0-0.1-0.1-0.1c0,0,0,0,0.1,0c0-0.1,0-0.1,0-0.2c0.1-0.1,0.1,0,0.1,0c0-0.1,0-0.1-0.1-0.2
		c0.1-0.1,0.1-0.2,0.2-0.2c0,0,0,0,0,0c-0.1,0.1-0.1,0-0.2,0.1c0,0,0-0.1-0.1,0c0,0,0,0.1,0,0.1c-0.1,0-0.2-0.2,0-0.2
		c0,0.1,0,0.1,0.1,0.1c0-0.1-0.1-0.1-0.1-0.1c-0.1,0-0.2,0-0.2,0c0,0,0.1-0.1,0.1-0.1c0,0,0,0.1,0.1,0c0,0,0-0.1,0-0.1
		c0.1,0,0.1,0,0.1-0.1c0,0-0.1,0-0.1-0.1c-0.1,0.1-0.2,0.1-0.2,0.2c0,0-0.1,0-0.1,0c0,0,0.1,0,0-0.1c-0.1,0-0.1,0.1-0.1,0.1
		c0-0.1,0,0-0.1-0.1c-0.1,0.1-0.1,0.2-0.1,0.3c0,0,0,0,0.1-0.1c0.1,0,0,0,0.1,0.1c0.1,0,0.1,0,0.2,0c0,0.1,0,0.1,0,0.2
		c-0.1,0-0.1,0.1-0.1,0.1c0,0.1,0,0.1,0,0.1c0.1,0,0.1,0.1,0.1,0.2c0.1,0,0.1,0.2,0.1,0.3c-0.1-0.1-0.3-0.2-0.2-0.4
		c0.1-0.1,0-0.2-0.3-0.3c-0.3-0.1-0.3-0.1-0.1-0.3c0.3-0.3,0.2-0.4-0.3-0.3c-0.5,0.1-0.6,0-0.2-0.1c0.2,0,0.4-0.1,0.4-0.2
		c0,0-0.1,0-0.3,0.1c-0.5,0.2-0.6,0-0.1-0.2c0.3-0.2,0.3-0.2,0.2-0.5c-0.1-0.2-0.1-0.4,0-0.5c0,0,0,0,0-0.1c0,0,0,0,0.1,0
		c0,0.1-0.1,0.1-0.1,0.2c0.1,0,0,0.1,0.1,0.2c0,0,0.1,0,0.1,0c0,0.1,0,0,0,0.1c0,0,0.1-0.1,0.1,0c-0.1,0.1-0.1,0.2,0,0.3
		c0,0,0-0.1,0-0.1c0,0,0.1,0,0.1,0c0,0.1,0,0.2,0,0.2c0,0-0.1,0.1-0.1,0.2c0,0,0,0,0.1,0c0,0.1,0,0.3,0.1,0.4c0.1,0,0.1-0.1,0.1-0.1
		c-0.1,0.1-0.1,0.1-0.1,0.2c0,0,0.1,0,0.1,0c-0.1,0.1,0.1,0,0.1,0.1c0.1-0.1,0.1-0.1,0.1-0.2c0.1,0,0.1,0.2,0.2,0.2
		c0.1-0.1-0.1-0.2,0-0.3c0,0,0,0-0.1,0c0,0,0-0.1,0-0.1c0,0,0.1,0,0.1,0c0.1-0.1,0.1-0.3,0.2-0.4c0,0,0,0,0,0.1
		c0.2-0.1-0.1-0.1,0-0.2c0,0.1,0.1,0,0.1,0c0,0.1,0,0.1,0.1,0.1c0,0-0.1,0,0,0.1c0,0,0.1,0,0.1,0c0,0.1,0.1,0.2,0.2,0.3
		c0.2,0.1,0.4,0.2,0.4,0.1c0.1-0.3-0.2-0.9-0.5-0.8c0,0,0,0,0,0c0-0.1-0.1-0.3-0.1-0.4c0,0,0,0-0.1,0c0,0.1,0,0.1,0,0.2
		c-0.1,0-0.1,0.1-0.1,0.1c0,0-0.1,0,0-0.1c-0.1,0.1-0.1,0.2-0.2,0.3c0,0,0-0.1,0-0.1c-0.1,0-0.1-0.1-0.1-0.1c0,0,0,0.1-0.1,0.1
		c0.1,0,0.1,0.1,0.2,0.2c-0.1,0,0,0.1,0,0.1c0,0,0.1-0.1,0.2,0c-0.1,0.1-0.1,0.1-0.1,0.2c0,0-0.1,0-0.1,0c0,0,0-0.1,0-0.1
		c0,0,0,0,0,0c-0.1,0.1-0.1,0.1-0.1,0.1c-0.1-0.1-0.2-0.1-0.1-0.2c0,0-0.1,0,0-0.1c0,0-0.1,0-0.1,0c0-0.1,0.1-0.1,0.1-0.2
		c0.1,0,0.1-0.1,0.1,0c0.1-0.1,0-0.1,0.1-0.1c0-0.1-0.1,0-0.1,0c0,0,0,0-0.1,0.1c0-0.1-0.1,0-0.1-0.1c-0.1,0.1-0.1,0-0.2,0
		c0-0.1,0.1-0.2,0.2-0.1c0.1-0.1,0-0.2,0-0.3c0,0-0.1,0-0.1,0c-0.1,0.1-0.1,0-0.2,0c0-0.1,0-0.1-0.1-0.2c0-0.1,0.1,0,0.1,0
		c0,0,0-0.1,0-0.1c0,0,0.1,0,0.1,0.1c0,0,0,0,0.1-0.1c0,0,0.1,0.1,0,0.1c0,0,0.2-0.1,0.2,0c0.1-0.1,0-0.2-0.1-0.2
		c0-0.1-0.1-0.4-0.2-0.4c0-0.1,0-0.2,0-0.2c0.1,0,0.1,0,0.2,0.1c0,0-0.1,0.1-0.1,0.1c0,0,0,0,0.1,0c0,0.1,0,0.2,0.1,0.2
		c-0.1,0.1,0.1,0.1,0.1,0.3c0,0,0-0.1,0.1-0.1c0-0.1,0-0.2-0.1-0.2c0-0.1,0-0.1,0.1-0.1c0,0.1,0.1,0.1,0.1,0c0.1,0.1,0,0.2,0.1,0.3
		c0,0,0,0.1-0.1,0.1c0,0.1,0,0.1,0.1,0.2c0.1,0,0.1-0.1,0.1-0.1c0.1,0,0.1,0.1,0,0.2c0,0,0.1,0,0.1,0c0-0.1-0.1-0.3-0.1-0.4
		c0,0,0,0,0,0c0,0,0,0,0-0.1c-0.1-0.4-0.2-0.8-0.2-1.2c0.1-0.1,0.1-0.2,0-0.2c0-0.1,0-0.2,0-0.3c0,0,0,0,0,0c0-0.1-0.1-0.1-0.1-0.1
		c0,0,0,0,0.1,0c0,0,0,0,0-0.1c0,0,0-0.1,0-0.1c0-0.1,0-0.1-0.1-0.1c0,0,0,0,0-0.1c0,0,0,0,0,0.1c0,0,0,0-0.1,0c0,0-0.1-0.1-0.1,0
		c0,0-0.1-0.1,0-0.2c0,0.1,0.1,0.1,0.2,0.1c0,0,0,0,0,0c0,0,0,0,0-0.1c0-0.2,0-0.3-0.1-0.5c-0.1,0-0.1-0.1-0.1-0.1c0,0,0,0,0.1,0.1
		c0,0,0,0,0,0c-0.1-0.3-0.1-0.5-0.2-0.8c0,0,0,0,0,0.1c0,0,0,0,0,0c0,0,0,0,0,0.1l-0.1,0c0-0.1-0.1-0.1-0.1-0.1
		c0.1,0,0.1-0.1,0.2-0.1c-0.1-0.3-0.1-0.6-0.1-0.9c0,0,0,0,0,0c0.1,0,0.1-0.4,0.1-0.9c0-0.5-0.1-1.1-0.2-1.6c0-0.3-0.1-0.7-0.1-0.9
		c0-0.3,0-0.6,0-0.9c5.5-0.7,11.2-1.4,11.8-1.5c1.2-0.1,2.7-0.3,4.2-0.8c0.7-0.2,1.3-0.4,1.4-0.4c0.1,0.1,0.5-0.1,0.9-0.5
		c0.1-0.1,0.2-0.2,0.3-0.3c0.1-0.1,0.2-0.2,0.2-0.3c0.1-0.2,0.2-0.3,0.2-0.4C174.1,182.3,173.4,181.8,172.7,181.1"/>
	<path class="st9" d="M155.9,198.8c0,0.1,0.1,0.1,0.1,0C156,198.7,156,198.7,155.9,198.8C155.9,198.7,155.9,198.7,155.9,198.8"/>
	<path class="st9" d="M157.9,199.1c-0.1-0.1-0.1-0.1-0.2,0.1c-0.1,0.2-0.1,0.2,0.1,0.1C158,199.3,158,199.2,157.9,199.1"/>
	<path class="st9" d="M157.2,198.3c-0.1,0.1-0.1,0.2,0,0.4c0.1,0.1,0.3,0.2,0.4,0.1c0.1-0.1,0.1-0.2-0.1-0.4
		C157.5,198.2,157.3,198.2,157.2,198.3"/>
	<path class="st9" d="M156,196.1c0,0.1,0.1,0.1,0.1,0c0.1,0,0.1-0.1,0-0.1C156,196.1,156,196.1,156,196.1"/>
	<path class="st9" d="M157,197.9c0,0.1,0.1,0.1,0.1,0C157.1,197.8,157.1,197.8,157,197.9C157,197.7,157,197.8,157,197.9"/>
</g>
</svg>
