<?xml version="1.0" encoding="utf-8"?>
<!-- Generator: Adobe Illustrator 24.0.0, SVG Export Plug-In . SVG Version: 6.00 Build 0)  -->
<svg version="1.1" id="Laag_1" xmlns="http://www.w3.org/2000/svg" xmlns:xlink="http://www.w3.org/1999/xlink" x="0px" y="0px"
	 width="149.6px" height="71.5px" viewBox="0 0 149.6 71.5" style="enable-background:new 0 0 149.6 71.5;" xml:space="preserve">
<style type="text/css">
	.st0{fill:#FFFFFF;}
</style>
<g>
	<path class="st0" d="M0.4,0.7H9c0.9,0,1.7,0.1,2.5,0.3c0.8,0.2,1.4,0.6,2,1s1,1,1.3,1.6s0.5,1.4,0.5,2.2c0,1-0.3,1.9-0.8,2.7
		c-0.5,0.7-1.3,1.3-2.3,1.6v0.1c0.8,0.3,1.4,0.7,1.8,1.2c0.4,0.5,0.7,1.2,0.8,2.1c0.1,0.6,0.2,1.2,0.2,1.7c0,0.6,0.1,1.1,0.1,1.5
		c0,0.4,0.1,0.8,0.2,1.1s0.2,0.5,0.3,0.5v0.2h-4.3c-0.1-0.1-0.2-0.2-0.3-0.5c-0.1-0.3-0.1-0.6-0.2-1s-0.1-0.8-0.1-1.3
		c0-0.5-0.1-0.9-0.2-1.4c-0.1-0.8-0.4-1.5-0.9-1.9s-1.2-0.7-2.1-0.7H4.8v6.7H0.4V0.7z M8.2,8.6c0.9,0,1.5-0.2,2-0.6
		c0.4-0.4,0.7-0.9,0.7-1.6c0-0.6-0.2-1.2-0.6-1.6C9.8,4.4,9.1,4.2,8.3,4.2H4.8v4.4H8.2z"/>
	<path class="st0" d="M23.1,18.9c-1,0-2-0.2-2.8-0.5c-0.8-0.3-1.6-0.8-2.2-1.4c-0.6-0.6-1.1-1.3-1.4-2.2s-0.5-1.7-0.5-2.7
		s0.2-1.9,0.5-2.7s0.8-1.5,1.4-2.2c0.6-0.6,1.3-1.1,2.2-1.4c0.8-0.3,1.8-0.5,2.8-0.5s2,0.2,2.8,0.5c0.8,0.3,1.6,0.8,2.2,1.4
		c0.6,0.6,1,1.3,1.4,2.2s0.5,1.7,0.5,2.7s-0.2,1.9-0.5,2.7s-0.8,1.5-1.4,2.2c-0.6,0.6-1.3,1.1-2.2,1.4
		C25.1,18.8,24.2,18.9,23.1,18.9z M23.1,16c0.9,0,1.6-0.4,2-1.1c0.5-0.7,0.7-1.6,0.7-2.8c0-1.2-0.2-2.1-0.7-2.8
		c-0.5-0.7-1.1-1.1-2-1.1c-0.9,0-1.6,0.4-2,1.1c-0.5,0.7-0.7,1.7-0.7,2.8c0,1.2,0.2,2.1,0.7,2.8C21.5,15.7,22.2,16,23.1,16z"/>
	<path class="st0" d="M36.1,18.7c-0.6,0-1.1-0.1-1.6-0.2c-0.5-0.1-0.9-0.3-1.3-0.6s-0.6-0.6-0.8-1.1c-0.2-0.5-0.3-1-0.3-1.7V8.3
		h-1.7V5.7h1.7v-4h4v4h2.3v2.5H36v6c0,0.5,0.1,0.8,0.4,1c0.3,0.2,0.6,0.2,1,0.2c0.2,0,0.4,0,0.5,0c0.2,0,0.3,0,0.4,0v3
		c-0.2,0-0.5,0.1-0.8,0.1C37.2,18.7,36.7,18.7,36.1,18.7z"/>
	<path class="st0" d="M39.8,0.7h4.1v6.7H44c0.5-0.6,1-1.1,1.6-1.4c0.6-0.3,1.3-0.5,2.2-0.5c0.7,0,1.3,0.1,1.9,0.4
		c0.6,0.2,1,0.6,1.4,1c0.4,0.4,0.7,0.9,0.9,1.5s0.3,1.2,0.3,2v8.3h-4.1V11c0-0.7-0.2-1.2-0.5-1.7c-0.3-0.4-0.8-0.6-1.5-0.6
		c-0.7,0-1.2,0.2-1.6,0.8c-0.4,0.5-0.6,1.2-0.6,2v7.1h-4.1V0.7z"/>
	<path class="st0" d="M54.1,0.7h4v9.4l3.8-4.3h4.7l-4.5,4.8l5,8h-4.7l-3.1-5.2l-1.2,1.3v3.9h-4V0.7z"/>
	<path class="st0" d="M73.4,18.9c-1,0-2-0.2-2.8-0.5c-0.8-0.3-1.6-0.8-2.2-1.4c-0.6-0.6-1.1-1.3-1.4-2.2s-0.5-1.7-0.5-2.7
		s0.2-1.9,0.5-2.7s0.8-1.5,1.4-2.2c0.6-0.6,1.3-1.1,2.2-1.4c0.8-0.3,1.8-0.5,2.8-0.5s2,0.2,2.8,0.5c0.8,0.3,1.6,0.8,2.2,1.4
		c0.6,0.6,1,1.3,1.4,2.2s0.5,1.7,0.5,2.7s-0.2,1.9-0.5,2.7s-0.8,1.5-1.4,2.2c-0.6,0.6-1.3,1.1-2.2,1.4
		C75.4,18.8,74.4,18.9,73.4,18.9z M73.4,16c0.9,0,1.6-0.4,2-1.1c0.5-0.7,0.7-1.6,0.7-2.8c0-1.2-0.2-2.1-0.7-2.8
		c-0.5-0.7-1.1-1.1-2-1.1c-0.9,0-1.6,0.4-2,1.1c-0.5,0.7-0.7,1.7-0.7,2.8c0,1.2,0.2,2.1,0.7,2.8C71.8,15.7,72.5,16,73.4,16z"/>
</g>
<g>
	<path class="st0" d="M6.1,48.8c-1,0-1.9-0.1-2.7-0.4c-0.8-0.3-1.5-0.6-2-1.1c-0.5-0.5-0.9-1-1.2-1.7c-0.3-0.6-0.4-1.3-0.4-2.1
		c0-0.7,0.1-1.3,0.3-1.8c0.2-0.5,0.5-1,0.8-1.4c0.3-0.4,0.8-0.8,1.2-1.1s1-0.6,1.5-0.9c-0.4-0.5-0.8-1-1-1.6
		c-0.2-0.5-0.4-1.2-0.4-1.9c0-0.6,0.1-1.2,0.4-1.7c0.2-0.5,0.6-1,1-1.4c0.4-0.4,1-0.7,1.6-0.9c0.6-0.2,1.3-0.3,2.1-0.3
		c0.7,0,1.4,0.1,2,0.3c0.6,0.2,1.2,0.5,1.6,0.9s0.8,0.8,1,1.3c0.2,0.5,0.4,1.1,0.4,1.8c0,0.5-0.1,1-0.3,1.5
		c-0.2,0.4-0.4,0.8-0.7,1.2c-0.3,0.3-0.7,0.6-1.1,0.9c-0.4,0.3-0.8,0.5-1.3,0.7l2.1,2.7c0.2-0.3,0.3-0.7,0.4-1.1
		c0.1-0.4,0.2-0.8,0.3-1.2h3.5c-0.1,0.9-0.3,1.7-0.6,2.6c-0.3,0.9-0.8,1.7-1.3,2.5l3.1,3.8h-5l-0.9-1.1c-0.7,0.4-1.4,0.8-2.2,1
		C7.8,48.7,6.9,48.8,6.1,48.8z M6.3,45.6c0.9,0,1.7-0.3,2.4-0.8l-3-3.9c-0.6,0.4-1.1,0.8-1.3,1.2C4.1,42.5,4,43,4,43.5
		c0,0.6,0.2,1.1,0.6,1.5S5.6,45.6,6.3,45.6z M7.3,37c0.5-0.3,0.9-0.6,1.1-1s0.3-0.7,0.3-1.2c0-0.4-0.1-0.7-0.4-1s-0.6-0.4-1-0.4
		c-0.4,0-0.7,0.1-1,0.4c-0.2,0.3-0.4,0.6-0.4,1c0,0.4,0.1,0.8,0.4,1.1C6.7,36.4,7,36.7,7.3,37z"/>
	<path class="st0" d="M21.7,30.7h4.4v6.8h6.3v-6.8h4.4v17.9h-4.4v-7.5h-6.3v7.5h-4.4V30.7z"/>
	<path class="st0" d="M42.8,48.9c-0.6,0-1.2-0.1-1.8-0.2c-0.5-0.2-1-0.4-1.4-0.8s-0.7-0.7-0.9-1.2c-0.2-0.5-0.3-1-0.3-1.7
		c0-0.7,0.1-1.3,0.4-1.8c0.3-0.5,0.6-0.9,1.1-1.2c0.4-0.3,1-0.5,1.6-0.7c0.6-0.2,1.2-0.3,1.9-0.4c1.2-0.2,2-0.3,2.5-0.5
		s0.7-0.5,0.7-0.9c0-0.4-0.1-0.8-0.4-1s-0.7-0.4-1.3-0.4c-0.6,0-1.1,0.1-1.5,0.4c-0.3,0.3-0.5,0.7-0.6,1.2H39c0-0.6,0.1-1.2,0.4-1.7
		c0.2-0.5,0.6-1,1.1-1.4c0.5-0.4,1.1-0.7,1.8-1s1.6-0.4,2.5-0.4c1,0,1.8,0.1,2.5,0.3c0.7,0.2,1.2,0.4,1.7,0.8c0.6,0.4,1,0.9,1.2,1.5
		c0.3,0.6,0.4,1.3,0.4,2.1v6.5c0,0.5,0,0.9,0.1,1.2c0.1,0.3,0.2,0.5,0.4,0.6v0.2h-4c-0.1-0.1-0.2-0.3-0.2-0.6
		c-0.1-0.2-0.1-0.5-0.2-0.9h0c-0.4,0.5-0.9,1-1.5,1.3S43.8,48.9,42.8,48.9z M44.1,46.3c0.8,0,1.4-0.2,1.9-0.6c0.5-0.4,0.7-1,0.7-1.7
		v-1.5c-0.3,0.1-0.6,0.3-0.9,0.4S45,43,44.6,43.1c-0.8,0.2-1.3,0.4-1.7,0.6c-0.4,0.2-0.5,0.6-0.5,1.1c0,0.5,0.2,0.9,0.5,1.1
		C43.2,46.2,43.6,46.3,44.1,46.3z"/>
	<path class="st0" d="M52.6,30.7h4.1v17.9h-4.1V30.7z"/>
	<path class="st0" d="M58.7,30.7h4.1V34h-4.1V30.7z M58.7,35.7h4.1v12.8h-4.1V35.7z"/>
	<path class="st0" d="M64.7,30.7h4.1v17.9h-4.1V30.7z"/>
</g>
<g>
	<path class="st0" d="M-0.2,59.4c0-0.5,0.1-0.9,0.4-1.2c0.2-0.3,0.5-0.4,0.9-0.5v0.6c-0.2,0.1-0.3,0.2-0.4,0.4
		c-0.1,0.2-0.2,0.4-0.2,0.7h0.6v1.5h-1.3V59.4z M2.1,59.4c0-0.5,0.1-0.9,0.4-1.2s0.5-0.4,0.9-0.5v0.6c-0.2,0.1-0.3,0.2-0.4,0.4
		c-0.1,0.2-0.2,0.4-0.2,0.7h0.6v1.5H2.1V59.4z"/>
	<path class="st0" d="M5,57.8h1.4v4.6h5.7v-4.6h1.4v10.7h-1.4v-5.1H6.3v5.1H5V57.8z"/>
	<path class="st0" d="M18.6,68.8c-0.6,0-1.1-0.1-1.6-0.3c-0.5-0.2-0.9-0.5-1.2-0.9c-0.3-0.4-0.6-0.8-0.7-1.3c-0.2-0.5-0.3-1-0.3-1.6
		c0-0.6,0.1-1.1,0.3-1.6s0.4-0.9,0.8-1.3s0.7-0.7,1.2-0.9c0.5-0.2,1-0.3,1.5-0.3c0.6,0,1.1,0.1,1.5,0.3c0.4,0.2,0.8,0.5,1.1,0.9
		s0.5,0.8,0.7,1.4s0.2,1.1,0.2,1.8h-6c0,0.4,0.1,0.8,0.2,1.1s0.3,0.6,0.5,0.9c0.2,0.3,0.5,0.4,0.8,0.6c0.3,0.1,0.6,0.2,1,0.2
		c0.6,0,1-0.1,1.4-0.4c0.4-0.3,0.6-0.7,0.8-1.2h1.2c-0.2,0.8-0.6,1.5-1.1,1.9C20.2,68.5,19.5,68.8,18.6,68.8z M18.5,61.6
		c-0.4,0-0.7,0.1-1,0.2S17,62,16.8,62.3c-0.2,0.2-0.4,0.5-0.5,0.8s-0.2,0.6-0.2,1h4.7c0-0.8-0.3-1.4-0.6-1.8
		C19.7,61.8,19.2,61.6,18.5,61.6z"/>
	<path class="st0" d="M22.6,60.8h1.1v-2.4H25v2.4h1.5v1H25v5c0,0.3,0.1,0.5,0.2,0.6c0.1,0.1,0.3,0.2,0.6,0.2c0.1,0,0.2,0,0.4,0
		c0.1,0,0.2,0,0.3-0.1h0v1.1c-0.1,0-0.3,0.1-0.5,0.1c-0.2,0-0.3,0-0.5,0c-0.5,0-0.9-0.1-1.2-0.3c-0.3-0.2-0.5-0.6-0.5-1.2v-5.3h-1.1
		V60.8z"/>
	<path class="st0" d="M33.2,71.1c-1,0-1.8-0.2-2.3-0.6S30,69.7,29.9,69H31c0.1,0.4,0.3,0.7,0.7,0.9c0.4,0.2,0.9,0.3,1.5,0.3
		c0.7,0,1.3-0.2,1.7-0.5c0.4-0.3,0.6-0.8,0.6-1.5v-1.1h0c-0.3,0.4-0.6,0.7-0.9,0.9c-0.3,0.2-0.8,0.3-1.4,0.3c-0.5,0-1-0.1-1.4-0.3
		c-0.4-0.2-0.8-0.5-1.1-0.8s-0.5-0.7-0.7-1.2c-0.2-0.5-0.2-1-0.2-1.5c0-0.6,0.1-1.1,0.3-1.6c0.2-0.5,0.4-0.9,0.7-1.2
		s0.7-0.6,1.1-0.8s0.8-0.3,1.3-0.3c0.6,0,1,0.1,1.4,0.3c0.4,0.2,0.7,0.5,1,0.9h0v-1h1.2v7.3c0,0.5-0.1,1-0.2,1.3
		c-0.2,0.4-0.4,0.7-0.7,0.9s-0.7,0.4-1.1,0.6C34.2,71.1,33.7,71.1,33.2,71.1z M33.1,67.3c0.5,0,0.8-0.1,1.1-0.2
		c0.3-0.1,0.5-0.3,0.7-0.6c0.2-0.3,0.3-0.6,0.4-0.9c0.1-0.3,0.1-0.7,0.1-1.1c0-0.8-0.2-1.5-0.6-2s-1-0.7-1.8-0.7
		c-0.7,0-1.3,0.3-1.6,0.8c-0.4,0.5-0.5,1.2-0.5,2c0,0.8,0.2,1.5,0.6,2C31.9,67,32.4,67.3,33.1,67.3z"/>
	<path class="st0" d="M44.3,68.6c-0.8,0-1.2-0.4-1.3-1.2h0c-0.1,0.2-0.3,0.3-0.4,0.4c-0.2,0.1-0.3,0.3-0.6,0.4s-0.4,0.2-0.7,0.3
		c-0.3,0.1-0.6,0.1-0.9,0.1c-0.4,0-0.7,0-1-0.1s-0.6-0.2-0.8-0.4c-0.2-0.2-0.4-0.4-0.6-0.7c-0.1-0.3-0.2-0.6-0.2-1
		c0-0.5,0.1-0.8,0.3-1.1s0.4-0.5,0.7-0.7s0.7-0.3,1.1-0.4c0.4-0.1,0.9-0.2,1.3-0.3c0.3,0,0.5-0.1,0.8-0.1c0.2,0,0.4-0.1,0.6-0.2
		s0.3-0.2,0.4-0.3s0.1-0.3,0.1-0.5c0-0.4-0.2-0.8-0.5-1c-0.3-0.2-0.7-0.4-1.3-0.4c-0.6,0-1.1,0.1-1.4,0.4c-0.3,0.3-0.5,0.7-0.5,1.3
		h-1.2c0-0.4,0.1-0.7,0.2-1s0.3-0.6,0.6-0.8c0.3-0.2,0.6-0.4,1-0.5c0.4-0.1,0.8-0.2,1.3-0.2c0.4,0,0.8,0,1.1,0.1
		c0.3,0.1,0.7,0.2,0.9,0.4c0.3,0.2,0.5,0.4,0.6,0.8c0.1,0.3,0.2,0.7,0.2,1.2v3.7c0,0.3,0.1,0.6,0.2,0.7c0.1,0.2,0.3,0.2,0.7,0.1h0
		v0.9c-0.1,0-0.2,0.1-0.3,0.1C44.6,68.6,44.5,68.6,44.3,68.6z M40.7,67.8c0.4,0,0.8-0.1,1.1-0.2c0.3-0.1,0.5-0.3,0.7-0.5
		c0.2-0.2,0.3-0.4,0.4-0.7s0.1-0.5,0.1-0.7v-1.3c-0.2,0.1-0.5,0.2-0.8,0.3c-0.3,0.1-0.7,0.2-1,0.2c-0.3,0.1-0.6,0.1-0.9,0.2
		c-0.3,0.1-0.5,0.1-0.7,0.3c-0.2,0.1-0.4,0.3-0.5,0.4c-0.1,0.2-0.2,0.4-0.2,0.7c0,0.3,0,0.5,0.1,0.6c0.1,0.2,0.2,0.3,0.4,0.4
		c0.2,0.1,0.3,0.2,0.5,0.2C40.3,67.7,40.5,67.8,40.7,67.8z"/>
	<path class="st0" d="M45.3,60.8h1.1v-1.2c0-0.7,0.2-1.1,0.5-1.4c0.4-0.3,0.9-0.4,1.5-0.4c0.1,0,0.2,0,0.3,0c0.1,0,0.2,0,0.3,0v1
		c-0.1,0-0.2,0-0.2,0s-0.1,0-0.2,0c-0.4,0-0.7,0.1-0.8,0.2c-0.2,0.1-0.2,0.3-0.2,0.7v1.2h1.4v1h-1.4v6.8h-1.2v-6.8h-1.1V60.8z"/>
	<path class="st0" d="M52.6,60.8h1.2v1.1h0c0.2-0.4,0.6-0.7,1-0.9c0.4-0.2,0.8-0.4,1.3-0.4c0.5,0,0.9,0.1,1.2,0.4
		c0.3,0.2,0.6,0.6,0.8,1h0c0.2-0.5,0.6-0.8,1-1c0.4-0.2,0.9-0.4,1.4-0.4c0.7,0,1.3,0.2,1.7,0.6c0.4,0.4,0.7,1,0.7,1.9v5.4h-1.2v-5.4
		c0-0.5-0.1-0.9-0.4-1.1c-0.3-0.3-0.6-0.4-1-0.4c-0.2,0-0.5,0.1-0.7,0.2c-0.2,0.1-0.4,0.2-0.6,0.4c-0.2,0.2-0.3,0.4-0.4,0.7
		c-0.1,0.3-0.2,0.5-0.2,0.8v4.8h-1.2v-5.4c0-0.5-0.1-0.9-0.4-1.1c-0.2-0.3-0.6-0.4-1-0.4c-0.2,0-0.5,0.1-0.7,0.2
		c-0.2,0.1-0.4,0.2-0.6,0.4c-0.2,0.2-0.3,0.4-0.5,0.7c-0.1,0.3-0.2,0.5-0.2,0.8v4.8h-1.2V60.8z"/>
	<path class="st0" d="M67.9,68.8c-0.6,0-1.1-0.1-1.6-0.3s-0.9-0.5-1.2-0.9c-0.3-0.4-0.6-0.8-0.7-1.3c-0.2-0.5-0.3-1-0.3-1.6
		c0-0.6,0.1-1.1,0.3-1.6s0.4-0.9,0.8-1.3c0.3-0.4,0.7-0.7,1.2-0.9c0.5-0.2,1-0.3,1.5-0.3c0.6,0,1.1,0.1,1.5,0.3
		c0.4,0.2,0.8,0.5,1.1,0.9c0.3,0.4,0.5,0.8,0.7,1.4c0.2,0.5,0.2,1.1,0.2,1.8h-6c0,0.4,0.1,0.8,0.2,1.1c0.1,0.3,0.3,0.6,0.5,0.9
		c0.2,0.3,0.5,0.4,0.8,0.6c0.3,0.1,0.6,0.2,1,0.2c0.6,0,1-0.1,1.4-0.4c0.4-0.3,0.6-0.7,0.8-1.2h1.2c-0.2,0.8-0.6,1.5-1.1,1.9
		S68.7,68.8,67.9,68.8z M67.8,61.6c-0.4,0-0.7,0.1-1,0.2c-0.3,0.1-0.5,0.3-0.7,0.5c-0.2,0.2-0.4,0.5-0.5,0.8c-0.1,0.3-0.2,0.6-0.2,1
		h4.7c0-0.8-0.3-1.4-0.6-1.8C69,61.8,68.5,61.6,67.8,61.6z"/>
	<path class="st0" d="M74.2,60.8h1.3l1.4,4.8c0,0.2,0.1,0.3,0.1,0.5c0,0.2,0.1,0.4,0.1,0.5c0,0.2,0.1,0.4,0.1,0.6h0
		c0-0.2,0.1-0.4,0.1-0.6c0-0.2,0.1-0.3,0.1-0.5c0-0.2,0.1-0.4,0.1-0.5l1.3-4.8h1.3l1.3,4.8c0,0.2,0.1,0.3,0.1,0.5
		c0,0.2,0.1,0.4,0.1,0.5c0,0.2,0.1,0.4,0.1,0.6h0c0-0.2,0.1-0.4,0.2-0.6c0-0.2,0.1-0.4,0.1-0.5c0-0.2,0.1-0.4,0.1-0.5l1.4-4.8h1.3
		l-2.5,7.8h-1.2L80,63.9c0-0.2-0.1-0.3-0.1-0.5c0-0.2-0.1-0.4-0.1-0.5c0-0.2-0.1-0.4-0.1-0.6h0c0,0.2-0.1,0.4-0.1,0.6
		c0,0.2-0.1,0.3-0.1,0.5c0,0.2-0.1,0.4-0.1,0.5l-1.3,4.7h-1.3L74.2,60.8z"/>
	<path class="st0" d="M89.1,68.8c-0.6,0-1.1-0.1-1.6-0.3c-0.5-0.2-0.9-0.5-1.2-0.9c-0.3-0.4-0.6-0.8-0.7-1.3c-0.2-0.5-0.3-1-0.3-1.6
		c0-0.6,0.1-1.1,0.3-1.6s0.4-0.9,0.8-1.3s0.7-0.7,1.2-0.9c0.5-0.2,1-0.3,1.5-0.3c0.6,0,1.1,0.1,1.5,0.3c0.4,0.2,0.8,0.5,1.1,0.9
		s0.5,0.8,0.7,1.4s0.2,1.1,0.2,1.8h-6c0,0.4,0.1,0.8,0.2,1.1s0.3,0.6,0.5,0.9c0.2,0.3,0.5,0.4,0.8,0.6c0.3,0.1,0.6,0.2,1,0.2
		c0.6,0,1-0.1,1.4-0.4c0.4-0.3,0.6-0.7,0.8-1.2h1.2c-0.2,0.8-0.6,1.5-1.1,1.9C90.7,68.5,90,68.8,89.1,68.8z M89,61.6
		c-0.4,0-0.7,0.1-1,0.2s-0.5,0.3-0.7,0.5c-0.2,0.2-0.4,0.5-0.5,0.8s-0.2,0.6-0.2,1h4.7c0-0.8-0.3-1.4-0.6-1.8
		C90.3,61.8,89.7,61.6,89,61.6z"/>
	<path class="st0" d="M97.1,68.8c-0.6,0-1.1-0.1-1.6-0.3s-0.9-0.5-1.2-0.9c-0.3-0.4-0.6-0.8-0.7-1.3c-0.2-0.5-0.3-1-0.3-1.6
		c0-0.6,0.1-1.1,0.3-1.6s0.4-0.9,0.8-1.3c0.3-0.4,0.7-0.7,1.2-0.9c0.5-0.2,1-0.3,1.5-0.3c0.6,0,1.1,0.1,1.5,0.3
		c0.4,0.2,0.8,0.5,1.1,0.9c0.3,0.4,0.5,0.8,0.7,1.4c0.2,0.5,0.2,1.1,0.2,1.8h-6c0,0.4,0.1,0.8,0.2,1.1c0.1,0.3,0.3,0.6,0.5,0.9
		c0.2,0.3,0.5,0.4,0.8,0.6c0.3,0.1,0.6,0.2,1,0.2c0.6,0,1-0.1,1.4-0.4c0.4-0.3,0.6-0.7,0.8-1.2h1.2c-0.2,0.8-0.6,1.5-1.1,1.9
		S98,68.8,97.1,68.8z M97,61.6c-0.4,0-0.7,0.1-1,0.2c-0.3,0.1-0.5,0.3-0.7,0.5c-0.2,0.2-0.4,0.5-0.5,0.8c-0.1,0.3-0.2,0.6-0.2,1h4.7
		c0-0.8-0.3-1.4-0.6-1.8C98.3,61.8,97.7,61.6,97,61.6z"/>
	<path class="st0" d="M103,62.1L103,62.1c0.3-0.4,0.6-0.7,1-1c0.4-0.3,0.9-0.4,1.4-0.4c0.1,0,0.2,0,0.3,0c0.1,0,0.1,0,0.2,0.1V62h0
		c-0.1,0-0.2,0-0.2-0.1c-0.1,0-0.2,0-0.3,0c-0.3,0-0.6,0.1-0.9,0.2c-0.3,0.1-0.5,0.3-0.7,0.5c-0.2,0.2-0.4,0.4-0.5,0.7
		s-0.2,0.6-0.2,1v4.3h-1.2v-7.8h1.2V62.1z"/>
	<path class="st0" d="M110.5,61.8L110.5,61.8c0.3-0.4,0.6-0.7,1-0.9c0.4-0.2,0.9-0.3,1.4-0.3c0.8,0,1.4,0.2,1.9,0.6
		c0.5,0.4,0.7,1,0.7,1.9v5.4h-1.2v-5.3c0-0.5-0.2-0.9-0.5-1.2c-0.3-0.3-0.7-0.4-1.3-0.4c-0.3,0-0.6,0.1-0.9,0.2
		c-0.3,0.1-0.5,0.2-0.7,0.4c-0.2,0.2-0.3,0.4-0.4,0.7c-0.1,0.3-0.2,0.6-0.2,0.9v4.8h-1.2V57.8h1.2V61.8z"/>
	<path class="st0" d="M120.5,68.8c-0.6,0-1.1-0.1-1.6-0.3s-0.9-0.5-1.2-0.9c-0.3-0.4-0.6-0.8-0.8-1.3c-0.2-0.5-0.3-1-0.3-1.6
		c0-0.6,0.1-1.1,0.3-1.6s0.4-0.9,0.8-1.3c0.3-0.4,0.7-0.7,1.2-0.9c0.5-0.2,1-0.3,1.6-0.3c0.6,0,1.1,0.1,1.6,0.3
		c0.5,0.2,0.9,0.5,1.2,0.9c0.3,0.4,0.6,0.8,0.7,1.3s0.3,1,0.3,1.6c0,0.6-0.1,1.1-0.3,1.6c-0.2,0.5-0.4,0.9-0.7,1.3
		c-0.3,0.4-0.7,0.7-1.2,0.9S121.1,68.8,120.5,68.8z M120.5,67.7c0.4,0,0.8-0.1,1.1-0.2c0.3-0.2,0.6-0.4,0.8-0.7
		c0.2-0.3,0.4-0.6,0.5-1c0.1-0.4,0.2-0.8,0.2-1.2c0-0.4-0.1-0.8-0.2-1.2c-0.1-0.4-0.3-0.7-0.5-1s-0.5-0.5-0.8-0.7
		c-0.3-0.2-0.7-0.2-1.1-0.2c-0.4,0-0.8,0.1-1.1,0.2s-0.6,0.4-0.8,0.7s-0.4,0.6-0.5,1c-0.1,0.4-0.2,0.8-0.2,1.2
		c0,0.4,0.1,0.8,0.2,1.2c0.1,0.4,0.3,0.7,0.5,1c0.2,0.3,0.5,0.5,0.8,0.7S120.1,67.7,120.5,67.7z"/>
	<path class="st0" d="M128.8,68.8c-0.6,0-1.1-0.1-1.6-0.3s-0.9-0.5-1.2-0.9c-0.3-0.4-0.6-0.8-0.8-1.3c-0.2-0.5-0.3-1-0.3-1.6
		c0-0.6,0.1-1.1,0.3-1.6s0.4-0.9,0.8-1.3s0.7-0.7,1.2-0.9c0.5-0.2,1-0.3,1.6-0.3s1.1,0.1,1.6,0.3c0.5,0.2,0.9,0.5,1.2,0.9
		s0.6,0.8,0.7,1.3c0.2,0.5,0.3,1,0.3,1.6c0,0.6-0.1,1.1-0.3,1.6c-0.2,0.5-0.4,0.9-0.7,1.3c-0.3,0.4-0.7,0.7-1.2,0.9
		C129.9,68.6,129.4,68.8,128.8,68.8z M128.8,67.7c0.4,0,0.8-0.1,1.1-0.2s0.6-0.4,0.8-0.7c0.2-0.3,0.4-0.6,0.5-1
		c0.1-0.4,0.2-0.8,0.2-1.2c0-0.4-0.1-0.8-0.2-1.2c-0.1-0.4-0.3-0.7-0.5-1s-0.5-0.5-0.8-0.7s-0.7-0.2-1.1-0.2s-0.8,0.1-1.1,0.2
		c-0.3,0.2-0.6,0.4-0.8,0.7s-0.4,0.6-0.5,1c-0.1,0.4-0.2,0.8-0.2,1.2c0,0.4,0.1,0.8,0.2,1.2c0.1,0.4,0.3,0.7,0.5,1
		c0.2,0.3,0.5,0.5,0.8,0.7C128,67.7,128.4,67.7,128.8,67.7z"/>
	<path class="st0" d="M133.8,60.8h1.2v1.1h0c0.3-0.4,0.6-0.7,1-0.9c0.4-0.2,0.9-0.3,1.5-0.3c0.5,0,0.9,0.1,1.3,0.3
		c0.4,0.2,0.8,0.5,1,0.8s0.5,0.8,0.7,1.3s0.2,1.1,0.2,1.7c0,0.6-0.1,1.2-0.2,1.7c-0.2,0.5-0.4,0.9-0.7,1.3c-0.3,0.4-0.6,0.6-1.1,0.8
		c-0.4,0.2-0.9,0.3-1.4,0.3c-0.5,0-1-0.1-1.4-0.3c-0.4-0.2-0.7-0.5-1.1-0.9h0V71h-1.2V60.8z M137.4,67.8c0.4,0,0.7-0.1,1-0.2
		c0.3-0.2,0.5-0.4,0.7-0.6c0.2-0.3,0.3-0.6,0.4-1c0.1-0.4,0.1-0.8,0.1-1.2c0-0.4,0-0.8-0.1-1.2c-0.1-0.4-0.2-0.7-0.4-1
		c-0.2-0.3-0.4-0.5-0.7-0.6c-0.3-0.2-0.6-0.2-1-0.2c-0.4,0-0.8,0.1-1.1,0.2c-0.3,0.2-0.6,0.4-0.8,0.7s-0.4,0.6-0.5,1
		c-0.1,0.4-0.2,0.8-0.2,1.2s0,0.8,0.1,1.2c0.1,0.4,0.2,0.7,0.4,1c0.2,0.3,0.4,0.5,0.8,0.7S136.9,67.8,137.4,67.8z"/>
	<path class="st0" d="M142.5,59.3c0,0.5-0.1,0.9-0.4,1.2s-0.5,0.4-0.9,0.5v-0.6c0.2-0.1,0.3-0.2,0.4-0.4c0.1-0.2,0.2-0.4,0.2-0.7
		h-0.6v-1.5h1.3V59.3z M144.8,59.3c0,0.5-0.1,0.9-0.4,1.2c-0.2,0.3-0.5,0.4-0.9,0.5v-0.6c0.2-0.1,0.3-0.2,0.4-0.4s0.2-0.4,0.2-0.7
		h-0.6v-1.5h1.3V59.3z"/>
</g>
<polygon class="st0" points="75.7,23.8 75.7,26.9 73,25.4 71.6,27.7 74.3,29.3 71.6,30.9 73,33.3 75.7,31.7 75.7,34.9 78.5,34.9 
	78.5,31.7 81.2,33.3 82.6,30.9 79.9,29.3 82.6,27.7 81.2,25.4 78.5,26.9 78.5,23.8 "/>
</svg>
