<?xml version="1.0" encoding="utf-8"?>
<!-- Generator: Adobe Illustrator 24.3.0, SVG Export Plug-In . SVG Version: 6.00 Build 0)  -->
<svg version="1.1" id="Laag_1" xmlns:v="https://vecta.io/nano"
	 xmlns="http://www.w3.org/2000/svg" xmlns:xlink="http://www.w3.org/1999/xlink" x="0px" y="0px" width="363.2px" height="93.8px"
	 viewBox="0 0 363.2 93.8" style="enable-background:new 0 0 363.2 93.8;" xml:space="preserve">
<style type="text/css">
	.st0{fill:#6A3F24;}
</style>
<g>
	<path class="st0" d="M5.3,36.8c-1.1,0-2-0.4-2.7-1.1S1.5,34.1,1.5,33c0-1.1,0.4-2,1.1-2.7s1.6-1,2.7-1c1.1,0,2,0.3,2.7,1
		s1,1.6,1,2.7c0,1.1-0.3,2-1,2.7S6.3,36.8,5.3,36.8z M15.5,36.8c-1.1,0-2-0.4-2.7-1.1s-1.1-1.6-1.1-2.7c0-1.1,0.4-2,1.1-2.7
		s1.6-1,2.7-1c1.1,0,2,0.3,2.7,1s1,1.6,1,2.7c0,1.1-0.3,2-1,2.7S16.6,36.8,15.5,36.8z M25.8,36.8c-1.1,0-2-0.4-2.7-1.1
		S22,34.1,22,33c0-1.1,0.4-2,1.1-2.7s1.6-1,2.7-1c1.1,0,2,0.3,2.7,1s1.1,1.6,1.1,2.7c0,1.1-0.4,2-1.1,2.7S26.9,36.8,25.8,36.8z"/>
	<path class="st0" d="M55.9,29.7c0.3,0.3,0.5,0.9,0.5,1.7v4.9h-0.7c-3,0-5.1-1-6.4-2.9c-2.1,2.2-5.1,3.3-9,3.3c-2.5,0-4.5-0.7-6-2
		s-2.2-3.2-2.2-5.5c0-2.2,0.7-4,2.1-5.5s3.6-2.4,6.5-2.8c3.7-0.4,6.1-1,7.4-1.7v-0.1c0-0.8-0.4-1.5-1.2-2s-1.7-0.8-2.9-0.8
		c-0.6,0-1.2,0-1.7,0.1s-1,0.2-1.5,0.4s-0.8,0.3-1,0.4s-0.5,0.3-1,0.6s-0.7,0.4-0.7,0.4c-0.6,0.3-1.1,0.4-1.7,0.3s-1-0.4-1.3-0.8
		l-2.1-2.9c0.3-0.4,0.8-0.9,1.3-1.3s1.3-0.9,2.2-1.4s1.9-0.9,3.1-1.3s2.5-0.5,3.8-0.5c3.7,0,6.6,0.9,8.5,2.6s2.9,4.3,2.9,7.7v7.2
		C55,28.7,55.3,29.3,55.9,29.7L55.9,29.7z M41.3,31c0.7,0,1.4,0,2-0.1s1.2-0.3,1.8-0.5s1.2-0.6,1.6-1s0.8-1,1.1-1.7s0.4-1.5,0.4-2.4
		v-0.7c-1.3,1.1-3.3,1.6-5.9,1.7c-1.2,0.1-2.1,0.4-2.7,0.8s-0.9,1-0.9,1.8c0,0.7,0.2,1.2,0.7,1.6S40.5,31,41.3,31z"/>
	<path class="st0" d="M64.4,8.1c-1.1,0-2-0.3-2.7-1s-1-1.6-1-2.7c0-1.1,0.3-2,1-2.7s1.6-1.1,2.7-1.1c1.1,0,2,0.4,2.7,1.1
		s1.1,1.6,1.1,2.7c0,1.1-0.4,2-1.1,2.7S65.5,8.1,64.4,8.1z M61,36.2V10.8h6.9v25.4H61z"/>
	<path class="st0" d="M90.5,10.8h6.9v25.4h-5.2c-0.3,0-0.5-0.1-0.7-0.3s-0.3-0.4-0.3-0.7v-1.9c-1.8,2.2-4.1,3.3-6.8,3.3
		c-3.3,0-5.8-0.9-7.5-2.6s-2.5-4.4-2.5-7.9V10.8h6.9v14.2c0,1.9,0.3,3.4,0.9,4.3s1.8,1.4,3.4,1.4c1.6,0,2.8-0.5,3.7-1.5
		s1.3-2.4,1.3-4.2V10.8z"/>
	<path class="st0" d="M119.5,16.9h-7.4v10.3c0,0.8,0.2,1.5,0.8,2.1s1.2,0.8,2,0.8h2.9c0.5,0,1,0.2,1.3,0.5s0.5,0.8,0.5,1.3v4.6h-5.2
		c-2.8,0-5-0.8-6.6-2.4s-2.4-3.9-2.4-6.8V16.9H103c-0.5,0-1-0.2-1.3-0.5s-0.5-0.8-0.5-1.3v-4.2h4V2.3h6.9v8.5h7.4V16.9z"/>
	<path class="st0" d="M146.7,29.7c0.3,0.3,0.5,0.9,0.5,1.7v4.9h-0.7c-3,0-5.1-1-6.4-2.9c-2.1,2.2-5.1,3.3-9,3.3c-2.5,0-4.5-0.7-6-2
		s-2.2-3.2-2.2-5.5c0-2.2,0.7-4,2.1-5.5s3.6-2.4,6.5-2.8c3.7-0.4,6.1-1,7.4-1.7v-0.1c0-0.8-0.4-1.5-1.2-2s-1.7-0.8-2.9-0.8
		c-0.6,0-1.2,0-1.7,0.1s-1,0.2-1.5,0.4s-0.8,0.3-1,0.4s-0.5,0.3-1,0.6s-0.7,0.4-0.7,0.4c-0.6,0.3-1.1,0.4-1.7,0.3s-1-0.4-1.3-0.8
		l-2.1-2.9c0.3-0.4,0.8-0.9,1.3-1.3s1.3-0.9,2.2-1.4s1.9-0.9,3.1-1.3s2.5-0.5,3.8-0.5c3.7,0,6.6,0.9,8.5,2.6s2.9,4.3,2.9,7.7v7.2
		C145.7,28.7,146,29.3,146.7,29.7L146.7,29.7z M132,31c0.7,0,1.4,0,2-0.1s1.2-0.3,1.8-0.5s1.2-0.6,1.6-1s0.8-1,1.1-1.7
		s0.4-1.5,0.4-2.4v-0.7c-1.3,1.1-3.3,1.6-5.9,1.7c-1.2,0.1-2.1,0.4-2.7,0.8s-0.9,1-0.9,1.8c0,0.7,0.2,1.2,0.7,1.6S131.2,31,132,31z"
		/>
	<path class="st0" d="M165.5,10.8h0.4v3.9c0,0.5-0.2,1-0.5,1.3s-0.7,0.5-1.2,0.5h-0.3c-2,0-3.4,0.6-4.4,1.8s-1.5,2.8-1.5,5v12.9
		h-6.9V10.8h5.2c0.3,0,0.5,0.1,0.7,0.3s0.3,0.4,0.3,0.7v2.5C159.3,12,162,10.8,165.5,10.8z"/>
	<path class="st0" d="M180.3,10.3c3.8,0,7,1.3,9.3,3.8s3.6,5.8,3.6,9.9v1.1c0,0.2-0.1,0.5-0.3,0.7s-0.4,0.3-0.7,0.3h-17.8
		c0.4,1.4,1.1,2.6,2.1,3.4s2.2,1.3,3.8,1.3c1.1,0,2.1-0.3,2.9-0.8s1.4-1.2,1.8-1.9c0.3-0.5,0.8-0.6,1.3-0.4l5.7,2
		c-0.9,2.2-2.3,4-4.3,5.2s-4.5,1.9-7.5,1.9c-3.9,0-7-1.2-9.4-3.6s-3.6-5.6-3.6-9.5c0-4,1.2-7.2,3.6-9.7S176.4,10.3,180.3,10.3z
		 M180.3,16.3c-1.4,0-2.6,0.4-3.5,1.1s-1.7,1.8-2.1,3.1h11.2c-0.5-1.3-1.2-2.3-2.1-3.1S181.6,16.3,180.3,16.3z"/>
	<path class="st0" d="M214.8,8.1c-1.1,0-2-0.3-2.7-1s-1-1.6-1-2.7c0-1.1,0.3-2,1-2.7s1.6-1.1,2.7-1.1c1.1,0,2,0.4,2.7,1.1
		s1.1,1.6,1.1,2.7c0,1.1-0.4,2-1.1,2.7S215.9,8.1,214.8,8.1z M211.4,36.2V10.8h6.9v25.4H211.4z"/>
	<path class="st0" d="M252.3,10.4c3.8,0,6.7,1.2,8.7,3.5s3.1,5.6,3.1,9.7c0,4-1.1,7.2-3.2,9.6s-4.9,3.6-8.4,3.6
		c-3.1,0-5.7-1.2-7.9-3.6v2.2c0,0.2-0.1,0.5-0.3,0.7s-0.4,0.3-0.7,0.3h-5.2V2.3h6.9v10.5C247.3,11.2,249.5,10.4,252.3,10.4z
		 M251.3,30.7c1.8,0,3.2-0.7,4.3-2s1.6-3.1,1.6-5.2s-0.5-3.9-1.5-5.2s-2.4-2-4.3-2c-1.8,0-3.3,0.6-4.4,1.9s-1.6,3-1.6,5.2v0.3
		c0,2.2,0.5,3.9,1.6,5.1S249.5,30.7,251.3,30.7z"/>
	<path class="st0" d="M272.2,8.1c-1.1,0-2-0.3-2.7-1s-1-1.6-1-2.7c0-1.1,0.3-2,1-2.7s1.6-1.1,2.7-1.1c1.1,0,2,0.4,2.7,1.1
		s1.1,1.6,1.1,2.7c0,1.1-0.4,2-1.1,2.7S273.3,8.1,272.2,8.1z M268.8,36.2V10.8h6.9v25.4H268.8z"/>
	<path class="st0" d="M309.9,10.3c3.1,0,5.4,0.9,7,2.8s2.4,4.5,2.4,8v15.1h-6.9V21.9c0-1.9-0.3-3.3-0.9-4.2s-1.6-1.3-3-1.3
		c-1.5,0-2.6,0.5-3.3,1.4s-1,2.3-1,4.2v14.3h-6.9V21.9c0-1.9-0.3-3.2-1-4.2s-1.6-1.4-3-1.4c-1.5,0-2.6,0.5-3.2,1.4s-1,2.4-1,4.2
		v14.2h-6.9V10.8h5.2c0.3,0,0.5,0.1,0.7,0.3s0.3,0.4,0.3,0.7v1.7c1.7-2.1,3.8-3.1,6.4-3.1c3.7,0,6.3,1.3,7.8,3.8
		C304.5,11.6,306.9,10.3,309.9,10.3z"/>
	<path class="st0" d="M339.4,10.4c3.8,0,6.7,1.2,8.7,3.5s3.1,5.6,3.1,9.7c0,4-1.1,7.2-3.2,9.6s-4.9,3.6-8.4,3.6
		c-3.1,0-5.7-1.2-7.9-3.6v2.2c0,0.2-0.1,0.5-0.3,0.7s-0.4,0.3-0.7,0.3h-5.2V2.3h6.9v10.5C334.4,11.2,336.7,10.4,339.4,10.4z
		 M338.5,30.7c1.8,0,3.2-0.7,4.3-2s1.6-3.1,1.6-5.2s-0.5-3.9-1.5-5.2s-2.4-2-4.3-2c-1.8,0-3.3,0.6-4.4,1.9s-1.6,3-1.6,5.2v0.3
		c0,2.2,0.5,3.9,1.6,5.1S336.7,30.7,338.5,30.7z"/>
	<path class="st0" d="M359.4,8.1c-1.1,0-2-0.3-2.7-1s-1-1.6-1-2.7c0-1.1,0.3-2,1-2.7s1.6-1.1,2.7-1.1c1.1,0,2,0.4,2.7,1.1
		s1.1,1.6,1.1,2.7c0,1.1-0.4,2-1.1,2.7S360.5,8.1,359.4,8.1z M356,36.2V10.8h6.9v25.4H356z"/>
	<path class="st0" d="M17.6,58.4c3.5,0,6.3,1.2,8.3,3.6s3.1,5.6,3.1,9.6c0,4.2-1,7.4-3.1,9.7s-5,3.5-8.8,3.5c-2.7,0-5-0.8-6.7-2.2
		v10.2H3.6V58.8h5.2c0.3,0,0.5,0.1,0.7,0.3s0.3,0.4,0.3,0.7v2.2C11.8,59.5,14.5,58.4,17.6,58.4z M16.3,78.7c1.8,0,3.2-0.7,4.3-2
		s1.6-3.1,1.6-5.2s-0.5-3.9-1.5-5.2s-2.4-2-4.3-2s-3.3,0.6-4.3,1.8s-1.6,2.9-1.7,5v0.5c0,2.2,0.5,3.9,1.6,5.2S14.5,78.7,16.3,78.7z"
		/>
	<path class="st0" d="M37,56.1c-1.1,0-2-0.3-2.7-1s-1-1.6-1-2.7c0-1.1,0.3-2,1-2.7s1.6-1.1,2.7-1.1c1.1,0,2,0.4,2.7,1.1
		s1.1,1.6,1.1,2.7c0,1.1-0.4,2-1.1,2.7S38.1,56.1,37,56.1z M33.6,84.2V58.8h6.9v25.4H33.6z"/>
	<path class="st0" d="M63,58.8h6.9v25.4h-5.2c-0.3,0-0.5-0.1-0.7-0.3c-0.2-0.2-0.3-0.4-0.3-0.7v-1.9c-1.8,2.2-4.1,3.3-6.8,3.3
		c-3.3,0-5.8-0.9-7.5-2.6s-2.5-4.4-2.5-7.9V58.8h6.9v14.2c0,1.9,0.3,3.4,0.9,4.3s1.8,1.4,3.4,1.4c1.6,0,2.8-0.5,3.7-1.5
		s1.3-2.4,1.3-4.2V58.8z"/>
	<path class="st0" d="M99.5,49.4h5.4v4.4c0,0.5-0.2,0.9-0.5,1.3s-0.8,0.5-1.3,0.5H100c-0.7,0-1.2,0.2-1.6,0.7s-0.6,1-0.6,1.7v0.8
		h4.7v6h-4.7v19.4h-6.9V64.9h-1.5c-0.5,0-0.9-0.2-1.3-0.5s-0.5-0.8-0.5-1.3v-4.2h3.3V58c0-2.7,0.8-4.8,2.3-6.3S96.8,49.4,99.5,49.4z
		"/>
	<path class="st0" d="M122.5,58.8h0.4v3.9c0,0.5-0.2,1-0.5,1.3s-0.7,0.5-1.2,0.5h-0.3c-2,0-3.4,0.6-4.4,1.8s-1.5,2.8-1.5,5v12.9
		h-6.9V58.8h5.2c0.3,0,0.5,0.1,0.7,0.3s0.3,0.4,0.3,0.7v2.5C116.2,60,119,58.8,122.5,58.8z"/>
	<path class="st0" d="M148.1,77.7c0.3,0.3,0.5,0.9,0.5,1.7v4.9h-0.7c-3,0-5.1-1-6.4-2.9c-2.1,2.2-5.1,3.3-9,3.3c-2.5,0-4.5-0.7-6-2
		s-2.2-3.2-2.2-5.5c0-2.2,0.7-4,2.1-5.5s3.6-2.4,6.5-2.8c3.7-0.4,6.1-1,7.4-1.7v-0.1c0-0.8-0.4-1.5-1.2-2s-1.7-0.8-2.9-0.8
		c-0.6,0-1.2,0-1.7,0.1s-1,0.2-1.5,0.4s-0.8,0.3-1,0.4s-0.5,0.3-1,0.6s-0.7,0.4-0.7,0.4c-0.6,0.3-1.1,0.4-1.7,0.3s-1-0.4-1.3-0.8
		l-2.1-2.9c0.3-0.4,0.8-0.9,1.3-1.3s1.3-0.9,2.2-1.4s1.9-0.9,3.1-1.3s2.5-0.5,3.8-0.5c3.7,0,6.6,0.9,8.5,2.6s2.9,4.3,2.9,7.7v7.2
		C147.1,76.7,147.4,77.3,148.1,77.7L148.1,77.7z M133.4,79c0.7,0,1.4,0,2-0.1s1.2-0.3,1.8-0.5s1.2-0.6,1.6-1s0.8-1,1.1-1.7
		s0.4-1.5,0.4-2.4v-0.7c-1.3,1.1-3.3,1.6-5.9,1.7c-1.2,0.1-2.1,0.4-2.7,0.8s-0.9,1-0.9,1.8c0,0.7,0.2,1.2,0.7,1.6S132.6,79,133.4,79
		z"/>
	<path class="st0" d="M167.6,79.6c2.8,0,5,0.6,6.5,1.7s2.2,2.8,2.2,5c0,2.2-1,4.1-3.1,5.4s-5.3,2.1-9.6,2.1c-3.9,0-6.9-0.7-9.1-2.2
		s-3.3-3.2-3.3-5.4c0-1.4,0.3-2.5,1-3.5s1.4-1.6,2.1-1.8c-0.4-0.1-0.8-0.4-1.2-1s-0.7-1.3-0.7-2.2c0-1.7,0.7-2.9,2.2-3.8
		c-1.7-1.7-2.6-3.8-2.6-6.3c0-3,1-5.3,2.9-6.9s4.6-2.4,7.9-2.4c2.6,0,4.8,0.5,6.5,1.5c0.6-0.6,1.5-0.9,2.6-0.9h3.5v3.9
		c0,0.5-0.1,0.8-0.4,1.1s-0.6,0.4-1.1,0.4h-0.7c0.3,1,0.5,2.1,0.5,3.3c0,3-1,5.3-3.1,6.9s-4.8,2.4-8.4,2.4h-1.7
		c-0.6,0-1.2,0.1-1.5,0.3s-0.6,0.6-0.6,1c0,0.9,0.9,1.4,2.7,1.4H167.6z M163.6,88.1c2.3,0,3.9-0.2,5-0.6s1.6-0.9,1.6-1.5
		c0-1-0.9-1.5-2.8-1.5h-7c-2,0-2.9,0.5-2.9,1.5c0,0.6,0.6,1.1,1.7,1.5S161.9,88.1,163.6,88.1z M166,65c-0.8-0.6-1.9-0.9-3.3-0.9
		s-2.4,0.3-3.2,0.9s-1.2,1.4-1.2,2.5c0,1.1,0.4,2,1.2,2.6s1.9,0.9,3.2,0.9c1.4,0,2.5-0.3,3.3-0.9s1.2-1.5,1.2-2.6
		C167.2,66.4,166.8,65.6,166,65z"/>
	<path class="st0" d="M183.4,56.1c-1.1,0-2-0.3-2.7-1s-1-1.6-1-2.7c0-1.1,0.3-2,1-2.7s1.6-1.1,2.7-1.1c1.1,0,2,0.4,2.7,1.1
		s1.1,1.6,1.1,2.7c0,1.1-0.4,2-1.1,2.7S184.5,56.1,183.4,56.1z M180,84.2V58.8h6.9v25.4H180z"/>
	<path class="st0" d="M202,84.3c-2.6,0-4.7-0.7-6.2-2.2s-2.2-3.5-2.2-6.2V50.3h6.9v25.6c0,0.6,0.2,1.1,0.6,1.5s0.9,0.6,1.5,0.6h1.3
		c0.5,0,0.9,0.2,1.3,0.5s0.5,0.8,0.5,1.3v4.6H202z"/>
	<path class="st0" d="M213.3,56.1c-1.1,0-2-0.3-2.7-1s-1-1.6-1-2.7c0-1.1,0.3-2,1-2.7s1.6-1.1,2.7-1.1c1.1,0,2,0.4,2.7,1.1
		s1.1,1.6,1.1,2.7c0,1.1-0.4,2-1.1,2.7S214.4,56.1,213.3,56.1z M209.9,84.2V58.8h6.9v25.4H209.9z"/>
</g>
<g>
	<path id="E_1_" class="st0" d="M61.8,54.5h-1.5c-1.3,0-2.5-0.2-3.4-0.6S55,52.8,54.2,52l-2.8-2.8c-0.2-0.2-0.2-0.4-0.2-0.6
		s0.3-0.3,0.5-0.3h3.1c0.9,0,1.6,0.2,2.3,0.5s1.2,0.7,1.5,1.1L61.8,54.5z"/>
</g>
</svg>
