<?xml version="1.0" encoding="utf-8"?>
<!-- Generator: Adobe Illustrator 24.3.0, SVG Export Plug-In . SVG Version: 6.00 Build 0)  -->
<svg version="1.0" id="Laag_1" xmlns="http://www.w3.org/2000/svg" xmlns:xlink="http://www.w3.org/1999/xlink" x="0px" y="0px"
	 width="84.8px" height="10.6px" viewBox="0 0 84.8 10.6" style="enable-background:new 0 0 84.8 10.6;" xml:space="preserve">
<style type="text/css">
	.st0{fill:#55384D;}
</style>
<g>
	<path class="st0" d="M3.4,8.1C3.2,8.3,2.9,8.4,2.5,8.4c-0.9,0-1.4-0.5-1.4-1.5V3.6H0V2.8h0.3c0.6,0,0.9-0.3,0.9-0.8V1.4h0.9v1.4
		h1.4v0.8H2.1v3.2c0,0.5,0.2,0.7,0.6,0.7c0.2,0,0.3-0.1,0.5-0.2L3.4,8.1z"/>
	<path class="st0" d="M7.3,2.6h0.4v1c-0.1,0-0.3,0-0.5,0C6.8,3.6,6.4,3.7,6.1,4C5.8,4.3,5.6,4.8,5.6,5.4v2.8h-1V2.8h0.8l0.2,0.8h0.1
		C6,2.9,6.6,2.6,7.3,2.6z"/>
	<path class="st0" d="M8.5,8.3c-0.2,0-0.4,0-0.5-0.2S7.8,7.9,7.8,7.7c0-0.2,0.1-0.3,0.2-0.5C8.1,7.1,8.3,7,8.5,7S8.8,7.1,9,7.2
		c0.1,0.1,0.2,0.3,0.2,0.5S9.1,8,9,8.2C8.8,8.3,8.6,8.3,8.5,8.3z"/>
	<path class="st0" d="M14.1,2.6c0.6,0,1.1,0.2,1.5,0.6s0.6,1,0.6,1.7v3.3h-1V5.1c0-0.5-0.1-0.9-0.4-1.2c-0.3-0.3-0.6-0.4-1-0.4
		s-0.7,0.1-1,0.4s-0.4,0.7-0.4,1.2v3.2h-1V2.8h0.8l0.2,0.7h0.1C12.7,2.9,13.3,2.6,14.1,2.6z"/>
	<path class="st0" d="M18,0.4h1v7.8h-1V0.4z"/>
	<path class="st0" d="M25.6,0l-4.1,8.8h-1.1L24.6,0H25.6z"/>
	<path class="st0" d="M28.9,2.6c0.8,0,1.4,0.3,1.9,0.8s0.7,1.2,0.7,2.1c0,0.8-0.2,1.5-0.8,2.1c-0.5,0.5-1.1,0.8-1.9,0.8
		c-0.9,0-1.5-0.3-1.8-0.9v3h-1V2.8h0.7L27,3.5h0.1C27.5,2.9,28.1,2.6,28.9,2.6z M28.8,7.5c0.5,0,0.9-0.2,1.3-0.6s0.5-0.8,0.5-1.4
		S30.3,4.4,30,4.1c-0.3-0.4-0.7-0.6-1.3-0.6c-0.5,0-0.9,0.2-1.2,0.6C27.2,4.5,27,4.9,27,5.5s0.2,1.1,0.5,1.4S28.3,7.5,28.8,7.5z"/>
	<path class="st0" d="M35.7,2.6H36v1c-0.1,0-0.3,0-0.5,0c-0.4,0-0.8,0.2-1.1,0.5C34.1,4.3,34,4.8,34,5.4v2.8h-1V2.8h0.8L34,3.6l0,0
		C34.4,2.9,35,2.6,35.7,2.6z"/>
	<path class="st0" d="M39.7,8.4c-0.8,0-1.5-0.3-2.1-0.8C37,7,36.8,6.3,36.8,5.5s0.3-1.5,0.8-2s1.2-0.8,2.1-0.8s1.5,0.3,2.1,0.8
		s0.8,1.2,0.8,2S42.3,7,41.8,7.6C41.2,8.1,40.5,8.4,39.7,8.4z M39.7,7.5c0.6,0,1-0.2,1.4-0.6c0.3-0.4,0.5-0.9,0.5-1.4
		s-0.2-1-0.5-1.4s-0.8-0.6-1.4-0.6s-1,0.2-1.3,0.6C38,4.5,37.8,5,37.8,5.5c0,0.6,0.2,1,0.5,1.4C38.7,7.3,39.1,7.5,39.7,7.5z"/>
	<path class="st0" d="M48.6,2.9c-0.2,0.2-0.5,0.4-0.9,0.6c0.2,0.3,0.3,0.6,0.3,1c0,0.5-0.2,1-0.6,1.3c-0.4,0.3-0.9,0.5-1.6,0.5
		c-0.3,0-0.7-0.1-0.9-0.2c-0.3,0.1-0.4,0.3-0.4,0.5c0,0.3,0.3,0.5,0.9,0.5h1c0.7,0,1.2,0.1,1.5,0.4s0.5,0.7,0.5,1.2s-0.2,1-0.7,1.3
		c-0.4,0.3-1,0.5-1.8,0.5s-1.4-0.2-1.9-0.6S43.3,9,43.3,8.5l0.9-0.7c-0.5-0.2-0.7-0.5-0.7-1c0-0.4,0.2-0.8,0.8-1
		c-0.4-0.3-0.6-0.8-0.6-1.4s0.2-1,0.6-1.4s0.9-0.5,1.5-0.5s1,0.1,1.4,0.4c0.3-0.2,0.6-0.4,0.8-0.7L48.6,2.9z M47.4,8.8
		c0-0.3-0.1-0.5-0.3-0.6C46.9,8.1,46.6,8,46.2,8h-0.9l-0.9,0.7c0.1,0.3,0.2,0.6,0.5,0.8s0.6,0.3,1.1,0.3c0.4,0,0.8-0.1,1-0.2
		C47.3,9.4,47.4,9.1,47.4,8.8z M45.9,5.7c0.4,0,0.6-0.1,0.9-0.3c0.2-0.2,0.3-0.5,0.3-0.8S47,3.9,46.7,3.7c-0.2-0.2-0.5-0.3-0.8-0.3
		c-0.4,0-0.6,0.1-0.9,0.3c-0.2,0.2-0.3,0.5-0.3,0.8s0.1,0.6,0.3,0.8C45.3,5.6,45.5,5.7,45.9,5.7z"/>
	<path class="st0" d="M52.7,2.6h0.4v1c-0.1,0-0.3,0-0.5,0c-0.4,0-0.8,0.2-1.1,0.5C51.2,4.3,51,4.8,51,5.4v2.8h-1V2.8h0.8L51,3.6l0,0
		C51.4,2.9,52,2.6,52.7,2.6z"/>
	<path class="st0" d="M58.5,6.9c0,0.2,0,0.3,0.1,0.4s0.2,0.1,0.4,0.1v0.8h-0.2c-0.6,0-1-0.2-1.1-0.7c-0.2,0.3-0.5,0.5-0.8,0.6
		s-0.7,0.2-1.1,0.2c-0.6,0-1-0.1-1.4-0.4c-0.4-0.3-0.5-0.6-0.5-1.1c0-0.6,0.2-1,0.7-1.3S55.7,5,56.5,5l1.1-0.1V4.8
		c0-0.4-0.1-0.8-0.3-1s-0.5-0.4-0.9-0.4s-0.7,0.1-0.9,0.3s-0.3,0.5-0.4,0.8h-1c0-0.5,0.3-1,0.7-1.3s0.9-0.5,1.5-0.5
		c0.7,0,1.2,0.2,1.6,0.6c0.4,0.4,0.6,0.9,0.6,1.6C58.5,4.9,58.5,6.9,58.5,6.9z M55.9,7.6c0.4,0,0.8-0.1,1.2-0.4
		c0.3-0.3,0.5-0.6,0.5-1.1V5.6l-0.9,0.1c-0.5,0-1,0.2-1.3,0.3C55.1,6.2,55,6.4,55,6.7c0,0.3,0.1,0.5,0.3,0.6
		C55.4,7.5,55.6,7.6,55.9,7.6z"/>
	<path class="st0" d="M66.4,2.7c0.6,0,1.1,0.2,1.4,0.6c0.4,0.4,0.5,0.9,0.5,1.7v3.4h-1V5c0-0.5-0.1-0.8-0.3-1.1
		c-0.2-0.2-0.5-0.4-0.9-0.4c-0.3,0-0.6,0.1-0.9,0.4S64.9,4.5,64.9,5v3.3h-1V5c0-0.5-0.1-0.8-0.3-1.1s-0.5-0.4-0.8-0.4
		s-0.6,0.1-0.9,0.4c-0.3,0.2-0.4,0.6-0.4,1.1v3.3h-1V2.8h0.8l0.2,0.7h0.1C61.5,3.2,61.7,3,62,2.9c0.3-0.2,0.6-0.2,1-0.2
		s0.8,0.1,1,0.3c0.2,0.2,0.5,0.4,0.6,0.7h0.1c0.1-0.3,0.4-0.5,0.7-0.7C65.6,2.8,66,2.7,66.4,2.7z"/>
	<path class="st0" d="M76.2,2.7c0.6,0,1.1,0.2,1.4,0.6C78,3.7,78.1,4.2,78.1,5v3.4h-1V5c0-0.5-0.1-0.8-0.3-1.1
		c-0.2-0.2-0.5-0.4-0.9-0.4c-0.3,0-0.6,0.1-0.9,0.4S74.6,4.5,74.6,5v3.3h-1V5c0-0.5-0.1-0.8-0.3-1.1c-0.2-0.3-0.5-0.4-0.8-0.4
		s-0.6,0.1-0.9,0.4c-0.3,0.2-0.4,0.6-0.4,1.1v3.3h-1V2.8H71l0,0.6h0.1c0.1-0.2,0.4-0.4,0.6-0.6c0.3-0.2,0.6-0.2,1-0.2s0.8,0.1,1,0.3
		s0.5,0.4,0.6,0.7h0.1c0.1-0.3,0.4-0.5,0.7-0.7C75.4,2.8,75.7,2.7,76.2,2.7z"/>
	<path class="st0" d="M84.2,6.9c0,0.2,0,0.3,0.1,0.4s0.2,0.1,0.4,0.1v0.8h-0.2c-0.6,0-1-0.2-1.1-0.7C83.2,7.8,83,8,82.6,8.1
		s-0.7,0.2-1.1,0.2c-0.6,0-1-0.1-1.4-0.4c-0.4-0.3-0.5-0.6-0.5-1.1c0-0.6,0.2-1,0.7-1.3S81.4,5,82.2,5l1.1-0.1V4.8
		c0-0.4-0.1-0.8-0.3-1s-0.5-0.4-0.9-0.4s-0.7,0.1-0.9,0.3c-0.2,0.2-0.3,0.5-0.4,0.8h-1c0-0.5,0.3-1,0.7-1.3c0.4-0.3,0.9-0.5,1.5-0.5
		c0.7,0,1.2,0.2,1.6,0.6s0.6,0.9,0.6,1.6L84.2,6.9L84.2,6.9z M81.6,7.6c0.4,0,0.8-0.1,1.2-0.4c0.3-0.3,0.5-0.6,0.5-1.1V5.6l-0.9,0.1
		c-0.5,0-1,0.2-1.3,0.3c-0.3,0.2-0.4,0.4-0.4,0.7c0,0.3,0.1,0.5,0.3,0.6C81.1,7.5,81.3,7.6,81.6,7.6z"/>
</g>
</svg>
