<?xml version="1.0" encoding="utf-8"?>
<!-- Generator: Adobe Illustrator 24.3.0, SVG Export Plug-In . SVG Version: 6.00 Build 0)  -->
<svg version="1.1" id="Laag_1" xmlns="http://www.w3.org/2000/svg" xmlns:xlink="http://www.w3.org/1999/xlink" x="0px" y="0px"
	 width="116.8px" height="44.6px" viewBox="0 0 116.8 44.6" style="enable-background:new 0 0 116.8 44.6;" xml:space="preserve">
<style type="text/css">
	.st0{fill:#573B4E;}
</style>
<g>
	<path class="st0" d="M7.3,0.2h1.4l-3.4,10H3.4L0,0.2h1.4l2.9,8.5h0.1L7.3,0.2z"/>
	<path class="st0" d="M14.5,8.4c0,0.3,0.1,0.5,0.2,0.6c0.1,0.1,0.3,0.2,0.5,0.2v1h-0.2c-0.8,0-1.2-0.3-1.4-1
		c-0.3,0.3-0.6,0.6-1.1,0.8s-0.9,0.3-1.4,0.3c-0.7,0-1.3-0.2-1.7-0.5C8.9,9.5,8.7,9,8.7,8.3c0-0.7,0.3-1.3,0.9-1.7
		C10.1,6.3,10.9,6,11.9,6l1.4-0.1V5.7c0-0.5-0.1-1-0.4-1.3c-0.3-0.3-0.6-0.5-1.1-0.5c-0.5,0-0.8,0.1-1.1,0.4c-0.3,0.3-0.4,0.6-0.5,1
		H9C9,4.6,9.3,4,9.8,3.6c0.5-0.5,1.1-0.7,1.9-0.7c0.8,0,1.5,0.2,2,0.8c0.5,0.5,0.8,1.2,0.8,2.1V8.4z M11.2,9.3c0.6,0,1-0.2,1.4-0.5
		c0.4-0.3,0.6-0.8,0.6-1.5V6.8l-1.2,0.1c-0.7,0.1-1.2,0.2-1.6,0.4c-0.4,0.2-0.6,0.5-0.6,0.9c0,0.3,0.1,0.6,0.4,0.8
		C10.5,9.2,10.8,9.3,11.2,9.3z"/>
	<path class="st0" d="M20,2.9c0.8,0,1.4,0.3,1.9,0.8c0.5,0.5,0.7,1.3,0.7,2.2v4.3h-1.3v-4c0-0.7-0.2-1.2-0.5-1.6
		C20.5,4.2,20.1,4,19.6,4c-0.5,0-0.9,0.2-1.2,0.5c-0.3,0.3-0.5,0.8-0.5,1.5v4.1h-1.3V3h1l0.2,0.9h0.1C18.3,3.2,19,2.9,20,2.9z"/>
	<path class="st0" d="M29.9,8.4c0,0.3,0.1,0.5,0.2,0.6c0.1,0.1,0.3,0.2,0.5,0.2v1h-0.2c-0.8,0-1.2-0.3-1.4-1
		c-0.3,0.3-0.6,0.6-1.1,0.8s-0.9,0.3-1.4,0.3c-0.7,0-1.3-0.2-1.7-0.5c-0.5-0.3-0.7-0.8-0.7-1.5c0-0.7,0.3-1.3,0.9-1.7S26.4,6,27.4,6
		l1.4-0.1V5.7c0-0.5-0.1-1-0.4-1.3c-0.3-0.3-0.6-0.5-1.1-0.5c-0.5,0-0.8,0.1-1.1,0.4c-0.3,0.3-0.4,0.6-0.5,1h-1.2
		c0.1-0.7,0.3-1.3,0.8-1.7c0.5-0.5,1.1-0.7,1.9-0.7c0.8,0,1.5,0.2,2,0.8c0.5,0.5,0.8,1.2,0.8,2.1V8.4z M26.7,9.3
		c0.6,0,1-0.2,1.4-0.5c0.4-0.3,0.6-0.8,0.6-1.5V6.8l-1.2,0.1c-0.7,0.1-1.2,0.2-1.6,0.4c-0.4,0.2-0.6,0.5-0.6,0.9
		c0,0.3,0.1,0.6,0.4,0.8C26,9.2,26.3,9.3,26.7,9.3z"/>
	<path class="st0" d="M33.8,2.1V3h1.8v1h-1.8v6.1h-1.3V4.1h-1.3V3h1.3V2c0-0.6,0.2-1.1,0.5-1.5C33.4,0.2,33.8,0,34.4,0
		c0.6,0,1.1,0.2,1.4,0.5l-0.4,1c-0.2-0.2-0.5-0.4-0.8-0.4c-0.2,0-0.4,0.1-0.6,0.3C33.8,1.6,33.8,1.8,33.8,2.1z"/>
	<path class="st0" d="M42.4,10.2V3.5h-1.8v-1h0.8c0.7,0,1.1-0.3,1.1-1V1h1.2v9.1H42.4z"/>
	<path class="st0" d="M54.6,8.3c0,0.6-0.2,1.1-0.7,1.5s-1.1,0.5-1.9,0.5c-0.8,0-1.5-0.2-2-0.7c-0.5-0.5-0.8-1-0.8-1.8h1.2
		c0,0.5,0.2,0.8,0.5,1.1c0.3,0.2,0.7,0.4,1.1,0.4c0.4,0,0.7-0.1,0.9-0.3c0.3-0.2,0.4-0.4,0.4-0.7c0-0.3-0.1-0.6-0.4-0.8
		S52.2,7.2,51.7,7c-0.3-0.1-0.6-0.2-0.8-0.3c-0.2-0.1-0.5-0.2-0.7-0.4s-0.4-0.4-0.5-0.6c-0.1-0.2-0.2-0.5-0.2-0.8
		c0-0.6,0.2-1.1,0.7-1.5c0.5-0.4,1.1-0.6,1.8-0.6c0.8,0,1.4,0.2,1.8,0.6c0.4,0.4,0.7,0.9,0.7,1.5h-1.2c0-0.3-0.2-0.6-0.4-0.8
		c-0.3-0.2-0.6-0.3-1-0.3c-0.3,0-0.6,0.1-0.8,0.2s-0.3,0.4-0.3,0.7c0,0.3,0.1,0.5,0.4,0.7s0.6,0.4,1.2,0.5C53,6.3,53.6,6.6,54,6.9
		C54.4,7.3,54.6,7.7,54.6,8.3z"/>
	<path class="st0" d="M59.2,2.9c1,0,1.8,0.3,2.4,1c0.6,0.7,0.9,1.7,0.8,3H57c0,0.7,0.3,1.3,0.6,1.7s0.9,0.6,1.6,0.6
		c0.4,0,0.8-0.1,1.2-0.3c0.3-0.2,0.6-0.5,0.8-0.8h1.2c-0.2,0.7-0.6,1.3-1.1,1.6s-1.2,0.6-2,0.6c-1.1,0-1.9-0.3-2.6-1
		c-0.6-0.7-1-1.6-1-2.7c0-1.1,0.3-1.9,1-2.6C57.4,3.2,58.2,2.9,59.2,2.9z M57,5.9h4.2c0-0.6-0.2-1-0.6-1.4c-0.4-0.4-0.8-0.6-1.4-0.6
		c-0.6,0-1.1,0.2-1.4,0.5C57.4,4.8,57.1,5.3,57,5.9z"/>
	<path class="st0" d="M67.5,2.9c0.9,0,1.7,0.3,2.3,1c0.6,0.7,0.9,1.6,0.9,2.7c0,1.1-0.3,2-0.9,2.7c-0.6,0.7-1.4,1-2.4,1
		c-1.1,0-1.8-0.4-2.2-1.2V13H64V3h0.9l0.2,1h0.1C65.8,3.3,66.5,2.9,67.5,2.9z M67.3,9.2c0.6,0,1.2-0.2,1.6-0.7
		c0.4-0.5,0.6-1.1,0.6-1.9c0-0.8-0.2-1.4-0.6-1.9C68.5,4.3,68,4,67.3,4c-0.6,0-1.2,0.2-1.5,0.7s-0.6,1.1-0.6,1.9
		c0,0.8,0.2,1.4,0.6,1.9S66.7,9.2,67.3,9.2z"/>
	<path class="st0" d="M75.9,10c-0.3,0.2-0.7,0.3-1.2,0.3c-1.2,0-1.8-0.6-1.8-1.9V4.1h-1.4V3.1H72c0.7,0,1.1-0.3,1.1-1V1.2h1.1V3h1.7
		v1h-1.7v4.2c0,0.6,0.2,0.9,0.7,0.9c0.2,0,0.4-0.1,0.6-0.2L75.9,10z"/>
	<path class="st0" d="M80,2.9c1,0,1.8,0.3,2.4,1c0.6,0.7,0.9,1.7,0.8,3h-5.4c0,0.7,0.3,1.3,0.6,1.7s0.9,0.6,1.6,0.6
		c0.4,0,0.8-0.1,1.2-0.3c0.3-0.2,0.6-0.5,0.8-0.8h1.2c-0.2,0.7-0.6,1.3-1.1,1.6c-0.6,0.4-1.2,0.6-2,0.6c-1.1,0-1.9-0.3-2.6-1
		c-0.6-0.7-1-1.6-1-2.7c0-1.1,0.3-1.9,1-2.6C78.2,3.2,79,2.9,80,2.9z M77.9,5.9h4.2c0-0.6-0.2-1-0.6-1.4c-0.4-0.4-0.8-0.6-1.4-0.6
		c-0.6,0-1.1,0.2-1.4,0.5C78.2,4.8,78,5.3,77.9,5.9z"/>
	<path class="st0" d="M92.5,2.9c0.8,0,1.4,0.2,1.8,0.7c0.4,0.5,0.7,1.2,0.7,2.2v4.4h-1.3V5.9c0-0.6-0.1-1.1-0.4-1.4
		s-0.6-0.5-1.1-0.5c-0.4,0-0.8,0.2-1.1,0.5c-0.3,0.3-0.5,0.8-0.5,1.4v4.2h-1.3V6c0-0.6-0.1-1.1-0.4-1.4c-0.3-0.3-0.6-0.5-1.1-0.5
		c-0.4,0-0.8,0.2-1.1,0.5c-0.3,0.3-0.5,0.8-0.5,1.4v4.3h-1.3V3h1L86,3.9h0.1c0.2-0.3,0.4-0.5,0.8-0.7s0.7-0.3,1.2-0.3
		c0.5,0,0.9,0.1,1.3,0.4c0.4,0.3,0.6,0.6,0.7,0.9h0.1c0.2-0.4,0.5-0.7,0.8-0.9C91.5,3,91.9,2.9,92.5,2.9z"/>
	<path class="st0" d="M100.3,2.9c1,0,1.7,0.3,2.4,1c0.6,0.7,0.9,1.6,0.9,2.7c0,1.1-0.3,2-0.9,2.7c-0.6,0.7-1.4,1-2.3,1
		c-1,0-1.7-0.4-2.3-1.2h-0.1l-0.2,1h-0.9V0H98v4.1C98.4,3.3,99.2,2.9,100.3,2.9z M98.6,8.5c0.4,0.5,0.9,0.7,1.5,0.7
		c0.6,0,1.2-0.2,1.6-0.7c0.4-0.5,0.6-1.1,0.6-1.9c0-0.8-0.2-1.4-0.6-1.9c-0.4-0.5-0.9-0.7-1.6-0.7c-0.6,0-1.2,0.2-1.5,0.7
		C98.2,5.2,98,5.8,98,6.6C98,7.4,98.2,8,98.6,8.5z"/>
	<path class="st0" d="M108.1,2.9c1,0,1.8,0.3,2.4,1c0.6,0.7,0.9,1.7,0.8,3h-5.4c0,0.7,0.3,1.3,0.6,1.7s0.9,0.6,1.6,0.6
		c0.4,0,0.8-0.1,1.2-0.3c0.3-0.2,0.6-0.5,0.8-0.8h1.2c-0.2,0.7-0.6,1.3-1.1,1.6c-0.6,0.4-1.2,0.6-2,0.6c-1.1,0-1.9-0.3-2.6-1
		c-0.6-0.7-1-1.6-1-2.7c0-1.1,0.3-1.9,1-2.6C106.3,3.2,107.1,2.9,108.1,2.9z M106,5.9h4.2c0-0.6-0.2-1-0.6-1.4
		c-0.4-0.4-0.8-0.6-1.4-0.6c-0.6,0-1.1,0.2-1.4,0.5C106.3,4.8,106.1,5.3,106,5.9z"/>
	<path class="st0" d="M116.3,2.9h0.5v1.3c-0.1,0-0.3-0.1-0.6-0.1c-0.6,0-1,0.2-1.4,0.6c-0.4,0.4-0.6,1-0.6,1.8v3.7h-1.3V3h1l0.2,1
		h0.1C114.7,3.3,115.4,2.9,116.3,2.9z"/>
	<path class="st0" d="M35.6,20.2h1.2l-1.7,7.1h-1.6L32.1,22H32l-1.4,5.3h-1.6l-1.7-7.1h1.2l1.3,5.8h0.1l1.4-5.3h1.5l1.4,5.3h0.1
		L35.6,20.2z"/>
	<path class="st0" d="M41.1,20c1,0,1.8,0.3,2.4,1c0.6,0.7,0.9,1.7,0.8,3h-5.4c0,0.7,0.3,1.3,0.6,1.7s0.9,0.6,1.6,0.6
		c0.4,0,0.8-0.1,1.2-0.3c0.3-0.2,0.6-0.5,0.8-0.8h1.2c-0.2,0.7-0.6,1.3-1.1,1.6s-1.2,0.6-2,0.6c-1.1,0-1.9-0.3-2.6-1
		c-0.6-0.7-1-1.6-1-2.7c0-1.1,0.3-1.9,1-2.6C39.3,20.4,40.1,20,41.1,20z M39,23.1h4.2c0-0.6-0.2-1-0.6-1.4c-0.4-0.4-0.8-0.6-1.4-0.6
		c-0.6,0-1.1,0.2-1.4,0.5C39.3,22,39.1,22.5,39,23.1z"/>
	<path class="st0" d="M48.9,20c1,0,1.8,0.3,2.4,1c0.6,0.7,0.9,1.7,0.8,3h-5.4c0,0.7,0.3,1.3,0.6,1.7s0.9,0.6,1.6,0.6
		c0.4,0,0.8-0.1,1.2-0.3c0.3-0.2,0.6-0.5,0.8-0.8h1.2c-0.2,0.7-0.6,1.3-1.1,1.6s-1.2,0.6-2,0.6c-1.1,0-1.9-0.3-2.6-1
		c-0.6-0.7-1-1.6-1-2.7c0-1.1,0.3-1.9,1-2.6C47.1,20.4,47.9,20,48.9,20z M46.8,23.1H51c0-0.6-0.2-1-0.6-1.4
		c-0.4-0.4-0.8-0.6-1.4-0.6c-0.6,0-1.1,0.2-1.4,0.5C47.1,22,46.9,22.5,46.8,23.1z"/>
	<path class="st0" d="M57.1,20h0.5v1.3c-0.1,0-0.3-0.1-0.6-0.1c-0.6,0-1,0.2-1.4,0.6c-0.4,0.4-0.6,1-0.6,1.8v3.7h-1.3v-7.1h1l0.2,1
		H55C55.5,20.4,56.2,20,57.1,20z"/>
	<path class="st0" d="M66.4,20c0.8,0,1.4,0.3,1.9,0.8c0.5,0.5,0.7,1.3,0.7,2.2v4.3h-1.3v-4c0-0.7-0.2-1.2-0.5-1.6
		c-0.3-0.4-0.7-0.5-1.3-0.5c-0.5,0-0.9,0.2-1.2,0.5c-0.3,0.3-0.5,0.8-0.5,1.5v4.1h-1.3v-7.1h1l0.2,0.9h0.1
		C64.6,20.4,65.4,20,66.4,20z"/>
	<path class="st0" d="M76.3,25.6c0,0.3,0.1,0.5,0.2,0.6c0.1,0.1,0.3,0.2,0.5,0.2v1h-0.2c-0.8,0-1.2-0.3-1.4-1
		c-0.3,0.3-0.6,0.6-1.1,0.8s-0.9,0.3-1.4,0.3c-0.7,0-1.3-0.2-1.7-0.5c-0.5-0.3-0.7-0.8-0.7-1.5c0-0.7,0.3-1.3,0.9-1.7
		c0.6-0.4,1.4-0.6,2.4-0.7l1.4-0.1v-0.2c0-0.5-0.1-1-0.4-1.3c-0.3-0.3-0.6-0.5-1.1-0.5c-0.5,0-0.8,0.1-1.1,0.4s-0.4,0.6-0.5,1h-1.2
		c0.1-0.7,0.3-1.3,0.8-1.7c0.5-0.5,1.1-0.7,1.9-0.7c0.8,0,1.5,0.2,2,0.8c0.5,0.5,0.8,1.2,0.8,2.1V25.6z M73,26.4
		c0.6,0,1-0.2,1.4-0.5c0.4-0.3,0.6-0.8,0.6-1.5v-0.5L73.9,24c-0.7,0.1-1.2,0.2-1.6,0.4c-0.4,0.2-0.6,0.5-0.6,0.9
		c0,0.3,0.1,0.6,0.4,0.8C72.4,26.3,72.7,26.4,73,26.4z"/>
	<path class="st0" d="M83.8,25.6c0,0.3,0.1,0.5,0.2,0.6c0.1,0.1,0.3,0.2,0.5,0.2v1h-0.2c-0.8,0-1.2-0.3-1.4-1
		c-0.3,0.3-0.6,0.6-1.1,0.8s-0.9,0.3-1.4,0.3c-0.7,0-1.3-0.2-1.7-0.5c-0.5-0.3-0.7-0.8-0.7-1.5c0-0.7,0.3-1.3,0.9-1.7
		c0.6-0.4,1.4-0.6,2.4-0.7l1.4-0.1v-0.2c0-0.5-0.1-1-0.4-1.3C81.9,21.2,81.5,21,81,21c-0.5,0-0.8,0.1-1.1,0.4s-0.4,0.6-0.5,1h-1.2
		c0.1-0.7,0.3-1.3,0.8-1.7c0.5-0.5,1.1-0.7,1.9-0.7c0.8,0,1.5,0.2,2,0.8c0.5,0.5,0.8,1.2,0.8,2.1V25.6z M80.5,26.4
		c0.6,0,1-0.2,1.4-0.5c0.4-0.3,0.6-0.8,0.6-1.5v-0.5L81.4,24c-0.7,0.1-1.2,0.2-1.6,0.4c-0.4,0.2-0.6,0.5-0.6,0.9
		c0,0.3,0.1,0.6,0.4,0.8C79.8,26.3,80.1,26.4,80.5,26.4z"/>
	<path class="st0" d="M89.2,20h0.5v1.3c-0.1,0-0.3-0.1-0.6-0.1c-0.6,0-1,0.2-1.4,0.6c-0.4,0.4-0.6,1-0.6,1.8v3.7h-1.3v-7.1h1l0.2,1
		h0.1C87.6,20.4,88.3,20,89.2,20z"/>
	<path class="st0" d="M29.4,37.2c0.9,0,1.5,0.3,2,0.8c0.5,0.5,0.7,1.3,0.7,2.2v4.3h-1.3v-3.9c0-0.7-0.2-1.3-0.5-1.7
		s-0.8-0.6-1.4-0.6c-0.5,0-0.9,0.2-1.3,0.5c-0.4,0.4-0.5,0.9-0.5,1.5v4.1h-1.3V34.3h1.3v3.8h0.1c0.2-0.3,0.5-0.5,0.9-0.7
		C28.6,37.3,29,37.2,29.4,37.2z"/>
	<path class="st0" d="M37,37.2c1,0,1.8,0.3,2.4,1c0.6,0.7,0.9,1.7,0.8,3h-5.4c0,0.7,0.3,1.3,0.6,1.7s0.9,0.6,1.6,0.6
		c0.4,0,0.8-0.1,1.2-0.3c0.3-0.2,0.6-0.5,0.8-0.8h1.2c-0.2,0.7-0.6,1.3-1.1,1.6s-1.2,0.6-2,0.6c-1.1,0-1.9-0.3-2.6-1
		c-0.6-0.7-1-1.6-1-2.7c0-1.1,0.3-1.9,1-2.6C35.2,37.5,36,37.2,37,37.2z M34.8,40.2H39c0-0.6-0.2-1-0.6-1.4
		c-0.4-0.4-0.8-0.6-1.4-0.6c-0.6,0-1.1,0.2-1.4,0.5C35.2,39.1,35,39.6,34.8,40.2z"/>
	<path class="st0" d="M45.3,44.3c-0.3,0.2-0.7,0.3-1.2,0.3c-1.2,0-1.8-0.6-1.8-1.9v-4.3H41v-0.9h0.4c0.7,0,1.1-0.3,1.1-1v-0.9h1.1
		v1.8h1.7v1h-1.7v4.2c0,0.6,0.2,0.9,0.7,0.9c0.2,0,0.4-0.1,0.6-0.2L45.3,44.3z"/>
	<path class="st0" d="M54.5,44.3c-0.3,0.2-0.7,0.3-1.2,0.3c-1.2,0-1.8-0.6-1.8-1.9v-4.3h-1.4v-0.9h0.4c0.7,0,1.1-0.3,1.1-1v-0.9h1.1
		v1.8h1.7v1h-1.7v4.2c0,0.6,0.2,0.9,0.7,0.9c0.2,0,0.4-0.1,0.6-0.2L54.5,44.3z"/>
	<path class="st0" d="M59.4,37.2c0.9,0,1.5,0.3,2,0.8c0.5,0.5,0.7,1.3,0.7,2.2v4.3h-1.3v-3.9c0-0.7-0.2-1.3-0.5-1.7
		c-0.3-0.4-0.8-0.6-1.4-0.6c-0.5,0-0.9,0.2-1.3,0.5c-0.4,0.4-0.5,0.9-0.5,1.5v4.1h-1.3V34.3h1.3v3.8h0.1c0.2-0.3,0.5-0.5,0.9-0.7
		C58.5,37.3,58.9,37.2,59.4,37.2z"/>
	<path class="st0" d="M66.9,37.2c1,0,1.8,0.3,2.4,1c0.6,0.7,0.9,1.7,0.8,3h-5.4c0,0.7,0.3,1.3,0.6,1.7s0.9,0.6,1.6,0.6
		c0.4,0,0.8-0.1,1.2-0.3c0.3-0.2,0.6-0.5,0.8-0.8h1.2C70,43.1,69.6,43.7,69,44c-0.6,0.4-1.2,0.6-2,0.6c-1.1,0-1.9-0.3-2.6-1
		c-0.6-0.7-1-1.6-1-2.7c0-1.1,0.3-1.9,1-2.6C65.1,37.5,65.9,37.2,66.9,37.2z M64.8,40.2H69c0-0.6-0.2-1-0.6-1.4
		c-0.4-0.4-0.8-0.6-1.4-0.6c-0.6,0-1.1,0.2-1.4,0.5C65.1,39.1,64.9,39.6,64.8,40.2z"/>
	<path class="st0" d="M77.2,42.7c0,0.3,0.1,0.5,0.2,0.6c0.1,0.1,0.3,0.2,0.5,0.2v1h-0.2c-0.8,0-1.2-0.3-1.4-1
		c-0.3,0.3-0.6,0.6-1.1,0.8s-0.9,0.3-1.4,0.3c-0.7,0-1.3-0.2-1.7-0.5c-0.5-0.3-0.7-0.8-0.7-1.5c0-0.7,0.3-1.3,0.9-1.7
		c0.6-0.4,1.4-0.6,2.4-0.7l1.4-0.1V40c0-0.5-0.1-1-0.4-1.3c-0.3-0.3-0.6-0.5-1.1-0.5c-0.5,0-0.8,0.1-1.1,0.4s-0.4,0.6-0.5,1h-1.2
		c0.1-0.7,0.3-1.3,0.8-1.7c0.5-0.5,1.1-0.7,1.9-0.7c0.8,0,1.5,0.2,2,0.8c0.5,0.5,0.8,1.2,0.8,2.1V42.7z M74,43.6
		c0.6,0,1-0.2,1.4-0.5c0.4-0.3,0.6-0.8,0.6-1.5v-0.5l-1.2,0.1c-0.7,0.1-1.2,0.2-1.6,0.4c-0.4,0.2-0.6,0.5-0.6,0.9
		c0,0.3,0.1,0.6,0.4,0.8C73.3,43.5,73.6,43.6,74,43.6z"/>
	<path class="st0" d="M82.6,44.3c-0.3,0.2-0.7,0.3-1.2,0.3c-1.2,0-1.8-0.6-1.8-1.9v-4.3h-1.4v-0.9h0.4c0.7,0,1.1-0.3,1.1-1v-0.9h1.1
		v1.8h1.7v1h-1.7v4.2c0,0.6,0.2,0.9,0.7,0.9c0.2,0,0.4-0.1,0.6-0.2L82.6,44.3z"/>
	<path class="st0" d="M86.7,37.2c1,0,1.8,0.3,2.4,1c0.6,0.7,0.9,1.7,0.8,3h-5.4c0,0.7,0.3,1.3,0.6,1.7s0.9,0.6,1.6,0.6
		c0.4,0,0.8-0.1,1.2-0.3c0.3-0.2,0.6-0.5,0.8-0.8H90c-0.2,0.7-0.6,1.3-1.1,1.6c-0.6,0.4-1.2,0.6-2,0.6c-1.1,0-1.9-0.3-2.6-1
		c-0.6-0.7-1-1.6-1-2.7c0-1.1,0.3-1.9,1-2.6C85,37.5,85.8,37.2,86.7,37.2z M84.6,40.2h4.2c0-0.6-0.2-1-0.6-1.4
		c-0.4-0.4-0.8-0.6-1.4-0.6c-0.6,0-1.1,0.2-1.4,0.5C85,39.1,84.7,39.6,84.6,40.2z"/>
	<path class="st0" d="M95,37.2h0.5v1.3c-0.1,0-0.3-0.1-0.6-0.1c-0.6,0-1,0.2-1.4,0.6c-0.4,0.4-0.6,1-0.6,1.8v3.7h-1.3v-7.1h1l0.2,1
		h0.1C93.4,37.6,94.1,37.2,95,37.2z"/>
</g>
</svg>
