<?xml version="1.0" encoding="utf-8"?>
<!-- Generator: Adobe Illustrator 24.3.0, SVG Export Plug-In . SVG Version: 6.00 Build 0)  -->
<svg version="1.1" id="Laag_1" xmlns="http://www.w3.org/2000/svg" xmlns:xlink="http://www.w3.org/1999/xlink" x="0px" y="0px"
	 width="170.4px" height="62.1px" viewBox="0 0 170.4 62.1" style="enable-background:new 0 0 170.4 62.1;" xml:space="preserve">
<g>
	<path style="fill:#FFFFFF;" d="M7.4,22.4C7.4,23.7,8.3,24,9,24c0.1,0,0.5,0,0.5,0v4.9c-0.6,0.4-1.4,0.8-2.6,0.8
		c-3.2,0-5.5-1.8-5.5-7V16c0-5.3,2.3-7,5.5-7C8.1,9,9,9.4,9.5,9.8v4.8c0,0-0.3,0-0.5,0c-0.7,0-1.5,0.3-1.5,1.7L7.4,22.4L7.4,22.4z
		 M1.6,31.2h5.9v5.9c-4.6-0.5-5.9-3.1-5.9-5.8C1.6,31.3,1.6,31.2,1.6,31.2z M10.5,9.1h6.1v20.6c0,4.8-1.7,7.5-7.6,7.5H8.5v-4.6
		c0,0,0.3,0,0.4,0c0.9,0,1.5-0.4,1.5-1.4V9.1H10.5z"/>
	<path style="fill:#FFFFFF;" d="M25.9,23.2c0,1.3,0.9,1.6,1.5,1.6h0.5v4.9h-0.5c-4.8,0-7.6-3.1-7.6-7.9v-5c0-4.9,2.8-8,7.6-8h0.5v5
		h-0.5c-0.7,0-1.5,0.3-1.5,1.7V23.2z M29,17V9c3.9,0.6,6.1,3.3,6.1,7.7v4.4H27V17H29z M35.1,23v0.1c0,3.2-2.2,5.9-6.1,6.5V23H35.1z"
		/>
	<path style="fill:#FFFFFF;" d="M44.2,29.4h-6V9.1h6V29.4z M53.4,15.9v13.4h-6.1V16.2c0-1.4-0.9-1.7-1.5-1.7c-0.1,0-0.5,0-0.5,0V9.7
		c0.6-0.4,1.4-0.8,2.6-0.8C51.2,8.9,53.4,10.7,53.4,15.9z"/>
	<path style="fill:#FFFFFF;" d="M59.9,7.2c-2,0-3.6-1.6-3.6-3.6S57.9,0,59.9,0s3.6,1.6,3.6,3.6S61.9,7.2,59.9,7.2z M62.9,29.4h-6
		V9.1h6V29.4z"/>
	<path style="fill:#FFFFFF;" d="M72.3,23.2c0,1.3,0.9,1.6,1.5,1.6h0.5v4.9h-0.5c-4.8,0-7.6-3.1-7.6-7.9v-5c0-4.9,2.8-8,7.6-8h0.5v5
		h-0.5c-0.7,0-1.5,0.3-1.5,1.7V23.2z M75.4,17V9c3.9,0.6,6.1,3.3,6.1,7.7v4.4h-8.1V17H75.4z M81.5,23v0.1c0,3.2-2.2,5.9-6.1,6.5V23
		H81.5z"/>
	<path style="fill:#FFFFFF;" d="M83.4,9.5c3,0,3.7-1.2,3.7-4.6h4.2v4.2h3v5.4H83.4V9.5z M94.4,29.6c-6.8,0.7-9-2.3-9-7.6v-6.3h6v7
		c0,1.4,0.9,1.9,3,1.5V29.6z"/>
	<path style="fill:#FFFFFF;" d="M102.6,23.2c0,1.3,0.9,1.6,1.5,1.6h0.5v4.9h-0.5c-4.8,0-7.6-3.1-7.6-7.9v-5c0-4.9,2.8-8,7.6-8h0.5v5
		h-0.5c-0.7,0-1.5,0.3-1.5,1.7V23.2z M105.7,17V9c3.9,0.6,6.1,3.3,6.1,7.7v4.4h-8.1V17H105.7z M111.8,23v0.1c0,3.2-2.2,5.9-6.1,6.5
		V23H111.8z"/>
	<path style="fill:#FFFFFF;" d="M120.9,29.4h-6V9.1h6V29.4z M130.1,15.9v13.4H124V16.2c0-1.4-0.9-1.7-1.5-1.7c-0.1,0-0.5,0-0.5,0
		V9.7c0.6-0.4,1.4-0.8,2.6-0.8C127.9,8.9,130.1,10.7,130.1,15.9z"/>
	<path style="fill:#FFFFFF;" d="M0,41.1h6.4L11,61.3H5.4L0,41.1z M10.9,41.1h6.4L12,60.9L9.3,49.1L10.9,41.1z"/>
	<path style="fill:#FFFFFF;" d="M24.8,54.4c0,1.4,0.9,1.7,1.5,1.7c0.1,0,0.5,0,0.5,0V61c-0.6,0.4-1.4,0.8-2.6,0.8
		c-3.2,0-5.5-1.8-5.5-7v-6.7c0-5.3,2.3-7,5.5-7c1.2,0,2.1,0.4,2.6,0.8v4.8c0,0-0.3,0-0.5,0c-0.7,0-1.5,0.3-1.5,1.7V54.4z M34,61.4
		h-6.1V41.1H34V61.4z"/>
	<path style="fill:#FFFFFF;" d="M43.8,61.4h-6V41.1h6V61.4z M53.1,47.9v13.4H47V48.2c0-1.4-0.9-1.7-1.5-1.7c-0.1,0-0.5,0-0.5,0v-4.8
		c0.6-0.4,1.4-0.8,2.6-0.8C50.8,40.9,53.1,42.7,53.1,47.9z"/>
	<path style="fill:#FFFFFF;" d="M71.5,61.7c-4.8,0-7.6-3.1-7.6-7.9v-5c0-4.9,2.8-8,7.6-8H72v5.4c0,0-0.4,0-0.5,0
		c-0.7,0-1.5,0.3-1.5,1.7v6.7c0,1.4,0.9,1.7,1.5,1.7c0.1,0,0.5,0,0.5,0v5.4C72,61.7,71.5,61.7,71.5,61.7z M79.2,49.3h-6.1V41
		c3.9,0.6,6.1,3.3,6.1,7.7V49.3z M79.2,53.4V54c0,4.3-2.2,7-6.1,7.6v-8.2C73.1,53.4,79.2,53.4,79.2,53.4z"/>
	<path style="fill:#FFFFFF;" d="M81.9,41.1H88v20.4c-3.9-0.6-6.1-3.5-6.1-7.8V41.1z M91.1,41.1h6.1v12.6c0,4.9-2.9,8-7.6,8H89v-5.4
		c0.1,0,0.3,0,0.5,0c0.6,0,1.5-0.3,1.5-1.7L91.1,41.1L91.1,41.1z"/>
	<path style="fill:#FFFFFF;" d="M106.7,61.4h-6.1V34.1h6.1V61.4z"/>
	<path style="fill:#FFFFFF;" d="M109.4,41.5c3,0,3.7-1.2,3.7-4.6h4.2v4.2h3v5.4h-10.9C109.4,46.5,109.4,41.5,109.4,41.5z
		 M120.3,61.6c-6.8,0.7-9-2.3-9-7.6v-6.3h6v7c0,1.4,0.9,1.9,3,1.5V61.6z"/>
	<path style="fill:#FFFFFF;" d="M122.7,41.1h6.1v20.4c-3.9-0.6-6.1-3.5-6.1-7.8C122.7,53.7,122.7,41.1,122.7,41.1z M131.9,41.1h6.1
		v12.6c0,4.9-2.9,8-7.6,8h-0.5v-5.4c0.1,0,0.3,0,0.5,0c0.6,0,1.5-0.3,1.5-1.7V41.1z"/>
	<path style="fill:#FFFFFF;" d="M141,41.1h6.1v20.4c-3.9-0.6-6.1-3.5-6.1-7.8V41.1z M150.2,41.1h6.1v12.6c0,4.9-2.9,8-7.6,8h-0.5
		v-5.4c0.1,0,0.3,0,0.5,0c0.6,0,1.5-0.3,1.5-1.7V41.1z"/>
	<path style="fill:#FFFFFF;" d="M165.7,61.4h-6V41.1h6V61.4z M170.4,41v5.7h-3.6v-5c0.6-0.4,1.4-0.8,2.6-0.8
		C169.7,40.9,170.1,41,170.4,41z"/>
</g>
</svg>
