<?xml version="1.0" encoding="utf-8"?>
<!-- Generator: Adobe Illustrator 24.3.0, SVG Export Plug-In . SVG Version: 6.00 Build 0)  -->
<svg version="1.1" id="Laag_1" xmlns="http://www.w3.org/2000/svg" xmlns:xlink="http://www.w3.org/1999/xlink" x="0px" y="0px"
	 width="190.7px" height="56.9px" viewBox="0 0 190.7 56.9" style="enable-background:new 0 0 190.7 56.9;" xml:space="preserve">
<style type="text/css">
	.st0{fill:#FFFFFF;}
</style>
<g>
	<path class="st0" d="M172.2,33.8h-20v-9.7h16.8v-7.3h-16.8V7.7h19.5V0H144v41.5h28.2V33.8z M171.7,41h-27.3V0.5h26.7v6.8h-19.5
		v10.1h16.8v6.4h-16.8v10.6h20V41z"/>
	<path class="st0" d="M70.2,35.6c0,3.8,1.3,7.2,3.6,9.7c2.3,2.5,5.6,3.9,9.1,3.9c7.2,0,12.6-5.9,12.6-13.6c0-7.8-5.4-13.6-12.7-13.6
		C75.6,22,70.2,27.8,70.2,35.6z M95.1,35.6c0,3.7-1.2,7-3.5,9.4c-2.2,2.4-5.3,3.8-8.7,3.8c-3.4,0-6.5-1.3-8.8-3.8
		c-2.3-2.4-3.5-5.8-3.5-9.4c0-7.5,5.3-13.2,12.3-13.2C89.8,22.4,95.1,28.1,95.1,35.6z"/>
	<path class="st0" d="M67.8,20.4c-3.8,3.9-6,9.3-6,15.2c0,5.9,2.1,11.3,6,15.2c3.9,3.9,9.2,6.1,15.1,6.1c11.9,0,20.9-9.2,20.9-21.3
		c0-12.2-9-21.3-21-21.3C77,14.3,71.7,16.5,67.8,20.4z M103.4,35.6c0,11.9-8.8,20.9-20.5,20.9c-5.7,0-11-2.1-14.7-6
		c-3.8-3.8-5.8-9.1-5.8-14.9c0-5.8,2.1-11.1,5.8-14.9c3.8-3.9,9-6,14.7-6C94.6,14.7,103.4,23.7,103.4,35.6z"/>
	<path class="st0" d="M55.6,35.2H35.7V1.8h-8.8v41.5h28.8V35.2z M55.2,42.8H27.3V2.3h7.9v33.3h19.9V42.8z"/>
	<path class="st0" d="M139.1,4.5h-8.9l-9.6,32.4h-0.3l-9.7-32.4h-9L114.7,46H126L139.1,4.5z M115,45.5L102.2,5h8l9.7,32.4h1L130.5,5
		h8l-12.8,40.6H115z"/>
</g>
</svg>
