<?xml version="1.0" encoding="utf-8"?>
<!-- Generator: Adobe Illustrator 24.3.0, SVG Export Plug-In . SVG Version: 6.00 Build 0)  -->
<svg version="1.1" id="Laag_1" xmlns="http://www.w3.org/2000/svg" xmlns:xlink="http://www.w3.org/1999/xlink" x="0px" y="0px"
	 width="9.4px" height="254.5px" viewBox="0 0 9.4 254.5" style="enable-background:new 0 0 9.4 254.5;" xml:space="preserve">
<g>
	<path style="fill:#B0AFAE;" d="M9.2,0v2H0.2V0H9.2z"/>
	<path style="fill:#B0AFAE;" d="M0.2,10.5L5.8,6H0.2V4h9.1v1.8l-5.6,4.4h5.6v2.1H0.2V10.5z"/>
	<path style="fill:#B0AFAE;" d="M7.3,15.8v-2.3h1.9v6.7H7.3v-2.4H0.2v-2.1H7.3z"/>
	<path style="fill:#B0AFAE;" d="M9.2,21.4v5.8H7.3v-3.7H5.7v3H3.7v-3H2.1v3.7H0.2v-5.8H9.2z"/>
	<path style="fill:#B0AFAE;" d="M9.2,28.8v3.6c0,1.7-1.2,2.8-2.7,2.8c-1.2,0-1.9-0.6-2.3-1.8l-4,3.2v-2.5l3.8-3v-0.3H0.2v-2H9.2z
		 M5.6,32.1c0,0.6,0.3,1,0.9,1c0.6,0,0.9-0.4,0.9-1v-1.3H5.6V32.1z"/>
	<path style="fill:#B0AFAE;" d="M0.2,43.8l5.6-4.4H0.2v-2h9.1v1.8l-5.6,4.4h5.6v2.1H0.2V43.8z"/>
	<path style="fill:#B0AFAE;" d="M9.2,50.4v1.9l-9.1,3.9V54l1.9-0.8v-3.8l-1.9-0.8v-2.1L9.2,50.4z M3.8,52.5l2.7-1.1l-2.7-1.1V52.5z"
		/>
	<path style="fill:#B0AFAE;" d="M7.3,57.8v-2.3h1.9v6.7H7.3v-2.4H0.2v-2.1H7.3z"/>
	<path style="fill:#B0AFAE;" d="M9.2,63.5v2H0.2v-2H9.2z"/>
	<path style="fill:#B0AFAE;" d="M4.7,67c2.6,0,4.7,2.1,4.7,4.7c0,2.6-2.1,4.7-4.7,4.7S0,74.3,0,71.7C0,69.1,2.1,67,4.7,67z
		 M4.7,74.3c1.5,0,2.7-1.2,2.7-2.6c0-1.5-1.3-2.7-2.7-2.7C3.2,69,2,70.2,2,71.7C2,73.1,3.2,74.3,4.7,74.3z"/>
	<path style="fill:#B0AFAE;" d="M0.2,84.3l5.6-4.4H0.2v-2h9.1v1.8L3.6,84h5.6V86H0.2V84.3z"/>
	<path style="fill:#B0AFAE;" d="M9.2,90.9v1.9l-9.1,3.9v-2.1l1.9-0.8v-3.8l-1.9-0.8V87L9.2,90.9z M3.8,93l2.7-1.1l-2.7-1.1V93z"/>
	<path style="fill:#B0AFAE;" d="M9.2,97.6v2H2.1v3.8H0.2v-5.8H9.2z"/>
	<path style="fill:#B0AFAE;" d="M1.6,106.5l1.3,1.6c-0.7,0.4-1,1.2-1,1.9c0,0.7,0.3,1.1,0.8,1.1c0.5,0,0.8-0.4,1.1-1.3l0.2-0.6
		c0.5-1.5,1.4-2.3,2.6-2.3c1.8,0,2.8,1.3,2.8,3.1c0,1.1-0.3,2.1-1.3,2.9l-1.4-1.3c0.5-0.4,0.8-1,0.8-1.6c0-0.6-0.2-1.1-0.7-1.1
		c-0.5,0-0.7,0.4-1,1.4L5.5,111c-0.5,1.3-1.3,2.2-2.7,2.2c-1.7,0-2.8-1.3-2.8-3.3C0,108.5,0.6,107.2,1.6,106.5z"/>
	<path style="fill:#B0AFAE;" d="M4.7,114.1c2.6,0,4.7,2.1,4.7,4.7c0,1.9-1,3.5-2.5,4.3l-1-1.8c0.9-0.5,1.5-1.3,1.5-2.5
		c0-1.5-1.3-2.7-2.7-2.7c-1.5,0-2.7,1.2-2.7,2.7c0,1.1,0.6,2,1.5,2.5l-1,1.8C1,122.3,0,120.7,0,118.8C0,116.2,2.1,114.1,4.7,114.1z"
		/>
	<path style="fill:#B0AFAE;" d="M9.2,124.3v2H0.2v-2H9.2z"/>
	<path style="fill:#B0AFAE;" d="M9.2,128.2v5.8H7.3v-3.7H5.7v3H3.7v-3H2.1v3.7H0.2v-5.8H9.2z"/>
	<path style="fill:#B0AFAE;" d="M0.2,142.1l5.6-4.4H0.2v-2h9.1v1.8l-5.6,4.4h5.6v2.1H0.2V142.1z"/>
	<path style="fill:#B0AFAE;" d="M4.7,145.2c2.6,0,4.7,2.1,4.7,4.7c0,1.9-1,3.5-2.5,4.3l-1-1.8c0.9-0.5,1.5-1.3,1.5-2.5
		c0-1.5-1.3-2.7-2.7-2.7c-1.5,0-2.7,1.2-2.7,2.7c0,1.1,0.6,2,1.5,2.5l-1,1.8C1,153.4,0,151.9,0,150C0,147.3,2.1,145.2,4.7,145.2z"/>
	<path style="fill:#B0AFAE;" d="M9.2,155.4v5.8H7.3v-3.7H5.7v3H3.7v-3H2.1v3.7H0.2v-5.8H9.2z"/>
	<path style="fill:#B0AFAE;" d="M9.2,165.6v5.6H7.3v-3.6H5.7v2.8H3.7v-2.8H0.2v-2H9.2z"/>
	<path style="fill:#B0AFAE;" d="M9.2,172.6v2H0.2v-2H9.2z"/>
	<path style="fill:#B0AFAE;" d="M9.2,176.6v2H2.1v3.8H0.2v-5.8H9.2z"/>
	<path style="fill:#B0AFAE;" d="M5.8,185.7H0.2v-2h9.1v1.9l-3.9,2.9l3.9,2.9v1.9H0.2V191h5.6l-3.7-2.7L5.8,185.7z"/>
	<path style="fill:#B0AFAE;" d="M9.2,197.8v5.6H7.3v-3.6H5.7v2.8H3.7v-2.8H0.2v-2H9.2z"/>
	<path style="fill:#B0AFAE;" d="M9.2,204.8v5.8H7.3v-3.7H5.7v3H3.7v-3H2.1v3.7H0.2v-5.8H9.2z"/>
	<path style="fill:#B0AFAE;" d="M1.6,211.5l1.3,1.6c-0.7,0.4-1,1.2-1,1.9c0,0.7,0.3,1.1,0.8,1.1c0.5,0,0.8-0.4,1.1-1.3l0.2-0.6
		c0.5-1.5,1.4-2.3,2.6-2.3c1.8,0,2.8,1.3,2.8,3.1c0,1.1-0.3,2.1-1.3,2.9l-1.4-1.3c0.5-0.4,0.8-1,0.8-1.6c0-0.6-0.2-1.1-0.7-1.1
		c-0.5,0-0.7,0.5-1,1.4L5.5,216c-0.5,1.3-1.3,2.2-2.7,2.2c-1.7,0-2.8-1.3-2.8-3.3C0,213.5,0.6,212.2,1.6,211.5z"/>
	<path style="fill:#B0AFAE;" d="M7.3,221.1v-2.3h1.9v6.7H7.3v-2.4H0.2v-2.1H7.3z"/>
	<path style="fill:#B0AFAE;" d="M9.2,226.8v2H0.2v-2H9.2z"/>
	<path style="fill:#B0AFAE;" d="M9.2,229.8v2.2l-6.1,2.4l6.1,2.4v2.2l-9.1-3.7v-1.8L9.2,229.8z"/>
	<path style="fill:#B0AFAE;" d="M9.2,241.9v1.9l-9.1,3.9v-2.1l1.9-0.8V241l-1.9-0.8V238L9.2,241.9z M3.8,244l2.7-1.1l-2.7-1.1V244z"
		/>
	<path style="fill:#B0AFAE;" d="M9.2,248.6v2H2.1v3.8H0.2v-5.8H9.2z"/>
</g>
</svg>
