<?xml version="1.0" encoding="utf-8"?>
<!-- Generator: Adobe Illustrator 24.3.0, SVG Export Plug-In . SVG Version: 6.00 Build 0)  -->
<svg version="1.1" id="Layer_1" xmlns="http://www.w3.org/2000/svg" xmlns:xlink="http://www.w3.org/1999/xlink" x="0px" y="0px"
	 width="750.7px" height="750.2px" viewBox="0 0 750.7 750.2" style="enable-background:new 0 0 750.7 750.2;" xml:space="preserve"
	>
<style type="text/css">
	.st0{fill:#FCE4D1;}
</style>
<g>
	<path class="st0" d="M210.8,436.2h10V321.4h-10V436.2z M404.7,368.2l-6.2-2.8c-10.6-4.7-15.6-8-15.6-14c0-5.2,4.6-8,9-8
		c5.4,0,9,1.5,14.8,8.6l17.6-18.6c-8.9-10.4-17.9-13.8-29.2-14.4l21.4-29.6h-3.2l-73.4,101.2v-69.4h-10v83.2l-3.3,4.5l-82.2-89
		v116.1h10v-91.3l66.5,72.1l-31.9,43.9h3.4l67.7-93.5c4.2,8.8,12.1,16.2,23.6,21.4l6.5,2.9c9.8,4.4,13.5,7.7,13.5,12.9
		c0,5.4-3.4,8.3-11.1,8.3c-8,0-16.3-6.4-21.3-14.3l-19.7,16.1c8,15,23,22.6,41.5,22.6c21.5,0,36.8-13.5,36.8-34.4
		C430,387,420.7,375.4,404.7,368.2 M492.7,344.1c12.4,0,22.8,6.7,28.7,16.1l19.7-16.1C530.3,329,512.6,319,492.7,319
		c-32.6,0-59.1,26.6-59.1,59.1c0,32.6,26.6,59.1,59.1,59.1c19.9,0,37.6-9.9,48.4-25.1l-19.7-16.1c-5.9,9.5-16.3,16.1-28.7,16.1
		c-18.7,0-32.9-15.5-32.9-34C459.8,359.6,474,344.1,492.7,344.1"/>
	<g>
		<path class="st0" d="M375.1,625.4c-137.9,0-250.1-112.2-250.1-250.2s112.2-250.1,250.1-250.1s250.1,112.2,250.1,250.1
			S513,625.4,375.1,625.4z M375.1,130.5c-134.9,0-244.7,109.8-244.7,244.7c0,134.9,109.8,244.7,244.7,244.7
			c134.9,0,244.7-109.8,244.7-244.7C619.8,240.3,510,130.5,375.1,130.5z"/>
	</g>
</g>
<g>
	<path class="st0" d="M166.5,63.6l10.3-6.7l29.7,45.9l-10.3,6.7L166.5,63.6z"/>
	<path class="st0" d="M212.6,66.3L225.1,92l-11.1,5.4l-24.2-49.7l43.8,11.1l-12.5-25.7l11.1-5.4l24.2,49.7L212.6,66.3z"/>
	<path class="st0" d="M258,65.7l6.6-10.1c3.4,2.9,8.1,4.6,11.7,3.4c3.5-1.1,4.6-2.9,3.8-5.3c-0.7-2.4-2.9-3.3-7.9-3.9l-3.4-0.4
		c-9-1-15.1-5.5-17.4-12.5c-2.9-9.1,2.8-17.4,11.1-20.1c5.8-1.8,10.6-1.8,16.7,1.9l-5.3,10.9c-3.7-2.4-5.5-2.5-7.9-1.8
		c-2,0.6-3.6,2.5-2.9,4.9c0.9,2.7,3.6,3.5,9,4.1l3.2,0.4c8.2,1,14,4.9,16.3,12.1c3,9.4-2,17.7-11.7,20.7
		C271.5,72.7,263.7,71.3,258,65.7z"/>
	<path class="st0" d="M294.6,36.1c-2.5-15.2,7.9-29.6,23.1-32.1c9.3-1.5,18.3,1.8,24.5,8l-8,9c-3.5-4-8.8-6.3-14.6-5.3
		c-8.7,1.4-14.2,9.7-12.8,18.4c1.4,8.7,9.2,14.8,17.9,13.4c5.8-0.9,10.1-4.8,12.2-9.7l10.4,6c-3.9,7.9-11.4,13.9-20.7,15.4
		C311.5,61.7,297.1,51.3,294.6,36.1z"/>
	<path class="st0" d="M352.2,0.9l12.3-0.5l2.4,54.6l-12.3,0.5L352.2,0.9z"/>
	<path class="st0" d="M379.3,0l33.8,1.8L412.5,14L391,12.8l-0.5,9.2l16.9,0.9l-0.6,11.8l-16.9-0.9l-0.5,9.2l21.5,1.2l-0.7,12.1
		l-33.8-1.8L379.3,0z"/>
	<path class="st0" d="M434.8,31.4l-5.8,28L417,56.9l11.2-54.1l27.9,35.6l5.8-28l12.1,2.5L462.7,67L434.8,31.4z"/>
	<path class="st0" d="M478.7,42.5c5.6-14.3,21.9-21.5,36.2-15.9c8.8,3.4,14.9,10.8,17,19.4l-11.5,3.7c-1-5.2-4.4-9.9-9.9-12
		c-8.3-3.2-17.2,1.2-20.3,9.3c-3.2,8.2,0.4,17.4,8.6,20.6c5.5,2.1,11.2,1,15.4-2.2l5.9,10.5c-7.3,4.8-16.9,6.1-25.6,2.7
		C480.2,73.2,473.1,56.9,478.7,42.5z"/>
	<path class="st0" d="M547.3,41.8l29.4,16.8l-6,10.6L552,58.5l-4.6,8l14.7,8.4l-5.9,10.3l-14.7-8.4l-4.6,8l18.7,10.7l-6,10.6
		l-29.4-16.8L547.3,41.8z"/>
	<path class="st0" d="M582.2,97.3c3.7-4.6,10.6-5.4,15.3-1.7c4.7,3.7,5.4,10.7,1.8,15.3c-3.7,4.6-10.6,5.4-15.3,1.7
		C579.4,108.8,578.6,101.9,582.2,97.3z M593.9,106.6c1.7-2.1,1.4-4.5-0.4-5.9c-1.8-1.4-4.2-1.1-5.9,1c-1.7,2.1-1.4,4.5,0.4,5.9
		C589.9,109,592.3,108.6,593.9,106.6z"/>
	<path class="st0" d="M638.6,108.4l8.6,8.8l-39.1,38.2l-8.6-8.8L638.6,108.4z"/>
	<path class="st0" d="M645.1,154.2l-22.7,17.4l-7.5-9.8l43.9-33.6l-2.2,45.1l22.7-17.4l7.5,9.8l-43.9,33.6L645.1,154.2z"/>
	<path class="st0" d="M689.5,194.3l-6.3-11.4l10.6-5.9l18.7,33.7l-10.6,5.9l-6.4-11.5l-37.2,20.6l-6-10.8L689.5,194.3z"/>
	<path class="st0" d="M717.6,222l12.5,31.5l-11.3,4.5l-8-20l-8.6,3.4l6.3,15.7l-11,4.4l-6.3-15.7l-8.6,3.4l8,20l-11.3,4.5
		l-12.5-31.5L717.6,222z"/>
	<path class="st0" d="M706.1,287.1l0-0.1l-21.5,5.3l-2.9-12l53.1-13.1l4.9,20c2.1,8.7-3.2,17.5-11.9,19.7
		c-6.7,1.6-13.4-1.1-17.3-6.6l-18.2,22.8l-3.5-14.3L706.1,287.1z M717.8,291.2c0.8,3.2,3.7,5,6.6,4.2c2.9-0.7,4.7-3.6,3.9-6.8
		l-1.7-6.7l-10.5,2.6L717.8,291.2z"/>
	<path class="st0" d="M721.8,335.5l-28.5,2.3l-1-12.3l55.1-4.5l-26.3,36.8l28.5-2.3l1,12.3l-55.1,4.5L721.8,335.5z"/>
	<path class="st0" d="M749.3,406.4L692,428.7l1.1-12.9l8.8-3.2l1.7-20.1l-8.1-4.6l1.1-12.9L749.3,406.4z M712.2,408.5l11.8-4.2
		l-10.9-6.1L712.2,408.5z"/>
	<path class="st0" d="M731.4,443.2l2.7-12.8l11.9,2.5l-7.9,37.8l-11.9-2.5l2.7-12.9l-41.6-8.7l2.5-12.1L731.4,443.2z"/>
	<path class="st0" d="M734.8,481.2l-3.7,11.8l-52.2-16.3l3.7-11.8L734.8,481.2z"/>
	<path class="st0" d="M702.7,494.7c14,6.4,20.2,23,13.8,37s-23,20.2-37,13.8c-14-6.4-20.2-23-13.8-37S688.7,488.3,702.7,494.7z
		 M684.6,534.3c8,3.7,17.4,0.6,21.1-7.4c3.7-8.1-0.2-17.2-8.2-20.8c-8-3.7-17.4-0.6-21.1,7.4C672.7,521.5,676.6,530.6,684.6,534.3z"
		/>
	<path class="st0" d="M667.6,565.6l-23.4-16.3l7-10.1l45.4,31.6l-43.7,11.6l23.4,16.3l-7,10.1L624,577.3L667.6,565.6z"/>
	<path class="st0" d="M643.6,637.9l-58.3-19.4l9.1-9.2l8.8,3.1l14.1-14.4l-3.3-8.7l9.1-9.2L643.6,637.9z M613.7,615.8l11.8,4.3
		l-4.5-11.7L613.7,615.8z"/>
	<path class="st0" d="M615.7,663.2l-9.8,7.5L580,637.1l-16.8,13l-7.5-9.7l26.6-20.5L615.7,663.2z"/>
	<path class="st0" d="M553,672.7c2.9,5.1,0.9,11.9-4.3,14.8c-5.3,2.9-12,1-14.8-4.2c-2.9-5.1-1-11.9,4.3-14.8
		C543.4,665.7,550.1,667.6,553,672.7z M540,680c1.3,2.3,3.6,3,5.6,1.9c2-1.1,2.6-3.5,1.3-5.8c-1.3-2.3-3.7-3-5.6-1.9
		C539.3,675.3,538.7,677.7,540,680z"/>
	<path class="st0" d="M508.3,678.2l-6,10.4c-3.6-2.7-8.3-4.1-11.8-2.8c-3.4,1.3-4.4,3.1-3.5,5.5c0.9,2.3,3.1,3.1,8.1,3.5l3.4,0.2
		c9,0.6,15.4,4.7,18,11.6c3.4,8.9-1.9,17.6-10,20.6c-5.7,2.1-10.5,2.4-16.8-1l4.7-11.1c3.8,2.2,5.6,2.3,8,1.4c1.9-0.7,3.5-2.7,2.6-5
		c-1-2.7-3.8-3.3-9.2-3.6l-3.2-0.2c-8.3-0.5-14.3-4.1-16.9-11.2c-3.5-9.2,1.1-17.8,10.6-21.3C494.4,671.9,502.3,672.9,508.3,678.2z"
		/>
	<path class="st0" d="M473.2,709.7c3.3,15-6.3,30-21.4,33.3c-9.2,2-18.4-0.8-24.9-6.7l7.5-9.4c3.7,3.8,9.1,5.8,14.9,4.6
		c8.7-1.9,13.6-10.5,11.8-19c-1.9-8.6-10-14.3-18.6-12.4c-5.7,1.2-9.9,5.4-11.6,10.3l-10.7-5.5c3.4-8.1,10.6-14.5,19.8-16.4
		C455,685.1,469.9,694.6,473.2,709.7z"/>
	<path class="st0" d="M417.7,747.9l-12.3,1.2l-5.3-54.4l12.3-1.2L417.7,747.9z"/>
	<path class="st0" d="M390.5,750.2l-33.9-0.1l0-12.2l21.6,0l0-9.2l-16.9,0l0-11.9l16.9,0l0-9.2l-21.6,0l0-12.2l33.9,0.1L390.5,750.2
		z"/>
	<path class="st0" d="M333.5,721.8l4.3-28.2l12.2,1.9l-8.3,54.7L311.9,716l-4.3,28.2l-12.2-1.9l8.3-54.7L333.5,721.8z"/>
	<path class="st0" d="M289.1,712.9c-4.8,14.6-20.7,22.6-35.3,17.8c-8.9-3-15.4-10-18-18.4L247,708c1.2,5.1,4.9,9.7,10.5,11.5
		c8.4,2.8,17.1-2.1,19.8-10.4c2.8-8.3-1.3-17.4-9.7-20.2c-5.6-1.8-11.2-0.4-15.3,3l-6.5-10.2c7.1-5.2,16.5-7,25.4-4.1
		C286,682.5,293.9,698.3,289.1,712.9z"/>
	<path class="st0" d="M220.6,717.3l-30.3-15.2l5.5-10.9l19.3,9.7l4.1-8.3l-15.1-7.6l5.3-10.6l15.1,7.6l4.1-8.3l-19.3-9.7l5.5-10.9
		l30.3,15.2L220.6,717.3z"/>
	<path class="st0" d="M182.8,663.8c-3.4,4.8-10.3,6-15.2,2.5c-4.9-3.5-6-10.4-2.6-15.2c3.4-4.8,10.3-6,15.2-2.5
		C185.1,652.1,186.2,659,182.8,663.8z M170.7,655.1c-1.5,2.2-1.2,4.6,0.7,5.9c1.8,1.3,4.3,0.9,5.8-1.3c1.5-2.2,1.1-4.6-0.7-5.9
		C174.6,652.5,172.2,653,170.7,655.1z"/>
	<path class="st0" d="M125,655.1l-23.2-22.5l8.5-8.7l14.4,13.9l6.4-6.6L120,620.4l8.3-8.5l11.1,10.7l14.9-15.4l8.8,8.6L125,655.1z"
		/>
	<path class="st0" d="M94,623.5l-8-9.4l41.6-35.5l8,9.4L94,623.5z"/>
	<path class="st0" d="M76.9,603l-7.1-10.1l34.6-24.5l-12.3-17.3l10-7.1l19.4,27.4L76.9,603z"/>
	<path class="st0" d="M49.5,564.4l12.6-36.5l-36.5-12.5l49.7-24.3l5.4,11.1L56.5,514l20,6.9l-6.9,20L93.7,529l5.4,11.1L49.5,564.4z"
		/>
	<path class="st0" d="M43.7,477.2c-5.7,1.5-11.8-1.9-13.3-7.7c-1.6-5.8,1.9-11.8,7.6-13.4c5.7-1.6,11.8,1.9,13.3,7.7
		C52.8,469.5,49.3,475.6,43.7,477.2z M39.7,462.8c-2.6,0.7-3.8,2.8-3.2,5c0.6,2.2,2.7,3.4,5.3,2.7c2.6-0.7,3.8-2.9,3.2-5
		C44.4,463.2,42.3,462.1,39.7,462.8z"/>
	<path class="st0" d="M4.4,433.9l-3.8-32.1l12.1-1.4l2.3,19.9l9.2-1.1l-1.8-15.3l11.8-1.4l1.8,15.3l21.3-2.5l1.4,12.2L4.4,433.9z"/>
	<path class="st0" d="M0,388.6l0.3-33.9l12.2,0.1l-0.2,21.6l9.2,0.1l0.1-16.9l11.9,0.1l-0.1,16.9l9.2,0.1l0.2-21.6l12.2,0.1
		l-0.3,33.9L0,388.6z"/>
	<path class="st0" d="M45.1,350.6l-6.3-10.2c4.1-1.9,7.5-5.4,8-9.1c0.5-3.6-0.7-5.4-3.2-5.7c-2.4-0.3-4.2,1.2-6.9,5.5L35,334
		c-4.7,7.7-11.4,11.4-18.7,10.4c-9.5-1.3-14.6-9.9-13.5-18.6c0.8-6,2.9-10.4,8.8-14.3l7.6,9.4c-3.7,2.3-4.6,3.9-5,6.4
		c-0.3,2.1,0.7,4.4,3.2,4.7c2.8,0.4,4.7-1.8,7.5-6.5l1.7-2.7c4.3-7,10.3-10.7,17.8-9.7c9.8,1.3,15.2,9.3,13.8,19.4
		C57.1,341.3,52.6,347.8,45.1,350.6z"/>
	<path class="st0" d="M22.1,291.4l-3.2,12.7l-11.8-3l9.5-37.4l11.8,3l-3.3,12.8L66.3,290l-3,11.9L22.1,291.4z"/>
	<path class="st0" d="M20.5,253.2l4.2-11.6l51.4,18.6l-4.2,11.6L20.5,253.2z"/>
	<path class="st0" d="M27.4,232.5l6.1-12.3l29.9,1.2l-19.2-22.9l6.1-12.3l38.2,47.6L27.4,232.5z"/>
	<path class="st0" d="M60.8,169.5l61,7.7l-7.1,10.8l-9.2-1.4l-11,16.9l4.9,7.9l-7.1,10.8L60.8,169.5z M94.4,185.3l-12.4-1.9
		l6.7,10.6L94.4,185.3z"/>
	<path class="st0" d="M83.3,139.2l8.1-9.3l31.9,28l14-16l9.2,8.1l-22.1,25.2L83.3,139.2z"/>
	<path class="st0" d="M143,117.7c-3.8-4.5-3.2-11.5,1.4-15.3c4.6-3.9,11.5-3.2,15.3,1.3c3.8,4.5,3.3,11.5-1.3,15.3
		C153.8,122.8,146.8,122.2,143,117.7z M154.4,108.1c-1.7-2-4.1-2.3-5.9-0.8c-1.7,1.4-1.9,3.9-0.2,5.9c1.7,2,4.2,2.2,5.9,0.8
		C156,112.6,156.1,110.1,154.4,108.1z"/>
</g>
</svg>
