<?xml version="1.0" encoding="utf-8"?>
<!-- Generator: Adobe Illustrator 24.0.0, SVG Export Plug-In . SVG Version: 6.00 Build 0)  -->
<svg version="1.1" id="Laag_1" xmlns="http://www.w3.org/2000/svg" xmlns:xlink="http://www.w3.org/1999/xlink" x="0px" y="0px"
	 width="64.5px" height="16.6px" viewBox="0 0 64.5 16.6" style="enable-background:new 0 0 64.5 16.6;" xml:space="preserve">
<style type="text/css">
	.st0{fill:#1D1D1B;}
</style>
<g>
	<path class="st0" d="M0.4,0.2h6.3v1.2H1.8v4h4.3v1.2H1.8v4.7h5v1.2H0.4V0.2z"/>
	<path class="st0" d="M11.3,7.9L8.5,3.7H10c0,0,2,3,2.1,3.2l2-3.2h1.4l-2.8,4.1l3.2,4.7h-1.5L12,8.8l-2.3,3.7H8.3L11.3,7.9z"/>
	<path class="st0" d="M17.5,3.7h1.3v1c0.5-0.6,1.3-1.2,2.6-1.2c2.2,0,3.6,1.7,3.6,4.6c0,2.8-1.6,4.7-3.9,4.7c-1.3,0-1.9-0.5-2.3-0.8
		v4.6h-1.3V3.7z M23.6,8.1c0-2-0.8-3.5-2.4-3.5c-1.2,0-2,0.9-2.3,1.2v4.9c0.4,0.4,1,0.8,2.1,0.8C22.7,11.6,23.6,10.1,23.6,8.1z"/>
	<path class="st0" d="M26.4,8.1c0-2.1,1.1-4.7,4-4.7s4.2,2.6,4.2,4.6c0,2.1-1.2,4.7-4.2,4.7S26.4,10.2,26.4,8.1z M33.3,8.1
		c0-1.9-1-3.5-2.8-3.5c-1.8,0-2.6,1.6-2.6,3.5s0.8,3.5,2.7,3.5C32.4,11.6,33.3,10,33.3,8.1z"/>
	<path class="st0" d="M35.8,11.9l0.6-1c0.3,0.2,1.1,0.7,2.2,0.7c1.1,0,1.8-0.5,1.8-1.3c0-0.8-0.7-1.2-2-1.7C37.1,8,36,7.4,36,5.9
		c0-1.4,1-2.4,2.8-2.4c1.5,0,2.3,0.6,2.6,0.8l-0.7,1c-0.3-0.2-1-0.7-2-0.7c-0.9,0-1.5,0.5-1.5,1.2c0,0.8,0.7,1.2,1.7,1.6
		c1.4,0.6,2.8,1.2,2.8,2.7c0,1.6-1.2,2.6-3.2,2.6C37.4,12.8,36.4,12.3,35.8,11.9z"/>
	<path class="st0" d="M43.3,1c0-0.6,0.4-1,1-1s1,0.4,1,1c0,0.6-0.4,1-1,1S43.3,1.6,43.3,1z M43.6,3.7H45v8.9h-1.4V3.7z"/>
	<path class="st0" d="M48.1,10.4V4.7h-1.5V3.7h1.5V1.1h1.3v2.5h2.2v1.1h-2.2v5.5c0,0.9,0.3,1.3,1,1.3c0.6,0,1.1-0.3,1.2-0.4l0.5,1
		c-0.3,0.2-0.9,0.5-1.9,0.5C48.8,12.7,48.1,11.9,48.1,10.4z"/>
	<path class="st0" d="M53.4,1c0-0.6,0.4-1,1-1c0.6,0,1,0.4,1,1c0,0.6-0.4,1-1,1C53.9,2,53.4,1.6,53.4,1z M53.7,3.7h1.4v8.9h-1.4V3.7
		z"/>
	<path class="st0" d="M57,8c0-2.6,1.6-4.6,4-4.6c2.2,0,3.5,1.6,3.5,4c0,0.2,0,0.4,0,0.6h-6c0,1.9,0.8,3.5,2.8,3.5
		c1.2,0,2.1-0.6,2.5-0.8l0.6,1.1c-0.4,0.3-1.4,0.9-3,0.9C58.4,12.7,57,10.7,57,8z M63.1,7c0-1.3-0.6-2.4-2.1-2.4
		c-1.4,0-2.2,1-2.4,2.4H63.1z"/>
</g>
</svg>
