<?xml version="1.0" encoding="utf-8"?>
<!-- Generator: Adobe Illustrator 24.3.0, SVG Export Plug-In . SVG Version: 6.00 Build 0)  -->
<svg version="1.1" id="Laag_1" xmlns="http://www.w3.org/2000/svg" xmlns:xlink="http://www.w3.org/1999/xlink" x="0px" y="0px"
	 width="88.8px" height="45.5px" viewBox="0 0 88.8 45.5" style="enable-background:new 0 0 88.8 45.5;" xml:space="preserve">
<style type="text/css">
	.st0{fill:#B0AFAE;}
</style>
<polygon class="st0" points="2,1.1 -0.1,1.1 0.9,0 3.1,0 3.1,11.4 2,11.4 "/>
<polygon class="st0" points="7,1.1 4.9,1.1 5.8,0 8.1,0 8.1,11.4 7,11.4 "/>
<rect x="14.8" y="5.1" class="st0" width="6.8" height="1.2"/>
<path class="st0" d="M34.8,11.4h-7.2v-0.5c0-2.4,2.2-3.5,3.8-4.8c1.4-1.1,2.1-1.6,2.1-3.1c0-1.3-1-2.1-2.3-2.1
	c-1.3,0-2.5,0.8-2.6,2.4h-1.2c0-2.2,1.6-3.5,3.7-3.5c1.9,0,3.5,1.1,3.5,3.3c0,1.6-0.7,2.5-2.7,4c-1.5,1.1-2.9,1.8-3.1,3.2h6V11.4z"
	/>
<path class="st0" d="M43.6,11.4h-7.2v-0.5c0-2.4,2.2-3.5,3.8-4.8c1.4-1.1,2.1-1.6,2.1-3.1c0-1.3-1-2.1-2.3-2.1
	c-1.3,0-2.5,0.8-2.6,2.4h-1.2c0-2.2,1.6-3.5,3.7-3.5c1.9,0,3.5,1.1,3.5,3.3c0,1.6-0.7,2.5-2.7,4c-1.5,1.1-2.9,1.8-3.1,3.2h6V11.4z"
	/>
<g>
	<path class="st0" d="M9.8,28.4l-7.3-9.3v9.3H1.3V17h1.1l7.3,9.3V17h1.2v11.4H9.8z"/>
	<path class="st0" d="M13.2,22.7c0-3.3,2.6-5.9,5.9-5.9s5.9,2.6,5.9,5.9s-2.6,5.9-5.9,5.9S13.2,26,13.2,22.7z M23.8,22.7
		c0-2.7-2-4.7-4.6-4.7s-4.6,2.1-4.6,4.7s2,4.7,4.6,4.7S23.8,25.4,23.8,22.7z"/>
	<path class="st0" d="M25.6,17H27l4,9.4l4-9.4h1.3l-4.9,11.4h-1L25.6,17z"/>
	<path class="st0" d="M38.2,17h6.5v1.2h-5.3V22h4.3v1.2h-4.3v4.1h5.3v1.2h-6.5V17z"/>
	<path class="st0" d="M48.2,19.1v9.3H47V17h1.1l4.4,5.8l4.4-5.8H58v11.4h-1.2v-9.3l-4.3,5.7L48.2,19.1z"/>
	<path class="st0" d="M61.2,17h3.6c2.2,0,3.4,1.4,3.4,2.9c0,1.2-0.5,2-1.3,2.4c1.1,0.4,2,1.1,2,2.7c0,1.9-1.5,3.3-3.9,3.3h-3.8V17z
		 M64.9,22c1.3,0,2.1-0.8,2.1-1.9c0-1-0.8-1.9-2.1-1.9h-2.4V22H64.9z M65.2,27.3c1.7,0,2.6-0.9,2.6-2.1c0-1.2-0.8-2.1-2.5-2.1h-2.8
		v4.2H65.2z"/>
	<path class="st0" d="M71.3,17h6.5v1.2h-5.3V22h4.3v1.2h-4.3v4.1h5.3v1.2h-6.5V17z"/>
	<path class="st0" d="M80.1,17h3.7c2.1,0,3.4,1.2,3.4,3.1c0,1.7-1.1,2.9-3,3l4.5,5.3h-1.6l-4.5-5.3h-1.3v5.3h-1.2V17z M83.7,22
		c1.4,0,2.3-0.6,2.3-1.9s-0.8-1.9-2.3-1.9h-2.4V22H83.7z"/>
</g>
<g>
	<path class="st0" d="M7.8,45.4H0.6v-0.5c0-2.4,2.2-3.5,3.8-4.8c1.4-1.1,2.1-1.6,2.1-3.1c0-1.3-1-2.1-2.3-2.1
		c-1.3,0-2.5,0.8-2.6,2.4H0.6c0-2.2,1.6-3.5,3.7-3.5c1.9,0,3.5,1.1,3.5,3.3c0,1.6-0.7,2.5-2.7,4c-1.5,1.1-2.9,1.8-3.1,3.2h6V45.4z"
		/>
	<path class="st0" d="M9.6,41.3v-3.3c0-2.5,1.7-4.2,4-4.2s4,1.7,4,4.2v3.3c0,2.5-1.7,4.2-4,4.2S9.6,43.8,9.6,41.3z M16.4,41.3v-3.3
		c0-2-1.2-3.1-2.8-3.1c-1.6,0-2.8,1.2-2.8,3.1v3.3c0,2,1.2,3.1,2.8,3.1C15.2,44.5,16.4,43.3,16.4,41.3z"/>
	<path class="st0" d="M26.6,45.4h-7.2v-0.5c0-2.4,2.2-3.5,3.8-4.8c1.4-1.1,2.1-1.6,2.1-3.1c0-1.3-1-2.1-2.3-2.1
		c-1.3,0-2.5,0.8-2.6,2.4h-1.2c0-2.2,1.6-3.5,3.7-3.5c1.9,0,3.5,1.1,3.5,3.3c0,1.6-0.7,2.5-2.7,4c-1.5,1.1-2.9,1.8-3.1,3.2h6V45.4z"
		/>
	<path class="st0" d="M28.4,41.3v-3.3c0-2.5,1.7-4.2,4-4.2s4,1.7,4,4.2v3.3c0,2.5-1.7,4.2-4,4.2S28.4,43.8,28.4,41.3z M35.2,41.3
		v-3.3c0-2-1.2-3.1-2.8-3.1c-1.6,0-2.8,1.2-2.8,3.1v3.3c0,2,1.2,3.1,2.8,3.1C34,44.5,35.2,43.3,35.2,41.3z"/>
</g>
</svg>
