<?xml version="1.0" encoding="utf-8"?>
<!-- Generator: Adobe Illustrator 24.0.0, SVG Export Plug-In . SVG Version: 6.00 Build 0)  -->
<svg version="1.1" id="Laag_1" xmlns="http://www.w3.org/2000/svg" xmlns:xlink="http://www.w3.org/1999/xlink" x="0px" y="0px"
	 width="62.5px" height="16.6px" viewBox="0 0 62.5 16.6" style="enable-background:new 0 0 62.5 16.6;" xml:space="preserve">
<style type="text/css">
	.st0{fill:#1D1D1B;}
</style>
<g>
	<path class="st0" d="M0,8.5c0-2.6,2-4.4,5.1-4.4c3,0,5.1,1.5,5.1,3.9H7.7C7.6,6.7,6.5,6.2,5.1,6.2C3.5,6.2,2.4,7,2.4,8.5
		s1.1,2.3,2.6,2.3c1.5,0,2.5-0.6,2.6-1.8h2.4c0,2.3-2,3.9-5.1,3.9C2,12.9,0,11.1,0,8.5z"/>
	<path class="st0" d="M11,5c0-0.9,0.5-1.2,1.4-1.2c0.9,0,1.4,0.3,1.4,1.2s-0.5,1.2-1.4,1.2C11.5,6.2,11,5.9,11,5z M11.2,6.7h2.4v6
		h-2.4V6.7z"/>
	<path class="st0" d="M15,10.5V8.5h-0.7V6.7h0.9V5.2L17.5,5v1.7h1.2v1.8h-1.2v1.7c0,0.7,0,1,0.7,1c0.1,0,0.3,0,0.5,0v1.4
		c-0.6,0.2-1.2,0.2-1.8,0.2C15.3,12.8,15,12.2,15,10.5z"/>
	<path class="st0" d="M19.3,5c0-0.9,0.5-1.2,1.4-1.2c0.9,0,1.4,0.3,1.4,1.2s-0.5,1.2-1.4,1.2C19.8,6.2,19.3,5.9,19.3,5z M19.5,6.7
		h2.4v6h-2.4V6.7z"/>
	<path class="st0" d="M22.5,11.3l3.8-2.8h-3.7V6.7h7.9V8l-3.8,2.9h3.6v1.8h-7.8V11.3z"/>
	<path class="st0" d="M30.8,9.7c0-1.9,1.4-3.2,3.6-3.2c2.1,0,3.6,1.1,3.6,2.7v1h-4.8C33.4,10.7,34,11,35,11c1.5,0,2.1-0.4,2.7-0.7
		v1.9c-0.9,0.3-1.7,0.6-3.3,0.6C32.3,12.9,30.8,11.6,30.8,9.7z M35.7,9.3c-0.1-0.6-0.6-0.9-1.3-0.9c-0.6,0-1.1,0.3-1.3,0.9L35.7,9.3
		z"/>
	<path class="st0" d="M38.9,6.7h2.6l-0.2,2.5h0.1c0.3-2,1.1-2.7,3-2.7c1.7,0,2.4,0.6,2.4,3.6v2.6h-2.4v-2.4c0-1.6-0.4-2-1.4-2
		c-1,0-1.7,1-1.7,2.4v2h-2.4V6.7z"/>
	<path class="st0" d="M51.9,4.3h2.4v3.8l4.2-3.8h3.6l-3.6,3.2l4,5.2h-3.4l-2.6-3.5l-2.1,1.8v1.7h-2.4V4.3z"/>
</g>
</svg>
