<svg xmlns="http://www.w3.org/2000/svg" xmlns:xlink="http://www.w3.org/1999/xlink" width="78.2" height="24.6" xmlns:v="https://vecta.io/nano"><path d="M6.2 14.1c-.2.5-.6 1.6-.8 2.4h-.9c-.1-.4-.3-1.2-.6-1.7L1.6 9.6c-.3-.7-.6-.9-.9-.9v-.6h3.8v.6c-.8 0-.9.4-.6 1l1.9 4.2 1.4-3.4c.4-1 .3-1.7-.7-1.8v-.6h2.6v.6c-.4.1-.7.4-.9 1l-2 4.4zm4.4-4.3c0-.7-.2-1.1-1.1-1.1v-.6h4.3v.6c-.8 0-1.1.3-1.1 1v3.5c0 1.5.6 2.3 2.2 2.3 1.1 0 2.4-.5 2.4-2.3v-3c0-1.1-.3-1.5-1.3-1.6v-.5h3v.6c-.7.1-1 .5-1 1.3v3.4c0 2.4-1.7 3-3.6 3-2.1 0-3.8-.7-3.8-3V9.8z"/><use xlink:href="#B"/><use xlink:href="#B" x="8.2"/><use xlink:href="#B" x="19.8"/><use xlink:href="#B" x="28"/><path d="M56.9 9.8c0-.7-.2-1.1-1.1-1.1v-.6h4.3v.6c-.8 0-1.1.3-1.1 1v3.5c0 1.5.6 2.3 2.2 2.3 1.1 0 2.4-.5 2.4-2.3v-3c0-1.1-.3-1.5-1.3-1.6v-.5h3v.6c-.8.1-1.1.5-1.1 1.3v3.4c0 2.4-1.7 3-3.6 3-2.1 0-3.8-.7-3.8-3V9.8zm20.6 6.5h-4.2v-.6h.1c.6 0 .9-.3.9-1 0-.8-.3-1.9-.4-2.5l-.3-2h0c-.6 1.5-2 3.7-2.5 6.1h-.8c-.1-.5-.2-.8-.5-1.5l-2-4.4h0l-.6 3.7c0 .2-.1.5-.1.7 0 .6.3 1 .9 1h.2v.6h-2.7v-.6c.7 0 .9-.8 1.1-1.7l.7-4.1c.1-.7 0-1.2-.9-1.2v-.7h3c0 1.2.8 2.4 2 5.3.8-2.1 2-3.6 2-4.8v-.4h3.3v.6h-.2c-.8 0-.9.5-.8 1.4l.7 4.5c.1.7.3 1.1 1 1.1v.5z"/><defs ><path id="B" d="M22.8 14.3c0 1 .3 1.4 1.2 1.4 1 0 1.8-.5 2.7-1.5h.7l-.3 2h-7.4v-.6c.7 0 1-.3 1-1v-5c0-.6-.3-.9-1-.9v-.6h4.2v.6c-.8 0-1.1.3-1.1 1v4.6z"/></defs></svg>