<svg xmlns="http://www.w3.org/2000/svg" xmlns:xlink="http://www.w3.org/1999/xlink" width="371.5" height="61.4" xmlns:v="https://vecta.io/nano"><g fill="#fff"><path d="M11.1 14.3l1.4 3.6 1.5-3.7 2.7-6.4c1.4-3.4 1.8-5.7-1.7-6.1V.4h7.5v1.2c-.9.3-1.6.7-2 1.2-.7.7-1.6 3.7-2.6 6.1L14 18c-.5 1.2-1.1 2.8-1.4 4.6h-1.7c-.3-1.2-.7-2.3-1.3-3.8L2.8 4.4C1.7 1.9 1.3 1.6 0 1.6V.4h8.7v1.2C5.8 1.8 5.6 2.8 7 5.7l4.1 8.6zM25.9 11l-2.4-1.2v-.7l4.3-1.6h.8v11c0 1.8.8 2.5 2 2.6v1.2h-7v-1.2c1.2 0 2.3-.7 2.3-2.3V11zm1.2-11c1 0 1.7.8 1.7 1.7 0 1-.8 1.7-1.7 1.7s-1.7-.8-1.7-1.7c-.1-.9.7-1.7 1.7-1.7z"/><use xlink:href="#B"/><path d="M47.2 11l-2.4-1.2v-.7l4.3-1.6h.8v11c0 1.8.8 2.5 2 2.6v1.2h-7v-1.2c1.2 0 2.3-.7 2.3-2.3V11zm1.2-11c1 0 1.7.8 1.7 1.7 0 1-.8 1.7-1.7 1.7s-1.7-.8-1.7-1.7.8-1.7 1.7-1.7z"/><use xlink:href="#C"/><path d="M67 13.4c-.2 4.3 2.6 6.7 5.5 6.7 1.5 0 2.8-.5 4-1.5l.7.6c-1.4 2.2-3.5 3.5-6 3.5-3.9 0-6.7-3.1-6.7-7.4 0-4.4 2.9-7.7 6.7-7.7 4.1 0 5.9 3.6 5.9 5.9H67zm6.9-1.2c-.3-2.3-1.4-3.6-3.2-3.6-1.9 0-3.2 1.4-3.5 3.6h6.7z"/><use xlink:href="#B" x="47"/><path d="M115.7 10.5a8.49 8.49 0 0 1-3.1-.2c.4.8.5 1.5.5 2.2 0 3.6-3.5 5.2-5.9 5.2-.5 0-1.1-.1-2-.3-.6.5-1 .8-1 1.2 0 .8.7 1 3.4 1h2.6c2.9 0 5.1 1.2 5.1 3.4 0 3.1-3.6 5.3-8.4 5.3-4.5 0-6.2-1.8-6.2-2.9 0-.9.7-1.8 2.7-3.3-1.2-.5-1.8-1.1-1.8-1.8 0-.8.8-1.8 2.7-3.3-1.8-1-2.6-2.4-2.6-4.3 0-2.9 2.4-5.2 5.6-5.2 1.2 0 2.1.2 3.1.4 1.1.3 2.3.5 4 .5.6 0 .8 0 1.4-.1v2.2zm-8.1 12.1c-1 0-2-.1-3.2-.3-1.1 1.1-1.5 1.6-1.5 2.3 0 1.9 3.6 2.1 4.5 2.1 2 0 5.8-.6 5.8-2.4 0-1.2-1.2-1.7-4-1.7h-1.6zm0-6.1c1.8 0 2.8-1.4 2.8-3.6 0-2.9-1.9-4.1-3.2-4.1-1.4 0-2.7 1.4-2.7 3.5-.1 2.3 1 4.2 3.1 4.2z"/><use xlink:href="#D"/><path d="M137.4 11L135 9.8v-.7l4.3-1.6h.8v11c0 1.8.8 2.5 2 2.6v1.2h-7v-1.2c1.2 0 2.3-.7 2.3-2.3V11zm1.3-11c1 0 1.7.8 1.7 1.7 0 1-.8 1.7-1.7 1.7s-1.7-.8-1.7-1.7c-.1-.9.7-1.7 1.7-1.7z"/><use xlink:href="#E"/><path d="M170.8 3.3L168.5 2v-.8l4.2-1.2h.8v18.9c0 1.4.7 2 2.3 1.5v1.3l-4.2.9h-.8v-2.4c-1.7 1.6-3.6 2.4-5.3 2.4-3.4 0-6-3-6-6.8 0-4.5 3.6-8.3 7.8-8.3 1 0 2.1.2 3.6.6V3.3zm0 10.8c0-3.9-2.5-5.2-4.2-5.2-2.4 0-4.4 2.3-4.4 5.2 0 2.2 1.2 6.4 4.9 6.4 1.5 0 2.8-.6 3.8-1.8v-4.6z"/><use xlink:href="#F"/><use xlink:href="#B" x="160.2"/><path d="M205.2 26c2.8-.3 4.5-1.2 4.5-3.3 0-1.2-.4-1.8-1.5-1.8-1.2 0-2-.7-2-1.8 0-1.2.8-2 2-2 1.9 0 3.3 2 3.3 4.7 0 3.4-2.3 5.4-6.4 5.4V26z"/><use xlink:href="#C" x="168.6"/><use xlink:href="#F" x="55.3"/><path d="M252.6 18.2c0 1.9.4 2.7 2.2 2.8v1.2h-7.3V21c1.5-.1 2.4-.8 2.4-2.4V11l-2.3-1.3V9l4.2-1.5h.8v2.4c1.9-1.8 3.3-2.4 5.3-2.4 2.1 0 3.3.7 4 2.4 2-1.8 3.3-2.4 5.2-2.4 2.6 0 4.4 1.3 4.4 4v7c0 1.5.5 2.4 2.2 2.6v1.2h-7.3v-1.2c1.8-.1 2.4-.9 2.4-2.7v-6c0-1.9-1.4-2.8-3.2-2.8-1.2 0-2.6.6-3.6 1.5v7.3c0 1.7.4 2.5 2.2 2.7v1.2h-7.5v-1.2c1.8 0 2.6-.8 2.6-2.7v-5.5c0-2.4-.8-3.3-2.9-3.3-1.6 0-2.7.4-3.9 1.6v7zm31.7-6.8c0-1.9-1.9-2.5-2.9-2.5-1.2 0-2.5.8-2.5 1.5s1.3 1.8.5 2.2l-1.9.9c-.2.1-1.1-1.5-1.1-2.2 0-1.5 1.7-3.7 5.9-3.7 3 0 4.7 1 4.7 3.4v8.2c0 1.2.7 1.5 1.8.8l.3 1.2c-.9 1.1-1.7 1.5-2.6 1.5-1.2 0-2-.8-2.2-2.3-1.9 1.7-3.2 2.3-4.7 2.3-2.1 0-3.6-1.4-3.6-3.4s1.3-3.2 4.9-4.4l3.4-1.2v-2.3zm-1.7 4c-2.6 1-3.8 1.6-3.8 2.9 0 1 .6 2.1 2.2 2.1 1.2 0 2.1-.5 3.2-1.7v-4l-1.6.7zM282.5 0l1.6 5.4h-.5L279 0h3.5z"/><use xlink:href="#C" x="236.9"/><path d="M303.4 11L301 9.8v-.7l4.3-1.6h.8v11c0 1.8.8 2.5 2 2.6v1.2h-7v-1.2c1.2 0 2.3-.7 2.3-2.3V11zm1.2-11c1 0 1.7.8 1.7 1.7 0 1-.8 1.7-1.7 1.7s-1.7-.8-1.7-1.7.8-1.7 1.7-1.7zm17 20.1c-2.2 1.9-3.5 2.5-5.2 2.5-4.4 0-6.2-3.7-6.2-7 0-4.8 3.1-8.1 7.7-8.1 1.8 0 3.5.4 5.2 1.3v-1c0-.2.1-.4.4-.4h.5c.2 0 .4.1.4.4v16.7c0 1.7.4 2.5 2.2 2.7v1.1H319v-1.1c1.8 0 2.7-.7 2.7-2.6v-4.5zm0-6.1c0-3.3-1.6-5.3-4.3-5.3s-4.6 2.1-4.6 5.3c0 3.6 2.2 6.3 5.1 6.3 1.2 0 2.1-.4 3.8-1.6V14z"/><use xlink:href="#D" x="211"/><use xlink:href="#F" x="168.6"/><use xlink:href="#B" x="328.8"/><path d="M3.2 44L.8 42.8v-.7l4.3-1.6h.8v11c0 1.8.8 2.5 2 2.6v1.2h-7v-1.2c1.2 0 2.3-.7 2.3-2.3V44zm1.2-11c1 0 1.7.8 1.7 1.7s-.8 1.7-1.7 1.7-1.7-.8-1.7-1.7.8-1.7 1.7-1.7z"/><use xlink:href="#G"/><use xlink:href="#G" x="8.7"/><use xlink:href="#H"/><use xlink:href="#I"/><path d="M67.6 51c0 2.4.4 3.1 3.3 3.1v1.2h-8.3v-1.2c1.3 0 2.4-.6 2.4-2.5v-7.5L62.6 43v-.7l4.3-1.7h.8v3.2h.1c1.4-2.4 2.2-3 3.9-3 1.4 0 2.4 1.2 2.4 1.8 0 .2-.3 2.1-1.3 2.1-1.1 0-1.3-1.5-2.4-1.5-.8 0-1.3.5-2.6 2.4V51zm10-4.6c-.2 4.3 2.6 6.7 5.5 6.7 1.5 0 2.8-.5 4-1.5l.7.6c-1.4 2.2-3.5 3.5-6 3.5-3.9 0-6.7-3.1-6.7-7.4 0-4.4 2.9-7.7 6.7-7.7 4.1 0 5.9 3.6 5.9 5.9H77.6zm6.9-1.2c-.3-2.3-1.4-3.6-3.2-3.6-1.9 0-3.2 1.4-3.5 3.6h6.7z"/><use xlink:href="#B" x="57.6" y="33"/><use xlink:href="#E" x="-32.4" y="33"/><path d="M131.5 51.2c0 1.9.4 2.7 2.2 2.8v1.2h-7.3V54c1.5-.1 2.4-.8 2.4-2.4V44l-2.3-1.3V42l4.2-1.5h.8v2.4c1.9-1.8 3.3-2.4 5.3-2.4 2.1 0 3.3.7 4 2.4 2-1.8 3.3-2.4 5.2-2.4 2.6 0 4.4 1.3 4.4 4v7c0 1.5.5 2.4 2.2 2.6v1.2h-7.3v-1.2c1.8-.1 2.4-.9 2.4-2.7v-6c0-1.9-1.4-2.8-3.2-2.8-1.2 0-2.6.6-3.6 1.5v7.3c0 1.7.4 2.5 2.2 2.7v1.2h-7.5v-1.2c1.8 0 2.6-.8 2.6-2.7v-5.5c0-2.4-.8-3.3-2.9-3.3-1.6 0-2.7.4-3.9 1.6v7zm24.4-14.6l-2.3-1.2v-.7l4.2-1.6h.8v10c1.9-1.9 3.4-2.6 5.4-2.6 4.2 0 6 4.2 6 7.3 0 4.6-3.3 7.8-8.1 7.8-1.8 0-3.6-.4-6-1.6V36.6zm2.7 13.3c0 3.2 2.1 4.3 4.2 4.3 3.6 0 4.5-3.4 4.5-5.2 0-3.2-1.9-6.2-4.9-6.2-1.5 0-2.9.6-3.9 1.7v5.4zm31.4-5.5c0-1.9-1.9-2.5-2.9-2.5-1.2 0-2.5.8-2.5 1.5s1.3 1.8.5 2.2l-1.9.9c-.2.1-1.1-1.5-1.1-2.2 0-1.5 1.7-3.7 5.9-3.7 3 0 4.7 1 4.7 3.4v8.2c0 1.2.7 1.5 1.8.8l.3 1.2c-.9 1.1-1.7 1.5-2.6 1.5-1.2 0-2-.8-2.2-2.3-1.9 1.7-3.2 2.3-4.7 2.3-2.1 0-3.6-1.4-3.6-3.4s1.3-3.2 4.9-4.4l3.4-1.2v-2.3zm-1.6 4c-2.6 1-3.8 1.6-3.8 2.9 0 1 .6 2.1 2.2 2.1 1.2 0 2.1-.5 3.2-1.7v-4l-1.6.7z"/><use xlink:href="#I" x="152.1"/><path d="M226.6 36.3l-2.3-1.3v-.7l4.2-1.2h.8V52c0 1.4.7 2 2.3 1.5v1.3l-4.2.9h-.8v-2.4c-1.7 1.6-3.6 2.4-5.3 2.4-3.4 0-6-3-6-6.8 0-4.5 3.6-8.3 7.8-8.3 1 0 2.1.2 3.6.6v-4.9zm0 10.8c0-3.9-2.5-5.2-4.2-5.2-2.4 0-4.4 2.3-4.4 5.2 0 2.2 1.2 6.4 4.9 6.4 1.5 0 2.8-.6 3.8-1.8v-4.6zm9-3.1l-2.4-1.2v-.7l4.3-1.6h.8v11c0 1.8.8 2.5 2 2.6v1.2h-7v-1.2c1.2 0 2.3-.7 2.3-2.3V44zm1.2-11c1 0 1.7.8 1.7 1.7s-.8 1.7-1.7 1.7-1.7-.8-1.7-1.7.7-1.7 1.7-1.7zm12.7 7.5c4.4 0 7.5 3.1 7.5 7.4 0 4.4-3.1 7.7-7.2 7.7-4 0-7.4-3.5-7.4-7.6-.1-4.2 3.1-7.5 7.1-7.5zm.5 13.9c2.5 0 4-1.8 4-4.5 0-2.8-1.1-8.2-4.7-8.2-2.4 0-4 1.3-4 5.1.1 2.8 1.4 7.6 4.7 7.6zm24.2-10.9a8.49 8.49 0 0 1-3.1-.2c.4.8.5 1.5.5 2.2 0 3.6-3.5 5.2-5.9 5.2-.5 0-1.1-.1-2-.3-.6.5-1 .8-1 1.2 0 .8.7 1 3.4 1h2.6c2.9 0 5.1 1.2 5.1 3.4 0 3.1-3.6 5.3-8.4 5.3-4.5 0-6.2-1.8-6.2-2.9 0-.9.7-1.8 2.7-3.3-1.2-.5-1.8-1.1-1.8-1.8 0-.8.8-1.8 2.7-3.3-1.8-1-2.6-2.4-2.6-4.3 0-2.9 2.4-5.2 5.6-5.2 1.2 0 2.1.2 3.1.4 1.1.3 2.3.5 4 .5.6 0 .8 0 1.4-.1v2.2zm-8.1 12.1c-1 0-2-.1-3.2-.3-1.1 1.1-1.5 1.6-1.5 2.3 0 1.9 3.6 2.1 4.5 2.1 2 0 5.8-.6 5.8-2.4 0-1.2-1.2-1.7-4-1.7h-1.6zm-.1-6.1c1.8 0 2.8-1.4 2.8-3.6 0-2.9-1.9-4.1-3.2-4.1-1.4 0-2.7 1.4-2.7 3.5-.1 2.3 1.1 4.2 3.1 4.2z"/><use xlink:href="#I" x="230.8"/><use xlink:href="#H" x="257.8"/><use xlink:href="#E" x="158.5" y="33"/></g><defs ><path id="B" d="M41.6 12.3h-1c-.5-2.5-1.5-3.6-3.3-3.6-1.5 0-2.4.8-2.4 2.1 0 2.4 4.9 3 6.7 4.8.7.7 1 1.7 1 2.8 0 2.6-1.9 4.2-4.9 4.2-1.6 0-3.5-.4-4.7-1v-4h1.1c.3 2.5 1.5 3.9 3.4 3.9 1.7 0 2.9-1 2.9-2.3 0-2.5-4.2-2.4-6.8-5-.6-.6-1-1.7-1-2.7 0-2.3 1.9-4 4.7-4 1.7 0 3.1.4 4.3 1.4v3.4z"/><path id="C" d="M58.3 18.7c0 1.5.4 1.9 2.2 1.9.6 0 1.7-.1 2.3-.2V22c-1.4.2-2.8.5-4.2.5-2.1 0-3-.9-3-2.8V9.4h-2.4v-.8c1.8-.6 3-2 4-3.3h1.1v2.6h4.4v1.6h-4.4v9.2z"/><path id="D" d="M133.5 21.7l-4.9.9v-2.5c-1.9 1.7-3.5 2.5-5.3 2.5-2.4 0-4.3-1.2-4.3-4.2v-6.3c0-2.5-.6-2.8-2.6-2.8V8.2l5.2-.4v8.9c0 2.4 1 3.6 2.9 3.6 1.4 0 2.5-.4 4.1-1.7v-6.5c0-2.5-.5-2.8-2.8-2.8V8.2l5.4-.4v11.1c0 1.4.4 1.9 2.2 1.5v1.3z"/><path id="E" d="M152.6 11.4c0-1.9-1.9-2.5-2.9-2.5-1.2 0-2.5.8-2.5 1.5s1.3 1.8.5 2.2l-1.9.9c-.2.1-1.1-1.5-1.1-2.2 0-1.5 1.7-3.7 5.9-3.7 3 0 4.7 1 4.7 3.4v8.2c0 1.2.7 1.5 1.8.8l.3 1.2c-.9 1.1-1.7 1.5-2.6 1.5-1.2 0-2-.8-2.2-2.3-1.9 1.7-3.2 2.3-4.7 2.3-2.1 0-3.6-1.4-3.6-3.4s1.3-3.2 4.9-4.4l3.4-1.2v-2.3zm-1.7 4c-2.6 1-3.8 1.6-3.8 2.9 0 1 .6 2.1 2.2 2.1 1.2 0 2.1-.5 3.2-1.7v-4l-1.6.7z"/><path id="F" d="M180.3 13.4c-.2 4.3 2.6 6.7 5.5 6.7 1.5 0 2.8-.5 4-1.5l.7.6c-1.4 2.2-3.5 3.5-6 3.5-3.9 0-6.7-3.1-6.7-7.4 0-4.4 2.9-7.7 6.7-7.7 4.1 0 5.9 3.6 5.9 5.9h-10.1zm6.8-1.2c-.3-2.3-1.4-3.6-3.2-3.6-1.9 0-3.2 1.4-3.5 3.6h6.7z"/><path id="G" d="M23.3 51.4c0 1.6.5 2.6 2 2.7v1.2h-6.9v-1.2c1.6-.1 2.2-1.1 2.2-2.4V36.4l-2.2-1.2v-.7l4.1-1.5h.8v18.4z"/><path id="H" d="M38.1 44l-2.4-1.2v-.7l4.3-1.6h.8v11c0 1.8.8 2.5 2 2.6v1.2h-7v-1.2c1.2 0 2.3-.7 2.3-2.3V44zm1.2-11c1 0 1.7.8 1.7 1.7s-.8 1.7-1.7 1.7-1.7-.8-1.7-1.7.8-1.7 1.7-1.7z"/><path id="I" d="M61.2 54.7l-4.9.9v-2.5c-1.9 1.7-3.5 2.5-5.3 2.5-2.4 0-4.3-1.2-4.3-4.2v-6.3c0-2.5-.6-2.8-2.6-2.8v-1.2l5.2-.4v8.9c0 2.4 1 3.6 2.9 3.6 1.4 0 2.5-.4 4.1-1.7V45c0-2.5-.5-2.8-2.8-2.8V41l5.4-.4v11.1c0 1.4.4 1.9 2.2 1.5v1.5z"/></defs></svg>