<?xml version="1.0" encoding="utf-8"?>
<!-- Generator: Adobe Illustrator 23.0.2, SVG Export Plug-In . SVG Version: 6.00 Build 0)  -->
<svg version="1.1" id="Laag_1" xmlns="http://www.w3.org/2000/svg" xmlns:xlink="http://www.w3.org/1999/xlink" x="0px" y="0px"
	 width="237.2px" height="100.8px" viewBox="0 0 237.2 100.8" style="enable-background:new 0 0 237.2 100.8;" xml:space="preserve"
	>
<style type="text/css">
	.st0{fill:#FFFFFF;}
</style>
<g>
	<path class="st0" d="M30.5,38.2V23.9h-16v14.3h-4.1V7.5h4.1v12.7h16V7.5h4.1v30.6H30.5z"/>
	<path class="st0" d="M43.6,28.2c0.1,0.9,0.1,1.5,0.2,1.9c0.1,0.4,0.2,0.9,0.3,1.4c0.4,1.3,1.1,2.3,2.1,3c1,0.7,2.3,1.1,3.7,1.1
		c0.8,0,1.5-0.1,2.2-0.3c0.7-0.2,1.3-0.5,1.8-0.9c0.5-0.4,1-0.9,1.3-1.4c0.4-0.5,0.6-1.1,0.7-1.8h3.8c-0.5,2.4-1.6,4.3-3.3,5.6
		c-1.7,1.3-3.8,2-6.4,2c-3.3,0-5.8-1-7.6-3c-1.8-2-2.7-4.8-2.7-8.4c0-1.9,0.2-3.6,0.7-5.1c0.5-1.5,1.2-2.8,2.1-3.8
		c0.9-1.1,2-1.9,3.3-2.5c1.3-0.6,2.8-0.9,4.4-0.9c3.6,0,6.2,1.5,7.9,4.4c0.6,1.1,1,2.1,1.2,3c0.1,0.4,0.2,0.8,0.3,1.2
		c0.1,0.3,0.1,0.7,0.1,1.1c0,0.4,0.1,0.8,0.1,1.4c0,0.5,0.1,1.2,0.1,2H43.6z M56,25.2c-0.1-0.8-0.2-1.3-0.2-1.7
		c-0.1-0.4-0.2-0.8-0.4-1.3c-0.4-1.2-1.1-2.1-2.1-2.7c-1-0.6-2.1-0.9-3.3-0.9c-1.8,0-3.3,0.6-4.5,1.8c-1.2,1.2-1.8,2.8-1.9,4.8H56z"
		/>
	<path class="st0" d="M69.3,18.9v19.2h-3.8V18.9h-3v-3.1h3V9.6h3.8v6.2h3.6v3.1H69.3z"/>
	<path class="st0" d="M108.2,38.2L92.6,13.4h-0.1v24.8h-4V7.5h4.9l15.3,24.8h0.1V7.5h4v30.6H108.2z"/>
	<path class="st0" d="M119,11.8V7.5h3.8v4.3H119z M119,38.2V15.8h3.8v22.3H119z"/>
	<path class="st0" d="M131.3,28.2c0.1,0.9,0.1,1.5,0.2,1.9c0.1,0.4,0.2,0.9,0.3,1.4c0.4,1.3,1.1,2.3,2.1,3c1,0.7,2.3,1.1,3.7,1.1
		c0.8,0,1.5-0.1,2.2-0.3c0.7-0.2,1.3-0.5,1.8-0.9c0.5-0.4,1-0.9,1.3-1.4c0.4-0.5,0.6-1.1,0.7-1.8h3.8c-0.5,2.4-1.6,4.3-3.3,5.6
		c-1.7,1.3-3.8,2-6.4,2c-3.3,0-5.8-1-7.6-3c-1.8-2-2.7-4.8-2.7-8.4c0-1.9,0.2-3.6,0.7-5.1c0.5-1.5,1.2-2.8,2.1-3.8
		c0.9-1.1,2-1.9,3.3-2.5c1.3-0.6,2.8-0.9,4.4-0.9c3.6,0,6.2,1.5,7.9,4.4c0.6,1.1,1,2.1,1.2,3c0.1,0.4,0.2,0.8,0.3,1.2
		c0.1,0.3,0.1,0.7,0.1,1.1c0,0.4,0.1,0.8,0.1,1.4c0,0.5,0.1,1.2,0.1,2H131.3z M143.7,25.2c-0.1-0.8-0.2-1.3-0.2-1.7
		c-0.1-0.4-0.2-0.8-0.4-1.3c-0.4-1.2-1.1-2.1-2.1-2.7c-1-0.6-2.1-0.9-3.3-0.9c-1.8,0-3.3,0.6-4.5,1.8c-1.2,1.2-1.8,2.8-1.9,4.8
		H143.7z"/>
	<path class="st0" d="M170.3,30.3c0,1.4-0.2,2.7-0.7,3.7c-0.5,1.1-1.1,1.9-2,2.6c-0.8,0.7-1.8,1.2-2.9,1.6c-1.1,0.4-2.3,0.5-3.5,0.5
		c-1.3,0-2.6-0.2-3.7-0.6c-1.1-0.4-2.1-0.9-2.9-1.7c-0.8-0.7-1.4-1.6-1.9-2.6s-0.7-2.2-0.7-3.6V15.8h3.8v14.3c0,1.8,0.5,3.1,1.4,4.1
		c0.9,0.9,2.2,1.4,3.9,1.4c1.7,0,3-0.5,3.9-1.4c0.9-1,1.4-2.3,1.4-4V15.8h3.8V30.3z"/>
	<path class="st0" d="M196.8,38.2h-3.9l-4.5-17.3h-0.1L184,38.2h-3.9l-6.4-22.3h4.1l4.3,17.5h0.1l4.3-17.5h4.2l4.4,17.5h0.1
		l4.5-17.5h3.8L196.8,38.2z"/>
	<path class="st0" d="M209.6,28.2c0.1,0.9,0.1,1.5,0.2,1.9c0.1,0.4,0.2,0.9,0.3,1.4c0.4,1.3,1.1,2.3,2.1,3c1,0.7,2.3,1.1,3.7,1.1
		c0.8,0,1.5-0.1,2.2-0.3c0.7-0.2,1.3-0.5,1.8-0.9c0.5-0.4,1-0.9,1.3-1.4c0.4-0.5,0.6-1.1,0.7-1.8h3.8c-0.5,2.4-1.6,4.3-3.3,5.6
		c-1.7,1.3-3.8,2-6.4,2c-3.3,0-5.8-1-7.6-3c-1.8-2-2.7-4.8-2.7-8.4c0-1.9,0.2-3.6,0.7-5.1c0.5-1.5,1.2-2.8,2.1-3.8
		c0.9-1.1,2-1.9,3.3-2.5c1.3-0.6,2.8-0.9,4.4-0.9c3.6,0,6.2,1.5,7.9,4.4c0.6,1.1,1,2.1,1.2,3c0.1,0.4,0.2,0.8,0.3,1.2
		c0.1,0.3,0.1,0.7,0.1,1.1c0,0.4,0.1,0.8,0.1,1.4c0,0.5,0.1,1.2,0.1,2H209.6z M222,25.2c-0.1-0.8-0.2-1.3-0.2-1.7
		c-0.1-0.4-0.2-0.8-0.4-1.3c-0.4-1.2-1.1-2.1-2.1-2.7c-1-0.6-2.1-0.9-3.3-0.9c-1.8,0-3.3,0.6-4.5,1.8c-1.2,1.2-1.8,2.8-1.9,4.8H222z
		"/>
	<path class="st0" d="M43.4,89.4v-3.7h3.1V62.4h-3.1v-3.7h10.3v3.7h-3.1v23.3h3.1v3.7H43.4z"/>
	<path class="st0" d="M71.6,89.4V75.6c0-2-0.4-3.5-1.1-4.5c-0.7-0.9-1.9-1.4-3.6-1.4c-1.9,0-3.3,0.7-4.4,2c-1.1,1.3-1.6,3.1-1.6,5.4
		v12.2h-3.8V67h3.5v3.2h0.1c1-1.3,2-2.3,3.1-2.9c1.1-0.6,2.4-0.9,3.9-0.9c2.4,0,4.2,0.7,5.6,2c1.3,1.4,2,3.3,2,5.7v15.2H71.6z"/>
	<path class="st0" d="M98,82.7c0,1.1-0.2,2.1-0.6,3c-0.4,0.9-1,1.7-1.8,2.3c-0.8,0.6-1.8,1.1-2.9,1.5c-1.1,0.3-2.4,0.5-3.8,0.5
		c-2.9,0-5.2-0.7-6.9-2c-0.7-0.6-1.3-1.4-1.6-2.2c-0.4-0.9-0.6-2-0.7-3.5h3.6c0.1,0.6,0.1,1.1,0.2,1.4c0.1,0.3,0.2,0.6,0.4,1
		c0.4,0.7,1,1.2,1.9,1.6c0.9,0.4,2,0.6,3.2,0.6c1.6,0,2.9-0.3,3.8-0.9c0.9-0.6,1.4-1.5,1.4-2.6c0-0.4-0.1-0.8-0.2-1.1
		c-0.1-0.3-0.4-0.6-0.7-0.8c-0.3-0.2-0.8-0.5-1.4-0.7c-0.6-0.2-1.3-0.4-2.1-0.6l-4.4-1.1c-1.8-0.4-3.1-1.1-3.9-2s-1.2-2.1-1.2-3.5
		c0-1.1,0.2-2,0.6-2.9c0.4-0.9,1-1.6,1.7-2.2c0.8-0.6,1.7-1.1,2.7-1.4s2.2-0.5,3.5-0.5c2.6,0,4.6,0.6,6,1.8c1.5,1.2,2.3,2.9,2.4,5.2
		h-3.6c-0.1-1.3-0.5-2.2-1.4-2.8c-0.8-0.6-2.1-0.9-3.8-0.9c-1.4,0-2.6,0.3-3.4,0.9c-0.8,0.6-1.2,1.4-1.2,2.3c0,0.4,0.1,0.7,0.1,1
		c0.1,0.3,0.3,0.5,0.5,0.7c0.2,0.2,0.6,0.4,1,0.6c0.4,0.2,1,0.3,1.6,0.5l0.8,0.2l3.8,0.9c2.3,0.6,3.9,1.3,4.8,2.2
		C97.5,79.9,98,81.1,98,82.7z"/>
	<path class="st0" d="M107.2,70.2v19.2h-3.8V70.2h-3V67h3v-6.2h3.8V67h3.6v3.1H107.2z"/>
	<path class="st0" d="M114.2,63v-4.3h3.8V63H114.2z M114.2,89.4V67h3.8v22.3H114.2z"/>
	<path class="st0" d="M128.6,70.2v19.2h-3.8V70.2h-3V67h3v-6.2h3.8V67h3.6v3.1H128.6z"/>
	<path class="st0" d="M153.7,81.6c0,1.4-0.2,2.7-0.7,3.7c-0.5,1.1-1.1,1.9-2,2.6c-0.8,0.7-1.8,1.2-2.9,1.6c-1.1,0.4-2.3,0.5-3.5,0.5
		c-1.3,0-2.6-0.2-3.7-0.6s-2.1-0.9-2.9-1.7c-0.8-0.7-1.4-1.6-1.9-2.6s-0.7-2.2-0.7-3.6V67h3.8v14.3c0,1.8,0.5,3.1,1.4,4.1
		c0.9,0.9,2.2,1.4,3.9,1.4c1.7,0,3-0.5,3.9-1.4c0.9-1,1.4-2.3,1.4-4V67h3.8V81.6z"/>
	<path class="st0" d="M177.4,81.6c0,1.4-0.2,2.7-0.7,3.7c-0.5,1.1-1.1,1.9-2,2.6c-0.8,0.7-1.8,1.2-2.9,1.6c-1.1,0.4-2.3,0.5-3.5,0.5
		c-1.3,0-2.6-0.2-3.7-0.6s-2.1-0.9-2.9-1.7c-0.8-0.7-1.4-1.6-1.9-2.6s-0.7-2.2-0.7-3.6V67h3.8v14.3c0,1.8,0.5,3.1,1.4,4.1
		c0.9,0.9,2.2,1.4,3.9,1.4s3-0.5,3.9-1.4c0.9-1,1.4-2.3,1.4-4V67h3.8V81.6z"/>
	<path class="st0" d="M187.9,70.2v19.2h-3.8V70.2h-3V67h3v-6.2h3.8V67h3.6v3.1H187.9z"/>
</g>
</svg>
