<?xml version="1.0" encoding="utf-8"?>
<!-- Generator: Adobe Illustrator 23.1.1, SVG Export Plug-In . SVG Version: 6.00 Build 0)  -->
<svg version="1.1" id="Laag_1" xmlns="http://www.w3.org/2000/svg" xmlns:xlink="http://www.w3.org/1999/xlink" x="0px" y="0px"
	 width="29.8px" height="12.2px" viewBox="0 0 29.8 12.2" style="enable-background:new 0 0 29.8 12.2;" xml:space="preserve">
<style type="text/css">
	.st0{clip-path:url(#SVGID_2_);fill:#1D1D1B;}
	.st1{clip-path:url(#SVGID_4_);fill:#1D1D1B;}
	.st2{clip-path:url(#SVGID_4_);fill:#FFFFFF;}
</style>
<g>
	<defs>
		<rect id="SVGID_1_" width="29.8" height="12.2"/>
	</defs>
	<clipPath id="SVGID_2_">
		<use xlink:href="#SVGID_1_"  style="overflow:visible;"/>
	</clipPath>
	<path class="st0" d="M28.5,4.3L28.5,4.3h-2.2V3.2h1.8V1l-1.2-1h-6.4v0.4L20.1,0h-2.5v3.9c-0.3-1-0.6-2-0.9-2.9l-1.3-1h-3.3v0.7
		L11.5,0H9.1l0,3.9C8.8,3,8.4,2,8.1,1.1L6.9,0H3.6v4.3H0V7L1.4,8h2.2v3.1l1.4,1h2.3v-4c0.2,0.6,0.4,1.1,0.6,1.7
		c0.1,0.4,0.3,0.8,0.4,1.2l0,0.1l1.4,1.1h3.1v-0.6l0.8,0.6h2.3v-4c0.2,0.6,0.4,1.1,0.6,1.7c0.1,0.4,0.3,0.8,0.4,1.2l0,0.1l1.4,1.1
		h3.1V8h1v3.1l1.4,1h2.6V8h3.4V5.3L28.5,4.3z M28.3,6.8h-3.4V11h-2.4V6.8h-2.6V11H17c-0.1-0.4-0.2-0.7-0.4-1.1
		C16.3,8.9,16,7.9,15.7,7l-0.1-0.2h-1.2V11h-1.6h-0.5v-0.5V6.8h-1V11H8.5c-0.1-0.4-0.2-0.7-0.4-1.1C7.8,8.9,7.5,7.9,7.2,7L7.1,6.8
		H5.9V11H3.8V6.8H0.3H0.2V4.5h3.4h0.1V4.3V0.2h2.9h0c0.4,1.2,0.9,2.7,1.4,4.2l0,0.1h1.1h0.1l0-0.5V0.2h2.1V1v3.5h1V1V0.2h1.6h1.3
		c0.4,1.2,0.9,2.7,1.4,4.2l0,0.1h1.1h0l0-0.5V0.2h2.1V1v3.5h1.4h1.2V2h-1.2h-0.6V0.5V0.2h5.4h0.6V2h-1.8v2.5h1.4h1.8h0.2V6.8z
		 M21.3,3.2h1v1h-1V3.2z"/>
</g>
<g>
	<defs>
		<rect id="SVGID_3_" width="29.8" height="12.2"/>
	</defs>
	<clipPath id="SVGID_4_">
		<use xlink:href="#SVGID_3_"  style="overflow:visible;"/>
	</clipPath>
	<path class="st1" d="M17.9,6.8h-0.5l0,0.1c0.1,0.4,0.2,0.8,0.3,1.2l0.1,0.3l0.2,0C18,7.8,18,7.3,17.9,6.8L17.9,6.8z"/>
	<path class="st1" d="M14.4,2.7l-0.2-0.9l0.1,2.7H15l-0.2-0.6C14.7,3.5,14.6,3.1,14.4,2.7"/>
	<path class="st1" d="M9.4,6.8H8.9l0,0.1C9,7.3,9.2,7.7,9.3,8.1l0.1,0.3l0.2,0C9.5,7.8,9.5,7.3,9.4,6.8L9.4,6.8z"/>
	<path class="st1" d="M5.9,2.7L5.7,1.8l0.1,2.7h0.6L6.3,3.9C6.2,3.5,6,3.1,5.9,2.7"/>
	<path class="st2" d="M26.3,4.5h-1.4V2h1.8V0.2h-0.6h-5.4v0.3V2h0.6h1.2v2.5h-1.2h-1.4V1V0.2h-2.1V4l0,0.5h0h-1.1l0-0.1
		c-0.5-1.5-1-3-1.4-4.2h-1.3h-1.6V1v3.5h-1V1V0.2H9.3V4l0,0.5H9.2H8.2l0-0.1c-0.5-1.5-1-3-1.4-4.2h0H3.8v4.1v0.2H3.6H0.2v2.3h0.1
		h3.5V11h2.1V6.8h1.2L7.2,7c0.3,0.9,0.6,1.9,0.9,2.9c0.1,0.4,0.2,0.7,0.4,1.1h2.9V6.8h1v3.7V11h0.5h1.6V6.8h1.2L15.7,7
		c0.3,0.9,0.6,1.9,0.9,2.9c0.1,0.4,0.2,0.7,0.4,1.1h2.9V6.8h2.6V11h2.4V6.8h3.4V4.5h-0.2H26.3z M5.8,4.5L5.7,1.8l0.2,0.9
		C6,3.1,6.2,3.5,6.3,3.9l0.2,0.6H5.8z M9.3,8.3L9.3,8.1C9.2,7.7,9,7.3,8.9,6.9l0-0.1h0.5l0,0.1c0,0.4,0.1,0.9,0.1,1.4L9.3,8.3z
		 M14.3,4.5l-0.1-2.7l0.2,0.9c0.1,0.4,0.2,0.8,0.3,1.2L15,4.5H14.3z M17.9,8.3l-0.1-0.3c-0.1-0.4-0.2-0.8-0.3-1.2l0-0.1h0.5l0,0.1
		c0,0.4,0.1,0.9,0.1,1.4L17.9,8.3z"/>
	<polygon class="st1" points="23.2,6.2 23.8,6.2 23.8,6 23.5,6 23.6,5.7 23.9,5.7 23.9,5.4 23.6,5.4 23.7,5.2 24,5.2 24,4.9 
		23.4,4.9 	"/>
	<path class="st1" d="M18.4,4.9c0,0-0.1,0-0.1,0H18l-0.2,1.3h0.3c0.1,0,0.2,0,0.3-0.1c0.1-0.1,0.1-0.2,0.1-0.3l0.1-0.5
		c0,0,0-0.1,0-0.2C18.6,4.9,18.5,4.9,18.4,4.9 M18.3,5.3l-0.1,0.5c0,0.1,0,0.1,0,0.2c0,0,0,0-0.1,0c0,0,0,0,0,0l0.1-0.8
		c0,0,0.1,0,0.1,0c0,0,0,0,0,0.1C18.4,5.2,18.4,5.3,18.3,5.3"/>
	<polygon class="st1" points="24.1,6.2 24.7,6.2 24.7,6 24.4,6 24.5,5.7 24.8,5.7 24.8,5.4 24.5,5.4 24.6,5.2 24.8,5.2 24.9,4.9 
		24.3,4.9 	"/>
	<polygon class="st1" points="15.3,4.9 15.1,4.9 14.9,6.2 15.4,6.2 15.4,6 15.2,6 	"/>
	<polygon class="st1" points="25.5,4.9 25.2,4.9 25,6.2 25.6,6.2 25.6,6 25.3,6 	"/>
	<path class="st1" d="M21.7,4.9c0,0-0.1,0-0.2,0c0,0,0,0-0.1,0c-0.1,0-0.1,0.1-0.1,0.3c0,0,0,0.1,0,0.1c0,0,0,0.1,0,0.1l0,0.3
		c0,0.1,0,0.2,0,0.3c0,0.2,0.1,0.2,0.2,0.3c0,0,0.1,0,0.1,0c0.1,0,0.1,0,0.2,0c0,0,0,0,0.1,0c0.1-0.1,0.1-0.1,0.1-0.3
		c0,0,0-0.1,0-0.1l0.1-0.3c0-0.1,0-0.2,0-0.3c0-0.1,0-0.2-0.1-0.2C21.8,4.9,21.7,4.9,21.7,4.9 M21.7,5.2C21.7,5.2,21.7,5.3,21.7,5.2
		c0,0.1,0,0.1,0,0.1l-0.1,0.5c0,0,0,0.1,0,0.2c0,0,0,0.1-0.1,0.1c0,0-0.1,0-0.1-0.1c0,0,0-0.1,0-0.1c0,0,0-0.1,0-0.1l0.1-0.5
		c0-0.1,0-0.2,0-0.2c0,0,0,0,0.1,0C21.6,5.1,21.7,5.1,21.7,5.2C21.7,5.1,21.7,5.1,21.7,5.2C21.7,5.2,21.7,5.2,21.7,5.2"/>
	<path class="st1" d="M19.3,4.9c0,0-0.2,0-0.3,0.1c-0.1,0.1-0.1,0.2-0.1,0.3c0,0.1,0.1,0.2,0.1,0.3c0,0,0,0.1,0.1,0.1
		c0.1,0.1,0.1,0.1,0.1,0.2c0,0,0,0.1,0,0.1c0,0,0,0-0.1,0c0,0,0,0,0,0c0,0,0,0,0-0.1l0-0.1h-0.3l0,0.1c0,0,0,0.1,0,0.1
		c0,0.3,0.3,0.3,0.3,0.3c0.2,0,0.3-0.1,0.3-0.2c0-0.1,0-0.2,0-0.2c0-0.1,0-0.2-0.1-0.2c0,0,0,0-0.1-0.1c0,0,0,0-0.1-0.1
		c0,0-0.1-0.1-0.1-0.1c0,0,0-0.1,0-0.1c0-0.1,0-0.1,0.1-0.1c0,0,0,0,0,0c0,0,0,0.1,0,0.1l0,0.1h0.3l0-0.1c0,0,0,0,0-0.1
		c0,0,0-0.1,0-0.1C19.5,4.9,19.4,4.9,19.3,4.9"/>
	<polygon class="st1" points="22.7,5.9 22.7,4.9 22.3,4.9 22.1,6.2 22.4,6.2 22.5,5.2 22.6,6.2 22.9,6.2 23.1,4.9 22.8,4.9 	"/>
	<polygon class="st1" points="20.4,5.1 20.6,5.1 20.4,6.2 20.7,6.2 20.8,5.1 21,5.1 21.1,4.9 20.4,4.9 	"/>
	<path class="st1" d="M8.2,5C8.1,4.9,8.1,4.9,8,4.9H7.7L7.5,6.2h0.3l0.1-0.6h0c0,0,0.1,0,0.1,0.1c0,0,0,0.1,0,0.1c0,0,0,0.1,0,0.1
		c0,0.1,0,0.1,0,0.2c0,0,0,0,0,0.1h0.3c0,0,0-0.1,0-0.1c0-0.1,0-0.2,0-0.2l0-0.2c0,0,0-0.1,0-0.1c0-0.1-0.1-0.1-0.1-0.2v0
		c0,0,0.1,0,0.1-0.1c0,0,0-0.1,0.1-0.2c0-0.1,0-0.1,0-0.2C8.3,5.2,8.3,5,8.2,5 M8,5.4C8,5.4,8,5.4,8,5.4C7.9,5.5,7.9,5.5,7.9,5.5
		l0-0.3c0,0,0,0,0,0c0,0,0,0,0.1,0c0,0,0,0,0,0C8,5.3,8,5.4,8,5.4"/>
	<path class="st1" d="M9.2,5.9l0.1-0.5c0,0,0-0.1,0-0.2c0-0.2-0.2-0.3-0.2-0.3c0,0-0.1,0-0.1,0H8.7L8.5,6.2h0.3c0.1,0,0.2,0,0.3-0.1
		C9.2,6.1,9.2,6,9.2,5.9 M9,5.3L9,5.8c0,0.1,0,0.1,0,0.2c0,0,0,0-0.1,0c0,0,0,0,0,0l0.1-0.8c0,0,0.1,0,0.1,0c0,0,0,0,0,0.1
		C9.1,5.2,9,5.3,9,5.3"/>
	<path class="st1" d="M7,4.9c0,0-0.1,0-0.2,0c0,0,0,0-0.1,0C6.7,5,6.7,5.1,6.7,5.2c0,0,0,0.1,0,0.1c0,0,0,0.1,0,0.1l0,0.3
		c0,0.1,0,0.2,0,0.3c0,0.2,0.1,0.2,0.2,0.3c0,0,0.1,0,0.1,0c0.1,0,0.1,0,0.2,0c0,0,0,0,0.1,0C7.2,6.1,7.2,6,7.2,5.9c0,0,0-0.1,0-0.1
		l0.1-0.3c0-0.1,0-0.2,0-0.3c0-0.1,0-0.2-0.1-0.2C7.2,4.9,7.1,4.9,7,4.9 M7.1,5.2C7.1,5.2,7.1,5.3,7.1,5.2c0,0.1,0,0.1,0,0.1L7,5.8
		c0,0,0,0.1,0,0.2C7,6,6.9,6,6.9,6c0,0-0.1,0-0.1-0.1c0,0,0-0.1,0-0.1c0,0,0-0.1,0-0.1l0.1-0.5c0-0.1,0-0.2,0-0.2c0,0,0,0,0.1,0
		C7,5.1,7.1,5.1,7.1,5.2C7.1,5.1,7.1,5.1,7.1,5.2C7.1,5.2,7.1,5.2,7.1,5.2"/>
	<polygon class="st1" points="5,5.9 4.9,4.9 4.6,4.9 4.4,6.2 4.7,6.2 4.8,5.2 4.9,6.2 5.2,6.2 5.4,4.9 5.1,4.9 	"/>
	<path class="st1" d="M6,4.9c0,0-0.1,0-0.2,0c0,0,0,0-0.1,0C5.7,5,5.7,5.1,5.7,5.2c0,0,0,0.1,0,0.1c0,0,0,0.1,0,0.1l0,0.3
		c0,0.1,0,0.2,0,0.3c0,0.2,0.1,0.2,0.2,0.3c0,0,0.1,0,0.1,0c0.1,0,0.1,0,0.2,0c0,0,0,0,0.1,0C6.2,6.1,6.2,6,6.2,5.9c0,0,0-0.1,0-0.1
		l0.1-0.3c0-0.1,0-0.2,0-0.3c0-0.1,0-0.2-0.1-0.2C6.2,4.9,6.1,4.9,6,4.9 M6.1,5.2C6.1,5.2,6.1,5.3,6.1,5.2c0,0.1,0,0.1,0,0.1L6,5.8
		c0,0,0,0.1,0,0.2C6,6,5.9,6,5.9,6c0,0-0.1,0-0.1-0.1c0,0,0-0.1,0-0.1c0,0,0-0.1,0-0.1l0.1-0.5c0-0.1,0-0.2,0-0.2c0,0,0,0,0.1,0
		C6,5.1,6.1,5.1,6.1,5.2C6.1,5.1,6.1,5.1,6.1,5.2C6.1,5.2,6.1,5.2,6.1,5.2"/>
	<polygon class="st1" points="10.6,5.9 10.5,4.9 10.2,4.9 10,6.2 10.2,6.2 10.4,5.2 10.4,6.2 10.8,6.2 10.9,4.9 10.7,4.9 	"/>
	<polygon class="st1" points="11.1,6.2 11.7,6.2 11.7,6 11.4,6 11.5,5.7 11.7,5.7 11.8,5.4 11.5,5.4 11.5,5.2 11.8,5.2 11.9,4.9 
		11.3,4.9 	"/>
	<path class="st1" d="M14.6,5c-0.1-0.1-0.2-0.1-0.2-0.1h-0.3l-0.2,1.3h0.3l0.1-0.6h0c0,0,0.1,0,0.1,0.1c0,0,0,0.1,0,0.1
		c0,0,0,0.1,0,0.1c0,0.1,0,0.1,0,0.2c0,0,0,0,0,0.1h0.3c0,0,0-0.1,0-0.1c0-0.1,0-0.2,0-0.2l0-0.2c0,0,0-0.1,0-0.1
		c0-0.1-0.1-0.1-0.1-0.2v0c0,0,0.1,0,0.1-0.1c0,0,0-0.1,0.1-0.2c0-0.1,0-0.1,0-0.2C14.7,5.2,14.7,5,14.6,5 M14.4,5.4
		C14.4,5.4,14.4,5.4,14.4,5.4c-0.1,0.1-0.1,0.1-0.1,0.1l0-0.3c0,0,0,0,0,0c0,0,0,0,0.1,0c0,0,0,0,0,0C14.4,5.3,14.4,5.4,14.4,5.4"/>
	<path class="st1" d="M15.7,6.2h0.3L16,6h0.2l0,0.3h0.3l0-1.3h-0.3L15.7,6.2z M16.2,5.8h-0.1l0.2-0.5L16.2,5.8z"/>
	<polygon class="st1" points="17.7,4.9 17.4,4.9 17.3,5.9 17.2,4.9 16.9,4.9 16.7,6.2 17,6.2 17.1,5.2 17.2,6.2 17.5,6.2 	"/>
	<path class="st1" d="M12.6,4.9c0,0-0.1,0-0.1,0h-0.2L12,6.2h0.3c0.1,0,0.2,0,0.3-0.1c0.1-0.1,0.1-0.2,0.1-0.3l0.1-0.5
		c0,0,0-0.1,0-0.2C12.8,4.9,12.6,4.9,12.6,4.9 M12.5,5.3l-0.1,0.5c0,0.1,0,0.1,0,0.2c0,0,0,0-0.1,0c0,0,0,0,0,0l0.1-0.8
		c0,0,0.1,0,0.1,0c0,0,0,0,0,0.1C12.5,5.2,12.5,5.3,12.5,5.3"/>
	<polygon class="st1" points="13,6.2 13.6,6.2 13.6,6 13.3,6 13.3,5.7 13.6,5.7 13.7,5.4 13.4,5.4 13.4,5.2 13.7,5.2 13.7,4.9 
		13.2,4.9 	"/>
</g>
</svg>
