<?xml version="1.0" encoding="utf-8"?>
<!-- Generator: Adobe Illustrator 23.1.1, SVG Export Plug-In . SVG Version: 6.00 Build 0)  -->
<svg version="1.1" id="Laag_1" xmlns="http://www.w3.org/2000/svg" xmlns:xlink="http://www.w3.org/1999/xlink" x="0px" y="0px"
	 width="239.9px" height="74.8px" viewBox="0 0 239.9 74.8" style="enable-background:new 0 0 239.9 74.8;" xml:space="preserve">
<style type="text/css">
	.st0{fill:none;}
	.st1{fill:none;stroke:#000000;stroke-width:0;stroke-linecap:round;stroke-linejoin:round;}
	.st2{fill:#FFFFFF;}
</style>
<g>
	<polygon class="st0" points="2.7,54 2.7,54 54.7,54 54.7,54 44.8,54 	"/>
	<rect x="57.4" y="54" class="st0" width="105.7" height="0"/>
	<rect x="185.2" y="54" class="st0" width="15.4" height="0"/>
	<polygon class="st0" points="217.9,54 202.7,54 202.7,54 217.9,54 217.9,3.2 217.9,3.2 	"/>
	<line class="st1" x1="19.4" y1="74.8" x2="19.4" y2="74.8"/>
	<line class="st1" x1="74.1" y1="74.8" x2="74.1" y2="74.8"/>
	<line class="st1" x1="74.1" y1="74.8" x2="74.1" y2="74.8"/>
	<path d="M239.9,17.6L220.6,0l-0.1,0h-54.6l0,0l-0.1,0h-111H0v57.2h0l19.3,17.6l54.7,0v0v0l111.1,0v0l54.7,0V17.6L239.9,17.6
		C239.9,17.6,239.9,17.6,239.9,17.6z M217.9,54h-15.2c0,0,0,0,0,0c4.8-1.4,7.8-5.3,9-11.8l1.1-5.8h-9l-1.6,9.1h4
		c-0.8,3-2.4,4.8-4.9,5.2l-0.6,3.3l0,0h-15.4v0h-22v0H57.4v0h-2.7v0H2.7v0V3.2v0h42.1h118.4h54.7v0h0V54z"/>
	<path class="st2" d="M217.9,3.2L217.9,3.2l-54.7,0H44.8H2.7v0V54h42.1h10h2.7h105.7h22h15.4l0.6-3.3c2.5-0.5,4.1-2.2,4.9-5.2h-4
		l1.6-9.1h9l-1.1,5.8c-1.2,6.5-4.2,10.5-9,11.8h15.2V3.2z M48.2,45.4h-9.4L37.7,24h-0.1l-8.8,21.4h-9.4l-2.6-32.8H26l0.5,22.2h0.1
		l9.2-22.2h8.1l1.2,22.2H45l8.5-22.2h9.2L48.2,45.4z M59.8,45.4l5.9-32.8h9.5l-5.9,32.8H59.8z M98.1,45.4l-10-20.7h-0.1l-3.7,20.7
		h-9.2l5.9-32.8h11l9.5,20.6h0.1l3.7-20.6h9.2l-5.9,32.8H98.1z M137.4,45.4l-10-20.7h-0.1l-3.7,20.7h-9.2l5.9-32.8h11l9.5,20.6h0.1
		l3.7-20.6h9.2l-5.9,32.8H137.4z M153.8,45.4l5.9-32.8h9.5l-5.9,32.8H153.8z M202.4,19.6h-19.1l-1.1,5.9h17.9l-1.2,6.8H181l-1,5.9
		H199l-1.3,7.1h-28.6l5.9-32.8h28.6L202.4,19.6z"/>
	<polygon points="53.5,12.6 45,34.7 44.9,34.7 43.8,12.6 35.7,12.6 26.5,34.7 26.5,34.7 26,12.6 16.8,12.6 19.4,45.4 28.8,45.4 
		37.6,24 37.7,24 38.8,45.4 48.2,45.4 62.7,12.6 	"/>
	<polygon points="65.7,12.6 59.8,45.4 69.3,45.4 75.2,12.6 	"/>
	<polygon points="105.4,12.6 101.7,33.1 101.6,33.1 92.1,12.6 81.1,12.6 75.2,45.4 84.4,45.4 88.1,24.6 88.2,24.6 98.1,45.4 
		108.7,45.4 114.6,12.6 	"/>
	<polygon points="144.6,12.6 140.9,33.1 140.8,33.1 131.3,12.6 120.3,12.6 114.4,45.4 123.6,45.4 127.3,24.6 127.4,24.6 137.4,45.4 
		147.9,45.4 153.8,12.6 	"/>
	<polygon points="159.7,12.6 153.8,45.4 163.3,45.4 169.2,12.6 	"/>
	<polygon points="175.1,12.6 169.2,45.4 197.8,45.4 199,38.3 180,38.3 181,32.4 198.9,32.4 200.1,25.6 182.2,25.6 183.3,19.6 
		202.4,19.6 203.7,12.6 	"/>
</g>
</svg>
