<?xml version="1.0" encoding="utf-8"?>
<!-- Generator: Adobe Illustrator 24.3.0, SVG Export Plug-In . SVG Version: 6.00 Build 0)  -->
<svg version="1.1" id="Laag_1" xmlns="http://www.w3.org/2000/svg" xmlns:xlink="http://www.w3.org/1999/xlink" x="0px" y="0px"
	 width="43.2px" height="43.2px" viewBox="0 0 43.2 43.2" style="enable-background:new 0 0 43.2 43.2;" xml:space="preserve">
<style type="text/css">
	.st0{fill:#106DB6;}
	.st1{fill:#EBEEE2;}
</style>
<g>
	<circle class="st0" cx="21.6" cy="21.6" r="21.6"/>
	<g>
		<path class="st1" d="M9.2,28.3c-0.2,0.2-0.5,0.4-0.8,0.5c-0.9,0.2-1.5-0.1-1.7-1.1l-0.9-3.3l-1.1,0.3L4.5,24l0.3-0.1
			c0.6-0.2,0.8-0.5,0.6-1l-0.2-0.7L6.1,22l0.4,1.4L7.8,23L8,23.8l-1.3,0.4l0.9,3.2c0.1,0.5,0.4,0.6,0.7,0.5c0.2,0,0.3-0.1,0.4-0.3
			L9.2,28.3z"/>
		<path class="st1" d="M9.5,21.4c-0.1,0.2-0.2,0.3-0.4,0.3c-0.2,0-0.4,0-0.5-0.1c-0.2-0.1-0.3-0.2-0.3-0.4c0-0.2,0-0.4,0.1-0.5
			c0.1-0.2,0.2-0.3,0.4-0.3c0.2,0,0.4,0,0.5,0.1c0.2,0.1,0.3,0.2,0.3,0.4C9.6,21.1,9.6,21.2,9.5,21.4z M9.8,22.4l1.5,5.5l-1,0.3
			l-1.5-5.5L9.8,22.4z"/>
		<path class="st1" d="M17.2,24.3c0.1,0.6-0.1,1.2-0.4,1.7c-0.4,0.5-0.9,0.8-1.5,1c-0.9,0.2-1.6,0.1-2.2-0.3c-0.6-0.4-1.1-1-1.3-1.8
			c-0.2-0.8-0.1-1.5,0.2-2.2c0.4-0.7,0.9-1.1,1.7-1.4c0.7-0.2,1.3-0.1,1.9,0.1c0.6,0.3,1,0.7,1.2,1.3l-1,0.3
			c-0.2-0.3-0.4-0.6-0.7-0.7c-0.3-0.2-0.7-0.2-1.2-0.1c-0.5,0.1-0.9,0.4-1.1,0.9c-0.2,0.5-0.2,1-0.1,1.6c0.2,0.6,0.4,1,0.8,1.3
			c0.4,0.3,0.9,0.4,1.5,0.2c0.4-0.1,0.7-0.3,0.9-0.6c0.2-0.3,0.3-0.6,0.3-1L17.2,24.3z"/>
		<path class="st1" d="M22,19.1L20.4,22l3.1,2.6l-1.1,0.3l-2.4-2l-0.6,1l0.5,1.7l-1,0.3l-2.1-7.8l1-0.3l1.3,4.7l0.1,0l1.7-3L22,19.1
			z"/>
		<path class="st1" d="M25,18.2c0.8-0.2,1.5-0.1,2.1,0.3c0.6,0.4,1,1.1,1.2,2.1l-4.2,1.1c0.2,0.5,0.5,0.9,0.8,1.2
			c0.4,0.2,0.8,0.3,1.4,0.1c0.3-0.1,0.6-0.2,0.8-0.5s0.4-0.5,0.4-0.8l0.9-0.3c0,0.6-0.2,1.1-0.5,1.5c-0.4,0.4-0.8,0.7-1.4,0.8
			c-0.8,0.2-1.6,0.1-2.2-0.3c-0.6-0.4-1.1-1-1.3-1.9c-0.2-0.8-0.2-1.6,0.2-2.2C23.7,18.9,24.2,18.4,25,18.2z M24,21l3.2-0.9
			c-0.1-0.4-0.4-0.7-0.7-1c-0.4-0.2-0.8-0.3-1.2-0.1c-0.4,0.1-0.8,0.4-1,0.7C24,20.1,23.9,20.5,24,21z"/>
		<path class="st1" d="M32.8,21.9c-0.2,0.2-0.5,0.4-0.8,0.5c-0.9,0.2-1.5-0.1-1.7-1.1L29.4,18l-1.1,0.3l-0.2-0.7l0.3-0.1
			c0.6-0.2,0.8-0.5,0.6-1l-0.2-0.7l0.9-0.2l0.4,1.4l1.3-0.4l0.2,0.8l-1.3,0.4l0.9,3.2c0.1,0.5,0.4,0.6,0.7,0.5
			c0.2,0,0.3-0.1,0.4-0.3L32.8,21.9z"/>
		<path class="st1" d="M37.4,19.3c0.1,0.5,0,0.9-0.3,1.3c-0.3,0.4-0.7,0.6-1.3,0.8c-0.7,0.2-1.2,0.1-1.7-0.1c-0.5-0.2-0.8-0.6-1-1.2
			l0.9-0.3c0.1,0.4,0.3,0.6,0.6,0.7c0.3,0.1,0.6,0.1,0.9,0c0.3-0.1,0.5-0.2,0.7-0.4c0.2-0.2,0.2-0.4,0.1-0.6
			c-0.1-0.3-0.2-0.4-0.5-0.5c-0.3-0.1-0.6-0.1-1.1-0.2c-0.3,0-0.5,0-0.7-0.1c-0.2,0-0.4-0.1-0.6-0.2s-0.4-0.2-0.5-0.3
			c-0.1-0.2-0.3-0.3-0.3-0.6c-0.1-0.5,0-0.9,0.2-1.3c0.3-0.4,0.7-0.6,1.3-0.8c0.6-0.2,1.1-0.1,1.5,0.1c0.4,0.2,0.7,0.6,0.8,1
			l-0.9,0.2c-0.1-0.3-0.2-0.4-0.5-0.5c-0.2-0.1-0.5-0.1-0.8,0c-0.2,0.1-0.4,0.2-0.6,0.4c-0.1,0.2-0.2,0.4-0.1,0.6
			c0.1,0.2,0.2,0.4,0.4,0.5c0.2,0.1,0.6,0.1,1,0.2c0.6,0,1.2,0.1,1.5,0.3S37.3,18.9,37.4,19.3z"/>
	</g>
</g>
</svg>
