<?xml version="1.0" encoding="utf-8"?>
<!-- Generator: Adobe Illustrator 24.3.0, SVG Export Plug-In . SVG Version: 6.00 Build 0)  -->
<svg version="1.1" id="Laag_1" xmlns="http://www.w3.org/2000/svg" xmlns:xlink="http://www.w3.org/1999/xlink" x="0px" y="0px"
	 width="114.4px" height="14.8px" viewBox="0 0 114.4 14.8" style="enable-background:new 0 0 114.4 14.8;" xml:space="preserve">
<style type="text/css">
	.st0{fill:#EBEEE2;}
</style>
<g>
	<path class="st0" d="M10.3,14.6l-1.2-3.7H3.2L2,14.6H0L4.9,0.2h2.5l4.9,14.4H10.3z M3.8,9.2h4.7L6.3,2.3H6.1L3.8,9.2z"/>
	<path class="st0" d="M16.2,12.7h7.4v1.8h-9.4V0.2h2V12.7z"/>
	<path class="st0" d="M27.6,0.2v14.4h-2V0.2H27.6z"/>
	<path class="st0" d="M35,0.2c2.3,0,4.1,0.6,5.3,1.9c1.2,1.3,1.8,3,1.8,5.2c0,2.2-0.6,4-1.8,5.3c-1.2,1.3-3,2-5.3,2h-4.2V0.2H35z
		 M35,12.8c1.7,0,3.1-0.5,3.9-1.5s1.3-2.3,1.3-4c0-1.6-0.4-2.9-1.3-3.8C38,2.5,36.7,2,35,2h-2.3v10.8H35z"/>
	<path class="st0" d="M53.4,14.6l-1.2-3.7h-5.9l-1.2,3.7h-2L48,0.2h2.5l4.9,14.4H53.4z M46.8,9.2h4.7l-2.3-6.9h-0.2L46.8,9.2z"/>
	<path class="st0" d="M66.7,0.2c2.3,0,4.1,0.6,5.3,1.9c1.2,1.3,1.8,3,1.8,5.2c0,2.2-0.6,4-1.8,5.3c-1.2,1.3-3,2-5.3,2h-4.2V0.2H66.7
		z M66.7,12.8c1.7,0,3.1-0.5,3.9-1.5s1.3-2.3,1.3-4c0-1.6-0.4-2.9-1.3-3.8c-0.9-1-2.2-1.5-3.9-1.5h-2.3v10.8H66.7z"/>
	<path class="st0" d="M83,14.8c-2,0-3.7-0.7-5.1-2.1c-1.4-1.4-2-3.2-2-5.3s0.7-3.9,2-5.3S81,0,83,0c2,0,3.7,0.7,5.1,2.1
		c1.4,1.4,2,3.2,2,5.3s-0.7,3.9-2,5.3C86.7,14.1,85.1,14.8,83,14.8z M83,12.9c1.5,0,2.7-0.5,3.7-1.6c1-1.1,1.5-2.4,1.5-4
		c0-1.6-0.5-2.9-1.5-4c-1-1.1-2.2-1.6-3.7-1.6c-1.5,0-2.7,0.5-3.7,1.6c-1,1.1-1.5,2.4-1.5,4c0,1.6,0.5,2.9,1.5,4
		C80.3,12.4,81.5,12.9,83,12.9z"/>
	<path class="st0" d="M102.9,14.6h-2.1l-3.4-5.9h0h-2.8v5.9h-1.8V0.2h4.9c1.4,0,2.6,0.4,3.4,1.2s1.3,1.8,1.3,3.1
		c0,1-0.3,1.8-0.8,2.5c-0.5,0.7-1.3,1.2-2.2,1.5L102.9,14.6z M94.6,2v5h2.8c0.9,0,1.7-0.2,2.2-0.7c0.5-0.5,0.8-1.1,0.8-1.8
		c0-0.8-0.3-1.4-0.8-1.8C99.1,2.2,98.3,2,97.4,2H94.6z"/>
	<path class="st0" d="M114.4,11c0,1.2-0.4,2.2-1.3,2.8c-0.9,0.7-2,1-3.5,1c-1.6,0-2.9-0.4-3.8-1.3s-1.4-1.9-1.4-3.3h1.9
		c0,0.9,0.3,1.6,0.9,2.1c0.5,0.5,1.3,0.8,2.4,0.8c0.8,0,1.5-0.2,2-0.5s0.8-0.9,0.8-1.6c0-0.7-0.2-1.2-0.7-1.7s-1.4-0.9-2.6-1.3
		c-1.4-0.5-2.4-1-3.2-1.6c-0.7-0.6-1.1-1.4-1.1-2.5c0-1.2,0.4-2.1,1.3-2.9S108,0,109.3,0c1.5,0,2.6,0.4,3.5,1.2
		c0.9,0.8,1.3,1.8,1.3,3h-1.8c-0.1-0.7-0.3-1.3-0.8-1.8c-0.5-0.5-1.2-0.8-2.2-0.8c-0.8,0-1.4,0.2-1.8,0.6s-0.7,0.9-0.7,1.5
		c0,0.6,0.2,1.1,0.7,1.5s1.3,0.8,2.5,1.1c1.5,0.5,2.6,1.1,3.3,1.8C114.1,9,114.4,9.9,114.4,11z"/>
</g>
</svg>
