<?xml version="1.0" encoding="utf-8"?>
<!-- Generator: Adobe Illustrator 24.3.0, SVG Export Plug-In . SVG Version: 6.00 Build 0)  -->
<svg version="1.1" id="Laag_1" xmlns="http://www.w3.org/2000/svg" xmlns:xlink="http://www.w3.org/1999/xlink" x="0px" y="0px"
	 width="264px" height="42.9px" viewBox="0 0 264 42.9" style="enable-background:new 0 0 264 42.9;" xml:space="preserve">
<style type="text/css">
	.st0{fill:#EBEEE2;}
</style>
<g>
	<path class="st0" d="M16.3,33.7c-4.7,0-8.6-1.6-11.7-4.7C1.5,25.8,0,21.9,0,17.1c0-4.7,1.5-8.7,4.6-11.8c3.1-3.2,7-4.7,11.6-4.7
		c4.7,0,8.5,1.6,11.6,4.7c3.1,3.2,4.6,7.1,4.6,11.8c0,4.7-1.5,8.7-4.6,11.8C24.8,32.1,20.9,33.7,16.3,33.7z M16.3,27.7
		c2.8,0,5.1-1,6.9-3c1.8-2,2.8-4.5,2.8-7.5c0-3-0.9-5.5-2.8-7.5c-1.9-2-4.2-3-7-3c-2.8,0-5.1,1-7,3c-1.9,2-2.8,4.5-2.8,7.5
		c0,3,0.9,5.5,2.8,7.5C11.1,26.7,13.5,27.7,16.3,27.7z"/>
	<path class="st0" d="M49.1,9.8h1.7v6c-0.8-0.2-1.6-0.3-2.4-0.3c-1.8,0-3.4,0.6-4.6,1.9c-1.2,1.3-1.8,3.2-1.8,5.7v10.1h-6.2v-23h4.9
		l0.8,3.2H42C43.7,11,46.1,9.8,49.1,9.8z"/>
	<path class="st0" d="M75.3,1.1c5,0,8.9,1.4,11.8,4.2C90,8.1,91.5,12,91.5,17c0,5.1-1.4,9.1-4.3,11.9c-2.9,2.8-6.8,4.2-11.8,4.2
		H64.7V1.1H75.3z M75.4,27.4c3,0,5.4-0.9,7.1-2.8s2.7-4.4,2.7-7.7c0-3.1-0.9-5.5-2.7-7.3c-1.8-1.8-4.2-2.7-7.2-2.7h-4.3v20.5H75.4z"
		/>
	<path class="st0" d="M98,7.5c-1,0-1.9-0.4-2.7-1.1c-0.8-0.8-1.1-1.6-1.1-2.6c0-1.1,0.4-2,1.1-2.7C96,0.4,96.9,0,98,0
		c1,0,1.9,0.4,2.6,1.1c0.7,0.7,1.1,1.6,1.1,2.7c0,1-0.4,1.9-1.1,2.6C99.8,7.1,99,7.5,98,7.5z M100.9,10.2v23h-6v-23H100.9z"/>
	<path class="st0" d="M120.8,26h5.7c-0.5,2.4-1.8,4.3-3.8,5.7c-2,1.4-4.3,2-7,2c-3.6,0-6.4-1.1-8.5-3.3c-2.1-2.2-3.2-5.1-3.2-8.7
		c0-3.5,1.1-6.3,3.3-8.6c2.2-2.2,4.9-3.3,8.1-3.3c1.6,0,3.1,0.3,4.4,0.8c1.4,0.5,2.6,1.3,3.7,2.3c1.1,1,1.9,2.5,2.4,4.2
		c0.5,1.8,0.7,3.9,0.5,6.2h-16.7c0.5,3.6,2.6,5.5,6.1,5.5c1.1,0,2.2-0.3,3.1-0.8C119.8,27.5,120.4,26.9,120.8,26z M115.6,14.5
		c-1.4,0-2.6,0.4-3.6,1.2c-1,0.8-1.7,1.9-2,3.4h10.9c-0.1-1.2-0.6-2.3-1.5-3.2C118.3,14.9,117.1,14.5,115.6,14.5z"/>
	<path class="st0" d="M163.1,1.1v5.7h-8.9v26.5H148V6.8h-8.9V1.1H163.1z"/>
	<path class="st0" d="M177,9.8h1.7v6c-0.8-0.2-1.6-0.3-2.4-0.3c-1.8,0-3.4,0.6-4.6,1.9c-1.2,1.3-1.8,3.2-1.8,5.7v10.1h-6.2v-23h4.9
		l0.8,3.2h0.5C171.6,11,174,9.8,177,9.8z"/>
	<path class="st0" d="M198.4,10.2h6.2l-8.2,24.8c-0.8,2.5-2,4.4-3.4,5.8s-3.5,2-6.1,2s-4.7-0.7-6.1-2.1l2.4-4.2
		c1,0.9,2.1,1.3,3.3,1.3c0.9,0,1.6-0.3,2.4-0.9c0.7-0.6,1.2-1.4,1.5-2.4l0.5-1.3h-2.3l-8.9-23h6.4l6.3,16.9h0.5L198.4,10.2z"/>
	<path class="st0" d="M209.9,7.5c-1,0-1.9-0.4-2.7-1.1c-0.8-0.8-1.1-1.6-1.1-2.6c0-1.1,0.4-2,1.1-2.7c0.8-0.7,1.6-1.1,2.7-1.1
		c1,0,1.9,0.4,2.6,1.1c0.7,0.7,1.1,1.6,1.1,2.7c0,1-0.4,1.9-1.1,2.6C211.8,7.1,210.9,7.5,209.9,7.5z M212.9,10.2v23h-6v-23H212.9z"
		/>
	<path class="st0" d="M230.2,9.8c2.6,0,4.8,0.9,6.5,2.7s2.5,4.4,2.5,7.7v13H233v-12c0-2-0.5-3.4-1.4-4.5s-2.1-1.5-3.6-1.5
		c-1.3,0-2.5,0.5-3.4,1.5s-1.4,2.4-1.4,4.4v12.1H217v-23h4.9l0.8,2.8h0.5c0.5-0.6,0.9-1.1,1.4-1.5c0.4-0.4,1.2-0.8,2.2-1.2
		C227.7,10,228.9,9.8,230.2,9.8z"/>
	<path class="st0" d="M264,11.7c-0.6,0.8-1.8,1.5-3.6,2.2c0.8,1.3,1.1,2.6,1.1,4.1c0,2.3-0.9,4.1-2.7,5.4c-1.8,1.3-4.1,2-6.9,2
		c-1.1,0-2.1-0.1-3-0.3c-1,0.4-1.6,0.8-1.6,1.4c0,1.1,1.1,1.7,3.4,1.7h3.6c2.8,0,4.9,0.6,6.4,1.9c1.4,1.2,2.1,2.9,2.1,5
		c0,2.4-1,4.2-2.9,5.7c-1.9,1.4-4.5,2.1-7.8,2.1c-3.4,0-6.1-0.8-7.9-2.4c-1.9-1.6-2.8-3.5-2.8-5.8l3.2-2.7c-1.7-0.8-2.5-2.1-2.5-3.9
		c0-2,1.1-3.5,3.4-4.5c-2-1.4-3-3.4-3-5.8c0-2.3,0.8-4.2,2.5-5.7c1.7-1.5,3.9-2.3,6.8-2.3c2.2,0,4.2,0.5,5.9,1.5
		c1.2-0.7,2.4-1.7,3.6-3.1L264,11.7z M257,35.4c0-1.8-1.3-2.7-3.8-2.7h-3.4l-2.8,2.2c0.5,2.2,2.3,3.3,5.3,3.3c1.4,0,2.5-0.3,3.4-0.8
		C256.6,37,257,36.3,257,35.4z M249.2,20.1c0.7,0.7,1.6,1,2.8,1s2.1-0.3,2.8-1s1.1-1.5,1.1-2.5c0-1-0.4-1.9-1.1-2.6
		c-0.7-0.7-1.6-1.1-2.8-1.1c-1.2,0-2.1,0.3-2.8,1c-0.7,0.7-1.1,1.6-1.1,2.6C248.1,18.6,248.5,19.5,249.2,20.1z"/>
</g>
</svg>
