<?xml version="1.0" encoding="utf-8"?>
<!-- Generator: Adobe Illustrator 24.3.0, SVG Export Plug-In . SVG Version: 6.00 Build 0)  -->
<svg version="1.1" id="Laag_1" xmlns="http://www.w3.org/2000/svg" xmlns:xlink="http://www.w3.org/1999/xlink" x="0px" y="0px"
	 width="877.6px" height="279.3px" viewBox="0 0 877.6 279.3" style="enable-background:new 0 0 877.6 279.3;" xml:space="preserve"
	>
<style type="text/css">
	.st0{fill:none;stroke:#FFFFFF;stroke-width:2.999;stroke-miterlimit:10;}
	.st1{fill:#FFFFFF;}
</style>
<line class="st0" x1="3.6" y1="48.4" x2="286.4" y2="48.4"/>
<g>
	<path class="st1" d="M33.4,33.9c-2.1,5.9-7.6,9.4-13.6,9.4C11,43.3,5,36.3,5,27.4c0-7.8,5.3-15.9,15.2-15.9
		c7.8,0,11.8,5.7,12.9,8.5l-6.4,3c-0.8-2.6-2.9-5.1-6.8-5.1c-4.9,0-7.4,4.3-7.4,9.3c0,5.2,2.7,9.4,7.6,9.4c5.1,0,6.7-4.4,7.3-5.9
		L33.4,33.9z"/>
</g>
<g>
	<path class="st1" d="M57.8,42.4v-3.1c-1.5,1.4-4.5,3.8-9.7,3.8c-5,0-7.4-2.2-8.6-4c-1.6-2.4-1.7-5.2-1.7-7.9V12.4H45v17.3
		c0,2.9,0.7,6.7,5.9,6.7c3.5,0,5.3-2.3,5.8-3.4c1.1-2.1,1.1-4.9,1.1-7.2V12.4H65v30H57.8z"/>
	<path class="st1" d="M79.3,12.4v4.3c2.3-4.7,7.5-4.9,8.9-4.9h0.6v7.4c-1.5,0-7.3,0-9,5.5c-0.5,1.7-0.5,3.2-0.5,4.9v12.8h-7v-30
		H79.3z"/>
	<path class="st1" d="M110.6,42.4l-0.2-2.3c-2,1.6-5.2,3.1-8.8,3.1c-6.8,0-10.9-4.1-10.9-9.2c0-6.5,5-9.1,10.7-10.1
		c4.5-0.8,7.3-1.6,9.2-2.2c0-2.3-0.7-4.5-5.2-4.5c-5.5,0-6.1,2.9-6.1,4.5l-7.3-0.4c0.1-2,0.5-9.7,13.1-9.7c8.8,0,12.6,3.2,12.6,8.5
		v17.5c0,2.3,0.1,2.9,1.3,4.9H110.6z M110.6,27.4c-1.2,0.6-2.9,1.3-5.7,1.7c-3.3,0.5-6.6,1.1-6.6,4.1c0,2,1.3,3.7,4.9,3.7
		c3.3,0,7.4-1.7,7.4-5.5V27.4z"/>
	<path class="st1" d="M121.4,12.4h4.4V1.7h7.2v10.7h6.4v5.1H133v14.9c0,1.1,0.1,2.5,0.7,3.2c0.8,0.9,2.4,0.9,2.7,0.9
		c1,0,2.1-0.1,3-0.4v6.1c-1,0.1-2.7,0.5-5.2,0.5c-6.4,0-8.5-2.3-8.5-7.3V17.5h-4.4V12.4z"/>
	<path class="st1" d="M149,28.8c0.1,1.5,1.5,7.4,8.5,7.4c5.1,0,7.3-3.1,7.9-4.1l6.1,3.5c-2.4,3.2-6.8,7.6-14.6,7.6
		c-8.9,0-15.4-6.1-15.4-16.1c0-10.7,7.3-15.7,15.1-15.7c11.5,0,14.8,9.2,14.8,17.3H149z M163.3,23.5c-0.1-1.5-1.1-6.3-6.7-6.3
		c-5.9,0-7.1,5.1-7.3,6.3H163.3z"/>
	<path class="st1" d="M196.3,42.4v-2.9c-0.6,0.7-3,3.8-8.3,3.8c-6.3,0-13.3-4.4-13.3-15.3c0-10.7,6.5-16.5,13.6-16.5
		c2.5,0,6.1,0.9,8,3.4V0h7.1v42.4H196.3z M189.3,36.7c3.9,0,7-3.2,7-8.8c0-4.6-1.3-9.8-6.9-9.8c-4.5,0-7.2,4-7.2,9.1
		C182.2,31.6,184,36.7,189.3,36.7z"/>
	<path class="st1" d="M234.7,0v14.9c3.1-3.1,7.2-3.4,8.6-3.4c7,0,13.2,6.1,13.2,15.7c0,10.7-7.3,16.1-13.6,16.1c-1.7,0-5-0.4-8.2-4
		v3.1h-7.1V0H234.7z M241.9,36.4c3.9,0,7.2-3.4,7.2-9.8c0-4-2.3-8.6-7.5-8.6c-4.3,0-7,3.8-7,8.6C234.5,33.1,237.5,36.4,241.9,36.4z"
		/>
	<path class="st1" d="M286.3,12.4l-8,27.4c-1.1,3.8-2.6,9.1-5.1,11.2c-1.9,1.5-3.8,1.8-6.1,1.8c-2.3,0-3.1-0.2-4.3-0.4V46
		c0.7,0.1,1.4,0.1,2,0.1c4,0,4.6-2.4,4.9-3.2l-10.9-30.6h7.7l6.7,22.4l5.6-22.4H286.3z"/>
</g>
<g>
	<path class="st1" d="M23.5,72v32.2c0,3.2-1.3,11.1-13.4,11.1c-1,0-2.6,0-4.9-0.5v-7.8c2.2,0.5,3,0.6,4.2,0.6c6.1,0,6.4-4.1,6.4-7.3
		V72H23.5z"/>
	<path class="st1" d="M44.5,115.3c-10.9,0-15.6-8.7-15.6-16c0-7.2,4.7-15.8,15.4-15.8c6.5,0,15.4,4.4,15.5,15.8
		C59.8,107.3,54.7,115.3,44.5,115.3z M44.5,108.7c5.3,0,7.7-4.5,7.7-9.1c0-4.8-2.6-9.7-8.1-9.7c-4.2,0-7.7,3.1-7.7,9.1
		C36.4,104.3,39.4,108.7,44.5,108.7z"/>
	<path class="st1" d="M85.4,114.4V96.8c0-4.4-2.2-6.5-5.6-6.5c-3.9,0-7.5,2.9-7.5,7.4v16.6H65V72h7.2v15.4c1.8-1.9,5-4,9.5-4
		c6.5,0,10.7,3.7,10.7,10.6v20.3H85.4z"/>
	<path class="st1" d="M106.7,84.4v3.5c2.7-4.1,8-4.4,9.2-4.4c6.4,0,9.7,4.1,9.7,10v20.9h-7.1V97.5c0-3.3-0.8-7-5.3-7
		c-0.8,0-2.3,0.1-3.8,1.4c-2.2,1.8-2.8,4.3-2.8,9.5v13h-7.3v-30H106.7z"/>
	<path class="st1" d="M166.3,72c10,0,19.4,6.4,19.4,21.5c0,13.6-7.4,20.8-19.9,20.8h-16V72H166.3z M157.7,107.2h4.9
		c9.2,0,14.6-1.7,14.6-13.7c0-10.4-5.2-14.4-13-14.4h-6.5V107.2z"/>
	<path class="st1" d="M222.6,114.4h-7.1l-5.4-19.1l-5.7,19.1h-7.1l-8.7-30h7.5l5.2,20.5l5.6-20.5h6.4l5.5,20.5l5.3-20.5h7.5
		L222.6,114.4z"/>
	<path class="st1" d="M260.1,84.4l-8,27.4c-1.1,3.8-2.6,9.1-5.1,11.2c-1.9,1.5-3.8,1.8-6.1,1.8c-2.3,0-3.1-0.2-4.3-0.4V118
		c0.7,0.1,1.4,0.1,2,0.1c4,0,4.6-2.4,4.9-3.2l-10.9-30.6h7.7l6.7,22.4l5.6-22.4H260.1z"/>
	<path class="st1" d="M269.8,100.8c0.1,1.5,1.5,7.4,8.5,7.4c5.1,0,7.3-3.1,7.9-4.1l6.1,3.5c-2.4,3.2-6.8,7.6-14.6,7.6
		c-8.9,0-15.4-6.1-15.4-16.1c0-10.7,7.3-15.7,15.1-15.7c11.5,0,14.8,9.2,14.8,17.3H269.8z M284,95.5c-0.1-1.5-1.1-6.3-6.7-6.3
		c-5.9,0-7.1,5.1-7.3,6.3H284z"/>
	<path class="st1" d="M304,84.4v4.3c2.3-4.7,7.5-4.9,8.9-4.9h0.6v7.4c-1.5,0-7.3,0-9,5.5c-0.5,1.7-0.5,3.2-0.5,4.9v12.8h-7v-30H304z
		"/>
</g>
<g>
	<path class="st1" d="M340.6,120.3c-2-1.4-3.6-3.1-5-4.8c-2.8-3.6-4.2-7.8-4.2-12.5c0-4.4,1.4-8.8,3.8-12.2c1.4-1.9,2.9-3.5,5.2-5.2
		l1.7,1.8c-1.5,1.5-1.9,2.1-2.7,3.1c-2.3,3.2-3.5,7.5-3.5,12.1c0,6.4,2.4,12.3,6.3,15.5L340.6,120.3z"/>
	<path class="st1" d="M355.5,88.3c7.7,0,12.2,6.3,12.2,13.2c0,5.8-3.1,13.5-12.3,13.5c-7.5,0-12.1-6.2-12.1-13.3
		C343.3,94.2,348.2,88.3,355.5,88.3z M355.6,110.6c3.8,0,7.3-2.9,7.3-8.7c0-4.5-2.4-9.3-7.4-9.3c-4.2,0-7.3,3.3-7.3,8.9
		C348.2,105.5,350.1,110.6,355.6,110.6z"/>
	<path class="st1" d="M387.6,96.4c-0.8-1.3-2.6-3.8-6.6-3.8c-1.1,0-4.8,0.4-4.8,3.1c0,2,1.9,2.4,4.6,3l2.7,0.6
		c4,0.9,8.2,2.4,8.2,7.5c0,6.3-6.3,8.2-10.8,8.2c-4.2,0-8.9-1.5-11.1-5.4l4-2.8c1.1,1.7,3.2,3.8,7.9,3.8c2.8,0,4.9-1.2,4.9-3.3
		c0-2.1-1.7-2.6-4.9-3.3l-3.2-0.7c-3.2-0.7-7.3-2.1-7.3-7.1c0-4.5,3.6-7.9,10-7.9c2.3,0,6.7,0.4,10.3,5.1L387.6,96.4z"/>
	<path class="st1" d="M397,114.4V88.9H415v4.2h-13.4v6h12.3v4.1h-12.3v6.8h14.3v4.3H397z"/>
	<path class="st1" d="M420.6,114.4V88.9h18.1v4.2h-13.4v6h12.3v4.1h-12.3v6.8h14.3v4.3H420.6z"/>
	<path class="st1" d="M460,96.4c-0.8-1.3-2.6-3.8-6.6-3.8c-1.1,0-4.8,0.4-4.8,3.1c0,2,1.9,2.4,4.6,3l2.7,0.6c4,0.9,8.2,2.4,8.2,7.5
		c0,6.3-6.3,8.2-10.8,8.2c-4.2,0-8.9-1.5-11.1-5.4l4-2.8c1.1,1.7,3.2,3.8,7.9,3.8c2.8,0,4.9-1.2,4.9-3.3c0-2.1-1.7-2.6-4.9-3.3
		l-3.2-0.7c-3.2-0.7-7.3-2.1-7.3-7.1c0-4.5,3.6-7.9,10-7.9c2.3,0,6.7,0.4,10.3,5.1L460,96.4z"/>
	<path class="st1" d="M466.6,85.6c2.1,1.6,3.6,3.1,4.9,4.8c2.7,3.6,4.2,7.8,4.2,12.5c0,4.4-1.4,8.7-3.9,12.2
		c-1.4,1.9-2.8,3.4-5.2,5.2l-1.7-1.8c1.5-1.5,2-2.1,2.7-3.1c2.3-3.2,3.5-7.5,3.5-12.1c0-6.4-2.3-12.2-6.3-15.5L466.6,85.6z"/>
</g>
<g>
	<path class="st1" d="M486.7,115.4c0,4.6-3.2,6.5-7.5,7.3v-3.5c2.8-0.3,3.2-2.5,3.2-4.9h-3.7v-8.2h8V115.4z"/>
	<path class="st1" d="M510,114.4V72h8v35.2h16.8v7.2H510z"/>
	<path class="st1" d="M559.6,114.4v-3.1c-1.5,1.4-4.5,3.8-9.7,3.8c-5,0-7.4-2.2-8.6-4c-1.6-2.4-1.7-5.2-1.7-7.9V84.4h7.3v17.3
		c0,2.9,0.7,6.7,5.9,6.7c3.5,0,5.3-2.3,5.8-3.4c1.1-2.1,1.1-4.9,1.1-7.2V84.4h7.2v30H559.6z"/>
	<path class="st1" d="M600,105.9c-2.1,5.9-7.6,9.4-13.6,9.4c-8.8,0-14.8-7-14.8-15.9c0-7.8,5.3-15.9,15.2-15.9
		c7.8,0,11.8,5.7,12.9,8.5l-6.4,3c-0.8-2.6-2.9-5.1-6.8-5.1c-4.9,0-7.4,4.3-7.4,9.3c0,5.2,2.7,9.4,7.6,9.4c5.1,0,6.7-4.4,7.3-5.9
		L600,105.9z"/>
	<path class="st1" d="M611.4,84.4v4.3c2.3-4.7,7.5-4.9,8.9-4.9h0.6v7.4c-1.5,0-7.3,0-9,5.5c-0.5,1.7-0.5,3.2-0.5,4.9v12.8h-7v-30
		H611.4z"/>
	<path class="st1" d="M629.8,100.8c0.1,1.5,1.5,7.4,8.5,7.4c5.1,0,7.3-3.1,7.9-4.1l6.1,3.5c-2.4,3.2-6.8,7.6-14.6,7.6
		c-8.9,0-15.4-6.1-15.4-16.1c0-10.7,7.3-15.7,15.1-15.7c11.5,0,14.8,9.2,14.8,17.3H629.8z M644,95.5c-0.1-1.5-1.1-6.3-6.7-6.3
		c-5.9,0-7.1,5.1-7.3,6.3H644z"/>
	<path class="st1" d="M683,105.9c-2.1,5.9-7.6,9.4-13.6,9.4c-8.8,0-14.8-7-14.8-15.9c0-7.8,5.3-15.9,15.2-15.9
		c7.8,0,11.8,5.7,12.9,8.5l-6.4,3c-0.8-2.6-2.9-5.1-6.8-5.1c-4.9,0-7.4,4.3-7.4,9.3c0,5.2,2.7,9.4,7.6,9.4c5.1,0,6.7-4.4,7.3-5.9
		L683,105.9z"/>
	<path class="st1" d="M687.6,79.7v-7.3h7.1v7.3H687.6z M687.6,114.4v-30h7.1v30H687.6z"/>
	<path class="st1" d="M719.6,114.4l-0.2-2.3c-2,1.6-5.2,3.1-8.8,3.1c-6.8,0-10.9-4.1-10.9-9.2c0-6.5,5-9.1,10.7-10.1
		c4.5-0.8,7.3-1.6,9.2-2.2c0-2.3-0.7-4.5-5.2-4.5c-5.5,0-6.1,2.9-6.1,4.5l-7.3-0.4c0.1-2,0.5-9.7,13.1-9.7c8.8,0,12.6,3.2,12.6,8.5
		v17.5c0,2.3,0.1,2.9,1.3,4.9H719.6z M719.6,99.4c-1.2,0.6-2.9,1.3-5.7,1.7c-3.3,0.5-6.6,1.1-6.6,4.1c0,2,1.3,3.7,4.9,3.7
		c3.3,0,7.4-1.7,7.4-5.5V99.4z"/>
	<path class="st1" d="M767.5,72c10,0,19.4,6.4,19.4,21.5c0,13.6-7.4,20.8-19.9,20.8h-16V72H767.5z M758.9,107.2h4.9
		c9.2,0,14.6-1.7,14.6-13.7c0-10.4-5.2-14.4-13-14.4h-6.5V107.2z"/>
	<path class="st1" d="M810.2,114.4L810,112c-2,1.6-5.2,3.1-8.8,3.1c-6.8,0-10.9-4.1-10.9-9.2c0-6.5,5-9.1,10.7-10.1
		c4.5-0.8,7.3-1.6,9.2-2.2c0-2.3-0.7-4.5-5.2-4.5c-5.5,0-6.1,2.9-6.1,4.5l-7.3-0.4c0.1-2,0.5-9.7,13.1-9.7c8.8,0,12.6,3.2,12.6,8.5
		v17.5c0,2.3,0.1,2.9,1.3,4.9H810.2z M810.2,99.4c-1.2,0.6-2.9,1.3-5.7,1.7c-3.3,0.5-6.6,1.1-6.6,4.1c0,2,1.3,3.7,4.9,3.7
		c3.3,0,7.4-1.7,7.4-5.5V99.4z"/>
	<path class="st1" d="M824.6,114.4V72h7.3v42.4H824.6z"/>
	<path class="st1" d="M835.4,84.4h4.4V73.7h7.2v10.7h6.4v5.1h-6.4v14.9c0,1.1,0.1,2.5,0.7,3.2c0.8,0.9,2.4,0.9,2.7,0.9
		c1,0,2.1-0.1,3-0.4v6.1c-1,0.1-2.7,0.5-5.2,0.5c-6.4,0-8.5-2.3-8.5-7.3V89.5h-4.4V84.4z"/>
</g>
<g>
	<path class="st1" d="M39.8,186.4c0-1,0.8-34.8,0.8-34.8l-9.2,34.8h-7.1l-9.2-34.8c0,0,0.8,33.4,0.8,34.8H8.2V144h11.5l8.3,31.4
		l8.2-31.4h11.5v42.4H39.8z"/>
	<path class="st1" d="M73.3,186.4l-0.2-2.3c-2,1.6-5.2,3.1-8.8,3.1c-6.8,0-10.9-4.1-10.9-9.2c0-6.5,5-9.1,10.7-10.1
		c4.5-0.8,7.3-1.6,9.2-2.2c0-2.3-0.7-4.5-5.2-4.5c-5.5,0-6.1,2.9-6.1,4.5l-7.3-0.4c0.1-2,0.5-9.7,13.1-9.7c8.8,0,12.6,3.2,12.6,8.5
		v17.5c0,2.3,0.1,2.9,1.3,4.9H73.3z M73.3,171.4c-1.2,0.6-2.9,1.3-5.7,1.7c-3.3,0.5-6.6,1.1-6.6,4.1c0,2,1.3,3.7,4.9,3.7
		c3.3,0,7.4-1.7,7.4-5.5V171.4z"/>
	<path class="st1" d="M84,156.4h4.4v-10.7h7.2v10.7h6.4v5.1h-6.4v14.9c0,1.1,0.1,2.5,0.7,3.2c0.8,0.9,2.4,0.9,2.7,0.9
		c1,0,2.1-0.1,3-0.4v6.1c-1,0.1-2.7,0.5-5.2,0.5c-6.4,0-8.5-2.3-8.5-7.3v-17.9H84V156.4z"/>
	<path class="st1" d="M124.7,186.4l-0.2-2.3c-2,1.6-5.2,3.1-8.8,3.1c-6.8,0-10.9-4.1-10.9-9.2c0-6.5,5-9.1,10.7-10.1
		c4.5-0.8,7.3-1.6,9.2-2.2c0-2.3-0.7-4.5-5.2-4.5c-5.5,0-6.1,2.9-6.1,4.5l-7.3-0.4c0.1-2,0.5-9.7,13.1-9.7c8.8,0,12.6,3.2,12.6,8.5
		v17.5c0,2.3,0.1,2.9,1.3,4.9H124.7z M124.7,171.4c-1.2,0.6-2.9,1.3-5.7,1.7c-3.3,0.5-6.6,1.1-6.6,4.1c0,2,1.3,3.7,4.9,3.7
		c3.3,0,7.4-1.7,7.4-5.5V171.4z"/>
	<path class="st1" d="M146.2,156.4v3.5c2.7-4.1,8-4.4,9.2-4.4c6.4,0,9.7,4.1,9.7,10v20.9h-7.1v-16.9c0-3.3-0.8-7-5.3-7
		c-0.8,0-2.3,0.1-3.8,1.4c-2.2,1.8-2.8,4.3-2.8,9.5v13H139v-30H146.2z"/>
	<path class="st1" d="M179.3,156.4v3.5c2.7-4.1,8-4.4,9.2-4.4c6.4,0,9.7,4.1,9.7,10v20.9h-7.1v-16.9c0-3.3-0.8-7-5.3-7
		c-0.8,0-2.3,0.1-3.8,1.4c-2.2,1.8-2.8,4.3-2.8,9.5v13h-7.3v-30H179.3z"/>
	<path class="st1" d="M222.9,186.4l-0.2-2.3c-2,1.6-5.2,3.1-8.8,3.1c-6.8,0-10.9-4.1-10.9-9.2c0-6.5,5-9.1,10.7-10.1
		c4.5-0.8,7.3-1.6,9.2-2.2c0-2.3-0.7-4.5-5.2-4.5c-5.5,0-6.1,2.9-6.1,4.5l-7.3-0.4c0.1-2,0.5-9.7,13.1-9.7c8.8,0,12.6,3.2,12.6,8.5
		v17.5c0,2.3,0.1,2.9,1.3,4.9H222.9z M222.9,171.4c-1.2,0.6-2.9,1.3-5.7,1.7c-3.3,0.5-6.6,1.1-6.6,4.1c0,2,1.3,3.7,4.9,3.7
		c3.3,0,7.4-1.7,7.4-5.5V171.4z"/>
	<path class="st1" d="M272.3,144c8.3,0,14,5.5,14,13.4c0,4.1-1.6,9.4-8.3,11.6l9.4,17.3h-9.1l-8.3-15.7h-7.1v15.7H255V144H272.3z
		 M262.8,164h6.1c5.7,0,9.3-1.7,9.3-6.7c0-4.6-3.1-6.5-8.2-6.5h-7.2V164z"/>
	<path class="st1" d="M306,187.3c-10.9,0-15.6-8.7-15.6-16c0-7.2,4.7-15.8,15.4-15.8c6.5,0,15.4,4.4,15.5,15.8
		C321.2,179.3,316.2,187.3,306,187.3z M306,180.7c5.3,0,7.7-4.5,7.7-9.1c0-4.8-2.6-9.7-8.1-9.7c-4.2,0-7.7,3.1-7.7,9.1
		C297.9,176.3,300.8,180.7,306,180.7z"/>
	<path class="st1" d="M333.7,144v14.9c3.1-3.1,7.2-3.4,8.6-3.4c7,0,13.2,6.1,13.2,15.7c0,10.7-7.3,16.1-13.6,16.1
		c-1.7,0-5-0.4-8.2-4v3.1h-7.1V144H333.7z M340.9,180.4c3.9,0,7.2-3.4,7.2-9.8c0-4-2.3-8.6-7.5-8.6c-4.3,0-7,3.8-7,8.6
		C333.6,177.1,336.6,180.4,340.9,180.4z"/>
	<path class="st1" d="M366.7,172.8c0.1,1.5,1.5,7.4,8.5,7.4c5.1,0,7.3-3.1,7.9-4.1l6.1,3.5c-2.4,3.2-6.8,7.6-14.6,7.6
		c-8.9,0-15.4-6.1-15.4-16.1c0-10.7,7.3-15.7,15.1-15.7c11.5,0,14.8,9.2,14.8,17.3H366.7z M381,167.5c-0.1-1.5-1.1-6.3-6.7-6.3
		c-5.9,0-7.1,5.1-7.3,6.3H381z"/>
	<path class="st1" d="M401,156.4v4.3c2.3-4.7,7.5-4.9,8.9-4.9h0.6v7.4c-1.5,0-7.3,0-9,5.5c-0.5,1.7-0.5,3.2-0.5,4.9v12.8h-7v-30H401
		z"/>
	<path class="st1" d="M411.1,156.4h4.4v-10.7h7.2v10.7h6.4v5.1h-6.4v14.9c0,1.1,0.1,2.5,0.7,3.2c0.8,0.9,2.4,0.9,2.7,0.9
		c1,0,2.1-0.1,3-0.4v6.1c-1,0.1-2.7,0.5-5.2,0.5c-6.4,0-8.5-2.3-8.5-7.3v-17.9h-4.4V156.4z"/>
	<path class="st1" d="M452.4,165.8c-1.6-3.2-4.7-4.6-8.2-4.6c-1.4,0-5,0.4-5,3.1c0,2,1.8,2.6,6.1,3.4l4.9,0.9c4.6,0.8,8,3.5,8,8.4
		c0,5.5-5.2,10.3-13.5,10.3c-8.3,0-12.7-3.7-14.4-5.4l5.4-4.4c1.4,1.9,4.1,3.8,8.6,3.8c4.3,0,5.9-2.2,5.9-3.5c0-1.7-1.7-2.4-4.4-2.9
		l-3.7-0.7c-2.3-0.4-10.4-1.9-10.4-9c0-5.9,5.7-9.8,12.9-9.8c2.3,0,8.4,0.4,12.9,5.6L452.4,165.8z"/>
	<path class="st1" d="M470,187.4c0,4.6-3.2,6.5-7.5,7.3v-3.5c2.8-0.3,3.2-2.5,3.2-4.9H462v-8.2h8V187.4z"/>
	<path class="st1" d="M524.6,186.4c0-1,0.8-34.8,0.8-34.8l-9.2,34.8H509l-9.2-34.8c0,0,0.8,33.4,0.8,34.8h-7.7V144h11.5l8.3,31.4
		l8.2-31.4h11.5v42.4H524.6z"/>
	<path class="st1" d="M540.3,151.7v-7.3h7.1v7.3H540.3z M540.3,186.4v-30h7.1v30H540.3z"/>
	<path class="st1" d="M574.7,186.4v-2.9c-0.6,0.7-3,3.8-8.3,3.8c-6.3,0-13.3-4.4-13.3-15.3c0-10.7,6.5-16.5,13.6-16.5
		c2.5,0,6.1,0.9,8,3.4V144h7.1v42.4H574.7z M567.7,180.7c3.9,0,7-3.2,7-8.8c0-4.6-1.3-9.8-6.9-9.8c-4.5,0-7.2,4-7.2,9.1
		C560.6,175.6,562.4,180.7,567.7,180.7z"/>
	<path class="st1" d="M603,187.3c-10.9,0-15.6-8.7-15.6-16c0-7.2,4.7-15.8,15.4-15.8c6.5,0,15.4,4.4,15.5,15.8
		C618.2,179.3,613.2,187.3,603,187.3z M603,180.7c5.3,0,7.7-4.5,7.7-9.1c0-4.8-2.6-9.7-8.1-9.7c-4.2,0-7.7,3.1-7.7,9.1
		C594.9,176.3,597.8,180.7,603,180.7z"/>
	<path class="st1" d="M630.5,156.4v4.3c2.3-4.7,7.5-4.9,8.9-4.9h0.6v7.4c-1.5,0-7.3,0-9,5.5c-0.5,1.7-0.5,3.2-0.5,4.9v12.8h-7v-30
		H630.5z"/>
	<path class="st1" d="M644.3,151.7v-7.3h7.1v7.3H644.3z M644.3,186.4v-30h7.1v30H644.3z"/>
	<path class="st1" d="M692.4,151.1v35.2h-7.9v-35.2h-11.5V144h31.1v7.1H692.4z"/>
	<path class="st1" d="M721.3,186.4l-0.2-2.3c-2,1.6-5.2,3.1-8.8,3.1c-6.8,0-10.9-4.1-10.9-9.2c0-6.5,5-9.1,10.7-10.1
		c4.5-0.8,7.3-1.6,9.2-2.2c0-2.3-0.7-4.5-5.2-4.5c-5.5,0-6.1,2.9-6.1,4.5l-7.3-0.4c0.1-2,0.5-9.7,13.1-9.7c8.8,0,12.6,3.2,12.6,8.5
		v17.5c0,2.3,0.1,2.9,1.3,4.9H721.3z M721.3,171.4c-1.2,0.6-2.9,1.3-5.7,1.7c-3.3,0.5-6.6,1.1-6.6,4.1c0,2,1.3,3.7,4.9,3.7
		c3.3,0,7.4-1.7,7.4-5.5V171.4z"/>
	<path class="st1" d="M756,186.4l-9.1-13.4l-4.2,4.1v9.3h-7.1V144h7.1v23.8l11.7-11.5h9.2l-11.5,11.5l12.6,18.5H756z"/>
	<path class="st1" d="M786.5,186.4l-0.2-2.3c-2,1.6-5.2,3.1-8.8,3.1c-6.8,0-10.9-4.1-10.9-9.2c0-6.5,5-9.1,10.7-10.1
		c4.5-0.8,7.3-1.6,9.2-2.2c0-2.3-0.7-4.5-5.2-4.5c-5.5,0-6.1,2.9-6.1,4.5l-7.3-0.4c0.1-2,0.5-9.7,13.1-9.7c8.8,0,12.6,3.2,12.6,8.5
		v17.5c0,2.3,0.1,2.9,1.3,4.9H786.5z M786.5,171.4c-1.2,0.6-2.9,1.3-5.7,1.7c-3.3,0.5-6.6,1.1-6.6,4.1c0,2,1.3,3.7,4.9,3.7
		c3.3,0,7.4-1.7,7.4-5.5V171.4z"/>
	<path class="st1" d="M820.8,186.4v-2.9c-0.6,0.7-3,3.8-8.3,3.8c-6.3,0-13.3-4.4-13.3-15.3c0-10.7,6.5-16.5,13.6-16.5
		c2.5,0,6.1,0.9,8,3.4V144h7.1v42.4H820.8z M813.8,180.7c3.9,0,7-3.2,7-8.8c0-4.6-1.3-9.8-6.9-9.8c-4.5,0-7.2,4-7.2,9.1
		C806.6,175.6,808.5,180.7,813.8,180.7z"/>
	<path class="st1" d="M852.8,186.4l-0.2-2.3c-2,1.6-5.2,3.1-8.8,3.1c-6.8,0-10.9-4.1-10.9-9.2c0-6.5,5-9.1,10.7-10.1
		c4.5-0.8,7.3-1.6,9.2-2.2c0-2.3-0.7-4.5-5.2-4.5c-5.5,0-6.1,2.9-6.1,4.5l-7.3-0.4c0.1-2,0.5-9.7,13.1-9.7c8.8,0,12.6,3.2,12.6,8.5
		v17.5c0,2.3,0.1,2.9,1.3,4.9H852.8z M852.8,171.4c-1.2,0.6-2.9,1.3-5.7,1.7c-3.3,0.5-6.6,1.1-6.6,4.1c0,2,1.3,3.7,4.9,3.7
		c3.3,0,7.4-1.7,7.4-5.5V171.4z"/>
	<path class="st1" d="M873.5,187.4c0,4.6-3.2,6.5-7.5,7.3v-3.5c2.8-0.3,3.2-2.5,3.2-4.9h-3.7v-8.2h8V187.4z"/>
</g>
<g>
	<path class="st1" d="M25,216c8.8,0,15.1,5.4,15.1,14.1c0,7.7-4.4,13.9-15.5,13.9h-8.1v14.4H8.5V216H25z M16.4,237.5h7
		c5.6,0,8.5-2.6,8.5-7.6c0-6.8-5.5-7.1-9.4-7.1h-6.1V237.5z"/>
	<path class="st1" d="M64.7,258.4v-17.6c0-4.4-2.2-6.5-5.6-6.5c-3.9,0-7.5,2.9-7.5,7.4v16.6h-7.2V216h7.2v15.4c1.8-1.9,5-4,9.5-4
		c6.5,0,10.7,3.7,10.7,10.6v20.3H64.7z"/>
	<path class="st1" d="M78.9,223.7v-7.3H86v7.3H78.9z M78.9,258.4v-30H86v30H78.9z"/>
	<path class="st1" d="M93.4,258.4V216h7.3v42.4H93.4z"/>
	<path class="st1" d="M125.3,258.4V216h30.1v7.1h-22.3v10h20.5v6.8h-20.5v11.3h23.8v7.1H125.3z"/>
	<path class="st1" d="M161.5,258.4V216h7.3v42.4H161.5z"/>
	<path class="st1" d="M190.1,258.4h-7.7l-9.7-30h7.4l6.2,20.6l6.1-20.6h7.5L190.1,258.4z"/>
	<path class="st1" d="M209.8,244.8c0.1,1.5,1.5,7.4,8.5,7.4c5.1,0,7.3-3.1,7.9-4.1l6.1,3.5c-2.4,3.2-6.8,7.6-14.6,7.6
		c-8.9,0-15.4-6.1-15.4-16.1c0-10.7,7.3-15.7,15.1-15.7c11.5,0,14.8,9.2,14.8,17.3H209.8z M224.1,239.5c-0.1-1.5-1.1-6.3-6.7-6.3
		c-5.9,0-7.1,5.1-7.3,6.3H224.1z"/>
	<path class="st1" d="M244.1,228.4v4.3c2.3-4.7,7.5-4.9,8.9-4.9h0.6v7.4c-1.5,0-7.3,0-9,5.5c-0.5,1.7-0.5,3.2-0.5,4.9v12.8h-7v-30
		H244.1z"/>
	<path class="st1" d="M277.8,258.4v-3.1c-1.5,1.4-4.5,3.8-9.7,3.8c-5,0-7.4-2.2-8.6-4c-1.6-2.4-1.7-5.2-1.7-7.9v-18.8h7.3v17.3
		c0,2.9,0.7,6.7,5.9,6.7c3.5,0,5.3-2.3,5.8-3.4c1.1-2.1,1.1-4.9,1.1-7.2v-13.4h7.2v30H277.8z"/>
	<path class="st1" d="M299.4,228.4v3.4c1.3-1.7,4.8-4.3,9.4-4.3c3.4,0,6.7,1.6,8.3,4.6c1.9-2.5,5-4.6,9.7-4.6
		c6.1,0,10.3,3.2,10.3,10.4v20.5H330V240c0-1.1-0.2-5.8-5-5.8c-1.1,0-3.7,0.4-5.3,3.1c-1.4,2.2-1.4,4.6-1.4,7v14.1h-7.1v-18.4
		c0-2.3-1-5.7-4.9-5.7c-0.7,0-2.3,0.2-3.8,1.4c-2.9,2.5-3,6.7-3,10.1v12.6h-7.2v-30H299.4z"/>
</g>
<g>
	<path class="st1" d="M366.9,264.3c-2-1.4-3.6-3.1-5-4.8c-2.8-3.6-4.2-7.8-4.2-12.5c0-4.4,1.4-8.8,3.8-12.2c1.4-1.9,2.9-3.5,5.2-5.2
		l1.7,1.8c-1.5,1.5-1.9,2.1-2.7,3.1c-2.3,3.2-3.5,7.5-3.5,12.1c0,6.4,2.4,12.3,6.3,15.5L366.9,264.3z"/>
	<path class="st1" d="M380.4,237.2v21.1h-4.8v-21.1h-6.9v-4.3h18.7v4.3H380.4z"/>
	<path class="st1" d="M401.5,258.4v-10.5c0-2.6-1.3-3.9-3.4-3.9c-2.3,0-4.5,1.8-4.5,4.5v10h-4.3v-25.4h4.3v9.2
		c1.1-1.1,3-2.4,5.7-2.4c3.9,0,6.4,2.2,6.4,6.4v12.2H401.5z"/>
	<path class="st1" d="M413.5,250.2c0.1,0.9,0.9,4.5,5.1,4.5c3.1,0,4.4-1.9,4.7-2.5l3.7,2.1c-1.4,1.9-4.1,4.6-8.8,4.6
		c-5.4,0-9.3-3.7-9.3-9.6c0-6.4,4.4-9.4,9-9.4c6.9,0,8.9,5.5,8.9,10.4H413.5z M422.1,247.1c-0.1-0.9-0.6-3.8-4-3.8
		c-3.6,0-4.2,3.1-4.4,3.8H422.1z"/>
	<path class="st1" d="M459.4,258.4c0-0.6,0.5-20.9,0.5-20.9l-5.5,20.9h-4.3l-5.5-20.9c0,0,0.5,20,0.5,20.9h-4.6v-25.4h6.9l5,18.9
		l4.9-18.9h6.9v25.4H459.4z"/>
	<path class="st1" d="M468.9,237.6v-4.4h4.3v4.4H468.9z M468.9,258.4v-18h4.3v18H468.9z"/>
	<path class="st1" d="M493.1,253.3c-1.3,3.6-4.5,5.6-8.1,5.6c-5.3,0-8.9-4.2-8.9-9.5c0-4.7,3.2-9.5,9.1-9.5c4.7,0,7.1,3.4,7.7,5.1
		l-3.9,1.8c-0.5-1.5-1.8-3.1-4.1-3.1c-2.9,0-4.4,2.6-4.4,5.6c0,3.1,1.6,5.6,4.5,5.6c3.1,0,4-2.7,4.4-3.5L493.1,253.3z"/>
	<path class="st1" d="M500,240.4v2.6c1.4-2.8,4.5-3,5.4-3h0.4v4.4c-0.9,0-4.4,0-5.4,3.3c-0.3,1-0.3,1.9-0.3,3v7.7h-4.2v-18H500z"/>
	<path class="st1" d="M515.8,258.9c-6.6,0-9.4-5.2-9.4-9.6c0-4.3,2.8-9.5,9.2-9.5c3.9,0,9.3,2.6,9.3,9.5
		C525,254.1,521.9,258.9,515.8,258.9z M515.8,254.9c3.2,0,4.6-2.7,4.6-5.4c0-2.9-1.5-5.8-4.9-5.8c-2.5,0-4.6,1.8-4.6,5.5
		C511,252.3,512.7,254.9,515.8,254.9z"/>
	<path class="st1" d="M532.5,240.4v1.6c0.7-0.8,2.2-2.2,4.9-2.2c1.2,0,3.7,0.2,5.8,2.6c0.9,1.1,2.4,3.5,2.4,7.1c0,1-0.1,3.7-1.8,6.1
		c-2.1,3-5,3.3-6.4,3.3c-1.1,0-3-0.2-4.9-2v7.3h-4.3v-23.9H532.5z M536.7,244c-3.1,0-4.3,2.8-4.3,5.3c0,3.1,1.5,5.5,4.4,5.5
		c1.7,0,4.3-1,4.3-5.5C541.2,245.5,538.8,244,536.7,244z"/>
	<path class="st1" d="M561,258.4v-10.5c0-2.6-1.3-3.9-3.4-3.9c-2.3,0-4.5,1.8-4.5,4.5v10h-4.3v-25.4h4.3v9.2c1.1-1.1,3-2.4,5.7-2.4
		c3.9,0,6.4,2.2,6.4,6.4v12.2H561z"/>
	<path class="st1" d="M577.8,258.9c-6.6,0-9.4-5.2-9.4-9.6c0-4.3,2.8-9.5,9.2-9.5c3.9,0,9.3,2.6,9.3,9.5
		C586.9,254.1,583.9,258.9,577.8,258.9z M577.8,254.9c3.2,0,4.6-2.7,4.6-5.4c0-2.9-1.5-5.8-4.9-5.8c-2.5,0-4.6,1.8-4.6,5.5
		C572.9,252.3,574.7,254.9,577.8,254.9z"/>
	<path class="st1" d="M594.4,240.4v2.1c1.6-2.4,4.8-2.7,5.5-2.7c3.8,0,5.8,2.5,5.8,6v12.5h-4.2v-10.1c0-2-0.5-4.2-3.2-4.2
		c-0.5,0-1.4,0.1-2.3,0.8c-1.3,1.1-1.7,2.6-1.7,5.7v7.8H590v-18H594.4z"/>
	<path class="st1" d="M613.5,250.2c0.1,0.9,0.9,4.5,5.1,4.5c3.1,0,4.4-1.9,4.7-2.5l3.7,2.1c-1.4,1.9-4.1,4.6-8.8,4.6
		c-5.4,0-9.3-3.7-9.3-9.6c0-6.4,4.4-9.4,9-9.4c6.9,0,8.9,5.5,8.9,10.4H613.5z M622,247.1c-0.1-0.9-0.6-3.8-4-3.8
		c-3.6,0-4.2,3.1-4.4,3.8H622z"/>
	<path class="st1" d="M641.6,246c-1-1.9-2.8-2.7-4.9-2.7c-0.8,0-3,0.3-3,1.9c0,1.2,1.1,1.5,3.7,2l2.9,0.5c2.7,0.5,4.8,2.1,4.8,5
		c0,3.3-3.1,6.2-8.1,6.2c-5,0-7.6-2.2-8.6-3.2l3.2-2.6c0.9,1.2,2.5,2.3,5.2,2.3c2.6,0,3.5-1.3,3.5-2.1c0-1-1-1.4-2.7-1.7l-2.2-0.4
		c-1.4-0.3-6.3-1.2-6.3-5.4c0-3.6,3.4-5.9,7.7-5.9c1.4,0,5,0.2,7.7,3.3L641.6,246z"/>
	<path class="st1" d="M650.7,258.4h-4.3l12.1-25.4h4.3L650.7,258.4z"/>
	<path class="st1" d="M694.7,258.4c0-0.6,0.5-20.9,0.5-20.9l-5.5,20.9h-4.3l-5.5-20.9c0,0,0.5,20,0.5,20.9h-4.6v-25.4h6.9l5,18.9
		l4.9-18.9h6.9v25.4H694.7z"/>
	<path class="st1" d="M712.4,258.9c-6.6,0-9.4-5.2-9.4-9.6c0-4.3,2.8-9.5,9.2-9.5c3.9,0,9.3,2.6,9.3,9.5
		C721.6,254.1,718.6,258.9,712.4,258.9z M712.4,254.9c3.2,0,4.6-2.7,4.6-5.4c0-2.9-1.5-5.8-4.9-5.8c-2.5,0-4.6,1.8-4.6,5.5
		C707.6,252.3,709.3,254.9,712.4,254.9z"/>
	<path class="st1" d="M736.7,258.4v-1.8c-0.9,0.8-2.7,2.3-5.8,2.3c-3,0-4.5-1.3-5.2-2.4c-1-1.4-1-3.1-1-4.8v-11.3h4.4v10.4
		c0,1.7,0.4,4,3.5,4c2.1,0,3.2-1.4,3.5-2c0.6-1.3,0.7-3,0.7-4.3v-8h4.3v18H736.7z"/>
	<path class="st1" d="M749.7,240.4v2.1c1.6-2.4,4.8-2.7,5.5-2.7c3.8,0,5.8,2.5,5.8,6v12.5h-4.2v-10.1c0-2-0.5-4.2-3.2-4.2
		c-0.5,0-1.4,0.1-2.3,0.8c-1.3,1.1-1.7,2.6-1.7,5.7v7.8h-4.4v-18H749.7z"/>
	<path class="st1" d="M763.1,240.4h2.6V234h4.3v6.4h3.9v3.1h-3.9v8.9c0,0.7,0,1.5,0.4,1.9c0.5,0.5,1.4,0.5,1.6,0.5
		c0.6,0,1.3-0.1,1.8-0.2v3.6c-0.6,0.1-1.6,0.3-3.1,0.3c-3.9,0-5.1-1.4-5.1-4.4v-10.7h-2.6V240.4z"/>
	<path class="st1" d="M786.8,258.4v-25.4h18.1v4.2h-13.4v6h12.3v4.1h-12.3v6.8h14.3v4.3H786.8z"/>
	<path class="st1" d="M811.9,250.2c0.1,0.9,0.9,4.5,5.1,4.5c3.1,0,4.4-1.9,4.7-2.5l3.7,2.1c-1.4,1.9-4.1,4.6-8.8,4.6
		c-5.4,0-9.3-3.7-9.3-9.6c0-6.4,4.4-9.4,9-9.4c6.9,0,8.9,5.5,8.9,10.4H811.9z M820.5,247.1c-0.1-0.9-0.6-3.8-4-3.8
		c-3.6,0-4.2,3.1-4.4,3.8H820.5z"/>
	<path class="st1" d="M832.5,240.4v2.6c1.4-2.8,4.5-3,5.4-3h0.4v4.4c-0.9,0-4.4,0-5.4,3.3c-0.3,1-0.3,1.9-0.3,3v7.7h-4.2v-18H832.5z
		"/>
	<path class="st1" d="M840.8,237.6v-4.4h4.3v4.4H840.8z M840.8,258.4v-18h4.3v18H840.8z"/>
	<path class="st1" d="M852.9,250.2c0.1,0.9,0.9,4.5,5.1,4.5c3.1,0,4.4-1.9,4.7-2.5l3.7,2.1c-1.4,1.9-4.1,4.6-8.8,4.6
		c-5.4,0-9.3-3.7-9.3-9.6c0-6.4,4.4-9.4,9-9.4c6.9,0,8.9,5.5,8.9,10.4H852.9z M861.5,247.1c-0.1-0.9-0.6-3.8-4-3.8
		c-3.6,0-4.2,3.1-4.4,3.8H861.5z"/>
	<path class="st1" d="M868.5,229.6c2.1,1.6,3.6,3.1,4.9,4.8c2.7,3.6,4.2,7.8,4.2,12.5c0,4.4-1.4,8.7-3.9,12.2
		c-1.4,1.9-2.8,3.4-5.2,5.2l-1.7-1.8c1.5-1.5,2-2.1,2.7-3.1c2.3-3.2,3.5-7.5,3.5-12.1c0-6.4-2.3-12.2-6.3-15.5L868.5,229.6z"/>
</g>
</svg>
