<?xml version="1.0" encoding="utf-8"?>
<!-- Generator: Adobe Illustrator 24.3.0, SVG Export Plug-In . SVG Version: 6.00 Build 0)  -->
<svg version="1.1" id="Laag_1" xmlns="http://www.w3.org/2000/svg" xmlns:xlink="http://www.w3.org/1999/xlink" x="0px" y="0px"
	 width="631.7px" height="196.4px" viewBox="0 0 631.7 196.4" style="enable-background:new 0 0 631.7 196.4;" xml:space="preserve"
	>
<style type="text/css">
	.st0{fill:none;stroke:#FFFFFF;stroke-width:2.999;stroke-miterlimit:10;}
	.st1{fill:#FFFFFF;}
</style>
<line class="st0" x1="79.4" y1="190.4" x2="540.3" y2="190.4"/>
<g>
	<path class="st1" d="M14.5,42.4V17.5c0-2.8-1.3-3.2-2.9-3.2h-7V9.6h0.8c2.6,0,4.8-0.1,7-1.7s2.9-3.6,3.5-6.1h6v40.5h-7.4V42.4z"/>
	<path class="st1" d="M48.2,42.4V17.5c0-2.8-1.3-3.2-2.9-3.2h-7V9.6h0.8c2.6,0,4.8-0.1,7-1.7s2.9-3.6,3.5-6.1h6v40.5h-7.4V42.4z"/>
	<path class="st1" d="M87.3,27.5v-6.8h17.3v6.8H87.3z"/>
	<path class="st1" d="M138.8,42.4V17.5c0-2.8-1.3-3.2-2.9-3.2h-7V9.6h0.8c2.6,0,4.8-0.1,7-1.7s2.9-3.6,3.5-6.1h6v40.5h-7.4V42.4z"/>
	<path class="st1" d="M184.3,33.1v9.3h-7.4v-9.3h-17.8v-5.3l17.8-25.9h7.4v25h5.2v6.2H184.3z M176.9,26.9c0-0.9,0.4-16.1,0.4-16.1
		l-10.4,16.1H176.9z"/>
	<path class="st1" d="M239.8,42.4l-18.5-29.7c0,0,0.5,28.9,0.5,29.7H214V0h7.1l18.8,29.9c0,0-0.9-28.9-1-29.9h7.8v42.4H239.8z"/>
	<path class="st1" d="M269.3,43.3c-10.9,0-15.6-8.7-15.6-16c0-7.2,4.7-15.8,15.4-15.8c6.5,0,15.4,4.4,15.5,15.8
		C284.5,35.3,279.5,43.3,269.3,43.3z M269.3,36.7c5.3,0,7.7-4.5,7.7-9.1c0-4.8-2.6-9.7-8.1-9.7c-4.2,0-7.7,3.1-7.7,9.1
		C261.2,32.3,264.1,36.7,269.3,36.7z"/>
	<path class="st1" d="M304.7,42.4H297l-9.7-30h7.4L301,33l6.1-20.6h7.5L304.7,42.4z"/>
	<path class="st1" d="M325,28.8c0.1,1.5,1.5,7.4,8.5,7.4c5.1,0,7.3-3.1,7.9-4.1l6.1,3.5c-2.4,3.2-6.8,7.6-14.6,7.6
		c-8.9,0-15.4-6.1-15.4-16.1c0-10.7,7.3-15.7,15.1-15.7c11.5,0,14.8,9.2,14.8,17.3L325,28.8L325,28.8z M339.2,23.5
		c-0.1-1.5-1.1-6.3-6.7-6.3c-5.9,0-7.1,5.1-7.3,6.3H339.2z"/>
	<path class="st1" d="M360.1,12.4v3.4c1.3-1.7,4.8-4.3,9.4-4.3c3.4,0,6.7,1.6,8.3,4.6c1.9-2.5,5-4.6,9.7-4.6
		c6.1,0,10.3,3.2,10.3,10.4v20.5h-7.1V24c0-1.1-0.2-5.8-5-5.8c-1.1,0-3.7,0.4-5.3,3.1c-1.4,2.2-1.4,4.6-1.4,7v14.1h-7.1V23.9
		c0-2.3-1-5.7-4.9-5.7c-0.7,0-2.3,0.2-3.8,1.4c-2.9,2.5-3,6.7-3,10.1v12.6H353v-30L360.1,12.4L360.1,12.4z"/>
	<path class="st1" d="M412.6,0v14.9c3.1-3.1,7.2-3.4,8.6-3.4c7,0,13.2,6.1,13.2,15.7c0,10.7-7.3,16.1-13.6,16.1c-1.7,0-5-0.4-8.2-4
		v3.1h-7.1V0H412.6z M419.8,36.4c3.9,0,7.2-3.4,7.2-9.8c0-4-2.3-8.6-7.5-8.6c-4.3,0-7,3.8-7,8.6C412.4,33.1,415.4,36.4,419.8,36.4z"
		/>
	<path class="st1" d="M446.2,28.8c0.1,1.5,1.5,7.4,8.5,7.4c5.1,0,7.3-3.1,7.9-4.1l6.1,3.5c-2.4,3.2-6.8,7.6-14.6,7.6
		c-8.9,0-15.4-6.1-15.4-16.1c0-10.7,7.3-15.7,15.1-15.7c11.5,0,14.8,9.2,14.8,17.3L446.2,28.8L446.2,28.8z M460.4,23.5
		c-0.1-1.5-1.1-6.3-6.7-6.3c-5.9,0-7.1,5.1-7.3,6.3H460.4z"/>
	<path class="st1" d="M481,12.4v4.3c2.3-4.7,7.5-4.9,8.9-4.9h0.6v7.4c-1.5,0-7.3,0-9,5.5c-0.5,1.7-0.5,3.2-0.5,4.9v12.8h-7v-30
		C474,12.4,481,12.4,481,12.4z"/>
	<path class="st1" d="M512.2,36.5c7-5,12-10,14.2-12.4c1-1.1,4.4-4.8,4.4-9.9c0-3.3-1.7-6.1-5.3-6.1c-5.5,0-5.7,5.5-5.7,8.6v0.8
		l-7.5-0.7v-0.3c0-5.1,1.6-8.4,2.9-10.2c1.3-1.9,4.9-5.1,11-5.1c4.8,0,7.8,2,9.2,3.3c2.6,2.3,3.8,5.9,3.8,9.4c0,1.2-0.1,3.7-1.6,6.7
		c-2.4,5-7.1,8.6-11.2,12.1c-1.4,1.2-2.8,2.4-4.3,3.4h17.8v6.2h-27.5v-5.8H512.2z"/>
	<path class="st1" d="M559.3,42.9c-14.1,0-14.7-14.3-14.7-21c0-14.8,6.4-20.7,15.1-20.7c7.6,0,14.5,5.3,14.5,20.8
		C574.2,38.6,566.4,42.9,559.3,42.9z M559.4,36.2c5.8,0,7-5.8,7-14.2c0-5.8-0.2-14.2-6.8-14.2c-6.1,0-7.2,6.9-7.2,14.5
		C552.4,26.8,552.4,36.2,559.4,36.2z"/>
	<path class="st1" d="M579.6,36.5c7-5,12-10,14.2-12.4c1-1.1,4.4-4.8,4.4-9.9c0-3.3-1.7-6.1-5.3-6.1c-5.5,0-5.7,5.5-5.7,8.6v0.8
		l-7.5-0.7v-0.3c0-5.1,1.6-8.4,2.9-10.2c1.3-1.9,4.9-5.1,11-5.1c4.8,0,7.8,2,9.2,3.3c2.6,2.3,3.8,5.9,3.8,9.4c0,1.2-0.1,3.7-1.6,6.7
		c-2.4,5-7.1,8.6-11.2,12.1c-1.4,1.2-2.8,2.4-4.3,3.4h17.8v6.2h-27.5v-5.8H579.6z"/>
	<path class="st1" d="M624.3,42.4V17.5c0-2.8-1.3-3.2-2.9-3.2h-7V9.6h0.8c2.6,0,4.8-0.1,7-1.7s2.9-3.6,3.5-6.1h6v40.5h-7.4V42.4z"/>
</g>
<g>
	<path class="st1" d="M241.4,99.7c0,3.6-0.1,5.4-0.7,7.5c-1.4,4.3-6.2,9.7-16.6,9.7c-6.8,0-13.9-2.6-16.1-9.6
		c-0.7-2.2-0.7-4.1-0.7-8.6V73.5h8v26c0,2.5,0,3.4,0.4,4.7c0.8,2.5,3.1,5,8.7,5c1,0,6.8,0,8.6-4.8c0.5-1.4,0.5-2.5,0.5-5.3V73.5h7.9
		V99.7z"/>
	<path class="st1" d="M246.4,85.9h4.4V75.2h7.2v10.7h6.4V91H258v14.9c0,1.1,0.1,2.5,0.7,3.2c0.8,0.9,2.4,0.9,2.7,0.9
		c1,0,2.1-0.1,3-0.4v6.1c-1,0.1-2.7,0.5-5.2,0.5c-6.4,0-8.5-2.3-8.5-7.3V91h-4.4L246.4,85.9L246.4,85.9z"/>
	<path class="st1" d="M275.7,85.9v4.3c2.3-4.7,7.5-4.9,8.9-4.9h0.7v7.4c-1.5,0-7.3,0-9,5.5c-0.5,1.7-0.5,3.2-0.5,4.9v12.8h-7v-30
		C268.8,85.9,275.7,85.9,275.7,85.9z"/>
	<path class="st1" d="M294.7,102.3c0.1,1.5,1.5,7.4,8.5,7.4c5.1,0,7.3-3.1,7.9-4.1l6.1,3.5c-2.4,3.2-6.8,7.6-14.6,7.6
		c-8.9,0-15.4-6.1-15.4-16.1c0-10.7,7.3-15.7,15.1-15.7c11.5,0,14.8,9.2,14.8,17.3L294.7,102.3L294.7,102.3z M309,97
		c-0.1-1.5-1.1-6.3-6.7-6.3c-5.9,0-7.1,5.1-7.3,6.3H309z"/>
	<path class="st1" d="M348.6,107.4c-2.1,5.9-7.6,9.4-13.6,9.4c-8.8,0-14.8-7-14.8-15.9c0-7.8,5.3-15.9,15.2-15.9
		c7.8,0,11.8,5.7,12.9,8.5l-6.4,3c-0.8-2.6-2.9-5.1-6.8-5.1c-4.9,0-7.4,4.3-7.4,9.3c0,5.2,2.7,9.4,7.6,9.4c5.1,0,6.7-4.4,7.3-5.9
		L348.6,107.4z"/>
	<path class="st1" d="M372.8,115.9V98.3c0-4.4-2.2-6.5-5.6-6.5c-3.9,0-7.5,2.9-7.5,7.4v16.6h-7.2V73.5h7.2v15.4c1.8-1.9,5-4,9.5-4
		c6.5,0,10.7,3.7,10.7,10.6v20.3L372.8,115.9L372.8,115.9z"/>
	<path class="st1" d="M383.9,85.9h4.4V75.2h7.2v10.7h6.4V91h-6.4v14.9c0,1.1,0.1,2.5,0.7,3.2c0.8,0.9,2.4,0.9,2.7,0.9
		c1,0,2.1-0.1,3-0.4v6.1c-1,0.1-2.7,0.5-5.2,0.5c-6.4,0-8.5-2.3-8.5-7.3V91h-4.4v-5.1H383.9z"/>
</g>
<g>
	<path class="st1" d="M83.3,184.4V142h7.3v42.4H83.3z"/>
	<path class="st1" d="M104.1,170.8c0.1,1.5,1.5,7.4,8.5,7.4c5.1,0,7.3-3.1,7.9-4.1l6.1,3.5c-2.4,3.2-6.8,7.6-14.6,7.6
		c-8.9,0-15.4-6.1-15.4-16.1c0-10.7,7.3-15.7,15.1-15.7c11.5,0,14.8,9.2,14.8,17.3h-22.4V170.8z M118.4,165.5
		c-0.1-1.5-1.1-6.3-6.7-6.3c-5.9,0-7.1,5.1-7.3,6.3H118.4z"/>
	<path class="st1" d="M159.3,182.9c0,8.7-5.9,11.5-14.5,11.5c-11.2,0-12.9-5.3-13.7-9.4h7.9c0.7,3.1,4.3,3.7,6,3.7
		c4.3,0,7.1-1.5,7.1-6.7v-2.6c-3.4,3-7.6,3.2-9.1,3.2c-6.3,0-13-4-13-14.3c0-10.5,7.1-14.9,13.6-14.9c3.8,0,6.8,1.6,8.5,4.1v-3.2
		h7.2V182.9z M144.9,159.9c-3.7,0-7.4,2.5-7.4,8.3c0,4.7,2.6,7.9,7.4,7.9c4.7,0,7.4-3.1,7.4-7.7
		C152.4,163.7,149.9,159.9,144.9,159.9z"/>
	<path class="st1" d="M186.9,184.4v-3.1c-1.5,1.4-4.5,3.8-9.7,3.8c-5,0-7.4-2.2-8.6-4c-1.6-2.4-1.7-5.2-1.7-7.9v-18.8h7.3v17.3
		c0,2.9,0.7,6.7,5.9,6.7c3.5,0,5.3-2.3,5.8-3.4c1.1-2.1,1.1-4.9,1.1-7.2v-13.4h7.2v30L186.9,184.4L186.9,184.4z"/>
	<path class="st1" d="M207.8,170.8c0.1,1.5,1.5,7.4,8.5,7.4c5.1,0,7.3-3.1,7.9-4.1l6.1,3.5c-2.4,3.2-6.8,7.6-14.6,7.6
		c-8.9,0-15.4-6.1-15.4-16.1c0-10.7,7.3-15.7,15.1-15.7c11.5,0,14.8,9.2,14.8,17.3h-22.4V170.8z M222,165.5
		c-0.1-1.5-1.1-6.3-6.7-6.3c-5.9,0-7.1,5.1-7.3,6.3H222z"/>
	<path class="st1" d="M255.2,163.8c-1.6-3.2-4.7-4.6-8.2-4.6c-1.4,0-5,0.4-5,3.1c0,2,1.8,2.6,6.1,3.4l4.9,0.9c4.6,0.8,8,3.5,8,8.4
		c0,5.5-5.2,10.3-13.5,10.3c-8.3,0-12.7-3.7-14.4-5.4l5.4-4.4c1.4,1.9,4.1,3.8,8.6,3.8c4.3,0,5.9-2.2,5.9-3.5c0-1.7-1.7-2.4-4.4-2.9
		l-3.7-0.7c-2.3-0.4-10.4-1.9-10.4-9c0-5.9,5.7-9.8,12.9-9.8c2.3,0,8.4,0.4,12.9,5.6L255.2,163.8z"/>
	<path class="st1" d="M286.4,163.8c-1.6-3.2-4.7-4.6-8.2-4.6c-1.4,0-5,0.4-5,3.1c0,2,1.8,2.6,6.1,3.4l4.9,0.9c4.6,0.8,8,3.5,8,8.4
		c0,5.5-5.2,10.3-13.5,10.3c-8.3,0-12.7-3.7-14.4-5.4l5.4-4.4c1.4,1.9,4.1,3.8,8.6,3.8c4.3,0,5.9-2.2,5.9-3.5c0-1.7-1.7-2.4-4.4-2.9
		l-3.7-0.7c-2.3-0.4-10.4-1.9-10.4-9c0-5.9,5.7-9.8,12.9-9.8c2.3,0,8.4,0.4,12.9,5.6L286.4,163.8z"/>
	<path class="st1" d="M329.4,184.4h-7.1l-5.4-19.1l-5.7,19.1h-7.1l-8.7-30h7.5l5.2,20.5l5.6-20.5h6.4l5.5,20.5l5.3-20.5h7.5
		L329.4,184.4z"/>
	<path class="st1" d="M363.5,184.4v-17.6c0-4.4-2.2-6.5-5.6-6.5c-3.9,0-7.5,2.9-7.5,7.4v16.6h-7.2V142h7.2v15.4c1.8-1.9,5-4,9.5-4
		c6.5,0,10.7,3.7,10.7,10.6v20.3L363.5,184.4L363.5,184.4z"/>
	<path class="st1" d="M392,185.3c-10.9,0-15.6-8.7-15.6-16c0-7.2,4.7-15.8,15.4-15.8c6.5,0,15.4,4.4,15.5,15.8
		C407.3,177.3,402.2,185.3,392,185.3z M392,178.7c5.3,0,7.7-4.5,7.7-9.1c0-4.8-2.6-9.7-8.1-9.7c-4.2,0-7.7,3.1-7.7,9.1
		C383.9,174.3,386.9,178.7,392,178.7z"/>
	<path class="st1" d="M411.5,184.4v-8.2h7.9v8.2H411.5z"/>
	<path class="st1" d="M451.6,175.9c-2.1,5.9-7.6,9.4-13.6,9.4c-8.8,0-14.8-7-14.8-15.9c0-7.8,5.3-15.9,15.2-15.9
		c7.8,0,11.8,5.7,12.9,8.5l-6.4,3c-0.8-2.6-2.9-5.1-6.8-5.1c-4.9,0-7.4,4.3-7.4,9.3c0,5.2,2.7,9.4,7.6,9.4c5.1,0,6.7-4.4,7.3-5.9
		L451.6,175.9z"/>
	<path class="st1" d="M470.5,185.3c-10.9,0-15.6-8.7-15.6-16c0-7.2,4.7-15.8,15.4-15.8c6.5,0,15.4,4.4,15.5,15.8
		C485.7,177.3,480.7,185.3,470.5,185.3z M470.5,178.7c5.3,0,7.7-4.5,7.7-9.1c0-4.8-2.6-9.7-8.1-9.7c-4.2,0-7.7,3.1-7.7,9.1
		C462.4,174.3,465.3,178.7,470.5,178.7z"/>
	<path class="st1" d="M498.8,154.4v3.4c1.3-1.7,4.8-4.3,9.4-4.3c3.4,0,6.7,1.6,8.3,4.6c1.9-2.5,5-4.6,9.7-4.6
		c6.1,0,10.3,3.2,10.3,10.4v20.5h-7.1V166c0-1.1-0.2-5.8-5-5.8c-1.1,0-3.7,0.4-5.3,3.1c-1.4,2.2-1.4,4.6-1.4,7v14.1h-7.1V166
		c0-2.3-1-5.7-4.9-5.7c-0.7,0-2.3,0.2-3.8,1.4c-2.9,2.5-3,6.7-3,10.1v12.6h-7.2v-30L498.8,154.4L498.8,154.4z"/>
</g>
</svg>
