<?xml version="1.0" encoding="utf-8"?>
<!-- Generator: Adobe Illustrator 24.3.0, SVG Export Plug-In . SVG Version: 6.00 Build 0)  -->
<svg version="1.1" id="Layer_1" xmlns="http://www.w3.org/2000/svg" xmlns:xlink="http://www.w3.org/1999/xlink" x="0px" y="0px"
	 width="205.1px" height="232.4px" viewBox="0 0 205.1 232.4" style="enable-background:new 0 0 205.1 232.4;" xml:space="preserve"
	>
<style type="text/css">
	.st0{clip-path:url(#SVGID_2_);}
	.st1{clip-path:url(#SVGID_2_);fill:#E62A36;}
	.st2{clip-path:url(#SVGID_2_);fill:#FFFFFF;}
</style>
<g>
	<defs>
		<rect id="SVGID_1_" width="205.1" height="232.4"/>
	</defs>
	<clipPath id="SVGID_2_">
		<use xlink:href="#SVGID_1_"  style="overflow:visible;"/>
	</clipPath>
	<path class="st0" d="M24.6,61.9c8.8-9.5,10.8-13.8,16.6-24c6.1-10.8,10-17.2,18.9-25.7C66.6,6,76.3-0.2,86.4,0
		c12.5,0.2,17.7,6.6,22,16.4c9.5-8.3,25.3-18.3,37.7-15.4c11.2,2.6,16.1,10.8,18.8,17.2C170,30.6,170,34.5,177,48
		c4.7,9.1,13.6,15.6,24.3,22.6c7.9,5.2,1.3,11.2-1,13.5c-7.6,7.6-19,20.3-28.1,35.5c-8,13.4-9.1,21.2-16.2,36.5
		c-8.8,18.9-14.2,29.1-30.8,37.5c-4.1,2.1-11.2,5.4-14.5,9.1c-8.7,9.5-10.8,14.2-23,22.3c-18.8,12.6-48.4,7.3-64.2-4.1
		c-9.5-6.8-18.7-19.8-21.6-34.5c-3.4-17.4-2-27.5,2.4-42.9c3.7-12.9,9.8-20.5,16.9-33.1c-2.1-8.4-2.3-13.6-12.5-22.6
		C0.3,80.4,2.7,75.7,8,72.3C13.8,68.6,19.4,67.4,24.6,61.9 M28.7,62.8c8-7.6,10.6-12.9,15.8-23.3c5.6-11.1,13.4-21.7,23.1-27.3
		c7.7-4.5,13.5-6.9,21.9-6.3c10.6,0.8,14.8,8.1,16.8,17.2c9.2-8.4,10.8-10.3,18.8-14.1c9-4.2,24.3-5.5,31.2,3.2
		c4.6,5.8,8.9,21.8,15.6,35.5c7.1,14.7,13.7,17.4,24.8,25c5.5,3.8,2.3,6.1,0,8.4c-7.6,7.6-18.7,19.8-27.7,34.5
		c-8.9,14.4-11,24.3-18.1,39.5c-8.8,18.9-16.8,30.6-34,37.3c-4.3,1.7-6.4,4-9.2,7.7c-8,10.1-13.5,17.6-25.6,23.1
		c-17.7,8-40.2,6.6-55.6-5.4c-8.6-6.7-17.2-16.1-20.1-30.8c-3.4-17.4-2.7-25.8,1.7-41.2c3.7-13,10.3-22.7,17.4-35.3
		c-2.1-8.4-3.4-17.7-14.7-26.1c-5-3.7-4.4-8,1.5-10.1C17.7,72.5,23,68.3,28.7,62.8"/>
	<path class="st1" d="M28.7,62.8c8-7.6,10.6-12.9,15.8-23.3c5.6-11.1,13.4-21.7,23.1-27.3c7.7-4.5,13.5-6.9,21.9-6.3
		c10.6,0.8,14.8,8.1,16.8,17.2c9.2-8.4,10.8-10.3,18.8-14.1c9-4.2,24.3-5.5,31.2,3.2c4.6,5.8,8.9,21.8,15.6,35.5
		c7.1,14.7,13.7,17.4,24.8,25c5.5,3.8,2.3,6.1,0,8.4c-7.6,7.6-18.7,19.8-27.7,34.5c-8.9,14.4-11,24.3-18.1,39.5
		c-8.8,18.9-16.8,30.6-34,37.3c-4.3,1.7-6.4,4-9.2,7.7c-8,10.1-13.5,17.6-25.6,23.1c-17.7,8-40.2,6.6-55.6-5.4
		c-8.6-6.7-17.2-16.1-20.1-30.8c-3.4-17.4-2.7-25.8,1.7-41.2c3.7-13,10.3-22.7,17.4-35.3c-2.1-8.4-3.4-17.7-14.7-26.1
		c-5-3.7-4.4-8,1.5-10.1C17.7,72.5,23,68.3,28.7,62.8"/>
	<path class="st0" d="M154.3,74.7c0,0-8,3.8-13.4,1.9c-1.4-0.5-2.8-1.9-3.9-3.3c0,0-10,7.5-18.4,10c-8.4,2.5-20.2-2.9-28.6,4.2
		c-8.4,7.1-18.7,22.5-23.5,29.9c-9.7,14.7-16.8,42.9-16.8,42.9s-1.1-12.2,4.2-27.3c4-11.6,14.3-30.7,20.6-38.7
		c6.3-8,11.8-13,11.8-13s-8.8,1.3-13.9-2.1c-2.6-1.8-5-5.9-5-5.9S53.8,80.7,50,83.7c-3.8,2.9-16.4,12.2-16.4,12.2s-2.9-5.5-5-8.8
		c-2.1-3.4-5.9-8.4-5.9-8.4s8.6-8.2,18.5-16.4c11.6-9.6,13.6-10.6,21-14.1c3.6-1.7,12.4-3.2,23.1,3.6c5.6,3.5,13.2,4.8,22.5,1.5
		c9.2-3.4,17.8-8.8,30.5-1.9c6.5,3.6,11.9,12.3,15.1,18.1c2.5,4.4,8.8,5.5,10.9,6.3c2.1,0.8,15.6,2.9,15.6,2.9S165.8,91.3,159.1,99
		c-10.7,12.4-21.4,30.7-24.6,38.9c-5,13.2-11.1,35.7-13,42.7c-1.2,4.3-2.7,8.7-5,12.8c-1,1.8-4.4,4.1-4.4,4.1s-3.9,4.9-10.8,12.8
		c-2.9,3.3-10,9.9-14.9,12.8c-6.9,4.1-20.3,5.1-20.3,5.1c11.3-3.5,18.9-6.6,31.3-21.1c11.8-13.9,15.1-22.9,20.8-40.1
		c7.5-22.7,11.8-37,21.9-51.3c5.7-8.2,18.9-22.3,23.1-26.5c4.2-4.2,8.8-8.4,8.8-8.4S159.3,77.9,154.3,74.7"/>
	<path class="st2" d="M50.9,104.7c-9.3,8.5-14,14.4-19.8,25.6c-6.1,11.9-9.7,25.2-9.7,32.8c0,5.5,1.6,12.1,7.1,12.2
		c5.6,0.1,6.3-6.6,7.4-12.2c1.9-9.5,2.9-17.3,6.9-27.8c3.7-9.8,6.2-15.3,12.4-23.8c4.4-6,9.2-9.4,12.8-14.1c2.9-3.8-0.8-5-4.6-2.5
		C60.4,97.1,55.5,100.5,50.9,104.7"/>
	<path class="st2" d="M115.6,108c-8.7,11.9-8.8,15.7-13.9,26.1c-6.9,14.3-8,22.7-16,37.4c-3.3,6.1-9.7,14.3-6.7,21.4
		c1.8,4.3,8.1,5.3,11.8,2.5c7.1-5.5,7.8-10.2,10.5-17.7c5-13.9,5.1-24,10.9-38.5c4.9-12,7.1-19.3,15.1-29.4c3.3-4.1,7.1-5.7,9.2-9.9
		c2.7-5.4-1.3-7.1-7.6-3.8C124.4,98.8,120.2,101.7,115.6,108"/>
	<path class="st2" d="M50,58c0,0,10.5-9.2,21-8.8c10.5,0.4,12.6,5,17.7,6.7c5,1.7,11.3,2.9,20.6-1.3c9.2-4.2,21-8.2,30.7,0
		c10.9,9.3,14.2,20,14.2,20s-8.7,4-13.4,1.9c-4.6-2.1-7.6-9.7-7.6-9.7s-5.5,9.3-17.2,10.5c-12.2,1.3-16.4-9.7-16.4-9.7
		c-1,1-4.1,7.6-16.8,7.6c-14.7,0-14.7-12.6-14.7-12.6s-6.3,5-12.2,2.9C50,63.5,50,58,50,58"/>
	<path class="st2" d="M79.1,12.8c5.5-2.7,9.7-3.1,14.1-0.4c4.8,2.9,7,6.6,5.5,11.4c-1.3,3.8-6.5,6.9-10.7,4.4
		c-2.5-1.5-1.7-3.4-7.6-3.6c-2.9-0.1-8,3.6-9.2,2.3c-2-2-1.6-3.7-0.4-6.3C71.9,17.9,75.1,14.8,79.1,12.8"/>
	<path class="st2" d="M129.9,14.5c5.5-2.7,12.1-3.5,16.6-1.1c3.8,2.1,6.4,5.6,4.8,10.3c-1,3.2-3.4,5.3-7.6,5
		c-2.3-0.1-3.3-1.9-5.5-3.6c-1.9-1.5-4.2-1-6.3-0.4c-2.2,0.6-3.8,1.5-6.1,0.8c-2.6-0.7-3.9-3.3-2.7-5.9
		C124.5,17,126,16.5,129.9,14.5"/>
</g>
</svg>
