<?xml version="1.0" encoding="utf-8"?>
<!-- Generator: Adobe Illustrator 22.1.0, SVG Export Plug-In . SVG Version: 6.00 Build 0)  -->
<svg version="1.1" id="Laag_1" xmlns="http://www.w3.org/2000/svg" xmlns:xlink="http://www.w3.org/1999/xlink" x="0px" y="0px"
	 width="175px" height="49px" viewBox="0 0 175 49" style="enable-background:new 0 0 175 49;" xml:space="preserve">
<style type="text/css">
	.st0{fill:#FFFFFF;}
</style>
<g>
	<path class="st0" d="M10.7,1.5h4.1V12c0,3.9-2.8,6.6-7.2,6.6c-4.4,0-7.2-2.7-7.2-6.6V1.5h4.1v10.6c0,2,1.2,3.1,3,3.1s3-1.1,3-3.1
		V1.5z"/>
	<path class="st0" d="M20.5,0.4c1.3,0,2.2,0.8,2.2,2.1c0,1.3-0.9,2.1-2.2,2.1c-1.3,0-2.2-0.8-2.2-2.1C18.2,1.2,19.1,0.4,20.5,0.4z
		 M18.4,18.3V5.7h4v12.6H18.4z"/>
	<path class="st0" d="M30.8,2.3v3.4h2.4v3.1h-2.4v5.4c0,0.6,0.3,0.8,0.9,0.8H33v3.3h-2.7c-2.4,0-3.6-1.4-3.6-3.7V8.8h-1.6V5.7h1.6
		V2.3H30.8z"/>
	<path class="st0" d="M40.1,5.7v13.6c0,2.1-1.2,3.1-3.4,3.1h-2v-3h0.7c0.4,0,0.7-0.1,0.7-0.6V5.7H40.1z M38,0.4
		c1.3,0,2.2,0.8,2.2,2.1c0,1.3-0.9,2.1-2.2,2.1c-1.3,0-2.2-0.8-2.2-2.1C35.8,1.2,36.7,0.4,38,0.4z"/>
	<path class="st0" d="M46.9,13.3v0.3c0,1.2,0.7,2.2,2.2,2.2c1.1,0,1.8-0.6,2-1.2h3.6c-0.4,2.3-2.7,4-5.6,4c-3.6,0-6-2.1-6-5.7v-1.6
		c0-3.5,2.1-5.9,6-5.9s5.8,2.5,5.8,5.5v2.3H46.9z M46.9,10.9H51v-0.5c0-1.2-0.6-2.2-2-2.2c-1.5,0-2.1,0.9-2.1,2.4V10.9z"/>
	<path class="st0" d="M65.5,0.4c1.3,0,2.2,0.8,2.2,2.1c0,1.3-0.9,2.1-2.2,2.1c-1.3,0-2.2-0.8-2.2-2.1C63.3,1.2,64.2,0.4,65.5,0.4z
		 M63.5,18.3V5.7h4v12.6H63.5z"/>
	<path class="st0" d="M71,18.3V5.7h3.9v1.5c0.6-1.2,1.9-1.8,3.5-1.8c2.9,0,4.4,1.8,4.4,4.8v8.1h-4v-7.5c0-1.2-0.6-1.9-1.8-1.9
		c-1,0-1.9,0.5-1.9,1.9v7.4H71z"/>
	<path class="st0" d="M103.9,18.3h-3.8V17c-0.4,0.7-1.7,1.6-3.5,1.6c-3.6,0-5.3-2.7-5.3-5.5V11c0-2.9,1.8-5.5,5.3-5.5
		c1.5,0,2.7,0.7,3.3,1.3v-6h4V18.3z M99.9,11.1c0-1.6-1.1-2.4-2.3-2.4c-1.6,0-2.3,1-2.3,2.4v1.6c0,1.4,0.7,2.4,2.3,2.4
		c1.2,0,2.3-0.8,2.3-2.4V11.1z"/>
	<path class="st0" d="M110.6,13.3v0.3c0,1.2,0.7,2.2,2.2,2.2c1.1,0,1.8-0.6,2-1.2h3.6c-0.4,2.3-2.7,4-5.6,4c-3.6,0-6-2.1-6-5.7v-1.6
		c0-3.5,2.1-5.9,6-5.9s5.8,2.5,5.8,5.5v2.3H110.6z M110.6,10.9h4.1v-0.5c0-1.2-0.6-2.2-2-2.2c-1.5,0-2.1,0.9-2.1,2.4V10.9z"/>
</g>
<g>
	<path class="st0" d="M0.4,47.1V29.5h4v10.8l3.2-5.8h4.5l-3.6,6.2l3.7,6.4H7.8l-3.3-6v6H0.4z"/>
	<path class="st0" d="M17.5,42.1v0.3c0,1.2,0.7,2.2,2.2,2.2c1.1,0,1.8-0.6,2-1.2h3.6c-0.4,2.3-2.7,4-5.6,4c-3.6,0-6-2.1-6-5.7v-1.6
		c0-3.5,2.1-5.9,6-5.9s5.8,2.5,5.8,5.5v2.3H17.5z M17.5,39.7h4.1v-0.5c0-1.2-0.6-2.2-2-2.2c-1.5,0-2.1,0.9-2.1,2.4V39.7z"/>
	<path class="st0" d="M35.7,38.4h-0.5c-1.9,0-2.9,0.8-2.9,3v5.8h-4V34.5h3.8v2.2c0.4-1.9,1.6-2.3,3.4-2.3h0.2V38.4z"/>
	<path class="st0" d="M43.1,47.4c-3.3,0-5.5-1.5-5.5-4v-0.3h3.6v0.2c0,0.9,0.8,1.3,2,1.3c1.1,0,1.9-0.4,1.9-1.1
		c0-0.5-0.2-0.7-0.8-0.9l-3.5-0.8c-1.9-0.4-3-1.6-3-3.4c0-2.7,2.2-4.2,5.2-4.2c3,0,5.1,1.5,5.1,4.1v0.2h-3.5v-0.2
		c0-0.8-0.5-1.3-1.6-1.3c-1,0-1.5,0.3-1.5,1c0,0.5,0.2,0.7,0.8,0.8l3.7,0.9c1.7,0.4,2.8,1.5,2.8,3.2C48.8,45.5,46.5,47.4,43.1,47.4z
		"/>
	<path class="st0" d="M55.9,31.1v3.4h2.4v3.1h-2.4V43c0,0.6,0.3,0.8,0.9,0.8h1.3v3.3h-2.7c-2.4,0-3.6-1.4-3.6-3.7v-5.7h-1.6v-3.1
		h1.6v-3.4H55.9z"/>
	<path class="st0" d="M64.2,47.1l-4.3-12.6h4l2.3,8.4l2.3-8.4h4l-4.3,12.6H64.2z"/>
	<path class="st0" d="M81.7,47.1V46c-0.7,0.8-2.1,1.3-3.7,1.3c-2.9,0-4.6-1.7-4.6-4c0-2.6,1.9-3.9,4.9-3.9c1.5,0,2.7,0.4,3.3,0.9V39
		c0-0.9-0.6-1.6-1.8-1.6c-0.8,0-1.5,0.3-1.8,0.9h-3.7c0.5-2.5,2.7-4,5.6-4c3.6,0,5.7,1.9,5.7,5v7.8H81.7z M81.5,43.3
		c0-0.8-0.9-1.5-2.2-1.5c-1.4,0-2.2,0.5-2.2,1.5c0,1,0.9,1.5,2.2,1.5C80.5,44.8,81.5,44.2,81.5,43.3z"/>
	<path class="st0" d="M88.8,47.1V29.5h4v10.8l3.2-5.8h4.5l-3.6,6.2l3.7,6.4h-4.5l-3.3-6v6H88.8z"/>
	<path class="st0" d="M110.5,47.1V46c-0.7,0.8-2.1,1.3-3.7,1.3c-2.9,0-4.6-1.7-4.6-4c0-2.6,1.9-3.9,4.9-3.9c1.5,0,2.7,0.4,3.3,0.9
		V39c0-0.9-0.6-1.6-1.8-1.6c-0.8,0-1.5,0.3-1.8,0.9h-3.7c0.5-2.5,2.7-4,5.6-4c3.6,0,5.7,1.9,5.7,5v7.8H110.5z M110.3,43.3
		c0-0.8-0.9-1.5-2.2-1.5c-1.4,0-2.2,0.5-2.2,1.5c0,1,0.9,1.5,2.2,1.5C109.3,44.8,110.3,44.2,110.3,43.3z"/>
	<path class="st0" d="M117.6,47.1V34.5h3.9V36c0.6-1.2,1.9-1.8,3.5-1.8c2.9,0,4.4,1.8,4.4,4.8v8.1h-4v-7.5c0-1.2-0.6-1.9-1.8-1.9
		c-1,0-1.9,0.5-1.9,1.9v7.4H117.6z"/>
	<path class="st0" d="M137.3,31.1v3.4h2.4v3.1h-2.4V43c0,0.6,0.3,0.8,0.9,0.8h1.3v3.3h-2.7c-2.4,0-3.6-1.4-3.6-3.7v-5.7h-1.6v-3.1
		h1.6v-3.4H137.3z"/>
	<path class="st0" d="M144.6,29.2c1.3,0,2.2,0.8,2.2,2.1c0,1.3-0.9,2.1-2.2,2.1s-2.2-0.8-2.2-2.1C142.3,30,143.2,29.2,144.6,29.2z
		 M142.6,47.1V34.5h4v12.6H142.6z"/>
	<path class="st0" d="M153.4,42.1v0.3c0,1.2,0.7,2.2,2.2,2.2c1.1,0,1.8-0.6,2-1.2h3.6c-0.4,2.3-2.7,4-5.6,4c-3.6,0-6-2.1-6-5.7v-1.6
		c0-3.5,2.1-5.9,6-5.9s5.8,2.5,5.8,5.5v2.3H153.4z M153.4,39.7h4.1v-0.5c0-1.2-0.6-2.2-2-2.2c-1.5,0-2.1,0.9-2.1,2.4V39.7z"/>
	<path class="st0" d="M166.7,40.5c0-1.7,0.5-2.8,1.5-3.5l1-0.8c0.8-0.6,1.4-0.9,1.4-1.7c0-0.8-0.7-1.3-1.9-1.3c-1.3,0-2,0.5-2,1.7
		v0.5H163v-0.5c0-3.5,2.4-4.8,5.7-4.8c3.3,0,5.8,1.8,5.8,4.6c0,1.8-0.8,2.8-1.9,3.6l-1.2,0.8c-0.8,0.6-1.2,1.1-1.2,2.1v0.6h-3.6
		V40.5z M168.5,42.8c1.3,0,2.3,1,2.3,2.2s-0.9,2.2-2.3,2.2c-1.3,0-2.3-1-2.3-2.2S167.1,42.8,168.5,42.8z"/>
</g>
</svg>
