<?xml version="1.0" encoding="utf-8"?>
<!-- Generator: Adobe Illustrator 24.3.0, SVG Export Plug-In . SVG Version: 6.00 Build 0)  -->
<svg version="1.1" id="Laag_1" xmlns:v="https://vecta.io/nano"
	 xmlns="http://www.w3.org/2000/svg" xmlns:xlink="http://www.w3.org/1999/xlink" x="0px" y="0px" width="297.8px" height="93.1px"
	 viewBox="0 0 297.8 93.1" style="enable-background:new 0 0 297.8 93.1;" xml:space="preserve">
<style type="text/css">
	.st0{fill:#6A3F24;}
</style>
<g>
	<path class="st0" d="M3.8,36.1c-1.1,0-2-0.4-2.7-1.1S0,33.5,0,32.4c0-1.1,0.4-2,1.1-2.7s1.6-1,2.7-1c1.1,0,2,0.3,2.7,1s1,1.6,1,2.7
		c0,1.1-0.3,2-1,2.7S4.9,36.1,3.8,36.1z M14,36.1c-1.1,0-2-0.4-2.7-1.1s-1.1-1.6-1.1-2.7c0-1.1,0.4-2,1.1-2.7s1.6-1,2.7-1
		c1.1,0,2,0.3,2.7,1s1,1.6,1,2.7c0,1.1-0.3,2-1,2.7S15.1,36.1,14,36.1z M24.3,36.1c-1.1,0-2-0.4-2.7-1.1s-1.1-1.6-1.1-2.7
		c0-1.1,0.4-2,1.1-2.7s1.6-1,2.7-1c1.1,0,2,0.3,2.7,1s1.1,1.6,1.1,2.7c0,1.1-0.4,2-1.1,2.7S25.4,36.1,24.3,36.1z"/>
	<path class="st0" d="M54.4,29.1c0.3,0.3,0.5,0.9,0.5,1.7v4.9h-0.7c-3,0-5.1-1-6.4-2.9c-2.1,2.2-5.1,3.3-9,3.3c-2.5,0-4.5-0.7-6-2
		s-2.2-3.2-2.2-5.5c0-2.2,0.7-4,2.1-5.5s3.6-2.4,6.5-2.8c3.7-0.4,6.1-1,7.4-1.7v-0.1c0-0.8-0.4-1.5-1.2-2s-1.7-0.8-2.9-0.8
		c-0.6,0-1.2,0-1.7,0.1s-1,0.2-1.5,0.4s-0.8,0.3-1,0.4s-0.5,0.3-1,0.6s-0.7,0.4-0.7,0.4c-0.6,0.3-1.1,0.4-1.7,0.3s-1-0.4-1.3-0.8
		l-2.1-2.9c0.3-0.4,0.8-0.9,1.3-1.3s1.3-0.9,2.2-1.4s1.9-0.9,3.1-1.3s2.5-0.5,3.8-0.5c3.7,0,6.6,0.9,8.5,2.6s2.9,4.3,2.9,7.7v7.2
		C53.5,28,53.8,28.7,54.4,29.1L54.4,29.1z M39.8,30.3c0.7,0,1.4,0,2-0.1s1.2-0.3,1.8-0.5s1.2-0.6,1.6-1s0.8-1,1.1-1.7
		s0.4-1.5,0.4-2.4v-0.7c-1.3,1.1-3.3,1.6-5.9,1.7c-1.2,0.1-2.1,0.4-2.7,0.8s-0.9,1-0.9,1.8c0,0.7,0.2,1.2,0.7,1.6S39,30.3,39.8,30.3
		z"/>
	<path class="st0" d="M63,7.5c-1.1,0-2-0.3-2.7-1s-1-1.6-1-2.7c0-1.1,0.3-2,1-2.7S61.9,0,63,0c1.1,0,2,0.4,2.7,1.1s1.1,1.6,1.1,2.7
		c0,1.1-0.4,2-1.1,2.7S64,7.5,63,7.5z M59.5,35.6V10.2h6.9v25.4H59.5z"/>
	<path class="st0" d="M89,10.2h6.9v25.4h-5.2c-0.3,0-0.5-0.1-0.7-0.3s-0.3-0.4-0.3-0.7v-1.9C87.9,35,85.7,36,82.9,36
		c-3.3,0-5.8-0.9-7.5-2.6s-2.5-4.4-2.5-7.9V10.2h6.9v14.2c0,1.9,0.3,3.4,0.9,4.3s1.8,1.4,3.4,1.4c1.6,0,2.8-0.5,3.7-1.5
		s1.3-2.4,1.3-4.2V10.2z"/>
	<path class="st0" d="M118,16.2h-7.4v10.3c0,0.8,0.2,1.5,0.8,2.1s1.2,0.8,2,0.8h2.9c0.5,0,1,0.2,1.3,0.5s0.5,0.8,0.5,1.3v4.6h-5.2
		c-2.8,0-5-0.8-6.6-2.4s-2.4-3.9-2.4-6.8V16.2h-2.2c-0.5,0-1-0.2-1.3-0.5s-0.5-0.8-0.5-1.3v-4.2h4V1.7h6.9v8.5h7.4V16.2z"/>
	<path class="st0" d="M145.2,29.1c0.3,0.3,0.5,0.9,0.5,1.7v4.9H145c-3,0-5.1-1-6.4-2.9c-2.1,2.2-5.1,3.3-9,3.3c-2.5,0-4.5-0.7-6-2
		s-2.2-3.2-2.2-5.5c0-2.2,0.7-4,2.1-5.5s3.6-2.4,6.5-2.8c3.7-0.4,6.1-1,7.4-1.7v-0.1c0-0.8-0.4-1.5-1.2-2s-1.7-0.8-2.9-0.8
		c-0.6,0-1.2,0-1.7,0.1s-1,0.2-1.5,0.4s-0.8,0.3-1,0.4s-0.5,0.3-1,0.6s-0.7,0.4-0.7,0.4c-0.6,0.3-1.1,0.4-1.7,0.3s-1-0.4-1.3-0.8
		l-2.1-2.9c0.3-0.4,0.8-0.9,1.3-1.3s1.3-0.9,2.2-1.4s1.9-0.9,3.1-1.3s2.5-0.5,3.8-0.5c3.7,0,6.6,0.9,8.5,2.6s2.9,4.3,2.9,7.7v7.2
		C144.2,28,144.5,28.7,145.2,29.1L145.2,29.1z M130.5,30.3c0.7,0,1.4,0,2-0.1s1.2-0.3,1.8-0.5s1.2-0.6,1.6-1s0.8-1,1.1-1.7
		s0.4-1.5,0.4-2.4v-0.7c-1.3,1.1-3.3,1.6-5.9,1.7c-1.2,0.1-2.1,0.4-2.7,0.8s-0.9,1-0.9,1.8c0,0.7,0.2,1.2,0.7,1.6
		S129.7,30.3,130.5,30.3z"/>
	<path class="st0" d="M164,10.2h0.4v3.9c0,0.5-0.2,1-0.5,1.3s-0.7,0.5-1.2,0.5h-0.3c-2,0-3.4,0.6-4.4,1.8s-1.5,2.8-1.5,5v12.9h-6.9
		V10.2h5.2c0.3,0,0.5,0.1,0.7,0.3s0.3,0.4,0.3,0.7v2.5C157.8,11.3,160.5,10.2,164,10.2z"/>
	<path class="st0" d="M178.8,9.6c3.8,0,7,1.3,9.3,3.8s3.6,5.8,3.6,9.9v1.1c0,0.2-0.1,0.5-0.3,0.7s-0.4,0.3-0.7,0.3H173
		c0.4,1.4,1.1,2.6,2.1,3.4s2.2,1.3,3.8,1.3c1.1,0,2.1-0.3,2.9-0.8s1.4-1.2,1.8-1.9c0.3-0.5,0.8-0.6,1.3-0.4l5.7,2
		c-0.9,2.2-2.3,4-4.3,5.2s-4.5,1.9-7.5,1.9c-3.9,0-7-1.2-9.4-3.6s-3.6-5.6-3.6-9.5c0-4,1.2-7.2,3.6-9.7S175,9.6,178.8,9.6z
		 M178.8,15.6c-1.4,0-2.6,0.4-3.5,1.1s-1.7,1.8-2.1,3.1h11.2c-0.5-1.3-1.2-2.3-2.1-3.1S180.2,15.6,178.8,15.6z"/>
	<path class="st0" d="M220.7,36.1c-3.9,0-7-1.2-9.3-3.6s-3.4-5.6-3.4-9.5c0-4.1,1.1-7.3,3.4-9.7s5.4-3.6,9.3-3.6
		c3.1,0,5.6,0.8,7.8,2.3s3.5,3.8,4.2,6.7l-5.3,1c-1,0.2-1.7-0.1-2.1-0.9c-0.8-2.1-2.4-3.1-4.6-3.1c-1.9,0-3.3,0.7-4.4,2
		s-1.5,3.1-1.5,5.3c0,2.1,0.5,3.8,1.5,5.1s2.5,2,4.3,2c1.3,0,2.3-0.3,3-0.8s1.3-1.4,1.7-2.5c0.2-0.4,0.5-0.7,0.9-0.9
		s0.8-0.2,1.3-0.1l5.2,1c-0.6,3.1-2,5.4-4.2,7S223.8,36.1,220.7,36.1z"/>
	<path class="st0" d="M250.1,9.7c3.3,0,5.8,0.9,7.5,2.8s2.6,4.6,2.6,8.1v15h-6.9V21.3c0-1.9-0.3-3.4-0.9-4.3s-1.8-1.4-3.4-1.4
		c-1.6,0-2.8,0.5-3.8,1.5s-1.4,2.4-1.4,4.2v14.2h-6.9V1.7h6.9v10.5C245.5,10.5,247.6,9.7,250.1,9.7z"/>
	<path class="st0" d="M269.9,7.5c-1.1,0-2-0.3-2.7-1s-1-1.6-1-2.7c0-1.1,0.3-2,1-2.7s1.6-1.1,2.7-1.1c1.1,0,2,0.4,2.7,1.1
		s1.1,1.6,1.1,2.7c0,1.1-0.4,2-1.1,2.7S271,7.5,269.9,7.5z M266.5,35.6V10.2h6.9v25.4H266.5z"/>
	<path class="st0" d="M15.2,57.7c3.3,0,5.8,0.9,7.5,2.8s2.6,4.6,2.6,8.1v15h-6.9V69.3c0-1.9-0.3-3.4-0.9-4.3s-1.8-1.4-3.4-1.4
		c-1.6,0-2.8,0.5-3.8,1.5S9,67.5,9,69.3v14.2H2.1V49.7H9v10.5C10.7,58.5,12.8,57.7,15.2,57.7z"/>
	<path class="st0" d="M53.4,77.1c0.3,0.3,0.5,0.9,0.5,1.7v4.9h-0.7c-3,0-5.1-1-6.4-2.9c-2.1,2.2-5.1,3.3-9,3.3c-2.5,0-4.5-0.7-6-2
		s-2.2-3.2-2.2-5.5c0-2.2,0.7-4,2.1-5.5s3.6-2.4,6.5-2.8c3.7-0.4,6.1-1,7.4-1.7v-0.1c0-0.8-0.4-1.5-1.2-2s-1.7-0.8-2.9-0.8
		c-0.6,0-1.2,0-1.7,0.1s-1,0.2-1.5,0.4s-0.8,0.3-1,0.4s-0.5,0.3-1,0.6s-0.7,0.4-0.7,0.4c-0.6,0.3-1.1,0.4-1.7,0.3s-1-0.4-1.3-0.8
		l-2.1-2.9c0.3-0.4,0.8-0.9,1.3-1.3s1.3-0.9,2.2-1.4s1.9-0.9,3.1-1.3s2.5-0.5,3.8-0.5c3.7,0,6.6,0.9,8.5,2.6s2.9,4.3,2.9,7.7v7.2
		C52.5,76,52.8,76.7,53.4,77.1L53.4,77.1z M38.8,78.3c0.7,0,1.4,0,2-0.1s1.2-0.3,1.8-0.5s1.2-0.6,1.6-1s0.8-1,1.1-1.7
		s0.4-1.5,0.4-2.4v-0.7c-1.3,1.1-3.3,1.6-5.9,1.7c-1.2,0.1-2.1,0.4-2.7,0.8s-0.9,1-0.9,1.8c0,0.7,0.2,1.2,0.7,1.6S38,78.3,38.8,78.3
		z"/>
	<path class="st0" d="M85.8,57.7c3.8,0,6.7,1.2,8.7,3.5s3.1,5.6,3.1,9.7c0,4-1.1,7.2-3.2,9.6S89.5,84,86,84c-3.1,0-5.7-1.2-7.9-3.6
		v2.2c0,0.2-0.1,0.5-0.3,0.7s-0.4,0.3-0.7,0.3h-5.2V49.7h6.9v10.5C80.8,58.5,83,57.7,85.8,57.7z M84.8,78.1c1.8,0,3.2-0.7,4.3-2
		s1.6-3.1,1.6-5.2s-0.5-3.9-1.5-5.2s-2.4-2-4.3-2c-1.8,0-3.3,0.6-4.4,1.9s-1.6,3-1.6,5.2v0.3c0,2.2,0.5,3.9,1.6,5.1
		S83,78.1,84.8,78.1z"/>
	<path class="st0" d="M105.7,55.5c-1.1,0-2-0.3-2.7-1s-1-1.6-1-2.7c0-1.1,0.3-2,1-2.7s1.6-1.1,2.7-1.1c1.1,0,2,0.4,2.7,1.1
		s1.1,1.6,1.1,2.7c0,1.1-0.4,2-1.1,2.7S106.8,55.5,105.7,55.5z M102.3,83.6V58.2h6.9v25.4H102.3z"/>
	<path class="st0" d="M124.1,84.1c-2.2,0-4.2-0.3-6-0.9s-3.4-1.4-4.5-2.4l2.7-4.1c0.2-0.3,0.5-0.5,0.8-0.5s0.7,0,1,0.2
		c2,1.2,4,1.7,5.9,1.7c1.2,0,2.1-0.2,2.7-0.6s0.9-0.9,0.9-1.6c0-0.5-0.2-1-0.6-1.3s-0.9-0.6-1.7-0.8c-0.6-0.2-1.5-0.4-2.6-0.6
		s-2.1-0.5-2.8-0.7c-1.8-0.5-3.2-1.3-4.2-2.6s-1.5-2.7-1.5-4.5c0-2.4,0.9-4.3,2.7-5.8s4.1-2.2,7.1-2.2c1.9,0,3.7,0.3,5.4,0.9
		s3,1.4,4.1,2.2l-2.5,4.1c-0.4,0.7-1,0.8-1.7,0.4c-2-1.2-4-1.8-6-1.8c-0.8,0-1.4,0.2-1.8,0.5s-0.7,0.7-0.7,1.2c0,0.4,0.1,0.7,0.4,1
		s0.7,0.5,1.2,0.6c1.1,0.3,2.6,0.8,4.5,1.2c2.5,0.6,4.4,1.6,5.6,3s1.9,3.1,1.9,5c0,2.5-0.9,4.4-2.7,5.9S127.3,84.1,124.1,84.1z"/>
	<path class="st0" d="M158.8,80.5c-2.3,2.4-5.4,3.6-9.3,3.6s-7-1.2-9.3-3.6s-3.5-5.6-3.5-9.7s1.2-7.3,3.5-9.7s5.4-3.6,9.3-3.6
		s7,1.2,9.3,3.6s3.5,5.6,3.5,9.7C162.2,74.9,161.1,78.1,158.8,80.5z M145.1,76.1c1,1.3,2.5,2,4.3,2s3.3-0.7,4.3-2s1.5-3.1,1.5-5.2
		s-0.5-3.9-1.5-5.2s-2.5-2-4.3-2s-3.3,0.7-4.3,2s-1.5,3.1-1.5,5.2S144.1,74.8,145.1,76.1z"/>
	<path class="st0" d="M181.4,78.9c2.8,0,5,0.6,6.5,1.7s2.2,2.8,2.2,5c0,2.2-1,4.1-3.1,5.4s-5.3,2.1-9.6,2.1c-3.9,0-6.9-0.7-9.1-2.2
		s-3.3-3.2-3.3-5.4c0-1.4,0.3-2.5,1-3.5s1.4-1.6,2.1-1.8c-0.4-0.1-0.8-0.4-1.2-1s-0.7-1.3-0.7-2.2c0-1.7,0.7-2.9,2.2-3.8
		c-1.7-1.7-2.6-3.8-2.6-6.3c0-3,1-5.3,2.9-6.9s4.6-2.4,7.9-2.4c2.6,0,4.8,0.5,6.5,1.5c0.6-0.6,1.5-0.9,2.6-0.9h3.5v3.9
		c0,0.5-0.1,0.8-0.4,1.1s-0.6,0.4-1.1,0.4h-0.7c0.3,1,0.5,2.1,0.5,3.3c0,3-1,5.3-3.1,6.9s-4.8,2.4-8.4,2.4h-1.7
		c-0.6,0-1.2,0.1-1.5,0.3s-0.6,0.6-0.6,1c0,0.9,0.9,1.4,2.7,1.4H181.4z M177.4,87.4c2.3,0,3.9-0.2,5-0.6s1.6-0.9,1.6-1.5
		c0-1-0.9-1.5-2.8-1.5h-7c-2,0-2.9,0.5-2.9,1.5c0,0.6,0.6,1.1,1.7,1.5S175.6,87.4,177.4,87.4z M179.8,64.3c-0.8-0.6-1.9-0.9-3.3-0.9
		s-2.4,0.3-3.2,0.9s-1.2,1.4-1.2,2.5c0,1.1,0.4,2,1.2,2.6s1.9,0.9,3.2,0.9c1.4,0,2.5-0.3,3.3-0.9s1.2-1.5,1.2-2.6
		C181,65.8,180.6,64.9,179.8,64.3z"/>
	<path class="st0" d="M206.7,57.7c3.3,0,5.8,0.9,7.5,2.8s2.6,4.6,2.6,8.1v15h-6.9V69.3c0-1.9-0.3-3.4-0.9-4.3s-1.8-1.4-3.4-1.4
		c-1.6,0-2.8,0.5-3.7,1.5s-1.3,2.4-1.3,4.2v14.2h-6.9V58.2h5.2c0.3,0,0.5,0.1,0.7,0.3s0.3,0.4,0.3,0.7V61
		C201.7,58.8,204,57.7,206.7,57.7z"/>
	<path class="st0" d="M243.2,80.5c-2.3,2.4-5.4,3.6-9.3,3.6s-7-1.2-9.3-3.6s-3.5-5.6-3.5-9.7s1.2-7.3,3.5-9.7s5.4-3.6,9.3-3.6
		s7,1.2,9.3,3.6s3.5,5.6,3.5,9.7C246.7,74.9,245.6,78.1,243.2,80.5z M229.6,76.1c1,1.3,2.5,2,4.3,2s3.3-0.7,4.3-2s1.5-3.1,1.5-5.2
		s-0.5-3.9-1.5-5.2s-2.5-2-4.3-2s-3.3,0.7-4.3,2s-1.5,3.1-1.5,5.2S228.6,74.8,229.6,76.1z"/>
</g>
</svg>
