<?xml version="1.0" encoding="utf-8"?>
<!-- Generator: Adobe Illustrator 22.1.0, SVG Export Plug-In . SVG Version: 6.00 Build 0)  -->
<svg version="1.1" id="Laag_1" xmlns="http://www.w3.org/2000/svg" xmlns:xlink="http://www.w3.org/1999/xlink" x="0px" y="0px"
	 width="64.5px" height="6.1px" viewBox="0 0 64.5 6.1" style="enable-background:new 0 0 64.5 6.1;" xml:space="preserve">
<style type="text/css">
	.st0{fill:#EAEDE1;}
</style>
<g>
	<path class="st0" d="M5.4,1v5.1H4.5V2.6H4.4L3.2,5.6h-1L1,2.6H0.9v3.5H0V1h1.3l1.4,3.4h0.1L4.1,1H5.4z"/>
	<path class="st0" d="M7.4,5.2h2.5v0.9H6.4V1h3.3v0.9H7.4v1.2h2.1v0.8H7.4V5.2z"/>
	<path class="st0" d="M11.6,5.2h2.5v0.9h-3.4V1H14v0.9h-2.4v1.2h2.1v0.8h-2.1V5.2z"/>
	<path class="st0" d="M18.6,6.1h-1l-1-1.9h-0.7v1.9h-0.9V1h1.9c0.5,0,0.9,0.1,1.2,0.4c0.3,0.3,0.5,0.7,0.5,1.2
		c0,0.3-0.1,0.6-0.3,0.9S17.7,3.9,17.4,4L18.6,6.1z M15.8,1.9v1.4h0.8c0.2,0,0.4-0.1,0.6-0.2c0.1-0.1,0.2-0.3,0.2-0.5
		c0-0.2-0.1-0.4-0.2-0.5c-0.1-0.1-0.3-0.2-0.6-0.2H15.8z"/>
	<path class="st0" d="M22.5,1v5.1h-1V1H22.5z"/>
	<path class="st0" d="M26.7,1h0.9v5.1h-0.9l-2.2-3.3h-0.1v3.3h-0.9V1h1l2.1,3.3h0.1V1z"/>
	<path class="st0" d="M32.1,1.9h-2.4v1.3h2.1v0.9h-2.1v2h-1V1h3.4V1.9z"/>
	<path class="st0" d="M35.3,6.1c-0.7,0-1.4-0.2-1.8-0.7s-0.7-1.1-0.7-1.9c0-0.7,0.2-1.4,0.7-1.9c0.5-0.5,1.1-0.7,1.8-0.7
		c0.7,0,1.3,0.2,1.8,0.7s0.7,1.1,0.7,1.9c0,0.7-0.2,1.4-0.7,1.9S36,6.1,35.3,6.1z M35.3,5.2c0.4,0,0.8-0.2,1.1-0.5s0.4-0.7,0.4-1.2
		s-0.1-0.9-0.4-1.2c-0.3-0.3-0.7-0.5-1.1-0.5S34.5,2,34.2,2.3c-0.3,0.3-0.4,0.7-0.4,1.2s0.1,0.9,0.4,1.2S34.8,5.2,35.3,5.2z"/>
	<path class="st0" d="M42.5,6.1h-1l-1-1.9h-0.7v1.9h-0.9V1h1.9c0.5,0,0.9,0.1,1.2,0.4c0.3,0.3,0.5,0.7,0.5,1.2
		c0,0.3-0.1,0.6-0.3,0.9S41.7,3.9,41.4,4L42.5,6.1z M39.7,1.9v1.4h0.8c0.2,0,0.4-0.1,0.6-0.2c0.1-0.1,0.2-0.3,0.2-0.5
		c0-0.2-0.1-0.4-0.2-0.5c-0.1-0.1-0.3-0.2-0.6-0.2H39.7z"/>
	<path class="st0" d="M48.6,1v5.1h-0.9V2.6h-0.1l-1.2,3.1h-1l-1.2-3.1h-0.1v3.5h-0.9V1h1.3l1.4,3.4H46L47.4,1H48.6z"/>
	<path class="st0" d="M53,6.1l-0.4-1.1h-1.9l-0.4,1.1h-1L51.1,1h1.3l1.7,5.1H53z M51,4.1h1.4l-0.7-2h-0.1L51,4.1z"/>
	<path class="st0" d="M58.2,1v0.9h-1.4v4.2h-1V1.9h-1.4V1H58.2z"/>
	<path class="st0" d="M60,1v5.1h-1V1H60z"/>
	<path class="st0" d="M62,5.2h2.5v0.9h-3.4V1h3.4v0.9H62v1.2h2.1v0.8H62V5.2z"/>
</g>
</svg>
