<?xml version="1.0" encoding="utf-8"?>
<!-- Generator: Adobe Illustrator 24.3.0, SVG Export Plug-In . SVG Version: 6.00 Build 0)  -->
<svg version="1.1" id="Laag_1" xmlns="http://www.w3.org/2000/svg" xmlns:xlink="http://www.w3.org/1999/xlink" x="0px" y="0px"
	 width="75.6px" height="24.6px" viewBox="0 0 75.6 24.6" style="enable-background:new 0 0 75.6 24.6;" xml:space="preserve">
<style type="text/css">
	.st0{fill:#FFFFFF;}
</style>
<g>
	<path class="st0" d="M13,0.5c3.6,0,5.4,2.3,5.4,4.8c0,1.7-0.7,2.9-1.5,3.7c-0.8,0.8-2,1.4-4.5,1.4h-5V9.9c1.4,0,1.6-0.3,1.6-1.3
		V2.2c0-0.9-0.2-1.3-1.6-1.3V0.5H13z M10.5,8.3c0,1.1,0.5,1.5,2,1.5c1.4,0,2.5-0.3,3.4-1.1C16.7,7.9,17,6.7,17,5.7
		c0-1.4-0.4-2.6-1.3-3.4c-0.8-0.8-2-1.3-3.6-1.3h-1.6V8.3z"/>
	<path class="st0" d="M20.7,6.2c-0.1,2.2,1.3,3.2,2.6,3.2c0.7,0,1.2-0.2,1.8-0.8l0.2,0.2c-0.7,1-1.6,1.6-2.6,1.6c-1.8,0-3-1.4-3-3.3
		c0-2,1.2-3.4,3-3.4c1.5,0,2.6,1.1,2.7,2.5H20.7z M24,5.8c-0.1-1.1-0.7-1.7-1.5-1.7c-0.8,0-1.5,0.7-1.7,1.7H24z"/>
	<path class="st0" d="M26.8,8.1c0.1,1.1,0.7,1.9,1.7,1.9c0.7,0,1.3-0.5,1.3-1.1c0-0.2-0.1-0.5-0.2-0.6c-0.7-0.7-2-0.9-2.8-1.7
		c-0.3-0.3-0.4-0.6-0.4-1.1c0-1,0.9-1.7,2.1-1.7c0.7,0,1.3,0.2,1.9,0.6v1.5h-0.4c-0.2-1.2-0.7-1.7-1.5-1.7c-0.7,0-1.1,0.4-1.1,1
		c0,0.3,0.1,0.5,0.3,0.7c0.6,0.6,1.9,0.8,2.7,1.6c0.3,0.3,0.5,0.8,0.5,1.2c0,1.1-1,1.9-2.3,1.9c-0.7,0-1.4-0.2-2-0.5V8.1H26.8z"/>
	<path class="st0" d="M37.5,8.7c-0.6,1.1-1.6,1.7-2.6,1.7c-1.7,0-3.1-1.4-3.1-3.3c0-2,1.5-3.5,3.5-3.5c1.3,0,2.2,0.5,2.2,1.3
		c0,0.4-0.2,0.6-0.5,0.6c-0.9,0-0.4-1.5-1.9-1.5c-1.3,0-2.1,1-2.1,2.5c0,1.7,1,2.9,2.5,2.9c0.7,0,1.3-0.3,1.9-0.9L37.5,8.7z"/>
	<path class="st0" d="M41.6,3.7c1.8,0,3.2,1.5,3.2,3.3c0,1.9-1.4,3.4-3.2,3.4c-1.9,0-3.3-1.4-3.3-3.4S39.8,3.7,41.6,3.7z M40.6,9.5
		c0.2,0.2,0.6,0.5,1.3,0.5c1.1,0,1.8-0.9,1.8-2.2c0-0.7-0.2-2.4-1.1-3.3c-0.3-0.3-0.7-0.5-1.2-0.5c-0.9,0-2,0.6-2,2.3
		C39.5,7.3,39.9,8.8,40.6,9.5z"/>
	<path class="st0" d="M47.5,0.3v4.6C48.4,4,49,3.7,49.9,3.7c1.9,0,2.8,1.9,2.8,3.3c0,1.6-1.2,3.5-3.5,3.5c-1.2,0-1.9-0.3-2.8-0.8v-8
		l-1-0.5V0.9L47.5,0.3z M47.5,8.3c0,1.2,1.1,1.8,1.9,1.8c1.3,0,2.1-1,2.1-2.6c0-1.7-0.9-2.8-2.2-2.8c-0.6,0-1.2,0.3-1.8,0.8V8.3z"/>
	<path class="st0" d="M55.6,3.7v1.7h0c0.5-1.2,1.1-1.6,1.7-1.6c0.5,0,1.1,0.4,1.1,0.8c0,0.3-0.2,0.8-0.5,0.8c-0.4,0-0.6-0.7-1.1-0.7
		c-0.3,0-0.6,0.2-1.2,1.3v2.8c0,0.9,0.1,1.2,1.5,1.2v0.4h-3.7V9.9c0.8,0,1.1-0.2,1.1-1V5l-1.1-0.5V4.3L55.6,3.7z"/>
	<path class="st0" d="M60.9,3.7v5c0,0.9,0.2,1.2,1,1.2v0.4h-3.3V9.9c1,0,1.1-0.2,1.1-1.3V5l-1.1-0.5V4.3L60.9,3.7z M60.3,0.3
		C60.7,0.3,61,0.6,61,1s-0.3,0.7-0.7,0.7S59.5,1.4,59.5,1S59.9,0.3,60.3,0.3z"/>
	<path class="st0" d="M64.4,3.7v1.7h0c0.5-1.2,1.1-1.6,1.7-1.6c0.5,0,1.1,0.4,1.1,0.8c0,0.3-0.2,0.8-0.5,0.8c-0.4,0-0.6-0.7-1.1-0.7
		c-0.3,0-0.6,0.2-1.2,1.3v2.8c0,0.9,0.1,1.2,1.5,1.2v0.4h-3.7V9.9c0.8,0,1.1-0.2,1.1-1V5l-1.1-0.5V4.3L64.4,3.7z"/>
	<path class="st0" d="M34.4,23.7c-0.5,0.5-0.9,0.8-1.2,0.8c-0.6,0-0.9-0.4-0.9-1.2c-0.7,0.7-1.4,1.2-2.1,1.2c-1,0-1.7-0.6-1.7-1.5
		s0.5-1.4,2.4-2l1.3-0.4v-1.1c0-0.7-0.5-1.2-1.4-1.2c-0.6,0-1.2,0.4-1.2,0.8c0,0.3,0.4,0.7,0.4,0.9c0,0.2-0.9,0.5-1,0.5
		c-0.1,0-0.4-0.5-0.4-0.9c0-1,1.1-1.7,2.6-1.7c1.4,0,2,0.6,2,1.7v3.3c0,0.5,0.1,0.7,0.4,0.7c0.2,0,0.3,0,0.5-0.2L34.4,23.7z
		 M30.5,21.6c-0.6,0.3-0.9,0.6-0.9,1c0,0.6,0.4,1,1.1,1c0.5,0,1.1-0.3,1.5-0.8v-2L30.5,21.6z"/>
	<path class="st0" d="M37,17.7v1.7h0c0.5-1.2,1.1-1.6,1.7-1.6c0.5,0,1.1,0.4,1.1,0.8c0,0.3-0.2,0.8-0.5,0.8c-0.4,0-0.6-0.7-1.1-0.7
		c-0.3,0-0.6,0.2-1.2,1.3v2.8c0,0.9,0.1,1.2,1.5,1.2v0.4h-3.7V24c0.8,0,1.1-0.2,1.1-1V19l-1.1-0.5v-0.2L37,17.7z"/>
	<path class="st0" d="M46.3,23.7c-0.5,0.5-0.8,0.8-1.2,0.8c-0.6,0-0.9-0.4-0.9-1.2c-0.7,0.7-1.4,1.2-2.1,1.2c-1,0-1.7-0.6-1.7-1.5
		s0.5-1.4,2.4-2l1.3-0.4v-1.1c0-0.7-0.5-1.2-1.4-1.2c-0.6,0-1.2,0.4-1.2,0.8c0,0.3,0.4,0.7,0.4,0.9c0,0.2-0.9,0.5-1,0.5
		c-0.1,0-0.4-0.5-0.4-0.9c0-1,1.1-1.7,2.6-1.7c1.4,0,2,0.6,2,1.7v3.3c0,0.5,0.1,0.7,0.4,0.7c0.2,0,0.3,0,0.5-0.2L46.3,23.7z
		 M42.4,21.6c-0.6,0.3-0.9,0.6-0.9,1c0,0.6,0.4,1,1.1,1c0.5,0,1.1-0.3,1.5-0.8v-2L42.4,21.6z"/>
	<path class="st0" d="M48.4,22.9c0.4,0,0.8,0.4,0.8,0.8s-0.4,0.8-0.8,0.8c-0.4,0-0.8-0.4-0.8-0.8S47.9,22.9,48.4,22.9z M48.5,21.6
		h-0.4l-0.5-6.3c0-0.3,0-0.4,0-0.5c0-0.4,0.2-0.5,0.6-0.5h0.2c0.4,0,0.6,0.1,0.6,0.5c0,0.1,0,0.4,0,0.6L48.5,21.6z"/>
</g>
</svg>
