<?xml version="1.0" encoding="utf-8"?>
<!-- Generator: Adobe Illustrator 24.3.0, SVG Export Plug-In . SVG Version: 6.00 Build 0)  -->
<svg version="1.1" id="Laag_1" xmlns="http://www.w3.org/2000/svg" xmlns:xlink="http://www.w3.org/1999/xlink" x="0px" y="0px"
	 width="225px" height="14px" viewBox="0 0 225 14" style="enable-background:new 0 0 225 14;" xml:space="preserve">
<g>
	<path d="M3.9,11.3c-0.5,0-1.1-0.1-1.5-0.2c-0.5-0.2-0.9-0.4-1.2-0.7c-0.3-0.3-0.6-0.6-0.8-1C0.1,9,0,8.5,0,8h1.3
		c0.1,0.7,0.3,1.2,0.8,1.6c0.5,0.4,1.1,0.6,1.8,0.6c0.8,0,1.4-0.2,1.8-0.7C6.2,9,6.4,8.4,6.4,7.6c0-0.4-0.1-0.8-0.2-1.1
		C6.1,6.2,5.9,6,5.7,5.7C5.4,5.5,5.2,5.4,4.9,5.3c-0.3-0.1-0.6-0.2-1-0.2c-0.6,0-1.1,0.1-1.5,0.3C2,5.6,1.7,5.9,1.5,6.2H0.2l1.2-5.7
		h5.7v1.2H2.3L1.6,4.8h0C2,4.5,2.3,4.3,2.7,4.2C3.1,4,3.6,3.9,4.1,3.9c0.5,0,0.9,0.1,1.4,0.2c0.4,0.2,0.8,0.4,1.1,0.7
		s0.6,0.7,0.8,1.2c0.2,0.5,0.3,1,0.3,1.6c0,0.6-0.1,1.1-0.3,1.5C7.3,9.6,7,10,6.7,10.4c-0.3,0.3-0.7,0.6-1.2,0.7S4.5,11.3,3.9,11.3z
		"/>
	<path d="M11,13.4c-0.1,0-0.3,0-0.4,0c-0.1,0-0.2,0-0.3,0v-1h0c0.2,0,0.3,0,0.4,0c0.5,0,0.8-0.3,0.8-0.8V3.1h1.3v8.6
		c0,0.4,0,0.7-0.1,0.9c-0.1,0.2-0.2,0.4-0.4,0.5c-0.2,0.1-0.4,0.2-0.6,0.3C11.5,13.4,11.2,13.4,11,13.4z M11.6,0h1.3v1.6h-1.3V0z"/>
	<path d="M19.6,11.1V10h0c-0.3,0.4-0.6,0.7-1,0.9c-0.4,0.2-0.8,0.3-1.4,0.3c-0.8,0-1.5-0.2-2-0.7c-0.5-0.5-0.7-1.1-0.7-2V3.1h1.3
		v5.5c0,0.5,0.2,0.9,0.5,1.2c0.3,0.3,0.8,0.4,1.3,0.4c0.3,0,0.6-0.1,0.9-0.2c0.3-0.1,0.5-0.3,0.7-0.5c0.2-0.2,0.3-0.4,0.4-0.7
		c0.1-0.3,0.1-0.6,0.1-0.9V3.1h1.3v8H19.6z"/>
	<path d="M23.9,4.1L23.9,4.1c0.3-0.4,0.7-0.7,1.1-0.9c0.4-0.2,0.9-0.3,1.5-0.3c0.8,0,1.5,0.2,2,0.7c0.5,0.4,0.7,1.1,0.7,1.9v5.6
		h-1.3V5.6c0-0.5-0.2-0.9-0.5-1.2c-0.3-0.3-0.8-0.4-1.3-0.4c-0.3,0-0.6,0.1-0.9,0.2c-0.3,0.1-0.5,0.3-0.7,0.5
		C24.3,4.8,24.1,5,24,5.3c-0.1,0.3-0.2,0.6-0.2,0.9v4.9h-1.3v-8h1.3V4.1z"/>
	<path d="M30.8,0h1.3v1.6h-1.3V0z M30.8,3.1h1.3v8h-1.3V3.1z"/>
	<path d="M35.7,3.1h1.2V0.5h1.3v2.5h1.6v1h-1.6v5.2c0,0.3,0.1,0.5,0.2,0.6s0.3,0.2,0.6,0.2c0.1,0,0.2,0,0.4,0c0.1,0,0.2,0,0.3-0.1h0
		V11c-0.1,0-0.3,0.1-0.5,0.1c-0.2,0-0.3,0-0.5,0c-0.5,0-0.9-0.1-1.3-0.3c-0.3-0.2-0.5-0.6-0.5-1.2V4.1h-1.2V3.1z"/>
	<path d="M44.8,0h1.3l-4.4,11.1h-1.3L44.8,0z"/>
	<path d="M46.5,3.1h1.3v1.2h0c0.2-0.4,0.6-0.7,1-1c0.4-0.2,0.9-0.4,1.4-0.4c0.5,0,0.9,0.1,1.3,0.4c0.4,0.2,0.6,0.6,0.8,1.1h0
		c0.3-0.5,0.6-0.8,1-1.1c0.4-0.2,0.9-0.4,1.4-0.4c0.7,0,1.3,0.2,1.8,0.7s0.7,1.1,0.7,1.9v5.6H56V5.5c0-0.5-0.1-0.9-0.4-1.2
		c-0.3-0.3-0.6-0.4-1-0.4c-0.3,0-0.5,0.1-0.7,0.2c-0.2,0.1-0.4,0.3-0.6,0.5c-0.2,0.2-0.3,0.4-0.4,0.7c-0.1,0.3-0.2,0.6-0.2,0.9v5
		h-1.3V5.5c0-0.5-0.1-0.9-0.4-1.2c-0.3-0.3-0.6-0.4-1-0.4c-0.2,0-0.5,0.1-0.7,0.2c-0.2,0.1-0.5,0.3-0.7,0.5C48.3,4.8,48.1,5,48,5.2
		c-0.1,0.3-0.2,0.6-0.2,0.9v5h-1.3V3.1z"/>
	<path d="M63.4,3.4H61V2.5c0.3,0,0.6,0,0.9-0.1c0.3-0.1,0.6-0.2,0.8-0.3c0.2-0.2,0.4-0.4,0.6-0.6c0.2-0.3,0.3-0.6,0.3-1h1v10.7h-1.3
		V3.4z"/>
	<path d="M66.8,9.3C67,8.8,67.3,8.3,67.7,8c0.4-0.4,0.8-0.7,1.3-1c0.5-0.3,0.9-0.6,1.4-0.8C70.7,6,71,5.8,71.3,5.6
		C71.6,5.4,71.8,5.2,72,5c0.2-0.2,0.3-0.4,0.5-0.7c0.1-0.2,0.2-0.5,0.2-0.8c0-0.7-0.2-1.2-0.6-1.6s-1-0.6-1.7-0.6
		c-0.4,0-0.7,0.1-1,0.2C69,1.6,68.8,1.8,68.6,2c-0.2,0.2-0.4,0.5-0.5,0.8C68,3.1,68,3.6,68,4.1h-1.4c0-0.7,0.1-1.3,0.3-1.7
		C67,2,67.3,1.6,67.6,1.2c0.3-0.3,0.8-0.6,1.2-0.7c0.5-0.2,1-0.2,1.5-0.2c0.5,0,1,0.1,1.5,0.2c0.4,0.2,0.8,0.4,1.1,0.7
		c0.3,0.3,0.5,0.6,0.7,1C73.9,2.6,74,3,74,3.5c0,0.5-0.1,1-0.2,1.3c-0.2,0.4-0.4,0.7-0.7,0.9c-0.3,0.3-0.6,0.5-1,0.7
		c-0.4,0.2-0.8,0.5-1.2,0.7c-0.3,0.2-0.6,0.3-0.9,0.5c-0.3,0.2-0.6,0.4-0.9,0.6c-0.3,0.2-0.5,0.5-0.7,0.7c-0.2,0.3-0.3,0.5-0.4,0.8
		h5.8v1.2h-7.4C66.4,10.4,66.5,9.8,66.8,9.3z"/>
	<path d="M80.9,11.3c-1.1,0-2-0.2-2.6-0.7c-0.6-0.5-0.9-1.2-1-2.1h1.3c0,0.4,0.1,0.6,0.3,0.9c0.1,0.2,0.3,0.4,0.5,0.5
		c0.2,0.1,0.4,0.2,0.7,0.3c0.3,0.1,0.5,0.1,0.8,0.1c0.7,0,1.1-0.1,1.4-0.4c0.3-0.3,0.4-0.6,0.4-0.9c0-0.2,0-0.4-0.1-0.6
		c-0.1-0.1-0.2-0.3-0.4-0.4c-0.2-0.1-0.4-0.2-0.7-0.3c-0.3-0.1-0.6-0.2-1-0.2c-0.4-0.1-0.8-0.2-1.1-0.3c-0.4-0.1-0.7-0.2-1-0.4
		c-0.3-0.2-0.5-0.4-0.7-0.7c-0.2-0.3-0.2-0.6-0.2-1.1c0-0.7,0.2-1.2,0.7-1.6c0.5-0.4,1.2-0.6,2.2-0.6c1,0,1.8,0.2,2.3,0.7
		c0.5,0.4,0.8,1.1,0.9,1.8h-1.3c-0.1-0.5-0.2-0.9-0.5-1.2c-0.3-0.2-0.8-0.4-1.4-0.4c-0.6,0-1,0.1-1.2,0.3c-0.2,0.2-0.4,0.5-0.4,0.8
		c0,0.2,0,0.4,0.1,0.5c0.1,0.1,0.2,0.3,0.4,0.3c0.2,0.1,0.4,0.2,0.7,0.2s0.6,0.1,0.9,0.2c0.4,0.1,0.8,0.2,1.1,0.3
		c0.4,0.1,0.7,0.2,0.9,0.4c0.3,0.2,0.5,0.4,0.6,0.7c0.2,0.3,0.2,0.7,0.2,1.1c0,0.4-0.1,0.8-0.2,1.1c-0.2,0.3-0.4,0.6-0.7,0.8
		c-0.3,0.2-0.6,0.4-1,0.5C81.8,11.3,81.4,11.3,80.9,11.3z"/>
	<path d="M88.9,11.3c-0.6,0-1.2-0.1-1.6-0.3c-0.5-0.2-0.9-0.5-1.2-0.9c-0.3-0.4-0.6-0.8-0.8-1.3C85.1,8.2,85,7.7,85,7.1
		c0-0.6,0.1-1.1,0.3-1.6c0.2-0.5,0.4-1,0.8-1.3c0.3-0.4,0.7-0.7,1.2-0.9c0.5-0.2,1-0.3,1.6-0.3c0.6,0,1.1,0.1,1.6,0.3
		c0.5,0.2,0.8,0.5,1.2,0.9c0.3,0.4,0.5,0.9,0.7,1.4c0.2,0.6,0.2,1.2,0.2,1.8h-6.2c0,0.4,0.1,0.8,0.2,1.1c0.1,0.4,0.3,0.7,0.5,0.9
		c0.2,0.3,0.5,0.5,0.8,0.6c0.3,0.1,0.7,0.2,1.1,0.2c0.6,0,1.1-0.1,1.4-0.4c0.4-0.3,0.6-0.7,0.8-1.2h1.2c-0.2,0.9-0.6,1.5-1.2,2
		C90.5,11.1,89.8,11.3,88.9,11.3z M88.8,3.9c-0.4,0-0.7,0.1-1,0.2c-0.3,0.1-0.5,0.3-0.7,0.5c-0.2,0.2-0.4,0.5-0.5,0.8
		c-0.1,0.3-0.2,0.7-0.3,1h4.8c0-0.8-0.3-1.4-0.7-1.9C90.1,4.1,89.5,3.9,88.8,3.9z"/>
	<path d="M93.7,3.1H95v1.1h0c0.3-0.4,0.7-0.7,1.1-1C96.5,3,97,2.9,97.6,2.9c0.5,0,1,0.1,1.4,0.3c0.4,0.2,0.8,0.5,1.1,0.8
		c0.3,0.4,0.5,0.8,0.7,1.3c0.2,0.5,0.3,1.1,0.3,1.8c0,0.6-0.1,1.2-0.2,1.7c-0.2,0.5-0.4,1-0.7,1.3c-0.3,0.4-0.7,0.7-1.1,0.8
		c-0.4,0.2-0.9,0.3-1.5,0.3c-0.5,0-1-0.1-1.4-0.3c-0.4-0.2-0.8-0.5-1.1-0.9h0v3.5h-1.3V3.1z M97.4,10.3c0.4,0,0.7-0.1,1-0.2
		c0.3-0.2,0.5-0.4,0.7-0.7c0.2-0.3,0.3-0.6,0.4-1c0.1-0.4,0.1-0.8,0.1-1.3c0-0.4,0-0.9-0.1-1.3c-0.1-0.4-0.2-0.7-0.4-1
		c-0.2-0.3-0.4-0.5-0.7-0.7C98.2,4,97.8,4,97.5,4C97,4,96.6,4,96.3,4.2c-0.3,0.2-0.6,0.4-0.8,0.7c-0.2,0.3-0.4,0.6-0.5,1
		c-0.1,0.4-0.2,0.8-0.2,1.2c0,0.4,0,0.8,0.1,1.2c0.1,0.4,0.2,0.7,0.4,1c0.2,0.3,0.5,0.5,0.8,0.7C96.6,10.2,97,10.3,97.4,10.3z"/>
	<path d="M101.5,3.1h1.2V0.5h1.3v2.5h1.6v1H104v5.2c0,0.3,0.1,0.5,0.2,0.6s0.3,0.2,0.6,0.2c0.1,0,0.2,0,0.4,0c0.1,0,0.2,0,0.3-0.1h0
		V11c-0.1,0-0.3,0.1-0.5,0.1c-0.2,0-0.3,0-0.5,0c-0.5,0-0.9-0.1-1.3-0.3c-0.3-0.2-0.5-0.6-0.5-1.2V4.1h-1.2V3.1z"/>
	<path d="M110.2,11.3c-0.6,0-1.2-0.1-1.6-0.3c-0.5-0.2-0.9-0.5-1.2-0.9c-0.3-0.4-0.6-0.8-0.8-1.3c-0.2-0.5-0.3-1.1-0.3-1.6
		c0-0.6,0.1-1.1,0.3-1.6s0.4-1,0.8-1.3c0.3-0.4,0.7-0.7,1.2-0.9c0.5-0.2,1-0.3,1.6-0.3c0.6,0,1.1,0.1,1.6,0.3
		c0.5,0.2,0.8,0.5,1.2,0.9c0.3,0.4,0.5,0.9,0.7,1.4c0.2,0.6,0.2,1.2,0.2,1.8h-6.2c0,0.4,0.1,0.8,0.2,1.1c0.1,0.4,0.3,0.7,0.5,0.9
		c0.2,0.3,0.5,0.5,0.8,0.6c0.3,0.1,0.7,0.2,1.1,0.2c0.6,0,1.1-0.1,1.4-0.4c0.4-0.3,0.6-0.7,0.8-1.2h1.2c-0.2,0.9-0.6,1.5-1.2,2
		C111.8,11.1,111.1,11.3,110.2,11.3z M110.1,3.9c-0.4,0-0.7,0.1-1,0.2s-0.5,0.3-0.7,0.5c-0.2,0.2-0.4,0.5-0.5,0.8
		c-0.1,0.3-0.2,0.7-0.3,1h4.8c0-0.8-0.3-1.4-0.7-1.9C111.4,4.1,110.8,3.9,110.1,3.9z"/>
	<path d="M115,3.1h1.3v1.2h0c0.2-0.4,0.6-0.7,1-1s0.9-0.4,1.4-0.4c0.5,0,0.9,0.1,1.3,0.4c0.4,0.2,0.6,0.6,0.8,1.1h0
		c0.3-0.5,0.6-0.8,1-1.1c0.4-0.2,0.9-0.4,1.4-0.4c0.7,0,1.3,0.2,1.8,0.7s0.7,1.1,0.7,1.9v5.6h-1.3V5.5c0-0.5-0.1-0.9-0.4-1.2
		c-0.3-0.3-0.6-0.4-1-0.4c-0.3,0-0.5,0.1-0.7,0.2c-0.2,0.1-0.4,0.3-0.6,0.5c-0.2,0.2-0.3,0.4-0.4,0.7C121,5.5,121,5.8,121,6.1v5
		h-1.3V5.5c0-0.5-0.1-0.9-0.4-1.2c-0.3-0.3-0.6-0.4-1-0.4c-0.2,0-0.5,0.1-0.7,0.2c-0.2,0.1-0.5,0.3-0.7,0.5
		c-0.2,0.2-0.4,0.4-0.5,0.7c-0.1,0.3-0.2,0.6-0.2,0.9v5H115V3.1z"/>
	<path d="M131.2,11.3c-0.5,0-1-0.1-1.4-0.3c-0.4-0.2-0.8-0.5-1.1-1h0v1.1h-1.3V0h1.3v4.2h0c0.3-0.4,0.7-0.7,1.1-1s0.9-0.4,1.5-0.4
		c0.5,0,1,0.1,1.4,0.3c0.4,0.2,0.8,0.5,1.1,0.8c0.3,0.4,0.5,0.8,0.7,1.3c0.2,0.5,0.2,1.1,0.2,1.8c0,0.6-0.1,1.2-0.2,1.7
		c-0.2,0.5-0.4,1-0.7,1.3c-0.3,0.4-0.7,0.7-1.1,0.8C132.2,11.2,131.7,11.3,131.2,11.3z M131.1,10.3c0.4,0,0.7-0.1,1-0.2
		c0.3-0.2,0.5-0.4,0.7-0.7s0.3-0.6,0.4-1c0.1-0.4,0.1-0.8,0.1-1.3c0-0.4,0-0.9-0.1-1.3c-0.1-0.4-0.2-0.7-0.4-1
		c-0.2-0.3-0.4-0.5-0.7-0.7c-0.3-0.2-0.6-0.2-1-0.2c-0.4,0-0.8,0.1-1.1,0.2c-0.3,0.2-0.6,0.4-0.8,0.7c-0.2,0.3-0.4,0.6-0.5,1
		s-0.2,0.8-0.2,1.2c0,0.5,0.1,0.9,0.2,1.3c0.1,0.4,0.3,0.7,0.5,1c0.2,0.3,0.5,0.5,0.8,0.7C130.3,10.2,130.7,10.3,131.1,10.3z"/>
	<path d="M139.3,11.3c-0.6,0-1.2-0.1-1.6-0.3c-0.5-0.2-0.9-0.5-1.2-0.9c-0.3-0.4-0.6-0.8-0.8-1.3c-0.2-0.5-0.3-1.1-0.3-1.6
		c0-0.6,0.1-1.1,0.3-1.6s0.4-1,0.8-1.3c0.3-0.4,0.7-0.7,1.2-0.9c0.5-0.2,1-0.3,1.6-0.3c0.6,0,1.1,0.1,1.6,0.3
		c0.5,0.2,0.8,0.5,1.2,0.9c0.3,0.4,0.5,0.9,0.7,1.4c0.2,0.6,0.2,1.2,0.2,1.8h-6.2c0,0.4,0.1,0.8,0.2,1.1c0.1,0.4,0.3,0.7,0.5,0.9
		c0.2,0.3,0.5,0.5,0.8,0.6c0.3,0.1,0.7,0.2,1.1,0.2c0.6,0,1.1-0.1,1.4-0.4c0.4-0.3,0.6-0.7,0.8-1.2h1.2c-0.2,0.9-0.6,1.5-1.2,2
		C141,11.1,140.3,11.3,139.3,11.3z M139.3,3.9c-0.4,0-0.7,0.1-1,0.2s-0.5,0.3-0.7,0.5c-0.2,0.2-0.4,0.5-0.5,0.8
		c-0.1,0.3-0.2,0.7-0.3,1h4.8c0-0.8-0.3-1.4-0.7-1.9C140.6,4.1,140,3.9,139.3,3.9z"/>
	<path d="M145.5,4.4L145.5,4.4c0.3-0.4,0.6-0.7,1-1c0.4-0.3,0.9-0.4,1.4-0.4c0.1,0,0.2,0,0.3,0c0.1,0,0.1,0,0.2,0.1v1.2h0
		c-0.1,0-0.2-0.1-0.3-0.1s-0.2,0-0.3,0c-0.3,0-0.6,0.1-0.9,0.2c-0.3,0.1-0.5,0.3-0.7,0.5c-0.2,0.2-0.4,0.5-0.5,0.8
		c-0.1,0.3-0.2,0.6-0.2,1v4.5h-1.3v-8h1.3V4.4z"/>
	<path d="M152,9.3c0.2-0.5,0.6-0.9,0.9-1.3c0.4-0.4,0.8-0.7,1.3-1c0.5-0.3,0.9-0.6,1.4-0.8c0.4-0.2,0.7-0.4,0.9-0.6
		c0.3-0.2,0.5-0.4,0.7-0.6c0.2-0.2,0.3-0.4,0.5-0.7c0.1-0.2,0.2-0.5,0.2-0.8c0-0.7-0.2-1.2-0.6-1.6c-0.4-0.4-1-0.6-1.7-0.6
		c-0.4,0-0.7,0.1-1,0.2c-0.3,0.1-0.5,0.3-0.7,0.5c-0.2,0.2-0.4,0.5-0.5,0.8c-0.1,0.3-0.1,0.8-0.1,1.3h-1.4c0-0.7,0.1-1.3,0.3-1.7
		c0.2-0.5,0.4-0.8,0.8-1.2c0.3-0.3,0.8-0.6,1.2-0.7c0.5-0.2,1-0.2,1.5-0.2c0.5,0,1,0.1,1.5,0.2c0.4,0.2,0.8,0.4,1.1,0.7
		c0.3,0.3,0.5,0.6,0.7,1c0.2,0.4,0.2,0.8,0.2,1.3c0,0.5-0.1,1-0.2,1.3c-0.2,0.4-0.4,0.7-0.7,0.9c-0.3,0.3-0.6,0.5-1,0.7
		c-0.4,0.2-0.8,0.5-1.2,0.7c-0.3,0.2-0.6,0.3-0.9,0.5c-0.3,0.2-0.6,0.4-0.9,0.6c-0.3,0.2-0.5,0.5-0.7,0.7c-0.2,0.3-0.3,0.5-0.4,0.8
		h5.8v1.2h-7.4C151.7,10.4,151.8,9.8,152,9.3z"/>
	<path d="M164.6,11.3c-0.7,0-1.2-0.1-1.7-0.4c-0.5-0.3-0.9-0.6-1.3-1.1c-0.4-0.5-0.6-1.1-0.8-1.7c-0.2-0.7-0.3-1.5-0.3-2.3
		c0-0.9,0.1-1.6,0.3-2.3c0.2-0.7,0.5-1.3,0.8-1.8c0.4-0.5,0.8-0.8,1.3-1.1c0.5-0.3,1.1-0.4,1.7-0.4c0.6,0,1.2,0.1,1.7,0.4
		c0.5,0.3,0.9,0.6,1.3,1.1c0.4,0.5,0.6,1.1,0.8,1.7c0.2,0.7,0.3,1.5,0.3,2.3c0,0.8-0.1,1.6-0.3,2.3c-0.2,0.7-0.4,1.3-0.8,1.7
		c-0.4,0.5-0.8,0.9-1.3,1.1C165.9,11.2,165.3,11.3,164.6,11.3z M164.6,10.2c0.9,0,1.6-0.4,2.1-1.2c0.5-0.8,0.7-1.9,0.7-3.2
		c0-0.7-0.1-1.3-0.2-1.8c-0.1-0.5-0.3-1-0.5-1.4c-0.2-0.4-0.5-0.7-0.9-0.9c-0.3-0.2-0.7-0.3-1.2-0.3c-0.9,0-1.6,0.4-2.1,1.2
		c-0.5,0.8-0.7,1.9-0.7,3.3c0,0.7,0.1,1.3,0.2,1.8c0.1,0.5,0.3,1,0.5,1.4c0.2,0.4,0.5,0.7,0.9,0.9C163.7,10.1,164.2,10.2,164.6,10.2
		z"/>
	<path d="M170.2,9.3c0.2-0.5,0.6-0.9,0.9-1.3c0.4-0.4,0.8-0.7,1.3-1c0.5-0.3,0.9-0.6,1.4-0.8c0.4-0.2,0.7-0.4,0.9-0.6
		c0.3-0.2,0.5-0.4,0.7-0.6c0.2-0.2,0.3-0.4,0.5-0.7c0.1-0.2,0.2-0.5,0.2-0.8c0-0.7-0.2-1.2-0.6-1.6c-0.4-0.4-1-0.6-1.7-0.6
		c-0.4,0-0.7,0.1-1,0.2c-0.3,0.1-0.5,0.3-0.7,0.5c-0.2,0.2-0.4,0.5-0.5,0.8c-0.1,0.3-0.1,0.8-0.1,1.3h-1.4c0-0.7,0.1-1.3,0.3-1.7
		c0.2-0.5,0.4-0.8,0.8-1.2c0.3-0.3,0.8-0.6,1.2-0.7c0.5-0.2,1-0.2,1.5-0.2c0.5,0,1,0.1,1.5,0.2c0.4,0.2,0.8,0.4,1.1,0.7
		s0.5,0.6,0.7,1c0.2,0.4,0.2,0.8,0.2,1.3c0,0.5-0.1,1-0.2,1.3c-0.2,0.4-0.4,0.7-0.7,0.9c-0.3,0.3-0.6,0.5-1,0.7
		c-0.4,0.2-0.8,0.5-1.2,0.7c-0.3,0.2-0.6,0.3-0.9,0.5c-0.3,0.2-0.6,0.4-0.9,0.6c-0.3,0.2-0.5,0.5-0.7,0.7c-0.2,0.3-0.3,0.5-0.4,0.8
		h5.8v1.2h-7.4C169.9,10.4,170,9.8,170.2,9.3z"/>
	<path d="M180.8,3.4h-2.3V2.5c0.3,0,0.6,0,0.9-0.1c0.3-0.1,0.6-0.2,0.8-0.3c0.2-0.2,0.4-0.4,0.6-0.6c0.2-0.3,0.3-0.6,0.3-1h1v10.7
		h-1.3V3.4z"/>
</g>
</svg>
