<?xml version="1.0" encoding="utf-8"?>
<!-- Generator: Adobe Illustrator 24.3.0, SVG Export Plug-In . SVG Version: 6.00 Build 0)  -->
<svg version="1.1" id="Laag_1" xmlns="http://www.w3.org/2000/svg" xmlns:xlink="http://www.w3.org/1999/xlink" x="0px" y="0px"
	 width="131px" height="9.2px" viewBox="0 0 131 9.2" style="enable-background:new 0 0 131 9.2;" xml:space="preserve">
<style type="text/css">
	.st0{fill:#5F3A4E;}
	.st1{fill:#5F3A4E;stroke:#5F3A4E;stroke-width:0.5;stroke-miterlimit:10;}
</style>
<g>
	<g>
		<path class="st0" d="M3.6,3.5c0.3,0.1,0.6,0.3,0.8,0.6s0.3,0.7,0.3,1.1c0,0.6-0.2,1-0.6,1.4S3.2,7.2,2.4,7.2H0v-7h2.2
			c0.6,0,1.2,0.2,1.6,0.5C4.2,1,4.4,1.4,4.4,1.9c0,0.3-0.1,0.6-0.2,0.9C4,3.1,3.8,3.3,3.6,3.5L3.6,3.5z M0.9,1v2.1h1.3
			c0.5,0,0.8-0.1,1-0.3C3.4,2.6,3.5,2.4,3.5,2c0-0.7-0.5-1-1.4-1H0.9z M2.3,6.3c1,0,1.5-0.4,1.5-1.2c0-0.4-0.1-0.7-0.4-0.9
			C3.2,4,2.8,3.9,2.3,3.9H0.9v2.4H2.3z"/>
		<path class="st0" d="M6.4,2.8c0.5-0.5,1-0.7,1.7-0.7s1.2,0.2,1.7,0.7s0.7,1.2,0.6,2.1H6.5C6.6,5.3,6.7,5.7,7,6s0.6,0.4,1,0.4
			c0.6,0,1-0.2,1.2-0.6h0.9c-0.1,0.4-0.4,0.8-0.8,1C8.9,7.1,8.5,7.2,8.1,7.2C7.4,7.2,6.8,7,6.4,6.5C5.9,6,5.7,5.4,5.7,4.6
			C5.7,3.9,5.9,3.3,6.4,2.8z M8.9,3.2C8.7,3,8.4,2.8,8,2.8C7.7,2.8,7.3,3,7.1,3.2s-0.4,0.6-0.5,1h2.8C9.3,3.8,9.2,3.4,8.9,3.2z"/>
		<path class="st0" d="M15.7,2.2l-2,2.1l2,2.9h-1L13.1,5l-0.8,0.8v1.4h-0.9V0.1h0.9v4.3h0.2l2.1-2.2H15.7z"/>
		<path class="st0" d="M17.3,1.3c-0.2,0-0.3-0.1-0.5-0.2c-0.1-0.1-0.2-0.3-0.2-0.5s0.1-0.3,0.2-0.5C17,0.1,17.1,0,17.3,0
			c0.2,0,0.3,0.1,0.5,0.2C17.9,0.3,18,0.5,18,0.6c0,0.2-0.1,0.3-0.2,0.5C17.6,1.2,17.5,1.3,17.3,1.3z M17.8,2.2v5h-0.9v-5
			C16.9,2.2,17.8,2.2,17.8,2.2z"/>
		<path class="st0" d="M19,2.2h0.9v5.5c0,0.5-0.1,0.8-0.4,1.1s-0.6,0.4-1,0.4c-0.3,0-0.6-0.1-0.9-0.3L18,8.3
			c0.1,0.1,0.3,0.1,0.4,0.1c0.4,0,0.6-0.3,0.6-0.8V2.2z M19.5,1.3c-0.2,0-0.3-0.1-0.5-0.2c-0.1-0.1-0.2-0.3-0.2-0.5s0.1-0.3,0.2-0.5
			S19.3,0,19.5,0s0.3,0.1,0.5,0.2s0.2,0.3,0.2,0.5S20.1,1,20,1.2C19.8,1.2,19.7,1.3,19.5,1.3z"/>
		<path class="st0" d="M25.6,2.2l-2,2.1l2,2.9h-1L23,4.9l-0.8,0.8v1.4h-0.9v-7h0.9v4.3h0.2l2.1-2.2H25.6z"/>
		<path class="st0" d="M31.6,7.2c-0.6,0-1.2-0.2-1.7-0.7s-0.7-1.1-0.7-1.8s0.2-1.3,0.7-1.8s1-0.7,1.7-0.7c0.7,0,1.2,0.2,1.7,0.7
			c0.4,0.4,0.7,1,0.7,1.8c0,0.7-0.2,1.3-0.7,1.8S32.2,7.2,31.6,7.2z M30.5,5.9c0.3,0.3,0.6,0.5,1.1,0.5c0.5,0,0.8-0.2,1.1-0.5
			s0.4-0.7,0.4-1.2s-0.1-1-0.4-1.3S32,2.9,31.6,2.9s-0.8,0.2-1.1,0.5c-0.3,0.3-0.4,0.7-0.4,1.2S30.2,5.6,30.5,5.9z"/>
		<path class="st0" d="M37.5,2.1c0.6,0,1.1,0.2,1.4,0.6c0.3,0.4,0.5,1,0.5,1.7v2.7h-0.9V4.7c0-0.3,0-0.5,0-0.7s-0.1-0.4-0.2-0.6
			C38.2,3.3,38.1,3.1,38,3s-0.4-0.2-0.6-0.2c-0.4,0-0.7,0.1-1,0.4S36,3.8,36,4.2V7h-0.9V2h0.6l0.2,0.6H36
			C36.4,2.3,36.9,2.1,37.5,2.1z"/>
		<path class="st0" d="M44.2,5.7c0,0.5-0.2,0.8-0.5,1.1c-0.3,0.3-0.7,0.4-1.2,0.4c-0.6,0-1-0.2-1.4-0.5S40.6,6,40.6,5.5h0.8
			c0,0.3,0.1,0.5,0.3,0.7s0.5,0.2,0.8,0.2s0.5-0.1,0.6-0.2c0.2-0.1,0.3-0.3,0.3-0.5s-0.1-0.4-0.3-0.5S42.7,5,42.3,4.9
			c-0.2,0-0.3-0.1-0.4-0.1c-0.1,0-0.2-0.1-0.4-0.2s-0.3-0.2-0.4-0.3c-0.1,0-0.2-0.1-0.3-0.3s-0.1-0.3-0.1-0.5c0-0.4,0.2-0.8,0.5-1
			s0.7-0.4,1.2-0.4s0.9,0.1,1.3,0.4c0.3,0.3,0.5,0.6,0.5,1h-0.8c0-0.2-0.1-0.4-0.3-0.5s-0.4-0.2-0.7-0.2c-0.2,0-0.4,0.1-0.6,0.2
			c-0.2,0.1-0.2,0.3-0.2,0.5s0.1,0.4,0.2,0.5c0.2,0.1,0.4,0.2,0.7,0.3c0.2,0.1,0.4,0.1,0.5,0.1s0.3,0.1,0.4,0.2
			c0.2,0.1,0.3,0.2,0.4,0.3S44,5,44.1,5.2S44.2,5.5,44.2,5.7z"/>
		<path class="st0" d="M50.5,6.3l0.4,0.6c-0.2,0.2-0.5,0.3-0.9,0.3s-0.8-0.1-1-0.4c-0.3-0.3-0.4-0.7-0.4-1.1V2.9h-0.9V2.2H48
			c0.2,0,0.4-0.1,0.5-0.2c0.1-0.1,0.2-0.3,0.2-0.5V0.7h0.7v1.5h1.2v0.7h-1.2v2.7c0,0.6,0.2,0.8,0.6,0.8C50.3,6.4,50.4,6.4,50.5,6.3z
			"/>
		<path class="st0" d="M54.3,2.1c0.6,0,1.1,0.2,1.4,0.6c0.3,0.4,0.5,1,0.5,1.7v2.7h-0.9V4.7c0-0.3,0-0.5,0-0.7s-0.1-0.4-0.2-0.6
			C55,3.3,54.9,3.1,54.7,3s-0.4-0.2-0.6-0.2c-0.4,0-0.7,0.1-1,0.4s-0.4,0.6-0.4,1V7h-0.9V0.1h0.9v2.6h0.1
			C53.2,2.3,53.7,2.1,54.3,2.1z"/>
		<path class="st0" d="M58,2.8c0.5-0.5,1-0.7,1.7-0.7s1.2,0.2,1.7,0.7S62,4,62,4.9h-3.8c0,0.5,0.2,0.8,0.5,1.1
			c0.3,0.3,0.6,0.4,1.1,0.4c0.6,0,1-0.2,1.2-0.6h0.9c-0.2,0.4-0.5,0.8-0.9,1.1s-0.8,0.4-1.3,0.4C59,7.2,58.5,7,58,6.5
			s-0.7-1.1-0.7-1.9C57.3,3.9,57.5,3.3,58,2.8z M60.6,3.2C60.3,3,60,2.8,59.7,2.8S59,3,58.7,3.2s-0.4,0.6-0.5,1H61
			C61,3.8,60.8,3.4,60.6,3.2z"/>
		<path class="st0" d="M66.8,5.9c0,0.2,0,0.4,0.1,0.5s0.2,0.1,0.4,0.1v0.7H67c-0.5,0-0.8-0.2-0.9-0.6c-0.3,0.4-0.8,0.6-1.5,0.6
			c-0.5,0-0.9-0.1-1.2-0.4s-0.5-0.6-0.5-1.1c0-0.8,0.5-1.3,1.6-1.5c0.3,0,0.8-0.1,1.5-0.2c0-0.7-0.4-1.1-1.1-1.1
			c-0.2,0-0.3,0-0.4,0.1c-0.1,0-0.2,0.1-0.3,0.2c-0.1,0-0.2,0-0.2,0.1s-0.1,0.1-0.1,0.2v0.1H63c0-0.4,0.2-0.7,0.6-1
			c0.3-0.3,0.8-0.4,1.3-0.4c0.6,0,1,0.2,1.3,0.5s0.5,0.8,0.5,1.5L66.8,5.9L66.8,5.9z M63.7,5.8c0,0.3,0.2,0.5,0.5,0.6
			c0.4,0.1,0.7,0,1.1-0.2s0.6-0.5,0.6-1V4.8c-0.4,0-0.6,0.1-0.9,0.1c-0.2,0-0.4,0.1-0.7,0.2S64,5.2,63.9,5.3
			C63.8,5.4,63.7,5.6,63.7,5.8z"/>
		<path class="st0" d="M70.4,6.3l0.4,0.6c-0.2,0.2-0.5,0.3-0.9,0.3s-0.8-0.1-1-0.4c-0.3-0.3-0.4-0.7-0.4-1.1V2.9h-0.9V2.2h0.3
			c0.2,0,0.4-0.1,0.5-0.2c0.1-0.1,0.2-0.3,0.2-0.5V0.7h0.7v1.5h1.2v0.7h-1.2v2.7c0,0.6,0.2,0.8,0.6,0.8C70.1,6.4,70.3,6.4,70.4,6.3z
			"/>
		<path class="st0" d="M72,2.8c0.5-0.5,1-0.7,1.7-0.7s1.2,0.2,1.7,0.7S76,4,75.9,4.9h-3.8c0,0.5,0.2,0.8,0.5,1.1
			c0.3,0.3,0.6,0.4,1.1,0.4c0.6,0,1-0.2,1.2-0.6h0.9c-0.2,0.4-0.5,0.8-0.9,1.1s-0.8,0.4-1.3,0.4C73,7.2,72.4,7,72,6.5
			s-0.7-1.1-0.7-1.9C71.3,3.9,71.5,3.3,72,2.8z M74.5,3.2C74.3,3,74,2.8,73.6,2.8S73,3,72.7,3.2s-0.4,0.6-0.5,1H75
			C74.9,3.8,74.8,3.4,74.5,3.2z"/>
		<path class="st0" d="M79.3,2.1h0.3V3c-0.1,0-0.3,0-0.4,0c-0.4,0-0.7,0.1-0.9,0.3c-0.2,0.2-0.4,0.5-0.4,1v3H77v-5h0.6l0.2,0.6H78
			C78.3,2.3,78.8,2.1,79.3,2.1z"/>
		<path class="st0" d="M83.1,2.1c0.6,0,1.2,0.2,1.6,0.7s0.7,1.1,0.7,1.8S85.2,6,84.7,6.5s-1,0.7-1.6,0.7s-1.2-0.3-1.5-0.8v2.8h-0.9
			v-7h0.6l0.2,0.6h0.2C82,2.3,82.5,2.1,83.1,2.1z M83,6.4c0.4,0,0.8-0.2,1-0.5c0.3-0.3,0.5-0.7,0.5-1.2S84.4,3.8,84,3.5
			C83.7,3.2,83.4,3,83,3s-0.7,0.1-1,0.4s-0.4,0.7-0.4,1.3s0.1,1,0.4,1.3S82.7,6.4,83,6.4z"/>
		<path class="st0" d="M88.8,2.1h0.3V3c-0.1,0-0.3,0-0.4,0c-0.4,0-0.7,0.1-0.9,0.3c-0.2,0.2-0.4,0.5-0.4,1v3h-0.9v-5h0.6l0.2,0.6
			h0.1C87.8,2.3,88.3,2.1,88.8,2.1z"/>
		<path class="st0" d="M92.1,7.2c-0.6,0-1.2-0.2-1.7-0.7C90,6,89.7,5.4,89.7,4.7s0.2-1.3,0.7-1.8s1-0.7,1.7-0.7s1.2,0.2,1.7,0.7
			s0.7,1.1,0.7,1.8S94.3,6,93.8,6.5C93.3,7,92.8,7.2,92.1,7.2z M91,5.9c0.3,0.3,0.6,0.5,1.1,0.5s0.8-0.2,1.1-0.5s0.4-0.7,0.4-1.2
			s-0.1-0.9-0.4-1.2S92.6,3,92.1,3S91.3,3.1,91,3.4s-0.4,0.7-0.4,1.2S90.7,5.6,91,5.9z"/>
		<path class="st0" d="M98.1,6.2c0.5,0,0.9,0.1,1.2,0.4c0.3,0.3,0.4,0.6,0.4,1c0,0.5-0.2,0.9-0.6,1.2s-0.9,0.4-1.5,0.4
			c-0.7,0-1.3-0.2-1.7-0.6c-0.4-0.4-0.5-0.8-0.4-1.4l0.8-0.5c-0.4-0.2-0.7-0.4-0.7-0.8s0.2-0.7,0.6-0.9c-0.3-0.3-0.4-0.7-0.4-1.1
			c0-0.5,0.2-0.9,0.5-1.2s0.8-0.5,1.3-0.5c0.4,0,0.7,0.1,1,0.3c0.1-0.1,0.3-0.2,0.4-0.3s0.2-0.2,0.3-0.3l0.1-0.1l0.5,0.7
			c-0.2,0.1-0.4,0.3-0.8,0.4c0.2,0.3,0.3,0.6,0.3,1c0,0.5-0.2,0.9-0.5,1.2s-0.8,0.5-1.3,0.5c-0.3,0-0.6-0.1-0.9-0.2
			c-0.2,0.1-0.3,0.3-0.3,0.5c0,0.3,0.3,0.4,1,0.4L98.1,6.2L98.1,6.2z M97.5,8.4c0.4,0,0.7-0.1,0.9-0.2c0.3-0.2,0.4-0.4,0.4-0.6
			c0-0.1,0-0.3-0.1-0.3S98.5,7,98.4,7s-0.2-0.1-0.3-0.1c-0.1,0-0.2,0-0.4,0c-0.4,0-0.7,0-0.8,0l-0.7,0.6c0,0.3,0.1,0.5,0.3,0.7
			C96.8,8.3,97.1,8.4,97.5,8.4z M98.2,3.1c-0.2-0.2-0.4-0.3-0.7-0.3c-0.3,0-0.5,0.1-0.7,0.3s-0.3,0.4-0.3,0.7s0.1,0.5,0.3,0.7
			c0.2,0.2,0.4,0.3,0.7,0.3c0.3,0,0.5-0.1,0.7-0.3c0.2-0.2,0.3-0.4,0.3-0.7S98.4,3.3,98.2,3.1z"/>
		<path class="st0" d="M103.1,2.1h0.3V3c-0.1,0-0.3,0-0.4,0c-0.4,0-0.7,0.1-0.9,0.3c-0.2,0.2-0.4,0.5-0.4,1v3h-0.9v-5h0.6l0.2,0.6
			h0.1C102.1,2.3,102.5,2.1,103.1,2.1z"/>
		<path class="st0" d="M107.9,5.9c0,0.2,0,0.4,0.1,0.5s0.2,0.1,0.4,0.1v0.7H108c-0.5,0-0.8-0.2-0.9-0.6c-0.3,0.4-0.8,0.6-1.5,0.6
			c-0.5,0-0.9-0.1-1.2-0.4c-0.3-0.3-0.5-0.6-0.5-1.1c0-0.8,0.5-1.3,1.6-1.5c0.2-0.1,0.7-0.1,1.4-0.2c0-0.7-0.4-1.1-1.1-1.1
			c-0.2,0-0.3,0-0.4,0.1c-0.1,0-0.2,0.1-0.3,0.2c-0.1,0.1-0.1,0.1-0.2,0.2c0,0.1-0.1,0.1-0.1,0.2v0.1h-0.9c0-0.4,0.2-0.7,0.6-1
			c0.3-0.3,0.8-0.4,1.3-0.4c0.6,0,1,0.2,1.3,0.5s0.5,0.8,0.5,1.5v1.6H107.9z M104.9,5.8c0,0.3,0.2,0.5,0.5,0.6
			c0.4,0.1,0.7,0,1.1-0.2s0.6-0.5,0.6-1V4.8c-0.4,0-0.6,0.1-0.9,0.1c-0.2,0-0.4,0.1-0.7,0.2s-0.4,0.2-0.5,0.3
			C104.9,5.4,104.9,5.6,104.9,5.8z"/>
		<path class="st0" d="M114.8,2.1c0.6,0,1,0.2,1.3,0.6s0.5,1,0.5,1.7v2.7h-0.9V4.7c0-0.3,0-0.5,0-0.7s-0.1-0.4-0.1-0.6
			c-0.1-0.2-0.2-0.3-0.3-0.4c-0.1-0.1-0.3-0.2-0.5-0.2c-0.3,0-0.6,0.1-0.8,0.4s-0.4,0.6-0.4,1v2.9h-0.9V4.7c0-0.3,0-0.5,0-0.7
			s-0.1-0.4-0.1-0.6c-0.1-0.2-0.2-0.3-0.3-0.4c-0.1-0.1-0.3-0.2-0.5-0.2c-0.3,0-0.6,0.1-0.9,0.4c-0.2,0.3-0.4,0.6-0.4,1.1v2.8h-0.9
			v-5h0.6l0.2,0.6h0.1c0.4-0.4,0.8-0.6,1.3-0.6c0.6,0,1,0.3,1.4,0.8h0.2C113.6,2.4,114.1,2.1,114.8,2.1z"/>
		<path class="st0" d="M123.1,2.1c0.6,0,1,0.2,1.3,0.6s0.5,1,0.5,1.7v2.7H124V4.7c0-0.3,0-0.5,0-0.7s-0.1-0.4-0.1-0.6
			c-0.1-0.2-0.2-0.3-0.3-0.4c-0.1-0.1-0.3-0.2-0.5-0.2c-0.3,0-0.6,0.1-0.8,0.4s-0.4,0.6-0.4,1v2.9H121V4.7c0-0.3,0-0.5,0-0.7
			s-0.1-0.4-0.1-0.6c-0.1-0.2-0.2-0.3-0.3-0.4c-0.1-0.1-0.3-0.2-0.5-0.2c-0.3,0-0.6,0.1-0.9,0.4c-0.2,0.3-0.4,0.6-0.4,1.1v2.8h-0.9
			v-5h0.6l0.2,0.6h0.1c0.4-0.4,0.8-0.6,1.3-0.6c0.6,0,1,0.3,1.4,0.8h0.2C121.9,2.4,122.4,2.1,123.1,2.1z"/>
		<path class="st0" d="M130.5,6.2l0.5,0.3c0,0,0,0,0,0.1s0,0.1-0.1,0.2S130.8,7,130.7,7c-0.1,0.1-0.2,0.1-0.3,0.2s-0.3,0.1-0.4,0.1
			c-0.4,0-0.7-0.2-0.9-0.6c-0.3,0.4-0.8,0.6-1.5,0.6c-0.5,0-0.9-0.1-1.2-0.4c-0.3-0.3-0.5-0.6-0.5-1.1c0-0.8,0.5-1.3,1.6-1.5
			c0.2-0.1,0.7-0.1,1.4-0.2c0-0.7-0.4-1.1-1.1-1.1c-0.2,0-0.3,0-0.4,0.1c-0.1,0-0.2,0.1-0.3,0.2c-0.1,0.1-0.1,0.1-0.2,0.2
			c0,0.1-0.1,0.1-0.1,0.2v0.1h-0.9c0-0.4,0.2-0.7,0.6-1c0.3-0.3,0.8-0.4,1.3-0.4c0.6,0,1,0.2,1.3,0.5s0.5,0.8,0.5,1.5v1.7
			c0,0.4,0.1,0.6,0.3,0.6c0.1,0,0.1,0,0.2-0.1C130.4,6.4,130.4,6.3,130.5,6.2L130.5,6.2z M126.8,5.8c0,0.3,0.2,0.5,0.5,0.6
			c0.4,0.1,0.7,0,1.1-0.2c0.4-0.2,0.6-0.5,0.6-1V4.8c-0.4,0-0.6,0.1-0.9,0.1c-0.2,0-0.4,0.1-0.7,0.2s-0.4,0.2-0.5,0.3
			C126.9,5.4,126.8,5.6,126.8,5.8z"/>
	</g>
	<line class="st1" x1="17.2" y1="9" x2="0" y2="9"/>
	<line class="st1" x1="80.4" y1="9" x2="20.3" y2="9"/>
	<line class="st1" x1="95.7" y1="9" x2="82" y2="9"/>
	<line class="st1" x1="131" y1="9" x2="99.3" y2="9"/>
</g>
</svg>
