<?xml version="1.0" encoding="utf-8"?>
<!-- Generator: Adobe Illustrator 24.0.0, SVG Export Plug-In . SVG Version: 6.00 Build 0)  -->
<svg version="1.1" id="Layer_1" xmlns="http://www.w3.org/2000/svg" xmlns:xlink="http://www.w3.org/1999/xlink" x="0px" y="0px"
	 width="120.7px" height="8.7px" viewBox="0 0 120.7 8.7" style="enable-background:new 0 0 120.7 8.7;" xml:space="preserve">
<style type="text/css">
	.st0{fill:#FFFFFF;}
</style>
<g>
	<path class="st0" d="M1,2.1v6.2H0V0.4h0.9l4.3,6.2V0.4h1v7.9H5.2L1,2.1z"/>
	<path class="st0" d="M8.1,1c0-0.4,0.3-0.6,0.6-0.6C9,0.4,9.3,0.6,9.3,1S9,1.6,8.7,1.6C8.3,1.6,8.1,1.4,8.1,1z M8.2,2.8h0.9v5.6H8.2
		V2.8z"/>
	<path class="st0" d="M13.3,8.5c-1.5,0-2.7-1.1-2.7-2.9c0-1.7,1.1-2.9,2.6-2.9c1.5,0,2.4,1,2.5,2.5c0,0.2,0,0.4,0,0.5h-4.2
		c0,1.2,0.8,2,1.8,2c0.7,0,1.3-0.3,1.6-0.9l0.7,0.5C15.3,8,14.4,8.5,13.3,8.5z M11.6,4.9h3.2c-0.1-1-0.8-1.5-1.5-1.5
		C12.4,3.5,11.7,4,11.6,4.9z"/>
	<path class="st0" d="M20.8,7.6c-0.3,0.5-0.9,0.9-1.6,0.9c-1.1,0-2-0.7-2-2.2V2.8h0.9v3.4c0,1,0.5,1.4,1.3,1.4
		c0.6,0,1.2-0.5,1.4-1.2V2.8h0.9v5.6h-0.9V7.6z"/>
	<path class="st0" d="M26.4,5.3l-1.2,3h-0.7L23,2.8h0.9l1.1,4l1-2.6h0.8l1,2.6l1.1-4h0.9l-1.5,5.6h-0.7L26.4,5.3z"/>
	<path class="st0" d="M33.7,1c0-0.4,0.3-0.6,0.6-0.6C34.7,0.4,35,0.6,35,1s-0.3,0.6-0.6,0.6C34,1.6,33.7,1.4,33.7,1z M33.9,2.8h0.9
		v5.6h-0.9V2.8z"/>
	<path class="st0" d="M37.8,4.7v3.6h-0.9V2.8h0.9v0.7c0.3-0.5,0.8-0.9,1.7-0.9c1.2,0,2.1,0.7,2.1,2.3v3.4h-0.9V5
		c0-1-0.5-1.5-1.3-1.5C38.6,3.5,38,4,37.8,4.7z"/>
	<path class="st0" d="M48.9,1.3v7.1h-1V1.3h-2.5V0.4h5.9v0.9H48.9z"/>
	<path class="st0" d="M53.9,8.5c-1.5,0-2.7-1.1-2.7-2.9c0-1.7,1.1-2.9,2.6-2.9c1.5,0,2.4,1,2.5,2.5c0,0.2,0,0.4,0,0.5h-4.2
		c0,1.2,0.8,2,1.8,2c0.7,0,1.3-0.3,1.6-0.9l0.7,0.5C55.8,8,54.9,8.5,53.9,8.5z M52.2,4.9h3.2c-0.1-1-0.8-1.5-1.5-1.5
		C53,3.5,52.3,4,52.2,4.9z"/>
	<path class="st0" d="M59.5,6.1L58,8.4h-1l1.9-2.8L57,2.8h1.1l1.4,2.1l1.4-2.1h1l-1.8,2.7L62,8.4H61L59.5,6.1z"/>
	<path class="st0" d="M64.8,8.5c-0.9,0-1.5-0.4-1.5-1.6V3.6h-0.9V2.8h0.9V1.2h0.9v1.6H66v0.8h-1.7v3.2c0,0.6,0.3,0.8,0.7,0.8
		c0.2,0,0.5-0.1,0.7-0.3l0.5,0.6C65.8,8.3,65.3,8.5,64.8,8.5z"/>
	<path class="st0" d="M67.1,1c0-0.4,0.3-0.6,0.6-0.6c0.4,0,0.6,0.3,0.6,0.6s-0.3,0.6-0.6,0.6C67.4,1.6,67.1,1.4,67.1,1z M67.3,2.8
		h0.9v5.6h-0.9V2.8z"/>
	<path class="st0" d="M72.4,8.5c-1.5,0-2.7-1.1-2.7-2.9c0-1.7,1.1-2.9,2.6-2.9c1.5,0,2.4,1,2.5,2.5c0,0.2,0,0.4,0,0.5h-4.2
		c0,1.2,0.8,2,1.8,2c0.7,0,1.3-0.3,1.6-0.9l0.7,0.5C74.3,8,73.5,8.5,72.4,8.5z M70.7,4.9h3.2c-0.1-1-0.8-1.5-1.5-1.5
		C71.5,3.5,70.8,4,70.7,4.9z"/>
	<path class="st0" d="M76.3,0.2h0.9v8.1h-0.9V0.2z"/>
	<path class="st0" d="M80.3,8.4h-1V0.4h1l2.5,3.2l2.5-3.2h1v7.9h-1V1.9l-2.3,2.9h-0.5l-2.3-2.9V8.4z"/>
	<path class="st0" d="M92,7.6c-0.3,0.5-0.9,0.9-1.6,0.9c-1.1,0-2-0.7-2-2.2V2.8h0.9v3.4c0,1,0.5,1.4,1.3,1.4c0.6,0,1.2-0.5,1.4-1.2
		V2.8h0.9v5.6H92V7.6z"/>
	<path class="st0" d="M94.3,6.9l0.8-0.3c0.3,0.7,0.8,1.1,1.5,1.1c0.7,0,1.2-0.3,1.2-0.9c0-0.6-0.6-0.7-1.3-0.9c-1.1-0.2-2-0.5-2-1.6
		c0-1,0.9-1.7,2-1.7c1.1,0,1.8,0.6,2.1,1.4l-0.8,0.3c-0.2-0.6-0.7-0.9-1.3-0.9c-0.7,0-1.2,0.4-1.2,0.9c0,0.6,0.6,0.7,1.3,0.8
		c1.1,0.2,2,0.5,2,1.7c0,1.1-0.9,1.7-2.1,1.7C95.6,8.5,94.6,8,94.3,6.9z"/>
	<path class="st0" d="M102.5,8.5c-1.5,0-2.7-1.1-2.7-2.9c0-1.7,1.1-2.9,2.6-2.9c1.5,0,2.4,1,2.5,2.5c0,0.2,0,0.4,0,0.5h-4.2
		c0,1.2,0.8,2,1.8,2c0.7,0,1.3-0.3,1.6-0.9l0.7,0.5C104.4,8,103.5,8.5,102.5,8.5z M100.7,4.9h3.2c-0.1-1-0.8-1.5-1.5-1.5
		C101.5,3.5,100.8,4,100.7,4.9z"/>
	<path class="st0" d="M109.9,7.6c-0.3,0.5-0.9,0.9-1.6,0.9c-1.1,0-2-0.7-2-2.2V2.8h0.9v3.4c0,1,0.5,1.4,1.3,1.4
		c0.6,0,1.2-0.5,1.4-1.2V2.8h0.9v5.6h-0.9V7.6z"/>
	<path class="st0" d="M113.8,4.7v3.6h-0.9V2.8h0.9v0.7c0.3-0.4,0.8-0.8,1.6-0.8c0.8,0,1.4,0.3,1.7,1c0.4-0.5,1-1,1.8-1
		c1.2,0,1.9,0.7,1.9,2.3v3.4h-0.9V5c0-1-0.4-1.5-1.2-1.5c-0.7,0-1.2,0.5-1.4,1.2c0,0.1,0,0.1,0,0.2v3.4h-0.9V5c0-1-0.4-1.5-1.2-1.5
		C114.5,3.5,114,4,113.8,4.7z"/>
</g>
</svg>
