<?xml version="1.0" encoding="utf-8"?>
<!-- Generator: Adobe Illustrator 24.3.0, SVG Export Plug-In . SVG Version: 6.00 Build 0)  -->
<svg version="1.1" id="Laag_1" xmlns="http://www.w3.org/2000/svg" xmlns:xlink="http://www.w3.org/1999/xlink" x="0px" y="0px"
	 width="47.8px" height="75.6px" viewBox="0 0 47.8 75.6" style="enable-background:new 0 0 47.8 75.6;" xml:space="preserve">
<style type="text/css">
	.st0{fill:#F3B8A0;}
</style>
<g>
	<g>
		<g>
			<path class="st0" d="M38.8,75.6c0,0-0.1,0-0.1,0c-0.1,0-0.1-0.1-0.1-0.2V50.5L31,46.3c-0.1,0-0.1-0.1-0.1-0.2s0-0.2,0.1-0.2
				l7.7-4.2c0.1,0,0.2,0,0.2,0l7.7,4.2c0.1,0,0.1,0.1,0.1,0.2v25.1c0,0.1,0,0.2-0.1,0.2l-7.7,4.2C38.9,75.6,38.8,75.6,38.8,75.6z
				 M31.6,46.1l7.3,4c0.1,0,0.1,0.1,0.1,0.2v24.6l7.2-3.9V46.3l-7.5-4L31.6,46.1z"/>
		</g>
		<g>
			<path class="st0" d="M31.1,71.4c0,0-0.1,0-0.1,0l-7.7-4.2c-0.1,0-0.1-0.1-0.1-0.2V25.3c0-0.1,0-0.2,0.1-0.2l7.7-4.2
				c0.1,0,0.2,0,0.2,0c0.1,0,0.1,0.1,0.1,0.2v50.1c0,0.1,0,0.2-0.1,0.2C31.2,71.4,31.1,71.4,31.1,71.4z M23.6,66.8l7.2,3.9V21.5
				l-7.2,3.9V66.8z"/>
		</g>
		<g>
			<path class="st0" d="M23.4,17.2c0,0-0.1,0-0.1,0L0.1,4.6C0.1,4.6,0,4.5,0,4.4s0.1-0.2,0.1-0.2L7.8,0C7.9,0,8,0,8.1,0l23.1,12.5
				c0.1,0,0.1,0.1,0.1,0.2s0,0.2-0.1,0.2l-7.7,4.2C23.5,17.2,23.4,17.2,23.4,17.2z M0.8,4.4l22.6,12.2l7.2-3.9L8,0.5L0.8,4.4z"/>
		</g>
		<g>
			<path class="st0" d="M8,58.9c0,0-0.1,0-0.1,0c-0.1,0-0.1-0.1-0.1-0.2V16.9c0-0.1,0.1-0.2,0.1-0.2l7.7-4.2c0.1,0,0.2,0,0.2,0
				c0.1,0,0.1,0.1,0.1,0.2v41.7c0,0.1,0,0.2-0.1,0.2l-7.7,4.2C8,58.9,8,58.9,8,58.9z M8.2,17.1v41.2l7.2-3.9V13.2L8.2,17.1z"/>
		</g>
		<g>
			<g>
				<path class="st0" d="M38.8,42.2c-0.1,0-0.1,0-0.2-0.1c-0.1-0.1-0.1-0.2-0.1-0.3c1.9-6.6,1.2-12.3-2-16.3
					c-2.4-3.1-5.5-4.2-5.5-4.2c-0.1,0-0.2-0.1-0.2-0.2s0-0.2,0.1-0.2l7.7-4.2c0.1,0,0.1,0,0.2,0c0.1,0,12.6,4.7,7.9,21.2
					c0,0.1-0.1,0.1-0.1,0.2l-7.7,4.1C38.9,42.2,38.8,42.2,38.8,42.2z M31.7,21.1c2.3,1,11.4,6.2,7.5,20.4l7.1-3.8
					c1.9-6.6,1.2-12.2-2-16.3c-2.2-2.8-4.9-4-5.4-4.2L31.7,21.1z"/>
			</g>
		</g>
	</g>
</g>
</svg>
