<?xml version="1.0" encoding="utf-8"?>
<!-- Generator: Adobe Illustrator 23.0.2, SVG Export Plug-In . SVG Version: 6.00 Build 0)  -->
<svg version="1.1" id="Laag_1" xmlns="http://www.w3.org/2000/svg" xmlns:xlink="http://www.w3.org/1999/xlink" x="0px" y="0px"
	 width="119.6px" height="70.6px" viewBox="0 0 119.6 70.6" style="enable-background:new 0 0 119.6 70.6;" xml:space="preserve">
<style type="text/css">
	.st0{fill:#9E834F;}
	.st1{fill:#FFFFFF;}
	.st2{fill:#E73525;}
</style>
<g>
	<path class="st0" d="M118.9,69.8V51.2h-2.3c0,0.4-0.4,0.8-0.8,0.8c-0.4,0-0.8-0.4-0.8-0.8h-1.6c0,0.4-0.4,0.8-0.8,0.8
		c-0.4,0-0.8-0.4-0.8-0.8h-1.6c0,0.4-0.4,0.8-0.8,0.8c-0.4,0-0.8-0.4-0.8-0.8H107c0,0.4-0.4,0.8-0.8,0.8c-0.4,0-0.8-0.4-0.8-0.8
		h-1.6c0,0.4-0.4,0.8-0.8,0.8c-0.4,0-0.8-0.4-0.8-0.8h-1.6c0,0.4-0.4,0.8-0.8,0.8c-0.4,0-0.8-0.4-0.8-0.8h-1.6
		c0,0.4-0.4,0.8-0.8,0.8c-0.4,0-0.8-0.4-0.8-0.8h-1.6c0,0.4-0.4,0.8-0.8,0.8c-0.4,0-0.8-0.4-0.8-0.8H91c0,0.4-0.4,0.8-0.8,0.8
		c-0.4,0-0.8-0.4-0.8-0.8h-1.6c0,0.4-0.4,0.8-0.8,0.8c-0.4,0-0.8-0.4-0.8-0.8h-1.6c0,0.4-0.4,0.8-0.8,0.8c-0.4,0-0.8-0.4-0.8-0.8
		h-1.6c0,0.4-0.4,0.8-0.8,0.8c-0.4,0-0.8-0.4-0.8-0.8h-1.6c0,0.4-0.4,0.8-0.8,0.8c-0.4,0-0.8-0.4-0.8-0.8h-1.6
		c0,0.4-0.4,0.8-0.8,0.8c-0.4,0-0.8-0.4-0.8-0.8h-1.6c0,0.4-0.4,0.8-0.8,0.8c-0.4,0-0.8-0.4-0.8-0.8h-1.6c0,0.4-0.4,0.8-0.8,0.8
		c-0.4,0-0.8-0.4-0.8-0.8h-1.6c0,0.4-0.4,0.8-0.8,0.8c-0.4,0-0.8-0.4-0.8-0.8H62c0,0.4-0.4,0.8-0.8,0.8c-0.4,0-0.8-0.4-0.8-0.8h-1.6
		c0,0.4-0.4,0.8-0.8,0.8c-0.4,0-0.8-0.4-0.8-0.8h-1.6c0,0.4-0.4,0.8-0.8,0.8c-0.4,0-0.8-0.4-0.8-0.8h-1.6c0,0.4-0.4,0.8-0.8,0.8
		c-0.4,0-0.8-0.4-0.8-0.8h-1.6c0,0.4-0.4,0.8-0.8,0.8c-0.4,0-0.8-0.4-0.8-0.8H46c0,0.4-0.4,0.8-0.8,0.8c-0.4,0-0.8-0.4-0.8-0.8h-1.6
		c0,0.4-0.4,0.8-0.8,0.8c-0.4,0-0.8-0.4-0.8-0.8h-1.6c0,0.4-0.4,0.8-0.8,0.8c-0.4,0-0.8-0.4-0.8-0.8h-1.6c0,0.4-0.4,0.8-0.8,0.8
		c-0.4,0-0.8-0.4-0.8-0.8h-1.6c0,0.4-0.4,0.8-0.8,0.8c-0.4,0-0.8-0.4-0.8-0.8h-1.6c0,0.4-0.4,0.8-0.8,0.8c-0.4,0-0.8-0.4-0.8-0.8
		h-1.6c0,0.4-0.4,0.8-0.8,0.8c-0.4,0-0.8-0.4-0.8-0.8h-1.6c0,0.4-0.4,0.8-0.8,0.8c-0.4,0-0.8-0.4-0.8-0.8h-1.6
		c0,0.4-0.4,0.8-0.8,0.8c-0.4,0-0.8-0.4-0.8-0.8H17c0,0.4-0.4,0.8-0.8,0.8c-0.4,0-0.8-0.4-0.8-0.8h-1.6c0,0.4-0.4,0.8-0.8,0.8
		c-0.4,0-0.8-0.4-0.8-0.8h-1.6c0,0.4-0.4,0.8-0.8,0.8C9.4,52,9,51.7,9,51.2H7.4C7.4,51.7,7,52,6.6,52c-0.4,0-0.8-0.4-0.8-0.8H4.2
		c0,0.4-0.4,0.8-0.8,0.8c-0.4,0-0.8-0.4-0.8-0.8H0.3v14.3c0,0,0,4.3,4.3,4.3H118.9L118.9,69.8z"/>
	<path class="st1" d="M67.6,58v6.7h1.5v-8.5h-1.4l-1.6,1V59L67.6,58L67.6,58z M77.6,64.8v-1.5h-3c0.8-0.7,1.5-1.4,2.1-2.2
		c0.6-0.8,0.8-1.6,0.8-2.3c0-0.7-0.2-1.3-0.7-1.8c-0.5-0.5-1.2-0.7-2.2-0.7c0,0,0,0,0,0c-0.8,0-1.6,0.2-2.4,0.7v1.5
		c0.3-0.2,0.7-0.4,1.1-0.5c0.4-0.1,0.9-0.2,1.3-0.2c0.5,0,0.9,0.1,1.2,0.3c0.2,0.2,0.4,0.4,0.4,0.7c0,0.4-0.1,0.8-0.4,1.3
		c-0.3,0.5-0.6,0.9-1.1,1.4c-0.4,0.4-0.9,0.8-1.3,1.2c-0.4,0.3-0.8,0.7-1.2,1v1.3H77.6L77.6,64.8z"/>
	<polygon class="st1" points="81.2,64.8 81.2,63.4 79.7,63.4 79.7,64.8 81.2,64.8 	"/>
	<path class="st1" d="M90.1,60.6c0-2.9-1.1-4.3-3.3-4.3c-2.2,0-3.3,1.4-3.3,4.3c0,2.9,1.1,4.3,3.3,4.3
		C88.9,64.9,90.1,63.5,90.1,60.6L90.1,60.6z M85,59.2c0.1-0.4,0.2-0.7,0.3-0.9c0.1-0.2,0.3-0.4,0.4-0.5c0.2-0.1,0.3-0.2,0.5-0.2
		c0.2,0,0.3-0.1,0.5-0.1c0.2,0,0.4,0,0.5,0.1c0.2,0,0.3,0.1,0.5,0.2c0.2,0.1,0.3,0.3,0.4,0.5c0.1,0.2,0.2,0.5,0.3,0.9
		c0.1,0.4,0.1,0.8,0.1,1.3c0,0.6-0.1,1.2-0.2,1.6c-0.1,0.4-0.3,0.7-0.4,0.9c-0.2,0.2-0.4,0.3-0.6,0.4c-0.2,0.1-0.4,0.1-0.6,0.1
		c-0.2,0-0.5,0-0.6-0.1c-0.2-0.1-0.4-0.2-0.6-0.4c-0.2-0.2-0.3-0.5-0.4-0.9c-0.1-0.4-0.2-1-0.2-1.6C84.9,60,84.9,59.6,85,59.2
		L85,59.2z M93.2,58v6.7h1.5v-8.5h-1.4l-1.6,1V59L93.2,58L93.2,58z"/>
	<polygon class="st1" points="98.4,64.8 98.4,63.4 96.8,63.4 96.8,64.8 98.4,64.8 	"/>
	<path class="st1" d="M106.1,64.8v-1.5h-3c0.8-0.7,1.5-1.4,2.1-2.2c0.6-0.8,0.8-1.6,0.8-2.3c0-0.7-0.2-1.3-0.7-1.8
		c-0.5-0.5-1.2-0.7-2.2-0.7c0,0,0,0,0,0c-0.8,0-1.6,0.2-2.4,0.7v1.5c0.3-0.2,0.7-0.4,1.1-0.5s0.9-0.2,1.3-0.2c0.5,0,0.9,0.1,1.2,0.3
		c0.2,0.2,0.4,0.4,0.4,0.7c0,0.4-0.1,0.8-0.4,1.3c-0.3,0.5-0.6,0.9-1.1,1.4c-0.4,0.4-0.9,0.8-1.3,1.2c-0.4,0.3-0.8,0.7-1.2,1v1.3
		H106.1L106.1,64.8z M114.3,60.6c0-2.9-1.1-4.3-3.3-4.3c-2.2,0-3.3,1.4-3.3,4.3c0,2.9,1.1,4.3,3.3,4.3
		C113.1,64.9,114.3,63.5,114.3,60.6L114.3,60.6z M109.2,59.2c0.1-0.4,0.2-0.7,0.3-0.9c0.1-0.2,0.3-0.4,0.4-0.5
		c0.2-0.1,0.3-0.2,0.5-0.2c0.2,0,0.3-0.1,0.5-0.1c0.2,0,0.4,0,0.5,0.1c0.2,0,0.3,0.1,0.5,0.2c0.2,0.1,0.3,0.3,0.4,0.5
		c0.1,0.2,0.2,0.5,0.3,0.9c0.1,0.4,0.1,0.8,0.1,1.3c0,0.6-0.1,1.2-0.2,1.6c-0.1,0.4-0.3,0.7-0.4,0.9c-0.2,0.2-0.4,0.3-0.6,0.4
		c-0.2,0.1-0.4,0.1-0.6,0.1c-0.2,0-0.5,0-0.6-0.1c-0.2-0.1-0.4-0.2-0.6-0.4c-0.2-0.2-0.3-0.5-0.4-0.9c-0.1-0.4-0.2-1-0.2-1.6
		C109.1,60,109.1,59.6,109.2,59.2L109.2,59.2z"/>
	<polygon class="st1" points="64,61.7 64,60.5 54.7,60.5 54.7,61.7 64,61.7 	"/>
	<path class="st1" d="M43,58v6.7h1.5v-8.5h-1.4l-1.6,1V59L43,58L43,58z M47.3,61.2c0.5,0.5,1.2,0.7,2.1,0.7c0.7,0,1.2-0.1,1.5-0.4
		c-0.1,0.4-0.2,0.7-0.4,1c-0.2,0.3-0.4,0.5-0.7,0.6c-0.3,0.1-0.5,0.2-0.7,0.3c-0.2,0.1-0.4,0.1-0.6,0.1c-0.6,0-1-0.1-1.4-0.2v1.3
		c0.6,0.2,1,0.3,1.5,0.3c0.3,0,0.6,0,0.9-0.1c0.3,0,0.6-0.2,1-0.4c0.4-0.2,0.7-0.4,1-0.8c0.3-0.3,0.5-0.8,0.7-1.4
		c0.2-0.6,0.3-1.3,0.3-2.1c0-2.7-1-4-3-4c-0.5,0-1,0.1-1.4,0.3c-0.4,0.2-0.7,0.4-0.9,0.7c-0.2,0.3-0.4,0.6-0.5,0.9
		c-0.1,0.3-0.2,0.7-0.2,1C46.6,60,46.8,60.7,47.3,61.2L47.3,61.2z M48.1,58.7c0-0.1,0.1-0.3,0.2-0.5c0.1-0.2,0.2-0.4,0.5-0.5
		c0.2-0.1,0.5-0.2,0.8-0.2c0.2,0,0.3,0,0.5,0.1c0.2,0.1,0.3,0.2,0.5,0.4c0.2,0.2,0.3,0.4,0.4,0.8c0.1,0.3,0.1,0.7,0.1,1.1
		c0,0.1,0,0.2,0,0.2c-0.4,0.3-0.9,0.4-1.5,0.4c-0.5,0-0.8-0.1-1.1-0.4c-0.3-0.3-0.4-0.6-0.4-1C48.1,59,48.1,58.9,48.1,58.7
		L48.1,58.7z"/>
	<polygon class="st1" points="39.4,64.8 39.4,63.4 37.8,63.4 37.8,64.8 39.4,64.8 	"/>
	<path class="st1" d="M28.1,60.6c0-2.9-1.1-4.3-3.3-4.3c-2.2,0-3.3,1.4-3.3,4.3c0,2.9,1.1,4.3,3.3,4.3C27,64.9,28.1,63.5,28.1,60.6
		L28.1,60.6z M23.1,59.2c0.1-0.4,0.2-0.7,0.3-0.9c0.1-0.2,0.3-0.4,0.4-0.5c0.2-0.1,0.3-0.2,0.5-0.2c0.2,0,0.3-0.1,0.5-0.1
		c0.2,0,0.4,0,0.5,0.1c0.2,0,0.3,0.1,0.5,0.2c0.2,0.1,0.3,0.3,0.4,0.5c0.1,0.2,0.2,0.5,0.3,0.9c0.1,0.4,0.1,0.8,0.1,1.3
		c0,0.6-0.1,1.2-0.2,1.6c-0.1,0.4-0.3,0.7-0.4,0.9c-0.2,0.2-0.4,0.3-0.6,0.4c-0.2,0.1-0.4,0.1-0.6,0.1c-0.2,0-0.5,0-0.6-0.1
		c-0.2-0.1-0.4-0.2-0.6-0.4c-0.2-0.2-0.3-0.5-0.4-0.9c-0.1-0.4-0.2-1-0.2-1.6C23,60,23,59.6,23.1,59.2L23.1,59.2z M30.4,61.2
		c0.5,0.5,1.2,0.7,2.1,0.7c0.7,0,1.2-0.1,1.5-0.4c-0.1,0.4-0.2,0.7-0.4,1c-0.2,0.3-0.4,0.5-0.7,0.6c-0.3,0.1-0.5,0.2-0.7,0.3
		c-0.2,0.1-0.4,0.1-0.6,0.1c-0.6,0-1-0.1-1.4-0.2v1.3c0.6,0.2,1,0.3,1.5,0.3c0.3,0,0.6,0,0.9-0.1c0.3,0,0.6-0.2,1-0.4
		c0.4-0.2,0.7-0.4,1-0.8c0.3-0.3,0.5-0.8,0.7-1.4c0.2-0.6,0.3-1.3,0.3-2.1c0-2.7-1-4-3-4c-0.5,0-1,0.1-1.4,0.3
		c-0.4,0.2-0.7,0.4-0.9,0.7c-0.2,0.3-0.4,0.6-0.5,0.9c-0.1,0.3-0.2,0.7-0.2,1C29.7,60,29.9,60.7,30.4,61.2L30.4,61.2z M31.3,58.7
		c0-0.1,0.1-0.3,0.2-0.5c0.1-0.2,0.2-0.4,0.5-0.5c0.2-0.1,0.5-0.2,0.8-0.2c0.2,0,0.3,0,0.5,0.1c0.2,0.1,0.3,0.2,0.5,0.4
		c0.2,0.2,0.3,0.4,0.4,0.8c0.1,0.3,0.1,0.7,0.1,1.1c0,0.1,0,0.2,0,0.2c-0.4,0.3-0.9,0.4-1.5,0.4c-0.5,0-0.8-0.1-1.1-0.4
		c-0.3-0.3-0.4-0.6-0.4-1C31.2,59,31.2,58.9,31.3,58.7L31.3,58.7z"/>
	<polygon class="st1" points="19.3,64.8 19.3,63.4 17.8,63.4 17.8,64.8 19.3,64.8 	"/>
	<path class="st1" d="M10.6,64.8v-1.5h-3c0.8-0.7,1.5-1.4,2.1-2.2c0.6-0.8,0.8-1.6,0.8-2.3c0-0.7-0.2-1.3-0.7-1.8
		c-0.5-0.5-1.2-0.7-2.2-0.7c0,0,0,0,0,0c-0.8,0-1.6,0.2-2.4,0.7v1.5c0.3-0.2,0.7-0.4,1.1-0.5c0.4-0.1,0.9-0.2,1.3-0.2
		c0.5,0,0.9,0.1,1.2,0.3c0.2,0.2,0.4,0.4,0.4,0.7c0,0.4-0.1,0.8-0.4,1.3c-0.3,0.5-0.6,0.9-1.1,1.4c-0.4,0.4-0.9,0.8-1.3,1.2
		c-0.4,0.3-0.8,0.7-1.2,1v1.3H10.6L10.6,64.8z M14.1,58v6.7h1.5v-8.5h-1.4l-1.6,1V59L14.1,58L14.1,58z"/>
	<path class="st2" d="M118.9,19.3V5c0,0,0-4.3-4.3-4.3H0.3v18.6h2.3c0,0,0,0,0,0c0-0.4,0.4-0.8,0.8-0.8c0.4,0,0.8,0.4,0.8,0.8
		c0,0,0,0,0,0h1.6c0,0,0,0,0,0c0-0.4,0.4-0.8,0.8-0.8c0.4,0,0.8,0.4,0.8,0.8c0,0,0,0,0,0H9c0,0,0,0,0,0c0-0.4,0.4-0.8,0.8-0.8
		c0.4,0,0.8,0.4,0.8,0.8c0,0,0,0,0,0h1.6c0,0,0,0,0,0c0-0.4,0.4-0.8,0.8-0.8s0.8,0.4,0.8,0.8c0,0,0,0,0,0h1.6c0,0,0,0,0,0
		c0-0.4,0.4-0.8,0.8-0.8c0.4,0,0.8,0.4,0.8,0.8c0,0,0,0,0,0h1.6c0,0,0,0,0,0c0-0.4,0.4-0.8,0.8-0.8c0.4,0,0.8,0.4,0.8,0.8
		c0,0,0,0,0,0h1.6c0,0,0,0,0,0c0-0.4,0.4-0.8,0.8-0.8c0.4,0,0.8,0.4,0.8,0.8c0,0,0,0,0,0h1.6c0,0,0,0,0,0c0-0.4,0.4-0.8,0.8-0.8
		s0.8,0.4,0.8,0.8c0,0,0,0,0,0h1.6c0,0,0,0,0,0c0-0.4,0.4-0.8,0.8-0.8c0.4,0,0.8,0.4,0.8,0.8c0,0,0,0,0,0h1.6c0,0,0,0,0,0
		c0-0.4,0.4-0.8,0.8-0.8c0.4,0,0.8,0.4,0.8,0.8c0,0,0,0,0,0h1.6c0,0,0,0,0,0c0-0.4,0.4-0.8,0.8-0.8c0.4,0,0.8,0.4,0.8,0.8
		c0,0,0,0,0,0h1.6c0,0,0,0,0,0c0-0.4,0.4-0.8,0.8-0.8c0.4,0,0.8,0.4,0.8,0.8c0,0,0,0,0,0h1.6c0,0,0,0,0,0c0-0.4,0.4-0.8,0.8-0.8
		c0.4,0,0.8,0.4,0.8,0.8c0,0,0,0,0,0h1.6c0,0,0,0,0,0c0-0.4,0.4-0.8,0.8-0.8c0.4,0,0.8,0.4,0.8,0.8c0,0,0,0,0,0h1.6c0,0,0,0,0,0
		c0-0.4,0.4-0.8,0.8-0.8c0.4,0,0.8,0.4,0.8,0.8c0,0,0,0,0,0h1.6c0,0,0,0,0,0c0-0.4,0.4-0.8,0.8-0.8s0.8,0.4,0.8,0.8c0,0,0,0,0,0H54
		c0,0,0,0,0,0c0-0.4,0.4-0.8,0.8-0.8c0.4,0,0.8,0.4,0.8,0.8c0,0,0,0,0,0h1.6c0,0,0,0,0,0c0-0.4,0.4-0.8,0.8-0.8
		c0.4,0,0.8,0.4,0.8,0.8c0,0,0,0,0,0h1.6c0,0,0,0,0,0c0-0.4,0.4-0.8,0.8-0.8c0.4,0,0.8,0.4,0.8,0.8c0,0,0,0,0,0h1.6c0,0,0,0,0,0
		c0-0.4,0.4-0.8,0.8-0.8c0.4,0,0.8,0.4,0.8,0.8c0,0,0,0,0,0h1.6c0,0,0,0,0,0c0-0.4,0.4-0.8,0.8-0.8c0.4,0,0.8,0.4,0.8,0.8
		c0,0,0,0,0,0h1.6c0,0,0,0,0,0c0-0.4,0.4-0.8,0.8-0.8c0.4,0,0.8,0.4,0.8,0.8c0,0,0,0,0,0h1.6c0,0,0,0,0,0c0-0.4,0.4-0.8,0.8-0.8
		c0.4,0,0.8,0.4,0.8,0.8c0,0,0,0,0,0h1.6c0,0,0,0,0,0c0-0.4,0.4-0.8,0.8-0.8c0.4,0,0.8,0.4,0.8,0.8c0,0,0,0,0,0h1.6c0,0,0,0,0,0
		c0-0.4,0.4-0.8,0.8-0.8c0.4,0,0.8,0.4,0.8,0.8c0,0,0,0,0,0h1.6c0,0,0,0,0,0c0-0.4,0.4-0.8,0.8-0.8c0.4,0,0.8,0.4,0.8,0.8
		c0,0,0,0,0,0h1.6c0,0,0,0,0,0c0-0.4,0.4-0.8,0.8-0.8c0.4,0,0.8,0.4,0.8,0.8c0,0,0,0,0,0h1.6c0,0,0,0,0,0c0-0.4,0.4-0.8,0.8-0.8
		c0.4,0,0.8,0.4,0.8,0.8c0,0,0,0,0,0h1.6c0,0,0,0,0,0c0-0.4,0.4-0.8,0.8-0.8c0.4,0,0.8,0.4,0.8,0.8c0,0,0,0,0,0h1.6c0,0,0,0,0,0
		c0-0.4,0.4-0.8,0.8-0.8c0.4,0,0.8,0.4,0.8,0.8c0,0,0,0,0,0H99c0,0,0,0,0,0c0-0.4,0.4-0.8,0.8-0.8c0.4,0,0.8,0.4,0.8,0.8
		c0,0,0,0,0,0h1.6c0,0,0,0,0,0c0-0.4,0.4-0.8,0.8-0.8c0.4,0,0.8,0.4,0.8,0.8c0,0,0,0,0,0h1.6c0,0,0,0,0,0c0-0.4,0.4-0.8,0.8-0.8
		c0.4,0,0.8,0.4,0.8,0.8c0,0,0,0,0,0h1.6c0,0,0,0,0,0c0-0.4,0.4-0.8,0.8-0.8c0.4,0,0.8,0.4,0.8,0.8c0,0,0,0,0,0h1.6c0,0,0,0,0,0
		c0-0.4,0.4-0.8,0.8-0.8c0.4,0,0.8,0.4,0.8,0.8c0,0,0,0,0,0h1.6c0,0,0,0,0,0c0-0.4,0.4-0.8,0.8-0.8c0.4,0,0.8,0.4,0.8,0.8
		c0,0,0,0,0,0H118.9L118.9,19.3z"/>
	<path class="st1" d="M5,11.7c0.1,0.5,0.3,0.8,0.6,1.1C5.7,13,6,13.3,6.3,13.4c0.3,0.2,0.6,0.3,0.9,0.3c0.3,0.1,0.6,0.1,1,0.1
		c0.4,0,0.7,0,1-0.1c0.3-0.1,0.6-0.2,0.9-0.3c0.3-0.2,0.6-0.4,0.8-0.7c0.2-0.3,0.4-0.6,0.6-1.1c0.1-0.5,0.2-1,0.2-1.6
		c0-0.6-0.1-1.2-0.2-1.6C11.4,8,11.2,7.6,11,7.3c-0.2-0.3-0.5-0.5-0.8-0.7C9.8,6.5,9.5,6.4,9.2,6.3c-0.3-0.1-0.6-0.1-1-0.1
		c-0.4,0-0.7,0-1,0.1C7,6.4,6.7,6.5,6.3,6.6C6,6.8,5.7,7,5.5,7.3C5.3,7.6,5.1,8,5,8.4c-0.1,0.5-0.2,1-0.2,1.6
		C4.8,10.7,4.8,11.2,5,11.7L5,11.7z M6.2,8.9c0.1-0.3,0.2-0.6,0.3-0.8C6.7,7.9,6.8,7.8,7,7.7c0.2-0.1,0.4-0.2,0.6-0.2
		c0.2,0,0.4,0,0.7,0c0.3,0,0.6,0,0.8,0.1c0.2,0.1,0.4,0.2,0.7,0.3C10,8,10.1,8.3,10.2,8.6c0.1,0.4,0.2,0.8,0.2,1.4
		c0,0.4,0,0.8-0.1,1.2c-0.1,0.3-0.2,0.6-0.3,0.8c-0.1,0.2-0.3,0.3-0.5,0.4c-0.2,0.1-0.4,0.2-0.6,0.2c-0.2,0-0.4,0-0.7,0
		c-0.3,0-0.6,0-0.8-0.1c-0.2-0.1-0.5-0.2-0.7-0.4c-0.2-0.2-0.4-0.4-0.5-0.8c-0.1-0.4-0.2-0.8-0.2-1.4C6.1,9.6,6.1,9.2,6.2,8.9
		L6.2,8.9z M14.6,13.8V8.2l3.9,5.6H20V6.3h-1.3v5.6l-3.9-5.6h-1.5v7.5H14.6L14.6,13.8z M26.8,13.8v-1.2h-3.6v-1.9h3.2V9.4h-3.2V7.5
		h3.6V6.3h-5v7.5H26.8L26.8,13.8z M33.8,13.8h1.4l1.7-5.2l1.7,5.2h1.3l2.4-7.5h-1.3l-1.7,5.5l-1.8-5.5h-1.2l-1.8,5.6l-1.7-5.6h-1.3
		L33.8,13.8L33.8,13.8z M43.4,13.8L44,12h3.2l0.7,1.8h1.4l-3-7.5h-1.5l-3,7.5H43.4L43.4,13.8z M45.6,7.8l1.1,2.9h-2.2L45.6,7.8
		L45.6,7.8z M51.4,10.6v3.2h1.3v-3.2l2.9-4.3h-1.6l-2,3l-2-3h-1.6L51.4,10.6L51.4,10.6z M62.2,7.6v6.1h1.3V7.6h2.4V6.3h-6.1v1.3
		H62.2L62.2,7.6z M68.3,13.8V6.3H67v7.5H68.3L68.3,13.8z M70.6,12.8c0.2,0.3,0.5,0.5,0.8,0.7c0.3,0.2,0.6,0.3,0.9,0.3
		c0.3,0.1,0.6,0.1,1,0.1c0.8,0,1.5-0.1,2.3-0.4v-1.3c-0.7,0.3-1.4,0.5-2.1,0.5c-0.3,0-0.6,0-0.9-0.1c-0.2-0.1-0.5-0.2-0.7-0.3
		c-0.2-0.2-0.4-0.4-0.5-0.8c-0.1-0.4-0.2-0.8-0.2-1.4c0-0.6,0.1-1,0.2-1.4c0.1-0.4,0.3-0.6,0.5-0.8c0.2-0.2,0.5-0.3,0.7-0.3
		c0.2-0.1,0.5-0.1,0.9-0.1c0.7,0,1.4,0.2,2.1,0.5V6.6c-0.7-0.3-1.5-0.4-2.3-0.4c-0.4,0-0.7,0-1,0.1c-0.3,0.1-0.6,0.2-0.9,0.3
		c-0.3,0.2-0.6,0.4-0.8,0.7C70.4,7.6,70.2,8,70,8.4c-0.1,0.5-0.2,1-0.2,1.6c0,0.6,0.1,1.2,0.2,1.6C70.2,12.1,70.4,12.5,70.6,12.8
		L70.6,12.8z M78.4,13.8v-2.4l0.8-0.8l2.5,3.2h1.7L80,9.6l3-3.3h-1.8l-2.8,3.2V6.3h-1.3v7.5H78.4L78.4,13.8z M89.6,13.8v-1.2h-3.6
		v-1.9h3.2V9.4h-3.2V7.5h3.6V6.3h-5v7.5H89.6L89.6,13.8z M92.9,7.6v6.1h1.3V7.6h2.4V6.3h-6.1v1.3H92.9L92.9,7.6z M103.1,7.6v6.1h1.3
		V7.6h2.4V6.3h-6.1v1.3H103.1L103.1,7.6z M107.7,11.7c0.1,0.5,0.3,0.8,0.6,1.1c0.2,0.3,0.5,0.5,0.8,0.7c0.3,0.2,0.6,0.3,0.9,0.3
		c0.3,0.1,0.6,0.1,1,0.1c0.4,0,0.7,0,1-0.1c0.3-0.1,0.6-0.2,0.9-0.3c0.3-0.2,0.6-0.4,0.8-0.7c0.2-0.3,0.4-0.6,0.6-1.1
		c0.1-0.5,0.2-1,0.2-1.6c0-0.6-0.1-1.2-0.2-1.6c-0.1-0.5-0.3-0.8-0.6-1.1c-0.2-0.3-0.5-0.5-0.8-0.7c-0.3-0.2-0.6-0.3-0.9-0.3
		c-0.3-0.1-0.6-0.1-1-0.1c-0.4,0-0.7,0-1,0.1c-0.3,0.1-0.6,0.2-0.9,0.3c-0.3,0.2-0.6,0.4-0.8,0.7c-0.2,0.3-0.4,0.6-0.6,1.1
		c-0.1,0.5-0.2,1-0.2,1.6C107.5,10.7,107.6,11.2,107.7,11.7L107.7,11.7z M109,8.9c0.1-0.3,0.2-0.6,0.3-0.8c0.1-0.2,0.3-0.3,0.5-0.4
		c0.2-0.1,0.4-0.2,0.6-0.2c0.2,0,0.4,0,0.7,0c0.3,0,0.6,0,0.8,0.1c0.2,0.1,0.4,0.2,0.7,0.3c0.2,0.2,0.4,0.4,0.5,0.8
		c0.1,0.4,0.2,0.8,0.2,1.4c0,0.4,0,0.8-0.1,1.2c-0.1,0.3-0.2,0.6-0.3,0.8c-0.1,0.2-0.3,0.3-0.5,0.4c-0.2,0.1-0.4,0.2-0.6,0.2
		c-0.2,0-0.4,0-0.7,0c-0.3,0-0.6,0-0.8-0.1c-0.2-0.1-0.5-0.2-0.7-0.4c-0.2-0.2-0.4-0.4-0.5-0.8c-0.1-0.4-0.2-0.8-0.2-1.4
		C108.8,9.6,108.9,9.2,109,8.9L109,8.9z"/>
	<path class="st2" d="M118.9,51.2V19.3h-2.3c0,0.4-0.4,0.8-0.8,0.8c-0.4,0-0.8-0.4-0.8-0.8h-1.6c0,0.4-0.4,0.8-0.8,0.8
		c-0.4,0-0.8-0.4-0.8-0.8h-1.6c0,0.4-0.4,0.8-0.8,0.8c-0.4,0-0.8-0.4-0.8-0.8H107c0,0.4-0.4,0.8-0.8,0.8c-0.4,0-0.8-0.4-0.8-0.8
		h-1.6c0,0.4-0.4,0.8-0.8,0.8c-0.4,0-0.8-0.4-0.8-0.8h-1.6c0,0.4-0.4,0.8-0.8,0.8c-0.4,0-0.8-0.4-0.8-0.8h-1.6
		c0,0.4-0.4,0.8-0.8,0.8c-0.4,0-0.8-0.4-0.8-0.8h-1.6c0,0.4-0.4,0.8-0.8,0.8c-0.4,0-0.8-0.4-0.8-0.8H91c0,0.4-0.4,0.8-0.8,0.8
		c-0.4,0-0.8-0.4-0.8-0.8h-1.6c0,0.4-0.4,0.8-0.8,0.8c-0.4,0-0.8-0.4-0.8-0.8h-1.6c0,0.4-0.4,0.8-0.8,0.8c-0.4,0-0.8-0.4-0.8-0.8
		h-1.6c0,0.4-0.4,0.8-0.8,0.8c-0.4,0-0.8-0.4-0.8-0.8h-1.6c0,0.4-0.4,0.8-0.8,0.8c-0.4,0-0.8-0.4-0.8-0.8h-1.6
		c0,0.4-0.4,0.8-0.8,0.8c-0.4,0-0.8-0.4-0.8-0.8h-1.6c0,0.4-0.4,0.8-0.8,0.8c-0.4,0-0.8-0.4-0.8-0.8h-1.6c0,0.4-0.4,0.8-0.8,0.8
		c-0.4,0-0.8-0.4-0.8-0.8h-1.6c0,0.4-0.4,0.8-0.8,0.8c-0.4,0-0.8-0.4-0.8-0.8H62c0,0.4-0.4,0.8-0.8,0.8c-0.4,0-0.8-0.4-0.8-0.8h-1.6
		c0,0.4-0.4,0.8-0.8,0.8c-0.4,0-0.8-0.4-0.8-0.8h-1.6c0,0.4-0.4,0.8-0.8,0.8c-0.4,0-0.8-0.4-0.8-0.8h-1.6c0,0.4-0.4,0.8-0.8,0.8
		c-0.4,0-0.8-0.4-0.8-0.8h-1.6c0,0.4-0.4,0.8-0.8,0.8c-0.4,0-0.8-0.4-0.8-0.8H46c0,0.4-0.4,0.8-0.8,0.8c-0.4,0-0.8-0.4-0.8-0.8h-1.6
		c0,0.4-0.4,0.8-0.8,0.8c-0.4,0-0.8-0.4-0.8-0.8h-1.6c0,0.4-0.4,0.8-0.8,0.8c-0.4,0-0.8-0.4-0.8-0.8h-1.6c0,0.4-0.4,0.8-0.8,0.8
		c-0.4,0-0.8-0.4-0.8-0.8h-1.6c0,0.4-0.4,0.8-0.8,0.8c-0.4,0-0.8-0.4-0.8-0.8h-1.6c0,0.4-0.4,0.8-0.8,0.8c-0.4,0-0.8-0.4-0.8-0.8
		h-1.6c0,0.4-0.4,0.8-0.8,0.8c-0.4,0-0.8-0.4-0.8-0.8h-1.6c0,0.4-0.4,0.8-0.8,0.8c-0.4,0-0.8-0.4-0.8-0.8h-1.6
		c0,0.4-0.4,0.8-0.8,0.8c-0.4,0-0.8-0.4-0.8-0.8H17c0,0.4-0.4,0.8-0.8,0.8c-0.4,0-0.8-0.4-0.8-0.8h-1.6c0,0.4-0.4,0.8-0.8,0.8
		c-0.4,0-0.8-0.4-0.8-0.8h-1.6c0,0.4-0.4,0.8-0.8,0.8c-0.4,0-0.8-0.4-0.8-0.8H7.4c0,0.4-0.4,0.8-0.8,0.8c-0.4,0-0.8-0.4-0.8-0.8H4.2
		c0,0.4-0.4,0.8-0.8,0.8c-0.4,0-0.8-0.4-0.8-0.8H0.3v31.9h2.3c0,0,0,0,0,0c0-0.4,0.4-0.8,0.8-0.8c0.4,0,0.8,0.4,0.8,0.8c0,0,0,0,0,0
		h1.6c0,0,0,0,0,0c0-0.4,0.4-0.8,0.8-0.8c0.4,0,0.8,0.4,0.8,0.8c0,0,0,0,0,0H9c0,0,0,0,0,0c0-0.4,0.4-0.8,0.8-0.8
		c0.4,0,0.8,0.4,0.8,0.8c0,0,0,0,0,0h1.6c0,0,0,0,0,0c0-0.4,0.4-0.8,0.8-0.8s0.8,0.4,0.8,0.8c0,0,0,0,0,0h1.6c0,0,0,0,0,0
		c0-0.4,0.4-0.8,0.8-0.8c0.4,0,0.8,0.4,0.8,0.8c0,0,0,0,0,0h1.6c0,0,0,0,0,0c0-0.4,0.4-0.8,0.8-0.8c0.4,0,0.8,0.4,0.8,0.8
		c0,0,0,0,0,0h1.6c0,0,0,0,0,0c0-0.4,0.4-0.8,0.8-0.8c0.4,0,0.8,0.4,0.8,0.8c0,0,0,0,0,0h1.6c0,0,0,0,0,0c0-0.4,0.4-0.8,0.8-0.8
		s0.8,0.4,0.8,0.8c0,0,0,0,0,0h1.6c0,0,0,0,0,0c0-0.4,0.4-0.8,0.8-0.8c0.4,0,0.8,0.4,0.8,0.8c0,0,0,0,0,0h1.6c0,0,0,0,0,0
		c0-0.4,0.4-0.8,0.8-0.8c0.4,0,0.8,0.4,0.8,0.8c0,0,0,0,0,0h1.6c0,0,0,0,0,0c0-0.4,0.4-0.8,0.8-0.8c0.4,0,0.8,0.4,0.8,0.8
		c0,0,0,0,0,0h1.6c0,0,0,0,0,0c0-0.4,0.4-0.8,0.8-0.8c0.4,0,0.8,0.4,0.8,0.8c0,0,0,0,0,0h1.6c0,0,0,0,0,0c0-0.4,0.4-0.8,0.8-0.8
		c0.4,0,0.8,0.4,0.8,0.8c0,0,0,0,0,0h1.6c0,0,0,0,0,0c0-0.4,0.4-0.8,0.8-0.8c0.4,0,0.8,0.4,0.8,0.8c0,0,0,0,0,0h1.6c0,0,0,0,0,0
		c0-0.4,0.4-0.8,0.8-0.8c0.4,0,0.8,0.4,0.8,0.8c0,0,0,0,0,0h1.6c0,0,0,0,0,0c0-0.4,0.4-0.8,0.8-0.8s0.8,0.4,0.8,0.8c0,0,0,0,0,0H54
		c0,0,0,0,0,0c0-0.4,0.4-0.8,0.8-0.8c0.4,0,0.8,0.4,0.8,0.8c0,0,0,0,0,0h1.6c0,0,0,0,0,0c0-0.4,0.4-0.8,0.8-0.8
		c0.4,0,0.8,0.4,0.8,0.8c0,0,0,0,0,0h1.6c0,0,0,0,0,0c0-0.4,0.4-0.8,0.8-0.8c0.4,0,0.8,0.4,0.8,0.8c0,0,0,0,0,0h1.6c0,0,0,0,0,0
		c0-0.4,0.4-0.8,0.8-0.8c0.4,0,0.8,0.4,0.8,0.8c0,0,0,0,0,0h1.6c0,0,0,0,0,0c0-0.4,0.4-0.8,0.8-0.8c0.4,0,0.8,0.4,0.8,0.8
		c0,0,0,0,0,0h1.6c0,0,0,0,0,0c0-0.4,0.4-0.8,0.8-0.8c0.4,0,0.8,0.4,0.8,0.8c0,0,0,0,0,0h1.6c0,0,0,0,0,0c0-0.4,0.4-0.8,0.8-0.8
		c0.4,0,0.8,0.4,0.8,0.8c0,0,0,0,0,0h1.6c0,0,0,0,0,0c0-0.4,0.4-0.8,0.8-0.8c0.4,0,0.8,0.4,0.8,0.8c0,0,0,0,0,0h1.6c0,0,0,0,0,0
		c0-0.4,0.4-0.8,0.8-0.8c0.4,0,0.8,0.4,0.8,0.8c0,0,0,0,0,0h1.6c0,0,0,0,0,0c0-0.4,0.4-0.8,0.8-0.8c0.4,0,0.8,0.4,0.8,0.8
		c0,0,0,0,0,0h1.6c0,0,0,0,0,0c0-0.4,0.4-0.8,0.8-0.8c0.4,0,0.8,0.4,0.8,0.8c0,0,0,0,0,0h1.6c0,0,0,0,0,0c0-0.4,0.4-0.8,0.8-0.8
		c0.4,0,0.8,0.4,0.8,0.8c0,0,0,0,0,0h1.6c0,0,0,0,0,0c0-0.4,0.4-0.8,0.8-0.8c0.4,0,0.8,0.4,0.8,0.8c0,0,0,0,0,0h1.6c0,0,0,0,0,0
		c0-0.4,0.4-0.8,0.8-0.8c0.4,0,0.8,0.4,0.8,0.8c0,0,0,0,0,0H99c0,0,0,0,0,0c0-0.4,0.4-0.8,0.8-0.8c0.4,0,0.8,0.4,0.8,0.8
		c0,0,0,0,0,0h1.6c0,0,0,0,0,0c0-0.4,0.4-0.8,0.8-0.8c0.4,0,0.8,0.4,0.8,0.8c0,0,0,0,0,0h1.6c0,0,0,0,0,0c0-0.4,0.4-0.8,0.8-0.8
		c0.4,0,0.8,0.4,0.8,0.8c0,0,0,0,0,0h1.6c0,0,0,0,0,0c0-0.4,0.4-0.8,0.8-0.8c0.4,0,0.8,0.4,0.8,0.8c0,0,0,0,0,0h1.6c0,0,0,0,0,0
		c0-0.4,0.4-0.8,0.8-0.8c0.4,0,0.8,0.4,0.8,0.8c0,0,0,0,0,0h1.6c0,0,0,0,0,0c0-0.4,0.4-0.8,0.8-0.8c0.4,0,0.8,0.4,0.8,0.8
		c0,0,0,0,0,0H118.9L118.9,51.2z"/>
	<path class="st1" d="M100.2,33.9c0.4,0.8,0.8,1.4,1.4,1.8c0.6,0.4,1.2,0.8,1.9,1.1c0.7,0.3,1.4,0.5,2.1,0.7l1.9,0.5
		c0.6,0.2,1,0.4,1.4,0.6c0.4,0.3,0.5,0.6,0.5,1c0,0.6-0.3,1-0.9,1.3c-0.6,0.3-1.3,0.5-2.1,0.5c0,0,0,0,0,0c-2.4,0-4.5-0.8-6.5-2.4
		V44c2,1.3,4.4,2,7.3,2c2.1,0,3.9-0.6,5.4-1.7c1.5-1.1,2.2-2.6,2.2-4.5c0-1.3-0.2-2.5-0.7-3.4c-0.5-0.9-1.1-1.6-1.8-2.1
		c-0.7-0.4-1.5-0.8-2.3-1.1c-0.8-0.3-1.6-0.5-2.3-0.7c-0.7-0.1-1.3-0.3-1.8-0.6c-0.5-0.3-0.7-0.6-0.7-1c0-0.6,0.3-1.1,1-1.4
		c0.6-0.3,1.4-0.4,2.2-0.4c1.6,0,3.2,0.5,4.9,1.5V26c-1.8-1-3.7-1.4-5.7-1.4c-2.2,0-4.1,0.5-5.6,1.6c-1.5,1.1-2.2,2.7-2.2,4.9
		C99.6,32.1,99.8,33.1,100.2,33.9L100.2,33.9z"/>
	<polygon class="st1" points="9.9,45.8 9.9,32.8 14.8,39.8 19.6,32.8 19.6,45.8 25.1,45.8 25.1,24.8 19.7,24.8 14.8,31.9 9.8,24.8 
		4.5,24.8 4.5,45.8 9.9,45.8 	"/>
	<path class="st1" d="M48.5,35.3h-5.8c0.3-2.8,1.1-4.6,2.9-6.2C47.4,30.7,48.2,32.4,48.5,35.3L48.5,35.3z M48.6,45.8h5v-7.5
		c0-6-1.2-10-6-13.5h-4c-4.8,3.4-6,7.5-6,13.5v7.5h5v-6h6V45.8L48.6,45.8z"/>
	<path class="st1" d="M73,45.8v-7h2.2l3.9,7h6.1L80.1,38c1.3-0.4,2.3-1.2,3.1-2.3c0.8-1.1,1.2-2.5,1.2-4.1c0-2.2-0.8-3.8-2.3-5
		c-1.5-1.2-3.6-1.8-6.2-1.8h-8.3v21H73L73,45.8z M73,29.2h3.2c0.7,0,1.4,0.3,1.9,0.8c0.5,0.5,0.8,1.2,0.8,2c0,0.8-0.3,1.5-0.8,2
		c-0.5,0.5-1.2,0.8-1.9,0.8H73V29.2L73,29.2z"/>
</g>
</svg>
