<?xml version="1.0" encoding="utf-8"?>
<!-- Generator: Adobe Illustrator 24.0.0, SVG Export Plug-In . SVG Version: 6.00 Build 0)  -->
<svg version="1.1" id="Laag_1" xmlns="http://www.w3.org/2000/svg" xmlns:xlink="http://www.w3.org/1999/xlink" x="0px" y="0px"
	 width="81.3px" height="49px" viewBox="0 0 81.3 49" style="enable-background:new 0 0 81.3 49;" xml:space="preserve">
<style type="text/css">
	.st0{fill:#FFFFFF;}
</style>
<g>
	<path class="st0" d="M27.9,15l-3.6-8.9l-1.7,9.4l-4,0.4L13,2.3l3.5-0.4l3.8,9.9L22,1.3l3.7-0.4l3.9,9.9l1.6-10.4L34.6,0L32,14.6
		L27.9,15z"/>
	<path class="st0" d="M44.5,10.4c0,0.3-0.1,0.8-0.2,1l-6.7-0.6c0.2,1.1,0.9,1.7,2,1.8c0.7,0.1,1.6-0.2,2.2-0.7l1.9,2.1
		c-1.1,0.9-2.7,1.4-4.5,1.2c-3.1-0.3-5-2.6-4.7-5.7c0.3-3.1,2.6-5.1,5.6-4.8C43,5,44.8,7.3,44.5,10.4z M37.9,8.7l3.6,0.3
		c-0.2-1-0.7-1.6-1.6-1.7C38.8,7.3,38.2,7.7,37.9,8.7z"/>
	<path class="st0" d="M6.6,23.1c-1.2,0-1.6,0.3-1.6,0.8c0,0.6,0.9,0.7,2.2,0.9l1,0.2c3,0.5,4.5,1.9,4.5,4.2c0,3-2.4,4.9-6.4,4.9
		c-2.4,0-4.8-0.4-6.4-1.5l1.5-3.4c1.4,0.8,3,1.3,4.9,1.3c1.4,0,1.9-0.3,1.9-0.9c0-0.5-0.6-0.7-2.2-1l-0.8-0.1
		C2,28,0.5,26.7,0.5,24.2c0-2.9,2.2-4.6,6-4.6c2.2,0,3.7,0.3,6,1.2l-1.2,3.4C9.9,23.6,8.1,23.1,6.6,23.1z"/>
	<path class="st0" d="M29.3,23.4c0.7,4.1-1.5,7.7-5.1,8.3c-1.8,0.3-3.1-0.2-4.1-1l1.2,6.9l-4.3,0.7l-3.3-19.2l4.2-0.7l0.3,1.5
		c0.7-1.2,1.7-2.2,3.6-2.5C25.4,16.7,28.6,19.4,29.3,23.4z M19,25.2c0.3,1.8,1.7,2.9,3.4,2.6c1.8-0.3,2.7-1.9,2.4-3.6
		c-0.3-1.8-1.7-2.9-3.5-2.6C19.6,21.8,18.7,23.4,19,25.2z"/>
	<path class="st0" d="M44.5,25.3c0,0.5,0,1.1-0.1,1.4H35c0.4,1.5,1.4,2.2,3,2.2c1,0,2.1-0.4,3-1.2l2.9,2.7c-1.5,1.5-3.5,2.3-6.1,2.3
		c-4.4,0-7.3-2.9-7.3-7.2c0-4.4,2.9-7.4,7.1-7.4C41.6,18,44.5,21,44.5,25.3z M35,23.9h5c-0.4-1.4-1.2-2.1-2.5-2.1
		C36.2,21.8,35.3,22.5,35,23.9z"/>
	<path class="st0" d="M45.3,33.2L47.1,13l4.4,0.4l-1.8,20.3L45.3,33.2z"/>
	<path class="st0" d="M66.1,25.3c-0.1,0.4-0.3,1-0.4,1.3l-9.1-2.4c0,1.6,0.8,2.5,2.3,2.9c1,0.3,2.2,0.1,3.2-0.4l2.1,3.3
		c-1.8,1-4,1.3-6.5,0.7c-4.2-1.1-6.3-4.6-5.3-8.8c1.1-4.2,4.7-6.4,8.7-5.4C65.2,17.5,67.2,21.1,66.1,25.3z M57.3,21.5l4.9,1.3
		c0-1.4-0.6-2.4-1.9-2.7C58.9,19.8,57.9,20.3,57.3,21.5z"/>
	<path class="st0" d="M81.3,23v9.1h-4.4v-7.5c0-1.7-0.8-2.6-2.2-2.6c-1.2,0-2.2,0.8-2.2,2.6v7.5H68V18.2h4.2V20
		c0.9-1.5,2.3-2.1,4.1-2.1C79.1,17.9,81.3,19.8,81.3,23z"/>
	<path class="st0" d="M38,35l3.3-0.6l-1.7,10.4l-3.5,0.6l-2.9-5.5l-0.9,6.2l-3.5,0.6l-5.1-9.2l3.3-0.6l3,5.9l0.9-6.6l3.1-0.6
		l3.1,5.9L38,35z"/>
	<path class="st0" d="M51.9,41.6c0,0.3,0,0.8,0,1l-6.8,0.1c0.3,1.1,1.1,1.6,2.2,1.6c0.7,0,1.5-0.3,2.2-0.9l2.1,1.9
		c-1,1.1-2.5,1.7-4.4,1.7c-3.1,0.1-5.3-2-5.3-5.1c-0.1-3.1,2-5.4,5-5.4C49.8,36.4,51.8,38.5,51.9,41.6z M45.1,40.7l3.6-0.1
		c-0.3-1-0.9-1.5-1.8-1.5C45.9,39.2,45.3,39.7,45.1,40.7z"/>
	<path class="st0" d="M62.6,38.6c0,0.3-0.1,0.8-0.2,1l-6.7-0.7c0.2,1.1,0.9,1.7,1.9,1.8c0.7,0.1,1.6-0.1,2.3-0.6l1.8,2.1
		c-1.2,0.9-2.7,1.4-4.5,1.2c-3.1-0.3-5-2.6-4.7-5.7c0.3-3.1,2.6-5.1,5.7-4.7C61.2,33.2,62.9,35.5,62.6,38.6z M55.9,36.9l3.6,0.4
		c-0.1-1-0.7-1.6-1.6-1.7C57,35.4,56.3,35.9,55.9,36.9z"/>
	<path class="st0" d="M71.3,36.2l-0.4,3.2c-0.4-0.2-1-0.3-1.6-0.3c-1.1-0.1-1.8,0.5-1.9,1.7l-0.2,5.4L64,46l0.4-10l3,0.1l-0.1,1.1
		C68,36.4,69,36,70.2,36C70.7,36.1,71.1,36.2,71.3,36.2z"/>
	<path class="st0" d="M74.8,47.5c-0.3,1.1-1.5,1.8-2.6,1.5c-1.1-0.3-1.8-1.5-1.4-2.6c0.3-1.1,1.5-1.7,2.6-1.4
		C74.5,45.2,75.1,46.4,74.8,47.5z M72.3,43.4l2.1-8.9l3.6,1l-2.9,8.7L72.3,43.4z"/>
</g>
</svg>
