<?xml version="1.0" encoding="utf-8"?>
<!-- Generator: Adobe Illustrator 24.0.0, SVG Export Plug-In . SVG Version: 6.00 Build 0)  -->
<svg version="1.1" id="Laag_1" xmlns="http://www.w3.org/2000/svg" xmlns:xlink="http://www.w3.org/1999/xlink" x="0px" y="0px"
	 width="77.2px" height="43.3px" viewBox="0 0 77.2 43.3" style="enable-background:new 0 0 77.2 43.3;" xml:space="preserve">
<style type="text/css">
	.st0{fill:#FFED00;}
</style>
<g>
	<path class="st0" d="M1.8,4C1.2,3.9,0.8,3.6,0.8,3V1.6c0-0.6,0.5-1.1,1.1-1.1H4c0.6,0,1.1,0.5,1.1,1.1v0.9H3.9V1.8
		c0-0.2-0.1-0.3-0.3-0.3H2.2C2.1,1.6,2,1.7,2,1.8v0.8C2,2.8,2.1,2.9,2.2,3c0.6,0.2,1.1,0.3,1.8,0.5c0.6,0.2,1,0.5,1,1.1v1.5
		c0,0.6-0.5,1.1-1.1,1.1H1.8c-0.6,0-1.1-0.5-1.1-1.1V5.1h1.2v0.7c0,0.2,0.1,0.3,0.3,0.3h1.4c0.2,0,0.3-0.1,0.3-0.3v-1
		c0-0.2-0.1-0.2-0.3-0.3C2.9,4.3,2.6,4.3,1.8,4z"/>
	<path class="st0" d="M9,5.4h1.1v0.7c0,0.6-0.5,1.1-1,1.1H7.4c-0.6,0-1-0.5-1-1.1V3.5c0-0.6,0.5-1.1,1-1.1h1.7c0.6,0,1,0.5,1,1.1
		v0.6H9V3.7c0-0.2-0.1-0.3-0.3-0.3h-1c-0.2,0-0.3,0.1-0.3,0.3v2.1c0,0.2,0.1,0.3,0.3,0.3h1C8.9,6.1,9,6,9,5.9V5.4z"/>
	<path class="st0" d="M12.5,7.2h-1.2V0.5h1.2v2.3c0.4-0.2,1.2-0.5,1.7-0.5c0.7,0,1.1,0.5,1.1,1.1v3.8h-1.2V3.7
		c0-0.2-0.1-0.3-0.3-0.3c-0.3,0-0.8,0.2-1.1,0.3c-0.2,0.1-0.3,0.2-0.3,0.4V7.2z"/>
	<path class="st0" d="M16.6,0.4h1.2v1.3h-1.2V0.4z M16.6,2.4h1.2v4.8h-1.2V2.4z"/>
	<path class="st0" d="M19.2,0.5h1.2v6.7h-1.2V0.5z"/>
	<path class="st0" d="M21.6,3.4c0-0.6,0.4-1.1,1.1-1.1c0.5,0,1.2,0.3,1.7,0.4V0.5h1.2v6.7h-1.2V6.9c-0.5,0.2-1.2,0.4-1.7,0.4
		c-0.7,0-1.1-0.5-1.1-1.1V3.4z M22.8,5.9c0,0.2,0.1,0.3,0.3,0.3c0.3,0,0.8-0.2,1.1-0.3c0.2-0.1,0.3-0.2,0.3-0.3V4
		c0-0.2-0.1-0.3-0.3-0.3c-0.2-0.1-0.8-0.3-1.1-0.3c-0.2,0-0.3,0.1-0.3,0.3V5.9z"/>
	<path class="st0" d="M28.3,6.2h1c0.2,0,0.3-0.1,0.3-0.3V5.7h1.1v0.5c0,0.6-0.5,1-1,1h-1.7c-0.6,0-1-0.5-1-1.1V3.5
		c0-0.6,0.5-1.1,1-1.1h1.7c0.6,0,1,0.5,1,1.1v1.7H28v0.8C28,6,28.2,6.2,28.3,6.2z M28,4.2h1.6V3.7c0-0.2-0.1-0.3-0.3-0.3h-1
		c-0.2,0-0.3,0.1-0.3,0.3V4.2z"/>
	<path class="st0" d="M34.6,3.4c-0.4,0.2-0.8,0.4-1.2,0.5c-0.2,0.1-0.3,0.2-0.3,0.4v2.8H32V2.4h1.2v0.5c0.4-0.2,0.9-0.4,1.4-0.6
		L34.6,3.4z"/>
	<path class="st0" d="M35.2,4.8v-1h2.5v1H35.2z"/>
	<path class="st0" d="M41.2,7.2h-1.2c-0.6,0-1-0.5-1-1.1V3.4h-0.7v-1H39V1.2h1.2v1.2h1.1v1h-1.1v2.5c0,0.2,0.1,0.3,0.3,0.3h0.8V7.2z
		"/>
	<path class="st0" d="M43.6,6.2h1c0.2,0,0.3-0.1,0.3-0.3V5.7H46v0.5c0,0.6-0.5,1-1,1h-1.7c-0.6,0-1-0.5-1-1.1V3.5
		c0-0.6,0.5-1.1,1-1.1h1.7c0.6,0,1,0.5,1,1.1v1.7h-2.7v0.8C43.3,6,43.4,6.2,43.6,6.2z M43.3,4.2h1.6V3.7c0-0.2-0.1-0.3-0.3-0.3h-1
		c-0.2,0-0.3,0.1-0.3,0.3V4.2z"/>
	<path class="st0" d="M49.6,4.8l1.6,2.4h-1.3l-1.5-2.3v2.3h-1.2V0.5h1.2v4.2l1.4-2.2h1.3L49.6,4.8z"/>
	<path class="st0" d="M53.3,6.2h1c0.2,0,0.3-0.1,0.3-0.3V5.7h1.1v0.5c0,0.6-0.5,1-1,1h-1.7c-0.6,0-1-0.5-1-1.1V3.5
		c0-0.6,0.5-1.1,1-1.1h1.7c0.6,0,1,0.5,1,1.1v1.7H53v0.8C53,6,53.1,6.2,53.3,6.2z M53,4.2h1.6V3.7c0-0.2-0.1-0.3-0.3-0.3h-1
		c-0.2,0-0.3,0.1-0.3,0.3V4.2z"/>
	<path class="st0" d="M58.1,7.2h-1.2V2.4H58v0.4c0.4-0.2,1.3-0.5,1.8-0.5c0.7,0,1.1,0.5,1.1,1.1v3.8h-1.2V3.7c0-0.2-0.1-0.3-0.3-0.3
		c-0.3,0-0.8,0.2-1.1,0.3c-0.2,0.1-0.3,0.2-0.3,0.4V7.2z"/>
	<path class="st0" d="M62.1,5.4c0-0.6,0.4-1.1,1.1-1.1c0.5,0,1.2,0.1,1.6,0.2V3.7c0-0.2-0.1-0.3-0.3-0.3h-0.9
		c-0.2,0-0.3,0.1-0.3,0.3v0.2h-1.1V3.4c0-0.6,0.5-1,1-1h1.6c0.6,0,1,0.5,1,1.1v3.7h-1.2V6.9c-0.5,0.2-1.1,0.3-1.6,0.3
		c-0.7,0-1.1-0.5-1.1-1.1V5.4z M63.3,6c0,0.2,0.1,0.3,0.3,0.3c0.2,0,0.8-0.1,1-0.2c0.2-0.1,0.3-0.1,0.3-0.2V5.6
		c0-0.1-0.1-0.2-0.3-0.2c-0.3-0.1-0.8-0.1-1-0.1c-0.2,0-0.3,0.1-0.3,0.3V6z"/>
	<path class="st0" d="M67.3,5.4c0-0.6,0.4-1.1,1.1-1.1c0.5,0,1.2,0.1,1.6,0.2V3.7c0-0.2-0.1-0.3-0.3-0.3h-0.9
		c-0.2,0-0.3,0.1-0.3,0.3v0.2h-1.1V3.4c0-0.6,0.5-1,1-1h1.6c0.6,0,1,0.5,1,1.1v3.7H70V6.9c-0.5,0.2-1.1,0.3-1.6,0.3
		c-0.7,0-1.1-0.5-1.1-1.1V5.4z M68.4,6c0,0.2,0.1,0.3,0.3,0.3c0.2,0,0.8-0.1,1-0.2C69.9,6,70,5.9,70,5.8V5.6c0-0.1-0.1-0.2-0.3-0.2
		c-0.3-0.1-0.8-0.1-1-0.1c-0.2,0-0.3,0.1-0.3,0.3V6z"/>
	<path class="st0" d="M75.1,3.4c-0.4,0.2-0.8,0.4-1.2,0.5c-0.2,0.1-0.3,0.2-0.3,0.4v2.8h-1.2V2.4h1.2v0.5c0.4-0.2,0.9-0.4,1.4-0.6
		L75.1,3.4z"/>
</g>
<g>
	<path class="st0" d="M0.7,10h1.2v1.3H0.7V10z M0.7,12h1.2v4.8H0.7V12z"/>
	<path class="st0" d="M4.5,16.8H3.3V12h1.1v0.4c0.4-0.2,1.3-0.5,1.8-0.5c0.7,0,1.1,0.5,1.1,1.1v3.8H6.1v-3.5C6.1,13.1,6,13,5.8,13
		c-0.3,0-0.8,0.2-1.1,0.3c-0.2,0.1-0.3,0.2-0.3,0.4V16.8z"/>
	<path class="st0" d="M10.7,15.7V13c0-0.6,0.5-1.1,1-1.1h1.9c0.6,0,1.1,0.5,1.1,1.1v2.7c0,0.6-0.5,1.1-1.1,1.1h-1.9
		C11.1,16.8,10.7,16.3,10.7,15.7z M13.5,13.3c0-0.2-0.1-0.3-0.3-0.3h-1.2c-0.2,0-0.3,0.1-0.3,0.3v2.1c0,0.2,0.1,0.3,0.3,0.3h1.2
		c0.2,0,0.3-0.1,0.3-0.3V13.3z"/>
	<path class="st0" d="M15.9,15.7V13c0-0.6,0.5-1.1,1-1.1h1.9c0.6,0,1.1,0.5,1.1,1.1v2.7c0,0.6-0.5,1.1-1.1,1.1h-1.9
		C16.4,16.8,15.9,16.3,15.9,15.7z M18.8,13.3c0-0.2-0.1-0.3-0.3-0.3h-1.2c-0.2,0-0.3,0.1-0.3,0.3v2.1c0,0.2,0.1,0.3,0.3,0.3h1.2
		c0.2,0,0.3-0.1,0.3-0.3V13.3z"/>
	<path class="st0" d="M23.9,13c-0.4,0.2-0.8,0.4-1.2,0.5c-0.2,0.1-0.3,0.2-0.3,0.4v2.8h-1.2V12h1.2v0.5c0.4-0.2,0.9-0.4,1.4-0.6
		L23.9,13z"/>
	<path class="st0" d="M24.7,10.1h1.2v6.7h-1.2V10.1z"/>
	<path class="st0" d="M27.2,15.7V13c0-0.6,0.5-1.1,1-1.1h1.9c0.6,0,1.1,0.5,1.1,1.1v2.7c0,0.6-0.5,1.1-1.1,1.1h-1.9
		C27.6,16.8,27.2,16.3,27.2,15.7z M30,13.3c0-0.2-0.1-0.3-0.3-0.3h-1.2c-0.2,0-0.3,0.1-0.3,0.3v2.1c0,0.2,0.1,0.3,0.3,0.3h1.2
		c0.2,0,0.3-0.1,0.3-0.3V13.3z"/>
	<path class="st0" d="M32.4,12.9c0-0.6,0.4-1.1,1.1-1.1c0.5,0,1.2,0.3,1.7,0.4V12h1.2v5.6c0,0.6-0.5,1.1-1,1.1h-2.4v-1h2
		c0.2,0,0.3-0.1,0.3-0.3v-1.2c-0.5,0.2-1.2,0.4-1.7,0.4c-0.7,0-1.1-0.5-1.1-1.1V12.9z M33.6,15.3c0,0.2,0.1,0.3,0.3,0.3
		c0.3,0,0.8-0.2,1.1-0.3c0.2-0.1,0.3-0.2,0.3-0.3v-1.3c0-0.2-0.1-0.3-0.3-0.3c-0.2-0.1-0.8-0.3-1.1-0.3c-0.2,0-0.3,0.1-0.3,0.3V15.3
		z"/>
	<path class="st0" d="M40.2,15.4c0,0,0-0.2-0.2-0.3c-0.5-0.2-1.2-0.3-1.7-0.5c-0.4-0.1-0.8-0.5-0.8-1V13c0-0.6,0.5-1.1,1-1.1h1.6
		c0.6,0,1.1,0.5,1.1,1.1v0.4h-1.1v-0.2c0-0.2-0.1-0.3-0.3-0.3H39c-0.2,0-0.3,0.1-0.3,0.3v0.1c0,0.1,0.1,0.2,0.2,0.3
		c0.4,0.1,1.2,0.4,1.7,0.5c0.5,0.2,0.8,0.5,0.8,1v0.6c0,0.6-0.5,1.1-1.1,1.1h-1.7c-0.6,0-1-0.5-1-1.1v-0.4h1.1v0.2
		c0,0.2,0.1,0.3,0.3,0.3h1c0.2,0,0.3-0.1,0.3-0.3V15.4z"/>
	<path class="st0" d="M42.4,14.4v-1h2.5v1H42.4z"/>
	<path class="st0" d="M49.5,15.7h1c0.2,0,0.3-0.1,0.3-0.3v-0.2h1.1v0.5c0,0.6-0.5,1-1,1h-1.7c-0.6,0-1-0.5-1-1.1V13
		c0-0.6,0.5-1.1,1-1.1h1.7c0.6,0,1,0.5,1,1.1v1.7h-2.7v0.8C49.2,15.6,49.4,15.7,49.5,15.7z M49.2,13.7h1.6v-0.5
		c0-0.2-0.1-0.3-0.3-0.3h-1c-0.2,0-0.3,0.1-0.3,0.3V13.7z"/>
	<path class="st0" d="M54.3,16.8h-1.2V12h1.1v0.4c0.4-0.2,1.3-0.5,1.8-0.5c0.7,0,1.1,0.5,1.1,1.1v3.8h-1.2v-3.5
		c0-0.2-0.1-0.3-0.3-0.3c-0.3,0-0.8,0.2-1.1,0.3c-0.2,0.1-0.3,0.2-0.3,0.4V16.8z"/>
</g>
<g>
	<path class="st0" d="M0.2,21.6h1.2l1,3.4l1-3.4h1.2L3,26.4H1.7L0.2,21.6z"/>
	<path class="st0" d="M8,22.6c-0.4,0.2-0.8,0.4-1.2,0.5c-0.2,0.1-0.3,0.2-0.3,0.4v2.8H5.4v-4.8h1.2v0.5C7,21.9,7.4,21.7,8,21.5
		L8,22.6z"/>
	<path class="st0" d="M10.1,25.3h1c0.2,0,0.3-0.1,0.3-0.3v-0.2h1.1v0.5c0,0.6-0.5,1-1,1H9.7c-0.6,0-1-0.5-1-1.1v-2.7
		c0-0.6,0.5-1.1,1-1.1h1.7c0.6,0,1,0.5,1,1.1v1.7H9.8v0.8C9.8,25.2,10,25.3,10.1,25.3z M9.8,23.3h1.6v-0.5c0-0.2-0.1-0.3-0.3-0.3h-1
		c-0.2,0-0.3,0.1-0.3,0.3V23.3z"/>
	<path class="st0" d="M13.7,22.5c0-0.6,0.4-1.1,1.1-1.1c0.5,0,1.2,0.3,1.7,0.4v-2.3h1.2v6.7h-1.2V26c-0.5,0.2-1.2,0.4-1.7,0.4
		c-0.7,0-1.1-0.5-1.1-1.1V22.5z M14.8,25.1c0,0.2,0.1,0.3,0.3,0.3c0.3,0,0.8-0.2,1.1-0.3c0.2-0.1,0.3-0.2,0.3-0.3v-1.5
		c0-0.2-0.1-0.3-0.3-0.3c-0.2-0.1-0.8-0.3-1.1-0.3c-0.2,0-0.3,0.1-0.3,0.3V25.1z"/>
	<path class="st0" d="M20.3,25.3h1c0.2,0,0.3-0.1,0.3-0.3v-0.2h1.1v0.5c0,0.6-0.5,1-1,1H20c-0.6,0-1-0.5-1-1.1v-2.7
		c0-0.6,0.5-1.1,1-1.1h1.7c0.6,0,1,0.5,1,1.1v1.7h-2.7v0.8C20.1,25.2,20.2,25.3,20.3,25.3z M20.1,23.3h1.6v-0.5
		c0-0.2-0.1-0.3-0.3-0.3h-1c-0.2,0-0.3,0.1-0.3,0.3V23.3z"/>
	<path class="st0" d="M26.5,24.9c0,0,0-0.2-0.2-0.3c-0.5-0.2-1.2-0.3-1.7-0.5c-0.4-0.1-0.8-0.5-0.8-1v-0.5c0-0.6,0.5-1.1,1-1.1h1.6
		c0.6,0,1.1,0.5,1.1,1.1v0.4h-1.1v-0.2c0-0.2-0.1-0.3-0.3-0.3h-0.9c-0.2,0-0.3,0.1-0.3,0.3V23c0,0.1,0.1,0.2,0.2,0.3
		c0.4,0.1,1.2,0.4,1.7,0.5c0.5,0.2,0.8,0.5,0.8,1v0.6c0,0.6-0.5,1.1-1.1,1.1h-1.7c-0.6,0-1-0.5-1-1.1v-0.4H25v0.2
		c0,0.2,0.1,0.3,0.3,0.3h1c0.2,0,0.3-0.1,0.3-0.3V24.9z"/>
	<path class="st0" d="M31.2,26.4H30c-0.6,0-1-0.5-1-1.1v-2.7h-0.7v-1H29v-1.2h1.2v1.2h1.1v1h-1.1v2.5c0,0.2,0.1,0.3,0.3,0.3h0.8
		V26.4z"/>
	<path class="st0" d="M32.3,19.6h1.2v1.3h-1.2V19.6z M32.3,21.6h1.2v4.8h-1.2V21.6z"/>
	<path class="st0" d="M36,21.6v5.6c0,0.6-0.5,1.1-1,1.1h-1.1v-1h0.7c0.2,0,0.3-0.1,0.3-0.3v-5.4H36z M34.8,19.6H36v1.3h-1.2V19.6z"
		/>
	<path class="st0" d="M37.3,22.5c0-0.6,0.4-1.1,1.1-1.1c0.5,0,1.2,0.3,1.7,0.4v-2.3h1.2v6.7h-1.2V26c-0.5,0.2-1.2,0.4-1.7,0.4
		c-0.7,0-1.1-0.5-1.1-1.1V22.5z M38.5,25.1c0,0.2,0.1,0.3,0.3,0.3c0.3,0,0.8-0.2,1.1-0.3c0.2-0.1,0.3-0.2,0.3-0.3v-1.5
		c0-0.2-0.1-0.3-0.3-0.3c-0.2-0.1-0.8-0.3-1.1-0.3c-0.2,0-0.3,0.1-0.3,0.3V25.1z"/>
</g>
</svg>
