<?xml version="1.0" encoding="utf-8"?>
<!-- Generator: Adobe Illustrator 24.0.0, SVG Export Plug-In . SVG Version: 6.00 Build 0)  -->
<svg version="1.1" id="Laag_1" xmlns="http://www.w3.org/2000/svg" xmlns:xlink="http://www.w3.org/1999/xlink" x="0px" y="0px"
	 width="51.7px" height="68.2px" viewBox="0 0 51.7 68.2" style="enable-background:new 0 0 51.7 68.2;" xml:space="preserve">
<style type="text/css">
	.st0{fill:#8E3677;}
</style>
<g>
	<g>
		<path class="st0" d="M21.1,43.5l-1.9-2.9l0.5-0.3c0.7-0.4,1.2-0.5,1.4-0.5c0.2,0,0.4,0,0.6,0.1c0,0,0,0,0,0l0.3,0.1l-0.2-0.2
			c0,0,0,0,0,0c-0.1-0.1-0.3-0.4-0.7-1c-0.4-0.6-0.6-0.9-0.6-0.9l-0.1-0.1l-7.2,4.7l0.1,0.1c0,0,0.2,0.3,0.6,0.9
			c0.2,0.3,0.4,0.7,0.6,1c0,0,0,0,0,0l0.3,0.4l-0.1-0.5c0,0,0-0.2,0.2-0.5c0.1-0.2,0.4-0.7,1.1-1.1l0.5-0.3l1.8,2.7
			c2.3,3.5,2.3,3.7,2.4,4.3l0,0.2l-0.1,0c-0.7,0.1-1.5-0.2-3.4-1.1L11.7,46c-0.2-0.1-0.3-0.2-0.4-0.3c-0.1-0.1-0.1-0.1-0.1-0.2
			c0,0,0,0,0-0.1L11,45.4l-3.2,4l0.3,0c0,0,0.1,0,0.2,0.1c0.1,0.1,0.2,0.2,0.3,0.4l3.7,4.9c1,1.4,1.6,2.1,1.7,2.7
			c-0.5,0-0.8-0.1-4.3-1.8c-3.8-1.9-3.9-2-4.2-2.5l-0.3-0.4l-0.1,0.2c0,0-0.3,0.6-0.9,1.9c-0.6,1.2-0.9,1.7-0.9,1.7l0,0.1l2.4,2.9
			C5.9,59.8,5.9,59.9,6,60c-0.1,0-0.2,0-0.4,0l-3.7-0.1l0,0.1c0,0-0.2,0.5-0.8,1.7c-0.7,1.3-0.9,1.8-0.9,1.8L0,63.6l0.5,0
			c0.6,0,0.7,0,4.4,1.8c3.8,1.9,3.9,2,4.2,2.5l0.3,0.4l0.1-0.2c0,0,0.2-0.5,0.7-1.4c0.4-0.8,0.7-1.3,0.7-1.3l0.1-0.2l-0.5,0
			c-0.6,0-0.7,0-4.4-1.8l-1.5-0.7c0.4,0,0.8,0.1,1.4,0.1l5.3,0.2l-3.3-4.1c-0.4-0.4-0.7-0.8-0.9-1.1l1.4,0.7c3.8,1.9,3.9,2,4.2,2.5
			l0.3,0.4l0.1-0.2c0,0,0.2-0.5,0.8-1.7c0.6-1.2,0.9-1.7,0.9-1.7l0,0c0.2-0.3,0.5-0.6,0.8-1c0.5-0.6,1.1-1.3,1.1-1.3l0.2-0.3
			l-0.4,0.1c-0.2,0.1-0.5,0.1-0.9-0.2c-0.2-0.2-0.5-0.5-0.8-0.9c-0.1-0.1-0.2-0.3-0.4-0.5L14,53.4l1.7-0.3l-0.1-1.8l0.3,0.2l0.1,0.1
			c0.7,0.3,1.2,0.5,1.5,0.8c0.4,0.3,0.4,0.6,0.4,0.8l0,0.4l0.2-0.3c0,0,0.8-1.1,1.3-1.7h0c0.5-0.6,1.2-1.5,1.3-1.6l0,0.1l0.2-0.1
			c0,0,0.5-0.4,1.6-1.1c1.1-0.7,1.6-1,1.6-1l0.2-0.1l-0.4-0.2C23.4,47,23.3,46.9,21.1,43.5z M10.7,49l2.9,1.3l0.1,1.1l-1.1,0.2
			l-2-2.5c-0.1-0.1-0.2-0.2-0.3-0.3C10.5,48.9,10.6,48.9,10.7,49z"/>
		<path class="st0" d="M27.2,41.1c-1.4-4-1.4-4.1-1.3-4.7l0.1-0.5L25.8,36c0,0-0.5,0.2-1.8,0.7c-1.3,0.5-1.8,0.6-1.8,0.6l-0.2,0.1
			l0.4,0.3c0.4,0.4,0.5,0.5,1.9,4.3c1.4,4,1.4,4.1,1.3,4.7l-0.1,0.5l0.2-0.1c0,0,0.6-0.2,1.8-0.7h0c1.3-0.4,1.8-0.6,1.8-0.6l0.2-0.1
			L29,45.5C28.6,45.1,28.5,45,27.2,41.1z"/>
		<path class="st0" d="M34.8,38.4c-0.5-0.3-1.1-0.4-1.9-0.5l-1.1-0.1c0,0-0.1,0-0.1,0c-0.8,0-1.2-0.1-1.3-0.5
			c-0.1-0.3-0.2-0.7,0.9-1.2c0.9-0.4,1.8-0.3,2.7,0.3l0.4,0.2l-0.2-0.4c0,0-0.2-0.5-0.6-1.3c-0.3-0.8-0.5-1.2-0.5-1.2l0-0.1l-0.1,0
			c0,0-1,0-2.7,0.7c-1.2,0.5-2,1.1-2.4,1.8c-0.4,0.8-0.4,1.6,0,2.6c0.3,0.6,0.7,1.1,1.2,1.4c0.5,0.3,1.1,0.4,1.8,0.5l1.3,0.1l0.1,0
			c0.7,0,1.1,0.1,1.3,0.6c0.1,0.3,0.1,0.5-0.1,0.7c-0.2,0.2-0.5,0.4-0.9,0.6c-1.3,0.5-2.2,0.1-2.9-0.3l-0.3-0.2l0.2,0.4
			c0,0,0.2,0.5,0.6,1.4c0.3,0.8,0.4,1.1,0.4,1.1l0,0.1l0.1,0c0,0,0,0,0,0c0.1,0,1.1,0,2.8-0.8c1.2-0.5,2-1.1,2.4-1.8
			c0.5-0.8,0.6-1.8,0.1-2.9C35.8,39.2,35.3,38.7,34.8,38.4z"/>
		<path class="st0" d="M41.7,35.3c-0.5-0.2-1.1-0.3-1.9-0.3l-1.1,0c0,0-0.1,0-0.1,0c-0.8,0-1.2,0-1.4-0.4c-0.2-0.3-0.2-0.7,0.8-1.3
			c0.8-0.5,1.7-0.5,2.7,0l0.4,0.2l-0.2-0.4c0,0-0.3-0.4-0.7-1.2c-0.4-0.8-0.6-1.1-0.6-1.1l0-0.1l-0.1,0c0,0-1,0.1-2.6,1
			c-1.1,0.6-1.8,1.3-2.2,2c-0.4,0.8-0.3,1.7,0.2,2.6c0.3,0.6,0.8,1,1.4,1.3c0.5,0.2,1.1,0.3,1.8,0.3l1.3,0l0.1,0
			c0.7,0,1.1,0,1.4,0.5c0.1,0.3,0.1,0.5,0,0.7c-0.1,0.2-0.4,0.5-0.9,0.7c-1.2,0.7-2.2,0.4-2.9,0l-0.4-0.2l0.2,0.3
			c0,0,0.3,0.5,0.8,1.3c0.4,0.7,0.6,1.1,0.6,1.1l0,0.1l0.1,0c0,0,1.1-0.1,2.7-1c1.1-0.6,1.9-1.3,2.2-2c0.5-0.9,0.4-1.8-0.2-2.9
			C42.8,36,42.3,35.6,41.7,35.3z"/>
		<path class="st0" d="M51.3,34.7c-0.8-1.4-1.1-2-1.1-2L50,32.3l0,0.6c0,0.9,0,1.3-1.4,2.2l-0.9,0.6l-1.3-2l0.8-0.5
			c0.6-0.4,1.1-0.6,1.4-0.6c0.3,0,0.5,0,0.6,0c0,0,0,0,0,0l0.3,0.1l-0.2-0.2c0,0,0,0,0,0c-0.2-0.3-0.5-0.7-0.8-1.2
			c-0.3-0.5-0.6-1-0.8-1.3c0,0,0,0,0,0l-0.1-0.2l-0.1,0.3l0,0c0,0.1-0.1,0.3-0.2,0.6c-0.2,0.3-0.5,0.6-1.1,1L45.4,32l-1.3-2l1-0.7
			c0.5-0.3,1.1-0.5,1.4-0.6c0.2,0,0.4,0,0.6,0c0,0,0,0,0,0l0.3,0.1l-0.1-0.2c0,0,0,0,0,0c-0.1-0.1-0.3-0.4-0.7-1
			c-0.4-0.7-0.6-1-0.6-1L46,26.6l-4.9,3.1c-0.6,0.4-0.9,0.6-0.9,0.6L40,30.4l0.4,0.2c0.5,0.3,0.6,0.4,2.8,3.8
			c2.3,3.6,2.3,3.7,2.3,4.3l0,0.5l0.2-0.1c0,0,0.3-0.2,0.9-0.6l5-3.2L51.3,34.7z"/>
	</g>
</g>
</svg>
