<?xml version="1.0" encoding="utf-8"?>
<!-- Generator: Adobe Illustrator 24.3.0, SVG Export Plug-In . SVG Version: 6.00 Build 0)  -->
<svg version="1.1" id="Laag_1" xmlns="http://www.w3.org/2000/svg" xmlns:xlink="http://www.w3.org/1999/xlink" x="0px" y="0px"
	 width="531.3px" height="78.3px" viewBox="0 0 531.3 78.3" style="enable-background:new 0 0 531.3 78.3;" xml:space="preserve">
<style type="text/css">
	.st0{fill:#FFFFFF;}
</style>
<g>
	<g>
		<path class="st0" d="M47.6,64.2V24L30.4,50.3h-0.3l-17-26v40H0V2.6h14.4l16,26l16-26h14.4v61.6H47.6z"/>
		<path class="st0" d="M117.4,45.3H84.9c1.3,6.1,5.5,9.2,11.4,9.2c4.4,0,7.7-1.4,11.3-4.8l7.6,6.8c-4.3,5.5-10.6,8.8-19,8.8
			c-14,0-24.3-9.9-24.3-24.4v-0.2c0-13.5,9.5-24.6,23-24.6c15.6,0,22.7,12.2,22.7,25.6V42C117.5,43.3,117.5,44.1,117.4,45.3z
			 M94.9,26.9c-5.5,0-9,4-10.1,10h19.9C103.9,31,100.4,26.9,94.9,26.9z"/>
		<path class="st0" d="M185.3,64.2V37.9c0-6.3-2.8-9.6-7.7-9.6c-5,0-8,3.3-8,9.6v26.3h-13.2V37.9c0-6.3-2.8-9.6-7.7-9.6
			c-5,0-8,3.3-8,9.6v26.3h-13.2V17.1h13.2v6.7c3-4,7-7.6,13.7-7.6c6.1,0,10.7,2.7,13.1,7.5c4.1-4.8,9-7.5,15.3-7.5
			c9.8,0,15.7,6,15.7,17.3v30.7H185.3z"/>
		<path class="st0" d="M237.7,65.1c-7,0-11.4-3.3-14.5-7v6.2H210V0h13.2v23.8c3.2-4.4,7.7-7.7,14.5-7.7c10.9,0,21.2,8.6,21.2,24.4
			v0.2C258.9,56.5,248.7,65.1,237.7,65.1z M245.7,40.6c0-7.8-5.2-13-11.4-13c-6.2,0-11.3,5.2-11.3,13v0.2c0,7.8,5.1,13,11.3,13
			c6.2,0,11.4-5.1,11.4-13V40.6z"/>
		<path class="st0" d="M311.9,45.3h-32.4c1.3,6.1,5.5,9.2,11.4,9.2c4.4,0,7.7-1.4,11.3-4.8l7.6,6.8c-4.3,5.5-10.6,8.8-19,8.8
			c-14,0-24.3-9.9-24.3-24.4v-0.2c0-13.5,9.5-24.6,23-24.6c15.6,0,22.7,12.2,22.7,25.6V42C312.1,43.3,312,44.1,311.9,45.3z
			 M289.4,26.9c-5.5,0-9,4-10.1,10h19.9C298.5,31,295,26.9,289.4,26.9z"/>
		<path class="st0" d="M349.3,30.2c-8.8,0-14.2,5.4-14.2,16.6v17.4h-13.2V17.1h13.2v9.5c2.7-6.5,7-10.7,14.9-10.4v14H349.3z"/>
		<path class="st0" d="M374.6,65.1c-6.5,0-13.8-2.2-20-7.1l5.7-8.8c5,3.7,10.3,5.6,14.7,5.6c3.8,0,5.6-1.4,5.6-3.5v-0.2
			c0-2.9-4.5-3.9-9.7-5.5c-6.5-1.9-13.9-5-13.9-14.2v-0.2c0-9.6,7.7-15,17-15c5.9,0,12.3,2,17.4,5.5l-5,9.2
			c-4.6-2.7-9.2-4.4-12.6-4.4c-3.2,0-4.9,1.4-4.9,3.3v0.2c0,2.6,4.4,3.9,9.5,5.6c6.5,2.2,14.1,5.4,14.1,14v0.2
			C392.4,60.4,384.7,65.1,374.6,65.1z"/>
		<path class="st0" d="M431.4,64.2V37.9c0-6.3-3-9.6-8-9.6s-8.3,3.3-8.3,9.6v26.3h-13.2V0h13.2v23.8c3-4,7-7.6,13.7-7.6
			c10,0,15.8,6.7,15.8,17.5v30.5H431.4z"/>
		<path class="st0" d="M456.3,11.9V0h13.9v11.9H456.3z M456.7,64.2V17.1h13.2v47.2H456.7z"/>
		<path class="st0" d="M510.1,65.1c-7,0-11.4-3.3-14.5-7v20.2h-13.2V17.1h13.2v6.8c3.2-4.4,7.7-7.7,14.5-7.7
			c10.9,0,21.2,8.6,21.2,24.4v0.2C531.3,56.5,521.1,65.1,510.1,65.1z M518.1,40.6c0-7.8-5.2-13-11.4-13c-6.2,0-11.3,5.2-11.3,13v0.2
			c0,7.8,5.1,13,11.3,13c6.2,0,11.4-5.1,11.4-13V40.6z"/>
	</g>
</g>
</svg>
