<?xml version="1.0" encoding="utf-8"?>
<!-- Generator: Adobe Illustrator 24.3.0, SVG Export Plug-In . SVG Version: 6.00 Build 0)  -->
<svg version="1.1" id="Laag_1" xmlns="http://www.w3.org/2000/svg" xmlns:xlink="http://www.w3.org/1999/xlink" x="0px" y="0px"
	 width="295.7px" height="45px" viewBox="0 0 295.7 45" style="enable-background:new 0 0 295.7 45;" xml:space="preserve">
<style type="text/css">
	.st0{fill:#FFFFFF;}
</style>
<g>
	<g>
		<path class="st0" d="M16.7,26.4v11.2h-6.1v-11L0,9.6h7.1l6.6,11.2l6.7-11.2h6.9L16.7,26.4z"/>
		<path class="st0" d="M36.6,38.1c-6.6,0-11.4-4.9-11.4-11.1v-0.1c0-6.2,4.9-11.2,11.5-11.2s11.4,4.9,11.4,11.1v0.1
			C48.1,33.1,43.2,38.1,36.6,38.1z M42.1,26.9c0-3.2-2.3-5.9-5.6-5.9c-3.4,0-5.5,2.7-5.5,5.8v0.1c0,3.2,2.3,5.9,5.6,5.9
			C40.1,32.8,42.1,30.2,42.1,26.9L42.1,26.9z"/>
		<path class="st0" d="M65.6,37.6v-3c-1.4,1.8-3.2,3.4-6.2,3.4c-4.5,0-7.2-3-7.2-8V16.2h6v12c0,2.9,1.3,4.4,3.6,4.4
			c2.3,0,3.8-1.5,3.8-4.4v-12h6v21.4C71.6,37.6,65.6,37.6,65.6,37.6z"/>
		<path class="st0" d="M96.3,38.2l-3.2-3.3C90.8,36.8,88.2,38,85,38c-5.3,0-9.3-3.1-9.3-8.1c0-3.6,1.9-6.1,5.4-7.7
			c-1.3-2-1.9-3.7-1.9-5.6c0-3.9,3-7.4,8.4-7.4c4.7,0,7.8,3.1,7.8,7.1c0,3.8-2.4,6-5.8,7.4l3.7,3.7c0.9-1.4,1.8-3.1,2.7-4.8l4.5,2.5
			c-1.1,2-2.3,4-3.6,5.9l4.1,4.1L96.3,38.2z M84.4,25.9c-1.8,1-2.6,2.3-2.6,3.7c0,2,1.6,3.3,3.9,3.3c1.4,0,2.7-0.6,4-1.6L84.4,25.9z
			 M87.4,13.9c-1.6,0-2.7,1.2-2.7,2.9c0,1.3,0.5,2.2,1.6,3.5c2.4-0.9,3.7-2,3.7-3.8C90,14.9,88.9,13.9,87.4,13.9z"/>
		<path class="st0" d="M126.8,37.6V19.3l-7.8,12h-0.2l-7.7-11.8v18.2h-6v-28h6.6l7.3,11.8l7.3-11.8h6.6v28h-6.1V37.6z"/>
		<path class="st0" d="M139.5,37.6v-28h20.9v5.5h-14.8v5.7h13v5.5h-13v5.9h15v5.5h-21.1V37.6z"/>
	</g>
</g>
</svg>
