<?xml version="1.0" encoding="utf-8"?>
<!-- Generator: Adobe Illustrator 22.0.0, SVG Export Plug-In . SVG Version: 6.00 Build 0)  -->
<svg version="1.1" id="Laag_1" xmlns="http://www.w3.org/2000/svg" xmlns:xlink="http://www.w3.org/1999/xlink" x="0px" y="0px"
	 viewBox="0 0 372.8 138.9" style="enable-background:new 0 0 372.8 138.9;" xml:space="preserve">
<style type="text/css">
	.st0{fill:#B81136;}
</style>
<g>
	<path class="st0" d="M25.9,57.3H13.6l8.6-11.2c2.1-2.8,3-5.5,3-8.3c0-5.9-3.8-10.2-10.5-10.2c-5.8,0-10.1,4-10.5,9.3L10,38
		c0.4-2.9,2.1-4.6,4.6-4.6c2.8,0,4.3,1.7,4.3,4.6c0,2-0.6,3.6-2.7,6.3L3.7,60.5V63h22.2V57.3z"/>
	<path class="st0" d="M58,45.5c0-11.2-4.6-17.9-12.9-17.9c-8.3,0-12.9,6.7-12.9,17.9c0,11.2,4.6,17.9,12.9,17.9
		C53.4,63.4,58,56.7,58,45.5z M38.4,45.5c0-7.8,2.1-12.1,6.7-12.1c4.6,0,6.7,4.3,6.7,12.1c0,7.8-2.1,12.1-6.7,12.1
		C40.5,57.6,38.4,53.3,38.4,45.5z"/>
	<path class="st0" d="M83.5,36.8c0-1.9,1.5-3.2,3.4-3.2c2.1,0,3.5,1.1,4.9,3.7l5.3-3.3c-1.9-4.1-5.4-6.4-10.1-6.4
		c-5.5,0-9.6,4.2-9.6,9.5c0,11.1,14.7,10,14.7,15.8c0,3.2-1.9,4.5-4.6,4.5c-3.9,0-6-3.3-7-7.1l-5.3,3.3c1.1,5.4,5.7,9.8,12.1,9.8
		c6.7,0,11.2-4,11.2-10.9C98.5,42.1,83.5,42.9,83.5,36.8z"/>
	<path class="st0" d="M119.6,33.6c4.9,0,7.3,2.6,8.7,6.1l5.9-1.5c-1.6-6.7-6.9-10.6-14.5-10.6c-8.8,0-16.6,6.2-16.6,17.9
		c0,11.7,7.8,17.9,16.6,17.9c7.6,0,12.8-3.9,14.5-10.6l-5.9-1.5c-1.4,3.6-3.8,6.1-8.7,6.1c-5.4,0-10-3.8-10-11.9
		C109.6,37.4,114.2,33.6,119.6,33.6z"/>
	<polygon class="st0" points="162,57 146.3,57 146.3,47.4 158.5,47.4 158.5,41.4 146.3,41.4 146.3,34 161.5,34 161.5,28 139.8,28 
		139.8,63 162,63 	"/>
	<polygon class="st0" points="194.2,63 194.2,28 187.8,28 187.8,51.1 174.9,28 168,28 168,63 174.4,63 174.4,39.9 187.3,63 	"/>
	<polygon class="st0" points="223.5,57 207.8,57 207.8,47.4 220,47.4 220,41.4 207.8,41.4 207.8,34 223,34 223,28 201.3,28 
		201.3,63 223.5,63 	"/>
	<path class="st0" d="M239.5,57.4c-3.9,0-6-3.3-7-7.1l-5.3,3.3c1.1,5.4,5.7,9.8,12.1,9.8c6.7,0,11.2-4,11.2-10.9
		c0-10.4-15-9.6-15-15.7c0-1.9,1.5-3.2,3.4-3.2c2.1,0,3.5,1.1,4.9,3.7l5.3-3.3c-1.9-4.1-5.4-6.4-10.1-6.4c-5.5,0-9.6,4.2-9.6,9.5
		c0,11.1,14.7,10,14.7,15.8C244.1,56.1,242.2,57.4,239.5,57.4z"/>
	<path class="st0" d="M19.4,74.6c-8.8,0-16.5,5.8-16.5,17.9c0,12.1,7.6,17.9,16.5,17.9c8.8,0,16.5-5.7,16.5-17.9
		C35.9,80.4,28.2,74.6,19.4,74.6z M19.4,104.4c-5.2,0-9.9-3.6-9.9-11.9c0-8.3,4.6-11.9,9.9-11.9c5.2,0,9.9,3.6,9.9,11.9
		C29.3,100.8,24.6,104.4,19.4,104.4z"/>
	<polygon class="st0" points="52.7,100.9 44.8,75 37.6,75 49.4,110 56,110 67.7,75 60.5,75 	"/>
	<polygon class="st0" points="78,94.4 90.2,94.4 90.2,88.4 78,88.4 78,81 93.2,81 93.2,75 71.5,75 71.5,110 93.7,110 93.7,104 
		78,104 	"/>
	<path class="st0" d="M123.1,85c0-5.9-3.7-10-10.7-10H99.6v35h6.5V95h3.4l9.4,15.1h7.3l-9.7-15.7C120.7,93.1,123,89.6,123.1,85z
		 M112.4,88.9h-6.3V81h6.3c2.3,0,4.1,1.2,4.1,4C116.5,87.8,114.8,88.9,112.4,88.9z"/>
	<path class="st0" d="M155.7,75h-11v35h11c8.2,0,16.3-5.3,16.3-17.5C172,80.2,164,75,155.7,75z M153.6,104h-2.4V81h2.4
		c5.6,0,11.8,2.2,11.8,11.5C165.4,101.8,159.2,104,153.6,104z"/>
	<polygon class="st0" points="184.2,94.4 196.4,94.4 196.4,88.4 184.2,88.4 184.2,81 199.4,81 199.4,75 177.7,75 177.7,110 
		199.9,110 199.9,104 184.2,104 	"/>
	<polygon class="st0" points="225.4,75 218.9,75 218.9,110 240.3,110 240.3,104 225.4,104 	"/>
	<rect x="246.1" y="75" class="st0" width="6.5" height="35"/>
	<polygon class="st0" points="266.2,94.4 278.4,94.4 278.4,88.4 266.2,88.4 266.2,81 281.4,81 281.4,75 259.7,75 259.7,110 
		281.9,110 281.9,104 266.2,104 	"/>
	<polygon class="st0" points="287.9,110 294.4,110 294.4,95 307,95 307,89 294.3,89 294.3,81 310,81 310,75 287.9,75 	"/>
	<path class="st0" d="M326.8,75h-11v35h10.9c8.3,0,16.3-5.2,16.4-17.5C343.1,80.2,335.1,75,326.8,75z M324.7,104h-2.4V81h2.4
		c5.6,0,11.8,2.2,11.8,11.5C336.5,101.8,330.3,104,324.7,104z"/>
	<polygon class="st0" points="355.3,104 355.3,94.4 367.5,94.4 367.5,88.4 355.3,88.4 355.3,81 370.5,81 370.5,75 348.8,75 
		348.8,110 371,110 371,104 	"/>
	<polygon class="st0" points="154.9,25.4 151.7,18 143.3,18 150.1,25.4 	"/>
</g>
</svg>
