<?xml version="1.0" encoding="utf-8"?>
<!-- Generator: Adobe Illustrator 24.3.0, SVG Export Plug-In . SVG Version: 6.00 Build 0)  -->
<svg version="1.1" id="Laag_1" xmlns="http://www.w3.org/2000/svg" xmlns:xlink="http://www.w3.org/1999/xlink" x="0px" y="0px"
	 width="55.6px" height="32.6px" viewBox="0 0 55.6 32.6" style="enable-background:new 0 0 55.6 32.6;" xml:space="preserve">
<style type="text/css">
	.st0{fill:#FFFFFF;}
</style>
<path class="st0" d="M50.4,0.3l1.8,25.4h1.6l1.8-25.4H50.4z M55.2,26.7h-4.4v5.5h4.4V26.7z M36.8,0.3l-2.1,20.6L32.6,0.3h-4.8
	l3.9,31.9h5.2l2-18.6l2,18.6H46l4-31.9h-4.4L43.3,21L41.2,0.3H36.8z M22.4,25.4c0,1.4-0.3,2.4-1.6,2.4c-1.3,0-1.7-1.1-1.7-2.4V7.1
	c0-1.6,0.5-2.4,1.7-2.4c1.1,0,1.6,0.8,1.6,2.4V25.4z M27.3,7.3c0-4.4-1.5-7.3-6.1-7.3h-0.8c-4.4,0-6.1,2.9-6.1,7.3v17.8
	c0,4.5,1.6,7.5,6.1,7.5h0.8c4.6,0,6-3,6-7.5V7.3z M0,0.3v31.9h4.3V13.9l4.5,18.4h3.9V0.3H8.3v17.1L4.3,0.3H0z"/>
</svg>
