<?xml version="1.0" encoding="utf-8"?>
<!-- Generator: Adobe Illustrator 24.3.0, SVG Export Plug-In . SVG Version: 6.00 Build 0)  -->
<svg version="1.1" id="Laag_1" xmlns="http://www.w3.org/2000/svg" xmlns:xlink="http://www.w3.org/1999/xlink" x="0px" y="0px"
	 width="49.1px" height="21.5px" viewBox="0 0 49.1 21.5" style="enable-background:new 0 0 49.1 21.5;" xml:space="preserve">
<style type="text/css">
	.st0{fill:#E71984;}
</style>
<g>
	<polygon class="st0" points="15.5,11.5 12.7,0.2 9.8,0.2 9.8,21.2 12.7,21.2 12.7,9.1 15.8,21.2 18.4,21.2 18.4,0.2 15.5,0.2 	"/>
	<path class="st0" d="M4.6,0H4.1C1.1,0,0,1.9,0,4.8v11.7c0,2.9,1.1,5,4.1,5h0.5c3.1,0,4.1-2,4.1-5V4.8C8.7,1.9,7.8,0,4.6,0z
		 M5.5,16.8c0,0.9-0.2,1.6-1.1,1.6c-0.9,0-1.2-0.7-1.2-1.6V4.7c0-1.1,0.3-1.6,1.1-1.6c0.7,0,1.1,0.5,1.1,1.6V16.8z"/>
	<polygon class="st0" points="44.8,18 44.8,12 48,12 48,8.8 44.8,8.8 44.8,3.3 48.9,3.3 48.9,0.2 41.6,0.2 41.6,21.2 49.1,21.2 
		49.1,18 	"/>
	<polygon class="st0" points="37.5,11.5 34.8,0.2 31.9,0.2 31.9,21.2 34.8,21.2 34.8,9.1 37.8,21.2 40.4,21.2 40.4,0.2 37.5,0.2 	
		"/>
	<polygon class="st0" points="22.8,0.2 19.6,0.2 19.6,21.2 26.7,21.2 26.7,18 22.8,18 	"/>
	<rect x="27.5" y="0.2" class="st0" width="3.2" height="21"/>
</g>
</svg>
