<?xml version="1.0" encoding="utf-8"?>
<!-- Generator: Adobe Illustrator 24.3.0, SVG Export Plug-In . SVG Version: 6.00 Build 0)  -->
<svg version="1.1" id="Laag_1" xmlns="http://www.w3.org/2000/svg" xmlns:xlink="http://www.w3.org/1999/xlink" x="0px" y="0px"
	 width="157.3px" height="157.3px" viewBox="0 0 157.3 157.3" style="enable-background:new 0 0 157.3 157.3;" xml:space="preserve"
	>
<style type="text/css">
	.st0{fill:#DBB05A;}
	.st1{fill:#FFFFFF;}
</style>
<g>
	<path class="st0" d="M66.4,156.4c42.9,6.8,83.2-22.5,90-65.4C163.2,48.1,133.9,7.8,91,1S7.8,23.5,1,66.4S23.5,149.6,66.4,156.4"/>
	<g>
		<path class="st1" d="M50.2,37.6c-0.2,1.5-0.9,2.8-2,3.8c-1.3,1.1-2.8,1.6-4.6,1.3c-1.8-0.3-3.1-1.2-4-2.6c-0.7-1.3-1-2.7-0.7-4.2
			c0.1-0.7,0.3-1.4,0.7-2.1c0.4-0.7,0.8-1.3,1.3-1.7c1.3-1.1,2.8-1.6,4.6-1.3c1.8,0.3,3.1,1.2,4,2.6C50.2,34.6,50.5,36,50.2,37.6z
			 M47.5,37.1c0.1-0.8,0-1.5-0.4-2.2c-0.5-0.8-1.2-1.3-2-1.5c-0.6-0.1-1.2,0-1.7,0.3c-0.6,0.3-1,0.7-1.3,1.3
			c-0.2,0.3-0.3,0.7-0.4,1.1c-0.1,0.8,0,1.5,0.4,2.1c0.5,0.8,1.1,1.3,2,1.5s1.7-0.1,2.4-0.8C47,38.6,47.3,37.9,47.5,37.1z"/>
		<path class="st1" d="M61.2,45l-2.7-0.4L54.8,37l-1.1,6.9L51,43.4l1.8-11.2l2.7,0.4l3.8,7.6l1.1-6.9l2.7,0.4L61.2,45z"/>
		<path class="st1" d="M70.8,37.5l-2.2-0.3L67.2,46l-2.7-0.4l1.4-8.8l-2.2-0.3l0.4-2.4l7,1.1L70.8,37.5z"/>
		<path class="st1" d="M80.4,42.3c-0.2,1.2-0.7,2.2-1.5,3.1s-1.7,1.5-2.8,1.7c-0.6,0.1-1.1,0.1-1.7,0l-3.9-0.6l1.8-11.2l3.9,0.6
			c1,0.2,1.8,0.6,2.5,1.3c0.7,0.7,1.2,1.6,1.5,2.6C80.5,40.6,80.5,41.5,80.4,42.3z M77.6,41.9c0.1-0.8,0-1.5-0.3-2.1
			c-0.4-0.8-1.1-1.4-2.2-1.5l-0.6-0.1l-1,6.4l0.6,0.1c1,0.2,1.9-0.1,2.5-0.8C77.2,43.3,77.5,42.6,77.6,41.9z"/>
		<path class="st1" d="M87,49.1l-5.8-0.9L83,37l5.8,0.9l-0.4,2.4l-3.2-0.5l-0.3,1.9l3,0.5l-0.4,2.4l-3-0.5l-0.3,2l3.2,0.5L87,49.1z"
			/>
		<path class="st1" d="M98.2,50.9l-3.4-0.5l-2.7-5.4l-0.8,4.9l-2.7-0.4l1.8-11.2l2.7,0.4l-0.7,4.6l4-4.1l3.3,0.5l-4.9,4.7L98.2,50.9
			z"/>
		<path class="st1" d="M113.8,53.4l-2.7-0.4l-3.8-7.6l-1.1,6.9l-2.7-0.4l1.8-11.2l2.7,0.4l3.8,7.6l1.1-6.9l2.7,0.4L113.8,53.4z"/>
		<path class="st1" d="M125.6,50.3c-0.1,0.7-0.2,1.2-0.4,1.7c-0.3,0.7-0.7,1.3-1.4,1.8c-1,0.7-2.1,1-3.5,0.8
			c-1.4-0.2-2.4-0.8-3.1-1.8c-0.3-0.5-0.5-1.2-0.6-1.9c0-0.5,0-1.2,0.2-2l1-6.5l2.7,0.4l-1,6.1c-0.1,0.5-0.1,0.9-0.2,1.1
			c-0.1,0.8,0.2,1.4,0.7,1.7c0.2,0.2,0.5,0.3,0.8,0.3c0.6,0.1,1.2-0.1,1.6-0.5c0.3-0.3,0.5-1,0.7-2.1l1-6.1l2.7,0.4L125.6,50.3z"/>
		<path class="st1" d="M42.3,60.3l-2.7-0.4l0.3-6.6l-3.5,6.1l-1.1-0.2L34,52.4l-1.9,6.3l-2.6-0.4l3.5-11l2.6,0.4l1.1,6.3l3.1-5.6
			l2.6,0.4L42.3,60.3z"/>
		<path class="st1" d="M49.8,61.5L44,60.6l1.8-11.2l5.8,0.9l-0.4,2.4L48,52.2l-0.3,1.9l3,0.5l-0.4,2.4l-3-0.5l-0.3,2l3.2,0.5
			L49.8,61.5z"/>
		<path class="st1" d="M57.3,62.7l-5.8-0.9l1.8-11.2l5.8,0.9l-0.4,2.4l-3.2-0.5l-0.3,1.9l3,0.5l-0.4,2.4l-3-0.5l-0.3,2l3.2,0.5
			L57.3,62.7z"/>
		<path class="st1" d="M67.4,64.3l-3.3-0.5l-1.9-4.7l-0.7,4.3L58.9,63l1.8-11.2l4.1,0.7c1.2,0.2,2,0.7,2.5,1.6
			c0.4,0.7,0.5,1.5,0.3,2.4c-0.2,1-0.6,1.7-1.2,2.2c-0.4,0.3-0.9,0.5-1.5,0.6L67.4,64.3z M64.9,56.1c0.1-0.4,0-0.8-0.2-1.1
			c-0.2-0.3-0.6-0.5-1.1-0.6L63,54.4l-0.4,2.8l0.5,0.1c0.6,0.1,1,0,1.3-0.2C64.7,56.8,64.8,56.5,64.9,56.1z"/>
		<path class="st1" d="M82.6,61c-0.2,1.2-0.7,2.2-1.5,3.1c-0.8,0.9-1.7,1.5-2.8,1.7c-0.6,0.1-1.1,0.1-1.7,0l-3.9-0.6l1.8-11.2
			l3.9,0.6c1,0.2,1.8,0.6,2.5,1.3c0.7,0.7,1.2,1.6,1.5,2.6C82.7,59.3,82.8,60.1,82.6,61z M79.9,60.5c0.1-0.8,0-1.5-0.3-2.1
			c-0.4-0.8-1.1-1.4-2.2-1.5l-0.6-0.1l-1,6.4l0.6,0.1c1,0.2,1.9-0.1,2.5-0.8C79.4,62,79.7,61.3,79.9,60.5z"/>
		<path class="st1" d="M93.1,68.4l-2.8-0.4l-0.3-2.1l-3.7-0.6l-1,1.8l-2.8-0.4l5.7-10.6l2.9,0.5L93.1,68.4z M89.6,63.5L89,59.8
			l-1.7,3.4L89.6,63.5z"/>
		<path class="st1" d="M104.5,70.2l-2.7-0.4L98,62.1L96.9,69l-2.7-0.4l1.8-11.2l2.7,0.4l3.8,7.6l1.1-6.9l2.7,0.4L104.5,70.2z"/>
		<path class="st1" d="M118.7,69.6l-1.5,2.5l-6.7-1.1l0-0.1l4.5-4.7c0.6-0.7,1-1.3,1.1-2c0.1-0.6,0-1.1-0.4-1.6
			c-0.3-0.4-0.8-0.6-1.5-0.7c-0.4-0.1-0.9,0-1.6,0.1l0.4-2.5c0.7-0.1,1.5-0.1,2.2,0.1c1.2,0.2,2.2,0.7,2.8,1.5
			c0.7,0.8,0.9,1.8,0.7,2.9c-0.2,1-0.6,1.9-1.4,2.8l-1.9,2.2L118.7,69.6z"/>
		<path class="st1" d="M129.2,62.2l-0.8,2l-2.8-0.4l-0.7,1.5c1.1,0.2,1.9,0.6,2.4,1.4c0.5,0.7,0.7,1.7,0.5,2.9
			c-0.2,1.4-0.9,2.5-1.9,3.2c-0.9,0.6-2,0.8-3.2,0.6c-0.5-0.1-1.2-0.3-1.9-0.7l0.4-2.5c0.5,0.3,1,0.6,1.6,0.6
			c1.5,0.2,2.4-0.3,2.6-1.5c0.2-1.1-0.6-1.8-2.2-2.2c-0.2,0-0.4-0.1-0.7-0.1c-0.3,0-0.6,0-0.7-0.1l2.2-5.5L129.2,62.2z"/>
		<path class="st1" d="M138.2,69.3c-0.3,1.8-0.9,3.2-1.7,4.3c-0.9,1.1-1.9,1.5-3.1,1.3c-1.2-0.2-2.1-0.9-2.6-2.2
			c-0.5-1.2-0.6-2.7-0.3-4.6c0.3-1.7,0.8-3,1.6-4c0.9-1.1,1.9-1.5,3.1-1.3c1.2,0.2,2,0.9,2.6,2.2C138.3,66.2,138.4,67.7,138.2,69.3z
			 M135.7,69c0.1-0.9,0.2-1.7,0-2.4c-0.2-0.7-0.4-1.1-0.9-1.2c-0.4-0.1-0.8,0.2-1.2,0.8c-0.3,0.6-0.6,1.3-0.7,2.3
			c-0.4,2.3-0.1,3.6,0.8,3.7C134.7,72.4,135.3,71.3,135.7,69z"/>
		<path class="st1" d="M24.8,64.4l-6.1,10.5l-2.1-0.3l-2.5-11.9l2.9,0.5l1.4,7.2l3.6-6.4L24.8,64.4z"/>
		<path class="st1" d="M35.8,71.9c-0.2,1.5-0.9,2.8-2,3.8c-1.3,1.1-2.8,1.6-4.6,1.3c-1.8-0.3-3.1-1.2-4-2.6c-0.7-1.3-1-2.7-0.7-4.2
			c0.1-0.7,0.3-1.4,0.7-2.1c0.4-0.7,0.8-1.3,1.3-1.7c1.3-1.1,2.8-1.6,4.6-1.3c1.8,0.3,3.1,1.2,4,2.6C35.8,69,36.1,70.4,35.8,71.9z
			 M33.1,71.5c0.1-0.8,0-1.5-0.4-2.2c-0.5-0.8-1.2-1.3-2-1.5c-0.6-0.1-1.2,0-1.7,0.3c-0.6,0.3-1,0.7-1.3,1.3
			c-0.2,0.3-0.3,0.7-0.4,1.1c-0.1,0.8,0,1.5,0.4,2.1c0.5,0.8,1.1,1.3,2,1.5s1.7-0.1,2.4-0.8C32.6,72.9,32.9,72.3,33.1,71.5z"/>
		<path class="st1" d="M48.3,73.9c-0.2,1.5-0.9,2.8-2,3.8c-1.3,1.1-2.8,1.6-4.6,1.3c-1.8-0.3-3.1-1.2-4-2.6c-0.7-1.3-1-2.7-0.7-4.2
			c0.1-0.7,0.3-1.4,0.7-2.1c0.4-0.7,0.8-1.3,1.3-1.7c1.3-1.1,2.8-1.6,4.6-1.3c1.8,0.3,3.1,1.2,4,2.6C48.3,71,48.6,72.4,48.3,73.9z
			 M45.6,73.5c0.1-0.8,0-1.5-0.4-2.2c-0.5-0.8-1.2-1.3-2-1.5c-0.6-0.1-1.2,0-1.7,0.3c-0.6,0.3-1,0.7-1.3,1.3
			c-0.2,0.3-0.3,0.7-0.4,1.1c-0.1,0.8,0,1.5,0.4,2.1c0.5,0.8,1.1,1.3,2,1.5s1.7-0.1,2.4-0.8C45.1,74.9,45.5,74.2,45.6,73.5z"/>
		<path class="st1" d="M57.6,81.1l-3.3-0.5l-1.9-4.7l-0.7,4.3l-2.7-0.4l1.8-11.2l4.1,0.7c1.2,0.2,2,0.7,2.5,1.6
			c0.4,0.7,0.5,1.5,0.3,2.4c-0.2,1-0.6,1.7-1.2,2.2c-0.4,0.3-0.9,0.5-1.5,0.6L57.6,81.1z M55.1,72.9c0.1-0.4,0-0.8-0.2-1.1
			c-0.2-0.3-0.6-0.5-1.1-0.6l-0.5-0.1L52.8,74l0.5,0.1c0.6,0.1,1,0,1.3-0.2C54.8,73.6,55,73.3,55.1,72.9z"/>
		<path class="st1" d="M66.4,78.7c-0.3,1.9-1.3,3-2.9,3.4c-0.6,0.1-1.1,0.1-1.8,0c-1.3-0.2-2.4-0.8-3.4-1.8l1.5-2.2
			c0.7,0.9,1.4,1.4,2.2,1.6c0.3,0.1,0.7,0,0.9-0.1c0.3-0.2,0.5-0.4,0.6-0.8c0.1-0.3-0.1-0.6-0.3-0.9c-0.2-0.2-0.6-0.4-1.1-0.7
			c-0.6-0.3-1-0.5-1.2-0.6c-0.2-0.2-0.5-0.4-0.6-0.6c-0.5-0.6-0.6-1.4-0.5-2.4c0.2-1,0.6-1.9,1.3-2.5c0.8-0.7,1.7-1,2.8-0.8
			c1.1,0.2,2.1,0.6,3.1,1.4l-1.4,2.1c-0.5-0.6-1-0.9-1.6-1c-0.3,0-0.6,0-0.8,0.1c-0.3,0.1-0.4,0.4-0.5,0.7c0,0.3,0.1,0.6,0.4,0.8
			c0.1,0.1,0.6,0.4,1.3,0.7c0.9,0.5,1.5,1,1.8,1.6C66.4,77.3,66.5,77.9,66.4,78.7z"/>
		<path class="st1" d="M74.9,74.8l-2.2-0.3l-1.4,8.8l-2.7-0.4l1.4-8.8l-2.2-0.3l0.4-2.4l7,1.1L74.9,74.8z"/>
		<path class="st1" d="M80.5,84.7l-5.8-0.9l1.8-11.2l5.8,0.9l-0.4,2.4l-3.2-0.5l-0.3,1.9l3,0.5L81,80.2l-3-0.5l-0.3,2l3.2,0.5
			L80.5,84.7z"/>
		<path class="st1" d="M88,85.9L82.2,85L84,73.7l2.7,0.4L85.2,83l3.2,0.5L88,85.9z"/>
		<path class="st1" d="M95.2,87l-5.8-0.9l1.8-11.2l2.7,0.4l-1.4,8.8l3.2,0.5L95.2,87z"/>
		<path class="st1" d="M99.3,87.7l-2.7-0.4L98.4,76l2.7,0.4L99.3,87.7z"/>
		<path class="st1" d="M111.6,89.6l-2.7-0.4l-3.8-7.6l-1.1,6.9l-2.7-0.4l1.8-11.2l2.7,0.4l3.8,7.6l1.1-6.9l2.7,0.4L111.6,89.6z"/>
		<path class="st1" d="M124.9,85.3c-0.2,1.2-0.5,2.2-0.8,2.9c-0.6,1.1-1.3,1.9-2.3,2.4c-0.9,0.5-2,0.6-3.1,0.4
			c-1.9-0.3-3.2-1.2-4-2.8c-0.6-1.2-0.8-2.5-0.5-4c0.3-1.6,0.9-2.9,2-3.9c1.2-1.1,2.7-1.5,4.5-1.2c1.2,0.2,2.2,0.7,2.9,1.5
			c0.5,0.6,0.9,1.4,1.2,2.4l-2.7,0.7c-0.1-0.6-0.3-1-0.6-1.3c-0.4-0.4-0.8-0.7-1.4-0.8c-1.2-0.2-2.1,0.3-2.7,1.6
			c-0.2,0.5-0.4,0.9-0.5,1.5c-0.2,1.1,0,2,0.5,2.8c0.4,0.6,0.9,1,1.7,1.1c0.7,0.1,1.2,0,1.7-0.4c0.3-0.2,0.5-0.6,0.7-1.2l-2.2-0.3
			l0.4-2.2L124.9,85.3z"/>
		<path class="st1" d="M131.4,92.8l-5.8-0.9l1.8-11.2l5.8,0.9l-0.4,2.4l-3.2-0.5l-0.3,1.9l3,0.5l-0.4,2.4l-3-0.5l-0.3,2l3.2,0.5
			L131.4,92.8z"/>
		<path class="st1" d="M143.3,94.6l-2.7-0.4l-3.8-7.6l-1.1,6.9l-2.7-0.4l1.8-11.2l2.7,0.4l3.8,7.6l1.1-6.9l2.7,0.4L143.3,94.6z"/>
		<path class="st1" d="M20.3,93.5l-2.7-0.4l1.8-11.2l2.7,0.4L20.3,93.5z"/>
		<path class="st1" d="M32.6,95.4L30,95l-3.8-7.6l-1.1,6.9l-2.7-0.4l1.8-11.2l2.7,0.4l3.8,7.6l1.1-6.9l2.7,0.4L32.6,95.4z"/>
		<path class="st1" d="M50.7,92.6c-0.2,1.5-0.9,2.8-2,3.8c-1.3,1.1-2.8,1.6-4.6,1.3c-1.8-0.3-3.1-1.2-4-2.6c-0.7-1.3-1-2.7-0.7-4.2
			c0.1-0.7,0.3-1.4,0.7-2.1c0.4-0.7,0.8-1.3,1.3-1.7c1.3-1.1,2.8-1.6,4.6-1.3c1.8,0.3,3.1,1.2,4,2.6C50.7,89.7,51,91.1,50.7,92.6z
			 M48,92.2c0.1-0.8,0-1.5-0.4-2.2c-0.5-0.8-1.2-1.3-2-1.5c-0.6-0.1-1.2,0-1.7,0.3c-0.6,0.3-1,0.7-1.3,1.3c-0.2,0.3-0.3,0.7-0.4,1.1
			c-0.1,0.8,0,1.5,0.4,2.1c0.5,0.8,1.1,1.3,2,1.5c0.9,0.1,1.7-0.1,2.4-0.8C47.5,93.6,47.9,92.9,48,92.2z"/>
		<path class="st1" d="M61.7,100l-2.7-0.4L55.3,92l-1.1,6.9l-2.7-0.4l1.8-11.2l2.7,0.4l3.8,7.6l1.1-6.9l2.7,0.4L61.7,100z"/>
		<path class="st1" d="M71.5,97.8c-0.3,1.9-1.3,3-2.9,3.4c-0.6,0.1-1.1,0.1-1.8,0c-1.3-0.2-2.4-0.8-3.4-1.8l1.5-2.2
			c0.7,0.9,1.4,1.4,2.2,1.6c0.3,0.1,0.7,0,0.9-0.1c0.3-0.2,0.5-0.4,0.6-0.8c0.1-0.3-0.1-0.6-0.3-0.9c-0.2-0.2-0.6-0.4-1.1-0.7
			c-0.6-0.3-1-0.5-1.2-0.6c-0.2-0.2-0.5-0.4-0.6-0.6c-0.5-0.6-0.6-1.4-0.5-2.4c0.2-1,0.6-1.9,1.3-2.5c0.8-0.7,1.7-1,2.8-0.8
			c1.1,0.2,2.1,0.6,3.1,1.4L70.8,93c-0.5-0.6-1-0.9-1.6-1c-0.3,0-0.6,0-0.8,0.1c-0.3,0.1-0.4,0.4-0.5,0.7c0,0.3,0.1,0.6,0.4,0.8
			c0.1,0.1,0.6,0.4,1.3,0.7c0.9,0.5,1.5,1,1.8,1.6C71.6,96.4,71.7,97.1,71.5,97.8z"/>
		<path class="st1" d="M87.1,104.1l-2.7-0.4L80.6,96l-1.1,6.9l-2.7-0.4l1.8-11.2l2.7,0.4l3.8,7.6l1.1-6.9l2.7,0.4L87.1,104.1z"/>
		<path class="st1" d="M91.8,104.8l-2.7-0.4L91,93.2l2.7,0.4L91.8,104.8z"/>
		<path class="st1" d="M99.8,106.1l-5.8-0.9l1.8-11.2l5.8,0.9l-0.4,2.4L98,96.8l-0.3,1.9l3,0.5l-0.4,2.4l-3-0.5l-0.3,2l3.2,0.5
			L99.8,106.1z"/>
		<path class="st1" d="M111.1,103c-0.1,0.7-0.2,1.2-0.4,1.7c-0.3,0.7-0.7,1.3-1.4,1.8c-1,0.7-2.1,1-3.5,0.8
			c-1.4-0.2-2.4-0.8-3.1-1.8c-0.3-0.5-0.5-1.2-0.6-1.9c0-0.5,0-1.2,0.2-2l1-6.5l2.7,0.4l-1,6.1c-0.1,0.5-0.1,0.9-0.2,1.1
			c-0.1,0.8,0.2,1.4,0.7,1.7c0.2,0.2,0.5,0.3,0.8,0.3c0.6,0.1,1.2-0.1,1.6-0.5c0.3-0.3,0.5-1,0.7-2.1l1-6.1l2.7,0.4L111.1,103z"/>
		<path class="st1" d="M128.8,99.1l-5,10.7l-2.7-0.4l-0.8-6.8l-3,6.2l-2.7-0.4l-1.3-11.7l2.8,0.4l0.6,7.5l3.3-6.9l2.1,0.3l0.9,7.6
			l3.1-6.9L128.8,99.1z"/>
		<path class="st1" d="M133.9,111.5l-5.8-0.9l1.8-11.2l5.8,0.9l-0.4,2.4l-3.2-0.5l-0.3,1.9l3,0.5l-0.4,2.4l-3-0.5l-0.3,2l3.2,0.5
			L133.9,111.5z"/>
		<path class="st1" d="M49.9,112.7c-0.3,1.9-1.3,3-2.9,3.4c-0.6,0.1-1.1,0.1-1.8,0c-1.3-0.2-2.4-0.8-3.4-1.8l1.5-2.2
			c0.7,0.9,1.4,1.4,2.2,1.6c0.3,0.1,0.7,0,0.9-0.1c0.3-0.2,0.5-0.4,0.6-0.8c0.1-0.3-0.1-0.6-0.3-0.9c-0.2-0.2-0.6-0.4-1.1-0.7
			c-0.6-0.3-1-0.5-1.2-0.6c-0.2-0.2-0.5-0.4-0.6-0.6c-0.5-0.6-0.6-1.4-0.5-2.4c0.2-1,0.6-1.9,1.3-2.5c0.8-0.7,1.7-1,2.8-0.8
			c1.1,0.2,2.1,0.6,3.1,1.4l-1.4,2.1c-0.5-0.6-1-0.9-1.6-1c-0.3,0-0.6,0-0.8,0.1c-0.3,0.1-0.4,0.4-0.5,0.7c0,0.3,0.1,0.6,0.4,0.8
			c0.1,0.1,0.6,0.4,1.3,0.7c0.9,0.5,1.5,1,1.8,1.6C49.9,111.3,50,111.9,49.9,112.7z"/>
		<path class="st1" d="M56.8,117.6l-5.8-0.9l1.8-11.2l5.8,0.9l-0.4,2.4l-3.2-0.5l-0.3,1.9l3,0.5l-0.4,2.4l-3-0.5l-0.3,2l3.2,0.5
			L56.8,117.6z"/>
		<path class="st1" d="M61.1,118.3l-2.7-0.4l1.8-11.2l2.7,0.4L61.1,118.3z"/>
		<path class="st1" d="M73.5,108.7l-6.2,8l4.3,0.7l-0.4,2.4l-8.7-1.4l6.2-8l-4-0.6l0.4-2.4L73.5,108.7z"/>
		<path class="st1" d="M84.7,116.3c-0.2,1.5-0.9,2.8-2,3.8c-1.3,1.1-2.8,1.6-4.6,1.3c-1.8-0.3-3.1-1.2-4-2.6c-0.7-1.3-1-2.7-0.7-4.2
			c0.1-0.7,0.3-1.4,0.7-2.1c0.4-0.7,0.8-1.3,1.3-1.7c1.3-1.1,2.8-1.6,4.6-1.3s3.1,1.2,4,2.6C84.7,113.3,84.9,114.7,84.7,116.3z
			 M81.9,115.8c0.1-0.8,0-1.5-0.4-2.2c-0.5-0.8-1.2-1.3-2-1.5c-0.6-0.1-1.2,0-1.7,0.3c-0.6,0.3-1,0.7-1.3,1.3
			c-0.2,0.3-0.3,0.7-0.4,1.1c-0.1,0.8,0,1.5,0.4,2.1c0.5,0.8,1.1,1.3,2,1.5s1.7-0.1,2.4-0.8C81.5,117.3,81.8,116.6,81.9,115.8z"/>
		<path class="st1" d="M91.3,123l-5.8-0.9l1.8-11.2l5.8,0.9l-0.4,2.4l-3.2-0.5l-0.3,1.9l3,0.5l-0.4,2.4l-3-0.5l-0.3,2l3.2,0.5
			L91.3,123z"/>
		<path class="st1" d="M103.2,124.9l-2.7-0.4l-3.8-7.6l-1.1,6.9l-2.7-0.4l1.8-11.2l2.7,0.4l3.8,7.6l1.1-6.9l2.7,0.4L103.2,124.9z"/>
	</g>
</g>
</svg>
