<?xml version="1.0" encoding="utf-8"?>
<!-- Generator: Adobe Illustrator 24.3.0, SVG Export Plug-In . SVG Version: 6.00 Build 0)  -->
<svg version="1.1" id="Laag_1" xmlns="http://www.w3.org/2000/svg" xmlns:xlink="http://www.w3.org/1999/xlink" x="0px" y="0px"
	 width="244.5px" height="93.6px" viewBox="0 0 244.5 93.6" style="enable-background:new 0 0 244.5 93.6;" xml:space="preserve">
<style type="text/css">
	.st0{clip-path:url(#SVGID_1_);}
	.st1{fill:none;stroke:#FAE513;stroke-width:1.2048;stroke-miterlimit:10;}
	.st2{fill:none;stroke:#FAE513;stroke-width:0.8038;stroke-miterlimit:10;}
</style>
<g>
	<defs>
		<rect id="SVGID_3_" x="19.5" y="-1.2" width="316.9" height="95.4"/>
	</defs>
	<clipPath id="SVGID_1_">
		<use xlink:href="#SVGID_3_"  style="overflow:visible;"/>
	</clipPath>
	<g class="st0">
		<path class="st1" d="M32.7,25.5c-0.7,3.7-2.4,6.5-5.1,8.6c-2.7,2.1-6,3.1-9.9,3.1c-5.2,0-9.4-1.7-12.5-5c-3.1-3.3-4.6-7.7-4.6-13
			c0-5.3,1.5-9.6,4.6-13c3-3.4,7-5,11.9-5c3.8,0,7.1,1,9.9,3s4.4,4.9,5.1,8.8h-7.2c-0.5-1.7-1.4-3-2.7-4c-1.3-1-3-1.4-5-1.4
			c-2.8,0-5.1,1.1-6.8,3.3c-1.7,2.2-2.5,5-2.5,8.4c0,3.5,0.9,6.3,2.6,8.4s4.1,3.2,7.1,3.2c1.9,0,3.6-0.5,5-1.5
			c1.4-1,2.4-2.3,2.9-3.9H32.7z"/>
		<path class="st1" d="M51.1,11.3c2.9,0,5.2,0.9,7,2.8c1.8,1.8,2.6,4.4,2.6,7.7v15H54V24c0-2.1-0.5-3.7-1.5-4.9s-2.4-1.7-4.2-1.7
			c-1.5,0-2.8,0.5-3.8,1.6c-1,1.1-1.5,2.7-1.5,4.8v13H36V1.3h6.9v13.3h0.5C45.5,12.4,48,11.3,51.1,11.3z"/>
		<path class="st1" d="M68.2,8.8c-1.1,0-2.1-0.4-2.9-1.2c-0.8-0.8-1.2-1.8-1.2-2.8c0-1.2,0.4-2.1,1.2-2.9c0.8-0.8,1.8-1.2,2.9-1.2
			c1.1,0,2.1,0.4,2.9,1.2s1.2,1.8,1.2,2.9c0,1.1-0.4,2-1.2,2.8C70.3,8.4,69.3,8.8,68.2,8.8z M71.4,11.8v25h-6.5v-25H71.4z"/>
		<path class="st1" d="M75.7,1.3h6.6v35.5h-6.6V1.3z"/>
		<path class="st1" d="M103.6,1.2h6.3v35.6h-5l-0.8-2.9h-0.6c-1.7,2.2-4.1,3.4-7.1,3.4c-3.2,0-5.9-1.2-8.1-3.5s-3.3-5.5-3.3-9.4
			c0-3.9,1.1-7.1,3.4-9.5c2.3-2.4,5-3.6,8.4-3.6c3.1,0,5.4,1,6.8,3.1V1.2z M93.2,29.4c1.1,1.3,2.6,2,4.4,2s3.2-0.7,4.3-2
			c1.1-1.3,1.7-3.1,1.7-5.2c0-2.1-0.5-3.8-1.7-5.2c-1.1-1.3-2.5-2-4.3-2s-3.3,0.7-4.4,2c-1.2,1.3-1.7,3-1.7,5.2
			C91.5,26.3,92,28.1,93.2,29.4z"/>
		<path class="st1" d="M128.7,11.3h1.8v6.5c-0.9-0.2-1.8-0.3-2.6-0.3c-2,0-3.7,0.7-5,2c-1.3,1.4-2,3.5-2,6.2v11h-6.8v-25h5.3
			l0.9,3.5h0.5C122.8,12.6,125.4,11.3,128.7,11.3z"/>
		<path class="st1" d="M149.6,28.9h6.2c-0.6,2.6-1.9,4.7-4.1,6.2s-4.7,2.2-7.6,2.2c-3.9,0-7-1.2-9.3-3.6c-2.3-2.4-3.5-5.6-3.5-9.5
			c0-3.8,1.2-6.9,3.6-9.3c2.4-2.4,5.3-3.6,8.8-3.6c1.7,0,3.3,0.3,4.8,0.8c1.5,0.5,2.8,1.4,4,2.5c1.2,1.1,2.1,2.7,2.6,4.6
			c0.6,2,0.8,4.2,0.6,6.8h-18.2c0.6,4,2.8,6,6.7,6c1.2,0,2.3-0.3,3.3-0.8S149.1,29.8,149.6,28.9z M143.8,16.4c-1.6,0-2.9,0.4-4,1.3
			c-1.1,0.9-1.8,2.1-2.2,3.6h11.9c-0.1-1.3-0.6-2.5-1.7-3.5S145.5,16.4,143.8,16.4z"/>
		<path class="st1" d="M173,11.3c2.9,0,5.2,1,7,3c1.8,2,2.7,4.8,2.7,8.4v14.2H176v-13c0-2.1-0.5-3.8-1.5-4.9c-1-1.1-2.3-1.6-3.9-1.6
			c-1.5,0-2.7,0.5-3.7,1.6c-1,1.1-1.5,2.7-1.5,4.8v13.2h-6.8v-25h5.3l0.9,3h0.5c0.5-0.7,1-1.2,1.5-1.6c0.5-0.4,1.3-0.8,2.4-1.3
			C170.2,11.5,171.5,11.3,173,11.3z"/>
		<path class="st1" d="M220.5,33.6c-2.5,2.4-5.6,3.7-9.4,3.7s-6.9-1.2-9.4-3.7c-2.6-2.4-3.8-5.5-3.8-9.3s1.3-6.9,3.8-9.3
			c2.5-2.4,5.7-3.7,9.4-3.7s6.9,1.2,9.4,3.6c2.5,2.4,3.8,5.5,3.8,9.4C224.2,28.1,223,31.2,220.5,33.6z M211.1,31.5
			c1.9,0,3.5-0.7,4.8-2.1c1.2-1.4,1.9-3.1,1.9-5.2c0-2.1-0.6-3.8-1.9-5.2c-1.2-1.4-2.8-2.1-4.8-2.1s-3.6,0.7-4.8,2.1
			c-1.2,1.4-1.9,3.1-1.9,5.2c0,2.1,0.6,3.8,1.9,5.2C207.5,30.8,209.1,31.5,211.1,31.5z"/>
		<path class="st1" d="M236.1,10.3v1.5h6.6V17h-6.6v19.8h-6.4V17h-4.9v-5.2h4.9v-2c0-2.6,0.8-4.7,2.3-6.2s3.5-2.3,5.8-2.3
			c2.6,0,4.6,0.6,6,1.8l-1.8,5c-0.9-0.8-1.9-1.1-3-1.1c-0.9,0-1.6,0.3-2.1,0.8C236.4,8.4,236.1,9.2,236.1,10.3z"/>
		<path class="st1" d="M22.5,47.5h6.8v35h-6.8V67.8H8.4v14.7H1.6v-35h6.8v14.2h14.1V47.5z"/>
		<path class="st1" d="M54.8,75c0,0.8,0.2,1.4,0.5,1.7c0.3,0.3,0.8,0.5,1.6,0.5v5.3h-1.2c-2.9,0-4.7-1.1-5.4-3.2
			c-2.1,2.5-5,3.8-8.7,3.8c-2.7,0-4.8-0.6-6.4-1.9c-1.6-1.3-2.4-3-2.4-5.3c0-5,3.7-7.8,11.2-8.3l4.7-0.4v-0.5c0-1.4-0.4-2.6-1.1-3.4
			c-0.8-0.8-1.8-1.2-3-1.2c-1.4,0-2.4,0.4-3.1,1.2c-0.7,0.8-1.1,1.7-1.3,2.8h-6.2c0.2-2.6,1.2-4.8,3.1-6.4c1.9-1.6,4.3-2.5,7.4-2.5
			c3.1,0,5.6,0.9,7.5,2.7c1.9,1.8,2.9,4.3,2.9,7.6V75z M42.5,77.9c1.6,0,3-0.5,4.2-1.6c1.2-1.1,1.8-2.5,1.8-4.3v-0.5l-3.2,0.2
			c-4.1,0.4-6.1,1.6-6.1,3.6c0,0.8,0.3,1.4,0.9,1.9C40.7,77.7,41.5,77.9,42.5,77.9z"/>
		<path class="st1" d="M72.9,57.1c3.2,0,5.9,1.2,8.1,3.5c2.2,2.4,3.3,5.5,3.3,9.4c0,3.9-1.1,7.1-3.4,9.5c-2.3,2.4-5,3.6-8.3,3.6
			c-3.1,0-5.4-1-6.8-3.1v12.5h-6.3v-35h5l0.8,2.9h0.6C67.5,58.2,69.9,57.1,72.9,57.1z M67.5,75.2c1.1,1.3,2.5,2,4.3,2
			c1.8,0,3.3-0.7,4.4-2c1.1-1.3,1.7-3,1.7-5.2c0-2.1-0.6-3.9-1.7-5.2c-1.2-1.3-2.6-2-4.4-2c-1.8,0-3.2,0.7-4.3,2
			c-1.1,1.3-1.7,3.1-1.7,5.2C65.8,72.2,66.4,73.9,67.5,75.2z"/>
		<path class="st1" d="M100.4,57.1c3.2,0,5.9,1.2,8.1,3.5c2.2,2.4,3.3,5.5,3.3,9.4c0,3.9-1.1,7.1-3.4,9.5c-2.3,2.4-5,3.6-8.3,3.6
			c-3.1,0-5.4-1-6.8-3.1v12.5H87v-35h5l0.8,2.9h0.6C95,58.2,97.4,57.1,100.4,57.1z M95,75.2c1.1,1.3,2.5,2,4.3,2
			c1.8,0,3.3-0.7,4.4-2c1.1-1.3,1.7-3,1.7-5.2c0-2.1-0.6-3.9-1.7-5.2c-1.2-1.3-2.6-2-4.4-2c-1.8,0-3.2,0.7-4.3,2
			c-1.1,1.3-1.7,3.1-1.7,5.2C93.3,72.2,93.9,73.9,95,75.2z"/>
		<path class="st1" d="M131.7,57.5h6.7l-9,27c-0.9,2.7-2.1,4.8-3.7,6.3c-1.6,1.5-3.8,2.2-6.7,2.2c-2.9,0-5.1-0.8-6.6-2.3l2.6-4.6
			c1.1,1,2.3,1.5,3.6,1.5c0.9,0,1.8-0.3,2.6-1c0.8-0.7,1.3-1.5,1.7-2.6l0.5-1.5H121l-9.7-25h7l6.9,18.4h0.6L131.7,57.5z"/>
		<path class="st1" d="M140.5,47h6.6v35.5h-6.6V47z"/>
		<path class="st1" d="M172.1,75c0,0.8,0.2,1.4,0.5,1.7c0.3,0.3,0.8,0.5,1.6,0.5v5.3H173c-2.9,0-4.7-1.1-5.4-3.2
			c-2.1,2.5-5,3.8-8.7,3.8c-2.7,0-4.8-0.6-6.4-1.9c-1.6-1.3-2.4-3-2.4-5.3c0-5,3.7-7.8,11.2-8.3l4.7-0.4v-0.5c0-1.4-0.4-2.6-1.1-3.4
			c-0.8-0.8-1.8-1.2-3-1.2c-1.4,0-2.4,0.4-3.1,1.2c-0.7,0.8-1.1,1.7-1.3,2.8h-6.2c0.2-2.6,1.2-4.8,3.1-6.4c1.9-1.6,4.3-2.5,7.4-2.5
			c3.1,0,5.6,0.9,7.5,2.7c1.9,1.8,2.9,4.3,2.9,7.6V75z M159.8,77.9c1.6,0,3-0.5,4.2-1.6c1.2-1.1,1.8-2.5,1.8-4.3v-0.5l-3.2,0.2
			c-4.1,0.4-6.1,1.6-6.1,3.6c0,0.8,0.3,1.4,0.9,1.9C158,77.7,158.8,77.9,159.8,77.9z"/>
		<path class="st1" d="M191.1,57c2.9,0,5.2,1,7,3c1.8,2,2.7,4.8,2.7,8.4v14.2h-6.8v-13c0-2.1-0.5-3.8-1.5-4.9
			c-1-1.1-2.3-1.6-3.9-1.6c-1.5,0-2.7,0.5-3.7,1.6c-1,1.1-1.5,2.7-1.5,4.8v13.2h-6.8v-25h5.3l0.9,3h0.5c0.5-0.7,1-1.2,1.5-1.6
			c0.5-0.4,1.3-0.8,2.4-1.3C188.4,57.3,189.7,57,191.1,57z"/>
		<path class="st1" d="M222.2,46.9h6.3v35.6h-5l-0.8-2.9h-0.6c-1.7,2.2-4.1,3.4-7.1,3.4c-3.2,0-5.9-1.2-8.1-3.5s-3.3-5.5-3.3-9.4
			c0-3.9,1.1-7.1,3.4-9.5c2.3-2.4,5-3.6,8.4-3.6c3.1,0,5.4,1,6.8,3.1V46.9z M211.8,75.2c1.1,1.3,2.6,2,4.4,2s3.2-0.7,4.3-2
			c1.1-1.3,1.7-3.1,1.7-5.2c0-2.1-0.5-3.8-1.7-5.2c-1.1-1.3-2.5-2-4.3-2s-3.3,0.7-4.4,2c-1.2,1.3-1.7,3-1.7,5.2
			C210.1,72.1,210.7,73.9,211.8,75.2z"/>
	</g>
	<g class="st0">
		<path class="st2" d="M44.2,145"/>
		<path class="st2" d="M171.8,145"/>
	</g>
</g>
</svg>
