<?xml version="1.0" encoding="utf-8"?>
<!-- Generator: Adobe Illustrator 24.0.0, SVG Export Plug-In . SVG Version: 6.00 Build 0)  -->
<svg version="1.1" id="Laag_1" xmlns="http://www.w3.org/2000/svg" xmlns:xlink="http://www.w3.org/1999/xlink" x="0px" y="0px"
	 width="384.6px" height="42.3px" viewBox="0 0 384.6 42.3" style="enable-background:new 0 0 384.6 42.3;" xml:space="preserve">
<style type="text/css">
	.st0{fill:#BCBEC0;}
	.st1{fill:#FFFFFF;}
</style>
<path class="st0" d="M107.1,29.8l-3-3c-1.5,1.5-3.6,2.5-6,2.5c-4.7,0-8.4-3.8-8.4-8.4c0-4.7,3.8-8.4,8.4-8.4c4.2,0,8.4,3.1,8.4,7.1
	h4.3c0-6.4-6.1-11.3-12.7-11.3c-7,0-12.7,5.7-12.7,12.7s5.7,12.7,12.7,12.7C101.7,33.6,104.8,32.1,107.1,29.8 M115.6,17.4
	c0-5.1,4.1-9.3,9.3-9.3v4.3c-2.7,0-5,2.2-5,5H115.6z M186.3,33c0,5.1-4.1,9.3-9.3,9.3V38c2.7,0,5-2.2,5-5H186.3z M184.1,0
	c-1.6,0-2.9,1.3-2.9,2.9s1.3,2.9,2.9,2.9c1.6,0,2.9-1.3,2.9-2.9S185.7,0,184.1,0 M171.6,0c-1.6,0-2.9,1.3-2.9,2.9s1.3,2.9,2.9,2.9
	c1.6,0,2.9-1.3,2.9-2.9S173.2,0,171.6,0 M52.1,19.5c0-6.3-5.1-11.4-11.4-11.4s-11.4,5.1-11.4,11.4h4.3c0-3.9,3.2-7.1,7.1-7.1
	s7.1,3.2,7.1,7.1H52.1z M77.2,20.8c0,4.7-3.8,8.4-8.4,8.4c-4.7,0-8.4-3.8-8.4-8.4c0-4.7,3.8-8.4,8.4-8.4
	C73.4,12.4,77.2,16.2,77.2,20.8 M68.7,8.1c-7,0-12.7,5.7-12.7,12.7s5.7,12.7,12.7,12.7s12.7-5.7,12.7-12.7
	C81.4,13.8,75.7,8.1,68.7,8.1 M21.2,20.8c0,4.7-3.8,8.4-8.4,8.4c-4.7,0-8.4-3.8-8.4-8.4c0-4.7,3.8-8.4,8.4-8.4S21.2,16.2,21.2,20.8
	 M12.7,8.1C5.7,8.1,0,13.8,0,20.8s5.7,12.7,12.7,12.7s12.7-5.7,12.7-12.7S19.8,8.1,12.7,8.1 M153.3,33.6c5.1,0,9.3-4.1,9.3-9.3h-4.3
	c0,2.7-2.2,5-5,5c-2.7,0-5-2.2-5-5H144c0,2.7-2.2,5-5,5s-5-2.2-5-5h-4.3c0,5.1,4.1,9.3,9.3,9.3c2.9,0,5.4-1.3,7.1-3.3
	C147.9,32.3,150.4,33.6,153.3,33.6 M200.5,24.3c0,5.1-4.1,9.3-9.3,9.3v-4.3c2.7,0,5-2.2,5-5H200.5z M196.2,17.4
	c0-5.1,4.1-9.3,9.3-9.3v4.3c-2.7,0-5,2.2-5,5H196.2z"/>
<path class="st1" d="M81.4,20.8c0-3.8-1.7-7.2-4.3-9.5l0,0V0.7h4.3V20.8z M110.8,19.4v4.3H90.2c-0.3-0.9-0.5-1.9-0.5-2.9
	c0-0.5,0-0.9,0.1-1.4C89.8,19.4,110.8,19.4,110.8,19.4z M115.6,17.4h4.3V33h-4.3V17.4z M169.5,33h4.3V8.7h-4.3V33z M47.8,33h4.3
	V19.5h-4.3V33z M29.4,33h4.3V19.5h-4.3C29.4,19.5,29.4,33,29.4,33z M158.2,24.3h4.3V8.7h-4.3V24.3z M144,24.3h4.3V8.7H144V24.3z
	 M129.8,24.3h4.3V8.7h-4.3V24.3z M182,33h4.3V8.7H182V33z M196.2,24.3h4.3v-6.9h-4.3V24.3z"/>
<path class="st1" d="M316.5,19.3v4.3h-20.7c-0.3-0.9-0.5-1.9-0.5-2.9c0-0.5,0-0.9,0.1-1.4C295.3,19.3,316.5,19.3,316.5,19.3z"/>
<rect x="247.5" y="8.5" class="st1" width="4.3" height="13.5"/>
<rect x="209.5" y="17.2" class="st1" width="4.3" height="15.6"/>
<rect x="223.8" y="17.2" class="st1" width="4.3" height="15.6"/>
<rect x="238" y="17.2" class="st1" width="4.3" height="15.6"/>
<rect x="278.5" y="17.2" class="st1" width="4.3" height="6.9"/>
<rect x="266" y="8.5" class="st1" width="4.3" height="13.5"/>
<rect x="321.4" y="8.5" class="st1" width="4.3" height="13.5"/>
<rect x="339.9" y="8.5" class="st1" width="4.3" height="13.5"/>
<rect x="349.4" y="17.2" class="st1" width="4.3" height="15.6"/>
<rect x="363.6" y="17.2" class="st1" width="4.3" height="15.6"/>
<rect x="377.9" y="17.2" class="st1" width="4.3" height="15.6"/>
<path class="st0" d="M312.8,29.7l-3-3c-1.5,1.5-3.6,2.5-6,2.5c-4.7,0-8.4-3.8-8.4-8.4s3.8-8.4,8.4-8.4c4.2,0,8.4,3.1,8.4,7.1h4.3
	c0-6.4-6.1-11.3-12.7-11.3c-7,0-12.7,5.7-12.7,12.7s5.7,12.7,12.7,12.7C307.2,33.4,310.5,32,312.8,29.7"/>
<path class="st0" d="M247.6,22c0,6.3,5.1,11.4,11.4,11.4c6.3,0,11.4-5.1,11.4-11.4h-4.3c0,3.9-3.2,7.1-7.1,7.1
	c-3.9,0-7.1-3.2-7.1-7.1C251.9,22,247.6,22,247.6,22z"/>
<path class="st0" d="M218.8,7.9c-5.1,0-9.3,4.1-9.3,9.3h4.3c0-2.7,2.2-5,5-5c2.7,0,5,2.2,5,5h4.3c0-2.7,2.2-5,5-5c2.7,0,5,2.2,5,5
	h4.3c0-5.1-4.1-9.3-9.3-9.3c-2.9,0-5.4,1.3-7.1,3.3C224.2,9.2,221.6,7.9,218.8,7.9"/>
<path class="st0" d="M282.8,24.1c0,5.1-4.1,9.3-9.3,9.3v-4.3c2.7,0,5-2.2,5-5C278.4,24.1,282.8,24.1,282.8,24.1z"/>
<path class="st0" d="M278.5,17.2c0-5.1,4.1-9.3,9.3-9.3v4.3c-2.7,0-5,2.2-5,5H278.5z"/>
<path class="st0" d="M321.5,22c0,6.3,5.1,11.4,11.4,11.4c6.3,0,11.4-5.1,11.4-11.4h-4.3c0,3.9-3.2,7.1-7.1,7.1
	c-3.9,0-7.1-3.2-7.1-7.1C325.8,22,321.5,22,321.5,22z"/>
<path class="st0" d="M365.9,11.3C367.5,9.2,370,8,373,8c5.1,0,9.3,4.1,9.3,9.3H378c0-2.7-2.2-5-5-5c-2.7,0-5,2.2-5,5h-4.3
	c0-2.7-2.2-5-5-5c-2.7,0-5,2.2-5,5h-4.3c0-5.1,4.1-9.3,9.3-9.3C361.5,7.9,364.1,9.2,365.9,11.3"/>
</svg>
