<?xml version="1.0" encoding="utf-8"?>
<!-- Generator: Adobe Illustrator 24.3.0, SVG Export Plug-In . SVG Version: 6.00 Build 0)  -->
<svg version="1.1" id="Laag_1" xmlns="http://www.w3.org/2000/svg" xmlns:xlink="http://www.w3.org/1999/xlink" x="0px" y="0px"
	 width="61.2px" height="23.1px" viewBox="0 0 61.2 23.1" style="enable-background:new 0 0 61.2 23.1;" xml:space="preserve">
<style type="text/css">
	.st0{fill:#FFFFFF;}
</style>
<g>
	<path class="st0" d="M7.4,8c-0.8,0.8-1.8,1.2-3,1.2S2.1,8.8,1.3,8C0.5,7.1,0.1,6.1,0.1,4.9c0-1.2,0.4-2.3,1.2-3.1
		c0.8-0.8,1.8-1.2,3-1.2c1.2,0,2.2,0.4,3,1.2c0.8,0.8,1.2,1.9,1.2,3.1C8.6,6.1,8.2,7.1,7.4,8z M2.3,7.1C2.8,7.7,3.5,8,4.4,8
		c0.8,0,1.5-0.3,2.1-0.9C7,6.5,7.3,5.8,7.3,4.9C7.3,4,7,3.2,6.4,2.6C5.9,2,5.2,1.7,4.4,1.7C3.5,1.7,2.8,2,2.3,2.6
		C1.7,3.2,1.4,4,1.4,4.9C1.4,5.8,1.7,6.5,2.3,7.1z"/>
	<path class="st0" d="M10.1,9.1v-6h1.1l0.1,0.7h0.1c0.4-0.6,1-0.8,1.8-0.8c0.7,0,1.2,0.2,1.6,0.6c0.4,0.4,0.6,1,0.6,1.8v3.7h-1.2
		V5.6c0-0.5-0.1-0.9-0.4-1.2S13.2,4,12.8,4c-0.4,0-0.8,0.1-1.1,0.4c-0.3,0.3-0.4,0.7-0.4,1.3v3.4H10.1z"/>
	<path class="st0" d="M19.1,9.2c-1.1,0-1.6-0.5-1.6-1.6V4.1h-1.3v-1h0.4c0.4,0,0.6-0.1,0.8-0.2c0.1-0.1,0.2-0.4,0.2-0.7V1.4h1.1v1.6
		h1.5v1h-1.5v3.4c0,0.5,0.3,0.8,0.8,0.8c0.2,0,0.4,0,0.6-0.1v0.9C19.7,9.2,19.4,9.2,19.1,9.2z"/>
	<path class="st0" d="M24.3,3C25,3,25.5,3.2,26,3.6c0.4,0.4,0.6,1,0.6,1.8v3.7h-1.2V5.6c0-0.5-0.1-0.9-0.4-1.2S24.4,4,24,4
		c-0.4,0-0.8,0.1-1.1,0.4c-0.3,0.3-0.4,0.7-0.4,1.3v3.4h-1.2V0.6h1.2v3.2h0.1C23,3.2,23.6,3,24.3,3z"/>
	<path class="st0" d="M33.4,3.1v6h-1.1l-0.1-0.7h-0.1c-0.4,0.6-1,0.8-1.8,0.8c-0.7,0-1.2-0.2-1.6-0.6c-0.4-0.4-0.6-1-0.6-1.8V3.1
		h1.2v3.5c0,0.5,0.1,0.9,0.4,1.2s0.6,0.4,1,0.4c0.4,0,0.8-0.1,1.1-0.4C32,7.4,32.1,7,32.1,6.4V3.1H33.4z"/>
	<path class="st0" d="M34.9,9.1V0.6h1.2v8.5H34.9z"/>
	<path class="st0" d="M42.1,0.6h1.2v8.5h-1l-0.1-0.8h-0.1c-0.5,0.6-1.1,0.9-1.9,0.9c-0.8,0-1.5-0.3-2-0.9c-0.5-0.6-0.8-1.3-0.8-2.3
		c0-0.9,0.3-1.7,0.8-2.3c0.5-0.6,1.2-0.8,2-0.8c0.8,0,1.4,0.3,1.9,0.8V0.6z M40.4,8.1c0.5,0,0.9-0.2,1.2-0.6
		c0.3-0.4,0.5-0.9,0.5-1.5c0-0.6-0.2-1.1-0.5-1.5C41.3,4.2,40.9,4,40.4,4c-0.5,0-0.9,0.2-1.3,0.6s-0.5,0.9-0.5,1.5
		c0,0.6,0.2,1.1,0.5,1.5C39.5,7.9,39.9,8.1,40.4,8.1z"/>
	<path class="st0" d="M51,9.2c-0.9,0-1.6-0.3-2.2-0.9c-0.6-0.6-0.9-1.3-0.9-2.2c0-0.9,0.3-1.7,0.9-2.2C49.3,3.2,50.1,3,51,3
		s1.6,0.3,2.2,0.9C53.8,4.4,54,5.2,54,6.1c0,0.9-0.3,1.6-0.9,2.2C52.6,8.9,51.9,9.2,51,9.2z M49.6,7.5C50,7.9,50.4,8.1,51,8.1
		s1-0.2,1.3-0.6c0.4-0.4,0.5-0.9,0.5-1.5c0-0.6-0.2-1.1-0.5-1.5S51.5,4,51,4c-0.5,0-1,0.2-1.3,0.6s-0.5,0.9-0.5,1.5
		S49.3,7.1,49.6,7.5z"/>
	<path class="st0" d="M58.4,3c0.8,0,1.5,0.3,2,0.9c0.5,0.6,0.8,1.3,0.8,2.3c0,0.9-0.3,1.7-0.8,2.3s-1.2,0.8-2,0.8
		c-0.8,0-1.4-0.3-1.9-0.8v3.1h-1.2V3.1h1l0.1,0.8h0.1C57,3.3,57.6,3,58.4,3z M58.2,8.1c0.5,0,0.9-0.2,1.3-0.6
		C59.8,7.2,60,6.7,60,6.1c0-0.6-0.2-1.1-0.5-1.5S58.8,4,58.2,4c-0.5,0-0.9,0.2-1.2,0.6s-0.5,0.9-0.5,1.5c0,0.6,0.2,1.1,0.5,1.5
		C57.3,7.9,57.7,8.1,58.2,8.1z"/>
	<path class="st0" d="M2.7,12.3c0.8,0,1.4,0.2,1.9,0.7c0.5,0.5,0.7,1.1,0.7,1.9c0,0.3-0.1,0.7-0.2,1c-0.1,0.3-0.2,0.6-0.3,0.8
		c-0.1,0.2-0.3,0.5-0.5,0.8l-1.7,2.5H1.2l2.1-3c-0.3,0.1-0.6,0.2-0.9,0.2c-0.7,0-1.3-0.2-1.7-0.7c-0.4-0.5-0.7-1-0.7-1.8
		c0-0.8,0.2-1.4,0.7-1.8C1.2,12.5,1.9,12.3,2.7,12.3z M1.6,15.9c0.3,0.3,0.6,0.4,1.1,0.4c0.4,0,0.8-0.1,1-0.4
		c0.3-0.3,0.4-0.6,0.4-1.1c0-0.4-0.1-0.8-0.4-1.1c-0.3-0.3-0.6-0.4-1-0.4c-0.4,0-0.8,0.1-1.1,0.4c-0.3,0.3-0.4,0.7-0.4,1.1
		C1.2,15.3,1.3,15.6,1.6,15.9z"/>
	<path class="st0" d="M9.5,22.6c-0.3,0-0.6,0-0.9-0.1v-0.9c0.2,0.1,0.4,0.1,0.6,0.1c0.5,0,0.8-0.3,0.8-0.8v-6.8h1.2V21
		c0,0.4-0.1,0.8-0.4,1.1C10.6,22.4,10.1,22.6,9.5,22.6z M10.6,13.2c-0.2,0-0.4-0.1-0.6-0.2c-0.2-0.2-0.2-0.3-0.2-0.5
		c0-0.2,0.1-0.4,0.2-0.5c0.2-0.1,0.3-0.2,0.6-0.2c0.2,0,0.4,0.1,0.5,0.2c0.2,0.1,0.2,0.3,0.2,0.5c0,0.2-0.1,0.4-0.2,0.5
		C10.9,13.1,10.8,13.2,10.6,13.2z"/>
	<path class="st0" d="M18,14.1v6h-1.1l-0.1-0.7h-0.1c-0.4,0.6-1,0.8-1.8,0.8c-0.7,0-1.2-0.2-1.6-0.6c-0.4-0.4-0.6-1-0.6-1.8v-3.7
		h1.2v3.5c0,0.5,0.1,0.9,0.4,1.2s0.6,0.4,1,0.4c0.4,0,0.8-0.1,1.1-0.4c0.3-0.3,0.4-0.7,0.4-1.3v-3.4H18z"/>
	<path class="st0" d="M19.5,20.1v-6h1.1l0.1,0.7h0.1c0.4-0.6,1-0.8,1.8-0.8c0.7,0,1.2,0.2,1.6,0.6c0.4,0.4,0.6,1,0.6,1.8v3.7h-1.2
		v-3.5c0-0.5-0.1-0.9-0.4-1.2s-0.6-0.4-1-0.4c-0.4,0-0.8,0.1-1.1,0.4c-0.3,0.3-0.4,0.7-0.4,1.3v3.4H19.5z"/>
	<path class="st0" d="M27,13.2c-0.2,0-0.4-0.1-0.6-0.2c-0.2-0.2-0.2-0.3-0.2-0.5c0-0.2,0.1-0.4,0.2-0.5c0.2-0.1,0.3-0.2,0.6-0.2
		c0.2,0,0.4,0.1,0.5,0.2c0.2,0.1,0.2,0.3,0.2,0.5c0,0.2-0.1,0.4-0.2,0.5C27.4,13.1,27.2,13.2,27,13.2z M26.4,20.1v-6h1.2v6H26.4z"/>
</g>
</svg>
