<?xml version="1.0" encoding="utf-8"?>
<!-- Generator: Adobe Illustrator 24.3.0, SVG Export Plug-In . SVG Version: 6.00 Build 0)  -->
<svg version="1.1" id="Laag_1" xmlns="http://www.w3.org/2000/svg" xmlns:xlink="http://www.w3.org/1999/xlink" x="0px" y="0px"
	 width="127px" height="23.4px" viewBox="0 0 127 23.4" style="enable-background:new 0 0 127 23.4;" xml:space="preserve">
<g>
	<path d="M0.4,4.6c0-0.8,0.1-1.5,0.3-2.1C0.8,1.9,1.1,1.4,1.4,1c0.3-0.4,0.7-0.6,1.1-0.8S3.4,0,4,0c0.4,0,0.8,0.1,1.2,0.2
		s0.7,0.3,1,0.5c0.3,0.2,0.5,0.5,0.8,0.9c0.2,0.4,0.4,0.8,0.5,1.3c0.1,0.5,0.2,1.1,0.2,1.7c0,0.8-0.1,1.4-0.3,2
		C7.1,7.1,6.8,7.6,6.5,8S5.8,8.6,5.4,8.7C5,8.9,4.5,9,4,9C3.5,9,3.2,8.9,2.8,8.8s-0.7-0.3-1-0.5C1.5,8.1,1.3,7.8,1,7.5
		C0.8,7.1,0.7,6.7,0.6,6.2C0.4,5.7,0.4,5.2,0.4,4.6z M1.1,4.6C1.1,4.6,1.1,4.6,1.1,4.6c0,0.5,0.1,0.9,0.2,1.3C1.5,6.2,1.7,6.5,2,6.7
		c0.3,0.2,0.6,0.4,0.9,0.5C3.2,7.3,3.6,7.3,4,7.3c0.4,0,0.8,0,1.1-0.1C5.4,7.1,5.7,6.9,6,6.7c0.3-0.2,0.5-0.5,0.6-0.9
		c0.1-0.4,0.2-0.8,0.2-1.3c0,0,0,0,0,0c0-0.7-0.3-1.3-0.7-1.7C5.6,2.4,4.9,2.2,4,2.2c-0.9,0-1.6,0.2-2.1,0.7
		C1.4,3.3,1.2,3.8,1.1,4.6z"/>
	<path d="M9.6,8.9V0.1h2l4,7.5V0.1h0.9v8.8h-1.8l-4.2-7.1v7.1H9.6z"/>
	<path d="M18.1,2.3V0.1h6.1v2.2h-2.6v6.6h-0.9V2.3H18.1z"/>
	<path d="M26.3,8.9V0.1h2.9c0.6,0,1,0.1,1.5,0.2s0.8,0.4,1.2,0.8c0.3,0.3,0.6,0.8,0.8,1.4c0.2,0.6,0.3,1.3,0.3,2
		c0,2.9-1.2,4.3-3.6,4.3H26.3z M27.2,7.1h2.5c0.4,0,0.8-0.1,1.2-0.3s0.7-0.5,0.9-0.9c0.2-0.4,0.4-0.8,0.4-1.3c0-0.7-0.2-1.3-0.7-1.8
		c-0.5-0.5-1.2-0.7-2-0.7h-2.3V7.1z"/>
	<path d="M35.1,8.9V0.1h5.3v2.2h-4.5v1.8h3.4v1h-3.4v2.2h4.5v1.5H35.1z"/>
	<path d="M42.6,8.9V0.1h0.9V4l3.4-3.8h2.4l-3.8,4.1l3.3,4.7h-1.1l-2.9-4l-1.4,1.5v2.5H42.6z"/>
	<path d="M53.4,8.9V0.1h0.9v3.4h4.7V0.1h0.9v8.8h-0.9V5.6h-4.7v3.3H53.4z"/>
	<path d="M62.3,8.9V0.1h5.3v2.2h-4.5v1.8h3.4v1h-3.4v2.2h4.5v1.5H62.3z"/>
	<path d="M69.2,2.3V0.1h6.1v2.2h-2.6v6.6h-0.9V2.3H69.2z"/>
	<path d="M79.8,8.9V0.1h2l4,7.5V0.1h0.9v8.8h-1.8l-4.2-7.1v7.1H79.8z"/>
	<path d="M88.6,8.9V7.2h1.8V2.3h-1.7V0.1h4.2v2.2h-1.6v4.9h1.7v1.7H88.6z"/>
	<path d="M94.7,8.9V0.1h5.3v2.2h-4.5v1.8h3.4v1h-3.4v2.2h4.5v1.5H94.7z"/>
	<path d="M102.1,5.4V0.1h0.8v4.3c0,0.9,0.2,1.5,0.5,1.9c0.5,0.5,1.2,0.7,2.2,0.7c0.9,0,1.6-0.2,2.1-0.7c0.3-0.4,0.5-1,0.5-1.8V0.1
		h0.8v5.2c0,1.2-0.3,2.2-0.9,2.8c-0.6,0.6-1.4,0.9-2.5,0.9c-0.5,0-1-0.1-1.4-0.2s-0.8-0.4-1.1-0.7c-0.3-0.3-0.5-0.7-0.7-1.1
		C102.2,6.5,102.1,6,102.1,5.4z"/>
	<path d="M109.8,0.1h0.9l2.1,7.1l1.9-5.5l0.7,0l1.7,5.4l2-7h1.5L118,8.9h-1.3l-1.4-4.4l-1.6,4.4h-1.4L109.8,0.1z"/>
	<path d="M121.6,8.9V0.1h5.3v2.2h-4.5v1.8h3.4v1h-3.4v2.2h4.5v1.5H121.6z"/>
	<path d="M0,16.7v-2.2h6.1v2.2H3.5v6.6H2.6v-6.6H0z"/>
	<path d="M8,23.3v-8.8h0.9v3.4h4.7v-3.4h0.9v8.8h-0.9V20H8.9v3.3H8z"/>
	<path d="M17,23.3v-8.8h5.3v2.2h-4.5v1.8h3.4v1h-3.4v2.2h4.5v1.5H17z"/>
	<path d="M23.9,23.3l3.1-8.8h1.5l3.2,8.8h-0.9l-0.9-2.5h-3.6l-0.9,2.5H23.9z M26.7,19.9h2.8l-1.4-3.7L26.7,19.9z"/>
	<path d="M32.6,16.7v-2.2h6.1v2.2h-2.6v6.6h-0.9v-6.6H32.6z"/>
	<path d="M40.2,23.3v-8.8h5.3v2.2h-4.5v1.8h3.4v1h-3.4v2.2h4.5v1.5H40.2z"/>
	<path d="M48,23.3v-8.8h2.9c2,0,3,0.9,3,2.8c0,0.7-0.1,1.3-0.4,1.6c-0.3,0.4-0.7,0.6-1.2,0.7c0.4,0.3,0.6,0.7,0.7,1.2
		c0.1,0.4,0.1,0.6,0.2,0.7c0.1,0.1,0.2,0.2,0.4,0.2c0.3,0,0.5-0.1,0.6-0.2l0.3,1.1c-0.1,0.2-0.2,0.3-0.4,0.4
		c-0.2,0.1-0.4,0.1-0.6,0.1c-0.7,0-1.1-0.7-1.3-2.1c0-0.3-0.2-0.5-0.4-0.7c-0.2-0.2-0.5-0.2-0.9-0.2h-2.1v2.9H48z M48.8,18.7h2.5
		c0.6,0,1.1-0.1,1.4-0.3c0.3-0.2,0.4-0.4,0.4-0.8c0-0.8-0.6-1.2-1.8-1.2h-2.5V18.7z"/>
	<path d="M56.4,21.8l0.5-1.6c0.2,0.4,0.6,0.8,1.2,1c0.6,0.3,1.2,0.4,1.9,0.4c0.8,0,1.3-0.1,1.7-0.3s0.6-0.5,0.6-0.8
		c0-0.3-0.2-0.6-0.6-0.8s-1-0.3-1.7-0.4c-0.6,0-1.1-0.1-1.6-0.3s-0.7-0.3-1-0.5s-0.4-0.5-0.5-0.8c-0.1-0.3-0.1-0.6-0.1-1
		c0-0.8,0.3-1.4,0.8-1.9s1.3-0.7,2.3-0.7c0.8,0,1.4,0.1,2,0.4s0.9,0.6,1.2,0.9l-0.4,1.6c-0.3-0.2-0.6-0.4-1.1-0.6
		c-0.5-0.2-1-0.3-1.6-0.3c-0.4,0-0.7,0-1,0.1c-0.3,0.1-0.5,0.2-0.7,0.3S58,16.8,57.9,17c-0.1,0.1-0.1,0.3-0.1,0.4
		c0,0.1,0,0.3,0.1,0.4s0.2,0.2,0.3,0.3s0.4,0.2,0.7,0.2c0.3,0.1,0.7,0.1,1.1,0.2c1.2,0.1,2.1,0.4,2.6,0.8c0.5,0.4,0.8,1,0.8,1.7
		c0,0,0,0,0,0c0,0.8-0.3,1.3-0.9,1.7S61,23.4,60,23.4c-0.8,0-1.6-0.2-2.3-0.5C57,22.6,56.5,22.3,56.4,21.8z"/>
	<path d="M65.3,23.3v-8.8h5.3v2.2h-4.5v1.8h3.4v1h-3.4v2.2h4.5v1.5H65.3z"/>
	<path d="M72.5,23.3v-1.7h1.8v-4.9h-1.7v-2.2h4.2v2.2h-1.6v4.9h1.7v1.7H72.5z"/>
	<path d="M78.4,23.3v-0.5l4.7-6.1h-4.3v-2.2h6.7v0.4l-5,6.7h4.8v1.7H78.4z"/>
	<path d="M87.1,19c0-0.8,0.1-1.5,0.3-2.1c0.2-0.6,0.4-1.1,0.7-1.4c0.3-0.4,0.7-0.6,1.1-0.8s0.9-0.3,1.5-0.3c0.4,0,0.8,0.1,1.2,0.2
		s0.7,0.3,1,0.5c0.3,0.2,0.5,0.5,0.8,0.9c0.2,0.4,0.4,0.8,0.5,1.3c0.1,0.5,0.2,1.1,0.2,1.7c0,0.8-0.1,1.4-0.3,2
		c-0.2,0.6-0.4,1-0.7,1.4c-0.3,0.4-0.7,0.6-1.1,0.8c-0.4,0.2-0.9,0.3-1.4,0.3c-0.4,0-0.8-0.1-1.2-0.2s-0.7-0.3-1-0.5
		c-0.3-0.2-0.6-0.5-0.8-0.9c-0.2-0.3-0.4-0.8-0.5-1.3C87.2,20.1,87.1,19.6,87.1,19z M87.9,19C87.9,19,87.9,19,87.9,19
		c0,0.5,0.1,0.9,0.2,1.3c0.1,0.4,0.4,0.7,0.6,0.9c0.3,0.2,0.6,0.4,0.9,0.5c0.3,0.1,0.7,0.1,1.1,0.1c0.4,0,0.8,0,1.1-0.1
		c0.3-0.1,0.6-0.2,0.9-0.5c0.3-0.2,0.5-0.5,0.6-0.9c0.1-0.4,0.2-0.8,0.2-1.3c0,0,0,0,0,0c0-0.7-0.3-1.3-0.7-1.7
		c-0.5-0.4-1.2-0.7-2.1-0.7c-0.9,0-1.6,0.2-2.1,0.7C88.1,17.7,87.9,18.2,87.9,19z"/>
	<path d="M96.2,23.3v-8.8h5.3v2.2H97v1.8h3.4v1H97v2.2h4.5v1.5H96.2z"/>
	<path d="M103.9,23.3v-8.8h2l4,7.5v-7.5h0.9v8.8H109l-4.2-7.1v7.1H103.9z"/>
</g>
</svg>
