<?xml version="1.0" encoding="utf-8"?>
<!-- Generator: Adobe Illustrator 24.0.0, SVG Export Plug-In . SVG Version: 6.00 Build 0)  -->
<svg version="1.1" id="Laag_1" xmlns="http://www.w3.org/2000/svg" xmlns:xlink="http://www.w3.org/1999/xlink" x="0px" y="0px"
	 width="94.8px" height="63.1px" viewBox="0 0 94.8 63.1" style="enable-background:new 0 0 94.8 63.1;" xml:space="preserve">
<style type="text/css">
	.st0{fill:#FFFFFF;}
</style>
<g>
	<path class="st0" d="M3.8,4.5c0.9,0.3,1.4,0.9,1.4,1.8c0,0.6-0.2,1.1-0.7,1.5c-0.4,0.3-1,0.4-1.6,0.4H0.3V1h2.3
		c0.7,0,1.2,0.2,1.6,0.5s0.6,0.8,0.6,1.3C4.9,3.6,4.5,4.1,3.8,4.5L3.8,4.5z M1.2,1.8v2.3h1.4c0.4,0,0.8-0.1,1-0.3
		C3.8,3.6,4,3.3,4,2.9S3.9,2.3,3.6,2.1C3.4,1.9,3,1.8,2.6,1.8H1.2z M2.7,7.4c0.5,0,0.8-0.1,1.1-0.3c0.3-0.2,0.4-0.5,0.4-0.9
		S4.1,5.5,3.8,5.3C3.6,5,3.2,4.9,2.7,4.9H1.2v2.5H2.7z"/>
	<path class="st0" d="M10,8.3c-1,0-1.9-0.4-2.6-1.1s-1-1.6-1-2.6s0.3-1.9,1-2.6S8.9,0.9,10,0.9s1.9,0.4,2.6,1.1s1,1.6,1,2.6
		s-0.3,1.9-1,2.6C11.8,8,11,8.3,10,8.3z M10,7.4c0.7,0,1.4-0.3,1.9-0.8s0.7-1.2,0.7-2s-0.2-1.4-0.7-2S10.8,1.8,10,1.8
		S8.6,2.1,8.1,2.6c-0.5,0.6-0.7,1.2-0.7,2s0.2,1.4,0.7,2C8.6,7.1,9.2,7.4,10,7.4z"/>
	<path class="st0" d="M18.5,8.3c-1,0-1.9-0.4-2.6-1.1c-0.7-0.7-1-1.6-1-2.6s0.3-1.9,1-2.6c0.7-0.7,1.5-1.1,2.6-1.1
		c1,0,1.9,0.4,2.6,1.1s1,1.6,1,2.6s-0.3,1.9-1,2.6C20.3,8,19.5,8.3,18.5,8.3z M18.5,7.4c0.7,0,1.4-0.3,1.9-0.8s0.7-1.2,0.7-2
		s-0.2-1.4-0.7-2s-1.1-0.8-1.9-0.8c-0.7,0-1.4,0.3-1.9,0.8s-0.7,1.2-0.7,2s0.2,1.4,0.7,2S17.7,7.4,18.5,7.4z"/>
	<path class="st0" d="M26.5,4.5h3.2v3.7h-0.6l-0.2-0.8h-0.1c-0.6,0.6-1.3,0.9-2.2,0.9c-1,0-1.8-0.3-2.4-1c-0.5-0.6-0.8-1.5-0.8-2.5
		c0-1.1,0.3-2,0.9-2.8c0.6-0.7,1.4-1.1,2.4-1.1c0.9,0,1.6,0.2,2.1,0.6s0.8,1,0.9,1.6h-1c-0.1-0.4-0.3-0.7-0.6-1s-0.8-0.4-1.3-0.4
		c-0.7,0-1.3,0.3-1.7,0.8c-0.5,0.7-0.7,1.4-0.7,2.2s0.2,1.5,0.6,2s1,0.8,1.8,0.8c0.4,0,0.8-0.1,1.2-0.3c0.3-0.2,0.6-0.4,0.8-0.6V5.3
		h-2.2L26.5,4.5L26.5,4.5z"/>
	<path class="st0" d="M36.1,8.2l-0.6-1.8h-3l-0.6,1.8h-1L33.4,1h1.3l2.4,7.2H36.1z M32.8,5.5h2.4L34,2.1h-0.1L32.8,5.5z"/>
	<path class="st0" d="M39.2,7.3H43v0.9h-4.7V1h4.6v0.9h-3.7v2.3h3.2V5h-3.2V7.3z"/>
	<path class="st0" d="M49.3,8.2h-1.1l-1.7-2.9l0,0h-1.4v2.9h-0.9V1h2.5c0.7,0,1.2,0.2,1.7,0.6C48.8,2,49,2.5,49,3.1
		c0,0.5-0.1,0.9-0.4,1.2c-0.3,0.4-0.6,0.6-1.1,0.8L49.3,8.2z M45.1,1.9v2.5h1.4c0.5,0,0.9-0.1,1.1-0.3C47.9,3.9,48,3.6,48,3.2
		s-0.1-0.7-0.4-0.9C47.3,2.1,47,2,46.5,2L45.1,1.9L45.1,1.9z"/>
	<path class="st0" d="M52.7,1c1.2,0,2.1,0.3,2.7,1c0.6,0.6,0.9,1.5,0.9,2.6s-0.3,2-0.9,2.7c-0.6,0.7-1.5,1-2.7,1h-2.1V1H52.7z
		 M52.7,7.3c0.9,0,1.5-0.2,2-0.7c0.4-0.5,0.7-1.2,0.7-2s-0.2-1.4-0.7-1.9S53.6,2,52.7,2h-1.2v5.4L52.7,7.3L52.7,7.3z"/>
	<path class="st0" d="M62.5,1v0.9h-2.1v6.3h-1V1.9h-2V1H62.5z"/>
	<path class="st0" d="M68,0.5l-3.7,8.2h-1L67,0.5C67,0.5,68,0.5,68,0.5z"/>
	<path class="st0" d="M5.6,12.1h1l-2.4,7.2H2.8l-2.5-7.2h1l2.2,6.2h0.1L5.6,12.1z"/>
	<path class="st0" d="M12.5,19.3l-0.6-1.8h-3l-0.6,1.8h-1l2.5-7.2h1.3l2.4,7.2H12.5z M9.2,16.6h2.4l-1.2-3.4h-0.1L9.2,16.6z"/>
	<path class="st0" d="M19.6,12.1h0.9v7.2h-1l-3.8-5.6h-0.1v5.6h-0.9v-7.2h1.1l3.7,5.6h0.1C19.6,17.7,19.6,12.1,19.6,12.1z"/>
	<path class="st0" d="M24.3,12.1c1.2,0,2.1,0.3,2.7,1c0.6,0.6,0.9,1.5,0.9,2.6c0,1.1-0.3,2-0.9,2.7c-0.6,0.7-1.5,1-2.7,1h-2.1v-7.3
		H24.3z M24.3,18.4c0.9,0,1.5-0.2,2-0.7c0.4-0.5,0.7-1.2,0.7-2s-0.2-1.4-0.7-1.9s-1.1-0.7-2-0.7h-1.2v5.4L24.3,18.4L24.3,18.4z"/>
	<path class="st0" d="M30.4,18.4h3.8v0.9h-4.7v-7.2h4.6V13h-3.7v2.3h3.2v0.8h-3.2C30.4,16.1,30.4,18.4,30.4,18.4z"/>
	<path class="st0" d="M40.5,19.3h-1.1l-1.7-2.9l0,0h-1.4v2.9h-0.9v-7.2h2.5c0.7,0,1.3,0.2,1.7,0.6c0.4,0.4,0.6,0.9,0.6,1.5
		c0,0.5-0.1,0.9-0.4,1.2c-0.3,0.4-0.6,0.6-1.1,0.8L40.5,19.3z M36.3,13v2.5h1.4c0.5,0,0.9-0.1,1.1-0.3c0.3-0.2,0.4-0.5,0.4-0.9
		c0-0.4-0.1-0.7-0.4-0.9s-0.6-0.3-1.1-0.3L36.3,13L36.3,13z"/>
	<path class="st0" d="M46.6,17.5c0,0.6-0.2,1.1-0.7,1.4c-0.4,0.3-1,0.5-1.8,0.5s-1.5-0.2-1.9-0.6c-0.5-0.4-0.7-1-0.7-1.6h1
		c0,0.4,0.2,0.8,0.4,1c0.3,0.3,0.7,0.4,1.2,0.4c0.4,0,0.8-0.1,1-0.3c0.3-0.2,0.4-0.5,0.4-0.8c0-0.3-0.1-0.6-0.4-0.8
		c-0.2-0.2-0.7-0.4-1.3-0.6c-0.7-0.2-1.2-0.5-1.6-0.8s-0.6-0.7-0.6-1.3c0-0.6,0.2-1.1,0.6-1.4c0.4-0.4,1-0.5,1.6-0.5
		c0.7,0,1.3,0.2,1.8,0.6c0.4,0.4,0.7,0.9,0.7,1.5h-0.9c0-0.3-0.2-0.6-0.4-0.9c-0.3-0.2-0.6-0.4-1.1-0.4c-0.4,0-0.7,0.1-0.9,0.3
		s-0.4,0.5-0.4,0.8s0.1,0.6,0.4,0.8c0.2,0.2,0.7,0.4,1.2,0.6c0.8,0.3,1.3,0.6,1.7,0.9C46.5,16.5,46.6,17,46.6,17.5z"/>
	<path class="st0" d="M54.5,17.1c-0.1,0.7-0.5,1.2-1.1,1.7c-0.6,0.4-1.2,0.6-2,0.6c-1.1,0-1.9-0.3-2.5-1c-0.6-0.7-1-1.6-1-2.7
		s0.3-2,0.9-2.7c0.6-0.7,1.4-1.1,2.4-1.1c0.8,0,1.4,0.2,2,0.6c0.6,0.4,0.9,1,1,1.7h-1c-0.1-0.4-0.4-0.8-0.7-1.1
		c-0.3-0.3-0.8-0.4-1.3-0.4c-0.7,0-1.3,0.3-1.7,0.8s-0.7,1.2-0.7,2c0,0.8,0.2,1.5,0.7,2c0.4,0.5,1,0.8,1.8,0.8
		c0.5,0,0.9-0.1,1.3-0.4c0.4-0.3,0.6-0.6,0.8-1h1.1L54.5,17.1L54.5,17.1z"/>
	<path class="st0" d="M60.4,12.1h1v7.2h-1v-3.2h-3.5v3.2h-1v-7.2h1v3.2h3.5V12.1z"/>
	<path class="st0" d="M66.5,19.4c-1,0-1.9-0.4-2.6-1.1c-0.7-0.7-1-1.6-1-2.6s0.3-1.9,1-2.6s1.5-1.1,2.6-1.1s1.9,0.4,2.6,1.1
		s1,1.6,1,2.6s-0.3,1.9-1,2.6C68.4,19.1,67.5,19.4,66.5,19.4z M66.5,18.5c0.7,0,1.4-0.3,1.8-0.8c0.5-0.5,0.7-1.2,0.7-2
		c0-0.8-0.2-1.4-0.7-2c-0.5-0.5-1.1-0.8-1.9-0.8s-1.4,0.3-1.8,0.8c-0.5,0.5-0.7,1.2-0.7,2c0,0.8,0.2,1.4,0.7,2
		C65.1,18.2,65.7,18.5,66.5,18.5z"/>
	<path class="st0" d="M75,19.4c-1,0-1.9-0.4-2.6-1.1c-0.7-0.7-1-1.6-1-2.6s0.3-1.9,1-2.6S73.9,12,75,12s1.9,0.4,2.6,1.1s1,1.6,1,2.6
		s-0.3,1.9-1,2.6C76.9,19.1,76,19.4,75,19.4z M75,18.5c0.7,0,1.4-0.3,1.8-0.8c0.5-0.5,0.7-1.2,0.7-2c0-0.8-0.2-1.4-0.7-2
		c-0.5-0.5-1.1-0.8-1.9-0.8s-1.4,0.3-1.8,0.8c-0.5,0.5-0.7,1.2-0.7,2c0,0.8,0.2,1.4,0.7,2C73.6,18.2,74.2,18.5,75,18.5z"/>
	<path class="st0" d="M84.8,12.1V13h-2.1v6.3h-1V13h-2.1v-0.9H84.8z"/>
	<path class="st0" d="M6.5,30.4h-1l-1-1c-0.3,0.4-0.6,0.6-1,0.8c-0.3,0.2-0.7,0.3-1.2,0.3c-0.6,0-1-0.2-1.4-0.5s-0.6-0.7-0.6-1.2
		s0.1-0.8,0.4-1.1c0.2-0.3,0.6-0.7,1.2-1c-0.2-0.3-0.3-0.4-0.5-0.6C1.3,26,1.2,25.8,1,25.5c-0.1-0.2-0.2-0.5-0.2-0.7
		c0-0.5,0.2-0.9,0.5-1.2c0.3-0.3,0.8-0.5,1.3-0.5c0.6,0,1,0.2,1.4,0.5c0.4,0.3,0.7,0.7,0.7,1.1c0,0.2,0,0.4-0.1,0.6
		s-0.2,0.4-0.4,0.5C4,26,3.9,26.1,3.7,26.2c-0.1,0.1-0.3,0.3-0.6,0.5l1.3,1.4l0.8-1.2h1l-1,1.6c0,0,0,0-0.1,0.1S5,28.7,5,28.7
		L6.5,30.4z M2.4,29.7c0.5,0,1.1-0.3,1.6-0.9l-1.5-1.6c-0.4,0.3-0.7,0.6-0.9,0.8c-0.2,0.2-0.3,0.4-0.3,0.7c0,0.3,0.1,0.5,0.3,0.7
		S2.1,29.7,2.4,29.7z M2.8,23.9c-0.3,0-0.5,0.1-0.7,0.3c-0.2,0.2-0.3,0.4-0.3,0.7c0,0.2,0.1,0.4,0.2,0.6c0.1,0.2,0.3,0.4,0.6,0.7
		c0.3-0.2,0.5-0.4,0.7-0.5c0.1-0.1,0.3-0.3,0.4-0.4c0.1-0.2,0.2-0.3,0.2-0.5c0-0.3-0.1-0.5-0.3-0.6C3.3,24,3.1,23.9,2.8,23.9z"/>
	<path class="st0" d="M15.3,23.3v0.8h-2.1v6.3h-1v-6.3h-2.1v-0.9L15.3,23.3L15.3,23.3z"/>
	<path class="st0" d="M20,30.5c-1,0-1.9-0.4-2.6-1.1s-1-1.6-1-2.6c0-1.1,0.3-1.9,1-2.6c0.7-0.7,1.5-1.1,2.6-1.1c1,0,1.9,0.4,2.6,1.1
		s1,1.6,1,2.6c0,1.1-0.3,1.9-1,2.6C21.9,30.2,21,30.5,20,30.5z M20,29.6c0.7,0,1.4-0.3,1.9-0.8s0.7-1.2,0.7-2s-0.2-1.4-0.7-2
		s-1.2-0.7-1.9-0.7s-1.4,0.3-1.9,0.8s-0.7,1.2-0.7,2s0.2,1.4,0.7,2C18.6,29.4,19.3,29.6,20,29.6z"/>
	<path class="st0" d="M30.8,23.3v4.4c0,0.9-0.3,1.7-0.8,2.2s-1.2,0.8-2,0.8s-1.5-0.3-2.1-0.8c-0.5-0.5-0.8-1.2-0.8-2.2v-4.4h1v4.3
		c0,0.7,0.2,1.2,0.5,1.5c0.3,0.4,0.8,0.5,1.3,0.5s1-0.2,1.3-0.5s0.5-0.9,0.5-1.5v-4.3H30.8z"/>
	<path class="st0" d="M36.6,30.4l-2.7-3.2h-0.5v3.2h-1v-7.2h1v3h0.5l2.4-3h1.1l-2.7,3.5v0.1l3,3.7h-1.1V30.4z"/>
	<path class="st0" d="M39.9,23.3v7.2h-1v-7.2H39.9z"/>
	<path class="st0" d="M46.7,23.3c1.2,0,2.1,0.3,2.7,1c0.6,0.6,0.9,1.5,0.9,2.6s-0.3,2-0.9,2.7c-0.6,0.7-1.5,1-2.7,1h-2.1v-7.2h2.1
		V23.3z M46.6,29.5c0.9,0,1.5-0.2,2-0.7c0.4-0.5,0.7-1.2,0.7-2s-0.2-1.4-0.7-1.9s-1.1-0.7-2-0.7h-1.2v5.4h1.2V29.5z"/>
	<path class="st0" d="M52.7,29.6h3.8v0.9h-4.7v-7.2h4.6v0.8h-3.7v2.2h3.2v0.8h-3.2V29.6z"/>
	<path class="st0" d="M58.7,29.5h3.7v0.9h-4.7v-7.2h1V29.5z"/>
	<path class="st0" d="M66.3,23.3c0.7,0,1.3,0.2,1.7,0.6c0.4,0.4,0.6,0.9,0.6,1.6c0,0.7-0.2,1.2-0.6,1.6s-1,0.6-1.8,0.6h-1.6v2.8
		h-0.9v-7.2H66.3z M66.2,26.8c0.5,0,0.9-0.1,1.1-0.4c0.3-0.2,0.4-0.6,0.4-1s-0.1-0.7-0.4-1c-0.3-0.2-0.6-0.3-1.1-0.3h-1.6v2.7H66.2z
		"/>
	<path class="st0" d="M74.7,23.3h1v7.2h-1v-3.2h-3.5v3.2h-1v-7.2h1v3.1h3.5V23.3z"/>
	<path class="st0" d="M78.3,23.3v7.2h-1v-7.2H78.3z"/>
	<path class="st0" d="M84.9,23.3h0.9v7.2h-1L81,24.9h-0.1v5.6H80v-7.2h1.1l3.7,5.6h0.1C84.9,28.9,84.9,23.3,84.9,23.3z"/>
	<path class="st0" d="M88.4,29.6h3.8v0.9h-4.7v-7.2h4.6v0.8h-3.7v2.2h3.2v0.8h-3.2C88.4,27.1,88.4,29.6,88.4,29.6z"/>
</g>
<g>
	<path class="st0" d="M3.8,40.6c-1,0-1.8-0.3-2.5-1s-1-1.6-1-2.6s0.3-1.9,1-2.6s1.5-1,2.5-1s1.8,0.3,2.5,1s1,1.6,1,2.6
		s-0.3,1.9-1,2.6C5.6,40.3,4.8,40.6,3.8,40.6z M3.8,39.7c0.7,0,1.3-0.3,1.8-0.8s0.7-1.2,0.7-1.9c0-0.8-0.2-1.4-0.7-1.9
		s-1.1-0.8-1.8-0.8S2.5,34.6,2,35.1S1.3,36.3,1.3,37c0,0.8,0.2,1.4,0.7,1.9S3.1,39.7,3.8,39.7z"/>
	<path class="st0" d="M11.1,33.5c0.7,0,1.2,0.2,1.6,0.6c0.4,0.4,0.6,0.9,0.6,1.5c0,0.7-0.2,1.2-0.6,1.6c-0.4,0.4-1,0.6-1.7,0.6H9.4
		v2.7H8.6v-7H11.1z M10.9,36.9c0.5,0,0.8-0.1,1.1-0.3c0.3-0.2,0.4-0.6,0.4-1c0-0.4-0.1-0.7-0.4-1c-0.3-0.2-0.6-0.3-1-0.3H9.5v2.6
		C9.5,36.9,10.9,36.9,10.9,36.9z"/>
	<path class="st0" d="M22,33.5v0.8h-2v6.2h-0.9v-6.2h-2v-0.8H22z"/>
	<path class="st0" d="M26.3,40.6c-1,0-1.8-0.3-2.5-1s-1-1.6-1-2.6s0.3-1.9,1-2.6s1.5-1,2.5-1s1.8,0.3,2.5,1s1,1.6,1,2.6
		s-0.3,1.9-1,2.6C28.1,40.3,27.3,40.6,26.3,40.6z M26.3,39.7c0.7,0,1.3-0.3,1.8-0.8s0.7-1.2,0.7-1.9c0-0.8-0.2-1.4-0.7-1.9
		s-1.1-0.8-1.8-0.8c-0.7,0-1.3,0.3-1.8,0.8s-0.7,1.2-0.7,1.9c0,0.8,0.2,1.4,0.7,1.9S25.6,39.7,26.3,39.7z"/>
	<path class="st0" d="M36.6,33.5v4.3c0,0.9-0.3,1.6-0.8,2.1s-1.2,0.7-2,0.7s-1.5-0.2-2-0.7c-0.5-0.5-0.8-1.2-0.8-2.1v-4.3h1v4.3
		c0,0.6,0.2,1.1,0.5,1.5c0.3,0.3,0.8,0.5,1.3,0.5s1-0.2,1.3-0.5s0.5-0.8,0.5-1.5v-4.3C35.6,33.5,36.6,33.5,36.6,33.5z"/>
	<path class="st0" d="M43,40.5h-1l-1.7-2.9l0,0h-1.4v2.9H38v-7h2.4c0.7,0,1.3,0.2,1.7,0.6c0.4,0.4,0.6,0.9,0.6,1.5
		c0,0.5-0.1,0.9-0.4,1.2c-0.3,0.3-0.6,0.6-1.1,0.7L43,40.5z M39,34.3v2.5h1.4c0.5,0,0.8-0.1,1.1-0.3s0.4-0.5,0.4-0.9
		c0-0.4-0.1-0.7-0.4-0.9c-0.3-0.2-0.6-0.3-1.1-0.3H39V34.3z"/>
	<path class="st0" d="M48.9,33.5h0.9v7h-1L45.1,35H45v5.5h-0.9v-7h1.1l3.6,5.4h0.1C48.9,38.9,48.9,33.5,48.9,33.5z"/>
	<path class="st0" d="M52.1,39.6h3.6v0.9h-4.5v-7h4.4v0.9h-3.5v2.2h3.1v0.8h-3.1V39.6z"/>
	<path class="st0" d="M57.7,39.6h3.7v0.9h-4.5v-7h4.4v0.9h-3.5v2.2h3.1v0.8h-3.1v2.2H57.7z"/>
	<path class="st0" d="M2.4,44.4c1.1,0,2,0.3,2.6,0.9c0.6,0.6,0.9,1.5,0.9,2.5c0,1.1-0.3,2-0.9,2.6c-0.6,0.6-1.5,1-2.6,1H0.3v-7H2.4z
		 M2.4,50.5c0.9,0,1.5-0.2,1.9-0.7s0.6-1.1,0.6-2c0-0.8-0.2-1.4-0.7-1.9s-1.1-0.7-1.9-0.7H1.2v5.3H2.4z"/>
	<path class="st0" d="M10.5,51.5c-1,0-1.8-0.3-2.5-1s-1-1.6-1-2.6s0.3-1.9,1-2.6s1.5-1,2.5-1s1.8,0.3,2.5,1s1,1.6,1,2.6
		s-0.3,1.9-1,2.6C12.3,51.2,11.5,51.5,10.5,51.5z M10.5,50.6c0.7,0,1.3-0.3,1.8-0.8s0.7-1.2,0.7-1.9c0-0.8-0.2-1.4-0.7-1.9
		s-1.1-0.8-1.8-0.8c-0.7,0-1.3,0.3-1.8,0.8S8,47.2,8,47.9c0,0.8,0.2,1.4,0.7,1.9S9.8,50.6,10.5,50.6z"/>
	<path class="st0" d="M18.6,51.5c-1,0-1.8-0.3-2.5-1c-0.7-0.7-1-1.6-1-2.6s0.3-1.9,1-2.6c0.7-0.7,1.5-1,2.5-1s1.8,0.3,2.5,1
		s1,1.6,1,2.6s-0.3,1.9-1,2.6C20.4,51.2,19.6,51.5,18.6,51.5z M18.6,50.6c0.7,0,1.3-0.3,1.8-0.8s0.7-1.2,0.7-1.9
		c0-0.8-0.2-1.4-0.7-1.9s-1.1-0.8-1.8-0.8c-0.7,0-1.3,0.3-1.8,0.8s-0.7,1.2-0.7,1.9c0,0.8,0.2,1.4,0.7,1.9S17.9,50.6,18.6,50.6z"/>
	<path class="st0" d="M28.4,51.4h-1l-1.7-2.9l0,0h-1.4v2.9h-0.9v-7h2.4c0.7,0,1.3,0.2,1.7,0.6c0.4,0.4,0.6,0.9,0.6,1.5
		c0,0.5-0.1,0.9-0.4,1.2c-0.3,0.3-0.6,0.6-1.1,0.7L28.4,51.4z M24.3,45.2v2.5h1.4c0.5,0,0.8-0.1,1.1-0.3c0.3-0.2,0.4-0.5,0.4-0.9
		c0-0.4-0.1-0.7-0.4-0.9c-0.3-0.2-0.6-0.3-1.1-0.3h-1.4V45.2z"/>
	<path class="st0" d="M36.9,44.4h0.9v7h-1l-3.7-5.5H33v5.5h-0.9v-7h1.1l3.6,5.4h0.1V44.4z"/>
	<path class="st0" d="M40.2,50.5h3.6v0.9h-4.5v-7h4.4v0.9h-3.5v2.2h3.1v0.8h-3.1V50.5z"/>
	<path class="st0" d="M46.9,44.4c1.1,0,2,0.3,2.6,0.9c0.6,0.6,0.9,1.5,0.9,2.5c0,1.1-0.3,2-0.9,2.6c-0.6,0.6-1.5,1-2.6,1h-2.1v-7
		H46.9z M46.9,50.5c0.9,0,1.5-0.2,1.9-0.7s0.6-1.1,0.6-2c0-0.8-0.2-1.4-0.7-1.9c-0.4-0.5-1.1-0.7-1.9-0.7h-1.1v5.3H46.9z"/>
	<path class="st0" d="M52.6,50.5h3.6v0.9h-4.5v-7h4.4v0.9h-3.5v2.2h3.1v0.8h-3.1V50.5z"/>
	<path class="st0" d="M62.3,51.4h-1l-1.7-2.9l0,0h-1.4v2.9h-0.9v-7h2.4c0.7,0,1.3,0.2,1.7,0.6c0.4,0.4,0.6,0.9,0.6,1.5
		c0,0.5-0.1,0.9-0.4,1.2c-0.3,0.3-0.6,0.6-1.1,0.7L62.3,51.4z M58.2,45.2v2.5h1.4c0.5,0,0.8-0.1,1.1-0.3c0.3-0.2,0.4-0.5,0.4-0.9
		c0-0.4-0.1-0.7-0.4-0.9c-0.3-0.2-0.6-0.3-1.1-0.3h-1.4V45.2z"/>
	<path class="st0" d="M64.4,50.5H68v0.9h-4.6v-7h1V50.5z"/>
	<path class="st0" d="M73.6,51.4L73,49.6h-2.9l-0.6,1.8h-1l2.4-7h1.2l2.4,7H73.6z M70.4,48.8h2.3l-1.1-3.4h-0.1L70.4,48.8z"/>
	<path class="st0" d="M80.3,44.4h0.9v7h-1l-3.7-5.5h-0.1v5.5h-0.9v-7h1.1l3.6,5.4h0.1L80.3,44.4L80.3,44.4z"/>
	<path class="st0" d="M84.7,44.4c1.1,0,2,0.3,2.6,0.9c0.6,0.6,0.9,1.5,0.9,2.5c0,1.1-0.3,2-0.9,2.6c-0.6,0.6-1.5,1-2.6,1h-2.1v-7
		H84.7z M84.7,50.5c0.9,0,1.5-0.2,1.9-0.7s0.6-1.1,0.6-2c0-0.8-0.2-1.4-0.7-1.9s-1.1-0.7-1.9-0.7h-1v5.3H84.7z"/>
</g>
<g>
	<path class="st0" d="M2.7,57.2c0.7,0,1.2,0.2,1.6,0.6c0.4,0.4,0.6,1,0.6,1.7s-0.2,1.2-0.7,1.6c-0.4,0.4-1,0.6-1.7,0.6
		s-1.3-0.2-1.7-0.6c-0.3-0.3-0.5-0.8-0.5-1.4h0.9c0,0.4,0.2,0.7,0.4,1c0.2,0.2,0.6,0.4,0.9,0.4c0.4,0,0.7-0.1,1-0.4
		c0.3-0.3,0.4-0.6,0.4-1s-0.1-0.8-0.4-1.1s-0.6-0.4-1-0.4c-0.6,0-1.1,0.2-1.4,0.7l-0.8-0.2l0.4-3.6h3.8V56h-3l-0.2,1.9
		C1.7,57.4,2.2,57.2,2.7,57.2z"/>
	<path class="st0" d="M13.8,55.2h-3.6v2.4h3.1v0.9h-3.1v3.2h-1v-7.5h4.6V55.2z"/>
	<path class="st0" d="M15.9,60.8h3.9v0.9H15v-7.5h4.7v0.9H16v2.3h3.3v1H16L15.9,60.8L15.9,60.8z"/>
	<path class="st0" d="M24.6,57.8c1,0.3,1.4,0.9,1.4,1.9c0,0.7-0.2,1.2-0.7,1.5s-1,0.5-1.7,0.5H21v-7.5h2.4c0.7,0,1.3,0.2,1.7,0.5
		c0.4,0.3,0.6,0.8,0.6,1.4C25.7,56.9,25.3,57.5,24.6,57.8L24.6,57.8z M21.9,55.1v2.3h1.4c0.5,0,0.8-0.1,1-0.3s0.4-0.5,0.4-0.9
		s-0.1-0.7-0.4-0.8c-0.3-0.2-0.6-0.3-1-0.3H21.9z M23.5,60.9c0.5,0,0.8-0.1,1.1-0.3c0.3-0.2,0.4-0.5,0.4-0.9s-0.1-0.7-0.4-1
		s-0.6-0.4-1.1-0.4h-1.6v2.6C21.9,60.9,23.5,60.9,23.5,60.9z"/>
	<path class="st0" d="M29.7,58h3.8v0.8h-3.8C29.7,58.8,29.7,58,29.7,58z"/>
	<path class="st0" d="M40.1,58.9c-1,0.6-1.5,1.3-1.6,1.9h3.2v0.9h-4.4v-0.4c0-1.1,0.6-2.1,1.9-2.9c0.7-0.4,1.1-0.8,1.3-0.9
		c0.2-0.2,0.4-0.5,0.4-0.8s-0.1-0.6-0.3-0.8s-0.5-0.3-0.9-0.3s-0.8,0.1-1,0.4c-0.2,0.3-0.3,0.6-0.4,1h-1c0-0.4,0.1-0.7,0.2-1.1
		c0.2-0.3,0.4-0.6,0.8-0.9c0.4-0.2,0.8-0.4,1.3-0.4c0.6,0,1.1,0.2,1.6,0.5c0.4,0.4,0.6,0.8,0.6,1.4c0,0.5-0.1,0.9-0.4,1.2
		C41.1,58.2,40.7,58.6,40.1,58.9z"/>
	<path class="st0" d="M45.1,59.3c-0.5,0-1-0.2-1.4-0.6c-0.4-0.4-0.6-0.9-0.6-1.6c0-0.7,0.2-1.2,0.6-1.6c0.4-0.4,1-0.6,1.7-0.6
		s1.3,0.2,1.7,0.6c0.4,0.4,0.6,1,0.6,1.7c0,0.4-0.1,0.7-0.2,1.1c-0.1,0.3-0.4,0.7-0.7,1.2l-1.5,2.3h-1.1l1.9-2.8
		C45.9,59.2,45.5,59.3,45.1,59.3z M45.4,55.7c-0.4,0-0.7,0.1-1,0.4c-0.3,0.3-0.4,0.6-0.4,1s0.1,0.7,0.4,1c0.2,0.3,0.6,0.4,1,0.4
		s0.8-0.1,1-0.4c0.2-0.3,0.4-0.6,0.4-1s-0.1-0.7-0.4-1C46.1,55.8,45.8,55.7,45.4,55.7z"/>
	<path class="st0" d="M56.4,55.2h-3.6v2.4h3.1v0.9h-3.1v3.2h-1v-7.5h4.6V55.2z"/>
	<path class="st0" d="M58.6,60.8h3.9v0.9h-4.8v-7.5h4.6v0.9h-3.7v2.3h3.3v1h-3.3V60.8z"/>
	<path class="st0" d="M67.2,57.8c1,0.3,1.4,0.9,1.4,1.9c0,0.7-0.2,1.2-0.7,1.5s-1,0.5-1.7,0.5h-2.6v-7.5H66c0.7,0,1.3,0.2,1.7,0.5
		c0.4,0.3,0.6,0.8,0.6,1.4C68.3,56.9,68,57.5,67.2,57.8L67.2,57.8z M64.6,55.1v2.3H66c0.5,0,0.8-0.1,1-0.3s0.4-0.5,0.4-0.9
		s-0.1-0.7-0.4-0.8c-0.3-0.2-0.6-0.3-1-0.3H64.6z M66.1,60.9c0.5,0,0.8-0.1,1.1-0.3c0.3-0.2,0.4-0.5,0.4-0.9s-0.1-0.7-0.4-1
		c-0.3-0.2-0.6-0.4-1.1-0.4h-1.6v2.6C64.5,60.9,66.1,60.9,66.1,60.9z"/>
</g>
</svg>
