<?xml version="1.0" encoding="utf-8"?>
<!-- Generator: Adobe Illustrator 24.3.0, SVG Export Plug-In . SVG Version: 6.00 Build 0)  -->
<svg version="1.1" id="Laag_1" xmlns="http://www.w3.org/2000/svg" xmlns:xlink="http://www.w3.org/1999/xlink" x="0px" y="0px"
	 width="259.7px" height="231.6px" viewBox="0 0 259.7 231.6" style="enable-background:new 0 0 259.7 231.6;" xml:space="preserve"
	>
<style type="text/css">
	.st0{fill:#1A1D56;}
</style>
<g>
	<g>
		<path class="st0" d="M36.6,1.3c-2.7,0-3.3,0.8-3.3,2.8v15.5c0,3.1-0.5,5.2-2,6.7c-1.1,1.1-2.5,1.5-3.6,1.5c-1.9,0-3.3-1-3.3-2.2
			c0-0.8,0.6-1.4,1.4-1.4c1.9,0,1.5,2.3,3,2.3c1.1,0,1.5-0.8,1.5-3.6V3.8c0-1.7-0.6-2.7-3.6-2.5V0.4h9.9V1.3z"/>
		<path class="st0" d="M44.2,7.5c4.1,0,7.2,3.2,7.2,7.4c0,4.3-3.1,7.6-7.1,7.6c-4.2,0-7.3-3.2-7.3-7.5S40.1,7.5,44.2,7.5z
			 M41.9,20.5c0.5,0.5,1.4,1.2,2.8,1.2c2.4,0,4.1-2,4.1-4.8c0-1.5-0.4-5.3-2.4-7.4c-0.6-0.6-1.5-1.1-2.6-1.1c-2,0-4.4,1.2-4.4,5.2
			C39.5,15.6,40.3,18.8,41.9,20.5z"/>
		<path class="st0" d="M66.9,7.8v0.8C65.5,8.9,65,9.5,64,12.2l-4.5,11.9c-0.9,2.3-2.3,4.1-4.4,4.1c-1.4,0-2.5-0.7-2.5-1.7
			c0-0.7,0.6-1.3,1.2-1.3c1,0,1.1,1.1,2.4,1.1c1.2,0,2-1.1,3-3.9L54,10.8c-0.8-1.7-1.2-2.1-2.4-2.2V7.8h6.8v0.8
			C57,8.7,56.5,9,56.5,9.8c0,0.5,0.2,1.1,0.9,2.7l3.1,6.8l2-5.3c0.8-2,1.1-3.1,1.1-3.6c0-1-0.5-1.5-2-1.7V7.8H66.9z"/>
		<path class="st0" d="M79.8,18.8c-1.4,2.4-3.6,3.8-5.9,3.8c-3.8,0-6.9-3.1-6.9-7.3c0-4.5,3.3-7.7,7.7-7.7c2.8,0,4.9,1.2,4.9,2.9
			c0,0.9-0.5,1.4-1.2,1.4c-2,0-0.8-3.4-4.3-3.4c-2.8,0-4.6,2.1-4.6,5.5c0,3.7,2.3,6.4,5.5,6.4c1.5,0,2.9-0.6,4.2-2L79.8,18.8z"/>
		<path class="st0" d="M83.4,13.1c-0.2,4.9,2.8,7.2,5.8,7.2c1.6,0,2.6-0.4,3.9-1.8l0.5,0.5c-1.5,2.3-3.5,3.5-5.7,3.5
			c-3.9,0-6.7-3.1-6.7-7.4c0-4.4,2.8-7.6,6.6-7.6c3.2,0,5.8,2.5,5.9,5.6H83.4z M90.7,12.2c-0.3-2.4-1.5-3.8-3.4-3.8
			s-3.4,1.5-3.7,3.8H90.7z"/>
		<path class="st0" d="M113.7,0.4c7.9,0,12.1,5.1,12.1,10.6c0,3.8-1.7,6.5-3.4,8.2c-1.9,1.9-4.4,3-9.9,3h-11v-0.9
			c3,0.1,3.6-0.8,3.6-2.8V4.2c0-2-0.5-3-3.6-2.8v-1H113.7z M108.1,17.9c0,2.4,1.1,3.4,4.4,3.4c3,0,5.7-0.6,7.5-2.4
			c2-2,2.5-4.7,2.5-7c0-3-0.9-5.8-2.8-7.6c-1.8-1.8-4.4-2.9-8-2.9h-3.5L108.1,17.9L108.1,17.9z"/>
		<path class="st0" d="M132.8,7.5v11.2c0,2,0.4,2.7,2.2,2.7v0.8h-7.2v-0.8c2.1,0,2.5-0.5,2.5-2.8v-8.1L128,9.3V8.9L132.8,7.5z
			 M131.5,0c0.9,0,1.6,0.7,1.6,1.6s-0.7,1.6-1.6,1.6c-0.9,0-1.6-0.7-1.6-1.6S130.7,0,131.5,0z"/>
		<path class="st0" d="M148.8,0.4c7.9,0,12.1,5.1,12.1,10.6c0,3.8-1.7,6.5-3.4,8.2c-1.9,1.9-4.4,3-9.9,3h-11v-0.9
			c3,0.1,3.6-0.8,3.6-2.8V4.2c0-2-0.5-3-3.6-2.8v-1H148.8z M143.2,17.9c0,2.4,1.1,3.4,4.4,3.4c3,0,5.7-0.6,7.5-2.4
			c2-2,2.5-4.7,2.5-7c0-3-0.9-5.8-2.8-7.6c-1.8-1.8-4.4-2.9-8-2.9h-3.5L143.2,17.9L143.2,17.9z"/>
		<path class="st0" d="M170.6,7.5c4.1,0,7.2,3.2,7.2,7.4c0,4.3-3.1,7.6-7.1,7.6c-4.2,0-7.3-3.2-7.3-7.5S166.5,7.5,170.6,7.5z
			 M168.3,20.5c0.5,0.5,1.4,1.2,2.8,1.2c2.4,0,4.1-2,4.1-4.8c0-1.5-0.4-5.3-2.4-7.4c-0.6-0.6-1.5-1.1-2.6-1.1c-2,0-4.4,1.2-4.4,5.2
			C165.9,15.6,166.7,18.8,168.3,20.5z"/>
		<path class="st0" d="M183.6,7.5v2.8c1.6-1.6,3.5-2.8,5.5-2.8c2.4,0,4.3,1.6,4.3,4.6v6.6c0,2,0.5,2.6,2.3,2.6v0.8h-7.3v-0.8
			c2.1,0,2.5-0.7,2.5-2.8v-6.3c0-1.7-1.1-2.9-2.9-2.9c-1.5,0-3.1,0.7-4.4,1.9v7.3c0,2,0.2,2.9,2.6,2.8v0.8h-7.5v-0.8
			c1.8,0,2.4-0.4,2.4-2.8v-8.2l-2.3-1.1V8.9L183.6,7.5z"/>
		<path class="st0" d="M210.1,20.8c-1,1.2-1.9,1.8-2.7,1.8c-1.3,0-2-0.9-2.1-2.6c-1.5,1.7-3.2,2.6-4.7,2.6c-2.2,0-3.7-1.4-3.7-3.4
			s1.2-3,5.4-4.5l2.9-1v-2.5c0-1.6-1.2-2.7-3-2.7c-1.4,0-2.7,0.8-2.7,1.7c0,0.7,0.8,1.5,0.8,1.9s-2,1.1-2.1,1.1
			c-0.3,0-0.9-1.1-0.9-2c0-2.1,2.5-3.7,5.8-3.7c3.2,0,4.5,1.3,4.5,3.8v7.4c0,1.1,0.3,1.6,0.9,1.6c0.4,0,0.7-0.1,1.2-0.4L210.1,20.8z
			 M201.5,16.2c-1.3,0.6-2,1.3-2,2.3c0,1.3,1,2.2,2.4,2.2c1.2,0,2.3-0.6,3.4-1.8v-4.4L201.5,16.2z"/>
		<path class="st0" d="M219.6,21.8c-1.3,0.5-3,0.8-4.1,0.8c-2.3,0-3.1-1.1-3.1-3.3V9h-2.6V8.2c2.1-0.6,3.5-1.7,4.3-3.6h0.8v3.1h4.4
			V9h-4.4v9.9c0,1.6,0.5,2.2,2.1,2.2c0.7,0,1.4-0.1,2.6-0.3V21.8z"/>
		<path class="st0" d="M227.1,7.5c4.1,0,7.2,3.2,7.2,7.4c0,4.3-3.1,7.6-7.1,7.6c-4.2,0-7.3-3.2-7.3-7.5S223,7.5,227.1,7.5z
			 M224.8,20.5c0.5,0.5,1.4,1.2,2.8,1.2c2.4,0,4.1-2,4.1-4.8c0-1.5-0.4-5.3-2.4-7.4c-0.6-0.6-1.5-1.1-2.6-1.1c-2,0-4.4,1.2-4.4,5.2
			C222.4,15.6,223.2,18.8,224.8,20.5z"/>
	</g>
	<g>
		<path class="st0" d="M12.2,35.3c-2.7,0-3.3,0.8-3.3,2.8v15.5c0,3.1-0.5,5.2-2,6.7c-1.1,1.1-2.5,1.5-3.6,1.5c-1.9,0-3.3-1-3.3-2.2
			c0-0.8,0.6-1.4,1.4-1.4c1.9,0,1.5,2.3,3,2.3c1.1,0,1.5-0.8,1.5-3.6V37.8c0-1.7-0.6-2.7-3.6-2.5v-0.9h9.9
			C12.2,34.4,12.2,35.3,12.2,35.3z"/>
		<path class="st0" d="M19.8,41.5c4.1,0,7.2,3.2,7.2,7.4c0,4.3-3.1,7.6-7.1,7.6c-4.2,0-7.3-3.2-7.3-7.5S15.7,41.5,19.8,41.5z
			 M17.5,54.5c0.5,0.5,1.4,1.2,2.8,1.2c2.4,0,4.1-2,4.1-4.8c0-1.5-0.4-5.3-2.4-7.4c-0.6-0.6-1.5-1.1-2.6-1.1c-2,0-4.4,1.2-4.4,5.2
			C15.1,49.6,15.9,52.8,17.5,54.5z"/>
		<path class="st0" d="M32.5,44.2c1.9-1.8,3.7-2.7,5.5-2.7c2.5,0,4.2,1.7,4.2,4.4v6.9c0,1.9,0.5,2.5,2.2,2.5v0.8h-6.9v-0.8
			c1.8,0,2.2-0.7,2.2-2.8v-5.8c0-2.3-0.9-3.5-2.9-3.5c-1.5,0-3,0.7-4.4,1.9v7.4c0,2.1,0.4,2.8,2.4,2.8v0.8h-7.2v-0.8
			c1.6,0,2.4-0.4,2.4-2.3V36.9l-2.2-1.1v-0.5l4.7-1.4C32.5,33.9,32.5,44.2,32.5,44.2z"/>
		<path class="st0" d="M50.6,41.5v2.8c1.6-1.6,3.5-2.8,5.5-2.8c2.4,0,4.3,1.6,4.3,4.6v6.6c0,2,0.5,2.6,2.3,2.6v0.8h-7.3v-0.8
			c2.1,0,2.5-0.7,2.5-2.8v-6.3c0-1.7-1.1-2.9-2.9-2.9c-1.5,0-3.1,0.7-4.4,1.9v7.3c0,2,0.2,2.9,2.6,2.8v0.8h-7.5v-0.8
			c1.8,0,2.4-0.4,2.4-2.8v-8.2l-2.3-1.1v-0.4L50.6,41.5z"/>
		<path class="st0" d="M85.9,48.7H85c-0.3-2.3-1.5-3.4-4.6-3.4h-4.1V52c0,3,0.3,3.3,4.4,3.3c4.5,0,6.5-1.6,7.9-4.2h1l-1.3,5.2H69.9
			v-0.9c2.7,0.1,3.4-0.7,3.4-2.8V38c0-2.1-0.7-2.8-3.4-2.7v-0.9h17.9l0.2,4.7h-1c-0.7-2.4-2.2-3.8-5.4-3.8h-5.3v9.1h4.3
			c2.6,0,4.3-0.9,4.4-3.5h0.9V48.7z"/>
		<path class="st0" d="M95.3,34v18.6c0,2.2,0.4,2.8,2.3,2.8v0.8h-7.1v-0.8c1.8-0.1,2.3-0.4,2.3-2.9V36.9l-2.3-1v-0.5L95.3,34z"/>
		<path class="st0" d="M103.7,41.5v11.2c0,2,0.4,2.7,2.2,2.7v0.8h-7.2v-0.8c2.1,0,2.5-0.5,2.5-2.8v-8.1l-2.3-1.1v-0.5L103.7,41.5z
			 M102.4,34c0.9,0,1.6,0.7,1.6,1.6c0,0.9-0.7,1.6-1.6,1.6s-1.6-0.7-1.6-1.6S101.5,34,102.4,34z"/>
		<path class="st0" d="M113.9,41.5c4.1,0,7.2,3.2,7.2,7.4c0,4.3-3.1,7.6-7.1,7.6c-4.2,0-7.3-3.2-7.3-7.5S109.8,41.5,113.9,41.5z
			 M111.6,54.5c0.5,0.5,1.4,1.2,2.8,1.2c2.4,0,4.1-2,4.1-4.8c0-1.5-0.4-5.3-2.4-7.4c-0.6-0.6-1.5-1.1-2.6-1.1c-2,0-4.4,1.2-4.4,5.2
			C109.2,49.6,110,52.8,111.6,54.5z"/>
		<path class="st0" d="M131.5,55.7c-1.3,0.5-3,0.8-4.1,0.8c-2.3,0-3.1-1.1-3.1-3.3V42.9h-2.6v-0.7c2.1-0.6,3.5-1.7,4.3-3.6h0.8v3.1
			h4.4v1.2h-4.4v9.9c0,1.6,0.5,2.2,2.1,2.2c0.7,0,1.4-0.1,2.6-0.3L131.5,55.7L131.5,55.7z"/>
		<path class="st0" d="M160.6,40.3h-0.9c-1.3-3.4-4.1-5.2-7.7-5.2c-5.1,0-9.2,3.7-9.2,9.9c0,6.1,3.9,10.5,9.4,10.5
			c2.1,0,4.4-0.6,5.8-1.5v-5c0-2.1-0.6-2.9-3.9-2.8v-0.9h9.9v0.9c-2.3-0.1-3.2,0.6-3.2,2.7v6c-3.1,1.1-6,1.7-8.5,1.7
			c-6.6,0-13.1-3.2-13.1-11c0-6.8,5.4-11.6,13.2-11.6c2.7,0,5,0.5,7.8,1.5L160.6,40.3z"/>
		<path class="st0" d="M178.7,54.8c-1,1.2-1.9,1.8-2.7,1.8c-1.3,0-2-0.9-2.1-2.6c-1.5,1.7-3.2,2.6-4.7,2.6c-2.2,0-3.7-1.4-3.7-3.4
			s1.2-3,5.4-4.5l2.9-1v-2.5c0-1.6-1.2-2.7-3-2.7c-1.4,0-2.7,0.8-2.7,1.7c0,0.7,0.8,1.5,0.8,1.9s-2,1.1-2.1,1.1
			c-0.3,0-0.9-1.1-0.9-2c0-2.1,2.5-3.7,5.8-3.7c3.2,0,4.5,1.3,4.5,3.8v7.4c0,1.1,0.3,1.6,0.9,1.6c0.4,0,0.7-0.1,1.2-0.4L178.7,54.8z
			 M170.1,50.1c-1.3,0.6-2,1.3-2,2.3c0,1.3,1,2.2,2.4,2.2c1.2,0,2.3-0.6,3.4-1.8v-4.4L170.1,50.1z"/>
		<path class="st0" d="M184.9,41.5v3.7h0.1c1.2-2.6,2.4-3.5,3.8-3.5c1.1,0,2.4,1,2.4,1.8c0,0.7-0.5,1.9-1.1,1.9
			c-0.8,0-1.3-1.5-2.4-1.5c-0.8,0-1.3,0.5-2.8,2.8v6.2c0,2,0.3,2.7,3.3,2.6v0.8h-8.3v-0.8c1.9,0,2.5-0.4,2.5-2.3v-8.6l-2.5-1.1v-0.4
			L184.9,41.5z"/>
		<path class="st0" d="M207.9,55.7l-4.8,0.8v-2.7c-2,2-3.4,2.7-5.3,2.7c-3.4,0-6-2.9-6-6.8c0-3.6,2.7-8.3,7.7-8.3
			c1.4,0,2.5,0.3,3.6,1.2v-5.7l-2.5-1.1v-0.5l5-1.4v19c0,1.4,0.4,1.9,1.3,1.9c0.4,0,0.8,0,1-0.1V55.7z M203.1,47.1
			c0-2.4-1.6-4.6-4.4-4.6s-4.5,2.3-4.5,5.8c0,3.7,2.1,6.4,5,6.4c1.4,0,2.6-0.6,3.9-2V47.1z"/>
		<path class="st0" d="M214.1,41.5v11.2c0,2,0.4,2.7,2.2,2.7v0.8h-7.2v-0.8c2.1,0,2.5-0.5,2.5-2.8v-8.1l-2.3-1.1v-0.5L214.1,41.5z
			 M212.8,34c0.9,0,1.6,0.7,1.6,1.6c0,0.9-0.7,1.6-1.6,1.6c-0.9,0-1.6-0.7-1.6-1.6S211.9,34,212.8,34z"/>
		<path class="st0" d="M222.4,41.5v2.8c1.6-1.6,3.5-2.8,5.5-2.8c2.4,0,4.3,1.6,4.3,4.6v6.6c0,2,0.5,2.6,2.3,2.6v0.8h-7.3v-0.8
			c2.1,0,2.5-0.7,2.5-2.8v-6.3c0-1.7-1.1-2.9-2.9-2.9c-1.5,0-3.1,0.7-4.4,1.9v7.3c0,2,0.2,2.9,2.6,2.8v0.8h-7.5v-0.8
			c1.8,0,2.4-0.4,2.4-2.8v-8.2l-2.3-1.1v-0.4L222.4,41.5z"/>
		<path class="st0" d="M237.4,47.1c-0.2,4.9,2.8,7.2,5.8,7.2c1.6,0,2.6-0.4,3.9-1.8l0.5,0.5c-1.5,2.3-3.5,3.5-5.7,3.5
			c-3.9,0-6.7-3.1-6.7-7.4c0-4.4,2.8-7.6,6.6-7.6c3.2,0,5.8,2.5,5.9,5.6H237.4z M244.6,46.2c-0.3-2.4-1.5-3.8-3.4-3.8
			s-3.4,1.5-3.7,3.8H244.6z"/>
		<path class="st0" d="M253.5,41.5v3.7h0.1c1.2-2.6,2.4-3.5,3.8-3.5c1.1,0,2.4,1,2.4,1.8c0,0.7-0.5,1.9-1.1,1.9
			c-0.8,0-1.3-1.5-2.4-1.5c-0.8,0-1.3,0.5-2.8,2.8v6.2c0,2,0.3,2.7,3.3,2.6v0.8h-8.3v-0.8c1.9,0,2.5-0.4,2.5-2.3v-8.6l-2.5-1.1v-0.4
			L253.5,41.5z"/>
	</g>
	<g>
		<path class="st0" d="M81.8,68.4v0.9c-1.3,0-2.4,0.9-4.8,4.3l-5.2,7.5v5.3c0,2,0.6,2.9,3.2,2.8v0.9h-9.4v-0.9
			c2.6,0,3.2-0.7,3.2-2.8v-5.5l-6-8.8c-1.5-2.3-2.2-2.7-4-2.8v-0.9h9.5v0.9c-2-0.1-2.6,0.4-2.6,1.3c0,0.7,0.4,1.4,1.3,2.8l4.2,6.3
			l3.4-4.8c1-1.4,1.7-2.9,1.7-3.6c0-1.2-0.8-1.9-2.5-2v-0.9C73.8,68.4,81.8,68.4,81.8,68.4z"/>
		<path class="st0" d="M97,89.6l-4.9,0.9v-2.8c-1.6,1.8-3.6,2.8-5.5,2.8c-2.2,0-4.3-1.5-4.3-4.5v-7.1c0-1.5-0.5-2-2.5-2.2v-0.8
			c1.6,0,2.7-0.1,3.4-0.1c0.8-0.1,1.2-0.1,1.6-0.2v9.9c0,2.1,1.1,3.2,3.1,3.2c1.4,0,2.9-0.6,4.2-1.9v-7.6c0-1.8-0.4-2.5-2.6-2.5
			v-0.8c1.4,0,2.4-0.1,3.2-0.1c0.8-0.1,1.4-0.1,2-0.2v11.6c0,1.8,0.7,1.8,2.4,1.6L97,89.6L97,89.6z"/>
		<path class="st0" d="M102.1,75.5v13.2c0,2-0.5,2.8-4.5,7.5l-0.8-0.7c2.4-3.7,2.8-5.5,2.8-7V78.4l-2.5-1.1v-0.5L102.1,75.5z
			 M100.6,68c0.9,0,1.6,0.7,1.6,1.6s-0.7,1.6-1.6,1.6S99,70.5,99,69.6S99.7,68,100.6,68z"/>
		<path class="st0" d="M118.1,88.8c-1,1.2-1.9,1.8-2.7,1.8c-1.3,0-2-0.9-2.1-2.6c-1.5,1.7-3.2,2.6-4.7,2.6c-2.2,0-3.7-1.4-3.7-3.4
			s1.2-3,5.4-4.5l2.9-1v-2.5c0-1.6-1.2-2.7-3-2.7c-1.4,0-2.7,0.8-2.7,1.7c0,0.7,0.8,1.5,0.8,1.9s-2,1.1-2.1,1.1
			c-0.3,0-0.9-1.1-0.9-2c0-2.1,2.5-3.7,5.8-3.7c3.2,0,4.5,1.3,4.5,3.8v7.4c0,1.1,0.3,1.6,0.9,1.6c0.4,0,0.7-0.1,1.2-0.4L118.1,88.8z
			 M109.5,84.1c-1.3,0.6-2,1.3-2,2.3c0,1.3,1,2.2,2.4,2.2c1.2,0,2.3-0.6,3.4-1.8v-4.4L109.5,84.1z"/>
		<path class="st0" d="M157,68.4v0.9c-0.2,0-1.1,0.3-1.4,0.6c-0.5,0.5-1.2,1.9-1.9,3.5l-3.2,7.6c-0.7,1.7-3.6,7.2-3.9,9.6h-1.3
			c-0.3-1.2-0.9-2.8-1.7-4.4l-2.3-4.8l-3.1,6c-0.9,1.7-1.2,2.4-1.3,3.2h-1.4c-0.1-0.7-0.7-2.2-1.7-4.5L129,75.3
			c-1-2.3-1.7-4.4-2.6-5.4c-0.4-0.4-1-0.6-1.4-0.6v-0.9h7.6v0.9c-1.2,0.1-1.9,0.8-1.9,1.9c0,2,3.1,6.7,6.6,15.9
			c0.5-1.4,2.3-4.6,3.4-6.9l-3.3-6.9c-1.6-3.5-2-3.9-3.3-4v-0.9h7.4v0.9c-1,0.1-1.6,0.7-1.6,1.7c0,0.9,0.4,1.9,0.8,2.6l1.7,3.3
			l1.9-3.5c0.1-0.3,0.6-1.5,0.6-2.1c0-1-0.7-1.9-1.7-2v-0.9h5.9v0.9c-1.3,0.1-2.3,1.5-4,4.8l-2.1,4.1c1.4,3.1,3.6,7.4,3.8,8.3
			c0.7-1.6,1.3-2.8,2-4.3l2.1-5c0.9-2.1,1.8-4.8,1.8-5.7c0-1.3-0.7-2.1-2-2.2v-0.9C150.7,68.4,157,68.4,157,68.4z"/>
		<path class="st0" d="M169,88.8c-1,1.2-1.9,1.8-2.7,1.8c-1.3,0-2-0.9-2.1-2.6c-1.5,1.7-3.2,2.6-4.7,2.6c-2.2,0-3.7-1.4-3.7-3.4
			s1.2-3,5.4-4.5l2.9-1v-2.5c0-1.6-1.2-2.7-3-2.7c-1.4,0-2.7,0.8-2.7,1.7c0,0.7,0.8,1.5,0.8,1.9s-2,1.1-2.1,1.1
			c-0.3,0-0.9-1.1-0.9-2c0-2.1,2.5-3.7,5.8-3.7c3.2,0,4.5,1.3,4.5,3.8v7.4c0,1.1,0.3,1.6,0.9,1.6c0.4,0,0.7-0.1,1.2-0.4L169,88.8z
			 M160.4,84.1c-1.3,0.6-2,1.3-2,2.3c0,1.3,1,2.2,2.4,2.2c1.2,0,2.3-0.6,3.4-1.8v-4.4L160.4,84.1z"/>
		<path class="st0" d="M175.1,75.5v2.8c1.6-1.6,3.5-2.8,5.5-2.8c2.4,0,4.3,1.6,4.3,4.6v6.6c0,2,0.5,2.6,2.3,2.6v0.8h-7.3v-0.8
			c2.1,0,2.5-0.7,2.5-2.8v-6.3c0-1.7-1.1-2.9-2.9-2.9c-1.5,0-3.1,0.7-4.4,1.9v7.3c0,2,0.2,2.9,2.6,2.8v0.8h-7.5v-0.8
			c1.8,0,2.4-0.4,2.4-2.8v-8.2l-2.3-1.1v-0.4L175.1,75.5z"/>
		<path class="st0" d="M203,78.3c-0.2,0.1-0.6,0.1-0.8,0.1c-0.8,0-1.7-0.2-2.7-0.4l-0.1,0.1c0.5,0.7,0.8,1.7,0.8,2.6
			c0,2.8-2.5,5-5.7,5c-0.8,0-1.6-0.1-2.1-0.3c-0.9,0.7-1.4,1.3-1.4,1.7c0,0.7,0.9,1,3.6,1h2.5c3.4,0,5.1,1.2,5.1,3.3
			c0,3-3.6,5.2-8.4,5.2c-3,0-5.9-1-5.9-3c0-1,1-2.3,2.7-3.5c-1.2-0.3-1.8-0.9-1.8-1.7c0-0.8,0.4-1.4,2.7-3.4
			c-1.6-0.8-2.7-2.4-2.7-4.2c0-2.9,2.5-5.2,5.7-5.2c1.4,0,2.1,0.3,3,0.5c0.9,0.3,2,0.5,4,0.5c0.5,0,0.9,0,1.4-0.1L203,78.3L203,78.3
			z M190,92.8c0,1.3,1.9,2.3,4.5,2.3c3.4,0,6.1-1.3,6.1-2.9c0-1.4-1.2-1.8-4.5-1.8c-2.2,0-3.1-0.1-4.3-0.3
			C190.5,91.2,190,91.9,190,92.8z M194.9,84.6c1.7,0,2.8-1.3,2.8-3.3c0-1.2-0.4-4.8-3.4-4.8c-1.8,0-2.9,1.3-2.9,3.6
			C191.5,82.8,192.8,84.6,194.9,84.6z"/>
	</g>
	<g>
		<path class="st0" d="M53.1,109.9c0.3-1.4,0.5-2.9,0.5-4.2c0-1.6-1-2.5-2.6-2.5v-0.9h5.6c0.1,1.6,1.9,6,2.8,8.1l1.5,3.3
			c1.1,2.4,1.7,3.2,3,6.4c0.4-1.2,0.8-2,1.9-4l2.3-4.6c2.4-4.8,2.9-6.8,2.9-9.2h6v0.9c-2-0.1-2.7,0.6-2.7,2.4c0,0.5,0.1,1.2,0.2,2
			l1.7,12.4c0.3,2.3,1.2,3,3.1,3.2v0.9H70v-0.9c1.9,0,3-1,3-2.6c0-0.2-0.1-1.5-0.3-3.4l-1.2-10.9h-0.1c-0.2,0.6-0.3,0.9-0.7,1.8
			c-0.8,1.8-0.9,2.1-1.9,4l-1.1,2.1c-1.4,2.8-1.7,3.4-2.3,4.6c-0.7,1.6-1.3,3.1-1.6,3.9c-0.2,0.6-0.3,0.8-0.4,1.4h-1.2
			c-0.4-1.6-0.9-3-2-5.4l-3.1-6.6c-1-2.1-1.9-4.3-2.4-5.9h-0.1l-1.8,11.9c-0.2,1-0.2,1.4-0.2,2c0,1.9,0.8,2.7,3,3v0.9H48v-0.9
			c2.3-0.2,3.1-2.5,3.7-6.2L53.1,109.9z"/>
		<path class="st0" d="M94.1,122.8c-1,1.2-1.9,1.8-2.7,1.8c-1.3,0-2-0.9-2.1-2.6c-1.5,1.7-3.2,2.6-4.7,2.6c-2.2,0-3.7-1.4-3.7-3.4
			s1.2-3,5.4-4.5l2.9-1v-2.5c0-1.6-1.2-2.7-3-2.7c-1.4,0-2.7,0.8-2.7,1.7c0,0.7,0.8,1.5,0.8,1.9s-2,1.1-2.1,1.1
			c-0.3,0-0.9-1.1-0.9-2c0-2.1,2.5-3.7,5.8-3.7c3.2,0,4.5,1.3,4.5,3.8v7.4c0,1.1,0.3,1.6,0.9,1.6c0.4,0,0.7-0.1,1.2-0.4L94.1,122.8z
			 M85.5,118.1c-1.3,0.6-2,1.3-2,2.3c0,1.3,1,2.2,2.4,2.2c1.2,0,2.3-0.6,3.4-1.8v-4.4L85.5,118.1z"/>
		<path class="st0" d="M100.8,119.7c-1.2,1.3-1.4,1.8-1.4,2.3c0,0.8,0.7,1.2,1.8,1.3v0.8h-5.9v-0.8c0.8-0.1,1.8-0.6,4-3.1l2.5-2.9
			l-4.3-5.2c-1.1-1.3-1.3-1.5-2.4-1.6v-0.8h6.4v0.8c-1,0-1.4,0.3-1.4,0.7c0,0.4,0.1,0.5,1.1,1.7l2,2.5l1.7-1.9
			c0.6-0.7,1.1-1.5,1.1-1.9c0-0.7-0.5-1-1.5-1.1v-0.8h5.5v0.8c-0.9,0-1.9,0.6-2.8,1.7l-3.4,3.9l4.3,5.2c1.1,1.4,1.8,1.8,2.6,2v0.8
			h-6.9v-0.8c1.1-0.1,1.6-0.4,1.6-1c0-0.4-0.2-0.8-1.1-1.9l-2-2.4L100.8,119.7z"/>
		<path class="st0" d="M140.5,123.8c-1,0.2-1.7,0.3-2.4,0.3c-1.7,0-2.9-0.8-4.9-3.2l-5.3-6.3c-0.6-0.7-0.8-0.8-1.9-0.8h-1.7v6.5
			c0,2,0.5,2.9,3.3,2.8v0.9h-9.5v-0.9c2.8,0.1,3.3-0.8,3.3-2.8V106c0-1.9-0.6-2.8-3.3-2.7v-0.9h10.7c4.6,0,7.6,2.4,7.6,5.6
			c0,2.1-1.4,4.7-6.1,5.4c0.9,1,1.9,2.1,2.5,2.7l3.9,4.6c1.8,2,2.7,2.6,3.7,2.6L140.5,123.8L140.5,123.8z M126.9,112.7
			c4.4,0,6.1-1.7,6.1-4.4c0-2.9-1.7-5-6-5h-2.6v9.4H126.9z"/>
		<path class="st0" d="M146.8,109.4v11.2c0,2,0.4,2.7,2.2,2.7v0.8h-7.2v-0.8c2.1,0,2.5-0.5,2.5-2.8v-8.1l-2.3-1.1v-0.5L146.8,109.4z
			 M145.5,102c0.9,0,1.6,0.7,1.6,1.6s-0.7,1.6-1.6,1.6c-0.9,0-1.6-0.7-1.6-1.6S144.6,102,145.5,102z"/>
		<path class="st0" d="M162.6,120.7c-1.4,2.4-3.6,3.8-5.9,3.8c-3.8,0-6.9-3.1-6.9-7.3c0-4.5,3.3-7.7,7.7-7.7c2.8,0,4.9,1.2,4.9,2.9
			c0,0.9-0.5,1.4-1.2,1.4c-2,0-0.8-3.4-4.3-3.4c-2.8,0-4.6,2.1-4.6,5.5c0,3.7,2.3,6.4,5.5,6.4c1.5,0,2.9-0.6,4.2-2L162.6,120.7z"/>
		<path class="st0" d="M167.9,112.2c1.9-1.8,3.7-2.7,5.5-2.7c2.5,0,4.2,1.7,4.2,4.4v6.9c0,1.9,0.5,2.5,2.2,2.5v0.8h-6.9v-0.8
			c1.8,0,2.2-0.7,2.2-2.8v-5.8c0-2.3-0.9-3.5-2.9-3.5c-1.5,0-3,0.7-4.4,1.9v7.4c0,2.1,0.4,2.8,2.4,2.8v0.8H163v-0.8
			c1.6,0,2.4-0.4,2.4-2.3v-16.1l-2.2-1.1v-0.5l4.7-1.4V112.2z"/>
		<path class="st0" d="M189.3,123.7c-1.3,0.5-3,0.8-4.1,0.8c-2.3,0-3.1-1.1-3.1-3.3v-10.3h-2.6v-0.7c2.1-0.6,3.5-1.7,4.3-3.6h0.8
			v3.1h4.4v1.2h-4.4v9.9c0,1.6,0.5,2.2,2.1,2.2c0.7,0,1.4-0.1,2.6-0.3V123.7z"/>
		<path class="st0" d="M191.8,115.1c-0.2,4.9,2.8,7.2,5.8,7.2c1.6,0,2.6-0.4,3.9-1.8l0.5,0.5c-1.5,2.3-3.5,3.5-5.7,3.5
			c-3.9,0-6.7-3.1-6.7-7.4c0-4.4,2.8-7.6,6.6-7.6c3.2,0,5.8,2.5,5.9,5.6C202.1,115.1,191.8,115.1,191.8,115.1z M199,114.2
			c-0.3-2.4-1.5-3.8-3.4-3.8s-3.4,1.5-3.7,3.8H199z"/>
		<path class="st0" d="M207.9,109.4v3.7h0.1c1.2-2.6,2.4-3.5,3.8-3.5c1.1,0,2.4,1,2.4,1.8c0,0.7-0.5,1.9-1.1,1.9
			c-0.8,0-1.3-1.5-2.4-1.5c-0.8,0-1.3,0.5-2.8,2.8v6.2c0,2,0.3,2.7,3.3,2.6v0.8h-8.3v-0.8c1.9,0,2.5-0.4,2.5-2.3v-8.6l-2.5-1.1V111
			L207.9,109.4z"/>
	</g>
	<g>
		<path class="st0" d="M43.9,170.3c7.9,0,12.1,5.1,12.1,10.6c0,3.8-1.7,6.5-3.4,8.2c-1.9,1.9-4.4,3-9.9,3h-11v-0.9
			c3,0.1,3.6-0.8,3.6-2.8v-14.3c0-2-0.5-3-3.6-2.8v-0.9h12.2V170.3z M38.3,187.8c0,2.4,1.1,3.4,4.4,3.4c3,0,5.7-0.6,7.5-2.4
			c2-2,2.5-4.7,2.5-7c0-3-0.9-5.8-2.8-7.6c-1.8-1.8-4.4-2.9-8-2.9h-3.5v16.5H38.3z"/>
		<path class="st0" d="M63,177.4v11.2c0,2,0.4,2.7,2.2,2.7v0.8H58v-0.8c2.1,0,2.5-0.5,2.5-2.8v-8.1l-2.3-1.1v-0.5L63,177.4z
			 M61.8,169.9c0.9,0,1.6,0.7,1.6,1.6c0,0.9-0.7,1.6-1.6,1.6s-1.6-0.7-1.6-1.6C60.1,170.7,60.9,169.9,61.8,169.9z"/>
		<path class="st0" d="M79.7,190.7c-1,1.2-1.9,1.8-2.7,1.8c-1.3,0-2-0.9-2.1-2.6c-1.5,1.7-3.2,2.6-4.7,2.6c-2.2,0-3.7-1.4-3.7-3.4
			s1.2-3,5.4-4.5l2.9-1v-2.5c0-1.6-1.2-2.7-3-2.7c-1.4,0-2.7,0.8-2.7,1.7c0,0.7,0.8,1.5,0.8,1.9s-2,1.1-2.1,1.1
			c-0.3,0-0.9-1.1-0.9-2c0-2.1,2.5-3.7,5.8-3.7c3.2,0,4.5,1.3,4.5,3.8v7.4c0,1.1,0.3,1.6,0.9,1.6c0.4,0,0.7-0.1,1.2-0.4L79.7,190.7z
			 M71.1,186.1c-1.3,0.6-2,1.3-2,2.3c0,1.3,1,2.2,2.4,2.2c1.2,0,2.3-0.6,3.4-1.8v-4.4L71.1,186.1z"/>
		<path class="st0" d="M85.9,177.4v2.8c1.6-1.6,3.5-2.8,5.5-2.8c2.4,0,4.3,1.6,4.3,4.6v6.6c0,2,0.5,2.6,2.3,2.6v0.8h-7.3v-0.8
			c2.1,0,2.5-0.7,2.5-2.8v-6.3c0-1.7-1.1-2.9-2.9-2.9c-1.5,0-3.1,0.7-4.4,1.9v7.3c0,2,0.2,2.9,2.6,2.8v0.8H81v-0.8
			c1.8,0,2.4-0.4,2.4-2.8v-8.2l-2.3-1.1v-0.4L85.9,177.4z"/>
		<path class="st0" d="M112.4,190.7c-1,1.2-1.9,1.8-2.7,1.8c-1.3,0-2-0.9-2.1-2.6c-1.5,1.7-3.2,2.6-4.7,2.6c-2.2,0-3.7-1.4-3.7-3.4
			s1.2-3,5.4-4.5l2.9-1v-2.5c0-1.6-1.2-2.7-3-2.7c-1.4,0-2.7,0.8-2.7,1.7c0,0.7,0.8,1.5,0.8,1.9s-2,1.1-2.1,1.1
			c-0.3,0-0.9-1.1-0.9-2c0-2.1,2.5-3.7,5.8-3.7c3.2,0,4.5,1.3,4.5,3.8v7.4c0,1.1,0.3,1.6,0.9,1.6c0.4,0,0.7-0.1,1.2-0.4L112.4,190.7
			z M103.8,186.1c-1.3,0.6-2,1.3-2,2.3c0,1.3,1,2.2,2.4,2.2c1.2,0,2.3-0.6,3.4-1.8v-4.4L103.8,186.1z"/>
		<path class="st0" d="M132,170.3c7.9,0,12.1,5.1,12.1,10.6c0,3.8-1.7,6.5-3.4,8.2c-1.9,1.9-4.4,3-9.9,3h-11v-0.9
			c3,0.1,3.6-0.8,3.6-2.8v-14.3c0-2-0.5-3-3.6-2.8v-0.9H132V170.3z M126.4,187.8c0,2.4,1.1,3.4,4.4,3.4c3,0,5.7-0.6,7.5-2.4
			c2-2,2.5-4.7,2.5-7c0-3-0.9-5.8-2.8-7.6c-1.8-1.8-4.4-2.9-8-2.9h-3.5L126.4,187.8L126.4,187.8z"/>
		<path class="st0" d="M159.7,190.7c-1,1.2-1.9,1.8-2.7,1.8c-1.3,0-2-0.9-2.1-2.6c-1.5,1.7-3.2,2.6-4.7,2.6c-2.2,0-3.7-1.4-3.7-3.4
			s1.2-3,5.4-4.5l2.9-1v-2.5c0-1.6-1.2-2.7-3-2.7c-1.4,0-2.7,0.8-2.7,1.7c0,0.7,0.8,1.5,0.8,1.9s-2,1.1-2.1,1.1
			c-0.3,0-0.9-1.1-0.9-2c0-2.1,2.5-3.7,5.8-3.7c3.2,0,4.5,1.3,4.5,3.8v7.4c0,1.1,0.3,1.6,0.9,1.6c0.4,0,0.7-0.1,1.2-0.4L159.7,190.7
			z M151.1,186.1c-1.3,0.6-2,1.3-2,2.3c0,1.3,1,2.2,2.4,2.2c1.2,0,2.3-0.6,3.4-1.8v-4.4L151.1,186.1z"/>
		<path class="st0" d="M165.9,177.4v2.5c1.5-1.6,3.4-2.5,5.2-2.5c2,0,3.6,1.1,4.1,2.7c1.8-1.9,3.6-2.7,5.5-2.7c1.7,0,4.3,1,4.3,3.9
			v7.3c0,1.9,0.3,2.7,2.3,2.7v0.8h-7v-0.8c1.5,0,2.2-0.6,2.2-2.5v-5.9c0-2-0.6-3.5-3.1-3.5c-1.3,0-2.7,0.6-3.9,1.7v7.7
			c0,1.8,0.4,2.6,2.3,2.6v0.8h-7.2v-0.8c1.9,0,2.4-0.7,2.4-2.7v-6.4c0-1.7-1.2-2.8-3.1-2.8c-1.3,0-2.8,0.6-3.9,1.7v7.6
			c0,2,0.4,2.7,2.3,2.7v0.8H161v-0.8c2.2,0,2.5-0.6,2.5-3v-8l-2.2-1.1v-0.5L165.9,177.4z"/>
		<path class="st0" d="M193.4,177.4v3.7h0.1c1.2-2.6,2.4-3.5,3.8-3.5c1.1,0,2.4,1,2.4,1.8c0,0.7-0.5,1.9-1.1,1.9
			c-0.8,0-1.3-1.5-2.4-1.5c-0.8,0-1.3,0.5-2.8,2.8v6.2c0,2,0.3,2.7,3.3,2.6v0.8h-8.3v-0.8c1.9,0,2.5-0.4,2.5-2.3v-8.6l-2.5-1.1V179
			L193.4,177.4z"/>
		<path class="st0" d="M213.9,190.7c-1,1.2-1.9,1.8-2.7,1.8c-1.3,0-2-0.9-2.1-2.6c-1.5,1.7-3.2,2.6-4.7,2.6c-2.2,0-3.7-1.4-3.7-3.4
			s1.2-3,5.4-4.5l2.9-1v-2.5c0-1.6-1.2-2.7-3-2.7c-1.4,0-2.7,0.8-2.7,1.7c0,0.7,0.8,1.5,0.8,1.9s-2,1.1-2.1,1.1
			c-0.3,0-0.9-1.1-0.9-2c0-2.1,2.5-3.7,5.8-3.7c3.2,0,4.5,1.3,4.5,3.8v7.4c0,1.1,0.3,1.6,0.9,1.6c0.4,0,0.7-0.1,1.2-0.4L213.9,190.7
			z M205.3,186.1c-1.3,0.6-2,1.3-2,2.3c0,1.3,1,2.2,2.4,2.2c1.2,0,2.3-0.6,3.4-1.8v-4.4L205.3,186.1z"/>
		<path class="st0" d="M230.7,191.6l-4.9,0.9v-2.8c-1.6,1.8-3.6,2.8-5.5,2.8c-2.2,0-4.3-1.5-4.3-4.5v-7.1c0-1.5-0.5-2-2.5-2.2v-0.8
			c1.6,0,2.7-0.1,3.4-0.1c0.8-0.1,1.2-0.1,1.6-0.2v9.9c0,2.1,1.1,3.2,3.1,3.2c1.4,0,2.9-0.6,4.2-1.9v-7.6c0-1.8-0.4-2.5-2.6-2.5
			v-0.8c1.4,0,2.4-0.1,3.2-0.1c0.8-0.1,1.4-0.1,2-0.2v11.6c0,1.8,0.7,1.8,2.4,1.6L230.7,191.6L230.7,191.6z"/>
	</g>
	<g>
		<path class="st0" d="M28.3,212.1v0.9c-0.9,0.1-1.4,0.4-2.2,1.2c-1.2,1.2-2,4.2-4,6.6c0.5,1,1.5,2.3,2.2,3c2,2,4,0.6,4,1.9
			c0,0.6-0.6,0.8-2.3,0.8c-2.6,0-4-0.7-5.9-3.3c-2.3,2.2-4.8,3.3-7.4,3.3c-3.5,0-6.3-2.5-6.3-5.7c0-1.9,0.9-3.9,3.1-5.4l3-2
			c-1.6-1.8-2.4-3.2-2.4-4.1c0-1.2,0.8-2.6,2.2-3.7c1.2-1,2.7-1.7,3.7-1.7c1.9,0,4.3,2.2,4.3,4.1c0,1.2-0.9,2.1-4.5,4.6
			c2.2,2.2,4.6,5.3,5.8,7.5c1.6-2,2.3-4.3,2.3-5.1c0-1.1-0.6-1.7-2-2v-0.9L28.3,212.1L28.3,212.1z M9.3,219.2c0,2.6,2.8,5.3,5.4,5.3
			c1.6,0,3.3-0.7,4.8-2.2c-1.5-2.3-3.2-4.9-6.2-8.1C10.2,216.4,9.3,217.5,9.3,219.2z M15,211.8c2.3-1.7,3-2.6,3-3.5
			c0-1.3-1.8-3-3.1-3c-0.8,0-2.7,1.4-2.7,2.7c0,0.7,0.4,1.5,1.4,2.4L15,211.8z"/>
		<path class="st0" d="M45,205.2c-2.7,0-3.3,0.8-3.3,2.8v15.5c0,3.1-0.5,5.2-2,6.7c-1.1,1.1-2.5,1.5-3.6,1.5c-1.9,0-3.3-1-3.3-2.2
			c0-0.8,0.6-1.4,1.4-1.4c1.9,0,1.5,2.3,3,2.3c1.1,0,1.5-0.8,1.5-3.6v-19.1c0-1.7-0.6-2.7-3.6-2.5v-0.9H45V205.2z"/>
		<path class="st0" d="M52.6,211.4c4.1,0,7.2,3.2,7.2,7.4c0,4.3-3.1,7.6-7.1,7.6c-4.2,0-7.3-3.2-7.3-7.5
			C45.4,214.6,48.5,211.4,52.6,211.4z M50.3,224.4c0.5,0.5,1.4,1.2,2.8,1.2c2.4,0,4.1-2,4.1-4.8c0-1.5-0.4-5.3-2.4-7.4
			c-0.6-0.6-1.5-1.1-2.6-1.1c-2,0-4.4,1.2-4.4,5.2C47.9,219.6,48.7,222.8,50.3,224.4z"/>
		<path class="st0" d="M65.6,211.4v2.8c1.6-1.6,3.5-2.8,5.5-2.8c2.4,0,4.3,1.6,4.3,4.6v6.6c0,2,0.5,2.6,2.3,2.6v0.8h-7.3v-0.8
			c2.1,0,2.5-0.7,2.5-2.8v-6.3c0-1.7-1.1-2.9-2.9-2.9c-1.5,0-3.1,0.7-4.4,1.9v7.3c0,2,0.2,2.9,2.6,2.8v0.8h-7.5v-0.8
			c1.8,0,2.4-0.4,2.4-2.8v-8.2l-2.3-1.1v-0.4L65.6,211.4z"/>
		<path class="st0" d="M92.2,224.7c-1,1.2-1.9,1.8-2.7,1.8c-1.3,0-2-0.9-2.1-2.6c-1.5,1.7-3.2,2.6-4.7,2.6c-2.2,0-3.7-1.4-3.7-3.4
			s1.2-3,5.4-4.5l2.9-1v-2.5c0-1.6-1.2-2.7-3-2.7c-1.4,0-2.7,0.8-2.7,1.7c0,0.7,0.8,1.5,0.8,1.9s-2,1.1-2.1,1.1
			c-0.3,0-0.9-1.1-0.9-2c0-2.1,2.5-3.7,5.8-3.7c3.2,0,4.5,1.3,4.5,3.8v7.4c0,1.1,0.3,1.6,0.9,1.6c0.4,0,0.7-0.1,1.2-0.4L92.2,224.7z
			 M83.5,220.1c-1.3,0.6-2,1.3-2,2.3c0,1.3,1,2.2,2.4,2.2c1.2,0,2.3-0.6,3.4-1.8v-4.4L83.5,220.1z"/>
		<path class="st0" d="M94.8,221.3c0.3,2.5,1.6,4.2,3.7,4.2c1.6,0,2.8-1.1,2.8-2.5c0-0.4-0.1-1.1-0.5-1.4c-1.6-1.6-4.5-2-6.3-3.8
			c-0.6-0.6-1-1.4-1-2.5c0-2.3,2-3.9,4.7-3.9c1.5,0,2.9,0.5,4.1,1.4v3.4h-0.8c-0.5-2.6-1.5-3.8-3.3-3.8c-1.5,0-2.5,0.9-2.5,2.2
			c0,0.6,0.2,1.1,0.6,1.5c1.3,1.3,4.2,1.8,6,3.6c0.8,0.8,1.1,1.7,1.1,2.7c0,2.4-2.1,4.2-5,4.2c-1.5,0-3.1-0.4-4.4-1.2v-4L94.8,221.3
			L94.8,221.3z"/>
		<path class="st0" d="M121.3,226.1h-9.7v-0.9c2.8,0.1,3.4-0.7,3.4-2.7v-14.6c0-2.1-0.8-2.8-3.4-2.7v-0.9h9.7v0.9
			c-2.5,0-3.4,0.4-3.4,2.8v14.2c0,2.2,0.5,3.1,3.4,3V226.1z M134,204.3v0.9c-0.6,0-1.3,0.2-2.2,0.6c-2.4,1.2-6.4,5.2-10.5,8.1
			c4.4,3.3,10.5,9.4,12.8,10.7c0.7,0.4,1.5,0.6,2.3,0.6v0.9h-5.2c-3.2-2.4-6.4-5.9-13.1-11.1c5-3.5,6.8-4.9,7.8-6
			c0.9-0.9,1.2-1.4,1.2-2.1c0-1-0.7-1.5-2.2-1.7v-0.9H134z"/>
		<path class="st0" d="M150.9,224.7c-1,1.2-1.9,1.8-2.7,1.8c-1.3,0-2-0.9-2.1-2.6c-1.5,1.7-3.2,2.6-4.7,2.6c-2.2,0-3.7-1.4-3.7-3.4
			s1.2-3,5.4-4.5l2.9-1v-2.5c0-1.6-1.2-2.7-3-2.7c-1.4,0-2.7,0.8-2.7,1.7c0,0.7,0.8,1.5,0.8,1.9s-2,1.1-2.1,1.1
			c-0.3,0-0.9-1.1-0.9-2c0-2.1,2.5-3.7,5.8-3.7c3.2,0,4.5,1.3,4.5,3.8v7.4c0,1.1,0.3,1.6,0.9,1.6c0.4,0,0.7-0.1,1.2-0.4L150.9,224.7
			z M142.3,220.1c-1.3,0.6-2,1.3-2,2.3c0,1.3,1,2.2,2.4,2.2c1.2,0,2.3-0.6,3.4-1.8v-4.4L142.3,220.1z"/>
		<path class="st0" d="M167.7,225.5l-4.9,0.9v-2.8c-1.6,1.8-3.6,2.8-5.5,2.8c-2.2,0-4.3-1.5-4.3-4.5v-7.1c0-1.5-0.5-2-2.5-2.2v-0.8
			c1.6,0,2.7-0.1,3.4-0.1c0.8-0.1,1.2-0.1,1.6-0.2v9.9c0,2.1,1.1,3.2,3.1,3.2c1.4,0,2.9-0.6,4.2-1.9v-7.6c0-1.8-0.4-2.5-2.6-2.5
			v-0.8c1.4,0,2.4-0.1,3.2-0.1c0.8-0.1,1.4-0.1,2-0.2v11.6c0,1.8,0.7,1.8,2.4,1.6L167.7,225.5L167.7,225.5z"/>
		<path class="st0" d="M178,212.9h-3.7v9.6c0,2.5,0.4,2.9,3.3,2.8v0.8h-8.4v-0.8c2.3,0.1,2.7-0.6,2.7-2.7v-9.7h-2.6v-1.2
			c1.7,0,2.1-0.1,2.4-0.4c0.8-0.8,0-3.7,1.9-5.6c1.1-1.1,2.6-1.8,4.7-1.8c2.1,0,3.3,0.6,3.3,1.8c0,0.7-0.5,1.3-1.3,1.3
			c-1.4,0-2.1-2-3.4-2c-1.8,0-2.6,1.6-2.6,3.5v3.2h3.7L178,212.9L178,212.9z"/>
		<path class="st0" d="M184.3,211.4v2.5c1.5-1.6,3.4-2.5,5.2-2.5c2,0,3.6,1.1,4.1,2.7c1.8-1.9,3.6-2.7,5.5-2.7c1.7,0,4.3,1,4.3,3.9
			v7.3c0,1.9,0.3,2.7,2.3,2.7v0.8h-7v-0.8c1.5,0,2.2-0.6,2.2-2.5v-5.9c0-2-0.6-3.5-3.1-3.5c-1.3,0-2.7,0.6-3.9,1.7v7.7
			c0,1.8,0.4,2.6,2.3,2.6v0.8H189v-0.8c1.9,0,2.4-0.7,2.4-2.7v-6.4c0-1.7-1.2-2.8-3.1-2.8c-1.3,0-2.8,0.6-3.9,1.7v7.6
			c0,2,0.4,2.7,2.3,2.7v0.8h-7.3v-0.8c2.2,0,2.5-0.6,2.5-3v-8l-2.2-1.1v-0.5L184.3,211.4z"/>
		<path class="st0" d="M220.1,224.7c-1,1.2-1.9,1.8-2.7,1.8c-1.3,0-2-0.9-2.1-2.6c-1.5,1.7-3.2,2.6-4.7,2.6c-2.2,0-3.7-1.4-3.7-3.4
			s1.2-3,5.4-4.5l2.9-1v-2.5c0-1.6-1.2-2.7-3-2.7c-1.4,0-2.7,0.8-2.7,1.7c0,0.7,0.8,1.5,0.8,1.9s-2,1.1-2.1,1.1
			c-0.3,0-0.9-1.1-0.9-2c0-2.1,2.5-3.7,5.8-3.7c3.2,0,4.5,1.3,4.5,3.8v7.4c0,1.1,0.3,1.6,0.9,1.6c0.4,0,0.7-0.1,1.2-0.4L220.1,224.7
			z M211.5,220.1c-1.3,0.6-2,1.3-2,2.3c0,1.3,1,2.2,2.4,2.2c1.2,0,2.3-0.6,3.4-1.8v-4.4L211.5,220.1z"/>
		<path class="st0" d="M226.3,211.4v2.8c1.6-1.6,3.5-2.8,5.5-2.8c2.4,0,4.3,1.6,4.3,4.6v6.6c0,2,0.5,2.6,2.3,2.6v0.8h-7.3v-0.8
			c2.1,0,2.5-0.7,2.5-2.8v-6.3c0-1.7-1.1-2.9-2.9-2.9c-1.5,0-3.1,0.7-4.4,1.9v7.3c0,2,0.2,2.9,2.6,2.8v0.8h-7.5v-0.8
			c1.8,0,2.4-0.4,2.4-2.8v-8.2l-2.3-1.1v-0.4L226.3,211.4z"/>
		<path class="st0" d="M244.4,211.4v2.8c1.6-1.6,3.5-2.8,5.5-2.8c2.4,0,4.3,1.6,4.3,4.6v6.6c0,2,0.5,2.6,2.3,2.6v0.8h-7.3v-0.8
			c2.1,0,2.5-0.7,2.5-2.8v-6.3c0-1.7-1.1-2.9-2.9-2.9c-1.5,0-3.1,0.7-4.4,1.9v7.3c0,2,0.2,2.9,2.6,2.8v0.8h-7.5v-0.8
			c1.8,0,2.4-0.4,2.4-2.8v-8.2l-2.3-1.1v-0.4L244.4,211.4z"/>
	</g>
	<g>
		<path class="st0" d="M14,154.5c0,2.2,0.8,2.8,3.6,2.8v0.9H7.8v-0.9c2.4,0.1,3.3-0.5,3.3-2.7V140c0-1.8-0.5-2.8-3.4-2.7v-0.9H16
			c2.9,0,3.7,0.1,4.8,0.3c3.3,0.7,5.1,2.6,5.1,5.4c0,3.5-3.1,6.1-7.3,6.1c-2.1,0-2.6-0.3-2.6-0.8c0-0.3,0.3-0.6,0.7-0.6
			c0.3,0,1,0.1,1.2,0.1c2.1,0,4.6-1.2,4.6-4.4c0-3-2-5.2-5.4-5.2H14V154.5z"/>
		<path class="st0" d="M31.8,146.2c1.9-1.8,3.7-2.7,5.5-2.7c2.5,0,4.2,1.7,4.2,4.4v6.9c0,1.9,0.5,2.5,2.2,2.5v0.8h-6.9v-0.8
			c1.8,0,2.2-0.7,2.2-2.8v-5.8c0-2.3-0.9-3.5-2.9-3.5c-1.5,0-3,0.7-4.4,1.9v7.4c0,2.1,0.4,2.8,2.4,2.8v0.8h-7.2v-0.8
			c1.6,0,2.4-0.4,2.4-2.3v-16.1l-2.2-1.1v-0.5l4.7-1.4V146.2z"/>
		<path class="st0" d="M49.4,143.5v11.2c0,2,0.4,2.7,2.2,2.7v0.8h-7.2v-0.8c2.1,0,2.5-0.5,2.5-2.8v-8.1l-2.3-1.1v-0.5L49.4,143.5z
			 M48.1,136c0.9,0,1.6,0.7,1.6,1.6c0,0.9-0.7,1.6-1.6,1.6s-1.6-0.7-1.6-1.6C46.5,136.7,47.2,136,48.1,136z"/>
		<path class="st0" d="M57,136v18.6c0,2.2,0.4,2.8,2.3,2.8v0.8h-7.1v-0.8c1.8-0.1,2.3-0.4,2.3-2.9v-15.6l-2.3-1v-0.5L57,136z"/>
		<path class="st0" d="M64.9,143.5v11.2c0,2,0.4,2.7,2.2,2.7v0.8H60v-0.8c2.1,0,2.5-0.5,2.5-2.8v-8.1l-2.3-1.1v-0.5L64.9,143.5z
			 M63.7,136c0.9,0,1.6,0.7,1.6,1.6c0,0.9-0.7,1.6-1.6,1.6s-1.6-0.7-1.6-1.6C62,136.7,62.8,136,63.7,136z"/>
		<path class="st0" d="M67.9,145.3v-0.4l4.8-1.4v2.7c1.7-1.8,3.4-2.7,5.3-2.7c3.5,0,6.1,2.9,6.1,6.8c0,4.4-3.5,8.3-7.6,8.3
			c-1.4,0-2.8-0.4-3.8-1.2v3.5c0,2,0.1,2.5,2.8,2.5v0.8h-7.6v-0.8c2.6,0,2.3-1.2,2.3-2.9v-14L67.9,145.3z M72.7,152.6
			c0,2.8,1.8,4.9,4.4,4.9c2.7,0,4.4-2.3,4.4-5.8c0-3.9-2-6.4-5-6.4c-1.4,0-2.6,0.6-3.9,2V152.6z"/>
		<path class="st0" d="M85.8,145.3v-0.4l4.8-1.4v2.7c1.7-1.8,3.4-2.7,5.3-2.7c3.5,0,6.1,2.9,6.1,6.8c0,4.4-3.5,8.3-7.6,8.3
			c-1.4,0-2.8-0.4-3.8-1.2v3.5c0,2,0.1,2.5,2.8,2.5v0.8h-7.6v-0.8c2.6,0,2.3-1.2,2.3-2.9v-14L85.8,145.3z M90.6,152.6
			c0,2.8,1.8,4.9,4.4,4.9c2.7,0,4.4-2.3,4.4-5.8c0-3.9-2-6.4-5-6.4c-1.4,0-2.6,0.6-3.9,2V152.6z"/>
		<path class="st0" d="M106.6,149.1c-0.2,4.9,2.8,7.2,5.8,7.2c1.6,0,2.6-0.4,3.9-1.8l0.5,0.5c-1.5,2.3-3.5,3.5-5.7,3.5
			c-3.9,0-6.7-3.1-6.7-7.4c0-4.4,2.8-7.6,6.6-7.6c3.2,0,5.8,2.5,5.9,5.6H106.6z M113.9,148.2c-0.3-2.4-1.5-3.8-3.4-3.8
			c-1.9,0-3.4,1.5-3.7,3.8H113.9z"/>
		<path class="st0" d="M135.7,137.3c-2.7,0-3.3,0.8-3.3,2.8v15.5c0,3.1-0.5,5.2-2,6.7c-1.1,1.1-2.5,1.5-3.6,1.5
			c-1.9,0-3.3-1-3.3-2.2c0-0.8,0.6-1.4,1.4-1.4c1.9,0,1.5,2.3,3,2.3c1.1,0,1.5-0.8,1.5-3.6v-19.1c0-1.7-0.6-2.7-3.6-2.5v-0.9h9.9
			V137.3z"/>
		<path class="st0" d="M149.8,156.8c-1,1.2-1.9,1.8-2.7,1.8c-1.3,0-2-0.9-2.1-2.6c-1.5,1.7-3.2,2.6-4.7,2.6c-2.2,0-3.7-1.4-3.7-3.4
			s1.2-3,5.4-4.5l2.9-1v-2.5c0-1.6-1.2-2.7-3-2.7c-1.4,0-2.7,0.8-2.7,1.7c0,0.7,0.8,1.5,0.8,1.9c0,0.4-2,1.1-2.1,1.1
			c-0.3,0-0.9-1.1-0.9-2c0-2.1,2.5-3.7,5.8-3.7c3.2,0,4.5,1.3,4.5,3.8v7.4c0,1.1,0.3,1.6,0.9,1.6c0.4,0,0.7-0.1,1.2-0.4L149.8,156.8
			z M141.2,152.1c-1.3,0.6-2,1.3-2,2.3c0,1.3,1,2.2,2.4,2.2c1.2,0,2.3-0.6,3.4-1.8v-4.4L141.2,152.1z"/>
		<path class="st0" d="M155.5,143.5v3.7h0.1c1.2-2.6,2.4-3.5,3.8-3.5c1.1,0,2.4,1,2.4,1.8c0,0.7-0.5,1.9-1.1,1.9
			c-0.8,0-1.3-1.5-2.4-1.5c-0.8,0-1.3,0.5-2.8,2.8v6.2c0,2,0.3,2.7,3.3,2.6v0.8h-8.3v-0.8c1.9,0,2.5-0.4,2.5-2.3v-8.6l-2.5-1.1v-0.4
			L155.5,143.5z"/>
		<path class="st0" d="M170.1,143.5c4.1,0,7.2,3.2,7.2,7.4c0,4.3-3.1,7.6-7.1,7.6c-4.2,0-7.3-3.2-7.3-7.5S166,143.5,170.1,143.5z
			 M167.9,156.4c0.5,0.5,1.4,1.2,2.8,1.2c2.4,0,4.1-2,4.1-4.8c0-1.5-0.4-5.3-2.4-7.4c-0.6-0.6-1.5-1.1-2.6-1.1c-2,0-4.4,1.2-4.4,5.2
			C165.4,151.6,166.2,154.8,167.9,156.4z"/>
		<path class="st0" d="M195.6,157.6l-4.9,0.9v-2.8c-1.6,1.8-3.6,2.8-5.5,2.8c-2.2,0-4.3-1.5-4.3-4.5v-7.1c0-1.5-0.5-2-2.5-2.2v-0.8
			c1.6,0,2.7-0.1,3.4-0.1c0.8-0.1,1.2-0.1,1.6-0.2v9.9c0,2.1,1.1,3.2,3.1,3.2c1.4,0,2.9-0.6,4.2-1.9v-7.6c0-1.8-0.4-2.5-2.6-2.5
			v-0.8c1.4,0,2.4-0.1,3.2-0.1c0.8-0.1,1.4-0.1,2-0.2v11.6c0,1.8,0.7,1.8,2.4,1.6V157.6z"/>
		<path class="st0" d="M198.5,153.4c0.3,2.5,1.6,4.2,3.7,4.2c1.6,0,2.8-1.1,2.8-2.5c0-0.4-0.1-1.1-0.5-1.4c-1.6-1.6-4.5-2-6.3-3.8
			c-0.6-0.6-1-1.4-1-2.5c0-2.3,2-3.9,4.7-3.9c1.5,0,2.9,0.5,4.1,1.4v3.4h-0.8c-0.5-2.6-1.5-3.8-3.3-3.8c-1.5,0-2.5,0.9-2.5,2.2
			c0,0.6,0.2,1.1,0.6,1.5c1.3,1.3,4.2,1.8,6,3.6c0.8,0.8,1.1,1.7,1.1,2.7c0,2.4-2.1,4.2-5,4.2c-1.5,0-3.1-0.4-4.4-1.2v-4H198.5z"/>
		<path class="st0" d="M210.8,153.4c0.3,2.5,1.6,4.2,3.7,4.2c1.6,0,2.8-1.1,2.8-2.5c0-0.4-0.1-1.1-0.5-1.4c-1.6-1.6-4.5-2-6.3-3.8
			c-0.6-0.6-1-1.4-1-2.5c0-2.3,2-3.9,4.7-3.9c1.5,0,2.9,0.5,4.1,1.4v3.4h-0.8c-0.5-2.6-1.5-3.8-3.3-3.8c-1.5,0-2.5,0.9-2.5,2.2
			c0,0.6,0.2,1.1,0.6,1.5c1.3,1.3,4.2,1.8,6,3.6c0.8,0.8,1.1,1.7,1.1,2.7c0,2.4-2.1,4.2-5,4.2c-1.5,0-3.1-0.4-4.4-1.2v-4H210.8z"/>
		<path class="st0" d="M225.4,136v18.7c0,1.7,0.2,2.7,2.4,2.7v0.8h-7v-0.8c1.5-0.1,2.1-0.6,2.1-2.3v-16.1l-2.1-1.1v-0.5L225.4,136z
			 M235.5,143.8v0.8c-1.4,0.1-2.4,0.6-4.6,2.6l-3,2.7l6.3,5.9c1,1,1.7,1.4,2.2,1.6v0.8h-2.8c-0.8-0.6-1.8-1.4-2.4-2l-5.6-5.5
			l2.9-2.5c1.3-1.2,1.8-1.7,1.8-2.3c0-0.8-0.6-1.2-2.2-1.3v-0.8H235.5z"/>
		<path class="st0" d="M251.4,143.8v0.8c-1.4,0.3-1.9,0.9-2.9,3.6l-4.5,11.9c-0.9,2.3-2.3,4.1-4.4,4.1c-1.4,0-2.5-0.7-2.5-1.7
			c0-0.7,0.6-1.3,1.2-1.3c1,0,1.1,1.1,2.4,1.1c1.2,0,2-1.1,3-3.9l-5.2-11.5c-0.8-1.7-1.2-2.1-2.4-2.2v-0.8h6.8v0.8
			c-1.4,0.1-1.9,0.4-1.9,1.1c0,0.5,0.2,1.1,0.9,2.7l3.1,6.8l2-5.3c0.8-2,1.1-3.1,1.1-3.6c0-1-0.5-1.5-2-1.7v-0.8H251.4z"/>
	</g>
</g>
</svg>
