<?xml version="1.0" encoding="utf-8"?>
<!-- Generator: Adobe Illustrator 24.3.0, SVG Export Plug-In . SVG Version: 6.00 Build 0)  -->
<svg version="1.1" id="Laag_1" xmlns="http://www.w3.org/2000/svg" xmlns:xlink="http://www.w3.org/1999/xlink" x="0px" y="0px"
	 width="255.6px" height="85.2px" viewBox="0 0 255.6 85.2" style="enable-background:new 0 0 255.6 85.2;" xml:space="preserve">
<style type="text/css">
	.st0{fill:#FFFFFF;}
</style>
<g>
	<path class="st0" d="M2.2,0h13.9v0.2l21.5,33.7L59.2,0h13.6v65H58.4V24.9l-17,27.5h-8.5L16.6,25.4V65H2.2V0z"/>
	<path class="st0" d="M108.8,14.1c15.3,0,27.9,9.7,27.9,26.3s-12.4,26.1-28.1,26.1c-15.5,0-27.7-9.5-27.7-25.9
		C80.9,24,93.2,14.1,108.8,14.1z M108.8,54.3c7.5,0,12.7-5.1,12.7-14.1c0-9.2-5.3-14.1-12.5-14.1c-7.1,0-12.6,4.8-12.6,14.1
		C96.4,49.3,101.4,54.3,108.8,54.3z"/>
	<path class="st0" d="M165.6,14.2c6.9,0,12.5,2.5,16.6,7.6V0h14.6v65h-14.2v-8.1c-4,5.9-9.6,9.3-16.9,9.3
		c-12.4,0-24.3-8.8-24.3-25.9S152.6,14.2,165.6,14.2z M168.4,54.1c6.5,0,11.7-5.6,14.2-14c-2.7-9.2-8-13.8-14.2-13.8
		c-6.5,0-11.7,4.9-11.7,13.8C156.7,48.9,161.9,54.1,168.4,54.1z"/>
	<path class="st0" d="M253.3,61.3c-6.1,3.3-12.5,5.3-21.9,5.3c-18.1,0-27.3-10.1-27.3-26.1c0-15.4,10.6-26.3,26.3-26.3
		c14.1,0,25.2,8,25.2,26.1c0,1.8-0.2,3.2-0.4,4.4h-35.7c1.3,6.8,6,10.4,14.5,10.4c6.4,0,11.4-1.2,16.9-4L253.3,61.3z M219.5,36.4
		h21.1c-0.7-7.2-3.9-11-10.5-11C223.8,25.4,220.3,29.2,219.5,36.4z"/>
</g>
</svg>
