<?xml version="1.0" encoding="utf-8"?>
<!-- Generator: Adobe Illustrator 24.3.0, SVG Export Plug-In . SVG Version: 6.00 Build 0)  -->
<svg version="1.1" id="Laag_1" xmlns="http://www.w3.org/2000/svg" xmlns:xlink="http://www.w3.org/1999/xlink" x="0px" y="0px"
	 width="131.7px" height="40px" viewBox="0 0 131.7 40" style="enable-background:new 0 0 131.7 40;" xml:space="preserve">
<style type="text/css">
	.st0{fill:#FFFFFF;}
</style>
<g>
	<path class="st0" d="M26.6,0.7v10.1c0,0.4,0,0.8-0.1,1.2c0,0.4-0.1,0.7-0.2,0.9c-0.2,0.4-0.4,0.8-0.7,1.1c-0.3,0.3-0.6,0.6-1,0.9
		c-0.4,0.2-0.8,0.4-1.3,0.6c-0.5,0.1-1,0.2-1.5,0.2c-1.6,0-2.8-0.7-3.8-2.2l2.5-2.5c0.1,0.4,0.2,0.8,0.4,1c0.2,0.3,0.5,0.4,0.8,0.4
		c0.7,0,1.1-0.6,1.1-1.7v-10H26.6z"/>
	<path class="st0" d="M29,8c0-1.1,0.2-2.1,0.6-3c0.4-0.9,1-1.8,1.7-2.5s1.6-1.2,2.6-1.6s2-0.6,3.2-0.6s2.3,0.2,3.3,0.6
		s1.9,0.9,2.6,1.6C43.7,3.2,44.3,4,44.7,5c0.4,0.9,0.6,2,0.6,3c0,1.1-0.2,2.1-0.6,3c-0.4,0.9-1,1.8-1.7,2.5
		c-0.7,0.7-1.6,1.2-2.6,1.6c-1,0.4-2.1,0.6-3.3,0.6c-1.2,0-2.3-0.2-3.3-0.6c-1-0.4-1.8-0.9-2.6-1.6c-0.8-0.7-1.3-1.5-1.7-2.5
		C29.2,10.1,29,9.1,29,8z M33,8c0,0.6,0.1,1.1,0.3,1.6s0.5,0.9,0.9,1.3c0.4,0.4,0.8,0.6,1.3,0.8s1,0.3,1.6,0.3s1.1-0.1,1.6-0.3
		s0.9-0.5,1.3-0.8c0.4-0.4,0.7-0.8,0.9-1.3s0.3-1,0.3-1.6s-0.1-1.1-0.3-1.6S40.4,5.5,40,5.1c-0.4-0.4-0.8-0.6-1.3-0.8
		c-0.5-0.2-1-0.3-1.6-0.3S36,4.1,35.5,4.3s-0.9,0.5-1.3,0.8c-0.4,0.4-0.7,0.8-0.9,1.3S33,7.4,33,8z"/>
	<path class="st0" d="M51.4,0.7v14.6h-3.8V0.7H51.4z"/>
	<path class="st0" d="M54.5,15.3V0.7h3.8l7,8.9V0.7h3.8v14.6h-3.8l-7-8.9v8.9H54.5z"/>
	<path class="st0" d="M84.3,3.9v11.4h-3.8V3.9h-3.1V0.7h10.1v3.2C87.6,3.9,84.3,3.9,84.3,3.9z"/>
	<path class="st0" d="M92.9,6.4h5.5V0.7h3.8v14.6h-3.8v-6h-5.5v6h-3.8V0.7h3.8V6.4z"/>
	<path class="st0" d="M113.6,3.9h-4.5v2.4h4.3v3.2h-4.3V12h4.5v3.3h-8.3V0.7h8.3V3.9z"/>
	<path class="st0" d="M3.9,22.7v11.4h4.6v3.2H0.1V22.7H3.9z"/>
	<path class="st0" d="M14.2,22.7v14.6h-3.8V22.7H14.2z"/>
	<path class="st0" d="M19.8,22.7l3.5,8.9l3.6-8.9H31l-6.1,14.6h-3l-6.2-14.6C15.7,22.7,19.8,22.7,19.8,22.7z"/>
	<path class="st0" d="M40.9,25.9h-4.5v2.4h4.3v3.2h-4.3V34h4.5v3.3h-8.3V22.7h8.3V25.9z"/>
	<path class="st0" d="M51.7,26.5c-0.4-0.3-0.8-0.6-1.2-0.7c-0.4-0.2-0.8-0.2-1.2-0.2c-0.5,0-0.9,0.1-1.2,0.3
		c-0.3,0.2-0.5,0.5-0.5,0.9c0,0.3,0.1,0.5,0.2,0.6c0.2,0.2,0.4,0.3,0.6,0.4c0.3,0.1,0.5,0.2,0.9,0.3c0.3,0.1,0.6,0.2,0.9,0.3
		c1.2,0.4,2.2,1,2.7,1.7s0.9,1.6,0.9,2.7c0,0.8-0.1,1.4-0.4,2c-0.3,0.6-0.6,1.1-1.1,1.6c-0.5,0.4-1.1,0.8-1.8,1s-1.5,0.4-2.4,0.4
		c-1.9,0-3.6-0.5-5.1-1.6l1.6-3.1c0.6,0.5,1.1,0.9,1.7,1.1c0.6,0.2,1.1,0.4,1.6,0.4c0.6,0,1.1-0.1,1.4-0.4c0.3-0.3,0.5-0.6,0.5-1
		c0-0.2,0-0.4-0.1-0.6c-0.1-0.2-0.2-0.3-0.4-0.4c-0.2-0.1-0.4-0.3-0.7-0.4c-0.3-0.1-0.6-0.2-1.1-0.4c-0.5-0.2-1-0.3-1.4-0.5
		c-0.5-0.2-0.9-0.4-1.3-0.7c-0.4-0.3-0.7-0.7-0.9-1.2s-0.3-1.1-0.3-1.8c0-0.7,0.1-1.4,0.4-2s0.6-1.1,1-1.5s1-0.7,1.6-1
		c0.6-0.2,1.3-0.3,2.1-0.3c0.7,0,1.5,0.1,2.3,0.3c0.8,0.2,1.5,0.5,2.3,0.9L51.7,26.5z"/>
	<path class="st0" d="M61.8,25.9v11.4H58V25.9h-3.1v-3.2H65v3.2C65,25.9,61.8,25.9,61.8,25.9z"/>
	<path class="st0" d="M78.8,37.3h-4.7l-3.6-5.6v5.6h-3.8V22.7h5.9c0.8,0,1.5,0.1,2.1,0.4c0.6,0.2,1.1,0.6,1.5,1s0.7,0.9,0.9,1.4
		s0.3,1.1,0.3,1.7c0,1.1-0.3,2-0.8,2.7c-0.5,0.7-1.3,1.2-2.4,1.4L78.8,37.3z M70.5,29.2h0.7c0.8,0,1.3-0.2,1.7-0.5
		c0.4-0.3,0.6-0.8,0.6-1.3c0-0.5-0.2-1-0.6-1.3c-0.4-0.3-1-0.5-1.7-0.5h-0.7V29.2z"/>
	<path class="st0" d="M88.7,25.9h-4.5v2.4h4.3v3.2h-4.3V34h4.5v3.3h-8.3V22.7h8.3V25.9z"/>
	<path class="st0" d="M100.4,34.8H95l-0.9,2.5H90l5.6-14.6h4.2l5.6,14.6h-4.1L100.4,34.8z M99.4,31.9L97.7,27L96,31.9H99.4z"/>
	<path class="st0" d="M106.4,37.3l2.5-14.6h3.8l2.9,7.8l2.9-7.8h3.8l2.5,14.6H121l-1.3-8.4l-3.5,8.4h-1.5l-3.3-8.4l-1.3,8.4H106.4z"
		/>
	<path class="st0" d="M127.1,35.5c0-0.3,0.1-0.6,0.2-0.9c0.1-0.3,0.3-0.5,0.5-0.7s0.5-0.4,0.7-0.5c0.3-0.1,0.6-0.2,0.9-0.2
		c0.3,0,0.6,0.1,0.9,0.2c0.3,0.1,0.5,0.3,0.7,0.5s0.4,0.5,0.5,0.7c0.1,0.3,0.2,0.6,0.2,0.9s-0.1,0.6-0.2,0.9
		c-0.1,0.3-0.3,0.5-0.5,0.7c-0.2,0.2-0.5,0.4-0.7,0.5c-0.3,0.1-0.6,0.2-0.9,0.2c-0.3,0-0.6-0.1-0.9-0.2c-0.3-0.1-0.5-0.3-0.7-0.5
		c-0.2-0.2-0.4-0.4-0.5-0.7C127.1,36.1,127.1,35.8,127.1,35.5z M127.5,32.4v-9.7h3.6v9.7C131.1,32.4,127.5,32.4,127.5,32.4z"/>
</g>
</svg>
