<?xml version="1.0" encoding="utf-8"?>
<!-- Generator: Adobe Illustrator 24.0.0, SVG Export Plug-In . SVG Version: 6.00 Build 0)  -->
<svg version="1.1" id="Laag_1" xmlns="http://www.w3.org/2000/svg" xmlns:xlink="http://www.w3.org/1999/xlink" x="0px" y="0px"
	 width="619.8px" height="591.1px" viewBox="0 0 619.8 591.1" style="enable-background:new 0 0 619.8 591.1;" xml:space="preserve"
	>
<style type="text/css">
	.st0{fill:#FFFFFF;}
</style>
<g>
	<g>
		<rect x="73.9" class="st0" width="48.8" height="219.1"/>
		<path class="st0" d="M61.5,100.2h3.8V61.5C60.6,58,54,55.2,44.2,55.2C18.2,55.2,0,69.3,0,111.4v54c0,42.1,18.2,56.3,44.2,56.3
			c9.5,0,16.4-2.9,21.1-6.1v-39h-3.8c-5.5,0-12.4-2.6-12.4-13.6v-49.3C49.1,102.8,56,100.2,61.5,100.2z"/>
		<path class="st0" d="M271,117.2c0-34.9-17.9-56.9-48.8-61.5v63.8h-16.5v33.2H271V117.2z"/>
		<path class="st0" d="M209.6,94.7h4V54.9h-4c-38.7,0-61.2,24.5-61.2,64.1v39.8c0,38.7,22.5,63.2,61.2,63.2h4v-39.3h-4
			c-5.5,0-12.4-2.6-12.4-13V108C197.2,97,203.8,94.7,209.6,94.7z"/>
		<path class="st0" d="M271,168.9v-1.2h-48.8v53.4C253.2,216.5,271,194.9,271,168.9z"/>
		<rect x="422.6" class="st0" width="48.8" height="219.1"/>
		<path class="st0" d="M414,215.7v-39h-3.8c-5.5,0-12.4-2.6-12.4-13.6v-49.3c0-11,6.9-13.6,12.4-13.6h3.8V61.5
			c-4.6-3.5-11.3-6.4-21.1-6.4c-26,0-44.1,14.2-44.1,56.3v54c0,42.1,18.2,56.3,44.1,56.3C402.4,221.7,409.4,218.8,414,215.7z"/>
		<path class="st0" d="M545.9,165.1V56c-31.2,4.9-48.8,28.3-48.8,62.3v39.6c0,39.5,22.2,64.1,61.2,64.1h4v-43.3h-4
			C552.8,178.7,545.9,176.1,545.9,165.1z"/>
		<path class="st0" d="M558.3,55.1h-3.8v43.3h3.8c5.8,0,12.7,2.6,12.7,13.6v108.8c30.6-4.6,48.8-28,48.8-62.9v-39.6
			C619.8,80,596.7,55.1,558.3,55.1z"/>
		<path class="st0" d="M82,239.7c-8.1,0-14.7,1.7-19.9,4.3v40.7h2.3c5.5,0,11.3,2.6,11.3,13.6v105.4h49.1V296
			C124.7,253.8,108,239.7,82,239.7z"/>
		<path class="st0" d="M153.3,239.7c-8.1,0-14.7,1.7-19.9,4.3v40.7h2.3c5.5,0,11.3,2.6,11.3,13.6v105.4H196V296
			C196,253.8,179.2,239.7,153.3,239.7z"/>
		<rect x="4.6" y="241.4" class="st0" width="48.5" height="162.2"/>
		<rect x="223.7" y="241.4" class="st0" width="48.5" height="162.2"/>
		<path class="st0" d="M291.6,424.7V468c39.3,0,58.6-17.3,60.6-55.7H304C304,423.3,296.8,424.7,291.6,424.7z"/>
		<rect x="304" y="241.4" class="st0" width="48.5" height="162.2"/>
		<path class="st0" d="M461.9,239.7c-9.5,0-16.4,2.9-21.1,6.3v38.7h3.8c5.5,0,12.4,2.6,12.4,13.6v105.4h49.1V296
			C506.1,253.8,487.9,239.7,461.9,239.7z"/>
		<rect x="383.7" y="241.4" class="st0" width="48.5" height="162.2"/>
		<path class="st0" d="M48.8,538.9v-61.8c0-11,6.6-13.3,12.4-13.3h4V424h-4C22.5,424,0,448.5,0,488v39.8c0,38.7,22.5,63.2,61.2,63.2
			h4v-39.3h-4C55.7,551.8,48.8,549.3,48.8,538.9z"/>
		<path class="st0" d="M73.9,590.2c30.9-4.6,48.8-26.3,48.8-52.2v-1.2H73.9V590.2z"/>
		<path class="st0" d="M73.9,424.8v63.8H57.4v33.2h65.3v-35.5C122.7,451.4,104.8,429.5,73.9,424.8z"/>
		<path class="st0" d="M225.5,424.3c-9.5,0-16.4,2.9-21.1,6.4v38.7h3.8c5.5,0,12.4,2.6,12.4,13.6v105.4h49.1V480.5
			C269.6,438.4,251.4,424.3,225.5,424.3z"/>
		<rect x="147.2" y="426" class="st0" width="48.5" height="162.2"/>
	</g>
</g>
</svg>
