<?xml version="1.0" encoding="utf-8"?>
<!-- Generator: Adobe Illustrator 24.0.0, SVG Export Plug-In . SVG Version: 6.00 Build 0)  -->
<svg version="1.1" id="Laag_1" xmlns="http://www.w3.org/2000/svg" xmlns:xlink="http://www.w3.org/1999/xlink" x="0px" y="0px"
	 width="232.7px" height="26.4px" viewBox="0 0 232.7 26.4" style="enable-background:new 0 0 232.7 26.4;" xml:space="preserve">
<g>
	<path d="M4.1,1.3c-0.9,0-1.7,0.3-2.2,0.9S1.1,3.7,1.1,4.8c0,1.1,0.3,2,0.8,2.6s1.3,0.9,2.2,0.9c0.6,0,1.3-0.1,2-0.3v0.9
		C5.6,9.1,4.8,9.2,3.9,9.2C2.7,9.2,1.7,8.9,1,8.1S0,6.2,0,4.8c0-0.9,0.2-1.7,0.5-2.3S1.3,1.3,1.9,1s1.4-0.5,2.2-0.5
		c0.9,0,1.7,0.2,2.4,0.5L6.1,1.8C5.4,1.5,4.8,1.3,4.1,1.3z"/>
	<path d="M8.8,2.7v4.2c0,0.5,0.1,0.9,0.4,1.2s0.6,0.4,1.1,0.4c0.7,0,1.2-0.2,1.5-0.6s0.5-1,0.5-1.8V2.7h1v6.4h-0.8l-0.1-0.9h-0.1
		C12,8.6,11.7,8.8,11.3,9s-0.8,0.3-1.2,0.3C9.4,9.2,8.8,9,8.4,8.7s-0.6-1-0.6-1.8V2.7H8.8z"/>
	<path d="M18.2,2.6c0.3,0,0.5,0,0.8,0.1l-0.1,0.9c-0.3-0.1-0.5-0.1-0.7-0.1c-0.5,0-1,0.2-1.3,0.6S16.2,5,16.2,5.7v3.4h-1V2.7H16
		l0.1,1.2h0c0.2-0.4,0.5-0.7,0.9-1S17.8,2.6,18.2,2.6z"/>
	<path d="M24.1,9.1l-0.2-0.9h0c-0.3,0.4-0.6,0.7-1,0.8s-0.7,0.2-1.2,0.2c-0.6,0-1.1-0.2-1.5-0.5s-0.5-0.8-0.5-1.4c0-1.3,1-2,3.1-2
		l1.1,0V4.9c0-0.5-0.1-0.9-0.3-1.1s-0.6-0.4-1-0.4c-0.5,0-1.1,0.2-1.8,0.5l-0.3-0.7c0.3-0.2,0.7-0.3,1-0.4s0.8-0.1,1.1-0.1
		c0.8,0,1.3,0.2,1.7,0.5s0.6,0.9,0.6,1.6v4.4H24.1z M21.9,8.4c0.6,0,1.1-0.2,1.4-0.5s0.5-0.8,0.5-1.4V6l-1,0c-0.8,0-1.3,0.1-1.7,0.4
		s-0.5,0.5-0.5,1c0,0.4,0.1,0.6,0.3,0.8S21.5,8.4,21.9,8.4z"/>
	<path d="M28.9,8.4c0.2,0,0.3,0,0.5,0s0.3-0.1,0.4-0.1v0.7c-0.1,0.1-0.3,0.1-0.5,0.1s-0.4,0-0.6,0c-1.2,0-1.9-0.7-1.9-2V3.5H26V3
		l0.9-0.4l0.4-1.4h0.6v1.5h1.9v0.8h-1.9v3.8c0,0.4,0.1,0.7,0.3,0.9S28.6,8.4,28.9,8.4z"/>
	<path d="M33.8,9.2c-0.9,0-1.7-0.3-2.2-0.9S30.7,7,30.7,6c0-1,0.3-1.9,0.8-2.5s1.2-0.9,2.1-0.9c0.8,0,1.4,0.3,1.9,0.8
		s0.7,1.2,0.7,2.1v0.6h-4.4c0,0.8,0.2,1.3,0.6,1.7s0.9,0.6,1.5,0.6c0.7,0,1.4-0.1,2.1-0.4v0.9c-0.3,0.1-0.7,0.3-1,0.3
		S34.2,9.2,33.8,9.2z M33.5,3.4c-0.5,0-0.9,0.2-1.2,0.5s-0.5,0.8-0.5,1.4h3.4c0-0.6-0.1-1.1-0.4-1.4S34,3.4,33.5,3.4z"/>
	<path d="M42.1,8.3L42.1,8.3c-0.5,0.7-1.2,1-2.1,1c-0.8,0-1.5-0.3-2-0.9S37.4,7,37.4,5.9s0.2-1.9,0.7-2.5s1.1-0.9,2-0.9
		c0.9,0,1.5,0.3,2,0.9h0.1l0-0.5l0-0.5V0h1v9.1h-0.8L42.1,8.3z M40.2,8.4c0.7,0,1.1-0.2,1.4-0.5s0.4-0.9,0.4-1.7V5.9
		c0-0.9-0.2-1.6-0.5-1.9s-0.8-0.6-1.5-0.6c-0.6,0-1,0.2-1.3,0.7s-0.5,1.1-0.5,1.9c0,0.8,0.2,1.4,0.5,1.9S39.6,8.4,40.2,8.4z"/>
	<path d="M53.5,9.1l-1.2-3.8c-0.1-0.2-0.2-0.8-0.4-1.6h0c-0.2,0.7-0.3,1.2-0.4,1.6l-1.2,3.8h-1.1l-1.8-6.4h1
		c0.4,1.6,0.7,2.8,0.9,3.7s0.3,1.4,0.4,1.7h0c0-0.2,0.1-0.5,0.2-0.9s0.2-0.6,0.2-0.8l1.2-3.7h1.1l1.1,3.7c0.2,0.7,0.4,1.2,0.4,1.7h0
		c0-0.1,0.1-0.4,0.1-0.7s0.5-1.9,1.2-4.7h1l-1.8,6.4H53.5z"/>
	<path d="M57.5,1c0-0.2,0.1-0.4,0.2-0.5s0.2-0.2,0.4-0.2c0.2,0,0.3,0.1,0.4,0.2s0.2,0.3,0.2,0.5s-0.1,0.4-0.2,0.5s-0.2,0.2-0.4,0.2
		c-0.2,0-0.3-0.1-0.4-0.2S57.5,1.2,57.5,1z M58.6,9.1h-1V2.7h1V9.1z"/>
	<path d="M62.7,8.4c0.2,0,0.3,0,0.5,0s0.3-0.1,0.4-0.1v0.7c-0.1,0.1-0.3,0.1-0.5,0.1s-0.4,0-0.6,0c-1.2,0-1.9-0.7-1.9-2V3.5h-0.9V3
		l0.9-0.4l0.4-1.4h0.6v1.5h1.9v0.8h-1.9v3.8c0,0.4,0.1,0.7,0.3,0.9S62.4,8.4,62.7,8.4z"/>
	<path d="M69.2,9.1V5c0-0.5-0.1-0.9-0.4-1.2s-0.6-0.4-1.1-0.4c-0.7,0-1.2,0.2-1.5,0.6s-0.5,1-0.5,1.8v3.4h-1V0h1v2.8
		c0,0.3,0,0.6,0,0.8h0.1C66,3.3,66.3,3,66.7,2.9s0.8-0.3,1.2-0.3c0.8,0,1.4,0.2,1.8,0.6s0.6,1,0.6,1.8v4.2H69.2z"/>
	<path d="M4.2,23.5l-2.9-7.6h0c0.1,0.6,0.1,1.3,0.1,2.1v5.4H0.4V15h1.5L4.7,22h0L7.4,15h1.5v8.6h-1V18c0-0.6,0-1.3,0.1-2.1h0L5,23.5
		H4.2z"/>
	<path d="M16.7,20.3c0,1-0.3,1.9-0.8,2.5s-1.3,0.9-2.2,0.9c-0.6,0-1.1-0.1-1.5-0.4s-0.8-0.7-1-1.2s-0.4-1.1-0.4-1.8
		c0-1,0.3-1.9,0.8-2.4s1.2-0.9,2.2-0.9c0.9,0,1.6,0.3,2.1,0.9S16.7,19.3,16.7,20.3z M11.8,20.3c0,0.8,0.2,1.4,0.5,1.9
		s0.8,0.6,1.4,0.6s1.1-0.2,1.5-0.6s0.5-1.1,0.5-1.9c0-0.8-0.2-1.4-0.5-1.9s-0.8-0.6-1.5-0.6c-0.6,0-1.1,0.2-1.4,0.6
		S11.8,19.5,11.8,20.3z"/>
	<path d="M19.3,17.1v4.2c0,0.5,0.1,0.9,0.4,1.2s0.6,0.4,1.1,0.4c0.7,0,1.2-0.2,1.5-0.6s0.5-1,0.5-1.8v-3.4h1v6.4h-0.8l-0.1-0.9h-0.1
		c-0.2,0.3-0.5,0.6-0.8,0.7s-0.8,0.3-1.2,0.3c-0.8,0-1.4-0.2-1.8-0.6s-0.6-1-0.6-1.8v-4.2H19.3z"/>
	<path d="M30.1,23.5v-4.2c0-0.5-0.1-0.9-0.4-1.2s-0.6-0.4-1.1-0.4c-0.7,0-1.2,0.2-1.5,0.5s-0.5,1-0.5,1.8v3.4h-1v-6.4h0.8l0.2,0.9h0
		c0.2-0.3,0.5-0.6,0.8-0.7s0.8-0.3,1.2-0.3c0.8,0,1.4,0.2,1.7,0.6s0.6,1,0.6,1.8v4.2H30.1z"/>
	<path d="M35.2,22.8c0.2,0,0.3,0,0.5,0s0.3-0.1,0.4-0.1v0.7c-0.1,0.1-0.3,0.1-0.5,0.1s-0.4,0-0.6,0c-1.2,0-1.9-0.7-1.9-2v-3.8h-0.9
		v-0.5l0.9-0.4l0.4-1.4h0.6v1.5H36v0.8h-1.9v3.8c0,0.4,0.1,0.7,0.3,0.9S34.9,22.8,35.2,22.8z"/>
	<path d="M45.4,23.5h-4.8V15h4.8v0.9h-3.8v2.8h3.6v0.9h-3.6v3.2h3.8V23.5z"/>
	<path d="M49.9,23.6c-0.9,0-1.7-0.3-2.2-0.9s-0.8-1.4-0.8-2.4c0-1,0.3-1.9,0.8-2.5s1.2-0.9,2.1-0.9c0.8,0,1.4,0.3,1.9,0.8
		s0.7,1.2,0.7,2.1v0.6h-4.4c0,0.8,0.2,1.3,0.6,1.7s0.9,0.6,1.5,0.6c0.7,0,1.4-0.1,2.1-0.4v0.9c-0.3,0.1-0.7,0.3-1,0.3
		S50.3,23.6,49.9,23.6z M49.6,17.8c-0.5,0-0.9,0.2-1.2,0.5s-0.5,0.8-0.5,1.4h3.4c0-0.6-0.1-1.1-0.4-1.4S50.1,17.8,49.6,17.8z"/>
	<path d="M56.8,17c0.3,0,0.5,0,0.8,0.1L57.4,18c-0.3-0.1-0.5-0.1-0.7-0.1c-0.5,0-1,0.2-1.3,0.6s-0.6,0.9-0.6,1.6v3.4h-1v-6.4h0.8
		l0.1,1.2h0c0.2-0.4,0.5-0.7,0.9-1S56.4,17,56.8,17z"/>
	<path d="M58.7,15.4c0-0.2,0.1-0.4,0.2-0.5s0.2-0.2,0.4-0.2c0.2,0,0.3,0.1,0.4,0.2s0.2,0.3,0.2,0.5s-0.1,0.4-0.2,0.5
		S59.4,16,59.3,16c-0.2,0-0.3-0.1-0.4-0.2S58.7,15.6,58.7,15.4z M59.7,23.5h-1v-6.4h1V23.5z"/>
	<path d="M64.5,23.6c-0.9,0-1.7-0.3-2.2-0.9s-0.8-1.4-0.8-2.4c0-1,0.3-1.9,0.8-2.5s1.2-0.9,2.1-0.9c0.8,0,1.4,0.3,1.9,0.8
		s0.7,1.2,0.7,2.1v0.6h-4.4c0,0.8,0.2,1.3,0.6,1.7s0.9,0.6,1.5,0.6c0.7,0,1.4-0.1,2.1-0.4v0.9c-0.3,0.1-0.7,0.3-1,0.3
		S65,23.6,64.5,23.6z M64.3,17.8c-0.5,0-0.9,0.2-1.2,0.5s-0.5,0.8-0.5,1.4h3.4c0-0.6-0.1-1.1-0.4-1.4S64.8,17.8,64.3,17.8z"/>
	<path d="M69.6,22.1l0.1,0.1c-0.1,0.4-0.2,0.8-0.4,1.4s-0.4,1-0.6,1.4h-0.7c0.1-0.4,0.2-0.9,0.3-1.5s0.2-1.1,0.3-1.4H69.6z"/>
	<path d="M78.5,23.5l-2.9-7.6h0c0.1,0.6,0.1,1.3,0.1,2.1v5.4h-0.9V15h1.5L79,22h0l2.7-7.1h1.5v8.6h-1V18c0-0.6,0-1.3,0.1-2.1h0
		l-2.9,7.6H78.5z"/>
	<path d="M89.4,23.5l-0.2-0.9h0c-0.3,0.4-0.6,0.7-1,0.8s-0.7,0.2-1.2,0.2c-0.6,0-1.1-0.2-1.5-0.5s-0.5-0.8-0.5-1.4c0-1.3,1-2,3.1-2
		l1.1,0v-0.4c0-0.5-0.1-0.9-0.3-1.1s-0.6-0.4-1-0.4c-0.5,0-1.1,0.2-1.8,0.5l-0.3-0.7c0.3-0.2,0.7-0.3,1-0.4s0.8-0.1,1.1-0.1
		c0.8,0,1.3,0.2,1.7,0.5s0.6,0.9,0.6,1.6v4.4H89.4z M87.2,22.8c0.6,0,1.1-0.2,1.4-0.5s0.5-0.8,0.5-1.4v-0.6l-1,0
		c-0.8,0-1.3,0.1-1.7,0.4s-0.5,0.5-0.5,1c0,0.4,0.1,0.6,0.3,0.8S86.8,22.8,87.2,22.8z"/>
	<path d="M94.2,22.8c0.2,0,0.3,0,0.5,0s0.3-0.1,0.4-0.1v0.7c-0.1,0.1-0.3,0.1-0.5,0.1s-0.4,0-0.6,0c-1.2,0-1.9-0.7-1.9-2v-3.8h-0.9
		v-0.5l0.9-0.4l0.4-1.4h0.6v1.5H95v0.8h-1.9v3.8c0,0.4,0.1,0.7,0.3,0.9S93.9,22.8,94.2,22.8z"/>
	<path d="M100.3,23.5l-0.2-0.9h0c-0.3,0.4-0.6,0.7-1,0.8s-0.7,0.2-1.2,0.2c-0.6,0-1.1-0.2-1.5-0.5s-0.5-0.8-0.5-1.4c0-1.3,1-2,3.1-2
		l1.1,0v-0.4c0-0.5-0.1-0.9-0.3-1.1s-0.6-0.4-1-0.4c-0.5,0-1.1,0.2-1.8,0.5l-0.3-0.7c0.3-0.2,0.7-0.3,1-0.4s0.8-0.1,1.1-0.1
		c0.8,0,1.3,0.2,1.7,0.5s0.6,0.9,0.6,1.6v4.4H100.3z M98.1,22.8c0.6,0,1.1-0.2,1.4-0.5s0.5-0.8,0.5-1.4v-0.6l-1,0
		c-0.8,0-1.3,0.1-1.7,0.4s-0.5,0.5-0.5,1c0,0.4,0.1,0.6,0.3,0.8S97.7,22.8,98.1,22.8z"/>
	<path d="M107.4,23.5v-4.2c0-0.5-0.1-0.9-0.4-1.2s-0.6-0.4-1.1-0.4c-0.7,0-1.2,0.2-1.5,0.5s-0.5,1-0.5,1.8v3.4h-1v-6.4h0.8L104,18h0
		c0.2-0.3,0.5-0.6,0.8-0.7s0.8-0.3,1.2-0.3c0.8,0,1.4,0.2,1.7,0.6s0.6,1,0.6,1.8v4.2H107.4z"/>
	<path d="M114.3,23.5l-0.2-0.9h0c-0.3,0.4-0.6,0.7-1,0.8s-0.7,0.2-1.2,0.2c-0.6,0-1.1-0.2-1.5-0.5s-0.5-0.8-0.5-1.4c0-1.3,1-2,3.1-2
		l1.1,0v-0.4c0-0.5-0.1-0.9-0.3-1.1s-0.6-0.4-1-0.4c-0.5,0-1.1,0.2-1.8,0.5l-0.3-0.7c0.3-0.2,0.7-0.3,1-0.4s0.8-0.1,1.1-0.1
		c0.8,0,1.3,0.2,1.7,0.5s0.6,0.9,0.6,1.6v4.4H114.3z M112.1,22.8c0.6,0,1.1-0.2,1.4-0.5s0.5-0.8,0.5-1.4v-0.6l-1,0
		c-0.8,0-1.3,0.1-1.7,0.4s-0.5,0.5-0.5,1c0,0.4,0.1,0.6,0.3,0.8S111.7,22.8,112.1,22.8z"/>
	<path d="M121.3,20v3.6h-1V15h2.3c1.1,0,1.8,0.2,2.3,0.6s0.8,1,0.8,1.8c0,1.1-0.6,1.9-1.7,2.3l2.3,3.8h-1.2l-2.1-3.6H121.3z
		 M121.3,19.1h1.4c0.7,0,1.2-0.1,1.5-0.4s0.5-0.7,0.5-1.3c0-0.6-0.2-1-0.5-1.2s-0.9-0.4-1.6-0.4h-1.3V19.1z"/>
	<path d="M133.1,20.3c0,1-0.3,1.9-0.8,2.5s-1.3,0.9-2.2,0.9c-0.6,0-1.1-0.1-1.5-0.4s-0.8-0.7-1-1.2s-0.4-1.1-0.4-1.8
		c0-1,0.3-1.9,0.8-2.4s1.2-0.9,2.2-0.9c0.9,0,1.6,0.3,2.1,0.9S133.1,19.3,133.1,20.3z M128.2,20.3c0,0.8,0.2,1.4,0.5,1.9
		s0.8,0.6,1.4,0.6s1.1-0.2,1.5-0.6s0.5-1.1,0.5-1.9c0-0.8-0.2-1.4-0.5-1.9s-0.8-0.6-1.5-0.6c-0.6,0-1.1,0.2-1.4,0.6
		S128.2,19.5,128.2,20.3z"/>
	<path d="M137.8,17c0.8,0,1.5,0.3,2,0.9s0.7,1.4,0.7,2.4s-0.2,1.9-0.7,2.5s-1.1,0.9-2,0.9c-0.4,0-0.8-0.1-1.1-0.2s-0.6-0.4-0.9-0.7
		h-0.1l-0.2,0.8h-0.7v-9.1h1v2.2c0,0.5,0,0.9,0,1.3h0C136.3,17.3,136.9,17,137.8,17z M137.7,17.8c-0.7,0-1.1,0.2-1.4,0.6
		s-0.4,1-0.4,1.9s0.2,1.5,0.5,1.9s0.8,0.6,1.4,0.6c0.6,0,1-0.2,1.3-0.7s0.4-1.1,0.4-1.9c0-0.8-0.1-1.5-0.4-1.9
		S138.3,17.8,137.7,17.8z"/>
	<path d="M144.9,23.6c-0.9,0-1.7-0.3-2.2-0.9s-0.8-1.4-0.8-2.4c0-1,0.3-1.9,0.8-2.5s1.2-0.9,2.1-0.9c0.8,0,1.4,0.3,1.9,0.8
		s0.7,1.2,0.7,2.1v0.6h-4.4c0,0.8,0.2,1.3,0.6,1.7s0.9,0.6,1.5,0.6c0.7,0,1.4-0.1,2.1-0.4v0.9c-0.3,0.1-0.7,0.3-1,0.3
		S145.3,23.6,144.9,23.6z M144.6,17.8c-0.5,0-0.9,0.2-1.2,0.5s-0.5,0.8-0.5,1.4h3.4c0-0.6-0.1-1.1-0.4-1.4S145.1,17.8,144.6,17.8z"
		/>
	<path d="M151.9,17c0.3,0,0.5,0,0.8,0.1l-0.1,0.9c-0.3-0.1-0.5-0.1-0.7-0.1c-0.5,0-1,0.2-1.3,0.6s-0.6,0.9-0.6,1.6v3.4h-1v-6.4h0.8
		l0.1,1.2h0c0.2-0.4,0.5-0.7,0.9-1S151.4,17,151.9,17z"/>
	<path d="M155.9,22.8c0.2,0,0.3,0,0.5,0s0.3-0.1,0.4-0.1v0.7c-0.1,0.1-0.3,0.1-0.5,0.1s-0.4,0-0.6,0c-1.2,0-1.9-0.7-1.9-2v-3.8H153
		v-0.5l0.9-0.4l0.4-1.4h0.6v1.5h1.9v0.8h-1.9v3.8c0,0.4,0.1,0.7,0.3,0.9S155.6,22.8,155.9,22.8z"/>
	<path d="M162.2,21.8c0,0.6-0.2,1.1-0.7,1.4s-1.1,0.5-1.9,0.5c-0.9,0-1.5-0.1-2-0.4v-0.9c0.3,0.2,0.6,0.3,1,0.4s0.7,0.1,1,0.1
		c0.5,0,0.9-0.1,1.2-0.2s0.4-0.4,0.4-0.7c0-0.2-0.1-0.5-0.3-0.6s-0.6-0.4-1.3-0.6c-0.6-0.2-1-0.4-1.3-0.6s-0.4-0.4-0.6-0.6
		s-0.2-0.5-0.2-0.8c0-0.5,0.2-0.9,0.6-1.2s1-0.5,1.8-0.5c0.7,0,1.4,0.1,2,0.4l-0.3,0.8c-0.6-0.3-1.2-0.4-1.8-0.4
		c-0.5,0-0.8,0.1-1,0.2s-0.4,0.3-0.4,0.6c0,0.2,0,0.3,0.1,0.4s0.2,0.2,0.4,0.3s0.6,0.3,1.1,0.5c0.8,0.3,1.3,0.6,1.5,0.8
		S162.2,21.3,162.2,21.8z"/>
	<path d="M164.8,22.1l0.1,0.1c-0.1,0.4-0.2,0.8-0.4,1.4s-0.4,1-0.6,1.4h-0.7c0.1-0.4,0.2-0.9,0.3-1.5s0.2-1.1,0.3-1.4H164.8z"/>
	<path d="M168.7,25.8c-0.4,0-0.7-0.1-0.9-0.2v-0.8c0.3,0.1,0.6,0.1,0.9,0.1c0.4,0,0.7-0.1,0.9-0.4s0.3-0.6,0.3-1V15h1v8.5
		c0,0.7-0.2,1.3-0.6,1.7S169.4,25.8,168.7,25.8z"/>
	<path d="M178.6,20.3c0,1-0.3,1.9-0.8,2.5s-1.3,0.9-2.2,0.9c-0.6,0-1.1-0.1-1.5-0.4s-0.8-0.7-1-1.2s-0.4-1.1-0.4-1.8
		c0-1,0.3-1.9,0.8-2.4s1.2-0.9,2.2-0.9c0.9,0,1.6,0.3,2.1,0.9S178.6,19.3,178.6,20.3z M173.7,20.3c0,0.8,0.2,1.4,0.5,1.9
		s0.8,0.6,1.4,0.6s1.1-0.2,1.5-0.6s0.5-1.1,0.5-1.9c0-0.8-0.2-1.4-0.5-1.9s-0.8-0.6-1.5-0.6c-0.6,0-1.1,0.2-1.4,0.6
		S173.7,19.5,173.7,20.3z"/>
	<path d="M184.7,23.5v-4.2c0-0.5-0.1-0.9-0.4-1.2s-0.6-0.4-1.1-0.4c-0.7,0-1.2,0.2-1.5,0.6s-0.5,1-0.5,1.8v3.4h-1v-9.1h1v2.8
		c0,0.3,0,0.6,0,0.8h0.1c0.2-0.3,0.5-0.6,0.8-0.7s0.8-0.3,1.2-0.3c0.8,0,1.4,0.2,1.8,0.6s0.6,1,0.6,1.8v4.2H184.7z"/>
	<path d="M192.1,23.5v-4.2c0-0.5-0.1-0.9-0.4-1.2s-0.6-0.4-1.1-0.4c-0.7,0-1.2,0.2-1.5,0.5s-0.5,1-0.5,1.8v3.4h-1v-6.4h0.8l0.2,0.9
		h0c0.2-0.3,0.5-0.6,0.8-0.7s0.8-0.3,1.2-0.3c0.8,0,1.4,0.2,1.7,0.6s0.6,1,0.6,1.8v4.2H192.1z"/>
	<path d="M205.1,19.2c0,1.4-0.4,2.5-1.2,3.2s-1.9,1.1-3.3,1.1h-2.4V15h2.6c1.3,0,2.4,0.4,3.1,1.1S205.1,17.8,205.1,19.2z
		 M204.1,19.2c0-1.1-0.3-2-0.8-2.5s-1.4-0.8-2.5-0.8h-1.4v6.8h1.2c1.2,0,2.1-0.3,2.7-0.9S204.1,20.3,204.1,19.2z"/>
	<path d="M212.1,23.5l-1.2-3.8c-0.1-0.2-0.2-0.8-0.4-1.6h0c-0.2,0.7-0.3,1.2-0.4,1.6l-1.2,3.8h-1.1l-1.8-6.4h1
		c0.4,1.6,0.7,2.8,0.9,3.7s0.3,1.4,0.4,1.7h0c0-0.2,0.1-0.5,0.2-0.9s0.2-0.6,0.2-0.8l1.2-3.7h1.1l1.1,3.7c0.2,0.7,0.4,1.2,0.4,1.7h0
		c0-0.1,0.1-0.4,0.1-0.7s0.5-1.9,1.2-4.7h1l-1.8,6.4H212.1z"/>
	<path d="M215.2,17.1h1l1.4,3.7c0.3,0.8,0.5,1.4,0.6,1.8h0c0.1-0.2,0.2-0.5,0.3-1s0.7-2,1.6-4.5h1l-2.8,7.3c-0.3,0.7-0.6,1.2-1,1.5
		s-0.8,0.5-1.3,0.5c-0.3,0-0.6,0-0.9-0.1v-0.8c0.2,0,0.5,0.1,0.7,0.1c0.7,0,1.1-0.4,1.4-1.1l0.4-0.9L215.2,17.1z"/>
	<path d="M225,23.6c-0.9,0-1.7-0.3-2.2-0.9s-0.8-1.4-0.8-2.4c0-1,0.3-1.9,0.8-2.5s1.2-0.9,2.1-0.9c0.8,0,1.4,0.3,1.9,0.8
		s0.7,1.2,0.7,2.1v0.6h-4.4c0,0.8,0.2,1.3,0.6,1.7s0.9,0.6,1.5,0.6c0.7,0,1.4-0.1,2.1-0.4v0.9c-0.3,0.1-0.7,0.3-1,0.3
		S225.4,23.6,225,23.6z M224.7,17.8c-0.5,0-0.9,0.2-1.2,0.5s-0.5,0.8-0.5,1.4h3.4c0-0.6-0.1-1.1-0.4-1.4S225.2,17.8,224.7,17.8z"/>
	<path d="M231.9,17c0.3,0,0.5,0,0.8,0.1l-0.1,0.9c-0.3-0.1-0.5-0.1-0.7-0.1c-0.5,0-1,0.2-1.3,0.6s-0.6,0.9-0.6,1.6v3.4h-1v-6.4h0.8
		l0.1,1.2h0c0.2-0.4,0.5-0.7,0.9-1S231.5,17,231.9,17z"/>
</g>
</svg>
