<?xml version="1.0" encoding="utf-8"?>
<!-- Generator: Adobe Illustrator 24.3.0, SVG Export Plug-In . SVG Version: 6.00 Build 0)  -->
<svg version="1.1" id="Laag_1" xmlns="http://www.w3.org/2000/svg" xmlns:xlink="http://www.w3.org/1999/xlink" x="0px" y="0px"
	 width="111.1px" height="23.2px" viewBox="0 0 111.1 23.2" style="enable-background:new 0 0 111.1 23.2;" xml:space="preserve">
<style type="text/css">
	.st0{fill:#C47951;}
</style>
<g>
	<path class="st0" d="M0.6,8.7V0.4h4.5c0.4,0,0.8,0.1,1.2,0.3s0.6,0.4,0.8,0.7c0.2,0.3,0.3,0.7,0.3,1.1c0,0.3-0.1,0.6-0.2,0.9
		C7.1,3.6,6.9,3.8,6.7,4S6.3,4.3,6,4.4v0c0.3,0.1,0.6,0.2,0.8,0.4c0.2,0.2,0.4,0.4,0.6,0.7c0.1,0.3,0.2,0.6,0.2,1
		c0,0.5-0.1,0.9-0.3,1.3S6.8,8.3,6.4,8.4C6,8.6,5.6,8.7,5.1,8.7H0.6z M2.2,3.8h2.5c0.2,0,0.4,0,0.6-0.1c0.2-0.1,0.3-0.2,0.4-0.4
		C5.8,3.2,5.8,3,5.8,2.8c0-0.4-0.1-0.6-0.3-0.8S5.1,1.8,4.8,1.8H2.2V3.8z M2.2,7.3h2.7c0.3,0,0.6-0.1,0.8-0.3S6,6.6,6,6.2
		C6,6,6,5.8,5.9,5.6S5.7,5.3,5.5,5.2C5.3,5.2,5.1,5.1,4.8,5.1H2.2V7.3z"/>
	<path class="st0" d="M9,1.4V0h1.5v1.4H9z M9,8.7V2.4h1.5v6.3H9z"/>
	<path class="st0" d="M11.9,10.9c-0.1,0-0.2,0-0.4,0c-0.1,0-0.3,0-0.4-0.1c-0.1,0-0.2-0.1-0.3-0.1v-1h0.6c0.2,0,0.3,0,0.4-0.1
		C11.9,9.4,12,9.3,12,9.1V2.4h1.5v6.9c0,0.3,0,0.5-0.1,0.8s-0.2,0.5-0.5,0.6S12.3,10.9,11.9,10.9z M12,1.4V0h1.5v1.4H12z"/>
	<path class="st0" d="M17.5,8.7V0.4h1.6v3.8l3.6-3.8h1.9l-3.2,3.3l3.3,4.9h-1.8l-2.5-3.8L19.1,6v2.7H17.5z"/>
	<path class="st0" d="M29,8.8c-0.9,0-1.6-0.2-2.2-0.5s-1.1-0.8-1.4-1.4c-0.3-0.6-0.5-1.4-0.5-2.4c0-1,0.2-1.8,0.5-2.4
		s0.8-1.1,1.4-1.4c0.6-0.3,1.4-0.5,2.2-0.5c0.9,0,1.6,0.2,2.2,0.5c0.6,0.3,1.1,0.8,1.4,1.4c0.3,0.6,0.5,1.4,0.5,2.4
		c0,1-0.2,1.8-0.5,2.4c-0.3,0.6-0.8,1.1-1.4,1.4S29.8,8.8,29,8.8z M29,7.5c0.4,0,0.8-0.1,1.1-0.2c0.3-0.1,0.6-0.3,0.8-0.5
		c0.2-0.2,0.4-0.5,0.5-0.9c0.1-0.3,0.2-0.8,0.2-1.2V4.4c0-0.5-0.1-0.9-0.2-1.2c-0.1-0.4-0.3-0.6-0.5-0.9c-0.2-0.2-0.5-0.4-0.8-0.5
		c-0.3-0.1-0.7-0.2-1.1-0.2s-0.8,0.1-1.1,0.2c-0.3,0.1-0.6,0.3-0.8,0.5c-0.2,0.2-0.4,0.5-0.5,0.9S26.4,4,26.4,4.4v0.3
		c0,0.5,0.1,0.9,0.2,1.2c0.1,0.3,0.3,0.6,0.5,0.9c0.2,0.2,0.5,0.4,0.8,0.5C28.2,7.4,28.6,7.5,29,7.5z"/>
	<path class="st0" d="M34.6,8.7V0.4h4.1c0.6,0,1.1,0.1,1.5,0.3c0.4,0.2,0.7,0.5,0.9,0.9c0.2,0.4,0.3,0.9,0.3,1.4
		c0,0.5-0.1,1-0.3,1.4c-0.2,0.4-0.5,0.7-0.9,0.9c-0.4,0.2-0.9,0.3-1.5,0.3h-2.5v2.9H34.6z M36.1,4.4h2.4c0.4,0,0.7-0.1,0.9-0.4
		c0.2-0.2,0.3-0.6,0.3-1c0-0.3,0-0.5-0.1-0.7c-0.1-0.2-0.2-0.3-0.4-0.4c-0.2-0.1-0.4-0.2-0.7-0.2h-2.4V4.4z"/>
	<path class="st0" d="M42.6,8.7V0.4H49v1.3h-4.9v2h4.3v1.3h-4.3v2.2h4.9v1.3H42.6z"/>
	<path class="st0" d="M50.7,8.7V0.4H55c0.6,0,1.1,0.1,1.5,0.3s0.7,0.5,0.9,0.9C57.6,2,57.7,2.5,57.7,3c0,0.5-0.1,1-0.4,1.4
		c-0.2,0.4-0.6,0.7-1.1,0.9L58,8.7h-1.7l-1.5-3.1h-2.6v3.1H50.7z M52.2,4.3h2.7c0.4,0,0.7-0.1,0.9-0.3c0.2-0.2,0.3-0.6,0.3-1
		c0-0.3,0-0.5-0.1-0.7c-0.1-0.2-0.2-0.3-0.4-0.4c-0.2-0.1-0.4-0.1-0.7-0.1h-2.7V4.3z"/>
	<path class="st0" d="M63,8.8c-1.3,0-2.3-0.3-3-1c-0.7-0.7-1.1-1.8-1.1-3.2c0-1,0.2-1.8,0.5-2.4s0.8-1.1,1.4-1.4
		c0.6-0.3,1.4-0.5,2.3-0.5c0.5,0,1,0.1,1.5,0.2c0.5,0.1,0.9,0.3,1.2,0.5c0.4,0.2,0.6,0.5,0.8,0.9C66.9,2.3,67,2.7,67,3.3h-1.6
		c0-0.3-0.1-0.5-0.2-0.7c-0.1-0.2-0.3-0.4-0.5-0.5c-0.2-0.1-0.4-0.2-0.7-0.3c-0.3-0.1-0.5-0.1-0.8-0.1c-0.4,0-0.8,0.1-1.2,0.2
		c-0.3,0.1-0.6,0.3-0.8,0.5s-0.4,0.5-0.5,0.9c-0.1,0.4-0.2,0.8-0.2,1.2v0.3c0,0.6,0.1,1.2,0.3,1.6C61,6.7,61.3,7,61.7,7.2
		C62,7.4,62.5,7.5,63,7.5c0.5,0,0.9-0.1,1.2-0.2s0.6-0.4,0.8-0.6c0.2-0.3,0.3-0.6,0.3-1V5.6h-2.6V4.3H67v4.4h-1.1l-0.1-0.9
		C65.5,8,65.3,8.2,65,8.4c-0.3,0.2-0.6,0.3-0.9,0.3C63.8,8.8,63.4,8.8,63,8.8z"/>
	<path class="st0" d="M68.7,8.7V0.4h1.6v8.2H68.7z"/>
	<path class="st0" d="M72.1,8.7V0.4h6.4v1.3h-4.9v2H78v1.3h-4.3v2.2h4.9v1.3H72.1z"/>
	<path class="st0" d="M82.2,8.7V1.8h-2.6V0.4h6.8v1.3h-2.6v6.9H82.2z"/>
	<path class="st0" d="M87.6,8.7V0.4H94v1.3h-4.9v2h4.3v1.3h-4.3v2.2h4.9v1.3H87.6z"/>
	<path class="st0" d="M95.7,8.7V0.4h4.3c0.6,0,1.1,0.1,1.5,0.3s0.7,0.5,0.9,0.9c0.2,0.4,0.3,0.8,0.3,1.4c0,0.5-0.1,1-0.4,1.4
		c-0.2,0.4-0.6,0.7-1.1,0.9l1.7,3.3h-1.7l-1.5-3.1h-2.6v3.1H95.7z M97.2,4.3h2.7c0.4,0,0.7-0.1,0.9-0.3c0.2-0.2,0.3-0.6,0.3-1
		c0-0.3,0-0.5-0.1-0.7c-0.1-0.2-0.2-0.3-0.4-0.4c-0.2-0.1-0.4-0.1-0.7-0.1h-2.7V4.3z"/>
	<path class="st0" d="M106.4,8.7V5.3l-3.2-4.9h1.8l2.2,3.5h0.1l2.1-3.5h1.7L108,5.3v3.3H106.4z"/>
	<path class="st0" d="M2.6,23.1v-6.9H0v-1.3h6.8v1.3H4.2v6.9H2.6z"/>
	<path class="st0" d="M7.9,23.1v-8.7h1.5v3.1h0.1c0.1-0.2,0.3-0.3,0.5-0.4c0.2-0.1,0.4-0.2,0.6-0.3c0.2-0.1,0.5-0.1,0.8-0.1
		c0.4,0,0.8,0.1,1.1,0.2c0.3,0.1,0.5,0.4,0.7,0.7c0.2,0.3,0.3,0.7,0.3,1.3v4.3h-1.5v-4c0-0.2,0-0.4-0.1-0.6
		c-0.1-0.1-0.1-0.3-0.2-0.4c-0.1-0.1-0.2-0.2-0.4-0.2s-0.3-0.1-0.5-0.1c-0.3,0-0.5,0.1-0.7,0.2s-0.4,0.3-0.5,0.5
		c-0.1,0.2-0.2,0.5-0.2,0.8v3.7H7.9z"/>
	<path class="st0" d="M17.6,23.2c-0.7,0-1.2-0.1-1.7-0.4c-0.4-0.2-0.8-0.6-1-1.1c-0.2-0.5-0.3-1.1-0.3-1.9c0-0.8,0.1-1.4,0.3-1.9
		c0.2-0.5,0.6-0.8,1-1.1c0.4-0.2,1-0.4,1.7-0.4c0.6,0,1.1,0.1,1.5,0.3c0.4,0.2,0.7,0.6,0.9,1c0.2,0.5,0.3,1.1,0.3,1.8v0.4h-4.3
		c0,0.4,0.1,0.7,0.2,1c0.1,0.3,0.3,0.5,0.5,0.6c0.2,0.1,0.5,0.2,0.9,0.2c0.2,0,0.4,0,0.5-0.1s0.3-0.1,0.4-0.2s0.2-0.2,0.3-0.4
		c0.1-0.2,0.1-0.3,0.1-0.5h1.4c0,0.4-0.1,0.7-0.2,1c-0.1,0.3-0.3,0.5-0.6,0.7s-0.5,0.3-0.9,0.4S18,23.2,17.6,23.2z M16.1,19.2h2.7
		c0-0.3,0-0.5-0.1-0.7s-0.1-0.3-0.3-0.5s-0.2-0.2-0.4-0.3c-0.2-0.1-0.3-0.1-0.5-0.1c-0.3,0-0.6,0.1-0.8,0.2
		c-0.2,0.1-0.4,0.3-0.5,0.5C16.2,18.6,16.2,18.9,16.1,19.2z"/>
	<path class="st0" d="M23.3,23.2c-0.2,0-0.4,0-0.6-0.1S22.2,23,22,22.9s-0.4-0.3-0.5-0.5c-0.1-0.2-0.2-0.5-0.2-0.9
		c0-0.4,0.1-0.8,0.3-1.1c0.2-0.3,0.5-0.5,0.8-0.7c0.3-0.2,0.8-0.3,1.2-0.3c0.5-0.1,1-0.1,1.6-0.1v-0.5c0-0.2,0-0.3-0.1-0.5
		c-0.1-0.1-0.2-0.3-0.3-0.3c-0.1-0.1-0.4-0.1-0.7-0.1c-0.3,0-0.5,0-0.7,0.1c-0.2,0.1-0.3,0.2-0.3,0.3C23,18.2,23,18.4,23,18.5v0.2
		h-1.4c0,0,0-0.1,0-0.1s0-0.1,0-0.1c0-0.4,0.1-0.7,0.3-0.9c0.2-0.3,0.5-0.5,0.9-0.6c0.4-0.1,0.8-0.2,1.3-0.2c0.6,0,1.1,0.1,1.4,0.2
		c0.4,0.2,0.6,0.4,0.8,0.7c0.2,0.3,0.3,0.7,0.3,1.1v3c0,0.2,0,0.3,0.1,0.3S27,22,27.1,22h0.4v1c-0.1,0-0.2,0.1-0.3,0.1
		c-0.2,0-0.3,0.1-0.6,0.1c-0.2,0-0.4,0-0.6-0.1c-0.2-0.1-0.3-0.2-0.4-0.3c-0.1-0.1-0.2-0.3-0.2-0.5h-0.1c-0.1,0.2-0.3,0.3-0.5,0.5
		c-0.2,0.1-0.4,0.2-0.7,0.3C23.9,23.2,23.6,23.2,23.3,23.2z M23.7,22c0.2,0,0.5,0,0.6-0.1c0.2-0.1,0.3-0.2,0.5-0.3s0.2-0.3,0.3-0.5
		c0.1-0.2,0.1-0.4,0.1-0.6v-0.3c-0.4,0-0.8,0-1.2,0.1c-0.4,0.1-0.7,0.2-0.9,0.3c-0.2,0.2-0.3,0.4-0.3,0.6c0,0.1,0,0.3,0.1,0.4
		s0.2,0.2,0.3,0.3C23.3,22,23.5,22,23.7,22z"/>
	<path class="st0" d="M30,23.2c-0.4,0-0.7-0.1-0.9-0.2c-0.2-0.2-0.4-0.4-0.5-0.6c-0.1-0.2-0.1-0.5-0.1-0.8V18h-0.8v-1.2h0.8l0.3-1.8
		h1.2v1.8H31V18h-1.1v3.5c0,0.2,0,0.3,0.1,0.4s0.2,0.1,0.4,0.1H31v1c-0.1,0-0.2,0.1-0.3,0.1c-0.1,0-0.2,0.1-0.4,0.1
		S30.1,23.2,30,23.2z"/>
	<path class="st0" d="M34.8,23.2c-0.7,0-1.2-0.1-1.7-0.4c-0.4-0.2-0.8-0.6-1-1.1c-0.2-0.5-0.3-1.1-0.3-1.9c0-0.8,0.1-1.4,0.3-1.9
		c0.2-0.5,0.6-0.8,1-1.1c0.4-0.2,1-0.4,1.7-0.4c0.6,0,1.1,0.1,1.5,0.3c0.4,0.2,0.7,0.6,0.9,1c0.2,0.5,0.3,1.1,0.3,1.8v0.4h-4.3
		c0,0.4,0.1,0.7,0.2,1c0.1,0.3,0.3,0.5,0.5,0.6c0.2,0.1,0.5,0.2,0.9,0.2c0.2,0,0.4,0,0.5-0.1s0.3-0.1,0.4-0.2s0.2-0.2,0.3-0.4
		c0.1-0.2,0.1-0.3,0.1-0.5h1.4c0,0.4-0.1,0.7-0.2,1c-0.1,0.3-0.3,0.5-0.6,0.7s-0.5,0.3-0.9,0.4S35.2,23.2,34.8,23.2z M33.3,19.2H36
		c0-0.3,0-0.5-0.1-0.7s-0.1-0.3-0.3-0.5s-0.2-0.2-0.4-0.3c-0.2-0.1-0.3-0.1-0.5-0.1c-0.3,0-0.6,0.1-0.8,0.2
		c-0.2,0.1-0.4,0.3-0.5,0.5C33.4,18.6,33.3,18.9,33.3,19.2z"/>
	<path class="st0" d="M38.8,23.1v-6.3H40l0.1,1h0.1c0.1-0.2,0.2-0.4,0.3-0.6c0.1-0.2,0.3-0.3,0.5-0.4c0.2-0.1,0.4-0.2,0.7-0.2
		c0.1,0,0.2,0,0.4,0s0.2,0,0.2,0.1v1.4h-0.4c-0.2,0-0.5,0-0.7,0.1c-0.2,0.1-0.4,0.2-0.5,0.3c-0.1,0.1-0.2,0.3-0.3,0.5
		c-0.1,0.2-0.1,0.5-0.1,0.8v3.3H38.8z"/>
	<path class="st0" d="M43.2,23.1v-8.7h1.5v3.1h0.1c0.1-0.2,0.3-0.3,0.5-0.4c0.2-0.1,0.4-0.2,0.6-0.3c0.2-0.1,0.5-0.1,0.8-0.1
		c0.4,0,0.8,0.1,1.1,0.2c0.3,0.1,0.5,0.4,0.7,0.7c0.2,0.3,0.3,0.7,0.3,1.3v4.3h-1.5v-4c0-0.2,0-0.4-0.1-0.6
		c-0.1-0.1-0.1-0.3-0.2-0.4c-0.1-0.1-0.2-0.2-0.4-0.2s-0.3-0.1-0.5-0.1c-0.3,0-0.5,0.1-0.7,0.2s-0.4,0.3-0.5,0.5
		c-0.1,0.2-0.2,0.5-0.2,0.8v3.7H43.2z"/>
	<path class="st0" d="M52.2,23.2c-0.6,0-1.1-0.2-1.5-0.5s-0.6-0.9-0.6-1.7v-4.3h1.5v4c0,0.2,0,0.4,0.1,0.6s0.1,0.3,0.2,0.4
		s0.2,0.2,0.4,0.2c0.1,0,0.3,0.1,0.5,0.1c0.3,0,0.5-0.1,0.7-0.2s0.4-0.3,0.5-0.5s0.2-0.5,0.2-0.8v-3.7h1.5v6.3h-1.2l-0.1-0.8h-0.1
		c-0.1,0.2-0.3,0.4-0.5,0.5c-0.2,0.1-0.4,0.3-0.7,0.3S52.5,23.2,52.2,23.2z"/>
	<path class="st0" d="M57.2,15.8v-1.4h1.5v1.4H57.2z M57.2,23.1v-6.3h1.5v6.3H57.2z"/>
	<path class="st0" d="M62.7,23.2c-0.5,0-0.9-0.1-1.2-0.1c-0.3-0.1-0.6-0.2-0.9-0.4s-0.4-0.4-0.5-0.6c-0.1-0.2-0.2-0.5-0.2-0.8
		c0,0,0-0.1,0-0.1c0,0,0-0.1,0-0.1h1.4c0,0,0,0,0,0s0,0,0,0c0,0.2,0.1,0.4,0.2,0.5c0.1,0.1,0.3,0.2,0.5,0.3c0.2,0.1,0.4,0.1,0.7,0.1
		c0.2,0,0.4,0,0.6-0.1c0.2,0,0.3-0.1,0.5-0.2s0.2-0.2,0.2-0.4c0-0.2-0.1-0.4-0.2-0.5c-0.2-0.1-0.4-0.2-0.6-0.3
		c-0.3-0.1-0.5-0.1-0.8-0.2c-0.3-0.1-0.5-0.2-0.8-0.2c-0.3-0.1-0.5-0.2-0.7-0.3c-0.2-0.1-0.4-0.3-0.5-0.5c-0.1-0.2-0.2-0.5-0.2-0.8
		c0-0.3,0.1-0.6,0.2-0.8c0.1-0.2,0.3-0.4,0.6-0.6c0.2-0.2,0.5-0.3,0.9-0.4c0.3-0.1,0.7-0.1,1.1-0.1c0.4,0,0.7,0,1,0.1
		c0.3,0.1,0.6,0.2,0.8,0.3s0.4,0.3,0.5,0.5s0.2,0.4,0.2,0.7c0,0.1,0,0.1,0,0.2c0,0.1,0,0.1,0,0.1h-1.4v-0.1c0-0.2,0-0.3-0.1-0.4
		c-0.1-0.1-0.2-0.2-0.4-0.3s-0.4-0.1-0.6-0.1c-0.2,0-0.4,0-0.5,0c-0.1,0-0.3,0.1-0.4,0.1c-0.1,0.1-0.2,0.1-0.2,0.2
		c0,0.1-0.1,0.2-0.1,0.2c0,0.2,0.1,0.3,0.2,0.4c0.1,0.1,0.3,0.2,0.5,0.2s0.4,0.1,0.7,0.2c0.3,0.1,0.6,0.2,0.9,0.2
		c0.3,0.1,0.6,0.2,0.8,0.3c0.3,0.1,0.5,0.3,0.6,0.5s0.2,0.5,0.2,0.9c0,0.4-0.1,0.7-0.2,0.9c-0.1,0.3-0.3,0.5-0.6,0.6
		c-0.3,0.2-0.5,0.3-0.9,0.3C63.4,23.2,63.1,23.2,62.7,23.2z"/>
	<path class="st0" d="M73,23.2c-1.3,0-2.3-0.3-3-1c-0.7-0.7-1.1-1.8-1.1-3.2c0-1,0.2-1.8,0.5-2.4s0.8-1.1,1.4-1.4
		c0.6-0.3,1.4-0.5,2.3-0.5c0.5,0,1,0.1,1.5,0.2c0.5,0.1,0.9,0.3,1.2,0.5c0.4,0.2,0.6,0.5,0.8,0.9c0.2,0.4,0.3,0.8,0.3,1.3h-1.6
		c0-0.3-0.1-0.5-0.2-0.7c-0.1-0.2-0.3-0.4-0.5-0.5c-0.2-0.1-0.4-0.2-0.7-0.3c-0.3-0.1-0.5-0.1-0.8-0.1c-0.4,0-0.8,0.1-1.2,0.2
		c-0.3,0.1-0.6,0.3-0.8,0.5s-0.4,0.5-0.5,0.9c-0.1,0.4-0.2,0.8-0.2,1.2v0.3c0,0.6,0.1,1.2,0.3,1.6c0.2,0.4,0.5,0.7,0.8,0.9
		c0.4,0.2,0.8,0.3,1.4,0.3c0.5,0,0.9-0.1,1.2-0.2s0.6-0.4,0.8-0.6c0.2-0.3,0.3-0.6,0.3-1V20h-2.6v-1.3H77v4.4h-1.1l-0.1-0.9
		c-0.2,0.2-0.5,0.4-0.8,0.6c-0.3,0.2-0.6,0.3-0.9,0.3C73.7,23.2,73.4,23.2,73,23.2z"/>
	<path class="st0" d="M81.3,23.2c-0.7,0-1.2-0.1-1.7-0.4c-0.4-0.2-0.8-0.6-1-1.1c-0.2-0.5-0.3-1.1-0.3-1.9c0-0.8,0.1-1.4,0.3-1.9
		c0.2-0.5,0.6-0.8,1-1.1c0.4-0.2,1-0.4,1.7-0.4c0.6,0,1.1,0.1,1.5,0.3c0.4,0.2,0.7,0.6,0.9,1c0.2,0.5,0.3,1.1,0.3,1.8v0.4h-4.3
		c0,0.4,0.1,0.7,0.2,1c0.1,0.3,0.3,0.5,0.5,0.6c0.2,0.1,0.5,0.2,0.9,0.2c0.2,0,0.4,0,0.5-0.1s0.3-0.1,0.4-0.2s0.2-0.2,0.3-0.4
		c0.1-0.2,0.1-0.3,0.1-0.5h1.4c0,0.4-0.1,0.7-0.2,1c-0.1,0.3-0.3,0.5-0.6,0.7s-0.5,0.3-0.9,0.4S81.7,23.2,81.3,23.2z M79.8,19.2h2.7
		c0-0.3,0-0.5-0.1-0.7s-0.1-0.3-0.3-0.5s-0.2-0.2-0.4-0.3c-0.2-0.1-0.3-0.1-0.5-0.1c-0.3,0-0.6,0.1-0.8,0.2
		c-0.2,0.1-0.4,0.3-0.5,0.5C79.9,18.6,79.9,18.9,79.8,19.2z"/>
	<path class="st0" d="M85.3,23.1v-6.3h1.2l0.1,0.8h0.1c0.1-0.2,0.3-0.4,0.5-0.5c0.2-0.1,0.4-0.3,0.7-0.3s0.5-0.1,0.8-0.1
		c0.4,0,0.8,0.1,1.1,0.2c0.3,0.1,0.5,0.4,0.7,0.7c0.2,0.3,0.3,0.7,0.3,1.3v4.3h-1.5v-4c0-0.2,0-0.4-0.1-0.6
		c-0.1-0.1-0.1-0.3-0.2-0.4C89,18.1,88.8,18,88.7,18s-0.3-0.1-0.5-0.1c-0.3,0-0.5,0.1-0.7,0.2s-0.4,0.3-0.5,0.5
		c-0.1,0.2-0.2,0.5-0.2,0.8v3.7H85.3z"/>
	<path class="st0" d="M94,23.2c-0.4,0-0.7-0.1-0.9-0.2c-0.2-0.2-0.4-0.4-0.5-0.6c-0.1-0.2-0.1-0.5-0.1-0.8V18h-0.8v-1.2h0.8l0.3-1.8
		h1.2v1.8H95V18h-1.1v3.5c0,0.2,0,0.3,0.1,0.4s0.2,0.1,0.4,0.1H95v1c-0.1,0-0.2,0.1-0.3,0.1c-0.1,0-0.2,0.1-0.4,0.1
		S94.1,23.2,94,23.2z"/>
</g>
</svg>
