<?xml version="1.0" encoding="utf-8"?>
<!-- Generator: Adobe Illustrator 23.0.2, SVG Export Plug-In . SVG Version: 6.00 Build 0)  -->
<svg version="1.1" id="Layer_1" xmlns="http://www.w3.org/2000/svg" xmlns:xlink="http://www.w3.org/1999/xlink" x="0px" y="0px"
	 width="120px" height="27px" viewBox="0 0 120 27" style="enable-background:new 0 0 120 27;" xml:space="preserve">
<style type="text/css">
	.st0{fill:#069BBC;}
</style>
<g>
	<path class="st0" d="M17.6,18.2c-2.1,0-3.4-1-3.4-2.9l0.1-0.1h0.5l0.1,0.1c0,1.4,0.9,2.2,2.7,2.2c1.6,0,2.3-0.8,2.3-1.8
		c0-1.2-0.8-1.6-2.7-2.1c-2-0.5-2.9-1.2-2.9-2.6c0-0.9,0.5-2.2,3-2.2c1.7,0,3.1,0.7,3.1,2.6l-0.1,0.1h-0.5l-0.1-0.1
		c0-1.3-0.8-2-2.3-2c-1.8,0-2.2,0.8-2.2,1.6c0,1.2,0.8,1.6,2.7,2.1c2,0.5,2.9,1,2.9,2.6C20.8,16.9,20.2,18.2,17.6,18.2z"/>
	<path class="st0" d="M27.3,18h-0.5l-0.1-0.1V14c0-1.3-0.6-2-1.7-2c-1.4,0-2.1,0.9-2.1,2.3v3.5L22.8,18h-0.5l-0.1-0.1V9.1l0.1-0.1
		h0.5l0.1,0.1v3.4H23c0.4-0.7,1.2-1,2.1-1c1.4,0,2.3,0.9,2.3,2.6v3.9L27.3,18z"/>
	<path class="st0" d="M28.6,14.8c0-2.2,1.3-3.4,3-3.4c1.7,0,3,1.2,3,3.4s-1.3,3.4-3,3.4C29.9,18.2,28.6,17,28.6,14.8z M29.4,14.8
		c0,1.7,0.9,2.7,2.2,2.7c1.3,0,2.2-1,2.2-2.7S32.9,12,31.6,12C30.3,12,29.4,13.1,29.4,14.8z"/>
	<path class="st0" d="M36.7,17.1h-0.1v3.4l-0.1,0.1h-0.5l-0.1-0.1v-8.8l0.1-0.1h0.4l0.1,0.1l0.1,0.8h0.1c0.3-0.5,0.9-1,2.1-1
		c1.8,0,2.7,1.4,2.7,3.4s-0.9,3.4-2.7,3.4C37.6,18.2,36.9,17.6,36.7,17.1z M40.7,14.8c0-1.8-0.8-2.7-2.1-2.7s-2.1,0.9-2.1,2.7
		s0.8,2.7,2.1,2.7S40.7,16.6,40.7,14.8z"/>
	<path class="st0" d="M50.4,12.4h0.1V9.1l0.1-0.1h0.5l0.1,0.1v8.8L51.2,18h-0.4l-0.1-0.1l-0.1-0.8h-0.1c-0.3,0.5-0.9,1-2.1,1
		c-1.8,0-2.7-1.4-2.7-3.4s0.9-3.4,2.7-3.4C49.5,11.4,50.2,11.9,50.4,12.4z M46.4,14.8c0,1.8,0.8,2.7,2.1,2.7c1.3,0,2.1-0.9,2.1-2.7
		S49.8,12,48.5,12C47.2,12,46.4,13,46.4,14.8z"/>
	<path class="st0" d="M53.4,15l-0.1,0.1c0,0.8,0.5,2.3,2.2,2.3c1,0,1.6-0.5,1.8-1.3l0.1-0.1H58l0.1,0.1c-0.1,0.8-0.8,2-2.6,2
		c-2.1,0-3-1.6-3-3.4v-0.3c0-1.8,1-3.1,2.9-3.1c1.8,0,2.9,1.3,2.9,3.1v0.4L58.1,15H53.4z M57.5,14.3c0-0.9-0.5-2.2-2.1-2.2
		s-2.1,1.3-2.1,2.2l0.1,0.1h3.9L57.5,14.3z"/>
	<path class="st0" d="M65.4,17.5c1.3,0,1.8-0.8,2-1.6l0.1-0.1H68l0.1,0.1c-0.1,1.3-1.2,2.2-2.7,2.2c-1.7,0-3-1-3-3.4s1.3-3.4,3-3.4
		c1.6,0,2.6,0.9,2.7,2.2L68,13.7h-0.5l-0.1-0.1c-0.1-0.8-0.6-1.6-2-1.6c-1.3,0-2.2,0.9-2.2,2.7S64.1,17.5,65.4,17.5z"/>
	<path class="st0" d="M68.9,14.8c0-2.2,1.3-3.4,3-3.4c1.7,0,3,1.2,3,3.4s-1.3,3.4-3,3.4C70.2,18.2,68.9,17,68.9,14.8z M69.7,14.8
		c0,1.7,0.9,2.7,2.2,2.7c1.3,0,2.2-1,2.2-2.7S73.2,12,71.9,12C70.6,12,69.7,13.1,69.7,14.8z"/>
	<path class="st0" d="M76.7,18h-0.5l-0.1-0.1V9.1l0.1-0.1h0.5l0.1,0.1v8.8L76.7,18z"/>
	<path class="st0" d="M79,18h-0.5l-0.1-0.1V9.1l0.1-0.1H79l0.1,0.1v8.8L79,18z"/>
	<path class="st0" d="M81.3,15l-0.1,0.1c0,0.8,0.5,2.3,2.2,2.3c1,0,1.6-0.5,1.8-1.3l0.1-0.1h0.5l0.1,0.1c-0.1,0.8-0.8,2-2.6,2
		c-2.1,0-3-1.6-3-3.4v-0.3c0-1.8,1-3.1,2.9-3.1c1.8,0,2.9,1.3,2.9,3.1v0.4L85.9,15H81.3z M85.3,14.3c0-0.9-0.5-2.2-2.1-2.2
		s-2.1,1.3-2.1,2.2l0.1,0.1h3.9L85.3,14.3z"/>
	<path class="st0" d="M89.8,17.5c1.3,0,1.8-0.8,1.9-1.6l0.1-0.1h0.5l0.1,0.1c-0.1,1.3-1.2,2.2-2.7,2.2c-1.7,0-3-1-3-3.4
		s1.3-3.4,3-3.4c1.6,0,2.6,0.9,2.7,2.2l-0.1,0.1h-0.5l-0.1-0.1c-0.1-0.8-0.6-1.6-1.9-1.6c-1.3,0-2.2,0.9-2.2,2.7
		S88.5,17.5,89.8,17.5z"/>
	<path class="st0" d="M96.9,18h-0.9c-0.9,0-1.6-0.5-1.6-1.4v-4.3l-0.1-0.1h-1L93.1,12v-0.4l0.1-0.1h1l0.1-0.1v-1.2l0.1-0.1H95
		l0.1,0.1v1.2l0.1,0.1h1.6l0.1,0.1V12l-0.1,0.1h-1.6l-0.1,0.1v4.3c0,0.5,0.3,0.8,0.8,0.8h0.9l0.1,0.1v0.4L96.9,18z"/>
	<path class="st0" d="M98.9,10.5h-0.5l-0.1-0.1V9.6l0.1-0.1h0.5l0.1,0.1v0.8L98.9,10.5z M98.9,18h-0.5l-0.1-0.1v-6.2l0.1-0.1h0.5
		l0.1,0.1v6.2L98.9,18z"/>
	<path class="st0" d="M101.1,15l-0.1,0.1c0,0.8,0.5,2.3,2.2,2.3c1,0,1.6-0.5,1.8-1.3l0.1-0.1h0.5l0.1,0.1c-0.1,0.8-0.8,2-2.6,2
		c-2.1,0-3-1.6-3-3.4v-0.3c0-1.8,1-3.1,2.9-3.1c1.8,0,2.9,1.3,2.9,3.1v0.4l-0.1,0.1H101.1z M105.2,14.3c0-0.9-0.5-2.2-2.1-2.2
		s-2.1,1.3-2.1,2.2l0.1,0.1h3.9L105.2,14.3z"/>
</g>
</svg>
