<?xml version="1.0" encoding="utf-8"?>
<!-- Generator: Adobe Illustrator 23.0.2, SVG Export Plug-In . SVG Version: 6.00 Build 0)  -->
<svg version="1.1" id="Layer_1" xmlns="http://www.w3.org/2000/svg" xmlns:xlink="http://www.w3.org/1999/xlink" x="0px" y="0px"
	 width="427.8px" height="95.1px" viewBox="0 0 427.8 95.1" style="enable-background:new 0 0 427.8 95.1;" xml:space="preserve">
<style type="text/css">
	.st0{fill:#FFFFFF;}
	.st1{fill:#069BBC;}
	.st2{opacity:0.5;}
</style>
<rect y="-0.3" class="st0" width="427.8" height="95.4"/>
<g>
	<g>
		<path class="st1" d="M104.7,31.8h-5.4v31.6c0,1.8-1.4,2.7-2.7,2.7c-1.4,0-2.7-0.9-2.7-2.7V31.8h-5.4c-1.8,0-2.7-1.4-2.7-2.7
			c0-1.4,0.9-2.7,2.7-2.7h16.3c1.8,0,2.7,1.4,2.7,2.7C107.4,30.4,106.5,31.8,104.7,31.8z"/>
		<path class="st1" d="M125.9,54.8h-11.2v2.1c0,2.2,1.8,3.8,4,3.8h0.5c3.9,0,3-3.9,6-3.9c1.4,0,2.9,0.9,2.9,2.5
			c0,0.3-0.1,0.7-0.3,1.3c-1.8,3.7-4.4,5.6-8.6,5.6h-0.5c-5.2,0-9.5-3.9-9.5-9.2v-9.7c0-5.2,4.3-9.2,9.5-9.2h0.5
			c5.3,0,9.5,3.9,9.5,9.4v4.7C128.6,53.5,127.4,54.8,125.9,54.8z M123.1,47.4c0-2.3-1.9-4-3.9-4h-0.5c-2.2,0-4.1,1.6-4.1,3.8v2.6
			h8.4V47.4z"/>
		<path class="st1" d="M150.8,66.1c-0.9,0-1.6-0.3-2.2-1.3l-5-8l-5,8c-0.6,1-1.4,1.3-2.2,1.3c-1.6,0-2.8-1.2-2.8-2.6
			c0-0.6,0.1-1.1,0.4-1.5l6.4-10.3l-5.9-9.5c-0.4-0.5-0.4-1-0.4-1.5c0-1.4,1.2-2.7,2.8-2.7c0.9,0,1.7,0.5,2.2,1.4l4.5,7.2l4.5-7.2
			c0.6-0.9,1.4-1.4,2.2-1.4c1.6,0,2.8,1.3,2.8,2.7c0,0.5,0,1-0.4,1.5l-5.9,9.5l6.4,10.3c0.3,0.4,0.4,0.9,0.4,1.5
			C153.6,64.9,152.4,66.1,150.8,66.1z"/>
		<path class="st1" d="M169.1,65.9c-4.3,0-7.8-3.4-7.8-7.8V43.5h-0.9c-1.8,0-2.7-1.4-2.7-2.7c0-1.3,0.9-2.7,2.7-2.7h0.9v-9.4
			c0-1.8,1.4-2.7,2.7-2.7c1.4,0,2.8,0.9,2.8,2.7v9.4h2c1.8,0,2.7,1.4,2.7,2.7c0,1.4-0.9,2.7-2.7,2.7h-2v14.6c0,0.9,0.9,2.4,2.3,2.4
			c1.8,0,2.7,1.4,2.7,2.7C171.8,64.6,170.9,65.9,169.1,65.9z"/>
		<path class="st1" d="M180.6,66.1c-1.4,0-2.7-0.9-2.7-2.7V40.7c0-1.8,1.4-2.7,2.7-2.7c1.3,0,2.7,0.9,2.7,2.7v22.7
			C183.3,65.2,181.9,66.1,180.6,66.1z M180.6,32.6c-1.4,0-2.7-0.9-2.7-2.7v-1.2c0-1.8,1.3-2.7,2.7-2.7s2.7,0.9,2.7,2.7V30
			C183.3,31.7,182,32.6,180.6,32.6z"/>
		<path class="st1" d="M207.3,54.8h-11.2v2.1c0,2.2,1.8,3.8,4,3.8h0.5c3.9,0,3-3.9,6-3.9c1.4,0,2.9,0.9,2.9,2.5
			c0,0.3-0.1,0.7-0.3,1.3c-1.8,3.7-4.4,5.6-8.6,5.6h-0.5c-5.2,0-9.5-3.9-9.5-9.2v-9.7c0-5.2,4.3-9.2,9.5-9.2h0.5
			c5.3,0,9.5,3.9,9.5,9.4v4.7C210,53.5,208.8,54.8,207.3,54.8z M204.5,47.4c0-2.3-1.9-4-3.9-4h-0.5c-2.2,0-4.1,1.6-4.1,3.8v2.6h8.4
			V47.4z"/>
		<path class="st1" d="M224.5,65.9c-5,0-7.8-2.7-7.8-7.8V28.8c0-1.6,1.1-2.7,2.7-2.7c1.5,0,2.7,1.1,2.7,2.7v29.4
			c0,1.3,1,2.4,2.3,2.4c1.5,0,2.7,1.1,2.7,2.7C227.3,64.8,226.1,65.9,224.5,65.9z"/>
		<path class="st1" d="M260,66.1c-1.4,0-2.7-0.9-2.7-2.7V39.2l-6.2,14.3c-0.5,1.1-1.7,1.7-2.9,1.7c-1.1,0-2.3-0.6-2.8-1.7L239,39.2
			v24.2c0,1.8-1.4,2.7-2.7,2.7c-1.4,0-2.7-0.9-2.7-2.7V28.8c0-1.4,1.3-2.7,2.7-2.7h0.7c1.4,0,2.3,0.5,2.8,1.6l8.4,18.8l8.3-18.8
			c0.5-1.2,1.3-1.6,2.8-1.6h0.7c1.4,0,2.7,1.3,2.7,2.7v34.6C262.8,65.2,261.4,66.1,260,66.1z"/>
		<path class="st1" d="M286.9,66.1c-1.1,0-2.1-0.2-2.7-1.4c-1.6,1.5-2.8,1.4-4,1.4h-0.5c-5.6,0-9.4-4.1-9.4-9.4v-16
			c0-1.8,1.4-2.7,2.7-2.7c1.3,0,2.7,0.9,2.7,2.7v16c0,2.2,1.7,4,3.9,4h0.5c2.2,0,4-1.8,4-4v-16c0-1.8,1.4-2.7,2.7-2.7
			c1.4,0,2.7,0.9,2.7,2.7v22.7C289.7,65.2,288.3,66.1,286.9,66.1z"/>
		<path class="st1" d="M305.6,66.1h-1c-3.7,0-7.4-2.1-9.1-5.8c-0.2-0.4-0.3-0.8-0.3-1.3c0-1.5,1.4-2.6,2.8-2.6
			c2.7,0,2.8,4.3,6.6,4.3h1c3.2,0,4.5-1.3,4.5-3.1c0-3.1-3-3.4-5.4-3.8c-3.9-0.7-8.9-2.4-8.9-7.2v-1c0-5.7,6.2-7.6,9.8-7.6h0.2
			c5.1,0,8.8,2.9,8.8,4.9c0,1.3-1.1,2.5-2.6,2.5c-2.2,0-2.6-2-6.2-2h-0.2c-2.5,0-4.3,1-4.3,2.3v0.6c0,4.1,14.3,0.7,14.3,11.3
			C315.5,64.1,309.8,66.1,305.6,66.1z"/>
		<path class="st1" d="M337.5,54.8h-11.2v2.1c0,2.2,1.8,3.8,4,3.8h0.5c3.9,0,3-3.9,6-3.9c1.4,0,2.9,0.9,2.9,2.5
			c0,0.3-0.1,0.7-0.3,1.3c-1.8,3.7-4.4,5.6-8.6,5.6h-0.5c-5.2,0-9.5-3.9-9.5-9.2v-9.7c0-5.2,4.3-9.2,9.5-9.2h0.5
			c5.2,0,9.5,3.9,9.5,9.4v4.7C340.2,53.5,339,54.8,337.5,54.8z M334.7,47.4c0-2.3-1.9-4-3.9-4h-0.5c-2.2,0-4.1,1.6-4.1,3.8v2.6h8.4
			V47.4z"/>
		<path class="st1" d="M362.7,66.1c-1.1,0-2.1-0.2-2.7-1.4c-1.6,1.5-2.8,1.4-4,1.4h-0.5c-5.6,0-9.4-4.1-9.4-9.4v-16
			c0-1.8,1.4-2.7,2.7-2.7c1.3,0,2.7,0.9,2.7,2.7v16c0,2.2,1.7,4,3.9,4h0.5c2.2,0,4-1.8,4-4v-16c0-1.8,1.4-2.7,2.7-2.7
			c1.4,0,2.7,0.9,2.7,2.7v22.7C365.4,65.2,364.1,66.1,362.7,66.1z"/>
		<path class="st1" d="M403.3,66.1c-1.3,0-2.7-0.9-2.7-2.7v-16c0-2.2-1.8-4-4.1-4H396c-2.2,0-4.1,1.8-4.1,4v15.9
			c0,1.9-1.4,2.8-2.7,2.8c-1.4,0-2.7-0.9-2.7-2.8V47.4c0-2.2-1.8-4-4.1-4h-0.5c-2.2,0-4.1,1.8-4.1,4v16c0,1.8-1.4,2.7-2.7,2.7
			c-1.3,0-2.7-0.9-2.7-2.7V40.7c0-1.8,1.4-2.7,2.7-2.7c1.3,0,2.1,0.3,2.7,1.5c0.9-0.9,2.5-1.5,4.1-1.5h0.5c3,0,5,1,6.8,2.8
			c1.8-1.8,4.1-2.8,6.8-2.8h0.5c6.4,0,9.5,3.5,9.5,9.2v16.2C406.1,65.2,404.6,66.1,403.3,66.1z"/>
		<g class="st2">
			<g>
				<path class="st1" d="M31.4,66.1H31c-0.9,0-2.9-0.1-4.1-1.4c-0.4,0.9-1.1,1.4-2.7,1.4c-1.4,0-2.7-0.9-2.7-2.7V28.8
					c0-1.8,1.4-2.7,2.7-2.7c1.4,0,2.7,0.9,2.7,2.7v10.7c1.2-1.1,3.1-1.5,4.1-1.5h0.4c5.2,0,9.5,4.2,9.5,9.4v9.4
					C40.9,62,36.6,66.1,31.4,66.1z M35.4,47.4c0-2.2-1.8-4-4-4h-0.5c-2.2,0-4,1.8-4,4v9.4c0,2.1,1.8,4,4,4h0.5c2.2,0,4-1.8,4-4V47.4
					z"/>
				<path class="st1" d="M65.9,41.5l-10,30.9c-1.5,4.7-4.5,5.7-7,5.7c-2.5,0-3.1-1.2-3.1-2.7c0-1.4,0.6-2.7,2.9-2.7
					c1.3,0,1.9-1.1,2.5-2.7l2.5-7.4l-7.3-21c-0.1-0.3-0.2-0.7-0.2-1c0-1.5,1.1-2.6,2.8-2.6c1.1,0,2.1,0.5,2.5,1.8l4.9,14l4.4-13.9
					c0.4-1.3,1.4-1.9,2.5-1.9c1.6,0,2.8,1.2,2.8,2.6C66,40.9,65.9,41.2,65.9,41.5z"/>
			</g>
		</g>
	</g>
</g>
</svg>
