<?xml version="1.0" encoding="utf-8"?>
<!-- Generator: Adobe Illustrator 24.0.0, SVG Export Plug-In . SVG Version: 6.00 Build 0)  -->
<svg version="1.1" id="Layer_1" xmlns="http://www.w3.org/2000/svg" xmlns:xlink="http://www.w3.org/1999/xlink" x="0px" y="0px"
	 width="1787.7px" height="450.1px" viewBox="0 0 1787.7 450.1" style="enable-background:new 0 0 1787.7 450.1;"
	 xml:space="preserve">
<style type="text/css">
	.st0{clip-path:url(#SVGID_2_);fill:#B1DFF5;}
</style>
<g>
	<g>
		<defs>
			<rect id="SVGID_1_" y="0" width="1787.7" height="450.1"/>
		</defs>
		<clipPath id="SVGID_2_">
			<use xlink:href="#SVGID_1_"  style="overflow:visible;"/>
		</clipPath>
		<path class="st0" d="M1728.1,425.1c-416.7,8.7-833.4,16.6-1250.1,23.7c25.5,2.4,32.5,1.5,21-2.7c-15-0.7-30-1.5-45.1-2.2
			c-32.7-1.6-65.5-3.2-98.3-4.7c-41.3-1.5-82.3-3.2-123.5-5.5c-73.7-4-148.1-1-221.9-4.3c-5.9-12.7-4.3-32.7-6.7-46.7
			c-2.1-12.2-4.2-23.5-3.4-35.9c1.9-32.3,5.7-59.1,22.5-87.1c12.8-21.5,39.6-41.1,64.1-46.1c13.4-2.8,29.6-7.5,43.8-8.6
			c21.7-1.7,21.8,0,33.5-18.2c14-21.8,33.7-54.3,55.7-69.2c29.6-20.1,76.8-30.8,111.2-40.1c23.7-6.4,47.3-8.6,70.1-17.9
			c33.7-13.9,64.7-19.3,101.1-24.6c30.8-5.3,61.8-9.3,92.9-12c60.2-4.1,119.5,3.8,178.9,12.5c40,5.2,79.7,12.5,119,21.9
			c28.1,6.3,59.3,16.2,88.4,17.6c17.7,0.8,31.2-7.3,48.6-16.2c111.5-56.7,224.5-72.3,347-47c40.4,8.3,74.6,20.6,113.2,33
			c42.9,13.7,87.9,19.8,132.7,23.3c10,0.8,25.8-1.9,35.4,1.4c16.7,5.7,35.4,35.8,45.8,48.1c15.8,18.7,47.4,34.5,54.8,59.2
			c0.1,7.2,0.3,14.4,0.5,21.6c3.7,15,15.7,25.5,21.3,39.7c16.6,41.8,2.1,82.2-16.2,117.9c-7,13.6,0,29.4-6.3,41.8
			C1751.6,410.3,1735.4,410.7,1728.1,425.1"/>
	</g>
</g>
</svg>
