<?xml version="1.0" encoding="utf-8"?>
<!-- Generator: Adobe Illustrator 24.0.0, SVG Export Plug-In . SVG Version: 6.00 Build 0)  -->
<svg version="1.1" id="Laag_1" xmlns="http://www.w3.org/2000/svg" xmlns:xlink="http://www.w3.org/1999/xlink" x="0px" y="0px"
	 width="67px" height="40.5px" viewBox="0 0 67 40.5" style="enable-background:new 0 0 67 40.5;" xml:space="preserve">
<style type="text/css">
	.st0{fill:#FFFFFF;}
</style>
<g>
	<path class="st0" d="M0,0.8h1.8l2.3,5.9l2.4-5.9h1.7l2.4,5.9l2.3-5.9h1.8l-3.3,8.4H9.8l-2.5-6l-2.5,6H3.2L0,0.8z"/>
	<path class="st0" d="M17,4c0.4-0.7,1.1-1,1.9-1c1.4,0,2.1,0.9,2.1,2.4v3.7h-1.6V5.8c0-0.9-0.4-1.3-1.1-1.3c-0.9,0-1.3,0.6-1.3,1.8
		v2.9h-1.6V0.8H17V4z"/>
	<path class="st0" d="M24.3,8.3l-2.5-5.1h1.8l1.5,3.3l1.5-3.3h1.7l-3.8,8.4h-1.7L24.3,8.3z"/>
	<path class="st0" d="M34.6,9.2c-1.1,0-1.8-0.5-1.8-1.9V4.5h-1.1V3.2h1.1V1.5h1.6v1.6H36v1.3h-1.5v2.6c0,0.4,0.2,0.5,0.6,0.5
		c0.2,0,0.4,0,0.9-0.1V9C35.5,9.1,35,9.2,34.6,9.2z"/>
	<path class="st0" d="M38.7,4c0.4-0.7,1.1-1,1.9-1c1.4,0,2.1,0.9,2.1,2.4v3.7H41V5.8C41,5,40.7,4.5,40,4.5c-0.9,0-1.3,0.6-1.3,1.8
		v2.9h-1.6V0.8h1.6V4z"/>
	<path class="st0" d="M46.8,3c1.8,0,3,1.3,3,3.2v0.4h-4.4l0,0c0.2,0.8,0.9,1.2,1.6,1.2c0.7,0,1.3-0.3,1.7-0.6l0.7,1.3
		c-0.5,0.4-1.2,0.8-2.4,0.8c-2,0-3.2-1.4-3.2-3.1C43.7,4.4,44.9,3,46.8,3z M46.7,4.3c-0.8,0-1.3,0.4-1.4,1.1H48
		C47.9,4.8,47.5,4.3,46.7,4.3z"/>
	<path class="st0" d="M0.3,19.3c0-2.4,1.8-4.2,4.2-4.2c1.1,0,2.2,0.4,3,1.2l-0.8,1.5c-0.6-0.7-1.4-1-2.2-1c-1.4,0-2.5,1-2.5,2.5
		s1.1,2.5,2.5,2.5c0.4,0,1-0.1,1.6-0.4l0.3,1.6c-0.6,0.3-1.3,0.4-2,0.4C2.1,23.5,0.3,21.7,0.3,19.3z"/>
	<path class="st0" d="M10.8,17.4c1.8,0,2.6,0.8,2.6,2.4v3.7h-1.6v-0.8c-0.4,0.6-1,0.9-1.8,0.9c-1.2,0-2-0.8-2-1.9
		c0-1,0.8-1.8,1.9-1.9l1.6-0.1c0.2,0,0.3-0.1,0.3-0.2v-0.1c0-0.4-0.4-0.6-1-0.6c-0.8,0-1.3,0.3-1.5,0.8l-1.2-0.8
		C8.5,17.9,9.5,17.4,10.8,17.4z M10.4,21.1c-0.5,0.1-0.7,0.3-0.7,0.7c0,0.4,0.3,0.7,0.9,0.7c0.8,0,1.4-0.6,1.4-1.3v-0.2L10.4,21.1z"
		/>
	<path class="st0" d="M17.2,17.4c0.8,0,1.6,0.4,2,1v-0.8h1.6v5.6c0,1.9-1.1,3-3.3,3c-1.1,0-2-0.3-2.7-0.9l0.8-1.3
		c0.5,0.5,1.1,0.8,1.8,0.8c1.2,0,1.8-0.5,1.8-1.5v-0.4c-0.4,0.6-1.1,0.9-1.9,0.9c-1.7,0-2.8-1.2-2.8-3.1
		C14.4,18.7,15.6,17.4,17.2,17.4z M17.6,18.9c-0.9,0-1.6,0.7-1.6,1.6c0,0.9,0.6,1.6,1.6,1.6c0.9,0,1.5-0.6,1.5-1.6
		S18.5,18.9,17.6,18.9z"/>
	<path class="st0" d="M24.9,17.4c1.8,0,3,1.3,3,3.2V21h-4.4l0,0c0.2,0.8,0.9,1.2,1.6,1.2c0.7,0,1.3-0.3,1.7-0.6l0.7,1.3
		c-0.5,0.4-1.2,0.8-2.4,0.8c-2,0-3.2-1.4-3.2-3.1C21.8,18.8,23,17.4,24.9,17.4z M24.8,18.7c-0.8,0-1.3,0.4-1.4,1.1h2.7
		C26,19.2,25.6,18.7,24.8,18.7z"/>
	<path class="st0" d="M34.8,23.5h-1.6v-0.8c-0.5,0.6-1.2,1-2,1c-1.6,0-2.7-1.3-2.7-3.1c0-1.9,1.1-3.1,2.7-3.1c0.8,0,1.6,0.4,2,1
		v-3.3h1.6V23.5z M30.1,20.5c0,0.9,0.6,1.6,1.6,1.6c0.9,0,1.6-0.6,1.6-1.6S32.6,19,31.7,19C30.7,19,30.1,19.6,30.1,20.5z"/>
	<path class="st0" d="M39.8,15.2h3.6c1.6,0,2.5,1,2.5,2.4c0,0.9-0.4,1.5-1,1.8c0.6,0.3,1,1,1,1.8c0,1.4-0.9,2.4-2.5,2.4h-3.6V15.2z
		 M43.3,18.5c0.5,0,0.9-0.3,0.9-0.9c0-0.5-0.3-0.8-0.9-0.8h-1.9v1.7H43.3z M43.3,21.9c0.5,0,0.9-0.3,0.9-0.8c0-0.5-0.4-0.9-0.9-0.9
		h-1.9v1.7H43.3z"/>
	<path class="st0" d="M46.9,15.8c0-0.6,0.4-1,1-1c0.6,0,1,0.4,1,1c0,0.6-0.4,1-1,1C47.3,16.8,46.9,16.4,46.9,15.8z M48.7,23.5h-1.6
		v-6h1.6V23.5z"/>
	<path class="st0" d="M53.4,17.4c0.2,0,0.4,0,0.6,0.1v1.7c-0.2-0.1-0.5-0.1-0.7-0.1c-1,0-1.5,0.6-1.5,1.7v2.7h-1.6v-6h1.5v1
		C52,17.8,52.6,17.4,53.4,17.4z"/>
	<path class="st0" d="M60.8,23.5h-1.6v-0.8c-0.5,0.6-1.2,1-2,1c-1.6,0-2.7-1.3-2.7-3.1c0-1.9,1.1-3.1,2.7-3.1c0.8,0,1.6,0.4,2,1
		v-3.3h1.6V23.5z M56.1,20.5c0,0.9,0.6,1.6,1.6,1.6c0.9,0,1.6-0.6,1.6-1.6S58.6,19,57.7,19C56.7,19,56.1,19.6,56.1,20.5z"/>
	<path class="st0" d="M64.5,17.4c1.1,0,1.8,0.3,2.4,0.9L66,19.4c-0.4-0.4-1-0.6-1.6-0.6c-0.5,0-0.8,0.2-0.8,0.4
		c0,0.3,0.3,0.3,1.4,0.6c1.1,0.3,1.9,0.7,1.9,1.9c0,1.3-0.9,2-2.6,2c-1.2,0-2.1-0.4-2.7-1l0.9-1.2c0.4,0.4,1,0.8,1.9,0.8
		c0.4,0,0.8-0.1,0.8-0.5c0-0.3-0.3-0.4-1.3-0.6c-0.9-0.2-2-0.6-2-1.9C62,18.1,63,17.4,64.5,17.4z"/>
	<path class="st0" d="M0.3,35.8l1.5-0.6c0.2,0.7,0.6,1.1,1.3,1.1c0.6,0,1-0.3,1-0.7c0-0.5-0.4-0.7-1.5-1.1C1.4,34,0.4,33.4,0.4,32
		c0-1.5,1.1-2.4,2.7-2.4c1.5,0,2.5,0.8,2.8,2.1l-1.5,0.6c-0.2-0.7-0.6-1.1-1.3-1.1c-0.6,0-1,0.3-1,0.7c0,0.5,0.4,0.7,1.5,1.1
		c1.3,0.4,2.2,1.1,2.2,2.5c0,1.5-1.1,2.4-2.7,2.4C1.6,37.9,0.6,37.2,0.3,35.8z"/>
	<path class="st0" d="M6.9,30.2c0-0.6,0.4-1,1-1c0.6,0,1,0.4,1,1c0,0.6-0.4,1-1,1C7.4,31.2,6.9,30.8,6.9,30.2z M8.7,37.9H7.2v-6h1.6
		V37.9z"/>
	<path class="st0" d="M10.2,32h1.5v0.9c0.5-0.7,1.2-1.1,2-1.1c1.3,0,2.1,0.9,2.1,2.4v3.8h-1.6v-3.3c0-0.9-0.4-1.3-1.1-1.3
		c-0.8,0-1.3,0.6-1.3,1.8v2.9h-1.6V32z"/>
	<path class="st0" d="M19.7,31.8c0.8,0,1.6,0.4,2,1V32h1.6v5.6c0,1.9-1.1,3-3.3,3c-1.1,0-2-0.3-2.7-0.9l0.8-1.3
		c0.5,0.5,1.1,0.8,1.8,0.8c1.2,0,1.8-0.5,1.8-1.5v-0.4c-0.4,0.6-1.1,0.9-1.9,0.9c-1.7,0-2.8-1.2-2.8-3.1
		C16.9,33.1,18,31.8,19.7,31.8z M20.1,33.3c-0.9,0-1.6,0.7-1.6,1.6c0,0.9,0.6,1.6,1.6,1.6c0.9,0,1.5-0.6,1.5-1.6S21,33.3,20.1,33.3z
		"/>
</g>
</svg>
