<?xml version="1.0" encoding="utf-8"?>
<!-- Generator: Adobe Illustrator 24.0.0, SVG Export Plug-In . SVG Version: 6.00 Build 0)  -->
<svg version="1.1" id="Layer_1" xmlns="http://www.w3.org/2000/svg" xmlns:xlink="http://www.w3.org/1999/xlink" x="0px" y="0px"
	 width="257.9px" height="256.1px" viewBox="0 0 257.9 256.1" style="enable-background:new 0 0 257.9 256.1;" xml:space="preserve"
	>
<style type="text/css">
	.st0{fill:#E30613;}
</style>
<g>
	<polygon class="st0" points="13.9,237.2 7.3,237.2 7.3,229.6 0,229.6 0,251.3 7.3,251.3 7.3,243.5 13.9,243.5 13.9,251.3 
		21.2,251.3 21.2,229.6 13.9,229.6 	"/>
	<polygon class="st0" points="31.6,243 42.2,243 42.2,237.7 31.6,237.7 31.6,235.5 43,235.5 43,229.6 24.4,229.6 24.4,251.3 
		43.1,251.3 43.1,245.3 31.6,245.3 	"/>
	<polygon class="st0" points="44.2,235.7 50.6,235.7 50.6,251.3 57.8,251.3 57.8,235.7 64.2,235.7 64.2,229.6 44.2,229.6 	"/>
	<polygon class="st0" points="81,229.6 73.8,229.6 73.8,251.3 91.2,251.3 91.2,245.1 81,245.1 	"/>
	<path class="st0" d="M101,229.4l-9.1,21.9h7.8l1.1-2.9h7.6l1.1,2.9h7.9l-9.2-21.9H101z M102.5,243.2l2-5.3l2,5.3H102.5z"/>
	<path class="st0" d="M126.8,229.4l-9.1,21.9h7.8l1.1-2.9h7.6l1.1,2.9h7.9l-9.2-21.9H126.8z M128.3,243.2l2-5.3l2,5.3H128.3z"/>
	<polygon class="st0" points="174.3,229.6 167,229.6 167,251.3 184.5,251.3 184.5,245.1 174.3,245.1 	"/>
	<path class="st0" d="M194.3,229.4l-9.2,21.9h7.8l1.1-2.9h7.7l1.1,2.9h7.9l-9.2-21.9H194.3z M195.8,243.2l2-5.3l2,5.3H195.8z"/>
	<polygon class="st0" points="226.2,239.2 218.5,229.6 211.7,229.6 211.7,251.3 218.9,251.3 218.9,241.3 226.9,251.3 233.4,251.3 
		233.4,229.6 226.2,229.6 	"/>
	<path class="st0" d="M218,175.6c3.3-5.3,5.7-11,5.7-17.2c0-10.4-5.8-25.7-25.2-25.7c-11.3,0-25.2,7.5-30.9,16.8l17.9,12.8
		c3.6-7.5,10.8-7,11-3.9c0,1.7-0.5,3.5-2.7,7.2c-1.9,3.1-6,6.4-11.5,8.7c-5.4,2.4-12.1,3.7-17.9,3.7c-6.2,0-11.2-1.4-14.5-3.7
		c-1.8-1.2-3.7-3.3-6-6.3c-1-1.2-2-2.6-3.1-4.1c6.1-8.9,17.1-28.8,17.6-29.8c4.5-0.4,9.6-1,15.9-1.9c7.2-1,19.2-5.4,26.3-9.1
		c8-4.2,14.4-9.5,18-15.4c3.9-6.2,5.6-12.5,5.7-18.6c0-0.2,0-0.4,0-0.5c0-4.8-1.5-9.8-5.3-14c-3.7-4.3-9.8-7.5-16.4-8.6
		c-2-0.4-4-0.5-6-0.5c-5.6,0-10.5,1.4-14.6,3.1c-6.1,2.7-10.7,6.2-14.5,9.6c-3.8,3.4-6.8,6.8-9,9.3c-1.8,2.1-3.5,4.2-5.2,6.3
		c-4.3,5.3-8.4,12.1-12.6,18.9c-0.3,0-0.5,0-0.8,0c-6.2,0-11.2-1.4-14.5-3.7c-1.8-1.2-3.7-3.3-5.9-6.3c-1-1.2-2-2.6-3.1-4.1
		c0,0,4.8-7.7,9.6-16.5c2.3-4.1,5.4-9.5,7.7-13.5c4.5-0.4,9.6-1,15.9-1.9c7.2-1,19.2-5.4,26.3-9.1c8-4.2,14.4-9.5,18-15.4
		c3.6-5.9,5.3-12.2,5.4-18.3c0-0.2,0-0.4,0-0.5c0-4.8-1.5-9.8-5.3-14.1c-3.7-4.3-9.8-7.5-16.4-8.6c-2-0.4-4-0.5-6-0.5
		c-5.6,0-10.5,1.4-14.6,3.1c-6.1,2.7-10.7,6.2-14.5,9.6s-6.8,6.8-9,9.3c-1.8,2.1-3.5,4.2-5.2,6.3c-4.3,5.3-8.4,12.1-12.6,18.9
		c-6.2,0-11.2-1.4-14.5-3.7c-1.8-1.2-3.7-3.3-6-6.3L75.6,53.1c2.1,2.4,4.6,4.8,7.9,7.2c6.1,4.2,13.1,6.7,20.3,8
		c-0.6,1.1-7.8,14.1-7.8,14.1c-0.2-0.1-0.5-0.2-0.7-0.3c-5.6-2.5-11.5-4.4-17.6-5.4c-2.4-0.4-4.9-0.6-7.3-0.6
		c-11.6,0-21.6,4.8-27.8,11c-6.2,6.3-9.5,14.1-9.6,22.3c0,0.9,0.1,1.9,0.1,2.8c0.5,5.4,2.8,11.1,8.3,15.5c5.5,4.4,13.2,7,20.4,7h0.5
		h0.1c10.3-0.1,19.3-4.1,26.3-8.2c4.1-2.4,7.8-5.2,10.9-8c2.1,2.4,4.6,4.8,7.9,7.2c6.3,4.4,13.6,6.9,21.1,8.2
		c-2.6,4.7-5.3,9.4-8.1,13.8c-0.2-0.1-0.5-0.2-0.7-0.3c-5.6-2.5-11.5-4.4-17.6-5.4c-2.4-0.4-4.9-0.6-7.3-0.6
		c-11.6,0-21.6,4.8-27.8,11c-6.2,6.3-9.5,14.1-9.6,22.3c0,0.9,0,1.9,0.1,2.8c0.5,5.4,2.8,11.1,8.3,15.5c5.5,4.4,13.2,7,20.4,7h0.5
		h0.1c10.3-0.1,19.3-4.1,26.3-8.2c4.1-2.4,7.8-5.2,10.9-8c2.1,2.4,4.6,4.8,7.9,7.2c9.4,6.5,21.1,9.1,32.3,9.1
		c10.8,0,21.4-2.3,30.8-6.3C204.5,189.7,212.9,183.8,218,175.6z M180.9,99.9c2.6-3,6.1-6.7,9.5-9.3c1.7-1.3,3.3-2.3,4.5-2.8
		s1.8-0.5,1.8-0.5l0.3,0.1c0.1,0.2,0.2,0.5,0.2,1.1v0.2h-0.1c0,3-1,6.4-2.6,8.9c-0.6,1-2.9,3.6-4.7,4.7c-5.9,4-8.4,5-14.8,7.2
		l-2.4,0.8C173.2,109.5,180.5,100.4,180.9,99.9z M155.9,34.6c2.6-3,6.1-6.7,9.5-9.3c1.7-1.3,3.3-2.3,4.5-2.8s1.8-0.5,1.8-0.5
		l0.3,0.1c0.1,0.2,0.2,0.5,0.2,1.1v0.1c0,3-1,6.4-2.6,8.9c-0.6,1-2.9,3.6-4.7,4.7c-5.9,4-8.4,5-14.8,7.2l-2.5,0.9
		C148.2,44.2,155.5,35.1,155.9,34.6z M72.9,108.6c-4,2.3-7.6,4-10.8,4h-0.3c-0.5,0-0.9,0-1.1-0.1c-0.1-0.3-0.2-0.8-0.3-1.4
		c0-0.4-0.1-0.7-0.1-1c0-3.1,1.5-7.1,3.5-9.1c2.2-2.1,4-2.8,6.6-2.8c0.6,0,1.2,0.1,1.9,0.2c2.8,0.2,6.4,1.3,9.7,2.9
		C79.3,104.1,76.1,106.7,72.9,108.6z M97.5,173.7c-4,2.3-7.5,4-10.8,4h-0.3c-0.5,0-0.9,0-1.1-0.1c-0.1-0.3-0.2-0.8-0.3-1.4
		c0-0.4-0.1-0.7-0.1-1c0-3.1,1.4-7.1,3.5-9.1c2.2-2.1,4-2.8,6.6-2.8c0.6,0,1.2,0,1.9,0.2c2.8,0.3,6.4,1.4,9.7,2.9
		C103.9,169.2,100.7,171.8,97.5,173.7z"/>
	<path class="st0" d="M257.1,236c-0.5-1.3-1.3-2.5-2.4-3.4c-1.1-1-2.5-1.7-4.1-2.2c-1.7-0.5-3.6-0.8-5.7-0.8h-8.3h0v21.9h8.1
		c2.2,0,4.2-0.3,5.8-0.8c1.6-0.6,3-1.3,4.1-2.3c1.1-1,2-2.2,2.5-3.5s0.8-2.8,0.8-4.4v-0.1C257.9,238.8,257.6,237.3,257.1,236z
		 M250.6,240.5c0,1.5-0.5,2.7-1.5,3.4s-2.3,1.1-4,1.1h-1.2v-9.1h1.2c1.7,0,3,0.4,4,1.1C250.1,237.7,250.6,238.8,250.6,240.5
		L250.6,240.5z"/>
	<path class="st0" d="M153.4,243h3.7v2.2c-0.3,0.2-0.6,0.3-1,0.4c-0.4,0.1-0.9,0.1-1.5,0.1c-0.8,0-1.5-0.2-2.1-0.4
		c-0.6-0.3-1.1-0.6-1.6-1.1c-0.5-0.4-0.8-1-1.1-1.6c-0.3-0.6-0.4-1.3-0.4-2.1v-0.1c0-0.7,0.2-1.4,0.4-2c0.2-0.6,0.6-1.1,1-1.6
		c0.5-0.5,1-0.8,1.6-1.1c0.6-0.3,1.3-0.4,2-0.4c0.9,0,1.7,0.2,2.5,0.5c0.8,0.3,1.6,0.8,2.3,1.4l4.1-4.9c-1.2-1-2.5-1.8-4-2.4
		c-1.5-0.6-3.2-0.9-5.1-0.9c-1.8,0-3.3,0.3-4.8,0.9c-1.5,0.6-2.7,1.4-3.8,2.4c-1.1,1-1.9,2.2-2.5,3.6c-0.6,1.4-0.9,2.9-0.9,4.5v0.1
		c0,1.7,0.4,3.2,1,4.6c0.6,1.4,1.5,2.6,2.6,3.6c1.1,1,2.4,1.8,3.9,2.3s3.1,0.8,4.8,0.8c2,0,3.8-0.3,5.2-1c1.6-0.6,3-1.4,4.2-2.4v-10
		h-10.5V243z"/>
</g>
</svg>
