<?xml version="1.0" encoding="utf-8"?>
<!-- Generator: Adobe Illustrator 24.3.0, SVG Export Plug-In . SVG Version: 6.00 Build 0)  -->
<svg version="1.1" id="Laag_1" xmlns="http://www.w3.org/2000/svg" xmlns:xlink="http://www.w3.org/1999/xlink" x="0px" y="0px"
	 width="159.8px" height="33.2px" viewBox="0 0 159.8 33.2" style="enable-background:new 0 0 159.8 33.2;" xml:space="preserve">
<style type="text/css">
	.st0{fill:#97825B;}
</style>
<g>
	<path class="st0" d="M2.7,0.2l2.7,6.8l2.7-6.8h2.7L6.2,10.9H4.5L0,0.2H2.7z"/>
	<path class="st0" d="M15.9,0.2c0.7,0,1.2,0.1,1.7,0.3c0.4,0.2,0.8,0.4,1,0.6c0.2,0.2,0.4,0.5,0.6,0.9c0.2,0.4,0.3,0.9,0.3,1.5
		c0,0.3-0.1,0.7-0.2,1.1C19.2,5,19,5.4,18.7,5.7c-0.2,0.2-0.4,0.3-0.6,0.5c-0.3,0.1-0.5,0.3-0.8,0.3l3.3,4.4h-3l-2.9-4.2v4.2h-2.5
		V0.2H15.9z M14.6,5.1h0.6c0.2,0,0.5,0,0.7-0.1s0.5-0.2,0.7-0.4c0.1-0.1,0.2-0.2,0.3-0.4S17,3.9,17,3.6C17,3.3,17,3,16.8,2.9
		c-0.1-0.2-0.2-0.3-0.3-0.4c-0.2-0.1-0.4-0.2-0.7-0.3c-0.3,0-0.5-0.1-0.6-0.1h-0.6V5.1z"/>
	<path class="st0" d="M33.2,10.9h-8.2l3.2-3.5c0.1-0.2,0.3-0.3,0.5-0.5c0.2-0.2,0.3-0.4,0.5-0.6c0.2-0.2,0.3-0.4,0.5-0.6
		c0.1-0.2,0.3-0.3,0.3-0.5c0.1-0.1,0.1-0.2,0.2-0.3c0.1-0.1,0.1-0.3,0.2-0.4c0.1-0.2,0.1-0.3,0.2-0.5c0-0.2,0.1-0.4,0.1-0.5
		c0-0.2,0-0.4-0.1-0.6c-0.1-0.2-0.2-0.3-0.3-0.5c-0.2-0.2-0.5-0.3-1-0.3c-0.2,0-0.4,0-0.6,0.1s-0.3,0.2-0.4,0.3
		c-0.1,0.2-0.3,0.4-0.3,0.6c-0.1,0.3-0.1,0.5-0.1,0.7h-2.5c0-0.5,0.2-0.9,0.3-1.4c0.2-0.5,0.4-0.9,0.8-1.2C26.6,1,26.8,0.8,27,0.7
		s0.4-0.2,0.6-0.4c0.2-0.1,0.5-0.2,0.8-0.3C28.7,0,29.1,0,29.4,0c0.4,0,0.7,0,1,0.1c0.3,0.1,0.6,0.2,0.8,0.3
		c0.2,0.1,0.4,0.2,0.6,0.3C32,0.8,32.1,0.9,32.2,1c0.3,0.3,0.5,0.6,0.7,1.1c0.2,0.4,0.3,0.9,0.3,1.5c0,0.5-0.1,0.9-0.2,1.3
		c-0.1,0.4-0.3,0.7-0.6,1.1c-0.2,0.3-0.5,0.6-0.8,0.9S31,7.4,30.7,7.8l-1.1,1.1h3.7V10.9z"/>
	<path class="st0" d="M36.8,10.9l2.8-3.5c-0.4,0.1-0.7,0.2-1.1,0.2c-0.6,0-1.1-0.1-1.6-0.3c-0.5-0.2-0.8-0.4-1.1-0.7
		c-0.3-0.3-0.5-0.6-0.7-1.1S34.9,4.6,34.9,4c0-0.4,0-0.7,0.1-1.1s0.2-0.6,0.3-0.8c0.1-0.2,0.2-0.4,0.3-0.6c0.1-0.1,0.2-0.3,0.3-0.4
		c0.3-0.3,0.5-0.5,0.8-0.6c0.3-0.2,0.6-0.3,0.9-0.4C38,0.1,38.3,0.1,38.6,0c0.3,0,0.5,0,0.7,0c0.4,0,0.8,0,1.1,0.1s0.6,0.1,0.9,0.2
		s0.5,0.2,0.7,0.3s0.4,0.3,0.5,0.4c0.3,0.2,0.5,0.6,0.7,1c0.2,0.4,0.3,1,0.3,1.7c0,0.3,0,0.7-0.1,1.1c-0.1,0.4-0.2,0.7-0.4,1.1
		c-0.1,0.3-0.3,0.6-0.5,1c-0.2,0.3-0.5,0.7-0.7,1l-2.4,3.2L36.8,10.9z M39.2,2c-0.5,0-0.9,0.2-1.3,0.5c-0.1,0.1-0.2,0.3-0.4,0.5
		c-0.1,0.2-0.2,0.5-0.2,0.9c0,0.3,0.1,0.6,0.2,0.8c0.1,0.2,0.2,0.4,0.4,0.5c0.2,0.1,0.4,0.3,0.6,0.3s0.5,0.1,0.7,0.1
		c0.3,0,0.5,0,0.7-0.1s0.4-0.2,0.6-0.3c0.1-0.1,0.3-0.3,0.4-0.5c0.1-0.2,0.2-0.5,0.2-0.9c0-0.5-0.2-0.9-0.5-1.3
		c-0.1-0.1-0.3-0.2-0.5-0.3C39.8,2.1,39.6,2,39.2,2z"/>
	<path class="st0" d="M54.6,0c1.7,0,3.1,0.5,4.1,1.6C59.2,2,59.7,2.6,60,3.3s0.4,1.4,0.4,2.3c0,0.7-0.1,1.4-0.4,2.1
		c-0.3,0.7-0.7,1.3-1.3,1.9c-0.5,0.5-1.1,0.9-1.8,1.1c-0.7,0.3-1.5,0.4-2.4,0.4c-0.5,0-1,0-1.4-0.1c-0.4-0.1-0.8-0.2-1.1-0.4
		s-0.6-0.3-0.9-0.5s-0.5-0.4-0.7-0.6c-0.5-0.5-0.9-1.1-1.2-1.8c-0.3-0.7-0.4-1.4-0.4-2.2c0-0.4,0-0.8,0.1-1.1
		c0.1-0.4,0.2-0.7,0.3-1.1c0.1-0.4,0.3-0.7,0.5-1s0.4-0.6,0.7-0.8c0.2-0.2,0.4-0.4,0.7-0.6s0.6-0.4,0.9-0.5s0.7-0.3,1.2-0.4
		C53.6,0,54.1,0,54.6,0z M54.6,2.3c-0.5,0-0.9,0.1-1.3,0.2c-0.4,0.2-0.8,0.4-1,0.7c-0.2,0.2-0.5,0.5-0.7,0.9S51.3,5,51.3,5.6
		c0,1,0.3,1.8,1,2.4c0.3,0.3,0.7,0.6,1.1,0.7c0.4,0.1,0.8,0.2,1.2,0.2c0.5,0,1-0.1,1.4-0.3c0.4-0.2,0.7-0.4,1-0.6
		c0.2-0.2,0.4-0.5,0.6-0.9c0.2-0.4,0.3-0.9,0.3-1.5c0-0.6-0.1-1-0.3-1.4c-0.2-0.4-0.4-0.7-0.7-1c-0.3-0.3-0.6-0.5-1-0.6
		C55.5,2.4,55.1,2.3,54.6,2.3z"/>
	<path class="st0" d="M64.9,4.7l3.6-4.4h3l-4.3,5.1l4.7,5.6h-3.2l-3.8-4.7v4.7h-2.5V0.2h2.5V4.7z"/>
	<path class="st0" d="M77,2.3v8.6h-2.5V2.3h-2.3V0.2h7.1v2.1H77z"/>
	<path class="st0" d="M86.1,0c1.7,0,3.1,0.5,4.1,1.6c0.5,0.5,0.9,1.1,1.2,1.8s0.4,1.4,0.4,2.3c0,0.7-0.1,1.4-0.4,2.1
		S90.8,9,90.3,9.6c-0.5,0.5-1.1,0.9-1.8,1.1c-0.7,0.3-1.5,0.4-2.4,0.4c-0.5,0-1,0-1.4-0.1c-0.4-0.1-0.8-0.2-1.1-0.4
		c-0.3-0.1-0.6-0.3-0.9-0.5C82.4,10,82.2,9.8,82,9.6c-0.5-0.5-0.9-1.1-1.2-1.8s-0.4-1.4-0.4-2.2c0-0.4,0-0.8,0.1-1.1
		c0.1-0.4,0.2-0.7,0.3-1.1s0.3-0.7,0.5-1s0.4-0.6,0.7-0.8c0.2-0.2,0.4-0.4,0.7-0.6c0.3-0.2,0.6-0.4,0.9-0.5s0.7-0.3,1.2-0.4
		C85.1,0,85.6,0,86.1,0z M86.1,2.3c-0.5,0-0.9,0.1-1.3,0.2c-0.4,0.2-0.8,0.4-1,0.7c-0.2,0.2-0.5,0.5-0.7,0.9S82.8,5,82.8,5.6
		c0,1,0.3,1.8,1,2.4c0.3,0.3,0.7,0.6,1.1,0.7s0.8,0.2,1.2,0.2c0.5,0,1-0.1,1.4-0.3c0.4-0.2,0.7-0.4,1-0.6c0.2-0.2,0.4-0.5,0.6-0.9
		c0.2-0.4,0.3-0.9,0.3-1.5c0-0.6-0.1-1-0.3-1.4c-0.2-0.4-0.4-0.7-0.7-1c-0.3-0.3-0.6-0.5-1-0.6S86.6,2.3,86.1,2.3z"/>
	<path class="st0" d="M97.2,0.2c0.1,0,0.3,0,0.5,0c0.2,0,0.5,0,0.7,0.1c0.3,0.1,0.5,0.1,0.8,0.2c0.2,0.1,0.5,0.3,0.7,0.5
		c0.2,0.2,0.3,0.3,0.4,0.5c0.1,0.2,0.2,0.4,0.2,0.6s0.1,0.4,0.1,0.5c0,0.2,0,0.3,0,0.4c0,0.2,0,0.4-0.1,0.7c0,0.2-0.1,0.5-0.3,0.7
		c-0.1,0.2-0.3,0.4-0.5,0.5c-0.2,0.1-0.3,0.2-0.4,0.3c0.3,0,0.5,0.1,0.8,0.2c0.3,0.1,0.5,0.3,0.7,0.5c0.2,0.2,0.3,0.4,0.5,0.7
		c0.1,0.3,0.2,0.7,0.2,1.2c0,0.5-0.1,1-0.3,1.3c-0.2,0.3-0.4,0.6-0.6,0.8c-0.2,0.2-0.5,0.4-0.7,0.5c-0.3,0.1-0.5,0.2-0.8,0.3
		c-0.3,0.1-0.5,0.1-0.7,0.1c-0.2,0-0.4,0-0.6,0h-4V0.2H97.2z M96.4,4.6h0.4c0.2,0,0.4,0,0.6-0.1c0.2,0,0.5-0.1,0.6-0.2
		c0.1-0.1,0.2-0.2,0.3-0.4c0.1-0.2,0.1-0.3,0.1-0.6c0-0.2,0-0.4-0.1-0.6S98.1,2.5,98,2.4c-0.2-0.1-0.4-0.2-0.6-0.2
		c-0.2,0-0.4,0-0.7,0h-0.4V4.6z M96.4,9h0.6c0.3,0,0.6,0,1-0.1c0.3,0,0.6-0.2,0.8-0.4C99,8.3,99.1,8,99.1,7.7c0-0.2,0-0.4-0.1-0.5
		s-0.1-0.3-0.2-0.3c-0.1-0.1-0.2-0.2-0.4-0.2c-0.1-0.1-0.3-0.1-0.5-0.1c-0.2,0-0.3,0-0.5,0c-0.2,0-0.3,0-0.4,0h-0.7V9z"/>
	<path class="st0" d="M109.6,2.3h-3.5v2.1h3.4v2.1h-3.4v2.4h3.5v2.1h-6V0.2h6V2.3z"/>
	<path class="st0" d="M115.5,0.2c0.7,0,1.2,0.1,1.7,0.3c0.4,0.2,0.8,0.4,1,0.6c0.2,0.2,0.4,0.5,0.6,0.9c0.2,0.4,0.3,0.9,0.3,1.5
		c0,0.3-0.1,0.7-0.2,1.1c-0.1,0.4-0.3,0.7-0.7,1.1c-0.2,0.2-0.4,0.3-0.6,0.5c-0.3,0.1-0.5,0.3-0.8,0.3l3.3,4.4h-3l-2.9-4.2v4.2h-2.5
		V0.2H115.5z M114.3,5.1h0.6c0.2,0,0.5,0,0.7-0.1s0.5-0.2,0.7-0.4c0.1-0.1,0.2-0.2,0.3-0.4s0.1-0.4,0.1-0.7c0-0.3-0.1-0.5-0.2-0.7
		c-0.1-0.2-0.2-0.3-0.3-0.4c-0.2-0.1-0.4-0.2-0.7-0.3c-0.3,0-0.5-0.1-0.6-0.1h-0.6V5.1z"/>
	<path class="st0" d="M132.9,10.9h-8.2l3.2-3.5c0.1-0.2,0.3-0.3,0.5-0.5c0.2-0.2,0.3-0.4,0.5-0.6c0.2-0.2,0.3-0.4,0.5-0.6
		s0.3-0.3,0.3-0.5c0.1-0.1,0.1-0.2,0.2-0.3s0.1-0.3,0.2-0.4s0.1-0.3,0.2-0.5c0-0.2,0.1-0.4,0.1-0.5c0-0.2,0-0.4-0.1-0.6
		c-0.1-0.2-0.2-0.3-0.3-0.5c-0.2-0.2-0.5-0.3-1-0.3c-0.2,0-0.4,0-0.6,0.1c-0.2,0.1-0.3,0.2-0.4,0.3c-0.1,0.2-0.3,0.4-0.3,0.6
		c-0.1,0.3-0.1,0.5-0.1,0.7h-2.5c0-0.5,0.2-0.9,0.3-1.4c0.2-0.5,0.4-0.9,0.8-1.2c0.1-0.1,0.3-0.3,0.5-0.4s0.4-0.2,0.6-0.4
		c0.2-0.1,0.5-0.2,0.8-0.3s0.6-0.1,1-0.1c0.4,0,0.7,0,1,0.1c0.3,0.1,0.6,0.2,0.8,0.3c0.2,0.1,0.4,0.2,0.6,0.3
		c0.2,0.1,0.3,0.2,0.4,0.3c0.3,0.3,0.5,0.6,0.7,1.1c0.2,0.4,0.3,0.9,0.3,1.5c0,0.5-0.1,0.9-0.2,1.3c-0.1,0.4-0.3,0.7-0.6,1.1
		c-0.2,0.3-0.5,0.6-0.8,0.9s-0.6,0.6-0.9,0.9l-1.1,1.1h3.7V10.9z"/>
	<path class="st0" d="M143.3,5.6c0,0.9-0.1,1.8-0.4,2.5c-0.2,0.8-0.6,1.4-1.2,1.9c-0.3,0.3-0.7,0.6-1.2,0.8c-0.5,0.2-1,0.3-1.7,0.3
		c-0.6,0-1.2-0.1-1.7-0.3s-0.9-0.5-1.2-0.8c-0.5-0.5-0.9-1.2-1.2-1.9s-0.4-1.6-0.4-2.5c0-0.9,0.1-1.8,0.4-2.6s0.6-1.4,1.2-1.9
		c0.3-0.3,0.7-0.6,1.2-0.8s1-0.3,1.7-0.3c0.7,0,1.2,0.1,1.7,0.3c0.5,0.2,0.9,0.5,1.2,0.8c0.5,0.5,0.9,1.2,1.2,1.9
		C143.2,3.8,143.3,4.7,143.3,5.6z M138.9,2.1c-0.2,0-0.4,0-0.5,0.1s-0.3,0.2-0.4,0.3c-0.2,0.2-0.3,0.4-0.5,0.7
		c-0.1,0.3-0.2,0.6-0.3,0.8c-0.1,0.3-0.1,0.6-0.1,0.8c0,0.3,0,0.5,0,0.7c0,0.2,0,0.5,0,0.7c0,0.3,0.1,0.6,0.1,0.8
		c0.1,0.3,0.2,0.6,0.3,0.8s0.3,0.5,0.5,0.7c0.1,0.1,0.3,0.2,0.4,0.3c0.1,0.1,0.3,0.1,0.5,0.1c0.2,0,0.4,0,0.5-0.1
		c0.1-0.1,0.3-0.2,0.4-0.3c0.2-0.2,0.3-0.4,0.5-0.7s0.2-0.5,0.3-0.8c0.1-0.3,0.1-0.6,0.1-0.8s0-0.5,0-0.7c0-0.2,0-0.4,0-0.7
		s-0.1-0.5-0.1-0.8c-0.1-0.3-0.2-0.6-0.3-0.8c-0.1-0.3-0.3-0.5-0.5-0.7c-0.1-0.1-0.3-0.2-0.4-0.3S139.1,2.1,138.9,2.1z"/>
	<path class="st0" d="M152.4,10.9h-8.2l3.2-3.5c0.1-0.2,0.3-0.3,0.5-0.5c0.2-0.2,0.3-0.4,0.5-0.6c0.2-0.2,0.3-0.4,0.5-0.6
		s0.3-0.3,0.3-0.5c0.1-0.1,0.1-0.2,0.2-0.3s0.1-0.3,0.2-0.4s0.1-0.3,0.2-0.5c0-0.2,0.1-0.4,0.1-0.5c0-0.2,0-0.4-0.1-0.6
		c-0.1-0.2-0.2-0.3-0.3-0.5c-0.2-0.2-0.5-0.3-1-0.3c-0.2,0-0.4,0-0.6,0.1c-0.2,0.1-0.3,0.2-0.4,0.3c-0.1,0.2-0.3,0.4-0.3,0.6
		c-0.1,0.3-0.1,0.5-0.1,0.7h-2.5c0-0.5,0.2-0.9,0.3-1.4c0.2-0.5,0.4-0.9,0.8-1.2c0.1-0.1,0.3-0.3,0.5-0.4s0.4-0.2,0.6-0.4
		c0.2-0.1,0.5-0.2,0.8-0.3s0.6-0.1,1-0.1c0.4,0,0.7,0,1,0.1c0.3,0.1,0.6,0.2,0.8,0.3c0.2,0.1,0.4,0.2,0.6,0.3
		c0.2,0.1,0.3,0.2,0.4,0.3c0.3,0.3,0.5,0.6,0.7,1.1c0.2,0.4,0.3,0.9,0.3,1.5c0,0.5-0.1,0.9-0.2,1.3c-0.1,0.4-0.3,0.7-0.6,1.1
		c-0.2,0.3-0.5,0.6-0.8,0.9s-0.6,0.6-0.9,0.9l-1.1,1.1h3.7V10.9z"/>
	<path class="st0" d="M157.3,2.3h-1.5V0.2h4v10.7h-2.5V2.3z"/>
	<path d="M6,18.2c0.2,0,0.4,0,0.7,0c0.3,0,0.6,0.1,1,0.1s0.7,0.2,1,0.3c0.3,0.2,0.7,0.4,1,0.6c0.2,0.2,0.4,0.5,0.6,0.7
		c0.1,0.3,0.2,0.5,0.3,0.8c0.1,0.3,0.1,0.5,0.1,0.7c0,0.2,0,0.4,0,0.6c0,0.3,0,0.6-0.1,0.9s-0.2,0.6-0.4,1c-0.2,0.3-0.4,0.5-0.6,0.7
		c-0.2,0.2-0.4,0.3-0.6,0.4c0.4,0.1,0.7,0.2,1.1,0.3c0.4,0.2,0.7,0.4,0.9,0.6c0.2,0.2,0.5,0.6,0.7,1c0.2,0.4,0.3,1,0.3,1.6
		c0,0.7-0.1,1.4-0.4,1.8c-0.2,0.5-0.5,0.9-0.8,1.1c-0.3,0.3-0.6,0.5-1,0.7c-0.4,0.2-0.7,0.3-1.1,0.4c-0.4,0.1-0.7,0.1-1,0.2
		c-0.3,0-0.6,0-0.8,0H1.5V18.2H6z M4.9,24.2h0.5c0.2,0,0.5,0,0.8-0.1c0.3-0.1,0.6-0.2,0.9-0.3c0.2-0.1,0.3-0.3,0.4-0.5
		s0.2-0.5,0.2-0.8s-0.1-0.6-0.2-0.8c-0.1-0.2-0.3-0.3-0.4-0.5c-0.2-0.2-0.5-0.3-0.8-0.3c-0.3,0-0.6,0-0.9,0H4.9V24.2z M4.9,30.3h0.8
		c0.4,0,0.9,0,1.3-0.1c0.5-0.1,0.8-0.2,1.2-0.5c0.3-0.3,0.5-0.7,0.5-1.2c0-0.3,0-0.5-0.1-0.7s-0.2-0.3-0.3-0.5
		C8,27.1,7.9,27,7.7,26.9c-0.2-0.1-0.4-0.1-0.6-0.2c-0.2,0-0.4,0-0.7-0.1c-0.2,0-0.4,0-0.6,0H4.9V30.3z"/>
	<path d="M18.3,18.2v11.8h4.5v2.9h-7.9V18.2H18.3z"/>
	<path d="M33.5,30.2H28l-1.1,2.7h-3.5l5.9-14.7h3.1l5.8,14.7h-3.5L33.5,30.2z M32.6,27.5l-1.8-4.9L29,27.5H32.6z"/>
	<path d="M50.6,32.4c-0.7,0.3-1.3,0.6-1.8,0.6c-0.5,0.1-1,0.1-1.5,0.1c-1.3,0-2.5-0.2-3.4-0.6c-0.9-0.4-1.7-0.9-2.3-1.5
		c-0.7-0.6-1.2-1.4-1.6-2.4c-0.4-0.9-0.6-2-0.6-3.2c0-1.2,0.2-2.2,0.6-3.1c0.4-0.9,1-1.7,1.6-2.4c0.7-0.6,1.5-1.1,2.4-1.5
		c0.9-0.4,2-0.6,3.1-0.6c0.5,0,1,0.1,1.6,0.2c0.6,0.1,1.2,0.3,1.9,0.6v3.9c-0.4-0.4-0.9-0.8-1.4-1.1c-0.6-0.3-1.2-0.5-2-0.5
		c-1.2,0-2.2,0.4-3,1.2c-0.4,0.4-0.7,0.9-1,1.5c-0.3,0.6-0.4,1.2-0.4,1.9c0,0.8,0.1,1.4,0.4,2c0.3,0.5,0.6,1,0.9,1.3
		c0.1,0.1,0.2,0.2,0.4,0.3c0.2,0.1,0.4,0.3,0.7,0.4c0.3,0.1,0.6,0.3,0.9,0.4c0.4,0.1,0.8,0.2,1.2,0.2c0.2,0,0.5,0,0.7-0.1
		s0.5-0.1,0.8-0.2c0.3-0.1,0.6-0.3,0.9-0.5c0.3-0.2,0.6-0.5,1-0.8V32.4z"/>
	<path d="M57,24.4l5-6.1h4.1l-5.9,7l6.4,7.7h-4.4L57,26.4v6.5h-3.4V18.2H57V24.4z"/>
	<path d="M81.4,21.8c-0.3-0.2-0.5-0.4-0.8-0.6s-0.5-0.2-0.7-0.3c-0.2-0.1-0.4-0.1-0.6-0.1s-0.3,0-0.4,0c-0.2,0-0.5,0-0.7,0.1
		c-0.3,0.1-0.5,0.2-0.7,0.4c-0.1,0.1-0.2,0.3-0.3,0.4c-0.1,0.2-0.1,0.3-0.1,0.5c0,0.4,0.1,0.6,0.3,0.8c0.2,0.2,0.4,0.3,0.7,0.4
		s0.7,0.2,1.2,0.4l1.1,0.4c0.3,0.1,0.7,0.3,1,0.4s0.7,0.4,1,0.7c0.4,0.4,0.7,0.9,0.9,1.4c0.1,0.5,0.2,0.9,0.2,1.4
		c0,0.8-0.1,1.5-0.4,2.1c-0.2,0.6-0.6,1.1-0.9,1.5c-0.3,0.3-0.7,0.6-1.1,0.8c-0.4,0.2-0.8,0.3-1.1,0.5c-0.4,0.1-0.7,0.2-1.1,0.2
		s-0.6,0-0.9,0c-0.5,0-1,0-1.5-0.1c-0.5-0.1-0.9-0.2-1.4-0.5c-0.4-0.2-0.8-0.4-1.2-0.7c-0.4-0.3-0.7-0.6-1-0.9l1.8-2.4
		c0.2,0.2,0.4,0.4,0.7,0.6c0.3,0.2,0.5,0.4,0.7,0.5c0.6,0.4,1.2,0.5,1.9,0.5c0.2,0,0.5,0,0.8-0.1c0.3-0.1,0.5-0.2,0.8-0.4
		c0.1-0.1,0.3-0.3,0.4-0.5c0.1-0.2,0.2-0.4,0.2-0.7c0-0.2,0-0.5-0.1-0.6s-0.2-0.3-0.4-0.4c-0.1-0.1-0.2-0.2-0.4-0.3
		c-0.1-0.1-0.3-0.2-0.5-0.2c-0.2-0.1-0.3-0.1-0.5-0.2s-0.3-0.1-0.4-0.2l-1.2-0.4c-0.3-0.1-0.7-0.3-1.1-0.4s-0.7-0.4-1-0.7
		c-0.4-0.4-0.6-0.9-0.7-1.3s-0.2-0.9-0.2-1.2c0-0.7,0.1-1.3,0.3-1.8c0.2-0.5,0.5-1,1-1.5c0.5-0.5,1.1-0.9,1.7-1.1
		c0.6-0.2,1.3-0.3,1.9-0.3c0.2,0,0.5,0,0.9,0c0.3,0,0.7,0.1,1,0.2s0.8,0.2,1.2,0.4c0.4,0.2,0.8,0.4,1.3,0.8L81.4,21.8z"/>
	<path d="M91.3,21.1v11.8h-3.4V21.1h-3.2v-2.9h9.8v2.9H91.3z"/>
	<path d="M101.7,18.2c0.9,0,1.7,0.1,2.3,0.4c0.6,0.3,1.1,0.6,1.4,0.9c0.3,0.3,0.6,0.7,0.9,1.2c0.3,0.5,0.4,1.2,0.4,2
		c0,0.5-0.1,1-0.2,1.5s-0.4,1-0.9,1.5c-0.2,0.2-0.5,0.5-0.9,0.7c-0.3,0.2-0.7,0.3-1.1,0.5l4.5,6h-4.1l-4-5.8v5.8h-3.4V18.2H101.7z
		 M99.9,24.9h0.8c0.3,0,0.6,0,1-0.1c0.4-0.1,0.7-0.2,1-0.5c0.1-0.1,0.2-0.3,0.4-0.5s0.2-0.5,0.2-0.9c0-0.4-0.1-0.8-0.2-1
		c-0.2-0.2-0.3-0.4-0.4-0.5c-0.3-0.2-0.6-0.3-1-0.4c-0.4-0.1-0.7-0.1-0.9-0.1h-0.8V24.9z"/>
	<path d="M113.6,18.2v14.7h-3.4V18.2H113.6z"/>
	<path d="M117,32.9V18.2h3l7.9,9.5v-9.5h3.4v14.7h-3l-7.9-9.5v9.5H117z"/>
	<path d="M141.8,24.9h7.3v0.2c0,0.4,0,0.9-0.1,1.5c-0.1,0.5-0.2,1.1-0.4,1.6c-0.2,0.6-0.4,1.1-0.7,1.6c-0.3,0.5-0.6,1-1,1.4
		c-0.4,0.4-0.8,0.8-1.3,1c-0.4,0.3-0.9,0.5-1.3,0.6c-0.4,0.1-0.9,0.2-1.3,0.3c-0.4,0.1-0.9,0.1-1.3,0.1c-0.4,0-0.9,0-1.3-0.1
		c-0.5-0.1-0.9-0.1-1.4-0.3c-0.5-0.1-0.9-0.3-1.4-0.6c-0.4-0.3-0.9-0.6-1.3-1.1c-0.2-0.2-0.5-0.5-0.7-0.8c-0.2-0.3-0.5-0.7-0.7-1.2
		c-0.2-0.5-0.4-1-0.5-1.6c-0.1-0.6-0.2-1.2-0.2-2c0-1.2,0.2-2.3,0.6-3.2c0.4-0.9,0.9-1.7,1.5-2.4c0.5-0.5,0.9-0.8,1.4-1.1
		c0.5-0.3,1-0.5,1.5-0.6c0.5-0.2,1-0.3,1.5-0.3c0.5,0,0.9-0.1,1.4-0.1c0.6,0,1.3,0.1,2,0.2s1.4,0.4,2.1,0.9c0.5,0.3,1,0.7,1.4,1.2
		c0.4,0.5,0.7,0.9,1,1.4l-3.1,1.7c-0.1-0.3-0.3-0.6-0.5-0.8c-0.2-0.3-0.5-0.5-0.8-0.7c-0.6-0.5-1.4-0.7-2.3-0.7
		c-0.7,0-1.3,0.1-1.8,0.3c-0.5,0.2-0.9,0.5-1.3,0.9c-0.4,0.4-0.7,0.9-0.9,1.5s-0.3,1.2-0.3,1.9c0,0.8,0.1,1.5,0.4,2.1
		c0.3,0.5,0.5,1,0.9,1.3c0.4,0.4,0.9,0.7,1.4,0.9c0.5,0.2,1,0.2,1.6,0.2c0.7,0,1.3-0.1,1.7-0.3c0.4-0.2,0.7-0.4,0.9-0.5
		c0.1,0,0.2-0.2,0.5-0.5s0.5-0.7,0.6-1.2h-3.5V24.9z"/>
</g>
</svg>
