<?xml version="1.0" encoding="utf-8"?>
<!-- Generator: Adobe Illustrator 24.0.0, SVG Export Plug-In . SVG Version: 6.00 Build 0)  -->
<svg version="1.1" id="Laag_1" xmlns="http://www.w3.org/2000/svg" xmlns:xlink="http://www.w3.org/1999/xlink" x="0px" y="0px"
	 width="45.4px" height="32.6px" viewBox="0 0 45.4 32.6" style="enable-background:new 0 0 45.4 32.6;" xml:space="preserve">
<style type="text/css">
	.st0{fill:#000000;}
</style>
<polygon class="st0" points="1.8,2.5 1.8,10.8 2.8,10.8 2.8,9 3.7,8.2 5.6,10.8 6.9,10.8 4.4,7.5 6.9,4.9 5.5,4.9 2.8,7.6 2.8,2.5 
	"/>
<g>
	<path class="st0" d="M8,10.2c0.2,0.2,0.4,0.4,0.7,0.5s0.6,0.2,1,0.2c0.5,0,0.8-0.1,1.1-0.2c0.3-0.2,0.6-0.4,0.8-0.7v0.9h1v-6h-1
		v2.8c0,0.3,0,0.6-0.1,0.9c0,0.3-0.1,0.6-0.3,0.8c-0.1,0.2-0.3,0.4-0.6,0.5c-0.1,0-0.4,0.1-0.7,0.1s-0.5,0-0.6-0.1
		C9.1,9.8,9,9.7,8.9,9.5C8.8,9.4,8.7,9.2,8.7,9S8.6,8.6,8.6,8.3V4.9h-1v3.5c0,0.4,0,0.7,0.1,1C7.7,9.7,7.9,10,8,10.2"/>
	<path class="st0" d="M15,8c0-0.3,0-0.6,0.1-0.9c0-0.3,0.1-0.6,0.3-0.8c0.2-0.2,0.4-0.4,0.6-0.5c0.2-0.1,0.5-0.2,0.8-0.2
		c0.5,0,0.8,0.1,1,0.4s0.3,0.7,0.3,1.2v3.5h1V7.3c0-0.4,0-0.7-0.1-1s-0.2-0.6-0.4-0.8c-0.2-0.2-0.4-0.4-0.7-0.5
		c-0.3-0.1-0.6-0.2-1-0.2S16.2,4.9,15.8,5c-0.3,0.1-0.6,0.4-0.9,0.7V4.9h-1v5.9h1V8H15z"/>
	<path class="st0" d="M24.1,10.4c0.2-0.2,0.4-0.4,0.5-0.6c0.1-0.2,0.2-0.5,0.2-0.8s-0.1-0.5-0.2-0.7s-0.3-0.4-0.5-0.5
		s-0.4-0.2-0.7-0.3c-0.3-0.1-0.6-0.2-0.9-0.2c-0.2,0-0.4-0.1-0.5-0.1c-0.2,0-0.3-0.1-0.4-0.2s-0.2-0.1-0.3-0.2
		c-0.1-0.1-0.1-0.2-0.1-0.3c0-0.2,0.1-0.4,0.3-0.6c0.2-0.2,0.5-0.2,0.9-0.2s0.7,0.1,0.9,0.2c0.3,0.2,0.5,0.4,0.6,0.6L24.8,6
		c-0.2-0.4-0.5-0.8-0.9-1S23,4.7,22.5,4.7c-0.4,0-0.7,0-1,0.1S21,5,20.8,5.2c-0.2,0.2-0.4,0.4-0.5,0.6s-0.2,0.5-0.2,0.7
		c0,0.3,0.1,0.6,0.2,0.8c0.1,0.2,0.3,0.4,0.5,0.5s0.5,0.2,0.7,0.3c0.3,0.1,0.5,0.1,0.8,0.2c0.2,0,0.3,0.1,0.5,0.1s0.3,0.1,0.4,0.2
		c0.1,0.1,0.2,0.1,0.3,0.2c0.1,0.1,0.1,0.2,0.1,0.4c0,0.3-0.1,0.5-0.4,0.6C23,10,22.6,10,22.3,10c-0.2,0-0.3,0-0.5,0
		s-0.3-0.1-0.4-0.2c-0.1-0.1-0.3-0.2-0.4-0.3c0.1-0.2,0-0.3-0.1-0.5l-0.8,0.5c0.2,0.5,0.5,0.8,1,1.1c0.4,0.2,0.9,0.3,1.4,0.3
		c0.3,0,0.6,0,0.9-0.1C23.6,10.7,23.9,10.6,24.1,10.4"/>
	<path class="st0" d="M28.1,9.9c-0.3,0-0.4-0.1-0.5-0.2c-0.1-0.1-0.1-0.3-0.1-0.5V5.7H29V4.9h-1.6V3.2h-1v1.7h-1.2v0.9h1.2v3.4
		c0,0.6,0.1,1.1,0.4,1.3c0.3,0.3,0.7,0.4,1.2,0.4c0.2,0,0.4,0,0.5,0c0.2,0,0.3-0.1,0.5-0.1v-1c-0.2,0-0.3,0-0.5,0
		C28.5,9.9,28.3,9.9,28.1,9.9"/>
	<path class="st0" d="M34.5,5.4c-0.2-0.2-0.4-0.4-0.7-0.5s-0.6-0.2-1.1-0.2c-0.4,0-0.7,0.1-1,0.2c-0.3,0.2-0.6,0.4-0.8,0.7V2.5h-1
		v8.3h1V8c0-0.3,0-0.6,0.1-0.9c0-0.3,0.1-0.6,0.3-0.8c0.2-0.2,0.4-0.4,0.6-0.5s0.5-0.2,0.8-0.2c0.5,0,0.8,0.1,1,0.4
		C33.9,6.4,34,6.7,34,7.3v3.5h1V7.3c0-0.4,0-0.7-0.1-1C34.8,5.9,34.7,5.7,34.5,5.4"/>
	<path class="st0" d="M39.9,8.4c0,0.2,0,0.4-0.1,0.6c-0.1,0.2-0.2,0.3-0.4,0.5s-0.3,0.3-0.6,0.4C38.6,10,38.4,10,38.1,10
		c-0.4,0-0.7-0.1-0.9-0.2C37.1,9.6,37,9.4,37,9.1c0-0.2,0.1-0.4,0.2-0.6c0.1-0.2,0.4-0.3,0.7-0.3l2-0.2V8.4z M38.5,4.7
		c-0.7,0-1.3,0.1-1.6,0.4c-0.4,0.3-0.6,0.6-0.7,1.1l0.9,0.5c0.1-0.4,0.2-0.6,0.5-0.8c0.3-0.2,0.6-0.3,1-0.3s0.7,0.1,0.9,0.2
		c0.2,0.2,0.3,0.4,0.3,0.6v0.1c0,0.1,0,0.2-0.1,0.3c-0.1,0.1-0.2,0.1-0.3,0.1l-1.7,0.2c-0.2,0-0.5,0.1-0.7,0.2s-0.4,0.2-0.6,0.4
		C36.2,7.9,36.1,8,36,8.3c0,0.3,0,0.5,0,0.8s0,0.5,0.1,0.7s0.2,0.4,0.4,0.6c0.2,0.2,0.4,0.3,0.6,0.4c0.3,0.1,0.6,0.1,0.9,0.1
		c0.4,0,0.8-0.1,1.1-0.3s0.6-0.4,0.8-0.7v0.8h1V6.9c0-0.7-0.2-1.2-0.6-1.6C40,4.9,39.4,4.7,38.5,4.7"/>
</g>
<rect x="42.2" y="2.5" class="st0" width="1" height="8.3"/>
<polygon class="st0" points="23.1,21 28.2,21 28.2,19.9 24.1,19.9 24.1,17.3 26.8,17.3 26.8,16.3 24.1,16.3 24.1,13.7 28.2,13.7 
	28.2,12.7 23.1,12.7 "/>
<g>
	<path class="st0" d="M19.2,19.9c-1.1,0-2-0.9-2-2s0.9-2,2-2s2,0.9,2,2S20.3,19.9,19.2,19.9 M21.2,15.6c-0.5-0.5-1.2-0.8-2-0.8
		c-1.7,0-3.1,1.4-3.1,3.1c0,1.7,1.4,3.1,3.1,3.1c0.8,0,1.5-0.3,2-0.8V21h1.1v-8.3h-1.1V15.6z"/>
</g>
<path class="st0" d="M14.1,18l-2.7-0.8l0.2-0.3l0.6-0.9l1.4-1.9l0.8,4L14.1,18z M15.2,16.2l-0.7-3.5l-0.9-0.2l-5.7,7.7l-3-3.9
	l3.6-3.6H7l-4.1,4.1v-4.1h-1V21H3v-2.6l1.3-1.3l3,3.9h0.1l-2.1,2.8h1.3l4.3-5.7l4,1.2l0.9,4.5h1.1l-1.3-6.6L15.2,16.2z"/>
<g>
	<path class="st0" d="M5.1,25.4H4.3l-2.6,5.5h0.9l0.4-1h3.3l0.4,1h0.9L5.1,25.4L5.1,25.4z M6,29.2H3.4l1.3-2.8L6,29.2z"/>
	<path class="st0" d="M14,27.3c-0.1-0.2-0.3-0.3-0.5-0.4s-0.4-0.1-0.7-0.1c-0.4,0-0.7,0.1-0.9,0.2s-0.4,0.3-0.5,0.5
		c-0.1-0.2-0.3-0.4-0.4-0.5c-0.2-0.1-0.5-0.2-0.9-0.2c-0.3,0-0.5,0.1-0.7,0.2S9.1,27.2,9,27.4V27H8.2v4H9v-2c0-0.2,0-0.4,0-0.6
		s0.1-0.4,0.2-0.5c0.1-0.2,0.2-0.3,0.4-0.3c0.1-0.1,0.3-0.1,0.5-0.1c0.3,0,0.5,0.1,0.7,0.2c0.1,0.2,0.2,0.4,0.2,0.7v2.4h0.8V29
		c0-0.2,0-0.3,0-0.5s0.1-0.4,0.2-0.5c0.1-0.1,0.2-0.3,0.4-0.3c0.2-0.1,0.3-0.1,0.5-0.1c0.3,0,0.5,0.1,0.7,0.2
		c0.1,0.2,0.2,0.4,0.2,0.7v2.4h0.8v-2.3c0-0.3,0-0.5-0.1-0.7C14.2,27.7,14.1,27.5,14,27.3z"/>
	<path class="st0" d="M18.4,27.4c-0.2-0.2-0.4-0.3-0.6-0.4s-0.5-0.2-0.8-0.2s-0.6,0.1-0.8,0.2c-0.2,0.1-0.4,0.3-0.6,0.5
		c-0.2,0.2-0.3,0.4-0.4,0.7c-0.1,0.3-0.1,0.5-0.1,0.8s0,0.6,0.1,0.8c0.1,0.2,0.2,0.5,0.4,0.6c0.2,0.2,0.4,0.3,0.6,0.4S16.7,31,17,31
		c0.2,0,0.4,0,0.5-0.1c0.2,0,0.3-0.1,0.4-0.2s0.2-0.1,0.3-0.2c0.1-0.1,0.2-0.2,0.3-0.3l0,0l-0.4-0.6l0,0c-0.1,0.2-0.3,0.3-0.5,0.4
		s-0.4,0.2-0.7,0.2c-0.2,0-0.3,0-0.5-0.1c-0.1,0-0.3-0.1-0.4-0.2s-0.2-0.2-0.3-0.4c-0.1-0.1-0.1-0.3-0.1-0.5h3.1v-0.2
		c0-0.3,0-0.6-0.1-0.8C18.7,27.8,18.5,27.6,18.4,27.4z M15.8,28.5c0.1-0.3,0.2-0.5,0.4-0.7s0.5-0.3,0.8-0.3s0.6,0.1,0.7,0.3
		c0.2,0.2,0.3,0.4,0.3,0.7H15.8z"/>
	<path class="st0" d="M21.7,26.9h-0.1c0,0-0.1,0-0.2,0c-0.3,0-0.5,0.1-0.7,0.2s-0.3,0.2-0.4,0.4V27h-0.7v4h0.8v-2c0-0.2,0-0.4,0-0.6
		s0.1-0.3,0.2-0.5c0.1-0.1,0.2-0.2,0.4-0.3c0.1-0.1,0.3-0.1,0.5-0.1c0.1,0,0.1,0,0.1,0h0.1h0.1l0,0v-0.8l0,0
		C21.7,26.9,21.7,26.9,21.7,26.9z"/>
	<path class="st0" d="M23.2,27.7c0.1-0.1,0.3-0.2,0.6-0.2c0.2,0,0.4,0,0.6,0.1s0.3,0.2,0.4,0.4l0,0l0.6-0.4l0,0
		c-0.2-0.3-0.4-0.5-0.6-0.6c-0.3-0.1-0.6-0.2-0.9-0.2c-0.2,0-0.4,0-0.6,0.1s-0.3,0.2-0.5,0.3c-0.1,0.1-0.2,0.2-0.3,0.4
		c-0.1,0.1-0.1,0.3-0.1,0.5s0,0.4,0.1,0.5s0.2,0.2,0.4,0.3c0.1,0.1,0.3,0.2,0.5,0.2s0.3,0.1,0.5,0.1l0.3,0.1c0.1,0,0.2,0.1,0.3,0.1
		c0.1,0,0.1,0.1,0.2,0.1c0,0.1,0.1,0.1,0.1,0.2c0,0.2-0.1,0.3-0.2,0.4c-0.2,0.1-0.3,0.1-0.6,0.1c-0.1,0-0.2,0-0.3,0
		c-0.1,0-0.2-0.1-0.3-0.1C23.1,30.1,23,30,23,30c-0.1-0.1-0.1-0.2-0.2-0.3l0,0L22.1,30l0,0c0.1,0.3,0.4,0.6,0.7,0.7
		c0.3,0.1,0.6,0.2,0.9,0.2c0.2,0,0.4,0,0.6-0.1s0.4-0.1,0.5-0.2s0.2-0.2,0.3-0.4c0.1-0.2,0.1-0.3,0.1-0.5s0-0.3-0.1-0.5
		c-0.1-0.1-0.2-0.2-0.3-0.3c-0.1-0.1-0.3-0.2-0.5-0.2c-0.2-0.1-0.4-0.1-0.6-0.2c-0.1,0-0.2-0.1-0.4-0.1c-0.1,0-0.2-0.1-0.3-0.1
		c-0.1,0-0.1-0.1-0.2-0.1c0,0-0.1-0.1-0.1-0.2C23,27.9,23,27.8,23.2,27.7z"/>
	<path class="st0" d="M27.9,25.3c-0.1,0-0.2,0-0.3,0c-0.4,0-0.7,0.1-0.9,0.3c-0.2,0.2-0.3,0.6-0.3,1.1v0.2h-0.7v0.7h0.7v3.3h0.8
		v-3.3h1.1v-0.7h-1.1v-0.2c0-0.3,0.1-0.5,0.1-0.6c0.1-0.1,0.3-0.1,0.5-0.1c0.1,0,0.2,0,0.2,0c0.1,0,0.2,0,0.3,0l0,0v-0.7l0,0
		C28.1,25.4,28,25.3,27.9,25.3z"/>
	<path class="st0" d="M32,27.4c-0.2-0.2-0.4-0.3-0.7-0.4c-0.3-0.1-0.5-0.2-0.8-0.2s-0.6,0.1-0.8,0.2c-0.3,0.1-0.5,0.3-0.7,0.4
		c-0.2,0.2-0.3,0.4-0.4,0.7c-0.1,0.3-0.2,0.5-0.2,0.8s0.1,0.6,0.2,0.8c0.1,0.3,0.3,0.5,0.4,0.7c0.2,0.2,0.4,0.3,0.7,0.4
		c0.3,0.1,0.5,0.2,0.8,0.2s0.6-0.1,0.8-0.2c0.3-0.1,0.5-0.3,0.7-0.4c0.2-0.2,0.3-0.4,0.4-0.7c0.1-0.3,0.2-0.5,0.2-0.8
		s-0.1-0.6-0.2-0.8C32.3,27.9,32.2,27.6,32,27.4z M30.5,30.3c-0.2,0-0.4,0-0.5-0.1c-0.2-0.1-0.3-0.2-0.4-0.3
		c-0.1-0.1-0.2-0.3-0.3-0.4c-0.1-0.2-0.1-0.3-0.1-0.5s0-0.4,0.1-0.5c0.1-0.2,0.2-0.3,0.3-0.4c0.1-0.1,0.3-0.2,0.4-0.3
		c0.2-0.1,0.3-0.1,0.5-0.1s0.4,0,0.5,0.1c0.2,0.1,0.3,0.2,0.4,0.3c0.1,0.1,0.2,0.3,0.3,0.4c0.1,0.2,0.1,0.3,0.1,0.5s0,0.4-0.1,0.5
		c-0.1,0.2-0.2,0.3-0.3,0.4c-0.1,0.1-0.3,0.2-0.4,0.3C30.9,30.2,30.7,30.3,30.5,30.3z"/>
	<path class="st0" d="M36.5,27.4c-0.2-0.2-0.4-0.3-0.7-0.4s-0.5-0.2-0.8-0.2s-0.6,0.1-0.8,0.2c-0.3,0.1-0.5,0.3-0.7,0.4
		c-0.2,0.2-0.3,0.4-0.4,0.7C33,28.4,33,28.6,33,28.9s0.1,0.6,0.2,0.8c0.1,0.3,0.3,0.5,0.4,0.7c0.2,0.2,0.4,0.3,0.7,0.4
		s0.5,0.2,0.8,0.2s0.6-0.1,0.8-0.2c0.3-0.1,0.5-0.3,0.7-0.4c0.2-0.2,0.3-0.4,0.4-0.7c0.1-0.3,0.2-0.5,0.2-0.8s-0.1-0.6-0.2-0.8
		C36.8,27.9,36.7,27.6,36.5,27.4z M35,30.3c-0.2,0-0.4,0-0.5-0.1c-0.2-0.1-0.3-0.2-0.4-0.3c-0.1-0.1-0.2-0.3-0.3-0.4
		c-0.1-0.2-0.1-0.3-0.1-0.5s0-0.4,0.1-0.5c0.1-0.2,0.2-0.3,0.3-0.4s0.3-0.2,0.4-0.3c0.2-0.1,0.3-0.1,0.5-0.1s0.4,0,0.5,0.1
		c0.2,0.1,0.3,0.2,0.4,0.3c0.1,0.1,0.2,0.3,0.3,0.4c0.1,0.2,0.1,0.3,0.1,0.5s0,0.4-0.1,0.5c-0.1,0.2-0.2,0.3-0.3,0.4
		s-0.3,0.2-0.4,0.3C35.4,30.2,35.2,30.3,35,30.3z"/>
	<path class="st0" d="M39.9,26.9L39.9,26.9c-0.1,0-0.2,0-0.3,0c-0.3,0-0.5,0.1-0.7,0.2s-0.3,0.2-0.4,0.4V27h-0.7v4h0.8v-2
		c0-0.2,0-0.4,0-0.6s0.1-0.3,0.2-0.5c0.1-0.1,0.2-0.2,0.4-0.3c0.1-0.1,0.3-0.1,0.5-0.1c0.1,0,0.1,0,0.1,0h0.1H40l0,0v-0.8l0,0
		C40,26.9,40,26.9,39.9,26.9z"/>
	<path class="st0" d="M42.9,30.2c-0.1,0-0.2,0-0.3,0s-0.2,0-0.3,0c-0.2,0-0.3,0-0.3-0.1c-0.1-0.1-0.1-0.2-0.1-0.3v-2.2H43v-0.7h-1.1
		v-1.1h-0.8v1.1h-0.8v0.7h0.8v2.2c0,0.4,0.1,0.7,0.3,0.9c0.2,0.2,0.5,0.3,0.8,0.3c0.1,0,0.2,0,0.4,0c0.1,0,0.2,0,0.3-0.1l0,0
		L42.9,30.2L42.9,30.2z"/>
</g>
</svg>
