<?xml version="1.0" encoding="utf-8"?>
<!-- Generator: Adobe Illustrator 24.0.0, SVG Export Plug-In . SVG Version: 6.00 Build 0)  -->
<svg version="1.1" id="Laag_1" xmlns="http://www.w3.org/2000/svg" xmlns:xlink="http://www.w3.org/1999/xlink" x="0px" y="0px"
	 width="342.4px" height="204.6px" viewBox="0 0 342.4 204.6" style="enable-background:new 0 0 342.4 204.6;" xml:space="preserve"
	>
<style type="text/css">
	.st0{fill:#FE3B1F;}
	.st1{fill:#FFFFFF;}
</style>
<g>
	<path class="st0" d="M12.6,109.3L0,203.6h19l1.8-18.9h9.8l2,18.9h19.7l-12.7-94.3H12.6L12.6,109.3z M94.5,203.6l6.6-56.1h0.3
		l-0.3,19v37h18.6v-94.3H92.8l-5.4,50.6h-0.3l-5.5-50.6H54.9v94.3h18.5v-37l-0.1-19h0.3l6.4,56.1H94.5L94.5,203.6z M123.8,109.3
		v94.3h37.8v-18h-18v-21.7h15.8v-18h-15.8v-18.6h18v-18H123.8L123.8,109.3z M188.6,165.5c3.2,0,4.6,2,4.6,5.5v20.6
		c0,4.6,0.3,8.9,1.4,11.9h20.1c-1.2-3.2-1.4-7.6-1.4-12.6v-20.4c0-6.2-2.4-11.7-8.4-14.1c5.8-2.1,8.7-7.6,8.7-13.9v-13.3
		c0-13.3-7.2-20.1-22.1-20.1H165v94.3h20.1v-38.1H188.6L188.6,165.5z M193.4,131.8V143c0,3.3-1.4,5.1-4.1,5.1h-4.2v-21.5h4.2
		C191.9,126.6,193.4,128.6,193.4,131.8L193.4,131.8z M237.9,109.3h-20.4v94.3h20.4V109.3L237.9,109.3z M289,144.9V130
		c0-13.1-8.5-21.8-23.4-21.8c-14.7,0-24.2,8.7-24.2,21.8v52.8c0,13.1,9.5,21.8,24.2,21.8c14.8,0,23.4-8.7,23.4-21.8v-15.9h-19.7
		v15.4c0,3.3-1.1,5.4-3.8,5.4c-2.8,0-3.9-2.1-3.9-5.4v-51.7c0-3.3,1.2-5.4,3.9-5.4c2.8,0,3.8,2.1,3.8,5.4v14.3H289L289,144.9z
		 M302.6,109.3L290,203.6h19l1.8-18.9h9.8l2,18.9h19.7l-12.7-94.3H302.6L302.6,109.3z M314,152.8l1.6-17.7h0.3l1.7,17.7l1.6,15.8
		h-6.7L314,152.8L314,152.8z"/>
	<path class="st0" d="M83.5,19v-18H37.1v18h13.1v76.3h20.2V19H83.5L83.5,19z M116.5,1.1v36.6h-9.7V1.1H86.4v94.3h20.4V55.7h9.7v39.7
		h20.2V1.1H116.5L116.5,1.1z M161.2,1.1h-20.4v94.3h20.4V1.1L161.2,1.1z M191.6,74.1c0,3.3-1.2,5.4-3.8,5.4c-2.8,0-3.9-2.1-3.9-5.4
		V60.3h-19.7v14.3c0,13.3,8.5,21.8,23.4,21.8c14.8,0,24.3-8.5,24.3-21.8V62.4c0-8.3-2.8-12.9-9.1-17.1l-15.4-10.9
		c-2.1-1.6-3-3.2-3-6.4v-5.6c0-3.3,1.2-5.4,3.9-5.4c2.6,0,3.8,2.1,3.8,5.4v12.1h19.6V21.8c0-13.3-8.5-21.8-23.4-21.8
		c-14.8,0-24.2,8.5-24.2,21.8v10.1c0,8.3,2.8,12.9,9.1,17.1l15.4,11c2.1,1.6,3,3,3,6.4V74.1L191.6,74.1z M254.1,1.1h-20.4v94.3h20.4
		V1.1L254.1,1.1z M284.6,74.1c0,3.3-1.2,5.4-3.8,5.4c-2.8,0-3.9-2.1-3.9-5.4V60.3h-19.7v14.3c0,13.3,8.5,21.8,23.4,21.8
		c14.8,0,24.3-8.5,24.3-21.8V62.4c0-8.3-2.8-12.9-9.1-17.1l-15.4-10.9c-2.1-1.6-3-3.2-3-6.4v-5.6c0-3.3,1.2-5.4,3.9-5.4
		c2.6,0,3.8,2.1,3.8,5.4v12.1h19.6V21.8c0-13.3-8.5-21.8-23.4-21.8c-14.8,0-24.2,8.5-24.2,21.8v10.1c0,8.3,2.8,12.9,9.1,17.1
		l15.4,11c2.1,1.6,3,3,3,6.4V74.1L284.6,74.1z"/>
	<polygon class="st1" points="13.3,165.2 21,170.8 18.1,179.8 25.8,174.2 33.5,179.8 30.6,170.8 38.3,165.2 28.7,165.2 25.8,156.1 
		22.8,165.2 13.3,165.2 	"/>
</g>
</svg>
