<?xml version="1.0" encoding="utf-8"?>
<!-- Generator: Adobe Illustrator 24.3.0, SVG Export Plug-In . SVG Version: 6.00 Build 0)  -->
<svg version="1.1" id="Laag_1" xmlns="http://www.w3.org/2000/svg" xmlns:xlink="http://www.w3.org/1999/xlink" x="0px" y="0px"
	 width="124.4px" height="26.7px" viewBox="0 0 124.4 26.7" style="enable-background:new 0 0 124.4 26.7;" xml:space="preserve">
<style type="text/css">
	.st0{fill:#FFFFFF;}
</style>
<g>
	<path class="st0" d="M20,11.5c0,0.5-0.1,0.9-0.3,1.3c-0.2,0.4-0.4,0.8-0.7,1.1c-0.3,0.3-0.7,0.5-1.1,0.7s-0.8,0.3-1.3,0.3h-1.3v3.8
		h-2.1V8.1h3.3c0.5,0,0.9,0.1,1.3,0.3s0.8,0.4,1.1,0.7s0.5,0.7,0.7,1.1C19.9,10.6,20,11,20,11.5z M18,11.5c0-0.2,0-0.3-0.1-0.5
		s-0.2-0.3-0.3-0.4c-0.1-0.1-0.3-0.2-0.4-0.3c-0.2-0.1-0.3-0.1-0.5-0.1h-1.3v2.6h1.3c0.2,0,0.3,0,0.5-0.1s0.3-0.2,0.4-0.3
		s0.2-0.3,0.3-0.4C17.9,11.8,18,11.7,18,11.5z"/>
	<path class="st0" d="M26.5,18.6h-5.2V8.1h2.2v8.4h3V18.6z"/>
	<path class="st0" d="M33.4,18.6h-2.1l-0.4-1.8h-1.8l-0.3,1.8h-2.1L29,8.2h2L33.4,18.6z M30.5,14.7L30,12.1l-0.5,2.6
		C29.5,14.7,30.5,14.7,30.5,14.7z"/>
	<path class="st0" d="M41.3,18.6h-2.2l-2.6-6.5h-0.1v6.5h-2.1V8.1H37l2.1,5.3h0.1V8.1h2.1V18.6z"/>
	<path class="st0" d="M53.4,15.7c0,0.4-0.1,0.8-0.3,1.2s-0.4,0.7-0.7,1s-0.6,0.5-1,0.7s-0.8,0.3-1.2,0.3s-0.8-0.1-1.2-0.3
		c-0.4-0.2-0.7-0.4-1-0.7c-0.3-0.3-0.5-0.6-0.7-1S47,16.1,47,15.7v-1h2.1v1c0,0.3,0.1,0.6,0.3,0.8s0.5,0.3,0.8,0.3s0.6-0.1,0.8-0.3
		c0.2-0.2,0.3-0.5,0.3-0.8V8.1h2.1C53.4,8.1,53.4,15.7,53.4,15.7z"/>
	<path class="st0" d="M60.4,18.6h-5.2V8.1h5.2v2.1h-3v2.1h3v2.1h-3v2.1h3V18.6z"/>
	<path class="st0" d="M72.7,15.5c0,0.4-0.1,0.8-0.2,1.2c-0.2,0.4-0.4,0.7-0.7,1c-0.3,0.3-0.6,0.5-1,0.7s-0.8,0.2-1.2,0.2h-3.4V8.1
		h3.3c0.4,0,0.8,0.1,1.2,0.2c0.4,0.2,0.7,0.4,1,0.7s0.5,0.6,0.7,1s0.3,0.8,0.3,1.2c0,0.2,0,0.4-0.1,0.6c-0.1,0.2-0.2,0.4-0.3,0.6
		c-0.1,0.2-0.3,0.3-0.4,0.5c-0.2,0.1-0.3,0.3-0.5,0.3c0.4,0.2,0.8,0.5,1,0.9S72.7,15,72.7,15.5z M70.5,11.3c0-0.3-0.1-0.6-0.3-0.8
		c-0.2-0.2-0.5-0.3-0.8-0.3h-1.1v2.1h1.1c0.3,0,0.6-0.1,0.8-0.3C70.4,11.8,70.5,11.6,70.5,11.3z M70.7,15.5c0-0.3-0.1-0.6-0.3-0.8
		c-0.2-0.2-0.5-0.3-0.8-0.3h-1.3v2.1h1.3c0.3,0,0.6-0.1,0.8-0.3C70.6,16,70.7,15.8,70.7,15.5z"/>
	<path class="st0" d="M79.6,18.6h-5.2V8.1h5.2v2.1h-3v2.1h3v2.1h-3v2.1h3V18.6z"/>
	<path class="st0" d="M87.4,18.6h-6v-2.1l3.4-6.3h-3.2V8.1h5.5v2.1l-3.4,6.3h3.7V18.6z"/>
	<path class="st0" d="M95.6,15.7c0,0.4-0.1,0.8-0.3,1.2c-0.2,0.4-0.4,0.7-0.7,1c-0.3,0.3-0.6,0.5-1,0.7s-0.8,0.3-1.2,0.3
		c-0.4,0-0.8-0.1-1.2-0.3c-0.4-0.2-0.7-0.4-1-0.7c-0.3-0.3-0.5-0.6-0.7-1s-0.2-0.8-0.2-1.2V11c0-0.4,0.1-0.8,0.3-1.2
		c0.2-0.4,0.4-0.7,0.7-1c0.3-0.3,0.6-0.5,1-0.7s0.8-0.3,1.2-0.3c0.4,0,0.8,0.1,1.2,0.3c0.4,0.2,0.7,0.4,1,0.7s0.5,0.6,0.7,1
		s0.3,0.8,0.3,1.2v4.7H95.6z M93.6,11c0-0.3-0.1-0.6-0.3-0.8c-0.2-0.2-0.5-0.3-0.8-0.3s-0.6,0.1-0.8,0.3c-0.2,0.2-0.3,0.5-0.3,0.8
		v4.8c0,0.3,0.1,0.6,0.3,0.8c0.2,0.2,0.5,0.3,0.8,0.3s0.6-0.1,0.8-0.3c0.2-0.2,0.3-0.5,0.3-0.8V11z"/>
	<path class="st0" d="M102.3,18.6h-5.2V8.1h5.2v2.1h-3v2.1h3v2.1h-3v2.1h3V18.6z"/>
	<path class="st0" d="M111.1,18.6h-2.3l-2.5-4.8h-0.1v4.8h-2.1V8.1h2.1v4.3h0.1l2.1-4.3h2.3l-2.5,5L111.1,18.6z"/>
</g>
</svg>
