<?xml version="1.0" encoding="utf-8"?>
<!-- Generator: Adobe Illustrator 24.0.0, SVG Export Plug-In . SVG Version: 6.00 Build 0)  -->
<svg version="1.1" id="Laag_1" xmlns="http://www.w3.org/2000/svg" xmlns:xlink="http://www.w3.org/1999/xlink" x="0px" y="0px"
	 width="155.1px" height="35px" viewBox="0 0 155.1 35" style="enable-background:new 0 0 155.1 35;" xml:space="preserve">
<g>
	<path d="M5.2,14.8L0,0.7h3.6l3.7,10.7L11,0.7h3.5L9.3,14.8H5.2z"/>
	<path d="M21.1,14.8v-1.1c-0.6,0.8-1.5,1.3-2.9,1.3c-2.6,0-4.6-2.3-4.6-5.2c0-2.9,2-5.2,4.6-5.2c1.3,0,2.2,0.6,2.8,1.3V4.9h3.1v9.9
		H21.1z M16.9,9.9c0,1.3,0.9,2.3,2.1,2.3c1.2,0,2.1-1,2.1-2.3c0-1.3-0.9-2.3-2.1-2.3C17.8,7.6,16.9,8.6,16.9,9.9z"/>
	<path d="M35.9,8.3v6.5h-3.2V9.4c0-1.2-0.6-1.8-1.6-1.8c-0.9,0-1.6,0.6-1.6,1.9v5.3h-3.2V4.9h3v1.2c0.6-1.1,1.6-1.5,3-1.5
		C34.4,4.6,35.9,6,35.9,8.3z"/>
	<path d="M45,14.8v-1.1c-0.6,0.8-1.5,1.3-2.9,1.3c-2.6,0-4.6-2.3-4.6-5.2c0-2.9,2-5.2,4.6-5.2c1.3,0,2.2,0.6,2.8,1.3V4.9h3.1v9.9H45
		z M40.8,9.9c0,1.3,0.9,2.3,2.1,2.3c1.2,0,2.1-1,2.1-2.3c0-1.3-0.9-2.3-2.1-2.3C41.7,7.6,40.8,8.6,40.8,9.9z"/>
	<path d="M54.4,7.7v7.1h-3.2V7.7h-1.7V4.9h1.7V4.1C51.3,1.5,52.7,0,55,0c1.5,0,2.6,0.5,3.4,1.1L57,3.4C56.5,3.1,56.1,3,55.5,3
		c-0.7,0-1,0.4-1,1.3v0.7h2.8v2.8H54.4z"/>
	<path d="M73.2,4.5c0,1.5-0.7,2.6-2.1,3.2c1.5,0.6,2.3,1.7,2.3,3.2c0,2.8-2.6,4.2-5.4,4.2c-2.2,0-3.9-0.7-5-2.1l1.9-2.1
		c0.8,0.8,1.9,1.3,3,1.3c1.2,0,2.2-0.5,2.2-1.5c0-1-1.1-1.5-2.5-1.5h-1.6V6.2h1.6c1.2,0,2.2-0.5,2.2-1.5c0-0.9-0.8-1.4-2-1.4
		c-1.3,0-2.3,0.6-2.9,1.3l-1.9-2.1c1-1.2,2.6-2.1,4.9-2.1C71.1,0.4,73.2,2,73.2,4.5z"/>
	<path d="M90.5,9.9c0,3-2.3,5.2-5.4,5.2s-5.4-2.2-5.4-5.2c0-3,2.3-5.2,5.4-5.2S90.5,6.9,90.5,9.9z M82.9,9.9c0,1.3,0.9,2.3,2.1,2.3
		c1.2,0,2.2-0.9,2.2-2.3s-0.9-2.3-2.2-2.3C83.8,7.6,82.9,8.5,82.9,9.9z"/>
	<path d="M96.1,8.2l2.3-3.3h3.8l-3.7,4.7l3.7,5.2h-3.8L96,11h-0.7v3.8h-3.2V0.3h3.2v7.9H96.1z"/>
	<path d="M107.6,7.7v2.9c0,1.1,0.6,1.5,1.4,1.5c0.6,0,1.2-0.3,1.7-0.6l1.1,2.5c-0.9,0.6-1.9,1.1-3.5,1.1c-2.7,0-3.9-1.6-3.9-4.1V7.7
		h-1.9V4.9h1.9V2h3.2v2.9h3.4v2.8H107.6z"/>
	<path d="M123.1,9.9c0,3-2.3,5.2-5.4,5.2s-5.4-2.2-5.4-5.2c0-3,2.3-5.2,5.4-5.2S123.1,6.9,123.1,9.9z M115.5,9.9
		c0,1.3,0.9,2.3,2.1,2.3c1.2,0,2.2-0.9,2.2-2.3s-0.9-2.3-2.2-2.3C116.4,7.6,115.5,8.5,115.5,9.9z"/>
	<path d="M135.3,9.9c0,2.9-2,5.2-4.6,5.2c-1.3,0-2.2-0.5-2.8-1.3v1.1h-3.1V0.3h3.2v5.6c0.6-0.7,1.5-1.2,2.7-1.2
		C133.3,4.6,135.3,6.9,135.3,9.9z M127.8,9.9c0,1.3,0.9,2.3,2.1,2.3c1.3,0,2.1-1,2.1-2.3s-0.9-2.3-2.1-2.3
		C128.7,7.6,127.8,8.6,127.8,9.9z"/>
	<path d="M146.6,9.9c0,0.3,0,0.8-0.1,1h-6.7c0.3,1.1,1,1.6,2.1,1.6c0.7,0,1.5-0.3,2.2-0.9l2,1.9c-1,1-2.5,1.6-4.4,1.6
		c-3.1,0-5.2-2.1-5.2-5.2c0-3.1,2.1-5.3,5.1-5.3C144.5,4.6,146.6,6.8,146.6,9.9z M139.8,8.9h3.6c-0.3-1-0.9-1.5-1.8-1.5
		C140.6,7.3,140,7.9,139.8,8.9z"/>
	<path d="M155.1,4.8l-0.3,3.2c-0.4-0.2-1-0.3-1.6-0.3c-1.1,0-1.8,0.5-1.8,1.8v5.4h-3.2V4.9h3v1.1c0.6-1,1.5-1.4,2.7-1.4
		C154.5,4.6,154.9,4.7,155.1,4.8z"/>
	<path d="M4.5,21.7c0,1.1-0.8,1.9-1.9,1.9c-1.1,0-1.9-0.8-1.9-1.9c0-1.1,0.8-1.9,1.9-1.9C3.6,19.8,4.5,20.7,4.5,21.7z M1,34.7v-9.9
		h3.2v9.9H1z"/>
	<path d="M15.9,28.2v6.5h-3.2v-5.4c0-1.2-0.6-1.8-1.6-1.8c-0.9,0-1.6,0.6-1.6,1.9v5.3H6.4v-9.9h3V26c0.6-1.1,1.6-1.5,3-1.5
		C14.4,24.5,15.9,25.9,15.9,28.2z"/>
	<path d="M26.8,27.6v2.9c0,1.1,0.6,1.5,1.4,1.5c0.6,0,1.2-0.3,1.7-0.6l1.1,2.5c-0.9,0.6-1.9,1.1-3.5,1.1c-2.7,0-3.9-1.6-3.9-4.1
		v-3.3h-1.9v-2.8h1.9v-2.9h3.2v2.9h3.4v2.8H26.8z"/>
	<path d="M38.3,24.5c2,0,3.5,1.4,3.5,3.7v6.5h-3.2v-5.4c0-1.2-0.6-1.8-1.6-1.8c-0.9,0-1.6,0.6-1.6,1.9v5.3h-3.2V20.1h3.2v5.7
		C36.1,24.9,37,24.5,38.3,24.5z"/>
	<path d="M53.5,29.8c0,0.3,0,0.8-0.1,1h-6.7c0.3,1.1,1,1.6,2.1,1.6c0.7,0,1.5-0.3,2.2-0.9l2,1.9c-1,1-2.5,1.6-4.4,1.6
		c-3.1,0-5.2-2.1-5.2-5.2c0-3.1,2.1-5.3,5.1-5.3C51.5,24.5,53.5,26.6,53.5,29.8z M46.7,28.7h3.6c-0.3-1-0.9-1.5-1.8-1.5
		C47.6,27.2,47,27.8,46.7,28.7z"/>
	<path d="M62.2,34.7v-1.1c-0.6,0.8-1.5,1.3-2.9,1.3c-2.6,0-4.6-2.3-4.6-5.2c0-2.9,2-5.2,4.6-5.2c1.3,0,2.2,0.6,2.8,1.3v-1.1h3.1v9.9
		H62.2z M57.9,29.8c0,1.3,0.9,2.3,2.1,2.3c1.2,0,2.1-1,2.1-2.3s-0.9-2.3-2.1-2.3C58.8,27.5,57.9,28.5,57.9,29.8z"/>
	<path d="M71.7,27.6v2.9c0,1.1,0.6,1.5,1.4,1.5c0.6,0,1.2-0.3,1.7-0.6l1.1,2.5C75,34.5,74,35,72.4,35c-2.7,0-3.9-1.6-3.9-4.1v-3.3
		h-1.9v-2.8h1.9v-2.9h3.2v2.9h3.4v2.8H71.7z"/>
	<path d="M86.4,29.8c0,0.3,0,0.8-0.1,1h-6.7c0.3,1.1,1,1.6,2.1,1.6c0.7,0,1.5-0.3,2.2-0.9l2,1.9c-1,1-2.5,1.6-4.4,1.6
		c-3.1,0-5.2-2.1-5.2-5.2c0-3.1,2.1-5.3,5.1-5.3C84.4,24.5,86.4,26.6,86.4,29.8z M79.7,28.7h3.6c-0.3-1-0.9-1.5-1.8-1.5
		C80.5,27.2,79.9,27.8,79.7,28.7z"/>
	<path d="M95,24.7l-0.3,3.2c-0.4-0.2-1-0.3-1.6-0.3c-1.1,0-1.8,0.5-1.8,1.8v5.4h-3.2v-9.9h3v1.1c0.6-1,1.5-1.4,2.7-1.4
		C94.4,24.5,94.8,24.6,95,24.7z"/>
	<path d="M100.5,27.1c-0.8,0-1.2,0.2-1.2,0.6c0,0.4,0.6,0.5,1.6,0.7l0.7,0.1c2.1,0.3,3.3,1.3,3.3,3c0,2.2-1.7,3.5-4.6,3.5
		c-1.7,0-3.5-0.3-4.6-1l1.1-2.5c1,0.6,2.1,0.9,3.5,0.9c1,0,1.4-0.2,1.4-0.6c0-0.4-0.4-0.5-1.6-0.7L99.6,31c-2.4-0.4-3.5-1.3-3.5-3.1
		c0-2.1,1.6-3.3,4.3-3.3c1.6,0,2.6,0.2,4.3,0.9l-0.9,2.5C102.8,27.4,101.5,27.1,100.5,27.1z"/>
</g>
</svg>
