<?xml version="1.0" encoding="utf-8"?>
<!-- Generator: Adobe Illustrator 24.3.0, SVG Export Plug-In . SVG Version: 6.00 Build 0)  -->
<svg version="1.1" id="Laag_1" xmlns="http://www.w3.org/2000/svg" xmlns:xlink="http://www.w3.org/1999/xlink" x="0px" y="0px"
	 width="572.1px" height="94.6px" viewBox="0 0 572.1 94.6" style="enable-background:new 0 0 572.1 94.6;" xml:space="preserve">
<style type="text/css">
	.st0{fill:#FFFFFF;}
</style>
<g>
	<path class="st0" d="M4,19.2h13.1v25.9l19.5-25.9h14.7L30,46.3l21.7,29.3H35.5L17.1,49.9v25.7H4V19.2z"/>
	<path class="st0" d="M53.8,47.4c0-17.4,12.5-29.5,29.5-29.5s29.2,12,29.2,29.5c0,17.4-12.5,29.5-29.4,29.5
		C66,76.8,53.8,65.1,53.8,47.4z M99.1,47.4c0-11.3-7.2-17.9-16-17.9c-8.7,0-15.9,6.7-15.9,17.8c0,11.2,7.1,17.9,16,17.9
		C91.8,65.2,99.1,58.4,99.1,47.4z"/>
	<path class="st0" d="M118,47.4c0-17.4,12.5-29.5,29.5-29.5c17,0,29.2,12,29.2,29.5c0,17.4-12.5,29.5-29.4,29.5
		C130.3,76.8,118,65.1,118,47.4z M163.4,47.4c0-11.3-7.2-17.9-16-17.9s-15.9,6.7-15.9,17.8c0,11.2,7.1,17.9,16,17.9
		C156.1,65.2,163.4,58.4,163.4,47.4z"/>
	<path class="st0" d="M185,19.2h21.6c11.1,0,21.3,6.5,21.3,19.7c0,12.8-10.5,19.8-21.3,19.8h-8.5v16.9H185V19.2z M198.1,29.6v18.6
		h5.1c7.6,0,11.6-3.4,11.6-9.1c0-6.3-3.9-9.5-11.6-9.5H198.1z"/>
	<path class="st0" d="M265.1,30.2h-17.5v-11h48.1v11h-17.6v45.4h-13.1V30.2z"/>
	<path class="st0" d="M302.3,19.2h13v56.4h-13V19.2z"/>
	<path class="st0" d="M372.9,68.8c-5,5.3-11.7,8-20.1,8c-16.9,0-29.2-12-29.2-29.5c0-17.1,12.5-29.6,29.8-29.6
		c8.3,0,14.5,2.3,19.7,7.5l-7.6,9.4c-3-3.3-7.6-4.9-12.1-4.9c-8.5,0-16.2,5.3-16.2,17.7C337,59,344.9,65,353.3,65
		c4.6,0,9.2-1.7,12.4-5.1L372.9,68.8z"/>
	<path class="st0" d="M379.3,19.2h13.1v25.9l19.5-25.9h14.7l-21.3,27.1L427,75.6h-16.3l-18.4-25.7v25.7h-13.1V19.2z"/>
	<path class="st0" d="M431.8,19.2h37.7V30h-24.6v12.2h20.9v10.4h-20.9v12.1h24.6v10.8h-37.7V19.2z"/>
	<path class="st0" d="M491.4,30.2h-17.5v-11H522v11h-17.6v45.4h-13.1V30.2z"/>
	<path class="st0" d="M526,71.9l1.8-11.3c5.1,3,11.4,5.2,17.3,5.2c6.2,0,10-2.3,10-5.9c0-9.6-28.7-3.7-28.7-23.8
		c0-10.6,8.7-18.3,21.8-18.3c7,0,15.2,2.2,18.5,4.7l-2.2,11c-4-2.2-9.6-4.6-15.6-4.6c-6.7,0-9.4,2.9-9.4,5.9
		c0,9.7,28.6,5.1,28.6,24.2c0,11.1-10.4,17.7-22.8,17.7C538,76.8,531.3,74.8,526,71.9z"/>
</g>
</svg>
