<?xml version="1.0" encoding="utf-8"?>
<!-- Generator: Adobe Illustrator 24.3.0, SVG Export Plug-In . SVG Version: 6.00 Build 0)  -->
<svg version="1.1" id="Laag_1" xmlns="http://www.w3.org/2000/svg" xmlns:xlink="http://www.w3.org/1999/xlink" x="0px" y="0px"
	 width="255.6px" height="99.8px" viewBox="0 0 255.6 99.8" style="enable-background:new 0 0 255.6 99.8;" xml:space="preserve">
<style type="text/css">
	.st0{fill:#FFFFFF;}
</style>
<g>
	<path class="st0" d="M8.6,0c4.6,0,8.6,3.1,8.6,8.2c0,4.9-3.8,8.2-8.6,8.2C4.3,16.5,0,13.3,0,8.2C0,3.2,4,0,8.6,0z M1.3,23h14.6
		v49.3H1.3V23z"/>
	<path class="st0" d="M25.6,23h14.6v8.1c4.5-6.1,10.5-9.5,17.8-9.5c11.5,0,18.8,5.9,18.8,22.2v28.5H62.1V44.6c0-7.4-2.3-10.7-8-10.7
		c-5.7,0-10.4,3.9-13.9,12.2v26.3H25.6V23z"/>
</g>
</svg>
