<?xml version="1.0" encoding="utf-8"?>
<!-- Generator: Adobe Illustrator 24.3.0, SVG Export Plug-In . SVG Version: 6.00 Build 0)  -->
<svg version="1.1" id="Laag_1" xmlns="http://www.w3.org/2000/svg" xmlns:xlink="http://www.w3.org/1999/xlink" x="0px" y="0px"
	 width="138.3px" height="36.2px" viewBox="0 0 138.3 36.2" style="enable-background:new 0 0 138.3 36.2;" xml:space="preserve">
<style type="text/css">
	.st0{fill:#FFFFFF;}
</style>
<g>
	<path class="st0" d="M0,11.4c0-0.2,0.1-0.3,0.2-0.4l4.3-4.6c1-1.1,1.2-1.8,1.2-2.8c0-1.4-0.8-2.2-2.1-2.2s-2.2,1-2.2,2.2
		c0,0.2-0.1,0.3-0.2,0.3h-1C0.1,3.8,0,3.7,0,3.5C0,1.5,1.5,0,3.6,0c2.3,0,3.6,1.6,3.6,3.5c0,1.6-0.6,2.6-1.6,3.7l-3.5,3.7h5.2
		c0.1,0,0.2,0.1,0.2,0.2v1c0,0.1-0.1,0.2-0.2,0.2H0.2c-0.1,0-0.2-0.1-0.2-0.2V11.4z"/>
	<path class="st0" d="M12.7,0c1.9,0,3.1,1.2,3.4,3c0,0.2-0.1,0.2-0.2,0.2h-1c-0.1,0-0.2-0.1-0.2-0.2c-0.3-1.1-1-1.7-2-1.7
		c-1.4,0-2.4,1.4-2.4,4.3c0.7-0.8,1.6-1.2,2.5-1.2c2.2,0,3.6,1.4,3.6,4c0,2.4-1.6,4-3.7,4c-2.2,0-4-1.5-4-5.7C8.7,2.2,10.4,0,12.7,0
		z M12.7,11.1c1.5,0,2.3-1.1,2.3-2.6c0-1.5-0.8-2.6-2.3-2.6s-2.3,1.1-2.3,2.6C10.4,10,11.3,11.1,12.7,11.1z"/>
	<path class="st0" d="M29.4,0c2.4,0,3.8,1.5,3.8,3.4c0,0.1-0.1,0.2-0.2,0.2h-1.1c-0.1,0-0.2-0.1-0.2-0.2c0-1.1-1-2-2.4-2
		c-1.4,0-2.2,0.7-2.2,1.8c0,1.3,1.3,1.7,2.9,2.2c2.1,0.6,3.5,1.4,3.5,3.3c0,2.4-1.8,3.8-4,3.8c-2.4,0-4.1-1.5-4.1-3.8
		c0-0.1,0.1-0.2,0.2-0.2h1.1c0.1,0,0.2,0.1,0.2,0.2c0,1.3,1,2.4,2.6,2.4c1.5,0,2.5-0.8,2.5-2.3c0-1.2-1.1-1.6-2.7-2.1
		c-2.1-0.6-3.7-1.5-3.7-3.4C25.7,1.2,27.4,0,29.4,0z"/>
	<path class="st0" d="M36.7,10.9h5.5c0.1,0,0.2,0.1,0.2,0.2v1c0,0.1-0.1,0.2-0.2,0.2h-6.8c-0.1,0-0.2-0.1-0.2-0.2V0.3
		c0-0.1,0.1-0.2,0.2-0.2H42c0.1,0,0.2,0.1,0.2,0.2v1c0,0.1-0.1,0.2-0.2,0.2h-5.4v3.7h4.8c0.1,0,0.2,0.1,0.2,0.2v1
		c0,0.1-0.1,0.2-0.2,0.2h-4.8V10.9z"/>
	<path class="st0" d="M44.1,0.3c0-0.1,0.1-0.2,0.2-0.2h3.4c2.4,0,3.8,1.3,3.8,3.4c0,2-1.4,3.4-3.8,3.4h-2.1v5.2
		c0,0.1-0.1,0.2-0.2,0.2h-1.1c-0.1,0-0.2-0.1-0.2-0.2V0.3z M45.6,5.5h2.4c1.3,0,2.1-0.7,2.1-2s-0.7-2-2.1-2h-2.4V5.5z"/>
	<path class="st0" d="M52.4,0.3c0-0.1,0.1-0.2,0.2-0.2h7.9c0.1,0,0.2,0.1,0.2,0.2v1c0,0.1-0.1,0.2-0.2,0.2h-3.2v10.6
		c0,0.1-0.1,0.2-0.2,0.2H56c-0.1,0-0.2-0.1-0.2-0.2V1.6h-3.2c-0.1,0-0.2-0.1-0.2-0.2V0.3z"/>
	<path class="st0" d="M70.1,11.4c0-0.2,0.1-0.3,0.2-0.4l4.3-4.6c1-1.1,1.2-1.8,1.2-2.8c0-1.4-0.8-2.2-2.1-2.2s-2.2,1-2.2,2.2
		c0,0.2-0.1,0.3-0.2,0.3h-1c-0.1,0-0.2-0.1-0.2-0.3c0-2,1.5-3.5,3.6-3.5c2.3,0,3.6,1.6,3.6,3.5c0,1.6-0.6,2.6-1.6,3.7l-3.5,3.7h5.2
		c0.1,0,0.2,0.1,0.2,0.2v1c0,0.1-0.1,0.2-0.2,0.2h-7.1c-0.1,0-0.2-0.1-0.2-0.2V11.4z"/>
	<path class="st0" d="M82.7,0c2.5,0,4,2.2,4,6.2s-1.5,6.2-4,6.2s-4-2.2-4-6.2S80.2,0,82.7,0z M80.9,10.3l2.4-8.8
		c-0.2-0.1-0.4-0.1-0.7-0.1c-1.6,0-2.6,1.4-2.6,4.9C80.1,8.2,80.4,9.5,80.9,10.3z M84.4,2.2L82,11c0.2,0.1,0.4,0.1,0.7,0.1
		c1.6,0,2.6-1.4,2.6-4.9C85.3,4.3,85,3,84.4,2.2z"/>
	<path class="st0" d="M88.1,11.4c0-0.2,0.1-0.3,0.2-0.4l4.3-4.6c1-1.1,1.2-1.8,1.2-2.8c0-1.4-0.8-2.2-2.1-2.2s-2.2,1-2.2,2.2
		c0,0.2-0.1,0.3-0.2,0.3h-1c-0.1,0-0.2-0.1-0.2-0.3c0-2,1.5-3.5,3.6-3.5c2.3,0,3.6,1.6,3.6,3.5c0,1.6-0.6,2.6-1.6,3.7l-3.5,3.7h5.2
		c0.1,0,0.2,0.1,0.2,0.2v1c0,0.1-0.1,0.2-0.2,0.2h-7.1c-0.1,0-0.2-0.1-0.2-0.2V11.4z"/>
	<path class="st0" d="M100.7,0c2.5,0,4,2.2,4,6.2s-1.5,6.2-4,6.2s-4-2.2-4-6.2S98.2,0,100.7,0z M98.9,10.3l2.4-8.8
		c-0.2-0.1-0.4-0.1-0.7-0.1c-1.6,0-2.6,1.4-2.6,4.9C98.1,8.2,98.4,9.5,98.9,10.3z M102.4,2.2L100,11c0.2,0.1,0.4,0.1,0.7,0.1
		c1.6,0,2.6-1.4,2.6-4.9C103.2,4.3,102.9,3,102.4,2.2z"/>
	<path class="st0" d="M113.7,0.3c0-0.1,0.1-0.2,0.2-0.2h7.9c0.1,0,0.2,0.1,0.2,0.2v1c0,0.1-0.1,0.2-0.2,0.2h-3.2v10.6
		c0,0.1-0.1,0.2-0.2,0.2h-1.1c-0.1,0-0.2-0.1-0.2-0.2V1.6h-3.2c-0.1,0-0.2-0.1-0.2-0.2V0.3z"/>
	<path class="st0" d="M127.5,0.3c0.1-0.1,0.1-0.2,0.2-0.2h1.2c0.1,0,0.1,0,0.1,0.1c0,0,0,0.1,0,0.1L123,12.1
		c-0.1,0.1-0.1,0.2-0.2,0.2h-1.2c-0.1,0-0.1,0-0.1-0.1c0,0,0-0.1,0-0.1L127.5,0.3z"/>
	<path class="st0" d="M138.3,12.1c0,0.1-0.1,0.2-0.2,0.2H137c-0.1,0-0.2-0.1-0.2-0.2V2.4L135.1,7c0,0.1-0.1,0.1-0.2,0.1h-0.9
		c-0.1,0-0.2,0-0.2-0.1L132,2.4v9.7c0,0.1-0.1,0.2-0.2,0.2h-1.1c-0.1,0-0.2-0.1-0.2-0.2V0.3c0-0.1,0.1-0.2,0.2-0.2h1.6
		c0.1,0,0.2,0,0.3,0.1l1.8,4.9l1.8-4.9c0-0.1,0.2-0.1,0.3-0.1h1.6c0.1,0,0.2,0.1,0.2,0.2V12.1z"/>
</g>
<g>
	<path class="st0" d="M0,35.1c0-0.2,0.1-0.3,0.2-0.4l4.3-4.6c1-1.1,1.2-1.8,1.2-2.8c0-1.4-0.8-2.2-2.1-2.2s-2.2,1-2.2,2.2
		c0,0.2-0.1,0.3-0.2,0.3h-1c-0.1,0-0.2-0.1-0.2-0.3c0-2,1.5-3.5,3.6-3.5c2.3,0,3.6,1.6,3.6,3.5c0,1.6-0.6,2.6-1.6,3.7l-3.5,3.7h5.2
		c0.1,0,0.2,0.1,0.2,0.2v1C7.4,36,7.4,36,7.3,36H0.2C0.1,36,0,36,0,35.8V35.1z"/>
	<path class="st0" d="M12.4,23.7c1.8,0,3.3,1.2,3.3,3.2c0,1.3-0.6,2.1-1.4,2.6c1,0.5,1.8,1.4,1.8,3c0,2.1-1.5,3.6-3.7,3.6
		s-3.7-1.5-3.7-3.6c0-1.6,0.7-2.5,1.8-3c-0.9-0.6-1.4-1.4-1.4-2.6C9.1,24.9,10.6,23.7,12.4,23.7z M12.4,34.8c1.4,0,2.3-0.9,2.3-2.3
		s-0.9-2.3-2.3-2.3s-2.3,0.9-2.3,2.3S11,34.8,12.4,34.8z M12.4,29c1.3,0,2-0.9,2-2c0-1.2-0.8-2-2-2s-2,0.8-2,2
		C10.4,28.1,11.1,29,12.4,29z"/>
	<path class="st0" d="M27.6,35.8c0,0.1-0.1,0.2-0.2,0.2h-1.1c-0.1,0-0.2-0.1-0.2-0.2V24.1c0-0.1,0.1-0.2,0.2-0.2h6.9
		c0.1,0,0.2,0.1,0.2,0.2v1c0,0.1-0.1,0.2-0.2,0.2h-5.6v3.9h5c0.1,0,0.2,0.1,0.2,0.2v1c0,0.1-0.1,0.2-0.2,0.2h-5V35.8z"/>
	<path class="st0" d="M36.5,34.6H42c0.1,0,0.2,0.1,0.2,0.2v1c0,0.1-0.1,0.2-0.2,0.2h-6.8C35.1,36,35,36,35,35.8V24.1
		c0-0.1,0.1-0.2,0.2-0.2h6.6c0.1,0,0.2,0.1,0.2,0.2v1c0,0.1-0.1,0.2-0.2,0.2h-5.4V29h4.8c0.1,0,0.2,0.1,0.2,0.2v1
		c0,0.1-0.1,0.2-0.2,0.2h-4.8V34.6z"/>
	<path class="st0" d="M43.9,35.8V24.1c0-0.1,0.1-0.2,0.2-0.2h3.5c1.9,0,3.3,1.1,3.3,3c0,1.2-0.6,2.2-1.4,2.7c1.2,0.5,1.9,1.3,1.9,3
		c0,2-1.2,3.4-3.5,3.4H44C43.9,36,43.9,36,43.9,35.8z M45.3,29h2.3c1.1,0,1.8-0.5,1.8-1.8c0-1.1-0.8-1.8-1.8-1.8h-2.3V29z
		 M45.3,34.6h2.4c1.4,0,2.2-0.7,2.2-2.1c0-1.4-0.8-2.1-2.2-2.1h-2.4V34.6z"/>
	<path class="st0" d="M60.8,35.1c0-0.2,0.1-0.3,0.2-0.4l4.3-4.6c1-1.1,1.2-1.8,1.2-2.8c0-1.4-0.8-2.2-2.1-2.2s-2.2,1-2.2,2.2
		c0,0.2-0.1,0.3-0.2,0.3h-1c-0.1,0-0.2-0.1-0.2-0.3c0-2,1.5-3.5,3.6-3.5c2.3,0,3.6,1.6,3.6,3.5c0,1.6-0.6,2.6-1.6,3.7l-3.5,3.7H68
		c0.1,0,0.2,0.1,0.2,0.2v1c0,0.1-0.1,0.2-0.2,0.2h-7.1c-0.1,0-0.2-0.1-0.2-0.2V35.1z"/>
	<path class="st0" d="M73.3,23.7c2.5,0,4,2.2,4,6.2s-1.5,6.2-4,6.2s-4-2.2-4-6.2S70.8,23.7,73.3,23.7z M71.6,34l2.4-8.8
		c-0.2-0.1-0.4-0.1-0.7-0.1c-1.6,0-2.6,1.4-2.6,4.9C70.8,31.9,71,33.2,71.6,34z M75.1,25.9l-2.4,8.8c0.2,0.1,0.4,0.1,0.7,0.1
		c1.6,0,2.6-1.4,2.6-4.9C75.9,28,75.6,26.7,75.1,25.9z"/>
	<path class="st0" d="M78.7,35.1c0-0.2,0.1-0.3,0.2-0.4l4.3-4.6c1-1.1,1.2-1.8,1.2-2.8c0-1.4-0.8-2.2-2.1-2.2s-2.2,1-2.2,2.2
		c0,0.2-0.1,0.3-0.2,0.3h-1c-0.1,0-0.2-0.1-0.2-0.3c0-2,1.5-3.5,3.6-3.5c2.3,0,3.6,1.6,3.6,3.5c0,1.6-0.6,2.6-1.6,3.7l-3.5,3.7h5.2
		c0.1,0,0.2,0.1,0.2,0.2v1c0,0.1-0.1,0.2-0.2,0.2h-7.1c-0.1,0-0.2-0.1-0.2-0.2V35.1z"/>
	<path class="st0" d="M88,34.8c0-0.1,0.1-0.2,0.2-0.2h2.5v-8.8L88.4,27c-0.1,0-0.1,0.1-0.2,0.1c-0.1,0-0.1-0.1-0.1-0.2v-1.2
		c0-0.1,0.1-0.2,0.2-0.3L91,24c0.1-0.1,0.2-0.1,0.3-0.1h0.6c0.1,0,0.2,0.1,0.2,0.2v10.6h2.5c0.1,0,0.2,0.1,0.2,0.2v1
		c0,0.1-0.1,0.2-0.2,0.2h-6.4C88,36,88,36,88,35.8V34.8z"/>
</g>
</svg>
