<?xml version="1.0" encoding="utf-8"?>
<!-- Generator: Adobe Illustrator 23.0.2, SVG Export Plug-In . SVG Version: 6.00 Build 0)  -->
<svg version="1.1" id="Laag_1" xmlns="http://www.w3.org/2000/svg" xmlns:xlink="http://www.w3.org/1999/xlink" x="0px" y="0px"
	 width="422.2px" height="28.9px" viewBox="0 0 422.2 28.9" style="enable-background:new 0 0 422.2 28.9;" xml:space="preserve">
<style type="text/css">
	.st0{fill:#FFFFFF;}
</style>
<g>
	<path class="st0" d="M7.5,7.7L3.4,9.2V5.9l4.8-2h3.2v19.4H7.5V7.7z"/>
	<path class="st0" d="M15.2,16.9v-6.6c0-4,2.9-6.8,7.3-6.8s7.3,2.8,7.3,6.8v6.6c0,4-2.9,6.8-7.3,6.8S15.2,20.8,15.2,16.9z M26,10.2
		c0-2.4-1.3-3.6-3.5-3.6S19,7.8,19,10.2v6.8c0,2.4,1.3,3.6,3.5,3.6s3.5-1.2,3.5-3.6V10.2z"/>
	<path class="st0" d="M34.9,19.1c1.3,0,2.2,0.9,2.2,2.2s-0.9,2.2-2.2,2.2s-2.2-0.9-2.2-2.2S33.6,19.1,34.9,19.1z"/>
	<path class="st0" d="M64.8,23.2h-3.7V11.3l-3.6,7.2H54l-3.6-7.2v11.9h-3.7V3.8h3.6l5.5,11.1l5.5-11.1h3.6V23.2z"/>
	<path class="st0" d="M68.2,19.1c0-3.1,2.4-4.6,5.8-4.6c1.7,0,3,0.7,3.7,1.2v-2c0-1.3-0.9-2.3-2.5-2.3c-1.3,0-2.1,0.6-2.5,1.4h-3.5
		c0.8-2.8,3.1-4.3,6.2-4.3c3.6,0,6.1,2.2,6.1,5.5v9.2h-3.6v-1.3c-0.7,1-2.5,1.7-4.2,1.7C70.4,23.6,68.2,21.9,68.2,19.1z M77.7,18.9
		c0-1.3-1.2-2-2.9-2c-1.8,0-2.9,0.7-2.9,2.1c0,1.3,1.2,2.1,2.8,2.1C76.3,21.1,77.7,20.2,77.7,18.9z"/>
	<path class="st0" d="M87,2.9c1.3,0,2.2,0.9,2.2,2.2c0,1.2-0.9,2.2-2.2,2.2s-2.2-0.9-2.2-2.2C84.8,3.8,85.7,2.9,87,2.9z M85.1,8.8
		h3.8v14.4h-3.8V8.8z"/>
	<path class="st0" d="M98.3,20.3l7.9-7.8c1.1-1.1,1.8-2,1.8-3.4c0-1.6-1.2-2.6-2.8-2.6c-1.9,0-2.9,1.1-2.9,3v0.4h-3.6V9.4
		c0-3.8,2.5-5.9,6.5-5.9c4,0,6.7,2.2,6.7,5.7c0,2.8-2,4.7-3.8,6.3l-5,4.6h8.7v3.1H98.3V20.3z"/>
	<path class="st0" d="M115.1,16.9v-6.6c0-4,2.9-6.8,7.3-6.8s7.3,2.8,7.3,6.8v6.6c0,4-2.9,6.8-7.3,6.8S115.1,20.8,115.1,16.9z
		 M125.9,10.2c0-2.4-1.3-3.6-3.5-3.6s-3.5,1.2-3.5,3.6v6.8c0,2.4,1.3,3.6,3.5,3.6s3.5-1.2,3.5-3.6V10.2z"/>
	<path class="st0" d="M136.1,7.7L132,9.2V5.9l4.8-2h3.2v19.4h-3.8V7.7z"/>
	<path class="st0" d="M147,23.2l5-7.3c-0.5,0.5-1.6,0.8-2.5,0.8c-3.3,0-6.1-2.5-6.1-6.5c0-3.9,2.9-6.8,7.2-6.8
		c4.4,0,7.3,2.7,7.3,6.7c0,2.1-0.7,4-1.6,5.4l-5.2,7.7H147z M150.6,6.5c-2.1,0-3.5,1.5-3.5,3.7c0,2.1,1.3,3.6,3.5,3.6
		c2.2,0,3.5-1.7,3.5-3.7C154.1,8.1,152.9,6.5,150.6,6.5z"/>
	<path class="st0" d="M170.8,21.5v1.7h-3.6V3h3.8v7.4c0.8-1.1,2.2-1.9,4.1-1.9c3.9,0,6,2.9,6,6.3v2.4c0,3.4-2.2,6.3-6.1,6.3
		C173,23.6,171.5,22.7,170.8,21.5z M177.4,17.1V15c0-2-1.1-3.5-3.2-3.5c-1.7,0-3.2,1.2-3.2,3.4v2.1c0,2,1.3,3.5,3.2,3.5
		C176.3,20.5,177.4,19,177.4,17.1z"/>
	<path class="st0" d="M186.2,2.9c1.3,0,2.2,0.9,2.2,2.2c0,1.2-0.9,2.2-2.2,2.2c-1.3,0-2.2-0.9-2.2-2.2C184,3.8,184.9,2.9,186.2,2.9z
		 M184.3,8.8h3.8v14.4h-3.8V8.8z"/>
	<path class="st0" d="M191.2,19v-0.2h3.3v0.2c0,1.2,1.1,2,2.9,2c1.6,0,2.7-0.6,2.7-1.7c0-0.7-0.4-1.1-1.2-1.3l-4.3-1
		c-2.2-0.5-3.3-1.6-3.3-3.8c0-3,2.4-4.6,5.8-4.6c3.5,0,5.7,1.7,5.7,4.6v0.2h-3.3v-0.2c0-1.1-0.7-1.9-2.4-1.9c-1.5,0-2.4,0.6-2.4,1.6
		c0,0.7,0.4,1.1,1.1,1.2l4.4,1.1c2.1,0.5,3.2,1.7,3.2,3.7c0,2.8-2.7,4.8-6.2,4.8C193.8,23.6,191.2,22,191.2,19z"/>
	<path class="st0" d="M215.6,7.7l-4.1,1.5V5.9l4.8-2h3.2v19.4h-3.8V7.7z"/>
	<path class="st0" d="M226.5,23.2l5-7.3c-0.5,0.5-1.6,0.8-2.5,0.8c-3.3,0-6.1-2.5-6.1-6.5c0-3.9,2.9-6.8,7.2-6.8
		c4.4,0,7.3,2.7,7.3,6.7c0,2.1-0.7,4-1.6,5.4l-5.2,7.7H226.5z M230.1,6.5c-2.1,0-3.5,1.5-3.5,3.7c0,2.1,1.3,3.6,3.5,3.6
		s3.5-1.7,3.5-3.7C233.6,8.1,232.4,6.5,230.1,6.5z"/>
	<path class="st0" d="M242.3,19.1c1.3,0,2.2,0.9,2.2,2.2s-0.9,2.2-2.2,2.2c-1.3,0-2.2-0.9-2.2-2.2S241,19.1,242.3,19.1z"/>
	<path class="st0" d="M252.9,17.6v-0.3h3.7v0.2c0,1.8,1.1,2.9,3.2,2.9c2.1,0,3.1-1.2,3.1-2.9V3.8h3.9v13.7c0,3.6-2.8,6.1-7,6.1
		C255.5,23.6,252.9,21.3,252.9,17.6z"/>
	<path class="st0" d="M270,19.1c0-3.1,2.4-4.6,5.8-4.6c1.7,0,3,0.7,3.7,1.2v-2c0-1.3-0.9-2.3-2.5-2.3c-1.3,0-2.1,0.6-2.5,1.4H271
		c0.8-2.8,3.1-4.3,6.2-4.3c3.6,0,6.1,2.2,6.1,5.5v9.2h-3.6v-1.3c-0.7,1-2.5,1.7-4.2,1.7C272.2,23.6,270,21.9,270,19.1z M279.5,18.9
		c0-1.3-1.2-2-2.9-2c-1.8,0-2.9,0.7-2.9,2.1c0,1.3,1.2,2.1,2.8,2.1C278.1,21.1,279.5,20.2,279.5,18.9z"/>
	<path class="st0" d="M286.8,8.8h3.6v1.7c0.7-1.3,2.2-2.1,4.2-2.1c3.1,0,5.1,2.1,5.1,5.5v9.2H296v-8.6c0-1.7-0.8-2.9-2.6-2.9
		c-1.7,0-2.8,1-2.8,2.9v8.5h-3.8V8.8z"/>
	<path class="st0" d="M316,23.2h-3.6v-1.7c-0.7,1.2-2.3,2-4.2,2c-3.2,0-5-2.2-5-5.5V8.8h3.8v8.7c0,1.8,0.9,2.9,2.5,2.9
		c1.7,0,2.7-1.1,2.7-2.9V8.8h3.8V23.2z"/>
	<path class="st0" d="M319.1,19.1c0-3.1,2.4-4.6,5.8-4.6c1.7,0,3,0.7,3.7,1.2v-2c0-1.3-0.9-2.3-2.5-2.3c-1.3,0-2.1,0.6-2.5,1.4h-3.5
		c0.8-2.8,3.1-4.3,6.2-4.3c3.6,0,6.1,2.2,6.1,5.5v9.2h-3.6v-1.3c-0.7,1-2.5,1.7-4.2,1.7C321.4,23.6,319.1,21.9,319.1,19.1z
		 M328.6,18.9c0-1.3-1.2-2-2.9-2c-1.8,0-2.9,0.7-2.9,2.1c0,1.3,1.2,2.1,2.8,2.1C327.2,21.1,328.6,20.2,328.6,18.9z"/>
	<path class="st0" d="M336,8.8h3.6v2.8c0.5-2.2,2.2-2.9,4.3-2.9h0.4v3.7h-0.8c-2.5,0-3.8,1.2-3.8,4.1v6.6H336V8.8z"/>
	<path class="st0" d="M352.6,20.3l7.9-7.8c1.1-1.1,1.8-2,1.8-3.4c0-1.6-1.2-2.6-2.8-2.6c-1.9,0-2.9,1.1-2.9,3v0.4h-3.6V9.4
		c0-3.8,2.5-5.9,6.5-5.9c4,0,6.7,2.2,6.7,5.7c0,2.8-2,4.7-3.8,6.3l-5,4.6h8.7v3.1h-13.4V20.3z"/>
	<path class="st0" d="M369.4,16.9v-6.6c0-4,2.9-6.8,7.3-6.8s7.3,2.8,7.3,6.8v6.6c0,4-2.9,6.8-7.3,6.8S369.4,20.8,369.4,16.9z
		 M380.2,10.2c0-2.4-1.3-3.6-3.5-3.6s-3.5,1.2-3.5,3.6v6.8c0,2.4,1.3,3.6,3.5,3.6s3.5-1.2,3.5-3.6V10.2z"/>
	<path class="st0" d="M387,20.3l7.9-7.8c1.1-1.1,1.8-2,1.8-3.4c0-1.6-1.2-2.6-2.8-2.6c-1.9,0-2.9,1.1-2.9,3v0.4h-3.6V9.4
		c0-3.8,2.5-5.9,6.5-5.9c4,0,6.7,2.2,6.7,5.7c0,2.8-2,4.7-3.8,6.3l-5,4.6h8.7v3.1H387V20.3z"/>
	<path class="st0" d="M403.8,16.9v-6.6c0-4,2.9-6.8,7.3-6.8c4.5,0,7.3,2.8,7.3,6.8v6.6c0,4-2.9,6.8-7.3,6.8
		C406.6,23.6,403.8,20.8,403.8,16.9z M414.6,10.2c0-2.4-1.3-3.6-3.5-3.6c-2.2,0-3.5,1.2-3.5,3.6v6.8c0,2.4,1.3,3.6,3.5,3.6
		c2.2,0,3.5-1.2,3.5-3.6V10.2z"/>
</g>
</svg>
