<svg xmlns="http://www.w3.org/2000/svg" width="1133.8" height="1133.8" fill="#fff" xmlns:v="https://vecta.io/nano"><path d="M142.2 927.3c9.9-3.1 17-9.2 19.8-19.6 1-3.6 1-7.3.6-10.9-.8-7.2-4-13-9.8-17.4-1-.8-2-1.5-3.1-2.3 1.3-1.1 2.6-2.1 3.8-3.2 5-4.7 7.9-10.5 8-17.3.3-11.3-4.9-19.6-14.8-24.8-5.5-2.9-11.4-3.9-17.6-3.9H97.9c-4.2 0-4.2-.2-4.2 4.2v.5 91.6c0 1.1 0 2.2.1 3.4 0 .7.4 1.2 1.1 1.3.6.1 1.3.1 1.9.1h34.5c3.7-.2 7.4-.6 10.9-1.7zm-33.8-83.6c0-1.1.3-1.9 1.5-1.9l23.5.2c1.4 0 2.8.5 4.2.9 5.4 1.7 9.5 6 9.5 13.4 0 6.4-3.6 11.4-9.7 13.3-2 .6-4 1.1-6.1 1.1h-20.6c-2.1 0-2.2-.2-2.3-2.1v-12.5-12.4zm0 71.2v-28.1c0-1.8.4-2.2 2.3-2.2h21.5c2.7 0 5.4.5 7.9 1.6 4.9 2.3 7.6 6 8.2 11.4 1.2 11.1-7.2 16.8-14.5 17.2-8.3.4-16.6.1-25.4.1zm69.6 83.9c-3.9-2.5-8.3-4-12.8-5.1l-12.1-3c-3.1-.8-6-2.1-8.6-4-4.5-3.4-6.4-7.9-5.6-13.4s4-9.2 9.2-11.2c3.7-1.4 7.6-1.6 11.3-.8 5.9 1.3 10.4 4.7 12.5 10.7.5 1.3-.1 3.2 1.4 3.9 1.2.5 2.8.2 4.2.3h5.3c5.2 0 5.1.6 4.4-5.4-.1-.5-.2-.9-.4-1.4-2.1-8-7.1-13.8-14.3-17.8-6.5-3.6-13.5-4.6-20.8-4.1-5.5.4-10.6 2.1-15.3 5-5.4 3.5-9.4 8.2-11.2 14.5-3 10.1-.3 22.6 9.1 30.4 3.7 3.1 8 5.3 12.5 6.9 4.7 1.6 9.5 2.8 14.3 3.9 3.1.7 6.1 1.7 8.8 3.6 3.8 2.6 5.9 6.2 6 10.9.2 7-3.6 12.6-10.3 15.1-3.8 1.4-7.8 1.8-11.8 1.3-8.7-1.1-15.7-7.5-17.4-16.1-.3-1.6-.6-3.1-.9-5.2l-12 4.6c-2.3.9-2.4 1.2-2 3.5 1.3 7.4 4.9 13.5 10.6 18.2 10.8 8.9 22.9 11.3 36.4 7.4 11.9-3.4 23.3-14.9 21.8-31.6-.7-9.2-4.7-16.2-12.3-21.1zm66.5-14c-8.5-1.6-16.1.3-22.9 5.7-.2.2-.5.5-.7.6-.6.4-1.3.3-1.5-.5-.3-1.1-.5-2.2-.8-3.2s-.8-1.7-1.9-1.7h-9.1c-1.5 0-1.8.3-1.8 2.1v3.8 76.7c0 3.8-.8 7.6.5 11.3 3.8.6 7.6.1 11.4.2.4 0 .9-.2 1.6-.4V1068v-12c.1-3.7-.6-7.5.6-11.6 2.9 2.3 5.6 4.4 8.7 5.5 11 3.9 21.1 2 30.3-4.8 12.2-9 15.7-24.9 11.3-38.3-4-12.3-12.7-19.7-25.7-22zm12.5 41.5c-2.4 7.3-7.5 11.7-15.1 12.9-7.7 1.2-14.2-1.2-19.1-7.4-3.2-4-4.5-8.7-4.6-13.8-.1-3.2.7-6.4 1.9-9.3 4.7-10.9 16.7-15.1 27.6-10 4.2 2 7.1 5.4 8.7 9.7 2.4 6 2.6 12 .6 17.9zm78.3-31c-13.6-16.9-41-13.9-51 5.7-3.4 6.7-4.6 13.9-3.8 21.4 2.5 22.2 21.7 33.1 39.4 28.8 8.5-2.1 14.9-6.9 19.6-14.2.7-1.1.6-1.7-.6-2.2l-9.8-4.7c-5.8 8.6-13 11.3-22.4 8.6-7.6-2.2-12.2-8.3-12.4-16.7 1.5-.8 3.1-.4 4.7-.4h38.8c4.1 0 3.3-.3 4.5-3.5.3-.7.3-1.6.2-2.4-.3-7.6-2.4-14.5-7.2-20.4zm-9 14.1h-18.2H295c1.2-4.5 3.4-7.6 6.6-9.7 3.7-2.5 7.9-3.4 12.3-2.9 3.2.4 6.2 1.4 8.8 3.4 2.4 1.9 4.2 4.3 5 7.4.3 1.1-.1 1.8-1.4 1.8zm96-23.5c-14.8-5.2-32.8 1.5-39.2 18.3-2.5 6.4-3 13-2.1 19.8 1.5 10.9 8.7 23.1 23.3 27 13.6 3.6 27.1-1.9 34.6-12.8.6-.9 1.5-1.6 1.2-3.1l-10.5-5c-.4.2-.6.2-.7.3-.2.2-.4.5-.6.8-4.2 7.2-10.9 9-18.5 8.1-7.8-1-13.4-6.2-15.1-13.5-.2-1.1-.2-2.2-.3-3.3 0-.6.4-.9.9-.9 1.3-.1 2.6-.1 3.8-.1H436h3.8c.9 0 1.4-.4 1.8-1.3a12.29 12.29 0 0 0 .9-4.7c0-2.9-.4-5.7-1.3-8.5-2.7-10.1-8.7-17.5-18.9-21.1zm4 23.5h-14.8-14.3c-1.3 0-1.8-.7-1.3-1.8 1.3-3.2 3.1-5.9 6-7.9 5.5-3.7 13.8-4.5 20.3-.2 2.8 1.8 4.7 4.3 5.8 7.4.5 2.1-.2 2.5-1.7 2.5zm-50.9-98.6c-1.8-.9-3.6-1.9-5.4-2.4-5.7 8.5-13.2 11.3-22.5 8.5-7.4-2.2-12-8.3-12.1-17.1h5 38.8c3 0 3.5-.5 4-3.4.2-.9.1-1.9.1-2.9 0-2.9-.5-5.7-1.3-8.5-2.8-9.2-8.2-16.1-17.2-20-14.3-6.2-33.1-.5-40.3 15.7-4.4 9.8-4.7 19.9-.6 29.8 8.3 20.4 32 25.2 47.9 14 3.9-2.8 7.1-6.3 9.5-10.8l-5.9-2.9zm-38.9-25.4c3.5-8.4 11-11.2 18.1-10.5 6.3.6 11.2 3.5 13.6 9.7.2.6.4 1.2.4 1.8 0 .5-.2.9-.8 1-.8.1-1.6.1-2.4.1H352h-14.4c-1.4.1-1.7-.6-1.1-2.1zm114.6-3.6c-1.8-8.2-6.5-14.1-14.3-17.3-3.4-1.4-7.1-2.1-10.8-2-5.6.1-10.7 1.7-14.8 5.8-.5.5-.9 1.3-2 1.2-.2-.4-.3-.8-.5-1.2-.6-1.3-.3-3-1.4-3.9-1.2-.9-2.8-.4-4.2-.4h-6.7c-.7 0-1.2.4-1.2 1.2 0 1-.1 1.9-.1 2.9v56.5 2.4c0 1.1.5 1.8 1.7 1.8h12.1v-5.3-33.1c.1-8.2 5.5-14.5 13.5-15.4 7.9-.9 14.4 2.7 15.2 11.9.1 1.6.1 3.2.1 4.8l.1 29.2c0 2.5-.7 5.1.5 7.4 2.3.8 4.7.3 7.1.4 1.6.1 3.2 0 4.8-.1.9 0 1.5-.6 1.5-1.5v-1.9-35.9c.2-2.5 0-5-.6-7.5zm60.2 129.7c0-2.5-.2-5.1-.7-7.6-2-8.9-7-15.2-15.9-18.1-2.9-1-5.9-1.6-8.9-1.5-5.8.1-11 1.7-15.2 5.9-.5.5-.9 1.3-2 1.1-.5-1.6-1-3.3-1.6-5.4h-10.8c-1.2 0-1.6.7-1.6 1.8v1.9 57c0 1 0 1.9.1 2.9.1.7.6 1.1 1.3 1.1h11c.9 0 1.4-.6 1.4-1.5v-3.8-33.1c.1-8 5.3-14.1 13.1-15.2 7.5-1 14.7 2 15.6 12 .1 1.6.1 3.2.1 4.8v31.6 3.8c0 1 .7 1.5 1.5 1.5h11c.7 0 1.2-.5 1.3-1.2.1-.8.1-1.6.1-2.4.3-12 .3-23.8.2-35.6z"/><path d="M218.8 922.9c1.7 1.7 1.2 3.5 2 4.9.3.6.7 1 1.4 1l10.1-.1c.7 0 1.1-.6 1.1-1.3V925v-57.5l-.1-2.4c-.1-.7-.5-1.1-1.2-1.2h-11c-.9 0-1.5.4-1.5 1.4v3.4 30.7l-.1 3.8c-.7 10.6-11 16.7-20.2 13.9-4.4-1.4-7-4.1-8.1-8.5-.6-2.3-.7-4.7-.7-7.1v-32.1-3.8c0-.9-.3-1.6-1.3-1.6h-11c-1 0-1.4.6-1.4 1.5v2.4 35.5c0 1.4 0 2.9.1 4.3 1.4 15.6 16.1 25.8 31.3 21.8 4.2-1.1 7.7-3.2 10.6-6.6zm39.5-107.8h11c3.5.1 7-.2 10.5-1 13.8-3.1 23.4-11.1 28-24.7 1.8-5.2 2.1-10.7 1.6-16.1-1.3-13.8-8.1-24-20.6-30.1-5.2-2.6-10.8-3.8-16.6-3.8h-15.3c-.6 0-1.3 0-1.9.1-.7 0-1.2.4-1.2 1.2v3.8 32.6 33.6c-.2 4.9-.7 4.4 4.5 4.4zm6.2-62.8c0-2.2.2-2.4 2.5-2.4 4.5 0 8.9-.2 13.3 1 8.3 2.3 14 7.3 16.7 15.6 2.4 7.2 2.3 14.4 0 21.6-2.7 8.3-8.6 13.2-16.8 15.5-4.7 1.3-9.5 1-14.3 1-.9 0-1.4-.6-1.4-1.5v-3.4-22.5-24.9zm21.6 125.6v2.9 26.8l.2 5.3c.7 5.3 2.9 9.8 7.5 12.7 5.9 3.7 14.3 4.2 21 1.3v-11.7c-2.3.3-4 .5-5.7.9-5.7 1.4-9.8-1.8-9.5-8.4.3-8.5.1-16.9.1-25.4V878c0-1 .6-1.4 1.5-1.4h10.1c2 0 2.4-.3 2.4-2.1.1-2.9 0-5.7 0-8.6 0-1.2-.7-1.7-1.8-1.7h-9.1c-3 0-3-.1-3.1-2.8v-5.7V838c0-1.1-1.5-1.8-2.4-1.2-.5.3-1 .8-1.4 1.3l-8.6 10.9c-.9 1.1-1.1 2.2-1.1 3.5v9.6c0 2-.3 2.2-2.2 2.2h-8.6c-1.2 0-1.7.6-1.7 1.8v6.2c0 4.9-.2 4.5 4.3 4.5h6.7c.8-.4 1.4.1 1.4 1.1zm82.1 150.1v-77.1c0-1.7.8-3.8-.5-5-1.3-1.1-3.4-.4-5.1-.4-2.2-.1-4.5 0-6.7 0-.9 0-1.5.5-1.5 1.4v3.8 42.1 39.3c-.1 5.5.7 10.8 1.2 16.2.1 1.5.6 2.1 2 2.1 3.4.1 6.7.1 10.1 0 1.8 0 2.1-.5 1.8-2.5-1.2-6.5-1.4-13.1-1.3-19.9zm-36.8-234.8h25.9l3.3-.1c.7 0 1.1-.5 1.3-1.1.9-2.2.4-4.4.2-6.6-1.4-10.4-9.1-18.5-19.1-19.9-10.3-1.4-20.4 3.4-24.8 13.9-3 7-3.2 14.3-.4 21.4 3.5 9 10.2 14.3 19.7 15.2 10.1 1 17.9-3.2 23.4-12.2-2.3-1.4-4.7-2.3-6.9-3.5-1-.6-1.8-.5-2.4.6-1.4 2.4-3.5 4.1-6.2 5-4.3 1.3-8.5 1.3-12.5-.9-4.4-2.5-6.5-6.3-6.5-11.3 1.8-.7 3.4-.5 5-.5zm-4-10.7c.5-1 .9-2 1.6-2.9 5-7.1 18.4-6.6 21.9 1.9.2.4.3.9.4 1.4.1.7-.2 1.3-1 1.3h-11-11c-.8 0-1.3-.8-.9-1.7zM263.7 866c0-1.8-.3-2.1-2.3-2.1h-8.1c-3.2 0-3.2.1-3.2 3.2v1.4V924v2.9c0 1.1.5 1.9 1.6 1.9h10.5c.9 0 1.4-.6 1.5-1.5.1-1 0-1.9 0-2.9v-28.2-23.9-6.3zm-7.4-14.5c2.4 0 4.8.4 7.1-.3 1.3-2.4.2-5 .6-7V838c0-.9-.3-1.6-1.3-1.6h-11.5c-.7 0-1.2.5-1.2 1.2v7.7c0 7.2-1.1 6.1 6.3 6.2zm689.4-288.3L693.6 121.4l-65-113.9h-1c.5 1.1-.4 1.8-.9 2.5l-23.2 40.8-293.1 513.8c-3.5 6.2-3.4 4 .1 10.2L611.7 1101c4.5 7.9 9.5 15.5 14.4 23.2.4.6.6 1.5 2.1 1.2 4-6.4 8.4-12.9 12.3-19.6L945.7 573c2.9-3.3 2.1-6.2 0-9.8zM818.2 372.6c1.4-.1 2.5.4 3.1 1.7.3.6.6 1.1.9 1.7l21.2 36.9c.4.7.7 1.4 1.2 2.1.6.9.5 1.7 0 2.7-2.3 4.9-4.5 9.8-7.4 14.4-.6-.2-1.1-.3-1.5-.5-6.7-3.9-13.6-7.6-20.2-11.9L770 389.6c-.5-.4-1.1-.7-1.6-1.1-1.9-1.3-1.8-1.3-1.2-3.9.9-3.4 1.7-6.8 2.5-10.2.2-1.1.8-1.7 1.9-1.8 1-.1 1.9 0 2.9 0l41.7-.1c.7.1 1.4.1 2 .1zm27.1 270.5c.1.6.2 1.3.2 1.9 0 .3-.1.6-.2 1.1-5.3-.1-10.8-.7-15.6 2-1.2-.7-1.1-1.8-1.2-2.7-1.1-11.1-4.7-21.4-9.5-31.4-5.6-11.7-12.9-22.3-21.2-32.3-1.7-2.1-3.5-4.2-5.2-6.2.1-.5.1-1 .2-1.5 4.3 1.3 8.1 3.7 11.8 6.2 22.3 15.3 35.6 36.5 40.7 62.9zm-18.8-94.6v-1.4c0-.9.5-1.5 1.4-1.6.8-.1 1.6-.1 2.4-.1h37.3c.8 0 1.6 0 2.4.1.7.1 1.1.5 1.2 1.2v1.9 30.6 1c-.1 1.8-.3 2.1-2.3 2.1H866h-17.2-18.2c-1 0-1.9 0-2.9-.1-.7-.1-1.1-.5-1.2-1.2-.1-.6-.1-1.3-.1-1.9l.1-30.6zm-37.3 43.8l-2.4-9.2h1.1c11.1 12.5 20.2 26.2 26.4 41.8 3.1 7.9 5.1 16.1 5.8 24.6.1 1 .1 1.9.1 2.9 0 1.3-.5 1.8-1.7 1.6-9.7-1.5-19.4-1.1-29 1.1-.1 0-.3-.1-.5-.1-.8-.4-.4-1.1-.2-1.6 6.1-20.5 5.4-40.8.4-61.1zm-165.1-22.7c3.5-1.3 7.2-.5 10.8-.6h25.8 33c1 0 1.9 0 2.9.1.1 0 .3.2.3.3 0 .3.1.6-.1.8s-.5.4-.8.6c-4.8 3.1-9.4 6.6-13.6 10.5-1.3 1.2-2.6 1.6-4.3 1.6h-51.7c-.5 0-1 0-1.4-.1-.7-.1-1.1-.5-1.2-1.2 0-.2-.1-.3-.1-.5.3-3.8-.2-7.7.4-11.5zm-54.5-128.1c1.2-1 3.1-.3 4.6-.4h33.6 4.8v140.4c-.9.9-1.9.6-2.8.6h-37.4-1.9c-.9 0-1.5-.4-1.5-1.4v-3.8-130.4c0-1.7-.9-3.8.6-5zm164.7-38.3c-7.5 5.2-16.1 6.2-24.8 5-18.7-2.6-31.6-12.9-38-30.8-8.6-24.5 5.9-52.9 33.6-58.9 26.4-5.7 50 12.6 54.2 36.3.5 2.9.7 5.7.8 9.4s-.8 8-2.1 12.3c-.8 2.6-1.9 5.1-3.6 7.3-1.5 1.9-2.7 3.9-4.2 5.9-3.4 4.5-7.5 8.3-12.3 11.2-1.1.8-2.4 1.5-3.6 2.3zm17.2 44.7c.3.5.5 1.1 1.2 2.4h-4.9H721c-1 0-1.9 0-2.9-.1-.7-.1-1.1-.6-1.2-1.3v-1.4l2.2-25.7c.2-2.5.3-2.4 3.2-3 3-.6 5.9-1.3 8.8-2 2.3-.6 2.7-.4 3.9 1.4.3.5.6 1.1.9 1.7l15.6 28zm-41.6-27.2l-2 18.5-.8 7.1c-.4 3.9-.4 3.9-4.3 4h-17.7H666c-2.2 0-2.5-.5-1.3-2.6l11.7-20.3 7.9-13.7c1.1-1.8 1.3-1.9 2.9-1.1 6.7 3.5 13.8 5.8 21.4 6.3.9.3 1.4.9 1.3 1.8zm3.9-196l-.5 17.7-1.3 58.5c0 1.3.2 2.6-.4 3.8l-12.7 2c-1.6.3-3.1.7-4.6 1.1-1.1.3-1.8.1-2.4-1-.5-1-1.1-1.9-1.6-2.9l-25.4-46.7c-3.5-6.6-6.6-13.5-9.8-20.2-.6-1.2-.4-1.6 1-2.2 7.6-3.4 15.4-6.1 23.5-8.1 9.5-2.4 19.1-3.6 28.8-4.2 1.1-.1 2.2-.1 3.4-.1 1.8.1 2 .3 2 2.3zm-30.4 85.1c.6 1 1.3 1.8 1.3 3.2-4.5 2.9-8.8 6.1-12.5 10.2-1.5 1.7-2.9 3.4-4.3 5.1-.6.7-1.3.9-2.1.4-.7-.4-1.3-.9-2-1.4l-62.4-43.6c-.9-.6-1.8-1.3-2.6-2 5.7-11.3 28.4-31.9 44.2-40.1 1.2.1 1.4 1.2 1.8 2l38.6 66.2zm-68.2-3.7l42.7 29.9c.9.6 1.8 1.3 2.7 1.9.7.5.9 1.2.6 2.1-1.3 3.1-2.4 6.2-3.1 9.5-.2 1.2-1.1 1.5-2.1 1.5h-3.4-56.5c-7 0-14-1.1-21-1.4-2.1-.1-2.4-.6-2.2-2.8 1.2-10.8 3.5-21.4 7.1-31.6 2.6-7.4 6-14.4 9.9-21.2.3-.5.7-1 1.4-2.1 8.3 5 16.5 9 23.9 14.2zm-41.5 57.4h2.4 78.1c.6 0 1.3.1 2.3.1.6 7.3 1.7 14.3 4.6 20.8.5 1.1 0 1.7-1.1 2.2l-25.9 12.2-44.1 20.7c-1 .5-2 1-3 1.4-1.4.6-1.8.4-2.5-1.1-.3-.7-.7-1.5-1-2.2-5.8-13.8-9.4-28.1-10.6-43l-.6-9.6c-.1-1 .4-1.5 1.4-1.5zm27.3 66.6c0-.6 0-.8.1-.9l63.7-37.3c3.5 5.2 7.3 10 12 13.9-.6 1.1-1 1.9-1.4 2.7l-22 38.1-1.2 2.1c-.6 1.1-1.4 1.6-2.7 1.6H626c-1.8 0-2.1-.4-2.1-2.4v-14.4-1.9c0-1-.5-1.5-1.4-1.5-2.6-.1-5.1 0-7.7-.1l-13.8.1zm148.4 125.2c-3.7 0-7.3.4-11 .7-4.8.4-9.5 1.3-14.1 2.5-1.6.4-3.1.7-4.7.7h-89.7c-.6 0-1.3 0-1.9-.1-.7 0-1.2-.4-1.2-1.2 0-.3-.1-.6 0-1 .2-3-.4-6 .3-9 2.9-1.2 6-.5 8.9-.5h52.7 56.6 3.8c1.7.1 2 .4 2.1 1.9v4.3c.1 1.3-.7 1.7-1.8 1.7zm.5 10.2c.2 1.8-1.2 1.6-1.8 1.9-9.2 4.1-18 8.9-26.3 14.6-10.7 7.2-20.2 15.6-28 25.9-2 2.7-3.8 5.5-5.9 8.4-4.3-3.8-9.3-6.1-15.2-8.3 19.2-26.9 44-42.3 77.2-42.5zm-54.7 58.8c2.5-5 5.7-9.6 9.3-13.9a105.39 105.39 0 0 1 9.3-9.6 133.92 133.92 0 0 1 35.7-22.8c.5.4.5.8.1 1.2-5.9 7.1-11.4 14.6-15.8 22.8-6.1 11.3-10.6 23.2-12.3 36-.2 1.4-.8 1.8-1.8 1.1-7.2-5.4-15.1-9.5-23.7-12.2-1.3-.4-1.5-1.1-.8-2.6zm36.5 14c1.9-11.6 6-22.4 11.7-32.7 7-12.5 16.2-23.2 26.7-33 .3-.3.8-.8 1.2-1 .3.4.7 1.1.9 1.5 6.9 17.5 11.2 35.6 10.7 54.5-.2 8.5-1.6 16.8-4.5 24.8-.4 1-.6 2.1-1.7 3-6.7-4.3-13.6-8.1-21.5-10-7.9-1.8-15.8-1.1-24 .1-.2-2.5.1-4.9.5-7.2zm29.5-82.3c-.3-3.2-.1-6.2-.1-9.2V541c0-3.5 0-3.6-3.8-3.6H742 631.7h-2.4c-6.4-.1-5.3.8-5.4-5.7v-1.9c0-.9.4-1.5 1.4-1.5h4.3 125.6c5.8 0 5.4.9 5.4-5.3v-36-3.4c0-.9-.6-1.4-1.5-1.5-.6-.1-1.3 0-1.9 0h-38.8c-14.1 0-28.1-.1-42.2-.1l-47 .1c-6.1 0-5.3.6-5.3-5.4v-12.5c0-1.1.4-1.8 1.7-1.8h3.8 179.3c6 0 5.2-.8 5.2 5.4v101.6 5.6c-16.5-11.1-34-16.6-52.7-19zm-136.4-42.1v-23c0-1.6.3-1.9 2-1.9h2.9c5.9.1 5-.8 5.1 5v23 2.4c0 1.2-.5 1.8-1.7 1.8h-8.2c-.1-2.9-.1-5.1-.1-7.3zm26.9-17.2c.2 2.9 0 5.8 0 8.6v13.4c0 2.2-.2 2.3-2.5 2.4h-5.3c-1.7 0-2.1-.3-2.1-1.8v-28.8c0-.9.3-1.6 1.3-1.6 2.7 0 5.4-.3 8.1.3 1.2 2.4.4 5 .5 7.5zm6.9 17.5v-23c0-2 .3-2.3 2.1-2.4h.5c2.4.1 4.8-.4 7.1.3 1.1 2.3.4 4.7.5 7 .1 2.9 0 5.7 0 8.6v13.4c0 2.8-.1 2.9-3 2.9-8.6.1-7.1 1.4-7.2-6.8zm27.1 2.4c0 1.1 0 2.2-.1 3.3 0 .7-.6 1.2-1.2 1.2-2.8 0-5.7.5-8.4-.3-.1-.5-.3-.8-.3-1.1v-28.6c0-1.9.2-2.2 2.2-2.1 2.5.1 5-.6 7.5.5.7 2.3.3 4.7.3 7.1v20zm16.9-19.9c.2 2.9 0 5.8 0 8.6v13.9c0 1.6-.3 1.9-2 1.9h-5.8c-1.8 0-2.1-.3-2.1-1.8v-28.8c0-1.3.7-1.7 1.8-1.6 2.5.1 5.1-.4 7.6.3 1.2 2.4.4 5 .5 7.5zm17.1 22.7c0 1.2-.6 1.7-1.7 1.8h-6.7c-1.2 0-1.7-.7-1.7-1.8v-12.9-15.3c0-1.9.3-2.1 2.2-2.2h6.2c1.2 0 1.7.6 1.7 1.8v14.3 14.3zm17.4 0c0 1.2-.6 1.7-1.7 1.7-2.2 0-4.5.1-6.7 0-1.8 0-2.1-.3-2.1-2.4V491c0-1.9.2-2.1 2.3-2.1h6.2c1.9 0 2 .2 2 2.3v14.3 13.9zm7-5.5v-23c0-1.6.4-1.9 2-2h1.4c1.9.2 4.2-.8 5.5.5 1.4 1.3.5 3.6.5 5.5.1 3.4 0 6.7 0 10.1v14.4c0 1.1-.5 1.8-1.7 1.8-9.4-.1-7.6 1.4-7.7-7.3zm75.4-63.5h-48.8-3.4c-1.1 0-1.8-.5-2.4-1.3-.4-.5-.7-1.1-1-1.6L744 414.3c-.4-.7-.8-1.4-1.2-2.2 3.8-2.6 7.4-5.1 10.6-8.2 3.1-3 6-6.1 8.9-9.7l66.9 50.2c-.2.6-.3.9-.5 1.2-3.4 4.8-3.4 4.8-9.2 4.8zM792.3 327c1-.4 1.9-.3 2.4.8.3.6.6 1.1 1 1.7l16.1 28.2c.4.7.7 1.4 1.3 2.7l-41.7 1.9c-.5-8.5-1.9-16.4-5.3-23.7.5-1.1 1.3-1.2 2-1.5l22.9-9.4c.4-.3.8-.5 1.3-.7zm-4.7-11.1c-8.9 4.4-17.9 8.6-27.1 12.9-4.1-5-8.3-9.7-13.9-13.5l22.3-31.3c2.4 2.5 15.1 24.3 18.7 31.9zm-49.9-87.6l22.3 39c.4.7.7 1.4 1.2 2.1.9 1.3 1.1 2.6.1 3.9-.5.6-.8 1.4-1.2 2.1l-18.8 31.7-1.2 2.1c-1.1 1.7-1.2 1.7-3 1.1l-8.1-2.9c-2-.6-4-1-6-1.5-1.9-.5-2.1-.7-2.1-2.5v-1.9h.1l2.4-38.7 1.3-22.9.9-14.8c.1-1.7.3-1.8 2.1-1.7.8 0 1.6.1 2.4.1 5 .2 5 .2 7.6 4.8zM339.4 594.9l-13.6-23.6c-1.3-2.2-1.4-3.8 0-6.1l25.3-44L625 42.8c1-1.8 1.8-3.7 3.5-5.5l99.4 173.6c-.8 1.2-1.6.8-2.3.7-48.9-4.1-95.9 16.9-126.4 51.1-18.5 20.7-30.6 44.7-36.3 71.8-3.1 14.9-4 30-2.5 45.3 1.5 16.2 5.4 31.7 11.8 46.7.3.7.7 1.5.9 2.2s-.1 1.3-.9 1.3c-3 .1-6.1 0-9.1.1-1.3 0-2.6 0-3.8.1-.7 0-1.2.5-1.2 1.2-.1 1-.1 1.9-.1 2.9v12.5c0 3.7-.2 3.6-3.8 3.6h-2.9-104.5c-5.9 0-5.2-.7-5.2 5v63.3c0 4.4.3 4.4-4.5 4.4h-54.7c-1.4 0-2.9 0-4.3.1-.9 0-1.5.5-1.5 1.5v3.8 31.2 4.7c-14.4 8.3-27.8 17.5-34.8 33.3-1.5-.8-1.8-1.9-2.4-2.8zm174.1-39.4c-.1-2.2 0-4.5 0-6.7 0-1.1.6-1.8 1.7-1.8h7.2l7.6.1c.9 0 1.5.5 1.5 1.5v13.8c0 1.2-.7 1.7-1.8 1.7h-8.2c-2.2-.4-5.1.7-7.8-.6-.6-2.6-.1-5.3-.2-8zm-32.9-17.6h-2.4c-.7 0-1.2.4-1.2 1.1v1.9 28.8c0 3.8-.3 3.7 3.5 3.7h38.8 35.5 2.9v8.1c0 .7-.5 1.2-1.2 1.2-1 .1-1.9.1-2.9.1h-95.9-2.9c-.9 0-1.5-.5-1.5-1.5-.1-1-.1-1.9-.1-2.9V466.7v-2.9c0-.9.5-1.5 1.4-1.6 1-.1 1.9-.1 2.9-.1h95.9c4.5 0 4.3-.3 4.3 4v67.6 1.4c-.1 2.4-.1 2.5-2.4 2.5h-7.7l-67 .3zm23.5 10.7v14.3c0 .7-.5 1.2-1.2 1.2h-7.6-7.6c-.9 0-1.5-.6-1.5-1.5v-13.8c0-1.2.7-1.7 1.8-1.7h14.3c1-.1 1.8.3 1.8 1.5zm52.6 15.5h-16.3c-.9 0-1.5-.6-1.5-1.5v-13.9c0-1.2.8-1.7 1.9-1.7h7.7 7.7c1.1 0 1.9.4 1.9 1.6V563c-.1.7-.7 1.1-1.4 1.1zm-117.1 14.3v2.4c0 1-.6 1.4-1.5 1.5-.8.1-1.6 0-2.4 0h-43.6c-.8 0-1.6 0-2.4-.1-.7-.1-1.1-.5-1.2-1.2 0-.6-.1-1.3-.1-1.9V537c0-.5.1-1 .2-2h3.2 43.6c1 0 1.9 0 2.9.1.7 0 1.2.4 1.2 1.2s.1 1.6.1 2.4v39.7zm-86.3 35.1c-.8-2.8-.9-3.9-.4-6.3.7-3.5 2-6.7 4-9.7 4.9-7.1 11.3-12.5 18.7-16.8.1-.1.3.1.7.2.3 2.2.1 4.6.1 6.9v4.3c0 2.2.1 2.3 2.5 2.3h1 1.4l281.8.2h4.3c.4 0 .9-.1 1.2.4s.1.9-.2 1.3c-.7 1-1.5 2-2.2 3.1-1.7 2.5-3.3 5.1-4.9 7.7-.5.8-.9 1.7-1.2 2.6-.8 2.8.3 5.1 3 6.2 1.6.6 3.3 1 5 1.4 2.8.7 5.5 1.8 8 3.1 1.9 1 3.5 2.1 4.9 3.7 1 1.1 1.8 2.4 1.5 3.9-.4 1.9.3 3.4 1.1 5.7l-19.9-2.2c-9.3-1.3-18.6-2.8-27.9-4.4-12.4-2.1-24.8-4.7-37.1-7.3-19.3-4.1-38.6-8.4-58.1-11.7-14.6-2.5-29.4-4.3-44.2-5.2-19.3-1.2-38.7-.6-58-.8-11.8-.1-23.7.3-35.4 1.1-16.4 1.1-32.6 3.8-48.1 9.9-.4.3-1 .7-1.6.4zm17 32.4c-2.7-3.6-5.2-7.2-7.5-11.1-1.5-2.6-3.1-5.1-5-8.1 8.2-3.5 16.1-5.7 24.3-7.2 14.3-2.7 28.9-3.4 43.4-3.6 18.4-.3 36.8-.2 55.1 0 11.5.1 23 1.1 34.4 2.4 18.7 2.2 37.2 5.7 55.7 9.5l55.8 11.5c13.3 2.6 26.7 4.6 40.2 6.3 15.6 1.9 31.2 3 46.8 3.5 1.9.1 3.4.4 4.6 1.9 1 1.2 2.3 2.3 3.2 3.6 1.9 2.6 4.3 3.1 7.2 2.3 2.2-.6 4.4-1 6.5-1.4 3.6-.7 7.3-.8 11-.7 1.5 0 1.9.5 1.6 2.1l-3 14-10.3 46.3c-.1.5-.1 1-.2 1.4-.4 1.7-1 2-2.8 1.6l-16.2-4.2c-30.1-8.4-59.7-18.2-89.1-28.9-23.4-8.5-47.3-15.3-71.4-21.5-16.8-4.3-33.8-8.1-50.9-11.2-11.5-2.1-23-3.9-34.5-5.3-18.6-2.3-37.2-3.6-55.9-3.6-9.1 0-18.2 1-27.3 1.4l-12.4.7c-1.6 0-2.5-.5-3.3-1.7zm258.3 449.7l-23.6-40.7-136.8-236.3c-.5-.8-1.1-1.6-1.4-2.5-.4-.9-1.9-1.8-.8-2.8.8-.8 2.1 0 3.1.3 4.1 1.3 7.9 3.3 11.5 5.7l8.4 5.5c9 5.7 18.8 8.4 29.5 8.6 12.9.3 24.6-3 35.2-10.3 2.5-1.7 5.1-3.4 7.6-5 7.8-5 16.4-6.7 25.6-6.5 8.9.2 16.9 2.7 24.2 7.8 2.6 1.8 5.3 3.5 8 5.2 9.1 5.8 19.1 8.5 29.9 8.8 12.7.3 24.3-3 34.8-10.1 2.6-1.8 5.3-3.5 8-5.3 8-5.1 16.8-6.7 26.1-6.4 8.7.3 16.6 2.9 23.7 7.9l7.2 4.7c7.5 4.9 15.7 7.8 24.5 8.9.8.1 1.5.2 2.7.4l-147.4 262.1zM519.2 772c-1.5 11-4.2 8.5-2.9 36-.8.2-1.1-.5-1.4-1-4.8-6.6-7.5-14-8.1-22.2-.1-1.9.3-3.3 1.7-4.7 3.1-3 6.5-5.6 10.7-8.1zm-8.2-9c.2-.2 3.7-5.6 4.7-7.2.1-.3.2-.6.4-.8s.5-.5.7-.5c.5.1.5.6.4 1s-1.4 6.2-3.4 7.1c-.4.2-2.6 2-3 1.5-.3-.3-.1-.7.2-1.1zm43.5-8.1c-1.4 0-2.3-.3-2.9-1.8-1-2.5-2.5-4.8-4.7-6.5-1.2-1-1.2-2.1-.7-3.4.3-.7.6-1.5.8-2.2.2-1.1.9-1.6 2-1.6 3.4-.1 6.7.2 9.9 1 6.3 1.5 12 4.2 17 8.2.5.4.8.9 1.2 1.4.1.1 0 .3.1.6-7.3 2.7-14.8 4.2-22.7 4.3zm24.7 5.6c.9-.3 1.8-.6 2.7-1 3.1-1.2 2.9-2 5 2 3.4 6.3 5.1 13 5.2 18.9 0 7.5-.1 6.8-5.5 6.1-13-1.7-24.4-7-34.3-15.5-.9-.7-1.8-1.5-1-2.8.7-1.3.7-3 3-3.1 8.5-.3 16.9-1.7 24.9-4.6zm7.2 36.3c.9.1 1.9-.1 2.6.8.3.4-1.3 1.3-2.7 1.3a57.52 57.52 0 0 0-17.5 2.1c-6 1.6-11.5 4.5-16.8 7.9-3.5 2.3-6.9 4.6-10.5 6.6-2.9 1.7-5.9 3.1-9.4 3.6-1.9-3.8-2.5-7.9-3.1-12a68.4 68.4 0 0 1 .9-24.7c.2-.9.5-1.8.8-2.8.2-.7.7-1.1 1.4-1 3.6.3 7-.2 10.3-1.6.6-.3 1.2-.1 1.8.3.2.2.5.4.7.6 11.9 10.6 25.8 16.7 41.5 18.9zm-52.3-29.5c-4.5-.1-8.1-3.9-8.1-8.4a8.37 8.37 0 0 1 8.6-8.4c5.1.2 8.4 4 8.3 8.7 0 4.6-4.1 8.2-8.8 8.1zm266 23.6c-.2.4-.4.9-.6 1.3l-15 26.7c-.8 1.4-1.5 2.2-3.3 1.9-3.6-.5-7.3-.6-10.9-1.2-4.9-.9-9.4-3-13.6-5.7-3.6-2.3-7.1-4.9-10.9-7-17.4-10-35.4-10.7-53.8-3.3-3.7 1.5-7.1 3.7-10.4 5.9-2.5 1.7-5.1 3.3-7.6 4.9-8.3 5.2-17.4 6.8-27.1 6.2-8-.5-15.3-3-21.9-7.5a221.51 221.51 0 0 0-8-5.3c-4.9-3.1-10-5.5-15.6-7.1-2.3-.6-2.2-.7-1.6-2.9 4.6-15.6 2.9-30.4-5.8-44.1-8.2-12.9-20-20.9-35-23.8-9.9-1.9-19.7-.7-29.2 2.6-5.5 1.9-10.1 5.5-14.5 9.2-8.9 7.6-14.7 17.1-17.2 28.6-3.5 16.1-.1 30.7 9.4 44 1.1 1.6 2.3 3 3.5 4.5l-2.4.2c-4.2-.5-7.9-2.5-11.4-4.6-3.4-2.1-6.7-4.3-10.1-6.5-5.5-3.6-11.4-6.3-17.9-7.7-3.3-.7-6.6-1.4-9.9-1.4-1.8 0-2.9-.8-3.7-2.3L437.4 765l-28.1-48.5-1.2-2.1c-1.3-2.4-1.2-2.6 1.3-3 10.5-1.4 21-2.2 31.5-1.8l27.8 1.4 23.4 1.3a465.84 465.84 0 0 1 50 5.4c33.2 5.5 65.2 14.9 96.6 26.8 14.7 5.6 29.4 11.6 44.4 16.2 23 7 45.8 14.7 69.3 20.2 11.3 2.7 22.7 5.1 34.3 6.4 4.3.5 8.5 1.3 12.8 2 .6.4.9.9.6 1.6zm24.7-41.6l-17 25.5c-1 1.6-2.1 2.1-3.9 1.8-3.6-.7-7.2-1.3-10.9-1.9-10-1.4-19.9-2.8-29.7-5-14.6-3.3-29.1-7.3-43.4-11.7-27.4-8.4-54.4-18.2-81.4-27.9-15.7-5.7-31.4-11.5-47.5-16.2-15.6-4.6-31.5-8.1-47.7-10.3-12.5-1.7-25.1-2.9-37.7-3.8l-51.2-2.9c-7.2-.3-14.4-.8-21.6-.7-9.8.1-19.5 1-29.1 2.6-.8.1-1.6.1-2.4.3-1.7.4-2.6-.3-3.4-1.8l-12.8-22.4-6.7-11.6c-.4-.7-.7-1.3-1.3-2.4 2.5-.1 4.5-.2 6.5-.4 2.1-.1 4.1-.3 6.2-.4 15-.4 30-.6 45.1.3a520.1 520.1 0 0 1 35.3 3.3 568.16 568.16 0 0 1 41.1 6.9c27.4 5.6 54.3 12.6 81 20.8 14.6 4.5 28.9 9.9 43.4 14.9 28 9.8 56.3 18.6 85.1 25.8 2.6.7 5.3 1.3 7.9 1.9 1.1.3 1.6.9 1.3 2.1-.8 3.3-1.5 6.5-2.2 9.8-.3 1.4-.6 2.8-.6 4.3 0 2.2 1.6 4 3.6 4.5 2.6.6 5-.6 5.9-2.9.5-1.3.8-2.8 1.1-4.2l2-8.9c.1-.6.2-1.3 1.1-1.9 13.6 2.6 27.6 5 41.7 6.6s28.3 3 42.5 3.6c.7 1.1.1 1.7-.3 2.3zm69.3-118l-56.7 98.8c-2.2 3.8-2.2 3.8-6.7 3.7-12.9-.2-25.8-1.4-38.7-2.8-10.2-1.1-20.3-2.3-30.3-4.1l-18.4-3.7 2.5-11.8 11.4-51.9c.1-.3.1-.6.2-.9.3-1.2.8-1.5 2-1 4.6 1.8 8.8 4.5 12.7 7.5l3 2.4c2.3 1.8 4.7 2.2 7.5.9 11.8-5.7 24.2-6.4 36.9-4.1.8.1 1.6.3 2.4.4 3.6.4 4.7-.2 6.3-3.7 1-2.3 2.7-3.4 4.9-4.1 3.8-1.2 7.6-1 11.4-.5 1.9.3 3.8.7 5.7 1 3.8.5 6.3-1.6 6.2-5.4-.1-3.3-.3-6.7-1.1-10-.2-.9-.3-1.9-.4-2.8-.2-1.6.1-2 1.6-2.3l16.3-3.5c7.2-1.6 14.2-3.5 21.2-5.7.6-.2 1.2-.3 2 0-.6 1.1-1.2 2.4-1.9 3.6zm14.1-31.1c-.9 2.7-2.6 5.1-4.3 7.4-.9 1.3-2.4 1.6-3.7 2.1-7.6 2.9-15.3 5.5-23.1 7.6s-15.8 3.9-23.6 5.8c-2.7.6-3 .5-4-1.9-3.5-9.3-8.3-17.9-14.9-26.6h5.5 37.8 3.3c1.6-.1 1.8-.2 1.8-2v-4.8-12.9c0-1.2.8-1.7 1.9-1.1 5.8 2.6 11.5 5.5 16.4 9.6 2.1 1.7 4 3.6 5.5 6 2.5 3.3 2.7 6.9 1.4 10.8zm22.3-28l-7.4 12.9c-.5.8-.7 1.7-1.7 2.2-.3-.4-.7-.7-.8-1.1-2.7-6.2-7.1-10.9-12.5-14.9-6.4-4.8-13.6-8.3-20.9-11.4-4.6-2-4-.9-4-6.2v-18.2c0-2-.2-2.1-2.2-2.2h-21.6-31.2c-2 0-2.1-.1-2.1-2.2V476v-.5c-.1-1.2.3-2.1 1.2-3 10.7-11.6 19.3-24.6 26.1-38.8.2-.4.6-.6 1.1-1.1l2.3 3.7 73.7 128.9c2.5 4.2 2.5 2.6 0 7z"/><path d="M788.8 487.8c-9.9-.1-17.2 8.3-17.3 16.8-.1 9.5 7.9 17.4 16.9 17.2 7.7.5 17.1-5.8 17.2-16.8.2-10.6-8.6-17.2-16.8-17.2zm6.9 17.4c-.2 3.8-3.5 6.9-7.3 6.7-3.7-.1-7-3.5-7-7.1 0-3.9 3.4-7.3 7.4-7.2 4 .2 7.1 3.5 6.9 7.6z"/></svg>