<?xml version="1.0" encoding="utf-8"?>
<!-- Generator: Adobe Illustrator 24.3.0, SVG Export Plug-In . SVG Version: 6.00 Build 0)  -->
<svg version="1.1" id="Laag_1" xmlns="http://www.w3.org/2000/svg" xmlns:xlink="http://www.w3.org/1999/xlink" x="0px" y="0px"
	 width="161.8px" height="33.2px" viewBox="0 0 161.8 33.2" style="enable-background:new 0 0 161.8 33.2;" xml:space="preserve">
<style type="text/css">
	.st0{fill:#97825B;}
</style>
<g>
	<path class="st0" d="M4,8.8h4.6v2.1H0l5.1-8.6H0.8V0.2h8.3L4,8.8z"/>
	<path class="st0" d="M16.2,0c1.7,0,3.1,0.5,4.1,1.6c0.5,0.5,0.9,1.1,1.2,1.8S22,4.8,22,5.6c0,0.7-0.1,1.4-0.4,2.1
		c-0.3,0.7-0.7,1.3-1.3,1.9c-0.5,0.5-1.1,0.9-1.8,1.1c-0.7,0.3-1.5,0.4-2.4,0.4c-0.5,0-1,0-1.4-0.1c-0.4-0.1-0.8-0.2-1.1-0.4
		s-0.6-0.3-0.9-0.5S12.2,9.8,12,9.6c-0.5-0.5-0.9-1.1-1.2-1.8c-0.3-0.7-0.4-1.4-0.4-2.2c0-0.4,0-0.8,0.1-1.1
		c0.1-0.4,0.2-0.7,0.3-1.1c0.1-0.4,0.3-0.7,0.5-1s0.4-0.6,0.7-0.8c0.2-0.2,0.4-0.4,0.7-0.6s0.6-0.4,0.9-0.5s0.7-0.3,1.2-0.4
		C15.1,0,15.6,0,16.2,0z M16.1,2.3c-0.5,0-0.9,0.1-1.3,0.2c-0.4,0.2-0.8,0.4-1,0.7c-0.2,0.2-0.5,0.5-0.7,0.9S12.8,5,12.8,5.6
		c0,1,0.3,1.8,1,2.4c0.3,0.3,0.7,0.6,1.1,0.7s0.8,0.2,1.2,0.2c0.5,0,1-0.1,1.4-0.3c0.4-0.2,0.7-0.4,1-0.6c0.2-0.2,0.4-0.5,0.6-0.9
		c0.2-0.4,0.3-0.9,0.3-1.5c0-0.6-0.1-1-0.3-1.4c-0.2-0.4-0.4-0.7-0.7-1c-0.3-0.3-0.6-0.5-1-0.6S16.6,2.3,16.1,2.3z"/>
	<path class="st0" d="M27.4,3.4c0.1-0.4,0.2-0.9,0.4-1.3c0.2-0.4,0.4-0.8,0.7-1.1c0.4-0.4,0.8-0.7,1.3-0.8S30.7,0,31.2,0
		c0.7,0,1.2,0.1,1.7,0.3C33.3,0.5,33.7,0.7,34,1c0.2,0.2,0.4,0.5,0.6,0.9c0.2,0.4,0.2,0.8,0.2,1.3c0,0.3,0,0.5-0.1,0.8
		c-0.1,0.2-0.2,0.5-0.3,0.7C34.2,4.8,34.1,4.9,34,5c-0.1,0.1-0.3,0.2-0.4,0.3c0.2,0.1,0.4,0.2,0.7,0.3s0.4,0.3,0.6,0.5
		c0.2,0.2,0.3,0.5,0.4,0.8c0.1,0.3,0.1,0.6,0.1,0.9c0,0.4-0.1,0.8-0.3,1.3c-0.2,0.4-0.4,0.8-0.8,1.2c-0.5,0.4-0.9,0.7-1.4,0.8
		c-0.5,0.1-1,0.2-1.4,0.2c-0.5,0-1.1-0.1-1.6-0.2s-1.1-0.4-1.5-0.9c-0.3-0.3-0.6-0.7-0.8-1.1c-0.2-0.5-0.3-1-0.4-1.5h2.5
		c0,0.2,0.1,0.4,0.2,0.7c0.1,0.2,0.2,0.4,0.4,0.6c0.1,0.1,0.3,0.2,0.5,0.3C30.8,9,31,9.1,31.2,9.1c0.2,0,0.4,0,0.6-0.1
		c0.2-0.1,0.3-0.2,0.5-0.3s0.2-0.3,0.3-0.5c0.1-0.2,0.1-0.4,0.1-0.6c0-0.2,0-0.4-0.1-0.6c-0.1-0.2-0.2-0.3-0.3-0.4
		c-0.2-0.2-0.4-0.2-0.7-0.3s-0.5-0.1-0.7-0.1h-0.2V4.5h0.1c0.1,0,0.2,0,0.5,0c0.2,0,0.4-0.1,0.6-0.3c0.1-0.1,0.2-0.2,0.3-0.4
		s0.1-0.4,0.1-0.6c0-0.2,0-0.3-0.1-0.5c-0.1-0.1-0.2-0.3-0.3-0.4c-0.1-0.1-0.2-0.2-0.4-0.2c-0.2-0.1-0.3-0.1-0.5-0.1
		c-0.2,0-0.4,0-0.6,0.1c-0.2,0.1-0.3,0.1-0.4,0.3c-0.1,0.1-0.2,0.3-0.3,0.5c-0.1,0.2-0.1,0.4-0.1,0.5H27.4z"/>
	<path class="st0" d="M40.1,2.3h-1.5V0.2h4v10.7h-2.5V2.3z"/>
	<path class="st0" d="M56.6,0c1.7,0,3.1,0.5,4.1,1.6c0.5,0.5,0.9,1.1,1.2,1.8s0.4,1.4,0.4,2.3c0,0.7-0.1,1.4-0.4,2.1
		c-0.3,0.7-0.7,1.3-1.3,1.9c-0.5,0.5-1.1,0.9-1.8,1.1c-0.7,0.3-1.5,0.4-2.4,0.4c-0.5,0-1,0-1.4-0.1c-0.4-0.1-0.8-0.2-1.1-0.4
		s-0.6-0.3-0.9-0.5s-0.5-0.4-0.7-0.6c-0.5-0.5-0.9-1.1-1.2-1.8c-0.3-0.7-0.4-1.4-0.4-2.2c0-0.4,0-0.8,0.1-1.1
		c0.1-0.4,0.2-0.7,0.3-1.1c0.1-0.4,0.3-0.7,0.5-1s0.4-0.6,0.7-0.8c0.2-0.2,0.4-0.4,0.7-0.6s0.6-0.4,0.9-0.5c0.3-0.1,0.7-0.3,1.2-0.4
		C55.6,0,56,0,56.6,0z M56.6,2.3c-0.5,0-0.9,0.1-1.3,0.2c-0.4,0.2-0.8,0.4-1,0.7c-0.2,0.2-0.5,0.5-0.7,0.9c-0.2,0.4-0.3,0.9-0.3,1.5
		c0,1,0.3,1.8,1,2.4c0.3,0.3,0.7,0.6,1.1,0.7c0.4,0.1,0.8,0.2,1.2,0.2c0.5,0,1-0.1,1.4-0.3c0.4-0.2,0.7-0.4,1-0.6
		c0.2-0.2,0.4-0.5,0.6-0.9c0.2-0.4,0.3-0.9,0.3-1.5c0-0.6-0.1-1-0.3-1.4c-0.2-0.4-0.4-0.7-0.7-1c-0.3-0.3-0.6-0.5-1-0.6
		C57.5,2.4,57.1,2.3,56.6,2.3z"/>
	<path class="st0" d="M66.9,4.7l3.6-4.4h3l-4.3,5.1l4.7,5.6h-3.2l-3.8-4.7v4.7h-2.5V0.2h2.5V4.7z"/>
	<path class="st0" d="M79,2.3v8.6h-2.5V2.3h-2.3V0.2h7.1v2.1H79z"/>
	<path class="st0" d="M88.1,0c1.7,0,3.1,0.5,4.1,1.6c0.5,0.5,0.9,1.1,1.2,1.8s0.4,1.4,0.4,2.3c0,0.7-0.1,1.4-0.4,2.1
		S92.8,9,92.2,9.6c-0.5,0.5-1.1,0.9-1.8,1.1c-0.7,0.3-1.5,0.4-2.4,0.4c-0.5,0-1,0-1.4-0.1c-0.4-0.1-0.8-0.2-1.1-0.4
		c-0.3-0.1-0.6-0.3-0.9-0.5c-0.3-0.2-0.5-0.4-0.7-0.6c-0.5-0.5-0.9-1.1-1.2-1.8s-0.4-1.4-0.4-2.2c0-0.4,0-0.8,0.1-1.1
		c0.1-0.4,0.2-0.7,0.3-1.1s0.3-0.7,0.5-1s0.4-0.6,0.7-0.8c0.2-0.2,0.4-0.4,0.7-0.6c0.3-0.2,0.6-0.4,0.9-0.5s0.7-0.3,1.2-0.4
		C87.1,0,87.6,0,88.1,0z M88.1,2.3c-0.5,0-0.9,0.1-1.3,0.2c-0.4,0.2-0.8,0.4-1,0.7c-0.2,0.2-0.5,0.5-0.7,0.9S84.8,5,84.8,5.6
		c0,1,0.3,1.8,1,2.4c0.3,0.3,0.7,0.6,1.1,0.7s0.8,0.2,1.2,0.2c0.5,0,1-0.1,1.4-0.3c0.4-0.2,0.7-0.4,1-0.6c0.2-0.2,0.4-0.5,0.6-0.9
		c0.2-0.4,0.3-0.9,0.3-1.5c0-0.6-0.1-1-0.3-1.4c-0.2-0.4-0.4-0.7-0.7-1c-0.3-0.3-0.6-0.5-1-0.6S88.6,2.3,88.1,2.3z"/>
	<path class="st0" d="M99.2,0.2c0.1,0,0.3,0,0.5,0c0.2,0,0.5,0,0.7,0.1c0.3,0.1,0.5,0.1,0.8,0.2c0.2,0.1,0.5,0.3,0.7,0.5
		c0.2,0.2,0.3,0.3,0.4,0.5c0.1,0.2,0.2,0.4,0.2,0.6s0.1,0.4,0.1,0.5c0,0.2,0,0.3,0,0.4c0,0.2,0,0.4-0.1,0.7c0,0.2-0.1,0.5-0.3,0.7
		c-0.1,0.2-0.3,0.4-0.5,0.5c-0.2,0.1-0.3,0.2-0.4,0.3c0.3,0,0.5,0.1,0.8,0.2c0.3,0.1,0.5,0.3,0.7,0.5c0.2,0.2,0.3,0.4,0.5,0.7
		c0.1,0.3,0.2,0.7,0.2,1.2c0,0.5-0.1,1-0.3,1.3c-0.2,0.3-0.4,0.6-0.6,0.8c-0.2,0.2-0.5,0.4-0.7,0.5c-0.3,0.1-0.5,0.2-0.8,0.3
		c-0.3,0.1-0.5,0.1-0.7,0.1c-0.2,0-0.4,0-0.6,0h-4V0.2H99.2z M98.3,4.6h0.4c0.2,0,0.4,0,0.6-0.1c0.2,0,0.5-0.1,0.6-0.2
		c0.1-0.1,0.2-0.2,0.3-0.4c0.1-0.2,0.1-0.3,0.1-0.6c0-0.2,0-0.4-0.1-0.6s-0.2-0.3-0.3-0.3c-0.2-0.1-0.4-0.2-0.6-0.2
		c-0.2,0-0.4,0-0.7,0h-0.4V4.6z M98.3,9h0.6c0.3,0,0.6,0,1-0.1c0.3,0,0.6-0.2,0.8-0.4c0.2-0.2,0.3-0.5,0.3-0.9c0-0.2,0-0.4-0.1-0.5
		s-0.1-0.3-0.2-0.3c-0.1-0.1-0.2-0.2-0.4-0.2c-0.1-0.1-0.3-0.1-0.5-0.1c-0.2,0-0.3,0-0.5,0c-0.2,0-0.3,0-0.4,0h-0.7V9z"/>
	<path class="st0" d="M111.6,2.3H108v2.1h3.4v2.1H108v2.4h3.5v2.1h-6V0.2h6V2.3z"/>
	<path class="st0" d="M117.5,0.2c0.7,0,1.2,0.1,1.7,0.3c0.4,0.2,0.8,0.4,1,0.6c0.2,0.2,0.4,0.5,0.6,0.9c0.2,0.4,0.3,0.9,0.3,1.5
		c0,0.3-0.1,0.7-0.2,1.1c-0.1,0.4-0.3,0.7-0.7,1.1c-0.2,0.2-0.4,0.3-0.6,0.5c-0.3,0.1-0.5,0.3-0.8,0.3l3.3,4.4h-3l-2.9-4.2v4.2h-2.5
		V0.2H117.5z M116.2,5.1h0.6c0.2,0,0.5,0,0.7-0.1s0.5-0.2,0.7-0.4c0.1-0.1,0.2-0.2,0.3-0.4s0.1-0.4,0.1-0.7c0-0.3-0.1-0.5-0.2-0.7
		c-0.1-0.2-0.2-0.3-0.3-0.4c-0.2-0.1-0.4-0.2-0.7-0.3c-0.3,0-0.5-0.1-0.6-0.1h-0.6V5.1z"/>
	<path class="st0" d="M134.9,10.9h-8.2l3.2-3.5c0.1-0.2,0.3-0.3,0.5-0.5c0.2-0.2,0.3-0.4,0.5-0.6c0.2-0.2,0.3-0.4,0.5-0.6
		s0.3-0.3,0.3-0.5c0.1-0.1,0.1-0.2,0.2-0.3s0.1-0.3,0.2-0.4s0.1-0.3,0.2-0.5c0-0.2,0.1-0.4,0.1-0.5c0-0.2,0-0.4-0.1-0.6
		c-0.1-0.2-0.2-0.3-0.3-0.5c-0.2-0.2-0.5-0.3-1-0.3c-0.2,0-0.4,0-0.6,0.1c-0.2,0.1-0.3,0.2-0.4,0.3c-0.1,0.2-0.3,0.4-0.3,0.6
		c-0.1,0.3-0.1,0.5-0.1,0.7H127c0-0.5,0.2-0.9,0.3-1.4c0.2-0.5,0.4-0.9,0.8-1.2c0.1-0.1,0.3-0.3,0.5-0.4s0.4-0.2,0.6-0.4
		c0.2-0.1,0.5-0.2,0.8-0.3s0.6-0.1,1-0.1c0.4,0,0.7,0,1,0.1c0.3,0.1,0.6,0.2,0.8,0.3c0.2,0.1,0.4,0.2,0.6,0.3
		c0.2,0.1,0.3,0.2,0.4,0.3c0.3,0.3,0.5,0.6,0.7,1.1c0.2,0.4,0.3,0.9,0.3,1.5c0,0.5-0.1,0.9-0.2,1.3c-0.1,0.4-0.3,0.7-0.6,1.1
		c-0.2,0.3-0.5,0.6-0.8,0.9s-0.6,0.6-0.9,0.9l-1.1,1.1h3.7V10.9z"/>
	<path class="st0" d="M145.3,5.6c0,0.9-0.1,1.8-0.4,2.5c-0.2,0.8-0.6,1.4-1.2,1.9c-0.3,0.3-0.7,0.6-1.2,0.8c-0.5,0.2-1,0.3-1.7,0.3
		c-0.6,0-1.2-0.1-1.7-0.3s-0.9-0.5-1.2-0.8c-0.5-0.5-0.9-1.2-1.2-1.9s-0.4-1.6-0.4-2.5c0-0.9,0.1-1.8,0.4-2.6s0.6-1.4,1.2-1.9
		c0.3-0.3,0.7-0.6,1.2-0.8s1-0.3,1.7-0.3c0.7,0,1.2,0.1,1.7,0.3c0.5,0.2,0.9,0.5,1.2,0.8c0.5,0.5,0.9,1.2,1.2,1.9
		C145.2,3.8,145.3,4.7,145.3,5.6z M140.9,2.1c-0.2,0-0.4,0-0.5,0.1s-0.3,0.2-0.4,0.3c-0.2,0.2-0.3,0.4-0.5,0.7
		c-0.1,0.3-0.2,0.6-0.3,0.8c-0.1,0.3-0.1,0.6-0.1,0.8c0,0.3,0,0.5,0,0.7c0,0.2,0,0.5,0,0.7c0,0.3,0.1,0.6,0.1,0.8
		c0.1,0.3,0.2,0.6,0.3,0.8s0.3,0.5,0.5,0.7c0.1,0.1,0.3,0.2,0.4,0.3c0.1,0.1,0.3,0.1,0.5,0.1c0.2,0,0.4,0,0.5-0.1
		c0.1-0.1,0.3-0.2,0.4-0.3c0.2-0.2,0.3-0.4,0.5-0.7s0.2-0.5,0.3-0.8c0.1-0.3,0.1-0.6,0.1-0.8s0-0.5,0-0.7c0-0.2,0-0.4,0-0.7
		s-0.1-0.5-0.1-0.8c-0.1-0.3-0.2-0.6-0.3-0.8c-0.1-0.3-0.3-0.5-0.5-0.7c-0.1-0.1-0.3-0.2-0.4-0.3S141.1,2.1,140.9,2.1z"/>
	<path class="st0" d="M154.4,10.9h-8.2l3.2-3.5c0.1-0.2,0.3-0.3,0.5-0.5c0.2-0.2,0.3-0.4,0.5-0.6c0.2-0.2,0.3-0.4,0.5-0.6
		s0.3-0.3,0.3-0.5c0.1-0.1,0.1-0.2,0.2-0.3s0.1-0.3,0.2-0.4s0.1-0.3,0.2-0.5c0-0.2,0.1-0.4,0.1-0.5c0-0.2,0-0.4-0.1-0.6
		c-0.1-0.2-0.2-0.3-0.3-0.5c-0.2-0.2-0.5-0.3-1-0.3c-0.2,0-0.4,0-0.6,0.1c-0.2,0.1-0.3,0.2-0.4,0.3c-0.1,0.2-0.3,0.4-0.3,0.6
		c-0.1,0.3-0.1,0.5-0.1,0.7h-2.5c0-0.5,0.2-0.9,0.3-1.4c0.2-0.5,0.4-0.9,0.8-1.2c0.1-0.1,0.3-0.3,0.5-0.4s0.4-0.2,0.6-0.4
		c0.2-0.1,0.5-0.2,0.8-0.3s0.6-0.1,1-0.1c0.4,0,0.7,0,1,0.1c0.3,0.1,0.6,0.2,0.8,0.3c0.2,0.1,0.4,0.2,0.6,0.3
		c0.2,0.1,0.3,0.2,0.4,0.3c0.3,0.3,0.5,0.6,0.7,1.1c0.2,0.4,0.3,0.9,0.3,1.5c0,0.5-0.1,0.9-0.2,1.3c-0.1,0.4-0.3,0.7-0.6,1.1
		c-0.2,0.3-0.5,0.6-0.8,0.9s-0.6,0.6-0.9,0.9l-1.1,1.1h3.7V10.9z"/>
	<path class="st0" d="M159.3,2.3h-1.5V0.2h4v10.7h-2.5V2.3z"/>
	<path d="M8.8,21.8c-0.3-0.2-0.5-0.4-0.8-0.6S7.5,21,7.3,20.9c-0.2-0.1-0.4-0.1-0.6-0.1s-0.3,0-0.4,0c-0.2,0-0.5,0-0.7,0.1
		c-0.3,0.1-0.5,0.2-0.7,0.4c-0.1,0.1-0.2,0.3-0.3,0.4c-0.1,0.2-0.1,0.3-0.1,0.5c0,0.4,0.1,0.6,0.3,0.8c0.2,0.2,0.4,0.3,0.7,0.4
		s0.7,0.2,1.2,0.4l1.1,0.4c0.3,0.1,0.7,0.3,1,0.4c0.4,0.2,0.7,0.4,1,0.7c0.4,0.4,0.7,0.9,0.9,1.4c0.1,0.5,0.2,0.9,0.2,1.4
		c0,0.8-0.1,1.5-0.4,2.1c-0.2,0.6-0.6,1.1-0.9,1.5c-0.3,0.3-0.7,0.6-1.1,0.8c-0.4,0.2-0.8,0.3-1.1,0.5c-0.4,0.1-0.7,0.2-1.1,0.2
		s-0.6,0-0.9,0c-0.5,0-1,0-1.5-0.1C3.5,33,3,32.9,2.6,32.6c-0.4-0.2-0.8-0.4-1.2-0.7c-0.4-0.3-0.7-0.6-1-0.9l1.8-2.4
		c0.2,0.2,0.4,0.4,0.7,0.6c0.3,0.2,0.5,0.4,0.7,0.5c0.6,0.4,1.2,0.5,1.9,0.5c0.2,0,0.5,0,0.8-0.1c0.3-0.1,0.5-0.2,0.8-0.4
		c0.1-0.1,0.3-0.3,0.4-0.5c0.1-0.2,0.2-0.4,0.2-0.7c0-0.2,0-0.5-0.1-0.6c-0.1-0.2-0.2-0.3-0.4-0.4c-0.1-0.1-0.2-0.2-0.4-0.3
		c-0.1-0.1-0.3-0.2-0.5-0.2c-0.2-0.1-0.3-0.1-0.5-0.2c-0.2-0.1-0.3-0.1-0.4-0.2L4,26.3C3.7,26.2,3.3,26,3,25.8s-0.7-0.4-1-0.7
		c-0.4-0.4-0.6-0.9-0.7-1.3c-0.1-0.5-0.2-0.9-0.2-1.2c0-0.7,0.1-1.3,0.3-1.8c0.2-0.5,0.5-1,1-1.5c0.5-0.5,1.1-0.9,1.7-1.1
		C4.6,18,5.3,17.9,6,17.9c0.2,0,0.5,0,0.9,0s0.7,0.1,1,0.2c0.4,0.1,0.8,0.2,1.2,0.4c0.4,0.2,0.8,0.4,1.3,0.8L8.8,21.8z"/>
	<path d="M17.1,18.2v14.7h-3.4V18.2H17.1z"/>
	<path d="M20.5,32.9V18.2h3l7.9,9.5v-9.5h3.4v14.7h-3L24,23.4v9.5H20.5z"/>
	<path d="M38.3,32.9V18.2h3l7.9,9.5v-9.5h3.4v14.7h-3l-7.9-9.5v9.5H38.3z"/>
	<path d="M63.3,17.9c2.3,0,4.2,0.7,5.7,2.1c0.7,0.7,1.3,1.5,1.7,2.4c0.4,0.9,0.6,2,0.6,3.1c0,1-0.2,2-0.6,2.9
		c-0.4,1-0.9,1.8-1.7,2.6c-0.7,0.7-1.5,1.2-2.4,1.6c-0.9,0.4-2,0.6-3.3,0.6c-0.7,0-1.3-0.1-1.9-0.2c-0.6-0.1-1.1-0.3-1.6-0.5
		c-0.5-0.2-0.9-0.4-1.3-0.7s-0.7-0.5-1-0.8c-0.7-0.7-1.3-1.5-1.7-2.4c-0.4-0.9-0.6-2-0.6-3c0-0.5,0.1-1.1,0.2-1.6
		c0.1-0.5,0.3-1,0.5-1.5c0.2-0.5,0.4-0.9,0.7-1.4c0.3-0.4,0.6-0.8,0.9-1.1c0.2-0.2,0.5-0.5,0.9-0.8c0.4-0.3,0.8-0.5,1.2-0.7
		s1-0.4,1.6-0.5C61.9,18,62.6,17.9,63.3,17.9z M63.3,21c-0.7,0-1.3,0.1-1.8,0.3s-1,0.5-1.4,0.9c-0.3,0.3-0.6,0.7-0.9,1.3
		c-0.3,0.5-0.4,1.2-0.4,2c0,1.3,0.5,2.4,1.4,3.3c0.5,0.5,1,0.8,1.5,0.9c0.5,0.2,1.1,0.3,1.7,0.3c0.8,0,1.4-0.1,1.9-0.4
		c0.5-0.2,1-0.5,1.3-0.9c0.3-0.3,0.6-0.7,0.9-1.2c0.3-0.5,0.4-1.2,0.4-2.1c0-0.8-0.1-1.4-0.4-2s-0.6-1-0.9-1.3
		c-0.4-0.4-0.8-0.6-1.4-0.9C64.6,21.2,64,21,63.3,21z"/>
	<path d="M77.5,18.2v14.7h-3.4V18.2H77.5z"/>
</g>
</svg>
