<?xml version="1.0" encoding="utf-8"?>
<!-- Generator: Adobe Illustrator 22.1.0, SVG Export Plug-In . SVG Version: 6.00 Build 0)  -->
<svg version="1.1" id="Laag_1" xmlns="http://www.w3.org/2000/svg" xmlns:xlink="http://www.w3.org/1999/xlink" x="0px" y="0px"
	 viewBox="0 0 86 41" style="enable-background:new 0 0 86 41;" xml:space="preserve">
<style type="text/css">
	.st0{fill:#FFFFFF;}
</style>
<g>
	<path class="st0" d="M31.5,16c0,0.7-0.4,1.1-1.1,1.1h-0.9c-0.4,0-0.8-0.2-1-0.6L23.5,5.9v10.3c0,0.3-0.1,0.6-0.3,0.8
		c-0.2,0.2-0.4,0.3-0.7,0.3S22,17.2,21.7,17s-0.3-0.4-0.3-0.8v-13c0-0.7,0.4-1.1,1.1-1.1h0.8c0.4,0,0.8,0.2,1,0.6l5.1,10.7V3
		c0-0.3,0.1-0.6,0.3-0.8s0.5-0.3,0.7-0.3c0.3,0,0.5,0.1,0.7,0.3s0.3,0.4,0.3,0.8V16z"/>
	<path class="st0" d="M42.9,16c-1,0.8-2.3,1.2-3.9,1.2c-1.6,0-2.9-0.4-3.9-1.2V7.2c0-0.3,0.1-0.6,0.3-0.8c0.2-0.2,0.5-0.3,0.7-0.3
		s0.5,0.1,0.7,0.3c0.2,0.2,0.3,0.4,0.3,0.8v7.5c0.6,0.3,1.2,0.4,1.8,0.4c0.6,0,1.2-0.1,1.8-0.4V7.2c0-0.3,0.1-0.6,0.3-0.8
		c0.2-0.2,0.5-0.3,0.7-0.3s0.5,0.1,0.7,0.3c0.2,0.2,0.3,0.4,0.3,0.8V16z"/>
</g>
<g>
	<path class="st0" d="M55,6.3c0,0.4-0.2,0.6-0.6,0.6h-1.3c-0.4,0-0.6-0.2-0.6-0.6v-1c0-0.4,0.2-0.6,0.6-0.6h1.3
		C54.8,4.8,55,5,55,5.4V6.3z M54.7,16.4c0,0.3-0.1,0.5-0.3,0.6c-0.2,0.2-0.4,0.2-0.6,0.2s-0.4-0.1-0.6-0.2s-0.3-0.4-0.3-0.6V9
		c0-0.3,0.1-0.5,0.3-0.6c0.2-0.2,0.4-0.2,0.6-0.2s0.4,0.1,0.6,0.2c0.2,0.2,0.3,0.4,0.3,0.6V16.4z"/>
	<path class="st0" d="M64.2,16.4c0,0.3-0.1,0.5-0.3,0.6s-0.4,0.2-0.6,0.2s-0.4-0.1-0.6-0.2c-0.2-0.2-0.3-0.4-0.3-0.6v-6.2
		c-0.5-0.2-1-0.3-1.5-0.3c-0.5,0-1,0.1-1.5,0.3v6.2c0,0.3-0.1,0.5-0.3,0.6c-0.2,0.2-0.4,0.2-0.6,0.2S58.2,17.2,58,17
		c-0.2-0.2-0.3-0.4-0.3-0.6V9.1c0.9-0.6,1.9-1,3.2-1c1.3,0,2.4,0.3,3.2,1V16.4z"/>
</g>
<g>
	<path class="st0" d="M9.9,36.8c-1.3,0.9-2.6,1.4-4.2,1.4c-1.5,0-2.8-0.5-4.1-1.4v-9.8c1.3-0.9,2.7-1.4,4.1-1.4
		c1.5,0,2.9,0.5,4.2,1.4v1.9c0,0.3-0.1,0.5-0.3,0.6c-0.2,0.2-0.4,0.2-0.6,0.2s-0.4-0.1-0.6-0.2c-0.2-0.2-0.3-0.4-0.3-0.6V28
		c-0.8-0.4-1.6-0.6-2.4-0.6c-0.9,0-1.6,0.2-2.4,0.6v7.9c0.7,0.4,1.5,0.6,2.4,0.6c0.8,0,1.6-0.2,2.4-0.6v-1.1c0-0.3,0.1-0.5,0.3-0.6
		C8.6,34,8.8,34,9.1,34s0.4,0.1,0.6,0.2s0.3,0.4,0.3,0.6V36.8z"/>
	<path class="st0" d="M19,37.2c-0.9,0.6-1.9,1-3.2,1c-1.3,0-2.4-0.3-3.2-1v-7.1c0.9-0.6,1.9-1,3.2-1c1.3,0,2.4,0.3,3.2,1V37.2z
		 M17.3,36.1v-4.9c-0.5-0.2-1-0.3-1.5-0.3c-0.5,0-1,0.1-1.5,0.3v4.9c0.5,0.2,1,0.3,1.5,0.3C16.3,36.5,16.8,36.4,17.3,36.1z"/>
	<path class="st0" d="M28.3,37.4c0,0.3-0.1,0.5-0.3,0.6s-0.4,0.2-0.6,0.2S27,38.2,26.8,38c-0.2-0.2-0.3-0.4-0.3-0.6v-6.2
		c-0.5-0.2-1-0.3-1.5-0.3c-0.5,0-1,0.1-1.5,0.3v6.2c0,0.3-0.1,0.5-0.3,0.6c-0.2,0.2-0.4,0.2-0.6,0.2s-0.4-0.1-0.6-0.2
		c-0.2-0.2-0.3-0.4-0.3-0.6v-7.3c0.9-0.6,1.9-1,3.2-1c1.3,0,2.4,0.3,3.2,1V37.4z"/>
	<path class="st0" d="M36.9,30.1c0,0.2-0.1,0.4-0.2,0.6C36.5,30.9,36.3,31,36,31h-1.7v6.4c0,0.3-0.1,0.5-0.3,0.6
		c-0.2,0.2-0.4,0.2-0.6,0.2S33,38.2,32.8,38c-0.2-0.2-0.3-0.4-0.3-0.6V31h-1.7c-0.3,0-0.5-0.1-0.6-0.3c-0.2-0.2-0.2-0.4-0.2-0.6
		s0.1-0.4,0.2-0.6s0.4-0.3,0.6-0.3h1.7v-1.8c0-0.3,0.1-0.5,0.3-0.6c0.2-0.2,0.4-0.2,0.6-0.2s0.4,0.1,0.6,0.2
		c0.2,0.2,0.3,0.4,0.3,0.6v1.8H36c0.3,0,0.5,0.1,0.6,0.3C36.8,29.7,36.9,29.9,36.9,30.1z"/>
	<path class="st0" d="M40.9,27.3c0,0.4-0.2,0.6-0.6,0.6H39c-0.4,0-0.6-0.2-0.6-0.6v-1c0-0.4,0.2-0.6,0.6-0.6h1.3
		c0.4,0,0.6,0.2,0.6,0.6V27.3z M40.5,37.4c0,0.3-0.1,0.5-0.3,0.6c-0.2,0.2-0.4,0.2-0.6,0.2s-0.4-0.1-0.6-0.2s-0.3-0.4-0.3-0.6V30
		c0-0.3,0.1-0.5,0.3-0.6c0.2-0.2,0.4-0.2,0.6-0.2s0.4,0.1,0.6,0.2c0.2,0.2,0.3,0.4,0.3,0.6V37.4z"/>
	<path class="st0" d="M50,37.4c0,0.3-0.1,0.5-0.3,0.6s-0.4,0.2-0.6,0.2s-0.4-0.1-0.6-0.2c-0.2-0.2-0.3-0.4-0.3-0.6v-6.2
		c-0.5-0.2-1-0.3-1.5-0.3c-0.5,0-1,0.1-1.5,0.3v6.2c0,0.3-0.1,0.5-0.3,0.6c-0.2,0.2-0.4,0.2-0.6,0.2S44,38.2,43.9,38
		c-0.2-0.2-0.3-0.4-0.3-0.6v-7.3c0.9-0.6,1.9-1,3.2-1c1.3,0,2.4,0.3,3.2,1V37.4z"/>
	<path class="st0" d="M55.2,27.3c0,0.4-0.2,0.6-0.6,0.6h-1.3c-0.4,0-0.6-0.2-0.6-0.6v-1c0-0.4,0.2-0.6,0.6-0.6h1.3
		c0.4,0,0.6,0.2,0.6,0.6V27.3z M54.9,37.4c0,0.3-0.1,0.5-0.3,0.6c-0.2,0.2-0.4,0.2-0.6,0.2s-0.4-0.1-0.6-0.2s-0.3-0.4-0.3-0.6V30
		c0-0.3,0.1-0.5,0.3-0.6c0.2-0.2,0.4-0.2,0.6-0.2s0.4,0.1,0.6,0.2c0.2,0.2,0.3,0.4,0.3,0.6V37.4z"/>
	<path class="st0" d="M64.4,37.2c-0.9,0.7-1.9,1-3.2,1c-1.3,0-2.4-0.3-3.2-1V30c0-0.3,0.1-0.5,0.3-0.6c0.2-0.2,0.4-0.2,0.6-0.2
		s0.4,0.1,0.6,0.2s0.3,0.4,0.3,0.6v6.2c0.5,0.2,1,0.3,1.5,0.3c0.5,0,1-0.1,1.5-0.3V30c0-0.3,0.1-0.5,0.3-0.6
		c0.2-0.2,0.4-0.2,0.6-0.2s0.4,0.1,0.6,0.2s0.3,0.4,0.3,0.6V37.2z"/>
	<path class="st0" d="M78.4,37.4c0,0.3-0.1,0.5-0.3,0.6s-0.4,0.2-0.6,0.2s-0.4-0.1-0.6-0.2c-0.2-0.2-0.3-0.4-0.3-0.6v-6.2
		c-0.5-0.2-1-0.3-1.5-0.3c-0.5,0-1,0.1-1.5,0.3v6.2c0,0.3-0.1,0.5-0.3,0.6c-0.2,0.2-0.4,0.2-0.6,0.2c-0.6,0-0.9-0.3-0.9-0.9v-6.2
		c-0.5-0.2-1-0.3-1.5-0.3c-0.5,0-1,0.1-1.5,0.3v6.2c0,0.3-0.1,0.5-0.3,0.6c-0.2,0.2-0.4,0.2-0.6,0.2s-0.4-0.1-0.6-0.2
		c-0.2-0.2-0.3-0.4-0.3-0.6v-7.3c0.9-0.6,1.9-1,3.2-1c0.9,0,1.7,0.1,2.4,0.4c0.7-0.3,1.5-0.4,2.4-0.4c1.3,0,2.4,0.3,3.2,1V37.4z"/>
	<path class="st0" d="M83.7,37.2c0,0.6-0.3,0.9-0.9,0.9h-0.6c-0.6,0-0.9-0.3-0.9-0.9v-0.6c0-0.6,0.3-0.9,0.9-0.9h0.6
		c0.6,0,0.9,0.3,0.9,0.9V37.2z M83.3,33.9c0,0.3-0.1,0.5-0.3,0.6s-0.4,0.2-0.6,0.2s-0.4-0.1-0.6-0.2c-0.2-0.2-0.3-0.4-0.3-0.6v-7.4
		c0-0.3,0.1-0.5,0.3-0.6c0.2-0.2,0.4-0.2,0.6-0.2s0.4,0.1,0.6,0.2s0.3,0.4,0.3,0.6V33.9z"/>
</g>
</svg>
