<?xml version="1.0" encoding="utf-8"?>
<!-- Generator: Adobe Illustrator 23.0.2, SVG Export Plug-In . SVG Version: 6.00 Build 0)  -->
<svg version="1.1" id="Laag_1" xmlns="http://www.w3.org/2000/svg" xmlns:xlink="http://www.w3.org/1999/xlink" x="0px" y="0px"
	 width="208.1px" height="35.3px" viewBox="0 0 208.1 35.3" style="enable-background:new 0 0 208.1 35.3;" xml:space="preserve">
<style type="text/css">
	.st0{fill:#FFFFFF;}
</style>
<g>
	<path class="st0" d="M2.7,13.8H1.2V2.2h1.5v5h4.1v-5h1.5v11.6H6.7V8.5H2.7V13.8z"/>
	<path class="st0" d="M17,13.8h-6.1V2.2h6v1.3h-4.5v3.7h4.2v1.3h-4.2v4H17V13.8z"/>
	<path class="st0" d="M22.1,8.5h-1.7v5.3h-1.5V2.2h4c1,0,1.7,0.3,2.1,0.8c0.4,0.6,0.7,1.2,0.7,2.1c0,0.7-0.2,1.3-0.6,1.8
		c-0.4,0.5-0.9,0.8-1.6,0.9v0c0.7,0.1,1.2,0.4,1.4,0.7c0.3,0.4,0.4,1.1,0.5,2.3c0,0.4,0.1,0.9,0.1,1.5c0.1,0.7,0.2,1.2,0.3,1.5h-1.5
		c-0.1-0.2-0.2-0.6-0.3-0.9c0-0.4-0.1-0.9-0.1-1.5c0-0.7-0.1-1.1-0.1-1.4C23.8,9,23.2,8.5,22.1,8.5z M20.4,3.5v3.7h2.2
		c0.5,0,0.9-0.2,1.2-0.6c0.3-0.4,0.4-0.8,0.4-1.4c0-0.5-0.1-0.9-0.4-1.2c-0.3-0.3-0.6-0.5-1.2-0.5H20.4z"/>
	<path class="st0" d="M31.7,13.8H28V2.2h3.8c0.7,0,1.3,0.1,1.6,0.3c0.4,0.2,0.7,0.5,0.9,0.9c0.3,0.5,0.5,1,0.5,1.5
		c0,0.8-0.2,1.4-0.5,1.8c-0.3,0.5-0.8,0.8-1.5,0.9v0.1c1.6,0.2,2.4,1.1,2.4,2.8C35.2,12.7,34,13.8,31.7,13.8z M29.5,3.5v3.6h2.1
		c0.6,0,1-0.2,1.3-0.5c0.3-0.3,0.4-0.8,0.4-1.3c0-0.5-0.1-0.9-0.4-1.3c-0.3-0.3-0.7-0.5-1.3-0.5H29.5z M29.5,8.4v4.1h2.1
		c0.7,0,1.3-0.2,1.6-0.6s0.5-0.9,0.5-1.4c0-0.4-0.1-0.8-0.2-1.1c-0.1-0.3-0.3-0.5-0.6-0.7c-0.3-0.1-0.5-0.3-0.8-0.3
		c-0.3-0.1-0.6-0.1-1.1-0.1H29.5z"/>
	<path class="st0" d="M37.3,10.4h1.5v0.3c0,0.7,0.2,1.3,0.6,1.6c0.4,0.3,0.8,0.5,1.4,0.5c1.4,0,2.1-0.6,2.1-1.9
		c0-0.5-0.2-0.9-0.5-1.2C41.9,9.3,41.5,9,41,8.7c-0.5-0.3-1-0.5-1.5-0.8c-0.5-0.3-0.9-0.7-1.3-1.1c-0.4-0.5-0.5-1-0.5-1.7
		c0-1,0.3-1.8,0.9-2.3C39.2,2.3,40,2,41,2c2.2,0,3.3,1.1,3.2,3.4h-1.5c0-0.7-0.1-1.2-0.4-1.6c-0.3-0.4-0.7-0.5-1.4-0.5
		c-0.5,0-0.9,0.1-1.3,0.4C39.3,4,39.1,4.4,39.1,5c0,0.5,0.2,0.9,0.5,1.2c0.4,0.4,0.8,0.7,1.3,0.9c0.5,0.3,1,0.5,1.5,0.8
		c0.5,0.3,0.9,0.7,1.3,1.2c0.4,0.5,0.5,1.1,0.5,1.8c0,1.1-0.3,2-1,2.5c-0.7,0.5-1.5,0.8-2.6,0.8c-0.7,0-1.2-0.1-1.7-0.3
		c-0.5-0.2-0.8-0.4-1-0.7c-0.2-0.3-0.4-0.6-0.5-1c-0.1-0.4-0.2-0.7-0.2-0.9C37.3,11,37.3,10.7,37.3,10.4z"/>
	<path class="st0" d="M45.5,2.2h7.6v1.3h-3v10.3h-1.5V3.5h-3V2.2z"/>
	<path class="st0" d="M55.9,13.8h-1.5V2.2h5.7v1.3h-4.3v3.7h4v1.3h-4V13.8z"/>
	<path class="st0" d="M67.8,13.8h-6.1V2.2h6v1.3h-4.5v3.7h4.2v1.3h-4.2v4h4.6V13.8z"/>
	<path class="st0" d="M72.9,8.5h-1.7v5.3h-1.5V2.2h4c1,0,1.7,0.3,2.1,0.8s0.7,1.2,0.7,2.1c0,0.7-0.2,1.3-0.6,1.8
		c-0.4,0.5-0.9,0.8-1.6,0.9v0c0.7,0.1,1.2,0.4,1.4,0.7c0.3,0.4,0.4,1.1,0.5,2.3c0,0.4,0.1,0.9,0.1,1.5c0.1,0.7,0.2,1.2,0.3,1.5h-1.5
		c-0.1-0.2-0.2-0.6-0.3-0.9c0-0.4-0.1-0.9-0.1-1.5c0-0.7-0.1-1.1-0.1-1.4C74.6,9,74,8.5,72.9,8.5z M71.2,3.5v3.7h2.2
		c0.5,0,0.9-0.2,1.2-0.6C74.8,6.3,75,5.8,75,5.3c0-0.5-0.1-0.9-0.4-1.2c-0.3-0.3-0.6-0.5-1.2-0.5H71.2z"/>
	<path class="st0" d="M80.3,2.2v11.6h-1.5V2.2H80.3z"/>
	<path class="st0" d="M89.2,13.8h-6.1V2.2h6v1.3h-4.5v3.7h4.2v1.3h-4.2v4h4.6V13.8z"/>
	<path class="st0" d="M97.8,2.2h1.3v11.6h-2l-4.6-10h0v10h-1.3V2.2h2.1l4.5,9.9h0V2.2z"/>
	<path class="st0" d="M112.8,2.2l-3.4,11.6h-1.8l-3.4-11.6h1.6l2.6,10.2h0l2.7-10.2H112.8z"/>
	<path class="st0" d="M120.7,13c-0.6,0.7-1.5,1.1-2.8,1.1c-1.3,0-2.2-0.4-2.8-1.1c-0.6-0.7-0.9-1.8-0.9-3.4V5.8
		c0-1.2,0.3-2.1,0.9-2.8c0.6-0.7,1.5-1,2.7-1c1.2,0,2.1,0.3,2.7,1c0.6,0.7,0.9,1.6,0.9,2.8v3.8C121.5,11.2,121.2,12.3,120.7,13z
		 M116.3,12.1c0.3,0.5,0.9,0.7,1.6,0.7c0.7,0,1.3-0.2,1.6-0.7c0.3-0.5,0.5-1.3,0.5-2.5V5.7c0-0.5-0.1-0.9-0.2-1.2
		c-0.1-0.3-0.3-0.6-0.4-0.7c-0.2-0.2-0.4-0.3-0.6-0.4s-0.4-0.1-0.5-0.2c-0.1,0-0.3,0-0.4,0c-0.1,0-0.3,0-0.4,0
		c-0.1,0-0.3,0.1-0.5,0.2s-0.4,0.2-0.6,0.4c-0.2,0.2-0.3,0.4-0.4,0.7c-0.1,0.3-0.2,0.7-0.2,1.2v3.9
		C115.8,10.9,115.9,11.7,116.3,12.1z"/>
	<path class="st0" d="M129.8,13.8h-5.7V2.2h1.5v10.3h4.3V13.8z"/>
	<path class="st0" d="M137,13.8h-5.7V2.2h1.5v10.3h4.3V13.8z"/>
	<path class="st0" d="M144.4,13.8h-6.1V2.2h6v1.3h-4.5v3.7h4.2v1.3h-4.2v4h4.6V13.8z"/>
	<path class="st0" d="M149.6,8.5h-1.7v5.3h-1.5V2.2h4c1,0,1.7,0.3,2.1,0.8c0.4,0.6,0.7,1.2,0.7,2.1c0,0.7-0.2,1.3-0.6,1.8
		c-0.4,0.5-0.9,0.8-1.6,0.9v0c0.7,0.1,1.2,0.4,1.4,0.7c0.3,0.4,0.4,1.1,0.5,2.3c0,0.4,0.1,0.9,0.1,1.5c0.1,0.7,0.2,1.2,0.3,1.5h-1.5
		c-0.1-0.2-0.2-0.6-0.3-0.9c0-0.4-0.1-0.9-0.1-1.5c0-0.7-0.1-1.1-0.1-1.4C151.2,9,150.6,8.5,149.6,8.5z M147.8,3.5v3.7h2.2
		c0.5,0,0.9-0.2,1.2-0.6c0.3-0.4,0.4-0.8,0.4-1.4c0-0.5-0.1-0.9-0.4-1.2c-0.3-0.3-0.6-0.5-1.2-0.5H147.8z"/>
	<path class="st0" d="M160.3,3.5v10.3h-1.4V2.2h2.4l2.9,9.7h0l3-9.7h2.4v11.6h-1.5V3.5h0l-3.2,10.3h-1.4L160.3,3.5L160.3,3.5z"/>
	<path class="st0" d="M171.2,13.8l3.7-11.6h1.9l3.8,11.6h-1.7l-0.8-2.8h-4.5l-0.9,2.8H171.2z M177.6,9.8l-1.9-6.2h0l-1.8,6.2H177.6z
		"/>
	<path class="st0" d="M189.1,5.3h-1.5c0-0.7-0.2-1.2-0.5-1.6c-0.3-0.3-0.8-0.5-1.6-0.5c-0.1,0-0.3,0-0.4,0c-0.1,0-0.3,0.1-0.5,0.2
		c-0.2,0.1-0.4,0.2-0.6,0.4c-0.2,0.2-0.3,0.4-0.4,0.7c-0.1,0.3-0.2,0.7-0.2,1.2v3.9c0,1.2,0.2,2,0.5,2.5c0.3,0.5,0.9,0.7,1.6,0.7
		c0.9,0,1.6-0.2,2.1-0.5V8.8h-2.1V7.6h3.6v5.6c-1.1,0.6-2.3,0.9-3.5,0.9c-1.3,0-2.2-0.4-2.8-1.1c-0.6-0.7-0.9-1.8-0.9-3.4V5.8
		c0-1.2,0.3-2.1,0.9-2.8c0.6-0.7,1.5-1,2.7-1c1.3,0,2.2,0.3,2.8,0.8C188.9,3.3,189.2,4.1,189.1,5.3z"/>
	<path class="st0" d="M193.5,2.2v11.6H192V2.2H193.5z"/>
	<path class="st0" d="M202.3,13.8h-6.1V2.2h6v1.3h-4.5v3.7h4.2v1.3h-4.2v4h4.6V13.8z"/>
	<path class="st0" d="M203.5,15.9l0.8-3.7h1.7l-1.5,3.7H203.5z"/>
</g>
<g>
	<path class="st0" d="M2.6,33.1H1.1V21.5h1.5v5.1h0l4-5.1h1.7l-4.2,5.2l4.4,6.4H6.7l-4.1-6h0V33.1z"/>
	<path class="st0" d="M10,28.8v-7.3h1.5v7.4c0,1.2,0.2,2,0.5,2.5c0.3,0.5,0.9,0.7,1.6,0.7c0.7,0,1.3-0.2,1.6-0.7
		c0.3-0.5,0.5-1.3,0.5-2.5v-7.4h1.5v7.3c0,1.6-0.3,2.7-0.9,3.4c-0.6,0.7-1.5,1.1-2.8,1.1s-2.2-0.4-2.8-1.1
		C10.3,31.6,10,30.4,10,28.8z"/>
	<path class="st0" d="M26.5,21.5h1.3v11.6h-2l-4.6-10h0v10h-1.3V21.5H22l4.5,9.9h0V21.5z"/>
	<path class="st0" d="M30.2,29.6h1.5V30c0,0.7,0.2,1.3,0.6,1.6c0.4,0.3,0.8,0.5,1.4,0.5c1.4,0,2.1-0.6,2.1-1.9
		c0-0.5-0.2-0.9-0.5-1.2c-0.4-0.4-0.8-0.7-1.3-0.9c-0.5-0.3-1-0.5-1.5-0.8c-0.5-0.3-0.9-0.7-1.3-1.1c-0.4-0.5-0.5-1-0.5-1.7
		c0-1,0.3-1.8,0.9-2.3c0.6-0.6,1.4-0.8,2.5-0.8c2.2,0,3.3,1.1,3.2,3.4h-1.5c0-0.7-0.1-1.2-0.4-1.6c-0.3-0.4-0.7-0.5-1.4-0.5
		c-0.5,0-0.9,0.1-1.3,0.4c-0.3,0.3-0.5,0.7-0.5,1.3c0,0.5,0.2,0.9,0.5,1.2c0.4,0.4,0.8,0.7,1.3,0.9c0.5,0.3,1,0.5,1.5,0.8
		c0.5,0.3,0.9,0.7,1.3,1.2c0.4,0.5,0.5,1.1,0.5,1.8c0,1.1-0.3,2-1,2.5c-0.7,0.5-1.5,0.8-2.6,0.8c-0.7,0-1.2-0.1-1.7-0.3
		c-0.5-0.2-0.8-0.4-1-0.7c-0.2-0.3-0.4-0.6-0.5-1c-0.1-0.4-0.2-0.7-0.2-0.9C30.2,30.2,30.2,29.9,30.2,29.6z"/>
	<path class="st0" d="M38.4,21.5h7.6v1.3h-3v10.3h-1.5V22.8h-3V21.5z"/>
	<path class="st0" d="M51,28.8v-7.3h1.5v7.4c0,1.2,0.2,2,0.5,2.5c0.3,0.5,0.9,0.7,1.6,0.7c0.7,0,1.3-0.2,1.6-0.7
		c0.3-0.5,0.5-1.3,0.5-2.5v-7.4h1.5v7.3c0,1.6-0.3,2.7-0.9,3.4c-0.6,0.7-1.5,1.1-2.8,1.1c-1.3,0-2.2-0.4-2.8-1.1
		C51.3,31.6,51,30.4,51,28.8z"/>
	<path class="st0" d="M67.5,21.5h1.3v11.6h-2l-4.6-10h0v10h-1.3V21.5H63l4.5,9.9h0V21.5z"/>
	<path class="st0" d="M71.6,33.1V21.5h3.6c1.5,0,2.6,0.6,3.1,1.8c0.3,0.7,0.5,1.9,0.5,3.7c0,2.4-0.2,3.9-0.7,4.7
		c-0.6,1-1.9,1.5-3.8,1.5H71.6z M73,22.8v9h1.4c1,0,1.8-0.2,2.2-0.7c0.4-0.5,0.6-1.4,0.6-2.7V26c0-1.2-0.2-2-0.5-2.5
		c-0.4-0.5-0.9-0.7-1.7-0.7H73z"/>
	<path class="st0" d="M86.5,33.1l-2.8-11.6h1.6l2.2,10h0l2.3-10h1.9l2.1,10h0l2.4-10h1.5l-3.1,11.6h-1.8l-2.2-10h0l-2.3,10H86.5z"/>
	<path class="st0" d="M100.8,21.5v11.6h-1.5V21.5H100.8z"/>
	<path class="st0" d="M103.3,29.6h1.5V30c0,0.7,0.2,1.3,0.6,1.6c0.4,0.3,0.8,0.5,1.4,0.5c1.4,0,2.1-0.6,2.1-1.9
		c0-0.5-0.2-0.9-0.5-1.2c-0.4-0.4-0.8-0.7-1.3-0.9c-0.5-0.3-1-0.5-1.5-0.8c-0.5-0.3-0.9-0.7-1.3-1.1c-0.4-0.5-0.5-1-0.5-1.7
		c0-1,0.3-1.8,0.9-2.3c0.6-0.6,1.4-0.8,2.5-0.8c2.2,0,3.3,1.1,3.2,3.4h-1.5c0-0.7-0.1-1.2-0.4-1.6c-0.3-0.4-0.7-0.5-1.4-0.5
		c-0.5,0-0.9,0.1-1.3,0.4c-0.3,0.3-0.5,0.7-0.5,1.3c0,0.5,0.2,0.9,0.5,1.2c0.4,0.4,0.8,0.7,1.3,0.9c0.5,0.3,1,0.5,1.5,0.8
		c0.5,0.3,0.9,0.7,1.3,1.2c0.4,0.5,0.5,1.1,0.5,1.8c0,1.1-0.3,2-1,2.5c-0.7,0.5-1.5,0.8-2.6,0.8c-0.7,0-1.2-0.1-1.7-0.3
		c-0.5-0.2-0.8-0.4-1-0.7c-0.2-0.3-0.4-0.6-0.5-1c-0.1-0.4-0.2-0.7-0.2-0.9C103.3,30.2,103.3,29.9,103.3,29.6z"/>
	<path class="st0" d="M112.2,29.6h1.5V30c0,0.7,0.2,1.3,0.6,1.6c0.4,0.3,0.8,0.5,1.4,0.5c1.4,0,2.1-0.6,2.1-1.9
		c0-0.5-0.2-0.9-0.5-1.2c-0.4-0.4-0.8-0.7-1.3-0.9c-0.5-0.3-1-0.5-1.5-0.8c-0.5-0.3-0.9-0.7-1.3-1.1s-0.5-1-0.5-1.7
		c0-1,0.3-1.8,0.9-2.3c0.6-0.6,1.4-0.8,2.5-0.8c2.2,0,3.3,1.1,3.2,3.4h-1.5c0-0.7-0.1-1.2-0.4-1.6c-0.3-0.4-0.7-0.5-1.4-0.5
		c-0.5,0-0.9,0.1-1.3,0.4c-0.3,0.3-0.5,0.7-0.5,1.3c0,0.5,0.2,0.9,0.5,1.2c0.4,0.4,0.8,0.7,1.3,0.9c0.5,0.3,1,0.5,1.5,0.8
		c0.5,0.3,0.9,0.7,1.3,1.2c0.4,0.5,0.5,1.1,0.5,1.8c0,1.1-0.3,2-1,2.5c-0.7,0.5-1.5,0.8-2.6,0.8c-0.7,0-1.2-0.1-1.7-0.3
		c-0.5-0.2-0.8-0.4-1-0.7s-0.4-0.6-0.5-1c-0.1-0.4-0.2-0.7-0.2-0.9C112.2,30.2,112.2,29.9,112.2,29.6z"/>
	<path class="st0" d="M127.5,33.1h-6.1V21.5h6v1.3h-4.5v3.7h4.2v1.3h-4.2v4h4.6V33.1z"/>
	<path class="st0" d="M136.2,21.5h1.3v11.6h-2l-4.6-10h0v10h-1.3V21.5h2.1l4.5,9.9h0V21.5z"/>
	<path class="st0" d="M139.8,29.6h1.5V30c0,0.7,0.2,1.3,0.6,1.6c0.4,0.3,0.8,0.5,1.4,0.5c1.4,0,2.1-0.6,2.1-1.9
		c0-0.5-0.2-0.9-0.5-1.2c-0.4-0.4-0.8-0.7-1.3-0.9c-0.5-0.3-1-0.5-1.5-0.8c-0.5-0.3-0.9-0.7-1.3-1.1c-0.4-0.5-0.5-1-0.5-1.7
		c0-1,0.3-1.8,0.9-2.3c0.6-0.6,1.4-0.8,2.5-0.8c2.2,0,3.3,1.1,3.2,3.4h-1.5c0-0.7-0.1-1.2-0.4-1.6c-0.3-0.4-0.7-0.5-1.4-0.5
		c-0.5,0-0.9,0.1-1.3,0.4c-0.3,0.3-0.5,0.7-0.5,1.3c0,0.5,0.2,0.9,0.5,1.2c0.4,0.4,0.8,0.7,1.3,0.9c0.5,0.3,1,0.5,1.5,0.8
		c0.5,0.3,0.9,0.7,1.3,1.2c0.4,0.5,0.5,1.1,0.5,1.8c0,1.1-0.3,2-1,2.5c-0.7,0.5-1.5,0.8-2.6,0.8c-0.7,0-1.2-0.1-1.7-0.3
		c-0.5-0.2-0.8-0.4-1-0.7c-0.2-0.3-0.4-0.6-0.5-1c-0.1-0.4-0.2-0.7-0.2-0.9C139.8,30.2,139.8,29.9,139.8,29.6z"/>
	<path class="st0" d="M155.7,24.7h-1.5c0-0.8-0.1-1.4-0.3-1.7c-0.1-0.2-0.3-0.3-0.6-0.4c-0.3-0.1-0.5-0.1-0.7-0.1
		c-0.4,0-0.7,0.1-1,0.2c-0.3,0.1-0.5,0.3-0.6,0.4c-0.1,0.1-0.2,0.2-0.2,0.3c0,0,0,0,0,0.1c0,0-0.1,0.1-0.1,0.2c0,0.1,0,0.1-0.1,0.3
		c0,0.1-0.1,0.3-0.1,0.4c0,0.2,0,0.4-0.1,0.6c0,0.3,0,0.5,0,0.9v3.1c0,0.7,0.1,1.2,0.2,1.7s0.3,0.8,0.5,1c0.2,0.2,0.4,0.3,0.6,0.4
		c0.2,0.1,0.5,0.1,0.8,0.1c0.2,0,0.3,0,0.5-0.1c0.2,0,0.4-0.1,0.6-0.3c0.2-0.1,0.4-0.4,0.6-0.7c0.1-0.4,0.2-0.8,0.2-1.3h1.5
		c0,0.5,0,1-0.1,1.4c-0.1,0.4-0.2,0.7-0.4,1s-0.3,0.5-0.5,0.6c-0.2,0.2-0.4,0.3-0.6,0.4c-0.2,0.1-0.4,0.2-0.6,0.2
		c-0.3,0-0.4,0.1-0.6,0.1c-0.1,0-0.3,0-0.4,0c-0.3,0-0.5,0-0.7,0c-0.2,0-0.4,0-0.7-0.1c-0.3-0.1-0.5-0.2-0.7-0.3
		c-0.2-0.1-0.4-0.3-0.6-0.5c-0.2-0.2-0.4-0.5-0.5-0.8c-0.1-0.3-0.2-0.7-0.3-1.2c-0.1-0.5-0.1-1-0.1-1.7v-3.3c0-1.5,0.3-2.6,0.9-3.3
		c0.6-0.6,1.6-0.9,2.8-0.9c1.1,0,1.9,0.3,2.4,0.9C155.6,22.7,155.8,23.5,155.7,24.7z"/>
	<path class="st0" d="M159.6,33.1h-1.5V21.5h1.5v5h4.1v-5h1.5v11.6h-1.5v-5.3h-4.1V33.1z"/>
	<path class="st0" d="M166.7,33.1l3.7-11.6h1.9l3.8,11.6h-1.7l-0.8-2.8h-4.5l-0.9,2.8H166.7z M173.2,29l-1.9-6.2h0l-1.8,6.2H173.2z"
		/>
	<path class="st0" d="M179,33.1h-1.5V21.5h5.7v1.3H179v3.7h4v1.3h-4V33.1z"/>
	<path class="st0" d="M183.7,21.5h7.6v1.3h-3v10.3h-1.5V22.8h-3V21.5z"/>
</g>
</svg>
