<?xml version="1.0" encoding="utf-8"?>
<!-- Generator: Adobe Illustrator 23.0.2, SVG Export Plug-In . SVG Version: 6.00 Build 0)  -->
<svg version="1.1" id="Laag_1" xmlns="http://www.w3.org/2000/svg" xmlns:xlink="http://www.w3.org/1999/xlink" x="0px" y="0px"
	 width="85.3px" height="18px" viewBox="0 0 85.3 18" style="enable-background:new 0 0 85.3 18;" xml:space="preserve">
<style type="text/css">
	.st0{fill:#1D1D1B;}
	.st1{fill:#FFFFFF;}
</style>
<rect x="27.2" y="16" class="st0" width="57.7" height="0.4"/>
<g>
	<path class="st1" d="M6.6,5.3c0,0.5,0,0.7-0.1,1C6.4,6.8,5.7,7.5,4.4,7.5c-0.9,0-1.8-0.3-2-1.2C2.3,6,2.3,5.8,2.3,5.2V2h1v3.3
		c0,0.3,0,0.4,0.1,0.6c0.1,0.3,0.4,0.6,1.1,0.6c0.1,0,0.9,0,1.1-0.6c0-0.1,0-0.3,0-0.6V2h1V5.3z"/>
	<path class="st1" d="M7.2,3.6h0.6V2.2h0.9v1.4h0.8v0.6H8.7v1.9c0,0.1,0,0.3,0.1,0.4c0.1,0.1,0.3,0.1,0.3,0.1c0.1,0,0.3,0,0.4,0v0.8
		c-0.1,0-0.3,0.1-0.7,0.1C8,7.5,7.7,7.2,7.7,6.6V4.2H7.2V3.6z"/>
	<path class="st1" d="M10.9,3.6v0.5c0.3-0.6,1-0.6,1.1-0.6h0.1v0.9c-0.2,0-0.9,0-1.1,0.7c-0.1,0.3-0.1,0.4-0.1,0.7v1.6H10V3.6H10.9z
		"/>
	<path class="st1" d="M13.4,5.7c0,0.2,0.2,0.9,1.1,0.9c0.6,0,0.9-0.4,1-0.5l0.8,0.4c-0.3,0.4-0.9,1-1.9,1c-1.1,0-2-0.8-2-2
		c0-1.4,0.9-2,1.9-2c1.5,0,1.9,1.2,1.9,2.2C16.2,5.7,13.4,5.7,13.4,5.7z M15.2,5c0-0.2-0.1-0.8-0.9-0.8c-0.8,0-0.9,0.6-0.9,0.8H15.2
		z"/>
	<path class="st1" d="M20.2,6.3c-0.3,0.8-1,1.2-1.7,1.2c-1.1,0-1.9-0.9-1.9-2c0-1,0.7-2,1.9-2c1,0,1.5,0.7,1.6,1.1L19.3,5
		c0-0.4-0.3-0.7-0.8-0.7c-0.6,0-0.9,0.5-0.9,1.2s0.3,1.2,1,1.2c0.6,0,0.9-0.6,0.9-0.7L20.2,6.3z"/>
	<path class="st1" d="M23.4,7.4V5.2c0-0.6-0.3-0.8-0.7-0.8c-0.5,0-1,0.4-1,0.9v2.1h-0.9V2h0.9v2c0.2-0.3,0.7-0.5,1.2-0.5
		c0.8,0,1.4,0.5,1.4,1.3v2.6H23.4z"/>
	<path class="st1" d="M24.7,3.6h0.6V2.2h0.9v1.4H27v0.6h-0.8v1.9c0,0.1,0,0.3,0.1,0.4s0.3,0.1,0.3,0.1c0.1,0,0.3,0,0.4,0v0.8
		c-0.1,0-0.3,0.1-0.7,0.1c-0.8,0-1.1-0.3-1.1-0.9V4.2h-0.6V3.6H24.7z"/>
	<path class="st1" d="M28.6,7.5c0,0.6-0.4,0.8-1,0.9V8C28,8,28,7.7,28,7.4h-0.5v-1h1v1.1H28.6z"/>
	<path class="st1" d="M30.6,3.6h0.6V2.2h0.9v1.4h0.8v0.6h-0.8v1.9c0,0.1,0,0.3,0.1,0.4c0.1,0.1,0.3,0.1,0.3,0.1c0.1,0,0.3,0,0.4,0
		v0.8c-0.1,0-0.3,0.1-0.7,0.1c-0.8,0-1.1-0.3-1.1-0.9V4.2h-0.6V3.6H30.6z"/>
	<path class="st1" d="M36,7.4V5.2c0-0.6-0.3-0.8-0.7-0.8c-0.5,0-1,0.4-1,0.9v2.1h-0.9V2h0.9v2c0.2-0.2,0.6-0.5,1.2-0.5
		c0.8,0,1.4,0.5,1.4,1.3v2.6H36z"/>
	<path class="st1" d="M38.6,5.7c0,0.2,0.2,0.9,1.1,0.9c0.6,0,0.9-0.4,1-0.5l0.8,0.4c-0.3,0.4-0.9,1-1.9,1c-1.1,0-2-0.8-2-2
		c0-1.4,0.9-2,1.9-2c1.5,0,1.9,1.2,1.9,2.2C41.4,5.7,38.6,5.7,38.6,5.7z M40.4,5c0-0.2-0.1-0.8-0.9-0.8c-0.8,0-0.9,0.6-0.9,0.8H40.4
		z"/>
	<path class="st1" d="M47.2,7.4l-2.4-3.8c0,0,0.1,3.7,0.1,3.8h-1V2h0.9l2.4,3.8c0,0-0.1-3.7-0.1-3.8h1v5.4
		C48.1,7.4,47.2,7.4,47.2,7.4z"/>
	<path class="st1" d="M49.9,5.7c0,0.2,0.2,0.9,1.1,0.9c0.6,0,0.9-0.4,1-0.5l0.8,0.4c-0.3,0.4-0.9,1-1.9,1c-1.1,0-2-0.8-2-2
		c0-1.4,0.9-2,1.9-2c1.5,0,1.9,1.2,1.9,2.2C52.7,5.7,49.9,5.7,49.9,5.7z M51.7,5c0-0.2-0.1-0.8-0.9-0.8c-0.8,0-0.9,0.6-0.9,0.8H51.7
		z"/>
	<path class="st1" d="M52.9,3.6h0.6V2.2h0.9v1.4h0.8v0.6h-0.8v1.9c0,0.1,0,0.3,0.1,0.4s0.3,0.1,0.3,0.1c0.1,0,0.3,0,0.4,0v0.8
		c-0.1,0-0.3,0.1-0.7,0.1c-0.8,0-1.1-0.3-1.1-0.9V4.2h-0.5V3.6z"/>
	<path class="st1" d="M58.3,7.4V5.2c0-0.6-0.3-0.8-0.7-0.8c-0.5,0-1,0.4-1,0.9v2.1h-0.9V2h0.9v2c0.2-0.2,0.6-0.5,1.2-0.5
		c0.8,0,1.4,0.5,1.4,1.3v2.6H58.3z"/>
	<path class="st1" d="M60.9,5.7c0,0.2,0.2,0.9,1.1,0.9c0.6,0,0.9-0.4,1-0.5l0.8,0.4c-0.3,0.4-0.9,1-1.9,1c-1.1,0-2-0.8-2-2
		c0-1.4,0.9-2,1.9-2c1.5,0,1.9,1.2,1.9,2.2C63.7,5.7,60.9,5.7,60.9,5.7z M62.7,5c0-0.2-0.1-0.8-0.9-0.8c-0.8,0-0.9,0.6-0.9,0.8H62.7
		z"/>
	<path class="st1" d="M65.2,3.6v0.5c0.3-0.6,1-0.6,1.1-0.6h0.1v0.9c-0.2,0-0.9,0-1.1,0.7c-0.1,0.2-0.1,0.4-0.1,0.6v1.6h-0.9V3.6
		H65.2z"/>
	<path class="st1" d="M66.9,7.4V2h1v5.4C67.9,7.4,66.9,7.4,66.9,7.4z"/>
	<path class="st1" d="M71.1,7.4V7.1c-0.3,0.2-0.7,0.4-1.2,0.4c-0.9,0-1.4-0.5-1.4-1.2c0-0.8,0.6-1.2,1.4-1.3
		c0.6-0.1,0.9-0.2,1.2-0.3c0-0.3-0.1-0.6-0.7-0.6c-0.7,0-0.8,0.4-0.8,0.6l-0.9-0.1c0-0.3,0.1-1.2,1.7-1.2c1.1,0,1.6,0.4,1.6,1.1v2.2
		c0,0.3,0,0.4,0.2,0.6h-1.1V7.4z M71.1,5.5c-0.2,0.1-0.4,0.2-0.7,0.2c-0.4,0.1-0.8,0.1-0.8,0.5c0,0.3,0.2,0.5,0.6,0.5
		s0.9-0.2,0.9-0.7V5.5z"/>
	<path class="st1" d="M73.8,3.6V4c0.3-0.5,1-0.6,1.2-0.6c0.8,0,1.2,0.5,1.2,1.3v2.7h-0.9V5.3c0-0.4-0.1-0.9-0.7-0.9
		c-0.1,0-0.3,0-0.5,0.2c-0.3,0.2-0.4,0.5-0.4,1.2v1.7h-0.9V3.6H73.8z"/>
	<path class="st1" d="M79.6,7.4V7c-0.1,0.1-0.4,0.5-1.1,0.5c-0.8,0-1.7-0.6-1.7-1.9c0-1.4,0.8-2.1,1.7-2.1c0.3,0,0.8,0.1,1,0.4V2
		h0.9v5.4C80.4,7.4,79.6,7.4,79.6,7.4z M78.7,6.7c0.5,0,0.9-0.4,0.9-1.1c0-0.6-0.2-1.2-0.9-1.2c-0.6,0-0.9,0.5-0.9,1.2
		C77.8,6,78,6.7,78.7,6.7z"/>
	<path class="st1" d="M83.9,4.8c-0.2-0.4-0.6-0.6-1-0.6c-0.2,0-0.6,0.1-0.6,0.4s0.2,0.3,0.8,0.4l0.6,0.1c0.6,0.1,1,0.4,1,1.1
		S84,7.5,83,7.5c-1.1,0-1.6-0.5-1.8-0.7l0.6-0.5c0.2,0.2,0.5,0.5,1.1,0.5c0.5,0,0.7-0.3,0.7-0.4c0-0.2-0.2-0.3-0.6-0.4l-0.5-0.1
		c-0.3-0.1-1.3-0.2-1.3-1.1c0-0.8,0.7-1.2,1.6-1.2c0.3,0,1.1,0,1.6,0.7L83.9,4.8z"/>
</g>
<g>
	<path class="st0" d="M27.7,14.6V9.2h0.9v5.4H27.7z"/>
	<path class="st0" d="M30.3,12.9c0,0.2,0.2,0.9,1.1,0.9c0.6,0,0.9-0.4,1-0.5l0.8,0.4c-0.3,0.4-0.9,1-1.9,1c-1.1,0-2-0.8-2-2
		c0-1.4,0.9-2,1.9-2c1.5,0,1.9,1.2,1.9,2.2C33.1,12.9,30.3,12.9,30.3,12.9z M32.1,12.2c0-0.2-0.1-0.8-0.9-0.8s-0.9,0.6-0.9,0.8H32.1
		z"/>
	<path class="st0" d="M37.2,14.4c0,1.1-0.8,1.5-1.8,1.5c-1.4,0-1.6-0.7-1.7-1.2h1c0.1,0.4,0.5,0.5,0.8,0.5c0.5,0,0.9-0.2,0.9-0.8V14
		c-0.4,0.4-1,0.4-1.2,0.4c-0.8,0-1.6-0.5-1.6-1.8s0.9-1.9,1.7-1.9c0.5,0,0.9,0.2,1.1,0.5v-0.4h0.9L37.2,14.4L37.2,14.4z M35.4,11.5
		c-0.5,0-0.9,0.3-0.9,1.1c0,0.6,0.3,1,0.9,1s0.9-0.4,0.9-1C36.4,12,36,11.5,35.4,11.5z"/>
	<path class="st0" d="M40.7,14.6v-0.4c-0.2,0.2-0.6,0.5-1.2,0.5s-0.9-0.3-1.1-0.5c-0.2-0.3-0.2-0.7-0.2-1v-2.4H39V13
		c0,0.4,0.1,0.8,0.7,0.8c0.4,0,0.7-0.3,0.7-0.4c0.1-0.3,0.1-0.6,0.1-0.9v-1.7h0.9v3.8C41.5,14.6,40.7,14.6,40.7,14.6z"/>
	<path class="st0" d="M43.2,12.9c0,0.2,0.2,0.9,1.1,0.9c0.6,0,0.9-0.4,1-0.5l0.8,0.4c-0.3,0.4-0.9,1-1.9,1c-1.1,0-2-0.8-2-2
		c0-1.4,0.9-2,1.9-2c1.5,0,1.9,1.2,1.9,2.2C46.1,12.9,43.2,12.9,43.2,12.9z M45.1,12.2c0-0.2-0.1-0.8-0.9-0.8s-0.9,0.6-0.9,0.8H45.1
		z"/>
	<path class="st0" d="M49.2,12c-0.2-0.4-0.6-0.6-1-0.6c-0.2,0-0.6,0.1-0.6,0.4c0,0.3,0.2,0.3,0.8,0.4l0.6,0.1c0.6,0.1,1,0.4,1,1.1
		c0,0.7-0.7,1.3-1.7,1.3s-1.6-0.4-1.9-0.7l0.7-0.6c0.2,0.2,0.5,0.5,1.1,0.5c0.5,0,0.7-0.3,0.7-0.4c0-0.2-0.2-0.3-0.6-0.4L47.8,13
		c-0.3-0.1-1.3-0.2-1.3-1.1c0-0.8,0.7-1.2,1.6-1.2c0.3,0,1.1,0,1.6,0.7L49.2,12z"/>
	<path class="st0" d="M53.1,12c-0.2-0.4-0.6-0.6-1-0.6c-0.2,0-0.6,0.1-0.6,0.4c0,0.3,0.2,0.3,0.8,0.4l0.6,0.1c0.6,0.1,1,0.4,1,1.1
		c0,0.7-0.7,1.3-1.7,1.3s-1.6-0.5-1.8-0.7l0.7-0.6c0.2,0.2,0.5,0.5,1.1,0.5c0.5,0,0.7-0.3,0.7-0.4c0-0.2-0.2-0.3-0.6-0.4L51.8,13
		c-0.3-0.1-1.3-0.2-1.3-1.1c0-0.8,0.7-1.2,1.6-1.2c0.3,0,1.1,0,1.6,0.7L53.1,12z"/>
	<path class="st0" d="M58.5,14.6h-0.9l-0.7-2.4l-0.7,2.4h-0.9l-1.1-3.8h1l0.7,2.6l0.7-2.6h0.8l0.7,2.6l0.7-2.6h1L58.5,14.6z"/>
	<path class="st0" d="M62.7,14.6v-2.2c0-0.6-0.3-0.8-0.7-0.8c-0.5,0-1,0.4-1,0.9v2.1H60V9.2H61v2c0.2-0.2,0.6-0.5,1.2-0.5
		c0.8,0,1.4,0.5,1.4,1.3v2.6H62.7z"/>
	<path class="st0" d="M66.2,14.7c-1.4,0-2-1.1-2-2s0.6-2,2-2c0.8,0,2,0.6,2,2C68.2,13.7,67.6,14.7,66.2,14.7z M66.2,13.9
		c0.7,0,1-0.6,1-1.2c0-0.6-0.3-1.2-1-1.2c-0.5,0-1,0.4-1,1.2C65.2,13.3,65.6,13.9,66.2,13.9z"/>
	<path class="st0" d="M68.7,14.6v-1h1v1H68.7z"/>
	<path class="st0" d="M73.8,13.5c-0.3,0.8-1,1.2-1.7,1.2c-1.1,0-1.9-0.9-1.9-2c0-1,0.7-2,1.9-2c1,0,1.5,0.7,1.6,1.1l-0.8,0.4
		c-0.1-0.3-0.4-0.6-0.9-0.6c-0.6,0-0.9,0.5-0.9,1.2s0.3,1.2,1,1.2c0.6,0,0.9-0.6,0.9-0.7L73.8,13.5z"/>
	<path class="st0" d="M76.2,14.7c-1.4,0-2-1.1-2-2s0.6-2,2-2c0.8,0,2,0.6,2,2C78.1,13.7,77.4,14.7,76.2,14.7z M76.2,13.9
		c0.7,0,1-0.6,1-1.2c0-0.6-0.3-1.2-1-1.2c-0.5,0-1,0.4-1,1.2C75.1,13.3,75.4,13.9,76.2,13.9z"/>
	<path class="st0" d="M79.7,10.8v0.4c0.2-0.2,0.6-0.5,1.2-0.5c0.4,0,0.8,0.2,1.1,0.6c0.2-0.3,0.6-0.6,1.2-0.6c0.8,0,1.3,0.4,1.3,1.3
		v2.6h-0.9v-2.3c0-0.1,0-0.7-0.6-0.7c-0.1,0-0.5,0.1-0.7,0.4c-0.2,0.3-0.2,0.6-0.2,0.9v1.8h-0.9v-2.3c0-0.3-0.1-0.7-0.6-0.7
		c-0.1,0-0.3,0-0.5,0.2c-0.4,0.2-0.4,0.7-0.4,1.1v1.6h-0.9v-3.8H79.7z"/>
</g>
</svg>
