<?xml version="1.0" encoding="utf-8"?>
<!-- Generator: Adobe Illustrator 22.1.0, SVG Export Plug-In . SVG Version: 6.00 Build 0)  -->
<svg version="1.1" id="Laag_1" xmlns="http://www.w3.org/2000/svg" xmlns:xlink="http://www.w3.org/1999/xlink" x="0px" y="0px"
	 viewBox="0 0 161.7 61.7" style="enable-background:new 0 0 161.7 61.7;" xml:space="preserve">
<style type="text/css">
	.st0{fill:#EAEDE1;}
	.st1{font-family:'Moderat-Regular';}
	.st2{font-size:12.3015px;}
</style>
<g>
	<path class="st0" d="M2,8.5h4.5v1H0.9V0.9h5.4v1H2v2.7h3.8v1H2V8.5z"/>
	<path class="st0" d="M13.9,9.5h-1.3l-2-3.5l0,0H9v3.5H7.9V0.9h2.9c0.9,0,1.5,0.2,2,0.7s0.8,1.1,0.8,1.8c0,0.6-0.2,1.1-0.5,1.5
		c-0.3,0.4-0.8,0.7-1.3,0.9L13.9,9.5z M9,1.9v3h1.7c0.6,0,1-0.1,1.3-0.4s0.5-0.6,0.5-1.1S12.3,2.6,12,2.3s-0.8-0.4-1.3-0.4
		C10.7,1.9,9,1.9,9,1.9z"/>
	<path class="st0" d="M16.5,0.9v8.6h-1.2V0.9H16.5z"/>
	<path class="st0" d="M23.5,9.5l-3.2-3.9h-0.6v3.9h-1.1V0.9h1.1v3.6h0.6l2.9-3.6h1.3L21.3,5v0.1l3.6,4.4H23.5z"/>
	<path class="st0" d="M38,0.9h1.1l-1.7,8.6h-1.7L34,3h-0.1l-1.7,6.5h-1.6l-1.8-8.6h1.1l1.5,7.2h0.1l1.8-6.6h1.5l1.8,6.6h0.1L38,0.9z
		"/>
	<path class="st0" d="M45.8,0.9H47v8.6h-1.1V5.7h-4.2v3.8h-1.1V0.9h1.1v3.7h4.2V0.9H45.8z"/>
	<path class="st0" d="M50.3,0.9v8.6h-1.2V0.9H50.3z"/>
	<path class="st0" d="M53.4,8.5h4.5v1h-5.6V0.9h5.4v1h-4.3v2.7h3.8v1h-3.8C53.4,5.6,53.4,8.5,53.4,8.5z"/>
	<path class="st0" d="M65.1,0.9h1.1v8.6H65l-4.5-6.7h-0.1v6.7h-1.1V0.9h1.3L65,7.5h0.1V0.9z"/>
	<path class="st0" d="M78.3,9.5h-1.2L76,8.3c-0.4,0.4-0.8,0.8-1.2,1c-0.4,0.2-0.9,0.3-1.4,0.3c-0.7,0-1.2-0.2-1.7-0.6
		C71.3,8.6,71,8.1,71,7.5c0-0.5,0.1-1,0.4-1.4C71.9,5.9,72.3,5.5,73,5c-0.3-0.3-0.5-0.5-0.6-0.6C72.2,4.2,72.1,4,72,3.7
		s-0.2-0.6-0.2-0.9c0-0.6,0.2-1,0.6-1.4s0.9-0.6,1.6-0.6s1.2,0.2,1.6,0.5c0.4,0.4,0.6,0.8,0.6,1.4c0,0.3,0,0.5-0.1,0.7
		C76,3.6,75.9,3.8,75.7,4c-0.2,0.2-0.4,0.4-0.5,0.5c-0.2,0.1-0.4,0.3-0.8,0.6L76,6.8l0.9-1.4H78l-1.2,1.9c0,0,0,0.1-0.1,0.1
		s-0.1,0.1-0.1,0.1L78.3,9.5z M73.5,8.7c0.6,0,1.3-0.4,1.9-1.1l-1.8-1.9c-0.5,0.4-0.9,0.7-1.1,1c-0.2,0.2-0.3,0.5-0.3,0.9
		c0,0.3,0.1,0.6,0.4,0.8C72.8,8.5,73.1,8.7,73.5,8.7z M74,1.7c-0.4,0-0.6,0.1-0.9,0.3c-0.2,0.2-0.3,0.5-0.3,0.8s0.1,0.5,0.2,0.7
		s0.4,0.5,0.7,0.9c0.4-0.2,0.6-0.4,0.8-0.6s0.3-0.3,0.5-0.5c0.1-0.2,0.2-0.4,0.2-0.6c0-0.3-0.1-0.5-0.4-0.7S74.3,1.7,74,1.7z"/>
</g>
<text transform="matrix(1 0 0 1 82.0366 9.499)" class="st0 st1 st2"> </text>
<g>
	<path class="st0" d="M86.3,4.7C87.4,5.1,88,5.8,88,6.9c0,0.8-0.3,1.4-0.8,1.8s-1.2,0.6-2,0.6h-3V0.7h2.7c0.8,0,1.5,0.2,1.9,0.6
		c0.5,0.4,0.7,0.9,0.7,1.6C87.7,3.7,87.2,4.2,86.3,4.7L86.3,4.7z M83.3,1.6v2.7h1.6c0.5,0,0.9-0.1,1.2-0.4c0.3-0.3,0.4-0.6,0.4-1
		s-0.1-0.8-0.4-1c-0.3-0.2-0.7-0.3-1.1-0.3C85.1,1.6,83.3,1.6,83.3,1.6z M85.2,8.2c0.5,0,1-0.1,1.3-0.4c0.3-0.3,0.5-0.6,0.5-1.1
		S86.8,6,86.4,5.7c-0.3-0.3-0.8-0.4-1.3-0.4h-1.8v3C83.3,8.3,85.2,8.3,85.2,8.2z"/>
	<path class="st0" d="M93.5,9.4c-1.2,0-2.2-0.4-3.1-1.3c-0.9-0.9-1.1-1.9-1.1-3.1s0.4-2.3,1.2-3.2c0.8-0.9,1.8-1.3,3-1.3
		c1.2,0,2.2,0.4,3,1.3c0.8,0.8,1.2,1.9,1.2,3.2s-0.4,2.3-1.2,3.2C95.8,9.1,94.8,9.4,93.5,9.4z M93.5,8.2c0.9,0,1.6-0.3,2.2-1
		c0.6-0.6,0.9-1.4,0.9-2.4c0-0.9-0.3-1.7-0.9-2.4c-0.6-0.6-1.3-1-2.2-1c-0.9,0-1.6,0.3-2.2,1S90.5,4,90.5,5c0,0.9,0.3,1.7,0.9,2.4
		C91.9,8,92.7,8.2,93.5,8.2z"/>
	<path class="st0" d="M103.4,9.4c-1.2,0-2.2-0.4-3.1-1.3s-1.2-1.9-1.2-3.2s0.4-2.3,1.2-3.2s1.8-1.3,3-1.3c1.2,0,2.2,0.4,3,1.3
		c0.8,0.8,1.2,1.9,1.2,3.2s-0.4,2.3-1.2,3.2S104.7,9.4,103.4,9.4z M103.4,8.2c0.9,0,1.6-0.3,2.2-1c0.6-0.6,0.9-1.4,0.9-2.4
		c0-0.9-0.3-1.7-0.9-2.4c-0.6-0.6-1.3-1-2.2-1c-0.9,0-1.6,0.3-2.2,1c-0.6,0.6-0.9,1.4-0.9,2.4c0,0.9,0.3,1.7,0.9,2.4
		C101.8,8,102.6,8.2,103.4,8.2z"/>
	<path class="st0" d="M112.8,4.7h3.8v4.5h-0.8l-0.2-0.9h-0.1c-0.7,0.7-1.6,1.1-2.6,1.1c-1.2,0-2.1-0.4-2.8-1.2c-0.7-0.8-1-1.8-1-3
		c0-1.3,0.4-2.5,1.1-3.3c0.7-0.9,1.7-1.3,2.8-1.3c1,0,1.8,0.3,2.4,0.8c0.6,0.5,1,1.2,1.1,2h-1.2c-0.1-0.5-0.4-0.9-0.8-1.2
		c-0.4-0.3-0.9-0.5-1.5-0.5c-0.9,0-1.5,0.3-2.1,1c-0.5,0.7-0.8,1.5-0.8,2.5s0.2,1.7,0.7,2.3c0.5,0.6,1.2,0.9,2.1,0.9
		c0.5,0,1-0.1,1.4-0.3c0.4-0.2,0.7-0.5,1-0.7V5.9h-2.6L112.8,4.7L112.8,4.7z"/>
	<path class="st0" d="M124.1,9.2L123.3,7h-3.5l-0.7,2.2h-1.2l3-8.6h1.4l2.9,8.6L124.1,9.2L124.1,9.2z M120.2,6h2.8l-1.4-4.1h-0.1
		L120.2,6z"/>
	<path class="st0" d="M127.7,8.2h4.5v1h-5.6V0.6h5.4v1h-4.3v2.7h3.8v1h-3.8C127.7,5.3,127.7,8.2,127.7,8.2z"/>
	<path class="st0" d="M139.6,9.2h-1.2l-2.1-3.5l0,0h-1.7v3.5h-1.1V0.6h2.9c0.9,0,1.5,0.2,2,0.7c0.5,0.5,0.8,1.1,0.8,1.8
		c0,0.6-0.2,1.1-0.5,1.5c-0.3,0.4-0.8,0.7-1.3,0.9L139.6,9.2z M134.6,1.7v3h1.7c0.6,0,1-0.1,1.3-0.4c0.3-0.3,0.5-0.6,0.5-1.1
		s-0.2-0.8-0.5-1.1c-0.3-0.3-0.8-0.4-1.3-0.4H134.6z"/>
	<path class="st0" d="M143.4,0.6c1.4,0,2.4,0.4,3.2,1.2c0.8,0.8,1.1,1.8,1.1,3.1c0,1.3-0.4,2.4-1.1,3.2c-0.7,0.8-1.8,1.2-3.2,1.2
		h-2.5V0.7h2.5V0.6z M143.4,8.2c1,0,1.8-0.3,2.4-0.9s0.8-1.4,0.8-2.4s-0.3-1.7-0.8-2.3c-0.5-0.6-1.3-0.9-2.3-0.9h-1.4v6.5
		C142.1,8.2,143.4,8.2,143.4,8.2z"/>
	<path class="st0" d="M154.4,0.6v1h-2.5v7.6h-1.1V1.6h-2.5v-1H154.4z"/>
	<path class="st0" d="M159.8,0l-4.4,9.9h-1.2l4.4-9.8L159.8,0L159.8,0z"/>
</g>
<text transform="matrix(1 0 0 1 81.9888 26.2607)" class="st0 st1 st2"> </text>
<g>
	<path class="st0" d="M6.5,15.4h1.2L4.8,24H3.2l-2.9-8.6h1.2L4,22.8h0.1L6.5,15.4z"/>
	<path class="st0" d="M13.5,24l-0.7-2.2H9.3L8.5,24H7.3l3-8.6h1.5l2.9,8.6H13.5z M9.6,20.8h2.8L11,16.7h-0.1L9.6,20.8z"/>
	<path class="st0" d="M21.8,15.4h1.1V24h-1.2l-4.5-6.7h-0.1V24H16v-8.6h1.3l4.4,6.7h0.1V15.4z"/>
	<path class="st0" d="M27.5,15.4c1.4,0,2.4,0.4,3.2,1.2s1.1,1.8,1.1,3.1s-0.4,2.4-1.1,3.2C30,23.6,28.9,24,27.5,24H25v-8.6H27.5z
		 M27.5,23c1,0,1.8-0.3,2.4-0.9s0.8-1.4,0.8-2.4s-0.3-1.7-0.8-2.3c-0.5-0.6-1.3-0.9-2.3-0.9h-1.4V23H27.5z"/>
	<path class="st0" d="M34.7,23h4.5v1h-5.6v-8.6H39v1h-4.3v2.7h3.8v1h-3.8V23z"/>
	<path class="st0" d="M46.6,24h-1.3l-2.1-3.5l0,0h-1.7V24h-1.1v-8.6h2.9c0.9,0,1.5,0.2,2,0.7s0.8,1.1,0.8,1.8c0,0.6-0.2,1.1-0.5,1.5
		s-0.8,0.7-1.3,0.9L46.6,24z M41.6,16.5v3h1.7c0.6,0,1-0.1,1.3-0.4c0.3-0.3,0.5-0.6,0.5-1.1s-0.2-0.8-0.5-1.1
		c-0.3-0.3-0.8-0.4-1.3-0.4H41.6z"/>
	<path class="st0" d="M53.7,21.9c0,0.7-0.3,1.3-0.8,1.7s-1.2,0.6-2.1,0.6c-1,0-1.7-0.3-2.3-0.8c-0.5-0.5-0.8-1.2-0.8-2h1.2
		c0,0.5,0.2,0.9,0.5,1.3c0.3,0.3,0.8,0.5,1.5,0.5c0.5,0,0.9-0.1,1.2-0.3s0.5-0.5,0.5-1c0-0.4-0.1-0.7-0.4-1s-0.8-0.5-1.6-0.8
		s-1.4-0.6-1.9-0.9c-0.4-0.4-0.7-0.9-0.7-1.5c0-0.7,0.3-1.3,0.8-1.7c0.5-0.4,1.2-0.6,1.9-0.6c0.9,0,1.6,0.2,2.1,0.7s0.8,1.1,0.8,1.8
		h-1.1c0-0.4-0.2-0.8-0.5-1.1c-0.3-0.3-0.7-0.4-1.3-0.4c-0.5,0-0.8,0.1-1.1,0.4c-0.3,0.3-0.4,0.5-0.4,0.9c0,0.4,0.1,0.7,0.4,0.9
		c0.3,0.2,0.8,0.5,1.5,0.7c0.9,0.3,1.6,0.7,2,1.1C53.4,20.7,53.7,21.2,53.7,21.9z"/>
	<path class="st0" d="M62.7,21.4c-0.2,0.8-0.6,1.5-1.3,2s-1.4,0.8-2.3,0.8c-1.2,0-2.2-0.4-3-1.2c-0.8-0.9-1.1-2-1.1-3.3
		s0.4-2.3,1.1-3.2c0.7-0.8,1.7-1.3,2.9-1.3c0.9,0,1.7,0.2,2.4,0.7s1.1,1.2,1.2,2.1h-1.2c-0.1-0.5-0.4-1-0.8-1.3s-0.9-0.5-1.5-0.5
		c-0.8,0-1.5,0.3-2,1s-0.8,1.4-0.8,2.4s0.3,1.8,0.8,2.4c0.5,0.6,1.2,0.9,2.1,0.9c0.6,0,1.1-0.2,1.5-0.5s0.7-0.7,0.9-1.2h1.1V21.4z"
		/>
	<path class="st0" d="M69.6,15.4h1.1V24h-1.1v-3.8h-4.2V24h-1.1v-8.6h1.1v3.7h4.2V15.4z"/>
	<path class="st0" d="M76.7,24.1c-1.2,0-2.2-0.4-3.1-1.3s-1.2-1.9-1.2-3.2s0.4-2.3,1.2-3.2s1.8-1.3,3-1.3s2.2,0.4,3,1.3
		c0.8,0.8,1.2,1.9,1.2,3.2s-0.4,2.3-1.2,3.2S77.9,24.1,76.7,24.1z M76.7,23c0.9,0,1.6-0.3,2.2-1c0.6-0.6,0.9-1.4,0.9-2.4
		c0-0.9-0.3-1.7-0.9-2.4c-0.6-0.6-1.3-1-2.2-1c-0.9,0-1.6,0.3-2.2,1c-0.6,0.6-0.9,1.4-0.9,2.4c0,0.9,0.3,1.7,0.9,2.4
		S75.8,23,76.7,23z"/>
	<path class="st0" d="M86.6,24.1c-1.2,0-2.2-0.4-3.1-1.3s-1.2-1.9-1.2-3.2s0.4-2.3,1.2-3.2s1.8-1.3,3-1.3s2.2,0.4,3,1.3
		c0.8,0.8,1.2,1.9,1.2,3.2s-0.4,2.3-1.2,3.2S87.8,24.1,86.6,24.1z M86.6,23c0.9,0,1.6-0.3,2.2-1c0.6-0.6,0.9-1.4,0.9-2.4
		c0-0.9-0.3-1.7-0.9-2.4c-0.6-0.6-1.3-1-2.2-1c-0.9,0-1.6,0.3-2.2,1c-0.6,0.6-0.9,1.4-0.9,2.4c0,0.9,0.3,1.7,0.9,2.4
		S85.7,23,86.6,23z"/>
	<path class="st0" d="M97.6,15.4v1h-2.5V24H94v-7.6h-2.5v-1H97.6z"/>
</g>
<g>
	<path class="st0" d="M1.9,40.7V35H0.4v-0.9h0.7c0.6,0,0.9-0.3,0.9-0.9v-0.4h1v7.9C3,40.7,1.9,40.7,1.9,40.7z"/>
	<path class="st0" d="M7.1,37.8c-0.6,0-1.1-0.2-1.6-0.7S4.8,36,4.8,35.3c0-0.8,0.2-1.4,0.7-1.9s1.1-0.7,1.9-0.7s1.5,0.2,1.9,0.7
		s0.7,1.1,0.7,1.9c0,0.4-0.1,0.9-0.3,1.3C9.5,37,9.3,37.5,8.9,38l-1.7,2.7H6.1l2.2-3.2C8,37.7,7.6,37.8,7.1,37.8z M7.5,33.7
		c-0.5,0-0.9,0.2-1.2,0.5c-0.3,0.3-0.4,0.7-0.4,1.2s0.1,0.8,0.4,1.2S7,37,7.5,37s0.9-0.2,1.2-0.5C8.9,36.2,9,35.8,9,35.4
		s-0.1-0.9-0.4-1.2S7.9,33.7,7.5,33.7z"/>
	<path class="st0" d="M14.4,36.4h4.4v0.9h-4.4V36.4z"/>
	<path class="st0" d="M26.5,37.5c-1.2,0.7-1.8,1.5-1.8,2.2h3.8v1h-5.1v-0.5c0-1.3,0.7-2.4,2.1-3.3c0.8-0.5,1.3-0.9,1.5-1.1
		c0.3-0.3,0.4-0.6,0.4-0.9c0-0.4-0.1-0.7-0.4-0.9c-0.2-0.2-0.6-0.4-1-0.4c-0.5,0-0.9,0.2-1.1,0.5c-0.3,0.3-0.4,0.7-0.4,1.2h-1.1
		c0-0.4,0.1-0.8,0.3-1.2c0.2-0.4,0.5-0.7,0.9-1s0.9-0.4,1.5-0.4c0.7,0,1.3,0.2,1.8,0.6c0.5,0.4,0.7,0.9,0.7,1.6c0,0.5-0.2,1-0.5,1.4
		C27.6,36.7,27.1,37.1,26.5,37.5z"/>
	<path class="st0" d="M34.9,39.8c-0.5,0.7-1.2,1-2.1,1s-1.6-0.3-2.1-1s-0.8-1.7-0.8-3s0.3-2.3,0.8-3s1.2-1,2.1-1
		c0.9,0,1.6,0.3,2.1,1s0.8,1.7,0.8,3S35.4,39.1,34.9,39.8z M31.5,39c0.3,0.5,0.7,0.8,1.2,0.8s0.9-0.3,1.2-0.8s0.5-1.3,0.5-2.3
		S34.3,35,34,34.5s-0.7-0.8-1.2-0.8s-0.9,0.3-1.2,0.8c-0.3,0.5-0.5,1.3-0.5,2.3C31.1,37.8,31.2,38.5,31.5,39z"/>
	<path class="st0" d="M44.6,40.8c-1.2,0-2.2-0.4-3.1-1.3s-1.2-1.9-1.2-3.2s0.4-2.3,1.2-3.2s1.8-1.3,3-1.3s2.2,0.4,3,1.3
		c0.8,0.8,1.2,1.9,1.2,3.2s-0.4,2.3-1.2,3.2S45.9,40.8,44.6,40.8z M44.6,39.7c0.9,0,1.6-0.3,2.2-1c0.6-0.6,0.9-1.4,0.9-2.4
		c0-0.9-0.3-1.7-0.9-2.4c-0.6-0.6-1.3-1-2.2-1s-1.6,0.3-2.2,1c-0.6,0.6-0.9,1.4-0.9,2.4c0,0.9,0.3,1.7,0.9,2.4S43.8,39.7,44.6,39.7z
		"/>
	<path class="st0" d="M55.6,40.7l-3.2-3.9h-0.6v3.9h-1.1v-8.6h1.1v3.6h0.6l2.9-3.6h1.3l-3.2,4.1v0.1l3.6,4.4
		C57,40.7,55.6,40.7,55.6,40.7z"/>
	<path class="st0" d="M63.9,32.1v1h-2.5v7.6h-1.1v-7.6h-2.5v-1H63.9z"/>
</g>
<g>
	<path class="st0" d="M21,48.7v1h-2.5v7.6h-1.1v-7.6h-2.5v-1H21z"/>
	<path class="st0" d="M28.5,57.3h-1.3l-2.1-3.5l0,0h-1.7v3.5h-1.1v-8.6h2.9c0.9,0,1.5,0.2,2,0.7s0.8,1.1,0.8,1.8
		c0,0.6-0.2,1.1-0.5,1.5s-0.8,0.7-1.3,0.9L28.5,57.3z M23.5,49.8v3h1.7c0.6,0,1-0.1,1.3-0.4s0.5-0.6,0.5-1.1s-0.2-0.8-0.5-1.1
		c-0.3-0.3-0.8-0.4-1.3-0.4H23.5z"/>
	<path class="st0" d="M38.9,55.2c0,0.7-0.3,1.3-0.8,1.7c-0.5,0.4-1.2,0.6-2.1,0.6c-1,0-1.7-0.3-2.3-0.8c-0.5-0.5-0.8-1.2-0.8-2h1.2
		c0,0.5,0.2,0.9,0.5,1.3c0.3,0.3,0.8,0.5,1.5,0.5c0.5,0,0.9-0.1,1.2-0.3c0.3-0.2,0.5-0.5,0.5-1c0-0.4-0.1-0.7-0.4-1
		s-0.8-0.5-1.6-0.8s-1.4-0.6-1.9-0.9c-0.4-0.4-0.7-0.9-0.7-1.5c0-0.7,0.3-1.3,0.8-1.7c0.5-0.4,1.2-0.6,1.9-0.6
		c0.9,0,1.6,0.2,2.1,0.7s0.8,1.1,0.8,1.8h-1.1c0-0.4-0.2-0.8-0.5-1.1c-0.3-0.3-0.7-0.4-1.3-0.4c-0.5,0-0.8,0.1-1.1,0.4
		s-0.4,0.5-0.4,0.9s0.1,0.7,0.4,0.9c0.3,0.2,0.8,0.5,1.5,0.7c0.9,0.3,1.6,0.7,2,1.1C38.7,54,38.9,54.5,38.9,55.2z"/>
	<path class="st0" d="M47.9,54.7c-0.2,0.8-0.6,1.5-1.3,2s-1.4,0.8-2.3,0.8c-1.2,0-2.2-0.4-3-1.2c-0.8-0.8-1.1-1.9-1.1-3.2
		c0-1.3,0.4-2.3,1.1-3.2c0.7-0.8,1.7-1.3,2.9-1.3c0.9,0,1.7,0.2,2.4,0.7s1.1,1.2,1.2,2.1h-1.2c-0.1-0.5-0.4-1-0.8-1.3
		s-0.9-0.5-1.5-0.5c-0.8,0-1.5,0.3-2,1S41.5,52,41.5,53s0.3,1.8,0.8,2.4s1.2,0.9,2.1,0.9c0.6,0,1.1-0.2,1.5-0.5s0.7-0.7,0.9-1.2
		L47.9,54.7L47.9,54.7z"/>
	<path class="st0" d="M54.9,48.7H56v8.6h-1.1v-3.8h-4.2v3.8h-1.1v-8.6h1.1v3.7h4.2V48.7z"/>
	<path class="st0" d="M62,57.4c-1.2,0-2.2-0.4-3.1-1.3s-1.2-1.9-1.2-3.2s0.4-2.3,1.2-3.2s1.8-1.3,3-1.3s2.2,0.4,3,1.3
		c0.8,0.8,1.2,1.9,1.2,3.2s-0.4,2.3-1.2,3.2S63.2,57.4,62,57.4z M62,56.3c0.9,0,1.6-0.3,2.2-1C64.8,54.7,65,54,65,53
		c0-0.9-0.3-1.7-0.9-2.4c-0.6-0.6-1.3-1-2.2-1s-1.6,0.3-2.2,1c-0.6,0.6-0.9,1.4-0.9,2.4c0,0.9,0.3,1.7,0.9,2.4
		C60.4,56,61.1,56.3,62,56.3z"/>
	<path class="st0" d="M74.7,48.7v5.2c0,1.1-0.3,2-0.9,2.6s-1.4,0.9-2.4,0.9s-1.8-0.3-2.4-0.9s-1-1.5-1-2.6v-5.2h1.2v5.2
		c0,0.8,0.2,1.4,0.6,1.8s0.9,0.6,1.6,0.6s1.2-0.2,1.6-0.6s0.6-1,0.6-1.8v-5.2H74.7z"/>
	<path class="st0" d="M85.3,48.7h1.1l-1.7,8.6H83l-1.7-6.5h-0.1l-1.7,6.5h-1.6L76,48.7h1.1l1.5,7.2h0.1l1.8-6.6H82l1.8,6.6h0.1
		L85.3,48.7z"/>
	<path class="st0" d="M91.9,52.8c1.1,0.4,1.7,1.1,1.7,2.2c0,0.8-0.3,1.4-0.8,1.8s-1.2,0.6-2,0.6h-3.1v-8.6h2.7
		c0.8,0,1.5,0.2,1.9,0.6c0.5,0.4,0.7,0.9,0.7,1.6C93.2,51.8,92.7,52.4,91.9,52.8L91.9,52.8z M88.8,49.7v2.7h1.6
		c0.5,0,0.9-0.1,1.2-0.4s0.4-0.6,0.4-1s-0.1-0.8-0.4-1s-0.7-0.3-1.1-0.3C90.5,49.7,88.8,49.7,88.8,49.7z M90.6,56.4
		c0.5,0,1-0.1,1.3-0.4s0.5-0.6,0.5-1.1s-0.2-0.8-0.5-1.1s-0.8-0.4-1.3-0.4h-1.8v3H90.6z"/>
	<path class="st0" d="M101.9,48.7v5.2c0,1.1-0.3,2-0.9,2.6s-1.4,0.9-2.4,0.9s-1.8-0.3-2.4-0.9s-1-1.5-1-2.6v-5.2h1.2v5.2
		c0,0.8,0.2,1.4,0.6,1.8s0.9,0.6,1.6,0.6s1.2-0.2,1.6-0.6s0.6-1,0.6-1.8v-5.2H101.9z"/>
	<path class="st0" d="M110.1,57.3h-1.3l-2.1-3.5l0,0H105v3.5h-1v-8.6h2.9c0.9,0,1.5,0.2,2,0.7s0.8,1.1,0.8,1.8
		c0,0.6-0.2,1.1-0.5,1.5s-0.8,0.7-1.3,0.9L110.1,57.3z M105.1,49.8v3h1.7c0.6,0,1-0.1,1.3-0.4s0.5-0.6,0.5-1.1s-0.2-0.8-0.5-1.1
		c-0.3-0.3-0.8-0.4-1.3-0.4H105.1z"/>
	<path class="st0" d="M114.7,52.9h3.8v4.5h-0.8l-0.2-0.9h-0.1c-0.7,0.7-1.6,1.1-2.6,1.1c-1.2,0-2.1-0.4-2.8-1.2c-0.7-0.8-1-1.8-1-3
		c0-1.3,0.4-2.5,1.1-3.3c0.7-0.9,1.7-1.3,2.8-1.3c1,0,1.8,0.3,2.4,0.8s1,1.2,1.1,2h-1.2c-0.1-0.5-0.4-0.9-0.8-1.2
		c-0.4-0.3-0.9-0.5-1.5-0.5c-0.9,0-1.5,0.3-2.1,1c-0.5,0.7-0.8,1.5-0.8,2.5s0.2,1.7,0.7,2.3c0.5,0.6,1.2,0.9,2.1,0.9
		c0.5,0,1-0.1,1.4-0.3c0.4-0.2,0.7-0.5,1-0.7v-1.5h-2.6L114.7,52.9L114.7,52.9z"/>
</g>
<path class="st0" d="M5.2,46.4c-2.4,0-4.4,2-4.4,4.4c0,1.9,2.9,5.6,4.4,7.2c1.5-1.7,4.4-5.3,4.4-7.2C9.6,48.3,7.7,46.4,5.2,46.4
	 M5.2,59.3l-0.3-0.4C4.7,58.7,0,53.5,0,50.7c0-2.9,2.4-5.2,5.2-5.2s5.2,2.4,5.2,5.2c0,2.8-4.7,7.9-4.9,8.2L5.2,59.3z"/>
<path class="st0" d="M5.3,48.7c-1,0-1.9,0.8-1.9,1.9c0,1,0.8,1.9,1.9,1.9s1.9-0.8,1.9-1.9C7.1,49.5,6.3,48.7,5.3,48.7 M5.3,49.6
	c0.5,0,1,0.4,1,1s-0.4,1-1,1c-0.5,0-1-0.4-1-1S4.7,49.6,5.3,49.6"/>
</svg>
