<?xml version="1.0" encoding="utf-8"?>
<!-- Generator: Adobe Illustrator 23.0.2, SVG Export Plug-In . SVG Version: 6.00 Build 0)  -->
<svg version="1.1" id="Laag_1" xmlns="http://www.w3.org/2000/svg" xmlns:xlink="http://www.w3.org/1999/xlink" x="0px" y="0px"
	 width="93.3px" height="12.1px" viewBox="0 0 93.3 12.1" style="enable-background:new 0 0 93.3 12.1;" xml:space="preserve">
<style type="text/css">
	.st0{fill:#FFFFFF;}
</style>
<g>
	<path class="st0" d="M0.7,2.7h3.5c1.4,0,2.6,0.8,2.6,2.6c0,1.6-1.2,2.6-2.6,2.6H2.4v1.9H0.7V2.7z M2.4,4.2v2.2h1.5
		C4.5,6.4,5,6,5,5.3c0-0.7-0.5-1.1-1.1-1.1H2.4z"/>
	<path class="st0" d="M8,9.8V2.7h1.8v5.6h3.6v1.5H8z"/>
	<path class="st0" d="M16.3,2.7h2.1l2.7,7.1h-1.8l-0.5-1.3h-3l-0.5,1.3h-1.8L16.3,2.7z M16.3,7.2h2.1l-1-2.8L16.3,7.2z"/>
	<path class="st0" d="M23.8,5.5v4.3H22V2.7h1.5L27.1,7V2.7h1.8v7.1h-1.5L23.8,5.5z"/>
	<path class="st0" d="M38,2.7v4.2c0,1.7-0.9,3-2.9,3c-2,0-2.8-1.1-2.9-2.9l1.7-0.2c0.1,0.9,0.3,1.5,1.2,1.5c0.8,0,1.1-0.6,1.1-1.5
		V2.7H38z"/>
	<path class="st0" d="M39.7,9.8V2.7h5.7v1.5h-4v1.2h3.3v1.5h-3.3v1.4h4v1.5H39.7z"/>
	<path class="st0" d="M49.3,2.7h3.2c1.6,0,2.5,0.6,2.5,1.9c0,0.7-0.4,1.2-1,1.5c1,0.2,1.6,0.8,1.6,1.8c0,1.2-0.9,1.9-2.6,1.9h-3.6
		V2.7z M52.2,5.5c0.6,0,1-0.2,1-0.7c0-0.5-0.3-0.7-1-0.7h-1.1v1.4H52.2z M52.7,8.4c0.7,0,1-0.2,1-0.7c0-0.5-0.4-0.8-1.1-0.8h-1.5
		v1.5H52.7z"/>
	<path class="st0" d="M56.9,9.8V2.7h5.7v1.5h-4v1.2h3.3v1.5h-3.3v1.4h4v1.5H56.9z"/>
	<path class="st0" d="M67.1,4.2h-3.4V2.7h5.7v1.2L66,8.3h3.4v1.5h-5.7V8.6L67.1,4.2z"/>
	<path class="st0" d="M73.9,2.6c2.1,0,3.7,1.6,3.7,3.7c0,2.1-1.6,3.6-3.7,3.6c-2.1,0-3.7-1.6-3.7-3.6C70.3,4.2,71.8,2.6,73.9,2.6z
		 M73.9,8.2c1.2,0,1.9-0.9,1.9-2c0-1.1-0.8-2-1.9-2c-1.1,0-1.9,0.9-1.9,2C72,7.4,72.8,8.2,73.9,8.2z"/>
	<path class="st0" d="M79,9.8V2.7h5.7v1.5h-4v1.2h3.3v1.5h-3.3v1.4h4v1.5H79z"/>
	<path class="st0" d="M86.1,2.7h1.8v2.8h0.7l2.1-2.8h1.8V3L90,6.3l2.6,3.3v0.2h-2L88.6,7h-0.7v2.8h-1.8V2.7z"/>
</g>
</svg>
