<?xml version="1.0" encoding="utf-8"?>
<!-- Generator: Adobe Illustrator 23.0.2, SVG Export Plug-In . SVG Version: 6.00 Build 0)  -->
<svg version="1.1" id="Laag_1" xmlns="http://www.w3.org/2000/svg" xmlns:xlink="http://www.w3.org/1999/xlink" x="0px" y="0px"
	 width="193.6px" height="63.7px" viewBox="0 0 193.6 63.7" style="enable-background:new 0 0 193.6 63.7;" xml:space="preserve">
<style type="text/css">
	.st0{fill:#8BB4DA;}
</style>
<g>
	<path class="st0" d="M47.9,33c-6.2,0-11.2-5.2-11.2-11.7C36.7,12.8,44.2,5,52.3,5c6.4,0,11.1,4.9,11.1,11.7
		C63.5,25.2,56,33,47.9,33z M48.1,31.1c6.6,0,11.6-6.5,11.6-14.8c0-5.9-2.9-9.4-7.8-9.4c-6.4,0-11.5,6.6-11.5,14.7
		C40.5,27.3,43.5,31.1,48.1,31.1z"/>
	<path class="st0" d="M78.5,32.8c-0.4-1.1-0.5-1.7-0.5-2.5c0-0.5,0.1-1.4,0.2-2.4l0.6-4.1c-3.5,5.4-7.4,9.1-9.8,9.1
		c-1.1,0-1.8-0.9-1.8-2.5c0-0.4,0.1-1.4,0.4-3.1l1.8-11.1h-3.4v-0.8l5.6-1.9h1.1l-2.3,13.8c-0.2,1.1-0.2,1.2-0.2,1.5
		c0,0.8,0.3,1.2,0.7,1.2c1.1,0,4-2.9,6.5-6.5c1.5-2.1,2.3-4,2.6-6.3l0.5-3.3h2.7l-2.5,15.9c1.6-1.3,1.9-1.7,3.2-3.4l0.9-1.3L86,26
		c-2.4,3.4-3.4,4.5-4.8,5.6C80.3,32.3,79.8,32.5,78.5,32.8z"/>
	<path class="st0" d="M98.7,32.8c-0.4-0.7-0.5-0.9-0.5-1.7c0-0.7,0.2-2.2,0.4-3.2l0.7-3.4c-2.2,5-6.1,8.5-9.2,8.5
		c-1.5,0-2.3-2-2.3-5.5c0-3.5,1.1-7.4,3-10.2c1.9-2.7,3.8-3.9,6.6-3.9c1.5,0,2.2,0.2,3.4,0.9l1.5-9.3h-3.4V4.3l5.7-2h1l-4.3,27
		c1.8-1.5,2.3-2.1,3.6-4.3l1.3,0.7c-1.8,2.8-3,4.3-5.1,5.9C100.2,32.3,99.8,32.5,98.7,32.8z M100.7,17.1c-1.4-1.5-2.4-2.1-3.6-2.1
		c-3.3,0-6.1,5.3-6.1,11.3c0,2.2,0.5,3.9,1.1,3.9c0.2,0,0.9-0.4,1.5-0.8c0.4-0.3,0.9-0.7,1.3-1.1c1.3-1.2,2.4-2.8,3.4-4.8
		C99.3,21.6,99.9,20,100.7,17.1z"/>
	<path class="st0" d="M121.4,26.2c-2.9,4-6.7,6.6-9.8,6.6c-0.5,0-1.3-0.1-2.3-0.3c-1.2-1.6-1.6-3.1-1.6-5.3c0-7.3,4.2-13.7,8.9-13.7
		c2.6,0,4.6,1.5,4.6,3.4v1L110.8,24v2.2c0,2.9,0.7,4.3,2.3,4.3c1.9,0,4.6-2.1,6.9-5.3L121.4,26.2z M111,22l7-4.4v-1
		c0-1.1-0.5-1.6-1.6-1.6c-0.8,0-1.4,0.2-2.7,0.7C112,17.8,111.6,18.8,111,22z"/>
</g>
<g>
	<path class="st0" d="M58.1,62.3c-0.4-1.1-0.5-1.8-0.5-2.5c0-0.5,0.1-1.4,0.2-2.4l1.4-8.8c0.1-0.6,0.2-1,0.2-1.1c0-0.1,0-0.2,0-0.3
		c0-0.8-0.2-1.2-0.7-1.2c-0.7,0-1.5,0.7-2.9,2.2c-1.4,1.5-2.3,2.5-2.6,2.9c-0.4,0.5-0.9,1.1-1.4,1.9c-1.2,2-1.9,3.6-2.2,5.8L49.1,62
		h-2.7l2.1-13.4l0.2-1.1c0-0.2,0.1-0.4,0.1-0.6c0-0.6-0.2-1-0.7-1c-0.7,0-1.5,0.6-2.9,2.2c-2.6,2.7-3,3.4-4,4.8
		c-1.3,2-1.8,3.6-2.2,5.8L38.5,62h-2.7l2.6-16.3h-3.4v-0.8l5.6-1.9h1l-1.4,9c3.5-5.4,7.4-9,9.8-9c1.1,0,1.8,0.9,1.8,2.5
		c0,0.5-0.1,1.8-0.3,2.8l-0.7,3.8c3.4-5.3,7.4-9.1,9.8-9.1c1.2,0,1.8,0.9,1.8,2.5c0,0.5-0.1,1.6-0.3,2.8l-1.8,11.1
		c1.6-1.3,2-1.8,3.2-3.4c0.2-0.4,0.6-0.8,0.9-1.3l1.2,0.8c-2.5,3.4-3.4,4.4-4.8,5.6C59.9,61.8,59.4,62,58.1,62.3z"/>
	<path class="st0" d="M80.8,55.7c-2.9,4-6.7,6.6-9.8,6.6c-0.5,0-1.3-0.1-2.3-0.3c-1.2-1.6-1.6-3.1-1.6-5.3c0-7.3,4.2-13.7,8.9-13.7
		c2.6,0,4.6,1.5,4.6,3.4v1l-10.4,6.1v2.2c0,2.9,0.7,4.3,2.3,4.3c1.9,0,4.6-2.1,6.9-5.3L80.8,55.7z M70.5,51.5l7-4.4v-1
		c0-1.1-0.5-1.6-1.6-1.6c-0.8,0-1.4,0.2-2.7,0.7C71.5,47.3,71,48.3,70.5,51.5z"/>
	<path class="st0" d="M96.4,55.7c-2.9,4-6.7,6.6-9.8,6.6c-0.5,0-1.3-0.1-2.3-0.3c-1.2-1.6-1.6-3.1-1.6-5.3c0-7.3,4.2-13.7,8.9-13.7
		c2.6,0,4.6,1.5,4.6,3.4v1l-10.4,6.1v2.2c0,2.9,0.7,4.3,2.3,4.3c1.9,0,4.6-2.1,6.9-5.3L96.4,55.7z M86,51.5l7-4.4v-1
		c0-1.1-0.5-1.6-1.6-1.6c-0.8,0-1.4,0.2-2.7,0.7C87,47.3,86.6,48.3,86,51.5z"/>
	<path class="st0" d="M97.8,62l0.8-4.6h1.4c-0.1,0.5-0.2,0.9-0.2,1.3c0,1.2,1.2,2,3,2c1.8,0,3.3-1.5,3.3-3.2c0-1.3-0.9-2.5-2.6-3.9
		c-3.4-2.6-4-3.3-4-5.1c0-3,2.4-5.3,5.5-5.3c0.3,0,0.7,0,1,0.1c0.8,0.1,1.2,0.2,1.3,0.2h2.6l-0.7,4.6h-1.3c0.1-0.5,0.2-1,0.2-1.4
		c0-1-1.2-1.9-2.7-1.9c-1.7,0-3.2,1.4-3.2,2.9c0,1.2,0.6,1.9,3.2,3.9c2.5,1.9,3.4,3.2,3.4,5c0,3.2-2.9,5.7-6.5,5.7
		c-0.5,0-0.9,0-1.2-0.1c-0.4-0.1-0.7-0.2-0.7-0.2H97.8z"/>
	<path class="st0" d="M113.2,62.3c-0.4-0.9-0.5-1.3-0.5-2c0-0.6,0.1-1.8,0.3-2.9l1.8-11.7h-3.4v-0.8l3.7-1.2l0.9-5.8h2.8l-0.9,5.9
		h3.9l-0.3,1.9h-3.9l-2.2,13.5c2.8-2,3.5-2.5,5.5-4.6l1.1,1c-2.2,2.4-4,4-6.4,5.6C114.8,61.9,114.4,62.1,113.2,62.3z"/>
	<path class="st0" d="M137.4,55.7c-2.9,4-6.7,6.6-9.8,6.6c-0.5,0-1.3-0.1-2.3-0.3c-1.2-1.6-1.6-3.1-1.6-5.3c0-7.3,4.2-13.7,8.9-13.7
		c2.6,0,4.6,1.5,4.6,3.4v1l-10.4,6.1v2.2c0,2.9,0.7,4.3,2.3,4.3c1.9,0,4.6-2.1,6.9-5.3L137.4,55.7z M127,51.5l7-4.4v-1
		c0-1.1-0.5-1.6-1.6-1.6c-0.8,0-1.4,0.2-2.7,0.7C128,47.3,127.6,48.3,127,51.5z"/>
	<path class="st0" d="M143.2,62h-2.8l2.6-16.3h-3.4v-0.8l5.6-1.9h1l-1.1,6.9c2.1-4,4.9-6.9,6.8-6.9c0.8,0,1.4,0.5,1.9,1.6l-2.9,3
		c-0.7-0.7-1.1-0.9-1.6-0.9c-0.8,0-1.9,1.2-3.2,3.5c-1.1,2-1.7,3.9-2.3,7.5L143.2,62z"/>
	<path class="st0" d="M153.2,62l0.8-4.6h1.4c-0.1,0.5-0.2,0.9-0.2,1.3c0,1.2,1.2,2,3,2c1.8,0,3.3-1.5,3.3-3.2c0-1.3-0.9-2.5-2.6-3.9
		c-3.4-2.6-4-3.3-4-5.1c0-3,2.4-5.3,5.5-5.3c0.3,0,0.7,0,1,0.1c0.8,0.1,1.2,0.2,1.3,0.2h2.6l-0.7,4.6h-1.3c0.1-0.5,0.2-1,0.2-1.4
		c0-1-1.2-1.9-2.7-1.9c-1.7,0-3.2,1.4-3.2,2.9c0,1.2,0.6,1.9,3.2,3.9c2.5,1.9,3.4,3.2,3.4,5c0,3.2-2.9,5.7-6.5,5.7
		c-0.5,0-0.9,0-1.2-0.1c-0.4-0.1-0.7-0.2-0.7-0.2H153.2z"/>
</g>
</svg>
