<?xml version="1.0" encoding="utf-8"?>
<!-- Generator: Adobe Illustrator 24.0.0, SVG Export Plug-In . SVG Version: 6.00 Build 0)  -->
<svg version="1.1" id="Laag_1" xmlns="http://www.w3.org/2000/svg" xmlns:xlink="http://www.w3.org/1999/xlink" x="0px" y="0px"
	 width="128.2px" height="25.8px" viewBox="0 0 128.2 25.8" style="enable-background:new 0 0 128.2 25.8;" xml:space="preserve">
<style type="text/css">
	.st0{fill:#FFFFFF;}
</style>
<g>
	<path class="st0" d="M43.5-0.1h1.6v6.3h-1.6V-0.1z"/>
	<path class="st0" d="M46.4,1.7h1.4v0.6l0,0c0.2-0.2,0.4-0.4,0.6-0.6s0.5-0.2,0.8-0.2s0.5,0,0.7,0.1s0.4,0.2,0.5,0.4
		s0.2,0.3,0.3,0.5s0.1,0.4,0.1,0.7v2.9h-1.5V3.6c0-0.2-0.1-0.4-0.2-0.6s-0.3-0.2-0.6-0.2S48,2.9,47.9,3.1c-0.2,0.2-0.2,0.4-0.2,0.7
		v2.5h-1.5V1.7H46.4z"/>
	<path class="st0" d="M53.8,6.2c-0.2,0-0.4,0-0.6-0.1c-0.2,0-0.3-0.1-0.5-0.2s-0.2-0.2-0.3-0.4c-0.1-0.2-0.1-0.4-0.1-0.6V2.6h-0.6
		V1.7h0.6V0.3h1.5v1.4h0.9v0.9h-0.9v2.1c0,0.2,0,0.3,0.1,0.4s0.2,0.1,0.4,0.1c0.1,0,0.1,0,0.2,0c0.1,0,0.1,0,0.1,0v1
		c-0.1,0-0.2,0-0.3,0C54.2,6.2,54,6.2,53.8,6.2z"/>
	<path class="st0" d="M57.9,6.3c-0.4,0-0.7-0.1-1-0.2s-0.6-0.3-0.8-0.5s-0.4-0.5-0.5-0.8s-0.2-0.6-0.2-1c0-0.3,0.1-0.6,0.2-0.9
		c0.1-0.3,0.3-0.5,0.5-0.8c0.2-0.2,0.5-0.4,0.8-0.5s0.6-0.2,1-0.2c0.3,0,0.6,0,0.9,0.1c0.3,0.1,0.5,0.2,0.7,0.4
		c0.3,0.2,0.5,0.6,0.6,0.9c0.1,0.4,0.2,0.8,0.2,1.3h-3.4c0,0.3,0.2,0.5,0.3,0.7c0.2,0.2,0.4,0.3,0.7,0.3c0.2,0,0.4,0,0.5-0.1
		s0.2-0.2,0.3-0.3h1.5c0,0.2-0.1,0.4-0.3,0.6c-0.1,0.2-0.3,0.3-0.5,0.5S59,6.2,58.7,6.2C58.5,6.3,58.2,6.3,57.9,6.3z M58.7,3.5
		c0-0.3-0.1-0.5-0.3-0.6c-0.2-0.2-0.4-0.2-0.6-0.2c-0.3,0-0.5,0.1-0.7,0.2C57,3,56.9,3.2,56.9,3.5H58.7z"/>
	<path class="st0" d="M61.2,1.7h1.4v0.7l0,0c0.2-0.3,0.4-0.5,0.6-0.6c0.2-0.1,0.4-0.2,0.7-0.2c0.1,0,0.2,0,0.3,0v1.2l0,0
		c-0.5-0.1-0.8,0-1.1,0.2s-0.4,0.6-0.4,1.1v2h-1.5V1.7z"/>
	<path class="st0" d="M65.2,1.7h1.4v0.6l0,0c0.2-0.2,0.4-0.4,0.6-0.6c0.2-0.1,0.5-0.2,0.8-0.2s0.5,0,0.7,0.1C69,1.8,69.2,1.9,69.3,2
		c0.1,0.1,0.2,0.3,0.3,0.5c0.1,0.2,0.1,0.4,0.1,0.7v2.9h-1.5V3.6c0-0.2-0.1-0.4-0.2-0.6c-0.1-0.1-0.3-0.2-0.6-0.2s-0.5,0.1-0.6,0.3
		c-0.2,0.2-0.2,0.4-0.2,0.7v2.5h-1.5L65.2,1.7L65.2,1.7z"/>
	<path class="st0" d="M72.3,6.3c-0.2,0-0.4,0-0.6-0.1s-0.4-0.1-0.5-0.3c-0.1-0.1-0.3-0.3-0.3-0.4c-0.1-0.2-0.1-0.4-0.1-0.6
		s0-0.5,0.1-0.6S71,4,71.2,3.9s0.4-0.2,0.6-0.3s0.4-0.1,0.7-0.1c0.4-0.1,0.8-0.1,0.9-0.2c0.2-0.1,0.3-0.2,0.3-0.3s-0.1-0.3-0.2-0.4
		c-0.1-0.1-0.3-0.1-0.5-0.1s-0.4,0-0.5,0.2c-0.1,0.1-0.2,0.2-0.2,0.4h-1.4c0-0.2,0.1-0.4,0.1-0.6c0.1-0.2,0.2-0.4,0.4-0.5
		s0.4-0.3,0.7-0.3s0.6-0.1,0.9-0.1c0.4,0,0.7,0,0.9,0.1c0.2,0.1,0.5,0.2,0.6,0.3c0.2,0.1,0.4,0.3,0.5,0.5s0.1,0.5,0.1,0.7v2.3
		c0,0.2,0,0.3,0,0.4s0.1,0.2,0.1,0.2v0.1h-1.5c0,0-0.1-0.1-0.1-0.2s0-0.2-0.1-0.3l0,0C73.4,5.9,73.2,6,73,6.1
		C72.9,6.3,72.6,6.3,72.3,6.3z M72.8,5.4c0.3,0,0.5-0.1,0.7-0.2s0.3-0.3,0.3-0.6V4c-0.1,0-0.2,0.1-0.3,0.1s-0.3,0.1-0.4,0.1
		c-0.3,0.1-0.5,0.1-0.6,0.2s-0.2,0.2-0.2,0.4c0,0.2,0.1,0.3,0.2,0.4C72.4,5.4,72.6,5.4,72.8,5.4z"/>
	<path class="st0" d="M78.1,6.2c-0.2,0-0.4,0-0.6-0.1c-0.2,0-0.3-0.1-0.5-0.2s-0.2-0.2-0.3-0.4S76.6,5.2,76.6,5V2.6H76V1.7h0.6V0.3
		h1.5v1.4H79v0.9h-0.9v2.1c0,0.2,0,0.3,0.1,0.4s0.2,0.1,0.4,0.1c0.1,0,0.1,0,0.2,0s0.1,0,0.1,0v1c-0.1,0-0.2,0-0.3,0
		C78.5,6.2,78.3,6.2,78.1,6.2z"/>
	<path class="st0" d="M79.9-0.1h1.5v1.2h-1.5V-0.1z M79.9,1.7h1.5v4.5h-1.5V1.7z"/>
	<path class="st0" d="M84.9,6.3c-0.4,0-0.7-0.1-1-0.2s-0.6-0.3-0.8-0.5c-0.2-0.2-0.4-0.5-0.5-0.8s-0.2-0.6-0.2-0.9s0.1-0.7,0.2-0.9
		c0.1-0.3,0.3-0.5,0.5-0.8c0.2-0.2,0.5-0.4,0.8-0.5s0.7-0.2,1-0.2c0.4,0,0.7,0.1,1,0.2s0.6,0.3,0.8,0.5c0.2,0.2,0.4,0.5,0.5,0.8
		s0.2,0.6,0.2,0.9s-0.1,0.7-0.2,0.9c-0.1,0.3-0.3,0.5-0.5,0.8S86.2,6,85.9,6.2C85.6,6.3,85.3,6.3,84.9,6.3z M84.9,5.3
		c0.3,0,0.6-0.1,0.8-0.4c0.2-0.2,0.3-0.6,0.3-1s-0.1-0.7-0.3-1c-0.2-0.3-0.4-0.4-0.8-0.4S84.3,2.7,84.1,3c-0.2,0.3-0.2,0.6-0.2,1
		s0.1,0.7,0.2,1C84.3,5.2,84.6,5.3,84.9,5.3z"/>
	<path class="st0" d="M88.4,1.7h1.4v0.6l0,0c0.2-0.2,0.4-0.4,0.6-0.6c0.2-0.1,0.5-0.2,0.8-0.2s0.5,0,0.7,0.1s0.4,0.2,0.5,0.4
		c0.1,0.1,0.2,0.3,0.3,0.5c0.1,0.2,0.1,0.4,0.1,0.7v2.9h-1.5V3.6c0-0.2-0.1-0.4-0.2-0.6c-0.1-0.1-0.3-0.2-0.6-0.2
		c-0.3,0-0.5,0.1-0.6,0.3c-0.2,0.2-0.2,0.4-0.2,0.7v2.5h-1.5V1.7H88.4z"/>
	<path class="st0" d="M95.5,6.3c-0.2,0-0.4,0-0.6-0.1S94.4,6.1,94.3,6C94.2,5.8,94,5.7,94,5.5s-0.1-0.4-0.1-0.6s0-0.5,0.1-0.6
		c0.1-0.2,0.2-0.3,0.4-0.4c0.2-0.1,0.4-0.2,0.6-0.3s0.4-0.1,0.7-0.1c0.4-0.1,0.8-0.1,0.9-0.2c0.2-0.1,0.3-0.2,0.3-0.3
		s-0.1-0.3-0.2-0.4c-0.1-0.1-0.3-0.1-0.5-0.1s-0.4,0-0.5,0.2c-0.1,0.1-0.2,0.2-0.2,0.4h-1.4c0-0.2,0.1-0.4,0.1-0.6
		c0.1-0.2,0.2-0.4,0.4-0.5s0.4-0.3,0.7-0.3s0.6-0.1,0.9-0.1s0.7,0,0.9,0.1s0.5,0.2,0.6,0.3c0.2,0.1,0.4,0.3,0.5,0.5s0.1,0.5,0.1,0.7
		v2.3c0,0.2,0,0.3,0,0.4s0.1,0.2,0.1,0.2v0.1H97c0,0-0.1-0.1-0.1-0.2s0-0.2-0.1-0.3l0,0c-0.1,0.2-0.3,0.3-0.5,0.4S95.8,6.3,95.5,6.3
		z M95.9,5.4c0.3,0,0.5-0.1,0.7-0.2s0.3-0.3,0.3-0.6V4c-0.1,0-0.2,0.1-0.3,0.1s-0.3,0.1-0.4,0.1c-0.3,0.1-0.5,0.1-0.6,0.2
		s-0.2,0.2-0.2,0.4c0,0.2,0.1,0.3,0.2,0.4S95.7,5.4,95.9,5.4z"/>
	<path class="st0" d="M99.5-0.1h1.5v6.3h-1.5V-0.1z"/>
</g>
<g>
	<path class="st0" d="M46.1,15.3c-0.4,0-0.8,0-1.2-0.1S44.2,15,44,14.8s-0.5-0.4-0.6-0.7s-0.2-0.6-0.2-0.9h1.6
		c0,0.3,0.2,0.5,0.4,0.7c0.2,0.1,0.5,0.2,0.9,0.2c0.1,0,0.3,0,0.4,0c0.1,0,0.2-0.1,0.3-0.1s0.2-0.1,0.2-0.2c0.1-0.1,0.1-0.2,0.1-0.3
		s0-0.2-0.1-0.3S46.8,13,46.7,13c-0.1-0.1-0.3-0.1-0.5-0.2s-0.4-0.1-0.6-0.1c-0.3-0.1-0.6-0.1-0.9-0.2c-0.3-0.1-0.5-0.2-0.8-0.3
		c-0.2-0.1-0.4-0.3-0.5-0.5s-0.2-0.5-0.2-0.8s0.1-0.6,0.2-0.9c0.1-0.2,0.3-0.4,0.6-0.6c0.2-0.2,0.5-0.3,0.8-0.4s0.7-0.1,1-0.1
		c0.4,0,0.7,0,1,0.1s0.6,0.2,0.8,0.4S48,9.8,48.2,10s0.2,0.5,0.2,0.9H47c0-0.2-0.1-0.4-0.3-0.6C46.4,10,46.2,10,45.9,10
		s-0.5,0.1-0.7,0.2c-0.2,0.1-0.3,0.3-0.3,0.4c0,0.1,0,0.2,0.1,0.3s0.2,0.1,0.3,0.2s0.3,0.1,0.5,0.1s0.4,0.1,0.6,0.1
		c0.3,0.1,0.6,0.1,0.9,0.2s0.5,0.2,0.7,0.4c0.2,0.1,0.4,0.3,0.5,0.6c0.1,0.2,0.2,0.5,0.2,0.8s-0.1,0.6-0.2,0.9
		c-0.1,0.3-0.3,0.5-0.6,0.6c-0.2,0.2-0.5,0.3-0.9,0.4C46.8,15.3,46.4,15.3,46.1,15.3z"/>
	<path class="st0" d="M49.8,8.9h1.5v2.3l0,0c0.2-0.2,0.4-0.4,0.6-0.5c0.2-0.1,0.5-0.2,0.8-0.2s0.5,0,0.7,0.1s0.4,0.2,0.5,0.4
		s0.2,0.3,0.3,0.5s0.1,0.4,0.1,0.7v2.9h-1.5v-2.6c0-0.2-0.1-0.4-0.2-0.6s-0.3-0.2-0.6-0.2s-0.5,0.1-0.6,0.3
		c-0.2,0.2-0.2,0.4-0.2,0.7v2.5h-1.5V8.9H49.8z"/>
	<path class="st0" d="M57.8,15.3c-0.4,0-0.7-0.1-1-0.2c-0.3-0.1-0.6-0.3-0.8-0.5s-0.4-0.5-0.5-0.8s-0.2-0.6-0.2-0.9
		c0-0.3,0.1-0.7,0.2-0.9c0.1-0.3,0.3-0.5,0.5-0.8c0.2-0.2,0.5-0.4,0.8-0.5s0.7-0.2,1-0.2s0.7,0.1,1,0.2c0.3,0.1,0.6,0.3,0.8,0.5
		s0.4,0.5,0.5,0.8s0.2,0.6,0.2,0.9c0,0.3-0.1,0.7-0.2,0.9c-0.1,0.3-0.3,0.5-0.5,0.8s-0.5,0.4-0.8,0.5C58.5,15.3,58.2,15.3,57.8,15.3
		z M57.8,14.3c0.3,0,0.6-0.1,0.8-0.4c0.2-0.2,0.3-0.6,0.3-1s-0.1-0.7-0.3-1s-0.4-0.4-0.8-0.4c-0.3,0-0.6,0.1-0.7,0.4s-0.2,0.6-0.2,1
		s0.1,0.7,0.2,1S57.5,14.3,57.8,14.3z"/>
	<path class="st0" d="M61.3,10.7h1.4v0.7l0,0c0.2-0.3,0.4-0.5,0.6-0.6c0.2-0.1,0.4-0.2,0.7-0.2c0.1,0,0.2,0,0.3,0v1.2l0,0
		c-0.5-0.1-0.8,0-1.1,0.2s-0.4,0.6-0.4,1.1v2h-1.5V10.7z"/>
	<path class="st0" d="M67.2,15.2c-0.2,0-0.4,0-0.6-0.1s-0.3-0.1-0.5-0.2c-0.2-0.1-0.2-0.2-0.3-0.4s-0.1-0.4-0.1-0.6v-2.4h-0.6v-0.9
		h0.6V9.3h1.5v1.4H68v0.9h-0.9v2.1c0,0.2,0,0.3,0.1,0.4c0.1,0.1,0.2,0.1,0.4,0.1c0.1,0,0.1,0,0.2,0c0.1,0,0.1,0,0.1,0v1
		c-0.1,0-0.2,0-0.3,0C67.6,15.2,67.4,15.2,67.2,15.2z"/>
	<path class="st0" d="M71,8.9h4.9v1.3h-3.3v1.3h2.7v1.3h-2.7v2.4H71V8.9z"/>
	<path class="st0" d="M76.9,8.9h1.5v1.2h-1.5V8.9z M76.9,10.7h1.5v4.5h-1.5V10.7z"/>
	<path class="st0" d="M79.6,8.9h1.5v6.3h-1.5V8.9z"/>
	<path class="st0" d="M82.3,10.7h1.4v0.6l0,0c0.1-0.2,0.3-0.4,0.6-0.6c0.2-0.1,0.5-0.2,0.9-0.2c0.3,0,0.6,0.1,0.8,0.2
		c0.2,0.1,0.4,0.3,0.5,0.6l0,0c0.2-0.3,0.4-0.5,0.6-0.6s0.5-0.2,0.8-0.2s0.5,0,0.7,0.1s0.4,0.2,0.5,0.3s0.2,0.3,0.3,0.5
		c0.1,0.2,0.1,0.4,0.1,0.7V15H88v-2.7c0-0.2-0.1-0.4-0.2-0.6c-0.1-0.1-0.3-0.2-0.5-0.2s-0.4,0.1-0.6,0.3s-0.2,0.4-0.2,0.7V15H85
		v-2.7c0-0.2-0.1-0.4-0.2-0.6c-0.1-0.1-0.3-0.2-0.5-0.2s-0.4,0.1-0.5,0.3s-0.2,0.4-0.2,0.7V15h-1.5v-4.3H82.3z"/>
	<path class="st0" d="M92.7,8.9h4.9v1.3h-3.3v1.3H97v1.3h-2.7v2.4h-1.6V8.9z"/>
	<path class="st0" d="M100.5,15.3c-0.4,0-0.7-0.1-1-0.2s-0.6-0.3-0.8-0.5c-0.2-0.2-0.4-0.5-0.5-0.8s-0.2-0.6-0.2-1
		c0-0.3,0.1-0.6,0.2-0.9c0.1-0.3,0.3-0.5,0.5-0.8c0.2-0.2,0.5-0.4,0.8-0.5s0.6-0.2,1-0.2c0.3,0,0.6,0,0.9,0.1s0.5,0.2,0.7,0.4
		c0.3,0.2,0.5,0.6,0.6,0.9c0.1,0.4,0.2,0.8,0.2,1.3h-3.4c0,0.3,0.2,0.5,0.3,0.7c0.2,0.2,0.4,0.3,0.7,0.3c0.2,0,0.4,0,0.5-0.1
		s0.2-0.2,0.3-0.3h1.5c0,0.2-0.1,0.4-0.3,0.6c-0.1,0.2-0.3,0.3-0.5,0.5c-0.2,0.1-0.4,0.2-0.7,0.3C101.1,15.3,100.8,15.3,100.5,15.3z
		 M101.3,12.5c0-0.3-0.1-0.5-0.3-0.6c-0.2-0.2-0.4-0.2-0.6-0.2c-0.3,0-0.5,0.1-0.7,0.2c-0.2,0.2-0.3,0.4-0.3,0.6H101.3z"/>
	<path class="st0" d="M105.8,15.3c-0.7,0-1.2-0.1-1.6-0.4c-0.4-0.3-0.6-0.7-0.6-1.2h1.4c0,0.2,0.1,0.4,0.3,0.5s0.3,0.2,0.6,0.2
		c0.2,0,0.4,0,0.5-0.1s0.2-0.2,0.2-0.3s0-0.2-0.1-0.2c-0.1-0.1-0.2-0.1-0.3-0.2c-0.1,0-0.2-0.1-0.4-0.1c-0.1,0-0.3,0-0.4-0.1
		c-0.2,0-0.4-0.1-0.6-0.1s-0.4-0.1-0.5-0.2s-0.3-0.2-0.4-0.4s-0.1-0.4-0.1-0.6c0-0.2,0.1-0.4,0.2-0.6s0.3-0.3,0.4-0.5
		c0.2-0.1,0.4-0.2,0.6-0.3s0.5-0.1,0.8-0.1c0.7,0,1.2,0.1,1.5,0.4c0.4,0.3,0.6,0.6,0.6,1.1h-1.4c0-0.2-0.1-0.3-0.2-0.4
		s-0.3-0.1-0.5-0.1s-0.3,0-0.5,0.1c-0.1,0.1-0.2,0.2-0.2,0.3s0,0.1,0.1,0.2s0.1,0.1,0.2,0.1s0.2,0.1,0.4,0.1c0.1,0,0.3,0,0.4,0.1
		c0.2,0,0.4,0.1,0.6,0.1s0.4,0.1,0.6,0.2s0.3,0.2,0.4,0.4s0.2,0.4,0.2,0.7c0,0.2-0.1,0.5-0.2,0.7s-0.3,0.3-0.4,0.5s-0.4,0.2-0.7,0.3
		S106.1,15.3,105.8,15.3z"/>
	<path class="st0" d="M110.6,15.2c-0.2,0-0.4,0-0.6-0.1s-0.3-0.1-0.5-0.2s-0.2-0.2-0.3-0.4c-0.1-0.2-0.1-0.4-0.1-0.6v-2.4h-0.6v-0.9
		h0.6V9.3h1.5v1.4h0.9v0.9h-0.9v2.1c0,0.2,0,0.3,0.1,0.4c0.1,0.1,0.2,0.1,0.4,0.1c0.1,0,0.1,0,0.2,0s0.1,0,0.1,0v1
		c-0.1,0-0.2,0-0.3,0C111,15.2,110.8,15.2,110.6,15.2z"/>
	<path class="st0" d="M112.5,8.9h1.5v1.2h-1.5V8.9z M112.5,10.7h1.5v4.5h-1.5V10.7z"/>
	<path class="st0" d="M114.8,10.7h1.5l0.6,2c0,0.1,0.1,0.2,0.1,0.3s0.1,0.2,0.1,0.3s0,0.2,0.1,0.3l0,0c0-0.1,0-0.2,0.1-0.3
		c0-0.1,0.1-0.2,0.1-0.3s0.1-0.2,0.1-0.3l0.7-2h1.5l-1.6,4.5h-1.6L114.8,10.7z"/>
	<path class="st0" d="M121.6,15.3c-0.2,0-0.4,0-0.6-0.1s-0.4-0.1-0.5-0.3c-0.1-0.1-0.3-0.3-0.3-0.4s-0.1-0.4-0.1-0.6
		c0-0.2,0-0.5,0.1-0.6c0.1-0.2,0.2-0.3,0.4-0.4c0.2-0.1,0.4-0.2,0.6-0.3s0.4-0.1,0.7-0.1c0.4-0.1,0.8-0.1,0.9-0.2
		c0.2-0.1,0.3-0.2,0.3-0.3s-0.1-0.3-0.2-0.4c-0.1-0.1-0.3-0.1-0.5-0.1s-0.4,0-0.5,0.2c-0.1,0.1-0.2,0.2-0.2,0.4h-1.4
		c0-0.2,0.1-0.4,0.1-0.6c0.1-0.2,0.2-0.4,0.4-0.5s0.4-0.3,0.7-0.3s0.6-0.1,0.9-0.1s0.7,0,0.9,0.1s0.5,0.2,0.6,0.3
		c0.2,0.1,0.4,0.3,0.5,0.5s0.1,0.5,0.1,0.7v2.3c0,0.2,0,0.3,0,0.4s0.1,0.2,0.1,0.2v0.1h-1.5c0,0-0.1-0.1-0.1-0.2s0-0.2-0.1-0.3l0,0
		c-0.1,0.2-0.3,0.3-0.5,0.4S122,15.3,121.6,15.3z M122.1,14.4c0.3,0,0.5-0.1,0.7-0.2s0.3-0.3,0.3-0.6V13c-0.1,0-0.2,0.1-0.3,0.1
		s-0.3,0.1-0.4,0.1c-0.3,0.1-0.5,0.1-0.6,0.2c-0.1,0.1-0.2,0.2-0.2,0.4s0.1,0.3,0.2,0.4S121.9,14.4,122.1,14.4z"/>
	<path class="st0" d="M125.7,8.9h1.5v6.3h-1.5V8.9z"/>
</g>
<g>
	<path class="st0" d="M43.4,17.9H45l2,3.2c0,0,0.1,0.1,0.1,0.2s0.1,0.2,0.2,0.3c0.1,0.1,0.1,0.2,0.2,0.3l0,0c0-0.1,0-0.3,0-0.4
		s0-0.2,0-0.3s0-0.2,0-0.2v-3h1.6v6.3h-1.6l-1.9-3.1c0,0-0.1-0.1-0.1-0.2c-0.1-0.1-0.1-0.2-0.2-0.3c-0.1-0.1-0.1-0.2-0.2-0.4l0,0
		c0,0.2,0,0.3,0,0.4s0,0.2,0,0.3c0,0.1,0,0.2,0,0.3v2.9h-1.6L43.4,17.9L43.4,17.9z"/>
	<path class="st0" d="M50.3,17.9h1.5v1.2h-1.5V17.9z M50.3,19.7h1.5v4.5h-1.5V19.7z"/>
	<path class="st0" d="M53.1,25.7c-0.1,0-0.3,0-0.4,0c-0.2,0-0.3,0-0.4-0.1v-1c0.1,0,0.2,0,0.3,0s0.2,0,0.2-0.1s0.1-0.1,0.1-0.1
		s0.1-0.2,0.1-0.3v-4.5h1.5v4.5c0,0.3,0,0.5-0.1,0.7s-0.2,0.3-0.3,0.4s-0.3,0.2-0.5,0.3C53.5,25.7,53.3,25.7,53.1,25.7z M53,17.9
		h1.5v1.2H53V17.9z"/>
	<path class="st0" d="M55.7,19.7h1.4v0.6l0,0c0.1-0.2,0.3-0.4,0.6-0.6c0.2-0.1,0.5-0.2,0.9-0.2c0.3,0,0.6,0.1,0.8,0.2
		s0.4,0.3,0.5,0.6l0,0c0.2-0.3,0.4-0.5,0.6-0.6c0.2-0.1,0.5-0.2,0.8-0.2s0.5,0,0.7,0.1s0.4,0.2,0.5,0.3s0.2,0.3,0.3,0.5
		C63,20.8,63,21,63,21.3v2.9h-1.5v-2.7c0-0.2-0.1-0.4-0.2-0.6c-0.1-0.1-0.3-0.2-0.5-0.2s-0.4,0.1-0.6,0.3c-0.1,0.2-0.2,0.4-0.2,0.7
		v2.5h-1.5v-2.7c0-0.2-0.1-0.4-0.2-0.6c-0.1-0.1-0.3-0.2-0.5-0.2s-0.4,0.1-0.5,0.3s-0.2,0.4-0.2,0.7v2.5h-1.5v-4.5H55.7z"/>
	<path class="st0" d="M66.4,24.3c-0.4,0-0.7-0.1-1-0.2s-0.6-0.3-0.8-0.5c-0.2-0.2-0.4-0.5-0.5-0.8c-0.1-0.3-0.2-0.6-0.2-1
		c0-0.3,0.1-0.6,0.2-0.9c0.1-0.3,0.3-0.5,0.5-0.8c0.2-0.2,0.5-0.4,0.8-0.5s0.6-0.2,1-0.2c0.3,0,0.6,0,0.9,0.1s0.5,0.2,0.7,0.4
		c0.3,0.2,0.5,0.6,0.6,0.9c0.1,0.4,0.2,0.8,0.2,1.3h-3.4c0,0.3,0.2,0.5,0.3,0.7c0.2,0.2,0.4,0.3,0.7,0.3c0.2,0,0.4,0,0.5-0.1
		s0.2-0.2,0.3-0.3h1.5c0,0.2-0.1,0.4-0.3,0.6c-0.1,0.2-0.3,0.3-0.5,0.5c-0.2,0.1-0.4,0.2-0.7,0.3C67,24.3,66.7,24.3,66.4,24.3z
		 M67.3,21.5c0-0.3-0.1-0.5-0.3-0.6c-0.2-0.2-0.4-0.2-0.6-0.2c-0.3,0-0.5,0.1-0.7,0.2c-0.2,0.2-0.3,0.4-0.3,0.6H67.3z"/>
	<path class="st0" d="M71.9,25.8c-0.7,0-1.2-0.1-1.6-0.4c-0.4-0.2-0.6-0.6-0.7-1.1h1.5c0,0.1,0.1,0.2,0.3,0.3
		c0.1,0.1,0.3,0.1,0.6,0.1c0.3,0,0.5-0.1,0.7-0.2c0.1-0.1,0.2-0.4,0.2-0.6v-0.4l0,0c-0.1,0.2-0.3,0.3-0.5,0.4S72,24,71.7,24
		c-0.3,0-0.5,0-0.8-0.1c-0.2-0.1-0.5-0.2-0.7-0.4c-0.2-0.2-0.3-0.4-0.5-0.7c-0.1-0.3-0.2-0.6-0.2-0.9s0-0.6,0.1-0.9s0.2-0.5,0.4-0.7
		s0.4-0.4,0.6-0.5s0.5-0.2,0.8-0.2s0.6,0.1,0.8,0.2c0.2,0.1,0.4,0.3,0.5,0.4l0,0v-0.5h1.4v4.1c0,0.3-0.1,0.6-0.2,0.9
		c-0.1,0.2-0.3,0.5-0.5,0.6c-0.2,0.2-0.5,0.3-0.8,0.4C72.6,25.7,72.3,25.8,71.9,25.8z M71.9,22.9c0.3,0,0.6-0.1,0.7-0.3
		s0.2-0.5,0.2-0.8c0-0.2,0-0.3-0.1-0.4c0-0.1-0.1-0.3-0.2-0.4s-0.2-0.2-0.3-0.2c-0.1-0.1-0.3-0.1-0.4-0.1c-0.3,0-0.5,0.1-0.7,0.3
		c-0.2,0.2-0.3,0.5-0.3,0.8s0.1,0.6,0.3,0.8C71.4,22.8,71.7,22.9,71.9,22.9z"/>
	<path class="st0" d="M77.8,24.3c-0.4,0-0.7-0.1-1-0.2s-0.6-0.3-0.8-0.5s-0.4-0.5-0.5-0.8s-0.2-0.6-0.2-1c0-0.3,0.1-0.6,0.2-0.9
		s0.3-0.5,0.5-0.8c0.2-0.2,0.5-0.4,0.8-0.5s0.6-0.2,1-0.2c0.3,0,0.6,0,0.9,0.1s0.5,0.2,0.7,0.4c0.3,0.2,0.5,0.6,0.6,0.9
		c0.1,0.4,0.2,0.8,0.2,1.3h-3.4c0,0.3,0.2,0.5,0.3,0.7c0.2,0.2,0.4,0.3,0.7,0.3c0.2,0,0.4,0,0.5-0.1s0.2-0.2,0.3-0.3H80
		c0,0.2-0.1,0.4-0.3,0.6c-0.1,0.2-0.3,0.3-0.5,0.5c-0.2,0.1-0.4,0.2-0.7,0.3S78.1,24.3,77.8,24.3z M78.6,21.5c0-0.3-0.1-0.5-0.3-0.6
		c-0.2-0.2-0.4-0.2-0.6-0.2c-0.3,0-0.5,0.1-0.7,0.2c-0.2,0.2-0.3,0.4-0.3,0.6H78.6z"/>
	<path class="st0" d="M81.1,19.7h1.4v0.6l0,0c0.2-0.2,0.4-0.4,0.6-0.6c0.2-0.1,0.5-0.2,0.8-0.2s0.5,0,0.7,0.1s0.4,0.2,0.5,0.4
		c0.1,0.1,0.2,0.3,0.3,0.5c0.1,0.2,0.1,0.4,0.1,0.7v2.9H84v-2.6c0-0.2-0.1-0.4-0.2-0.6c-0.1-0.1-0.3-0.2-0.6-0.2
		c-0.3,0-0.5,0.1-0.6,0.3c-0.2,0.2-0.2,0.4-0.2,0.7v2.5h-1.5v-4.5H81.1z"/>
</g>
<g>
	<path class="st0" d="M1.4,2.4H0v-1c0.4,0,0.8-0.1,1.1-0.3s0.5-0.5,0.6-0.9h1.2v6.1H1.4V2.4z"/>
	<path class="st0" d="M6.7,6.4c-0.4,0-0.7,0-1-0.1S5.2,6.1,4.9,5.9C4.7,5.7,4.5,5.5,4.4,5.3C4.2,5.1,4.1,4.8,4.1,4.4h1.5
		C5.6,4.7,5.8,4.9,6,5s0.4,0.2,0.7,0.2c0.3,0,0.6-0.1,0.7-0.3c0.2-0.2,0.3-0.4,0.3-0.7c0-0.3-0.1-0.6-0.3-0.7C7.3,3.3,7,3.2,6.7,3.2
		c-0.2,0-0.4,0-0.5,0.1C6,3.4,5.9,3.5,5.8,3.6H4.3L5,0.2h3.9v1.2H6.1L5.9,2.5h0C6,2.4,6.2,2.3,6.4,2.2c0.2-0.1,0.5-0.1,0.7-0.1
		c0.3,0,0.6,0,0.8,0.1c0.3,0.1,0.5,0.2,0.7,0.4S9,3.1,9.1,3.3c0.1,0.3,0.2,0.5,0.2,0.9c0,0.3-0.1,0.6-0.2,0.9C9,5.4,8.8,5.6,8.6,5.8
		C8.4,6,8.1,6.1,7.8,6.2C7.5,6.3,7.1,6.4,6.7,6.4z"/>
	<path class="st0" d="M14.2,0h1.7l2.4,6.3h-1.7l-0.4-1.1h-2.3l-0.4,1.1h-1.6L14.2,0z M15.8,4l-0.5-1.5c0-0.1-0.1-0.2-0.1-0.3
		c0-0.1-0.1-0.2-0.1-0.3c0-0.1-0.1-0.2-0.1-0.3h0c0,0.1-0.1,0.2-0.1,0.3c0,0.1-0.1,0.2-0.1,0.3c0,0.1-0.1,0.2-0.1,0.3L14.2,4H15.8z"
		/>
	<path class="st0" d="M19.1,1.7h1.4v0.5h0c0.2-0.2,0.4-0.4,0.6-0.5s0.5-0.2,0.8-0.2c0.3,0,0.6,0.1,0.8,0.2c0.2,0.1,0.5,0.3,0.6,0.5
		c0.2,0.2,0.3,0.5,0.4,0.8C23.9,3.3,24,3.7,24,4c0,0.4,0,0.7-0.1,1c-0.1,0.3-0.2,0.5-0.4,0.8S23,6.1,22.8,6.2
		c-0.3,0.1-0.5,0.2-0.8,0.2c-0.3,0-0.6-0.1-0.8-0.2c-0.2-0.1-0.4-0.3-0.5-0.4h0v2h-1.5V1.7z M21.5,5.3c0.3,0,0.5-0.1,0.7-0.3
		c0.2-0.2,0.2-0.5,0.2-0.9c0-0.4-0.1-0.7-0.2-0.9s-0.4-0.4-0.7-0.4c-0.2,0-0.3,0-0.4,0.1C21,2.9,20.9,3,20.8,3.1
		c-0.1,0.1-0.1,0.2-0.2,0.4c0,0.2-0.1,0.3-0.1,0.5c0,0.4,0.1,0.7,0.3,0.9S21.2,5.3,21.5,5.3z"/>
	<path class="st0" d="M24.9,1.7h1.4v0.7h0C26.6,2.2,26.8,2,27,1.9c0.2-0.1,0.4-0.2,0.7-0.2c0.1,0,0.2,0,0.3,0v1.2h0
		c-0.5-0.1-0.8,0-1.1,0.2c-0.3,0.2-0.4,0.6-0.4,1.1v2h-1.5V1.7z"/>
	<path class="st0" d="M28.9,0h1.5v1.2h-1.5V0z M28.9,1.7h1.5v4.5h-1.5V1.7z"/>
	<path class="st0" d="M31.6,0h1.5v6.3h-1.5V0z"/>
</g>
<g>
	<path class="st0" d="M16,12.4h2.5v1.2H16V12.4z"/>
</g>
<g>
	<path class="st0" d="M1.4,20.4H0v-1c0.4,0,0.8-0.1,1.1-0.3s0.5-0.5,0.6-0.9h1.2v6.1H1.4V20.4z"/>
	<path class="st0" d="M6.8,24.4c-0.4,0-0.8,0-1.2-0.1S5,24,4.8,23.8c-0.5-0.4-0.7-0.9-0.7-1.6h1.5c0,0.3,0.1,0.6,0.3,0.8
		c0.2,0.2,0.5,0.3,0.9,0.3c0.3,0,0.6-0.1,0.7-0.2c0.2-0.2,0.3-0.4,0.3-0.6c0-0.3-0.1-0.5-0.3-0.6c-0.2-0.1-0.5-0.2-0.8-0.2H6.2v-1
		h0.3c0.3,0,0.5-0.1,0.7-0.2c0.2-0.1,0.3-0.3,0.3-0.5c0-0.2-0.1-0.4-0.2-0.5c-0.1-0.1-0.3-0.2-0.6-0.2c-0.3,0-0.6,0.1-0.7,0.3
		c-0.2,0.2-0.2,0.4-0.3,0.7H4.3c0-0.3,0.1-0.6,0.2-0.8c0.1-0.2,0.3-0.5,0.5-0.6c0.2-0.2,0.5-0.3,0.8-0.4c0.3-0.1,0.7-0.1,1-0.1
		c0.3,0,0.7,0,1,0.1s0.5,0.2,0.7,0.3c0.2,0.1,0.4,0.3,0.5,0.5c0.1,0.2,0.2,0.4,0.2,0.7c0,0.3-0.1,0.6-0.3,0.8
		c-0.2,0.2-0.4,0.3-0.7,0.4v0c0.3,0.1,0.6,0.3,0.8,0.5c0.2,0.2,0.3,0.6,0.3,1c0,0.3-0.1,0.6-0.2,0.8c-0.1,0.2-0.3,0.4-0.5,0.6
		c-0.2,0.2-0.5,0.3-0.8,0.3C7.4,24.4,7.1,24.4,6.8,24.4z"/>
	<path class="st0" d="M12.3,18h2.2l0.8,2.8c0,0.1,0.1,0.2,0.1,0.4c0,0.2,0.1,0.3,0.1,0.5c0,0.2,0.1,0.4,0.1,0.6h0
		c0-0.2,0.1-0.4,0.1-0.6c0-0.2,0.1-0.3,0.1-0.5c0-0.2,0.1-0.3,0.1-0.4l0.8-2.8H19v6.3h-1.5v-3.2c0-0.1,0-0.2,0-0.3s0-0.3,0-0.4
		c0-0.2,0-0.3,0-0.5h0c0,0.2-0.1,0.3-0.1,0.5c0,0.1-0.1,0.3-0.1,0.4c0,0.1-0.1,0.2-0.1,0.3l-0.9,3.3H15L14,21c0-0.1,0-0.2-0.1-0.3
		c0-0.1-0.1-0.3-0.1-0.4c0-0.2-0.1-0.3-0.1-0.5h0c0,0.2,0,0.4,0,0.5c0,0.1,0,0.3,0,0.4c0,0.1,0,0.2,0,0.3v3.2h-1.5V18z"/>
	<path class="st0" d="M21.7,24.4c-0.2,0-0.4,0-0.6-0.1c-0.2-0.1-0.4-0.1-0.5-0.3c-0.1-0.1-0.3-0.3-0.3-0.4c-0.1-0.2-0.1-0.4-0.1-0.6
		c0-0.2,0-0.5,0.1-0.6s0.2-0.3,0.4-0.4c0.2-0.1,0.4-0.2,0.6-0.3s0.4-0.1,0.7-0.1c0.4-0.1,0.8-0.1,0.9-0.2c0.2-0.1,0.3-0.2,0.3-0.3
		c0-0.1-0.1-0.3-0.2-0.4c-0.1-0.1-0.3-0.1-0.5-0.1c-0.2,0-0.4,0-0.5,0.2c-0.1,0.1-0.2,0.2-0.2,0.4h-1.4c0-0.2,0.1-0.4,0.1-0.6
		c0.1-0.2,0.2-0.4,0.4-0.5s0.4-0.3,0.7-0.3s0.6-0.1,0.9-0.1c0.4,0,0.7,0,0.9,0.1c0.2,0.1,0.5,0.2,0.6,0.3c0.2,0.1,0.4,0.3,0.5,0.5
		c0.1,0.2,0.1,0.5,0.1,0.7v2.3c0,0.2,0,0.3,0,0.4c0,0.1,0.1,0.2,0.1,0.2v0.1h-1.5c0,0-0.1-0.1-0.1-0.2s0-0.2-0.1-0.3h0
		c-0.1,0.2-0.3,0.3-0.5,0.4C22.3,24.3,22,24.4,21.7,24.4z M22.2,23.5c0.3,0,0.5-0.1,0.7-0.2s0.3-0.3,0.3-0.6v-0.5
		c-0.1,0-0.2,0.1-0.3,0.1s-0.3,0.1-0.4,0.1c-0.3,0.1-0.5,0.1-0.6,0.2c-0.1,0.1-0.2,0.2-0.2,0.4c0,0.2,0.1,0.3,0.2,0.4
		C21.8,23.4,22,23.5,22.2,23.5z"/>
	<path class="st0" d="M25.8,24.6h0.5c0.2,0,0.4,0,0.5-0.1c0.1-0.1,0.1-0.2,0.1-0.4c0-0.1,0-0.2-0.1-0.4c0-0.1-0.1-0.3-0.2-0.6
		l-1.4-3.5h1.6l0.6,1.9c0,0.1,0.1,0.2,0.1,0.4c0,0.1,0.1,0.2,0.1,0.3c0,0.1,0.1,0.2,0.1,0.4h0c0-0.1,0.1-0.2,0.1-0.4
		c0-0.1,0.1-0.2,0.1-0.3c0-0.1,0.1-0.2,0.1-0.4l0.6-1.9h1.5l-1.6,4.6c-0.1,0.3-0.2,0.5-0.3,0.7s-0.2,0.3-0.4,0.4
		c-0.1,0.1-0.3,0.2-0.5,0.2s-0.4,0.1-0.6,0.1h-1V24.6z"/>
</g>
</svg>
