<?xml version="1.0" encoding="utf-8"?>
<!-- Generator: Adobe Illustrator 24.0.0, SVG Export Plug-In . SVG Version: 6.00 Build 0)  -->
<svg version="1.1" id="Laag_1" xmlns="http://www.w3.org/2000/svg" xmlns:xlink="http://www.w3.org/1999/xlink" x="0px" y="0px"
	 width="184.9px" height="18.7px" viewBox="0 0 184.9 18.7" style="enable-background:new 0 0 184.9 18.7;" xml:space="preserve">
<style type="text/css">
	.st0{fill:#FCF4F7;}
</style>
<g>
	<path class="st0" d="M7.7,15.1v-0.7l1.2-0.1l-1.1-3.7H3.2l-0.6,2.1c-0.1,0.3-0.1,0.5-0.1,0.6c0,0.8,0.5,1,1.4,1v0.7H0v-0.7
		c0.9-0.2,1.3-0.3,1.5-1.3L5,2.2L4.4,1l2.3-0.1l4.1,13.3l1,0.1v0.7H7.7z M7.5,9.8l-2-6.6h0l-2,6.6H7.5z"/>
	<path class="st0" d="M19.1,13.6c0,0.5,0.2,0.6,0.5,0.6c0.3,0,0.5-0.2,0.6-0.4l0.4,0.4c-0.5,0.6-1,1.1-1.9,1.1
		c-0.7,0-1.2-0.6-1.2-1.3c-0.7,0.7-1.8,1.3-2.8,1.3c-1.4,0-2.5-1-2.5-2.4c0-2.6,3.2-3.8,5.3-4.3c0-2.2-1.3-2.8-2-2.8
		c-0.7,0-0.4,1.3-1.8,1.3c-0.5,0-0.9-0.4-0.9-0.9c0-0.9,0.5-1.1,1.8-1.1c1.2,0,4.4,0.7,4.4,3.5V13.6z M17.4,9.4
		c-1.3,0.2-3.5,1.1-3.5,3.1c0,1,0.6,1.7,1.6,1.7c0.8,0,1.4-0.5,1.9-1.1V9.4z"/>
	<path class="st0" d="M29.2,12.8c0,0.8,0.1,1.2,1,1.2v0.6l-1.9,0.7l-0.6-1.4c-0.8,0.7-1.6,1.4-2.8,1.4c-2,0-3.4-2.4-3.4-4.8
		c0-3.1,1.8-5.4,3.9-5.4c0.9,0,1.5,0.2,2.2,0.6V2c0-0.4-0.1-0.5-0.3-0.5c-0.3,0-0.6,0-0.8,0.1V0.9L29.3,0c0,0.4,0,0.8,0,1.2V12.8z
		 M27.6,7.4c0-0.8-1-1.6-2-1.6c-2,0-2.5,2.3-2.5,3.7c0,2.3,0.9,4.4,2.6,4.4c0.6,0,1.5-0.4,1.8-0.8V7.4z"/>
	<path class="st0" d="M44.5,12.8c0,0.8,0.1,1.2,1,1.2v0.6l-1.9,0.7L43,13.9c-0.8,0.7-1.6,1.4-2.8,1.4c-2,0-3.4-2.4-3.4-4.8
		c0-3.1,1.8-5.4,3.9-5.4c0.9,0,1.5,0.2,2.2,0.6V2c0-0.4-0.1-0.5-0.3-0.5c-0.3,0-0.6,0-0.8,0.1V0.9L44.5,0c0,0.4,0,0.8,0,1.2V12.8z
		 M42.9,7.4c0-0.8-1-1.6-2-1.6c-2,0-2.5,2.3-2.5,3.7c0,2.3,0.9,4.4,2.6,4.4c0.6,0,1.5-0.4,1.8-0.8V7.4z"/>
	<path class="st0" d="M48.7,10.6c0.1,1.4,0.9,3.4,2.8,3.4c1.1,0,1.8-0.6,2.4-1.6l0.5,0.3c-0.6,1.4-1.8,2.6-3.5,2.6
		c-2.6,0-3.9-2.4-3.9-4.7c0-3.3,1.8-5.5,3.7-5.5C53,5.2,54,7,54.2,9L48.7,10.6z M51.3,9c0.6-0.2,1.1-0.4,1.1-1.3
		c0-0.8-0.4-1.8-1.5-1.8c-1.7,0-2.2,1.6-2.2,2.8c0,0.6,0,0.8,0,1L51.3,9z"/>
	<path class="st0" d="M62.4,1.8l-1.2-0.1V1h4.3v0.7l-1.2,0.1v5.3h6.5V1.8l-1.2-0.1V1H74v0.7l-1.2,0.1v12.4l1.2,0.1v0.7h-4.3v-0.7
		l1.2-0.1V7.9h-6.5v6.2l1.2,0.1v0.7h-4.3v-0.7l1.2-0.1V1.8z"/>
	<path class="st0" d="M82.3,13.6c0,0.5,0.2,0.6,0.5,0.6c0.3,0,0.5-0.2,0.6-0.4l0.4,0.4c-0.5,0.6-1,1.1-1.9,1.1
		c-0.7,0-1.2-0.6-1.2-1.3c-0.7,0.7-1.8,1.3-2.8,1.3c-1.4,0-2.5-1-2.5-2.4c0-2.6,3.2-3.8,5.3-4.3c0-2.2-1.3-2.8-2-2.8
		c-0.7,0-0.4,1.3-1.8,1.3c-0.5,0-0.9-0.4-0.9-0.9c0-0.9,0.5-1.1,1.8-1.1c1.2,0,4.4,0.7,4.4,3.5V13.6z M80.7,9.4
		c-1.3,0.2-3.5,1.1-3.5,3.1c0,1,0.6,1.7,1.6,1.7c0.8,0,1.4-0.5,1.9-1.1V9.4z"/>
	<path class="st0" d="M91.4,13.6c0,0.5,0.2,0.6,0.5,0.6c0.3,0,0.5-0.2,0.6-0.4l0.4,0.4c-0.5,0.6-1,1.1-1.9,1.1
		c-0.7,0-1.2-0.6-1.2-1.3c-0.7,0.7-1.8,1.3-2.8,1.3c-1.4,0-2.5-1-2.5-2.4c0-2.6,3.2-3.8,5.3-4.3c0-2.2-1.3-2.8-2-2.8
		c-0.7,0-0.4,1.3-1.8,1.3c-0.5,0-0.9-0.4-0.9-0.9c0-0.9,0.5-1.1,1.8-1.1c1.2,0,4.4,0.7,4.4,3.5V13.6z M89.7,9.4
		c-1.3,0.2-3.5,1.1-3.5,3.1c0,1,0.6,1.7,1.6,1.7c0.8,0,1.4-0.5,1.9-1.1V9.4z"/>
	<path class="st0" d="M96.6,15.4c-1.6,0-3-0.7-3-1.8c0-0.7,0.4-1,0.9-1c1.5,0,0.6,2.1,2.1,2.1c1.1,0,2.1-0.5,2.1-1.6
		c0-2.5-4.6-2.1-4.6-5.1c0-1.7,1.3-2.8,3.6-2.8c1.2,0,1.8,0.5,1.8,1.1c0,0.7-0.4,0.9-1,0.9c-1,0-0.9-1.3-1.6-1.3
		c-0.8,0-1.4,0.6-1.4,1.4c0,2.3,4.6,1.5,4.6,5.2C100.1,13.9,98.8,15.4,96.6,15.4z"/>
	<path class="st0" d="M107,10.9V9.6h4.9v1.3H107z"/>
	<path class="st0" d="M119.9,15.1v-0.7l2.5-0.2V3.8c0-1-0.1-1.3-1.3-1.3c-0.4,0-0.8,0-1.2,0V1.8l4.3-1.1v13.5l2.1,0.2v0.7H119.9z"/>
	<path class="st0" d="M137.3,8c0,3-1.6,7.3-4.1,7.3c-2.6,0-4.1-3.4-4.1-7.3c0-4.1,2-7.3,4.1-7.3C135.6,0.7,137.3,3.9,137.3,8z
		 M131,8c0,5.1,0.4,6.7,2.2,6.7c1.6,0,2.2-2,2.2-6.7c0-4.6-0.5-6.7-2.2-6.7C131.8,1.3,131,3.4,131,8z"/>
	<path class="st0" d="M147.5,8c0,3-1.6,7.3-4.1,7.3c-2.6,0-4.1-3.4-4.1-7.3c0-4.1,2-7.3,4.1-7.3C145.8,0.7,147.5,3.9,147.5,8z
		 M141.2,8c0,5.1,0.4,6.7,2.2,6.7c1.6,0,2.2-2,2.2-6.7c0-4.6-0.5-6.7-2.2-6.7C142,1.3,141.2,3.4,141.2,8z"/>
	<path class="st0" d="M157.5,5.2c0,0.4,0,0.8,0,1.2v7.4c0,2.4-1.8,4.8-3.4,4.8c-0.7,0-1.1-0.4-1.1-0.9c0-0.5,0.3-1,0.9-1
		c0.4,0,0.6,0.1,0.8,0.3c0.2,0.1,0.3,0.3,0.5,0.3c0.6,0,0.7-1.2,0.7-2.2V8.4c0-1.4-0.2-1.8-0.6-1.8c-0.1,0-0.3,0-0.5,0.1V6.1
		L157.5,5.2z M157.7,1.7c0,0.6-0.4,1.1-1.1,1.1c-0.7,0-1.1-0.5-1.1-1.1c0-0.6,0.4-1.1,1.1-1.1C157.3,0.7,157.7,1.1,157.7,1.7z"/>
	<path class="st0" d="M166.7,13.6c0,0.5,0.2,0.6,0.5,0.6c0.3,0,0.5-0.2,0.6-0.4l0.4,0.4c-0.5,0.6-1,1.1-1.9,1.1
		c-0.7,0-1.2-0.6-1.2-1.3c-0.7,0.7-1.8,1.3-2.8,1.3c-1.4,0-2.5-1-2.5-2.4c0-2.6,3.2-3.8,5.3-4.3c0-2.2-1.3-2.8-2-2.8
		c-0.7,0-0.4,1.3-1.8,1.3c-0.5,0-0.9-0.4-0.9-0.9c0-0.9,0.5-1.1,1.8-1.1c1.2,0,4.4,0.7,4.4,3.5V13.6z M165,9.4
		c-1.3,0.2-3.5,1.1-3.5,3.1c0,1,0.6,1.7,1.6,1.7c0.8,0,1.4-0.5,1.9-1.1V9.4z"/>
	<path class="st0" d="M175.7,13.6c0,0.5,0.2,0.6,0.5,0.6c0.3,0,0.5-0.2,0.6-0.4l0.4,0.4c-0.5,0.6-1,1.1-1.9,1.1
		c-0.7,0-1.2-0.6-1.2-1.3c-0.7,0.7-1.8,1.3-2.8,1.3c-1.4,0-2.5-1-2.5-2.4c0-2.6,3.2-3.8,5.3-4.3c0-2.2-1.3-2.8-2-2.8
		c-0.7,0-0.4,1.3-1.8,1.3c-0.5,0-0.9-0.4-0.9-0.9c0-0.9,0.5-1.1,1.8-1.1c1.2,0,4.4,0.7,4.4,3.5V13.6z M174.1,9.4
		c-1.3,0.2-3.5,1.1-3.5,3.1c0,1,0.6,1.7,1.6,1.7c0.8,0,1.4-0.5,1.9-1.1V9.4z"/>
	<path class="st0" d="M178.5,15.1v-0.6l1-0.1V9c0-1.3-0.4-2.5-0.9-2.5c-0.1,0-0.3,0.1-0.4,0.1V6l2-0.8c0.3,0.7,0.8,2.1,0.8,3.5h0
		c0.2-1.1,1.3-3.5,2.7-3.5c0.7,0,1.1,0.5,1.1,1.1c0,0.5-0.6,1-1,1c-0.5,0-0.7-0.2-1-0.2c-0.9,0-1.7,2.8-1.7,4.3v2.9l1,0.1v0.6H178.5
		z"/>
</g>
</svg>
