<?xml version="1.0" encoding="utf-8"?>
<!-- Generator: Adobe Illustrator 23.0.2, SVG Export Plug-In . SVG Version: 6.00 Build 0)  -->
<svg version="1.1" id="Laag_1" xmlns="http://www.w3.org/2000/svg" xmlns:xlink="http://www.w3.org/1999/xlink" x="0px" y="0px"
	 width="214.2px" height="62.9px" viewBox="0 0 214.2 62.9" style="enable-background:new 0 0 214.2 62.9;" xml:space="preserve">
<style type="text/css">
	.st0{fill:#FFFFFF;}
</style>
<g>
	<path class="st0" d="M7.5,7.7L3.4,9.2V5.9l4.8-2h3.2v19.4H7.5V7.7z"/>
	<path class="st0" d="M15.2,16.9v-6.6c0-4,2.9-6.8,7.3-6.8s7.3,2.8,7.3,6.8v6.6c0,4-2.9,6.8-7.3,6.8S15.2,20.8,15.2,16.9z M26,10.2
		c0-2.4-1.3-3.6-3.5-3.6S19,7.8,19,10.2V17c0,2.4,1.3,3.6,3.5,3.6S26,19.4,26,17V10.2z"/>
	<path class="st0" d="M34.9,19.1c1.3,0,2.2,0.9,2.2,2.2s-0.9,2.2-2.2,2.2s-2.2-0.9-2.2-2.2S33.6,19.1,34.9,19.1z"/>
	<path class="st0" d="M64.8,23.2h-3.7V11.3l-3.6,7.2H54l-3.6-7.2v11.9h-3.7V3.8h3.6l5.5,11.1l5.5-11.1h3.6L64.8,23.2L64.8,23.2z"/>
	<path class="st0" d="M68.2,19.1c0-3.1,2.4-4.6,5.8-4.6c1.7,0,3,0.7,3.7,1.2v-2c0-1.3-0.9-2.3-2.5-2.3c-1.3,0-2.1,0.6-2.5,1.4h-3.5
		c0.8-2.8,3.1-4.3,6.2-4.3c3.6,0,6.1,2.2,6.1,5.5v9.2h-3.6v-1.3c-0.7,1-2.5,1.7-4.2,1.7C70.4,23.6,68.2,21.9,68.2,19.1z M77.7,18.9
		c0-1.3-1.2-2-2.9-2c-1.8,0-2.9,0.7-2.9,2.1c0,1.3,1.2,2.1,2.8,2.1S77.7,20.2,77.7,18.9z"/>
	<path class="st0" d="M87,2.9c1.3,0,2.2,0.9,2.2,2.2c0,1.2-0.9,2.2-2.2,2.2s-2.2-0.9-2.2-2.2S85.7,2.9,87,2.9z M85.1,8.8h3.8v14.4
		h-3.8V8.8z"/>
	<path class="st0" d="M98.3,20.3l7.9-7.8c1.1-1.1,1.8-2,1.8-3.4c0-1.6-1.2-2.6-2.8-2.6c-1.9,0-2.9,1.1-2.9,3v0.4h-3.6V9.4
		c0-3.8,2.5-5.9,6.5-5.9s6.7,2.2,6.7,5.7c0,2.8-2,4.7-3.8,6.3l-5,4.6h8.7v3.1H98.3V20.3z"/>
	<path class="st0" d="M115.1,16.9v-6.6c0-4,2.9-6.8,7.3-6.8s7.3,2.8,7.3,6.8v6.6c0,4-2.9,6.8-7.3,6.8S115.1,20.8,115.1,16.9z
		 M125.9,10.2c0-2.4-1.3-3.6-3.5-3.6s-3.5,1.2-3.5,3.6V17c0,2.4,1.3,3.6,3.5,3.6s3.5-1.2,3.5-3.6V10.2z"/>
	<path class="st0" d="M136.1,7.7L132,9.2V5.9l4.8-2h3.2v19.4h-3.8L136.1,7.7L136.1,7.7z"/>
	<path class="st0" d="M147,23.2l5-7.3c-0.5,0.5-1.6,0.8-2.5,0.8c-3.3,0-6.1-2.5-6.1-6.5c0-3.9,2.9-6.8,7.2-6.8
		c4.4,0,7.3,2.7,7.3,6.7c0,2.1-0.7,4-1.6,5.4l-5.2,7.7H147z M150.6,6.5c-2.1,0-3.5,1.5-3.5,3.7c0,2.1,1.3,3.6,3.5,3.6
		s3.5-1.7,3.5-3.7S152.9,6.5,150.6,6.5z"/>
	<path class="st0" d="M170.8,21.5v1.7h-3.6V3h3.8v7.4c0.8-1.1,2.2-1.9,4.1-1.9c3.9,0,6,2.9,6,6.3v2.4c0,3.4-2.2,6.3-6.1,6.3
		C173,23.6,171.5,22.7,170.8,21.5z M177.4,17.1V15c0-2-1.1-3.5-3.2-3.5c-1.7,0-3.2,1.2-3.2,3.4V17c0,2,1.3,3.5,3.2,3.5
		C176.3,20.5,177.4,19,177.4,17.1z"/>
	<path class="st0" d="M186.2,2.9c1.3,0,2.2,0.9,2.2,2.2c0,1.2-0.9,2.2-2.2,2.2S184,6.4,184,5.1S184.9,2.9,186.2,2.9z M184.3,8.8h3.8
		v14.4h-3.8V8.8z"/>
	<path class="st0" d="M191.2,19v-0.2h3.3V19c0,1.2,1.1,2,2.9,2c1.6,0,2.7-0.6,2.7-1.7c0-0.7-0.4-1.1-1.2-1.3l-4.3-1
		c-2.2-0.5-3.3-1.6-3.3-3.8c0-3,2.4-4.6,5.8-4.6c3.5,0,5.7,1.7,5.7,4.6v0.2h-3.3v-0.2c0-1.1-0.7-1.9-2.4-1.9c-1.5,0-2.4,0.6-2.4,1.6
		c0,0.7,0.4,1.1,1.1,1.2l4.4,1.1c2.1,0.5,3.2,1.7,3.2,3.7c0,2.8-2.7,4.8-6.2,4.8C193.8,23.6,191.2,22,191.2,19z"/>
	<path class="st0" d="M7.5,41.3l-4.1,1.5v-3.3l4.8-2h3.2v19.4H7.6L7.5,41.3L7.5,41.3z"/>
	<path class="st0" d="M18.4,56.8l5-7.3c-0.5,0.5-1.6,0.8-2.5,0.8c-3.3,0-6.1-2.5-6.1-6.5c0-3.9,2.9-6.8,7.2-6.8
		c4.4,0,7.3,2.7,7.3,6.7c0,2.1-0.7,4-1.6,5.4l-5.2,7.7H18.4z M22,40.1c-2.1,0-3.5,1.5-3.5,3.7c0,2.1,1.3,3.6,3.5,3.6
		s3.5-1.7,3.5-3.7S24.3,40.1,22,40.1z"/>
	<path class="st0" d="M34.2,52.7c1.3,0,2.2,0.9,2.2,2.2c0,1.3-0.9,2.2-2.2,2.2S32,56.2,32,54.9C32,53.6,32.9,52.7,34.2,52.7z"/>
	<path class="st0" d="M44.8,51.2v-0.3h3.7v0.2c0,1.8,1.1,2.9,3.2,2.9s3.1-1.2,3.1-2.9V37.4h3.9v13.7c0,3.6-2.8,6.1-7,6.1
		C47.4,57.2,44.8,54.9,44.8,51.2z"/>
	<path class="st0" d="M61.9,52.7c0-3.1,2.4-4.6,5.8-4.6c1.7,0,3,0.7,3.7,1.2v-2c0-1.3-0.9-2.3-2.5-2.3c-1.3,0-2.1,0.6-2.5,1.4h-3.5
		c0.8-2.8,3.1-4.3,6.2-4.3c3.6,0,6.1,2.2,6.1,5.5v9.2h-3.6v-1.3c-0.7,1-2.5,1.7-4.2,1.7C64.1,57.2,61.9,55.5,61.9,52.7z M71.4,52.5
		c0-1.3-1.2-2-2.9-2c-1.8,0-2.9,0.7-2.9,2.1c0,1.3,1.2,2.1,2.8,2.1C70,54.7,71.4,53.8,71.4,52.5z"/>
	<path class="st0" d="M78.7,42.4h3.6v1.7c0.7-1.3,2.2-2.1,4.2-2.1c3.1,0,5.1,2.1,5.1,5.5v9.2h-3.7v-8.6c0-1.7-0.8-2.9-2.6-2.9
		c-1.7,0-2.8,1-2.8,2.9v8.5h-3.8L78.7,42.4L78.7,42.4z"/>
	<path class="st0" d="M107.9,56.8h-3.6v-1.7c-0.7,1.2-2.3,2-4.2,2c-3.2,0-5-2.2-5-5.5v-9.2h3.8v8.7c0,1.8,0.9,2.9,2.5,2.9
		c1.7,0,2.7-1.1,2.7-2.9v-8.7h3.8L107.9,56.8L107.9,56.8z"/>
	<path class="st0" d="M111,52.7c0-3.1,2.4-4.6,5.8-4.6c1.7,0,3,0.7,3.7,1.2v-2c0-1.3-0.9-2.3-2.5-2.3c-1.3,0-2.1,0.6-2.5,1.4H112
		c0.8-2.8,3.1-4.3,6.2-4.3c3.6,0,6.1,2.2,6.1,5.5v9.2h-3.6v-1.3c-0.7,1-2.5,1.7-4.2,1.7C113.3,57.2,111,55.5,111,52.7z M120.5,52.5
		c0-1.3-1.2-2-2.9-2c-1.8,0-2.9,0.7-2.9,2.1c0,1.3,1.2,2.1,2.8,2.1C119.1,54.7,120.5,53.8,120.5,52.5z"/>
	<path class="st0" d="M127.9,42.4h3.6v2.8c0.5-2.2,2.2-2.9,4.3-2.9h0.4V46h-0.8c-2.5,0-3.8,1.2-3.8,4.1v6.6h-3.7V42.4z"/>
	<path class="st0" d="M144.5,53.9l7.9-7.8c1.1-1.1,1.8-2,1.8-3.4c0-1.6-1.2-2.6-2.8-2.6c-1.9,0-2.9,1.1-2.9,3v0.4h-3.6V43
		c0-3.8,2.5-5.9,6.5-5.9s6.7,2.2,6.7,5.7c0,2.8-2,4.7-3.8,6.3l-5,4.6h8.7v3.1h-13.4v-2.9H144.5z"/>
	<path class="st0" d="M161.3,50.5v-6.6c0-4,2.9-6.8,7.3-6.8s7.3,2.8,7.3,6.8v6.6c0,4-2.9,6.8-7.3,6.8S161.3,54.4,161.3,50.5z
		 M172.1,43.8c0-2.4-1.3-3.6-3.5-3.6s-3.5,1.2-3.5,3.6v6.8c0,2.4,1.3,3.6,3.5,3.6s3.5-1.2,3.5-3.6V43.8z"/>
	<path class="st0" d="M178.9,53.9l7.9-7.8c1.1-1.1,1.8-2,1.8-3.4c0-1.6-1.2-2.6-2.8-2.6c-1.9,0-2.9,1.1-2.9,3v0.4h-3.6V43
		c0-3.8,2.5-5.9,6.5-5.9s6.7,2.2,6.7,5.7c0,2.8-2,4.7-3.8,6.3l-5,4.6h8.7v3.1h-13.5V53.9z"/>
	<path class="st0" d="M195.7,50.5v-6.6c0-4,2.9-6.8,7.3-6.8c4.5,0,7.3,2.8,7.3,6.8v6.6c0,4-2.9,6.8-7.3,6.8
		C198.5,57.2,195.7,54.4,195.7,50.5z M206.5,43.8c0-2.4-1.3-3.6-3.5-3.6s-3.5,1.2-3.5,3.6v6.8c0,2.4,1.3,3.6,3.5,3.6
		s3.5-1.2,3.5-3.6V43.8z"/>
</g>
</svg>
