<?xml version="1.0" encoding="utf-8"?>
<!-- Generator: Adobe Illustrator 24.3.0, SVG Export Plug-In . SVG Version: 6.00 Build 0)  -->
<svg version="1.1" id="Laag_1" xmlns="http://www.w3.org/2000/svg" xmlns:xlink="http://www.w3.org/1999/xlink" x="0px" y="0px"
	 width="59px" height="63.7px" viewBox="0 0 59 63.7" style="enable-background:new 0 0 59 63.7;" xml:space="preserve">
<style type="text/css">
	.st0{fill:#563E4A;}
	.st1{fill:none;stroke:#563E4A;stroke-width:0.2681;stroke-miterlimit:10;}
	.st2{clip-path:url(#SVGID_1_);}
	.st3{fill:#FAE513;}
	.st4{fill:none;stroke:#FAE513;stroke-width:0.2681;stroke-miterlimit:10;}
	.st5{fill:none;stroke:#FAE513;stroke-width:0.8038;stroke-miterlimit:10;}
</style>
<g>
	<g>
		<g>
			<path class="st0" d="M6.8,40.5c-0.7-0.5-1.5-0.7-2.4-0.7C3,39.8,2,40.2,1.2,41c-0.8,0.8-1.1,1.8-1.1,3V49h10.2v-2.5H8.8v-1.6
				l1.5-0.9v-2.8l-2,1.2C8,41.5,7.5,40.9,6.8,40.5z M6.4,46.4H2.6v-2.2c0-0.6,0.2-1,0.5-1.4c0.3-0.3,0.8-0.5,1.3-0.5
				c0.6,0,1.1,0.2,1.4,0.5c0.4,0.3,0.6,0.8,0.6,1.4V46.4z"/>
			<path class="st0" d="M7,37.8c1.2,0,2.3-0.3,3.3-0.8v-3.3c-0.1,0.1-0.1,0.1-0.2,0.2c-0.8,0.8-1.9,1.1-3.2,1.1
				c-1.3,0-2.3-0.4-3.2-1.1c-0.8-0.7-1.2-1.7-1.2-2.9c0-1.2,0.4-2.2,1.2-2.9C4.7,27.4,5.7,27,7,27c1.3,0,2.3,0.4,3.2,1.1
				c0.1,0,0.1,0.1,0.2,0.2v-3.2c-1-0.5-2.1-0.8-3.3-0.8c-2,0-3.7,0.7-5,2c-1.3,1.3-2,2.9-2,4.8c0,1.8,0.7,3.4,2,4.8
				C3.4,37.2,5,37.8,7,37.8z"/>
			<path class="st0" d="M10.3,58.1H8.8v-2.8c0-1.2-0.4-2.2-1.2-3C6.7,51.5,5.7,51,4.3,51C3,51,2,51.5,1.2,52.3
				c-0.8,0.8-1.1,1.8-1.1,3v5.3h10.2V58.1z M6.4,58.1H2.5v-2.6c0-0.6,0.2-1,0.5-1.4c0.3-0.3,0.8-0.5,1.3-0.5c0.6,0,1.1,0.2,1.4,0.5
				c0.4,0.3,0.6,0.8,0.6,1.4V58.1z"/>
			<path class="st0" d="M10.3,19.2H2.7v-1.7c0-1.2,0.4-2.2,1.1-3c0.8-0.8,1.8-1.2,3.1-1.2c1.3,0,2.4,0.4,3.2,1.2
				c0.1,0.1,0.1,0.1,0.2,0.2v-3.4c-0.9-0.5-2.1-0.7-3.3-0.7c-2.1,0-3.8,0.7-5.1,2c-1.2,1.3-1.8,3-1.8,4.9v4.4h10.2V19.2z"/>
		</g>
		<g>
			<polygon class="st0" points="23.9,17.1 21.7,17.1 21.7,11.2 19.2,11.2 19.2,17.1 16.1,17.1 16.1,10.6 13.7,10.6 13.7,19.7 
				23.9,19.7 			"/>
			<rect x="13.7" y="22.6" class="st0" width="10.2" height="2.7"/>
			<path class="st0" d="M13.7,52.6v2.7h7.7c1.1,0,1.9,0.2,2.5,0.6v-3.1c-0.7-0.2-1.5-0.3-2.3-0.3H13.7z"/>
			<polygon class="st0" points="16.1,33.8 23.9,33.8 23.9,31.1 16.1,31.1 16.1,27.4 13.7,27.4 13.7,37.5 16.1,37.5 			"/>
			<path class="st0" d="M23.9,60.3c-0.6,0.4-1.5,0.6-2.5,0.6h-7.7v2.7h7.9c0.9,0,1.7-0.1,2.3-0.3V60.3z"/>
			<path class="st0" d="M15.5,48.7c1.3,1.2,3,1.8,5,1.8c1.2,0,2.4-0.2,3.3-0.7v-3.1c0,0-0.1,0.1-0.1,0.1c-0.8,0.6-1.9,0.9-3.2,0.9
				c-1.3,0-2.4-0.3-3.2-0.9c-0.8-0.6-1.2-1.5-1.2-2.6c0-1.3,0.5-2.2,1.6-2.7v-3c-1.3,0.4-2.4,1.1-3.1,2.1c-0.8,1-1.1,2.2-1.1,3.5
				C13.6,46,14.2,47.5,15.5,48.7z"/>
		</g>
		<g>
			<rect x="27.2" y="22.6" class="st0" width="10.3" height="2.7"/>
			<path class="st0" d="M27.2,30.8h7.6c1.1,0,2,0.2,2.6,0.7c0,0,0.1,0.1,0.1,0.1v-3.1c-0.7-0.2-1.6-0.4-2.5-0.4h-7.7V30.8z"/>
			<path class="st0" d="M27.2,39H35c1,0,1.8-0.1,2.5-0.4v-3.1c0,0-0.1,0.1-0.1,0.1c-0.6,0.5-1.5,0.7-2.6,0.7h-7.6V39z"/>
			<path class="st0" d="M30.8,19.8c1.2,0,2.1-0.5,2.9-1.6c0.3-0.5,0.8-1.4,1.3-2.7c0.1-0.3,0.2-0.6,0.3-0.8c0.1-0.2,0.2-0.4,0.4-0.7
				c0.2-0.2,0.4-0.4,0.6-0.5c0.2-0.1,0.5-0.2,0.7-0.2c0.2,0,0.3,0,0.5,0.1v-2.6c-0.2,0-0.3,0-0.5,0c-0.5,0-0.9,0.1-1.4,0.3
				c-0.4,0.2-0.7,0.4-1,0.6c-0.3,0.2-0.5,0.5-0.8,0.9c-0.3,0.4-0.4,0.7-0.6,0.9c-0.1,0.2-0.3,0.6-0.4,1c-0.2,0.4-0.3,0.7-0.3,0.8
				c-0.2,0.4-0.3,0.7-0.4,0.9c-0.1,0.2-0.2,0.4-0.4,0.6c-0.1,0.2-0.3,0.4-0.4,0.5c-0.1,0.1-0.3,0.1-0.5,0.1c-0.4,0-0.7-0.2-1-0.5
				c-0.2-0.3-0.3-0.7-0.3-1.2c0-0.5,0.1-0.9,0.3-1.3c0.2-0.4,0.5-0.6,0.9-0.6V11c-0.9,0-1.8,0.4-2.5,1.2c-0.7,0.8-1.1,1.9-1.1,3.2
				c0,1.3,0.3,2.3,1,3.1C28.8,19.4,29.7,19.8,30.8,19.8z"/>
			<polygon class="st0" points="37.5,49.5 35.2,49.5 35.2,44.1 37.5,44.1 37.5,41.5 27.2,41.5 27.2,44.1 32.7,44.1 32.7,49.5 
				27.2,49.5 27.2,52.1 37.5,52.1 			"/>
		</g>
	</g>
	<g>
		<g>
			<path class="st1" d="M52,31.1l2.7-1.5v-8.8L52,19.4l-2.6,1.4c0,0,0,0.1,0,0.1l2.6,1.4V31.1z"/>
			<polygon class="st1" points="46.6,13.5 49.3,12.1 49.3,29.6 46.6,28.1 			"/>
			<polygon class="st1" points="49.3,9.2 46.6,10.6 38.5,6.2 41.2,4.8 			"/>
			<path class="st1" d="M43.9,9.3v14.4l-2.7,1.5V10.6l2.5-1.4C43.8,9.2,43.9,9.2,43.9,9.3z"/>
			<path class="st1" d="M49.3,12.1l2.7-1.5c0,0,4.4,1.6,2.7,7.3L52,19.4C53.7,13.6,49.3,12.1,49.3,12.1z"/>
		</g>
	</g>
</g>
<g>
	<defs>
		<rect id="SVGID_3_" x="19.3" width="39.7" height="65.2"/>
	</defs>
	<clipPath id="SVGID_1_">
		<use xlink:href="#SVGID_3_"  style="overflow:visible;"/>
	</clipPath>
	<g class="st2">
		<g>
			<g>
				<path class="st3" d="M9.8,37.5c-0.7-0.5-1.5-0.7-2.4-0.7C6,36.8,5,37.2,4.2,38c-0.8,0.8-1.1,1.8-1.1,3V46h10.2v-2.5h-1.5v-1.6
					l1.5-0.9v-2.8l-2,1.2C11,38.5,10.5,37.9,9.8,37.5z M9.4,43.4H5.6v-2.2c0-0.6,0.2-1,0.5-1.4c0.3-0.3,0.8-0.5,1.3-0.5
					c0.6,0,1.1,0.2,1.4,0.5c0.4,0.3,0.6,0.8,0.6,1.4V43.4z"/>
				<path class="st3" d="M10,34.8c1.2,0,2.3-0.3,3.3-0.8v-3.3c-0.1,0.1-0.1,0.1-0.2,0.2c-0.8,0.8-1.9,1.1-3.2,1.1
					c-1.3,0-2.3-0.4-3.2-1.1c-0.8-0.7-1.2-1.7-1.2-2.9c0-1.2,0.4-2.2,1.2-2.9C7.7,24.4,8.7,24,10,24c1.3,0,2.3,0.4,3.2,1.1
					c0.1,0,0.1,0.1,0.2,0.2v-3.2c-1-0.5-2.1-0.8-3.3-0.8c-2,0-3.7,0.7-5,2c-1.3,1.3-2,2.9-2,4.8c0,1.8,0.7,3.4,2,4.8
					C6.4,34.2,8,34.8,10,34.8z"/>
				<path class="st3" d="M13.3,55.1h-1.5v-2.8c0-1.2-0.4-2.2-1.2-3C9.7,48.5,8.7,48,7.3,48C6,48,5,48.5,4.2,49.3
					c-0.8,0.8-1.1,1.8-1.1,3v5.3h10.2V55.1z M9.4,55.1H5.5v-2.6c0-0.6,0.2-1,0.5-1.4c0.3-0.3,0.8-0.5,1.3-0.5c0.6,0,1.1,0.2,1.4,0.5
					c0.4,0.3,0.6,0.8,0.6,1.4V55.1z"/>
				<path class="st3" d="M13.3,16.2H5.7v-1.7c0-1.2,0.4-2.2,1.1-3c0.8-0.8,1.8-1.2,3.1-1.2c1.3,0,2.4,0.4,3.2,1.2
					c0.1,0.1,0.1,0.1,0.2,0.2V8.3c-0.9-0.5-2.1-0.7-3.3-0.7c-2.1,0-3.8,0.7-5.1,2c-1.2,1.3-1.8,3-1.8,4.9v4.4h10.2V16.2z"/>
			</g>
			<g>
				<polygon class="st3" points="26.9,14.1 24.7,14.1 24.7,8.2 22.2,8.2 22.2,14.1 19.1,14.1 19.1,7.6 16.7,7.6 16.7,16.7 
					26.9,16.7 				"/>
				<rect x="16.7" y="19.6" class="st3" width="10.2" height="2.7"/>
				<path class="st3" d="M16.7,49.6v2.7h7.7c1.1,0,1.9,0.2,2.5,0.6v-3.1c-0.7-0.2-1.5-0.3-2.3-0.3H16.7z"/>
				<polygon class="st3" points="19.1,30.8 26.9,30.8 26.9,28.1 19.1,28.1 19.1,24.4 16.7,24.4 16.7,34.5 19.1,34.5 				"/>
				<path class="st3" d="M26.9,57.3c-0.6,0.4-1.5,0.6-2.5,0.6h-7.7v2.7h7.9c0.9,0,1.7-0.1,2.3-0.3V57.3z"/>
				<path class="st3" d="M18.5,45.7c1.3,1.2,3,1.8,5,1.8c1.2,0,2.4-0.2,3.3-0.7v-3.1c0,0-0.1,0.1-0.1,0.1c-0.8,0.6-1.9,0.9-3.2,0.9
					c-1.3,0-2.4-0.3-3.2-0.9c-0.8-0.6-1.2-1.5-1.2-2.6c0-1.3,0.5-2.2,1.6-2.7v-3c-1.3,0.4-2.4,1.1-3.1,2.1c-0.8,1-1.1,2.2-1.1,3.5
					C16.6,43,17.2,44.5,18.5,45.7z"/>
			</g>
			<g>
				<rect x="30.2" y="19.6" class="st3" width="10.3" height="2.7"/>
				<path class="st3" d="M30.2,27.8h7.6c1.1,0,2,0.2,2.6,0.7c0,0,0.1,0.1,0.1,0.1v-3.1c-0.7-0.2-1.6-0.4-2.5-0.4h-7.7V27.8z"/>
				<path class="st3" d="M30.2,36H38c1,0,1.8-0.1,2.5-0.4v-3.1c0,0-0.1,0.1-0.1,0.1c-0.6,0.5-1.5,0.7-2.6,0.7h-7.6V36z"/>
				<path class="st3" d="M33.8,16.8c1.2,0,2.1-0.5,2.9-1.6c0.3-0.5,0.8-1.4,1.3-2.7c0.1-0.3,0.2-0.6,0.3-0.8
					c0.1-0.2,0.2-0.4,0.4-0.7c0.2-0.2,0.4-0.4,0.6-0.5c0.2-0.1,0.5-0.2,0.7-0.2c0.2,0,0.3,0,0.5,0.1V7.6c-0.2,0-0.3,0-0.5,0
					c-0.5,0-0.9,0.1-1.4,0.3c-0.4,0.2-0.7,0.4-1,0.6c-0.3,0.2-0.5,0.5-0.8,0.9c-0.3,0.4-0.4,0.7-0.6,0.9c-0.1,0.2-0.3,0.6-0.4,1
					c-0.2,0.4-0.3,0.7-0.3,0.8c-0.2,0.4-0.3,0.7-0.4,0.9c-0.1,0.2-0.2,0.4-0.4,0.6c-0.1,0.2-0.3,0.4-0.4,0.5
					c-0.1,0.1-0.3,0.1-0.5,0.1c-0.4,0-0.7-0.2-1-0.5c-0.2-0.3-0.3-0.7-0.3-1.2c0-0.5,0.1-0.9,0.3-1.3c0.2-0.4,0.5-0.6,0.9-0.6V8
					c-0.9,0-1.8,0.4-2.5,1.2c-0.7,0.8-1.1,1.9-1.1,3.2c0,1.3,0.3,2.3,1,3.1C31.8,16.4,32.7,16.8,33.8,16.8z"/>
				<polygon class="st3" points="40.5,46.5 38.2,46.5 38.2,41.1 40.5,41.1 40.5,38.5 30.2,38.5 30.2,41.1 35.7,41.1 35.7,46.5 
					30.2,46.5 30.2,49.1 40.5,49.1 				"/>
			</g>
		</g>
		<g>
			<g>
				<path class="st4" d="M55,28.1l2.7-1.5v-8.8L55,16.4l-2.6,1.4c0,0,0,0.1,0,0.1l2.6,1.4V28.1z"/>
				<polygon class="st4" points="49.6,10.5 52.3,9.1 52.3,26.6 49.6,25.1 				"/>
				<polygon class="st4" points="52.3,6.2 49.6,7.6 41.5,3.2 44.2,1.8 				"/>
				<path class="st4" d="M46.9,6.3v14.4l-2.7,1.5V7.6l2.5-1.4C46.8,6.2,46.9,6.2,46.9,6.3z"/>
				<path class="st4" d="M52.3,9.1L55,7.6c0,0,4.4,1.6,2.7,7.3L55,16.4C56.7,10.6,52.3,9.1,52.3,9.1z"/>
			</g>
		</g>
	</g>
	<g class="st2">
		<path class="st5" d="M44,237.8"/>
		<path class="st5" d="M171.6,237.8"/>
	</g>
</g>
</svg>
