<?xml version="1.0" encoding="utf-8"?>
<!-- Generator: Adobe Illustrator 24.0.0, SVG Export Plug-In . SVG Version: 6.00 Build 0)  -->
<svg version="1.1" id="Laag_1" xmlns="http://www.w3.org/2000/svg" xmlns:xlink="http://www.w3.org/1999/xlink" x="0px" y="0px"
	 width="1077.8px" height="486.9px" viewBox="0 0 1077.8 486.9" style="enable-background:new 0 0 1077.8 486.9;"
	 xml:space="preserve">
<style type="text/css">
	.st0{fill:#FFFFFF;}
</style>
<g>
	<polygon class="st0" points="425.5,143.3 425.5,224.8 393,224.8 393,143.3 360.6,143.3 360.6,338.9 393,338.9 393,257.4 
		425.5,257.4 425.5,338.9 457.9,338.9 457.9,143.3 	"/>
	<path class="st0" d="M490.3,290V143.3h32.4V290c0,9,7.3,16.3,16.2,16.3c8.9,0,16.2-7.3,16.2-16.3V143.3h32.4V290
		c0,27-21.8,48.9-48.6,48.9C512.1,338.9,490.3,317.1,490.3,290"/>
	<path class="st0" d="M150,338.9c26.9,0,48.6-21.9,48.6-48.9c0-12.8-4.9-24.4-12.8-33.1l-48.3-54.4c-2.3-2.8-3.7-6.4-3.7-10.3
		c0-9,7.3-16.3,16.2-16.3c9,0,16.2,7.3,16.2,16.3v16.3h32.4v-16.3c0-27-21.8-48.9-48.6-48.9s-48.6,21.9-48.6,48.9
		c0,11.8,4.2,22.7,11.1,31.2l48.5,54.7c3.2,3,5.2,7.2,5.2,11.9c0,9-7.3,16.3-16.2,16.3c-8.9,0-16.2-7.3-16.2-16.3v-16.3h-32.4V290
		C101.3,317.1,123.1,338.9,150,338.9"/>
	<path class="st0" d="M231,192.2c0-27,21.8-48.9,48.6-48.9c26.8,0,48.6,21.9,48.6,48.9v16.3h-32.4v-16.3c0-9-7.3-16.3-16.2-16.3
		c-8.9,0-16.2,7.3-16.2,16.3V290c0,9,7.3,16.3,16.2,16.3c9,0,16.2-7.3,16.2-16.3v-16.3h32.4V290c0,27-21.8,48.9-48.6,48.9
		c-26.9,0-48.6-21.9-48.6-48.9V192.2z"/>
	<polygon class="st0" points="684.8,143.3 684.8,232.9 619.9,143.3 619.9,338.9 652.3,338.9 652.3,249 717.2,338.9 717.2,143.3 	"/>
	<path class="st0" d="M749.6,192.2c0-27,21.8-48.9,48.6-48.9c26.8,0,48.6,21.9,48.6,48.9v16.3h-32.4v-16.3c0-9-7.3-16.3-16.2-16.3
		c-9,0-16.2,7.3-16.2,16.3V290c0,9,7.3,16.3,16.2,16.3c8.9,0,16.2-7.3,16.2-16.3v-16.3h32.4V290c0,27-21.8,48.9-48.6,48.9
		c-26.9,0-48.6-21.9-48.6-48.9V192.2z"/>
	<polygon class="st0" points="944.1,143.3 911.6,208.5 911.6,143.3 879.2,143.3 879.2,338.9 911.6,338.9 911.6,273.7 944.1,338.9 
		976.5,338.9 927.9,241.1 976.5,143.3 	"/>
</g>
</svg>
