<?xml version="1.0" encoding="utf-8"?>
<!-- Generator: Adobe Illustrator 24.0.0, SVG Export Plug-In . SVG Version: 6.00 Build 0)  -->
<svg version="1.1" id="Laag_1" xmlns="http://www.w3.org/2000/svg" xmlns:xlink="http://www.w3.org/1999/xlink" x="0px" y="0px"
	 width="158.5px" height="80.6px" viewBox="0 0 158.5 80.6" style="enable-background:new 0 0 158.5 80.6;" xml:space="preserve">
<style type="text/css">
	.st0{fill:#F6DFE7;}
</style>
<g>
	<path class="st0" d="M157.5,63.3c-0.6-1.3-1.5-2.4-2.6-3.3c-1.1-0.9-2.3-1.7-3.7-2.3c-1.4-0.6-2.8-1-4.3-1.3
		c-0.7-0.1-1.4-0.3-1.9-0.5c-0.5-0.2-1-0.5-1.3-0.8c-0.4-0.3-0.6-0.7-0.8-1.3c-0.2-0.5-0.2-1.2-0.2-2c0-1.1,0.4-2.1,1.2-2.8
		c0.8-0.7,1.7-1.1,2.8-1.1c1.1,0,2,0.4,2.8,1.2c0.7,0.8,1.1,1.7,1.1,2.8v2.1h7.1V52c0-1.5-0.3-2.9-0.9-4.3c-0.6-1.3-1.4-2.5-2.4-3.5
		c-1-1-2.2-1.8-3.5-2.4c-1.3-0.6-2.8-0.9-4.3-0.9c-1.5,0-2.9,0.3-4.3,0.9c-1.3,0.6-2.5,1.4-3.5,2.4c-1,1-1.8,2.2-2.4,3.5
		c-0.6,1.3-0.9,2.8-0.9,4.3c0,1.8,0.3,3.3,0.8,4.6c0.5,1.3,1.3,2.4,2.3,3.3c1,0.9,2.1,1.6,3.4,2.2c1.3,0.6,2.8,1,4.4,1.4
		c0.6,0.1,1.3,0.3,1.8,0.5c0.6,0.2,1.1,0.4,1.5,0.8c0.4,0.3,0.8,0.7,1,1.2c0.2,0.5,0.4,1.1,0.4,1.9c0,1.5-0.4,2.6-1.1,3.4
		c-0.8,0.8-1.9,1.2-3.4,1.2c-1.1,0-2-0.4-2.8-1.1c-0.8-0.7-1.2-1.7-1.2-2.8v-3.4h-7.1v3.3c0,1.5,0.3,2.9,0.9,4.3
		c0.6,1.3,1.4,2.5,2.4,3.5c1,1,2.2,1.8,3.5,2.4c1.3,0.6,2.8,0.9,4.3,0.9c1.7,0,3.3-0.3,4.8-0.9c1.5-0.6,2.7-1.5,3.8-2.6
		c1.1-1.1,1.9-2.4,2.5-3.8c0.6-1.4,0.9-2.9,0.9-4.6C158.5,66.1,158.2,64.6,157.5,63.3 M122,67.4c0,1.1-0.4,2-1.1,2.8
		c-0.8,0.8-1.7,1.1-2.8,1.1h-3.9v-22h3.9c1.1,0,2,0.4,2.8,1.2c0.7,0.8,1.1,1.7,1.1,2.8V67.4z M129.1,53.3c0-1.5-0.3-2.9-0.9-4.3
		c-0.6-1.3-1.4-2.5-2.4-3.5c-1-1-2.2-1.8-3.5-2.4c-1.3-0.6-2.8-0.9-4.3-0.9H107v36.3h11c1.5,0,2.9-0.3,4.3-0.9
		c1.3-0.6,2.5-1.4,3.5-2.4c1-1,1.8-2.2,2.4-3.5c0.6-1.3,0.9-2.8,0.9-4.3V53.3z M93.4,64.9h-3.5l1.7-9L93.4,64.9z M103.3,78.5
		l-8-36.3h-7.3l-8,36.3h7.4l1.2-6.4h6.3l1.3,6.4H103.3z M68.9,64.9h-3.5l1.7-9L68.9,64.9z M78.8,78.5l-8-36.3h-7.3l-8,36.3h7.4
		l1.2-6.4h6.3l1.3,6.4H78.8z M44.2,55.6c-0.2,0.6-0.6,1-1,1.4c-0.4,0.4-0.9,0.7-1.4,0.9c-0.5,0.2-1.1,0.3-1.7,0.3h-4.5v-9h4.5
		c0.6,0,1.2,0.1,1.7,0.4c0.5,0.2,1,0.6,1.4,1c0.4,0.4,0.7,0.9,1,1.4c0.2,0.6,0.4,1.1,0.4,1.7C44.6,54.5,44.5,55.1,44.2,55.6
		 M52.4,78.5l-6.3-14.7c1.8-1,3.1-2.4,4.1-4.2c1-1.8,1.5-3.7,1.5-5.7c0-1.6-0.3-3.1-0.9-4.5c-0.6-1.4-1.4-2.7-2.5-3.7
		c-1.1-1-2.3-1.9-3.7-2.5c-1.4-0.6-2.9-0.9-4.5-0.9H28.5v36.3h7.1v-13H39l5.6,13H52.4z M14.9,67.4c0,1.1-0.4,2-1.1,2.8
		C13,71,12.1,71.4,11,71.4H7.1v-22h3.9c1.1,0,2,0.4,2.8,1.2c0.7,0.8,1.1,1.7,1.1,2.8V67.4z M22.1,53.3c0-1.5-0.3-2.9-0.9-4.3
		c-0.6-1.3-1.4-2.5-2.4-3.5c-1-1-2.1-1.8-3.5-2.4c-1.3-0.6-2.8-0.9-4.3-0.9H0v36.3h11c1.5,0,2.9-0.3,4.3-0.9
		c1.3-0.6,2.5-1.4,3.5-2.4c1-1,1.8-2.2,2.4-3.5c0.6-1.3,0.9-2.8,0.9-4.3V53.3z"/>
	<path class="st0" d="M139.4,37.7V1.4h-7.1v18.6h-0.2l-7.3-18.6h-9.3v36.3h7.1V15h0.2l8.9,22.6H139.4z M109.1,37.7v-7.1H98.7v-7.4
		h10.4V16H98.7V8.5h10.4V1.4H91.1v36.3H109.1z M85.8,17.4H74.7v7.1h4v3.3c0,1.1-0.4,2-1.2,2.7c-0.8,0.8-1.7,1.1-2.8,1.1
		c-1.1,0-2-0.4-2.8-1.1c-0.8-0.8-1.1-1.7-1.1-2.8V11.2c0-1.1,0.4-2,1.2-2.8c0.8-0.8,1.7-1.1,2.8-1.1c1.1,0,2,0.4,2.8,1.2
		c0.7,0.8,1.1,1.7,1.1,2.8v1.5h7.1v-1.5c0-1.5-0.3-2.9-0.9-4.3c-0.6-1.3-1.4-2.5-2.4-3.5c-1-1-2.2-1.8-3.5-2.4
		c-1.3-0.6-2.8-0.9-4.3-0.9c-1.5,0-3,0.3-4.3,0.9C69.1,1.6,68,2.4,67,3.4c-1,1-1.8,2.2-2.4,3.5c-0.6,1.3-0.9,2.8-0.9,4.3v16.6
		c0,1.5,0.3,2.9,0.9,4.3c0.6,1.3,1.4,2.5,2.4,3.5c1,1,2.2,1.8,3.5,2.4c1.3,0.6,2.8,0.9,4.3,0.9c1.5,0,2.9-0.3,4.3-0.9
		c1.3-0.6,2.5-1.4,3.5-2.4c1-1,1.8-2.2,2.4-3.5c0.6-1.3,0.9-2.8,0.9-4.3V17.4z M57.3,37.7v-7.1H46.9v-7.4h10.4V16H46.9V8.5h10.4V1.4
		H39.4v36.3H57.3z M36.1,8.5V1.4H15v7.1h7v29.2h7.1V8.5H36.1z"/>
</g>
</svg>
