<?xml version="1.0" encoding="utf-8"?>
<!-- Generator: Adobe Illustrator 24.3.0, SVG Export Plug-In . SVG Version: 6.00 Build 0)  -->
<svg version="1.1" id="Laag_1" xmlns="http://www.w3.org/2000/svg" xmlns:xlink="http://www.w3.org/1999/xlink" x="0px" y="0px"
	 width="83.3px" height="21.5px" viewBox="0 0 83.3 21.5" style="enable-background:new 0 0 83.3 21.5;" xml:space="preserve">
<style type="text/css">
	.st0{fill:#EBEEE2;}
	.st1{fill:none;stroke:#EBEEE2;stroke-width:0.5;stroke-miterlimit:10;}
</style>
<g>
	<path class="st0" d="M22.8,3.4c0.9,0.3,1.4,0.9,1.4,1.8c0,0.6-0.2,1.1-0.6,1.4c-0.4,0.3-1,0.5-1.6,0.5h-2.5v-7h2.2
		c0.7,0,1.2,0.2,1.6,0.5s0.6,0.7,0.6,1.3C23.8,2.6,23.4,3.1,22.8,3.4L22.8,3.4z M20.3,0.9v2.2h1.3c0.4,0,0.8-0.1,1-0.3
		c0.2-0.2,0.3-0.5,0.3-0.8c0-0.3-0.1-0.6-0.4-0.8C22.3,1,22,0.9,21.6,0.9H20.3z M21.7,6.3c0.4,0,0.8-0.1,1.1-0.3
		c0.3-0.2,0.4-0.5,0.4-0.9c0-0.4-0.1-0.7-0.4-0.9c-0.3-0.2-0.6-0.3-1-0.3h-1.5v2.5H21.7z"/>
	<path class="st0" d="M27.4,2c0.7,0,1.3,0.2,1.7,0.7s0.6,1.2,0.6,2.1h-3.8c0,0.5,0.2,0.9,0.5,1.2c0.3,0.3,0.6,0.4,1.1,0.4
		c0.3,0,0.6-0.1,0.8-0.2c0.2-0.1,0.4-0.3,0.5-0.6h0.8c-0.1,0.5-0.4,0.9-0.8,1.2c-0.4,0.3-0.9,0.4-1.4,0.4c-0.8,0-1.4-0.2-1.8-0.7
		s-0.7-1.1-0.7-1.9c0-0.7,0.2-1.4,0.7-1.8S26.8,2,27.4,2z M25.9,4.1h2.9c0-0.4-0.1-0.7-0.4-1c-0.3-0.3-0.6-0.4-1-0.4
		c-0.4,0-0.7,0.1-1,0.4S26,3.7,25.9,4.1z"/>
	<path class="st0" d="M35,2.1l-2,2.1l2,2.9h-1l-1.6-2.3l-0.7,0.7v1.6h-0.9V0h0.9v4.3h0.1l2.1-2.2H35z"/>
	<path class="st0" d="M36.8,1.1c-0.1,0.1-0.3,0.2-0.4,0.2c-0.2,0-0.3-0.1-0.4-0.2c-0.1-0.1-0.2-0.3-0.2-0.4s0.1-0.3,0.2-0.4
		c0.1-0.1,0.3-0.2,0.4-0.2c0.2,0,0.3,0.1,0.4,0.2C37,0.4,37,0.6,37,0.7S37,1,36.8,1.1z M36.9,2.1v5H36v-5H36.9z"/>
	<path class="st0" d="M37.2,8.2c0.2,0.2,0.4,0.2,0.6,0.2c0.2,0,0.3-0.1,0.4-0.2c0.1-0.1,0.1-0.3,0.1-0.5V2.1h0.9v5.7
		c0,0.4-0.1,0.8-0.4,1c-0.2,0.2-0.6,0.4-0.9,0.4c-0.4,0-0.8-0.1-1-0.4L37.2,8.2z M39.2,1.1c-0.1,0.1-0.3,0.2-0.4,0.2
		c-0.2,0-0.3-0.1-0.4-0.2c-0.1-0.1-0.2-0.3-0.2-0.4s0.1-0.3,0.2-0.4c0.1-0.1,0.3-0.2,0.4-0.2c0.2,0,0.3,0.1,0.4,0.2
		c0.1,0.1,0.2,0.3,0.2,0.4S39.3,1,39.2,1.1z"/>
	<path class="st0" d="M44.8,2.1l-2,2.1l2,2.9h-1l-1.6-2.3l-0.7,0.7v1.6h-0.9V0h0.9v4.3h0.1l2.1-2.2H44.8z"/>
	<path class="st0" d="M50.7,7.2c-0.7,0-1.3-0.2-1.8-0.7c-0.5-0.5-0.7-1.1-0.7-1.9c0-0.7,0.2-1.4,0.7-1.9C49.4,2.2,50,2,50.7,2
		s1.3,0.2,1.8,0.7c0.5,0.5,0.7,1.1,0.7,1.9c0,0.8-0.2,1.4-0.7,1.9C52.1,7,51.5,7.2,50.7,7.2z M50.7,6.4c0.5,0,0.9-0.2,1.2-0.5
		c0.3-0.4,0.5-0.8,0.5-1.3c0-0.5-0.2-0.9-0.5-1.3c-0.3-0.4-0.7-0.5-1.2-0.5c-0.5,0-0.9,0.2-1.2,0.5c-0.3,0.4-0.5,0.8-0.5,1.3
		c0,0.5,0.2,0.9,0.5,1.3C49.9,6.2,50.3,6.4,50.7,6.4z"/>
	<path class="st0" d="M56.7,2c0.5,0,1,0.2,1.3,0.5c0.3,0.4,0.5,0.9,0.5,1.6v3h-0.9V4.3c0-0.5-0.1-0.8-0.3-1.1s-0.5-0.4-0.9-0.4
		c-0.3,0-0.6,0.1-0.9,0.4c-0.2,0.2-0.4,0.6-0.4,1.1v2.9h-0.9v-5H55l0.1,0.6h0.1C55.5,2.2,56,2,56.7,2z"/>
	<path class="st0" d="M63.4,5.8c0,0.4-0.2,0.8-0.5,1c-0.3,0.2-0.8,0.4-1.3,0.4c-0.6,0-1.1-0.2-1.4-0.5S59.6,6,59.6,5.5h0.9
		c0,0.3,0.1,0.6,0.3,0.8c0.2,0.2,0.5,0.3,0.8,0.3c0.3,0,0.5-0.1,0.7-0.2c0.2-0.1,0.3-0.3,0.3-0.5c0-0.2-0.1-0.4-0.3-0.6
		C62,5.1,61.7,5,61.3,4.9c-0.2-0.1-0.4-0.1-0.6-0.2c-0.2-0.1-0.3-0.2-0.5-0.3C60.1,4.3,60,4.1,59.9,4c-0.1-0.2-0.1-0.4-0.1-0.6
		c0-0.4,0.2-0.8,0.5-1C60.6,2.1,61,2,61.5,2c0.5,0,0.9,0.1,1.3,0.4s0.5,0.6,0.5,1.1h-0.8c0-0.2-0.1-0.4-0.3-0.6s-0.4-0.2-0.7-0.2
		c-0.2,0-0.4,0.1-0.6,0.2c-0.2,0.1-0.2,0.3-0.2,0.5c0,0.2,0.1,0.4,0.3,0.5c0.2,0.1,0.4,0.2,0.8,0.4c0.5,0.2,1,0.4,1.2,0.6
		C63.2,5.1,63.4,5.4,63.4,5.8z"/>
	<path class="st0" d="M3.1,19c-0.2,0.2-0.5,0.2-0.8,0.2c-0.8,0-1.2-0.4-1.2-1.3v-3h-1v-0.7h0.3c0.5,0,0.8-0.2,0.8-0.7v-0.6h0.8v1.3
		h1.2v0.7H1.9v2.9c0,0.4,0.2,0.6,0.5,0.6c0.2,0,0.3,0,0.4-0.1L3.1,19z"/>
	<path class="st0" d="M6.6,14c0.6,0,1.1,0.2,1.4,0.6c0.3,0.4,0.5,0.9,0.5,1.5v3H7.6v-2.7c0-0.5-0.1-0.9-0.3-1.2
		c-0.2-0.3-0.5-0.4-1-0.4c-0.3,0-0.6,0.1-0.9,0.4c-0.2,0.3-0.4,0.6-0.4,1v2.8H4.1V12H5v2.7h0.1c0.1-0.2,0.3-0.3,0.6-0.5
		S6.2,14,6.6,14z"/>
	<path class="st0" d="M11.8,14c0.7,0,1.3,0.2,1.7,0.7s0.6,1.2,0.6,2.1h-3.8c0,0.5,0.2,0.9,0.5,1.2c0.3,0.3,0.6,0.4,1.1,0.4
		c0.3,0,0.6-0.1,0.8-0.2c0.2-0.1,0.4-0.3,0.5-0.6h0.8c-0.1,0.5-0.4,0.9-0.8,1.2c-0.4,0.3-0.9,0.4-1.4,0.4c-0.8,0-1.4-0.2-1.8-0.7
		s-0.7-1.1-0.7-1.9c0-0.7,0.2-1.4,0.7-1.8S11.2,14,11.8,14z M10.4,16.1h2.9c0-0.4-0.1-0.7-0.4-1c-0.3-0.3-0.6-0.4-1-0.4
		c-0.4,0-0.7,0.1-1,0.4S10.4,15.7,10.4,16.1z"/>
	<path class="st0" d="M19.1,17.9c0,0.2,0,0.3,0.1,0.4s0.2,0.1,0.4,0.1v0.7h-0.2c-0.5,0-0.8-0.2-1-0.7c-0.2,0.2-0.4,0.4-0.7,0.6
		c-0.3,0.1-0.6,0.2-1,0.2c-0.5,0-0.9-0.1-1.2-0.4c-0.3-0.2-0.5-0.6-0.5-1c0-0.5,0.2-0.9,0.6-1.2c0.4-0.3,1-0.4,1.7-0.5l0.9-0.1v-0.1
		c0-0.4-0.1-0.7-0.3-0.9s-0.4-0.3-0.8-0.3c-0.3,0-0.6,0.1-0.8,0.3c-0.2,0.2-0.3,0.4-0.3,0.7h-0.8c0-0.5,0.2-0.9,0.6-1.2
		c0.3-0.3,0.8-0.5,1.3-0.5c0.6,0,1,0.2,1.4,0.5c0.4,0.4,0.5,0.8,0.5,1.5V17.9z M16.8,18.5c0.4,0,0.7-0.1,1-0.4
		c0.3-0.2,0.4-0.6,0.4-1v-0.4l-0.8,0.1c-0.5,0-0.8,0.1-1.1,0.3s-0.4,0.4-0.4,0.7c0,0.2,0.1,0.4,0.3,0.5
		C16.3,18.4,16.5,18.5,16.8,18.5z"/>
	<path class="st0" d="M22.8,19c-0.2,0.2-0.5,0.2-0.8,0.2c-0.8,0-1.2-0.4-1.2-1.3v-3h-1v-0.7h0.3c0.5,0,0.8-0.2,0.8-0.7v-0.6h0.8v1.3
		h1.2v0.7h-1.2v2.9c0,0.4,0.2,0.6,0.5,0.6c0.2,0,0.3,0,0.4-0.1L22.8,19z"/>
	<path class="st0" d="M25.7,14c0.7,0,1.3,0.2,1.7,0.7s0.6,1.2,0.6,2.1h-3.8c0,0.5,0.2,0.9,0.5,1.2c0.3,0.3,0.6,0.4,1.1,0.4
		c0.3,0,0.6-0.1,0.8-0.2c0.2-0.1,0.4-0.3,0.5-0.6H28c-0.1,0.5-0.4,0.9-0.8,1.2c-0.4,0.3-0.9,0.4-1.4,0.4c-0.8,0-1.4-0.2-1.8-0.7
		s-0.7-1.1-0.7-1.9c0-0.7,0.2-1.4,0.7-1.8S25,14,25.7,14z M24.2,16.1h2.9c0-0.4-0.1-0.7-0.4-1c-0.3-0.3-0.6-0.4-1-0.4
		c-0.4,0-0.7,0.1-1,0.4S24.3,15.7,24.2,16.1z"/>
	<path class="st0" d="M31.5,14h0.3v0.9c-0.1,0-0.2,0-0.4,0c-0.4,0-0.7,0.1-1,0.4C30.1,15.6,30,16,30,16.5v2.6h-0.9v-5h0.7l0.1,0.7
		H30C30.4,14.3,30.9,14,31.5,14z"/>
	<path class="st0" d="M35.1,14c0.7,0,1.2,0.2,1.6,0.7s0.7,1.1,0.7,1.9s-0.2,1.4-0.7,1.9s-1,0.7-1.7,0.7c-0.8,0-1.3-0.3-1.6-0.8v2.7
		h-0.9v-7h0.7l0.2,0.7h0.1C33.9,14.3,34.4,14,35.1,14z M35,18.4c0.5,0,0.8-0.2,1.1-0.5c0.3-0.3,0.4-0.8,0.4-1.3s-0.1-1-0.4-1.3
		c-0.3-0.3-0.7-0.5-1.1-0.5s-0.8,0.2-1.1,0.5s-0.4,0.8-0.4,1.3c0,0.5,0.1,1,0.4,1.3S34.5,18.4,35,18.4z"/>
	<path class="st0" d="M40.8,14h0.3v0.9c-0.1,0-0.2,0-0.4,0c-0.4,0-0.7,0.1-1,0.4c-0.3,0.3-0.4,0.7-0.4,1.2v2.6h-0.9v-5h0.7l0.1,0.7
		h0.1C39.7,14.3,40.2,14,40.8,14z"/>
	<path class="st0" d="M44.1,19.2c-0.7,0-1.3-0.2-1.8-0.7c-0.5-0.5-0.7-1.1-0.7-1.9c0-0.7,0.2-1.4,0.7-1.9c0.5-0.5,1.1-0.7,1.8-0.7
		s1.3,0.2,1.8,0.7c0.5,0.5,0.7,1.1,0.7,1.9c0,0.8-0.2,1.4-0.7,1.9C45.5,19,44.9,19.2,44.1,19.2z M44.1,18.4c0.5,0,0.9-0.2,1.2-0.5
		c0.3-0.4,0.5-0.8,0.5-1.3c0-0.5-0.2-0.9-0.5-1.3c-0.3-0.4-0.7-0.5-1.2-0.5c-0.5,0-0.9,0.2-1.2,0.5c-0.3,0.4-0.5,0.8-0.5,1.3
		c0,0.5,0.2,0.9,0.5,1.3C43.2,18.2,43.6,18.4,44.1,18.4z"/>
	<path class="st0" d="M52.1,14.3c-0.2,0.2-0.4,0.4-0.8,0.5c0.2,0.3,0.3,0.6,0.3,0.9c0,0.5-0.2,0.9-0.5,1.2c-0.4,0.3-0.8,0.5-1.4,0.5
		c-0.3,0-0.6-0.1-0.8-0.2c-0.3,0.1-0.4,0.3-0.4,0.4c0,0.3,0.3,0.5,0.8,0.5h0.8c0.6,0,1,0.1,1.3,0.4c0.3,0.3,0.5,0.6,0.5,1.1
		c0,0.5-0.2,0.9-0.6,1.2c-0.4,0.3-0.9,0.4-1.6,0.4c-0.7,0-1.3-0.2-1.7-0.5c-0.4-0.4-0.6-0.8-0.6-1.3l0.8-0.6
		c-0.4-0.2-0.6-0.5-0.6-0.9c0-0.4,0.2-0.7,0.7-0.9c-0.4-0.3-0.6-0.7-0.6-1.2c0-0.5,0.2-0.9,0.5-1.2c0.3-0.3,0.8-0.5,1.3-0.5
		c0.5,0,0.9,0.1,1.3,0.4c0.3-0.2,0.5-0.4,0.7-0.7L52.1,14.3z M51,19.6c0-0.3-0.1-0.5-0.3-0.6c-0.2-0.1-0.4-0.2-0.8-0.2h-0.8
		l-0.8,0.6c0,0.3,0.2,0.5,0.4,0.7c0.2,0.2,0.6,0.3,1,0.3c0.4,0,0.7-0.1,0.9-0.2C50.9,20.1,51,19.9,51,19.6z M49.7,16.8
		c0.3,0,0.6-0.1,0.8-0.3c0.2-0.2,0.3-0.5,0.3-0.8c0-0.3-0.1-0.5-0.3-0.8c-0.2-0.2-0.4-0.3-0.7-0.3c-0.3,0-0.6,0.1-0.8,0.3
		c-0.2,0.2-0.3,0.5-0.3,0.8c0,0.3,0.1,0.5,0.3,0.7C49.1,16.7,49.3,16.8,49.7,16.8z"/>
	<path class="st0" d="M55.3,14h0.3v0.9c-0.1,0-0.2,0-0.4,0c-0.4,0-0.7,0.1-1,0.4c-0.3,0.3-0.4,0.7-0.4,1.2v2.6H53v-5h0.7l0.1,0.7
		h0.1C54.2,14.3,54.7,14,55.3,14z"/>
	<path class="st0" d="M60.1,17.9c0,0.2,0,0.3,0.1,0.4s0.2,0.1,0.4,0.1v0.7h-0.2c-0.5,0-0.8-0.2-1-0.7c-0.2,0.2-0.4,0.4-0.7,0.6
		c-0.3,0.1-0.6,0.2-1,0.2c-0.5,0-0.9-0.1-1.2-0.4c-0.3-0.2-0.5-0.6-0.5-1c0-0.5,0.2-0.9,0.6-1.2c0.4-0.3,1-0.4,1.7-0.5l0.9-0.1v-0.1
		c0-0.4-0.1-0.7-0.3-0.9s-0.4-0.3-0.8-0.3c-0.3,0-0.6,0.1-0.8,0.3c-0.2,0.2-0.3,0.4-0.3,0.7h-0.8c0-0.5,0.2-0.9,0.6-1.2
		c0.3-0.3,0.8-0.5,1.3-0.5c0.6,0,1,0.2,1.4,0.5c0.4,0.4,0.5,0.8,0.5,1.5V17.9z M57.8,18.5c0.4,0,0.7-0.1,1-0.4
		c0.3-0.2,0.4-0.6,0.4-1v-0.4l-0.8,0.1c-0.5,0-0.8,0.1-1.1,0.3s-0.4,0.4-0.4,0.7c0,0.2,0.1,0.4,0.3,0.5
		C57.4,18.4,57.6,18.5,57.8,18.5z"/>
	<path class="st0" d="M66.9,14c0.5,0,0.9,0.2,1.3,0.5c0.3,0.3,0.5,0.9,0.5,1.5v3h-0.9v-3c0-0.4-0.1-0.7-0.3-1s-0.4-0.3-0.8-0.3
		c-0.3,0-0.6,0.1-0.8,0.4c-0.2,0.2-0.3,0.6-0.3,1v3h-0.9v-2.9c0-0.4-0.1-0.8-0.3-1c-0.2-0.2-0.4-0.4-0.7-0.4c-0.3,0-0.6,0.1-0.8,0.3
		c-0.2,0.2-0.3,0.5-0.3,1v3h-0.9v-5h0.7l0.1,0.6h0.1c0.1-0.2,0.3-0.4,0.5-0.5c0.2-0.1,0.5-0.2,0.8-0.2c0.4,0,0.7,0.1,0.9,0.3
		c0.2,0.2,0.4,0.4,0.5,0.7h0.1c0.1-0.3,0.3-0.5,0.6-0.7C66.2,14.1,66.5,14,66.9,14z"/>
	<path class="st0" d="M75.1,14c0.5,0,0.9,0.2,1.3,0.5c0.3,0.3,0.5,0.9,0.5,1.5v3h-0.9v-3c0-0.4-0.1-0.7-0.3-1s-0.4-0.3-0.8-0.3
		c-0.3,0-0.6,0.1-0.8,0.4c-0.2,0.2-0.3,0.6-0.3,1v3h-0.9v-2.9c0-0.4-0.1-0.8-0.3-1c-0.2-0.2-0.4-0.4-0.7-0.4c-0.3,0-0.6,0.1-0.8,0.3
		c-0.2,0.2-0.3,0.5-0.3,1v3h-0.9v-5h0.7l0.1,0.6h0.1c0.1-0.2,0.3-0.4,0.5-0.5c0.2-0.1,0.5-0.2,0.8-0.2c0.4,0,0.7,0.1,0.9,0.3
		c0.2,0.2,0.4,0.4,0.5,0.7h0.1c0.1-0.3,0.3-0.5,0.6-0.7C74.4,14.1,74.8,14,75.1,14z"/>
	<path class="st0" d="M82.6,18.2l0.3,0.6c-0.1,0.1-0.1,0.2-0.3,0.3s-0.3,0.1-0.5,0.1c-0.3,0-0.5-0.1-0.6-0.2
		c-0.2-0.1-0.3-0.3-0.3-0.6c-0.4,0.5-1,0.8-1.7,0.8c-0.5,0-0.9-0.1-1.2-0.4c-0.3-0.2-0.5-0.6-0.5-1c0-0.5,0.2-0.9,0.6-1.2
		c0.4-0.3,1-0.4,1.7-0.5l0.9-0.1v-0.1c0-0.4-0.1-0.7-0.3-0.9s-0.4-0.3-0.8-0.3c-0.3,0-0.6,0.1-0.8,0.3c-0.2,0.2-0.3,0.4-0.3,0.7
		h-0.8c0-0.5,0.2-0.9,0.6-1.2c0.3-0.3,0.8-0.5,1.3-0.5c0.6,0,1,0.2,1.4,0.5c0.4,0.4,0.5,0.8,0.5,1.5v1.9c0,0.4,0.1,0.5,0.3,0.5
		C82.4,18.5,82.5,18.4,82.6,18.2z M79.7,18.5c0.4,0,0.7-0.1,1-0.4c0.3-0.2,0.4-0.6,0.4-1v-0.4l-0.8,0.1c-0.5,0-0.8,0.1-1.1,0.3
		s-0.4,0.4-0.4,0.7c0,0.2,0.1,0.4,0.3,0.5C79.2,18.4,79.4,18.5,79.7,18.5z"/>
</g>
<line class="st1" x1="19.2" y1="8.7" x2="36.1" y2="8.7"/>
<line class="st1" x1="0.1" y1="21.1" x2="31.9" y2="21.1"/>
<line class="st1" x1="34.6" y1="21.1" x2="47.8" y2="21.1"/>
<line class="st1" x1="40.1" y1="8.7" x2="63.4" y2="8.7"/>
<line class="st1" x1="52.6" y1="21.1" x2="83.3" y2="21.1"/>
</svg>
