<?xml version="1.0" encoding="utf-8"?>
<!-- Generator: Adobe Illustrator 24.3.0, SVG Export Plug-In . SVG Version: 6.00 Build 0)  -->
<svg version="1.1" id="Laag_1" xmlns="http://www.w3.org/2000/svg" xmlns:xlink="http://www.w3.org/1999/xlink" x="0px" y="0px"
	 width="154.4px" height="244.9px" viewBox="0 0 154.4 244.9" style="enable-background:new 0 0 154.4 244.9;" xml:space="preserve"
	>
<style type="text/css">
	.st0{fill:#F3B8A0;}
</style>
<g>
	<g>
		<g>
			<path class="st0" d="M125.7,245.3c-0.1,0-0.1,0-0.2-0.1s-0.2-0.2-0.2-0.3v-81.5l-24.9-13.5c-0.1-0.1-0.2-0.2-0.2-0.3
				s0.1-0.3,0.2-0.3l25.1-13.6c0.1-0.1,0.2-0.1,0.4,0l25.1,13.6c0.1,0.1,0.2,0.2,0.2,0.3v81.7c0,0.1-0.1,0.3-0.2,0.3l-25.1,13.6
				C125.8,245.2,125.7,245.3,125.7,245.3z M101.3,149.6l24.5,13.3c0.1,0.1,0.2,0.2,0.2,0.3v81.1l24.4-13.2v-81.2l-24.8-13.4
				L101.3,149.6z"/>
		</g>
		<g>
			<path class="st0" d="M100.5,231.5c-0.1,0-0.1,0-0.2,0l-25.1-13.6c-0.1-0.1-0.2-0.2-0.2-0.3v-136c0-0.1,0.1-0.3,0.2-0.3l25.1-13.6
				c0.1-0.1,0.3-0.1,0.4,0s0.2,0.2,0.2,0.3v163.2c0,0.1-0.1,0.3-0.2,0.3C100.7,231.5,100.6,231.5,100.5,231.5z M75.8,217.3
				l24.4,13.1V68.6L75.8,81.8V217.3z"/>
		</g>
		<g>
			<path class="st0" d="M75.4,54.8c-0.1,0-0.1,0-0.2,0L-0.2,13.9c-0.1-0.1-0.2-0.2-0.2-0.3s0.1-0.3,0.2-0.3L25-0.3
				c0.1-0.1,0.2-0.1,0.4,0l75.4,40.8c0.1,0.1,0.2,0.2,0.2,0.3s-0.1,0.3-0.2,0.3L75.6,54.7C75.5,54.8,75.5,54.8,75.4,54.8z M0.8,13.6
				L75.4,54l24.3-13.2L25.1,0.4L0.8,13.6z"/>
		</g>
		<g>
			<path class="st0" d="M25.1,190.8c-0.1,0-0.1,0-0.2-0.1s-0.2-0.2-0.2-0.3V54.3c0-0.1,0.1-0.3,0.2-0.3L50,40.4
				c0.1-0.1,0.3-0.1,0.4,0c0.1,0.1,0.2,0.2,0.2,0.3v136c0,0.1-0.1,0.3-0.2,0.3l-25.1,13.7C25.3,190.8,25.2,190.8,25.1,190.8z
				 M25.5,54.5v135.3l24.4-13.3V41.3L25.5,54.5z"/>
		</g>
		<g>
			<g>
				<path class="st0" d="M125.7,136.3c-0.1,0-0.2,0-0.2-0.1c-0.1-0.1-0.2-0.3-0.1-0.4c4.4-15.2,6.8-36.8-6.6-53.7
					c-8.1-10.1-18.2-13.8-18.3-13.8c-0.1-0.1-0.2-0.2-0.2-0.3c0-0.1,0.1-0.3,0.2-0.4l25-13.6c0.1-0.1,0.2-0.1,0.3,0
					c0.1,0,10.4,3.8,18.6,14.1c13.7,17.2,11.3,39.1,6.8,54.5c0,0.1-0.1,0.2-0.2,0.2l-25.1,13.5C125.8,136.3,125.7,136.3,125.7,136.3
					z M101.4,67.9c2.5,1.1,10.9,5.1,17.8,13.7c13.4,16.8,11.3,38.3,7.1,53.6l24.2-13c4.4-15.2,6.7-36.7-6.7-53.6
					c-7.5-9.4-16.8-13.3-18.1-13.8L101.4,67.9z"/>
			</g>
		</g>
	</g>
</g>
</svg>
