<?xml version="1.0" encoding="utf-8"?>
<!-- Generator: Adobe Illustrator 24.3.0, SVG Export Plug-In . SVG Version: 6.00 Build 0)  -->
<svg version="1.1" id="Laag_1" xmlns="http://www.w3.org/2000/svg" xmlns:xlink="http://www.w3.org/1999/xlink" x="0px" y="0px"
	 width="47.3px" height="67.1px" viewBox="0 0 47.3 67.1" style="enable-background:new 0 0 47.3 67.1;" xml:space="preserve">
<style type="text/css">
	.st0{fill:#EBEEE2;}
</style>
<g>
	<g>
		<g>
			<polygon class="st0" points="30,67.1 36,63.9 36,44.4 30,41.1 24,44.4 30,47.6 			"/>
		</g>
		<g>
			<polygon class="st0" points="18,28.1 24,24.9 24,63.9 18,60.6 			"/>
		</g>
		<g>
			<polygon class="st0" points="24,18.4 18,21.6 0,11.9 6,8.6 			"/>
		</g>
		<g>
			<polygon class="st0" points="12,18.4 12,50.9 6,54.1 6,21.6 			"/>
		</g>
		<g>
			<g>
				<path class="st0" d="M24,24.9l6-3.2c0,0,9.7,3.5,6,16.3l-6,3.2C33.7,28.3,24,24.9,24,24.9z"/>
			</g>
		</g>
	</g>
	<g>
		<path class="st0" d="M4.1,0v0.9H2.6v4.4h-1V0.9H0.2V0H4.1z"/>
		<path class="st0" d="M8.5,0h1v5.3h-1V3.1H6.4v2.2h-1V0h1v2.1h2.1V0z"/>
		<path class="st0" d="M12.3,4.4h2.6v1h-3.6V0h3.5v1h-2.5v1.2h2.3v1h-2.3C12.3,3.2,12.3,4.4,12.3,4.4z"/>
		<path class="st0" d="M19.3,0l1.8,5.3H20l-0.4-1.2h-2l-0.4,1.2h-1.1L18,0H19.3z M18,3.2h1.4l-0.6-1.8h-0.2L18,3.2z"/>
		<path class="st0" d="M25.4,0v0.9H24v4.4h-1V0.9h-1.4V0H25.4z"/>
		<path class="st0" d="M27.7,4.4h2.6v1h-3.6V0h3.5v1h-2.5v1.2H30v1h-2.3V4.4z"/>
		<path class="st0" d="M35.9,5.3h-1.1l-1.1-2H33v2h-1V0h1.9c0.5,0,0.9,0.1,1.2,0.4s0.5,0.7,0.5,1.2c0,0.3-0.1,0.7-0.3,0.9
			c-0.2,0.3-0.4,0.5-0.7,0.6L35.9,5.3z M33,1v1.5h0.8c0.2,0,0.4-0.1,0.5-0.2c0.1-0.1,0.2-0.3,0.2-0.6c0-0.2-0.1-0.4-0.2-0.5
			C34.2,1,34,1,33.8,1H33z"/>
	</g>
	<g>
		<path class="st0" d="M42,12.5v-1.1l2-1.1V9.6h-2v-1h5.3v1.9c0,0.5-0.1,0.9-0.4,1.2c-0.3,0.3-0.7,0.5-1.2,0.5
			c-0.3,0-0.7-0.1-0.9-0.3c-0.3-0.2-0.5-0.4-0.6-0.7L42,12.5z M46.3,9.6h-1.5v0.8c0,0.2,0.1,0.4,0.2,0.5s0.3,0.2,0.6,0.2
			c0.2,0,0.4-0.1,0.5-0.2c0.1-0.1,0.2-0.3,0.2-0.5V9.6z"/>
		<path class="st0" d="M42.7,18.1c-0.5-0.5-0.8-1.1-0.8-1.8s0.3-1.3,0.8-1.8s1.2-0.8,1.9-0.8c0.8,0,1.4,0.3,1.9,0.8s0.8,1.1,0.8,1.8
			c0,0.7-0.3,1.3-0.8,1.8s-1.2,0.8-1.9,0.8C43.8,18.9,43.2,18.6,42.7,18.1z M43.4,15.2c-0.3,0.3-0.5,0.7-0.5,1.1
			c0,0.5,0.2,0.8,0.5,1.1c0.3,0.3,0.7,0.4,1.2,0.4s0.9-0.1,1.2-0.4s0.5-0.7,0.5-1.1c0-0.5-0.2-0.8-0.5-1.1s-0.7-0.4-1.2-0.4
			C44.1,14.7,43.7,14.9,43.4,15.2z"/>
		<path class="st0" d="M47.3,23.7h-0.9v-1.4H42v-1h4.4v-1.4h0.9C47.3,19.9,47.3,23.7,47.3,23.7z"/>
		<path class="st0" d="M47.3,28.7h-0.9v-1.4H42v-1h4.4v-1.4h0.9C47.3,24.9,47.3,28.7,47.3,28.7z"/>
		<path class="st0" d="M42.9,31v2.6h-1V30h5.3v3.5h-1V31H45v2.3h-1V31H42.9z"/>
		<path class="st0" d="M42,39.2V38l2-1.1v-0.6h-2v-1h5.3v1.9c0,0.5-0.1,0.9-0.4,1.2c-0.3,0.3-0.7,0.5-1.2,0.5
			c-0.3,0-0.7-0.1-0.9-0.3c-0.3-0.2-0.5-0.4-0.6-0.7L42,39.2z M46.3,36.3h-1.5v0.8c0,0.2,0.1,0.4,0.2,0.5c0.1,0.1,0.3,0.2,0.6,0.2
			c0.2,0,0.4-0.1,0.5-0.2c0.1-0.1,0.2-0.3,0.2-0.5V36.3z"/>
		<path class="st0" d="M47.3,42.3c0,0.7-0.2,1.4-0.7,1.9S45.5,45,44.7,45c-0.8,0-1.5-0.3-1.9-0.8c-0.5-0.5-0.7-1.1-0.7-1.9v-1.7h5.3
			L47.3,42.3L47.3,42.3z M43,42.3c0,0.5,0.2,0.9,0.5,1.2s0.7,0.5,1.2,0.5s0.9-0.2,1.2-0.5s0.4-0.7,0.4-1.2v-0.7H43V42.3z"/>
		<path class="st0" d="M47.3,49L42,50.8v-1.1l1.2-0.4v-2L42,47v-1.1l5.3,1.8V49z M44.1,47.6V49l1.8-0.6v-0.2L44.1,47.6z"/>
		<path class="st0" d="M47.3,57.4H42v-1h3.2v-0.1l-2.9-1v-1.2l2.9-1V53H42v-1h5.3v1.3l-3.8,1.3v0.1l3.8,1.3V57.4z"/>
	</g>
</g>
</svg>
