<?xml version="1.0" encoding="utf-8"?>
<!-- Generator: Adobe Illustrator 24.3.0, SVG Export Plug-In . SVG Version: 6.00 Build 0)  -->
<svg version="1.1" id="Laag_1" xmlns="http://www.w3.org/2000/svg" xmlns:xlink="http://www.w3.org/1999/xlink" x="0px" y="0px"
	 width="162.6px" height="114px" viewBox="0 0 162.6 114" style="enable-background:new 0 0 162.6 114;" xml:space="preserve">
<style type="text/css">
	.st0{fill:#EBEEE2;}
</style>
<g>
	<path class="st0" d="M48.3,35.5L37.2,20.8h-2v14.7h-6.8v-35h6.8v13.7h2l9.7-13.7h7.7L42.9,17.2v0.5L56,35.5H48.3z"/>
	<path class="st0" d="M57.2,0h6.6v35.5h-6.6V0z"/>
	<path class="st0" d="M88.8,28c0,0.8,0.2,1.4,0.5,1.7s0.8,0.5,1.6,0.5v5.3h-1.1c-2.9,0-4.7-1.1-5.5-3.2c-2.1,2.5-5,3.8-8.7,3.8
		c-2.7,0-4.8-0.6-6.4-1.9c-1.6-1.3-2.4-3-2.4-5.3c0-5,3.7-7.8,11.2-8.3l4.7-0.4v-0.5c0-1.4-0.4-2.6-1.1-3.4c-0.7-0.8-1.8-1.2-3-1.2
		c-1.4,0-2.4,0.4-3.1,1.2s-1.1,1.7-1.3,2.8H68c0.2-2.6,1.2-4.8,3.1-6.4s4.3-2.5,7.4-2.5s5.6,0.9,7.5,2.7s2.9,4.3,2.9,7.6L88.8,28
		L88.8,28z M76.5,30.9c1.6,0,3-0.5,4.2-1.6s1.8-2.5,1.8-4.3v-0.5l-3.2,0.2c-4.1,0.4-6.1,1.6-6.1,3.6c0,0.8,0.3,1.4,0.9,1.9
		C74.7,30.7,75.5,30.9,76.5,30.9z"/>
	<path class="st0" d="M114.3,28c0,0.8,0.2,1.4,0.5,1.7s0.8,0.5,1.6,0.5v5.3h-1.1c-2.9,0-4.7-1.1-5.5-3.2c-2.1,2.5-5,3.8-8.7,3.8
		c-2.7,0-4.8-0.6-6.4-1.9c-1.6-1.3-2.4-3-2.4-5.3c0-5,3.7-7.8,11.2-8.3L108,20v-0.5c0-1.4-0.4-2.6-1.1-3.4c-0.7-0.8-1.8-1.2-3-1.2
		c-1.4,0-2.4,0.4-3.1,1.2s-1.1,1.7-1.3,2.8h-6.2c0.2-2.6,1.2-4.8,3.1-6.4s4.3-2.5,7.4-2.5s5.6,0.9,7.5,2.7s2.9,4.3,2.9,7.6L114.3,28
		L114.3,28z M102,30.9c1.6,0,3-0.5,4.2-1.6s1.8-2.5,1.8-4.3v-0.5l-3.2,0.2c-4.1,0.4-6.1,1.6-6.1,3.6c0,0.8,0.3,1.4,0.9,1.9
		C100.2,30.7,101,30.9,102,30.9z"/>
	<path class="st0" d="M133.5,10h1.8v6.5c-0.9-0.2-1.8-0.3-2.6-0.3c-2,0-3.7,0.7-5,2c-1.3,1.4-2,3.5-2,6.2v11H119v-25h5.3l0.9,3.5
		h0.5C127.6,11.3,130.2,10,133.5,10z"/>
	<path class="st0" d="M19.8,49.5h6.7l-8.7,25H8.7L0,49.5h6.7L13,68.7h0.5L19.8,49.5z"/>
	<path class="st0" d="M48.2,71.3c-2.5,2.4-5.6,3.7-9.3,3.7s-6.9-1.2-9.4-3.7c-2.5-2.4-3.8-5.5-3.8-9.3s1.3-6.9,3.8-9.3
		c2.5-2.4,5.7-3.7,9.4-3.7s6.9,1.2,9.4,3.6C50.7,55,52,58.2,52,62C52,65.8,50.7,68.9,48.2,71.3z M38.9,69.2c1.9,0,3.5-0.7,4.8-2.1
		c1.2-1.4,1.8-3.1,1.8-5.2c0-2.1-0.6-3.8-1.8-5.2s-2.8-2.1-4.8-2.1s-3.6,0.7-4.8,2.1c-1.2,1.4-1.9,3.1-1.9,5.2
		c0,2.1,0.6,3.8,1.9,5.2C35.3,68.6,36.9,69.2,38.9,69.2z"/>
	<path class="st0" d="M75.9,71.3c-2.5,2.4-5.6,3.7-9.3,3.7c-3.7,0-6.9-1.2-9.4-3.7c-2.5-2.4-3.8-5.5-3.8-9.3s1.3-6.9,3.8-9.3
		c2.5-2.4,5.7-3.7,9.4-3.7c3.7,0,6.9,1.2,9.4,3.6c2.5,2.4,3.8,5.5,3.8,9.4C79.7,65.8,78.4,68.9,75.9,71.3z M66.6,69.2
		c1.9,0,3.5-0.7,4.8-2.1c1.2-1.4,1.8-3.1,1.8-5.2c0-2.1-0.6-3.8-1.8-5.2c-1.2-1.4-2.8-2.1-4.8-2.1s-3.6,0.7-4.8,2.1
		c-1.2,1.4-1.9,3.1-1.9,5.2c0,2.1,0.6,3.8,1.9,5.2C63,68.6,64.6,69.2,66.6,69.2z"/>
	<path class="st0" d="M96.3,49h1.8v6.5c-0.9-0.2-1.8-0.3-2.6-0.3c-2,0-3.7,0.7-5,2c-1.3,1.4-2,3.5-2,6.2v11h-6.8v-25H87l1,3.6h0.5
		C90.5,50.3,93,49,96.3,49z"/>
	<path class="st0" d="M129.5,38.9h6.3v35.6h-4.9l-0.8-2.9h-0.7c-1.7,2.2-4.1,3.4-7.1,3.4c-3.2,0-5.9-1.2-8.1-3.5
		c-2.2-2.4-3.3-5.5-3.3-9.4s1.1-7.1,3.4-9.5s5.1-3.6,8.4-3.6c3.1,0,5.4,1,6.8,3.1L129.5,38.9L129.5,38.9z M119.1,67.2
		c1.1,1.3,2.6,2,4.4,2s3.2-0.7,4.3-2s1.7-3.1,1.7-5.2c0-2.1-0.5-3.8-1.7-5.2c-1.1-1.3-2.5-2-4.3-2s-3.3,0.7-4.4,2
		c-1.2,1.3-1.7,3-1.7,5.2C117.4,64.1,118,65.8,119.1,67.2z"/>
	<path class="st0" d="M156.5,66.6h6.1c-0.6,2.6-1.9,4.7-4.1,6.2c-2.2,1.5-4.7,2.2-7.7,2.2c-3.9,0-7-1.2-9.3-3.6s-3.5-5.6-3.5-9.5
		c0-3.8,1.2-6.9,3.5-9.3c2.4-2.4,5.3-3.6,8.8-3.6c1.7,0,3.3,0.3,4.8,0.8s2.8,1.4,4,2.5s2.1,2.7,2.7,4.6c0.6,2,0.8,4.2,0.6,6.8h-18.2
		c0.6,4,2.8,6,6.7,6c1.2,0,2.3-0.3,3.3-0.8S156.1,67.6,156.5,66.6z M150.7,54.1c-1.6,0-2.9,0.4-4,1.3c-1.1,0.9-1.8,2.1-2.2,3.6h11.9
		c-0.1-1.3-0.6-2.5-1.7-3.5C153.8,54.6,152.4,54.1,150.7,54.1z"/>
	<path class="st0" d="M55.3,106.6c0,2.4-0.9,4.2-2.8,5.5s-4.2,1.9-7.1,1.9c-3.2,0-5.8-0.8-7.7-2.4s-3-3.8-3.2-6.5h6.3
		c0.1,1.3,0.6,2.3,1.5,3c0.9,0.6,2,1,3.2,1c1,0,1.8-0.2,2.4-0.6c0.7-0.4,1-1,1-1.8c0-0.9-0.4-1.6-1.2-2.1s-2-1-3.8-1.4
		c-1.2-0.3-2.2-0.6-3-0.9s-1.7-0.7-2.7-1.3c-1-0.6-1.7-1.3-2.2-2.2c-0.5-0.9-0.8-1.9-0.8-3.1c0-2.3,0.9-4.1,2.7-5.5s4.1-2.1,6.9-2.1
		c2.8,0,5.1,0.7,6.9,2.2c1.8,1.5,2.7,3.4,2.9,5.7h-6c-0.1-0.9-0.5-1.6-1.2-2.1c-0.7-0.6-1.7-0.8-2.8-0.8c-0.8,0-1.5,0.2-2.1,0.6
		c-0.5,0.4-0.8,1-0.8,1.7s0.4,1.3,1.1,1.8c0.7,0.5,2,1,3.8,1.5c2.8,0.8,4.9,1.8,6.3,3S55.3,104.4,55.3,106.6z"/>
	<path class="st0" d="M72.8,112.7c-1.5,0.9-3.1,1.3-4.9,1.3c-5.1,0-7.6-2.7-7.6-8V93.7h-4.9V89h1.5c1.3,0,2.2-0.3,2.9-0.9
		s1-1.5,1-2.6v-3.2h5.9v6.3H73v5.2h-6.2v11.7c0,1.9,0.8,2.9,2.3,2.9c0.7,0,1.5-0.2,2.4-0.7L72.8,112.7z"/>
	<path class="st0" d="M95.8,106c0,0.8,0.2,1.4,0.5,1.7s0.8,0.5,1.6,0.5v5.3h-1.1c-2.9,0-4.7-1.1-5.5-3.2c-2.1,2.5-5,3.8-8.7,3.8
		c-2.7,0-4.8-0.6-6.4-1.9s-2.4-3-2.4-5.3c0-5,3.7-7.8,11.2-8.3l4.7-0.4v-0.5c0-1.4-0.4-2.6-1.1-3.4s-1.8-1.2-3-1.2
		c-1.4,0-2.4,0.4-3.1,1.2c-0.7,0.8-1.1,1.7-1.3,2.8H75c0.2-2.6,1.2-4.8,3.1-6.4s4.3-2.5,7.4-2.5s5.6,0.9,7.5,2.7s2.9,4.3,2.9,7.6
		L95.8,106L95.8,106z M83.5,108.9c1.6,0,3-0.5,4.2-1.6s1.8-2.5,1.8-4.3v-0.5l-3.2,0.2c-4.1,0.4-6.1,1.6-6.1,3.6
		c0,0.8,0.3,1.4,0.9,1.9C81.8,108.7,82.6,108.9,83.5,108.9z"/>
	<path class="st0" d="M115,88h1.8v6.5c-0.9-0.2-1.8-0.3-2.6-0.3c-2,0-3.7,0.7-5,2c-1.3,1.4-2,3.5-2,6.2v11h-6.8v-25h5.3l0.9,3.5h0.5
		C109.2,89.3,111.7,88,115,88z"/>
	<path class="st0" d="M135.7,112.7c-1.5,0.9-3.1,1.3-4.9,1.3c-5.1,0-7.6-2.7-7.6-8V93.7h-4.9V89h1.5c1.3,0,2.2-0.3,2.9-0.9
		c0.7-0.6,1-1.5,1-2.6v-3.2h5.9v6.3h6.2v5.2h-6.2v11.7c0,1.9,0.8,2.9,2.3,2.9c0.7,0,1.5-0.2,2.3-0.7L135.7,112.7z"/>
</g>
</svg>
