<?xml version="1.0" encoding="utf-8"?>
<!-- Generator: Adobe Illustrator 24.3.0, SVG Export Plug-In . SVG Version: 6.00 Build 0)  -->
<svg version="1.1" id="Laag_1" xmlns="http://www.w3.org/2000/svg" xmlns:xlink="http://www.w3.org/1999/xlink" x="0px" y="0px"
	 width="255.6px" height="66.6px" viewBox="0 0 255.6 66.6" style="enable-background:new 0 0 255.6 66.6;" xml:space="preserve">
<style type="text/css">
	.st0{fill:#FFFFFF;}
</style>
<g>
	<path class="st0" d="M2.2,0h15.1v29.9L39.8,0h16.9L32.2,31.3L57.2,65H38.5L17.3,35.4V65H2.2V0z"/>
	<path class="st0" d="M61.1,0h14.6v65H61.1V0z"/>
	<path class="st0" d="M132,61.3c-6.1,3.3-12.5,5.3-21.9,5.3c-18.1,0-27.3-10.1-27.3-26.1c0-15.4,10.6-26.3,26.3-26.3
		c14.1,0,25.2,8,25.2,26.1c0,1.8-0.2,3.2-0.4,4.4H98.2c1.3,6.8,6,10.4,14.5,10.4c6.4,0,11.4-1.2,16.9-4L132,61.3z M98.1,36.4h21.1
		c-0.7-7.2-3.9-11-10.5-11C102.5,25.4,99,29.2,98.1,36.4z"/>
	<path class="st0" d="M155.5,43c0,7.5,2.4,10.8,8,10.8c5.6,0,10.1-3.8,13.4-12.2V15.7h14.7V65h-14.7v-8.2
		c-4.3,5.9-10.1,9.2-17.3,9.2c-11.5,0-18.7-5.8-18.7-22.2v-28h14.6V43z"/>
	<path class="st0" d="M201.2,15.7h14.6v8c3.8-5.4,8.9-8.9,15.6-8.9c1.8,0,3.4,0.1,4.8,0.6l-1.9,12.3c-1.3-0.4-3.2-0.6-4.7-0.6
		c-5.5,0-10.6,4.2-13.9,12V65h-14.6V15.7z"/>
</g>
</svg>
