<?xml version="1.0" encoding="utf-8"?>
<!-- Generator: Adobe Illustrator 24.0.0, SVG Export Plug-In . SVG Version: 6.00 Build 0)  -->
<svg version="1.1" id="Laag_1" xmlns="http://www.w3.org/2000/svg" xmlns:xlink="http://www.w3.org/1999/xlink" x="0px" y="0px"
	 width="170.7px" height="23px" viewBox="0 0 170.7 23" style="enable-background:new 0 0 170.7 23;" xml:space="preserve">
<style type="text/css">
	.st0{fill:#FFFFFF;}
</style>
<g>
	<path class="st0" d="M13.3,0.1v0.7H9.4v2.8h3.2v0.7H9.4v3.4h4.1v0.7H8.6V0.1H13.3z"/>
	<path class="st0" d="M19.9,5.5h-4.6c0,1.4,0.7,2.4,1.9,2.4c0.9,0,1.4-0.4,1.9-1.3l0.7,0.3c-0.6,1.2-1.4,1.7-2.5,1.7
		c-1.6,0-2.7-1.3-2.7-3.1c0-1.8,1.1-3.1,2.7-3.1c1.6,0,2.7,1.1,2.7,2.8V5.5z M15.4,4.8h3.7C19,3.7,18.3,3,17.3,3
		C16.2,3,15.6,3.8,15.4,4.8z"/>
	<path class="st0" d="M26.2,8.5h-0.7V4.4c0-0.9-0.4-1.4-1.2-1.4c-1.1,0-2,1.1-2,2.8v2.7h-0.7v-6h0.7v1.3c0.4-0.8,1.2-1.4,2.1-1.4
		c1.1,0,1.9,0.7,1.9,2V8.5z"/>
	<path class="st0" d="M35.6,8.5H35l-0.2-0.9c-0.3,0.6-0.9,1-1.9,1c-1,0-1.9-0.5-1.9-1.8c0-1.3,1.1-2,2.8-2h1V4.5
		c0-1.1-0.6-1.5-1.4-1.5c-0.8,0-1.3,0.5-1.4,1.1L31.3,4c0.2-1,1.1-1.7,2.2-1.7c1.2,0,2.1,0.8,2.1,2.1V8.5z M33,7.9
		c0.8,0,1.8-0.6,1.8-2.2V5.5h-1c-1.4,0-2,0.5-2,1.3C31.8,7.5,32.3,7.9,33,7.9z"/>
	<path class="st0" d="M41.5,2.4l-2,6h-0.8l-2-6h0.8l1.7,5l1.7-5H41.5z"/>
	<path class="st0" d="M45.1,2.4c1.8,0,2.8,1.5,2.8,3.1s-1.1,3.1-2.8,3.1c-1.8,0-2.8-1.5-2.8-3.1S43.3,2.4,45.1,2.4z M45.1,7.9
		c1.4,0,2.1-1.2,2.1-2.4S46.5,3,45.1,3C43.7,3,43,4.3,43,5.5S43.7,7.9,45.1,7.9z"/>
	<path class="st0" d="M54.3,8.5h-0.7V4.4c0-0.9-0.4-1.4-1.2-1.4c-1.1,0-2,1.1-2,2.8v2.7h-0.7v-6h0.7v1.3c0.4-0.8,1.2-1.4,2.1-1.4
		c1.1,0,1.9,0.7,1.9,2V8.5z"/>
	<path class="st0" d="M61.3,0v8.5h-0.8V7.7c-0.3,0.5-1.1,0.9-1.9,0.9c-1.8,0-2.7-1.4-2.7-3.1s0.9-3.1,2.7-3.1c0.6,0,1.4,0.4,1.9,0.9
		V0H61.3z M58.7,7.9c1.3,0,1.9-1.1,1.9-2.4C60.7,4.1,60,3,58.7,3s-2,1.1-2,2.4C56.8,6.8,57.4,7.9,58.7,7.9z"/>
	<path class="st0" d="M67.4,0v3.3c0.4-0.6,1.2-0.9,1.9-0.9c1.8,0,2.7,1.4,2.7,3.1s-0.9,3.1-2.7,3.1c-0.8,0-1.6-0.4-1.9-0.9v0.8h-0.8
		V0H67.4z M69.3,3c-1.3,0-1.9,1.1-1.9,2.4c0,1.4,0.7,2.4,1.9,2.4s2-1.1,2-2.4C71.2,4.1,70.6,3,69.3,3z"/>
	<path class="st0" d="M74,0.1c0.3,0,0.6,0.3,0.6,0.6S74.4,1.3,74,1.3c-0.3,0-0.6-0.3-0.6-0.6S73.7,0.1,74,0.1z M74.4,2.4v6h-0.7v-6
		H74.4z"/>
	<path class="st0" d="M81,8.5h-0.7V4.4c0-0.9-0.4-1.4-1.2-1.4c-1.1,0-2,1.1-2,2.8v2.7h-0.7v-6h0.7v1.3c0.4-0.8,1.2-1.4,2.1-1.4
		c1.1,0,1.9,0.7,1.9,2V8.5z"/>
	<path class="st0" d="M85.1,2.4c0.4,0,0.7,0.1,1,0.3L87.2,2l0.3,0.6l-0.8,0.5c0.3,0.3,0.4,0.8,0.4,1.3c0,1.2-0.9,2-2.1,2
		c-0.4,0-0.8-0.1-1.1-0.3c-0.4,0.2-0.5,0.4-0.5,0.7c0,0.4,0.4,0.6,0.7,0.6h1.6c1,0,1.8,0.5,1.8,1.6c0,1.5-1.1,2.1-2.5,2.1
		c-1.5,0-2.5-0.7-2.5-2c0-0.6,0.3-1,0.6-1.3c-0.3-0.2-0.5-0.5-0.5-1c0-0.5,0.3-0.9,0.7-1.1c-0.3-0.3-0.5-0.8-0.5-1.3
		C83.1,3.2,84,2.4,85.1,2.4z M84.5,8c-0.2,0-0.4,0-0.6,0c-0.4,0.3-0.5,0.7-0.5,1.1c0,0.8,0.6,1.3,1.8,1.3c1.2,0,1.8-0.6,1.8-1.3
		c0-0.8-0.5-1-1.2-1H84.5z M85.1,5.8c0.7,0,1.3-0.5,1.3-1.4S85.8,3,85.1,3c-0.7,0-1.3,0.5-1.3,1.4S84.4,5.8,85.1,5.8z"/>
	<path class="st0" d="M93.8,5.5h-4.6c0,1.4,0.7,2.4,1.9,2.4c0.9,0,1.4-0.4,1.9-1.3l0.7,0.3c-0.6,1.2-1.4,1.7-2.5,1.7
		c-1.6,0-2.7-1.3-2.7-3.1c0-1.8,1.1-3.1,2.7-3.1c1.6,0,2.7,1.1,2.7,2.8V5.5z M89.3,4.8h3.7c-0.1-1-0.8-1.7-1.9-1.7
		C90.2,3,89.5,3.8,89.3,4.8z"/>
	<path class="st0" d="M102.6,2.4l-1.8,6H100l-1.3-4.9l-1.3,4.9h-0.8l-1.8-6h0.8l1.4,5l1.3-5h0.7l1.3,5l1.4-5H102.6z"/>
	<path class="st0" d="M108,8.5h-0.6l-0.2-0.9c-0.3,0.6-0.9,1-1.9,1c-1,0-1.9-0.5-1.9-1.8c0-1.3,1.1-2,2.8-2h1V4.5
		c0-1.1-0.6-1.5-1.4-1.5c-0.8,0-1.3,0.5-1.4,1.1L103.7,4c0.2-1,1.1-1.7,2.2-1.7c1.2,0,2.1,0.8,2.1,2.1V8.5z M105.4,7.9
		c0.8,0,1.8-0.6,1.8-2.2V5.5h-1c-1.4,0-2,0.5-2,1.3C104.2,7.5,104.7,7.9,105.4,7.9z"/>
	<path class="st0" d="M109.1,2.4h1.1v-2l0.8-0.5v2.4h1.6v0.7h-1.6v3.8c0,0.7,0.3,1,0.8,1c0.2,0,0.5,0,0.8-0.2l0.2,0.7
		c-0.3,0.2-0.7,0.2-1.1,0.2c-0.9,0-1.5-0.5-1.5-1.8V3.1h-1.1V2.4z"/>
	<path class="st0" d="M118.8,6.9c-0.4,1.1-1.2,1.7-2.4,1.7c-1.8,0-2.7-1.5-2.7-3.1s0.9-3.1,2.7-3.1c1.2,0,2,0.6,2.4,1.7l-0.7,0.3
		c-0.3-0.8-0.9-1.2-1.8-1.2c-1.3,0-1.9,1.1-1.9,2.4c0,1.3,0.6,2.4,1.9,2.4c0.9,0,1.4-0.4,1.8-1.2L118.8,6.9z"/>
	<path class="st0" d="M125.1,8.5h-0.7V4.4c0-0.9-0.4-1.4-1.3-1.4c-1.1,0-2,1.1-2,2.9v2.6h-0.7V0h0.7v3.8c0.4-1,1.3-1.4,2.2-1.4
		c1.2,0,1.9,0.7,1.9,2V8.5z"/>
	<path class="st0" d="M132.1,5.5h-4.6c0,1.4,0.7,2.4,1.9,2.4c0.9,0,1.4-0.4,1.9-1.3l0.7,0.3c-0.6,1.2-1.4,1.7-2.5,1.7
		c-1.6,0-2.7-1.3-2.7-3.1c0-1.8,1.1-3.1,2.7-3.1c1.6,0,2.7,1.1,2.7,2.8V5.5z M127.6,4.8h3.7c-0.1-1-0.8-1.7-1.9-1.7
		C128.4,3,127.8,3.8,127.6,4.8z"/>
	<path class="st0" d="M138.4,8.5h-0.7V4.4c0-0.9-0.4-1.4-1.2-1.4c-1.1,0-2,1.1-2,2.8v2.7h-0.7v-6h0.7v1.3c0.4-0.8,1.2-1.4,2.1-1.4
		c1.1,0,1.9,0.7,1.9,2V8.5z"/>
	<path class="st0" d="M151.7,8.5h-0.7V4.4c0-0.9-0.2-1.4-1.1-1.4c-1,0-1.8,1.1-1.8,2.8v2.7h-0.7V4.4c0-0.9-0.2-1.4-1.1-1.4
		c-1,0-1.8,1.1-1.8,2.8v2.7h-0.7v-6h0.7v1.3c0.4-0.8,1-1.4,1.9-1.4c0.9,0,1.5,0.5,1.6,1.3c0.4-0.8,1.2-1.3,2-1.3
		c1.2,0,1.7,0.7,1.7,2V8.5z"/>
	<path class="st0" d="M158.7,5.5h-4.6c0,1.4,0.7,2.4,1.9,2.4c0.9,0,1.4-0.4,1.9-1.3l0.7,0.3c-0.6,1.2-1.4,1.7-2.5,1.7
		c-1.6,0-2.7-1.3-2.7-3.1c0-1.8,1.1-3.1,2.7-3.1c1.6,0,2.7,1.1,2.7,2.8V5.5z M154.2,4.8h3.7c-0.1-1-0.8-1.7-1.9-1.7
		C155,3,154.4,3.8,154.2,4.8z"/>
	<path class="st0" d="M159.6,2.4h1.1v-2l0.8-0.5v2.4h1.6v0.7h-1.6v3.8c0,0.7,0.3,1,0.8,1c0.2,0,0.5,0,0.8-0.2l0.2,0.7
		c-0.3,0.2-0.7,0.2-1.1,0.2c-0.9,0-1.5-0.5-1.5-1.8V3.1h-1.1V2.4z"/>
	<path class="st0" d="M5.3,14.4v8.5H4.6v-0.8C4.3,22.6,3.5,23,2.7,23C0.9,23,0,21.6,0,19.9s0.9-3.1,2.7-3.1c0.6,0,1.4,0.4,1.9,0.9
		v-3.3H5.3z M2.7,22.3c1.3,0,1.9-1.1,1.9-2.4c0-1.3-0.7-2.4-1.9-2.4s-2,1.1-2,2.4C0.8,21.2,1.5,22.3,2.7,22.3z"/>
	<path class="st0" d="M12.2,19.9H7.7c0,1.4,0.7,2.4,1.9,2.4c0.9,0,1.4-0.4,1.9-1.3l0.7,0.3c-0.6,1.2-1.4,1.7-2.5,1.7
		c-1.6,0-2.7-1.3-2.7-3.1c0-1.8,1.1-3.1,2.7-3.1c1.6,0,2.7,1.1,2.7,2.8V19.9z M7.7,19.2h3.7c-0.1-1-0.8-1.7-1.9-1.7
		C8.6,17.4,7.9,18.2,7.7,19.2z"/>
	<path class="st0" d="M21,16.8l-2,6h-0.8l-2-6h0.8l1.7,5l1.7-5H21z"/>
	<path class="st0" d="M22.7,14.5c0.3,0,0.6,0.3,0.6,0.6s-0.3,0.6-0.6,0.6c-0.3,0-0.6-0.3-0.6-0.6S22.3,14.5,22.7,14.5z M23.1,16.8v6
		h-0.7v-6H23.1z"/>
	<path class="st0" d="M25.7,14.4v3.3c0.4-0.6,1.2-0.9,1.9-0.9c1.8,0,2.7,1.4,2.7,3.1S29.3,23,27.5,23c-0.8,0-1.6-0.4-1.9-0.9v0.8
		h-0.8v-8.5H25.7z M27.5,17.4c-1.3,0-1.9,1.1-1.9,2.4c0,1.4,0.7,2.4,1.9,2.4c1.3,0,2-1.1,2-2.4C29.5,18.5,28.8,17.4,27.5,17.4z"/>
	<path class="st0" d="M37,19.9h-4.6c0,1.4,0.7,2.4,1.9,2.4c0.9,0,1.4-0.4,1.9-1.3l0.7,0.3c-0.6,1.2-1.4,1.7-2.5,1.7
		c-1.6,0-2.7-1.3-2.7-3.1c0-1.8,1.1-3.1,2.7-3.1c1.6,0,2.7,1.1,2.7,2.8V19.9z M32.5,19.2h3.7c-0.1-1-0.8-1.7-1.9-1.7
		C33.4,17.4,32.7,18.2,32.5,19.2z"/>
	<path class="st0" d="M42,17.7l-0.5,0.5c-0.4-0.5-0.7-0.7-1.2-0.7c-0.5,0-0.9,0.4-0.9,0.9c0,1.2,2.9,1,2.9,2.7
		c0,1.2-0.7,1.9-1.9,1.9c-1.3,0-1.9-0.9-2.2-1.7l0.7-0.3c0.3,0.7,0.6,1.3,1.5,1.3c0.7,0,1.1-0.4,1.1-1.1c0-1.4-2.9-0.9-2.9-2.8
		c0-1,0.7-1.6,1.7-1.6C41.1,16.8,41.6,17.1,42,17.7z"/>
	<path class="st0" d="M52,19.9h-4.6c0,1.4,0.7,2.4,1.9,2.4c0.9,0,1.4-0.4,1.9-1.3l0.7,0.3c-0.6,1.2-1.4,1.7-2.5,1.7
		c-1.6,0-2.7-1.3-2.7-3.1c0-1.8,1.1-3.1,2.7-3.1c1.6,0,2.7,1.1,2.7,2.8V19.9z M47.5,19.2h3.7c-0.1-1-0.8-1.7-1.9-1.7
		C48.4,17.4,47.7,18.2,47.5,19.2z"/>
	<path class="st0" d="M58.3,22.9h-0.7v-4.1c0-0.9-0.4-1.4-1.2-1.4c-1.1,0-2,1.1-2,2.8v2.7h-0.7v-6h0.7v1.3c0.4-0.8,1.2-1.4,2.1-1.4
		c1.1,0,1.9,0.7,1.9,2V22.9z"/>
	<path class="st0" d="M63,16.8h1v-0.4c0-1.4,0.7-2.1,1.9-2.1c0.3,0,0.6,0.1,0.7,0.2l-0.2,0.7c-0.2-0.1-0.3-0.1-0.6-0.1
		c-0.7,0-1.1,0.4-1.1,1.2v0.5h1.5v0.7h-1.5v5.3H64v-5.3h-1V16.8z"/>
	<path class="st0" d="M69.8,16.8c1.8,0,2.8,1.5,2.8,3.1c0,1.6-1.1,3.1-2.8,3.1S67,21.5,67,19.9C67,18.3,68.1,16.8,69.8,16.8z
		 M69.8,22.3c1.4,0,2.1-1.2,2.1-2.4s-0.7-2.4-2.1-2.4s-2.1,1.2-2.1,2.4S68.5,22.3,69.8,22.3z"/>
	<path class="st0" d="M77,16.8c1.8,0,2.8,1.5,2.8,3.1c0,1.6-1.1,3.1-2.8,3.1s-2.8-1.5-2.8-3.1C74.1,18.3,75.2,16.8,77,16.8z
		 M77,22.3c1.4,0,2.1-1.2,2.1-2.4s-0.7-2.4-2.1-2.4s-2.1,1.2-2.1,2.4S75.6,22.3,77,22.3z"/>
	<path class="st0" d="M86.6,14.4v8.5h-0.8v-0.8C85.5,22.6,84.8,23,84,23c-1.8,0-2.7-1.4-2.7-3.1s0.9-3.1,2.7-3.1
		c0.6,0,1.4,0.4,1.9,0.9v-3.3H86.6z M84,22.3c1.3,0,1.9-1.1,1.9-2.4c0-1.3-0.7-2.4-1.9-2.4s-2,1.1-2,2.4C82,21.2,82.7,22.3,84,22.3z
		"/>
	<path class="st0" d="M95.9,16.8l-2,6h-0.8l-2-6h0.8l1.7,5l1.7-5H95.9z"/>
	<path class="st0" d="M101.2,22.9h-0.6l-0.2-0.9c-0.3,0.6-0.9,1-1.9,1c-1,0-1.9-0.5-1.9-1.8c0-1.3,1.1-2,2.8-2h1v-0.3
		c0-1.1-0.6-1.5-1.4-1.5c-0.8,0-1.3,0.5-1.4,1.1l-0.7-0.2c0.2-1,1.1-1.7,2.2-1.7c1.2,0,2.1,0.8,2.1,2.1V22.9z M98.7,22.3
		c0.8,0,1.8-0.6,1.8-2.2v-0.2h-1c-1.4,0-2,0.5-2,1.3C97.5,21.9,97.9,22.3,98.7,22.3z"/>
	<path class="st0" d="M107.7,22.9h-0.7v-4.1c0-0.9-0.4-1.4-1.2-1.4c-1.1,0-2,1.1-2,2.8v2.7H103v-6h0.7v1.3c0.4-0.8,1.2-1.4,2.1-1.4
		c1.1,0,1.9,0.7,1.9,2V22.9z"/>
	<path class="st0" d="M117.8,19.9h-4.6c0,1.4,0.7,2.4,1.9,2.4c0.9,0,1.4-0.4,1.9-1.3l0.7,0.3c-0.6,1.2-1.4,1.7-2.5,1.7
		c-1.6,0-2.7-1.3-2.7-3.1c0-1.8,1.1-3.1,2.7-3.1c1.6,0,2.7,1.1,2.7,2.8V19.9z M113.3,19.2h3.7c-0.1-1-0.8-1.7-1.9-1.7
		C114.1,17.4,113.5,18.2,113.3,19.2z"/>
	<path class="st0" d="M124.5,19.9h-4.6c0,1.4,0.7,2.4,1.9,2.4c0.9,0,1.4-0.4,1.9-1.3l0.7,0.3c-0.6,1.2-1.4,1.7-2.5,1.7
		c-1.6,0-2.7-1.3-2.7-3.1c0-1.8,1.1-3.1,2.7-3.1c1.6,0,2.7,1.1,2.7,2.8V19.9z M120,19.2h3.7c-0.1-1-0.8-1.7-1.9-1.7
		C120.8,17.4,120.2,18.2,120,19.2z"/>
	<path class="st0" d="M130.8,22.9h-0.7v-4.1c0-0.9-0.4-1.4-1.2-1.4c-1.1,0-2,1.1-2,2.8v2.7h-0.7v-6h0.7v1.3c0.4-0.8,1.2-1.4,2.1-1.4
		c1.1,0,1.9,0.7,1.9,2V22.9z"/>
	<path class="st0" d="M135.5,16.8h1v-0.4c0-1.4,0.7-2.1,1.9-2.1c0.3,0,0.6,0.1,0.7,0.2l-0.2,0.7c-0.2-0.1-0.3-0.1-0.6-0.1
		c-0.7,0-1.1,0.4-1.1,1.2v0.5h1.5v0.7h-1.5v5.3h-0.7v-5.3h-1V16.8z"/>
	<path class="st0" d="M144.9,19.9h-4.6c0,1.4,0.7,2.4,1.9,2.4c0.9,0,1.4-0.4,1.9-1.3l0.7,0.3c-0.6,1.2-1.4,1.7-2.5,1.7
		c-1.6,0-2.7-1.3-2.7-3.1c0-1.8,1.1-3.1,2.7-3.1c1.6,0,2.7,1.1,2.7,2.8V19.9z M140.4,19.2h3.7c-0.1-1-0.8-1.7-1.9-1.7
		C141.2,17.4,140.6,18.2,140.4,19.2z"/>
	<path class="st0" d="M149.9,17.7l-0.5,0.5c-0.4-0.5-0.7-0.7-1.2-0.7c-0.5,0-0.9,0.4-0.9,0.9c0,1.2,2.9,1,2.9,2.7
		c0,1.2-0.7,1.9-1.9,1.9c-1.3,0-1.9-0.9-2.2-1.7l0.7-0.3c0.3,0.7,0.6,1.3,1.5,1.3c0.7,0,1.1-0.4,1.1-1.1c0-1.4-2.9-0.9-2.9-2.8
		c0-1,0.7-1.6,1.7-1.6C149,16.8,149.5,17.1,149.9,17.7z"/>
	<path class="st0" d="M151,16.8h1.1v-2l0.8-0.5v2.4h1.6v0.7h-1.6v3.8c0,0.7,0.3,1,0.8,1c0.2,0,0.5,0,0.8-0.2l0.2,0.7
		c-0.3,0.2-0.7,0.2-1.1,0.2c-0.9,0-1.5-0.5-1.5-1.8v-3.6H151V16.8z"/>
	<path class="st0" d="M156.3,14.5c0.3,0,0.6,0.3,0.6,0.6s-0.3,0.6-0.6,0.6c-0.3,0-0.6-0.3-0.6-0.6S156,14.5,156.3,14.5z M156.7,16.8
		v6h-0.7v-6H156.7z"/>
	<path class="st0" d="M162.9,16.8l-2,6H160l-2-6h0.8l1.7,5l1.7-5H162.9z"/>
	<path class="st0" d="M168.2,22.9h-0.6l-0.2-0.9c-0.3,0.6-0.9,1-1.9,1c-1,0-1.9-0.5-1.9-1.8c0-1.3,1.1-2,2.8-2h1v-0.3
		c0-1.1-0.6-1.5-1.4-1.5c-0.8,0-1.3,0.5-1.4,1.1l-0.7-0.2c0.2-1,1.1-1.7,2.2-1.7c1.2,0,2.1,0.8,2.1,2.1V22.9z M165.6,22.3
		c0.8,0,1.8-0.6,1.8-2.2v-0.2h-1c-1.4,0-2,0.5-2,1.3C164.4,21.9,164.9,22.3,165.6,22.3z"/>
	<path class="st0" d="M170.7,14.4v8.5H170v-8.5H170.7z"/>
</g>
</svg>
