<?xml version="1.0" encoding="utf-8"?>
<!-- Generator: Adobe Illustrator 24.3.0, SVG Export Plug-In . SVG Version: 6.00 Build 0)  -->
<svg version="1.1" id="Laag_1" xmlns="http://www.w3.org/2000/svg" xmlns:xlink="http://www.w3.org/1999/xlink" x="0px" y="0px"
	 width="470px" height="124.2px" viewBox="0 0 470 124.2" style="enable-background:new 0 0 470 124.2;" xml:space="preserve">
<style type="text/css">
	.st0{fill:#FFFFFF;}
</style>
<g>
	<path class="st0" d="M110.6,24.1V6.8c0-2.4-0.1-3.8-0.4-4.3c-0.3-0.5-1.5-0.8-3.8-0.8c-0.3,0-0.4,0-0.5-0.1
		c-0.1-0.1-0.1-0.2-0.1-0.4V0.6c0-0.4,0.1-0.5,0.3-0.5h9.4l2.7,3.7l10.7,14l3.7,4.7V6.7c0-1.6-0.1-2.8-0.2-3.5
		c-0.2-0.7-0.5-1.2-1-1.3s-1.4-0.2-2.8-0.2c-0.5,0-0.8,0-0.9-0.1s-0.2-0.2-0.2-0.4V0.4c0-0.3,0.2-0.4,0.5-0.4h11.1
		c0.2,0,0.4,0.1,0.4,0.4v0.8c0,0.2-0.2,0.4-0.7,0.4c-1.3,0-2.2,0.1-2.6,0.2c-0.5,0.1-0.8,0.4-0.9,0.8c-0.2,0.6-0.3,2-0.3,4.2v23.1
		c0,0.3-0.1,0.5-0.3,0.5H133l-1.1-1.6l-2.2-3L116.5,8.7l-3.5-4v17.3c0,3.4,0.2,5.3,0.7,5.8c0.2,0.2,0.6,0.4,1.1,0.5
		c0.5,0.1,1.3,0.2,2.3,0.2c0.5,0,0.8,0.2,0.8,0.5v0.8c0,0.2-0.1,0.3-0.3,0.3h-11.5c-0.3,0-0.4-0.1-0.4-0.4V29c0-0.4,0.2-0.6,0.7-0.6
		c1.4,0,2.4-0.1,2.9-0.3c0.5-0.2,0.8-0.6,1-1.1C110.5,26.4,110.6,25.5,110.6,24.1z"/>
	<path class="st0" d="M146.9,20V6c0-1.5-0.1-2.5-0.2-3.1c-0.1-0.6-0.5-0.9-0.9-1.1c-0.5-0.1-1.3-0.2-2.6-0.2c-0.5,0-0.7-0.2-0.7-0.5
		V0.3c0-0.2,0.1-0.2,0.4-0.2h12.9c0.2,0,0.4,0.1,0.4,0.3V1c0,0.3,0,0.4-0.1,0.5c-0.1,0.1-0.3,0.1-0.6,0.1c-1.2,0-2,0.1-2.5,0.2
		c-0.5,0.1-0.8,0.3-1,0.6c-0.1,0.2-0.2,0.4-0.3,0.8c-0.2,1.1-0.3,2.7-0.3,4.7v9c0,3.3,0.3,5.7,0.8,7.1c0.6,1.4,1.5,2.5,2.7,3.2
		s2.6,1.1,4.2,1.1c1.6,0,3.1-0.5,4.4-1.4s2.2-2.1,2.7-3.6c0.5-1.5,0.8-3.8,0.8-6.8V9.1c0-2-0.1-3.8-0.4-5.3
		c-0.1-0.6-0.2-1.1-0.4-1.4c-0.1-0.3-0.5-0.5-1.1-0.6c-0.6-0.1-1.4-0.2-2.4-0.2c-0.6,0-0.8-0.2-0.8-0.5V0.5c0-0.3,0.2-0.4,0.6-0.4
		h10.8c0.3,0,0.4,0.1,0.4,0.3v0.8c0,0.3-0.1,0.4-0.2,0.5s-0.4,0.1-0.7,0.1c-0.9,0-1.6,0.1-2.1,0.3s-0.8,0.5-1,1
		c-0.2,0.9-0.4,2.2-0.4,4.1v11.5c0,4.2-1,7.3-3.1,9.2s-4.7,2.9-7.8,2.9c-3.7,0-6.5-0.9-8.4-2.7C147.9,26.1,146.9,23.5,146.9,20z"/>
	<path class="st0" d="M189.6,0h26.3c0.3,0,0.5,0.1,0.5,0.4v7.4c0,0.3-0.1,0.5-0.3,0.5h-1c-0.1,0-0.2,0-0.2-0.1
		c0-0.1-0.1-0.3-0.1-0.6c-0.4-2.5-0.7-4-1-4.5s-0.9-0.7-1.9-0.7H205v17.6c0,4.7,0.2,7.2,0.7,7.7c0.2,0.2,0.6,0.4,1.2,0.5
		c0.6,0.1,1.5,0.2,2.7,0.2c0.4,0,0.7,0.1,0.7,0.3v1.1c0,0.2-0.1,0.3-0.3,0.3h-14.3c-0.3,0-0.4-0.1-0.4-0.4v-0.8
		c0-0.3,0.2-0.4,0.5-0.4c1.2,0,2.1,0,2.7-0.1c0.6-0.1,1-0.2,1.2-0.4c0.2-0.2,0.4-0.6,0.6-1.3c0.3-1.3,0.4-2.9,0.4-4.9V2.4h-6.9
		c-0.8,0-1.3,0.1-1.6,0.4c-0.3,0.3-0.5,0.8-0.8,1.5S191,6,190.8,7.4c-0.1,0.6-0.2,0.9-0.5,0.9h-0.8c-0.2,0-0.3-0.1-0.3-0.3V0.7
		C189.2,0.2,189.3,0,189.6,0z"/>
	<path class="st0" d="M228.6,13.5h8.1c1.6,0,2.6-0.2,3.1-0.7s0.7-1.4,0.7-2.9c0-0.6,0.2-0.8,0.5-0.8h0.8c0.2,0,0.4,0.2,0.4,0.5v9.6
		c0,0.3-0.1,0.5-0.4,0.5h-0.9c-0.2,0-0.3-0.2-0.3-0.6c0-1.4-0.2-2.4-0.6-2.9s-1.3-0.8-2.6-0.8h-8.8V22c0,2,0.1,4,0.2,6.1h7
		c2.4,0,4.1-0.2,5.2-0.5c0.6-0.2,1-0.4,1.1-0.7c0.2-0.3,0.3-0.8,0.4-1.4c0.1-0.6,0.1-1.3,0.1-2.2c0-0.4,0.1-0.6,0.3-0.6h1
		c0.2,0,0.3,0.1,0.3,0.4v6.6c0,0.2-0.1,0.3-0.3,0.3h-24.1c-0.2,0-0.3-0.1-0.3-0.4v-0.9c0-0.2,0.2-0.3,0.5-0.3c0.8,0,1.5-0.1,2.2-0.2
		c0.7-0.1,1.1-0.3,1.2-0.5c0.2-0.2,0.3-0.6,0.4-1.1c0.2-1.2,0.3-3,0.3-5.5V6.3c0-2.2-0.3-3.5-0.8-4c-0.5-0.5-1.6-0.7-3.2-0.7
		c-0.5,0-0.7-0.1-0.7-0.3v-1c0-0.2,0.2-0.3,0.5-0.3h22.9c0.4,0,0.5,0.2,0.5,0.5v5.4c0,0.4-0.1,0.6-0.2,0.6h-1
		c-0.2,0-0.4-0.2-0.4-0.5c0-1.6-0.2-2.7-0.6-3.2c-0.4-0.5-1.1-0.8-2-0.8h-10.6l-0.1,2l-0.1,2V13.5z"/>
	<path class="st0" d="M261.6,6V0.8c0-0.3,0-0.5,0.1-0.6S262,0,262.4,0h19.6c0.1,0,0.1,0,0.3,0h0.2c0.2,0,0.4,0.1,0.4,0.3v1.2
		c0,0.2-0.5,1-1.4,2.5c-0.9,1.5-2.4,3.6-4.3,6.5L266,27.8h5.7c3.7,0,6.1-0.1,7.3-0.4c0.7-0.2,1.2-0.5,1.5-1.1
		c0.3-0.6,0.4-1.5,0.6-2.8c0.1-0.7,0.1-1,0.2-1h1.2c0.2,0,0.3,0.4,0.3,1.2v5.8c0,0.4-0.2,0.6-0.6,0.6h-21.6c-0.3,0-0.4-0.1-0.4-0.2
		v-1.4c6.2-9,12-17.7,17.2-26h-10.1c-0.9,0-1.6,0.1-2.2,0.2c-0.5,0.1-0.9,0.3-1.2,0.6s-0.5,0.9-0.7,1.9c-0.1,0.3-0.1,0.5-0.1,0.7
		c0,0.1-0.1,0.3-0.1,0.5c0,0.6-0.2,0.8-0.4,0.8h-0.6c-0.2,0-0.4-0.1-0.4-0.2C261.6,6.8,261.6,6.5,261.6,6z"/>
	<path class="st0" d="M285.6,0h13.5c0.3,0,0.4,0.1,0.4,0.4v0.9c0,0.2-0.2,0.3-0.7,0.3c-2.1,0-3.4,0.3-3.8,0.8
		c-0.2,0.3-0.4,0.8-0.5,1.5c-0.1,0.7-0.1,1.9-0.1,3.4v16c0,1.9,0.1,3.2,0.3,3.9c0.1,0.4,0.4,0.7,0.9,0.9s1.6,0.2,3.3,0.2
		c0.4,0,0.6,0.1,0.6,0.3v0.8c0,0.3,0,0.4-0.1,0.4c0,0-0.2,0.1-0.4,0.1h-13.7c-0.2,0-0.3-0.1-0.3-0.4v-0.8c0-0.3,0.2-0.4,0.5-0.4
		c0.1,0,0.1,0,0.2,0c2.3,0,3.6-0.3,3.9-0.8c0.2-0.4,0.3-1.2,0.3-2.4s0.1-3,0.1-5.5V5.2c0-1.3-0.1-2.2-0.2-2.5s-0.6-0.7-1.2-0.8
		c-0.6-0.2-1.5-0.2-2.6-0.2c-0.6,0-0.9-0.1-0.9-0.3v-1C285.2,0.1,285.3,0,285.6,0z"/>
	<path class="st0" d="M311.2,13.5h8.1c1.6,0,2.6-0.2,3.1-0.7s0.7-1.4,0.7-2.9c0-0.6,0.2-0.8,0.5-0.8h0.8c0.2,0,0.4,0.2,0.4,0.5v9.6
		c0,0.3-0.1,0.5-0.4,0.5h-0.9c-0.2,0-0.3-0.2-0.3-0.6c0-1.4-0.2-2.4-0.6-2.9c-0.4-0.5-1.3-0.8-2.6-0.8h-8.8V22c0,2,0.1,4,0.2,6.1h7
		c2.4,0,4.1-0.2,5.2-0.5c0.6-0.2,1-0.4,1.1-0.7c0.2-0.3,0.3-0.8,0.4-1.4c0.1-0.6,0.1-1.3,0.1-2.2c0-0.4,0.1-0.6,0.3-0.6h1
		c0.2,0,0.3,0.1,0.3,0.4v6.6c0,0.2-0.1,0.3-0.3,0.3h-24.1c-0.2,0-0.3-0.1-0.3-0.4v-0.9c0-0.2,0.2-0.3,0.5-0.3c0.8,0,1.5-0.1,2.2-0.2
		c0.7-0.1,1.1-0.3,1.2-0.5c0.2-0.2,0.3-0.6,0.4-1.1c0.2-1.2,0.3-3,0.3-5.5V6.3c0-2.2-0.3-3.5-0.8-4s-1.6-0.7-3.2-0.7
		c-0.5,0-0.7-0.1-0.7-0.3v-1c0-0.2,0.2-0.3,0.5-0.3h22.9c0.4,0,0.5,0.2,0.5,0.5v5.4c0,0.4-0.1,0.6-0.2,0.6h-1
		c-0.2,0-0.4-0.2-0.4-0.5c0-1.6-0.2-2.7-0.6-3.2c-0.4-0.5-1.1-0.8-2-0.8h-10.6l-0.1,2l-0.1,2V13.5z"/>
	<path class="st0" d="M334.9,24.1V6.8c0-2.4-0.1-3.8-0.4-4.3s-1.5-0.8-3.8-0.8c-0.3,0-0.4,0-0.5-0.1c-0.1-0.1-0.1-0.2-0.1-0.4V0.6
		c0-0.4,0.1-0.5,0.3-0.5h9.4l2.7,3.7l10.7,14l3.7,4.7V6.7c0-1.6-0.1-2.8-0.2-3.5c-0.2-0.7-0.5-1.2-1-1.3s-1.4-0.2-2.8-0.2
		c-0.5,0-0.8,0-0.9-0.1S352,1.4,352,1.2V0.4c0-0.3,0.2-0.4,0.5-0.4h11.1c0.2,0,0.4,0.1,0.4,0.4v0.8c0,0.2-0.2,0.4-0.7,0.4
		c-1.3,0-2.2,0.1-2.6,0.2c-0.5,0.1-0.8,0.4-0.9,0.8c-0.2,0.6-0.3,2-0.3,4.2v23.1c0,0.3-0.1,0.5-0.3,0.5h-1.9l-1.1-1.6l-2.2-3
		L340.8,8.7l-3.5-4v17.3c0,3.4,0.2,5.3,0.7,5.8c0.2,0.2,0.6,0.4,1.1,0.5s1.3,0.2,2.3,0.2c0.5,0,0.8,0.2,0.8,0.5v0.8
		c0,0.2-0.1,0.3-0.3,0.3h-11.5c-0.3,0-0.4-0.1-0.4-0.4V29c0-0.4,0.2-0.6,0.7-0.6c1.4,0,2.4-0.1,2.9-0.3c0.5-0.2,0.8-0.6,1-1.1
		C334.8,26.4,334.9,25.5,334.9,24.1z"/>
	<path class="st0" d="M40.5,62.6H54c0.3,0,0.4,0.1,0.4,0.4v0.9c0,0.2-0.2,0.3-0.7,0.3c-2.1,0-3.4,0.3-3.8,0.8
		c-0.2,0.3-0.4,0.8-0.5,1.5s-0.1,1.9-0.1,3.4v16c0,1.9,0.1,3.2,0.3,3.9c0.1,0.4,0.4,0.7,0.9,0.9c0.5,0.1,1.6,0.2,3.3,0.2
		c0.4,0,0.6,0.1,0.6,0.3V92c0,0.3,0,0.4-0.1,0.4c0,0-0.2,0.1-0.4,0.1H40.3c-0.2,0-0.3-0.1-0.3-0.4v-0.8c0-0.3,0.2-0.4,0.5-0.4
		c0.1,0,0.1,0,0.2,0c2.3,0,3.6-0.3,3.9-0.8c0.2-0.4,0.3-1.2,0.3-2.4c0.1-1.2,0.1-3,0.1-5.5V67.7c0-1.3-0.1-2.2-0.2-2.5
		s-0.6-0.7-1.2-0.8c-0.6-0.2-1.5-0.2-2.6-0.2c-0.6,0-0.9-0.1-0.9-0.3v-1C40.1,62.6,40.2,62.6,40.5,62.6z"/>
	<path class="st0" d="M61.6,86.7V69.3c0-2.4-0.1-3.8-0.4-4.3c-0.3-0.5-1.5-0.8-3.8-0.8c-0.3,0-0.4,0-0.5-0.1
		c-0.1-0.1-0.1-0.2-0.1-0.4v-0.6c0-0.4,0.1-0.5,0.3-0.5h9.4l2.7,3.7l10.7,14l3.7,4.7V69.2c0-1.6-0.1-2.8-0.2-3.5
		c-0.2-0.7-0.5-1.2-1-1.3s-1.4-0.2-2.8-0.2c-0.5,0-0.8,0-0.9-0.1s-0.2-0.2-0.2-0.4v-0.8c0-0.3,0.2-0.4,0.5-0.4h11.1
		c0.2,0,0.4,0.1,0.4,0.4v0.8c0,0.2-0.2,0.4-0.7,0.4c-1.3,0-2.2,0.1-2.6,0.2c-0.5,0.1-0.8,0.4-0.9,0.8c-0.2,0.6-0.3,2-0.3,4.2v23.1
		c0,0.3-0.1,0.5-0.3,0.5h-1.9l-1.1-1.6l-2.2-3L67.5,71.2l-3.5-4v17.3c0,3.4,0.2,5.3,0.7,5.8c0.2,0.2,0.6,0.4,1.1,0.5
		c0.5,0.1,1.3,0.2,2.3,0.2c0.5,0,0.8,0.2,0.8,0.5v0.8c0,0.2-0.1,0.3-0.3,0.3H57.1c-0.3,0-0.4-0.1-0.4-0.4v-0.6
		c0-0.4,0.2-0.6,0.7-0.6c1.4,0,2.4-0.1,2.9-0.3s0.8-0.6,1-1.1C61.5,89,61.6,88,61.6,86.7z"/>
	<path class="st0" d="M110.5,86.8V71.5c0-3.5-0.1-5.6-0.3-6.3c-0.1-0.4-0.4-0.7-0.9-0.9s-1.3-0.2-2.7-0.2c-0.4,0-0.6,0-0.7-0.1
		c-0.1-0.1-0.2-0.2-0.2-0.4v-0.8c0-0.2,0-0.3,0.1-0.3c0-0.1,0.2-0.1,0.4-0.1h13c0.2,0,0.4,0.1,0.4,0.3v0.9c0,0.3-0.2,0.4-0.6,0.4
		c-2.1,0-3.2,0.2-3.5,0.6c-0.2,0.3-0.4,1-0.5,2.1c-0.1,1.1-0.2,2.4-0.2,4.1v4.7h15.8v-6c0-2.1-0.1-3.5-0.4-4.3
		c-0.1-0.5-0.5-0.8-1-0.9s-1.4-0.2-2.5-0.2c-0.5,0-0.8-0.1-0.8-0.3v-0.9c0-0.2,0.1-0.3,0.3-0.3h12.9c0.4,0,0.6,0.1,0.6,0.2v1
		c0,0.2-0.2,0.4-0.6,0.4c-1.9,0-3,0.2-3.4,0.5c-0.3,0.3-0.4,0.8-0.6,1.7c-0.1,0.9-0.2,2.1-0.2,3.7V87c0,0.9,0.1,1.7,0.4,2.6
		c0.1,0.5,0.3,0.8,0.6,0.9c0.3,0.1,0.7,0.2,1.2,0.3c0.5,0.1,1.1,0.1,1.8,0.1c0.5,0,0.8,0.1,0.8,0.3v0.8c0,0.3-0.1,0.5-0.4,0.5h-13.1
		c-0.2,0-0.3-0.1-0.3-0.2v-1c0-0.3,0.2-0.4,0.5-0.4c1.5,0,2.5-0.1,3-0.2c0.5-0.1,0.7-0.3,0.8-0.5c0.1-0.1,0.1-0.4,0.2-0.7
		c0.2-0.9,0.2-2.4,0.2-4.5V78h-15.8v6.6c0,3.6,0.3,5.6,0.8,6c0.2,0.1,0.6,0.2,1.2,0.3s1.2,0.1,2,0.1c0.1,0,0.2,0,0.2,0
		c0.3,0,0.5,0.1,0.5,0.4v0.8c0,0.2-0.1,0.4-0.3,0.4h-13.4c-0.1,0-0.2-0.1-0.2-0.3v-0.9c0-0.2,0.1-0.4,0.4-0.4c1.3,0,2.1,0,2.7-0.1
		s0.8-0.2,1-0.3c0.1-0.1,0.3-0.4,0.4-0.7C110.4,89,110.5,88,110.5,86.8z"/>
	<path class="st0" d="M151.3,76.1h8.1c1.6,0,2.6-0.2,3.1-0.7s0.7-1.4,0.7-2.9c0-0.6,0.2-0.8,0.5-0.8h0.8c0.2,0,0.4,0.2,0.4,0.5v9.6
		c0,0.3-0.1,0.5-0.4,0.5h-0.9c-0.2,0-0.3-0.2-0.3-0.6c0-1.4-0.2-2.4-0.6-2.9c-0.4-0.5-1.3-0.8-2.6-0.8h-8.8v6.5c0,2,0.1,4,0.2,6.1h7
		c2.4,0,4.1-0.2,5.2-0.5c0.6-0.2,1-0.4,1.1-0.7s0.3-0.8,0.4-1.4s0.1-1.3,0.1-2.2c0-0.4,0.1-0.6,0.3-0.6h1c0.2,0,0.3,0.1,0.3,0.4v6.6
		c0,0.2-0.1,0.3-0.3,0.3h-24.1c-0.2,0-0.3-0.1-0.3-0.4v-0.9c0-0.2,0.2-0.3,0.5-0.3c0.8,0,1.5-0.1,2.2-0.2c0.7-0.1,1.1-0.3,1.2-0.5
		c0.2-0.2,0.3-0.6,0.4-1.1c0.2-1.2,0.3-3,0.3-5.5V68.8c0-2.2-0.3-3.5-0.8-4c-0.5-0.5-1.6-0.7-3.2-0.7c-0.5,0-0.7-0.1-0.7-0.3v-1
		c0-0.2,0.2-0.3,0.5-0.3h22.9c0.4,0,0.5,0.2,0.5,0.5v5.4c0,0.4-0.1,0.6-0.2,0.6h-1c-0.2,0-0.4-0.2-0.4-0.5c0-1.6-0.2-2.7-0.6-3.2
		s-1.1-0.8-2-0.8h-10.6l-0.1,2l-0.1,2V76.1z"/>
	<path class="st0" d="M171.5,62.6h26.3c0.3,0,0.5,0.1,0.5,0.4v7.4c0,0.3-0.1,0.5-0.3,0.5h-1c-0.1,0-0.2,0-0.2-0.1
		c0-0.1-0.1-0.3-0.1-0.6c-0.4-2.5-0.7-4-1-4.5c-0.3-0.5-0.9-0.7-1.9-0.7h-6.9v17.6c0,4.7,0.2,7.2,0.7,7.7c0.2,0.2,0.6,0.4,1.2,0.5
		c0.6,0.1,1.5,0.2,2.7,0.2c0.4,0,0.7,0.1,0.7,0.3v1.1c0,0.2-0.1,0.3-0.3,0.3h-14.3c-0.3,0-0.4-0.1-0.4-0.4v-0.8
		c0-0.3,0.2-0.4,0.5-0.4c1.2,0,2.1,0,2.7-0.1c0.6-0.1,1-0.2,1.2-0.4c0.2-0.2,0.4-0.6,0.6-1.3c0.3-1.3,0.4-2.9,0.4-4.9V65h-6.9
		c-0.8,0-1.3,0.1-1.6,0.4s-0.5,0.8-0.8,1.5c-0.2,0.7-0.4,1.7-0.6,3.1c-0.1,0.6-0.2,0.9-0.5,0.9h-0.8c-0.2,0-0.3-0.1-0.3-0.3v-7.4
		C171.1,62.8,171.2,62.6,171.5,62.6z"/>
	<path class="st0" d="M215,62.6h26.3c0.3,0,0.5,0.1,0.5,0.4v7.4c0,0.3-0.1,0.5-0.3,0.5h-1c-0.1,0-0.2,0-0.2-0.1
		c0-0.1-0.1-0.3-0.1-0.6c-0.4-2.5-0.7-4-1-4.5c-0.3-0.5-0.9-0.7-1.9-0.7h-6.9v17.6c0,4.7,0.2,7.2,0.7,7.7c0.2,0.2,0.6,0.4,1.2,0.5
		c0.6,0.1,1.5,0.2,2.7,0.2c0.4,0,0.7,0.1,0.7,0.3v1.1c0,0.2-0.1,0.3-0.3,0.3H221c-0.3,0-0.4-0.1-0.4-0.4v-0.8c0-0.3,0.2-0.4,0.5-0.4
		c1.2,0,2.1,0,2.7-0.1s1-0.2,1.2-0.4c0.2-0.2,0.4-0.6,0.6-1.3c0.3-1.3,0.4-2.9,0.4-4.9V65h-6.9c-0.8,0-1.3,0.1-1.6,0.4
		s-0.5,0.8-0.8,1.5c-0.2,0.7-0.4,1.7-0.6,3.1c-0.1,0.6-0.2,0.9-0.5,0.9h-0.8c-0.2,0-0.3-0.1-0.3-0.3v-7.4
		C214.6,62.8,214.7,62.6,215,62.6z"/>
	<path class="st0" d="M249.5,86.8V71.5c0-3.5-0.1-5.6-0.3-6.3c-0.1-0.4-0.4-0.7-0.9-0.9c-0.5-0.1-1.3-0.2-2.7-0.2
		c-0.4,0-0.6,0-0.7-0.1c-0.1-0.1-0.2-0.2-0.2-0.4v-0.8c0-0.2,0-0.3,0.1-0.3c0-0.1,0.2-0.1,0.4-0.1h13c0.2,0,0.4,0.1,0.4,0.3v0.9
		c0,0.3-0.2,0.4-0.6,0.4c-2.1,0-3.2,0.2-3.5,0.6c-0.2,0.3-0.4,1-0.5,2.1c-0.1,1.1-0.2,2.4-0.2,4.1v4.7h15.8v-6
		c0-2.1-0.1-3.5-0.4-4.3c-0.1-0.5-0.5-0.8-1-0.9c-0.6-0.2-1.4-0.2-2.5-0.2c-0.5,0-0.8-0.1-0.8-0.3v-0.9c0-0.2,0.1-0.3,0.3-0.3h12.9
		c0.4,0,0.6,0.1,0.6,0.2v1c0,0.2-0.2,0.4-0.6,0.4c-1.9,0-3,0.2-3.4,0.5c-0.3,0.3-0.4,0.8-0.6,1.7c-0.1,0.9-0.2,2.1-0.2,3.7V87
		c0,0.9,0.1,1.7,0.4,2.6c0.1,0.5,0.3,0.8,0.6,0.9c0.3,0.1,0.7,0.2,1.2,0.3c0.5,0.1,1.1,0.1,1.8,0.1c0.5,0,0.8,0.1,0.8,0.3v0.8
		c0,0.3-0.1,0.5-0.4,0.5h-13.1c-0.2,0-0.3-0.1-0.3-0.2v-1c0-0.3,0.2-0.4,0.5-0.4c1.5,0,2.5-0.1,3-0.2c0.5-0.1,0.7-0.3,0.8-0.5
		c0.1-0.1,0.1-0.4,0.2-0.7c0.2-0.9,0.2-2.4,0.2-4.5V78h-15.8v6.6c0,3.6,0.3,5.6,0.8,6c0.2,0.1,0.6,0.2,1.2,0.3s1.2,0.1,2,0.1
		c0.1,0,0.2,0,0.2,0c0.3,0,0.5,0.1,0.5,0.4v0.8c0,0.2-0.1,0.4-0.3,0.4H245c-0.1,0-0.2-0.1-0.2-0.3v-0.9c0-0.2,0.1-0.4,0.4-0.4
		c1.3,0,2.1,0,2.7-0.1c0.5-0.1,0.8-0.2,1-0.3c0.1-0.1,0.3-0.4,0.4-0.7C249.4,89,249.5,88,249.5,86.8z"/>
	<path class="st0" d="M290.4,76.1h8.1c1.6,0,2.6-0.2,3.1-0.7s0.7-1.4,0.7-2.9c0-0.6,0.2-0.8,0.5-0.8h0.8c0.2,0,0.4,0.2,0.4,0.5v9.6
		c0,0.3-0.1,0.5-0.4,0.5h-0.9c-0.2,0-0.3-0.2-0.3-0.6c0-1.4-0.2-2.4-0.6-2.9c-0.4-0.5-1.3-0.8-2.6-0.8h-8.8v6.5c0,2,0.1,4,0.2,6.1h7
		c2.4,0,4.1-0.2,5.2-0.5c0.6-0.2,1-0.4,1.1-0.7c0.2-0.3,0.3-0.8,0.4-1.4s0.1-1.3,0.1-2.2c0-0.4,0.1-0.6,0.3-0.6h1
		c0.2,0,0.3,0.1,0.3,0.4v6.6c0,0.2-0.1,0.3-0.3,0.3h-24.1c-0.2,0-0.3-0.1-0.3-0.4v-0.9c0-0.2,0.2-0.3,0.5-0.3c0.8,0,1.5-0.1,2.2-0.2
		c0.7-0.1,1.1-0.3,1.2-0.5s0.3-0.6,0.4-1.1c0.2-1.2,0.3-3,0.3-5.5V68.8c0-2.2-0.3-3.5-0.8-4c-0.5-0.5-1.6-0.7-3.2-0.7
		c-0.5,0-0.7-0.1-0.7-0.3v-1c0-0.2,0.2-0.3,0.5-0.3h22.9c0.4,0,0.5,0.2,0.5,0.5v5.4c0,0.4-0.1,0.6-0.2,0.6h-1
		c-0.2,0-0.4-0.2-0.4-0.5c0-1.6-0.2-2.7-0.6-3.2s-1.1-0.8-2-0.8h-10.6l-0.1,2l-0.1,2V76.1z"/>
	<path class="st0" d="M325.7,62h2l8.6,19.8c1.9,4.1,3,6.5,3.4,7.3c0.4,0.7,0.7,1.1,1.1,1.5c0.4,0.3,0.7,0.5,1.2,0.5h0.7
		c0.3,0,0.4,0.1,0.4,0.3v1l-0.2,0.2c0,0-0.1,0-0.1,0c-0.1,0.1-0.2,0.1-0.2,0.1h-11.8c-0.2,0-0.4-0.2-0.4-0.5v-0.8
		c0-0.2,0.1-0.4,0.4-0.4h1.3c1.5,0,2.2-0.5,2.2-1.6c0-0.5-0.2-1.1-0.5-1.9l-1.8-4.5h-13.2l-2.1,5.2c-0.2,0.4-0.3,0.8-0.3,1.2
		c0,1.1,0.7,1.6,2.1,1.6h1.1c0.3,0,0.5,0.2,0.5,0.5v0.8c0,0.2-0.1,0.4-0.3,0.4h-10.1c-0.2,0-0.2-0.2-0.2-0.5v-0.8
		c0-0.2,0.1-0.4,0.3-0.4h0.6c1.1,0,2.4-1.4,3.7-4.2L325.7,62z M325.5,67.6l-5.9,13.4h11.6L325.5,67.6z"/>
	<path class="st0" d="M343.4,62.6h26.3c0.3,0,0.5,0.1,0.5,0.4v7.4c0,0.3-0.1,0.5-0.3,0.5h-1c-0.1,0-0.2,0-0.2-0.1
		c0-0.1-0.1-0.3-0.1-0.6c-0.4-2.5-0.7-4-1-4.5c-0.3-0.5-0.9-0.7-1.9-0.7h-6.9v17.6c0,4.7,0.2,7.2,0.7,7.7c0.2,0.2,0.6,0.4,1.2,0.5
		c0.6,0.1,1.5,0.2,2.7,0.2c0.4,0,0.7,0.1,0.7,0.3v1.1c0,0.2-0.1,0.3-0.3,0.3h-14.3c-0.3,0-0.4-0.1-0.4-0.4v-0.8
		c0-0.3,0.2-0.4,0.5-0.4c1.2,0,2.1,0,2.7-0.1c0.6-0.1,1-0.2,1.2-0.4c0.2-0.2,0.4-0.6,0.6-1.3c0.3-1.3,0.4-2.9,0.4-4.9V65h-6.9
		c-0.8,0-1.3,0.1-1.6,0.4c-0.3,0.3-0.5,0.8-0.8,1.5c-0.2,0.7-0.4,1.7-0.6,3.1c-0.1,0.6-0.2,0.9-0.5,0.9h-0.8c-0.2,0-0.3-0.1-0.3-0.3
		v-7.4C343,62.8,343.1,62.6,343.4,62.6z"/>
	<path class="st0" d="M382.5,76.1h8.1c1.6,0,2.6-0.2,3.1-0.7s0.7-1.4,0.7-2.9c0-0.6,0.2-0.8,0.5-0.8h0.8c0.2,0,0.4,0.2,0.4,0.5v9.6
		c0,0.3-0.1,0.5-0.4,0.5h-0.9c-0.2,0-0.3-0.2-0.3-0.6c0-1.4-0.2-2.4-0.6-2.9c-0.4-0.5-1.3-0.8-2.6-0.8h-8.8v6.5c0,2,0.1,4,0.2,6.1h7
		c2.4,0,4.1-0.2,5.2-0.5c0.6-0.2,1-0.4,1.1-0.7c0.2-0.3,0.3-0.8,0.4-1.4s0.1-1.3,0.1-2.2c0-0.4,0.1-0.6,0.3-0.6h1
		c0.2,0,0.3,0.1,0.3,0.4v6.6c0,0.2-0.1,0.3-0.3,0.3h-24.1c-0.2,0-0.3-0.1-0.3-0.4v-0.9c0-0.2,0.2-0.3,0.5-0.3c0.8,0,1.5-0.1,2.2-0.2
		c0.7-0.1,1.1-0.3,1.2-0.5s0.3-0.6,0.4-1.1c0.2-1.2,0.3-3,0.3-5.5V68.8c0-2.2-0.3-3.5-0.8-4c-0.5-0.5-1.6-0.7-3.2-0.7
		c-0.5,0-0.7-0.1-0.7-0.3v-1c0-0.2,0.2-0.3,0.5-0.3h22.9c0.4,0,0.5,0.2,0.5,0.5v5.4c0,0.4-0.1,0.6-0.2,0.6h-1
		c-0.2,0-0.4-0.2-0.4-0.5c0-1.6-0.2-2.7-0.6-3.2s-1.1-0.8-2-0.8h-10.6l-0.1,2l-0.1,2V76.1z"/>
	<path class="st0" d="M410.1,78v6.7c0,3.6,0.2,5.6,0.7,5.9c0.2,0.1,0.6,0.2,1.2,0.3c0.6,0.1,1.4,0.1,2.4,0.1c0.4,0,0.5,0.1,0.5,0.3
		v1c0,0.2-0.1,0.3-0.4,0.3h-12.5c-0.2,0-0.3-0.1-0.3-0.3v-0.8c0-0.4,0.3-0.5,0.9-0.5c1.8,0,2.8-0.2,2.9-0.7c0.1-0.4,0.2-1.2,0.3-2.4
		c0.1-1.2,0.1-2.7,0.1-4.3V70.9c0-2.5-0.1-4.1-0.2-5c-0.1-0.8-0.4-1.3-0.8-1.5c-0.4-0.2-1.2-0.2-2.4-0.2c-0.6,0-0.8-0.2-0.8-0.5
		v-0.8c0-0.2,0.1-0.3,0.4-0.3h14.3c1.6,0,3.2,0.3,4.6,0.9s2.6,1.4,3.3,2.6c0.8,1.2,1.2,2.4,1.2,3.7c0,1.8-0.6,3.3-1.8,4.6
		c-1.2,1.3-2.9,2.2-5,2.8c2,3.1,3.9,6,5.7,8.7c1.9,2.7,3,4.2,3.6,4.6c0.3,0.2,0.8,0.4,1.4,0.4c0.5,0.1,0.7,0.2,0.7,0.5v0.8
		c0,0.2-0.2,0.4-0.5,0.4h-6.3c-0.2,0-0.4-0.3-0.7-0.9c-1.3-2.9-4.1-7.5-8.3-13.8L412,78H410.1z M410.1,64.2v12h0.6
		c3.4,0,5.9-0.5,7.5-1.6s2.4-2.6,2.4-4.8c0-1.2-0.3-2.2-0.8-3.1c-0.5-0.9-1.3-1.6-2.3-2s-2.6-0.6-4.7-0.6L410.1,64.2z"/>
</g>
</svg>
