<?xml version="1.0" encoding="utf-8"?>
<!-- Generator: Adobe Illustrator 24.0.0, SVG Export Plug-In . SVG Version: 6.00 Build 0)  -->
<svg version="1.1" id="Laag_1" xmlns="http://www.w3.org/2000/svg" xmlns:xlink="http://www.w3.org/1999/xlink" x="0px" y="0px"
	 width="34.2px" height="15.8px" viewBox="0 0 34.2 15.8" style="enable-background:new 0 0 34.2 15.8;" xml:space="preserve">
<style type="text/css">
	.st0{fill:#1D1D1B;}
</style>
<g>
	<path class="st0" d="M4.7,11.4c-0.2-0.1-0.4-0.2-0.7-0.2H3.7v1.5c0,1.7,0,1.8,0.2,2l0.1,0.1c0,0-0.3,0-0.8,0c-0.6,0-0.8,0-0.8,0
		l0.1-0.1c0.1-0.2,0.2-0.3,0.2-2v-1.4H2.1c-0.3,0-0.5,0.1-0.7,0.2c-0.2,0.1-0.2,0.2-0.2,0.2c0,0,0-0.2,0-0.5v-0.5h3.7v0.5
		c0,0.3,0,0.5,0,0.5C4.9,11.6,4.8,11.5,4.7,11.4z M6.2,9.4c0,0.2,0.1,0.3,0.3,0.3c0,0-0.2,0.3-0.5,0.3c-0.3,0-0.3-0.3-0.3-0.4
		c0-0.3,0.3-2.2,0.3-2.8c0-0.2,0-0.5-0.4-0.5c-0.4,0-0.7,0.2-1,0.8L4.4,8.1C4.2,9.6,4.2,10,4.2,10S4,10,3.8,10c-0.2,0-0.3,0-0.3,0
		s0.1-0.3,0.2-1.6C3.8,8,3.9,7.2,3.9,6.9c0-0.2,0-0.5-0.4-0.5c-0.4,0-0.7,0.2-1,0.8L2.3,8.1C2.2,9.6,2.1,10,2.1,10S2,10,1.8,10
		c-0.2,0-0.3,0-0.3,0s0.1-0.5,0.3-2c0.1-0.7,0.2-1.2,0.2-1.4c0-0.2-0.1-0.3-0.3-0.3c0,0,0.2-0.3,0.5-0.3c0.3,0,0.4,0.3,0.4,0.4
		c0,0.3-0.2,0.9-0.2,0.9c0.4-1.1,0.9-1.3,1.3-1.3c0.8,0,0.8,0.6,0.8,0.8c0,0.1-0.1,0.3-0.1,0.4c0.5-1.2,1-1.2,1.3-1.2
		c0.7,0,0.7,0.6,0.7,0.8C6.5,7.2,6.2,9.2,6.2,9.4z M4.6,5.4H4L2.6,3.4c0,1.6,0,1.6,0.2,1.8l0.1,0.1c0,0-0.2,0-0.6,0
		c-0.4,0-0.7,0-0.7,0l0.1-0.1c0.1-0.2,0.2-0.3,0.2-2c0-1.7,0-1.8-0.2-2L1.5,1.2c0,0,0.2,0,0.5,0c0.2,0,0.6,0,0.8,0
		c0.9,0,1.8,0.1,1.8,1.1c0,0.7-0.5,1.1-1.1,1.2l0.7,0.9c0.6,0.8,0.8,0.9,0.9,1C5.3,5.4,5.1,5.4,4.6,5.4z M2.9,1.6
		c-0.2,0-0.3,0-0.3,0v1.5c0,0,0.1,0,0.3,0c0.1,0,0.2,0,0.3,0c0.3-0.1,0.5-0.3,0.5-0.7C3.8,1.7,3.4,1.6,2.9,1.6z M11.5,12l-0.8,2.8
		c0,0-0.2,0-0.8,0c-0.6,0-0.8,0-0.8,0l-0.6-2.6c-0.1-0.2-0.1-0.4-0.1-0.5c0,0,0,0.2-0.1,0.5l-0.5,2.6c0,0-0.3,0-0.8,0
		c-0.6,0-0.9,0-0.9,0L5.5,12c-0.2-0.9-0.3-1.2-0.6-1.4c0,0,0.3,0,0.9,0c0.7,0,1,0,1,0c-0.1,0.1-0.2,0.2-0.2,0.4c0,0.2,0.1,0.5,0.2,1
		l0.4,1.9l0.1,0.4c0,0,0-0.2,0.1-0.4l0.7-3.3c0,0,0.2,0,0.7,0c0.5,0,0.7,0,0.7,0l0.7,3.2c0,0.2,0.1,0.4,0.1,0.4s0.1-0.3,0.1-0.4
		l0.4-1.9c0.1-0.4,0.2-0.8,0.2-1c0-0.2-0.1-0.3-0.2-0.4c0,0,0.3,0,0.8,0c0.5,0,0.8,0,0.8,0C11.9,10.8,11.8,11.1,11.5,12z M6.9,5.4
		c0,0-0.2,0-0.7,0c-0.5,0-0.7,0-0.7,0l0.1-0.1c0.1-0.2,0.2-0.3,0.2-2c0-1.7,0-1.8-0.2-2L5.6,1.2c0,0,0.2,0,0.7,0c0.5,0,0.7,0,0.7,0
		L6.9,1.3c-0.1,0.2-0.2,0.3-0.2,2C6.7,5,6.7,5.1,6.9,5.4L6.9,5.4z M9.4,1.3c-0.1,0.2-0.2,0.3-0.2,2v1c0,0.5,0,1.1-1.1,1.1
		c-0.5,0-0.7-0.1-0.7-0.1C8.2,5.2,8.3,5,8.3,4V3.2c0-1.7,0-1.8-0.2-2L8.1,1.2c0,0,0.2,0,0.7,0C9.2,1.2,9.4,1.2,9.4,1.3L9.4,1.3z
		 M10.5,6c0,0-0.1,0.4-0.3,2c-0.1,0.5-0.2,1.2-0.2,1.4c0,0.2,0,0.3,0.2,0.3c0,0-0.2,0.3-0.5,0.3c-0.3,0-0.3-0.3-0.3-0.4
		c0-0.3,0.1-0.9,0.1-0.9c-0.5,1.2-1,1.3-1.4,1.3c-0.7,0-0.7-0.6-0.7-0.8c0-0.5,0.3-2.4,0.3-2.7c0-0.2,0-0.3-0.2-0.3
		c0,0,0.2-0.3,0.5-0.3c0.3,0,0.4,0.3,0.4,0.4c0,0.3-0.3,2.3-0.3,2.8c0,0.2,0,0.5,0.4,0.5c0.4,0,0.7-0.3,1-0.8l0.1-0.8
		C9.9,6.4,9.9,6,9.9,6h0.3H10.5z M13.2,2.1l-0.9,1l1,1.3c0.6,0.7,0.8,0.9,0.9,1c0,0-0.2,0-0.7,0h-0.6l-1.5-2.1c0,1.7,0,1.8,0.2,2
		l0.1,0.1c0,0-0.2,0-0.7,0c-0.5,0-0.7,0-0.7,0l0.1-0.1c0.1-0.2,0.2-0.3,0.2-2c0-1.7,0-1.8-0.2-2l-0.1-0.1c0,0,0.2,0,0.7,0
		c0.5,0,0.7,0,0.7,0l-0.1,0.1c-0.1,0.2-0.2,0.3-0.2,2l1-1.1c0.3-0.4,0.5-0.5,0.5-0.7c0-0.1,0-0.2-0.1-0.2c0,0,0.2,0,0.7,0
		c0.6,0,0.8,0,0.8,0C14.1,1.2,13.8,1.5,13.2,2.1z M13.3,6.5c0,0.3,0,0.5,0,0.5c-0.2-0.4-0.3-0.7-0.9-0.7c-0.5,0-0.6,0.3-0.6,0.5
		c0,0.3,0.1,0.5,0.4,0.7l0.3,0.2c0.4,0.3,0.7,0.5,0.7,1.1C13.2,9.2,13,10,12,10c-0.7,0-1-0.2-1-0.2s0-0.1,0.1-0.4c0-0.3,0-0.5,0-0.5
		c0.2,0.3,0.3,0.7,0.9,0.7c0.5,0,0.7-0.4,0.7-0.6c0-0.3-0.2-0.5-0.4-0.7l-0.3-0.3c-0.4-0.3-0.6-0.6-0.6-1.1c0-0.6,0.4-1.1,1.2-1.1
		c0.6,0,1,0.2,1,0.2S13.4,6.3,13.3,6.5z M15.4,14.6l0,0.3h-2.5h-0.5l0.1-0.1c0.1-0.2,0.2-0.3,0.2-2c0-1.7,0-1.8-0.2-2l-0.1-0.1h0.5
		h2.5v0.5v0.5c0,0,0-0.1-0.2-0.2c-0.2-0.1-0.4-0.1-0.7-0.1h-0.6v1.1h0.4c0.3,0,0.5,0,0.7-0.1c0.2-0.1,0.2-0.1,0.2-0.2
		c0,0,0,0.2,0,0.6c0,0.4,0,0.6,0,0.6c0,0,0-0.1-0.2-0.2c-0.2-0.1-0.4-0.1-0.7-0.1h-0.4v1.1h0.5c0.8,0,0.9-0.2,1.1-0.5
		C15.5,13.6,15.5,13.9,15.4,14.6z M15.2,8.2c-0.4,0-0.7,0-0.7,0v0.2c0,0.6,0.1,1.2,0.9,1.2c0.7,0,1-0.4,1-0.5c0,0.3-0.2,1-1.2,1
		c-0.4,0-1.3-0.1-1.3-1.5c0-1.6,0.7-2.6,1.7-2.6c0.8,0,1.1,0.5,1.1,1C16.8,8,15.9,8.2,15.2,8.2z M15.6,5.4c-0.8,0-1.2-0.2-1.2-0.2
		s0-0.2,0-0.4c0-0.3,0-0.5,0-0.5c0.2,0.3,0.5,0.6,1.1,0.6c0.4,0,0.8-0.1,0.8-0.5c0-0.3-0.2-0.4-0.5-0.6l-0.5-0.3
		c-0.4-0.3-0.9-0.5-0.9-1.2c0-0.7,0.5-1.2,1.5-1.2c0.7,0,1.1,0.2,1.1,0.2v0.4v0.5c-0.3-0.4-0.5-0.6-1-0.6c-0.3,0-0.7,0.1-0.7,0.5
		c0,0.3,0.2,0.4,0.6,0.6l0.4,0.2c0.5,0.3,0.9,0.6,0.9,1.3C17.2,5.1,16.5,5.4,15.6,5.4z M15.6,6.3c-0.5,0-0.9,0.4-1,1.5
		c0,0,0.2,0,0.5,0c0.7,0,1-0.3,1-0.9C16.1,6.7,16.1,6.3,15.6,6.3z M20.4,10.7c-0.1,0.2-0.2,0.3-0.2,2v2.1c0,0-0.2,0-0.6,0
		c-0.5,0-0.9,0-0.9,0l-1.3-2.6c-0.1-0.2-0.2-0.4-0.2-0.5v1c0,1.7,0,1.8,0.2,2l0.1,0.1c0,0-0.2,0-0.7,0c-0.5,0-0.7,0-0.7,0l0.1-0.1
		c0.1-0.2,0.2-0.3,0.2-2c0-1.7,0-1.8-0.2-2l-0.1-0.1c0,0,0.3,0,0.9,0c0.5,0,0.8,0,0.8,0l1.3,2.6c0.1,0.3,0.2,0.5,0.2,0.5v-1
		c0-1.7,0-1.8-0.2-2l-0.1-0.1c0,0,0.2,0,0.7,0C20.3,10.6,20.5,10.6,20.4,10.7L20.4,10.7z M20.5,6c0,0-0.1,0.4-0.3,2
		C20.1,8.5,20,9.2,20,9.4c0,0.2,0,0.3,0.2,0.3c0,0-0.2,0.3-0.5,0.3c-0.3,0-0.4-0.3-0.4-0.4c0-0.3,0.1-0.9,0.1-0.9
		c-0.5,1.2-1,1.3-1.3,1.3c-0.8,0-0.8-0.6-0.8-0.8c0-0.5,0.3-2.4,0.3-2.7c0-0.2-0.1-0.3-0.3-0.3c0,0,0.2-0.3,0.5-0.3
		c0.3,0,0.4,0.3,0.4,0.4c0,0.3-0.4,2.3-0.4,2.8c0,0.2,0,0.5,0.4,0.5c0.4,0,0.7-0.3,1.1-0.8l0.1-0.8C19.8,6.4,19.8,6,19.8,6h0.3H20.5
		z M24.3,11.4c-0.2-0.1-0.4-0.2-0.7-0.2h-0.3v1.5c0,1.7,0,1.8,0.2,2l0.1,0.1c0,0-0.3,0-0.8,0c-0.6,0-0.8,0-0.8,0l0.1-0.1
		c0.1-0.2,0.2-0.3,0.2-2v-1.4h-0.3c-0.3,0-0.5,0.1-0.7,0.2c-0.2,0.1-0.2,0.2-0.2,0.2c0,0,0-0.2,0-0.5c0-0.3,0-0.5,0-0.5h3.7
		c0,0,0,0.2,0,0.5c0,0.3,0,0.5,0,0.5C24.5,11.6,24.5,11.5,24.3,11.4z M25.9,9.4c0,0.2,0.1,0.3,0.3,0.3c0,0-0.2,0.3-0.5,0.3
		c-0.3,0-0.4-0.3-0.4-0.4c0-0.3,0.3-2.2,0.3-2.8c0-0.2,0-0.5-0.4-0.5c-0.4,0-0.7,0.2-1,0.8L24,8.1c-0.2,1.5-0.2,1.9-0.2,1.9
		s-0.1,0-0.3,0c-0.2,0-0.3,0-0.3,0s0.1-0.3,0.2-1.6c0.1-0.4,0.2-1.2,0.2-1.5c0-0.2,0-0.5-0.4-0.5c-0.4,0-0.7,0.2-1,0.8L22,8.1
		c-0.2,1.5-0.2,1.9-0.2,1.9s-0.1,0-0.3,0c-0.2,0-0.3,0-0.3,0s0.1-0.5,0.3-2c0.1-0.7,0.1-1.2,0.1-1.4c0-0.2,0-0.3-0.2-0.3
		c0,0,0.2-0.3,0.6-0.3c0.3,0,0.4,0.3,0.4,0.4c0,0.3-0.2,0.9-0.2,0.9c0.4-1.1,0.9-1.3,1.3-1.3c0.8,0,0.8,0.6,0.8,0.8
		c0,0.1-0.1,0.3-0.1,0.4c0.5-1.2,1-1.2,1.3-1.2c0.7,0,0.8,0.6,0.8,0.8C26.2,7.2,25.9,9.2,25.9,9.4z M29.2,14.8c0,0-0.3,0-0.8,0
		c-0.6,0-0.8,0-0.8,0l0.1-0.1c0.1-0.2,0.2-0.3,0.2-1.7h-1.3c0,1.4,0,1.4,0.2,1.7l0.1,0.1c0,0-0.3,0-0.8,0c-0.6,0-0.8,0-0.8,0
		l0.1-0.1c0.1-0.2,0.2-0.3,0.2-2c0-1.7,0-1.8-0.2-2l-0.1-0.1c0,0,0.2,0,0.8,0c0.6,0,0.8,0,0.8,0l-0.1,0.1c-0.1,0.2-0.2,0.3-0.2,1.6
		h1.3c0-1.3,0-1.4-0.2-1.6l-0.1-0.1c0,0,0.2,0,0.8,0c0.6,0,0.8,0,0.8,0l-0.1,0.1c-0.1,0.2-0.2,0.3-0.2,2C29,14.4,29,14.5,29.2,14.8
		L29.2,14.8z M33.1,14.6l0,0.3h-2.5h-0.5l0.1-0.1c0.1-0.2,0.2-0.3,0.2-2c0-1.7,0-1.8-0.2-2l-0.1-0.1h0.5H33v0.5c0,0.3,0,0.5,0,0.5
		c0,0,0-0.1-0.2-0.2c-0.2-0.1-0.4-0.1-0.7-0.1h-0.6v1.1H32c0.3,0,0.5,0,0.7-0.1c0.2-0.1,0.2-0.1,0.2-0.2c0,0,0,0.2,0,0.6
		c0,0.4,0,0.6,0,0.6c0,0,0-0.1-0.2-0.2C32.5,13.1,32.3,13,32,13h-0.4v1.1h0.5c0.8,0,0.9-0.2,1.1-0.5C33.2,13.6,33.2,13.9,33.1,14.6z
		"/>
</g>
</svg>
