<?xml version="1.0" encoding="utf-8"?>
<!-- Generator: Adobe Illustrator 24.0.0, SVG Export Plug-In . SVG Version: 6.00 Build 0)  -->
<svg version="1.1" id="Laag_1" xmlns="http://www.w3.org/2000/svg" xmlns:xlink="http://www.w3.org/1999/xlink" x="0px" y="0px"
	 width="51.7px" height="68.2px" viewBox="0 0 51.7 68.2" style="enable-background:new 0 0 51.7 68.2;" xml:space="preserve">
<style type="text/css">
	.st0{fill:#3C4F8E;}
</style>
<g>
	<path class="st0" d="M8.9,41c0.8-1.1,1.2-2.1,1.2-2.9c0.1-1.2-0.4-2.2-1.6-3c-0.6-0.4-1.2-0.7-1.8-0.8c-0.5-0.1-1,0-1.5,0.2
		c-0.5,0.2-1.3,0.7-2.3,2.3l-2.3,3.3l8.8,6.1l0.1,0.1l1.7-2.5l-2.8-1.9L8.9,41z M7,39.5l-0.6,0.9L4.3,39l0.6-0.9
		c0.3-0.5,0.7-0.8,1-0.8c0.3-0.1,0.6,0,0.9,0.3C7.4,37.9,7.8,38.4,7,39.5z"/>
	<rect x="10.4" y="29.3" transform="matrix(0.765 -0.644 0.644 0.765 -19.5059 15.8438)" class="st0" width="3.1" height="10.8"/>
	<path class="st0" d="M23.9,30.6L20.9,31l0,0.1c0.1,0.7,0,1.2-0.1,1.6c-0.2,0.4-0.5,0.7-0.9,0.8c-0.6,0.2-1.2,0.1-1.7-0.3
		c-0.5-0.4-0.9-1.1-1.2-2c-0.3-0.9-0.4-1.7-0.3-2.3c0.1-0.6,0.5-1,1.1-1.2c0.4-0.2,0.8-0.1,1.2,0.1c0.4,0.2,0.7,0.6,1,1l0.1,0.1
		l2.4-1.8l-0.1-0.1c-0.6-0.9-1.3-1.5-2.1-1.8c-0.9-0.4-2.1-0.3-3.4,0.1c-1.4,0.5-2.4,1.3-2.9,2.4c-0.3,0.6-0.4,1.3-0.4,2
		c0,0.8,0.2,1.6,0.5,2.5c0.6,1.8,1.6,2.9,2.8,3.5c0.6,0.3,1.2,0.4,1.8,0.4c0.6,0,1.3-0.1,2-0.4c1.3-0.5,2.2-1.2,2.7-2.1
		c0.4-0.8,0.6-1.8,0.4-3L23.9,30.6z"/>
	<path class="st0" d="M24.1,22.7l0.5,11.5l2.6-1.1l-0.1-2.1l2.9-1.2l1.3,1.6l2.9-1.2l-7.6-8.6L24.1,22.7z M28.5,28.1l-1.6,0.6
		L26.8,26L28.5,28.1z"/>
	<path class="st0" d="M35.1,22.5L35.1,22.5c-0.9,0.6-1.6,1-2.1,0.6c-0.3-0.3-0.2-0.7,0.3-1.3c0.3-0.3,0.7-0.6,1.2-0.7
		c0.5-0.2,1-0.2,1.4-0.2l0.1,0l0.2-2.7l-0.1,0c-0.8,0-1.5,0-2.2,0.3c-0.9,0.3-1.7,0.8-2.4,1.6c-0.8,0.9-1.3,1.9-1.4,2.8
		c-0.1,1,0.3,1.9,1.1,2.6c0.6,0.5,1.2,0.8,1.8,0.8c0.2,0,0.5,0,0.8-0.1c0.9-0.2,1.7-0.8,2.4-1.2c0.1-0.1,0.2-0.1,0.2-0.2
		c0.9-0.6,1.6-1,2-0.6c0.2,0.2,0.3,0.4,0.2,0.7c-0.1,0.3-0.3,0.6-0.6,0.9c-0.7,0.8-1.8,1.1-3,0.9l-0.1,0l-0.5,2.6l0.1,0
		c0.4,0.1,0.8,0.1,1.1,0.1c0.5,0,1-0.1,1.5-0.2c0.9-0.3,1.8-0.9,2.6-1.7c1-1.1,1.6-2.2,1.6-3.3c0-1.1-0.6-1.9-1.1-2.4
		C38.6,20.1,36.6,21.5,35.1,22.5z"/>
	<path class="st0" d="M44.7,12.3c-2.3-0.8-3.6,1.2-4.6,2.7l0,0c-0.6,0.9-1.1,1.5-1.7,1.3c-0.4-0.1-0.5-0.6-0.2-1.3
		c0.1-0.4,0.4-0.8,0.8-1.1c0.4-0.3,0.8-0.6,1.2-0.7l0.1,0l-0.9-2.5l-0.1,0c-0.8,0.3-1.4,0.6-1.9,1.1c-0.7,0.6-1.2,1.4-1.6,2.4
		c-0.4,1.2-0.5,2.2-0.2,3.1c0.3,0.9,1,1.6,2,2c1,0.4,1.9,0.2,2.7-0.4c0.7-0.5,1.2-1.4,1.7-2.1c0.1-0.1,0.1-0.2,0.2-0.2
		c0.6-0.9,1.1-1.5,1.6-1.3c0.3,0.1,0.4,0.3,0.4,0.6c0,0.3,0,0.6-0.2,1c-0.4,1-1.2,1.8-2.4,2l-0.1,0l0.6,2.6l0.1,0
		c0.9-0.2,1.7-0.6,2.4-1.1c0.7-0.6,1.3-1.5,1.7-2.6c0.5-1.4,0.6-2.7,0.2-3.7C46.2,13,45.3,12.5,44.7,12.3z"/>
	<path class="st0" d="M48.1,3.2c-0.8-1.3-2.1-2.1-3.9-2.5c-1.8-0.4-3.3-0.1-4.5,0.8c-1,0.8-1.7,1.9-2,3.3c-0.3,1.4-0.1,2.7,0.6,3.8
		c0.4,0.6,0.9,1.1,1.5,1.5c0.7,0.4,1.5,0.8,2.4,0.9c0.5,0.1,1,0.1,1.4,0.1c0.4,0,0.8,0,1.1-0.1c0.7-0.1,1.4-0.4,1.9-0.9
		c1-0.8,1.7-1.9,2-3.3C48.9,5.6,48.7,4.3,48.1,3.2z M40.2,5.3c0.1-0.7,0.5-1.2,1.1-1.4c0.4-0.2,0.8-0.2,1.3-0.2c0.3,0,0.7,0,1,0.1
		c0.9,0.2,1.7,0.5,2.1,1c0.5,0.5,0.6,1.1,0.5,1.8c-0.3,1.4-1.6,2-3.5,1.6c-0.9-0.2-1.6-0.5-2.1-1C40.2,6.6,40.1,6,40.2,5.3z"/>
</g>
</svg>
