<?xml version="1.0" encoding="utf-8"?>
<!-- Generator: Adobe Illustrator 22.1.0, SVG Export Plug-In . SVG Version: 6.00 Build 0)  -->
<svg version="1.1" id="Laag_1" xmlns="http://www.w3.org/2000/svg" xmlns:xlink="http://www.w3.org/1999/xlink" x="0px" y="0px"
	 viewBox="0 0 199 171" style="enable-background:new 0 0 199 171;" xml:space="preserve">
<style type="text/css">
	.st0{fill:none;}
	.st1{fill:#FFFFFF;}
</style>
<g>
	<path class="st0" d="M40.2,61.9c-5.7,0-11.3,0-17,0c-3.3,0-5.3,2.2-5.3,6c0,13.4,0,26.8,0,40.1c0,3.7,1.9,6,5.1,6
		c5.8,0.1,11.5,0.1,17.3,0c3.2,0,5-2.3,5-6c0-6.7,0-13.4,0-20.1c0-6.7,0-13.5,0-20.2C45.3,64.2,43.4,62,40.2,61.9z"/>
	<path class="st0" d="M112.6,62.2c-5.7,0-11.3,0-17,0c-3.2,0-5,2.1-5,5.7c0,13.4,0,26.9,0,40.3c0,3.7,1.8,5.7,4.9,5.7
		c5.6,0,11.2,0,16.9,0c3.4,0,5.1-2,5.1-6c0-6.6,0-13.2,0-19.7c0-6.7,0-13.5,0-20.2C117.6,64.3,115.8,62.2,112.6,62.2z"/>
	<path class="st1" d="M84.4,151.6c-0.1-0.4-0.1-0.8-0.2-1.2c-0.8,0-1.5,0-2.2,0c0,6.9,0,13.8,0,20.6c0.8,0,1.6,0,2.5,0
		c0-2.2,0-4.3,0-6.6c2.9,2.4,5.7,2.8,8.5,0.7c2.6-1.9,3.8-5,3-8.4C94.1,149.3,89.8,148.6,84.4,151.6z M88.8,163.7
		c-2.5,0-4.6-2.6-4.6-5.6c0-2.9,2.1-5.4,4.6-5.4c2.6,0,4.6,2.4,4.7,5.5C93.6,161.1,91.4,163.7,88.8,163.7z"/>
	<g>
		<path class="st0" d="M112.6,62.2c-5.7,0-11.3,0-17,0c-3.2,0-5,2.1-5,5.7c0,13.4,0,26.9,0,40.3c0,3.7,1.8,5.7,4.9,5.7
			c5.6,0,11.2,0,16.9,0c3.4,0,5.1-2,5.1-6c0-6.6,0-13.2,0-19.7c0-6.7,0-13.5,0-20.2C117.6,64.3,115.8,62.2,112.6,62.2z"/>
		<path class="st0" d="M125.7,152.7c-2.6,0-4.6,2.3-4.7,5.3c-0.1,3.1,2,5.7,4.6,5.7c2.4,0,4.6-2.5,4.7-5.4
			C130.4,155.3,128.3,152.7,125.7,152.7z"/>
		<path class="st0" d="M40.2,61.9c-5.7,0-11.3,0-17,0c-3.3,0-5.3,2.2-5.3,6c0,13.4,0,26.8,0,40.1c0,3.7,1.9,6,5.1,6
			c5.8,0.1,11.5,0.1,17.3,0c3.2,0,5-2.3,5-6c0-6.7,0-13.4,0-20.1c0-6.7,0-13.5,0-20.2C45.3,64.2,43.4,62,40.2,61.9z"/>
		<path class="st1" d="M62.9,46c-0.2-2.3-1.7-4-3.6-4.2c-0.7-0.1-1.4-0.1-2.1-0.1c-11.2,0-22.4,0-33.6,0c-1.9,0-3.7-0.4-4.7-2.5
			C18.3,38,18,36.5,18,35.1c-0.1-9.8,0-19.6,0-29.4c0-3.2-1.6-5.2-4-5.3c-2.6-0.1-4.3,1.8-4.5,5c-0.2,2.9-1.9,5-4.4,5.3
			c-3.3,0.4-4.5,2-4.5,5.9c0,18.6,0,37.2,0,55.8c0,18.7,0,37.4,0,56.1c0,4,1.6,5.9,5.2,5.9c14.4,0,28.8,0,43.3,0
			c3.3,0,4.7-1.5,5.1-5.2c0.3-2.8,1.9-4.9,4.1-5.2c3.8-0.5,4.8-1.9,4.8-6.3c0-23.3,0-46.6,0-69.9C62.9,47.3,62.9,46.7,62.9,46z
			 M45.3,108.2c0,3.6-1.9,5.9-5,6c-5.8,0.1-11.5,0.1-17.3,0c-3.2,0-5.1-2.3-5.1-6c0-13.4,0-26.8,0-40.1c0-3.8,2-6,5.3-6
			c5.7,0,11.3,0,17,0c3.2,0,5.1,2.2,5.1,5.9c0,6.7,0,13.5,0,20.2C45.3,94.8,45.4,101.5,45.3,108.2z"/>
		<path class="st1" d="M130.2,41.4c-14.4,0-28.8,0-43.3,0c-3.5,0-5,1.6-5.4,5.6c-0.3,2.6-1.9,4.5-4.1,4.7c-3.6,0.5-4.9,2.1-4.9,6.2
			c0,11.8,0,23.5,0,35.3c0,11.8,0,23.5,0,35.3c0,4.2,1.6,6.1,5.3,6.1c14.4,0,28.7,0,43.1,0c3.7,0,5.1-1.4,5.5-5.6
			c0.3-2.6,1.9-4.5,4.1-4.8c3.6-0.5,4.9-2.1,4.9-6.2c0-23.5,0-47,0-70.5C135.6,43.4,133.9,41.4,130.2,41.4z M117.6,107.9
			c0,4-1.7,6-5.1,6c-5.6,0-11.2,0-16.9,0c-3.2,0-4.9-2-4.9-5.7c0-13.4,0-26.9,0-40.3c0-3.6,1.8-5.7,5-5.7c5.7,0,11.3,0,17,0
			c3.1,0,5,2.1,5,5.7c0,6.7,0,13.5,0,20.2C117.6,94.7,117.6,101.3,117.6,107.9z"/>
		<path class="st1" d="M165.7,62.8c0.8-0.4,1.8-0.5,2.7-0.5c8.5,0,17,0,25.6,0c3.3,0,5-2,5-5.8c0-3,0-6,0-9.1c0-3.8-1.7-5.8-5-5.8
			c-5.8,0-11.6,0-17.4,0s-11.6,0-17.4,0c-3.2,0-4.9,1.7-5.1,5.4c-0.2,2.7-1.9,4.7-4.2,5c-3.4,0.4-4.8,2.1-4.8,6.1c0,9.7,0,19.3,0,29
			c0,4.4,1.7,6.4,5.6,6.4c8.5,0,17,0,25.6,0c3,0,4.8,2,4.8,5.5c0,3,0,5.9,0,8.9c0,4.3-1.7,6.2-5.4,6.3c-8.6,0-17.1,0-25.7,0
			c-3.1,0-4.9,2.1-4.9,5.6c0,3.1,0,6.3,0,9.4c0,3.6,1.8,5.6,4.9,5.6c4.4,0,8.8,0,13.2,0c7.4,0,14.7,0,22.1,0c2.7,0,4.5-1.8,4.8-4.5
			c0.4-4.1,1.4-5.3,5-5.8c2.4-0.3,4-2.3,4-5c0-10.5,0-20.9,0-31.4c0-2.8-1.9-4.9-4.3-5c-1.2,0-2.3,0-3.5,0c-7.7,0-15.4,0-23,0
			c-3.3,0-5.1-2.1-5.1-5.9c0-3.1,0-6.3,0-9.4C163,65.4,163.9,63.7,165.7,62.8z"/>
		<path class="st1" d="M130.2,151.8c-4.7-2.7-8-2.3-10.3,1.1c-2.1,3.1-1.9,7.8,0.3,10.8c2.4,3.2,5.9,3.5,9.8,0.8
			c0.1,0.5,0.2,1,0.3,1.4c0.8,0,1.5,0,2.2,0c0-6.9,0-13.8,0-20.6c-0.8,0-1.5,0-2.3,0C130.2,147.4,130.2,149.6,130.2,151.8z
			 M125.7,163.7c-2.6,0-4.7-2.6-4.6-5.7c0.1-3,2.1-5.3,4.7-5.3c2.5,0,4.6,2.6,4.6,5.6C130.3,161.2,128.1,163.7,125.7,163.7z"/>
	</g>
	<path class="st1" d="M181.7,149.9c-3.7-0.6-7.2,2.4-7.8,6.8c-0.6,4.4,1.8,8.8,5.4,9.6c3.6,0.8,7.2-1.5,8-5.2
		c-1.3-0.1-2.4-0.2-3.5,1.2c-1.2,1.6-3,1.7-4.7,0.9c-1.5-0.7-2.3-2-2.6-4c3.8,0,7.5,0,11.3,0C188.2,154.3,185.6,150.5,181.7,149.9z
		 M176.7,156.6c0.2-2.2,1.8-3.8,3.8-3.9c2.3-0.2,3.9,1.2,4.5,3.9C182.2,156.6,179.5,156.6,176.7,156.6z"/>
	<path class="st1" d="M67.8,149.9c-3.5-0.8-7.1,1.8-8,5.8c-1,4.5,1.1,9,4.8,10.3c3.5,1.3,7.2-0.8,8.5-5c-1.4-0.2-2.5-0.3-3.6,1.1
		c-1.2,1.6-3.1,1.7-4.8,0.8c-1.4-0.8-2.3-2.3-2.2-4c3.7,0,7.4,0,11,0C74.1,154.6,71.7,150.8,67.8,149.9z M62.5,156.6
		c0.3-2.3,1.9-3.8,3.9-4c2.2-0.1,3.8,1.3,4.4,4C68,156.6,65.2,156.6,62.5,156.6z"/>
	<path class="st1" d="M30.4,149.8c-3.6-0.4-6.9,2.4-7.6,6.5c-0.7,4.4,1.6,8.8,5.1,9.8c3.6,1,7-1.1,8.2-5.1c-1.3-0.1-2.4-0.4-3.5,1.1
		c-1.1,1.6-2.9,1.8-4.5,1c-1.5-0.7-2.5-2-2.9-4.1c3.9,0,7.7,0,11.4,0C36.9,154,34.3,150.3,30.4,149.8z M25.6,156.6
		c0.3-2.2,1.8-3.8,3.8-3.9c2.3-0.2,3.9,1.2,4.5,3.9C31,156.6,28.3,156.6,25.6,156.6z"/>
	<path class="st1" d="M49.2,151.8c-3.4-2.3-6.2-2.5-8.6-0.6c-2.6,2.1-3.7,5.3-2.8,8.7c1.9,7.1,6.1,7.9,11.4,4.8
		c0.1,0.4,0.2,0.8,0.3,1.2c0.8,0,1.5,0,2.2,0c0-5.2,0-10.3,0-15.5C50.6,150.6,49.3,149.5,49.2,151.8z M44.8,163.7
		c-2.6,0-4.7-2.5-4.7-5.7c0-3,2.1-5.4,4.6-5.4c2.5,0,4.7,2.5,4.7,5.5C49.4,161.1,47.2,163.7,44.8,163.7z"/>
	<path class="st1" d="M21,155.3c-0.5-4-3.4-6.2-6.7-5c-0.7,0.3-1.4,0.8-2.2,1.2c0-2.2,0-4.3,0-6.2c-0.9,0-1.6,0-2.3,0
		c0,6.9,0,13.7,0,20.6c0.8,0,1.5,0,2.4,0c0-2,0-3.9,0-5.8c0-1.4,0-2.8,0.2-4.2c0.3-2.1,1.6-3.3,3.3-3.2c1.6,0.1,2.6,1.2,2.9,3.3
		c0.1,1,0.1,2,0.1,3.1c0,2.2,0,4.5,0,6.8c0.9,0,1.6,0,2.5,0c0-2.8,0-5.6,0-8.3C21.1,156.8,21.1,156.1,21,155.3z"/>
	<path class="st1" d="M110.6,149.8c-3.8,0-7,3.9-7,8.4c0.1,4.7,3.1,8.2,7.1,8.2c4,0,7-3.8,7-8.5
		C117.6,153.4,114.4,149.8,110.6,149.8z M110.6,163.6c-2.6,0-4.5-2.4-4.5-5.5c0-3.1,1.9-5.5,4.4-5.5c2.5,0,4.5,2.3,4.6,5.4
		C115.2,161.2,113.2,163.6,110.6,163.6z"/>
	<path class="st1" d="M143.9,156.3c0,1.3,0,2.7-0.2,4c-0.3,2.1-1.7,3.3-3.3,3.2c-1.6-0.1-2.7-1.3-2.9-3.5c-0.1-1-0.1-2-0.1-3.1
		c0-2.2,0-4.4,0-6.7c-0.9,0-1.6,0-2.4,0c0,3.6-0.2,7.2,0.1,10.7c0.3,3.5,2.5,5.5,5.5,5.2c1.1-0.1,2.2-0.8,3.3-1.3
		c0.2,1.9,1.4,0.7,2.4,0.9c0-5.2,0-10.3,0-15.5c-0.8,0-1.5,0-2.4,0C143.9,152.5,143.9,154.4,143.9,156.3z"/>
	<path class="st1" d="M158,154.2c1,1.5,2.1,1.4,3.4,1.2c-0.8-3.7-3.8-6-7.1-5.6c-3.6,0.4-6.4,4-6.5,8.2c0,3.9,2.6,7.7,5.8,8.2
		c3.9,0.6,6.9-1.5,7.8-5.5c-2.1-0.3-2.1-0.3-3.4,1.2c-1.7,2-4.4,2.1-6.2,0.2c-1.9-2.1-1.9-6,0-8.2C153.6,152.1,156.6,152,158,154.2z
		"/>
	<path class="st1" d="M194.7,157c-0.8-0.5-1.8-0.7-2.5-1.3c-0.4-0.3-0.7-1.2-0.6-1.8c0.1-0.5,0.6-1.2,1-1.3c0.5-0.1,1.4,0.1,1.6,0.5
		c0.7,1.7,1.7,1.2,2.8,1.1c-0.2-2.7-1.4-4.2-3.4-4.3c-2.1-0.2-3.8,1.3-4.3,3.5c-0.5,2.3,0.4,4.3,2.4,5.2c0.7,0.4,1.5,0.6,2.2,1.1
		c0.9,0.5,1.4,1.5,1,2.6c-0.3,0.7-1,1.5-1.5,1.5c-0.7,0-1.4-0.7-2-1.3c-0.3-0.3-0.3-0.9-0.5-1.4c-0.7,0-1.4,0-2,0
		c-0.1,2.7,1.2,4.9,3.1,5.3c2.4,0.5,4.5-0.7,5.2-3.2C197.7,160.6,196.8,158.2,194.7,157z"/>
	<path class="st1" d="M57.2,145.3c-0.9,0-1.6,0-2.5,0c0,1.7,0,3.3,0,4.9c-0.7,0.1-1.2,0.2-1.8,0.2c0,0.8,0,1.5,0,2.3
		c0.6,0.1,1.2,0.2,1.9,0.3c0,4.3,0,8.6,0,12.9c0.9,0,1.6,0,2.4,0c0-4.4,0-8.6,0-12.8c0.7-0.1,1.3-0.3,1.9-0.4c0-0.9,0-1.5,0-2.2
		c-0.6-0.1-1.2-0.2-1.9-0.3C57.2,148.5,57.2,146.9,57.2,145.3z"/>
	<path class="st1" d="M166.6,145.3c-0.8,0-1.5,0-2.4,0c0,1.7,0,3.3,0,5c-0.7,0.1-1.2,0.1-1.8,0.2c0,0.8,0,1.5,0,2.3
		c0.6,0.1,1.1,0.2,1.9,0.3c0,4.3,0,8.6,0,12.9c0.9,0,1.6,0,2.4,0c0-4.3,0-8.6,0-12.9c0.7-0.1,1.3-0.2,1.8-0.3c0-0.8,0-1.5,0-2.3
		c-0.7-0.1-1.2-0.2-1.9-0.3C166.6,148.4,166.6,146.9,166.6,145.3z"/>
	<path class="st1" d="M6.5,145.3c-0.9,0-1.6,0-2.5,0c0,1.7,0,3.3,0,4.9c-0.7,0.1-1.2,0.1-1.8,0.2c0,0.8,0,1.6,0,2.3
		c0.6,0.1,1.2,0.2,1.8,0.3c0,4.3,0,8.5,0,12.9c0.9,0,1.6,0,2.5,0c0-4.4,0-8.6,0-12.9c0.7-0.1,1.3-0.2,1.8-0.3c0-0.8,0-1.6,0-2.3
		c-0.6-0.1-1.2-0.2-1.9-0.3C6.5,148.5,6.5,146.9,6.5,145.3z"/>
	<path class="st1" d="M75.4,150.4c0,5.2,0,10.4,0,15.5c0.8,0,1.5,0,2.3,0c0-2.8,0-5.4,0-8.1c0-3.3,0.4-3.8,2.9-5c0-0.9,0-1.8,0-3
		c-1.1,0.6-2,1.1-2.9,1.6C77.4,149.6,76.3,150.5,75.4,150.4z"/>
	<path class="st1" d="M100.1,151.4c-0.3-1.9-1.4-0.8-2.3-1c0,5.2,0,10.3,0,15.5c0.8,0,1.5,0,2.4,0c0-0.7,0-1.2,0-1.8
		c0-2.4,0-4.8,0-7.3c0-1.4,0.2-3,1.5-3.3c1.8-0.5,1.6-1.7,1.4-3.7C102,150.4,101.1,150.9,100.1,151.4z"/>
	<path class="st1" d="M169.9,165.9c0.8,0,1.5,0,2.3,0c0-5.2,0-10.3,0-15.5c-0.8,0-1.5,0-2.3,0C169.9,155.7,169.9,160.7,169.9,165.9z
		"/>
	<path class="st1" d="M169.9,145.3c0,1.2,0,2.1,0,3.1c0.8,0,1.5,0,2.3,0c0-1.1,0-2.1,0-3.1C171.4,145.3,170.7,145.3,169.9,145.3z"/>
</g>
</svg>
