<?xml version="1.0" encoding="utf-8"?>
<!-- Generator: Adobe Illustrator 24.0.0, SVG Export Plug-In . SVG Version: 6.00 Build 0)  -->
<svg version="1.1" id="Laag_1" xmlns="http://www.w3.org/2000/svg" xmlns:xlink="http://www.w3.org/1999/xlink" x="0px" y="0px"
	 width="256.8px" height="117px" viewBox="0 0 256.8 117" style="enable-background:new 0 0 256.8 117;" xml:space="preserve">
<style type="text/css">
	.st0{fill:#FAF5EF;}
</style>
<g>
	<polygon class="st0" points="49.6,43.2 59.5,43.2 59.5,2.8 51.3,2.8 40.9,6.8 40.9,15.5 49.6,12.7 	"/>
	<polygon class="st0" points="74,43.2 83.8,43.2 83.8,2.8 75.6,2.8 65.2,6.8 65.2,15.5 74,12.7 	"/>
	<path class="st0" d="M3.5,72.7v2.1H0v7.5h3.5V105h9.7V82.3h5.4v-7.5h-5.4V73c0-1.7,0.7-2.5,2.6-2.5H19v-7.6h-5.7
		C6.1,62.9,3.5,66,3.5,72.7z"/>
	<path class="st0" d="M36.1,105.7c6.9,0,12.4-4.1,13.5-9.7H41c-0.6,1.5-2.2,2.9-4.9,2.9c-3.4,0-5.2-2.3-5.2-5.3v-0.7h18.8v-5.5
		c0-7.2-4.7-13.3-13.9-13.3s-14.3,5.8-14.3,14.2v3.8C21.5,100.7,27.4,105.7,36.1,105.7z M30.9,86.7c0-3.5,1.5-5.7,5-5.7
		c3.4,0,4.9,2.3,4.9,5.3v1.1h-9.9C30.9,87.4,30.9,86.7,30.9,86.7z"/>
	<path class="st0" d="M86,87.3c0-7-4.3-13.2-12.8-13.2c-3.6,0-6.6,1.7-7.9,3.2V62.9h-9.7V105h9.2v-3.2c0.9,1.7,4.2,3.9,8.3,3.9
		c8.5,0,12.8-6.2,12.8-13.2L86,87.3L86,87.3z M76.3,91.9c0,3.5-1.7,5.9-5.5,5.9c-2.9,0-5.4-1.9-5.4-5.7v-4.3c0-3.8,2.5-5.7,5.4-5.7
		c3.8,0,5.5,2.3,5.5,5.9V91.9z"/>
	<polygon class="st0" points="117.2,99.4 144.1,17.6 139.8,17.6 112.7,99.4 	"/>
	<path class="st0" d="M218.2,35.2h-16.6L210,28c4.4-3.7,8.6-7.5,8.6-13.7c0-7.5-5.8-12.4-14.5-12.4C195.4,2,190,6.3,190,14.8V16h9.4
		v-0.8c0-3.2,1.5-5.2,4.8-5.2c2.7,0,4.7,1.6,4.7,4.4c0,2.3-1.3,4.1-3.3,6.1l-15.9,15.2V43h28.7v-7.9H218.2z"/>
	<polygon class="st0" points="250.5,27.8 250.5,19.7 241.5,19.7 241.5,27.8 233.2,27.8 244.4,2.8 235.5,2.8 223.7,28.1 223.7,35.2 
		241.5,35.2 241.5,43.2 250.5,43.2 250.5,35.2 255.4,35.2 255.4,27.8 	"/>
	<path class="st0" d="M178.6,62.1c-3.2,0-5.4,2-5.4,5s2.1,5,5.4,5c3.2,0,5.4-2,5.4-5S181.8,62.1,178.6,62.1z"/>
	<path class="st0" d="M173.7,106.4c0,1.1-0.6,1.4-1.6,1.4h-1.7v7.3h4.8c5.4,0,8.3-2.5,8.3-7.6V74.7h-9.8V106.4z"/>
	<path class="st0" d="M205.3,74.2c-7.1,0-12.2,3.6-13.5,9.7h8.8c0.8-1.5,2.4-2.2,4.4-2.2c2.7,0,4.2,1.7,4.2,3.9V89
		c-1.5-1.2-4.3-2.3-7.9-2.3c-7,0-11.7,3.2-11.7,9.4c0,5.5,4.2,9.5,11.1,9.5c3.9,0,7.2-1.2,8.9-3.2v2.5h9.3V86.3
		C218.9,78.9,213.9,74.2,205.3,74.2z M203.9,99.5c-3.1,0-5.3-1.2-5.3-3.5c0-2.4,2.1-3.5,5.4-3.5c3,0,5.2,1.5,5.2,3.5
		S206.9,99.5,203.9,99.5z"/>
	<path class="st0" d="M243.3,74.2c-3.9,0-6.9,1.4-8.4,4.2v-3.5h-9.3v30.2h9.7V87.2c0-3.5,2.1-4.6,4.6-4.6c2.9,0,4.4,1.7,4.4,4.5v18
		h9.7V85.6C253.9,78.5,250.2,74.2,243.3,74.2z"/>
</g>
</svg>
