<?xml version="1.0" encoding="utf-8"?>
<!-- Generator: Adobe Illustrator 22.1.0, SVG Export Plug-In . SVG Version: 6.00 Build 0)  -->
<svg version="1.1" id="Laag_1" xmlns="http://www.w3.org/2000/svg" xmlns:xlink="http://www.w3.org/1999/xlink" x="0px" y="0px"
	 viewBox="0 0 188 39" style="enable-background:new 0 0 188 39;" xml:space="preserve">
<g>
	<path d="M58.3,19.4c0,1.5-0.2,2.8-0.5,4.2c-0.4,1.3-0.9,2.5-1.5,3.6c-0.9,1.4-2,2.4-3.3,3.2c-1.4,0.7-2.9,1.1-4.7,1.1h-9.5V7.6h9.6
		c1.5,0,2.9,0.3,4.1,0.8c1.2,0.6,2.3,1.3,3.2,2.3c0.9,1,1.5,2.2,2,3.7C58.1,16,58.3,17.6,58.3,19.4z M55,19.3c0-2.8-0.6-5-1.9-6.6
		c-1.2-1.5-3-2.3-5.3-2.3h-6v18.3h6.2c2.2,0,3.9-0.8,5.1-2.5C54.4,24.5,55,22.2,55,19.3z"/>
	<path d="M64.3,23.7c0,0.7,0.1,1.2,0.1,1.5c0,0.3,0.1,0.7,0.2,1.1c0.3,1,0.9,1.8,1.7,2.3c0.8,0.6,1.8,0.8,2.9,0.8
		c0.6,0,1.2-0.1,1.7-0.2c0.5-0.2,1-0.4,1.4-0.7c0.4-0.3,0.7-0.7,1-1.1c0.3-0.4,0.4-0.9,0.5-1.4h2.9c-0.4,1.9-1.2,3.3-2.5,4.4
		c-1.3,1-3,1.6-4.9,1.6c-2.5,0-4.5-0.8-5.9-2.3c-1.4-1.6-2.1-3.7-2.1-6.5c0-1.5,0.2-2.8,0.6-3.9c0.4-1.2,0.9-2.2,1.6-3
		c0.7-0.8,1.6-1.5,2.6-1.9c1-0.4,2.2-0.7,3.4-0.7c2.8,0,4.8,1.1,6.1,3.4c0.5,0.8,0.8,1.6,1,2.3c0.1,0.3,0.2,0.6,0.2,0.9
		c0,0.3,0.1,0.5,0.1,0.8c0,0.3,0.1,0.7,0.1,1.1c0,0.4,0.1,0.9,0.1,1.5H64.3z M73.9,21.4c-0.1-0.6-0.1-1-0.2-1.3
		c-0.1-0.3-0.1-0.6-0.3-1c-0.3-0.9-0.9-1.6-1.6-2.1c-0.7-0.5-1.6-0.7-2.6-0.7c-1.4,0-2.6,0.5-3.5,1.4c-0.9,0.9-1.4,2.2-1.5,3.8H73.9
		z"/>
	<path d="M93.6,26.2c0,0.9-0.2,1.6-0.5,2.3c-0.3,0.7-0.8,1.3-1.4,1.8c-0.6,0.5-1.4,0.9-2.2,1.1c-0.9,0.3-1.9,0.4-2.9,0.4
		c-2.3,0-4.1-0.5-5.4-1.6c-0.6-0.5-1-1.1-1.3-1.7c-0.3-0.7-0.5-1.6-0.5-2.7h2.8c0,0.5,0.1,0.8,0.1,1.1c0.1,0.2,0.2,0.5,0.3,0.8
		c0.3,0.5,0.8,0.9,1.5,1.2c0.7,0.3,1.5,0.4,2.5,0.4c1.3,0,2.2-0.2,3-0.7c0.7-0.5,1.1-1.2,1.1-2c0-0.3-0.1-0.6-0.2-0.8
		c-0.1-0.2-0.3-0.5-0.6-0.6c-0.3-0.2-0.6-0.4-1.1-0.5c-0.4-0.2-1-0.3-1.7-0.5l-3.4-0.8c-1.4-0.3-2.4-0.8-3-1.5c-0.6-0.7-1-1.6-1-2.7
		c0-0.8,0.2-1.6,0.5-2.2c0.3-0.7,0.8-1.3,1.3-1.7c0.6-0.5,1.3-0.9,2.1-1.1c0.8-0.3,1.7-0.4,2.7-0.4c2,0,3.5,0.5,4.7,1.4
		c1.1,0.9,1.8,2.3,1.9,4h-2.8c-0.1-1-0.4-1.7-1.1-2.2c-0.6-0.5-1.6-0.7-2.9-0.7c-1.1,0-2,0.2-2.6,0.7c-0.6,0.4-0.9,1-0.9,1.8
		c0,0.3,0,0.5,0.1,0.7c0.1,0.2,0.2,0.4,0.4,0.5c0.2,0.2,0.4,0.3,0.8,0.4c0.3,0.1,0.7,0.3,1.3,0.4l0.6,0.2l2.9,0.7
		c1.8,0.4,3,1,3.8,1.7C93.3,24,93.6,25,93.6,26.2z"/>
	<path d="M97,11V7.6h2.9V11H97z M97,31.4V14.1h2.9v17.3H97z"/>
	<path d="M118.7,30c0,1.1-0.1,2.1-0.2,2.8c-0.1,0.7-0.3,1.5-0.6,2.2c-0.6,1.2-1.4,2.1-2.7,2.8c-1.2,0.7-2.7,1-4.4,1
		c-0.9,0-1.8-0.1-2.5-0.3c-0.7-0.2-1.4-0.5-2-0.9c-0.3-0.2-0.6-0.4-0.8-0.6c-0.2-0.2-0.4-0.5-0.6-0.8c-0.2-0.3-0.3-0.6-0.4-1
		s-0.2-0.9-0.4-1.5h2.9c0.3,1,0.7,1.7,1.3,2.1c0.6,0.4,1.5,0.6,2.6,0.6c1.7,0,3-0.5,3.8-1.5c0.4-0.5,0.7-1.1,0.8-1.8
		c0.2-0.7,0.2-1.6,0.2-2.9v-0.7h-0.1c-0.2,0.4-0.4,0.8-0.6,0.9c-0.2,0.2-0.5,0.4-0.8,0.6c-0.9,0.6-2,0.9-3.2,0.9
		c-1.1,0-2.2-0.2-3.1-0.7c-0.9-0.5-1.7-1.1-2.4-1.9c-0.7-0.8-1.2-1.8-1.5-3c-0.4-1.2-0.5-2.5-0.5-3.9c0-1.3,0.2-2.5,0.5-3.6
		c0.3-1.1,0.8-2,1.5-2.7c0.6-0.8,1.4-1.4,2.2-1.8c0.9-0.4,1.8-0.6,2.9-0.6c1.4,0,2.5,0.4,3.5,1.1c0.3,0.2,0.6,0.5,0.8,0.7
		c0.2,0.2,0.5,0.6,0.9,1.2h0.1v-2.4h2.7V30z M115.9,23.1c0-2.3-0.4-4-1.2-5.2c-0.8-1.2-2-1.8-3.6-1.8c-1.5,0-2.7,0.5-3.4,1.6
		c-0.8,1-1.2,2.6-1.2,4.7c0,2.2,0.4,3.9,1.2,5.1c0.8,1.2,2,1.8,3.5,1.8c1.5,0,2.7-0.5,3.5-1.6S115.9,25.1,115.9,23.1z"/>
	<path d="M133.9,31.4V20.7c0-1.6-0.3-2.7-0.8-3.5c-0.6-0.7-1.5-1.1-2.8-1.1c-1.5,0-2.6,0.5-3.4,1.5c-0.8,1-1.2,2.4-1.2,4.2v9.4h-2.9
		V14.1h2.7v2.4h0.1c0.7-1,1.5-1.8,2.4-2.2c0.8-0.5,1.9-0.7,3-0.7c1.9,0,3.3,0.5,4.3,1.6c1,1,1.5,2.5,1.5,4.4v11.8H133.9z"/>
</g>
</svg>
