<?xml version="1.0" encoding="utf-8"?>
<!-- Generator: Adobe Illustrator 22.1.0, SVG Export Plug-In . SVG Version: 6.00 Build 0)  -->
<svg version="1.1" id="Laag_1" xmlns="http://www.w3.org/2000/svg" xmlns:xlink="http://www.w3.org/1999/xlink" x="0px" y="0px"
	 width="155.5px" height="52.8px" viewBox="0 0 155.5 52.8" style="enable-background:new 0 0 155.5 52.8;" xml:space="preserve">
<style type="text/css">
	.st0{clip-path:url(#SVGID_2_);}
	.st1{fill:#EAEDE1;}
	.st2{font-family:'Moderat-Bold';}
	.st3{font-size:3.488px;}
	.st4{clip-path:url(#SVGID_4_);}
	.st5{font-family:'Moderat-Regular';}
	.st6{font-size:9.2429px;}
</style>
<g>
	<defs>
		<rect id="SVGID_1_" x="0.5" width="151" height="15.7"/>
	</defs>
	<clipPath id="SVGID_2_">
		<use xlink:href="#SVGID_1_"  style="overflow:visible;"/>
	</clipPath>
	<g class="st0">
		<text transform="matrix(1 0 0 1 0.334 4.4019)" class="st1 st2 st3">ME</text>
	</g>
</g>
<text transform="matrix(1 0 0 1 5.1123 4.4019)" class="st1 st2 st3">T</text>
<g>
	<defs>
		<rect id="SVGID_3_" x="0.5" width="151" height="15.7"/>
	</defs>
	<clipPath id="SVGID_4_">
		<use xlink:href="#SVGID_3_"  style="overflow:visible;"/>
	</clipPath>
	<g class="st4">
		<text transform="matrix(1 0 0 1 9.5977 6.5625)" class="st1 st5 st6">HAN</text>
	</g>
	<g class="st4">
		<text transform="matrix(1 0 0 1 27.52 6.5625)" class="st1 st5 st6">S C</text>
	</g>
	<g class="st4">
		<text transform="matrix(1 0 0 1 41.7354 6.5625)" class="st1 st5 st6">RO</text>
	</g>
	<g class="st4">
		<text transform="matrix(1 0 0 1 53.8901 6.5625)" class="st1 st5 st6">ISE</text>
	</g>
	<g class="st4">
		<text transform="matrix(1 0 0 1 65.9336 6.5625)" class="st1 st5 st6">T</text>
	</g>
	<g class="st4">
		<text transform="matrix(1 0 0 1 9.5977 15.5742)" class="st1 st5 st6">EL</text>
	</g>
	<g class="st4">
		<text transform="matrix(1 0 0 1 18.9424 15.5742)" class="st1 st5 st6">SIE DE BRA</text>
	</g>
	<g class="st4">
		<text transform="matrix(1 0 0 1 63.0586 15.5742)" class="st1 st5 st6">UW</text>
	</g>
	<g class="st4">
		<text transform="matrix(1 0 0 1 77.126 15.5742)" class="st1 st5 st6"> </text>
	</g>
	<g class="st4">
		<text transform="matrix(1 0 0 1 118.0264 6.5625)" class="st1 st5 st6">JOHAN</text>
	</g>
	<g class="st4">
		<text transform="matrix(1 0 0 1 147.8252 6.5625)" class="st1 st5 st6"> </text>
	</g>
	<g class="st4">
		<text transform="matrix(1 0 0 1 118.0264 15.5742)" class="st1 st5 st6">SIMON</text>
	</g>
	<g class="st4">
		<text transform="matrix(1 0 0 1 146.5039 15.5742)" class="st1 st5 st6">S</text>
	</g>
</g>
<text transform="matrix(1 0 0 1 106.4414 4.4019)" class="st1 st2 st3">RE</text>
<text transform="matrix(1 0 0 1 110.1562 4.4019)" class="st1 st2 st3">GI</text>
<text transform="matrix(1 0 0 1 113.5361 4.4019)" class="st1 st2 st3">E</text>
<g>
	<path class="st1" d="M2.2,34.5v-4.9H0.9v-0.8h0.6c0.5,0,0.8-0.3,0.8-0.8v-0.3h0.9v6.8H2.2z"/>
	<path class="st1" d="M9.2,33.8c-0.5,0.6-1.1,0.9-1.8,0.9S6,34.4,5.5,33.8c-0.5-0.6-0.7-1.5-0.7-2.6c0-1.1,0.2-2,0.7-2.6
		s1.1-0.9,1.8-0.9s1.4,0.3,1.8,0.9c0.5,0.6,0.7,1.5,0.7,2.6C9.9,32.3,9.6,33.2,9.2,33.8z M6.3,33.1c0.3,0.4,0.6,0.7,1.1,0.7
		c0.4,0,0.8-0.2,1.1-0.7c0.3-0.4,0.4-1.1,0.4-1.9s-0.1-1.5-0.4-2c-0.3-0.4-0.6-0.7-1.1-0.7c-0.4,0-0.8,0.2-1.1,0.7
		c-0.3,0.4-0.4,1.1-0.4,2C5.9,32,6,32.7,6.3,33.1z"/>
	<path class="st1" d="M13.7,30.8h3.8v0.8h-3.8V30.8z"/>
	<path class="st1" d="M22.4,34.5v-4.9h-1.3v-0.8h0.6c0.5,0,0.8-0.3,0.8-0.8v-0.3h0.9v6.8H22.4z"/>
	<path class="st1" d="M27.8,31.8c-1,0.6-1.5,1.3-1.6,1.9h3.2v0.9H25v-0.4c0-1.1,0.6-2.1,1.9-2.9c0.7-0.4,1.1-0.8,1.3-0.9
		c0.2-0.2,0.4-0.5,0.4-0.8c0-0.3-0.1-0.6-0.3-0.8c-0.2-0.2-0.5-0.3-0.9-0.3c-0.4,0-0.8,0.1-1,0.4c-0.2,0.3-0.3,0.6-0.4,1h-1
		c0-0.4,0.1-0.7,0.2-1.1c0.2-0.3,0.4-0.6,0.8-0.9c0.4-0.2,0.8-0.4,1.3-0.4c0.6,0,1.1,0.2,1.6,0.5c0.4,0.4,0.6,0.8,0.6,1.4
		c0,0.5-0.1,0.9-0.4,1.2C28.8,31.1,28.3,31.4,27.8,31.8z"/>
	<path class="st1" d="M34.3,32.4c0,0.4,0.2,0.7,0.4,0.9c0.2,0.2,0.5,0.4,0.9,0.4c0.4,0,0.7-0.1,0.9-0.4c0.2-0.3,0.4-0.6,0.4-1.1
		v-5.1h1v5.2c0,0.7-0.2,1.3-0.6,1.7c-0.4,0.4-1,0.6-1.6,0.6c-0.7,0-1.3-0.2-1.7-0.6c-0.4-0.4-0.6-1-0.6-1.6H34.3z"/>
	<path class="st1" d="M43.8,34.5l-0.6-1.9h-3l-0.6,1.9h-1.1l2.6-7.5h1.3l2.5,7.5H43.8z M40.4,31.8h2.5l-1.2-3.6h-0.1L40.4,31.8z"/>
	<path class="st1" d="M51,27.1h1v7.5h-1.1L47,28.8h-0.1v5.8h-1v-7.5h1.1l3.8,5.8H51V27.1z"/>
</g>
<g>
	<path class="st1" d="M5.1,41.2c-2.1,0-3.8,1.7-3.8,3.8c0,1.6,2.5,4.8,3.8,6.2c1.3-1.4,3.8-4.6,3.8-6.2C8.8,42.9,7.1,41.2,5.1,41.2
		 M5.1,52.3L4.8,52c-0.2-0.2-4.3-4.6-4.3-7.1c0-2.5,2-4.5,4.5-4.5s4.5,2,4.5,4.5c0,2.4-4.1,6.9-4.3,7.1L5.1,52.3z"/>
	<path class="st1" d="M5.1,43.2c-0.9,0-1.6,0.7-1.6,1.6c0,0.9,0.7,1.6,1.6,1.6c0.9,0,1.6-0.7,1.6-1.6C6.7,43.9,6,43.2,5.1,43.2
		 M5.1,44c0.5,0,0.9,0.4,0.9,0.9s-0.4,0.8-0.9,0.8c-0.5,0-0.8-0.4-0.8-0.8S4.6,44,5.1,44"/>
	<g>
		<path class="st1" d="M18.7,41.5v0.9h-2.2v6.6h-1v-6.6h-2.2v-0.9H18.7z"/>
		<path class="st1" d="M25.2,48.9h-1.1l-1.8-3h0h-1.4v3h-0.9v-7.5h2.5c0.7,0,1.3,0.2,1.8,0.6c0.4,0.4,0.7,0.9,0.7,1.6
			c0,0.5-0.1,0.9-0.4,1.3c-0.3,0.4-0.7,0.6-1.1,0.8L25.2,48.9z M20.9,42.4V45h1.4c0.5,0,0.9-0.1,1.1-0.4c0.3-0.2,0.4-0.6,0.4-1
			c0-0.4-0.1-0.7-0.4-1c-0.3-0.2-0.7-0.3-1.1-0.3H20.9z"/>
		<path class="st1" d="M34.2,47.1c0,0.6-0.2,1.1-0.7,1.5c-0.5,0.3-1.1,0.5-1.8,0.5c-0.9,0-1.5-0.2-2-0.7c-0.5-0.4-0.7-1-0.7-1.7h1
			c0,0.4,0.2,0.8,0.4,1.1c0.3,0.3,0.7,0.4,1.3,0.4c0.4,0,0.8-0.1,1.1-0.3c0.3-0.2,0.4-0.5,0.4-0.8c0-0.3-0.1-0.6-0.4-0.9
			c-0.3-0.2-0.7-0.5-1.4-0.7c-0.7-0.2-1.2-0.5-1.6-0.8c-0.4-0.3-0.6-0.7-0.6-1.3c0-0.6,0.2-1.1,0.7-1.5c0.4-0.4,1-0.6,1.7-0.6
			c0.8,0,1.4,0.2,1.8,0.6c0.4,0.4,0.7,0.9,0.7,1.5h-0.9c0-0.4-0.2-0.7-0.4-0.9c-0.3-0.3-0.6-0.4-1.1-0.4c-0.4,0-0.7,0.1-1,0.3
			c-0.2,0.2-0.4,0.5-0.4,0.8c0,0.3,0.1,0.6,0.4,0.8c0.3,0.2,0.7,0.4,1.3,0.6c0.8,0.3,1.4,0.6,1.7,0.9C34,46,34.2,46.5,34.2,47.1z"/>
		<path class="st1" d="M42,46.7c-0.1,0.7-0.5,1.3-1.1,1.7c-0.6,0.4-1.3,0.6-2,0.6c-1.1,0-1.9-0.4-2.6-1.1c-0.6-0.7-1-1.6-1-2.8
			c0-1.1,0.3-2,1-2.8c0.6-0.7,1.5-1.1,2.5-1.1c0.8,0,1.5,0.2,2,0.6c0.6,0.4,0.9,1,1.1,1.8h-1c-0.1-0.5-0.4-0.8-0.7-1.1
			c-0.4-0.3-0.8-0.4-1.3-0.4c-0.7,0-1.3,0.3-1.8,0.8c-0.4,0.6-0.7,1.3-0.7,2.1c0,0.9,0.2,1.6,0.7,2.1c0.5,0.5,1.1,0.8,1.8,0.8
			c0.5,0,0.9-0.1,1.3-0.4c0.4-0.3,0.6-0.6,0.8-1H42z"/>
		<path class="st1" d="M48,41.5h1v7.5h-1v-3.3h-3.6v3.3h-1v-7.5h1v3.2H48V41.5z"/>
		<path class="st1" d="M54.2,49c-1.1,0-1.9-0.4-2.6-1.1c-0.7-0.7-1.1-1.6-1.1-2.7s0.4-2,1.1-2.7c0.7-0.7,1.6-1.1,2.6-1.1
			c1,0,1.9,0.4,2.6,1.1c0.7,0.7,1.1,1.6,1.1,2.7s-0.3,2-1,2.7C56.1,48.7,55.2,49,54.2,49z M54.2,48.1c0.8,0,1.4-0.3,1.9-0.8
			c0.5-0.6,0.8-1.2,0.8-2c0-0.8-0.3-1.5-0.8-2c-0.5-0.5-1.1-0.8-1.9-0.8c-0.8,0-1.4,0.3-1.9,0.8c-0.5,0.6-0.8,1.2-0.8,2
			c0,0.8,0.3,1.5,0.8,2S53.4,48.1,54.2,48.1z"/>
		<path class="st1" d="M65.1,41.5V46c0,1-0.3,1.7-0.8,2.3c-0.5,0.5-1.2,0.8-2.1,0.8c-0.9,0-1.6-0.3-2.1-0.8
			c-0.6-0.5-0.8-1.3-0.8-2.3v-4.5h1V46c0,0.7,0.2,1.2,0.5,1.6c0.4,0.4,0.8,0.5,1.4,0.5c0.6,0,1-0.2,1.4-0.5c0.3-0.4,0.5-0.9,0.5-1.6
			v-4.5H65.1z"/>
		<path class="st1" d="M74.3,41.5h0.9l-1.5,7.5h-1.4l-1.5-5.6h-0.1l-1.5,5.6h-1.4l-1.5-7.5h1l1.3,6.3h0.1l1.5-5.7h1.3l1.5,5.7H73
			L74.3,41.5z"/>
		<path class="st1" d="M80,45c1,0.3,1.4,0.9,1.4,1.9c0,0.7-0.2,1.2-0.7,1.5c-0.5,0.3-1,0.5-1.7,0.5h-2.6v-7.5h2.4
			c0.7,0,1.3,0.2,1.7,0.5c0.4,0.3,0.6,0.8,0.6,1.4C81.1,44.1,80.8,44.7,80,45L80,45z M77.4,42.3v2.3h1.4c0.5,0,0.8-0.1,1-0.3
			c0.2-0.2,0.4-0.5,0.4-0.9c0-0.4-0.1-0.7-0.4-0.8c-0.3-0.2-0.6-0.3-1-0.3H77.4z M78.9,48.1c0.5,0,0.8-0.1,1.1-0.3
			c0.3-0.2,0.4-0.5,0.4-0.9c0-0.4-0.1-0.7-0.4-1c-0.3-0.2-0.6-0.4-1.1-0.4h-1.6v2.6H78.9z"/>
		<path class="st1" d="M88.7,41.5V46c0,1-0.3,1.7-0.8,2.3c-0.5,0.5-1.2,0.8-2.1,0.8c-0.9,0-1.6-0.3-2.1-0.8
			c-0.5-0.5-0.8-1.3-0.8-2.3v-4.5h1V46c0,0.7,0.2,1.2,0.5,1.6c0.4,0.4,0.8,0.5,1.4,0.5c0.6,0,1-0.2,1.4-0.5c0.3-0.4,0.5-0.9,0.5-1.6
			v-4.5H88.7z"/>
		<path class="st1" d="M95.8,48.9h-1.1l-1.8-3h0h-1.4v3h-0.9v-7.5H93c0.7,0,1.3,0.2,1.8,0.6c0.4,0.4,0.7,0.9,0.7,1.6
			c0,0.5-0.1,0.9-0.4,1.3c-0.3,0.4-0.7,0.6-1.1,0.8L95.8,48.9z M91.4,42.4V45h1.4c0.5,0,0.9-0.1,1.1-0.4c0.3-0.2,0.4-0.6,0.4-1
			c0-0.4-0.1-0.7-0.4-1c-0.3-0.2-0.7-0.3-1.1-0.3H91.4z"/>
		<path class="st1" d="M99.8,45.1h3.2v3.9h-0.7l-0.2-0.8h-0.1c-0.6,0.6-1.3,0.9-2.3,0.9c-1,0-1.8-0.3-2.4-1
			c-0.6-0.7-0.9-1.6-0.9-2.6c0-1.2,0.3-2.1,1-2.9c0.6-0.8,1.5-1.1,2.5-1.1c0.9,0,1.6,0.2,2.1,0.6c0.5,0.4,0.8,1,0.9,1.7h-1
			c-0.1-0.4-0.3-0.7-0.6-1c-0.3-0.3-0.8-0.4-1.3-0.4c-0.7,0-1.3,0.3-1.8,0.9c-0.4,0.6-0.7,1.3-0.7,2.2c0,0.8,0.2,1.5,0.6,2
			c0.4,0.5,1,0.8,1.8,0.8c0.4,0,0.8-0.1,1.2-0.3c0.4-0.2,0.6-0.4,0.8-0.6v-1.3h-2.3V45.1z"/>
	</g>
</g>
</svg>
