<?xml version="1.0" encoding="utf-8"?>
<!-- Generator: Adobe Illustrator 24.0.0, SVG Export Plug-In . SVG Version: 6.00 Build 0)  -->
<svg version="1.1" id="Laag_1" xmlns="http://www.w3.org/2000/svg" xmlns:xlink="http://www.w3.org/1999/xlink" x="0px" y="0px"
	 width="86.4px" height="297.9px" viewBox="0 0 86.4 297.9" style="enable-background:new 0 0 86.4 297.9;" xml:space="preserve">
<style type="text/css">
	.st0{fill:#FAF5EF;}
</style>
<g>
	<polygon class="st0" points="49.6,40.4 59.5,40.4 59.5,0 51.3,0 40.9,4 40.9,12.7 49.6,9.9 	"/>
	<polygon class="st0" points="74,40.4 83.8,40.4 83.8,0 75.6,0 65.2,4 65.2,12.7 74,9.9 	"/>
	<path class="st0" d="M3.5,69.9V72H0v7.5h3.5v22.7h9.7V79.5h5.4V72h-5.4v-1.8c0-1.7,0.7-2.5,2.6-2.5H19v-7.6h-5.7
		C6.1,60.1,3.5,63.2,3.5,69.9z"/>
	<path class="st0" d="M36.1,102.9c6.9,0,12.4-4.1,13.5-9.7H41c-0.6,1.5-2.2,2.9-4.9,2.9c-3.4,0-5.2-2.3-5.2-5.3v-0.7h18.8v-5.5
		c0-7.2-4.7-13.3-13.9-13.3c-9.2,0-14.3,5.8-14.3,14.2v3.8C21.5,97.9,27.4,102.9,36.1,102.9z M30.9,83.9c0-3.5,1.5-5.7,5-5.7
		c3.4,0,4.9,2.3,4.9,5.3v1.1h-9.9V83.9z"/>
	<path class="st0" d="M86,84.5c0-7-4.3-13.2-12.8-13.2c-3.6,0-6.6,1.7-7.9,3.2V60.1h-9.7v42.1h9.2v-3.2c0.9,1.7,4.2,3.9,8.3,3.9
		c8.5,0,12.8-6.2,12.8-13.2V84.5z M76.3,89.1c0,3.5-1.7,5.9-5.5,5.9c-2.9,0-5.4-1.9-5.4-5.7V85c0-3.8,2.5-5.7,5.4-5.7
		c3.8,0,5.5,2.3,5.5,5.9V89.1z"/>
	<polygon class="st0" points="68.5,170.1 84.7,120.8 82.1,120.8 65.8,170.1 	"/>
	<path class="st0" d="M49.2,217.9H32.6l8.4-7.1c4.4-3.7,8.6-7.5,8.6-13.7c0-7.5-5.8-12.4-14.5-12.4c-8.7,0-14.1,4.4-14.1,12.8v1.2
		h9.4v-0.8c0-3.2,1.5-5.2,4.8-5.2c2.7,0,4.7,1.6,4.7,4.4c0,2.3-1.3,4.1-3.3,6.1l-15.9,15.2v7.4h28.7V217.9z"/>
	<polygon class="st0" points="81.5,210.5 81.5,202.4 72.5,202.4 72.5,210.5 64.2,210.5 75.4,185.5 66.5,185.5 54.7,210.8 
		54.7,217.9 72.5,217.9 72.5,225.9 81.5,225.9 81.5,217.9 86.4,217.9 86.4,210.5 	"/>
	<path class="st0" d="M9.6,244.8c-3.2,0-5.4,2-5.4,5s2.1,5,5.4,5c3.2,0,5.4-2,5.4-5S12.8,244.8,9.6,244.8z"/>
	<path class="st0" d="M4.7,289.1c0,1.1-0.6,1.4-1.6,1.4H1.4v7.3h4.8c5.4,0,8.3-2.5,8.3-7.6v-32.7H4.7V289.1z"/>
	<path class="st0" d="M36.3,256.9c-7.1,0-12.2,3.6-13.5,9.7h8.8c0.8-1.5,2.4-2.2,4.4-2.2c2.7,0,4.2,1.7,4.2,3.9v3.5
		c-1.5-1.2-4.3-2.3-7.9-2.3c-7,0-11.7,3.2-11.7,9.4c0,5.5,4.2,9.5,11.1,9.5c3.9,0,7.2-1.2,8.9-3.2v2.5h9.3V269
		C49.9,261.6,44.9,256.9,36.3,256.9z M34.9,282.3c-3.1,0-5.3-1.2-5.3-3.5c0-2.4,2.1-3.5,5.4-3.5c3,0,5.2,1.5,5.2,3.5
		S37.9,282.3,34.9,282.3z"/>
	<path class="st0" d="M74.3,256.9c-3.9,0-6.9,1.4-8.4,4.2v-3.5h-9.3v30.2h9.7v-17.9c0-3.5,2.1-4.6,4.6-4.6c2.9,0,4.4,1.7,4.4,4.5v18
		h9.7v-19.5C84.9,261.3,81.2,256.9,74.3,256.9z"/>
</g>
</svg>
