<?xml version="1.0" encoding="utf-8"?>
<!-- Generator: Adobe Illustrator 24.3.0, SVG Export Plug-In . SVG Version: 6.00 Build 0)  -->
<svg version="1.1" id="Laag_1" xmlns="http://www.w3.org/2000/svg" xmlns:xlink="http://www.w3.org/1999/xlink" x="0px" y="0px"
	 width="124.4px" height="26.7px" viewBox="0 0 124.4 26.7" style="enable-background:new 0 0 124.4 26.7;" xml:space="preserve">
<g>
	<path d="M10.2,17.6V9.1h4.3c0.6,0,1.1,0.1,1.6,0.3c0.4,0.2,0.7,0.5,0.9,0.9c0.2,0.4,0.3,0.9,0.3,1.5c0,0.6-0.1,1-0.3,1.5
		c-0.2,0.4-0.5,0.7-1,1c-0.4,0.2-1,0.3-1.6,0.3h-2.6v3H10.2z M11.8,13.2h2.5c0.4,0,0.7-0.1,1-0.4c0.2-0.2,0.3-0.6,0.3-1
		c0-0.3,0-0.5-0.1-0.7c-0.1-0.2-0.2-0.4-0.4-0.5c-0.2-0.1-0.4-0.2-0.7-0.2h-2.5V13.2z"/>
	<path d="M18.5,17.6V9.1h1.6v7.1h4.3v1.4H18.5z"/>
	<path d="M24.7,17.6L28,9.1h2l3.3,8.5h-1.7l-0.7-1.8H27l-0.7,1.8H24.7z M27.5,14.4h2.9l-0.9-2.3c0-0.1-0.1-0.2-0.1-0.3
		c0-0.1-0.1-0.3-0.1-0.4c0-0.2-0.1-0.3-0.1-0.5c0-0.2-0.1-0.3-0.1-0.4h-0.1c0,0.2-0.1,0.4-0.2,0.6c-0.1,0.2-0.1,0.4-0.2,0.6
		c-0.1,0.2-0.1,0.3-0.2,0.4L27.5,14.4z"/>
	<path d="M34.3,17.6V9.1h1.5l3.6,5c0,0,0.1,0.1,0.1,0.2c0.1,0.1,0.1,0.2,0.2,0.3c0,0.1,0.1,0.1,0.1,0.2H40c0-0.1,0-0.2,0-0.3
		c0-0.1,0-0.2,0-0.3v-5h1.5v8.5H40l-3.6-5.1c-0.1-0.1-0.1-0.2-0.2-0.4C36,12,36,11.9,36,11.9h-0.1c0,0.1,0,0.2,0,0.3
		c0,0.1,0,0.2,0,0.3v5.1H34.3z"/>
	<path d="M48.4,17.8c-0.6,0-1.2-0.1-1.6-0.3c-0.4-0.2-0.8-0.5-1-0.8c-0.2-0.4-0.3-0.8-0.3-1.4v-0.5H47v0.5c0,0.4,0.1,0.7,0.3,0.8
		c0.2,0.2,0.6,0.3,1,0.3c0.4,0,0.8-0.1,1-0.4c0.2-0.3,0.3-0.7,0.3-1.3V9.1h1.6v5.6c0,0.7-0.1,1.2-0.3,1.7c-0.2,0.5-0.6,0.8-1,1
		C49.5,17.6,49,17.8,48.4,17.8z"/>
	<path d="M53.2,17.6V9.1h6.6v1.4h-5v2.1h4.5v1.4h-4.5v2.3h5.1v1.4H53.2z"/>
	<path d="M64,17.6V9.1h4.6c0.5,0,0.9,0.1,1.2,0.3c0.4,0.2,0.6,0.4,0.8,0.7c0.2,0.3,0.3,0.7,0.3,1.1c0,0.3-0.1,0.6-0.2,0.9
		c-0.1,0.3-0.3,0.5-0.5,0.7c-0.2,0.2-0.4,0.3-0.7,0.4v0c0.3,0.1,0.6,0.2,0.8,0.4c0.2,0.2,0.4,0.4,0.6,0.7c0.1,0.3,0.2,0.6,0.2,1
		c0,0.5-0.1,1-0.4,1.3c-0.2,0.3-0.5,0.6-0.9,0.8c-0.4,0.2-0.8,0.3-1.3,0.3H64z M65.6,12.6h2.6c0.2,0,0.5,0,0.6-0.1
		c0.2-0.1,0.3-0.2,0.4-0.4c0.1-0.2,0.1-0.3,0.1-0.5c0-0.4-0.1-0.6-0.3-0.8c-0.2-0.2-0.4-0.3-0.8-0.3h-2.7V12.6z M65.6,16.2h2.8
		c0.3,0,0.6-0.1,0.8-0.3c0.2-0.2,0.3-0.5,0.3-0.9c0-0.2,0-0.4-0.1-0.6c-0.1-0.2-0.2-0.3-0.4-0.4c-0.2-0.1-0.4-0.1-0.7-0.1h-2.7V16.2
		z"/>
	<path d="M72.7,17.6V9.1h6.6v1.4h-5v2.1h4.5v1.4h-4.5v2.3h5.1v1.4H72.7z"/>
	<path d="M80.5,17.6v-0.8l4.5-6.4h-4.2V9.1h6.6v0.8l-4.5,6.3h4.6v1.4H80.5z"/>
	<path d="M92.7,17.8c-0.9,0-1.6-0.2-2.3-0.5c-0.6-0.3-1.1-0.8-1.5-1.5c-0.3-0.7-0.5-1.5-0.5-2.5c0-1,0.2-1.8,0.5-2.5
		c0.3-0.6,0.8-1.1,1.5-1.5c0.6-0.3,1.4-0.5,2.3-0.5c0.9,0,1.7,0.2,2.3,0.5c0.6,0.3,1.1,0.8,1.5,1.5c0.3,0.6,0.5,1.5,0.5,2.5
		c0,1-0.2,1.8-0.5,2.5c-0.3,0.7-0.8,1.1-1.5,1.5C94.3,17.6,93.6,17.8,92.7,17.8z M92.7,16.4c0.4,0,0.8-0.1,1.1-0.2
		c0.3-0.1,0.6-0.3,0.8-0.6c0.2-0.2,0.4-0.5,0.5-0.9c0.1-0.4,0.2-0.8,0.2-1.2v-0.3c0-0.5-0.1-0.9-0.2-1.3c-0.1-0.4-0.3-0.7-0.5-0.9
		c-0.2-0.2-0.5-0.4-0.8-0.6c-0.3-0.1-0.7-0.2-1.1-0.2c-0.4,0-0.8,0.1-1.1,0.2c-0.3,0.1-0.6,0.3-0.8,0.6s-0.4,0.5-0.5,0.9
		c-0.1,0.4-0.2,0.8-0.2,1.3v0.3c0,0.5,0.1,0.9,0.2,1.2c0.1,0.4,0.3,0.7,0.5,0.9c0.2,0.2,0.5,0.4,0.8,0.6
		C91.9,16.3,92.3,16.4,92.7,16.4z"/>
	<path d="M98.5,17.6V9.1h6.6v1.4h-5v2.1h4.5v1.4h-4.5v2.3h5.1v1.4H98.5z"/>
	<path d="M106.8,17.6V9.1h1.6V13l3.8-3.9h2l-3.3,3.4l3.4,5.1h-1.9l-2.5-3.9l-1.4,1.2v2.7H106.8z"/>
</g>
</svg>
