<?xml version="1.0" encoding="utf-8"?>
<!-- Generator: Adobe Illustrator 24.3.0, SVG Export Plug-In . SVG Version: 6.00 Build 0)  -->
<svg version="1.1" id="Layer_1" xmlns="http://www.w3.org/2000/svg" xmlns:xlink="http://www.w3.org/1999/xlink" x="0px" y="0px"
	 width="103.3px" height="132.1px" viewBox="0 0 103.3 132.1" style="enable-background:new 0 0 103.3 132.1;" xml:space="preserve"
	>
<style type="text/css">
	.st0{fill:#FFFFFF;}
	.st1{fill:#ED1D24;}
</style>
<g>
	<path class="st0" d="M34.5,41.6c-0.1,0.1-0.3,0.3-0.8,0.9c2-0.8,2.5,0.8,3.1,1.6c1.4,2.2,2.8,4.2,5.7,4.5c0.3,0,0.7,0.6,0.8,0.9
		c0.1,0.3-0.3,0.7-0.6,0.9c-1.7,1.2-4.6,0.6-6.5-0.3c-3.4-1.5-4.7-4.7-6.9-7.2c-1.4-1.6-12.4-9.3-14-10.9c-0.7-0.7-1.2-1.7-1.9-2.4
		c-0.4-0.4-1-0.5-1.5-0.8c-0.1,0.5-0.4,1-0.4,1.5c0.3,3.5,0.6,7,0.9,10.5c0,0.5,0,1,0.1,1.5c-1.2,0.3-2.3,0.7-3.7,1.1
		C5.3,31.8,2.2,13,0,1.1C0.5,1,0.8,0.8,1.2,0.8c1.3-0.3,2.7-0.5,4-0.8c1.2,6.2,4.1,19.1,5.3,25.2c0.2,0,0.4,0,0.6,0.1
		c0.1-1.6,1.9-2.1,1.7-4c-0.1-1.4,0.7-3,1.2-4.4c0.9-3,1.9-6,2.8-9c0.4,0.1,1.1,0.3,1.8,0.6c0.1,0.1,0.2,0.4,0.2,0.7
		c0.2,3.2-0.1,6.2-1.2,9.3c-0.7,2-1.4,4.1-1.7,6.2c-0.1,0.9,0.7,2.1,1.4,2.9C19.9,30.2,32,38.9,34.5,41.6 M10.2,42.4
		c-1.1-5-2.1-9.9-3.2-14.9c-0.2,0-0.4,0-0.6,0.1c0,0.5-0.1,1.1-0.1,1.6c0.2,1.4,0.5,2.7,0.7,4.1C7.6,36,8,38.8,8.6,41.5
		C8.7,42.2,9,43.1,10.2,42.4"/>
	<path class="st0" d="M78.7,17.2c3.1,0.1,5.8,0.1,8.5,0.2c0-0.1,0.1-0.2,0.1-0.4c-0.8-0.3-1.6-0.7-2.4-1c-1-0.3-1.2-0.7-0.9-1.6
		c2.6-0.4,4.9,0.4,7.1,1.8c2.5,1.6,4,3.9,3.9,7c0,1.5-0.8,2.4-1.7,3.3c-0.9,0.9-1.6,2-2.5,3.2c0.5,0.4,1.3,1.2,2,1.9
		c0.9,0.9,2,4,1.9,5.3c0,0.3,0.3,0.7,0.3,1.1c0,0.3,0,0.5-0.1,0.8c0,0.2-0.3,0.3-0.3,0.4c0.2,1.4,0.7,2.8,0.7,4.2
		c0,1.1,0.2,2,0.9,2.7c1.3,1.3,2.2,3.1,4.4,3.1c0.2,0,0.6,0.7,0.5,0.8c-0.5,0.5-1,1.3-1.6,1.4c-1.1,0.1-2.3,0.6-3.4-0.7
		c-0.8-0.9-2.3-1-3.5-1.6c-0.3-0.1-0.7-0.3-0.9-0.6c-0.9-1.6-1.9-3.2-2.5-4.9c-0.4-1,0-2.3,0-3.4c-0.1-0.9-0.3-1.7-0.5-2.6
		c-0.3-1.4-0.7-2.8-0.8-4.3c-0.2-2.1-0.9-2.9-3.1-3.1c-0.7-0.1-1.5,0.1-2.4,0.2c0.2,2.8,0.5,5.5,0.7,8.4l-4.3-0.4
		C79,31.2,78.8,24.1,78.7,17.2 M81.8,27.4c1.2,0.1,2.2,0.2,3.1,0.3c2.6,0.3,4.3-0.7,5-3.1c0.6-2,0.3-3.5-1-4.3
		c-1.8-1.1-3.7-1.3-5.7-1c-0.2,0-0.5,0.2-0.6,0.3c-0.8,1.9-1.2,3.9-0.8,5.9c0,0.2,0.5,0.2,0.7,0.4C82.4,26.2,82.2,26.7,81.8,27.4"/>
	<path class="st0" d="M31.8,31.8c-0.4,0.8-0.7,1.8-0.9,1.8c-1.1-0.1-2.3-0.2-3.2-0.7c-3.5-2.4-3.4-6.1-3.3-9.8c0-1.5,0.4-3,0.6-4.5
		c0.3-1.9,1.3-3.3,2.6-4.7c0.7-0.8,1.2-1.3,2.3-1.4c3-0.3,4.4-0.2,5.8,0.6c-1.4,0-2.5-0.1-3.6-0.1c-1,0-1.4,0.3-0.9,1.4
		c3-0.4,5.2,1.3,7.6,2.7c0.3,0.2,0.6,0.5,0.6,0.8c0,1.8,1.2,3.1,1.7,4.7c0.1,0.4,0,0.9,0,1.4c0,0.4-0.2,0.8-0.1,1.1
		c0.1,0.4,0.5,0.9,0.4,1c-0.5,0.7-1.2,1.3-1.8,1.8c-0.2,0.2-0.6,0.2-0.7,0.4C37,30.8,34.5,31.7,31.8,31.8 M32.2,30
		c1.6-0.1,2.7-0.8,2.9-2.5c0.2-2.3,0.3-4.6,0-6.9c-0.2-1.7-1-3.3-2.7-4.2c-0.8-0.4-2.6,0-2.6,0.7c0.1,1.1-0.7,2-0.6,3
		c0.1,2.6-0.6,5.3,1,7.6c0.1,0.1,0,0.3-0.1,0.4C30.2,29.6,30.7,30.1,32.2,30"/>
	<path class="st0" d="M103,114.7c-0.5-0.1-0.9-0.2-1.3-0.2c-0.7,2.7-1.5,5.5-2.2,8.2c-0.5,2-0.6,3.9-2.1,5.5
		c-1.3,1.4-1.5,2.4-3.4,2.9c-2.3,0.6-4.9,2.2-6.8,0c-1.5-1.8,0.1-4,2-3.5c2.4,0.6,1.2,1.5,3.8,0.7c1.3-0.4,1.1-0.5,2.3-1
		c2.8-1.1,4.2-7.3,2-9.4c-2-1.9-2.9-4.4-4.4-6.5c-1.4-1.9-3-5.1-4.3-7.2c1.5-0.5,2.8-1,4.2-1.3c0.3-0.1,0.8,0.4,1,0.7
		c1.5,2.9,3.5,7.1,5,10c0.1,0.2,0.2,0.4,0.5,0.9c0.1-0.5,0.1-0.8,0.1-1c-0.1-3.3-1-9.5-1-12.8c0-1.4,1.3-1.2,2.1-1.7
		c0.3-0.2,0.8-0.1,1.1-0.1c0.4,1.2,0.8,2.2,1.2,3.3c0.1,0.2,0.1,0.5,0,0.7c-0.2,2.7,0.5,8.3,0.3,11.1
		C103.2,114.2,103.1,114.4,103,114.7"/>
	<path class="st0" d="M92.9,100.7c-1.5,0.1-5.4,0.2-6.9,0.3c-1.4,0.1-2.9,0-4.3,0.1c-1.3,0.1-2.7,0.3-4,0.5c-1,0.1-1.8,0-2.1-1.3
		c0.7-0.2,1.5-0.5,2.5-0.8c-0.2-1.2-0.4-2.6-0.5-4c-0.1-1.3,0.1-2.7,0.1-4.1c0-0.9-0.4-1.9-0.5-2.8c-0.1-0.8-0.1-1.7,0.1-2.5
		c0.2-1.2-0.1-1.9-1.2-2.2c-0.4-0.1-0.8-0.6-1.2-0.9c0.4-0.2,0.8-0.6,1.2-0.6c2.1-0.1,4.2,0,6.3,0c1.6,0,4.7-0.3,6.3-0.3
		c0.4,0,0.8,0,1.2,0c0.6,0.1,1.4-0.1,1.2,1.2c-0.1,0.6,0.5,1.3,0.8,1.9c-0.8,0.6-1.4,0.6-2-0.4c-1-1.5-2.7-1.7-3.9-1.3
		c-1.1,0.3-3.9-0.6-4.7,0.7c0.1,0,0.2,0.1,0.4,0.2c-0.4,0.3-0.9,0.6-1.5,1c0.4,0.1,0.6,0.2,0.9,0.2c-0.2,0.9-0.2,1.9-0.5,2.8
		c-0.3,1.3,0.1,2.1,1.4,2.6c0.9,0.3,4.1-0.4,4.6-1.3c0.3-0.6,0.3-1.8,1.2-1.6c0.4,0.1,0.7,1.1,0.9,1.7c0.3,1.2,0.6,2.5,0.6,3.7
		c0,0.7-0.4,1.3-0.6,2c-1-0.2-1.6-0.5-1.7-1.6c-0.2-1.2-3.5-1.7-4.7-1.3c-0.3,0.1-0.7,0-1,0.2c-0.3,0.2-0.6,0.6-0.6,1
		c-0.1,1.1,0,2.3,0,3.4c0,1.5,0.7,2.3,2.1,2c1.2-0.3,2.5-0.2,3.5,0.1c1.9,0.5,4.9-0.6,5.8-1.6c0.4-0.4,0.8-0.6,1.3-0.6
		c1.1,0.2,1.4,1,0.8,2C93.7,99.7,93.3,100.2,92.9,100.7"/>
	<path class="st0" d="M74.1,36.4c0.1,0.1,0.7,0.1,1.1,0.4c0.8,0.5,0.7,1.6-0.1,2.1C75,39,74.7,39,74.7,39.1c-0.3,1.6-1.5,1.1-2.4,1
		c-3.5-0.5-7-1.1-10.5-1.6c-0.5-0.1-1,0.1-1.5,0c-1-0.1-1.9-0.4-1.7-1.8c0.6,0,1.3,0,1.9-0.1c0.2,0,0.6-0.2,0.6-0.4
		c0.2-0.8,0.2-1.6,0.3-2.5c0-0.5,0-0.9,0.1-1.4c0.3-1.8,0.9-3.6,1-5.5c0-1.3,0.1-2.6,0.5-3.9c0,0,0-0.1,0-0.1
		c1.1-1.7,0.4-2.6-1.2-3.4c-0.2-0.1-0.3-0.6-0.4-0.9c0.3-0.1,0.7-0.4,1-0.3c2.1,0.4,4.1,0.8,6.2,1.2c0.6,0.1,1.3,0.2,1.9,0.3
		c1.6,0.3,3.3,0.6,4.9,1c0.6,0.1,1.4,0.3,0.9,1.3c-0.2,0.5,0.2,1.1,0.2,1.7c0,0.3-0.2,0.7-0.4,1.3c-0.9-1.1-1.5-2-2.3-2.7
		c-1-1-1.4-1-3.1-0.8c-0.1,0-0.2-0.1-0.3-0.1c-1.1-0.8-2.1-0.9-3.1,0.2c-0.2,0.2-0.5,0.3-0.9,0.5c0.4,0.2,0.6,0.3,0.9,0.4
		c-0.4,0.9-0.8,1.9-1.1,2.8c-0.5,1.6-0.2,2.6,0.9,3.2c0.9,0.5,2.4,0,3.2-1c0.2-0.3,0.3-0.6,0.6-0.8c0.2-0.2,0.6-0.3,0.9-0.3
		c0.2,0,0.5,0.4,0.5,0.7c0,1.9,0,3.8-0.2,5.7c-0.1,0.5-0.6,1-1,1.6c-0.7-0.5-1.5-0.7-1.3-1.9c0.2-1.1-0.7-1.9-1.9-2
		c-0.7-0.1-1.4-0.2-2.1-0.1c-0.3,0-0.6,0.5-0.7,0.9c-0.3,1.2-0.4,2.3-0.6,3.5c-0.3,1.7,0.1,2.1,1.7,2.5c1.5,0.3,3,0.5,4.5,1
		c0.8,0.3,1.4,0.2,1.9-0.5C72.9,37.2,73.4,36.9,74.1,36.4"/>
	<path class="st0" d="M102.6,63.5c-0.1,0.4-0.1,0.8-0.2,1.1c-1.3-0.5-1.6-0.2-1.9,1.2c-0.3,1.1-0.3,2.2-0.1,3.3
		c0,0.2,0.2,0.4,0.2,0.6c0,0.4-0.1,1-0.3,1c-2.2,0.4-4.3,0.7-6.5,1c-0.3,0-0.6-0.4-1-0.6c0,0.3,0,0.5,0,0.7c-0.8-0.3-1.6-0.7-2.3-1
		c-1.2-0.4-2.2-1.1-3.2-1.7c-0.5-0.3-0.9-0.9-1.3-1.5c-0.7-1.1-1.3-2.1-1.8-3.3c-0.6-1.4-0.1-2.8,0.4-4.1c0.2-0.7,0.5-1.4,0.9-1.9
		c1.4-2.1,3.4-3.2,5.9-3.7c1.8-0.4,3.6,0,5.3,0.3c0.3,0,0.5,0.3,0.7,0.4c0.4,0.1,1,0.2,1.3,0.1c0.8-0.4,1.3-0.2,1.6,0.6
		c0.3,1,0.4,2-0.3,3c-0.3-0.3-0.5-0.5-0.8-0.8c-0.6-0.6-1.2-1.2-1.9-1.7c-1.2-0.9-2.5-0.8-3.8-0.4c-1.3,0.4-2.5,0.8-3.8,1.3
		c-0.4,0.2-0.9,0.4-1.1,0.7c-0.5,0.7-1.1,1.4-1.2,2.2c-0.2,1.2-0.3,2.6-0.1,3.8c0.2,1.2,0.8,2.3,1.4,3.4c0.3,0.5,0.5,1.5,1.6,1.4
		c0.2,0,0.8,0.5,1,0.7c0.9,0.5,1.8,1.1,2.9,0.9c0.8-0.2,1.7-0.4,2.5-0.6c0.3-0.1,0.5-0.2,0.6-0.3c0.3-0.4,0.6-0.6,0.7-0.9
		c0.1-0.6,0.1-1.3,0.1-1.9c0-0.5-0.1-1,0-1.4c0.2-0.8,0.1-1.3-0.8-1.5c-0.1,0-0.2,0-0.2,0c-0.3-0.5-0.7-0.9-1-1.4
		c0.5-0.1,1-0.3,1.5-0.3c1.3,0.2,2.6,0.6,3.9,0.9C101.8,63.1,102.2,63.3,102.6,63.5"/>
	<path class="st0" d="M43.1,44.5c-0.2-1,0-1.6,0.9-1.9c0.4-0.1,0.8-0.7,0.9-1.1c0.2-1.1,0.2-2.3,0.2-3.4c0-1.1,0.2-2.7,0.3-3.9
		c0.1-1.8,0-3.5,0.1-5.3c0.1-1.3,0.3-2.7,0.5-4.2c-0.7-0.2-1.6-0.4-2.5-0.7c0.1-0.8,0.3-1.2,1.1-1c0.6,0.1,1.2,0,1.7-0.1
		c1.1-0.1,2.1-0.3,3.2-0.4c1.6-0.1,3.1,0,4.7-0.1c1.2,0,3.7,2,4.2,3.1c0.3,0.9,0.9,1.6,1.5,2.6c-0.6,0.8-1.5,1.6-1.9,2.5
		c-0.4,1-1,1.6-1.9,1.9c-1,0.4-1.9,0.6-2.6,1.5c-0.1,0.2-0.7,0.1-1.1,0c-0.7-0.1-1.4-0.3-2.1-0.2c-0.6,0.1-1.4,0.4-1.3,1.3
		c0.3,1.9,0,3.7-0.4,5.5c-0.1,0.7,0.2,1.1,0.9,1.3c0.7,0.2,1.3,0.5,1.9,0.7c0,0.1,0,0.3,0,0.4C48.7,43.7,45.9,44.1,43.1,44.5
		 M48.8,31.4c0.2,0,0.3-0.1,0.5-0.1c0.4,0.4,0.7,0.8,1.2,1.1c0.4,0.2,1,0.5,1.4,0.4c1.2-0.4,2.4-1,3.1-2.3c0.7-1.4,1.4-2.8,0.7-4.3
		c-0.3-0.7-1.1-1.1-1.7-1.6c-0.4-0.3-0.7-0.6-1.2-0.8c-0.4-0.2-0.9-0.4-1.3-0.3c-1.3,0.1-2.7,2.3-2,3.5c0.8,1.3-0.1,1.5-0.9,2
		c0.4,0.2,0.6,0.3,0.7,0.3C49,30.1,48.9,30.8,48.8,31.4"/>
	<path class="st0" d="M64.1,121.8c0.4-0.1,0.7-0.2,1-0.3c0.9-0.2,1.2-0.6,1.1-1.7c-0.1-1.3,0.3-2.6,0.4-4c0.1-0.9,0-1.9,0-2.9
		c0.1-1.8,0.2-3.6,0.4-5.4c0.1-1-0.5-1.4-1.3-1.7c-0.3-0.1-0.5-0.5-0.8-0.8c0.3-0.2,0.7-0.6,1-0.5c3.6,0.5,7.4,0.5,10.9,1.8
		c0.1,0,0.2,0.1,0.4,0.1c1.4-0.1,1.9,0.7,2.3,2.2c-1.5-0.5-2.8-1-4.2-1.4c-0.9-0.3-1.8-0.7-2.6-0.6c-0.6,0.1-1.5,0.8-1.7,1.5
		c-0.4,1.4-0.5,3-0.7,4.5c1.9,0.1,3.7,0.2,5.6,0.2c-0.2,0.9-0.3,1.7-0.5,2.5c-4-0.1-4.4-0.2-4.4-1.5c-0.2,0.4-0.5,0.8-0.7,1.2
		c-0.5-0.3-1-0.5-1,0.6c0,1.5-0.2,3-0.4,4.5c-0.1,1.2,0.7,1.6,1.7,1.8c1.4,0.2,2.9,0.4,4.3,0.5c1.3,0.1,1.4,0.4,0.9,1.7
		c-1.9-0.2-3.9-0.2-5.7-0.7c-1.6-0.5-3-0.2-4.5-0.1C64.5,123.2,64.5,122.4,64.1,121.8"/>
	<path class="st0" d="M82.3,126.1c-0.5,0-1,0.1-1.4,0.1c-1.1,0.1-1.1-1-1.2-1.7c-0.3-1.9-0.4-3.8-0.6-5.8c-0.2-2.2-0.5-4.4-0.8-6.6
		c0-0.3,0-0.6,0-0.9c2.3-0.1,4.5-0.3,6.8-0.3c1.7,0,3.3,0.6,4.5,2.3c1.2,1.7,1,3.2-0.6,4.3c-0.5,0.3-0.9,0.8-1.5,1.2
		c0.2,0.3,0.4,0.8,0.8,0.9c2,0.8,2.7,0.9,2.7,3.2c0,0.7,0.4,0,0.5,0.8c0,0.2,0,0.6-0.1,0.8c-0.7,0.9-1.6,0.5-2.5,0.2
		c-0.6-0.2-0.6-0.6-0.6-1.3c0-1.6-0.4,0-0.4-1.5c0-1-0.4-1.4-1.2-1.7c-0.3-0.1-0.6-0.4-0.9-0.4c-0.3,0-0.7-0.9-0.9,0.2
		c-0.1,0.3-0.9,0.3-1.3,0.4c-1.1,0.2-1.2,1-1.2,2.1C82.3,123.8,82.3,124.9,82.3,126.1 M84.4,118.9c2.4,0,3.1-1,3-3.8
		c-0.1-1.5-1.5-3-2.9-2.9c-2,0.1-2.8,1.4-2.8,4.4C81.8,117.6,83.2,118.9,84.4,118.9"/>
	<path class="st0" d="M61.8,95.6c-1.8-1.5-4.1-1.7-6.4-2.5c0.2-0.7,0.4-1.4,0.5-1.8c1,0,1.7,0.1,2.4,0.1c0.3,0,0.6,0,0.8,0.1
		c1.7,0.6,3.3,1.3,5,1.9c2.4,0.8,4.8,1.5,7.2,2.1c0.5,0.1,1.1-0.1,1.7-0.1c0.7,0,1.3,0,0.8,1c-0.2,0.4,0,0.9,0,1.3
		c-0.1,0-0.1,0.1-0.2,0.1c-1.1-0.3-2.2-0.6-3.4-0.9c-1.4-0.3-2.9-0.6-4.3-0.6c-0.5,0-1.2,0.8-1.4,1.3c-0.6,1.4-1.3,2.9-1.4,4.4
		c-0.1,1.4-1.1,2.4-0.9,3.9c0.1,0.9-0.7,1.9-1.2,2.8c-0.6,1.1-1,2.1,0,3.1c0.1,0.1,0.1,0.4,0.1,0.6c-0.1,0.5-1.8,1.3-2.6,1
		c-0.4-0.1-0.7-0.8-0.8-1.3c-0.1-0.3,0-0.7,0.1-1.1c0.8-2.8,0.4-5.7,1.5-8.4c0.5-1.1,0.9-2.2,1.4-3.3c0.4-0.8,0.8-1.6,0.6-2.6
		C61.3,96.5,61.6,96.1,61.8,95.6"/>
	<path class="st0" d="M81.5,68.7c0,0.3,0.1,0.7,0,1c-0.3,1.1,0.8,1.3,1.2,2c0.7,1.1,1.8,1.5,2.9,1.5c1.8,0.1,2.8,1.6,4.2,2.3
		c2,1,3.8,2.2,6.3,1.2c-0.1,0.4,0,0.7-0.1,0.8c-0.7,1.3-1.3,2.6-2.1,3.8c-0.1,0.3-0.5,0.4-0.8,0.6c-0.1-0.3-0.3-0.6-0.2-0.9
		c0.4-1-0.3-1.4-0.9-1.7c-1.5-0.8-3.2-1.4-4.7-2c-0.8-0.3-1.5-0.6-2.2-1c-1.6-0.8-3.2-1.6-4.8-2.3c-0.3-0.2-1,0.2-1.4,0.4
		c-0.4,0.2-0.7,0.6-1.1,0.9c-0.2-0.1-0.3-0.1-0.5-0.2c0.2-0.7,0.3-1.4,0.6-2c0.7-1.3,1.5-2.5,2.3-3.7c0.2-0.3,0.5-0.6,0.8-0.8
		C81.2,68.6,81.4,68.6,81.5,68.7"/>
	<path class="st0" d="M17.7,74.6c0.1,0,0.2,0,0.3,0c0.2,0,0.5,0,0.7-0.1c0.1,0,0.2,0,0.2,0c1.4-0.2,2.7-0.6,4-1.2
		c-0.9-1.7-3.7,0.2-5.2,0c-0.7-0.1-1.4,0-2.1,0c-0.8-0.2-1.5-0.9-2.3-0.9c-2.2-0.2-3.7-1.7-4.6-3.8c0.9,0,1.6,0.4,2.4-0.1
		c0.5-0.1,1.1,0.1,1.7,0c1.4-0.3,3.1-1,4.4-0.1c0.2,0.2,0.5,0.2,0.8,0.2c1.1,0,2.2,0.4,3.3,0.5c0.9,0.1,1.8,0.4,2.5,0.1
		c0,0,0.1-0.1,0.1-0.1c0,0,0,0,0,0c0,0,0-0.1,0-0.1c0,0,0,0,0,0c0,0,0,0,0,0c0,0,0,0,0,0c0,0,0,0,0,0c0,0,0,0,0,0c0,0,0,0,0,0
		c0,0,0,0,0,0c0,0,0,0,0,0c0,0,0,0,0,0c0,0,0,0,0,0c0,0,0,0,0,0c0,0,0,0,0,0c0,0,0,0,0,0c0,0,0,0-0.1-0.1c0,0,0,0,0,0c0,0,0,0,0,0
		c0,0,0,0-0.1,0c0,0-0.1-0.1-0.1-0.1c0,0-0.1,0-0.1-0.1c0,0,0,0-0.1,0c0,0,0,0,0,0c-0.2-0.1-0.3-0.1-0.5-0.2c-1-0.2-1.9-0.5-2.9-0.8
		c-0.2-0.3-0.2-0.3-0.6-0.2c0-0.1,0-0.1,0.1-0.2c-0.2,0-0.4-0.1-0.5-0.1c-0.6,0-1.3-0.2-1.9-0.3c-1.3-0.3-2.7-0.3-3.8-1
		c-2,0.7-4.2-0.5-6-1.2c-1.5-0.6-2.5-1.8-3.1-3.2c0.1-0.2,0.3-0.3,0.4-0.4c3.2,0.4,11.8,3,14,0.9c-1.2-0.2-2.4-0.1-3.7-0.4
		c0.1-0.1,0.1-0.1,0.2-0.2c-0.4-0.1-0.7-0.2-1.1-0.3c-0.8,0-1.5-0.2-2.2-0.6c-1.9-0.6-3.9-0.7-5.6-1.6c-1.3-0.8-2.5-2-3-3.5
		c-0.3-0.6-0.7-1.2-0.9-1.9c0-0.3-0.1-0.7-0.4-0.8c-1-0.3-0.3-3.1-0.1-3.7C2.2,47.5,3,45.9,4.6,46c0.7,0.1,3,1.9,3.2,1.8
		c-3.2,1.1-3.5,2.1-1.8,5c0.5,1.1,1.5,1.9,2,3.1c0.6,0.5,1.3,0.9,1.9,1.4c0.1,0,0.2,0.1,0.2,0.2c0,0.5,0.4,0.5,0.7,0.7
		c0.7,0.3,1.7,1.7,2.5,1c0.5,0.2,0.9,0.2,1.3,0.5c0.1,0.1,0.2,0.2,0.3,0.3c0.1,0,0.2,0.1,0.3,0.1c0.1,0,0.3,0,0.5,0
		c0.1,0.1,0.2,0.2,0.2,0.3c0,0,0.1,0,0.1,0.1c0.7-0.2,0.6,0.6,1.3,0.3c0.6-0.3,1-0.1,1.4,0c0,0,0.1-0.1,0.1-0.1c0,0,0,0,0,0
		c0,0,0,0,0.1-0.1c0,0,0,0,0,0c0,0,0,0,0-0.1c0,0,0,0,0,0c0,0,0,0,0-0.1c0,0,0,0,0,0c0,0,0,0,0-0.1c0,0,0,0,0,0c0,0,0,0,0-0.1
		c0,0,0-0.1,0-0.1c0,0,0,0,0,0c0,0,0,0,0,0c0,0,0,0,0-0.1c0-0.1-0.1-0.2-0.2-0.3c0,0,0,0,0-0.1c0,0,0,0-0.1-0.1c0,0-0.1-0.1-0.1-0.1
		c-0.6-0.1-1.2-0.4-1.8-0.4c0,0,0,0,0-0.1c-0.6,0-1.3-0.1-1.9-0.4c-1.2-0.4-2.2-1.2-3.2-2c-0.1,0-0.2,0-0.3-0.1c0,0,0-0.1,0-0.1
		c-0.2-0.2-0.4-0.3-0.6-0.5c-0.6,0-0.9-0.6-1.2-1c0,0-0.1,0-0.1-0.1c-0.1,0-0.1-0.1-0.1-0.1c0,0,0,0-0.1-0.1c0,0,0,0,0.1,0
		c0-0.1,0-0.2,0.1-0.2c-0.2-0.2-0.4-0.4-0.6-0.7c-0.4-0.6-1-0.7-1.2-1.5c-0.2-0.6-0.2-1.3,0-2C8,49,8.9,48.4,9.7,47.5
		c-1.3,0-1.7-1.3-2.5-2.2c-0.8-1-2.2-1.2-3.4-0.8c-0.7,0.2-1.5,0.6-2,1.1c-0.4,0.5-0.6,1.1-1.2,1.5c-1,2.5-0.5,5.8,0.8,8.2
		c0.2,0.6,0.9,0.7,1.1,1.2c0.4,1.3,1.6,1.7,2.5,2.7c-0.7,0.4-1.9-0.9-2.3-0.3c-0.1,0.3-0.3,0.4-0.5,0.5c-1.1,0.9,1.4,2.8,1.6,3.9
		c0.6,0.8,1.6,1.3,2.2,2c0.3,0.5,1,0.5,1.4,0.8c0.6-0.3,0.8,1,1.3,0.4c0.6-0.5,0.7,0.7,1.3,0.7c-0.7,0.4-1.4,0.2-2.1,0.6
		c-0.4,0.2-0.9-0.1-1.1,0.5c-0.4,0.9,0.8,1.4,0.9,2.2c0.1,0.2,0.4,0.3,0.4,0.5c0.1,0.4,0.4,0,0.5,0.2c0.9,0.9,1.9,1.8,2.9,2.6
		c0.3,0.6,0.3,0.6,0.9,0.6c0.6,0,1.2,0,1.8,0C15.6,74.2,16.6,74.5,17.7,74.6"/>
	<path class="st0" d="M22,77.8c0.7,0.1,1.4,0.1,2.1,0.1c1.4-0.7,3.9,0.3,4.5-1.9c-1.5-0.4-3.2,0.4-4.8,0.1c-0.7-0.1-1.4,0.4-2.1,0
		c-1-0.5-2.3-0.2-3.2-0.7c-0.4-0.1-0.8-0.2-1.2-0.2c-0.1,0-0.2,0-0.2,0c0,0,0,0,0,0c-0.1,0-0.1,0-0.2,0c0,0-0.1,0-0.1,0
		c0,0-0.1,0.1,0,0c0,0,0,0,0,0c0,0,0,0,0,0c0,0,0,0,0,0c0,0,0,0,0,0.1c0,0,0,0,0,0c0,0,0,0,0,0c0,0,0,0,0,0c0,0,0,0.1,0,0.1
		c0,0,0,0.1,0,0.1c0,0,0,0,0,0c0,0,0,0,0,0.1c0.5,0.6,0.7,0.1,1.4,0.9c0.1,0.1,0.2,0.2,0.2,0.2c-0.2,0.3,0.2,0.4,0.3,0.6
		c0.6,1.1,1.7,1.5,2.8,2c0.5,0.1,0.9,0.2,1.4,0.2c0.1,0,0.2,0,0.2,0.1c0.6,0.1,1.1,0.1,1.7,0.2c0.2-0.1,0.4-0.1,0.8,0h0
		c0.1,0,0.1,0,0.2,0.1c0,0,0.1,0,0.1,0c0,0,0,0,0,0c0,0,0,0,0,0c0.1,0,0.1,0,0.1,0c1.1,0.3,2.1-0.2,3.2-0.2c1-0.1,1.9-0.1,2.5-1
		c0-0.9-1.5,0-2.1-0.2c-1.9,0.4-3.8-0.1-5.8,0c-1.1,0-2.5-0.4-3.3-1.2c0.4,0,0.8,0.1,1.2,0.3C21.8,77.8,21.9,77.8,22,77.8"/>
	<path class="st0" d="M82,46.1c0.1,0.1,0.1,0.2,0.2,0.3c0,0,0,0,0,0C82.3,46.2,82.4,45.9,82,46.1"/>
	<path class="st1" d="M46.3,65.3c0-0.2,0-0.4,0.1-0.6c0,0.2,0.1,0.4,0.1,0.5C46.4,65.3,46.3,65.3,46.3,65.3 M46.1,64.8l0.2-0.2
		c0,0,0,0,0,0C46.2,64.8,46.2,64.8,46.1,64.8 M84.8,53.3c0-0.2,0-0.5,0-0.7c-0.1-1.1-0.1-2.1-0.4-3.2c-0.2-1-0.8-1.9-1.5-2.6
		c-0.1-0.1-0.3-0.2-0.6-0.4c0,0,0,0,0,0c0,0,0,0,0,0c-0.7-0.3-1.5-0.7-1.5-0.8c-0.1,0.3-0.3,0.6,0.2,0.6c-0.2,0-0.7,1.7-0.8,1.9
		c-0.4,0.6-1.1,1.2-1.6,1.7c-1.2,1.2-2.6,1.7-4.1,2.3c-1.6,0.6-3.1,1.5-4.8,2c-1,0.3-1.8,0.7-2.6,1.2c-0.2,0.1-0.2,0.4-0.4,0.5
		c-0.2,0.1-1.2-0.2-1.2,0c-0.1,0.1-0.1,0.2-0.2,0.3c-0.5-0.6-0.5-0.6-1.2,0c0.1,0.1,0.2,0.2,0.3,0.3c-0.6,0.7-1.6,0.4-2,1.3
		c0.1,0.3,0.1,0.6,0.2,0.8c0.2,0,0.3-0.1,0.5-0.1c0,0.2,0.1,0.3,0.1,0.4c1-1.4,3.5-2.1,5.1-2.4c1.2-0.2,2-0.7,3.3-0.6
		c-0.4,0-1,2.4-0.1,2.7c-0.4,0.8-1.1,1.5-1.5,2.3c-0.3,0.7-0.3,1.4-0.5,2.1c-0.2,0.5-0.5,0.8-0.8,1.2c0,0-0.9,2.8-1.3,2
		c0.3,0.5,0.2,0.8-0.2,1.3c-0.1-0.1-0.1-0.2-0.1-0.3c-1.8,0.2-3.6-0.5-5.4-0.3c-1,0.1-2.1,1.2-2.8,0c-0.1,0.1-0.6,0.8-0.6,0.8
		c-0.6-0.2,0.4-0.7-0.3-1c-0.1,0-0.5,0.2-0.6,0.2c-0.2,0-2.1-1-2.1-0.7c0-0.4-0.1-0.7,0-1.1c0.1-0.5-0.5-1.1-0.1-1.7
		c0.1-0.2,0.2-0.3,0.5-0.2c0.4,0.2,0.5,0,0.5-0.4c0.2,0,0.3,0.1,0.5,0.1c-0.1,0.1-0.2,0.2-0.4,0.3c1.2,0.4,0.5-0.3,1.5-0.1
		c-0.1,0-0.1-0.1-0.2-0.1c0.3-0.3,0.9-0.3,1.3,0c0.1-0.3,0-0.6-0.2-1.1c0.3-0.5,0.6-1,0.9-1.4c0.3-1.2,0.5-2.5,0.7-3.8
		c-0.1-0.1-0.1-0.2-0.1-0.4c0.4-1-0.5-2.1,0.2-3c0.4-0.5-0.4-0.9,0-1.4c-0.3-1-1.4-1.6-2.3-2c-0.2-0.1-2.7-0.8-2.3-1.2
		c-0.6,0.8-0.7-0.2-1.7,0.4c-0.1-0.2-0.2-0.3-0.3-0.5c-0.2,0.1-0.4,0.2-0.5,0.2c-0.1-0.1-0.2-0.2-0.3-0.3c-0.3,0.2-0.5,0.5-0.7,0.5
		c-0.5,0-0.6,0.4-1.1,0.5c-1.4,0.5-2.4,2.1-3.2,3.3c-0.1,0.1-0.1,0.3-0.2,0.3c-1.2,0.3-0.5,1.5-1.9,2c1.3,0.1,0.5,1.4,0.9,2.1
		c0.1,0.2,0.5,0.1,0.3,0.6c-0.2,0-0.5,0.1-0.6,0.1c0.4,0.4,0.9,0.7,1.3,1.2c0.6,0.7,1,1.7,1.8,2.2c-0.2,0.2-0.3,0.6-0.2,0.9
		c0.1,0.7-1,0.7-1.4,0.9c-0.4,0.2-0.7,0.4-1,0.7c-0.4,0.1-0.8,0.5-0.8,0.8c-0.2,0.3-0.4,0.5-0.5,0.8l0.5-0.4
		c0.2,0.5,0.2,0.5-0.3,0.7c-0.7-0.5-0.5-1.4-1-2c0,0,0-0.1,0-0.2c0.2-0.5-0.2-0.8-0.4-1c-0.5-0.4,0-0.9-0.3-1.3
		c-0.2,0.1-0.4,0.2-0.7,0.3v-1.2c-0.7,0.1-0.3-0.8-0.8-0.9c0.7,0.2-0.2-1.2-0.2-1.3c-0.3-0.5-0.7-1.4-1.2-1.6
		c-0.3-0.2-1.2,0-1.4-0.1c-0.9-0.7-2-1.2-3-1.6c0,0,0,0,0-0.1c-0.2,0-0.3-0.1-0.5-0.1c0,0,0,0,0,0.1c-1.6-0.6-3.1-1.1-4.9-1.4
		c-1.7-0.3-3.3-1.2-5-1.8c-2.2-0.8-3.9-2.9-6.4-2.2c-0.3-0.3-0.3,0.2-0.5,0.2c-1.5,0-2.8-0.4-4.3-0.5c-0.1,0.1-0.1,0.2-0.2,0.3
		c-0.4-0.3-0.7,0-1.1,0.2c0,0.8-0.2,1.9,0.5,2.4c0.1,0.1,0.9,0.4,1.1,0.5c0.3,0.2,0.7,0.3,1,0.5c0.7,0.5,0.8,1.3,1.4,1.8
		c0.8,0.7,1.3,0.4,2.1,0.6c-0.1,0-0.4,0.2-0.4,0.1c0.3,0.2,0.7,0.3,1,0.4c0,0,0,0,0,0c0,0,0,0,0,0c0.6,0.1,1.2,0.2,1.8,0.2
		c0.4,0,0.4,0.6,0,0.6c-0.8,0-1.6-0.1-2.3-0.3c0,0.3-0.3,0.3-0.4,0.4c-0.1,1-0.4,1.7,0,2.6c0,0-0.1,0-0.1,0c0.1,0.4,0.3,0.8,0.5,1.2
		c0.4,0.5,0.7,1.2,1.5,1.4c-1,1.2,1.2,2.4,1.9,3.3c0.8,0.7-1.2,1.5,0.4,2.2c0.2,0.1,0.4,0.3,0.6,0.4c0.4,0.2,0.9,0.3,1.4,0.4
		c0-0.1,0.1-0.1,0.2-0.1c0.8,0,1.7,0.2,2.5,0.2c0,0,0,0,0,0c0,0,0,0,0,0c0,0,0,0,0.1-0.1c0,0,0,0,0.1-0.1c0,0,0,0,0,0c0,0,0,0,0,0
		c0,0,0,0,0-0.1c0,0,0,0,0,0c0,0,0,0,0,0c0,0,0,0,0,0v0c0,0,0,0,0,0c0,0,0,0,0,0c0,0,0,0,0,0c-1.1-0.5-2.4-0.8-3.6-1.1
		c-1,0-1-1.2-0.1-1.1c-0.1-1.2-1.4-1.3-1.7-2.3c0.5,0,1,0.1,1.5,0.1c0.1-0.2,0.1-0.4,0.2-0.7c-0.2-0.1-0.4-0.2-0.6-0.2
		c0.2-0.5,0.2-0.5,0.6-0.6c0.3,0.3,0.6,0.5,0.9,0.8c0.3-0.1,0.6-0.2,1-0.3c-0.1,0.6-0.7,1.5-0.1,1.8c0.2,1.2,2.9,1,3.7,1
		c-1,1-1.1,2.1,0,3c1.2,0.9,2.9,1.7,3.6,3.1c-0.4-0.1-0.9-0.1-1.3,0c-0.7,0.1-1.6-0.4-2.2,0c-0.5,0.2-3.1,0.6-3.4,0.2
		c-0.4-0.5-1.1,0-1.3-0.8c0.4-0.4,0.8-0.8,1.2-1.2c0,0,0,0,0-0.1c0,0,0,0,0-0.1c0,0,0,0,0,0c0-0.1-0.1-0.2-0.1-0.2c0,0-0.1,0-0.1,0
		c-0.4,0-0.8,0-1.2,0.1c-0.5,0.5-0.8,0.8-1.2,1.5c0.1,0.1,0.2,0.1,0.3,0.2c-0.1,0.1-0.2,0.2-0.3,0.3c0,0.1,0.1,0.2,0.1,0.3
		c0,0,0,0,0,0.1c0.1,0,0.1,0,0.2,0c0,0.1,0,0.2-0.1,0.3c0.1,0.1,0.2,0.2,0.3,0.3c0.1-0.1,0.3-0.1,0.4,0c0.5,0.6,1.2,1,2,1
		c0.1,0,0.2,0.1,0.2,0.2c0.6,0.1,1.1,0.2,1.7,0.3c0,0,0.1,0,0.1,0c0.3,0,0.5,0,0.8,0c0.1-0.1,0.2-0.2,0.3-0.2c0.1,0,0.1,0.1,0.2,0.1
		c1-0.1,2-0.3,2.8-0.8c0.3-0.2,0.6,0.3,0.3,0.5c-0.8,0.5-1.8,0.7-2.7,0.8c-0.2,0.4-0.6,0.6,0,0.9c-0.1,0.1-0.2,0.1-0.3,0.2
		c0.2,0.5,0.8,0.4,0.4,1c0.9,0.6,3.8-0.8,5.1-0.9c0.1,0,0.2-0.1,0.2-0.1c0.1,0,0.2-0.1,0.2-0.1c0.1-0.1,0.1-0.1,0.2-0.1
		c0.1-0.1,0.3-0.1,0.4,0c0.1,0.1,0.1,0.3,0,0.4c-0.3,0.2-0.6,0.4-1,0.6c0,0,0,0,0,0c-0.2,0.9-0.8,1.7-0.1,2.5c2.1,0.2,4.6-1.5,6.1-3
		c-0.2,2.2-1.7,3.5-3,5.1c-0.5,0.4,0,0.7-0.6,1.1c-0.6,0.4-1.1,1.2-1.8,1.4c0,1.4-2.9,2-4,2.6c-0.4,0.3-0.8,0.5-1.3,0.5
		c-0.2,0.1-0.5,0.2-0.7,0.3c-0.3,0.1-0.6,0.2-1,0.2c0,0.1,0,0.2,0,0.2c0.9,0.4,2.4-0.4,3,0.2c-0.7,0.3-1.5,0.9-1.9,1.6
		c0.1,0.1,0.2,0.1,0.2,0.2c-0.2,0.1-0.4,0.2-0.5,0.2c0.1,0.2-0.3,0.4-0.1,0.7c0.1,0.1-0.1,0.5-0.3,0.5c-0.6,0.3-1,0.8-1.7,1
		c0.1,0.2,0.2,0.3,0.2,0.4c-0.3,0.6-1.4,1.2-0.9,1.9c-0.2-0.3-1,0.9-1.8,2.3c0.1,0,0.2-0.1,0.4-0.1c-0.1,0.3-0.2,0.3-0.4,0.2
		c-0.9,1.6-1.8,3.4-1.9,3.6c-0.8,1.1-1.5,2.3-2.5,3.2c-0.9,0.8-1.6,0.1-2.5,0.8c0,0-0.5,1.7,0,1.4c-0.4,0.2-0.8,0.2-0.6,0.8
		c-0.1-0.3-1.7,0.8-1.8,1c-0.3,0.4-0.2,0.8-0.3,1.2c-0.3,0.6-0.8,1.1-1.3,1.6c-0.8,0.8-1,0.8-0.5,1.8c0.6,1.1,0.8,2.3,1.1,3.5
		c0.3,1.2,0.8,1.4,0.6,2.7h0.3c0,0.8,0.3,1.3,0.7,1.9c1.4,0.1,1.9,0,2.2-1.4c0.2-1.1-0.4-1.5-0.1-2.7c0.1-0.4,0.2-1,0.7-0.9
		c0.6,0.1,0.3,0.8,0.5,1.1c0.3,0.6,1,1,1.3,1.5c0.4,0.7,0.7,1.4,1.4,2c1.2,1.1,1.9,2.1,2.6,3.5c0.4,0.7,1.7,3.2,2.8,2.2
		c0.8-0.8-0.6-3-0.5-4c0.8,0.3,1.5,0.7,2.4,0.9c3.9,0.9,8.2,1.4,12.2,0.9c0.9-0.1,1.8-0.2,2.6-0.3c0.4,0,0.9,0,1.3-0.2
		c0.8-0.3,0.5-0.2,0.6-1c0.2-1.5,1-2.8,1.1-4.3c0-0.4-0.2-1.3,0.3-1.6c0-1.1-0.1-2.2,0-3.4c0.2-1.4,0.4-2.8,0.7-4.2
		c0.5-1.9,1.3-3.8,1.6-5.7c0.2-1.4,0.4-2.9,0.7-4.3c0.1-0.6,0.1-1.3-0.1-1.9c-0.2-0.5-0.9-1.1-0.9-1.5c0-0.3,0.5-1.1,0.6-1.4
		c0.2-0.8,0.1-1.6,0.4-2.4c0.3-1.1,1.1-1.9,1.6-2.9c0.3-0.7,0.2-0.8,1-1c0.5-0.1,1.2,0,1.7,0c1.3,0.1,2.6,0.3,3.9,0.5
		c1.2,0.2,2.4-0.2,3.6,0.1c0.9,0.2,1.8,0.8,2.7,0.5c0.8-0.2,1-1.1,1.3-1.7c0.2-0.4,0.3-0.7,0.7-1c0.3-0.2,0.8,0.2,1.1-0.2
		c0.6-1-1.8-1.4-2.3-1.4c-0.9,0-1.8,0.1-2.7,0.4c-0.9,0.3-2.3,1-3.3,0.4c-0.6-0.4-1.5-0.4-2.2-0.8c-1.8-1.1-2.7-2.1-3.6-3.9
		c-0.7-1.6,0.2-3.9,1.1-5.2c0.9-1.4,2.4-1.2,3.9-1.1c1.1,0,2.4,0,3.5,0.2c1.3,0.1,2.4-0.3,3.6-0.7c0.8-0.3,2.4-0.4,2.7-1.2
		c0,0.2,0.1,0.3,0.1,0.4c0,0.1,0.9-0.5,1-0.6c0.3-0.4,0.2-0.9,0.3-1.3c0,0,0,0,0,0c-0.1-0.1-0.3-0.3,0-0.5c0,0.1,0,0.2,0,0.3
		c0.3-1.4,0.5-2.7,1.1-4.1c0.5-1.3,0.4-2.8,0.9-4c0.3-0.7,1.5-1.5,1.6-2.3c0-0.1-0.2-0.9-0.3-0.6c0,0,0-0.1,0-0.1
		c0.2,0.1,0.5,0.1,0.7,0.2c0.3,0.1,1.9-3.2,1.9-3.6c0-0.6-0.4-1.1-0.5-1.7c0,0.4,1-0.2,1.1-0.3c0-0.1,0-0.3,0-0.4
		c0.8,0.6,2.4,0.6,3.4,0.9c0.6,0.2,1.6,1.4,1.9,1.9C84.2,54.1,84.9,54.8,84.8,53.3"/>
	<path class="st0" d="M71.8,69.5c0-0.1,0-0.2,0-0.3c0,0.1,0,0.1,0,0.2C71.7,69.4,71.8,69.4,71.8,69.5"/>
	<path class="st0" d="M26.2,95.4c0,0,0.1,0,0.1,0c0,0,0-0.1,0-0.1C26.3,95.4,26.2,95.4,26.2,95.4"/>
	<path class="st0" d="M31.6,82.6c0.3,0,0.5-0.4,0.9-0.3c0.2,0.1,0.6,0,0.9-0.2c1.2-0.6,2.5-1,3.6-1.8c0.2-0.2,0.4-0.3,0.7-0.5
		c0,0,0-0.1,0.1-0.1c0,0,0,0,0.1-0.1c0,0,0-0.1,0.1-0.1c0,0,0-0.1,0.1-0.1c0,0,0,0,0,0c0,0,0,0,0,0c0,0,0-0.1,0-0.1c0,0,0,0,0,0
		c0,0,0,0,0,0c0,0,0,0,0,0c0,0,0,0,0,0c0,0,0,0,0,0c0,0,0,0,0,0c0,0-0.1,0-0.1-0.1c0,0,0,0,0,0c0,0,0,0,0,0c0,0,0,0-0.1,0
		c0,0-0.1,0-0.1,0c-0.1,0-0.1,0-0.2,0c0,0,0,0,0,0c0,0,0,0,0,0c0,0-0.1,0-0.1,0c-0.1,0-0.2,0-0.3,0c-1.9,1.2-4,1.9-6.1,2.6
		c-2,0.3-3.9-0.3-5.9-0.9c0,0-0.1,0-0.1,0c-0.5-0.1-1-0.2-1.5-0.3c-0.1,0-0.2,0-0.3,0c-0.1,0-0.2,0-0.3,0c0,0-0.1,0-0.1,0
		c0,0,0,0,0,0c0,0,0,0,0,0c0,0,0,0-0.1,0c-0.1,0.1-0.1,0.1-0.2,0.2c0,0,0,0.1-0.1,0.1c1.4,1,3.3,1.2,5,1.9c-1,1.1-1,1.5-0.8,1.9
		c0.8,0.5,1.8,0.5,2.7,0.5c1.1,0,2.3-0.2,3.4-0.6c1.4-1,3.4-1.4,4.1-3.1c-1.5-0.4-2.9,1.9-4.3,2.1c-1.4,0.3-3,0.9-4.4,0.7
		C28.6,83.1,30.4,83.2,31.6,82.6"/>
</g>
</svg>
