<?xml version="1.0" encoding="utf-8"?>
<!-- Generator: Adobe Illustrator 24.3.0, SVG Export Plug-In . SVG Version: 6.00 Build 0)  -->
<svg version="1.1" id="Laag_1" xmlns="http://www.w3.org/2000/svg" xmlns:xlink="http://www.w3.org/1999/xlink" x="0px" y="0px"
	 width="151.9px" height="32.3px" viewBox="0 0 151.9 32.3" style="enable-background:new 0 0 151.9 32.3;" xml:space="preserve">
<style type="text/css">
	.st0{fill:#1D1D1B;}
</style>
<g>
	<g>
		<path class="st0" d="M4,10.9c-0.5,0-0.9-0.1-1.4-0.2c-0.5-0.1-0.9-0.3-1.3-0.5C1,10,0.7,9.7,0.4,9.3C0.2,8.9,0.1,8.4,0.1,7.8
			c0-0.4,0.1-0.7,0.2-1C0.4,6.5,0.5,6.3,0.7,6c0.2-0.2,0.4-0.4,0.7-0.6s0.5-0.3,0.8-0.4v0C1.7,4.9,1.4,4.6,1.1,4.2
			C0.8,3.9,0.6,3.4,0.6,2.9c0-0.4,0.1-0.8,0.3-1.1c0.2-0.3,0.4-0.6,0.7-0.8c0.3-0.2,0.7-0.4,1.1-0.5C3.1,0.3,3.5,0.2,4,0.2
			s0.9,0.1,1.3,0.2c0.4,0.1,0.8,0.3,1.1,0.5c0.3,0.2,0.5,0.5,0.7,0.8c0.2,0.3,0.3,0.7,0.3,1.1c0,0.5-0.1,1-0.4,1.4
			C6.7,4.6,6.3,4.9,5.8,5.1v0c0.3,0.1,0.6,0.2,0.8,0.4s0.5,0.3,0.7,0.6c0.2,0.2,0.3,0.5,0.4,0.8c0.1,0.3,0.2,0.6,0.2,1
			c0,0.6-0.1,1.1-0.3,1.5C7.3,9.7,7,10,6.7,10.2c-0.4,0.3-0.8,0.4-1.2,0.5C5,10.9,4.5,10.9,4,10.9z M4,9.9c0.8,0,1.4-0.2,1.9-0.6
			s0.7-0.9,0.7-1.6c0-0.7-0.2-1.2-0.7-1.6S4.8,5.6,4,5.6c-0.8,0-1.4,0.2-1.9,0.6S1.4,7.1,1.4,7.8c0,0.7,0.2,1.2,0.7,1.6
			S3.2,9.9,4,9.9z M4,4.6c0.7,0,1.2-0.1,1.6-0.4c0.4-0.3,0.6-0.7,0.6-1.2S5.9,2,5.6,1.7C5.2,1.4,4.6,1.2,4,1.2
			c-0.7,0-1.2,0.1-1.6,0.4C2,2,1.8,2.4,1.8,2.9S2,3.9,2.4,4.2C2.8,4.5,3.3,4.6,4,4.6z"/>
		<path class="st0" d="M11.1,3h1.1V0.5h1.2V3h1.5v1h-1.5v5c0,0.3,0.1,0.5,0.2,0.6c0.1,0.1,0.3,0.2,0.6,0.2c0.1,0,0.2,0,0.4,0
			c0.1,0,0.2,0,0.3-0.1h0v1.1c-0.1,0-0.3,0.1-0.5,0.1c-0.2,0-0.3,0-0.5,0c-0.5,0-0.9-0.1-1.2-0.3c-0.3-0.2-0.5-0.6-0.5-1.2V4h-1.1V3
			z"/>
		<path class="st0" d="M19.9,0h1.3l-4.3,10.7h-1.3L19.9,0z"/>
		<path class="st0" d="M21.5,3h1.2v1.1h0c0.2-0.4,0.6-0.7,1-0.9s0.8-0.4,1.3-0.4c0.5,0,0.9,0.1,1.2,0.4c0.3,0.2,0.6,0.6,0.8,1h0
			c0.2-0.5,0.6-0.8,1-1c0.4-0.2,0.9-0.4,1.4-0.4c0.7,0,1.3,0.2,1.7,0.6c0.4,0.4,0.7,1,0.7,1.9v5.4h-1.2V5.3c0-0.5-0.1-0.9-0.4-1.1
			c-0.3-0.3-0.6-0.4-1-0.4c-0.3,0-0.5,0.1-0.7,0.2c-0.2,0.1-0.4,0.2-0.6,0.4c-0.2,0.2-0.3,0.4-0.4,0.7c-0.1,0.3-0.2,0.5-0.2,0.8v4.8
			h-1.2V5.3c0-0.5-0.1-0.9-0.4-1.1c-0.2-0.3-0.6-0.4-1-0.4c-0.2,0-0.5,0.1-0.7,0.2c-0.2,0.1-0.4,0.2-0.6,0.4
			c-0.2,0.2-0.3,0.4-0.5,0.7c-0.1,0.3-0.2,0.5-0.2,0.8v4.8h-1.2V3z"/>
		<path class="st0" d="M37.7,3.2h-2.2V2.4c0.3,0,0.6,0,0.9-0.1c0.3-0.1,0.5-0.2,0.8-0.3s0.4-0.4,0.6-0.6s0.2-0.6,0.3-1h1v10.3h-1.3
			V3.2z"/>
		<path class="st0" d="M41,9c0.2-0.5,0.5-0.9,0.9-1.3c0.4-0.4,0.8-0.7,1.2-1c0.4-0.3,0.9-0.5,1.3-0.8c0.3-0.2,0.6-0.4,0.9-0.5
			c0.3-0.2,0.5-0.4,0.7-0.6c0.2-0.2,0.3-0.4,0.4-0.6c0.1-0.2,0.1-0.5,0.1-0.8c0-0.6-0.2-1.1-0.6-1.5c-0.4-0.4-0.9-0.6-1.6-0.6
			c-0.4,0-0.7,0.1-0.9,0.2S43,1.7,42.8,1.9c-0.2,0.2-0.3,0.5-0.4,0.8C42.3,3,42.2,3.4,42.2,4h-1.3c0-0.7,0.1-1.2,0.2-1.7
			c0.2-0.4,0.4-0.8,0.7-1.1c0.3-0.3,0.7-0.6,1.2-0.7s1-0.2,1.5-0.2c0.5,0,1,0.1,1.4,0.2c0.4,0.2,0.8,0.4,1.1,0.7
			c0.3,0.3,0.5,0.6,0.7,1C47.9,2.5,48,2.9,48,3.4c0,0.5-0.1,0.9-0.2,1.3c-0.2,0.3-0.4,0.6-0.6,0.9s-0.6,0.5-1,0.7
			c-0.4,0.2-0.8,0.4-1.2,0.7c-0.3,0.2-0.6,0.3-0.9,0.5c-0.3,0.2-0.6,0.4-0.8,0.6c-0.3,0.2-0.5,0.4-0.7,0.7c-0.2,0.2-0.3,0.5-0.4,0.8
			h5.6v1.2h-7.1C40.7,10,40.8,9.4,41,9z"/>
		<path class="st0" d="M54.7,10.9c-0.5,0-1-0.1-1.4-0.3c-0.4-0.2-0.8-0.5-1.1-0.8c-0.3-0.4-0.5-0.8-0.7-1.3
			c-0.2-0.5-0.2-1.1-0.2-1.7c0-0.6,0.1-1.2,0.3-1.7s0.4-0.9,0.7-1.3c0.3-0.3,0.7-0.6,1.1-0.8c0.4-0.2,0.9-0.3,1.3-0.3
			c0.5,0,1,0.1,1.4,0.4s0.7,0.5,1,0.9h0V0h1.2v10.7h-1.2V9.8h0c-0.3,0.4-0.6,0.7-1,0.9C55.7,10.8,55.3,10.9,54.7,10.9z M54.8,9.9
			c0.4,0,0.8-0.1,1.1-0.2s0.6-0.4,0.8-0.6c0.2-0.3,0.3-0.6,0.4-1c0.1-0.4,0.1-0.8,0.1-1.2c0-0.5-0.1-0.9-0.2-1.2s-0.3-0.7-0.5-1
			c-0.2-0.3-0.5-0.5-0.8-0.6c-0.3-0.2-0.7-0.2-1.1-0.2c-0.4,0-0.7,0.1-1,0.2c-0.3,0.2-0.5,0.4-0.7,0.6s-0.3,0.6-0.4,1
			s-0.1,0.8-0.1,1.2c0,0.4,0,0.8,0.1,1.2s0.2,0.7,0.4,1c0.2,0.3,0.4,0.5,0.7,0.6C54.1,9.9,54.4,9.9,54.8,9.9z"/>
		<path class="st0" d="M63.3,10.9c-0.6,0-1.1-0.1-1.6-0.3c-0.5-0.2-0.9-0.5-1.2-0.9c-0.3-0.4-0.6-0.8-0.7-1.3
			c-0.2-0.5-0.3-1-0.3-1.6c0-0.6,0.1-1.1,0.3-1.6s0.4-0.9,0.8-1.3c0.3-0.4,0.7-0.7,1.2-0.9c0.5-0.2,1-0.3,1.5-0.3
			c0.6,0,1.1,0.1,1.5,0.3c0.4,0.2,0.8,0.5,1.1,0.9c0.3,0.4,0.5,0.8,0.7,1.4c0.2,0.5,0.2,1.1,0.2,1.8h-6c0,0.4,0.1,0.8,0.2,1.1
			c0.1,0.3,0.3,0.6,0.5,0.9c0.2,0.3,0.5,0.4,0.8,0.6c0.3,0.1,0.6,0.2,1,0.2c0.6,0,1-0.1,1.4-0.4c0.4-0.3,0.6-0.7,0.8-1.2h1.2
			c-0.2,0.8-0.6,1.5-1.1,1.9C64.9,10.7,64.2,10.9,63.3,10.9z M63.3,3.7c-0.4,0-0.7,0.1-1,0.2C62,4,61.8,4.2,61.6,4.4
			c-0.2,0.2-0.4,0.5-0.5,0.8c-0.1,0.3-0.2,0.6-0.2,1h4.7c0-0.8-0.3-1.4-0.6-1.8C64.5,4,64,3.7,63.3,3.7z"/>
		<path class="st0" d="M71.3,10.9c-0.6,0-1.1-0.1-1.6-0.3s-0.9-0.5-1.2-0.9c-0.3-0.4-0.6-0.8-0.8-1.3c-0.2-0.5-0.3-1-0.3-1.6
			c0-0.6,0.1-1.1,0.3-1.6s0.4-0.9,0.8-1.3c0.3-0.4,0.7-0.7,1.2-0.9c0.5-0.2,1-0.3,1.6-0.3c0.9,0,1.7,0.2,2.2,0.7
			c0.6,0.5,0.9,1.1,1.1,2h-1.2c-0.1-0.5-0.3-0.9-0.7-1.2c-0.4-0.3-0.8-0.5-1.4-0.5c-0.4,0-0.8,0.1-1.1,0.2c-0.3,0.2-0.6,0.4-0.8,0.7
			s-0.4,0.6-0.5,1c-0.1,0.4-0.2,0.8-0.2,1.2c0,0.4,0.1,0.8,0.2,1.2s0.3,0.7,0.5,1c0.2,0.3,0.5,0.5,0.8,0.7c0.3,0.2,0.7,0.2,1.1,0.2
			c0.6,0,1.1-0.2,1.5-0.5c0.4-0.3,0.6-0.8,0.6-1.4h1.2c-0.1,0.9-0.4,1.7-1,2.2C73.1,10.7,72.3,10.9,71.3,10.9z"/>
		<path class="st0" d="M79.1,10.9c-0.6,0-1.1-0.1-1.6-0.3c-0.5-0.2-0.9-0.5-1.2-0.9c-0.3-0.4-0.6-0.8-0.7-1.3
			c-0.2-0.5-0.3-1-0.3-1.6c0-0.6,0.1-1.1,0.3-1.6S76,4.3,76.4,4c0.3-0.4,0.7-0.7,1.2-0.9c0.5-0.2,1-0.3,1.5-0.3
			c0.6,0,1.1,0.1,1.5,0.3C81,3.3,81.4,3.6,81.7,4c0.3,0.4,0.5,0.8,0.7,1.4c0.2,0.5,0.2,1.1,0.2,1.8h-6c0,0.4,0.1,0.8,0.2,1.1
			c0.1,0.3,0.3,0.6,0.5,0.9c0.2,0.3,0.5,0.4,0.8,0.6c0.3,0.1,0.6,0.2,1,0.2c0.6,0,1-0.1,1.4-0.4c0.4-0.3,0.6-0.7,0.8-1.2h1.2
			c-0.2,0.8-0.6,1.5-1.1,1.9C80.7,10.7,80,10.9,79.1,10.9z M79,3.7c-0.4,0-0.7,0.1-1,0.2c-0.3,0.1-0.5,0.3-0.7,0.5
			c-0.2,0.2-0.4,0.5-0.5,0.8c-0.1,0.3-0.2,0.6-0.2,1h4.7c0-0.8-0.3-1.4-0.6-1.8C80.3,4,79.7,3.7,79,3.7z"/>
		<path class="st0" d="M83.8,3H85v1.1h0c0.2-0.4,0.6-0.7,1-0.9c0.4-0.2,0.8-0.4,1.3-0.4c0.5,0,0.9,0.1,1.2,0.4
			c0.3,0.2,0.6,0.6,0.8,1h0c0.2-0.5,0.6-0.8,1-1c0.4-0.2,0.9-0.4,1.4-0.4c0.7,0,1.3,0.2,1.7,0.6c0.4,0.4,0.7,1,0.7,1.9v5.4h-1.2V5.3
			c0-0.5-0.1-0.9-0.4-1.1c-0.3-0.3-0.6-0.4-1-0.4c-0.3,0-0.5,0.1-0.7,0.2c-0.2,0.1-0.4,0.2-0.6,0.4c-0.2,0.2-0.3,0.4-0.4,0.7
			c-0.1,0.3-0.2,0.5-0.2,0.8v4.8h-1.2V5.3c0-0.5-0.1-0.9-0.4-1.1c-0.2-0.3-0.6-0.4-1-0.4c-0.2,0-0.5,0.1-0.7,0.2
			c-0.2,0.1-0.4,0.2-0.6,0.4c-0.2,0.2-0.3,0.4-0.5,0.7C85.1,5.3,85,5.6,85,5.9v4.8h-1.2V3z"/>
		<path class="st0" d="M99.4,10.9c-0.5,0-1-0.1-1.4-0.3c-0.4-0.2-0.7-0.5-1.1-1h0v1h-1.2V0h1.2v4.1h0c0.3-0.4,0.6-0.7,1-0.9
			c0.4-0.2,0.9-0.3,1.5-0.3c0.5,0,0.9,0.1,1.3,0.3c0.4,0.2,0.8,0.5,1,0.8s0.5,0.8,0.7,1.3s0.2,1.1,0.2,1.7c0,0.6-0.1,1.2-0.2,1.7
			c-0.1,0.5-0.4,0.9-0.7,1.3c-0.3,0.4-0.6,0.6-1.1,0.8C100.4,10.9,99.9,10.9,99.4,10.9z M99.3,9.9c0.4,0,0.7-0.1,1-0.2
			s0.5-0.4,0.7-0.6c0.2-0.3,0.3-0.6,0.4-1s0.1-0.8,0.1-1.2c0-0.4,0-0.8-0.1-1.2s-0.2-0.7-0.4-1s-0.4-0.5-0.7-0.6
			c-0.3-0.2-0.6-0.2-1-0.2c-0.4,0-0.8,0.1-1.1,0.2c-0.3,0.2-0.6,0.4-0.8,0.7s-0.4,0.6-0.5,1c-0.1,0.4-0.2,0.8-0.2,1.2
			c0,0.4,0.1,0.8,0.2,1.2s0.3,0.7,0.5,1c0.2,0.3,0.5,0.5,0.8,0.6C98.5,9.9,98.9,9.9,99.3,9.9z"/>
		<path class="st0" d="M107.3,10.9c-0.6,0-1.1-0.1-1.6-0.3s-0.9-0.5-1.2-0.9c-0.3-0.4-0.6-0.8-0.7-1.3c-0.2-0.5-0.3-1-0.3-1.6
			c0-0.6,0.1-1.1,0.3-1.6s0.4-0.9,0.8-1.3c0.3-0.4,0.7-0.7,1.2-0.9c0.5-0.2,1-0.3,1.5-0.3c0.6,0,1.1,0.1,1.5,0.3
			c0.4,0.2,0.8,0.5,1.1,0.9c0.3,0.4,0.5,0.8,0.7,1.4c0.2,0.5,0.2,1.1,0.2,1.8h-6c0,0.4,0.1,0.8,0.2,1.1c0.1,0.3,0.3,0.6,0.5,0.9
			c0.2,0.3,0.5,0.4,0.8,0.6c0.3,0.1,0.6,0.2,1,0.2c0.6,0,1-0.1,1.4-0.4c0.4-0.3,0.6-0.7,0.8-1.2h1.2c-0.2,0.8-0.6,1.5-1.1,1.9
			S108.1,10.9,107.3,10.9z M107.2,3.7c-0.4,0-0.7,0.1-1,0.2c-0.3,0.1-0.5,0.3-0.7,0.5c-0.2,0.2-0.4,0.5-0.5,0.8
			c-0.1,0.3-0.2,0.6-0.2,1h4.7c0-0.8-0.3-1.4-0.6-1.8C108.4,4,107.9,3.7,107.2,3.7z"/>
		<path class="st0" d="M113.2,4.3L113.2,4.3c0.3-0.4,0.6-0.7,1-1c0.4-0.3,0.9-0.4,1.4-0.4c0.1,0,0.2,0,0.3,0c0.1,0,0.1,0,0.2,0.1
			v1.2h0c-0.1,0-0.2,0-0.2-0.1c-0.1,0-0.2,0-0.3,0c-0.3,0-0.6,0.1-0.9,0.2c-0.3,0.1-0.5,0.3-0.7,0.5c-0.2,0.2-0.4,0.4-0.5,0.7
			s-0.2,0.6-0.2,1v4.3h-1.2V3h1.2V4.3z"/>
		<path class="st0" d="M119.5,9c0.2-0.5,0.5-0.9,0.9-1.3c0.4-0.4,0.8-0.7,1.2-1s0.9-0.5,1.3-0.8c0.3-0.2,0.6-0.4,0.9-0.5
			c0.3-0.2,0.5-0.4,0.7-0.6c0.2-0.2,0.3-0.4,0.4-0.6c0.1-0.2,0.1-0.5,0.1-0.8c0-0.6-0.2-1.1-0.6-1.5c-0.4-0.4-0.9-0.6-1.6-0.6
			c-0.4,0-0.7,0.1-0.9,0.2c-0.3,0.1-0.5,0.3-0.7,0.5c-0.2,0.2-0.3,0.5-0.4,0.8c-0.1,0.3-0.1,0.7-0.1,1.3h-1.3c0-0.7,0.1-1.2,0.2-1.7
			c0.2-0.4,0.4-0.8,0.7-1.1c0.3-0.3,0.7-0.6,1.2-0.7s1-0.2,1.5-0.2c0.5,0,1,0.1,1.4,0.2c0.4,0.2,0.8,0.4,1.1,0.7
			c0.3,0.3,0.5,0.6,0.7,1c0.2,0.4,0.2,0.8,0.2,1.3c0,0.5-0.1,0.9-0.2,1.3c-0.2,0.3-0.4,0.6-0.6,0.9c-0.3,0.3-0.6,0.5-1,0.7
			c-0.4,0.2-0.8,0.4-1.2,0.7c-0.3,0.2-0.6,0.3-0.9,0.5c-0.3,0.2-0.6,0.4-0.8,0.6c-0.3,0.2-0.5,0.4-0.7,0.7c-0.2,0.2-0.3,0.5-0.4,0.8
			h5.6v1.2h-7.1C119.1,10,119.3,9.4,119.5,9z"/>
		<path class="st0" d="M131.6,10.9c-0.6,0-1.2-0.1-1.7-0.4s-0.9-0.6-1.3-1.1s-0.6-1-0.8-1.7s-0.3-1.4-0.3-2.2c0-0.8,0.1-1.6,0.3-2.2
			c0.2-0.7,0.5-1.2,0.8-1.7c0.3-0.5,0.8-0.8,1.3-1.1s1-0.4,1.7-0.4c0.6,0,1.2,0.1,1.6,0.4s0.9,0.6,1.3,1.1s0.6,1,0.8,1.7
			c0.2,0.7,0.3,1.4,0.3,2.3c0,0.8-0.1,1.6-0.3,2.2s-0.4,1.2-0.8,1.7s-0.8,0.8-1.3,1.1S132.3,10.9,131.6,10.9z M131.7,9.9
			c0.9,0,1.6-0.4,2-1.1c0.4-0.8,0.7-1.8,0.7-3.1c0-0.7-0.1-1.2-0.2-1.8c-0.1-0.5-0.3-1-0.5-1.4c-0.2-0.4-0.5-0.7-0.8-0.9
			s-0.7-0.3-1.2-0.3c-0.9,0-1.6,0.4-2,1.1c-0.4,0.8-0.7,1.8-0.7,3.1c0,0.6,0.1,1.2,0.2,1.8c0.1,0.5,0.3,1,0.5,1.3
			c0.2,0.4,0.5,0.7,0.8,0.9S131.2,9.9,131.7,9.9z"/>
		<path class="st0" d="M137.1,9c0.2-0.5,0.5-0.9,0.9-1.3c0.4-0.4,0.8-0.7,1.2-1c0.4-0.3,0.9-0.5,1.3-0.8c0.3-0.2,0.6-0.4,0.9-0.5
			c0.3-0.2,0.5-0.4,0.7-0.6c0.2-0.2,0.3-0.4,0.4-0.6c0.1-0.2,0.2-0.5,0.2-0.8c0-0.6-0.2-1.1-0.6-1.5c-0.4-0.4-0.9-0.6-1.6-0.6
			c-0.4,0-0.7,0.1-0.9,0.2c-0.3,0.1-0.5,0.3-0.7,0.5c-0.2,0.2-0.3,0.5-0.4,0.8c-0.1,0.3-0.1,0.7-0.1,1.3h-1.3c0-0.7,0.1-1.2,0.2-1.7
			c0.2-0.4,0.4-0.8,0.7-1.1c0.3-0.3,0.7-0.6,1.2-0.7s1-0.2,1.5-0.2c0.5,0,1,0.1,1.4,0.2s0.8,0.4,1.1,0.7c0.3,0.3,0.5,0.6,0.7,1
			s0.2,0.8,0.2,1.3c0,0.5-0.1,0.9-0.2,1.3c-0.2,0.3-0.4,0.6-0.6,0.9c-0.3,0.3-0.6,0.5-1,0.7c-0.4,0.2-0.8,0.4-1.2,0.7
			c-0.3,0.2-0.6,0.3-0.9,0.5c-0.3,0.2-0.6,0.4-0.8,0.6s-0.5,0.4-0.7,0.7s-0.3,0.5-0.4,0.8h5.6v1.2h-7.1C136.7,10,136.8,9.4,137.1,9z
			"/>
		<path class="st0" d="M147.3,3.2h-2.2V2.4c0.3,0,0.6,0,0.9-0.1c0.3-0.1,0.5-0.2,0.8-0.3c0.2-0.2,0.4-0.4,0.6-0.6
			c0.2-0.3,0.2-0.6,0.3-1h1v10.3h-1.3V3.2z"/>
		<path class="st0" d="M150.4,12c0.2-0.1,0.3-0.2,0.5-0.4c0.1-0.2,0.2-0.5,0.2-0.9h-0.7V9.2h1.5v1.5c0,0.5-0.1,1-0.4,1.3
			s-0.6,0.5-1,0.6V12z"/>
	</g>
	<g>
		<path class="st0" d="M3.5,32.3c-1,0-1.8-0.2-2.3-0.6c-0.6-0.4-0.9-0.9-0.9-1.6h1.1c0.1,0.4,0.3,0.7,0.7,0.9
			c0.4,0.2,0.9,0.3,1.5,0.3c0.7,0,1.3-0.2,1.7-0.5c0.4-0.3,0.6-0.8,0.6-1.5v-1.1h0c-0.3,0.4-0.6,0.7-0.9,0.9
			c-0.3,0.2-0.8,0.3-1.4,0.3c-0.5,0-1-0.1-1.4-0.3c-0.4-0.2-0.8-0.5-1.1-0.8s-0.5-0.7-0.7-1.2c-0.2-0.5-0.2-1-0.2-1.5
			C0,25,0.1,24.5,0.3,24c0.2-0.5,0.4-0.9,0.7-1.2C1.3,22.5,1.6,22.2,2,22c0.4-0.2,0.8-0.3,1.3-0.3c0.6,0,1,0.1,1.4,0.3
			c0.4,0.2,0.7,0.5,1,0.9h0v-1h1.2v7.3c0,0.5-0.1,1-0.2,1.3C6.5,31,6.3,31.3,6,31.6c-0.3,0.2-0.7,0.4-1.1,0.6
			C4.5,32.2,4,32.3,3.5,32.3z M3.4,28.4c0.5,0,0.8-0.1,1.1-0.2c0.3-0.1,0.5-0.3,0.7-0.6c0.2-0.3,0.3-0.6,0.4-0.9
			c0.1-0.3,0.1-0.7,0.1-1.1c0-0.8-0.2-1.5-0.6-2s-1-0.7-1.8-0.7c-0.7,0-1.3,0.3-1.6,0.8c-0.4,0.5-0.5,1.2-0.5,2c0,0.8,0.2,1.5,0.6,2
			C2.2,28.2,2.7,28.4,3.4,28.4z"/>
		<path class="st0" d="M9.8,23.3L9.8,23.3c0.3-0.4,0.6-0.7,1-1c0.4-0.3,0.9-0.4,1.4-0.4c0.1,0,0.2,0,0.3,0c0.1,0,0.1,0,0.2,0.1v1.2
			h0c-0.1,0-0.2,0-0.2-0.1c-0.1,0-0.2,0-0.3,0c-0.3,0-0.6,0.1-0.9,0.2c-0.3,0.1-0.5,0.3-0.7,0.5c-0.2,0.2-0.4,0.4-0.5,0.7
			c-0.1,0.3-0.2,0.6-0.2,1v4.3H8.6V22h1.2V23.3z"/>
		<path class="st0" d="M19.5,29.8c-0.8,0-1.2-0.4-1.3-1.2h0c-0.1,0.2-0.3,0.3-0.4,0.4c-0.2,0.1-0.3,0.3-0.6,0.4s-0.4,0.2-0.7,0.3
			c-0.3,0.1-0.6,0.1-0.9,0.1c-0.4,0-0.7,0-1-0.1c-0.3-0.1-0.6-0.2-0.8-0.4c-0.2-0.2-0.4-0.4-0.6-0.7c-0.1-0.3-0.2-0.6-0.2-1
			c0-0.5,0.1-0.8,0.3-1.1c0.2-0.3,0.4-0.5,0.7-0.7c0.3-0.2,0.7-0.3,1.1-0.4c0.4-0.1,0.9-0.2,1.3-0.3c0.3,0,0.5-0.1,0.8-0.1
			s0.4-0.1,0.6-0.2s0.3-0.2,0.4-0.3s0.1-0.3,0.1-0.5c0-0.4-0.2-0.8-0.5-1c-0.3-0.2-0.7-0.4-1.3-0.4c-0.6,0-1.1,0.1-1.4,0.4
			c-0.3,0.3-0.5,0.7-0.5,1.3h-1.2c0-0.4,0.1-0.7,0.2-1s0.3-0.6,0.6-0.8c0.3-0.2,0.6-0.4,1-0.5c0.4-0.1,0.8-0.2,1.3-0.2
			c0.4,0,0.8,0,1.1,0.1s0.7,0.2,0.9,0.4c0.3,0.2,0.5,0.4,0.6,0.8c0.1,0.3,0.2,0.7,0.2,1.2V28c0,0.3,0.1,0.6,0.2,0.7
			c0.1,0.2,0.3,0.2,0.7,0.1h0v0.9c-0.1,0-0.2,0.1-0.3,0.1C19.8,29.8,19.7,29.8,19.5,29.8z M15.9,28.9c0.4,0,0.8-0.1,1.1-0.2
			c0.3-0.1,0.5-0.3,0.7-0.5c0.2-0.2,0.3-0.4,0.4-0.7c0.1-0.2,0.1-0.5,0.1-0.7v-1.3c-0.2,0.1-0.5,0.2-0.8,0.3c-0.3,0.1-0.7,0.2-1,0.2
			c-0.3,0.1-0.6,0.1-0.9,0.2c-0.3,0.1-0.5,0.1-0.7,0.3c-0.2,0.1-0.4,0.3-0.5,0.4c-0.1,0.2-0.2,0.4-0.2,0.7c0,0.3,0,0.5,0.1,0.6
			c0.1,0.2,0.2,0.3,0.4,0.4c0.1,0.1,0.3,0.2,0.5,0.2S15.7,28.9,15.9,28.9z"/>
		<path class="st0" d="M20.5,22h1.1v-2.4h1.2V22h1.5v1h-1.5v5c0,0.3,0.1,0.5,0.2,0.6c0.1,0.1,0.3,0.2,0.6,0.2c0.1,0,0.2,0,0.4,0
			c0.1,0,0.2,0,0.3-0.1h0v1.1c-0.1,0-0.3,0.1-0.5,0.1c-0.2,0-0.3,0-0.5,0c-0.5,0-0.9-0.1-1.2-0.3c-0.3-0.2-0.5-0.6-0.5-1.2V23h-1.1
			V22z"/>
		<path class="st0" d="M25.6,19h1.2v1.5h-1.2V19z M25.6,22h1.2v7.8h-1.2V22z"/>
		<path class="st0" d="M31.4,30c-1.1,0-1.9-0.2-2.5-0.7c-0.6-0.5-0.9-1.2-1-2h1.2c0,0.3,0.1,0.6,0.3,0.8c0.1,0.2,0.3,0.4,0.5,0.5
			c0.2,0.1,0.4,0.2,0.7,0.3c0.2,0.1,0.5,0.1,0.8,0.1c0.6,0,1.1-0.1,1.4-0.4c0.3-0.2,0.4-0.5,0.4-0.9c0-0.2,0-0.4-0.1-0.5
			c-0.1-0.1-0.2-0.3-0.4-0.4c-0.2-0.1-0.4-0.2-0.6-0.3c-0.3-0.1-0.6-0.1-0.9-0.2c-0.4-0.1-0.7-0.2-1.1-0.3c-0.4-0.1-0.7-0.2-0.9-0.4
			c-0.3-0.2-0.5-0.4-0.6-0.7c-0.2-0.3-0.2-0.6-0.2-1c0-0.6,0.2-1.2,0.7-1.6c0.5-0.4,1.2-0.6,2.1-0.6c1,0,1.7,0.2,2.2,0.6
			c0.5,0.4,0.8,1,0.9,1.8h-1.2c-0.1-0.5-0.2-0.9-0.5-1.1c-0.3-0.2-0.7-0.4-1.3-0.4c-0.6,0-1,0.1-1.2,0.3c-0.2,0.2-0.4,0.5-0.4,0.8
			c0,0.2,0,0.4,0.1,0.5c0.1,0.1,0.2,0.2,0.4,0.3s0.4,0.2,0.7,0.2c0.3,0.1,0.6,0.1,0.9,0.2c0.4,0.1,0.8,0.2,1.1,0.3s0.6,0.2,0.9,0.4
			c0.3,0.2,0.5,0.4,0.6,0.7c0.1,0.3,0.2,0.6,0.2,1.1c0,0.4-0.1,0.7-0.2,1s-0.4,0.5-0.6,0.7c-0.3,0.2-0.6,0.3-1,0.4S31.8,30,31.4,30z
			"/>
		<path class="st0" d="M37.5,22h1.1v-2.4h1.2V22h1.5v1h-1.5v5c0,0.3,0.1,0.5,0.2,0.6c0.1,0.1,0.3,0.2,0.6,0.2c0.1,0,0.2,0,0.4,0
			c0.1,0,0.2,0,0.3-0.1h0v1.1c-0.1,0-0.3,0.1-0.5,0.1c-0.2,0-0.3,0-0.5,0c-0.5,0-0.9-0.1-1.2-0.3c-0.3-0.2-0.5-0.6-0.5-1.2V23h-1.1
			V22z"/>
		<path class="st0" d="M45.8,29.9c-0.6,0-1.1-0.1-1.6-0.3c-0.5-0.2-0.9-0.5-1.2-0.9c-0.3-0.4-0.6-0.8-0.7-1.3
			c-0.2-0.5-0.3-1-0.3-1.6c0-0.6,0.1-1.1,0.3-1.6s0.4-0.9,0.8-1.3c0.3-0.4,0.7-0.7,1.2-0.9c0.5-0.2,1-0.3,1.5-0.3
			c0.6,0,1.1,0.1,1.5,0.3c0.4,0.2,0.8,0.5,1.1,0.9c0.3,0.4,0.5,0.8,0.7,1.4c0.2,0.5,0.2,1.1,0.2,1.8h-6c0,0.4,0.1,0.8,0.2,1.1
			c0.1,0.3,0.3,0.6,0.5,0.9c0.2,0.3,0.5,0.4,0.8,0.6c0.3,0.1,0.6,0.2,1,0.2c0.6,0,1-0.1,1.4-0.4c0.4-0.3,0.6-0.7,0.8-1.2h1.2
			c-0.2,0.8-0.6,1.5-1.1,1.9C47.4,29.7,46.7,29.9,45.8,29.9z M45.8,22.7c-0.4,0-0.7,0.1-1,0.2c-0.3,0.1-0.5,0.3-0.7,0.5
			c-0.2,0.2-0.4,0.5-0.5,0.8c-0.1,0.3-0.2,0.6-0.2,1H48c0-0.8-0.3-1.4-0.6-1.8C47,23,46.5,22.7,45.8,22.7z"/>
		<path class="st0" d="M56.6,30c-0.5,0-1-0.1-1.4-0.3c-0.4-0.2-0.7-0.5-1.1-1h0v1h-1.2V19h1.2v4.1h0c0.3-0.4,0.6-0.7,1-0.9
			s0.9-0.3,1.5-0.3c0.5,0,0.9,0.1,1.3,0.3c0.4,0.2,0.8,0.5,1,0.8s0.5,0.8,0.7,1.3c0.2,0.5,0.2,1.1,0.2,1.7c0,0.6-0.1,1.2-0.2,1.7
			c-0.1,0.5-0.4,0.9-0.7,1.3c-0.3,0.4-0.6,0.6-1.1,0.8C57.6,29.9,57.1,30,56.6,30z M56.5,28.9c0.4,0,0.7-0.1,1-0.2
			c0.3-0.2,0.5-0.4,0.7-0.6c0.2-0.3,0.3-0.6,0.4-1s0.1-0.8,0.1-1.2c0-0.4,0-0.8-0.1-1.2s-0.2-0.7-0.4-1c-0.2-0.3-0.4-0.5-0.7-0.6
			c-0.3-0.2-0.6-0.2-1-0.2c-0.4,0-0.8,0.1-1.1,0.2s-0.6,0.4-0.8,0.7s-0.4,0.6-0.4,1c-0.1,0.4-0.2,0.8-0.2,1.2c0,0.4,0.1,0.8,0.2,1.2
			c0.1,0.4,0.3,0.7,0.5,1c0.2,0.3,0.5,0.5,0.8,0.6C55.7,28.9,56.1,28.9,56.5,28.9z"/>
		<path class="st0" d="M64.5,29.9c-0.6,0-1.1-0.1-1.6-0.3c-0.5-0.2-0.9-0.5-1.2-0.9c-0.3-0.4-0.6-0.8-0.7-1.3
			c-0.2-0.5-0.3-1-0.3-1.6c0-0.6,0.1-1.1,0.3-1.6s0.4-0.9,0.8-1.3c0.3-0.4,0.7-0.7,1.2-0.9c0.5-0.2,1-0.3,1.5-0.3
			c0.6,0,1.1,0.1,1.5,0.3c0.4,0.2,0.8,0.5,1.1,0.9c0.3,0.4,0.5,0.8,0.7,1.4c0.2,0.5,0.2,1.1,0.2,1.8h-6c0,0.4,0.1,0.8,0.2,1.1
			c0.1,0.3,0.3,0.6,0.5,0.9c0.2,0.3,0.5,0.4,0.8,0.6c0.3,0.1,0.6,0.2,1,0.2c0.6,0,1-0.1,1.4-0.4c0.4-0.3,0.6-0.7,0.8-1.2h1.2
			c-0.2,0.8-0.6,1.5-1.1,1.9C66.1,29.7,65.3,29.9,64.5,29.9z M64.4,22.7c-0.4,0-0.7,0.1-1,0.2c-0.3,0.1-0.5,0.3-0.7,0.5
			c-0.2,0.2-0.4,0.5-0.5,0.8c-0.1,0.3-0.2,0.6-0.2,1h4.7c0-0.8-0.3-1.4-0.6-1.8C65.6,23,65.1,22.7,64.4,22.7z"/>
		<path class="st0" d="M68.5,28.8l4.3-5.7v0h-4.1V22h5.8v0.7l-4.5,5.9v0h4.6v1.1h-6.2V28.8z"/>
		<path class="st0" d="M78.9,29.9c-0.6,0-1.1-0.1-1.6-0.3s-0.9-0.5-1.2-0.9c-0.3-0.4-0.6-0.8-0.8-1.3c-0.2-0.5-0.3-1-0.3-1.6
			c0-0.6,0.1-1.1,0.3-1.6s0.4-0.9,0.8-1.3c0.3-0.4,0.7-0.7,1.2-0.9c0.5-0.2,1-0.3,1.6-0.3c0.6,0,1.1,0.1,1.6,0.3
			c0.5,0.2,0.9,0.5,1.2,0.9c0.3,0.4,0.6,0.8,0.7,1.3c0.2,0.5,0.3,1,0.3,1.6c0,0.6-0.1,1.1-0.3,1.6c-0.2,0.5-0.4,0.9-0.7,1.3
			c-0.3,0.4-0.7,0.7-1.2,0.9C80,29.8,79.5,29.9,78.9,29.9z M78.9,28.9c0.4,0,0.8-0.1,1.1-0.2c0.3-0.2,0.6-0.4,0.8-0.7
			c0.2-0.3,0.4-0.6,0.5-1s0.2-0.8,0.2-1.2c0-0.4-0.1-0.8-0.2-1.2c-0.1-0.4-0.3-0.7-0.5-1S80.3,23.2,80,23c-0.3-0.2-0.7-0.2-1.1-0.2
			c-0.4,0-0.8,0.1-1.1,0.2c-0.3,0.2-0.6,0.4-0.8,0.7s-0.4,0.6-0.5,1c-0.1,0.4-0.2,0.8-0.2,1.2c0,0.4,0.1,0.8,0.2,1.2s0.3,0.7,0.5,1
			c0.2,0.3,0.5,0.5,0.8,0.7C78.2,28.8,78.5,28.9,78.9,28.9z"/>
		<path class="st0" d="M87.2,29.9c-0.6,0-1.1-0.1-1.6-0.3c-0.5-0.2-0.9-0.5-1.2-0.9c-0.3-0.4-0.6-0.8-0.7-1.3
			c-0.2-0.5-0.3-1-0.3-1.6c0-0.6,0.1-1.1,0.3-1.6s0.4-0.9,0.8-1.3s0.7-0.7,1.2-0.9c0.5-0.2,1-0.3,1.5-0.3c0.6,0,1.1,0.1,1.5,0.3
			c0.4,0.2,0.8,0.5,1.1,0.9s0.5,0.8,0.7,1.4s0.2,1.1,0.2,1.8h-6c0,0.4,0.1,0.8,0.2,1.1s0.3,0.6,0.5,0.9c0.2,0.3,0.5,0.4,0.8,0.6
			c0.3,0.1,0.6,0.2,1,0.2c0.6,0,1-0.1,1.4-0.4c0.4-0.3,0.6-0.7,0.8-1.2h1.2c-0.2,0.8-0.6,1.5-1.1,1.9C88.8,29.7,88.1,29.9,87.2,29.9
			z M87.1,22.7c-0.4,0-0.7,0.1-1,0.2s-0.5,0.3-0.7,0.5c-0.2,0.2-0.4,0.5-0.5,0.8s-0.2,0.6-0.2,1h4.7c0-0.8-0.3-1.4-0.6-1.8
			C88.4,23,87.8,22.7,87.1,22.7z"/>
		<path class="st0" d="M94.2,25.5l-1.1,1.1v3.1h-1.2V19h1.2v6.3l3.4-3.3h1.5l-3,2.8l3.3,5H97L94.2,25.5z"/>
		<path class="st0" d="M102.1,29.9c-0.6,0-1.1-0.1-1.6-0.3c-0.5-0.2-0.9-0.5-1.2-0.9c-0.3-0.4-0.6-0.8-0.7-1.3
			c-0.2-0.5-0.3-1-0.3-1.6c0-0.6,0.1-1.1,0.3-1.6s0.4-0.9,0.8-1.3s0.7-0.7,1.2-0.9c0.5-0.2,1-0.3,1.5-0.3c0.6,0,1.1,0.1,1.5,0.3
			c0.4,0.2,0.8,0.5,1.1,0.9s0.5,0.8,0.7,1.4s0.2,1.1,0.2,1.8h-6c0,0.4,0.1,0.8,0.2,1.1s0.3,0.6,0.5,0.9c0.2,0.3,0.5,0.4,0.8,0.6
			c0.3,0.1,0.6,0.2,1,0.2c0.6,0,1-0.1,1.4-0.4c0.4-0.3,0.6-0.7,0.8-1.2h1.2c-0.2,0.8-0.6,1.5-1.1,1.9
			C103.7,29.7,103,29.9,102.1,29.9z M102,22.7c-0.4,0-0.7,0.1-1,0.2s-0.5,0.3-0.7,0.5c-0.2,0.2-0.4,0.5-0.5,0.8s-0.2,0.6-0.2,1h4.7
			c0-0.8-0.3-1.4-0.6-1.8C103.3,23,102.7,22.7,102,22.7z"/>
		<path class="st0" d="M108,23L108,23c0.3-0.4,0.6-0.7,1-0.9c0.4-0.2,0.9-0.3,1.4-0.3c0.8,0,1.4,0.2,1.9,0.6c0.5,0.4,0.7,1,0.7,1.9
			v5.4h-1.2v-5.3c0-0.5-0.2-0.9-0.5-1.2c-0.3-0.3-0.7-0.4-1.3-0.4c-0.3,0-0.6,0.1-0.9,0.2c-0.3,0.1-0.5,0.2-0.7,0.4
			c-0.2,0.2-0.3,0.4-0.4,0.7c-0.1,0.3-0.2,0.6-0.2,0.9v4.8h-1.2V22h1.2V23z"/>
	</g>
</g>
</svg>
