<?xml version="1.0" encoding="utf-8"?>
<!-- Generator: Adobe Illustrator 24.0.0, SVG Export Plug-In . SVG Version: 6.00 Build 0)  -->
<svg version="1.1" id="Laag_1" xmlns="http://www.w3.org/2000/svg" xmlns:xlink="http://www.w3.org/1999/xlink" x="0px" y="0px"
	 width="159.7px" height="16.7px" viewBox="0 0 159.7 16.7" style="enable-background:new 0 0 159.7 16.7;" xml:space="preserve">
<style type="text/css">
	.st0{fill:#FFFFFF;}
</style>
<g>
	<path class="st0" d="M6.6,9.9L6.6,9.9C6.3,10,6,10.2,5.6,10.2c-0.2,0-0.4,0.1-0.5,0.1c-0.2,0-0.4,0-0.5,0c-0.7,0-1.4-0.1-1.9-0.4
		C2,9.7,1.5,9.4,1.1,8.9C0.6,8.5,0.3,8,0,7.4c-0.3-0.6-0.4-1.3-0.4-2c0-0.8,0.1-1.5,0.4-2.2C0.3,2.5,0.7,2,1.2,1.5
		c0.5-0.5,1.1-0.8,1.7-1.1c0.7-0.3,1.4-0.4,2.2-0.4s1.5,0.1,2.2,0.4C7.9,0.7,8.5,1.1,9,1.5c0.5,0.5,0.9,1,1.1,1.7
		c0.3,0.6,0.4,1.3,0.4,2.1c0,0.9-0.1,1.7-0.4,2.4C9.9,8.4,9.5,9.1,9,9.8l-4.1,6.6H2.3L6.6,9.9z M8.4,5.3c0-0.5-0.1-0.9-0.2-1.3
		C8,3.5,7.8,3.2,7.5,2.9c-0.3-0.3-0.6-0.5-1-0.7C6.1,2,5.6,1.9,5.1,1.9C4.6,1.9,4.2,2,3.8,2.1C3.4,2.3,3,2.5,2.7,2.8
		C2.4,3.1,2.2,3.5,2.1,3.9C1.9,4.3,1.8,4.8,1.8,5.3c0,0.5,0.1,0.9,0.2,1.3C2.2,7,2.4,7.4,2.7,7.7C3,8,3.3,8.2,3.7,8.4
		c0.4,0.2,0.9,0.2,1.3,0.2c0.5,0,0.9-0.1,1.4-0.2C6.9,8.2,7.2,8,7.5,7.7C7.8,7.4,8,7,8.2,6.6C8.3,6.2,8.4,5.8,8.4,5.3z"/>
</g>
<g>
	<path class="st0" d="M13,8.8c0-0.3,0.1-0.7,0.2-1c0.1-0.3,0.3-0.6,0.5-0.8c0.2-0.2,0.5-0.4,0.8-0.5c0.3-0.1,0.6-0.2,1-0.2
		c0.3,0,0.7,0.1,1,0.2c0.3,0.1,0.6,0.3,0.8,0.5c0.2,0.2,0.4,0.5,0.5,0.8C18,8.1,18,8.5,18,8.8c0,0.4-0.1,0.7-0.2,1
		c-0.1,0.3-0.3,0.6-0.5,0.8c-0.2,0.2-0.5,0.4-0.8,0.5c-0.3,0.1-0.6,0.2-1,0.2c-0.4,0-0.7-0.1-1-0.2c-0.3-0.1-0.6-0.3-0.8-0.5
		c-0.2-0.2-0.4-0.5-0.5-0.8C13.1,9.5,13,9.2,13,8.8z"/>
</g>
<g>
	<path class="st0" d="M30.9,16.4H20.6v-2.1L26.9,8c0.5-0.5,0.9-1,1.2-1.5c0.3-0.5,0.5-1.1,0.5-1.8c0-0.4-0.1-0.8-0.2-1.1
		c-0.1-0.3-0.4-0.6-0.6-0.9c-0.3-0.2-0.6-0.4-0.9-0.5c-0.3-0.1-0.7-0.2-1.1-0.2c-0.8,0-1.5,0.3-2,0.8c-0.5,0.5-0.9,1.2-1,2l-2.1-0.4
		c0.1-0.6,0.3-1.2,0.6-1.7c0.3-0.5,0.7-1,1.1-1.3s1-0.7,1.6-0.9c0.6-0.2,1.2-0.3,1.9-0.3c0.7,0,1.3,0.1,1.9,0.3
		c0.6,0.2,1.1,0.5,1.6,0.9c0.5,0.4,0.8,0.8,1.1,1.4c0.3,0.6,0.4,1.2,0.4,2c0,0.5-0.1,1-0.2,1.4c-0.1,0.4-0.3,0.8-0.5,1.2
		c-0.2,0.4-0.5,0.8-0.8,1.1c-0.3,0.4-0.6,0.7-1,1l-5.2,5h7.8V16.4z"/>
</g>
<g>
	<path class="st0" d="M39.4,16.6c-0.2,0-0.5,0.1-0.7,0.1c-0.8,0-1.4-0.2-1.7-0.7c-0.3-0.5-0.5-1-0.5-1.7V6.5h-2.2V6h2.2V3H37v3h3
		v0.4h-3v7.8c0,0.7,0.2,1.2,0.5,1.5c0.3,0.3,0.8,0.5,1.4,0.5c0.4,0,0.8-0.1,1.1-0.2l0.1,0.4C39.9,16.5,39.7,16.5,39.4,16.6z"/>
	<path class="st0" d="M41.8,16.7l-0.4-0.2L48.2,0l0.4,0.2L41.8,16.7z"/>
	<path class="st0" d="M59.5,8.9c0.3-1,0.8-1.8,1.5-2.3c0.7-0.5,1.5-0.8,2.4-0.8c0.7,0,1.3,0.1,1.7,0.4c0.5,0.3,0.8,0.6,1.1,1
		c0.3,0.4,0.5,0.9,0.6,1.4c0.1,0.5,0.2,1.1,0.2,1.6v6.2h-0.5v-6.2c0-0.4,0-0.9-0.1-1.3c-0.1-0.5-0.3-0.9-0.5-1.3
		c-0.2-0.4-0.6-0.7-1-1c-0.4-0.3-0.9-0.4-1.5-0.4c-0.5,0-1,0.1-1.5,0.3c-0.5,0.2-0.9,0.6-1.2,1c-0.4,0.4-0.6,1-0.8,1.6
		c-0.2,0.6-0.3,1.3-0.3,2.1v5.2h-0.5v-6.2c0-0.4,0-0.9-0.1-1.3c-0.1-0.5-0.2-0.9-0.5-1.3c-0.2-0.4-0.5-0.7-0.9-1
		c-0.4-0.3-0.9-0.4-1.5-0.4c-0.5,0-1,0.1-1.5,0.3c-0.5,0.2-0.9,0.6-1.2,1c-0.4,0.4-0.6,1-0.8,1.6c-0.2,0.6-0.3,1.3-0.3,2.1v5.2h-0.5
		V8.6c0-0.2,0-0.4,0-0.6c0-0.2,0-0.5,0-0.7c0-0.2,0-0.5,0-0.7c0-0.2,0-0.4,0-0.6h0.5c0,0.1,0,0.3,0,0.6c0,0.2,0,0.5,0,0.7
		c0,0.3,0,0.5,0,0.8c0,0.2,0,0.5,0,0.7h0c0.1-0.5,0.4-0.9,0.6-1.3c0.3-0.4,0.6-0.7,0.9-1c0.3-0.3,0.7-0.5,1.1-0.6
		c0.4-0.1,0.8-0.2,1.2-0.2c0.5,0,1,0.1,1.4,0.2c0.4,0.2,0.7,0.4,1,0.7c0.3,0.3,0.5,0.6,0.7,1C59.3,8,59.4,8.4,59.5,8.9L59.5,8.9z"/>
</g>
<g>
	<path class="st0" d="M80.5,2.4H74l-0.1,4.2c0.3-0.1,0.6-0.2,1-0.2c0.4,0,0.7-0.1,1-0.1c0.8,0,1.5,0.1,2.1,0.3
		c0.7,0.2,1.2,0.6,1.7,1c0.5,0.4,0.8,1,1.1,1.6c0.3,0.6,0.4,1.3,0.4,2.1c0,0.8-0.1,1.6-0.4,2.3c-0.3,0.7-0.7,1.2-1.2,1.7
		c-0.5,0.5-1.1,0.8-1.7,1.1c-0.7,0.3-1.4,0.4-2.2,0.4c-1.2,0-2.3-0.3-3.1-0.9c-0.9-0.6-1.5-1.3-1.9-2.3l2-0.8
		c0.3,0.6,0.7,1.2,1.2,1.5c0.5,0.4,1.2,0.6,1.9,0.6c0.5,0,0.9-0.1,1.3-0.2c0.4-0.2,0.8-0.4,1.1-0.7c0.3-0.3,0.5-0.7,0.7-1.1
		c0.2-0.4,0.3-0.9,0.3-1.4c0-0.6-0.1-1.1-0.3-1.6c-0.2-0.4-0.5-0.8-0.8-1.1c-0.3-0.3-0.7-0.5-1.2-0.6C76.2,8.1,75.7,8,75.2,8
		c-0.6,0-1.2,0.1-1.8,0.2c-0.6,0.2-1.2,0.4-1.7,0.6l0.2-8.4h8.6V2.4z"/>
</g>
<g>
	<path class="st0" d="M84.1,8.8c0-0.3,0.1-0.7,0.2-1c0.1-0.3,0.3-0.6,0.5-0.8c0.2-0.2,0.5-0.4,0.8-0.5c0.3-0.1,0.6-0.2,1-0.2
		c0.3,0,0.7,0.1,1,0.2c0.3,0.1,0.6,0.3,0.8,0.5c0.2,0.2,0.4,0.5,0.5,0.8c0.1,0.3,0.2,0.6,0.2,1c0,0.4-0.1,0.7-0.2,1
		c-0.1,0.3-0.3,0.6-0.5,0.8c-0.2,0.2-0.5,0.4-0.8,0.5c-0.3,0.1-0.6,0.2-1,0.2c-0.4,0-0.7-0.1-1-0.2c-0.3-0.1-0.6-0.3-0.8-0.5
		c-0.2-0.2-0.4-0.5-0.5-0.8C84.2,9.5,84.1,9.2,84.1,8.8z"/>
</g>
<g>
	<path class="st0" d="M101.3,2.4h-6.5l-0.1,4.2c0.3-0.1,0.6-0.2,1-0.2c0.4,0,0.7-0.1,1-0.1c0.8,0,1.5,0.1,2.1,0.3
		c0.7,0.2,1.2,0.6,1.7,1c0.5,0.4,0.8,1,1.1,1.6c0.3,0.6,0.4,1.3,0.4,2.1c0,0.8-0.1,1.6-0.4,2.3c-0.3,0.7-0.7,1.2-1.2,1.7
		c-0.5,0.5-1.1,0.8-1.7,1.1c-0.7,0.3-1.4,0.4-2.2,0.4c-1.2,0-2.3-0.3-3.1-0.9c-0.9-0.6-1.5-1.3-1.9-2.3l2-0.8
		c0.3,0.6,0.7,1.2,1.2,1.5c0.5,0.4,1.2,0.6,1.9,0.6c0.5,0,0.9-0.1,1.3-0.2c0.4-0.2,0.8-0.4,1.1-0.7c0.3-0.3,0.5-0.7,0.7-1.1
		c0.2-0.4,0.3-0.9,0.3-1.4c0-0.6-0.1-1.1-0.3-1.6c-0.2-0.4-0.5-0.8-0.8-1.1c-0.3-0.3-0.7-0.5-1.2-0.6C97,8.1,96.5,8,96,8
		c-0.6,0-1.2,0.1-1.8,0.2c-0.6,0.2-1.2,0.4-1.7,0.6l0.2-8.4h8.6V2.4z"/>
</g>
<g>
	<path class="st0" d="M118.7,16.2h-10.4v-2.1l6.3-6.3c0.5-0.5,0.9-1,1.2-1.5c0.3-0.5,0.5-1.1,0.5-1.8c0-0.4-0.1-0.8-0.2-1.1
		c-0.1-0.3-0.4-0.6-0.6-0.9c-0.3-0.2-0.6-0.4-0.9-0.5c-0.3-0.1-0.7-0.2-1.1-0.2c-0.8,0-1.5,0.3-2,0.8c-0.5,0.5-0.9,1.2-1,2l-2.1-0.4
		c0.1-0.6,0.3-1.2,0.6-1.7s0.7-1,1.1-1.3c0.4-0.4,1-0.7,1.6-0.9c0.6-0.2,1.2-0.3,1.9-0.3c0.7,0,1.3,0.1,1.9,0.3
		c0.6,0.2,1.1,0.5,1.6,0.9c0.5,0.4,0.8,0.8,1.1,1.4c0.3,0.6,0.4,1.2,0.4,2c0,0.5-0.1,1-0.2,1.4c-0.1,0.4-0.3,0.8-0.5,1.2
		c-0.2,0.4-0.5,0.8-0.8,1.1c-0.3,0.4-0.6,0.7-1,1l-5.2,5h7.8V16.2z"/>
	<path class="st0" d="M127.3-0.1c0.9,0,1.8,0.2,2.4,0.7c0.7,0.4,1.2,1,1.7,1.8c0.4,0.8,0.8,1.6,1,2.7c0.2,1,0.3,2.1,0.3,3.3
		c0,1.2-0.1,2.3-0.3,3.3c-0.2,1-0.5,1.9-1,2.6c-0.4,0.8-1,1.3-1.7,1.8c-0.7,0.4-1.5,0.7-2.4,0.7c-0.9,0-1.8-0.2-2.4-0.7
		c-0.7-0.4-1.3-1-1.7-1.8c-0.4-0.8-0.8-1.6-1-2.6c-0.2-1-0.3-2.1-0.3-3.3c0-1.2,0.1-2.2,0.3-3.3c0.2-1,0.5-1.9,1-2.7
		c0.4-0.8,1-1.3,1.7-1.8C125.5,0.1,126.3-0.1,127.3-0.1z M127.3,1.7c-0.7,0-1.2,0.2-1.6,0.6c-0.4,0.4-0.7,1-1,1.6
		c-0.2,0.7-0.4,1.4-0.5,2.1c-0.1,0.8-0.1,1.5-0.1,2.2c0,0.7,0,1.4,0.1,2.2c0.1,0.8,0.3,1.5,0.5,2.1c0.2,0.6,0.6,1.2,1,1.6
		c0.4,0.4,1,0.6,1.6,0.6c0.6,0,1.2-0.2,1.6-0.6c0.4-0.4,0.7-1,1-1.6c0.2-0.6,0.4-1.3,0.5-2.1c0.1-0.8,0.1-1.5,0.1-2.2
		c0-0.7,0-1.4-0.1-2.2c-0.1-0.8-0.3-1.5-0.5-2.1c-0.2-0.7-0.6-1.2-1-1.6C128.4,1.9,127.9,1.7,127.3,1.7z"/>
	<path class="st0" d="M145.9,16.2h-10.4v-2.1l6.3-6.3c0.5-0.5,0.9-1,1.2-1.5c0.3-0.5,0.5-1.1,0.5-1.8c0-0.4-0.1-0.8-0.2-1.1
		c-0.1-0.3-0.4-0.6-0.6-0.9c-0.3-0.2-0.6-0.4-0.9-0.5c-0.3-0.1-0.7-0.2-1.1-0.2c-0.8,0-1.5,0.3-2,0.8c-0.5,0.5-0.9,1.2-1,2l-2.1-0.4
		c0.1-0.6,0.3-1.2,0.6-1.7c0.3-0.5,0.7-1,1.1-1.3c0.4-0.4,1-0.7,1.6-0.9c0.6-0.2,1.2-0.3,1.9-0.3c0.7,0,1.3,0.1,1.9,0.3
		c0.6,0.2,1.1,0.5,1.6,0.9c0.5,0.4,0.8,0.8,1.1,1.4c0.3,0.6,0.4,1.2,0.4,2c0,0.5-0.1,1-0.2,1.4c-0.1,0.4-0.3,0.8-0.5,1.2
		c-0.2,0.4-0.5,0.8-0.8,1.1c-0.3,0.4-0.6,0.7-1,1l-5.2,5h7.8V16.2z"/>
	<path class="st0" d="M154.4-0.1c0.9,0,1.8,0.2,2.4,0.7c0.7,0.4,1.2,1,1.7,1.8c0.4,0.8,0.8,1.6,1,2.7c0.2,1,0.3,2.1,0.3,3.3
		c0,1.2-0.1,2.3-0.3,3.3c-0.2,1-0.5,1.9-1,2.6c-0.4,0.8-1,1.3-1.7,1.8c-0.7,0.4-1.5,0.7-2.4,0.7s-1.8-0.2-2.4-0.7
		c-0.7-0.4-1.3-1-1.7-1.8c-0.4-0.8-0.8-1.6-1-2.6c-0.2-1-0.3-2.1-0.3-3.3c0-1.2,0.1-2.2,0.3-3.3c0.2-1,0.5-1.9,1-2.7
		c0.4-0.8,1-1.3,1.7-1.8C152.6,0.1,153.5-0.1,154.4-0.1z M154.4,1.7c-0.7,0-1.2,0.2-1.6,0.6c-0.4,0.4-0.7,1-1,1.6
		c-0.2,0.7-0.4,1.4-0.5,2.1c-0.1,0.8-0.1,1.5-0.1,2.2c0,0.7,0,1.4,0.1,2.2c0.1,0.8,0.3,1.5,0.5,2.1c0.2,0.6,0.6,1.2,1,1.6
		c0.4,0.4,1,0.6,1.6,0.6c0.6,0,1.2-0.2,1.6-0.6c0.4-0.4,0.7-1,1-1.6c0.2-0.6,0.4-1.3,0.5-2.1c0.1-0.8,0.1-1.5,0.1-2.2
		c0-0.7,0-1.4-0.1-2.2c-0.1-0.8-0.3-1.5-0.5-2.1c-0.2-0.7-0.6-1.2-1-1.6C155.6,1.9,155,1.7,154.4,1.7z"/>
</g>
</svg>
