<?xml version="1.0" encoding="utf-8"?>
<!-- Generator: Adobe Illustrator 19.1.0, SVG Export Plug-In . SVG Version: 6.00 Build 0)  -->
<svg version="1.1" id="Laag_1" xmlns="http://www.w3.org/2000/svg" xmlns:xlink="http://www.w3.org/1999/xlink" x="0px" y="0px"
	 viewBox="-354 484.9 298.2 33.1" style="enable-background:new -354 484.9 298.2 33.1;" xml:space="preserve">
<style type="text/css">
	.st0{fill:#FFFFFF;}
</style>
<g>
	<path class="st0" d="M-310.1,513.3h-6.3v-16.6h7.8v6.7h-1.4c-2.8,0-3.6-0.5-3.6-0.5s0,0.6,0,2.1c0,1.6,0,2.2,0,2.2s0.9-0.5,3.6-0.5
		h6.5v-13.5H-322v23.4h18.6l0-0.9c0.2-3.2,0.5-5.3,0.5-5.3C-304.3,512.2-305,513.3-310.1,513.3z"/>
	<path class="st0" d="M-327.7,487.4c0,0-1.1,0.1-4.4,0.1c-3.1,0-4.4-0.1-4.4-0.1l0.4,0.7c0.8,1.5,1,1.8,1,11.5h-11.5
		c0-9.7,0.2-10.1,1-11.5l0.4-0.7c0,0-1.1,0.1-4.4,0.1c-3.1,0-4.4-0.1-4.4-0.1l0.4,0.7c0.9,1.6,1,1.8,1,13.8c0,12.3-0.2,12.6-1,14.2
		l-0.4,0.7c0,0,1.3-0.1,4.4-0.1c3,0,4.4,0.1,4.4,0.1l-0.4-0.7c-0.9-1.6-1-1.8-1-12.3h11.5c0,10.4-0.3,10.8-1,12.3l-0.4,0.7
		c0,0,1.3-0.1,4.4-0.1c3,0,4.4,0.1,4.4,0.1l-0.4-0.7c-0.9-1.6-1-1.8-1-13.8c0-12.3,0.2-12.6,1-14.2L-327.7,487.4z"/>
	<path class="st0" d="M-286,492.7c-3.4,0-5.3,1.4-5.7,1.6l-5.4-1.6c0,0,0.4,2.4,0.4,11.2v1.6c0,8.9-0.4,9.3-1,10.5l-0.4,0.7
		c0,0,1.3-0.1,4.4-0.1c3,0,4.4,0.1,4.4,0.1l-0.4-0.7c-0.7-1.1-1.1-1.5-1.1-10.4v-8.2c0,0,1.3-1,3.2-1c2.5,0,4,1.4,5.3,3.6
		c0,0-0.1-1.1-0.1-3.4c0-2.1,0.1-3.1,0.1-3.1S-283.9,492.7-286,492.7z"/>
	<path class="st0" d="M-278.7,484.4v7.4c0,2.7-0.7,3.8-2.5,5.4h2.5v8.4c0,8.3-0.2,9-1,10.5l-0.4,0.7c0,0,1.3-0.1,4.4-0.1
		c3.1,0,4.4,0.1,4.4,0.1l-0.4-0.7c-0.9-1.6-1.1-2.7-1.1-10.6v-8h1.4c3,0,4,0.5,4,0.5s0-0.6,0-2.1s0-2.2,0-2.2s-0.9,0.5-4,0.5h-1.4
		v-6.2h1.6c3.1,0,4,0.9,4,0.9s0-0.8,0-2.1c0-1.4,0-2.1,0-2.1H-278.7z"/>
	<path class="st0" d="M-256.8,492.8c-6.4,0-8.8,3.3-8.8,7.1c0,3.4,1.8,5.2,4.6,6.6l2.8,1.5c1.9,1,2.9,1.7,2.9,3.2
		c0,2.1-1.9,2.4-3.6,2.4c-2.8,0-4.4-1.4-6-3.9c0,0,0.1,1.1,0.1,3.1c0,2.1-0.1,2.9-0.1,2.9s2,1.3,6.6,1.3c5.1,0,8.2-2.2,8.2-6.7
		c0-3.8-2.3-5.4-4.5-6.5l-3.4-1.8c-1.4-0.8-2.2-1.5-2.2-2.9s0.8-2.8,3.8-2.8c2.9,0,4.6,1.1,6.4,3.9c0,0-0.1-1.2-0.1-3.3
		c0-2,0.1-2.8,0.1-2.8S-252.3,492.8-256.8,492.8z"/>
	<path class="st0" d="M-235.3,513.7c-1.6,0-2.4-0.5-2.8-1.4c-0.4-0.7-0.5-1.5-0.5-3.3v-12.2h2.5c3.4,0,4,0.4,4,0.4s0-0.6,0-2.1
		c0-1.5,0-2.1,0-2.1s-0.7,0.5-4,0.5h-2.5v-5.1h-2.5c0,0-1,2.1-2.8,4.6c-1.8,2.5-3.2,3.8-3.2,3.9h2.7c0,0-0.1,3.5-0.1,12.2
		c0,3,0.3,4.7,1.1,5.9c0.9,1.3,2.4,2.3,5.3,2.3c5.2,0,6.2-3.2,6.2-4.6C-232,512.5-233,513.7-235.3,513.7z"/>
	<path class="st0" d="M-216.1,493.2c0.5,0.4,1.2,1.1,1.2,2.8c0,4.5-3.2,15.1-4.6,17.8c0,0-0.3-1.4-0.6-2.5l-2.3-8.9
		c-0.9-3.6-1.4-5.5-1.4-6.7c0-1.5,0.7-2.1,1.2-2.5c0,0-1.3,0.1-4.8,0.1c-3.2,0-4.6-0.1-4.6-0.1c1.4,1.2,2,3.5,3.8,9.5l4.1,14
		c0,0,1.4-0.1,3.9-0.1c2.5,0,3.9,0.1,3.9,0.1c4.6-8.8,5.7-18.7,6.7-21.2c0.5-1.3,0.9-1.8,1.5-2.3c0,0-1.2,0-3.8,0
		C-214.7,493.3-216.1,493.2-216.1,493.2z"/>
	<path class="st0" d="M-187.4,509.5c0-4,0.1-5.7,0.1-7.6c0-2.7,0-4.9-1.4-6.6c-1-1.3-3-2.5-7.8-2.5c-5.5,0-7.8,1.2-7.8,1.2
		s0.1,0.9,0.1,2.6c0,1.6-0.1,2.6-0.1,2.6c1.8-2.5,4.8-2.9,6.3-2.9c2.3,0,3.6,0.6,4.2,1.4c0.8,0.9,0.8,2.3,0.8,3.8v1.4
		c0,0-1.6-0.2-4-0.2c-3.6,0-9.7,0.4-9.7,7.5c0,3,1.4,7,7.2,7c2.5,0,5.7-0.6,6.8-5l-0.2,4.9l6.9-1l-0.4-0.7
		C-187.1,513.9-187.4,512.5-187.4,509.5z M-193,511.8c0,0-0.8,1.9-4,1.9c-2.1,0-3.8-1.2-3.8-3.9c0-3.9,3.3-4,5.2-4
		c2,0,2.7,0.2,2.7,0.2V511.8z"/>
	<path class="st0" d="M-160,515.2c-1.2-1.7-1.8-4.3-3.5-7.1c-2-3.5-4.8-4.2-4.8-4.2c5.5-3.4,6.1-7.1,7.9-9.2
		c0.6-0.7,1.3-1.2,1.8-1.5c0,0-2.2,0.1-4.9,0.1c-2.1,0-4.2-0.1-4.2-0.1c0.3,0.2,0.9,0.7,0.9,2c0,4.6-6.8,9.4-7.2,9.6
		c0.2,0.1,2.8,1.4,4.9,4.4c2.1,3.1,2.4,7.4,2.4,7.4h4.1c2,0,4.2,0,4.2,0C-159.1,516.4-159.5,515.9-160,515.2z"/>
	<path class="st0" d="M-174.7,505.6v-12.5c0-4.2,0.1-8.7,0.1-8.7l-7.3,1l0.4,0.7c0.7,1.4,1,2.6,1,10v9.5c0,8.4-0.3,9.1-1,10.5
		l-0.4,0.7c0,0,1.2-0.1,4.3-0.1s4.3,0.1,4.3,0.1l-0.4-0.7C-174.5,514.4-174.7,513.1-174.7,505.6z"/>
	<path class="st0" d="M-137.5,509.5c0-4,0.1-5.7,0.1-7.6c0-2.7,0-4.9-1.4-6.6c-1-1.3-3-2.5-7.8-2.5c-5.5,0-7.8,1.2-7.8,1.2
		s0.1,0.9,0.1,2.6c0,1.6-0.1,2.6-0.1,2.6c1.8-2.5,4.8-2.9,6.3-2.9c2.3,0,3.6,0.6,4.2,1.4c0.8,0.9,0.8,2.3,0.8,3.8v1.4
		c0,0-1.6-0.2-4-0.2c-3.6,0-9.7,0.4-9.7,7.5c0,3,1.4,7,7.2,7c2.5,0,5.7-0.6,6.8-5l-0.2,4.9l6.9-1l-0.4-0.7
		C-137.2,513.9-137.5,512.5-137.5,509.5z M-143.1,511.8c0,0-0.8,1.9-4,1.9c-2.1,0-3.8-1.2-3.8-3.9c0-3.9,3.3-4,5.2-4
		c2,0,2.7,0.2,2.7,0.2V511.8z"/>
	<path class="st0" d="M-110.4,505.6v-1.3c0-4.8-0.2-6.8-1.1-8.5c-1-1.9-3.1-3-6.2-3c-3.2,0-6.1,1.2-7.1,5.6l0.2-5.5l-7.2,1l0.4,0.7
		c0.7,1.2,1,2.3,1,9.4v1.5c0,8.9-0.4,9.3-1,10.5l-0.4,0.7c0,0,1.3-0.1,4.4-0.1c3,0,4.3,0.1,4.3,0.1l-0.4-0.7c-0.7-1.2-1-1.6-1-10.5
		v-6.8c0,0,0.6-2.2,4.2-2.2c2.1,0,2.9,0.9,3.4,1.6c0.6,1,0.8,2.8,0.8,7.4c0,8.9-0.4,9.2-1,10.4l-0.4,0.7c0,0,1.2-0.1,4.3-0.1
		c3,0,4.3,0.1,4.3,0.1l-0.4-0.7C-110,514.8-110.4,514.5-110.4,505.6z"/>
	<path class="st0" d="M-94.3,513.7c-1.6,0-2.4-0.5-2.8-1.4c-0.4-0.7-0.5-1.5-0.5-3.3v-12.2h2.5c3.4,0,4,0.4,4,0.4s0-0.6,0-2.1
		c0-1.5,0-2.1,0-2.1s-0.7,0.5-4,0.5h-2.5v-5.1h-2.5c0,0-1,2.1-2.8,4.6c-1.8,2.5-3.2,3.8-3.2,3.9h2.7c0,0-0.1,3.5-0.1,12.2
		c0,3,0.3,4.7,1.1,5.9c0.9,1.3,2.4,2.3,5.3,2.3c5.2,0,6.2-3.2,6.2-4.6C-91,512.5-92,513.7-94.3,513.7z"/>
	<path class="st0" d="M-81.3,508.7v-4.4c0-8.8,0.4-11.4,0.4-11.4l-7.6,1l0.4,0.7c0.7,1.2,1,2.3,1,9.4c0,2.8-0.1,6.6-0.1,8.9
		c0,1.9,0.2,3.9,3.7,3.9c3.2,0,4.1-1.1,4.1-1.1C-81.1,514.8-81.3,513.6-81.3,508.7z"/>
	<polygon class="st0" points="-79.7,487.8 -84.1,484 -88.6,487.8 -84.1,491.6 	"/>
	<path class="st0" d="M-63.3,513.4c-5.6,0-6.6-4.4-6.6-7.1c0,0,1.7,0.5,4.4,0.5c7.3,0,9.5-3,9.5-7.2c0-5.6-5.5-6.9-9.6-6.9
		c-4.1,0-10.4,1.8-10.4,12.6c0,6.7,3,11.9,11,11.9c6.4,0,8.7-3.2,8.7-6.4C-56.4,511-57.9,513.4-63.3,513.4z M-65.5,495.8
		c3.3,0,3.7,2.4,3.7,3.9c0,3.5-2.5,3.9-4.6,3.9c-2.6,0-3.6-0.3-3.6-0.3C-70,497.8-68.5,495.8-65.5,495.8z"/>
</g>
</svg>
