<?xml version="1.0" encoding="utf-8"?>
<!-- Generator: Adobe Illustrator 19.1.0, SVG Export Plug-In . SVG Version: 6.00 Build 0)  -->
<svg version="1.1" id="Laag_1" xmlns="http://www.w3.org/2000/svg" xmlns:xlink="http://www.w3.org/1999/xlink" x="0px" y="0px"
	 viewBox="0 0 268.3 13.8" style="enable-background:new 0 0 268.3 13.8;" xml:space="preserve">
<path d="M12.7,1c-0.5,1.1-1.5,7.8-4.1,12.5c0,0-0.6,0-1.8,0c-1.1,0-1.8,0-1.8,0L2.3,4.5C1.5,1.8,1.2,0.6,0.5,0c0,0,0.7,0,2.2,0
	c1.7,0,2.4,0,2.4,0C4.8,0.1,4.5,0.5,4.5,1.2c0,0.7,0.3,1.8,0.7,3.2L7,11.1c0.2,0.5,0.2,1.1,0.2,1.1c0.9-1.8,2.8-8,2.8-10.8
	c0-0.9-0.3-1.2-0.5-1.4c0,0,0.7,0,2,0c1.2,0,1.8,0,1.8,0C13.1,0.2,13,0.4,12.7,1z M23.6,13.5c-1,0-2.3,0-2.3,0
	c0.2-0.2,0.6-0.5,0.6-1.2c0-0.6-0.3-1.6-0.6-2.8l-0.2-0.9l-2,1.8l-2-1.8l-0.2,0.9c-0.3,1.2-0.6,2.2-0.6,2.8c0,0.7,0.4,1,0.6,1.2
	c0,0-0.9,0-1.9,0c-1,0-1.9,0-1.9,0c0.7-0.7,1.1-1.9,1.8-4.5l2.3-7.9c0.1-0.2,0.1-0.5,0.1-0.7c0-0.2-0.1-0.4-0.1-0.4H22
	c0,0-0.1,0.1-0.1,0.4c0,0.2,0.1,0.5,0.1,0.7L24.1,9c0.7,2.7,1.1,3.8,1.8,4.5C25.9,13.5,24.7,13.5,23.6,13.5z M19.4,2.2
	c-0.2-0.8-0.3-1.3-0.3-1.4c0,0.1-0.1,0.6-0.3,1.4l-1.2,4.5l1.5,1.4l1.5-1.4L19.4,2.2z M36.8,13.5c-1.4,0-1.9,0-1.9,0
	s0.5-1.8,0.5-6.6c0-3.8-0.6-5.4-3.2-5.4c-1.1,0-1.7,0.3-1.7,0.3v5.3c0,5.3,0.1,5.3,0.5,6.1l0.2,0.3c0,0-0.6,0-2,0c-1.4,0-2,0-2,0
	l0.2-0.3c0.4-0.7,0.5-0.9,0.5-6.6c0-4.5-0.2-5.2-0.4-5.6c0,0,1.8-1.3,5.2-1.3c5.2,0,5.7,2.9,5.7,6.4c0,2.6-0.2,4.2-0.2,5.6
	c0,1,0.4,1.4,0.8,1.7C38.7,13.5,38.2,13.5,36.8,13.5z M55,13.5c-1.4,0-1.9,0-1.9,0s0.5-1.8,0.5-6.6c0-3.8-0.6-5.4-3.2-5.4
	c-1.1,0-1.7,0.3-1.7,0.3v5.3c0,5.3,0.1,5.3,0.5,6.1l0.2,0.3c0,0-0.6,0-2,0c-1.4,0-2,0-2,0l0.2-0.3c0.4-0.7,0.5-0.9,0.5-6.6
	c0-4.5-0.2-5.2-0.4-5.6c0,0,1.8-1.3,5.2-1.3c5.2,0,5.7,2.9,5.7,6.4c0,2.6-0.2,4.2-0.2,5.6c0,1,0.4,1.4,0.8,1.7
	C57,13.5,56.4,13.5,55,13.5z M70.9,0.3c-0.4,0.7-0.5,0.9-0.5,6.6c0,4.5,0.2,5.3,0.5,5.7c0,0-1.9,1.2-5.4,1.2c-5.4,0-5.8-2.8-5.8-6.4
	c0-2,0.1-4.2,0.1-5.3c0-0.7,0-1.5-0.8-1.8c0,0,0.7-0.3,1.7-0.3c1.9,0,2,0.8,2,1.7c0,0.9-0.2,3.2-0.2,4.9c0,3.3,0.1,5.4,3,5.4
	c1.5,0,2.1-0.3,2.1-0.3V6.4c0-5.3-0.1-5.3-0.5-6.1l-0.2-0.3c0,0,0.6,0,2,0c1.4,0,2,0,2,0L70.9,0.3z M81.3,12.8l0,0.7h-6.4
	c-1,0-1.5,0-1.5,0l0.2-0.3c0.4-0.7,0.5-0.9,0.5-6.6c0-5.5-0.1-5.6-0.5-6.4L73.4,0c0,0,0.6,0,2.1,0c1.5,0,2,0,2,0l-0.2,0.3
	c-0.4,0.7-0.5,1-0.5,5.8v5.8h1.4c2.4,0,2.7-0.6,3.4-1.6C81.5,10.3,81.4,11,81.3,12.8z M82.1,7.7V5.9H87v1.8H82.1z M102.7,2.6
	c0,0-0.1-0.2-0.7-0.5c-0.5-0.3-1.2-0.5-2.1-0.5h-1.1v5.3c0,5.5,0.1,5.6,0.5,6.4l0.2,0.3c0,0-0.6,0-2,0c-1.4,0-2,0-2,0l0.2-0.3
	c0.4-0.7,0.5-0.9,0.5-6.6V1.6H95c-0.9,0-1.6,0.2-2.1,0.5c-0.5,0.3-0.7,0.5-0.7,0.5c0,0,0.1-0.5,0.1-1.4c0-0.8,0-1.2,0-1.2h10.4
	c0,0,0,0.4,0,1.2C102.6,2.1,102.7,2.5,102.7,2.6z M109.7,13.8c-3.3-0.3-6.2-2.3-6.2-7c0-4.7,3.2-6.8,6.3-7c3.3,0.3,6.2,2.3,6.2,7
	C116,11.4,112.8,13.5,109.7,13.8z M109.8,1.4c-1.4,0.3-3.3,1.3-3.3,5.4c0,4.1,1.8,5.1,3.2,5.3c1.5-0.3,3.3-1.3,3.3-5.4
	C113,2.7,111.2,1.7,109.8,1.4z M127.3,2.6c0,0-0.1-0.2-0.7-0.5c-0.5-0.3-1.2-0.5-2.1-0.5h-1.1v5.3c0,5.5,0.1,5.6,0.5,6.4l0.2,0.3
	c0,0-0.6,0-2,0c-1.4,0-2,0-2,0l0.2-0.3c0.4-0.7,0.5-0.9,0.5-6.6V1.6h-1.1c-0.9,0-1.6,0.2-2.1,0.5c-0.5,0.3-0.7,0.5-0.7,0.5
	c0,0,0.1-0.5,0.1-1.4c0-0.8,0-1.2,0-1.2h10.4c0,0,0,0.4,0,1.2C127.3,2.1,127.3,2.5,127.3,2.6z M137.4,13.5c-0.8,0-1.9-0.1-2.6-0.1
	c-1.1,0-1.7,0-1.7,0l0.2-0.3c0.4-0.7,0.5-0.9,0.5-6.6c0-5.5-0.1-5.6-0.5-6.4L133.1,0c0,0,0.6,0,1.7,0c0.8,0,2-0.1,2.8-0.1
	c2.6,0,7.5,0.2,7.5,6.5C145.1,13.4,140.2,13.5,137.4,13.5z M137.6,1.5c-0.7,0-1.1,0-1.1,0v10.3c0,0,0.5,0.1,1.1,0.1
	c2.7,0,4.6-1.2,4.6-5.3C142.1,2.8,140.4,1.5,137.6,1.5z M158.9,0.3c-0.4,0.7-0.5,0.9-0.5,6.6c0,4.5,0.2,5.3,0.5,5.7
	c0,0-1.9,1.2-5.4,1.2c-5.4,0-5.8-2.8-5.8-6.4c0-2,0.1-4.2,0.1-5.3c0-0.7,0-1.5-0.8-1.8c0,0,0.7-0.3,1.7-0.3c1.9,0,2,0.8,2,1.7
	c0,0.9-0.2,3.2-0.2,4.9c0,3.3,0.1,5.4,3,5.4c1.5,0,2.1-0.3,2.1-0.3V6.4c0-5.3-0.1-5.3-0.5-6.1L155-0.1c0,0,0.6,0,2,0s2,0,2,0
	L158.9,0.3z M165.4,13.5c0,0-0.6,0-2,0c-1.4,0-2,0-2,0l0.2-0.3c0.4-0.7,0.5-0.9,0.5-6.6c0-5.5-0.1-5.6-0.5-6.4L161.3,0
	c0,0,0.6,0,2,0c1.5,0,2,0,2,0l-0.2,0.3c-0.4,0.7-0.5,0.9-0.5,6.6c0,5.5,0.1,5.6,0.5,6.4L165.4,13.5z M177.2,12.9l0,0.6h-10v-0.3
	c0-1.9,0.8-3.4,2.2-5.1l3.3-3.9c1-1.2,1.3-1.8,1.4-2.5h-3.6c-0.9,0-1.6,0.2-2.1,0.5c-0.5,0.3-0.7,0.5-0.7,0.5c0,0,0.1-0.4,0.1-1.4
	c0-0.8,0-1.2,0-1.2h9.5v0.3c0,2-0.8,3.4-2.2,5.1l-3.3,3.9c-0.9,1.1-1.3,1.7-1.3,2.5h3.8c2.4,0,2.7-0.6,3.4-1.6
	C177.5,10.2,177.3,11.5,177.2,12.9z M187.7,12.7l0,0.6c0,0-0.9,0.2-3.2,0.2c-2.3,0-3.2-0.2-4-0.9c-0.9-0.8-0.9-1.7-0.9-3.5V4.6
	c0-1.8,0.1-2.8,0.9-3.6c0.8-0.7,1.7-1,4-1c2.2,0,3.1,0.2,3.1,0.2s0,0.4,0,1.2c0,0.9,0,1.3,0,1.3c0,0-0.1-0.2-0.6-0.5
	c-0.4-0.2-1.2-0.5-2.2-0.5c-0.8,0-1.8,0.1-2.2,0.8c-0.3,0.4-0.3,0.8-0.3,2.2v1.3h2.1c0.9,0,1.6-0.1,2.1-0.4c0.5-0.3,0.6-0.5,0.7-0.5
	c0,0-0.1,0.6-0.1,1.7c0,1.1,0.1,1.6,0.1,1.7c0,0-0.2-0.2-0.7-0.5c-0.5-0.3-1.2-0.4-2.1-0.4h-2.1V9c0,1.3,0.1,1.8,0.3,2.2
	c0.4,0.7,1.5,0.7,2.2,0.7c1.8,0,2.4-0.7,3.1-1.7C188,10.2,187.8,11.2,187.7,12.7z M201.9,0.3c-0.3,0.7-0.5,0.9-0.5,6.6v6.7
	c0,0-0.5-0.1-1.5-0.1c-1.1,0-1.9,0.1-1.9,0.1l-4.9-9.7c-0.3-0.6-0.5-1.3-0.5-1.4v4.4c0,5.5,0.1,5.6,0.5,6.4l0.2,0.3c0,0-0.5,0-1.7,0
	c-1.2,0-1.7,0-1.7,0l0.2-0.3c0.3-0.7,0.5-0.9,0.5-6.6c0-5.5-0.1-5.6-0.5-6.4L190,0c0,0,0.6,0,2.1,0c1.3,0,1.9,0,1.9,0l4.8,9.7
	c0.4,0.8,0.5,1.4,0.5,1.4V6.6c0-5.5-0.1-5.6-0.5-6.4L198.8,0c0,0,0.5,0,1.7,0c1.2,0,1.7,0,1.7,0L201.9,0.3z M208.7,13.5
	c-0.8,0-1.9-0.1-2.6-0.1c-1.1,0-1.7,0-1.7,0l0.2-0.3c0.4-0.7,0.5-0.9,0.5-6.6c0-5.5-0.1-5.6-0.5-6.4L204.3,0c0,0,0.6,0,1.7,0
	c0.8,0,2-0.1,2.8-0.1c2.6,0,7.5,0.2,7.5,6.5C216.3,13.4,211.4,13.5,208.7,13.5z M208.9,1.5c-0.7,0-1.1,0-1.1,0v10.3
	c0,0,0.5,0.1,1.1,0.1c2.7,0,4.6-1.2,4.6-5.3C213.4,2.8,211.6,1.5,208.9,1.5z M224.6,8.3c-1.3,0-2.1-0.6-2.1-1.3c0,0,0.2,0,0.5,0
	c1.2,0,2.5-0.3,2.5-2.9c0-1.8-0.6-2.7-2.6-2.7c-0.7,0-1.1,0-1.1,0v6.3c0,4.5,0.1,4.7,0.5,5.4l0.2,0.3c0,0-0.6,0-2.1,0
	c-1.4,0-2,0-2,0l0.2-0.3c0.4-0.7,0.5-0.9,0.5-6.6c0-5.5-0.1-5.6-0.5-6.4L218.4,0c0,0,0.6,0,1.6,0c0.8,0,2.2-0.1,3.1-0.1
	c1.9,0,5.3,0.1,5.3,4.1C228.4,7.2,226.4,8.3,224.6,8.3z M236.3,13.8c-3.3-0.3-6.2-2.3-6.2-7c0-4.7,3.2-6.8,6.3-7
	c3.3,0.3,6.2,2.3,6.2,7C242.6,11.4,239.4,13.5,236.3,13.8z M236.4,1.4c-1.4,0.3-3.3,1.3-3.3,5.4c0,4.1,1.8,5.1,3.2,5.3
	c1.5-0.3,3.3-1.3,3.3-5.4C239.7,2.7,237.9,1.7,236.4,1.4z M250.7,13.8c-3.3-0.3-6.2-2.3-6.2-7c0-4.7,3.2-6.8,6.3-7
	c3.3,0.3,6.2,2.3,6.2,7C257,11.4,253.8,13.5,250.7,13.8z M250.8,1.4c-1.4,0.3-3.3,1.3-3.3,5.4c0,4.1,1.8,5.1,3.2,5.3
	c1.5-0.3,3.3-1.3,3.3-5.4C254,2.7,252.3,1.7,250.8,1.4z M268.3,2.6c0,0-0.1-0.2-0.7-0.5c-0.5-0.3-1.2-0.5-2.1-0.5h-1.1v5.3
	c0,5.5,0.1,5.6,0.5,6.4l0.2,0.3c0,0-0.6,0-2,0s-2,0-2,0l0.2-0.3c0.4-0.7,0.5-0.9,0.5-6.6V1.6h-1.1c-0.9,0-1.6,0.2-2.1,0.5
	c-0.5,0.3-0.7,0.5-0.7,0.5c0,0,0.1-0.5,0.1-1.4c0-0.8,0-1.2,0-1.2h10.4c0,0,0,0.4,0,1.2C268.3,2.1,268.3,2.5,268.3,2.6z"/>
</svg>
