<?xml version="1.0" encoding="utf-8"?>
<!-- Generator: Adobe Illustrator 24.3.0, SVG Export Plug-In . SVG Version: 6.00 Build 0)  -->
<svg version="1.1" id="Laag_1" xmlns:v="https://vecta.io/nano"
	 xmlns="http://www.w3.org/2000/svg" xmlns:xlink="http://www.w3.org/1999/xlink" x="0px" y="0px" width="406.4px" height="185.5px"
	 viewBox="0 0 406.4 185.5" style="enable-background:new 0 0 406.4 185.5;" xml:space="preserve">
<style type="text/css">
	.st0{fill:#6A3F24;}
</style>
<g>
	<path class="st0" d="M24.1,33.2L21.5,26H9.8l-2.6,7.2H0L12.3,0h7.3l12.1,33.2H24.1z M12.2,19.5h6.9l-3-8.3
		c-0.1-0.2-0.1-0.3-0.1-0.5v-0.4c0-0.2-0.1-0.2-0.2-0.2h0L12.2,19.5z"/>
	<path class="st0" d="M70.6,0h7v33.2h-7.5L55.3,10.4h-0.1c-0.1,0-0.1,0-0.2,0.1c0,0.1-0.1,0.1,0,0.2c0.3,1,0.5,2,0.5,2.9v19.6h-7V0
		H56l14.8,22.8h0.1c0.1,0,0.1,0,0.2-0.1c0-0.1,0.1-0.1,0-0.2c-0.3-1-0.5-2-0.5-2.8V0z"/>
	<path class="st0" d="M105.8,26.8c0.3,0.3,0.5,0.9,0.5,1.7v4.8h-0.6c-2.9,0-5-0.9-6.3-2.8c-2,2.1-5,3.2-8.8,3.2
		c-2.5,0-4.4-0.7-5.9-2c-1.5-1.3-2.2-3.1-2.2-5.3c0-2.2,0.7-4,2.1-5.4c1.4-1.4,3.5-2.4,6.4-2.8c3.6-0.4,6-1,7.2-1.7v-0.1
		c0-0.8-0.4-1.5-1.1-2s-1.7-0.8-2.8-0.8c-0.6,0-1.2,0-1.7,0.1c-0.5,0.1-1,0.2-1.5,0.4s-0.8,0.3-1,0.4c-0.2,0.1-0.5,0.3-1,0.5
		c-0.4,0.3-0.7,0.4-0.7,0.4c-0.6,0.3-1.1,0.4-1.7,0.3s-1-0.3-1.3-0.8l-2-2.9c0.3-0.4,0.8-0.8,1.3-1.3c0.6-0.4,1.3-0.9,2.1-1.4
		c0.8-0.5,1.9-0.9,3.1-1.2s2.4-0.5,3.7-0.5c3.7,0,6.4,0.8,8.3,2.5c1.9,1.7,2.9,4.2,2.9,7.5v7C104.8,25.8,105.1,26.4,105.8,26.8
		L105.8,26.8z M91.4,28c0.7,0,1.3,0,1.9-0.1s1.2-0.3,1.8-0.5c0.6-0.3,1.1-0.6,1.6-1c0.4-0.4,0.8-1,1-1.6c0.3-0.7,0.4-1.5,0.4-2.4
		v-0.6c-1.3,1-3.2,1.6-5.8,1.7c-1.2,0.1-2.1,0.4-2.7,0.8c-0.6,0.4-0.8,1-0.8,1.7c0,0.7,0.2,1.2,0.7,1.5S90.6,28,91.4,28z"/>
	<path class="st0" d="M125.9,14.2h-7.2v10.1c0,0.8,0.2,1.5,0.7,2c0.5,0.5,1.1,0.8,1.9,0.8h2.8c0.5,0,1,0.2,1.3,0.5
		c0.3,0.3,0.5,0.7,0.5,1.3v4.5h-5.1c-2.8,0-4.9-0.8-6.5-2.4c-1.6-1.6-2.3-3.8-2.3-6.6V14.2h-2.2c-0.5,0-0.9-0.2-1.3-0.5
		c-0.3-0.3-0.5-0.8-0.5-1.3V8.3h3.9V0h6.7v8.3h7.2V14.2z"/>
	<path class="st0" d="M152.5,26.8c0.3,0.3,0.5,0.9,0.5,1.7v4.8h-0.6c-2.9,0-5-0.9-6.3-2.8c-2.1,2.1-5,3.2-8.8,3.2
		c-2.5,0-4.4-0.7-5.9-2c-1.5-1.3-2.2-3.1-2.2-5.3c0-2.2,0.7-4,2.1-5.4c1.4-1.4,3.5-2.4,6.4-2.8c3.6-0.4,6-1,7.2-1.7v-0.1
		c0-0.8-0.4-1.5-1.1-2c-0.8-0.5-1.7-0.8-2.8-0.8c-0.6,0-1.2,0-1.7,0.1c-0.5,0.1-1,0.2-1.5,0.4s-0.8,0.3-1,0.4s-0.5,0.3-1,0.5
		s-0.7,0.4-0.7,0.4c-0.6,0.3-1.1,0.4-1.7,0.3s-1-0.3-1.3-0.8l-2-2.9c0.3-0.4,0.8-0.8,1.3-1.3c0.6-0.4,1.3-0.9,2.1-1.4
		c0.8-0.5,1.9-0.9,3.1-1.2s2.4-0.5,3.7-0.5c3.7,0,6.4,0.8,8.3,2.5c1.9,1.7,2.9,4.2,2.9,7.5v7C151.5,25.8,151.8,26.4,152.5,26.8
		L152.5,26.8z M138.1,28c0.7,0,1.3,0,1.9-0.1s1.2-0.3,1.8-0.5c0.6-0.3,1.1-0.6,1.6-1s0.8-1,1-1.6c0.3-0.7,0.4-1.5,0.4-2.4v-0.6
		c-1.3,1-3.2,1.6-5.8,1.7c-1.2,0.1-2.1,0.4-2.7,0.8c-0.6,0.4-0.8,1-0.8,1.7c0,0.7,0.2,1.2,0.7,1.5S137.3,28,138.1,28z"/>
	<path class="st0" d="M165.7,33.3c-2.6,0-4.6-0.7-6-2.2c-1.4-1.4-2.2-3.5-2.2-6.1V0h6.7v25c0,0.6,0.2,1.1,0.6,1.5
		c0.4,0.4,0.9,0.5,1.5,0.5h1.3c0.5,0,0.9,0.2,1.3,0.5c0.3,0.3,0.5,0.7,0.5,1.3v4.5H165.7z"/>
	<path class="st0" d="M184.2,7.8c3.8,0,6.8,1.2,9.1,3.7c2.3,2.5,3.5,5.7,3.5,9.7v1.1c0,0.2-0.1,0.5-0.3,0.6s-0.4,0.3-0.7,0.3h-17.4
		c0.4,1.4,1.1,2.5,2,3.4s2.2,1.3,3.7,1.3c1.1,0,2.1-0.3,2.9-0.8c0.8-0.5,1.4-1.2,1.8-1.9c0.3-0.4,0.7-0.6,1.2-0.4l5.6,2
		c-0.8,2.2-2.2,3.9-4.2,5.1s-4.4,1.9-7.3,1.9c-3.8,0-6.9-1.2-9.2-3.6s-3.5-5.5-3.5-9.3c0-3.9,1.2-7.1,3.5-9.5
		C177.3,9,180.4,7.8,184.2,7.8z M184.2,13.7c-1.4,0-2.5,0.4-3.5,1.1c-0.9,0.7-1.6,1.7-2.1,3h11c-0.4-1.3-1.1-2.3-2.1-3
		S185.5,13.7,184.2,13.7z"/>
	<path class="st0" d="M17,55.8c3.4,0,6.1,1.2,8.2,3.5c2,2.3,3,5.4,3,9.4c0,4.1-1,7.3-3.1,9.5c-2,2.3-4.9,3.4-8.6,3.4
		c-2.7,0-4.9-0.7-6.6-2.2v10H3.2V56.3h5c0.3,0,0.5,0.1,0.7,0.3s0.3,0.4,0.3,0.6v2.1C11.3,57,13.9,55.8,17,55.8z M15.7,75.8
		c1.8,0,3.2-0.6,4.2-1.9c1-1.3,1.5-3,1.5-5.1S21,64.9,20,63.6c-1-1.3-2.4-1.9-4.2-1.9c-1.8,0-3.2,0.6-4.2,1.8
		c-1,1.2-1.6,2.8-1.6,4.9v0.5c0,2.1,0.5,3.8,1.5,5.1C12.5,75.2,13.9,75.8,15.7,75.8z"/>
	<path class="st0" d="M43.6,55.8c3.8,0,6.8,1.2,9.1,3.7c2.3,2.5,3.5,5.7,3.5,9.7v1.1c0,0.2-0.1,0.5-0.3,0.6s-0.4,0.3-0.7,0.3H37.9
		c0.4,1.4,1.1,2.5,2,3.4c1,0.8,2.2,1.3,3.7,1.3c1.1,0,2.1-0.3,2.9-0.8c0.8-0.5,1.4-1.2,1.8-1.9c0.3-0.4,0.7-0.6,1.2-0.4l5.6,2
		c-0.8,2.2-2.2,3.9-4.2,5.1s-4.4,1.9-7.3,1.9c-3.8,0-6.9-1.2-9.2-3.6c-2.3-2.4-3.5-5.5-3.5-9.3c0-3.9,1.2-7.1,3.5-9.5
		C36.7,57,39.8,55.8,43.6,55.8z M43.6,61.7c-1.4,0-2.5,0.4-3.5,1.1c-0.9,0.7-1.6,1.7-2.1,3h11c-0.4-1.3-1.1-2.3-2.1-3
		S44.9,61.7,43.6,61.7z"/>
	<path class="st0" d="M74.3,56.3h0.4v3.8c0,0.5-0.2,1-0.5,1.3c-0.3,0.3-0.7,0.5-1.2,0.5h-0.3c-1.9,0-3.4,0.6-4.3,1.7
		s-1.4,2.8-1.4,4.9v12.7h-6.7V56.3h5.1c0.3,0,0.5,0.1,0.7,0.3s0.3,0.4,0.3,0.6v2.5C68.2,57.4,70.9,56.3,74.3,56.3z"/>
	<path class="st0" d="M99.5,81.3c-2.6,0-4.6-0.7-6-2.2c-1.4-1.4-2.2-3.5-2.2-6.1V48H98v25c0,0.6,0.2,1.1,0.6,1.5
		c0.4,0.4,0.9,0.5,1.5,0.5h1.3c0.5,0,0.9,0.2,1.3,0.5s0.5,0.7,0.5,1.3v4.5H99.5z"/>
	<path class="st0" d="M128.5,74.8c0.3,0.3,0.5,0.9,0.5,1.7v4.8h-0.6c-2.9,0-5-0.9-6.3-2.8c-2,2.1-5,3.2-8.8,3.2
		c-2.5,0-4.4-0.7-5.9-2c-1.5-1.3-2.2-3.1-2.2-5.3c0-2.2,0.7-4,2.1-5.4c1.4-1.4,3.5-2.4,6.4-2.8c3.6-0.4,6-1,7.2-1.7v-0.1
		c0-0.8-0.4-1.5-1.1-2s-1.7-0.8-2.8-0.8c-0.6,0-1.2,0-1.7,0.1c-0.5,0.1-1,0.2-1.5,0.4s-0.8,0.3-1,0.4c-0.2,0.1-0.5,0.3-1,0.5
		c-0.4,0.3-0.7,0.4-0.7,0.4c-0.6,0.3-1.1,0.4-1.7,0.3s-1-0.3-1.3-0.8l-2-2.9c0.3-0.4,0.8-0.8,1.3-1.3c0.6-0.4,1.3-0.9,2.1-1.4
		c0.8-0.5,1.9-0.9,3.1-1.2s2.4-0.5,3.7-0.5c3.7,0,6.4,0.8,8.3,2.5c1.9,1.7,2.9,4.2,2.9,7.5v7C127.6,73.8,127.9,74.4,128.5,74.8
		L128.5,74.8z M114.2,76c0.7,0,1.3,0,1.9-0.1s1.2-0.3,1.8-0.5c0.6-0.3,1.1-0.6,1.6-1c0.4-0.4,0.8-1,1-1.6c0.3-0.7,0.4-1.5,0.4-2.4
		v-0.6c-1.3,1-3.2,1.6-5.8,1.7c-1.2,0.1-2.1,0.4-2.7,0.8c-0.6,0.4-0.8,1-0.8,1.7c0,0.7,0.2,1.2,0.7,1.5S113.4,76,114.2,76z"/>
	<path class="st0" d="M161.8,62.2h-7.2v10.1c0,0.8,0.2,1.5,0.7,2c0.5,0.5,1.1,0.8,1.9,0.8h2.8c0.5,0,1,0.2,1.3,0.5
		c0.3,0.3,0.5,0.7,0.5,1.3v4.5h-5.1c-2.8,0-4.9-0.8-6.5-2.4c-1.6-1.6-2.3-3.8-2.3-6.6V62.2h-2.2c-0.5,0-0.9-0.2-1.3-0.5
		c-0.3-0.3-0.5-0.8-0.5-1.3v-4.1h3.9V48h6.7v8.3h7.2V62.2z"/>
	<path class="st0" d="M182.7,56.3h6.7v24.9h-5.1c-0.3,0-0.5-0.1-0.7-0.3s-0.3-0.4-0.3-0.6v-1.8c-1.7,2.1-4,3.2-6.7,3.2
		c-3.3,0-5.7-0.9-7.4-2.6c-1.7-1.7-2.5-4.3-2.5-7.7v-15h6.7v14c0,1.9,0.3,3.3,0.9,4.2c0.6,0.9,1.7,1.3,3.3,1.3
		c1.5,0,2.7-0.5,3.6-1.4s1.3-2.3,1.3-4.1V56.3z"/>
	<path class="st0" d="M217.3,74.8c0.3,0.3,0.5,0.9,0.5,1.7v4.8h-0.6c-2.9,0-5-0.9-6.3-2.8c-2.1,2.1-5,3.2-8.8,3.2
		c-2.5,0-4.4-0.7-5.9-2c-1.5-1.3-2.2-3.1-2.2-5.3c0-2.2,0.7-4,2.1-5.4c1.4-1.4,3.5-2.4,6.4-2.8c3.6-0.4,6-1,7.2-1.7v-0.1
		c0-0.8-0.4-1.5-1.1-2c-0.8-0.5-1.7-0.8-2.8-0.8c-0.6,0-1.2,0-1.7,0.1c-0.5,0.1-1,0.2-1.5,0.4s-0.8,0.3-1,0.4s-0.5,0.3-1,0.5
		s-0.7,0.4-0.7,0.4c-0.6,0.3-1.1,0.4-1.7,0.3s-1-0.3-1.3-0.8l-2-2.9c0.3-0.4,0.8-0.8,1.3-1.3c0.6-0.4,1.3-0.9,2.1-1.4
		c0.8-0.5,1.9-0.9,3.1-1.2s2.4-0.5,3.7-0.5c3.7,0,6.4,0.8,8.3,2.5c1.9,1.7,2.9,4.2,2.9,7.5v7C216.3,73.8,216.6,74.4,217.3,74.8
		L217.3,74.8z M202.9,76c0.7,0,1.3,0,1.9-0.1s1.2-0.3,1.8-0.5c0.6-0.3,1.1-0.6,1.6-1s0.8-1,1-1.6c0.3-0.7,0.4-1.5,0.4-2.4v-0.6
		c-1.3,1-3.2,1.6-5.8,1.7c-1.2,0.1-2.1,0.4-2.7,0.8c-0.6,0.4-0.8,1-0.8,1.7c0,0.7,0.2,1.2,0.7,1.5S202.1,76,202.9,76z"/>
	<path class="st0" d="M256.8,74.8c0.3,0.3,0.5,0.9,0.5,1.7v4.8h-0.6c-2.9,0-5-0.9-6.3-2.8c-2.1,2.1-5,3.2-8.8,3.2
		c-2.5,0-4.4-0.7-5.9-2c-1.5-1.3-2.2-3.1-2.2-5.3c0-2.2,0.7-4,2.1-5.4c1.4-1.4,3.5-2.4,6.4-2.8c3.6-0.4,6-1,7.2-1.7v-0.1
		c0-0.8-0.4-1.5-1.1-2c-0.8-0.5-1.7-0.8-2.8-0.8c-0.6,0-1.2,0-1.7,0.1c-0.5,0.1-1,0.2-1.5,0.4s-0.8,0.3-1,0.4s-0.5,0.3-1,0.5
		s-0.7,0.4-0.7,0.4c-0.6,0.3-1.1,0.4-1.7,0.3s-1-0.3-1.3-0.8l-2-2.9c0.3-0.4,0.8-0.8,1.3-1.3c0.6-0.4,1.3-0.9,2.1-1.4
		c0.8-0.5,1.9-0.9,3.1-1.2s2.4-0.5,3.7-0.5c3.7,0,6.4,0.8,8.3,2.5c1.9,1.7,2.9,4.2,2.9,7.5v7C255.8,73.8,256.1,74.4,256.8,74.8
		L256.8,74.8z M242.4,76c0.7,0,1.3,0,1.9-0.1s1.2-0.3,1.8-0.5c0.6-0.3,1.1-0.6,1.6-1c0.4-0.4,0.8-1,1-1.6c0.3-0.7,0.4-1.5,0.4-2.4
		v-0.6c-1.3,1-3.2,1.6-5.8,1.7c-1.2,0.1-2.1,0.4-2.7,0.8c-0.6,0.4-0.8,1-0.8,1.7c0,0.7,0.2,1.2,0.7,1.5S241.6,76,242.4,76z"/>
	<path class="st0" d="M280.3,56.3v5.9l-11.6,13.1h11.6v5.9h-20.4v-5.9l11.8-13.1h-11.8v-5.9H280.3z"/>
	<path class="st0" d="M288.2,53.7c-1.1,0-1.9-0.3-2.6-1s-1-1.5-1-2.6c0-1.1,0.3-2,1-2.7c0.7-0.7,1.5-1,2.6-1c1.1,0,2,0.3,2.7,1
		c0.7,0.7,1,1.6,1,2.7c0,1.1-0.3,1.9-1,2.6C290.2,53.3,289.3,53.7,288.2,53.7z M284.8,81.2V56.3h6.7v24.9H284.8z"/>
	<path class="st0" d="M308.9,55.8c3.8,0,6.8,1.2,9.1,3.7c2.3,2.5,3.5,5.7,3.5,9.7v1.1c0,0.2-0.1,0.5-0.3,0.6s-0.4,0.3-0.7,0.3h-17.4
		c0.4,1.4,1.1,2.5,2,3.4c1,0.8,2.2,1.3,3.7,1.3c1.1,0,2.1-0.3,2.9-0.8c0.8-0.5,1.4-1.2,1.8-1.9c0.3-0.4,0.8-0.6,1.2-0.4l5.6,2
		c-0.8,2.2-2.2,3.9-4.2,5.1s-4.4,1.9-7.3,1.9c-3.8,0-6.9-1.2-9.2-3.6c-2.3-2.4-3.5-5.5-3.5-9.3c0-3.9,1.2-7.1,3.5-9.5
		C302.1,57,305.1,55.8,308.9,55.8z M308.9,61.7c-1.4,0-2.5,0.4-3.5,1.1c-0.9,0.7-1.6,1.7-2.1,3h11c-0.4-1.3-1.1-2.3-2.1-3
		S310.2,61.7,308.9,61.7z"/>
	<path class="st0" d="M338.9,55.8c3.2,0,5.7,0.9,7.3,2.7c1.7,1.8,2.5,4.5,2.5,7.9v14.7H342v-14c0-1.9-0.3-3.3-0.9-4.2
		c-0.6-0.9-1.7-1.3-3.3-1.3c-1.5,0-2.7,0.5-3.6,1.4c-0.8,1-1.3,2.3-1.3,4.1v14h-6.7V56.3h5c0.3,0,0.5,0.1,0.7,0.3s0.3,0.4,0.3,0.6
		v1.8C333.9,56.9,336.2,55.8,338.9,55.8z"/>
	<path class="st0" d="M371.3,48h6.7v33.2h-5c-0.3,0-0.5-0.1-0.7-0.3s-0.3-0.4-0.3-0.6v-2.1c-2.1,2.3-4.7,3.5-7.7,3.5
		c-3.4,0-6.1-1.2-8.2-3.5c-2-2.3-3.1-5.5-3.1-9.4c0-4.1,1-7.3,3-9.5c2-2.3,4.9-3.4,8.5-3.4c2.7,0,4.9,0.8,6.7,2.3V48z M365.5,75.8
		c1.8,0,3.2-0.6,4.2-1.8c1-1.2,1.5-2.9,1.5-5v-0.5c0-2.1-0.5-3.7-1.6-5c-1.1-1.2-2.5-1.8-4.3-1.8c-1.8,0-3.2,0.6-4.2,1.9
		c-1,1.3-1.5,3-1.5,5.1s0.5,3.8,1.5,5.1C362.3,75.1,363.7,75.8,365.5,75.8z"/>
	<path class="st0" d="M405.9,74.8c0.3,0.3,0.5,0.9,0.5,1.7v4.8h-0.6c-2.9,0-5-0.9-6.3-2.8c-2.1,2.1-5,3.2-8.8,3.2
		c-2.5,0-4.4-0.7-5.9-2c-1.5-1.3-2.2-3.1-2.2-5.3c0-2.2,0.7-4,2.1-5.4c1.4-1.4,3.5-2.4,6.4-2.8c3.6-0.4,6-1,7.2-1.7v-0.1
		c0-0.8-0.4-1.5-1.1-2c-0.8-0.5-1.7-0.8-2.8-0.8c-0.6,0-1.2,0-1.7,0.1c-0.5,0.1-1,0.2-1.5,0.4s-0.8,0.3-1,0.4
		c-0.2,0.1-0.5,0.3-1,0.5c-0.4,0.3-0.7,0.4-0.7,0.4c-0.6,0.3-1.1,0.4-1.7,0.3s-1-0.3-1.3-0.8l-2-2.9c0.3-0.4,0.8-0.8,1.3-1.3
		c0.6-0.4,1.3-0.9,2.1-1.4c0.8-0.5,1.9-0.9,3.1-1.2s2.4-0.5,3.7-0.5c3.7,0,6.4,0.8,8.3,2.5c1.9,1.7,2.9,4.2,2.9,7.5v7
		C405,73.8,405.3,74.4,405.9,74.8L405.9,74.8z M391.6,76c0.7,0,1.3,0,1.9-0.1s1.2-0.3,1.8-0.5c0.6-0.3,1.1-0.6,1.6-1
		c0.4-0.4,0.8-1,1-1.6c0.3-0.7,0.4-1.5,0.4-2.4v-0.6c-1.3,1-3.2,1.6-5.8,1.7c-1.2,0.1-2.1,0.4-2.7,0.8c-0.6,0.4-0.8,1-0.8,1.7
		c0,0.7,0.2,1.2,0.7,1.5S390.8,76,391.6,76z"/>
	<path class="st0" d="M11.3,129.7c-2.1,0-4.1-0.3-5.9-0.9c-1.8-0.6-3.3-1.4-4.4-2.3l2.6-4c0.2-0.3,0.5-0.5,0.8-0.5s0.6,0,1,0.2
		c2,1.1,3.9,1.7,5.8,1.7c1.2,0,2.1-0.2,2.7-0.6c0.6-0.4,0.9-0.9,0.9-1.5c0-0.5-0.2-0.9-0.6-1.3c-0.4-0.4-0.9-0.6-1.7-0.8
		c-0.6-0.2-1.4-0.3-2.6-0.6s-2.1-0.5-2.7-0.7C5.4,118,4,117.2,3,116c-1-1.2-1.5-2.7-1.5-4.4c0-2.4,0.9-4.2,2.6-5.7s4.1-2.1,6.9-2.1
		c1.9,0,3.6,0.3,5.3,0.9c1.7,0.6,3,1.3,4,2.2l-2.5,4c-0.4,0.6-0.9,0.8-1.7,0.4c-2-1.2-3.9-1.7-5.9-1.7c-0.8,0-1.3,0.2-1.8,0.5
		c-0.4,0.3-0.7,0.7-0.7,1.2c0,0.4,0.1,0.7,0.4,1c0.3,0.3,0.7,0.5,1.2,0.6c1.1,0.3,2.5,0.7,4.4,1.2c2.4,0.6,4.3,1.5,5.5,2.9
		c1.3,1.4,1.9,3,1.9,4.9c0,2.4-0.9,4.3-2.7,5.7S14.4,129.7,11.3,129.7z"/>
	<path class="st0" d="M36.1,129.7c-3.8,0-6.9-1.2-9.1-3.6c-2.2-2.4-3.4-5.5-3.4-9.3c0-4,1.1-7.2,3.4-9.5c2.2-2.4,5.3-3.5,9.1-3.5
		c3,0,5.5,0.8,7.6,2.3s3.4,3.7,4.1,6.5l-5.2,1c-1,0.2-1.7-0.1-2.1-0.9c-0.8-2-2.3-3-4.5-3c-1.9,0-3.3,0.7-4.3,2
		c-1,1.3-1.5,3.1-1.5,5.2c0,2.1,0.5,3.7,1.5,5c1,1.3,2.4,2,4.2,2c1.3,0,2.2-0.3,2.9-0.8c0.7-0.5,1.3-1.4,1.7-2.5
		c0.2-0.4,0.5-0.7,0.9-0.9c0.4-0.2,0.8-0.2,1.3-0.1l5.1,0.9c-0.6,3-2,5.3-4.1,6.9C41.8,128.9,39.2,129.7,36.1,129.7z"/>
	<path class="st0" d="M63.1,103.8c3.8,0,6.8,1.2,9.1,3.7c2.3,2.5,3.5,5.7,3.5,9.7v1.1c0,0.2-0.1,0.5-0.3,0.6s-0.4,0.3-0.7,0.3H57.4
		c0.4,1.4,1.1,2.5,2,3.4c1,0.8,2.2,1.3,3.7,1.3c1.1,0,2.1-0.3,2.9-0.8c0.8-0.5,1.4-1.2,1.8-1.9c0.3-0.4,0.7-0.6,1.2-0.4l5.6,2
		c-0.8,2.2-2.2,3.9-4.2,5.1s-4.4,1.9-7.3,1.9c-3.8,0-6.9-1.2-9.2-3.6c-2.3-2.4-3.5-5.5-3.5-9.3c0-3.9,1.2-7.1,3.5-9.5
		C56.2,105,59.3,103.8,63.1,103.8z M63.1,109.7c-1.4,0-2.5,0.4-3.5,1.1c-0.9,0.7-1.6,1.7-2.1,3h11c-0.4-1.3-1.1-2.3-2.1-3
		S64.4,109.7,63.1,109.7z"/>
	<path class="st0" d="M94.5,124.6c2.8,0,4.9,0.5,6.3,1.6c1.5,1.1,2.2,2.7,2.2,4.9c0,2.2-1,4-3.1,5.3c-2,1.4-5.2,2.1-9.4,2.1
		c-3.8,0-6.7-0.7-8.9-2.1c-2.1-1.4-3.2-3.2-3.2-5.3c0-1.3,0.3-2.5,1-3.5c0.7-1,1.3-1.6,2-1.8c-0.4-0.1-0.8-0.4-1.2-1
		s-0.7-1.3-0.7-2.1c0-1.6,0.7-2.9,2.1-3.7c-1.7-1.7-2.5-3.7-2.5-6.2c0-2.9,0.9-5.2,2.8-6.7c1.9-1.6,4.5-2.4,7.8-2.4
		c2.6,0,4.7,0.5,6.4,1.4c0.6-0.6,1.5-0.9,2.5-0.9h3.4v3.9c0,0.4-0.1,0.8-0.4,1.1s-0.6,0.4-1.1,0.4h-0.7c0.3,1,0.5,2.1,0.5,3.2
		c0,2.9-1,5.1-3,6.7c-2,1.6-4.7,2.4-8.2,2.4h-1.7c-0.6,0-1.1,0.1-1.5,0.3c-0.4,0.2-0.6,0.5-0.6,1c0,0.9,0.9,1.4,2.6,1.4H94.5z
		 M90.6,132.9c2.2,0,3.8-0.2,4.9-0.6c1-0.4,1.5-0.9,1.5-1.5c0-1-0.9-1.5-2.8-1.5h-6.8c-1.9,0-2.9,0.5-2.9,1.5c0,0.6,0.6,1.1,1.7,1.5
		C87.4,132.7,88.8,132.9,90.6,132.9z M92.9,110.3c-0.8-0.6-1.9-0.9-3.2-0.9c-1.3,0-2.4,0.3-3.2,0.9c-0.8,0.6-1.2,1.4-1.2,2.5
		c0,1.1,0.4,1.9,1.2,2.5c0.8,0.6,1.8,0.9,3.1,0.9c1.3,0,2.4-0.3,3.2-0.9c0.8-0.6,1.2-1.5,1.2-2.5C94.1,111.8,93.7,110.9,92.9,110.3z
		"/>
	<path class="st0" d="M114.8,129.3c-2.6,0-4.6-0.7-6-2.2c-1.4-1.4-2.2-3.5-2.2-6.1V96h6.7v25c0,0.6,0.2,1.1,0.6,1.5
		c0.4,0.4,0.9,0.5,1.5,0.5h1.3c0.5,0,0.9,0.2,1.3,0.5s0.5,0.7,0.5,1.3v4.5H114.8z"/>
	<path class="st0" d="M125.9,101.7c-1.1,0-1.9-0.3-2.6-1s-1-1.5-1-2.6c0-1.1,0.3-2,1-2.7c0.7-0.7,1.5-1,2.6-1c1.1,0,2,0.3,2.7,1
		s1,1.6,1,2.7c0,1.1-0.3,1.9-1,2.6C127.9,101.3,127,101.7,125.9,101.7z M122.5,129.2v-24.9h6.7v24.9H122.5z"/>
	<path class="st0" d="M164.6,104.3h6.7v24.9h-5.1c-0.3,0-0.5-0.1-0.7-0.3c-0.2-0.2-0.3-0.4-0.3-0.6v-1.8c-1.7,2.1-4,3.2-6.7,3.2
		c-3.3,0-5.7-0.9-7.4-2.6c-1.7-1.7-2.5-4.3-2.5-7.7v-15h6.7v14c0,1.9,0.3,3.3,0.9,4.2c0.6,0.9,1.7,1.3,3.3,1.3
		c1.5,0,2.7-0.5,3.6-1.4c0.8-1,1.3-2.3,1.3-4.1V104.3z"/>
	<path class="st0" d="M190.6,103.8c3.2,0,5.7,0.9,7.3,2.7c1.7,1.8,2.5,4.5,2.5,7.9v14.7h-6.7v-14c0-1.9-0.3-3.3-0.9-4.2
		c-0.6-0.9-1.7-1.3-3.3-1.3c-1.5,0-2.7,0.5-3.6,1.4c-0.8,1-1.3,2.3-1.3,4.1v14h-6.7v-24.9h5c0.3,0,0.5,0.1,0.7,0.3s0.3,0.4,0.3,0.6
		v1.8C185.7,104.9,187.9,103.8,190.6,103.8z"/>
	<path class="st0" d="M236.2,96h6.7v33.2h-5c-0.3,0-0.5-0.1-0.7-0.3s-0.3-0.4-0.3-0.6v-2.1c-2.1,2.3-4.7,3.5-7.7,3.5
		c-3.4,0-6.1-1.2-8.2-3.5c-2-2.3-3.1-5.5-3.1-9.4c0-4.1,1-7.3,3-9.5c2-2.3,4.9-3.4,8.5-3.4c2.7,0,4.9,0.8,6.7,2.3V96z M230.5,123.8
		c1.8,0,3.2-0.6,4.2-1.8c1-1.2,1.5-2.9,1.5-5v-0.5c0-2.1-0.5-3.7-1.6-5c-1.1-1.2-2.5-1.8-4.3-1.8c-1.8,0-3.2,0.6-4.2,1.9
		c-1,1.3-1.5,3-1.5,5.1s0.5,3.8,1.5,5.1C227.3,123.1,228.7,123.8,230.5,123.8z"/>
	<path class="st0" d="M269.2,126.2c-2.3,2.3-5.3,3.5-9.1,3.5s-6.8-1.2-9.1-3.5s-3.4-5.5-3.4-9.5c0-4,1.1-7.1,3.4-9.5
		c2.3-2.3,5.3-3.5,9.1-3.5s6.8,1.2,9.1,3.5c2.3,2.4,3.4,5.5,3.4,9.5C272.6,120.7,271.5,123.9,269.2,126.2z M255.9,121.9
		c1,1.3,2.4,2,4.2,2c1.8,0,3.2-0.6,4.2-2c1-1.3,1.5-3,1.5-5.1c0-2.1-0.5-3.8-1.5-5.1c-1-1.3-2.4-2-4.2-2c-1.8,0-3.2,0.7-4.2,2
		c-1,1.3-1.5,3-1.5,5.1C254.3,118.9,254.9,120.6,255.9,121.9z"/>
	<path class="st0" d="M289.9,103.8c3.2,0,5.7,0.9,7.3,2.7c1.7,1.8,2.5,4.5,2.5,7.9v14.7H293v-14c0-1.9-0.3-3.3-0.9-4.2
		c-0.6-0.9-1.7-1.3-3.3-1.3c-1.5,0-2.7,0.5-3.6,1.4c-0.8,1-1.3,2.3-1.3,4.1v14h-6.7v-24.9h5c0.3,0,0.5,0.1,0.7,0.3s0.3,0.4,0.3,0.6
		v1.8C285,104.9,287.2,103.8,289.9,103.8z"/>
	<path class="st0" d="M325.7,126.2c-2.3,2.3-5.3,3.5-9.1,3.5s-6.8-1.2-9.1-3.5s-3.4-5.5-3.4-9.5c0-4,1.1-7.1,3.4-9.5
		c2.3-2.3,5.3-3.5,9.1-3.5s6.8,1.2,9.1,3.5c2.3,2.4,3.4,5.5,3.4,9.5C329,120.7,327.9,123.9,325.7,126.2z M312.3,121.9
		c1,1.3,2.4,2,4.2,2c1.8,0,3.2-0.6,4.2-2c1-1.3,1.5-3,1.5-5.1c0-2.1-0.5-3.8-1.5-5.1c-1-1.3-2.4-2-4.2-2c-1.8,0-3.2,0.7-4.2,2
		c-1,1.3-1.5,3-1.5,5.1C310.8,118.9,311.3,120.6,312.3,121.9z"/>
	<path class="st0" d="M13.7,177.7c-3.8,0-6.9-1.2-9.1-3.6c-2.2-2.4-3.4-5.5-3.4-9.3c0-4,1.1-7.2,3.4-9.5c2.2-2.4,5.3-3.5,9.1-3.5
		c3,0,5.5,0.8,7.6,2.3s3.4,3.7,4.1,6.5l-5.2,1c-1,0.2-1.7-0.1-2.1-0.9c-0.8-2-2.3-3-4.5-3c-1.9,0-3.3,0.7-4.3,2
		c-1,1.3-1.5,3.1-1.5,5.2c0,2.1,0.5,3.7,1.5,5c1,1.3,2.4,2,4.2,2c1.3,0,2.2-0.3,2.9-0.8c0.7-0.5,1.3-1.4,1.7-2.5
		c0.2-0.4,0.5-0.7,0.9-0.9c0.4-0.2,0.8-0.2,1.3-0.1l5.1,0.9c-0.6,3-2,5.3-4.1,6.9C19.4,176.9,16.8,177.7,13.7,177.7z"/>
	<path class="st0" d="M42.5,151.8c3.2,0,5.7,0.9,7.3,2.8c1.7,1.8,2.5,4.5,2.5,7.9v14.7h-6.7v-14c0-1.9-0.3-3.3-0.9-4.2
		c-0.6-0.9-1.7-1.3-3.3-1.3c-1.6,0-2.8,0.5-3.7,1.4c-0.9,1-1.3,2.3-1.3,4.1v14h-6.7V144h6.7v10.3C38,152.6,40.1,151.8,42.5,151.8z"
		/>
	<path class="st0" d="M69.4,151.8c3.8,0,6.8,1.2,9.1,3.7c2.3,2.5,3.5,5.7,3.5,9.7v1.1c0,0.2-0.1,0.5-0.3,0.6s-0.4,0.3-0.7,0.3H63.6
		c0.4,1.4,1.1,2.5,2,3.4c1,0.8,2.2,1.3,3.7,1.3c1.1,0,2.1-0.3,2.9-0.8c0.8-0.5,1.4-1.2,1.8-1.9c0.3-0.4,0.7-0.6,1.2-0.4l5.6,2
		c-0.8,2.2-2.2,3.9-4.2,5.1s-4.4,1.9-7.3,1.9c-3.8,0-6.9-1.2-9.2-3.6c-2.3-2.4-3.5-5.5-3.5-9.3c0-3.9,1.2-7.1,3.5-9.5
		C62.5,153,65.6,151.8,69.4,151.8z M69.4,157.7c-1.4,0-2.5,0.4-3.5,1.1c-0.9,0.7-1.6,1.7-2.1,3h11c-0.4-1.3-1.1-2.3-2.1-3
		S70.7,157.7,69.4,157.7z"/>
	<path class="st0" d="M115.1,152.3h7.4l-9.3,24.9H106l-9.3-24.9h7.4l5.1,14.1c0.1,0.2,0.1,0.3,0.1,0.5v0.6c0,0.2,0.1,0.2,0.2,0.2
		h0.1L115.1,152.3z"/>
	<path class="st0" d="M146.6,170.8c0.3,0.3,0.5,0.9,0.5,1.7v4.8h-0.6c-2.9,0-5-0.9-6.3-2.8c-2.1,2.1-5,3.2-8.8,3.2
		c-2.5,0-4.4-0.7-5.9-2c-1.5-1.3-2.2-3.1-2.2-5.3c0-2.2,0.7-4,2.1-5.4c1.4-1.4,3.5-2.4,6.4-2.8c3.6-0.4,6-1,7.2-1.7v-0.1
		c0-0.8-0.4-1.5-1.1-2c-0.8-0.5-1.7-0.8-2.8-0.8c-0.6,0-1.2,0-1.7,0.1c-0.5,0.1-1,0.2-1.5,0.4s-0.8,0.3-1,0.4s-0.5,0.3-1,0.5
		s-0.7,0.4-0.7,0.4c-0.6,0.3-1.1,0.4-1.7,0.3s-1-0.3-1.3-0.8l-2-2.9c0.3-0.4,0.8-0.8,1.3-1.3c0.6-0.4,1.3-0.9,2.1-1.4
		c0.8-0.5,1.9-0.9,3.1-1.2s2.4-0.5,3.7-0.5c3.7,0,6.4,0.8,8.3,2.5c1.9,1.7,2.9,4.2,2.9,7.5v7C145.6,169.8,145.9,170.4,146.6,170.8
		L146.6,170.8z M132.2,172c0.7,0,1.3,0,1.9-0.1s1.2-0.3,1.8-0.5c0.6-0.3,1.1-0.6,1.6-1s0.8-1,1-1.6c0.3-0.7,0.4-1.5,0.4-2.4v-0.6
		c-1.3,1-3.2,1.6-5.8,1.7c-1.2,0.1-2.1,0.4-2.7,0.8c-0.6,0.4-0.8,1-0.8,1.7c0,0.7,0.2,1.2,0.7,1.5S131.4,172,132.2,172z"/>
	<path class="st0" d="M159.8,177.3c-2.6,0-4.6-0.7-6-2.2c-1.4-1.4-2.2-3.5-2.2-6.1v-25h6.7v25c0,0.6,0.2,1.1,0.6,1.5
		c0.4,0.4,0.9,0.5,1.5,0.5h1.3c0.5,0,0.9,0.2,1.3,0.5c0.3,0.3,0.5,0.7,0.5,1.3v4.5H159.8z"/>
	<path class="st0" d="M178.3,151.8c3.8,0,6.8,1.2,9.1,3.7c2.3,2.5,3.5,5.7,3.5,9.7v1.1c0,0.2-0.1,0.5-0.3,0.6s-0.4,0.3-0.7,0.3
		h-17.4c0.4,1.4,1.1,2.5,2,3.4s2.2,1.3,3.7,1.3c1.1,0,2.1-0.3,2.9-0.8c0.8-0.5,1.4-1.2,1.8-1.9c0.3-0.4,0.7-0.6,1.2-0.4l5.6,2
		c-0.8,2.2-2.2,3.9-4.2,5.1s-4.4,1.9-7.3,1.9c-3.8,0-6.9-1.2-9.2-3.6s-3.5-5.5-3.5-9.3c0-3.9,1.2-7.1,3.5-9.5
		C171.5,153,174.5,151.8,178.3,151.8z M178.3,157.7c-1.4,0-2.5,0.4-3.5,1.1c-0.9,0.7-1.6,1.7-2.1,3h11c-0.4-1.3-1.1-2.3-2.1-3
		S179.6,157.7,178.3,157.7z"/>
	<path class="st0" d="M225.1,144h6.7v33.2h-5c-0.3,0-0.5-0.1-0.7-0.3s-0.3-0.4-0.3-0.6v-2.1c-2.1,2.3-4.7,3.5-7.7,3.5
		c-3.4,0-6.1-1.2-8.2-3.5c-2-2.3-3.1-5.5-3.1-9.4c0-4.1,1-7.3,3-9.5c2-2.3,4.9-3.4,8.5-3.4c2.7,0,4.9,0.8,6.7,2.3V144z M219.3,171.8
		c1.8,0,3.2-0.6,4.2-1.8c1-1.2,1.5-2.9,1.5-5v-0.5c0-2.1-0.5-3.7-1.6-5c-1.1-1.2-2.5-1.8-4.3-1.8s-3.2,0.6-4.2,1.9
		c-1,1.3-1.5,3-1.5,5.1s0.5,3.8,1.5,5.1C216.1,171.1,217.5,171.8,219.3,171.8z"/>
	<path class="st0" d="M241.7,149.7c-1.1,0-1.9-0.3-2.6-1s-1-1.5-1-2.6c0-1.1,0.3-2,1-2.7c0.7-0.7,1.5-1,2.6-1c1.1,0,2,0.3,2.7,1
		c0.7,0.7,1,1.6,1,2.7c0,1.1-0.3,1.9-1,2.6C243.7,149.3,242.8,149.7,241.7,149.7z M238.4,177.2v-24.9h6.7v24.9H238.4z"/>
	<path class="st0" d="M278.7,151.8c3.4,0,6.1,1.2,8.2,3.5c2,2.3,3,5.4,3,9.4c0,4.1-1,7.3-3.1,9.5c-2,2.3-4.9,3.4-8.6,3.4
		c-2.7,0-4.9-0.7-6.6-2.2v10H265v-33.2h5c0.3,0,0.5,0.1,0.7,0.3s0.3,0.4,0.3,0.6v2.1C273,153,275.6,151.8,278.7,151.8z M277.5,171.8
		c1.8,0,3.2-0.6,4.2-1.9c1-1.3,1.5-3,1.5-5.1s-0.5-3.8-1.5-5.1c-1-1.3-2.4-1.9-4.2-1.9c-1.8,0-3.2,0.6-4.2,1.8
		c-1,1.2-1.6,2.8-1.6,4.9v0.5c0,2.1,0.5,3.8,1.5,5.1C274.2,171.2,275.7,171.8,277.5,171.8z"/>
	<path class="st0" d="M297.7,149.7c-1.1,0-1.9-0.3-2.6-1s-1-1.5-1-2.6c0-1.1,0.3-2,1-2.7c0.7-0.7,1.5-1,2.6-1c1.1,0,2,0.3,2.7,1
		c0.7,0.7,1,1.6,1,2.7c0,1.1-0.3,1.9-1,2.6C299.7,149.3,298.8,149.7,297.7,149.7z M294.4,177.2v-24.9h6.7v24.9H294.4z"/>
	<path class="st0" d="M323.2,152.3h6.7v24.9h-5.1c-0.3,0-0.5-0.1-0.7-0.3c-0.2-0.2-0.3-0.4-0.3-0.6v-1.8c-1.7,2.1-4,3.2-6.7,3.2
		c-3.3,0-5.7-0.9-7.4-2.6c-1.7-1.7-2.5-4.3-2.5-7.7v-15h6.7v14c0,1.9,0.3,3.3,0.9,4.2c0.6,0.9,1.7,1.3,3.3,1.3
		c1.5,0,2.7-0.5,3.6-1.4c0.8-1,1.3-2.3,1.3-4.1V152.3z"/>
	<path class="st0" d="M323.9,147h-1.5c-1.3,0-2.4-0.2-3.4-0.6c-0.9-0.4-1.8-1-2.7-1.9l-2.8-2.7c-0.2-0.2-0.2-0.4-0.1-0.6
		c0.1-0.2,0.3-0.3,0.5-0.3h3c0.9,0,1.6,0.2,2.3,0.5c0.7,0.3,1.1,0.7,1.5,1.1L323.9,147z"/>
</g>
</svg>
