<?xml version="1.0" encoding="utf-8"?>
<!-- Generator: Adobe Illustrator 24.3.0, SVG Export Plug-In . SVG Version: 6.00 Build 0)  -->
<svg version="1.1" id="Laag_1" xmlns:v="https://vecta.io/nano"
	 xmlns="http://www.w3.org/2000/svg" xmlns:xlink="http://www.w3.org/1999/xlink" x="0px" y="0px" width="465px" height="192.9px"
	 viewBox="0 0 465 192.9" style="enable-background:new 0 0 465 192.9;" xml:space="preserve">
<style type="text/css">
	.st0{fill:#6A3F24;}
</style>
<g>
	<path class="st0" d="M6.4,50.4c-1.5,0-2.8-0.5-3.8-1.5s-1.5-2.2-1.5-3.8c0-1.5,0.5-2.7,1.5-3.7c1-1,2.3-1.5,3.8-1.5
		c1.5,0,2.7,0.5,3.7,1.5c1,1,1.5,2.2,1.5,3.7c0,1.5-0.5,2.8-1.5,3.8C9.1,49.9,7.9,50.4,6.4,50.4z"/>
	<path class="st0" d="M20.5,50.4c-1.5,0-2.8-0.5-3.8-1.5s-1.5-2.2-1.5-3.8c0-1.5,0.5-2.7,1.5-3.7c1-1,2.3-1.5,3.8-1.5
		c1.5,0,2.7,0.5,3.7,1.5c1,1,1.5,2.2,1.5,3.7c0,1.5-0.5,2.8-1.5,3.8C23.2,49.9,22,50.4,20.5,50.4z"/>
	<path class="st0" d="M34.6,50.4c-1.5,0-2.8-0.5-3.8-1.5s-1.5-2.2-1.5-3.8c0-1.5,0.5-2.7,1.5-3.7c1-1,2.3-1.5,3.8-1.5
		c1.5,0,2.7,0.5,3.7,1.5c1,1,1.5,2.2,1.5,3.7c0,1.5-0.5,2.8-1.5,3.8C37.3,49.9,36.1,50.4,34.6,50.4z"/>
	<path class="st0" d="M74.2,45.4c-3.2,3.3-7.5,5-13,5s-9.8-1.7-13-5c-3.2-3.3-4.8-7.8-4.8-13.5c0-5.6,1.6-10.1,4.8-13.5
		c3.2-3.3,7.5-5,13-5s9.8,1.7,13,5c3.2,3.4,4.8,7.9,4.8,13.5C79.1,37.6,77.5,42.1,74.2,45.4z M55.2,39.3c1.4,1.9,3.5,2.8,6.1,2.8
		c2.6,0,4.6-0.9,6.1-2.8c1.4-1.9,2.2-4.3,2.2-7.3c0-3-0.7-5.5-2.2-7.3c-1.4-1.9-3.5-2.8-6.1-2.8c-2.6,0-4.6,0.9-6.1,2.8
		c-1.4,1.9-2.2,4.3-2.2,7.3C53.1,35,53.8,37.4,55.2,39.3z"/>
	<path class="st0" d="M109.3,10.4c-1.5,0-2.7-0.5-3.7-1.5c-1-1-1.5-2.2-1.5-3.7c0-1.5,0.5-2.8,1.5-3.8c1-1,2.2-1.5,3.7-1.5
		c1.5,0,2.8,0.5,3.8,1.5s1.5,2.2,1.5,3.8c0,1.5-0.5,2.7-1.5,3.7C112.1,10,110.8,10.4,109.3,10.4z M104.5,49.7V14.2h9.6v35.5H104.5z"
		/>
	<path class="st0" d="M135.2,49.8c-3.7,0-6.6-1-8.6-3.1c-2.1-2.1-3.1-4.9-3.1-8.7V2.4h9.6V38c0,0.9,0.3,1.6,0.8,2.1
		c0.5,0.5,1.2,0.8,2.1,0.8h1.8c0.7,0,1.3,0.2,1.8,0.7c0.5,0.5,0.7,1.1,0.7,1.8v6.4H135.2z"/>
	<path class="st0" d="M184.8,13.5c4.9,0,8.7,1.7,11.6,5c2.9,3.3,4.3,7.8,4.3,13.3c0,5.8-1.5,10.4-4.4,13.6c-2.9,3.2-7,4.9-12.3,4.9
		c-3.8,0-6.9-1-9.4-3.1v14.3h-9.6V14.2h7.2c0.4,0,0.7,0.1,0.9,0.4s0.4,0.6,0.4,0.9v3C176.6,15.2,180.3,13.5,184.8,13.5z M182.9,42
		c2.5,0,4.5-0.9,6-2.8c1.5-1.8,2.2-4.3,2.2-7.3s-0.7-5.4-2.1-7.3c-1.4-1.8-3.4-2.8-5.9-2.8c-2.5,0-4.5,0.9-6,2.6
		c-1.5,1.7-2.3,4-2.3,7v0.7c0,3.1,0.7,5.5,2.2,7.2C178.4,41.1,180.4,42,182.9,42z"/>
	<path class="st0" d="M222.7,13.4c5.4,0,9.7,1.8,13,5.3c3.3,3.5,5,8.2,5,13.9v1.6c0,0.3-0.1,0.7-0.4,0.9s-0.6,0.4-0.9,0.4h-24.8
		c0.5,2,1.5,3.6,2.9,4.8c1.4,1.2,3.1,1.8,5.2,1.8c1.6,0,2.9-0.4,4.1-1.1c1.1-0.8,2-1.7,2.6-2.7c0.5-0.6,1.1-0.8,1.8-0.5l8,2.8
		c-1.2,3.1-3.2,5.6-6,7.3s-6.3,2.6-10.4,2.6c-5.5,0-9.8-1.7-13.2-5.1c-3.3-3.4-5-7.8-5-13.3c0-5.6,1.7-10.1,5-13.5
		C212.9,15.1,217.2,13.4,222.7,13.4z M222.7,21.8c-1.9,0-3.6,0.5-4.9,1.6c-1.4,1-2.3,2.5-2.9,4.3h15.7c-0.6-1.8-1.6-3.2-3-4.3
		C226.1,22.3,224.5,21.8,222.7,21.8z"/>
	<path class="st0" d="M265.4,13.5c4.6,0,8.1,1.3,10.5,3.9c2.4,2.6,3.6,6.4,3.6,11.2v21h-9.6V29.8c0-2.7-0.4-4.7-1.3-6
		c-0.9-1.3-2.4-1.9-4.7-1.9c-2.2,0-3.9,0.7-5.1,2c-1.2,1.4-1.8,3.3-1.8,5.8v19.9h-9.6V14.2h7.2c0.4,0,0.7,0.1,0.9,0.4
		s0.4,0.6,0.4,0.9v2.6C258.3,15.1,261.5,13.5,265.4,13.5z"/>
	<path class="st0" d="M299.9,50.4c-3,0-5.8-0.4-8.4-1.2c-2.6-0.8-4.7-1.9-6.3-3.3l3.8-5.7c0.3-0.4,0.7-0.7,1.1-0.7
		c0.5-0.1,0.9,0,1.4,0.3c2.8,1.6,5.6,2.4,8.3,2.4c1.7,0,3-0.3,3.8-0.8c0.8-0.6,1.2-1.3,1.2-2.2c0-0.7-0.3-1.3-0.8-1.9
		c-0.5-0.5-1.3-0.9-2.4-1.1c-0.8-0.2-2-0.5-3.7-0.8c-1.6-0.3-2.9-0.6-3.9-0.9c-2.5-0.7-4.5-1.8-5.9-3.6c-1.4-1.7-2.2-3.8-2.2-6.3
		c0-3.4,1.2-6,3.7-8.1c2.5-2,5.8-3,9.9-3c2.6,0,5.1,0.4,7.5,1.3c2.4,0.9,4.3,1.9,5.7,3.1l-3.5,5.7c-0.6,0.9-1.4,1.1-2.4,0.5
		c-2.8-1.7-5.6-2.5-8.3-2.5c-1.1,0-1.9,0.2-2.6,0.7c-0.6,0.4-0.9,1-0.9,1.7c0,0.5,0.2,1,0.6,1.5c0.4,0.4,1,0.7,1.7,0.9
		c1.5,0.5,3.6,1,6.3,1.7c3.4,0.8,6.1,2.2,7.9,4.1c1.8,2,2.7,4.3,2.7,6.9c0,3.4-1.3,6.2-3.8,8.2C307.7,49.4,304.2,50.4,299.9,50.4z"
		/>
	<path class="st0" d="M324.7,10.4c-1.5,0-2.7-0.5-3.7-1.5c-1-1-1.5-2.2-1.5-3.7c0-1.5,0.5-2.8,1.5-3.8c1-1,2.2-1.5,3.7-1.5
		c1.5,0,2.8,0.5,3.8,1.5c1,1,1.5,2.2,1.5,3.8c0,1.5-0.5,2.7-1.5,3.7C327.5,10,326.3,10.4,324.7,10.4z M320,49.7V14.2h9.6v35.5H320z"
		/>
	<path class="st0" d="M354.3,13.4c5.4,0,9.7,1.8,13,5.3c3.3,3.5,5,8.2,5,13.9v1.6c0,0.3-0.1,0.7-0.4,0.9s-0.6,0.4-0.9,0.4h-24.8
		c0.5,2,1.5,3.6,2.9,4.8c1.4,1.2,3.1,1.8,5.2,1.8c1.6,0,2.9-0.4,4.1-1.1c1.1-0.8,2-1.7,2.6-2.7c0.5-0.6,1.1-0.8,1.8-0.5l8,2.8
		c-1.2,3.1-3.2,5.6-6,7.3s-6.3,2.6-10.4,2.6c-5.5,0-9.8-1.7-13.2-5.1c-3.3-3.4-5-7.8-5-13.3c0-5.6,1.7-10.1,5-13.5
		C344.5,15.1,348.9,13.4,354.3,13.4z M354.3,21.8c-1.9,0-3.6,0.5-4.9,1.6c-1.4,1-2.3,2.5-2.9,4.3h15.7c-0.6-1.8-1.6-3.2-3-4.3
		C357.7,22.3,356.1,21.8,354.3,21.8z"/>
	<path class="st0" d="M398,14.2h0.6v5.4c0,0.8-0.2,1.4-0.7,1.9c-0.4,0.5-1,0.7-1.7,0.7h-0.5c-2.7,0-4.8,0.8-6.2,2.5
		c-1.4,1.6-2.1,4-2.1,6.9v18.1H378V14.2h7.2c0.4,0,0.7,0.1,0.9,0.4s0.4,0.6,0.4,0.9V19C389.3,15.8,393.1,14.2,398,14.2z"/>
	<path class="st0" d="M431.4,45.4c-3.2,3.3-7.5,5-13,5s-9.8-1.7-13-5c-3.2-3.3-4.8-7.8-4.8-13.5c0-5.6,1.6-10.1,4.8-13.5
		c3.2-3.3,7.5-5,13-5s9.8,1.7,13,5c3.2,3.4,4.8,7.9,4.8,13.5C436.2,37.6,434.6,42.1,431.4,45.4z M412.3,39.3
		c1.4,1.9,3.5,2.8,6.1,2.8c2.6,0,4.6-0.9,6.1-2.8c1.4-1.9,2.2-4.3,2.2-7.3c0-3-0.7-5.5-2.2-7.3c-1.4-1.9-3.5-2.8-6.1-2.8
		c-2.6,0-4.6,0.9-6.1,2.8c-1.4,1.9-2.2,4.3-2.2,7.3C410.2,35,410.9,37.4,412.3,39.3z"/>
	<path class="st0" d="M19,115.4c-5.5,0-9.8-1.7-13-5.1c-3.2-3.4-4.8-7.8-4.8-13.3c0-5.7,1.6-10.2,4.8-13.6c3.2-3.4,7.5-5.1,13-5.1
		c4.3,0,7.9,1.1,10.8,3.2c2.9,2.1,4.9,5.3,5.9,9.3l-7.4,1.4c-1.4,0.3-2.4-0.1-2.9-1.2c-1.2-2.9-3.3-4.3-6.4-4.3
		c-2.6,0-4.7,0.9-6.1,2.8c-1.4,1.9-2.1,4.4-2.1,7.4c0,2.9,0.7,5.3,2.2,7.2c1.4,1.9,3.5,2.8,6.1,2.8c1.8,0,3.2-0.4,4.2-1.2
		c1-0.8,1.8-2,2.4-3.5c0.3-0.6,0.7-1,1.3-1.2c0.6-0.2,1.2-0.3,1.8-0.2l7.3,1.3c-0.9,4.3-2.8,7.5-5.9,9.8
		C27.1,114.3,23.4,115.4,19,115.4z"/>
	<path class="st0" d="M61.3,79.2h0.6v5.4c0,0.8-0.2,1.4-0.7,1.9c-0.4,0.5-1,0.7-1.7,0.7h-0.5c-2.7,0-4.8,0.8-6.2,2.5
		c-1.4,1.6-2.1,4-2.1,6.9v18.1h-9.6V79.2h7.2c0.4,0,0.7,0.1,0.9,0.4c0.3,0.3,0.4,0.6,0.4,0.9V84C52.6,80.8,56.4,79.2,61.3,79.2z"/>
	<path class="st0" d="M82,78.4c5.4,0,9.7,1.8,13,5.3c3.3,3.5,5,8.2,5,13.9v1.6c0,0.3-0.1,0.7-0.4,0.9s-0.6,0.4-0.9,0.4H73.8
		c0.5,2,1.5,3.6,2.9,4.8c1.4,1.2,3.1,1.8,5.2,1.8c1.6,0,2.9-0.4,4.1-1.1c1.1-0.8,2-1.7,2.6-2.7c0.5-0.6,1.1-0.8,1.8-0.5l8,2.8
		c-1.2,3.1-3.2,5.6-6,7.3s-6.3,2.6-10.4,2.6c-5.5,0-9.8-1.7-13.2-5.1c-3.3-3.4-5-7.8-5-13.3c0-5.6,1.7-10.1,5-13.5
		C72.2,80.1,76.6,78.4,82,78.4z M82,86.8c-1.9,0-3.6,0.5-4.9,1.6c-1.4,1-2.3,2.5-2.9,4.3h15.7c-0.6-1.8-1.6-3.2-3-4.3
		C85.4,87.3,83.8,86.8,82,86.8z"/>
	<path class="st0" d="M145,78.5c4.3,0,7.6,1.3,9.8,3.9c2.2,2.6,3.3,6.3,3.3,11.2v21.1h-9.6v-20c0-2.7-0.4-4.6-1.3-5.9
		c-0.8-1.2-2.2-1.9-4.2-1.9c-2.1,0-3.7,0.6-4.6,1.9c-0.9,1.3-1.4,3.2-1.4,5.9v20h-9.6v-20c0-2.6-0.4-4.5-1.3-5.8
		c-0.9-1.3-2.3-1.9-4.2-1.9c-2.1,0-3.6,0.7-4.5,2c-0.9,1.3-1.3,3.3-1.3,5.9v19.9h-9.6V79.2h7.2c0.4,0,0.7,0.1,0.9,0.4
		s0.4,0.6,0.4,0.9v2.4c2.3-2.9,5.3-4.3,8.9-4.3c5.1,0,8.7,1.8,10.9,5.4C137.5,80.3,140.8,78.5,145,78.5z"/>
	<path class="st0" d="M195,110.4c-3.2,3.3-7.5,5-13,5s-9.8-1.7-13-5c-3.2-3.3-4.8-7.8-4.8-13.5c0-5.6,1.6-10.1,4.8-13.5
		c3.2-3.3,7.5-5,13-5s9.8,1.7,13,5c3.2,3.4,4.8,7.9,4.8,13.5C199.9,102.6,198.2,107.1,195,110.4z M176,104.3
		c1.4,1.9,3.5,2.8,6.1,2.8c2.6,0,4.6-0.9,6.1-2.8c1.4-1.9,2.2-4.3,2.2-7.3c0-3-0.7-5.5-2.2-7.3c-1.4-1.9-3.5-2.8-6.1-2.8
		c-2.6,0-4.6,0.9-6.1,2.8c-1.4,1.9-2.2,4.3-2.2,7.3C173.8,100,174.6,102.4,176,104.3z"/>
	<path class="st0" d="M218,115.4c-3,0-5.8-0.4-8.4-1.2c-2.6-0.8-4.7-1.9-6.3-3.3l3.8-5.7c0.3-0.4,0.7-0.7,1.1-0.7
		c0.5-0.1,0.9,0,1.4,0.3c2.8,1.6,5.6,2.4,8.3,2.4c1.7,0,3-0.3,3.8-0.8c0.8-0.6,1.2-1.3,1.2-2.2c0-0.7-0.3-1.3-0.8-1.9
		c-0.5-0.5-1.3-0.9-2.4-1.1c-0.8-0.2-2-0.5-3.7-0.8c-1.6-0.3-2.9-0.6-3.9-0.9c-2.5-0.7-4.5-1.8-5.9-3.6c-1.4-1.7-2.2-3.8-2.2-6.3
		c0-3.4,1.2-6,3.7-8.1c2.5-2,5.8-3,9.9-3c2.6,0,5.1,0.4,7.5,1.3c2.4,0.9,4.3,1.9,5.7,3.1l-3.5,5.7c-0.6,0.9-1.4,1.1-2.4,0.5
		c-2.8-1.7-5.6-2.5-8.3-2.5c-1.1,0-1.9,0.2-2.6,0.7c-0.6,0.4-0.9,1-0.9,1.7c0,0.5,0.2,1,0.6,1.5c0.4,0.4,1,0.7,1.7,0.9
		c1.5,0.5,3.6,1,6.3,1.7c3.4,0.8,6.1,2.2,7.9,4.1c1.8,2,2.7,4.3,2.7,6.9c0,3.4-1.3,6.2-3.8,8.2C225.8,114.4,222.4,115.4,218,115.4z"
		/>
	<path class="st0" d="M266.3,110.4c-3.2,3.3-7.5,5-13,5s-9.8-1.7-13-5c-3.2-3.3-4.8-7.8-4.8-13.5c0-5.6,1.6-10.1,4.8-13.5
		c3.2-3.3,7.5-5,13-5s9.8,1.7,13,5c3.2,3.4,4.8,7.9,4.8,13.5C271.1,102.6,269.5,107.1,266.3,110.4z M247.3,104.3
		c1.4,1.9,3.5,2.8,6.1,2.8c2.6,0,4.6-0.9,6.1-2.8c1.4-1.9,2.2-4.3,2.2-7.3c0-3-0.7-5.5-2.2-7.3c-1.4-1.9-3.5-2.8-6.1-2.8
		c-2.6,0-4.6,0.9-6.1,2.8c-1.4,1.9-2.2,4.3-2.2,7.3C245.1,100,245.9,102.4,247.3,104.3z"/>
	<path class="st0" d="M25.5,152.6H15.2V167c0,1.2,0.3,2.1,1,2.9c0.7,0.7,1.6,1.1,2.7,1.1h4c0.8,0,1.4,0.2,1.8,0.7
		c0.4,0.4,0.7,1.1,0.7,1.8v6.4h-7.3c-3.9,0-7-1.1-9.3-3.4c-2.2-2.3-3.3-5.4-3.3-9.4v-14.4H2.5c-0.7,0-1.3-0.2-1.8-0.7
		c-0.5-0.5-0.7-1.1-0.7-1.8v-5.9h5.6v-11.8h9.6v11.8h10.3V152.6z"/>
	<path class="st0" d="M63.4,170.6c0.5,0.5,0.7,1.3,0.7,2.4v6.8h-0.9c-4.1,0-7.1-1.3-8.9-4c-2.9,3.1-7.1,4.6-12.6,4.6
		c-3.5,0-6.3-0.9-8.4-2.8c-2.1-1.9-3.1-4.4-3.1-7.6c0-3.1,1-5.6,3-7.7c2-2.1,5-3.4,9.1-3.9c5.1-0.6,8.6-1.4,10.3-2.4v-0.1
		c0-1.2-0.5-2.1-1.6-2.8c-1.1-0.7-2.4-1.1-4-1.1c-0.9,0-1.7,0.1-2.4,0.2c-0.7,0.1-1.4,0.3-2.1,0.6s-1.1,0.5-1.4,0.6
		c-0.3,0.1-0.8,0.4-1.4,0.8c-0.6,0.4-0.9,0.6-0.9,0.6c-0.8,0.4-1.6,0.6-2.4,0.4s-1.4-0.5-1.8-1.1l-2.9-4.1c0.5-0.6,1.1-1.2,1.9-1.8
		c0.8-0.6,1.8-1.3,3-2c1.2-0.7,2.7-1.3,4.4-1.8c1.7-0.5,3.5-0.7,5.3-0.7c5.2,0,9.2,1.2,11.9,3.6c2.7,2.4,4.1,6,4.1,10.7v10
		C62.1,169.1,62.5,170,63.4,170.6L63.4,170.6z M43,172.3c1,0,1.9-0.1,2.7-0.2c0.8-0.1,1.7-0.4,2.6-0.7c0.9-0.4,1.6-0.8,2.2-1.4
		c0.6-0.6,1.1-1.4,1.5-2.3c0.4-1,0.6-2.1,0.6-3.4v-0.9c-1.8,1.5-4.6,2.3-8.3,2.4c-1.7,0.2-3,0.5-3.8,1.1c-0.8,0.6-1.2,1.4-1.2,2.5
		c0,0.9,0.3,1.7,1,2.2C40.9,172,41.8,172.3,43,172.3z"/>
	<path class="st0" d="M89.7,144.2h0.6v5.4c0,0.8-0.2,1.4-0.7,1.9c-0.4,0.5-1,0.7-1.7,0.7h-0.5c-2.7,0-4.8,0.8-6.2,2.5
		c-1.4,1.6-2.1,4-2.1,6.9v18.1h-9.6v-35.5h7.2c0.4,0,0.7,0.1,0.9,0.4c0.3,0.3,0.4,0.6,0.4,0.9v3.5C81,145.8,84.8,144.2,89.7,144.2z"
		/>
	<path class="st0" d="M115.2,173.2c3.9,0,7,0.8,9,2.3c2.1,1.5,3.1,3.9,3.1,6.9c0,3.1-1.5,5.7-4.4,7.6c-2.9,2-7.4,2.9-13.4,2.9
		c-5.4,0-9.6-1-12.7-3c-3.1-2-4.6-4.5-4.6-7.5c0-1.9,0.5-3.5,1.4-4.9c0.9-1.4,1.9-2.2,2.9-2.6c-0.5-0.1-1.1-0.6-1.7-1.4s-1-1.9-1-3
		c0-2.3,1-4.1,3-5.3c-2.4-2.4-3.6-5.3-3.6-8.8c0-4.2,1.3-7.4,4-9.6c2.7-2.2,6.4-3.4,11.1-3.4c3.6,0,6.7,0.7,9.1,2
		c0.9-0.8,2.1-1.2,3.6-1.2h4.8v5.5c0,0.6-0.2,1.1-0.6,1.5s-0.9,0.6-1.5,0.6h-1c0.5,1.4,0.7,3,0.7,4.6c0,4.1-1.4,7.3-4.3,9.6
		c-2.9,2.2-6.8,3.4-11.7,3.4h-2.4c-0.9,0-1.6,0.2-2.2,0.5c-0.5,0.3-0.8,0.8-0.8,1.4c0,1.3,1.3,2,3.8,2H115.2z M109.7,185
		c3.2,0,5.5-0.3,6.9-0.8c1.5-0.5,2.2-1.3,2.2-2.2c0-1.4-1.3-2.2-3.9-2.2h-9.7c-2.7,0-4.1,0.7-4.1,2.2c0,0.8,0.8,1.5,2.4,2.1
		C105.2,184.7,107.2,185,109.7,185z M113,152.8c-1.1-0.8-2.6-1.2-4.5-1.2s-3.4,0.4-4.5,1.3c-1.1,0.8-1.7,2-1.7,3.5
		c0,1.5,0.6,2.8,1.7,3.6c1.1,0.9,2.6,1.3,4.5,1.3c1.9,0,3.4-0.4,4.6-1.3c1.1-0.9,1.7-2.1,1.7-3.6C114.7,154.8,114.1,153.6,113,152.8
		z"/>
	<path class="st0" d="M162.1,170.6c0.5,0.5,0.7,1.3,0.7,2.4v6.8h-0.9c-4.1,0-7.1-1.3-8.9-4c-2.9,3.1-7.1,4.6-12.6,4.6
		c-3.5,0-6.3-0.9-8.4-2.8c-2.1-1.9-3.1-4.4-3.1-7.6c0-3.1,1-5.6,3-7.7c2-2.1,5-3.4,9.1-3.9c5.1-0.6,8.6-1.4,10.3-2.4v-0.1
		c0-1.2-0.5-2.1-1.6-2.8c-1.1-0.7-2.4-1.1-4-1.1c-0.9,0-1.7,0.1-2.4,0.2c-0.7,0.1-1.4,0.3-2.1,0.6s-1.1,0.5-1.4,0.6
		c-0.3,0.1-0.8,0.4-1.4,0.8c-0.6,0.4-0.9,0.6-0.9,0.6c-0.8,0.4-1.6,0.6-2.4,0.4s-1.4-0.5-1.8-1.1l-2.9-4.1c0.5-0.6,1.1-1.2,1.9-1.8
		c0.8-0.6,1.8-1.3,3-2c1.2-0.7,2.7-1.3,4.4-1.8c1.7-0.5,3.5-0.7,5.3-0.7c5.2,0,9.2,1.2,11.9,3.6c2.7,2.4,4.1,6,4.1,10.7v10
		C160.7,169.1,161.2,170,162.1,170.6L162.1,170.6z M141.6,172.3c1,0,1.9-0.1,2.7-0.2c0.8-0.1,1.7-0.4,2.6-0.7
		c0.9-0.4,1.6-0.8,2.2-1.4c0.6-0.6,1.1-1.4,1.5-2.3c0.4-1,0.6-2.1,0.6-3.4v-0.9c-1.8,1.5-4.6,2.3-8.3,2.4c-1.7,0.2-3,0.5-3.8,1.1
		c-0.8,0.6-1.2,1.4-1.2,2.5c0,0.9,0.3,1.7,1,2.2C139.6,172,140.5,172.3,141.6,172.3z"/>
	<path class="st0" d="M190.7,152.6h-10.3V167c0,1.2,0.3,2.1,1,2.9c0.7,0.7,1.6,1.1,2.7,1.1h4c0.8,0,1.4,0.2,1.8,0.7
		c0.4,0.4,0.7,1.1,0.7,1.8v6.4h-7.3c-3.9,0-7-1.1-9.3-3.4c-2.2-2.3-3.3-5.4-3.3-9.4v-14.4h-3.1c-0.7,0-1.3-0.2-1.8-0.7
		c-0.5-0.5-0.7-1.1-0.7-1.8v-5.9h5.6v-11.8h9.6v11.8h10.3V152.6z"/>
	<path class="st0" d="M226.3,175.4c-3.2,3.3-7.5,5-13,5s-9.8-1.7-13-5c-3.2-3.3-4.8-7.8-4.8-13.5c0-5.6,1.6-10.1,4.8-13.5
		c3.2-3.3,7.5-5,13-5s9.8,1.7,13,5c3.2,3.4,4.8,7.9,4.8,13.5C231.1,167.6,229.5,172.1,226.3,175.4z M207.2,169.3
		c1.4,1.9,3.5,2.8,6.1,2.8c2.6,0,4.6-0.9,6.1-2.8c1.4-1.9,2.2-4.3,2.2-7.3c0-3-0.7-5.5-2.2-7.3c-1.4-1.9-3.5-2.8-6.1-2.8
		c-2.6,0-4.6,0.9-6.1,2.8c-1.4,1.9-2.2,4.3-2.2,7.3C205.1,165,205.8,167.4,207.2,169.3z"/>
	<path class="st0" d="M310,132.4v47.3h-10v-27.3c0-1.3,0.2-2.6,0.7-4c0-0.1,0-0.2-0.1-0.3c-0.1-0.1-0.2-0.1-0.3-0.1h-0.1l-12,31.7
		h-9.8l-12-31.7c-0.1,0-0.2,0-0.3,0.1c-0.1,0.1-0.1,0.2-0.1,0.3c0.5,1.4,0.7,2.8,0.7,4.1v27.2h-10v-47.3h14.2l12,32.5
		c0.1,0.3,0.1,0.6,0.1,0.7v1.2c0,0.2,0.1,0.4,0.3,0.4h0.1l13.1-34.8H310z"/>
	<path class="st0" d="M350.1,170.6c0.5,0.5,0.7,1.3,0.7,2.4v6.8H350c-4.1,0-7.1-1.3-8.9-4c-2.9,3.1-7.1,4.6-12.6,4.6
		c-3.5,0-6.3-0.9-8.4-2.8c-2.1-1.9-3.1-4.4-3.1-7.6c0-3.1,1-5.6,3-7.7c2-2.1,5-3.4,9.1-3.9c5.1-0.6,8.6-1.4,10.3-2.4v-0.1
		c0-1.2-0.5-2.1-1.6-2.8c-1.1-0.7-2.4-1.1-4-1.1c-0.9,0-1.7,0.1-2.4,0.2c-0.7,0.1-1.4,0.3-2.1,0.6s-1.1,0.5-1.4,0.6
		c-0.3,0.1-0.8,0.4-1.4,0.8c-0.6,0.4-0.9,0.6-0.9,0.6c-0.8,0.4-1.6,0.6-2.4,0.4c-0.8-0.1-1.4-0.5-1.8-1.1l-2.9-4.1
		c0.5-0.6,1.1-1.2,1.9-1.8c0.8-0.6,1.8-1.3,3-2c1.2-0.7,2.7-1.3,4.4-1.8c1.7-0.5,3.5-0.7,5.3-0.7c5.2,0,9.2,1.2,11.9,3.6
		s4.1,6,4.1,10.7v10C348.8,169.1,349.2,170,350.1,170.6L350.1,170.6z M329.7,172.3c1,0,1.9-0.1,2.7-0.2s1.7-0.4,2.6-0.7
		c0.9-0.4,1.6-0.8,2.2-1.4c0.6-0.6,1.1-1.4,1.5-2.3c0.4-1,0.6-2.1,0.6-3.4v-0.9c-1.8,1.5-4.6,2.3-8.3,2.4c-1.7,0.2-3,0.5-3.8,1.1
		c-0.8,0.6-1.2,1.4-1.2,2.5c0,0.9,0.3,1.7,1,2.2C327.6,172,328.5,172.3,329.7,172.3z"/>
	<path class="st0" d="M349.7,192.4V186c0-0.7,0.2-1.3,0.7-1.8c0.5-0.5,1.1-0.7,1.8-0.7h1.8c1.2,0,2.1-0.4,2.8-1.1
		c0.7-0.7,1-1.7,1-2.9v-35.3h9.6v35.3c0,4-1.1,7.2-3.4,9.4c-2.2,2.3-5.3,3.4-9.3,3.4H349.7z M366.3,139.4c-1,1-2.3,1.5-3.8,1.5
		c-1.5,0-2.8-0.5-3.7-1.5c-1-1-1.5-2.2-1.5-3.7c0-1.5,0.5-2.8,1.5-3.8c1-1,2.2-1.5,3.7-1.5c1.5,0,2.8,0.5,3.8,1.5
		c1,1,1.5,2.3,1.5,3.8C367.8,137.2,367.3,138.5,366.3,139.4z"/>
	<path class="st0" d="M406.8,170.6c0.5,0.5,0.7,1.3,0.7,2.4v6.8h-0.9c-4.1,0-7.1-1.3-8.9-4c-2.9,3.1-7.1,4.6-12.6,4.6
		c-3.5,0-6.3-0.9-8.4-2.8c-2.1-1.9-3.1-4.4-3.1-7.6c0-3.1,1-5.6,3-7.7c2-2.1,5-3.4,9.1-3.9c5.1-0.6,8.6-1.4,10.3-2.4v-0.1
		c0-1.2-0.5-2.1-1.6-2.8c-1.1-0.7-2.4-1.1-4-1.1c-0.9,0-1.7,0.1-2.4,0.2c-0.7,0.1-1.4,0.3-2.1,0.6s-1.1,0.5-1.4,0.6
		c-0.3,0.1-0.8,0.4-1.4,0.8c-0.6,0.4-0.9,0.6-0.9,0.6c-0.8,0.4-1.6,0.6-2.4,0.4s-1.4-0.5-1.8-1.1l-2.9-4.1c0.5-0.6,1.1-1.2,1.9-1.8
		c0.8-0.6,1.8-1.3,3-2c1.2-0.7,2.7-1.3,4.4-1.8s3.5-0.7,5.3-0.7c5.2,0,9.2,1.2,11.9,3.6c2.7,2.4,4.1,6,4.1,10.7v10
		C405.4,169.1,405.9,170,406.8,170.6L406.8,170.6z M386.3,172.3c1,0,1.9-0.1,2.7-0.2s1.7-0.4,2.6-0.7c0.9-0.4,1.6-0.8,2.2-1.4
		c0.6-0.6,1.1-1.4,1.5-2.3c0.4-1,0.6-2.1,0.6-3.4v-0.9c-1.8,1.5-4.6,2.3-8.3,2.4c-1.7,0.2-3,0.5-3.8,1.1c-0.8,0.6-1.2,1.4-1.2,2.5
		c0,0.9,0.3,1.7,1,2.2C384.3,172,385.2,172.3,386.3,172.3z"/>
	<path class="st0" d="M432,143.5c4.6,0,8.1,1.3,10.5,3.9c2.4,2.6,3.6,6.4,3.6,11.2v21h-9.6v-19.9c0-2.7-0.4-4.7-1.3-6
		c-0.9-1.3-2.4-1.9-4.7-1.9c-2.2,0-3.9,0.7-5.1,2c-1.2,1.4-1.8,3.3-1.8,5.8v19.9H414v-35.5h7.2c0.4,0,0.7,0.1,0.9,0.4
		s0.4,0.6,0.4,0.9v2.6C425,145.1,428.2,143.5,432,143.5z"/>
	<path class="st0" d="M459.8,140.4c-1.5,0-2.7-0.5-3.7-1.5c-1-1-1.5-2.2-1.5-3.7c0-1.5,0.5-2.8,1.5-3.8c1-1,2.2-1.5,3.7-1.5
		c1.5,0,2.8,0.5,3.8,1.5c1,1,1.5,2.2,1.5,3.8c0,1.5-0.5,2.7-1.5,3.7C462.6,140,461.3,140.4,459.8,140.4z M455,179.7v-35.5h9.6v35.5
		H455z"/>
</g>
</svg>
