<?xml version="1.0" encoding="utf-8"?>
<!-- Generator: Adobe Illustrator 22.0.0, SVG Export Plug-In . SVG Version: 6.00 Build 0)  -->
<svg version="1.1" id="Laag_1" xmlns="http://www.w3.org/2000/svg" xmlns:xlink="http://www.w3.org/1999/xlink" x="0px" y="0px"
	 viewBox="0 0 113.9 37" style="enable-background:new 0 0 113.9 37;" xml:space="preserve">
<g>
	<path d="M4.6,23v9.5H1.2V4.1h4.6c2.7,0,4.5,1,4.5,2.9v13.1c0,2-1.9,3-4.5,3L4.6,23L4.6,23z M6.8,19.9V7.1C6.8,6.4,6.3,6,5.5,6h-1
		v14.9h1C6.4,21,6.8,20.6,6.8,19.9z"/>
	<path d="M18,32.5l-1.1-11.6h-1.5v11.6h-3.3V4.1h4.6c2.7,0,4.4,0.9,4.4,2.9v10.9c0,1-0.5,1.7-1.2,2.1l1.5,12.5H18z M16.3,18.9
		c0.9,0,1.3-0.3,1.3-1.1V7.2c0-0.7-0.5-1.1-1.3-1.1h-0.9V19L16.3,18.9L16.3,18.9z"/>
	<path d="M29.8,30.5v2h-6.7V4.1h6.6v2h-3.2v10.7h3v2h-3v11.8L29.8,30.5L29.8,30.5z"/>
	<path d="M36.8,14.5V6.7c0-0.5-0.4-0.8-1.1-0.8c-0.7,0-1.1,0.3-1.1,0.7v7.7c0,0.9,0.3,1.3,1.3,1.7l1.5,0.5c1.8,0.7,2.8,1.4,2.8,3.2
		v9.9c0,1.9-1.7,2.9-4.5,2.9s-4.6-1-4.6-2.8v-9.4h3.4v9.3c0,0.5,0.4,0.9,1.2,0.9c0.7,0,1.1-0.4,1.1-0.8v-9.3c0-1-0.4-1.4-1.4-1.8
		L33.8,18c-1.8-0.7-2.7-1.5-2.7-3.3V6.5c0-1.6,1.5-2.7,4.6-2.7c2.9,0,4.4,1,4.4,2.7v7.9L36.8,14.5L36.8,14.5z"/>
	<path d="M48.9,30.5v2h-6.7V4.1h6.6v2h-3.2v10.7h3v2h-3v11.8L48.9,30.5L48.9,30.5z"/>
	<path d="M56.5,11.9V4.1h3v28.5h-3.2l-3-18.5h-0.2l0.4,9.7v8.8h-3V4.1h3.3l2.9,17.5H57L56.5,11.9z"/>
	<path d="M69.4,6.1h-2.7v26.5h-3.4V6.1h-2.7v-2h8.8C69.4,4.1,69.4,6.1,69.4,6.1z"/>
	<path d="M77.2,30.5v2h-6.7V4.1h6.6v2h-3.2v10.7h3v2h-3v11.8L77.2,30.5L77.2,30.5z"/>
	<path d="M84.7,32.5l-1.1-11.6h-1.5v11.6h-3.3V4.1h4.6c2.7,0,4.4,0.9,4.4,2.9v10.9c0,1-0.5,1.7-1.2,2.1l1.5,12.5H84.7z M83,18.9
		c0.9,0,1.3-0.3,1.3-1.1V7.2c0-0.7-0.5-1.1-1.3-1.1h-0.9V19L83,18.9L83,18.9z"/>
	<path d="M96.5,30.5v2h-6.7V4.1h6.6v2h-3.2v10.7h3v2h-3v11.8L96.5,30.5L96.5,30.5z"/>
	<path d="M104,11.9V4.1h3v28.5h-3.2l-3-18.5h-0.3l0.4,9.7v8.8h-3V4.1h3.3l2.9,17.5h0.3L104,11.9z"/>
	<path d="M0.1,36.3v-1.5h108v1.5H0.1z"/>
</g>
</svg>
