<?xml version="1.0" encoding="utf-8"?>
<!-- Generator: Adobe Illustrator 24.3.0, SVG Export Plug-In . SVG Version: 6.00 Build 0)  -->
<svg version="1.1" id="Laag_1" xmlns="http://www.w3.org/2000/svg" xmlns:xlink="http://www.w3.org/1999/xlink" x="0px" y="0px"
	 width="67px" height="40.5px" viewBox="0 0 67 40.5" style="enable-background:new 0 0 67 40.5;" xml:space="preserve">
<style type="text/css">
	.st0{fill:#FFFFFF;}
</style>
<g>
	<path class="st0" d="M4.3,4.3H2.9V3.6H5v2.9c-0.1,0-0.2,0.1-0.3,0.1c-0.1,0-0.3,0.1-0.4,0.1C4.2,6.8,4,6.8,3.8,6.8
		c-0.2,0-0.4,0-0.5,0c-0.5,0-1-0.1-1.4-0.2C1.5,6.5,1.2,6.3,0.9,6C0.6,5.8,0.4,5.5,0.3,5.1S0.1,4.3,0.1,3.9c0-0.5,0.1-0.9,0.2-1.3
		s0.4-0.7,0.7-1C1.3,1.2,1.6,1,2,0.8c0.4-0.2,0.9-0.2,1.3-0.2c0.1,0,0.3,0,0.4,0s0.3,0,0.4,0c0.1,0,0.2,0,0.3,0.1
		c0.1,0,0.2,0.1,0.3,0.1v0.7C4.6,1.4,4.3,1.3,4.1,1.3c-0.2,0-0.5-0.1-0.7-0.1c-0.3,0-0.7,0.1-1,0.2C2.1,1.5,1.8,1.7,1.6,1.9
		C1.4,2.1,1.2,2.3,1,2.7S0.8,3.3,0.8,3.8c0,0.4,0.1,0.8,0.2,1.1c0.1,0.3,0.3,0.6,0.5,0.8C1.7,5.8,2,6,2.3,6.1c0.3,0.1,0.6,0.1,1,0.1
		c0.2,0,0.3,0,0.5,0c0.2,0,0.3,0,0.5-0.1V4.3z"/>
	<path class="st0" d="M8.4,6.2c0.2,0,0.4,0,0.6-0.1c0.2,0,0.4-0.1,0.6-0.2v0.6C9.5,6.7,9.3,6.7,9.1,6.8c-0.2,0-0.5,0.1-0.7,0.1
		c-0.3,0-0.6,0-0.9-0.1C7.2,6.7,7,6.5,6.8,6.4C6.6,6.2,6.4,6,6.3,5.7c-0.1-0.3-0.2-0.6-0.2-1c0-0.4,0.1-0.7,0.2-1
		c0.1-0.3,0.3-0.5,0.4-0.7c0.2-0.2,0.4-0.3,0.6-0.4c0.2-0.1,0.5-0.1,0.7-0.1c0.2,0,0.5,0,0.7,0.1C9,2.5,9.2,2.7,9.3,2.8
		C9.5,3,9.6,3.2,9.7,3.5s0.1,0.6,0.1,1c0,0,0,0.1,0,0.1s0,0.1,0,0.2h-3c0,0.3,0,0.5,0.1,0.7c0.1,0.2,0.2,0.3,0.3,0.5
		C7.5,6,7.6,6.1,7.8,6.2C8,6.2,8.2,6.2,8.4,6.2z M8.1,2.9C7.9,2.9,7.8,3,7.6,3C7.5,3.1,7.4,3.2,7.3,3.3S7.1,3.5,7,3.7
		C6.9,3.8,6.9,4,6.9,4.1h2.2c0-0.2,0-0.3-0.1-0.5c0-0.1-0.1-0.3-0.2-0.4C8.7,3.2,8.6,3.1,8.5,3C8.4,3,8.2,2.9,8.1,2.9z"/>
	<path class="st0" d="M11.1,6.7V0.2h0.7v6.5H11.1z"/>
	<path class="st0" d="M14.9,6.9c-0.2,0-0.4,0-0.6-0.1c-0.2,0-0.3-0.1-0.5-0.2c-0.1-0.1-0.2-0.2-0.3-0.3c-0.1-0.1-0.2-0.3-0.2-0.4
		c0-0.1-0.1-0.2-0.1-0.4c0-0.1,0-0.3,0-0.4V2.4h0.7v2.6c0,0.2,0,0.4,0.1,0.6C14,5.9,14.1,6,14.3,6.1c0.2,0.1,0.4,0.2,0.6,0.2
		c0.3,0,0.5-0.1,0.6-0.2c0.2-0.1,0.3-0.3,0.3-0.5c0.1-0.1,0.1-0.3,0.1-0.5V2.4h0.7v2.6c0,0.1,0,0.3,0,0.4c0,0.1,0,0.2-0.1,0.3
		c-0.1,0.1-0.1,0.3-0.2,0.4c-0.1,0.1-0.2,0.2-0.4,0.3c-0.1,0.1-0.3,0.2-0.5,0.2C15.3,6.8,15.1,6.9,14.9,6.9z"/>
	<path class="st0" d="M18,1.4V0.7h0.7v0.8H18z M18,6.7V2.4h0.7v4.3H18z"/>
	<path class="st0" d="M19.9,4.6c0-0.3,0-0.6,0.1-0.8c0.1-0.2,0.1-0.4,0.2-0.6c0.1-0.2,0.2-0.3,0.3-0.4c0.1-0.1,0.3-0.2,0.4-0.3
		c0.1-0.1,0.3-0.1,0.4-0.2c0.1,0,0.3,0,0.4,0c0.3,0,0.5,0,0.7,0.1c0.2,0.1,0.4,0.2,0.5,0.4h0V0.2h0.7v6.5h-0.5L23,6.3h0
		c-0.1,0.1-0.1,0.1-0.2,0.2c-0.1,0.1-0.2,0.1-0.3,0.2c-0.1,0.1-0.2,0.1-0.3,0.1c-0.1,0-0.3,0.1-0.4,0.1c-0.2,0-0.5,0-0.7-0.1
		c-0.2-0.1-0.4-0.2-0.6-0.4c-0.2-0.2-0.3-0.4-0.4-0.7C19.9,5.4,19.9,5,19.9,4.6z M20.6,4.6c0,0.2,0,0.5,0.1,0.7
		c0.1,0.2,0.1,0.4,0.2,0.5C21,6,21.2,6.1,21.3,6.1c0.2,0.1,0.3,0.1,0.5,0.1c0.1,0,0.3,0,0.4-0.1c0.1,0,0.2-0.1,0.3-0.1
		c0.1-0.1,0.2-0.1,0.2-0.2c0.1-0.1,0.1-0.1,0.2-0.2V3.4c-0.1-0.1-0.3-0.3-0.5-0.4c-0.2-0.1-0.4-0.1-0.6-0.1c-0.1,0-0.3,0-0.4,0.1
		c-0.1,0.1-0.3,0.1-0.4,0.3c-0.1,0.1-0.2,0.3-0.3,0.5C20.6,4,20.6,4.3,20.6,4.6z"/>
	<path class="st0" d="M31.8,3.6c0,0.4-0.1,0.8-0.2,1.2c-0.1,0.4-0.3,0.7-0.6,0.9c0.1,0.1,0.3,0.3,0.4,0.4c0.1,0.1,0.2,0.2,0.3,0.3
		c0.1,0.1,0.2,0.2,0.2,0.2C32,6.7,32,6.7,32,6.7h-0.9c0,0-0.1-0.1-0.2-0.2c-0.1-0.1-0.2-0.2-0.4-0.4c-0.3,0.2-0.6,0.4-0.9,0.5
		s-0.7,0.2-1,0.2c-0.3,0-0.6,0-0.9-0.1c-0.2-0.1-0.4-0.2-0.6-0.4C27,6.2,26.9,6,26.8,5.9c-0.1-0.2-0.1-0.4-0.1-0.6
		c0-0.2,0-0.4,0.1-0.6c0.1-0.2,0.2-0.3,0.3-0.5c0.1-0.1,0.2-0.3,0.4-0.4c0.2-0.1,0.3-0.2,0.5-0.3c-0.1-0.1-0.2-0.2-0.3-0.3
		c-0.1-0.1-0.2-0.2-0.3-0.4c-0.1-0.1-0.1-0.3-0.2-0.4c0-0.1-0.1-0.3-0.1-0.5c0-0.2,0-0.4,0.1-0.6c0.1-0.2,0.2-0.3,0.3-0.4
		c0.1-0.1,0.3-0.2,0.5-0.3s0.4-0.1,0.7-0.1c0.2,0,0.4,0,0.6,0.1c0.2,0.1,0.4,0.1,0.5,0.3C30,1,30.2,1.2,30.2,1.3
		c0.1,0.2,0.1,0.4,0.1,0.6c0,0.2,0,0.4-0.1,0.6c-0.1,0.2-0.2,0.3-0.3,0.5c-0.1,0.1-0.3,0.3-0.4,0.4c-0.2,0.1-0.3,0.2-0.5,0.3
		c0.1,0.1,0.2,0.2,0.3,0.3c0.1,0.1,0.3,0.3,0.4,0.4c0.1,0.1,0.3,0.3,0.4,0.4c0.1,0.1,0.3,0.3,0.4,0.4c0.2-0.2,0.3-0.4,0.4-0.7
		c0.1-0.3,0.1-0.6,0.1-1H31.8z M28.6,6.3c0.1,0,0.2,0,0.4,0c0.1,0,0.3-0.1,0.4-0.1c0.1,0,0.3-0.1,0.4-0.2c0.1-0.1,0.3-0.1,0.4-0.2
		c-0.1-0.1-0.3-0.3-0.4-0.5c-0.2-0.2-0.3-0.3-0.5-0.5c-0.2-0.2-0.3-0.3-0.4-0.4c-0.1-0.1-0.3-0.3-0.4-0.4C28.2,4,28.1,4.1,28,4.2
		c-0.1,0.1-0.2,0.2-0.3,0.3c-0.1,0.1-0.2,0.2-0.2,0.3c0,0.1-0.1,0.3-0.1,0.4c0,0.1,0,0.3,0.1,0.4c0,0.1,0.1,0.2,0.2,0.3
		c0.1,0.1,0.2,0.2,0.4,0.2C28.2,6.2,28.4,6.3,28.6,6.3z M27.8,2c0,0.1,0,0.2,0,0.3c0,0.1,0.1,0.2,0.1,0.3c0.1,0.1,0.1,0.2,0.2,0.3
		s0.2,0.2,0.3,0.3C28.7,3.1,28.8,3.1,29,3c0.1-0.1,0.2-0.2,0.3-0.3c0.1-0.1,0.2-0.2,0.2-0.3c0.1-0.1,0.1-0.3,0.1-0.4
		c0-0.1,0-0.3-0.1-0.4c0-0.1-0.1-0.2-0.2-0.2c-0.1-0.1-0.2-0.1-0.3-0.1c-0.1,0-0.2,0-0.4,0c-0.3,0-0.5,0.1-0.7,0.2
		C27.9,1.5,27.8,1.7,27.8,2z"/>
	<path class="st0" d="M36.6,2.3c0.2,0,0.4,0,0.5,0.1c0.1,0,0.3,0.1,0.4,0.2c0.1,0.1,0.2,0.1,0.2,0.2c0.1,0.1,0.1,0.1,0.1,0.2h0
		L38,2.4h0.5V7c0,0.3-0.1,0.6-0.2,0.9c-0.1,0.2-0.3,0.5-0.5,0.6c-0.2,0.2-0.4,0.3-0.7,0.4C36.9,8.9,36.6,9,36.3,9
		c-0.3,0-0.5,0-0.8-0.1c-0.2-0.1-0.4-0.1-0.5-0.2V8.1c0.1,0,0.2,0.1,0.3,0.1c0.1,0,0.2,0.1,0.3,0.1c0.1,0,0.2,0,0.3,0
		c0.1,0,0.2,0,0.4,0c0.5,0,0.9-0.1,1.2-0.4s0.4-0.6,0.4-1.1V6.3h0c-0.2,0.2-0.3,0.3-0.5,0.4c-0.2,0.1-0.4,0.1-0.7,0.1
		c-0.1,0-0.3,0-0.4,0c-0.1,0-0.3-0.1-0.4-0.1c-0.1-0.1-0.3-0.2-0.4-0.3c-0.1-0.1-0.2-0.2-0.3-0.4c-0.1-0.2-0.2-0.4-0.2-0.6
		c-0.1-0.2-0.1-0.5-0.1-0.8c0-0.4,0.1-0.7,0.2-1c0.1-0.3,0.3-0.5,0.4-0.7c0.2-0.2,0.4-0.3,0.6-0.4C36.2,2.4,36.4,2.3,36.6,2.3z
		 M35.5,4.6c0,0.3,0,0.6,0.1,0.8c0.1,0.2,0.2,0.4,0.3,0.5c0.1,0.1,0.3,0.2,0.4,0.2c0.1,0,0.3,0.1,0.4,0.1c0.2,0,0.4,0,0.6-0.1
		c0.2-0.1,0.4-0.2,0.5-0.4V3.5c0-0.1-0.1-0.1-0.2-0.2c-0.1-0.1-0.2-0.1-0.2-0.2C37.3,3.1,37.2,3,37.1,3c-0.1,0-0.2-0.1-0.4-0.1
		c-0.2,0-0.4,0-0.6,0.1c-0.2,0.1-0.3,0.2-0.4,0.3c-0.1,0.1-0.2,0.3-0.2,0.5S35.5,4.4,35.5,4.6z"/>
	<path class="st0" d="M41.9,6.2c0.2,0,0.4,0,0.6-0.1c0.2,0,0.4-0.1,0.6-0.2v0.6c-0.2,0.1-0.3,0.1-0.6,0.2c-0.2,0-0.5,0.1-0.7,0.1
		c-0.3,0-0.6,0-0.9-0.1c-0.3-0.1-0.5-0.2-0.7-0.4c-0.2-0.2-0.4-0.4-0.5-0.7c-0.1-0.3-0.2-0.6-0.2-1c0-0.4,0.1-0.7,0.2-1
		c0.1-0.3,0.3-0.5,0.4-0.7c0.2-0.2,0.4-0.3,0.6-0.4c0.2-0.1,0.5-0.1,0.7-0.1c0.2,0,0.5,0,0.7,0.1s0.4,0.2,0.5,0.4
		C43,3,43.1,3.2,43.2,3.5s0.1,0.6,0.1,1c0,0,0,0.1,0,0.1s0,0.1,0,0.2h-3c0,0.3,0,0.5,0.1,0.7c0.1,0.2,0.2,0.3,0.3,0.5
		C41,6,41.1,6.1,41.3,6.2C41.5,6.2,41.7,6.2,41.9,6.2z M41.6,2.9c-0.2,0-0.3,0-0.5,0.1c-0.1,0.1-0.3,0.1-0.4,0.3
		c-0.1,0.1-0.2,0.2-0.3,0.4c-0.1,0.1-0.1,0.3-0.1,0.5h2.2c0-0.2,0-0.3-0.1-0.5c0-0.1-0.1-0.3-0.2-0.4C42.2,3.2,42.1,3.1,42,3
		C41.9,3,41.7,2.9,41.6,2.9z"/>
	<path class="st0" d="M46.2,6.9c-0.2,0-0.4,0-0.6-0.1c-0.2,0-0.3-0.1-0.5-0.2c-0.1-0.1-0.2-0.2-0.3-0.3c-0.1-0.1-0.2-0.3-0.2-0.4
		c0-0.1-0.1-0.2-0.1-0.4c0-0.1,0-0.3,0-0.4V2.4h0.7v2.6c0,0.2,0,0.4,0.1,0.6c0.1,0.2,0.2,0.3,0.4,0.4c0.2,0.1,0.4,0.2,0.6,0.2
		c0.3,0,0.5-0.1,0.6-0.2C47,6,47.1,5.8,47.2,5.6c0.1-0.1,0.1-0.3,0.1-0.5V2.4H48v2.6c0,0.1,0,0.3,0,0.4c0,0.1,0,0.2-0.1,0.3
		c-0.1,0.1-0.1,0.3-0.2,0.4c-0.1,0.1-0.2,0.2-0.4,0.3S47,6.7,46.8,6.8C46.6,6.8,46.4,6.9,46.2,6.9z"/>
	<path class="st0" d="M51.7,3L51.7,3c-0.2,0-0.4,0-0.5,0c-0.2,0-0.3,0.1-0.4,0.1c-0.1,0.1-0.3,0.1-0.4,0.2c-0.1,0.1-0.2,0.2-0.3,0.3
		v3h-0.7V2.4h0.5L50,3.1h0c0.1-0.1,0.2-0.2,0.3-0.3c0.1-0.1,0.2-0.2,0.3-0.3c0.1-0.1,0.3-0.1,0.4-0.2c0.2,0,0.3-0.1,0.5-0.1
		c0,0,0.1,0,0.1,0c0,0,0.1,0,0.1,0V3z"/>
	<path class="st0" d="M55.7,6c0.1-0.3,0.2-0.7,0.4-1.2L57,2.4h0.7l-1.6,4.3h-0.7l-1.6-4.3h0.7l0.9,2.4C55.4,5.3,55.6,5.7,55.7,6
		L55.7,6z"/>
	<path class="st0" d="M61.1,6.3L61.1,6.3c-0.1,0.1-0.1,0.1-0.2,0.2c-0.1,0.1-0.2,0.1-0.3,0.2c-0.1,0.1-0.2,0.1-0.4,0.1
		c-0.1,0-0.3,0-0.4,0c-0.2,0-0.4,0-0.6-0.1c-0.2-0.1-0.3-0.2-0.4-0.3c-0.1-0.1-0.2-0.3-0.3-0.4c-0.1-0.2-0.1-0.4-0.1-0.6
		c0-0.2,0-0.4,0.1-0.6c0.1-0.2,0.2-0.3,0.3-0.4c0.1-0.1,0.3-0.2,0.5-0.3c0.2-0.1,0.4-0.1,0.6-0.1c0.2,0,0.4,0,0.6,0.1
		c0.2,0,0.4,0.1,0.5,0.1h0V4c0-0.1,0-0.2,0-0.3c0-0.1,0-0.2-0.1-0.2c-0.1-0.1-0.2-0.3-0.4-0.4c-0.2-0.1-0.4-0.1-0.7-0.1
		c-0.2,0-0.4,0-0.6,0.1c-0.2,0-0.4,0.1-0.6,0.2V2.6c0.1,0,0.2-0.1,0.3-0.1c0.1,0,0.2-0.1,0.3-0.1c0.1,0,0.2,0,0.3-0.1
		c0.1,0,0.2,0,0.4,0c0.4,0,0.8,0.1,1.1,0.2c0.3,0.2,0.5,0.4,0.6,0.6c0,0.1,0.1,0.2,0.1,0.3c0,0.1,0,0.2,0,0.4v2.9h-0.6L61.1,6.3z
		 M61,4.9c-0.1,0-0.3-0.1-0.5-0.1c-0.2,0-0.4-0.1-0.6-0.1c-0.3,0-0.5,0.1-0.7,0.2S59,5.2,59,5.5c0,0.1,0,0.2,0.1,0.3
		c0,0.1,0.1,0.2,0.2,0.2c0.1,0.1,0.2,0.1,0.3,0.1c0.1,0,0.2,0,0.3,0c0.2,0,0.3,0,0.4-0.1c0.1,0,0.2-0.1,0.3-0.2
		c0.1-0.1,0.2-0.1,0.3-0.2S61,5.7,61,5.7V4.9z"/>
	<path class="st0" d="M63.8,3L63.8,3c0.1-0.1,0.2-0.2,0.3-0.3c0.1-0.1,0.2-0.2,0.3-0.2s0.2-0.1,0.4-0.2c0.1,0,0.3-0.1,0.5-0.1
		c0.2,0,0.4,0,0.6,0.1c0.2,0.1,0.3,0.1,0.4,0.3c0.1,0.1,0.2,0.3,0.3,0.5c0.1,0.2,0.1,0.4,0.1,0.7v2.9h-0.7V4c0-0.4-0.1-0.6-0.2-0.8
		c-0.1-0.2-0.4-0.2-0.6-0.2c-0.2,0-0.5,0.1-0.7,0.2s-0.4,0.3-0.6,0.6v3.1h-0.7V2.4h0.5L63.8,3z"/>
	<path class="st0" d="M6.1,29H3.4L6,16.7H1.4l0.4-2.2h11.8l-0.5,2.2H8.6L6.1,29z"/>
	<path class="st0" d="M20.8,22.6c0-0.2,0.1-0.4,0.1-0.6c0-0.2,0-0.3,0-0.5c0-0.4-0.1-0.7-0.3-0.9s-0.5-0.3-1-0.3
		c-0.5,0-1,0.1-1.5,0.4c-0.5,0.3-0.8,0.7-1.1,1.2c-0.1,0.1-0.1,0.2-0.2,0.3c-0.1,0.1-0.1,0.2-0.2,0.4c-0.1,0.1-0.1,0.3-0.1,0.5
		c0,0.2-0.1,0.4-0.1,0.6L15.4,29h-2.6l3.3-15.7h2.6l-1,4.9c-0.1,0.4-0.2,0.9-0.4,1.6h0c0.2-0.2,0.4-0.4,0.6-0.6
		c0.2-0.2,0.5-0.4,0.8-0.5c0.3-0.1,0.6-0.3,0.9-0.3c0.3-0.1,0.7-0.1,1-0.1c0.4,0,0.8,0.1,1.2,0.2s0.7,0.3,1,0.5s0.5,0.5,0.7,0.8
		c0.2,0.3,0.2,0.7,0.2,1.2c0,0.3,0,0.6-0.1,0.9c-0.1,0.3-0.1,0.7-0.2,1L22,29h-2.6L20.8,22.6z"/>
	<path class="st0" d="M29.3,29.2c-0.7,0-1.3-0.1-1.8-0.2c-0.5-0.2-0.9-0.4-1.2-0.7s-0.6-0.6-0.7-1c-0.1-0.4-0.2-0.8-0.2-1.3
		c0-0.2,0-0.3,0-0.5c0-0.2,0.1-0.4,0.1-0.7l1.3-6.3h2.6l-1.3,6.4c0,0.2-0.1,0.3-0.1,0.5s0,0.3,0,0.4c0,0.4,0.1,0.8,0.4,1
		s0.6,0.4,1.2,0.4c0.4,0,0.7-0.1,1-0.2s0.5-0.3,0.7-0.5c0.2-0.2,0.3-0.4,0.5-0.7s0.2-0.6,0.3-1l1.3-6.4h2.6l-1.5,7.1
		c-0.1,0.5-0.3,0.9-0.5,1.4s-0.5,0.8-0.9,1.2c-0.4,0.3-0.9,0.6-1.5,0.8S30.2,29.2,29.3,29.2z"/>
	<path class="st0" d="M36.4,29l2.2-10.5h2.6L39,29H36.4z M39.1,16l0.6-2.8h2.7L41.8,16H39.1z"/>
	<path class="st0" d="M47.2,25.8c0-0.2-0.1-0.4-0.2-0.5s-0.3-0.3-0.5-0.4c-0.2-0.1-0.5-0.2-0.7-0.3s-0.6-0.2-0.8-0.3
		c-0.3-0.1-0.5-0.2-0.8-0.4s-0.5-0.3-0.7-0.5c-0.2-0.2-0.3-0.5-0.5-0.7s-0.2-0.6-0.2-1c0-0.6,0.1-1.1,0.3-1.5s0.5-0.8,0.9-1.1
		c0.4-0.3,0.8-0.5,1.3-0.6c0.5-0.1,1-0.2,1.6-0.2c0.3,0,0.6,0,0.9,0.1c0.3,0,0.6,0.1,0.9,0.2c0.3,0.1,0.6,0.1,0.9,0.2
		c0.3,0.1,0.5,0.2,0.7,0.3l-0.4,2c-0.5-0.2-1.1-0.4-1.6-0.5c-0.5-0.1-1-0.2-1.5-0.2c-0.5,0-0.9,0.1-1.2,0.3
		c-0.3,0.2-0.4,0.5-0.4,0.8c0,0.2,0,0.4,0.1,0.5c0.1,0.1,0.2,0.3,0.4,0.4s0.4,0.2,0.6,0.3s0.4,0.2,0.7,0.2c0.3,0.1,0.6,0.2,0.9,0.4
		c0.3,0.1,0.6,0.3,0.8,0.5c0.2,0.2,0.4,0.5,0.6,0.8c0.2,0.3,0.2,0.7,0.2,1.2c0,0.6-0.1,1.1-0.3,1.6c-0.2,0.5-0.6,0.8-1,1.2
		c-0.4,0.3-0.9,0.5-1.5,0.7c-0.6,0.2-1.2,0.2-1.9,0.2c-0.4,0-0.8,0-1.1-0.1c-0.4,0-0.7-0.1-1-0.2c-0.3-0.1-0.5-0.1-0.7-0.2
		s-0.4-0.1-0.5-0.2l0.4-2.1c0.5,0.2,1,0.3,1.4,0.4c0.5,0.1,1,0.2,1.5,0.2c0.7,0,1.3-0.1,1.7-0.4C47.1,26.6,47.2,26.2,47.2,25.8z"/>
</g>
</svg>
