<?xml version="1.0" encoding="utf-8"?>
<!-- Generator: Adobe Illustrator 23.0.2, SVG Export Plug-In . SVG Version: 6.00 Build 0)  -->
<svg version="1.1" id="Laag_1" xmlns="http://www.w3.org/2000/svg" xmlns:xlink="http://www.w3.org/1999/xlink" x="0px" y="0px"
	 width="225px" height="14px" viewBox="0 0 225 14" style="enable-background:new 0 0 225 14;" xml:space="preserve">
<style type="text/css">
	.st0{fill:#FFFFFF;}
</style>
<g>
	<path class="st0" d="M0.8,0.5h8.5v1.2H5.8v9.5H4.4V1.7H0.8V0.5z"/>
	<path class="st0" d="M13.8,11.5c-0.6,0-1.1-0.1-1.6-0.3c-0.5-0.2-0.9-0.5-1.2-0.9c-0.3-0.4-0.6-0.8-0.7-1.3c-0.2-0.5-0.3-1-0.3-1.6
		c0-0.6,0.1-1.1,0.3-1.6s0.4-0.9,0.8-1.3c0.3-0.4,0.7-0.7,1.2-0.9c0.5-0.2,1-0.3,1.5-0.3c0.6,0,1.1,0.1,1.5,0.3
		c0.4,0.2,0.8,0.5,1.1,0.9c0.3,0.4,0.5,0.8,0.7,1.4c0.2,0.5,0.2,1.1,0.2,1.8h-6c0,0.4,0.1,0.8,0.2,1.1c0.1,0.3,0.3,0.6,0.5,0.9
		c0.2,0.3,0.5,0.4,0.8,0.6c0.3,0.1,0.6,0.2,1,0.2c0.6,0,1-0.1,1.4-0.4c0.4-0.3,0.6-0.7,0.8-1.2h1.2c-0.2,0.8-0.6,1.5-1.1,1.9
		C15.4,11.2,14.7,11.5,13.8,11.5z M13.7,4.3c-0.4,0-0.7,0.1-1,0.2c-0.3,0.1-0.5,0.3-0.7,0.5c-0.2,0.2-0.4,0.5-0.5,0.8
		c-0.1,0.3-0.2,0.6-0.2,1H16c0-0.8-0.3-1.4-0.6-1.8C15,4.5,14.4,4.3,13.7,4.3z"/>
	<path class="st0" d="M20.5,10.3l4.3-5.7v0h-4.1V3.5h5.8v0.7l-4.5,5.9v0h4.6v1.1h-6.2V10.3z"/>
	<path class="st0" d="M27.9,0.5h1.2V2h-1.2V0.5z M27.9,3.5h1.2v7.8h-1.2V3.5z"/>
	<path class="st0" d="M34.1,11.5c-0.6,0-1.1-0.1-1.6-0.3c-0.5-0.2-0.9-0.5-1.2-0.9C31,9.9,30.8,9.5,30.6,9c-0.2-0.5-0.3-1-0.3-1.6
		c0-0.6,0.1-1.1,0.3-1.6s0.4-0.9,0.8-1.3c0.3-0.4,0.7-0.7,1.2-0.9c0.5-0.2,1-0.3,1.5-0.3c0.6,0,1.1,0.1,1.5,0.3
		c0.4,0.2,0.8,0.5,1.1,0.9c0.3,0.4,0.5,0.8,0.7,1.4c0.2,0.5,0.2,1.1,0.2,1.8h-6c0,0.4,0.1,0.8,0.2,1.1c0.1,0.3,0.3,0.6,0.5,0.9
		c0.2,0.3,0.5,0.4,0.8,0.6c0.3,0.1,0.6,0.2,1,0.2c0.6,0,1-0.1,1.4-0.4c0.4-0.3,0.6-0.7,0.8-1.2h1.2c-0.2,0.8-0.6,1.5-1.1,1.9
		C35.7,11.2,35,11.5,34.1,11.5z M34,4.3c-0.4,0-0.7,0.1-1,0.2c-0.3,0.1-0.5,0.3-0.7,0.5c-0.2,0.2-0.4,0.5-0.5,0.8
		c-0.1,0.3-0.2,0.6-0.2,1h4.7c0-0.8-0.3-1.4-0.6-1.8C35.3,4.5,34.7,4.3,34,4.3z"/>
	<path class="st0" d="M40,4.5L40,4.5c0.3-0.4,0.6-0.7,1-0.9s0.9-0.3,1.4-0.3c0.8,0,1.4,0.2,1.9,0.6c0.5,0.4,0.7,1,0.7,1.9v5.4h-1.2
		V5.9c0-0.5-0.2-0.9-0.5-1.2c-0.3-0.3-0.7-0.4-1.3-0.4c-0.3,0-0.6,0.1-0.9,0.2c-0.3,0.1-0.5,0.2-0.7,0.4c-0.2,0.2-0.3,0.4-0.4,0.7
		C40.1,5.9,40,6.2,40,6.5v4.8h-1.2V3.5H40V4.5z"/>
	<path class="st0" d="M48.6,3.5h1.1V1h1.2v2.4h1.5v1h-1.5v5c0,0.3,0.1,0.5,0.2,0.6c0.1,0.1,0.3,0.2,0.6,0.2c0.1,0,0.2,0,0.4,0
		c0.1,0,0.2,0,0.3-0.1h0v1.1c-0.1,0-0.3,0.1-0.5,0.1c-0.2,0-0.3,0-0.5,0c-0.5,0-0.9-0.1-1.2-0.3c-0.3-0.2-0.5-0.6-0.5-1.2V4.5h-1.1
		V3.5z"/>
	<path class="st0" d="M57.4,0.5h1.3l-4.3,10.7h-1.3L57.4,0.5z"/>
	<path class="st0" d="M59,3.5h1.2v1.1h0c0.2-0.4,0.6-0.7,1-0.9s0.8-0.4,1.3-0.4c0.5,0,0.9,0.1,1.2,0.4c0.3,0.2,0.6,0.6,0.8,1h0
		c0.2-0.5,0.6-0.8,1-1C66,3.4,66.5,3.3,67,3.3c0.7,0,1.3,0.2,1.7,0.6c0.4,0.4,0.7,1,0.7,1.9v5.4h-1.2V5.9c0-0.5-0.1-0.9-0.4-1.1
		c-0.3-0.3-0.6-0.4-1-0.4c-0.3,0-0.5,0.1-0.7,0.2c-0.2,0.1-0.4,0.2-0.6,0.4c-0.2,0.2-0.3,0.4-0.4,0.7c-0.1,0.3-0.2,0.5-0.2,0.8v4.8
		h-1.2V5.9c0-0.5-0.1-0.9-0.4-1.1c-0.2-0.3-0.6-0.4-1-0.4c-0.2,0-0.5,0.1-0.7,0.2c-0.2,0.1-0.4,0.2-0.6,0.4
		c-0.2,0.2-0.3,0.4-0.5,0.7c-0.1,0.3-0.2,0.5-0.2,0.8v4.8H59V3.5z"/>
	<path class="st0" d="M73.4,9.5c0.2-0.5,0.5-0.9,0.9-1.3c0.4-0.4,0.8-0.7,1.2-1c0.4-0.3,0.9-0.5,1.3-0.8c0.3-0.2,0.6-0.4,0.9-0.5
		c0.3-0.2,0.5-0.4,0.7-0.6c0.2-0.2,0.3-0.4,0.4-0.6C78.9,4.5,79,4.2,79,3.9c0-0.6-0.2-1.1-0.6-1.5C78,2,77.4,1.8,76.8,1.8
		c-0.4,0-0.7,0.1-0.9,0.2s-0.5,0.3-0.7,0.5c-0.2,0.2-0.3,0.5-0.4,0.8c-0.1,0.3-0.1,0.7-0.1,1.3h-1.3c0-0.7,0.1-1.2,0.2-1.7
		c0.2-0.4,0.4-0.8,0.7-1.1c0.3-0.3,0.7-0.6,1.2-0.7s1-0.2,1.5-0.2c0.5,0,1,0.1,1.4,0.2c0.4,0.2,0.8,0.4,1.1,0.7
		c0.3,0.3,0.5,0.6,0.7,1c0.2,0.4,0.2,0.8,0.2,1.3c0,0.5-0.1,0.9-0.2,1.3c-0.2,0.3-0.4,0.6-0.6,0.9s-0.6,0.5-1,0.7
		c-0.4,0.2-0.8,0.4-1.2,0.7C77,7.6,76.7,7.8,76.4,8c-0.3,0.2-0.6,0.4-0.8,0.6c-0.3,0.2-0.5,0.4-0.7,0.7c-0.2,0.2-0.3,0.5-0.4,0.8
		h5.6v1.2H73C73,10.6,73.1,10,73.4,9.5z"/>
	<path class="st0" d="M83.5,13.5c-0.1,0-0.3,0-0.4,0c-0.1,0-0.2,0-0.3,0v-1h0c0.1,0,0.3,0,0.4,0c0.5,0,0.8-0.2,0.8-0.8V3.5h1.2v8.3
		c0,0.4,0,0.7-0.1,0.9c-0.1,0.2-0.2,0.4-0.4,0.5c-0.2,0.1-0.3,0.2-0.6,0.2C84,13.4,83.7,13.5,83.5,13.5z M84,0.5h1.2V2H84V0.5z"/>
	<path class="st0" d="M91.8,11.2v-1.1h0c-0.3,0.4-0.6,0.7-1,0.9c-0.4,0.2-0.8,0.3-1.4,0.3c-0.8,0-1.4-0.2-1.9-0.7s-0.7-1.1-0.7-1.9
		V3.5h1.2v5.3c0,0.5,0.2,0.9,0.5,1.2c0.3,0.3,0.7,0.4,1.3,0.4c0.3,0,0.6-0.1,0.8-0.2c0.2-0.1,0.5-0.3,0.6-0.5
		c0.2-0.2,0.3-0.4,0.4-0.7c0.1-0.3,0.1-0.5,0.1-0.9V3.5h1.2v7.8H91.8z"/>
	<path class="st0" d="M95.9,4.5L95.9,4.5c0.3-0.4,0.6-0.7,1-0.9s0.9-0.3,1.4-0.3c0.8,0,1.4,0.2,1.9,0.6c0.5,0.4,0.7,1,0.7,1.9v5.4
		h-1.2V5.9c0-0.5-0.2-0.9-0.5-1.2c-0.3-0.3-0.7-0.4-1.3-0.4c-0.3,0-0.6,0.1-0.9,0.2c-0.3,0.1-0.5,0.2-0.7,0.4
		c-0.2,0.2-0.3,0.4-0.4,0.7c-0.1,0.3-0.2,0.6-0.2,0.9v4.8h-1.2V3.5h1.2V4.5z"/>
	<path class="st0" d="M102.6,0.5h1.2V2h-1.2V0.5z M102.6,3.5h1.2v7.8h-1.2V3.5z"/>
	<path class="st0" d="M107.9,9.5c0.2-0.5,0.5-0.9,0.9-1.3c0.4-0.4,0.8-0.7,1.2-1c0.4-0.3,0.9-0.5,1.3-0.8c0.3-0.2,0.6-0.4,0.9-0.5
		c0.3-0.2,0.5-0.4,0.7-0.6c0.2-0.2,0.3-0.4,0.4-0.6c0.1-0.2,0.2-0.5,0.2-0.8c0-0.6-0.2-1.1-0.6-1.5c-0.4-0.4-0.9-0.6-1.6-0.6
		c-0.4,0-0.7,0.1-0.9,0.2s-0.5,0.3-0.7,0.5c-0.2,0.2-0.3,0.5-0.4,0.8c-0.1,0.3-0.1,0.7-0.1,1.3h-1.3c0-0.7,0.1-1.2,0.2-1.7
		c0.2-0.4,0.4-0.8,0.7-1.1c0.3-0.3,0.7-0.6,1.2-0.7s1-0.2,1.5-0.2c0.5,0,1,0.1,1.4,0.2c0.4,0.2,0.8,0.4,1.1,0.7
		c0.3,0.3,0.5,0.6,0.7,1s0.2,0.8,0.2,1.3c0,0.5-0.1,0.9-0.2,1.3c-0.2,0.3-0.4,0.6-0.6,0.9c-0.3,0.3-0.6,0.5-1,0.7
		c-0.4,0.2-0.8,0.4-1.2,0.7c-0.3,0.2-0.6,0.3-0.9,0.5c-0.3,0.2-0.6,0.4-0.8,0.6c-0.3,0.2-0.5,0.4-0.7,0.7c-0.2,0.2-0.3,0.5-0.4,0.8
		h5.6v1.2h-7.1C107.5,10.6,107.7,10,107.9,9.5z"/>
	<path class="st0" d="M120,11.5c-0.6,0-1.2-0.1-1.7-0.4s-0.9-0.6-1.3-1.1s-0.6-1-0.8-1.7c-0.2-0.7-0.3-1.4-0.3-2.2
		c0-0.8,0.1-1.6,0.3-2.2c0.2-0.7,0.5-1.2,0.8-1.7c0.3-0.5,0.8-0.8,1.3-1.1s1-0.4,1.7-0.4c0.6,0,1.2,0.1,1.6,0.4s0.9,0.6,1.3,1.1
		s0.6,1,0.8,1.7c0.2,0.7,0.3,1.4,0.3,2.3c0,0.8-0.1,1.6-0.3,2.2c-0.2,0.7-0.4,1.2-0.8,1.7s-0.8,0.8-1.3,1.1S120.7,11.5,120,11.5z
		 M120.1,10.4c0.9,0,1.6-0.4,2-1.1c0.4-0.8,0.7-1.8,0.7-3.1c0-0.7-0.1-1.2-0.2-1.8c-0.1-0.5-0.3-1-0.5-1.4c-0.2-0.4-0.5-0.7-0.8-0.9
		s-0.7-0.3-1.2-0.3c-0.9,0-1.6,0.4-2,1.1c-0.4,0.8-0.7,1.8-0.7,3.1c0,0.6,0.1,1.2,0.2,1.8c0.1,0.5,0.3,1,0.5,1.4
		c0.2,0.4,0.5,0.7,0.8,0.9S119.6,10.4,120.1,10.4z"/>
	<path class="st0" d="M127.2,3.8H125V2.9c0.3,0,0.6,0,0.9-0.1c0.3-0.1,0.5-0.2,0.8-0.3c0.2-0.2,0.4-0.4,0.6-0.6
		c0.2-0.3,0.2-0.6,0.3-1h1v10.3h-1.3V3.8z"/>
	<path class="st0" d="M133.9,11.5c-0.5,0-1-0.1-1.4-0.2c-0.4-0.1-0.8-0.3-1.1-0.6c-0.3-0.3-0.6-0.6-0.7-1c-0.2-0.4-0.3-0.8-0.3-1.2
		h1.3c0,0.6,0.3,1,0.6,1.4c0.4,0.4,0.9,0.5,1.6,0.5c0.4,0,0.7-0.1,1-0.2s0.5-0.3,0.7-0.5c0.3-0.3,0.5-0.8,0.7-1.3
		c0.1-0.6,0.2-1.2,0.2-2h0c-0.3,0.4-0.7,0.7-1.2,1c-0.5,0.2-1,0.3-1.6,0.3c-0.5,0-0.9-0.1-1.3-0.3c-0.4-0.2-0.8-0.4-1.1-0.7
		c-0.3-0.3-0.6-0.7-0.7-1.1c-0.2-0.4-0.3-0.9-0.3-1.3c0-0.5,0.1-0.9,0.3-1.4s0.4-0.8,0.8-1.1c0.3-0.3,0.7-0.6,1.1-0.8
		c0.4-0.2,0.9-0.3,1.4-0.3c0.5,0,1,0.1,1.3,0.2c0.4,0.1,0.7,0.3,1,0.6c0.6,0.5,1,1.1,1.2,1.8c0.2,0.8,0.3,1.7,0.3,2.9
		c0,1-0.1,1.9-0.3,2.7s-0.6,1.3-1.1,1.8C135.7,11.2,134.9,11.5,133.9,11.5z M133.8,6.7c0.4,0,0.7-0.1,1-0.2c0.3-0.1,0.6-0.3,0.8-0.5
		c0.2-0.2,0.4-0.5,0.5-0.8c0.1-0.3,0.2-0.6,0.2-1c0-0.4-0.1-0.7-0.2-1s-0.3-0.6-0.5-0.8c-0.2-0.2-0.5-0.4-0.8-0.5
		c-0.3-0.1-0.6-0.2-1-0.2c-0.4,0-0.7,0.1-1,0.2c-0.3,0.1-0.5,0.3-0.8,0.5s-0.4,0.5-0.5,0.8c-0.1,0.3-0.2,0.6-0.2,1
		c0,0.4,0.1,0.7,0.2,1c0.1,0.3,0.3,0.6,0.5,0.8s0.5,0.4,0.8,0.5C133.2,6.6,133.5,6.7,133.8,6.7z"/>
</g>
</svg>
