<?xml version="1.0" encoding="utf-8"?>
<!-- Generator: Adobe Illustrator 23.0.2, SVG Export Plug-In . SVG Version: 6.00 Build 0)  -->
<svg version="1.1" id="Laag_1" xmlns="http://www.w3.org/2000/svg" xmlns:xlink="http://www.w3.org/1999/xlink" x="0px" y="0px"
	 width="235.2px" height="53.6px" viewBox="0 0 235.2 53.6" style="enable-background:new 0 0 235.2 53.6;" xml:space="preserve">
<style type="text/css">
	.st0{fill:#FFFFFF;}
</style>
<g>
	<path class="st0" d="M26.9,13.4c0-4.4-1.6-7.5-3.9-9.5C20.7,1.8,17.7,1,14.2,1c-3.5,0-7,1.1-9.3,3.3c-2.3,2.1-3.6,4.7-3.6,9.1V16
		h9.7v-3c0-2.3,1.4-3.5,3.1-3.5s3,1.2,3,3.5c0,3.3-0.9,6.3-2,8.1L1.9,43.9v8.1h25v-8.5H12.4L24.1,24C25.8,21.1,26.9,16.9,26.9,13.4z
		"/>
	<path class="st0" d="M48,17.8c-1.2,0-2.6,0.4-3.7,0.9c-1.1,0.6-2,1.5-2.8,2.4V10.1h15.9V1.6H32.6v28.6h9.3v-0.4
		c0-2.3,1.3-3.5,3.1-3.5c1.2,0,2,0.5,2.6,1.5c0.7,1.1,0.7,3.2,0.7,7.5c0,5.3-0.3,6.9-0.9,7.6C46.6,43.8,45.8,44,45,44
		c-1.7,0-3.1-1.1-3.1-3.5v-2.3h-9.7v2c0,4.4,1.2,6.9,3.6,9.1c2.3,2.2,5.7,3.3,9.2,3.3c3.5,0,6.9-1.1,9.2-3.3
		c3.8-3.5,3.8-8.4,3.8-13.9c0-9-0.7-12.3-2.4-14.3C53.8,19,51.7,17.8,48,17.8z"/>
	<polygon class="st0" points="83.8,1.6 80.6,1.6 73.4,22.6 66.3,1.6 63.1,1.6 71.7,25.6 62.3,51.9 65.5,51.9 73.4,28.8 81.4,51.9 
		84.6,51.9 75,25.6 	"/>
	<polygon class="st0" points="171.6,1.6 168.4,1.6 161.2,22.6 154.1,1.6 150.9,1.6 159.5,25.6 150.1,51.9 153.3,51.9 161.2,28.8 
		169.2,51.9 172.4,51.9 162.8,25.6 	"/>
	<path class="st0" d="M114.8,13.7c0-4.4-1.6-7.5-3.9-9.5c-2.4-2.1-5.4-2.9-8.9-2.9c-3.5,0-7,1.1-9.3,3.3c-2.3,2.1-3.6,4.7-3.6,9.1
		v2.7h9.7v-3c0-2.3,1.4-3.5,3.1-3.5s3,1.2,3,3.5c0,3.3-0.9,6.3-2,8.1L89.8,44.2v8.1h25v-8.5h-14.5l11.7-19.5
		C113.7,21.4,114.8,17.2,114.8,13.7z"/>
	<path class="st0" d="M135.8,18.1c-1.2,0-2.6,0.4-3.7,0.9c-1.1,0.6-2,1.5-2.8,2.4V10.3h15.9V1.8h-24.8v28.6h9.3v-0.4
		c0-2.3,1.3-3.5,3.1-3.5c1.2,0,2,0.5,2.6,1.5c0.7,1.1,0.7,3.2,0.7,7.5c0,5.3-0.3,6.9-0.9,7.6c-0.7,0.8-1.5,1.1-2.3,1.1
		c-1.7,0-3.1-1.1-3.1-3.5v-2.3H120v2c0,4.4,1.2,6.9,3.6,9.1c2.3,2.2,5.7,3.3,9.2,3.3c3.5,0,6.9-1.1,9.2-3.3
		c3.8-3.5,3.8-8.4,3.8-13.9c0-9-0.7-12.3-2.4-14.3C141.7,19.3,139.5,18.1,135.8,18.1z"/>
	<path class="st0" d="M202.7,13.4c0-4.4-1.6-7.5-3.9-9.5C196.4,1.8,193.4,1,190,1c-3.5,0-7,1.1-9.3,3.3c-2.3,2.1-3.6,4.7-3.6,9.1V16
		h9.7v-3c0-2.3,1.4-3.5,3.1-3.5s3,1.2,3,3.5c0,3.3-0.9,6.3-2,8.1l-13.3,22.7v8.1h25v-8.5h-14.5L199.8,24
		C201.6,21.1,202.7,16.9,202.7,13.4z"/>
	<path class="st0" d="M231.3,21c-1.7-2.1-3.9-3.2-7.6-3.2c-1.2,0-2.6,0.4-3.7,0.9c-1.1,0.6-2,1.5-2.8,2.4V10.1h15.9V1.6h-24.8v28.6
		h9.3v-0.4c0-2.3,1.3-3.5,3.1-3.5c1.2,0,2,0.5,2.6,1.5c0.7,1.1,0.7,3.2,0.7,7.5c0,5.3-0.3,6.9-0.9,7.6c-0.7,0.8-1.5,1.1-2.3,1.1
		c-1.7,0-3.1-1.1-3.1-3.5v-2.3h-9.7v2c0,4.4,1.2,6.9,3.6,9.1c2.3,2.2,5.7,3.3,9.2,3.3c3.5,0,6.9-1.1,9.2-3.3
		c3.8-3.5,3.8-8.4,3.8-13.9C233.7,26.3,233,23,231.3,21z"/>
</g>
</svg>
