<?xml version="1.0" encoding="utf-8"?>
<!-- Generator: Adobe Illustrator 24.3.0, SVG Export Plug-In . SVG Version: 6.00 Build 0)  -->
<svg version="1.1" id="Laag_1" xmlns="http://www.w3.org/2000/svg" xmlns:xlink="http://www.w3.org/1999/xlink" x="0px" y="0px"
	 width="594.7px" height="131.3px" viewBox="0 0 594.7 131.3" style="enable-background:new 0 0 594.7 131.3;" xml:space="preserve"
	>
<style type="text/css">
	.st0{fill:#1A1D56;}
</style>
<g>
	<path class="st0" d="M12.2,1.3c-2.7,0-3.3,0.8-3.3,2.8v15.5c0,3.1-0.5,5.2-2,6.7c-1.1,1.1-2.5,1.5-3.6,1.5c-1.9,0-3.3-1-3.3-2.2
		c0-0.8,0.6-1.4,1.4-1.4c1.9,0,1.5,2.3,3,2.3c1.1,0,1.5-0.8,1.5-3.6V3.8c0-1.7-0.6-2.7-3.6-2.5V0.4h9.9C12.2,0.4,12.2,1.3,12.2,1.3z
		"/>
	<path class="st0" d="M19.8,7.5c4.1,0,7.2,3.2,7.2,7.4c0,4.3-3.1,7.6-7.1,7.6c-4.2,0-7.3-3.2-7.3-7.5C12.6,10.7,15.7,7.5,19.8,7.5z
		 M17.5,20.5c0.5,0.5,1.4,1.2,2.8,1.2c2.4,0,4.1-2,4.1-4.8c0-1.5-0.4-5.3-2.4-7.4c-0.6-0.6-1.5-1.1-2.6-1.1c-2,0-4.4,1.2-4.4,5.2
		C15.1,15.6,15.9,18.8,17.5,20.5z"/>
	<path class="st0" d="M42.5,7.8v0.8c-1.4,0.3-1.9,0.9-2.9,3.6l-4.5,11.9c-0.9,2.3-2.3,4.1-4.4,4.1c-1.4,0-2.5-0.7-2.5-1.7
		c0-0.7,0.6-1.3,1.2-1.3c1,0,1.1,1.1,2.4,1.1c1.2,0,2-1.1,3-3.9l-5.2-11.5c-0.8-1.7-1.2-2.1-2.4-2.2V7.8H34v0.8
		c-1.4,0.1-1.9,0.4-1.9,1.1c0,0.5,0.2,1.1,0.9,2.7l3.1,6.8l2-5.3c0.8-2,1.1-3.1,1.1-3.6c0-1-0.5-1.5-2-1.7V7.8H42.5z"/>
	<path class="st0" d="M55.4,18.8c-1.4,2.4-3.6,3.8-5.9,3.8c-3.8,0-6.9-3.1-6.9-7.3c0-4.5,3.3-7.7,7.7-7.7c2.8,0,4.9,1.2,4.9,2.9
		c0,0.9-0.5,1.4-1.2,1.4c-2,0-0.8-3.4-4.3-3.4c-2.8,0-4.6,2.1-4.6,5.5c0,3.7,2.3,6.4,5.5,6.4c1.5,0,2.9-0.6,4.2-2L55.4,18.8z"/>
	<path class="st0" d="M59,13.1c-0.2,4.9,2.8,7.2,5.8,7.2c1.6,0,2.6-0.4,3.9-1.8l0.5,0.5c-1.5,2.3-3.5,3.5-5.7,3.5
		c-3.9,0-6.7-3.1-6.7-7.4c0-4.4,2.8-7.6,6.6-7.6c3.2,0,5.8,2.5,5.9,5.6H59z M66.3,12.2c-0.3-2.4-1.5-3.8-3.4-3.8s-3.4,1.5-3.7,3.8
		H66.3z"/>
	<path class="st0" d="M89.3,0.4c7.9,0,12.1,5.1,12.1,10.6c0,3.8-1.7,6.5-3.4,8.2c-1.9,1.9-4.4,3-9.9,3h-11v-0.9
		c3,0.1,3.6-0.8,3.6-2.8V4.2c0-2-0.5-3-3.6-2.8v-1C77.1,0.4,89.3,0.4,89.3,0.4z M83.7,17.9c0,2.4,1.1,3.4,4.4,3.4
		c3,0,5.7-0.6,7.5-2.4c2-2,2.5-4.7,2.5-7c0-3-0.9-5.8-2.8-7.6c-1.8-1.8-4.4-2.9-8-2.9h-3.5L83.7,17.9L83.7,17.9z"/>
	<path class="st0" d="M108.4,7.5v11.2c0,2,0.4,2.7,2.2,2.7v0.8h-7.2v-0.8c2.1,0,2.5-0.5,2.5-2.8v-8.1l-2.3-1.1V8.9L108.4,7.5z
		 M107.2,0c0.9,0,1.6,0.7,1.6,1.6s-0.7,1.6-1.6,1.6s-1.6-0.7-1.6-1.6C105.5,0.7,106.3,0,107.2,0z"/>
	<path class="st0" d="M124.4,0.4c7.9,0,12.1,5.1,12.1,10.6c0,3.8-1.7,6.5-3.4,8.2c-1.9,1.9-4.4,3-9.9,3h-11v-0.9
		c3,0.1,3.6-0.8,3.6-2.8V4.2c0-2-0.5-3-3.6-2.8v-1C112.2,0.4,124.4,0.4,124.4,0.4z M118.8,17.9c0,2.4,1.1,3.4,4.4,3.4
		c3,0,5.7-0.6,7.5-2.4c2-2,2.5-4.7,2.5-7c0-3-0.9-5.8-2.8-7.6c-1.8-1.8-4.4-2.9-8-2.9h-3.5v16.5H118.8z"/>
	<path class="st0" d="M146.2,7.5c4.1,0,7.2,3.2,7.2,7.4c0,4.3-3.1,7.6-7.1,7.6c-4.2,0-7.3-3.2-7.3-7.5C139,10.7,142.1,7.5,146.2,7.5
		z M143.9,20.5c0.5,0.5,1.4,1.2,2.8,1.2c2.4,0,4.1-2,4.1-4.8c0-1.5-0.4-5.3-2.4-7.4c-0.6-0.6-1.5-1.1-2.6-1.1c-2,0-4.4,1.2-4.4,5.2
		C141.5,15.6,142.3,18.8,143.9,20.5z"/>
	<path class="st0" d="M159.2,7.5v2.8c1.6-1.6,3.5-2.8,5.5-2.8c2.4,0,4.3,1.6,4.3,4.6v6.6c0,2,0.5,2.6,2.3,2.6v0.8H164v-0.8
		c2.1,0,2.5-0.7,2.5-2.8v-6.3c0-1.7-1.1-2.9-2.9-2.9c-1.5,0-3.1,0.7-4.4,1.9v7.3c0,2,0.2,2.9,2.6,2.8v0.8h-7.5v-0.8
		c1.8,0,2.4-0.4,2.4-2.8v-8.2l-2.3-1.1V8.9L159.2,7.5z"/>
	<path class="st0" d="M185.7,20.8c-1,1.2-1.9,1.8-2.7,1.8c-1.3,0-2-0.9-2.1-2.6c-1.5,1.7-3.2,2.6-4.7,2.6c-2.2,0-3.7-1.4-3.7-3.4
		s1.2-3,5.4-4.5l2.9-1v-2.5c0-1.6-1.2-2.7-3-2.7c-1.4,0-2.7,0.8-2.7,1.7c0,0.7,0.8,1.5,0.8,1.9s-2,1.1-2.1,1.1c-0.3,0-0.9-1.1-0.9-2
		c0-2.1,2.5-3.7,5.8-3.7c3.2,0,4.5,1.3,4.5,3.8v7.4c0,1.1,0.3,1.6,0.9,1.6c0.4,0,0.7-0.1,1.2-0.4L185.7,20.8z M177.1,16.2
		c-1.3,0.6-2,1.3-2,2.3c0,1.3,1,2.2,2.4,2.2c1.2,0,2.3-0.6,3.4-1.8v-4.4L177.1,16.2z"/>
	<path class="st0" d="M195.3,21.8c-1.3,0.5-3,0.8-4.1,0.8c-2.3,0-3.1-1.1-3.1-3.3V9h-2.6V8.2c2.1-0.6,3.5-1.7,4.3-3.6h0.8v3.1h4.4V9
		h-4.4v9.9c0,1.6,0.5,2.2,2.1,2.2c0.7,0,1.4-0.1,2.6-0.3V21.8z"/>
	<path class="st0" d="M202.7,7.5c4.1,0,7.2,3.2,7.2,7.4c0,4.3-3.1,7.6-7.1,7.6c-4.2,0-7.3-3.2-7.3-7.5
		C195.5,10.7,198.6,7.5,202.7,7.5z M200.4,20.5c0.5,0.5,1.4,1.2,2.8,1.2c2.4,0,4.1-2,4.1-4.8c0-1.5-0.4-5.3-2.4-7.4
		c-0.6-0.6-1.5-1.1-2.6-1.1c-2,0-4.4,1.2-4.4,5.2C198,15.6,198.8,18.8,200.4,20.5z"/>
	<path class="st0" d="M212.1,26.3c2.9-0.2,4.8-1.6,4.8-3.6c0-1.5-1.1-2-2-2c-0.7,0-1.8-0.4-1.8-1.6c0-1.1,0.8-1.8,1.9-1.8
		c1.8,0,3.3,2,3.3,4.4c0,3.1-2.5,5.3-6.2,5.4V26.3z"/>
	<path class="st0" d="M238.5,1.3c-2.7,0-3.3,0.8-3.3,2.8v15.5c0,3.1-0.5,5.2-2,6.7c-1.1,1.1-2.5,1.5-3.6,1.5c-1.9,0-3.3-1-3.3-2.2
		c0-0.8,0.6-1.4,1.4-1.4c1.9,0,1.5,2.3,3,2.3c1.1,0,1.5-0.8,1.5-3.6V3.8c0-1.7-0.6-2.7-3.6-2.5V0.4h9.9L238.5,1.3L238.5,1.3z"/>
	<path class="st0" d="M246.1,7.5c4.1,0,7.2,3.2,7.2,7.4c0,4.3-3.1,7.6-7.1,7.6c-4.2,0-7.3-3.2-7.3-7.5S242,7.5,246.1,7.5z
		 M243.8,20.5c0.5,0.5,1.4,1.2,2.8,1.2c2.4,0,4.1-2,4.1-4.8c0-1.5-0.4-5.3-2.4-7.4c-0.6-0.6-1.5-1.1-2.6-1.1c-2,0-4.4,1.2-4.4,5.2
		C241.4,15.6,242.2,18.8,243.8,20.5z"/>
	<path class="st0" d="M258.8,10.2c1.9-1.8,3.7-2.7,5.5-2.7c2.5,0,4.2,1.7,4.2,4.4v6.9c0,1.9,0.5,2.5,2.2,2.5v0.8h-6.9v-0.8
		c1.8,0,2.2-0.7,2.2-2.8v-5.8c0-2.3-0.9-3.5-2.9-3.5c-1.5,0-3,0.7-4.4,1.9v7.4c0,2.1,0.4,2.8,2.4,2.8v0.8h-7.2v-0.8
		c1.6,0,2.4-0.4,2.4-2.3V2.9l-2.2-1.1V1.4l4.7-1.4L258.8,10.2L258.8,10.2z"/>
	<path class="st0" d="M276.9,7.5v2.8c1.6-1.6,3.5-2.8,5.5-2.8c2.4,0,4.3,1.6,4.3,4.6v6.6c0,2,0.5,2.6,2.3,2.6v0.8h-7.3v-0.8
		c2.1,0,2.5-0.7,2.5-2.8v-6.3c0-1.7-1.1-2.9-2.9-2.9c-1.5,0-3.1,0.7-4.4,1.9v7.3c0,2,0.2,2.9,2.6,2.8v0.8H272v-0.8
		c1.8,0,2.4-0.4,2.4-2.8v-8.2l-2.3-1.1V8.9L276.9,7.5z"/>
	<path class="st0" d="M312.1,14.8h-0.9c-0.3-2.3-1.5-3.4-4.6-3.4h-4.1V18c0,3,0.3,3.3,4.4,3.3c4.5,0,6.5-1.6,7.9-4.2h1l-1.3,5.2
		h-18.4v-0.9c2.7,0.1,3.4-0.7,3.4-2.8V4c0-2.1-0.7-2.8-3.4-2.7V0.4H314l0.2,4.7h-0.9c-0.7-2.4-2.2-3.8-5.4-3.8h-5.3v9.1h4.3
		c2.6,0,4.3-0.9,4.4-3.5h0.9v7.9C312.2,14.8,312.1,14.8,312.1,14.8z"/>
	<path class="st0" d="M321.6,0v18.6c0,2.2,0.4,2.8,2.3,2.8v0.8h-7.1v-0.8c1.8-0.1,2.3-0.4,2.3-2.9V2.9l-2.3-1V1.4L321.6,0z"/>
	<path class="st0" d="M330,7.5v11.2c0,2,0.4,2.7,2.2,2.7v0.8H325v-0.8c2.1,0,2.5-0.5,2.5-2.8v-8.1l-2.3-1.1V8.9L330,7.5z M328.7,0
		c0.9,0,1.6,0.7,1.6,1.6s-0.7,1.6-1.6,1.6s-1.6-0.7-1.6-1.6S327.8,0,328.7,0z"/>
	<path class="st0" d="M340.2,7.5c4.1,0,7.2,3.2,7.2,7.4c0,4.3-3.1,7.6-7.1,7.6c-4.2,0-7.3-3.2-7.3-7.5C333,10.7,336.1,7.5,340.2,7.5
		z M337.9,20.5c0.5,0.5,1.4,1.2,2.8,1.2c2.4,0,4.1-2,4.1-4.8c0-1.5-0.4-5.3-2.4-7.4c-0.6-0.6-1.5-1.1-2.6-1.1c-2,0-4.4,1.2-4.4,5.2
		C335.5,15.6,336.3,18.8,337.9,20.5z"/>
	<path class="st0" d="M357.7,21.8c-1.3,0.5-3,0.8-4.1,0.8c-2.3,0-3.1-1.1-3.1-3.3V9H348V8.2c2.1-0.6,3.5-1.7,4.3-3.6h0.8v3.1h4.4V9
		H353v9.9c0,1.6,0.5,2.2,2.1,2.2c0.7,0,1.4-0.1,2.6-0.3V21.8z"/>
	<path class="st0" d="M386.8,6.3h-0.9c-1.3-3.4-4.1-5.2-7.7-5.2c-5.1,0-9.2,3.7-9.2,9.9c0,6.1,3.9,10.5,9.4,10.5
		c2.1,0,4.4-0.6,5.8-1.5v-5c0-2.1-0.6-2.9-3.9-2.8v-0.9h10.1v0.9c-2.3-0.1-3.2,0.6-3.2,2.7v6c-3.1,1.1-6,1.7-8.5,1.7
		c-6.6,0-13.1-3.2-13.1-11C365.6,4.8,371,0,378.8,0c2.7,0,5,0.5,7.8,1.5L386.8,6.3z"/>
	<path class="st0" d="M405,20.8c-1,1.2-1.9,1.8-2.7,1.8c-1.3,0-2-0.9-2.1-2.6c-1.5,1.7-3.2,2.6-4.7,2.6c-2.2,0-3.7-1.4-3.7-3.4
		s1.2-3,5.4-4.5l2.9-1v-2.5c0-1.6-1.2-2.7-3-2.7c-1.4,0-2.7,0.8-2.7,1.7c0,0.7,0.8,1.5,0.8,1.9s-2,1.1-2.1,1.1c-0.3,0-0.9-1.1-0.9-2
		c0-2.1,2.5-3.7,5.8-3.7c3.2,0,4.5,1.3,4.5,3.8v7.4c0,1.1,0.3,1.6,0.9,1.6c0.4,0,0.7-0.1,1.2-0.4L405,20.8z M396.3,16.2
		c-1.3,0.6-2,1.3-2,2.3c0,1.3,1,2.2,2.4,2.2c1.2,0,2.3-0.6,3.4-1.8v-4.4L396.3,16.2z"/>
	<path class="st0" d="M411.1,7.5v3.7h0.1c1.2-2.6,2.4-3.5,3.8-3.5c1.1,0,2.4,1,2.4,1.8c0,0.7-0.5,1.9-1.1,1.9
		c-0.8,0-1.3-1.5-2.4-1.5c-0.8,0-1.3,0.5-2.8,2.8v6.2c0,2,0.3,2.7,3.3,2.6v0.8h-8.3v-0.8c1.9,0,2.5-0.4,2.5-2.3v-8.6l-2.5-1.1V8.9
		L411.1,7.5z"/>
	<path class="st0" d="M434.2,21.7l-4.8,0.8v-2.7c-2,2-3.4,2.7-5.3,2.7c-3.4,0-6-2.9-6-6.8c0-3.6,2.7-8.3,7.7-8.3
		c1.4,0,2.5,0.3,3.6,1.2V2.9l-2.5-1.1V1.4l5-1.4v19c0,1.4,0.4,1.9,1.3,1.9c0.4,0,0.8,0,1-0.1L434.2,21.7L434.2,21.7z M429.3,13.1
		c0-2.4-1.6-4.6-4.4-4.6s-4.5,2.3-4.5,5.8c0,3.7,2.1,6.4,5,6.4c1.4,0,2.6-0.6,3.9-2V13.1z"/>
	<path class="st0" d="M440.3,7.5v11.2c0,2,0.4,2.7,2.2,2.7v0.8h-7.2v-0.8c2.1,0,2.5-0.5,2.5-2.8v-8.1l-2.3-1.1V8.9L440.3,7.5z
		 M439.1,0c0.9,0,1.6,0.7,1.6,1.6s-0.7,1.6-1.6,1.6s-1.6-0.7-1.6-1.6C437.4,0.7,438.2,0,439.1,0z"/>
	<path class="st0" d="M448.7,7.5v2.8c1.6-1.6,3.5-2.8,5.5-2.8c2.4,0,4.3,1.6,4.3,4.6v6.6c0,2,0.5,2.6,2.3,2.6v0.8h-7.3v-0.8
		c2.1,0,2.5-0.7,2.5-2.8v-6.3c0-1.7-1.1-2.9-2.9-2.9c-1.5,0-3.1,0.7-4.4,1.9v7.3c0,2,0.2,2.9,2.6,2.8v0.8h-7.5v-0.8
		c1.8,0,2.4-0.4,2.4-2.8v-8.2l-2.3-1.1V8.9L448.7,7.5z"/>
	<path class="st0" d="M463.6,13.1c-0.2,4.9,2.8,7.2,5.8,7.2c1.6,0,2.6-0.4,3.9-1.8l0.5,0.5c-1.5,2.3-3.5,3.5-5.7,3.5
		c-3.9,0-6.7-3.1-6.7-7.4c0-4.4,2.8-7.6,6.6-7.6c3.2,0,5.8,2.5,5.9,5.6H463.6z M470.9,12.2c-0.3-2.4-1.5-3.8-3.4-3.8
		s-3.4,1.5-3.7,3.8H470.9z"/>
	<path class="st0" d="M479.7,7.5v3.7h0.1c1.2-2.6,2.4-3.5,3.8-3.5c1.1,0,2.4,1,2.4,1.8c0,0.7-0.5,1.9-1.1,1.9
		c-0.8,0-1.3-1.5-2.4-1.5c-0.8,0-1.3,0.5-2.8,2.8v6.2c0,2,0.3,2.7,3.3,2.6v0.8h-8.3v-0.8c1.9,0,2.5-0.4,2.5-2.3v-8.6l-2.5-1.1V8.9
		L479.7,7.5z"/>
	<path class="st0" d="M487.1,26.3c2.9-0.2,4.8-1.6,4.8-3.6c0-1.5-1.1-2-2-2c-0.7,0-1.8-0.4-1.8-1.6c0-1.1,0.8-1.8,1.9-1.8
		c1.8,0,3.3,2,3.3,4.4c0,3.1-2.5,5.3-6.2,5.4L487.1,26.3L487.1,26.3z"/>
	<path class="st0" d="M588.5,64.7c2.9-0.2,4.8-1.6,4.8-3.6c0-1.5-1.1-2-2-2c-0.7,0-1.8-0.4-1.8-1.6c0-1.1,0.8-1.8,1.9-1.8
		c1.8,0,3.3,2,3.3,4.4c0,3.1-2.5,5.3-6.2,5.4V64.7z"/>
	<path class="st0" d="M13.3,73.1c7.9,0,12.1,5.1,12.1,10.6c0,3.8-1.7,6.5-3.4,8.2c-1.9,1.9-4.4,3-9.9,3h-11V94
		c3,0.1,3.6-0.8,3.6-2.8V76.9c0-2-0.5-3-3.6-2.8v-0.9L13.3,73.1L13.3,73.1z M7.7,90.6c0,2.4,1.1,3.4,4.4,3.4c3,0,5.7-0.6,7.5-2.4
		c2-2,2.5-4.7,2.5-7c0-3-0.9-5.8-2.8-7.6c-1.8-1.8-4.4-2.9-8-2.9H7.8v16.5H7.7z"/>
	<path class="st0" d="M32.5,80.2v11.2c0,2,0.4,2.7,2.2,2.7v0.8h-7.2v-0.8c2.1,0,2.5-0.5,2.5-2.8v-8.1l-2.3-1.1v-0.5L32.5,80.2z
		 M31.2,72.7c0.9,0,1.6,0.7,1.6,1.6c0,0.9-0.7,1.6-1.6,1.6s-1.6-0.7-1.6-1.6C29.6,73.4,30.3,72.7,31.2,72.7z"/>
	<path class="st0" d="M49.1,93.5c-1,1.2-1.9,1.8-2.7,1.8c-1.3,0-2-0.9-2.1-2.6c-1.5,1.7-3.2,2.6-4.7,2.6c-2.2,0-3.7-1.4-3.7-3.4
		s1.2-3,5.4-4.5l2.9-1v-2.5c0-1.6-1.2-2.7-3-2.7c-1.4,0-2.7,0.8-2.7,1.7c0,0.7,0.8,1.5,0.8,1.9s-2,1.1-2.1,1.1c-0.3,0-0.9-1.1-0.9-2
		c0-2.1,2.5-3.7,5.8-3.7c3.2,0,4.5,1.3,4.5,3.8v7.4c0,1.1,0.3,1.6,0.9,1.6c0.4,0,0.7-0.1,1.2-0.4L49.1,93.5z M40.5,88.9
		c-1.3,0.6-2,1.3-2,2.3c0,1.3,1,2.2,2.4,2.2c1.2,0,2.3-0.6,3.4-1.8v-4.4L40.5,88.9z"/>
	<path class="st0" d="M55.3,80.2V83c1.6-1.6,3.5-2.8,5.5-2.8c2.4,0,4.3,1.6,4.3,4.6v6.6c0,2,0.5,2.6,2.3,2.6v0.8h-7.3V94
		c2.1,0,2.5-0.7,2.5-2.8v-6.3c0-1.7-1.1-2.9-2.9-2.9c-1.5,0-3.1,0.7-4.4,1.9v7.4c0,2,0.2,2.9,2.6,2.8v0.8h-7.5v-0.8
		c1.8,0,2.4-0.4,2.4-2.8v-8.2L50.5,82v-0.4L55.3,80.2z"/>
	<path class="st0" d="M81.8,93.5c-1,1.2-1.9,1.8-2.7,1.8c-1.3,0-2-0.9-2.1-2.6c-1.5,1.7-3.2,2.6-4.7,2.6c-2.2,0-3.7-1.4-3.7-3.4
		s1.2-3,5.4-4.5l2.9-1v-2.5c0-1.6-1.2-2.7-3-2.7c-1.4,0-2.7,0.8-2.7,1.7c0,0.7,0.8,1.5,0.8,1.9s-2,1.1-2.1,1.1c-0.3,0-0.9-1.1-0.9-2
		c0-2.1,2.5-3.7,5.8-3.7c3.2,0,4.5,1.3,4.5,3.8v7.4c0,1.1,0.3,1.6,0.9,1.6c0.4,0,0.7-0.1,1.2-0.4L81.8,93.5z M73.2,88.9
		c-1.3,0.6-2,1.3-2,2.3c0,1.3,1,2.2,2.4,2.2c1.2,0,2.3-0.6,3.4-1.8v-4.4L73.2,88.9z"/>
	<path class="st0" d="M101.5,73.1c7.9,0,12.1,5.1,12.1,10.6c0,3.8-1.7,6.5-3.4,8.2c-1.9,1.9-4.4,3-9.9,3h-11V94
		c3,0.1,3.6-0.8,3.6-2.8V76.9c0-2-0.5-3-3.6-2.8v-0.9L101.5,73.1L101.5,73.1z M95.9,90.6c0,2.4,1.1,3.4,4.4,3.4c3,0,5.7-0.6,7.5-2.4
		c2-2,2.5-4.7,2.5-7c0-3-0.9-5.8-2.8-7.6c-1.8-1.8-4.4-2.9-8-2.9H96v16.5H95.9z"/>
	<path class="st0" d="M129.2,93.5c-1,1.2-1.9,1.8-2.7,1.8c-1.3,0-2-0.9-2.1-2.6c-1.5,1.7-3.2,2.6-4.7,2.6c-2.2,0-3.7-1.4-3.7-3.4
		s1.2-3,5.4-4.5l2.9-1v-2.5c0-1.6-1.2-2.7-3-2.7c-1.4,0-2.7,0.8-2.7,1.7c0,0.7,0.8,1.5,0.8,1.9s-2,1.1-2.1,1.1c-0.3,0-0.9-1.1-0.9-2
		c0-2.1,2.5-3.7,5.8-3.7c3.2,0,4.5,1.3,4.5,3.8v7.4c0,1.1,0.3,1.6,0.9,1.6c0.4,0,0.7-0.1,1.2-0.4L129.2,93.5z M120.6,88.9
		c-1.3,0.6-2,1.3-2,2.3c0,1.3,1,2.2,2.4,2.2c1.2,0,2.3-0.6,3.4-1.8v-4.4L120.6,88.9z"/>
	<path class="st0" d="M135.3,80.2v2.5c1.5-1.6,3.4-2.5,5.2-2.5c2,0,3.6,1.1,4.1,2.7c1.8-1.9,3.6-2.7,5.5-2.7c1.7,0,4.3,1,4.3,3.9
		v7.3c0,1.9,0.3,2.7,2.3,2.7v0.8h-7v-0.8c1.5,0,2.2-0.6,2.2-2.5v-5.9c0-2-0.6-3.5-3.1-3.5c-1.3,0-2.7,0.6-3.9,1.7v7.7
		c0,1.8,0.4,2.6,2.3,2.6V95H140v-0.8c1.9,0,2.4-0.7,2.4-2.7v-6.4c0-1.7-1.2-2.8-3.1-2.8c-1.3,0-2.8,0.6-3.9,1.7v7.6
		c0,2,0.4,2.7,2.3,2.7v0.8h-7.3v-0.8c2.2,0,2.5-0.6,2.5-3v-8l-2.2-1.1v-0.5L135.3,80.2z"/>
	<path class="st0" d="M162.9,80.2v3.7h0.1c1.2-2.6,2.4-3.5,3.8-3.5c1.1,0,2.4,1,2.4,1.8c0,0.7-0.5,1.9-1.1,1.9
		c-0.8,0-1.3-1.5-2.4-1.5c-0.8,0-1.3,0.5-2.8,2.8v6.2c0,2,0.3,2.7,3.3,2.6V95h-8.3v-0.8c1.9,0,2.5-0.4,2.5-2.3v-8.6l-2.5-1.1v-0.4
		L162.9,80.2z"/>
	<path class="st0" d="M183.3,93.5c-1,1.2-1.9,1.8-2.7,1.8c-1.3,0-2-0.9-2.1-2.6c-1.5,1.7-3.2,2.6-4.7,2.6c-2.2,0-3.7-1.4-3.7-3.4
		s1.2-3,5.4-4.5l2.9-1v-2.5c0-1.6-1.2-2.7-3-2.7c-1.4,0-2.7,0.8-2.7,1.7c0,0.7,0.8,1.5,0.8,1.9s-2,1.1-2.1,1.1c-0.3,0-0.9-1.1-0.9-2
		c0-2.1,2.5-3.7,5.8-3.7c3.2,0,4.5,1.3,4.5,3.8v7.4c0,1.1,0.3,1.6,0.9,1.6c0.4,0,0.7-0.1,1.2-0.4L183.3,93.5z M174.7,88.9
		c-1.3,0.6-2,1.3-2,2.3c0,1.3,1,2.2,2.4,2.2c1.2,0,2.3-0.6,3.4-1.8v-4.4L174.7,88.9z"/>
	<path class="st0" d="M200.1,94.3l-4.9,0.9v-2.8c-1.6,1.8-3.6,2.8-5.5,2.8c-2.2,0-4.3-1.5-4.3-4.5v-7.1c0-1.5-0.5-2-2.5-2.2v-0.8
		c1.6,0,2.7-0.1,3.4-0.1c0.8-0.1,1.2-0.1,1.6-0.2v9.9c0,2.1,1.1,3.2,3.1,3.2c1.4,0,2.9-0.6,4.2-1.9v-7.6c0-1.8-0.4-2.5-2.6-2.5v-0.8
		c1.4,0,2.4-0.1,3.2-0.1c0.8-0.1,1.4-0.1,2-0.2v11.6c0,1.8,0.7,1.8,2.4,1.6v0.8H200.1z"/>
	<path class="st0" d="M232.4,80.9v0.9c-0.9,0.1-1.4,0.4-2.2,1.2c-1.2,1.2-2,4.2-4,6.6c0.5,1,1.5,2.3,2.2,3c2,2,4,0.6,4,1.9
		c0,0.6-0.6,0.8-2.3,0.8c-2.6,0-4-0.7-5.9-3.3c-2.3,2.2-4.8,3.3-7.4,3.3c-3.5,0-6.3-2.5-6.3-5.7c0-1.9,0.9-3.9,3.1-5.4l3-2
		c-1.6-1.8-2.4-3.2-2.4-4.1c0-1.2,0.8-2.6,2.2-3.7c1.2-1,2.7-1.7,3.7-1.7c1.9,0,4.3,2.2,4.3,4.1c0,1.2-0.9,2.1-4.5,4.6
		c2.2,2.2,4.6,5.3,5.8,7.5c1.6-2,2.3-4.3,2.3-5.1c0-1.1-0.6-1.7-2-2v-0.9C226,80.9,232.4,80.9,232.4,80.9z M213.4,88
		c0,2.6,2.8,5.3,5.4,5.3c1.6,0,3.3-0.7,4.8-2.2c-1.5-2.3-3.2-4.9-6.2-8.1C214.3,85.1,213.4,86.3,213.4,88z M219.1,80.6
		c2.3-1.7,3-2.6,3-3.5c0-1.3-1.8-3-3.1-3c-0.8,0-2.7,1.4-2.7,2.7c0,0.7,0.4,1.5,1.4,2.4L219.1,80.6z"/>
	<path class="st0" d="M249.1,74c-2.7,0-3.3,0.8-3.3,2.8v15.5c0,3.1-0.5,5.2-2,6.7c-1.1,1.1-2.5,1.5-3.6,1.5c-1.9,0-3.3-1-3.3-2.2
		c0-0.8,0.6-1.4,1.4-1.4c1.9,0,1.5,2.3,3,2.3c1.1,0,1.5-0.8,1.5-3.6V76.5c0-1.7-0.6-2.7-3.6-2.5v-0.9h9.9V74z"/>
	<path class="st0" d="M256.7,80.2c4.1,0,7.2,3.2,7.2,7.4c0,4.3-3.1,7.6-7.1,7.6c-4.2,0-7.3-3.2-7.3-7.5
		C249.5,83.4,252.6,80.2,256.7,80.2z M254.4,93.2c0.5,0.5,1.4,1.2,2.8,1.2c2.4,0,4.1-2,4.1-4.8c0-1.5-0.4-5.3-2.4-7.4
		c-0.6-0.6-1.5-1.1-2.6-1.1c-2,0-4.4,1.2-4.4,5.2C252,88.3,252.8,91.5,254.4,93.2z"/>
	<path class="st0" d="M269.7,80.2V83c1.6-1.6,3.5-2.8,5.5-2.8c2.4,0,4.3,1.6,4.3,4.6v6.6c0,2,0.5,2.6,2.3,2.6v0.8h-7.3V94
		c2.1,0,2.5-0.7,2.5-2.8v-6.3c0-1.7-1.1-2.9-2.9-2.9c-1.5,0-3.1,0.7-4.4,1.9v7.4c0,2,0.2,2.9,2.6,2.8v0.8h-7.5v-0.8
		c1.8,0,2.4-0.4,2.4-2.8v-8.2l-2.3-1.1v-0.4L269.7,80.2z"/>
	<path class="st0" d="M296.2,93.5c-1,1.2-1.9,1.8-2.7,1.8c-1.3,0-2-0.9-2.1-2.6c-1.5,1.7-3.2,2.6-4.7,2.6c-2.2,0-3.7-1.4-3.7-3.4
		s1.2-3,5.4-4.5l2.9-1v-2.5c0-1.6-1.2-2.7-3-2.7c-1.4,0-2.7,0.8-2.7,1.7c0,0.7,0.8,1.5,0.8,1.9s-2,1.1-2.1,1.1c-0.3,0-0.9-1.1-0.9-2
		c0-2.1,2.5-3.7,5.8-3.7c3.2,0,4.5,1.3,4.5,3.8v7.4c0,1.1,0.3,1.6,0.9,1.6c0.4,0,0.7-0.1,1.2-0.4L296.2,93.5z M287.6,88.9
		c-1.3,0.6-2,1.3-2,2.3c0,1.3,1,2.2,2.4,2.2c1.2,0,2.3-0.6,3.4-1.8v-4.4L287.6,88.9z"/>
	<path class="st0" d="M298.9,90.1c0.3,2.5,1.6,4.2,3.7,4.2c1.6,0,2.8-1.1,2.8-2.5c0-0.4-0.1-1.1-0.5-1.4c-1.6-1.6-4.5-2-6.3-3.8
		c-0.6-0.6-1-1.4-1-2.5c0-2.3,2-3.9,4.7-3.9c1.5,0,2.9,0.5,4.1,1.4V85h-0.8c-0.5-2.6-1.5-3.8-3.3-3.8c-1.5,0-2.5,0.9-2.5,2.2
		c0,0.6,0.2,1.1,0.6,1.5c1.3,1.3,4.2,1.8,6,3.6c0.8,0.8,1.1,1.7,1.1,2.7c0,2.4-2.1,4.2-5,4.2c-1.5,0-3.1-0.4-4.4-1.2v-4h0.8
		L298.9,90.1L298.9,90.1z"/>
	<path class="st0" d="M325.4,94.9h-9.7V94c2.8,0.1,3.4-0.7,3.4-2.7V76.7c0-2.1-0.8-2.8-3.4-2.7v-0.9h9.7V74c-2.5,0-3.4,0.4-3.4,2.8
		V91c0,2.2,0.5,3.1,3.4,3V94.9z M338.1,73.1V74c-0.6,0-1.3,0.2-2.2,0.6c-2.4,1.2-6.4,5.2-10.5,8.1c4.4,3.3,10.5,9.4,12.8,10.7
		c0.7,0.4,1.5,0.6,2.3,0.6v0.9h-5.2c-3.2-2.4-6.4-5.9-13.1-11.1c5-3.5,6.8-4.9,7.8-6c0.9-0.9,1.2-1.4,1.2-2.1c0-1-0.7-1.5-2.2-1.7
		v-0.9H338.1z"/>
	<path class="st0" d="M355,93.5c-1,1.2-1.9,1.8-2.7,1.8c-1.3,0-2-0.9-2.1-2.6c-1.5,1.7-3.2,2.6-4.7,2.6c-2.2,0-3.7-1.4-3.7-3.4
		s1.2-3,5.4-4.5l2.9-1v-2.5c0-1.6-1.2-2.7-3-2.7c-1.4,0-2.7,0.8-2.7,1.7c0,0.7,0.8,1.5,0.8,1.9s-2,1.1-2.1,1.1c-0.3,0-0.9-1.1-0.9-2
		c0-2.1,2.5-3.7,5.8-3.7c3.2,0,4.5,1.3,4.5,3.8v7.4c0,1.1,0.3,1.6,0.9,1.6c0.4,0,0.7-0.1,1.2-0.4L355,93.5z M346.4,88.9
		c-1.3,0.6-2,1.3-2,2.3c0,1.3,1,2.2,2.4,2.2c1.2,0,2.3-0.6,3.4-1.8v-4.4L346.4,88.9z"/>
	<path class="st0" d="M371.8,94.3l-4.9,0.9v-2.8c-1.6,1.8-3.6,2.8-5.5,2.8c-2.2,0-4.3-1.5-4.3-4.5v-7.1c0-1.5-0.5-2-2.5-2.2v-0.8
		c1.6,0,2.7-0.1,3.4-0.1c0.8-0.1,1.2-0.1,1.6-0.2v9.9c0,2.1,1.1,3.2,3.1,3.2c1.4,0,2.9-0.6,4.2-1.9v-7.6c0-1.8-0.4-2.5-2.6-2.5v-0.8
		c1.4,0,2.4-0.1,3.2-0.1c0.8-0.1,1.4-0.1,2-0.2v11.6c0,1.8,0.7,1.8,2.4,1.6v0.8H371.8z"/>
	<path class="st0" d="M382.1,81.7h-3.7v9.6c0,2.5,0.4,2.9,3.3,2.8v0.8h-8.4v-0.8c2.3,0.1,2.7-0.6,2.7-2.7v-9.7h-2.6v-1.2
		c1.7,0,2.1-0.1,2.4-0.4c0.8-0.8,0-3.7,1.9-5.6c1.1-1.1,2.6-1.8,4.7-1.8c2.1,0,3.3,0.6,3.3,1.8c0,0.7-0.5,1.3-1.3,1.3
		c-1.4,0-2.1-2-3.4-2c-1.8,0-2.6,1.6-2.6,3.5v3.2h3.7L382.1,81.7L382.1,81.7z"/>
	<path class="st0" d="M388.4,80.2v2.5c1.5-1.6,3.4-2.5,5.2-2.5c2,0,3.6,1.1,4.1,2.7c1.8-1.9,3.6-2.7,5.5-2.7c1.7,0,4.3,1,4.3,3.9
		v7.3c0,1.9,0.3,2.7,2.3,2.7v0.8h-7v-0.8c1.5,0,2.2-0.6,2.2-2.5v-5.9c0-2-0.6-3.5-3.1-3.5c-1.3,0-2.7,0.6-3.9,1.7v7.7
		c0,1.8,0.4,2.6,2.3,2.6V95h-7.2v-0.8c1.9,0,2.4-0.7,2.4-2.7v-6.4c0-1.7-1.2-2.8-3.1-2.8c-1.3,0-2.8,0.6-3.9,1.7v7.6
		c0,2,0.4,2.7,2.3,2.7v0.8h-7.3v-0.8c2.2,0,2.5-0.6,2.5-3v-8l-2.2-1.1v-0.5L388.4,80.2z"/>
	<path class="st0" d="M424.2,93.5c-1,1.2-1.9,1.8-2.7,1.8c-1.3,0-2-0.9-2.1-2.6c-1.5,1.7-3.2,2.6-4.7,2.6c-2.2,0-3.7-1.4-3.7-3.4
		s1.2-3,5.4-4.5l2.9-1v-2.5c0-1.6-1.2-2.7-3-2.7c-1.4,0-2.7,0.8-2.7,1.7c0,0.7,0.8,1.5,0.8,1.9s-2,1.1-2.1,1.1c-0.3,0-0.9-1.1-0.9-2
		c0-2.1,2.5-3.7,5.8-3.7c3.2,0,4.5,1.3,4.5,3.8v7.4c0,1.1,0.3,1.6,0.9,1.6c0.4,0,0.7-0.1,1.2-0.4L424.2,93.5z M415.6,88.9
		c-1.3,0.6-2,1.3-2,2.3c0,1.3,1,2.2,2.4,2.2c1.2,0,2.3-0.6,3.4-1.8v-4.4L415.6,88.9z"/>
	<path class="st0" d="M430.3,80.2V83c1.6-1.6,3.5-2.8,5.5-2.8c2.4,0,4.3,1.6,4.3,4.6v6.6c0,2,0.5,2.6,2.3,2.6v0.8h-7.3V94
		c2.1,0,2.5-0.7,2.5-2.8v-6.3c0-1.7-1.1-2.9-2.9-2.9c-1.5,0-3.1,0.7-4.4,1.9v7.4c0,2,0.2,2.9,2.6,2.8v0.8h-7.5v-0.8
		c1.8,0,2.4-0.4,2.4-2.8v-8.2l-2.3-1.1v-0.4L430.3,80.2z"/>
	<path class="st0" d="M448.5,80.2V83c1.6-1.6,3.5-2.8,5.5-2.8c2.4,0,4.3,1.6,4.3,4.6v6.6c0,2,0.5,2.6,2.3,2.6v0.8h-7.3V94
		c2.1,0,2.5-0.7,2.5-2.8v-6.3c0-1.7-1.1-2.9-2.9-2.9c-1.5,0-3.1,0.7-4.4,1.9v7.4c0,2,0.2,2.9,2.6,2.8v0.8h-7.5v-0.8
		c1.8,0,2.4-0.4,2.4-2.8v-8.2l-2.3-1.1v-0.4L448.5,80.2z"/>
	<g>
		<path class="st0" d="M351.1,56.9c0,2.2,0.8,2.8,3.6,2.8v0.9h-9.9v-0.9c2.4,0.1,3.3-0.5,3.3-2.7V42.4c0-1.8-0.5-2.8-3.4-2.7v-0.9
			h8.4c2.9,0,3.7,0.1,4.8,0.3c3.3,0.7,5.1,2.6,5.1,5.4c0,3.5-3.1,6.1-7.3,6.1c-2.1,0-2.6-0.3-2.6-0.8c0-0.3,0.3-0.6,0.7-0.6
			c0.3,0,1,0.1,1.2,0.1c2.1,0,4.6-1.2,4.6-4.4c0-3-2-5.2-5.4-5.2h-3.1V56.9z"/>
		<path class="st0" d="M368.8,48.6c1.9-1.8,3.7-2.7,5.5-2.7c2.5,0,4.2,1.7,4.2,4.4v6.9c0,1.9,0.5,2.5,2.2,2.5v0.8h-6.9v-0.8
			c1.8,0,2.2-0.7,2.2-2.8v-5.8c0-2.3-0.9-3.5-2.9-3.5c-1.5,0-3,0.7-4.4,1.9V57c0,2.1,0.4,2.8,2.4,2.8v0.8H364v-0.8
			c1.6,0,2.4-0.4,2.4-2.3V41.3l-2.2-1.1v-0.5l4.7-1.4v10.3H368.8z"/>
		<path class="st0" d="M386.5,45.9V57c0,2,0.4,2.7,2.2,2.7v0.8h-7.2v-0.8c2.1,0,2.5-0.5,2.5-2.8v-8.1l-2.3-1.1v-0.5L386.5,45.9z
			 M385.2,38.4c0.9,0,1.6,0.7,1.6,1.6c0,0.9-0.7,1.6-1.6,1.6c-0.9,0-1.6-0.7-1.6-1.6C383.6,39.1,384.3,38.4,385.2,38.4z"/>
		<path class="st0" d="M394,38.4V57c0,2.2,0.4,2.8,2.3,2.8v0.8h-7.1v-0.8c1.8-0.1,2.3-0.4,2.3-2.9V41.3l-2.3-1v-0.5L394,38.4z"/>
		<path class="st0" d="M402,45.9V57c0,2,0.4,2.7,2.2,2.7v0.8H397v-0.8c2.1,0,2.5-0.5,2.5-2.8v-8.1l-2.3-1.1v-0.5L402,45.9z
			 M400.7,38.4c0.9,0,1.6,0.7,1.6,1.6c0,0.9-0.7,1.6-1.6,1.6c-0.9,0-1.6-0.7-1.6-1.6C399.1,39.1,399.8,38.4,400.7,38.4z"/>
		<path class="st0" d="M404.9,47.7v-0.4l4.8-1.4v2.7c1.7-1.8,3.4-2.7,5.3-2.7c3.5,0,6.1,2.9,6.1,6.8c0,4.4-3.5,8.3-7.6,8.3
			c-1.4,0-2.8-0.4-3.8-1.2v3.5c0,2,0.1,2.5,2.8,2.5v0.8h-7.6v-0.8c2.6,0,2.3-1.2,2.3-2.9v-14L404.9,47.7z M409.7,55
			c0,2.8,1.8,4.9,4.4,4.9c2.7,0,4.4-2.3,4.4-5.8c0-3.9-2-6.4-5-6.4c-1.4,0-2.6,0.6-3.9,2V55H409.7z"/>
		<path class="st0" d="M422.9,47.7v-0.4l4.8-1.4v2.7c1.7-1.8,3.4-2.7,5.3-2.7c3.5,0,6.1,2.9,6.1,6.8c0,4.4-3.5,8.3-7.6,8.3
			c-1.4,0-2.8-0.4-3.8-1.2v3.5c0,2,0.1,2.5,2.8,2.5v0.8h-7.6v-0.8c2.6,0,2.3-1.2,2.3-2.9v-14L422.9,47.7z M427.7,55
			c0,2.8,1.8,4.9,4.4,4.9c2.7,0,4.4-2.3,4.4-5.8c0-3.9-2-6.4-5-6.4c-1.4,0-2.6,0.6-3.9,2V55H427.7z"/>
		<path class="st0" d="M443.7,51.5c-0.2,4.9,2.8,7.2,5.8,7.2c1.6,0,2.6-0.4,3.9-1.8l0.5,0.5c-1.5,2.3-3.5,3.5-5.7,3.5
			c-3.9,0-6.7-3.1-6.7-7.4c0-4.4,2.8-7.6,6.6-7.6c3.2,0,5.8,2.5,5.9,5.6H443.7z M451,50.6c-0.3-2.4-1.5-3.8-3.4-3.8
			s-3.4,1.5-3.7,3.8H451z"/>
		<path class="st0" d="M472.8,39.7c-2.7,0-3.3,0.8-3.3,2.8V58c0,3.1-0.5,5.2-2,6.7c-1.1,1.1-2.5,1.5-3.6,1.5c-1.9,0-3.3-1-3.3-2.2
			c0-0.8,0.6-1.4,1.4-1.4c1.9,0,1.5,2.3,3,2.3c1.1,0,1.5-0.8,1.5-3.6V42.2c0-1.7-0.6-2.7-3.6-2.5v-0.9h9.9V39.7z"/>
		<path class="st0" d="M486.8,59.2c-1,1.2-1.9,1.8-2.7,1.8c-1.3,0-2-0.9-2.1-2.6c-1.5,1.7-3.2,2.6-4.7,2.6c-2.2,0-3.7-1.4-3.7-3.4
			s1.2-3,5.4-4.5l2.9-1v-2.5c0-1.6-1.2-2.7-3-2.7c-1.4,0-2.7,0.8-2.7,1.7c0,0.7,0.8,1.5,0.8,1.9s-2,1.1-2.1,1.1
			c-0.3,0-0.9-1.1-0.9-2c0-2.1,2.5-3.7,5.8-3.7c3.2,0,4.5,1.3,4.5,3.8v7.4c0,1.1,0.3,1.6,0.9,1.6c0.4,0,0.7-0.1,1.2-0.4L486.8,59.2z
			 M478.2,54.6c-1.3,0.6-2,1.3-2,2.3c0,1.3,1,2.2,2.4,2.2c1.2,0,2.3-0.6,3.4-1.8v-4.4L478.2,54.6z"/>
		<path class="st0" d="M492.6,45.9v3.7h0.1c1.2-2.6,2.4-3.5,3.8-3.5c1.1,0,2.4,1,2.4,1.8c0,0.7-0.5,1.9-1.1,1.9
			c-0.8,0-1.3-1.5-2.4-1.5c-0.8,0-1.3,0.5-2.8,2.8v6.2c0,2,0.3,2.7,3.3,2.6v0.8h-8.3v-0.8c1.9,0,2.5-0.4,2.5-2.3V49l-2.5-1.1v-0.4
			L492.6,45.9z"/>
		<path class="st0" d="M507.2,45.9c4.1,0,7.2,3.2,7.2,7.4c0,4.3-3.1,7.6-7.1,7.6c-4.2,0-7.3-3.2-7.3-7.5S503.1,45.9,507.2,45.9z
			 M504.9,58.9c0.5,0.5,1.4,1.2,2.8,1.2c2.4,0,4.1-2,4.1-4.8c0-1.5-0.4-5.3-2.4-7.4c-0.6-0.6-1.5-1.1-2.6-1.1c-2,0-4.4,1.2-4.4,5.2
			C502.5,54,503.3,57.2,504.9,58.9z"/>
		<path class="st0" d="M532.7,60l-4.9,0.9v-2.8c-1.6,1.8-3.6,2.8-5.5,2.8c-2.2,0-4.3-1.5-4.3-4.5v-7.1c0-1.5-0.5-2-2.5-2.2v-0.8
			c1.6,0,2.7-0.1,3.4-0.1c0.8-0.1,1.2-0.1,1.6-0.2v9.9c0,2.1,1.1,3.2,3.1,3.2c1.4,0,2.9-0.6,4.2-1.9v-7.6c0-1.8-0.4-2.5-2.6-2.5
			v-0.8c1.4,0,2.4-0.1,3.2-0.1c0.8-0.1,1.4-0.1,2-0.2v11.6c0,1.8,0.7,1.8,2.4,1.6L532.7,60L532.7,60z"/>
		<path class="st0" d="M535.6,55.8c0.3,2.5,1.6,4.2,3.7,4.2c1.6,0,2.8-1.1,2.8-2.5c0-0.4-0.1-1.1-0.5-1.4c-1.6-1.6-4.5-2-6.3-3.8
			c-0.6-0.6-1-1.4-1-2.5c0-2.3,2-3.9,4.7-3.9c1.5,0,2.9,0.5,4.1,1.4v3.4h-0.8c-0.5-2.6-1.5-3.8-3.3-3.8c-1.5,0-2.5,0.9-2.5,2.2
			c0,0.6,0.2,1.1,0.6,1.5c1.3,1.3,4.2,1.8,6,3.6c0.8,0.8,1.1,1.7,1.1,2.7c0,2.4-2.1,4.2-5,4.2c-1.5,0-3.1-0.4-4.4-1.2v-4h0.8V55.8z"
			/>
		<path class="st0" d="M547.9,55.8c0.3,2.5,1.6,4.2,3.7,4.2c1.6,0,2.8-1.1,2.8-2.5c0-0.4-0.1-1.1-0.5-1.4c-1.6-1.6-4.5-2-6.3-3.8
			c-0.6-0.6-1-1.4-1-2.5c0-2.3,2-3.9,4.7-3.9c1.5,0,2.9,0.5,4.1,1.4v3.4h-0.8c-0.5-2.6-1.5-3.8-3.3-3.8c-1.5,0-2.5,0.9-2.5,2.2
			c0,0.6,0.2,1.1,0.6,1.5c1.3,1.3,4.2,1.8,6,3.6c0.8,0.8,1.1,1.7,1.1,2.7c0,2.4-2.1,4.2-5,4.2c-1.5,0-3.1-0.4-4.4-1.2v-4h0.8V55.8z"
			/>
		<path class="st0" d="M562.5,38.4v18.7c0,1.7,0.2,2.7,2.4,2.7v0.8h-7v-0.8c1.5-0.1,2.1-0.6,2.1-2.3V41.3l-2.1-1.1v-0.5L562.5,38.4z
			 M572.5,46.2V47c-1.4,0.1-2.4,0.6-4.6,2.6l-3,2.7l6.3,5.9c1,1,1.7,1.4,2.2,1.6v0.8h-2.8c-0.8-0.6-1.8-1.4-2.4-2l-5.6-5.5l2.9-2.5
			c1.3-1.2,1.8-1.7,1.8-2.3c0-0.8-0.6-1.2-2.2-1.3v-0.8H572.5z"/>
		<path class="st0" d="M588.4,46.2V47c-1.4,0.3-1.9,0.9-2.9,3.6L581,62.5c-0.9,2.3-2.3,4.1-4.4,4.1c-1.4,0-2.5-0.7-2.5-1.7
			c0-0.7,0.6-1.3,1.2-1.3c1,0,1.1,1.1,2.4,1.1c1.2,0,2-1.1,3-3.9l-5.2-11.5c-0.8-1.7-1.2-2.1-2.4-2.2v-0.8h6.8V47
			c-1.4,0.1-1.9,0.4-1.9,1.1c0,0.5,0.2,1.1,0.9,2.7l3.1,6.8l2-5.3c0.8-2,1.1-3.1,1.1-3.6c0-1-0.5-1.5-2-1.7v-0.8H588.4z"/>
	</g>
</g>
<g>
	<path class="st0" d="M467.5,93.1c0,1-0.8,1.8-1.8,1.8c-1,0-1.8-0.8-1.8-1.8s0.8-1.8,1.8-1.8C466.7,91.3,467.5,92.2,467.5,93.1z"/>
	<path class="st0" d="M476,93.1c0,1-0.8,1.8-1.8,1.8c-1,0-1.8-0.8-1.8-1.8s0.8-1.8,1.8-1.8C475.2,91.3,476,92.2,476,93.1z"/>
	<path class="st0" d="M484.6,93.1c0,1-0.8,1.8-1.8,1.8c-1,0-1.8-0.8-1.8-1.8s0.8-1.8,1.8-1.8C483.8,91.3,484.6,92.2,484.6,93.1z"/>
	<path class="st0" d="M1.5,119.2c1.2-2.5,3.2-4.3,4.7-4.3c0.9,0,1.6,0.7,1.6,1.7c0,0.6-0.2,1.5-0.5,2.3l-2.7,7.8
		c-0.3,0.8,0,1.2,0.3,1.2c0.7,0,2.2-1.5,3-3.1h1c-1.1,2.5-3.3,4.5-4.9,4.5c-1,0-1.6-0.7-1.6-1.8c0-0.5,0.1-1.2,0.3-1.7l2.7-7.8
		c0.5-1.5,0.3-1.8-0.1-1.8c-0.8,0-2,1.3-2.9,2.9H1.5z M8.9,107.1c0.9,0,1.5,0.7,1.5,1.5c0,0.9-0.7,1.5-1.5,1.5
		c-0.9,0-1.5-0.7-1.5-1.5C7.4,107.8,8.1,107.1,8.9,107.1z"/>
	<path class="st0" d="M22.5,118c0.4-1.5,0.3-1.8-0.1-1.8c-0.7,0-1.6,1-2.5,2.7H19c1.4-2.6,2.8-3.9,4.5-3.9c0.9,0,1.4,0.5,1.4,1.3
		c0,0.5-0.2,1.5-0.5,2.3l-2,5.9l0.1,0.1c4.5-8,6.7-9.6,8.7-9.6c1,0,1.6,0.6,1.6,1.5c0,0.3-0.2,1.2-0.5,2l-1.9,5.6l0.1,0.1
		c4.2-7.2,6.4-9.2,8.4-9.2c1,0,1.7,0.8,1.7,1.8c0,0.6-0.2,1.4-0.5,2.4l-2.5,7c-0.4,1.1-0.2,1.5,0.2,1.5c0.5,0,1.5-1.1,2.5-2.8h1
		c-1.5,2.8-3.3,4.5-4.7,4.5c-0.8,0-1.5-0.7-1.5-1.6c0-0.4,0.2-1,0.4-1.9l2.6-7.2c0.4-1.1,0.4-1.4,0.4-1.8c0-0.4-0.3-0.7-0.6-0.7
		c-0.4,0-1,0.3-1.9,1.2c-2.1,2.1-5.8,7.8-6.9,11.7h-2.2l3.3-10.9c0.1-0.4,0.3-1.3,0.3-1.5c0-0.3-0.3-0.5-0.5-0.5
		c-0.4,0-1.1,0.4-1.8,1.2c-2.1,2.1-5.8,7.9-6.9,11.7h-2.2L22.5,118z"/>
	<path class="st0" d="M53.1,124.7c-1.7,3-3.8,4.6-6.1,4.6c-2.3,0-4-1.6-4-4c0-4.7,4.9-10.3,8.3-10.3c1.5,0,2.4,0.9,2.4,2.5
		c0,0.9-0.4,2-1.3,2.9c-1.6,1.6-4.5,2.7-6.9,3c-0.1,0.2-0.2,0.7-0.2,1.3c0,1.8,1.1,3,2.7,3c1.3,0,3-1,4.1-2.9H53.1z M50.2,116.2
		c-1.6,0-3.3,2.4-4.5,6.3c2.1-0.3,3.9-1,5.2-2.3c0.3-0.3,1-1.2,1-2.3C51.9,116.9,51.2,116.2,50.2,116.2z M49.1,112.8l1.2-3.8
		c0.2-0.6,0.5-0.8,1.5-0.8h1c0.4,0,0.7,0.2,0.7,0.5c0,0.2-0.1,0.3-0.3,0.5l-3.1,3.6H49.1z"/>
	<path class="st0" d="M61.3,115c1.7,0,2.9,0.8,2.9,2c0,0.6-0.5,1.2-1.1,1.2c-1.5,0-1-2.1-2.6-2.1c-1,0-1.9,0.7-1.9,1.6
		c0,2.3,3.9,4.4,3.9,7.6c0,2.4-2,4.1-4.6,4.1c-1.9,0-3.4-1.1-3.4-2.5c0-0.6,0.5-1.1,1.1-1.1c1.5,0,1.2,2.6,3.1,2.6c1.1,0,2-0.9,2-2
		c0-2.3-3.8-4.5-3.8-7.7C57,116.6,59,115,61.3,115z"/>
	<path class="st0" d="M87.3,110.8c0.1-0.4,0.4-1.3,0.4-1.7c0-0.4-0.3-0.8-1.7-0.8h-1.1l0.3-0.8c3.1,0.1,4.7-0.2,5-0.4h0.4l-5.4,19.5
		c-0.2,0.8-0.2,1.2,0.4,1.2c0.7,0,1.6-1.1,2.5-2.9h0.9c-0.9,2.6-2.7,4.4-4.3,4.4c-0.9,0-1.5-0.8-1.5-1.8c0-0.7,0.2-1.6,0.6-3.3
		l-0.1-0.1c-1.7,3.4-3.8,5.2-6.1,5.2c-1.9,0-3.3-1.5-3.3-3.6c0-4.3,5.3-10.8,9.2-10.8c1,0,1.7,0.3,2.6,0.9L87.3,110.8z M81.5,126
		c1.8-1.8,3.7-6.1,3.7-8c0-1.2-0.9-2.1-2.2-2.1c-1.1,0-2.2,0.6-3.2,1.6c-2,2-3.4,5.1-3.4,7.3c0,1.7,0.9,2.7,2.3,2.7
		C79.6,127.5,80.5,127,81.5,126z"/>
	<path class="st0" d="M100.2,124.7c-1.7,3-3.8,4.6-6.1,4.6c-2.3,0-4-1.6-4-4c0-4.7,4.9-10.3,8.3-10.3c1.5,0,2.4,0.9,2.4,2.5
		c0,0.9-0.4,2-1.3,2.9c-1.6,1.6-4.5,2.7-6.9,3c-0.1,0.2-0.2,0.7-0.2,1.3c0,1.8,1.1,3,2.7,3c1.3,0,3-1,4.1-2.9H100.2z M97.3,116.2
		c-1.6,0-3.3,2.4-4.5,6.3c2.1-0.3,3.9-1,5.2-2.3c0.3-0.3,1-1.2,1-2.3C99,116.9,98.3,116.2,97.3,116.2z"/>
	<path class="st0" d="M118.9,124.1c-0.3,1.4-0.5,2-0.5,2.4c0,1,0.8,1.5,2.3,1.6l-0.3,0.9h-8.2l0.3-0.9c2.1,0,3-0.8,3.7-3.2l2.9-10.7
		c0.2-0.6,0.2-0.9,0.2-1.2c0-0.9-0.7-1.4-2.9-1.3l0.3-0.9c2.6-0.3,3.7-1.1,5.4-2.8h1.1L118.9,124.1z"/>
	<path class="st0" d="M129.6,116.6c1.8-5.6,5.4-8.6,8.1-8.6c3.5,0,4.9,3.9,4.9,6.7c0,6.4-4,14.7-9.1,14.7c-2.6,0-4.8-2.3-4.8-7
		C128.7,120.2,129.3,117.7,129.6,116.6z M133.4,128.3c2.7,0,4-3.6,4.5-4.9c0.8-2,2.4-7.3,2.4-10.8c0-1.8-0.9-3.7-2.6-3.7
		c-3.2,0-4.9,6.3-5.7,8.9c-0.9,3.3-1.2,4.9-1.2,6.5C130.8,126.4,131.8,128.3,133.4,128.3z"/>
	<path class="st0" d="M146.4,116.6c1.8-5.6,5.4-8.6,8.1-8.6c3.5,0,4.9,3.9,4.9,6.7c0,6.4-4,14.7-9.1,14.7c-2.6,0-4.8-2.3-4.8-7
		C145.4,120.2,146,117.7,146.4,116.6z M150.2,128.3c2.7,0,4-3.6,4.5-4.9c0.8-2,2.4-7.3,2.4-10.8c0-1.8-0.9-3.7-2.6-3.7
		c-3.2,0-4.9,6.3-5.7,8.9c-0.9,3.3-1.2,4.9-1.2,6.5C147.5,126.4,148.5,128.3,150.2,128.3z"/>
	<path class="st0" d="M179.3,124.6c-1.8,3.1-4,4.7-6.6,4.7c-2.3,0-3.8-1.7-3.8-4.1c0-4.5,5-10.2,8.4-10.2c1.4,0,2.5,0.9,2.5,2.2
		c0,0.8-0.5,1.5-1.2,1.5c-0.7,0-1.1-0.3-1.1-1.3c0-1.1-0.2-1.3-0.8-1.3c-0.6,0-1.3,0.4-2.2,1.3c-2.1,2-3.1,5.1-3.1,7.1
		c0,1.9,1.1,3.2,2.8,3.2c1.5,0,2.6-0.9,4.3-3H179.3z"/>
	<path class="st0" d="M189.2,115c2.3,0,4,1.9,4,4.4c0,4.2-4,9.9-8.4,9.9c-2.4,0-4-1.8-4-4.3C180.8,120.1,185.1,115,189.2,115z
		 M185.7,128.3c0.9,0,1.6-0.4,2.2-0.9c1.9-1.9,2.8-5.7,2.8-7.8c0-2.1-0.9-3.5-2.4-3.5c-0.7,0-1.4,0.3-2.2,1.1
		c-1.9,1.9-2.8,5.2-2.8,7.9C183.3,127,184.2,128.3,185.7,128.3z"/>
	<path class="st0" d="M198.7,117.5c0.3-0.9,0.3-1.3-0.2-1.3c-0.6,0-1.6,1-2.5,2.6h-0.9c1.1-2.4,2.8-3.9,4.4-3.9
		c0.9,0,1.5,0.6,1.5,1.4c0,0.5-0.1,1-0.4,2l-1.4,4.4l0.1,0.1c3.4-5.5,5.8-7.8,8-7.8c1.2,0,2,0.7,2,1.7c0,0.7-0.1,1.1-0.7,2.8
		l-2.3,6.7c-0.3,0.8-0.3,1.4,0.3,1.4c0.6,0,1.6-1.2,2.6-2.7h1c-1.4,2.2-3.3,4.4-4.8,4.4c-0.9,0-1.6-0.7-1.6-1.6
		c0-0.5,0.1-0.7,0.4-1.8l2.7-7.8c0.2-0.7,0.3-1,0.3-1.4c0-0.4-0.3-0.7-0.7-0.7c-0.6,0-1.1,0.3-2.2,1.3c-2.4,2.4-5.5,7.1-6.3,9.6
		l-0.6,1.9h-2.2L198.7,117.5z"/>
	<path class="st0" d="M222,124.6c-1.8,3.1-4,4.7-6.6,4.7c-2.3,0-3.8-1.7-3.8-4.1c0-4.5,5-10.2,8.4-10.2c1.4,0,2.5,0.9,2.5,2.2
		c0,0.8-0.5,1.5-1.2,1.5c-0.7,0-1.1-0.3-1.1-1.3c0-1.1-0.2-1.3-0.8-1.3c-0.6,0-1.3,0.4-2.2,1.3c-2.1,2-3.1,5.1-3.1,7.1
		c0,1.9,1.1,3.2,2.8,3.2c1.5,0,2.6-0.9,4.3-3H222z"/>
	<path class="st0" d="M233.5,124.7c-1.7,3-3.8,4.6-6.1,4.6c-2.3,0-4-1.6-4-4c0-4.7,4.9-10.3,8.3-10.3c1.5,0,2.4,0.9,2.4,2.5
		c0,0.9-0.4,2-1.3,2.9c-1.6,1.6-4.5,2.7-6.9,3c-0.1,0.2-0.2,0.7-0.2,1.3c0,1.8,1.1,3,2.7,3c1.3,0,3-1,4.1-2.9H233.5z M230.6,116.2
		c-1.6,0-3.3,2.4-4.5,6.3c2.1-0.3,3.9-1,5.2-2.3c0.3-0.3,1-1.2,1-2.3C232.3,116.9,231.5,116.2,230.6,116.2z"/>
	<path class="st0" d="M239,118.8c0.2-0.9,0.3-1.3,0.3-1.7c0-0.4-0.3-0.7-0.6-0.7c-0.7,0-1.6,1-2.5,2.6h-0.9c1.3-2.6,2.9-4.1,4.3-4.1
		c0.9,0,1.6,0.8,1.6,1.8c0,1-0.2,2.1-0.9,4.6l0.1,0.1c2.3-4.9,3.7-6.5,5.1-6.5c0.9,0,1.4,0.7,1.4,1.9c0,1.3-0.5,2.2-1.2,2.2
		c-1.6,0-0.2-2.4-1.1-2.4c-0.1,0-0.4,0.1-0.7,0.4c-1.7,1.7-3.6,6-4.3,8.7l-0.8,3.2h-2.2L239,118.8z"/>
	<path class="st0" d="M250.2,126.5c-0.3,1.1-0.1,1.6,0.4,1.6c0.8,0,1.9-0.9,3.3-2.7h1c-1.8,2.6-3.6,4-5.4,4c-1,0-1.8-0.7-1.8-1.6
		c0-0.3,0.1-0.7,0.2-1l2.9-10.5h-2.6l0.3-0.8c2.5-0.4,3.6-1,5-3.2h0.8l-1,3.2h2.7l-0.3,0.8H253L250.2,126.5z"/>
	<path class="st0" d="M262.7,115c1.7,0,2.9,0.8,2.9,2c0,0.6-0.5,1.2-1.1,1.2c-1.5,0-1-2.1-2.6-2.1c-1,0-1.9,0.7-1.9,1.6
		c0,2.3,3.9,4.4,3.9,7.6c0,2.4-2,4.1-4.6,4.1c-1.9,0-3.4-1.1-3.4-2.5c0-0.6,0.5-1.1,1.1-1.1c1.5,0,1.2,2.6,3.1,2.6c1.1,0,2-0.9,2-2
		c0-2.3-3.8-4.5-3.8-7.7C258.4,116.6,260.4,115,262.7,115z"/>
	<path class="st0" d="M270.4,127.5c0,1-0.8,1.8-1.8,1.8s-1.8-0.8-1.8-1.8s0.8-1.8,1.8-1.8S270.4,126.5,270.4,127.5z M269.7,122.7
		l3.1-13.8c0.3-1.5,0.6-1.8,1.9-1.8c1,0,1.5,0.3,1.5,0.9c0,0.3-0.1,0.6-0.4,1.5l-5.1,13.2H269.7z"/>
</g>
<path class="st0" d="M22,38.7v0.9c-1.3,0-2.4,0.9-4.8,4.3L12,51.4v5.3c0,2,0.6,2.9,3.2,2.8v0.9H5.8v-0.9c2.6,0,3.2-0.7,3.2-2.8v-5.5
	l-6-8.8c-1.5-2.3-2.2-2.7-4-2.8v-0.9h9.5v0.9c-2-0.1-2.6,0.4-2.6,1.3c0,0.7,0.4,1.4,1.3,2.8l4.2,6.3l3.4-4.8c1-1.4,1.7-2.9,1.7-3.6
	c0-1.2-0.8-1.9-2.5-2v-0.9H22z"/>
<path class="st0" d="M37.3,59.9l-4.9,0.9V58c-1.6,1.8-3.6,2.8-5.5,2.8c-2.2,0-4.3-1.5-4.3-4.5v-7.1c0-1.5-0.5-2-2.5-2.2v-0.9
	c1.6,0,2.7-0.1,3.4-0.1c0.8-0.1,1.2-0.1,1.6-0.2v9.9c0,2.1,1.1,3.2,3.1,3.2c1.4,0,2.9-0.6,4.2-1.9v-7.6c0-1.8-0.4-2.5-2.6-2.5v-0.8
	c1.4,0,2.4-0.1,3.2-0.1c0.8-0.1,1.4-0.1,2-0.2v11.6c0,1.8,0.7,1.8,2.4,1.6v0.9H37.3z"/>
<path class="st0" d="M42.4,45.8V59c0,2-0.5,2.8-4.5,7.5l-0.8-0.7c2.4-3.7,2.8-5.5,2.8-7V48.7l-2.5-1v-0.5L42.4,45.8z M40.9,38.3
	c0.9,0,1.6,0.7,1.6,1.6c0,0.9-0.7,1.6-1.6,1.6c-0.9,0-1.6-0.7-1.6-1.6C39.3,39,40,38.3,40.9,38.3z"/>
<path class="st0" d="M58.4,59.1c-1,1.2-1.9,1.8-2.7,1.8c-1.3,0-2-0.9-2.1-2.6c-1.5,1.7-3.2,2.6-4.7,2.6c-2.2,0-3.7-1.4-3.7-3.4
	s1.2-3,5.4-4.5l2.9-1v-2.5c0-1.6-1.2-2.7-3-2.7c-1.4,0-2.7,0.8-2.7,1.7c0,0.7,0.8,1.5,0.8,1.9c0,0.4-2,1.1-2.1,1.1
	c-0.3,0-0.9-1.1-0.9-2c0-2.1,2.5-3.7,5.8-3.7c3.2,0,4.5,1.3,4.5,3.8V57c0,1.1,0.3,1.6,0.9,1.6c0.4,0,0.7-0.1,1.2-0.4L58.4,59.1z
	 M49.8,54.5c-1.3,0.6-2,1.3-2,2.3c0,1.3,1,2.2,2.4,2.2c1.2,0,2.3-0.6,3.4-1.8v-4.4L49.8,54.5z"/>
<path class="st0" d="M97.3,38.7v0.9c-0.2,0-1.1,0.3-1.4,0.6c-0.5,0.5-1.2,1.9-1.9,3.5l-3.2,7.6c-0.7,1.7-3.6,7.2-3.9,9.6h-1.3
	c-0.3-1.2-0.9-2.8-1.7-4.4l-2.3-4.8l-3.1,6c-0.9,1.7-1.2,2.4-1.3,3.2h-1.4c-0.1-0.7-0.7-2.2-1.7-4.5l-4.8-10.8
	c-1-2.3-1.7-4.4-2.6-5.4c-0.4-0.4-1-0.6-1.4-0.6v-0.9h7.6v0.9c-1.2,0.1-1.9,0.8-1.9,1.9c0,2,3.1,6.7,6.6,15.9
	c0.5-1.4,2.3-4.6,3.4-6.9l-3.3-6.9c-1.6-3.5-2-3.9-3.3-4v-0.9h7.4v0.9c-1,0.1-1.6,0.7-1.6,1.7c0,0.9,0.4,1.9,0.8,2.6l1.7,3.3
	l1.9-3.5c0.1-0.3,0.6-1.5,0.6-2.1c0-1-0.7-1.9-1.7-2v-0.9h5.9v0.9c-1.3,0.1-2.3,1.5-4,4.8l-2.1,4.1c1.4,3.1,3.6,7.4,3.8,8.3
	c0.7-1.6,1.3-2.8,2-4.3l2.1-5c0.9-2.1,1.8-4.8,1.8-5.7c0-1.3-0.7-2.1-2-2.2v-0.9H97.3z"/>
<path class="st0" d="M109.3,59.1c-1,1.2-1.9,1.8-2.7,1.8c-1.3,0-2-0.9-2.1-2.6c-1.5,1.7-3.2,2.6-4.7,2.6c-2.2,0-3.7-1.4-3.7-3.4
	s1.2-3,5.4-4.5l2.9-1v-2.5c0-1.6-1.2-2.7-3-2.7c-1.4,0-2.7,0.8-2.7,1.7c0,0.7,0.8,1.5,0.8,1.9c0,0.4-2,1.1-2.1,1.1
	c-0.3,0-0.9-1.1-0.9-2c0-2.1,2.5-3.7,5.8-3.7c3.2,0,4.5,1.3,4.5,3.8V57c0,1.1,0.3,1.6,0.9,1.6c0.4,0,0.7-0.1,1.2-0.4L109.3,59.1z
	 M100.7,54.5c-1.3,0.6-2,1.3-2,2.3c0,1.3,1,2.2,2.4,2.2c1.2,0,2.3-0.6,3.4-1.8v-4.4L100.7,54.5z"/>
<path class="st0" d="M115.4,45.8v2.8c1.6-1.6,3.5-2.8,5.5-2.8c2.4,0,4.3,1.6,4.3,4.6V57c0,2,0.5,2.6,2.3,2.6v0.8h-7.3v-0.8
	c2.1,0,2.5-0.7,2.5-2.8v-6.3c0-1.7-1.1-2.9-2.9-2.9c-1.5,0-3.1,0.7-4.4,1.9v7.3c0,2,0.2,2.9,2.6,2.8v0.8h-7.5v-0.8
	c1.8,0,2.4-0.4,2.4-2.8v-8.2l-2.3-1.1v-0.3L115.4,45.8z"/>
<path class="st0" d="M143.3,48.7c-0.2,0.1-0.6,0.1-0.8,0.1c-0.8,0-1.7-0.2-2.7-0.4l-0.1,0.1c0.5,0.7,0.8,1.7,0.8,2.6
	c0,2.8-2.5,5-5.7,5c-0.8,0-1.6-0.1-2.1-0.3c-0.9,0.7-1.4,1.3-1.4,1.7c0,0.7,0.9,1,3.6,1h2.5c3.4,0,5.1,1.2,5.1,3.3
	c0,3-3.6,5.2-8.4,5.2c-3,0-5.9-1-5.9-3c0-1,1-2.3,2.7-3.5c-1.2-0.3-1.8-0.9-1.8-1.7s0.4-1.4,2.7-3.4c-1.6-0.8-2.7-2.4-2.7-4.2
	c0-2.9,2.5-5.2,5.7-5.2c1.4,0,2.1,0.3,3,0.5c0.9,0.3,2,0.5,4,0.5c0.5,0,0.9,0,1.4-0.1v1.8C143.2,48.7,143.3,48.7,143.3,48.7z
	 M130.2,63.1c0,1.3,1.9,2.3,4.5,2.3c3.4,0,6.1-1.3,6.1-2.9c0-1.4-1.2-1.8-4.5-1.8c-2.2,0-3.1-0.1-4.3-0.3
	C130.7,61.5,130.2,62.2,130.2,63.1z M135.1,54.9c1.7,0,2.8-1.3,2.8-3.3c0-1.2-0.4-4.8-3.4-4.8c-1.8,0-2.9,1.3-2.9,3.6
	C131.7,53.1,133.1,54.9,135.1,54.9z"/>
<path class="st0" d="M144.6,64.6c2.9-0.2,4.8-1.6,4.8-3.6c0-1.5-1.1-2-2-2c-0.7,0-1.8-0.4-1.8-1.6c0-1.1,0.8-1.8,1.9-1.8
	c1.8,0,3.3,2,3.3,4.4c0,3.1-2.5,5.3-6.2,5.4V64.6z"/>
<path class="st0" d="M166.3,46.3c0.3-1.4,0.5-2.9,0.5-4.2c0-1.6-1-2.5-2.6-2.5v-0.9h5.6c0.1,1.6,1.9,6,2.8,8.1l1.5,3.3
	c1.1,2.4,1.7,3.2,3,6.4c0.4-1.2,0.8-2,1.9-4l2.3-4.6c2.4-4.8,2.9-6.8,2.9-9.2h6v0.9c-2-0.1-2.7,0.6-2.7,2.4c0,0.5,0.1,1.2,0.2,2
	l1.7,12.4c0.3,2.3,1.2,3,3.1,3.2v0.9h-9.3v-0.9c1.9,0,3-1,3-2.6c0-0.2-0.1-1.5-0.3-3.4l-1.2-10.9h-0.1c-0.2,0.6-0.3,0.9-0.7,1.8
	c-0.8,1.8-0.9,2.1-1.9,4l-1.1,2.1c-1.4,2.8-1.7,3.4-2.3,4.6c-0.7,1.6-1.3,3.1-1.6,3.9c-0.2,0.6-0.3,0.8-0.4,1.4h-1.2
	c-0.4-1.6-0.9-3-2-5.4l-3.1-6.6c-1-2.1-1.9-4.3-2.4-5.9h-0.1L166,54.5c-0.2,1-0.2,1.4-0.2,2c0,1.9,0.8,2.7,3,3v0.9h-7.4v-0.9
	c2.3-0.2,3.1-2.5,3.7-6.2L166.3,46.3z"/>
<path class="st0" d="M207.3,59.1c-1,1.2-1.9,1.8-2.7,1.8c-1.3,0-2-0.9-2.1-2.6c-1.5,1.7-3.2,2.6-4.7,2.6c-2.2,0-3.7-1.4-3.7-3.4
	s1.2-3,5.4-4.5l2.9-1v-2.5c0-1.6-1.2-2.7-3-2.7c-1.4,0-2.7,0.8-2.7,1.7c0,0.7,0.8,1.5,0.8,1.9c0,0.4-2,1.1-2.1,1.1
	c-0.3,0-0.9-1.1-0.9-2c0-2.1,2.5-3.7,5.8-3.7c3.2,0,4.5,1.3,4.5,3.8V57c0,1.1,0.3,1.6,0.9,1.6c0.4,0,0.7-0.1,1.2-0.4L207.3,59.1z
	 M198.7,54.5c-1.3,0.6-2,1.3-2,2.3c0,1.3,1,2.2,2.4,2.2c1.2,0,2.3-0.6,3.4-1.8v-4.4L198.7,54.5z"/>
<path class="st0" d="M214,56.1c-1.2,1.3-1.4,1.8-1.4,2.3c0,0.8,0.7,1.2,1.8,1.3v0.8h-5.9v-0.8c0.8-0.1,1.8-0.6,4-3.1l2.5-2.9
	l-4.3-5.2c-1.1-1.3-1.3-1.5-2.4-1.6v-0.8h6.4v0.8c-1,0-1.4,0.3-1.4,0.7c0,0.4,0.1,0.5,1.1,1.7l2,2.5l1.7-1.9
	c0.6-0.7,1.1-1.5,1.1-1.9c0-0.7-0.5-1-1.5-1.1v-0.8h5.5v0.8c-0.9,0-1.9,0.6-2.8,1.7l-3.4,3.9l4.3,5.2c1.1,1.4,1.8,1.8,2.6,2v0.8H217
	v-0.8c1.1-0.1,1.6-0.4,1.6-1c0-0.4-0.2-0.8-1.1-1.9l-2-2.4L214,56.1z"/>
<path class="st0" d="M253.7,60.2c-1,0.2-1.7,0.3-2.4,0.3c-1.7,0-2.9-0.8-4.9-3.2l-5.3-6.3c-0.6-0.7-0.8-0.8-1.9-0.8h-1.7v6.5
	c0,2,0.5,2.9,3.3,2.8v0.9h-9.5v-0.9c2.8,0.1,3.3-0.8,3.3-2.8V42.3c0-1.9-0.6-2.8-3.3-2.7v-0.9H242c4.6,0,7.6,2.4,7.6,5.6
	c0,2.1-1.4,4.7-6.1,5.4c0.9,1,1.9,2.1,2.5,2.7l3.9,4.6c1.8,2,2.7,2.6,3.7,2.6v0.6H253.7z M240.1,49c4.4,0,6.1-1.7,6.1-4.4
	c0-2.9-1.7-5-6-5h-2.6V49C237.6,49,240.1,49,240.1,49z"/>
<path class="st0" d="M260,45.8V57c0,2,0.4,2.7,2.2,2.7v0.8H255v-0.8c2.1,0,2.5-0.5,2.5-2.8v-8.1l-2.3-1.1v-0.5L260,45.8z
	 M258.7,38.3c0.9,0,1.6,0.7,1.6,1.6c0,0.9-0.7,1.6-1.6,1.6c-0.9,0-1.6-0.7-1.6-1.6C257.1,39,257.8,38.3,258.7,38.3z"/>
<path class="st0" d="M275.8,57.1c-1.4,2.4-3.6,3.8-5.9,3.8c-3.8,0-6.9-3.1-6.9-7.3c0-4.5,3.3-7.7,7.7-7.7c2.8,0,4.9,1.2,4.9,2.9
	c0,0.9-0.5,1.4-1.2,1.4c-2,0-0.8-3.4-4.3-3.4c-2.8,0-4.6,2.1-4.6,5.5c0,3.7,2.3,6.4,5.5,6.4c1.5,0,2.9-0.6,4.2-2L275.8,57.1z"/>
<path class="st0" d="M281.1,48.5c1.9-1.8,3.7-2.7,5.5-2.7c2.5,0,4.2,1.7,4.2,4.4v6.9c0,1.9,0.5,2.5,2.2,2.5v0.8h-6.9v-0.8
	c1.8,0,2.2-0.7,2.2-2.8V51c0-2.3-0.9-3.5-2.9-3.5c-1.5,0-3,0.7-4.4,1.9v7.4c0,2.1,0.4,2.8,2.4,2.8v0.8h-7.2v-0.8
	c1.6,0,2.4-0.4,2.4-2.3V41.2l-2.2-1.1v-0.4l4.7-1.4V48.5z"/>
<path class="st0" d="M302.5,60.1c-1.3,0.5-3,0.8-4.1,0.8c-2.3,0-3.1-1.1-3.1-3.3V47.3h-2.6v-0.8c2.1-0.6,3.5-1.7,4.3-3.6h0.8V46h4.4
	v1.3h-4.4v9.9c0,1.6,0.5,2.2,2.1,2.2c0.7,0,1.4-0.1,2.6-0.3V60.1z"/>
<path class="st0" d="M305,51.4c-0.2,4.9,2.8,7.2,5.8,7.2c1.6,0,2.6-0.4,3.9-1.8l0.5,0.5c-1.5,2.3-3.5,3.5-5.7,3.5
	c-3.9,0-6.7-3.1-6.7-7.4c0-4.4,2.8-7.6,6.6-7.6c3.2,0,5.8,2.5,5.9,5.6H305z M312.2,50.5c-0.3-2.4-1.5-3.8-3.4-3.8s-3.4,1.5-3.7,3.8
	H312.2z"/>
<path class="st0" d="M321.1,45.8v3.7h0.1c1.2-2.6,2.4-3.5,3.8-3.5c1.1,0,2.4,1,2.4,1.8c0,0.7-0.5,1.9-1.1,1.9
	c-0.8,0-1.3-1.5-2.4-1.5c-0.8,0-1.3,0.5-2.8,2.8v6.2c0,2,0.3,2.7,3.3,2.6v0.8h-8.3v-0.8c1.9,0,2.5-0.4,2.5-2.3v-8.6l-2.5-1.1v-0.6
	L321.1,45.8z"/>
<path class="st0" d="M328.4,64.6c2.9-0.2,4.8-1.6,4.8-3.6c0-1.5-1.1-2-2-2c-0.7,0-1.8-0.4-1.8-1.6c0-1.1,0.8-1.8,1.9-1.8
	c1.8,0,3.3,2,3.3,4.4c0,3.1-2.5,5.3-6.2,5.4V64.6z"/>
</svg>
