<?xml version="1.0" encoding="utf-8"?>
<!-- Generator: Adobe Illustrator 24.3.0, SVG Export Plug-In . SVG Version: 6.00 Build 0)  -->
<svg version="1.1" id="Laag_1" xmlns="http://www.w3.org/2000/svg" xmlns:xlink="http://www.w3.org/1999/xlink" x="0px" y="0px"
	 width="163.3px" height="41px" viewBox="0 0 163.3 41" style="enable-background:new 0 0 163.3 41;" xml:space="preserve">
<style type="text/css">
	.st0{fill:#FFEC00;}
	.st1{fill:#1D1D1B;}
</style>
<g>
	<rect y="0" class="st0" width="163.3" height="41"/>
	<g>
		<polygon class="st1" points="20.8,36 23.5,34.5 23.5,25.8 20.8,24.3 18.2,25.8 20.8,27.3 		"/>
		<polygon class="st1" points="15.3,32.9 18.2,34.5 18.2,25.8 18.2,17.1 15.3,18.4 		"/>
		<polygon class="st1" points="18.2,14.1 10,9.7 7.3,11.2 12.6,14.1 12.6,14.1 12.6,14.1 15.3,15.6 		"/>
		<polygon class="st1" points="10,15.6 10,30.1 12.6,28.6 12.6,14.1 12.6,14.1 		"/>
		<path class="st1" d="M20.8,15.6l-2.7,1.5c0,0,4.3,1.5,2.7,7.2l2.7-1.5C25.2,17.1,20.8,15.6,20.8,15.6z"/>
		<polygon class="st1" points="8.1,8.2 8.5,8.2 8.5,6.4 9.1,6.4 9.1,5.9 7.5,5.9 7.5,6.4 8.1,6.4 		"/>
		<polygon class="st1" points="10.1,7.2 11.1,7.2 11.1,8.2 11.6,8.2 11.6,5.9 11.1,5.9 11.1,6.9 10.1,6.9 10.1,5.9 9.8,5.9 9.8,8.2 
			10.1,8.2 		"/>
		<polygon class="st1" points="14,7.9 12.8,7.9 12.8,7.2 13.8,7.2 13.8,6.9 12.8,6.9 12.8,6.4 14,6.4 14,5.9 12.5,5.9 12.5,8.2 
			14,8.2 		"/>
		<path class="st1" d="M15.3,7.7h0.8l0.2,0.5h0.5L16,5.9h-0.7l-0.8,2.3h0.7L15.3,7.7z M15.7,6.5L15.7,6.5L16,7.4h-0.7L15.7,6.5z"/>
		<polygon class="st1" points="17.7,8.2 18.2,8.2 18.2,6.4 18.7,6.4 18.7,5.9 17,5.9 17,6.4 17.7,6.4 		"/>
		<polygon class="st1" points="20.8,7.9 19.7,7.9 19.7,7.2 20.8,7.2 20.8,6.9 19.7,6.9 19.7,6.4 20.8,6.4 20.8,5.9 19.3,5.9 
			19.3,8.2 20.8,8.2 		"/>
		<path class="st1" d="M22.2,7.4h0.3L23,8.2h0.5l-0.7-1C23,7.2,23,7,23.2,6.9c0-0.2,0.2-0.3,0.2-0.5s0-0.3-0.2-0.5s-0.3-0.2-0.5-0.2
			h-0.8V8h0.5V7.4H22.2z M22.2,6.4h0.3c0.2,0,0.2,0,0.2,0v0.2c0,0,0,0.2-0.2,0.2L22.3,7H22V6.4H22.2z"/>
		<path class="st1" d="M26.2,9.7v0.5H27v0.3L26.2,11v0.5l1-0.5c0,0.2,0.2,0.2,0.3,0.3c0.2,0,0.3,0.2,0.5,0.2s0.3,0,0.5-0.2
			c0-0.3,0-0.5,0-0.8V9.7H26.2z M28.2,10.5c0,0.2,0,0.2,0,0.2H28c-0.2,0-0.2,0-0.2-0.2l-0.2-0.2v-0.2h0.7L28.2,10.5L28.2,10.5
			L28.2,10.5z"/>
		<path class="st1" d="M27.4,11.9c-0.3,0-0.7,0.2-0.8,0.3c-0.2,0.2-0.3,0.5-0.3,0.8s0.2,0.7,0.3,0.8s0.5,0.3,0.8,0.3
			s0.7-0.2,0.8-0.3c0.2-0.2,0.3-0.5,0.3-0.8s-0.2-0.7-0.3-0.8C28,12.1,27.7,11.9,27.4,11.9z M27.9,13.7c-0.2,0.2-0.3,0.2-0.5,0.2
			s-0.5,0-0.5-0.2c-0.2-0.2-0.2-0.3-0.2-0.5s0-0.3,0.2-0.5s0.3-0.2,0.5-0.2s0.3,0,0.5,0.2s0.2,0.2,0.2,0.5S28,13.6,27.9,13.7z"/>
		<polygon class="st1" points="28.5,16.4 28.5,14.7 28.2,14.7 28.2,15.4 26.2,15.4 26.2,15.9 28.2,15.9 28.2,16.4 		"/>
		<polygon class="st1" points="26.2,18.1 28.2,18.1 28.2,18.7 28.5,18.7 28.5,16.9 28.2,16.9 28.2,17.6 26.2,17.6 		"/>
		<polygon class="st1" points="26.2,20.9 26.5,20.9 26.5,19.7 27.2,19.7 27.2,20.7 27.5,20.7 27.5,19.7 28.2,19.7 28.2,20.9 
			28.5,20.9 28.5,19.2 26.2,19.2 		"/>
		<path class="st1" d="M26.2,22.1H27v0.3l-0.8,0.5v0.5l1-0.5c0,0.2,0.2,0.2,0.3,0.3c0.2,0,0.3,0.2,0.5,0.2s0.3,0,0.5-0.2
			c0-0.3,0-0.5,0-0.7v-0.8h-2.3V22.1z M27.5,22.1h0.7v0.3c0,0.2,0,0.2,0,0.2H28c-0.2,0-0.2,0-0.2-0.2L27.5,22.1l0.1-0.1h-0.1V22.1z"
			/>
		<path class="st1" d="M26.2,24.8c0,0.3,0.2,0.7,0.3,0.8s0.5,0.3,0.8,0.3s0.7-0.2,0.8-0.3s0.3-0.5,0.3-0.8l0,0v-0.7h-2.3
			C26.2,24.1,26.2,24.8,26.2,24.8z M26.5,24.6H28v0.3c0,0.2,0,0.3-0.2,0.5s-0.3,0.2-0.5,0.2s-0.3,0-0.5-0.2s-0.2-0.3-0.2-0.5
			L26.5,24.6L26.5,24.6z"/>
		<path class="st1" d="M26.2,26.9l0.5,0.2v0.8l-0.5,0.2v0.5l2.3-0.7v-0.7l-2.3-0.8V26.9z M27,27.3l0.8,0.3l0,0L27,27.9V27.3z"/>
		<polygon class="st1" points="26.2,29.6 27.5,29.6 26.4,30.1 26.4,30.6 27.5,31.1 26.2,31.1 26.2,31.6 28.5,31.6 28.5,30.9 
			26.9,30.4 26.9,30.4 28.5,29.8 28.5,29.1 26.2,29.1 		"/>
	</g>
</g>
<g>
	<path class="st1" d="M51.6,24.4H57v2.1h-7.7V15.3h2.3V24.4z"/>
	<path class="st1" d="M60.6,15.3v11.1h-2.2V15.3H60.6z"/>
	<path class="st1" d="M69.5,15.3h2.3l-3.5,11.1h-3l-3.5-11.1h2.3l2.6,8.8h0.2L69.5,15.3z"/>
	<path class="st1" d="M75.1,24.5h5.4v2H73V15.3h7.3v2h-5.3v2.6h4.5v1.9h-4.5V24.5z"/>
	<path class="st1" d="M89.5,23.5c0,1-0.4,1.8-1.1,2.3c-0.7,0.5-1.6,0.8-2.8,0.8c-1.3,0-2.3-0.3-3-1c-0.7-0.7-1.1-1.6-1.1-2.7h2.1
		c0,0.6,0.2,1.1,0.5,1.4c0.3,0.3,0.8,0.5,1.5,0.5c0.5,0,0.9-0.1,1.2-0.3c0.3-0.2,0.5-0.5,0.5-0.9c0-0.4-0.2-0.8-0.5-1
		c-0.3-0.3-0.9-0.5-1.7-0.8c-1-0.4-1.8-0.8-2.4-1.3c-0.6-0.5-0.8-1.2-0.8-2c0-1,0.3-1.8,1-2.3c0.7-0.6,1.5-0.9,2.6-0.9
		c1.2,0,2.1,0.3,2.8,1c0.7,0.7,1,1.5,1,2.4h-2c0-0.4-0.2-0.8-0.5-1.1C86.5,17.2,86,17,85.5,17c-0.4,0-0.8,0.1-1.1,0.3
		c-0.3,0.2-0.4,0.5-0.4,0.9c0,0.4,0.2,0.7,0.5,0.9c0.3,0.2,0.8,0.5,1.6,0.8c1.2,0.4,2,0.9,2.6,1.5C89.2,21.9,89.5,22.6,89.5,23.5z"
		/>
	<path class="st1" d="M98.7,15.3v2h-3.1v9.1h-2.1v-9.1h-3.1v-2H98.7z"/>
	<path class="st1" d="M108.4,26.5h-2.3l-2.2-4.1h-1.6v4.1h-2.1V15.3h4.1c1.1,0,2,0.3,2.7,0.9c0.7,0.6,1,1.5,1,2.5
		c0,0.7-0.2,1.4-0.6,1.9c-0.4,0.6-0.9,1-1.5,1.3L108.4,26.5z M102.3,17.3v3.1h1.9c0.5,0,1-0.1,1.3-0.4s0.5-0.7,0.5-1.1
		c0-0.5-0.2-0.9-0.5-1.1c-0.3-0.3-0.7-0.4-1.3-0.4H102.3z"/>
	<path class="st1" d="M112,24.5h5.4v2h-7.5V15.3h7.3v2H112v2.6h4.5v1.9H112V24.5z"/>
	<path class="st1" d="M126.3,26.5l-0.8-2.4h-4.2l-0.8,2.4h-2.3l3.8-11.1h2.8l3.7,11.1H126.3z M121.9,22.2h3l-1.4-4.5h-0.2
		L121.9,22.2z"/>
	<path class="st1" d="M141.7,15.3v11.1h-2.1v-7.7h-0.2l-2.6,6.7h-2.1l-2.6-6.7h-0.2v7.7h-2.1V15.3h2.8l3,7.5h0.2l3-7.5H141.7z"/>
</g>
</svg>
