<?xml version="1.0" encoding="utf-8"?>
<!-- Generator: Adobe Illustrator 24.0.0, SVG Export Plug-In . SVG Version: 6.00 Build 0)  -->
<svg version="1.1" id="Layer_1" xmlns="http://www.w3.org/2000/svg" xmlns:xlink="http://www.w3.org/1999/xlink" x="0px" y="0px"
	 width="687.4px" height="256.1px" viewBox="0 0 687.4 256.1" style="enable-background:new 0 0 687.4 256.1;" xml:space="preserve"
	>
<style type="text/css">
	.st0{fill:#E30613;}
	.st1{clip-path:url(#SVGID_2_);fill:#E30613;}
	.st2{clip-path:url(#SVGID_4_);fill:#E30613;}
	.st3{clip-path:url(#SVGID_4_);fill:#3AAA35;}
</style>
<polygon class="st0" points="13.9,229.6 13.9,237.2 7.3,237.2 7.3,229.6 0,229.6 0,251.3 7.3,251.3 7.3,243.5 13.9,243.5 
	13.9,251.3 21.2,251.3 21.2,229.6 "/>
<polygon class="st0" points="24.4,229.6 43,229.6 43,235.5 31.6,235.5 31.6,237.7 42.2,237.7 42.2,243 31.6,243 31.6,245.3 
	43.1,245.3 43.1,251.3 24.4,251.3 "/>
<polygon class="st0" points="50.6,235.7 44.2,235.7 44.2,229.6 64.2,229.6 64.2,235.7 57.8,235.7 57.8,251.3 50.6,251.3 "/>
<polygon class="st0" points="73.8,229.6 81,229.6 81,245.1 91.2,245.1 91.2,251.3 73.8,251.3 "/>
<path class="st0" d="M106.5,243.2l-2-5.3l-2,5.3H106.5z M101,229.4h7.2l9.2,21.9h-7.9l-1.1-2.9h-7.6l-1.1,2.9h-7.8L101,229.4z"/>
<path class="st0" d="M132.3,243.2l-2-5.3l-2,5.3H132.3z M126.8,229.4h7.2l9.2,21.9h-7.9l-1.1-2.9h-7.6l-1.1,2.9h-7.8L126.8,229.4z"
	/>
<g>
	<defs>
		<rect id="SVGID_1_" width="687.4" height="256.1"/>
	</defs>
	<clipPath id="SVGID_2_">
		<use xlink:href="#SVGID_1_"  style="overflow:visible;"/>
	</clipPath>
	<path class="st1" d="M154.5,251.8c-1.7,0-3.3-0.3-4.8-0.8c-1.5-0.5-2.8-1.3-3.9-2.3c-1.1-1-2-2.2-2.6-3.6c-0.6-1.4-1-2.9-1-4.6
		v-0.1c0-1.6,0.3-3.1,0.9-4.5c0.6-1.4,1.4-2.6,2.5-3.6c1.1-1,2.3-1.8,3.8-2.4c1.5-0.6,3-0.9,4.8-0.9c1.9,0,3.6,0.3,5.1,0.9
		c1.5,0.6,2.8,1.4,4,2.4l-4.1,4.9c-0.7-0.6-1.5-1.1-2.3-1.4c-0.8-0.3-1.6-0.5-2.5-0.5c-0.7,0-1.4,0.1-2,0.4
		c-0.6,0.3-1.1,0.6-1.6,1.1c-0.4,0.5-0.8,1-1,1.6c-0.2,0.6-0.4,1.3-0.4,2v0.1c0,0.8,0.1,1.5,0.4,2.1c0.3,0.6,0.6,1.2,1.1,1.6
		c0.5,0.5,1,0.8,1.6,1.1c0.6,0.2,1.3,0.4,2.1,0.4c0.6,0,1.1,0,1.5-0.1c0.4-0.1,0.7-0.2,1-0.4v-2.2h-3.7v-4.6h10.5v10
		c-1.2,1-2.6,1.8-4.2,2.4C158.3,251.5,156.5,251.8,154.5,251.8"/>
</g>
<polygon class="st0" points="167,229.6 174.3,229.6 174.3,245.1 184.5,245.1 184.5,251.3 167,251.3 "/>
<path class="st0" d="M199.8,243.2l-2-5.3l-2,5.3H199.8z M194.3,229.4h7.2l9.2,21.9h-7.9l-1.1-2.9H194l-1.1,2.9h-7.8L194.3,229.4z"/>
<polygon class="st0" points="211.7,229.6 218.5,229.6 226.2,239.2 226.2,229.6 233.4,229.6 233.4,251.3 226.9,251.3 218.9,241.3 
	218.9,251.3 211.7,251.3 "/>
<g>
	<defs>
		<rect id="SVGID_3_" width="687.4" height="256.1"/>
	</defs>
	<clipPath id="SVGID_4_">
		<use xlink:href="#SVGID_3_"  style="overflow:visible;"/>
	</clipPath>
	<path class="st2" d="M245.1,245c1.7,0,3-0.4,4-1.1c1-0.7,1.5-1.9,1.5-3.4v-0.1c0-1.6-0.5-2.7-1.5-3.4c-1-0.7-2.3-1.1-4-1.1h-1.2
		v9.1H245.1z M236.6,229.6h8.3c2.1,0,4,0.3,5.7,0.8c1.6,0.5,3,1.2,4.1,2.2c1.1,0.9,1.9,2.1,2.4,3.4c0.5,1.3,0.8,2.8,0.8,4.4v0.1
		c0,1.6-0.3,3.1-0.8,4.4c-0.5,1.3-1.4,2.5-2.5,3.5c-1.1,1-2.5,1.7-4.1,2.3c-1.6,0.5-3.6,0.8-5.8,0.8h-8.1V229.6z"/>
	<path class="st2" d="M197.1,88.7c0,3-1,6.4-2.6,8.9c-0.6,1-2.9,3.6-4.7,4.7c-5.9,4-8.4,5-14.8,7.2l-2.4,0.8
		c0.6-0.8,7.9-9.9,8.3-10.4c2.6-3,6.1-6.7,9.5-9.3c1.7-1.3,3.3-2.3,4.5-2.8c1.2-0.5,1.8-0.5,1.8-0.5h0l0.3,0.1
		c0.1,0.2,0.2,0.5,0.2,1.1V88.7z M147.6,45c0.6-0.8,7.9-9.9,8.3-10.4c2.6-3,6.1-6.7,9.5-9.3c1.7-1.3,3.3-2.3,4.5-2.8
		c1.2-0.5,1.8-0.5,1.8-0.5l0,0l0.3,0.1c0.1,0.2,0.2,0.5,0.2,1.1v0.1c0,3-1,6.4-2.6,8.9c-0.6,1-2.9,3.6-4.7,4.7
		c-5.9,4-8.4,5-14.8,7.2L147.6,45z M82,101.3c-2.7,2.8-5.9,5.4-9.1,7.3c-4,2.3-7.6,4-10.8,4h0h-0.3c-0.5,0-0.9,0-1.1-0.1
		c-0.1-0.3-0.2-0.8-0.3-1.4c0-0.4-0.1-0.7-0.1-1c0-3.1,1.5-7.1,3.5-9.1c2.2-2.1,4-2.8,6.6-2.8c0.6,0,1.2,0.1,1.9,0.2
		C75.1,98.6,78.7,99.7,82,101.3L82,101.3z M106.6,166.4c-2.7,2.8-5.9,5.4-9.1,7.3c-4,2.3-7.5,4-10.8,4h0h-0.3c-0.5,0-0.9,0-1.1-0.1
		c-0.1-0.3-0.2-0.8-0.3-1.4c0-0.4-0.1-0.7-0.1-1c0-3.1,1.4-7.1,3.5-9.1c2.2-2.1,4-2.8,6.6-2.8c0.6,0,1.2,0,1.9,0.2
		C99.7,163.8,103.3,164.9,106.6,166.4 M224.3,89.1c0-0.2,0-0.4,0-0.5c0-4.8-1.5-9.8-5.3-14c-3.7-4.3-9.8-7.5-16.4-8.6
		c-2-0.4-4-0.5-6-0.5c-5.6,0-10.5,1.4-14.6,3.1c-6.1,2.7-10.7,6.2-14.5,9.6c-3.8,3.4-6.8,6.8-9,9.3c-1.8,2.1-3.5,4.2-5.2,6.3
		c-4.3,5.3-8.4,12.1-12.6,18.9c-0.3,0-0.5,0-0.8,0c-6.2,0-11.2-1.4-14.5-3.7c-1.8-1.2-3.7-3.3-5.9-6.3c-1-1.2-2-2.6-3.1-4.1
		c0,0,4.8-7.7,9.6-16.5c2.3-4.1,5.4-9.5,7.7-13.5c4.5-0.4,9.6-1,15.9-1.9c7.2-1,19.2-5.4,26.3-9.1c8-4.2,14.4-9.5,18-15.4
		c3.6-5.9,5.3-12.2,5.4-18.3c0-0.2,0-0.4,0-0.5c0-4.8-1.5-9.8-5.3-14.1c-3.7-4.3-9.8-7.5-16.4-8.6c-2-0.4-4-0.5-6-0.5
		c-5.6,0-10.5,1.4-14.6,3.1c-6.1,2.7-10.7,6.2-14.5,9.6c-3.8,3.4-6.8,6.8-9,9.3c-1.8,2.1-3.5,4.2-5.2,6.3
		c-4.3,5.3-8.4,12.1-12.6,18.9c-6.2,0-11.2-1.4-14.5-3.7c-1.8-1.2-3.7-3.3-6-6.3L75.6,53.1c2.1,2.4,4.6,4.8,7.9,7.2
		c6.1,4.2,13.1,6.7,20.3,8c-0.6,1.1-7.8,14.1-7.8,14.1c-0.2-0.1-0.5-0.2-0.7-0.3c-5.6-2.5-11.5-4.4-17.6-5.4
		c-2.4-0.4-4.9-0.6-7.3-0.6c-11.6,0-21.6,4.8-27.8,11c-6.2,6.3-9.5,14.1-9.6,22.3c0,0.9,0.1,1.9,0.1,2.8c0.5,5.4,2.8,11.1,8.3,15.5
		c5.5,4.4,13.2,7,20.4,7h0.5l0.1,0c10.3-0.1,19.3-4.1,26.3-8.2c4.1-2.4,7.8-5.2,10.9-8c2.1,2.4,4.6,4.8,7.9,7.2
		c6.3,4.4,13.6,6.9,21.1,8.2c-2.6,4.7-5.3,9.4-8.1,13.8c-0.2-0.1-0.5-0.2-0.7-0.3c-5.6-2.5-11.5-4.4-17.6-5.4
		c-2.4-0.4-4.9-0.6-7.3-0.6c-11.6,0-21.6,4.8-27.8,11c-6.2,6.3-9.5,14.1-9.6,22.3c0,0.9,0,1.9,0.1,2.8c0.5,5.4,2.8,11.1,8.3,15.5
		c5.5,4.4,13.2,7,20.4,7h0.5h0.1c10.3-0.1,19.3-4.1,26.3-8.2c4.1-2.4,7.8-5.2,10.9-8c2.1,2.4,4.6,4.8,7.9,7.2
		c9.4,6.5,21.1,9.1,32.3,9.1c10.8,0,21.4-2.3,30.8-6.3c9.4-4.1,17.8-10,22.9-18.2c3.3-5.3,5.7-11,5.7-17.2
		c0-10.4-5.8-25.7-25.2-25.7c-11.3,0-25.2,7.5-30.9,16.8l17.9,12.8c3.6-7.5,10.8-7,11-3.9c0,1.7-0.5,3.5-2.7,7.2
		c-1.9,3.1-6,6.4-11.5,8.7c-5.4,2.4-12.1,3.7-17.9,3.7c-6.2,0-11.2-1.4-14.5-3.7c-1.8-1.2-3.7-3.3-6-6.3c-1-1.2-2-2.6-3.1-4.1
		c6.1-8.9,17.1-28.8,17.6-29.8c4.5-0.4,9.6-1,15.9-1.9c7.2-1,19.2-5.4,26.3-9.1c8-4.2,14.4-9.5,18-15.4
		C222.5,101.5,224.2,95.2,224.3,89.1"/>
	<path class="st3" d="M366,121.8c0.6,0.1,1,0.1,1.4,0.1c3,0,4.7-2,4.7-5.4v-8.1c0-4-2.3-6.4-6.1-7.1c-5.1-1.3-10.8-2.1-15.5-2.1
		h-5.1c-21.6,0-38.2,10.5-38.2,31.1c0,18.3,11.1,27.3,24.5,31.1l7.7,2.1c7.5,2.1,12.2,5,12.2,11.7c0,10.1-6.5,12.2-14.9,12.2h-2.8
		c-7.1,0-14.2-1.4-19.9-3c-0.6-0.1-1.1-0.3-1.7-0.3c-2.8,0-4.4,2-4.4,5.4v8.2c0,3.8,2.1,6.1,6.1,7.1c6.5,1.8,13.6,3.1,19.9,3.1h2.8
		c23.3,0,40-10.1,40-33.4c0-17.8-8.4-25.9-25-31l-7.1-2.3c-8.7-2.6-12.2-5-12.2-11.7c0-7.3,5-10,13.2-10h5.1
		C354.9,119.8,360.9,121,366,121.8 M384.5,200.9c0,0.6-0.1,1.1-0.1,1.7c0,2.7,2,4.4,5.4,4.4h12.4c3.8,0,6-2.3,7-6.1
		c0.7-5.4,1.6-11.2,2.6-17.2h27.9c0.9,6,1.7,11.8,2.4,17.2c0.9,3.8,3.1,6.1,7.1,6.1h14.4c3.4,0,5.3-1.7,5.3-4.5c0-0.4,0-1-0.1-1.6
		c-7.1-41.1-17.6-81.6-26.4-100.5h-31.7C402.3,118.5,392.2,155.5,384.5,200.9 M426,119.8c3.4,9.4,7.3,26,10.4,43.8h-21.2
		C418.6,145.6,422.6,128.6,426,119.8 M533.3,207c3.8,0,6.1-2.3,6.1-6.1v-8.8c0-4-2.3-6.1-6.1-6.1h-17.8c-7.8,0-10.1-2.3-10.1-11.2
		v-68.3c0-3.8-2.1-6.1-6.1-6.1h-11.7c-3.8,0-6.1,2.3-6.1,6.1v72.8c0,17.8,9,27.7,25.6,27.7H533.3z M604.4,207c3.8,0,6.1-2.3,6.1-6.1
		v-8.8c0-4-2.3-6.1-6.1-6.1h-17.8c-7.8,0-10.1-2.3-10.1-11.2v-68.3c0-3.8-2.1-6.1-6.1-6.1h-11.7c-3.8,0-6.1,2.3-6.1,6.1v72.8
		c0,17.8,9,27.7,25.6,27.7H604.4z M686.7,106.5c0.6-1.1,0.7-2,0.7-2.8c0-2.1-1.8-3.3-4.8-3.3h-11.4c-3.8,0-6.4,2.1-8,6.1l-15.9,37.8
		l-15.2-37.8c-1.7-4-4.1-6.1-8.1-6.1h-13.1c-3,0-4.8,1.1-4.8,3.3c0,0.9,0.3,1.8,0.7,2.8l27.3,60.6v33.8c0,3.8,2.1,6.1,6.1,6.1h11.7
		c3.8,0,6.1-2.3,6.1-6.1V167L686.7,106.5z"/>
	<path class="st3" d="M314.3,250.4c7.6,0,10.5-4.3,10.5-10.2v-2.9c0-5.7-3.2-9.7-10.5-9.7h-5.8c-0.8,0-1.3,0.5-1.3,1.3v20.2
		c0,0.8,0.5,1.3,1.3,1.3H314.3z M312.3,245.9v-13.8h2.2c3.6,0,5.1,2.2,5.1,5.7v1.9c0,3.8-1.5,6.2-5.1,6.2H312.3z M341.6,235.1
		c0-0.8-0.5-1.3-1.3-1.3h-4.6c-5,0-8.5,2.9-8.5,8.3v3.2c0,3.8,1.8,5.3,4.3,5.3c1.6,0,2.7-0.4,4.6-1.9l0.5-0.4v0.7
		c0,0.8,0.5,1.3,1.3,1.3h2.5c0.8,0,1.3-0.5,1.3-1.3V235.1z M333.3,246.1c-0.8,0-1.1-0.5-1.1-1.9v-2.4c0-3.1,1.2-3.9,3.6-3.9h0.7v6.3
		l-0.5,0.4C334.4,245.8,333.9,246.1,333.3,246.1 M359.4,238.5c0-3.4-1.9-5-4.1-5c-1.7,0-2.7,0.3-4.3,1.5l-0.9,0.8v-0.8
		c0-0.8-0.5-1.3-1.3-1.3h-2.5c-0.9,0-1.3,0.5-1.3,1.3v14c0,0.8,0.5,1.3,1.3,1.3h2.5c0.8,0,1.3-0.5,1.3-1.3V240l0.5-0.4
		c1.6-1.3,2.2-1.5,2.9-1.5c0.6,0,0.9,0.3,0.9,1.9v9.1c0,0.8,0.5,1.3,1.3,1.3h2.5c0.9,0,1.3-0.5,1.3-1.3V238.5z M363.4,250.3
		c1.1,0.2,2.3,0.3,3.7,0.3c4.3,0,7.5-1.3,7.5-5.5c0-3.1-1.9-4.4-4.4-5l-1.6-0.4c-0.8-0.2-1.3-0.5-1.3-1.2c0-0.7,1.3-0.9,2.4-0.9
		c0.7,0,1.2,0.1,1.8,0.1c0.4,0.1,1.2,0.2,1.5,0.2c0.7,0,1-0.5,1-1.2v-1.6c0-0.8-0.5-1.3-1.3-1.5c-0.9-0.2-1.8-0.2-2.9-0.2
		c-4.5,0-7.6,1.8-7.6,5.3c0,2.2,0.8,3.9,4,4.7l1.9,0.5c0.8,0.2,1.3,0.4,1.3,1.2c0,0.8-0.8,1.2-2.4,1.2c-1,0-1.9-0.1-2.9-0.2
		c-0.3,0-0.8-0.2-1.1-0.2c-0.6,0-1,0.5-1,1.2v1.6C362.1,249.7,362.6,250.2,363.4,250.3 M382.6,244.9c-0.6,0-0.9-0.5-0.9-1.6v-1.4
		c0-2.6,1.1-3.9,3.3-3.9h0.9v5.7l-1.1,0.5C383.8,244.8,383.4,244.9,382.6,244.9 M391.1,235.1c0-0.8-0.5-1.3-1.3-1.3h-5.2
		c-4.6,0-8,3.1-8,8.1v2.1c0,3.6,1.5,5.5,4.5,5.5c1.5,0,2.7-0.6,4-1.4l0.9-0.5v0.3c0,3.4-1.3,4.2-4.7,4.2h-1.6
		c-0.9,0-1.3,0.5-1.3,1.3v1.6c0,0.8,0.5,1.3,1.3,1.3h2.8c5.3,0,8.6-3,8.6-8.1V235.1z M398.8,240.8v-0.4c0-2,0.7-2.7,2.5-2.7
		c1.2,0,1.7,0.5,1.7,1.6c0,1.1-0.7,1.5-1.8,1.5H398.8z M404.9,250c0.9-0.2,1.3-0.7,1.3-1.5v-1.4c0-0.7-0.3-1.1-0.9-1.1
		c-0.1,0-0.2,0-0.4,0.1c-0.9,0.2-1.9,0.5-3.4,0.5c-2,0-2.7-0.7-2.7-2.4v-0.2h2.7c3.6,0,6-1.2,6-5c0-3.7-2.2-5.3-6.3-5.3
		c-4.5,0-7.6,2.4-7.6,7.1v3.2c0,4.9,2.7,6.8,7.4,6.8C402.2,250.6,403.6,250.4,404.9,250 M409.1,249.1c0,0.8,0.5,1.3,1.3,1.3h10
		c0.8,0,1.3-0.5,1.3-1.3v-1.5c0-0.8-0.5-1.3-1.3-1.3h-4.9c2-2.4,4.8-6.7,5.4-8.3c0.3-0.7,0.5-1.7,0.5-2.5v-0.4
		c0-0.8-0.5-1.3-1.3-1.3h-9.5c-0.8,0-1.3,0.5-1.3,1.3v1.6c0,0.8,0.5,1.3,1.3,1.3h5c-1.1,2.1-3.8,6.2-5.9,8.7
		c-0.5,0.6-0.6,1.3-0.6,2.1V249.1z M428.4,240.8v-0.4c0-2,0.7-2.7,2.5-2.7c1.2,0,1.7,0.5,1.7,1.6c0,1.1-0.7,1.5-1.8,1.5H428.4z
		 M434.6,250c0.8-0.2,1.3-0.7,1.3-1.5v-1.4c0-0.7-0.3-1.1-0.9-1.1c-0.1,0-0.2,0-0.4,0.1c-0.9,0.2-1.9,0.5-3.4,0.5
		c-2,0-2.7-0.7-2.7-2.4v-0.2h2.7c3.6,0,6-1.2,6-5c0-3.7-2.2-5.3-6.3-5.3c-4.5,0-7.6,2.4-7.6,7.1v3.2c0,4.9,2.7,6.8,7.4,6.8
		C431.9,250.6,433.3,250.4,434.6,250 M440,231.8v17.3c0,0.8,0.5,1.3,1.3,1.3h2.5c0.9,0,1.3-0.5,1.3-1.3v-20.2c0-0.8-0.5-1.3-1.3-1.3
		h-4.4c-0.8,0-1.3,0.5-1.3,1.3v1.6c0,0.8,0.5,1.3,1.3,1.3H440z M449.1,250.3c1.1,0.2,2.3,0.3,3.7,0.3c4.3,0,7.5-1.3,7.5-5.5
		c0-3.1-1.9-4.4-4.4-5l-1.5-0.4c-0.8-0.2-1.3-0.5-1.3-1.2c0-0.7,1.3-0.9,2.4-0.9c0.7,0,1.2,0.1,1.8,0.1c0.4,0.1,1.2,0.2,1.5,0.2
		c0.7,0,1-0.5,1-1.2v-1.6c0-0.8-0.5-1.3-1.3-1.5c-0.9-0.2-1.8-0.2-2.9-0.2c-4.5,0-7.6,1.8-7.6,5.3c0,2.2,0.8,3.9,4,4.7l1.9,0.5
		c0.8,0.2,1.3,0.4,1.3,1.2c0,0.8-0.8,1.2-2.4,1.2c-1,0-1.9-0.1-2.9-0.2c-0.3,0-0.8-0.2-1.1-0.2c-0.6,0-1,0.5-1,1.2v1.6
		C447.8,249.7,448.3,250.2,449.1,250.3 M473.4,250.1c0.9-0.2,1.3-0.7,1.3-1.5v-1.5c0-0.7-0.3-1.1-0.9-1.1c-0.1,0-0.2,0-0.4,0
		c-1.1,0.3-2.2,0.5-3.3,0.5c-2.1,0-2.9-1.1-2.9-3.2v-2.7c0-1.9,0.7-2.9,2.2-2.9c0.6,0,0.9,0.1,1.2,0.2v1.2c0,0.8,0.5,1.3,1.3,1.3
		h1.5c0.9,0,1.3-0.5,1.3-1.3v-4.3c-1.4-0.8-3.1-1.3-5.2-1.3c-4.4,0-7.5,2.6-7.5,7.1v3.2c0,4.9,3.1,6.8,7.7,6.8
		C471,250.6,472.3,250.4,473.4,250.1 M482.9,240l0.5-0.4c1.6-1.3,2.2-1.5,2.9-1.5c0.6,0,0.9,0.3,0.9,1.9v9.1c0,0.8,0.5,1.3,1.3,1.3
		h2.5c0.9,0,1.3-0.5,1.3-1.3v-10.6c0-3.4-1.9-5-4.1-5c-1.7,0-2.7,0.4-4.3,1.5l-0.9,0.7v-6.9c0-0.8-0.5-1.3-1.3-1.3h-2.5
		c-0.9,0-1.3,0.5-1.3,1.3v20.2c0,0.8,0.5,1.3,1.3,1.3h2.5c0.8,0,1.3-0.5,1.3-1.3V240z M509.5,235.1c0-0.8-0.5-1.3-1.3-1.3h-4.6
		c-5,0-8.5,2.9-8.5,8.3v3.2c0,3.8,1.8,5.3,4.3,5.3c1.6,0,2.7-0.4,4.6-1.9l0.5-0.4v0.7c0,0.8,0.5,1.3,1.3,1.3h2.5
		c0.8,0,1.3-0.5,1.3-1.3V235.1z M501.2,246.1c-0.8,0-1.1-0.5-1.1-1.9v-2.4c0-3.1,1.2-3.9,3.6-3.9h0.7v6.3l-0.5,0.4
		C502.4,245.8,501.8,246.1,501.2,246.1 M517.9,235.1c0-0.8-0.5-1.3-1.3-1.3h-2.5c-0.9,0-1.3,0.5-1.3,1.3v19.7c0,0.8,0.5,1.3,1.3,1.3
		h2.5c0.8,0,1.3-0.5,1.3-1.3v-4.4h0.8c5,0,8.5-2.9,8.5-8.3v-3.2c0-3.8-1.8-5.3-4.3-5.3c-1.7,0-2.8,0.3-4.6,1.9l-0.5,0.4V235.1z
		 M517.9,246.2V240l0.5-0.4c1.6-1.2,2.2-1.5,2.7-1.5c0.8,0,1.1,0.5,1.1,1.9v2.4c0,3.1-1.2,3.9-3.6,3.9H517.9z M549.9,236.3l-4.8-8
		c-0.3-0.5-0.7-0.7-1.5-0.7H541c-0.8,0-1.3,0.5-1.3,1.3v20.2c0,0.8,0.5,1.3,1.3,1.3h2.5c0.9,0,1.3-0.5,1.3-1.3V236l3.9,6.3
		c0.2,0.4,0.5,0.5,0.9,0.5h0.5c0.5,0,0.7-0.1,0.9-0.5l4-6.4v13.2c0,0.8,0.5,1.3,1.3,1.3h2.5c0.9,0,1.3-0.5,1.3-1.3v-20.2
		c0-0.8-0.5-1.3-1.3-1.3h-2.4c-0.7,0-1.1,0.2-1.5,0.7L549.9,236.3z M577.8,235.1c0-0.8-0.5-1.3-1.3-1.3h-4.6c-5,0-8.5,2.9-8.5,8.3
		v3.2c0,3.8,1.8,5.3,4.3,5.3c1.6,0,2.7-0.4,4.6-1.9l0.5-0.4v0.7c0,0.8,0.5,1.3,1.3,1.3h2.5c0.8,0,1.3-0.5,1.3-1.3V235.1z
		 M569.5,246.1c-0.8,0-1.1-0.5-1.1-1.9v-2.4c0-3.1,1.2-3.9,3.6-3.9h0.7v6.3l-0.5,0.4C570.6,245.8,570.1,246.1,569.5,246.1
		 M595,235.1c0-0.8-0.5-1.3-1.3-1.3H589c-5,0-8.5,2.9-8.5,8.3v3.2c0,3.8,1.8,5.3,4.3,5.3c1.6,0,2.7-0.4,4.6-1.9l0.5-0.4v0.7
		c0,0.8,0.5,1.3,1.3,1.3h2.5c0.8,0,1.3-0.5,1.3-1.3V235.1z M586.7,246.1c-0.8,0-1.1-0.5-1.1-1.9v-2.4c0-3.1,1.2-3.9,3.6-3.9h0.7v6.3
		l-0.5,0.4C587.8,245.8,587.3,246.1,586.7,246.1 M599,250.3c1.1,0.2,2.3,0.3,3.7,0.3c4.3,0,7.5-1.3,7.5-5.5c0-3.1-1.9-4.4-4.4-5
		l-1.5-0.4c-0.8-0.2-1.3-0.5-1.3-1.2c0-0.7,1.3-0.9,2.4-0.9c0.7,0,1.2,0.1,1.8,0.1c0.4,0.1,1.2,0.2,1.5,0.2c0.7,0,1-0.5,1-1.2v-1.6
		c0-0.8-0.5-1.3-1.3-1.5c-0.9-0.2-1.8-0.2-2.9-0.2c-4.5,0-7.6,1.8-7.6,5.3c0,2.2,0.8,3.9,4,4.7l1.9,0.5c0.8,0.2,1.3,0.4,1.3,1.2
		c0,0.8-0.8,1.2-2.4,1.2c-1,0-1.9-0.1-2.9-0.2c-0.3,0-0.8-0.2-1.1-0.2c-0.6,0-1,0.5-1,1.2v1.6C597.7,249.7,598.2,250.2,599,250.3
		 M620.7,237.9c0.9,0,1.3-0.5,1.3-1.3v-1.6c0-0.8-0.5-1.3-1.3-1.3h-2.4v-3c0-0.8-0.5-1.3-1.3-1.3h-2.5c-0.8,0-1.3,0.5-1.3,1.3v3
		h-0.8c-0.8,0-1.3,0.5-1.3,1.3v1.6c0,0.8,0.5,1.3,1.3,1.3h0.8v6c0,4.3,2.4,6.4,6.7,6.4h0.8c0.9,0,1.3-0.5,1.3-1.3v-1.5
		c0-0.8-0.5-1.3-1.3-1.3c-1.8,0-2.4-1-2.4-3.4v-4.9H620.7z M633.1,233.5c-1.2,0-2.3,0.6-3,1.5l-0.7,0.9v-0.9c0-0.8-0.5-1.3-1.3-1.3
		h-2.5c-0.8,0-1.3,0.5-1.3,1.3v14c0,0.8,0.5,1.3,1.3,1.3h2.5c0.8,0,1.3-0.5,1.3-1.3V240c1.4-1.6,2.5-2,3.5-2h0.2
		c0.8,0,1.3-0.5,1.3-1.3v-1.8C634.4,234,633.9,233.5,633.1,233.5 M636.8,237.9v11.1c0,0.8,0.5,1.3,1.3,1.3h2.5
		c0.9,0,1.3-0.5,1.3-1.3v-14c0-0.8-0.5-1.3-1.3-1.3h-4.4c-0.8,0-1.3,0.5-1.3,1.3v1.6c0,0.8,0.5,1.3,1.3,1.3H636.8z M640.6,231.9
		c0.9,0,1.3-0.5,1.3-1.3v-1.7c0-0.8-0.5-1.3-1.3-1.3h-2.5c-0.8,0-1.3,0.5-1.3,1.3v1.7c0,0.8,0.5,1.3,1.3,1.3H640.6z M656,250.1
		c0.9-0.2,1.3-0.7,1.3-1.5v-1.5c0-0.7-0.3-1.1-0.9-1.1c-0.1,0-0.2,0-0.4,0c-1.1,0.3-2.2,0.5-3.3,0.5c-2.1,0-2.9-1.1-2.9-3.2v-2.7
		c0-1.9,0.7-2.9,2.2-2.9c0.6,0,0.9,0.1,1.2,0.2v1.2c0,0.8,0.5,1.3,1.3,1.3h1.5c0.8,0,1.3-0.5,1.3-1.3v-4.3c-1.4-0.8-3.1-1.3-5.2-1.3
		c-4.4,0-7.5,2.6-7.5,7.1v3.2c0,4.9,3.1,6.8,7.7,6.8C653.6,250.6,654.9,250.4,656,250.1 M665.5,240l0.5-0.4c1.6-1.3,2.2-1.5,2.9-1.5
		c0.6,0,0.9,0.3,0.9,1.9v9.1c0,0.8,0.5,1.3,1.3,1.3h2.5c0.8,0,1.3-0.5,1.3-1.3v-10.6c0-3.4-1.9-5-4.1-5c-1.7,0-2.7,0.4-4.3,1.5
		l-0.9,0.7v-6.9c0-0.8-0.5-1.3-1.3-1.3h-2.5c-0.8,0-1.3,0.5-1.3,1.3v20.2c0,0.8,0.5,1.3,1.3,1.3h2.5c0.8,0,1.3-0.5,1.3-1.3V240z
		 M686.1,237.9c0.8,0,1.3-0.5,1.3-1.3v-1.6c0-0.8-0.5-1.3-1.3-1.3h-2.4v-3c0-0.8-0.5-1.3-1.3-1.3h-2.5c-0.8,0-1.3,0.5-1.3,1.3v3
		h-0.8c-0.8,0-1.3,0.5-1.3,1.3v1.6c0,0.8,0.5,1.3,1.3,1.3h0.8v6c0,4.3,2.4,6.4,6.7,6.4h0.8c0.8,0,1.3-0.5,1.3-1.3v-1.5
		c0-0.8-0.5-1.3-1.3-1.3c-1.8,0-2.4-1-2.4-3.4v-4.9H686.1z"/>
</g>
</svg>
