<?xml version="1.0" encoding="utf-8"?>
<!-- Generator: Adobe Illustrator 23.0.2, SVG Export Plug-In . SVG Version: 6.00 Build 0)  -->
<svg version="1.1" id="Laag_1" xmlns="http://www.w3.org/2000/svg" xmlns:xlink="http://www.w3.org/1999/xlink" x="0px" y="0px"
	 width="124.1px" height="45.7px" viewBox="0 0 124.1 45.7" style="enable-background:new 0 0 124.1 45.7;" xml:space="preserve">
<style type="text/css">
	.st0{fill:#FFFFFF;}
</style>
<g>
	<path class="st0" d="M11.4,10.2c-0.1,0.3-0.2,0.6-0.3,1.1s-0.2,0.9-0.3,1.3c-0.1,0.5-0.3,1.1-0.4,1.6h-0.1
		c-0.1-0.6-0.3-1.1-0.4-1.6c-0.1-0.4-0.2-0.9-0.3-1.3c-0.1-0.5-0.2-0.8-0.3-1.1L7.2,2.4H1.2v17.9h4v-9c0-0.2,0-0.5,0-0.9
		c0-0.4,0-0.8,0-1.2c0-0.5,0-1,0-1.5h0.1c0.1,0.5,0.2,1,0.3,1.4c0.1,0.4,0.2,0.8,0.3,1.1C5.9,10.6,5.9,10.9,6,11l2.6,9.2h3.7
		l2.6-9.2c0.1-0.2,0.1-0.4,0.2-0.8s0.2-0.7,0.3-1.1c0.1-0.4,0.2-0.9,0.4-1.4h0.1c0,0.6,0,1.1-0.1,1.5c0,0.4,0,0.8,0,1.2
		c0,0.4,0,0.7,0,0.9v9h4.1V2.4h-6L11.4,10.2z"/>
	<path class="st0" d="M33.4,18.2v-6.4c0-0.8-0.1-1.5-0.4-2.1c-0.3-0.6-0.7-1.1-1.2-1.5c-0.5-0.3-1-0.6-1.7-0.8
		c-0.7-0.2-1.5-0.3-2.4-0.3c-1,0-1.8,0.1-2.5,0.3c-0.7,0.2-1.3,0.6-1.8,0.9s-0.8,0.9-1.1,1.4s-0.4,1.1-0.4,1.7h3.7
		c0.1-0.5,0.3-0.9,0.6-1.2s0.8-0.4,1.5-0.4c0.6,0,1.1,0.1,1.3,0.4s0.4,0.6,0.4,1c0,0.4-0.2,0.8-0.7,0.9s-1.3,0.4-2.5,0.5
		c-0.7,0.1-1.3,0.2-1.9,0.4c-0.6,0.2-1.1,0.4-1.6,0.7c-0.5,0.3-0.8,0.7-1.1,1.2s-0.4,1.1-0.4,1.8c0,0.6,0.1,1.2,0.3,1.7
		c0.2,0.5,0.5,0.9,0.9,1.2c0.4,0.3,0.9,0.6,1.4,0.8c0.5,0.2,1.1,0.2,1.8,0.2c1,0,1.8-0.2,2.3-0.5c0.6-0.3,1.1-0.7,1.5-1.3h0.1
		c0,0.3,0.1,0.6,0.2,0.9s0.1,0.4,0.2,0.6h4v-0.2c-0.2-0.1-0.3-0.3-0.4-0.6C33.4,19.2,33.4,18.8,33.4,18.2z M29.5,15.7
		c0,0.7-0.2,1.2-0.7,1.7c-0.5,0.4-1.1,0.6-1.9,0.6c-0.5,0-0.9-0.1-1.3-0.3s-0.5-0.6-0.5-1.1c0-0.5,0.2-0.9,0.5-1.1s0.9-0.5,1.7-0.6
		c0.4-0.1,0.8-0.2,1.2-0.3c0.4-0.1,0.7-0.2,0.9-0.4C29.5,14.2,29.5,15.7,29.5,15.7z"/>
	<path class="st0" d="M46.6,8.4c-0.4-0.4-0.8-0.8-1.4-1S44,7.1,43.3,7.1c-0.9,0-1.7,0.2-2.3,0.5s-1.2,0.9-1.7,1.6h-0.1V7.4h-3.9
		v12.8h4.1v-7.1c0-0.8,0.2-1.4,0.6-1.9s1-0.8,1.6-0.8c0.7,0,1.2,0.2,1.5,0.6s0.5,1,0.5,1.6v7.5h4.1v-8.3c0-0.7-0.1-1.4-0.3-2
		C47.2,9.4,47,8.9,46.6,8.4z"/>
	<path class="st0" d="M55.5,17.1c-0.2,0-0.4,0-0.6,0h-0.7V17c0.2-0.2,0.3-0.4,0.5-0.5l0.8-0.8l4.8-5.3v-3H49.8v3.1h4h0.9
		c0.2,0,0.4,0,0.7,0v0.1c-0.2,0.1-0.3,0.3-0.4,0.4c-0.1,0.1-0.2,0.3-0.4,0.4s-0.2,0.2-0.3,0.3l-5.1,5.5v3h11.5v-3.1h-4.6
		C55.9,17.1,55.7,17.1,55.5,17.1z"/>
	<path class="st0" d="M73.1,9C72.5,8.4,71.8,8,71,7.6c-0.8-0.3-1.8-0.5-2.8-0.5s-2,0.2-2.8,0.5S63.8,8.4,63.2,9s-1.1,1.3-1.4,2.2
		c-0.3,0.8-0.5,1.7-0.5,2.7s0.2,1.9,0.5,2.7c0.3,0.8,0.8,1.5,1.4,2.1s1.3,1.1,2.2,1.4s1.8,0.5,2.8,0.5s2-0.2,2.8-0.5
		s1.6-0.8,2.2-1.4c0.6-0.6,1.1-1.3,1.4-2.1c0.3-0.8,0.5-1.7,0.5-2.7s-0.2-1.9-0.5-2.7C74.2,10.4,73.7,9.6,73.1,9z M70.2,16.7
		c-0.5,0.7-1.1,1.1-2,1.1s-1.6-0.4-2-1.1c-0.4-0.7-0.7-1.6-0.7-2.8s0.2-2.1,0.7-2.8c0.4-0.7,1.1-1.1,2-1.1c0.9,0,1.6,0.4,2,1.1
		s0.7,1.7,0.7,2.8C70.8,15,70.6,16,70.2,16.7z"/>
	<path class="st0" d="M87.6,8.4c-0.4-0.4-0.8-0.8-1.4-1S85,7.1,84.3,7.1c-0.9,0-1.7,0.2-2.3,0.5s-1.2,0.9-1.7,1.6h-0.1V7.4h-3.9
		v12.8h4.1v-7.1c0-0.8,0.2-1.4,0.6-1.9s1-0.8,1.6-0.8c0.7,0,1.2,0.2,1.5,0.6s0.5,1,0.5,1.6v7.5h4.1v-8.3c0-0.7-0.1-1.4-0.3-2
		C88.2,9.4,88,8.9,87.6,8.4z"/>
	<rect x="90.6" y="7.4" class="st0" width="4.1" height="12.8"/>
	<rect x="90.6" y="2.4" class="st0" width="4.1" height="3.3"/>
	<rect x="1.2" y="32.5" class="st0" width="4.1" height="12.8"/>
	<rect x="1.2" y="27.4" class="st0" width="4.1" height="3.3"/>
	<path class="st0" d="M18.5,33.5c-0.4-0.4-0.8-0.8-1.4-1c-0.6-0.2-1.2-0.4-1.9-0.4c-0.9,0-1.7,0.2-2.3,0.5s-1.2,0.9-1.7,1.6h-0.1
		v-1.8H7.2v12.8h4.1v-7.1c0-0.8,0.2-1.5,0.6-2s1-0.8,1.6-0.8c0.7,0,1.2,0.2,1.5,0.6c0.3,0.4,0.5,1,0.5,1.7v7.5h4.1V37
		c0-0.7-0.1-1.4-0.3-2C19.1,34.4,18.9,33.9,18.5,33.5z"/>
	<polygon class="st0" points="36.3,34.2 30.1,34.2 30.1,27.4 25.6,27.4 25.6,45.3 30.1,45.3 30.1,37.9 36.3,37.9 36.3,45.3 
		40.8,45.3 40.8,27.4 36.3,27.4 	"/>
	<path class="st0" d="M54.2,34.1c-0.6-0.6-1.3-1.1-2.1-1.4s-1.8-0.5-2.8-0.5s-2,0.2-2.8,0.5s-1.6,0.8-2.2,1.4
		c-0.6,0.6-1.1,1.3-1.4,2.1c-0.3,0.8-0.5,1.7-0.5,2.7s0.2,1.9,0.5,2.7c0.3,0.8,0.8,1.5,1.4,2.2c0.6,0.6,1.3,1.1,2.2,1.4
		s1.8,0.5,2.8,0.5s2-0.2,2.8-0.5s1.6-0.8,2.1-1.4c0.6-0.6,1.1-1.3,1.4-2.2c0.3-0.8,0.5-1.7,0.5-2.7s-0.2-1.9-0.5-2.7
		C55.2,35.4,54.8,34.7,54.2,34.1z M51.2,41.7c-0.5,0.7-1.1,1.1-2,1.1s-1.6-0.4-2-1.1s-0.7-1.6-0.7-2.8s0.2-2.1,0.7-2.8
		c0.4-0.7,1.1-1.1,2-1.1c0.9,0,1.6,0.4,2,1.1c0.5,0.7,0.7,1.7,0.7,2.8C51.9,40.1,51.7,41,51.2,41.7z"/>
	<rect x="57.5" y="27.4" class="st0" width="4.1" height="17.9"/>
	<rect x="63.6" y="27.4" class="st0" width="4.1" height="17.9"/>
	<path class="st0" d="M81.2,43.3v-6.4c0-0.8-0.1-1.5-0.4-2.1c-0.3-0.6-0.7-1.1-1.2-1.5c-0.5-0.3-1-0.6-1.7-0.8
		c-0.7-0.2-1.5-0.3-2.4-0.3s-1.8,0.1-2.5,0.4c-0.7,0.2-1.3,0.5-1.8,0.9c-0.5,0.4-0.8,0.9-1.1,1.4s-0.4,1.1-0.4,1.7h3.8
		c0.1-0.5,0.3-0.9,0.6-1.2c0.3-0.3,0.8-0.4,1.5-0.4c0.6,0,1.1,0.1,1.3,0.4s0.4,0.6,0.4,1c0,0.4-0.2,0.8-0.7,0.9s-1.3,0.3-2.5,0.5
		c-0.7,0.1-1.3,0.2-1.9,0.4c-0.6,0.2-1.1,0.4-1.6,0.7c-0.4,0.3-0.8,0.7-1.1,1.2s-0.4,1.1-0.4,1.8c0,0.6,0.1,1.2,0.3,1.7
		c0.2,0.5,0.5,0.9,0.9,1.2c0.4,0.3,0.9,0.6,1.4,0.8c0.5,0.2,1.1,0.2,1.8,0.2c1,0,1.8-0.2,2.3-0.5c0.6-0.3,1.1-0.7,1.5-1.3h0.1
		c0.1,0.3,0.1,0.6,0.2,0.9c0.1,0.2,0.1,0.4,0.2,0.6h3.9v-0.2c-0.2-0.1-0.3-0.3-0.4-0.6C81.3,44.2,81.2,43.8,81.2,43.3z M77.3,40.7
		c0,0.7-0.2,1.2-0.7,1.7c-0.5,0.4-1.1,0.6-1.9,0.6c-0.5,0-0.9-0.1-1.3-0.3c-0.3-0.2-0.5-0.6-0.5-1.1c0-0.5,0.2-0.9,0.5-1.1
		c0.4-0.2,0.9-0.5,1.7-0.6c0.4-0.1,0.8-0.2,1.2-0.3s0.7-0.2,0.9-0.4V40.7z"/>
	<path class="st0" d="M94.4,33.5c-0.4-0.4-0.9-0.8-1.4-1c-0.6-0.2-1.2-0.4-1.9-0.4c-0.9,0-1.7,0.2-2.3,0.5s-1.2,0.9-1.7,1.6h-0.1
		v-1.8h-3.9l0,12.8h4.1v-7.1c0-0.8,0.2-1.5,0.6-2s1-0.8,1.6-0.8c0.7,0,1.2,0.2,1.5,0.6c0.3,0.4,0.5,1,0.5,1.7v7.5h4.1V37
		c0-0.7-0.1-1.4-0.3-2C95.1,34.4,94.8,33.9,94.4,33.5z"/>
	<path class="st0" d="M106.1,33.9L106.1,33.9c-0.5-0.5-0.9-1-1.5-1.3c-0.6-0.3-1.3-0.5-2.2-0.5c-0.8,0-1.6,0.2-2.3,0.5
		c-0.7,0.3-1.3,0.8-1.8,1.4c-0.5,0.6-0.9,1.3-1.1,2.1c-0.3,0.8-0.4,1.8-0.4,2.8c0,1.1,0.1,2,0.4,2.9c0.3,0.9,0.7,1.6,1.2,2.1
		c0.5,0.6,1.1,1,1.8,1.3c0.7,0.3,1.4,0.5,2.2,0.5c0.9,0,1.6-0.2,2.2-0.5s1.2-0.9,1.5-1.6h0.1v1.7h3.9V27.4h-4.1V33.9z M105.5,41.5
		c-0.5,0.7-1.1,1-2,1c-0.8,0-1.4-0.3-1.9-1c-0.4-0.7-0.7-1.5-0.7-2.7c0-1.1,0.2-2,0.7-2.6c0.4-0.7,1.1-1,1.9-1
		c0.4,0,0.8,0.1,1.2,0.3c0.3,0.2,0.6,0.4,0.8,0.8c0.2,0.3,0.4,0.7,0.5,1.2c0.1,0.5,0.2,1,0.2,1.5C106.2,40,106,40.8,105.5,41.5z"/>
	<polygon class="st0" points="124.1,29.3 122.8,26.9 120,28.5 120,25.4 117.3,25.4 117.3,28.5 114.5,26.9 113.1,29.3 115.9,30.9 
		113.1,32.5 114.5,34.9 117.3,33.3 117.3,36.5 120,36.5 120,33.3 122.8,34.9 124.1,32.5 121.4,30.9 	"/>
</g>
</svg>
