<?xml version="1.0" encoding="utf-8"?>
<!-- Generator: Adobe Illustrator 24.3.0, SVG Export Plug-In . SVG Version: 6.00 Build 0)  -->
<svg version="1.1" id="Layer_1" xmlns="http://www.w3.org/2000/svg" xmlns:xlink="http://www.w3.org/1999/xlink" x="0px" y="0px"
	 width="1278.3px" height="276.3px" viewBox="0 0 1278.3 276.3" style="enable-background:new 0 0 1278.3 276.3;"
	 xml:space="preserve">
<style type="text/css">
	.st0{fill:#CC0000;}
	.st1{fill:#FFFFFF;}
</style>
<rect x="6.7" y="105.3" transform="matrix(0.9986 -5.233596e-02 5.233596e-02 0.9986 -7.0425 7.3926)" class="st0" width="261.9" height="65.7"/>
<rect x="1.5" y="6.8" transform="matrix(0.9986 -5.233596e-02 5.233596e-02 0.9986 -1.8953 6.9866)" class="st0" width="261.8" height="65.8"/>
<rect x="11.9" y="203.8" transform="matrix(0.9986 -5.233596e-02 5.233596e-02 0.9986 -12.1897 7.7974)" class="st0" width="261.9" height="65.8"/>
<path class="st1" d="M448.8,154.7c1.4,27-12.8,35-45.7,36.7c-31.2,1.6-47.2,2.3-65.9,1.9l-6.9-131.2c16.8-2.2,31.5-3.2,59.4-4.6
	c36.5-1.9,50.8,4.6,52.2,31.6c1,18.2-7.3,27.8-27.2,30.4l0.2,3C438.7,123,447.6,134.4,448.8,154.7z M390,84.8l-19,1l1.3,25.8l19.4-1
	c8.9-0.5,11.7-2.7,11.1-13.5C402.3,86.6,399.3,84.3,390,84.8z M407.3,148.5c-0.7-12.5-3.3-15.1-14.9-14.5l-18.8,1l1.6,30.6l19-1
	C405.6,164,407.9,161.1,407.3,148.5L407.3,148.5z"/>
<path class="st1" d="M460.9,69.6c-0.5-9.3,4.2-14.5,13.5-15l17.1-0.9c8.5-0.5,11,3.2,16.6,11.1l29.6,41.7
	c5.2,7.7,9.1,17.1,12.7,27.2l3.4-0.9c-2-9.4-3.3-18.8-4-28.4l-3-53.6l37.5-2l6.2,117c0.5,9.3-4.2,14.5-13.5,15l-17.1,0.9
	c-8.7,0.5-11.7-4.2-16.6-11.1l-30.5-44c-5.6-8.5-8.3-17.3-11.1-27.1l-3.6,1c2,9.4,3.3,19,3.8,28.6l2.9,55.5l-37.6,2L460.9,69.6z"/>
<path class="st1" d="M606.8,62c-0.5-9.3,4.2-14.5,13.5-15l17.1-0.9c8.6-0.5,11,3.2,16.6,11.1L683.7,99c5.2,7.7,9.1,17.1,12.7,27.2
	l3.4-0.9c-2-9.4-3.3-18.8-4-28.4l-3-53.6l37.4-2l6.1,116.9c0.5,9.3-4.2,14.5-13.5,15l-17.1,0.9c-8.7,0.5-11.7-4.2-16.6-11.1
	l-30.5-44c-5.6-8.5-8.3-17.3-11.1-27.1l-3.6,1c2,9.4,3.3,19,3.8,28.6l2.9,55.5l-37.6,2L606.8,62z"/>
<path class="st1" d="M845.5,155.7c-1.1,6.6-6.8,11.6-13.5,11.8l-36.3,1.9c-6.7,0.5-12.8-3.8-14.7-10.3L742,40.6l42.4-2.2l22.2,84.4
	c1.2,4.7,2.2,10.2,3.3,14.9l4.8-0.2c0.3-4.8,1-10.3,1.7-15.2L829.5,36l42.4-2.2L845.5,155.7z"/>
<path class="st1" d="M955.1,135.6l-39.3,2.1l-4.6,25.6l-42,2.2l27.7-122.3c1.3-6.4,6.8-11,13.3-11.3l39.3-2.1
	c6.5-0.5,12.5,3.7,14.4,9.9l40.3,118.7l-42,2.2L955.1,135.6z M947.5,109l-9.3-32.7c-1.2-5.3-2.9-11.5-3.6-16.8l-6.3,0.3
	c-0.3,5.4-0.9,11.7-1.8,17.1l-5.9,33.5L947.5,109z"/>
<path class="st1" d="M1133.4,151.6l-43,2.2l-11-38.5c-1.9-6.4-4.8-8.5-12.2-8.1l-13.7,0.7l2.5,47.7l-40.4,2.1l-6.9-131.2
	c17.8-2.6,29.9-3.5,56.6-4.9c39.2-2,56.5,5.6,58,34.1c0.8,15.8-6.1,30.1-30.1,34l0.2,3c9,1.4,22.3,4.4,27.5,19.7L1133.4,151.6z
	 M1082.1,64.1c-0.6-12-4-14.9-16.4-14.2l-15.2,0.8l1.6,30l15.2-0.8C1079.7,79.3,1082.8,76.1,1082.1,64.1z"/>
<path class="st1" d="M1229.1,121.3l-39.3,2.1l-4.6,25.6l-42,2.2l27.7-122.3c1.3-6.4,6.8-11.1,13.3-11.4l39.3-2.1
	c6.5-0.5,12.5,3.7,14.4,9.9l40.3,118.7l-42,2.2L1229.1,121.3z M1221.4,94.6l-9.3-32.7c-1.2-5.3-2.9-11.5-3.6-16.8l-6.3,0.3
	c-0.3,5.4-0.9,11.7-1.8,17.1l-5.8,33.5L1221.4,94.6z"/>
</svg>
