<?xml version="1.0" encoding="utf-8"?>
<!-- Generator: Adobe Illustrator 19.1.0, SVG Export Plug-In . SVG Version: 6.00 Build 0)  -->
<svg version="1.1" id="Laag_1" xmlns="http://www.w3.org/2000/svg" xmlns:xlink="http://www.w3.org/1999/xlink" x="0px" y="0px"
	 viewBox="-350 484.9 176.5 70.9" style="enable-background:new -350 484.9 176.5 70.9;" xml:space="preserve">
<style type="text/css">
	.st0{fill:#FFFFFF;}
</style>
<g>
	<path class="st0" d="M-306,514.1h-6.3v-16.6h7.8v6.7h-1.4c-2.8,0-3.6-0.5-3.6-0.5s0,0.6,0,2.1c0,1.6,0,2.2,0,2.2s0.9-0.5,3.6-0.5
		h6.5V494h-18.5v23.4h18.6v-0.9c0.2-3.2,0.5-5.3,0.5-5.3C-300.2,513-300.9,514.1-306,514.1z"/>
	<path class="st0" d="M-323.6,488.2c0,0-1.1,0.1-4.4,0.1c-3.1,0-4.4-0.1-4.4-0.1l0.4,0.7c0.8,1.5,1,1.8,1,11.5h-11.5
		c0-9.7,0.2-10.1,1-11.5l0.4-0.7c0,0-1.1,0.1-4.4,0.1c-3.1,0-4.4-0.1-4.4-0.1l0.4,0.7c0.9,1.6,1,1.8,1,13.8c0,12.3-0.2,12.6-1,14.2
		l-0.4,0.7c0,0,1.3-0.1,4.4-0.1c3,0,4.4,0.1,4.4,0.1l-0.4-0.7c-0.9-1.6-1-1.8-1-12.3h11.5c0,10.4-0.3,10.8-1,12.3l-0.4,0.7
		c0,0,1.3-0.1,4.4-0.1c3,0,4.4,0.1,4.4,0.1l-0.4-0.7c-0.9-1.6-1-1.8-1-13.8c0-12.3,0.2-12.6,1-14.2L-323.6,488.2z"/>
	<path class="st0" d="M-281.9,493.5c-3.4,0-5.3,1.4-5.7,1.6l-5.4-1.6c0,0,0.4,2.4,0.4,11.2v1.6c0,8.9-0.4,9.3-1,10.5l-0.4,0.7
		c0,0,1.3-0.1,4.4-0.1c3,0,4.4,0.1,4.4,0.1l-0.4-0.7c-0.7-1.1-1.1-1.5-1.1-10.4v-8.2c0,0,1.3-1,3.2-1c2.5,0,4,1.4,5.3,3.6
		c0,0-0.1-1.1-0.1-3.4c0-2.1,0.1-3.1,0.1-3.1S-279.8,493.5-281.9,493.5z"/>
	<path class="st0" d="M-274.6,485.2v7.4c0,2.7-0.7,3.8-2.5,5.4h2.5v8.4c0,8.3-0.2,9-1,10.5l-0.4,0.7c0,0,1.3-0.1,4.4-0.1
		s4.4,0.1,4.4,0.1l-0.4-0.7c-0.9-1.6-1.1-2.7-1.1-10.6v-8h1.4c3,0,4,0.5,4,0.5s0-0.6,0-2.1s0-2.2,0-2.2s-0.9,0.5-4,0.5h-1.4v-6.2
		h1.6c3.1,0,4,0.9,4,0.9s0-0.8,0-2.1c0-1.4,0-2.1,0-2.1h-11.5V485.2z"/>
	<path class="st0" d="M-252.7,493.6c-6.4,0-8.8,3.3-8.8,7.1c0,3.4,1.8,5.2,4.6,6.6l2.8,1.5c1.9,1,2.9,1.7,2.9,3.2
		c0,2.1-1.9,2.4-3.6,2.4c-2.8,0-4.4-1.4-6-3.9c0,0,0.1,1.1,0.1,3.1c0,2.1-0.1,2.9-0.1,2.9s2,1.3,6.6,1.3c5.1,0,8.2-2.2,8.2-6.7
		c0-3.8-2.3-5.4-4.5-6.5l-3.4-1.8c-1.4-0.8-2.2-1.5-2.2-2.9s0.8-2.8,3.8-2.8c2.9,0,4.6,1.1,6.4,3.9c0,0-0.1-1.2-0.1-3.3
		c0-2,0.1-2.8,0.1-2.8S-248.2,493.6-252.7,493.6z"/>
	<path class="st0" d="M-231.2,514.5c-1.6,0-2.4-0.5-2.8-1.4c-0.4-0.7-0.5-1.5-0.5-3.3v-12.2h2.5c3.4,0,4,0.4,4,0.4s0-0.6,0-2.1
		s0-2.1,0-2.1s-0.7,0.5-4,0.5h-2.5v-5.1h-2.5c0,0-1,2.1-2.8,4.6s-3.2,3.8-3.2,3.9h2.7c0,0-0.1,3.5-0.1,12.2c0,3,0.3,4.7,1.1,5.9
		c0.9,1.3,2.4,2.3,5.3,2.3c5.2,0,6.2-3.2,6.2-4.6C-227.9,513.3-228.9,514.5-231.2,514.5z"/>
	<path class="st0" d="M-333.6,531.7c0.5,0.4,1.2,1.1,1.2,2.8c0,4.5-3.2,15.1-4.6,17.8c0,0-0.3-1.4-0.6-2.5l-2.3-8.9
		c-0.9-3.6-1.4-5.5-1.4-6.7c0-1.5,0.7-2.1,1.2-2.5c0,0-1.3,0.1-4.8,0.1c-3.2,0-4.6-0.1-4.6-0.1c1.4,1.2,2,3.5,3.8,9.5l4.1,14
		c0,0,1.4-0.1,3.9-0.1s3.9,0.1,3.9,0.1c4.6-8.8,5.7-18.7,6.7-21.2c0.5-1.3,0.9-1.8,1.5-2.3c0,0-1.2,0-3.8,0
		C-332.2,531.8-333.6,531.7-333.6,531.7z"/>
	<path class="st0" d="M-304.9,548c0-4,0.1-5.7,0.1-7.6c0-2.7,0-4.9-1.4-6.6c-1-1.3-3-2.5-7.8-2.5c-5.5,0-7.8,1.2-7.8,1.2
		s0.1,0.9,0.1,2.6c0,1.6-0.1,2.6-0.1,2.6c1.8-2.5,4.8-2.9,6.3-2.9c2.3,0,3.6,0.6,4.2,1.4c0.8,0.9,0.8,2.3,0.8,3.8v1.4
		c0,0-1.6-0.2-4-0.2c-3.6,0-9.7,0.4-9.7,7.5c0,3,1.4,7,7.2,7c2.5,0,5.7-0.6,6.8-5l-0.2,4.9l6.9-1l-0.4-0.7
		C-304.6,552.4-304.9,551-304.9,548z M-310.5,550.3c0,0-0.8,1.9-4,1.9c-2.1,0-3.8-1.2-3.8-3.9c0-3.9,3.3-4,5.2-4
		c2,0,2.7,0.2,2.7,0.2L-310.5,550.3L-310.5,550.3z"/>
	<path class="st0" d="M-277.5,553.7c-1.2-1.7-1.8-4.3-3.5-7.1c-2-3.5-4.8-4.2-4.8-4.2c5.5-3.4,6.1-7.1,7.9-9.2
		c0.6-0.7,1.3-1.2,1.8-1.5c0,0-2.2,0.1-4.9,0.1c-2.1,0-4.2-0.1-4.2-0.1c0.3,0.2,0.9,0.7,0.9,2c0,4.6-6.8,9.4-7.2,9.6
		c0.2,0.1,2.8,1.4,4.9,4.4c2.1,3.1,2.4,7.4,2.4,7.4h4.1c2,0,4.2,0,4.2,0C-276.6,554.9-277,554.4-277.5,553.7z"/>
	<path class="st0" d="M-292.2,544.1v-12.5c0-4.2,0.1-8.7,0.1-8.7l-7.3,1l0.4,0.7c0.7,1.4,1,2.6,1,10v9.5c0,8.4-0.3,9.1-1,10.5
		l-0.4,0.7c0,0,1.2-0.1,4.3-0.1s4.3,0.1,4.3,0.1l-0.4-0.7C-292,552.9-292.2,551.6-292.2,544.1z"/>
	<path class="st0" d="M-255,548c0-4,0.1-5.7,0.1-7.6c0-2.7,0-4.9-1.4-6.6c-1-1.3-3-2.5-7.8-2.5c-5.5,0-7.8,1.2-7.8,1.2
		s0.1,0.9,0.1,2.6c0,1.6-0.1,2.6-0.1,2.6c1.8-2.5,4.8-2.9,6.3-2.9c2.3,0,3.6,0.6,4.2,1.4c0.8,0.9,0.8,2.3,0.8,3.8v1.4
		c0,0-1.6-0.2-4-0.2c-3.6,0-9.7,0.4-9.7,7.5c0,3,1.4,7,7.2,7c2.5,0,5.7-0.6,6.8-5l-0.2,4.9l6.9-1l-0.4-0.7
		C-254.7,552.4-255,551-255,548z M-260.6,550.3c0,0-0.8,1.9-4,1.9c-2.1,0-3.8-1.2-3.8-3.9c0-3.9,3.3-4,5.2-4c2,0,2.7,0.2,2.7,0.2
		v5.8H-260.6z"/>
	<path class="st0" d="M-227.9,544.1v-1.3c0-4.8-0.2-6.8-1.1-8.5c-1-1.9-3.1-3-6.2-3c-3.2,0-6.1,1.2-7.1,5.6l0.2-5.5l-7.2,1l0.4,0.7
		c0.7,1.2,1,2.3,1,9.4v1.5c0,8.9-0.4,9.3-1,10.5l-0.4,0.7c0,0,1.3-0.1,4.4-0.1c3,0,4.3,0.1,4.3,0.1l-0.4-0.7c-0.7-1.2-1-1.6-1-10.5
		v-6.8c0,0,0.6-2.2,4.2-2.2c2.1,0,2.9,0.9,3.4,1.6c0.6,1,0.8,2.8,0.8,7.4c0,8.9-0.4,9.2-1,10.4l-0.4,0.7c0,0,1.2-0.1,4.3-0.1
		c3,0,4.3,0.1,4.3,0.1l-0.4-0.7C-227.5,553.3-227.9,553-227.9,544.1z"/>
	<path class="st0" d="M-211.8,552.2c-1.6,0-2.4-0.5-2.8-1.4c-0.4-0.7-0.5-1.5-0.5-3.3v-12.2h2.5c3.4,0,4,0.4,4,0.4s0-0.6,0-2.1
		s0-2.1,0-2.1s-0.7,0.5-4,0.5h-2.5v-5.1h-2.5c0,0-1,2.1-2.8,4.6s-3.2,3.8-3.2,3.9h2.7c0,0-0.1,3.5-0.1,12.2c0,3,0.3,4.7,1.1,5.9
		c0.9,1.3,2.4,2.3,5.3,2.3c5.2,0,6.2-3.2,6.2-4.6C-208.5,551-209.5,552.2-211.8,552.2z"/>
	<path class="st0" d="M-198.8,547.2v-4.4c0-8.8,0.4-11.4,0.4-11.4l-7.6,1l0.4,0.7c0.7,1.2,1,2.3,1,9.4c0,2.8-0.1,6.6-0.1,8.9
		c0,1.9,0.2,3.9,3.7,3.9c3.2,0,4.1-1.1,4.1-1.1C-198.6,553.3-198.8,552.1-198.8,547.2z"/>
	<polygon class="st0" points="-197.2,526.3 -201.6,522.5 -206.1,526.3 -201.6,530.1 	"/>
	<path class="st0" d="M-180.8,551.9c-5.6,0-6.6-4.4-6.6-7.1c0,0,1.7,0.5,4.4,0.5c7.3,0,9.5-3,9.5-7.2c0-5.6-5.5-6.9-9.6-6.9
		c-4.1,0-10.4,1.8-10.4,12.6c0,6.7,3,11.9,11,11.9c6.4,0,8.7-3.2,8.7-6.4C-173.9,549.5-175.4,551.9-180.8,551.9z M-183,534.3
		c3.3,0,3.7,2.4,3.7,3.9c0,3.5-2.5,3.9-4.6,3.9c-2.6,0-3.6-0.3-3.6-0.3C-187.5,536.3-186,534.3-183,534.3z"/>
</g>
</svg>
