<?xml version="1.0" encoding="utf-8"?>
<!-- Generator: Adobe Illustrator 23.0.2, SVG Export Plug-In . SVG Version: 6.00 Build 0)  -->
<svg version="1.1" id="Laag_1" xmlns="http://www.w3.org/2000/svg" xmlns:xlink="http://www.w3.org/1999/xlink" x="0px" y="0px"
	 width="650px" height="41.7px" viewBox="0 0 650 41.7" style="enable-background:new 0 0 650 41.7;" xml:space="preserve">
<style type="text/css">
	.st0{fill:#FFFFFF;}
</style>
<g>
	<path class="st0" d="M381.2,40.6h9.7V1.9h-11.2v21.3l-18-21.3h-9.6v38.7h11.2V19.3L381.2,40.6z M325.4,12.7l4.9,13.4h-9.9
		L325.4,12.7z M304,40.6h11.3l2.3-6.5H333l2.4,6.5h11.3L332,1.9h-13.1L304,40.6z M282,12.7l4.9,13.4H277L282,12.7z M260.6,40.6h11.3
		l2.3-6.5h15.4l2.4,6.5h11.3L288.5,1.9h-13.1L260.6,40.6z M244.1,40.6h11.2V1.9h-11.2V40.6z M219.2,11.4c2.7,0,4.2,1.8,4.2,4
		c0,2.2-1.5,3.9-4.2,3.9h-7.8v-7.9H219.2z M200.2,40.6h11.2V27.1h3.1l11.2,13.5h11.5v-2.3l-10.7-12.1c5.1-1.7,8.5-5.9,8.5-11.3
		c0-8.7-6-13-14.7-13h-20V40.6z M171.4,11.4c5.6,0,9.4,3.6,9.4,10c0,6.3-3.8,9.8-9.4,9.8h-6.7V11.4H171.4z M153.5,40.6h18.4
		c11.7,0,20.4-6.8,20.4-19.3c0-12.6-8.7-19.3-20.4-19.4h-18.4V40.6z M133.9,40.6h9.6V1.9h-11.2v21.3l-18-21.3h-9.7v38.7h11.2V19.3
		L133.9,40.6z M67.3,21.3c0-5.5,3.9-9.7,9.4-9.7c5.6,0,9.4,4.2,9.4,9.7c0,5.3-3.8,9.6-9.4,9.6C71.2,30.9,67.3,26.7,67.3,21.3
		 M56.4,21.3c0,11.3,8.7,19.8,20.3,19.8c11.7,0,20.4-8.5,20.4-19.8c0-11.4-8.7-20-20.4-20C65.1,1.4,56.4,9.9,56.4,21.3 M37.5,40.6
		h11.2V1.9h-9.4L25.8,17.2L12.3,1.9H3v38.7h11.2V19.1l10.7,12.6h1.9l10.7-12.6V40.6z"/>
</g>
</svg>
