<?xml version="1.0" encoding="utf-8"?>
<!-- Generator: Adobe Illustrator 23.0.2, SVG Export Plug-In . SVG Version: 6.00 Build 0)  -->
<svg version="1.1" id="Laag_1" xmlns="http://www.w3.org/2000/svg" xmlns:xlink="http://www.w3.org/1999/xlink" x="0px" y="0px"
	 width="650px" height="41.3px" viewBox="0 0 650 41.3" style="enable-background:new 0 0 650 41.3;" xml:space="preserve">
<style type="text/css">
	.st0{fill:#FFFFFF;}
</style>
<g>
	<path class="st0" d="M470,40.2h9.6V1.5h-11.2v21.3l-18-21.3h-9.6v38.7H452V18.9L470,40.2z M414.2,12.3l4.9,13.4h-9.9L414.2,12.3z
		 M392.8,40.2h11.3l2.3-6.5h15.4l2.4,6.5h11.3L420.7,1.5h-13.1L392.8,40.2z M376.3,40.2h11.2V1.5h-9.4l-13.5,15.3L351.1,1.5h-9.4
		v38.7h11.2V18.7l10.7,12.6h1.9l10.7-12.6V40.2z M334.9,11V1.5h-33.7V11h11.3v29.2h11.2V11H334.9z M297.5,11V1.5h-33.7V11h11.3v29.2
		h11.2V11H297.5z M245.8,40.2h11.2V1.5h-11.2V40.2z M222.4,10.9c2.8,0,5,2,5,5c0,2.9-2.2,4.9-5,4.9H215v-9.9H222.4z M203.9,40.2H215
		v-9.9h9.2c8,0,14.7-5.3,14.7-14.3c0-9.9-6.7-14.5-14.7-14.5h-20.3V40.2z M160.9,40.2h11.2V25.6l14.7-23.3V1.5h-12.4l-7.8,14.1
		l-7.8-14.1h-12.4v0.7l14.7,23.4V40.2z M149.7,40.2v-9.4h-18.9V1.5h-11.2v38.7H149.7z M113.3,40.2v-9.4H94.3V1.5H83.2v38.7H113.3z
		 M56.5,12.3l4.9,13.4h-9.9L56.5,12.3z M35.1,40.2h11.3l2.3-6.5h15.4l2.4,6.5h11.3L63.1,1.5H49.9L35.1,40.2z M1,37.4
		c2.6,1.4,8.8,3.4,14.8,3.4c10.2,0,16.7-5.3,16.7-12.8c0-5.2-3-8.8-10.3-10.9l-6.8-1.9c-2.1-0.6-2.9-1.3-2.9-2.5
		c0-1.6,1.3-2.6,4.3-2.6c3.9,0,8.5,1.4,11.7,3.1l3.1-9C28.5,2.6,22.9,1,17.2,1c-10.6,0-16,5.3-16,12.2c0,5.6,3.4,8.9,10.1,10.8
		l6.3,1.8c2.4,0.7,3.6,1.5,3.6,2.9c0,2.1-1.9,3.1-5.2,3.1c-4.8,0-9.2-1.8-12.3-3.9L1,37.4z"/>
</g>
</svg>
