<?xml version="1.0" encoding="utf-8"?>
<!-- Generator: Adobe Illustrator 23.0.2, SVG Export Plug-In . SVG Version: 6.00 Build 0)  -->
<svg version="1.1" id="Laag_1" xmlns="http://www.w3.org/2000/svg" xmlns:xlink="http://www.w3.org/1999/xlink" x="0px" y="0px"
	 width="197.9px" height="35.3px" viewBox="0 0 197.9 35.3" style="enable-background:new 0 0 197.9 35.3;" xml:space="preserve">
<style type="text/css">
	.st0{fill:#FFFFFF;}
</style>
<g>
	<path class="st0" d="M2.5,13.6H1.1V2.2h1.4v4.9h4V2.2h1.4v11.4H6.5V8.4h-4V13.6z"/>
	<path class="st0" d="M16.5,13.6h-5.9V2.2h5.8v1.3H12v3.6h4.1v1.3H12v3.9h4.5V13.6z"/>
	<path class="st0" d="M21.6,8.3h-1.7v5.2h-1.4V2.2h3.9c0.9,0,1.6,0.3,2.1,0.8C24.8,3.6,25,4.2,25,5c0,0.7-0.2,1.3-0.5,1.7
		c-0.4,0.5-0.9,0.8-1.5,0.9v0c0.7,0.1,1.1,0.3,1.4,0.7c0.3,0.4,0.4,1.1,0.4,2.2c0,0.3,0.1,0.8,0.1,1.5c0.1,0.7,0.2,1.1,0.3,1.5h-1.5
		c-0.1-0.2-0.2-0.5-0.3-0.9c0-0.4-0.1-0.9-0.1-1.5c0-0.6,0-1.1-0.1-1.4C23.2,8.8,22.6,8.3,21.6,8.3z M19.9,3.5v3.6H22
		c0.5,0,0.9-0.2,1.1-0.5c0.3-0.4,0.4-0.8,0.4-1.3c0-0.5-0.1-0.9-0.4-1.2c-0.3-0.3-0.6-0.5-1.1-0.5H19.9z"/>
	<path class="st0" d="M28.5,13.6h-1.4V2.2h5.6v1.3h-4.2v3.6h4v1.3h-4V13.6z"/>
	<path class="st0" d="M33.8,10.2h1.4v0.3c0,0.7,0.2,1.2,0.6,1.5c0.4,0.3,0.8,0.5,1.4,0.5c1.4,0,2-0.6,2-1.8c0-0.5-0.2-0.9-0.5-1.2
		c-0.4-0.3-0.8-0.6-1.3-0.9c-0.5-0.3-1-0.5-1.5-0.8c-0.5-0.3-0.9-0.6-1.3-1.1c-0.4-0.5-0.5-1-0.5-1.6c0-1,0.3-1.7,0.9-2.3
		S36.5,2,37.4,2c2.2,0,3.2,1.1,3.1,3.3h-1.5c0-0.7-0.1-1.2-0.4-1.5c-0.3-0.4-0.7-0.5-1.4-0.5c-0.5,0-0.9,0.1-1.2,0.4
		c-0.3,0.3-0.5,0.7-0.5,1.3c0,0.5,0.2,0.8,0.5,1.2c0.4,0.3,0.8,0.6,1.3,0.9c0.5,0.2,1,0.5,1.5,0.8c0.5,0.3,0.9,0.7,1.3,1.1
		c0.4,0.5,0.5,1.1,0.5,1.7c0,1.1-0.3,1.9-1,2.4c-0.7,0.5-1.5,0.7-2.5,0.7c-0.6,0-1.2-0.1-1.6-0.3c-0.5-0.2-0.8-0.4-1-0.7
		s-0.4-0.6-0.5-0.9c-0.1-0.4-0.2-0.7-0.2-0.9C33.8,10.8,33.8,10.5,33.8,10.2z"/>
	<path class="st0" d="M41.9,2.2h7.4v1.3h-3v10.1h-1.4V3.5h-3V2.2z"/>
	<path class="st0" d="M58,2.2l-3.3,11.4H53L49.7,2.2h1.6l2.6,10h0l2.7-10H58z"/>
	<path class="st0" d="M57.9,13.6l3.6-11.4h1.8L67,13.6h-1.6l-0.8-2.7h-4.4l-0.8,2.7H57.9z M64.2,9.6l-1.8-6.1h0l-1.8,6.1H64.2z"/>
	<path class="st0" d="M70,13.6h-1.4V2.2H70v5h0l4-5h1.6l-4.1,5.1l4.4,6.2H74l-4-5.9h0V13.6z"/>
	<path class="st0" d="M76.2,13.6l3.6-11.4h1.8l3.7,11.4h-1.6l-0.8-2.7h-4.4l-0.8,2.7H76.2z M82.5,9.6l-1.8-6.1h0l-1.8,6.1H82.5z"/>
	<path class="st0" d="M93.5,2.2h1.3v11.4h-2l-4.5-9.8h0v9.8H87V2.2h2l4.4,9.7h0V2.2z"/>
	<path class="st0" d="M96.3,2.2h7.4v1.3h-3v10.1h-1.4V3.5h-3V2.2z"/>
	<path class="st0" d="M106.9,2.2v11.4h-1.4V2.2H106.9z"/>
	<path class="st0" d="M115.5,13.6h-5.9V2.2h5.8v1.3h-4.4v3.6h4.1v1.3h-4.1v3.9h4.5V13.6z"/>
	<path class="st0" d="M128.2,2.2l-3.3,11.4h-1.7l-3.3-11.4h1.6l2.6,10h0l2.7-10H128.2z"/>
	<path class="st0" d="M135.9,12.8c-0.6,0.7-1.5,1-2.7,1c-1.2,0-2.1-0.3-2.7-1c-0.6-0.7-0.9-1.8-0.9-3.4V5.7c0-1.2,0.3-2.1,0.9-2.7
		c0.6-0.7,1.5-1,2.7-1c1.2,0,2.1,0.3,2.7,1c0.6,0.7,0.9,1.6,0.9,2.7v3.7C136.8,11,136.5,12.1,135.9,12.8z M131.6,11.9
		c0.3,0.4,0.9,0.7,1.6,0.7s1.3-0.2,1.6-0.7c0.3-0.4,0.5-1.3,0.5-2.4V5.6c0-0.5-0.1-0.8-0.2-1.2c-0.1-0.3-0.3-0.6-0.4-0.7
		c-0.2-0.2-0.3-0.3-0.6-0.4c-0.2-0.1-0.4-0.1-0.5-0.2c-0.1,0-0.3,0-0.4,0s-0.3,0-0.4,0c-0.1,0-0.3,0.1-0.5,0.2
		c-0.2,0.1-0.4,0.2-0.6,0.4c-0.2,0.2-0.3,0.4-0.4,0.7c-0.1,0.3-0.2,0.7-0.2,1.2v3.8C131.1,10.7,131.3,11.5,131.6,11.9z"/>
	<path class="st0" d="M144.9,13.6h-5.6V2.2h1.4v10.1h4.2V13.6z"/>
	<path class="st0" d="M151.1,3.5v10.1h-1.4V2.2h2.3l2.9,9.5h0l2.9-9.5h2.4v11.4h-1.4V3.5h0l-3.2,10.1h-1.4L151.1,3.5L151.1,3.5z"/>
	<path class="st0" d="M161.8,13.6l3.6-11.4h1.8l3.7,11.4h-1.6l-0.8-2.7h-4.4l-0.8,2.7H161.8z M168.1,9.6l-1.8-6.1h0l-1.8,6.1H168.1z
		"/>
	<path class="st0" d="M179.4,5.2h-1.5c0-0.7-0.2-1.2-0.5-1.5c-0.3-0.3-0.8-0.5-1.5-0.5c-0.1,0-0.3,0-0.4,0c-0.1,0-0.3,0.1-0.5,0.2
		c-0.2,0.1-0.4,0.2-0.6,0.4c-0.2,0.2-0.3,0.4-0.4,0.7c-0.1,0.3-0.2,0.7-0.2,1.2v3.8c0,1.2,0.2,2,0.5,2.4c0.3,0.4,0.9,0.7,1.6,0.7
		c0.9,0,1.6-0.2,2-0.5V8.7h-2.1V7.4h3.5v5.5c-1,0.6-2.2,0.8-3.5,0.8c-1.2,0-2.1-0.3-2.7-1c-0.6-0.7-0.9-1.8-0.9-3.4V5.7
		c0-1.2,0.3-2.1,0.9-2.7c0.6-0.7,1.5-1,2.7-1c1.2,0,2.2,0.3,2.7,0.8C179.2,3.2,179.5,4.1,179.4,5.2z"/>
	<path class="st0" d="M183.7,2.2v11.4h-1.4V2.2H183.7z"/>
	<path class="st0" d="M192.4,13.6h-5.9V2.2h5.8v1.3h-4.4v3.6h4.1v1.3h-4.1v3.9h4.5V13.6z"/>
	<path class="st0" d="M193.6,15.6l0.8-3.6h1.6l-1.4,3.6H193.6z"/>
</g>
<g>
	<path class="st0" d="M2.4,32.4H1V21.1h1.4v5h0l4-5h1.6l-4.1,5.1l4.4,6.2H6.4l-4-5.9h0V32.4z"/>
	<path class="st0" d="M9.7,28.3v-7.2h1.4v7.3c0,1.2,0.2,2,0.5,2.4c0.3,0.4,0.9,0.7,1.6,0.7c0.7,0,1.3-0.2,1.6-0.7
		c0.3-0.4,0.5-1.3,0.5-2.4v-7.3h1.4v7.2c0,1.6-0.3,2.7-0.9,3.4c-0.6,0.7-1.5,1-2.7,1s-2.1-0.3-2.7-1C10,30.9,9.7,29.8,9.7,28.3z"/>
	<path class="st0" d="M25.9,21.1h1.3v11.3h-2l-4.5-9.8h0v9.8h-1.3V21.1h2l4.4,9.7h0V21.1z"/>
	<path class="st0" d="M29.5,29h1.4v0.3c0,0.7,0.2,1.2,0.6,1.5c0.4,0.3,0.8,0.5,1.4,0.5c1.4,0,2-0.6,2-1.8c0-0.5-0.2-0.9-0.5-1.2
		c-0.4-0.3-0.8-0.6-1.3-0.9c-0.5-0.3-1-0.5-1.5-0.8c-0.5-0.3-0.9-0.6-1.3-1.1c-0.4-0.5-0.5-1-0.5-1.6c0-1,0.3-1.7,0.9-2.3
		c0.6-0.5,1.4-0.8,2.4-0.8c2.2,0,3.2,1.1,3.1,3.3h-1.5c0-0.7-0.1-1.2-0.4-1.5c-0.3-0.4-0.7-0.5-1.4-0.5c-0.5,0-0.9,0.1-1.2,0.4
		c-0.3,0.3-0.5,0.7-0.5,1.3c0,0.5,0.2,0.8,0.5,1.2c0.4,0.3,0.8,0.6,1.3,0.9c0.5,0.2,1,0.5,1.5,0.8c0.5,0.3,0.9,0.7,1.3,1.1
		c0.4,0.5,0.5,1.1,0.5,1.7c0,1.1-0.3,1.9-1,2.4c-0.7,0.5-1.5,0.7-2.5,0.7c-0.6,0-1.2-0.1-1.6-0.3c-0.5-0.2-0.8-0.4-1-0.7
		c-0.2-0.2-0.4-0.6-0.5-0.9c-0.1-0.4-0.2-0.7-0.2-0.9C29.5,29.6,29.5,29.4,29.5,29z"/>
	<path class="st0" d="M37.5,21.1h7.4v1.3h-3v10.1h-1.4V22.3h-3V21.1z"/>
	<path class="st0" d="M55.8,32.4h-5.9V21.1h5.8v1.3h-4.4V26h4.1v1.3h-4.1v3.9h4.5V32.4z"/>
	<path class="st0" d="M64.3,21.1h1.3v11.3h-2l-4.5-9.8h0v9.8h-1.3V21.1h2l4.4,9.7h0V21.1z"/>
	<path class="st0" d="M73.3,32.4l-2.8-11.3h1.5l2.1,9.8h0l2.3-9.8h1.9l2.1,9.8h0l2.3-9.8h1.5l-3,11.3h-1.8l-2.2-9.8h0l-2.3,9.8H73.3
		z"/>
	<path class="st0" d="M91.7,32.4h-5.9V21.1h5.8v1.3h-4.4V26h4.1v1.3h-4.1v3.9h4.5V32.4z"/>
	<path class="st0" d="M92.5,21.1h7.4v1.3h-3v10.1h-1.4V22.3h-3V21.1z"/>
	<path class="st0" d="M107.4,32.4h-5.9V21.1h5.8v1.3h-4.4V26h4.1v1.3h-4.1v3.9h4.5V32.4z"/>
	<path class="st0" d="M115.9,21.1h1.3v11.3h-2l-4.5-9.8h0v9.8h-1.3V21.1h2l4.4,9.7h0V21.1z"/>
	<path class="st0" d="M119.5,29h1.4v0.3c0,0.7,0.2,1.2,0.5,1.5c0.4,0.3,0.8,0.5,1.4,0.5c1.4,0,2-0.6,2-1.8c0-0.5-0.2-0.9-0.5-1.2
		c-0.4-0.3-0.8-0.6-1.3-0.9c-0.5-0.3-1-0.5-1.5-0.8s-0.9-0.6-1.3-1.1c-0.4-0.5-0.5-1-0.5-1.6c0-1,0.3-1.7,0.9-2.3
		c0.6-0.5,1.4-0.8,2.4-0.8c2.2,0,3.2,1.1,3.1,3.3h-1.5c0-0.7-0.1-1.2-0.4-1.5c-0.3-0.4-0.7-0.5-1.4-0.5c-0.5,0-0.9,0.1-1.2,0.4
		c-0.3,0.3-0.5,0.7-0.5,1.3c0,0.5,0.2,0.8,0.5,1.2c0.4,0.3,0.8,0.6,1.3,0.9c0.5,0.2,1,0.5,1.5,0.8c0.5,0.3,0.9,0.7,1.3,1.1
		c0.4,0.5,0.5,1.1,0.5,1.7c0,1.1-0.3,1.9-1,2.4c-0.7,0.5-1.5,0.7-2.5,0.7c-0.6,0-1.2-0.1-1.6-0.3c-0.5-0.2-0.8-0.4-1-0.7
		c-0.2-0.2-0.4-0.6-0.5-0.9c-0.1-0.4-0.2-0.7-0.2-0.9C119.5,29.6,119.4,29.4,119.5,29z"/>
	<path class="st0" d="M135,24.2h-1.5c0-0.8-0.1-1.4-0.3-1.7c-0.1-0.2-0.3-0.3-0.6-0.4c-0.3-0.1-0.5-0.1-0.7-0.1
		c-0.4,0-0.7,0.1-1,0.2c-0.3,0.1-0.5,0.3-0.6,0.4c-0.1,0.1-0.2,0.2-0.2,0.3c0,0,0,0,0,0.1c0,0,0,0.1-0.1,0.1c0,0.1,0,0.1-0.1,0.3
		c0,0.1,0,0.3-0.1,0.4c0,0.2,0,0.4-0.1,0.6c0,0.3,0,0.5,0,0.8v3c0,0.7,0,1.2,0.1,1.7c0.1,0.4,0.3,0.8,0.5,1c0.2,0.2,0.4,0.3,0.6,0.4
		c0.2,0.1,0.5,0.1,0.8,0.1c0.2,0,0.3,0,0.5-0.1c0.2,0,0.3-0.1,0.6-0.3c0.2-0.1,0.4-0.4,0.5-0.7c0.1-0.4,0.2-0.8,0.2-1.3h1.5
		c0,0.5,0,0.9-0.1,1.3s-0.2,0.7-0.3,1c-0.1,0.2-0.3,0.5-0.5,0.6c-0.2,0.2-0.4,0.3-0.6,0.4c-0.2,0.1-0.4,0.1-0.6,0.2
		c-0.2,0-0.4,0.1-0.5,0.1c-0.1,0-0.3,0-0.4,0c-0.3,0-0.5,0-0.7,0c-0.2,0-0.4,0-0.7-0.1c-0.3-0.1-0.5-0.1-0.7-0.3
		c-0.2-0.1-0.4-0.3-0.6-0.5c-0.2-0.2-0.4-0.5-0.5-0.8c-0.1-0.3-0.2-0.7-0.3-1.2c-0.1-0.5-0.1-1-0.1-1.6V25c0-1.5,0.3-2.6,0.9-3.2
		c0.6-0.6,1.5-0.9,2.7-0.9c1.1,0,1.9,0.3,2.4,0.8C134.9,22.2,135.1,23.1,135,24.2z"/>
	<path class="st0" d="M138.8,32.4h-1.4V21.1h1.4V26h4v-4.9h1.4v11.3h-1.4v-5.2h-4V32.4z"/>
	<path class="st0" d="M145.8,32.4l3.6-11.3h1.8l3.7,11.3h-1.6l-0.8-2.7h-4.4l-0.8,2.7H145.8z M152.1,28.5l-1.8-6.1h0l-1.8,6.1H152.1
		z"/>
	<path class="st0" d="M158.1,32.4h-1.4V21.1h3.4c2.1,0,3.2,1.1,3.2,3.2c0,0.6-0.1,1.1-0.3,1.6c-0.2,0.4-0.5,0.8-0.8,1
		c-0.3,0.2-0.7,0.4-1,0.4c-0.3,0.1-0.7,0.1-1,0.1h-1.9V32.4z M158.1,22.3v3.8h1.6c0.2,0,0.4,0,0.6-0.1c0.2,0,0.4-0.1,0.6-0.2
		c0.2-0.1,0.4-0.3,0.6-0.6c0.1-0.3,0.2-0.6,0.2-1c0-0.4-0.1-0.7-0.2-1c-0.1-0.3-0.3-0.5-0.5-0.6c-0.2-0.1-0.4-0.2-0.5-0.2
		c-0.1,0-0.3-0.1-0.4-0.1H158.1z"/>
</g>
</svg>
