<?xml version="1.0" encoding="utf-8"?>
<!-- Generator: Adobe Illustrator 24.3.0, SVG Export Plug-In . SVG Version: 6.00 Build 0)  -->
<svg version="1.1" id="Laag_1" xmlns="http://www.w3.org/2000/svg" xmlns:xlink="http://www.w3.org/1999/xlink" x="0px" y="0px"
	 width="90.5px" height="16.2px" viewBox="0 0 90.5 16.2" style="enable-background:new 0 0 90.5 16.2;" xml:space="preserve">
<style type="text/css">
	.st0{fill:#FFFFFF;}
</style>
<g>
	<path class="st0" d="M7.3,4.1c0.1,0,0.2,0,0.4,0s0.3,0,0.5,0.1s0.4,0.1,0.6,0.2s0.4,0.2,0.5,0.3C9.5,4.8,9.6,5,9.7,5.1
		s0.1,0.3,0.2,0.4c0,0.1,0.1,0.3,0.1,0.4c0,0.1,0,0.2,0,0.3c0,0.2,0,0.3,0,0.5c0,0.2-0.1,0.3-0.2,0.5C9.6,7.4,9.4,7.5,9.3,7.6
		S9.1,7.8,9,7.8c0.2,0,0.4,0.1,0.6,0.2c0.2,0.1,0.4,0.2,0.5,0.4c0.1,0.1,0.3,0.3,0.4,0.5c0.1,0.2,0.2,0.5,0.2,0.9
		c0,0.4-0.1,0.7-0.2,1c-0.1,0.3-0.3,0.5-0.4,0.6c-0.2,0.2-0.3,0.3-0.5,0.4S9.1,12,8.9,12c-0.2,0-0.4,0.1-0.6,0.1c-0.2,0-0.3,0-0.4,0
		h-3v-8H7.3z M6.7,7.4H7c0.1,0,0.3,0,0.5,0c0.2,0,0.3-0.1,0.5-0.2C8,7.1,8.1,7,8.1,6.9s0.1-0.3,0.1-0.4c0-0.2,0-0.3-0.1-0.4
		C8.1,5.9,8,5.8,7.9,5.7C7.8,5.6,7.6,5.6,7.5,5.6c-0.2,0-0.3,0-0.5,0H6.7V7.4z M6.7,10.7h0.4c0.2,0,0.5,0,0.7,0
		c0.3,0,0.5-0.1,0.6-0.3c0.2-0.2,0.3-0.4,0.3-0.7c0-0.2,0-0.3-0.1-0.4C8.6,9.2,8.5,9.1,8.5,9C8.4,9,8.3,8.9,8.2,8.8
		C8.1,8.8,8,8.8,7.9,8.8c-0.1,0-0.2,0-0.4,0s-0.2,0-0.3,0H6.7V10.7z"/>
	<path class="st0" d="M16.5,5.7h-2.7v1.5h2.5v1.6h-2.5v1.8h2.7v1.6H12v-8h4.5V5.7z"/>
	<path class="st0" d="M22.1,6.1c-0.2-0.1-0.3-0.2-0.4-0.3c-0.1-0.1-0.3-0.1-0.4-0.2c-0.1,0-0.2-0.1-0.3-0.1c-0.1,0-0.2,0-0.2,0
		c-0.1,0-0.3,0-0.4,0c-0.1,0-0.3,0.1-0.4,0.2c-0.1,0.1-0.1,0.1-0.2,0.2c0,0.1-0.1,0.2-0.1,0.3c0,0.2,0.1,0.3,0.2,0.4
		c0.1,0.1,0.2,0.2,0.4,0.2C20.5,7,20.7,7.1,21,7.2l0.6,0.2c0.2,0.1,0.4,0.1,0.6,0.2c0.2,0.1,0.4,0.2,0.5,0.4
		c0.2,0.2,0.4,0.5,0.5,0.7c0.1,0.3,0.1,0.5,0.1,0.8c0,0.4-0.1,0.8-0.2,1.1c-0.1,0.3-0.3,0.6-0.5,0.8c-0.2,0.2-0.4,0.3-0.6,0.4
		c-0.2,0.1-0.4,0.2-0.6,0.2s-0.4,0.1-0.6,0.1c-0.2,0-0.3,0-0.5,0c-0.3,0-0.6,0-0.8-0.1c-0.3,0-0.5-0.1-0.8-0.3
		c-0.2-0.1-0.4-0.2-0.6-0.4c-0.2-0.2-0.4-0.3-0.5-0.5l1-1.3c0.1,0.1,0.2,0.2,0.4,0.3c0.1,0.1,0.3,0.2,0.4,0.3c0.3,0.2,0.7,0.3,1,0.3
		c0.1,0,0.3,0,0.4-0.1c0.2,0,0.3-0.1,0.4-0.2c0.1-0.1,0.1-0.2,0.2-0.3c0.1-0.1,0.1-0.2,0.1-0.4c0-0.1,0-0.2-0.1-0.3
		c0-0.1-0.1-0.2-0.2-0.2c-0.1,0-0.1-0.1-0.2-0.1s-0.2-0.1-0.3-0.1c-0.1,0-0.2-0.1-0.3-0.1c-0.1,0-0.2-0.1-0.2-0.1l-0.7-0.2
		c-0.2-0.1-0.4-0.1-0.6-0.2c-0.2-0.1-0.4-0.2-0.5-0.4c-0.2-0.2-0.3-0.5-0.4-0.7c-0.1-0.3-0.1-0.5-0.1-0.7c0-0.4,0.1-0.7,0.2-1
		c0.1-0.3,0.3-0.6,0.5-0.8c0.3-0.3,0.6-0.5,0.9-0.6c0.3-0.1,0.7-0.1,1.1-0.1c0.1,0,0.3,0,0.5,0c0.2,0,0.4,0.1,0.6,0.1
		c0.2,0.1,0.4,0.1,0.6,0.2c0.2,0.1,0.5,0.2,0.7,0.4L22.1,6.1z"/>
	<path class="st0" d="M27.4,5.7v6.4h-1.9V5.7h-1.7V4.1h5.4v1.6H27.4z"/>
	<path class="st0" d="M34.7,5.7H32v1.5h2.5v1.6H32v1.8h2.7v1.6h-4.5v-8h4.5V5.7z"/>
	<path class="st0" d="M38,4.1v6.4h2.5v1.6h-4.3v-8H38z"/>
	<path class="st0" d="M47.1,5.7v6.4h-1.9V5.7h-1.7V4.1h5.4v1.6H47.1z"/>
	<path class="st0" d="M51.8,4.1v8h-1.9v-8H51.8z"/>
	<path class="st0" d="M59.3,11.9c-0.4,0.2-0.7,0.3-1,0.4c-0.3,0.1-0.6,0.1-0.8,0.1c-0.7,0-1.4-0.1-1.9-0.3c-0.5-0.2-0.9-0.5-1.3-0.8
		c-0.4-0.4-0.7-0.8-0.9-1.3c-0.2-0.5-0.4-1.1-0.4-1.7c0-0.6,0.1-1.2,0.4-1.7c0.2-0.5,0.5-0.9,0.9-1.3c0.4-0.3,0.8-0.6,1.3-0.8
		s1.1-0.3,1.7-0.3c0.3,0,0.6,0,0.9,0.1c0.3,0.1,0.7,0.2,1.1,0.3v2.1c-0.2-0.2-0.5-0.4-0.8-0.6c-0.3-0.2-0.7-0.3-1.1-0.3
		c-0.7,0-1.2,0.2-1.6,0.6c-0.2,0.2-0.4,0.5-0.5,0.8C55.1,7.4,55,7.7,55,8.1c0,0.4,0.1,0.8,0.2,1.1c0.1,0.3,0.3,0.5,0.5,0.7
		c0,0,0.1,0.1,0.2,0.2c0.1,0.1,0.2,0.2,0.4,0.2c0.1,0.1,0.3,0.1,0.5,0.2c0.2,0.1,0.4,0.1,0.7,0.1c0.1,0,0.3,0,0.4,0
		c0.1,0,0.3-0.1,0.4-0.1c0.2-0.1,0.3-0.1,0.5-0.3s0.3-0.3,0.5-0.4V11.9z"/>
	<path class="st0" d="M62.6,7.4l2.7-3.3h2.3l-3.2,3.8l3.5,4.2h-2.4l-2.9-3.6v3.6h-1.9v-8h1.9V7.4z"/>
	<path class="st0" d="M73.3,5.7h-2.7v1.5h2.5v1.6h-2.5v1.8h2.7v1.6h-4.5v-8h4.5V5.7z"/>
	<path class="st0" d="M77.7,5.7v6.4h-1.9V5.7h-1.7V4.1h5.4v1.6H77.7z"/>
	<path class="st0" d="M84.5,6.1c-0.2-0.1-0.3-0.2-0.4-0.3c-0.1-0.1-0.3-0.1-0.4-0.2c-0.1,0-0.2-0.1-0.3-0.1c-0.1,0-0.2,0-0.2,0
		c-0.1,0-0.3,0-0.4,0c-0.1,0-0.3,0.1-0.4,0.2c-0.1,0.1-0.1,0.1-0.2,0.2c0,0.1-0.1,0.2-0.1,0.3c0,0.2,0.1,0.3,0.2,0.4
		c0.1,0.1,0.2,0.2,0.4,0.2c0.2,0.1,0.4,0.1,0.6,0.2l0.6,0.2c0.2,0.1,0.4,0.1,0.6,0.2C84.7,7.7,84.9,7.9,85,8
		c0.2,0.2,0.4,0.5,0.5,0.7c0.1,0.3,0.1,0.5,0.1,0.8c0,0.4-0.1,0.8-0.2,1.1c-0.1,0.3-0.3,0.6-0.5,0.8c-0.2,0.2-0.4,0.3-0.6,0.4
		c-0.2,0.1-0.4,0.2-0.6,0.2s-0.4,0.1-0.6,0.1c-0.2,0-0.3,0-0.5,0c-0.3,0-0.6,0-0.8-0.1c-0.3,0-0.5-0.1-0.8-0.3
		c-0.2-0.1-0.4-0.2-0.6-0.4c-0.2-0.2-0.4-0.3-0.5-0.5l1-1.3c0.1,0.1,0.2,0.2,0.4,0.3c0.1,0.1,0.3,0.2,0.4,0.3c0.3,0.2,0.7,0.3,1,0.3
		c0.1,0,0.3,0,0.4-0.1c0.2,0,0.3-0.1,0.4-0.2c0.1-0.1,0.1-0.2,0.2-0.3c0.1-0.1,0.1-0.2,0.1-0.4c0-0.1,0-0.2-0.1-0.3
		c0-0.1-0.1-0.2-0.2-0.2c-0.1,0-0.1-0.1-0.2-0.1S83.1,8.9,83,8.9c-0.1,0-0.2-0.1-0.3-0.1c-0.1,0-0.2-0.1-0.2-0.1l-0.7-0.2
		c-0.2-0.1-0.4-0.1-0.6-0.2c-0.2-0.1-0.4-0.2-0.5-0.4c-0.2-0.2-0.3-0.5-0.4-0.7c-0.1-0.3-0.1-0.5-0.1-0.7c0-0.4,0.1-0.7,0.2-1
		c0.1-0.3,0.3-0.6,0.5-0.8c0.3-0.3,0.6-0.5,0.9-0.6c0.3-0.1,0.7-0.1,1.1-0.1c0.1,0,0.3,0,0.5,0C83.6,4,83.8,4,84,4.1
		c0.2,0.1,0.4,0.1,0.6,0.2c0.2,0.1,0.5,0.2,0.7,0.4L84.5,6.1z"/>
</g>
</svg>
