<?xml version="1.0" encoding="utf-8"?>
<!-- Generator: Adobe Illustrator 24.3.0, SVG Export Plug-In . SVG Version: 6.00 Build 0)  -->
<svg version="1.1" id="Laag_1" xmlns:v="https://vecta.io/nano"
	 xmlns="http://www.w3.org/2000/svg" xmlns:xlink="http://www.w3.org/1999/xlink" x="0px" y="0px" width="452.5px" height="189.4px"
	 viewBox="0 0 452.5 189.4" style="enable-background:new 0 0 452.5 189.4;" xml:space="preserve">
<style type="text/css">
	.st0{fill:#6A3F24;}
</style>
<g>
	<path class="st0" d="M24.8,35.8l-2.7-7.4h-12l-2.7,7.4H0L12.6,1.7h7.5l12.5,34.1H24.8z M12.5,21.7h7.1l-3.1-8.5
		c-0.1-0.2-0.1-0.3-0.1-0.5v-0.4c0-0.2-0.1-0.2-0.2-0.2h0L12.5,21.7z"/>
	<path class="st0" d="M49,9.8c3.3,0,5.8,0.9,7.5,2.8c1.7,1.9,2.6,4.6,2.6,8.1v15.1h-6.9V21.5c0-1.9-0.3-3.4-1-4.3
		c-0.6-0.9-1.8-1.4-3.4-1.4c-1.6,0-2.8,0.5-3.7,1.5s-1.3,2.4-1.3,4.2v14.3H36V10.2h5.2c0.3,0,0.5,0.1,0.7,0.3
		c0.2,0.2,0.3,0.4,0.3,0.7v1.9C44,10.9,46.3,9.8,49,9.8z"/>
	<path class="st0" d="M81.1,16.3h-7.4v10.4c0,0.8,0.3,1.5,0.8,2.1c0.5,0.5,1.2,0.8,2,0.8h2.9c0.6,0,1,0.2,1.3,0.5
		c0.3,0.3,0.5,0.8,0.5,1.3v4.6h-5.3c-2.8,0-5.1-0.8-6.7-2.5c-1.6-1.6-2.4-3.9-2.4-6.8V16.3h-2.2c-0.5,0-1-0.2-1.3-0.5
		s-0.5-0.8-0.5-1.3v-4.2h4V1.7h6.9v8.5h7.4V16.3z"/>
	<path class="st0" d="M106.7,32.7c-2.3,2.4-5.4,3.6-9.4,3.6s-7-1.2-9.4-3.6c-2.3-2.4-3.5-5.7-3.5-9.7c0-4.1,1.2-7.3,3.5-9.7
		c2.3-2.4,5.4-3.6,9.4-3.6s7,1.2,9.4,3.6c2.3,2.4,3.5,5.7,3.5,9.7C110.2,27.1,109.1,30.3,106.7,32.7z M93,28.3c1,1.3,2.5,2,4.4,2
		c1.9,0,3.3-0.7,4.4-2c1-1.3,1.6-3.1,1.6-5.3c0-2.2-0.5-3.9-1.6-5.3c-1-1.3-2.5-2-4.4-2c-1.9,0-3.3,0.7-4.4,2
		c-1,1.3-1.6,3.1-1.6,5.3C91.5,25.2,92,27,93,28.3z"/>
	<path class="st0" d="M128,9.8c3.3,0,5.8,0.9,7.5,2.8c1.7,1.9,2.6,4.6,2.6,8.1v15.1h-6.9V21.5c0-1.9-0.3-3.4-1-4.3
		c-0.6-0.9-1.8-1.4-3.4-1.4c-1.6,0-2.8,0.5-3.7,1.5s-1.3,2.4-1.3,4.2v14.3H115V10.2h5.2c0.3,0,0.5,0.1,0.7,0.3
		c0.2,0.2,0.3,0.4,0.3,0.7v1.9C123,10.9,125.2,9.8,128,9.8z"/>
	<path class="st0" d="M148,7.5c-1.1,0-2-0.3-2.7-1c-0.7-0.7-1-1.6-1-2.7c0-1.1,0.3-2,1-2.7C146,0.4,146.9,0,148,0
		c1.1,0,2,0.4,2.7,1.1c0.7,0.7,1.1,1.6,1.1,2.7c0,1.1-0.4,2-1.1,2.7C150,7.2,149.1,7.5,148,7.5z M144.6,35.8V10.2h6.9v25.6H144.6z"
		/>
	<path class="st0" d="M180.2,29.3c0.3,0.3,0.5,0.9,0.5,1.7v4.9H180c-3,0-5.1-1-6.4-2.9c-2.1,2.2-5.1,3.3-9.1,3.3
		c-2.5,0-4.6-0.7-6.1-2c-1.5-1.4-2.2-3.2-2.2-5.5c0-2.2,0.7-4.1,2.1-5.6c1.4-1.5,3.6-2.4,6.5-2.8c3.7-0.4,6.2-1,7.4-1.7v-0.1
		c0-0.8-0.4-1.5-1.2-2c-0.8-0.5-1.8-0.8-2.9-0.8c-0.6,0-1.2,0-1.7,0.1c-0.5,0.1-1,0.2-1.5,0.4c-0.5,0.2-0.8,0.3-1,0.4
		s-0.6,0.3-1,0.6c-0.4,0.3-0.7,0.4-0.7,0.4c-0.6,0.3-1.1,0.4-1.7,0.3c-0.6-0.1-1-0.4-1.3-0.8l-2.1-2.9c0.3-0.4,0.8-0.9,1.4-1.3
		c0.6-0.5,1.3-0.9,2.2-1.5c0.9-0.5,1.9-0.9,3.2-1.3c1.2-0.3,2.5-0.5,3.8-0.5c3.8,0,6.6,0.9,8.6,2.6c2,1.7,2.9,4.3,2.9,7.7v7.2
		C179.2,28.2,179.5,28.8,180.2,29.3L180.2,29.3z M165.4,30.5c0.7,0,1.4,0,2-0.1c0.6-0.1,1.2-0.3,1.9-0.5s1.2-0.6,1.6-1
		c0.4-0.4,0.8-1,1.1-1.7c0.3-0.7,0.4-1.5,0.4-2.4V24c-1.3,1.1-3.3,1.7-6,1.7c-1.2,0.1-2.2,0.4-2.7,0.8s-0.9,1-0.9,1.8
		c0,0.7,0.2,1.2,0.7,1.6C163.9,30.3,164.6,30.5,165.4,30.5z"/>
	<path class="st0" d="M198.3,9.8c3.3,0,5.8,0.9,7.5,2.8c1.7,1.9,2.6,4.6,2.6,8.1v15.1h-6.9V21.5c0-1.9-0.3-3.4-1-4.3
		c-0.6-0.9-1.8-1.4-3.4-1.4c-1.6,0-2.8,0.5-3.7,1.5s-1.3,2.4-1.3,4.2v14.3h-6.9V10.2h5.2c0.3,0,0.5,0.1,0.7,0.3
		c0.2,0.2,0.3,0.4,0.3,0.7v1.9C193.3,10.9,195.6,9.8,198.3,9.8z"/>
	<path class="st0" d="M235.1,32.7c-2.3,2.4-5.4,3.6-9.3,3.6c-3.9,0-7-1.2-9.4-3.6c-2.3-2.4-3.5-5.7-3.5-9.7c0-4.1,1.2-7.3,3.5-9.7
		c2.3-2.4,5.4-3.6,9.4-3.6c3.9,0,7,1.2,9.3,3.6c2.3,2.4,3.5,5.7,3.5,9.7C238.6,27.1,237.4,30.3,235.1,32.7z M221.4,28.3
		c1,1.3,2.5,2,4.4,2c1.9,0,3.3-0.7,4.4-2c1-1.3,1.6-3.1,1.6-5.3c0-2.2-0.5-3.9-1.6-5.3c-1-1.3-2.5-2-4.4-2c-1.9,0-3.3,0.7-4.4,2
		c-1,1.3-1.6,3.1-1.6,5.3C219.8,25.2,220.3,27,221.4,28.3z"/>
	<path class="st0" d="M267.7,36.4c-3.9,0-7.1-1.2-9.4-3.7c-2.3-2.4-3.5-5.6-3.5-9.6c0-4.1,1.2-7.4,3.5-9.8c2.3-2.4,5.4-3.6,9.4-3.6
		c3.1,0,5.7,0.8,7.8,2.3c2.1,1.5,3.5,3.8,4.2,6.7l-5.3,1c-1,0.2-1.7-0.1-2.1-0.9c-0.8-2.1-2.4-3.1-4.6-3.1c-1.9,0-3.4,0.7-4.4,2
		c-1,1.4-1.5,3.1-1.5,5.3c0,2.1,0.5,3.8,1.6,5.2c1,1.3,2.5,2,4.4,2c1.3,0,2.3-0.3,3-0.8c0.7-0.6,1.3-1.4,1.7-2.6
		c0.2-0.4,0.5-0.7,0.9-0.9c0.4-0.2,0.9-0.2,1.3-0.1l5.2,1c-0.6,3.1-2.1,5.4-4.2,7.1C273.5,35.5,270.9,36.4,267.7,36.4z"/>
	<path class="st0" d="M304.5,32.7c-2.3,2.4-5.4,3.6-9.3,3.6c-3.9,0-7-1.2-9.4-3.6c-2.3-2.4-3.5-5.7-3.5-9.7c0-4.1,1.2-7.3,3.5-9.7
		c2.3-2.4,5.4-3.6,9.4-3.6c3.9,0,7,1.2,9.3,3.6c2.3,2.4,3.5,5.7,3.5,9.7C308,27.1,306.9,30.3,304.5,32.7z M290.8,28.3
		c1,1.3,2.5,2,4.4,2c1.9,0,3.3-0.7,4.4-2c1-1.3,1.6-3.1,1.6-5.3c0-2.2-0.5-3.9-1.6-5.3c-1-1.3-2.5-2-4.4-2c-1.9,0-3.3,0.7-4.4,2
		c-1,1.3-1.6,3.1-1.6,5.3C289.3,25.2,289.8,27,290.8,28.3z"/>
	<path class="st0" d="M325.8,9.8c3.3,0,5.8,0.9,7.5,2.8s2.6,4.6,2.6,8.1v15.1H329V21.5c0-1.9-0.3-3.4-1-4.3
		c-0.6-0.9-1.8-1.4-3.4-1.4c-1.6,0-2.8,0.5-3.7,1.5c-0.9,1-1.3,2.4-1.3,4.2v14.3h-6.9V10.2h5.2c0.3,0,0.5,0.1,0.7,0.3
		c0.2,0.2,0.3,0.4,0.3,0.7v1.9C320.8,10.9,323,9.8,325.8,9.8z"/>
	<path class="st0" d="M24.8,83.8l-2.7-7.4h-12l-2.7,7.4H0l12.6-34.1h7.5l12.5,34.1H24.8z M12.5,69.7h7.1l-3.1-8.5
		c-0.1-0.2-0.1-0.3-0.1-0.5v-0.4c0-0.2-0.1-0.2-0.2-0.2h0L12.5,69.7z"/>
	<path class="st0" d="M44.5,83.9c-2.7,0-4.7-0.7-6.2-2.2c-1.5-1.5-2.2-3.6-2.2-6.2V49.7h6.9v25.7c0,0.6,0.2,1.2,0.6,1.5
		c0.4,0.4,0.9,0.6,1.5,0.6h1.3c0.5,0,1,0.2,1.3,0.5c0.3,0.3,0.5,0.8,0.5,1.3v4.6H44.5z"/>
	<path class="st0" d="M63.2,84.4c-3.9,0-7.1-1.2-9.4-3.7c-2.3-2.4-3.5-5.6-3.5-9.6c0-4.1,1.2-7.4,3.5-9.8c2.3-2.4,5.4-3.6,9.4-3.6
		c3.1,0,5.7,0.8,7.8,2.3c2.1,1.5,3.5,3.8,4.2,6.7l-5.3,1c-1,0.2-1.7-0.1-2.1-0.9c-0.8-2.1-2.4-3.1-4.6-3.1c-1.9,0-3.4,0.7-4.4,2
		c-1,1.4-1.5,3.1-1.5,5.3c0,2.1,0.5,3.8,1.6,5.2s2.5,2,4.4,2c1.3,0,2.3-0.3,3-0.8s1.3-1.4,1.7-2.6c0.2-0.4,0.5-0.7,0.9-0.9
		c0.4-0.2,0.9-0.2,1.3-0.1l5.2,1c-0.6,3.1-2.1,5.4-4.2,7.1C69,83.5,66.4,84.4,63.2,84.4z"/>
	<path class="st0" d="M91,57.7c3.9,0,7,1.3,9.4,3.8s3.6,5.9,3.6,10v1.1c0,0.3-0.1,0.5-0.3,0.7c-0.2,0.2-0.4,0.3-0.7,0.3H85.1
		c0.4,1.4,1.1,2.6,2.1,3.5c1,0.9,2.3,1.3,3.8,1.3c1.1,0,2.1-0.3,2.9-0.8c0.8-0.6,1.4-1.2,1.9-2c0.3-0.5,0.8-0.6,1.3-0.4l5.8,2
		c-0.9,2.2-2.3,4-4.3,5.3c-2,1.3-4.5,1.9-7.5,1.9c-3.9,0-7.1-1.2-9.5-3.7c-2.4-2.4-3.6-5.6-3.6-9.6c0-4,1.2-7.3,3.6-9.7
		C83.9,58.9,87.1,57.7,91,57.7z M91,63.7c-1.4,0-2.6,0.4-3.6,1.1c-1,0.7-1.7,1.8-2.1,3.1h11.3c-0.5-1.3-1.2-2.3-2.2-3.1
		C93.5,64.1,92.3,63.7,91,63.7z"/>
	<path class="st0" d="M145.2,49.7h7.2v34.1h-7.7l-15.2-23.4h-0.1c-0.1,0-0.1,0-0.2,0.1c0,0.1-0.1,0.1,0,0.2c0.3,1,0.5,2,0.5,2.9
		v20.2h-7.2V49.7h7.7l15.2,23.4h0.1c0.1,0,0.1,0,0.2-0.1c0-0.1,0.1-0.1,0-0.2c-0.3-1-0.5-2-0.5-2.9V49.7z"/>
	<path class="st0" d="M170.5,57.7c3.9,0,7,1.3,9.4,3.8s3.6,5.9,3.6,10v1.1c0,0.3-0.1,0.5-0.3,0.7c-0.2,0.2-0.4,0.3-0.7,0.3h-17.9
		c0.4,1.4,1.1,2.6,2.1,3.5c1,0.9,2.3,1.3,3.8,1.3c1.1,0,2.1-0.3,2.9-0.8c0.8-0.6,1.4-1.2,1.9-2c0.3-0.5,0.8-0.6,1.3-0.4l5.8,2
		c-0.9,2.2-2.3,4-4.3,5.3c-2,1.3-4.5,1.9-7.5,1.9c-3.9,0-7.1-1.2-9.5-3.7c-2.4-2.4-3.6-5.6-3.6-9.6c0-4,1.2-7.3,3.6-9.7
		C163.5,58.9,166.6,57.7,170.5,57.7z M170.5,63.7c-1.4,0-2.6,0.4-3.6,1.1c-1,0.7-1.7,1.8-2.1,3.1h11.3c-0.5-1.3-1.2-2.3-2.2-3.1
		C173,64.1,171.9,63.7,170.5,63.7z"/>
	<path class="st0" d="M202,58.2h0.4v3.9c0,0.6-0.2,1-0.5,1.3c-0.3,0.3-0.7,0.5-1.2,0.5h-0.3c-2,0-3.4,0.6-4.4,1.8
		c-1,1.2-1.5,2.8-1.5,5v13h-6.9V58.2h5.2c0.3,0,0.5,0.1,0.7,0.3c0.2,0.2,0.3,0.4,0.3,0.7v2.5C195.8,59.4,198.5,58.2,202,58.2z"/>
	<path class="st0" d="M226.1,80.7c-2.3,2.4-5.4,3.6-9.3,3.6c-3.9,0-7-1.2-9.4-3.6s-3.5-5.7-3.5-9.7c0-4.1,1.2-7.3,3.5-9.7
		c2.3-2.4,5.4-3.6,9.4-3.6c3.9,0,7,1.2,9.3,3.6s3.5,5.7,3.5,9.7C229.6,75.1,228.4,78.3,226.1,80.7z M212.4,76.3c1,1.3,2.5,2,4.4,2
		c1.9,0,3.3-0.7,4.4-2c1-1.3,1.6-3.1,1.6-5.3c0-2.2-0.5-3.9-1.6-5.3c-1-1.3-2.5-2-4.4-2c-1.9,0-3.3,0.7-4.4,2
		c-1,1.3-1.6,3.1-1.6,5.3C210.8,73.2,211.3,75,212.4,76.3z"/>
	<path class="st0" d="M258.9,57.7c3.9,0,7,1.3,9.4,3.8s3.6,5.9,3.6,10v1.1c0,0.3-0.1,0.5-0.3,0.7c-0.2,0.2-0.4,0.3-0.7,0.3h-17.9
		c0.4,1.4,1.1,2.6,2.1,3.5c1,0.9,2.3,1.3,3.8,1.3c1.1,0,2.1-0.3,2.9-0.8c0.8-0.6,1.4-1.2,1.9-2c0.3-0.5,0.8-0.6,1.3-0.4l5.8,2
		c-0.9,2.2-2.3,4-4.3,5.3c-2,1.3-4.5,1.9-7.5,1.9c-3.9,0-7.1-1.2-9.5-3.7c-2.4-2.4-3.6-5.6-3.6-9.6c0-4,1.2-7.3,3.6-9.7
		C251.9,58.9,255.1,57.7,258.9,57.7z M258.9,63.7c-1.4,0-2.6,0.4-3.6,1.1c-1,0.7-1.7,1.8-2.1,3.1h11.3c-0.5-1.3-1.2-2.3-2.2-3.1
		C261.4,64.1,260.3,63.7,258.9,63.7z"/>
	<path class="st0" d="M328.8,49.7v34.1h-7.2V64.2c0-0.9,0.2-1.9,0.5-2.9c0-0.1,0-0.1,0-0.2s-0.1-0.1-0.2-0.1h0l-8.7,22.8h-7.1
		L297.4,61c-0.1,0-0.1,0-0.2,0.1s-0.1,0.1,0,0.2c0.3,1,0.5,2,0.5,2.9v19.6h-7.2V49.7h10.3l8.7,23.4c0.1,0.3,0.1,0.4,0.1,0.5v0.9
		c0,0.2,0.1,0.3,0.2,0.3h0l9.5-25.1H328.8z"/>
	<path class="st0" d="M357.7,77.3c0.3,0.3,0.5,0.9,0.5,1.7v4.9h-0.7c-3,0-5.1-1-6.4-2.9c-2.1,2.2-5.1,3.3-9.1,3.3
		c-2.5,0-4.6-0.7-6.1-2s-2.2-3.2-2.2-5.5c0-2.2,0.7-4.1,2.1-5.6c1.4-1.5,3.6-2.4,6.5-2.8c3.7-0.4,6.2-1,7.4-1.7v-0.1
		c0-0.8-0.4-1.5-1.2-2c-0.8-0.5-1.8-0.8-2.9-0.8c-0.6,0-1.2,0-1.7,0.1c-0.5,0.1-1,0.2-1.5,0.4c-0.5,0.2-0.8,0.3-1,0.4
		c-0.2,0.1-0.6,0.3-1,0.6c-0.4,0.3-0.7,0.4-0.7,0.4c-0.6,0.3-1.1,0.4-1.7,0.3c-0.6-0.1-1-0.4-1.3-0.8l-2.1-2.9
		c0.3-0.4,0.8-0.9,1.4-1.3c0.6-0.5,1.3-0.9,2.2-1.5c0.9-0.5,1.9-0.9,3.2-1.3s2.5-0.5,3.8-0.5c3.8,0,6.6,0.9,8.6,2.6
		c2,1.7,2.9,4.3,2.9,7.7v7.2C356.7,76.2,357.1,76.8,357.7,77.3L357.7,77.3z M343,78.5c0.7,0,1.4,0,2-0.1s1.2-0.3,1.9-0.5
		c0.6-0.3,1.2-0.6,1.6-1c0.4-0.4,0.8-1,1.1-1.7c0.3-0.7,0.4-1.5,0.4-2.4V72c-1.3,1.1-3.3,1.7-6,1.7c-1.2,0.1-2.2,0.4-2.7,0.8
		c-0.6,0.4-0.9,1-0.9,1.8c0,0.7,0.2,1.2,0.7,1.6C341.5,78.3,342.2,78.5,343,78.5z"/>
	<path class="st0" d="M357.4,92.9v-4.6c0-0.5,0.2-1,0.5-1.3c0.3-0.3,0.8-0.5,1.3-0.5h1.3c0.8,0,1.5-0.3,2-0.8
		c0.5-0.5,0.8-1.2,0.8-2.1V58.2h6.9v25.5c0,2.9-0.8,5.2-2.4,6.8c-1.6,1.6-3.8,2.5-6.7,2.5H357.4z M369.4,54.8c-0.7,0.7-1.6,1-2.7,1
		s-2-0.3-2.7-1c-0.7-0.7-1.1-1.6-1.1-2.7c0-1.1,0.4-2,1.1-2.7c0.7-0.7,1.6-1.1,2.7-1.1s2,0.4,2.7,1.1c0.7,0.7,1.1,1.6,1.1,2.7
		C370.5,53.2,370.1,54.1,369.4,54.8z"/>
	<path class="st0" d="M398.6,77.3c0.3,0.3,0.5,0.9,0.5,1.7v4.9h-0.7c-3,0-5.1-1-6.4-2.9c-2.1,2.2-5.1,3.3-9.1,3.3
		c-2.5,0-4.6-0.7-6.1-2s-2.2-3.2-2.2-5.5c0-2.2,0.7-4.1,2.1-5.6c1.4-1.5,3.6-2.4,6.5-2.8c3.7-0.4,6.2-1,7.4-1.7v-0.1
		c0-0.8-0.4-1.5-1.2-2c-0.8-0.5-1.8-0.8-2.9-0.8c-0.6,0-1.2,0-1.7,0.1c-0.5,0.1-1,0.2-1.5,0.4c-0.5,0.2-0.8,0.3-1,0.4
		c-0.2,0.1-0.6,0.3-1,0.6c-0.4,0.3-0.7,0.4-0.7,0.4c-0.6,0.3-1.1,0.4-1.7,0.3c-0.6-0.1-1-0.4-1.3-0.8l-2.1-2.9
		c0.3-0.4,0.8-0.9,1.4-1.3c0.6-0.5,1.3-0.9,2.2-1.5c0.9-0.5,1.9-0.9,3.2-1.3s2.5-0.5,3.8-0.5c3.8,0,6.6,0.9,8.6,2.6
		c2,1.7,2.9,4.3,2.9,7.7v7.2C397.6,76.2,397.9,76.8,398.6,77.3L398.6,77.3z M383.8,78.5c0.7,0,1.4,0,2-0.1s1.2-0.3,1.9-0.5
		c0.6-0.3,1.2-0.6,1.6-1c0.4-0.4,0.8-1,1.1-1.7c0.3-0.7,0.4-1.5,0.4-2.4V72c-1.3,1.1-3.3,1.7-6,1.7c-1.2,0.1-2.2,0.4-2.7,0.8
		c-0.6,0.4-0.9,1-0.9,1.8c0,0.7,0.2,1.2,0.7,1.6C382.3,78.3,383,78.5,383.8,78.5z"/>
	<path class="st0" d="M416.8,57.8c3.3,0,5.8,0.9,7.5,2.8s2.6,4.6,2.6,8.1v15.1H420V69.5c0-1.9-0.3-3.4-1-4.3
		c-0.6-0.9-1.8-1.4-3.4-1.4c-1.6,0-2.8,0.5-3.7,1.5c-0.9,1-1.3,2.4-1.3,4.2v14.3h-6.9V58.2h5.2c0.3,0,0.5,0.1,0.7,0.3
		c0.2,0.2,0.3,0.4,0.3,0.7v1.9C411.7,58.9,414,57.8,416.8,57.8z"/>
	<path class="st0" d="M436.8,55.5c-1.1,0-2-0.3-2.7-1c-0.7-0.7-1-1.6-1-2.7c0-1.1,0.3-2,1-2.7c0.7-0.7,1.6-1.1,2.7-1.1
		c1.1,0,2,0.4,2.7,1.1c0.7,0.7,1.1,1.6,1.1,2.7c0,1.1-0.4,2-1.1,2.7C438.8,55.2,437.9,55.5,436.8,55.5z M433.3,83.8V58.2h6.9v25.6
		H433.3z"/>
	<path class="st0" d="M448.7,65.3c-1.1,0-2-0.4-2.7-1.1c-0.7-0.7-1.1-1.6-1.1-2.7c0-1.1,0.4-2,1.1-2.7c0.7-0.7,1.6-1,2.7-1
		c1.1,0,2,0.4,2.7,1c0.7,0.7,1,1.6,1,2.7c0,1.1-0.3,2-1,2.7C450.7,64.9,449.8,65.3,448.7,65.3z M448.7,84.4c-1.1,0-2-0.4-2.7-1.1
		c-0.7-0.7-1.1-1.6-1.1-2.7c0-1.1,0.4-2,1.1-2.7c0.7-0.7,1.6-1,2.7-1c1.1,0,2,0.4,2.7,1c0.7,0.7,1,1.6,1,2.7c0,1.1-0.3,2-1,2.7
		C450.7,84,449.8,84.4,448.7,84.4z"/>
	<path class="st0" d="M11.7,131.9c-2.7,0-4.7-0.7-6.2-2.2c-1.5-1.5-2.2-3.6-2.2-6.2V97.7h6.9v25.7c0,0.6,0.2,1.2,0.6,1.5
		c0.4,0.4,0.9,0.6,1.5,0.6h1.3c0.5,0,1,0.2,1.3,0.5c0.3,0.3,0.5,0.8,0.5,1.3v4.6H11.7z"/>
	<path class="st0" d="M41.6,125.3c0.3,0.3,0.5,0.9,0.5,1.7v4.9h-0.7c-3,0-5.1-1-6.4-2.9c-2.1,2.2-5.1,3.3-9.1,3.3
		c-2.5,0-4.6-0.7-6.1-2c-1.5-1.4-2.2-3.2-2.2-5.5c0-2.2,0.7-4.1,2.1-5.6c1.4-1.5,3.6-2.4,6.5-2.8c3.7-0.4,6.2-1,7.4-1.7v-0.1
		c0-0.8-0.4-1.5-1.2-2c-0.8-0.5-1.8-0.8-2.9-0.8c-0.6,0-1.2,0-1.7,0.1c-0.5,0.1-1,0.2-1.5,0.4c-0.5,0.2-0.8,0.3-1,0.4
		s-0.6,0.3-1,0.6c-0.4,0.3-0.7,0.4-0.7,0.4c-0.6,0.3-1.1,0.4-1.7,0.3c-0.6-0.1-1-0.4-1.3-0.8l-2.1-2.9c0.3-0.4,0.8-0.9,1.4-1.3
		c0.6-0.5,1.3-0.9,2.2-1.5c0.9-0.5,1.9-0.9,3.2-1.3c1.2-0.3,2.5-0.5,3.8-0.5c3.8,0,6.6,0.9,8.6,2.6c2,1.7,2.9,4.3,2.9,7.7v7.2
		C40.6,124.2,40.9,124.8,41.6,125.3L41.6,125.3z M26.8,126.5c0.7,0,1.4,0,2-0.1c0.6-0.1,1.2-0.3,1.9-0.5s1.2-0.6,1.6-1
		c0.4-0.4,0.8-1,1.1-1.7c0.3-0.7,0.4-1.5,0.4-2.4V120c-1.3,1.1-3.3,1.7-6,1.7c-1.2,0.1-2.2,0.4-2.7,0.8s-0.9,1-0.9,1.8
		c0,0.7,0.2,1.2,0.7,1.6C25.4,126.3,26,126.5,26.8,126.5z"/>
	<path class="st0" d="M68.6,132.3c-2.2,0-4.2-0.3-6.1-0.9c-1.9-0.6-3.4-1.4-4.5-2.4l2.7-4.1c0.2-0.3,0.5-0.5,0.8-0.5
		c0.3-0.1,0.7,0,1,0.2c2,1.2,4,1.7,6,1.7c1.2,0,2.1-0.2,2.7-0.6c0.6-0.4,0.9-0.9,0.9-1.6c0-0.5-0.2-1-0.6-1.3
		c-0.4-0.4-1-0.6-1.7-0.8c-0.6-0.2-1.5-0.4-2.7-0.6s-2.1-0.5-2.8-0.7c-1.8-0.5-3.2-1.3-4.3-2.6c-1-1.2-1.6-2.8-1.6-4.5
		c0-2.4,0.9-4.4,2.7-5.8c1.8-1.5,4.2-2.2,7.1-2.2c1.9,0,3.7,0.3,5.4,0.9c1.7,0.6,3.1,1.4,4.1,2.3l-2.5,4.1c-0.4,0.7-1,0.8-1.7,0.4
		c-2-1.2-4-1.8-6-1.8c-0.8,0-1.4,0.2-1.8,0.5s-0.7,0.7-0.7,1.2c0,0.4,0.1,0.7,0.4,1s0.7,0.5,1.2,0.6c1.1,0.3,2.6,0.8,4.5,1.2
		c2.5,0.6,4.4,1.6,5.7,3c1.3,1.4,2,3.1,2,5c0,2.5-0.9,4.4-2.7,5.9C74.3,131.6,71.8,132.3,68.6,132.3z"/>
	<path class="st0" d="M94.1,132.4c-3.9,0-7.1-1.2-9.4-3.7c-2.3-2.4-3.5-5.6-3.5-9.6c0-4.1,1.2-7.4,3.5-9.8c2.3-2.4,5.4-3.6,9.4-3.6
		c3.1,0,5.7,0.8,7.8,2.3c2.1,1.5,3.5,3.8,4.2,6.7l-5.3,1c-1,0.2-1.7-0.1-2.1-0.9c-0.8-2.1-2.4-3.1-4.6-3.1c-1.9,0-3.4,0.7-4.4,2
		c-1,1.4-1.5,3.1-1.5,5.3c0,2.1,0.5,3.8,1.6,5.2s2.5,2,4.4,2c1.3,0,2.3-0.3,3-0.8s1.3-1.4,1.7-2.6c0.2-0.4,0.5-0.7,0.9-0.9
		c0.4-0.2,0.9-0.2,1.3-0.1l5.2,1c-0.6,3.1-2.1,5.4-4.2,7.1C99.9,131.5,97.3,132.4,94.1,132.4z"/>
	<path class="st0" d="M121.8,105.7c3.9,0,7,1.3,9.4,3.8s3.6,5.9,3.6,10v1.1c0,0.3-0.1,0.5-0.3,0.7c-0.2,0.2-0.4,0.3-0.7,0.3H116
		c0.4,1.4,1.1,2.6,2.1,3.5c1,0.9,2.3,1.3,3.8,1.3c1.1,0,2.1-0.3,2.9-0.8c0.8-0.6,1.4-1.2,1.9-2c0.3-0.5,0.8-0.6,1.3-0.4l5.8,2
		c-0.9,2.2-2.3,4-4.3,5.3c-2,1.3-4.5,1.9-7.5,1.9c-3.9,0-7.1-1.2-9.5-3.7c-2.4-2.4-3.6-5.6-3.6-9.6c0-4,1.2-7.3,3.6-9.7
		C114.8,106.9,117.9,105.7,121.8,105.7z M121.8,111.7c-1.4,0-2.6,0.4-3.6,1.1c-1,0.7-1.7,1.8-2.1,3.1h11.3c-0.5-1.3-1.2-2.3-2.2-3.1
		C124.3,112.1,123.2,111.7,121.8,111.7z"/>
	<path class="st0" d="M148,131.9c-2.7,0-4.7-0.7-6.2-2.2c-1.5-1.5-2.2-3.6-2.2-6.2V97.7h6.9v25.7c0,0.6,0.2,1.2,0.6,1.5
		c0.4,0.4,0.9,0.6,1.5,0.6h1.3c0.5,0,1,0.2,1.3,0.5c0.3,0.3,0.5,0.8,0.5,1.3v4.6H148z"/>
	<path class="st0" d="M171.5,112.3h-7.4v10.4c0,0.8,0.3,1.5,0.8,2.1c0.5,0.5,1.2,0.8,2,0.8h2.9c0.6,0,1,0.2,1.3,0.5
		c0.3,0.3,0.5,0.8,0.5,1.3v4.6h-5.3c-2.8,0-5.1-0.8-6.7-2.5c-1.6-1.6-2.4-3.9-2.4-6.8v-10.4h-2.2c-0.5,0-1-0.2-1.3-0.5
		s-0.5-0.8-0.5-1.3v-4.2h4v-8.5h6.9v8.5h7.4V112.3z"/>
	<path class="st0" d="M198.8,125.3c0.3,0.3,0.5,0.9,0.5,1.7v4.9h-0.7c-3,0-5.1-1-6.4-2.9c-2.1,2.2-5.1,3.3-9.1,3.3
		c-2.5,0-4.6-0.7-6.1-2c-1.5-1.4-2.2-3.2-2.2-5.5c0-2.2,0.7-4.1,2.1-5.6c1.4-1.5,3.6-2.4,6.5-2.8c3.7-0.4,6.2-1,7.4-1.7v-0.1
		c0-0.8-0.4-1.5-1.2-2c-0.8-0.5-1.8-0.8-2.9-0.8c-0.6,0-1.2,0-1.7,0.1c-0.5,0.1-1,0.2-1.5,0.4c-0.5,0.2-0.8,0.3-1,0.4
		s-0.6,0.3-1,0.6c-0.4,0.3-0.7,0.4-0.7,0.4c-0.6,0.3-1.1,0.4-1.7,0.3c-0.6-0.1-1-0.4-1.3-0.8l-2.1-2.9c0.3-0.4,0.8-0.9,1.4-1.3
		c0.6-0.5,1.3-0.9,2.2-1.5c0.9-0.5,1.9-0.9,3.2-1.3c1.2-0.3,2.5-0.5,3.8-0.5c3.8,0,6.6,0.9,8.6,2.6c2,1.7,2.9,4.3,2.9,7.7v7.2
		C197.8,124.2,198.2,124.8,198.8,125.3L198.8,125.3z M184.1,126.5c0.7,0,1.4,0,2-0.1c0.6-0.1,1.2-0.3,1.9-0.5s1.2-0.6,1.6-1
		c0.4-0.4,0.8-1,1.1-1.7c0.3-0.7,0.4-1.5,0.4-2.4V120c-1.3,1.1-3.3,1.7-6,1.7c-1.2,0.1-2.2,0.4-2.7,0.8s-0.9,1-0.9,1.8
		c0,0.7,0.2,1.2,0.7,1.6C182.6,126.3,183.3,126.5,184.1,126.5z"/>
	<path class="st0" d="M231.7,105.8c3.5,0,6.3,1.2,8.4,3.6c2.1,2.4,3.1,5.6,3.1,9.6c0,4.2-1,7.5-3.1,9.8s-5,3.5-8.8,3.5
		c-2.8,0-5-0.8-6.8-2.3v10.3h-6.9v-34.1h5.2c0.3,0,0.5,0.1,0.7,0.3c0.2,0.2,0.3,0.4,0.3,0.7v2.2C225.9,107,228.5,105.8,231.7,105.8z
		 M230.4,126.3c1.8,0,3.3-0.7,4.3-2c1.1-1.3,1.6-3.1,1.6-5.2s-0.5-3.9-1.5-5.2c-1-1.3-2.5-2-4.3-2c-1.8,0-3.3,0.6-4.4,1.9
		s-1.6,2.9-1.7,5v0.5c0,2.2,0.5,3.9,1.6,5.2C227.1,125.6,228.6,126.3,230.4,126.3z"/>
	<path class="st0" d="M259,105.7c3.9,0,7,1.3,9.4,3.8s3.6,5.9,3.6,10v1.1c0,0.3-0.1,0.5-0.3,0.7c-0.2,0.2-0.4,0.3-0.7,0.3h-17.9
		c0.4,1.4,1.1,2.6,2.1,3.5c1,0.9,2.3,1.3,3.8,1.3c1.1,0,2.1-0.3,2.9-0.8c0.8-0.6,1.4-1.2,1.9-2c0.3-0.5,0.8-0.6,1.3-0.4l5.8,2
		c-0.9,2.2-2.3,4-4.3,5.3c-2,1.3-4.5,1.9-7.5,1.9c-3.9,0-7.1-1.2-9.5-3.7c-2.4-2.4-3.6-5.6-3.6-9.6c0-4,1.2-7.3,3.6-9.7
		C252,106.9,255.1,105.7,259,105.7z M259,111.7c-1.4,0-2.6,0.4-3.6,1.1c-1,0.7-1.7,1.8-2.1,3.1h11.3c-0.5-1.3-1.2-2.3-2.2-3.1
		C261.5,112.1,260.4,111.7,259,111.7z"/>
	<path class="st0" d="M290.6,106.2h0.4v3.9c0,0.6-0.2,1-0.5,1.3c-0.3,0.3-0.7,0.5-1.2,0.5H289c-2,0-3.4,0.6-4.4,1.8s-1.5,2.8-1.5,5
		v13h-6.9v-25.6h5.2c0.3,0,0.5,0.1,0.7,0.3c0.2,0.2,0.3,0.4,0.3,0.7v2.5C284.3,107.4,287.1,106.2,290.6,106.2z"/>
	<path class="st0" d="M303.8,96.8h5.4v4.5c0,0.5-0.2,0.9-0.5,1.3c-0.3,0.3-0.8,0.5-1.3,0.5h-3.1c-0.7,0-1.2,0.2-1.6,0.7
		c-0.4,0.5-0.6,1-0.6,1.7v0.8h4.7v6.1h-4.7v19.5h-6.9v-19.5h-1.5c-0.5,0-0.9-0.2-1.3-0.5s-0.5-0.8-0.5-1.3v-4.2h3.3v-0.8
		c0-2.7,0.8-4.8,2.3-6.4C299,97.5,301.1,96.8,303.8,96.8z"/>
	<path class="st0" d="M321.8,105.7c3.9,0,7,1.3,9.4,3.8s3.6,5.9,3.6,10v1.1c0,0.3-0.1,0.5-0.3,0.7c-0.2,0.2-0.4,0.3-0.7,0.3H316
		c0.4,1.4,1.1,2.6,2.1,3.5c1,0.9,2.3,1.3,3.8,1.3c1.1,0,2.1-0.3,2.9-0.8c0.8-0.6,1.4-1.2,1.9-2c0.3-0.5,0.8-0.6,1.3-0.4l5.8,2
		c-0.9,2.2-2.3,4-4.3,5.3c-2,1.3-4.5,1.9-7.5,1.9c-3.9,0-7.1-1.2-9.5-3.7c-2.4-2.4-3.6-5.6-3.6-9.6c0-4,1.2-7.3,3.6-9.7
		C314.8,106.9,317.9,105.7,321.8,105.7z M321.8,111.7c-1.4,0-2.6,0.4-3.6,1.1c-1,0.7-1.7,1.8-2.1,3.1h11.3c-0.5-1.3-1.2-2.3-2.2-3.1
		C324.3,112.1,323.2,111.7,321.8,111.7z"/>
	<path class="st0" d="M355.1,112.3h-7.4v10.4c0,0.8,0.3,1.5,0.8,2.1c0.5,0.5,1.2,0.8,2,0.8h2.9c0.5,0,1,0.2,1.3,0.5
		c0.3,0.3,0.5,0.8,0.5,1.3v4.6h-5.3c-2.8,0-5.1-0.8-6.7-2.5c-1.6-1.6-2.4-3.9-2.4-6.8v-10.4h-2.2c-0.5,0-1-0.2-1.3-0.5
		s-0.5-0.8-0.5-1.3v-4.2h4v-8.5h6.9v8.5h7.4V112.3z"/>
	<path class="st0" d="M376,112.3h-7.4v10.4c0,0.8,0.3,1.5,0.8,2.1c0.5,0.5,1.2,0.8,2,0.8h2.9c0.5,0,1,0.2,1.3,0.5
		c0.3,0.3,0.5,0.8,0.5,1.3v4.6h-5.3c-2.8,0-5.1-0.8-6.7-2.5c-1.6-1.6-2.4-3.9-2.4-6.8v-10.4h-2.2c-0.5,0-1-0.2-1.3-0.5
		s-0.5-0.8-0.5-1.3v-4.2h4v-8.5h6.9v8.5h7.4V112.3z"/>
	<path class="st0" d="M403.4,125.3c0.3,0.3,0.5,0.9,0.5,1.7v4.9h-0.7c-3,0-5.1-1-6.4-2.9c-2.1,2.2-5.1,3.3-9.1,3.3
		c-2.5,0-4.6-0.7-6.1-2s-2.2-3.2-2.2-5.5c0-2.2,0.7-4.1,2.1-5.6c1.4-1.5,3.6-2.4,6.5-2.8c3.7-0.4,6.2-1,7.4-1.7v-0.1
		c0-0.8-0.4-1.5-1.2-2c-0.8-0.5-1.8-0.8-2.9-0.8c-0.6,0-1.2,0-1.7,0.1c-0.5,0.1-1,0.2-1.5,0.4c-0.5,0.2-0.8,0.3-1,0.4
		c-0.2,0.1-0.6,0.3-1,0.6c-0.4,0.3-0.7,0.4-0.7,0.4c-0.6,0.3-1.1,0.4-1.7,0.3c-0.6-0.1-1-0.4-1.3-0.8l-2.1-2.9
		c0.3-0.4,0.8-0.9,1.4-1.3c0.6-0.5,1.3-0.9,2.2-1.5c0.9-0.5,1.9-0.9,3.2-1.3s2.5-0.5,3.8-0.5c3.8,0,6.6,0.9,8.6,2.6
		c2,1.7,2.9,4.3,2.9,7.7v7.2C402.4,124.2,402.7,124.8,403.4,125.3L403.4,125.3z M388.6,126.5c0.7,0,1.4,0,2-0.1s1.2-0.3,1.9-0.5
		c0.6-0.3,1.2-0.6,1.6-1c0.4-0.4,0.8-1,1.1-1.7c0.3-0.7,0.4-1.5,0.4-2.4V120c-1.3,1.1-3.3,1.7-6,1.7c-1.2,0.1-2.2,0.4-2.7,0.8
		c-0.6,0.4-0.9,1-0.9,1.8c0,0.7,0.2,1.2,0.7,1.6C387.2,126.3,387.8,126.5,388.6,126.5z"/>
	<path class="st0" d="M17.5,153.8c3.5,0,6.3,1.2,8.4,3.6c2.1,2.4,3.1,5.6,3.1,9.6c0,4.2-1,7.5-3.1,9.8c-2.1,2.3-5,3.5-8.8,3.5
		c-2.8,0-5-0.8-6.8-2.3v10.3H3.3v-34.1h5.2c0.3,0,0.5,0.1,0.7,0.3c0.2,0.2,0.3,0.4,0.3,0.7v2.2C11.6,155,14.3,153.8,17.5,153.8z
		 M16.2,174.3c1.8,0,3.3-0.7,4.3-2c1.1-1.3,1.6-3.1,1.6-5.2s-0.5-3.9-1.5-5.2c-1-1.3-2.5-2-4.3-2s-3.3,0.6-4.4,1.9
		c-1.1,1.2-1.6,2.9-1.7,5v0.5c0,2.2,0.5,3.9,1.6,5.2C12.8,173.6,14.3,174.3,16.2,174.3z"/>
	<path class="st0" d="M44.8,153.7c3.9,0,7,1.3,9.4,3.8s3.6,5.9,3.6,10v1.1c0,0.3-0.1,0.5-0.3,0.7c-0.2,0.2-0.4,0.3-0.7,0.3H38.9
		c0.4,1.4,1.1,2.6,2.1,3.5c1,0.9,2.3,1.3,3.8,1.3c1.1,0,2.1-0.3,2.9-0.8c0.8-0.6,1.4-1.2,1.9-2c0.3-0.5,0.8-0.6,1.3-0.4l5.8,2
		c-0.9,2.2-2.3,4-4.3,5.3c-2,1.3-4.5,1.9-7.5,1.9c-3.9,0-7.1-1.2-9.5-3.7c-2.4-2.4-3.6-5.6-3.6-9.6c0-4,1.2-7.3,3.6-9.7
		C37.7,154.9,40.9,153.7,44.8,153.7z M44.8,159.7c-1.4,0-2.6,0.4-3.6,1.1c-1,0.7-1.7,1.8-2.1,3.1h11.3c-0.5-1.3-1.2-2.3-2.2-3.1
		C47.3,160.1,46.1,159.7,44.8,159.7z"/>
	<path class="st0" d="M76.3,154.2h0.4v3.9c0,0.6-0.2,1-0.5,1.3c-0.3,0.3-0.7,0.5-1.2,0.5h-0.3c-2,0-3.4,0.6-4.4,1.8
		c-1,1.2-1.5,2.8-1.5,5v13h-6.9v-25.6h5.2c0.3,0,0.5,0.1,0.7,0.3c0.2,0.2,0.3,0.4,0.3,0.7v2.5C70,155.4,72.8,154.2,76.3,154.2z"/>
	<path class="st0" d="M97.2,151.5c-1.1,0-2-0.3-2.7-1c-0.7-0.7-1-1.6-1-2.7c0-1.1,0.3-2,1-2.7c0.7-0.7,1.6-1.1,2.7-1.1
		c1.1,0,2,0.4,2.7,1.1c0.7,0.7,1.1,1.6,1.1,2.7c0,1.1-0.4,2-1.1,2.7C99.2,151.2,98.3,151.5,97.2,151.5z M93.8,179.8v-25.6h6.9v25.6
		H93.8z"/>
	<path class="st0" d="M136.5,160.3h-7.4v10.4c0,0.8,0.3,1.5,0.8,2.1c0.5,0.5,1.2,0.8,2,0.8h2.9c0.6,0,1,0.2,1.3,0.5
		c0.3,0.3,0.5,0.8,0.5,1.3v4.6h-5.3c-2.8,0-5.1-0.8-6.7-2.5c-1.6-1.6-2.4-3.9-2.4-6.8v-10.4H120c-0.5,0-1-0.2-1.3-0.5
		s-0.5-0.8-0.5-1.3v-4.2h4v-8.5h6.9v8.5h7.4V160.3z"/>
	<path class="st0" d="M157.9,154.2h6.9v25.6h-5.2c-0.3,0-0.5-0.1-0.7-0.3c-0.2-0.2-0.3-0.4-0.3-0.7V177c-1.8,2.2-4.1,3.3-6.9,3.3
		c-3.3,0-5.9-0.9-7.6-2.7c-1.7-1.8-2.5-4.4-2.5-7.9v-15.4h6.9v14.3c0,1.9,0.3,3.4,1,4.3c0.6,0.9,1.8,1.4,3.4,1.4
		c1.6,0,2.8-0.5,3.7-1.5c0.9-1,1.3-2.4,1.3-4.2V154.2z"/>
	<path class="st0" d="M191.8,176.7c-2.3,2.4-5.4,3.6-9.4,3.6s-7-1.2-9.4-3.6c-2.3-2.4-3.5-5.7-3.5-9.7c0-4.1,1.2-7.3,3.5-9.7
		c2.3-2.4,5.4-3.6,9.4-3.6s7,1.2,9.4,3.6c2.3,2.4,3.5,5.7,3.5,9.7C195.3,171.1,194.1,174.3,191.8,176.7z M178.1,172.3
		c1,1.3,2.5,2,4.4,2c1.9,0,3.3-0.7,4.4-2c1-1.3,1.6-3.1,1.6-5.3c0-2.2-0.5-3.9-1.6-5.3c-1-1.3-2.5-2-4.4-2c-1.9,0-3.3,0.7-4.4,2
		c-1,1.3-1.6,3.1-1.6,5.3C176.5,169.2,177,171,178.1,172.3z"/>
	<path class="st0" d="M203.2,151.5c-1.1,0-2-0.3-2.7-1c-0.7-0.7-1-1.6-1-2.7c0-1.1,0.3-2,1-2.7c0.7-0.7,1.6-1.1,2.7-1.1
		c1.1,0,2,0.4,2.7,1.1c0.7,0.7,1.1,1.6,1.1,2.7c0,1.1-0.4,2-1.1,2.7C205.3,151.2,204.4,151.5,203.2,151.5z M199.8,179.8v-25.6h6.9
		v25.6H199.8z"/>
	<path class="st0" d="M240.9,154.2h0.4v3.9c0,0.6-0.2,1-0.5,1.3c-0.3,0.3-0.7,0.5-1.2,0.5h-0.3c-2,0-3.4,0.6-4.4,1.8s-1.5,2.8-1.5,5
		v13h-6.9v-25.6h5.2c0.3,0,0.5,0.1,0.7,0.3c0.2,0.2,0.3,0.4,0.3,0.7v2.5C234.6,155.4,237.4,154.2,240.9,154.2z"/>
	<path class="st0" d="M255.8,153.7c3.9,0,7,1.3,9.4,3.8s3.6,5.9,3.6,10v1.1c0,0.3-0.1,0.5-0.3,0.7c-0.2,0.2-0.4,0.3-0.7,0.3h-17.9
		c0.4,1.4,1.1,2.6,2.1,3.5c1,0.9,2.3,1.3,3.8,1.3c1.1,0,2.1-0.3,2.9-0.8c0.8-0.6,1.4-1.2,1.9-2c0.3-0.5,0.8-0.6,1.3-0.4l5.8,2
		c-0.9,2.2-2.3,4-4.3,5.3c-2,1.3-4.5,1.9-7.5,1.9c-3.9,0-7.1-1.2-9.5-3.7c-2.4-2.4-3.6-5.6-3.6-9.6c0-4,1.2-7.3,3.6-9.7
		C248.8,154.9,251.9,153.7,255.8,153.7z M255.8,159.7c-1.4,0-2.6,0.4-3.6,1.1c-1,0.7-1.7,1.8-2.1,3.1h11.3c-0.5-1.3-1.2-2.3-2.2-3.1
		C258.3,160.1,257.1,159.7,255.8,159.7z"/>
	<path class="st0" d="M288,175.1c2.8,0,5,0.6,6.5,1.7c1.5,1.1,2.2,2.8,2.2,5c0,2.2-1,4.1-3.1,5.5s-5.3,2.1-9.7,2.1
		c-3.9,0-6.9-0.7-9.1-2.2c-2.2-1.4-3.3-3.3-3.3-5.4c0-1.4,0.3-2.6,1-3.5c0.7-1,1.4-1.6,2.1-1.9c-0.4-0.1-0.8-0.4-1.2-1
		c-0.5-0.6-0.7-1.3-0.7-2.2c0-1.7,0.7-2.9,2.2-3.8c-1.7-1.7-2.6-3.8-2.6-6.3c0-3,1-5.3,2.9-6.9c1.9-1.6,4.6-2.4,8-2.4
		c2.6,0,4.8,0.5,6.6,1.5c0.6-0.6,1.5-0.9,2.6-0.9h3.5v4c0,0.5-0.1,0.8-0.4,1.1c-0.3,0.3-0.6,0.4-1.1,0.4h-0.7c0.3,1,0.5,2.1,0.5,3.3
		c0,3-1,5.3-3.1,6.9c-2.1,1.6-4.9,2.4-8.4,2.4h-1.7c-0.6,0-1.2,0.1-1.6,0.3c-0.4,0.2-0.6,0.6-0.6,1c0,0.9,0.9,1.4,2.7,1.4H288z
		 M284.1,183.6c2.3,0,3.9-0.2,5-0.6c1.1-0.4,1.6-0.9,1.6-1.6c0-1-0.9-1.6-2.8-1.6h-7c-2,0-2.9,0.5-2.9,1.6c0,0.6,0.6,1.1,1.8,1.5
		S282.3,183.6,284.1,183.6z M286.4,160.4c-0.8-0.6-1.9-0.9-3.3-0.9c-1.4,0-2.5,0.3-3.3,0.9c-0.8,0.6-1.2,1.5-1.2,2.5
		c0,1.1,0.4,2,1.2,2.6c0.8,0.6,1.9,0.9,3.2,0.9c1.4,0,2.5-0.3,3.3-0.9c0.8-0.6,1.2-1.5,1.2-2.6C287.7,161.9,287.3,161,286.4,160.4z"
		/>
	<path class="st0" d="M321.8,173.3c0.3,0.3,0.5,0.9,0.5,1.7v4.9h-0.7c-3,0-5.1-1-6.4-2.9c-2.1,2.2-5.1,3.3-9.1,3.3
		c-2.5,0-4.6-0.7-6.1-2s-2.2-3.2-2.2-5.5c0-2.2,0.7-4.1,2.1-5.6c1.4-1.5,3.6-2.4,6.5-2.8c3.7-0.4,6.2-1,7.4-1.7v-0.1
		c0-0.8-0.4-1.5-1.2-2c-0.8-0.5-1.8-0.8-2.9-0.8c-0.6,0-1.2,0-1.7,0.1c-0.5,0.1-1,0.2-1.5,0.4c-0.5,0.2-0.8,0.3-1,0.4
		c-0.2,0.1-0.6,0.3-1,0.6c-0.4,0.3-0.7,0.4-0.7,0.4c-0.6,0.3-1.1,0.4-1.7,0.3c-0.6-0.1-1-0.4-1.3-0.8l-2.1-2.9
		c0.3-0.4,0.8-0.9,1.4-1.3c0.6-0.5,1.3-0.9,2.2-1.5c0.9-0.5,1.9-0.9,3.2-1.3s2.5-0.5,3.8-0.5c3.8,0,6.6,0.9,8.6,2.6
		c2,1.7,2.9,4.3,2.9,7.7v7.2C320.9,172.2,321.2,172.8,321.8,173.3L321.8,173.3z M307.1,174.5c0.7,0,1.4,0,2-0.1s1.2-0.3,1.9-0.5
		c0.6-0.3,1.2-0.6,1.6-1c0.4-0.4,0.8-1,1.1-1.7c0.3-0.7,0.4-1.5,0.4-2.4V168c-1.3,1.1-3.3,1.7-6,1.7c-1.2,0.1-2.2,0.4-2.7,0.8
		c-0.6,0.4-0.9,1-0.9,1.8c0,0.7,0.2,1.2,0.7,1.6C305.6,174.3,306.3,174.5,307.1,174.5z"/>
	<path class="st0" d="M335.4,179.9c-2.7,0-4.7-0.7-6.2-2.2c-1.5-1.5-2.2-3.6-2.2-6.2v-25.7h6.9v25.7c0,0.6,0.2,1.2,0.6,1.5
		c0.4,0.4,0.9,0.6,1.5,0.6h1.3c0.5,0,1,0.2,1.3,0.5c0.3,0.3,0.5,0.8,0.5,1.3v4.6H335.4z"/>
	<path class="st0" d="M346.8,151.5c-1.1,0-2-0.3-2.7-1c-0.7-0.7-1-1.6-1-2.7c0-1.1,0.3-2,1-2.7c0.7-0.7,1.6-1.1,2.7-1.1
		c1.1,0,2,0.4,2.7,1.1c0.7,0.7,1.1,1.6,1.1,2.7c0,1.1-0.4,2-1.1,2.7C348.8,151.2,347.9,151.5,346.8,151.5z M343.4,179.8v-25.6h6.9
		v25.6H343.4z"/>
</g>
</svg>
