<?xml version="1.0" encoding="utf-8"?>
<!-- Generator: Adobe Illustrator 24.3.0, SVG Export Plug-In . SVG Version: 6.00 Build 0)  -->
<svg version="1.1" id="Laag_1" xmlns:v="https://vecta.io/nano"
	 xmlns="http://www.w3.org/2000/svg" xmlns:xlink="http://www.w3.org/1999/xlink" x="0px" y="0px" width="358.9px" height="132.4px"
	 viewBox="0 0 358.9 132.4" style="enable-background:new 0 0 358.9 132.4;" xml:space="preserve">
<style type="text/css">
	.st0{fill:#6A3F24;}
</style>
<g>
	<path class="st0" d="M13.8,36.3c-5.9,0-10.5-1.6-13.8-4.7l3.3-4.1c0.6-0.7,1.2-0.8,1.9-0.2c1,0.7,2.3,1.3,3.8,1.8
		c1.6,0.5,3.3,0.7,5.2,0.7c1.8,0,3.2-0.4,4.3-1.1c1.1-0.7,1.7-1.6,1.7-2.7c0.1-1-0.2-1.8-1-2.6s-1.9-1.3-3.5-1.7l-6-1.6
		c-2.7-0.7-4.9-1.8-6.5-3.4c-1.6-1.6-2.4-3.6-2.4-6c0-3,1.1-5.4,3.4-7.1C6.7,2,9.8,1.2,13.6,1.2c1.6,0,3.2,0.2,4.7,0.6
		c1.5,0.4,2.8,0.9,3.8,1.4c1,0.6,1.8,1,2.3,1.4c0.5,0.4,0.9,0.7,1.2,1l-3.2,4.1c-0.3,0.3-0.6,0.5-1,0.5c-0.4,0-0.8,0-1.1-0.3
		c-2.7-1.7-5.1-2.5-7.4-2.5c-3.1,0-4.7,1-4.8,3c0,0.8,0.2,1.4,0.8,2c0.6,0.6,1.4,1,2.5,1.2l6.5,1.8c3.1,0.8,5.5,2.1,7.2,3.9
		c1.7,1.8,2.5,4,2.5,6.6c0,3.2-1.3,5.7-3.8,7.6S18,36.3,13.8,36.3z"/>
	<path class="st0" d="M42.5,36.4c-3.9,0-7.1-1.2-9.4-3.7c-2.3-2.4-3.5-5.6-3.5-9.6c0-4.1,1.2-7.4,3.5-9.8c2.3-2.4,5.4-3.6,9.4-3.6
		c3.1,0,5.7,0.8,7.8,2.3c2.1,1.5,3.5,3.8,4.2,6.7l-5.3,1c-1,0.2-1.7-0.1-2.1-0.9c-0.8-2.1-2.4-3.1-4.6-3.1c-1.9,0-3.4,0.7-4.4,2
		c-1,1.4-1.5,3.1-1.5,5.3c0,2.1,0.5,3.8,1.6,5.2s2.5,2,4.4,2c1.3,0,2.3-0.3,3-0.8s1.3-1.4,1.7-2.6c0.2-0.4,0.5-0.7,0.9-0.9
		c0.4-0.2,0.9-0.2,1.3-0.1l5.2,1c-0.6,3.1-2.1,5.4-4.2,7.1C48.3,35.5,45.7,36.4,42.5,36.4z"/>
	<path class="st0" d="M79.3,32.7c-2.3,2.4-5.4,3.6-9.4,3.6s-7-1.2-9.4-3.6c-2.3-2.4-3.5-5.7-3.5-9.7c0-4.1,1.2-7.3,3.5-9.7
		c2.3-2.4,5.4-3.6,9.4-3.6s7,1.2,9.4,3.6c2.3,2.4,3.5,5.7,3.5,9.7C82.8,27.1,81.7,30.3,79.3,32.7z M65.6,28.3c1,1.3,2.5,2,4.4,2
		c1.9,0,3.3-0.7,4.4-2c1-1.3,1.6-3.1,1.6-5.3c0-2.2-0.5-3.9-1.6-5.3c-1-1.3-2.5-2-4.4-2c-1.9,0-3.3,0.7-4.4,2
		c-1,1.3-1.6,3.1-1.6,5.3C64.1,25.2,64.6,27,65.6,28.3z"/>
	<path class="st0" d="M101.8,9.8c3.5,0,6.3,1.2,8.4,3.6c2.1,2.4,3.1,5.6,3.1,9.6c0,4.2-1,7.5-3.1,9.8c-2.1,2.3-5,3.5-8.8,3.5
		c-2.8,0-5-0.8-6.8-2.3v10.3h-6.9V10.2h5.2c0.3,0,0.5,0.1,0.7,0.3c0.2,0.2,0.3,0.4,0.3,0.7v2.2C95.9,11,98.5,9.8,101.8,9.8z
		 M100.4,30.3c1.8,0,3.3-0.7,4.3-2c1.1-1.3,1.6-3.1,1.6-5.2s-0.5-3.9-1.5-5.2c-1-1.3-2.5-2-4.3-2s-3.3,0.6-4.4,1.9
		c-1.1,1.2-1.6,2.9-1.7,5v0.5c0,2.2,0.5,3.9,1.6,5.2C97.1,29.6,98.6,30.3,100.4,30.3z"/>
	<path class="st0" d="M131.6,10.2h0.4v3.9c0,0.6-0.2,1-0.5,1.3c-0.3,0.3-0.7,0.5-1.2,0.5H130c-2,0-3.4,0.6-4.4,1.8
		c-1,1.2-1.5,2.8-1.5,5v13h-6.9V10.2h5.2c0.3,0,0.5,0.1,0.7,0.3c0.2,0.2,0.3,0.4,0.3,0.7v2.5C125.4,11.4,128.1,10.2,131.6,10.2z"/>
	<path class="st0" d="M138.9,7.5c-1.1,0-2-0.3-2.7-1c-0.7-0.7-1-1.6-1-2.7c0-1.1,0.3-2,1-2.7c0.7-0.7,1.6-1.1,2.7-1.1
		c1.1,0,2,0.4,2.7,1.1c0.7,0.7,1.1,1.6,1.1,2.7c0,1.1-0.4,2-1.1,2.7C141,7.2,140,7.5,138.9,7.5z M135.5,35.8V10.2h6.9v25.6H135.5z"
		/>
	<path class="st0" d="M166.2,7.5c-1.1,0-2-0.3-2.7-1c-0.7-0.7-1-1.6-1-2.7c0-1.1,0.3-2,1-2.7c0.7-0.7,1.6-1.1,2.7-1.1
		c1.1,0,2,0.4,2.7,1.1c0.7,0.7,1.1,1.6,1.1,2.7c0,1.1-0.4,2-1.1,2.7C168.2,7.2,167.3,7.5,166.2,7.5z M162.8,35.8V10.2h6.9v25.6
		H162.8z"/>
	<path class="st0" d="M184.9,35.9c-2.7,0-4.7-0.7-6.2-2.2c-1.5-1.5-2.2-3.6-2.2-6.2V1.7h6.9v25.7c0,0.6,0.2,1.2,0.6,1.5
		c0.4,0.4,0.9,0.6,1.5,0.6h1.3c0.5,0,1,0.2,1.3,0.5c0.3,0.3,0.5,0.8,0.5,1.3v4.6H184.9z"/>
	<path class="st0" d="M220.3,10.2h0.4v3.9c0,0.6-0.2,1-0.5,1.3c-0.3,0.3-0.7,0.5-1.2,0.5h-0.3c-2,0-3.4,0.6-4.4,1.8s-1.5,2.8-1.5,5
		v13h-6.9V10.2h5.2c0.3,0,0.5,0.1,0.7,0.3c0.2,0.2,0.3,0.4,0.3,0.7v2.5C214,11.4,216.7,10.2,220.3,10.2z"/>
	<path class="st0" d="M235.2,9.7c3.9,0,7,1.3,9.4,3.8s3.6,5.9,3.6,10v1.1c0,0.3-0.1,0.5-0.3,0.7c-0.2,0.2-0.4,0.3-0.7,0.3h-17.9
		c0.4,1.4,1.1,2.6,2.1,3.5c1,0.9,2.3,1.3,3.8,1.3c1.1,0,2.1-0.3,2.9-0.8c0.8-0.6,1.4-1.2,1.9-2c0.3-0.5,0.8-0.6,1.3-0.4l5.8,2
		c-0.9,2.2-2.3,4-4.3,5.3c-2,1.3-4.5,1.9-7.5,1.9c-3.9,0-7.1-1.2-9.5-3.7c-2.4-2.4-3.6-5.6-3.6-9.6c0-4,1.2-7.3,3.6-9.7
		C228.1,10.9,231.3,9.7,235.2,9.7z M235.2,15.7c-1.4,0-2.6,0.4-3.6,1.1c-1,0.7-1.7,1.8-2.1,3.1h11.3c-0.5-1.3-1.2-2.3-2.2-3.1
		C237.7,16.1,236.5,15.7,235.2,15.7z"/>
	<path class="st0" d="M267.4,31.1c2.8,0,5,0.6,6.5,1.7c1.5,1.1,2.2,2.8,2.2,5c0,2.2-1,4.1-3.1,5.5s-5.3,2.1-9.7,2.1
		c-3.9,0-6.9-0.7-9.1-2.2c-2.2-1.4-3.3-3.3-3.3-5.4c0-1.4,0.3-2.6,1-3.5c0.7-1,1.4-1.6,2.1-1.9c-0.4-0.1-0.8-0.4-1.2-1
		c-0.5-0.6-0.7-1.3-0.7-2.2c0-1.7,0.7-2.9,2.2-3.8c-1.7-1.7-2.6-3.8-2.6-6.3c0-3,1-5.3,2.9-6.9c1.9-1.6,4.6-2.4,8-2.4
		c2.6,0,4.8,0.5,6.6,1.5c0.6-0.6,1.5-0.9,2.6-0.9h3.5v4c0,0.5-0.1,0.8-0.4,1.1c-0.3,0.3-0.6,0.4-1.1,0.4H273c0.3,1,0.5,2.1,0.5,3.3
		c0,3-1,5.3-3.1,6.9c-2.1,1.6-4.9,2.4-8.4,2.4h-1.7c-0.6,0-1.2,0.1-1.6,0.3c-0.4,0.2-0.6,0.6-0.6,1c0,0.9,0.9,1.4,2.7,1.4H267.4z
		 M263.4,39.6c2.3,0,3.9-0.2,5-0.6c1.1-0.4,1.6-0.9,1.6-1.6c0-1-0.9-1.6-2.8-1.6h-7c-2,0-2.9,0.5-2.9,1.6c0,0.6,0.6,1.1,1.8,1.5
		S261.6,39.6,263.4,39.6z M265.8,16.4c-0.8-0.6-1.9-0.9-3.3-0.9c-1.4,0-2.5,0.3-3.3,0.9c-0.8,0.6-1.2,1.5-1.2,2.5
		c0,1.1,0.4,2,1.2,2.6c0.8,0.6,1.9,0.9,3.2,0.9c1.4,0,2.5-0.3,3.3-0.9c0.8-0.6,1.2-1.5,1.2-2.6C267,17.9,266.6,17,265.8,16.4z"/>
	<path class="st0" d="M301.2,29.3c0.3,0.3,0.5,0.9,0.5,1.7v4.9h-0.7c-3,0-5.1-1-6.4-2.9c-2.1,2.2-5.1,3.3-9.1,3.3
		c-2.5,0-4.6-0.7-6.1-2s-2.2-3.2-2.2-5.5c0-2.2,0.7-4.1,2.1-5.6c1.4-1.5,3.6-2.4,6.5-2.8c3.7-0.4,6.2-1,7.4-1.7v-0.1
		c0-0.8-0.4-1.5-1.2-2c-0.8-0.5-1.8-0.8-2.9-0.8c-0.6,0-1.2,0-1.7,0.1c-0.5,0.1-1,0.2-1.5,0.4c-0.5,0.2-0.8,0.3-1,0.4
		c-0.2,0.1-0.6,0.3-1,0.6c-0.4,0.3-0.7,0.4-0.7,0.4c-0.6,0.3-1.1,0.4-1.7,0.3c-0.6-0.1-1-0.4-1.3-0.8l-2.1-2.9
		c0.3-0.4,0.8-0.9,1.4-1.3c0.6-0.5,1.3-0.9,2.2-1.5c0.9-0.5,1.9-0.9,3.2-1.3s2.5-0.5,3.8-0.5c3.8,0,6.6,0.9,8.6,2.6
		c2,1.7,2.9,4.3,2.9,7.7v7.2C300.2,28.2,300.5,28.8,301.2,29.3L301.2,29.3z M286.4,30.5c0.7,0,1.4,0,2-0.1s1.2-0.3,1.9-0.5
		c0.6-0.3,1.2-0.6,1.6-1c0.4-0.4,0.8-1,1.1-1.7c0.3-0.7,0.4-1.5,0.4-2.4V24c-1.3,1.1-3.3,1.7-6,1.7c-1.2,0.1-2.2,0.4-2.7,0.8
		c-0.6,0.4-0.9,1-0.9,1.8c0,0.7,0.2,1.2,0.7,1.6C285,30.3,285.6,30.5,286.4,30.5z"/>
	<path class="st0" d="M314.8,35.9c-2.7,0-4.7-0.7-6.2-2.2c-1.5-1.5-2.2-3.6-2.2-6.2V1.7h6.9v25.7c0,0.6,0.2,1.2,0.6,1.5
		c0.4,0.4,0.9,0.6,1.5,0.6h1.3c0.5,0,1,0.2,1.3,0.5c0.3,0.3,0.5,0.8,0.5,1.3v4.6H314.8z"/>
	<path class="st0" d="M342.9,32.7c-2.3,2.4-5.4,3.6-9.3,3.6c-3.9,0-7-1.2-9.4-3.6c-2.3-2.4-3.5-5.7-3.5-9.7c0-4.1,1.2-7.3,3.5-9.7
		c2.3-2.4,5.4-3.6,9.4-3.6c3.9,0,7,1.2,9.3,3.6c2.3,2.4,3.5,5.7,3.5,9.7C346.4,27.1,345.2,30.3,342.9,32.7z M329.2,28.3
		c1,1.3,2.5,2,4.4,2c1.9,0,3.3-0.7,4.4-2c1-1.3,1.6-3.1,1.6-5.3c0-2.2-0.5-3.9-1.6-5.3c-1-1.3-2.5-2-4.4-2c-1.9,0-3.3,0.7-4.4,2
		c-1,1.3-1.6,3.1-1.6,5.3C327.6,25.2,328.2,27,329.2,28.3z"/>
	<path class="st0" d="M19.4,49.7h6.9v34.1h-5.2c-0.3,0-0.5-0.1-0.7-0.3c-0.2-0.2-0.3-0.4-0.3-0.7v-2.2c-2.1,2.4-4.8,3.6-7.9,3.6
		c-3.5,0-6.3-1.2-8.4-3.6c-2.1-2.4-3.1-5.6-3.1-9.6c0-4.2,1-7.5,3.1-9.8c2.1-2.3,5-3.5,8.8-3.5c2.8,0,5,0.8,6.9,2.4V49.7z
		 M13.5,78.3c1.8,0,3.3-0.6,4.3-1.9c1.1-1.2,1.6-3,1.6-5.1v-0.5c0-2.1-0.5-3.8-1.6-5.1c-1.1-1.3-2.6-1.9-4.4-1.9s-3.3,0.7-4.3,2
		c-1,1.3-1.5,3.1-1.5,5.2s0.5,3.9,1.6,5.2C10.2,77.6,11.7,78.3,13.5,78.3z"/>
	<path class="st0" d="M36.6,55.5c-1.1,0-2-0.3-2.7-1c-0.7-0.7-1-1.6-1-2.7c0-1.1,0.3-2,1-2.7c0.7-0.7,1.6-1.1,2.7-1.1
		c1.1,0,2,0.4,2.7,1.1c0.7,0.7,1.1,1.6,1.1,2.7c0,1.1-0.4,2-1.1,2.7C38.6,55.2,37.7,55.5,36.6,55.5z M33.1,83.8V58.2H40v25.6H33.1z"
		/>
	<path class="st0" d="M81.9,83.8l-2.7-7.4h-12l-2.7,7.4h-7.4l12.6-34.1h7.5l12.5,34.1H81.9z M69.6,69.7h7.1l-3.1-8.5
		c-0.1-0.2-0.1-0.3-0.1-0.5v-0.4c0-0.2-0.1-0.2-0.2-0.2h0L69.6,69.7z"/>
	<path class="st0" d="M106.1,57.8c3.3,0,5.8,0.9,7.5,2.8c1.7,1.9,2.6,4.6,2.6,8.1v15.1h-6.9V69.5c0-1.9-0.3-3.4-1-4.3
		c-0.6-0.9-1.8-1.4-3.4-1.4c-1.6,0-2.8,0.5-3.7,1.5s-1.3,2.4-1.3,4.2v14.3h-6.9V58.2h5.2c0.3,0,0.5,0.1,0.7,0.3
		c0.2,0.2,0.3,0.4,0.3,0.7v1.9C101.1,58.9,103.4,57.8,106.1,57.8z"/>
	<path class="st0" d="M138.2,64.3h-7.4v10.4c0,0.8,0.3,1.5,0.8,2.1c0.5,0.5,1.2,0.8,2,0.8h2.9c0.6,0,1,0.2,1.3,0.5
		c0.3,0.3,0.5,0.8,0.5,1.3v4.6H133c-2.8,0-5.1-0.8-6.7-2.5c-1.6-1.6-2.4-3.9-2.4-6.8V64.3h-2.2c-0.5,0-1-0.2-1.3-0.5
		s-0.5-0.8-0.5-1.3v-4.2h4v-8.5h6.9v8.5h7.4V64.3z"/>
	<path class="st0" d="M163.8,80.7c-2.3,2.4-5.4,3.6-9.4,3.6s-7-1.2-9.4-3.6c-2.3-2.4-3.5-5.7-3.5-9.7c0-4.1,1.2-7.3,3.5-9.7
		c2.3-2.4,5.4-3.6,9.4-3.6s7,1.2,9.4,3.6c2.3,2.4,3.5,5.7,3.5,9.7C167.3,75.1,166.2,78.3,163.8,80.7z M150.1,76.3c1,1.3,2.5,2,4.4,2
		c1.9,0,3.3-0.7,4.4-2c1-1.3,1.6-3.1,1.6-5.3c0-2.2-0.5-3.9-1.6-5.3c-1-1.3-2.5-2-4.4-2c-1.9,0-3.3,0.7-4.4,2
		c-1,1.3-1.6,3.1-1.6,5.3C148.6,73.2,149.1,75,150.1,76.3z"/>
	<path class="st0" d="M185.1,57.8c3.3,0,5.8,0.9,7.5,2.8c1.7,1.9,2.6,4.6,2.6,8.1v15.1h-6.9V69.5c0-1.9-0.3-3.4-1-4.3
		c-0.6-0.9-1.8-1.4-3.4-1.4c-1.6,0-2.8,0.5-3.7,1.5s-1.3,2.4-1.3,4.2v14.3h-6.9V58.2h5.2c0.3,0,0.5,0.1,0.7,0.3
		c0.2,0.2,0.3,0.4,0.3,0.7v1.9C180,58.9,182.3,57.8,185.1,57.8z"/>
	<path class="st0" d="M205.1,55.5c-1.1,0-2-0.3-2.7-1c-0.7-0.7-1-1.6-1-2.7c0-1.1,0.3-2,1-2.7c0.7-0.7,1.6-1.1,2.7-1.1
		c1.1,0,2,0.4,2.7,1.1c0.7,0.7,1.1,1.6,1.1,2.7c0,1.1-0.4,2-1.1,2.7C207.1,55.2,206.2,55.5,205.1,55.5z M201.7,83.8V58.2h6.9v25.6
		H201.7z"/>
	<path class="st0" d="M237.3,77.3c0.3,0.3,0.5,0.9,0.5,1.7v4.9h-0.7c-3,0-5.1-1-6.4-2.9c-2.1,2.2-5.1,3.3-9.1,3.3
		c-2.5,0-4.6-0.7-6.1-2s-2.2-3.2-2.2-5.5c0-2.2,0.7-4.1,2.1-5.6c1.4-1.5,3.6-2.4,6.5-2.8c3.7-0.4,6.2-1,7.4-1.7v-0.1
		c0-0.8-0.4-1.5-1.2-2c-0.8-0.5-1.8-0.8-2.9-0.8c-0.6,0-1.2,0-1.7,0.1c-0.5,0.1-1,0.2-1.5,0.4c-0.5,0.2-0.8,0.3-1,0.4
		c-0.2,0.1-0.6,0.3-1,0.6c-0.4,0.3-0.7,0.4-0.7,0.4c-0.6,0.3-1.1,0.4-1.7,0.3c-0.6-0.1-1-0.4-1.3-0.8l-2.1-2.9
		c0.3-0.4,0.8-0.9,1.4-1.3c0.6-0.5,1.3-0.9,2.2-1.5c0.9-0.5,1.9-0.9,3.2-1.3s2.5-0.5,3.8-0.5c3.8,0,6.6,0.9,8.6,2.6
		c2,1.7,2.9,4.3,2.9,7.7v7.2C236.3,76.2,236.6,76.8,237.3,77.3L237.3,77.3z M222.5,78.5c0.7,0,1.4,0,2-0.1s1.2-0.3,1.9-0.5
		c0.6-0.3,1.2-0.6,1.6-1c0.4-0.4,0.8-1,1.1-1.7c0.3-0.7,0.4-1.5,0.4-2.4V72c-1.3,1.1-3.3,1.7-6,1.7c-1.2,0.1-2.2,0.4-2.7,0.8
		c-0.6,0.4-0.9,1-0.9,1.8c0,0.7,0.2,1.2,0.7,1.6C221,78.3,221.7,78.5,222.5,78.5z"/>
	<path class="st0" d="M255.4,57.8c3.3,0,5.8,0.9,7.5,2.8s2.6,4.6,2.6,8.1v15.1h-6.9V69.5c0-1.9-0.3-3.4-1-4.3
		c-0.6-0.9-1.8-1.4-3.4-1.4c-1.6,0-2.8,0.5-3.7,1.5c-0.9,1-1.3,2.4-1.3,4.2v14.3h-6.9V58.2h5.2c0.3,0,0.5,0.1,0.7,0.3
		c0.2,0.2,0.3,0.4,0.3,0.7v1.9C250.4,58.9,252.7,57.8,255.4,57.8z"/>
	<path class="st0" d="M292.2,80.7c-2.3,2.4-5.4,3.6-9.3,3.6c-3.9,0-7-1.2-9.4-3.6c-2.3-2.4-3.5-5.7-3.5-9.7c0-4.1,1.2-7.3,3.5-9.7
		c2.3-2.4,5.4-3.6,9.4-3.6c3.9,0,7,1.2,9.3,3.6c2.3,2.4,3.5,5.7,3.5,9.7C295.6,75.1,294.5,78.3,292.2,80.7z M278.5,76.3
		c1,1.3,2.5,2,4.4,2c1.9,0,3.3-0.7,4.4-2c1-1.3,1.6-3.1,1.6-5.3c0-2.2-0.5-3.9-1.6-5.3c-1-1.3-2.5-2-4.4-2c-1.9,0-3.3,0.7-4.4,2
		c-1,1.3-1.6,3.1-1.6,5.3C276.9,73.2,277.4,75,278.5,76.3z"/>
	<path class="st0" d="M13.5,132.4c-3.9,0-7.1-1.2-9.4-3.7c-2.3-2.4-3.5-5.6-3.5-9.6c0-4.1,1.2-7.4,3.5-9.8c2.3-2.4,5.4-3.6,9.4-3.6
		c3.1,0,5.7,0.8,7.8,2.3c2.1,1.5,3.5,3.8,4.2,6.7l-5.3,1c-1,0.2-1.7-0.1-2.1-0.9c-0.8-2.1-2.4-3.1-4.6-3.1c-1.9,0-3.4,0.7-4.4,2
		c-1,1.4-1.5,3.1-1.5,5.3c0,2.1,0.5,3.8,1.6,5.2s2.5,2,4.4,2c1.3,0,2.3-0.3,3-0.8s1.3-1.4,1.7-2.6c0.2-0.4,0.5-0.7,0.9-0.9
		c0.4-0.2,0.9-0.2,1.3-0.1l5.2,1c-0.6,3.1-2.1,5.4-4.2,7.1C19.3,131.5,16.6,132.4,13.5,132.4z"/>
	<path class="st0" d="M50.3,128.7c-2.3,2.4-5.4,3.6-9.4,3.6s-7-1.2-9.4-3.6c-2.3-2.4-3.5-5.7-3.5-9.7c0-4.1,1.2-7.3,3.5-9.7
		c2.3-2.4,5.4-3.6,9.4-3.6s7,1.2,9.4,3.6c2.3,2.4,3.5,5.7,3.5,9.7C53.8,123.1,52.7,126.3,50.3,128.7z M36.6,124.3c1,1.3,2.5,2,4.4,2
		c1.9,0,3.3-0.7,4.4-2c1-1.3,1.6-3.1,1.6-5.3c0-2.2-0.5-3.9-1.6-5.3c-1-1.3-2.5-2-4.4-2c-1.9,0-3.3,0.7-4.4,2
		c-1,1.3-1.6,3.1-1.6,5.3C35.1,121.2,35.6,123,36.6,124.3z"/>
	<path class="st0" d="M71.6,105.8c3.3,0,5.8,0.9,7.5,2.8c1.7,1.9,2.6,4.6,2.6,8.1v15.1h-6.9v-14.3c0-1.9-0.3-3.4-1-4.3
		c-0.6-0.9-1.8-1.4-3.4-1.4c-1.6,0-2.8,0.5-3.7,1.5s-1.3,2.4-1.3,4.2v14.3h-6.9v-25.6h5.2c0.3,0,0.5,0.1,0.7,0.3
		c0.2,0.2,0.3,0.4,0.3,0.7v1.9C66.5,106.9,68.8,105.8,71.6,105.8z"/>
	<path class="st0" d="M123.2,131.8l-2.7-7.4h-12l-2.7,7.4h-7.4l12.6-34.1h7.5l12.5,34.1H123.2z M111,117.7h7.1l-3.1-8.5
		c-0.1-0.2-0.1-0.3-0.1-0.5v-0.4c0-0.2-0.1-0.2-0.2-0.2h0L111,117.7z"/>
	<path class="st0" d="M142.9,131.9c-2.7,0-4.7-0.7-6.2-2.2c-1.5-1.5-2.2-3.6-2.2-6.2V97.7h6.9v25.7c0,0.6,0.2,1.2,0.6,1.5
		c0.4,0.4,0.9,0.6,1.5,0.6h1.3c0.5,0,1,0.2,1.3,0.5c0.3,0.3,0.5,0.8,0.5,1.3v4.6H142.9z"/>
	<path class="st0" d="M161.7,132.4c-3.9,0-7.1-1.2-9.4-3.7c-2.3-2.4-3.5-5.6-3.5-9.6c0-4.1,1.2-7.4,3.5-9.8c2.3-2.4,5.4-3.6,9.4-3.6
		c3.1,0,5.7,0.8,7.8,2.3c2.1,1.5,3.5,3.8,4.2,6.7l-5.3,1c-1,0.2-1.7-0.1-2.1-0.9c-0.8-2.1-2.4-3.1-4.6-3.1c-1.9,0-3.4,0.7-4.4,2
		c-1,1.4-1.5,3.1-1.5,5.3c0,2.1,0.5,3.8,1.6,5.2s2.5,2,4.4,2c1.3,0,2.3-0.3,3-0.8s1.3-1.4,1.7-2.6c0.2-0.4,0.5-0.7,0.9-0.9
		c0.4-0.2,0.9-0.2,1.3-0.1l5.2,1c-0.6,3.1-2.1,5.4-4.2,7.1C167.5,131.5,164.9,132.4,161.7,132.4z"/>
	<path class="st0" d="M189.4,105.7c3.9,0,7,1.3,9.4,3.8s3.6,5.9,3.6,10v1.1c0,0.3-0.1,0.5-0.3,0.7c-0.2,0.2-0.4,0.3-0.7,0.3h-17.9
		c0.4,1.4,1.1,2.6,2.1,3.5c1,0.9,2.3,1.3,3.8,1.3c1.1,0,2.1-0.3,2.9-0.8c0.8-0.6,1.4-1.2,1.9-2c0.3-0.5,0.8-0.6,1.3-0.4l5.8,2
		c-0.9,2.2-2.3,4-4.3,5.3c-2,1.3-4.5,1.9-7.5,1.9c-3.9,0-7.1-1.2-9.5-3.7c-2.4-2.4-3.6-5.6-3.6-9.6c0-4,1.2-7.3,3.6-9.7
		C182.4,106.9,185.5,105.7,189.4,105.7z M189.4,111.7c-1.4,0-2.6,0.4-3.6,1.1c-1,0.7-1.7,1.8-2.1,3.1h11.3c-0.5-1.3-1.2-2.3-2.2-3.1
		C191.9,112.1,190.8,111.7,189.4,111.7z"/>
	<path class="st0" d="M243.7,97.7h7.2v34.1h-7.7L228,108.4h-0.1c-0.1,0-0.1,0-0.2,0.1c0,0.1-0.1,0.1,0,0.2c0.3,1,0.5,2,0.5,2.9v20.2
		H221V97.7h7.7l15.2,23.4h0.1c0.1,0,0.1,0,0.2-0.1c0-0.1,0.1-0.1,0-0.2c-0.3-1-0.5-2-0.5-2.9V97.7z"/>
	<path class="st0" d="M269,105.7c3.9,0,7,1.3,9.4,3.8s3.6,5.9,3.6,10v1.1c0,0.3-0.1,0.5-0.3,0.7c-0.2,0.2-0.4,0.3-0.7,0.3h-17.9
		c0.4,1.4,1.1,2.6,2.1,3.5c1,0.9,2.3,1.3,3.8,1.3c1.1,0,2.1-0.3,2.9-0.8c0.8-0.6,1.4-1.2,1.9-2c0.3-0.5,0.8-0.6,1.3-0.4l5.8,2
		c-0.9,2.2-2.3,4-4.3,5.3c-2,1.3-4.5,1.9-7.5,1.9c-3.9,0-7.1-1.2-9.5-3.7c-2.4-2.4-3.6-5.6-3.6-9.6c0-4,1.2-7.3,3.6-9.7
		C261.9,106.9,265.1,105.7,269,105.7z M269,111.7c-1.4,0-2.6,0.4-3.6,1.1c-1,0.7-1.7,1.8-2.1,3.1h11.3c-0.5-1.3-1.2-2.3-2.2-3.1
		C271.5,112.1,270.3,111.7,269,111.7z"/>
	<path class="st0" d="M300.5,106.2h0.4v3.9c0,0.6-0.2,1-0.5,1.3c-0.3,0.3-0.7,0.5-1.2,0.5h-0.3c-2,0-3.4,0.6-4.4,1.8s-1.5,2.8-1.5,5
		v13h-6.9v-25.6h5.2c0.3,0,0.5,0.1,0.7,0.3c0.2,0.2,0.3,0.4,0.3,0.7v2.5C294.3,107.4,297,106.2,300.5,106.2z"/>
	<path class="st0" d="M324.6,128.7c-2.3,2.4-5.4,3.6-9.3,3.6c-3.9,0-7-1.2-9.4-3.6c-2.3-2.4-3.5-5.7-3.5-9.7c0-4.1,1.2-7.3,3.5-9.7
		c2.3-2.4,5.4-3.6,9.4-3.6c3.9,0,7,1.2,9.3,3.6c2.3,2.4,3.5,5.7,3.5,9.7C328,123.1,326.9,126.3,324.6,128.7z M310.9,124.3
		c1,1.3,2.5,2,4.4,2c1.9,0,3.3-0.7,4.4-2c1-1.3,1.6-3.1,1.6-5.3c0-2.2-0.5-3.9-1.6-5.3c-1-1.3-2.5-2-4.4-2c-1.9,0-3.3,0.7-4.4,2
		c-1,1.3-1.6,3.1-1.6,5.3C309.3,121.2,309.8,123,310.9,124.3z"/>
	<path class="st0" d="M334.5,132.4c-1.1,0-2-0.4-2.7-1.1c-0.7-0.7-1.1-1.6-1.1-2.7c0-1.1,0.4-2,1.1-2.7c0.7-0.7,1.6-1,2.7-1
		c1.1,0,2,0.4,2.7,1c0.7,0.7,1,1.6,1,2.7c0,1.1-0.3,2-1,2.7C336.5,132,335.6,132.4,334.5,132.4z M344.9,132.4c-1.1,0-2-0.4-2.7-1.1
		c-0.7-0.7-1.1-1.6-1.1-2.7c0-1.1,0.4-2,1.1-2.7c0.7-0.7,1.6-1,2.7-1c1.1,0,2,0.4,2.7,1c0.7,0.7,1,1.6,1,2.7c0,1.1-0.4,2-1,2.7
		C346.8,132,345.9,132.4,344.9,132.4z M355.2,132.4c-1.1,0-2-0.4-2.7-1.1c-0.7-0.7-1.1-1.6-1.1-2.7c0-1.1,0.4-2,1.1-2.7
		c0.7-0.7,1.6-1,2.7-1c1.1,0,2,0.4,2.7,1c0.7,0.7,1.1,1.6,1.1,2.7c0,1.1-0.4,2-1.1,2.7C357.1,132,356.2,132.4,355.2,132.4z"/>
</g>
</svg>
