<?xml version="1.0" encoding="utf-8"?>
<!-- Generator: Adobe Illustrator 24.3.0, SVG Export Plug-In . SVG Version: 6.00 Build 0)  -->
<svg version="1.1" id="Laag_1" xmlns="http://www.w3.org/2000/svg" xmlns:xlink="http://www.w3.org/1999/xlink" x="0px" y="0px"
	 width="138.2px" height="39.7px" viewBox="0 0 138.2 39.7" style="enable-background:new 0 0 138.2 39.7;" xml:space="preserve">
<style type="text/css">
	.st0{fill:#EBEEE2;}
</style>
<g>
	<path class="st0" d="M20.7,18.5c2.2,0.6,4,1.7,5.5,3.3c1.4,1.6,2.2,3.7,2.2,6.5c0,3.6-1.2,6.3-3.7,8.1c-2.5,1.8-5.6,2.7-9.2,2.7H0
		V0h14c3.6,0,6.5,0.9,8.8,2.6s3.5,4.2,3.5,7.3c0,4-1.9,6.7-5.7,8.1V18.5z M7.3,6.4v9.3h6.3c1.7,0,3-0.4,4-1.3c0.9-0.8,1.4-2,1.4-3.5
		c0-1.4-0.5-2.5-1.5-3.3c-1-0.8-2.2-1.2-3.8-1.2H7.3z M13.8,32.7c2.2,0,3.8-0.5,5-1.4c1.2-1,1.8-2.2,1.8-3.8c0-1.6-0.6-3-1.8-4
		c-1.2-1-2.8-1.6-4.8-1.6H7.3v10.9H13.8z"/>
	<path class="st0" d="M51.4,30.3h6.9c-0.6,2.9-2.2,5.3-4.6,6.9c-2.4,1.7-5.3,2.5-8.6,2.5c-4.3,0-7.8-1.3-10.4-4s-3.9-6.2-3.9-10.6
		c0-4.3,1.3-7.7,4-10.4c2.6-2.7,5.9-4.1,9.8-4.1c1.9,0,3.7,0.3,5.4,0.9c1.7,0.6,3.2,1.6,4.5,2.8c1.3,1.3,2.3,3,3,5.2
		c0.7,2.2,0.9,4.7,0.6,7.6H37.8c0.6,4.4,3.1,6.7,7.4,6.7c1.4,0,2.6-0.3,3.7-0.9S50.9,31.4,51.4,30.3z M45,16.3
		c-1.8,0-3.2,0.5-4.4,1.5c-1.2,1-2,2.3-2.5,4.1h13.3c-0.1-1.5-0.7-2.8-1.9-3.9C48.4,16.9,46.9,16.3,45,16.3z"/>
	<path class="st0" d="M77.7,10.6h2v7.3c-1-0.2-2-0.3-2.9-0.3c-2.2,0-4.1,0.8-5.6,2.3c-1.5,1.5-2.2,3.9-2.2,7v12.3h-7.6v-28h5.9
		l1,3.9h0.6C71.1,12.1,74,10.6,77.7,10.6z"/>
	<path class="st0" d="M101.1,30.3h6.9c-0.6,2.9-2.2,5.3-4.6,6.9c-2.4,1.7-5.3,2.5-8.6,2.5c-4.3,0-7.8-1.3-10.4-4s-3.9-6.2-3.9-10.6
		c0-4.3,1.3-7.7,4-10.4c2.6-2.7,5.9-4.1,9.8-4.1c1.9,0,3.7,0.3,5.4,0.9c1.7,0.6,3.2,1.6,4.5,2.8c1.3,1.3,2.3,3,3,5.2
		c0.7,2.2,0.9,4.7,0.6,7.6H87.5c0.6,4.4,3.1,6.7,7.4,6.7c1.4,0,2.6-0.3,3.7-0.9S100.6,31.4,101.1,30.3z M94.6,16.3
		c-1.8,0-3.2,0.5-4.4,1.5c-1.2,1-2,2.3-2.5,4.1h13.3c-0.1-1.5-0.7-2.8-1.9-3.9C98,16.9,96.5,16.3,94.6,16.3z"/>
	<path class="st0" d="M127.3,10.6c3.2,0,5.8,1.1,7.9,3.3c2,2.2,3,5.3,3,9.4v15.8h-7.6V24.6c0-2.4-0.6-4.2-1.7-5.4
		c-1.1-1.2-2.5-1.8-4.3-1.8c-1.6,0-3,0.6-4.2,1.8c-1.1,1.2-1.7,3-1.7,5.3v14.8h-7.6v-28h5.9l1,3.4h0.6c0.6-0.7,1.2-1.4,1.7-1.8
		c0.5-0.5,1.4-0.9,2.7-1.4C124.2,10.9,125.7,10.6,127.3,10.6z"/>
</g>
</svg>
