<?xml version="1.0" encoding="utf-8"?>
<!-- Generator: Adobe Illustrator 24.3.0, SVG Export Plug-In . SVG Version: 6.00 Build 0)  -->
<svg version="1.1" id="Laag_1" xmlns="http://www.w3.org/2000/svg" xmlns:xlink="http://www.w3.org/1999/xlink" x="0px" y="0px"
	 width="451.8px" height="303.8px" viewBox="0 0 451.8 303.8" style="enable-background:new 0 0 451.8 303.8;" xml:space="preserve"
	>
<style type="text/css">
	.st0{fill:#FFFFFF;}
	.st1{fill:#E20613;}
</style>
<g>
	<g>
		<path class="st0" d="M40.9,45.6c0,2.5-0.5,4.9-1.4,7.1c-1,2.2-2.3,4.1-3.9,5.8c-1.7,1.7-3.6,3-5.8,3.9c-2.2,1-4.6,1.4-7.1,1.4
			c-2.5,0-4.9-0.5-7.1-1.4c-2.2-1-4.1-2.3-5.8-3.9c-1.7-1.7-3-3.6-3.9-5.8c-1-2.2-1.4-4.6-1.4-7.1V18.2c0-2.5,0.5-4.9,1.4-7.1
			c1-2.2,2.3-4.1,3.9-5.8c1.7-1.7,3.6-3,5.8-3.9c2.2-1,4.6-1.4,7.1-1.4c2.5,0,4.9,0.5,7.1,1.4c2.2,1,4.1,2.3,5.8,3.9
			c1.6,1.7,2.9,3.6,3.9,5.8c1,2.2,1.4,4.6,1.4,7.1v2.4H29.1v-2.4c0-1.8-0.6-3.3-1.8-4.6c-1.2-1.3-2.7-1.9-4.6-1.9
			c-1.8,0-3.4,0.6-4.6,1.9c-1.3,1.3-1.9,2.8-1.9,4.6v27.4c0,1.8,0.6,3.3,1.9,4.6c1.3,1.3,2.8,1.9,4.6,1.9c1.8,0,3.3-0.6,4.6-1.9
			c1.3-1.3,1.9-2.8,1.9-4.5v-5.5h-6.6V28.4h18.3V45.6z"/>
		<path class="st0" d="M89.1,61.9H76.3l-9.2-21.5h-5.7v21.5H49.7V2.1h19.2c2.6,0,5.1,0.5,7.5,1.5c2.4,1,4.4,2.4,6.1,4.1
			c1.7,1.7,3.1,3.8,4.1,6.1c1,2.3,1.5,4.8,1.5,7.4c0,3.4-0.8,6.5-2.5,9.4c-1.7,2.9-3.9,5.3-6.8,7L89.1,61.9z M76.3,21.3
			c0-1-0.2-2-0.6-2.9c-0.4-0.9-0.9-1.7-1.6-2.4c-0.7-0.7-1.5-1.2-2.4-1.6c-0.9-0.4-1.9-0.6-2.9-0.6h-7.4v14.8h7.4c1,0,2-0.2,2.9-0.6
			c0.9-0.4,1.7-0.9,2.4-1.6c0.7-0.7,1.2-1.5,1.6-2.4C76.1,23.3,76.3,22.3,76.3,21.3z"/>
		<path class="st0" d="M135,45.6c0,2.5-0.5,4.9-1.4,7.1c-1,2.2-2.3,4.1-3.9,5.8c-1.7,1.7-3.6,3-5.8,3.9c-2.2,1-4.6,1.4-7.1,1.4
			c-2.5,0-4.9-0.5-7.1-1.4c-2.2-1-4.1-2.3-5.8-3.9c-1.7-1.7-2.9-3.6-3.9-5.8c-0.9-2.2-1.4-4.6-1.4-7.1V18.2c0-2.5,0.5-4.9,1.4-7.1
			c1-2.2,2.3-4.1,3.9-5.8c1.7-1.7,3.6-3,5.8-3.9c2.2-1,4.6-1.4,7.1-1.4c2.5,0,4.9,0.5,7.1,1.4c2.2,1,4.1,2.3,5.8,3.9
			c1.6,1.7,2.9,3.6,3.9,5.8c1,2.2,1.4,4.6,1.4,7.1V45.6z M123.2,18.2c0-1.8-0.6-3.3-1.8-4.6c-1.2-1.3-2.7-1.9-4.6-1.9
			c-1.8,0-3.3,0.6-4.6,1.9c-1.3,1.3-1.9,2.8-1.9,4.6v27.4c0,1.8,0.6,3.3,1.8,4.6c1.2,1.3,2.7,1.9,4.6,1.9c1.8,0,3.3-0.6,4.6-1.8
			c1.3-1.2,1.9-2.7,1.9-4.6V18.2z"/>
		<path class="st0" d="M173.4,61.9h-29.6V2.1h29.6v11.8h-17.1v12.3h17.1v11.8h-17.1v12.2h17.1V61.9z"/>
		<path class="st0" d="M195.7,61.9h-11.8V2.1h11.8V61.9z"/>
		<path class="st0" d="M235.8,61.9h-29.6V2.1h29.6v11.8h-17.1v12.3h17.1v11.8h-17.1v12.2h17.1V61.9z"/>
		<path class="st0" d="M285.8,61.9h-12.7l-14.6-37.4h-0.3v37.4h-11.8V2h15.3l12.1,30.6h0.3V2h11.8V61.9z"/>
		<path class="st0" d="M355.1,45.6c0,2.5-0.5,4.9-1.4,7.1c-1,2.2-2.3,4.1-3.9,5.8c-1.7,1.7-3.6,3-5.8,3.9c-2.2,1-4.6,1.4-7.1,1.4
			c-2.5,0-4.9-0.5-7.1-1.4c-2.2-1-4.1-2.3-5.8-3.9c-1.7-1.7-2.9-3.6-3.9-5.8c-0.9-2.2-1.4-4.6-1.4-7.1V18.2c0-2.5,0.5-4.9,1.4-7.1
			c1-2.2,2.3-4.1,3.9-5.8c1.7-1.7,3.6-3,5.8-3.9c2.2-1,4.6-1.4,7.1-1.4c2.5,0,4.9,0.5,7.1,1.4c2.2,1,4.1,2.3,5.8,3.9
			c1.6,1.7,2.9,3.6,3.9,5.8c1,2.2,1.4,4.6,1.4,7.1V45.6z M343.4,18.2c0-1.8-0.6-3.3-1.8-4.6c-1.2-1.3-2.7-1.9-4.6-1.9
			c-1.8,0-3.3,0.6-4.6,1.9c-1.3,1.3-1.9,2.8-1.9,4.6v27.4c0,1.8,0.6,3.3,1.8,4.6c1.2,1.3,2.7,1.9,4.6,1.9c1.8,0,3.3-0.6,4.6-1.8
			c1.3-1.2,1.9-2.7,1.9-4.6V18.2z"/>
		<path class="st0" d="M404.1,21.3c0,2.7-0.5,5.2-1.5,7.5c-1,2.3-2.4,4.3-4.1,6c-1.7,1.7-3.7,3.1-6.1,4.1c-2.4,1-4.8,1.5-7.5,1.5
			h-7.4v21.5h-11.8V2.1h19.2c2.7,0,5.2,0.5,7.5,1.5c2.3,1,4.4,2.4,6.1,4.1c1.7,1.7,3.1,3.8,4.1,6.1
			C403.6,16.2,404.1,18.7,404.1,21.3z M392.3,21.3c0-1-0.2-2-0.6-2.9c-0.4-0.9-0.9-1.7-1.6-2.4c-0.7-0.7-1.5-1.2-2.4-1.6
			c-0.9-0.4-1.9-0.6-2.9-0.6h-7.4v14.8h7.4c1,0,2-0.2,2.9-0.6c0.9-0.4,1.7-0.9,2.4-1.6c0.7-0.7,1.2-1.5,1.6-2.4
			C392.1,23.3,392.3,22.3,392.3,21.3z"/>
	</g>
	<g>
		<path class="st0" d="M42.6,141.9H30.8v-24.8H16.2v24.8H4.4V82h11.8v23.4h14.6V82h11.8V141.9z"/>
		<path class="st0" d="M82.7,141.9H53.1V82.1h29.6v11.8H65.6v12.3h17.1v11.8H65.6v12.2h17.1V141.9z"/>
		<path class="st0" d="M122.8,93.8h-11.5v48.2H99.5V93.8H88V82h34.8V93.8z"/>
		<path class="st0" d="M189.9,141.9h-12.8l-9.2-21.5h-5.7v21.5h-11.8V82.1h19.2c2.6,0,5.1,0.5,7.5,1.5c2.4,1,4.4,2.4,6.1,4.1
			c1.7,1.7,3.1,3.8,4.1,6.1c1,2.3,1.5,4.8,1.5,7.4c0,3.4-0.8,6.5-2.5,9.4c-1.7,2.9-3.9,5.3-6.8,7L189.9,141.9z M177.1,101.3
			c0-1-0.2-2-0.6-2.9c-0.4-0.9-0.9-1.7-1.6-2.4c-0.7-0.7-1.5-1.2-2.4-1.6c-0.9-0.4-1.9-0.6-2.9-0.6h-7.4v14.8h7.4c1,0,2-0.2,2.9-0.6
			c0.9-0.4,1.7-0.9,2.4-1.6c0.7-0.7,1.2-1.5,1.6-2.4C176.9,103.3,177.1,102.3,177.1,101.3z"/>
		<path class="st0" d="M211.1,141.9h-11.8V82.1h11.8V141.9z"/>
		<path class="st0" d="M251.2,93.8h-11.5v48.2h-11.8V93.8h-11.5V82h34.8V93.8z"/>
		<path class="st0" d="M308.9,141.9h-11.8v-34.2h-0.3l-8,34.2h-12.1l-8.1-34.2h-0.3v34.2h-11.8V82h16.9l9,37.3h0.3l9.1-37.3h16.9
			V141.9z"/>
		<path class="st0" d="M349.1,141.9h-29.6V82.1h29.6v11.8H332v12.3h17.1v11.8H332v12.2h17.1V141.9z"/>
	</g>
	<g>
		<path class="st1" d="M393,141.9h-13l26.7-59.8h13L393,141.9z"/>
	</g>
	<g>
		<path class="st0" d="M38.6,162l-13.3,59.9h-12L0,162h12.1l7,37.3h0.3l7-37.3H38.6z"/>
		<path class="st0" d="M79,221.9H66.9l-2.1-10.6H54.5l-2,10.6H40.3l13.3-59.8h12.1L79,221.9z M62.6,199.4l-2.8-14.8l-3,14.8H62.6z"
			/>
		<path class="st0" d="M124.6,221.9h-12.7l-14.6-37.4h-0.3v37.4H85.1V162h15.3l12.1,30.6h0.3V162h11.8V221.9z"/>
		<path class="st0" d="M193.9,205.7c0,2.5-0.5,4.9-1.4,7.1c-1,2.2-2.3,4.1-3.9,5.8c-1.7,1.7-3.6,3-5.8,3.9c-2.2,1-4.6,1.4-7.1,1.4
			c-2.5,0-4.9-0.5-7.1-1.4c-2.2-1-4.1-2.3-5.8-3.9c-1.7-1.7-3-3.6-3.9-5.8c-1-2.2-1.4-4.6-1.4-7.1v-5.5h11.8v5.5
			c0,1.8,0.6,3.3,1.9,4.6c1.3,1.3,2.8,1.9,4.6,1.9c1.8,0,3.3-0.6,4.6-1.9c1.3-1.3,1.9-2.8,1.9-4.6V162h11.8V205.7z"/>
		<path class="st0" d="M234.1,221.9h-29.6v-59.8h29.6v11.8H217v12.3h17.1v11.8H217v12.2h17.1V221.9z"/>
		<path class="st0" d="M296.6,221.9H267v-59.8h29.6v11.8h-17.1v12.3h17.1v11.8h-17.1v12.2h17.1V221.9z"/>
		<path class="st0" d="M318.9,221.9h-11.8v-59.8h11.8V221.9z"/>
		<path class="st0" d="M363.4,205.6c0,2.5-0.5,4.9-1.4,7.1c-1,2.2-2.3,4.1-3.9,5.8c-1.7,1.7-3.6,3-5.8,3.9c-2.2,1-4.6,1.4-7.1,1.4
			c-2.5,0-4.9-0.5-7.1-1.4c-2.2-1-4.1-2.3-5.8-3.9c-1.7-1.7-3-3.6-3.9-5.8c-1-2.2-1.4-4.6-1.4-7.1v-27.4c0-2.5,0.5-4.9,1.4-7.1
			c1-2.2,2.3-4.1,3.9-5.8c1.7-1.7,3.6-3,5.8-3.9s4.6-1.4,7.1-1.4c2.5,0,4.9,0.5,7.1,1.4c2.2,1,4.1,2.3,5.8,3.9
			c1.6,1.7,2.9,3.6,3.9,5.8c1,2.2,1.4,4.6,1.4,7.1v2.4h-11.8v-2.4c0-1.8-0.6-3.3-1.9-4.6c-1.2-1.3-2.8-1.9-4.6-1.9
			c-1.8,0-3.4,0.6-4.6,1.9c-1.3,1.3-1.9,2.8-1.9,4.6v27.4c0,1.8,0.6,3.3,1.9,4.6c1.2,1.3,2.8,1.9,4.6,1.9c1.8,0,3.3-0.6,4.6-1.9
			c1.3-1.3,1.9-2.8,1.9-4.5v-5.5H345v-11.8h18.3V205.6z"/>
		<path class="st0" d="M401.8,221.9h-29.6v-59.8h29.6v11.8h-17.1v12.3h17.1v11.8h-17.1v12.2h17.1V221.9z"/>
		<path class="st0" d="M451.8,221.9H439l-14.6-37.4h-0.3v37.4h-11.8V162h15.3l12.1,30.6h0.3V162h11.8V221.9z"/>
	</g>
	<g>
		<path class="st0" d="M56.7,301.9H45v-34.2h-0.3l-8,34.2H24.6l-8.1-34.2h-0.3v34.2H4.4V242h16.9l9,37.3h0.3l9.1-37.3h16.9V301.9z"
			/>
		<path class="st0" d="M103.8,285.6c0,2.5-0.5,4.9-1.4,7.1c-1,2.2-2.3,4.1-3.9,5.8c-1.7,1.7-3.6,3-5.8,3.9c-2.2,1-4.6,1.4-7.1,1.4
			c-2.5,0-4.9-0.5-7.1-1.4c-2.2-1-4.1-2.3-5.8-3.9c-1.7-1.7-2.9-3.6-3.9-5.8c-0.9-2.2-1.4-4.6-1.4-7.1v-43.7h11.8v43.8
			c0,1.8,0.6,3.3,1.9,4.5c1.3,1.3,2.8,1.9,4.5,1.9c1.8,0,3.3-0.6,4.6-1.9c1.3-1.3,1.9-2.8,1.9-4.6v-43.7h11.8V285.6z"/>
		<path class="st0" d="M148.6,301.9h-34.3v-11.8l19.3-36.3h-18.2v-11.8H147v11.8l-19.4,36.3h21V301.9z"/>
		<path class="st0" d="M171,301.9h-11.8v-59.8H171V301.9z"/>
		<path class="st0" d="M211.1,301.9h-29.6v-59.8h29.6v11.8H194v12.3h17.1v11.8H194v12.2h17.1V301.9z"/>
		<path class="st0" d="M261.4,301.9h-13.4l-14.2-27.4h-0.3v27.4h-11.8V242h11.8v24.5h0.3l12.2-24.5H259l-14.5,28.6L261.4,301.9z"/>
	</g>
</g>
</svg>
