<?xml version="1.0" encoding="utf-8"?>
<!-- Generator: Adobe Illustrator 24.3.0, SVG Export Plug-In . SVG Version: 6.00 Build 0)  -->
<svg version="1.1" id="Laag_1" xmlns="http://www.w3.org/2000/svg" xmlns:xlink="http://www.w3.org/1999/xlink" x="0px" y="0px"
	 width="38.3px" height="66.2px" viewBox="0 0 38.3 66.2" style="enable-background:new 0 0 38.3 66.2;" xml:space="preserve">
<style type="text/css">
	.st0{fill:#E3E8DA;}
</style>
<g>
	<g>
		<g>
			<polygon class="st0" points="24.3,54.3 29.1,51.7 29.1,35.9 24.3,33.3 19.4,35.9 24.3,38.5 			"/>
		</g>
		<g>
			<polygon class="st0" points="14.6,22.8 19.4,20.1 19.4,51.7 14.6,49 			"/>
		</g>
		<g>
			<polygon class="st0" points="19.4,14.9 14.6,17.5 0,9.6 4.9,7 			"/>
		</g>
		<g>
			<polygon class="st0" points="9.7,14.9 9.7,41.1 4.9,43.8 4.9,17.5 			"/>
		</g>
		<g>
			<g>
				<path class="st0" d="M19.4,20.1l4.9-2.6c0,0,7.9,2.8,4.9,13.2l-4.9,2.6C27.3,22.9,19.4,20.1,19.4,20.1z"/>
			</g>
		</g>
	</g>
	<g>
		<path class="st0" d="M3.3,0v0.8H2.1v3.5H1.3V0.8H0.1V0H3.3z"/>
		<path class="st0" d="M6.9,0h0.8v4.3H6.9V2.5H5.2v1.8H4.3V0h0.8v1.7h1.7V0z"/>
		<path class="st0" d="M10,3.5h2.1v0.8H9.2V0H12v0.8h-2v1h1.8v0.8H10V3.5z"/>
		<path class="st0" d="M15.6,0l1.5,4.3h-0.9l-0.3-0.9h-1.6L14,4.3h-0.9L14.5,0H15.6z M14.5,2.6h1.1l-0.5-1.5H15L14.5,2.6z"/>
		<path class="st0" d="M20.5,0v0.8h-1.2v3.5h-0.8V0.8h-1.2V0H20.5z"/>
		<path class="st0" d="M22.4,3.5h2.1v0.8h-2.9V0h2.8v0.8h-2v1h1.8v0.8h-1.8V3.5z"/>
		<path class="st0" d="M29,4.3h-0.9l-0.9-1.6h-0.5v1.6h-0.8V0h1.5c0.4,0,0.7,0.1,0.9,0.4c0.3,0.2,0.4,0.6,0.4,1
			c0,0.3-0.1,0.5-0.2,0.8c-0.1,0.2-0.3,0.4-0.6,0.5L29,4.3z M26.7,0.8V2h0.7c0.2,0,0.3-0.1,0.4-0.2c0.1-0.1,0.2-0.3,0.2-0.4
			c0-0.2-0.1-0.3-0.2-0.4c-0.1-0.1-0.2-0.2-0.4-0.2H26.7z"/>
	</g>
	<g>
		<path class="st0" d="M33.9,10.1V9.2l1.6-0.9V7.8h-1.6V7h4.3v1.5c0,0.4-0.1,0.7-0.4,0.9c-0.2,0.3-0.6,0.4-1,0.4
			c-0.3,0-0.5-0.1-0.8-0.2c-0.2-0.1-0.4-0.3-0.5-0.6L33.9,10.1z M37.5,7.8h-1.2v0.7c0,0.2,0.1,0.3,0.2,0.4c0.1,0.1,0.3,0.2,0.4,0.2
			c0.2,0,0.3-0.1,0.4-0.2c0.1-0.1,0.2-0.2,0.2-0.4V7.8z"/>
		<path class="st0" d="M34.5,14.6c-0.4-0.4-0.6-0.9-0.6-1.5c0-0.6,0.2-1.1,0.6-1.5c0.4-0.4,0.9-0.6,1.6-0.6c0.6,0,1.1,0.2,1.6,0.6
			c0.4,0.4,0.6,0.9,0.6,1.5c0,0.6-0.2,1.1-0.6,1.5c-0.4,0.4-0.9,0.6-1.6,0.6C35.5,15.3,35,15.1,34.5,14.6z M35.1,12.3
			c-0.3,0.2-0.4,0.5-0.4,0.9c0,0.4,0.1,0.7,0.4,0.9c0.3,0.2,0.6,0.3,1,0.3c0.4,0,0.7-0.1,1-0.4c0.3-0.2,0.4-0.5,0.4-0.9
			c0-0.4-0.1-0.7-0.4-0.9c-0.3-0.2-0.6-0.3-1-0.3C35.7,11.9,35.4,12,35.1,12.3z"/>
		<path class="st0" d="M38.2,19.2h-0.8V18h-3.5v-0.8h3.5V16h0.8V19.2z"/>
		<path class="st0" d="M38.2,23.2h-0.8v-1.2h-3.5v-0.8h3.5v-1.2h0.8V23.2z"/>
		<path class="st0" d="M34.7,25.1v2.1h-0.8v-2.9h4.3v2.8h-0.8v-2h-1v1.8h-0.8v-1.8H34.7z"/>
		<path class="st0" d="M33.9,31.7v-0.9l1.6-0.9v-0.5h-1.6v-0.8h4.3v1.5c0,0.4-0.1,0.7-0.4,0.9c-0.2,0.3-0.6,0.4-1,0.4
			c-0.3,0-0.5-0.1-0.8-0.2c-0.2-0.1-0.4-0.3-0.5-0.6L33.9,31.7z M37.5,29.3h-1.2V30c0,0.2,0.1,0.3,0.2,0.4c0.1,0.1,0.3,0.2,0.4,0.2
			c0.2,0,0.3-0.1,0.4-0.2c0.1-0.1,0.2-0.2,0.2-0.4V29.3z"/>
		<path class="st0" d="M38.2,34.2c0,0.6-0.2,1.1-0.6,1.5c-0.4,0.4-0.9,0.6-1.6,0.6c-0.7,0-1.2-0.2-1.6-0.6c-0.4-0.4-0.6-0.9-0.6-1.5
			v-1.4h4.3V34.2z M34.7,34.2c0,0.4,0.1,0.7,0.4,0.9c0.2,0.2,0.6,0.4,1,0.4c0.4,0,0.7-0.1,1-0.4c0.2-0.2,0.4-0.6,0.4-0.9v-0.5h-2.7
			V34.2z"/>
		<path class="st0" d="M38.2,39.6l-4.3,1.5v-0.9l0.9-0.3v-1.6L33.9,38v-0.9l4.3,1.5V39.6z M35.6,38.5v1.1l1.5-0.5V39L35.6,38.5z"/>
		<path class="st0" d="M38.2,46.4h-4.3v-0.8h2.6v0l-2.3-0.8v-1l2.3-0.8v0h-2.6v-0.8h4.3v1.1l-3,1.1v0.1l3,1.1V46.4z"/>
	</g>
</g>
<g>
	<path class="st0" d="M7.9,59.2v7H7v-5.6H6.9l-2,5h-1l-2-5H1.8v5.6H0.9v-7h1.3l2.2,5.3h0.1l2.2-5.3H7.9z"/>
	<path class="st0" d="M13.9,66.2l-0.6-1.8h-2.8l-0.6,1.8h-1l2.4-7h1.2l2.4,7H13.9z M10.7,63.6H13l-1.1-3.4h-0.1L10.7,63.6z"/>
	<path class="st0" d="M19.8,66.2l-2.6-3.1h-0.5v3.1h-0.9v-7h0.9v2.9h0.5l2.3-2.9h1.1L18,62.6v0.1l2.9,3.6H19.8z"/>
	<path class="st0" d="M22.8,65.4h3.6v0.8h-4.5v-7h4.4v0.8h-3.5v2.2h3.1v0.8h-3.1V65.4z"/>
	<path class="st0" d="M32.4,66.2h-1l-1.7-2.9h0h-1.4v2.9h-0.9v-7h2.4c0.7,0,1.2,0.2,1.7,0.6c0.4,0.4,0.6,0.9,0.6,1.5
		c0,0.5-0.1,0.9-0.4,1.2c-0.3,0.3-0.6,0.6-1.1,0.7L32.4,66.2z M28.3,60.1v2.4h1.4c0.5,0,0.8-0.1,1.1-0.3c0.3-0.2,0.4-0.5,0.4-0.9
		c0-0.4-0.1-0.7-0.4-0.9s-0.6-0.3-1.1-0.3H28.3z"/>
	<path class="st0" d="M38,64.5c0,0.6-0.2,1.1-0.6,1.4s-1,0.5-1.7,0.5c-0.8,0-1.4-0.2-1.9-0.6s-0.7-0.9-0.7-1.6h0.9
		c0,0.4,0.2,0.8,0.4,1s0.7,0.4,1.2,0.4c0.4,0,0.7-0.1,1-0.3c0.3-0.2,0.4-0.4,0.4-0.8c0-0.3-0.1-0.6-0.4-0.8
		c-0.2-0.2-0.7-0.4-1.3-0.6c-0.7-0.2-1.2-0.5-1.5-0.8s-0.5-0.7-0.5-1.2c0-0.6,0.2-1,0.6-1.4c0.4-0.3,0.9-0.5,1.6-0.5
		c0.7,0,1.3,0.2,1.7,0.6c0.4,0.4,0.6,0.9,0.6,1.5H37c0-0.3-0.2-0.6-0.4-0.9c-0.2-0.2-0.6-0.4-1.1-0.4c-0.4,0-0.7,0.1-0.9,0.3
		s-0.3,0.4-0.3,0.7c0,0.3,0.1,0.6,0.4,0.7c0.2,0.2,0.6,0.4,1.2,0.6c0.7,0.2,1.3,0.5,1.6,0.9C37.8,63.5,38,63.9,38,64.5z"/>
</g>
</svg>
