<?xml version="1.0" encoding="utf-8"?>
<!-- Generator: Adobe Illustrator 24.3.0, SVG Export Plug-In . SVG Version: 6.00 Build 0)  -->
<svg version="1.1" id="Laag_1" xmlns="http://www.w3.org/2000/svg" xmlns:xlink="http://www.w3.org/1999/xlink" x="0px" y="0px"
	 width="88.5px" height="12.1px" viewBox="0 0 88.5 12.1" style="enable-background:new 0 0 88.5 12.1;" xml:space="preserve">
<style type="text/css">
	.st0{fill:#E3E8DA;}
</style>
<g>
	<path class="st0" d="M1.6,10.6h6.2v1.5H0V0h7.6v1.5H1.6v3.8h5.4v1.4H1.6V10.6z"/>
	<path class="st0" d="M18,12.1h-1.8l-2.9-4.9h0H11v4.9H9.4V0h4.1c1.2,0,2.1,0.3,2.9,1c0.7,0.6,1.1,1.5,1.1,2.6
		c0,0.8-0.2,1.5-0.7,2.1s-1.1,1-1.8,1.3L18,12.1z M11,1.5v4.2h2.3c0.8,0,1.4-0.2,1.9-0.6c0.4-0.4,0.7-0.9,0.7-1.5
		c0-0.7-0.2-1.2-0.7-1.5s-1.1-0.5-1.9-0.5H11z"/>
	<path class="st0" d="M21.3,0v12.1h-1.7V0H21.3z"/>
	<path class="st0" d="M30.8,12.1l-4.5-5.4h-0.8v5.4h-1.6V0h1.6v5.1h0.8l4-5.1h1.9l-4.6,5.8v0.1l5,6.2H30.8z"/>
	<path class="st0" d="M50.4,0h1.5l-2.4,12.1h-2.3L44.7,3h-0.1l-2.4,9.1h-2.3L37.4,0H39L41,10.2h0.1l2.5-9.3h2.1l2.5,9.3h0.2L50.4,0z
		"/>
	<path class="st0" d="M61,0h1.6v12.1H61V6.7h-5.9v5.4h-1.6V0h1.6v5.2H61V0z"/>
	<path class="st0" d="M66.8,0v12.1h-1.7V0H66.8z"/>
	<path class="st0" d="M70.8,10.6h6.2v1.5h-7.8V0h7.6v1.5h-6.1v3.8h5.4v1.4h-5.4V10.6z"/>
	<path class="st0" d="M86.9,0h1.6v12.1h-1.7l-6.3-9.4h-0.1v9.4h-1.6V0h1.8l6.2,9.3h0.2V0z"/>
</g>
</svg>
