<?xml version="1.0" encoding="utf-8"?>
<!-- Generator: Adobe Illustrator 24.0.0, SVG Export Plug-In . SVG Version: 6.00 Build 0)  -->
<svg version="1.1" id="Laag_1" xmlns="http://www.w3.org/2000/svg" xmlns:xlink="http://www.w3.org/1999/xlink" x="0px" y="0px"
	 width="298.4px" height="66.5px" viewBox="0 0 298.4 66.5" style="enable-background:new 0 0 298.4 66.5;" xml:space="preserve">
<style type="text/css">
	.st0{fill:#3770B7;}
	.st1{fill:#010101;}
</style>
<g>
	<path class="st0" d="M8.5,40.1c-5.2,0-8-2-8.5-6h5.5c0.3,1.4,1.3,2.1,3,2.1c2.3,0,3.4-1.1,3.4-3.4v-2.5c-0.5,0.8-1.1,1.6-2,2.1
		C9,33,8,33.3,6.9,33.3c-2,0-3.6-0.7-4.9-2.1c-1.3-1.4-2-3.3-2-5.7v-0.2c0-2.3,0.7-4.2,2-5.6c1.3-1.4,2.9-2.2,4.9-2.2
		c2.3,0,4,0.9,5,2.7v-2.3h5.5v14.8c0,2.4-0.8,4.2-2.3,5.5C13.6,39.5,11.4,40.1,8.5,40.1z M6.5,28.2c0.6,0.7,1.3,1,2.3,1
		s1.8-0.3,2.4-1c0.6-0.7,0.9-1.6,0.9-2.7v-0.2c0-1.1-0.3-2-0.8-2.7c-0.6-0.7-1.3-1-2.4-1c-1,0-1.8,0.3-2.4,1
		c-0.6,0.7-0.8,1.6-0.8,2.7v0.2C5.7,26.7,6,27.5,6.5,28.2z"/>
	<path class="st0" d="M27.1,34.5c-2.6,0-4.7-0.7-6.3-2.2c-1.6-1.5-2.4-3.5-2.4-6.1V26c0-2.5,0.8-4.6,2.5-6.1
		c1.7-1.6,3.8-2.3,6.3-2.3c2.4,0,4.3,0.7,5.9,2.1c1.6,1.4,2.3,3.5,2.3,6.3v1.5H24c0.1,1.1,0.4,1.9,1,2.5c0.6,0.6,1.4,0.9,2.4,0.9
		c1.6,0,2.6-0.6,2.8-1.9h5.2c-0.2,1.8-1.1,3.2-2.5,4.2C31.5,34,29.6,34.5,27.1,34.5z M24,24.2H30c-0.1-2-1.1-3-2.8-3
		c-0.8,0-1.5,0.3-2.1,0.8C24.5,22.4,24.2,23.2,24,24.2z"/>
	<path class="st0" d="M44.1,34.5c-2.6,0-4.7-0.7-6.3-2.2c-1.6-1.5-2.4-3.5-2.4-6.1V26c0-2.5,0.8-4.6,2.5-6.1
		c1.7-1.6,3.8-2.3,6.3-2.3c2.4,0,4.3,0.7,5.9,2.1c1.6,1.4,2.3,3.5,2.3,6.3v1.5H40.9c0.1,1.1,0.4,1.9,1,2.5c0.6,0.6,1.4,0.9,2.4,0.9
		c1.6,0,2.6-0.6,2.8-1.9h5.2c-0.2,1.8-1.1,3.2-2.5,4.2C48.5,34,46.6,34.5,44.1,34.5z M41,24.2H47c-0.1-2-1.1-3-2.8-3
		c-0.8,0-1.5,0.3-2.1,0.8C41.5,22.4,41.2,23.2,41,24.2z"/>
	<path class="st0" d="M54,34.1V21.7h-2v-3.8h2v-1.4c0-2,0.6-3.4,1.7-4.4c1.1-1,2.7-1.5,4.7-1.5c0.8,0,1.6,0.1,2.5,0.3v4.1
		c-0.5-0.1-1-0.2-1.5-0.2c-1.2,0-1.9,0.6-1.9,1.8v1.4h3.3v3.8h-3.3v12.4H54z"/>
</g>
<g>
	<path class="st1" d="M72.6,34.1l-5.9-16.2h5.9L76,28.3l3.3-10.4h5.3l-5.9,16.2H72.6z"/>
	<path class="st1" d="M98.3,32.2c-1.7,1.5-3.8,2.3-6.3,2.3s-4.7-0.7-6.3-2.2c-1.7-1.5-2.5-3.5-2.5-6V26c0-2.6,0.8-4.6,2.5-6.2
		c1.7-1.5,3.8-2.3,6.4-2.3c2.5,0,4.6,0.8,6.3,2.3c1.7,1.5,2.5,3.5,2.5,6.1V26C100.8,28.6,100,30.7,98.3,32.2z M92,30.3
		c1,0,1.8-0.4,2.4-1.1c0.5-0.7,0.8-1.8,0.8-3.1v-0.2c0-2.8-1.1-4.2-3.2-4.2c-1,0-1.8,0.4-2.4,1.1c-0.6,0.7-0.8,1.7-0.8,3.1V26
		C88.8,28.9,89.8,30.3,92,30.3z"/>
	<path class="st1" d="M116,32.2c-1.7,1.5-3.8,2.3-6.3,2.3c-2.6,0-4.7-0.7-6.3-2.2c-1.7-1.5-2.5-3.5-2.5-6V26c0-2.6,0.8-4.6,2.5-6.2
		c1.7-1.5,3.8-2.3,6.4-2.3c2.5,0,4.6,0.8,6.3,2.3c1.7,1.5,2.5,3.5,2.5,6.1V26C118.5,28.6,117.7,30.7,116,32.2z M109.7,30.3
		c1,0,1.8-0.4,2.4-1.1c0.5-0.7,0.8-1.8,0.8-3.1v-0.2c0-2.8-1.1-4.2-3.2-4.2c-1,0-1.8,0.4-2.4,1.1c-0.6,0.7-0.8,1.7-0.8,3.1V26
		C106.5,28.9,107.6,30.3,109.7,30.3z"/>
	<path class="st1" d="M119.4,34.1V17.9h5.5v3.2c1-2.3,2.7-3.5,5.2-3.4v5.2c-3.5-0.1-5.2,1.1-5.2,3.6v7.7H119.4z"/>
	<path class="st1" d="M135.7,34.1V17.9h5.5v2.5c0.5-0.8,1.1-1.5,2-2.1c0.9-0.5,1.9-0.8,3.1-0.8c2.1,0,3.6,0.9,4.4,2.7
		c1.3-1.8,3.1-2.7,5.4-2.7c1.6,0,2.9,0.5,3.8,1.5c1,1,1.5,2.5,1.5,4.5v10.6h-5.5v-9.7c0-0.8-0.2-1.4-0.6-1.8
		c-0.4-0.4-0.9-0.6-1.5-0.6c-0.8,0-1.4,0.2-1.8,0.7c-0.4,0.5-0.7,1.1-0.7,2v9.4h-5.5v-9.7c0-0.8-0.2-1.4-0.6-1.8
		c-0.4-0.4-0.9-0.6-1.5-0.6c-0.8,0-1.4,0.2-1.8,0.7c-0.4,0.5-0.7,1.1-0.7,2v9.4H135.7z"/>
	<path class="st1" d="M170.9,34.5c-2.6,0-4.7-0.7-6.3-2.2c-1.6-1.5-2.4-3.5-2.4-6.1V26c0-2.5,0.8-4.6,2.5-6.1
		c1.7-1.6,3.8-2.3,6.3-2.3c2.4,0,4.3,0.7,5.9,2.1c1.6,1.4,2.3,3.5,2.3,6.3v1.5h-11.4c0.1,1.1,0.4,1.9,1,2.5c0.6,0.6,1.4,0.9,2.4,0.9
		c1.6,0,2.6-0.6,2.8-1.9h5.2c-0.2,1.8-1.1,3.2-2.5,4.2C175.3,34,173.3,34.5,170.9,34.5z M167.8,24.2h5.9c-0.1-2-1.1-3-2.8-3
		c-0.8,0-1.5,0.3-2.1,0.8C168.3,22.4,167.9,23.2,167.8,24.2z"/>
	<path class="st1" d="M187.9,34.5c-2.6,0-4.7-0.7-6.3-2.2c-1.6-1.5-2.4-3.5-2.4-6.1V26c0-2.5,0.8-4.6,2.5-6.1
		c1.7-1.6,3.8-2.3,6.3-2.3c2.4,0,4.3,0.7,5.9,2.1c1.6,1.4,2.3,3.5,2.3,6.3v1.5h-11.4c0.1,1.1,0.4,1.9,1,2.5c0.6,0.6,1.4,0.9,2.4,0.9
		c1.6,0,2.6-0.6,2.8-1.9h5.2c-0.2,1.8-1.1,3.2-2.5,4.2C192.3,34,190.3,34.5,187.9,34.5z M184.8,24.2h5.9c-0.1-2-1.1-3-2.8-3
		c-0.8,0-1.5,0.3-2.1,0.8C185.3,22.4,184.9,23.2,184.8,24.2z"/>
	<path class="st1" d="M197,34.1V17.9h5.5v3.2c1-2.3,2.7-3.5,5.2-3.4v5.2c-3.5-0.1-5.2,1.1-5.2,3.6v7.7H197z"/>
</g>
<g>
	<path class="st1" d="M0.9,60.6V44.5h5.5v2.6c0.5-0.9,1.2-1.6,2.1-2.2c0.9-0.6,2-0.8,3.3-0.8c1.6,0,2.9,0.5,3.9,1.5
		c0.9,1,1.4,2.5,1.4,4.6v10.5h-5.5v-9.4c0-1.8-0.8-2.7-2.3-2.7c-0.8,0-1.5,0.3-2,0.8c-0.5,0.5-0.7,1.3-0.7,2.3v9.1H0.9z"/>
	<path class="st1" d="M23.8,42.1c-0.6,0.5-1.3,0.8-2.2,0.8c-0.9,0-1.6-0.3-2.2-0.8c-0.6-0.5-0.9-1.2-0.9-2c0-0.8,0.3-1.5,0.9-2.1
		c0.6-0.5,1.3-0.8,2.2-0.8c0.9,0,1.6,0.3,2.2,0.8c0.6,0.5,0.9,1.2,0.9,2.1C24.7,40.9,24.4,41.6,23.8,42.1z M18.8,60.6V44.5h5.5v16.2
		H18.8z"/>
	<path class="st1" d="M34.2,61c-2.6,0-4.7-0.7-6.3-2.2c-1.6-1.5-2.4-3.5-2.4-6.1v-0.2c0-2.5,0.8-4.6,2.5-6.1
		c1.7-1.6,3.8-2.3,6.3-2.3c2.4,0,4.3,0.7,5.9,2.1c1.6,1.4,2.3,3.5,2.3,6.3v1.5H31c0.1,1.1,0.4,1.9,1,2.5c0.6,0.6,1.4,0.9,2.4,0.9
		c1.6,0,2.6-0.6,2.8-1.9h5.2c-0.2,1.8-1.1,3.2-2.5,4.2C38.5,60.5,36.6,61,34.2,61z M31.1,50.7H37c-0.1-2-1.1-3-2.8-3
		c-0.8,0-1.5,0.3-2.1,0.8C31.6,49,31.2,49.7,31.1,50.7z"/>
	<path class="st1" d="M48.6,61c-1.6,0-2.9-0.5-3.9-1.5c-1-1-1.5-2.5-1.5-4.5V44.5h5.5v9.7c0,1.8,0.8,2.7,2.3,2.7
		c0.9,0,1.5-0.3,2-0.8c0.5-0.5,0.7-1.3,0.7-2.3v-9.3h5.5v16.2h-5.5v-2.5C52.7,60.1,51,61,48.6,61z"/>
	<path class="st1" d="M64.6,60.6l-4.9-16.2h5.8l2.4,9.7l2.7-9.7H75l2.4,9.7l2.6-9.7h5.3l-5.1,16.2h-5.3l-2.4-9l-2.5,9H64.6z"/>
	<path class="st1" d="M92.8,61c-2.6,0-4.7-0.7-6.3-2.2c-1.6-1.5-2.4-3.5-2.4-6.1v-0.2c0-2.5,0.8-4.6,2.5-6.1
		c1.7-1.6,3.8-2.3,6.3-2.3c2.4,0,4.3,0.7,5.9,2.1c1.6,1.4,2.3,3.5,2.3,6.3v1.5H89.6c0.1,1.1,0.4,1.9,1,2.5c0.6,0.6,1.4,0.9,2.4,0.9
		c1.6,0,2.6-0.6,2.8-1.9h5.2c-0.2,1.8-1.1,3.2-2.5,4.2C97.2,60.5,95.3,61,92.8,61z M89.7,50.7h5.9c-0.1-2-1.1-3-2.8-3
		c-0.8,0-1.5,0.3-2.1,0.8C90.2,49,89.8,49.7,89.7,50.7z"/>
</g>
<g>
	<path class="st0" d="M118,59.6c-1.3,0.9-3.1,1.4-5.4,1.4c-2.3,0-4.1-0.5-5.4-1.4c-1.3-0.9-2-2.3-2-4.1h5.1c0.1,0.6,0.3,1.1,0.6,1.4
		c0.3,0.3,0.9,0.4,1.6,0.4c1.3,0,2-0.4,2-1.3c0-0.4-0.2-0.7-0.7-0.9c-0.4-0.2-1.2-0.4-2.3-0.6c-2.2-0.3-3.8-0.8-4.7-1.6
		c-0.9-0.8-1.4-2-1.4-3.6c0-1.7,0.7-3,2-3.9c1.3-0.9,3-1.4,5-1.4c4.4,0,6.8,1.7,7.1,5.2h-5c-0.2-1.1-0.9-1.6-2.1-1.6
		c-0.6,0-1,0.1-1.3,0.3c-0.3,0.2-0.5,0.5-0.5,0.9c0,0.4,0.2,0.7,0.6,0.9c0.4,0.2,1.1,0.4,2.1,0.5c2.4,0.3,4,0.8,5.1,1.6
		c1,0.8,1.6,2,1.6,3.6C120,57.3,119.3,58.7,118,59.6z"/>
	<path class="st0" d="M120.7,66.1V44.5h5.5v2.4c1.1-1.9,2.8-2.8,5-2.8c2,0,3.6,0.7,4.9,2.2c1.3,1.5,1.9,3.5,1.9,6.2v0.2
		c0,2.7-0.6,4.7-1.9,6.2c-1.3,1.4-2.9,2.2-4.9,2.2c-1.2,0-2.2-0.3-3.1-0.8c-0.9-0.5-1.5-1.2-1.9-2v7.8H120.7z M126.9,55.7
		c0.6,0.7,1.4,1.1,2.4,1.1c1,0,1.8-0.4,2.4-1.1c0.5-0.7,0.8-1.7,0.8-3.1v-0.2c0-1.4-0.3-2.4-0.8-3.1c-0.6-0.7-1.3-1.1-2.4-1.1
		c-1,0-1.8,0.4-2.4,1.1c-0.6,0.7-0.9,1.8-0.9,3.1v0.2C126.1,54,126.4,55,126.9,55.7z"/>
	<path class="st0" d="M147,61c-2.6,0-4.7-0.7-6.3-2.2c-1.6-1.5-2.4-3.5-2.4-6.1v-0.2c0-2.5,0.8-4.6,2.5-6.1c1.7-1.6,3.8-2.3,6.3-2.3
		c2.4,0,4.3,0.7,5.9,2.1c1.6,1.4,2.3,3.5,2.3,6.3v1.5h-11.4c0.1,1.1,0.4,1.9,1,2.5c0.6,0.6,1.4,0.9,2.4,0.9c1.6,0,2.6-0.6,2.8-1.9
		h5.2c-0.2,1.8-1.1,3.2-2.5,4.2C151.4,60.5,149.5,61,147,61z M143.9,50.7h5.9c-0.1-2-1.1-3-2.8-3c-0.8,0-1.5,0.3-2.1,0.8
		C144.4,49,144,49.7,143.9,50.7z"/>
	<path class="st0" d="M161.4,61c-1.6,0-2.9-0.5-3.9-1.5c-1-1-1.5-2.5-1.5-4.5V44.5h5.5v9.7c0,1.8,0.8,2.7,2.3,2.7
		c0.9,0,1.5-0.3,2-0.8c0.5-0.5,0.7-1.3,0.7-2.3v-9.3h5.5v16.2h-5.5v-2.5C165.6,60.1,163.8,61,161.4,61z"/>
	<path class="st0" d="M173.9,60.6V44.5h5.5v3.2c1-2.3,2.7-3.5,5.2-3.4v5.2c-3.5-0.1-5.2,1.1-5.2,3.6v7.7H173.9z"/>
	<path class="st0" d="M185.6,60.6V37.3h5.5v9.7c0.5-0.9,1.2-1.6,2.1-2.2c0.9-0.6,2-0.8,3.3-0.8c1.6,0,2.9,0.5,3.9,1.5
		c0.9,1,1.4,2.5,1.4,4.6v10.5h-5.5v-9.4c0-1.8-0.8-2.7-2.3-2.7c-0.8,0-1.5,0.3-2,0.8c-0.5,0.5-0.7,1.3-0.7,2.3v9.1H185.6z"/>
	<path class="st0" d="M217.6,58.7c-1.7,1.5-3.8,2.3-6.3,2.3c-2.6,0-4.7-0.7-6.3-2.2c-1.7-1.5-2.5-3.5-2.5-6v-0.2
		c0-2.6,0.8-4.6,2.5-6.2c1.7-1.5,3.8-2.3,6.4-2.3c2.5,0,4.6,0.8,6.3,2.3c1.7,1.5,2.5,3.5,2.5,6.1v0.2
		C220.2,55.2,219.3,57.2,217.6,58.7z M211.3,56.9c1,0,1.8-0.4,2.4-1.1c0.5-0.7,0.8-1.8,0.8-3.1v-0.2c0-2.8-1.1-4.2-3.2-4.2
		c-1,0-1.8,0.4-2.4,1.1c-0.6,0.7-0.8,1.7-0.8,3.1v0.2C208.1,55.5,209.2,56.9,211.3,56.9z"/>
	<path class="st0" d="M221.1,60.6V44.5h5.5v2.6c0.5-0.9,1.2-1.6,2.1-2.2c0.9-0.6,2-0.8,3.3-0.8c1.6,0,2.9,0.5,3.9,1.5
		c0.9,1,1.4,2.5,1.4,4.6v10.5h-5.5v-9.4c0-1.8-0.8-2.7-2.3-2.7c-0.8,0-1.5,0.3-2,0.8c-0.5,0.5-0.7,1.3-0.7,2.3v9.1H221.1z"/>
	<path class="st0" d="M244.8,61c-2,0-3.6-0.7-4.9-2.1c-1.3-1.4-1.9-3.5-1.9-6.2v-0.2c0-2.7,0.6-4.7,1.9-6.2c1.3-1.5,2.9-2.2,4.9-2.2
		c2.3,0,4,0.9,5,2.7v-9.4h5.5v23.3h-5.5V58c-0.4,0.9-1.1,1.6-2,2.2C247,60.7,246,61,244.8,61z M246.8,56.8c1,0,1.8-0.4,2.4-1.1
		c0.6-0.7,0.9-1.7,0.9-3.1v-0.2c0-1.4-0.3-2.4-0.8-3.1c-0.5-0.7-1.3-1.1-2.4-1.1c-2.1,0-3.2,1.4-3.2,4.2v0.2c0,1.3,0.3,2.4,0.8,3.1
		C245,56.4,245.8,56.8,246.8,56.8z"/>
	<path class="st0" d="M265.1,61c-2.6,0-4.7-0.7-6.3-2.2c-1.6-1.5-2.4-3.5-2.4-6.1v-0.2c0-2.5,0.8-4.6,2.5-6.1
		c1.7-1.6,3.8-2.3,6.3-2.3c2.4,0,4.3,0.7,5.9,2.1c1.6,1.4,2.3,3.5,2.3,6.3v1.5h-11.4c0.1,1.1,0.4,1.9,1,2.5c0.6,0.6,1.4,0.9,2.4,0.9
		c1.6,0,2.6-0.6,2.8-1.9h5.2c-0.2,1.8-1.1,3.2-2.5,4.2C269.4,60.5,267.5,61,265.1,61z M261.9,50.7h5.9c-0.1-2-1.1-3-2.8-3
		c-0.8,0-1.5,0.3-2.1,0.8C262.4,49,262.1,49.7,261.9,50.7z"/>
	<path class="st0" d="M274.1,60.6V44.5h5.5v2.6c0.5-0.9,1.2-1.6,2.1-2.2c0.9-0.6,2-0.8,3.3-0.8c1.6,0,2.9,0.5,3.9,1.5
		c0.9,1,1.4,2.5,1.4,4.6v10.5h-5.5v-9.4c0-1.8-0.8-2.7-2.3-2.7c-0.8,0-1.5,0.3-2,0.8c-0.5,0.5-0.7,1.3-0.7,2.3v9.1H274.1z"/>
</g>
<g>
	<path class="st1" d="M297.4,60.1c-0.6,0.6-1.4,0.9-2.3,0.9c-0.9,0-1.7-0.3-2.3-0.9c-0.6-0.6-1-1.3-1-2.2c0-0.8,0.3-1.6,1-2.2
		c0.6-0.6,1.4-0.9,2.3-0.9c0.9,0,1.7,0.3,2.3,0.9c0.7,0.6,1,1.3,1,2.2C298.4,58.8,298.1,59.5,297.4,60.1z M292.8,53.4L292,38.5h6.3
		l-0.8,14.9H292.8z"/>
</g>
</svg>
