<?xml version="1.0" encoding="utf-8"?>
<!-- Generator: Adobe Illustrator 24.3.0, SVG Export Plug-In . SVG Version: 6.00 Build 0)  -->
<svg version="1.1" id="Laag_1" xmlns="http://www.w3.org/2000/svg" xmlns:xlink="http://www.w3.org/1999/xlink" x="0px" y="0px"
	 width="389.5px" height="70.7px" viewBox="0 0 389.5 70.7" style="enable-background:new 0 0 389.5 70.7;" xml:space="preserve">
<style type="text/css">
	.st0{fill:#1A1D56;}
</style>
<g>
	<path class="st0" d="M7.5,24.3c0,2.3,0.8,3,3.8,2.9v1H0.9v-1c2.5,0.1,3.5-0.5,3.5-2.9V8.9c0-1.9-0.5-3-3.6-2.9V5h8.9
		c3.1,0,4,0.1,5.1,0.3c3.5,0.8,5.4,2.8,5.4,5.7c0,3.7-3.3,6.5-7.8,6.5c-2.3,0-2.8-0.3-2.8-0.8c0-0.3,0.3-0.6,0.7-0.6
		c0.3,0,1.1,0.1,1.3,0.1c2.2,0,4.9-1.3,4.9-4.7c0-3.2-2.1-5.5-5.8-5.5H7.5V24.3z"/>
	<path class="st0" d="M35.7,26.7c-1.1,1.3-2,1.9-2.9,1.9c-1.4,0-2.1-0.9-2.2-2.7c-1.6,1.8-3.4,2.7-5,2.7c-2.3,0-3.9-1.5-3.9-3.6
		s1.3-3.2,5.8-4.8l3.1-1.1v-2.7c0-1.7-1.3-2.9-3.2-2.9c-1.5,0-2.9,0.9-2.9,1.8c0,0.8,0.9,1.6,0.9,2c0,0.5-2.1,1.2-2.2,1.2
		c-0.3,0-0.9-1.2-0.9-2.1c0-2.3,2.6-4,6.2-4c3.4,0,4.8,1.4,4.8,4.1v7.9c0,1.2,0.3,1.7,0.9,1.7c0.4,0,0.7-0.1,1.2-0.4L35.7,26.7z
		 M26.6,21.8c-1.4,0.6-2.1,1.4-2.1,2.4c0,1.4,1.1,2.3,2.5,2.3c1.2,0,2.5-0.6,3.6-1.9V20L26.6,21.8z"/>
	<path class="st0" d="M41,4.6v19.7c0,2.3,0.4,3,2.4,3v0.9h-7.5v-0.9c1.9-0.1,2.5-0.4,2.5-3.1V7.8l-2.5-1.1V6.1L41,4.6z"/>
	<path class="st0" d="M58.4,26.7c-1.1,1.3-2,1.9-2.9,1.9c-1.4,0-2.1-0.9-2.2-2.7c-1.6,1.8-3.4,2.7-5,2.7c-2.3,0-3.9-1.5-3.9-3.6
		s1.3-3.2,5.8-4.8l3.1-1.1v-2.7c0-1.7-1.3-2.9-3.2-2.9c-1.5,0-2.9,0.9-2.9,1.8c0,0.8,0.9,1.6,0.9,2c0,0.5-2.1,1.2-2.2,1.2
		c-0.3,0-0.9-1.2-0.9-2.1c0-2.3,2.6-4,6.2-4c3.4,0,4.8,1.4,4.8,4.1v7.9c0,1.2,0.3,1.7,0.9,1.7c0.4,0,0.7-0.1,1.2-0.4L58.4,26.7z
		 M49.3,21.8c-1.4,0.6-2.1,1.4-2.1,2.4c0,1.4,1.1,2.3,2.5,2.3c1.2,0,2.5-0.6,3.6-1.9V20L49.3,21.8z"/>
	<path class="st0" d="M76.7,27.6l-5.2,1v-3c-1.7,1.9-3.9,3-5.8,3c-2.3,0-4.6-1.6-4.6-4.8v-7.6c0-1.6-0.5-2.2-2.7-2.4v-0.9
		c1.7,0,2.8-0.1,3.6-0.1c0.8-0.1,1.3-0.1,1.7-0.2v10.5c0,2.2,1.2,3.4,3.3,3.4c1.5,0,3.1-0.7,4.5-2v-8c0-1.9-0.4-2.7-2.8-2.7v-0.9
		c1.5,0,2.5-0.1,3.4-0.1c0.9-0.1,1.5-0.1,2.1-0.2V25c0,1.9,0.8,1.9,2.5,1.7V27.6z"/>
	<path class="st0" d="M103.5,27.7l-5.1,0.9v-2.8c-2.1,2.1-3.6,2.9-5.6,2.9c-3.6,0-6.4-3.1-6.4-7.2c0-3.8,2.8-8.8,8.2-8.8
		c1.5,0,2.7,0.3,3.9,1.2V7.8l-2.6-1.1V6.1l5.3-1.5v20.2c0,1.5,0.4,2,1.4,2c0.4,0,0.8,0,1.1-0.1V27.7z M98.3,18.6
		c0-2.5-1.7-4.9-4.6-4.9c-2.9,0-4.8,2.4-4.8,6.2c0,3.9,2.2,6.8,5.3,6.8c1.5,0,2.8-0.6,4.1-2.1V18.6z"/>
	<path class="st0" d="M106.8,18.6c-0.2,5.2,3,7.6,6.2,7.6c1.7,0,2.8-0.5,4.2-1.9l0.6,0.6c-1.6,2.4-3.7,3.7-6.1,3.7
		c-4.2,0-7.1-3.3-7.1-7.9c0-4.7,2.9-8.1,7-8.1c3.4,0,6.2,2.6,6.3,6H106.8z M114.5,17.6c-0.3-2.5-1.6-4-3.6-4c-2,0-3.6,1.6-4,4H114.5
		z"/>
	<path class="st0" d="M131.7,4.6v19.7c0,2.3,0.4,3,2.4,3v0.9h-7.5v-0.9c1.9-0.1,2.5-0.4,2.5-3.1V7.8l-2.5-1.1V6.1L131.7,4.6z"/>
	<path class="st0" d="M149.2,26.7c-1.1,1.3-2,1.9-2.9,1.9c-1.4,0-2.1-0.9-2.2-2.7c-1.6,1.8-3.4,2.7-5,2.7c-2.3,0-3.9-1.5-3.9-3.6
		s1.3-3.2,5.8-4.8l3.1-1.1v-2.7c0-1.7-1.3-2.9-3.2-2.9c-1.5,0-2.9,0.9-2.9,1.8c0,0.8,0.9,1.6,0.9,2c0,0.5-2.1,1.2-2.2,1.2
		c-0.3,0-0.9-1.2-0.9-2.1c0-2.3,2.6-4,6.2-4c3.4,0,4.8,1.4,4.8,4.1v7.9c0,1.2,0.3,1.7,0.9,1.7c0.4,0,0.7-0.1,1.2-0.4L149.2,26.7z
		 M140,21.8c-1.4,0.6-2.1,1.4-2.1,2.4c0,1.4,1.1,2.3,2.5,2.3c1.2,0,2.5-0.6,3.6-1.9V20L140,21.8z"/>
	<path class="st0" d="M162.9,13.1c0.3-1.5,0.5-3.1,0.5-4.5c0-1.7-1-2.7-2.8-2.6V5h6c0.1,1.7,2,6.4,3,8.6l1.6,3.5
		c1.2,2.5,1.8,3.4,3.2,6.8c0.5-1.2,0.9-2.1,2-4.2l2.5-4.9c2.6-5.1,3.1-7.3,3.1-9.8h6.4v1c-2.1-0.1-2.8,0.7-2.8,2.6
		c0,0.5,0.1,1.3,0.2,2.1l1.8,13.2c0.3,2.5,1.2,3.2,3.3,3.4v1h-9.9v-1c2,0,3.2-1.1,3.2-2.8c0-0.2-0.1-1.6-0.3-3.6l-1.3-11.6h-0.1
		c-0.2,0.6-0.3,1-0.7,1.9c-0.8,1.9-1,2.3-2,4.2l-1.2,2.2c-1.5,3-1.8,3.6-2.4,4.9c-0.8,1.7-1.4,3.3-1.7,4.2c-0.2,0.6-0.3,0.9-0.4,1.5
		h-1.3c-0.4-1.7-1-3.2-2.1-5.7l-3.3-7c-1.1-2.2-2-4.6-2.5-6.3h-0.1l-1.9,12.7c-0.2,1-0.2,1.5-0.2,2.1c0,2,0.8,2.9,3.2,3.2v1h-8v-1
		c2.5-0.2,3.3-2.7,3.9-6.6L162.9,13.1z"/>
	<path class="st0" d="M208.9,27.6l-5.2,1v-3c-1.7,1.9-3.9,3-5.8,3c-2.3,0-4.6-1.6-4.6-4.8v-7.6c0-1.6-0.5-2.2-2.7-2.4v-0.9
		c1.7,0,2.8-0.1,3.6-0.1c0.8-0.1,1.3-0.1,1.7-0.2v10.5c0,2.2,1.2,3.4,3.3,3.4c1.5,0,3.1-0.7,4.5-2v-8c0-1.9-0.4-2.7-2.8-2.7v-0.9
		c1.5,0,2.5-0.1,3.4-0.1c0.8-0.1,1.5-0.1,2.1-0.2V25c0,1.9,0.8,1.9,2.5,1.7V27.6z M197.5,10.4l1.5-3.9c0.4-1,0.6-1.2,1.8-1.2h0.8
		c0.7,0,0.9,0.1,0.9,0.5c0,0.1-0.1,0.4-0.4,0.7l-3.4,3.8H197.5z"/>
	<path class="st0" d="M211.5,23.1c0.3,2.7,1.7,4.5,3.9,4.5c1.7,0,3-1.2,3-2.7c0-0.4-0.1-1.1-0.5-1.5c-1.7-1.7-4.8-2.2-6.7-4.1
		c-0.6-0.6-1.1-1.5-1.1-2.6c0-2.4,2.1-4.1,5-4.1c1.6,0,3.1,0.5,4.4,1.5v3.6h-0.9c-0.5-2.8-1.6-4.1-3.5-4.1c-1.6,0-2.7,1-2.7,2.3
		c0,0.6,0.2,1.2,0.6,1.6c1.4,1.4,4.5,1.9,6.4,3.8c0.8,0.8,1.2,1.8,1.2,2.8c0,2.6-2.3,4.5-5.3,4.5c-1.6,0-3.3-0.4-4.7-1.3v-4.2H211.5
		z"/>
	<path class="st0" d="M227.3,12.6v11.9c0,2.1,0.4,2.9,2.4,2.9v0.9h-7.7v-0.9c2.2,0,2.7-0.6,2.7-3v-8.6l-2.5-1.1V14L227.3,12.6z
		 M225.9,4.6c1,0,1.7,0.8,1.7,1.7c0,1-0.8,1.7-1.7,1.7s-1.7-0.8-1.7-1.7C224.2,5.4,224.9,4.6,225.9,4.6z"/>
	<path class="st0" d="M244.3,24.5c-1.5,2.5-3.8,4-6.2,4c-4,0-7.4-3.3-7.4-7.8c0-4.8,3.5-8.2,8.2-8.2c3,0,5.2,1.3,5.2,3.1
		c0,0.9-0.5,1.5-1.3,1.5c-2.2,0-0.9-3.6-4.6-3.6c-3,0-4.9,2.3-4.9,5.8c0,3.9,2.4,6.8,5.8,6.8c1.6,0,3.1-0.7,4.5-2.1L244.3,24.5z"/>
	<path class="st0" d="M259.7,26.7c-1.1,1.3-2,1.9-2.9,1.9c-1.4,0-2.1-0.9-2.2-2.7c-1.6,1.8-3.4,2.7-5,2.7c-2.3,0-3.9-1.5-3.9-3.6
		s1.3-3.2,5.8-4.8l3.1-1.1v-2.7c0-1.7-1.3-2.9-3.2-2.9c-1.5,0-2.9,0.9-2.9,1.8c0,0.8,0.9,1.6,0.9,2c0,0.5-2.1,1.2-2.2,1.2
		c-0.3,0-0.9-1.2-0.9-2.1c0-2.3,2.6-4,6.2-4c3.4,0,4.8,1.4,4.8,4.1v7.9c0,1.2,0.3,1.7,0.9,1.7c0.4,0,0.7-0.1,1.2-0.4L259.7,26.7z
		 M250.6,21.8c-1.4,0.6-2.1,1.4-2.1,2.4c0,1.4,1.1,2.3,2.5,2.3c1.2,0,2.5-0.6,3.6-1.9V20L250.6,21.8z"/>
	<path class="st0" d="M292.1,21.6l-0.1,5c-2.3,1.3-6.1,2.1-9.3,2.1c-7.5,0-12.7-4.9-12.7-11.8c0-7.9,6.9-12.2,13.2-12.2
		c2.7,0,5.7,0.6,8,1.6l0.9,5.1h-1.1c-2-3.8-4.4-5.5-8-5.5c-2.8,0-4.9,1-6.2,2.3c-2.1,2.1-3,5.1-3,8.3c0,3.7,1.1,6.5,3.4,8.8
		c1.5,1.5,3.6,2.3,6.1,2.3c4.1,0,6.7-1.9,8-5.9H292.1z"/>
	<path class="st0" d="M308.5,26.7c-1.1,1.3-2,1.9-2.9,1.9c-1.4,0-2.1-0.9-2.2-2.7c-1.6,1.8-3.4,2.7-5,2.7c-2.3,0-3.9-1.5-3.9-3.6
		s1.3-3.2,5.8-4.8l3.1-1.1v-2.7c0-1.7-1.3-2.9-3.2-2.9c-1.5,0-2.9,0.9-2.9,1.8c0,0.8,0.9,1.6,0.9,2c0,0.5-2.1,1.2-2.2,1.2
		c-0.3,0-0.9-1.2-0.9-2.1c0-2.3,2.6-4,6.2-4c3.4,0,4.8,1.4,4.8,4.1v7.9c0,1.2,0.3,1.7,0.9,1.7c0.4,0,0.7-0.1,1.2-0.4L308.5,26.7z
		 M299.4,21.8c-1.4,0.6-2.1,1.4-2.1,2.4c0,1.4,1.1,2.3,2.5,2.3c1.2,0,2.5-0.6,3.6-1.9V20L299.4,21.8z"/>
	<path class="st0" d="M319.1,27.7c-1.4,0.5-3.2,0.9-4.3,0.9c-2.4,0-3.3-1.2-3.3-3.5v-11h-2.7v-0.8c2.2-0.6,3.7-1.8,4.5-3.8h0.8v3.3
		h4.7v1.2h-4.7v10.5c0,1.7,0.5,2.3,2.3,2.3c0.7,0,1.5-0.1,2.7-0.3V27.7z"/>
	<path class="st0" d="M333.4,26.7c-1.1,1.3-2,1.9-2.9,1.9c-1.4,0-2.1-0.9-2.2-2.7c-1.6,1.8-3.4,2.7-5,2.7c-2.3,0-3.9-1.5-3.9-3.6
		s1.3-3.2,5.8-4.8l3.1-1.1v-2.7c0-1.7-1.3-2.9-3.2-2.9c-1.5,0-2.9,0.9-2.9,1.8c0,0.8,0.9,1.6,0.9,2c0,0.5-2.1,1.2-2.2,1.2
		c-0.3,0-0.9-1.2-0.9-2.1c0-2.3,2.6-4,6.2-4c3.4,0,4.8,1.4,4.8,4.1v7.9c0,1.2,0.3,1.7,0.9,1.7c0.4,0,0.7-0.1,1.2-0.4L333.4,26.7z
		 M324.3,21.8c-1.4,0.6-2.1,1.4-2.1,2.4c0,1.4,1.1,2.3,2.5,2.3c1.2,0,2.5-0.6,3.6-1.9V20L324.3,21.8z"/>
	<path class="st0" d="M338.7,4.6v19.7c0,2.3,0.4,3,2.4,3v0.9h-7.5v-0.9c1.9-0.1,2.5-0.4,2.5-3.1V7.8l-2.5-1.1V6.1L338.7,4.6z"/>
	<path class="st0" d="M356.1,26.7c-1.1,1.3-2,1.9-2.9,1.9c-1.4,0-2.1-0.9-2.2-2.7c-1.6,1.8-3.4,2.7-5,2.7c-2.3,0-3.9-1.5-3.9-3.6
		s1.3-3.2,5.8-4.8l3.1-1.1v-2.7c0-1.7-1.3-2.9-3.2-2.9c-1.5,0-2.9,0.9-2.9,1.8c0,0.8,0.9,1.6,0.9,2c0,0.5-2.1,1.2-2.2,1.2
		c-0.3,0-0.9-1.2-0.9-2.1c0-2.3,2.6-4,6.2-4c3.4,0,4.8,1.4,4.8,4.1v7.9c0,1.2,0.3,1.7,0.9,1.7c0.4,0,0.7-0.1,1.2-0.4L356.1,26.7z
		 M347,21.8c-1.4,0.6-2.1,1.4-2.1,2.4c0,1.4,1.1,2.3,2.5,2.3c1.2,0,2.5-0.6,3.6-1.9V20L347,21.8z"/>
	<path class="st0" d="M361.8,12.6v2.9c1.7-1.7,3.7-2.9,5.9-2.9c2.6,0,4.5,1.7,4.5,4.9v7c0,2.1,0.5,2.8,2.5,2.8v0.9h-7.8v-0.9
		c2.2,0,2.7-0.7,2.7-2.9v-6.7c0-1.8-1.2-3.1-3.1-3.1c-1.6,0-3.3,0.7-4.7,2v7.7c0,2.2,0.2,3.1,2.7,3v0.9h-7.9v-0.9
		c1.9,0,2.5-0.5,2.5-3v-8.7l-2.4-1.1v-0.5L361.8,12.6z"/>
	<path class="st0" d="M389.5,26.7c-1.1,1.3-2,1.9-2.9,1.9c-1.4,0-2.1-0.9-2.2-2.7c-1.6,1.8-3.4,2.7-5,2.7c-2.3,0-3.9-1.5-3.9-3.6
		s1.3-3.2,5.8-4.8l3.1-1.1v-2.7c0-1.7-1.3-2.9-3.2-2.9c-1.5,0-2.9,0.9-2.9,1.8c0,0.8,0.9,1.6,0.9,2c0,0.5-2.1,1.2-2.2,1.2
		c-0.3,0-0.9-1.2-0.9-2.1c0-2.3,2.6-4,6.2-4c3.4,0,4.8,1.4,4.8,4.1v7.9c0,1.2,0.3,1.7,0.9,1.7c0.4,0,0.7-0.1,1.2-0.4L389.5,26.7z
		 M380.4,21.8c-1.4,0.6-2.1,1.4-2.1,2.4c0,1.4,1.1,2.3,2.5,2.3c1.2,0,2.5-0.6,3.6-1.9V20L380.4,21.8z"/>
	<path class="st0" d="M25.4,39l0.4,5.5h-1C23.5,41.1,22,40,19.8,40h-4.9v18.1c0,2.3,0.6,3.2,3.6,3.1v1H8.2v-1
		c2.6,0.1,3.5-0.5,3.5-3.1V40H7.3c-2.9,0-4.2,1.3-5.6,4.5h-1L1.1,39H25.4z"/>
	<path class="st0" d="M29.3,52.6c-0.2,5.2,3,7.6,6.2,7.6c1.7,0,2.8-0.5,4.2-1.9l0.6,0.6c-1.6,2.4-3.7,3.7-6.1,3.7
		c-4.2,0-7.1-3.3-7.1-7.9c0-4.7,2.9-8.1,7-8.1c3.4,0,6.2,2.6,6.3,6H29.3z M37.1,51.6c-0.3-2.5-1.6-4-3.6-4c-2,0-3.6,1.6-4,4H37.1z"
		/>
	<path class="st0" d="M46.3,46.6v2.7c1.6-1.7,3.6-2.7,5.6-2.7c2.1,0,3.9,1.2,4.3,2.9c1.9-2,3.8-2.9,5.8-2.9c1.8,0,4.6,1.1,4.6,4.1
		v7.8c0,2,0.3,2.9,2.4,2.9v0.9h-7.4v-0.9c1.6,0,2.3-0.6,2.3-2.7v-6.3c0-2.1-0.7-3.7-3.3-3.7c-1.4,0-2.9,0.6-4.1,1.8v8.2
		c0,1.9,0.5,2.8,2.4,2.7v0.9h-7.6v-0.9c2,0,2.5-0.7,2.5-2.9v-6.8c0-1.8-1.3-3-3.3-3c-1.4,0-3,0.6-4.2,1.8v8.1c0,2.2,0.5,2.8,2.4,2.8
		v0.9h-7.8v-0.9c2.3,0,2.7-0.6,2.7-3.2v-8.5l-2.3-1.2V48L46.3,46.6z"/>
	<path class="st0" d="M69.2,48.6v-0.5l5.1-1.5v2.9c1.8-1.9,3.6-2.9,5.6-2.9c3.7,0,6.5,3.1,6.5,7.2c0,4.7-3.7,8.8-8,8.8
		c-1.5,0-2.9-0.4-4.1-1.3v3.7c0,2.1,0.1,2.7,3,2.7v0.9h-8.1v-0.9c2.7,0,2.4-1.3,2.4-3.1V49.7L69.2,48.6z M74.3,56.3
		c0,3,1.9,5.2,4.7,5.2c2.9,0,4.7-2.4,4.7-6.2c0-4.1-2.1-6.8-5.3-6.8c-1.5,0-2.8,0.6-4.1,2.1V56.3z"/>
	<path class="st0" d="M96.3,46.6c4.3,0,7.6,3.4,7.6,7.9c0,4.6-3.3,8.1-7.5,8.1c-4.4,0-7.7-3.4-7.7-8C88.6,50,91.9,46.6,96.3,46.6z
		 M93.9,60.4c0.5,0.5,1.5,1.2,3,1.2c2.5,0,4.4-2.1,4.4-5.1c0-1.6-0.4-5.6-2.6-7.8C98,48,97,47.6,95.9,47.6c-2.1,0-4.6,1.3-4.6,5.5
		C91.3,55.3,92.1,58.7,93.9,60.4z"/>
	<path class="st0" d="M110.3,46.6v3.9h0.1c1.3-2.7,2.6-3.7,4-3.7c1.2,0,2.6,1,2.6,1.9c0,0.7-0.6,2-1.2,2c-0.8,0-1.4-1.6-2.6-1.6
		c-0.8,0-1.4,0.6-2.9,3v6.6c0,2.2,0.3,2.9,3.5,2.8v0.9H105v-0.9c2,0,2.7-0.4,2.7-2.4v-9.2l-2.7-1.2v-0.5L110.3,46.6z"/>
	<path class="st0" d="M131.6,60.7c-1.1,1.3-2,1.9-2.9,1.9c-1.4,0-2.1-0.9-2.2-2.7c-1.6,1.8-3.4,2.7-5,2.7c-2.3,0-3.9-1.5-3.9-3.6
		s1.3-3.2,5.8-4.8l3.1-1.1v-2.7c0-1.7-1.3-2.9-3.2-2.9c-1.5,0-2.9,0.9-2.9,1.8c0,0.8,0.9,1.6,0.9,2c0,0.5-2.1,1.2-2.2,1.2
		c-0.3,0-0.9-1.2-0.9-2.1c0-2.3,2.6-4,6.2-4c3.4,0,4.8,1.4,4.8,4.1v7.9c0,1.2,0.3,1.7,0.9,1.7c0.4,0,0.7-0.1,1.2-0.4L131.6,60.7z
		 M122.5,55.8c-1.4,0.6-2.1,1.4-2.1,2.4c0,1.4,1.1,2.3,2.5,2.3c1.2,0,2.5-0.6,3.6-1.9V54L122.5,55.8z"/>
	<path class="st0" d="M150,61.7l-5.1,0.9v-2.8c-2.1,2.1-3.6,2.9-5.6,2.9c-3.6,0-6.4-3.1-6.4-7.2c0-3.8,2.8-8.8,8.2-8.8
		c1.5,0,2.7,0.3,3.9,1.2v-6.1l-2.6-1.1v-0.5l5.3-1.5v20.2c0,1.5,0.4,2,1.4,2c0.4,0,0.8,0,1.1-0.1V61.7z M144.9,52.6
		c0-2.5-1.7-4.9-4.6-4.9s-4.8,2.4-4.8,6.2c0,3.9,2.2,6.8,5.3,6.8c1.5,0,2.8-0.6,4.1-2.1V52.6z"/>
	<path class="st0" d="M165,60.7c-1.1,1.3-2,1.9-2.9,1.9c-1.4,0-2.1-0.9-2.2-2.7c-1.6,1.8-3.4,2.7-5,2.7c-2.3,0-3.9-1.5-3.9-3.6
		s1.3-3.2,5.8-4.8l3.1-1.1v-2.7c0-1.7-1.3-2.9-3.2-2.9c-1.5,0-2.9,0.9-2.9,1.8c0,0.8,0.9,1.6,0.9,2c0,0.5-2.1,1.2-2.2,1.2
		c-0.3,0-0.9-1.2-0.9-2.1c0-2.3,2.6-4,6.2-4c3.4,0,4.8,1.4,4.8,4.1v7.9c0,1.2,0.3,1.7,0.9,1.7c0.4,0,0.7-0.1,1.2-0.4L165,60.7z
		 M155.9,55.8c-1.4,0.6-2.1,1.4-2.1,2.4c0,1.4,1.1,2.3,2.5,2.3c1.2,0,2.5-0.6,3.6-1.9V54L155.9,55.8z"/>
	<path class="st0" d="M190,56.7l-1.9,5.5h-13.3V61l6.6-6.6c3.2-3.2,4.5-6.4,4.5-8.4c0-2.4-2.1-4.2-4.9-4.2c-1.8,0-3.4,0.7-5,2.3
		l-0.7-0.7c2.5-2.8,4.5-3.8,7.2-3.8c3.9,0,6.4,2.7,6.4,5.9c0,2.1-1.3,5-5.9,9.2l-5.5,5.1h8.3c1.5,0,2.1-0.5,3-3H190z"/>
	<path class="st0" d="M195.4,41.5c0.6-0.6,2.2-1.9,4.5-1.9c1.6,0,3.4,0.8,4.4,1.8c2.1,2.1,3.1,5.4,3.1,9.7c0,3.7-0.7,7.2-3,9.6
		c-1.2,1.2-2.9,2-4.5,2c-2.2,0-3.7-1.2-4.7-2.1c-1.9-1.9-2.9-5.2-2.9-9.4C192.4,47.4,193.1,43.8,195.4,41.5z M197.4,60.5
		c0.7,0.7,1.6,1,2.5,1c1.2,0,2-0.5,2.7-1.1c1.5-1.5,2-4.8,2-9.3c0-4.8-0.4-7.7-2.1-9.4c-0.6-0.6-1.5-1.1-2.6-1.1
		c-1,0-1.9,0.4-2.6,1.1c-1.7,1.7-2.1,5.3-2.1,9.4C195.3,54.8,195.5,58.6,197.4,60.5z"/>
	<path class="st0" d="M225.1,56.7l-1.9,5.5H210V61l6.6-6.6c3.2-3.2,4.5-6.4,4.5-8.4c0-2.4-2.1-4.2-4.9-4.2c-1.8,0-3.4,0.7-5,2.3
		l-0.7-0.7c2.5-2.8,4.5-3.8,7.2-3.8c3.9,0,6.4,2.7,6.4,5.9c0,2.1-1.3,5-5.9,9.2l-5.5,5.1h8.3c1.5,0,2.1-0.5,3-3H225.1z"/>
	<path class="st0" d="M236.6,39.6v18.7c0,2.5,0.6,3,3.2,2.9v1.1h-9v-1.1c2.6,0.1,3.1-0.2,3.1-3v-12c0-1.9-0.7-2.5-1.9-2.5h-1.6v-1.1
		c1.6-0.5,3.8-1.6,5.1-3H236.6z"/>
	<path class="st0" d="M255,53.3v2.4h-10.2v-2.4H255z"/>
	<path class="st0" d="M272.2,56.7l-1.9,5.5h-13.3V61l6.6-6.6c3.2-3.2,4.5-6.4,4.5-8.4c0-2.4-2.1-4.2-4.9-4.2c-1.8,0-3.4,0.7-5,2.3
		l-0.7-0.7c2.5-2.8,4.5-3.8,7.2-3.8c3.9,0,6.4,2.7,6.4,5.9c0,2.1-1.3,5-5.9,9.2l-5.5,5.1h8.3c1.5,0,2.1-0.5,3-3H272.2z"/>
	<path class="st0" d="M277.6,41.5c0.6-0.6,2.2-1.9,4.5-1.9c1.6,0,3.4,0.8,4.4,1.8c2.1,2.1,3.1,5.4,3.1,9.7c0,3.7-0.7,7.2-3,9.6
		c-1.2,1.2-2.9,2-4.5,2c-2.2,0-3.7-1.2-4.7-2.1c-1.9-1.9-2.9-5.2-2.9-9.4C274.6,47.4,275.3,43.8,277.6,41.5z M279.6,60.5
		c0.7,0.7,1.6,1,2.5,1c1.2,0,2-0.5,2.7-1.1c1.5-1.5,2-4.8,2-9.3c0-4.8-0.4-7.7-2.1-9.4c-0.6-0.6-1.5-1.1-2.6-1.1
		c-1,0-1.9,0.4-2.6,1.1c-1.7,1.7-2.1,5.3-2.1,9.4C277.5,54.8,277.7,58.6,279.6,60.5z"/>
	<path class="st0" d="M307.4,56.7l-1.9,5.5h-13.3V61l6.6-6.6c3.2-3.2,4.5-6.4,4.5-8.4c0-2.4-2.1-4.2-4.9-4.2c-1.8,0-3.4,0.7-5,2.3
		l-0.7-0.7c2.5-2.8,4.5-3.8,7.2-3.8c3.9,0,6.4,2.7,6.4,5.9c0,2.1-1.3,5-5.9,9.2l-5.5,5.1h8.3c1.5,0,2.1-0.5,3-3H307.4z"/>
	<path class="st0" d="M324.9,56.7l-1.9,5.5h-13.3V61l6.6-6.6c3.2-3.2,4.5-6.4,4.5-8.4c0-2.4-2.1-4.2-4.9-4.2c-1.8,0-3.4,0.7-5,2.3
		l-0.7-0.7c2.5-2.8,4.5-3.8,7.2-3.8c3.9,0,6.4,2.7,6.4,5.9c0,2.1-1.3,5-5.9,9.2l-5.5,5.1h8.3c1.5,0,2.1-0.5,3-3H324.9z"/>
</g>
</svg>
