<?xml version="1.0" encoding="utf-8"?>
<!-- Generator: Adobe Illustrator 24.3.0, SVG Export Plug-In . SVG Version: 6.00 Build 0)  -->
<svg version="1.1" id="Laag_1" xmlns="http://www.w3.org/2000/svg" xmlns:xlink="http://www.w3.org/1999/xlink" x="0px" y="0px"
	 width="98.5px" height="78.8px" viewBox="0 0 98.5 78.8" style="enable-background:new 0 0 98.5 78.8;" xml:space="preserve">
<style type="text/css">
	.st0{clip-path:url(#SVGID_2_);fill:#FF503C;}
</style>
<g>
	<defs>
		<rect id="SVGID_1_" x="0" y="0.9" width="98.5" height="77.9"/>
	</defs>
	<clipPath id="SVGID_2_">
		<use xlink:href="#SVGID_1_"  style="overflow:visible;"/>
	</clipPath>
	<path class="st0" d="M80.3,47.1c0,13.1-10.6,23.8-23.8,23.8S32.8,60.2,32.8,47.1s10.6-23.8,23.8-23.8S80.3,33.9,80.3,47.1
		 M98.5,15.4H14.6v63.4h83.9V15.4z M4.1,77.4v0.2l-0.9,0.3v0.9h7.6v-1.3H6.5c-1.3,0-2.2-0.9-2.2-2.1c0-1.5,1.5-1.7,2.9-1.7h3.7v-1.3
		H6.7c-2.1,0-3.6,1-3.6,2.9C3.1,76.4,3.7,77.1,4.1,77.4 M10.8,37.3H0v1.3h10.8V37.3z M4,42.7v0.2l-0.9,0.3v0.9h7.6v-1.3H6.3
		c-1.4,0-1.9-1-1.9-1.9c0-0.2,0-0.5,0.1-0.6H3.1v0.5C3.1,41.8,3.7,42.4,4,42.7 M4.1,25.5v0.2L3.2,26v0.9h7.6v-1.3H6.5
		c-1.3,0-2.2-0.9-2.2-2.1c0-1.5,1.5-1.7,2.9-1.7h3.7v-1.3H6.7c-2.1,0-3.6,1-3.6,2.9C3.1,24.5,3.7,25.2,4.1,25.5 M10.9,6.6
		C10.9,5.1,10,4,8.6,4c-1.6,0-2,1.4-2.3,2.6C6.2,7.3,5.9,8,5.2,8c-0.6,0-1-0.5-1-1.2c0-0.8,0.5-1.4,1.1-1.4V4.1
		c-1.1,0-2.2,0.9-2.2,2.6c0,1.4,0.8,2.5,2.1,2.5c1.5,0,1.9-1.4,2.2-2.5C7.7,6,7.9,5.2,8.7,5.2c0.7,0,1.1,0.7,1.1,1.4
		c0,0.8-0.5,1.6-1.4,1.6v1.2C9.7,9.5,10.9,8.4,10.9,6.6 M9.6,15.1c0,1.1-1,2.3-2.6,2.3c-1.6,0-2.6-1.1-2.6-2.3c0-1,0.8-2.2,2.6-2.2
		C8.9,12.9,9.6,14.1,9.6,15.1 M10.9,15.2c0-1-0.4-1.7-1.1-2.2v-0.2l1-0.3v-0.9H0v1.3h4.3c-0.7,0.5-1.2,1.2-1.2,2.3
		c0,1.9,1.6,3.5,3.9,3.5C9.3,18.7,10.9,17.1,10.9,15.2 M8.7,34.1c-1.1,0-1.4-1.6-1.5-3.4H8C10,30.7,10.3,34.1,8.7,34.1 M10.9,32.8
		c0-1-0.4-1.8-1-2.2c0.6-0.2,0.9-0.7,0.9-1.4v-0.5h-1c0,0.6-0.2,0.8-0.9,0.8H6.2c-2.2,0-3.1,1.2-3.1,2.8c0,1.8,1.1,2.8,2.1,2.9v-1.3
		c0,0-0.9-0.2-0.9-1.5c0-1.2,0.7-1.6,1.7-1.6c0.2,1.8,0.4,4.7,2.6,4.7C10,35.3,10.9,34.3,10.9,32.8 M6.2,51.8c-1.2-0.2-2-1.1-2-2.2
		c0-1.1,0.8-1.9,2-2.1V51.8z M10.9,49.5c0-1.4-0.8-2.7-2.2-3.3v1.4c0.6,0.4,1,1,1,1.9c0,1.3-0.9,2.2-2.3,2.3v-5.8
		c-2.9-0.2-4.2,1.6-4.2,3.5c0,1.9,1.5,3.6,3.8,3.6C9.3,53.1,10.9,51.4,10.9,49.5 M9.6,58.4c0,1.1-1,2.3-2.6,2.3
		c-1.6,0-2.6-1.1-2.6-2.3c0-1,0.8-2.2,2.6-2.2C8.9,56.2,9.6,57.4,9.6,58.4 M10.9,58.5c0-1-0.4-1.7-1.1-2.2v-0.2l1-0.3v-0.9H0v1.3
		h4.3c-0.7,0.5-1.2,1.2-1.2,2.3C3.1,60.4,4.7,62,7,62C9.3,62,10.9,60.4,10.9,58.5 M6.2,69.2c-1.2-0.2-2-1.1-2-2.2
		c0-1.1,0.8-1.9,2-2.1V69.2z M10.9,67c0-1.4-0.8-2.7-2.2-3.3v1.4c0.6,0.4,1,1,1,1.9c0,1.3-0.9,2.2-2.3,2.3v-5.8
		c-2.9-0.2-4.2,1.6-4.2,3.5c0,1.9,1.5,3.6,3.8,3.6C9.3,70.6,10.9,68.9,10.9,67 M17.4,2.3L18,1.3c-0.2-0.2-0.6-0.5-1.3-0.5
		c-1.3,0-2,1-2,2.4V4h-1.1V5h1.1v6.5h1.3V5h1.8V4h-1.8V3.3c0-1,0.4-1.3,0.9-1.3C17.1,2.1,17.3,2.2,17.4,2.3 M24.5,7.8
		c0,1.5-0.9,2.6-2.3,2.6c-1.4,0-2.3-1.1-2.3-2.6c0-1.5,0.9-2.6,2.3-2.6C23.5,5.1,24.5,6.3,24.5,7.8 M25.8,7.8c0-2.3-1.8-3.9-3.7-3.9
		c-1.9,0-3.7,1.6-3.7,3.9c0,2.3,1.8,3.9,3.7,3.9C24.1,11.7,25.8,10,25.8,7.8 M29.4,9.2V5.1h1.8V4h-1.8V1.7h-1.1v1.4c0,0.6-0.4,1-1,1
		h-0.5v1h1.3v4.2c0,1.4,0.8,2.4,2.1,2.4c0.7,0,1.1-0.3,1.3-0.5L31,10.2c-0.1,0.1-0.3,0.2-0.6,0.2C29.9,10.5,29.4,10.1,29.4,9.2
		 M38.6,7.8c0,1.5-0.9,2.6-2.3,2.6c-1.4,0-2.3-1.1-2.3-2.6c0-1.5,0.9-2.6,2.3-2.6C37.6,5.1,38.6,6.3,38.6,7.8 M39.9,7.8
		c0-2.3-1.8-3.9-3.7-3.9c-1.9,0-3.7,1.6-3.7,3.9c0,2.3,1.8,3.9,3.7,3.9C38.2,11.7,39.9,10,39.9,7.8 M51.2,11.6h1.3V7.5
		c0-2.1-0.9-3.6-2.7-3.6c-1.2,0-1.9,0.7-2.3,1.2h-0.3c-0.4-0.6-1.1-1.2-2.1-1.2c-1,0-1.7,0.6-1.9,0.9H43L42.7,4h-0.9v7.6h1.3V7.2
		c0-1.4,0.9-2.2,1.8-2.2c1.3,0,1.5,1.4,1.5,2.9v3.7h1.3V7.1c0-1.3,0.9-2.1,1.8-2.1c1.3,0,1.5,1.4,1.5,2.9V11.6z M60.1,11.6H61V4
		h-1.3v4c0,1.7-0.7,2.5-1.9,2.5C56.3,10.5,56,9,56,7.6V4h-1.3v4.1c0,2.1,1,3.6,2.9,3.6c1.1,0,1.8-0.5,2.1-0.9h0.2L60.1,11.6z
		 M64.5,6c0-0.6,0.5-1,1.2-1c0.8,0,1.4,0.5,1.4,1.1h1.2c0-1.1-0.9-2.2-2.6-2.2c-1.4,0-2.5,0.8-2.5,2.1c0,1.5,1.4,1.9,2.5,2.2
		c0.8,0.2,1.6,0.5,1.6,1.2c0,0.7-0.7,1.1-1.4,1.1c-0.8,0-1.6-0.5-1.6-1.4H63c0,1.4,1.1,2.5,2.9,2.5c1.5,0,2.6-0.8,2.6-2.3
		c0-1.6-1.4-2-2.6-2.3C65.2,6.9,64.5,6.7,64.5,6 M75.8,7h-4.3c0.2-1.2,1.1-2,2.2-2C74.9,5,75.6,5.8,75.8,7 M77.2,8.1
		c0.2-2.9-1.6-4.2-3.5-4.2c-1.9,0-3.6,1.5-3.6,3.8c0,2.4,1.7,3.9,3.6,3.9c1.4,0,2.7-0.8,3.3-2.2h-1.4c-0.4,0.6-1,1-1.9,1
		c-1.3,0-2.2-0.9-2.3-2.3H77.2z M84.5,11.6h0.9V4h-1.3v4c0,1.7-0.7,2.5-1.9,2.5c-1.6,0-1.8-1.5-1.8-2.9V4H79v4.1
		c0,2.1,1,3.6,2.9,3.6c1.1,0,1.8-0.5,2.1-0.9h0.2L84.5,11.6z M98.5,11.6V7.5c0-2.1-0.9-3.6-2.7-3.6c-1.2,0-1.9,0.7-2.3,1.2h-0.3
		c-0.4-0.6-1.1-1.2-2.1-1.2c-1,0-1.7,0.6-1.9,0.9H89L88.7,4h-0.9v7.6h1.3V9.3v-2c0-1.4,0.9-2.2,1.8-2.2c1.3,0,1.5,1.4,1.5,2.9v3.7
		h1.3V7.1c0-1.3,0.9-2.1,1.8-2.1c1.3,0,1.5,1.4,1.5,2.9v3.7H98.5z"/>
</g>
</svg>
