<?xml version="1.0" encoding="utf-8"?>
<!-- Generator: Adobe Illustrator 24.3.0, SVG Export Plug-In . SVG Version: 6.00 Build 0)  -->
<svg version="1.1" id="Laag_1" xmlns="http://www.w3.org/2000/svg" xmlns:xlink="http://www.w3.org/1999/xlink" x="0px" y="0px"
	 width="90.9px" height="103.4px" viewBox="0 0 90.9 103.4" style="enable-background:new 0 0 90.9 103.4;" xml:space="preserve">
<style type="text/css">
	.st0{fill:#13100D;}
	.st1{fill:#E71984;}
	.st2{fill:#FFFFFF;}
</style>
<g>
	<path class="st0" d="M89.2,31.4c-4.8-3.2-8.7-6-10.8-10.1c-3.1-6-3.1-7.7-5.4-13.2c-1.2-2.9-3.3-6.5-8.3-7.7
		C59.3-0.8,52.2,3.6,48,7.3c-1.9-4.4-4.2-7.2-9.7-7.3c-4.5-0.1-8.8,2.7-11.7,5.4c-4,3.8-5.7,6.6-8.4,11.4c-2.5,4.5-3.4,6.5-7.3,10.7
		c-2.3,2.5-4.8,3-7.3,4.7c-2.3,1.5-3.4,3.6,0.3,6.9c4.5,4,4.6,6.3,5.5,10.1c-3.2,5.6-5.9,9-7.5,14.7C0,70.7-0.7,75.3,0.9,83
		c1.3,6.5,5.4,12.3,9.6,15.3c7,5,20.1,7.4,28.5,1.8c5.4-3.6,6.3-5.7,10.2-9.9c1.5-1.7,4.6-3.1,6.4-4.1c7.3-3.8,9.7-8.3,13.6-16.7
		c3.1-6.8,3.7-10.3,7.2-16.2c4-6.7,9.1-12.4,12.4-15.8C89.8,36.4,92.7,33.7,89.2,31.4z M87.2,36.1c-3.4,3.4-8.3,8.8-12.3,15.3
		c-3.9,6.4-4.9,10.8-8,17.6c-3.9,8.4-7.4,13.6-15.1,16.6c0.9-1.7,1.5-3.5,2-5.3c0.8-3.1,3.5-13.1,5.8-19C61,57.7,65.8,49.6,70.5,44
		c2.9-3.4,9.2-9.1,9.2-9.1s-6-0.9-6.9-1.3c-0.9-0.4-3.7-0.8-4.8-2.8c-1.5-2.6-3.8-6.5-6.7-8c-5.6-3.1-9.4-0.7-13.5,0.8
		c-4.1,1.5-7.5,0.9-10-0.7c-4.8-3-8.7-2.3-10.2-1.6c-3.3,1.5-4.2,2-9.3,6.3c-4.4,3.6-8.2,7.3-8.2,7.3s1.7,2.2,2.6,3.7
		c0.9,1.5,2.2,3.9,2.2,3.9s5.6-4.1,7.3-5.4c1.7-1.3,7.6-4.7,7.6-4.7s1.1,1.8,2.2,2.6c2.2,1.5,6.1,0.9,6.1,0.9s-2.4,2.2-5.2,5.8
		c-2.8,3.6-7.4,12.1-9.1,17.2C21.5,65.8,22,71.3,22,71.3s3.2-12.5,7.5-19.1c2.1-3.3,6.7-10.1,10.4-13.3c3.7-3.2,8.9-0.7,12.7-1.9
		c3.7-1.1,8.1-4.5,8.1-4.5c-1-1.3-1.6-2.8-1.6-2.8s-2.4,4.2-7.6,4.7c-5.4,0.6-7.3-4.3-7.3-4.3c-0.4,0.4-1.8,3.4-7.5,3.4
		c-6.5,0-6.5-5.6-6.5-5.6s-2.8,2.2-5.4,1.3c-2.6-0.9-2.6-3.4-2.6-3.4s4.7-4.1,9.3-3.9c4.7,0.2,5.6,2.2,7.8,3c2.2,0.7,5,1.3,9.1-0.6
		c4.1-1.9,9.3-3.6,13.6,0c4.8,4.1,6.3,8.9,6.3,8.9s-1.5,0.7-3.1,1c1.7-0.3,3.2-1,3.2-1c2.3,1.5,7.8,2.7,7.8,2.7s-2,1.9-3.9,3.7
		c-1.9,1.9-7.7,8.2-10.2,11.8c-4.5,6.4-6.4,12.7-9.7,22.8c-2.5,7.7-4,11.7-9.2,17.8c-5.1,6-8.3,7.6-12.8,9
		c-6.5,1.2-13.5-0.2-18.7-4.2c-3.8-3-7.6-7.1-8.9-13.7c-1.5-7.7-1.2-11.5,0.7-18.3c1.6-5.8,4.6-10.1,7.7-15.7
		c-0.9-3.7-1.5-7.9-6.5-11.6c-2.2-1.6-2-3.6,0.7-4.5c2.4-0.9,4.8-2.7,7.3-5.1c3.5-3.4,4.7-5.7,7-10.4c2.5-4.9,5.9-9.6,10.2-12.2
		c3.4-2,6-3.1,9.7-2.8c4.7,0.4,6.6,3.6,7.5,7.7C51.3,6.5,52,5.7,55.5,4c4-1.9,10.8-2.4,13.8,1.4c2,2.6,4,9.7,6.9,15.8
		c3.2,6.5,6.1,7.7,11,11.1C89.6,34,88.2,35.1,87.2,36.1z"/>
	<path class="st1" d="M87.2,32.4c-4.9-3.4-7.8-4.6-11-11.1C73.3,15.1,71.4,8,69.3,5.4C66.3,1.6,59.5,2.1,55.5,4
		c-3.5,1.7-4.2,2.5-8.3,6.3c-0.9-4.1-2.7-7.3-7.5-7.7C36,2.3,33.4,3.4,30,5.4c-4.3,2.5-7.8,7.2-10.2,12.2c-2.3,4.6-3.5,7-7,10.4
		c-2.5,2.4-4.9,4.3-7.3,5.1C2.8,34,2.6,36,4.8,37.6c5,3.7,5.6,7.9,6.5,11.6c-3.2,5.6-6.1,10-7.7,15.7c-1.9,6.8-2.3,10.6-0.7,18.3
		c1.3,6.5,5.1,10.7,8.9,13.7c5.2,4,12.2,5.4,18.7,4.2c4.4-1.5,7.7-3.1,12.8-9c5.2-6.2,6.7-10.2,9.2-17.8c3.3-10.1,5.2-16.5,9.7-22.8
		c2.5-3.6,8.4-9.9,10.2-11.8c1.9-1.9,3.9-3.7,3.9-3.7s-5.6-1.2-7.8-2.7c0,0-1.5,0.7-3.2,1c-1,0.2-2,0.2-2.8-0.1c0,0,0,0,0,0
		c-0.5-0.2-1-0.6-1.4-1.1c-0.1-0.1-0.2-0.3-0.4-0.4c0,0-4.4,3.3-8.1,4.5c-3.7,1.1-8.9-1.3-12.7,1.9c-3.7,3.2-8.3,10-10.4,13.3
		C25.2,58.7,22,71.3,22,71.3s-0.5-5.4,1.9-12.2c1.8-5.1,6.3-13.7,9.1-17.2c2.8-3.6,5.2-5.8,5.2-5.8s-3.9,0.6-6.1-0.9
		c-1.2-0.8-2.2-2.6-2.2-2.6s-6,3.4-7.6,4.7c-1.7,1.3-7.3,5.4-7.3,5.4s-1.3-2.4-2.2-3.9c-0.9-1.5-2.6-3.7-2.6-3.7s3.8-3.6,8.2-7.3
		c5.2-4.3,6-4.7,9.3-6.3c1.6-0.7,5.5-1.4,10.2,1.6c2.5,1.6,5.9,2.2,10,0.7c4.1-1.5,7.9-3.9,13.5-0.8c2.9,1.6,5.3,5.5,6.7,8
		c1.1,2,3.9,2.4,4.8,2.8c0.9,0.4,6.9,1.3,6.9,1.3s-6.3,5.6-9.2,9.1c-4.8,5.5-9.5,13.7-10.9,17.3c-2.2,5.9-4.9,15.9-5.8,19
		c-0.5,1.8-1.1,3.6-2,5.3c7.6-3,11.1-8.2,15.1-16.6c3.1-6.8,4.1-11.2,8-17.6c4-6.5,8.9-12,12.3-15.3C88.2,35.1,89.6,34,87.2,32.4z
		 M38,76.3c3.5-6.5,4-10.3,7.1-16.6c2.2-4.6,2.3-6.3,6.1-11.6c2-2.8,3.9-4.1,6-5.2c2.8-1.5,4.5-0.7,3.4,1.7
		c-0.9,1.9-2.6,2.6-4.1,4.4c-3.6,4.5-4.6,7.8-6.7,13.1c-2.6,6.4-2.6,10.9-4.8,17.1c-1.2,3.3-1.5,5.4-4.7,7.9
		c-1.6,1.2-4.4,0.8-5.2-1.1C33.7,82.7,36.6,79,38,76.3z M13.8,58c2.6-5,4.6-7.6,8.8-11.4c2-1.9,4.2-3.4,5.6-4.3
		c1.7-1.1,3.4-0.6,2.1,1.1c-1.6,2.1-3.7,3.6-5.7,6.3c-2.7,3.8-3.8,6.2-5.5,10.6c-1.8,4.6-2.2,8.1-3.1,12.3C15.5,75,15.1,78,12.7,78
		c-2.4,0-3.2-3-3.2-5.4C9.5,69.2,11.1,63.2,13.8,58z M43.7,10.6c-0.6,1.7-2.9,3-4.8,2c-1.1-0.7-0.7-1.5-3.4-1.6
		c-1.3,0-3.5,1.6-4.1,1c-0.9-0.9-0.7-1.7-0.2-2.8c0.6-1.2,2-2.6,3.7-3.5c2.4-1.2,4.3-1.4,6.2-0.2C43.4,6.8,44.4,8.4,43.7,10.6z
		 M67.1,10.6c-0.5,1.4-1.5,2.3-3.4,2.2c-1,0-1.5-0.8-2.4-1.6c-0.8-0.7-1.9-0.4-2.8-0.2c-1,0.3-1.7,0.7-2.7,0.4
		c-1.2-0.3-1.7-1.5-1.2-2.6c0.6-1.2,1.2-1.5,3-2.3C60,5.2,63,4.9,64.9,6C66.6,6.9,67.8,8.5,67.1,10.6z"/>
	<path class="st0" d="M61,33c0.4,0.5,0.9,0.9,1.4,1.1c0,0,0,0,0,0c0,0,0,0,0,0C61.9,33.8,61.5,33.4,61,33z"/>
	<path class="st2" d="M12.7,78c2.5,0,2.8-3,3.3-5.4c0.8-4.2,1.3-7.7,3.1-12.3c1.7-4.3,2.8-6.8,5.5-10.6c1.9-2.7,4.1-4.2,5.7-6.3
		c1.3-1.7-0.4-2.2-2.1-1.1c-1.4,0.9-3.6,2.4-5.6,4.3c-4.1,3.8-6.2,6.4-8.8,11.4c-2.7,5.3-4.3,11.2-4.3,14.6C9.5,75,10.2,78,12.7,78z
		"/>
	<path class="st2" d="M40.3,87c3.2-2.4,3.5-4.5,4.7-7.9c2.2-6.2,2.2-10.7,4.8-17.1c2.1-5.3,3.1-8.6,6.7-13.1
		c1.5-1.8,3.2-2.5,4.1-4.4c1.2-2.4-0.6-3.2-3.4-1.7c-2.1,1.1-3.9,2.4-6,5.2c-3.8,5.3-3.9,7-6.1,11.6C42,66,41.6,69.8,38,76.3
		c-1.5,2.7-4.3,6.4-3,9.5C35.8,87.8,38.6,88.2,40.3,87z"/>
	<path class="st2" d="M62.4,34C62.4,34,62.4,34,62.4,34c0.8,0.4,1.8,0.3,2.8,0.1c1.6-0.3,3.1-1,3.1-1s-1.5-4.8-6.3-8.9
		c-4.3-3.6-9.5-1.9-13.6,0c-4.1,1.9-6.9,1.3-9.1,0.6c-2.2-0.7-3.2-2.8-7.8-3c-4.7-0.2-9.3,3.9-9.3,3.9s0,2.4,2.6,3.4
		c2.6,0.9,5.4-1.3,5.4-1.3s0,5.6,6.5,5.6c5.6,0,7-2.9,7.5-3.4c0,0,1.9,4.9,7.3,4.3c5.2-0.5,7.6-4.7,7.6-4.7s0.6,1.5,1.6,2.8
		c0.1,0.1,0.2,0.3,0.4,0.4C61.5,33.4,61.9,33.8,62.4,34z"/>
	<path class="st2" d="M41.3,5.5c-1.9-1.2-3.8-1-6.2,0.2c-1.8,0.9-3.2,2.2-3.7,3.5c-0.5,1.1-0.7,1.9,0.2,2.8c0.6,0.6,2.8-1.1,4.1-1
		c2.6,0.1,2.2,0.9,3.4,1.6c1.9,1.1,4.2-0.3,4.8-2C44.4,8.4,43.4,6.8,41.3,5.5z"/>
	<path class="st2" d="M64.9,6c-2-1.1-4.9-0.7-7.4,0.5c-1.8,0.9-2.4,1.1-3,2.3c-0.5,1.1,0.1,2.3,1.2,2.6c1,0.3,1.7-0.1,2.7-0.4
		c0.9-0.3,2-0.5,2.8,0.2c1,0.7,1.4,1.6,2.4,1.6c1.9,0.1,2.9-0.8,3.4-2.2C67.8,8.5,66.6,6.9,64.9,6z"/>
</g>
</svg>
