<?xml version="1.0" encoding="utf-8"?>
<!-- Generator: Adobe Illustrator 24.0.0, SVG Export Plug-In . SVG Version: 6.00 Build 0)  -->
<svg version="1.1" id="Laag_1" xmlns="http://www.w3.org/2000/svg" xmlns:xlink="http://www.w3.org/1999/xlink" x="0px" y="0px"
	 width="100.4px" height="39.6px" viewBox="0 0 100.4 39.6" style="enable-background:new 0 0 100.4 39.6;" xml:space="preserve">
<style type="text/css">
	.st0{fill:#1D1D1B;}
	.st1{fill:#34B080;}
</style>
<g>
	<path class="st0" d="M14.6,15.5v-0.3l4.3-7H15V5.7h8.7V6l-4.4,6.9h4.2v2.5H14.6z"/>
	<path class="st0" d="M27.1,4.2c-0.4,0.3-0.8,0.5-1.3,0.5c-0.5,0-1-0.2-1.3-0.5c-0.4-0.3-0.5-0.7-0.5-1.2c0-0.5,0.2-0.9,0.5-1.2
		c0.4-0.3,0.8-0.5,1.3-0.5c0.5,0,1,0.2,1.3,0.5c0.4,0.3,0.5,0.7,0.5,1.2C27.6,3.5,27.5,3.9,27.1,4.2z M24.1,15.5V5.7h3.4v9.8H24.1z"
		/>
	<path class="st0" d="M33.5,15.7c-1.6,0-2.9-0.4-3.9-1.3c-1-0.9-1.5-2.1-1.5-3.7v-0.2c0-1.5,0.5-2.8,1.5-3.7c1-0.9,2.3-1.4,3.8-1.4
		c1.4,0,2.6,0.4,3.6,1.3c0.9,0.9,1.4,2.1,1.4,3.8v0.9h-6.9c0,0.7,0.3,1.2,0.6,1.5s0.8,0.5,1.4,0.5c1,0,1.6-0.4,1.7-1.2h3.2
		c-0.2,1.1-0.6,2-1.5,2.6C36.1,15.4,34.9,15.7,33.5,15.7z M31.6,9.5h3.6c-0.1-1.2-0.6-1.8-1.7-1.8c-0.5,0-0.9,0.2-1.3,0.5
		C31.9,8.4,31.6,8.9,31.6,9.5z"/>
	<path class="st0" d="M41.8,15.5V1.3h3.4v5.9c0.3-0.6,0.7-1,1.3-1.3c0.5-0.3,1.2-0.5,2-0.5c1,0,1.8,0.3,2.4,0.9
		c0.6,0.6,0.9,1.5,0.9,2.8v6.4h-3.4V9.8c0-1.1-0.5-1.7-1.4-1.7c-0.5,0-0.9,0.2-1.2,0.5s-0.5,0.8-0.5,1.4v5.5H41.8z"/>
	<path class="st0" d="M61.3,14.3c-1,0.9-2.3,1.4-3.9,1.4c-1.6,0-2.8-0.5-3.9-1.4c-1-0.9-1.5-2.1-1.5-3.7v-0.2c0-1.6,0.5-2.8,1.5-3.7
		c1-0.9,2.3-1.4,3.9-1.4c1.5,0,2.8,0.5,3.8,1.4s1.5,2.1,1.5,3.7v0.2C62.8,12.2,62.3,13.4,61.3,14.3z M57.4,13.2
		c0.6,0,1.1-0.2,1.4-0.7s0.5-1.1,0.5-1.9v-0.2c0-1.7-0.6-2.6-1.9-2.6c-0.6,0-1.1,0.2-1.4,0.6c-0.3,0.4-0.5,1.1-0.5,1.9v0.2
		C55.5,12.3,56.1,13.2,57.4,13.2z"/>
	<path class="st0" d="M68.2,15.7c-1.6,0-2.9-0.4-3.9-1.3s-1.5-2.1-1.5-3.7v-0.2c0-1.5,0.5-2.8,1.5-3.7c1-0.9,2.3-1.4,3.8-1.4
		c1.4,0,2.6,0.4,3.6,1.3c0.9,0.9,1.4,2.1,1.4,3.8v0.9h-6.9c0,0.7,0.3,1.2,0.6,1.5s0.8,0.5,1.4,0.5c1,0,1.6-0.4,1.7-1.2h3.2
		c-0.2,1.1-0.6,2-1.5,2.6C70.8,15.4,69.6,15.7,68.2,15.7z M66.3,9.5h3.6c-0.1-1.2-0.6-1.8-1.7-1.8c-0.5,0-0.9,0.2-1.3,0.5
		C66.6,8.4,66.3,8.9,66.3,9.5z"/>
</g>
<polygon class="st1" points="0,15.5 9.4,10.5 0,5.6 "/>
</svg>
