<?xml version="1.0" encoding="utf-8"?>
<!-- Generator: Adobe Illustrator 24.0.0, SVG Export Plug-In . SVG Version: 6.00 Build 0)  -->
<svg version="1.1" id="Laag_1" xmlns="http://www.w3.org/2000/svg" xmlns:xlink="http://www.w3.org/1999/xlink" x="0px" y="0px"
	 width="100.4px" height="39.6px" viewBox="0 0 100.4 39.6" style="enable-background:new 0 0 100.4 39.6;" xml:space="preserve">
<style type="text/css">
	.st0{clip-path:url(#SVGID_2_);}
	.st1{fill:#1D1D1B;}
	.st2{fill:#34B080;}
	.st3{clip-path:url(#SVGID_4_);}
</style>
<g>
	<defs>
		<rect id="SVGID_1_" width="127" height="40.3"/>
	</defs>
	<clipPath id="SVGID_2_">
		<use xlink:href="#SVGID_1_"  style="overflow:visible;"/>
	</clipPath>
	<g class="st0">
		<path class="st1" d="M14.7,15.5v-0.4L20.4,5h-5v-3h10.5v0.4l-5.6,10.1h5.4v3H14.7z"/>
		<path class="st1" d="M29.4,4.2C29,4.6,28.6,4.7,28,4.7c-0.5,0-1-0.2-1.3-0.5c-0.4-0.3-0.5-0.7-0.5-1.2c0-0.5,0.2-0.9,0.5-1.2
			c0.4-0.3,0.8-0.5,1.3-0.5c0.5,0,1,0.2,1.3,0.5c0.4,0.3,0.5,0.7,0.5,1.2C29.9,3.5,29.7,3.9,29.4,4.2z M26.4,15.5V5.7h3.4v9.8H26.4z
			"/>
		<path class="st1" d="M35.7,15.7c-1.6,0-2.9-0.4-3.9-1.3c-1-0.9-1.5-2.1-1.5-3.7v-0.2c0-1.5,0.5-2.8,1.5-3.7c1-0.9,2.3-1.4,3.8-1.4
			c1.4,0,2.6,0.4,3.6,1.3c0.9,0.9,1.4,2.1,1.4,3.8v0.9h-6.9c0,0.7,0.3,1.2,0.6,1.5s0.8,0.5,1.4,0.5c1,0,1.6-0.4,1.7-1.2h3.2
			c-0.2,1.1-0.6,2-1.5,2.6C38.3,15.4,37.2,15.7,35.7,15.7z M33.8,9.5h3.6c-0.1-1.2-0.6-1.8-1.7-1.8c-0.5,0-0.9,0.2-1.3,0.5
			C34.1,8.4,33.9,8.9,33.8,9.5z"/>
		<path class="st1" d="M44,15.5V1.4h3.4v5.9c0.3-0.6,0.7-1,1.3-1.3c0.5-0.3,1.2-0.5,2-0.5c1,0,1.8,0.3,2.4,0.9
			c0.6,0.6,0.9,1.5,0.9,2.8v6.4h-3.4V9.8c0-1.1-0.5-1.7-1.4-1.7c-0.5,0-0.9,0.2-1.2,0.5s-0.5,0.8-0.5,1.4v5.5H44z"/>
		<path class="st1" d="M63.5,14.4c-1,0.9-2.3,1.4-3.9,1.4c-1.6,0-2.8-0.5-3.9-1.4c-1-0.9-1.5-2.1-1.5-3.7v-0.2
			c0-1.6,0.5-2.8,1.5-3.7s2.3-1.4,3.9-1.4c1.5,0,2.8,0.5,3.8,1.4S65,8.9,65,10.5v0.2C65,12.2,64.5,13.4,63.5,14.4z M59.7,13.2
			c0.6,0,1.1-0.2,1.4-0.7s0.5-1.1,0.5-1.9v-0.2c0-1.7-0.6-2.6-1.9-2.6c-0.6,0-1.1,0.2-1.4,0.6s-0.5,1.1-0.5,1.9v0.2
			C57.7,12.4,58.4,13.2,59.7,13.2z"/>
		<path class="st1" d="M70.4,15.7c-1.6,0-2.9-0.4-3.9-1.3S65,12.3,65,10.7v-0.2c0-1.5,0.5-2.8,1.5-3.7c1-0.9,2.3-1.4,3.8-1.4
			c1.4,0,2.6,0.4,3.6,1.3c0.9,0.9,1.4,2.1,1.4,3.8v0.9h-6.9c0,0.7,0.3,1.2,0.6,1.5s0.8,0.5,1.4,0.5c1,0,1.6-0.4,1.7-1.2h3.2
			c-0.2,1.1-0.6,2-1.5,2.6C73,15.4,71.9,15.7,70.4,15.7z M68.5,9.5h3.6c-0.1-1.2-0.6-1.8-1.7-1.8c-0.5,0-0.9,0.2-1.3,0.5
			C68.8,8.4,68.6,8.9,68.5,9.5z"/>
		<path class="st1" d="M87.4,14.4c-1,0.9-2.3,1.4-3.9,1.4c-1.6,0-2.8-0.5-3.9-1.4c-1-0.9-1.5-2.1-1.5-3.7v-0.2
			c0-1.6,0.5-2.8,1.5-3.7s2.3-1.4,3.9-1.4c1.5,0,2.8,0.5,3.8,1.4s1.5,2.1,1.5,3.7v0.2C88.9,12.2,88.4,13.4,87.4,14.4z M83.5,13.2
			c0.6,0,1.1-0.2,1.4-0.7c0.3-0.4,0.5-1.1,0.5-1.9v-0.2c0-1.7-0.6-2.6-1.9-2.6c-0.6,0-1.1,0.2-1.4,0.6s-0.5,1.1-0.5,1.9v0.2
			C81.6,12.4,82.2,13.2,83.5,13.2z"/>
		<path class="st1" d="M89.5,18.8V5.7h3.4v1.5c0.7-1.2,1.7-1.7,3.1-1.7c1.2,0,2.2,0.4,3,1.3s1.2,2.1,1.2,3.8v0.2
			c0,1.6-0.4,2.9-1.2,3.8s-1.8,1.3-3,1.3c-0.7,0-1.3-0.2-1.9-0.5c-0.5-0.3-0.9-0.7-1.2-1.2v4.7H89.5z M93.2,12.5
			c0.3,0.4,0.8,0.6,1.4,0.6s1.1-0.2,1.4-0.6c0.3-0.4,0.5-1,0.5-1.9v-0.2c0-0.8-0.2-1.5-0.5-1.9C95.8,8.2,95.3,8,94.7,8
			c-0.6,0-1.1,0.2-1.4,0.7c-0.3,0.4-0.5,1.1-0.5,1.9v0.2C92.7,11.5,92.9,12.1,93.2,12.5z"/>
	</g>
</g>
<polygon class="st2" points="0,15.5 9.4,10.6 0,5.6 "/>
<g>
	<defs>
		<rect id="SVGID_3_" width="127" height="40.3"/>
	</defs>
	<clipPath id="SVGID_4_">
		<use xlink:href="#SVGID_3_"  style="overflow:visible;"/>
	</clipPath>
	<path class="st3" d="M38.4,34.9h3.3l1.5-5.5l1.5,5.5H48l3.1-9.9h-3.2L46.3,31l-1.5-5.9h-2.7L40.4,31L39,25.1h-3.5L38.4,34.9z
		 M30.4,32.9c-0.8,0-1.2-0.4-1.2-0.9c0-0.8,0.6-1.1,2-1.1H32v0.6C32,32.3,31.3,32.9,30.4,32.9 M29.2,35.2c1.6,0,2.5-0.7,2.9-1.4v1.2
		h3.3v-6.4c0-2.6-1.7-3.7-4.5-3.7c-2.7,0-4.6,1.2-4.7,3.5h3.2c0.1-0.6,0.4-1.2,1.3-1.2c1.1,0,1.3,0.6,1.3,1.6V29h-0.9
		c-3.3,0-5.2,0.9-5.2,3.2C25.9,34.3,27.4,35.2,29.2,35.2 M20.3,34.9h3.4v-7.6h2v-2.3h-2v-0.9c0-0.6,0.3-1.1,1.1-1.1
		c0.4,0,0.7,0.1,0.9,0.1v-2.5c-0.5-0.1-0.9-0.2-1.5-0.2c-2.3,0-3.9,1.2-3.9,3.6v0.9h-1.2v2.3h1.2V34.9z M16.5,24.1
		c1.1,0,1.9-0.7,1.9-1.7c0-1-0.8-1.8-1.9-1.8c-1.1,0-1.8,0.8-1.8,1.8C14.6,23.4,15.4,24.1,16.5,24.1 M14.8,34.9h3.4v-9.9h-3.4V34.9z
		"/>
</g>
<rect x="26.2" y="37.3" class="st2" width="9.2" height="2.3"/>
<g>
	<path class="st1" d="M51.7,35.1c-0.6,0-1-0.2-1.4-0.6c-0.4-0.4-0.5-0.8-0.5-1.3c0-0.5,0.2-1,0.5-1.3c0.4-0.4,0.8-0.6,1.4-0.6
		c0.6,0,1,0.2,1.4,0.6c0.4,0.4,0.6,0.8,0.6,1.3c0,0.5-0.2,1-0.6,1.3C52.8,34.9,52.3,35.1,51.7,35.1z"/>
	<path class="st1" d="M63,33.7c-1,0.9-2.3,1.4-3.9,1.4c-1.6,0-2.8-0.5-3.9-1.4c-1-0.9-1.5-2.1-1.5-3.7v-0.2c0-1.6,0.5-2.8,1.5-3.7
		s2.3-1.4,3.9-1.4c1.5,0,2.8,0.5,3.8,1.4s1.5,2.1,1.5,3.7V30C64.5,31.5,64,32.8,63,33.7z M59.2,32.6c0.6,0,1.1-0.2,1.4-0.7
		c0.3-0.4,0.5-1.1,0.5-1.9v-0.2c0-1.7-0.6-2.6-1.9-2.6c-0.6,0-1.1,0.2-1.4,0.6s-0.5,1.1-0.5,1.9V30C57.2,31.7,57.9,32.6,59.2,32.6z"
		/>
	<path class="st1" d="M65,34.8V25h3.4v2c0.6-1.4,1.7-2.1,3.2-2.1V28c-2.1-0.1-3.2,0.7-3.2,2.2v4.7H65z"/>
	<path class="st1" d="M76.7,38.5c-3.1,0-4.9-1.2-5.2-3.6h3.3c0.2,0.9,0.8,1.3,1.8,1.3c1.4,0,2.1-0.7,2.1-2.1v-1.5
		c-0.3,0.5-0.7,0.9-1.2,1.3c-0.5,0.3-1.1,0.5-1.8,0.5c-1.2,0-2.2-0.4-3-1.3s-1.2-2-1.2-3.5v-0.2c0-1.4,0.4-2.6,1.2-3.4
		c0.8-0.9,1.8-1.3,3-1.3c1.4,0,2.4,0.6,3,1.7V25h3.4v9c0,1.5-0.5,2.6-1.4,3.3S78.5,38.5,76.7,38.5z M75.5,31.3
		c0.3,0.4,0.8,0.6,1.4,0.6s1.1-0.2,1.4-0.6c0.4-0.4,0.5-1,0.5-1.6v-0.1c0-0.7-0.2-1.2-0.5-1.6s-0.8-0.6-1.4-0.6s-1.1,0.2-1.4,0.6
		c-0.3,0.4-0.5,0.9-0.5,1.6v0.2C75,30.3,75.2,30.9,75.5,31.3z"/>
</g>
</svg>
