<?xml version="1.0" encoding="utf-8"?>
<!-- Generator: Adobe Illustrator 24.0.0, SVG Export Plug-In . SVG Version: 6.00 Build 0)  -->
<svg version="1.1" id="Laag_1" xmlns="http://www.w3.org/2000/svg" xmlns:xlink="http://www.w3.org/1999/xlink" x="0px" y="0px"
	 width="240.6px" height="66.5px" viewBox="0 0 240.6 66.5" style="enable-background:new 0 0 240.6 66.5;" xml:space="preserve">
<style type="text/css">
	.st0{fill:#1D1D1B;}
	.st1{fill:#35AF80;}
</style>
<g>
	<path class="st0" d="M1.2,20.2V0H6v8.4C6.4,7.6,7,7,7.8,6.5C8.6,6,9.5,5.8,10.6,5.8c1.4,0,2.5,0.4,3.4,1.3c0.8,0.9,1.2,2.2,1.2,3.9
		v9.1h-4.8V12c0-1.6-0.7-2.4-2-2.4c-0.7,0-1.3,0.2-1.7,0.7c-0.4,0.4-0.6,1.1-0.6,2v7.9H1.2z"/>
	<path class="st0" d="M23.5,20.5c-2.3,0-4.1-0.6-5.5-1.9c-1.4-1.3-2.1-3-2.1-5.3v-0.2c0-2.2,0.7-4,2.2-5.3c1.4-1.3,3.3-2,5.4-2
		c2.1,0,3.8,0.6,5.1,1.8c1.3,1.2,2,3,2,5.4v1.3h-9.9c0.1,0.9,0.4,1.6,0.9,2.2c0.5,0.5,1.2,0.8,2.1,0.8c1.4,0,2.2-0.6,2.4-1.7h4.5
		c-0.2,1.6-0.9,2.8-2.1,3.7C27.3,20.1,25.6,20.5,23.5,20.5z M20.8,11.6h5.1C25.8,9.8,25,9,23.5,9c-0.7,0-1.3,0.2-1.8,0.7
		C21.2,10.1,20.9,10.7,20.8,11.6z"/>
	<path class="st0" d="M31.5,20.2V0h4.8v20.2H31.5z"/>
	<path class="st0" d="M37.9,24.9V6.2h4.8v2.1c1-1.6,2.4-2.5,4.4-2.5c1.7,0,3.1,0.6,4.2,1.9C52.4,9,53,10.8,53,13.1v0.2
		c0,2.3-0.6,4.1-1.7,5.4s-2.5,1.9-4.3,1.9c-1,0-1.9-0.2-2.7-0.7s-1.3-1-1.7-1.7v6.8H37.9z M43.3,15.9c0.5,0.6,1.2,0.9,2.1,0.9
		s1.6-0.3,2.1-0.9c0.5-0.6,0.7-1.5,0.7-2.7v-0.2c0-1.2-0.2-2.1-0.7-2.7c-0.5-0.6-1.2-0.9-2-0.9c-0.9,0-1.6,0.3-2.1,0.9
		c-0.5,0.6-0.7,1.5-0.7,2.7v0.2C42.6,14.4,42.8,15.3,43.3,15.9z"/>
	<path class="st0" d="M70.2,18.5c-1.4,1.3-3.3,2-5.5,2s-4-0.6-5.5-1.9s-2.2-3-2.2-5.2v-0.2c0-2.2,0.7-4,2.2-5.3c1.5-1.3,3.3-2,5.5-2
		c2.2,0,4,0.7,5.5,2c1.4,1.3,2.2,3.1,2.2,5.2v0.2C72.4,15.5,71.7,17.2,70.2,18.5z M64.7,16.9c0.9,0,1.6-0.3,2.1-1
		c0.5-0.6,0.7-1.5,0.7-2.7v-0.2c0-2.4-0.9-3.7-2.8-3.7c-0.9,0-1.6,0.3-2.1,0.9C62.2,10.9,62,11.8,62,13v0.2
		C62,15.7,62.9,16.9,64.7,16.9z"/>
	<path class="st0" d="M73.1,20.2v-14h4.8v2.3c0.4-0.8,1-1.4,1.8-1.9c0.8-0.5,1.7-0.7,2.8-0.7c1.4,0,2.5,0.4,3.4,1.3
		c0.8,0.9,1.2,2.2,1.2,3.9v9.1h-4.8V12c0-1.6-0.7-2.4-2-2.4c-0.7,0-1.3,0.2-1.7,0.7c-0.4,0.4-0.6,1.1-0.6,2v7.9H73.1z"/>
	<path class="st0" d="M87.4,20.2v-0.5l6.1-9.9H88V6.2h12.4v0.5l-6.3,9.9h6v3.6H87.4z"/>
	<path class="st0" d="M107.5,20.5c-2.3,0-4.1-0.6-5.5-1.9c-1.4-1.3-2.1-3-2.1-5.3v-0.2c0-2.2,0.7-4,2.2-5.3c1.4-1.3,3.3-2,5.4-2
		c2.1,0,3.8,0.6,5.1,1.8c1.3,1.2,2,3,2,5.4v1.3h-9.9c0.1,0.9,0.4,1.6,0.9,2.2c0.5,0.5,1.2,0.8,2.1,0.8c1.4,0,2.2-0.6,2.4-1.7h4.5
		c-0.2,1.6-0.9,2.8-2.1,3.7C111.2,20.1,109.6,20.5,107.5,20.5z M104.7,11.6h5.1C109.8,9.8,109,9,107.4,9c-0.7,0-1.3,0.2-1.8,0.7
		C105.2,10.1,104.9,10.7,104.7,11.6z"/>
	<path class="st0" d="M119.3,20.2V0h4.8v8.4c0.4-0.8,1-1.4,1.8-1.9c0.8-0.5,1.7-0.7,2.8-0.7c1.4,0,2.5,0.4,3.4,1.3
		c0.8,0.9,1.2,2.2,1.2,3.9v9.1h-4.8V12c0-1.6-0.7-2.4-2-2.4c-0.7,0-1.3,0.2-1.7,0.7s-0.6,1.1-0.6,2v7.9H119.3z"/>
	<path class="st0" d="M147.1,18.5c-1.4,1.3-3.3,2-5.5,2c-2.2,0-4-0.6-5.5-1.9c-1.4-1.3-2.2-3-2.2-5.2v-0.2c0-2.2,0.7-4,2.2-5.3
		c1.5-1.3,3.3-2,5.5-2c2.2,0,4,0.7,5.5,2c1.4,1.3,2.2,3.1,2.2,5.2v0.2C149.3,15.5,148.6,17.2,147.1,18.5z M141.6,16.9
		c0.9,0,1.6-0.3,2.1-1c0.5-0.6,0.7-1.5,0.7-2.7v-0.2c0-2.4-0.9-3.7-2.8-3.7c-0.9,0-1.6,0.3-2.1,0.9c-0.5,0.6-0.7,1.5-0.7,2.7v0.2
		C138.8,15.7,139.8,16.9,141.6,16.9z"/>
	<path class="st0" d="M150,20.2v-14h4.8v2.3c0.4-0.8,1-1.4,1.8-1.9c0.8-0.5,1.7-0.7,2.8-0.7c1.4,0,2.5,0.4,3.4,1.3
		c0.8,0.9,1.2,2.2,1.2,3.9v9.1h-4.8V12c0-1.6-0.7-2.4-2-2.4c-0.7,0-1.3,0.2-1.7,0.7s-0.6,1.1-0.6,2v7.9H150z"/>
	<path class="st0" d="M170.6,20.5c-1.7,0-3.1-0.6-4.2-1.9c-1.1-1.2-1.7-3-1.7-5.3v-0.2c0-2.3,0.6-4.1,1.7-5.4s2.5-1.9,4.3-1.9
		c2,0,3.4,0.8,4.3,2.4V0h4.8v20.2H175v-2.3c-0.4,0.8-0.9,1.4-1.7,1.9C172.5,20.3,171.6,20.5,170.6,20.5z M172.3,16.8
		c0.9,0,1.6-0.3,2.1-0.9c0.5-0.6,0.7-1.5,0.7-2.7V13c0-1.2-0.2-2.1-0.7-2.7c-0.5-0.6-1.2-0.9-2.1-0.9c-1.8,0-2.8,1.2-2.8,3.6v0.2
		c0,1.2,0.2,2,0.7,2.7C170.8,16.5,171.5,16.8,172.3,16.8z"/>
	<path class="st0" d="M185.7,20.2V1h8.6c2.2,0,3.8,0.4,4.9,1.3s1.6,2.1,1.6,3.7v0.1c0,2.2-1.1,3.6-3.2,4.1c2.6,0.4,3.8,1.9,3.8,4.5
		v0.1c0,3.6-2.3,5.3-7,5.3H185.7z M191,8.6h2.1c0.9,0,1.5-0.2,1.8-0.5c0.4-0.3,0.5-0.8,0.5-1.5V6.6c0-0.7-0.2-1.1-0.6-1.4
		c-0.4-0.3-1-0.5-1.8-0.5H191V8.6z M191,16.5h2.3c1.7,0,2.5-0.7,2.5-2.2v-0.1c0-1.5-0.9-2.2-2.7-2.2H191V16.5z"/>
	<path class="st0" d="M209.1,20.5c-2.3,0-4.1-0.6-5.5-1.9c-1.4-1.3-2.1-3-2.1-5.3v-0.2c0-2.2,0.7-4,2.2-5.3c1.4-1.3,3.3-2,5.4-2
		c2.1,0,3.8,0.6,5.1,1.8c1.3,1.2,2,3,2,5.4v1.3h-9.9c0.1,0.9,0.4,1.6,0.9,2.2c0.5,0.5,1.2,0.8,2.1,0.8c1.4,0,2.2-0.6,2.4-1.7h4.5
		c-0.2,1.6-0.9,2.8-2.1,3.7C212.9,20.1,211.3,20.5,209.1,20.5z M206.4,11.6h5.1c-0.1-1.8-0.9-2.6-2.5-2.6c-0.7,0-1.3,0.2-1.8,0.7
		C206.9,10.1,206.6,10.7,206.4,11.6z"/>
	<path class="st0" d="M221.1,20.5c-1.4,0-2.5-0.3-3.4-1s-1.3-1.8-1.3-3.2c0-3.1,2.5-4.6,7.5-4.6h1.3v-0.3c0-0.7-0.1-1.3-0.4-1.7
		s-0.7-0.6-1.5-0.6c-1.1,0-1.8,0.6-1.9,1.7h-4.5c0.1-1.6,0.8-2.9,2-3.8c1.2-0.9,2.8-1.3,4.7-1.3c2,0,3.6,0.4,4.7,1.3
		c1.1,0.9,1.7,2.2,1.7,4v9.1h-4.7v-1.6C224.4,19.9,223,20.5,221.1,20.5z M222.7,17.3c0.7,0,1.3-0.2,1.7-0.5c0.4-0.4,0.7-0.8,0.7-1.4
		v-0.9h-1.3c-1,0-1.7,0.1-2.1,0.3c-0.4,0.2-0.7,0.6-0.7,1.2C221.1,16.8,221.6,17.3,222.7,17.3z"/>
	<path class="st0" d="M231.3,20.2v-14h4.8V9c0.9-2,2.4-3,4.5-3v4.5c-3-0.1-4.5,0.9-4.5,3.1v6.6H231.3z"/>
</g>
<g>
	<path class="st0" d="M13.6,41.5c-1.4,1.3-3.3,2-5.5,2s-4-0.6-5.5-1.9s-2.2-3-2.2-5.2v-0.2c0-2.2,0.7-4,2.2-5.3c1.5-1.3,3.3-2,5.5-2
		c2.2,0,4,0.7,5.5,2c1.4,1.3,2.2,3.1,2.2,5.2v0.2C15.8,38.5,15.1,40.2,13.6,41.5z M8.2,39.9c0.9,0,1.6-0.3,2.1-1
		c0.5-0.6,0.7-1.5,0.7-2.7v-0.2c0-2.4-0.9-3.7-2.8-3.7c-0.9,0-1.6,0.3-2.1,0.9c-0.5,0.6-0.7,1.5-0.7,2.7v0.2
		C5.4,38.7,6.3,39.9,8.2,39.9z"/>
	<path class="st0" d="M16.5,43.2v-14h4.8v2.1c0.4-0.7,1-1.3,1.7-1.8c0.8-0.5,1.6-0.7,2.7-0.7c1.9,0,3.1,0.8,3.8,2.3
		c1.1-1.6,2.7-2.3,4.6-2.3c1.4,0,2.5,0.4,3.3,1.3c0.8,0.9,1.3,2.2,1.3,3.9v9.2H34v-8.4c0-0.7-0.2-1.2-0.5-1.6s-0.8-0.5-1.3-0.5
		c-0.7,0-1.2,0.2-1.6,0.6c-0.4,0.4-0.6,1-0.6,1.7v8.1h-4.7v-8.4c0-0.7-0.2-1.2-0.5-1.6c-0.3-0.4-0.8-0.5-1.3-0.5
		c-0.7,0-1.2,0.2-1.6,0.6c-0.4,0.4-0.6,1-0.6,1.7v8.1H16.5z"/>
</g>
<g>
	<path class="st1" d="M44.1,43.2V23h4.8v11.7l3.8-5.5h5l-4.6,6.3l5,7.7h-5.4l-3.8-6.1v6.1H44.1z"/>
	<path class="st1" d="M70,41.5c-1.4,1.3-3.3,2-5.5,2s-4-0.6-5.5-1.9s-2.2-3-2.2-5.2v-0.2c0-2.2,0.7-4,2.2-5.3c1.5-1.3,3.3-2,5.5-2
		c2.2,0,4,0.7,5.5,2c1.4,1.3,2.2,3.1,2.2,5.2v0.2C72.2,38.5,71.4,40.2,70,41.5z M64.5,39.9c0.9,0,1.6-0.3,2.1-1
		c0.5-0.6,0.7-1.5,0.7-2.7v-0.2c0-2.4-0.9-3.7-2.8-3.7c-0.9,0-1.6,0.3-2.1,0.9c-0.5,0.6-0.7,1.5-0.7,2.7v0.2
		C61.7,38.7,62.7,39.9,64.5,39.9z"/>
	<path class="st1" d="M76.9,43.5c-1.4,0-2.5-0.3-3.4-1c-0.9-0.7-1.3-1.8-1.3-3.2c0-3.1,2.5-4.6,7.5-4.6h1.3v-0.3
		c0-0.7-0.1-1.3-0.4-1.7c-0.3-0.4-0.7-0.6-1.5-0.6c-1.1,0-1.8,0.6-1.9,1.7h-4.5c0.1-1.6,0.8-2.9,2-3.8c1.2-0.9,2.8-1.3,4.7-1.3
		c2,0,3.6,0.4,4.7,1.3c1.1,0.9,1.7,2.2,1.7,4v9.1H81v-1.6C80.2,42.9,78.8,43.5,76.9,43.5z M78.6,40.3c0.7,0,1.3-0.2,1.7-0.5
		c0.4-0.4,0.7-0.8,0.7-1.4v-0.9h-1.3c-1,0-1.7,0.1-2.1,0.3c-0.4,0.2-0.7,0.6-0.7,1.2C76.9,39.8,77.4,40.3,78.6,40.3z"/>
	<path class="st1" d="M87.3,43.2V23H92v20.2H87.3z"/>
	<path class="st1" d="M97.6,43.5c-1.4,0-2.5-0.3-3.4-1s-1.3-1.8-1.3-3.2c0-3.1,2.5-4.6,7.5-4.6h1.3v-0.3c0-0.7-0.1-1.3-0.4-1.7
		c-0.3-0.4-0.7-0.6-1.5-0.6c-1.1,0-1.8,0.6-1.9,1.7h-4.5c0.1-1.6,0.8-2.9,2-3.8c1.2-0.9,2.8-1.3,4.7-1.3c2,0,3.6,0.4,4.7,1.3
		c1.1,0.9,1.7,2.2,1.7,4v9.1h-4.7v-1.6C100.9,42.9,99.6,43.5,97.6,43.5z M99.3,40.3c0.7,0,1.3-0.2,1.7-0.5c0.4-0.4,0.7-0.8,0.7-1.4
		v-0.9h-1.3c-1,0-1.7,0.1-2.1,0.3c-0.4,0.2-0.7,0.6-0.7,1.2C97.6,39.8,98.2,40.3,99.3,40.3z"/>
	<path class="st1" d="M109.4,31.7l-2.7-1l2.1-7l4.2,1.4L109.4,31.7z"/>
	<path class="st1" d="M121.5,42.3c-1.1,0.8-2.7,1.2-4.7,1.2s-3.6-0.4-4.7-1.2s-1.7-2-1.8-3.6h4.4c0.1,0.5,0.3,0.9,0.6,1.2
		c0.3,0.3,0.8,0.4,1.4,0.4c1.1,0,1.7-0.4,1.7-1.2c0-0.3-0.2-0.6-0.6-0.8c-0.4-0.2-1.1-0.3-2-0.5c-1.9-0.2-3.3-0.7-4.1-1.4
		s-1.2-1.7-1.2-3.1c0-1.5,0.6-2.6,1.7-3.4c1.1-0.8,2.6-1.2,4.3-1.2c3.8,0,5.9,1.5,6.2,4.5h-4.3c-0.2-0.9-0.8-1.4-1.8-1.4
		c-0.5,0-0.9,0.1-1.2,0.3c-0.3,0.2-0.4,0.5-0.4,0.8c0,0.3,0.2,0.6,0.5,0.7c0.3,0.2,1,0.3,1.8,0.4c2,0.2,3.5,0.7,4.4,1.4
		c0.9,0.7,1.4,1.7,1.4,3.2C123.2,40.3,122.7,41.5,121.5,42.3z"/>
</g>
<g>
	<path class="st0" d="M133.2,43.5c-3.3,0-4.9-1.6-4.9-4.8v-6.2h-1.7v-3.3h1.7v-2.9h4.8v2.9h2.8v3.3h-2.8v5.8c0,1,0.5,1.5,1.4,1.5
		c0.5,0,0.9-0.1,1.4-0.2v3.6C134.9,43.4,134,43.5,133.2,43.5z"/>
	<path class="st0" d="M143.6,43.5c-2.3,0-4.1-0.6-5.5-1.9c-1.4-1.3-2.1-3-2.1-5.3v-0.2c0-2.2,0.7-4,2.2-5.3c1.4-1.3,3.3-2,5.4-2
		c2.1,0,3.8,0.6,5.1,1.8c1.3,1.2,2,3,2,5.4v1.3h-9.9c0.1,0.9,0.4,1.6,0.9,2.2c0.5,0.5,1.2,0.8,2.1,0.8c1.4,0,2.2-0.6,2.4-1.7h4.5
		c-0.2,1.6-0.9,2.8-2.1,3.7C147.4,43.1,145.8,43.5,143.6,43.5z M140.9,34.6h5.1c-0.1-1.8-0.9-2.6-2.5-2.6c-0.7,0-1.3,0.2-1.8,0.7
		S141.1,33.7,140.9,34.6z"/>
</g>
<g>
	<path class="st1" d="M155.4,43.2v-14h4.8V32c0.9-2,2.4-3,4.5-3v4.5c-3-0.1-4.5,0.9-4.5,3.1v6.6H155.4z"/>
	<path class="st1" d="M172.3,43.5c-2.3,0-4.1-0.6-5.5-1.9c-1.4-1.3-2.1-3-2.1-5.3v-0.2c0-2.2,0.7-4,2.2-5.3c1.4-1.3,3.3-2,5.4-2
		c2.1,0,3.8,0.6,5.1,1.8c1.3,1.2,2,3,2,5.4v1.3h-9.9c0.1,0.9,0.4,1.6,0.9,2.2c0.5,0.5,1.2,0.8,2.1,0.8c1.4,0,2.2-0.6,2.4-1.7h4.5
		c-0.2,1.6-0.9,2.8-2.1,3.7C176,43.1,174.4,43.5,172.3,43.5z M169.5,34.6h5.1c-0.1-1.8-0.9-2.6-2.5-2.6c-0.7,0-1.3,0.2-1.8,0.7
		S169.7,33.7,169.5,34.6z"/>
	<path class="st1" d="M185.3,43.5c-1.7,0-3.1-0.6-4.2-1.9c-1.1-1.2-1.7-3-1.7-5.3v-0.2c0-2.3,0.6-4.1,1.7-5.4s2.5-1.9,4.3-1.9
		c2,0,3.4,0.8,4.3,2.4V23h4.8v20.2h-4.8v-2.3c-0.4,0.8-0.9,1.4-1.7,1.9C187.2,43.3,186.3,43.5,185.3,43.5z M187,39.8
		c0.9,0,1.6-0.3,2.1-0.9c0.5-0.6,0.7-1.5,0.7-2.7V36c0-1.2-0.2-2.1-0.7-2.7s-1.2-0.9-2.1-0.9c-1.8,0-2.8,1.2-2.8,3.6v0.2
		c0,1.2,0.2,2,0.7,2.7C185.5,39.5,186.2,39.8,187,39.8z"/>
	<path class="st1" d="M201.2,43.5c-1.7,0-3.1-0.6-4.2-1.9c-1.1-1.2-1.7-3-1.7-5.3v-0.2c0-2.3,0.6-4.1,1.7-5.4s2.5-1.9,4.3-1.9
		c2,0,3.4,0.8,4.3,2.4V23h4.8v20.2h-4.8v-2.3c-0.4,0.8-0.9,1.4-1.7,1.9C203.1,43.3,202.2,43.5,201.2,43.5z M202.9,39.8
		c0.9,0,1.6-0.3,2.1-0.9c0.5-0.6,0.7-1.5,0.7-2.7V36c0-1.2-0.2-2.1-0.7-2.7s-1.2-0.9-2.1-0.9c-1.8,0-2.8,1.2-2.8,3.6v0.2
		c0,1.2,0.2,2,0.7,2.7C201.4,39.5,202.1,39.8,202.9,39.8z"/>
	<path class="st1" d="M218.8,43.5c-2.3,0-4.1-0.6-5.5-1.9c-1.4-1.3-2.1-3-2.1-5.3v-0.2c0-2.2,0.7-4,2.2-5.3c1.4-1.3,3.3-2,5.4-2
		c2.1,0,3.8,0.6,5.1,1.8c1.3,1.2,2,3,2,5.4v1.3H216c0.1,0.9,0.4,1.6,0.9,2.2c0.5,0.5,1.2,0.8,2.1,0.8c1.4,0,2.2-0.6,2.4-1.7h4.5
		c-0.2,1.6-0.9,2.8-2.1,3.7C222.5,43.1,220.9,43.5,218.8,43.5z M216.1,34.6h5.1c-0.1-1.8-0.9-2.6-2.5-2.6c-0.7,0-1.3,0.2-1.8,0.7
		S216.2,33.7,216.1,34.6z"/>
	<path class="st1" d="M226.6,43.2v-14h4.8v2.3c0.4-0.8,1-1.4,1.8-1.9s1.7-0.7,2.8-0.7c1.4,0,2.5,0.4,3.4,1.3
		c0.8,0.9,1.2,2.2,1.2,3.9v9.1h-4.8V35c0-1.6-0.7-2.4-2-2.4c-0.7,0-1.3,0.2-1.7,0.7c-0.4,0.4-0.6,1.1-0.6,2v7.9H226.6z"/>
</g>
<g>
	<path class="st0" d="M5.1,66.2L0,52.2h5.1l2.9,9l2.9-9h4.6l-5.1,14H5.1z"/>
	<path class="st0" d="M19.2,66.5c-1.4,0-2.5-0.3-3.4-1c-0.9-0.7-1.3-1.8-1.3-3.2c0-3.1,2.5-4.6,7.5-4.6h1.3v-0.3
		c0-0.7-0.1-1.3-0.4-1.7s-0.7-0.6-1.5-0.6c-1.1,0-1.8,0.6-1.9,1.7H15c0.1-1.6,0.8-2.9,2-3.8c1.2-0.9,2.8-1.3,4.7-1.3
		c2,0,3.6,0.4,4.7,1.3c1.1,0.9,1.7,2.2,1.7,4v9.1h-4.7v-1.6C22.5,65.9,21.1,66.5,19.2,66.5z M20.9,63.3c0.7,0,1.3-0.2,1.7-0.5
		c0.4-0.4,0.7-0.8,0.7-1.4v-0.9H22c-1,0-1.7,0.1-2.1,0.3c-0.4,0.2-0.7,0.6-0.7,1.2C19.2,62.8,19.8,63.3,20.9,63.3z"/>
	<path class="st0" d="M29.4,66.2v-14h4.8v2.3c0.4-0.8,1-1.4,1.8-1.9c0.8-0.5,1.7-0.7,2.8-0.7c1.4,0,2.5,0.4,3.4,1.3
		c0.8,0.9,1.2,2.2,1.2,3.9v9.1h-4.8V58c0-1.6-0.7-2.4-2-2.4c-0.7,0-1.3,0.2-1.7,0.7c-0.4,0.4-0.6,1.1-0.6,2v7.9H29.4z"/>
	<path class="st0" d="M54,66.5c-1.7,0-3.1-0.6-4.2-1.8c-1.1-1.2-1.7-3-1.7-5.3v-0.2c0-2.3,0.6-4.1,1.7-5.4c1.1-1.3,2.5-1.9,4.3-1.9
		c2,0,3.4,0.8,4.3,2.4V46h4.8v20.2h-4.8v-2.3c-0.4,0.8-0.9,1.4-1.7,1.9S55,66.5,54,66.5z M55.7,62.8c0.9,0,1.6-0.3,2.1-0.9
		c0.5-0.6,0.7-1.5,0.7-2.7V59c0-1.2-0.2-2.1-0.7-2.7c-0.5-0.6-1.2-0.9-2.1-0.9c-1.8,0-2.8,1.2-2.8,3.6v0.2c0,1.2,0.2,2,0.7,2.7
		C54.2,62.5,54.9,62.8,55.7,62.8z"/>
	<path class="st0" d="M71.6,66.5c-2.3,0-4.1-0.6-5.5-1.9c-1.4-1.3-2.1-3-2.1-5.3v-0.2c0-2.2,0.7-4,2.2-5.3s3.3-2,5.4-2
		c2.1,0,3.8,0.6,5.1,1.8c1.3,1.2,2,3,2,5.4v1.3h-9.9c0.1,0.9,0.4,1.6,0.9,2.2c0.5,0.5,1.2,0.8,2.1,0.8c1.4,0,2.2-0.6,2.4-1.7h4.5
		c-0.2,1.6-0.9,2.8-2.1,3.7C75.3,66.1,73.7,66.5,71.6,66.5z M68.9,57.6H74c-0.1-1.8-0.9-2.6-2.5-2.6c-0.7,0-1.3,0.2-1.8,0.7
		C69.3,56.1,69,56.7,68.9,57.6z"/>
</g>
<g>
	<path class="st1" d="M87.2,66.2l-5.1-14h5.1l2.9,9l2.9-9h4.6l-5.1,14H87.2z"/>
	<path class="st1" d="M97.9,66.2V46h4.8v20.2H97.9z"/>
	<path class="st1" d="M108.3,66.5c-1.4,0-2.5-0.3-3.4-1s-1.3-1.8-1.3-3.2c0-3.1,2.5-4.6,7.5-4.6h1.3v-0.3c0-0.7-0.1-1.3-0.4-1.7
		s-0.7-0.6-1.5-0.6c-1.1,0-1.8,0.6-1.9,1.7h-4.5c0.1-1.6,0.8-2.9,2-3.8c1.2-0.9,2.8-1.3,4.7-1.3c2,0,3.6,0.4,4.7,1.3s1.7,2.2,1.7,4
		v9.1h-4.7v-1.6C111.6,65.9,110.2,66.5,108.3,66.5z M110,63.3c0.7,0,1.3-0.2,1.7-0.5c0.4-0.4,0.7-0.8,0.7-1.4v-0.9h-1.3
		c-1,0-1.7,0.1-2.1,0.3c-0.4,0.2-0.7,0.6-0.7,1.2C108.3,62.8,108.9,63.3,110,63.3z"/>
	<path class="st1" d="M118.6,66.2v-14h4.8v2.1c0.4-0.7,1-1.3,1.7-1.8c0.8-0.5,1.6-0.7,2.7-0.7c1.9,0,3.1,0.8,3.8,2.3
		c1.1-1.6,2.7-2.3,4.6-2.3c1.4,0,2.5,0.4,3.3,1.3c0.8,0.9,1.3,2.2,1.3,3.9v9.2H136v-8.4c0-0.7-0.2-1.2-0.5-1.6
		c-0.3-0.4-0.8-0.5-1.3-0.5c-0.7,0-1.2,0.2-1.6,0.6c-0.4,0.4-0.6,1-0.6,1.7v8.1h-4.7v-8.4c0-0.7-0.2-1.2-0.5-1.6
		c-0.3-0.4-0.8-0.5-1.3-0.5c-0.7,0-1.2,0.2-1.6,0.6c-0.4,0.4-0.6,1-0.6,1.7v8.1H118.6z"/>
	<path class="st1" d="M142.2,66.2v-14h4.8v2.1c0.4-0.7,1-1.3,1.7-1.8c0.8-0.5,1.6-0.7,2.7-0.7c1.9,0,3.1,0.8,3.8,2.3
		c1.1-1.6,2.7-2.3,4.6-2.3c1.4,0,2.5,0.4,3.3,1.3c0.8,0.9,1.3,2.2,1.3,3.9v9.2h-4.8v-8.4c0-0.7-0.2-1.2-0.5-1.6
		c-0.3-0.4-0.8-0.5-1.3-0.5c-0.7,0-1.2,0.2-1.6,0.6c-0.4,0.4-0.6,1-0.6,1.7v8.1h-4.7v-8.4c0-0.7-0.2-1.2-0.5-1.6
		c-0.3-0.4-0.8-0.5-1.3-0.5c-0.7,0-1.2,0.2-1.6,0.6c-0.4,0.4-0.6,1-0.6,1.7v8.1H142.2z"/>
	<path class="st1" d="M172.7,66.5c-2.3,0-4.1-0.6-5.5-1.9c-1.4-1.3-2.1-3-2.1-5.3v-0.2c0-2.2,0.7-4,2.2-5.3c1.4-1.3,3.3-2,5.4-2
		c2.1,0,3.8,0.6,5.1,1.8c1.3,1.2,2,3,2,5.4v1.3h-9.9c0.1,0.9,0.4,1.6,0.9,2.2c0.5,0.5,1.2,0.8,2.1,0.8c1.4,0,2.2-0.6,2.4-1.7h4.5
		c-0.2,1.6-0.9,2.8-2.1,3.7C176.5,66.1,174.8,66.5,172.7,66.5z M170,57.6h5.1c-0.1-1.8-0.9-2.6-2.5-2.6c-0.7,0-1.3,0.2-1.8,0.7
		S170.1,56.7,170,57.6z"/>
	<path class="st1" d="M180.6,66.2v-14h4.8v2.3c0.4-0.8,1-1.4,1.8-1.9c0.8-0.5,1.7-0.7,2.8-0.7c1.4,0,2.5,0.4,3.4,1.3
		s1.2,2.2,1.2,3.9v9.1h-4.8V58c0-1.6-0.7-2.4-2-2.4c-0.7,0-1.3,0.2-1.7,0.7c-0.4,0.4-0.6,1.1-0.6,2v7.9H180.6z"/>
</g>
<g>
	<path class="st0" d="M198.3,66.5c-0.8,0-1.4-0.3-2-0.8s-0.8-1.2-0.8-1.9s0.3-1.4,0.8-1.9c0.5-0.5,1.2-0.8,2-0.8
		c0.8,0,1.5,0.3,2,0.8c0.5,0.5,0.8,1.2,0.8,1.9s-0.3,1.4-0.8,1.9S199.1,66.5,198.3,66.5z"/>
</g>
</svg>
