<?xml version="1.0" encoding="utf-8"?>
<!-- Generator: Adobe Illustrator 24.0.0, SVG Export Plug-In . SVG Version: 6.00 Build 0)  -->
<svg version="1.1" id="Laag_1" xmlns="http://www.w3.org/2000/svg" xmlns:xlink="http://www.w3.org/1999/xlink" x="0px" y="0px"
	 width="720.9px" height="720.9px" viewBox="0 0 720.9 720.9" style="enable-background:new 0 0 720.9 720.9;" xml:space="preserve"
	>
<style type="text/css">
	.st0{fill:#170005;}
</style>
<g>
	<path class="st0" d="M0,0v720.9h720.9V0H0z M355.4,711.9H10V366.5h345.4V711.9z M355.4,355.4H10V10h345.4V355.4z M711.9,712.4
		H366.5V367h345.4V712.4z M711.9,355.4H366.5V10h345.4V355.4z"/>
	<polygon class="st0" points="410.5,482.8 410.5,475.1 413.5,471.7 421,482.8 430.9,482.8 419.2,465.8 430.5,453 420.7,453 
		410.4,465.1 410.4,453 402.2,453 402.2,482.8 	"/>
	<path class="st0" d="M447.5,483.4c8.5,0,14-4.3,14-13.9V453h-8.4v16.9c0,4.1-2.2,6.1-5.5,6.1s-5.5-2.1-5.5-6.4V453h-8.4v16.8
		C433.7,479.1,439,483.4,447.5,483.4z"/>
	<polygon class="st0" points="475.6,482.8 475.6,466.4 488.3,482.8 495.5,482.8 495.5,453 487.3,453 487.3,468.8 475,453 467.3,453 
		467.4,482.8 	"/>
	<path class="st0" d="M513.6,476.5c-3.5,0-6.8-1.3-9.7-3.6l-4.6,5.5c3.7,3.3,8.7,5,14,5c7.3,0,12.1-3.6,12.1-9.7v-0.1
		c0-5.6-4.2-7.8-11.1-9.3c-4.2-0.9-5.2-1.5-5.2-2.9v-0.1c0-1,1-1.9,3-1.9c2.7,0,5.7,1,8.4,2.9l4.1-5.8c-3.3-2.6-7.2-4-12.3-4
		c-7.2,0-11.6,4-11.6,9.5v0.1c0,6.2,4.9,8,11.3,9.4c4,1,5,1.7,5,2.9v0.1C517,475.7,515.8,476.5,513.6,476.5z"/>
	<polygon class="st0" points="537.4,482.8 545.7,482.8 545.7,460.2 554.7,460.2 554.7,453 528.5,453 528.5,460.3 537.5,460.3 	"/>
	<polygon class="st0" points="582,482.8 582,475.6 567.5,475.6 567.5,453 559.2,453 559.3,482.8 	"/>
	<rect x="586.5" y="453" class="st0" width="8.3" height="29.8"/>
	<polygon class="st0" points="609.4,482.8 609.4,466.4 622.1,482.8 629.3,482.8 629.3,453 621.1,453 621.1,468.8 608.8,453 
		601.1,453 601.2,482.8 	"/>
	<rect x="635.6" y="453" class="st0" width="8.3" height="29.8"/>
	<polygon class="st0" points="674.5,475.7 658.5,475.7 658.5,471 672.8,471 672.8,464.5 658.5,464.5 658.5,460 674.3,460 674.3,453 
		650.3,453 650.3,482.7 674.5,482.7 	"/>
	<path class="st0" d="M443.5,553.1h8.7l2.1-5.3h11.5l2.2,5.3h8.9L464.2,523h-8L443.5,553.1z M460.2,532.8l3.3,8.5h-6.7L460.2,532.8z
		"/>
	<polygon class="st0" points="503.5,545.8 489,545.8 489,523.2 480.7,523.2 480.8,553 503.5,553 	"/>
	<polygon class="st0" points="523.6,547.6 531.2,535.9 531.2,553 539.4,553 539.4,523.2 530.7,523.2 523.6,534.8 516.5,523.2 
		507.8,523.2 507.7,523.2 507.7,553.1 515.8,553.1 515.8,536 523.4,547.6 	"/>
	<polygon class="st0" points="569.6,530.2 569.6,523.2 545.6,523.2 545.6,552.9 569.8,552.9 569.8,545.9 553.8,545.9 553.8,541.2 
		568.1,541.2 568.1,534.7 553.8,534.7 553.8,530.2 	"/>
	<path class="st0" d="M574.9,523.2v29.9h8.3v-9h3.6l6,9h9.5l-7.1-10.4c3.7-1.6,6.1-4.6,6.1-9.2v-0.1c0-3-0.9-5.3-2.6-7
		c-2-2-5.1-3.2-9.7-3.2H574.9z M593.1,533.9L593.1,533.9c0,2.2-1.6,3.6-4.4,3.6v0.1h-5.5v-7.2h5.4
		C591.4,530.4,593.1,531.6,593.1,533.9z"/>
	<polygon class="st0" points="630.4,530.2 630.4,523.2 606.4,523.2 606.5,552.9 630.7,552.9 630.7,545.9 614.7,545.9 614.7,541.2 
		629,541.2 629,534.7 614.6,534.7 614.6,530.2 	"/>
	<polygon class="st0" points="407.1,612.6 421.2,612.6 421.2,605.7 407.1,605.7 407.1,600.6 422.7,600.6 422.7,593.4 398.8,593.4 
		398.8,623.3 407.1,623.3 	"/>
	<polygon class="st0" points="435.6,593.4 427.3,593.4 427.3,623.2 450,623.2 450,616 435.6,616 	"/>
	<polygon class="st0" points="462.6,611.4 476.9,611.4 476.9,604.9 462.6,604.9 462.6,600.4 478.4,600.4 478.4,593.4 454.4,593.4 
		454.4,623.1 478.6,623.1 478.6,616.1 462.6,616.1 	"/>
	<polygon class="st0" points="497.4,612.3 490.6,593.4 481.3,593.4 493.5,623.5 501.2,623.5 513.3,593.4 504.2,593.4 	"/>
	<path class="st0" d="M532,592.9c-9.2,0-16.1,6.9-16.1,15.6c0,8.5,6.8,15.4,16,15.4S548,617,548,608.4v-0.1
		C548,599.8,541.2,592.9,532,592.9z M532,616.6c-4.5,0-7.6-3.8-7.6-8.1v-0.1c0-4.3,3-8,7.5-8c4.6,0,7.7,3.7,7.7,8.1
		C539.6,612.8,536.6,616.4,532,616.6z"/>
	<polygon class="st0" points="561.5,593.4 553.2,593.4 553.3,623.2 576,623.2 576,616 561.5,616 	"/>
	<path class="st0" d="M590.7,593.2L578,623.3h8.7l2.1-5.3h11.5l2.2,5.3h8.9l-12.7-30.1H590.7z M591.2,611.5l3.4-8.5l3.3,8.5H591.2z"
		/>
	<polygon class="st0" points="615.1,593.4 615.1,623.2 623.3,623.2 623.3,606.8 636,623.2 643.3,623.2 643.3,593.4 635.1,593.4 
		635.1,609.2 622.8,593.4 	"/>
	<path class="st0" d="M677.7,608.2L677.7,608.2c0-8.7-6.1-14.8-16.8-14.8h-11.5v29.8h11.3C671.4,623.2,677.7,616.8,677.7,608.2z
		 M657.6,600.9h3.4c4.9,0,8.2,2.7,8.2,7.5v0.1c0,4.8-3.3,7.5-8.2,7.5h-3.4V600.9z"/>
	<path class="st0" d="M109.7,278.9c12.8,0,23.2-10.4,23.2-23.2v-49.8h40.2l66.2,66.2c4.5,4.5,10.5,6.8,16.4,6.8s11.9-2.3,16.4-6.8
		c9.1-9.1,9.1-23.7,0-32.8l-56.6-56.6l56.6-56.6c9.1-9.1,9.1-23.7,0-32.8s-23.7-9.1-32.8,0l-66.2,66.2h-40.2v-49.8
		c0-12.8-10.4-23.2-23.2-23.2s-23.2,10.4-23.2,23.2v146C86.6,268.5,96.9,278.9,109.7,278.9z"/>
	<path class="st0" d="M465.2,278.9c12.8,0,23.2-10.4,23.2-23.2v-49.8H588v49.8c0,12.8,10.4,23.2,23.2,23.2s23.2-10.4,23.2-23.2v-146
		c0-12.8-10.4-23.2-23.2-23.2h-146c-12.8,0-23.2,10.4-23.2,23.2v146C442,268.5,452.4,278.9,465.2,278.9z M488.4,132.9H588v26.6
		h-99.6V132.9z"/>
	<path class="st0" d="M109.7,634.4c12.8,0,23.2-10.4,23.2-23.2v-49.8h122.8c12.8,0,23.2-10.4,23.2-23.2S268.5,515,255.7,515H132.9
		v-26.6h122.8c12.8,0,23.2-10.4,23.2-23.2c0-12.8-10.4-23.2-23.2-23.2h-146c-12.8,0-23.2,10.4-23.2,23.2v146
		C86.6,624,96.9,634.4,109.7,634.4z"/>
</g>
</svg>
