<?xml version="1.0" encoding="utf-8"?>
<!-- Generator: Adobe Illustrator 24.0.0, SVG Export Plug-In . SVG Version: 6.00 Build 0)  -->
<svg version="1.1" id="Laag_1" xmlns="http://www.w3.org/2000/svg" xmlns:xlink="http://www.w3.org/1999/xlink" x="0px" y="0px"
	 width="143.4px" height="37.3px" viewBox="0 0 143.4 37.3" style="enable-background:new 0 0 143.4 37.3;" xml:space="preserve">
<style type="text/css">
	.st0{fill:#FFFFFF;}
</style>
<g>
	<path class="st0" d="M0.6,0h1.1l4,7l4-7h1.1v8.4H9.7V2.2L6.2,8.4H5.2L1.7,2.2v6.2H0.6V0z"/>
	<path class="st0" d="M15.1,2.3C17,2.3,18,3.6,18,5.4v0.3h-4.8v0c0.1,1.2,0.9,1.9,2,1.9c0.9,0,1.5-0.4,1.9-0.9l0.5,0.8
		c-0.5,0.5-1.3,1.1-2.4,1.1c-1.8,0-3.1-1.2-3.1-3.1C12.1,3.7,13.3,2.3,15.1,2.3z M15.1,3.2c-1.1,0-1.7,0.7-1.9,1.7h3.6
		C16.7,3.9,16.2,3.2,15.1,3.2z"/>
	<path class="st0" d="M21.4,8.5c-1.1,0-1.7-0.5-1.7-1.7V3.3h-1.2V2.4h1.2V0.8h1v1.6h1.6v0.9h-1.6v3.5c0,0.5,0.2,0.7,0.7,0.7
		c0.4,0,0.6,0,1-0.1v0.9C22.1,8.4,21.7,8.5,21.4,8.5z"/>
	<path class="st0" d="M28,6.6v1.8h-1V0h1v5.3l2.7-2.9h1.5L29.6,5l2.6,3.4h-1.3l-1.9-2.7L28,6.6z"/>
	<path class="st0" d="M38.3,8.4h-1V7.5c-0.5,0.7-1,1-1.9,1c-1.7,0-2.2-1.1-2.2-2.6V2.4h1.1v3.5c0,0.9,0.3,1.6,1.4,1.6
		c1.4,0,1.7-1.1,1.7-2.4V2.4h1V8.4z"/>
	<path class="st0" d="M40,2.4h1v0.9c0.4-0.7,1.2-1.1,2-1.1c1.4,0,2.2,0.9,2.2,2.5v3.6h-1.1V4.8c0-1-0.5-1.6-1.5-1.6
		c-1.1,0-1.7,0.8-1.7,2.4v2.8h-1V2.4z"/>
	<path class="st0" d="M49,2.3c1.1,0,1.9,0.4,2.4,1.3l-0.9,0.5c-0.3-0.6-0.8-0.9-1.6-0.9c-0.7,0-1.2,0.3-1.2,0.8
		c0,0.5,0.5,0.6,1.4,0.9c1.3,0.3,2.2,0.6,2.2,1.8c0,1.2-0.8,1.9-2.3,1.9c-1.2,0-2.2-0.5-2.7-1.4l0.9-0.5c0.3,0.6,0.9,1,1.8,1
		c0.8,0,1.2-0.3,1.2-0.8c0-0.6-0.5-0.7-1.3-0.9c-1.1-0.3-2.3-0.6-2.3-1.8C46.8,3,47.6,2.3,49,2.3z"/>
	<path class="st0" d="M54.7,8.5C53.6,8.5,53,8,53,6.7V3.3h-1.2V2.4H53V0.8h1v1.6h1.6v0.9h-1.6v3.5c0,0.5,0.2,0.7,0.7,0.7
		c0.4,0,0.6,0,1-0.1v0.9C55.4,8.4,55.1,8.5,54.7,8.5z"/>
	<path class="st0" d="M56.1,2.4h1.2L59,6.8l1.8-4.4h0.7l1.8,4.4l1.7-4.4h1.2l-2.5,6H63l-1.8-4.3l-1.8,4.3h-0.8L56.1,2.4z"/>
	<path class="st0" d="M69.7,2.3c1.9,0,2.9,1.4,2.9,3.1v0.3h-4.8v0c0.1,1.2,0.9,1.9,2,1.9c0.9,0,1.5-0.4,1.9-0.9l0.5,0.8
		C71.8,8,71,8.5,69.8,8.5c-1.8,0-3.1-1.2-3.1-3.1C66.8,3.7,67.9,2.3,69.7,2.3z M69.8,3.2c-1.1,0-1.7,0.7-1.9,1.7h3.6
		C71.4,3.9,70.8,3.2,69.8,3.2z"/>
	<path class="st0" d="M76.6,2.3c0.2,0,0.4,0,0.6,0.1v1.1c-0.2,0-0.4-0.1-0.6-0.1c-1.3,0-1.8,0.9-1.8,2.3v2.8h-1v-6h1v0.9
		C75.2,2.6,75.8,2.3,76.6,2.3z"/>
	<path class="st0" d="M79.3,6.6v1.8h-1V0h1v5.3l2.7-2.9h1.5L80.9,5l2.6,3.4h-1.3l-1.9-2.7L79.3,6.6z"/>
	<path class="st0" d="M87,2.3c1.9,0,2.9,1.4,2.9,3.1v0.3H85v0c0.1,1.2,0.9,1.9,2,1.9c0.9,0,1.5-0.4,1.9-0.9l0.5,0.8
		C89,8,88.2,8.5,87.1,8.5c-1.8,0-3.1-1.2-3.1-3.1C84,3.7,85.2,2.3,87,2.3z M87,3.2c-1.1,0-1.7,0.7-1.9,1.7h3.6
		C88.6,3.9,88.1,3.2,87,3.2z"/>
	<path class="st0" d="M91,2.4h1v0.9c0.4-0.7,1.2-1.1,2-1.1c1.4,0,2.2,0.9,2.2,2.5v3.6h-1.1V4.8c0-1-0.5-1.6-1.5-1.6
		c-1.1,0-1.7,0.8-1.7,2.4v2.8h-1V2.4z"/>
	<path class="st0" d="M100.7,2.4h1.2l1.8,4.6l1.8-4.6h1.2l-2.6,6h-0.8L100.7,2.4z"/>
	<path class="st0" d="M110.1,2.3c1.6,0,2.4,0.8,2.4,2.2v3.9h-1V7.5c-0.4,0.6-1.1,1-2,1c-1.2,0-2-0.8-2-1.9c0-1,0.7-1.7,1.9-1.8
		l1.7-0.2c0.3,0,0.4-0.1,0.4-0.3V4.2c0-0.6-0.5-1-1.3-1c-0.9,0-1.4,0.4-1.5,1.1l-0.9-0.5C108,2.8,108.8,2.3,110.1,2.3z M109.5,5.8
		c-0.6,0.1-1,0.4-1,0.9c0,0.5,0.4,0.9,1.1,0.9c1,0,1.8-0.7,1.8-1.6V5.5L109.5,5.8z"/>
	<path class="st0" d="M114,2.4h1v0.9c0.4-0.7,1.2-1.1,2-1.1c1.4,0,2.2,0.9,2.2,2.5v3.6h-1.1V4.8c0-1-0.5-1.6-1.5-1.6
		c-1.1,0-1.7,0.8-1.7,2.4v2.8h-1V2.4z"/>
	<path class="st0" d="M127,2.3c1.8,0,3.1,1.3,3.1,3.1c0,1.8-1.3,3.1-3.1,3.1s-3.1-1.3-3.1-3.1C123.9,3.6,125.2,2.3,127,2.3z
		 M127,3.3c-1.2,0-2.1,0.9-2.1,2.1c0,1.2,0.8,2.1,2.1,2.1s2.1-0.9,2.1-2.1C129.1,4.1,128.3,3.3,127,3.3z"/>
	<path class="st0" d="M133.4,7.5c0,0.5-0.4,0.9-0.9,0.9c-0.5,0-0.9-0.4-0.9-0.9s0.4-0.9,0.9-0.9C133,6.5,133.4,6.9,133.4,7.5z"/>
	<path class="st0" d="M137.5,2.3c1.6,0,2.4,0.8,2.4,2.2v3.9h-1V7.5c-0.4,0.6-1.1,1-2,1c-1.2,0-2-0.8-2-1.9c0-1,0.7-1.7,1.9-1.8
		l1.7-0.2c0.3,0,0.4-0.1,0.4-0.3V4.2c0-0.6-0.5-1-1.3-1c-0.9,0-1.4,0.4-1.5,1.1l-0.9-0.5C135.3,2.8,136.2,2.3,137.5,2.3z M136.9,5.8
		c-0.6,0.1-1,0.4-1,0.9c0,0.5,0.4,0.9,1.1,0.9c1,0,1.8-0.7,1.8-1.6V5.5L136.9,5.8z"/>
	<path class="st0" d="M143.4,7.5c0,0.5-0.4,0.9-0.9,0.9c-0.5,0-0.9-0.4-0.9-0.9s0.4-0.9,0.9-0.9C142.9,6.5,143.4,6.9,143.4,7.5z"/>
	<path class="st0" d="M0.6,14.4h1.1v8.4H0.6V14.4z"/>
	<path class="st0" d="M6.3,16.7c0.2,0,0.4,0,0.6,0.1v1.1c-0.2,0-0.4-0.1-0.6-0.1c-1.3,0-1.8,0.9-1.8,2.3v2.8h-1v-6h1v0.9
		C4.8,17,5.4,16.7,6.3,16.7z"/>
	<path class="st0" d="M7.7,15.1c0-0.5,0.3-0.8,0.8-0.8c0.5,0,0.8,0.3,0.8,0.8c0,0.5-0.3,0.8-0.8,0.8C8.1,15.9,7.7,15.6,7.7,15.1z
		 M9,22.8H8v-6h1V22.8z"/>
	<path class="st0" d="M12.8,16.7c1.1,0,1.9,0.4,2.4,1.3l-0.9,0.5c-0.3-0.6-0.8-0.9-1.6-0.9c-0.7,0-1.2,0.3-1.2,0.8
		c0,0.5,0.5,0.6,1.4,0.9c1.3,0.3,2.2,0.6,2.2,1.8c0,1.2-0.8,1.9-2.3,1.9c-1.2,0-2.2-0.5-2.7-1.4l0.9-0.5c0.3,0.6,0.9,1,1.8,1
		c0.8,0,1.2-0.3,1.2-0.8c0-0.6-0.5-0.7-1.3-0.9c-1.1-0.3-2.3-0.6-2.3-1.8C10.6,17.4,11.4,16.7,12.8,16.7z"/>
	<path class="st0" d="M19.9,14.4H21v4.2l4.1-4.2h1.5l-3.6,3.7l3.6,4.7h-1.4l-3-4L21,20.1v2.7h-1.1V14.4z"/>
	<path class="st0" d="M30.1,16.7c1.9,0,2.9,1.4,2.9,3.1v0.3h-4.8v0c0.1,1.2,0.9,1.9,2,1.9c0.9,0,1.5-0.4,1.9-0.9l0.5,0.8
		c-0.5,0.5-1.3,1.1-2.4,1.1c-1.8,0-3.1-1.2-3.1-3.1C27.1,18.1,28.3,16.7,30.1,16.7z M30.1,17.6c-1.1,0-1.7,0.7-1.9,1.7h3.6
		C31.7,18.3,31.2,17.6,30.1,17.6z"/>
	<path class="st0" d="M34.2,16.8h1v0.9c0.4-0.7,1.2-1.1,2-1.1c1.4,0,2.2,0.9,2.2,2.5v3.6h-1.1v-3.6c0-1-0.5-1.6-1.5-1.6
		c-1.1,0-1.7,0.8-1.7,2.4v2.8h-1V16.8z"/>
	<path class="st0" d="M43.1,16.7c1.1,0,1.9,0.4,2.4,1.3l-0.9,0.5c-0.3-0.6-0.8-0.9-1.6-0.9c-0.7,0-1.2,0.3-1.2,0.8
		c0,0.5,0.5,0.6,1.4,0.9c1.3,0.3,2.2,0.6,2.2,1.8c0,1.2-0.8,1.9-2.3,1.9c-1.2,0-2.2-0.5-2.7-1.4l0.9-0.5c0.3,0.6,0.9,1,1.8,1
		c0.8,0,1.2-0.3,1.2-0.8c0-0.6-0.5-0.7-1.3-0.9c-1.1-0.3-2.3-0.6-2.3-1.8C40.9,17.4,41.7,16.7,43.1,16.7z"/>
	<path class="st0" d="M53.7,16.7c1.5,0,2.3,0.9,2.3,2.7v3.5h-1v-3.6c0-1-0.5-1.6-1.4-1.6c-1.2,0-1.8,0.8-1.8,2.4v2.8h-1v-3.6
		c0-1-0.5-1.6-1.4-1.6c-1.2,0-1.7,0.8-1.7,2.4v2.8h-1v-6h1v1c0.4-0.8,1.1-1.1,1.9-1.1c0.9,0,1.6,0.4,2,1.2
		C52,17,52.7,16.7,53.7,16.7z"/>
	<path class="st0" d="M57.5,15.1c0-0.5,0.3-0.8,0.8-0.8c0.5,0,0.8,0.3,0.8,0.8c0,0.5-0.3,0.8-0.8,0.8C57.8,15.9,57.5,15.6,57.5,15.1
		z M58.8,22.8h-1v-6h1V22.8z"/>
	<path class="st0" d="M61.6,22.8h-1.1v-8.4h1.1V22.8z"/>
	<path class="st0" d="M65.6,21.5l-2.1,3.7l-0.8-0.5l2.1-3.7L65.6,21.5z"/>
	<path class="st0" d="M76.5,22.8L74.3,20h-0.2H72v2.8h-1.1v-8.4h3.2c1.6,0,2.8,1.2,2.8,2.8c0,1.1-0.6,2.1-1.5,2.5l2.5,3.1H76.5z
		 M73.4,19l-0.5-0.6l0.8-0.7l0.9,1.2c0.6-0.2,1.1-0.8,1.1-1.6c0-1-0.8-1.7-1.8-1.7H72V19H73.4z"/>
	<path class="st0" d="M78.6,15.1c0-0.5,0.3-0.8,0.8-0.8c0.5,0,0.8,0.3,0.8,0.8c0,0.5-0.3,0.8-0.8,0.8C78.9,15.9,78.6,15.6,78.6,15.1
		z M79.9,22.8h-1v-6h1V22.8z"/>
	<path class="st0" d="M84.3,16.7c0.9,0,1.6,0.3,2.2,0.9l-0.7,0.8c-0.5-0.5-1-0.7-1.6-0.7c-1.2,0-2,0.9-2,2.1c0,1.3,0.8,2.1,2,2.1
		c0.6,0,1.2-0.2,1.7-0.7l0.6,0.8c-0.6,0.6-1.4,0.9-2.3,0.9c-1.8,0-3.1-1.3-3.1-3.1S82.5,16.7,84.3,16.7z"/>
	<path class="st0" d="M88.7,17.7c0.5-0.7,1.1-1.1,2-1.1c1.4,0,2.3,0.9,2.3,2.6v3.5h-1.1v-3.6c0-1-0.5-1.6-1.4-1.6
		c-1.2,0-1.8,0.8-1.8,2.4v2.8h-1v-8.4h1V17.7z"/>
	<path class="st0" d="M96.9,16.7c1.6,0,2.4,0.8,2.4,2.2v3.9h-1v-0.9c-0.4,0.6-1.1,1-2,1c-1.2,0-2-0.8-2-1.9c0-1,0.7-1.7,1.9-1.8
		l1.7-0.2c0.3,0,0.4-0.1,0.4-0.3v-0.2c0-0.6-0.5-1-1.3-1c-0.9,0-1.4,0.4-1.5,1.1l-0.9-0.5C94.7,17.2,95.6,16.7,96.9,16.7z
		 M96.3,20.2c-0.6,0.1-1,0.4-1,0.9c0,0.5,0.4,0.9,1.1,0.9c1,0,1.8-0.7,1.8-1.6v-0.4L96.3,20.2z"/>
	<path class="st0" d="M103.5,16.7c0.2,0,0.4,0,0.6,0.1v1.1c-0.2,0-0.4-0.1-0.6-0.1c-1.3,0-1.8,0.9-1.8,2.3v2.8h-1v-6h1v0.9
		C102.1,17,102.7,16.7,103.5,16.7z"/>
	<path class="st0" d="M110.8,22.8h-1v-0.9c-0.5,0.7-1.2,1-2.1,1c-1.7,0-2.9-1.3-2.9-3.1c0-1.8,1.2-3.1,2.9-3.1c0.9,0,1.5,0.3,2.1,1
		v-3.3h1V22.8z M105.8,19.8c0,1.3,0.8,2.2,2,2.2c1.2,0,2-0.9,2-2.2c0-1.3-0.8-2.2-2-2.2C106.6,17.6,105.8,18.5,105.8,19.8z"/>
	<path class="st0" d="M116,14.4h1.1v4.2l4.1-4.2h1.5l-3.6,3.7l3.6,4.7h-1.4l-3-4l-1.3,1.3v2.7H116V14.4z"/>
	<path class="st0" d="M126.4,16.7c1.8,0,3.1,1.3,3.1,3.1c0,1.8-1.3,3.1-3.1,3.1s-3.1-1.3-3.1-3.1C123.2,18,124.6,16.7,126.4,16.7z
		 M126.4,17.7c-1.2,0-2.1,0.9-2.1,2.1c0,1.2,0.8,2.1,2.1,2.1s2.1-0.9,2.1-2.1C128.4,18.5,127.6,17.7,126.4,17.7z"/>
	<path class="st0" d="M132.4,22.8h-1v-5.1H130v-0.9h1.3v-0.3c0-1.6,0.8-2.2,1.9-2.2c0.3,0,0.6,0,0.9,0.1v0.9c-0.3,0-0.6-0.1-0.8-0.1
		c-0.7,0-1,0.3-1,1.3v0.3h1.7v0.9h-1.7V22.8z"/>
	<path class="st0" d="M135,15.1c0-0.5,0.3-0.8,0.8-0.8s0.8,0.3,0.8,0.8c0,0.5-0.3,0.8-0.8,0.8S135,15.6,135,15.1z M136.4,22.8h-1v-6
		h1V22.8z"/>
	<path class="st0" d="M3,31.1c1.9,0,2.9,1.4,2.9,3.1v0.3H1v0c0.1,1.2,0.9,1.9,2,1.9c0.9,0,1.5-0.4,1.9-0.9l0.5,0.8
		c-0.5,0.5-1.3,1.1-2.4,1.1c-1.8,0-3.1-1.2-3.1-3.1C0,32.5,1.2,31.1,3,31.1z M3,32c-1.1,0-1.7,0.7-1.9,1.7h3.6C4.6,32.7,4.1,32,3,32
		z"/>
	<path class="st0" d="M7,31.2h1v0.9c0.4-0.7,1.2-1.1,2-1.1c1.4,0,2.2,0.9,2.2,2.5v3.6h-1.1v-3.6c0-1-0.5-1.6-1.5-1.6
		c-1.1,0-1.7,0.8-1.7,2.4v2.8H7V31.2z"/>
	<path class="st0" d="M23.7,35.6h-5.1l-0.7,1.6h-1.2l3.9-8.4h1.1l3.9,8.4h-1.2L23.7,35.6z M23.3,34.5l-2.1-4.4l-2.1,4.4H23.3z"/>
	<path class="st0" d="M27.7,35.4v1.8h-1v-8.4h1v5.3l2.7-2.9h1.5l-2.6,2.6l2.6,3.4h-1.3l-1.9-2.7L27.7,35.4z"/>
	<path class="st0" d="M32.1,31.2h1.2l1.7,4.5l1.8-4.5h0.7l1.8,4.5l1.7-4.5h1.2l-2.5,6H39l-1.8-4.3l-1.8,4.3h-0.8L32.1,31.2z"/>
	<path class="st0" d="M45.5,31.1c1.6,0,2.4,0.8,2.4,2.2v3.9h-1v-0.9c-0.4,0.6-1.1,1-2,1c-1.2,0-2-0.8-2-1.9c0-1,0.7-1.7,1.9-1.8
		l1.7-0.2c0.3,0,0.4-0.1,0.4-0.3V33c0-0.6-0.5-1-1.3-1c-0.9,0-1.4,0.4-1.5,1.1l-0.9-0.5C43.4,31.6,44.2,31.1,45.5,31.1z M45,34.6
		c-0.6,0.1-1,0.4-1,0.9c0,0.5,0.4,0.9,1.1,0.9c1,0,1.8-0.7,1.8-1.6v-0.4L45,34.6z"/>
	<path class="st0" d="M51.4,31.1c1.1,0,1.9,0.4,2.4,1.3L53,32.9c-0.3-0.6-0.8-0.9-1.6-0.9c-0.7,0-1.2,0.3-1.2,0.8
		c0,0.5,0.5,0.6,1.4,0.9c1.3,0.3,2.2,0.6,2.2,1.8c0,1.2-0.8,1.9-2.3,1.9c-1.2,0-2.2-0.5-2.7-1.4l0.9-0.5c0.3,0.6,0.9,1,1.8,1
		c0.8,0,1.2-0.3,1.2-0.8c0-0.6-0.5-0.7-1.3-0.9c-1.1-0.3-2.3-0.6-2.3-1.8C49.2,31.8,50.1,31.1,51.4,31.1z"/>
	<path class="st0" d="M54.7,29.5c0-0.5,0.3-0.8,0.8-0.8c0.5,0,0.8,0.3,0.8,0.8s-0.3,0.8-0.8,0.8C55,30.3,54.7,30,54.7,29.5z
		 M56,37.2h-1v-6h1V37.2z"/>
</g>
</svg>
