<?xml version="1.0" encoding="utf-8"?>
<!-- Generator: Adobe Illustrator 24.0.0, SVG Export Plug-In . SVG Version: 6.00 Build 0)  -->
<svg version="1.1" id="Laag_1" xmlns="http://www.w3.org/2000/svg" xmlns:xlink="http://www.w3.org/1999/xlink" x="0px" y="0px"
	 width="153.2px" height="32.5px" viewBox="0 0 153.2 32.5" style="enable-background:new 0 0 153.2 32.5;" xml:space="preserve">
<style type="text/css">
	.st0{fill:#FFFFFF;}
</style>
<g>
	<path class="st0" d="M0,28V1.4h5.3V12L7.8,1.4h5.4l-3,12.2L13.7,28H8.2L5.3,15.1V28H0z"/>
	<path class="st0" d="M14.4,21.2v-9.1c0-2.1,0.6-3.9,1.8-5.1s2.9-1.9,5-1.9s3.8,0.6,5,1.9s1.8,3,1.8,5.1v9.1c0,4.7-2.3,7-6.8,7
		S14.4,25.9,14.4,21.2z M22.1,23.6c0.2-0.3,0.3-0.7,0.3-1.3V11.2c0-1.3-0.4-2-1.3-2c-0.8,0-1.3,0.7-1.3,2v11.1c0,0.5,0.1,1,0.3,1.3
		c0.2,0.3,0.5,0.5,1,0.5S21.9,23.9,22.1,23.6z"/>
	<path class="st0" d="M29.8,21.2v-9.1c0-2.1,0.6-3.9,1.8-5.1s2.9-1.9,5-1.9s3.8,0.6,5,1.9s1.8,3,1.8,5.1v9.1c0,4.7-2.3,7-6.8,7
		S29.8,25.9,29.8,21.2z M37.5,23.6c0.2-0.3,0.3-0.7,0.3-1.3V11.2c0-1.3-0.4-2-1.3-2c-0.8,0-1.3,0.7-1.3,2v11.1c0,0.5,0.1,1,0.3,1.3
		c0.2,0.3,0.5,0.5,1,0.5S37.3,23.9,37.5,23.6z"/>
	<path class="st0" d="M45.4,5.3h5.5v1.2c0.8-1,1.9-1.5,3.3-1.5c1.8,0,3,0.6,3.7,1.8c0.7,1.2,1,2.8,1,4.9v8.4c0,1.8-0.1,3.2-0.3,4.4
		c-0.2,1.1-0.7,2-1.4,2.7c-0.7,0.7-1.8,1-3.2,1c-1.4,0-2.4-0.4-3.1-1.1v5.4h-5.5V5.3z M53.1,23.3c0.1-0.5,0.2-1.1,0.2-2v-9.6
		c0-0.8-0.1-1.4-0.2-1.8c-0.1-0.4-0.5-0.6-1-0.6c-0.8,0-1.3,0.8-1.3,2.4v10c0,0.8,0.1,1.4,0.3,1.8c0.2,0.4,0.5,0.6,1,0.6
		C52.7,24,53,23.8,53.1,23.3z"/>
	<path class="st0" d="M69.8,27.3c-0.5-0.6-0.8-1.6-0.8-2.9V10.3h-1.5V6.2H69V1.4h5.3v4.8h1.5v4.1h-1.5V23c0,0.4,0,0.7,0.1,0.9
		s0.2,0.3,0.5,0.3c0.2,0,0.4,0,0.6,0c0.2,0,0.3,0,0.4,0v3.7c-0.3,0.1-0.8,0.2-1.3,0.3c-0.6,0.1-1.2,0.1-1.7,0.1
		C71.4,28.2,70.4,27.9,69.8,27.3z"/>
	<path class="st0" d="M77.5,3.8V0H83v3.8H77.5z M77.5,28V5.3H83V28H77.5z"/>
	<path class="st0" d="M86.5,26.4c-1.1-1.3-1.6-3.2-1.6-5.8v-7c0-2,0.2-3.6,0.6-4.8C86,7.5,86.7,6.6,87.7,6c1-0.6,2.4-0.9,4.2-0.9
		c1.9,0,3.5,0.5,4.7,1.5c1.2,1,1.8,2.4,1.8,4.2v3.5h-5.5v-3.2c0-0.6-0.1-1.1-0.2-1.4c-0.2-0.3-0.5-0.5-1-0.5c-0.9,0-1.3,0.6-1.3,1.9
		v11c0,0.5,0.1,1,0.3,1.3c0.2,0.4,0.5,0.5,1,0.5c0.4,0,0.8-0.2,1-0.5c0.2-0.4,0.3-0.8,0.3-1.4l0-3.8h5.5v4c0,1.9-0.6,3.3-1.8,4.4
		c-1.2,1.1-2.8,1.6-4.7,1.6C89.4,28.2,87.6,27.6,86.5,26.4z"/>
	<path class="st0" d="M100.3,28V1.2h5.4v11.9l2.6-7.8h5.6l-3.4,9.9l4.3,12.8h-5.8l-3.4-10.7V28H100.3z"/>
	<path class="st0" d="M116.9,26.3c-1-1.3-1.5-3.2-1.5-5.7v-9.1c0-2.1,0.6-3.7,1.8-4.8c1.2-1.1,2.9-1.6,5-1.6c4.4,0,6.5,2.1,6.5,6.4
		v1.6c0,1.7,0,3-0.1,4h-7.9v4.4c0,0.8,0.1,1.4,0.2,1.8c0.2,0.4,0.5,0.7,1.1,0.7c0.4,0,0.7-0.1,0.9-0.4s0.3-0.5,0.3-0.9
		c0-0.3,0-0.8,0-1.4v-2.2h5.4v1.3c0,2.6-0.5,4.6-1.5,5.8c-1,1.3-2.8,1.9-5.3,1.9C119.6,28.2,117.9,27.6,116.9,26.3z M123.3,14.4
		v-2.9c0-1.6-0.4-2.4-1.2-2.4c-0.9,0-1.4,0.8-1.4,2.4v2.9H123.3z"/>
	<path class="st0" d="M132.4,27.3c-0.5-0.6-0.8-1.6-0.8-2.9V10.3h-1.5V6.2h1.5V1.4h5.3v4.8h1.5v4.1h-1.5V23c0,0.4,0,0.7,0.1,0.9
		s0.2,0.3,0.5,0.3c0.2,0,0.4,0,0.6,0c0.2,0,0.3,0,0.4,0v3.7c-0.3,0.1-0.8,0.2-1.3,0.3c-0.6,0.1-1.2,0.1-1.7,0.1
		C133.9,28.2,132.9,27.9,132.4,27.3z"/>
	<path class="st0" d="M139.6,21.4l0-1.8h5.4l0,2.7c0,0.5,0.1,0.9,0.3,1.2c0.2,0.3,0.5,0.4,1,0.4c0.7,0,1.1-0.6,1.1-1.8
		c0-0.9-0.2-1.5-0.5-2c-0.3-0.5-0.9-1-1.6-1.6l-2.9-2.2c-1-0.8-1.7-1.6-2.1-2.4c-0.4-0.8-0.7-2-0.7-3.5c0-1.2,0.3-2.1,0.9-3
		c0.6-0.8,1.4-1.4,2.4-1.8s2.1-0.6,3.4-0.6c4.4,0,6.6,2.2,6.6,6.6v0.4h-5.6v-0.9c0-0.5-0.1-1-0.3-1.4c-0.2-0.4-0.5-0.6-0.9-0.6
		c-0.4,0-0.7,0.1-0.9,0.3c-0.2,0.2-0.3,0.5-0.3,0.9c0,0.8,0.3,1.5,1,1.9l3.3,2.4c1.2,0.9,2.1,1.9,2.8,2.9s1,2.4,1,4
		c0,2.1-0.6,3.7-1.8,4.9c-1.2,1.1-2.9,1.7-5,1.7C141.9,28.2,139.6,26,139.6,21.4z"/>
</g>
</svg>
