<?xml version="1.0" encoding="utf-8"?>
<!-- Generator: Adobe Illustrator 24.3.0, SVG Export Plug-In . SVG Version: 6.00 Build 0)  -->
<svg version="1.1" id="Laag_1" xmlns="http://www.w3.org/2000/svg" xmlns:xlink="http://www.w3.org/1999/xlink" x="0px" y="0px"
	 width="80.5px" height="12.4px" viewBox="0 0 80.5 12.4" style="enable-background:new 0 0 80.5 12.4;" xml:space="preserve">
<style type="text/css">
	.st0{fill:#FFFFFF;}
</style>
<g>
	<path class="st0" d="M8.5,0.2v2.2c-1.2-0.1-2-0.1-3.3-0.1c-1.9,0-2.4,0.9-2.4,3.9c0,3,0.5,3.9,2.4,3.9c1.5,0,2.4,0,3.6-0.2V12
		c-1,0.2-2.1,0.3-3.6,0.3C1.3,12.4,0,10.8,0,6.2C0,1.5,1.4,0,5.2,0C6.7,0,7.6,0.1,8.5,0.2z"/>
	<path class="st0" d="M13.2,12.2h-2.6V0.2h2.6V12.2z"/>
	<path class="st0" d="M24.5,2.4h-3.6v9.8h-2.6V2.4h-3.6V0.2h9.8V2.4z"/>
	<path class="st0" d="M28.6,12.2H26V0.2h2.6V12.2z"/>
	<path class="st0" d="M30.6,10.1l5.2-7.2c0.1-0.2,0.3-0.4,0.6-0.7l0-0.1c-0.3,0-0.5,0.1-0.7,0.1h-4.9v-2h8.4v2L34,9.3
		c-0.2,0.2-0.4,0.5-0.7,0.8l0,0.1c0.3,0,0.5-0.1,0.7-0.1h5.2v2h-8.7V10.1z"/>
	<path class="st0" d="M49.2,10.1v2c-1.6,0.1-3.6,0.1-5.5,0.1c-1.6,0-2.6-0.9-2.6-2.4V2.6c0-1.5,1-2.4,2.6-2.4c1.9,0,3.9,0,5.5,0.1v2
		h-4.6c-0.6,0-0.8,0.3-0.8,0.9V5h4.8v1.9h-4.8v2.3c0,0.6,0.2,0.9,0.8,0.9H49.2z"/>
	<path class="st0" d="M51.1,1.2c0-0.6,0.3-1,1-1h1.6c0.6,0,0.8,0.3,1.1,0.8l3,6.2c0.3,0.5,0.6,1.2,0.9,1.9h0.2
		c-0.1-0.7-0.1-1.3-0.1-2V0.2h2.5v11c0,0.6-0.3,1-0.9,1h-1.6c-0.6,0-0.8-0.3-1.1-0.8L54.5,5c-0.2-0.5-0.6-1.3-0.7-1.9h-0.2
		c0.1,0.6,0.1,1.3,0.1,1.9v7.1h-2.5V1.2z"/>
	<path class="st0" d="M70.9,6.9h-1C70,7.3,70,7.7,70,8v4.1h-2.6V0.2H70v3.4c0,0.5,0,1-0.1,1.4h1l3-4.8h2.9L73.7,5
		c-0.2,0.4-0.5,0.7-0.9,0.9V6c0.3,0.2,0.8,0.7,1,1.1l3.2,5.1h-2.9L70.9,6.9z"/>
	<path class="st0" d="M80.5,10.4v0.8c0,0.7-0.2,0.9-0.9,0.9h-0.7c-0.7,0-0.9-0.2-0.9-0.9v-0.8c0-0.7,0.2-0.9,0.9-0.9h0.7
		C80.3,9.5,80.5,9.7,80.5,10.4z"/>
</g>
</svg>
