<?xml version="1.0" encoding="utf-8"?>
<!-- Generator: Adobe Illustrator 24.3.0, SVG Export Plug-In . SVG Version: 6.00 Build 0)  -->
<svg version="1.1" id="Laag_1" xmlns="http://www.w3.org/2000/svg" xmlns:xlink="http://www.w3.org/1999/xlink" x="0px" y="0px"
	 width="484.7px" height="45.9px" viewBox="0 0 484.7 45.9" style="enable-background:new 0 0 484.7 45.9;" xml:space="preserve">
<style type="text/css">
	.st0{fill:#FFFFFF;}
</style>
<g>
	<path class="st0" d="M4,38.5h19.7v2.9H0.1v-2.2L20,7.1H0.1V4.2h23.5v2.2L4,38.5z"/>
	<path class="st0" d="M30.7,3.1c1.4,0,2.5,1.1,2.5,2.4c0,1.3-1.2,2.4-2.5,2.4c-1.3,0-2.4-1.1-2.4-2.4C28.3,4.1,29.4,3.1,30.7,3.1z
		 M29.3,13.8h3v27.7h-3V13.8z"/>
	<path class="st0" d="M62.6,39.1c-2.5,1.8-6.4,2.9-10.4,2.9c-8.5,0-14-5.4-14-14.1c0-9.1,6-14.7,13.4-14.7c7.3,0,12.6,5.2,12.6,14.5
		c0,0.3-0.1,0.8-0.1,1.1H41.3c0.4,6.7,4.4,10.4,10.9,10.4c3.5,0,6.4-0.6,9.6-2.6L62.6,39.1z M41.4,26.2h19.6
		C60.5,19.6,57,16,51.5,16C45.9,16,42,19.7,41.4,26.2z"/>
	<path class="st0" d="M70.1,4.2h3v37.3h-3V4.2z"/>
	<path class="st0" d="M78.6,39.9l0.8-2.8c2.4,1.3,5.3,2.1,8.3,2.1c4.3,0,7.5-1.5,7.5-5c0-7.7-16.1-2.1-16.1-13.1
		c0-4.6,3.4-7.9,10-7.9c2.7,0,5.9,0.7,8.3,2L96.6,18c-2.3-1.3-4.8-2-7.4-2c-4.1,0-6.9,1.9-6.9,5c0,8.3,16,2.6,16,13.1
		c0,4.9-4.8,7.9-10.5,7.9C84.4,42,80.6,41,78.6,39.9z"/>
	<path class="st0" d="M101,13.8h3.4l9.2,23.7l9.2-23.7h3.4L115,41.4h-2.9L101,13.8z"/>
	<path class="st0" d="M152.1,39.1c-2.5,1.8-6.4,2.9-10.4,2.9c-8.5,0-14-5.4-14-14.1c0-9.1,6-14.7,13.4-14.7
		c7.3,0,12.6,5.2,12.6,14.5c0,0.3-0.1,0.8-0.1,1.1h-22.7c0.4,6.7,4.4,10.4,10.9,10.4c3.5,0,6.4-0.6,9.6-2.6L152.1,39.1z M130.9,26.2
		h19.6C150,19.6,146.5,16,141,16C135.4,16,131.5,19.7,130.9,26.2z"/>
	<path class="st0" d="M159.5,13.8h3v7.6c2.4-4.6,5.7-8.1,10.1-8.1c0.8,0,1.7,0.1,2.6,0.4l-0.7,2.7c-0.7-0.3-1.4-0.4-2.1-0.4
		c-4.2,0-7.7,4.1-10,10.1v15.4h-3V13.8z"/>
	<path class="st0" d="M209,41.4l-2.8-0.1l-7.4-23.3l-8.3,23.3l-2.9-0.1l-9.9-27.6h3.4l8.1,23.5l8.2-23.5h3l7.4,23.6l8.7-23.6h3.3
		L209,41.4z"/>
	<path class="st0" d="M234.7,13.2c5.1,0,9,2.7,11.2,7.2v-6.6h3v27.7h-3v-7c-2.3,4.7-6,7.6-11.3,7.6c-7.3,0-13.2-5.1-13.2-14.3
		C221.4,18.6,227.2,13.2,234.7,13.2z M245.9,27.6C245,20.9,240.5,16,234.7,16c-5.7,0-10.1,3.9-10.1,11.7c0,7.3,4.3,11.6,10.1,11.6
		C240.9,39.2,244.9,34,245.9,27.6z"/>
	<path class="st0" d="M256.9,13.8h3v7.7c3-5.7,7-8.3,11.7-8.3c4.7,0,9,2.4,9,11v17.2h-3V24.6c0-6.3-2.9-8.6-6.6-8.6
		c-4.7,0-8.4,3.3-11.1,10.1v15.3h-3V13.8z"/>
	<path class="st0" d="M289.2,16.4h-5.1v-2.6h5.1V5.4h3v8.4h10.8v2.6h-10.8V32c0,5.5,2.4,7.3,5.9,7.3c1.6,0,3.6-0.4,5.3-1.3l0.7,2.5
		c-1.9,1-3.9,1.6-6.6,1.6c-4.8,0-8.3-2.8-8.3-9.5V16.4z"/>
	<path class="st0" d="M329.8,39.1c-2.5,1.8-6.4,2.9-10.4,2.9c-8.5,0-14-5.4-14-14.1c0-9.1,6-14.7,13.4-14.7
		c7.3,0,12.6,5.2,12.6,14.5c0,0.3-0.1,0.8-0.1,1.1h-22.7c0.4,6.7,4.4,10.4,10.9,10.4c3.5,0,6.4-0.6,9.6-2.6L329.8,39.1z M308.6,26.2
		h19.6c-0.4-6.6-3.9-10.3-9.4-10.3C313.1,16,309.1,19.7,308.6,26.2z"/>
	<path class="st0" d="M337.2,13.8h3v7.7c3-5.7,7-8.3,11.7-8.3c4.7,0,9,2.4,9,11v17.2h-3V24.6c0-6.3-2.9-8.6-6.6-8.6
		c-4.7,0-8.4,3.3-11.1,10.1v15.3h-3V13.8z"/>
</g>
</svg>
