<?xml version="1.0" encoding="utf-8"?>
<!-- Generator: Adobe Illustrator 24.0.0, SVG Export Plug-In . SVG Version: 6.00 Build 0)  -->
<svg version="1.1" id="Laag_1" xmlns="http://www.w3.org/2000/svg" xmlns:xlink="http://www.w3.org/1999/xlink" x="0px" y="0px"
	 width="117.5px" height="12.1px" viewBox="0 0 117.5 12.1" style="enable-background:new 0 0 117.5 12.1;" xml:space="preserve">
<style type="text/css">
	.st0{fill:#FFFFFF;}
</style>
<g>
	<path class="st0" d="M6.9,4.2c0,0.8-0.5,1.5-1.2,1.8c0.7,0.3,1.3,1,1.3,1.8c0,1.5-1.1,2.4-3.2,2.4H0.1V1.9h3.6
		C5.8,1.9,6.9,2.7,6.9,4.2z M2.1,5.2h1.6c0.7,0,1.2-0.2,1.2-0.8c0-0.6-0.5-0.8-1.2-0.8H2.1V5.2z M2.1,8.6h1.7C4.6,8.6,5,8.3,5,7.7
		c0-0.6-0.4-0.8-1.2-0.8H2.1V8.6z"/>
	<path class="st0" d="M8.3,10.2V1.9h6.4v1.8h-4.4v1.5h4.1v1.8h-4.1v1.5h4.4v1.8H8.3z"/>
	<path class="st0" d="M18.1,6.9v3.3h-2V1.9h2v3.3h0.7l2.4-3.3h2.5l-3.3,4.1l3.5,4.3h-2.5l-2.6-3.3H18.1z"/>
	<path class="st0" d="M24.6,10.2V1.9h2v8.4H24.6z"/>
	<path class="st0" d="M30.2,10.4c-1.3,0-2.2-0.5-2.7-1l1-1.5c0.3,0.3,0.8,0.6,1.5,0.6c0.8,0,1.2-0.5,1.2-1.6V1.9h2v5.2
		C33.3,9.3,32,10.4,30.2,10.4z"/>
	<path class="st0" d="M36.8,6.9v3.3h-2V1.9h2v3.3h0.7l2.4-3.3h2.5l-3.3,4.1l3.5,4.3h-2.5l-2.6-3.3H36.8z"/>
	<path class="st0" d="M53.8,6.1c0,2.5-1.7,4.2-4.4,4.2h-3.6V1.9h3.6C52.1,1.9,53.8,3.5,53.8,6.1z M47.9,8.4h1.5c1.6,0,2.3-1,2.3-2.3
		c0-1.4-0.8-2.3-2.3-2.3h-1.5V8.4z"/>
	<path class="st0" d="M55,10.2V1.9h6.4v1.8H57v1.5h4.1v1.8H57v1.5h4.4v1.8H55z"/>
	<path class="st0" d="M71.4,10.2l-0.6-1.8h-3.3l-0.6,1.8h-2.1l3.2-8.4h2.4l3.2,8.4H71.4z M70.1,6.7l-1-2.8l-1,2.8H70.1z"/>
	<path class="st0" d="M81.6,2.9l-1.4,1.4c-0.4-0.5-1-0.7-1.8-0.7c-1.3,0-2.3,1-2.3,2.5c0,1.6,1.1,2.5,2.3,2.5c1.2,0,1.9-0.5,2.1-1.5
		h-2V5.5h4c0,0.2,0,0.4,0,0.6c0,2.7-1.9,4.3-4.1,4.3c-2.5,0-4.4-1.7-4.4-4.3c0-2.5,1.9-4.4,4.5-4.4C79.8,1.7,80.8,2.1,81.6,2.9z"/>
	<path class="st0" d="M83.7,10.2V1.9h6.4v1.8h-4.4v1.5h4.1v1.8h-4.1v1.5h4.4v1.8H83.7z"/>
	<path class="st0" d="M97.3,10.2l-3.8-5.1v5.1h-2V1.9h1.9L97.2,7V1.9h2v8.4H97.3z"/>
	<path class="st0" d="M108.7,6.1c0,2.5-1.7,4.2-4.4,4.2h-3.6V1.9h3.6C107,1.9,108.7,3.5,108.7,6.1z M102.8,8.4h1.5
		c1.6,0,2.3-1,2.3-2.3c0-1.4-0.7-2.3-2.3-2.3h-1.5V8.4z"/>
	<path class="st0" d="M115.4,10.2l-0.6-1.8h-3.3l-0.6,1.8h-2.1l3.2-8.4h2.4l3.2,8.4H115.4z M114.1,6.7l-1-2.8l-1,2.8H114.1z"/>
</g>
</svg>
