<?xml version="1.0" encoding="utf-8"?>
<!-- Generator: Adobe Illustrator 22.0.0, SVG Export Plug-In . SVG Version: 6.00 Build 0)  -->
<svg version="1.1" id="Laag_1" xmlns="http://www.w3.org/2000/svg" xmlns:xlink="http://www.w3.org/1999/xlink" x="0px" y="0px"
	 viewBox="0 0 291.6 32.9" style="enable-background:new 0 0 291.6 32.9;" xml:space="preserve">
<style type="text/css">
	.st0{fill:#FFFFFF;}
</style>
<g>
	<path class="st0" d="M8.2,13.8L9.5,0.5h4.6V29h-3V19l0.2-11.4H11L9.3,28.9H5.9L4.1,7.5H3.9l0.2,11.4v10h-3V0.5h4.7l1.3,13.4
		l0.4,6.8h0.3L8.2,13.8z"/>
	<path class="st0" d="M23,26.9v2h-6.7V0.5h6.6v2h-3.2v10.7h3v2h-3V27H23V26.9z"/>
	<path class="st0" d="M32.3,2.5h-2.7V29h-3.4V2.5h-2.7v-2h8.8V2.5z"/>
	<path class="st0" d="M39.4,28.9l-1.1-11.6h-1.5v11.6h-3.3V0.5H38c2.7,0,4.4,0.9,4.4,2.9v10.9c0,1-0.5,1.7-1.2,2.1l1.5,12.5H39.4z
		 M37.6,15.3c0.9,0,1.3-0.3,1.3-1.1V3.6c0-0.7-0.5-1.1-1.3-1.1h-0.9v12.9L37.6,15.3L37.6,15.3z"/>
	<path class="st0" d="M53.4,3.4V26c0,2-1.6,3.1-4.5,3.1c-3,0-4.5-1.1-4.5-3.1V3.4c0-2,1.6-3.1,4.5-3.1C51.8,0.3,53.4,1.4,53.4,3.4z
		 M49.9,3.2c0-0.5-0.4-0.9-1.1-0.9c-0.7,0-1.1,0.3-1.1,0.9v22.9c0,0.6,0.5,0.9,1.1,0.9c0.7,0,1.1-0.4,1.1-0.9V3.2z"/>
	<path class="st0" d="M58.8,19.4v9.5h-3.3V0.5h4.6c2.7,0,4.5,1,4.5,2.9v13.1c0,2-1.9,3-4.5,3h-1.3V19.4z M61.1,16.3V3.5
		c0-0.7-0.5-1.1-1.3-1.1h-1v14.9h1C60.7,17.4,61.1,17,61.1,16.3z"/>
	<path class="st0" d="M75.2,3.4V26c0,2-1.6,3.1-4.5,3.1c-3,0-4.5-1.1-4.5-3.1V3.4c0-2,1.6-3.1,4.5-3.1C73.7,0.3,75.2,1.4,75.2,3.4z
		 M71.8,3.2c0-0.5-0.4-0.9-1.1-0.9s-1.1,0.3-1.1,0.9v22.9c0,0.6,0.5,0.9,1.1,0.9c0.7,0,1.1-0.4,1.1-0.9V3.2z"/>
	<path class="st0" d="M83.9,26.9v2h-6.5V0.5h3.3V27h3.2V26.9z"/>
	<path class="st0" d="M88.3,0.5V29H85V0.5H88.3z"/>
	<path class="st0" d="M96,10.9V3.1c0-0.5-0.4-0.8-1.1-0.8S93.8,2.6,93.8,3v7.7c0,0.9,0.3,1.3,1.3,1.7l1.5,0.5
		c1.8,0.7,2.8,1.4,2.8,3.2V26c0,1.9-1.7,2.9-4.5,2.9s-4.6-1-4.6-2.8v-9.4h3.4V26c0,0.5,0.4,0.9,1.2,0.9c0.7,0,1.1-0.4,1.1-0.8v-9.3
		c0-1-0.4-1.4-1.4-1.8L93,14.4c-1.8-0.7-2.7-1.5-2.7-3.3v-8c0-1.6,1.5-2.7,4.6-2.7c2.9,0,4.4,1,4.4,2.7V11H96V10.9z"/>
	<path class="st0" d="M116.4,14.1l-0.3,3.3h2.9l-0.3,1.7h-2.8L114.5,32h-2.8l1.4-12.8h-2.4L109.2,32h-2.8l1.4-12.8h-3.1l0.3-1.7h3
		l0.3-3.3h-2.8l0.3-1.7h2.7l1.3-12.1h2.8l-1.3,12.1h2.4L115,0.3h2.8l-1.3,12.1h3.1l-0.3,1.7H116.4z M113.5,14.1h-2.4l-0.3,3.3h2.4
		L113.5,14.1z"/>
	<path class="st0" d="M125.3,0.4v28.5H122V5h-1.9V3.5c2.5-0.2,2.9-1.6,3-3.1C123.1,0.4,125.3,0.4,125.3,0.4z"/>
	<path class="st0" d="M137.6,15.4h-6.7v-2h6.7V15.4z"/>
	<path class="st0" d="M149.4,8.3V0.5h3V29h-3.2l-3-18.5H146l0.4,9.7V29h-3V0.5h3.3l2.9,17.5h0.3L149.4,8.3z"/>
	<path class="st0" d="M163.5,26.4c0,1.8-1.8,2.7-4.5,2.7s-4.5-0.9-4.5-2.7V0.5h3.4v25.8c0,0.6,0.5,0.9,1.1,0.9s1-0.3,1-0.9V0.5h3.4
		v25.9H163.5z"/>
	<path class="st0" d="M173.3,0.5V29H170V0.5H173.3z"/>
	<path class="st0" d="M181.5,8.3V0.5h3V29h-3.2l-3-18.5H178l0.4,9.7V29h-3V0.5h3.3l2.9,17.5h0.3L181.5,8.3z"/>
	<path class="st0" d="M199.9,0.5V29h-3.4V15.2h-2.1V29H191V0.5h3.4v12.7h2.1V0.5H199.9z"/>
	<path class="st0" d="M208.8,26.9v2h-6.7V0.5h6.6v2h-3.2v10.7h3v2h-3V27h3.3V26.9z"/>
	<path class="st0" d="M218.1,2.5h-2.7V29H212V2.5h-2.7v-2h8.8V2.5z"/>
	<path class="st0" d="M231.2,2.5h-2.7V29h-3.4V2.5h-2.7v-2h8.8L231.2,2.5L231.2,2.5z"/>
	<path class="st0" d="M241.2,0.5V29h-3.4V15.2h-2.1V29h-3.4V0.5h3.4v12.7h2.1V0.5H241.2z"/>
	<path class="st0" d="M250.1,26.9v2h-6.7V0.5h6.6v2h-3.2v10.7h3v2h-3V27h3.3V26.9z"/>
	<path class="st0" d="M257,21.5h-2.5l-0.4,7.4h-3.4l2.4-28.5h5.3l2.5,28.5h-3.5L257,21.5z M256.8,19.5l-0.7-12.2L255.9,3h-0.3
		l-0.3,4.3l-0.7,12.2H256.8z"/>
	<path class="st0" d="M269,2.5h-2.7V29h-3.4V2.5h-2.7v-2h8.8L269,2.5L269,2.5z"/>
	<path class="st0" d="M276.7,26.9v2H270V0.5h6.6v2h-3.2v10.7h3v2h-3V27h3.3V26.9z"/>
	<path class="st0" d="M284.3,28.9l-1.1-11.6h-1.5v11.6h-3.3V0.5h4.6c2.7,0,4.4,0.9,4.4,2.9v10.9c0,1-0.5,1.7-1.2,2.1l1.5,12.5H284.3
		z M282.5,15.3c0.9,0,1.3-0.3,1.3-1.1V3.6c0-0.7-0.5-1.1-1.3-1.1h-0.9v12.9L282.5,15.3L282.5,15.3z"/>
</g>
</svg>
