<?xml version="1.0" encoding="utf-8"?>
<!-- Generator: Adobe Illustrator 24.0.0, SVG Export Plug-In . SVG Version: 6.00 Build 0)  -->
<svg version="1.1" id="Laag_1" xmlns="http://www.w3.org/2000/svg" xmlns:xlink="http://www.w3.org/1999/xlink" x="0px" y="0px"
	 width="720.9px" height="720.9px" viewBox="0 0 720.9 720.9" style="enable-background:new 0 0 720.9 720.9;" xml:space="preserve"
	>
<style type="text/css">
	.st0{fill:#FFFFFF;}
	.st1{fill:#2D6AB2;}
	.st2{fill:#C1D100;}
</style>
<rect y="0" width="720.9" height="720.9"/>
<rect x="366.5" y="367" class="st0" width="345.4" height="345.4"/>
<rect x="10" y="10" width="345.4" height="345.4"/>
<rect x="366.5" y="10" class="st1" width="345.4" height="345.4"/>
<rect x="10" y="366.5" class="st2" width="345.4" height="345.4"/>
<rect x="10" y="10" width="345.4" height="345.4"/>
<g>
	<path d="M402.1,453h8.3v12.1l10.3-12.1h9.8l-11.3,12.8l11.7,17H421l-7.5-11.1l-3,3.4v7.7h-8.3V453H402.1z"/>
	<path d="M433.7,469.8V453h8.4v16.6c0,4.3,2.2,6.4,5.5,6.4s5.5-2,5.5-6.1V453h8.4v16.5c0,9.6-5.5,13.9-14,13.9
		S433.7,479.1,433.7,469.8z"/>
	<path d="M467.3,453h7.7l12.3,15.8V453h8.2v29.8h-7.2l-12.7-16.4v16.4h-8.2L467.3,453L467.3,453z"/>
	<path d="M499.3,478.4l4.6-5.5c2.9,2.3,6.2,3.6,9.7,3.6c2.2,0,3.4-0.8,3.4-2v-0.1c0-1.2-1-1.9-5-2.9c-6.4-1.4-11.3-3.2-11.3-9.4V462
		c0-5.5,4.4-9.5,11.6-9.5c5.1,0,9,1.4,12.3,4l-4.1,5.8c-2.7-1.9-5.7-2.9-8.4-2.9c-2,0-3,0.9-3,1.9v0.1c0,1.4,1,2,5.2,2.9
		c6.9,1.5,11.1,3.7,11.1,9.3v0.1c0,6.1-4.8,9.7-12.1,9.7C508,483.4,503,481.7,499.3,478.4z"/>
	<path d="M537.5,460.3h-9V453h26.2v7.2h-9v22.6h-8.3L537.5,460.3L537.5,460.3z"/>
	<path d="M559.2,453h8.3v22.6H582v7.2h-22.7L559.2,453L559.2,453z"/>
	<path d="M586.5,453h8.3v29.8h-8.3V453z"/>
	<path d="M601.1,453h7.7l12.3,15.8V453h8.2v29.8h-7.2l-12.7-16.4v16.4h-8.2L601.1,453L601.1,453z"/>
	<path d="M635.6,453h8.3v29.8h-8.3V453z"/>
	<path d="M650.3,453h24v7h-15.8v4.5h14.3v6.5h-14.3v4.7h16v7h-24.2V453z"/>
	<path d="M456.2,523h8l12.7,30.1H468l-2.2-5.3h-11.5l-2.1,5.3h-8.7L456.2,523z M463.5,541.3l-3.3-8.5l-3.4,8.5H463.5z"/>
	<path d="M480.7,523.2h8.3v22.6h14.5v7.2h-22.7L480.7,523.2L480.7,523.2z"/>
	<path d="M507.8,523.2h8.7l7.1,11.6l7.1-11.6h8.7V553h-8.2v-17.1l-7.6,11.7h-0.2l-7.6-11.6v17.1h-8.1v-29.9H507.8z"/>
	<path d="M545.6,523.2h24v7h-15.8v4.5h14.3v6.5h-14.3v4.7h16v7h-24.2V523.2z"/>
	<path d="M574.9,523.2H589c4.6,0,7.7,1.2,9.7,3.2c1.7,1.7,2.6,4,2.6,7v0.1c0,4.6-2.4,7.6-6.1,9.2l7.1,10.4h-9.5l-6-9h-3.6v9h-8.3
		V523.2z M588.7,537.5c2.8,0,4.4-1.4,4.4-3.5v-0.1c0-2.3-1.7-3.5-4.5-3.5h-5.4v7.2h5.5V537.5z"/>
	<path d="M606.4,523.2h24v7h-15.8v4.5H629v6.5h-14.3v4.7h16v7h-24.2L606.4,523.2L606.4,523.2z"/>
	<path d="M398.8,593.4h23.9v7.2h-15.6v5.1h14.1v6.9h-14.1v10.7h-8.3V593.4z"/>
	<path d="M427.3,593.4h8.3V616H450v7.2h-22.7V593.4z"/>
	<path d="M454.4,593.4h24v7h-15.8v4.5h14.3v6.5h-14.3v4.7h16v7h-24.2V593.4z"/>
	<path d="M481.3,593.4h9.3l6.8,18.9l6.8-18.9h9.1l-12.1,30.1h-7.7L481.3,593.4z"/>
	<path d="M515.9,608.5L515.9,608.5c0-8.7,6.9-15.6,16.1-15.6c9.2,0,16,6.9,16,15.4v0.1c0,8.6-6.9,15.5-16.1,15.5
		C522.7,623.9,515.9,617,515.9,608.5z M539.6,608.5L539.6,608.5c0-4.4-3.1-8.1-7.7-8.1c-4.5,0-7.5,3.7-7.5,8v0.1
		c0,4.3,3.1,8.1,7.6,8.1C536.6,616.4,539.6,612.8,539.6,608.5z"/>
	<path d="M553.2,593.4h8.3V616H576v7.2h-22.7L553.2,593.4L553.2,593.4z"/>
	<path d="M590.7,593.2h8l12.7,30.1h-8.9l-2.2-5.3h-11.5l-2.1,5.3H578L590.7,593.2z M597.9,611.5l-3.3-8.5l-3.4,8.5H597.9z"/>
	<path d="M615.1,593.4h7.7l12.3,15.8v-15.8h8.2v29.8H636l-12.7-16.4v16.4h-8.2V593.4z"/>
	<path d="M649.4,593.4h11.5c10.7,0,16.8,6.1,16.8,14.7v0.1c0,8.6-6.3,15-17,15h-11.3V593.4z M661,616c4.9,0,8.2-2.7,8.2-7.5v-0.1
		c0-4.8-3.3-7.5-8.2-7.5h-3.4V616H661z"/>
</g>
<path class="st0" d="M109.7,278.9c12.8,0,23.2-10.4,23.2-23.2v-49.8h40.2l66.2,66.2c4.5,4.5,10.5,6.8,16.4,6.8s11.9-2.3,16.4-6.8
	c9.1-9.1,9.1-23.7,0-32.8l-56.6-56.6l56.6-56.6c9.1-9.1,9.1-23.7,0-32.8s-23.7-9.1-32.8,0l-66.2,66.2h-40.2v-49.8
	c0-12.8-10.4-23.2-23.2-23.2s-23.2,10.4-23.2,23.2v146C86.6,268.5,96.9,278.9,109.7,278.9z"/>
<path class="st0" d="M465.2,278.9c12.8,0,23.2-10.4,23.2-23.2v-49.8H588v49.8c0,12.8,10.4,23.2,23.2,23.2s23.2-10.4,23.2-23.2v-146
	c0-12.8-10.4-23.2-23.2-23.2h-146c-12.8,0-23.2,10.4-23.2,23.2v146C442,268.5,452.4,278.9,465.2,278.9z M588,132.9v26.6h-99.6v-26.6
	H588z"/>
<path class="st0" d="M109.7,634.4c12.8,0,23.2-10.4,23.2-23.2v-49.8h122.8c12.8,0,23.2-10.4,23.2-23.2S268.5,515,255.7,515H132.9
	v-26.6h122.8c12.8,0,23.2-10.4,23.2-23.2c0-12.8-10.4-23.2-23.2-23.2h-146c-12.8,0-23.2,10.4-23.2,23.2v146
	C86.6,624,96.9,634.4,109.7,634.4z"/>
</svg>
