<?xml version="1.0" encoding="utf-8"?>
<!-- Generator: Adobe Illustrator 24.0.0, SVG Export Plug-In . SVG Version: 6.00 Build 0)  -->
<svg version="1.1" id="Laag_1" xmlns="http://www.w3.org/2000/svg" xmlns:xlink="http://www.w3.org/1999/xlink" x="0px" y="0px"
	 width="147.4px" height="16.6px" viewBox="0 0 147.4 16.6" style="enable-background:new 0 0 147.4 16.6;" xml:space="preserve">
<style type="text/css">
	.st0{fill:#FFFFFF;}
</style>
<g>
	<path class="st0" d="M10.7,6.4c0,0.9-0.4,1.5-1.2,1.9c0.9,0.4,1.4,1,1.4,1.9c0,1.7-1.6,2.5-3.2,2.5c-1.3,0-2.3-0.4-3-1.2l1.1-1.3
		C6.2,10.7,6.8,11,7.5,11c0.7,0,1.3-0.3,1.3-0.9c0-0.6-0.7-0.9-1.5-0.9H6.4V7.4h1c0.7,0,1.3-0.3,1.3-0.9c0-0.6-0.5-0.8-1.2-0.8
		c-0.8,0-1.3,0.4-1.7,0.8L4.7,5.3C5.3,4.5,6.2,4,7.6,4C9.4,4,10.7,5,10.7,6.4z"/>
	<path class="st0" d="M20.9,9.6c0,1.8-1.4,3.1-3.2,3.1s-3.2-1.3-3.2-3.1c0-1.8,1.3-3.1,3.2-3.1S20.9,7.8,20.9,9.6z M16.4,9.6
		c0,0.8,0.5,1.3,1.3,1.3c0.7,0,1.3-0.6,1.3-1.3s-0.5-1.3-1.3-1.3C16.9,8.2,16.4,8.8,16.4,9.6z"/>
	<path class="st0" d="M24.2,8.6l1.4-1.9h2.3l-2.2,2.8l2.2,3.1h-2.3l-1.5-2.3h-0.4v2.3h-1.9V3.9h1.9v4.7H24.2z"/>
	<path class="st0" d="M31,8.3V10c0,0.7,0.4,0.9,0.8,0.9c0.4,0,0.7-0.2,1-0.4l0.6,1.5c-0.6,0.4-1.1,0.7-2.1,0.7
		c-1.6,0-2.3-0.9-2.3-2.4v-2H28V6.7h1.1V4.9H31v1.7h2v1.7H31z"/>
	<path class="st0" d="M40.2,9.6c0,1.8-1.4,3.1-3.2,3.1s-3.2-1.3-3.2-3.1c0-1.8,1.3-3.1,3.2-3.1S40.2,7.8,40.2,9.6z M35.7,9.6
		c0,0.8,0.5,1.3,1.3,1.3c0.7,0,1.3-0.6,1.3-1.3S37.7,8.2,37,8.2C36.3,8.2,35.7,8.8,35.7,9.6z"/>
	<path class="st0" d="M47.4,9.6c0,1.7-1.2,3.1-2.7,3.1c-0.8,0-1.3-0.3-1.7-0.8v0.6h-1.8V3.9h1.9v3.3c0.4-0.4,0.9-0.7,1.6-0.7
		C46.3,6.5,47.4,7.9,47.4,9.6z M43,9.6c0,0.8,0.5,1.3,1.3,1.3c0.8,0,1.3-0.6,1.3-1.3S45,8.2,44.2,8.2C43.5,8.2,43,8.8,43,9.6z"/>
	<path class="st0" d="M54.1,9.6c0,0.2,0,0.5,0,0.6h-4c0.2,0.6,0.6,0.9,1.3,0.9c0.4,0,0.9-0.2,1.3-0.5l1.2,1.1c-0.6,0.6-1.5,1-2.6,1
		c-1.8,0-3.1-1.2-3.1-3.1c0-1.8,1.2-3.1,3-3.1C52.9,6.5,54.1,7.8,54.1,9.6z M50.1,9h2.1c-0.1-0.6-0.5-0.9-1.1-0.9
		C50.6,8.1,50.2,8.4,50.1,9z"/>
	<path class="st0" d="M59.2,6.6L59,8.5c-0.3-0.1-0.6-0.2-0.9-0.2c-0.7,0-1.1,0.3-1.1,1.1v3.2h-1.9V6.7h1.8v0.7
		c0.3-0.6,0.9-0.8,1.6-0.8C58.8,6.5,59,6.5,59.2,6.6z"/>
	<path class="st0" d="M62.6,10.2V8.6h3.6v1.6H62.6z"/>
	<path class="st0" d="M72.9,4c1.8,0,2.9,1.1,2.9,2.7c0,1-0.4,1.6-1.3,2.5L73,10.7h3v1.8h-5.7V11l2.9-2.8c0.4-0.4,0.6-0.8,0.6-1.3
		c0-0.6-0.5-1-1.1-1c-0.8,0-1.3,0.4-1.7,0.9l-1.2-1.3C70.4,4.8,71.3,4,72.9,4z"/>
	<path class="st0" d="M80,9.7c-1.9,0-3-1.2-3-2.8C77,5.2,78.4,4,80.2,4c1.9,0,3.3,1.2,3.3,2.9c0,0.8-0.3,1.5-0.8,2.3l-2.2,3.3h-2.3
		l2-2.8H80z M81.5,6.9c0-0.7-0.5-1.2-1.2-1.2c-0.7,0-1.2,0.5-1.2,1.2c0,0.7,0.5,1.2,1.2,1.2C80.9,8.1,81.5,7.6,81.5,6.9z"/>
	<path class="st0" d="M92.8,8.7v3.9h-1.9V9.3c0-0.7-0.3-1.1-0.9-1.1c-0.5,0-1,0.3-1,1.1v3.2h-1.9V6.7H89v0.7c0.4-0.6,1-0.9,1.8-0.9
		C91.9,6.5,92.8,7.3,92.8,8.7z"/>
	<path class="st0" d="M100.1,9.6c0,1.8-1.4,3.1-3.2,3.1s-3.2-1.3-3.2-3.1c0-1.8,1.3-3.1,3.2-3.1S100.1,7.8,100.1,9.6z M95.7,9.6
		c0,0.8,0.5,1.3,1.3,1.3c0.7,0,1.3-0.6,1.3-1.3s-0.5-1.3-1.3-1.3C96.2,8.2,95.7,8.8,95.7,9.6z"/>
	<path class="st0" d="M102.6,12.5l-2.3-5.9h2l1.3,3.8l1.3-3.8h2l-2.2,5.9H102.6z"/>
	<path class="st0" d="M113.1,9.6c0,0.2,0,0.5,0,0.6h-4c0.2,0.6,0.6,0.9,1.3,0.9c0.4,0,0.9-0.2,1.3-0.5l1.2,1.1c-0.6,0.6-1.5,1-2.6,1
		c-1.8,0-3.1-1.2-3.1-3.1c0-1.8,1.2-3.1,3-3.1C111.9,6.5,113.1,7.8,113.1,9.6z M109.1,9h2.1c-0.2-0.6-0.5-0.9-1.1-0.9
		C109.6,8.1,109.2,8.4,109.1,9z"/>
	<path class="st0" d="M123.5,8.7v3.9h-1.9V9.3c0-0.7-0.3-1.1-0.9-1.1c-0.5,0-1,0.3-1,1.1v3.2h-1.9V9.3c0-0.7-0.3-1.1-0.9-1.1
		c-0.5,0-1,0.3-1,1.1v3.2h-1.9V6.7h1.8v0.7c0.4-0.6,1-0.9,1.8-0.9c0.8,0,1.4,0.4,1.8,1c0.4-0.7,1-1,1.9-1
		C122.7,6.5,123.5,7.3,123.5,8.7z"/>
	<path class="st0" d="M131,9.6c0,1.7-1.2,3.1-2.7,3.1c-0.8,0-1.3-0.3-1.7-0.8v0.6h-1.8V3.9h1.9v3.3c0.4-0.4,0.9-0.7,1.6-0.7
		C129.9,6.5,131,7.9,131,9.6z M126.6,9.6c0,0.8,0.5,1.3,1.3,1.3c0.8,0,1.3-0.6,1.3-1.3s-0.5-1.3-1.3-1.3
		C127.1,8.2,126.6,8.8,126.6,9.6z"/>
	<path class="st0" d="M137.7,9.6c0,0.2,0,0.5,0,0.6h-4c0.2,0.6,0.6,0.9,1.3,0.9c0.4,0,0.9-0.2,1.3-0.5l1.2,1.1c-0.6,0.6-1.5,1-2.6,1
		c-1.8,0-3.1-1.2-3.1-3.1c0-1.8,1.2-3.1,3-3.1C136.5,6.5,137.7,7.8,137.7,9.6z M133.7,9h2.1c-0.2-0.6-0.5-0.9-1.1-0.9
		C134.2,8.1,133.8,8.4,133.7,9z"/>
	<path class="st0" d="M142.8,6.6l-0.2,1.9c-0.3-0.1-0.6-0.2-0.9-0.2c-0.7,0-1.1,0.3-1.1,1.1v3.2h-1.9V6.7h1.8v0.7
		c0.3-0.6,0.9-0.8,1.6-0.8C142.4,6.5,142.6,6.5,142.8,6.6z"/>
</g>
</svg>
