<?xml version="1.0" encoding="utf-8"?>
<!-- Generator: Adobe Illustrator 24.3.0, SVG Export Plug-In . SVG Version: 6.00 Build 0)  -->
<svg version="1.1" id="Laag_1" xmlns="http://www.w3.org/2000/svg" xmlns:xlink="http://www.w3.org/1999/xlink" x="0px" y="0px"
	 width="582.9px" height="518.3px" viewBox="0 0 582.9 518.3" style="enable-background:new 0 0 582.9 518.3;" xml:space="preserve"
	>
<style type="text/css">
	.st0{fill:#FFFFFF;}
</style>
<path class="st0" d="M4.6,0.8h18.5l29.4,37.8V0.8h19.6v71.5H54.9L24.2,33.1v39.2H4.6V0.8z"/>
<path class="st0" d="M81.6,45v-0.2c0-15.7,12.9-28.9,30.6-28.9c17.7,0,30.5,13,30.5,28.7v0.2c0,15.7-12.9,28.9-30.7,28.9
	C94.3,73.7,81.6,60.7,81.6,45z M123.8,45v-0.2c0-6.8-5-12.6-11.9-12.6c-7.1,0-11.5,5.6-11.5,12.4v0.2c0,6.7,4.9,12.5,11.8,12.5
	C119.2,57.2,123.8,51.6,123.8,45z"/>
<path class="st0" d="M150.7,17.1h19.4v7.8c3.6-4.6,8.7-9,16.6-9c11.8,0,18.8,7.8,18.8,20.3v36.2h-19.3V42.4c0-6.1-3.2-9.4-7.9-9.4
	c-4.7,0-8.2,3.3-8.2,9.4v29.9h-19.4V17.1z"/>
<path class="st0" d="M3.5,128.6h19.4v7.4c3.8-4.6,8.5-8.6,16.8-8.6c13.2,0,24.5,10.9,24.5,28.6v0.2c0,18-11.3,28.9-24.4,28.9
	c-8.4,0-13.3-3.8-16.9-8v23.1H3.5V128.6z M45.2,156.2V156c0-7.4-5.1-12.6-11.3-12.6c-6.3,0-11.3,5.2-11.3,12.6v0.2
	c0,7.4,5,12.6,11.3,12.6C40.1,168.8,45.2,163.7,45.2,156.2z"/>
<path class="st0" d="M70.4,156.4v-0.2c0-16.1,11.5-28.9,27.9-28.9c19,0,27.8,14,27.8,30.2c0,1.2,0,2.7-0.1,4H89
	c1.5,6,5.9,9.1,12,9.1c4.7,0,8.3-1.7,12.3-5.6l10.7,8.9c-5.3,6.7-13,11.2-23.9,11.2C82.7,185.2,70.4,173.5,70.4,156.4z M108,151.6
	c-0.7-6.1-4.4-10-9.7-10c-5.1,0-8.6,3.9-9.6,10H108z"/>
<path class="st0" d="M134.5,128.6h19.4v11.1c3.2-7.6,8.3-12.5,17.5-12.1v20.4h-1.6c-10.1,0-15.8,5.8-15.8,18.5v17.3h-19.4V128.6z"/>
<path class="st0" d="M175.2,156.4v-0.2c0-18,11.3-28.9,24.4-28.9c8.4,0,13.3,3.8,16.9,8v-26.1h19.4v74.6h-19.4v-7.4
	c-3.8,4.6-8.5,8.6-16.8,8.6C186.5,185.1,175.2,174.1,175.2,156.4z M216.9,156.2V156c0-7.3-5-12.6-11.3-12.6
	c-6.2,0-11.3,5.2-11.3,12.6v0.2c0,7.4,5.1,12.6,11.3,12.6C211.8,168.8,216.9,163.6,216.9,156.2z"/>
<path class="st0" d="M246.4,109.2h20.1v14.3h-20.1V109.2z M246.8,128.6h19.3v55.3h-19.3V128.6z"/>
<path class="st0" d="M274.4,168v-0.2c0-11.5,8.7-17.4,21.7-17.4c5.1,0,10.1,0.9,13.3,2.1v-0.9c0-5.8-3.6-9.1-11-9.1
	c-5.8,0-10.3,1.2-15.3,3.1l-4-13.6c6.2-2.6,12.9-4.3,22.4-4.3c9.9,0,16.7,2.4,21.1,6.7c4.2,4.1,5.9,9.8,5.9,17.6v31.8h-19.1V178
	c-3.9,4.2-9.1,7.1-16.3,7.1C282.4,185.1,274.4,178.9,274.4,168z M309.5,163.8v-2.6c-2-0.8-4.8-1.4-7.7-1.4c-5.6,0-8.9,2.7-8.9,6.8
	v0.2c0,3.8,2.9,6,6.8,6C305.6,172.9,309.5,169.3,309.5,163.8z"/>
<path class="st0" d="M338.2,128.6h19.4v7.6c3.6-4.6,8.7-8.8,16.5-8.8c7.4,0,13,3.3,15.9,9c4.8-5.5,10.4-9,18.5-9
	c11.8,0,18.9,7.4,18.9,20.2v36.3H408v-30c0-6-3-9.3-7.6-9.3c-4.6,0-8,3.3-8,9.3v30h-19.3v-30c0-6-3.1-9.3-7.7-9.3
	c-4.6,0-7.9,3.3-7.9,9.3v30h-19.4V128.6z"/>
<path class="st0" d="M435.3,156.4v-0.2c0-15.7,12.9-28.9,30.6-28.9c17.7,0,30.5,13,30.5,28.7v0.2c0,15.7-12.9,28.9-30.7,28.9
	C448.1,185.2,435.3,172.2,435.3,156.4z M477.5,156.4v-0.2c0-6.8-5-12.6-11.9-12.6c-7.1,0-11.5,5.6-11.5,12.4v0.2
	c0,6.7,4.9,12.5,11.8,12.5C472.9,168.7,477.5,163.1,477.5,156.4z"/>
<path class="st0" d="M502.4,156.4v-0.2c0-15.6,12.1-28.8,29.5-28.8c11.3,0,18.9,4.9,23.6,12.3l-13.1,9.8c-2.8-3.6-5.7-5.8-10.3-5.8
	c-6.3,0-10.9,5.6-10.9,12.4v0.2c0,7.2,4.5,12.6,11,12.6c4.7,0,7.7-2.1,10.6-5.7l13,9.4c-5.1,7.6-12.5,12.7-24.5,12.7
	C514.5,185.2,502.4,172.1,502.4,156.4z"/>
<path class="st0" d="M562.7,109.2h20.1v14.3h-20.1V109.2z M563.2,128.6h19.3v55.3h-19.3V128.6z"/>
<path class="st0" d="M1.5,267.9v-0.2c0-18,11.3-28.9,24.4-28.9c8.4,0,13.3,3.8,16.9,8v-26.1h19.4v74.6H42.7V288
	c-3.8,4.6-8.5,8.6-16.8,8.6C12.8,296.5,1.5,285.6,1.5,267.9z M43.1,267.7v-0.2c0-7.3-5-12.6-11.3-12.6c-6.2,0-11.3,5.2-11.3,12.6
	v0.2c0,7.4,5.1,12.6,11.3,12.6C38.1,280.3,43.1,275.1,43.1,267.7z"/>
<path class="st0" d="M72.7,220.7h20.1V235H72.7V220.7z M73.1,240h19.3v55.3H73.1V240z"/>
<path class="st0" d="M127.4,240h20.4l10.6,32.3l10.7-32.3h20l-22.1,55.7h-17.7L127.4,240z"/>
<path class="st0" d="M195.6,220.7h20.1V235h-20.1V220.7z M196,240h19.3v55.3H196V240z"/>
<path class="st0" d="M222.2,288.3l7.3-11.6c6.3,4.2,13.2,6.3,18.9,6.3c3.4,0,5-1,5-3v-0.2c0-2.2-3.2-3.2-9-4.8
	c-10.9-2.9-19.6-6.5-19.6-17.6v-0.2c0-11.8,9.4-18.3,22.2-18.3c8.1,0,16.5,2.4,22.8,6.4l-6.6,12.3c-5.7-3.3-12-5.2-16.4-5.2
	c-3,0-4.5,1.1-4.5,2.8v0.2c0,2.1,3.3,3.2,9,4.9c10.9,3.1,19.6,6.8,19.6,17.6v0.2c0,12.2-9.1,18.5-22.6,18.5
	C238.9,296.5,229.7,293.8,222.2,288.3z"/>
<path class="st0" d="M281.3,278.2v-22.6h-6.5V240h6.5v-14h19.3v14h12.9v15.5h-12.9v18.8c0,3.9,1.7,5.5,5.3,5.5c2.6,0,5-0.7,7.4-1.8
	v15.1c-3.5,1.9-8.1,3.3-13.5,3.3C288.2,296.4,281.3,291.3,281.3,278.2z"/>
<path class="st0" d="M319.2,279.5v-0.2c0-11.5,8.7-17.4,21.7-17.4c5.1,0,10.1,0.9,13.3,2.1v-0.9c0-5.8-3.6-9.1-11-9.1
	c-5.8,0-10.3,1.2-15.3,3.1l-4-13.6c6.2-2.6,12.9-4.3,22.4-4.3c9.9,0,16.7,2.4,21.1,6.7c4.2,4.1,5.9,9.8,5.9,17.6v31.8h-19.1v-5.8
	c-3.9,4.2-9.1,7.1-16.3,7.1C327.2,296.5,319.2,290.4,319.2,279.5z M354.4,275.3v-2.6c-2-0.8-4.8-1.4-7.7-1.4c-5.6,0-8.9,2.7-8.9,6.8
	v0.2c0,3.8,2.9,6,6.8,6C350.4,284.4,354.4,280.8,354.4,275.3z"/>
<path class="st0" d="M382.4,275.4h20.1v19.9h-20.1V275.4z"/>
<path class="st0" d="M4.6,335.3h33.8c10.9,0,18.5,2.9,23.3,7.7c4.2,4.2,6.3,9.6,6.3,16.7v0.2c0,11-5.8,18.3-14.7,22.1l17.1,24.9
	H47.6l-14.4-21.7h-8.8v21.7H4.6V335.3z M37.6,369.6c6.6,0,10.6-3.3,10.6-8.5v-0.2c0-5.7-4.2-8.6-10.7-8.6H24.4v17.3H37.6z"/>
<path class="st0" d="M73.8,379.4v-0.2c0-16.1,11.5-28.9,27.9-28.9c19,0,27.8,14,27.8,30.2c0,1.2,0,2.7-0.1,4h-37
	c1.5,6,5.9,9.1,12,9.1c4.7,0,8.3-1.7,12.3-5.6l10.7,8.9c-5.3,6.7-13,11.2-23.9,11.2C86.1,408.1,73.8,396.5,73.8,379.4z M111.4,374.6
	c-0.7-6.1-4.4-10-9.7-10c-5.1,0-8.6,3.9-9.6,10H111.4z"/>
<path class="st0" d="M133.8,399.8l7.3-11.6c6.3,4.2,13.2,6.3,18.9,6.3c3.4,0,5-1,5-3v-0.2c0-2.2-3.2-3.2-9-4.8
	c-10.9-2.9-19.6-6.5-19.6-17.6v-0.2c0-11.8,9.4-18.3,22.2-18.3c8.1,0,16.5,2.4,22.8,6.4l-6.6,12.3c-5.7-3.3-12-5.2-16.3-5.2
	c-3,0-4.5,1.1-4.5,2.8v0.2c0,2.1,3.3,3.2,9,4.9c10.9,3.1,19.6,6.8,19.6,17.6v0.2c0,12.2-9.1,18.5-22.6,18.5
	C150.5,408,141.3,405.3,133.8,399.8z"/>
<path class="st0" d="M192.9,389.6v-22.6h-6.5v-15.5h6.5v-14h19.3v14h12.9v15.5h-12.9v18.8c0,3.9,1.7,5.5,5.3,5.5
	c2.6,0,5-0.7,7.4-1.8v15.1c-3.5,1.9-8.1,3.3-13.5,3.3C199.8,407.9,192.9,402.8,192.9,389.6z"/>
<path class="st0" d="M230.9,391v-0.2c0-11.5,8.7-17.4,21.7-17.4c5.1,0,10.1,0.9,13.3,2.1v-0.9c0-5.8-3.6-9.1-11-9.1
	c-5.8,0-10.3,1.2-15.3,3.1l-4-13.6c6.2-2.6,12.9-4.3,22.4-4.3c9.9,0,16.7,2.4,21.1,6.7c4.2,4.1,5.9,9.8,5.9,17.6v31.8h-19.1V401
	c-3.9,4.2-9.1,7.1-16.4,7.1C238.8,408,230.9,401.9,230.9,391z M266,386.8v-2.6c-2-0.8-4.8-1.4-7.7-1.4c-5.6,0-8.9,2.7-8.9,6.8v0.2
	c0,3.8,2.9,6,6.8,6C262,395.9,266,392.3,266,386.8z"/>
<path class="st0" d="M2.3,482.7v-0.2c0-20.8,15.9-37.2,37.6-37.2c14.6,0,24,6.1,30.3,14.8l-14.9,11.5c-4.1-5-8.8-8.4-15.6-8.4
	c-10,0-17.1,8.6-17.1,19v0.2c0,10.7,7.1,19.1,17.1,19.1c7.5,0,11.9-3.5,16.1-8.7l14.9,10.6c-6.7,9.3-15.8,16.1-31.6,16.1
	C18.7,519.7,2.3,504.1,2.3,482.7z"/>
<path class="st0" d="M75.1,490.9v-0.2c0-15.7,12.9-28.9,30.6-28.9c17.7,0,30.5,13,30.5,28.7v0.2c0,15.7-12.9,28.9-30.7,28.9
	C87.9,519.6,75.1,506.6,75.1,490.9z M117.3,490.9v-0.2c0-6.8-5-12.6-11.9-12.6c-7.1,0-11.5,5.6-11.5,12.4v0.2
	c0,6.7,4.9,12.5,11.8,12.5C112.7,503.2,117.3,497.5,117.3,490.9z"/>
<path class="st0" d="M144.3,463h19.4v7.8c3.6-4.6,8.7-9,16.6-9c11.8,0,18.8,7.8,18.8,20.3v36.2h-19.3v-29.9c0-6.1-3.2-9.4-7.9-9.4
	s-8.2,3.3-8.2,9.4v29.9h-19.4V463z"/>
<path class="st0" d="M209.1,463h19.4v7.8c3.6-4.6,8.7-9,16.6-9c11.8,0,18.8,7.8,18.8,20.3v36.2h-19.3v-29.9c0-6.1-3.2-9.4-7.9-9.4
	c-4.7,0-8.2,3.3-8.2,9.4v29.9h-19.4V463z"/>
<path class="st0" d="M271.7,490.9v-0.2c0-16.1,11.5-28.9,27.9-28.9c19,0,27.8,14,27.8,30.2c0,1.2,0,2.7-0.1,4h-37
	c1.5,6,5.9,9.1,12,9.1c4.7,0,8.3-1.7,12.3-5.6l10.7,8.9c-5.3,6.7-13,11.2-23.9,11.2C284,519.6,271.7,508,271.7,490.9z M309.3,486.1
	c-0.7-6.1-4.4-10-9.7-10c-5.1,0-8.6,3.9-9.6,10H309.3z"/>
<path class="st0" d="M331.7,511.2l7.3-11.6c6.3,4.2,13.2,6.3,18.9,6.3c3.4,0,5-1,5-3v-0.2c0-2.2-3.2-3.2-9-4.8
	c-10.9-2.9-19.6-6.5-19.6-17.6v-0.2c0-11.8,9.4-18.3,22.2-18.3c8.1,0,16.5,2.4,22.8,6.4l-6.6,12.3c-5.7-3.3-12-5.2-16.3-5.2
	c-3,0-4.5,1.1-4.5,2.8v0.2c0,2.1,3.3,3.2,9,4.9c10.9,3.1,19.6,6.8,19.6,17.6v0.2c0,12.2-9.1,18.5-22.6,18.5
	C348.5,519.5,339.3,516.8,331.7,511.2z"/>
<path class="st0" d="M383.2,511.2l7.3-11.6c6.3,4.2,13.2,6.3,18.9,6.3c3.4,0,5-1,5-3v-0.2c0-2.2-3.2-3.2-9-4.8
	c-10.9-2.9-19.6-6.5-19.6-17.6v-0.2c0-11.8,9.4-18.3,22.2-18.3c8.1,0,16.5,2.4,22.8,6.4l-6.6,12.3c-5.7-3.3-12-5.2-16.3-5.2
	c-3,0-4.5,1.1-4.5,2.8v0.2c0,2.1,3.3,3.2,9,4.9c10.9,3.1,19.6,6.8,19.6,17.6v0.2c0,12.2-9.1,18.5-22.6,18.5
	C400,519.5,390.8,516.8,383.2,511.2z"/>
<path class="st0" d="M437.7,490.9v-0.2c0-15.7,12.9-28.9,30.6-28.9c17.7,0,30.5,13,30.5,28.7v0.2c0,15.7-12.9,28.9-30.7,28.9
	C450.4,519.6,437.7,506.6,437.7,490.9z M479.9,490.9v-0.2c0-6.8-5-12.6-11.9-12.6c-7.1,0-11.5,5.6-11.5,12.4v0.2
	c0,6.7,4.9,12.5,11.8,12.5C475.3,503.2,479.9,497.5,479.9,490.9z"/>
<path class="st0" d="M504.7,498.4h20.1v19.9h-20.1V498.4z"/>
</svg>
