<?xml version="1.0" encoding="utf-8"?>
<!-- Generator: Adobe Illustrator 24.0.0, SVG Export Plug-In . SVG Version: 6.00 Build 0)  -->
<svg version="1.1" id="Laag_1" xmlns="http://www.w3.org/2000/svg" xmlns:xlink="http://www.w3.org/1999/xlink" x="0px" y="0px"
	 width="124.2px" height="49.8px" viewBox="0 0 124.2 49.8" style="enable-background:new 0 0 124.2 49.8;" xml:space="preserve">
<style type="text/css">
	.st0{fill:#1D1D1B;}
</style>
<g>
	<path class="st0" d="M3.3,7L0.4,8L0,6.4l3.6-1.2h1.6v12.6H3.3V7z"/>
	<path class="st0" d="M8.4,10.7C8.4,4.4,12.1,0,18.6,0L19,1.6c-2.7,0-4.9,0.8-6.4,2.4c-1.1,1.2-1.8,2.8-2,4.8
		c0.9-0.8,2.3-1.4,3.8-1.4c3.2,0,5.2,2.1,5.2,5.2c0,3-2,5.5-5.4,5.5C10,18.1,8.4,14.2,8.4,10.7z M17.5,12.8c0-2.4-1.1-3.8-3.4-3.8
		c-1.7,0-2.9,0.7-3.6,1.3l0,0.7c-0.1,3.2,1.2,5.4,3.8,5.4C16.4,16.4,17.5,14.6,17.5,12.8z"/>
	<path class="st0" d="M21.6,16.4c0-0.9,0.7-1.6,1.6-1.6s1.6,0.7,1.6,1.6c0,0.9-0.7,1.6-1.6,1.6S21.6,17.3,21.6,16.4z"/>
	<path class="st0" d="M26.6,10.7C26.6,4.4,30.4,0,36.8,0l0.4,1.6c-2.7,0-4.9,0.8-6.4,2.4c-1.1,1.2-1.8,2.8-2,4.8
		c0.9-0.8,2.3-1.4,3.8-1.4c3.2,0,5.2,2.1,5.2,5.2c0,3-2,5.5-5.4,5.5C28.3,18.1,26.6,14.2,26.6,10.7z M35.7,12.8
		c0-2.4-1.1-3.8-3.4-3.8c-1.7,0-2.9,0.7-3.6,1.3l0,0.7c-0.1,3.2,1.2,5.4,3.8,5.4C34.6,16.4,35.7,14.6,35.7,12.8z"/>
	<path class="st0" d="M39.8,16.4c0-0.9,0.7-1.6,1.6-1.6s1.6,0.7,1.6,1.6c0,0.9-0.7,1.6-1.6,1.6S39.8,17.3,39.8,16.4z"/>
</g>
<polygon class="st0" points="64.3,8.2 46.8,8.2 45.4,8.2 45.4,9.8 46.8,9.8 64.3,9.8 65.7,9.8 65.7,8.2 "/>
<g>
	<path class="st0" d="M25.2,48l0.3-1.6c0.2,0.1,0.8,0.1,1.6,0.1c2.6,0,4.9-1.3,4.9-3.7c0-2.6-2.1-3.6-5.1-3.6v-1.4
		c1.9,0,4.5-1.4,4.5-3.6c0-1.3-0.9-2.2-2.5-2.2c-1.2,0-2.1,0.5-3.1,1.4l-1-1.3c1-1,2.6-1.8,4.2-1.8c2.9,0,4.4,1.8,4.4,3.7
		c0,2.1-1.9,3.8-3.5,4.2v0c2.1,0.3,4.1,2,4.1,4.4c0,3.5-3.1,5.5-6.6,5.5C26.1,48.1,25.6,48.1,25.2,48z"/>
	<path class="st0" d="M35.8,37c0-3,2-6.6,6.4-6.6s6.4,3.5,6.4,6.6c0,3-2,6.6-6.5,6.6S35.8,39.9,35.8,37z M46.6,37c0-2.7-1.5-5-4.4-5
		c-2.9,0-4.3,2.2-4.3,4.9c0,2.7,1.5,5,4.4,5C45.1,41.9,46.6,39.7,46.6,37z"/>
	<path class="st0" d="M50.4,41.9c0-0.9,0.7-1.6,1.6-1.6s1.6,0.7,1.6,1.6c0,0.9-0.7,1.6-1.6,1.6S50.4,42.7,50.4,41.9z"/>
	<path class="st0" d="M56,39c0-1.8,1.3-3.6,3.6-4.9c-2.3-1.4-3.1-2.8-3.1-4.3c0-2.5,2.3-4.3,4.7-4.3c3.2,0,4.9,1.9,4.9,4.2
		c0,1.6-1.1,3-3.4,4.3c2.6,1.5,3.8,3.1,3.8,4.9c0,2.8-2.2,4.7-5.3,4.7C57.7,43.5,56,41.2,56,39z M64.5,38.8c0-1.3-0.9-2.5-3.5-4
		c-2.1,1.3-3,2.5-3,4c0,1.7,1.3,3,3.3,3C63.4,41.9,64.5,40.5,64.5,38.8z M64.2,29.8c0-1.4-1-2.6-2.8-2.6c-1.7,0-2.9,1.1-2.9,2.6
		c0,1.1,0.7,2.1,2.9,3.3C63.3,31.9,64.2,30.8,64.2,29.8z"/>
	<path class="st0" d="M68.9,41.9c0-0.9,0.7-1.6,1.6-1.6s1.6,0.7,1.6,1.6c0,0.9-0.7,1.6-1.6,1.6S68.9,42.7,68.9,41.9z"/>
	<path class="st0" d="M74,42.5c2-1.7,7.5-5.8,7.5-8.4c0-1.2-0.8-2.1-2.5-2.1c-1,0-2.4,0.5-3.3,1.5l-1.1-1.2c1.1-1.2,3-2,4.5-2
		c2.4,0,4.4,1.1,4.4,3.6c0,2.9-4.3,6.2-6.2,7.8c0.3,0,0.9-0.1,1.4-0.1h6v1.6H74V42.5z"/>
	<path class="st0" d="M85.9,37c0-3,2-6.6,6.4-6.6s6.4,3.5,6.4,6.6c0,3-2,6.6-6.5,6.6S85.9,39.9,85.9,37z M96.7,37c0-2.7-1.5-5-4.4-5
		S88,34.2,88,36.9c0,2.7,1.5,5,4.4,5C95.3,41.9,96.7,39.7,96.7,37z"/>
	<path class="st0" d="M99.4,42.5c2-1.7,7.5-5.8,7.5-8.4c0-1.2-0.8-2.1-2.5-2.1c-1,0-2.4,0.5-3.3,1.5l-1.1-1.2c1.1-1.2,3-2,4.5-2
		c2.4,0,4.4,1.1,4.4,3.6c0,2.9-4.3,6.2-6.2,7.8c0.3,0,0.9-0.1,1.4-0.1h6v1.6H99.4V42.5z"/>
	<path class="st0" d="M111.4,37c0-3,2-6.6,6.4-6.6s6.4,3.5,6.4,6.6c0,3-2,6.6-6.5,6.6S111.4,39.9,111.4,37z M122.1,37
		c0-2.7-1.5-5-4.4-5s-4.3,2.2-4.3,4.9c0,2.7,1.5,5,4.4,5C120.7,41.9,122.1,39.7,122.1,37z"/>
</g>
</svg>
