<?xml version="1.0" encoding="utf-8"?>
<!-- Generator: Adobe Illustrator 24.3.0, SVG Export Plug-In . SVG Version: 6.00 Build 0)  -->
<svg version="1.1" id="Laag_1" xmlns="http://www.w3.org/2000/svg" xmlns:xlink="http://www.w3.org/1999/xlink" x="0px" y="0px"
	 width="108.3px" height="19.6px" viewBox="0 0 108.3 19.6" style="enable-background:new 0 0 108.3 19.6;" xml:space="preserve">
<style type="text/css">
	.st0{fill:#ED205C;}
</style>
<g>
	<path class="st0" d="M5.2,0.1h1L3.7,7.3H2.4L0,0.1h1l2,6.1h0.1L5.2,0.1z"/>
	<path class="st0" d="M10.3,6c0,0.2,0,0.3,0.1,0.4c0.1,0.1,0.2,0.1,0.4,0.1v0.7h-0.2c-0.5,0-0.9-0.2-1-0.7C9.4,6.8,9.2,7,8.9,7.1
		s-0.6,0.2-1,0.2C7.4,7.4,7,7.2,6.7,7C6.3,6.7,6.2,6.4,6.2,5.9c0-0.5,0.2-0.9,0.6-1.2c0.4-0.3,1-0.4,1.7-0.5l1-0.1V4
		c0-0.4-0.1-0.7-0.3-0.9C9,2.9,8.7,2.8,8.4,2.8C8,2.8,7.8,2.9,7.6,3.1C7.4,3.3,7.3,3.5,7.3,3.8H6.4c0-0.5,0.2-0.9,0.6-1.2
		c0.4-0.3,0.8-0.5,1.4-0.5c0.6,0,1.1,0.2,1.4,0.5c0.4,0.4,0.5,0.9,0.5,1.5V6z M8,6.6c0.4,0,0.7-0.1,1-0.4c0.3-0.2,0.4-0.6,0.4-1V4.8
		L8.6,4.9C8.1,4.9,7.7,5,7.5,5.2C7.2,5.4,7.1,5.6,7.1,5.9c0,0.2,0.1,0.4,0.3,0.5C7.5,6.6,7.7,6.6,8,6.6z"/>
	<path class="st0" d="M14.3,2.1c0.5,0,1,0.2,1.4,0.6C16,3,16.1,3.5,16.1,4.2v3h-0.9V4.4c0-0.5-0.1-0.9-0.3-1.1
		c-0.2-0.3-0.5-0.4-0.9-0.4c-0.3,0-0.6,0.1-0.9,0.4c-0.2,0.2-0.4,0.6-0.4,1.1v2.9h-0.9V2.2h0.7l0.1,0.6h0.1
		C13,2.3,13.5,2.1,14.3,2.1z"/>
	<path class="st0" d="M21.4,6c0,0.2,0,0.3,0.1,0.4c0.1,0.1,0.2,0.1,0.4,0.1v0.7h-0.2c-0.5,0-0.9-0.2-1-0.7c-0.2,0.2-0.4,0.4-0.8,0.6
		s-0.6,0.2-1,0.2c-0.5,0-0.9-0.1-1.2-0.4c-0.3-0.2-0.5-0.6-0.5-1.1c0-0.5,0.2-0.9,0.6-1.2c0.4-0.3,1-0.4,1.7-0.5l1-0.1V4
		c0-0.4-0.1-0.7-0.3-0.9c-0.2-0.2-0.4-0.3-0.8-0.3c-0.3,0-0.6,0.1-0.8,0.3c-0.2,0.2-0.3,0.4-0.3,0.7h-0.9c0-0.5,0.2-0.9,0.6-1.2
		c0.4-0.3,0.8-0.5,1.4-0.5c0.6,0,1.1,0.2,1.4,0.5c0.4,0.4,0.5,0.9,0.5,1.5V6z M19,6.6c0.4,0,0.7-0.1,1-0.4c0.3-0.2,0.4-0.6,0.4-1
		V4.8l-0.8,0.1c-0.5,0-0.9,0.1-1.1,0.3c-0.3,0.2-0.4,0.4-0.4,0.7c0,0.2,0.1,0.4,0.3,0.5C18.5,6.6,18.8,6.6,19,6.6z"/>
	<path class="st0" d="M24.1,1.5v0.6h1.3v0.7h-1.3v4.4h-0.9V2.9h-0.9V2.2h0.9V1.4c0-0.4,0.1-0.8,0.4-1c0.2-0.2,0.6-0.4,1-0.4
		c0.4,0,0.8,0.1,1,0.4l-0.3,0.7c-0.2-0.2-0.4-0.3-0.6-0.3c-0.2,0-0.3,0.1-0.4,0.2S24.1,1.3,24.1,1.5z"/>
	<path class="st0" d="M30.2,7.3V2.5h-1.3V1.8h0.6c0.5,0,0.8-0.2,0.8-0.7V0.7h0.8v6.5H30.2z"/>
	<path class="st0" d="M38.9,5.9c0,0.4-0.2,0.8-0.5,1c-0.3,0.3-0.8,0.4-1.3,0.4c-0.6,0-1.1-0.2-1.5-0.5c-0.4-0.3-0.5-0.7-0.6-1.3h0.9
		c0,0.3,0.1,0.6,0.4,0.8s0.5,0.3,0.8,0.3c0.3,0,0.5-0.1,0.7-0.2C37.9,6.3,38,6.2,38,5.9c0-0.2-0.1-0.4-0.3-0.6
		c-0.2-0.1-0.5-0.3-0.9-0.4c-0.2-0.1-0.4-0.1-0.6-0.2s-0.3-0.2-0.5-0.3c-0.2-0.1-0.3-0.3-0.4-0.4c-0.1-0.2-0.1-0.4-0.1-0.6
		c0-0.4,0.2-0.8,0.5-1c0.3-0.3,0.8-0.4,1.3-0.4c0.5,0,1,0.1,1.3,0.4s0.5,0.7,0.5,1.1H38c0-0.2-0.1-0.4-0.3-0.6
		c-0.2-0.1-0.4-0.2-0.7-0.2c-0.2,0-0.4,0.1-0.6,0.2s-0.2,0.3-0.2,0.5c0,0.2,0.1,0.4,0.3,0.5s0.5,0.3,0.8,0.4c0.5,0.2,1,0.4,1.3,0.6
		C38.8,5.2,38.9,5.5,38.9,5.9z"/>
	<path class="st0" d="M42.2,2.1c0.7,0,1.3,0.2,1.7,0.7c0.4,0.5,0.6,1.2,0.6,2.1h-3.9c0,0.5,0.2,0.9,0.5,1.2c0.3,0.3,0.7,0.5,1.2,0.5
		c0.3,0,0.6-0.1,0.8-0.2c0.2-0.1,0.4-0.3,0.5-0.6h0.9c-0.1,0.5-0.4,0.9-0.8,1.2c-0.4,0.3-0.9,0.4-1.4,0.4c-0.8,0-1.4-0.2-1.8-0.7
		c-0.5-0.5-0.7-1.1-0.7-2c0-0.8,0.2-1.4,0.7-1.9C40.9,2.3,41.5,2.1,42.2,2.1z M40.7,4.2h3c0-0.4-0.1-0.7-0.4-1
		c-0.3-0.3-0.6-0.4-1-0.4c-0.4,0-0.8,0.1-1,0.4C40.9,3.4,40.7,3.8,40.7,4.2z"/>
	<path class="st0" d="M48.1,2.1c0.7,0,1.2,0.2,1.7,0.7c0.4,0.5,0.7,1.1,0.7,1.9s-0.2,1.4-0.7,1.9s-1,0.7-1.7,0.7
		c-0.8,0-1.3-0.3-1.6-0.8v2.8h-0.9V2.2h0.7l0.2,0.7h0.1C46.9,2.3,47.4,2.1,48.1,2.1z M48,6.5c0.5,0,0.8-0.2,1.1-0.5s0.4-0.8,0.4-1.3
		c0-0.5-0.1-1-0.4-1.3S48.5,2.9,48,2.9S47.2,3,46.9,3.4c-0.3,0.3-0.4,0.8-0.4,1.3c0,0.5,0.1,1,0.4,1.3C47.2,6.4,47.6,6.5,48,6.5z"/>
	<path class="st0" d="M54.1,7.1c-0.2,0.2-0.5,0.2-0.8,0.2C52.4,7.4,52,6.9,52,6V2.9h-1V2.2h0.3c0.5,0,0.8-0.2,0.8-0.7V0.9h0.8v1.3
		h1.2v0.7h-1.2v3c0,0.4,0.2,0.6,0.5,0.6c0.2,0,0.3,0,0.4-0.1L54.1,7.1z"/>
	<path class="st0" d="M57.1,2.1c0.7,0,1.3,0.2,1.7,0.7c0.4,0.5,0.6,1.2,0.6,2.1h-3.9c0,0.5,0.2,0.9,0.5,1.2c0.3,0.3,0.7,0.5,1.2,0.5
		c0.3,0,0.6-0.1,0.8-0.2c0.2-0.1,0.4-0.3,0.5-0.6h0.9c-0.1,0.5-0.4,0.9-0.8,1.2c-0.4,0.3-0.9,0.4-1.4,0.4c-0.8,0-1.4-0.2-1.8-0.7
		c-0.5-0.5-0.7-1.1-0.7-2c0-0.8,0.2-1.4,0.7-1.9C55.8,2.3,56.4,2.1,57.1,2.1z M55.5,4.2h3c0-0.4-0.1-0.7-0.4-1
		c-0.3-0.3-0.6-0.4-1-0.4c-0.4,0-0.8,0.1-1,0.4S55.6,3.8,55.5,4.2z"/>
	<path class="st0" d="M65.9,2.1c0.5,0,1,0.2,1.3,0.5s0.5,0.9,0.5,1.6v3.1h-0.9V4.2c0-0.4-0.1-0.8-0.3-1C66.2,3,66,2.9,65.7,2.9
		c-0.3,0-0.6,0.1-0.8,0.4c-0.2,0.2-0.3,0.6-0.3,1v3h-0.9v-3c0-0.4-0.1-0.8-0.3-1c-0.2-0.2-0.5-0.4-0.8-0.4c-0.3,0-0.6,0.1-0.8,0.3
		s-0.3,0.6-0.3,1v3h-0.9V2.2h0.7l0.1,0.6h0.1c0.1-0.2,0.3-0.4,0.6-0.5c0.2-0.1,0.5-0.2,0.9-0.2c0.4,0,0.7,0.1,0.9,0.3
		C64,2.5,64.2,2.8,64.3,3h0.1c0.1-0.3,0.3-0.5,0.6-0.7S65.5,2.1,65.9,2.1z"/>
	<path class="st0" d="M71.5,2.1c0.7,0,1.2,0.2,1.7,0.7c0.4,0.5,0.7,1.1,0.7,1.9s-0.2,1.4-0.7,1.9s-1,0.7-1.7,0.7
		c-0.7,0-1.2-0.3-1.6-0.8h-0.1l-0.2,0.7H69V0h0.9v2.9C70.2,2.3,70.7,2.1,71.5,2.1z M70.3,6c0.3,0.3,0.6,0.5,1.1,0.5s0.8-0.2,1.1-0.5
		s0.4-0.8,0.4-1.3c0-0.5-0.1-1-0.4-1.3c-0.3-0.3-0.7-0.5-1.1-0.5c-0.5,0-0.8,0.2-1.1,0.5c-0.3,0.3-0.4,0.8-0.4,1.3
		C69.9,5.2,70,5.7,70.3,6z"/>
	<path class="st0" d="M77.1,2.1c0.7,0,1.3,0.2,1.7,0.7s0.6,1.2,0.6,2.1h-3.9c0,0.5,0.2,0.9,0.5,1.2c0.3,0.3,0.7,0.5,1.2,0.5
		c0.3,0,0.6-0.1,0.8-0.2c0.2-0.1,0.4-0.3,0.5-0.6h0.9c-0.1,0.5-0.4,0.9-0.8,1.2s-0.9,0.4-1.4,0.4c-0.8,0-1.4-0.2-1.8-0.7
		c-0.5-0.5-0.7-1.1-0.7-2c0-0.8,0.2-1.4,0.7-1.9C75.8,2.3,76.4,2.1,77.1,2.1z M75.6,4.2h3c0-0.4-0.1-0.7-0.4-1
		c-0.3-0.3-0.6-0.4-1-0.4c-0.4,0-0.8,0.1-1,0.4S75.6,3.8,75.6,4.2z"/>
	<path class="st0" d="M82.9,2.1h0.3V3c-0.1,0-0.2,0-0.4,0c-0.4,0-0.7,0.1-1,0.4c-0.3,0.3-0.4,0.7-0.4,1.3v2.6h-0.9V2.2h0.7l0.1,0.7
		h0.1C81.8,2.3,82.3,2.1,82.9,2.1z"/>
	<path class="st0" d="M92.6,2.2h0.9l-1.2,5.1h-1.2l-1-3.8H90l-1,3.8h-1.1l-1.2-5.1h0.9l0.9,4.2h0.1l1-3.8h1.1l1,3.8h0.1L92.6,2.2z"
		/>
	<path class="st0" d="M96.5,2.1c0.7,0,1.3,0.2,1.7,0.7s0.6,1.2,0.6,2.1H95c0,0.5,0.2,0.9,0.5,1.2c0.3,0.3,0.7,0.5,1.2,0.5
		c0.3,0,0.6-0.1,0.8-0.2c0.2-0.1,0.4-0.3,0.5-0.6h0.9c-0.1,0.5-0.4,0.9-0.8,1.2s-0.9,0.4-1.4,0.4c-0.8,0-1.4-0.2-1.8-0.7
		c-0.5-0.5-0.7-1.1-0.7-2c0-0.8,0.2-1.4,0.7-1.9C95.2,2.3,95.8,2.1,96.5,2.1z M95,4.2h3c0-0.4-0.1-0.7-0.4-1c-0.3-0.3-0.6-0.4-1-0.4
		c-0.4,0-0.8,0.1-1,0.4S95.1,3.8,95,4.2z"/>
	<path class="st0" d="M102.1,2.1c0.7,0,1.3,0.2,1.7,0.7s0.6,1.2,0.6,2.1h-3.9c0,0.5,0.2,0.9,0.5,1.2c0.3,0.3,0.7,0.5,1.2,0.5
		c0.3,0,0.6-0.1,0.8-0.2c0.2-0.1,0.4-0.3,0.5-0.6h0.9c-0.1,0.5-0.4,0.9-0.8,1.2s-0.9,0.4-1.4,0.4c-0.8,0-1.4-0.2-1.8-0.7
		c-0.5-0.5-0.7-1.1-0.7-2c0-0.8,0.2-1.4,0.7-1.9C100.8,2.3,101.4,2.1,102.1,2.1z M100.6,4.2h3c0-0.4-0.1-0.7-0.4-1
		c-0.3-0.3-0.6-0.4-1-0.4c-0.4,0-0.8,0.1-1,0.4S100.6,3.8,100.6,4.2z"/>
	<path class="st0" d="M107.9,2.1h0.3V3c-0.1,0-0.2,0-0.4,0c-0.4,0-0.7,0.1-1,0.4c-0.3,0.3-0.4,0.7-0.4,1.3v2.6h-0.9V2.2h0.7l0.1,0.7
		h0.1C106.8,2.3,107.3,2.1,107.9,2.1z"/>
	<path class="st0" d="M22,14.3c0.5,0,1,0.2,1.4,0.6c0.4,0.4,0.5,0.9,0.5,1.6v3h-0.9v-2.9c0-0.5-0.1-0.9-0.3-1.1
		c-0.2-0.3-0.5-0.4-0.9-0.4c-0.3,0-0.6,0.1-0.9,0.4c-0.2,0.2-0.4,0.6-0.4,1.1v2.9h-0.9v-5.1h0.7l0.1,0.6h0.1
		C20.8,14.5,21.3,14.3,22,14.3z"/>
	<path class="st0" d="M29.1,18.2c0,0.2,0,0.3,0.1,0.4c0.1,0.1,0.2,0.1,0.4,0.1v0.7h-0.2c-0.5,0-0.9-0.2-1-0.7
		c-0.2,0.2-0.4,0.4-0.8,0.6s-0.6,0.2-1,0.2c-0.5,0-0.9-0.1-1.2-0.4C25.1,19,25,18.6,25,18.2c0-0.5,0.2-0.9,0.6-1.2
		c0.4-0.3,1-0.4,1.7-0.5l1-0.1v-0.1c0-0.4-0.1-0.7-0.3-0.9c-0.2-0.2-0.4-0.3-0.8-0.3c-0.3,0-0.6,0.1-0.8,0.3
		c-0.2,0.2-0.3,0.4-0.3,0.7h-0.9c0-0.5,0.2-0.9,0.6-1.2c0.4-0.3,0.8-0.5,1.4-0.5c0.6,0,1.1,0.2,1.4,0.5c0.4,0.4,0.5,0.9,0.5,1.5
		V18.2z M26.8,18.8c0.4,0,0.7-0.1,1-0.4c0.3-0.2,0.4-0.6,0.4-1v-0.4l-0.8,0.1c-0.5,0-0.9,0.1-1.1,0.3c-0.3,0.2-0.4,0.4-0.4,0.7
		c0,0.2,0.1,0.4,0.3,0.5C26.3,18.8,26.5,18.8,26.8,18.8z"/>
	<path class="st0" d="M34.4,18.2c0,0.2,0,0.3,0.1,0.4c0.1,0.1,0.2,0.1,0.4,0.1v0.7h-0.2c-0.5,0-0.9-0.2-1-0.7
		c-0.2,0.2-0.4,0.4-0.8,0.6s-0.6,0.2-1,0.2c-0.5,0-0.9-0.1-1.2-0.4c-0.3-0.2-0.5-0.6-0.5-1.1c0-0.5,0.2-0.9,0.6-1.2
		c0.4-0.3,1-0.4,1.7-0.5l1-0.1v-0.1c0-0.4-0.1-0.7-0.3-0.9c-0.2-0.2-0.4-0.3-0.8-0.3c-0.3,0-0.6,0.1-0.8,0.3
		c-0.2,0.2-0.3,0.4-0.3,0.7h-0.9c0-0.5,0.2-0.9,0.6-1.2c0.4-0.3,0.8-0.5,1.4-0.5c0.6,0,1.1,0.2,1.4,0.5c0.4,0.4,0.5,0.9,0.5,1.5
		V18.2z M32.1,18.8c0.4,0,0.7-0.1,1-0.4c0.3-0.2,0.4-0.6,0.4-1v-0.4l-0.8,0.1c-0.5,0-0.9,0.1-1.1,0.3c-0.3,0.2-0.4,0.4-0.4,0.7
		c0,0.2,0.1,0.4,0.3,0.5C31.6,18.8,31.8,18.8,32.1,18.8z"/>
	<path class="st0" d="M38.3,14.3h0.3v0.9c-0.1,0-0.2,0-0.4,0c-0.4,0-0.7,0.1-1,0.4c-0.3,0.3-0.4,0.7-0.4,1.3v2.6h-0.9v-5.1h0.7
		l0.1,0.7h0.1C37.2,14.6,37.7,14.3,38.3,14.3z"/>
	<path class="st0" d="M44.9,14.3c0.6,0,1.1,0.2,1.4,0.6s0.5,0.9,0.5,1.6v3.1h-0.9v-2.8c0-0.5-0.1-0.9-0.3-1.2s-0.6-0.4-1-0.4
		c-0.4,0-0.7,0.1-0.9,0.4c-0.3,0.3-0.4,0.6-0.4,1.1v2.9h-0.9v-7.2h0.9V15h0.1c0.1-0.2,0.4-0.4,0.6-0.5
		C44.3,14.4,44.6,14.3,44.9,14.3z"/>
	<path class="st0" d="M50.3,14.3c0.7,0,1.3,0.2,1.7,0.7c0.4,0.5,0.6,1.2,0.6,2.1h-3.9c0,0.5,0.2,0.9,0.5,1.2
		c0.3,0.3,0.7,0.5,1.2,0.5c0.3,0,0.6-0.1,0.8-0.2c0.2-0.1,0.4-0.3,0.5-0.6h0.9c-0.1,0.5-0.4,0.9-0.8,1.2c-0.4,0.3-0.9,0.4-1.4,0.4
		c-0.8,0-1.4-0.2-1.8-0.7c-0.5-0.5-0.7-1.1-0.7-2c0-0.8,0.2-1.4,0.7-1.9C49,14.5,49.6,14.3,50.3,14.3z M48.8,16.4h3
		c0-0.4-0.1-0.7-0.4-1c-0.3-0.3-0.6-0.4-1-0.4c-0.4,0-0.8,0.1-1,0.4C49,15.7,48.9,16,48.8,16.4z"/>
	<path class="st0" d="M56.2,19.3c-0.2,0.2-0.5,0.2-0.8,0.2c-0.8,0-1.3-0.5-1.3-1.4v-3.1h-1v-0.7h0.3c0.5,0,0.8-0.2,0.8-0.7v-0.7h0.8
		v1.3h1.2v0.7h-1.2v3c0,0.4,0.2,0.6,0.5,0.6c0.2,0,0.3,0,0.4-0.1L56.2,19.3z"/>
	<path class="st0" d="M62.8,19.3c-0.2,0.2-0.5,0.2-0.8,0.2c-0.8,0-1.3-0.5-1.3-1.4v-3.1h-1v-0.7H60c0.5,0,0.8-0.2,0.8-0.7v-0.7h0.8
		v1.3h1.2v0.7h-1.2v3c0,0.4,0.2,0.6,0.5,0.6c0.2,0,0.3,0,0.4-0.1L62.8,19.3z"/>
	<path class="st0" d="M66.3,14.3c0.6,0,1.1,0.2,1.4,0.6s0.5,0.9,0.5,1.6v3.1h-0.9v-2.8c0-0.5-0.1-0.9-0.3-1.2s-0.6-0.4-1-0.4
		c-0.4,0-0.7,0.1-0.9,0.4c-0.3,0.3-0.4,0.6-0.4,1.1v2.9h-0.9v-7.2h0.9V15h0.1c0.1-0.2,0.4-0.4,0.6-0.5
		C65.6,14.4,65.9,14.3,66.3,14.3z"/>
	<path class="st0" d="M71.6,14.3c0.7,0,1.3,0.2,1.7,0.7s0.6,1.2,0.6,2.1h-3.9c0,0.5,0.2,0.9,0.5,1.2c0.3,0.3,0.7,0.5,1.2,0.5
		c0.3,0,0.6-0.1,0.8-0.2c0.2-0.1,0.4-0.3,0.5-0.6H74c-0.1,0.5-0.4,0.9-0.8,1.2s-0.9,0.4-1.4,0.4c-0.8,0-1.4-0.2-1.8-0.7
		c-0.5-0.5-0.7-1.1-0.7-2c0-0.8,0.2-1.4,0.7-1.9C70.4,14.5,70.9,14.3,71.6,14.3z M70.1,16.4h3c0-0.4-0.1-0.7-0.4-1
		c-0.3-0.3-0.6-0.4-1-0.4c-0.4,0-0.8,0.1-1,0.4S70.2,16,70.1,16.4z"/>
	<path class="st0" d="M79,18.2c0,0.2,0,0.3,0.1,0.4c0.1,0.1,0.2,0.1,0.4,0.1v0.7h-0.2c-0.5,0-0.9-0.2-1-0.7
		c-0.2,0.2-0.5,0.4-0.8,0.6c-0.3,0.1-0.6,0.2-1,0.2c-0.5,0-0.9-0.1-1.2-0.4c-0.3-0.2-0.5-0.6-0.5-1.1c0-0.5,0.2-0.9,0.6-1.2
		c0.4-0.3,1-0.4,1.7-0.5l1-0.1v-0.1c0-0.4-0.1-0.7-0.3-0.9c-0.2-0.2-0.4-0.3-0.8-0.3c-0.3,0-0.6,0.1-0.8,0.3
		c-0.2,0.2-0.3,0.4-0.3,0.7h-0.9c0-0.5,0.2-0.9,0.6-1.2c0.4-0.3,0.8-0.5,1.4-0.5c0.6,0,1.1,0.2,1.4,0.5s0.5,0.9,0.5,1.5V18.2z
		 M76.7,18.8c0.4,0,0.7-0.1,1-0.4c0.3-0.2,0.4-0.6,0.4-1v-0.4l-0.8,0.1c-0.5,0-0.9,0.1-1.1,0.3c-0.3,0.2-0.4,0.4-0.4,0.7
		c0,0.2,0.1,0.4,0.3,0.5C76.2,18.8,76.4,18.8,76.7,18.8z"/>
	<path class="st0" d="M82.8,19.3c-0.2,0.2-0.5,0.2-0.8,0.2c-0.8,0-1.3-0.5-1.3-1.4v-3.1h-1v-0.7H80c0.5,0,0.8-0.2,0.8-0.7v-0.7h0.8
		v1.3h1.2v0.7h-1.2v3c0,0.4,0.2,0.6,0.5,0.6c0.2,0,0.3,0,0.4-0.1L82.8,19.3z"/>
	<path class="st0" d="M85.8,14.3c0.7,0,1.3,0.2,1.7,0.7s0.6,1.2,0.6,2.1h-3.9c0,0.5,0.2,0.9,0.5,1.2c0.3,0.3,0.7,0.5,1.2,0.5
		c0.3,0,0.6-0.1,0.8-0.2c0.2-0.1,0.4-0.3,0.5-0.6h0.9c-0.1,0.5-0.4,0.9-0.8,1.2s-0.9,0.4-1.4,0.4c-0.8,0-1.4-0.2-1.8-0.7
		c-0.5-0.5-0.7-1.1-0.7-2c0-0.8,0.2-1.4,0.7-1.9C84.5,14.5,85.1,14.3,85.8,14.3z M84.3,16.4h3c0-0.4-0.1-0.7-0.4-1
		c-0.3-0.3-0.6-0.4-1-0.4c-0.4,0-0.8,0.1-1,0.4S84.3,16,84.3,16.4z"/>
	<path class="st0" d="M91.6,14.3H92v0.9c-0.1,0-0.2,0-0.4,0c-0.4,0-0.7,0.1-1,0.4c-0.3,0.3-0.4,0.7-0.4,1.3v2.6h-0.9v-5.1h0.7
		l0.1,0.7h0.1C90.5,14.6,91,14.3,91.6,14.3z"/>
</g>
</svg>
