<?xml version="1.0" encoding="utf-8"?>
<!-- Generator: Adobe Illustrator 23.0.2, SVG Export Plug-In . SVG Version: 6.00 Build 0)  -->
<svg version="1.1" id="Laag_1" xmlns="http://www.w3.org/2000/svg" xmlns:xlink="http://www.w3.org/1999/xlink" x="0px" y="0px"
	 width="85.3px" height="18px" viewBox="0 0 85.3 18" style="enable-background:new 0 0 85.3 18;" xml:space="preserve">
<style type="text/css">
	.st0{fill:#FFFFFF;}
</style>
<g>
	<path class="st0" d="M5.7,5c0,0.5,0,0.7-0.1,1C5.5,6.5,4.8,7.2,3.5,7.2c-0.9,0-1.8-0.3-2-1.2C1.4,5.7,1.4,5.5,1.4,4.9V1.7h1V5
		c0,0.3,0,0.4,0.1,0.6c0.1,0.3,0.4,0.6,1.1,0.6c0.1,0,0.9,0,1.1-0.6c0-0.1,0-0.3,0-0.6V1.7h1V5z"/>
	<path class="st0" d="M6.3,3.3h0.6V1.9h0.9v1.4h0.8v0.6H7.8v1.9c0,0.1,0,0.3,0.1,0.4s0.3,0.1,0.3,0.1c0.1,0,0.3,0,0.4,0v0.8
		c-0.1,0-0.3,0.1-0.7,0.1c-0.8,0-1.1-0.3-1.1-0.9V3.9H6.3V3.3z"/>
	<path class="st0" d="M10,3.3v0.5c0.3-0.6,1-0.6,1.1-0.6h0.1v0.9c-0.2,0-0.9,0-1.1,0.7C10,5.1,10,5.2,10,5.5v1.6H9.1V3.3H10z"/>
	<path class="st0" d="M12.5,5.4c0,0.2,0.2,0.9,1.1,0.9c0.6,0,0.9-0.4,1-0.5l0.8,0.4c-0.3,0.4-0.9,1-1.9,1c-1.1,0-2-0.8-2-2
		c0-1.4,0.9-2,1.9-2c1.5,0,1.9,1.2,1.9,2.2C15.3,5.4,12.5,5.4,12.5,5.4z M14.3,4.7c0-0.2-0.1-0.8-0.9-0.8c-0.8,0-0.9,0.6-0.9,0.8
		H14.3z"/>
	<path class="st0" d="M19.3,6c-0.3,0.8-1,1.2-1.7,1.2c-1.1,0-1.9-0.9-1.9-2c0-1,0.7-2,1.9-2c1,0,1.5,0.7,1.6,1.1l-0.8,0.4
		c0-0.4-0.3-0.7-0.8-0.7c-0.6,0-0.9,0.5-0.9,1.2s0.3,1.2,1,1.2c0.6,0,0.9-0.6,0.9-0.7L19.3,6z"/>
	<path class="st0" d="M22.5,7.1V4.9c0-0.6-0.3-0.8-0.7-0.8c-0.5,0-1,0.4-1,0.9v2.1h-0.9V1.7h0.9v2C21,3.4,21.5,3.2,22,3.2
		c0.8,0,1.4,0.5,1.4,1.3v2.6H22.5z"/>
	<path class="st0" d="M23.8,3.3h0.6V1.9h0.9v1.4h0.8v0.6h-0.8v1.9c0,0.1,0,0.3,0.1,0.4s0.3,0.1,0.3,0.1c0.1,0,0.3,0,0.4,0v0.8
		c-0.1,0-0.3,0.1-0.7,0.1c-0.8,0-1.1-0.3-1.1-0.9V3.9h-0.6V3.3H23.8z"/>
	<path class="st0" d="M27.7,7.2c0,0.6-0.4,0.8-1,0.9V7.7c0.4,0,0.4-0.3,0.4-0.6h-0.5v-1h1v1.1H27.7z"/>
	<path class="st0" d="M29.7,3.3h0.6V1.9h0.9v1.4H32v0.6h-0.8v1.9c0,0.1,0,0.3,0.1,0.4s0.3,0.1,0.3,0.1c0.1,0,0.3,0,0.4,0v0.8
		c-0.1,0-0.3,0.1-0.7,0.1c-0.8,0-1.1-0.3-1.1-0.9V3.9h-0.6V3.3H29.7z"/>
	<path class="st0" d="M35.1,7.1V4.9c0-0.6-0.3-0.8-0.7-0.8c-0.5,0-1,0.4-1,0.9v2.1h-0.9V1.7h0.9v2c0.2-0.2,0.6-0.5,1.2-0.5
		c0.8,0,1.4,0.5,1.4,1.3v2.6H35.1z"/>
	<path class="st0" d="M37.7,5.4c0,0.2,0.2,0.9,1.1,0.9c0.6,0,0.9-0.4,1-0.5l0.8,0.4c-0.3,0.4-0.9,1-1.9,1c-1.1,0-2-0.8-2-2
		c0-1.4,0.9-2,1.9-2c1.5,0,1.9,1.2,1.9,2.2C40.5,5.4,37.7,5.4,37.7,5.4z M39.5,4.7c0-0.2-0.1-0.8-0.9-0.8c-0.8,0-0.9,0.6-0.9,0.8
		H39.5z"/>
	<path class="st0" d="M46.3,7.1l-2.4-3.8c0,0,0.1,3.7,0.1,3.8h-1V1.7h0.9l2.4,3.8c0,0-0.1-3.7-0.1-3.8h1v5.4
		C47.2,7.1,46.3,7.1,46.3,7.1z"/>
	<path class="st0" d="M49,5.4c0,0.2,0.2,0.9,1.1,0.9c0.6,0,0.9-0.4,1-0.5l0.8,0.4c-0.3,0.4-0.9,1-1.9,1c-1.1,0-2-0.8-2-2
		c0-1.4,0.9-2,1.9-2c1.5,0,1.9,1.2,1.9,2.2C51.8,5.4,49,5.4,49,5.4z M50.8,4.7c0-0.2-0.1-0.8-0.9-0.8c-0.8,0-0.9,0.6-0.9,0.8H50.8z"
		/>
	<path class="st0" d="M52,3.3h0.6V1.9h0.9v1.4h0.8v0.6h-0.8v1.9c0,0.1,0,0.3,0.1,0.4s0.3,0.1,0.3,0.1c0.1,0,0.3,0,0.4,0v0.8
		c-0.1,0-0.3,0.1-0.7,0.1c-0.8,0-1.1-0.3-1.1-0.9V3.9H52V3.3z"/>
	<path class="st0" d="M57.4,7.1V4.9c0-0.6-0.3-0.8-0.7-0.8c-0.5,0-1,0.4-1,0.9v2.1h-0.9V1.7h0.9v2c0.2-0.2,0.6-0.5,1.2-0.5
		c0.8,0,1.4,0.5,1.4,1.3v2.6H57.4z"/>
	<path class="st0" d="M60,5.4c0,0.2,0.2,0.9,1.1,0.9c0.6,0,0.9-0.4,1-0.5l0.8,0.4c-0.3,0.4-0.9,1-1.9,1c-1.1,0-2-0.8-2-2
		c0-1.4,0.9-2,1.9-2c1.5,0,1.9,1.2,1.9,2.2C62.8,5.4,60,5.4,60,5.4z M61.8,4.7c0-0.2-0.1-0.8-0.9-0.8c-0.8,0-0.9,0.6-0.9,0.8H61.8z"
		/>
	<path class="st0" d="M64.3,3.3v0.5c0.3-0.6,1-0.6,1.1-0.6h0.1v0.9c-0.2,0-0.9,0-1.1,0.7c-0.1,0.2-0.1,0.4-0.1,0.6V7h-0.9V3.3H64.3z
		"/>
	<path class="st0" d="M66,7.1V1.7h1v5.4C67,7.1,66,7.1,66,7.1z"/>
	<path class="st0" d="M70.2,7.1V6.8C69.9,7,69.5,7.2,69,7.2c-0.9,0-1.4-0.5-1.4-1.2c0-0.8,0.6-1.2,1.4-1.3c0.6-0.1,0.9-0.2,1.2-0.3
		c0-0.3-0.1-0.6-0.7-0.6c-0.7,0-0.8,0.4-0.8,0.6l-0.9-0.1c0-0.3,0.1-1.2,1.7-1.2c1.1,0,1.6,0.4,1.6,1.1v2.2c0,0.3,0,0.4,0.2,0.6
		h-1.1V7.1z M70.2,5.2c-0.2,0.1-0.4,0.2-0.7,0.2c-0.4,0.1-0.8,0.1-0.8,0.5c0,0.3,0.2,0.5,0.6,0.5s0.9-0.2,0.9-0.7V5.2z"/>
	<path class="st0" d="M72.9,3.3v0.4c0.3-0.5,1-0.6,1.2-0.6c0.8,0,1.2,0.5,1.2,1.3v2.7h-0.9V5c0-0.4-0.1-0.9-0.7-0.9
		c-0.1,0-0.3,0-0.5,0.2c-0.3,0.2-0.4,0.5-0.4,1.2v1.7h-0.9V3.3H72.9z"/>
	<path class="st0" d="M78.7,7.1V6.7c-0.1,0.1-0.4,0.5-1.1,0.5c-0.8,0-1.7-0.6-1.7-1.9c0-1.4,0.8-2.1,1.7-2.1c0.3,0,0.8,0.1,1,0.4
		V1.7h0.9v5.4C79.5,7.1,78.7,7.1,78.7,7.1z M77.8,6.4c0.5,0,0.9-0.4,0.9-1.1c0-0.6-0.2-1.2-0.9-1.2c-0.6,0-0.9,0.5-0.9,1.2
		C76.9,5.7,77.1,6.4,77.8,6.4z"/>
	<path class="st0" d="M83,4.5c-0.2-0.4-0.6-0.6-1-0.6c-0.2,0-0.6,0.1-0.6,0.4s0.2,0.3,0.8,0.4l0.6,0.1c0.6,0.1,1,0.4,1,1.1
		s-0.7,1.3-1.7,1.3c-1.1,0-1.6-0.5-1.8-0.7L80.9,6c0.2,0.2,0.5,0.5,1.1,0.5c0.5,0,0.7-0.3,0.7-0.4c0-0.2-0.2-0.3-0.6-0.4l-0.5-0.1
		c-0.3-0.1-1.3-0.2-1.3-1.1c0-0.8,0.7-1.2,1.6-1.2c0.3,0,1.1,0,1.6,0.7L83,4.5z"/>
</g>
</svg>
