<?xml version="1.0" encoding="utf-8"?>
<!-- Generator: Adobe Illustrator 23.0.2, SVG Export Plug-In . SVG Version: 6.00 Build 0)  -->
<svg version="1.1" id="Laag_1" xmlns="http://www.w3.org/2000/svg" xmlns:xlink="http://www.w3.org/1999/xlink" x="0px" y="0px"
	 width="208.1px" height="21.2px" viewBox="0 0 208.1 21.2" style="enable-background:new 0 0 208.1 21.2;" xml:space="preserve">
<style type="text/css">
	.st0{fill:#1D1D1B;}
</style>
<g>
	<path class="st0" d="M16.8,1.7c-1.3,0.1-2,0.4-2,2v14.8h-1.3L3.4,4.7v11.1c0,1.4,0.9,1.8,2.5,1.9v0.6H0.3v-0.6c1.3-0.1,2-0.5,2-1.9
		V3.6c0-1.5-0.7-1.9-2.3-2V1h3.9l9.8,13.4V3.6c0-1.5-0.9-1.9-2.5-2V1h5.6V1.7z"/>
	<path class="st0" d="M16.8,12.2C16.8,7.8,19.6,5,23,5c3.7,0,6.1,2.8,6.1,6.6c0,4.3-2.8,7.1-6.2,7.1C19.2,18.8,16.8,16,16.8,12.2z
		 M26.7,12.5c0-2.7-1.1-6.5-4.1-6.5c-2.1,0-3.5,2.1-3.5,5.2c0,2.7,1.1,6.5,4,6.5C25.3,17.7,26.7,15.5,26.7,12.5z"/>
	<path class="st0" d="M42.1,5.9c-0.9,0.2-1.3,0.5-1.6,1.1l-4.9,11.7H35L29.9,7c-0.3-0.6-0.6-0.9-1.6-1.1V5.4h6v0.6
		c-1.7,0.2-2.1,0.6-1.6,1.7l3.4,7.9l3.3-7.9c0.5-1.1-0.1-1.4-1.7-1.7V5.4h4.5V5.9z"/>
	<path class="st0" d="M52.4,11.2h-9c0.1,3.5,1.9,5.7,4.5,5.7c1.8,0,3.1-1.1,3.9-2.2l0.5,0.2c-0.7,2.1-2.6,3.9-5.3,3.9
		c-3.6,0-5.8-3-5.8-6.5c0-4.5,2.6-7.2,6.2-7.2C50.8,5,52.4,7.8,52.4,11.2z M43.5,10.3H50c-0.2-2.5-1-4.3-3-4.3
		C44.8,6,43.7,7.7,43.5,10.3z"/>
	<path class="st0" d="M75,17.8v0.6h-5.8v-0.6c1-0.2,1.8-0.4,1.8-1.6V9.6c0-2-1.1-2.8-2.6-2.8c-1.2,0-2.2,0.5-3.5,2
		c0,0.2,0,0.4,0,0.6v6.9c0,1.1,0.8,1.4,1.8,1.6v0.6h-5.9v-0.6c1-0.2,1.8-0.4,1.8-1.6V9.6c0-2-1-2.8-2.5-2.8c-1.2,0-2.2,0.5-3.4,1.9
		v7.5c0,1.1,0.8,1.4,1.8,1.6v0.6h-5.9v-0.6c1.1-0.2,1.8-0.4,1.8-1.6v-8c0-1-0.3-1.6-1.6-1.6l-0.3,0V6l3.6-1h0.5v2.9
		C58.2,5.9,59.5,5,61.1,5c1.8,0,3.3,1,3.8,3.1C66.4,5.9,67.7,5,69.3,5c2.2,0,3.9,1.4,3.9,4.3v6.9C73.2,17.3,74,17.6,75,17.8z"/>
	<path class="st0" d="M88.2,11.4c0,4.6-3,7.3-6.4,7.3c-1.7,0-2.8-0.7-3.5-1.6l-0.9,1.6h-0.9V3.2c0-1.1-0.4-1.6-1.5-1.6l-0.3,0V1
		l3.6-1h0.5v7.2c0.7-1,2.2-2.3,4-2.3C86.2,5,88.2,7.9,88.2,11.4z M85.8,12.4c0-2.8-1.1-5.9-3.8-5.9c-1.3,0-2.6,0.6-3.2,1.3v5.9
		c0,1.6,0.9,4.1,3.4,4.1C84.3,17.8,85.8,15.6,85.8,12.4z"/>
	<path class="st0" d="M100.1,11.2h-9c0.1,3.5,1.9,5.7,4.5,5.7c1.8,0,3.1-1.1,3.9-2.2l0.5,0.2c-0.7,2.1-2.6,3.9-5.3,3.9
		c-3.6,0-5.8-3-5.8-6.5c0-4.5,2.6-7.2,6.2-7.2C98.5,5,100.1,7.8,100.1,11.2z M91.2,10.3h6.5c-0.2-2.5-1-4.3-3-4.3
		C92.5,6,91.4,7.7,91.2,10.3z"/>
	<path class="st0" d="M109.7,5.1l-0.3,2.4c-0.5-0.3-1.1-0.5-1.8-0.5c-1.3,0.1-2.5,1-3.2,2.7v6.4c0,1,0.6,1.4,2.5,1.7v0.6h-6.6v-0.6
		c1.4-0.3,1.8-0.6,1.8-1.7V8.2c0-1-0.3-1.6-1.6-1.6l-0.3,0V6l3.6-1h0.5v3.8c0.9-2.6,2.2-3.8,3.7-3.9C108.8,4.9,109.3,5,109.7,5.1z"
		/>
	<path class="st0" d="M125.5,1.6c-2.7,4.2-6.8,9.5-6.8,16.8h-2.5c0-6.7,4.3-11.4,7.3-15.1h-6.9c-1.4,0-2.1,0.4-2.3,2.1h-0.6l0.1-4.3
		h11.8V1.6z"/>
	<path class="st0" d="M132.5,11.5h-8.7v-1h8.7V11.5z"/>
	<path class="st0" d="M140,17.8v0.6h-7.7v-0.6c1.7-0.1,2.8-0.5,2.8-2.2V2.9h-2.8V2.4c1.8-0.3,3.6-0.9,4.6-1.7h0.6v14.9
		C137.5,17.3,138.4,17.7,140,17.8z"/>
	<path class="st0" d="M153.3,9.7c0,5-2.3,9-6.7,9c-4.4,0-6.8-4.1-6.8-9c0-5,2.3-9,6.8-9C151,0.7,153.3,4.7,153.3,9.7z M142.4,8.3
		c0,3.6,1.1,9.3,4.6,9.3c2.3,0,3.8-2.5,3.8-6.6c0-3.6-1.2-9.3-4.6-9.3C143.9,1.7,142.4,4.3,142.4,8.3z"/>
	<path class="st0" d="M157.3,17.6c0,2.4-1.5,4.1-3.7,4.3v-0.6c1.2-0.3,2.4-1.3,2.4-2.7c-1.4,0.5-2.4-0.4-2.4-1.5
		c0-1,0.8-1.8,1.7-1.8C156.5,15.3,157.3,16.3,157.3,17.6z"/>
	<path class="st0" d="M172.4,5.6c0,3.9-4.3,6.4-8.8,10.8h5.7c2.1,0,2.4-0.3,3.3-2.8h0.6l-0.4,4.8h-11.5v-1.1l3.7-3.7
		c3.3-3.2,4.7-5.5,4.7-7.6c0-2.2-1.3-3.5-3.5-3.5c-2.1,0-3.2,1-4,2.4l-0.6-0.2c0.6-2,2.5-4.1,5.5-4.1C170.4,0.7,172.4,2.6,172.4,5.6
		z"/>
	<path class="st0" d="M187.2,9.7c0,5-2.3,9-6.7,9c-4.4,0-6.8-4.1-6.8-9c0-5,2.3-9,6.8-9C184.8,0.7,187.2,4.7,187.2,9.7z M176.2,8.3
		c0,3.6,1.1,9.3,4.6,9.3c2.3,0,3.8-2.5,3.8-6.6c0-3.6-1.2-9.3-4.6-9.3C177.7,1.7,176.2,4.3,176.2,8.3z"/>
	<path class="st0" d="M194.7,17.8v0.6H187v-0.6c1.7-0.1,2.8-0.5,2.8-2.2V2.9H187V2.4c1.8-0.3,3.6-0.9,4.6-1.7h0.6v14.9
		C192.1,17.3,193.1,17.7,194.7,17.8z"/>
	<path class="st0" d="M207,9.6c0,6.7-3.8,9.2-7.1,9.2c-2.2,0-4.2-1.1-5.1-2.6l2.1-1.4c0.4,1.8,1.7,2.9,3.3,2.9
		c2.2,0,4.3-2.1,4.3-7.8V9.5c-0.8,1-2.5,2.6-4.9,2.6c-2.9,0-5.1-2.3-5.1-5.5c0-3.4,2.5-5.9,5.9-5.9C204.7,0.7,207,4.4,207,9.6z
		 M204.5,8.8c-0.2-3.9-1.5-7-4.2-7c-2.1,0-3.3,1.7-3.3,4.3c0,2.7,1.3,4.4,3.9,4.4C202.3,10.5,203.6,9.9,204.5,8.8z"/>
</g>
</svg>
