<?xml version="1.0" encoding="utf-8"?>
<!-- Generator: Adobe Illustrator 23.0.2, SVG Export Plug-In . SVG Version: 6.00 Build 0)  -->
<svg version="1.1" id="Laag_1" xmlns="http://www.w3.org/2000/svg" xmlns:xlink="http://www.w3.org/1999/xlink" x="0px" y="0px"
	 width="229.5px" height="38.8px" viewBox="0 0 229.5 38.8" style="enable-background:new 0 0 229.5 38.8;" xml:space="preserve">
<style type="text/css">
	.st0{fill:#1D1D1B;}
</style>
<g>
	<path class="st0" d="M1.2,4.3C1.2,2.5,2.3,1.2,4,1v0.5c-0.9,0.2-1.8,1-1.8,2.1C3.2,3.2,4,3.9,4,4.6C4,5.4,3.5,6,2.7,6
		C1.8,6,1.2,5.3,1.2,4.3z M4.9,4.3C4.9,2.5,6,1.2,7.7,1v0.5c-0.9,0.2-1.8,1-1.8,2.1c1.1-0.4,1.8,0.3,1.8,1.1C7.7,5.4,7.2,6,6.4,6
		C5.5,6,4.9,5.3,4.9,4.3z"/>
	<path class="st0" d="M20.3,6h-0.5c-0.5-1.7-0.9-2.4-2.4-2.4h-2.1v10.6c0,1.1,0.5,1.4,1.8,1.5v0.5h-5.4v-0.5
		c1.2-0.1,1.8-0.4,1.8-1.5V3.6h-2.1C9.9,3.6,9.5,4.3,9,6H8.5l0.2-3.1h11.4L20.3,6z"/>
	<path class="st0" d="M31.4,15.7v0.5h-4.5v-0.5c0.8-0.1,1.3-0.3,1.3-1.2V9.4c0-1.5-0.8-2.2-1.9-2.2c-0.9,0-1.6,0.4-2.6,1.5v5.8
		c0,0.9,0.6,1.1,1.4,1.2v0.5h-4.5v-0.5c0.8-0.1,1.4-0.3,1.4-1.2v-10c0-0.7-0.3-1-1.1-1.1l-0.3,0V2.9l2.8-0.8h0.4v6
		c1.1-1.6,2.1-2.2,3.3-2.2c1.6,0,3,1.1,3,3.3v5.3C30,15.4,30.6,15.6,31.4,15.7z"/>
	<path class="st0" d="M40,10.7h-6.8c0.1,2.7,1.4,4.3,3.4,4.3c1.4,0,2.4-0.8,3-1.7l0.4,0.2c-0.5,1.6-2,3-4,3c-2.7,0-4.4-2.3-4.4-5
		c0-3.5,2-5.5,4.7-5.5C38.8,5.9,40,8.1,40,10.7z M33.2,9.9h5c-0.1-1.9-0.7-3.3-2.3-3.3C34.2,6.7,33.4,8,33.2,9.9z"/>
	<path class="st0" d="M60.6,15.7v0.5h-4.5v-0.5c0.8-0.1,1.3-0.3,1.3-1.2V9.4c0-1.5-0.8-2.2-2-2.2c-0.9,0-1.7,0.4-2.6,1.5
		c0,0.1,0,0.3,0,0.4v5.3c0,0.9,0.6,1.1,1.4,1.2v0.5h-4.5v-0.5c0.8-0.1,1.3-0.3,1.3-1.2V9.4c0-1.5-0.8-2.2-1.9-2.2
		c-0.9,0-1.6,0.4-2.6,1.5v5.8c0,0.9,0.6,1.1,1.4,1.2v0.5h-4.5v-0.5c0.8-0.1,1.4-0.3,1.4-1.2V8.4c0-0.8-0.3-1.2-1.2-1.2l-0.2,0V6.7
		l2.8-0.8h0.4v2.2c1.1-1.6,2.1-2.2,3.3-2.2c1.4,0,2.5,0.8,2.9,2.4C54,6.6,55,5.9,56.2,5.9c1.6,0,3,1.1,3,3.3v5.3
		C59.2,15.4,59.8,15.6,60.6,15.7z"/>
	<path class="st0" d="M61,11.4c0-3.3,2.1-5.5,4.7-5.5c2.8,0,4.6,2.1,4.6,5.1c0,3.3-2.2,5.4-4.7,5.4C62.8,16.4,61,14.3,61,11.4z
		 M68.5,11.7c0-2.1-0.9-5-3.1-5c-1.6,0-2.7,1.6-2.7,3.9c0,2.1,0.9,5,3.1,5C67.5,15.6,68.5,14,68.5,11.7z"/>
	<path class="st0" d="M78.4,7.5l-1.5,1.2c-0.4-1.3-1.2-2.1-2.3-2.1c-1.2,0-2,0.6-2,1.5c0,2.5,5.8,1.4,5.8,5.2c0,1.7-1.4,3.1-3.7,3.1
		c-1.7,0-3.3-0.8-4-1.9l1.6-1.2c0.5,1.5,1.4,2.4,2.5,2.4c1.2,0,2.1-0.8,2.1-1.8c0-2.7-5.8-1.8-5.8-5.2c0-1.7,1.3-2.9,3.5-2.9
		C77,5.9,78.1,6.9,78.4,7.5z"/>
	<path class="st0" d="M85.3,15.2c-0.6,0.5-1.4,1.2-2.5,1.2c-1.6,0-2.5-0.9-2.5-2.9V6.9h-1.7V6.2h1.7v-2L82,3.4v2.8h3.1v0.7H82v6.6
		c0,1.4,0.7,1.9,1.6,1.9c0.6,0,1-0.2,1.5-0.5L85.3,15.2z"/>
	<path class="st0" d="M98.7,15.1v0.5L96,16.4h-0.4v-1.8c-0.6,0.9-1.6,1.8-3.1,1.8c-2.5,0-4.1-2.2-4.1-4.9c0-3.5,2.3-5.6,4.9-5.6
		c1.1,0,1.8,0.3,2.3,0.8V4.6c0-0.8-0.3-1.2-1.2-1.2l-0.2,0V2.9l2.7-0.8h0.4v11.8c0,0.9,0.3,1.2,1.2,1.2H98.7z M95.6,9.8
		c0-1.5-0.8-3.1-2.6-3.1c-1.6,0-2.7,1.7-2.7,4.1c0,2.1,0.9,4.5,2.9,4.5c1,0,2.1-0.6,2.5-1.2V9.8z"/>
	<path class="st0" d="M103.8,15.7v0.5h-4.5v-0.5c0.8-0.1,1.4-0.3,1.4-1.2V8.4c0-0.8-0.3-1.2-1.2-1.2l-0.2,0V6.7l2.8-0.8h0.4v8.6
		C102.4,15.4,103,15.6,103.8,15.7z M100.3,3.2c0-0.7,0.5-1.2,1.2-1.2c0.7,0,1.2,0.5,1.2,1.2s-0.5,1.2-1.2,1.2
		C100.8,4.4,100.3,3.9,100.3,3.2z"/>
	<path class="st0" d="M114,6.7c-0.7,0.1-1,0.4-1.2,0.9l-3.7,8.9h-0.5l-3.9-8.9c-0.2-0.5-0.5-0.7-1.2-0.8V6.2h4.6v0.5
		c-1.3,0.2-1.6,0.5-1.2,1.3l2.6,6.1l2.5-6.1c0.4-0.9,0-1.1-1.3-1.3V6.2h3.5V6.7z"/>
	<path class="st0" d="M122.2,10.7h-6.8c0.1,2.7,1.4,4.3,3.4,4.3c1.4,0,2.4-0.8,3-1.7l0.4,0.2c-0.5,1.6-2,3-4,3c-2.7,0-4.4-2.3-4.4-5
		c0-3.5,2-5.5,4.7-5.5C121,5.9,122.2,8.1,122.2,10.7z M115.4,9.9h5c-0.1-1.9-0.7-3.3-2.3-3.3C116.4,6.7,115.6,8,115.4,9.9z"/>
	<path class="st0" d="M129.9,6l-0.2,1.8c-0.4-0.2-0.9-0.4-1.3-0.4c-1,0-1.9,0.8-2.4,2v4.9c0,0.8,0.5,1.1,1.9,1.3v0.5h-5.1v-0.5
		c1.1-0.2,1.4-0.5,1.4-1.3v-6c0-0.8-0.3-1.2-1.2-1.2l-0.2,0V6.7l2.8-0.8h0.4v2.9c0.7-2,1.7-2.9,2.8-3C129.2,5.9,129.6,5.9,129.9,6z"
		/>
	<path class="st0" d="M137.5,7.5L136,8.7c-0.4-1.3-1.2-2.1-2.3-2.1c-1.2,0-2,0.6-2,1.5c0,2.5,5.8,1.4,5.8,5.2c0,1.7-1.4,3.1-3.7,3.1
		c-1.7,0-3.3-0.8-4-1.9l1.6-1.2c0.5,1.5,1.4,2.4,2.5,2.4c1.2,0,2.1-0.8,2.1-1.8c0-2.7-5.8-1.8-5.8-5.2c0-1.7,1.3-2.9,3.5-2.9
		C136.1,5.9,137.1,6.9,137.5,7.5z"/>
	<path class="st0" d="M146.9,10.7H140c0.1,2.7,1.4,4.3,3.4,4.3c1.4,0,2.4-0.8,3-1.7l0.4,0.2c-0.5,1.6-2,3-4,3c-2.7,0-4.4-2.3-4.4-5
		c0-3.5,2-5.5,4.7-5.5C145.6,5.9,146.9,8.1,146.9,10.7z M140.1,9.9h5c-0.1-1.9-0.7-3.3-2.3-3.3C141.1,6.7,140.2,8,140.1,9.9z"/>
	<path class="st0" d="M150.4,15.5c0,1.8-1.1,3.1-2.9,3.3v-0.5c0.9-0.2,1.8-1,1.8-2.1c-1.1,0.4-1.8-0.3-1.8-1.1
		c0-0.8,0.6-1.3,1.3-1.3C149.7,13.8,150.4,14.5,150.4,15.5z"/>
	<path class="st0" d="M153.9,11.4c0-3.3,2.1-5.5,4.7-5.5c2.8,0,4.6,2.1,4.6,5.1c0,3.3-2.2,5.4-4.7,5.4
		C155.7,16.4,153.9,14.3,153.9,11.4z M161.4,11.7c0-2.1-0.9-5-3.1-5c-1.6,0-2.7,1.6-2.7,3.9c0,2.1,0.9,5,3.1,5
		C160.4,15.6,161.4,14,161.4,11.7z"/>
	<path class="st0" d="M173.9,10.8c0,3.5-2.3,5.6-4.9,5.6c-1.1,0-1.8-0.3-2.3-0.8v2.8c0,0.9,0.6,1.1,1.5,1.2v0.5h-4.6v-0.5
		c0.8-0.1,1.4-0.3,1.4-1.2v-10c0-0.8-0.3-1.2-1.2-1.2l-0.2,0V6.7l2.8-0.8h0.4v1.7c0.6-0.8,1.7-1.7,3.1-1.7
		C172.3,5.9,173.9,8.1,173.9,10.8z M172.1,11.6c0-2.1-0.9-4.5-2.9-4.5c-1,0-2,0.5-2.5,1v4.5c0,1.5,0.8,3.1,2.6,3.1
		C170.9,15.7,172.1,14,172.1,11.6z"/>
	<path class="st0" d="M183.3,10.7h-6.8c0.1,2.7,1.4,4.3,3.4,4.3c1.4,0,2.4-0.8,3-1.7l0.4,0.2c-0.5,1.6-2,3-4,3c-2.7,0-4.4-2.3-4.4-5
		c0-3.5,2-5.5,4.7-5.5C182,5.9,183.3,8.1,183.3,10.7z M176.4,9.9h5c-0.1-1.9-0.7-3.3-2.3-3.3C177.5,6.7,176.6,8,176.4,9.9z"/>
	<path class="st0" d="M194.7,15.7v0.5h-4.5v-0.5c0.8-0.1,1.3-0.3,1.3-1.2V9.4c0-1.5-0.8-2.2-1.9-2.2c-0.9,0-1.6,0.4-2.6,1.5v5.8
		c0,0.9,0.6,1.1,1.4,1.2v0.5h-4.5v-0.5c0.8-0.1,1.4-0.3,1.4-1.2V8.4c0-0.8-0.3-1.2-1.2-1.2l-0.2,0V6.7l2.8-0.8h0.4v2.2
		c1.1-1.6,2.1-2.2,3.3-2.2c1.6,0,3,1.1,3,3.3v5.3C193.3,15.4,193.9,15.6,194.7,15.7z"/>
	<path class="st0" d="M207.4,15.1v0.5l-2.8,0.8h-0.4v-2.2c-0.7,1.5-1.9,2.2-3.3,2.2c-1.4,0-2.7-0.9-2.7-2.6c0-1.9,1.5-2.8,4.6-3.5
		l1.3-0.3V9.7c0-1.9-0.9-3.1-2.4-3.1c-1.2,0-1.8,0.8-1.8,1.8c0,0.4,0.1,0.7,0.3,1.1l-1.6,0.6c-0.3-0.4-0.4-0.8-0.4-1.2
		c0-1.6,1.8-3,4-3c2.3,0,3.6,1.5,3.6,3.9v4.1c0,0.8,0.2,1.3,1.2,1.3H207.4z M204.2,13.6v-2.8L203,11c-2.2,0.5-2.9,1.2-2.9,2.5
		c0,1.1,0.8,1.6,1.7,1.6C202.7,15.2,203.6,14.7,204.2,13.6z"/>
	<path class="st0" d="M218.4,15.7v0.5h-4.5v-0.5c0.8-0.1,1.3-0.3,1.3-1.2V9.4c0-1.5-0.8-2.2-1.9-2.2c-0.9,0-1.6,0.4-2.6,1.5v5.8
		c0,0.9,0.6,1.1,1.4,1.2v0.5h-4.5v-0.5c0.8-0.1,1.4-0.3,1.4-1.2V8.4c0-0.8-0.3-1.2-1.2-1.2l-0.2,0V6.7l2.8-0.8h0.4v2.2
		c1.1-1.6,2.1-2.2,3.3-2.2c1.6,0,3,1.1,3,3.3v5.3C217,15.4,217.6,15.6,218.4,15.7z"/>
	<path class="st0" d="M228.9,15.1v0.5l-2.8,0.8h-0.4v-1.8c-0.6,0.9-1.6,1.8-3.1,1.8c-2.5,0-4.1-2.2-4.1-4.9c0-3.5,2.3-5.6,4.9-5.6
		c1.1,0,1.8,0.3,2.3,0.8V4.6c0-0.8-0.3-1.2-1.2-1.2l-0.2,0V2.9l2.7-0.8h0.4v11.8c0,0.9,0.3,1.2,1.2,1.2H228.9z M225.8,9.8
		c0-1.5-0.8-3.1-2.6-3.1c-1.6,0-2.7,1.7-2.7,4.1c0,2.1,0.9,4.5,2.9,4.5c1,0,2.1-0.6,2.5-1.2V9.8z"/>
</g>
<g>
	<path class="st0" d="M10.9,33.6V34H6.4v-0.5c0.8-0.1,1.4-0.3,1.4-1.2v-6.1c0-0.8-0.3-1.2-1.2-1.2l-0.2,0v-0.4l2.8-0.8h0.4v8.6
		C9.5,33.2,10.1,33.4,10.9,33.6z M7.4,21.1c0-0.7,0.5-1.2,1.2-1.2s1.2,0.5,1.2,1.2s-0.5,1.2-1.2,1.2S7.4,21.8,7.4,21.1z"/>
	<path class="st0" d="M22.3,33.6V34h-4.5v-0.5c0.8-0.1,1.3-0.3,1.3-1.2v-5.1c0-1.5-0.8-2.2-1.9-2.2c-0.9,0-1.6,0.4-2.6,1.5v5.8
		c0,0.9,0.6,1.1,1.4,1.2V34h-4.5v-0.5c0.8-0.1,1.4-0.3,1.4-1.2v-6.1c0-0.8-0.3-1.2-1.2-1.2l-0.2,0v-0.4l2.8-0.8h0.4V26
		c1.1-1.6,2.1-2.2,3.3-2.2c1.6,0,3,1.1,3,3.3v5.3C20.9,33.2,21.5,33.4,22.3,33.6z"/>
	<path class="st0" d="M30.1,25.3l-1.5,1.2c-0.4-1.3-1.2-2.1-2.3-2.1c-1.2,0-2,0.6-2,1.5c0,2.5,5.8,1.4,5.8,5.2
		c0,1.7-1.4,3.1-3.7,3.1c-1.7,0-3.3-0.8-4-1.9l1.6-1.2c0.5,1.5,1.4,2.4,2.5,2.4c1.2,0,2.1-0.8,2.1-1.8c0-2.7-5.8-1.8-5.8-5.2
		c0-1.7,1.3-2.9,3.5-2.9C28.6,23.8,29.7,24.8,30.1,25.3z"/>
	<path class="st0" d="M40.4,28.7c0,3.5-2.3,5.6-4.9,5.6c-1.1,0-1.8-0.3-2.3-0.8v2.8c0,0.9,0.6,1.1,1.5,1.2v0.5h-4.6v-0.5
		c0.8-0.1,1.4-0.3,1.4-1.2v-10c0-0.8-0.3-1.2-1.2-1.2l-0.2,0v-0.4l2.8-0.8h0.4v1.7c0.6-0.8,1.7-1.7,3.1-1.7
		C38.9,23.8,40.4,26,40.4,28.7z M38.6,29.5c0-2.1-0.9-4.5-2.9-4.5c-1,0-2,0.5-2.5,1v4.5c0,1.5,0.8,3.1,2.6,3.1
		C37.5,33.6,38.6,31.9,38.6,29.5z"/>
	<path class="st0" d="M45.6,33.6V34h-4.5v-0.5c0.8-0.1,1.4-0.3,1.4-1.2v-6.1c0-0.8-0.3-1.2-1.2-1.2l-0.2,0v-0.4l2.8-0.8h0.4v8.6
		C44.2,33.2,44.8,33.4,45.6,33.6z M42.1,21.1c0-0.7,0.5-1.2,1.2-1.2s1.2,0.5,1.2,1.2s-0.5,1.2-1.2,1.2S42.1,21.8,42.1,21.1z"/>
	<path class="st0" d="M53.3,23.9L53,25.7c-0.4-0.2-0.9-0.4-1.3-0.4c-1,0-1.9,0.8-2.4,2v4.9c0,0.8,0.5,1.1,1.9,1.3V34h-5.1v-0.5
		c1.1-0.2,1.4-0.5,1.4-1.3v-6c0-0.8-0.3-1.2-1.2-1.2l-0.2,0v-0.4l2.8-0.8h0.4v2.9c0.7-2,1.7-2.9,2.8-3C52.6,23.7,53,23.8,53.3,23.9z
		"/>
	<path class="st0" d="M57.9,33.6V34h-4.5v-0.5c0.8-0.1,1.4-0.3,1.4-1.2v-6.1c0-0.8-0.3-1.2-1.2-1.2l-0.2,0v-0.4l2.8-0.8h0.4v8.6
		C56.5,33.2,57.1,33.4,57.9,33.6z M54.4,21.1c0-0.7,0.5-1.2,1.2-1.2c0.7,0,1.2,0.5,1.2,1.2s-0.5,1.2-1.2,1.2
		C54.9,22.3,54.4,21.8,54.4,21.1z"/>
	<path class="st0" d="M69.3,33.6V34h-4.5v-0.5c0.8-0.1,1.3-0.3,1.3-1.2v-5.1c0-1.5-0.8-2.2-1.9-2.2c-0.9,0-1.6,0.4-2.6,1.5v5.8
		c0,0.9,0.6,1.1,1.4,1.2V34h-4.5v-0.5c0.8-0.1,1.4-0.3,1.4-1.2v-6.1c0-0.8-0.3-1.2-1.2-1.2l-0.2,0v-0.4l2.8-0.8h0.4V26
		c1.1-1.6,2.1-2.2,3.3-2.2c1.6,0,3,1.1,3,3.3v5.3C67.9,33.2,68.5,33.4,69.3,33.6z"/>
	<path class="st0" d="M78.5,23.8v10.3c0,2.7-1.4,4.3-4.5,4.3c-2.3,0-3.5-0.9-4-1.6l1.8-1c0.4,0.9,1.1,1.8,2.6,1.8
		c1.6,0,2.4-1.1,2.4-3.1v-2c-0.5,0.8-1.6,1.7-3.1,1.7c-2.5,0-4.1-2.2-4.1-4.9c0-3.5,2.3-5.6,4.9-5.6c1.3,0,2.1,0.5,2.6,1.2l0.7-1.2
		H78.5z M76.8,32.1v-4.5c0-1.2-0.7-3.1-2.6-3.1c-1.6,0-2.7,1.7-2.7,4.1c0,2.1,0.9,4.5,2.9,4.5C75.4,33.1,76.3,32.6,76.8,32.1z"/>
	<path class="st0" d="M86,22.5v1.5h2.9v0.7H86v7.5c0,1,0.7,1.1,1.9,1.3V34h-5.1v-0.5c0.8-0.1,1.4-0.3,1.4-1.2v-7.6h-1.7v-0.7h1.7v-1
		c0-2.7,1.7-3.9,3.6-3.9c1.3,0,2.2,0.5,2.7,1l-1.2,1.3c-0.3-0.9-0.9-1.6-1.7-1.6C86.7,19.8,86,20.4,86,22.5z"/>
	<path class="st0" d="M97.5,28.5h-6.8c0.1,2.7,1.4,4.3,3.4,4.3c1.4,0,2.4-0.8,3-1.7l0.4,0.2c-0.5,1.6-2,3-4,3c-2.7,0-4.4-2.3-4.4-5
		c0-3.5,2-5.5,4.7-5.5C96.3,23.8,97.5,26,97.5,28.5z M90.7,27.8h5c-0.1-1.9-0.7-3.3-2.3-3.3C91.7,24.5,90.9,25.9,90.7,27.8z"/>
	<path class="st0" d="M105.6,25.3l-1.5,1.2c-0.4-1.3-1.2-2.1-2.3-2.1c-1.2,0-2,0.6-2,1.5c0,2.5,5.8,1.4,5.8,5.2
		c0,1.7-1.4,3.1-3.7,3.1c-1.7,0-3.3-0.8-4-1.9l1.6-1.2c0.5,1.5,1.4,2.4,2.5,2.4c1.2,0,2.1-0.8,2.1-1.8c0-2.7-5.8-1.8-5.8-5.2
		c0-1.7,1.3-2.9,3.5-2.9C104.2,23.8,105.2,24.8,105.6,25.3z"/>
	<path class="st0" d="M112.5,33.1c-0.6,0.5-1.4,1.2-2.5,1.2c-1.6,0-2.5-0.9-2.5-2.9v-6.6h-1.7v-0.7h1.7v-2l1.7-0.8v2.8h3.1v0.7h-3.1
		v6.6c0,1.4,0.7,1.9,1.6,1.9c0.6,0,1-0.2,1.5-0.5L112.5,33.1z"/>
	<path class="st0" d="M117.3,33.6V34h-4.5v-0.5c0.8-0.1,1.4-0.3,1.4-1.2v-6.1c0-0.8-0.3-1.2-1.2-1.2l-0.2,0v-0.4l2.8-0.8h0.4v8.6
		C115.9,33.2,116.5,33.4,117.3,33.6z M113.8,21.1c0-0.7,0.5-1.2,1.2-1.2c0.7,0,1.2,0.5,1.2,1.2s-0.5,1.2-1.2,1.2
		C114.3,22.3,113.8,21.8,113.8,21.1z"/>
	<path class="st0" d="M127.5,24.5c-0.7,0.1-1,0.4-1.2,0.9l-3.7,8.9h-0.5l-3.9-8.9c-0.2-0.5-0.5-0.7-1.2-0.8v-0.5h4.6v0.5
		c-1.3,0.2-1.6,0.5-1.2,1.3l2.6,6.1l2.5-6.1c0.4-0.9,0-1.1-1.3-1.3v-0.5h3.5V24.5z"/>
	<path class="st0" d="M136.5,33v0.5l-2.8,0.8h-0.4v-2.2c-0.7,1.5-1.9,2.2-3.3,2.2c-1.4,0-2.7-0.9-2.7-2.6c0-1.9,1.5-2.8,4.6-3.5
		l1.3-0.3v-0.3c0-1.9-0.9-3.1-2.4-3.1c-1.2,0-1.8,0.8-1.8,1.8c0,0.4,0.1,0.7,0.3,1.1l-1.6,0.6c-0.3-0.4-0.4-0.8-0.4-1.2
		c0-1.6,1.8-3,4-3c2.3,0,3.6,1.5,3.6,3.9v4.1c0,0.8,0.2,1.3,1.2,1.3H136.5z M133.3,31.4v-2.8l-1.2,0.3c-2.2,0.5-2.9,1.2-2.9,2.5
		c0,1.1,0.8,1.6,1.7,1.6C131.9,33,132.8,32.6,133.3,31.4z"/>
	<path class="st0" d="M139.9,32.4c0,0.9,0.6,1.1,1.4,1.2V34h-4.5v-0.5c0.8-0.1,1.4-0.3,1.4-1.2v-9.9c0-0.8-0.3-1.2-1.2-1.2l-0.2,0
		v-0.4l2.8-0.8h0.4V32.4z"/>
	<path class="st0" d="M144.6,29.3c0-3.3,2.1-5.5,4.7-5.5c2.8,0,4.6,2.1,4.6,5.1c0,3.3-2.2,5.4-4.7,5.4
		C146.4,34.3,144.6,32.2,144.6,29.3z M152.1,29.5c0-2.1-0.9-5-3.1-5c-1.6,0-2.7,1.6-2.7,3.9c0,2.1,0.9,5,3.1,5
		C151.1,33.5,152.1,31.8,152.1,29.5z"/>
	<path class="st0" d="M165.1,33v0.5l-2.8,0.8H162V32c-1.1,1.6-2.1,2.2-3.3,2.2c-1.6,0-3-1.1-3-3.3v-4.7c0-0.8-0.3-1.2-1.2-1.2
		l-0.2,0v-0.4l2.8-0.8h0.4v7c0,1.5,0.8,2.2,1.9,2.2c0.9,0,1.6-0.4,2.6-1.5v-5.2c0-0.8-0.3-1.2-1.2-1.2l-0.2,0v-0.4l2.7-0.8h0.4v8
		c0,0.8,0.3,1.2,1.2,1.2H165.1z"/>
	<path class="st0" d="M171.7,33.1c-0.6,0.5-1.4,1.2-2.5,1.2c-1.6,0-2.5-0.9-2.5-2.9v-6.6H165v-0.7h1.7v-2l1.7-0.8v2.8h3.1v0.7h-3.1
		v6.6c0,1.4,0.7,1.9,1.6,1.9c0.6,0,1-0.2,1.5-0.5L171.7,33.1z"/>
	<path class="st0" d="M181.1,33.1c-0.6,0.5-1.4,1.2-2.5,1.2c-1.6,0-2.5-0.9-2.5-2.9v-6.6h-1.7v-0.7h1.7v-2l1.7-0.8v2.8h3.1v0.7h-3.1
		v6.6c0,1.4,0.7,1.9,1.6,1.9c0.6,0,1-0.2,1.5-0.5L181.1,33.1z"/>
	<path class="st0" d="M192.1,33.6V34h-4.5v-0.5c0.8-0.1,1.3-0.3,1.3-1.2v-5.1c0-1.5-0.8-2.2-1.9-2.2c-0.9,0-1.6,0.4-2.6,1.5v5.8
		c0,0.9,0.6,1.1,1.4,1.2V34h-4.5v-0.5c0.8-0.1,1.4-0.3,1.4-1.2v-10c0-0.7-0.3-1-1.1-1.1l-0.3,0v-0.4L184,20h0.4v6
		c1.1-1.6,2.1-2.2,3.3-2.2c1.6,0,3,1.1,3,3.3v5.3C190.7,33.2,191.3,33.4,192.1,33.6z"/>
	<path class="st0" d="M200.7,28.5h-6.8c0.1,2.7,1.4,4.3,3.4,4.3c1.4,0,2.4-0.8,3-1.7l0.4,0.2c-0.5,1.6-2,3-4,3c-2.7,0-4.4-2.3-4.4-5
		c0-3.5,2-5.5,4.7-5.5C199.5,23.8,200.7,26,200.7,28.5z M193.9,27.8h5c-0.1-1.9-0.7-3.3-2.3-3.3C194.9,24.5,194.1,25.9,193.9,27.8z"
		/>
	<path class="st0" d="M208.4,23.9l-0.2,1.8c-0.4-0.2-0.9-0.4-1.3-0.4c-1,0-1.9,0.8-2.4,2v4.9c0,0.8,0.5,1.1,1.9,1.3V34h-5.1v-0.5
		c1.1-0.2,1.4-0.5,1.4-1.3v-6c0-0.8-0.3-1.2-1.2-1.2l-0.2,0v-0.4l2.8-0.8h0.4v2.9c0.7-2,1.7-2.9,2.8-3
		C207.7,23.7,208.1,23.8,208.4,23.9z"/>
	<path class="st0" d="M217,28.5h-6.8c0.1,2.7,1.4,4.3,3.4,4.3c1.4,0,2.4-0.8,3-1.7l0.4,0.2c-0.5,1.6-2,3-4,3c-2.7,0-4.4-2.3-4.4-5
		c0-3.5,2-5.5,4.7-5.5C215.7,23.8,217,26,217,28.5z M210.2,27.8h5c-0.1-1.9-0.7-3.3-2.3-3.3C211.2,24.5,210.3,25.9,210.2,27.8z"/>
	<path class="st0" d="M220.1,20.5c0,1.8-1.1,3.1-2.9,3.3v-0.5c0.9-0.2,1.8-1,1.8-2.1c-1.1,0.4-1.8-0.3-1.8-1.1
		c0-0.8,0.6-1.3,1.3-1.3C219.4,18.8,220.1,19.5,220.1,20.5z M223.8,20.5c0,1.8-1.1,3.1-2.9,3.3v-0.5c0.9-0.2,1.8-1,1.8-2.1
		c-1.1,0.4-1.8-0.3-1.8-1.1c0-0.8,0.6-1.3,1.3-1.3C223.1,18.8,223.8,19.5,223.8,20.5z"/>
</g>
</svg>
