<?xml version="1.0" encoding="utf-8"?>
<!-- Generator: Adobe Illustrator 24.3.0, SVG Export Plug-In . SVG Version: 6.00 Build 0)  -->
<svg version="1.1" id="Laag_1" xmlns="http://www.w3.org/2000/svg" xmlns:xlink="http://www.w3.org/1999/xlink" x="0px" y="0px"
	 width="203.7px" height="169.7px" viewBox="0 0 203.7 169.7" style="enable-background:new 0 0 203.7 169.7;" xml:space="preserve"
	>
<style type="text/css">
	.st0{fill:#FFFFFF;}
</style>
<g>
	<path class="st0" d="M31.1,49L12.8,27H9.4v22H2.9V0h6.5v20.6h3.4L29.2,0h7.6L18.3,23.6V24l20.3,25H31.1z"/>
	<path class="st0" d="M56.8,49.7c-5.1,0-9.4-1.7-12.7-5.2c-3.4-3.5-5-7.8-5-13.1c0-5.2,1.7-9.5,5-13c3.3-3.5,7.6-5.2,12.7-5.2
		c5.1,0,9.4,1.7,12.7,5.2c3.4,3.5,5,7.8,5,13c0,5.3-1.7,9.6-5,13.1C66.2,48,61.9,49.7,56.8,49.7z M56.7,44.2c3.4,0,6.2-1.2,8.3-3.7
		c2.1-2.5,3.2-5.4,3.2-9c0-3.5-1.1-6.5-3.3-9c-2.2-2.5-4.9-3.7-8.3-3.7s-6.1,1.2-8.2,3.7c-2.1,2.5-3.2,5.5-3.2,9
		c0,3.5,1.1,6.5,3.2,9C50.6,42.9,53.3,44.2,56.7,44.2z"/>
	<path class="st0" d="M97.7,49.7c-5.1,0-9.4-1.7-12.7-5.2c-3.4-3.5-5-7.8-5-13.1c0-5.2,1.7-9.5,5-13c3.3-3.5,7.6-5.2,12.7-5.2
		c5.1,0,9.4,1.7,12.7,5.2c3.4,3.5,5,7.8,5,13c0,5.3-1.7,9.6-5,13.1C107.1,48,102.9,49.7,97.7,49.7z M97.6,44.2
		c3.4,0,6.2-1.2,8.3-3.7c2.1-2.5,3.2-5.4,3.2-9c0-3.5-1.1-6.5-3.3-9c-2.2-2.5-4.9-3.7-8.3-3.7s-6.1,1.2-8.2,3.7
		c-2.1,2.5-3.2,5.5-3.2,9c0,3.5,1.1,6.5,3.2,9C91.5,42.9,94.3,44.2,97.6,44.2z"/>
	<path class="st0" d="M139.8,13.3c4.6,0,8.4,1.7,11.5,5.1c3,3.4,4.5,7.8,4.5,13.1c0,5.4-1.5,9.7-4.6,13.1c-3.1,3.4-7,5.1-11.6,5.1
		c-5.3,0-8.9-1.9-11-5.8V63h-6.2V14h4.6l1,5h0.7C131.3,15.2,135,13.3,139.8,13.3z M138.9,44.1c3.2,0,5.8-1.2,7.7-3.5
		c2-2.4,3-5.4,3-9.1c0-3.7-1-6.7-3-9.1c-2-2.4-4.6-3.5-7.7-3.5c-3.1,0-5.6,1.2-7.6,3.5c-1.9,2.3-2.9,5.4-2.9,9.1
		c0,3.8,1,6.8,2.9,9.1C133.3,42.9,135.8,44.1,138.9,44.1z"/>
	<path class="st0" d="M21.1,108.1c-1.7,1.1-3.6,1.6-5.7,1.6c-5.7,0-8.6-3.1-8.6-9.4V79.1H0v-4.5h2c3.6,0,5.4-1.6,5.4-4.9v-4.5h5.5
		V74h8.3v5.1h-8.3v20.6c0,2.9,1.2,4.4,3.5,4.4c1.1,0,2.1-0.3,3.1-1L21.1,108.1z"/>
	<path class="st0" d="M34.2,67.3c-0.8,0.8-1.8,1.2-3,1.2c-1.2,0-2.2-0.4-3-1.2c-0.8-0.8-1.3-1.8-1.3-3c0-1.2,0.4-2.2,1.3-3
		c0.8-0.8,1.8-1.2,3-1.2c1.2,0,2.2,0.4,3,1.2c0.8,0.8,1.2,1.8,1.2,3C35.4,65.5,35,66.5,34.2,67.3z M34.2,74v35H28V74H34.2z"/>
	<path class="st0" d="M75.5,97c-0.5,3.7-2.3,6.8-5.2,9.2c-3,2.4-6.5,3.6-10.7,3.6c-5.5,0-9.8-1.7-12.9-5.1
		c-3.1-3.4-4.6-7.8-4.6-13.1c0-5.1,1.7-9.4,5-12.9c3.3-3.5,7.4-5.3,12.4-5.3c4.3,0,7.9,1.3,10.9,3.8c3,2.5,4.6,5.7,5,9.6h-6.2
		c-0.4-2.2-1.4-4.1-3.1-5.6c-1.7-1.5-4-2.2-6.8-2.2c-3.3,0-5.9,1.2-7.9,3.6c-2,2.4-3,5.4-3,9.1c0,3.8,1,6.8,2.9,9.2
		c1.9,2.4,4.7,3.5,8.3,3.5c2.5,0,4.6-0.7,6.3-2c1.7-1.4,2.8-3.1,3.4-5.3H75.5z"/>
	<path class="st0" d="M112.4,74L98.2,88.7l14.2,20.3h-7.1L94.1,93l-5,5.1V109h-6.2V59.3h6.2v30.2h0.6L104.5,74H112.4z"/>
	<path class="st0" d="M131.5,73.3c4.9,0,8.9,1.7,12,5c3,3.3,4.3,8.2,3.9,14.5h-26.5c0.2,3.5,1.3,6.4,3.1,8.4
		c1.9,2.1,4.6,3.1,8.1,3.1c2.1,0,4-0.5,5.6-1.4c1.7-0.9,2.9-2.3,3.7-4.1h5.9c-0.9,3.5-2.7,6.2-5.5,8.1c-2.8,1.9-6,2.8-9.7,2.8
		c-5.3,0-9.5-1.7-12.6-5c-3.1-3.3-4.7-7.8-4.7-13.4c0-5.2,1.6-9.5,4.7-12.9C122.7,75,126.7,73.3,131.5,73.3z M121,88.1h20.5
		c-0.1-2.7-1-5-2.8-6.9c-1.8-1.9-4.1-2.8-7.1-2.8c-2.8,0-5.2,0.9-7.1,2.6C122.7,82.8,121.5,85.1,121,88.1z"/>
	<path class="st0" d="M172.3,108.1c-1.7,1.1-3.6,1.6-5.7,1.6c-5.7,0-8.6-3.1-8.6-9.4V79.1h-6.8v-4.5h2c3.6,0,5.4-1.6,5.4-4.9v-4.5
		h5.5V74h8.3v5.1h-8.3v20.6c0,2.9,1.2,4.4,3.5,4.4c1.1,0,2.1-0.3,3.1-1L172.3,108.1z"/>
	<path class="st0" d="M203.7,100c0,3-1.2,5.4-3.6,7.1c-2.4,1.7-5.4,2.6-9.1,2.6c-4.2,0-7.5-1.1-10-3.3c-2.5-2.2-3.8-5.1-3.8-8.6h6
		c0,2.3,0.9,4.1,2.5,5.3c1.6,1.2,3.4,1.8,5.5,1.8c1.8,0,3.3-0.4,4.6-1.3c1.2-0.9,1.9-2.1,1.9-3.6c0-1.6-0.7-2.9-2.1-3.9
		c-1.4-1-3.4-1.8-6.1-2.6c-1.5-0.5-2.8-0.9-3.9-1.4c-1.1-0.5-2.3-1.1-3.4-1.9c-1.2-0.8-2.1-1.8-2.7-2.9c-0.6-1.2-0.9-2.5-0.9-3.9
		c0-3,1.1-5.4,3.4-7.2c2.3-1.8,5.2-2.7,8.8-2.7c3.7,0,6.6,1,8.8,3c2.2,2,3.3,4.5,3.4,7.4H197c-0.1-1.6-0.8-3-2-4
		c-1.3-1-2.8-1.5-4.8-1.5c-1.6,0-2.9,0.4-4,1.2c-1.1,0.8-1.6,1.9-1.6,3.3c0,1.4,0.6,2.6,1.8,3.5c1.2,0.9,3.1,1.8,5.7,2.6
		c3.8,1.2,6.7,2.6,8.7,4.2C202.7,94.7,203.7,97,203.7,100z"/>
	<path class="st0" d="M18.5,169.7c-5.1,0-9.4-1.7-12.7-5.2c-3.4-3.5-5-7.8-5-13.1c0-5.2,1.7-9.5,5-12.9c3.3-3.5,7.6-5.2,12.7-5.2
		c5.1,0,9.4,1.7,12.7,5.2c3.4,3.5,5,7.8,5,13c0,5.3-1.7,9.6-5,13.1C27.9,168,23.7,169.7,18.5,169.7z M18.4,164.2
		c3.4,0,6.2-1.2,8.3-3.7c2.1-2.5,3.2-5.4,3.2-9c0-3.5-1.1-6.5-3.3-9c-2.2-2.5-4.9-3.7-8.3-3.7s-6.1,1.2-8.2,3.7
		C8.1,145,7,148,7,151.5c0,3.5,1.1,6.5,3.2,9C12.3,162.9,15,164.2,18.4,164.2z"/>
	<path class="st0" d="M60.3,133.3c3.8,0,6.9,1.3,9.3,3.9c2.4,2.6,3.6,6.2,3.6,10.9V169h-6.4v-19.7c0-3.4-0.8-5.9-2.3-7.7
		c-1.6-1.8-3.7-2.6-6.3-2.6c-2.4,0-4.4,0.8-6.1,2.5c-1.7,1.7-2.5,4.1-2.5,7.5V169h-6.4v-35H48l1,4.4h0.6
		C51.8,135,55.4,133.3,60.3,133.3z"/>
	<path class="st0" d="M82.2,119.3h6.3V169h-6.3V119.3z"/>
	<path class="st0" d="M103.6,127.3c-0.8,0.8-1.8,1.2-3,1.2c-1.2,0-2.2-0.4-3-1.2s-1.3-1.8-1.3-3c0-1.2,0.4-2.2,1.3-3s1.8-1.2,3-1.2
		c1.2,0,2.2,0.4,3,1.2c0.8,0.8,1.2,1.8,1.2,3C104.9,125.5,104.5,126.5,103.6,127.3z M103.7,134v35h-6.2v-35H103.7z"/>
	<path class="st0" d="M130.4,133.3c3.8,0,6.9,1.3,9.3,3.9c2.4,2.6,3.6,6.2,3.6,10.9V169h-6.4v-19.7c0-3.4-0.8-5.9-2.3-7.7
		c-1.6-1.8-3.7-2.6-6.3-2.6c-2.4,0-4.4,0.8-6.1,2.5c-1.7,1.7-2.5,4.1-2.5,7.5V169h-6.4v-35h4.8l1,4.4h0.6
		C122,135,125.6,133.3,130.4,133.3z"/>
	<path class="st0" d="M166.9,133.3c4.9,0,8.9,1.7,12,5c3,3.3,4.3,8.2,3.9,14.5h-26.5c0.2,3.5,1.3,6.4,3.1,8.4
		c1.9,2.1,4.6,3.1,8.1,3.1c2.1,0,4-0.5,5.6-1.4c1.7-0.9,2.9-2.3,3.7-4.1h5.9c-0.9,3.5-2.7,6.2-5.5,8.1c-2.8,1.9-6,2.8-9.7,2.8
		c-5.3,0-9.5-1.7-12.6-5c-3.1-3.3-4.7-7.8-4.7-13.4c0-5.2,1.6-9.5,4.7-12.9C158.2,135,162.1,133.3,166.9,133.3z M156.5,148.1H177
		c-0.1-2.7-1-5-2.8-6.9c-1.8-1.9-4.1-2.8-7.1-2.8c-2.8,0-5.2,0.9-7.1,2.6C158.2,142.8,157,145.1,156.5,148.1z"/>
</g>
</svg>
