<?xml version="1.0" encoding="utf-8"?>
<!-- Generator: Adobe Illustrator 24.0.0, SVG Export Plug-In . SVG Version: 6.00 Build 0)  -->
<svg version="1.1" id="Laag_1" xmlns="http://www.w3.org/2000/svg" xmlns:xlink="http://www.w3.org/1999/xlink" x="0px" y="0px"
	 width="124.4px" height="26.7px" viewBox="0 0 124.4 26.7" style="enable-background:new 0 0 124.4 26.7;" xml:space="preserve">
<style type="text/css">
	.st0{fill:#FFFFFF;}
</style>
<g>
	<path class="st0" d="M27.7,19.7l-2.9-9.4h-0.1c0.1,1.9,0.2,3.2,0.2,3.8v5.6h-2.3v-12h3.5l2.8,9.2h0l3-9.2h3.5v12h-2.4V14
		c0-0.3,0-0.6,0-0.9s0-1.3,0.1-2.8h-0.1l-3.1,9.4H27.7z"/>
	<path class="st0" d="M46.7,15.1c0,1.5-0.4,2.7-1.2,3.5c-0.8,0.8-1.9,1.3-3.3,1.3c-0.9,0-1.7-0.2-2.3-0.6c-0.7-0.4-1.2-0.9-1.6-1.7
		c-0.4-0.7-0.5-1.6-0.5-2.5c0-1.5,0.4-2.7,1.2-3.5s1.9-1.2,3.3-1.2c0.9,0,1.7,0.2,2.3,0.6c0.7,0.4,1.2,0.9,1.6,1.7
		C46.5,13.3,46.7,14.1,46.7,15.1z M40.3,15.1c0,0.9,0.1,1.6,0.4,2.1c0.3,0.5,0.8,0.7,1.5,0.7c0.7,0,1.1-0.2,1.4-0.7
		c0.3-0.5,0.4-1.2,0.4-2.1c0-0.9-0.1-1.6-0.4-2c-0.3-0.5-0.8-0.7-1.5-0.7c-0.7,0-1.1,0.2-1.4,0.7C40.5,13.5,40.3,14.2,40.3,15.1z"/>
	<path class="st0" d="M53.9,10.3c0.3,0,0.6,0,0.8,0.1l-0.2,2.3c-0.2-0.1-0.4-0.1-0.7-0.1c-0.8,0-1.4,0.2-1.9,0.6s-0.7,1-0.7,1.7v4.7
		h-2.5v-9.2h1.9l0.4,1.5h0.1c0.3-0.5,0.7-0.9,1.2-1.2C52.8,10.5,53.3,10.3,53.9,10.3z"/>
	<path class="st0" d="M60.5,19.9c-1.5,0-2.6-0.4-3.5-1.2c-0.8-0.8-1.2-2-1.2-3.5c0-1.5,0.4-2.7,1.2-3.6c0.8-0.8,1.8-1.3,3.2-1.3
		c1.3,0,2.3,0.4,3,1.1s1.1,1.8,1.1,3.1v1.2h-5.9c0,0.7,0.2,1.3,0.6,1.7c0.4,0.4,0.9,0.6,1.7,0.6c0.6,0,1.1-0.1,1.6-0.2
		c0.5-0.1,1-0.3,1.5-0.6v1.9c-0.4,0.2-0.9,0.4-1.4,0.5S61.3,19.9,60.5,19.9z M60.2,12.1c-0.5,0-0.9,0.2-1.2,0.5
		c-0.3,0.3-0.5,0.8-0.5,1.4h3.5c0-0.6-0.2-1.1-0.5-1.4S60.7,12.1,60.2,12.1z"/>
	<path class="st0" d="M70.6,8.1c0-0.8,0.5-1.2,1.4-1.2s1.4,0.4,1.4,1.2c0,0.4-0.1,0.7-0.3,0.9c-0.2,0.2-0.6,0.3-1,0.3
		C71,9.4,70.6,9,70.6,8.1z M73.2,19.7h-2.5v-9.2h2.5V19.7z"/>
	<path class="st0" d="M84.3,19.7h-2.5v-5.4c0-0.7-0.1-1.2-0.4-1.5c-0.2-0.3-0.6-0.5-1.1-0.5c-0.7,0-1.2,0.2-1.5,0.7
		c-0.3,0.5-0.5,1.2-0.5,2.3v4.3h-2.5v-9.2h1.9l0.3,1.2h0.1c0.3-0.4,0.7-0.8,1.2-1c0.5-0.2,1-0.3,1.7-0.3c1.1,0,1.9,0.3,2.4,0.9
		s0.8,1.4,0.8,2.5V19.7z"/>
	<path class="st0" d="M92,12.4h-2.2v7.3h-2.5v-7.3h-1.4v-1.2l1.4-0.7V9.8c0-1,0.3-1.8,0.8-2.3c0.5-0.5,1.3-0.7,2.5-0.7
		c0.9,0,1.6,0.1,2.3,0.4l-0.6,1.8c-0.5-0.2-1-0.2-1.4-0.2c-0.4,0-0.6,0.1-0.8,0.3c-0.2,0.2-0.2,0.5-0.2,0.8v0.6H92V12.4z"/>
	<path class="st0" d="M101.7,15.1c0,1.5-0.4,2.7-1.2,3.5s-1.9,1.3-3.3,1.3c-0.9,0-1.7-0.2-2.3-0.6c-0.7-0.4-1.2-0.9-1.6-1.7
		s-0.5-1.6-0.5-2.5c0-1.5,0.4-2.7,1.2-3.5c0.8-0.8,1.9-1.2,3.3-1.2c0.9,0,1.7,0.2,2.3,0.6c0.7,0.4,1.2,0.9,1.6,1.7
		C101.6,13.3,101.7,14.1,101.7,15.1z M95.4,15.1c0,0.9,0.1,1.6,0.4,2.1c0.3,0.5,0.8,0.7,1.5,0.7c0.7,0,1.1-0.2,1.4-0.7
		c0.3-0.5,0.4-1.2,0.4-2.1c0-0.9-0.1-1.6-0.4-2c-0.3-0.5-0.8-0.7-1.5-0.7c-0.7,0-1.1,0.2-1.4,0.7C95.5,13.5,95.4,14.2,95.4,15.1z"/>
</g>
</svg>
