<?xml version="1.0" encoding="utf-8"?>
<!-- Generator: Adobe Illustrator 24.0.0, SVG Export Plug-In . SVG Version: 6.00 Build 0)  -->
<svg version="1.1" id="Laag_1" xmlns="http://www.w3.org/2000/svg" xmlns:xlink="http://www.w3.org/1999/xlink" x="0px" y="0px"
	 width="155.5px" height="52.8px" viewBox="0 0 155.5 52.8" style="enable-background:new 0 0 155.5 52.8;" xml:space="preserve">
<style type="text/css">
	.st0{fill:#FFFFFF;}
</style>
<g>
	<path class="st0" d="M4.4,4.3c0.9,0.3,1.4,0.9,1.4,1.8c0,0.6-0.2,1.1-0.7,1.5C4.7,7.9,4.1,8,3.5,8H0.9V0.8h2.3
		c0.7,0,1.2,0.2,1.6,0.5s0.6,0.8,0.6,1.3C5.5,3.4,5.1,3.9,4.4,4.3L4.4,4.3z M1.8,1.6v2.3h1.4c0.4,0,0.8-0.1,1-0.3
		c0.2-0.2,0.4-0.5,0.4-0.9S4.5,2.1,4.2,1.9C4,1.7,3.6,1.6,3.2,1.6C3.2,1.6,1.8,1.6,1.8,1.6z M3.3,7.2c0.5,0,0.8-0.1,1.1-0.3
		C4.7,6.7,4.8,6.4,4.8,6S4.7,5.3,4.4,5.1C4.2,4.8,3.8,4.7,3.3,4.7H1.8v2.5H3.3z"/>
	<path class="st0" d="M10.6,8.1C9.6,8.1,8.7,7.7,8,7C7.3,6.3,7,5.4,7,4.4s0.3-1.9,1-2.6s1.5-1.1,2.6-1.1s1.9,0.4,2.6,1.1
		s1,1.6,1,2.6s-0.3,1.9-1,2.6C12.4,7.8,11.6,8.1,10.6,8.1z M10.6,7.2c0.7,0,1.4-0.3,1.9-0.8s0.7-1.2,0.7-2S13,3,12.5,2.4
		s-1.1-0.8-1.9-0.8S9.2,1.9,8.7,2.4C8.2,3,8,3.6,8,4.4s0.2,1.4,0.7,2C9.2,6.9,9.8,7.2,10.6,7.2z"/>
	<path class="st0" d="M19.1,8.1c-1,0-1.9-0.4-2.6-1.1c-0.7-0.7-1-1.6-1-2.6s0.3-1.9,1-2.6c0.7-0.7,1.5-1.1,2.6-1.1
		c1,0,1.9,0.4,2.6,1.1s1,1.6,1,2.6s-0.3,1.9-1,2.6C20.9,7.8,20.1,8.1,19.1,8.1z M19.1,7.2c0.7,0,1.4-0.3,1.9-0.8s0.7-1.2,0.7-2
		S21.5,3,21,2.4s-1.1-0.8-1.9-0.8c-0.7,0-1.4,0.3-1.9,0.8s-0.7,1.2-0.7,2s0.2,1.4,0.7,2S18.3,7.2,19.1,7.2z"/>
	<path class="st0" d="M27.1,4.3h3.2V8h-0.6l-0.2-0.8h-0.1c-0.6,0.6-1.3,0.9-2.2,0.9c-1,0-1.8-0.3-2.4-1C24.3,6.5,24,5.6,24,4.6
		c0-1.1,0.3-2,0.9-2.8c0.6-0.7,1.4-1.1,2.4-1.1c0.9,0,1.6,0.2,2.1,0.6s0.8,1,0.9,1.6h-1c-0.1-0.4-0.3-0.7-0.6-1s-0.8-0.4-1.3-0.4
		c-0.7,0-1.3,0.3-1.7,0.8C25.2,3,25,3.7,25,4.5s0.2,1.5,0.6,2s1,0.8,1.8,0.8c0.4,0,0.8-0.1,1.2-0.3c0.3-0.2,0.6-0.4,0.8-0.6V5.1
		h-2.2L27.1,4.3L27.1,4.3z"/>
	<path class="st0" d="M36.7,8l-0.6-1.8h-3L32.5,8h-1L34,0.8h1.3L37.7,8H36.7z M33.4,5.3h2.4l-1.2-3.4h-0.1L33.4,5.3z"/>
	<path class="st0" d="M39.8,7.1h3.8V8h-4.7V0.8h4.6v0.9h-3.7V4H43v0.8h-3.2V7.1z"/>
	<path class="st0" d="M49.9,8h-1.1l-1.7-2.9l0,0h-1.4V8h-0.9V0.8h2.5C48,0.8,48.5,1,49,1.4c0.4,0.4,0.6,0.9,0.6,1.5
		c0,0.5-0.1,0.9-0.4,1.2c-0.3,0.4-0.6,0.6-1.1,0.8L49.9,8z M45.7,1.7v2.5h1.4c0.5,0,0.9-0.1,1.1-0.3c0.3-0.2,0.4-0.5,0.4-0.9
		s-0.1-0.7-0.4-0.9c-0.3-0.2-0.6-0.3-1.1-0.3L45.7,1.7L45.7,1.7z"/>
	<path class="st0" d="M53.3,0.8c1.2,0,2.1,0.3,2.7,1c0.6,0.6,0.9,1.5,0.9,2.6s-0.3,2-0.9,2.7c-0.6,0.7-1.5,1-2.7,1h-2.1V0.8H53.3z
		 M53.3,7.1c0.9,0,1.5-0.2,2-0.7c0.4-0.5,0.7-1.2,0.7-2S55.8,3,55.3,2.5s-1.1-0.7-2-0.7h-1.2v5.4L53.3,7.1L53.3,7.1z"/>
	<path class="st0" d="M63.1,0.8v0.9H61V8h-1V1.7h-2V0.8H63.1z"/>
	<path class="st0" d="M68.6,0.3l-3.7,8.2h-1l3.7-8.2C67.6,0.3,68.6,0.3,68.6,0.3z"/>
	<path class="st0" d="M74.4,0.8h1L73,8h-1.4l-2.5-7.2h1L72.3,7h0.1L74.4,0.8z"/>
	<path class="st0" d="M81.3,8l-0.6-1.8h-3L77.1,8h-1l2.5-7.2h1.3L82.3,8H81.3z M78,5.3h2.4l-1.2-3.4h-0.1L78,5.3z"/>
	<path class="st0" d="M88.4,0.8h0.9V8h-1l-3.8-5.6h-0.1V8h-0.9V0.8h1.1l3.7,5.6h0.1C88.4,6.4,88.4,0.8,88.4,0.8z"/>
	<path class="st0" d="M93.1,0.8c1.2,0,2.1,0.3,2.7,1c0.6,0.6,0.9,1.5,0.9,2.6s-0.3,2-0.9,2.7s-1.5,1-2.7,1H91V0.8H93.1z M93.1,7.1
		c0.9,0,1.5-0.2,2-0.7c0.4-0.5,0.7-1.2,0.7-2S95.6,3,95.1,2.5s-1.1-0.7-2-0.7h-1.2v5.4L93.1,7.1L93.1,7.1z"/>
	<path class="st0" d="M99.2,7.1h3.8V8h-4.7V0.8h4.6v0.9h-3.7V4h3.2v0.8h-3.2C99.2,4.8,99.2,7.1,99.2,7.1z"/>
	<path class="st0" d="M109.3,8h-1.1l-1.7-2.9l0,0h-1.4V8h-0.9V0.8h2.5c0.7,0,1.3,0.2,1.7,0.6c0.4,0.4,0.6,0.9,0.6,1.5
		c0,0.5-0.1,0.9-0.4,1.2c-0.3,0.4-0.6,0.6-1.1,0.8L109.3,8z M105.1,1.7v2.5h1.4c0.5,0,0.9-0.1,1.1-0.3c0.3-0.2,0.4-0.5,0.4-0.9
		s-0.1-0.7-0.4-0.9s-0.6-0.3-1.1-0.3L105.1,1.7L105.1,1.7z"/>
	<path class="st0" d="M115.4,6.2c0,0.6-0.2,1.1-0.7,1.4c-0.4,0.3-1,0.5-1.8,0.5s-1.5-0.2-1.9-0.6c-0.5-0.4-0.7-1-0.7-1.6h1
		c0,0.4,0.2,0.8,0.4,1c0.3,0.3,0.7,0.4,1.2,0.4c0.4,0,0.8-0.1,1-0.3c0.3-0.2,0.4-0.5,0.4-0.8s-0.1-0.6-0.4-0.8
		c-0.2-0.2-0.7-0.4-1.3-0.6c-0.7-0.2-1.2-0.5-1.6-0.8s-0.6-0.7-0.6-1.3s0.2-1.1,0.6-1.4c0.4-0.4,1-0.5,1.6-0.5
		c0.7,0,1.3,0.2,1.8,0.6c0.4,0.4,0.7,0.9,0.7,1.5h-0.9c0-0.3-0.2-0.6-0.4-0.9c-0.3-0.2-0.6-0.4-1.1-0.4c-0.4,0-0.7,0.1-0.9,0.3
		s-0.4,0.5-0.4,0.8s0.1,0.6,0.4,0.8c0.2,0.2,0.7,0.4,1.2,0.6c0.8,0.3,1.3,0.6,1.7,0.9C115.3,5.2,115.4,5.7,115.4,6.2z"/>
	<path class="st0" d="M123.3,5.8c-0.1,0.7-0.5,1.2-1.1,1.7c-0.6,0.4-1.2,0.6-2,0.6c-1.1,0-1.9-0.3-2.5-1s-1-1.6-1-2.7s0.3-2,0.9-2.7
		s1.4-1.1,2.4-1.1c0.8,0,1.4,0.2,2,0.6s0.9,1,1,1.7h-1c-0.1-0.4-0.4-0.8-0.7-1.1c-0.3-0.3-0.8-0.4-1.3-0.4c-0.7,0-1.3,0.3-1.7,0.8
		s-0.7,1.2-0.7,2s0.2,1.5,0.7,2c0.4,0.5,1,0.8,1.8,0.8c0.5,0,0.9-0.1,1.3-0.4s0.6-0.6,0.8-1h1.1V5.8z"/>
	<path class="st0" d="M129.2,0.8h1V8h-1V4.8h-3.5V8h-1V0.8h1V4h3.5V0.8z"/>
	<path class="st0" d="M135.3,8.1c-1,0-1.9-0.4-2.6-1.1c-0.7-0.7-1-1.6-1-2.6s0.3-1.9,1-2.6s1.5-1.1,2.6-1.1s1.9,0.4,2.6,1.1
		s1,1.6,1,2.6s-0.3,1.9-1,2.6C137.2,7.8,136.3,8.1,135.3,8.1z M135.3,7.2c0.7,0,1.4-0.3,1.8-0.8c0.5-0.5,0.7-1.2,0.7-2
		s-0.2-1.4-0.7-2c-0.5-0.5-1.1-0.8-1.9-0.8s-1.4,0.3-1.8,0.8c-0.5,0.5-0.7,1.2-0.7,2s0.2,1.4,0.7,2C133.9,6.9,134.5,7.2,135.3,7.2z"
		/>
	<path class="st0" d="M143.8,8.1c-1,0-1.9-0.4-2.6-1.1c-0.7-0.7-1-1.6-1-2.6s0.3-1.9,1-2.6s1.5-1.1,2.6-1.1s1.9,0.4,2.6,1.1
		s1,1.6,1,2.6s-0.3,1.9-1,2.6C145.7,7.8,144.8,8.1,143.8,8.1z M143.8,7.2c0.7,0,1.4-0.3,1.8-0.8c0.5-0.5,0.7-1.2,0.7-2
		s-0.2-1.4-0.7-2c-0.5-0.5-1.1-0.8-1.9-0.8s-1.4,0.3-1.8,0.8c-0.5,0.5-0.7,1.2-0.7,2s0.2,1.4,0.7,2C142.4,6.9,143,7.2,143.8,7.2z"/>
	<path class="st0" d="M153.6,0.8v0.9h-2.1V8h-1V1.7h-2.1V0.8H153.6z"/>
	<path class="st0" d="M6.8,20.3h-1l-1-1c-0.3,0.4-0.6,0.6-1,0.8c-0.3,0.2-0.7,0.3-1.2,0.3c-0.6,0-1-0.2-1.4-0.5s-0.6-0.7-0.6-1.2
		s0.1-0.8,0.4-1.1c0.2-0.3,0.6-0.7,1.2-1C2,16.3,1.9,16.2,1.7,16c-0.1-0.1-0.2-0.3-0.4-0.6c-0.1-0.2-0.2-0.5-0.2-0.7
		c0-0.5,0.2-0.9,0.5-1.2S2.4,13,2.9,13c0.6,0,1,0.2,1.4,0.5S5,14.2,5,14.6c0,0.2,0,0.4-0.1,0.6c-0.1,0.2-0.2,0.4-0.4,0.5
		C4.3,15.9,4.2,16,4,16.1c-0.1,0.1-0.3,0.3-0.6,0.5L4.7,18l0.8-1.2h1l-1,1.6c0,0,0,0-0.1,0.1s-0.1,0.1-0.1,0.1L6.8,20.3z M2.7,19.6
		c0.5,0,1.1-0.3,1.6-0.9l-1.5-1.6c-0.4,0.3-0.7,0.6-0.9,0.8c-0.2,0.2-0.3,0.4-0.3,0.7c0,0.3,0.1,0.5,0.3,0.7S2.4,19.6,2.7,19.6z
		 M3.1,13.8c-0.3,0-0.5,0.1-0.7,0.3s-0.3,0.4-0.3,0.7c0,0.2,0.1,0.4,0.2,0.6c0.1,0.2,0.3,0.4,0.6,0.7c0.3-0.2,0.5-0.4,0.7-0.5
		c0.1-0.1,0.3-0.3,0.4-0.4c0.1-0.2,0.2-0.3,0.2-0.5c0-0.3-0.1-0.5-0.3-0.6C3.6,13.9,3.4,13.8,3.1,13.8z"/>
	<path class="st0" d="M15.6,13.2V14h-2.1v6.3h-1V14h-2.1v-0.9L15.6,13.2L15.6,13.2z"/>
	<path class="st0" d="M20.3,20.4c-1,0-1.9-0.4-2.6-1.1s-1-1.6-1-2.6c0-1.1,0.3-1.9,1-2.6c0.7-0.7,1.5-1.1,2.6-1.1
		c1,0,1.9,0.4,2.6,1.1c0.7,0.7,1,1.6,1,2.6c0,1.1-0.3,1.9-1,2.6C22.2,20.1,21.3,20.4,20.3,20.4z M20.3,19.5c0.7,0,1.4-0.3,1.9-0.8
		s0.7-1.2,0.7-2c0-0.8-0.2-1.4-0.7-2S21,14,20.3,14s-1.4,0.3-1.9,0.8s-0.7,1.2-0.7,2s0.2,1.4,0.7,2C18.9,19.3,19.6,19.5,20.3,19.5z"
		/>
	<path class="st0" d="M31.1,13.2v4.4c0,0.9-0.3,1.7-0.8,2.2s-1.2,0.8-2,0.8s-1.5-0.3-2.1-0.8c-0.5-0.5-0.8-1.2-0.8-2.2v-4.4h1v4.3
		c0,0.7,0.2,1.2,0.5,1.5c0.3,0.4,0.8,0.5,1.3,0.5s1-0.2,1.3-0.5s0.5-0.9,0.5-1.5v-4.3H31.1z"/>
	<path class="st0" d="M36.9,20.3l-2.7-3.2h-0.5v3.2h-1v-7.2h1v3h0.5l2.4-3h1.1L35,16.6v0.1l3,3.7h-1.1V20.3z"/>
	<path class="st0" d="M40.2,13.2v7.2h-1v-7.2H40.2z"/>
	<path class="st0" d="M47,13.2c1.2,0,2.1,0.3,2.7,1c0.6,0.6,0.9,1.5,0.9,2.6s-0.3,2-0.9,2.7c-0.6,0.7-1.5,1-2.7,1h-2.1v-7.2H47V13.2
		z M46.9,19.4c0.9,0,1.5-0.2,2-0.7c0.4-0.5,0.7-1.2,0.7-2c0-0.8-0.2-1.4-0.7-1.9s-1.1-0.7-2-0.7h-1.2v5.4h1.2V19.4z"/>
	<path class="st0" d="M53,19.5h3.8v0.9h-4.7v-7.2h4.6V14H53v2.2h3.2V17H53V19.5z"/>
	<path class="st0" d="M59,19.4h3.7v0.9H58v-7.2h1V19.4z"/>
	<path class="st0" d="M66.6,13.2c0.7,0,1.3,0.2,1.7,0.6c0.4,0.4,0.6,0.9,0.6,1.6c0,0.7-0.2,1.2-0.6,1.6s-1,0.6-1.8,0.6h-1.6v2.8H64
		v-7.2H66.6z M66.5,16.7c0.5,0,0.9-0.1,1.1-0.4c0.3-0.2,0.4-0.6,0.4-1s-0.1-0.7-0.4-1C67.3,14.1,67,14,66.5,14h-1.6v2.7H66.5z"/>
	<path class="st0" d="M75,13.2h1v7.2h-1v-3.2h-3.5v3.2h-1v-7.2h1v3.1H75V13.2z"/>
	<path class="st0" d="M78.6,13.2v7.2h-1v-7.2H78.6z"/>
	<path class="st0" d="M85.2,13.2h0.9v7.2h-1l-3.8-5.6h-0.1v5.6h-0.9v-7.2h1.1l3.7,5.6h0.1C85.2,18.8,85.2,13.2,85.2,13.2z"/>
	<path class="st0" d="M88.7,19.5h3.8v0.9h-4.7v-7.2h4.6V14h-3.7v2.2h3.2V17h-3.2C88.7,17,88.7,19.5,88.7,19.5z"/>
</g>
<g>
	<path class="st0" d="M3.8,36.9c-0.6,0-1.1-0.2-1.6-0.7s-0.7-1.1-0.7-1.8c0-0.8,0.2-1.4,0.7-1.9s1.1-0.7,1.9-0.7S5.6,32,6,32.5
		s0.7,1.1,0.7,1.9c0,0.4-0.1,0.9-0.3,1.3c-0.2,0.4-0.4,0.9-0.8,1.4l-1.7,2.7H2.8L5,36.6C4.7,36.8,4.3,36.9,3.8,36.9z M4.2,32.8
		c-0.5,0-0.9,0.2-1.2,0.5S2.6,34,2.6,34.5s0.1,0.8,0.4,1.2s0.7,0.5,1.1,0.5c0.5,0,0.9-0.2,1.2-0.5s0.4-0.7,0.4-1.2s-0.1-0.9-0.4-1.2
		S4.6,32.8,4.2,32.8z"/>
	<path class="st0" d="M12.9,37.3c0,0.4,0.2,0.8,0.4,1.1s0.6,0.4,1.1,0.4c0.4,0,0.8-0.1,1.1-0.4c0.3-0.3,0.4-0.7,0.4-1.3v-5.9H17v6
		c0,0.9-0.2,1.5-0.7,2s-1.1,0.7-1.9,0.7c-0.8,0-1.4-0.2-1.9-0.7s-0.7-1.1-0.7-1.9C11.8,37.3,12.9,37.3,12.9,37.3z"/>
	<path class="st0" d="M24.7,39.8L24,37.6h-3.5l-0.7,2.2h-1.2l3-8.6h1.5l2.9,8.6H24.7z M20.8,36.6h2.8l-1.4-4.1h-0.1L20.8,36.6z"/>
	<path class="st0" d="M33.2,31.2h1.1v8.6h-1.2l-4.5-6.7h-0.1v6.7h-1.1v-8.6h1.3l4.4,6.7h0.1C33.2,37.9,33.2,31.2,33.2,31.2z"/>
	<path class="st0" d="M39.2,35.5h4.4v0.9h-4.4V35.5z"/>
	<path class="st0" d="M51.2,36.6c-1.2,0.7-1.8,1.5-1.8,2.2h3.8v1H48v-0.5c0-1.3,0.7-2.4,2.1-3.3c0.8-0.5,1.3-0.9,1.5-1.1
		c0.3-0.3,0.4-0.6,0.4-0.9c0-0.4-0.1-0.7-0.4-0.9c-0.2-0.2-0.6-0.4-1-0.4c-0.5,0-0.9,0.2-1.1,0.5c-0.3,0.3-0.4,0.7-0.4,1.2H48
		c0-0.4,0.1-0.8,0.3-1.2s0.5-0.7,0.9-1s0.9-0.4,1.5-0.4c0.7,0,1.3,0.2,1.8,0.6c0.5,0.4,0.7,0.9,0.7,1.6c0,0.5-0.2,1-0.5,1.4
		S51.9,36.2,51.2,36.6z"/>
	<path class="st0" d="M57.3,36.9c-0.6,0-1.1-0.2-1.6-0.7S55,35.1,55,34.4c0-0.8,0.2-1.4,0.7-1.9s1.1-0.7,1.9-0.7
		c0.8,0,1.5,0.2,1.9,0.7s0.7,1.1,0.7,1.9c0,0.4-0.1,0.9-0.3,1.3c-0.2,0.4-0.4,0.9-0.8,1.4l-1.7,2.7h-1.3l2.2-3.2
		C58.2,36.8,57.8,36.9,57.3,36.9z M57.6,32.8c-0.5,0-0.9,0.2-1.2,0.5S56,34,56,34.5s0.1,0.8,0.4,1.2s0.7,0.5,1.1,0.5
		c0.5,0,0.9-0.2,1.2-0.5s0.4-0.7,0.4-1.2s-0.1-0.9-0.4-1.2S58.1,32.8,57.6,32.8z"/>
	<path class="st0" d="M70.9,32.3h-4.2V35h3.6v1h-3.6v3.7h-1.1v-8.6h5.3C70.9,31.1,70.9,32.3,70.9,32.3z"/>
	<path class="st0" d="M73.6,38.8H78v1h-5.6v-8.6h5.4v1h-4.3v2.7h3.8v1h-3.8L73.6,38.8L73.6,38.8z"/>
	<path class="st0" d="M83.7,35.3c1.1,0.4,1.7,1.1,1.7,2.2c0,0.8-0.3,1.4-0.8,1.8c-0.5,0.4-1.2,0.6-2,0.6h-3.1v-8.6h2.7
		c0.8,0,1.5,0.2,1.9,0.6c0.5,0.4,0.7,0.9,0.7,1.6C85,34.3,84.6,34.9,83.7,35.3L83.7,35.3z M80.7,32.2v2.7h1.6c0.5,0,0.9-0.1,1.2-0.4
		c0.3-0.2,0.4-0.6,0.4-1s-0.1-0.8-0.4-1s-0.7-0.3-1.1-0.3H80.7z M82.5,38.8c0.5,0,1-0.1,1.3-0.4c0.3-0.3,0.5-0.6,0.5-1.1
		s-0.2-0.8-0.5-1.1s-0.8-0.4-1.3-0.4h-1.8v3H82.5z"/>
</g>
</svg>
