<?xml version="1.0" encoding="utf-8"?>
<!-- Generator: Adobe Illustrator 24.0.0, SVG Export Plug-In . SVG Version: 6.00 Build 0)  -->
<svg version="1.1" id="Layer_1" xmlns="http://www.w3.org/2000/svg" xmlns:xlink="http://www.w3.org/1999/xlink" x="0px" y="0px"
	 width="140px" height="94px" viewBox="0 0 140 94" style="enable-background:new 0 0 140 94;" xml:space="preserve">
<style type="text/css">
	.st0{fill:#3C3791;}
	.st1{fill:#FFFFFF;}
</style>
<g>
	
		<rect x="30.8" y="37.3" transform="matrix(0.7071 -0.7071 0.7071 0.7071 -21.5701 42.8784)" class="st0" width="20.3" height="20.3"/>
	<path class="st1" d="M65.3,12.3V7.9h2.1c1.5,0,2.4,0.6,2.4,2.2s-1,2.2-2.4,2.2H65.3z M67.6,1.3H57.5v24.5h7.8v-6.7h2.3
		c7.1,0,10.2-3.3,10.2-8.9S74.7,1.3,67.6,1.3"/>
	<polygon class="st1" points="125,1.3 117.6,1.3 117.6,12.8 110.7,1.3 103.2,1.3 103.2,25.8 110.6,25.8 110.6,14.1 117.8,25.8 
		125,25.8 	"/>
	<polygon class="st1" points="17.4,35.3 12.6,42.5 7.9,35.3 0.8,35.3 0.8,59.9 8.4,59.9 8.4,48 12.1,53.4 13,53.4 16.8,48 
		16.8,59.9 24.4,59.9 24.4,35.3 	"/>
	<polygon class="st1" points="79.3,35.3 71.9,35.3 71.9,46.8 64.9,35.3 57.5,35.3 57.5,59.9 64.9,59.9 64.9,48.1 72,59.9 79.3,59.9 
			"/>
	<path class="st1" d="M103.7,35.3h-8.3V49c0,2.9-0.3,3.6-1.6,3.6c-1.1,0-1.7-0.8-1.7-3.6V35.3h-8.3v14c0,7.7,3.2,11,10,11
		c6.3,0,10-3.3,10-11L103.7,35.3L103.7,35.3z"/>
	<polygon class="st1" points="17.4,69.4 12.6,76.5 7.9,69.4 0.8,69.4 0.8,93.9 8.4,93.9 8.4,82 12.1,87.5 13,87.5 16.8,82 
		16.8,93.9 24.4,93.9 24.4,69.4 	"/>
	<polygon class="st1" points="64.5,69.4 64.5,80.9 57.6,69.4 50.1,69.4 50.1,93.9 57.5,93.9 57.5,82.2 64.7,93.9 71.9,93.9 
		71.9,69.4 	"/>
	<polygon class="st1" points="74.3,69.4 74.3,76.9 79.9,76.9 79.9,93.9 87.8,93.9 87.8,76.9 93.3,76.9 93.3,69.4 	"/>
	<polygon class="st1" points="131.9,69.4 131.9,80.9 124.9,69.4 117.5,69.4 117.5,93.9 124.9,93.9 124.9,82.2 132,93.9 139.2,93.9 
		139.2,69.4 	"/>
	<path class="st0" d="M41,0.1L41,0.1c-7.3,0-13.2,5.9-13.2,13.2c0,3.5,1.3,6.2,3.6,9.1c1,1.2,5.9,6.4,9.6,10.7
		c3.7-4.3,8.6-9.5,9.6-10.7c2.3-2.9,3.6-5.6,3.6-9.1C54.2,6,48.3,0.1,41,0.1z M41,17.9c-2.7,0-4.9-2.2-4.9-4.9s2.2-4.9,4.9-4.9
		s4.9,2.2,4.9,4.9S43.7,17.9,41,17.9z"/>
	<g>
		<polygon class="st1" points="89.3,18.7 89.3,18.5 89.3,16.4 89.3,16.3 99.1,16.3 99.1,10.5 89.3,10.5 89.3,10.3 89.3,8.2 
			89.3,8.1 99.1,8.1 99.1,1.3 81.5,1.3 81.5,25.8 99.1,25.8 99.1,18.7 		"/>
	</g>
	<g>
		<polygon class="st1" points="103.6,86.8 103.6,86.6 103.6,84.5 103.6,84.4 113.4,84.4 113.4,78.6 103.6,78.6 103.6,78.5 
			103.6,76.3 103.6,76.2 113.4,76.2 113.4,69.4 95.8,69.4 95.8,93.9 113.4,93.9 113.4,86.8 		"/>
	</g>
	<g>
		<polygon class="st1" points="36.2,86.8 36.2,86.6 36.2,84.5 36.2,84.4 46,84.4 46,78.6 36.2,78.6 36.2,78.5 36.2,76.3 36.2,76.2 
			46,76.2 46,69.4 28.4,69.4 28.4,93.9 46,93.9 46,86.8 		"/>
	</g>
</g>
</svg>
