<?xml version="1.0" encoding="utf-8"?>
<!-- Generator: Adobe Illustrator 23.0.2, SVG Export Plug-In . SVG Version: 6.00 Build 0)  -->
<svg version="1.1" id="Laag_1" xmlns="http://www.w3.org/2000/svg" xmlns:xlink="http://www.w3.org/1999/xlink" x="0px" y="0px"
	 width="464.8px" height="144.8px" viewBox="0 0 464.8 144.8" style="enable-background:new 0 0 464.8 144.8;" xml:space="preserve"
	>
<style type="text/css">
	.st0{fill:#FFFFFF;}
</style>
<g>
	<polygon class="st0" points="7.1,138.1 242.9,138.1 245.5,131.6 453.1,131.6 453.1,124.7 7.1,124.7 	"/>
	<path class="st0" d="M254.5,103.2L254.5,103.2c2.7,1.5,6.2,2.5,10.2,2.5c9.2,0,18.3-7.2,23.7-12v12l23.1-4.2v-6.3
		c-5.6,1.4-9.5-0.9-9.5-5.2V30.8l-20.8,1.5l-2.4,6.5c6,0.1,9.7,2.8,9.7,8.9v40c-2.8,2-10.1,7.2-17.5,7.2c-5.1,0-9.1-2.4-11.1-5.6
		l2.2-6.1c-1-2.2-1.5-4.9-1.5-8V31.1h-19.4V78C241.2,89.7,245.9,98.8,254.5,103.2z"/>
	<path class="st0" d="M193.4,83.4c0,12.9,6.7,20.8,21,20.8h13.4V88.8h-7.8c-5.1,0-7-2-7-6.8V46.6h15.8V31.1h-15.8v-20h-19.5v20
		h-10.6v15.5h10.6V83.4z"/>
	<polygon class="st0" points="26.6,38.7 70.2,104.3 89.1,104.3 89.1,5.8 69.6,5.8 69.6,71.4 26.1,5.8 7.1,5.8 7.1,104.3 26.6,104.3 
			"/>
	<path class="st0" d="M135.1,60c-17.8,0-30,7.3-30,23.2c0,14.2,11.4,22.8,28.1,22.8c8.6,0,18-3.5,21.4-8.4v6.8h18.7V57.6
		c0-17-12.7-28.1-31.2-28.1c-16,0-27.5,7.6-31.8,21.8h18c2-3.9,6.1-6.9,12.8-6.9c8,0,12.8,5.1,12.8,11.8v10
		C150.5,63.3,143.9,60,135.1,60z M138.2,93.3c-8.1,0-14.3-3.9-14.3-10.7c0-6.7,5.7-10.4,14.8-10.4c8.7,0,15.1,3.8,15.1,10.3
		C153.9,88.6,146.7,93.3,138.2,93.3z"/>
	<path class="st0" d="M366,98.2h-5.5c-6.1,0-9.8-3.4-9.8-10.3V55.5c2.2-4,6.6-11.7,12.2-11.7s5.5,6.8,11.6,6.8
		c4.7,0,6.4-10.2,6.4-10.5c0-2.9-4.4-8.2-10.9-8.2c-8.1,0-12.8,5.8-20.1,17.7h-0.3V30.8l-4.2,0.2l-20.6,8.9v2.3l12.5,6.8v38.9
		c0,6.9-3.9,10.3-9.8,10.3h-2.7v6.2H366V98.2z"/>
	<path class="st0" d="M430.3,93.7c-14.7,0-25.6-15.5-25.6-30.6h49.2c0-18.8-11.1-32.5-28.9-32.5c-14.2,0-32.5,12-32.5,37.7
		c0,13.1,3.7,22.2,10.8,28.9c5.3,5.2,12.2,8.5,21.2,8.5c11.7,0,23.1-6.9,29.4-17.1l-3.1-3.2C444.2,90.9,436.7,93.7,430.3,93.7z
		 M421.7,36.3c10.3,0,15.3,8.9,15.3,20.8h-32.5C404.6,47.8,410.7,36.3,421.7,36.3z"/>
</g>
</svg>
