<?xml version="1.0" encoding="utf-8"?>
<!-- Generator: Adobe Illustrator 23.0.2, SVG Export Plug-In . SVG Version: 6.00 Build 0)  -->
<svg version="1.1" id="Laag_1" xmlns="http://www.w3.org/2000/svg" xmlns:xlink="http://www.w3.org/1999/xlink" x="0px" y="0px"
	 width="112.8px" height="42.5px" viewBox="0 0 112.8 42.5" style="enable-background:new 0 0 112.8 42.5;" xml:space="preserve">
<style type="text/css">
	.st0{fill:#1D1D1B;}
</style>
<g>
	<path class="st0" d="M20.6,3.8c-1.2,0.1-1.8,0.4-1.8,1.8V19h-1.2L8.5,6.6v10.1c0,1.3,0.8,1.7,2.3,1.8V19H5.6v-0.6
		c1.2-0.1,1.8-0.4,1.8-1.7V5.6c0-1.4-0.6-1.7-2.1-1.8V3.2h3.6l8.9,12.2V5.6c0-1.4-0.8-1.7-2.3-1.8V3.2h5.1V3.8z"/>
	<path class="st0" d="M20.8,13.3c0-3.9,2.5-6.5,5.6-6.5c3.3,0,5.5,2.5,5.5,6c0,3.9-2.6,6.5-5.6,6.5C22.9,19.3,20.8,16.8,20.8,13.3z
		 M29.7,13.7c0-2.5-1-5.9-3.7-5.9c-1.9,0-3.2,1.9-3.2,4.7c0,2.5,1,5.9,3.7,5.9C28.5,18.4,29.7,16.4,29.7,13.7z"/>
	<path class="st0" d="M44.1,7.7c-0.8,0.2-1.2,0.4-1.5,1l-4.5,10.6h-0.5L33,8.7c-0.2-0.5-0.5-0.8-1.5-1V7.2H37v0.5
		c-1.6,0.2-1.9,0.5-1.5,1.5l3.1,7.2l3-7.2c0.4-1,0-1.3-1.6-1.5V7.2h4.1V7.7z"/>
	<path class="st0" d="M53.9,12.5h-8.1c0.1,3.2,1.7,5.2,4.1,5.2c1.7,0,2.8-1,3.6-2l0.4,0.2c-0.6,1.9-2.4,3.5-4.8,3.5
		c-3.3,0-5.3-2.8-5.3-5.9c0-4.1,2.4-6.6,5.6-6.6C52.4,6.8,53.9,9.4,53.9,12.5z M45.8,11.6h5.9c-0.2-2.2-0.9-3.9-2.7-3.9
		C47,7.7,46,9.3,45.8,11.6z"/>
	<path class="st0" d="M75,18.5V19h-5.3v-0.5c0.9-0.2,1.6-0.4,1.6-1.4v-6c0-1.8-1-2.6-2.3-2.6c-1.1,0-2,0.5-3.1,1.8
		c0,0.2,0,0.3,0,0.5V17c0,1,0.7,1.3,1.7,1.4V19h-5.3v-0.5c0.9-0.2,1.6-0.4,1.6-1.4v-6c0-1.8-0.9-2.6-2.3-2.6c-1.1,0-2,0.4-3.1,1.8
		V17c0,1,0.7,1.3,1.7,1.4V19h-5.4v-0.5c1-0.2,1.7-0.4,1.7-1.4V9.8c0-0.9-0.3-1.4-1.4-1.5l-0.3,0V7.8l3.3-0.9h0.4v2.7
		c1.3-1.9,2.5-2.7,4-2.7c1.7,0,3,0.9,3.4,2.8c1.4-2,2.6-2.8,4.1-2.8c2,0,3.5,1.3,3.5,3.9V17C73.3,18.1,74,18.3,75,18.5z"/>
	<path class="st0" d="M87.1,12.7c0,4.2-2.7,6.7-5.8,6.7c-1.6,0-2.5-0.6-3.1-1.4l-0.8,1.4h-0.8V5.3c0-1-0.3-1.4-1.4-1.5l-0.3,0V3.2
		l3.3-0.9h0.4v6.6c0.7-0.9,2-2.1,3.7-2.1C85.3,6.8,87.1,9.5,87.1,12.7z M84.9,13.6c0-2.5-1-5.3-3.4-5.3c-1.2,0-2.4,0.6-2.9,1.2v5.4
		c0,1.5,0.8,3.7,3.1,3.7C83.6,18.5,84.9,16.5,84.9,13.6z"/>
	<path class="st0" d="M98.3,12.5h-8.1c0.1,3.2,1.7,5.2,4.1,5.2c1.7,0,2.8-1,3.6-2l0.4,0.2c-0.6,1.9-2.4,3.5-4.8,3.5
		c-3.3,0-5.3-2.8-5.3-5.9c0-4.1,2.4-6.6,5.6-6.6C96.8,6.8,98.3,9.4,98.3,12.5z M90.2,11.6h5.9c-0.2-2.2-0.9-3.9-2.7-3.9
		C91.4,7.7,90.4,9.3,90.2,11.6z"/>
	<path class="st0" d="M107.5,6.9l-0.3,2.2c-0.4-0.3-1-0.5-1.6-0.4c-1.2,0-2.3,0.9-2.9,2.4V17c0,0.9,0.5,1.3,2.3,1.5V19h-6v-0.5
		c1.3-0.2,1.7-0.6,1.7-1.5V9.8c0-0.9-0.3-1.4-1.4-1.5l-0.3,0V7.8l3.3-0.9h0.4v3.5c0.8-2.4,2-3.4,3.4-3.5
		C106.6,6.8,107.1,6.8,107.5,6.9z"/>
</g>
<g>
	<path class="st0" d="M22.9,24.1c-2.5,3.8-6.2,8.6-6.2,15.2h-2.3c0-6.1,3.9-10.3,6.6-13.7h-6.3c-1.2,0-1.9,0.4-2.1,1.9h-0.5l0.1-3.9
		h10.7V24.1z"/>
	<path class="st0" d="M29,33.1h-7.9v-0.9H29V33.1z"/>
	<path class="st0" d="M36.6,38.8v0.5h-7v-0.5c1.5-0.1,2.5-0.5,2.5-2V25.3h-2.5v-0.5c1.7-0.3,3.2-0.8,4.2-1.5h0.5v13.5
		C34.3,38.3,35.1,38.7,36.6,38.8z"/>
	<path class="st0" d="M49.5,31.5c0,4.5-2.1,8.2-6.1,8.2c-4,0-6.2-3.7-6.2-8.2s2.1-8.2,6.2-8.2C47.3,23.3,49.5,26.9,49.5,31.5z
		 M39.5,30.2c0,3.3,1,8.5,4.2,8.5c2.1,0,3.5-2.3,3.5-6c0-3.3-1.1-8.5-4.2-8.5C40.9,24.2,39.5,26.5,39.5,30.2z"/>
	<path class="st0" d="M53.5,38.6c0,2.2-1.3,3.7-3.4,3.9V42c1.1-0.2,2.2-1.2,2.2-2.5c-1.3,0.4-2.2-0.4-2.2-1.3c0-0.9,0.7-1.6,1.6-1.6
		C52.7,36.6,53.5,37.4,53.5,38.6z"/>
	<path class="st0" d="M67.1,27.8c0,3.5-3.9,5.9-8,9.8h5.2c1.9,0,2.2-0.3,3-2.5h0.5l-0.3,4.4H57.1v-1l3.3-3.3c3-2.9,4.3-5,4.3-6.9
		c0-2-1.2-3.2-3.2-3.2c-1.9,0-2.9,0.9-3.6,2.2L57.4,27c0.5-1.8,2.2-3.7,5-3.7C65.3,23.3,67.1,25,67.1,27.8z"/>
	<path class="st0" d="M80.7,31.5c0,4.5-2.1,8.2-6.1,8.2c-4,0-6.2-3.7-6.2-8.2s2.1-8.2,6.2-8.2C78.6,23.3,80.7,26.9,80.7,31.5z
		 M70.7,30.2c0,3.3,1,8.5,4.2,8.5c2.1,0,3.5-2.3,3.5-6c0-3.3-1.1-8.5-4.2-8.5C72.1,24.2,70.7,26.5,70.7,30.2z"/>
	<path class="st0" d="M88.3,38.8v0.5h-7v-0.5c1.5-0.1,2.5-0.5,2.5-2V25.3h-2.5v-0.5c1.7-0.3,3.2-0.8,4.2-1.5H86v13.5
		C86,38.3,86.8,38.7,88.3,38.8z"/>
	<path class="st0" d="M100.3,31.3c0,6.1-3.4,8.3-6.4,8.3c-2,0-3.8-1-4.7-2.4l1.9-1.3c0.3,1.6,1.5,2.7,3,2.7c2,0,3.9-1.9,3.9-7.1
		v-0.4c-0.7,0.9-2.3,2.4-4.4,2.4c-2.7,0-4.7-2.1-4.7-5c0-3,2.3-5.4,5.4-5.4C98.2,23.3,100.3,26.6,100.3,31.3z M98,30.6
		c-0.2-3.5-1.3-6.4-3.8-6.4c-1.9,0-3,1.5-3,3.9c0,2.5,1.2,4,3.5,4C96,32.1,97.2,31.6,98,30.6z"/>
</g>
</svg>
