<?xml version="1.0" encoding="utf-8"?>
<!-- Generator: Adobe Illustrator 23.0.2, SVG Export Plug-In . SVG Version: 6.00 Build 0)  -->
<svg version="1.1" id="Laag_1" xmlns="http://www.w3.org/2000/svg" xmlns:xlink="http://www.w3.org/1999/xlink" x="0px" y="0px"
	 width="127.1px" height="66.7px" viewBox="0 0 127.1 66.7" style="enable-background:new 0 0 127.1 66.7;" xml:space="preserve">
<style type="text/css">
	.st0{fill:#1D1D1B;}
</style>
<g>
	<path class="st0" d="M26.4,3.8c0-1.6,1-2.8,2.6-3v0.4c-0.8,0.2-1.6,0.9-1.7,1.9c0.9-0.3,1.7,0.3,1.7,1c0,0.7-0.5,1.2-1.2,1.2
		C27,5.4,26.4,4.7,26.4,3.8z M29.7,3.8c0-1.6,1-2.8,2.6-3v0.4c-0.8,0.2-1.6,0.9-1.7,1.9c0.9-0.3,1.7,0.3,1.7,1
		c0,0.7-0.5,1.2-1.2,1.2C30.3,5.4,29.7,4.7,29.7,3.8z"/>
	<path class="st0" d="M43.6,5.4h-0.4c-0.5-1.6-0.8-2.1-2.2-2.1h-1.9v9.5c0,1,0.5,1.3,1.6,1.3v0.4h-4.8v-0.4c1.1-0.1,1.6-0.4,1.6-1.3
		V3.3h-1.9c-1.4,0-1.7,0.6-2.2,2.1H33l0.2-2.8h10.3L43.6,5.4z"/>
	<path class="st0" d="M53.5,14.1v0.4h-4v-0.4c0.7-0.1,1.2-0.3,1.2-1.1V8.5c0-1.4-0.7-1.9-1.7-1.9c-0.8,0-1.5,0.3-2.4,1.3V13
		c0,0.8,0.5,0.9,1.2,1.1v0.4h-4.1v-0.4c0.7-0.1,1.3-0.3,1.3-1.1V4c0-0.6-0.3-0.9-1-1l-0.3,0V2.6l2.5-0.7h0.3v5.4c1-1.4,1.9-2,3-2
		c1.5,0,2.7,1,2.7,3V13C52.3,13.8,52.8,14,53.5,14.1z"/>
	<path class="st0" d="M61.3,9.6h-6.2c0.1,2.4,1.3,3.9,3.1,3.9c1.2,0,2.1-0.7,2.7-1.5l0.3,0.1c-0.5,1.5-1.8,2.7-3.6,2.7
		c-2.5,0-4-2.1-4-4.5c0-3.1,1.8-5,4.2-5C60.2,5.3,61.3,7.3,61.3,9.6z M55.2,8.9h4.5C59.6,7.2,59,6,57.6,6C56.1,6,55.3,7.2,55.2,8.9z
		"/>
	<path class="st0" d="M79.9,14.1v0.4h-4v-0.4c0.7-0.1,1.2-0.3,1.2-1.1V8.5c0-1.4-0.7-1.9-1.8-1.9c-0.8,0-1.5,0.4-2.4,1.4
		c0,0.1,0,0.2,0,0.4V13c0,0.8,0.6,0.9,1.3,1.1v0.4h-4v-0.4c0.7-0.1,1.2-0.3,1.2-1.1V8.5c0-1.4-0.7-1.9-1.7-1.9
		c-0.8,0-1.5,0.3-2.4,1.3V13c0,0.8,0.5,0.9,1.2,1.1v0.4h-4.1v-0.4c0.7-0.1,1.3-0.3,1.3-1.1V7.5c0-0.7-0.2-1.1-1.1-1.1l-0.2,0V6
		L67,5.3h0.3v2c1-1.4,1.9-2,3-2c1.2,0,2.3,0.7,2.6,2.1c1-1.5,2-2.1,3.1-2.1c1.5,0,2.7,1,2.7,3V13C78.6,13.8,79.1,14,79.9,14.1z"/>
	<path class="st0" d="M80.2,10.2c0-3,1.9-4.9,4.2-4.9c2.5,0,4.2,1.9,4.2,4.6c0,2.9-1.9,4.9-4.3,4.9C81.8,14.8,80.2,12.9,80.2,10.2z
		 M87,10.5C87,8.6,86.2,6,84.2,6c-1.4,0-2.4,1.5-2.4,3.5c0,1.9,0.8,4.5,2.8,4.5C86,14,87,12.5,87,10.5z"/>
	<path class="st0" d="M95.9,6.7l-1.4,1.1c-0.4-1.2-1.1-1.9-2.1-1.9c-1.1,0-1.8,0.6-1.8,1.4c0,2.3,5.2,1.3,5.3,4.7
		c0,1.5-1.3,2.8-3.3,2.8c-1.5,0-2.9-0.7-3.6-1.7l1.4-1c0.4,1.4,1.3,2.1,2.3,2.1c1.1,0,1.9-0.7,1.9-1.6c0-2.4-5.2-1.7-5.2-4.6
		c0-1.6,1.2-2.6,3.2-2.6C94.6,5.3,95.5,6.2,95.9,6.7z"/>
	<path class="st0" d="M102.1,13.7c-0.6,0.4-1.2,1.1-2.3,1.1c-1.5,0-2.3-0.8-2.3-2.6V6.2h-1.5V5.6h1.5V3.7L99.1,3v2.5h2.8v0.6h-2.8v6
		c0,1.2,0.6,1.7,1.5,1.7c0.5,0,0.9-0.2,1.3-0.5L102.1,13.7z"/>
</g>
<g>
	<path class="st0" d="M10.3,29.7v0.4l-2.5,0.7H7.4v-1.6C6.9,30,6,30.8,4.7,30.8c-2.3,0-3.7-2-3.7-4.4c0-3.2,2.1-5,4.4-5
		c1,0,1.6,0.3,2.1,0.7v-1.9c0-0.7-0.2-1.1-1.1-1.1l-0.2,0v-0.4l2.5-0.7H9v10.6c0,0.8,0.2,1.1,1,1.1H10.3z M7.4,24.8
		c0-1.3-0.7-2.8-2.4-2.8c-1.4,0-2.4,1.5-2.4,3.7c0,1.9,0.8,4,2.6,4c0.9,0,1.9-0.5,2.2-1.1V24.8z"/>
	<path class="st0" d="M14.8,30.2v0.4h-4.1v-0.4c0.7-0.1,1.3-0.3,1.3-1.1v-5.5c0-0.7-0.2-1.1-1.1-1.1l-0.2,0v-0.4l2.5-0.7h0.3v7.7
		C13.5,29.9,14.1,30,14.8,30.2z M11.6,18.9c0-0.6,0.5-1.1,1.1-1.1c0.6,0,1.1,0.5,1.1,1.1c0,0.6-0.5,1.1-1.1,1.1
		C12.1,20,11.6,19.6,11.6,18.9z"/>
	<path class="st0" d="M24,22c-0.6,0.1-0.9,0.3-1.1,0.8l-3.4,8h-0.4l-3.5-8c-0.2-0.4-0.4-0.6-1.1-0.7v-0.4h4.1V22
		c-1.2,0.2-1.4,0.4-1.1,1.1l2.3,5.5l2.3-5.5c0.3-0.8,0-1-1.2-1.1v-0.4H24V22z"/>
	<path class="st0" d="M31.4,25.6h-6.2c0.1,2.4,1.3,3.9,3.1,3.9c1.2,0,2.1-0.7,2.7-1.5l0.3,0.1c-0.5,1.5-1.8,2.7-3.6,2.7
		c-2.5,0-4-2.1-4-4.5c0-3.1,1.8-5,4.2-5C30.3,21.4,31.4,23.3,31.4,25.6z M25.2,25h4.5c-0.1-1.7-0.7-2.9-2.1-2.9
		C26.2,22,25.4,23.2,25.2,25z"/>
	<path class="st0" d="M38.3,21.4l-0.2,1.7c-0.3-0.2-0.8-0.4-1.2-0.3c-0.9,0-1.7,0.7-2.2,1.8V29c0,0.7,0.4,1,1.7,1.1v0.4h-4.6v-0.4
		c1-0.2,1.3-0.4,1.3-1.1v-5.4c0-0.7-0.2-1.1-1.1-1.1l-0.2,0v-0.4l2.5-0.7h0.3V24c0.6-1.8,1.5-2.6,2.5-2.7
		C37.7,21.3,38,21.4,38.3,21.4z"/>
	<path class="st0" d="M45.2,22.8l-1.4,1.1c-0.4-1.2-1.1-1.9-2.1-1.9c-1.1,0-1.8,0.6-1.8,1.4c0,2.3,5.2,1.3,5.3,4.7
		c0,1.5-1.3,2.8-3.3,2.8c-1.5,0-2.9-0.7-3.6-1.7l1.4-1c0.4,1.4,1.3,2.1,2.3,2.1c1.1,0,1.9-0.7,1.9-1.6c0-2.4-5.2-1.7-5.2-4.6
		c0-1.6,1.2-2.6,3.2-2.6C43.9,21.4,44.8,22.2,45.2,22.8z"/>
	<path class="st0" d="M53.5,25.6h-6.2c0.1,2.4,1.3,3.9,3.1,3.9c1.2,0,2.1-0.7,2.7-1.5l0.3,0.1c-0.5,1.5-1.8,2.7-3.6,2.7
		c-2.5,0-4-2.1-4-4.5c0-3.1,1.8-5,4.2-5C52.4,21.4,53.5,23.3,53.5,25.6z M47.4,25h4.5c-0.1-1.7-0.7-2.9-2.1-2.9
		C48.3,22,47.6,23.2,47.4,25z"/>
	<path class="st0" d="M56.7,30c0,1.6-1,2.8-2.6,3v-0.4c0.8-0.2,1.6-0.9,1.7-1.9c-0.9,0.3-1.7-0.3-1.7-1c0-0.7,0.5-1.2,1.2-1.2
		C56.1,28.5,56.7,29.1,56.7,30z"/>
	<path class="st0" d="M59.8,26.3c0-3,1.9-4.9,4.2-4.9c2.5,0,4.2,1.9,4.2,4.6c0,2.9-1.9,4.9-4.3,4.9C61.4,30.8,59.8,28.9,59.8,26.3z
		 M66.6,26.5c0-1.9-0.8-4.5-2.8-4.5c-1.4,0-2.4,1.5-2.4,3.5c0,1.9,0.8,4.5,2.8,4.5C65.7,30.1,66.6,28.6,66.6,26.5z"/>
	<path class="st0" d="M77.8,25.8c0,3.2-2.1,5-4.4,5c-0.9,0-1.6-0.3-2-0.7v2.5c0,0.8,0.6,0.9,1.3,1.1v0.4h-4.1v-0.4
		c0.7-0.1,1.3-0.3,1.3-1.1v-9c0-0.7-0.2-1.1-1.1-1.1l-0.2,0v-0.4l2.5-0.7h0.3v1.6c0.5-0.7,1.5-1.6,2.8-1.6
		C76.4,21.4,77.8,23.4,77.8,25.8z M76.2,26.5c0-1.9-0.8-4-2.6-4c-0.9,0-1.8,0.4-2.2,0.9v4c0,1.3,0.7,2.8,2.4,2.8
		C75.1,30.2,76.2,28.7,76.2,26.5z"/>
	<path class="st0" d="M86.3,25.6h-6.2c0.1,2.4,1.3,3.9,3.1,3.9c1.2,0,2.1-0.7,2.7-1.5l0.3,0.1c-0.5,1.5-1.8,2.7-3.6,2.7
		c-2.5,0-4-2.1-4-4.5c0-3.1,1.8-5,4.2-5C85.1,21.4,86.3,23.3,86.3,25.6z M80.1,25h4.5C84.5,23.3,84,22,82.5,22
		C81,22,80.3,23.2,80.1,25z"/>
	<path class="st0" d="M96.5,30.2v0.4h-4v-0.4c0.7-0.1,1.2-0.3,1.2-1.1v-4.6c0-1.4-0.7-1.9-1.7-1.9c-0.8,0-1.5,0.3-2.4,1.3v5.2
		c0,0.8,0.5,0.9,1.2,1.1v0.4h-4.1v-0.4c0.7-0.1,1.3-0.3,1.3-1.1v-5.5c0-0.7-0.2-1.1-1.1-1.1l-0.2,0v-0.4l2.5-0.7h0.3v2
		c1-1.4,1.9-2,3-2c1.5,0,2.7,1,2.7,3v4.7C95.2,29.9,95.8,30,96.5,30.2z"/>
	<path class="st0" d="M108,29.7v0.4l-2.5,0.7h-0.3v-2c-0.6,1.4-1.7,2-2.9,2c-1.3,0-2.4-0.8-2.4-2.3c0-1.7,1.4-2.5,4.2-3.1l1.2-0.3
		v-0.3c0-1.7-0.8-2.8-2.1-2.8c-1,0-1.7,0.7-1.7,1.6c0,0.3,0.1,0.6,0.3,1l-1.4,0.5c-0.2-0.4-0.3-0.7-0.3-1.1c0-1.4,1.7-2.7,3.6-2.7
		c2.1,0,3.2,1.3,3.2,3.5v3.7c0,0.7,0.2,1.2,1.1,1.2H108z M105.1,28.3v-2.5L104,26c-2,0.4-2.6,1.1-2.6,2.3c0,1,0.7,1.5,1.5,1.5
		C103.8,29.7,104.6,29.3,105.1,28.3z"/>
	<path class="st0" d="M117.9,30.2v0.4h-4v-0.4c0.7-0.1,1.2-0.3,1.2-1.1v-4.6c0-1.4-0.7-1.9-1.7-1.9c-0.8,0-1.5,0.3-2.4,1.3v5.2
		c0,0.8,0.5,0.9,1.2,1.1v0.4h-4.1v-0.4c0.7-0.1,1.3-0.3,1.3-1.1v-5.5c0-0.7-0.2-1.1-1.1-1.1l-0.2,0v-0.4l2.5-0.7h0.3v2
		c1-1.4,1.9-2,3-2c1.5,0,2.7,1,2.7,3v4.7C116.6,29.9,117.1,30,117.9,30.2z"/>
	<path class="st0" d="M127.3,29.7v0.4l-2.5,0.7h-0.3v-1.6c-0.5,0.8-1.5,1.6-2.8,1.6c-2.3,0-3.7-2-3.7-4.4c0-3.2,2.1-5,4.4-5
		c1,0,1.6,0.3,2.1,0.7v-1.9c0-0.7-0.2-1.1-1.1-1.1l-0.2,0v-0.4l2.5-0.7h0.3v10.6c0,0.8,0.2,1.1,1,1.1H127.3z M124.5,24.8
		c0-1.3-0.7-2.8-2.4-2.8c-1.4,0-2.4,1.5-2.4,3.7c0,1.9,0.8,4,2.6,4c0.9,0,1.9-0.5,2.2-1.1V24.8z"/>
</g>
<g>
	<path class="st0" d="M7.7,46.2v0.4H3.6v-0.4c0.7-0.1,1.3-0.3,1.3-1.1v-5.5c0-0.7-0.2-1.1-1.1-1.1l-0.2,0v-0.4l2.5-0.7h0.3v7.7
		C6.4,45.9,7,46.1,7.7,46.2z M4.5,35c0-0.6,0.5-1.1,1.1-1.1s1.1,0.5,1.1,1.1c0,0.6-0.5,1.1-1.1,1.1S4.5,35.6,4.5,35z"/>
	<path class="st0" d="M17.9,46.2v0.4h-4v-0.4c0.7-0.1,1.2-0.3,1.2-1.1v-4.6c0-1.4-0.7-1.9-1.7-1.9c-0.8,0-1.5,0.3-2.4,1.3v5.2
		c0,0.8,0.5,0.9,1.2,1.1v0.4H8.2v-0.4c0.7-0.1,1.3-0.3,1.3-1.1v-5.5c0-0.7-0.2-1.1-1.1-1.1l-0.2,0v-0.4l2.5-0.7H11v2
		c1-1.4,1.9-2,3-2c1.5,0,2.7,1,2.7,3v4.7C16.7,45.9,17.2,46.1,17.9,46.2z"/>
	<path class="st0" d="M24.9,38.8l-1.4,1.1c-0.4-1.2-1.1-1.9-2.1-1.9c-1.1,0-1.8,0.6-1.8,1.4c0,2.3,5.2,1.3,5.3,4.7
		c0,1.5-1.3,2.8-3.3,2.8c-1.5,0-2.9-0.7-3.6-1.7l1.4-1c0.4,1.4,1.3,2.1,2.3,2.1c1.1,0,1.9-0.7,1.9-1.6c0-2.4-5.2-1.7-5.2-4.6
		c0-1.6,1.2-2.6,3.2-2.6C23.6,37.4,24.6,38.3,24.9,38.8z"/>
	<path class="st0" d="M34.2,41.9c0,3.2-2.1,5-4.4,5c-0.9,0-1.6-0.3-2-0.7v2.5c0,0.8,0.6,0.9,1.3,1.1v0.4H25v-0.4
		c0.7-0.1,1.3-0.3,1.3-1.1v-9c0-0.7-0.2-1.1-1.1-1.1l-0.2,0v-0.4l2.5-0.7h0.3V39c0.5-0.7,1.5-1.6,2.8-1.6
		C32.8,37.4,34.2,39.4,34.2,41.9z M32.6,42.5c0-1.9-0.8-4-2.6-4c-0.9,0-1.8,0.4-2.2,0.9v4c0,1.3,0.7,2.8,2.4,2.8
		C31.6,46.2,32.6,44.7,32.6,42.5z"/>
	<path class="st0" d="M38.8,46.2v0.4h-4.1v-0.4c0.7-0.1,1.3-0.3,1.3-1.1v-5.5c0-0.7-0.2-1.1-1.1-1.1l-0.2,0v-0.4l2.5-0.7h0.3v7.7
		C37.6,45.9,38.1,46.1,38.8,46.2z M35.7,35c0-0.6,0.5-1.1,1.1-1.1s1.1,0.5,1.1,1.1c0,0.6-0.5,1.1-1.1,1.1S35.7,35.6,35.7,35z"/>
	<path class="st0" d="M45.8,37.5l-0.2,1.7c-0.3-0.2-0.8-0.4-1.2-0.3c-0.9,0-1.7,0.7-2.2,1.8v4.4c0,0.7,0.4,1,1.7,1.1v0.4h-4.6v-0.4
		c1-0.2,1.3-0.4,1.3-1.1v-5.4c0-0.7-0.2-1.1-1.1-1.1l-0.2,0v-0.4l2.5-0.7h0.3v2.6c0.6-1.8,1.5-2.6,2.5-2.7
		C45.1,37.4,45.5,37.4,45.8,37.5z"/>
	<path class="st0" d="M49.9,46.2v0.4h-4.1v-0.4c0.7-0.1,1.3-0.3,1.3-1.1v-5.5c0-0.7-0.2-1.1-1.1-1.1l-0.2,0v-0.4l2.5-0.7h0.3v7.7
		C48.7,45.9,49.2,46.1,49.9,46.2z M46.8,35c0-0.6,0.5-1.1,1.1-1.1S49,34.4,49,35c0,0.6-0.5,1.1-1.1,1.1S46.8,35.6,46.8,35z"/>
	<path class="st0" d="M60.2,46.2v0.4h-4v-0.4c0.7-0.1,1.2-0.3,1.2-1.1v-4.6c0-1.4-0.7-1.9-1.7-1.9c-0.8,0-1.5,0.3-2.4,1.3v5.2
		c0,0.8,0.5,0.9,1.2,1.1v0.4h-4.1v-0.4c0.7-0.1,1.3-0.3,1.3-1.1v-5.5c0-0.7-0.2-1.1-1.1-1.1l-0.2,0v-0.4l2.5-0.7h0.3v2
		c1-1.4,1.9-2,3-2c1.5,0,2.7,1,2.7,3v4.7C58.9,45.9,59.4,46.1,60.2,46.2z"/>
	<path class="st0" d="M68.5,37.4v9.3c0,2.4-1.2,3.9-4.1,3.9c-2.1,0-3.1-0.8-3.6-1.4l1.7-0.9c0.3,0.8,1,1.6,2.3,1.6
		c1.5,0,2.1-1,2.1-2.7v-1.8c-0.5,0.7-1.4,1.6-2.8,1.6c-2.3,0-3.7-2-3.7-4.4c0-3.2,2.1-5,4.4-5c1.2,0,1.9,0.5,2.4,1.1l0.6-1.1H68.5z
		 M66.9,44.9v-4c0-1.1-0.6-2.8-2.4-2.8c-1.4,0-2.4,1.5-2.4,3.7c0,1.9,0.8,4,2.6,4C65.6,45.8,66.5,45.4,66.9,44.9z"/>
	<path class="st0" d="M75.2,36.3v1.4h2.6v0.6h-2.6v6.8c0,0.9,0.6,1,1.7,1.1v0.4h-4.5v-0.4c0.7-0.1,1.2-0.3,1.2-1.1v-6.8h-1.5v-0.6
		h1.5v-0.9c0-2.4,1.5-3.5,3.3-3.5c1.1,0,2,0.4,2.4,0.9l-1.1,1.2c-0.2-0.8-0.8-1.4-1.5-1.4C75.8,33.9,75.2,34.4,75.2,36.3z"/>
	<path class="st0" d="M85.6,41.7h-6.2c0.1,2.4,1.3,3.9,3.1,3.9c1.2,0,2.1-0.7,2.7-1.5l0.3,0.1c-0.5,1.5-1.8,2.7-3.6,2.7
		c-2.5,0-4-2.1-4-4.5c0-3.1,1.8-5,4.2-5C84.5,37.4,85.6,39.4,85.6,41.7z M79.4,41h4.5c-0.1-1.7-0.7-2.9-2.1-2.9
		C80.4,38.1,79.6,39.3,79.4,41z"/>
	<path class="st0" d="M92.9,38.8l-1.4,1.1c-0.4-1.2-1.1-1.9-2.1-1.9c-1.1,0-1.8,0.6-1.8,1.4c0,2.3,5.2,1.3,5.3,4.7
		c0,1.5-1.3,2.8-3.3,2.8c-1.5,0-2.9-0.7-3.6-1.7l1.4-1c0.4,1.4,1.3,2.1,2.3,2.1c1.1,0,1.9-0.7,1.9-1.6c0-2.4-5.2-1.7-5.2-4.6
		c0-1.6,1.2-2.6,3.2-2.6C91.6,37.4,92.5,38.3,92.9,38.8z"/>
	<path class="st0" d="M99.1,45.8c-0.6,0.4-1.2,1.1-2.3,1.1c-1.5,0-2.3-0.8-2.3-2.6v-5.9H93v-0.6h1.5v-1.8l1.6-0.7v2.5h2.8v0.6h-2.8
		v6c0,1.2,0.6,1.7,1.5,1.7c0.5,0,0.9-0.2,1.3-0.5L99.1,45.8z"/>
	<path class="st0" d="M103.4,46.2v0.4h-4.1v-0.4c0.7-0.1,1.3-0.3,1.3-1.1v-5.5c0-0.7-0.2-1.1-1.1-1.1l-0.2,0v-0.4l2.5-0.7h0.3v7.7
		C102.1,45.9,102.6,46.1,103.4,46.2z M100.2,35c0-0.6,0.5-1.1,1.1-1.1s1.1,0.5,1.1,1.1c0,0.6-0.5,1.1-1.1,1.1S100.2,35.6,100.2,35z"
		/>
	<path class="st0" d="M112.5,38.1c-0.6,0.1-0.9,0.3-1.1,0.8l-3.4,8h-0.4l-3.5-8c-0.2-0.4-0.4-0.6-1.1-0.7v-0.4h4.1v0.4
		c-1.2,0.2-1.4,0.4-1.1,1.1l2.3,5.5l2.3-5.5c0.3-0.8,0-1-1.2-1.1v-0.4h3.1V38.1z"/>
	<path class="st0" d="M120.7,45.7v0.4l-2.5,0.7h-0.3v-2c-0.6,1.4-1.7,2-2.9,2c-1.3,0-2.4-0.8-2.4-2.3c0-1.7,1.4-2.5,4.2-3.1l1.2-0.3
		v-0.3c0-1.7-0.8-2.8-2.1-2.8c-1,0-1.7,0.7-1.7,1.6c0,0.3,0.1,0.6,0.3,1l-1.4,0.5c-0.2-0.4-0.3-0.7-0.3-1.1c0-1.4,1.7-2.7,3.6-2.7
		c2.1,0,3.2,1.3,3.2,3.5v3.7c0,0.7,0.2,1.2,1.1,1.2H120.7z M117.8,44.3v-2.5l-1.1,0.2c-2,0.4-2.6,1.1-2.6,2.3c0,1,0.7,1.5,1.5,1.5
		C116.5,45.8,117.3,45.3,117.8,44.3z"/>
	<path class="st0" d="M123.7,45.1c0,0.8,0.5,0.9,1.2,1.1v0.4h-4.1v-0.4c0.7-0.1,1.3-0.3,1.3-1.1v-8.9c0-0.7-0.2-1.1-1.1-1.1l-0.2,0
		v-0.4l2.5-0.7h0.3V45.1z"/>
</g>
<g>
	<path class="st0" d="M29.9,58.4c0-3,1.9-4.9,4.2-4.9c2.5,0,4.2,1.9,4.2,4.6c0,2.9-1.9,4.9-4.3,4.9C31.5,62.9,29.9,61,29.9,58.4z
		 M36.7,58.7c0-1.9-0.8-4.5-2.8-4.5c-1.4,0-2.4,1.5-2.4,3.5c0,1.9,0.8,4.5,2.8,4.5C35.7,62.2,36.7,60.7,36.7,58.7z"/>
	<path class="st0" d="M48.3,61.8v0.4l-2.5,0.7h-0.3v-2c-1,1.4-1.9,2-3,2c-1.5,0-2.7-1-2.7-3v-4.3c0-0.7-0.2-1.1-1.1-1.1l-0.2,0v-0.4
		l2.5-0.7h0.3v6.3c0,1.4,0.7,2,1.7,2c0.8,0,1.5-0.4,2.4-1.3v-4.7c0-0.7-0.2-1.1-1.1-1.1l-0.2,0v-0.4l2.5-0.7h0.3v7.2
		c0,0.7,0.2,1.1,1.1,1.1H48.3z"/>
	<path class="st0" d="M54.2,61.9c-0.6,0.4-1.2,1.1-2.3,1.1c-1.5,0-2.3-0.8-2.3-2.6v-5.9h-1.5v-0.6h1.5v-1.8l1.6-0.7v2.5H54v0.6h-2.8
		v6c0,1.2,0.6,1.7,1.5,1.7c0.5,0,0.9-0.2,1.3-0.5L54.2,61.9z"/>
	<path class="st0" d="M62.7,61.9c-0.6,0.4-1.2,1.1-2.3,1.1c-1.5,0-2.3-0.8-2.3-2.6v-5.9h-1.5v-0.6h1.5v-1.8l1.6-0.7v2.5h2.8v0.6
		h-2.8v6c0,1.2,0.6,1.7,1.5,1.7c0.5,0,0.9-0.2,1.3-0.5L62.7,61.9z"/>
	<path class="st0" d="M72.5,62.3v0.4h-4v-0.4c0.7-0.1,1.2-0.3,1.2-1.1v-4.6c0-1.4-0.7-1.9-1.7-1.9c-0.8,0-1.5,0.3-2.4,1.3v5.2
		c0,0.8,0.5,0.9,1.2,1.1v0.4h-4.1v-0.4c0.7-0.1,1.3-0.3,1.3-1.1v-9c0-0.6-0.3-0.9-1-1l-0.3,0v-0.4l2.5-0.7h0.3v5.4c1-1.4,1.9-2,3-2
		c1.5,0,2.7,1,2.7,3v4.7C71.3,62,71.8,62.2,72.5,62.3z"/>
	<path class="st0" d="M80.3,57.8h-6.2c0.1,2.4,1.3,3.9,3.1,3.9c1.2,0,2.1-0.7,2.7-1.5l0.3,0.1c-0.5,1.5-1.8,2.7-3.6,2.7
		c-2.5,0-4-2.1-4-4.5c0-3.1,1.8-5,4.2-5C79.2,53.5,80.3,55.5,80.3,57.8z M74.2,57.1h4.5c-0.1-1.7-0.7-2.9-2.1-2.9
		C75.1,54.2,74.3,55.4,74.2,57.1z"/>
	<path class="st0" d="M87.2,53.6L87,55.2c-0.3-0.2-0.8-0.4-1.2-0.3c-0.9,0-1.7,0.7-2.2,1.8v4.4c0,0.7,0.4,1,1.7,1.1v0.4h-4.6v-0.4
		c1-0.2,1.3-0.4,1.3-1.1v-5.4c0-0.7-0.2-1.1-1.1-1.1l-0.2,0v-0.4l2.5-0.7h0.3v2.6c0.6-1.8,1.5-2.6,2.5-2.7
		C86.6,53.5,87,53.5,87.2,53.6z"/>
	<path class="st0" d="M94.9,57.8h-6.2c0.1,2.4,1.3,3.9,3.1,3.9c1.2,0,2.1-0.7,2.7-1.5l0.3,0.1c-0.5,1.5-1.8,2.7-3.6,2.7
		c-2.5,0-4-2.1-4-4.5c0-3.1,1.8-5,4.2-5C93.8,53.5,94.9,55.5,94.9,57.8z M88.8,57.1h4.5c-0.1-1.7-0.7-2.9-2.1-2.9
		C89.7,54.2,88.9,55.4,88.8,57.1z"/>
	<path class="st0" d="M97.7,50.6c0,1.6-1,2.8-2.6,3v-0.4c0.8-0.2,1.6-0.9,1.7-1.9c-0.9,0.3-1.7-0.3-1.7-1c0-0.7,0.5-1.2,1.2-1.2
		C97.1,49,97.7,49.7,97.7,50.6z M101,50.6c0,1.6-1,2.8-2.6,3v-0.4c0.8-0.2,1.6-0.9,1.7-1.9c-0.9,0.3-1.7-0.3-1.7-1
		c0-0.7,0.5-1.2,1.2-1.2C100.4,49,101,49.7,101,50.6z"/>
</g>
</svg>
