<?xml version="1.0" encoding="utf-8"?>
<!-- Generator: Adobe Illustrator 23.0.2, SVG Export Plug-In . SVG Version: 6.00 Build 0)  -->
<svg version="1.1" id="Laag_1" xmlns="http://www.w3.org/2000/svg" xmlns:xlink="http://www.w3.org/1999/xlink" x="0px" y="0px"
	 width="93.3px" height="12.1px" viewBox="0 0 93.3 12.1" style="enable-background:new 0 0 93.3 12.1;" xml:space="preserve">
<style type="text/css">
	.st0{fill:#FFFFFF;}
</style>
<g>
	<path class="st0" d="M0.7,2.2h3.5c2,0,2.7,1.2,2.7,2.4C6.9,6.3,5.7,7,3.8,7H2.7v3.2h-2V2.2z M2.7,5.8h0.9c0.8,0,1.3-0.4,1.3-1.2
		c0-0.8-0.4-1.2-1.4-1.2H2.7V5.8z"/>
	<path class="st0" d="M7.9,10.2V2.2h2v6.7h3.6v1.3H7.9z"/>
	<path class="st0" d="M16.3,2.2h2.5l2.6,8.1h-2.1l-0.5-1.7h-2.6l-0.5,1.7h-2.1L16.3,2.2z M16.6,7.2h2l-1-3.6h0L16.6,7.2z"/>
	<path class="st0" d="M24.4,2.2l2.4,5.5h0V2.2h1.8v8.1h-2.3L24,4.6h0v5.6h-1.8V2.2H24.4z"/>
	<path class="st0" d="M38.6,2.2V8c0,1.7-1,2.4-3,2.4C33.5,10.4,33,9.3,33,8V7.7h1.8v0.2c0,0.9,0.2,1.3,0.9,1.3s0.9-0.4,0.9-1.3V2.2
		H38.6z"/>
	<path class="st0" d="M45.5,2.2v1.3h-3.6v1.9h3.3v1.3h-3.3v2.2h3.7v1.3h-5.7V2.2H45.5z"/>
	<path class="st0" d="M50,2.2h3.4c1.6,0,2.8,0.5,2.8,2c0,0.9-0.5,1.5-1.5,1.8v0c1.1,0.1,1.8,0.8,1.8,1.9c0,1.3-0.8,2.4-3.1,2.4H50
		V2.2z M52,5.5h0.6c1.1,0,1.6-0.3,1.6-1.1c0-0.8-0.5-1-1.4-1H52V5.5z M52,9h0.8c1,0,1.6-0.3,1.6-1.2c0-0.9-0.7-1.2-1.5-1.2H52V9z"/>
	<path class="st0" d="M63.3,2.2v1.3h-3.6v1.9h3.3v1.3h-3.3v2.2h3.7v1.3h-5.7V2.2H63.3z"/>
	<path class="st0" d="M64.1,9.1l3.7-5.5h-3.4V2.2H70v1.2l-3.7,5.5h3.8v1.3h-6V9.1z"/>
	<path class="st0" d="M74.3,2c3,0,3.4,1.7,3.4,4.2c0,2.5-0.4,4.2-3.4,4.2s-3.4-1.7-3.4-4.2C70.9,3.8,71.3,2,74.3,2z M74.3,9.2
		c1.2,0,1.4-0.8,1.4-3c0-2.2-0.2-3-1.4-3s-1.4,0.8-1.4,3C72.9,8.4,73.1,9.2,74.3,9.2z"/>
	<path class="st0" d="M84.4,2.2v1.3h-3.6v1.9h3.3v1.3h-3.3v2.2h3.7v1.3h-5.7V2.2H84.4z"/>
	<path class="st0" d="M87.6,2.2v3.2h0l2.5-3.2h2.2l-2.7,3.5l3,4.6h-2.3l-2-3.3l-0.7,0.9v2.4h-2V2.2H87.6z"/>
</g>
</svg>
