<?xml version="1.0" encoding="utf-8"?>
<!-- Generator: Adobe Illustrator 23.0.2, SVG Export Plug-In . SVG Version: 6.00 Build 0)  -->
<svg version="1.1" id="Laag_1" xmlns="http://www.w3.org/2000/svg" xmlns:xlink="http://www.w3.org/1999/xlink" x="0px" y="0px"
	 width="187.6px" height="47.2px" viewBox="0 0 187.6 47.2" style="enable-background:new 0 0 187.6 47.2;" xml:space="preserve">
<style type="text/css">
	.st0{fill:none;}
	.st1{fill:#FFED00;}
</style>
<g>
	<path class="st0" d="M68.1,20.6c-0.1-1.2-0.2-2.7-0.4-4.3c-0.2,1.9-0.3,3.6-0.4,4.9c-0.1,1.3-0.2,2.6-0.3,3.9
		c-0.1,1.3-0.2,2.3-0.3,3h2.1c-0.1-1-0.2-2.2-0.4-3.6C68.3,23.1,68.2,21.9,68.1,20.6z"/>
	<path class="st0" d="M97.2,11.4c-0.2-0.6-0.8-0.9-1.8-0.9v22.7c0.9-0.1,1.5-0.4,1.7-0.9c0.4-1.1,0.7-3,0.7-5.7l0.1-9.8
		c0-1.3-0.1-2.4-0.1-3.3C97.6,12.6,97.4,11.9,97.2,11.4z"/>
	<path class="st1" d="M24.4,23c-0.9-1.1-1.9-2.1-2.9-3.1c-1-1-2.1-1.9-3.3-2.8c-0.6-0.5-1.2-1-1.9-1.5c-0.7-0.5-1.4-1.1-2.2-1.8
		c-1.3-1.1-1.9-1.9-1.9-2.6c0-0.4,0.2-0.8,0.5-1.1c0.3-0.3,0.7-0.4,1.1-0.4c0.9,0,1.5,0.5,1.9,1.4c0.3,0.9,0.5,2,0.5,3.1
		c0,0.3,0.1,0.6,0.3,0.8c0.2,0.2,0.5,0.3,0.8,0.3h8.5c0.3,0,0.6-0.1,0.8-0.3c0.2-0.2,0.3-0.5,0.3-0.8v-1.6c0-1.9-0.3-3.6-1-5.2
		c-0.7-1.6-1.6-2.9-2.8-4c-1.1-1.1-2.5-2-4.2-2.5C17.3,0.3,15.5,0,13.5,0c-3.4,0-6.3,1.1-8.8,3.2c-1.1,1-2,2.2-2.7,3.6
		c-0.7,1.4-1,2.9-1,4.5c0,3.1,0.8,5.7,2.5,7.8c0.8,1,1.7,1.9,2.6,2.8c0.9,0.9,1.8,1.7,2.7,2.4c0.1,0.1,0.2,0.2,0.3,0.2
		c0.1,0,0.1,0.1,0.2,0.2l-0.1-0.1c0.8,0.7,1.6,1.3,2.4,2c0.8,0.7,1.6,1.3,2.5,2c1.5,1.3,2.3,2.5,2.3,3.6c0,0.6-0.2,1-0.6,1.4
		c-0.4,0.4-0.9,0.5-1.5,0.5c-0.8,0-1.4-0.3-2-1c-0.5-0.7-0.8-1.5-0.8-2.5v-2c0-0.3-0.1-0.6-0.3-0.8c-0.2-0.2-0.5-0.3-0.8-0.3H1.7
		c-0.3,0-0.6,0.1-0.8,0.3c-0.2,0.2-0.3,0.5-0.3,0.8v0.7c0,5,1.1,8.7,3.4,11c2.2,2.3,5.5,3.5,9.7,3.5c4.4,0,7.8-1.1,10.2-3.2
		c2.4-2.1,3.6-5.2,3.6-9.3c0-1.7-0.3-3.2-0.8-4.6C26.1,25.4,25.3,24.2,24.4,23z"/>
	<path class="st1" d="M36.4,11.2V42c0,0.3,0.1,0.6,0.3,0.8c0.2,0.2,0.5,0.3,0.8,0.3h9.4c0.3,0,0.6-0.1,0.8-0.3
		c0.2-0.2,0.3-0.5,0.3-0.8V11.2h6.2c0.3,0,0.6-0.1,0.8-0.3c0.2-0.2,0.3-0.5,0.3-0.8V1.8c0-0.8-0.4-1.1-1.1-1.1h-24
		c-0.8,0-1.1,0.4-1.1,1.1v8.3c0,0.3,0.1,0.6,0.3,0.8c0.2,0.2,0.5,0.3,0.8,0.3H36.4z"/>
	<path class="st1" d="M81.6,41.9l-7-40.3c0-0.2-0.2-0.5-0.4-0.7c-0.2-0.2-0.4-0.3-0.7-0.3H62.1c-0.2,0-0.5,0.1-0.7,0.3
		c-0.2,0.2-0.3,0.4-0.4,0.7l-7,40.3c-0.1,0.4,0,0.7,0.2,0.9c0.2,0.2,0.5,0.4,0.9,0.4h9c0.3,0,0.5-0.1,0.7-0.3
		c0.2-0.2,0.3-0.4,0.4-0.7c0.1-0.7,0.2-1.4,0.3-2c0.1-0.7,0.3-1.4,0.4-2h3.7l0.7,4.1c0.2,0.6,0.5,0.9,1.1,0.9h9
		c0.4,0,0.7-0.1,0.9-0.4C81.6,42.6,81.6,42.3,81.6,41.9z M66.7,28c0.1-0.7,0.2-1.7,0.3-3c0.1-1.3,0.2-2.6,0.3-3.9
		c0.1-1.3,0.2-2.9,0.4-4.9c0.1,1.7,0.2,3.1,0.4,4.3c0.1,1.2,0.2,2.5,0.4,3.9c0.1,1.3,0.3,2.5,0.4,3.6H66.7z"/>
	<path class="st1" d="M108.8,31.5c0.5-2.6,0.7-5.9,0.7-9.6c0-3.8-0.2-7.1-0.7-9.8c-0.4-2.7-1.1-4.8-1.9-6.3
		c-1.7-3.4-5.6-5.2-11.6-5.2H84.8c-0.3,0-0.6,0.1-0.8,0.3c-0.2,0.2-0.3,0.5-0.3,0.8V42c0,0.3,0.1,0.6,0.4,0.8
		c0.2,0.2,0.5,0.3,0.8,0.3h10.6c5.8,0,9.6-1.7,11.4-5.2V38C107.7,36.4,108.4,34.2,108.8,31.5z M97.7,26.6c0,2.7-0.2,4.6-0.7,5.7
		c-0.2,0.5-0.8,0.8-1.7,0.9V10.5c1,0.1,1.6,0.4,1.8,0.9c0.2,0.4,0.4,1.1,0.5,2c0.1,0.9,0.1,2,0.1,3.3L97.7,26.6z"/>
	<path class="st1" d="M138,26.8c-0.5-1.4-1.3-2.6-2.2-3.8c-0.9-1.1-1.9-2.1-2.9-3.1c-1-1-2.1-1.9-3.3-2.8c-0.6-0.5-1.2-1-1.9-1.5
		c-0.7-0.5-1.4-1.1-2.2-1.8c-1.3-1.1-1.9-1.9-1.9-2.6c0-0.4,0.2-0.8,0.5-1.1c0.3-0.3,0.7-0.4,1.1-0.4c0.9,0,1.5,0.5,1.9,1.4
		c0.3,0.9,0.5,2,0.5,3.1c0,0.3,0.1,0.6,0.3,0.8c0.2,0.2,0.5,0.3,0.8,0.3h8.5c0.3,0,0.6-0.1,0.8-0.3c0.2-0.2,0.3-0.5,0.3-0.8v-1.6
		c0-1.9-0.3-3.6-1-5.2c-0.7-1.6-1.6-2.9-2.8-4c-1.1-1.1-2.5-2-4.2-2.5c-1.6-0.6-3.4-0.8-5.4-0.8c-3.4,0-6.3,1.1-8.8,3.2
		c-1.1,1-2,2.2-2.7,3.6c-0.7,1.4-1,2.9-1,4.5c0,3.1,0.8,5.7,2.5,7.8c0.8,1,1.7,1.9,2.6,2.8c0.9,0.9,1.8,1.7,2.7,2.4
		c0.1,0.1,0.2,0.2,0.3,0.2c0.1,0,0.1,0.1,0.2,0.2l-0.1-0.1c0.8,0.7,1.6,1.3,2.4,2c0.8,0.7,1.6,1.3,2.5,2c1.5,1.3,2.3,2.5,2.3,3.6
		c0,0.6-0.2,1-0.6,1.4c-0.4,0.4-0.9,0.5-1.5,0.5c-0.8,0-1.4-0.3-2-1c-0.5-0.7-0.8-1.5-0.8-2.5v-2c0-0.3-0.1-0.6-0.3-0.8
		c-0.2-0.2-0.5-0.3-0.8-0.3H113c-0.3,0-0.6,0.1-0.8,0.3c-0.2,0.2-0.3,0.5-0.3,0.8v0.7c0,5,1.1,8.7,3.4,11c2.2,2.3,5.5,3.5,9.7,3.5
		c4.4,0,7.8-1.1,10.2-3.2c2.4-2.1,3.6-5.2,3.6-9.3C138.8,29.7,138.5,28.2,138,26.8z"/>
</g>
</svg>
