<?xml version="1.0" encoding="utf-8"?>
<!-- Generator: Adobe Illustrator 24.3.0, SVG Export Plug-In . SVG Version: 6.00 Build 0)  -->
<svg version="1.1" id="Laag_1" xmlns="http://www.w3.org/2000/svg" xmlns:xlink="http://www.w3.org/1999/xlink" x="0px" y="0px"
	 width="134.6px" height="27.6px" viewBox="0 0 134.6 27.6" style="enable-background:new 0 0 134.6 27.6;" xml:space="preserve">
<style type="text/css">
	.st0{fill:#FFEC00;}
	.st1{fill:#1D1D1B;}
</style>
<g>
	<rect y="0" class="st0" width="134.6" height="27.6"/>
	<g>
		<polygon class="st1" points="13.4,22.8 15,21.9 15,16.7 13.4,15.8 11.8,16.7 13.4,17.6 		"/>
		<polygon class="st1" points="10.1,21 11.8,21.9 11.8,16.7 11.8,11.5 10.1,12.3 		"/>
		<polygon class="st1" points="11.8,9.7 6.9,7.1 5.3,8 8.5,9.7 8.5,9.7 8.5,9.7 10.1,10.6 		"/>
		<polygon class="st1" points="6.9,10.6 6.9,19.3 8.5,18.4 8.5,9.7 8.5,9.7 		"/>
		<path class="st1" d="M13.4,10.6l-1.6,0.9c0,0,2.6,0.9,1.6,4.3l1.6-0.9C16,11.5,13.4,10.6,13.4,10.6z"/>
		<polygon class="st1" points="5.8,6.2 6,6.2 6,5.1 6.4,5.1 6.4,4.8 5.4,4.8 5.4,5.1 5.8,5.1 		"/>
		<polygon class="st1" points="7,5.6 7.6,5.6 7.6,6.2 7.9,6.2 7.9,4.8 7.6,4.8 7.6,5.4 7,5.4 7,4.8 6.8,4.8 6.8,6.2 7,6.2 		"/>
		<polygon class="st1" points="9.3,6 8.6,6 8.6,5.6 9.2,5.6 9.2,5.4 8.6,5.4 8.6,5.1 9.3,5.1 9.3,4.8 8.4,4.8 8.4,6.2 9.3,6.2 		"/>
		<path class="st1" d="M10.1,5.9h0.5l0.1,0.3H11l-0.5-1.4h-0.4L9.6,6.2H10L10.1,5.9z M10.3,5.2L10.3,5.2l0.2,0.5h-0.4L10.3,5.2z"/>
		<polygon class="st1" points="11.5,6.2 11.8,6.2 11.8,5.1 12.1,5.1 12.1,4.8 11.1,4.8 11.1,5.1 11.5,5.1 		"/>
		<polygon class="st1" points="13.4,6 12.7,6 12.7,5.6 13.4,5.6 13.4,5.4 12.7,5.4 12.7,5.1 13.4,5.1 13.4,4.8 12.5,4.8 12.5,6.2 
			13.4,6.2 		"/>
		<path class="st1" d="M14.2,5.7h0.2l0.3,0.5H15l-0.4-0.6c0.1,0,0.1-0.1,0.2-0.2c0-0.1,0.1-0.2,0.1-0.3c0-0.1,0-0.2-0.1-0.3
			c-0.1-0.1-0.2-0.1-0.3-0.1H14v1.4h0.3V5.7H14.2z M14.2,5.1h0.2c0.1,0,0.1,0,0.1,0v0.1c0,0,0,0.1-0.1,0.1l-0.1,0.1h-0.2V5.1H14.2z"
			/>
		<path class="st1" d="M16.6,7.1v0.3h0.5v0.2l-0.5,0.3v0.3l0.6-0.3c0,0.1,0.1,0.1,0.2,0.2c0.1,0,0.2,0.1,0.3,0.1
			c0.1,0,0.2,0,0.3-0.1c0-0.2,0-0.3,0-0.5V7.1H16.6z M17.8,7.6C17.8,7.7,17.8,7.7,17.8,7.6l-0.1,0.1c-0.1,0-0.1,0-0.1-0.1l-0.1-0.1
			V7.4h0.4L17.8,7.6L17.8,7.6z"/>
		<path class="st1" d="M17.3,8.4c-0.2,0-0.4,0.1-0.5,0.2c-0.1,0.1-0.2,0.3-0.2,0.5s0.1,0.4,0.2,0.5s0.3,0.2,0.5,0.2s0.4-0.1,0.5-0.2
			S18,9.3,18,9.1s-0.1-0.4-0.2-0.5C17.7,8.5,17.5,8.4,17.3,8.4z M17.6,9.5c-0.1,0.1-0.2,0.1-0.3,0.1S17,9.6,17,9.5
			c-0.1-0.1-0.1-0.2-0.1-0.3s0-0.2,0.1-0.3s0.2-0.1,0.3-0.1s0.2,0,0.3,0.1C17.7,9,17.7,9,17.7,9.2S17.7,9.4,17.6,9.5z"/>
		<polygon class="st1" points="18,11.1 18,10.1 17.8,10.1 17.8,10.5 16.6,10.5 16.6,10.8 17.8,10.8 17.8,11.1 		"/>
		<polygon class="st1" points="16.6,12.1 17.8,12.1 17.8,12.5 18,12.5 18,11.4 17.8,11.4 17.8,11.8 16.6,11.8 		"/>
		<polygon class="st1" points="16.6,13.8 16.8,13.8 16.8,13.1 17.2,13.1 17.2,13.7 17.4,13.7 17.4,13.1 17.8,13.1 17.8,13.8 
			18,13.8 18,12.8 16.6,12.8 		"/>
		<path class="st1" d="M16.6,14.5h0.5v0.2L16.6,15v0.3l0.6-0.3c0,0.1,0.1,0.1,0.2,0.2c0.1,0,0.2,0.1,0.3,0.1c0.1,0,0.2,0,0.3-0.1
			c0-0.2,0-0.3,0-0.4v-0.5h-1.4V14.5z M17.4,14.5h0.4v0.2c0,0.1,0,0.1,0,0.1h-0.1c-0.1,0-0.1,0-0.1-0.1L17.4,14.5L17.4,14.5
			L17.4,14.5z"/>
		<path class="st1" d="M16.6,16.1c0,0.2,0.1,0.4,0.2,0.5s0.3,0.2,0.5,0.2s0.4-0.1,0.5-0.2s0.2-0.3,0.2-0.5l0,0v-0.4h-1.4
			C16.6,15.7,16.6,16.1,16.6,16.1z M16.8,16h0.9v0.2c0,0.1,0,0.2-0.1,0.3s-0.2,0.1-0.3,0.1c-0.1,0-0.2,0-0.3-0.1
			c-0.1-0.1-0.1-0.2-0.1-0.3V16H16.8z"/>
		<path class="st1" d="M16.6,17.4l0.3,0.1V18l-0.3,0.1v0.3L18,18v-0.4l-1.4-0.5V17.4z M17.1,17.6l0.5,0.2l0,0L17.1,18V17.6z"/>
		<polygon class="st1" points="16.6,19 17.4,19 16.7,19.3 16.7,19.6 17.4,19.9 16.6,19.9 16.6,20.2 18,20.2 18,19.8 17,19.5 
			17,19.5 18,19.1 18,18.7 16.6,18.7 		"/>
	</g>
</g>
<g>
	<path class="st1" d="M37.9,16.4h4.4v1.7H36V9h1.9V16.4z"/>
	<path class="st1" d="M45.2,9v9.1h-1.8V9H45.2z"/>
	<path class="st1" d="M52.6,9h1.9l-2.9,9.1h-2.5L46.3,9h1.9l2.2,7.2h0.1L52.6,9z"/>
	<path class="st1" d="M57.2,16.5h4.5v1.6h-6.2V9h6v1.6h-4.3v2.1h3.7v1.5h-3.7V16.5z"/>
	<path class="st1" d="M69,15.7c0,0.8-0.3,1.5-0.9,1.9c-0.6,0.4-1.4,0.7-2.3,0.7c-1.1,0-1.9-0.3-2.5-0.9c-0.6-0.6-0.9-1.3-0.9-2.2
		h1.7c0,0.5,0.2,0.9,0.4,1.2c0.3,0.3,0.7,0.4,1.3,0.4c0.4,0,0.7-0.1,1-0.3c0.3-0.2,0.4-0.4,0.4-0.8s-0.1-0.6-0.4-0.8
		c-0.3-0.2-0.8-0.4-1.4-0.7c-0.8-0.3-1.5-0.6-2-1.1c-0.5-0.4-0.7-1-0.7-1.6c0-0.8,0.3-1.4,0.8-1.9s1.3-0.7,2.1-0.7
		c1,0,1.7,0.3,2.3,0.8c0.6,0.5,0.8,1.2,0.8,2h-1.6c0-0.4-0.2-0.7-0.4-0.9c-0.2-0.2-0.6-0.4-1.1-0.4c-0.4,0-0.6,0.1-0.9,0.3
		c-0.2,0.2-0.3,0.4-0.3,0.7s0.1,0.5,0.4,0.7c0.3,0.2,0.7,0.4,1.3,0.7c1,0.4,1.7,0.8,2.1,1.2C68.8,14.4,69,15,69,15.7z"/>
	<path class="st1" d="M76.5,9v1.6H74v7.5h-1.7v-7.5h-2.5V9H76.5z"/>
	<path class="st1" d="M84.6,18.1h-1.9l-1.8-3.4h-1.3v3.4h-1.7V9h3.4c0.9,0,1.7,0.3,2.2,0.8s0.8,1.2,0.8,2.1c0,0.6-0.2,1.1-0.5,1.6
		c-0.3,0.5-0.7,0.8-1.3,1L84.6,18.1z M79.5,10.6v2.5H81c0.4,0,0.8-0.1,1.1-0.4s0.4-0.5,0.4-0.9c0-0.4-0.1-0.7-0.4-0.9
		c-0.3-0.2-0.6-0.3-1.1-0.3H79.5z"/>
	<path class="st1" d="M87.5,16.5H92v1.6h-6.2V9h6v1.6h-4.3v2.1h3.7v1.5h-3.7V16.5z"/>
	<path class="st1" d="M99.2,18.1l-0.6-2h-3.5l-0.6,2h-1.9L95.7,9H98l3.1,9.1H99.2z M95.6,14.6h2.5L97,10.9h-0.1L95.6,14.6z"/>
	<path class="st1" d="M111.9,9v9.1h-1.7v-6.3h-0.1l-2.2,5.5h-1.7l-2.2-5.5h-0.1v6.3h-1.7V9h2.3l2.5,6.1h0.1l2.5-6.1H111.9z"/>
</g>
</svg>
