<?xml version="1.0" encoding="utf-8"?>
<!-- Generator: Adobe Illustrator 24.3.0, SVG Export Plug-In . SVG Version: 6.00 Build 0)  -->
<svg version="1.1" id="Laag_1" xmlns="http://www.w3.org/2000/svg" xmlns:xlink="http://www.w3.org/1999/xlink" x="0px" y="0px"
	 width="701.8px" height="168.4px" viewBox="0 0 701.8 168.4" style="enable-background:new 0 0 701.8 168.4;" xml:space="preserve"
	>
<style type="text/css">
	.st0{fill:#FFFFFF;}
</style>
<g>
	<g>
		<path class="st0" d="M1.2,2.1h17.1c20.6,0,35.2,13.2,35.2,35.1c0,22.1-14.6,35.2-35.1,35.2H1.2V2.1z M7.1,7.6v59.3h11.4
			c17,0,28.8-10.5,28.8-29.3c0-18.7-12-30-28.8-30H7.1z"/>
		<path class="st0" d="M106.9,67.9c-4.7,3.4-12.1,5.5-19.7,5.5c-16,0-26.4-10.2-26.4-26.6c0-17.2,11.3-27.7,25.3-27.7
			c13.7,0,23.7,9.9,23.7,27.3c0,0.6-0.1,1.6-0.2,2.1H66.8c0.7,12.6,8.3,19.7,20.6,19.7c6.6,0,12.1-1.2,18.1-4.9L106.9,67.9z
			 M66.9,43.7h36.9C103,31.2,96.4,24.3,86,24.3C75.4,24.3,68,31.3,66.9,43.7z"/>
		<path class="st0" d="M198.9,72.4l-5.3-0.1l-13.9-43.9l-15.7,44l-5.4-0.1l-18.7-52.1h6.4l15.3,44.4L177,20.2h5.7l13.9,44.5
			l16.5-44.5h6.3L198.9,72.4z"/>
		<path class="st0" d="M266.6,67.9c-4.7,3.4-12.1,5.5-19.7,5.5c-16,0-26.4-10.2-26.4-26.6c0-17.2,11.3-27.7,25.3-27.7
			c13.7,0,23.7,9.9,23.7,27.3c0,0.6-0.1,1.6-0.2,2.1h-42.8c0.7,12.6,8.3,19.7,20.6,19.7c6.6,0,12.1-1.2,18.1-4.9L266.6,67.9z
			 M226.6,43.7h36.9c-0.8-12.5-7.4-19.4-17.8-19.4C235.1,24.3,227.7,31.3,226.6,43.7z"/>
		<path class="st0" d="M279,20.2h5.6v14.3c4.5-8.7,10.8-15.3,19.1-15.3c1.6,0,3.2,0.2,4.9,0.8l-1.3,5.1c-1.3-0.5-2.6-0.8-3.9-0.8
			c-8,0-14.5,7.7-18.8,19v29.1H279V20.2z"/>
		<path class="st0" d="M354.9,67.9c-4.7,3.4-12.1,5.5-19.7,5.5c-16,0-26.4-10.2-26.4-26.6c0-17.2,11.3-27.7,25.3-27.7
			c13.7,0,23.7,9.9,23.7,27.3c0,0.6-0.1,1.6-0.2,2.1h-42.8c0.7,12.6,8.3,19.7,20.6,19.7c6.6,0,12.1-1.2,18.1-4.9L354.9,67.9z
			 M314.9,43.7h36.9c-0.8-12.5-7.4-19.4-17.8-19.4C323.4,24.3,316,31.3,314.9,43.7z"/>
		<path class="st0" d="M367.4,2.1h5.6v70.3h-5.6V2.1z"/>
		<path class="st0" d="M408.1,19.1c9.7,0,17,5.2,21.3,13.7V2.1h5.7v70.3h-5.7V59c-4.4,8.9-11.5,14.4-21.4,14.4
			c-13.6,0-24.9-9.6-24.9-27C383.1,29,394.3,19.1,408.1,19.1z M429.4,46.3c-1.7-12.6-10.2-22-21.3-22c-10.7,0-19,7.3-19,22
			c0,13.7,8.2,21.9,19,21.9C420,68.2,427.4,58.3,429.4,46.3z"/>
		<path class="st0" d="M501.1,72.4l-5.3-0.1l-13.9-43.9l-15.7,44l-5.4-0.1l-18.7-52.1h6.4l15.3,44.4l15.4-44.4h5.7l13.9,44.5
			l16.5-44.5h6.3L501.1,72.4z"/>
		<path class="st0" d="M531.2,0c2.6,0,4.8,2,4.8,4.6c0,2.5-2.2,4.6-4.8,4.6c-2.5,0-4.6-2.1-4.6-4.6C526.6,2,528.7,0,531.2,0z
			 M528.4,20.2h5.6v52.2h-5.6V20.2z"/>
		<path class="st0" d="M547.6,20.2h5.6v55.4c0,12.4-6.3,18.7-17.1,18.7c-4.6,0-9-1.1-12.5-3.1l1.7-4.8c3.5,1.7,7.9,2.6,11,2.6
			c7.2,0,11.3-3.8,11.3-13.4V20.2z M550.5,0c2.6,0,4.8,2,4.8,4.6c0,2.5-2.2,4.6-4.8,4.6c-2.5,0-4.6-2.1-4.6-4.6
			C545.9,2,548,0,550.5,0z"/>
		<path class="st0" d="M587.9,19.1c9.7,0,17,5.2,21.3,13.7V2.1h5.7v70.3h-5.7V59c-4.4,8.9-11.5,14.4-21.4,14.4
			c-13.6,0-24.9-9.6-24.9-27C562.9,29,574.1,19.1,587.9,19.1z M609.2,46.3c-1.7-12.6-10.2-22-21.3-22c-10.7,0-19,7.3-19,22
			c0,13.7,8.2,21.9,19,21.9C599.8,68.2,607.2,58.3,609.2,46.3z"/>
		<path class="st0" d="M671.2,67.9c-4.7,3.4-12.1,5.5-19.7,5.5c-16,0-26.4-10.2-26.4-26.6c0-17.2,11.3-27.7,25.3-27.7
			c13.7,0,23.7,9.9,23.7,27.3c0,0.6-0.1,1.6-0.2,2.1h-42.8c0.7,12.6,8.3,19.7,20.6,19.7c6.6,0,12.1-1.2,18.1-4.9L671.2,67.9z
			 M631.2,43.7h36.9c-0.8-12.5-7.4-19.4-17.8-19.4C639.7,24.3,632.3,31.3,631.2,43.7z"/>
	</g>
	<g>
		<path class="st0" d="M0,115.2h5.6v14.3c5.6-10.6,12.8-15.4,21.4-15.4c7.7,0,15.1,3.6,16.6,15.8c5.7-10.9,12.9-15.8,21.7-15.8
			c8.7,0,16.9,4.5,16.9,20.8v32.5h-5.6v-31.8c0-11.9-5.4-16.2-12.4-16.2c-8.5,0-15.4,6.5-20.3,19.2v28.8h-5.6v-31.8
			c0-11.9-5.4-16.2-12.5-16.2c-8.3,0-15.1,6.3-20.2,19.1v28.9H0V115.2z"/>
		<path class="st0" d="M118.4,114.1c13.3,0,27.1,9.5,27.1,27c0,17.3-13,27.3-27.2,27.3c-13.7,0-26.5-9.4-26.5-26.9
			C91.8,124,105,114.1,118.4,114.1z M118.6,163.2c11.5,0,21-7.9,21-21.6c0-14.1-9.9-22.3-21.1-22.3c-10.5,0-20.7,7.7-20.7,21.9
			C97.8,155.5,107.2,163.2,118.6,163.2z"/>
		<path class="st0" d="M177.2,114.1c9.7,0,17,5.2,21.3,13.7V97.1h5.7v70.3h-5.7V154c-4.4,8.9-11.5,14.4-21.4,14.4
			c-13.6,0-24.9-9.6-24.9-27C152.2,124,163.4,114.1,177.2,114.1z M198.5,141.3c-1.7-12.6-10.2-22-21.3-22c-10.7,0-19,7.3-19,22
			c0,13.7,8.2,21.9,19,21.9C189.1,163.2,196.5,153.3,198.5,141.3z"/>
		<path class="st0" d="M260.5,162.9c-4.7,3.4-12.1,5.5-19.7,5.5c-16,0-26.4-10.2-26.4-26.6c0-17.2,11.3-27.7,25.3-27.7
			c13.7,0,23.7,9.9,23.7,27.3c0,0.6-0.1,1.6-0.2,2.1h-42.8c0.7,12.6,8.3,19.7,20.6,19.7c6.6,0,12.1-1.2,18.1-4.9L260.5,162.9z
			 M220.5,138.7h36.9c-0.8-12.5-7.4-19.4-17.8-19.4C229,119.3,221.6,126.3,220.5,138.7z"/>
		<path class="st0" d="M312.8,163.1c-4.1,3.3-9.8,5.3-17.1,5.3c-13.6,0-26-9.8-26-26.8c0-17.4,12.5-27.5,25.9-27.5
			c7,0,12.7,1.7,17.2,5.4l-2.2,5c-3.8-3-8-5.2-15-5.2c-10.5,0-19.9,8.3-19.9,22.1c0,13.3,9.2,21.8,20,21.8c6.2,0,10.8-1.3,15.4-4.5
			L312.8,163.1z"/>
		<path class="st0" d="M342,114.1c13.3,0,27.1,9.5,27.1,27c0,17.3-13,27.3-27.2,27.3c-13.7,0-26.5-9.4-26.5-26.9
			C315.4,124,328.6,114.1,342,114.1z M342.2,163.2c11.5,0,21-7.9,21-21.6c0-14.1-9.9-22.3-21.1-22.3c-10.5,0-20.7,7.7-20.7,21.9
			C321.4,155.5,330.8,163.2,342.2,163.2z"/>
		<path class="st0" d="M379.1,115.2h5.6v14.5c5.7-10.7,13.3-15.6,22-15.6c8.8,0,17,4.5,17,20.8v32.5H418v-31.8
			c0-11.9-5.4-16.2-12.4-16.2c-8.9,0-15.8,6.3-20.9,19.1v28.9h-5.6V115.2z"/>
		<path class="st0" d="M436.6,115.2h5.6v14.5c5.7-10.7,13.3-15.6,22-15.6c8.8,0,17,4.5,17,20.8v32.5h-5.7v-31.8
			c0-11.9-5.4-16.2-12.4-16.2c-8.9,0-15.8,6.3-20.9,19.1v28.9h-5.6V115.2z"/>
		<path class="st0" d="M536.9,162.9c-4.7,3.4-12.1,5.5-19.7,5.5c-16,0-26.4-10.2-26.4-26.6c0-17.2,11.3-27.7,25.3-27.7
			c13.7,0,23.7,9.9,23.7,27.3c0,0.6-0.1,1.6-0.2,2.1h-42.8c0.7,12.6,8.3,19.7,20.6,19.7c6.6,0,12.1-1.2,18.1-4.9L536.9,162.9z
			 M496.9,138.7h36.9c-0.8-12.5-7.4-19.4-17.8-19.4C505.4,119.3,498,126.3,496.9,138.7z"/>
		<path class="st0" d="M589.2,163.1c-4.1,3.3-9.8,5.3-17.1,5.3c-13.6,0-26-9.8-26-26.8c0-17.4,12.5-27.5,25.9-27.5
			c7,0,12.7,1.7,17.2,5.4l-2.2,5c-3.8-3-8-5.2-15-5.2c-10.5,0-19.9,8.3-19.9,22.1c0,13.3,9.2,21.8,20,21.8c6.2,0,10.8-1.3,15.4-4.5
			L589.2,163.1z"/>
		<path class="st0" d="M603.2,120.1h-9.6v-4.9h9.6V99.4h5.6v15.8h20.3v4.9h-20.3v29.4c0,10.3,4.6,13.7,11.2,13.7
			c3.1,0,6.8-0.8,10-2.5l1.4,4.7c-3.6,1.8-7.4,3-12.5,3c-9.1,0-15.7-5.2-15.7-18V120.1z"/>
		<path class="st0" d="M640.4,95c2.6,0,4.8,2,4.8,4.6c0,2.5-2.2,4.6-4.8,4.6c-2.5,0-4.6-2.1-4.6-4.6C635.8,97,637.9,95,640.4,95z
			 M637.6,115.2h5.6v52.2h-5.6V115.2z"/>
		<path class="st0" d="M698.9,162.9c-4.7,3.4-12.1,5.5-19.7,5.5c-16,0-26.4-10.2-26.4-26.6c0-17.2,11.3-27.7,25.3-27.7
			c13.7,0,23.7,9.9,23.7,27.3c0,0.6-0.1,1.6-0.2,2.1h-42.8c0.7,12.6,8.3,19.7,20.6,19.7c6.6,0,12.1-1.2,18.1-4.9L698.9,162.9z
			 M658.9,138.7h36.9c-0.8-12.5-7.4-19.4-17.8-19.4C667.4,119.3,660,126.3,658.9,138.7z"/>
	</g>
</g>
</svg>
