<?xml version="1.0" encoding="utf-8"?>
<!-- Generator: Adobe Illustrator 24.0.0, SVG Export Plug-In . SVG Version: 6.00 Build 0)  -->
<svg version="1.1" id="Laag_1" xmlns="http://www.w3.org/2000/svg" xmlns:xlink="http://www.w3.org/1999/xlink" x="0px" y="0px"
	 width="225px" height="23px" viewBox="0 0 225 23" style="enable-background:new 0 0 225 23;" xml:space="preserve">
<g>
	<path d="M2,2h13.5v3.7H6.4v3.2h7.8v3.5H6.4v3.8h9.3V20H2V2z"/>
	<path d="M23.3,20.3c-1,0-2-0.2-2.8-0.5S19,19,18.4,18.4s-1.1-1.3-1.4-2.2c-0.3-0.8-0.5-1.7-0.5-2.7s0.2-1.9,0.5-2.7
		s0.8-1.5,1.4-2.2C19,8,19.7,7.5,20.5,7.2c0.8-0.3,1.7-0.5,2.8-0.5c0.9,0,1.7,0.1,2.4,0.4c0.7,0.2,1.3,0.6,1.8,1
		c0.5,0.4,0.9,1,1.2,1.6c0.3,0.6,0.5,1.3,0.6,2h-3.9c-0.1-0.6-0.4-1-0.7-1.4c-0.3-0.3-0.8-0.5-1.4-0.5c-0.9,0-1.5,0.3-2,1
		s-0.6,1.6-0.6,2.8s0.2,2.1,0.6,2.7c0.4,0.7,1.1,1,2,1c1.3,0,2-0.7,2.2-2.2h3.9c0,0.7-0.2,1.4-0.5,2.1c-0.3,0.6-0.7,1.2-1.2,1.7
		s-1.2,0.8-1.9,1.1C25,20.1,24.2,20.3,23.3,20.3z"/>
	<path d="M30.7,2h4.1v6.7h0.1c0.5-0.6,1-1.1,1.6-1.4s1.3-0.5,2.2-0.5c0.7,0,1.3,0.1,1.9,0.4c0.6,0.2,1,0.6,1.4,1
		c0.4,0.4,0.7,0.9,0.9,1.5s0.3,1.2,0.3,2V20H39v-7.5c0-0.7-0.2-1.2-0.5-1.7c-0.3-0.4-0.8-0.6-1.5-0.6s-1.2,0.2-1.6,0.8
		c-0.4,0.5-0.6,1.2-0.6,2v7.1h-4.1C30.7,20.1,30.7,2,30.7,2z"/>
	<path d="M49.8,20c-0.6,0-1.1-0.1-1.6-0.2s-0.9-0.3-1.3-0.6c-0.4-0.3-0.6-0.6-0.9-1.1c-0.2-0.5-0.3-1-0.3-1.7V9.6H44V7.1h1.7V3h4v4
		H52v2.5h-2.3v6c0,0.5,0.1,0.8,0.4,1c0.3,0.2,0.6,0.2,1,0.2c0.2,0,0.4,0,0.5,0c0.2,0,0.3,0,0.4,0v3c-0.2,0-0.5,0.1-0.8,0.1
		C50.8,20,50.3,20,49.8,20z"/>
	<path d="M59.6,20.2c-1.1,0-2-0.2-2.9-0.5s-1.6-0.8-2.1-1.4c-0.6-0.6-1-1.3-1.4-2.2c-0.3-0.8-0.5-1.7-0.5-2.7s0.2-1.8,0.5-2.7
		c0.3-0.8,0.8-1.5,1.4-2.1c0.6-0.6,1.3-1.1,2.1-1.4s1.7-0.5,2.7-0.5c0.9,0,1.7,0.1,2.5,0.4s1.4,0.7,1.9,1.2c0.8,0.7,1.3,1.6,1.7,2.7
		s0.6,2.3,0.5,3.6h-9.2c0.1,0.9,0.4,1.5,0.9,2s1.1,0.8,2,0.8c0.5,0,1-0.1,1.3-0.3c0.4-0.2,0.6-0.5,0.8-0.9h4
		c-0.1,0.6-0.4,1.1-0.8,1.7c-0.4,0.5-0.8,1-1.4,1.4c-0.5,0.4-1.1,0.7-1.8,0.9C61.2,20.2,60.4,20.2,59.6,20.2z M61.9,12.1
		c-0.1-0.8-0.3-1.4-0.8-1.8c-0.4-0.5-1-0.7-1.7-0.7c-0.8,0-1.4,0.2-1.8,0.7c-0.4,0.4-0.7,1.1-0.8,1.8H61.9z"/>
	<path d="M76.3,20c-0.6,0-1.1-0.1-1.6-0.2s-0.9-0.3-1.3-0.6c-0.4-0.3-0.6-0.6-0.9-1.1c-0.2-0.5-0.3-1-0.3-1.7V9.6h-1.7V7.1h1.7V3h4
		v4h2.3v2.5h-2.3v6c0,0.5,0.1,0.8,0.4,1s0.6,0.2,1,0.2c0.2,0,0.4,0,0.5,0c0.2,0,0.3,0,0.4,0v3c-0.2,0-0.5,0.1-0.8,0.1
		C77.3,20,76.9,20,76.3,20z"/>
	<path d="M80,7.1h3.9v2H84c0.4-0.8,0.9-1.3,1.5-1.7c0.5-0.4,1.2-0.5,2-0.5c0.4,0,0.6,0,0.8,0.1v3.5h-0.1c-1.2-0.2-2.2,0-3,0.6
		c-0.7,0.6-1.1,1.6-1.1,3v5.8H80V7.1z"/>
	<path d="M95.6,20.3c-1,0-2-0.2-2.8-0.5s-1.6-0.8-2.2-1.4s-1.1-1.3-1.4-2.2c-0.3-0.8-0.5-1.7-0.5-2.7s0.2-1.9,0.5-2.7
		s0.8-1.5,1.4-2.2c0.6-0.6,1.3-1.1,2.2-1.4c0.8-0.3,1.8-0.5,2.8-0.5s2,0.2,2.8,0.5s1.6,0.8,2.2,1.4s1,1.3,1.4,2.2
		c0.3,0.8,0.5,1.7,0.5,2.7s-0.2,1.9-0.5,2.7c-0.3,0.8-0.8,1.5-1.4,2.2c-0.6,0.6-1.3,1.1-2.2,1.4C97.6,20.1,96.6,20.3,95.6,20.3z
		 M95.6,17.4c0.9,0,1.6-0.4,2-1.1c0.5-0.7,0.7-1.6,0.7-2.8s-0.2-2.1-0.7-2.8c-0.5-0.7-1.1-1.1-2-1.1s-1.6,0.4-2,1.1
		c-0.4,0.7-0.7,1.7-0.7,2.8c0,1.2,0.2,2.1,0.7,2.8C94,17,94.7,17.4,95.6,17.4z"/>
	<path d="M110.1,20.3c-1,0-2-0.2-2.8-0.5s-1.6-0.8-2.2-1.4s-1.1-1.3-1.4-2.2s-0.5-1.7-0.5-2.7s0.2-1.9,0.5-2.7s0.8-1.5,1.4-2.2
		c0.6-0.6,1.3-1.1,2.2-1.4c0.8-0.3,1.8-0.5,2.8-0.5s2,0.2,2.8,0.5s1.6,0.8,2.2,1.4s1.1,1.3,1.4,2.2c0.3,0.8,0.5,1.7,0.5,2.7
		s-0.2,1.9-0.5,2.7c-0.3,0.8-0.8,1.5-1.4,2.2c-0.6,0.6-1.3,1.1-2.2,1.4C112.1,20.1,111.1,20.3,110.1,20.3z M110.1,17.4
		c0.9,0,1.6-0.4,2-1.1c0.5-0.7,0.7-1.6,0.7-2.8s-0.2-2.1-0.7-2.8c-0.5-0.7-1.1-1.1-2-1.1s-1.6,0.4-2,1.1c-0.5,0.7-0.7,1.7-0.7,2.8
		c0,1.2,0.2,2.1,0.7,2.8C108.5,17,109.2,17.4,110.1,17.4z"/>
	<path d="M123.7,20.3c-1.9,0-3.4-0.4-4.5-1.2c-1.1-0.8-1.7-1.9-1.8-3.3h3.8c0.1,0.6,0.3,1.1,0.7,1.4c0.4,0.3,0.9,0.5,1.6,0.5
		c0.6,0,1.1-0.1,1.5-0.3c0.4-0.2,0.5-0.5,0.5-1c0-0.3-0.1-0.5-0.3-0.7c-0.2-0.2-0.4-0.3-0.7-0.4c-0.3-0.1-0.6-0.2-1-0.2
		c-0.4-0.1-0.8-0.1-1.2-0.2c-0.6-0.1-1.1-0.2-1.7-0.4c-0.5-0.1-1-0.4-1.5-0.6c-0.4-0.3-0.8-0.7-1.1-1.1c-0.3-0.5-0.4-1.1-0.4-1.8
		s0.1-1.3,0.4-1.8s0.7-0.9,1.2-1.3c0.5-0.3,1.1-0.6,1.8-0.8c0.7-0.2,1.4-0.3,2.1-0.3c1.8,0,3.2,0.4,4.2,1.1c1,0.7,1.5,1.7,1.6,3
		h-3.8c-0.1-0.6-0.3-1-0.7-1.2c-0.4-0.2-0.8-0.3-1.4-0.3c-0.5,0-0.9,0.1-1.3,0.3s-0.5,0.5-0.5,0.9c0,0.2,0.1,0.4,0.2,0.6
		c0.2,0.1,0.4,0.2,0.7,0.3c0.3,0.1,0.6,0.2,1,0.2c0.4,0.1,0.8,0.1,1.2,0.2c0.6,0.1,1.1,0.2,1.7,0.4c0.6,0.1,1.1,0.4,1.6,0.7
		s0.9,0.7,1.2,1.2s0.5,1.2,0.5,2c0,0.7-0.1,1.3-0.4,1.8c-0.3,0.5-0.7,1-1.2,1.3s-1.1,0.6-1.8,0.8S124.6,20.3,123.7,20.3z"/>
	<path d="M135.6,20c-0.6,0-1.1-0.1-1.6-0.2s-0.9-0.3-1.3-0.6c-0.4-0.3-0.7-0.6-0.8-1.1c-0.2-0.5-0.3-1-0.3-1.7V9.6h-1.7V7.1h1.7V3h4
		v4h2.3v2.5h-2.3v6c0,0.5,0.1,0.8,0.4,1c0.3,0.2,0.6,0.2,1,0.2c0.2,0,0.4,0,0.5,0c0.2,0,0.3,0,0.4,0v3c-0.2,0-0.5,0.1-0.8,0.1
		C136.6,20,136.1,20,135.6,20z"/>
	<path d="M139.3,2h4v9.4l3.8-4.3h4.7l-4.5,4.8l5,8h-4.7l-3.1-5.2l-1.2,1.3v3.9h-4V2z"/>
	<path d="M157.3,20.2c-1.5,0-2.6-0.4-3.4-1.3c-0.8-0.9-1.1-2-1.1-3.5V7.1h4v7.5c0,0.7,0.2,1.2,0.5,1.6c0.3,0.4,0.8,0.6,1.4,0.6
		c0.7,0,1.2-0.2,1.7-0.7c0.4-0.5,0.6-1.1,0.6-1.9V7.1h4.1v12.8h-3.9v-1.6h-0.1c-0.5,0.6-1,1.1-1.6,1.5S158.2,20.2,157.3,20.2z"/>
	<path d="M167.1,7.1h3.9v1.8h0.1c0.5-0.7,1-1.2,1.7-1.6s1.4-0.5,2.3-0.5c0.7,0,1.3,0.1,1.9,0.4c0.5,0.2,1,0.6,1.4,1
		c0.4,0.4,0.7,0.9,0.9,1.5s0.3,1.2,0.3,2V20h-4.1v-7.5c0-0.7-0.2-1.2-0.5-1.7c-0.3-0.4-0.8-0.6-1.5-0.6s-1.2,0.2-1.6,0.8
		s-0.6,1.2-0.6,2v7.1h-4.1L167.1,7.1L167.1,7.1z"/>
	<path d="M186.8,20.3c-1.9,0-3.4-0.4-4.5-1.2c-1.1-0.8-1.7-1.9-1.8-3.3h3.8c0.1,0.6,0.3,1.1,0.7,1.4c0.4,0.3,0.9,0.5,1.6,0.5
		c0.6,0,1.1-0.1,1.5-0.3c0.4-0.2,0.5-0.5,0.5-1c0-0.3-0.1-0.5-0.3-0.7s-0.4-0.3-0.7-0.4c-0.3-0.1-0.6-0.2-1-0.2
		c-0.4-0.1-0.8-0.1-1.2-0.2c-0.6-0.1-1.1-0.2-1.7-0.4c-0.5-0.1-1-0.4-1.5-0.6c-0.4-0.3-0.8-0.7-1.1-1.1c-0.3-0.5-0.4-1.1-0.4-1.8
		s0.1-1.3,0.4-1.8s0.7-0.9,1.2-1.3c0.5-0.3,1.1-0.6,1.8-0.8c0.7-0.2,1.4-0.3,2.1-0.3c1.8,0,3.2,0.4,4.2,1.1s1.5,1.7,1.6,3h-3.8
		c-0.1-0.6-0.3-1-0.7-1.2s-0.8-0.3-1.4-0.3c-0.5,0-0.9,0.1-1.3,0.3s-0.5,0.5-0.5,0.9c0,0.2,0.1,0.4,0.2,0.6c0.2,0.1,0.4,0.2,0.7,0.3
		s0.6,0.2,1,0.2c0.4,0.1,0.8,0.1,1.2,0.2c0.6,0.1,1.1,0.2,1.7,0.4c0.6,0.1,1.1,0.4,1.6,0.7s0.9,0.7,1.2,1.2s0.5,1.2,0.5,2
		c0,0.7-0.1,1.3-0.4,1.8c-0.3,0.5-0.7,1-1.2,1.3s-1.1,0.6-1.8,0.8S187.6,20.3,186.8,20.3z"/>
	<path d="M198.6,20c-0.6,0-1.1-0.1-1.6-0.2s-0.9-0.3-1.3-0.6c-0.4-0.3-0.7-0.6-0.8-1.1c-0.2-0.5-0.3-1-0.3-1.7V9.6h-1.7V7.1h1.7V3h4
		v4h2.3v2.5h-2.3v6c0,0.5,0.1,0.8,0.4,1c0.3,0.2,0.6,0.2,1,0.2c0.2,0,0.4,0,0.5,0c0.2,0,0.3,0,0.4,0v3c-0.2,0-0.5,0.1-0.8,0.1
		C199.6,20,199.2,20,198.6,20z"/>
</g>
<g>
	<path d="M207.5,0h3.4v3.8l3.3-1.9l1.7,2.9l-3.3,1.9l3.3,1.9l-1.7,2.9l-3.3-1.9v3.8h-3.4V9.7l-3.3,1.9l-1.7-2.9l3.3-1.9l-3.3-1.9
		l1.7-2.9l3.3,1.9V0z"/>
</g>
</svg>
