<?xml version="1.0" encoding="utf-8"?>
<!-- Generator: Adobe Illustrator 24.3.0, SVG Export Plug-In . SVG Version: 6.00 Build 0)  -->
<svg version="1.1" id="Laag_1" xmlns="http://www.w3.org/2000/svg" xmlns:xlink="http://www.w3.org/1999/xlink" x="0px" y="0px"
	 width="768.1px" height="853.7px" viewBox="0 0 768.1 853.7" style="enable-background:new 0 0 768.1 853.7;" xml:space="preserve"
	>
<style type="text/css">
	.st0{fill:none;stroke:#FFFFFF;stroke-width:4.999;stroke-miterlimit:10;}
	.st1{fill:#FFFFFF;}
</style>
<line class="st0" x1="146.9" y1="742.4" x2="621.2" y2="742.4"/>
<g>
	<path class="st1" d="M277.1,67.5V26c0-4.6-2.2-5.4-4.9-5.4h-11.6v-7.7h1.3c4.3,0,8-0.1,11.7-2.8c3.6-2.6,4.8-6,5.8-10.1h10v67.5
		H277.1z"/>
	<path class="st1" d="M333.3,67.5V26c0-4.6-2.2-5.4-4.9-5.4h-11.6v-7.7h1.3c4.3,0,8-0.1,11.7-2.8c3.6-2.6,4.8-6,5.8-10.1h10v67.5
		H333.3z"/>
	<path class="st1" d="M369.6,42.8V31.5h28.9v11.3H369.6z"/>
	<path class="st1" d="M426.6,67.5V26c0-4.6-2.2-5.4-4.9-5.4h-11.6v-7.7h1.3c4.3,0,8-0.1,11.7-2.8c3.6-2.6,4.8-6,5.8-10.1h10v67.5
		H426.6z"/>
	<path class="st1" d="M502.4,52v15.5h-12.3V52h-29.6v-8.8L490.1,0h12.3v41.7h8.7V52H502.4z M490.1,41.7c0-1.5,0.7-26.8,0.7-26.8
		l-17.4,26.8H490.1z"/>
</g>
<g>
	<path class="st1" d="M200,184.5L169.1,135c0,0,0.8,48.2,0.8,49.5H157v-70.6h11.9l31.3,49.8c0,0-1.5-48.2-1.6-49.8h13v70.6H200z"/>
	<path class="st1" d="M249.1,186c-18.2,0-26-14.5-26-26.7c0-12,7.9-26.3,25.6-26.3c10.9,0,25.7,7.3,25.8,26.3
		C274.5,172.7,266.1,186,249.1,186z M249.1,175c8.8,0,12.9-7.5,12.9-15.1c0-8-4.3-16.1-13.5-16.1c-7,0-12.9,5.1-12.9,15.2
		C235.6,167.8,240.5,175,249.1,175z"/>
	<path class="st1" d="M308.2,184.5h-12.8l-16.2-50h12.4l10.4,34.4l10.2-34.4h12.5L308.2,184.5z"/>
	<path class="st1" d="M341.9,161.9c0.2,2.5,2.5,12.4,14.1,12.4c8.5,0,12.1-5.2,13.1-6.9l10.2,5.9c-4,5.4-11.3,12.7-24.4,12.7
		c-14.9,0-25.7-10.2-25.7-26.8c0-17.9,12.1-26.2,25.1-26.2c19.1,0,24.6,15.3,24.6,28.9L341.9,161.9L341.9,161.9z M365.7,153.1
		c-0.2-2.5-1.8-10.5-11.2-10.5c-9.9,0-11.8,8.5-12.2,10.5H365.7z"/>
	<path class="st1" d="M400.4,134.5v5.6c2.1-2.8,8-7.1,15.7-7.1c5.7,0,11.1,2.6,13.9,7.6c3.2-4.1,8.3-7.6,16.1-7.6
		c10.1,0,17.2,5.3,17.2,17.3v34.2h-11.9v-30.6c0-1.9-0.4-9.7-8.4-9.7c-1.9,0-6.2,0.7-8.9,5.1c-2.3,3.6-2.4,7.7-2.4,11.7v23.5h-11.9
		v-30.7c0-3.9-1.7-9.5-8.2-9.5c-1.2,0-3.8,0.3-6.3,2.4c-4.9,4.2-5,11.2-5,16.8v21h-12v-50H400.4z"/>
	<path class="st1" d="M487.9,113.9v24.8c5.1-5.1,12-5.7,14.3-5.7c11.6,0,22,10.2,22,26.2c0,17.8-12.1,26.8-22.7,26.8
		c-2.9,0-8.4-0.6-13.7-6.7v5.2h-11.9v-70.6H487.9z M499.9,174.6c6.5,0,12-5.6,12-16.3c0-6.7-3.9-14.4-12.5-14.4
		c-7.2,0-11.7,6.3-11.7,14.4C487.7,169.1,492.7,174.6,499.9,174.6z"/>
	<path class="st1" d="M543.9,161.9c0.2,2.5,2.5,12.4,14.1,12.4c8.5,0,12.1-5.2,13.1-6.9l10.2,5.9c-4,5.4-11.3,12.7-24.4,12.7
		c-14.9,0-25.7-10.2-25.7-26.8c0-17.9,12.1-26.2,25.1-26.2c19.1,0,24.6,15.3,24.6,28.9L543.9,161.9L543.9,161.9z M567.7,153.1
		c-0.2-2.5-1.8-10.5-11.2-10.5c-9.9,0-11.8,8.5-12.2,10.5H567.7z"/>
	<path class="st1" d="M602,134.5v7.1c3.8-7.9,12.5-8.2,14.9-8.2h1v12.3c-2.5,0-12.1,0-15,9.2c-0.9,2.8-0.9,5.3-0.9,8.2v21.4h-11.6
		v-50H602z"/>
</g>
<g>
	<path class="st1" d="M277.4,291.7c11.6-8.3,20-16.7,23.6-20.7c1.6-1.8,7.3-8,7.3-16.5c0-5.5-2.9-10.1-8.9-10.1
		c-9.2,0-9.5,9.2-9.5,14.4v1.3l-12.5-1.2v-0.5c0-8.5,2.6-14,4.8-17c2.2-3.1,8.1-8.5,18.3-8.5c8,0,13,3.4,15.3,5.5
		c4.4,3.9,6.3,9.9,6.3,15.7c0,2-0.2,6.2-2.6,11.2c-4,8.4-11.8,14.3-18.6,20.1c-2.4,2-4.7,4-7.2,5.7h29.6v10.4h-45.9L277.4,291.7
		L277.4,291.7z"/>
	<path class="st1" d="M356,302.4c-23.5,0-24.5-23.9-24.5-35c0-24.7,10.6-34.5,25.1-34.5c12.7,0,24.2,8.8,24.2,34.6
		C380.8,295.2,367.8,302.4,356,302.4z M356.2,291.3c9.6,0,11.6-9.6,11.6-23.6c0-9.7-0.4-23.7-11.4-23.7c-10.1,0-12,11.5-12,24.1
		C344.4,275.6,344.4,291.3,356.2,291.3z"/>
	<path class="st1" d="M389.8,291.7c11.6-8.3,20-16.7,23.6-20.7c1.6-1.8,7.3-8,7.3-16.5c0-5.5-2.9-10.1-8.9-10.1
		c-9.2,0-9.5,9.2-9.5,14.4v1.3l-12.5-1.2v-0.5c0-8.5,2.6-14,4.8-17c2.2-3.1,8.1-8.5,18.3-8.5c8,0,13,3.4,15.3,5.5
		c4.4,3.9,6.3,9.9,6.3,15.7c0,2-0.2,6.2-2.6,11.2c-4,8.4-11.8,14.3-18.6,20.1c-2.4,2-4.7,4-7.2,5.7h29.6v10.4h-45.9L389.8,291.7
		L389.8,291.7z"/>
	<path class="st1" d="M464.3,301.5V260c0-4.6-2.2-5.4-4.9-5.4h-11.6v-7.7h1.3c4.3,0,8-0.1,11.7-2.8c3.6-2.6,4.8-6,5.8-10.1h10v67.5
		H464.3z"/>
</g>
<g>
	<path class="st1" d="M272.1,488.6c0,6-0.1,9-1.2,12.5c-2.3,7.1-10.4,16.2-27.7,16.2c-11.3,0-23.2-4.4-26.9-16
		c-1.1-3.6-1.1-6.9-1.1-14.4v-42h13.3v43.4c0,4.2,0,5.7,0.7,7.8c1.3,4.2,5.1,8.4,14.5,8.4c1.7,0,11.4,0,14.3-8
		c0.8-2.3,0.9-4.2,0.9-8.9v-42.7h13.2V488.6z"/>
	<path class="st1" d="M280.5,465.5h7.3v-17.8h12v17.8h10.7v8.5h-10.7v24.8c0,1.9,0.1,4.1,1.2,5.3c1.4,1.5,4,1.5,4.5,1.5
		c1.7,0,3.5-0.2,5-0.6v10.1c-1.6,0.2-4.5,0.8-8.6,0.8c-10.7,0-14.1-3.9-14.1-12.1V474h-7.3V465.5z"/>
	<path class="st1" d="M329.4,465.5v7.1c3.8-7.9,12.5-8.2,14.9-8.2h1v12.3c-2.5,0-12.1,0-15,9.2c-0.9,2.8-0.9,5.3-0.9,8.2v21.4h-11.6
		v-50H329.4z"/>
	<path class="st1" d="M361,492.9c0.2,2.5,2.5,12.4,14.1,12.4c8.5,0,12.1-5.2,13.1-6.9l10.2,5.9c-4,5.4-11.3,12.7-24.4,12.7
		c-14.9,0-25.7-10.2-25.7-26.8c0-17.9,12.1-26.2,25.1-26.2c19.1,0,24.6,15.3,24.6,28.9H361z M384.8,484.1
		c-0.2-2.5-1.8-10.5-11.2-10.5c-9.9,0-11.8,8.5-12.2,10.5H384.8z"/>
	<path class="st1" d="M450.8,501.4c-3.5,9.9-12.6,15.6-22.6,15.6c-14.7,0-24.7-11.6-24.7-26.5c0-13,8.8-26.5,25.3-26.5
		c13,0,19.6,9.5,21.5,14.2l-10.7,5c-1.4-4.3-4.9-8.5-11.4-8.5c-8.1,0-12.3,7.2-12.3,15.5c0,8.7,4.5,15.6,12.6,15.6
		c8.5,0,11.2-7.4,12.1-9.8L450.8,501.4z"/>
	<path class="st1" d="M491,515.5v-29.3c0-7.3-3.6-10.8-9.4-10.8c-6.5,0-12.5,4.9-12.5,12.4v27.7h-12v-70.6h12v25.7
		c3-3.1,8.4-6.6,15.8-6.6c10.9,0,17.9,6.2,17.9,17.7v33.8H491z"/>
	<path class="st1" d="M509.5,465.5h7.3v-17.8h12v17.8h10.7v8.5h-10.7v24.8c0,1.9,0.1,4.1,1.2,5.3c1.4,1.5,4,1.5,4.5,1.5
		c1.7,0,3.5-0.2,5-0.6v10.1c-1.6,0.2-4.5,0.8-8.6,0.8c-10.7,0-14.1-3.9-14.1-12.1V474h-7.3L509.5,465.5L509.5,465.5z"/>
</g>
<g>
	<path class="st1" d="M151.1,736.2v-43.6h7.5v43.6H151.1z"/>
	<path class="st1" d="M172.4,722.2c0.1,1.5,1.5,7.7,8.7,7.7c5.2,0,7.5-3.2,8.1-4.3l6.3,3.6c-2.5,3.3-7,7.8-15.1,7.8
		c-9.2,0-15.9-6.3-15.9-16.5c0-11.1,7.5-16.2,15.5-16.2c11.8,0,15.2,9.4,15.2,17.8H172.4L172.4,722.2z M187.1,716.8
		c-0.1-1.5-1.1-6.5-6.9-6.5c-6.1,0-7.3,5.2-7.5,6.5H187.1z"/>
	<path class="st1" d="M229.3,734.6c0,9-6.1,11.9-14.9,11.9c-11.5,0-13.3-5.5-14.1-9.6h8.1c0.7,3.2,4.4,3.8,6.2,3.8
		c4.4,0,7.3-1.5,7.3-6.9v-2.7c-3.5,3.1-7.8,3.3-9.3,3.3c-6.5,0-13.3-4.1-13.3-14.7c0-10.8,7.3-15.3,14-15.3c4,0,7,1.7,8.7,4.2v-3.3
		h7.3V734.6z M214.5,711c-3.8,0-7.6,2.5-7.6,8.5c0,4.8,2.7,8.1,7.7,8.1c4.8,0,7.6-3.1,7.6-7.9C222.1,715,219.6,711,214.5,711z"/>
	<path class="st1" d="M257.7,736.2V733c-1.5,1.4-4.6,3.9-10,3.9c-5.1,0-7.7-2.2-8.9-4.1c-1.7-2.5-1.8-5.3-1.8-8.1v-19.4h7.5v17.8
		c0,3,0.7,6.9,6.1,6.9c3.6,0,5.4-2.3,6-3.5c1.1-2.2,1.2-5.1,1.2-7.4v-13.8h7.4v30.9H257.7z"/>
	<path class="st1" d="M279.1,722.2c0.1,1.5,1.5,7.7,8.7,7.7c5.2,0,7.5-3.2,8.1-4.3l6.3,3.6c-2.5,3.3-7,7.8-15.1,7.8
		c-9.2,0-15.9-6.3-15.9-16.5c0-11.1,7.5-16.2,15.5-16.2c11.8,0,15.2,9.4,15.2,17.8H279.1L279.1,722.2z M293.8,716.8
		c-0.1-1.5-1.1-6.5-6.9-6.5c-6.1,0-7.3,5.2-7.5,6.5H293.8z"/>
	<path class="st1" d="M327.9,715c-1.7-3.3-4.8-4.7-8.4-4.7c-1.4,0-5.1,0.4-5.1,3.2c0,2,1.9,2.7,6.3,3.5l5,0.9
		c4.7,0.9,8.3,3.6,8.3,8.6c0,5.7-5.4,10.6-13.9,10.6s-13.1-3.8-14.8-5.6l5.6-4.5c1.5,2,4.3,4,8.9,4c4.4,0,6.1-2.3,6.1-3.6
		c0-1.8-1.7-2.5-4.6-3l-3.8-0.7c-2.4-0.4-10.7-2-10.7-9.3c0-6.1,5.9-10.1,13.3-10.1c2.4,0,8.6,0.4,13.3,5.7L327.9,715z"/>
	<path class="st1" d="M360.1,715c-1.7-3.3-4.8-4.7-8.4-4.7c-1.4,0-5.1,0.4-5.1,3.2c0,2,1.9,2.7,6.3,3.5l5,0.9
		c4.7,0.9,8.3,3.6,8.3,8.6c0,5.7-5.4,10.6-13.9,10.6s-13.1-3.8-14.8-5.6l5.6-4.5c1.5,2,4.3,4,8.9,4c4.4,0,6.1-2.3,6.1-3.6
		c0-1.8-1.7-2.5-4.6-3l-3.8-0.7c-2.4-0.4-10.7-2-10.7-9.3c0-6.1,5.9-10.1,13.3-10.1c2.4,0,8.6,0.4,13.3,5.7L360.1,715z"/>
	<path class="st1" d="M404.3,736.2H397l-5.6-19.7l-5.9,19.7h-7.3l-9-30.9h7.7l5.4,21.1l5.7-21.1h6.6l5.7,21.1l5.5-21.1h7.7
		L404.3,736.2z"/>
	<path class="st1" d="M439.3,736.2v-18.1c0-4.5-2.2-6.7-5.8-6.7c-4,0-7.7,3-7.7,7.7v17.1h-7.4v-43.6h7.4v15.9
		c1.9-1.9,5.2-4.1,9.8-4.1c6.7,0,11.1,3.8,11.1,10.9v20.9L439.3,736.2L439.3,736.2z"/>
	<path class="st1" d="M468.7,737.1c-11.2,0-16.1-9-16.1-16.5c0-7.4,4.9-16.2,15.8-16.2c6.7,0,15.9,4.5,15.9,16.2
		C484.4,728.9,479.2,737.1,468.7,737.1z M468.7,730.3c5.4,0,8-4.6,8-9.3c0-4.9-2.7-9.9-8.3-9.9c-4.3,0-8,3.1-8,9.4
		C460.4,725.9,463.4,730.3,468.7,730.3z"/>
	<path class="st1" d="M488.8,736.2v-8.5h8.1v8.5H488.8z"/>
	<path class="st1" d="M530,727.5c-2.2,6.1-7.8,9.6-14,9.6c-9.1,0-15.3-7.2-15.3-16.4c0-8,5.4-16.4,15.6-16.4c8,0,12.1,5.9,13.3,8.8
		l-6.6,3.1c-0.9-2.7-3-5.2-7-5.2c-5,0-7.6,4.4-7.6,9.6c0,5.4,2.8,9.6,7.8,9.6c5.2,0,6.9-4.6,7.5-6.1L530,727.5z"/>
	<path class="st1" d="M549.5,737.1c-11.2,0-16.1-9-16.1-16.5c0-7.4,4.9-16.2,15.8-16.2c6.7,0,15.9,4.5,15.9,16.2
		C565.2,728.9,560,737.1,549.5,737.1z M549.5,730.3c5.4,0,8-4.6,8-9.3c0-4.9-2.7-9.9-8.3-9.9c-4.3,0-8,3.1-8,9.4
		C541.2,725.9,544.2,730.3,549.5,730.3z"/>
	<path class="st1" d="M578.6,705.3v3.5c1.3-1.7,4.9-4.4,9.7-4.4c3.5,0,6.9,1.6,8.6,4.7c2-2.5,5.1-4.7,9.9-4.7
		c6.2,0,10.6,3.3,10.6,10.7v21.1h-7.3v-18.9c0-1.2-0.2-6-5.2-6c-1.2,0-3.8,0.4-5.5,3.1c-1.4,2.2-1.5,4.8-1.5,7.2v14.5h-7.3v-19
		c0-2.4-1-5.9-5.1-5.9c-0.7,0-2.3,0.2-3.9,1.5c-3,2.6-3.1,6.9-3.1,10.4v13h-7.4v-30.9H578.6z"/>
</g>
</svg>
