<?xml version="1.0" encoding="utf-8"?>
<!-- Generator: Adobe Illustrator 24.0.0, SVG Export Plug-In . SVG Version: 6.00 Build 0)  -->
<svg version="1.1" id="Laag_1" xmlns="http://www.w3.org/2000/svg" xmlns:xlink="http://www.w3.org/1999/xlink" x="0px" y="0px"
	 width="405.4px" height="29px" viewBox="0 0 405.4 29" style="enable-background:new 0 0 405.4 29;" xml:space="preserve">
<style type="text/css">
	.st0{fill:#FFFFFF;}
</style>
<path class="st0" d="M23.4,19.3V18H22v-8h-1c-0.3,0.2-0.6,0.3-1,0.4c-0.4,0.1-0.7,0.2-1.2,0.3v1.1c0.2,0,0.5-0.1,0.8-0.1
	s0.5,0,0.8,0V18H19v1.3H23.4L23.4,19.3z M26.5,12.3c0.3-0.6,0.7-0.8,1.2-0.8s1,0.3,1.2,0.8c0.3,0.6,0.4,1.4,0.4,2.5
	s-0.1,1.9-0.4,2.5s-0.7,0.8-1.2,0.8s-1-0.3-1.2-0.8c-0.3-0.6-0.4-1.4-0.4-2.5C26.1,13.6,26.2,12.8,26.5,12.3L26.5,12.3z M25.3,18.2
	c0.6,0.8,1.4,1.2,2.5,1.2s1.9-0.4,2.5-1.2c0.6-0.8,0.8-2,0.8-3.5s-0.3-2.7-0.8-3.5c-0.6-0.8-1.4-1.2-2.5-1.2s-1.9,0.4-2.5,1.2
	s-0.8,2-0.8,3.5C24.5,16.3,24.7,17.5,25.3,18.2L25.3,18.2z M34.2,12.3c0.3-0.6,0.7-0.8,1.2-0.8s1,0.3,1.2,0.8
	c0.3,0.6,0.4,1.4,0.4,2.5s-0.1,1.9-0.4,2.5c-0.3,0.6-0.7,0.8-1.2,0.8s-1-0.3-1.2-0.8c-0.3-0.6-0.4-1.4-0.4-2.5
	C33.7,13.6,33.9,12.8,34.2,12.3L34.2,12.3z M32.9,18.2c0.6,0.8,1.4,1.2,2.5,1.2s1.9-0.4,2.5-1.2c0.6-0.8,0.8-2,0.8-3.5
	s-0.3-2.7-0.8-3.5c-0.6-0.8-1.4-1.2-2.5-1.2s-1.9,0.4-2.5,1.2c-0.6,0.8-0.8,2-0.8,3.5C32.1,16.3,32.4,17.5,32.9,18.2L32.9,18.2z
	 M43.9,19.1c0.4,0.2,0.8,0.3,1.2,0.3c0.8,0,1.5-0.2,1.9-0.7s0.6-1.2,0.6-2.1v-6.5h-1.7v6.6c0,0.4-0.1,0.7-0.2,0.9
	c-0.1,0.2-0.3,0.3-0.6,0.3c-0.2,0-0.3-0.1-0.5-0.2c-0.1-0.1-0.3-0.3-0.4-0.5l-1.3,1C43.2,18.6,43.5,18.9,43.9,19.1L43.9,19.1z
	 M52.4,11.7l1.2,4.1h-2.3L52.4,11.7L52.4,11.7z M50.3,19.3l0.6-2h3.2l0.6,2h1.7l-2.8-9.2h-2.2l-2.8,9.2H50.3L50.3,19.3z M60.7,11.7
	l1.2,4.1h-2.3L60.7,11.7L60.7,11.7z M58.5,19.3l0.6-2h3.2l0.6,2h1.7l-2.8-9.2h-2.2l-2.8,9.2H58.5L58.5,19.3z M67.3,11.6h1.5
	c0.6,0,1,0.1,1.2,0.3c0.3,0.2,0.4,0.5,0.4,1c0,0.4-0.1,0.8-0.4,1s-0.7,0.3-1.2,0.3h-1.5V11.6L67.3,11.6z M67.3,19.3v-3.7h1.6
	l1.8,3.7h1.9l-2-4.1c0.5-0.2,1-0.4,1.3-0.8c0.3-0.4,0.4-0.9,0.4-1.5c0-0.9-0.3-1.6-0.8-2.1c-0.6-0.4-1.4-0.7-2.6-0.7h-3.3v9.2H67.3
	L67.3,19.3z M78.5,18.9c0.6,0.4,1.3,0.6,2.1,0.6c1,0,1.7-0.2,2.3-0.7c0.6-0.5,0.8-1.1,0.8-2c0-0.6-0.2-1.1-0.5-1.5s-0.9-0.8-1.8-1.1
	c-0.2-0.1-0.4-0.2-0.8-0.3C79.5,13.5,79,13,79,12.6c0-0.3,0.1-0.5,0.3-0.7c0.2-0.2,0.5-0.3,0.9-0.3s0.7,0.1,1,0.3s0.5,0.5,0.7,0.9
	l1.6-0.6c-0.2-0.7-0.6-1.2-1.1-1.5s-1.2-0.5-1.9-0.5c-0.9,0-1.6,0.2-2.2,0.7s-0.8,1.1-0.8,1.8c0,0.4,0.1,0.8,0.3,1.2
	c0.2,0.3,0.5,0.6,0.8,0.8c0.4,0.2,1,0.5,1.9,0.8c0.1,0,0.2,0.1,0.3,0.1c0.5,0.2,0.9,0.4,1.1,0.6c0.2,0.2,0.3,0.4,0.3,0.7
	c0,0.4-0.1,0.6-0.4,0.8c-0.3,0.2-0.6,0.3-1.1,0.3c-0.4,0-0.8-0.1-1.1-0.3c-0.3-0.2-0.6-0.6-0.8-1.1l-1.6,0.7
	C77.5,17.9,77.9,18.5,78.5,18.9L78.5,18.9z M88.6,19.3v-7.6H91v-1.5h-6.6v1.5h2.4v7.6H88.6L88.6,19.3z M94,12.3
	c0.3-0.5,0.9-0.8,1.5-0.8c0.7,0,1.2,0.3,1.5,0.8c0.4,0.6,0.6,1.4,0.6,2.4s-0.2,1.8-0.5,2.4c-0.3,0.5-0.9,0.8-1.5,0.8
	c-0.7,0-1.2-0.3-1.5-0.8s-0.5-1.3-0.5-2.4C93.5,13.7,93.7,12.9,94,12.3L94,12.3z M92.8,18.2c0.7,0.8,1.6,1.3,2.8,1.3
	c1.2,0,2.1-0.4,2.8-1.3c0.7-0.8,1-2,1-3.5s-0.3-2.6-1-3.5c-0.7-0.8-1.6-1.2-2.8-1.2s-2.1,0.4-2.8,1.2c-0.7,0.8-1,2-1,3.5
	C91.7,16.2,92.1,17.4,92.8,18.2L92.8,18.2z M102.5,11.6h1.5c0.6,0,1,0.1,1.2,0.3c0.3,0.2,0.4,0.5,0.4,1c0,0.4-0.1,0.8-0.4,1
	s-0.7,0.3-1.2,0.3h-1.5V11.6L102.5,11.6z M102.5,19.3v-3.7h1.6l1.8,3.7h1.9l-2-4.1c0.5-0.2,1-0.4,1.3-0.8c0.3-0.4,0.4-0.9,0.4-1.5
	c0-0.9-0.3-1.6-0.8-2.1c-0.6-0.4-1.4-0.7-2.6-0.7H101v9.2H102.5L102.5,19.3z M112.6,19.3v-3.6l2.6-5.5h-1.6l-1.7,3.8l-1.8-3.8h-1.8
	l2.7,5.5v3.6H112.6L112.6,19.3z M119.7,19.3v-7.6h2.4v-1.5h-6.6v1.5h2.4v7.6H119.7L119.7,19.3z M129.5,19.3v-1.6h-4.4v-2.5h3.1v-1.5
	h-3.1v-2.2h4.2V10h-5.9v9.2L129.5,19.3L129.5,19.3z M136.5,19.3v-1.6h-3.9v-7.6h-1.8v9.2H136.5L136.5,19.3z M143.4,19.3v-1.6h-3.8
	v-7.6h-1.8v9.2H143.4L143.4,19.3z M146.6,19.3v-9.2h-1.7v9.2H146.6L146.6,19.3z M150.4,19.3v-5.1c0-0.4,0-0.7,0-1s0-0.6-0.1-0.8
	c0.2,0.5,0.4,0.9,0.5,1.2c0.2,0.4,0.3,0.7,0.5,1l2.9,4.7h1.6v-9.2h-1.6V15c0,0.4,0,0.7,0,1s0.1,0.6,0.1,0.9
	c-0.1-0.4-0.3-0.7-0.5-1.1c-0.2-0.4-0.4-0.7-0.6-1.1l-2.6-4.6h-1.8v9.2L150.4,19.3L150.4,19.3z M164.5,19.3v-4.6h-3.4v1.4h1.7
	c-0.1,0.6-0.3,1-0.6,1.4c-0.3,0.3-0.7,0.5-1.2,0.5c-0.6,0-1.1-0.3-1.4-0.8c-0.3-0.6-0.5-1.3-0.5-2.4c0-1.1,0.2-1.9,0.5-2.4
	c0.3-0.6,0.8-0.8,1.5-0.8c0.4,0,0.7,0.1,1,0.3s0.5,0.5,0.7,1l1.6-0.4c-0.2-0.8-0.6-1.3-1.2-1.7c-0.6-0.4-1.2-0.6-2.1-0.6
	c-1.2,0-2.1,0.4-2.8,1.2s-1,1.9-1,3.4s0.3,2.7,0.9,3.5c0.6,0.9,1.5,1.3,2.6,1.3c0.5,0,1-0.1,1.4-0.3c0.4-0.2,0.7-0.5,1-0.8l0.1,1
	h1.2V19.3z M172,19.3v-9.2h-1.7v9.2H172L172,19.3z M175.8,19.3v-5.1c0-0.4,0-0.7,0-1s0-0.6-0.1-0.8c0.2,0.5,0.4,0.9,0.5,1.2
	c0.2,0.4,0.3,0.7,0.5,1l2.9,4.7h1.6v-9.2h-1.6V15c0,0.4,0,0.7,0,1s0.1,0.6,0.1,0.9c-0.1-0.4-0.3-0.7-0.5-1.1
	c-0.2-0.4-0.4-0.7-0.6-1.1l-2.6-4.6h-1.8v9.2L175.8,19.3L175.8,19.3z M189.8,11.7l1.2,4.1h-2.3L189.8,11.7L189.8,11.7z M187.7,19.3
	l0.6-2h3.2l0.6,2h1.7l-2.8-9.2h-2.2l-2.8,9.2H187.7L187.7,19.3z M196.5,19.3v-4h3.1v-1.5h-3.1v-2.2h4v-1.5h-5.8v9.2H196.5
	L196.5,19.3z M203.6,11.6h1.5c0.6,0,1,0.1,1.2,0.3c0.3,0.2,0.4,0.5,0.4,1c0,0.4-0.1,0.8-0.4,1c-0.3,0.2-0.7,0.3-1.2,0.3h-1.5V11.6
	L203.6,11.6z M203.6,19.3v-3.7h1.6l1.8,3.7h1.9l-2-4.1c0.5-0.2,1-0.4,1.3-0.8c0.3-0.4,0.4-0.9,0.4-1.5c0-0.9-0.3-1.6-0.8-2.1
	c-0.6-0.4-1.4-0.7-2.6-0.7h-3.1v9.2H203.6L203.6,19.3z M212.2,19.3v-9.2h-1.7v9.2H212.2L212.2,19.3z M216.1,19.3v-2.7l1.3-1.7
	l2.2,4.3h2l-3-5.8l2.6-3.3h-2l-3.1,4.2v-4.2h-1.7v9.2H216.1L216.1,19.3z M225.6,11.7l1.2,4.1h-2.3L225.6,11.7L225.6,11.7z
	 M223.4,19.3l0.6-2h3.2l0.6,2h1.7l-2.8-9.2h-2.2l-2.8,9.2H223.4L223.4,19.3z M233.8,11.7l1.2,4.1h-2.3L233.8,11.7L233.8,11.7z
	 M231.7,19.3l0.6-2h3.2l0.6,2h1.7l-2.8-9.2h-2.2l-2.8,9.2H231.7L231.7,19.3z M240.4,19.3v-5.1c0-0.4,0-0.7,0-1s0-0.6-0.1-0.8
	c0.2,0.5,0.4,0.9,0.5,1.2c0.2,0.4,0.3,0.7,0.5,1l2.9,4.7h1.6v-9.2h-1.6V15c0,0.4,0,0.7,0,1s0.1,0.6,0.1,0.9
	c-0.1-0.4-0.3-0.7-0.5-1.1c-0.2-0.4-0.4-0.7-0.6-1.1l-2.6-4.6h-1.8v9.2L240.4,19.3L240.4,19.3z M248.4,18.9c0.6,0.4,1.3,0.6,2.1,0.6
	c1,0,1.7-0.2,2.3-0.7s0.8-1.1,0.8-2c0-0.6-0.2-1.1-0.5-1.5s-0.9-0.8-1.8-1.1c-0.2-0.1-0.4-0.2-0.8-0.3c-1.1-0.4-1.6-0.9-1.6-1.3
	c0-0.3,0.1-0.5,0.3-0.7s0.5-0.3,0.9-0.3s0.7,0.1,1,0.3s0.5,0.5,0.7,0.9l1.6-0.6c-0.2-0.7-0.6-1.2-1.1-1.5s-1.2-0.5-1.9-0.5
	c-0.9,0-1.6,0.2-2.2,0.7c-0.6,0.5-0.8,1.1-0.8,1.8c0,0.4,0.1,0.8,0.3,1.2c0.2,0.3,0.5,0.6,0.8,0.8c0.4,0.2,1,0.5,1.9,0.8
	c0.1,0,0.2,0.1,0.3,0.1c0.5,0.2,0.9,0.4,1.1,0.6c0.2,0.2,0.3,0.4,0.3,0.7c0,0.4-0.1,0.6-0.4,0.8c-0.3,0.2-0.6,0.3-1.1,0.3
	c-0.4,0-0.8-0.1-1.1-0.3c-0.3-0.2-0.6-0.6-0.8-1.1l-1.6,0.7C247.4,17.9,247.8,18.5,248.4,18.9L248.4,18.9z M257.6,16.7v-1.4h-2.8
	v1.4H257.6L257.6,16.7z M262.1,11.7l1.2,4.1H261L262.1,11.7L262.1,11.7z M260,19.3l0.6-2h3.2l0.6,2h1.7l-2.8-9.2h-2.2l-2.8,9.2H260
	L260,19.3z M268.6,19.3v-7.7c0,0.2,0.1,0.5,0.2,0.7c0.1,0.3,0.2,0.7,0.4,1.3l1.6,5.7h1.3l1.7-5.7c0.1-0.3,0.2-0.7,0.3-1
	c0.1-0.3,0.2-0.7,0.3-1v7.7h1.5v-9.2h-2.4l-1.3,4.5c-0.1,0.4-0.2,0.8-0.3,1.2c-0.1,0.4-0.2,0.7-0.3,1c0-0.4-0.1-0.7-0.2-1.1
	c-0.1-0.4-0.2-0.8-0.3-1.2l-1.3-4.4h-2.5v9.2H268.6L268.6,19.3z M283.9,19.3v-1.6h-4.4v-2.5h3.1v-1.5h-3.1v-2.2h4.2V10h-5.9v9.2
	L283.9,19.3L283.9,19.3z M287,11.6h1.5c0.6,0,1,0.1,1.2,0.3c0.3,0.2,0.4,0.5,0.4,1c0,0.4-0.1,0.8-0.4,1s-0.7,0.3-1.2,0.3H287V11.6
	L287,11.6z M287,19.3v-3.7h1.6l1.8,3.7h1.9l-2-4.1c0.5-0.2,1-0.4,1.3-0.8c0.3-0.4,0.4-0.9,0.4-1.5c0-0.9-0.3-1.6-0.8-2.1
	c-0.6-0.4-1.4-0.7-2.6-0.7h-3.1v9.2H287L287,19.3z M295.6,19.3v-9.2h-1.7v9.2H295.6L295.6,19.3z M299.5,19.3v-2.7l1.3-1.7l2.2,4.3h2
	l-3-5.8l2.6-3.3h-2l-3.1,4.2v-4.2h-1.7v9.2H299.5L299.5,19.3z M309,11.7l1.2,4.1h-2.3L309,11.7L309,11.7z M306.8,19.3l0.6-2h3.2
	l0.6,2h1.7l-2.8-9.2h-2.2l-2.8,9.2H306.8L306.8,19.3z M317.5,11.7l1.2,4.1h-2.3L317.5,11.7L317.5,11.7z M315.4,19.3l0.6-2h3.2l0.6,2
	h1.7l-2.8-9.2h-2.2l-2.8,9.2H315.4L315.4,19.3z M324.1,19.3v-5.1c0-0.4,0-0.7,0-1s0-0.6-0.1-0.8c0.2,0.5,0.4,0.9,0.5,1.2
	c0.2,0.4,0.3,0.7,0.5,1l2.9,4.7h1.6v-9.2h-1.6V15c0,0.4,0,0.7,0,1s0.1,0.6,0.1,0.9c-0.1-0.4-0.3-0.7-0.5-1.1
	c-0.2-0.4-0.4-0.7-0.6-1.1l-2.6-4.6h-1.8v9.2L324.1,19.3L324.1,19.3z M332.1,18.9c0.6,0.4,1.3,0.6,2.1,0.6c1,0,1.7-0.2,2.3-0.7
	c0.6-0.5,0.8-1.1,0.8-2c0-0.6-0.2-1.1-0.5-1.5s-0.9-0.8-1.8-1.1c-0.2-0.1-0.4-0.2-0.8-0.3c-1.1-0.4-1.6-0.9-1.6-1.3
	c0-0.3,0.1-0.5,0.3-0.7c0.2-0.2,0.5-0.3,0.9-0.3s0.7,0.1,1,0.3s0.5,0.5,0.7,0.9l1.6-0.6c-0.2-0.7-0.6-1.2-1.1-1.5s-1.2-0.5-1.9-0.5
	c-0.9,0-1.6,0.2-2.2,0.7s-0.8,1.1-0.8,1.8c0,0.4,0.1,0.8,0.3,1.2c0.2,0.3,0.5,0.6,0.8,0.8c0.4,0.2,1,0.5,1.9,0.8
	c0.1,0,0.2,0.1,0.3,0.1c0.5,0.2,0.9,0.4,1.1,0.6c0.2,0.2,0.3,0.4,0.3,0.7c0,0.4-0.1,0.6-0.4,0.8c-0.3,0.2-0.6,0.3-1.1,0.3
	c-0.4,0-0.8-0.1-1.1-0.3c-0.3-0.2-0.6-0.6-0.8-1.1l-1.6,0.7C331.1,17.9,331.5,18.5,332.1,18.9L332.1,18.9z M345,19.3v-1.6h-4.4v-2.5
	h3.1v-1.5h-3.1v-2.2h4.2V10h-5.9v9.2L345,19.3L345,19.3z M351.9,19.3v-2.7l1.3-1.7l2.2,4.3h2l-3-5.8l2.6-3.3h-2l-3.1,4.2v-4.2h-1.7
	v9.2H351.9L351.9,19.3z M359.4,18.6c0.6,0.6,1.4,0.9,2.6,0.9c1.1,0,2-0.3,2.6-0.8c0.6-0.6,0.9-1.4,0.9-2.4v-6.1h-1.7v5.9
	c0,0.7-0.1,1.2-0.4,1.5c-0.3,0.3-0.7,0.4-1.4,0.4c-0.6,0-1.1-0.2-1.3-0.5c-0.3-0.3-0.4-0.8-0.4-1.5v-5.9h-1.7v5.8
	C358.6,17.1,358.8,18,359.4,18.6L359.4,18.6z M369.1,19.3v-5.1c0-0.4,0-0.7,0-1s0-0.6-0.1-0.8c0.2,0.5,0.4,0.9,0.5,1.2
	c0.2,0.4,0.3,0.7,0.5,1l2.9,4.7h1.6v-9.2h-1.6V15c0,0.4,0,0.7,0,1s0.1,0.6,0.1,0.9c-0.1-0.4-0.3-0.7-0.5-1.1
	c-0.2-0.4-0.4-0.7-0.6-1.1l-2.6-4.6h-1.8v9.2L369.1,19.3L369.1,19.3z M377.2,18.9c0.6,0.4,1.3,0.6,2.1,0.6c1,0,1.7-0.2,2.3-0.7
	c0.6-0.5,0.8-1.1,0.8-2c0-0.6-0.2-1.1-0.5-1.5s-0.9-0.8-1.8-1.1c-0.2-0.1-0.4-0.2-0.8-0.3c-1.1-0.4-1.6-0.9-1.6-1.3
	c0-0.3,0.1-0.5,0.3-0.7c0.2-0.2,0.5-0.3,0.9-0.3s0.7,0.1,1,0.3s0.5,0.5,0.7,0.9l1.6-0.6c-0.2-0.7-0.6-1.2-1.1-1.5s-1.2-0.5-1.9-0.5
	c-0.9,0-1.6,0.2-2.2,0.7s-0.8,1.1-0.8,1.8c0,0.4,0.1,0.8,0.3,1.2c0.2,0.3,0.5,0.6,0.8,0.8c0.4,0.2,1,0.5,1.9,0.8
	c0.1,0,0.2,0.1,0.3,0.1c0.5,0.2,0.9,0.4,1.1,0.6c0.2,0.2,0.3,0.4,0.3,0.7c0,0.4-0.1,0.6-0.4,0.8c-0.3,0.2-0.6,0.3-1.1,0.3
	c-0.4,0-0.8-0.1-1.1-0.3c-0.3-0.2-0.6-0.6-0.8-1.1l-1.6,0.7C376.1,17.9,376.6,18.5,377.2,18.9L377.2,18.9z M387.3,19.3v-7.6h2.4
	v-1.5h-6.6v1.5h2.4v7.6H387.3L387.3,19.3z"/>
</svg>
