<?xml version="1.0" encoding="utf-8"?>
<!-- Generator: Adobe Illustrator 23.0.2, SVG Export Plug-In . SVG Version: 6.00 Build 0)  -->
<svg version="1.1" id="Laag_1" xmlns="http://www.w3.org/2000/svg" xmlns:xlink="http://www.w3.org/1999/xlink" x="0px" y="0px"
	 width="93.1px" height="12.4px" viewBox="0 0 93.1 12.4" style="enable-background:new 0 0 93.1 12.4;" xml:space="preserve">
<rect x="1.5" y="10.8" width="90.1" height="0.6"/>
<g>
	<path d="M8.1,8.8c0-0.2,0.1-6.4,0.1-6.4L6.6,8.8H5.3L3.6,2.4c0,0,0.1,6.1,0.1,6.4H2.3V1h2.1l1.5,5.8L7.4,1h2.1v7.8H8.1z"/>
	<path d="M13.6,8.9c-2,0-2.9-1.6-2.9-2.9c0-1.3,0.9-2.9,2.8-2.9c1.2,0,2.8,0.8,2.8,2.9C16.3,7.5,15.4,8.9,13.6,8.9z M13.6,7.7
		c1,0,1.4-0.8,1.4-1.7c0-0.9-0.5-1.8-1.5-1.8c-0.8,0-1.4,0.6-1.4,1.7C12.1,6.9,12.6,7.7,13.6,7.7z"/>
	<path d="M18.6,3.3V4c0.4-0.9,1.4-0.9,1.6-0.9h0.1v1.4c-0.3,0-1.3,0-1.6,1c-0.1,0.3-0.1,0.6-0.1,0.9v2.4h-1.3V3.3H18.6z"/>
	<path d="M22.1,6.3c0,0.3,0.3,1.4,1.5,1.4c0.9,0,1.3-0.6,1.4-0.8l1.1,0.6c-0.4,0.6-1.2,1.4-2.7,1.4c-1.6,0-2.8-1.1-2.8-2.9
		c0-2,1.3-2.9,2.8-2.9c2.1,0,2.7,1.7,2.7,3.2H22.1z M24.7,5.3c0-0.3-0.2-1.2-1.2-1.2c-1.1,0-1.3,0.9-1.3,1.2H24.7z"/>
	<path d="M29.6,2.4V1.1h1.3v1.3H29.6z M29.6,8.8V3.3h1.3v5.5H29.6z"/>
	<path d="M33.5,3.3v0.6C34,3.2,35,3.1,35.2,3.1c1.2,0,1.8,0.8,1.8,1.8v3.8h-1.3V5.7c0-0.6-0.2-1.3-1-1.3c-0.1,0-0.4,0-0.7,0.3
		c-0.4,0.3-0.5,0.8-0.5,1.7v2.4h-1.3V3.3H33.5z"/>
	<path d="M39.7,4.2v4.6h-1.3V4.2h-0.8V3.3h0.8V2.5c0-1,0.3-1.5,1.8-1.5c0.3,0,0.5,0,0.7,0.1v1.1c0,0-0.3,0-0.4,0
		c-0.8,0-0.8,0.4-0.8,0.8v0.4h1.2v0.9H39.7z"/>
	<path d="M44,8.9c-2,0-2.9-1.6-2.9-2.9c0-1.3,0.9-2.9,2.8-2.9c1.2,0,2.8,0.8,2.8,2.9C46.8,7.5,45.9,8.9,44,8.9z M44,7.7
		c1,0,1.4-0.8,1.4-1.7c0-0.9-0.5-1.8-1.5-1.8c-0.8,0-1.4,0.6-1.4,1.7C42.6,6.9,43.1,7.7,44,7.7z"/>
	<path d="M56.3,5.2c0,0.1,0,0.3-0.1,0.4c-0.1,0.2-0.3,1.1-0.8,1.8c0.2,0.3,0.4,0.3,0.8,0.3c0,0,0.1,0,0.2,0v1.1c-0.2,0-0.3,0-0.5,0
		c-0.8,0-1.1-0.2-1.4-0.4c-0.3,0.2-0.9,0.6-1.9,0.6c-1.3,0-2.5-0.8-2.5-2.2c0-1.2,0.9-1.8,1.7-2.3c-0.1-0.2-0.3-0.5-0.3-1.1
		c0-0.9,0.6-1.8,1.8-1.8c1.1,0,1.8,0.7,1.8,1.6c0,0.5-0.3,1.4-1.5,1.8c0.3,0.5,0.7,1,1,1.5C55,5.9,55,5.4,55,5.2H56.3z M52.4,5.4
		c-0.8,0.4-0.9,0.9-0.9,1.2c0,0.5,0.4,1.1,1.2,1.1c0.2,0,0.6-0.1,1.1-0.4L52.4,5.4z M53.9,3.1c0-0.4-0.3-0.6-0.6-0.6
		c-0.3,0-0.6,0.2-0.6,0.6c0,0.2,0.1,0.5,0.3,0.8C53.4,3.8,53.9,3.6,53.9,3.1z"/>
	<path d="M59.2,3.3H60v-2h1.3v2h1.2v0.9h-1.2v2.7c0,0.2,0,0.5,0.1,0.6c0.2,0.2,0.4,0.2,0.5,0.2c0.2,0,0.4,0,0.5-0.1v1.1
		c-0.2,0-0.5,0.1-0.9,0.1c-1.2,0-1.6-0.4-1.6-1.3V4.2h-0.8V3.3z"/>
	<path d="M63.3,2.4V1.1h1.3v1.3H63.3z M63.3,8.8V3.3h1.3v5.5H63.3z"/>
	<path d="M70.7,7.2c-0.4,1.1-1.4,1.7-2.5,1.7c-1.6,0-2.7-1.3-2.7-2.9c0-1.4,1-2.9,2.8-2.9c1.4,0,2.2,1,2.4,1.6l-1.2,0.5
		c-0.2-0.5-0.5-0.9-1.3-0.9c-0.9,0-1.4,0.8-1.4,1.7c0,1,0.5,1.7,1.4,1.7c0.9,0,1.2-0.8,1.3-1.1L70.7,7.2z"/>
	<path d="M75.2,8.8l-1.7-2.5l-0.8,0.8v1.7h-1.3V1h1.3v4.4l2.1-2.1h1.7l-2.1,2.1l2.3,3.4H75.2z"/>
	<path d="M78.2,6.3c0,0.3,0.3,1.4,1.5,1.4c0.9,0,1.3-0.6,1.4-0.8l1.1,0.6c-0.4,0.6-1.2,1.4-2.7,1.4c-1.6,0-2.8-1.1-2.8-2.9
		c0-2,1.3-2.9,2.8-2.9c2.1,0,2.7,1.7,2.7,3.2H78.2z M80.8,5.3c0-0.3-0.2-1.2-1.2-1.2c-1.1,0-1.3,0.9-1.3,1.2H80.8z"/>
	<path d="M82.5,3.3h0.8v-2h1.3v2h1.2v0.9h-1.2v2.7c0,0.2,0,0.5,0.1,0.6c0.2,0.2,0.4,0.2,0.5,0.2c0.2,0,0.4,0,0.5-0.1v1.1
		c-0.2,0-0.5,0.1-0.9,0.1c-1.2,0-1.5-0.4-1.5-1.3V4.2h-0.8V3.3z"/>
	<path d="M90.2,5c-0.3-0.6-0.9-0.8-1.5-0.8c-0.3,0-0.9,0.1-0.9,0.6c0,0.4,0.3,0.5,1.1,0.6l0.9,0.2c0.8,0.2,1.5,0.6,1.5,1.5
		c0,1-1,1.9-2.5,1.9c-1.5,0-2.3-0.7-2.6-1l1-0.8c0.3,0.4,0.8,0.7,1.6,0.7c0.8,0,1.1-0.4,1.1-0.6c0-0.3-0.3-0.4-0.8-0.5l-0.7-0.1
		c-0.4-0.1-1.9-0.4-1.9-1.6c0-1.1,1-1.8,2.4-1.8c0.4,0,1.5,0.1,2.4,1L90.2,5z"/>
</g>
</svg>
