<?xml version="1.0" encoding="utf-8"?>
<!-- Generator: Adobe Illustrator 23.0.2, SVG Export Plug-In . SVG Version: 6.00 Build 0)  -->
<svg version="1.1" id="Laag_1" xmlns="http://www.w3.org/2000/svg" xmlns:xlink="http://www.w3.org/1999/xlink" x="0px" y="0px"
	 width="120.5px" height="54.7px" viewBox="0 0 120.5 54.7" style="enable-background:new 0 0 120.5 54.7;" xml:space="preserve">
<style type="text/css">
	.st0{fill:#FFFFFF;}
</style>
<g>
	<path class="st0" d="M18.4,24.1H2.3v-0.7c2.1-0.1,2.9-0.6,2.9-2.4V5.8c0-1.9-0.8-2.4-2.9-2.5V2.6H11v0.7C8.9,3.5,8.1,4,8.1,5.8
		v15.2c0,1.7,1.4,1.8,3.3,1.8h2.5c2.5,0,3.1-1.1,4.2-3.8h0.7L18.4,24.1z"/>
	<path class="st0" d="M33.4,15.2H22.4c0.1,4.3,2.3,7,5.5,7c2.2,0,3.8-1.3,4.8-2.7l0.6,0.3c-0.8,2.6-3.2,4.8-6.5,4.8
		c-4.4,0-7.2-3.8-7.2-8.1c0-5.6,3.2-8.9,7.6-8.9C31.4,7.5,33.4,11,33.4,15.2z M22.4,14h8.1c-0.2-3-1.2-5.3-3.7-5.3
		C24,8.7,22.7,10.9,22.4,14z"/>
	<path class="st0" d="M61.4,14c-2.1,0.1-2.9,0.8-2.9,2.5V21c-1.5,1.8-4.9,3.5-8.8,3.5c-6.1,0-10.2-4.5-10.2-10.6
		c0-6.7,4.2-11.7,10.6-11.7c4.5,0,7.9,2,8.6,4.5l-3,1.6c-0.7-2.8-3.2-4.9-6-4.9c-4.4,0-6.9,3.5-6.9,9.5c0,5.5,3.3,9.8,8,9.8
		c1.5,0,3.5-0.3,4.7-1.1v-5.2c0-1.7-0.7-2.3-3.1-2.5v-0.7h9V14z"/>
	<path class="st0" d="M78.5,22.4v0.7L74,24.5h-0.6v-3.6c-1.8,2.5-3.5,3.6-5.4,3.6c-2.7,0-4.8-1.8-4.8-5.3v-7.7c0-1.2-0.4-1.9-1.9-2
		l-0.4,0V8.8l4.5-1.3H66v11.3c0,2.4,1.3,3.5,3.1,3.5c1.5,0,2.7-0.6,4.2-2.4v-8.4c0-1.2-0.4-1.9-1.9-2l-0.3,0V8.8l4.4-1.3h0.6v12.9
		c0,1.3,0.4,2,1.9,2H78.5z"/>
	<path class="st0" d="M92.3,15.2H81.2c0.1,4.3,2.3,7,5.5,7c2.2,0,3.8-1.3,4.8-2.7l0.6,0.3c-0.8,2.6-3.2,4.8-6.5,4.8
		c-4.4,0-7.2-3.8-7.2-8.1c0-5.6,3.2-8.9,7.6-8.9C90.2,7.5,92.3,11,92.3,15.2z M81.2,14h8.1c-0.2-3-1.2-5.3-3.7-5.3
		C82.9,8.7,81.5,10.9,81.2,14z"/>
	<path class="st0" d="M105.3,10l-2.4,2c-0.7-2.2-2-3.4-3.8-3.4c-1.9,0-3.2,1-3.2,2.5c0,4.1,9.4,2.3,9.5,8.4c0,2.7-2.3,5-5.9,5
		c-2.8,0-5.3-1.3-6.4-3.1l2.6-1.9c0.8,2.5,2.3,3.8,4.1,3.8c2,0,3.3-1.3,3.3-2.9c-0.1-4.3-9.3-3-9.4-8.3c0-2.8,2.2-4.7,5.7-4.7
		C103,7.5,104.7,9.1,105.3,10z"/>
	<path class="st0" d="M118.2,10l-2.4,2c-0.7-2.2-2-3.4-3.8-3.4c-1.9,0-3.2,1-3.2,2.5c0,4.1,9.4,2.3,9.5,8.4c0,2.7-2.3,5-5.9,5
		c-2.8,0-5.3-1.3-6.4-3.1l2.6-1.9c0.8,2.5,2.3,3.8,4.1,3.8c2,0,3.3-1.3,3.3-2.9c-0.1-4.3-9.3-3-9.4-8.3c0-2.8,2.2-4.7,5.7-4.7
		C115.9,7.5,117.5,9.1,118.2,10z"/>
</g>
<g>
	<path class="st0" d="M53.3,29.8v0.7c-1.3,0.2-2.1,0.4-2.6,1.8l-6.6,19.3h-1.5L37.3,36L32,51.6h-1.5l-6.6-19.4
		c-0.4-1.1-1-1.5-2.4-1.6v-0.7h8.6v0.7c-3,0.2-3.1,1.1-2.5,2.9l4.5,14.3l4.6-13.5l-0.7-2c-0.4-1.1-0.9-1.5-2.4-1.6v-0.7h8.6v0.7
		c-3,0.2-3.1,1.1-2.5,2.9l4.6,14.3L49,33.4c0.7-2.1,0.4-2.7-2.7-2.9v-0.7H53.3z"/>
	<path class="st0" d="M71.8,50.5v0.7h-7.2v-0.7c1.2-0.2,2.2-0.5,2.2-1.9v-8.2c0-2.4-1.3-3.5-3.1-3.5c-1.4,0-2.7,0.6-4.2,2.4v9.3
		c0,1.4,1,1.7,2.2,1.9v0.7h-7.3v-0.7c1.3-0.2,2.3-0.5,2.3-1.9V32.3c0-1.2-0.5-1.7-1.7-1.8l-0.5-0.1v-0.7l4.5-1.3h0.6v9.8
		c1.8-2.5,3.5-3.6,5.4-3.6c2.6,0,4.8,1.8,4.8,5.4v8.5C69.5,49.9,70.5,50.2,71.8,50.5z"/>
	<path class="st0" d="M71.8,43.5c0-5.3,3.5-8.9,7.6-8.9c4.5,0,7.5,3.5,7.5,8.2c0,5.3-3.5,8.8-7.7,8.8C74.8,51.7,71.8,48.2,71.8,43.5
		z M84,44c0-3.3-1.4-8-5-8c-2.6,0-4.3,2.6-4.3,6.4c0,3.3,1.4,8.1,5,8.1C82.3,50.4,84,47.7,84,44z"/>
	<path class="st0" d="M95.5,34c0-2.1-1.3-3.4-3.2-3.4c-1.9,0-3.3,1.6-3.7,4.3l-2.8-1.4c0.7-2.2,3.2-4.1,6.5-4.1c3.5,0,6,2,6,5.1
		c0,5.3-5.9,5.8-5.7,10.3h-1.2C91.2,39.5,95.5,38.4,95.5,34z M89.9,49.5c0-1.2,0.9-2.1,2.1-2.1c1.3,0,2.1,0.9,2.1,2.1
		c0,1.2-0.9,2.1-2.1,2.1C90.8,51.7,89.9,50.8,89.9,49.5z"/>
</g>
</svg>
