<?xml version="1.0" encoding="utf-8"?>
<!-- Generator: Adobe Illustrator 24.3.0, SVG Export Plug-In . SVG Version: 6.00 Build 0)  -->
<svg version="1.1" id="Laag_1" xmlns="http://www.w3.org/2000/svg" xmlns:xlink="http://www.w3.org/1999/xlink" x="0px" y="0px"
	 width="834.5px" height="469.1px" viewBox="0 0 834.5 469.1" style="enable-background:new 0 0 834.5 469.1;" xml:space="preserve"
	>
<style type="text/css">
	.st0{fill:#FFFFFF;}
</style>
<g>
	<path class="st0" d="M3.6,0H24l32.4,41.7V0h21.6v78.8H59L25.2,35.6v43.3H3.6V0z"/>
	<path class="st0" d="M88.4,48.7v-0.2c0-17.3,14.2-31.9,33.7-31.9c19.5,0,33.6,14.3,33.6,31.6v0.2c0,17.3-14.2,31.9-33.8,31.9
		C102.5,80.3,88.4,66,88.4,48.7z M134.9,48.7v-0.2c0-7.5-5.5-13.9-13.1-13.9c-7.8,0-12.7,6.2-12.7,13.6v0.2c0,7.4,5.4,13.7,13,13.7
		C129.9,62.2,134.9,56,134.9,48.7z"/>
	<path class="st0" d="M164.7,17.9h21.4v8.6c3.9-5.1,9.6-9.9,18.2-9.9c13,0,20.7,8.6,20.7,22.4v39.9h-21.3v-33
		c0-6.8-3.5-10.4-8.7-10.4c-5.2,0-9,3.6-9,10.4v33h-21.4V17.9z"/>
</g>
<g>
	<path class="st0" d="M2.4,140.8h21.4v8.1c4.2-5.1,9.3-9.5,18.5-9.5c14.5,0,27,12.1,27,31.5v0.2c0,19.8-12.5,31.9-26.9,31.9
		c-9.2,0-14.6-4.2-18.6-8.8v25.5H2.4V140.8z M48.3,171.3v-0.2c0-8.1-5.6-13.9-12.5-13.9c-7,0-12.5,5.7-12.5,13.9v0.2
		c0,8.1,5.5,13.9,12.5,13.9C42.7,185.2,48.3,179.5,48.3,171.3z"/>
	<path class="st0" d="M76.1,171.5v-0.2c0-17.8,12.7-31.9,30.7-31.9c20.9,0,30.6,15.4,30.6,33.3c0,1.4,0,2.9-0.1,4.4H96.6
		c1.7,6.6,6.5,10,13.2,10c5.2,0,9.1-1.9,13.5-6.2l11.8,9.8c-5.9,7.4-14.3,12.4-26.4,12.4C89.7,203.2,76.1,190.3,76.1,171.5z
		 M117.6,166.2c-0.8-6.8-4.8-11-10.7-11c-5.6,0-9.5,4.3-10.6,11H117.6z"/>
	<path class="st0" d="M146.8,140.8h21.4v12.3c3.5-8.3,9.1-13.7,19.3-13.3v22.5h-1.8c-11.2,0-17.5,6.4-17.5,20.4v19h-21.4V140.8z"/>
	<path class="st0" d="M191.6,171.5v-0.2c0-19.8,12.5-31.9,26.9-31.9c9.2,0,14.6,4.2,18.6,8.8v-28.7h21.4v82.2h-21.4v-8.1
		c-4.2,5.1-9.3,9.5-18.5,9.5C204.1,203.1,191.6,191,191.6,171.5z M237.5,171.3v-0.2c0-8-5.5-13.9-12.5-13.9
		c-6.9,0-12.5,5.7-12.5,13.9v0.2c0,8.1,5.6,13.9,12.5,13.9C232,185.2,237.5,179.4,237.5,171.3z"/>
	<path class="st0" d="M270.1,119.5h22.2v15.8h-22.2V119.5z M270.5,140.8h21.3v60.9h-21.3V140.8z"/>
	<path class="st0" d="M300.9,184.3V184c0-12.7,9.6-19.1,23.9-19.1c5.6,0,11.2,1,14.6,2.4v-1c0-6.4-3.9-10-12.2-10
		c-6.4,0-11.4,1.4-16.9,3.4l-4.4-15c6.9-2.8,14.2-4.7,24.7-4.7c10.9,0,18.4,2.6,23.2,7.4c4.6,4.5,6.5,10.8,6.5,19.4v35h-21.1v-6.4
		c-4.3,4.6-10,7.8-18,7.8C309.7,203.1,300.9,196.3,300.9,184.3z M339.7,179.6v-2.8c-2.3-0.9-5.3-1.6-8.4-1.6c-6.2,0-9.8,2.9-9.8,7.5
		v0.2c0,4.2,3.2,6.6,7.5,6.6C335.3,189.7,339.7,185.7,339.7,179.6z"/>
	<path class="st0" d="M371.3,140.8h21.4v8.3c3.9-5.1,9.6-9.7,18.1-9.7c8.1,0,14.3,3.6,17.6,9.9c5.3-6.1,11.5-9.9,20.4-9.9
		c13,0,20.8,8.1,20.8,22.3v40h-21.4v-33.1c0-6.6-3.3-10.2-8.3-10.2c-5.1,0-8.8,3.6-8.8,10.2v33.1h-21.3v-33.1
		c0-6.6-3.4-10.2-8.4-10.2c-5.1,0-8.7,3.6-8.7,10.2v33.1h-21.4V140.8z"/>
	<path class="st0" d="M478.3,171.5v-0.2c0-17.3,14.2-31.9,33.7-31.9c19.5,0,33.6,14.3,33.6,31.6v0.2c0,17.3-14.2,31.9-33.8,31.9
		C492.4,203.2,478.3,188.9,478.3,171.5z M524.9,171.5v-0.2c0-7.5-5.5-13.9-13.1-13.9c-7.8,0-12.7,6.2-12.7,13.6v0.2
		c0,7.4,5.4,13.7,13,13.7C519.8,185.1,524.9,178.9,524.9,171.5z"/>
	<path class="st0" d="M552.2,171.5v-0.2c0-17.2,13.3-31.8,32.6-31.8c12.5,0,20.8,5.4,26,13.5l-14.4,10.8c-3-3.9-6.3-6.4-11.4-6.4
		c-7,0-12.1,6.2-12.1,13.6v0.2c0,7.9,5,13.9,12.2,13.9c5.2,0,8.4-2.4,11.7-6.3l14.3,10.4c-5.6,8.3-13.7,14-27,14
		C565.6,203.2,552.2,188.8,552.2,171.5z"/>
	<path class="st0" d="M618.8,119.5H641v15.8h-22.2V119.5z M619.2,140.8h21.3v60.9h-21.3V140.8z"/>
</g>
<g>
	<path class="st0" d="M0.1,294.4v-0.2c0-19.8,12.5-31.9,26.9-31.9c9.2,0,14.6,4.2,18.6,8.8v-28.7H67v82.2H45.6v-8.1
		c-4.2,5.1-9.3,9.5-18.5,9.5C12.6,326,0.1,313.9,0.1,294.4z M46.1,294.2V294c0-8-5.5-13.9-12.5-13.9c-6.9,0-12.5,5.7-12.5,13.9v0.2
		c0,8.1,5.6,13.9,12.5,13.9C40.5,308,46.1,302.3,46.1,294.2z"/>
	<path class="st0" d="M78.6,242.4h22.2v15.8H78.6V242.4z M79.1,263.7h21.3v60.9H79.1V263.7z"/>
	<path class="st0" d="M139,263.7h22.5l11.7,35.6l11.8-35.6h22.1l-24.3,61.4h-19.5L139,263.7z"/>
	<path class="st0" d="M214.1,242.4h22.2v15.8h-22.2V242.4z M214.6,263.7h21.3v60.9h-21.3V263.7z"/>
	<path class="st0" d="M243.4,316.8l8-12.8c7,4.6,14.5,7,20.8,7c3.7,0,5.5-1.1,5.5-3.3v-0.2c0-2.5-3.5-3.5-9.9-5.3
		c-12.1-3.2-21.6-7.2-21.6-19.4v-0.2c0-13,10.4-20.2,24.4-20.2c8.9,0,18.1,2.6,25.1,7.1l-7.3,13.5c-6.3-3.6-13.2-5.7-18-5.7
		c-3.3,0-5,1.2-5,3v0.2c0,2.4,3.6,3.5,9.9,5.4c12.1,3.4,21.6,7.5,21.6,19.4v0.2c0,13.4-10,20.4-24.9,20.4
		C261.9,326,251.7,322.9,243.4,316.8z"/>
	<path class="st0" d="M308.6,305.7v-24.9h-7.2v-17.1h7.2v-15.4h21.3v15.4h14.2v17.1h-14.2v20.7c0,4.3,1.9,6.1,5.9,6.1
		c2.8,0,5.5-0.8,8.1-2v16.7c-3.8,2.1-8.9,3.6-14.9,3.6C316.1,325.8,308.6,320.2,308.6,305.7z"/>
	<path class="st0" d="M350.4,307.1v-0.2c0-12.7,9.6-19.1,23.9-19.1c5.6,0,11.2,1,14.6,2.4v-1c0-6.4-3.9-10-12.2-10
		c-6.4,0-11.4,1.4-16.9,3.4l-4.4-15c6.9-2.8,14.2-4.7,24.7-4.7c10.9,0,18.4,2.6,23.2,7.4c4.6,4.5,6.5,10.8,6.5,19.4v35h-21.1v-6.4
		c-4.3,4.6-10,7.8-18,7.8C359.2,326,350.4,319.2,350.4,307.1z M389.1,302.5v-2.8c-2.3-0.9-5.3-1.6-8.4-1.6c-6.2,0-9.8,2.9-9.8,7.5
		v0.2c0,4.2,3.2,6.6,7.5,6.6C384.7,312.5,389.1,308.6,389.1,302.5z"/>
	<path class="st0" d="M420,302.6h22.2v22H420V302.6z"/>
</g>
<g>
	<path class="st0" d="M69,432.3H55.5l-2.6,15.2H36.7l2.6-15.2H25l-2.6,15.2H6.1l2.6-15.2H0v-18.1h11.7l2.3-12.7H3.7v-18H17l2.6-14.8
		h16.3l-2.6,14.8h14.3l2.6-14.8h16.2l-2.6,14.8h8.9v18H60.8l-2.3,12.7H69V432.3z M27.5,414.8h15.3l2.5-14.1H29.8L27.5,414.8z"/>
	<path class="st0" d="M77.2,435.8l12.2-14.5c7.9,6.2,16.4,9.5,25.6,9.5c6,0,9.1-2,9.1-5.4v-0.2c0-3.4-2.6-5.1-13.4-7.7
		c-16.8-3.8-29.7-8.6-29.7-24.7v-0.2c0-14.6,11.6-25.2,30.5-25.2c13.4,0,23.9,3.6,32.4,10.5l-10.9,15.4c-7.2-5.2-15.1-7.8-22.1-7.8
		c-5.3,0-7.9,2.1-7.9,5.1v0.2c0,3.6,2.7,5.2,13.7,7.7c18,3.9,29.3,9.8,29.3,24.6v0.2c0,16.1-12.7,25.7-31.9,25.7
		C100.1,448.8,86.9,444.4,77.2,435.8z"/>
	<path class="st0" d="M158.1,428.6v-24.9h-7.2v-17.1h7.2v-15.4h21.3v15.4h14.2v17.1h-14.2v20.7c0,4.3,1.9,6.1,5.9,6.1
		c2.8,0,5.5-0.8,8.1-2v16.7c-3.8,2.1-8.9,3.6-14.9,3.6C165.7,448.7,158.1,443.1,158.1,428.6z"/>
	<path class="st0" d="M199.9,430v-0.2c0-12.7,9.6-19.1,23.9-19.1c5.6,0,11.2,1,14.6,2.4v-1c0-6.4-3.9-10-12.2-10
		c-6.4,0-11.4,1.4-16.9,3.4l-4.4-15c6.9-2.8,14.2-4.7,24.7-4.7c10.9,0,18.4,2.6,23.2,7.4c4.6,4.5,6.5,10.8,6.5,19.4v35h-21.1v-6.4
		c-4.3,4.6-10,7.8-18,7.8C208.7,448.8,199.9,442.1,199.9,430z M238.7,425.4v-2.8c-2.3-0.9-5.3-1.6-8.4-1.6c-6.2,0-9.8,2.9-9.8,7.5
		v0.2c0,4.2,3.2,6.6,7.5,6.6C234.3,435.4,238.7,431.5,238.7,425.4z"/>
	<path class="st0" d="M309.2,386.5h22L308.8,446c-5.3,14.3-11,19.8-23.2,19.8c-7.5,0-13.9-2-19.5-5.3l6.5-15c3.5,2,7,3.3,9.3,3.3
		c2.1,0,3.6-0.6,5.1-2.5l-23.9-59.8h22.3l12.2,36.7L309.2,386.5z"/>
	<path class="st0" d="M341.9,428.6v-24.9h-7.2v-17.1h7.2v-15.4h21.3v15.4h14.2v17.1h-14.2v20.7c0,4.3,1.9,6.1,5.9,6.1
		c2.8,0,5.5-0.8,8.1-2v16.7c-3.8,2.1-8.9,3.6-14.9,3.6C349.5,448.7,341.9,443.1,341.9,428.6z"/>
	<path class="st0" d="M386.2,426.3v-39.8h21.4v33c0,6.6,3.5,10.2,8.7,10.2c5.2,0,9-3.6,9-10.2v-33h21.3v60.9h-21.3V439
		c-3.9,5.1-9.6,9.8-18.2,9.8C394.1,448.8,386.2,440.2,386.2,426.3z"/>
	<path class="st0" d="M458.1,386.5h21.4v8.6c3.9-5.1,9.6-9.9,18.2-9.9c13,0,20.7,8.6,20.7,22.4v39.9h-21.3v-33
		c0-6.8-3.5-10.4-8.7-10.4s-9,3.6-9,10.4v33h-21.4V386.5z"/>
	<path class="st0" d="M527.1,417.3v-0.2c0-17.8,12.7-31.9,30.7-31.9c20.9,0,30.6,15.4,30.6,33.3c0,1.4,0,2.9-0.1,4.4h-40.8
		c1.7,6.6,6.5,10,13.2,10c5.2,0,9.1-1.9,13.5-6.2l11.8,9.8c-5.9,7.4-14.3,12.4-26.4,12.4C540.6,448.9,527.1,436.1,527.1,417.3z
		 M568.6,412c-0.8-6.8-4.8-11-10.7-11c-5.6,0-9.5,4.3-10.6,11H568.6z"/>
	<path class="st0" d="M595.5,417.3v-0.2c0-19.8,12.5-31.9,26.9-31.9c9.2,0,14.6,4.2,18.6,8.8v-28.7h21.4v82.2H641v-8.1
		c-4.2,5.1-9.3,9.5-18.5,9.5C608,448.8,595.5,436.8,595.5,417.3z M641.4,417.1v-0.2c0-8-5.5-13.9-12.5-13.9
		c-6.9,0-12.5,5.7-12.5,13.9v0.2c0,8.1,5.6,13.9,12.5,13.9C635.9,430.9,641.4,425.2,641.4,417.1z"/>
	<path class="st0" d="M673.1,425.5h22.2v22h-22.2V425.5z"/>
</g>
</svg>
