<?xml version="1.0" encoding="utf-8"?>
<!-- Generator: Adobe Illustrator 24.0.0, SVG Export Plug-In . SVG Version: 6.00 Build 0)  -->
<svg version="1.1" id="Laag_1" xmlns="http://www.w3.org/2000/svg" xmlns:xlink="http://www.w3.org/1999/xlink" x="0px" y="0px"
	 width="210.3px" height="55.4px" viewBox="0 0 210.3 55.4" style="enable-background:new 0 0 210.3 55.4;" xml:space="preserve">
<style type="text/css">
	.st0{fill:#FFFFFF;}
</style>
<g>
	<polygon class="st0" points="32.8,24.9 32.7,24.9 25.7,1.2 19.8,1.2 12.7,24.9 12.6,24.9 6.3,1.2 0,1.2 9.5,33.5 15,33.5 22.6,9.2 
		22.7,9.2 30.3,33.5 35.9,33.5 45.3,1.2 39.2,1.2 	"/>
	<path class="st0" d="M66.1,13.9c-0.9-1-2.1-1.7-3.4-2.2c-1.3-0.5-2.7-0.8-4.2-0.8c-1.6,0-3.2,0.3-4.6,0.8c-1.4,0.6-2.6,1.4-3.7,2.4
		c-1,1-1.9,2.3-2.4,3.7c-0.6,1.4-0.9,3.1-0.9,4.8c0,1.8,0.3,3.4,0.9,4.8c0.6,1.4,1.4,2.6,2.5,3.6c1.1,1,2.3,1.7,3.7,2.3
		c1.4,0.5,3,0.8,4.7,0.8c4.1,0,7.3-1.5,9.4-4.4l-3.7-2.9c-0.6,0.9-1.4,1.6-2.3,2.1c-0.9,0.5-2.1,0.8-3.5,0.8c-0.8,0-1.6-0.1-2.3-0.4
		c-0.7-0.3-1.4-0.6-2-1.1c-0.6-0.5-1-1-1.4-1.7c-0.4-0.7-0.6-1.4-0.6-2.2h16.7c0-0.2,0-0.5,0-0.7c0-0.2,0-0.5,0-0.7
		c0-2-0.3-3.7-0.8-5.2C67.8,16.2,67,14.9,66.1,13.9z M52.4,20.4c0.1-1.6,0.8-2.8,1.9-3.8c1.1-1,2.5-1.5,4.2-1.5
		c0.9,0,1.7,0.1,2.3,0.4c0.7,0.3,1.2,0.7,1.6,1.2c0.4,0.5,0.7,1.1,0.9,1.7c0.2,0.6,0.3,1.3,0.3,2H52.4z"/>
	<path class="st0" d="M87.1,10.9c-1.5,0-2.7,0.4-3.8,1.2c-1.1,0.8-2,1.8-2.6,3.1h-0.1v-3.7h-5.3v21.9h5.5V21.8
		c0-0.4,0.1-0.9,0.2-1.6c0.2-0.7,0.4-1.3,0.9-2c0.4-0.6,1-1.2,1.8-1.6c0.8-0.5,1.8-0.7,3-0.7c0.2,0,0.5,0,0.8,0
		c0.3,0,0.6,0.1,0.9,0.2v-5C88.2,11,88,11,87.8,11C87.5,10.9,87.3,10.9,87.1,10.9z"/>
	<polygon class="st0" points="113.9,11.6 106.9,11.6 98.6,20.8 98.4,20.8 98.4,-1 92.9,-1 92.9,33.5 98.4,33.5 98.4,22.3 98.6,22.3 
		107.2,33.5 114.5,33.5 104.4,21.5 	"/>
	<path class="st0" d="M146.6,17.5c0.3,0.6,0.5,1.2,0.6,1.9c0.1,0.7,0.1,1.4,0.1,2v12.2h5.5V19.8c0-1.1-0.2-2.2-0.5-3.3
		c-0.3-1.1-0.8-2-1.4-2.8c-0.7-0.8-1.5-1.5-2.5-2c-1-0.5-2.2-0.8-3.7-0.8c-1.6,0-3.1,0.4-4.3,1.1c-1.2,0.7-2.2,1.7-2.9,3.1
		c-0.6-1.2-1.5-2.3-2.6-3c-1.1-0.8-2.5-1.1-4.3-1.1c-0.9,0-1.7,0.1-2.4,0.3c-0.7,0.2-1.4,0.5-1.9,0.9c-0.6,0.4-1.1,0.8-1.5,1.3
		c-0.4,0.5-0.7,1-1,1.6h-0.1v-3.5h-5.2v21.9h5.5V21.5c0-0.7,0.1-1.5,0.3-2.2c0.2-0.7,0.5-1.3,0.9-1.9c0.4-0.5,0.9-1,1.5-1.3
		c0.6-0.3,1.3-0.5,2.1-0.5c1.4,0,2.4,0.4,3.1,1.3c0.7,0.9,1,2,1,3.4v13.3h5.5v-12c0-0.7,0.1-1.4,0.3-2.1c0.2-0.7,0.5-1.4,0.9-1.9
		c0.4-0.6,0.9-1.1,1.5-1.4c0.6-0.4,1.3-0.5,2.2-0.5c0.9,0,1.6,0.2,2.1,0.5C145.9,16.4,146.3,16.9,146.6,17.5z"/>
	<path class="st0" d="M164,33.7c1,0.2,1.9,0.3,2.8,0.3c1.6,0,2.9-0.3,4.2-0.9c1.2-0.6,2.1-1.4,2.7-2.4h0.1v2.8h5.1V20.2
		c0-1.1-0.1-2.2-0.4-3.3c-0.3-1.1-0.8-2.1-1.5-3c-0.7-0.9-1.7-1.6-3-2.1c-1.3-0.5-2.9-0.8-4.8-0.8c-1.7,0-3.3,0.3-5,0.9
		c-1.6,0.6-3.1,1.4-4.3,2.6l2.8,3.3c0.7-0.7,1.6-1.3,2.7-1.8c1.1-0.5,2.2-0.7,3.3-0.7c1.4,0,2.6,0.3,3.5,1c1,0.7,1.5,1.7,1.5,3v0.5
		c-1.7,0-3.5,0.1-5.2,0.3c-1.8,0.2-3.4,0.5-4.9,1c-1.5,0.5-2.7,1.3-3.6,2.2c-0.9,1-1.4,2.3-1.4,3.9c0,1.3,0.3,2.4,0.8,3.2
		c0.5,0.9,1.2,1.6,2,2.1C162.2,33.1,163.1,33.5,164,33.7z M164.9,25.2c0.5-0.5,1.2-0.8,2.1-1.1c0.8-0.3,1.7-0.4,2.7-0.5
		c1-0.1,1.9-0.1,2.8-0.1h1.2v0.8c0,1.7-0.5,3.1-1.5,4.1c-1,1-2.4,1.5-4.3,1.5c-0.5,0-0.9,0-1.4-0.1c-0.5-0.1-0.9-0.2-1.2-0.5
		c-0.4-0.2-0.7-0.5-0.9-0.8c-0.2-0.3-0.3-0.8-0.3-1.3C164.1,26.3,164.3,25.7,164.9,25.2z"/>
	<path class="st0" d="M206.4,33.5V19.8c0-1.1-0.2-2.2-0.5-3.3c-0.3-1.1-0.8-2-1.4-2.8c-0.7-0.8-1.5-1.5-2.5-2
		c-1-0.5-2.2-0.8-3.7-0.8c-1.6,0-3.1,0.4-4.3,1.3c-1.2,0.8-2,1.8-2.5,2.9h-0.1v-3.5h-5.2v21.9h5.5V21.5c0-0.7,0.1-1.5,0.3-2.2
		c0.2-0.7,0.5-1.3,0.9-1.9c0.4-0.5,0.9-1,1.6-1.3c0.6-0.3,1.4-0.5,2.3-0.5c0.9,0,1.6,0.2,2.1,0.5c0.5,0.4,1,0.8,1.3,1.4
		c0.3,0.6,0.5,1.2,0.6,1.9c0.1,0.7,0.1,1.4,0.1,2v12.2H206.4z"/>
	<path class="st0" d="M156.1,42.2c-0.6-0.6-1.2-1-2-1.3c-0.8-0.3-1.6-0.5-2.5-0.5c-1,0-1.9,0.2-2.8,0.5c-0.8,0.3-1.6,0.8-2.2,1.4
		c-0.6,0.6-1.1,1.4-1.5,2.2c-0.4,0.9-0.5,1.8-0.5,2.9c0,1.1,0.2,2,0.5,2.9c0.4,0.8,0.8,1.6,1.5,2.1c0.6,0.6,1.4,1,2.2,1.4
		c0.9,0.3,1.8,0.5,2.8,0.5c2.5,0,4.3-0.9,5.6-2.6l-2.2-1.8c-0.4,0.5-0.8,0.9-1.4,1.2c-0.6,0.3-1.3,0.5-2.1,0.5
		c-0.5,0-0.9-0.1-1.4-0.2c-0.4-0.2-0.8-0.4-1.2-0.7c-0.3-0.3-0.6-0.6-0.8-1c-0.2-0.4-0.3-0.8-0.4-1.3h10c0-0.1,0-0.3,0-0.4
		c0-0.1,0-0.3,0-0.4c0-1.2-0.2-2.2-0.5-3.1C157.1,43.6,156.6,42.8,156.1,42.2z M147.8,46.1c0.1-0.9,0.5-1.7,1.1-2.3
		c0.7-0.6,1.5-0.9,2.5-0.9c0.5,0,1,0.1,1.4,0.3c0.4,0.2,0.7,0.4,1,0.7c0.3,0.3,0.4,0.6,0.6,1c0.1,0.4,0.2,0.8,0.2,1.2H147.8z"/>
	<path class="st0" d="M162.9,49.9c-0.6,0-1.1,0.2-1.5,0.6c-0.4,0.4-0.6,0.9-0.6,1.5c0,0.3,0.1,0.6,0.2,0.8c0.1,0.3,0.3,0.5,0.5,0.7
		c0.2,0.2,0.4,0.3,0.7,0.4c0.3,0.1,0.5,0.2,0.8,0.2c0.6,0,1.1-0.2,1.5-0.6c0.4-0.4,0.6-0.9,0.6-1.5c0-0.6-0.2-1.1-0.7-1.5
		C164,50.1,163.5,49.9,162.9,49.9z"/>
	<polygon class="st0" points="173.8,50.4 173.7,50.4 170.3,40.8 166.7,40.8 172,54 175.5,54 180.7,40.8 177.3,40.8 	"/>
	<path class="st0" d="M183.3,49.9c-0.6,0-1.1,0.2-1.5,0.6c-0.4,0.4-0.6,0.9-0.6,1.5c0,0.3,0.1,0.6,0.2,0.8c0.1,0.3,0.3,0.5,0.5,0.7
		c0.2,0.2,0.4,0.3,0.7,0.4c0.3,0.1,0.5,0.2,0.8,0.2c0.6,0,1.1-0.2,1.5-0.6c0.4-0.4,0.6-0.9,0.6-1.5c0-0.6-0.2-1.1-0.7-1.5
		C184.4,50.1,183.9,49.9,183.3,49.9z"/>
	<path class="st0" d="M199.1,42.2c-0.4-0.5-1-1-1.8-1.3c-0.8-0.3-1.7-0.5-2.9-0.5c-1,0-2,0.2-3,0.5c-1,0.3-1.8,0.9-2.6,1.6l1.7,2
		c0.4-0.4,0.9-0.8,1.6-1.1c0.6-0.3,1.3-0.4,2-0.4c0.8,0,1.5,0.2,2.1,0.6c0.6,0.4,0.9,1,0.9,1.8v0.3c-1,0-2.1,0.1-3.1,0.2
		c-1.1,0.1-2,0.3-2.9,0.6c-0.9,0.3-1.6,0.8-2.1,1.3c-0.6,0.6-0.8,1.4-0.8,2.4c0,0.8,0.2,1.4,0.5,1.9c0.3,0.5,0.7,0.9,1.2,1.3
		c0.5,0.3,1,0.5,1.6,0.7c0.6,0.1,1.1,0.2,1.7,0.2c0.9,0,1.8-0.2,2.5-0.6c0.7-0.4,1.3-0.9,1.6-1.4h0.1V54h3.1v-8c0-0.7-0.1-1.3-0.3-2
		C199.9,43.3,199.6,42.7,199.1,42.2z M197.2,48.4c0,1-0.3,1.9-0.9,2.5c-0.6,0.6-1.4,0.9-2.6,0.9c-0.3,0-0.5,0-0.8-0.1
		c-0.3-0.1-0.5-0.1-0.7-0.3c-0.2-0.1-0.4-0.3-0.5-0.5c-0.1-0.2-0.2-0.5-0.2-0.8c0-0.5,0.2-0.9,0.5-1.2c0.3-0.3,0.7-0.5,1.2-0.7
		c0.5-0.2,1-0.3,1.6-0.3c0.6,0,1.1-0.1,1.7-0.1h0.7V48.4z"/>
	<path class="st0" d="M207.6,50.5c-0.4-0.4-0.9-0.6-1.5-0.6c-0.6,0-1.1,0.2-1.5,0.6c-0.4,0.4-0.6,0.9-0.6,1.5c0,0.3,0.1,0.6,0.2,0.8
		c0.1,0.3,0.3,0.5,0.5,0.7c0.2,0.2,0.4,0.3,0.7,0.4c0.3,0.1,0.5,0.2,0.8,0.2c0.6,0,1.1-0.2,1.5-0.6c0.4-0.4,0.6-0.9,0.6-1.5
		C208.2,51.4,208,50.9,207.6,50.5z"/>
</g>
</svg>
