<?xml version="1.0" encoding="utf-8"?>
<!-- Generator: Adobe Illustrator 22.1.0, SVG Export Plug-In . SVG Version: 6.00 Build 0)  -->
<svg version="1.1" id="Laag_1" xmlns="http://www.w3.org/2000/svg" xmlns:xlink="http://www.w3.org/1999/xlink" x="0px" y="0px"
	 width="93.3px" height="12.1px" viewBox="0 0 93.3 12.1" style="enable-background:new 0 0 93.3 12.1;" xml:space="preserve">
<style type="text/css">
	.st0{fill:#FFFFFF;}
</style>
<g>
	<path class="st0" d="M1.1,10.2V1.9h3.5c0.7,0,1.3,0.2,1.7,0.7c0.5,0.4,0.7,1,0.7,1.7C7.1,4.6,7,5,6.8,5.3C6.6,5.6,6.4,5.9,6.1,6
		c0.3,0.2,0.6,0.4,0.8,0.8C7,7.1,7.1,7.5,7.1,7.9c0,0.7-0.2,1.3-0.7,1.7c-0.5,0.4-1,0.7-1.7,0.7H1.1z M2.5,5.4h2.2
		c0.3,0,0.6-0.1,0.8-0.3c0.2-0.2,0.3-0.5,0.3-0.8c0-0.3-0.1-0.6-0.3-0.8C5.2,3.3,5,3.2,4.7,3.2H2.5V5.4z M2.5,8.9h2.2
		c0.3,0,0.6-0.1,0.8-0.3c0.2-0.2,0.3-0.4,0.3-0.8c0-0.3-0.1-0.6-0.3-0.8C5.2,6.8,5,6.7,4.7,6.7H2.5V8.9z"/>
	<path class="st0" d="M8.5,10.2V1.9h5.3v1.4H9.9v2.1h3.9v1.4H9.9v2.1h3.9v1.4H8.5z"/>
	<path class="st0" d="M17.7,10.2c-0.7,0-1.3-0.2-1.8-0.5s-0.8-0.9-1-1.5l1.2-0.5c0.2,0.8,0.7,1.2,1.5,1.2c0.4,0,0.7-0.1,0.9-0.3
		s0.3-0.4,0.3-0.7s-0.1-0.5-0.3-0.7c-0.2-0.2-0.6-0.3-1.2-0.5c-0.4-0.1-0.6-0.2-0.9-0.4C16.2,6.2,16,6,15.7,5.8
		c-0.2-0.2-0.4-0.4-0.5-0.7S15,4.6,15,4.2c0-0.7,0.2-1.3,0.7-1.7c0.5-0.4,1.1-0.6,1.9-0.6c0.7,0,1.3,0.2,1.8,0.5
		c0.5,0.4,0.8,0.9,1,1.5l-1.2,0.5c-0.2-0.8-0.7-1.2-1.5-1.2c-0.4,0-0.7,0.1-0.9,0.3c-0.2,0.2-0.3,0.4-0.3,0.7s0.1,0.5,0.3,0.7
		c0.2,0.2,0.6,0.3,1.2,0.5c0.3,0.1,0.6,0.2,0.9,0.4c0.2,0.1,0.5,0.3,0.7,0.5c0.2,0.2,0.4,0.4,0.5,0.7c0.1,0.3,0.2,0.6,0.2,0.9
		c0,0.7-0.2,1.3-0.7,1.7C19.1,10,18.4,10.2,17.7,10.2z"/>
	<path class="st0" d="M23.9,10.2v-7h-3.2V1.9h7.7v1.4h-3.2v7H23.9z"/>
	<path class="st0" d="M29.4,10.2V1.9h5.3v1.4h-3.9v2.1h3.9v1.4h-3.9v2.1h3.9v1.4H29.4z"/>
	<path class="st0" d="M36.3,10.2V1.9h1.4v7h4v1.4H36.3z"/>
	<path class="st0" d="M48.2,10.2v-7h-3.2V1.9h7.7v1.4h-3.2v7H48.2z"/>
	<path class="st0" d="M53.8,10.2V1.9h1.4v8.4H53.8z"/>
	<path class="st0" d="M60.6,10.2c-1.2,0-2.1-0.4-2.9-1.2c-0.8-0.8-1.2-1.8-1.2-3c0-1.2,0.4-2.2,1.2-3c0.8-0.8,1.8-1.2,3-1.2
		c1.1,0,2.1,0.4,3,1.2L63,4.3c-0.7-0.7-1.5-1.1-2.4-1.1c-0.8,0-1.5,0.3-2,0.8c-0.5,0.5-0.8,1.2-0.8,2c0,0.8,0.3,1.5,0.8,2
		c0.5,0.5,1.2,0.8,2,0.8c0.5,0,1.1-0.1,1.6-0.4l0.3,1.4C61.8,10.1,61.2,10.2,60.6,10.2z"/>
	<path class="st0" d="M64.7,10.2V1.9H66v3.9l3.8-3.9h1.9l-3.6,3.7l3.6,4.7h-1.7l-2.9-3.8L66,7.7v2.6H64.7z"/>
	<path class="st0" d="M72.8,10.2V1.9h5.3v1.4h-3.9v2.1h3.9v1.4h-3.9v2.1h3.9v1.4H72.8z"/>
	<path class="st0" d="M82,10.2v-7h-3.2V1.9h7.7v1.4h-3.2v7H82z"/>
	<path class="st0" d="M89.6,10.2c-0.7,0-1.3-0.2-1.8-0.5s-0.8-0.9-1-1.5l1.2-0.5c0.2,0.8,0.7,1.2,1.5,1.2c0.4,0,0.7-0.1,0.9-0.3
		c0.2-0.2,0.3-0.4,0.3-0.7s-0.1-0.5-0.3-0.7c-0.2-0.2-0.6-0.3-1.2-0.5c-0.4-0.1-0.6-0.2-0.9-0.4c-0.2-0.1-0.5-0.3-0.7-0.5
		c-0.2-0.2-0.4-0.4-0.5-0.7s-0.2-0.6-0.2-0.9c0-0.7,0.2-1.3,0.7-1.7c0.5-0.4,1.1-0.6,1.9-0.6c0.7,0,1.3,0.2,1.8,0.5
		c0.5,0.4,0.8,0.9,1,1.5L91,4.5c-0.2-0.8-0.7-1.2-1.5-1.2c-0.4,0-0.7,0.1-0.9,0.3c-0.2,0.2-0.3,0.4-0.3,0.7s0.1,0.5,0.3,0.7
		c0.2,0.2,0.6,0.3,1.2,0.5c0.3,0.1,0.6,0.2,0.9,0.4c0.2,0.1,0.5,0.3,0.7,0.5C91.7,6.4,91.9,6.7,92,7s0.2,0.6,0.2,0.9
		c0,0.7-0.2,1.3-0.7,1.7C91,10,90.4,10.2,89.6,10.2z"/>
</g>
</svg>
