<?xml version="1.0" encoding="utf-8"?>
<!-- Generator: Adobe Illustrator 24.3.0, SVG Export Plug-In . SVG Version: 6.00 Build 0)  -->
<svg version="1.1" id="Laag_1" xmlns="http://www.w3.org/2000/svg" xmlns:xlink="http://www.w3.org/1999/xlink" x="0px" y="0px"
	 width="231.2px" height="56.1px" viewBox="0 0 231.2 56.1" style="enable-background:new 0 0 231.2 56.1;" xml:space="preserve">
<style type="text/css">
	.st0{fill:#FFFFFF;}
</style>
<g>
	<path class="st0" d="M4.5,28.1H1.3V31h3.5v0.9H0.3v-8.1h4.4v0.9H1.3v2.6h3.1v0.8C4.4,28.1,4.5,28.1,4.5,28.1z"/>
	<path class="st0" d="M6.2,23.4h1.1v8.5H6.2V23.4z"/>
	<path class="st0" d="M10.2,24.5c0,0.4-0.3,0.6-0.7,0.6s-0.6-0.3-0.6-0.6c0-0.4,0.3-0.7,0.7-0.7C9.9,23.8,10.2,24.1,10.2,24.5z
		 M9,31.9v-5.8h1v5.8C10,31.9,9,31.9,9,31.9z"/>
	<path class="st0" d="M11.7,30.8c0.3,0.2,0.9,0.4,1.4,0.4c0.8,0,1.1-0.4,1.1-0.9s-0.3-0.8-1.1-1.1c-1-0.4-1.5-0.9-1.5-1.6
		c0-0.9,0.8-1.7,2-1.7c0.6,0,1.1,0.2,1.4,0.4l-0.3,0.8c-0.2-0.1-0.6-0.3-1.2-0.3c-0.6,0-1,0.4-1,0.8c0,0.5,0.3,0.7,1.1,1
		c1,0.4,1.5,0.9,1.5,1.8c0,1-0.8,1.7-2.2,1.7c-0.6,0-1.2-0.2-1.6-0.4L11.7,30.8z"/>
	<path class="st0" d="M17.1,29.2c0,1.4,0.9,2,2,2c0.8,0,1.2-0.1,1.6-0.3l0.2,0.8c-0.4,0.2-1,0.4-1.9,0.4c-1.8,0-2.9-1.2-2.9-2.9
		s1-3.1,2.7-3.1c1.9,0,2.4,1.7,2.4,2.7c0,0.2,0,0.4,0,0.5h-4.1C17.1,29.3,17.1,29.2,17.1,29.2z M20.2,28.5c0-0.7-0.3-1.7-1.5-1.7
		c-1.1,0-1.5,1-1.6,1.7H20.2z"/>
	<path class="st0" d="M26.4,23.7c-0.3,1-0.8,2.3-1.1,2.8l-0.7,0.1c0.3-0.7,0.6-2,0.7-2.8L26.4,23.7z"/>
	<path class="st0" d="M28.7,24.4v1.7h1.5v0.8h-1.5V30c0,0.7,0.2,1.1,0.8,1.1c0.3,0,0.5,0,0.6-0.1v0.8C30,32,29.7,32,29.2,32
		s-0.9-0.2-1.1-0.4c-0.3-0.3-0.4-0.8-0.4-1.5v-3.2h-0.9v-0.8h0.9v-1.4L28.7,24.4z"/>
	<path class="st0" d="M35.1,23.8v3.4H39v-3.4h1v8.1h-1v-3.8h-3.9v3.8h-1v-8.1C34.1,23.8,35.1,23.8,35.1,23.8z"/>
	<path class="st0" d="M45,31.9l-0.1-0.7l0,0c-0.3,0.5-0.9,0.9-1.8,0.9c-1.2,0-1.8-0.8-1.8-1.7c0-1.4,1.2-2.2,3.5-2.2v-0.1
		c0-0.5-0.1-1.3-1.3-1.3c-0.5,0-1.1,0.2-1.5,0.4l-0.2-0.7c0.5-0.3,1.2-0.5,1.9-0.5c1.8,0,2.2,1.2,2.2,2.4v2.2c0,0.5,0,1,0.1,1.4
		L45,31.9L45,31.9z M44.9,29c-1.2,0-2.5,0.2-2.5,1.3c0,0.7,0.5,1,1,1c0.8,0,1.2-0.5,1.4-1c0-0.1,0.1-0.2,0.1-0.3V29z"/>
	<path class="st0" d="M47.6,27.9c0-0.7,0-1.3,0-1.8h0.9v1.1l0,0c0.3-0.8,0.9-1.3,1.6-1.3c0.1,0,0.2,0,0.3,0v1c-0.1,0-0.2,0-0.4,0
		c-0.7,0-1.3,0.6-1.4,1.4c0,0.1,0,0.3,0,0.5v3.1h-1C47.6,31.9,47.6,27.9,47.6,27.9z"/>
	<path class="st0" d="M53.1,24.4v1.7h1.5v0.8h-1.5V30c0,0.7,0.2,1.1,0.8,1.1c0.3,0,0.5,0,0.6-0.1v0.8C54.3,32,54,32,53.6,32
		c-0.5,0-0.9-0.2-1.1-0.4c-0.3-0.3-0.4-0.8-0.4-1.5v-3.2h-0.9v-0.8H52v-1.4L53.1,24.4z"/>
	<path class="st0" d="M55,33.4c0.3-0.7,0.6-2,0.7-2.9l1.2-0.1c-0.3,1-0.8,2.4-1.1,2.9L55,33.4z"/>
	<path class="st0" d="M62.4,23.8h1v5.4c0,2.1-1.1,2.8-2.4,2.8c-0.4,0-0.9-0.1-1.1-0.2l0.2-0.9c0.2,0.1,0.5,0.2,0.9,0.2
		c0.9,0,1.5-0.4,1.5-2v-5.3H62.4z"/>
	<path class="st0" d="M70.5,29c0,2.1-1.5,3.1-2.9,3.1c-1.6,0-2.8-1.2-2.8-3c0-1.9,1.3-3.1,2.9-3.1C69.3,26,70.5,27.2,70.5,29z
		 M65.8,29c0,1.3,0.7,2.2,1.8,2.2c1,0,1.8-0.9,1.8-2.3c0-1-0.5-2.2-1.7-2.2C66.4,26.8,65.8,27.9,65.8,29z"/>
	<path class="st0" d="M71.8,27.9c0-0.7,0-1.3,0-1.8h0.9v1.1l0,0c0.3-0.8,0.9-1.3,1.6-1.3c0.1,0,0.2,0,0.3,0v1c-0.1,0-0.2,0-0.4,0
		c-0.7,0-1.3,0.6-1.4,1.4c0,0.1,0,0.3,0,0.5v3.1h-1V27.9z"/>
	<path class="st0" d="M80.6,26.1c0,0.4,0,0.9,0,1.6v3.4c0,1.3-0.3,2.1-0.8,2.7c-0.6,0.5-1.4,0.7-2.1,0.7s-1.5-0.2-1.9-0.5l0.3-0.8
		c0.4,0.2,1,0.5,1.7,0.5c1.1,0,1.9-0.6,1.9-2v-0.6l0,0c-0.3,0.5-0.9,1-1.8,1c-1.4,0-2.5-1.2-2.5-2.8c0-2,1.3-3.1,2.6-3.1
		c1,0,1.6,0.5,1.8,1l0,0v-0.9h0.8V26.1z M79.5,28.4c0-0.2,0-0.3-0.1-0.5c-0.2-0.6-0.7-1.1-1.5-1.1c-1,0-1.7,0.9-1.7,2.2
		c0,1.1,0.6,2.1,1.7,2.1c0.6,0,1.2-0.4,1.5-1.1c0.1-0.2,0.1-0.4,0.1-0.6V28.4z"/>
	<path class="st0" d="M85.9,23.8v3.4h3.9v-3.4h1.1v8.1h-1.1v-3.8h-3.9v3.8h-1v-8.1C84.9,23.8,85.9,23.8,85.9,23.8z"/>
	<path class="st0" d="M93.3,29.2c0,1.4,0.9,2,2,2c0.8,0,1.2-0.1,1.6-0.3l0.2,0.8c-0.4,0.2-1,0.4-1.9,0.4c-1.8,0-2.9-1.2-2.9-2.9
		s1-3.1,2.7-3.1c1.9,0,2.4,1.7,2.4,2.7c0,0.2,0,0.4,0,0.5h-4.1C93.3,29.3,93.3,29.2,93.3,29.2z M96.4,28.5c0-0.7-0.3-1.7-1.5-1.7
		c-1.1,0-1.5,1-1.6,1.7H96.4z"/>
	<path class="st0" d="M98.7,27.7c0-0.6,0-1.1,0-1.6h0.9V27l0,0c0.3-0.6,0.9-1.1,1.8-1.1c0.8,0,1.4,0.5,1.6,1.2l0,0
		c0.2-0.3,0.4-0.6,0.6-0.8c0.3-0.3,0.7-0.4,1.3-0.4c0.8,0,1.9,0.5,1.9,2.5v3.4h-1v-3.3c0-1.1-0.4-1.8-1.3-1.8c-0.6,0-1.1,0.4-1.2,1
		c0,0.1-0.1,0.3-0.1,0.5v3.6h-1v-3.5c0-0.9-0.4-1.6-1.2-1.6c-0.7,0-1.1,0.5-1.3,1.1c-0.1,0.2-0.1,0.3-0.1,0.5v3.5h-1L98.7,27.7
		L98.7,27.7z"/>
	<path class="st0" d="M108.7,28c0-0.7,0-1.3,0-1.9h0.9v1l0,0c0.4-0.7,1.1-1.1,2.1-1.1c1.4,0,2.5,1.2,2.5,3c0,2.1-1.3,3.1-2.6,3.1
		c-0.8,0-1.4-0.3-1.8-0.9l0,0v3.2h-1L108.7,28L108.7,28z M109.8,29.6c0,0.2,0,0.3,0,0.4c0.2,0.7,0.8,1.2,1.6,1.2
		c1.1,0,1.8-0.9,1.8-2.2c0-1.2-0.6-2.2-1.7-2.2c-0.7,0-1.4,0.5-1.6,1.3c0,0.1-0.1,0.3-0.1,0.4C109.8,28.5,109.8,29.6,109.8,29.6z"/>
	<path class="st0" d="M116.1,29.2c0,1.4,0.9,2,2,2c0.8,0,1.2-0.1,1.6-0.3l0.2,0.8c-0.4,0.2-1,0.4-1.9,0.4c-1.8,0-2.9-1.2-2.9-2.9
		s1-3.1,2.7-3.1c1.9,0,2.4,1.7,2.4,2.7c0,0.2,0,0.4,0,0.5h-4.1C116.1,29.3,116.1,29.2,116.1,29.2z M119.2,28.5
		c0-0.7-0.3-1.7-1.5-1.7c-1.1,0-1.5,1-1.6,1.7H119.2z"/>
	<path class="st0" d="M121.5,27.7c0-0.6,0-1.1,0-1.6h0.9l0.1,1l0,0c0.3-0.6,1-1.1,1.9-1.1c0.8,0,2.1,0.5,2.1,2.5V32h-1.1v-3.3
		c0-0.9-0.3-1.7-1.3-1.7c-0.7,0-1.2,0.5-1.4,1.1c0,0.1-0.1,0.3-0.1,0.5v3.5h-1.1V27.7z"/>
	<path class="st0" d="M129.4,24.5c0,0.4-0.3,0.6-0.7,0.6s-0.6-0.3-0.6-0.6c0-0.4,0.3-0.7,0.7-0.7C129.1,23.8,129.4,24.1,129.4,24.5z
		 M128.2,31.9v-5.8h1.1v5.8C129.3,31.9,128.2,31.9,128.2,31.9z"/>
	<path class="st0" d="M135.9,30.3c0,0.6,0,1.1,0,1.6H135l-0.1-0.9l0,0c-0.3,0.5-0.9,1.1-1.9,1.1c-0.9,0-2-0.5-2-2.5v-3.4h1.1v3.2
		c0,1.1,0.3,1.8,1.3,1.8c0.7,0,1.2-0.5,1.4-1c0.1-0.2,0.1-0.3,0.1-0.5v-3.6h1.1v4.2H135.9z"/>
	<path class="st0" d="M137.5,30.8c0.3,0.2,0.9,0.4,1.4,0.4c0.8,0,1.1-0.4,1.1-0.9s-0.3-0.8-1.1-1.1c-1-0.4-1.5-0.9-1.5-1.6
		c0-0.9,0.8-1.7,2-1.7c0.6,0,1.1,0.2,1.4,0.4l-0.3,0.8c-0.2-0.1-0.6-0.3-1.2-0.3c-0.6,0-1,0.4-1,0.8c0,0.5,0.3,0.7,1.1,1
		c1,0.4,1.5,0.9,1.5,1.8c0,1-0.8,1.7-2.2,1.7c-0.6,0-1.2-0.2-1.6-0.4L137.5,30.8z"/>
</g>
<path class="st0" d="M1.2,41.6c0,1.4,0.9,2,2,2c0.8,0,1.2-0.1,1.6-0.3L5,44.1c-0.4,0.2-1,0.4-1.9,0.4c-1.8,0-2.9-1.2-2.9-2.9
	s1-3.1,2.7-3.1c1.9,0,2.4,1.7,2.4,2.7c0,0.2,0,0.4,0,0.5L1.2,41.6L1.2,41.6z M4.3,40.9c0-0.7-0.3-1.7-1.5-1.7c-1.1,0-1.5,1-1.6,1.7
	H4.3z"/>
<path class="st0" d="M6.6,40.1c0-0.6,0-1.1,0-1.6h0.9l0.1,1l0,0c0.3-0.6,1-1.1,1.9-1.1c0.8,0,2.1,0.5,2.1,2.5v3.5h-1.1v-3.3
	c0-0.9-0.3-1.7-1.3-1.7c-0.7,0-1.2,0.5-1.4,1.1c0,0.1-0.1,0.3-0.1,0.5v3.5H6.6V40.1L6.6,40.1z"/>
<path class="st0" d="M16.9,36.2v8.1h-1v-8.1C15.9,36.2,16.9,36.2,16.9,36.2z"/>
<path class="st0" d="M18.8,40.1c0-0.6,0-1.1,0-1.6h0.9l0.1,1l0,0c0.3-0.6,1-1.1,1.9-1.1c0.8,0,2.1,0.5,2.1,2.5v3.5h-1.1v-3.3
	c0-0.9-0.3-1.7-1.3-1.7c-0.7,0-1.2,0.5-1.4,1.1c0,0.1-0.1,0.3-0.1,0.5v3.5h-1.1V40.1L18.8,40.1z"/>
<path class="st0" d="M26.1,41.6c0,1.4,0.9,2,2,2c0.8,0,1.2-0.1,1.6-0.3l0.2,0.8c-0.4,0.2-1,0.4-1.9,0.4c-1.8,0-2.9-1.2-2.9-2.9
	s1-3.1,2.7-3.1c1.9,0,2.4,1.7,2.4,2.7c0,0.2,0,0.4,0,0.5L26.1,41.6C26.1,41.7,26.1,41.6,26.1,41.6z M29.2,40.9
	c0-0.7-0.3-1.7-1.5-1.7c-1.1,0-1.5,1-1.6,1.7H29.2z"/>
<path class="st0" d="M30.8,43.7l2.6-3.4c0.3-0.3,0.5-0.6,0.8-0.9l0,0h-3.1v-0.9h4.4v0.7l-2.6,3.4c-0.2,0.3-0.5,0.6-0.7,0.9l0,0h3.4
	v0.8h-4.7L30.8,43.7L30.8,43.7z"/>
<path class="st0" d="M44.2,35.8v7c0,0.5,0,1.1,0,1.5h-0.9v-1l0,0c-0.3,0.6-1,1.1-2,1.1c-1.4,0-2.5-1.2-2.5-3c0-1.9,1.2-3.1,2.6-3.1
	c0.9,0,1.5,0.4,1.8,0.9l0,0v-3.5h1L44.2,35.8L44.2,35.8z M43.1,40.9c0-0.1,0-0.3,0-0.4c-0.2-0.7-0.7-1.2-1.5-1.2
	c-1.1,0-1.7,1-1.7,2.2s0.6,2.1,1.7,2.1c0.7,0,1.4-0.5,1.5-1.3c0-0.1,0-0.3,0-0.5V40.9z"/>
<path class="st0" d="M46.5,41.6c0,1.4,0.9,2,2,2c0.8,0,1.2-0.1,1.6-0.3l0.2,0.8c-0.4,0.2-1,0.4-1.9,0.4c-1.8,0-2.9-1.2-2.9-2.9
	s1-3.1,2.7-3.1c1.9,0,2.4,1.7,2.4,2.7c0,0.2,0,0.4,0,0.5L46.5,41.6L46.5,41.6z M49.6,40.9c0-0.7-0.3-1.7-1.5-1.7
	c-1.1,0-1.5,1-1.6,1.7H49.6z"/>
<path class="st0" d="M54.5,36.3c0.5-0.1,1.2-0.2,1.9-0.2c1,0,1.7,0.2,2.2,0.6c0.4,0.3,0.7,0.8,0.7,1.4c0,0.8-0.5,1.5-1.4,1.8l0,0
	c0.8,0.2,1.7,0.8,1.7,2c0,0.7-0.3,1.2-0.7,1.6c-0.6,0.5-1.5,0.8-2.8,0.8c-0.7,0-1.3,0-1.6-0.1L54.5,36.3L54.5,36.3z M55.6,39.7h0.9
	c1.1,0,1.8-0.6,1.8-1.4c0-0.9-0.7-1.3-1.8-1.3c-0.5,0-0.8,0-0.9,0.1V39.7z M55.6,43.5c0.2,0,0.5,0,0.9,0c1.1,0,2.1-0.4,2.1-1.6
	c0-1.1-0.9-1.6-2.1-1.6h-0.9V43.5z"/>
<path class="st0" d="M61,40.3c0-0.7,0-1.3,0-1.8h0.9v1.1l0,0c0.3-0.8,0.9-1.3,1.6-1.3c0.1,0,0.2,0,0.3,0v1c-0.1,0-0.2,0-0.4,0
	c-0.7,0-1.3,0.6-1.4,1.4c0,0.1,0,0.3,0,0.5v3.1h-1L61,40.3L61,40.3z"/>
<path class="st0" d="M68.1,44.3L68,43.6l0,0c-0.3,0.5-0.9,0.9-1.8,0.9c-1.2,0-1.8-0.8-1.8-1.7c0-1.4,1.2-2.2,3.5-2.2v-0.1
	c0-0.5-0.1-1.3-1.3-1.3c-0.5,0-1.1,0.2-1.5,0.4l-0.2-0.7c0.5-0.3,1.2-0.5,1.9-0.5c1.8,0,2.2,1.2,2.2,2.4V43c0,0.5,0,1,0.1,1.4
	L68.1,44.3L68.1,44.3z M67.9,41.4c-1.2,0-2.5,0.2-2.5,1.3c0,0.7,0.5,1,1,1c0.8,0,1.2-0.5,1.4-1c0-0.1,0.1-0.2,0.1-0.3V41.4z"/>
<path class="st0" d="M75.5,42.7c0,0.6,0,1.1,0,1.6h-0.9l-0.1-0.9l0,0c-0.3,0.5-0.9,1.1-1.9,1.1c-0.9,0-2-0.5-2-2.5v-3.4h1.1v3.2
	c0,1.1,0.3,1.8,1.3,1.8c0.7,0,1.2-0.5,1.4-1c0.1-0.2,0.1-0.3,0.1-0.5v-3.6h1.1L75.5,42.7C75.6,42.7,75.5,42.7,75.5,42.7z"/>
<path class="st0" d="M77.7,38.5l0.8,3c0.2,0.6,0.3,1.2,0.4,1.8l0,0c0.1-0.6,0.3-1.2,0.5-1.8l0.9-3h0.9l0.9,2.9
	c0.2,0.7,0.4,1.3,0.5,1.9l0,0c0.1-0.6,0.3-1.2,0.4-1.9l0.8-2.9h1l-1.9,5.8h-1L81,41.5c-0.2-0.6-0.4-1.2-0.5-1.9l0,0
	c-0.1,0.7-0.3,1.3-0.5,1.9l-0.9,2.8h-1l-1.8-5.8C76.3,38.5,77.7,38.5,77.7,38.5z"/>
<g>
	<path class="st0" d="M0,0.4H9v2.3H2.4v3.6H9v2.3H2.4v3.6H9v2.3H0V0.4z"/>
	<path class="st0" d="M12.9,14.6h-2.7l4-5.1l-3.9-5H13l2.6,3.3l2.6-3.3h2.7l-3.9,5l4,5.1h-2.7l-2.6-3.4L12.9,14.6z"/>
	<path class="st0" d="M22.3,4.5h2.2v1.4c0.8-1.1,2-1.7,3.5-1.7c2.8,0,4.7,2.2,4.7,5.3c0,3.1-1.9,5.3-4.7,5.3c-1.4,0-2.6-0.6-3.5-1.7
		v5.5h-2.2V4.5z M30.5,9.5c0-1.9-1.2-3.2-3-3.2c-1.8,0-3,1.3-3,3.2s1.2,3.2,3,3.2C29.3,12.7,30.5,11.4,30.5,9.5z"/>
	<path class="st0" d="M39.3,4.2c3.1,0,5.4,2.2,5.4,5.3s-2.3,5.3-5.4,5.3c-3.1,0-5.4-2.2-5.4-5.3S36.2,4.2,39.3,4.2z M39.3,6.3
		c-1.8,0-3.1,1.3-3.1,3.2c0,1.9,1.3,3.2,3.1,3.2c1.8,0,3.1-1.3,3.1-3.2C42.4,7.6,41.1,6.3,39.3,6.3z"/>
	<path class="st0" d="M50.3,4.2c1.8,0,3.1,0.6,4,1.9l-1.5,1.4c-0.5-0.8-1.6-1.3-2.7-1.3c-1,0-1.6,0.4-1.6,1c0,0.7,0.7,0.9,2.4,1.3
		c2,0.5,3.4,1.1,3.4,3.1c0,2.1-1.5,3.2-4.1,3.2c-2.1,0-3.7-0.7-4.5-2l1.5-1.4c0.6,0.9,1.6,1.5,3.2,1.5c1.1,0,1.7-0.4,1.7-1.1
		c0-0.7-0.6-0.9-2.2-1.3c-1.7-0.4-3.6-1-3.6-3.1C46.3,5.4,47.8,4.2,50.3,4.2z"/>
	<path class="st0" d="M55.8,1.5c0-0.9,0.6-1.5,1.5-1.5c0.9,0,1.5,0.6,1.5,1.5s-0.6,1.5-1.5,1.5C56.4,3.1,55.8,2.4,55.8,1.5z
		 M58.4,14.6h-2.2V4.5h2.2V14.6z"/>
	<path class="st0" d="M64.9,14.7c-1.9,0-2.9-0.8-2.9-3.1V6.3h-1.9V4.5H62V1.7h2.2v2.7h2.7v1.9h-2.7v5.2c0,0.7,0.3,1.1,1.1,1.1
		c0.5,0,0.9-0.1,1.6-0.2v2C66.2,14.6,65.6,14.7,64.9,14.7z"/>
	<path class="st0" d="M68.5,1.5C68.5,0.6,69.1,0,70,0c0.9,0,1.5,0.6,1.5,1.5S70.9,3.1,70,3.1C69.1,3.1,68.5,2.4,68.5,1.5z
		 M71.1,14.6h-2.2V4.5h2.2V14.6z"/>
	<path class="st0" d="M78.2,4.2c3.1,0,4.9,2.2,4.9,5.3v0.6h-7.8v0c0.2,1.7,1.6,2.6,3,2.6c1.3,0,2.3-0.6,3-1.3l1,1.8
		c-0.8,0.8-2.1,1.6-4.1,1.6c-3.2,0-5.3-2.1-5.3-5.3C73.1,6.6,75.1,4.2,78.2,4.2z M78.2,6.2c-1.6,0-2.5,0.9-2.8,2.4h5.4
		C80.6,7.1,79.7,6.2,78.2,6.2z"/>
	<path class="st0" d="M94.6,14.7c-1.9,0-2.8-0.8-2.5-3.1l0.6-5.3h-1.9l0.2-1.9H93l0.3-2.7h2.2l-0.3,2.7h2.7l-0.2,1.9h-2.7l-0.6,5.2
		c-0.1,0.7,0.2,1.1,1,1.1c0.5,0,0.9-0.1,1.6-0.2l-0.2,2C96,14.6,95.2,14.7,94.6,14.7z"/>
	<path class="st0" d="M101.7,6c0.9-1.2,2.1-1.8,3.5-1.8c2.4,0,3.5,1.5,3.2,4.3l-0.7,6.1h-2.2l0.7-5.8c0.2-1.6-0.5-2.5-1.8-2.5
		c-1.7,0-2.8,1.2-3,3.5l-0.6,4.8h-2.2l1.7-14.2h2.2L101.7,6z"/>
	<path class="st0" d="M119.3,14.6h-2.1l0.2-1.5c-0.9,1.1-1.9,1.7-3.4,1.7c-2.6,0-3.5-1.7-3.2-4.2l0.7-6.1h2.2l-0.7,5.8
		c-0.2,1.5,0.2,2.5,1.7,2.5c1.9,0,2.8-1.6,3-3.5l0.6-4.8h2.2L119.3,14.6z"/>
	<path class="st0" d="M124.2,14.6H122l1.2-10.1h2.2L124.2,14.6z M123.2,1.5c0.1-0.9,0.8-1.5,1.7-1.5c0.9,0,1.4,0.6,1.3,1.5
		s-0.8,1.5-1.7,1.5C123.6,3.1,123.1,2.4,123.2,1.5z"/>
	<path class="st0" d="M132,4.2c1.8,0,3.1,0.6,3.8,1.9l-1.7,1.4c-0.4-0.8-1.4-1.3-2.5-1.3c-1,0-1.7,0.4-1.8,1
		c-0.1,0.7,0.5,0.9,2.2,1.3c2,0.5,3.3,1.1,3.1,3.1c-0.3,2.1-1.9,3.2-4.5,3.2c-2.1,0-3.6-0.7-4.3-2l1.7-1.4c0.5,0.9,1.5,1.5,3,1.5
		c1.1,0,1.8-0.4,1.8-1.1c0.1-0.7-0.5-0.9-2.1-1.3c-1.7-0.4-3.5-1-3.2-3.1C127.8,5.4,129.5,4.2,132,4.2z"/>
</g>
</svg>
