<svg xmlns="http://www.w3.org/2000/svg" width="378.4" height="206.2" xmlns:v="https://vecta.io/nano"><path d="M57.7 138H72v3.4H61.3v8.2h10.3v3.4H61.3v8.3h11v3.4H57.7zm59.4 15.4l-4.1-9.7-3.8 9.7h7.9zm-5.3-15.5h2.5l11.3 26.9h-3.7l-3.4-7.9h-10.7l-3.1 7.9H101l10.8-26.9zm19 .1h21.7l-16.1 23.3h16.1v3.4h-22.8l16.1-23.3h-15zm28.8 0h3.6v26.7h-3.6zm67 0h3.4v26.7h-3.1l-16.8-20.5v20.5h-3.4V138h2.9l17 20.8zm12.5 0h14.3v3.4h-10.7v8.2H253v3.4h-10.3v8.3h11v3.4h-14.6zm72.5 15.2l-4.5-9.8-4.2 9.8h8.7zm-5.8-15.7h2.8l12.5 27.2H317l-3.7-8h-11.9l-3.5 8h-4.1l12-27.2zm43.9.1h3.8v27.1h-3.4l-18.7-20.9v20.9h-3.7v-27.1h3.2l18.8 21zm12.6 0v27.1h16.1v-3.5h-12.1v-8.4h11.4v-3.5h-11.4v-8.2h11.8v-3.5z" fill="#fff"/><g fill="#ec7700"><path d="M255 57.6c-.1.6-.3 1-.7 1.4-.7.9-.8 1.1-.7 2.1s0 1.2-.7 1.3a1.01 1.01 0 0 0-.7.6c-.2.4-.4 1-.8 2-.8 1.9-1.3 2.4-2.1 2.6-.8.3-1 .5-1.4 1.3-.2.6-1.6 2.2-3.1 3.5s-3.1 2.4-3.4 2.4c-.2-.1-1.2.7-2.4 1.5-1.5 1-2.1 1.4-2.3 1.1-.3-.4-1.1 0-1 .6.1.4-2.2 1.9-4.3 2.7-.4.1-2.3.9-4.2 1.6-3 1-3.6 1.1-3.7.7-.2-.8.5-1.2 3.8-2.2 2-.7 3-1.2 2.8-1.3-.7-.5-3.8.4-7.2 1.7-2 .7-3.3 1.2-3.7 1.6-.4.3.1.5 1.6.3s2-.2 2.1.3c.1.3 0 .7-.1.8-.3.3-1.9.9-3.9 1.3-1.9.5-4.2.9-5.6.9-3 .2-4.4-.4-2.7-.9.5-.2 1-.5 1.1-.7 0-.3-2.2-.2-4.6-.2l-5.8.4c-1.4.4-1 1.1.5.9 1.2-.2 3.6.4 3.7 1 0 .2-.1.4-.2.4-.2 0-2.2.4-4.6.7l-4.9.8c-.5.2-1 0-1.8-.6l-1.1-1 2.1-.3c2.2-.3 3.3-1 2.2-1.3-.4-.1-2.2 0-4 .3-1.8.2-3.6.3-4 .2-.8-.2-2.4.5-2.2.8.1.1-.1.6-.5 1.1-.6.7-.9.7-2.4.5-.9-.2-2-.5-2.4-.8-.6-.4-.6-.6-.2-1.2.3-.4.5-.8.3-.9-.1-.1-2.5-.3-5.3-.5-4.3-.3-5.3-.3-5.9.1-.7.5-.8.4-1-.1-.2-.6-2.3-1-3-.5-.7.4-1.9.3-4.1-.5-1.6-.6-2.5-.7-3.9-.6-.9.1-2.8-.1-4.1-.3-1.4-.3-2.2-.3-2.1-.1s-.2.3-.6.2c-.5-.1-.7-.3-.4-.5.2-.2.1-.3-.6-.3-1 0-2.1-.7-1.5-1 .2-.1 2.3.3 4.8.7 2.6.4 4.9.5 5.1.4.3-.2.8-.1 1.3.2.6.4 1.4.4 3.2.2 1.3-.2 2.4-.5 2.5-.7.2-.5-4.3-1.3-7.8-1.4-2.3-.1-4-.3-5.5-.6-1.6-.3-3-.8-4.8-1.5-1.4-.6-2.9-1.1-4.1-1.5l-3.2-1c.2.1.3.2.5.3.3.2-.1.7-.3.6a1.38 1.38 0 0 1-.4-.3c-.1-.1-.3-.2-.4-.3-.3-.2-.6-.5-1-.8-.8-.3-1.3-.7-1.3-1v-.3c-2.4-2.7-4.5-6.1-6.2-9.5-.1-.1 0-.2 0-.3 0 0-.2-.4-.5-.8-.2-.4-.5-.8-.5-.8-.4-.7-.9-1.7-1.2-2.7a12.22 12.22 0 0 1-.7-2.5c0-.2-.1-.6-.1-1.1v-.2-.3c0-.2 0-.4.1-.6.1-.4.1-.9.2-1.3.2-.9.4-1.8.7-2.7a23.12 23.12 0 0 1 1.7-3.6c.7-1.2 1.6-2.4 2.3-3.1 1.9-2.2 4.7-4.9 7.4-7.1s5.3-4 6.3-4.9c1-.8 4.8-3.2 8.5-4.7a175.46 175.46 0 0 1 6.5-2.6c2.4-.9 4.9-1.8 7.1-2.5 4.5-1.6 8.2-2.8 8.7-3.2.4-.3 2.5-.8 6-1.4.9-.1 1.7-.3 2.5-.4.3 1.2.8 1.7 2.2 2.9 2.7 2.2 5.2 2.9 9.8 2.9 4.3 0 6.9.2 9.2.4 2.3.3 4.4.6 7.4 1.3a96.95 96.95 0 0 1 6.8 1.9c2.6.8 5.2 1.8 7.2 2.7 4.2 1.8 7.2 4.1 7.4 4.3s1.3 1.1 2.3 2.3c.6.6 1.9 1.9 3.3 3.8.7.9 1.5 2 2.2 3.1.2.3.4.6.5.9.2.3.3.5.5.8.3.5.5 1 .8 1.5 1 2.1 1.5 4.3 1.7 6s.2 2.9.3 3c.2.6.7.7 1 .2.1-.2.4-2.3 0-4.6s-1.2-4.3-1.3-4.6c-.3-1-.7-1.9-1-2.6l-.3-.6c-.1-.2-.2-.4-.3-.5-.2-.3-.4-.7-.5-.9-.7-1.1-1.2-1.7-1.4-1.8-.7-.5-2-2.3-4.3-4.8-.8-1-3-2.8-5.1-4l-6.6-3.9c-1.8-1.1-4.3-2.3-6.8-3.1-2.5-.9-4.9-1.4-6.1-1.6-1.7-.2-1.9-.2-1.9-.9 0-.5-.3-.8-1-1-.5-.1-.9 0-.8.2.2.6-1 .7-2.5.3-.8-.3-1.4-.6-1.4-.8.1-.3-1-.6-3.9-1.1-2.2-.4-4.1-.7-4.2-.8s0-.4.1-.7c.2-.4.9-.4 2.4-.2s2.6.1 4-.3c1.5-.5 2.4-.5 4.1-.1 1.2.3 2.3.4 2.5.4.1 0 1.4.1 3.4.5s4.7 1 7.5 1.9c3.8 1.2 6.2 2.4 7.9 3.2 1.6.9 2.4 1.4 2.7 1.8.6.7 1.2 1.1 2 1.2l1.1.3-1-.7c-.5-.4-.9-.8-.8-1 .1-.1 1.6.6 3.8 2.1 2.1 1.5 4.8 3.7 7 6.4 2.3 2.6 4.2 5.7 5.4 8.1 1.1 2.4 1.5 4.2 1.5 4.6-.1.7 0 1 .4 1.4.7.7.7.9.2 1-.3.1-.5.3-.6.5 0 .3-.5.1-1.2-.4 0 0-.3-.2-.5-.4-.3-.2-.5-.4-.5-.4a11.21 11.21 0 0 0 .3 1.5l.2 1.5c.2 2.3.3 3.1.7 3.6.5.6.5.6.4-.3-.1-.6-.3-1.3-.4-1.8-.2-.5-.1-1.1.2-1.5.4-.7.4-.7 1.2-.2.5.4 1 1.4 1.2 3.6 0 1.5 0 2.3-.1 2.9m-43.1 32.2c-1.9.3-2.5-.1-1.4-.6.9-.4 1.5-.5 2.4-.1.8.3.6.4-1 .7m-40.3.1c-1 .2-6.2-.2-8.1-.8l-1.3-.4h1.6c2.1-.1 3.1 0 6.1.6 1.8.3 2.3.5 1.7.6m-24.8-8.7c-2.3-.2-3.8-.6-4.1-.9-.2-.1-1.3-.8-2.4-1.5 0 0-.1-.1-.3-.2s-.4-.3-.5-.4c-.4-.3-.8-.7-.8-.7h.5.5c.4 0 .6-.1.9.1s.7.5 1.6 1.1c1.4.9 2.4 1.2 3 1.1.7-.1 1.1.1 1.9.8l1 .9-1.3-.3zm-1.3 4.5c-.1.2-1.1.1-2.5-.4l-1.2-.4-1.2-.4s.5.1 1 .1 1 .1 1 .1c2.1.1 3.1.4 2.9 1m-9.1-12.5c-.4-.1-1.1-.8-1.7-1.6s-1-1.6-.9-1.8.7.4 1.6 1.7c1.1 1.4 1.4 1.8 1 1.7m-.2 2c-.2 0-1.1-.6-2-1.4-1-.9-2.6-2.8-3.7-4.6-1.2-1.8-1.9-3.5-1.9-3.9 0-.3.2-.7.5-.8.2-.1.4.1.9.9s1.2 2.3 2.7 4.6c1.9 3.2 3.7 5.3 3.5 5.2m-3.5 4.8c-.2-.2-.2-.4 0-.4s.4.2.4.4c-.1.2-.2.2-.4 0m-4.3-16.6c-.1.1-.7-.6-1.1-1.5s-.7-1.6-.8-2.3-.2-1.4 0-2.1c.1-.5.2-.7.2-.6.1.1.1.5.3 1.4.3 1.3.8 2.6 1.1 3.5s.5 1.5.3 1.6m7.9-27.7c.9-.7 1.4-1 .9-.6-.4.4-1.1 1-1.7 1.4-.4.4-.1 0 .8-.8m93.4-15.9c.3.1.3.2.2.3-.2 0-.4-.1-.5-.2s.1-.2.3-.1m32 26.5a29.27 29.27 0 0 0-1.9-5.5c-.7-1.5-1.4-2.7-1.9-3.4-1.9-2.9-4-5.4-4.3-6-.7-1.1-3.5-4.9-8.5-8.8-2.5-1.9-5.5-3.9-8.9-5.6s-7-3.1-10.8-4.3c-.9-.3-1.7-.5-2.6-.7.1-.8.1-1.9-.3-3.3-.4-1.6-.8-2.4-1.3-3.1-.6-.7-1.4-1.2-2.9-2-1.7-1-3.7-2-4.5-2.5l-1.4-.9s-1.5-.1-3.6-.1-4.9.1-7.6.3c-5.4.4-10.4 1.3-10.4 1.3-11.2 1.8-21.7 5.1-24.1 6l-9.6 3.7c-2.2.8-3.7 1.3-5.1 1.6 0 0-.6.2-1.3.3-.6.2-1.3.3-1.3.3-5.2 2.8-9.7 6.3-14.1 10.1-.2.2-.4.1-.5 0-1.4 1.1-4.5 3.5-7.6 6.5a50.75 50.75 0 0 0-5 5.5c-1.4 1.8-2.4 3.4-2.8 4.2-.4.7-1.4 2.3-2.4 4.5-1 2.1-2.1 4.8-2.7 7.6-.1.6-.2 1.1-.3 1.6s-.1.9-.2 1.5c-.2 1.8-.1 3.4 0 4.7.2 1.2.4 2.2.6 3 .5 1.6 1 2.7 1.5 3.6 1.2 2 1.7 3 1.9 3.9.3 2.1 1.6 4.7 2.2 5 .3.1.6.5 1.4 1.6s2 3 4.7 6.2c.9 1 1.9 2 2.8 2.8s1.7 1.3 2 1.5c.4.2.9.5 1.5.8.6.4 1.3.7 1.8 1 1.1.6 2.4 1 2.9 1 .8 0 1.3.3 2.4 1.2 1.3 1.1 1.7 1.2 3.9 1.4 2.1.1 2.5.2 3.4.9 1.1.8 3.8 1.2 3.9.5 0-.2.6-.2 1.3.1.7.2 5.8 1.1 11.4 1.5l11.5.7c.8.1 3.8.3 6.7.5s7.6.1 10.5-.2c2.8-.2 5.4-.5 5.7-.5l1.2-.1c.7-.1 3.4-.2 6.5-.5 3.2-.3 6.8-.7 9.5-1.1 3.1-.5 6.5-1.4 7.9-2.1 1.2-.5 3.5-1.3 5.5-2 .8-.3 1.6-.6 2.3-.8.8-1.1 2.1-1.9 3.8-2 2.5-1 4.9-2.2 7.3-3.4 1.1-.7 2.2-1.5 3.3-2.2 4.3-2.9 8.1-6.5 12.1-9.9.9-1.2 1.7-2.6 2.6-4.2 1-2.1 1.9-4.5 2.4-7.1.8-5.1.6-10.4-.5-14.6"/><path d="M179.8 84.3c1-.2 4.4-.1 7 .3 1.3.2 2.2.1 2.9-.2.6-.3 3-.5 7.5-.7 3.8-.2 6.9-.8 7.3-1 .5-.3 1.4-.4 3.4-.4 1.5 0 2.8-.1 3-.2.1-.1 2.1-.4 5.2-1.2 3.1-.7 7.3-1.9 11.6-3.6 8-3.1 12.9-6.9 16.2-10l1.1-1.1.5-.5.4-.4c.5-.6.9-1.1 1.2-1.7.7-1.1 1.1-2 1.3-2.8.5-1.6.6-2.5.6-3s-.2-.7-.3-1c-.4-.5-.4-.5-.8.1-.2.4-.5 1.8-.9 3.1a14.76 14.76 0 0 1-1.7 3.5c-.3.4-.5.7-.9 1.1l-.1.1-.2.2-.3.4-.7.7c-1 1-2 1.9-3.2 2.8-2.2 1.8-5.2 3.7-8.3 5.3s-6.4 2.9-8.7 3.7-5.2 1.6-7.8 2.2a77.2 77.2 0 0 1-6.8 1.2 126.54 126.54 0 0 1-10 .9c-4.1.3-8.8.4-13.2.3-4.4 0-8.6-.2-11.7-.4l-5.3-.3c-1.4.3-.6.8 1.9 1 1.4.2 3.3.4 4.1.5s2 .3 2.7.3c.6 0 1.4.3 1.7.4.3.5.9.6 1.3.4"/></g><g fill="#e73b32"><path d="M279.4 120.8c3.5-1.3-2.6-.3-4.2-.4-15.1-1.5-30.4-2-45.5-3.5-33.4-3.3-67.1-4.2-100.6-7.2-13.8-1.2-30.1-1.5-42.8-6.8.6-2 .4-.2 1 .3"/><path d="M240.3 118c-.3 0-.8 0-1.2-.1-.3-.1 0-.1.6-.1.6.1.9.2.6.2m-15.8 1.5c-2 .1-3.5 0-3.5-.3 0-.1.5-.3 1.1-.3 1.2-.1 1.8 0 3 .3.8.2.8.3-.6.3m-8.2-.2l-3.7-.5c.1-.1.7-.3 1.4-.4 1.6-.3 5.5-.1 5.9.2.2.1.3.4.3.6-.1.4-.7.4-3.9.1m-1.7 1c-1.1-.1-1.4-.2-1.2-.4.4-.3 2.5-.2 2.6.2.1.2-.5.3-1.4.2m-2.2-6c-.1.1-.2.1-.3 0s0-.2.2-.2c.1 0 .2.1.1.2m-2.6 4.9c-.5.4-.8.4-2.1 0-1.1-.3-1.7-.3-2-.1-.4.2-.7.1-1.2-.2l-.7-.5.7-.1c1.3-.2 2.2-.3 2.4-.2.1.1.9.3 1.8.5l1.6.3-.5.3zm-3.6-5l1.3.1-1.1.3c-1.1.3-1.6.2-1.6-.3.1-.1.6-.1 1.4-.1m-11.1-.1c-1.1.2-1.6.2-3.3-.1-1-.2-1.2-.4-.9-.5.5-.2 3.3-.1 4.3.3l.7.2-.8.1zm-24.9-1.7c-.5.2-.8.1-1.3-.3-.4-.4-.3-.4.6-.4 1.1.1 1.4.4.7.7m-59.1-3.3c-.1.1-.2.1-.3 0s0-.2.2-.2.2.1.1.2m180.7 10.3c-.1-.6-.2-1.3-.5-1.8-.3-.7-.5-.9-.7-1.2s-.5-.6-.8-.8l-.2-.2-.2-.2c-.1-.1-.3-.2-.4-.3l-.3-.2-.2-.1c-.1-.1-.3-.1-.4-.2-.1 0-.2-.1-.3-.1-.3-.1-.5-.2-.7-.3-.3-.2-.5-.3-.7-.4-.7-.4-1.2-.6-2-.9-.9-.4-1.7-1-2-1.3l-.5-.6h-.2 0 0l-4.3-.4-4.4-.4c-5.6-.3-11.2-.5-12.5-.4-4.8.2-6.4.2-7.7-.3l-1.2-.4c-2.7.2-5.5.7-8.2 1-.1 0-.2-.1-.2-.3-.8 0-2.7 0-4.6-.1-2.2-.1-4.7-.2-5.4-.1s-3.2 0-5.3-.2c-3.1-.3-4.3-.3-5.4 0-1 .2-1.5.3-1.9 0-.9-.5-2.2-.8-2.5-.5s-.8.2-4.5 0c-1.2-.1-2.4-.1-2.7.1-.3.1-.9.2-1.4.2s-1 .1-1.2.2c-.3.2-.6.2-1.2-.3-.7-.5-.9-.5-1.9-.2s-1.2.3-1.7-.1c-.6-.5-1.9-.4-2 .1 0 .2-.3.2-.6.1-.4-.1-3-.2-5.9-.2s-5.6 0-6-.1-2-.2-3.5-.3-3.9-.1-5.4-.1c-1.5.1-2.8.1-2.9.1h-.6c-.7 0-5.4-.3-8.1-.6-1.6-.1-3.3-.1-4.1.1-.8.1-12.4-.2-15.5-.5H146c-1 0-1.8-.2-2.5-.5l-4.1-.3-11.1-.6h-3.6c-.6-.2-2.9-.4-5.9-.6s-6.9-.4-10.8-.8c-3.9-.3-7.8-.8-11-1.4s-5.7-1.2-6.8-1.5c-.2 0-.4-.2-.5-.3-.3-.3-.4-.2-1.6.6-.7.5-.8.7-.7 1.1s0 .6-.2.7c-.5.3-.7 1-.6 2.3.1.6 0 1.8 0 2.7-.1 1.3 0 1.8.7 3 1.2 2 2.7 3 5.6 3.3 2.7.3 4.3.4 5.7.5 1.5.1 2.8.3 4.7.6 2.2.3 6.6.6 9.6.6h5.8c.2 0 1.2.1 2.2.2 1.2.2 5.1.3 8.6.4 3.7.1 7.2.2 7.5.1.5-.2.5-.5.1-.8-.2-.1-1.7-.2-3.4-.3s-3.3-.1-3.6-.2c-3.1-.4-4.6-.5-5-.4-.5.2-2 .1-4.2-.1-.8-.1-2.7-.2-4.2-.1-1.8 0-3.5-.1-4.9-.4-2.6-.6-6.9-1.1-8.5-1.1-1.1 0-1.2 0-1.2-.6 0-.4-.2-.6-.6-.7-.3 0-.5 0-.5.2.1.5-.6.7-1.5.4-.5-.2-.8-.4-.8-.6s-.6-.5-2.3-.8c-1.3-.3-2.4-.7-2.4-.7-.1-.1 0-.3.1-.5.2-.3.5-.3 1.4-.1s1.5.1 2.3-.2c.9-.4 1.4-.4 2.3-.2.7.1 1.3.2 1.4.1s2.9.2 6.3.5c4.5.4 6.2.5 6.7.8s.9.3 1.3.1l.6-.2-.7-.1c-.4-.1-.7-.2-.7-.4 0-.3 3.9-.1 7.8.2s7.9.8 8.3 1.1.6.3.9.1c.6-.4.7-.4.6.1 0 .2.1.5.2.5.2.1 0 .4-.4.8l-.7.6 2 .2c1.5.1 2.1.1 2.5-.2.4-.4.4-.4-.2-.3-.4.1-.9.2-1.2.2-.3.1-.7-.1-.9-.3-.4-.4-.4-.4 0-.9.3-.4.9-.6 2.3-.7 1.6-.2 1.9-.1 2.5.3s.8.5 1.3.2c.6-.3.7-.2.9.2s.4.5 1.8.3c1.3-.1 1.7-.1 2.1.3s.7.4 1.2.2c.7-.3 4.8-.2 5 .1.1.1.8.2 1.6.1 1 0 1.4 0 1.4.3 0 .4.5.4.7 0 .1-.3 1.6-.4 2.8-.3.2 0 1.3.1 2.5.2 1.7.1 2.1.2 2 .5 0 .7-.5.8-2.4.6-1.2-.1-1.8-.1-1.7.1.2.6 2.1 1 4.1.9 2.4 0 3.2-.5 1.5-.9-.8-.2-1.1-.3-1-.8 0-.3.1-.5.2-.6.4-.3 3.8-.2 5.3.2 1.6.3 2.3 1 1.3 1.2-.3.1-.6.2-.7.4-.1.4 4.8 1.4 5.6 1.1.8-.2.6-.8-.2-.7-.7 0-1.9-.7-1.9-1.2 0-.2.1-.3.2-.3s1.2 0 2.5-.1c1.3 0 2.5-.2 2.7-.3.3-.2.5.1.9.6l.5.8-1.1.1c-1.2.1-1.8.6-1.3.9.2.1 1.2.1 2.2 0s2-.1 2.2 0c.4.2 1.3-.3 1.2-.6 0-.1.1-.5.3-.8.3-.5.5-.6 1.3-.4.5.1 1.1.4 1.3.6.3.3.3.5.1.9-.2.3-.3.6-.2.7s1.4.2 2.9.3c2.3.1 2.9.1 3.2-.3.4-.4.4-.4.5 0 .1.5 1.3.7 1.7.3s1-.4 2.2.1c.9.3 1.4.4 2.1.2.5-.1 1.5-.2 2.2-.2.8.1 1.2 0 1.2-.2-.1-.2.1-.3.3-.3.3 0 .4.1.3.3s0 .3.3.2c.6-.2 1.2.3.9.6-.1.1-1.3.2-2.7.1-1.4 0-2.7.1-2.8.2-.2.2-.4.1-.7-.1-.4-.2-.8-.2-1.8.1-.7.2-1.3.6-1.4.7-.1.4 2.4.8 4.3.6 2.6-.2 3.8-.2 6 .3 1.8.4 3.7.4 5.4.1l-.6-.1c-.3 0-.2-.5 0-.5l1.9.2c.5-.2 1-.2 1.1-.1l.2.2c2.3.3 4.7.5 7 .7.1 0 .1.1.2.2h1.2 4.1 4.9a74.46 74.46 0 0 1 5 .2c3.6.4 9.1.5 10.7.3.8-.1 3.2 0 5.5.2 4.6.4 12.4.4 13 0 .3-.1 1.4-.1 3.3.2 1.6.3 3 .5 3.1.5s1.1-.1 2.3-.1c1.5-.1 2.5 0 3.6.3.8.2 1.7.4 2 .3s1.4-.1 2.7.1h.5.8.6c.4 0 .7-.1 1-.1.6-.1 1-.2 1.3-.4.3-.1.5-.3.8-.4 0 .2.1.4.2.6.1.3.3.6.6 1 .3.3.6.7 1.2 1 .1.1.3.1.5.2h.3.3c.1 0 .3-.1.5-.2.1-.1.2-.1.4-.2.1 0 .1-.1.2-.1l.3-.3.3-.3.1-.1.1-.1c.1-.1.2-.2.2-.4.2-.2.3-.5.4-.8.1-.2.3-.8.4-1.4.7-.2.7-.7.6-1.3"/><path d="M183.3 118.1c-.5.2-2.4.1-3.7-.3-.7-.2-1.2-.2-1.5.1-.3.2-1.6.3-4 .2-2.1-.1-3.7 0-4 .1-.3.2-.8.2-1.8-.1-.8-.2-1.5-.3-1.6-.2h-3c-1.8 0-4.2-.1-6.9-.3l-17.3-.8c-2.5-.1-2.7.1-3.1.4s-.4.4.2.6c.3.1 1.5.2 2.7.2l8.5.3s8.8.3 11.6.3 6.7.1 8.5.3c2.5.2 7.9.4 12.6.6s8.8.3 9 .2c.7-.3.3-.6-1-.8-.8-.1-1.7-.2-2.2-.3-.4-.1-1.1-.2-1.4-.2s-.7-.2-.9-.3c-.1 0-.5-.1-.7 0"/></g><path d="M118.8 193.1l2-5.1 2.2 5.1h-4.2zm.7-8.5l-6.2 15.5h2.8l1.8-4.7h5.8l2 4.6h3.2l-6.6-15.5-2.8.1zm95.8 8.5l2-5.1 2.2 5.1h-4.2zm.7-8.5l-6.2 15.5h2.8l1.8-4.7h5.8l2 4.6h3.2l-6.6-15.5-2.8.1zm-73.2 10.3l-8.8-10.1h-2.3v15.3h3V190l8.8 10.1h2.2v-15.3h-2.9zm53.5 0l-8.8-10.1h-2.3v15.3h3V190l8.8 10.1h2.3v-15.3h-3zm7.7-10.1h3v15.4h-3zm35.4 10.1l-8.8-10.1h-2.3v15.3h3V190l8.8 10.1h2.3v-15.3h-3z" fill="#fff"/><path d="M171.5 181.2c-.1 0-.2 0-.3-.1 0 .1 0 0-.1 0v.1h-.4c.1 0 0-.2.1-.2h.1c0 .1-.1.1-.1.1.1-.1.3.1.3-.1-.1 0-.1.1-.1 0s-.2-.1-.2-.2c.1 0 .1-.1.2-.1s0 .1.1.1c0-.1-.1-.1-.1-.2h-.1c.1 0-.1 0 0-.1.1 0 0-.1 0-.1h.1v-.1h.2.2a1.44 1.44 0 0 0 .2.3c0 .3 0 .5-.1.6m-.2.3c0-.1-.1-.1 0 0 .1-.1 0-.1 0-.1 0-.1.1 0 .1 0s-.1 0-.1.1m-10.9 2.5h.1c0 .1 0 .1-.1 0m-10.1-.9c-.1 0-.1 0 0-.1 0-.1.1-.1.1 0 0 0 0 .1-.1.1m5.4-1.2c0 .1.1.3-.1.3v-.1c0-.1 0-.2.1-.2m.4.2c0 .1 0 .1 0 0 0 .2-.1.1-.2.1s.1 0 .2-.1m.2-.2c.1 0 .1 0 .2.1 0 0 .1 0 .1-.1.1 0 0 .1-.1.1 0 0 .1 0 .1.1h.1c0 .1.1.1.2.1 0 0-.1 0-.1.1 0-.1-.1 0-.2-.1-.1.1-.1 0-.2 0 0-.1 0-.1-.1-.2l.1.1h.1c0-.1-.2-.1-.2-.2m.3-.3c.1.1.2-.1.3 0v.1c-.1 0 0 0 0 0-.1 0-.1.1-.1.2-.1-.1-.2-.2-.2-.3m.7.5c0 .1 0 .2-.1.2l.1.1c.1-.1.1-.2.3-.2 0 .1-.3.1-.1.2 0 0 .1 0 .1.1-.1 0-.1.1-.2 0v-.1c-.1.1-.2.1-.4.1 0 0 0-.1-.1-.1.1 0 .1-.1.2-.2 0-.1-.1 0-.2-.1.1-.1.2 0 .4 0m0-.2s-.1.1-.2 0h.2m.2 0c0 .1 0 .1 0 0 0 .1.1.2 0 .2 0-.1-.1-.2 0-.2m.2.3c-.1 0 0-.1-.1 0 0-.1.1-.1.1 0m-.1-.4h.2a.76.76 0 0 1 .4-.2h.2c0 .1-.1 0-.1.1.1.1.3.1.4 0v.1s-.1 0-.2.1c.1 0 .1.1.2.1 0 .2-.3.1-.5.2 0 .1.1.1.2.1s.2-.2.2 0c.1 0 .1-.1.2-.2.1 0 .3.1.3.1-.2.2-.5.2-.8.3v-.1c-.1 0-.2-.1-.3 0 0-.1.2-.1.2-.2h-.3c0 .1-.1.1-.1.1 0-.1 0-.1.1-.2-.2-.1-.2-.2-.3-.3-.1 0 0 0 0 0m1.1-.3c-.1 0 0 0 0 0m.3.3c.1 0 0 .1-.1.2-.1-.2.1-.1.1-.2m.5.1c0 .1-.3 0-.4.1v-.1h.4m.1-.3c0 .1 0 .1-.1.1 0 0 0-.1.1-.1-.1 0 0 0 0 0m-.2.7h.1c0 .1-.1.1-.1 0m-.4.5c.1-.1.1-.1.1-.2 0 .1 0 .1.1.2h-.1c0 .1 0 0-.1 0m.9-.2c.1 0 .1 0 .1.1h.1c0 .1 0 .3-.1.3s-.2 0-.2.1c0 0-.1 0-.1-.1-.1-.1-.2-.1-.4.1h-.1-.3c0-.1.1-.1.2-.2l.1.1v-.1c.2 0 .2 0 .4-.1.1.2.3-.1.5 0 0 0-.1-.1 0-.1-.2 0-.3 0-.4.1-.1 0-.1 0-.1-.1.1.1.1-.1.1-.1h.2m-.1-.3c.1 0 .1.1.1.1v.1h-.1c-.1 0-.1-.1-.2-.1.1-.1.1-.1.2-.1m.1-.2c0 .1 0 .1 0 0 .1.2-.1.1 0 0m-2.6 1.6c0-.1.1-.1.1-.1v.1.1.1c-.1 0-.1-.1-.1-.2m-.6.1c-.1 0-.1.2-.2.1 0 0 .1 0 0-.1.1 0 .1 0 .1-.1.1 0 .3 0 .4-.1.1.2 0 .2-.3.2 0 .1.1.1 0 0m-1-1.4c.1 0 .1-.1.2-.1 0 .1-.1.1-.2.1m.5.1c.1 0 .1-.1 0 0h.1-.1m.6.1h-.1v-.1c.1 0 .1-.1.1-.2.1 0 .1.1.2 0-.1.2-.4.2-.2.3m-.5.8v.1-.1m-.2.6c-.1 0-.1-.1-.2-.2v-.2h.2c-.1.2 0 .3 0 .4zm.5-.4h-.1c0 .1.1.1.1.1-.1.2-.1.1-.2.3h-.1s-.1-.1-.1-.2v-.1s.1 0 .1-.1c-.1-.1.1-.1 0-.3.1 0 .3-.1.5 0 0 .1-.1.1-.1.1 0 .1.1 0 .1 0 0 .2-.1 0-.2.2-.1-.1 0-.1 0 0m.3-.4h-.4v-.1s0-.1.1-.1.2.1.3.2m0-.1h0m1.5.4s0-.1 0 0v-.1h.1v.2h-.1v-.1m-1-.5c.1 0 .1-.1.2 0 0 0 0-.1-.1-.1 0 0 .1 0 .1-.1 0 0-.1 0-.1-.1.1 0 .2-.1.3 0 0 .1-.1.1-.1.1 0 .1.2 0 .2.1v-.1c.2.1.3-.1.5-.1.1.1.2 0 .3.1.1-.1.3 0 .2 0 0 0-.1.1-.2.1-.1-.1-.2 0-.3.4h-.1v-.3c0-.1 0 .1 0 .3v.2h-.2v-.1c-.1-.4-.1-.4-.4-.3-.1 0-.2-.1-.3-.1m-1.5-.6h.2c0 .1-.1.1-.2 0 0 .1 0 .1 0 0m4.4.9c.1 0 .1.1.1.1 0 .1-.1 0-.1-.1m-.1-1.5c0 .1.1.1 0 0 .2-.1.2-.1.3-.1l.2-.2v.1c.1.1.1 0 .2 0 0 .1-.1.1 0 .2-.1-.1-.2-.1-.3-.1 0 .1.1.1.1.1-.1 0-.1.1-.2.1 0 .1.2.1.2.2v.2c.1.1.2 0 .3 0v.1c-.1 0 0 .1-.1 0 0 .1.2.1.2.3h-.1c0 .1-.1.1-.1.1h-.1c-.2 0-.3 0-.3.2-.1-.1-.2 0-.3 0 0-.2-.1-.4-.1-.6h.1c0-.1-.1-.1-.1-.1.1-.1.2 0 .3 0v-.1h-.1s.1 0 0-.1c.1 0 .1-.1.3 0-.1-.1-.2-.1-.2-.2-.1 0-.2-.1-.3-.1 0 .1-.1.1-.1.1 0 .1.2 0 .2.1 0 0 .1-.1 0-.1 0 0 .2 0 .2.1 0 0-.1 0-.1.1v-.1c-.2.1-.5-.1-.5-.2.2.2.4.2.4 0m-.2-.1c0 .1-.1 0-.1.1-.1-.1.1-.1.1-.1m.1-.5l.1.1s0 .1-.1.1h-.1v.1h-.1c.2 0 .1-.2.2-.3m.9 0c0 .1-.1 0-.2 0l.1-.1c-.1 0 0 .1.1.1m.4-.1l-.1-.1c-.1 0-.1 0-.1.1h-.1c0-.1-.1-.1-.1-.3.1.1.3.1.4.3m.1.6c.1-.1.1 0 .2 0v-.1c.1 0 .2-.1.3 0 0 .1.1.1.2.2 0-.1.3-.3.3 0h-.1c.2.1.3.3.5.2 0 .1.1 0 .1.2-.1 0-.1-.1-.3 0a1.38 1.38 0 0 0-.4-.3v.2h-.1c0 .1-.2.3-.3.1.1 0 .1-.1.2-.1 0-.1-.1-.1-.2-.1 0 0 0-.1.1-.1 0-.1-.1 0-.1-.1-.1 0 0 .1-.1.1-.1-.1-.2-.2-.3-.2 0 .1 0 .2-.1.1.1-.1-.2-.2-.2-.1h-.1c.1-.1.3-.2.4 0m3.7.1c0 .1-.1 0-.1 0s.1-.1.1 0m-1.9-.2c0 .1 0 .1 0 0-.1 0 0 0 0 0m.2.2s-.1 0 0 0c-.1 0-.1 0 0 0-.1 0 0 0 0 0m1.1.2c-.1 0-.1 0 0 0-.1-.1-.1-.1-.2-.1h.1l.1.1m-.4-.9c0 .1 0 .1 0 0-.1 0 0 0 0 0m.3.2s0 .1-.1.1v-.1c-.1 0 .1 0 .1 0m.2-.2c0 .1-.2.1-.2 0 0 .1-.1.1-.2 0l.1-.1h.2l.1.1m0 .7s0-.1 0 0h0m0-.1c0-.1.1-.1.1-.2.1 0 .1 0 .2.2h-.3m-1.8.1h-.1.1m-.1-.3c-.1.1-.1-.1-.2-.1 0-.1 0-.1.1-.1h.3s0 .1-.1.1c-.1-.1-.1 0-.2 0s0 0 .1.1c.1 0 .1-.1.1-.1.1 0 0 0 0 .1s.1 0 .2 0-.1-.1 0-.1c-.1 0-.3-.1-.1-.2.1 0 .1.1.2.1s.1-.1.1-.1 0 .1.1.1c.1-.1.3-.1.5-.1.1 0 0-.1.1-.1s0 .1 0 .2h-.1l.2.2c.2-.1.3-.1.5-.1 0 .1.1.1.1.3-.1-.1-.2-.1-.4-.1 0 .1-.1 0-.1.1-.1 0-.2-.2-.3-.1v-.1c-.1 0 0 0 0 .1-.1-.1-.2-.1-.2-.2.1 0 .1-.1.1-.1s-.2 0-.2-.1c-.1 0-.1.1-.1.1-.1 0-.2 0-.3.1-.2.2-.3.2-.4.1m2.5 1c0 .1.1.3.1.4-.1-.1-.3 0-.5 0 0 .1-.1.3-.4.3l-5.1.5c-1.1.3-2.1.5-2.9.6.1 0 .2 0 .2-.1-.2-.4-.3.2-.7 0 .3 0-.1-.1.1-.2.3-.1.4 0 .5-.2 0 .1.1.1.2.1-.1-.4.7-.6.3-.9-.1.1-.4 0-.4-.1 0 0 0-.1.1-.1.3-.1.3.2.5.1.1-.1-.1-.1 0-.2.2 0 .6 0 .5.3.2 0 .1-.1.2-.1l.2.2c.3 0 .5 0 .7.1 0 .1 0 0 .1.2-.1 0-.2-.1-.2 0 .3.2.7-.2.8-.4-.1 0-.1.1-.2 0 0 0-.1 0-.1-.1.4-.3.9.2 1.2-.2l.1.1c.1 0 .4 0 .4-.2-.1 0-.1-.1-.2-.1.2-.2.4 0 .5-.1 0-.1-.1-.1 0-.2.2-.4.8-.2.2.1 0 .1 0 .2.1.3.2 0 .2-.2.3-.3.3.1.5-.1.8 0 0 0 0-.1.1-.1.1.1.2.1.1.2.7-.2 1.3-.1 2-.3-.1.4.3.2.4.4m0-1.1s.1.2 0 .2v-.2m1.6-.5s-.1.1-.1 0h.1m.5.2s.1.1.2.1c-.1 0-.2 0-.2-.1m-.5.2c0-.1.1 0 .1 0h-.1m-.4-.2c.1 0 .2-.1.3-.1v.1h-.2c0 .1-.1.1-.1 0m-.5 0c.1-.1.1-.1.2-.1 0 .1-.1.1-.1.2s0-.1-.1-.1m.1.3c.1-.1.1-.1.3-.1.1.1.1.2.2.2 0 .1.1.1.1.1-.1.1-.1 0-.2.1 0-.1-.1-.1 0-.1-.1-.1-.3-.1-.4-.2m.9.4c0 .1-.1.1 0 0-.1 0-.1 0 0 0m.2-.3s0 .1-.1.1h-.1c0-.2-.1-.2-.2-.2.1-.1 0-.1 0-.2.1.1.1.1.2.1.1-.3.3 0 .5.1h.2c0 .2-.2.1-.3.2 0-.1-.1-.1 0-.1h-.2m.4-.7h.1c0 .1-.1.1-.1.1.1.1 0 .1.1.1h-.1c0-.1-.1-.1 0-.2-.1-.1-.2.1-.3 0v-.1c.1.1.2.1.3.1m1 .4c-.1.1-.1 0-.2.1-.1.2-.2.4-.4.2-.1-.2.2-.2.2-.5h.1v.1c.2 0 .4-.2.5 0-.2 0-.2.1-.2.1-.1-.1 0-.1 0 0m1-.1c0 .1 0-.1-.1-.1 0-.1.2 0 .3-.1-.1.1-.3.1-.2.2m-.3.1c.1.1.1 0 .3 0-.1 0 .1.2 0 .2s-.1 0-.1-.1h-.2s.1 0 0-.1m.1-.4c-.1 0-.1 0 0 0-.1 0-.1 0 0 0m-.3.3c0-.1 0-.1.1-.1s0 .1-.1.1m.1.2c-.1 0-.1 0-.1-.1 0 .1.1.1.1.1m-.2-.5s0-.1 0 0c.2-.1.1 0 .1.1 0 0-.1 0-.1-.1 0 0-.1.1-.1 0h.1m.4.2h-.2c0-.1.1-.1.1-.1.2 0 .1.1.1.1m-.5-.1l-.1-.1c.1 0 .1.1.1.1m1.4.1h-.2c-.1-.1.1-.1 0-.2h.2c.1.1 0 .2 0 .2m.1.2c-.1 0-.1.1-.2.1 0-.1.1 0 .1-.1s.1-.1.1 0m0-.5h.1s.1.1 0 .1 0-.1 0-.1h-.1m-5 2h.2-.2m-3.9.3c0-.1 0-.1 0 0 .1-.1.1-.1 0 0 .1-.1 0-.1 0 0m-.1-1c.1 0 .1.1.1.1s0 .1-.1.1v-.2c-.1 0 0 0 0 0m7.6.4c-.4.1-.7.1-1.1.2-.8.1-1.4.1-1.5 0s-.1-.1-.2.1c0 .1-.1.2-.2.2 0 0-.2-.1-.5-.1 0 0 .2 0 .3-.1v-.1c-.1 0-.2 0-.3-.1.1-.1.2-.1.3-.2-.1 0-.2-.1-.3-.1 0 .1-.1.2-.2.1v-.1h.1c0-.1-.1 0-.1-.1.1-.1.1-.1.2-.1 0-.1.1-.1 0-.2.1 0 .1-.1.1-.1-.1 0-.1-.1-.2-.1 0 0 .1 0 .1-.1-.1-.1 0-.2-.1-.3.1 0 .1.1.2.1 0 .1.1.2.1.3h.2c-.1 0 0 .2-.1.3-.1 0-.2 0-.2.1.1 0 .1.1.2.1s.1-.1.2 0v-.1c.1 0 .2.1.3 0 .1.2-.1.2-.2.2v.1c.1 0 .1.1.2 0v.1c.1 0 .2-.1.3-.1 0 0 0-.1.1-.1l.1.1h.2c-.1-.1 0-.2 0-.3h.2c.1 0 .1.1.2.2-.1 0 0 .1-.1 0l-.1-.1h-.1c0 .1.1.1 0 .2.3 0 .5-.2.7.1 0 .1-.1.1-.1.2.1 0 .1.1.1 0h-.1.2c0-.1-.1-.1-.1-.2.3 0 .5 0 .6-.1 0 0-.1-.1 0-.1.1.1.3.2.5.2-.1 0-.1 0-.1-.1.1 0 0-.1.1-.1s.1.2.2.1c.1 0 0 .3.1.2 0 0-.1-.1 0-.1 0 0 .1.1.1 0-.1-.1 0-.3-.2-.3.1 0 .1-.2.2-.1 0 .1-.1.1-.1.1l.1.1h.1c0 .1.1.1.1.1h-.1.2c-.1.2-.3.2-.4.4.1 0 0-.1.1-.1h.2c-.1-.3-.3-.3-.5-.2m1-.3c0-.1 0-.1-.1-.1v-.2l.1.1v-.2s.1 0 .1.1h.1v-.1c.1.1.2 0 .3 0 0 .1 0 .2.1.3-.2 0-.4 0-.6.1m1-.6h.2v.1c-.1 0-.1.1-.2.1-.2 0-.3 0-.4-.2.1 0 .3.1.4.1 0 0-.1-.1 0-.1m-15.9 9.9c0-.1-.2 0-.2-.2.1 0 .1-.1 0-.1v.1s0-.1-.1-.1v.1h-.1c-.1-.1 0-.2 0-.3 0 .1.1 0 .1.1.1 0 .1-.1.1-.2.1 0 .1.2.1.2l-.1.1s.1-.1.1 0-.1.1-.1.1c0 .1.2 0 .2.1.1 0 0 0 0 .1m0 .5c-.1 0 .1-.2.2-.2-.1.1-.2.1-.2.2m.2.3c-.2.1-.1-.1-.1-.2s.1.1.1.2m.2.5c0 .1.1.1 0 .2 0 .1.1 0 .1 0v.1h-.1s0-.2-.1-.1v-.1c0-.1 0 0 .1-.1m.2 2.5c0-.1 0-.1 0 0-.1-.1 0-.1 0-.2h.2c-.2.1-.1.1-.2.2m-.1-.2c-.1 0-.1-.1-.2-.1 0 .2-.2.1-.3.2 0 0-.1-.2-.1-.3-.1.1 0 .2.1.3-.1 0-.1.1-.1.1 0-.1 0-.1-.1-.1v-.2-.1-.3l.1-.1h-.1c0-.2.1-.3.2-.4 0 .1 0 .1.1.1s0-.1.1-.1c0 .1.1.1.1.1l.1-.1s.1 0 .1.1c0 0 0-.1.1-.1l.1.1-.1.1s-.1-.1-.1 0c-.1.1 0 .1-.1.2h.1c0 .1.2.2.2.3v.2c-.1 0-.2.2-.2.1m-.6.5v-.1c.1-.1.1 0 0 .1h0m-.7.7c-.3.3-.5.2-.7-.3-.2-.4-.1-.5.1-.5h.4c0 .1.1.1.3.2.1.1.1.3.2.4-.1 0-.1 0-.3.2m-.3.5h-.2s0-.1.2-.1h.2s-.1.1-.2.1m-.7-1.5c0-.1.4-.2.6-.2.3 0 0 .2-.3.3-.2-.1-.3-.1-.3-.1m0-1.7c.1 0 .2-.1.3-.1.1.1.1.3.1.4h.1c0 .1-.1.2-.2.2-.2 0-.3 0-.3-.3-.1 0-.1-.2 0-.2m-.2-1s0-.1.1-.1c0 .1 0 .1-.1.1.1 0 .1 0 .1.1 0 0-.1 0-.1-.1m-.1-.5h0 0c.1 0 .1.1 0 0 .1.1 0 0 0 0m1.8-2c-.1 0-.2 0-.2-.1s.1-.2.2-.2.2.1.2.1l-.2.2m-.1 2.1v-.2c.1.1 0 .1 0 .2m0 .1c.1 0 .2-.1.2 0-.1.1-.1 0-.2 0m.3.5c0 .1 0 0 0 0-.1 0-.1.1-.1.1h-.1c0 .1-.1.1-.1.1v-.1-.1-.3s0-.1.1-.1c0 0 0 .1.1.1h0c0-.1 0 0 0 0 .1.1.2.2.1.3m0 .9c-.1-.1-.1-.1-.1-.2h.1s0-.1.1-.1c0-.1 0-.1.1-.2 0 0 0 .1.1.1-.2.2-.2.3-.3.4m-.4-3c.1 0 0-.1.1-.1 0 .1 0 .1-.1.1.1.1 0 0 0 0m.1 2.2h0 0m.5 1.1s-.1 0 0 0m-.6-3.4v-.1l.1-.3.2.2c-.1.1-.2.1-.3.2m.3.1s.1 0 .2-.1v.1h.1v.1c-.2 0-.2-.1-.3-.1.1.1.1.1 0 .2-.1 0 0-.2 0-.2m.5 6.5v.2c.1-.1 0 0-.1-.1 0-.1 0-.1.1-.1m.1.4c0-.1-.1-.1-.1-.2.1-.1.2.2.1.2m-.3 2.1c.1-.1.3-.2.5-.3.1 0 0 .2.1.3h.1v.1-.1s-.1 0-.1.1c0 0 .1 0 .1.1-.1-.1-.2-.1-.4.1-.2.1-.4.3-.5.3-.2-.1 0-.5.2-.6m2.8 2.1c.1.1 0 .2 0 .2l-.1-.1c0-.1 0-.1.1-.1m.2.2h-.1v-.1c0 .1.2 0 .1.1m0-1.1c.1-.2.2 0 .4 0v.1l-.1.1c0 .2.2.2.1.4 0-.1-.1-.1-.1-.1-.1 0 0-.1-.1-.1-.1-.1-.4-.1-.2-.4m1.3.8h-.2v.1-.2c0-.1-.1-.1-.1-.1h.1v-.1c-.1 0-.1-.1-.1-.2-.1 0-.1.1-.1.2-.1-.1-.1-.2-.1-.3.1-.1.1 0 .1.1.1 0 .1-.1.1-.1.1.1.2.2.3.2l-.1.1c0 .1.2.1.1.3m.2.8c0 .1 0 .1 0 0v.1.1h-.1s-.1 0-.1-.1c.2.1.2 0 .2-.1 0 .1 0 .1 0 0m.3.1c0 .1 0 0 0 0v.1c-.1 0-.2-.1-.2-.1.2.1.1 0 .2 0m.2.5s-.1.1 0 0h-.1-.1c0-.1-.1-.1-.1-.2l.1.1-.2-.2s.1 0 .1.1v.1l.1.1h.2m.1-.3c0 .1 0 .1 0 0-.1 0 0 0 0 0m0 .3c.1 0 .1.1 0 0 .1 0 .1-.1.1-.1 0 .1-.1.1 0 .2 0 0 .1 0 .1.1-.1 0 0 .1-.1 0v-.1l-.1.1-.1-.1c.1 0 .1-.1.1-.1-.1-.1-.1-.1-.2-.1 0-.1.1 0 .1-.1.1.1.2.2.1.2m.1-.2s.1.1 0 .1v-.1m.2.1c-.1.1-.1 0 0 0-.1 0-.1 0 0 0m-.1-.2c0-.1.1-.2.2-.1 0 .1 0 0 0 0 .1.1.2 0 .2 0v.1s-.1 0-.1.1l.1.1c0 .1-.1.1-.2.2l.1.1s0-.1.1 0v-.1h.2c0 .1-.2.2-.3.2l-.1-.1h-.2v-.1h-.1v.1-.1c.1-.3.1-.3.1-.4h-.1c0-.1.1-.1.1 0m.3-.3h0m.2.2c.1 0 .1.1 0 .1 0-.1.1 0 0-.1m-.1-.7h0 0c.2 0 .4 0 .6.1v.1c-.1 0 0 .2 0 .2h-.1v.1h-.1c.1-.1-.1-.3 0-.3 0 0 0-.1-.1-.1h-.2v.1s0 .1-.1 0v-.1c-.1.1-.1.1 0 .3h-.2v.1c-.1 0-.1-.1-.1-.1h.1v-.1c.3-.1.3-.1.2-.3.1.1 0 .1 0 0 0 .1 0 .1 0 0 0 .1 0 .1 0 0m3.6-.3h0 0m.5-.2v.1h-.1c.1 0 0-.1.1-.1-.2 0-.2.1-.3.1.2-.1.3-.1.3-.1m-6 .2s0-.1-.1-.1l.1-.1s.1.1 0 .2m.1 0v-.1c0-.1 0 0 0 .1 0-.1 0-.1 0 0m.3.9h0m.3.6c0-.1 0-.1.1-.1 0 0 0 .1.1 0-.1.1-.1 0-.2.1m.9.4s-.1 0 0 0c-.1 0-.1 0 0 0m.8-.3c0 .1 0 0 .1.1h-.1c.1 0 0 0 0-.1m.1-.2s0 .1 0 0m0-.5c.1.1 0 .1 0 0-.1 0 0 0 0 0m0-.4c.1 0 .1.1 0 0 .1.1 0 .1 0 0 0 .1.1.1 0 0m1.9-.1c-.1 0 0 0 0 0-.1 0-.1 0 0 0 0-.1 0-.1 0 0m.6.1s.1.1.1.2c-.1-.1-.1-.1-.1-.2m.1.3c0 .1 0 .1 0 0-.1 0 0 0 0 0m1 0h0c-.1 0 0 .1 0 0 0 .1-.1.1 0 0-.1 0-.1 0-.1-.1h.1v.1m-.1 0c0 .1 0 .1 0 0-.1 0-.1 0 0 0m0 .2c-.1 0-.1-.1 0 0 0-.1 0-.1 0 0m.2-.8c.1 0 0-.1 0 0h0c.1.1.1.2.1.3-.1-.1 0-.2-.1-.3m-.4.3c0-.2.2 0 .3.1h.1c0 .1 0 .1-.1.2 0-.1-.1-.1-.1-.1h-.1v.1h-.1l-.2-.2v-.1c.1-.1.2 0 .2 0m0-.1c0 .1-.1 0 0 0-.1 0 0 0 0 0m.2-.1h-.1c0-.1.1 0 .1 0m0-.1h0c0 .1.1.1 0 .1v-.1m-.5.1l.1-.1v.1c0 .1 0 .1-.1 0 .1 0 0 .1 0 0m0 .2c.1 0 .1.1.2.1 0 .1.1.1.1.1 0 .1-.1 0-.1.1l-.1-.1c0-.1-.1-.1-.1-.2-.1 0 0 0 0 0m-.2.1l.1.2s-.1 0-.1.1c0 0 .1 0 .1.1h.1v-.1c.1 0 .1.1.2 0 .1.1 0 .2 0 .1v.1s.1.1.1 0v.1s.1 0 .1-.1l-.1.1-.1.1c0-.1 0-.2-.1-.2s-.1 0-.1.1h-.1v.1-.1h.1c0-.1-.1 0-.1-.1s0 0 .1-.1c0-.1 0-.1-.1-.2v-.1l-.1-.1v-.1c-.1-.1-.1-.2-.1-.2l.1.1c-.1 0-.1.1 0 .2 0-.1 0-.1 0 0m.1-.2l-.1-.1s0-.1.1-.1c0 .1-.1.1 0 .2m-1.4 1.6c-.1-.2-.2-.2-.3-.3s0 .1-.2 0c.1 0 0-.1 0-.1s.1 0 .1-.1h.1c-.1-.1.1-.2-.1-.3 0 0-.1 0-.1-.1 0 0 .1.1.1 0v-.1c.1 0 .1 0 .2.1l.1.1h.2v.1s-.1 0 0 0c.1.1.1-.1.1-.1 0-.1.2.1.2-.1v.1h.1-.1c0-.1.1 0 .1 0v-.1c0-.1.2 0 0 0 0 0 0 .1.1.1v-.1h.2s0-.1 0 0c0 0 .1 0 .1.1.1-.1.3 0 .4-.1.1.1.1.1.2.1 0 0 0 .1.1.1h-.1c-.2.1-.4.2-.6.4h-.1v-.1-.1h-.1-.1v.2s0 .1-.1.1c-.3.2-.4.2-.5.2m-.7-.9h0c.1.1.1.1 0 0 0 .1 0 .1 0 0m-.1-.2c0-.1.1 0 0 0 .1-.1.1-.1 0 0 .1-.1.1-.1.2-.1 0 .1.1.1.1.1 0-.1 0-.2.2 0h-.1c.1 0 .2.2.3.1 0 .1.1 0 .1.1h-.2c-.1-.1-.2-.2-.3-.2 0 0 0 .1.1.1 0 .1 0 .2-.1.1 0 0 0-.1.1-.1 0-.1-.1 0-.1-.1v-.1c-.1-.1 0 0-.1 0v.1h-.2s.1.1 0 0h-.1c0-.1 0-.1.1 0m.8 0c-.1 0-.1 0 0 0-.1 0-.1 0 0 0m.3 0s-.1 0 0 0c-.1 0-.1 0 0 0-.1 0-.1 0 0 0m.5.1c-.1 0-.1 0-.1-.1.1 0 .1.1.1.1m0-.1c0-.1 0-.1 0 0 .1-.1.1 0 0 0m0-.1v-.1s.1 0 .1.1h-.1m-.2-.1c0 .1.1.1.1.2-.1-.1-.1-.1-.2 0v.1c-.1 0-.2-.1-.2 0v.1c-.1 0-.1-.1-.2-.1v-.1s-.1 0-.1-.1v.1c-.1 0-.1 0-.1.1-.1 0-.1 0-.2-.1 0 .1-.1-.1-.1-.1v-.1s.1 0 .1-.1v.1c-.1-.1-.1 0-.1 0 0 .1.1 0 .1.1h.1v.1c0 .1 0 0 .1 0 0 0-.1 0 0-.1-.1 0-.2-.1-.1-.1l.1.1h.1c0-.1.1-.1.2-.1v-.1c.1 0 0 .1.1.1h-.1l.2.2c.1-.2.2-.2.2-.2m0-.2s0 .1 0 0c-.1.1-.1 0 0 0-.1 0 0 0 0 0m-.1-.1c-.1-.1 0-.1 0 0h0m-1.6.1c-.1-.1-.1-.1 0 0 0-.1 0-.1 0 0 0-.1 0 0 0 0m-.2-.1l.1.1c0 .1-.1 0-.1 0v-.1m-.1.8c0 .1.1.1 0 0 .1.1 0 .1 0 0m0 .1l.1.1v.1s0-.1-.1-.2c0 .1 0 .1 0 0m.7.9c-.1 0-.1 0 0 0-.1-.1 0 0 0 0m-3.5-2.2h.1c0 .1-.1 0-.1.1-.1 0 0 0 0-.1m-.1.2h0c.1-.1.1 0 .1.1 0 0 0-.1-.1-.1m.2.6s0-.1-.1-.1c.1-.1.1.1.2-.1v.2s-.1-.1-.1 0m0 .3s0-.1 0 0c.1-.1.1-.1 0 0h0 0m-.1-.3s.1.1 0 .1-.1 0 0-.1c-.1 0-.1 0 0 0-.1 0-.1 0 0 0m.9.8s0-.1 0 0h0m-.2-.4c0 .1.1.2 0 .2 0 0 0-.1-.1-.1.1-.1 0-.1.1-.1m-.6-1.5c0 .1-.1.1-.1.1v-.1h.1c0 .1 0 0 0 0m3.6 2.3c-.1-.1 0 0 0 0-.1 0 0 .1 0 0l-.1.1h-.1v-.1c-.1-.1-.1 0-.2 0v.1h-.2v-.1l-.1-.1h.1s-.1-.1 0-.1c-.1-.1-.1 0-.1 0-.1 0-.2 0-.2.1h-.2v-.1l.1.1v-.1c.1 0 .1 0 .2-.1.1.1.1-.1.2 0 0 0-.1 0 0-.1-.1 0-.1 0-.2.1 0 0-.1 0-.1-.1.1 0 0-.1 0-.1h.2l.1.1h.1c0-.1-.1-.1-.1-.1h.1v-.1h-.1 0 .1l-.2-.2h-.2v.1c0 .1.1 0 .1 0s0-.1 0 0c0 0 .1 0 .1.1-.1.1-.3-.1-.3-.2.1 0 .1 0 .1-.1h0 .1v-.1s0 .1.1.1c.1.1 0 0 .1 0 0 .1 0 .1.1.2-.1 0-.1-.1-.2-.1l.1.1v.1l.2.2v.1h.2c0 .1 0 0 .1.1 0 0 0 .1 0 0l.2.2h-.1v.1-.1c0-.2.1-.2.1-.2 0 .1 0 0 .1 0 0 0-.1-.1 0-.1l.1.1v.1h-.1l.1.1c-.1 0-.2 0-.3.1v-.1m-1.2-1.2c0 .1 0 .1 0 0 0 .1 0 .1 0 0m.1.3c0 .1-.1 0-.2.1v-.1c.1 0 .1-.1.2 0m-.7.9c0-.1.1-.1 0 0h.1s0-.1-.1-.1c0 0-.1 0-.1-.1 0 0 .1-.1.1 0 0 0-.1 0 0 .1 0 .1.1 0 .1.1.1 0 .1-.1.2-.1s.1 0 .2.1h.1c0 .1-.1.1-.1.1.1 0 .1.1.2.2h-.1-.2c.1-.1.1-.3 0-.3s-.2.2-.2.3c0-.2-.1-.3-.2-.3m-.5-.5s0 .1 0 0c.1.1 0 .1.1.1 0 0-.1.1-.1 0 0 .1 0 0 0-.1m-.2.1h0v.1h-.1c0-.1 0-.1-.1-.1h.2s-.1 0 0 0m-.5-.6h0 .2c0 .1-.1.1-.2 0l-.1.1s-.1 0-.2-.1h.1v-.1h.1v.1.1s0-.1.1-.1m-.9-2.2c0 .1 0 0 0 0l-.2.2v-.1c.1 0 .1-.1.2-.1m-.1 1.4v-.1s.1.1.1 0v.2s-.1.1-.2.1c0-.1 0-.1.1-.2m-2.6-.6a.76.76 0 0 1-.4.2c-.2 0-.2 0-.1-.2s.1-.2.3-.2c.4-.1.4 0 .2.2m-.2-19.7c0-.1 0 0 .1-.1v.1c0 .1-.1 0-.1 0m17-.4c-.6-.6-1.3-1.4-1.5-1.7 0 0-.1-.1-.1-.2-.1-.1-.1-.2-.1-.2s-.2.2-.6.3c-.4.2-.9.3-.9.3-.8.3-1.7.5-2.5.6h-.2v-.1c-.1 0-.1 0-.2.1-.1-.1-.2 0-.3 0v-.1c-.1 0-.1.1-.2.1.1 0 .1.1.1.1-.1 0-.3.1-.4.1h.1c-.1-.1.1-.1.1-.2h-.1-.2c0 .1 0 .1-.1.2v.1c-.2 0-.3.1-.4.1s-.1 0-.1.1c0-.2.2-.2.2-.4h-.3c0 .1.1.2 0 .3h-.1c0-.1-.2-.1-.4 0h-.5-.8c-.1 0-.1-.1-.1-.1h-.3v-.1h.3c-.1-.1-.2 0-.4 0 0 .1-.1.1-.1.1v.1h-.1c-.3 0-.6.1-.8.1h-.1-.2l-.1.1c-.1 0-.1-.1-.1-.1h-.2v-.1c-.2 0-.4.1-.6 0 0-.1.1 0 0-.1h-.3c0 .1.2 0 .2.1-.1 0-.1.1-.1.1 0-.1-.2 0-.2 0-.1 0-.2.1-.3.1h-.4c0 .1 0 .1-.1.1s-.1.1-.2 0h.1c.1 0 .1-.1.1-.1h-.1c-.2.1-.3.2-.2.3-.1.1-.2 0-.3 0 0 0 0 .1-.1.1s-.1 0-.1-.1c.1-.1.1-.1.1-.2v-.1c.3-.1.4-.1.5-.2h-.4c-.2-.1-.2 0-.3.1h-.1-.2c-.1 0-.2 0-.3.1h-.1s0 .1-.1 0c-.1.1-.2.1-.2.2v.1h-.3v.1s-.1 0-.1-.1c-.2 0-.4 0-.7-.1v.1c-.2 0-.2.1-.4.1 0 .1.1 0 .1.1v.1c-.1 0-.1 0-.1.1 0-.1-.1 0-.1-.1.1 0 0-.1 0-.2h-.3v-.1c-.1.1-.2 0-.4.1 0 .1.1 0 .1.1v.2c-.1 0-.1 0-.1.1.2 0 .5-.2.6 0-.2.1-.2 0-.3 0s-.2.1-.3.1h-.1s0-.1-.1-.1c0 0 0-.1.1-.2-.1-.1-.2 0-.3 0 0-.7.1-1.2.1-1.5.1-.6-.1-.8-.8-.9-.5-.1-.7-.1-1.4 0-.8.1-1.8.4-1.8.5 0 0-.8.4-.9.6s-.1.6-.1 1.4v.6c-.2 0-.4.1-.6.2s-.6.1-.8.2l-2.7.3-1.9.2c-1.1.1-1.7.1-2 0-.5-.1-.7.1-.8.8-.1.5-.1.7 0 1.4.1.8.4 1.8.5 1.8 0 0 .2.2.3.4.2.5.2.5 1.7.4.5 0 3.1-.3 6.4-.7 0 1 .1 2 .2 3 .1 1.1.3 2 .4 2.7l.2 1.1c0 .2.3 1.3.4 1.4 0 .1.1.2.1.5 0 .2.1.4.2.6.1.3.2.6.3 1.1 0 .1.1.3.2.6.1.2.2.5.3.8l.9 1.6 1.3 2c0 .1.3.5.8.8.5.4 1.1.9 1.3 1.2a2.64 2.64 0 0 0 .9.6 6.78 6.78 0 0 0 1.9.8c.8.2 1.8.3 2.7.2a6.18 6.18 0 0 0 2.7-.9c.8-.4 1.4-.8 1.4-.8s.2 0 .3-.2l.5-.5c.3-.4.6-.8.5-.9-.1-.2-.8-.8-1.5-1.4-.1-.1-.2-.2-.3-.2v-.1h-.1s0-.1-.1-.2c0-.1-.1 0-.1-.1-.1 0-.1-.1-.2-.1v.1c.1.1 0 .1 0 .2.1.1.1 0 .1 0 .1.1.1.1.1.2-.6-.5-1.1-.9-1.4-1 0 0-.1-.1-.2-.1-.1-.1-.2-.1-.2-.1l-.1.1s-.1.1-.2.1l-.2.2c-.1.1-.2.1-.3.2s-.2.1-.3.2-.2.1-.2.1c-.1 0-.1.1-.2.1h-.1c-.4.2-.8.3-1.1.4-.4.1-.7 0-.9 0-.4-.1-.7-.1-.8 0 0 .1-.1.1 0 .2-.2 0-.3.4-.1.4.1 0 .2-.2.2-.3-.1.1-.1.3 0 .3s.1 0 .2-.1c0 .1 0 .1.1.1 0 0 0 .1-.1.1v-.1c-.1 0-.1.1-.2.1l-.1-.1c.1.2 0 .2-.1.2v.1s-.1 0-.1-.1h-.2v-.1c-.1.1-.1 0-.1 0-.1.1-.1 0-.2 0-.1.1.1.2.1.2-.1 0-.1.1-.2.1h0c0-.1-.1-.2.1-.3 0 0-.1 0-.1-.1.1 0 .1 0 .1-.1 0 0 0-.1-.1-.1l-.1.1c-.1-.1.1-.2.2-.2 0-.1.1-.1.1-.1v-.2c.1 0 .1-.1.1-.2-.1.1-.2 0-.2 0 .1 0 .1-.1.1-.1.3.2.5.2.6.1s0-.2-.2-.3-.3-.2-.3-.3c0 0-.3-.3-.7-.6-.2-.2-.4-.3-.5-.5-.2-.2-.3-.3-.4-.3s-.1 0-.2.1c0 0 0 .1.1.3 0 .1.1.1.1.2l.1.1-.1-.1c0 .1-.1.1 0 .2.3 0 0 .2 0 .4 0 .1.1 0 .1.1-.1 0-.1-.1-.2-.1.1 0 .1-.1.1-.1s0-.1-.1-.1h-.1v-.1c.2-.1.1-.2.2-.3h.1c0-.1-.1-.1-.1-.2 0 .1-.1.1-.1.2-.1 0-.1.1-.1.1-.1 0 0-.1-.1-.1.1 0 .1-.1.1-.1v-.2c0-.1-.1-.1-.1-.2h-.1c0-.1 0-.1-.1-.1 0 .1 0 .1-.1.2l.1.1h.1c0 .1-.1.2 0 .3-.1.1-.2 0-.2-.1h-.1c0 .1-.1.1 0 .1l-.1.1c0 .1.1.1.1.2h.1s0 .1-.1.1v.1c0-.1.2-.1.3-.1 0 .1 0 .1.1.1 0 .1-.1.1-.1.2 0-.1-.1 0-.1 0l.1-.1v-.1l-.1.1c.1.2.3.3.1.5h-.2s-.1.1 0 .1v-.1c0 .1 0 .1.1.1s0-.1.1-.1c0 .2.1.3.2.4l.1-.1c-.1.1-.1.3-.1.4-.2-.1-.3-.3-.4-.3-.4-.4-.8-.7-1-1 0-.1-.1-.3-.1-.4 0 0 0-.1.1-.1 0-.1-.1-.1-.1-.3 0 0-.1.1-.1 0-.1-.1.1-.2 0-.3h.2c0 .1.3.1.2.3.1 0 .1.1.1.2l.1-.1v-.2c.1 0 .1.1.2.1 0-.1.1-.2 0-.2s-.2 0-.1-.1c0 0 .1-.1.1 0v.1c.1 0 0-.1.1-.1s.1 0 .1.1c.1 0 .1 0 .2-.1h.1c-.2-.4-.5-.7-.7-1.1l-.1-.1s-.1 0-.1.1.1 0 .1 0v.3h.1c0 .1 0 .1-.1.1.1.2.1.4.2.6-.1.1-.1.2-.1.2-.1 0-.1.1-.2.1v-.2c-.1 0-.1 0-.1-.1 0 0 0 .1-.1.1 0 0 0-.1-.1-.1s0 .1-.1.1v-.1c0-.1.1-.2 0-.2h-.1c0 .1-.2 0-.2.2 0-.1-.1-.1 0-.2l.1-.1s-.1 0-.2.1c0 0-.1 0-.1.1 0 0 0-.1-.1-.1h.1v-.2c.1-.1.1 0 .1 0 0-.1 0-.1-.1-.2.1-.1.1-.2.2-.2-.1.1-.1 0-.2.1 0 0 0-.1-.1 0v.1c-.1 0-.2-.2 0-.2 0 .1 0 .1.1.1 0-.1-.1-.1-.1-.1h-.2l.1-.1s0 .1.1 0v-.1c.1 0 .1 0 .1-.1 0 0-.1 0-.1-.1-.1.1-.2.1-.2.2h-.1s.1 0 0-.1c-.1 0-.1.1-.1.1 0-.1 0 0-.1-.1-.1.1-.1.2-.1.3l.1-.1c.1 0 0 0 .1.1h.2v.2c-.1 0-.1.1-.1.1v.1c.1 0 .1.1.1.2.1 0 .1.2.1.3-.1-.1-.3-.2-.2-.4.1-.1 0-.2-.3-.3s-.3-.1-.1-.3c.3-.3.2-.4-.3-.3s-.6 0-.2-.1c.2 0 .4-.1.4-.2 0 0-.1 0-.3.1-.5.2-.6 0-.1-.2.3-.2.3-.2.2-.5-.1-.2-.1-.4 0-.5v-.1h.1c0 .1-.1.1-.1.2.1 0 0 .1.1.2h.1v.1s.1-.1.1 0c-.1.1-.1.2 0 .3v-.1h.1v.2s-.1.1-.1.2h.1c0 .1 0 .3.1.4.1 0 .1-.1.1-.1-.1.1-.1.1-.1.2h.1c-.1.1.1 0 .1.1.1-.1.1-.1.1-.2.1 0 .1.2.2.2.1-.1-.1-.2 0-.3h-.1v-.1h.1c.1-.1.1-.3.2-.4v.1c.2-.1-.1-.1 0-.2 0 .1.1 0 .1 0 0 .1 0 .1.1.1 0 0-.1 0 0 .1h.1c0 .1.1.2.2.3.2.1.4.2.4.1.1-.3-.2-.9-.5-.8 0-.1-.1-.3-.1-.4h-.1v.2c-.1 0-.1.1-.1.1s-.1 0 0-.1c-.1.1-.1.2-.2.3v-.1c-.1 0-.1-.1-.1-.1s0 .1-.1.1c.1 0 .1.1.2.2-.1 0 0 .1 0 .1s.1-.1.2 0c-.1.1-.1.1-.1.2h-.1v-.1l-.1.1c-.1-.1-.2-.1-.1-.2 0 0-.1 0 0-.1h-.1c0-.1.1-.1.1-.2.1 0 .1-.1.1 0 .1-.1 0-.1.1-.1 0-.1-.1 0-.1 0l-.1.1c0-.1-.1 0-.1-.1-.1.1-.1 0-.2 0 0-.1.1-.2.2-.1.1-.1 0-.2 0-.3h-.1c-.1.1-.1 0-.2 0 0-.1 0-.1-.1-.2 0-.1.1 0 .1 0v-.1s.1 0 .1.1l.1-.1s.1.1 0 .1c0 0 .2-.1.2 0 .1-.1 0-.2-.1-.2 0-.1-.1-.4-.2-.4v-.2c.1 0 .1 0 .2.1l-.1.1h.1c0 .1 0 .2.1.2-.1.1.1.1.1.3 0 0 0-.1.1-.1 0-.1 0-.2-.1-.2 0-.1 0-.1.1-.1 0 .1.1.1.1 0 .1.1 0 .2.1.3 0 0 0 .1-.1.1 0 .1 0 .1.1.2.1 0 .1-.1.1-.1.1 0 .1.1 0 .2h.1c0-.1-.1-.3-.1-.4v-.1c-.1-.4-.2-.8-.2-1.2.1-.1.1-.2 0-.2v-.3c0-.1-.1-.1-.1-.1h.1v-.1-.1c0-.1 0-.1-.1-.1v-.1.1h-.1s-.1-.1-.1 0c0 0-.1-.1 0-.2 0 .1.1.1.2.1v-.1c0-.2 0-.3-.1-.5-.1 0-.1-.1-.1-.1l.1.1c-.1-.3-.1-.5-.2-.8v.1.1h-.1c0-.1-.1-.1-.1-.1.1 0 .1-.1.2-.1-.1-.3-.1-.6-.1-.9.1 0 .1-.4.1-.9s-.1-1.1-.2-1.6c0-.3-.1-.7-.1-.9v-.9l11.8-1.5c1.2-.1 2.7-.3 4.2-.8l1.4-.4c.1.1.5-.1.9-.5l.3-.3c.1-.1.2-.2.2-.3.1-.2.2-.3.2-.4 1.1-.7.4-1.2-.3-1.9m-16.8 17.7c0 .1.1.1.1 0s0-.1-.1 0c0-.1 0-.1 0 0m2 .3c-.1-.1-.1-.1-.2.1s-.1.2.1.1c.2 0 .2-.1.1-.2m-.7-.8c-.1.1-.1.2 0 .4.1.1.3.2.4.1s.1-.2-.1-.4c0-.2-.2-.2-.3-.1m-1.2-2.2c0 .1.1.1.1 0 .1 0 .1-.1 0-.1l-.1.1m1 1.8c0 .1.1.1.1 0s0-.1-.1 0c0-.2 0-.1 0 0" fill="#ff4438"/><path d="M13.6 141.3c-2.9 0-5.2 1-7.1 2.9s-2.8 4.4-2.8 7.3.9 5.3 2.8 7.2 4.2 2.9 7 2.9 5.2-1 7-2.9c1.9-2 2.8-4.4 2.8-7.3 0-2.8-.9-5.2-2.8-7.1-1.8-2.1-4.1-3-6.9-3m-.1-3.6c3.9 0 7.1 1.3 9.7 3.9s3.9 5.9 3.9 9.8-1.3 7.2-3.9 9.8-5.9 3.9-9.9 3.9c-3.8 0-7-1.3-9.5-3.9S0 155.4 0 151.5c0-4 1.3-7.3 3.8-9.9 2.6-2.6 5.8-3.9 9.7-3.9m28.9 3.7h-3.7v8.4h3.9c1.5 0 2.6-.4 3.4-1.1s1.2-1.8 1.2-3.1c-.1-2.8-1.6-4.2-4.8-4.2M35 164.7V138h8c2.4 0 4.3.7 5.8 2.1 1.4 1.4 2.1 3.2 2.1 5.5 0 1.6-.4 2.9-1.1 4.1s-1.7 2.1-3 2.6-3.1.8-5.5.8h-2.7v11.6H35zm49.7-23.4h-1.1v8.4H85c1.8 0 3.1-.2 3.8-.5s1.2-.8 1.6-1.5a4.38 4.38 0 0 0 .6-2.3c0-.8-.2-1.6-.6-2.3s-1-1.2-1.8-1.4c-.9-.3-2.2-.4-3.9-.4M80 164.7V138h6.3c2.5 0 4.6.7 6.1 2s2.2 3.1 2.2 5.4c0 1.6-.4 2.9-1.1 4s-1.8 2-3.2 2.5c.8.6 7.1 12.7 7.1 12.7h-4.3s-5.6-10.9-6.1-11.2-1.3-.4-2.5-.4h-.9v11.6H80zm105-23.4c-2.9 0-5.2 1-7.1 2.9s-2.8 4.4-2.8 7.3.9 5.3 2.8 7.2 4.2 2.9 7 2.9 5.2-1 7-2.9c1.9-2 2.8-4.4 2.8-7.3 0-2.8-.9-5.2-2.8-7.1-1.8-2.1-4.1-3-6.9-3m-.1-3.6c3.9 0 7.1 1.3 9.7 3.9s3.9 5.9 3.9 9.8-1.3 7.2-3.9 9.8-5.9 3.9-9.9 3.9c-3.8 0-7-1.3-9.5-3.9s-3.8-5.8-3.8-9.7c0-4 1.3-7.3 3.8-9.9 2.6-2.6 5.8-3.9 9.7-3.9m96.7 3.3h-4.1v8.5h4.4c1.6 0 2.9-.4 3.7-1.1.9-.7 1.3-1.8 1.3-3.2 0-2.8-1.7-4.2-5.3-4.2m-8.1 23.7v-27.1h8.8c2.7 0 4.8.7 6.4 2.1s2.4 3.3 2.4 5.6c0 1.6-.4 3-1.2 4.2s-1.9 2.1-3.3 2.6-3.4.8-6.1.8h-2.9v11.7h-4.1zm-19.6 32.7c-1.4 0-2.6-.5-3.6-1.4-1-1-1.5-2.1-1.5-3.5s.5-2.6 1.5-3.5c1-1 2.2-1.4 3.6-1.4s2.6.5 3.6 1.4c1 1 1.4 2.1 1.4 3.5s-.5 2.6-1.4 3.5c-1 .9-2.2 1.4-3.6 1.4m5.6-10.5c-1.6-1.5-3.5-2.3-5.7-2.3s-4.1.8-5.7 2.3-2.4 3.4-2.4 5.6.8 4.1 2.4 5.6 3.5 2.3 5.7 2.3 4.2-.8 5.7-2.3c1.6-1.5 2.4-3.4 2.4-5.6s-.8-4.1-2.4-5.6m-85.7 10.5c-1.4 0-2.6-.5-3.6-1.4-1-1-1.5-2.1-1.5-3.5s.5-2.6 1.5-3.5c1-1 2.2-1.4 3.6-1.4s2.6.5 3.6 1.4c1 1 1.4 2.1 1.4 3.5s-.5 2.6-1.4 3.5c-1 .9-2.2 1.4-3.6 1.4m-.1-12.8c-2.2 0-4.1.8-5.7 2.3s-2.4 3.4-2.4 5.6.8 4.1 2.4 5.6 3.5 2.3 5.7 2.3 4.2-.8 5.7-2.3c1.6-1.5 2.4-3.4 2.4-5.6s-.8-4.1-2.4-5.6c-1.5-1.6-3.4-2.3-5.7-2.3" fill="#fff"/></svg>