<?xml version="1.0" encoding="utf-8"?>
<!-- Generator: Adobe Illustrator 24.0.0, SVG Export Plug-In . SVG Version: 6.00 Build 0)  -->
<svg version="1.1" id="Laag_1" xmlns="http://www.w3.org/2000/svg" xmlns:xlink="http://www.w3.org/1999/xlink" x="0px" y="0px"
	 width="33.5px" height="21.2px" viewBox="0 0 33.5 21.2" style="enable-background:new 0 0 33.5 21.2;" xml:space="preserve">
<style type="text/css">
	.st0{fill:#FFFFFF;}
</style>
<g>
	<path class="st0" d="M0,0.3h6.2v1.4H3.9v7H2.3v-7H0V0.3z"/>
	<path class="st0" d="M6.8,8.7v-6h1.5v1C8.7,3,9.3,2.6,10,2.6c0.3,0,0.5,0,0.7,0.1l-0.3,1.4C10.3,4,10.1,3.9,9.9,3.9
		C9,3.9,8.2,4.6,8.2,6.6v2.1H6.8z"/>
	<path class="st0" d="M14.5,2.6c1.9,0,3.1,1.4,3.1,3.1s-1.1,3.1-3.1,3.1s-3.1-1.4-3.1-3.1S12.5,2.6,14.5,2.6z M14.5,7.6
		c1,0,1.5-0.9,1.5-1.8c0-1-0.6-1.8-1.5-1.8S13,4.7,13,5.7C13,6.7,13.5,7.6,14.5,7.6z"/>
	<path class="st0" d="M20.5,2.7V8c0,1.9-0.8,2.8-2.5,3.2L17.6,10C18.5,9.8,19,9.4,19,8.2V2.7H20.5z M19.8,0c0.6,0,1,0.4,1,1
		s-0.4,1-1,1s-1-0.4-1-1S19.2,0,19.8,0z"/>
	<path class="st0" d="M22,4.3c0.2-1,1.1-1.7,2.3-1.7c1.4,0,2.5,0.6,2.5,2.5v3.6h-1.2L25.5,8c-0.4,0.5-1,0.9-1.9,0.9
		c-1,0-1.8-0.6-1.8-1.8c0-1.2,1.1-2,2.6-2h1V4.8c0-0.7-0.5-0.9-1.1-0.9c-0.4,0-0.9,0.1-1,0.7L22,4.3z M23.9,7.6
		c0.7,0,1.4-0.5,1.4-1.2V6.2h-1c-0.6,0-1,0.2-1,0.8C23.3,7.3,23.5,7.6,23.9,7.6z"/>
	<path class="st0" d="M29.7,2.7v1c0.4-0.6,1.1-1.1,1.9-1.1c1.1,0,1.9,0.6,1.9,1.8v4.3H32V4.9c0-0.7-0.4-1-0.9-1
		c-0.7,0-1.4,0.9-1.4,2.5v2.4h-1.5v-6H29.7z"/>
	<path class="st0" d="M14.4,12.7l-2.2,8.4h-1.6l-1.5-4.9l-1.5,4.9H6l-2.2-8.4h1.7l1.4,6.2l1.6-5.3h1.3l1.6,5.3l1.4-6.2H14.4z"/>
	<path class="st0" d="M14.8,16.7c0.2-1,1.1-1.7,2.3-1.7c1.4,0,2.5,0.6,2.5,2.5v3.6h-1.2l-0.2-0.8c-0.4,0.5-1,0.9-1.9,0.9
		c-1,0-1.8-0.6-1.8-1.8c0-1.2,1.1-2,2.6-2h1v-0.3c0-0.7-0.5-0.9-1.1-0.9c-0.4,0-0.9,0.1-1,0.7L14.8,16.7z M16.8,20
		c0.7,0,1.4-0.5,1.4-1.2v-0.1h-1c-0.6,0-1,0.2-1,0.8C16.2,19.7,16.4,20,16.8,20z"/>
	<path class="st0" d="M21.1,21.1v-6h1.5v1c0.4-0.7,1.1-1.1,1.8-1.1c0.3,0,0.5,0,0.7,0.1l-0.3,1.4c-0.2-0.1-0.4-0.2-0.6-0.2
		c-0.9,0-1.6,0.7-1.6,2.7v2.1H21.1z"/>
	<path class="st0" d="M29.9,16L29,16.8c-0.3-0.4-0.7-0.5-1-0.5c-0.3,0-0.6,0.2-0.6,0.5c0,0.3,0.2,0.5,0.6,0.6
		c0.8,0.3,2.2,0.6,2.2,1.9c0,1.1-0.8,2-2.1,2c-1.3,0-2.1-0.9-2.4-1.6l1.2-0.6c0.2,0.6,0.6,1,1.2,1c0.5,0,0.7-0.2,0.7-0.6
		c0-0.5-0.8-0.6-1.5-0.9c-0.7-0.3-1.2-0.7-1.2-1.6S26.8,15,28,15C28.8,15,29.5,15.4,29.9,16z"/>
</g>
</svg>
