<?xml version="1.0" encoding="utf-8"?>
<!-- Generator: Adobe Illustrator 24.3.0, SVG Export Plug-In . SVG Version: 6.00 Build 0)  -->
<svg version="1.1" id="Laag_1" xmlns="http://www.w3.org/2000/svg" xmlns:xlink="http://www.w3.org/1999/xlink" x="0px" y="0px"
	 width="546.9px" height="176px" viewBox="0 0 546.9 176" style="enable-background:new 0 0 546.9 176;" xml:space="preserve">
<style type="text/css">
	.st0{fill:#FFFFFF;}
</style>
<path class="st0" d="M250.4,68.1h8.9V43.7c0.2-5.2,4.5-9.4,9.8-9.4h5.3v-8c-1.8-0.9-2.7-0.9-4.5-0.9c-3.6,0-7.1,1.8-9.8,5.3
	l-0.4,0.4l-0.4-0.4l-0.9-4.5h-8V68.1z M223.3,33.4c5.3,0,9.8,3.6,10.3,8.2h-21.4C213.5,37,217,33.4,223.3,33.4 M242,49.4l0.9-2.7
	c0-12.9-8.9-21.4-19.6-21.4c-11.6,0-20.5,8.9-20.5,21.8S212.1,69,223.3,69c8.5,0,14.7-4.5,18.3-10.7l-7.5-3.6
	c-1.3,3.6-5,6.2-10.3,6.2c-7.6,0-12-5.3-12-11.6H242z M172,34.3h8.1v21.4c0,8,4.8,12.5,13.7,12.5l4.9-0.9v-8l-5.3,0.9
	c-2.7,0-4.5-1.8-4.5-4.5V34.3h9v-8h-9V8.4h-1.7l-7,8.9v8.9H172V34.3z M157.7,47.2c0,7.6-5.3,13.8-12.9,13.8c-8.5,0-13-6.2-13-13.8
	s4.5-13.8,13-13.8C152.4,33.4,157.7,39.6,157.7,47.2 M165.8,26.3h-8l-0.9,3.6l-0.4,0.4l-0.4-0.4c-2.7-2.7-7.1-4.5-11.6-4.5
	c-11.6,0-21.4,8.9-21.4,21.8S132.8,69,144.4,69c4.5,0,8.9-1.8,11.6-4.5l0.4-0.4l0.4,0.4l0.9,3.6h8V26.3z M98.5,33.4
	c5.3,0,9.8,3.6,10.3,8.2H87.3C88.7,37,92.2,33.4,98.5,33.4 M117.2,49.4l0.9-2.7c0-12.9-8.9-21.4-19.6-21.4
	C86.9,25.4,78,34.3,78,47.2S87.3,69,98.5,69c8.5,0,14.7-4.5,18.3-10.7l-7.5-3.6c-1.3,3.6-5,6.2-10.3,6.2c-7.6,0-12-5.3-12-11.6
	H117.2z M34.3,68.1h8.9V42.8c0.2-5.2,4.5-9.4,9.8-9.4c5.9,0,8.6,3.2,8.9,8.9v25.8h8.9V42.3c0-9.8-6.2-16.9-16.9-16.9
	c-3.6,0-8,1.8-9.8,4.5l-0.4,0.4l-0.4-0.4V0.4h-8.9V68.1z M-0.5,34.3h8.1v21.4c0,8,4.8,12.5,13.7,12.5l4.9-0.9v-8l-5.3,0.9
	c-2.7,0-4.5-1.8-4.5-4.5V34.3h9v-8h-9V8.4h-1.7l-7,8.9v8.9h-8.1V34.3z"/>
<path class="st0" d="M531.3,157.5c8.5,0,15.2-5.8,15.2-12.9s-5.1-11.1-12-12.6l-4.5-0.9c-3.2-0.6-5.3-2.1-5.3-4.8
	c0-2.7,2.7-4.6,6.2-4.6c3.6,0,6.2,2,6.2,4.6h8.9c-0.9-7.6-7.6-12.5-15.2-12.5c-7.1,0-14.7,4.5-14.7,12.5c0,6.7,4.9,11,12,12.7
	c1.4,0.4,2.9,0.7,4.5,1c3.6,0.6,5.3,2,5.3,4.5c0,2.7-2.2,5.1-6.7,5.1c-4.5,0-8-3.3-8.5-7.8l-8,3.1
	C516.6,152.6,522.9,157.5,531.3,157.5 M522.4,91.5H513l-8,19.6l7.9,3.6L522.4,91.5z M488.6,106.7h8.8v-9.8h-8.8V106.7z M484.6,168.4
	c2.7,0,4-1.8,4-4.5v-49.2h8.8V163c0,8-4.4,13.4-13.3,13.4l-4.5-0.9v-8L484.6,168.4z M469,135.6c0,7.6-5.3,13.8-12.9,13.8
	c-8.5,0-13-6.2-13-13.8c0-7.6,4.5-13.8,13-13.8C463.7,121.8,469,128.1,469,135.6 M477,88.8h-8.9v29.4l-0.4,0.4l-0.4-0.4
	c-2.7-2.7-7.2-4.5-11.6-4.5c-11.6,0-21.4,8.9-21.4,21.8c0,12.9,9.8,21.8,21.4,21.8c4.5,0,8.9-1.8,11.6-4.5l0.4-0.4l0.4,0.4l0.9,3.6
	h8V88.8z M369.2,156.6h8.9v-25.3c0.2-5.2,4.5-9.4,9.8-9.4c5.9,0,8.6,3.2,8.9,8.9v25.8h8.9v-25.8c0-9.8-6.2-16.9-16.9-16.9
	c-3.6,0-8,1.8-9.8,4.5l-0.4,0.4l-0.4-0.4l-0.9-3.6h-8V156.6z M342,121.8c5.3,0,9.8,3.6,10.3,8.2h-21.4
	C332.2,125.4,335.8,121.8,342,121.8 M360.7,137.9l0.9-2.7c0-12.9-8.9-21.4-19.6-21.4c-11.6,0-20.5,8.9-20.5,21.8
	c0,12.9,9.4,21.8,20.5,21.8c8.5,0,14.7-4.5,18.3-10.7l-7.5-3.6c-1.3,3.6-5,6.2-10.3,6.2c-7.6,0-12-5.3-12-11.6H360.7z M268,122.7
	h8.1v21.4c0,8,4.8,12.5,13.7,12.5l4.9-0.9v-8l-5.3,0.9c-2.7,0-4.5-1.8-4.5-4.5v-21.4h9v-8h-9V96.9h-1.7l-7,8.9v8.9H268V122.7z
	 M242.2,156.6h8.9v-24.4c0.2-5.2,4.5-9.4,9.8-9.4h5.3v-8c-1.8-0.9-2.7-0.9-4.5-0.9c-3.6,0-7.1,1.8-9.8,5.3l-0.4,0.4l-0.4-0.4
	l-0.9-4.5h-8V156.6z M199.4,135.6c0-7.6,4.5-13.8,12.9-13.8c8.5,0,12.9,6.2,12.9,13.8c0,7.6-4.5,13.8-12.9,13.8
	C203.8,149.5,199.4,143.2,199.4,135.6 M190.5,135.6c0,12.9,10.3,21.8,21.8,21.8c11.6,0,21.8-8.9,21.8-21.8
	c0-12.9-10.3-21.8-21.8-21.8C200.7,113.8,190.5,122.7,190.5,135.6 M150.4,135.6c0-7.6,5.3-13.8,12.9-13.8c8.5,0,12.9,6.2,12.9,13.8
	c0,7.6-4.5,13.8-12.9,13.8C155.7,149.5,150.4,143.2,150.4,135.6 M142.3,175.5h8.8V153l0.5-0.4l0.4,0.4c2.7,2.7,7.2,4.5,11.6,4.5
	c11.6,0,21.4-8.9,21.4-21.8c0-12.9-9.8-21.8-21.4-21.8c-4.5,0-8.9,1.8-11.6,4.5l-0.4,0.4l-0.5-0.4l-0.8-3.6h-8V175.5z M119.2,157.5
	c8.5,0,15.2-5.8,15.2-12.9s-5.1-11.1-12-12.6l-4.5-0.9c-3.2-0.6-5.3-2.1-5.3-4.8c0-2.7,2.7-4.6,6.2-4.6c3.6,0,6.2,2,6.2,4.6h8.9
	c-0.9-7.6-7.6-12.5-15.2-12.5c-7.1,0-14.7,4.5-14.7,12.5c0,6.7,4.9,11,12,12.7c1.4,0.4,2.9,0.7,4.5,1c3.6,0.6,5.3,2,5.3,4.5
	c0,2.7-2.2,5.1-6.7,5.1c-4.5,0-8-3.3-8.5-7.8l-8,3.1C104.4,152.6,110.7,157.5,119.2,157.5"/>
<path class="st0" d="M477.7,52.2c0,7.9-5.6,14.4-13.5,14.4c-8.8,0-13.5-6.5-13.5-14.4c0-7.9,4.7-14.4,13.5-14.4
	C472.2,37.8,477.7,44.3,477.7,52.2 M486.1,3.5h-9.3v30.6l-0.5,0.5l-0.5-0.5c-2.8-2.8-7.5-4.6-12.1-4.6c-12.1,0-22.3,9.3-22.3,22.7
	c0,13.5,10.2,22.7,22.3,22.7c4.6,0,9.3-1.9,12.1-4.6l0.5-0.5l0.5,0.5l0.9,3.7h8.4V3.5z M399.8,52.2c0-7.9,4.6-14.4,13.5-14.4
	s13.5,6.5,13.5,14.4c0,7.9-4.6,14.4-13.5,14.4S399.8,60.1,399.8,52.2 M390.5,52.2c0,13.5,10.7,22.7,22.7,22.7S436,65.7,436,52.2
	c0-13.5-10.7-22.7-22.7-22.7S390.5,38.7,390.5,52.2 M348.8,52.2c0-7.9,4.6-14.4,13.5-14.4c8.8,0,13.5,6.5,13.5,14.4
	c0,7.9-4.6,14.4-13.5,14.4C353.4,66.6,348.8,60.1,348.8,52.2 M339.5,52.2c0,13.5,10.7,22.7,22.7,22.7c12.1,0,22.7-9.3,22.7-22.7
	c0-13.5-10.7-22.7-22.7-22.7C350.2,29.5,339.5,38.7,339.5,52.2 M311.2,38.7h7.4V74h9.3V38.7h9.3v-8.4h-9.3V16.5
	c0-2.8,1.4-4.6,4.2-4.6l5.1,0.9V4.4l-4.6-0.9c-9.3,0-13.9,5.6-13.9,13.9v13h-7.4V38.7z"/>
</svg>
