<?xml version="1.0" encoding="utf-8"?>
<!-- Generator: Adobe Illustrator 24.0.0, SVG Export Plug-In . SVG Version: 6.00 Build 0)  -->
<svg version="1.1" id="Laag_1" xmlns="http://www.w3.org/2000/svg" xmlns:xlink="http://www.w3.org/1999/xlink" x="0px" y="0px"
	 width="413.8px" height="229.4px" viewBox="0 0 413.8 229.4" style="enable-background:new 0 0 413.8 229.4;" xml:space="preserve"
	>
<style type="text/css">
	.st0{fill:#FFFFFF;}
</style>
<g>
	<polygon class="st0" points="391.8,84.2 391.6,57.1 413.5,57.1 413.3,37.9 391.6,37.9 391.5,19.1 413.2,19.1 413.1,0.4 371.4,0.4 
		371.5,103.3 413.8,103.3 413.6,84.2 	"/>
	<polygon class="st0" points="24.2,61.7 19.1,0.8 0,0.8 13,103.2 31.7,103.2 53,0.8 33.9,0.8 	"/>
	<polygon class="st0" points="122.6,103.2 164.5,103.2 164.9,84.2 143.2,84.2 143.8,57.1 165.5,57.1 165.9,38 144.3,38.1 
		144.8,19.3 166.3,19.3 166.7,0.7 125.3,0.7 	"/>
	<polygon class="st0" points="172.9,103.2 214.9,103.2 215.2,84.2 193.5,84.2 194,57.1 215.7,57.1 216,38 194.3,38 194.7,19.3 
		216.3,19.3 216.6,0.6 175.1,0.7 	"/>
	<polygon class="st0" points="261.9,54.8 249.5,0.6 224.6,0.6 223,103.2 240.6,103.2 241.4,45.1 254.9,103.2 267.6,103.3 
		281.8,45.1 281.3,103.3 299.8,103.3 300.4,0.5 275.6,0.6 	"/>
	<path class="st0" d="M362.2,16.5c-0.1-1.2-0.2-2.3-0.3-3.4c-0.1-1-0.3-2-0.5-2.8s-0.4-1.6-0.7-2.2c-0.3-0.7-0.6-1.3-1-1.8
		c-0.4-0.6-0.8-1.1-1.3-1.5c-0.5-0.5-1-0.9-1.6-1.2c-0.6-0.4-1.2-0.7-1.9-0.9c-0.3-0.1-0.6-0.2-0.9-0.3s-0.6-0.2-0.8-0.3
		c-0.3-0.1-0.5-0.2-0.8-0.3c-0.3-0.1-0.5-0.2-0.7-0.2c-0.2-0.1-0.5-0.1-0.8-0.2s-0.5-0.1-0.8-0.2C350,1,349.7,1,349.4,0.9
		c-0.3,0-0.6-0.1-0.9-0.1s-0.6-0.1-0.9-0.1s-0.7-0.1-1-0.1c-0.4,0-0.7,0-1.1-0.1c-0.4,0-0.8,0-1.2,0c-0.4,0-0.8,0-1.3,0
		c-0.4,0-0.9,0-1.4,0s-1,0-1.5,0s-1.1,0-1.7,0h-28.8L309,103.3h31.3c0.5,0,1,0,1.5,0s0.9,0,1.4,0c0.4,0,0.9,0,1.2,0
		c0.4,0,0.8,0,1.1,0c0.4,0,0.7,0,1,0s0.7,0,1-0.1c0.3,0,0.6-0.1,0.9-0.1s0.6-0.1,0.8-0.1c0.3,0,0.5-0.1,0.8-0.1
		c0.2,0,0.5-0.1,0.7-0.2s0.5-0.1,0.7-0.2s0.4-0.2,0.6-0.2c0.2-0.1,0.4-0.2,0.6-0.3c0.2-0.1,0.4-0.2,0.6-0.3c0.2-0.1,0.5-0.2,0.7-0.3
		c0.2-0.1,0.5-0.2,0.7-0.4c0.6-0.3,1.1-0.6,1.7-1c0.5-0.4,1-0.8,1.4-1.2c0.4-0.4,0.8-0.9,1.2-1.4c0.4-0.5,0.7-1.1,0.9-1.7
		c0.1-0.2,0.2-0.5,0.4-0.7c0.1-0.2,0.2-0.5,0.3-0.7c0.1-0.2,0.2-0.5,0.3-0.7c0.1-0.2,0.2-0.5,0.3-0.7c0.1-0.2,0.2-0.4,0.2-0.7
		c0.1-0.2,0.1-0.5,0.2-0.7s0.1-0.5,0.2-0.7s0.1-0.5,0.2-0.8c0-0.3,0.1-0.5,0.1-0.8s0.1-0.6,0.1-0.8c0-0.3,0.1-0.6,0.1-0.9
		s0-0.6,0.1-1c0-0.3,0-0.7,0-1c0-0.4,0-0.7,0-1.1s0-0.8,0-1.2c0-0.4,0-0.9,0-1.3V20.6C362.3,19.1,362.3,17.8,362.2,16.5z
		 M342.3,75.6c0,0.8,0,1.5-0.1,2.2s-0.2,1.3-0.3,1.8c-0.1,0.6-0.3,1.1-0.5,1.5s-0.4,0.8-0.7,1.2c-0.3,0.3-0.6,0.6-0.9,0.9
		c-0.3,0.2-0.7,0.5-1.2,0.6c-0.4,0.2-0.9,0.3-1.4,0.4s-1.1,0.1-1.7,0.1h-6.2l0.2-65h6.4c0.6,0,1.2,0,1.8,0.1s1,0.1,1.4,0.3
		c0.4,0.1,0.8,0.3,1.1,0.4c0.3,0.2,0.6,0.4,0.8,0.6c0.2,0.2,0.4,0.5,0.6,0.8s0.3,0.7,0.4,1.2s0.2,0.9,0.2,1.5
		c0.1,0.5,0.1,1.1,0.1,1.8L342.3,75.6z"/>
	<path class="st0" d="M220.6,211.3c0-0.4,0-0.7,0-1.1c0-0.4,0-0.8,0-1.2s0-0.9,0-1.3l-2.2-61.6c-0.1-1.4-0.1-2.7-0.2-3.9
		s-0.3-2.3-0.4-3.4c-0.2-1-0.4-2-0.6-2.8c-0.2-0.8-0.5-1.6-0.8-2.3s-0.6-1.3-1-1.8c-0.4-0.6-0.8-1.1-1.3-1.5c-0.5-0.5-1-0.9-1.6-1.2
		c-0.6-0.4-1.2-0.7-1.9-0.9c-0.3-0.1-0.6-0.2-0.9-0.3c-0.3-0.1-0.6-0.2-0.8-0.3c-0.3-0.1-0.5-0.2-0.8-0.3s-0.5-0.2-0.8-0.2
		c-0.2-0.1-0.5-0.1-0.8-0.2s-0.5-0.1-0.8-0.2s-0.6-0.1-0.9-0.2c-0.3,0-0.6-0.1-0.9-0.1c-0.3,0-0.6-0.1-1-0.1c-0.3,0-0.7-0.1-1-0.1
		c-0.4,0-0.7,0-1.1-0.1c-0.4,0-0.8,0-1.2,0s-0.8,0-1.3,0s-0.9,0-1.4,0s-1,0-1.6,0c-0.5,0-1.1,0-1.7,0h-29l3.1,103.2h31.6
		c0.5,0,1,0,1.5,0s0.9,0,1.4,0c0.4,0,0.9,0,1.3,0c0.4,0,0.8,0,1.1,0c0.4,0,0.7,0,1,0s0.7,0,1-0.1c0.3,0,0.6-0.1,0.9-0.1
		c0.3,0,0.6-0.1,0.8-0.1c0.3,0,0.5-0.1,0.8-0.1c0.2,0,0.5-0.1,0.7-0.2c0.2-0.1,0.4-0.1,0.7-0.2c0.2-0.1,0.4-0.2,0.6-0.2
		c0.2-0.1,0.4-0.2,0.6-0.3c0.2-0.1,0.4-0.2,0.6-0.3c0.2-0.1,0.4-0.2,0.7-0.3c0.2-0.1,0.5-0.2,0.7-0.4c0.6-0.3,1.1-0.6,1.6-1
		s1-0.8,1.4-1.2s0.8-0.9,1.1-1.4s0.6-1.1,0.9-1.7c0.1-0.2,0.2-0.5,0.3-0.7s0.2-0.5,0.3-0.7s0.2-0.5,0.3-0.7s0.2-0.5,0.2-0.7
		c0.1-0.2,0.2-0.4,0.2-0.7c0.1-0.2,0.1-0.5,0.2-0.7c0.1-0.2,0.1-0.5,0.2-0.7c0.1-0.2,0.1-0.5,0.1-0.8s0.1-0.5,0.1-0.8
		s0.1-0.6,0.1-0.9s0-0.6,0-0.9s0-0.6,0-1C220.6,212.1,220.6,211.7,220.6,211.3z M200.1,203.6c0,0.7-0.1,1.3-0.2,1.8
		c-0.1,0.6-0.3,1.1-0.4,1.5c-0.2,0.4-0.4,0.8-0.6,1.2c-0.3,0.3-0.5,0.6-0.9,0.9c-0.3,0.2-0.7,0.5-1.2,0.6c-0.4,0.2-0.9,0.3-1.4,0.4
		c-0.5,0.1-1.1,0.1-1.7,0.1h-6.3l-2.2-65.3h6.5c0.6,0,1.2,0,1.8,0.1c0.5,0.1,1,0.1,1.5,0.3c0.4,0.1,0.8,0.3,1.2,0.4
		c0.3,0.2,0.6,0.4,0.8,0.6c0.2,0.2,0.4,0.5,0.6,0.8c0.2,0.3,0.3,0.7,0.5,1.2c0.1,0.4,0.2,0.9,0.3,1.5c0.1,0.5,0.1,1.1,0.1,1.8
		l1.7,50C200.1,202.2,200.1,202.9,200.1,203.6z"/>
	<polygon class="st0" points="136.8,126.1 138.2,180.2 118.4,126.1 100,126.1 102.3,229.2 120.6,229.2 119.3,174.4 140.3,229.2 
		158.3,229.2 155.3,126 	"/>
	<polygon class="st0" points="71.9,210.1 71.4,182.9 93.3,182.9 92.9,163.7 71.1,163.7 70.7,144.9 92.5,144.8 92.1,126.1 
		50.2,126.2 51.9,229.2 94.3,229.2 93.9,210.1 	"/>
	<polygon class="st0" points="21.2,210.1 20.8,182.9 42.7,182.9 42.4,163.7 20.6,163.7 20.3,144.9 42.1,144.9 41.8,126.2 0,126.2 
		1.1,229.2 43.4,229.2 43.1,210.1 	"/>
	<path class="st0" d="M101,52.9c1.1-0.4,2-0.8,2.9-1.3s1.7-1,2.4-1.6c0.7-0.6,1.3-1.2,1.8-1.9s1-1.5,1.4-2.3c0.4-0.9,0.7-1.8,1-2.8
		s0.5-2.1,0.7-3.3s0.3-2.5,0.3-3.9l0.5-16.7c0-1.1,0-2.1,0-3.1s-0.1-1.9-0.2-2.7s-0.3-1.6-0.4-2.4c-0.2-0.7-0.4-1.4-0.6-2
		c-0.3-0.6-0.5-1.2-0.9-1.7c-0.3-0.5-0.7-1-1.1-1.5s-0.8-0.9-1.3-1.3s-1-0.8-1.5-1.1c-0.2-0.1-0.5-0.2-0.7-0.3s-0.5-0.2-0.7-0.3
		s-0.5-0.2-0.7-0.3s-0.5-0.2-0.7-0.3s-0.5-0.2-0.8-0.2c-0.3-0.1-0.5-0.1-0.8-0.2s-0.6-0.1-0.9-0.2s-0.6-0.1-1-0.2
		c-0.3,0-0.7-0.1-1.1-0.1s-0.7-0.1-1.1-0.1C97,1,96.6,1,96.2,1s-0.9-0.1-1.3-0.1s-0.9,0-1.4-0.1c-0.5,0-1,0-1.6,0s-1.1,0-1.7,0
		s-1.2,0-1.9,0H59.9l-3.5,102.4h20.4l1.5-46.7l16.4,46.7h21.1L97.6,53.8C98.8,53.6,100,53.2,101,52.9z M92.1,27.4L92,29.6
		c0,0.7-0.1,1.3-0.1,1.9c-0.1,0.6-0.2,1.1-0.3,1.6c-0.1,0.5-0.3,0.9-0.5,1.3c-0.2,0.4-0.4,0.7-0.7,1c-0.3,0.3-0.5,0.6-0.9,0.8
		c-0.3,0.2-0.7,0.4-1.2,0.6c-0.4,0.2-0.9,0.3-1.4,0.3c-0.5,0.1-1.1,0.1-1.7,0.1h-6.4l0.6-17.5h7.4c0.6,0,1.1,0,1.5,0.1
		c0.5,0.1,0.9,0.2,1.2,0.3s0.7,0.3,1,0.5s0.5,0.4,0.7,0.7c0.2,0.2,0.3,0.6,0.4,0.9c0.1,0.4,0.2,0.8,0.3,1.3c0.1,0.5,0.1,1.1,0.2,1.7
		C92.1,26,92.1,26.7,92.1,27.4z"/>
</g>
</svg>
