<?xml version="1.0" encoding="utf-8"?>
<!-- Generator: Adobe Illustrator 24.3.0, SVG Export Plug-In . SVG Version: 6.00 Build 0)  -->
<svg version="1.1" id="Laag_1" xmlns="http://www.w3.org/2000/svg" xmlns:xlink="http://www.w3.org/1999/xlink" x="0px" y="0px"
	 width="111.5px" height="55.6px" viewBox="0 0 111.5 55.6" style="enable-background:new 0 0 111.5 55.6;" xml:space="preserve">
<style type="text/css">
	.st0{fill:#FFFFFF;}
</style>
<g>
	<path class="st0" d="M4.4,19.2H1.2v2.9h3.5V23H0.2v-8.1h4.4v0.9H1.2v2.6h3.1L4.4,19.2C4.3,19.2,4.4,19.2,4.4,19.2z"/>
	<path class="st0" d="M6.1,14.5h1.1V23H6.1V14.5z"/>
	<path class="st0" d="M10.1,15.6c0,0.4-0.3,0.6-0.7,0.6s-0.6-0.3-0.6-0.6c0-0.4,0.3-0.7,0.7-0.7C9.8,14.9,10.1,15.2,10.1,15.6z
		 M8.9,23v-5.8h1V23H8.9z"/>
	<path class="st0" d="M11.6,21.9c0.3,0.2,0.9,0.4,1.4,0.4c0.8,0,1.1-0.4,1.1-0.9s-0.3-0.8-1.1-1.1c-1-0.4-1.5-0.9-1.5-1.6
		c0-0.9,0.8-1.7,2-1.7c0.6,0,1.1,0.2,1.4,0.4l-0.3,0.8c-0.2-0.1-0.6-0.3-1.2-0.3c-0.6,0-1,0.4-1,0.8c0,0.5,0.3,0.7,1.1,1
		c1,0.4,1.5,0.9,1.5,1.8c0,1-0.8,1.7-2.2,1.7c-0.6,0-1.2-0.2-1.6-0.4L11.6,21.9z"/>
	<path class="st0" d="M17,20.3c0,1.4,0.9,2,2,2c0.8,0,1.2-0.1,1.6-0.3l0.2,0.8c-0.4,0.2-1,0.4-1.9,0.4c-1.8,0-2.9-1.2-2.9-2.9
		s1-3.1,2.7-3.1c1.9,0,2.4,1.7,2.4,2.7c0,0.2,0,0.4,0,0.5H17V20.3z M20.1,19.6c0-0.7-0.3-1.7-1.5-1.7c-1.1,0-1.5,1-1.6,1.7H20.1z"/>
	<path class="st0" d="M26.3,14.8c-0.3,1-0.8,2.3-1.1,2.8l-0.7,0.1c0.3-0.7,0.6-2,0.7-2.8L26.3,14.8z"/>
	<path class="st0" d="M28.6,15.5v1.7h1.5V18h-1.5v3.1c0,0.7,0.2,1.1,0.8,1.1c0.3,0,0.5,0,0.6-0.1v0.8c-0.1,0.2-0.4,0.2-0.9,0.2
		s-0.9-0.2-1.1-0.4c-0.3-0.3-0.4-0.8-0.4-1.5V18h-0.9v-0.8h0.9v-1.4L28.6,15.5z"/>
	<path class="st0" d="M35,14.9v3.4h3.9v-3.4h1V23h-1v-3.8H35V23h-1v-8.1H35z"/>
	<path class="st0" d="M44.9,23l-0.1-0.7l0,0c-0.3,0.5-0.9,0.9-1.8,0.9c-1.2,0-1.8-0.8-1.8-1.7c0-1.4,1.2-2.2,3.5-2.2v-0.1
		c0-0.5-0.1-1.3-1.3-1.3c-0.5,0-1.1,0.2-1.5,0.4l-0.2-0.7c0.5-0.3,1.2-0.5,1.9-0.5c1.8,0,2.2,1.2,2.2,2.4v2.2c0,0.5,0,1,0.1,1.4
		L44.9,23L44.9,23z M44.8,20.1c-1.2,0-2.5,0.2-2.5,1.3c0,0.7,0.5,1,1,1c0.8,0,1.2-0.5,1.4-1c0-0.1,0.1-0.2,0.1-0.3V20.1z"/>
	<path class="st0" d="M47.5,19c0-0.7,0-1.3,0-1.8h0.9v1.1l0,0c0.3-0.8,0.9-1.3,1.6-1.3c0.1,0,0.2,0,0.3,0v1c-0.1,0-0.2,0-0.4,0
		c-0.7,0-1.3,0.6-1.4,1.4c0,0.1,0,0.3,0,0.5V23h-1C47.5,23,47.5,19,47.5,19z"/>
	<path class="st0" d="M53,15.5v1.7h1.5V18H53v3.1c0,0.7,0.2,1.1,0.8,1.1c0.3,0,0.5,0,0.6-0.1v0.8c-0.2,0.2-0.5,0.2-0.9,0.2
		c-0.5,0-0.9-0.2-1.1-0.4c-0.3-0.3-0.4-0.8-0.4-1.5V18h-0.9v-0.8h0.8v-1.4L53,15.5z"/>
	<path class="st0" d="M54.9,24.5c0.3-0.7,0.6-2,0.7-2.9l1.2-0.1c-0.3,1-0.8,2.4-1.1,2.9L54.9,24.5z"/>
	<path class="st0" d="M2.8,28.1h1v5.4c0,2.1-1.1,2.8-2.4,2.8c-0.4,0-0.9-0.1-1.1-0.2l0.2-0.9c0.2,0.1,0.5,0.2,0.9,0.2
		c0.9,0,1.5-0.4,1.5-2L2.8,28.1C2.9,28.1,2.8,28.1,2.8,28.1z"/>
	<path class="st0" d="M10.9,33.3c0,2.1-1.5,3.1-2.9,3.1c-1.6,0-2.8-1.2-2.8-3c0-1.9,1.3-3.1,2.9-3.1C9.7,30.3,10.9,31.5,10.9,33.3z
		 M6.2,33.3c0,1.3,0.7,2.2,1.8,2.2c1,0,1.8-0.9,1.8-2.3c0-1-0.5-2.2-1.7-2.2C6.8,31.1,6.2,32.2,6.2,33.3z"/>
	<path class="st0" d="M12.2,32.2c0-0.7,0-1.3,0-1.8h0.9v1.1l0,0c0.3-0.8,0.9-1.3,1.6-1.3c0.1,0,0.2,0,0.3,0v1c-0.1,0-0.2,0-0.4,0
		c-0.7,0-1.3,0.6-1.4,1.4c0,0.1,0,0.3,0,0.5v3.1h-1C12.2,36.2,12.2,32.2,12.2,32.2z"/>
	<path class="st0" d="M21,30.4c0,0.4,0,0.9,0,1.6v3.4c0,1.3-0.3,2.1-0.8,2.7c-0.6,0.5-1.4,0.7-2.1,0.7s-1.5-0.2-1.9-0.5l0.3-0.8
		c0.4,0.2,1,0.5,1.7,0.5c1.1,0,1.9-0.6,1.9-2v-0.6l0,0c-0.3,0.5-0.9,1-1.8,1c-1.4,0-2.5-1.2-2.5-2.8c0-2,1.3-3.1,2.6-3.1
		c1,0,1.6,0.5,1.8,1l0,0v-0.9H21V30.4z M19.9,32.7c0-0.2,0-0.3-0.1-0.5c-0.2-0.6-0.7-1.1-1.5-1.1c-1,0-1.7,0.9-1.7,2.2
		c0,1.1,0.6,2.1,1.7,2.1c0.6,0,1.2-0.4,1.5-1.1c0.1-0.2,0.1-0.4,0.1-0.6V32.7z"/>
	<path class="st0" d="M26.3,28.1v3.4h3.9v-3.4h1.1v8.1h-1.1v-3.8h-3.9v3.8h-1v-8.1H26.3z"/>
	<path class="st0" d="M33.7,33.5c0,1.4,0.9,2,2,2c0.8,0,1.2-0.1,1.6-0.3l0.2,0.8c-0.4,0.2-1,0.4-1.9,0.4c-1.8,0-2.9-1.2-2.9-2.9
		s1-3.1,2.7-3.1c1.9,0,2.4,1.7,2.4,2.7c0,0.2,0,0.4,0,0.5L33.7,33.5L33.7,33.5z M36.8,32.8c0-0.7-0.3-1.7-1.5-1.7
		c-1.1,0-1.5,1-1.6,1.7H36.8z"/>
	<path class="st0" d="M39.1,32c0-0.6,0-1.1,0-1.6H40v0.9l0,0c0.3-0.6,0.9-1.1,1.8-1.1c0.8,0,1.4,0.5,1.6,1.2l0,0
		c0.2-0.3,0.4-0.6,0.6-0.8c0.3-0.3,0.7-0.4,1.3-0.4c0.8,0,1.9,0.5,1.9,2.5v3.4h-1v-3.3c0-1.1-0.4-1.8-1.3-1.8c-0.6,0-1.1,0.4-1.2,1
		c0,0.1-0.1,0.3-0.1,0.5v3.6h-1v-3.5c0-0.9-0.4-1.6-1.2-1.6c-0.7,0-1.1,0.5-1.3,1.1C40,32.3,40,32.4,40,32.6v3.5h-1L39.1,32L39.1,32
		z"/>
	<path class="st0" d="M49.1,32.3c0-0.7,0-1.3,0-1.9H50v1l0,0c0.4-0.7,1.1-1.1,2.1-1.1c1.4,0,2.5,1.2,2.5,3c0,2.1-1.3,3.1-2.6,3.1
		c-0.8,0-1.4-0.3-1.8-0.9l0,0v3.2h-1L49.1,32.3L49.1,32.3z M50.2,33.9c0,0.2,0,0.3,0,0.4c0.2,0.7,0.8,1.2,1.6,1.2
		c1.1,0,1.8-0.9,1.8-2.2c0-1.2-0.6-2.2-1.7-2.2c-0.7,0-1.4,0.5-1.6,1.3c0,0.1-0.1,0.3-0.1,0.4C50.2,32.8,50.2,33.9,50.2,33.9z"/>
	<path class="st0" d="M56.5,33.5c0,1.4,0.9,2,2,2c0.8,0,1.2-0.1,1.6-0.3l0.2,0.8c-0.4,0.2-1,0.4-1.9,0.4c-1.8,0-2.9-1.2-2.9-2.9
		s1-3.1,2.7-3.1c1.9,0,2.4,1.7,2.4,2.7c0,0.2,0,0.4,0,0.5L56.5,33.5L56.5,33.5z M59.6,32.8c0-0.7-0.3-1.7-1.5-1.7
		c-1.1,0-1.5,1-1.6,1.7H59.6z"/>
	<path class="st0" d="M61.9,32c0-0.6,0-1.1,0-1.6h0.9l0.1,1l0,0c0.3-0.6,1-1.1,1.9-1.1c0.8,0,2.1,0.5,2.1,2.5v3.5h-1.1V33
		c0-0.9-0.3-1.7-1.3-1.7c-0.7,0-1.2,0.5-1.4,1.1c0,0.1-0.1,0.3-0.1,0.5v3.5h-1.1V32z"/>
	<path class="st0" d="M69.8,28.8c0,0.4-0.3,0.6-0.7,0.6s-0.6-0.3-0.6-0.6c0-0.4,0.3-0.7,0.7-0.7C69.5,28.1,69.8,28.4,69.8,28.8z
		 M68.6,36.2v-5.8h1.1v5.8H68.6z"/>
	<path class="st0" d="M76.3,34.6c0,0.6,0,1.1,0,1.6h-0.9l-0.1-0.9l0,0c-0.3,0.5-0.9,1.1-1.9,1.1c-0.9,0-2-0.5-2-2.5v-3.4h1.1v3.2
		c0,1.1,0.3,1.8,1.3,1.8c0.7,0,1.2-0.5,1.4-1c0.1-0.2,0.1-0.3,0.1-0.5v-3.6h1.1L76.3,34.6C76.4,34.6,76.3,34.6,76.3,34.6z"/>
	<path class="st0" d="M77.9,35.1c0.3,0.2,0.9,0.4,1.4,0.4c0.8,0,1.1-0.4,1.1-0.9s-0.3-0.8-1.1-1.1c-1-0.4-1.5-0.9-1.5-1.6
		c0-0.9,0.8-1.7,2-1.7c0.6,0,1.1,0.2,1.4,0.4l-0.3,0.8c-0.2-0.1-0.6-0.3-1.2-0.3s-1,0.4-1,0.8c0,0.5,0.3,0.7,1.1,1
		c1,0.4,1.5,0.9,1.5,1.8c0,1-0.8,1.7-2.2,1.7c-0.6,0-1.2-0.2-1.6-0.4L77.9,35.1z"/>
	<path class="st0" d="M1.4,42.5v8.1h-1v-8.1C0.4,42.5,1.4,42.5,1.4,42.5z"/>
	<path class="st0" d="M3.3,46.4c0-0.6,0-1.1,0-1.6h0.9l0.1,1l0,0c0.3-0.6,1-1.1,1.9-1.1c0.8,0,2.1,0.5,2.1,2.5v3.5H7.2v-3.3
		c0-0.9-0.3-1.7-1.3-1.7c-0.7,0-1.2,0.5-1.4,1.1c0,0.1-0.1,0.3-0.1,0.5v3.5H3.3V46.4L3.3,46.4z"/>
	<path class="st0" d="M10.6,47.9c0,1.4,0.9,2,2,2c0.8,0,1.2-0.1,1.6-0.3l0.2,0.8c-0.4,0.2-1,0.4-1.9,0.4c-1.8,0-2.9-1.2-2.9-2.9
		s1-3.1,2.7-3.1c1.9,0,2.4,1.7,2.4,2.7c0,0.2,0,0.4,0,0.5L10.6,47.9L10.6,47.9z M13.7,47.2c0-0.7-0.3-1.7-1.5-1.7
		c-1.1,0-1.5,1-1.6,1.7H13.7z"/>
	<path class="st0" d="M15.3,50l2.6-3.4c0.3-0.3,0.5-0.6,0.8-0.9l0,0h-3.1v-0.9H20v0.7l-2.6,3.4c-0.2,0.3-0.5,0.6-0.7,0.9l0,0h3.4
		v0.8h-4.7L15.3,50L15.3,50z"/>
	<path class="st0" d="M28.7,42.1v7c0,0.5,0,1.1,0,1.5h-0.9v-1l0,0c-0.3,0.6-1,1.1-2,1.1c-1.4,0-2.5-1.2-2.5-3c0-1.9,1.2-3.1,2.6-3.1
		c0.9,0,1.5,0.4,1.8,0.9l0,0V42L28.7,42.1L28.7,42.1z M27.6,47.2c0-0.1,0-0.3,0-0.4c-0.2-0.7-0.7-1.2-1.5-1.2c-1.1,0-1.7,1-1.7,2.2
		s0.6,2.1,1.7,2.1c0.7,0,1.4-0.5,1.5-1.3c0-0.1,0-0.3,0-0.5V47.2z"/>
	<path class="st0" d="M31,47.9c0,1.4,0.9,2,2,2c0.8,0,1.2-0.1,1.6-0.3l0.2,0.8c-0.4,0.2-1,0.4-1.9,0.4c-1.8,0-2.9-1.2-2.9-2.9
		s1-3.1,2.7-3.1c1.9,0,2.4,1.7,2.4,2.7c0,0.2,0,0.4,0,0.5L31,47.9L31,47.9z M34.1,47.2c0-0.7-0.3-1.7-1.5-1.7c-1.1,0-1.5,1-1.6,1.7
		H34.1z"/>
	<path class="st0" d="M39,42.6c0.5-0.1,1.2-0.2,1.9-0.2c1,0,1.7,0.2,2.2,0.6c0.4,0.3,0.7,0.8,0.7,1.4c0,0.8-0.5,1.5-1.4,1.8l0,0
		c0.8,0.2,1.7,0.8,1.7,2c0,0.7-0.3,1.2-0.7,1.6c-0.6,0.5-1.5,0.8-2.8,0.8c-0.7,0-1.3,0-1.6-0.1L39,42.6L39,42.6z M40.1,46H41
		c1.1,0,1.8-0.6,1.8-1.4c0-0.9-0.7-1.3-1.8-1.3c-0.5,0-0.8,0-0.9,0.1V46z M40.1,49.8c0.2,0,0.5,0,0.9,0c1.1,0,2.1-0.4,2.1-1.6
		c0-1.1-0.9-1.6-2.1-1.6h-0.9V49.8z"/>
	<path class="st0" d="M45.5,46.6c0-0.7,0-1.3,0-1.8h0.9v1.1l0,0c0.3-0.8,0.9-1.3,1.6-1.3c0.1,0,0.2,0,0.3,0v1c-0.1,0-0.2,0-0.4,0
		c-0.7,0-1.3,0.6-1.4,1.4c0,0.1,0,0.3,0,0.5v3.1h-1L45.5,46.6L45.5,46.6z"/>
	<path class="st0" d="M52.6,50.6l-0.1-0.7l0,0c-0.3,0.5-0.9,0.9-1.8,0.9c-1.2,0-1.8-0.8-1.8-1.7c0-1.4,1.2-2.2,3.5-2.2v-0.1
		c0-0.5-0.1-1.3-1.3-1.3c-0.5,0-1.1,0.2-1.5,0.4l-0.2-0.7c0.5-0.3,1.2-0.5,1.9-0.5c1.8,0,2.2,1.2,2.2,2.4v2.2c0,0.5,0,1,0.1,1.4
		L52.6,50.6L52.6,50.6z M52.4,47.7c-1.2,0-2.5,0.2-2.5,1.3c0,0.7,0.5,1,1,1c0.8,0,1.2-0.5,1.4-1c0-0.1,0.1-0.2,0.1-0.3V47.7z"/>
	<path class="st0" d="M60,49c0,0.6,0,1.1,0,1.6h-0.9L59,49.7l0,0c-0.3,0.5-0.9,1.1-1.9,1.1c-0.9,0-2-0.5-2-2.5v-3.4h1.1v3.2
		c0,1.1,0.3,1.8,1.3,1.8c0.7,0,1.2-0.5,1.4-1c0.1-0.2,0.1-0.3,0.1-0.5v-3.6h1.1L60,49L60,49z"/>
	<path class="st0" d="M62.2,44.8l0.8,3c0.2,0.6,0.3,1.2,0.4,1.8l0,0c0.1-0.6,0.3-1.2,0.5-1.8l0.9-3h0.9l0.9,2.9
		c0.2,0.7,0.4,1.3,0.5,1.9l0,0c0.1-0.6,0.3-1.2,0.4-1.9l0.8-2.9h1l-1.9,5.8h-1l-0.9-2.8c-0.2-0.6-0.4-1.2-0.5-1.9l0,0
		c-0.1,0.7-0.3,1.3-0.5,1.9l-0.9,2.8h-1l-1.8-5.8C60.8,44.8,62.2,44.8,62.2,44.8z"/>
</g>
<g>
	<path class="st0" d="M1,8.1h4.3V9H0V0.7h5.1v0.9h-4v2.7h3.6v0.9H1V8.1z"/>
	<path class="st0" d="M8.9,5.4l1.6-2.3h1.1L9.4,6l2.2,3h-1L8.9,6.6l0,0L7.1,9h-1l2.2-3L6.2,3.1h1.1L8.9,5.4L8.9,5.4z"/>
	<path class="st0" d="M17.9,6c0,0.4,0,0.8-0.1,1.1c-0.1,0.3-0.2,0.6-0.3,0.8c-0.1,0.2-0.3,0.4-0.5,0.6c-0.2,0.2-0.4,0.3-0.6,0.4
		S16,9.1,15.8,9.1c-0.2,0-0.4,0.1-0.6,0.1c-0.4,0-0.7-0.1-0.9-0.2c-0.3-0.1-0.5-0.3-0.7-0.5l0,0v3.4h-0.9V3.1h0.7l0.2,0.7l0,0
		c0.1-0.1,0.2-0.2,0.3-0.3s0.2-0.2,0.3-0.3S14.5,3,14.7,3c0.2-0.1,0.4-0.1,0.7-0.1s0.7,0.1,1,0.2c0.3,0.1,0.6,0.3,0.8,0.5
		c0.2,0.2,0.4,0.6,0.5,1C17.9,5,17.9,5.4,17.9,6z M16.9,6c0-0.3,0-0.7-0.1-0.9c-0.1-0.3-0.2-0.5-0.3-0.7S16.2,4.1,16,4
		c-0.2-0.1-0.5-0.2-0.7-0.2s-0.4,0-0.5,0.1C14.6,4,14.5,4,14.4,4.1c-0.1,0.1-0.2,0.2-0.3,0.3c-0.3,0-0.4,0.1-0.5,0.2v3.1
		c0.2,0.2,0.4,0.4,0.7,0.5s0.5,0.2,0.8,0.2c0.2,0,0.4,0,0.6-0.1s0.4-0.2,0.6-0.4s0.3-0.4,0.4-0.7S16.9,6.5,16.9,6z"/>
	<path class="st0" d="M24.7,6.1c0,0.5-0.1,0.9-0.2,1.3c-0.1,0.4-0.3,0.7-0.6,1c-0.2,0.2-0.5,0.4-0.8,0.5c-0.3,0.1-0.7,0.2-1.2,0.2
		c-0.4,0-0.8-0.1-1.2-0.2c-0.3-0.1-0.6-0.4-0.9-0.6c-0.2-0.3-0.4-0.6-0.6-1C19.1,6.9,19,6.5,19,6s0.1-0.9,0.2-1.3s0.3-0.7,0.6-1
		s0.5-0.5,0.9-0.6C21,3,21.4,2.9,21.9,2.9c0.4,0,0.8,0.1,1.2,0.2c0.3,0.1,0.6,0.4,0.9,0.6c0.2,0.3,0.4,0.6,0.6,1
		C24.7,5.2,24.7,5.6,24.7,6.1z M23.7,6.1c0-0.4,0-0.7-0.1-1s-0.2-0.5-0.4-0.7S22.9,4,22.7,3.9S22.2,3.7,22,3.7
		c-0.3,0-0.5,0.1-0.7,0.2s-0.4,0.3-0.6,0.4S20.4,4.7,20.3,5s-0.1,0.6-0.1,1s0,0.7,0.1,1s0.2,0.5,0.4,0.7c0.2,0.2,0.4,0.3,0.6,0.4
		c0.2,0.1,0.5,0.2,0.7,0.2c0.3,0,0.5-0.1,0.7-0.2c0.2-0.1,0.4-0.2,0.6-0.4s0.3-0.4,0.4-0.7S23.7,6.4,23.7,6.1z"/>
	<path class="st0" d="M27,4.7c0,0.2,0,0.3,0.1,0.4s0.2,0.2,0.3,0.3c0.1,0.1,0.2,0.1,0.4,0.2c0.2,0,0.3,0.1,0.5,0.1s0.4,0.1,0.6,0.2
		s0.4,0.2,0.6,0.3c0.2,0.1,0.3,0.3,0.4,0.5s0.2,0.5,0.2,0.8c0,0.3-0.1,0.6-0.2,0.8s-0.3,0.4-0.5,0.6s-0.5,0.3-0.8,0.4
		c-0.3,0.1-0.6,0.1-1,0.1c-0.2,0-0.4,0-0.6,0s-0.3-0.1-0.5-0.1c-0.1,0-0.2-0.1-0.3-0.1c-0.1,0-0.2-0.1-0.2-0.1V8
		c0.2,0.1,0.5,0.2,0.7,0.2c0.2,0.1,0.5,0.1,0.8,0.1c0.2,0,0.4,0,0.6-0.1c0.2,0,0.3-0.1,0.5-0.2c0.1-0.1,0.2-0.2,0.3-0.3
		C29,7.6,29,7.4,29,7.3c0-0.2,0-0.3-0.1-0.4s-0.2-0.2-0.3-0.3c-0.1,0-0.3,0-0.4-0.1c-0.1,0-0.3-0.1-0.5-0.1s-0.4-0.1-0.6-0.2
		S26.7,6.1,26.5,6s-0.3-0.3-0.4-0.5s-0.2-0.4-0.2-0.7c0-0.3,0.1-0.6,0.2-0.8c0.1-0.2,0.3-0.4,0.5-0.6c0.2-0.1,0.4-0.3,0.7-0.3
		C27.6,3,27.8,3,28.1,3s0.6,0,0.9,0.1s0.5,0.1,0.8,0.2v0.8c-0.2-0.1-0.5-0.2-0.7-0.2s-0.5-0.1-0.8-0.1c-0.2,0-0.4,0-0.6,0.1
		c-0.2,0-0.3,0.1-0.4,0.2s-0.2,0.2-0.2,0.3C27,4.4,27,4.5,27,4.7z"/>
	<path class="st0" d="M31.5,1.7V0.6h1v1.1H31.5z M31.5,9V3.1h1V9H31.5z"/>
	<path class="st0" d="M37.5,9c-0.1,0-0.2,0.1-0.4,0.1s-0.4,0-0.6,0c-0.3,0-0.6,0-0.8-0.1s-0.4-0.2-0.6-0.3c-0.2-0.1-0.3-0.3-0.3-0.5
		s-0.1-0.4-0.1-0.7V3.9h-1.1V3.1h1.1V1.5h1v1.6h1.8v0.8h-1.8v3.4c0,0.1,0,0.3,0.1,0.4S35.9,7.9,36,8c0.1,0.1,0.2,0.2,0.3,0.2
		s0.3,0.1,0.5,0.1c0.1,0,0.3,0,0.4,0s0.3,0,0.4-0.1V9C37.6,9,37.5,9,37.5,9z"/>
	<path class="st0" d="M38.8,1.7V0.6h1v1.1H38.8z M38.9,9V3.1h1V9H38.9z"/>
	<path class="st0" d="M44.6,8.3c0.3,0,0.6,0,0.9-0.1C45.8,8.1,46,8.1,46.3,8v0.8C46.1,8.9,45.8,9,45.5,9c-0.3,0.1-0.6,0.1-1,0.1
		S43.7,9,43.3,8.9c-0.4-0.1-0.7-0.3-1-0.5s-0.5-0.6-0.6-0.9c-0.2-0.4-0.2-0.9-0.2-1.4s0.1-1,0.2-1.4c0.1-0.4,0.3-0.7,0.6-1
		s0.5-0.5,0.9-0.6c0.3-0.1,0.7-0.2,1-0.2s0.6,0.1,0.9,0.2c0.3,0.1,0.5,0.3,0.7,0.5c0.2,0.2,0.4,0.5,0.5,0.9s0.2,0.8,0.2,1.3v0.1
		c0,0,0,0.1,0,0.2h-4.1c0,0.4,0.1,0.7,0.2,1c0.1,0.3,0.3,0.5,0.5,0.6c0.2,0.2,0.4,0.3,0.7,0.4C44,8.3,44.3,8.3,44.6,8.3z M44.1,3.8
		c-0.2,0-0.4,0-0.6,0.1C43.3,4,43.1,4.1,43,4.3c-0.2,0.1-0.3,0.3-0.4,0.5s-0.1,0.4-0.2,0.6h3c0-0.2,0-0.4-0.1-0.7
		c-0.1-0.2-0.2-0.4-0.3-0.5s-0.3-0.3-0.4-0.4C44.5,3.8,44.3,3.8,44.1,3.8z"/>
	<path class="st0" d="M53.8,9c-0.1,0-0.2,0.1-0.4,0.1s-0.4,0-0.6,0c-0.3,0-0.6,0-0.8-0.1s-0.4-0.2-0.6-0.3c-0.2-0.1-0.3-0.3-0.3-0.5
		S51,7.8,51,7.5V3.9h-1.1V3.1H51V1.5h1v1.6h1.7v0.8h-1.8v3.4c0,0.1,0,0.3,0.1,0.4s0.1,0.2,0.2,0.3c0.1,0.1,0.2,0.2,0.3,0.2
		s0.3,0.1,0.5,0.1c0.1,0,0.3,0,0.4,0s0.3,0,0.4-0.1C53.8,8.2,53.8,9,53.8,9z"/>
	<path class="st0" d="M56.1,3.9L56.1,3.9c0.1-0.1,0.2-0.3,0.4-0.4c0.1-0.1,0.3-0.2,0.4-0.3C57.1,3.1,57.2,3,57.4,3s0.4-0.1,0.6-0.1
		c0.2,0,0.4,0,0.7,0.1s0.4,0.2,0.6,0.3c0.2,0.2,0.3,0.4,0.5,0.6S60,4.5,60,5v4h-1V5.2c0-0.5-0.1-0.8-0.3-1.1
		c-0.2-0.3-0.5-0.4-0.9-0.4c-0.3,0-0.7,0.1-1,0.3c-0.3,0.2-0.6,0.4-0.8,0.8V9h-1V0h1L56.1,3.9L56.1,3.9z"/>
	<path class="st0" d="M64.2,9.2c-0.3,0-0.6,0-0.8-0.1s-0.5-0.2-0.6-0.3c-0.2-0.1-0.3-0.3-0.5-0.4C62.2,8.2,62.1,8,62,7.8
		c-0.1-0.1-0.1-0.3-0.1-0.5s0-0.4,0-0.6V3.1h1v3.6c0,0.3,0,0.6,0.1,0.8s0.3,0.4,0.5,0.6c0.2,0.1,0.5,0.2,0.8,0.2
		c0.4,0,0.7-0.1,0.9-0.2c0.2-0.2,0.4-0.4,0.5-0.6c-0.1-0.2,0-0.5,0-0.8V3.1h1v3.6c0,0.2,0,0.4,0,0.6s-0.1,0.3-0.2,0.5
		s-0.2,0.4-0.3,0.6c-0.1,0.1-0.3,0.2-0.5,0.4S65.3,9,65,9.1C64.8,9.1,64.5,9.2,64.2,9.2z"/>
	<path class="st0" d="M68.5,1.7V0.6h1v1.1H68.5z M68.5,9V3.1h1V9H68.5z"/>
	<path class="st0" d="M72.1,4.7c0,0.2,0,0.3,0.1,0.4s0.2,0.2,0.3,0.3c0.1,0.1,0.2,0.1,0.4,0.2c0.2,0,0.3,0.1,0.5,0.1
		s0.4,0.1,0.6,0.2s0.4,0.2,0.6,0.3c0.2,0.1,0.3,0.3,0.4,0.5s0.2,0.5,0.2,0.8c0,0.3-0.1,0.6-0.2,0.8s-0.3,0.4-0.5,0.6
		S74,9.2,73.7,9.3c-0.3,0.1-0.6,0.1-1,0.1c-0.2,0-0.4,0-0.6,0s-0.3-0.1-0.5-0.1c-0.1,0-0.2-0.1-0.3-0.1c-0.1,0-0.2-0.1-0.2-0.1V8
		c0.2,0.1,0.5,0.2,0.7,0.2c0.2,0.1,0.5,0.1,0.8,0.1c0.2,0,0.4,0,0.6-0.1c0.2,0,0.3-0.1,0.5-0.2c0.1-0.1,0.2-0.2,0.3-0.3
		c0.1-0.1,0.1-0.3,0.1-0.4c0-0.2,0-0.3-0.1-0.4s-0.2-0.2-0.3-0.3c-0.1,0-0.2,0-0.4-0.1c-0.1,0-0.3-0.1-0.5-0.1s-0.4-0.1-0.6-0.2
		S71.9,6.1,71.7,6s-0.3-0.3-0.4-0.5s-0.2-0.4-0.2-0.7c0-0.3,0.1-0.6,0.2-0.8c0.1-0.2,0.3-0.4,0.5-0.6c0.2-0.1,0.4-0.3,0.7-0.3
		C72.8,3,73,3,73.3,3s0.6,0,0.9,0.1s0.5,0.1,0.8,0.2v0.8c-0.2-0.1-0.5-0.2-0.7-0.2c-0.2-0.1-0.5-0.1-0.8-0.1c-0.2,0-0.4,0-0.6,0.1
		c-0.2,0-0.3,0.1-0.4,0.2s-0.2,0.2-0.2,0.3C72.1,4.4,72.1,4.5,72.1,4.7z"/>
</g>
</svg>
