<?xml version="1.0" encoding="utf-8"?>
<!-- Generator: Adobe Illustrator 24.3.0, SVG Export Plug-In . SVG Version: 6.00 Build 0)  -->
<svg version="1.1" id="Laag_1" xmlns="http://www.w3.org/2000/svg" xmlns:xlink="http://www.w3.org/1999/xlink" x="0px" y="0px"
	 width="254.4px" height="9.4px" viewBox="0 0 254.4 9.4" enable-background="new 0 0 254.4 9.4" xml:space="preserve">
<g>
	<path fill="#B0AFAE" d="M0,0.2h2v9H0V0.2z"/>
	<path fill="#B0AFAE" d="M10.5,9.2L6,3.6v5.6H4V0.1h1.8l4.4,5.6V0.1h2.1v9.1H10.5z"/>
	<path fill="#B0AFAE" d="M15.8,2.1h-2.3V0.2h6.7v1.9h-2.4v7.1h-2.1L15.8,2.1L15.8,2.1z"/>
	<path fill="#B0AFAE" d="M21.4,0.2h5.8v1.9h-3.7v1.6h3v2h-3v1.6h3.7v1.9h-5.8C21.4,9.2,21.4,0.2,21.4,0.2z"/>
	<path fill="#B0AFAE" d="M28.8,0.2h3.6c1.7,0,2.8,1.2,2.8,2.7c0,1.2-0.6,1.9-1.8,2.3l3.2,4h-2.5l-3-3.8h-0.3v3.8h-2V0.2z M32.1,3.8
		c0.6,0,1-0.3,1-0.9S32.7,2,32.1,2h-1.3v1.8H32.1z"/>
	<path fill="#B0AFAE" d="M43.8,9.2l-4.4-5.6v5.6h-2V0.1h1.8l4.4,5.6V0.1h2.1v9.1H43.8z"/>
	<path fill="#B0AFAE" d="M50.4,0.2h1.9l3.9,9.1H54l-0.8-1.9h-3.8l-0.8,1.9h-2.1L50.4,0.2z M52.5,5.6l-1.1-2.7l-1.1,2.7H52.5z"/>
	<path fill="#B0AFAE" d="M57.8,2.1h-2.3V0.2h6.7v1.9h-2.4v7.1h-2.1L57.8,2.1L57.8,2.1z"/>
	<path fill="#B0AFAE" d="M63.5,0.2h2v9h-2V0.2z"/>
	<path fill="#B0AFAE" d="M67,4.7C67,2.1,69.1,0,71.7,0s4.7,2.1,4.7,4.7s-2.1,4.7-4.7,4.7C69.1,9.4,67,7.3,67,4.7z M74.3,4.7
		c0-1.5-1.2-2.7-2.6-2.7C70.2,2,69,3.3,69,4.7c0,1.5,1.2,2.7,2.7,2.7C73.1,7.4,74.3,6.2,74.3,4.7z"/>
	<path fill="#B0AFAE" d="M84.3,9.2l-4.4-5.6v5.6h-2V0.1h1.8L84,5.8V0.2h2v9H84.3z"/>
	<path fill="#B0AFAE" d="M90.9,0.2h1.9l3.9,9.1h-2.1l-0.8-1.9H90l-0.8,1.9H87L90.9,0.2z M93,5.6l-1.1-2.7l-1.1,2.7H93z"/>
	<path fill="#B0AFAE" d="M97.6,0.2h2v7.1h3.8v1.9h-5.8V0.2z"/>
	<path fill="#B0AFAE" d="M106.5,7.8l1.6-1.3c0.4,0.7,1.2,1,1.9,1c0.7,0,1.1-0.3,1.1-0.8s-0.4-0.8-1.3-1.1l-0.6-0.2
		c-1.5-0.5-2.3-1.4-2.3-2.6c0-1.8,1.3-2.8,3.1-2.8c1.1,0,2.1,0.3,2.9,1.3l-1.3,1.4c-0.4-0.5-1-0.8-1.6-0.8s-1.1,0.2-1.1,0.7
		s0.4,0.7,1.4,1l0.7,0.3c1.3,0.5,2.2,1.3,2.2,2.7c0,1.7-1.3,2.8-3.3,2.8C108.5,9.4,107.2,8.8,106.5,7.8z"/>
	<path fill="#B0AFAE" d="M114.1,4.7c0-2.6,2.1-4.7,4.7-4.7c1.9,0,3.5,1,4.3,2.5l-1.8,1C120.8,2.6,120,2,118.8,2
		c-1.5,0-2.7,1.3-2.7,2.7c0,1.5,1.2,2.7,2.7,2.7c1.1,0,2-0.6,2.5-1.5l1.8,1c-0.8,1.5-2.4,2.5-4.3,2.5C116.2,9.4,114.1,7.3,114.1,4.7
		z"/>
	<path fill="#B0AFAE" d="M124.3,0.2h2v9h-2V0.2z"/>
	<path fill="#B0AFAE" d="M128.2,0.2h5.8v1.9h-3.7v1.6h3v2h-3v1.6h3.7v1.9h-5.8V0.2z"/>
	<path fill="#B0AFAE" d="M142.1,9.2l-4.4-5.6v5.6h-2V0.1h1.8l4.4,5.6V0.1h2.1v9.1H142.1z"/>
	<path fill="#B0AFAE" d="M145.2,4.7c0-2.6,2.1-4.7,4.7-4.7c1.9,0,3.5,1,4.3,2.5l-1.8,1c-0.5-0.9-1.3-1.5-2.5-1.5
		c-1.5,0-2.7,1.3-2.7,2.7c0,1.5,1.2,2.7,2.7,2.7c1.1,0,2-0.6,2.5-1.5l1.8,1c-0.8,1.5-2.3,2.5-4.2,2.5C147.3,9.4,145.2,7.3,145.2,4.7
		z"/>
	<path fill="#B0AFAE" d="M155.4,0.2h5.8v1.9h-3.7v1.6h3v2h-3v1.6h3.7v1.9h-5.8V0.2z"/>
	<path fill="#B0AFAE" d="M165.6,0.2h5.6v1.9h-3.6v1.6h2.8v2h-2.8v3.5h-2V0.2z"/>
	<path fill="#B0AFAE" d="M172.6,0.2h2v9h-2V0.2z"/>
	<path fill="#B0AFAE" d="M176.6,0.2h2v7.1h3.8v1.9h-5.8V0.2z"/>
	<path fill="#B0AFAE" d="M185.7,3.6v5.6h-2V0.1h1.9l2.9,3.9l2.9-3.9h1.9v9.1H191V3.6l-2.7,3.7L185.7,3.6z"/>
	<path fill="#B0AFAE" d="M197.8,0.2h5.6v1.9h-3.6v1.6h2.8v2h-2.8v3.5h-2V0.2z"/>
	<path fill="#B0AFAE" d="M204.8,0.2h5.8v1.9h-3.7v1.6h3v2h-3v1.6h3.7v1.9h-5.8V0.2z"/>
	<path fill="#B0AFAE" d="M211.5,7.8l1.6-1.3c0.4,0.7,1.2,1,1.9,1s1.1-0.3,1.1-0.8s-0.4-0.8-1.3-1.1l-0.6-0.2
		c-1.5-0.5-2.3-1.4-2.3-2.6c0-1.8,1.3-2.8,3.1-2.8c1.1,0,2.1,0.3,2.9,1.3l-1.3,1.4c-0.4-0.5-1-0.8-1.6-0.8s-1.1,0.2-1.1,0.7
		s0.5,0.7,1.4,1l0.7,0.3c1.3,0.5,2.2,1.3,2.2,2.7c0,1.7-1.3,2.8-3.3,2.8C213.5,9.4,212.2,8.8,211.5,7.8z"/>
	<path fill="#B0AFAE" d="M221.1,2.1h-2.3V0.2h6.7v1.9h-2.4v7.1H221V2.1H221.1z"/>
	<path fill="#B0AFAE" d="M226.8,0.2h2v9h-2V0.2z"/>
	<path fill="#B0AFAE" d="M229.8,0.2h2.2l2.4,6.1l2.4-6.1h2.2l-3.7,9.1h-1.8L229.8,0.2z"/>
	<path fill="#B0AFAE" d="M241.9,0.2h1.9l3.9,9.1h-2.1l-0.8-1.9H241l-0.8,1.9H238L241.9,0.2z M244,5.6l-1.1-2.7l-1.1,2.7H244z"/>
	<path fill="#B0AFAE" d="M248.6,0.2h2v7.1h3.8v1.9h-5.8V0.2z"/>
</g>
</svg>
