<?xml version="1.0" encoding="utf-8"?>
<!-- Generator: Adobe Illustrator 24.0.0, SVG Export Plug-In . SVG Version: 6.00 Build 0)  -->
<svg version="1.1" id="Laag_1" xmlns="http://www.w3.org/2000/svg" xmlns:xlink="http://www.w3.org/1999/xlink" x="0px" y="0px"
	 width="225px" height="14px" viewBox="0 0 225 14" style="enable-background:new 0 0 225 14;" xml:space="preserve">
<g>
	<path d="M3.5,3.9H1.2V3c0.3,0,0.6,0,0.9-0.1c0.3-0.1,0.5-0.2,0.8-0.3S3.3,2.2,3.4,2s0.2-0.6,0.3-1h1v10.3H3.5V3.9z"/>
	<path d="M8.5,13.6c-0.1,0-0.3,0-0.4,0c-0.1,0-0.2,0-0.3,0v-1h0c0.1,0,0.3,0,0.4,0c0.5,0,0.8-0.2,0.8-0.8V3.6h1.2v8.3
		c0,0.4,0,0.7-0.1,0.9c-0.1,0.2-0.2,0.4-0.4,0.5c-0.2,0.1-0.3,0.2-0.6,0.2C9,13.5,8.8,13.6,8.5,13.6z M9.1,0.6h1.2v1.5H9.1V0.6z"/>
	<path d="M16.9,11.4v-1.1h0c-0.3,0.4-0.6,0.7-1,0.9c-0.4,0.2-0.8,0.3-1.4,0.3c-0.8,0-1.4-0.2-1.9-0.7S11.9,9.8,11.9,9V3.6h1.2v5.3
		c0,0.5,0.2,0.9,0.5,1.2c0.3,0.3,0.7,0.4,1.3,0.4c0.3,0,0.6-0.1,0.8-0.2c0.2-0.1,0.5-0.3,0.6-0.5c0.2-0.2,0.3-0.4,0.4-0.7
		c0.1-0.3,0.1-0.5,0.1-0.9V3.6h1.2v7.8H16.9z"/>
	<path d="M21,4.6L21,4.6c0.3-0.4,0.6-0.7,1-0.9s0.9-0.3,1.4-0.3c0.8,0,1.4,0.2,1.9,0.6c0.5,0.4,0.7,1,0.7,1.9v5.4h-1.2V6
		c0-0.5-0.2-0.9-0.5-1.2c-0.3-0.3-0.7-0.4-1.3-0.4c-0.3,0-0.6,0.1-0.9,0.2C22,4.7,21.8,4.9,21.6,5c-0.2,0.2-0.3,0.4-0.4,0.7
		C21,6,21,6.3,21,6.6v4.8h-1.2V3.6H21V4.6z"/>
	<path d="M27.7,0.6h1.2v1.5h-1.2V0.6z M27.7,3.6h1.2v7.8h-1.2V3.6z"/>
	<path d="M32.4,3.6h1.1V1.2h1.2v2.4h1.5v1h-1.5v5c0,0.3,0.1,0.5,0.2,0.6c0.1,0.1,0.3,0.2,0.6,0.2c0.1,0,0.2,0,0.4,0
		c0.1,0,0.2,0,0.3-0.1h0v1.1c-0.1,0-0.3,0.1-0.5,0.1c-0.2,0-0.3,0-0.5,0c-0.5,0-0.9-0.1-1.2-0.3c-0.3-0.2-0.5-0.6-0.5-1.2V4.6h-1.1
		V3.6z"/>
	<path d="M41.2,0.6h1.3l-4.3,10.7H37L41.2,0.6z"/>
	<path d="M42.9,3.6h1.2v1.1h0c0.2-0.4,0.6-0.7,1-0.9s0.8-0.4,1.3-0.4c0.5,0,0.9,0.1,1.2,0.4c0.3,0.2,0.6,0.6,0.8,1h0
		c0.2-0.5,0.6-0.8,1-1c0.4-0.2,0.9-0.4,1.4-0.4c0.7,0,1.3,0.2,1.7,0.6c0.4,0.4,0.7,1,0.7,1.9v5.4H52V6c0-0.5-0.1-0.9-0.4-1.1
		c-0.3-0.3-0.6-0.4-1-0.4c-0.3,0-0.5,0.1-0.7,0.2c-0.2,0.1-0.4,0.2-0.6,0.4c-0.2,0.2-0.3,0.4-0.4,0.7c-0.1,0.3-0.2,0.5-0.2,0.8v4.8
		h-1.2V6c0-0.5-0.1-0.9-0.4-1.1c-0.2-0.3-0.6-0.4-1-0.4c-0.2,0-0.5,0.1-0.7,0.2c-0.2,0.1-0.4,0.2-0.6,0.4c-0.2,0.2-0.3,0.4-0.5,0.7
		c-0.1,0.3-0.2,0.5-0.2,0.8v4.8h-1.2V3.6z"/>
	<path d="M61.6,8.8h-4.8V7.7L61.8,1h1v6.9h1.7v1h-1.7v2.5h-1.2V8.8z M57.9,7.8h3.6V3h0L57.9,7.8L57.9,7.8z"/>
	<path d="M71.4,11.6c-0.6,0-1.1-0.1-1.6-0.3s-0.9-0.5-1.2-0.9C68.3,10,68,9.6,67.9,9.1c-0.2-0.5-0.3-1-0.3-1.6
		c0-0.6,0.1-1.1,0.3-1.6s0.4-0.9,0.8-1.3c0.3-0.4,0.7-0.7,1.2-0.9c0.5-0.2,1-0.3,1.6-0.3c0.6,0,1.1,0.1,1.6,0.3
		c0.5,0.2,0.9,0.5,1.2,0.9c0.3,0.4,0.6,0.8,0.7,1.3c0.2,0.5,0.3,1,0.3,1.6c0,0.6-0.1,1.1-0.3,1.6c-0.2,0.5-0.4,0.9-0.7,1.3
		c-0.3,0.4-0.7,0.7-1.2,0.9C72.4,11.5,71.9,11.6,71.4,11.6z M71.4,10.6c0.4,0,0.8-0.1,1.1-0.2c0.3-0.2,0.6-0.4,0.8-0.7
		c0.2-0.3,0.4-0.6,0.5-1s0.2-0.8,0.2-1.2c0-0.4-0.1-0.8-0.2-1.2c-0.1-0.4-0.3-0.7-0.5-1s-0.5-0.5-0.8-0.7c-0.3-0.2-0.7-0.2-1.1-0.2
		c-0.4,0-0.8,0.1-1.1,0.2c-0.3,0.2-0.6,0.4-0.8,0.7s-0.4,0.6-0.5,1c-0.1,0.4-0.2,0.8-0.2,1.2c0,0.4,0.1,0.8,0.2,1.2s0.3,0.7,0.5,1
		c0.2,0.3,0.5,0.5,0.8,0.7C70.6,10.5,70.9,10.6,71.4,10.6z"/>
	<path d="M78.7,7.2l-1.1,1.1v3.1h-1.2V0.6h1.2v6.3l3.4-3.3h1.5l-3,2.8l3.3,5h-1.4L78.7,7.2z"/>
	<path d="M83,3.6h1.1V1.2h1.2v2.4h1.5v1h-1.5v5c0,0.3,0.1,0.5,0.2,0.6c0.1,0.1,0.3,0.2,0.6,0.2c0.1,0,0.2,0,0.4,0
		c0.1,0,0.2,0,0.3-0.1h0v1.1c-0.1,0-0.3,0.1-0.5,0.1c-0.2,0-0.3,0-0.5,0c-0.5,0-0.9-0.1-1.2-0.3c-0.3-0.2-0.5-0.6-0.5-1.2V4.6H83
		V3.6z"/>
	<path d="M91.3,11.6c-0.6,0-1.1-0.1-1.6-0.3s-0.9-0.5-1.2-0.9C88.3,10,88,9.6,87.9,9.1c-0.2-0.5-0.3-1-0.3-1.6
		c0-0.6,0.1-1.1,0.3-1.6s0.4-0.9,0.8-1.3s0.7-0.7,1.2-0.9c0.5-0.2,1-0.3,1.6-0.3s1.1,0.1,1.6,0.3c0.5,0.2,0.9,0.5,1.2,0.9
		c0.3,0.4,0.6,0.8,0.7,1.3s0.3,1,0.3,1.6c0,0.6-0.1,1.1-0.3,1.6c-0.2,0.5-0.4,0.9-0.7,1.3c-0.3,0.4-0.7,0.7-1.2,0.9
		S91.9,11.6,91.3,11.6z M91.3,10.6c0.4,0,0.8-0.1,1.1-0.2c0.3-0.2,0.6-0.4,0.8-0.7c0.2-0.3,0.4-0.6,0.5-1c0.1-0.4,0.2-0.8,0.2-1.2
		c0-0.4-0.1-0.8-0.2-1.2c-0.1-0.4-0.3-0.7-0.5-1s-0.5-0.5-0.8-0.7c-0.3-0.2-0.7-0.2-1.1-0.2s-0.8,0.1-1.1,0.2
		c-0.3,0.2-0.6,0.4-0.8,0.7s-0.4,0.6-0.5,1c-0.1,0.4-0.2,0.8-0.2,1.2c0,0.4,0.1,0.8,0.2,1.2c0.1,0.4,0.3,0.7,0.5,1
		c0.2,0.3,0.5,0.5,0.8,0.7C90.6,10.5,90.9,10.6,91.3,10.6z"/>
	<path d="M100,11.6c-0.5,0-1-0.1-1.4-0.3c-0.4-0.2-0.7-0.5-1.1-1h0v1h-1.2V0.6h1.2v4.1h0c0.3-0.4,0.6-0.7,1-0.9
		c0.4-0.2,0.9-0.3,1.5-0.3c0.5,0,0.9,0.1,1.3,0.3c0.4,0.2,0.8,0.5,1,0.8s0.5,0.8,0.7,1.3s0.2,1.1,0.2,1.7c0,0.6-0.1,1.2-0.2,1.7
		c-0.1,0.5-0.4,0.9-0.7,1.3c-0.3,0.4-0.6,0.6-1.1,0.8C101,11.5,100.5,11.6,100,11.6z M99.9,10.6c0.4,0,0.7-0.1,1-0.2
		c0.3-0.2,0.5-0.4,0.7-0.6c0.2-0.3,0.3-0.6,0.4-1c0.1-0.4,0.1-0.8,0.1-1.2c0-0.4,0-0.8-0.1-1.2c-0.1-0.4-0.2-0.7-0.4-1
		c-0.2-0.3-0.4-0.5-0.7-0.6c-0.3-0.2-0.6-0.2-1-0.2c-0.4,0-0.8,0.1-1.1,0.2c-0.3,0.2-0.6,0.4-0.8,0.7c-0.2,0.3-0.4,0.6-0.5,1
		c-0.1,0.4-0.2,0.8-0.2,1.2c0,0.4,0,0.8,0.2,1.2c0.1,0.4,0.3,0.7,0.5,1c0.2,0.3,0.5,0.5,0.8,0.6C99.1,10.5,99.5,10.6,99.9,10.6z"/>
	<path d="M107.9,11.6c-0.6,0-1.1-0.1-1.6-0.3s-0.9-0.5-1.2-0.9c-0.3-0.4-0.6-0.8-0.7-1.3c-0.2-0.5-0.3-1-0.3-1.6
		c0-0.6,0.1-1.1,0.3-1.6s0.4-0.9,0.8-1.3s0.7-0.7,1.2-0.9c0.4-0.2,0.9-0.3,1.5-0.3c0.6,0,1.1,0.1,1.5,0.3c0.4,0.2,0.8,0.5,1.1,0.9
		s0.5,0.8,0.7,1.4s0.2,1.1,0.2,1.8h-6c0,0.4,0.1,0.8,0.2,1.1s0.3,0.6,0.5,0.9c0.2,0.3,0.5,0.4,0.8,0.6c0.3,0.1,0.6,0.2,1,0.2
		c0.6,0,1-0.1,1.4-0.4c0.4-0.3,0.6-0.7,0.8-1.2h1.2c-0.2,0.8-0.6,1.5-1.1,1.9S108.7,11.6,107.9,11.6z M107.8,4.4
		c-0.4,0-0.7,0.1-1,0.2c-0.3,0.1-0.5,0.3-0.7,0.5c-0.2,0.2-0.4,0.5-0.5,0.8s-0.2,0.6-0.2,1h4.7c0-0.8-0.3-1.4-0.6-1.8
		C109,4.6,108.5,4.4,107.8,4.4z"/>
	<path d="M113.8,4.9L113.8,4.9c0.3-0.4,0.6-0.7,1-1c0.4-0.3,0.9-0.4,1.4-0.4c0.1,0,0.2,0,0.3,0c0.1,0,0.1,0,0.2,0.1v1.2h0
		c-0.1,0-0.2,0-0.2-0.1c-0.1,0-0.2,0-0.3,0c-0.3,0-0.6,0.1-0.9,0.2c-0.3,0.1-0.5,0.3-0.7,0.5c-0.2,0.2-0.4,0.4-0.5,0.7
		s-0.2,0.6-0.2,1v4.3h-1.2V3.6h1.2V4.9z"/>
	<path d="M120.1,9.6c0.2-0.5,0.5-0.9,0.9-1.3c0.4-0.4,0.8-0.7,1.2-1c0.4-0.3,0.9-0.5,1.3-0.8c0.3-0.2,0.6-0.4,0.9-0.5
		c0.3-0.2,0.5-0.4,0.7-0.6c0.2-0.2,0.3-0.4,0.4-0.6c0.1-0.2,0.2-0.5,0.2-0.8c0-0.6-0.2-1.1-0.6-1.5c-0.4-0.4-0.9-0.6-1.6-0.6
		c-0.4,0-0.7,0.1-0.9,0.2c-0.3,0.1-0.5,0.3-0.7,0.5c-0.2,0.2-0.3,0.5-0.4,0.8c-0.1,0.3-0.1,0.7-0.1,1.3H120c0-0.7,0.1-1.2,0.2-1.7
		c0.2-0.4,0.4-0.8,0.7-1.1c0.3-0.3,0.7-0.6,1.2-0.7s1-0.2,1.5-0.2c0.5,0,1,0.1,1.4,0.2s0.8,0.4,1.1,0.7c0.3,0.3,0.5,0.6,0.7,1
		C127,3.1,127,3.6,127,4c0,0.5-0.1,0.9-0.2,1.3c-0.2,0.3-0.4,0.6-0.6,0.9c-0.3,0.3-0.6,0.5-1,0.7c-0.4,0.2-0.8,0.4-1.2,0.7
		c-0.3,0.2-0.6,0.3-0.9,0.5c-0.3,0.2-0.6,0.4-0.8,0.6c-0.3,0.2-0.5,0.4-0.7,0.7s-0.3,0.5-0.4,0.8h5.6v1.2h-7.1
		C119.7,10.7,119.9,10.1,120.1,9.6z"/>
	<path d="M132.2,11.6c-0.6,0-1.2-0.1-1.7-0.4c-0.5-0.3-0.9-0.6-1.3-1.1s-0.6-1-0.8-1.7c-0.2-0.7-0.3-1.4-0.3-2.2
		c0-0.8,0.1-1.6,0.3-2.2c0.2-0.7,0.5-1.2,0.8-1.7c0.3-0.5,0.8-0.8,1.3-1.1c0.5-0.2,1-0.4,1.7-0.4c0.6,0,1.2,0.1,1.7,0.4
		c0.5,0.2,0.9,0.6,1.3,1.1s0.6,1,0.8,1.7c0.2,0.7,0.3,1.4,0.3,2.3c0,0.8-0.1,1.6-0.3,2.2c-0.2,0.7-0.4,1.2-0.8,1.7
		c-0.3,0.5-0.8,0.8-1.3,1.1S132.9,11.6,132.2,11.6z M132.2,10.5c0.9,0,1.6-0.4,2-1.1c0.4-0.8,0.7-1.8,0.7-3.1c0-0.7-0.1-1.2-0.2-1.8
		s-0.3-1-0.5-1.4c-0.2-0.4-0.5-0.7-0.8-0.9s-0.7-0.3-1.2-0.3c-0.9,0-1.6,0.4-2,1.1c-0.4,0.8-0.7,1.8-0.7,3.1c0,0.6,0.1,1.2,0.2,1.8
		s0.3,1,0.5,1.3c0.2,0.4,0.5,0.7,0.8,0.9C131.4,10.4,131.8,10.5,132.2,10.5z"/>
	<path d="M137.7,9.6c0.2-0.5,0.5-0.9,0.9-1.3c0.4-0.4,0.8-0.7,1.2-1c0.4-0.3,0.9-0.5,1.3-0.8c0.3-0.2,0.6-0.4,0.9-0.5
		c0.3-0.2,0.5-0.4,0.7-0.6c0.2-0.2,0.3-0.4,0.4-0.6c0.1-0.2,0.2-0.5,0.2-0.8c0-0.6-0.2-1.1-0.6-1.5c-0.4-0.4-0.9-0.6-1.6-0.6
		c-0.4,0-0.7,0.1-0.9,0.2c-0.3,0.1-0.5,0.3-0.7,0.5c-0.2,0.2-0.3,0.5-0.4,0.8c-0.1,0.3-0.1,0.7-0.1,1.3h-1.3c0-0.7,0.1-1.2,0.2-1.7
		c0.2-0.4,0.4-0.8,0.7-1.1c0.3-0.3,0.7-0.6,1.2-0.7s1-0.2,1.5-0.2c0.5,0,1,0.1,1.4,0.2s0.8,0.4,1.1,0.7c0.3,0.3,0.5,0.6,0.7,1
		c0.2,0.4,0.2,0.8,0.2,1.3c0,0.5-0.1,0.9-0.2,1.3c-0.2,0.3-0.4,0.6-0.6,0.9c-0.3,0.3-0.6,0.5-1,0.7c-0.4,0.2-0.8,0.4-1.2,0.7
		c-0.3,0.2-0.6,0.3-0.9,0.5c-0.3,0.2-0.6,0.4-0.8,0.6c-0.3,0.2-0.5,0.4-0.7,0.7s-0.3,0.5-0.4,0.8h5.6v1.2h-7.1
		C137.3,10.7,137.4,10.1,137.7,9.6z"/>
	<path d="M149.8,11.6c-0.6,0-1.2-0.1-1.7-0.4c-0.5-0.3-0.9-0.6-1.3-1.1s-0.6-1-0.8-1.7c-0.2-0.7-0.3-1.4-0.3-2.2
		c0-0.8,0.1-1.6,0.3-2.2c0.2-0.7,0.5-1.2,0.8-1.7c0.3-0.5,0.8-0.8,1.3-1.1c0.5-0.2,1-0.4,1.7-0.4c0.6,0,1.2,0.1,1.7,0.4
		c0.5,0.2,0.9,0.6,1.3,1.1s0.6,1,0.8,1.7c0.2,0.7,0.3,1.4,0.3,2.3c0,0.8-0.1,1.6-0.3,2.2c-0.2,0.7-0.4,1.2-0.8,1.7
		c-0.3,0.5-0.8,0.8-1.3,1.1S150.4,11.6,149.8,11.6z M149.8,10.5c0.9,0,1.6-0.4,2-1.1c0.4-0.8,0.7-1.8,0.7-3.1c0-0.7-0.1-1.2-0.2-1.8
		s-0.3-1-0.5-1.4c-0.2-0.4-0.5-0.7-0.8-0.9s-0.7-0.3-1.2-0.3c-0.9,0-1.6,0.4-2,1.1c-0.4,0.8-0.7,1.8-0.7,3.1c0,0.6,0.1,1.2,0.2,1.8
		s0.3,1,0.5,1.3c0.2,0.4,0.5,0.7,0.8,0.9C149,10.4,149.4,10.5,149.8,10.5z"/>
</g>
</svg>
