<?xml version="1.0" encoding="utf-8"?>
<!-- Generator: Adobe Illustrator 24.0.0, SVG Export Plug-In . SVG Version: 6.00 Build 0)  -->
<svg version="1.1" id="Layer_1" xmlns="http://www.w3.org/2000/svg" xmlns:xlink="http://www.w3.org/1999/xlink" x="0px" y="0px"
	 width="513px" height="120.4px" viewBox="0 0 513 120.4" style="enable-background:new 0 0 513 120.4;" xml:space="preserve">
<style type="text/css">
	.st0{fill:#1D1D1B;}
</style>
<g>
	<path class="st0" d="M0,24.3h10.8c0,1.3,1.7,3.6,8.7,3.8c5.5,0.1,10.7-0.3,10.7-3c0-5-29.4,1.9-29.4-13.1c0-7.3,7.5-12,18.7-12
		C31,0,38.9,4.9,39,12.4H28.2c0.1-1.3-1.1-3.6-7.9-3.8c-5-0.1-9.4,0.3-9.4,3c0,5.4,29.4-0.9,29.4,13.1c0,7.2-8,11.9-19.9,11.9
		C8.1,36.6-0.1,31.7,0,24.3z"/>
	<path class="st0" d="M61.9,0.8h10.9l21,35h-12l-3.3-5.9H56.2l-3.3,5.9h-12L61.9,0.8z M73.6,21.3L67.3,9.9L61,21.3H73.6z"/>
	<path class="st0" d="M97.7,0.8h16.9c12.7,0,20.4,6.1,20.4,17.5c0,11.6-7.8,17.5-20.4,17.5H97.7V0.8z M114.6,27.2
		c7,0,10.3-2.8,10.3-8.9c0-6.3-3.5-8.9-10.3-8.9h-6.8v17.8H114.6z"/>
	<path class="st0" d="M140.5,0.8h35.3v8.6h-25.2V14h24.7v8.2h-24.7v5.1h25.2v8.6h-35.3V0.8z"/>
	<path class="st0" d="M195,9.4h-15.5V0.8h41.2v8.6h-15.6v26.4H195V9.4z"/>
	<path class="st0" d="M238.9,9.4h-15.5V0.8h41.2v8.6H249v26.4h-10.1V9.4z"/>
	<path class="st0" d="M268.6,0.8h10.1v35h-10.1V0.8z"/>
	<path class="st0" d="M286.1,0.8h8L317,20.1V0.8h10v35h-8l-22.8-19.3v19.3h-10.1V0.8z"/>
	<path class="st0" d="M2,40.8h10.1v15.8l16.4-15.8h15L29.6,53.1l15.5,22.7h-14l-9.8-15.4l-9.2,8.1v7.3H2V40.8z"/>
	<path class="st0" d="M44.7,55h50v8.7h-50C44.7,63.7,44.7,55,44.7,55z"/>
</g>
<rect x="2" y="84.9" class="st0" width="10.1" height="20"/>
<rect x="12.1" y="94.9" class="st0" width="404.5" height="10.1"/>
</svg>
