<?xml version="1.0" encoding="utf-8"?>
<!-- Generator: Adobe Illustrator 24.0.0, SVG Export Plug-In . SVG Version: 6.00 Build 0)  -->
<svg version="1.1" id="Laag_1" xmlns="http://www.w3.org/2000/svg" xmlns:xlink="http://www.w3.org/1999/xlink" x="0px" y="0px"
	 width="204px" height="41.1px" viewBox="0 0 204 41.1" style="enable-background:new 0 0 204 41.1;" xml:space="preserve">
<style type="text/css">
	.st0{fill:#FFFFFF;}
</style>
<g>
	<path class="st0" d="M0.3,1.8h5.5l2,7.2C7.9,9.3,8,9.6,8.1,10s0.2,0.8,0.3,1.2c0.1,0.5,0.2,1,0.4,1.5l0,0c0.1-0.5,0.2-1,0.3-1.5
		c0.1-0.4,0.2-0.8,0.3-1.2s0.2-0.8,0.3-1l2-7.2h5.5v16.4h-3.7V10c0-0.2,0-0.4,0-0.8c0-0.4,0-0.7,0-1.1c0-0.4,0-0.9,0-1.4l0,0
		c-0.1,0.5-0.2,0.9-0.3,1.3C13.1,8.3,13,8.7,13,9c-0.1,0.3-0.1,0.6-0.2,0.7l-2.4,8.5H7.1L4.7,9.8c0-0.2-0.1-0.4-0.2-0.7
		C4.4,8.7,4.3,8.3,4.3,8C4.2,7.6,4.1,7.2,4,6.7l0,0c0,0.5,0,1,0,1.4s0,0.7,0,1.1S4,9.8,4,10v8.2H0.3V1.8z"/>
	<path class="st0" d="M22.7,18.5c-0.6,0-1.1-0.1-1.6-0.2c-0.5-0.2-0.9-0.4-1.3-0.7c-0.4-0.3-0.6-0.7-0.8-1.1c-0.2-0.4-0.3-1-0.3-1.5
		c0-0.6,0.1-1.2,0.4-1.6c0.2-0.4,0.6-0.8,1-1.1s0.9-0.5,1.4-0.7s1.1-0.3,1.7-0.3c1.1-0.1,1.9-0.3,2.3-0.5s0.7-0.5,0.7-0.8
		c0-0.4-0.1-0.7-0.4-0.9s-0.7-0.3-1.2-0.3c-0.6,0-1,0.1-1.4,0.4c-0.3,0.3-0.5,0.6-0.5,1.1h-3.4c0-0.5,0.1-1.1,0.4-1.6
		c0.2-0.5,0.6-0.9,1-1.3s1-0.7,1.6-0.9c0.7-0.2,1.4-0.3,2.3-0.3s1.6,0.1,2.2,0.2c0.6,0.2,1.1,0.4,1.6,0.7c0.5,0.4,0.9,0.8,1.1,1.4
		s0.4,1.2,0.4,1.9v5.9c0,0.5,0,0.8,0.1,1.1c0.1,0.3,0.2,0.5,0.3,0.6v0.2h-3.6c-0.1-0.1-0.2-0.3-0.2-0.5c-0.1-0.2-0.1-0.5-0.2-0.8
		l0,0c-0.4,0.5-0.8,0.9-1.3,1.2C24.3,18.4,23.6,18.5,22.7,18.5z M23.9,16.1c0.7,0,1.3-0.2,1.7-0.6c0.4-0.4,0.7-0.9,0.7-1.5v-1.4
		c-0.2,0.1-0.5,0.2-0.9,0.3s-0.7,0.2-1.1,0.3c-0.7,0.2-1.2,0.4-1.6,0.6c-0.3,0.2-0.5,0.6-0.5,1c0,0.5,0.2,0.8,0.5,1
		C23,16,23.4,16.1,23.9,16.1z"/>
	<path class="st0" d="M37.1,22.3c-1.6,0-2.9-0.3-3.9-1s-1.6-1.6-1.8-2.8H35c0.1,0.3,0.3,0.6,0.6,0.8c0.3,0.2,0.8,0.3,1.4,0.3
		c0.8,0,1.4-0.2,1.7-0.6c0.4-0.4,0.5-0.9,0.5-1.7v-1.2h-0.1c-0.4,0.4-0.8,0.7-1.2,1c-0.5,0.3-1.1,0.4-1.8,0.4s-1.3-0.1-1.9-0.4
		c-0.6-0.2-1.2-0.6-1.6-1.1c-0.5-0.5-0.9-1-1.1-1.7c-0.3-0.7-0.4-1.5-0.4-2.4c0-0.9,0.1-1.6,0.4-2.4c0.2-0.7,0.6-1.3,1-1.9
		c0.4-0.5,1-0.9,1.6-1.2s1.3-0.4,2-0.4c0.8,0,1.4,0.1,2,0.4c0.5,0.3,1,0.7,1.3,1.2l0,0V6.5H43v10.6c0,0.9-0.1,1.6-0.4,2.3
		c-0.3,0.6-0.7,1.2-1.1,1.6c-0.5,0.5-1.1,0.8-1.9,1C38.8,22.2,37.9,22.3,37.1,22.3z M37.1,14.8c0.8,0,1.4-0.3,1.8-0.8
		c0.4-0.6,0.6-1.3,0.6-2.1c0-0.4,0-0.8-0.1-1.1c-0.1-0.4-0.3-0.7-0.5-0.9c-0.2-0.3-0.5-0.5-0.8-0.6C37.8,9,37.4,9,37.1,9
		c-0.7,0-1.3,0.3-1.7,0.8s-0.6,1.2-0.6,2.1s0.2,1.6,0.6,2.1C35.8,14.5,36.4,14.8,37.1,14.8z"/>
	<path class="st0" d="M44.7,1.8h3.7v3h-3.7V1.8z M44.7,6.5h3.7v11.7h-3.7V6.5z"/>
	<path class="st0" d="M55.2,18.6c-1.7,0-3.1-0.4-4.1-1.1s-1.5-1.8-1.6-3.1H53c0.1,0.6,0.3,1,0.7,1.3s0.9,0.4,1.5,0.4s1-0.1,1.3-0.3
		s0.5-0.5,0.5-0.9c0-0.3-0.1-0.5-0.3-0.6c-0.2-0.2-0.4-0.3-0.7-0.4c-0.3-0.1-0.6-0.2-1-0.2c-0.4-0.1-0.7-0.1-1.1-0.2
		c-0.5-0.1-1-0.2-1.5-0.3s-1-0.3-1.4-0.6s-0.7-0.6-1-1c-0.2-0.4-0.4-1-0.4-1.7c0-0.6,0.1-1.2,0.4-1.6c0.3-0.5,0.6-0.9,1.1-1.2
		c0.5-0.3,1-0.5,1.6-0.7s1.3-0.2,2-0.2c1.7,0,2.9,0.3,3.8,1c0.9,0.7,1.4,1.6,1.5,2.7h-3.4C56.5,9.4,56.3,9,56,8.8
		c-0.3-0.2-0.8-0.3-1.3-0.3s-0.8,0.1-1.2,0.3C53.2,9,53,9.2,53,9.6c0,0.2,0.1,0.4,0.2,0.5c0.2,0.1,0.4,0.2,0.6,0.3
		c0.3,0.1,0.6,0.2,0.9,0.2c0.3,0.1,0.7,0.1,1.1,0.2c0.5,0.1,1,0.2,1.6,0.3c0.5,0.1,1,0.3,1.4,0.6s0.8,0.6,1.1,1.1s0.4,1.1,0.4,1.8
		c0,0.6-0.1,1.2-0.4,1.7c-0.3,0.5-0.6,0.9-1.1,1.2c-0.5,0.3-1,0.6-1.7,0.7C56.7,18.5,56,18.6,55.2,18.6z"/>
	<path class="st0" d="M67.6,18.6c-0.9,0-1.8-0.2-2.6-0.5c-0.8-0.3-1.4-0.7-2-1.3c-0.5-0.6-1-1.2-1.3-2s-0.4-1.6-0.4-2.5
		s0.1-1.7,0.4-2.5c0.3-0.8,0.7-1.4,1.2-2s1.2-1,1.9-1.3C65.6,6.2,66.4,6,67.3,6c0.8,0,1.5,0.1,2.2,0.3c0.6,0.2,1.2,0.5,1.7,0.9
		s0.9,0.9,1.1,1.4c0.3,0.5,0.5,1.2,0.6,1.8h-3.6c-0.1-0.5-0.3-1-0.7-1.3c-0.3-0.3-0.7-0.5-1.3-0.5c-0.8,0-1.4,0.3-1.8,0.9
		c-0.4,0.6-0.6,1.5-0.6,2.5c0,1.1,0.2,1.9,0.6,2.5s1,0.9,1.8,0.9c1.2,0,1.9-0.7,2-2h3.6c0,0.7-0.2,1.3-0.4,1.9
		c-0.3,0.6-0.6,1.1-1.1,1.5s-1.1,0.8-1.7,1C69.2,18.5,68.4,18.6,67.6,18.6z"/>
	<path class="st0" d="M74.4,1.8h3.7v6.1h0.1c0.4-0.6,0.9-1,1.4-1.3s1.2-0.5,2-0.5c0.6,0,1.2,0.1,1.7,0.3c0.5,0.2,0.9,0.5,1.3,0.9
		s0.6,0.9,0.8,1.4c0.2,0.5,0.3,1.1,0.3,1.8v7.6H82v-6.9c0-0.6-0.2-1.1-0.5-1.5s-0.8-0.6-1.4-0.6S79,9.3,78.6,9.8S78,10.9,78,11.6
		v6.5h-3.7L74.4,1.8L74.4,1.8z"/>
	<path class="st0" d="M93.2,18.6c-1,0-1.8-0.2-2.6-0.5c-0.8-0.3-1.4-0.7-2-1.3c-0.5-0.6-0.9-1.2-1.2-2C87.1,14,87,13.2,87,12.3
		s0.1-1.7,0.4-2.4c0.3-0.8,0.7-1.4,1.2-2s1.2-1,1.9-1.3c0.7-0.3,1.6-0.5,2.5-0.5c0.8,0,1.6,0.1,2.3,0.4c0.7,0.3,1.2,0.6,1.8,1.1
		c0.7,0.6,1.2,1.5,1.6,2.4c0.3,1,0.5,2.1,0.5,3.3h-8.4c0.1,0.8,0.4,1.4,0.8,1.9s1,0.7,1.8,0.7c0.5,0,0.9-0.1,1.2-0.3
		c0.3-0.2,0.6-0.5,0.7-0.9h3.6c-0.1,0.5-0.4,1-0.7,1.5c-0.3,0.5-0.8,0.9-1.3,1.2c-0.5,0.4-1,0.6-1.6,0.8
		C94.6,18.5,93.9,18.6,93.2,18.6z M95.2,11.1c-0.1-0.7-0.3-1.3-0.7-1.7C94.1,9,93.6,8.8,93,8.8c-0.7,0-1.3,0.2-1.6,0.6
		c-0.4,0.4-0.6,1-0.8,1.7H95.2z"/>
	<path class="st0" d="M109.5,18.6c-0.9,0-1.8-0.2-2.6-0.5c-0.8-0.3-1.4-0.7-2-1.3c-0.5-0.6-1-1.2-1.3-2s-0.4-1.6-0.4-2.5
		s0.1-1.7,0.4-2.5s0.7-1.4,1.2-2s1.2-1,1.9-1.3c0.8-0.3,1.6-0.5,2.5-0.5c0.8,0,1.5,0.1,2.2,0.3c0.6,0.2,1.2,0.5,1.7,0.9
		s0.9,0.9,1.1,1.4c0.3,0.5,0.5,1.2,0.6,1.8h-3.6c-0.1-0.5-0.3-1-0.7-1.3c-0.3-0.3-0.7-0.5-1.3-0.5c-0.8,0-1.4,0.3-1.8,0.9
		c-0.4,0.6-0.6,1.5-0.6,2.5c0,1.1,0.2,1.9,0.6,2.5s1,0.9,1.8,0.9c1.2,0,1.9-0.7,2-2h3.6c0,0.7-0.2,1.3-0.4,1.9
		c-0.3,0.6-0.6,1.1-1.1,1.5s-1.1,0.8-1.7,1C111.1,18.5,110.4,18.6,109.5,18.6z"/>
	<path class="st0" d="M122.1,18.6c-0.9,0-1.8-0.2-2.6-0.5c-0.8-0.3-1.4-0.7-2-1.3c-0.6-0.6-1-1.2-1.3-2s-0.4-1.6-0.4-2.5
		s0.1-1.7,0.4-2.5s0.7-1.4,1.3-2c0.5-0.6,1.2-1,2-1.3s1.6-0.5,2.6-0.5c0.9,0,1.8,0.2,2.6,0.5c0.8,0.3,1.4,0.7,2,1.3
		c0.5,0.6,1,1.2,1.3,2s0.4,1.6,0.4,2.5s-0.1,1.7-0.4,2.5c-0.3,0.8-0.7,1.4-1.3,2c-0.5,0.6-1.2,1-2,1.3
		C123.9,18.4,123,18.6,122.1,18.6z M122,15.9c0.8,0,1.4-0.3,1.9-1c0.4-0.6,0.6-1.5,0.6-2.6s-0.2-1.9-0.6-2.6c-0.4-0.7-1-1-1.9-1
		c-0.8,0-1.4,0.3-1.9,1c-0.4,0.7-0.6,1.5-0.6,2.6s0.2,1.9,0.6,2.6C120.6,15.6,121.2,15.9,122,15.9z"/>
	<path class="st0" d="M129.6,1.8h3.8v16.4h-3.8V1.8z"/>
	<path class="st0" d="M135.2,1.8h3.8v16.4h-3.8V1.8z"/>
	<path class="st0" d="M144.3,18.5c-0.6,0-1.1-0.1-1.6-0.2c-0.5-0.2-0.9-0.4-1.3-0.7c-0.4-0.3-0.6-0.7-0.8-1.1s-0.3-1-0.3-1.5
		c0-0.6,0.1-1.2,0.4-1.6c0.2-0.4,0.6-0.8,1-1.1s0.9-0.5,1.4-0.7s1.1-0.3,1.7-0.3c1.1-0.1,1.9-0.3,2.3-0.5c0.4-0.2,0.7-0.5,0.7-0.8
		c0-0.4-0.1-0.7-0.4-0.9c-0.3-0.2-0.7-0.3-1.2-0.3c-0.6,0-1,0.1-1.4,0.4c-0.3,0.3-0.5,0.6-0.5,1.1h-3.4c0-0.5,0.1-1.1,0.4-1.6
		c0.2-0.5,0.6-0.9,1-1.3s1-0.7,1.6-0.9c0.7-0.2,1.4-0.3,2.3-0.3s1.6,0.1,2.2,0.2c0.6,0.2,1.1,0.4,1.6,0.7c0.5,0.4,0.9,0.8,1.1,1.4
		c0.2,0.6,0.4,1.2,0.4,1.9v5.9c0,0.5,0,0.8,0.1,1.1c0.1,0.3,0.2,0.5,0.3,0.6v0.2h-3.6c-0.1-0.1-0.2-0.3-0.2-0.5
		c-0.1-0.2-0.1-0.5-0.2-0.8l0,0c-0.4,0.5-0.8,0.9-1.3,1.2C145.9,18.4,145.1,18.5,144.3,18.5z M145.4,16.1c0.7,0,1.3-0.2,1.7-0.6
		c0.4-0.4,0.7-0.9,0.7-1.5v-1.4c-0.2,0.1-0.5,0.2-0.9,0.3c-0.3,0.1-0.7,0.2-1.1,0.3c-0.7,0.2-1.2,0.4-1.6,0.6
		c-0.3,0.2-0.5,0.6-0.5,1c0,0.5,0.2,0.8,0.5,1C144.6,16,145,16.1,145.4,16.1z"/>
	<path class="st0" d="M158.6,22.3c-1.6,0-2.9-0.3-3.9-1c-1-0.6-1.6-1.6-1.8-2.8h3.6c0.1,0.3,0.3,0.6,0.6,0.8
		c0.3,0.2,0.8,0.3,1.4,0.3c0.8,0,1.4-0.2,1.7-0.6c0.4-0.4,0.5-0.9,0.5-1.7v-1.2h-0.1c-0.4,0.4-0.8,0.7-1.2,1
		c-0.5,0.3-1.1,0.4-1.8,0.4s-1.3-0.1-1.9-0.4c-0.6-0.2-1.2-0.6-1.6-1.1c-0.5-0.5-0.9-1-1.1-1.7c-0.3-0.7-0.4-1.5-0.4-2.4
		c0-0.9,0.1-1.6,0.4-2.4c0.2-0.7,0.6-1.3,1-1.9c0.4-0.5,1-0.9,1.6-1.2s1.3-0.4,2-0.4c0.8,0,1.4,0.1,2,0.4c0.5,0.3,1,0.7,1.3,1.2l0,0
		V6.5h3.6v10.6c0,0.9-0.1,1.6-0.4,2.3c-0.3,0.6-0.7,1.2-1.1,1.6c-0.5,0.5-1.1,0.8-1.9,1C160.3,22.2,159.5,22.3,158.6,22.3z
		 M158.6,14.8c0.8,0,1.4-0.3,1.8-0.8c0.4-0.6,0.6-1.3,0.6-2.1c0-0.4,0-0.8-0.1-1.1c-0.1-0.4-0.3-0.7-0.5-0.9
		c-0.2-0.3-0.5-0.5-0.8-0.6C159.3,9,159,9,158.6,9c-0.7,0-1.3,0.3-1.7,0.8s-0.6,1.2-0.6,2.1s0.2,1.6,0.6,2.1
		C157.4,14.5,157.9,14.8,158.6,14.8z"/>
	<path class="st0" d="M172,18.6c-1,0-1.8-0.2-2.6-0.5s-1.4-0.7-2-1.3c-0.5-0.6-0.9-1.2-1.2-2s-0.4-1.6-0.4-2.5s0.1-1.7,0.4-2.4
		c0.3-0.8,0.7-1.4,1.2-2s1.2-1,1.9-1.3s1.6-0.5,2.5-0.5c0.8,0,1.6,0.1,2.3,0.4s1.2,0.6,1.8,1.1c0.7,0.6,1.2,1.5,1.6,2.4
		c0.3,1,0.5,2.1,0.5,3.3h-8.4c0.1,0.8,0.4,1.4,0.8,1.9c0.4,0.5,1,0.7,1.8,0.7c0.5,0,0.9-0.1,1.2-0.3s0.6-0.5,0.7-0.9h3.6
		c-0.1,0.5-0.4,1-0.7,1.5c-0.3,0.5-0.8,0.9-1.3,1.2c-0.5,0.4-1,0.6-1.6,0.8C173.5,18.5,172.8,18.6,172,18.6z M174.1,11.1
		c-0.1-0.7-0.3-1.3-0.7-1.7s-0.9-0.6-1.5-0.6c-0.7,0-1.3,0.2-1.6,0.6c-0.4,0.4-0.6,1-0.8,1.7H174.1z"/>
	<path class="st0" d="M184.1,18.6c-1.7,0-3.1-0.4-4.1-1.1s-1.5-1.8-1.6-3.1h3.5c0.1,0.6,0.3,1,0.7,1.3s0.9,0.4,1.5,0.4
		s1-0.1,1.3-0.3s0.5-0.5,0.5-0.9c0-0.3-0.1-0.5-0.3-0.6c-0.2-0.2-0.4-0.3-0.7-0.4c-0.3-0.1-0.6-0.2-1-0.2c-0.4-0.1-0.7-0.1-1.1-0.2
		c-0.5-0.1-1-0.2-1.5-0.3s-1-0.3-1.4-0.6s-0.7-0.6-1-1c-0.2-0.4-0.4-1-0.4-1.7c0-0.6,0.1-1.2,0.4-1.6c0.3-0.5,0.6-0.9,1.1-1.2
		c0.5-0.3,1-0.5,1.6-0.7s1.3-0.2,2-0.2c1.7,0,2.9,0.3,3.8,1s1.4,1.6,1.5,2.7h-3.4c-0.1-0.5-0.3-0.9-0.6-1.1
		c-0.3-0.2-0.8-0.3-1.3-0.3s-0.8,0.1-1.2,0.3c-0.3,0.2-0.5,0.4-0.5,0.8c0,0.2,0.1,0.4,0.2,0.5c0.2,0.1,0.4,0.2,0.6,0.3
		c0.3,0.1,0.6,0.2,0.9,0.2c0.3,0.1,0.7,0.1,1.1,0.2c0.5,0.1,1,0.2,1.6,0.3c0.5,0.1,1,0.3,1.4,0.6s0.8,0.6,1.1,1.1s0.4,1.1,0.4,1.8
		c0,0.6-0.1,1.2-0.4,1.7c-0.3,0.5-0.6,0.9-1.1,1.2c-0.5,0.3-1,0.6-1.7,0.7C185.6,18.5,184.9,18.6,184.1,18.6z"/>
</g>
<g>
	<path class="st0" d="M196.3,0h3.1v3.5l3-1.8l1.5,2.7l-3,1.8l3,1.8l-1.5,2.7l-3-1.8v3.5h-3.1V8.8l-3,1.8L191.7,8l3-1.8l-3-1.8
		l1.5-2.7l3,1.8V0H196.3z"/>
</g>
<g>
	<path class="st0" d="M0.3,27.9h8.5v1.2H5.3v9.5H3.9v-9.5H0.3V27.9z"/>
	<path class="st0" d="M11.7,38.8c-0.6,0-1.1-0.1-1.6-0.3S9.2,38,8.9,37.6s-0.6-0.8-0.7-1.3c-0.2-0.5-0.3-1-0.3-1.6s0.1-1.1,0.3-1.6
		c0.2-0.5,0.4-0.9,0.8-1.3c0.3-0.4,0.7-0.7,1.2-0.9c0.5-0.2,1-0.3,1.5-0.3c0.6,0,1.1,0.1,1.5,0.3c0.4,0.2,0.8,0.5,1.1,0.9
		c0.3,0.4,0.5,0.8,0.7,1.4c0.2,0.5,0.2,1.1,0.2,1.8h-6c0,0.4,0.1,0.8,0.2,1.1c0.1,0.3,0.3,0.6,0.5,0.9c0.2,0.3,0.5,0.4,0.8,0.6
		c0.3,0.1,0.6,0.2,1,0.2c0.6,0,1-0.1,1.4-0.4c0.4-0.3,0.6-0.7,0.8-1.2H15c-0.2,0.8-0.6,1.5-1.1,1.9S12.5,38.8,11.7,38.8z M11.6,31.6
		c-0.4,0-0.7,0.1-1,0.2s-0.5,0.3-0.7,0.5s-0.4,0.5-0.5,0.8s-0.2,0.6-0.2,1h4.7c0-0.8-0.3-1.4-0.6-1.8C12.8,31.9,12.3,31.6,11.6,31.6
		z"/>
	<path class="st0" d="M18.4,37.7l4.3-5.7l0,0h-4.1v-1.1h5.8v0.7L20,37.5l0,0h4.6v1.1h-6.2C18.4,38.6,18.4,37.7,18.4,37.7z"/>
	<path class="st0" d="M25.8,27.9H27v1.5h-1.2V27.9z M25.8,30.9H27v7.8h-1.2V30.9z"/>
	<path class="st0" d="M32,38.8c-0.6,0-1.1-0.1-1.6-0.3s-0.9-0.5-1.2-0.9c-0.3-0.4-0.6-0.8-0.7-1.3c-0.2-0.5-0.3-1-0.3-1.6
		s0.1-1.1,0.3-1.6s0.4-0.9,0.8-1.3c0.3-0.4,0.7-0.7,1.2-0.9c0.5-0.2,1-0.3,1.5-0.3c0.6,0,1.1,0.1,1.5,0.3c0.4,0.2,0.8,0.5,1.1,0.9
		c0.3,0.4,0.5,0.8,0.7,1.4c0.2,0.5,0.2,1.1,0.2,1.8h-6c0,0.4,0.1,0.8,0.2,1.1s0.3,0.6,0.5,0.9c0.2,0.3,0.5,0.4,0.8,0.6
		c0.3,0.1,0.6,0.2,1,0.2c0.6,0,1-0.1,1.4-0.4c0.4-0.3,0.6-0.7,0.8-1.2h1.2c-0.2,0.8-0.6,1.5-1.1,1.9S32.9,38.8,32,38.8z M31.9,31.6
		c-0.4,0-0.7,0.1-1,0.2s-0.5,0.3-0.7,0.5s-0.4,0.5-0.5,0.8s-0.2,0.6-0.2,1h4.7c0-0.8-0.3-1.4-0.6-1.8C33.1,31.9,32.6,31.6,31.9,31.6
		z"/>
	<path class="st0" d="M37.9,31.9L37.9,31.9c0.3-0.4,0.6-0.7,1-0.9c0.4-0.2,0.9-0.3,1.4-0.3c0.8,0,1.4,0.2,1.9,0.6s0.7,1,0.7,1.9v5.4
		h-1.2v-5.3c0-0.5-0.2-0.9-0.5-1.2s-0.7-0.4-1.3-0.4c-0.3,0-0.6,0.1-0.9,0.2c-0.3,0.1-0.5,0.2-0.7,0.4S38,32.7,37.9,33
		c-0.1,0.3-0.2,0.6-0.2,0.9v4.8h-1.2v-7.8h1.2v1H37.9z"/>
	<path class="st0" d="M46.5,30.9h1.1v-2.4h1.2v2.4h1.5v1h-1.5v5c0,0.3,0.1,0.5,0.2,0.6c0.1,0.1,0.3,0.2,0.6,0.2c0.1,0,0.2,0,0.4,0
		c0.1,0,0.2,0,0.3-0.1l0,0v1.1c-0.1,0-0.3,0.1-0.5,0.1s-0.3,0-0.5,0c-0.5,0-0.9-0.1-1.2-0.3s-0.5-0.6-0.5-1.2V32h-1.1V30.9z"/>
	<path class="st0" d="M55.2,27.9h1.3l-4.3,10.7H51L55.2,27.9z"/>
	<path class="st0" d="M56.9,30.9h1.2V32l0,0c0.2-0.4,0.6-0.7,1-0.9c0.4-0.2,0.8-0.4,1.3-0.4s0.9,0.1,1.2,0.4c0.3,0.2,0.6,0.6,0.8,1
		l0,0c0.2-0.5,0.6-0.8,1-1s0.9-0.4,1.4-0.4c0.7,0,1.3,0.2,1.7,0.6c0.4,0.4,0.7,1,0.7,1.9v5.4H66v-5.4c0-0.5-0.1-0.9-0.4-1.1
		c-0.3-0.3-0.6-0.4-1-0.4c-0.2,0-0.5,0.1-0.7,0.2s-0.4,0.2-0.6,0.4c-0.2,0.2-0.3,0.4-0.4,0.7c-0.1,0.3-0.2,0.5-0.2,0.8v4.8h-1.2
		v-5.4c0-0.5-0.1-0.9-0.4-1.1c-0.2-0.3-0.6-0.4-1-0.4c-0.2,0-0.5,0.1-0.7,0.2s-0.4,0.2-0.6,0.4c-0.2,0.2-0.3,0.4-0.5,0.7
		c-0.1,0.3-0.2,0.5-0.2,0.8v4.8h-1.2C56.9,38.6,56.9,30.9,56.9,30.9z"/>
	<path class="st0" d="M73.1,31.2h-2.2v-0.8c0.3,0,0.6,0,0.9-0.1s0.5-0.2,0.8-0.3c0.2-0.2,0.4-0.4,0.6-0.6c0.2-0.3,0.2-0.6,0.3-1h1
		v10.3h-1.3v-7.5H73.1z"/>
	<path class="st0" d="M79.8,38.9c-0.5,0-1-0.1-1.4-0.2c-0.4-0.1-0.8-0.3-1.1-0.6c-0.3-0.3-0.6-0.6-0.7-1c-0.2-0.4-0.3-0.8-0.3-1.2
		h1.3c0,0.6,0.3,1,0.6,1.4c0.4,0.4,0.9,0.5,1.6,0.5c0.4,0,0.7-0.1,1-0.2s0.5-0.3,0.7-0.5c0.3-0.3,0.5-0.8,0.7-1.3
		c0.1-0.6,0.2-1.2,0.2-2l0,0c-0.3,0.4-0.7,0.7-1.2,1c-0.5,0.2-1,0.3-1.6,0.3c-0.5,0-0.9-0.1-1.3-0.3s-0.8-0.4-1.1-0.7
		c-0.3-0.3-0.6-0.7-0.7-1.1c-0.2-0.4-0.3-0.9-0.3-1.3c0-0.5,0.1-0.9,0.3-1.4s0.4-0.8,0.8-1.1c0.3-0.3,0.7-0.6,1.1-0.8
		c0.4-0.2,0.9-0.3,1.4-0.3s1,0.1,1.3,0.2c0.4,0.1,0.7,0.3,1,0.6c0.6,0.5,1,1.1,1.2,1.8c0.2,0.8,0.3,1.7,0.3,2.9c0,1-0.1,1.9-0.3,2.7
		s-0.6,1.3-1.1,1.8C81.6,38.6,80.8,38.9,79.8,38.9z M79.7,34.1c0.4,0,0.7-0.1,1-0.2c0.3-0.1,0.6-0.3,0.8-0.5
		c0.2-0.2,0.4-0.5,0.5-0.8s0.2-0.6,0.2-1s-0.1-0.7-0.2-1s-0.3-0.6-0.5-0.8c-0.2-0.2-0.5-0.4-0.8-0.5s-0.6-0.2-1-0.2s-0.7,0.1-1,0.2
		s-0.5,0.3-0.8,0.5s-0.4,0.5-0.5,0.8s-0.2,0.6-0.2,1s0.1,0.7,0.2,1s0.3,0.6,0.5,0.8s0.5,0.4,0.8,0.5C79.1,34,79.4,34.1,79.7,34.1z"
		/>
	<path class="st0" d="M86.9,40.8c-0.1,0-0.3,0-0.4,0s-0.2,0-0.3,0v-1l0,0c0.1,0,0.3,0,0.4,0c0.5,0,0.8-0.2,0.8-0.8v-8.2h1.2v8.3
		c0,0.4,0,0.7-0.1,0.9s-0.2,0.4-0.4,0.5c-0.2,0.1-0.3,0.2-0.6,0.2C87.4,40.8,87.2,40.8,86.9,40.8z M87.5,27.9h1.2v1.5h-1.2V27.9z"/>
	<path class="st0" d="M96.4,38.7c-0.8,0-1.2-0.4-1.3-1.2l0,0c-0.1,0.2-0.3,0.3-0.4,0.4c-0.2,0.1-0.3,0.3-0.6,0.4s-0.4,0.2-0.7,0.3
		c-0.3,0.1-0.6,0.1-0.9,0.1c-0.4,0-0.7,0-1-0.1s-0.6-0.2-0.8-0.4s-0.4-0.4-0.6-0.7c-0.1-0.3-0.2-0.6-0.2-1c0-0.5,0.1-0.8,0.3-1.1
		c0.2-0.3,0.4-0.5,0.7-0.7c0.3-0.2,0.7-0.3,1.1-0.4c0.4-0.1,0.9-0.2,1.3-0.3c0.3,0,0.5-0.1,0.8-0.1c0.2,0,0.4-0.1,0.6-0.2
		s0.3-0.2,0.4-0.3s0.1-0.3,0.1-0.5c0-0.4-0.2-0.8-0.5-1s-0.7-0.4-1.3-0.4c-0.6,0-1.1,0.1-1.4,0.4s-0.5,0.7-0.5,1.3h-1.2
		c0-0.4,0.1-0.7,0.2-1s0.3-0.6,0.6-0.8c0.3-0.2,0.6-0.4,1-0.5s0.8-0.2,1.3-0.2c0.4,0,0.8,0,1.1,0.1c0.4,0.1,0.7,0.2,0.9,0.4
		c0.3,0.2,0.5,0.4,0.6,0.8c0.1,0.3,0.2,0.7,0.2,1.2v3.7c0,0.3,0.1,0.6,0.2,0.7c0.1,0.2,0.3,0.2,0.7,0.1l0,0v0.9
		c-0.1,0-0.2,0.1-0.3,0.1C96.7,38.7,96.6,38.7,96.4,38.7z M92.8,37.9c0.4,0,0.8-0.1,1-0.2s0.5-0.3,0.7-0.5s0.3-0.4,0.4-0.7
		C95,36.3,95,36,95,35.8v-1.3c-0.2,0.1-0.5,0.2-0.8,0.3s-0.7,0.2-1,0.2c-0.3,0.1-0.6,0.1-0.9,0.2c-0.3,0.1-0.5,0.1-0.7,0.3
		c-0.2,0.1-0.3,0.3-0.5,0.4c-0.1,0.2-0.2,0.4-0.2,0.7s0,0.5,0.1,0.6s0.2,0.3,0.4,0.4c0.1,0.1,0.3,0.2,0.5,0.2
		C92.4,37.8,92.6,37.9,92.8,37.9z"/>
	<path class="st0" d="M99.2,31.9L99.2,31.9c0.3-0.4,0.6-0.7,1-0.9c0.4-0.2,0.9-0.3,1.4-0.3c0.8,0,1.4,0.2,1.9,0.6s0.7,1,0.7,1.9v5.4
		H103v-5.3c0-0.5-0.2-0.9-0.5-1.2s-0.7-0.4-1.3-0.4c-0.3,0-0.6,0.1-0.9,0.2s-0.5,0.2-0.7,0.4s-0.3,0.4-0.4,0.7S99,33.6,99,33.9v4.8
		h-1v-7.8h1.2V31.9z"/>
	<path class="st0" d="M110.8,38.6v-1.1l0,0c-0.3,0.4-0.6,0.7-1,0.9s-0.8,0.3-1.4,0.3c-0.8,0-1.4-0.2-1.9-0.7s-0.7-1.1-0.7-1.9v-5.4
		h1.2V36c0,0.5,0.2,0.9,0.5,1.2s0.7,0.4,1.3,0.4c0.3,0,0.6-0.1,0.8-0.2c0.2-0.1,0.5-0.3,0.6-0.5c0.2-0.2,0.3-0.4,0.4-0.7
		s0.1-0.5,0.1-0.9v-4.8h1.2v7.8h-1.1V38.6z"/>
	<path class="st0" d="M119.8,38.7c-0.8,0-1.2-0.4-1.3-1.2l0,0c-0.1,0.2-0.3,0.3-0.4,0.4c-0.2,0.1-0.3,0.3-0.6,0.4s-0.4,0.2-0.7,0.3
		c-0.3,0.1-0.6,0.1-0.9,0.1c-0.4,0-0.7,0-1-0.1s-0.6-0.2-0.8-0.4c-0.2-0.2-0.4-0.4-0.6-0.7c-0.1-0.3-0.2-0.6-0.2-1
		c0-0.5,0.1-0.8,0.3-1.1s0.4-0.5,0.7-0.7s0.7-0.3,1.1-0.4c0.4-0.1,0.9-0.2,1.3-0.3c0.3,0,0.5-0.1,0.8-0.1c0.2,0,0.4-0.1,0.6-0.2
		s0.3-0.2,0.4-0.3s0.1-0.3,0.1-0.5c0-0.4-0.2-0.8-0.5-1s-0.7-0.4-1.3-0.4c-0.6,0-1.1,0.1-1.4,0.4s-0.5,0.7-0.5,1.3h-1.2
		c0-0.4,0.1-0.7,0.2-1s0.3-0.6,0.6-0.8c0.3-0.2,0.6-0.4,1-0.5s0.8-0.2,1.3-0.2c0.4,0,0.8,0,1.1,0.1c0.3,0.1,0.7,0.2,0.9,0.4
		c0.3,0.2,0.5,0.4,0.6,0.8c0.1,0.3,0.2,0.7,0.2,1.2v3.7c0,0.3,0.1,0.6,0.2,0.7c0.1,0.2,0.3,0.2,0.7,0.1l0,0v0.9
		c-0.1,0-0.2,0.1-0.3,0.1C120.1,38.7,120,38.7,119.8,38.7z M116.1,37.9c0.4,0,0.8-0.1,1.1-0.2c0.3-0.1,0.5-0.3,0.7-0.5
		s0.3-0.4,0.4-0.7s0.1-0.5,0.1-0.7v-1.3c-0.2,0.1-0.5,0.2-0.8,0.3s-0.7,0.2-1,0.2c-0.3,0.1-0.6,0.1-0.9,0.2
		c-0.3,0.1-0.5,0.1-0.7,0.3c-0.2,0.1-0.4,0.3-0.5,0.4c-0.1,0.2-0.2,0.4-0.2,0.7s0,0.5,0.1,0.6c0.1,0.2,0.2,0.3,0.4,0.4
		c0.2,0.1,0.3,0.2,0.5,0.2C115.7,37.8,115.9,37.9,116.1,37.9z"/>
	<path class="st0" d="M122.6,32.2L122.6,32.2c0.3-0.4,0.6-0.7,1-1s0.9-0.4,1.4-0.4c0.1,0,0.2,0,0.3,0c0.1,0,0.1,0,0.2,0.1v1.2l0,0
		c-0.1,0-0.2,0-0.2-0.1c-0.1,0-0.2,0-0.3,0c-0.3,0-0.6,0.1-0.9,0.2c-0.3,0.1-0.5,0.3-0.7,0.5s-0.4,0.4-0.5,0.7s-0.2,0.6-0.2,1v4.3
		h-1.2v-7.8h1.2v1.3H122.6z"/>
	<path class="st0" d="M126.5,27.9h1.2v1.5h-1.2V27.9z M126.5,30.9h1.2v7.8h-1.2V30.9z"/>
	<path class="st0" d="M131.8,36.9c0.2-0.5,0.5-0.9,0.9-1.3c0.4-0.4,0.8-0.7,1.2-1s0.9-0.5,1.3-0.8c0.3-0.2,0.6-0.4,0.9-0.5
		c0.3-0.2,0.5-0.4,0.7-0.6c0.2-0.2,0.3-0.4,0.4-0.6c0.1-0.2,0.1-0.5,0.1-0.8c0-0.6-0.2-1.1-0.6-1.5c-0.4-0.4-0.9-0.6-1.6-0.6
		c-0.4,0-0.7,0.1-0.9,0.2c-0.3,0.1-0.5,0.3-0.7,0.5s-0.3,0.5-0.4,0.8C133,31,133,31.4,133,32h-1.3c0-0.7,0.1-1.2,0.2-1.7
		c0.2-0.4,0.4-0.8,0.7-1.1c0.3-0.3,0.7-0.6,1.2-0.7s1-0.2,1.5-0.2s1,0.1,1.4,0.2c0.4,0.2,0.8,0.4,1.1,0.7c0.3,0.3,0.5,0.6,0.7,1
		s0.2,0.8,0.2,1.3c0,0.5-0.1,0.9-0.2,1.3c-0.2,0.3-0.4,0.6-0.6,0.9c-0.3,0.3-0.6,0.5-1,0.7s-0.8,0.4-1.2,0.7
		c-0.3,0.2-0.6,0.3-0.9,0.5c-0.3,0.2-0.6,0.4-0.8,0.6c-0.3,0.2-0.5,0.4-0.7,0.7c-0.2,0.2-0.3,0.5-0.4,0.8h5.6v1.2h-7.1
		C131.4,37.9,131.6,37.4,131.8,36.9z"/>
	<path class="st0" d="M143.9,38.9c-0.6,0-1.2-0.1-1.7-0.4s-0.9-0.6-1.3-1.1s-0.6-1-0.8-1.7s-0.3-1.4-0.3-2.2s0.1-1.6,0.3-2.2
		c0.2-0.7,0.5-1.2,0.8-1.7c0.4-0.5,0.8-0.8,1.3-1.1c0.5-0.2,1-0.4,1.6-0.4s1.2,0.1,1.7,0.4c0.5,0.2,0.9,0.6,1.3,1.1
		c0.3,0.5,0.6,1,0.8,1.7s0.3,1.4,0.3,2.3c0,0.8-0.1,1.6-0.3,2.2s-0.4,1.2-0.8,1.7s-0.8,0.8-1.3,1.1S144.6,38.9,143.9,38.9z
		 M143.9,37.8c0.9,0,1.6-0.4,2-1.1c0.4-0.8,0.7-1.8,0.7-3.1c0-0.7-0.1-1.2-0.2-1.8c-0.1-0.5-0.3-1-0.5-1.4s-0.5-0.7-0.8-0.9
		s-0.7-0.3-1.2-0.3c-0.9,0-1.6,0.4-2,1.1c-0.4,0.8-0.7,1.8-0.7,3.1c0,0.6,0.1,1.2,0.2,1.8c0.1,0.5,0.3,1,0.5,1.3
		c0.2,0.4,0.5,0.7,0.8,0.9S143.5,37.8,143.9,37.8z"/>
	<path class="st0" d="M149.4,36.9c0.2-0.5,0.5-0.9,0.9-1.3c0.4-0.4,0.8-0.7,1.2-1s0.9-0.5,1.3-0.8c0.3-0.2,0.6-0.4,0.9-0.5
		c0.3-0.2,0.5-0.4,0.7-0.6c0.2-0.2,0.3-0.4,0.4-0.6c0.1-0.2,0.2-0.5,0.2-0.8c0-0.6-0.2-1.1-0.6-1.5c-0.4-0.4-0.9-0.6-1.6-0.6
		c-0.4,0-0.7,0.1-0.9,0.2c-0.3,0.1-0.5,0.3-0.7,0.5s-0.3,0.5-0.4,0.8c-0.1,0.3-0.1,0.7-0.1,1.3h-1.3c0-0.7,0.1-1.2,0.2-1.7
		c0.2-0.4,0.4-0.8,0.7-1.1c0.3-0.3,0.7-0.6,1.2-0.7s1-0.2,1.5-0.2s1,0.1,1.4,0.2s0.8,0.4,1.1,0.7c0.3,0.3,0.5,0.6,0.7,1
		s0.2,0.8,0.2,1.3c0,0.5-0.1,0.9-0.2,1.3c-0.2,0.3-0.4,0.6-0.6,0.9c-0.3,0.3-0.6,0.5-1,0.7s-0.8,0.4-1.2,0.7
		c-0.3,0.2-0.6,0.3-0.9,0.5c-0.3,0.2-0.6,0.4-0.8,0.6s-0.5,0.4-0.7,0.7s-0.3,0.5-0.4,0.8h5.6v1.2H149
		C149,37.9,149.1,37.4,149.4,36.9z"/>
	<path class="st0" d="M161.5,38.9c-0.6,0-1.2-0.1-1.7-0.4s-0.9-0.6-1.3-1.1s-0.6-1-0.8-1.7s-0.3-1.4-0.3-2.2s0.1-1.6,0.3-2.2
		c0.2-0.7,0.5-1.2,0.8-1.7s0.8-0.8,1.3-1.1s1-0.4,1.7-0.4c0.6,0,1.2,0.1,1.6,0.4s0.9,0.6,1.3,1.1s0.6,1,0.8,1.7s0.3,1.4,0.3,2.3
		c0,0.8-0.1,1.6-0.3,2.2s-0.4,1.2-0.8,1.7s-0.8,0.8-1.3,1.1S162.1,38.9,161.5,38.9z M161.5,37.8c0.9,0,1.6-0.4,2-1.1
		c0.4-0.8,0.7-1.8,0.7-3.1c0-0.7-0.1-1.2-0.2-1.8c-0.1-0.5-0.3-1-0.5-1.4s-0.5-0.7-0.8-0.9s-0.7-0.3-1.2-0.3c-0.9,0-1.6,0.4-2,1.1
		c-0.4,0.8-0.7,1.8-0.7,3.1c0,0.6,0.1,1.2,0.2,1.8c0.1,0.5,0.3,1,0.5,1.3c0.2,0.4,0.5,0.7,0.8,0.9S161.1,37.8,161.5,37.8z"/>
</g>
</svg>
