<?xml version="1.0" encoding="utf-8"?>
<!-- Generator: Adobe Illustrator 23.0.2, SVG Export Plug-In . SVG Version: 6.00 Build 0)  -->
<svg version="1.1" id="Laag_1" xmlns="http://www.w3.org/2000/svg" xmlns:xlink="http://www.w3.org/1999/xlink" x="0px" y="0px"
	 width="650px" height="129.5px" viewBox="0 0 650 129.5" style="enable-background:new 0 0 650 129.5;" xml:space="preserve">
<style type="text/css">
	.st0{fill:#FFFFFF;}
	.st1{fill:#FFED00;}
</style>
<g>
	<path class="st0" d="M27.6,44.7c-2,4-5.8,5.9-11.5,5.9c-3.9,0-7-1.1-9.4-3.4c-2.4-2.3-3.6-5.2-3.6-8.7v-2.3c0-0.4,0.1-0.6,0.3-0.9
		C3.7,35,4,34.9,4.3,34.9h9.2c0.4,0,0.6,0.1,0.9,0.4c0.2,0.2,0.3,0.5,0.3,0.9v1c0,1.8,0.4,2.8,1.2,2.8c1.1,0,1.6-1.1,1.6-3.2
		c0-0.6,0-1.3,0-2c0-0.7,0-1.6,0-2.4c-0.8,0.5-1.6,0.9-2.4,1.2s-1.6,0.4-2.5,0.4c-3.7,0-6.3-1.3-7.9-4c-1.6-2.7-2.4-6.6-2.4-11.7
		c0-5.6,1.1-9.7,3.3-12.3c2.2-2.6,5.8-4,10.7-4c4.8,0,8.4,1.7,10.8,5.1c2.2,3.2,3.2,8.9,3.2,17V25C30.4,34.4,29.5,41,27.6,44.7z
		 M17.3,16.7c-0.1-0.8-0.1-1.4-0.1-1.9v-0.1c-0.1-1.1-0.5-1.7-1.2-1.7c-0.6,0-1,0.4-1.3,1.2c-0.2,0.8-0.3,1.9-0.3,3.4
		c0,1.2,0.1,2.1,0.4,2.8c0.2,0.7,0.6,1,1.2,1c0.6,0,0.9-0.2,1.1-0.5v0.1c0.1-0.1,0.2-0.2,0.2-0.5c0.1-0.2,0.1-0.6,0.2-1.1
		C17.5,18.4,17.4,17.5,17.3,16.7z"/>
	<path class="st0" d="M72.7,13.1c0,0.4-0.1,0.6-0.4,0.9c-0.2,0.2-0.5,0.4-0.9,0.4H59.5v6.3h11.2c0.4,0,0.6,0.1,0.9,0.4
		c0.2,0.2,0.4,0.5,0.4,0.9v8.9c0,0.4-0.1,0.6-0.4,0.9c-0.2,0.2-0.5,0.3-0.9,0.3H59.5v16.6c0,0.4-0.1,0.6-0.4,0.9
		c-0.2,0.2-0.5,0.4-0.9,0.4H47.8c-0.4,0-0.6-0.1-0.9-0.4c-0.2-0.2-0.4-0.5-0.4-0.9V3.8c0-0.4,0.1-0.6,0.4-0.9
		c0.2-0.2,0.5-0.4,0.9-0.4h23.7c0.4,0,0.6,0.1,0.9,0.4c0.2,0.2,0.4,0.5,0.4,0.9L72.7,13.1z"/>
	<path class="st0" d="M101,49.5c-0.2,0.2-0.5,0.4-0.9,0.4H76.8c-0.4,0-0.6-0.1-0.9-0.4c-0.2-0.2-0.4-0.5-0.4-0.9V3.8
		c0-0.4,0.1-0.6,0.4-0.9c0.2-0.2,0.5-0.4,0.9-0.4h22.7c0.8,0,1.3,0.4,1.3,1.3v9.2c0,0.4-0.1,0.6-0.4,0.9c-0.2,0.2-0.5,0.4-0.9,0.4
		h-11v5.8h8.8c0.4,0,0.6,0.1,0.9,0.4c0.2,0.2,0.4,0.5,0.4,0.9v8.9c0,0.4-0.1,0.6-0.4,0.9c-0.2,0.2-0.5,0.4-0.9,0.4h-8.8v6.2h11.6
		c0.4,0,0.6,0.1,0.9,0.4c0.2,0.2,0.4,0.5,0.4,0.9v9.6C101.4,49,101.3,49.3,101,49.5z"/>
	<path class="st0" d="M130.4,46.5c-2.2,2.2-5.7,3.4-10.6,3.4h-14.1c-0.4,0-0.7-0.1-0.9-0.4c-0.3-0.2-0.4-0.5-0.4-0.9V3.8
		c0-0.8,0.4-1.3,1.3-1.3h13.1c4.7,0,8.2,1,10.3,2.9c2.2,2,3.3,5.2,3.3,9.6c0,2.1-0.2,4-0.6,5.6c-0.4,1.6-1.4,2.9-2.8,4
		c0.8,0.5,1.6,1.4,2.4,2.7h-0.1c1.6,2.2,2.4,5.1,2.4,8.4C133.7,40.7,132.6,44.3,130.4,46.5z M119.8,16.8c0-1.2-0.2-2.1-0.5-2.7
		c-0.3-0.6-0.9-0.9-1.7-0.9h-0.5v7.5h0.2C118.9,20.7,119.7,19.4,119.8,16.8L119.8,16.8z M120,31.8c-0.3-0.6-0.9-1-1.8-1h-1.1V39h1
		c0.9,0,1.5-0.3,1.8-0.9c0.4-0.6,0.5-1.6,0.5-3C120.5,33.5,120.3,32.4,120,31.8z"/>
	<path class="st0" d="M165.7,49.3c-0.2,0.4-0.6,0.6-1.1,0.6h-10.2c-0.2,0-0.5-0.1-0.7-0.3c-0.2-0.2-0.4-0.4-0.5-0.6
		c-0.2-0.7-0.5-1.8-0.9-3.3c-0.4-1.5-0.5-3.5-0.5-5.9v-1c0-1.5,0-3-0.1-4.5c-0.1-1.5-0.2-2.4-0.4-3c-0.2-0.7-0.9-1-2-1v18.3
		c0,0.4-0.1,0.6-0.4,0.9c-0.2,0.2-0.5,0.4-0.9,0.4h-10.5c-0.4,0-0.6-0.1-0.9-0.4c-0.2-0.2-0.4-0.5-0.4-0.9V3.8
		c0-0.8,0.4-1.3,1.3-1.3h13.8c4.7,0,8.1,1.1,10.2,3.2c2.1,2.1,3.1,5.6,3.1,10.3c0,2.2-0.2,4.3-0.6,6.1c-0.4,1.8-1.4,3.3-3.1,4.4
		c1.3,1.1,2.2,2.7,2.6,4.7c0.4,1.4,0.6,2.7,0.7,4.1c0.1,1.4,0.2,2.7,0.2,4.1v0.7c0,1.8,0.1,3.5,0.4,5c0.2,1.5,0.5,2.5,0.8,3
		C165.9,48.5,166,48.9,165.7,49.3z M151.6,14.1c-0.4-0.7-1.1-1.1-2-1.1h-0.3v8.6h0.1c1,0,1.7-0.3,2.1-1s0.6-1.7,0.6-3.2
		C152.1,15.9,151.9,14.8,151.6,14.1z"/>
	<path class="st0" d="M193,47.3c-2.6,2.3-6,3.4-10.4,3.4c-4.5,0-8.1-1.1-10.6-3.4s-3.8-5.4-3.8-9.6V3.8c0-0.4,0.1-0.6,0.4-0.9
		c0.2-0.2,0.5-0.4,0.9-0.4H180c0.8,0,1.3,0.4,1.3,1.3v32.8c0,1.4,0.4,2,1.3,2c0.9,0,1.3-0.9,1.3-2.8V3.8c0-0.8,0.4-1.3,1.3-1.3h10.5
		c0.4,0,0.6,0.1,0.9,0.4c0.2,0.2,0.4,0.5,0.4,0.9v33.9C196.8,41.8,195.5,45,193,47.3z"/>
	<path class="st0" d="M228.9,49.5c-0.3,0.3-0.6,0.4-1,0.4h-10c-0.6,0-1-0.4-1.2-1.1l-0.8-4.6h-4.1c-0.1,0.7-0.3,1.5-0.4,2.3
		c-0.2,0.8-0.3,1.5-0.4,2.3c0,0.3-0.2,0.5-0.4,0.7c-0.2,0.2-0.5,0.3-0.8,0.3h-10c-0.4,0-0.7-0.1-1-0.4c-0.3-0.3-0.4-0.6-0.3-1.1
		l7.8-44.8c0-0.3,0.2-0.5,0.4-0.7c0.2-0.2,0.5-0.3,0.8-0.3h12.7c0.3,0,0.5,0.1,0.8,0.3c0.2,0.2,0.4,0.5,0.4,0.7l7.8,44.8
		C229.3,48.9,229.2,49.2,228.9,49.5z M214.6,29.1c-0.2-1.5-0.3-2.9-0.4-4.3c-0.1-1.4-0.3-3-0.4-4.8c-0.2,2.2-0.3,4-0.4,5.4
		c-0.1,1.5-0.2,2.9-0.4,4.4s-0.2,2.6-0.3,3.3h2.4C214.9,31.9,214.8,30.6,214.6,29.1z"/>
	<path class="st0" d="M260.7,49.3c-0.2,0.4-0.6,0.6-1.1,0.6h-10.2c-0.2,0-0.5-0.1-0.7-0.3c-0.2-0.2-0.4-0.4-0.5-0.6
		c-0.2-0.7-0.5-1.8-0.9-3.3c-0.4-1.5-0.5-3.5-0.5-5.9v-1c0-1.5,0-3-0.1-4.5c-0.1-1.5-0.2-2.4-0.4-3c-0.2-0.7-0.9-1-2-1v18.3
		c0,0.4-0.1,0.6-0.4,0.9c-0.2,0.2-0.5,0.4-0.9,0.4h-10.5c-0.4,0-0.6-0.1-0.9-0.4c-0.2-0.2-0.4-0.5-0.4-0.9V3.8
		c0-0.8,0.4-1.3,1.3-1.3h13.8c4.7,0,8.1,1.1,10.2,3.2c2.1,2.1,3.1,5.6,3.1,10.3c0,2.2-0.2,4.3-0.6,6.1c-0.4,1.8-1.4,3.3-3.1,4.4
		c1.3,1.1,2.2,2.7,2.6,4.7c0.4,1.4,0.6,2.7,0.7,4.1c0.1,1.4,0.2,2.7,0.2,4.1v0.7c0,1.8,0.1,3.5,0.4,5c0.2,1.5,0.5,2.5,0.8,3
		C260.9,48.5,260.9,48.9,260.7,49.3z M246.5,14.1c-0.4-0.7-1.1-1.1-2-1.1h-0.3v8.6h0.1c1,0,1.7-0.3,2.1-1s0.6-1.7,0.6-3.2
		C247.1,15.9,246.9,14.8,246.5,14.1z"/>
	<path class="st0" d="M276.1,49.5c-0.2,0.2-0.5,0.4-0.9,0.4h-10.4c-0.4,0-0.6-0.1-0.9-0.4c-0.2-0.2-0.4-0.5-0.4-0.9V3.8
		c0-0.8,0.4-1.3,1.3-1.3h10.4c0.8,0,1.3,0.4,1.3,1.3v44.8C276.5,49,276.4,49.3,276.1,49.5z"/>
	<path class="st0" d="M300.3,49.8c-0.2,0.6-0.6,0.9-1.2,0.9h-7.5c-0.4,0-0.8-0.2-1-0.5c-0.2-0.3-0.3-0.7-0.2-1.1l13-46.4
		c0.1-0.3,0.2-0.5,0.5-0.7c0.2-0.2,0.5-0.3,0.7-0.3h7.5c0.4,0,0.8,0.2,1,0.5c0.2,0.3,0.3,0.7,0.2,1.1L300.3,49.8z"/>
	<path class="st0" d="M343.7,49.5c-0.2,0.2-0.5,0.4-0.9,0.4H333c-0.4,0-0.6-0.1-0.9-0.4c-0.2-0.2-0.3-0.5-0.3-0.9V16h-5.1
		c-0.4,0-0.7-0.1-0.9-0.4c-0.2-0.2-0.4-0.5-0.4-0.9V9.1c0-0.4,0.1-0.6,0.4-0.9c0.2-0.2,0.5-0.4,0.9-0.4c1.7,0,3.2-0.4,4.6-1.1
		c1.3-0.7,2.3-2.1,3-4.1c0.1-0.2,0.3-0.4,0.5-0.6c0.2-0.2,0.5-0.2,0.7-0.2h7.3c0.4,0,0.6,0.1,0.9,0.4c0.2,0.2,0.4,0.5,0.4,0.9v45.5
		C344.1,49,343.9,49.3,343.7,49.5z"/>
	<path class="st0" d="M372.1,44.7c-2,4-5.8,5.9-11.5,5.9c-3.9,0-7-1.1-9.4-3.4c-2.4-2.3-3.6-5.2-3.6-8.7v-2.3c0-0.4,0.1-0.6,0.3-0.9
		c0.2-0.2,0.5-0.4,0.9-0.4h9.2c0.4,0,0.6,0.1,0.9,0.4c0.2,0.2,0.3,0.5,0.3,0.9v1c0,1.8,0.4,2.8,1.2,2.8c1.1,0,1.6-1.1,1.6-3.2
		c0-0.6,0-1.3,0-2c0-0.7,0-1.6,0-2.4c-0.8,0.5-1.6,0.9-2.4,1.2s-1.6,0.4-2.5,0.4c-3.7,0-6.3-1.3-7.9-4c-1.6-2.7-2.4-6.6-2.4-11.7
		c0-5.6,1.1-9.7,3.3-12.3c2.2-2.6,5.8-4,10.7-4c4.8,0,8.4,1.7,10.8,5.1c2.2,3.2,3.2,8.9,3.2,17V25C374.9,34.4,374,41,372.1,44.7z
		 M361.9,16.7c-0.1-0.8-0.1-1.4-0.1-1.9v-0.1c-0.1-1.1-0.5-1.7-1.2-1.7c-0.6,0-1,0.4-1.3,1.2c-0.2,0.8-0.3,1.9-0.3,3.4
		c0,1.2,0.1,2.1,0.4,2.8c0.2,0.7,0.6,1,1.2,1c0.6,0,0.9-0.2,1.1-0.5v0.1c0.1-0.1,0.2-0.2,0.2-0.5c0.1-0.2,0.1-0.6,0.2-1.1
		C362,18.4,361.9,17.5,361.9,16.7z"/>
	<path class="st0" d="M427,49.5c-0.2,0.2-0.5,0.4-0.9,0.4h-9c-0.4,0-0.6-0.1-0.9-0.4c-0.2-0.2-0.4-0.5-0.4-0.9V27.8
		c0,0.1-0.1,0.7-0.2,1.8c-0.1,1.1-0.3,2.6-0.4,4.4c-0.2,1.8-0.4,3.7-0.6,5.6c-0.2,1.9-0.4,3.7-0.6,5.4c-0.2,1.7-0.4,3-0.6,3.8
		c-0.1,0.3-0.2,0.5-0.5,0.7c-0.2,0.2-0.5,0.3-0.8,0.3h-5.8c-0.3,0-0.5-0.1-0.8-0.3s-0.4-0.4-0.4-0.7l-2.4-20.1v19.8
		c0,0.4-0.1,0.6-0.4,0.9c-0.2,0.2-0.5,0.4-0.9,0.4h-9c-0.4,0-0.6-0.1-0.9-0.4c-0.2-0.2-0.3-0.5-0.3-0.9V3.8c0-0.4,0.1-0.6,0.3-0.9
		c0.2-0.2,0.5-0.4,0.9-0.4H405c0.3,0,0.5,0.1,0.8,0.3c0.2,0.2,0.4,0.4,0.5,0.7l3.2,16.2l3.1-16.2c0-0.3,0.2-0.5,0.5-0.7
		c0.3-0.2,0.5-0.3,0.8-0.3h12.3c0.8,0,1.3,0.4,1.3,1.3v44.8C427.4,49,427.2,49.3,427,49.5z"/>
	<path class="st0" d="M456.6,49.5c-0.2,0.2-0.5,0.4-0.9,0.4h-23.4c-0.4,0-0.6-0.1-0.9-0.4c-0.2-0.2-0.4-0.5-0.4-0.9V3.8
		c0-0.4,0.1-0.6,0.4-0.9c0.2-0.2,0.5-0.4,0.9-0.4H455c0.8,0,1.3,0.4,1.3,1.3v9.2c0,0.4-0.1,0.6-0.4,0.9c-0.2,0.2-0.5,0.4-0.9,0.4
		h-11v5.8h8.8c0.4,0,0.6,0.1,0.9,0.4c0.2,0.2,0.4,0.5,0.4,0.9v8.9c0,0.4-0.1,0.6-0.4,0.9c-0.2,0.2-0.5,0.4-0.9,0.4h-8.8v6.2h11.6
		c0.4,0,0.6,0.1,0.9,0.4c0.2,0.2,0.4,0.5,0.4,0.9v9.6C456.9,49,456.8,49.3,456.6,49.5z"/>
	<path class="st0" d="M472.6,49.5c-0.2,0.2-0.5,0.4-0.9,0.4h-10.4c-0.4,0-0.7-0.1-0.9-0.4c-0.2-0.2-0.4-0.5-0.4-0.9V3.8
		c0-0.8,0.4-1.3,1.3-1.3h10.4c0.8,0,1.3,0.4,1.3,1.3v44.8C473,49,472.8,49.3,472.6,49.5z"/>
	<path class="st0" d="M514.9,25.1c-1.3,2.3-2.6,4.3-4,5.9l-6.3,7.1h10.6c0.4,0,0.6,0.1,0.9,0.4c0.2,0.2,0.4,0.5,0.4,0.9v9.2
		c0,0.4-0.1,0.6-0.4,0.9c-0.2,0.2-0.5,0.4-0.9,0.4h-23.9c-0.4,0-0.6-0.1-0.9-0.4c-0.2-0.2-0.3-0.5-0.3-0.9V38.6l9.3-12.3
		c0.6-0.7,1.1-1.5,1.7-2.4c0.6-0.8,1.1-1.7,1.7-2.5c1.1-1.6,1.6-3.4,1.6-5.3c0-1.7-0.5-2.5-1.4-2.5c-1,0-1.5,0.8-1.5,2.3v3
		c0,0.4-0.1,0.6-0.4,0.9c-0.2,0.2-0.5,0.4-0.9,0.4h-9.1c-0.4,0-0.6-0.1-0.9-0.4c-0.2-0.2-0.4-0.5-0.4-0.9v-3c0-4.5,1.1-7.9,3.4-10.4
		c2.3-2.4,5.6-3.6,9.8-3.6s7.6,1.3,10,3.8c2.4,2.6,3.6,6,3.6,10.4C517,19.5,516.3,22.5,514.9,25.1z"/>
	<path class="st0" d="M543.7,46.8c-2.2,2.5-5.7,3.8-10.7,3.8s-8.5-1.3-10.7-3.8c-2.2-2.5-3.3-6.6-3.3-12.1v-17
		c0-5.5,1.1-9.6,3.3-12.1c2.2-2.5,5.8-3.8,10.7-3.8c4.9,0,8.5,1.3,10.6,3.8c2.2,2.5,3.2,6.6,3.2,12.1v17
		C547,40.3,545.9,44.3,543.7,46.8z M534.5,16c0-1.8-0.5-2.8-1.4-2.8s-1.4,0.9-1.4,2.8v20.4c0,1.8,0.5,2.8,1.5,2.8
		c0.9,0,1.3-0.9,1.3-2.8V16z"/>
	<path class="st0" d="M568,49.5c-0.2,0.2-0.5,0.4-0.9,0.4h-9.8c-0.4,0-0.6-0.1-0.9-0.4c-0.2-0.2-0.3-0.5-0.3-0.9V16H551
		c-0.4,0-0.7-0.1-0.9-0.4c-0.2-0.2-0.4-0.5-0.4-0.9V9.1c0-0.4,0.1-0.6,0.4-0.9c0.2-0.2,0.5-0.4,0.9-0.4c1.7,0,3.2-0.4,4.6-1.1
		c1.3-0.7,2.3-2.1,3-4.1c0.1-0.2,0.3-0.4,0.5-0.6c0.2-0.2,0.5-0.2,0.7-0.2h7.3c0.4,0,0.6,0.1,0.9,0.4c0.2,0.2,0.4,0.5,0.4,0.9v45.5
		C568.3,49,568.2,49.3,568,49.5z"/>
	<path class="st0" d="M596.4,44.7c-2,4-5.8,5.9-11.5,5.9c-3.9,0-7-1.1-9.4-3.4c-2.4-2.3-3.6-5.2-3.6-8.7v-2.3c0-0.4,0.1-0.6,0.3-0.9
		c0.2-0.2,0.5-0.4,0.9-0.4h9.2c0.4,0,0.6,0.1,0.9,0.4c0.2,0.2,0.3,0.5,0.3,0.9v1c0,1.8,0.4,2.8,1.2,2.8c1.1,0,1.6-1.1,1.6-3.2
		c0-0.6,0-1.3,0-2c0-0.7,0-1.6,0-2.4c-0.8,0.5-1.6,0.9-2.4,1.2s-1.6,0.4-2.5,0.4c-3.7,0-6.3-1.3-7.9-4c-1.6-2.7-2.4-6.6-2.4-11.7
		c0-5.6,1.1-9.7,3.3-12.3c2.2-2.6,5.8-4,10.7-4c4.8,0,8.4,1.7,10.8,5.1c2.2,3.2,3.2,8.9,3.2,17V25C599.2,34.4,598.2,41,596.4,44.7z
		 M586.1,16.7c-0.1-0.8-0.1-1.4-0.1-1.9v-0.1c-0.1-1.1-0.5-1.7-1.2-1.7c-0.6,0-1,0.4-1.3,1.2c-0.2,0.8-0.3,1.9-0.3,3.4
		c0,1.2,0.1,2.1,0.4,2.8c0.2,0.7,0.6,1,1.2,1c0.6,0,0.9-0.2,1.1-0.5v0.1c0.1-0.1,0.2-0.2,0.2-0.5c0.1-0.2,0.1-0.6,0.2-1.1
		C586.2,18.4,586.2,17.5,586.1,16.7z"/>
	<path class="st1" d="M5.6,129.1v-40H13l9.8,21.2H23l9.8-21.2h7.4v40h-7.7v-24.3h-0.2L24.8,122H21l-7.5-17.2h-0.2v24.3H5.6z"/>
	<path class="st1" d="M77.3,89.1v31c0,1.3-0.3,2.5-0.9,3.6c-0.6,1.1-1.5,2.1-2.7,3c-1.2,0.9-2.5,1.5-4,2c-1.5,0.5-3.1,0.7-4.8,0.7
		c-1.7,0-3.3-0.2-4.8-0.7c-1.5-0.5-2.8-1.2-3.9-2c-1.2-0.9-2.1-1.8-2.7-3c-0.7-1.1-1-2.3-1-3.6v-31h7.7v30.5c0,1.4,0.5,2.5,1.4,3.1
		c0.9,0.7,2,1,3.4,1s2.5-0.3,3.4-1s1.4-1.7,1.4-3.1V89.1H77.3z"/>
	<path class="st1" d="M114.4,100.6h-7.7v-1.3c0-1.3-0.4-2.4-1.2-3.4c-0.8-1-2.2-1.4-4.2-1.4c-1.1,0-1.9,0.2-2.6,0.4
		c-0.7,0.3-1.2,0.7-1.6,1.1c-0.4,0.5-0.7,1-0.8,1.7c-0.2,0.6-0.2,1.3-0.2,1.9c0,0.8,0,1.4,0.1,2c0.1,0.5,0.3,1,0.6,1.4
		c0.3,0.4,0.7,0.8,1.3,1.1c0.6,0.3,1.4,0.6,2.4,0.9l5.9,1.7c1.7,0.5,3.1,1.1,4.1,1.7c1.1,0.7,1.9,1.4,2.5,2.3
		c0.6,0.9,0.9,1.9,1.1,3.1c0.2,1.1,0.3,2.4,0.3,3.9c0,1.7-0.2,3.3-0.7,4.7c-0.5,1.4-1.2,2.7-2.2,3.7c-1.1,1-2.4,1.9-4.1,2.5
		c-1.7,0.6-3.8,0.9-6.2,0.9c-1.9,0-3.6-0.2-5.2-0.7c-1.6-0.5-3-1.2-4.1-2c-1.2-0.9-2.1-1.9-2.7-3c-0.7-1.1-1-2.4-1-3.7v-2.1h7.7v1.8
		c0,1,0.4,2,1.2,2.8c0.8,0.8,2.2,1.3,4.2,1.3c1.3,0,2.3-0.1,3-0.4c0.7-0.3,1.3-0.7,1.7-1.2c0.4-0.5,0.6-1.2,0.7-1.9
		c0.1-0.7,0.1-1.5,0.1-2.4c0-1-0.1-1.9-0.2-2.6c-0.1-0.7-0.3-1.2-0.6-1.6c-0.4-0.4-0.8-0.7-1.4-1c-0.6-0.3-1.3-0.5-2.3-0.8l-5.5-1.7
		c-3.3-1-5.5-2.4-6.6-4c-1.1-1.7-1.7-3.8-1.7-6.3c0-1.5,0.3-2.9,0.8-4.3c0.6-1.3,1.4-2.5,2.5-3.5c1.1-1,2.4-1.8,4-2.3
		c1.6-0.6,3.6-0.9,5.8-0.9c1.9,0,3.6,0.3,5.2,0.8c1.6,0.5,2.9,1.2,4.1,2.1c2.3,1.8,3.5,3.9,3.5,6.2V100.6z"/>
	<path class="st1" d="M125.3,129.1v-40h22.8v5.4h-15.2v11.7h13.2v5.4h-13.2v11.7h15.2v5.7H125.3z"/>
	<path class="st1" d="M183,89.1v31c0,1.3-0.3,2.5-0.9,3.6c-0.6,1.1-1.5,2.1-2.7,3c-1.2,0.9-2.5,1.5-4,2c-1.5,0.5-3.1,0.7-4.8,0.7
		c-1.7,0-3.3-0.2-4.8-0.7c-1.5-0.5-2.8-1.2-3.9-2c-1.2-0.9-2.1-1.8-2.7-3c-0.7-1.1-1-2.3-1-3.6v-31h7.7v30.5c0,1.4,0.5,2.5,1.4,3.1
		c0.9,0.7,2,1,3.4,1c1.4,0,2.5-0.3,3.4-1c0.9-0.7,1.4-1.7,1.4-3.1V89.1H183z"/>
	<path class="st1" d="M195.3,129.1v-40h7.4l9.8,21.2h0.2l9.8-21.2h7.4v40h-7.7v-24.3H222l-7.6,17.2h-3.8l-7.5-17.2h-0.2v24.3H195.3z
		"/>
	<path class="st1" d="M261.3,129.1v-40h22.8v5.4h-15.2v12.1h13.2v5.4h-13.2v17.1H261.3z"/>
	<path class="st1" d="M294.2,129.1v-40h7.7v34.3H317v5.7H294.2z"/>
	<path class="st1" d="M327.1,129.1v-40h22.8v5.4h-15.2v11.7H348v5.4h-13.2v11.7h15.2v5.7H327.1z"/>
	<path class="st1" d="M360,129.1v-40h7.7v17.1h9.5V89.1h7.7v40h-7.7v-17.8h-9.5v17.8H360z"/>
	<path class="st1" d="M397.3,129.1v-40h7.7v40H397.3z"/>
	<path class="st1" d="M422.6,129.1V94.5h-8.9v-5.4h25.4v5.4h-8.9v34.6H422.6z"/>
	<path class="st1" d="M447.6,129.1v-40h22.8v5.4h-15.2v11.7h13.2v5.4h-13.2v11.7h15.2v5.7H447.6z"/>
</g>
</svg>
