<?xml version="1.0" encoding="utf-8"?>
<!-- Generator: Adobe Illustrator 24.0.0, SVG Export Plug-In . SVG Version: 6.00 Build 0)  -->
<svg version="1.1" id="Laag_1" xmlns="http://www.w3.org/2000/svg" xmlns:xlink="http://www.w3.org/1999/xlink" x="0px" y="0px"
	 width="188.2px" height="16.4px" viewBox="0 0 188.2 16.4" style="enable-background:new 0 0 188.2 16.4;" xml:space="preserve">
<style type="text/css">
	.st0{fill:#FFFFFF;}
</style>
<g>
	<path class="st0" d="M6.1,13.1c-1.6,0-2.9-0.5-4-1.6c-1.1-1.1-1.6-2.4-1.6-4c0-1.6,0.5-2.9,1.6-4c1.1-1.1,2.4-1.6,4-1.6
		c1.6,0,2.9,0.5,4,1.6s1.6,2.4,1.6,3.9c0,1.6-0.5,2.9-1.6,4C9,12.5,7.7,13.1,6.1,13.1z M6.1,12.4c1.3,0,2.5-0.5,3.4-1.4
		c1-0.9,1.4-2.1,1.4-3.6c0-1.4-0.5-2.6-1.4-3.5C8.6,3,7.5,2.5,6.1,2.5C4.8,2.5,3.6,3,2.7,3.9C1.7,4.9,1.3,6,1.3,7.5s0.5,2.6,1.4,3.5
		C3.7,11.9,4.8,12.4,6.1,12.4z M6.1,10.6c-0.9,0-1.6-0.3-2.1-0.8C3.5,9.2,3.2,8.5,3.2,7.5V7.4c0-0.9,0.3-1.6,0.8-2.2
		c0.6-0.6,1.2-0.8,2.1-0.8c0.7,0,1.3,0.2,1.8,0.5c0.5,0.4,0.7,0.9,0.8,1.6H7.6C7.4,5.7,7,5.3,6.1,5.3c-0.5,0-0.9,0.2-1.3,0.6
		C4.6,6.2,4.4,6.8,4.4,7.4v0.1c0,0.7,0.2,1.2,0.4,1.6c0.3,0.4,0.7,0.5,1.3,0.5c0.9,0,1.4-0.4,1.5-1.3h1.1C8.7,9.1,8.4,9.6,8,10
		C7.5,10.4,6.9,10.6,6.1,10.6z"/>
	<path class="st0" d="M22.5,13.1c-1.6,0-2.8-0.5-3.7-1.5c-0.9-1-1.4-2.3-1.4-4V7.4c0-1.6,0.5-2.9,1.4-4c1-1,2.2-1.6,3.7-1.6
		c1.2,0,2.2,0.3,3,0.9c0.8,0.6,1.3,1.5,1.4,2.6h-1.3c-0.3-1.7-1.3-2.5-3.1-2.5c-1.1,0-2,0.4-2.7,1.2c-0.7,0.8-1,1.9-1,3.3v0.1
		c0,1.4,0.3,2.5,1,3.3c0.7,0.8,1.6,1.2,2.7,1.2c0.9,0,1.6-0.2,2.2-0.7c0.6-0.5,0.9-1.1,1.1-2h1.2c-0.2,1.2-0.7,2.2-1.5,2.8
		C24.8,12.7,23.8,13.1,22.5,13.1z"/>
	<path class="st0" d="M32.3,13.1c-1.1,0-2.1-0.4-2.8-1.1c-0.7-0.8-1.1-1.7-1.1-2.9V8.9c0-1.2,0.4-2.2,1.1-2.9
		c0.7-0.8,1.7-1.1,2.8-1.1c1.1,0,2.1,0.4,2.8,1.1c0.7,0.8,1.1,1.7,1.1,2.9V9c0,1.2-0.4,2.2-1.1,2.9C34.4,12.7,33.4,13.1,32.3,13.1z
		 M32.3,12c0.8,0,1.4-0.3,1.9-0.8c0.5-0.5,0.7-1.3,0.7-2.2V8.9c0-0.9-0.2-1.7-0.7-2.2c-0.5-0.5-1.1-0.8-1.9-0.8
		c-0.8,0-1.4,0.3-1.9,0.8c-0.5,0.5-0.7,1.3-0.7,2.2V9c0,0.9,0.2,1.6,0.7,2.2C30.9,11.7,31.5,12,32.3,12z"/>
	<path class="st0" d="M38.2,15.7V4.9h1.3v1.3c0.2-0.4,0.6-0.8,1.1-1c0.5-0.3,1-0.4,1.6-0.4c1.1,0,1.9,0.4,2.6,1.1
		c0.7,0.7,1,1.7,1,2.9v0.1c0,1.2-0.3,2.2-1,3c-0.7,0.8-1.5,1.1-2.6,1.1c-0.6,0-1.2-0.1-1.6-0.4c-0.5-0.3-0.8-0.6-1.1-1v4.1H38.2z
		 M42,12c0.8,0,1.4-0.3,1.8-0.8S44.5,10,44.5,9V8.9c0-1-0.2-1.7-0.7-2.2c-0.5-0.5-1.1-0.8-1.8-0.8c-0.8,0-1.4,0.3-1.9,0.8
		s-0.7,1.3-0.7,2.2V9c0,1,0.2,1.7,0.7,2.2C40.6,11.7,41.2,12,42,12z"/>
	<path class="st0" d="M48.5,15.7l1.5-3.6l-3.1-7.1h1.4l2.4,5.7l2.2-5.7h1.3l-4.4,10.7H48.5z"/>
	<path class="st0" d="M55.8,12.9v-8h1.3v1.4c0.3-0.5,0.6-0.9,1-1.1C58.5,5,59,4.8,59.7,4.8V6c-0.9,0-1.5,0.2-2,0.6
		c-0.4,0.4-0.7,1-0.7,1.9v4.4H55.8z"/>
	<path class="st0" d="M62.8,3c-0.2,0.2-0.4,0.2-0.6,0.2c-0.2,0-0.4-0.1-0.6-0.2c-0.2-0.2-0.2-0.4-0.2-0.6c0-0.2,0.1-0.4,0.2-0.6
		c0.2-0.2,0.4-0.2,0.6-0.2c0.2,0,0.4,0.1,0.6,0.2C62.9,2,63,2.2,63,2.4C63,2.7,62.9,2.9,62.8,3z M61.6,12.9v-8h1.3v8H61.6z"/>
	<path class="st0" d="M68.6,15.8c-1.1,0-2-0.2-2.6-0.7c-0.6-0.5-0.9-1-1.1-1.8h1.3c0.2,0.9,0.9,1.4,2.3,1.4c0.8,0,1.4-0.2,1.9-0.6
		c0.4-0.4,0.7-1,0.7-1.9v-1.2c-0.2,0.4-0.6,0.8-1.1,1.1c-0.5,0.3-1,0.4-1.6,0.4c-1,0-1.9-0.4-2.6-1.1c-0.7-0.7-1-1.6-1-2.7V8.8
		c0-1.1,0.4-2,1.1-2.8c0.7-0.8,1.6-1.2,2.7-1.2c1.2,0,2,0.5,2.6,1.4V4.9h1.3v7.4c0,1.1-0.4,2-1.1,2.6C70.7,15.5,69.8,15.8,68.6,15.8
		z M68.6,11.6c0.8,0,1.4-0.3,1.9-0.8c0.5-0.5,0.7-1.2,0.7-2.1V8.7c0-0.9-0.2-1.6-0.7-2.1c-0.4-0.5-1.1-0.7-1.9-0.7
		c-0.8,0-1.4,0.3-1.9,0.8c-0.5,0.5-0.7,1.2-0.7,2.1v0.1c0,0.8,0.2,1.5,0.7,2C67.3,11.4,67.9,11.6,68.6,11.6z"/>
	<path class="st0" d="M75,12.9V1.1h1.3v5.1c0.2-0.4,0.5-0.7,1-1c0.4-0.3,1-0.4,1.6-0.4c0.9,0,1.6,0.3,2.1,0.8s0.7,1.3,0.7,2.4v4.9
		h-1.3v-5c0-0.7-0.2-1.2-0.5-1.5c-0.3-0.3-0.8-0.5-1.4-0.5c-0.6,0-1.1,0.2-1.6,0.6c-0.4,0.4-0.6,0.9-0.6,1.6v4.8H75z"/>
	<path class="st0" d="M86.5,13c-0.7,0-1.2-0.2-1.6-0.6c-0.4-0.4-0.5-0.9-0.5-1.5V6h-1.1V4.9h1.1V3.1h1.3v1.8h1.9V6h-1.9v4.8
		c0,0.8,0.3,1.2,1,1.2c0.4,0,0.7-0.1,1-0.2v1.1C87.3,13,86.9,13,86.5,13z"/>
	<path class="st0" d="M93.6,12.9V2h6.4v1.1h-5V7h3.9V8H95v4.9H93.6z"/>
	<path class="st0" d="M103.1,3c-0.2,0.2-0.4,0.2-0.6,0.2c-0.2,0-0.4-0.1-0.6-0.2c-0.2-0.2-0.2-0.4-0.2-0.6c0-0.2,0.1-0.4,0.2-0.6
		c0.2-0.2,0.4-0.2,0.6-0.2c0.2,0,0.4,0.1,0.6,0.2c0.2,0.2,0.3,0.4,0.3,0.6C103.3,2.7,103.3,2.9,103.1,3z M101.9,12.9v-8h1.3v8H101.9
		z"/>
	<path class="st0" d="M109,13.1c-1.1,0-2.1-0.4-2.8-1.1c-0.7-0.8-1.1-1.7-1.1-2.9V8.9c0-1.2,0.4-2.2,1.1-2.9
		c0.7-0.8,1.7-1.1,2.8-1.1s2.1,0.4,2.8,1.1c0.7,0.8,1.1,1.7,1.1,2.9V9c0,1.2-0.4,2.2-1.1,2.9C111.1,12.7,110.2,13.1,109,13.1z
		 M109.1,12c0.8,0,1.4-0.3,1.9-0.8c0.5-0.5,0.7-1.3,0.7-2.2V8.9c0-0.9-0.2-1.7-0.7-2.2c-0.5-0.5-1.1-0.8-1.9-0.8
		c-0.8,0-1.4,0.3-1.9,0.8s-0.7,1.3-0.7,2.2V9c0,0.9,0.2,1.6,0.7,2.2S108.3,12,109.1,12z"/>
	<path class="st0" d="M114.9,12.9v-8h1.3v1.3c0.2-0.4,0.5-0.7,1-1c0.4-0.3,1-0.4,1.6-0.4c0.9,0,1.6,0.3,2.1,0.8
		c0.5,0.5,0.7,1.3,0.7,2.4v4.9h-1.3v-5c0-0.7-0.2-1.2-0.5-1.5c-0.3-0.3-0.8-0.5-1.4-0.5c-0.6,0-1.1,0.2-1.6,0.6
		c-0.4,0.4-0.6,0.9-0.6,1.6v4.8H114.9z"/>
	<path class="st0" d="M126.1,13.1c-0.8,0-1.4-0.2-1.9-0.6c-0.5-0.4-0.7-1-0.7-1.8c0-0.9,0.4-1.5,1.1-1.9c0.8-0.4,1.7-0.6,2.9-0.6
		h1.1V7.7c0-0.6-0.1-1.1-0.4-1.4c-0.3-0.3-0.7-0.4-1.3-0.4c-1.1,0-1.7,0.5-1.8,1.4h-1.3c0.1-0.9,0.4-1.5,1-1.9
		c0.6-0.4,1.3-0.6,2.1-0.6c1.9,0,2.9,0.9,2.9,2.9v5.3h-1.3v-1C127.9,12.7,127.1,13.1,126.1,13.1z M126.2,12c0.7,0,1.3-0.2,1.7-0.5
		c0.4-0.3,0.7-0.8,0.7-1.4v-1h-1.1c-1.8,0-2.8,0.5-2.8,1.6C124.7,11.6,125.2,12,126.2,12z"/>
	<path class="st0" d="M141,13.1c-1.6,0-2.8-0.5-3.7-1.5c-0.9-1-1.4-2.3-1.4-4V7.4c0-1.6,0.5-2.9,1.4-4c1-1,2.2-1.6,3.7-1.6
		c1.2,0,2.2,0.3,3,0.9c0.8,0.6,1.3,1.5,1.4,2.6h-1.3c-0.3-1.7-1.3-2.5-3.1-2.5c-1.1,0-2,0.4-2.7,1.2c-0.7,0.8-1,1.9-1,3.3v0.1
		c0,1.4,0.3,2.5,1,3.3c0.7,0.8,1.6,1.2,2.7,1.2c0.9,0,1.6-0.2,2.2-0.7c0.6-0.5,0.9-1.1,1.1-2h1.2c-0.2,1.2-0.7,2.2-1.5,2.8
		C143.2,12.7,142.2,13.1,141,13.1z"/>
	<path class="st0" d="M147.5,12.9V1.1h1.3v11.8H147.5z"/>
	<path class="st0" d="M153.3,13.1c-0.8,0-1.4-0.2-1.9-0.6c-0.5-0.4-0.7-1-0.7-1.8c0-0.9,0.4-1.5,1.1-1.9c0.8-0.4,1.7-0.6,2.9-0.6
		h1.1V7.7c0-0.6-0.1-1.1-0.4-1.4s-0.7-0.4-1.3-0.4c-1.1,0-1.7,0.5-1.8,1.4H151c0.1-0.9,0.4-1.5,1-1.9c0.6-0.4,1.3-0.6,2.1-0.6
		c1.9,0,2.9,0.9,2.9,2.9v5.3h-1.3v-1C155.2,12.7,154.4,13.1,153.3,13.1z M153.5,12c0.7,0,1.3-0.2,1.7-0.5c0.4-0.3,0.7-0.8,0.7-1.4
		v-1h-1.1c-1.8,0-2.8,0.5-2.8,1.6C152,11.6,152.5,12,153.5,12z"/>
	<path class="st0" d="M159.6,12.9v-8h1.3v1.4c0.3-0.5,0.6-0.9,1-1.1c0.4-0.3,0.9-0.4,1.6-0.4V6c-0.9,0-1.5,0.2-2,0.6
		c-0.4,0.4-0.7,1-0.7,1.9v4.4H159.6z"/>
	<path class="st0" d="M165.3,12.9V1.1h1.3v7.5l3.3-3.7h1.5l-3.4,3.7l3.7,4.3h-1.5l-3.5-4.1v4.1H165.3z"/>
</g>
</svg>
