<?xml version="1.0" encoding="utf-8"?>
<!-- Generator: Adobe Illustrator 24.0.0, SVG Export Plug-In . SVG Version: 6.00 Build 0)  -->
<svg version="1.1" id="Laag_1" xmlns="http://www.w3.org/2000/svg" xmlns:xlink="http://www.w3.org/1999/xlink" x="0px" y="0px"
	 width="66px" height="37.6px" viewBox="0 0 66 37.6" style="enable-background:new 0 0 66 37.6;" xml:space="preserve">
<style type="text/css">
	.st0{fill:#FFFFFF;}
</style>
<g>
	<path class="st0" d="M6.2,2.5C6.2,3.4,5.8,4,5,4.4c0.9,0.4,1.4,1,1.4,1.9c0,1.7-1.6,2.5-3.2,2.5c-1.3,0-2.3-0.4-3-1.2l1.1-1.3
		C1.8,6.8,2.4,7,3.1,7c0.7,0,1.3-0.3,1.3-0.9c0-0.6-0.7-0.9-1.5-0.9H2V3.5h1c0.7,0,1.3-0.3,1.3-0.9c0-0.6-0.5-0.8-1.2-0.8
		c-0.8,0-1.3,0.4-1.7,0.8L0.2,1.4c0.6-0.7,1.5-1.3,2.9-1.3C5,0.1,6.2,1,6.2,2.5z"/>
	<path class="st0" d="M16.4,5.7c0,1.8-1.4,3.1-3.2,3.1S10,7.5,10,5.7s1.3-3.1,3.2-3.1S16.4,3.9,16.4,5.7z M12,5.7
		C12,6.5,12.5,7,13.2,7c0.7,0,1.3-0.6,1.3-1.3S14,4.3,13.2,4.3C12.5,4.3,12,4.9,12,5.7z"/>
	<path class="st0" d="M19.8,4.7l1.4-1.9h2.3l-2.2,2.8l2.2,3.1h-2.3l-1.5-2.3h-0.4v2.3h-1.9V0h1.9v4.7H19.8z"/>
	<path class="st0" d="M26.6,4.4v1.7c0,0.7,0.4,0.9,0.8,0.9c0.4,0,0.7-0.2,1-0.4l0.6,1.5C28.5,8.5,28,8.8,27,8.8
		c-1.6,0-2.3-0.9-2.3-2.4v-2h-1.1V2.8h1.1V1h1.9v1.7h2v1.7H26.6z"/>
	<path class="st0" d="M35.8,5.7c0,1.8-1.4,3.1-3.2,3.1s-3.2-1.3-3.2-3.1s1.3-3.1,3.2-3.1S35.8,3.9,35.8,5.7z M31.3,5.7
		c0,0.8,0.5,1.3,1.3,1.3c0.7,0,1.3-0.6,1.3-1.3s-0.5-1.3-1.3-1.3C31.8,4.3,31.3,4.9,31.3,5.7z"/>
	<path class="st0" d="M43,5.7c0,1.7-1.2,3.1-2.7,3.1c-0.8,0-1.3-0.3-1.7-0.8v0.6h-1.8V0h1.9v3.3c0.4-0.4,0.9-0.7,1.6-0.7
		C41.8,2.6,43,4,43,5.7z M38.6,5.7c0,0.8,0.5,1.3,1.3,1.3c0.8,0,1.3-0.6,1.3-1.3s-0.5-1.3-1.3-1.3C39.1,4.3,38.6,4.9,38.6,5.7z"/>
	<path class="st0" d="M49.7,5.7c0,0.2,0,0.5,0,0.6h-4c0.2,0.6,0.6,0.9,1.3,0.9c0.4,0,0.9-0.2,1.3-0.5l1.2,1.1c-0.6,0.6-1.5,1-2.6,1
		c-1.8,0-3.1-1.2-3.1-3.1c0-1.8,1.2-3.1,3-3.1C48.5,2.6,49.7,3.9,49.7,5.7z M45.6,5.1h2.1c-0.1-0.6-0.5-0.9-1.1-0.9
		C46.1,4.2,45.8,4.5,45.6,5.1z"/>
	<path class="st0" d="M54.7,2.7l-0.2,1.9c-0.3-0.1-0.6-0.2-0.9-0.2c-0.7,0-1.1,0.3-1.1,1.1v3.2h-1.9V2.8h1.8v0.7
		c0.3-0.6,0.9-0.8,1.6-0.8C54.4,2.6,54.6,2.6,54.7,2.7z"/>
	<path class="st0" d="M3,18.8v1.7c0,0.7,0.4,0.9,0.8,0.9c0.4,0,0.7-0.2,1-0.4l0.6,1.5c-0.6,0.4-1.1,0.7-2.1,0.7
		c-1.6,0-2.3-0.9-2.3-2.4v-2H0v-1.7h1.1v-1.7H3v1.7h2v1.7H3z"/>
	<path class="st0" d="M5.4,24.2l5.1-10.4h1.9L7.3,24.2H5.4z"/>
	<path class="st0" d="M21.3,19.2V23h-1.9v-3.2c0-0.7-0.3-1.1-0.9-1.1c-0.5,0-1,0.3-1,1.1V23h-1.9v-3.2c0-0.7-0.3-1.1-0.9-1.1
		c-0.5,0-1,0.3-1,1.1V23h-1.9v-5.9h1.8v0.7c0.4-0.6,1-0.9,1.8-0.9c0.8,0,1.4,0.4,1.8,1c0.4-0.7,1-1,1.9-1
		C20.4,17,21.3,17.8,21.3,19.2z"/>
	<path class="st0" d="M3.2,34.6c-1.9,0-3-1.2-3-2.8c0-1.7,1.4-2.9,3.3-2.9c1.9,0,3.3,1.2,3.3,2.9c0,0.8-0.3,1.5-0.8,2.3l-2.2,3.3
		H1.3l2-2.8H3.2z M4.7,31.8c0-0.7-0.5-1.2-1.2-1.2c-0.7,0-1.2,0.5-1.2,1.2c0,0.7,0.5,1.2,1.2,1.2C4.1,33,4.7,32.5,4.7,31.8z"/>
	<path class="st0" d="M16,33.6v3.9h-1.9v-3.2c0-0.7-0.3-1.1-0.9-1.1c-0.5,0-1,0.3-1,1.1v3.2h-1.9v-5.9h1.8v0.7
		c0.4-0.6,1-0.9,1.8-0.9C15.1,31.4,16,32.2,16,33.6z"/>
	<path class="st0" d="M23.3,34.5c0,1.8-1.4,3.1-3.2,3.1S17,36.3,17,34.5s1.3-3.1,3.2-3.1S23.3,32.7,23.3,34.5z M18.9,34.5
		c0,0.8,0.5,1.3,1.3,1.3c0.7,0,1.3-0.6,1.3-1.3s-0.5-1.3-1.3-1.3C19.4,33.1,18.9,33.7,18.9,34.5z"/>
	<path class="st0" d="M25.8,37.4l-2.3-5.9h2l1.3,3.8l1.3-3.8h2l-2.2,5.9H25.8z"/>
	<path class="st0" d="M36.3,34.5c0,0.2,0,0.5,0,0.6h-4c0.2,0.6,0.6,0.9,1.3,0.9c0.4,0,0.9-0.2,1.3-0.5l1.2,1.1c-0.6,0.6-1.5,1-2.6,1
		c-1.8,0-3.1-1.2-3.1-3.1c0-1.8,1.2-3.1,3-3.1C35.1,31.4,36.3,32.7,36.3,34.5z M32.3,33.9h2.1c-0.1-0.6-0.5-0.9-1.1-0.9
		C32.8,33,32.4,33.3,32.3,33.9z"/>
	<path class="st0" d="M46.7,33.6v3.9h-1.9v-3.2c0-0.7-0.3-1.1-0.9-1.1c-0.5,0-1,0.3-1,1.1v3.2h-1.9v-3.2c0-0.7-0.3-1.1-0.9-1.1
		c-0.5,0-1,0.3-1,1.1v3.2h-1.9v-5.9h1.8v0.7c0.4-0.6,1-0.9,1.8-0.9c0.8,0,1.4,0.4,1.8,1c0.4-0.7,1-1,1.9-1
		C45.9,31.4,46.7,32.2,46.7,33.6z"/>
	<path class="st0" d="M54.2,34.5c0,1.7-1.2,3.1-2.7,3.1c-0.8,0-1.3-0.3-1.7-0.8v0.6H48v-8.6h1.9v3.3c0.4-0.4,0.9-0.7,1.6-0.7
		C53.1,31.4,54.2,32.8,54.2,34.5z M49.8,34.5c0,0.8,0.5,1.3,1.3,1.3c0.8,0,1.3-0.6,1.3-1.3s-0.5-1.3-1.3-1.3
		C50.3,33.1,49.8,33.7,49.8,34.5z"/>
	<path class="st0" d="M60.9,34.5c0,0.2,0,0.5,0,0.6h-4c0.2,0.6,0.6,0.9,1.3,0.9c0.4,0,0.9-0.2,1.3-0.5l1.2,1.1c-0.6,0.6-1.5,1-2.6,1
		c-1.8,0-3.1-1.2-3.1-3.1c0-1.8,1.2-3.1,3-3.1C59.7,31.4,60.9,32.7,60.9,34.5z M56.9,33.9H59C58.9,33.3,58.5,33,58,33
		C57.4,33,57,33.3,56.9,33.9z"/>
	<path class="st0" d="M66,31.5l-0.2,1.9c-0.3-0.1-0.6-0.2-0.9-0.2c-0.7,0-1.1,0.3-1.1,1.1v3.2h-1.9v-5.9h1.8v0.7
		c0.3-0.6,0.9-0.8,1.6-0.8C65.6,31.4,65.8,31.4,66,31.5z"/>
</g>
</svg>
