<?xml version="1.0" encoding="utf-8"?>
<!-- Generator: Adobe Illustrator 24.3.0, SVG Export Plug-In . SVG Version: 6.00 Build 0)  -->
<svg version="1.1" id="Laag_1" xmlns="http://www.w3.org/2000/svg" xmlns:xlink="http://www.w3.org/1999/xlink" x="0px" y="0px"
	 width="176.6px" height="23.9px" viewBox="0 0 176.6 23.9" style="enable-background:new 0 0 176.6 23.9;" xml:space="preserve">
<style type="text/css">
	.st0{fill:#000000;}
</style>
<g>
	<path class="st0" d="M9.8,23.2L4.5,13H4.4v10.3H0V0.8h4.4v9.2h0.1l4.6-9.2H14L8.6,11.5l6.3,11.8H9.8z"/>
	<path class="st0" d="M30.8,17.1c0,0.9-0.2,1.8-0.5,2.7s-0.9,1.6-1.5,2.2c-0.6,0.6-1.3,1.1-2.2,1.5c-0.8,0.4-1.7,0.5-2.7,0.5
		c-0.9,0-1.8-0.2-2.7-0.5c-0.8-0.4-1.6-0.8-2.2-1.5c-0.6-0.6-1.1-1.3-1.5-2.2c-0.4-0.8-0.5-1.7-0.5-2.7V6.8c0-0.9,0.2-1.8,0.5-2.7
		c0.4-0.8,0.8-1.6,1.5-2.2c0.6-0.6,1.3-1.1,2.2-1.5C22.2,0.2,23.1,0,24,0c0.9,0,1.8,0.2,2.7,0.5c0.8,0.4,1.5,0.8,2.2,1.5
		c0.6,0.6,1.1,1.3,1.5,2.2c0.4,0.8,0.5,1.7,0.5,2.7V17.1z M26.4,6.8c0-0.7-0.2-1.2-0.7-1.7c-0.5-0.5-1-0.7-1.7-0.7s-1.3,0.2-1.7,0.7
		c-0.5,0.5-0.7,1-0.7,1.7v10.3c0,0.7,0.2,1.3,0.7,1.7c0.5,0.5,1,0.7,1.7,0.7c0.7,0,1.2-0.2,1.7-0.7c0.5-0.5,0.7-1,0.7-1.7V6.8z"/>
	<path class="st0" d="M48.5,17.1c0,0.9-0.2,1.8-0.5,2.7c-0.4,0.8-0.8,1.6-1.5,2.2s-1.3,1.1-2.2,1.5c-0.8,0.4-1.7,0.5-2.7,0.5
		s-1.8-0.2-2.7-0.5c-0.8-0.4-1.6-0.8-2.2-1.5s-1.1-1.3-1.5-2.2s-0.5-1.7-0.5-2.7V6.8c0-0.9,0.2-1.8,0.5-2.7c0.4-0.8,0.8-1.6,1.5-2.2
		s1.3-1.1,2.2-1.5C39.8,0.2,40.7,0,41.7,0c0.9,0,1.8,0.2,2.7,0.5c0.8,0.4,1.5,0.8,2.2,1.5c0.6,0.6,1.1,1.3,1.5,2.2
		c0.4,0.8,0.5,1.7,0.5,2.7V17.1z M44.1,6.8c0-0.7-0.2-1.2-0.7-1.7c-0.5-0.5-1-0.7-1.7-0.7c-0.7,0-1.3,0.2-1.7,0.7
		c-0.5,0.5-0.7,1-0.7,1.7v10.3c0,0.7,0.2,1.3,0.7,1.7s1,0.7,1.7,0.7c0.7,0,1.2-0.2,1.7-0.7c0.5-0.5,0.7-1,0.7-1.7V6.8z"/>
	<path class="st0" d="M66.8,8c0,1-0.2,1.9-0.6,2.8c-0.4,0.9-0.9,1.6-1.5,2.3c-0.6,0.6-1.4,1.2-2.3,1.5c-0.9,0.4-1.8,0.6-2.8,0.6
		h-2.8v8.1h-4.4V0.8h7.2c1,0,1.9,0.2,2.8,0.6s1.6,0.9,2.3,1.5c0.7,0.7,1.2,1.4,1.5,2.3C66.7,6.1,66.8,7,66.8,8z M62.4,8
		c0-0.4-0.1-0.7-0.2-1.1c-0.1-0.3-0.3-0.6-0.6-0.9c-0.3-0.2-0.5-0.5-0.9-0.6c-0.3-0.2-0.7-0.2-1.1-0.2h-2.8v5.5h2.8
		c0.4,0,0.7-0.1,1.1-0.2c0.3-0.1,0.6-0.3,0.9-0.6c0.2-0.2,0.4-0.5,0.6-0.9C62.4,8.7,62.4,8.4,62.4,8z"/>
	<path class="st0" d="M89,5.2h-4.3v18.1h-4.4V5.2H76V0.8h13V5.2z"/>
	<path class="st0" d="M95.5,23.2H91V0.8h4.4V23.2z"/>
	<path class="st0" d="M113.1,17.1c0,0.9-0.2,1.8-0.5,2.7c-0.4,0.8-0.8,1.6-1.5,2.2c-0.6,0.6-1.3,1.1-2.2,1.5
		c-0.8,0.4-1.7,0.5-2.7,0.5c-0.9,0-1.8-0.2-2.6-0.5c-0.8-0.4-1.6-0.8-2.2-1.5c-0.6-0.6-1.1-1.3-1.5-2.2s-0.5-1.7-0.5-2.7V6.8
		c0-0.9,0.2-1.8,0.5-2.7c0.4-0.8,0.8-1.6,1.5-2.2c0.6-0.6,1.3-1.1,2.2-1.5c0.8-0.4,1.7-0.5,2.6-0.5c0.9,0,1.8,0.2,2.6,0.5
		c0.8,0.4,1.6,0.8,2.2,1.5c0.6,0.6,1.1,1.3,1.5,2.2c0.4,0.8,0.5,1.7,0.5,2.7v2.1h-4.4V6.8c0-0.7-0.2-1.3-0.7-1.7
		c-0.5-0.5-1-0.7-1.7-0.7c-0.7,0-1.2,0.2-1.7,0.7c-0.5,0.5-0.7,1-0.7,1.7v10.3c0,0.7,0.2,1.2,0.7,1.7c0.5,0.5,1,0.7,1.7,0.7
		c0.7,0,1.2-0.2,1.7-0.7c0.5-0.5,0.7-1,0.7-1.7V15h4.4V17.1z"/>
	<path class="st0" d="M131.9,23.2h-5L121.6,13h-0.1v10.3h-4.4V0.8h4.4v9.2h0.1l4.6-9.2h4.9l-5.4,10.7L131.9,23.2z"/>
	<path class="st0" d="M145.3,23.2h-11.1V0.8h11.1v4.4h-6.4v4.6h6.4v4.4h-6.4v4.6h6.4V23.2z"/>
	<path class="st0" d="M160.4,5.2h-4.3v18.1h-4.4V5.2h-4.3V0.8h13V5.2z"/>
	<path class="st0" d="M176.6,16.6c0,1.1-0.2,2.1-0.6,3c-0.4,0.9-0.9,1.7-1.6,2.3c-0.7,0.7-1.4,1.2-2.3,1.5c-0.9,0.4-1.9,0.5-2.9,0.5
		c-0.9,0-1.8-0.2-2.7-0.5c-0.8-0.4-1.6-0.8-2.2-1.5s-1.1-1.3-1.5-2.2c-0.4-0.8-0.5-1.7-0.5-2.7V15h4.4v2.1c0,0.7,0.2,1.2,0.7,1.7
		c0.5,0.5,1,0.7,1.7,0.7c0.9,0,1.6-0.2,2.1-0.8c0.5-0.5,0.7-1.2,0.7-2.1c0-0.5-0.1-0.8-0.2-1.2c-0.1-0.3-0.4-0.6-0.6-0.8
		c-0.3-0.2-0.6-0.3-0.9-0.5c-0.3-0.1-0.7-0.2-1.1-0.3c-1-0.2-1.9-0.5-2.7-0.8c-0.8-0.4-1.5-0.8-2.1-1.4c-0.6-0.6-1.1-1.2-1.4-2
		s-0.5-1.8-0.5-2.8c0-0.9,0.2-1.8,0.5-2.7c0.4-0.8,0.9-1.6,1.5-2.2c0.6-0.6,1.3-1.1,2.2-1.5c0.8-0.4,1.7-0.5,2.7-0.5
		c0.9,0,1.8,0.2,2.7,0.5c0.8,0.4,1.5,0.8,2.2,1.5s1.1,1.3,1.5,2.2c0.4,0.8,0.5,1.7,0.5,2.7v1.3h-4.4V6.8c0-0.7-0.2-1.2-0.7-1.7
		c-0.5-0.5-1-0.7-1.7-0.7c-0.7,0-1.2,0.2-1.7,0.6c-0.5,0.4-0.7,1-0.7,1.8c0,0.5,0.1,0.9,0.2,1.2s0.3,0.6,0.5,0.8
		c0.2,0.2,0.5,0.4,0.8,0.5c0.3,0.1,0.7,0.2,1.2,0.3c0.9,0.2,1.8,0.5,2.7,0.8c0.9,0.4,1.6,0.8,2.3,1.4s1.2,1.2,1.6,2
		S176.6,15.5,176.6,16.6z"/>
</g>
</svg>
