<?xml version="1.0" encoding="utf-8"?>
<!-- Generator: Adobe Illustrator 23.0.2, SVG Export Plug-In . SVG Version: 6.00 Build 0)  -->
<svg version="1.1" id="Laag_1" xmlns="http://www.w3.org/2000/svg" xmlns:xlink="http://www.w3.org/1999/xlink" x="0px" y="0px"
	 width="106.1px" height="43.2px" viewBox="0 0 106.1 43.2" style="enable-background:new 0 0 106.1 43.2;" xml:space="preserve">
<style type="text/css">
	.st0{fill:#6DA8DA;}
</style>
<g>
	<path class="st0" d="M74.2,14.9c0,1.7,0,5.6,5.1,5.5c2.9,0,5.4-1.2,5.4-4.8c0-5.5-7.8-4.9-7.8-8.8c0-1.9,1.3-2.5,2.7-2.5
		c2.1,0,2.7,1.2,2.7,3.1h2.3c0.1-3.5-1.6-5.1-4.8-5.1c-2.9,0-5.1,1.6-5.1,4.7c0,5.2,7.8,4.8,7.8,8.6c0,2.1-1.3,2.8-3.1,2.8
		c-1.4,0-2.9-0.7-2.9-3.1v-0.5H74.2z M55.9,20.1h2.7l3.5-15h0l3.3,15h2.7l4.6-17.3h-2.3l-3.5,15h0l-3.1-15h-2.9l-3.5,15h0L54,2.7
		h-2.3L55.9,20.1z M38.4,13.7c0,4.8,1.8,6.7,5.4,6.7c3.7,0,5.4-1.9,5.4-6.7v-11h-2.2v11.1c0,3.8-1.2,4.7-3.2,4.7
		c-2.1,0-3.2-1-3.2-4.7V2.7h-2.2V13.7z M35.7,20.1v-1.9h-6.9v-6h6.2v-1.9h-6.2V4.7h6.7V2.7h-8.9v17.3H35.7z M23.9,20.1v-1.9H17v-6
		h6.2v-1.9H17V4.7h6.7V2.7h-8.9v17.3H23.9z"/>
	<path class="st0" d="M73.3,36.2c0,4.8,1.8,6.7,5.4,6.7s5.4-1.9,5.4-6.7v-11h-2.2v11.1c0,3.8-1.2,4.7-3.2,4.7s-3.2-1-3.2-4.7V25.2
		h-2.2V36.2z M70.6,42.5v-1.9h-6.9v-6H70v-1.9h-6.2v-5.6h6.7v-1.9h-8.9v17.3H70.6z M48.1,37.4c0,1.7,0,5.6,5.1,5.5
		c2.9,0,5.4-1.2,5.4-4.8c0-5.5-7.8-4.9-7.8-8.8c0-1.9,1.3-2.5,2.7-2.5c2.1,0,2.7,1.2,2.7,3.1h2.3c0.1-3.5-1.6-5.1-4.8-5.1
		c-2.9,0-5.1,1.6-5.1,4.7c0,5.2,7.8,4.8,7.8,8.6c0,2.1-1.3,2.8-3.1,2.8c-1.4,0-2.9-0.7-2.9-3.1v-0.5H48.1z M34.3,36.2
		c0,4.8,1.8,6.7,5.4,6.7c3.7,0,5.4-1.9,5.4-6.7v-11H43v11.1c0,3.8-1.2,4.7-3.2,4.7c-2.1,0-3.2-1-3.2-4.7V25.2h-2.2V36.2z M17,27.2
		L17,27.2l4.8,15.4h2.1l4.8-15.4h0v15.4h2.2V25.2h-3.6l-4.4,14.5h0l-4.4-14.5h-3.6v17.3H17V27.2z"/>
</g>
<polygon class="st0" points="12.5,2.7 2.2,2.7 2.2,4.7 10.3,4.7 10.3,4.7 1.9,17.6 1.9,20.1 12.7,20.1 12.7,18.1 4,18.1 12.5,5 "/>
<polygon class="st0" points="88.9,27.2 88.9,27.2 93.7,42.5 95.8,42.5 100.6,27.2 100.7,27.2 100.7,42.5 102.9,42.5 102.9,25.2 
	99.2,25.2 94.8,39.8 94.8,39.8 90.4,25.2 86.8,25.2 86.8,42.5 88.9,42.5 "/>
</svg>
