<?xml version="1.0" encoding="utf-8"?>
<!-- Generator: Adobe Illustrator 24.0.0, SVG Export Plug-In . SVG Version: 6.00 Build 0)  -->
<svg version="1.1" id="Laag_1" xmlns="http://www.w3.org/2000/svg" xmlns:xlink="http://www.w3.org/1999/xlink" x="0px" y="0px"
	 width="52.6px" height="35.9px" viewBox="0 0 52.6 35.9" style="enable-background:new 0 0 52.6 35.9;" xml:space="preserve">
<style type="text/css">
	.st0{fill:none;}
	.st1{fill:#FFFFFF;}
</style>
<g>
	<path class="st0" d="M39,6.3l-0.7-2.1c0-0.1-0.1-0.3-0.1-0.4c0-0.1-0.1-0.2-0.1-0.3c0,0.1-0.1,0.2-0.1,0.3c0,0.2-0.1,0.3-0.1,0.4
		l-0.7,2H39z"/>
	<path class="st0" d="M25.6,32c0.1-0.4,0.1-0.7,0.1-1.2s0-0.8-0.1-1.2c-0.1-0.3-0.2-0.6-0.4-0.9c-0.2-0.2-0.4-0.4-0.7-0.6
		c-0.3-0.1-0.6-0.2-1-0.2s-0.7,0.1-1,0.2c-0.3,0.1-0.5,0.3-0.7,0.6c-0.2,0.3-0.3,0.6-0.4,0.9c-0.1,0.4-0.1,0.7-0.1,1.2
		s0,0.8,0.1,1.2c0.1,0.3,0.2,0.6,0.4,0.9c0.2,0.2,0.4,0.4,0.7,0.6c0.5,0.3,1.4,0.3,1.9,0c0.3-0.1,0.5-0.3,0.7-0.6
		C25.3,32.6,25.5,32.3,25.6,32z"/>
	<path class="st0" d="M17.7,6.3c0.1-0.4,0.1-0.7,0.1-1.2c0-0.4,0-0.8-0.1-1.2c-0.1-0.3-0.2-0.6-0.4-0.9c-0.2-0.2-0.4-0.4-0.7-0.6
		c-0.3-0.1-0.6-0.2-1-0.2c-0.4,0-0.7,0.1-1,0.2c-0.3,0.1-0.5,0.3-0.7,0.6c-0.2,0.3-0.3,0.6-0.4,0.9c-0.1,0.4-0.1,0.7-0.1,1.2
		c0,0.4,0,0.8,0.1,1.2c0.1,0.3,0.2,0.6,0.4,0.9c0.2,0.2,0.4,0.4,0.7,0.6c0.5,0.3,1.4,0.3,1.9,0c0.3-0.1,0.5-0.3,0.7-0.6
		C17.5,6.9,17.7,6.6,17.7,6.3z"/>
	<path class="st0" d="M35.3,29.8c0.2-0.2,0.3-0.4,0.3-0.7c0-0.3-0.1-0.5-0.3-0.7c-0.2-0.2-0.5-0.3-0.9-0.3h-1.7v2h1.7
		C34.8,30.1,35.1,30,35.3,29.8z"/>
	<path class="st1" d="M9.1,0.2H6.7c-0.1,0-0.2,0.1-0.2,0.2v4.9c0,0.1,0,0.3,0,0.4C6.5,5.5,6.4,5.4,6.4,5.3C6.3,5.2,6.3,5.1,6.2,5
		L3.3,0.3c0-0.1-0.1-0.1-0.2-0.1H0.7c-0.1,0-0.2,0.1-0.2,0.2v9.5c0,0.1,0.1,0.2,0.2,0.2H3c0.1,0,0.2-0.1,0.2-0.2V5.4
		c0-0.1,0-0.2,0-0.4c0-0.1,0-0.3,0-0.5c0.1,0.1,0.1,0.2,0.2,0.4c0.1,0.1,0.1,0.3,0.2,0.3l2.9,4.7C6.5,10,6.6,10,6.7,10h2.5
		c0.1,0,0.2-0.1,0.2-0.2V0.4C9.3,0.3,9.2,0.2,9.1,0.2z"/>
	<path class="st1" d="M12,8.8c0.4,0.5,1,0.8,1.6,1.1c0.6,0.3,1.3,0.4,2.1,0.4c0.8,0,1.5-0.1,2.1-0.4c0.6-0.3,1.2-0.6,1.6-1.1
		c0.4-0.5,0.8-1,1-1.6c0.2-0.6,0.4-1.3,0.4-2s-0.1-1.4-0.4-2c-0.2-0.6-0.6-1.2-1-1.6c-0.4-0.5-1-0.8-1.6-1.1C17.1,0.1,16.4,0,15.7,0
		c-0.8,0-1.5,0.1-2.1,0.4C12.9,0.6,12.4,1,12,1.5c-0.4,0.5-0.8,1-1,1.6c-0.2,0.6-0.4,1.3-0.4,2s0.1,1.4,0.4,2
		C11.2,7.8,11.5,8.3,12,8.8z M16.6,7.8c-0.5,0.3-1.4,0.3-1.9,0c-0.3-0.1-0.5-0.3-0.7-0.6c-0.2-0.2-0.3-0.6-0.4-0.9
		c-0.1-0.4-0.1-0.7-0.1-1.2c0-0.4,0-0.8,0.1-1.2c0.1-0.3,0.2-0.7,0.4-0.9c0.2-0.2,0.4-0.4,0.7-0.6c0.3-0.1,0.6-0.2,1-0.2
		c0.4,0,0.7,0.1,1,0.2c0.3,0.1,0.5,0.3,0.7,0.6c0.2,0.3,0.3,0.6,0.4,0.9c0.1,0.4,0.1,0.7,0.1,1.2c0,0.4,0,0.8-0.1,1.2
		c-0.1,0.3-0.2,0.6-0.4,0.9C17.1,7.4,16.9,7.6,16.6,7.8z"/>
	<path class="st1" d="M21.4,2.5H24v7.3c0,0.1,0.1,0.2,0.2,0.2h2.5c0.1,0,0.2-0.1,0.2-0.2V2.5h2.7c0.1,0,0.2-0.1,0.2-0.2v-2
		c0-0.1-0.1-0.2-0.2-0.2h-8.2c-0.1,0-0.2,0.1-0.2,0.2v2C21.2,2.5,21.3,2.5,21.4,2.5z"/>
	<path class="st1" d="M33.3,10h2.5C35.9,10,36,10,36,9.9l0.5-1.6h3.2l0.5,1.6c0,0.1,0.1,0.1,0.2,0.1H43c0.1,0,0.1,0,0.2-0.1
		c0,0,0-0.1,0-0.2l-3.6-9.5c0-0.1-0.1-0.1-0.2-0.1h-2.5c-0.1,0-0.1,0-0.2,0.1l-3.6,9.5c0,0.1,0,0.1,0,0.2C33.2,10,33.3,10,33.3,10z
		 M37.9,4.2C37.9,4.1,38,4,38,3.8c0-0.1,0.1-0.2,0.1-0.3c0,0.1,0.1,0.2,0.1,0.3c0,0.2,0.1,0.3,0.1,0.4L39,6.3h-1.8L37.9,4.2z"/>
	<path class="st1" d="M7.7,17.6C7.4,17.3,7,17.2,6.5,17c-0.4-0.1-0.9-0.3-1.3-0.4c-0.4-0.1-0.7-0.2-1-0.2c-0.3-0.1-0.5-0.1-0.7-0.2
		c-0.2-0.1-0.3-0.1-0.4-0.2c-0.1-0.1-0.1-0.2-0.1-0.3c0-0.2,0.1-0.4,0.3-0.5C3.6,15.1,3.9,15,4.3,15c0.4,0,0.8,0.1,1,0.3
		c0.2,0.2,0.4,0.4,0.4,0.7c0,0.1,0.1,0.2,0.2,0.2h2.4c0.1,0,0.1,0,0.1-0.1c0,0,0.1-0.1,0-0.1c0-0.5-0.2-1-0.4-1.4
		c-0.2-0.4-0.5-0.7-0.9-1C6.9,13.4,6.5,13.2,6,13c-1-0.2-2.2-0.2-3.1,0c-0.5,0.1-0.9,0.3-1.3,0.6c-0.4,0.3-0.7,0.6-0.9,1
		C0.4,15,0.3,15.4,0.3,16c0,0.5,0.1,1,0.3,1.3c0.2,0.3,0.5,0.6,0.9,0.9c0.3,0.2,0.7,0.4,1.2,0.5C3.1,18.8,3.5,18.9,4,19
		c0.3,0.1,0.6,0.2,0.9,0.2c0.3,0.1,0.5,0.1,0.6,0.2c0.2,0.1,0.3,0.2,0.4,0.3C6,19.8,6,19.9,6,20.1c0,0.1,0,0.3-0.1,0.3
		c-0.1,0.1-0.2,0.2-0.3,0.3c-0.1,0.1-0.3,0.1-0.5,0.2c-0.2,0-0.4,0-0.6,0c-0.6,0-1-0.1-1.3-0.3c-0.3-0.2-0.4-0.5-0.5-0.9
		c0-0.1-0.1-0.2-0.2-0.2H0.2c0,0-0.1,0-0.1,0.1c0,0-0.1,0.1-0.1,0.1c0,0.5,0.1,1,0.4,1.5c0.2,0.4,0.6,0.8,1,1.1
		c0.4,0.3,0.9,0.5,1.4,0.6c0.6,0.1,1.2,0.2,1.8,0.2c0.6,0,1.1-0.1,1.6-0.2c0.5-0.1,1-0.4,1.3-0.6c0.4-0.3,0.7-0.6,0.9-1
		c0.2-0.4,0.3-0.9,0.3-1.4c0-0.5-0.1-1-0.3-1.4C8.3,18.1,8,17.8,7.7,17.6z"/>
	<path class="st1" d="M10.4,22.9h2.5c0.1,0,0.2-0.1,0.2-0.2v-9.5c0-0.1-0.1-0.2-0.2-0.2h-2.5c-0.1,0-0.2,0.1-0.2,0.2v9.5
		C10.2,22.8,10.3,22.9,10.4,22.9z"/>
	<path class="st1" d="M20.6,18.2c-0.1-0.1-0.1-0.2-0.2-0.3l-2.9-4.8c0-0.1-0.1-0.1-0.2-0.1h-2.5c-0.1,0-0.2,0.1-0.2,0.2v9.5
		c0,0.1,0.1,0.2,0.2,0.2h2.4c0.1,0,0.2-0.1,0.2-0.2v-4.4c0-0.1,0-0.2,0-0.4c0-0.1,0-0.3,0-0.5c0.1,0.1,0.1,0.2,0.2,0.4
		c0.1,0.1,0.1,0.3,0.2,0.3l2.9,4.7c0,0.1,0.1,0.1,0.2,0.1h2.5c0.1,0,0.2-0.1,0.2-0.2v-9.5c0-0.1-0.1-0.2-0.2-0.2h-2.4
		c-0.1,0-0.2,0.1-0.2,0.2v4.9c0,0.1,0,0.3,0,0.4C20.7,18.4,20.6,18.3,20.6,18.2z"/>
	<path class="st1" d="M32.4,22l0.1,0.7c0,0.1,0.1,0.2,0.2,0.2h1.7c0.1,0,0.2-0.1,0.2-0.2v-5.1c0-0.1-0.1-0.2-0.2-0.2h-4.1
		c-0.1,0-0.2,0.1-0.2,0.2v1.7c0,0.1,0.1,0.2,0.2,0.2h1.6c0,0.1-0.1,0.3-0.1,0.4c-0.1,0.2-0.2,0.3-0.4,0.5c-0.2,0.1-0.4,0.3-0.6,0.3
		c-0.5,0.2-1.2,0.2-1.8-0.1c-0.3-0.1-0.5-0.3-0.7-0.6c-0.2-0.2-0.4-0.6-0.5-0.9c-0.1-0.4-0.2-0.7-0.2-1.2c0-0.4,0-0.8,0.1-1.1
		c0.1-0.3,0.2-0.6,0.4-0.9c0.2-0.2,0.4-0.4,0.7-0.6c0.3-0.1,0.6-0.2,1-0.2c0.5,0,0.9,0.1,1.2,0.3c0.3,0.2,0.5,0.5,0.6,0.9
		c0,0.1,0.1,0.1,0.2,0.1h2.4c0.1,0,0.1,0,0.1-0.1c0,0,0-0.1,0-0.1c-0.1-0.5-0.2-1-0.5-1.4c-0.2-0.4-0.6-0.8-0.9-1.1
		c-0.4-0.3-0.8-0.5-1.4-0.7c-0.5-0.2-1.1-0.2-1.8-0.2c-0.7,0-1.4,0.1-2,0.3c-0.6,0.2-1.1,0.6-1.5,1c-0.5,0.5-0.9,1-1.1,1.7
		c-0.3,0.7-0.4,1.4-0.4,2.1c0,0.7,0.1,1.4,0.4,2.1c0.2,0.6,0.6,1.2,1,1.7c0.4,0.4,0.9,0.8,1.5,1c0.6,0.2,1.2,0.4,2,0.4
		c0.6,0,1.2-0.1,1.7-0.3C31.8,22.6,32.1,22.3,32.4,22z"/>
	<path class="st1" d="M38.9,20.5v-7.3c0-0.1-0.1-0.2-0.2-0.2h-2.5c-0.1,0-0.2,0.1-0.2,0.2v9.5c0,0.1,0.1,0.2,0.2,0.2h6.9
		c0.1,0,0.2-0.1,0.2-0.2v-2c0-0.1-0.1-0.2-0.2-0.2H38.9z"/>
	<path class="st1" d="M52.4,20.5h-5v-1.7h4.2c0.1,0,0.2-0.1,0.2-0.2v-1.8c0-0.1-0.1-0.2-0.2-0.2h-4.2v-1.3h4.9
		c0.1,0,0.2-0.1,0.2-0.2v-1.9c0-0.1-0.1-0.2-0.2-0.2h-7.5c-0.1,0-0.2,0.1-0.2,0.2v9.5c0,0.1,0.1,0.2,0.2,0.2h7.6
		c0.1,0,0.2-0.1,0.2-0.2v-2C52.6,20.6,52.5,20.5,52.4,20.5z"/>
	<path class="st1" d="M7.7,30.4C7.4,30.2,7,30,6.5,29.9c-0.4-0.1-0.9-0.3-1.3-0.4c-0.4-0.1-0.7-0.2-1-0.2c-0.3-0.1-0.5-0.1-0.7-0.2
		c-0.2-0.1-0.3-0.1-0.4-0.2c-0.1-0.1-0.1-0.2-0.1-0.3c0-0.2,0.1-0.4,0.3-0.5c0.2-0.1,0.5-0.2,0.9-0.2c0.4,0,0.8,0.1,1,0.3
		c0.2,0.2,0.4,0.4,0.4,0.7c0,0.1,0.1,0.2,0.2,0.2h2.4c0.1,0,0.1,0,0.1-0.1c0,0,0.1-0.1,0-0.1c0-0.5-0.2-1-0.4-1.4
		c-0.2-0.4-0.5-0.7-0.9-1C6.9,26.2,6.5,26,6,25.9c-1-0.2-2.2-0.2-3.1,0c-0.5,0.1-0.9,0.3-1.3,0.6c-0.4,0.3-0.7,0.6-0.9,1
		c-0.2,0.4-0.3,0.9-0.3,1.4c0,0.5,0.1,1,0.3,1.3c0.2,0.3,0.5,0.6,0.9,0.9c0.3,0.2,0.7,0.4,1.2,0.5c0.4,0.1,0.9,0.2,1.3,0.3
		c0.3,0.1,0.6,0.2,0.9,0.2c0.3,0.1,0.5,0.1,0.6,0.2c0.2,0.1,0.3,0.2,0.4,0.3C6,32.6,6,32.8,6,32.9c0,0.1,0,0.3-0.1,0.3
		c-0.1,0.1-0.2,0.2-0.3,0.3c-0.1,0.1-0.3,0.1-0.5,0.2c-0.2,0-0.4,0-0.6,0c-0.6,0-1-0.1-1.3-0.3C3,33.2,2.9,33,2.8,32.5
		c0-0.1-0.1-0.2-0.2-0.2H0.2c0,0-0.1,0-0.1,0.1c0,0-0.1,0.1-0.1,0.1c0,0.5,0.1,1,0.4,1.5c0.2,0.4,0.6,0.8,1,1.1
		c0.4,0.3,0.9,0.5,1.4,0.6c0.6,0.1,1.2,0.2,1.8,0.2c0.6,0,1.1-0.1,1.6-0.2c0.5-0.1,1-0.4,1.3-0.6c0.4-0.3,0.7-0.6,0.9-1
		c0.2-0.4,0.3-0.9,0.3-1.4c0-0.5-0.1-1-0.3-1.4C8.3,31,8,30.7,7.7,30.4z"/>
	<path class="st1" d="M17.8,25.9H9.6c-0.1,0-0.2,0.1-0.2,0.2v2c0,0.1,0.1,0.2,0.2,0.2h2.7v7.3c0,0.1,0.1,0.2,0.2,0.2h2.5
		c0.1,0,0.2-0.1,0.2-0.2v-7.3h2.7c0.1,0,0.2-0.1,0.2-0.2v-2C18,26,17.9,25.9,17.8,25.9z"/>
	<path class="st1" d="M27.2,27.2c-0.4-0.5-1-0.8-1.6-1.1c-0.6-0.3-1.3-0.4-2.1-0.4s-1.5,0.1-2.1,0.4c-0.6,0.3-1.2,0.6-1.6,1.1
		c-0.4,0.5-0.8,1-1,1.6c-0.2,0.6-0.4,1.3-0.4,2c0,0.7,0.1,1.4,0.4,2c0.2,0.6,0.6,1.2,1,1.6c0.4,0.5,1,0.8,1.6,1.1
		c0.6,0.3,1.3,0.4,2.1,0.4s1.5-0.1,2.1-0.4c0.6-0.3,1.2-0.6,1.6-1.1c0.4-0.5,0.8-1,1-1.6c0.2-0.6,0.4-1.3,0.4-2c0-0.7-0.1-1.4-0.4-2
		C28,28.2,27.6,27.6,27.2,27.2z M24.4,33.5c-0.5,0.3-1.4,0.3-1.9,0c-0.3-0.1-0.5-0.3-0.7-0.6c-0.2-0.2-0.3-0.6-0.4-0.9
		c-0.1-0.4-0.1-0.7-0.1-1.2s0-0.8,0.1-1.2c0.1-0.3,0.2-0.7,0.4-0.9c0.2-0.2,0.4-0.4,0.7-0.6c0.3-0.1,0.6-0.2,1-0.2s0.7,0.1,1,0.2
		c0.3,0.1,0.5,0.3,0.7,0.6c0.2,0.3,0.3,0.6,0.4,0.9c0.1,0.4,0.1,0.7,0.1,1.2s0,0.8-0.1,1.2c-0.1,0.3-0.2,0.6-0.4,0.9
		C25,33.1,24.7,33.3,24.4,33.5z"/>
	<path class="st1" d="M38.4,35.2c0,0,0,0-0.1-0.1c0-0.1-0.1-0.3-0.1-0.6c0-0.2,0-0.5,0-0.8c0-0.3,0-0.6-0.1-0.9
		c-0.1-0.5-0.2-0.9-0.5-1.2c-0.2-0.2-0.4-0.4-0.7-0.5c0.4-0.2,0.8-0.5,1-0.8c0.3-0.4,0.5-0.9,0.5-1.5c0-0.5-0.1-0.9-0.3-1.3
		c-0.2-0.4-0.5-0.7-0.8-0.9c-0.3-0.2-0.7-0.4-1.2-0.6c-0.4-0.1-0.9-0.2-1.4-0.2H30c-0.1,0-0.2,0.1-0.2,0.2v9.5
		c0,0.1,0.1,0.2,0.2,0.2h2.5c0.1,0,0.2-0.1,0.2-0.2v-3.4H34c0.5,0,0.8,0.1,1,0.3c0.2,0.2,0.4,0.5,0.4,0.9c0,0.2,0.1,0.5,0.1,0.7
		c0,0.2,0,0.5,0.1,0.7c0,0.2,0.1,0.4,0.1,0.5c0,0.2,0.1,0.3,0.2,0.4c0,0,0.1,0,0.1,0h2.4c0.1,0,0.2-0.1,0.2-0.2v-0.1
		C38.5,35.3,38.5,35.3,38.4,35.2z M32.7,28.1h1.7c0.4,0,0.7,0.1,0.9,0.3c0.2,0.2,0.3,0.4,0.3,0.7c0,0.3-0.1,0.5-0.3,0.7
		c-0.2,0.2-0.5,0.3-1,0.3h-1.7V28.1z"/>
	<path class="st1" d="M48.1,25.9h-2.6c-0.1,0-0.1,0-0.2,0.1l-1.3,2.5l-0.2,0.5c-0.1,0.2-0.2,0.3-0.2,0.5c0,0,0,0.1-0.1,0.1
		c0,0,0-0.1-0.1-0.1c-0.1-0.1-0.1-0.3-0.2-0.5c-0.1-0.2-0.2-0.3-0.2-0.5L41.8,26c0-0.1-0.1-0.1-0.2-0.1H39c-0.1,0-0.1,0-0.2,0.1
		c0,0.1,0,0.1,0,0.2l3.3,5.9v3.4c0,0.1,0.1,0.2,0.2,0.2h2.5c0.1,0,0.2-0.1,0.2-0.2v-3.4l3.3-5.9c0-0.1,0-0.1,0-0.2
		C48.3,25.9,48.2,25.9,48.1,25.9z"/>
</g>
</svg>
