<?xml version="1.0" encoding="utf-8"?>
<!-- Generator: Adobe Illustrator 24.3.0, SVG Export Plug-In . SVG Version: 6.00 Build 0)  -->
<svg version="1.1" id="Laag_1" xmlns="http://www.w3.org/2000/svg" xmlns:xlink="http://www.w3.org/1999/xlink" x="0px" y="0px"
	 width="112.8px" height="114.1px" viewBox="0 0 112.8 114.1" style="enable-background:new 0 0 112.8 114.1;" xml:space="preserve"
	>
<style type="text/css">
	.st0{fill:#FFFFFF;}
	.st1{fill:none;stroke:#FFFFFF;stroke-width:1.004;stroke-miterlimit:2.657;}
</style>
<g>
	<g>
		<path class="st0" d="M2.2,0H10l4.1,17.2L18.2,0H26v32.4h-5.7V14.1L16,32.4H12L7.6,14.1v18.3H2.2V0z"/>
		<path class="st0" d="M29.3,0h13v6h-6.8v6h6.8v6h-6.8v8.5h6.8v6h-13V0z"/>
		<path class="st0" d="M49,6.1h-4.5V0H60v6.1h-4.6l0,26.3H49V6.1z"/>
	</g>
	<g>
		<path class="st1" d="M7.3,47H1.2l0-6.1H15L8.4,67.3h6.7v6H0.6L7.3,47z"/>
		<path class="st1" d="M17.8,48.1c0-2.7,0.7-4.6,2.2-5.9c1.4-1.3,3.6-1.9,6.6-1.9c1.6,0,3.1,0.3,4.3,0.8c1.2,0.5,2.1,1.3,2.7,2.2
			c0.2,0.4,0.4,0.7,0.5,1.1s0.3,0.9,0.3,1.4c0.1,0.5,0.2,1.2,0.2,1.9c0,0.7,0,1.6,0,2.6v13.7c0,1.1,0,1.9,0,2.6
			c0,0.7-0.1,1.2-0.1,1.7c-0.1,0.5-0.2,0.9-0.3,1.2c-0.1,0.4-0.3,0.8-0.6,1.2c-0.5,1-1.5,1.8-2.8,2.3c-1.3,0.5-3,0.8-5,0.8
			c-5.2,0-7.8-2.5-7.9-7.4L17.8,48.1z M28.2,49c0-1-0.2-1.7-0.5-2.1c-0.3-0.4-0.8-0.6-1.6-0.6c-1.4,0-2.1,0.9-2.1,2.6v15.3
			c0,1.4,0.1,2.4,0.4,2.9c0.3,0.5,0.8,0.8,1.7,0.8c1.3,0,2-0.9,2-2.7V49z"/>
		<path class="st1" d="M37.7,40.8h5.7L49.1,58V40.8h5.8v32.4h-5.5l-6-17.1v17.1h-5.6V40.8z"/>
		<path class="st1" d="M57.9,40.8h9c0.7,0,1.4,0,1.9,0c0.5,0,0.9,0,1.3,0.1c0.4,0,0.7,0.1,1,0.2c0.3,0.1,0.6,0.2,1,0.4
			c0.9,0.3,1.4,0.9,1.8,1.8c0.3,0.8,0.5,2.1,0.5,3.9v19.3c0,0.6,0,1.1,0,1.5c0,0.4-0.1,0.8-0.1,1.1c-0.1,0.3-0.1,0.6-0.3,0.9
			c-0.1,0.3-0.2,0.6-0.4,0.9c-0.3,0.7-0.9,1.3-1.6,1.6c-0.3,0.2-0.6,0.3-0.8,0.4c-0.2,0.1-0.5,0.2-0.8,0.2s-0.7,0.1-1.1,0.1
			c-0.4,0-1,0-1.6,0h-9.7V40.8z M66.1,67.3c0.8,0,1.3-0.2,1.6-0.6s0.5-1.1,0.5-2.1V48.9c0-0.8-0.1-1.4-0.4-1.7
			c-0.3-0.3-0.8-0.4-1.6-0.4h-2v20.5H66.1z"/>
		<path class="st1" d="M77.6,40.8h13v6h-6.8v6h6.8v6h-6.8v8.5h6.8v6h-13V40.8z"/>
		<path class="st1" d="M93.5,40.8h9c0.8,0,1.5,0,2.1,0s1.1,0.1,1.5,0.1c0.4,0.1,0.8,0.1,1.1,0.3c0.3,0.1,0.6,0.2,0.9,0.4
			c0.7,0.4,1.2,1,1.6,1.8c0.3,0.8,0.5,1.9,0.5,3.2V52c0,1.7-0.3,3-0.9,3.9c-0.6,0.9-1.7,1.5-3.3,1.8l6.1,15.5h-6.6l-5.6-14.7v14.7
			h-6.4V40.8z M101.9,52.5c0.8,0,1.3-0.2,1.6-0.6c0.3-0.4,0.5-1,0.5-1.9v-0.7c0-1-0.1-1.6-0.3-1.9c-0.2-0.3-0.7-0.5-1.4-0.5h-2.3
			v5.6H101.9z"/>
	</g>
	<g>
		<path class="st0" d="M2.2,81.7h9.6c1.1,0,2,0,2.6,0.1c0.6,0.1,1.2,0.2,1.7,0.3c0.8,0.2,1.4,0.7,1.8,1.4c0.4,0.7,0.6,1.6,0.6,2.6
			v5.4c0,0.6,0,1.1-0.1,1.4c-0.1,0.4-0.2,0.7-0.3,1c-0.4,1-1.4,1.7-2.9,2c1.3,0.4,2.2,0.9,2.7,1.6c0.5,0.7,0.8,1.8,0.8,3.1v6.6
			c0,0.6,0,1.1,0,1.5c0,0.4,0,0.7-0.1,1.1c0,0.3-0.1,0.6-0.2,0.8c-0.1,0.3-0.2,0.5-0.3,0.8c-0.7,1.6-2.4,2.5-5,2.5H2.2V81.7z
			 M8.8,93.6c0.1,0,0.2,0,0.3,0c0.1,0,0.2,0,0.3,0c1.3,0,2.1-0.1,2.5-0.4c0.4-0.3,0.6-0.8,0.6-1.6v-1.9c0-0.8-0.2-1.3-0.5-1.6
			c-0.3-0.3-0.8-0.4-1.5-0.4H8.4v5.8H8.8z M8.8,108h0.6c0.6,0,1.1,0,1.5-0.1c0.4-0.1,0.7-0.2,0.9-0.3c0.2-0.2,0.4-0.4,0.4-0.7
			c0.1-0.3,0.1-0.7,0.1-1.1v-4.5c0-0.8-0.1-1.3-0.4-1.6c-0.3-0.3-0.8-0.4-1.6-0.4h-2v8.8H8.8z"/>
		<path class="st0" d="M24.4,81.7h9.9l3.7,32.4H32l-0.4-3.6h-4.7l-0.4,3.6h-6.1L24.4,81.7z M31,104.5l-1.7-17.2l-1.9,17.2H31z"/>
		<path class="st0" d="M40.4,81.7h6.4V108h4.8v6.1H40.4V81.7z"/>
		<path class="st0" d="M54.1,81.7h6.4V108h4.8v6.1H54.1V81.7z"/>
		<path class="st0" d="M67.9,81.7h13v6h-6.8v6H81v6h-6.8v8.5H81v6h-13V81.7z"/>
		<path class="st0" d="M83.7,81.7h5.7l5.7,17.1V81.7h5.8v32.4h-5.5l-6-17.1v17.1h-5.6V81.7z"/>
	</g>
</g>
</svg>
