<?xml version="1.0" encoding="utf-8"?>
<!-- Generator: Adobe Illustrator 22.0.0, SVG Export Plug-In . SVG Version: 6.00 Build 0)  -->
<svg version="1.1" id="Laag_1" xmlns="http://www.w3.org/2000/svg" xmlns:xlink="http://www.w3.org/1999/xlink" x="0px" y="0px"
	 viewBox="0 0 411.5 69.8" width="411.5px" height="69.8px" style="enable-background:new 0 0 411.5 69.8;" xml:space="preserve">
<style type="text/css">
	.st0{fill:#FFFFFF;}
</style>
<g>
	<path class="st0" d="M15.7,24.8H7.6l-1.3,3.8H0.2L8.5,6.8h6.2l8.3,21.9H17L15.7,24.8z M14.2,20.5l-2.6-7.3l-2.6,7.3H14.2z"/>
	<path class="st0" d="M31.2,28.6h-5.7V6.8h9c2.5,0,4.3,0.6,5.6,1.9c1.3,1.3,2,3.1,2,5.4c0,2.3-0.7,4.1-2,5.4s-3.2,1.9-5.6,1.9h-3.4
		V28.6z M31.2,16.8h1.9c2.1,0,3.1-0.9,3.1-2.7s-1-2.7-3.1-2.7h-1.9V16.8z"/>
	<path class="st0" d="M63.4,28.6h-7.1l-5.4-8.4v8.4h-5.7V6.8h8.8c1.2,0,2.3,0.2,3.2,0.5c0.9,0.4,1.7,0.8,2.2,1.5
		c0.6,0.6,1,1.3,1.3,2.1c0.3,0.8,0.4,1.7,0.4,2.6c0,1.7-0.4,3-1.2,4c-0.8,1-2,1.7-3.6,2.1L63.4,28.6z M50.9,16.5H52
		c1.1,0,2-0.2,2.6-0.7c0.6-0.5,0.9-1.1,0.9-2s-0.3-1.5-0.9-2c-0.6-0.5-1.5-0.7-2.6-0.7h-1.1V16.5z"/>
	<path class="st0" d="M71.5,6.8v21.9h-5.7V6.8H71.5z"/>
	<path class="st0" d="M81.7,6.8v17.1h6.8v4.8H76V6.8H81.7z"/>
	<path class="st0" d="M101.1,15.8h5.9V9.9h3.7v5.9h5.9v3.7h-5.9v5.9H107v-5.9h-5.9V15.8z"/>
	<path class="st0" d="M129.9,28.6l3.7-21.9h5.6l4.4,11.7L148,6.8h5.6l3.7,21.9h-5.7L149.8,16l-5.2,12.6h-2.3L137.5,16l-1.9,12.6
		H129.9z"/>
	<path class="st0" d="M173.4,11.6h-6.8v3.7h6.4V20h-6.4v3.8h6.8v4.8h-12.4V6.8h12.4V11.6z"/>
	<path class="st0" d="M183.1,6.8v21.9h-5.7V6.8H183.1z"/>
	<path class="st0" d="M213.7,28.6h-17.6l5.4-5.6c1.4-1.5,2.6-2.8,3.4-3.8c0.8-1,1.4-1.9,1.8-2.6c0.4-0.7,0.6-1.3,0.7-1.7
		c0.1-0.4,0.1-0.8,0.1-1.1c0-0.3-0.1-0.6-0.2-1c-0.1-0.3-0.3-0.6-0.5-0.8c-0.2-0.2-0.5-0.4-0.8-0.6c-0.3-0.1-0.7-0.2-1.1-0.2
		c-0.8,0-1.4,0.3-1.8,0.8c-0.4,0.5-0.7,1.1-0.7,1.9c0,0.2,0,0.5,0.1,0.9h-6.2c0-1.3,0.2-2.4,0.6-3.5s1-1.9,1.8-2.7s1.6-1.3,2.7-1.7
		s2.2-0.6,3.4-0.6c1.2,0,2.3,0.2,3.4,0.6c1,0.4,1.9,0.9,2.7,1.6s1.3,1.5,1.8,2.5c0.4,1,0.6,2,0.6,3.1c0,1.2-0.3,2.3-0.8,3.3
		c-0.5,1-1.3,2.1-2.5,3.1l-3.6,3.4h7.1V28.6z"/>
	<path class="st0" d="M215.6,17.7c0-1.7,0.2-3.3,0.7-4.7c0.5-1.4,1.1-2.6,1.9-3.6c0.8-1,1.8-1.8,2.9-2.3s2.4-0.8,3.8-0.8
		c1.4,0,2.6,0.3,3.7,0.8s2.1,1.3,2.9,2.3c0.8,1,1.4,2.2,1.9,3.6c0.5,1.4,0.7,3,0.7,4.7c0,1.7-0.2,3.3-0.7,4.7
		c-0.5,1.4-1.1,2.6-1.9,3.7c-0.8,1-1.8,1.8-2.9,2.3c-1.1,0.6-2.4,0.8-3.7,0.8c-1.4,0-2.6-0.3-3.8-0.8c-1.1-0.6-2.1-1.3-2.9-2.3
		c-0.8-1-1.5-2.2-1.9-3.7C215.8,21,215.6,19.4,215.6,17.7z M221.2,17.7c0,1,0.1,1.8,0.3,2.6c0.2,0.8,0.4,1.5,0.7,2.1
		c0.3,0.6,0.7,1,1.1,1.3c0.4,0.3,0.9,0.5,1.5,0.5c0.5,0,1-0.2,1.5-0.5c0.5-0.3,0.8-0.8,1.1-1.3c0.3-0.6,0.6-1.3,0.7-2.1
		c0.2-0.8,0.3-1.7,0.3-2.6c0-0.9-0.1-1.8-0.3-2.6c-0.2-0.8-0.4-1.5-0.7-2.1c-0.3-0.6-0.7-1-1.1-1.3s-1-0.5-1.5-0.5
		c-0.6,0-1.1,0.2-1.5,0.5c-0.4,0.3-0.8,0.8-1.1,1.3c-0.3,0.6-0.6,1.3-0.7,2.1C221.3,15.8,221.2,16.7,221.2,17.7z"/>
	<path class="st0" d="M240.9,11.6h-3.2V6.8h8.9v21.9h-5.7V11.6z"/>
	<path class="st0" d="M257.1,17.1c-2.3-0.9-3.4-2.6-3.4-4.8c0-0.9,0.2-1.8,0.6-2.5s0.9-1.4,1.5-1.9s1.4-1,2.3-1.2s1.9-0.4,3-0.4
		c1.1,0,2.1,0.1,3,0.4c0.9,0.3,1.7,0.7,2.3,1.2s1.2,1.2,1.5,1.9s0.6,1.6,0.6,2.5c0,0.6-0.1,1.1-0.2,1.6c-0.1,0.5-0.3,0.9-0.6,1.2
		c-0.3,0.4-0.6,0.7-1.1,1.1c-0.5,0.3-1,0.6-1.7,1c3,1.2,4.5,3,4.5,5.6c0,0.9-0.2,1.8-0.6,2.6c-0.4,0.8-1,1.5-1.7,2.1s-1.6,1-2.6,1.4
		c-1,0.3-2.1,0.5-3.3,0.5c-1.2,0-2.3-0.2-3.3-0.5c-1-0.3-1.9-0.8-2.7-1.3s-1.3-1.3-1.8-2.1c-0.4-0.8-0.6-1.7-0.6-2.6
		C252.8,20.1,254.2,18.2,257.1,17.1z M258.5,22c0,0.4,0.1,0.7,0.2,1c0.1,0.3,0.3,0.6,0.6,0.9c0.2,0.2,0.5,0.4,0.8,0.6
		c0.3,0.1,0.7,0.2,1,0.2c0.3,0,0.7-0.1,1-0.2c0.3-0.1,0.6-0.3,0.8-0.6c0.2-0.2,0.4-0.5,0.6-0.8c0.1-0.3,0.2-0.7,0.2-1
		c0-0.7-0.3-1.4-0.8-1.9c-0.5-0.5-1.1-0.8-1.8-0.8c-0.7,0-1.4,0.3-1.9,0.8C258.8,20.7,258.5,21.3,258.5,22z M258.7,12.3
		c0,0.7,0.2,1.3,0.7,1.7c0.5,0.5,1,0.7,1.7,0.7c0.3,0,0.7-0.1,1-0.2c0.3-0.1,0.5-0.3,0.8-0.5c0.2-0.2,0.4-0.5,0.5-0.8
		s0.2-0.6,0.2-0.9c0-0.7-0.2-1.2-0.7-1.7c-0.5-0.5-1-0.7-1.7-0.7c-0.7,0-1.2,0.2-1.7,0.7C258.9,11.1,258.7,11.7,258.7,12.3z"/>
	<path class="st0" d="M10.6,46.4v17.1H4.9V46.4H0.2v-4.8h15v4.8H10.6z"/>
	<path class="st0" d="M23.5,50h8.2v-8.4h5.7v21.9h-5.7v-9h-8.2v9h-5.7V41.6h5.7V50z"/>
	<path class="st0" d="M54.4,46.4h-6.8V50H54v4.8h-6.4v3.8h6.8v4.8H41.9V41.6h12.4V46.4z"/>
	<path class="st0" d="M71.9,59.6h-8.1l-1.3,3.8h-6.1l8.3-21.9h6.2l8.3,21.9h-6.1L71.9,59.6z M70.4,55.3L67.8,48l-2.6,7.3H70.4z"/>
	<path class="st0" d="M89.1,46.4v17.1h-5.7V46.4h-4.7v-4.8h15v4.8H89.1z"/>
	<path class="st0" d="M108.7,46.4h-6.8V50h6.4v4.8h-6.4v3.8h6.8v4.8H96.3V41.6h12.4V46.4z"/>
	<path class="st0" d="M131,63.4h-7.1l-5.4-8.4v8.4h-5.7V41.6h8.8c1.2,0,2.3,0.2,3.2,0.5c0.9,0.4,1.7,0.8,2.2,1.5
		c0.6,0.6,1,1.3,1.3,2.1c0.3,0.8,0.4,1.7,0.4,2.6c0,1.7-0.4,3-1.2,4s-2,1.7-3.6,2.1L131,63.4z M118.5,51.3h1.1c1.1,0,2-0.2,2.6-0.7
		c0.6-0.5,0.9-1.1,0.9-2s-0.3-1.5-0.9-2c-0.6-0.5-1.5-0.7-2.6-0.7h-1.1V51.3z"/>
	<path class="st0" d="M142.2,52.5c0-1.6,0.3-3.1,0.9-4.5c0.6-1.4,1.4-2.6,2.5-3.7c1.1-1,2.3-1.9,3.8-2.5c1.5-0.6,3.1-0.9,4.9-0.9
		c1.8,0,3.4,0.3,4.9,0.9c1.5,0.6,2.8,1.4,3.8,2.5s1.9,2.3,2.5,3.7c0.6,1.4,0.9,2.9,0.9,4.5s-0.3,3.1-0.9,4.5
		c-0.6,1.4-1.4,2.6-2.5,3.7s-2.4,1.9-3.8,2.5c-1.5,0.6-3.1,0.9-4.9,0.9c-1.8,0-3.4-0.3-4.9-0.9c-1.5-0.6-2.8-1.4-3.8-2.5
		c-1.1-1-1.9-2.3-2.5-3.7C142.5,55.6,142.2,54.1,142.2,52.5z M148.2,52.5c0,0.9,0.2,1.7,0.5,2.4c0.3,0.7,0.8,1.4,1.3,1.9
		c0.6,0.5,1.2,1,2,1.3s1.5,0.4,2.4,0.4c0.8,0,1.6-0.1,2.4-0.4c0.7-0.3,1.4-0.7,2-1.3c0.6-0.5,1-1.2,1.3-1.9c0.3-0.7,0.5-1.5,0.5-2.4
		c0-0.9-0.2-1.7-0.5-2.4c-0.3-0.7-0.8-1.4-1.3-1.9s-1.2-1-2-1.3c-0.7-0.3-1.5-0.4-2.4-0.4c-0.8,0-1.6,0.1-2.4,0.4s-1.4,0.7-2,1.3
		c-0.6,0.5-1,1.2-1.3,1.9C148.3,50.8,148.2,51.6,148.2,52.5z"/>
	<path class="st0" d="M175.7,63.4H170V41.6h9c2.5,0,4.3,0.6,5.6,1.9c1.3,1.3,2,3.1,2,5.4c0,2.3-0.7,4.1-2,5.4s-3.2,1.9-5.6,1.9h-3.4
		V63.4z M175.7,51.6h1.9c2.1,0,3.1-0.9,3.1-2.7s-1-2.7-3.1-2.7h-1.9V51.6z"/>
	<path class="st0" d="M203.4,41.6l5.3,13.3l5.3-13.3h6.2L211,63.4h-4.5l-9.2-21.9H203.4z"/>
	<path class="st0" d="M220.5,52.5c0-1.6,0.3-3.1,0.9-4.5c0.6-1.4,1.4-2.6,2.5-3.7c1.1-1,2.3-1.9,3.8-2.5c1.5-0.6,3.1-0.9,4.9-0.9
		c1.8,0,3.4,0.3,4.9,0.9c1.5,0.6,2.8,1.4,3.8,2.5s1.9,2.3,2.5,3.7c0.6,1.4,0.9,2.9,0.9,4.5s-0.3,3.1-0.9,4.5
		c-0.6,1.4-1.4,2.6-2.5,3.7s-2.4,1.9-3.8,2.5c-1.5,0.6-3.1,0.9-4.9,0.9c-1.8,0-3.4-0.3-4.9-0.9c-1.5-0.6-2.8-1.4-3.8-2.5
		c-1.1-1-1.9-2.3-2.5-3.7C220.8,55.6,220.5,54.1,220.5,52.5z M226.4,52.5c0,0.9,0.2,1.7,0.5,2.4c0.3,0.7,0.8,1.4,1.3,1.9
		c0.6,0.5,1.2,1,2,1.3s1.5,0.4,2.4,0.4c0.8,0,1.6-0.1,2.4-0.4c0.7-0.3,1.4-0.7,2-1.3c0.6-0.5,1-1.2,1.3-1.9c0.3-0.7,0.5-1.5,0.5-2.4
		c0-0.9-0.2-1.7-0.5-2.4c-0.3-0.7-0.8-1.4-1.3-1.9s-1.2-1-2-1.3c-0.7-0.3-1.5-0.4-2.4-0.4c-0.8,0-1.6,0.1-2.4,0.4s-1.4,0.7-2,1.3
		c-0.6,0.5-1,1.2-1.3,1.9C226.6,50.8,226.4,51.6,226.4,52.5z"/>
	<path class="st0" d="M260.7,46.4H254V50h6.4v4.8H254v3.8h6.8v4.8h-12.4V41.6h12.4V46.4z"/>
	<path class="st0" d="M273.1,46.4v17.1h-5.7V46.4h-4.7v-4.8h15v4.8H273.1z"/>
	<path class="st0" d="M280.3,41.6h8.5c2,0,3.5,0.5,4.6,1.5s1.6,2.4,1.6,4.2c0,1.1-0.2,2-0.6,2.7c-0.4,0.7-1,1.3-1.8,1.8
		c0.8,0.2,1.5,0.4,2.1,0.7c0.6,0.3,1,0.7,1.4,1.2c0.4,0.5,0.6,1,0.8,1.6c0.2,0.6,0.2,1.2,0.2,1.9c0,1-0.2,1.9-0.5,2.7
		c-0.4,0.8-0.9,1.5-1.5,2c-0.6,0.5-1.4,0.9-2.4,1.2c-0.9,0.3-2,0.4-3.1,0.4h-9.1V41.6z M286,50.1h1c1.8,0,2.7-0.7,2.7-2.1
		c0-1.4-0.9-2.1-2.7-2.1h-1V50.1z M286,59h1.2c1.4,0,2.5-0.2,3.1-0.6c0.6-0.4,0.9-1,0.9-1.8c0-0.8-0.3-1.4-0.9-1.8
		c-0.6-0.4-1.6-0.6-3.1-0.6H286V59z"/>
	<path class="st0" d="M313.5,59.6h-8.1l-1.3,3.8H298l8.3-21.9h6.2l8.3,21.9h-6.1L313.5,59.6z M312,55.3l-2.6-7.3l-2.6,7.3H312z"/>
	<path class="st0" d="M329,41.6v17.1h6.8v4.8h-12.5V41.6H329z"/>
	<path class="st0" d="M340.7,41.6l5.3,13.3l5.3-13.3h6.2l-9.2,21.9h-4.5l-9.2-21.9H340.7z"/>
	<path class="st0" d="M372.2,46.4h-6.8V50h6.4v4.8h-6.4v3.8h6.8v4.8h-12.4V41.6h12.4V46.4z"/>
	<path class="st0" d="M382,41.6v17.1h6.8v4.8h-12.5V41.6H382z"/>
	<path class="st0" d="M391.7,41.6h8.4c1.5,0,2.9,0.3,4.2,0.9s2.4,1.4,3.4,2.4c1,1,1.7,2.2,2.3,3.5c0.6,1.3,0.8,2.7,0.8,4.2
		c0,1.4-0.3,2.8-0.8,4.1c-0.6,1.3-1.3,2.5-2.3,3.5c-1,1-2.1,1.8-3.4,2.4c-1.3,0.6-2.7,0.9-4.2,0.9h-8.4V41.6z M397.4,58.6h1.3
		c1,0,1.9-0.2,2.6-0.5c0.8-0.3,1.4-0.7,2-1.3c0.5-0.5,0.9-1.2,1.2-1.9s0.4-1.6,0.4-2.5c0-0.9-0.1-1.7-0.4-2.4s-0.7-1.4-1.2-1.9
		c-0.5-0.5-1.2-1-2-1.3s-1.6-0.5-2.6-0.5h-1.3V58.6z"/>
</g>
</svg>
