<?xml version="1.0" encoding="utf-8"?>
<!-- Generator: Adobe Illustrator 19.1.0, SVG Export Plug-In . SVG Version: 6.00 Build 0)  -->
<svg version="1.1" id="Laag_1" xmlns="http://www.w3.org/2000/svg" xmlns:xlink="http://www.w3.org/1999/xlink" x="0px" y="0px"
	 viewBox="-429 484.1 144.3 32.9" style="enable-background:new -429 484.1 144.3 32.9;" xml:space="preserve">
<style type="text/css">
	.st0{fill:#FFFFFF;}
</style>
<g>
	<path class="st0" d="M-394.1,499.6c0-5.6-5.5-6.9-9.6-6.9c-4.1,0-10.4,1.8-10.4,12.6c0,6.7,3,11.9,11,11.9c6.4,0,8.7-3.2,8.7-6.4
		c-0.1,0.2-1.6,2.6-7,2.6c-5.6,0-6.6-4.4-6.6-7.1c0,0,1.7,0.5,4.4,0.5C-396.3,506.8-394.1,503.8-394.1,499.6z M-408.2,503.3
		c0-5.4,1.5-7.5,4.6-7.5c3.3,0,3.7,2.4,3.7,3.9c0,3.5-2.5,3.9-4.6,3.9C-407.1,503.6-408.2,503.3-408.2,503.3z"/>
	<path class="st0" d="M-420.1,488.8c0.5-0.7,1.3-1.1,2.6-1.1c1.5,0,2.7,1.1,3.4,2.1c0,0-0.1-1.3-0.1-2.7c0-1.2,0.1-2.3,0.1-2.3
		s-1-0.3-3.6-0.3c-7,0-8.5,3.5-8.8,7.6l0,0.6c-0.1,1.5-0.5,2.8-2.5,4.5h2.5v8.5c0,8.5-0.2,9.1-1,10.5l-0.4,0.7c0,0,1.3-0.1,4.4-0.1
		c3.2,0,4.4,0.1,4.4,0.1l-0.4-0.7c-0.9-1.6-1.1-2.7-1.1-10.6v-8.1h1.1c3,0,3.9,0.5,3.9,0.5s0-0.6,0-2.1c0-1.5,0-2.1,0-2.1
		s-0.8,0.5-3.9,0.5h-1.2v-1.6C-420.7,490.5-420.6,489.6-420.1,488.8z"/>
	<path class="st0" d="M-381.6,492.8c-6.4,0-8.8,3.3-8.8,7.1c0,3.4,1.8,5.2,4.6,6.6l2.8,1.5c1.9,1,2.9,1.7,2.9,3.2
		c0,2.1-1.9,2.4-3.6,2.4c-2.8,0-4.4-1.4-6-3.9c0,0,0.1,1.1,0.1,3.1c0,2.1-0.1,2.9-0.1,2.9s2,1.3,6.6,1.3c5.1,0,8.2-2.2,8.2-6.7
		c0-3.8-2.3-5.4-4.5-6.5l-3.4-1.8c-1.4-0.8-2.2-1.5-2.2-2.9s0.8-2.8,3.8-2.8c2.9,0,4.6,1.1,6.4,3.9c0,0-0.1-1.2-0.1-3.3
		c0-2,0.1-2.8,0.1-2.8S-377,492.8-381.6,492.8z"/>
	<path class="st0" d="M-360.1,513.7c-1.6,0-2.4-0.5-2.8-1.4c-0.4-0.7-0.5-1.5-0.5-3.3v-12.2h2.5c3.4,0,4,0.4,4,0.4s0-0.6,0-2.1
		c0-1.5,0-2.1,0-2.1s-0.7,0.5-4,0.5h-2.5v-5.1h-2.5c0,0-1,2.1-2.8,4.6c-1.8,2.5-3.2,3.8-3.2,3.9h2.7c0,0-0.1,3.5-0.1,12.2
		c0,3,0.3,4.7,1.1,5.9c0.9,1.3,2.4,2.3,5.3,2.3c5.2,0,6.2-3.2,6.2-4.6C-356.7,512.5-357.8,513.7-360.1,513.7z"/>
	<path class="st0" d="M-347,508.7v-4.4c0-8.8,0.4-11.4,0.4-11.4l-7.6,1l0.4,0.7c0.7,1.2,1,2.3,1,9.4c0,2.8-0.1,6.6-0.1,8.9
		c0,1.9,0.2,3.9,3.7,3.9c3.2,0,4.1-1.1,4.1-1.1C-346.8,514.9-347,513.7-347,508.7z"/>
	<polygon class="st0" points="-345.5,487.8 -349.9,484 -354.3,487.8 -349.9,491.6 	"/>
	<path class="st0" d="M-328,493.2c0.5,0.4,1.2,1.1,1.2,2.8c0,4.5-3.2,15.1-4.6,17.8c0,0-0.3-1.4-0.6-2.5l-2.3-8.9
		c-0.9-3.6-1.4-5.5-1.4-6.7c0-1.5,0.7-2.1,1.2-2.5c0,0-1.3,0.1-4.8,0.1c-3.2,0-4.6-0.1-4.6-0.1c1.4,1.2,2,3.5,3.8,9.5l4.1,14
		c0,0,1.4-0.1,3.9-0.1c2.5,0,3.9,0.1,3.9,0.1c4.6-8.8,5.7-18.7,6.7-21.2c0.5-1.3,0.9-1.8,1.5-2.3c0,0-1.2,0-3.8,0
		C-326.6,493.3-328,493.2-328,493.2z"/>
	<path class="st0" d="M-299.3,509.5c0-4,0.1-5.7,0.1-7.6c0-2.7,0-4.9-1.4-6.7c-1-1.3-3-2.5-7.8-2.5c-5.5,0-7.8,1.2-7.8,1.2
		s0.1,0.9,0.1,2.6c0,1.6-0.1,2.6-0.1,2.6c1.8-2.5,4.8-2.9,6.3-2.9c2.3,0,3.6,0.6,4.2,1.4c0.8,0.9,0.8,2.3,0.8,3.8v1.4
		c0,0-1.6-0.2-4-0.2c-3.6,0-9.7,0.4-9.7,7.5c0,3,1.4,7,7.2,7c2.5,0,5.7-0.6,6.8-5l-0.2,4.9l6.9-1l-0.4-0.7
		C-299,514-299.3,512.5-299.3,509.5z M-304.9,511.8c0,0-0.8,1.9-4,1.9c-2.1,0-3.8-1.2-3.8-3.9c0-3.9,3.3-4,5.2-4
		c2,0,2.7,0.2,2.7,0.2V511.8z"/>
	<path class="st0" d="M-286.6,508.7v-16c0-4,0.1-8.3,0.1-8.3l-7.3,1l0.4,0.7c0.7,1.4,1,2.6,1,10v5.5c0,3.7-0.2,7.4-0.2,11.5
		c0,1.9,0.2,3.9,3.9,3.9c2.4,0,3.8-0.9,4-1.1C-286.4,514.9-286.6,513.5-286.6,508.7z"/>
</g>
</svg>
