<?xml version="1.0" encoding="utf-8"?>
<!-- Generator: Adobe Illustrator 23.0.2, SVG Export Plug-In . SVG Version: 6.00 Build 0)  -->
<svg version="1.1" id="Laag_1" xmlns="http://www.w3.org/2000/svg" xmlns:xlink="http://www.w3.org/1999/xlink" x="0px" y="0px"
	 width="45.4px" height="46.4px" viewBox="0 0 45.4 46.4" style="enable-background:new 0 0 45.4 46.4;" xml:space="preserve">
<style type="text/css">
	.st0{fill:none;}
	.st1{fill:#FFFFFF;}
	.st2{fill:#E9453E;}
	.st3{fill:#E94190;}
</style>
<g>
	<path class="st0" d="M15.3,39.6C15.3,39.6,15.3,39.6,15.3,39.6C15.3,39.6,15.4,39.6,15.3,39.6C15.4,39.6,15.4,39.6,15.3,39.6z"/>
	<path class="st0" d="M8.7,9.7c0-0.3-0.1-0.6-0.1-0.9C8.6,9.1,8.6,9.5,8.7,9.7z"/>
	<polygon class="st0" points="9.5,42.3 6.4,42.3 6.4,42.3 9.4,42.3 9.8,43.1 9.8,43.2 10.4,43.2 10.4,43.1 9.9,43.1 	"/>
	<path class="st0" d="M12.1,40.2c-0.1,0-0.2,0.1-0.3,0.3c0,0.1-0.1,0.3-0.1,0.5c0,0.2,0,0.4,0,0.6v1.6h0.1v-1.6c0-0.2,0-0.4,0-0.6
		c0-0.2,0-0.3,0.1-0.5C12,40.4,12.1,40.3,12.1,40.2c0.2,0,0.4-0.1,0.5-0.1c0,0,0,0,0,0C12.4,40.1,12.3,40.1,12.1,40.2z"/>
	<path class="st0" d="M11.7,40v-0.4h-0.1v0.5C11.6,40.1,11.7,40,11.7,40z"/>
	<path class="st0" d="M13.9,40.3C13.9,40.2,14,40.2,13.9,40.3c0-0.3-0.2-0.4-0.3-0.5c-0.2-0.1-0.5-0.2-0.7-0.2c0,0,0,0,0,0
		c0.3,0,0.5,0,0.7,0.2C13.7,39.9,13.8,40,13.9,40.3z"/>
	<path class="st0" d="M8.6,8.8c0-0.3,0-0.7,0.1-0.9C8.6,8.1,8.6,8.4,8.6,8.8z"/>
	<polygon class="st0" points="7.3,38.7 7.5,38.3 7.5,38.3 7.3,38.8 5.2,43.2 5.9,43.2 5.9,43.1 5.3,43.1 	"/>
	<path class="st0" d="M12.4,24C12.4,24,12.4,23.9,12.4,24c-0.8,0-1.1-0.6-1.1-1.4v-3.1h-0.1v3.1C11.2,23.3,11.5,24,12.4,24z"/>
	<path class="st0" d="M9.4,6.9c0.1,0,0.3-0.1,0.5-0.1C9.7,6.8,9.5,6.8,9.4,6.9z"/>
	<path class="st0" d="M8.7,7.9c0.1-0.2,0.2-0.5,0.3-0.6C8.8,7.4,8.7,7.7,8.7,7.9z"/>
	<path class="st0" d="M12.3,24.8C12.4,24.8,12.4,24.8,12.3,24.8c0.8,0,1.3-0.2,1.7-0.8V24C13.6,24.5,13.1,24.8,12.3,24.8z"/>
	<polygon class="st0" points="9.8,24.7 9.8,24.7 7.6,21.7 9.8,19.4 7.5,21.8 	"/>
	<polygon class="st0" points="6.1,31.7 6.1,34.1 6.2,34.1 6.2,31.7 7.2,30.6 7.2,30.6 	"/>
	<path class="st0" d="M9.9,6.1c0.3,0,0.6,0.1,0.8,0.2C10.4,6.1,10.2,6.1,9.9,6.1z"/>
	<polygon class="st0" points="9,36.3 9,36.3 12.3,31.9 12.3,31.9 	"/>
	<path class="st0" d="M11.1,9.7c-0.1,0.2-0.2,0.5-0.3,0.6C10.9,10.2,11,9.9,11.1,9.7z"/>
	<path class="st0" d="M18.3,42.4c0.1,0.1,0.2,0.1,0.4,0.2c0.1,0,0.3,0.1,0.4,0.1c0.2,0,0.5,0,0.7-0.1c0.2-0.1,0.3-0.2,0.5-0.4
		l0.3,0.4c0,0,0,0,0,0l-0.3-0.5c-0.1,0.1-0.3,0.3-0.5,0.4c-0.2,0.1-0.4,0.1-0.7,0.1c-0.1,0-0.3,0-0.4-0.1S18.3,42.4,18.3,42.4
		c-0.1-0.2-0.2-0.2-0.2-0.3c0,0,0,0,0,0C18.1,42.3,18.2,42.4,18.3,42.4z"/>
	<path class="st0" d="M17.4,40.7c0-0.2,0.2-0.4,0.3-0.6c0.2-0.2,0.3-0.3,0.6-0.4c0.2-0.1,0.4-0.1,0.7-0.1s0.5,0,0.7,0.1
		c0.2,0.1,0.4,0.2,0.5,0.4c0,0,0.1,0.1,0.1,0.1c0-0.1-0.1-0.1-0.1-0.2c-0.1-0.1-0.3-0.3-0.5-0.4c-0.2-0.1-0.5-0.1-0.7-0.1
		c-0.2,0-0.5,0-0.7,0.1c-0.2,0.1-0.4,0.2-0.6,0.4C17.6,40.2,17.5,40.4,17.4,40.7c-0.1,0.1-0.2,0.4-0.2,0.7s0,0.5,0.1,0.7
		c0,0,0,0.1,0,0.1c-0.1-0.2-0.1-0.5-0.1-0.7C17.3,41.2,17.3,41,17.4,40.7z"/>
	<polygon class="st0" points="10.3,33 10.3,33 8,29.9 11.2,26.7 11.1,26.7 7.9,29.9 	"/>
	<path class="st0" d="M16.4,40c-0.1-0.1-0.2-0.2-0.4-0.3c-0.1,0-0.2-0.1-0.3-0.1c0.1,0,0.2,0,0.2,0.1C16,39.7,16.2,39.8,16.4,40
		c0,0.1,0.1,0.3,0,0.5c0,0.2,0.1,0.4,0.1,0.7v2h0.1h0.1v-2c0-0.2,0-0.5-0.1-0.7C16.5,40.3,16.4,40.1,16.4,40z"/>
	<path class="st0" d="M10.4,10.7c-0.1,0-0.3,0.1-0.5,0.1C10.1,10.8,10.2,10.8,10.4,10.7z"/>
	<polygon class="st0" points="6.2,30.4 6.2,26.7 6.1,26.7 6.1,30.4 	"/>
	<path class="st0" d="M14.6,40.2c-0.1,0-0.2,0.1-0.3,0.3c-0.1,0.1-0.1,0.3-0.2,0.5c0,0.2,0,0.4,0,0.6v1.6h0.1v-1.6
		c0-0.2,0-0.4,0-0.6s0.1-0.3,0.2-0.5C14.4,40.4,14.5,40.3,14.6,40.2c0.2,0,0.4-0.1,0.5-0.1c0,0,0,0,0,0
		C14.9,40.1,14.7,40.1,14.6,40.2z"/>
	<polygon class="st0" points="19.1,38.4 19.1,38.4 16.4,26.5 15.4,26.3 15.4,26.3 16.4,26.5 	"/>
	<path class="st0" d="M10.8,6.3c0.2,0.1,0.4,0.3,0.6,0.5C11.2,6.6,11,6.4,10.8,6.3z"/>
	<path class="st0" d="M28.1,23.3c0,0.4,0.1,0.7,0.6,0.7c0,0,0,0,0,0C28.3,23.9,28.2,23.7,28.1,23.3l0-3.1h0V23.3z"/>
	<path class="st0" d="M28.7,24.7C28.7,24.7,28.7,24.7,28.7,24.7c0.4,0,0.7,0,1-0.1v-0.8c0,0,0,0,0,0v0.8
		C29.3,24.7,29,24.7,28.7,24.7z"/>
	<path class="st0" d="M28.8,23.9c0.3,0,0.5,0,0.8,0C29.3,23.9,29.1,23.9,28.8,23.9z"/>
	<rect x="29.6" y="19.4" class="st0" width="0" height="0.8"/>
	<rect x="28.1" y="17.9" class="st0" width="0" height="1.5"/>
	<path class="st0" d="M17.7,10.6c0,0,0.1-0.1,0.1-0.1c0-0.2,0.1-0.5,0.1-0.7v0c0,0.3,0,0.5-0.1,0.7C17.7,10.5,17.7,10.5,17.7,10.6z"
		/>
	<rect x="41.4" y="24.7" class="st0" width="0.9" height="0"/>
	<polygon class="st0" points="19.1,11.5 19.5,10.5 19,11.5 	"/>
	<rect x="24.8" y="34.2" class="st0" width="4.6" height="0"/>
	<path class="st0" d="M33,19.3C32.9,19.3,32.9,19.3,33,19.3c-0.7,0-1.2,0.3-1.7,0.8v0.1C31.7,19.6,32.3,19.3,33,19.3z"/>
	<polygon class="st0" points="31.2,24.7 30.4,24.7 30.4,17.3 30.3,17.3 30.3,17.3 30.3,24.7 31.2,24.7 	"/>
	<path class="st0" d="M32.8,20.1C32.8,20.1,32.8,20.1,32.8,20.1c0.8,0,1.2,0.6,1.2,1.4v3.2h0v-3.2C34.1,20.6,33.7,20.1,32.8,20.1z"
		/>
	<path class="st0" d="M10.4,10.7c0.2-0.1,0.3-0.2,0.4-0.4C10.7,10.5,10.5,10.6,10.4,10.7z"/>
	<polygon class="st0" points="25.7,33.2 25.8,33.2 25.8,30.9 29.3,30.9 29.3,30.9 25.7,30.9 	"/>
	<path class="st0" d="M17.2,21.1c-0.1,0.3-0.2,0.7-0.2,1C17.1,21.8,17.1,21.4,17.2,21.1z"/>
	<polygon class="st0" points="17,19.4 16.1,19.4 16.1,19.4 17,19.4 	"/>
	<path class="st0" d="M9.4,6.9C9.2,7,9,7.1,8.9,7.3C9.1,7.1,9.2,7,9.4,6.9z"/>
	<path class="st0" d="M18.7,19.3c1.4,0,2,1,2,2.3v0C20.8,20.2,20.1,19.2,18.7,19.3c-0.7,0-1.3,0.2-1.7,0.8v0
		C17.4,19.5,18,19.3,18.7,19.3z"/>
	<path class="st0" d="M23.7,24C23.7,24,23.7,24,23.7,24c0.7,0,1.2-0.3,1.3-0.7c0-0.5-0.6-0.7-1.2-0.8c-0.9-0.2-2-0.5-2-1.5
		c0-0.9,0.8-1.6,2-1.6c0,0,0,0,0,0c-1.3,0-2,0.7-2,1.6c0,1.1,1.1,1.4,2,1.5c0.6,0.1,1.3,0.3,1.2,0.8C24.8,23.7,24.3,24,23.7,24z"/>
	<rect x="14.9" y="19.4" class="st0" width="0.1" height="5.3"/>
	<path class="st0" d="M17,11.3c-0.2,0.1-0.4,0.1-0.7,0.1c-0.3,0-0.6,0-0.7-0.1c-0.2-0.1-0.4-0.2-0.5-0.4c-0.1-0.1-0.2-0.3-0.3-0.5
		c0-0.2-0.1-0.3-0.1-0.5l0,0c0,0.2,0,0.4,0.1,0.6c0,0.2,0.1,0.4,0.3,0.5c0.1,0.1,0.3,0.3,0.5,0.4c0.2,0.1,0.5,0.1,0.7,0.1
		C16.5,11.5,16.8,11.5,17,11.3c0.2,0,0.4-0.2,0.5-0.3c0-0.1,0.1-0.1,0.1-0.2c0,0.1-0.1,0.1-0.1,0.2C17.3,11.1,17.1,11.2,17,11.3z"/>
	<rect x="25.7" y="27.7" class="st0" width="0" height="2.3"/>
	<path class="st0" d="M21.6,23.6l0.7-0.4c0,0,0,0,0,0L21.6,23.6c0.3,0.9,1.1,1.3,2,1.3c0,0,0,0,0.1,0C22.8,24.8,21.9,24.5,21.6,23.6
		z"/>
	<path class="st0" d="M23.7,20.1C23.7,20.1,23.7,20.1,23.7,20.1c0.6,0,1,0.3,1.3,0.8l0.1,0C24.8,20.4,24.3,20.1,23.7,20.1z"/>
	<path class="st0" d="M33.4,6.3c0.2,0,0.4,0.2,0.6,0.3c0.2,0.1,0.3,0.3,0.4,0.5c0.1,0.2,0.1,0.4,0.1,0.6c0,0,0,0,0,0
		c0-0.2,0-0.5-0.1-0.7c-0.1-0.2-0.2-0.4-0.4-0.5C33.7,6.4,33.6,6.3,33.4,6.3c-0.2-0.2-0.4-0.2-0.7-0.2h-2v0.1h2
		C32.9,6.2,33.1,6.2,33.4,6.3z"/>
	<polygon class="st0" points="38.3,39.6 38.3,39.6 37.7,39.6 37.7,43.1 37.8,43.1 37.8,39.6 	"/>
	<polygon class="st0" points="39.4,22.6 39.4,22.6 39.4,22.2 39.4,22.6 	"/>
	<path class="st0" d="M37.5,21.5l1.5-0.1c0.2,0,0.4-0.1,0.4-0.4v-0.1c0-0.5-0.5-0.8-1.2-0.8c0,0,0,0,0,0c0.7,0,1.1,0.3,1.1,0.8V21
		c0,0.2-0.1,0.4-0.4,0.4L37.5,21.5c-1,0.1-1.7,0.7-1.7,1.7C35.8,22.2,36.5,21.6,37.5,21.5z"/>
	<path class="st0" d="M37.6,22.4c-0.6,0-0.8,0.4-0.8,0.8C36.8,22.8,37,22.5,37.6,22.4z"/>
	<path class="st0" d="M38.1,19.3C38.1,19.3,38.1,19.2,38.1,19.3c-1.3,0-2,0.6-2.2,1.3l0.8,0.5c0,0,0,0,0,0l-0.8-0.4
		C36.2,19.8,36.9,19.3,38.1,19.3z"/>
	<path class="st0" d="M38.8,39.7c0.2-0.1,0.4-0.1,0.7-0.1c0,0,0.1,0,0.2,0c0.1,0,0.1,0,0.1,0c0,0,0,0,0,0c-0.1,0-0.1,0-0.2,0
		s-0.1,0-0.2,0C39.1,39.5,38.9,39.6,38.8,39.7c-0.2,0.1-0.3,0.2-0.4,0.4v0.1C38.5,40,38.6,39.8,38.8,39.7z"/>
	<polygon class="st0" points="24,11.5 21.5,6.1 21.5,6.1 24,11.5 	"/>
	<polygon class="st0" points="5.5,7.5 4.6,8.4 5.5,7.5 5.8,7.2 5.8,7.1 	"/>
	<path class="st0" d="M34.1,40.9c0-0.2,0.1-0.3,0.2-0.4c0.1-0.1,0.2-0.2,0.4-0.3c0.1,0,0.3-0.1,0.5-0.1c0.2,0,0.4,0,0.5,0.1
		c0.1,0.1,0.3,0.2,0.4,0.3s0.2,0.2,0.2,0.4c0,0.1,0.1,0.3,0.1,0.5c0,0,0,0,0,0c0-0.2,0-0.4-0.1-0.5c0-0.2-0.1-0.3-0.2-0.4
		c-0.1-0.1-0.2-0.2-0.4-0.3s-0.3-0.1-0.5-0.1c-0.2,0-0.4,0-0.5,0.1c-0.1,0.1-0.3,0.2-0.4,0.3C34.3,40.6,34.2,40.7,34.1,40.9
		c0,0.1-0.1,0.3-0.1,0.5c0,0,0,0,0,0C34.1,41.2,34.1,41,34.1,40.9z"/>
	<path class="st0" d="M39.3,24.1v0.6h0.1V24C39.3,24,39.3,24,39.3,24.1z"/>
	<path class="st0" d="M36.9,40.6c-0.1-0.2-0.2-0.4-0.4-0.6c-0.2-0.1-0.4-0.3-0.6-0.4c-0.2-0.1-0.5-0.1-0.7-0.1c-0.3,0-0.5,0-0.7,0.1
		c-0.2,0.1-0.4,0.2-0.6,0.4c-0.1,0.2-0.3,0.4-0.4,0.6c-0.1,0.2-0.1,0.5-0.1,0.7c0,0,0,0,0,0c0-0.3,0-0.5,0.1-0.7
		c0.1-0.2,0.2-0.4,0.4-0.6c0.2-0.1,0.4-0.3,0.6-0.4c0.2-0.1,0.5-0.1,0.7-0.1c0.3,0,0.5,0,0.7,0.1c0.2,0.1,0.4,0.2,0.6,0.4
		C36.8,40.3,36.8,40.4,36.9,40.6c0.1,0.3,0.1,0.5,0.1,0.8c0,0,0,0,0,0C37.1,41.1,37,40.9,36.9,40.6z"/>
	<polygon class="st0" points="40.8,39.6 40.8,38.8 40.8,38.7 40.7,38.7 40.7,38.8 40.7,39.6 40,39.6 40,40.2 40.1,40.2 40.1,39.6 	
		"/>
	<path class="st0" d="M33.5,10l1,1.4h0.1L33.5,10l-0.4-0.6c0,0,0,0-0.1,0L33.5,10z"/>
	<path class="st0" d="M37.1,4.5c0,0-0.1-0.1-0.2-0.1C37,4.5,37,4.5,37.1,4.5z"/>
	<path class="st0" d="M41.9,42.6c0.1,0,0.1,0,0.1,0c0.1,0,0.2,0,0.3,0c-0.1,0-0.2,0-0.3,0C42,42.6,42,42.6,41.9,42.6z"/>
	<path class="st0" d="M36.5,2.7c-0.1,0-0.2,0-0.3,0C36.2,2.6,36.4,2.6,36.5,2.7z"/>
	<path class="st0" d="M40.8,42.2v-2h0L40.8,42.2c0,0.4,0,0.7,0.2,0.8c0.2,0.1,0.4,0.2,0.7,0.2c0,0,0,0,0,0c-0.3,0-0.6-0.1-0.7-0.2
		C40.9,42.8,40.8,42.5,40.8,42.2z"/>
	<path class="st0" d="M30.6,40.2c0.1,0,0.3-0.1,0.5-0.1c0.2,0,0.4,0,0.5,0.1c0.1,0.1,0.3,0.2,0.4,0.3c0.1,0.1,0.2,0.2,0.2,0.4
		c0,0.1,0.1,0.3,0.1,0.5c0,0.2,0,0.4-0.1,0.5c0,0.1-0.1,0.2-0.1,0.2c0.1-0.1,0.1-0.2,0.1-0.3c0-0.1,0.1-0.3,0.1-0.5
		c0-0.2,0-0.4-0.1-0.5c0-0.2-0.1-0.3-0.2-0.4c-0.1-0.1-0.2-0.2-0.4-0.3s-0.3-0.1-0.5-0.1C31,40.1,30.8,40.1,30.6,40.2
		C30.6,40.2,30.6,40.2,30.6,40.2C30.5,40.2,30.6,40.2,30.6,40.2z"/>
	<path class="st0" d="M41.8,42.6C41.8,42.6,41.7,42.6,41.8,42.6C41.7,42.6,41.7,42.6,41.8,42.6C41.8,42.6,41.8,42.6,41.8,42.6z"/>
	<path class="st0" d="M42.2,43.1c-0.1,0-0.1,0-0.2,0C42.1,43.1,42.2,43.1,42.2,43.1z"/>
	<rect x="41.4" y="39.6" class="st0" width="0.9" height="0"/>
	<path class="st0" d="M41.6,42.6c0,0-0.1,0-0.1-0.1c0-0.1-0.1-0.2-0.1-0.3c0,0.1,0,0.2,0,0.3C41.5,42.6,41.5,42.6,41.6,42.6z"/>
	<rect x="28.1" y="40.1" class="st0" width="1" height="0.1"/>
	<path class="st0" d="M9.1,11.3c-0.1-0.1-0.3-0.1-0.4-0.2C8.8,11.2,9,11.3,9.1,11.3z"/>
	<path class="st0" d="M22.7,33.7c-0.4,0.3-0.9,0.5-1.6,0.5c0,0,0,0-0.1,0c0,0,0,0-0.1,0c-1.6,0-2.8-1.2-2.8-3.1c0,0,0,0,0,0
		c0,1.9,1.2,3.1,2.8,3.1c0,0,0,0,0.1,0c0,0,0.1,0,0.1,0C21.7,34.3,22.3,34.1,22.7,33.7z"/>
	<path class="st0" d="M24.6,42.5c0.2,0.1,0.4,0.1,0.6,0.1c0,0,0,0,0,0C25.1,42.7,24.9,42.6,24.6,42.5c-0.1-0.1-0.3-0.2-0.4-0.5l0,0
		C24.3,42.3,24.5,42.4,24.6,42.5z"/>
	<path class="st0" d="M23,39.5c-0.3,0-0.5,0-0.7,0.1c-0.2,0.1-0.3,0.3-0.4,0.5v0c0.1-0.2,0.2-0.4,0.4-0.5
		C22.5,39.6,22.8,39.6,23,39.5c0,0,0.1,0,0.2,0c0.1,0,0.1,0,0.2,0c0,0,0,0,0,0c-0.1,0-0.1,0-0.2,0S23.1,39.5,23,39.5z"/>
	<path class="st0" d="M24.2,43C24.2,42.9,24.2,42.9,24.2,43C24.2,42.9,24.2,42.9,24.2,43z"/>
	<path class="st0" d="M26.6,40.3l-0.5,0.3c0,0,0,0,0,0L26.6,40.3c0-0.2-0.2-0.4-0.5-0.6c-0.2-0.1-0.5-0.2-0.9-0.2c0,0,0,0,0,0
		c0.4,0,0.6,0,0.9,0.2C26.3,39.9,26.5,40.1,26.6,40.3z"/>
	<rect x="21.3" y="39.6" class="st0" width="0.6" height="0"/>
	<path class="st0" d="M8,7.6c0.1-0.3,0.2-0.5,0.4-0.7C8.2,7,8.1,7.3,8,7.6z"/>
	<polygon class="st0" points="6.5,7.2 6.5,11.5 6.6,11.5 6.6,7.2 6.6,6.1 6.5,6.1 	"/>
	<path class="st0" d="M7.9,8.8C7.9,8.8,7.9,8.8,7.9,8.8c0-0.4,0-0.8,0.1-1.2C7.9,7.9,7.9,8.3,7.9,8.8z"/>
	<path class="st0" d="M21.1,33.3c1.2,0,2-0.8,1.9-2.1C23,32.5,22.3,33.3,21.1,33.3z"/>
	<path class="st0" d="M22.7,33.7c0.1-0.1,0.2-0.2,0.3-0.3v0C22.9,33.5,22.8,33.6,22.7,33.7z"/>
	<rect x="23" y="34.1" class="st0" width="0.9" height="0"/>
	<path class="st0" d="M28.9,38.7c-0.1,0-0.1,0-0.2,0s-0.2,0-0.2,0c-0.1,0-0.2,0.1-0.2,0.1c-0.1,0.1-0.1,0.3-0.1,0.6v0.1
		c0-0.3,0-0.5,0.1-0.6c0-0.1,0.1-0.1,0.2-0.1c0.1,0,0.1,0,0.2,0S28.8,38.8,28.9,38.7C29,38.8,29,38.8,28.9,38.7
		c0.1,0.1,0.2,0.1,0.3,0.1c0,0,0,0,0,0C29.1,38.7,29.1,38.7,28.9,38.7C29,38.7,28.9,38.7,28.9,38.7z"/>
	<path class="st0" d="M19.8,40.4c0.1,0.2,0.2,0.4,0.3,0.7h0C20.1,40.8,20,40.6,19.8,40.4c-0.1-0.2-0.4-0.3-0.7-0.3c0,0,0,0,0,0
		C19.3,40.1,19.6,40.2,19.8,40.4z"/>
	<path class="st0" d="M11.3,10.8c-0.1,0.1-0.2,0.2-0.3,0.3C11.1,11,11.2,10.9,11.3,10.8z"/>
	<path class="st0" d="M32,42.3C32.1,42.3,32.1,42.2,32,42.3C32.1,42.3,32,42.3,32,42.3C32,42.3,32,42.3,32,42.3z"/>
	<path class="st0" d="M29.8,40.1c0.2-0.1,0.4-0.3,0.6-0.4c0.2-0.1,0.5-0.1,0.7-0.1c0.3,0,0.5,0,0.7,0.1c0.2,0.1,0.4,0.2,0.6,0.4
		c0.1,0.2,0.3,0.4,0.4,0.6c0.1,0.2,0.1,0.5,0.1,0.7c0,0,0,0,0,0c0-0.3,0-0.5-0.1-0.7c-0.1-0.2-0.2-0.4-0.4-0.6
		c-0.2-0.1-0.4-0.3-0.6-0.4c-0.2-0.1-0.5-0.1-0.7-0.1c-0.3,0-0.5,0-0.7,0.1C30.1,39.7,30,39.8,29.8,40.1c-0.1,0.1-0.3,0.3-0.4,0.6
		c-0.1,0.2-0.1,0.5-0.1,0.7c0,0,0,0,0,0c0-0.3,0-0.5,0.1-0.7C29.5,40.4,29.6,40.3,29.8,40.1z"/>
	<rect x="26.8" y="40.1" class="st0" width="0.7" height="0.1"/>
	<path class="st0" d="M9.9,11.5c-0.3,0-0.6-0.1-0.8-0.2C9.3,11.5,9.6,11.5,9.9,11.5z"/>
	<rect x="27.5" y="43.1" class="st0" width="0.6" height="0.1"/>
	<path class="st0" d="M26.1,41.4c0.1,0,0.2,0.1,0.3,0.3c0,0.1,0.1,0.3,0.1,0.5c0,0.2,0,0.4-0.1,0.5c0,0.1-0.1,0.2-0.3,0.3
		c-0.1,0.1-0.2,0.1-0.4,0.2c-0.1,0-0.3,0-0.5,0c0,0,0,0,0,0c0.2,0,0.4,0,0.6,0c0.1,0,0.3-0.1,0.4-0.2c0.1-0.1,0.2-0.2,0.3-0.3
		c0-0.1,0.1-0.3,0.1-0.5c0-0.2,0-0.4-0.1-0.5C26.5,41.6,26.4,41.5,26.1,41.4c0-0.1-0.2-0.1-0.3-0.2c-0.1,0-0.2,0-0.2,0
		c0.1,0,0.1,0,0.2,0C25.9,41.2,26,41.3,26.1,41.4z"/>
	<path class="st0" d="M24.7,40.2c0.1,0,0.3-0.1,0.5-0.1c0,0,0,0,0,0C25,40.1,24.8,40.1,24.7,40.2c-0.2,0.1-0.2,0.2-0.3,0.4
		c0,0,0,0.1,0,0.2c0,0,0.1,0.1,0.2,0.1s0.2,0,0.3,0.1s0.2,0,0.3,0.1c0.1,0,0.1,0,0.2,0c0,0-0.1,0-0.1,0c-0.1,0-0.2,0-0.3-0.1
		c-0.1,0-0.2,0-0.3-0.1c-0.1,0-0.1-0.1-0.2-0.1c0,0,0-0.1,0-0.2C24.5,40.4,24.6,40.3,24.7,40.2z"/>
	<path d="M21.1,29c-1.2,0-2,0.9-2,2.1c0,1.3,0.8,2.1,2,2.1c1.2,0,1.9-0.8,1.9-2.1C23,29.9,22.3,29,21.1,29z"/>
	<path d="M36.8,23.2C36.8,23.2,36.8,23.2,36.8,23.2c0,0.4,0.3,0.8,1,0.8c0.9,0,1.6-0.7,1.6-1.4c0,0,0,0,0,0c0,0,0-0.4,0-0.4
		l-1.8,0.2C37,22.5,36.8,22.8,36.8,23.2z"/>
	<path d="M36.1,40.5c-0.1-0.1-0.2-0.2-0.4-0.3c-0.1,0-0.3-0.1-0.5-0.1c-0.2,0-0.4,0-0.5,0.1c-0.1,0-0.3,0.1-0.4,0.3
		c-0.1,0.1-0.2,0.2-0.2,0.4c0,0.1-0.1,0.3-0.1,0.5c0,0.2,0,0.4,0.1,0.5c0,0.2,0.1,0.3,0.2,0.4c0.1,0.1,0.2,0.2,0.4,0.3
		c0.1,0,0.3,0.1,0.5,0.1c0.2,0,0.4,0,0.5-0.1c0.1-0.1,0.3-0.2,0.4-0.3c0.1-0.1,0.2-0.3,0.2-0.4c0-0.1,0.1-0.3,0.1-0.5
		c0-0.2,0-0.4-0.1-0.5C36.3,40.7,36.2,40.6,36.1,40.5z"/>
	<polygon points="6.6,41.7 9,41.7 7.8,39 	"/>
	<polygon points="16.6,31.8 15.6,27.5 13,31.1 	"/>
	<path d="M32.3,41.4c0-0.2,0-0.4-0.1-0.5c0-0.2-0.1-0.3-0.2-0.4c-0.1-0.1-0.2-0.2-0.4-0.3c-0.1,0-0.3-0.1-0.5-0.1
		c-0.2,0-0.4,0-0.5,0.1c0,0-0.1,0-0.1,0c-0.1,0.1-0.2,0.1-0.2,0.2c-0.1,0.1-0.2,0.3-0.2,0.4c0,0.1-0.1,0.3-0.1,0.5
		c0,0.2,0,0.4,0.1,0.5c0,0.2,0.1,0.3,0.2,0.4c0.1,0.1,0.2,0.2,0.4,0.3c0.1,0,0.3,0.1,0.5,0.1c0.2,0,0.4,0,0.5-0.1
		c0.1-0.1,0.3-0.2,0.3-0.3c0,0,0.1-0.1,0.1-0.1c0,0,0,0,0-0.1c0-0.1,0.1-0.1,0.1-0.2C32.3,41.8,32.3,41.6,32.3,41.4z"/>
	<path d="M11.3,15.1l-7.9,1.8v28.3h40.7V15.1H11.3z M41.4,24.7v-7.4h0.9v7.4v0L41.4,24.7L41.4,24.7z M30.3,17.3L30.3,17.3L30.3,17.3
		h1h0v2.8c0.4-0.5,1-0.8,1.6-0.8c0,0,0,0,0,0c0,0,0,0,0,0c1.4,0,2,1,2,2.3v3.1h0h-0.9h0v-3.2c0-0.9-0.4-1.4-1.2-1.4
		c-0.5,0-1,0.2-1.2,0.6c-0.3,0.4-0.3,1-0.3,1.5h0v2.5h-0.1v0h-0.9V17.3z M26.1,19.4L26.1,19.4h1.1v-1.5h0h0.9h0v1.5h1.4h0v0.8h0
		h-1.4v3.1c0,0.4,0.1,0.7,0.6,0.7c0,0,0,0,0,0c0.3,0,0.5,0,0.8,0c0,0,0,0,0.1,0v0c0,0,0,0,0,0v0.8c-0.3,0-0.6,0.1-1,0.1c0,0,0,0,0,0
		c0,0,0,0,0,0c-0.9,0-1.4-0.4-1.4-1.5v-3h-1h0V19.4z M29.3,30v0.9v0h-3.6v2.2h3.6v0v0.9v0h-4.6v0v-7.5h4.6v1h-3.6V30H29.3z
		 M23.6,22.5c-0.9-0.2-2-0.5-2-1.5c0-0.9,0.8-1.6,2-1.6c0,0,0,0,0,0c0,0,0,0,0.1,0c0.9,0,1.6,0.4,2,1.2l-0.7,0.5c0,0,0,0,0,0l-0.1,0
		c-0.2-0.5-0.7-0.8-1.3-0.8c-0.7,0-1.1,0.3-1.1,0.7c0,0.5,0.5,0.6,1.2,0.7c1.1,0.3,2,0.6,2,1.6c0,1-0.9,1.6-2,1.6c0,0,0,0,0,0
		c0,0,0,0-0.1,0c-0.9,0-1.7-0.4-2.1-1.3l0.7-0.5c0,0,0,0,0,0l0.1,0c0.3,0.6,0.8,0.9,1.4,0.9c0.6,0,1.1-0.3,1.1-0.7
		C24.9,22.7,24.2,22.6,23.6,22.5z M16.1,24.7c0,0,0-5.1,0-5.2c0,0,0,0,0,0H17v0v0.7c0.4-0.6,1-0.8,1.7-0.8c1.4,0,2,0.9,2,2.3v0v3.1
		v0h-0.9v0v-3.1c0-0.9-0.4-1.4-1.2-1.4c-0.5,0-1,0.2-1.3,0.6c-0.1,0.1-0.1,0.2-0.2,0.3c-0.1,0.3-0.2,0.7-0.2,1c0,0,0,0.1,0,0.1v2.4
		c0,0,0,0.1,0,0.1L16.1,24.7L16.1,24.7z M10.3,19.4L10.3,19.4h0.1h0.8h0.1v3.1c0,0.8,0.2,1.4,1.1,1.4c0.5,0,1-0.2,1.2-0.6
		c0.3-0.4,0.3-1,0.3-1.5v-2.5h0.1h0.8H15v5.3h-0.1h-0.8H14v-0.6c-0.4,0.5-0.9,0.8-1.6,0.8c0,0,0,0,0,0c0,0,0,0,0,0
		c-1.4,0-1.9-1-2-2.3V19.4z M5.2,17.3h0.9v4.6l2.4-2.5h1.3l-2.2,2.3l2.2,3h0l0,0H8.6l-1.7-2.3l-0.8,0.7v1.6H5.2V17.3z M10.4,43.2
		H9.8v0l-0.4-0.8h-3L6,43.1H5.9l0,0H5.2l2-4.4l0.2-0.5h0l0,0h0.7l0.3,0.5l2,4.4L10.4,43.2L10.4,43.2z M16.7,43.1L16.7,43.1h-0.2H16
		h-0.1V41c0-0.3,0-0.6-0.2-0.7c-0.1-0.1-0.3-0.2-0.6-0.2c-0.2,0-0.3,0-0.5,0.1c-0.1,0.1-0.2,0.2-0.3,0.3c-0.1,0.1-0.1,0.3-0.2,0.5
		s0,0.4,0,0.6v1.6H14h-0.5h-0.1V41c0-0.3,0-0.6-0.2-0.7c-0.1-0.1-0.3-0.2-0.6-0.2c-0.2,0-0.3,0-0.5,0.1c-0.1,0.1-0.2,0.2-0.3,0.3
		c-0.1,0.1-0.1,0.3-0.1,0.5c0,0.2,0,0.4,0,0.6v1.6h-0.1h-0.5H11v-3.5h0.1h0.5h0.1V40c0.1-0.1,0.2-0.2,0.4-0.3
		c0.2-0.1,0.4-0.1,0.7-0.1c0,0,0,0,0,0c0,0,0,0,0,0c0.3,0,0.6,0,0.7,0.2c0.2,0.1,0.3,0.3,0.4,0.4c0.1-0.2,0.3-0.3,0.5-0.4
		c0.2-0.1,0.5-0.2,0.8-0.2c0,0,0,0,0.1,0c0,0,0,0,0,0c0,0,0,0,0.1,0c0.1,0,0.1,0,0.2,0c0.1,0,0.3,0,0.3,0.1c0.2,0.1,0.3,0.2,0.4,0.3
		c0.1,0.1,0.2,0.3,0.2,0.5c0,0.2,0.1,0.4,0.1,0.7V43.1z M12.3,31.9L9,36.3l0,0l0,0l-1-0.2l1.7-2.3l-2.4-3.1l-1.1,1.1v2.4h0H5.2h0
		v-7.4h0h0.9h0v3.7l3.6-3.7h0h1.3h0L8,29.9l2.4,3l5-6.7l0,0l0,0l1,0.2l2.7,11.9l0,0l0,0L18,38.2l-1.2-5.3L12.3,31.9z M20.7,41.7
		h-2.8c0,0.2,0,0.3,0.1,0.4c0.1,0.1,0.1,0.2,0.2,0.3c0.1,0.1,0.2,0.1,0.4,0.2s0.3,0.1,0.4,0.1c0.3,0,0.5,0,0.7-0.1
		c0.2-0.1,0.3-0.2,0.5-0.4l0.3,0.5c0,0,0,0,0,0l0.1,0.1c0,0.1-0.1,0.1-0.2,0.2c-0.1,0-0.2,0.1-0.3,0.2c-0.1,0-0.2,0.1-0.4,0.1
		c-0.1,0-0.3,0-0.5,0c-0.3,0-0.5,0-0.7-0.1c-0.2-0.1-0.4-0.2-0.6-0.4c-0.1-0.1-0.3-0.3-0.4-0.6c0,0,0,0,0,0c0,0,0,0,0-0.1
		c-0.1-0.2-0.1-0.5-0.1-0.7s0-0.5,0.1-0.7c0.1-0.2,0.2-0.4,0.3-0.6c0.1-0.2,0.3-0.3,0.6-0.4c0.2-0.1,0.5-0.1,0.7-0.1
		c0.3,0,0.5,0,0.7,0.1c0.2,0.1,0.4,0.2,0.5,0.4c0.1,0.1,0.1,0.1,0.1,0.2c0.1,0.1,0.2,0.3,0.3,0.4c0,0.2,0.1,0.5,0.1,0.7V41.7z
		 M21,34.2C21,34.2,21,34.2,21,34.2c-1.7,0-2.9-1.2-2.9-3.1c0,0,0,0,0,0c0,0,0,0,0,0c0-1.9,1.2-3.1,2.8-3.1c0.9,0,1.6,0.4,2,0.9
		v-2.2v0h0.9v0v7.4v0H23v0v-0.7c-0.1,0.1-0.2,0.2-0.3,0.3c0,0,0,0,0,0C22.3,34.1,21.7,34.3,21,34.2C21.1,34.2,21.1,34.2,21,34.2z
		 M23.4,39.6c0,0.1,0,0.6,0,0.6v0c-0.1,0-0.1,0-0.2,0s-0.1,0-0.2,0c-0.2,0-0.4,0-0.5,0.1c-0.1,0.1-0.2,0.1-0.3,0.3
		C22.1,40.7,22,40.8,22,41c0,0.2,0,0.4,0,0.6v1.6v0h-0.6v0v-3.5v0h0.6v0v0.5c0.1-0.2,0.2-0.3,0.4-0.5c0.2-0.1,0.4-0.1,0.7-0.1
		c0,0,0.1,0,0.2,0S23.3,39.5,23.4,39.6C23.4,39.6,23.4,39.6,23.4,39.6z M24.5,40.8c0,0,0.1,0.1,0.2,0.1c0.1,0,0.2,0.1,0.3,0.1
		c0.1,0,0.2,0,0.3,0.1c0,0,0.1,0,0.1,0c0,0,0.1,0,0.1,0c0.1,0,0.2,0,0.2,0c0.1,0,0.3,0.1,0.4,0.2c0.1,0.1,0.2,0.2,0.3,0.3
		c0.1,0.1,0.1,0.3,0.1,0.5c0,0.2,0,0.4-0.1,0.5c0,0.1-0.2,0.2-0.3,0.3c-0.1,0.1-0.3,0.1-0.4,0.2c-0.2,0-0.4,0-0.6,0c0,0,0,0,0,0
		c0,0,0,0,0,0c-0.1,0-0.3,0-0.5,0c-0.1,0-0.3-0.1-0.4-0.1c0,0-0.1-0.1-0.1-0.1c0,0,0,0,0,0c-0.1-0.1-0.2-0.1-0.2-0.2
		c-0.1-0.1-0.2-0.2-0.3-0.4l0.5-0.3c0,0,0,0,0,0l0,0c0.1,0.2,0.3,0.4,0.5,0.5c0.2,0.1,0.4,0.1,0.6,0.1c0.2,0,0.4,0,0.5-0.1
		c0.1-0.1,0.2-0.2,0.2-0.4c0-0.1,0-0.2,0-0.2c0,0-0.1-0.1-0.1-0.1s-0.1,0-0.2-0.1c-0.1,0-0.2,0-0.3-0.1c-0.1,0-0.3,0-0.5-0.1
		c-0.1,0-0.3-0.1-0.4-0.2c-0.1,0-0.2-0.1-0.3-0.3c-0.1-0.1-0.1-0.3-0.1-0.5c0-0.3,0.1-0.6,0.3-0.7c0.2-0.2,0.6-0.3,1-0.3
		c0,0,0,0,0,0c0,0,0,0,0,0c0.4,0,0.7,0,0.9,0.2c0.2,0.1,0.4,0.3,0.5,0.6l-0.5,0.3c0,0,0,0,0,0l0,0c-0.1-0.1-0.2-0.3-0.3-0.4
		c-0.1-0.1-0.3-0.1-0.5-0.1c-0.2,0-0.4,0-0.5,0.1c-0.1,0.1-0.2,0.2-0.2,0.3C24.5,40.6,24.5,40.7,24.5,40.8z M29.2,38.3
		c0,0,0,0.3,0,0.4c0,0,0,0,0,0c0,0,0,0,0,0c0,0-0.1,0-0.2,0s0,0-0.1,0c-0.1,0-0.1,0-0.2,0s-0.1,0-0.2,0c-0.1,0-0.2,0-0.2,0.1
		c-0.1,0.1-0.1,0.3-0.1,0.6v0.1h1v0.1v0.4v0.1h-1v2.9v0.1h-0.6v-0.1v-2.9h-0.7v-0.1v-0.4v-0.1h0.7v-0.1v-0.1c0-0.2,0-0.5,0.1-0.6
		c0,0,0,0,0-0.1c0-0.1,0.1-0.2,0.2-0.3c0.1-0.1,0.2-0.2,0.4-0.2c0.1,0,0.3,0,0.5,0c0.1,0,0.2,0,0.3,0c0.1,0,0.2,0,0.3,0V38.3z
		 M32.8,42.2c-0.1,0.2-0.2,0.4-0.4,0.6c-0.2,0.1-0.4,0.3-0.6,0.4c-0.2,0.1-0.5,0.1-0.7,0.1c-0.3,0-0.5,0-0.7-0.1
		C30.1,43,30,43,29.8,42.8c-0.1-0.2-0.3-0.4-0.4-0.6c-0.1-0.2-0.1-0.5-0.1-0.7c0,0,0,0,0,0c0,0,0,0,0,0c0-0.3,0-0.5,0.1-0.7
		c0.1-0.2,0.2-0.4,0.4-0.6c0.2-0.2,0.4-0.3,0.6-0.4c0.2-0.1,0.5-0.1,0.7-0.1c0.3,0,0.5,0,0.7,0.1c0.2,0.1,0.4,0.2,0.6,0.4
		c0.2,0.2,0.3,0.4,0.4,0.6c0.1,0.2,0.1,0.5,0.1,0.7c0,0,0,0,0,0c0,0,0,0,0,0C33,41.7,32.9,41.9,32.8,42.2z M37.1,41.4
		c0,0.3,0,0.5-0.1,0.7c-0.1,0.2-0.2,0.4-0.4,0.6c-0.2,0.1-0.4,0.3-0.6,0.4c-0.2,0.1-0.5,0.1-0.7,0.1c-0.3,0-0.5,0-0.7-0.1
		c-0.2-0.1-0.4-0.2-0.6-0.4c-0.1-0.2-0.3-0.4-0.4-0.6c-0.1-0.2-0.1-0.5-0.1-0.7c0,0,0,0,0,0c0,0,0,0,0,0c0-0.3,0-0.5,0.1-0.7
		c0.1-0.2,0.2-0.4,0.4-0.6c0.2-0.2,0.4-0.3,0.6-0.4c0.2-0.1,0.5-0.1,0.7-0.1c0.3,0,0.5,0,0.7,0.1c0.2,0.1,0.4,0.2,0.6,0.4
		c0.2,0.2,0.3,0.4,0.4,0.6C37,40.9,37.1,41.1,37.1,41.4C37.1,41.4,37.1,41.4,37.1,41.4C37.1,41.4,37.1,41.4,37.1,41.4z M35.8,23.2
		c0-1,0.7-1.6,1.6-1.7l1.5-0.1c0.2,0,0.4-0.2,0.4-0.4v-0.1c0-0.5-0.4-0.8-1.1-0.8c-0.7,0-1.2,0.3-1.3,1l-0.1,0c0,0,0,0,0,0L36,20.6
		c0.2-0.8,0.8-1.4,2.1-1.4c0,0,0,0,0.1,0c0,0,0,0,0,0c1.4,0,2.1,0.8,2.1,2v3.4h-0.1h-0.8h-0.1v-0.6c-0.4,0.4-0.9,0.7-1.7,0.8
		C36.4,24.8,35.8,24.1,35.8,23.2z M39.8,40.3c-0.1,0-0.1,0-0.2,0s-0.1,0-0.2,0c-0.2,0-0.4,0-0.5,0.1c-0.1,0.1-0.2,0.1-0.3,0.3
		c-0.1,0.1-0.1,0.2-0.2,0.4c0,0.2,0,0.4,0,0.6v1.6h-0.6v0h0v-3.5h0.6v0h0V40c0.1-0.2,0.2-0.3,0.4-0.4c0.2-0.1,0.4-0.1,0.7-0.1
		c0,0,0.1,0,0.2,0s0.1,0,0.2,0c0,0,0,0,0,0c0,0,0,0,0,0V40.3z M42.3,43.1c0,0-0.1,0-0.1,0c-0.1,0-0.1,0-0.2,0c0,0,0,0,0,0
		c-0.1,0-0.2,0-0.3,0c0,0,0,0,0,0c0,0,0,0,0,0c-0.3,0-0.6-0.1-0.7-0.2c-0.1-0.1-0.2-0.4-0.2-0.8v-2h-0.7h0v-0.5h0.7v-0.9v0h0h0.6v0
		v0.9h0.9v0v0.5h-0.9v2c0,0.1,0,0.2,0.1,0.3c0,0,0.1,0.1,0.1,0.1c0,0,0.1,0,0.2,0c0,0,0,0,0.1,0c0,0,0.1,0,0.1,0c0.1,0,0.1,0,0.1,0
		c0.1,0,0.2,0,0.3,0V43.1z"/>
	<path d="M19,40.1c-0.4,0-0.6,0.1-0.8,0.3c-0.2,0.2-0.3,0.4-0.3,0.7H20c0-0.3-0.1-0.5-0.3-0.7C19.6,40.2,19.3,40.1,19,40.1z"/>
	<polygon class="st1" points="6.1,23.1 6.9,22.4 8.6,24.7 9.8,24.7 9.8,24.7 7.5,21.8 9.8,19.4 8.5,19.4 6.1,21.9 6.1,17.3 
		5.2,17.3 5.2,24.7 6.1,24.7 	"/>
	<path class="st1" d="M12.3,24.8C12.3,24.8,12.3,24.8,12.3,24.8c0.8,0,1.3-0.3,1.7-0.9v0.1v0.6h0.1h0.8v-5.3h-0.8H14v2.5
		c0,0.5,0,1.1-0.3,1.5c-0.2,0.4-0.7,0.6-1.2,0.6c0,0,0,0,0,0c-0.9,0-1.2-0.6-1.2-1.4v-3.1h-0.8h0h-0.1v3.1
		C10.4,23.9,10.9,24.8,12.3,24.8z"/>
	<path class="st1" d="M17,24.7v-2.4c0,0,0-0.1,0-0.1c0-0.3,0-0.7,0.2-1c0-0.1,0.1-0.2,0.2-0.3c0.3-0.4,0.7-0.6,1.3-0.6
		c0.8,0,1.2,0.5,1.2,1.4v3.1v0h0.9v0v-3.1c0-1.4-0.6-2.3-2-2.3c-0.7,0-1.3,0.2-1.7,0.8v0v-0.7h-0.9c0,0.1,0,5.2,0,5.2v0.1L17,24.7
		C17,24.7,17,24.7,17,24.7z"/>
	<path class="st1" d="M21.7,20.9c0,1.1,1.1,1.4,2,1.5c0.6,0.1,1.2,0.3,1.2,0.8c0,0.4-0.6,0.7-1.2,0.7c0,0,0,0,0,0
		c-0.5,0-1.1-0.2-1.4-0.9l-0.1,0l-0.7,0.4c0.4,0.9,1.2,1.2,2.1,1.3c0,0,0,0,0,0c1.2,0,2-0.6,2-1.6c0-1-0.8-1.3-2-1.6
		c-0.7-0.1-1.2-0.3-1.2-0.7c0-0.4,0.4-0.7,1.1-0.7c0,0,0,0,0,0c0.6,0,1.1,0.3,1.3,0.8c0,0,0,0,0,0l0.7-0.5c-0.4-0.8-1.2-1.2-2-1.2
		c0,0,0,0-0.1,0C22.5,19.3,21.7,20,21.7,20.9z"/>
	<path class="st1" d="M27.2,20.2v3c0,1.1,0.5,1.5,1.4,1.5c0,0,0,0,0,0c0.3,0,0.6,0,1-0.1v-0.8v0c0,0,0,0-0.1,0c-0.2,0-0.5,0-0.8,0
		c0,0,0,0,0,0c0,0,0,0,0,0c-0.5,0-0.6-0.2-0.6-0.7v-3.1h0h1.4v-0.8h-1.4h0v-1.5h-0.9h0v1.5h-1h0v0.8h0H27.2z"/>
	<path class="st1" d="M31.2,24.7L31.2,24.7l0.1-2.5h0c0-0.5,0-1.1,0.3-1.5c0.3-0.4,0.7-0.6,1.2-0.6c0,0,0,0,0,0
		c0.8,0,1.3,0.5,1.3,1.4v3.2H35h0v-3.1c0-1.4-0.6-2.3-2-2.3c0,0,0,0,0,0c-0.6,0-1.2,0.3-1.7,0.8v-0.1v-2.8h0h-0.9v7.4H31.2z"/>
	<path class="st1" d="M39.3,24.1c0,0,0.1-0.1,0.1-0.1v0.7h0.8h0.1v-3.4c0-1.2-0.7-2-2.1-2c0,0,0,0,0,0c-1.2,0-1.9,0.6-2.1,1.3
		l0.8,0.4l0.1,0c0.1-0.6,0.6-1,1.3-1c0,0,0,0,0,0c0.7,0,1.2,0.3,1.2,0.8V21c0,0.2-0.1,0.4-0.4,0.4l-1.5,0.1c-1,0.1-1.7,0.7-1.7,1.7
		c0,0.9,0.7,1.6,1.8,1.6C38.3,24.8,38.9,24.5,39.3,24.1z M37.6,22.4l1.8-0.2v0.4c0,0,0,0,0,0c0,0.6-0.7,1.4-1.6,1.4
		c-0.7,0-1-0.3-1-0.7c0,0,0,0,0,0C36.8,22.8,37,22.5,37.6,22.4z"/>
	<rect x="41.4" y="17.3" class="st1" width="0.9" height="7.4"/>
	<polygon class="st1" points="25.7,27.7 25.8,27.7 29.3,27.7 29.3,26.7 24.8,26.7 24.8,34.2 29.3,34.2 29.3,33.2 29.3,33.2 
		25.8,33.2 25.7,33.2 25.7,30.9 29.3,30.9 29.3,30 25.8,30 25.7,30 	"/>
	<path class="st1" d="M20.9,34.2C21,34.2,21,34.2,20.9,34.2c0.1,0,0.1,0,0.2,0c0.7,0,1.2-0.1,1.6-0.5c0,0,0,0,0,0
		c0.1-0.1,0.2-0.2,0.3-0.4v0v0.7h0.9v-7.4v0H23v0V29c-0.4-0.6-1.1-0.9-2-0.9c-1.6,0-2.8,1.2-2.8,3.1c0,0,0,0,0,0
		C18.1,33,19.3,34.2,20.9,34.2z M21.1,33.3c-1.2,0-2-0.9-2-2.1c0-1.3,0.8-2.1,2-2.1c1.2,0,1.9,0.8,1.9,2.1
		C23.1,32.5,22.3,33.3,21.1,33.3z"/>
	<path class="st1" d="M19.1,38.4L19.1,38.4l-2.7-11.9l-1-0.2l0,0l-5,6.7l0,0l-2.4-3.1l3.2-3.2H9.8h0l-3.6,3.7l0,0v-3.7H5.2h0v7.4h0
		h0.9v-2.4l1.1-1.1l0,0l2.4,3.1L8,36.1l1,0.2l0,0l3.3-4.4l0,0l4.5,1l1.2,5.3L19.1,38.4z M16.6,31.8L13,31.1l2.7-3.5L16.6,31.8z"/>
	<path class="st1" d="M23,39.6c-0.2,0-0.5,0-0.7,0.1c-0.2,0.1-0.3,0.3-0.4,0.5v0v-0.5h-0.6v3.5v0h0.6v0v-1.6c0-0.2,0-0.4,0-0.6
		c0-0.2,0.1-0.3,0.2-0.4c0.1-0.1,0.2-0.2,0.3-0.3c0.1,0,0.3-0.1,0.5-0.1c0,0,0.1,0,0.2,0s0.1,0,0.2,0v0c0,0,0-0.5,0-0.6
		c0,0-0.1,0-0.2,0C23.2,39.6,23.1,39.6,23,39.6z"/>
	<path class="st1" d="M24.9,41c-0.1,0-0.2,0-0.3-0.1s-0.1-0.1-0.2-0.1c0,0,0-0.1,0-0.2c0.1-0.2,0.1-0.3,0.3-0.4
		c0.1-0.1,0.3-0.1,0.5-0.1c0,0,0,0,0,0c0.2,0,0.4,0,0.5,0.1c0.1,0.1,0.2,0.2,0.3,0.4l0,0l0.5-0.3c-0.1-0.2-0.3-0.4-0.5-0.6
		c-0.2-0.1-0.5-0.2-0.9-0.2c0,0,0,0,0,0c-0.4,0-0.7,0.1-1,0.3c-0.2,0.2-0.3,0.5-0.3,0.7c0,0.2,0,0.4,0.1,0.5
		c0.1,0.1,0.2,0.2,0.3,0.3c0.1,0.1,0.3,0.1,0.4,0.2c0.1,0,0.3,0.1,0.5,0.1c0.1,0,0.2,0,0.3,0.1c0.1,0,0.2,0,0.2,0.1s0.1,0.1,0.1,0.1
		c0,0,0,0.1,0,0.2c0,0.2,0,0.3-0.2,0.4c-0.1,0.1-0.3,0.1-0.5,0.1c0,0,0,0,0,0c-0.2,0-0.4,0-0.6-0.1c-0.2-0.1-0.3-0.2-0.5-0.4
		c0,0,0,0,0,0l-0.5,0.3c0.1,0.1,0.1,0.3,0.3,0.4c0.1,0.1,0.1,0.1,0.2,0.2c0,0,0,0,0,0c0,0,0.1,0.1,0.1,0.1c0.1,0,0.3,0.1,0.4,0.1
		c0.1,0,0.3,0,0.5,0c0,0,0,0,0,0c0.2,0,0.4,0,0.5,0c0.2,0,0.3-0.1,0.4-0.2c0.1-0.1,0.2-0.2,0.3-0.3c0-0.1,0.1-0.3,0.1-0.5
		c0-0.2,0-0.4-0.1-0.5c-0.1-0.1-0.2-0.2-0.3-0.3c-0.1-0.1-0.3-0.1-0.4-0.2c-0.1,0-0.1,0-0.2,0c0,0-0.1,0-0.1,0c-0.1,0-0.1,0-0.2,0
		C25.1,41,25,41,24.9,41z"/>
	<path class="st1" d="M32.8,40.7c-0.1-0.2-0.2-0.4-0.4-0.6c-0.2-0.2-0.4-0.3-0.6-0.4c-0.2-0.1-0.5-0.1-0.7-0.1c-0.3,0-0.5,0-0.7,0.1
		c-0.2,0.1-0.4,0.2-0.6,0.4c-0.2,0.2-0.3,0.4-0.4,0.6c-0.1,0.2-0.1,0.5-0.1,0.7c0,0,0,0,0,0c0,0.3,0,0.5,0.1,0.7
		c0.1,0.2,0.2,0.4,0.4,0.6c0.2,0.2,0.4,0.3,0.6,0.4c0.2,0.1,0.5,0.1,0.7,0.1c0.3,0,0.5,0,0.7-0.1c0.2-0.1,0.4-0.2,0.6-0.4
		c0.2-0.2,0.3-0.4,0.4-0.6c0.1-0.2,0.1-0.5,0.1-0.7c0,0,0,0,0,0C33,41.1,32.9,40.9,32.8,40.7z M31.2,40.1c0.2,0,0.4,0,0.5,0.1
		s0.3,0.1,0.4,0.3c0.1,0.1,0.2,0.2,0.2,0.4c0,0.1,0.1,0.3,0.1,0.5c0,0.2,0,0.4-0.1,0.5c0,0.1-0.1,0.2-0.1,0.3c0,0,0,0,0,0.1
		c0,0,0,0.1-0.1,0.1c0,0,0,0,0,0c-0.1,0.1-0.2,0.2-0.3,0.3c-0.1,0-0.3,0.1-0.5,0.1c-0.2,0-0.4,0-0.5-0.1c-0.1,0-0.3-0.1-0.4-0.3
		c-0.1-0.1-0.2-0.2-0.2-0.4c0-0.1-0.1-0.3-0.1-0.5c0-0.2,0-0.4,0.1-0.5c0-0.1,0.1-0.3,0.2-0.4c0.1-0.1,0.1-0.1,0.2-0.2
		c0,0,0.1-0.1,0.1-0.1C30.8,40.1,31,40.1,31.2,40.1z"/>
	<path class="st1" d="M16.4,40.4c0-0.1,0-0.3-0.1-0.5c-0.1-0.1-0.2-0.2-0.4-0.3c-0.1,0-0.2-0.1-0.2-0.1c-0.1,0-0.1,0-0.2,0
		c0,0-0.1,0-0.1,0c0,0,0,0-0.1,0c-0.3,0-0.6,0-0.8,0.2c-0.2,0.1-0.3,0.3-0.5,0.4c0,0,0,0-0.1,0.1c-0.1-0.2-0.2-0.4-0.4-0.5
		c-0.2-0.1-0.4-0.2-0.7-0.2c0,0,0,0,0,0c-0.3,0-0.5,0-0.7,0.1c-0.1,0.1-0.3,0.2-0.4,0.3c0,0-0.1,0.1-0.1,0.1v-0.5h-0.5H11v3.5h0.1
		h0.5v-1.6c0-0.2,0-0.4,0-0.6c0-0.2,0.1-0.3,0.1-0.5c0.1-0.1,0.2-0.2,0.3-0.3c0.1-0.1,0.3-0.1,0.5-0.1c0,0,0,0,0,0
		c0.3,0,0.4,0.1,0.6,0.2c0.1,0.1,0.2,0.4,0.2,0.7v2.1h0.1H14v-1.6c0-0.2,0-0.4,0-0.6c0-0.2,0.1-0.3,0.2-0.5c0.1-0.1,0.2-0.2,0.3-0.3
		c0.1-0.1,0.3-0.1,0.5-0.1c0,0,0,0,0,0c0.3,0,0.4,0.1,0.6,0.2c0.1,0.1,0.2,0.4,0.2,0.7v2.1H16h0.5v-2C16.5,40.9,16.4,40.6,16.4,40.4
		z"/>
	<path class="st1" d="M20.4,40.2c0,0-0.1-0.1-0.1-0.1c-0.1-0.2-0.3-0.3-0.5-0.4c-0.2-0.1-0.5-0.1-0.7-0.1s-0.5,0-0.7,0.1
		c-0.2,0.1-0.4,0.2-0.6,0.4c-0.1,0.2-0.3,0.4-0.3,0.6c-0.1,0.2-0.1,0.5-0.1,0.7c0,0.3,0,0.5,0.1,0.7c0,0,0,0,0,0
		c0.1,0.2,0.2,0.4,0.4,0.6c0.1,0.1,0.3,0.3,0.6,0.4c0.2,0.1,0.5,0.1,0.7,0.1c0.2,0,0.3,0,0.5,0c0.1,0,0.3-0.1,0.4-0.1
		c0.1,0,0.2-0.1,0.3-0.2c0.1-0.1,0.2-0.1,0.2-0.2l-0.1-0.1l-0.3-0.4c-0.1,0.1-0.3,0.3-0.5,0.4c-0.2,0.1-0.4,0.1-0.7,0.1
		c-0.1,0-0.3,0-0.4-0.1c-0.1,0-0.2-0.1-0.4-0.2c-0.1-0.1-0.2-0.2-0.2-0.3c0,0,0,0,0,0c0-0.1-0.1-0.3-0.1-0.4h2.8v-0.3
		c0-0.3,0-0.5-0.1-0.7C20.6,40.5,20.5,40.3,20.4,40.2z M19.8,40.4c0.2,0.2,0.3,0.4,0.3,0.7h0h-2.1c0-0.3,0.1-0.5,0.3-0.7
		c0.2-0.2,0.4-0.3,0.8-0.3c0,0,0,0,0,0C19.4,40.1,19.6,40.2,19.8,40.4z"/>
	<path class="st1" d="M41.9,42.6c0,0-0.1,0-0.1,0c0,0,0,0,0,0c0,0,0,0,0,0c-0.1,0-0.1,0-0.2,0c-0.1,0-0.1,0-0.1-0.1
		c0-0.1,0-0.2,0-0.3v-2h0.9v-0.5h-0.9v0v-0.9v0h-0.6v0v0.9h-0.7v0.5h0.7h0v2c0,0.4,0.1,0.7,0.2,0.8c0.1,0.1,0.4,0.2,0.7,0.2
		c0,0,0,0,0,0c0.1,0,0.2,0,0.3,0c0,0,0,0,0,0c0.1,0,0.1,0,0.2,0c0,0,0.1,0,0.1,0v-0.5c-0.1,0-0.2,0-0.3,0C42,42.6,42,42.6,41.9,42.6
		z"/>
	<path class="st1" d="M28.6,38.2c-0.2,0-0.3,0-0.5,0c-0.1,0-0.3,0.1-0.4,0.2c-0.1,0.1-0.1,0.2-0.2,0.3c0,0,0,0,0,0.1
		c0,0.1-0.1,0.4-0.1,0.6v0.1v0.1h-0.7v0.1v0.4h0.7v0.1v2.9h0.6v-2.9v-0.1h1v-0.4v-0.1h-1v-0.1v-0.1c0-0.3,0-0.5,0.1-0.6
		c0,0,0.1-0.1,0.2-0.1c0,0,0.1,0,0.2,0s0.1,0,0.2,0c0,0,0,0,0.1,0s0.1,0,0.2,0c0,0,0,0,0,0c0-0.1,0-0.4,0-0.4v-0.1
		c-0.1,0-0.2,0-0.3,0C28.8,38.2,28.7,38.2,28.6,38.2z"/>
	<path class="st1" d="M8.5,38.7l-0.3-0.5H7.5l0,0l-0.2,0.5l-2,4.4h0.6H6l0.4-0.8l0,0h3.1l0.4,0.9h0.5h0.2L8.5,38.7z M6.6,41.7
		L7.8,39L9,41.7H6.6z"/>
	<path class="st1" d="M39.6,39.6c-0.1,0-0.1,0-0.2,0c-0.2,0-0.5,0-0.7,0.1c-0.2,0.1-0.3,0.3-0.4,0.5V40v-0.4h0h-0.6v3.5v0h0.6v-1.6
		c0-0.2,0-0.4,0-0.6c0-0.2,0.1-0.3,0.2-0.4c0.1-0.1,0.2-0.2,0.3-0.3c0.1,0,0.3-0.1,0.5-0.1c0,0,0.1,0,0.2,0s0.1,0,0.2,0v-0.7
		c0,0,0,0,0,0C39.7,39.6,39.7,39.6,39.6,39.6z"/>
	<path class="st1" d="M36.6,40.1c-0.2-0.2-0.4-0.3-0.6-0.4c-0.2-0.1-0.5-0.1-0.7-0.1c-0.3,0-0.5,0-0.7,0.1c-0.2,0.1-0.4,0.2-0.6,0.4
		c-0.2,0.2-0.3,0.4-0.4,0.6c-0.1,0.2-0.1,0.5-0.1,0.7c0,0,0,0,0,0c0,0.3,0,0.5,0.1,0.7c0.1,0.2,0.2,0.4,0.4,0.6
		c0.2,0.2,0.4,0.3,0.6,0.4c0.2,0.1,0.5,0.1,0.7,0.1c0.3,0,0.5,0,0.7-0.1c0.2-0.1,0.4-0.2,0.6-0.4c0.2-0.2,0.3-0.4,0.4-0.6
		c0.1-0.2,0.1-0.5,0.1-0.7c0,0,0,0,0,0c0-0.3,0-0.5-0.1-0.7C36.8,40.4,36.8,40.3,36.6,40.1z M34.1,40.9c0-0.1,0.1-0.3,0.2-0.4
		c0.1-0.1,0.2-0.2,0.4-0.3c0.1,0,0.3-0.1,0.5-0.1c0.2,0,0.4,0,0.5,0.1s0.3,0.1,0.4,0.3c0.1,0.1,0.2,0.2,0.2,0.4
		c0,0.1,0.1,0.3,0.1,0.5c0,0,0,0,0,0c0,0.2,0,0.4-0.1,0.5c0,0.1-0.1,0.3-0.2,0.4c-0.1,0.1-0.2,0.2-0.4,0.3c-0.1,0-0.3,0.1-0.5,0.1
		c-0.2,0-0.4,0-0.5-0.1c-0.1,0-0.3-0.1-0.4-0.3c-0.1-0.1-0.2-0.2-0.2-0.4c0-0.1-0.1-0.3-0.1-0.5c0,0,0,0,0,0
		C34.1,41.2,34.1,41,34.1,40.9z"/>
	<path class="st2" d="M19.8,13.1h-0.2l-17,1.8c-0.1,0-0.2,0-0.3,0l0.3,1.5c0,0,0.2,0.7,0.9,0.6h0l7.9-1.8L19.8,13.1z"/>
	<path class="st3" d="M2.5,14.9l17-1.8h0H2c-0.1,0-0.2,0-0.3,0c0,0-0.1,0-0.2-0.1l0.1,1.3c0,0,0,0.5,0.5,0.6c0,0,0,0,0.1,0
		C2.3,14.9,2.4,15,2.5,14.9z"/>
	<path class="st2" d="M1.1,8.6C0.9,8.8,0.8,8.9,0.9,9.3l0.3,1.3V9.7L1.1,8.6z"/>
	<path class="st2" d="M37.5,9c0.2-0.1,0.3-0.3,0.2-0.7l-0.4-1.5v1.1L37.5,9z"/>
	<path class="st2" d="M36.1,2.6c0.1,0,0.2,0,0.3,0l-0.3-1.5c0,0-0.2-0.7-0.9-0.6L18.8,4.4h0.3L36.1,2.6z"/>
	<path class="st3" d="M19.1,4.4h17.5c0.1,0,0.2,0,0.3,0c0,0,0.1,0,0.2,0.1l-0.1-1.3c0,0,0-0.5-0.5-0.6c-0.1,0-0.2,0-0.3,0L19.1,4.4z
		"/>
	<path class="st3" d="M37.4,9L37.4,9v2.1c0.2-0.1,0.3-0.3,0.3-0.7L37.5,9l-0.1-1.1V9z"/>
	<path class="st3" d="M1.2,9.7V8.5v0v-2C1,6.5,0.9,6.7,0.9,7l0.1,1.5l0,0L1.2,9.7L1.2,9.7z"/>
	<path d="M10.8,7.3c-0.1-0.2-0.3-0.3-0.4-0.4c-0.1,0-0.3-0.1-0.5-0.1c-0.2,0-0.4,0-0.5,0.1C9.2,7,9.1,7.1,8.9,7.3
		C8.9,7.4,8.8,7.7,8.7,7.9c0,0.2-0.1,0.6-0.1,0.9c0,0.4,0,0.7,0.1,0.9c0.1,0.2,0.2,0.5,0.3,0.6c0.1,0.2,0.3,0.3,0.4,0.4
		c0.1,0,0.3,0.1,0.5,0.1c0.2,0,0.4,0,0.5-0.1c0.1-0.1,0.3-0.2,0.4-0.4c0.1-0.1,0.2-0.4,0.3-0.6c0-0.3,0.1-0.6,0.1-0.9
		c0-0.3,0-0.7-0.1-0.9C11,7.7,10.9,7.4,10.8,7.3z"/>
	<path d="M33.4,8.4c0.2-0.2,0.3-0.4,0.3-0.7c0-0.3-0.1-0.5-0.3-0.7c-0.2-0.2-0.4-0.3-0.7-0.3h-1.4v2h1.4C33,8.7,33.2,8.6,33.4,8.4z"
		/>
	<path d="M19.6,13.1h0.2h16.8c0,0,0.8,0,0.8-0.8v-1.2v0v-2v0V7.8V6.7V5.2c0,0,0-0.5-0.3-0.7c0,0-0.1,0-0.2-0.1s-0.2,0-0.3,0H19.1
		h-0.3H2c0,0-0.8,0-0.8,0.8v1.2v0v2v0v1.2v0.1v0.9v0.1v1.5c0,0,0,0.5,0.3,0.7c0,0,0.1,0,0.2,0.1c0.1,0.1,0.2,0.1,0.3,0.1H19.6
		L19.6,13.1z M30.6,10.6V6.2V6.1h2c0.3,0,0.5,0,0.7,0.1c0.2,0.1,0.4,0.2,0.6,0.3c0.1,0.1,0.3,0.3,0.4,0.5c0.1,0.2,0.1,0.4,0.1,0.7
		c0,0,0,0,0,0c0,0,0,0,0,0c0,0.2,0,0.4-0.1,0.6c-0.1,0.2-0.2,0.3-0.3,0.5c-0.1,0.1-0.3,0.3-0.4,0.4c-0.2,0.1-0.3,0.1-0.5,0.2
		l0.4,0.5l1,1.5h-0.1l0.1,0.1h-0.9l-0.9-1.3l-0.5-0.7h-0.9v1.1v1h-0.7V10.6z M26.7,6.1h0.7l2.2,4.8l0.3,0.6h-0.7L29,11l-0.2-0.5
		h-3.4L25,11.4h-0.7L26.7,6.1z M6.6,7.2v4.2h0H5.9h0V7.4V7.2L5.5,7.5L4.6,8.4L4.1,7.9l0.1-0.1l1.7-1.7h0.6h0V7.2z M11.7,10
		c-0.1,0.3-0.2,0.6-0.4,0.8c-0.1,0.1-0.2,0.2-0.3,0.3c-0.1,0.1-0.2,0.2-0.4,0.2c-0.2,0.1-0.5,0.2-0.8,0.2c-0.3,0-0.6,0-0.8-0.2
		c0,0,0,0,0,0c0,0,0,0,0,0c-0.1,0-0.2-0.1-0.4-0.2c-0.1-0.1-0.2-0.2-0.3-0.3C8.2,10.6,8.1,10.3,8,10C7.9,9.7,7.9,9.3,7.9,8.8
		c0,0,0,0,0,0s0,0,0,0c0-0.5,0-0.8,0.1-1.2C8.1,7.3,8.2,7,8.4,6.9c0,0,0,0,0-0.1c0.1-0.1,0.2-0.2,0.3-0.3C8.8,6.4,9,6.3,9.1,6.3
		c0.2-0.1,0.5-0.2,0.8-0.2c0.3,0,0.6,0,0.8,0.2c0,0,0,0,0.1,0c0.2,0.1,0.4,0.3,0.6,0.5c0.2,0.2,0.3,0.5,0.4,0.8
		c0.1,0.3,0.1,0.7,0.1,1.2S11.8,9.7,11.7,10z M17.8,6.1v3.6v0c0,0.2,0,0.5-0.1,0.7c0,0,0,0.1-0.1,0.1c0,0.1-0.1,0.1-0.1,0.2
		c0,0.1-0.1,0.1-0.1,0.2c-0.1,0.1-0.3,0.3-0.5,0.4c-0.2,0.1-0.4,0.1-0.7,0.1c-0.3,0-0.5,0-0.7-0.1c-0.2-0.1-0.4-0.2-0.5-0.4
		c-0.1-0.1-0.2-0.3-0.3-0.5c0-0.2-0.1-0.4-0.1-0.6l0,0c0,0,0,0,0,0l0.7-0.3c0,0.2,0,0.3,0,0.5c0,0.1,0.1,0.3,0.2,0.4
		c0,0.1,0.2,0.2,0.3,0.2c0.1,0,0.2,0.1,0.4,0.1c0.2,0,0.3,0,0.4-0.1c0.1,0,0.2-0.1,0.3-0.2c0-0.1,0.1-0.2,0.1-0.3c0-0.1,0-0.2,0-0.4
		V6.1v0L17.8,6.1L17.8,6.1z M19.1,11.5L19.1,11.5h-0.7h-0.1l2.5-5.4h0h0.7h0l2.5,5.4h0h-0.7h0l-0.4-0.9h-3.4L19.1,11.5z"/>
	<polygon points="19.8,9.8 22.5,9.8 21.1,6.9 	"/>
	<polygon class="st1" points="6.5,6.1 5.9,6.1 4.2,7.8 4.1,7.9 4.6,8.4 5.5,7.5 5.8,7.1 5.8,7.2 5.8,7.4 5.8,11.5 5.9,11.5 
		6.5,11.5 6.5,7.2 	"/>
	<path class="st1" d="M31.3,10.5V9.4h0.9l0.5,0.7l0.9,1.3h0.9l-0.1-0.1l-1-1.4l-0.4-0.6c0,0,0,0,0.1,0c0.2,0,0.3-0.1,0.5-0.2
		c0.1-0.1,0.3-0.2,0.4-0.4c0.1-0.1,0.2-0.3,0.3-0.5c0-0.2,0.1-0.4,0.1-0.6c0,0,0,0,0,0c0-0.2,0-0.4-0.1-0.6
		c-0.1-0.2-0.2-0.4-0.4-0.5c-0.1-0.1-0.3-0.3-0.6-0.3c-0.2-0.1-0.5-0.1-0.7-0.1h-2v4.5v0.8h0.7V10.5z M31.3,6.8h1.4
		c0.3,0,0.6,0.1,0.7,0.3c0.2,0.2,0.3,0.4,0.3,0.7c0,0.3-0.1,0.5-0.3,0.7c-0.2,0.2-0.4,0.3-0.7,0.3h-1.4V6.8z"/>
	<path class="st1" d="M11.3,6.8c-0.2-0.2-0.4-0.4-0.6-0.5c0,0,0,0-0.1,0c-0.2-0.1-0.5-0.2-0.8-0.2c-0.3,0-0.6,0-0.8,0.2
		C9,6.3,8.8,6.4,8.7,6.5C8.6,6.6,8.5,6.6,8.4,6.8c0,0,0,0,0,0.1C8.2,7.1,8.1,7.3,8,7.6C7.9,7.9,7.9,8.3,7.9,8.8c0,0,0,0,0,0
		c0,0.5,0,0.8,0.1,1.2c0.1,0.3,0.2,0.6,0.4,0.8c0.1,0.1,0.2,0.2,0.3,0.3c0.1,0.1,0.2,0.2,0.4,0.2c0,0,0,0,0,0c0,0,0,0,0,0
		c0.2,0.1,0.5,0.2,0.8,0.2c0.3,0,0.6,0,0.8-0.2c0.1,0,0.2-0.1,0.4-0.2c0.1-0.1,0.2-0.2,0.3-0.3c0.2-0.2,0.3-0.5,0.4-0.8
		c0.1-0.3,0.1-0.7,0.1-1.2s0-0.8-0.1-1.2C11.6,7.3,11.5,7,11.3,6.8z M11.1,9.7c0,0.2-0.1,0.5-0.3,0.6c-0.1,0.1-0.2,0.3-0.4,0.4
		c-0.1,0.1-0.3,0.1-0.5,0.1c-0.2,0-0.4,0-0.5-0.1c-0.1-0.1-0.3-0.2-0.4-0.4c-0.1-0.1-0.2-0.4-0.3-0.6c0-0.2-0.1-0.6-0.1-0.9
		c0-0.3,0-0.7,0.1-0.9c0-0.2,0.1-0.5,0.3-0.6C9,7.1,9.2,7,9.4,6.9c0.1-0.1,0.3-0.1,0.5-0.1c0.2,0,0.4,0,0.5,0.1
		c0.1,0.1,0.3,0.2,0.4,0.4c0.1,0.1,0.2,0.4,0.3,0.6c0,0.2,0.1,0.6,0.1,0.9C11.2,9.1,11.1,9.4,11.1,9.7z"/>
	<path class="st1" d="M17.1,6.1v3.6c0,0.1,0,0.3,0,0.4c0,0.1-0.1,0.2-0.1,0.3c0,0.1-0.1,0.2-0.3,0.2c-0.1,0-0.2,0.1-0.4,0.1
		c-0.2,0-0.3,0-0.4-0.1c-0.1,0-0.2-0.1-0.3-0.2c-0.1-0.1-0.1-0.2-0.2-0.4c0-0.1,0-0.3,0-0.5l-0.7,0.3c0,0,0,0,0,0
		c0,0.2,0,0.3,0.1,0.5c0,0.2,0.1,0.4,0.3,0.5c0.1,0.1,0.3,0.3,0.5,0.4c0.2,0.1,0.4,0.1,0.7,0.1c0.2,0,0.5,0,0.7-0.1
		c0.2-0.1,0.4-0.2,0.5-0.4c0,0,0.1-0.1,0.1-0.2c0-0.1,0.1-0.1,0.1-0.2c0-0.1,0.1-0.1,0.1-0.2c0-0.2,0.1-0.4,0.1-0.7V6.1v0L17.1,6.1
		L17.1,6.1z"/>
	<path class="st1" d="M23.2,11.5L23.2,11.5H24l-2.5-5.4h-0.7h0l-2.5,5.4h0.1H19l0.5-0.9h3.4L23.2,11.5z M19.8,9.8l1.4-2.9l1.4,2.9
		H19.8z"/>
	<path class="st1" d="M25.4,10.5h3.4L29,11l0.2,0.5H30l-0.3-0.6l-2.2-4.8h-0.7l-2.4,5.4H25L25.4,10.5z M27.1,6.9l1.4,2.9h-2.7
		L27.1,6.9z"/>
	<polygon points="27.1,6.9 25.7,9.8 28.4,9.8 	"/>
</g>
</svg>
