<?xml version="1.0" encoding="utf-8"?>
<!-- Generator: Adobe Illustrator 22.0.0, SVG Export Plug-In . SVG Version: 6.00 Build 0)  -->
<svg version="1.1" id="Laag_1" xmlns="http://www.w3.org/2000/svg" xmlns:xlink="http://www.w3.org/1999/xlink" x="0px" y="0px"
	 viewBox="0 0 130.1 12.1" width="130.1px" height="12.1px" style="enable-background:new 0 0 130.1 12.1;" xml:space="preserve" preserveAspectRatio="none">
<style type="text/css">
	.st0{fill:#FFFFFF;}
</style>
<g>
	<path class="st0" d="M3.3,5.5l2.9-3.7h2.9L5.5,6l3.9,4.8h-3L3.3,6.9v3.9H0.9v-9h2.4V5.5z"/>
	<path class="st0" d="M9.5,6.3c0-0.7,0.1-1.3,0.4-1.9s0.6-1.1,1-1.5c0.4-0.4,1-0.8,1.6-1c0.6-0.2,1.3-0.4,2-0.4c0.7,0,1.4,0.1,2,0.4
		c0.6,0.2,1.1,0.6,1.6,1c0.4,0.4,0.8,0.9,1,1.5c0.2,0.6,0.4,1.2,0.4,1.9s-0.1,1.3-0.4,1.9c-0.2,0.6-0.6,1.1-1,1.5
		c-0.4,0.4-1,0.8-1.6,1c-0.6,0.2-1.3,0.4-2,0.4c-0.7,0-1.4-0.1-2-0.4c-0.6-0.2-1.1-0.6-1.6-1c-0.4-0.4-0.8-0.9-1-1.5
		S9.5,6.9,9.5,6.3z M12,6.3c0,0.4,0.1,0.7,0.2,1c0.1,0.3,0.3,0.6,0.6,0.8c0.2,0.2,0.5,0.4,0.8,0.5c0.3,0.1,0.6,0.2,1,0.2
		s0.7-0.1,1-0.2c0.3-0.1,0.6-0.3,0.8-0.5c0.2-0.2,0.4-0.5,0.6-0.8c0.1-0.3,0.2-0.6,0.2-1s-0.1-0.7-0.2-1c-0.1-0.3-0.3-0.6-0.6-0.8
		c-0.2-0.2-0.5-0.4-0.8-0.5c-0.3-0.1-0.6-0.2-1-0.2s-0.7,0.1-1,0.2c-0.3,0.1-0.6,0.3-0.8,0.5c-0.2,0.2-0.4,0.5-0.6,0.8
		C12,5.6,12,5.9,12,6.3z"/>
	<path class="st0" d="M20.6,6.3c0-0.7,0.1-1.3,0.4-1.9s0.6-1.1,1-1.5c0.4-0.4,1-0.8,1.6-1c0.6-0.2,1.3-0.4,2-0.4
		c0.7,0,1.4,0.1,2,0.4c0.6,0.2,1.1,0.6,1.6,1c0.4,0.4,0.8,0.9,1,1.5c0.2,0.6,0.4,1.2,0.4,1.9s-0.1,1.3-0.4,1.9
		c-0.2,0.6-0.6,1.1-1,1.5c-0.4,0.4-1,0.8-1.6,1c-0.6,0.2-1.3,0.4-2,0.4c-0.7,0-1.4-0.1-2-0.4c-0.6-0.2-1.1-0.6-1.6-1
		c-0.4-0.4-0.8-0.9-1-1.5S20.6,6.9,20.6,6.3z M23.1,6.3c0,0.4,0.1,0.7,0.2,1c0.1,0.3,0.3,0.6,0.6,0.8c0.2,0.2,0.5,0.4,0.8,0.5
		c0.3,0.1,0.6,0.2,1,0.2s0.7-0.1,1-0.2c0.3-0.1,0.6-0.3,0.8-0.5c0.2-0.2,0.4-0.5,0.6-0.8c0.1-0.3,0.2-0.6,0.2-1s-0.1-0.7-0.2-1
		c-0.1-0.3-0.3-0.6-0.6-0.8c-0.2-0.2-0.5-0.4-0.8-0.5c-0.3-0.1-0.6-0.2-1-0.2s-0.7,0.1-1,0.2c-0.3,0.1-0.6,0.3-0.8,0.5
		c-0.2,0.2-0.4,0.5-0.6,0.8C23.1,5.6,23.1,5.9,23.1,6.3z"/>
	<path class="st0" d="M34.5,10.8h-2.4v-9h3.7c1,0,1.8,0.3,2.3,0.8C38.7,3.1,39,3.8,39,4.8S38.7,6.5,38.2,7s-1.3,0.8-2.3,0.8h-1.4
		V10.8z M34.5,5.9h0.8c0.9,0,1.3-0.4,1.3-1.1s-0.4-1.1-1.3-1.1h-0.8V5.9z"/>
	<path class="st0" d="M44.3,10.8v-9h2.4L51,7.3V1.7h2.3v9H51l-4.3-5.5v5.5H44.3z"/>
	<path class="st0" d="M57.6,1.7v4.9c0,0.3,0,0.5,0,0.8c0,0.3,0.1,0.5,0.2,0.8c0.1,0.2,0.3,0.4,0.5,0.5C58.5,8.9,58.8,9,59.2,9
		c0.4,0,0.7-0.1,0.9-0.2c0.2-0.1,0.4-0.3,0.5-0.5c0.1-0.2,0.2-0.5,0.2-0.8s0-0.5,0-0.8V1.7h2.3V7c0,1.4-0.3,2.4-1,3.1
		c-0.6,0.6-1.6,1-3,1c-1.3,0-2.3-0.3-3-1c-0.6-0.6-1-1.7-1-3.1V1.7H57.6z"/>
	<path class="st0" d="M71.5,5.5l2.9-3.7h2.9L73.6,6l3.9,4.8h-3l-3.1-3.9v3.9h-2.4v-9h2.4V5.5z"/>
	<path class="st0" d="M84.2,9.2h-3.4l-0.5,1.6h-2.5l3.4-9h2.6l3.4,9h-2.5L84.2,9.2z M83.5,7.4l-1.1-3l-1.1,3H83.5z"/>
	<path class="st0" d="M93.8,9.2h-3.4l-0.5,1.6h-2.5l3.4-9h2.6l3.4,9h-2.5L93.8,9.2z M93.2,7.4l-1.1-3l-1.1,3H93.2z"/>
	<path class="st0" d="M105.4,10.8h-2.9l-2.2-3.5v3.5h-2.4v-9h3.7c0.5,0,0.9,0.1,1.3,0.2c0.4,0.1,0.7,0.4,0.9,0.6
		c0.2,0.3,0.4,0.6,0.6,0.9s0.2,0.7,0.2,1.1c0,0.7-0.2,1.2-0.5,1.7c-0.3,0.4-0.8,0.7-1.5,0.9L105.4,10.8z M100.2,5.8h0.4
		c0.5,0,0.8-0.1,1.1-0.3s0.4-0.5,0.4-0.8c0-0.4-0.1-0.6-0.4-0.8c-0.2-0.2-0.6-0.3-1.1-0.3h-0.4V5.8z"/>
	<path class="st0" d="M109.8,3.7v7.1h-2.4V3.7h-1.9v-2h6.2v2H109.8z"/>
	<path class="st0" d="M117.9,3.7h-2.8v1.5h2.6v2h-2.6v1.6h2.8v2h-5.1v-9h5.1V3.7z"/>
	<path class="st0" d="M119.6,10.8v-9h2.4l4.3,5.5V1.7h2.3v9h-2.3L122,5.3v5.5H119.6z"/>
</g>
</svg>
