<?xml version="1.0" encoding="utf-8"?>
<!-- Generator: Adobe Illustrator 22.0.0, SVG Export Plug-In . SVG Version: 6.00 Build 0)  -->
<svg version="1.1" id="Laag_1" xmlns="http://www.w3.org/2000/svg" xmlns:xlink="http://www.w3.org/1999/xlink" x="0px" y="0px"
	 viewBox="0 0 156.3 18.7" style="enable-background:new 0 0 156.3 18.7;" xml:space="preserve">
<g>
	<path d="M7.8,17.4H4.6c-0.2,0-0.4-0.1-0.4-0.3L1.1,1.7c0-0.1,0-0.2,0.1-0.3c0.1-0.1,0.2-0.1,0.4-0.1h2.3c0.2,0,0.4,0.1,0.4,0.3
		l1.9,10.2c0,0.1,0.1,0.2,0.2,0.2h0.1c0.1,0,0.1-0.1,0.2-0.2L8.2,1.6c0-0.2,0.2-0.3,0.4-0.3h2.1c0.2,0,0.4,0.1,0.4,0.3l1.6,10.2
		c0,0.1,0.1,0.2,0.2,0.2H13c0.1,0,0.1-0.1,0.2-0.2l1.9-10.2c0-0.2,0.2-0.3,0.4-0.3h2.3c0.2,0,0.3,0,0.4,0.1c0.1,0.1,0.1,0.2,0.1,0.3
		L15.1,17c0,0.2-0.2,0.3-0.4,0.3h-3.2c-0.2,0-0.4-0.1-0.4-0.3L9.8,9.5c0-0.1-0.1-0.1-0.1-0.1s-0.1,0-0.1,0.1L8.2,17
		C8.2,17.3,8.1,17.4,7.8,17.4z"/>
	<path d="M23.2,3.9c0,0.2-0.1,0.4-0.4,0.4h-2.5c-0.2,0-0.4-0.1-0.4-0.4V1.4c0-0.1,0-0.2,0.1-0.3C20.2,1,20.3,1,20.4,1h2.5
		c0.1,0,0.2,0,0.3,0.1c0.1,0.1,0.1,0.2,0.1,0.3V3.9z M23.1,17c0,0.1,0,0.2-0.1,0.3c-0.1,0.1-0.2,0.1-0.3,0.1h-2.3
		c-0.1,0-0.2,0-0.3-0.1c-0.1-0.1-0.1-0.2-0.1-0.3V6.2c0-0.1,0-0.2,0.1-0.3c0.1-0.1,0.2-0.1,0.3-0.1h2.3c0.1,0,0.2,0,0.3,0.1
		c0.1,0.1,0.1,0.2,0.1,0.3V17z"/>
	<path d="M35.7,16.9c0,0.1,0,0.2-0.1,0.3c-0.1,0.1-0.2,0.1-0.3,0.1h-2.1c-0.1,0-0.2,0-0.3-0.1c-0.1-0.1-0.1-0.2-0.1-0.3V9.9
		c0-0.4-0.2-0.7-0.4-1c-0.3-0.3-0.7-0.4-1.3-0.4c-0.5,0-1,0.1-1.3,0.4c-0.3,0.2-0.5,0.5-0.5,0.9v7.2c0,0.1,0,0.2-0.1,0.3
		c-0.1,0.1-0.2,0.1-0.3,0.1h-2.1c-0.1,0-0.2,0-0.3-0.1c-0.1-0.1-0.1-0.2-0.1-0.3V6.3c0-0.1,0-0.2,0.1-0.3c0.1-0.1,0.2-0.1,0.3-0.1
		h1.2c0.2,0,0.3,0.1,0.4,0.2c0.1,0.1,0.2,0.2,0.3,0.3c0.1,0.1,0.2,0.1,0.4,0.1c0.2,0,0.3,0,0.5-0.1c0.2-0.1,0.3-0.2,0.5-0.3
		c0.2-0.1,0.4-0.2,0.6-0.3c0.2-0.1,0.5-0.1,0.9-0.1c0.6,0,1.2,0.1,1.7,0.3c0.5,0.2,1,0.5,1.4,0.9c0.4,0.4,0.7,0.8,0.9,1.4
		c0.2,0.5,0.3,1.1,0.3,1.7V16.9z"/>
	<path d="M51.2,17c-0.1,0.2-0.2,0.3-0.4,0.3h-3.5c-0.2,0-0.4-0.1-0.4-0.3l-4-15.3c0-0.1,0-0.2,0.1-0.4c0.1-0.1,0.2-0.2,0.4-0.2h2.5
		c0.2,0,0.4,0.1,0.4,0.3l2.5,10.8c0,0.1,0.1,0.2,0.2,0.2h0.1c0.1,0,0.1-0.1,0.2-0.2l2.5-10.8c0-0.2,0.2-0.3,0.4-0.3h2.5
		c0.2,0,0.3,0.1,0.4,0.2c0.1,0.1,0.1,0.2,0.1,0.4L51.2,17z"/>
	<path d="M60.2,16.9c0,0.1,0,0.2-0.1,0.3c-0.1,0.1-0.2,0.1-0.3,0.1h-2.3c-0.1,0-0.2,0-0.3-0.1C57,17.2,57,17.1,57,16.9V1.7
		c0-0.1,0-0.2,0.1-0.3c0.1-0.1,0.2-0.1,0.3-0.1h2.3c0.1,0,0.2,0,0.3,0.1c0.1,0.1,0.1,0.2,0.1,0.3V16.9z"/>
	<path d="M69,1.2c0.7,0,1.3,0.1,1.9,0.4c0.6,0.3,1.1,0.6,1.5,1s0.8,1,1,1.5c0.3,0.6,0.4,1.2,0.4,1.9c0,0.7-0.1,1.3-0.4,1.9
		c-0.3,0.6-0.6,1.1-1,1.5s-1,0.8-1.5,1c-0.6,0.3-1.2,0.4-1.9,0.4h-2.1c-0.2,0-0.2,0.1-0.2,0.2v5.8c0,0.1,0,0.2-0.1,0.3
		c-0.1,0.1-0.2,0.1-0.3,0.1h-2.3c-0.1,0-0.2,0-0.3-0.1c-0.1-0.1-0.1-0.2-0.1-0.3V1.7c0-0.1,0-0.2,0.1-0.3c0.1-0.1,0.2-0.1,0.3-0.1
		H69z M66.9,4.5c-0.2,0-0.2,0.1-0.2,0.2v2.8c0,0.2,0.1,0.2,0.2,0.2H69c0.4,0,0.8-0.2,1.1-0.5c0.3-0.3,0.5-0.7,0.5-1.1
		s-0.2-0.8-0.5-1.1c-0.3-0.3-0.7-0.5-1.1-0.5H66.9z"/>
	<path d="M87,10.9c-0.1,0.1-0.2,0.2-0.2,0.3c0,0.1,0.1,0.2,0.2,0.4l3.8,5.1c0.1,0.2,0.1,0.3,0.1,0.5c-0.1,0.2-0.2,0.3-0.4,0.3H88
		c-0.2,0-0.3,0-0.4-0.1c-0.1-0.1-0.2-0.2-0.2-0.2l-2.9-4c0,0-0.1-0.1-0.1-0.1c-0.1,0-0.1,0.1-0.1,0.1v3.8c0,0.1,0,0.2-0.1,0.3
		c-0.1,0.1-0.2,0.1-0.3,0.1h-2.1c-0.1,0-0.2,0-0.3-0.1c-0.1-0.1-0.1-0.2-0.1-0.3V1.5c0-0.1,0-0.2,0.1-0.3C81.5,1,81.6,1,81.7,1h2.1
		c0.1,0,0.2,0,0.3,0.1c0.1,0.1,0.1,0.2,0.1,0.3v8.1c0,0.1,0,0.1,0.1,0.1c0.1,0,0.1,0,0.1-0.1l2.7-3.4c0-0.1,0.1-0.1,0.2-0.2
		c0.1-0.1,0.2-0.1,0.4-0.1H90c0.2,0,0.4,0.1,0.5,0.3c0.1,0.2,0,0.4-0.1,0.5L87,10.9z"/>
	<path d="M96.5,8.2c-0.1,0-0.3,0-0.4,0c-0.2,0-0.3,0.1-0.5,0.1c-0.2,0.1-0.3,0.2-0.4,0.3c-0.1,0.1-0.2,0.3-0.3,0.4
		c0,0.2-0.1,0.3-0.2,0.4c-0.1,0-0.2,0.1-0.4,0.1h-1.7c-0.1,0-0.2,0-0.3-0.1c-0.1-0.1-0.1-0.2-0.1-0.3c0-0.5,0.1-0.9,0.3-1.3
		c0.2-0.4,0.5-0.8,0.9-1.1c0.4-0.3,0.8-0.6,1.4-0.8c0.6-0.2,1.2-0.3,1.9-0.3c1.4,0,2.5,0.4,3.4,1.1c0.8,0.7,1.3,1.8,1.3,3.1v7.2
		c0,0.1,0,0.2-0.1,0.3c-0.1,0.1-0.2,0.1-0.3,0.1h-1.2c-0.1,0-0.2-0.1-0.3-0.2c-0.1-0.1-0.1-0.2-0.2-0.3c0-0.1-0.1-0.2-0.3-0.2
		c-0.1,0-0.2,0-0.4,0.1c-0.1,0.1-0.3,0.2-0.5,0.3c-0.2,0.1-0.5,0.2-0.8,0.3c-0.3,0.1-0.7,0.1-1.1,0.1c-1.4,0-2.4-0.3-3.2-1
		c-0.8-0.7-1.2-1.6-1.2-2.8c0-0.4,0.1-0.8,0.2-1.2c0.2-0.4,0.4-0.8,0.7-1.2c0.3-0.4,0.7-0.6,1.2-0.9c0.5-0.2,1.1-0.3,1.7-0.3H98
		c0.2,0,0.2-0.1,0.2-0.2V9.6c0-0.5-0.2-0.8-0.5-1.1C97.4,8.3,97,8.2,96.5,8.2z M95.7,12.7c-0.2,0-0.4,0-0.6,0.1
		c-0.2,0.1-0.3,0.2-0.4,0.3c-0.1,0.1-0.1,0.3-0.2,0.4c0,0.1,0,0.2,0,0.3c0,0.4,0.2,0.7,0.4,0.9c0.3,0.2,0.7,0.3,1.1,0.3
		c0.7,0,1.2-0.1,1.7-0.3c0.4-0.2,0.7-0.6,0.7-1.2v-0.6c0-0.2-0.1-0.2-0.2-0.2H95.7z"/>
	<path d="M108.5,8.2c-0.1,0-0.3,0-0.4,0c-0.2,0-0.3,0.1-0.5,0.1c-0.2,0.1-0.3,0.2-0.4,0.3c-0.1,0.1-0.2,0.3-0.3,0.4
		c0,0.2-0.1,0.3-0.2,0.4c-0.1,0-0.2,0.1-0.4,0.1h-1.7c-0.1,0-0.2,0-0.3-0.1c-0.1-0.1-0.1-0.2-0.1-0.3c0-0.5,0.1-0.9,0.3-1.3
		c0.2-0.4,0.5-0.8,0.9-1.1c0.4-0.3,0.8-0.6,1.4-0.8c0.6-0.2,1.2-0.3,1.9-0.3c1.4,0,2.5,0.4,3.4,1.1c0.8,0.7,1.3,1.8,1.3,3.1v7.2
		c0,0.1,0,0.2-0.1,0.3c-0.1,0.1-0.2,0.1-0.3,0.1h-1.2c-0.1,0-0.2-0.1-0.3-0.2c-0.1-0.1-0.1-0.2-0.2-0.3c0-0.1-0.1-0.2-0.3-0.2
		c-0.1,0-0.2,0-0.4,0.1c-0.1,0.1-0.3,0.2-0.5,0.3c-0.2,0.1-0.5,0.2-0.8,0.3c-0.3,0.1-0.7,0.1-1.1,0.1c-1.4,0-2.4-0.3-3.2-1
		c-0.8-0.7-1.2-1.6-1.2-2.8c0-0.4,0.1-0.8,0.2-1.2c0.2-0.4,0.4-0.8,0.7-1.2c0.3-0.4,0.7-0.6,1.2-0.9c0.5-0.2,1.1-0.3,1.7-0.3h2.4
		c0.2,0,0.2-0.1,0.2-0.2V9.6c0-0.5-0.2-0.8-0.5-1.1C109.4,8.3,109,8.2,108.5,8.2z M107.7,12.7c-0.2,0-0.4,0-0.6,0.1
		c-0.2,0.1-0.3,0.2-0.4,0.3c-0.1,0.1-0.1,0.3-0.2,0.4c0,0.1,0,0.2,0,0.3c0,0.4,0.2,0.7,0.4,0.9c0.3,0.2,0.7,0.3,1.1,0.3
		c0.7,0,1.2-0.1,1.7-0.3c0.4-0.2,0.7-0.6,0.7-1.2v-0.6c0-0.2-0.1-0.2-0.2-0.2H107.7z"/>
	<path d="M122.1,8.6c-0.9,0-1.6,0.2-2.2,0.7c-0.6,0.5-0.8,1.2-0.8,2.1v5.5c0,0.1,0,0.2-0.1,0.3c-0.1,0.1-0.2,0.1-0.3,0.1h-2.1
		c-0.1,0-0.2,0-0.3-0.1c-0.1-0.1-0.1-0.2-0.1-0.3V6.3c0-0.1,0-0.2,0.1-0.3c0.1-0.1,0.2-0.1,0.3-0.1h1.2c0.1,0,0.2,0,0.3,0.1
		c0.1,0.1,0.2,0.1,0.2,0.2c0.1,0.2,0.2,0.4,0.2,0.6c0.1,0.2,0.2,0.3,0.4,0.3c0.2,0,0.3-0.1,0.5-0.2c0.1-0.1,0.3-0.3,0.6-0.4
		c0.2-0.2,0.5-0.3,0.9-0.4c0.3-0.1,0.8-0.2,1.4-0.2h0.8c0.1,0,0.2,0,0.3,0.1c0.1,0.1,0.1,0.2,0.1,0.3v1.8c0,0.1,0,0.2-0.1,0.3
		c-0.1,0.1-0.2,0.1-0.3,0.1H122.1z"/>
	<path d="M132.1,5.9c0.1,0,0.2,0,0.3,0.1c0.1,0.1,0.1,0.2,0.1,0.3v1.8c0,0.1,0,0.2-0.1,0.3c-0.1,0.1-0.2,0.1-0.3,0.1h-2.5
		c-0.2,0-0.2,0.1-0.2,0.2v4.2c0,0.4,0.1,0.7,0.4,1c0.3,0.3,0.6,0.4,1,0.4h1.6c0.1,0,0.2,0,0.3,0.1c0.1,0.1,0.1,0.2,0.1,0.3v2
		c0,0.1,0,0.2-0.1,0.3c-0.1,0.1-0.2,0.1-0.3,0.1h-1.6c-1.3,0-2.4-0.4-3.2-1.1c-0.8-0.7-1.2-1.8-1.2-3.1V8.9c0-0.2-0.1-0.2-0.2-0.2
		h-1.8c-0.1,0-0.2,0-0.3-0.1c-0.1-0.1-0.1-0.2-0.1-0.3V6.4c0-0.1,0-0.2,0.1-0.3c0.1-0.1,0.2-0.1,0.3-0.1h1.8c0.2,0,0.2-0.1,0.2-0.2
		V2.2c0-0.1,0-0.2,0.1-0.3c0.1-0.1,0.2-0.1,0.3-0.1h2.1c0.1,0,0.2,0,0.3,0.1c0.1,0.1,0.1,0.2,0.1,0.3v3.5c0,0.2,0.1,0.2,0.2,0.2
		H132.1z"/>
	<path d="M136.8,12.5c-0.2,0-0.3,0.1-0.3,0.3c0,0.6,0.2,1.1,0.6,1.5c0.4,0.3,0.9,0.5,1.4,0.5c0.4,0,0.8-0.1,1.1-0.2
		c0.3-0.1,0.5-0.4,0.7-0.8c0.1-0.3,0.3-0.4,0.5-0.4h1.9c0.1,0,0.2,0,0.3,0.1c0.1,0.1,0.1,0.2,0.1,0.4c-0.3,1.1-0.8,2-1.6,2.6
		c-0.8,0.7-1.8,1-3.1,1c-0.7,0-1.3-0.1-1.9-0.3c-0.6-0.2-1-0.5-1.4-0.9c-0.4-0.4-0.7-0.8-1-1.4c-0.2-0.5-0.4-1.1-0.5-1.7
		c0-0.2-0.1-0.5-0.1-0.8c0-0.3,0-0.6,0-0.9s0-0.6,0-0.9c0-0.3,0-0.6,0.1-0.8c0.1-0.6,0.2-1.2,0.5-1.7c0.2-0.5,0.6-1,1-1.4
		c0.4-0.4,0.9-0.7,1.4-0.9c0.6-0.2,1.2-0.3,1.9-0.3c0.7,0,1.3,0.1,1.9,0.3c0.6,0.2,1.1,0.5,1.5,0.9c0.4,0.4,0.7,0.9,1,1.4
		c0.2,0.6,0.3,1.2,0.3,2v1.9c0,0.1,0,0.2-0.1,0.3c-0.1,0.1-0.2,0.1-0.3,0.1H136.8z M138.5,8.3c-0.7,0-1.2,0.1-1.5,0.4
		c-0.3,0.3-0.5,0.6-0.5,1.1c0,0.1,0.1,0.2,0.2,0.2h3.5c0.2,0,0.2-0.1,0.2-0.2c0-0.2-0.1-0.5-0.2-0.6c-0.1-0.2-0.3-0.3-0.4-0.4
		c-0.2-0.1-0.4-0.2-0.6-0.3C139,8.3,138.8,8.3,138.5,8.3z"/>
	<path d="M155.3,16.9c0,0.1,0,0.2-0.1,0.3c-0.1,0.1-0.2,0.1-0.3,0.1h-2.1c-0.1,0-0.2,0-0.3-0.1c-0.1-0.1-0.1-0.2-0.1-0.3V9.9
		c0-0.4-0.2-0.7-0.4-1c-0.3-0.3-0.7-0.4-1.3-0.4c-0.5,0-1,0.1-1.3,0.4c-0.3,0.2-0.5,0.5-0.5,0.9v7.2c0,0.1,0,0.2-0.1,0.3
		c-0.1,0.1-0.2,0.1-0.3,0.1h-2.1c-0.1,0-0.2,0-0.3-0.1c-0.1-0.1-0.1-0.2-0.1-0.3V6.3c0-0.1,0-0.2,0.1-0.3c0.1-0.1,0.2-0.1,0.3-0.1
		h1.2c0.2,0,0.3,0.1,0.4,0.2c0.1,0.1,0.2,0.2,0.3,0.3c0.1,0.1,0.2,0.1,0.4,0.1c0.2,0,0.3,0,0.5-0.1c0.2-0.1,0.3-0.2,0.5-0.3
		c0.2-0.1,0.4-0.2,0.6-0.3s0.5-0.1,0.9-0.1c0.6,0,1.2,0.1,1.7,0.3c0.5,0.2,1,0.5,1.4,0.9c0.4,0.4,0.7,0.8,0.9,1.4
		c0.2,0.5,0.3,1.1,0.3,1.7V16.9z"/>
</g>
</svg>
