<?xml version="1.0" encoding="utf-8"?>
<!-- Generator: Adobe Illustrator 22.0.0, SVG Export Plug-In . SVG Version: 6.00 Build 0)  -->
<svg version="1.1" id="Laag_1" xmlns="http://www.w3.org/2000/svg" xmlns:xlink="http://www.w3.org/1999/xlink" x="0px" y="0px"
	 viewBox="0 0 298.2 33.1" style="enable-background:new 0 0 298.2 33.1;" xml:space="preserve">
<style type="text/css">
	.st0{fill:#FFFFFF;}
</style>
<g>
	<path class="st0" d="M7,19.9c0,0.1,0,0.2,0,0.2c0,0.1,0.1,0.1,0.2,0.1h8.7c0.2,0,0.3,0.1,0.5,0.2c0.1,0.1,0.2,0.3,0.2,0.5v3.2
		c0,0.2-0.1,0.3-0.2,0.5c-0.1,0.1-0.3,0.2-0.5,0.2H2.3c-0.2,0-0.3-0.1-0.5-0.2c-0.1-0.1-0.2-0.3-0.2-0.5v-3.9c0-0.2,0.1-0.3,0.2-0.5
		l9.1-13.1c0-0.1,0-0.2,0-0.2c0-0.1-0.1-0.1-0.2-0.1H2.8c-0.2,0-0.3-0.1-0.5-0.2C2.2,6,2.2,5.8,2.2,5.6V2.5c0-0.2,0.1-0.3,0.2-0.5
		c0.1-0.1,0.3-0.2,0.5-0.2h12.8c0.2,0,0.3,0.1,0.5,0.2c0.1,0.1,0.2,0.3,0.2,0.5v3.8c0,0.2-0.1,0.3-0.2,0.5L7,19.9z"/>
	<path class="st0" d="M24.5,11.7c-0.2,0-0.4,0-0.6,0c-0.2,0-0.5,0.1-0.7,0.2c-0.2,0.1-0.4,0.2-0.6,0.4c-0.2,0.2-0.3,0.4-0.4,0.6
		c-0.1,0.3-0.2,0.5-0.3,0.5c-0.1,0.1-0.3,0.1-0.6,0.1H19c-0.2,0-0.3-0.1-0.5-0.2c-0.1-0.1-0.2-0.3-0.2-0.5c0-0.7,0.1-1.3,0.4-1.9
		c0.3-0.6,0.7-1.1,1.2-1.6c0.5-0.5,1.2-0.8,2-1.1C22.8,8.1,23.7,8,24.7,8c2,0,3.6,0.5,4.8,1.5c1.2,1,1.8,2.5,1.8,4.4v10.2
		c0,0.2-0.1,0.3-0.2,0.5c-0.1,0.1-0.3,0.2-0.5,0.2H29c-0.2,0-0.3-0.1-0.5-0.2c-0.1-0.1-0.2-0.3-0.2-0.4c-0.1-0.2-0.2-0.2-0.4-0.2
		c-0.2,0-0.3,0.1-0.5,0.2c-0.2,0.1-0.4,0.3-0.8,0.4c-0.3,0.2-0.7,0.3-1.1,0.4c-0.4,0.1-0.9,0.2-1.6,0.2c-1.9,0-3.4-0.5-4.5-1.4
		c-1.1-0.9-1.6-2.3-1.6-4c0-0.6,0.1-1.2,0.3-1.8c0.2-0.6,0.6-1.2,1-1.7c0.5-0.5,1.1-0.9,1.8-1.2c0.7-0.3,1.5-0.5,2.5-0.5h3.3
		c0.2,0,0.3-0.1,0.3-0.3v-0.5c0-0.7-0.2-1.2-0.7-1.5C25.8,11.9,25.2,11.7,24.5,11.7z M23.4,18.1c-0.3,0-0.6,0.1-0.9,0.2
		c-0.2,0.1-0.4,0.3-0.5,0.4c-0.1,0.2-0.2,0.4-0.2,0.5c0,0.2-0.1,0.3-0.1,0.5c0,0.6,0.2,1.1,0.6,1.3c0.4,0.3,0.9,0.4,1.5,0.4
		c0.9,0,1.7-0.2,2.4-0.5c0.6-0.3,1-0.9,1-1.8v-0.8c0-0.2-0.1-0.3-0.3-0.3H23.4z"/>
	<path class="st0" d="M45,8.5c0.2,0,0.3,0.1,0.5,0.2s0.2,0.3,0.2,0.5v2.6c0,0.2-0.1,0.3-0.2,0.5c-0.1,0.1-0.3,0.2-0.5,0.2h-3.6
		c-0.2,0-0.3,0.1-0.3,0.3v6c0,0.5,0.2,1,0.5,1.4c0.4,0.4,0.8,0.6,1.4,0.6h2.3c0.2,0,0.3,0.1,0.5,0.2c0.1,0.1,0.2,0.3,0.2,0.5v2.8
		c0,0.2-0.1,0.3-0.2,0.5c-0.1,0.1-0.3,0.2-0.5,0.2h-2.3c-1.9,0-3.4-0.5-4.5-1.6c-1.1-1.1-1.7-2.5-1.7-4.4v-6c0-0.2-0.1-0.3-0.3-0.3
		h-2.6c-0.2,0-0.3-0.1-0.5-0.2c-0.1-0.1-0.2-0.3-0.2-0.5V9.1c0-0.2,0.1-0.3,0.2-0.5c0.1-0.1,0.3-0.2,0.5-0.2h2.6
		c0.2,0,0.3-0.1,0.3-0.3v-5c0-0.2,0.1-0.3,0.2-0.5c0.1-0.1,0.3-0.2,0.5-0.2h3c0.2,0,0.3,0.1,0.5,0.2c0.1,0.1,0.2,0.3,0.2,0.5v5
		c0,0.2,0.1,0.3,0.3,0.3H45z"/>
	<path class="st0" d="M51.5,17.9c-0.3,0-0.5,0.2-0.5,0.5c0,0.9,0.3,1.6,0.9,2.1c0.6,0.5,1.2,0.7,2,0.7c0.6,0,1.2-0.1,1.6-0.3
		c0.4-0.2,0.8-0.6,1-1.1c0.2-0.4,0.4-0.6,0.8-0.6h2.7c0.2,0,0.3,0.1,0.5,0.2c0.1,0.1,0.2,0.3,0.1,0.6c-0.4,1.5-1.1,2.8-2.2,3.7
		c-1.1,1-2.6,1.4-4.4,1.4c-1,0-1.9-0.2-2.7-0.5c-0.8-0.3-1.5-0.7-2-1.3c-0.6-0.5-1-1.2-1.4-1.9c-0.3-0.7-0.6-1.5-0.7-2.4
		c0-0.3-0.1-0.7-0.1-1.1c0-0.4,0-0.9,0-1.3s0-0.9,0-1.3c0-0.4,0.1-0.8,0.1-1.1c0.1-0.9,0.3-1.7,0.7-2.4s0.8-1.4,1.4-1.9
		c0.6-0.5,1.3-1,2-1.3C51.9,8.2,52.8,8,53.8,8c1,0,1.9,0.1,2.7,0.4c0.8,0.3,1.5,0.7,2.1,1.3c0.6,0.6,1.1,1.2,1.4,2
		c0.3,0.8,0.5,1.7,0.5,2.8v2.7c0,0.2-0.1,0.3-0.2,0.5c-0.1,0.1-0.3,0.2-0.5,0.2H51.5z M53.8,11.9c-0.9,0-1.7,0.2-2.1,0.6
		c-0.5,0.4-0.7,0.9-0.7,1.5c0,0.2,0.1,0.3,0.3,0.3h5c0.2,0,0.3-0.1,0.3-0.3c0-0.3-0.1-0.7-0.2-0.9c-0.2-0.3-0.4-0.5-0.6-0.6
		c-0.3-0.2-0.6-0.3-0.9-0.4C54.5,11.9,54.2,11.9,53.8,11.9z"/>
	<path class="st0" d="M72.4,12.3c-1.2,0-2.3,0.3-3.1,1c-0.8,0.7-1.2,1.7-1.2,3v7.8c0,0.2-0.1,0.3-0.2,0.5c-0.1,0.1-0.3,0.2-0.5,0.2
		h-3c-0.2,0-0.3-0.1-0.5-0.2c-0.1-0.1-0.2-0.3-0.2-0.5V9c0-0.2,0.1-0.3,0.2-0.5c0.1-0.1,0.3-0.2,0.5-0.2h1.6c0.1,0,0.3,0,0.4,0.1
		c0.1,0.1,0.2,0.2,0.3,0.3c0.1,0.3,0.2,0.6,0.3,0.9c0.1,0.3,0.3,0.5,0.6,0.5c0.3,0,0.5-0.1,0.7-0.3c0.2-0.2,0.5-0.4,0.8-0.6
		C69.6,9,70,8.8,70.5,8.6c0.5-0.2,1.1-0.3,2-0.3h1.1c0.2,0,0.3,0.1,0.5,0.2c0.1,0.1,0.2,0.3,0.2,0.5v2.6c0,0.2-0.1,0.3-0.2,0.5
		c-0.1,0.1-0.3,0.2-0.5,0.2H72.4z"/>
	<path class="st0" d="M81.2,25.1c-0.9,0-1.6-0.2-2.4-0.5c-0.7-0.3-1.4-0.7-1.9-1.3c-0.5-0.5-1-1.2-1.3-1.9C75.2,20.7,75,19.9,75,19
		c0-0.3,0-0.7,0-1.1c0-0.4,0-0.9,0-1.3s0-0.9,0-1.3c0-0.4,0-0.8,0-1.1c0.1-0.9,0.3-1.7,0.6-2.4c0.3-0.7,0.8-1.4,1.3-1.9
		c0.5-0.5,1.2-1,1.9-1.3C79.6,8.2,80.3,8,81.2,8c0.5,0,0.9,0,1.2,0.1c0.3,0.1,0.5,0.2,0.8,0.3c0.2,0.1,0.5,0.1,0.7,0
		c0.2-0.1,0.3-0.3,0.3-0.7V2.1c0-0.2,0.1-0.3,0.2-0.5c0.1-0.1,0.3-0.2,0.5-0.2h3c0.2,0,0.3,0.1,0.5,0.2c0.1,0.1,0.2,0.3,0.2,0.5v22
		c0,0.2-0.1,0.3-0.2,0.5c-0.1,0.1-0.3,0.2-0.5,0.2h-1.6c-0.2,0-0.3-0.1-0.5-0.2c-0.1-0.1-0.2-0.2-0.4-0.3C85.2,24.1,85,24,84.8,24
		c-0.2,0-0.4,0.1-0.6,0.2c-0.2,0.1-0.4,0.2-0.6,0.4c-0.3,0.1-0.6,0.3-0.9,0.4C82.3,25.1,81.8,25.1,81.2,25.1z M79.2,14.1
		c0,0.3,0,0.7,0,1.1c0,0.4,0,0.9,0,1.3s0,0.9,0,1.3c0,0.4,0,0.8,0,1.1c0,0.5,0.3,1,0.7,1.4c0.4,0.4,1,0.6,1.8,0.6
		c0.8,0,1.4-0.2,1.8-0.6c0.4-0.4,0.6-0.8,0.7-1.4c0-0.3,0-0.7,0-1.1c0-0.4,0-0.9,0-1.3s0-0.9,0-1.3c0-0.4,0-0.8,0-1.1
		c0-0.6-0.3-1.1-0.7-1.5c-0.4-0.3-1-0.5-1.8-0.5c-0.8,0-1.4,0.2-1.8,0.6C79.5,13.1,79.3,13.6,79.2,14.1z"/>
	<path class="st0" d="M98.7,11.7c-0.2,0-0.4,0-0.6,0c-0.2,0-0.5,0.1-0.7,0.2c-0.2,0.1-0.4,0.2-0.6,0.4c-0.2,0.2-0.3,0.4-0.4,0.6
		c-0.1,0.3-0.2,0.5-0.3,0.5c-0.1,0.1-0.3,0.1-0.6,0.1h-2.4c-0.2,0-0.3-0.1-0.5-0.2c-0.1-0.1-0.2-0.3-0.2-0.5c0-0.7,0.1-1.3,0.4-1.9
		c0.3-0.6,0.7-1.1,1.2-1.6c0.5-0.5,1.2-0.8,2-1.1C97,8.1,97.9,8,98.9,8c2,0,3.6,0.5,4.8,1.5c1.2,1,1.8,2.5,1.8,4.4v10.2
		c0,0.2-0.1,0.3-0.2,0.5c-0.1,0.1-0.3,0.2-0.5,0.2h-1.6c-0.2,0-0.3-0.1-0.5-0.2c-0.1-0.1-0.2-0.3-0.2-0.4c-0.1-0.2-0.2-0.2-0.4-0.2
		c-0.2,0-0.3,0.1-0.5,0.2c-0.2,0.1-0.4,0.3-0.8,0.4c-0.3,0.2-0.7,0.3-1.1,0.4c-0.4,0.1-0.9,0.2-1.6,0.2c-1.9,0-3.4-0.5-4.5-1.4
		c-1.1-0.9-1.6-2.3-1.6-4c0-0.6,0.1-1.2,0.3-1.8c0.2-0.6,0.6-1.2,1-1.7c0.5-0.5,1.1-0.9,1.8-1.2c0.7-0.3,1.5-0.5,2.5-0.5h3.3
		c0.2,0,0.3-0.1,0.3-0.3v-0.5c0-0.7-0.2-1.2-0.7-1.5C100.1,11.9,99.5,11.7,98.7,11.7z M97.6,18.1c-0.3,0-0.6,0.1-0.9,0.2
		c-0.2,0.1-0.4,0.3-0.5,0.4c-0.1,0.2-0.2,0.4-0.2,0.5c0,0.2-0.1,0.3-0.1,0.5c0,0.6,0.2,1.1,0.6,1.3c0.4,0.3,0.9,0.4,1.5,0.4
		c0.9,0,1.7-0.2,2.4-0.5c0.6-0.3,1-0.9,1-1.8v-0.8c0-0.2-0.1-0.3-0.3-0.3H97.6z"/>
	<path class="st0" d="M115,8c0.6,0,1.1,0.1,1.5,0.2c0.4,0.1,0.7,0.2,0.9,0.4c0.3,0.1,0.5,0.3,0.6,0.4c0.2,0.1,0.4,0.2,0.6,0.2
		c0.2,0,0.3-0.1,0.5-0.2c0.1-0.1,0.3-0.2,0.4-0.3c0.2-0.2,0.3-0.2,0.5-0.2h1.6c0.2,0,0.3,0.1,0.5,0.2c0.1,0.1,0.2,0.3,0.2,0.5v16.7
		c0,0.8-0.2,1.6-0.5,2.3c-0.3,0.7-0.8,1.4-1.3,1.9c-0.6,0.6-1.3,1-2,1.3c-0.8,0.3-1.7,0.5-2.6,0.5c-0.9,0-1.7-0.1-2.5-0.4
		c-0.8-0.3-1.5-0.6-2-1.1c-0.6-0.5-1.1-1.1-1.4-1.7c-0.3-0.7-0.5-1.4-0.5-2.2c0-0.2,0.1-0.3,0.2-0.5c0.1-0.1,0.3-0.2,0.5-0.2h2.5
		c0.4,0,0.6,0.1,0.7,0.2c0.1,0.1,0.1,0.3,0.2,0.6c0.1,0.4,0.3,0.7,0.7,1c0.4,0.3,0.9,0.4,1.6,0.4c0.6,0,1.2-0.2,1.7-0.5
		c0.5-0.4,0.7-0.9,0.7-1.6v-0.3c0-0.7-0.3-0.9-1-0.7c-0.2,0.1-0.5,0.2-0.8,0.3c-0.3,0.1-0.7,0.1-1.2,0.1c-0.9,0-1.6-0.2-2.4-0.5
		c-0.7-0.3-1.4-0.7-1.9-1.3c-0.5-0.5-1-1.2-1.3-1.9c-0.3-0.7-0.5-1.5-0.6-2.4c0-0.3,0-0.7,0-1.1c0-0.4,0-0.9,0-1.3s0-0.9,0-1.3
		c0-0.4,0-0.8,0-1.1c0.1-0.9,0.3-1.7,0.6-2.4c0.3-0.7,0.8-1.4,1.3-1.9c0.5-0.5,1.2-1,1.9-1.3C113.4,8.2,114.2,8,115,8z M118,19
		c0-0.3,0-0.7,0-1.1c0-0.4,0-0.9,0-1.3s0-0.9,0-1.3c0-0.4,0-0.8,0-1.1c0-0.6-0.3-1.1-0.7-1.5c-0.4-0.3-1-0.5-1.8-0.5
		c-0.8,0-1.4,0.2-1.8,0.6c-0.4,0.4-0.6,0.8-0.7,1.4c0,0.3,0,0.7,0,1.1c0,0.4,0,0.9,0,1.3s0,0.9,0,1.3c0,0.4,0,0.8,0,1.1
		c0,0.5,0.3,1,0.7,1.4c0.4,0.4,1,0.6,1.8,0.6c0.8,0,1.4-0.2,1.8-0.6C117.8,20.1,118,19.6,118,19z"/>
	<path class="st0" d="M137.6,17.9c0,0.9,0.3,1.5,0.8,2c0.5,0.5,1.2,0.7,2.1,0.7c0.9,0,1.5-0.2,2.1-0.7c0.5-0.5,0.8-1.1,0.8-2
		c0-0.9-0.3-1.5-0.8-2c-0.5-0.5-1.2-0.7-2.1-0.7h-0.4c-0.2,0-0.3-0.1-0.5-0.2c-0.1-0.1-0.2-0.3-0.2-0.5v-3.1c0-0.2,0.1-0.3,0.2-0.5
		c0.1-0.1,0.3-0.2,0.5-0.2h0.4c0.8,0,1.4-0.2,1.9-0.7c0.5-0.4,0.7-1.1,0.7-1.8c0-0.7-0.2-1.3-0.7-1.8c-0.5-0.4-1.1-0.7-1.9-0.7
		c-0.7,0-1.4,0.2-1.8,0.7c-0.5,0.4-0.7,1-0.7,1.8v0.5c0,0.2-0.1,0.3-0.2,0.5c-0.1,0.1-0.3,0.2-0.5,0.2h-3.1c-0.2,0-0.3-0.1-0.5-0.2
		c-0.1-0.1-0.2-0.3-0.2-0.5V8.3c0-1,0.2-1.9,0.6-2.7c0.4-0.8,0.9-1.6,1.5-2.2c0.6-0.6,1.4-1.1,2.2-1.5s1.8-0.5,2.7-0.5
		s1.9,0.2,2.7,0.5s1.6,0.9,2.2,1.5c0.6,0.6,1.1,1.4,1.5,2.2c0.4,0.8,0.5,1.7,0.5,2.7c0,0.8-0.2,1.6-0.5,2.4
		c-0.3,0.7-0.7,1.4-1.2,1.9c-0.2,0.2-0.2,0.4,0,0.6c0.6,0.5,1.1,1.2,1.5,2.1c0.4,0.9,0.6,1.7,0.6,2.7c0,1-0.2,1.9-0.6,2.8
		c-0.4,0.9-0.9,1.6-1.6,2.3c-0.7,0.6-1.4,1.2-2.3,1.5c-0.9,0.4-1.8,0.6-2.8,0.6c-1,0-2-0.2-2.8-0.6c-0.9-0.4-1.7-0.9-2.3-1.5
		c-0.7-0.6-1.2-1.4-1.6-2.3c-0.4-0.9-0.6-1.8-0.6-2.8v-0.3c0-0.2,0.1-0.3,0.2-0.5c0.1-0.1,0.3-0.2,0.5-0.2h3.1
		c0.2,0,0.3,0.1,0.5,0.2c0.1,0.1,0.2,0.3,0.2,0.5V17.9z"/>
	<path class="st0" d="M176.2,14.1c0-0.5-0.2-1-0.5-1.4c-0.4-0.4-0.9-0.6-1.6-0.6c-0.7,0-1.3,0.2-1.7,0.6c-0.4,0.4-0.6,0.8-0.6,1.4
		v10c0,0.2-0.1,0.3-0.2,0.5c-0.1,0.1-0.3,0.2-0.5,0.2h-3c-0.2,0-0.3-0.1-0.5-0.2c-0.1-0.1-0.2-0.3-0.2-0.5v-10c0-0.5-0.2-1-0.5-1.4
		c-0.4-0.4-0.9-0.6-1.6-0.6c-0.7,0-1.3,0.2-1.7,0.5c-0.4,0.4-0.6,0.8-0.6,1.3v10.2c0,0.2-0.1,0.3-0.2,0.5c-0.1,0.1-0.3,0.2-0.5,0.2
		h-3c-0.2,0-0.3-0.1-0.5-0.2c-0.1-0.1-0.2-0.3-0.2-0.5V9c0-0.2,0.1-0.3,0.2-0.5c0.1-0.1,0.3-0.2,0.5-0.2h1.6c0.2,0,0.4,0.1,0.6,0.2
		c0.1,0.1,0.3,0.3,0.4,0.4c0.1,0.1,0.3,0.2,0.5,0.2c0.2,0,0.5-0.1,0.7-0.2c0.2-0.1,0.5-0.3,0.7-0.4c0.3-0.1,0.6-0.3,0.9-0.4
		c0.3-0.1,0.7-0.2,1.2-0.2c0.8,0,1.4,0.1,1.9,0.4s1,0.5,1.4,0.9c0.5,0.3,1,0.3,1.5,0c0.4-0.3,0.9-0.6,1.5-0.8c0.6-0.3,1.2-0.4,2-0.4
		c0.9,0,1.7,0.2,2.4,0.5c0.7,0.3,1.4,0.7,1.9,1.3c0.5,0.5,1,1.2,1.3,1.9c0.3,0.7,0.5,1.5,0.5,2.4v10c0,0.2-0.1,0.3-0.2,0.5
		c-0.1,0.1-0.3,0.2-0.5,0.2h-3c-0.2,0-0.3-0.1-0.5-0.2c-0.1-0.1-0.2-0.3-0.2-0.5V14.1z"/>
	<path class="st0" d="M190.3,11.7c-0.2,0-0.4,0-0.6,0c-0.2,0-0.5,0.1-0.7,0.2c-0.2,0.1-0.4,0.2-0.6,0.4c-0.2,0.2-0.3,0.4-0.4,0.6
		c-0.1,0.3-0.2,0.5-0.3,0.5c-0.1,0.1-0.3,0.1-0.6,0.1h-2.4c-0.2,0-0.3-0.1-0.5-0.2c-0.1-0.1-0.2-0.3-0.2-0.5c0-0.7,0.1-1.3,0.4-1.9
		c0.3-0.6,0.7-1.1,1.2-1.6c0.5-0.5,1.2-0.8,2-1.1s1.7-0.4,2.7-0.4c2,0,3.6,0.5,4.8,1.5c1.2,1,1.8,2.5,1.8,4.4v10.2
		c0,0.2-0.1,0.3-0.2,0.5c-0.1,0.1-0.3,0.2-0.5,0.2h-1.6c-0.2,0-0.3-0.1-0.5-0.2c-0.1-0.1-0.2-0.3-0.2-0.4c-0.1-0.2-0.2-0.2-0.4-0.2
		c-0.2,0-0.3,0.1-0.5,0.2c-0.2,0.1-0.4,0.3-0.8,0.4c-0.3,0.2-0.7,0.3-1.1,0.4c-0.4,0.1-0.9,0.2-1.6,0.2c-1.9,0-3.4-0.5-4.5-1.4
		c-1.1-0.9-1.6-2.3-1.6-4c0-0.6,0.1-1.2,0.3-1.8c0.2-0.6,0.6-1.2,1-1.7c0.5-0.5,1.1-0.9,1.8-1.2c0.7-0.3,1.5-0.5,2.5-0.5h3.3
		c0.2,0,0.3-0.1,0.3-0.3v-0.5c0-0.7-0.2-1.2-0.7-1.5C191.6,11.9,191,11.7,190.3,11.7z M189.1,18.1c-0.3,0-0.6,0.1-0.9,0.2
		c-0.2,0.1-0.4,0.3-0.5,0.4c-0.1,0.2-0.2,0.4-0.2,0.5c0,0.2-0.1,0.3-0.1,0.5c0,0.6,0.2,1.1,0.6,1.3c0.4,0.3,0.9,0.4,1.5,0.4
		c0.9,0,1.7-0.2,2.4-0.5c0.6-0.3,1-0.9,1-1.8v-0.8c0-0.2-0.1-0.3-0.3-0.3H189.1z"/>
	<path class="st0" d="M207.1,11.7c-0.2,0-0.4,0-0.6,0c-0.2,0-0.5,0.1-0.7,0.2c-0.2,0.1-0.4,0.2-0.6,0.4c-0.2,0.2-0.3,0.4-0.4,0.6
		c-0.1,0.3-0.2,0.5-0.3,0.5c-0.1,0.1-0.3,0.1-0.6,0.1h-2.4c-0.2,0-0.3-0.1-0.5-0.2c-0.1-0.1-0.2-0.3-0.2-0.5c0-0.7,0.1-1.3,0.4-1.9
		c0.3-0.6,0.7-1.1,1.2-1.6c0.5-0.5,1.2-0.8,2-1.1s1.7-0.4,2.7-0.4c2,0,3.6,0.5,4.8,1.5c1.2,1,1.8,2.5,1.8,4.4v10.2
		c0,0.2-0.1,0.3-0.2,0.5c-0.1,0.1-0.3,0.2-0.5,0.2h-1.6c-0.2,0-0.3-0.1-0.5-0.2c-0.1-0.1-0.2-0.3-0.2-0.4c-0.1-0.2-0.2-0.2-0.4-0.2
		c-0.2,0-0.3,0.1-0.5,0.2c-0.2,0.1-0.4,0.3-0.8,0.4c-0.3,0.2-0.7,0.3-1.1,0.4c-0.4,0.1-0.9,0.2-1.6,0.2c-1.9,0-3.4-0.5-4.5-1.4
		c-1.1-0.9-1.6-2.3-1.6-4c0-0.6,0.1-1.2,0.3-1.8c0.2-0.6,0.6-1.2,1-1.7c0.5-0.5,1.1-0.9,1.8-1.2c0.7-0.3,1.5-0.5,2.5-0.5h3.3
		c0.2,0,0.3-0.1,0.3-0.3v-0.5c0-0.7-0.2-1.2-0.7-1.5C208.4,11.9,207.8,11.7,207.1,11.7z M205.9,18.1c-0.3,0-0.6,0.1-0.9,0.2
		c-0.2,0.1-0.4,0.3-0.5,0.4c-0.1,0.2-0.2,0.4-0.2,0.5c0,0.2-0.1,0.3-0.1,0.5c0,0.6,0.2,1.1,0.6,1.3c0.4,0.3,0.9,0.4,1.5,0.4
		c0.9,0,1.7-0.2,2.4-0.5c0.6-0.3,1-0.9,1-1.8v-0.8c0-0.2-0.1-0.3-0.3-0.3H205.9z"/>
	<path class="st0" d="M226.1,12.3c-1.2,0-2.3,0.3-3.1,1c-0.8,0.7-1.2,1.7-1.2,3v7.8c0,0.2-0.1,0.3-0.2,0.5c-0.1,0.1-0.3,0.2-0.5,0.2
		h-3c-0.2,0-0.3-0.1-0.5-0.2c-0.1-0.1-0.2-0.3-0.2-0.5V9c0-0.2,0.1-0.3,0.2-0.5c0.1-0.1,0.3-0.2,0.5-0.2h1.6c0.1,0,0.3,0,0.4,0.1
		c0.1,0.1,0.2,0.2,0.3,0.3c0.1,0.3,0.2,0.6,0.3,0.9c0.1,0.3,0.3,0.5,0.6,0.5c0.3,0,0.5-0.1,0.7-0.3c0.2-0.2,0.5-0.4,0.8-0.6
		c0.3-0.2,0.7-0.4,1.2-0.6c0.5-0.2,1.1-0.3,2-0.3h1.1c0.2,0,0.3,0.1,0.5,0.2c0.1,0.1,0.2,0.3,0.2,0.5v2.6c0,0.2-0.1,0.3-0.2,0.5
		c-0.1,0.1-0.3,0.2-0.5,0.2H226.1z"/>
	<path class="st0" d="M240,8.5c0.2,0,0.3,0.1,0.5,0.2c0.1,0.1,0.2,0.3,0.2,0.5v2.6c0,0.2-0.1,0.3-0.2,0.5c-0.1,0.1-0.3,0.2-0.5,0.2
		h-3.6c-0.2,0-0.3,0.1-0.3,0.3v6c0,0.5,0.2,1,0.5,1.4c0.4,0.4,0.8,0.6,1.4,0.6h2.3c0.2,0,0.3,0.1,0.5,0.2c0.1,0.1,0.2,0.3,0.2,0.5
		v2.8c0,0.2-0.1,0.3-0.2,0.5c-0.1,0.1-0.3,0.2-0.5,0.2H238c-1.9,0-3.4-0.5-4.5-1.6c-1.1-1.1-1.7-2.5-1.7-4.4v-6
		c0-0.2-0.1-0.3-0.3-0.3h-2.6c-0.2,0-0.3-0.1-0.5-0.2c-0.1-0.1-0.2-0.3-0.2-0.5V9.1c0-0.2,0.1-0.3,0.2-0.5c0.1-0.1,0.3-0.2,0.5-0.2
		h2.6c0.2,0,0.3-0.1,0.3-0.3v-5c0-0.2,0.1-0.3,0.2-0.5c0.1-0.1,0.3-0.2,0.5-0.2h3c0.2,0,0.3,0.1,0.5,0.2c0.1,0.1,0.2,0.3,0.2,0.5v5
		c0,0.2,0.1,0.3,0.3,0.3H240z"/>
</g>
</svg>
