<?xml version="1.0" encoding="utf-8"?>
<!-- Generator: Adobe Illustrator 22.0.0, SVG Export Plug-In . SVG Version: 6.00 Build 0)  -->
<svg version="1.1" id="Laag_1" xmlns="http://www.w3.org/2000/svg" xmlns:xlink="http://www.w3.org/1999/xlink" x="0px" y="0px"
	 viewBox="0 0 298.2 33.1" style="enable-background:new 0 0 298.2 33.1;" xml:space="preserve">
<style type="text/css">
	.st0{fill:#FFFFFF;}
</style>
<rect x="-8.7" y="-60.9" style="fill:none;" width="298.9" height="51.6"/>
<text transform="matrix(1 0 0 1 -8.7314 -52.3667)" style="font-family:'GTPressura-Bold'; font-size:12px;">Museumnacht 010</text>
<g>
	<path class="st0" d="M12.5,21.2c0.1,0.1,0.1,0.2,0.2,0.2c0.1,0,0.2-0.1,0.2-0.2l4-16.7c0.1-0.4,0.4-0.6,0.8-0.6h5.6
		c0.2,0,0.4,0.1,0.5,0.2c0.2,0.2,0.2,0.3,0.2,0.5v25.2c0,0.2-0.1,0.4-0.2,0.5c-0.2,0.2-0.3,0.2-0.5,0.2h-3.4c-0.2,0-0.4-0.1-0.5-0.2
		c-0.2-0.2-0.2-0.3-0.2-0.5V15.4c0-0.1,0-0.2-0.1-0.2c-0.1,0-0.2,0-0.2,0.2l-3.9,14.6c-0.1,0.4-0.4,0.6-0.8,0.6h-3
		c-0.4,0-0.7-0.2-0.8-0.6L6.7,15.3c-0.1-0.1-0.1-0.2-0.2-0.2s-0.1,0.1-0.1,0.2v14.4c0,0.2-0.1,0.4-0.2,0.5c-0.2,0.2-0.3,0.2-0.5,0.2
		H2.2c-0.2,0-0.4-0.1-0.5-0.2c-0.2-0.2-0.2-0.3-0.2-0.5V4.6c0-0.2,0.1-0.4,0.2-0.5C1.8,3.9,2,3.9,2.2,3.9h5.6c0.4,0,0.7,0.2,0.8,0.6
		L12.5,21.2z"/>
	<path class="st0" d="M28.8,12.2c0-0.2,0.1-0.4,0.2-0.5c0.2-0.2,0.3-0.2,0.5-0.2H33c0.2,0,0.4,0.1,0.5,0.2c0.2,0.2,0.2,0.3,0.2,0.5
		v11.7c0,0.6,0.2,1.2,0.7,1.6c0.5,0.4,1.2,0.6,2.1,0.6c0.9,0,1.6-0.2,2.1-0.6c0.5-0.4,0.8-0.9,0.8-1.5V12.2c0-0.2,0.1-0.4,0.2-0.5
		c0.2-0.2,0.3-0.2,0.5-0.2h3.4c0.2,0,0.4,0.1,0.5,0.2c0.2,0.2,0.2,0.3,0.2,0.5v17.5c0,0.2-0.1,0.4-0.2,0.5c-0.2,0.2-0.3,0.2-0.5,0.2
		h-1.9c-0.2,0-0.4,0-0.5-0.1c-0.1-0.1-0.2-0.2-0.3-0.3c-0.1-0.1-0.2-0.2-0.4-0.3c-0.1-0.1-0.3-0.1-0.5-0.1c-0.3,0-0.5,0.1-0.8,0.2
		c-0.2,0.1-0.5,0.3-0.8,0.4c-0.3,0.1-0.6,0.3-1,0.4C37,30.9,36.6,31,36,31c-1,0-1.9-0.2-2.8-0.6c-0.9-0.4-1.7-0.9-2.3-1.5
		c-0.6-0.6-1.2-1.4-1.5-2.2c-0.4-0.9-0.6-1.8-0.6-2.8V12.2z"/>
	<path class="st0" d="M63.6,17.2c0,0.2-0.1,0.4-0.2,0.5C63.2,17.9,63,18,62.8,18H60c-0.2,0-0.4-0.1-0.6-0.2
		c-0.2-0.1-0.3-0.4-0.3-0.8c-0.1-0.6-0.5-1.1-1.1-1.4c-0.6-0.3-1.3-0.4-2-0.4c-0.9,0-1.6,0.1-2.2,0.4c-0.6,0.3-0.9,0.6-0.9,1.2
		c0,0.3,0.1,0.5,0.2,0.7c0.2,0.2,0.4,0.3,0.7,0.4c0.3,0.1,0.6,0.2,1,0.2c0.4,0.1,0.7,0.1,1.1,0.2c0.8,0.2,1.7,0.3,2.7,0.5
		c0.9,0.2,1.8,0.5,2.6,0.9c0.8,0.4,1.5,1,2,1.8c0.5,0.8,0.8,1.8,0.8,3.1c0,0.9-0.2,1.8-0.6,2.6c-0.4,0.8-1,1.4-1.8,2
		c-0.7,0.5-1.6,1-2.6,1.3c-1,0.3-2,0.4-3.1,0.4c-1,0-2.1-0.1-3-0.4c-1-0.2-1.8-0.6-2.6-1.2c-0.8-0.5-1.4-1.2-1.8-2.1
		s-0.7-1.9-0.7-3.1c0-0.2,0.1-0.4,0.2-0.5c0.2-0.2,0.3-0.2,0.5-0.2h2.9c0.5,0,0.7,0.1,0.9,0.2c0.1,0.2,0.2,0.4,0.3,0.7
		c0.1,0.7,0.4,1.3,1.1,1.5c0.6,0.3,1.4,0.4,2.3,0.4c1,0,1.9-0.2,2.5-0.5c0.6-0.3,1-0.7,1-1.3c0-0.3-0.1-0.6-0.3-0.8
		c-0.2-0.2-0.5-0.4-0.8-0.5c-0.3-0.1-0.7-0.2-1.1-0.3c-0.4-0.1-0.8-0.1-1.3-0.2c-0.8-0.1-1.6-0.3-2.5-0.5c-0.9-0.2-1.7-0.6-2.5-1
		c-0.8-0.5-1.4-1.1-1.9-1.8c-0.5-0.7-0.8-1.7-0.8-2.8c0-0.8,0.2-1.6,0.7-2.3c0.5-0.7,1-1.3,1.8-1.8c0.7-0.5,1.5-0.9,2.5-1.2
		s1.8-0.4,2.7-0.4c0.9,0,1.7,0.1,2.6,0.3c0.9,0.2,1.7,0.6,2.4,1.1s1.3,1.1,1.8,1.9S63.6,16.1,63.6,17.2z"/>
	<path class="st0" d="M72.2,22.5c-0.4,0-0.6,0.2-0.6,0.6c0,1.1,0.3,1.9,1,2.4c0.7,0.5,1.4,0.8,2.4,0.8c0.7,0,1.4-0.1,1.9-0.3
		c0.5-0.2,0.9-0.6,1.1-1.3c0.2-0.4,0.5-0.6,0.9-0.6h3.2c0.2,0,0.4,0.1,0.5,0.2c0.2,0.1,0.2,0.3,0.1,0.6c-0.4,1.8-1.3,3.2-2.6,4.3
		S77.1,31,75,31c-1.2,0-2.2-0.2-3.1-0.6c-0.9-0.4-1.7-0.9-2.4-1.5c-0.7-0.6-1.2-1.4-1.6-2.2c-0.4-0.9-0.7-1.8-0.8-2.8
		C67.1,23.5,67,23,67,22.5c0-0.5,0-1,0-1.5c0-0.5,0-1,0-1.5c0-0.5,0.1-0.9,0.1-1.3c0.1-1,0.4-1.9,0.8-2.8c0.4-0.9,0.9-1.6,1.6-2.2
		c0.7-0.6,1.5-1.1,2.4-1.5c0.9-0.4,2-0.6,3.1-0.6c1.1,0,2.2,0.2,3.1,0.5c1,0.3,1.8,0.8,2.5,1.5c0.7,0.6,1.2,1.4,1.6,2.4
		c0.4,0.9,0.6,2,0.6,3.2v3.2c0,0.2-0.1,0.4-0.2,0.5c-0.2,0.2-0.3,0.2-0.5,0.2H72.2z M75,15.6c-1.1,0-1.9,0.2-2.5,0.6
		c-0.6,0.4-0.8,1-0.8,1.8c0,0.2,0.1,0.3,0.4,0.3h5.8c0.3,0,0.4-0.1,0.4-0.3c0-0.4-0.1-0.8-0.3-1.1c-0.2-0.3-0.4-0.6-0.7-0.7
		c-0.3-0.2-0.7-0.3-1-0.4C75.8,15.6,75.4,15.6,75,15.6z"/>
	<path class="st0" d="M86.5,12.2c0-0.2,0.1-0.4,0.2-0.5c0.2-0.2,0.3-0.2,0.5-0.2h3.4c0.2,0,0.4,0.1,0.5,0.2c0.2,0.2,0.2,0.3,0.2,0.5
		v11.7c0,0.6,0.2,1.2,0.7,1.6c0.5,0.4,1.2,0.6,2.1,0.6c0.9,0,1.6-0.2,2.1-0.6c0.5-0.4,0.8-0.9,0.8-1.5V12.2c0-0.2,0.1-0.4,0.2-0.5
		c0.2-0.2,0.3-0.2,0.5-0.2h3.4c0.2,0,0.4,0.1,0.5,0.2c0.2,0.2,0.2,0.3,0.2,0.5v17.5c0,0.2-0.1,0.4-0.2,0.5c-0.2,0.2-0.3,0.2-0.5,0.2
		h-1.9c-0.2,0-0.4,0-0.5-0.1c-0.1-0.1-0.2-0.2-0.3-0.3c-0.1-0.1-0.2-0.2-0.4-0.3c-0.1-0.1-0.3-0.1-0.5-0.1c-0.3,0-0.5,0.1-0.8,0.2
		c-0.2,0.1-0.5,0.3-0.8,0.4c-0.3,0.1-0.6,0.3-1,0.4c-0.4,0.1-0.9,0.2-1.4,0.2c-1,0-1.9-0.2-2.8-0.6c-0.9-0.4-1.7-0.9-2.3-1.5
		c-0.6-0.6-1.2-1.4-1.5-2.2c-0.4-0.9-0.6-1.8-0.6-2.8V12.2z"/>
	<path class="st0" d="M126.9,18.1c0-0.6-0.2-1.2-0.6-1.6c-0.4-0.4-1-0.6-1.8-0.6c-0.8,0-1.5,0.2-1.9,0.7c-0.5,0.4-0.7,1-0.7,1.6
		v11.6c0,0.2-0.1,0.4-0.2,0.5c-0.2,0.2-0.3,0.2-0.5,0.2h-3.4c-0.2,0-0.4-0.1-0.5-0.2c-0.2-0.2-0.2-0.3-0.2-0.5V18.1
		c0-0.6-0.2-1.2-0.6-1.6c-0.4-0.4-1-0.6-1.8-0.6c-0.8,0-1.5,0.2-1.9,0.6c-0.5,0.4-0.7,0.9-0.7,1.5v11.8c0,0.2-0.1,0.4-0.2,0.5
		c-0.2,0.2-0.3,0.2-0.5,0.2h-3.4c-0.2,0-0.4-0.1-0.5-0.2c-0.2-0.2-0.2-0.3-0.2-0.5V12.2c0-0.2,0.1-0.4,0.2-0.5
		c0.2-0.2,0.3-0.2,0.5-0.2h1.9c0.3,0,0.5,0.1,0.7,0.3c0.2,0.2,0.3,0.3,0.4,0.5c0.1,0.2,0.3,0.2,0.6,0.2c0.3,0,0.5-0.1,0.8-0.2
		c0.3-0.2,0.5-0.3,0.8-0.5c0.3-0.2,0.6-0.3,1-0.5c0.4-0.2,0.9-0.2,1.4-0.2c0.9,0,1.6,0.1,2.2,0.4s1.1,0.6,1.6,1
		c0.5,0.4,1.1,0.4,1.7,0c0.5-0.4,1.1-0.7,1.8-1c0.7-0.3,1.4-0.4,2.3-0.4c1,0,1.9,0.2,2.8,0.6c0.9,0.4,1.6,0.9,2.2,1.5
		c0.6,0.6,1.1,1.4,1.5,2.2c0.4,0.9,0.5,1.8,0.5,2.8v11.6c0,0.2-0.1,0.4-0.2,0.5c-0.2,0.2-0.3,0.2-0.5,0.2h-3.4
		c-0.2,0-0.4-0.1-0.5-0.2c-0.2-0.2-0.2-0.3-0.2-0.5V18.1z"/>
	<path class="st0" d="M151.6,29.8c0,0.2-0.1,0.4-0.2,0.5c-0.2,0.2-0.3,0.2-0.5,0.2h-3.4c-0.2,0-0.4-0.1-0.5-0.2
		c-0.2-0.2-0.2-0.3-0.2-0.5V18.1c0-0.6-0.2-1.2-0.7-1.6c-0.5-0.4-1.2-0.6-2.1-0.6c-0.9,0-1.6,0.2-2.1,0.6c-0.5,0.4-0.8,0.9-0.8,1.5
		v11.8c0,0.2-0.1,0.4-0.2,0.5c-0.2,0.2-0.3,0.2-0.5,0.2h-3.4c-0.2,0-0.4-0.1-0.5-0.2c-0.2-0.2-0.2-0.3-0.2-0.5V12.2
		c0-0.2,0.1-0.4,0.2-0.5c0.2-0.2,0.3-0.2,0.5-0.2h1.9c0.3,0,0.5,0.1,0.7,0.3c0.2,0.1,0.3,0.3,0.4,0.4c0.1,0.2,0.3,0.2,0.6,0.2
		c0.3,0,0.5-0.1,0.8-0.2c0.3-0.1,0.5-0.3,0.9-0.5c0.3-0.2,0.7-0.3,1.1-0.5c0.4-0.1,0.9-0.2,1.5-0.2c1,0,1.9,0.2,2.8,0.6
		c0.9,0.4,1.6,0.9,2.2,1.5c0.6,0.6,1.1,1.4,1.5,2.2c0.4,0.9,0.5,1.8,0.5,2.8V29.8z"/>
	<path class="st0" d="M163.3,15.4c-0.2,0-0.4,0-0.7,0.1c-0.3,0-0.5,0.1-0.8,0.2c-0.3,0.1-0.5,0.2-0.7,0.4c-0.2,0.2-0.3,0.4-0.4,0.7
		c-0.1,0.3-0.2,0.5-0.3,0.6c-0.1,0.1-0.4,0.1-0.7,0.1h-2.7c-0.2,0-0.4-0.1-0.5-0.2c-0.2-0.2-0.2-0.3-0.2-0.5c0-0.8,0.2-1.5,0.5-2.2
		c0.3-0.7,0.8-1.3,1.4-1.8c0.6-0.5,1.4-1,2.3-1.3c0.9-0.3,1.9-0.5,3.1-0.5c2.3,0,4.2,0.6,5.5,1.8c1.4,1.2,2.1,2.9,2.1,5.1v11.8
		c0,0.2-0.1,0.4-0.2,0.5c-0.2,0.2-0.3,0.2-0.5,0.2h-1.9c-0.2,0-0.4-0.1-0.5-0.3c-0.1-0.2-0.2-0.3-0.3-0.5c-0.1-0.2-0.2-0.3-0.5-0.3
		c-0.2,0-0.4,0.1-0.6,0.2c-0.2,0.2-0.5,0.3-0.9,0.5c-0.4,0.2-0.8,0.3-1.3,0.5c-0.5,0.2-1.1,0.2-1.8,0.2c-2.2,0-4-0.5-5.3-1.6
		c-1.3-1.1-1.9-2.6-1.9-4.7c0-0.7,0.1-1.3,0.4-2c0.3-0.7,0.7-1.3,1.2-1.9c0.5-0.6,1.2-1.1,2.1-1.4c0.8-0.4,1.8-0.6,2.9-0.6h3.9
		c0.3,0,0.4-0.1,0.4-0.4v-0.6c0-0.8-0.3-1.4-0.8-1.8C164.8,15.6,164.1,15.4,163.3,15.4z M162,22.8c-0.4,0-0.7,0.1-1,0.2
		s-0.5,0.3-0.6,0.5c-0.1,0.2-0.2,0.4-0.3,0.6c-0.1,0.2-0.1,0.4-0.1,0.6c0,0.7,0.2,1.2,0.7,1.5c0.5,0.3,1.1,0.5,1.8,0.5
		c1.1,0,2-0.2,2.7-0.6c0.7-0.4,1.1-1.1,1.1-2.1v-0.9c0-0.3-0.1-0.4-0.4-0.4H162z"/>
	<path class="st0" d="M185.9,23.3c0.1-0.4,0.3-0.6,0.7-0.6h3.4c0.2,0,0.4,0.1,0.5,0.2c0.1,0.2,0.2,0.3,0.2,0.5
		c0,1.2-0.2,2.2-0.6,3.1c-0.4,0.9-1,1.7-1.7,2.3c-0.7,0.6-1.5,1.1-2.5,1.5c-0.9,0.3-1.9,0.5-3,0.5c-1.2,0-2.2-0.2-3.1-0.6
		s-1.7-0.9-2.4-1.5c-0.7-0.6-1.2-1.4-1.6-2.2s-0.7-1.8-0.8-2.8c-0.1-0.4-0.1-0.8-0.1-1.3c0-0.5,0-1,0-1.5c0-0.5,0-1,0-1.5
		c0-0.5,0.1-0.9,0.1-1.3c0.1-1,0.4-1.9,0.8-2.8c0.4-0.9,0.9-1.6,1.6-2.2c0.7-0.6,1.5-1.1,2.4-1.5c0.9-0.4,2-0.6,3.1-0.6
		c1,0,2,0.2,3,0.5s1.8,0.8,2.5,1.5c0.7,0.6,1.3,1.4,1.7,2.4c0.4,0.9,0.6,2,0.6,3.1c0,0.2-0.1,0.4-0.2,0.5c-0.1,0.2-0.3,0.2-0.5,0.2
		h-3.4c-0.2,0-0.3-0.1-0.5-0.2c-0.1-0.1-0.2-0.3-0.2-0.5c-0.1-0.9-0.4-1.6-0.9-2c-0.5-0.4-1.3-0.6-2.2-0.6c-1,0-1.7,0.2-2.1,0.5
		c-0.4,0.3-0.7,0.9-0.8,1.6c-0.1,0.4-0.1,0.8-0.1,1.3c0,0.5,0,1,0,1.5c0,0.5,0,1,0,1.5c0,0.5,0.1,0.9,0.1,1.3
		c0.1,0.7,0.3,1.2,0.8,1.6c0.5,0.4,1.2,0.6,2.2,0.6c0.8,0,1.5-0.2,2-0.6C185.5,25.1,185.8,24.4,185.9,23.3z"/>
	<path class="st0" d="M205.4,18.1c0-0.6-0.2-1.2-0.7-1.6c-0.5-0.4-1.2-0.7-2.1-0.7c-0.9,0-1.6,0.2-2.1,0.7c-0.5,0.4-0.7,1-0.7,1.6
		v11.6c0,0.2-0.1,0.4-0.2,0.5c-0.2,0.2-0.3,0.2-0.5,0.2h-3.4c-0.2,0-0.4-0.1-0.5-0.2c-0.2-0.2-0.2-0.3-0.2-0.5V4.2
		c0-0.2,0.1-0.4,0.2-0.5c0.2-0.2,0.3-0.2,0.5-0.2h3.4c0.2,0,0.4,0.1,0.5,0.2c0.2,0.2,0.2,0.3,0.2,0.5v6.5c0,0.3,0.1,0.6,0.3,0.7
		c0.2,0.2,0.5,0.2,0.8,0.1c0.3-0.1,0.6-0.2,0.9-0.3c0.3-0.1,0.8-0.2,1.4-0.2c1,0,1.9,0.2,2.8,0.6c0.9,0.4,1.7,0.9,2.3,1.5
		c0.6,0.6,1.2,1.4,1.5,2.2c0.4,0.9,0.6,1.8,0.6,2.8v11.6c0,0.2-0.1,0.4-0.2,0.5c-0.2,0.2-0.3,0.2-0.5,0.2h-3.4
		c-0.2,0-0.4-0.1-0.5-0.2c-0.2-0.2-0.2-0.3-0.2-0.5V18.1z"/>
	<path class="st0" d="M226.3,11.6c0.2,0,0.4,0.1,0.5,0.2c0.2,0.2,0.2,0.3,0.2,0.5v3c0,0.2-0.1,0.4-0.2,0.5c-0.2,0.2-0.3,0.2-0.5,0.2
		h-4.2c-0.3,0-0.4,0.1-0.4,0.4v6.9c0,0.6,0.2,1.2,0.6,1.6c0.4,0.4,1,0.7,1.7,0.7h2.7c0.2,0,0.4,0.1,0.5,0.2c0.2,0.2,0.2,0.3,0.2,0.5
		v3.2c0,0.2-0.1,0.4-0.2,0.5c-0.2,0.2-0.3,0.2-0.5,0.2H224c-2.2,0-3.9-0.6-5.3-1.8c-1.3-1.2-2-2.9-2-5.1v-7c0-0.3-0.1-0.4-0.4-0.4
		h-3c-0.2,0-0.4-0.1-0.5-0.2c-0.2-0.2-0.2-0.3-0.2-0.5v-3c0-0.2,0.1-0.4,0.2-0.5c0.2-0.2,0.3-0.2,0.5-0.2h3c0.3,0,0.4-0.1,0.4-0.4
		V5.4c0-0.2,0.1-0.4,0.2-0.5c0.2-0.2,0.3-0.2,0.5-0.2h3.4c0.2,0,0.4,0.1,0.5,0.2c0.2,0.2,0.2,0.3,0.2,0.5v5.8c0,0.3,0.1,0.4,0.4,0.4
		H226.3z"/>
	<path class="st0" d="M247.1,3.4c1.2,0,2.2,0.2,3.2,0.7c1,0.4,1.8,1.1,2.6,1.8c0.7,0.8,1.3,1.7,1.8,2.7c0.5,1,0.8,2.1,0.9,3.2
		c0.1,0.8,0.2,1.7,0.2,2.6c0,0.9,0.1,1.8,0.1,2.8c0,0.9,0,1.9-0.1,2.8c0,0.9-0.1,1.8-0.2,2.6c-0.1,1.1-0.4,2.2-0.9,3.2
		c-0.5,1-1.1,1.9-1.8,2.7c-0.7,0.8-1.6,1.4-2.6,1.8c-1,0.4-2.1,0.7-3.2,0.7c-1.2,0-2.2-0.2-3.2-0.7c-1-0.4-1.8-1.1-2.6-1.8
		c-0.7-0.8-1.3-1.7-1.8-2.7c-0.5-1-0.8-2.1-0.9-3.2c-0.1-0.8-0.2-1.6-0.2-2.6c-0.1-0.9-0.1-1.8-0.1-2.8c0-0.9,0-1.9,0.1-2.8
		c0.1-0.9,0.1-1.8,0.2-2.6c0.1-1.1,0.4-2.2,0.9-3.2c0.5-1,1.1-1.9,1.8-2.7c0.7-0.8,1.6-1.4,2.6-1.8C244.8,3.7,245.9,3.4,247.1,3.4z
		 M247.1,25.8c0.9,0,1.6-0.3,2.2-0.9c0.6-0.6,0.9-1.3,1-2.2c0.2-1.7,0.3-3.5,0.3-5.5s-0.1-3.8-0.3-5.5c-0.1-0.9-0.4-1.6-1-2.2
		c-0.6-0.6-1.3-0.9-2.2-0.9c-0.9,0-1.6,0.3-2.2,0.9c-0.6,0.6-0.9,1.3-1,2.2c-0.2,1.7-0.3,3.5-0.3,5.5s0.1,3.8,0.3,5.5
		c0.1,0.9,0.4,1.6,1,2.2C245.4,25.5,246.2,25.8,247.1,25.8z"/>
	<path class="st0" d="M271.2,4.1c0.2,0.2,0.2,0.3,0.2,0.5v25.2c0,0.2-0.1,0.4-0.2,0.5c-0.2,0.2-0.3,0.2-0.5,0.2h-3.8
		c-0.2,0-0.4-0.1-0.5-0.2c-0.2-0.2-0.2-0.3-0.2-0.5V11.5c0-0.3-0.1-0.4-0.3-0.4c-0.2,0-0.3,0-0.5,0.1l-5.9,5.9
		c-0.2,0.2-0.5,0.3-0.8,0.2c-0.3-0.1-0.5-0.4-0.5-0.8v-3.8c0-0.3,0-0.6,0.1-0.9c0.1-0.3,0.2-0.5,0.5-0.8l5.7-6.2
		c0.2-0.2,0.4-0.4,0.7-0.6c0.3-0.2,0.7-0.3,1.2-0.3h4.2C270.8,3.9,271,3.9,271.2,4.1z"/>
	<path class="st0" d="M284.6,3.4c1.2,0,2.2,0.2,3.2,0.7c1,0.4,1.8,1.1,2.6,1.8c0.7,0.8,1.3,1.7,1.8,2.7c0.5,1,0.8,2.1,0.9,3.2
		c0.1,0.8,0.2,1.7,0.2,2.6c0,0.9,0.1,1.8,0.1,2.8c0,0.9,0,1.9-0.1,2.8c0,0.9-0.1,1.8-0.2,2.6c-0.1,1.1-0.4,2.2-0.9,3.2
		c-0.5,1-1.1,1.9-1.8,2.7c-0.7,0.8-1.6,1.4-2.6,1.8c-1,0.4-2.1,0.7-3.2,0.7c-1.2,0-2.2-0.2-3.2-0.7c-1-0.4-1.8-1.1-2.6-1.8
		s-1.3-1.7-1.8-2.7c-0.5-1-0.8-2.1-0.9-3.2c-0.1-0.8-0.2-1.6-0.2-2.6c-0.1-0.9-0.1-1.8-0.1-2.8c0-0.9,0-1.9,0.1-2.8
		c0.1-0.9,0.1-1.8,0.2-2.6c0.1-1.1,0.4-2.2,0.9-3.2c0.5-1,1.1-1.9,1.8-2.7c0.7-0.8,1.6-1.4,2.6-1.8C282.3,3.7,283.4,3.4,284.6,3.4z
		 M284.6,25.8c0.9,0,1.6-0.3,2.2-0.9c0.6-0.6,0.9-1.3,1-2.2c0.2-1.7,0.3-3.5,0.3-5.5s-0.1-3.8-0.3-5.5c-0.1-0.9-0.4-1.6-1-2.2
		c-0.6-0.6-1.3-0.9-2.2-0.9c-0.9,0-1.6,0.3-2.2,0.9c-0.6,0.6-0.9,1.3-1,2.2c-0.2,1.7-0.3,3.5-0.3,5.5s0.1,3.8,0.3,5.5
		c0.1,0.9,0.4,1.6,1,2.2C282.9,25.5,283.7,25.8,284.6,25.8z"/>
</g>
</svg>
