<?xml version="1.0" encoding="utf-8"?>
<!-- Generator: Adobe Illustrator 22.0.0, SVG Export Plug-In . SVG Version: 6.00 Build 0)  -->
<svg version="1.1" id="Laag_1" xmlns="http://www.w3.org/2000/svg" xmlns:xlink="http://www.w3.org/1999/xlink" x="0px" y="0px"
	 viewBox="0 0 268.3 13.8" style="enable-background:new 0 0 268.3 13.8;" xml:space="preserve">
<g>
	<path d="M8,9.8c0,0.1,0,0.1,0.1,0.1s0.1,0,0.1-0.1L9.1,1c0-0.1,0.1-0.2,0.1-0.2c0.1,0,0.2-0.1,0.2-0.1h1c0.2,0,0.3,0,0.3,0.1
		c0.1,0.1,0.1,0.1,0.1,0.2L9.4,12.7c0,0.1-0.1,0.2-0.1,0.2C9.2,13,9.1,13,9,13H7.2C7.1,13,7,13,7,12.9c-0.1,0-0.1-0.1-0.1-0.2L6,7.5
		c0,0,0-0.1-0.1-0.1c0,0,0,0-0.1,0.1l-1.1,5.2c0,0.2-0.2,0.3-0.4,0.3H2.6c-0.1,0-0.2,0-0.2-0.1c-0.1,0-0.1-0.1-0.1-0.2L1,1.2
		C1,1.1,1,1,1.1,0.9s0.2-0.1,0.3-0.1h1c0.1,0,0.2,0,0.2,0.1c0.1,0,0.1,0.1,0.1,0.2l0.8,8.8C3.5,10,3.6,10,3.6,10s0.1,0,0.1-0.1
		L5,4.6c0-0.2,0.2-0.3,0.4-0.3h1.1c0.2,0,0.3,0.1,0.4,0.3L8,9.8z"/>
	<path d="M15.3,5.8c0,0.1,0.1,0.2,0.2,0.2h4.7c0.1,0,0.2,0,0.3,0.1c0.1,0.1,0.1,0.1,0.1,0.2v1c0,0.1,0,0.2-0.1,0.2
		c-0.1,0.1-0.2,0.1-0.3,0.1h-4.7c-0.1,0-0.2,0.1-0.2,0.2v3.4c0,0.1,0.1,0.2,0.2,0.2h4.9c0.1,0,0.2,0,0.3,0.1
		c0.1,0.1,0.1,0.2,0.1,0.2v1c0,0.1,0,0.2-0.1,0.2C20.6,13,20.5,13,20.4,13h-6.6c-0.1,0-0.2,0-0.3-0.1s-0.1-0.1-0.1-0.2V1.2
		c0-0.1,0-0.2,0.1-0.2c0.1-0.1,0.2-0.1,0.3-0.1h6.6c0.1,0,0.2,0,0.3,0.1c0.1,0.1,0.1,0.1,0.1,0.2v1c0,0.1,0,0.2-0.1,0.2
		c-0.1,0.1-0.2,0.1-0.3,0.1h-4.9c-0.1,0-0.2,0.1-0.2,0.2C15.3,2.7,15.3,5.8,15.3,5.8z"/>
	<path d="M26,8.1c-0.1,0-0.2,0.1-0.2,0.2v4.3c0,0.1,0,0.2-0.1,0.2c-0.1,0.1-0.2,0.1-0.3,0.1h-1.1c-0.1,0-0.2,0-0.3-0.1
		c0,0,0-0.1,0-0.2V1.2C24,1.1,24,1,24.1,1c0.1-0.1,0.2-0.1,0.3-0.1h3.5c0.6,0,1.1,0.1,1.6,0.3s0.9,0.5,1.3,0.8s0.7,0.7,0.9,1.2
		C31.9,3.5,32,4,32,4.5c0,0.7-0.2,1.3-0.6,1.8s-0.9,1-1.5,1.3c-0.2,0.1-0.3,0.2-0.4,0.3s-0.1,0.2,0,0.4l2.3,4.2
		c0.1,0.1,0.1,0.2,0,0.4c-0.1,0.1-0.2,0.2-0.4,0.2h-1.1c-0.2,0-0.3,0-0.4-0.1s-0.2-0.1-0.2-0.3l-2.3-4.3c0-0.1-0.1-0.1-0.1-0.1
		c-0.1,0-0.1-0.1-0.2-0.1L26,8.1L26,8.1z M26,2.5c-0.1,0-0.2,0.1-0.2,0.2v3.6c0,0.1,0.1,0.2,0.2,0.2h1.9c0.3,0,0.6-0.1,0.9-0.2
		s0.5-0.2,0.7-0.4c0.2-0.2,0.4-0.4,0.5-0.6s0.2-0.5,0.2-0.8S30.1,4,30,3.7c-0.1-0.2-0.3-0.4-0.5-0.6S29,2.8,28.8,2.7
		c-0.3-0.1-0.6-0.2-0.9-0.2C27.9,2.5,26,2.5,26,2.5z"/>
	<path d="M37,5.8C37,5.9,37.1,6,37.2,6h4.7c0.1,0,0.2,0,0.3,0.1s0.1,0.1,0.1,0.2v1c0,0.1,0,0.2-0.1,0.2c-0.1,0.1-0.2,0.1-0.3,0.1
		h-4.7c-0.1,0-0.2,0.1-0.2,0.2v3.4c0,0.1,0.1,0.2,0.2,0.2h4.9c0.1,0,0.2,0,0.3,0.1s0.1,0.2,0.1,0.2v1c0,0.1,0,0.2-0.1,0.2
		C42.3,13,42.2,13,42.1,13h-6.6c-0.1,0-0.2,0-0.3-0.1s-0.1-0.1-0.1-0.2V1.2c0-0.1,0-0.2,0.1-0.2c0.1-0.1,0.2-0.1,0.3-0.1h6.6
		c0.1,0,0.2,0,0.3,0.1s0.1,0.1,0.1,0.2v1c0,0.1,0,0.2-0.1,0.2c-0.1,0.1-0.2,0.1-0.3,0.1h-4.9c-0.1,0-0.2,0.1-0.2,0.2V5.8z"/>
	<path d="M48.1,11.2c0,0.1,0.1,0.2,0.2,0.2h4.8c0.1,0,0.2,0,0.3,0.1s0.1,0.2,0.1,0.2v1c0,0.1,0,0.2-0.1,0.2C53.3,13,53.2,13,53.1,13
		h-6.5c-0.1,0-0.2,0-0.3-0.1s-0.1-0.1-0.1-0.2V1.2c0-0.1,0-0.2,0.1-0.2c0.1-0.1,0.2-0.1,0.3-0.1h1.1c0.1,0,0.2,0,0.3,0.1
		s0.1,0.1,0.1,0.2C48.1,1.2,48.1,11.2,48.1,11.2z"/>
	<path d="M56.5,13c-0.1,0-0.2,0-0.3-0.1s-0.1-0.1-0.1-0.2V1.2c0-0.1,0-0.2,0.1-0.2c0.1-0.1,0.2-0.1,0.3-0.1h3.7
		c0.6,0,1.1,0.1,1.6,0.3s0.9,0.5,1.3,0.8c0.4,0.3,0.6,0.7,0.9,1.2c0.2,0.4,0.4,0.9,0.4,1.4c0.1,0.3,0.1,0.7,0.1,1.2
		c0,0.4,0,0.9,0,1.3s0,0.9,0,1.3c0,0.4-0.1,0.8-0.1,1.1c-0.1,0.5-0.2,1-0.4,1.4c-0.2,0.4-0.5,0.8-0.9,1.2c-0.4,0.3-0.8,0.6-1.3,0.8
		s-1,0.3-1.6,0.3h-3.7V13z M60.3,11.3c0.3,0,0.6-0.1,0.8-0.2c0.3-0.1,0.5-0.3,0.7-0.4c0.2-0.2,0.4-0.4,0.5-0.6
		c0.1-0.2,0.2-0.5,0.2-0.8c0.1-0.3,0.1-0.7,0.1-1.1c0-0.4,0-0.8,0-1.3c0-0.4,0-0.9,0-1.3s-0.1-0.8-0.1-1.2c0-0.3-0.1-0.5-0.2-0.7
		c-0.1-0.2-0.3-0.5-0.5-0.6c-0.2-0.2-0.4-0.3-0.7-0.4c-0.3-0.1-0.5-0.2-0.8-0.2h-2.1c-0.2,0-0.2,0-0.2,0.1v8.5
		c0,0.1,0.1,0.2,0.2,0.2H60.3z"/>
	<path d="M70.9,6.1C70.9,6.2,70.9,6.2,70.9,6.1c0.1,0.1,0.2,0,0.2,0l1.6-5c0.1-0.2,0.2-0.3,0.4-0.3h2c0.1,0,0.2,0,0.3,0.1
		C75.5,1,75.5,1,75.5,1.1v11.4c0,0.1,0,0.2-0.1,0.2C75.2,12.9,75.1,13,75,13h-1c-0.1,0-0.2,0-0.3-0.1c-0.1-0.1-0.1-0.1-0.1-0.2V3.6
		c0-0.1,0-0.1-0.1-0.1s-0.1,0-0.1,0.1l-1.6,4.8c-0.1,0.2-0.2,0.3-0.4,0.3h-1c-0.2,0-0.3-0.1-0.4-0.3l-1.6-4.8c0-0.1-0.1-0.1-0.1-0.1
		c-0.1,0-0.1,0-0.1,0.1v9.1c0,0.1,0,0.2-0.1,0.2c0,0-0.1,0.1-0.2,0.1H67c-0.1,0-0.2,0-0.3-0.1c-0.1-0.1-0.1-0.1-0.1-0.2V1.2
		c0-0.1,0-0.2,0.1-0.2c0.1-0.1,0.2-0.1,0.3-0.1h2c0.2,0,0.3,0.1,0.4,0.3L70.9,6.1z"/>
	<path d="M79.3,9.5c0,0.3,0.1,0.6,0.2,0.9c0.1,0.2,0.3,0.5,0.6,0.6c0.2,0.2,0.5,0.3,0.8,0.3c0.3,0.1,0.6,0.1,0.9,0.1
		c0.4,0,0.7,0,1-0.1s0.6-0.2,0.8-0.4c0.2-0.2,0.4-0.4,0.5-0.6c0.1-0.2,0.2-0.5,0.2-0.8V1.2c0-0.1,0-0.2,0.1-0.2
		c0.1-0.1,0.2-0.1,0.3-0.1h1.1c0.1,0,0.2,0,0.3,0.1c0.1,0.1,0.1,0.1,0.1,0.2v8.3c0,0.5-0.1,1-0.4,1.4c-0.2,0.4-0.6,0.8-1,1.1
		s-0.9,0.6-1.4,0.8s-1.1,0.3-1.7,0.3s-1.2-0.1-1.8-0.3c-0.5-0.2-1-0.4-1.4-0.8c-0.4-0.3-0.7-0.7-0.9-1.1c-0.2-0.4-0.3-0.9-0.3-1.4
		V1.2c0-0.1,0-0.2,0.1-0.2c0.1-0.1,0.2-0.1,0.3-0.1h1.1c0.1,0,0.2,0,0.3,0.1c0.1,0.1,0.1,0.1,0.1,0.2v8.3H79.3z"/>
	<path d="M95.2,9.5c0-0.4-0.1-0.7-0.2-1c-0.2-0.2-0.4-0.4-0.7-0.6c-0.3-0.2-0.6-0.3-1-0.4s-0.9-0.2-1.4-0.3c-0.5,0-0.9-0.2-1.3-0.3
		c-0.4-0.2-0.7-0.4-1-0.7c-0.3-0.3-0.5-0.6-0.7-1S88.6,4.4,88.6,4c0-0.5,0.1-1,0.3-1.4c0.2-0.4,0.5-0.7,0.9-1s0.8-0.5,1.3-0.6
		s1-0.2,1.5-0.2c0.6,0,1.1,0.1,1.6,0.3s0.9,0.4,1.3,0.7s0.6,0.6,0.8,1c0.2,0.4,0.3,0.8,0.3,1.3v0.2c0,0.1,0,0.2-0.1,0.2
		c-0.1,0.1-0.2,0.1-0.3,0.1h-1.1c-0.1,0-0.2,0-0.3-0.1c-0.1-0.1-0.1-0.1-0.1-0.2V4c0-0.3-0.1-0.5-0.2-0.7S94.2,2.9,94,2.8
		s-0.4-0.2-0.7-0.3c-0.3-0.1-0.5-0.1-0.8-0.1c-0.6,0-1.2,0.1-1.6,0.4S90.3,3.5,90.3,4c0,0.4,0.1,0.7,0.3,0.9
		c0.2,0.2,0.4,0.4,0.7,0.5c0.3,0.1,0.6,0.2,1,0.3c0.3,0.1,0.7,0.1,1,0.2c1.1,0.2,2,0.7,2.7,1.2c0.7,0.6,1,1.4,1,2.4
		c0,0.6-0.1,1.1-0.4,1.5c-0.2,0.4-0.6,0.8-1,1.1s-0.9,0.6-1.4,0.7c-0.5,0.2-1.1,0.3-1.7,0.3s-1.2-0.1-1.8-0.3
		c-0.5-0.2-1-0.5-1.4-0.8s-0.7-0.7-0.9-1.1c-0.2-0.4-0.3-0.9-0.3-1.4V9.2c0-0.1,0-0.2,0.1-0.2c0.1-0.1,0.2-0.1,0.3-0.1h1.1
		c0.1,0,0.2,0,0.3,0.1C90,9.1,90,9.1,90,9.2v0.3c0,0.3,0.1,0.5,0.2,0.8c0.1,0.2,0.3,0.5,0.5,0.6c0.2,0.2,0.5,0.3,0.8,0.4
		c0.3,0.1,0.6,0.1,1,0.1s0.7,0,1-0.1s0.6-0.2,0.8-0.4c0.2-0.2,0.4-0.4,0.5-0.6C95.1,10,95.2,9.8,95.2,9.5z"/>
	<path d="M102.1,5.8c0,0.1,0.1,0.2,0.2,0.2h4.7c0.1,0,0.2,0,0.3,0.1c0.1,0.1,0.1,0.1,0.1,0.2v1c0,0.1,0,0.2-0.1,0.2
		c-0.1,0.1-0.2,0.1-0.3,0.1h-4.7c-0.1,0-0.2,0.1-0.2,0.2v3.4c0,0.1,0.1,0.2,0.2,0.2h4.9c0.1,0,0.2,0,0.3,0.1
		c0.1,0.1,0.1,0.2,0.1,0.2v1c0,0.1,0,0.2-0.1,0.2c-0.1,0.1-0.2,0.1-0.3,0.1h-6.6c-0.1,0-0.2,0-0.3-0.1c-0.1-0.1-0.1-0.1-0.1-0.2V1.2
		c0-0.1,0-0.2,0.1-0.2c0.1-0.1,0.2-0.1,0.3-0.1h6.6c0.1,0,0.2,0,0.3,0.1c0.1,0.1,0.1,0.1,0.1,0.2v1c0,0.1,0,0.2-0.1,0.2
		c-0.1,0.1-0.2,0.1-0.3,0.1h-4.9c-0.1,0-0.2,0.1-0.2,0.2V5.8z"/>
	<path d="M111.8,9.5c0,0.3,0.1,0.6,0.2,0.9c0.1,0.2,0.3,0.5,0.6,0.6c0.2,0.2,0.5,0.3,0.8,0.3c0.3,0.1,0.6,0.1,0.9,0.1
		c0.4,0,0.7,0,1-0.1s0.6-0.2,0.8-0.4c0.2-0.2,0.4-0.4,0.5-0.6c0.1-0.2,0.2-0.5,0.2-0.8V1.2c0-0.1,0-0.2,0.1-0.2
		c0.1-0.1,0.2-0.1,0.3-0.1h1.1c0.1,0,0.2,0,0.3,0.1c0.1,0.1,0.1,0.1,0.1,0.2v8.3c0,0.5-0.1,1-0.4,1.4c-0.2,0.4-0.6,0.8-1,1.1
		s-0.9,0.6-1.4,0.8s-1.1,0.3-1.7,0.3s-1.2-0.1-1.8-0.3c-0.5-0.2-1-0.4-1.4-0.8c-0.4-0.3-0.7-0.7-0.9-1.1c-0.2-0.4-0.3-0.9-0.3-1.4
		V1.2c0-0.1,0-0.2,0.1-0.2c0.1-0.1,0.2-0.1,0.3-0.1h1.1c0.1,0,0.2,0,0.3,0.1c0.1,0.1,0.1,0.1,0.1,0.2v8.3H111.8z"/>
	<path d="M125.1,6.1C125.1,6.2,125.1,6.2,125.1,6.1c0.1,0.1,0.2,0,0.2,0l1.6-5c0.1-0.2,0.2-0.3,0.4-0.3h2c0.1,0,0.2,0,0.3,0.1
		s0.1,0.1,0.1,0.2v11.4c0,0.1,0,0.2-0.1,0.2c-0.1,0.1-0.2,0.1-0.3,0.1h-0.9c-0.1,0-0.2,0-0.3-0.1c-0.1-0.1-0.1-0.1-0.1-0.2V3.6
		c0-0.1,0-0.1-0.1-0.1s-0.1,0-0.1,0.1l-1.6,4.8c-0.1,0.2-0.2,0.3-0.4,0.3h-1c-0.2,0-0.3-0.1-0.4-0.3l-1.6-4.8c0-0.1-0.1-0.1-0.1-0.1
		c-0.1,0-0.1,0-0.1,0.1v9.1c0,0.1,0,0.2-0.1,0.2c-0.1,0.1-0.2,0.1-0.3,0.1h-0.9c-0.1,0-0.2,0-0.3-0.1c-0.1-0.1-0.1-0.1-0.1-0.2V1.2
		c0-0.1,0-0.2,0.1-0.2c0.1-0.1,0.2-0.1,0.3-0.1h2c0.2,0,0.3,0.1,0.4,0.3L125.1,6.1z"/>
	<path d="M145.3,8.1c-0.1,0-0.2,0.1-0.2,0.2v4.3c0,0.1,0,0.2-0.1,0.2c-0.1,0.1-0.2,0.1-0.3,0.1h-1.1c-0.1,0-0.2,0-0.3-0.1
		s-0.1-0.1-0.1-0.2V1.2c0-0.1,0-0.2,0.1-0.2c0.1-0.1,0.2-0.1,0.3-0.1h3.5c0.6,0,1.1,0.1,1.6,0.3s0.9,0.5,1.3,0.8
		c0.4,0.3,0.7,0.7,0.9,1.2c0.2,0.4,0.3,0.9,0.3,1.4c0,0.7-0.2,1.3-0.6,1.8s-0.9,1-1.5,1.3c-0.2,0.1-0.3,0.2-0.4,0.3
		c-0.1,0.1-0.1,0.2,0,0.4l2.3,4.2c0.1,0.1,0.1,0.2,0,0.4c-0.1,0.1-0.2,0.2-0.4,0.2h-1.1c-0.2,0-0.3,0-0.4-0.1
		c-0.1-0.1-0.2-0.1-0.2-0.3l-2.3-4.3c0-0.1-0.1-0.1-0.1-0.1c-0.1,0-0.1-0.1-0.2-0.1h-1V8.1z M145.3,2.5c-0.1,0-0.2,0.1-0.2,0.2v3.6
		c0,0.1,0.1,0.2,0.2,0.2h1.9c0.3,0,0.6-0.1,0.9-0.2c0.3-0.1,0.5-0.2,0.7-0.4c0.2-0.2,0.4-0.4,0.5-0.6s0.2-0.5,0.2-0.8
		s-0.1-0.5-0.2-0.8c-0.1-0.2-0.3-0.4-0.5-0.6s-0.5-0.3-0.7-0.4c-0.3-0.1-0.6-0.2-0.9-0.2C147.2,2.5,145.3,2.5,145.3,2.5z"/>
	<path d="M157.7,0.7c0.6,0,1.1,0.1,1.6,0.3s1,0.4,1.3,0.7c0.4,0.3,0.7,0.7,1,1.1c0.2,0.4,0.4,0.9,0.5,1.5c0.1,0.3,0.1,0.7,0.1,1.2
		s0,0.9,0,1.4s0,0.9,0,1.4s-0.1,0.9-0.1,1.2c-0.1,0.5-0.2,0.9-0.4,1.4c-0.2,0.4-0.5,0.8-0.9,1.2c-0.4,0.3-0.8,0.6-1.3,0.8
		s-1.1,0.3-1.8,0.3c-0.6,0-1.1-0.1-1.6-0.3s-1-0.4-1.3-0.7c-0.4-0.3-0.7-0.7-1-1.1c-0.2-0.4-0.4-0.9-0.5-1.5
		c-0.1-0.3-0.1-0.7-0.1-1.2s0-0.9,0-1.4s0-0.9,0-1.4s0.1-0.9,0.1-1.2c0.1-0.5,0.2-0.9,0.4-1.4c0.2-0.4,0.5-0.8,0.9-1.2
		s0.8-0.6,1.3-0.8C156.5,0.8,157,0.7,157.7,0.7z M157.7,2.3c-0.6,0-1.2,0.2-1.7,0.5s-0.8,0.8-0.9,1.5C155,4.7,155,5.1,155,5.5
		c0,0.5,0,0.9,0,1.4s0,0.9,0,1.4s0.1,0.9,0.1,1.2s0.1,0.5,0.2,0.7c0.1,0.2,0.3,0.4,0.5,0.6c0.2,0.2,0.5,0.3,0.8,0.4
		c0.3,0.1,0.6,0.2,1,0.2c0.7,0,1.2-0.2,1.7-0.5s0.8-0.8,0.9-1.4c0.1-0.4,0.1-0.8,0.1-1.2c0-0.5,0-0.9,0-1.4s0-0.9,0-1.4
		s-0.1-0.9-0.1-1.2c0-0.3-0.1-0.5-0.2-0.7c-0.1-0.2-0.3-0.4-0.5-0.6s-0.5-0.3-0.8-0.4C158.4,2.4,158.1,2.3,157.7,2.3z"/>
	<path d="M164.8,2.5c-0.1,0-0.2,0-0.3-0.1s-0.1-0.1-0.1-0.2v-1c0-0.1,0-0.2,0.1-0.2c0.1-0.1,0.2-0.1,0.3-0.1h7.5
		c0.1,0,0.2,0,0.3,0.1s0.1,0.1,0.1,0.2v1c0,0.1,0,0.2-0.1,0.2c-0.1,0.1-0.2,0.1-0.3,0.1h-2.6c-0.1,0-0.2,0.1-0.2,0.2v10
		c0,0.1,0,0.2-0.1,0.2c-0.1,0.1-0.2,0.1-0.3,0.1H168c-0.1,0-0.2,0-0.3-0.1s-0.1-0.1-0.1-0.2v-10c0-0.1-0.1-0.2-0.2-0.2
		C167.4,2.5,164.8,2.5,164.8,2.5z"/>
	<path d="M175.6,2.5c-0.1,0-0.2,0-0.3-0.1s-0.1-0.1-0.1-0.2v-1c0-0.1,0-0.2,0.1-0.2c0.1-0.1,0.2-0.1,0.3-0.1h7.5
		c0.1,0,0.2,0,0.3,0.1s0.1,0.1,0.1,0.2v1c0,0.1,0,0.2-0.1,0.2c-0.1,0.1-0.2,0.1-0.3,0.1h-2.6c-0.1,0-0.2,0.1-0.2,0.2v10
		c0,0.1,0,0.2-0.1,0.2c-0.1,0.1-0.2,0.1-0.3,0.1h-1.1c-0.1,0-0.2,0-0.3-0.1s-0.1-0.1-0.1-0.2v-10c0-0.1-0.1-0.2-0.2-0.2
		C178.2,2.5,175.6,2.5,175.6,2.5z"/>
	<path d="M188.8,5.8c0,0.1,0.1,0.2,0.2,0.2h4.7c0.1,0,0.2,0,0.3,0.1s0.1,0.1,0.1,0.2v1c0,0.1,0,0.2-0.1,0.2
		c-0.1,0.1-0.2,0.1-0.3,0.1H189c-0.1,0-0.2,0.1-0.2,0.2v3.4c0,0.1,0.1,0.2,0.2,0.2h4.9c0.1,0,0.2,0,0.3,0.1s0.1,0.2,0.1,0.2v1
		c0,0.1,0,0.2-0.1,0.2c-0.1,0.1-0.2,0.1-0.3,0.1h-6.6c-0.1,0-0.2,0-0.3-0.1s-0.1-0.1-0.1-0.2V1.2c0-0.1,0-0.2,0.1-0.2
		c0.1-0.1,0.2-0.1,0.3-0.1h6.6c0.1,0,0.2,0,0.3,0.1s0.1,0.1,0.1,0.2v1c0,0.1,0,0.2-0.1,0.2c-0.1,0.1-0.2,0.1-0.3,0.1H189
		c-0.1,0-0.2,0.1-0.2,0.2V5.8z"/>
	<path d="M199.5,8.1c-0.1,0-0.2,0.1-0.2,0.2v4.3c0,0.1,0,0.2-0.1,0.2c-0.1,0.1-0.2,0.1-0.3,0.1h-1.1c-0.1,0-0.2,0-0.3-0.1
		s-0.1-0.1-0.1-0.2V1.2c0-0.1,0-0.2,0.1-0.2c0.1-0.1,0.2-0.1,0.3-0.1h3.5c0.6,0,1.1,0.1,1.6,0.3s0.9,0.5,1.3,0.8
		c0.4,0.3,0.7,0.7,0.9,1.2c0.2,0.4,0.3,0.9,0.3,1.4c0,0.7-0.2,1.3-0.6,1.8c-0.4,0.5-0.9,1-1.5,1.3c-0.2,0.1-0.3,0.2-0.4,0.3
		c-0.1,0.1-0.1,0.2,0,0.4l2.3,4.2c0.1,0.1,0.1,0.2,0,0.4c-0.1,0.1-0.2,0.2-0.4,0.2H204c-0.2,0-0.3,0-0.4-0.1
		c-0.1-0.1-0.2-0.1-0.2-0.3l-2.3-4.3c0-0.1-0.1-0.1-0.1-0.1c-0.1,0-0.1-0.1-0.2-0.1h-1.3V8.1z M199.5,2.5c-0.1,0-0.2,0.1-0.2,0.2
		v3.6c0,0.1,0.1,0.2,0.2,0.2h1.9c0.3,0,0.6-0.1,0.9-0.2c0.3-0.1,0.5-0.2,0.7-0.4c0.2-0.2,0.4-0.4,0.5-0.6s0.2-0.5,0.2-0.8
		s-0.1-0.5-0.2-0.8c-0.1-0.2-0.3-0.4-0.5-0.6s-0.5-0.3-0.7-0.4c-0.3-0.1-0.6-0.2-0.9-0.2C201.4,2.5,199.5,2.5,199.5,2.5z"/>
	<path d="M208.3,13c-0.1,0-0.2,0-0.3-0.1s-0.1-0.1-0.1-0.2V1.2c0-0.1,0-0.2,0.1-0.2c0.1-0.1,0.2-0.1,0.3-0.1h3.7
		c0.6,0,1.1,0.1,1.6,0.3s0.9,0.5,1.3,0.8c0.4,0.3,0.6,0.7,0.9,1.2c0.2,0.4,0.4,0.9,0.4,1.4c0.1,0.3,0.1,0.7,0.1,1.2
		c0,0.4,0,0.9,0,1.3s0,0.9,0,1.3c0,0.4-0.1,0.8-0.1,1.1c-0.1,0.5-0.2,1-0.4,1.4s-0.5,0.8-0.9,1.2c-0.4,0.3-0.8,0.6-1.3,0.8
		s-1,0.3-1.6,0.3h-3.7V13z M212,11.3c0.3,0,0.6-0.1,0.8-0.2c0.3-0.1,0.5-0.3,0.7-0.4c0.2-0.2,0.4-0.4,0.5-0.6
		c0.1-0.2,0.2-0.5,0.2-0.8c0.1-0.3,0.1-0.7,0.1-1.1c0-0.4,0-0.8,0-1.3c0-0.4,0-0.9,0-1.3s-0.1-0.8-0.1-1.2c0-0.3-0.1-0.5-0.2-0.7
		c-0.1-0.2-0.3-0.5-0.5-0.6c-0.2-0.2-0.4-0.3-0.7-0.4c-0.3-0.1-0.5-0.2-0.8-0.2h-2c-0.1,0-0.2,0.1-0.2,0.2v8.5
		c0,0.1,0.1,0.2,0.2,0.2L212,11.3L212,11.3z"/>
	<path d="M219.9,12.7c-0.1,0.2-0.2,0.3-0.4,0.3h-1.1c-0.2,0-0.3,0-0.3-0.1c-0.1-0.1-0.1-0.2-0.1-0.2l3.7-11.5c0-0.2,0.2-0.3,0.4-0.3
		h1.4c0.2,0,0.3,0.1,0.4,0.3l3.7,11.5c0,0.1,0,0.2-0.1,0.2c-0.1,0.1-0.2,0.1-0.3,0.1H226c-0.2,0-0.3-0.1-0.4-0.3l-0.9-2.7
		c0-0.2-0.2-0.2-0.4-0.2H221c-0.2,0-0.3,0.1-0.4,0.2L219.9,12.7z M221.4,8c0,0.1,0,0.2,0.2,0.2h2.4c0.1,0,0.2-0.1,0.2-0.2l-1.3-4.8
		c0-0.1-0.1-0.1-0.1-0.1l0,0c0,0-0.1,0-0.1,0.1L221.4,8z"/>
	<path d="M233.5,6.1C233.5,6.2,233.5,6.2,233.5,6.1c0.1,0.1,0.2,0,0.2,0l1.6-5c0.1-0.2,0.2-0.3,0.4-0.3h2c0.1,0,0.2,0,0.3,0.1
		c0,0.1,0,0.2,0,0.3v11.4c0,0.1,0,0.2-0.1,0.2c-0.1,0.1-0.2,0.1-0.3,0.1h-0.9c-0.1,0-0.2,0-0.3-0.1s-0.1-0.1-0.1-0.2v-9
		c0-0.1,0-0.1-0.1-0.1s-0.1,0-0.1,0.1l-1.6,4.8c-0.1,0.2-0.2,0.3-0.4,0.3h-1c-0.2,0-0.3-0.1-0.4-0.3l-1.6-4.8c0-0.1-0.1-0.1-0.1-0.1
		c-0.1,0-0.1,0-0.1,0.1v9.1c0,0.1,0,0.2-0.1,0.2c-0.1,0.1-0.2,0.1-0.3,0.1h-0.9c-0.1,0-0.2,0-0.3-0.1s-0.1-0.1-0.1-0.2V1.2
		c0-0.1,0-0.2,0.1-0.2c0.1-0.1,0.2-0.1,0.3-0.1h2c0.2,0,0.3,0.1,0.4,0.3L233.5,6.1z"/>
</g>
</svg>
