<?xml version="1.0" encoding="utf-8"?>
<!-- Generator: Adobe Illustrator 24.3.0, SVG Export Plug-In . SVG Version: 6.00 Build 0)  -->
<svg version="1.1" id="Laag_1" xmlns="http://www.w3.org/2000/svg" xmlns:xlink="http://www.w3.org/1999/xlink" x="0px" y="0px"
	 width="54.4px" height="52.2px" viewBox="0 0 54.4 52.2" style="enable-background:new 0 0 54.4 52.2;" xml:space="preserve">
<g>
	<path d="M0,4.6c0-0.8,0.1-1.5,0.3-2.1C0.4,1.9,0.7,1.4,1,1c0.3-0.4,0.7-0.6,1.1-0.8S3,0,3.6,0C4,0,4.4,0.1,4.8,0.2s0.7,0.3,1,0.5
		C6,0.9,6.3,1.2,6.5,1.5C6.7,1.9,6.8,2.3,7,2.8c0.1,0.5,0.2,1.1,0.2,1.7c0,0.8-0.1,1.4-0.3,2C6.7,7.1,6.4,7.6,6.1,8S5.4,8.6,5,8.7
		C4.6,8.9,4.1,9,3.6,9C3.2,9,2.8,8.9,2.4,8.8s-0.7-0.3-1-0.5C1.1,8.1,0.9,7.8,0.7,7.5C0.5,7.1,0.3,6.7,0.2,6.2C0.1,5.7,0,5.2,0,4.6z
		 M0.8,4.6C0.8,4.6,0.8,4.6,0.8,4.6c0,0.5,0.1,0.9,0.2,1.3c0.1,0.4,0.4,0.7,0.6,0.9c0.3,0.2,0.6,0.4,0.9,0.5
		c0.3,0.1,0.7,0.1,1.1,0.1c0.4,0,0.8,0,1.1-0.1C5,7.1,5.3,6.9,5.6,6.7C5.8,6.5,6,6.2,6.2,5.9c0.1-0.4,0.2-0.8,0.2-1.3c0,0,0,0,0,0
		c0-0.7-0.3-1.3-0.7-1.7C5.2,2.4,4.5,2.2,3.6,2.2C2.7,2.2,2,2.4,1.5,2.8C1,3.3,0.8,3.8,0.8,4.6z"/>
	<path d="M9.2,8.9V0.1h2l4,7.5V0.1H16v8.8h-1.8l-4.2-7.1v7.1H9.2z"/>
	<path d="M17.7,2.3V0.1h6.1v2.2h-2.6v6.6h-0.9V2.3H17.7z"/>
	<path d="M25.9,8.9V0.1h2.9c0.6,0,1,0.1,1.5,0.2c0.4,0.2,0.8,0.4,1.2,0.8c0.3,0.3,0.6,0.8,0.8,1.4s0.3,1.3,0.3,2
		c0,2.9-1.2,4.3-3.6,4.3H25.9z M26.8,7.1h2.5c0.4,0,0.8-0.1,1.2-0.3s0.7-0.5,0.9-0.9c0.2-0.4,0.4-0.8,0.4-1.3c0-0.7-0.2-1.3-0.7-1.8
		c-0.5-0.5-1.2-0.7-2-0.7h-2.3V7.1z"/>
	<path d="M34.7,8.9V0.1H40v2.2h-4.5v1.8h3.4v1h-3.4v2.2h4.5v1.5H34.7z"/>
	<path d="M42.3,8.9V0.1h0.9V4l3.4-3.8h2.4l-3.8,4.1l3.3,4.7h-1.1l-2.9-4l-1.4,1.5v2.5H42.3z"/>
	<path d="M0.7,23.3v-8.8h0.9v3.4h4.7v-3.4h0.9v8.8H6.2V20H1.5v3.3H0.7z"/>
	<path d="M9.6,23.3v-8.8H15v2.2h-4.5v1.8h3.4v1h-3.4v2.2H15v1.5H9.6z"/>
	<path d="M16.5,16.7v-2.2h6.1v2.2H20v6.6h-0.9v-6.6H16.5z"/>
	<path d="M0.4,37.7v-8.8h2l4,7.5v-7.5h0.9v8.8H5.5l-4.2-7.1v7.1H0.4z"/>
	<path d="M9.3,37.7V36H11v-4.9H9.3v-2.2h4.2v2.2h-1.6V36h1.7v1.7H9.3z"/>
	<path d="M15.4,37.7v-8.8h5.3v2.2h-4.5v1.8h3.4v1h-3.4v2.2h4.5v1.5H15.4z"/>
	<path d="M22.8,34.2v-5.2h0.8v4.3c0,0.9,0.2,1.5,0.5,1.9c0.5,0.5,1.2,0.7,2.2,0.7c0.9,0,1.6-0.2,2.1-0.7c0.3-0.4,0.5-1,0.5-1.8v-4.4
		h0.8v5.2c0,1.2-0.3,2.2-0.9,2.8c-0.6,0.6-1.4,0.9-2.5,0.9c-0.5,0-1-0.1-1.4-0.2s-0.8-0.4-1.1-0.7s-0.5-0.7-0.7-1.1
		C22.9,35.3,22.8,34.8,22.8,34.2z"/>
	<path d="M30.5,28.9h0.9l2.1,7.1l1.9-5.5l0.7,0l1.7,5.4l2-7h1.5l-2.6,8.7h-1.3L36,33.2l-1.6,4.4H33L30.5,28.9z"/>
	<path d="M42.3,37.7v-8.8h5.3v2.2h-4.5v1.8h3.4v1h-3.4v2.2h4.5v1.5H42.3z"/>
	<path d="M0.1,50.6L0.6,49c0.2,0.4,0.6,0.8,1.2,1c0.6,0.3,1.2,0.4,1.9,0.4c0.8,0,1.3-0.1,1.7-0.3s0.6-0.5,0.6-0.8
		c0-0.3-0.2-0.6-0.6-0.8s-1-0.3-1.7-0.4c-0.6,0-1.1-0.1-1.6-0.3c-0.4-0.1-0.7-0.3-1-0.5s-0.4-0.5-0.5-0.8s-0.1-0.6-0.1-1
		c0-0.8,0.3-1.4,0.8-1.9C1.8,43.2,2.6,43,3.6,43c0.8,0,1.4,0.1,2,0.4c0.6,0.3,0.9,0.6,1.2,0.9l-0.4,1.6c-0.3-0.2-0.6-0.4-1.1-0.6
		c-0.5-0.2-1-0.3-1.6-0.3c-0.4,0-0.7,0-1,0.1c-0.3,0.1-0.5,0.2-0.7,0.3c-0.2,0.1-0.3,0.2-0.3,0.4c-0.1,0.1-0.1,0.3-0.1,0.4
		c0,0.1,0,0.3,0.1,0.4c0.1,0.1,0.2,0.2,0.3,0.3c0.2,0.1,0.4,0.2,0.7,0.2c0.3,0.1,0.7,0.1,1.1,0.2c1.2,0.1,2.1,0.4,2.6,0.8
		c0.5,0.4,0.8,1,0.8,1.7c0,0,0,0,0,0c0,0.8-0.3,1.3-0.9,1.7c-0.6,0.4-1.4,0.6-2.5,0.6c-0.8,0-1.6-0.2-2.3-0.5S0.3,51.1,0.1,50.6z"/>
	<path d="M9,52.1v-8.8h5.3v2.2H9.9v1.8h3.4v1H9.9v2.2h4.5v1.5H9z"/>
	<path d="M16.2,52.1v-1.7H18v-4.9h-1.7v-2.2h4.2v2.2h-1.6v4.9h1.7v1.7H16.2z"/>
	<path d="M22.1,52.1v-0.5l4.7-6.1h-4.3v-2.2h6.7v0.4l-5,6.7h4.8v1.7H22.1z"/>
	<path d="M30.8,47.8c0-0.8,0.1-1.5,0.3-2.1c0.2-0.6,0.4-1.1,0.7-1.4c0.3-0.4,0.7-0.6,1.1-0.8s0.9-0.3,1.5-0.3c0.4,0,0.8,0.1,1.2,0.2
		c0.4,0.1,0.7,0.3,1,0.5c0.3,0.2,0.5,0.5,0.8,0.9c0.2,0.4,0.4,0.8,0.5,1.3s0.2,1.1,0.2,1.7c0,0.8-0.1,1.4-0.3,2
		c-0.2,0.6-0.4,1-0.7,1.4c-0.3,0.4-0.7,0.6-1.1,0.8c-0.4,0.2-0.9,0.3-1.4,0.3c-0.4,0-0.8-0.1-1.2-0.2c-0.4-0.1-0.7-0.3-1-0.5
		c-0.3-0.2-0.6-0.5-0.8-0.9c-0.2-0.3-0.4-0.8-0.5-1.3S30.8,48.4,30.8,47.8z M31.6,47.8C31.6,47.8,31.6,47.8,31.6,47.8
		c0,0.5,0.1,0.9,0.2,1.3c0.1,0.4,0.4,0.7,0.6,0.9c0.3,0.2,0.6,0.4,0.9,0.5s0.7,0.1,1.1,0.1c0.4,0,0.8,0,1.1-0.1
		c0.3-0.1,0.6-0.2,0.9-0.5c0.3-0.2,0.5-0.5,0.6-0.9c0.1-0.4,0.2-0.8,0.2-1.3c0,0,0,0,0,0c0-0.7-0.3-1.3-0.7-1.7
		c-0.5-0.4-1.2-0.7-2.1-0.7c-0.9,0-1.6,0.2-2.1,0.7C31.8,46.5,31.6,47,31.6,47.8z"/>
	<path d="M39.9,52.1v-8.8h5.3v2.2h-4.5v1.8h3.4v1h-3.4v2.2h4.5v1.5H39.9z"/>
	<path d="M47.6,52.1v-8.8h2l4,7.5v-7.5h0.9v8.8h-1.8L48.5,45v7.1H47.6z"/>
</g>
</svg>
