<?xml version="1.0" encoding="utf-8"?>
<!-- Generator: Adobe Illustrator 24.0.0, SVG Export Plug-In . SVG Version: 6.00 Build 0)  -->
<svg version="1.1" id="Laag_1" xmlns="http://www.w3.org/2000/svg" xmlns:xlink="http://www.w3.org/1999/xlink" x="0px" y="0px"
	 width="124.4px" height="26.7px" viewBox="0 0 124.4 26.7" style="enable-background:new 0 0 124.4 26.7;" xml:space="preserve">
<style type="text/css">
	.st0{fill:#FFFFFF;}
</style>
<g>
	<path class="st0" d="M15.2,7.2H19c2,0,3.5,1.5,3.5,3.5s-1.5,3.4-3.5,3.4h-1.9v3h-2V7.2z M19,12.1c0.9,0,1.5-0.6,1.5-1.5
		c0-0.9-0.5-1.5-1.5-1.5h-1.9v2.9H19z"/>
	<path class="st0" d="M25.5,17h-1.9V7.2h1.9V17z"/>
	<path class="st0" d="M30.1,9.8c2.1,0,3.1,0.9,3.1,2.9v4.4h-1.9v-1c-0.5,0.7-1.2,1.1-2.2,1.1c-1.4,0-2.4-0.9-2.4-2.2
		c0-1.2,0.9-2.1,2.3-2.2l1.9-0.2c0.3,0,0.4-0.1,0.4-0.3v-0.1c0-0.5-0.4-0.7-1.2-0.7c-0.9,0-1.5,0.3-1.8,0.9l-1.4-1
		C27.4,10.4,28.5,9.8,30.1,9.8z M29.6,14.1c-0.5,0.1-0.9,0.4-0.9,0.8c0,0.5,0.4,0.8,1,0.8c0.9,0,1.6-0.6,1.6-1.5v-0.3L29.6,14.1z"/>
	<path class="st0" d="M34.8,10h1.8v1.1c0.5-0.8,1.4-1.2,2.3-1.2c1.6,0,2.5,1,2.5,2.8V17h-1.9v-3.9c0-1-0.5-1.5-1.3-1.5
		c-1,0-1.5,0.7-1.5,2.1V17h-1.9V10z"/>
	<path class="st0" d="M45.7,19.9v-1.7c0.1,0,0.2,0,0.3,0c1,0,1.3-0.4,1.3-1.1V10h1.9v7.3c0,1.9-1.1,2.7-2.9,2.7
		C46.1,19.9,45.9,19.9,45.7,19.9z M47,8c0-0.7,0.5-1.2,1.2-1.2c0.7,0,1.2,0.5,1.2,1.2c0,0.7-0.5,1.2-1.2,1.2C47.5,9.2,47,8.6,47,8z"
		/>
	<path class="st0" d="M54.1,9.8c2.2,0,3.5,1.5,3.5,3.8v0.5h-5.2l0,0c0.2,0.9,1.1,1.4,1.9,1.4c0.8,0,1.5-0.3,2-0.7l0.8,1.5
		c-0.6,0.5-1.5,0.9-2.8,0.9c-2.4,0-3.8-1.6-3.8-3.7C50.5,11.4,51.9,9.8,54.1,9.8z M54.1,11.4c-0.9,0-1.5,0.5-1.7,1.3h3.2
		C55.5,12,55,11.4,54.1,11.4z"/>
	<path class="st0" d="M64.7,11c0.5-0.8,1.4-1.2,2.4-1.2c1.9,0,3.2,1.5,3.2,3.7c0,2.2-1.3,3.7-3.2,3.7c-1,0-1.8-0.4-2.3-1.2v1h-1.9
		V7.2h1.9V11z M66.5,11.6c-1.1,0-1.8,0.7-1.8,1.9s0.8,1.9,1.8,1.9c1.1,0,1.8-0.8,1.8-1.9C68.3,12.4,67.5,11.6,66.5,11.6z"/>
	<path class="st0" d="M74.6,9.8c2.2,0,3.5,1.5,3.5,3.8v0.5h-5.2l0,0c0.2,0.9,1.1,1.4,1.9,1.4c0.8,0,1.5-0.3,2-0.7l0.8,1.5
		c-0.6,0.5-1.5,0.9-2.8,0.9c-2.4,0-3.8-1.6-3.8-3.7C71,11.4,72.4,9.8,74.6,9.8z M74.5,11.4c-0.9,0-1.5,0.5-1.7,1.3h3.2
		C76,12,75.4,11.4,74.5,11.4z"/>
	<path class="st0" d="M84.9,11.4l-3.6,3.9H85V17h-6.2v-1.5l3.5-3.9H79V10h5.9V11.4z"/>
	<path class="st0" d="M89.5,9.8c2.2,0,3.8,1.5,3.8,3.7c0,2.2-1.6,3.7-3.8,3.7c-2.2,0-3.8-1.5-3.8-3.7C85.7,11.3,87.3,9.8,89.5,9.8z
		 M89.5,11.6c-1.1,0-1.9,0.7-1.9,1.9s0.8,1.9,1.9,1.9c1.1,0,1.9-0.7,1.9-1.9S90.5,11.6,89.5,11.6z"/>
	<path class="st0" d="M97.7,9.8c2.2,0,3.5,1.5,3.5,3.8v0.5h-5.2l0,0c0.2,0.9,1.1,1.4,1.9,1.4c0.8,0,1.5-0.3,2-0.7l0.8,1.5
		c-0.6,0.5-1.5,0.9-2.8,0.9c-2.4,0-3.8-1.6-3.8-3.7C94,11.4,95.4,9.8,97.7,9.8z M97.6,11.4c-0.9,0-1.5,0.5-1.7,1.3h3.2
		C99,12,98.5,11.4,97.6,11.4z"/>
	<path class="st0" d="M104.2,15v2h-1.9V7.2h1.9v5.5l2.6-2.7h2.5l-3,3l3,4h-2.4l-1.9-2.8L104.2,15z"/>
</g>
</svg>
