<?xml version="1.0" encoding="utf-8"?>
<!-- Generator: Adobe Illustrator 24.0.0, SVG Export Plug-In . SVG Version: 6.00 Build 0)  -->
<svg version="1.1" id="Laag_1" xmlns="http://www.w3.org/2000/svg" xmlns:xlink="http://www.w3.org/1999/xlink" x="0px" y="0px"
	 width="69.2px" height="37.4px" viewBox="0 0 69.2 37.4" style="enable-background:new 0 0 69.2 37.4;" xml:space="preserve">
<style type="text/css">
	.st0{fill:#FFFFFF;}
</style>
<g>
	<path class="st0" d="M0.9,0.1h0.8v8.4H0.9V0.1z"/>
	<path class="st0" d="M6.1,2.4c0.2,0,0.4,0,0.6,0v0.8c-0.2,0-0.4-0.1-0.6-0.1c-1.4,0-1.8,1.2-1.8,2.6v2.8H3.5v-6h0.7v1.2
		C4.5,2.8,5.2,2.4,6.1,2.4z"/>
	<path class="st0" d="M7.5,0.7C7.5,0.3,7.8,0,8.2,0c0.4,0,0.7,0.3,0.7,0.7c0,0.4-0.3,0.7-0.7,0.7C7.8,1.3,7.5,1.1,7.5,0.7z M8.5,8.5
		H7.8v-6h0.7V8.5z"/>
	<path class="st0" d="M12.3,2.4c0.9,0,1.8,0.3,2.3,1.2L13.9,4C13.7,3.4,13.1,3,12.2,3c-0.9,0-1.4,0.4-1.5,1c0,0.7,0.7,0.9,1.7,1.1
		c1.2,0.3,2.1,0.5,2.1,1.8c0,1.1-0.8,1.8-2.3,1.8c-1.1,0-2.1-0.4-2.5-1.4l0.6-0.4c0.3,0.8,1.1,1.1,2,1.1c0.9,0,1.5-0.3,1.5-1
		c0-0.8-0.7-0.9-1.5-1.1c-1.1-0.2-2.2-0.5-2.2-1.8C10.1,3,10.9,2.4,12.3,2.4z"/>
	<path class="st0" d="M19.6,0.1h0.8v4.6l4.6-4.6H26l-3.6,3.6l3.6,4.8h-1l-3.2-4.2l-1.5,1.5v2.7h-0.8V0.1z"/>
	<path class="st0" d="M29.6,2.4c1.9,0,2.8,1.4,2.8,3.1v0.2h-5v0.1c0,1.4,1,2.2,2.3,2.2c0.9,0,1.5-0.4,2-0.9L32,7.6
		c-0.5,0.5-1.3,1-2.4,1c-1.8,0-3-1.2-3-3.1C26.6,3.7,27.8,2.4,29.6,2.4z M29.6,3c-1.3,0-2.1,0.8-2.2,2h4.2C31.5,3.9,30.8,3,29.6,3z"
		/>
	<path class="st0" d="M33.6,2.5h0.7v1.3c0.3-0.9,1.1-1.4,2.2-1.4c1.4,0,2.3,1,2.3,2.6v3.6h-0.8V5c0-1.2-0.6-1.9-1.7-1.9
		c-1.4,0-2,1.1-2,2.7v2.8h-0.7V2.5z"/>
	<path class="st0" d="M42.5,2.4c0.9,0,1.8,0.3,2.3,1.2L44.1,4C43.9,3.4,43.3,3,42.5,3C41.5,3,41,3.5,41,4c0,0.7,0.7,0.9,1.7,1.1
		c1.2,0.3,2.1,0.5,2.1,1.8c0,1.1-0.8,1.8-2.3,1.8c-1.1,0-2.1-0.4-2.5-1.4l0.6-0.4c0.3,0.8,1.1,1.1,2,1.1c0.9,0,1.5-0.3,1.5-1
		c0-0.8-0.7-0.9-1.5-1.1c-1.1-0.2-2.2-0.5-2.2-1.8C40.3,3,41.1,2.4,42.5,2.4z"/>
	<path class="st0" d="M53.2,2.4c1.5,0,2.3,0.9,2.3,2.7v3.5h-0.7V4.9c0-1.2-0.6-1.9-1.6-1.9c-1.4,0-2,1.1-2,2.6v2.8h-0.7V4.9
		c0-1.2-0.6-1.9-1.7-1.9c-1.4,0-2,1.1-2,2.7v2.8H46v-6h0.7v1.3c0.3-0.9,1.1-1.4,2.1-1.4c1.1,0,1.8,0.5,2.1,1.6
		C51.3,2.8,52.1,2.4,53.2,2.4z"/>
	<path class="st0" d="M57,0.7C57,0.3,57.2,0,57.6,0c0.4,0,0.7,0.3,0.7,0.7c0,0.4-0.3,0.7-0.7,0.7C57.2,1.3,57,1.1,57,0.7z M58,8.5
		h-0.7v-6H58V8.5z"/>
	<path class="st0" d="M60.6,8.5h-0.8V0.1h0.8V8.5z"/>
	<path class="st0" d="M64.3,7.2l-2.1,3.6l-0.6-0.3l2-3.6L64.3,7.2z"/>
	<path class="st0" d="M6.7,22.9L4.3,20c-0.1,0-0.2,0-0.4,0H1.6v2.9H0.9v-8.4H4c1.7,0,2.8,1.1,2.8,2.8c0,1.2-0.6,2.1-1.7,2.6l2.5,3.1
		H6.7z M3.7,19.3l-0.6-0.8L3.7,18l0.9,1.2c0.8-0.2,1.4-0.9,1.4-1.9c0-1.2-0.8-2-2.1-2H1.6v4H3.7z"/>
	<path class="st0" d="M8.4,15.1c0-0.4,0.3-0.7,0.7-0.7c0.4,0,0.7,0.3,0.7,0.7c0,0.4-0.3,0.7-0.7,0.7C8.7,15.7,8.4,15.5,8.4,15.1z
		 M9.4,22.9H8.7v-6h0.7V22.9z"/>
	<path class="st0" d="M13.9,16.8c0.8,0,1.5,0.3,2.1,0.8l-0.5,0.6c-0.5-0.4-1.1-0.7-1.7-0.7c-1.4,0-2.4,1-2.4,2.4
		c0,1.4,1,2.4,2.3,2.4c0.6,0,1.2-0.2,1.7-0.7l0.4,0.6c-0.6,0.5-1.3,0.8-2.2,0.8c-1.9,0-3.1-1.3-3.1-3.1C10.8,18,12,16.8,13.9,16.8z"
		/>
	<path class="st0" d="M17.9,18.1c0.4-0.9,1.1-1.4,2.2-1.4c1.5,0,2.3,1,2.3,2.6v3.5h-0.8v-3.5c0-1.2-0.6-1.9-1.6-1.9
		c-1.3,0-2,0.9-2,2.7v2.8h-0.7v-8.4h0.7V18.1z"/>
	<path class="st0" d="M26.3,16.8c1.6,0,2.4,0.7,2.4,2.2v3.9h-0.7v-1.2c-0.4,0.8-1.2,1.3-2.2,1.3c-1.2,0-2-0.7-2-1.8
		c0-1,0.7-1.7,1.9-1.8l2-0.2c0.2,0,0.3-0.1,0.3-0.3v-0.2c0-0.9-0.6-1.3-1.6-1.3c-1,0-1.6,0.4-1.8,1.1l-0.7-0.3
		C24.2,17.2,25,16.8,26.3,16.8z M25.8,20.1c-0.8,0.1-1.2,0.5-1.2,1.2c0,0.7,0.5,1.1,1.4,1.1c1.2,0,2.1-0.9,2.1-2v-0.5L25.8,20.1z"/>
	<path class="st0" d="M32.7,16.8c0.2,0,0.4,0,0.6,0v0.8c-0.2,0-0.4-0.1-0.6-0.1c-1.4,0-1.8,1.2-1.8,2.6v2.8h-0.7v-6h0.7v1.2
		C31.2,17.2,31.8,16.8,32.7,16.8z"/>
	<path class="st0" d="M40,22.9h-0.7v-1.2C38.8,22.5,38,23,36.9,23c-1.7,0-2.9-1.3-2.9-3.1c0-1.8,1.2-3.1,2.9-3.1
		c1,0,1.9,0.5,2.4,1.3v-3.6H40V22.9z M34.7,19.9c0,1.5,0.9,2.5,2.3,2.5c1.4,0,2.3-1,2.3-2.5c0-1.5-0.9-2.5-2.3-2.5
		C35.7,17.4,34.7,18.4,34.7,19.9z"/>
	<path class="st0" d="M45.6,14.5h0.8v4.6l4.6-4.6H52l-3.6,3.6l3.6,4.8h-1l-3.2-4.2l-1.5,1.5v2.7h-0.8V14.5z"/>
	<path class="st0" d="M55.7,16.8c1.8,0,3.1,1.3,3.1,3.1c0,1.8-1.3,3.1-3.1,3.1c-1.8,0-3.1-1.3-3.1-3.1
		C52.5,18.1,53.9,16.8,55.7,16.8z M55.7,17.5c-1.4,0-2.4,1-2.4,2.4s0.9,2.4,2.4,2.4c1.4,0,2.4-1,2.4-2.4S57.1,17.5,55.7,17.5z"/>
	<path class="st0" d="M61.7,22.9h-0.7v-5.3h-1.5v-0.6h1.5v-0.4c0-1.6,0.8-2.1,1.8-2.1c0.3,0,0.6,0,0.8,0.1v0.7
		c-0.3,0-0.5-0.1-0.7-0.1c-0.8,0-1.2,0.4-1.2,1.5v0.4h1.8v0.6h-1.8V22.9z"/>
	<path class="st0" d="M64.4,15.1c0-0.4,0.3-0.7,0.7-0.7c0.4,0,0.7,0.3,0.7,0.7c0,0.4-0.3,0.7-0.7,0.7C64.7,15.7,64.4,15.5,64.4,15.1
		z M65.5,22.9h-0.7v-6h0.7V22.9z"/>
	<path class="st0" d="M69.2,21.6l-2.1,3.6l-0.6-0.3l2-3.6L69.2,21.6z"/>
	<path class="st0" d="M6.9,35.5H1.7l-0.8,1.8H0l3.9-8.4h0.8l3.9,8.4H7.8L6.9,35.5z M6.6,34.7l-2.3-4.9L2,34.7H6.6z"/>
	<path class="st0" d="M10.4,35.5v1.8H9.7v-8.4h0.7v5.7l3.2-3.3h1L12,33.9l2.7,3.4h-1l-2.2-2.9L10.4,35.5z"/>
	<path class="st0" d="M15,31.3h0.8l1.9,4.9l2.1-4.9h0.5l2.1,4.9l1.9-4.9h0.8l-2.5,6h-0.6l-2.1-4.8L18,37.3h-0.6L15,31.3z"/>
	<path class="st0" d="M28.5,31.2c1.6,0,2.4,0.7,2.4,2.2v3.9h-0.7v-1.2c-0.4,0.8-1.2,1.3-2.2,1.3c-1.2,0-2-0.7-2-1.8
		c0-1,0.7-1.7,1.9-1.8l2-0.2c0.2,0,0.3-0.1,0.3-0.3v-0.2c0-0.9-0.6-1.3-1.6-1.3c-1,0-1.6,0.4-1.8,1.1l-0.7-0.3
		C26.3,31.6,27.1,31.2,28.5,31.2z M27.9,34.5c-0.8,0.1-1.2,0.5-1.2,1.2c0,0.7,0.5,1.1,1.4,1.1c1.2,0,2.1-0.9,2.1-2v-0.5L27.9,34.5z"
		/>
	<path class="st0" d="M34.3,31.2c0.9,0,1.8,0.3,2.3,1.2l-0.6,0.4c-0.3-0.6-0.9-0.9-1.7-0.9c-0.9,0-1.4,0.4-1.5,1
		c0,0.7,0.7,0.9,1.7,1.1c1.2,0.3,2.1,0.5,2.1,1.8c0,1.1-0.8,1.8-2.3,1.8c-1.1,0-2.1-0.4-2.5-1.4l0.6-0.4c0.3,0.8,1.1,1.1,2,1.1
		c0.9,0,1.5-0.3,1.5-1c0-0.8-0.7-0.9-1.5-1.1c-1.1-0.2-2.2-0.5-2.2-1.8C32.1,31.8,32.9,31.2,34.3,31.2z"/>
	<path class="st0" d="M37.6,29.5c0-0.4,0.3-0.7,0.7-0.7c0.4,0,0.7,0.3,0.7,0.7c0,0.4-0.3,0.7-0.7,0.7C37.8,30.1,37.6,29.9,37.6,29.5
		z M38.6,37.3h-0.7v-6h0.7V37.3z"/>
</g>
</svg>
