<?xml version="1.0" encoding="utf-8"?>
<!-- Generator: Adobe Illustrator 22.1.0, SVG Export Plug-In . SVG Version: 6.00 Build 0)  -->
<svg version="1.1" id="Laag_1" xmlns="http://www.w3.org/2000/svg" xmlns:xlink="http://www.w3.org/1999/xlink" x="0px" y="0px"
	 viewBox="0 0 121.4 77" width="121.4px" height="77px" style="enable-background:new 0 0 121.4 77;" xml:space="preserve">
<style type="text/css">
	.st0{fill:#EAEDE1;}
</style>
<g>
	<path class="st0" d="M2.4,8.5h4.5v1H1.3V0.9h5.4v1H2.4v2.7h3.8v1H2.4V8.5z"/>
	<path class="st0" d="M14.3,9.5H13L11,6l0,0H9.4v3.5H8.3V0.9h2.9c0.9,0,1.5,0.2,2,0.7S14,2.7,14,3.4c0,0.6-0.2,1.1-0.5,1.5
		c-0.3,0.4-0.8,0.7-1.3,0.9L14.3,9.5z M9.4,1.9v3h1.7c0.6,0,1-0.1,1.3-0.4s0.5-0.6,0.5-1.1s-0.2-0.8-0.5-1.1s-0.8-0.4-1.3-0.4H9.4z"
		/>
	<path class="st0" d="M16.9,0.9v8.6h-1.2V0.9H16.9z"/>
	<path class="st0" d="M23.9,9.5l-3.2-3.9h-0.6v3.9H19V0.9h1.1v3.6h0.6l2.9-3.6h1.3L21.7,5v0.1l3.6,4.4H23.9z"/>
	<path class="st0" d="M38.4,0.9h1.1l-1.7,8.6h-1.7L34.4,3h-0.1l-1.7,6.5H31l-1.8-8.6h1.1l1.5,7.2h0.1l1.8-6.6h1.5L37,8.1h0.1
		L38.4,0.9z"/>
	<path class="st0" d="M46.2,0.9h1.2v8.6h-1.1V5.7h-4.2v3.8H41V0.9h1.1v3.7h4.2V0.9H46.2z"/>
	<path class="st0" d="M50.7,0.9v8.6h-1.2V0.9H50.7z"/>
	<path class="st0" d="M53.8,8.5h4.5v1h-5.6V0.9h5.4v1h-4.3v2.7h3.8v1h-3.8V8.5z"/>
	<path class="st0" d="M65.5,0.9h1.1v8.6h-1.2l-4.5-6.7h-0.1v6.7h-1.1V0.9H61l4.4,6.6h0.1V0.9z"/>
	<path class="st0" d="M78.7,9.5h-1.2l-1.1-1.2c-0.4,0.4-0.8,0.8-1.2,1c-0.4,0.2-0.9,0.3-1.4,0.3c-0.7,0-1.2-0.2-1.7-0.6
		c-0.4-0.4-0.7-0.9-0.7-1.5c0-0.5,0.1-1,0.4-1.4c0.5-0.2,0.9-0.6,1.6-1.1c-0.3-0.3-0.5-0.5-0.6-0.6c-0.2-0.2-0.3-0.4-0.4-0.7
		s-0.2-0.6-0.2-0.9c0-0.6,0.2-1,0.6-1.4s0.9-0.6,1.6-0.6S75.6,1,76,1.3c0.4,0.4,0.6,0.8,0.6,1.4c0,0.3,0,0.5-0.1,0.7
		c-0.1,0.2-0.2,0.4-0.4,0.6c-0.2,0.2-0.4,0.4-0.5,0.5c-0.2,0.1-0.4,0.3-0.8,0.6l1.6,1.7l0.9-1.4h1.1l-1.2,1.9c0,0,0,0.1-0.1,0.1
		S77,7.5,77,7.5L78.7,9.5z M73.9,8.7c0.6,0,1.3-0.4,1.9-1.1L74,5.7c-0.5,0.4-0.9,0.7-1.1,1c-0.2,0.2-0.3,0.5-0.3,0.9
		c0,0.3,0.1,0.6,0.4,0.8C73.2,8.5,73.5,8.7,73.9,8.7z M74.4,1.7c-0.4,0-0.6,0.1-0.9,0.3c-0.2,0.2-0.3,0.5-0.3,0.8s0.1,0.5,0.2,0.7
		s0.4,0.5,0.7,0.9c0.4-0.2,0.6-0.4,0.8-0.6s0.3-0.3,0.5-0.5c0.1-0.2,0.2-0.4,0.2-0.6c0-0.3-0.1-0.5-0.4-0.7S74.7,1.7,74.4,1.7z"/>
</g>
<g>
	<path class="st0" d="M5.4,19.7c1.1,0.4,1.7,1.1,1.7,2.2c0,0.8-0.3,1.4-0.8,1.8s-1.2,0.6-2,0.6h-3v-8.6H4c0.8,0,1.5,0.2,1.9,0.6
		c0.5,0.4,0.7,0.9,0.7,1.6C6.7,18.7,6.3,19.3,5.4,19.7L5.4,19.7z M2.4,16.6v2.7H4c0.5,0,0.9-0.1,1.2-0.4s0.4-0.6,0.4-1
		s-0.1-0.8-0.4-1c-0.3-0.2-0.7-0.3-1.1-0.3C4.1,16.6,2.4,16.6,2.4,16.6z M4.2,23.3c0.5,0,1-0.1,1.3-0.4S6,22.3,6,21.8
		S5.8,21,5.5,20.7s-0.8-0.4-1.3-0.4H2.4v3C2.4,23.3,4.2,23.3,4.2,23.3z"/>
	<path class="st0" d="M12.6,24.4c-1.2,0-2.2-0.4-3.1-1.3S8.4,21.2,8.4,20s0.4-2.3,1.2-3.2s1.8-1.3,3-1.3s2.2,0.4,3,1.3
		c0.8,0.8,1.2,1.9,1.2,3.2s-0.4,2.3-1.2,3.2C14.8,24.1,13.8,24.4,12.6,24.4z M12.6,23.3c0.9,0,1.6-0.3,2.2-1
		c0.6-0.6,0.9-1.4,0.9-2.4c0-0.9-0.3-1.7-0.9-2.4c-0.6-0.6-1.3-1-2.2-1s-1.6,0.3-2.2,1C9.8,18.2,9.6,19,9.6,20
		c0,0.9,0.3,1.7,0.9,2.4C11,23,11.7,23.3,12.6,23.3z"/>
	<path class="st0" d="M22.5,24.4c-1.2,0-2.2-0.4-3.1-1.3s-1.2-1.9-1.2-3.2s0.4-2.3,1.2-3.2s1.8-1.3,3-1.3s2.2,0.4,3,1.3
		c0.8,0.8,1.2,1.9,1.2,3.2s-0.4,2.3-1.2,3.2S23.7,24.4,22.5,24.4z M22.5,23.3c0.9,0,1.6-0.3,2.2-1c0.6-0.6,0.9-1.4,0.9-2.4
		c0-0.9-0.3-1.7-0.9-2.4c-0.6-0.6-1.3-1-2.2-1c-0.9,0-1.6,0.3-2.2,1c-0.6,0.6-0.9,1.4-0.9,2.4c0,0.9,0.3,1.7,0.9,2.4
		C20.9,23,21.6,23.3,22.5,23.3z"/>
	<path class="st0" d="M31.9,19.8h3.8v4.5h-0.8l-0.2-0.9h-0.1c-0.7,0.7-1.6,1.1-2.6,1.1c-1.2,0-2.1-0.4-2.8-1.2c-0.7-0.8-1-1.8-1-3
		c0-1.3,0.4-2.5,1.1-3.3c0.7-0.9,1.7-1.3,2.8-1.3c1,0,1.8,0.3,2.4,0.8s1,1.2,1.1,2h-1.2c-0.1-0.5-0.4-0.9-0.8-1.2
		c-0.4-0.3-0.9-0.5-1.5-0.5c-0.9,0-1.5,0.3-2.1,1c-0.5,0.7-0.8,1.5-0.8,2.5s0.2,1.7,0.7,2.3c0.5,0.6,1.2,0.9,2.1,0.9
		c0.5,0,1-0.1,1.4-0.3c0.4-0.2,0.7-0.5,1-0.7V21h-2.6L31.9,19.8L31.9,19.8z"/>
	<path class="st0" d="M43.1,24.3L42.4,22h-3.5l-0.7,2.2H37l3-8.6h1.4l2.9,8.6L43.1,24.3L43.1,24.3z M39.2,21H42l-1.4-4.1h-0.1
		L39.2,21z"/>
	<path class="st0" d="M46.7,23.2h4.5v1h-5.6v-8.6H51v1h-4.3v2.7h3.8v1h-3.8C46.7,20.3,46.7,23.2,46.7,23.2z"/>
	<path class="st0" d="M58.6,24.3h-1.2l-2.1-3.5l0,0h-1.7v3.5h-1.1v-8.6h2.9c0.9,0,1.5,0.2,2,0.7c0.5,0.5,0.8,1.1,0.8,1.8
		c0,0.6-0.2,1.1-0.5,1.5s-0.8,0.7-1.3,0.9L58.6,24.3z M53.7,16.7v3h1.7c0.6,0,1-0.1,1.3-0.4s0.5-0.6,0.5-1.1s-0.2-0.8-0.5-1.1
		c-0.3-0.3-0.8-0.4-1.3-0.4H53.7z"/>
	<path class="st0" d="M62.5,15.6c1.4,0,2.4,0.4,3.2,1.2s1.1,1.8,1.1,3.1c0,1.3-0.4,2.4-1.1,3.2c-0.7,0.8-1.8,1.2-3.2,1.2H60v-8.6
		h2.5C62.5,15.7,62.5,15.6,62.5,15.6z M62.5,23.2c1,0,1.8-0.3,2.4-0.9s0.8-1.4,0.8-2.4s-0.3-1.7-0.8-2.3c-0.5-0.6-1.3-0.9-2.3-0.9
		h-1.4v6.5C61.2,23.2,62.5,23.2,62.5,23.2z"/>
	<path class="st0" d="M73.5,15.6v1H71v7.6h-1.1v-7.6h-2.5v-1H73.5z"/>
	<path class="st0" d="M78.8,15l-4.4,9.9h-1.2l4.4-9.8L78.8,15L78.8,15z"/>
</g>
<g>
	<path class="st0" d="M6.9,30.4h1.2L5.2,39H3.6l-2.9-8.6h1.2l2.5,7.4h0.1L6.9,30.4z"/>
	<path class="st0" d="M13.9,39l-0.7-2.2H9.7L8.9,39H7.7l3-8.6h1.5l2.9,8.6H13.9z M10,35.8h2.8l-1.4-4.1h-0.1L10,35.8z"/>
	<path class="st0" d="M22.2,30.4h1.1V39h-1.2l-4.5-6.7h-0.1V39h-1.1v-8.6h1.3l4.4,6.7h0.1C22.2,37.1,22.2,30.4,22.2,30.4z"/>
	<path class="st0" d="M27.9,30.4c1.4,0,2.4,0.4,3.2,1.2s1.1,1.8,1.1,3.1s-0.4,2.4-1.1,3.2c-0.7,0.7-1.8,1.1-3.2,1.1h-2.5v-8.6H27.9z
		 M27.9,38c1,0,1.8-0.3,2.4-0.9c0.6-0.6,0.8-1.4,0.8-2.4s-0.3-1.7-0.8-2.3c-0.5-0.6-1.3-0.9-2.3-0.9h-1.4V38H27.9z"/>
	<path class="st0" d="M35.1,38h4.5v1H34v-8.6h5.4v1h-4.3v2.7h3.8v1h-3.8V38z"/>
	<path class="st0" d="M47,39h-1.3l-2.1-3.5l0,0h-1.7V39h-1.1v-8.6h2.9c0.9,0,1.5,0.2,2,0.7s0.8,1.1,0.8,1.8c0,0.6-0.2,1.1-0.5,1.5
		s-0.8,0.7-1.3,0.9L47,39z M42,31.5v3h1.7c0.6,0,1-0.1,1.3-0.4c0.3-0.3,0.5-0.6,0.5-1.1s-0.2-0.8-0.5-1.1c-0.3-0.3-0.8-0.4-1.3-0.4
		H42z"/>
	<path class="st0" d="M54.1,36.9c0,0.7-0.3,1.3-0.8,1.7s-1.2,0.6-2.1,0.6c-1,0-1.7-0.3-2.3-0.8c-0.5-0.5-0.8-1.2-0.8-2h1.2
		c0,0.5,0.2,0.9,0.5,1.3c0.3,0.3,0.8,0.5,1.5,0.5c0.5,0,0.9-0.1,1.2-0.3s0.5-0.5,0.5-1c0-0.4-0.1-0.7-0.4-1s-0.8-0.5-1.6-0.8
		s-1.4-0.6-1.9-0.9c-0.4-0.4-0.7-0.9-0.7-1.5c0-0.7,0.3-1.3,0.8-1.7c0.5-0.4,1.2-0.6,1.9-0.6c0.9,0,1.6,0.2,2.1,0.7s0.8,1.1,0.8,1.8
		h-1.1c0-0.4-0.2-0.8-0.5-1.1c-0.3-0.3-0.7-0.4-1.3-0.4c-0.5,0-0.8,0.1-1.1,0.4c-0.3,0.3-0.4,0.5-0.4,0.9c0,0.4,0.1,0.7,0.4,0.9
		c0.3,0.2,0.8,0.5,1.5,0.7c0.9,0.3,1.6,0.7,2,1.1C53.8,35.7,54.1,36.2,54.1,36.9z"/>
	<path class="st0" d="M63.1,36.4c-0.2,0.8-0.6,1.5-1.3,2c-0.7,0.5-1.4,0.8-2.3,0.8c-1.2,0-2.2-0.4-3-1.2c-0.8-0.9-1.1-2-1.1-3.3
		s0.4-2.3,1.1-3.2c0.7-0.8,1.7-1.3,2.9-1.3c0.9,0,1.7,0.2,2.4,0.7s1.1,1.2,1.2,2.1h-1.2c-0.1-0.5-0.4-1-0.8-1.3s-0.9-0.5-1.5-0.5
		c-0.8,0-1.5,0.3-2,1s-0.8,1.4-0.8,2.4s0.3,1.8,0.8,2.4c0.5,0.6,1.2,0.9,2.1,0.9c0.6,0,1.1-0.2,1.5-0.5c0.4-0.3,0.7-0.7,0.9-1.2h1.1
		C63.1,36.2,63.1,36.4,63.1,36.4z"/>
	<path class="st0" d="M70,30.4h1.1V39H70v-3.8h-4.2V39h-1.1v-8.6h1.1v3.7H70V30.4z"/>
	<path class="st0" d="M77.1,39.1c-1.2,0-2.2-0.4-3.1-1.3s-1.2-1.9-1.2-3.2s0.4-2.3,1.2-3.2s1.8-1.3,3-1.3s2.2,0.4,3,1.3
		c0.8,0.8,1.2,1.9,1.2,3.2s-0.4,2.3-1.2,3.2S78.3,39.1,77.1,39.1z M77.1,38c0.9,0,1.6-0.3,2.2-1c0.6-0.6,0.9-1.4,0.9-2.4
		c0-0.9-0.3-1.7-0.9-2.4c-0.6-0.6-1.3-1-2.2-1c-0.9,0-1.6,0.3-2.2,1c-0.6,0.6-0.9,1.4-0.9,2.4c0,0.9,0.3,1.7,0.9,2.4
		S76.2,38,77.1,38z"/>
	<path class="st0" d="M87,39.1c-1.2,0-2.2-0.4-3.1-1.3s-1.2-1.9-1.2-3.2s0.4-2.3,1.2-3.2s1.8-1.3,3-1.3s2.2,0.4,3,1.3
		c0.8,0.8,1.2,1.9,1.2,3.2s-0.4,2.3-1.2,3.2S88.2,39.1,87,39.1z M87,38c0.9,0,1.6-0.3,2.2-1c0.6-0.6,0.9-1.4,0.9-2.4
		c0-0.9-0.3-1.7-0.9-2.4c-0.6-0.6-1.3-1-2.2-1c-0.9,0-1.6,0.3-2.2,1c-0.6,0.6-0.9,1.4-0.9,2.4c0,0.9,0.3,1.7,0.9,2.4S86.1,38,87,38z
		"/>
	<path class="st0" d="M98,30.4v1h-2.5V39h-1.1v-7.6h-2.5v-1H98z"/>
</g>
<g>
	<path class="st0" d="M6.8,48.9v1H4.3v7.6H3.2V50H0.7v-1L6.8,48.9L6.8,48.9z"/>
	<path class="st0" d="M13.5,48.9h1.1v8.6h-1.1v-3.8H9.3v3.8H8.1v-8.6h1.1v3.7h4.2v-3.7H13.5z"/>
	<path class="st0" d="M17.5,56.5H22v1h-5.6v-8.6h5.4v1h-4.3v2.7h3.9v1h-3.8L17.5,56.5C17.6,56.5,17.5,56.5,17.5,56.5z"/>
	<path class="st0" d="M28.9,57.5l-0.7-2.2h-3.5L24,57.5h-1.2l3-8.6h1.5l2.9,8.6H28.9z M25,54.3h2.8l-1.4-4.1h-0.1L25,54.3z"/>
	<path class="st0" d="M36.9,48.9v1h-2.5v7.6h-1.1V50h-2.5v-1L36.9,48.9L36.9,48.9z"/>
	<path class="st0" d="M39.3,56.5h4.5v1h-5.6v-8.6h5.4v1h-4.3v2.7h3.8v1h-3.8C39.3,53.6,39.3,56.5,39.3,56.5z"/>
	<path class="st0" d="M51.2,57.5h-1.3l-2-3.5l0,0h-1.7v3.5h-1.1v-8.6H48c0.9,0,1.5,0.2,2,0.7s0.8,1.1,0.8,1.8c0,0.6-0.2,1.1-0.5,1.5
		s-0.8,0.7-1.3,0.9L51.2,57.5z M46.2,50v3h1.7c0.6,0,1-0.1,1.3-0.4c0.3-0.3,0.5-0.6,0.5-1.1s-0.2-0.8-0.5-1.1S48.4,50,47.9,50H46.2z
		"/>
	<path class="st0" d="M58.1,48.9v1h-2.5v7.6h-1.1V50H52v-1L58.1,48.9L58.1,48.9z"/>
	<path class="st0" d="M63.5,57.7c-1.2,0-2.2-0.4-3.1-1.3c-0.8-0.8-1.2-1.9-1.2-3.2s0.4-2.3,1.2-3.2c0.8-0.8,1.8-1.3,3-1.3
		c1.2,0,2.2,0.4,3,1.3c0.8,0.8,1.2,1.9,1.2,3.2s-0.4,2.3-1.2,3.2S64.7,57.7,63.5,57.7z M63.5,56.5c0.9,0,1.6-0.3,2.2-1
		s0.9-1.4,0.9-2.4c0-0.9-0.3-1.7-0.9-2.4c-0.6-0.6-1.3-1-2.2-1c-0.9,0-1.6,0.3-2.2,1c-0.6,0.6-0.9,1.4-0.9,2.4
		c0,0.9,0.3,1.7,0.9,2.4C61.9,56.2,62.6,56.5,63.5,56.5z"/>
	<path class="st0" d="M76.1,48.9v5.2c0,1.1-0.3,2-0.9,2.6s-1.4,0.9-2.4,0.9s-1.8-0.3-2.4-0.9c-0.6-0.6-1-1.5-1-2.6v-5.2h1.2v5.2
		c0,0.8,0.2,1.4,0.6,1.8c0.4,0.4,0.9,0.6,1.6,0.6c0.6,0,1.2-0.2,1.6-0.6c0.4-0.4,0.6-1,0.6-1.8v-5.2H76.1z"/>
	<path class="st0" d="M84,57.5h-1.3l-2-3.5l0,0H79v3.5h-1.1v-8.6h2.9c0.9,0,1.5,0.2,2,0.7s0.8,1.1,0.8,1.8c0,0.6-0.2,1.1-0.5,1.5
		s-0.8,0.7-1.3,0.9L84,57.5z M79,50v3h1.7c0.6,0,1-0.1,1.3-0.4c0.3-0.3,0.5-0.6,0.5-1.1s-0.2-0.8-0.5-1.1S81.2,50,80.7,50H79z"/>
	<path class="st0" d="M91.1,48.9h1.1v8.6H91l-4.5-6.7h-0.1v6.7h-1.1v-8.6h1.3l4.4,6.7h0.1C91.1,55.6,91.1,48.9,91.1,48.9z"/>
	<path class="st0" d="M95.2,56.5h4.5v1h-5.6v-8.6h5.4v1h-4.3v2.7H99v1h-3.8V56.5z"/>
	<path class="st0" d="M102.1,56.5h4.5v1H101v-8.6h5.4v1h-4.3v2.7h3.8v1h-3.8V56.5z"/>
	<path class="st0" d="M2.3,72.3v-5.7H0.7v-0.9h0.7c0.6,0,0.9-0.3,0.9-0.9v-0.4h1v7.9H2.3z"/>
	<path class="st0" d="M9,68.1c0.4,0.1,0.7,0.4,1,0.7c0.2,0.3,0.4,0.8,0.4,1.2c0,0.7-0.2,1.3-0.7,1.7c-0.5,0.4-1.1,0.6-1.9,0.6
		s-1.5-0.2-1.9-0.7c-0.5-0.4-0.7-1-0.8-1.8h1.1c0,0.4,0.2,0.7,0.5,1s0.6,0.4,1.1,0.4s0.8-0.1,1.1-0.4s0.4-0.6,0.4-1s-0.1-0.7-0.4-1
		c-0.3-0.3-0.7-0.4-1.2-0.4H7.2v-0.9h0.4c0.4,0,0.7-0.1,1-0.3C8.8,67,9,66.7,9,66.3c0-0.3-0.1-0.6-0.3-0.8c-0.2-0.2-0.5-0.3-0.9-0.3
		c-0.4,0-0.7,0.1-0.9,0.3c-0.4,0.3-0.5,0.6-0.5,1H5.3c0-0.6,0.2-1.2,0.7-1.6s1.1-0.6,1.7-0.6c0.7,0,1.2,0.2,1.6,0.6
		c0.4,0.4,0.6,0.9,0.6,1.4C10,67.1,9.7,67.7,9,68.1L9,68.1z"/>
	<path class="st0" d="M21.1,70.1c0,0.7-0.3,1.3-0.8,1.7c-0.5,0.4-1.2,0.6-2.1,0.6c-1,0-1.7-0.3-2.3-0.8c-0.5-0.5-0.8-1.2-0.8-2h1.2
		c0,0.5,0.2,0.9,0.5,1.3c0.3,0.3,0.8,0.5,1.5,0.5c0.5,0,0.9-0.1,1.2-0.3c0.3-0.2,0.5-0.5,0.5-1c0-0.4-0.1-0.7-0.4-1
		s-0.8-0.5-1.6-0.8c-0.8-0.3-1.4-0.6-1.9-0.9c-0.4-0.4-0.7-0.9-0.7-1.5c0-0.7,0.3-1.3,0.8-1.7c0.5-0.4,1.2-0.6,1.9-0.6
		c0.9,0,1.6,0.2,2.1,0.7c0.5,0.5,0.8,1.1,0.8,1.8h-1.1c0-0.4-0.2-0.8-0.5-1.1c-0.3-0.3-0.7-0.4-1.3-0.4c-0.5,0-0.8,0.1-1.1,0.4
		s-0.4,0.5-0.4,0.9s0.1,0.7,0.4,0.9c0.3,0.2,0.8,0.5,1.5,0.7c0.9,0.3,1.6,0.7,2,1.1C20.9,68.9,21.1,69.5,21.1,70.1z"/>
	<path class="st0" d="M23.8,71.3h4.5v1h-5.6v-8.6h5.4v1h-4.3v2.7h3.8v1h-3.8V71.3z"/>
	<path class="st0" d="M32.7,63.7c0.8,0,1.5,0.2,2,0.7s0.8,1.1,0.8,1.9s-0.3,1.5-0.8,1.9c-0.5,0.5-1.2,0.7-2.1,0.7h-1.9v3.4h-1.1
		v-8.6C29.6,63.7,32.7,63.7,32.7,63.7z M32.5,67.9c0.6,0,1-0.1,1.3-0.4s0.5-0.7,0.5-1.2s-0.2-0.9-0.5-1.2c-0.3-0.3-0.7-0.4-1.3-0.4
		h-1.9v3.2H32.5z"/>
	<path class="st0" d="M39.9,68h4.5v0.9H40L39.9,68L39.9,68z"/>
	<path class="st0" d="M52,69.1c-1.2,0.7-1.8,1.5-1.8,2.2H54v1h-5.1v-0.5c0-1.3,0.7-2.4,2.1-3.3c0.8-0.5,1.3-0.9,1.5-1.1
		c0.3-0.3,0.4-0.6,0.4-0.9c0-0.4-0.1-0.7-0.4-0.9c-0.2-0.2-0.6-0.4-1-0.4c-0.5,0-0.9,0.2-1.1,0.5C50.1,66,50,66.4,50,66.9h-1.1
		c0-0.4,0.1-0.8,0.3-1.2c0.2-0.4,0.5-0.7,0.9-1s0.9-0.4,1.5-0.4c0.7,0,1.3,0.2,1.8,0.6s0.7,0.9,0.7,1.6c0,0.5-0.2,1-0.5,1.4
		C53.2,68.3,52.7,68.7,52,69.1z"/>
	<path class="st0" d="M60.4,71.4c-0.5,0.7-1.2,1-2.1,1s-1.6-0.3-2.1-1s-0.8-1.7-0.8-3s0.3-2.3,0.8-3s1.2-1,2.1-1s1.6,0.3,2.1,1
		s0.8,1.7,0.8,3C61.2,69.7,61,70.7,60.4,71.4z M57.1,70.6c0.3,0.5,0.7,0.8,1.2,0.8s0.9-0.3,1.2-0.8s0.5-1.3,0.5-2.3
		s-0.2-1.7-0.5-2.3c-0.3-0.5-0.7-0.8-1.2-0.8s-0.9,0.3-1.2,0.8s-0.5,1.3-0.5,2.3C56.6,69.4,56.8,70.1,57.1,70.6z"/>
	<path class="st0" d="M70.3,72.4c-1.2,0-2.2-0.4-3.1-1.3c-0.8-0.8-1.2-1.9-1.2-3.2s0.4-2.3,1.2-3.2c0.8-0.8,1.8-1.3,3-1.3
		s2.2,0.4,3,1.3c0.8,0.8,1.2,1.9,1.2,3.2s-0.4,2.3-1.2,3.2S71.5,72.4,70.3,72.4z M70.3,71.3c0.9,0,1.6-0.3,2.2-1
		c0.6-0.6,0.9-1.4,0.9-2.4c0-0.9-0.3-1.7-0.9-2.4c-0.6-0.6-1.3-1-2.2-1c-0.9,0-1.6,0.3-2.2,1c-0.6,0.6-0.9,1.4-0.9,2.4
		c0,0.9,0.3,1.7,0.9,2.4C68.6,71,69.4,71.3,70.3,71.3z"/>
	<path class="st0" d="M81.1,72.3l-3.2-3.9h-0.6v3.9h-1.1v-8.6h1.1v3.6h0.6l2.9-3.6h1.3l-3.2,4.1v0.1l3.6,4.4H81.1z"/>
	<path class="st0" d="M89.2,63.7v1h-2.5v7.6h-1.1v-7.6h-2.5v-1C83.1,63.7,89.2,63.7,89.2,63.7z"/>
</g>
</svg>
