<?xml version="1.0" encoding="utf-8"?>
<!-- Generator: Adobe Illustrator 24.0.0, SVG Export Plug-In . SVG Version: 6.00 Build 0)  -->
<svg version="1.1" id="Laag_1" xmlns="http://www.w3.org/2000/svg" xmlns:xlink="http://www.w3.org/1999/xlink" x="0px" y="0px"
	 width="118.2px" height="46.9px" viewBox="0 0 118.2 46.9" style="enable-background:new 0 0 118.2 46.9;" xml:space="preserve">
<style type="text/css">
	.st0{fill:#1D1D1B;}
</style>
<g>
	<path class="st0" d="M11.9,9.7l-2.2,6.6c0,0-0.4,0-1.2,0c-0.7,0-1.2,0-1.2,0L5.2,9.8C4.3,6.9,4,5.9,3.4,5.4c0,0,0.6,0,1.7,0
		c1.3,0,1.8,0,1.8,0C6.6,5.6,6.3,5.9,6.3,6.5c0,0.5,0.2,1.2,0.7,3l1.4,4.6c0.2,0.5,0.3,1.1,0.3,1.1s0.1-0.6,0.3-1.1l1.4-4.4
		C11,7.8,11.2,7,11.2,6.5c0-0.7-0.2-0.9-0.5-1.1c0,0,0.5,0,1.6,0c1.1,0,1.6,0,1.6,0C13.2,6,12.7,7.5,11.9,9.7z"/>
	<path class="st0" d="M20.7,16.5l0.1-2.3c-0.5,2.1-2.1,2.3-3.2,2.3c-2.7,0-3.4-1.8-3.4-3.2c0-3.2,2.7-3.4,4.5-3.4
		c1.1,0,1.9,0.1,1.9,0.1V9.2c0-0.8,0-1.5-0.4-2c-0.3-0.4-0.9-0.7-2-0.7c-0.5,0-2.1,0-2.9,1.4c0,0,0-0.4,0-1.1c0-0.7,0-1,0-1
		s1-0.5,3.3-0.5c2,0,2.8,0.6,3.3,1.1c0.6,0.7,0.6,1.7,0.6,2.9c0,0.4,0,1.7,0,3.7c0,1.4,0.1,2.1,0.5,2.7l0.2,0.3L20.7,16.5z
		 M20.6,11.2c0,0-0.4-0.1-1.6-0.1c-1.1,0-2.9,0.1-2.9,2.1c0,1.4,0.9,2,2.1,2c2,0,2.4-1.2,2.4-1.2V11.2z"/>
	<path class="st0" d="M33.3,16.3c-1.1,0-1.6,0-1.6,0L32,16c0.3-0.6,0.5-0.7,0.5-4.9C32.4,9,32.4,8,32,7.4c-0.3-0.4-0.7-0.9-1.9-0.9
		c-2.1,0-2.4,1.3-2.4,1.3v3.3c0,4.2,0.2,4.3,0.5,4.9l0.2,0.3c0,0-0.4,0-1.6,0c-1.1,0-1.6,0-1.6,0l0.2-0.3c0.3-0.6,0.5-0.7,0.5-4.9
		v-0.6c0-3.3-0.2-3.9-0.5-4.4l-0.2-0.3l2.5-0.5l-0.1,2.4c0.4-2.1,2-2.5,3.2-2.5c1.5,0,2.4,0.5,2.9,1.4c0.4,0.8,0.5,1.7,0.5,4v0.5
		c0,4.2,0.2,4.3,0.5,4.9l0.2,0.3C34.9,16.3,34.5,16.3,33.3,16.3z"/>
	<path class="st0" d="M48.9,13.2h-0.2c0,0.9,0,2,0.4,2.8l0.2,0.3c0,0-0.4,0-1.5,0c-1.1,0-1.5,0-1.5,0l0.2-0.3
		c0.4-0.7,0.4-1.7,0.4-2.8h-6.3c0-1.4,0.1-2.5,2-4.5L44,7.3c2.3-2.4,2.8-2.9,2.8-4.1c0-0.7-0.2-0.9-0.2-0.9s0.5,0,1.2,0
		c0.7,0,1.2,0,1.2,0v0.2c0,2.4-0.8,2.9-3.6,5.5L44,9.4c-0.8,0.8-1.6,1.7-1.6,2.4h4.4v-1.6c0.6-0.1,1.6-0.6,1.9-0.9v2.6h0.2
		c1.2,0,1.6-0.2,1.6-0.2s0,0.3,0,0.9c0,0.7,0,0.9,0,0.9S50,13.2,48.9,13.2z"/>
	<path class="st0" d="M58.8,10.5V17c0,1.6,0,3.4-3,3.4h-0.4c1.5-0.7,1.5-2,1.5-4.7v-5.2c0-3.3-0.2-3.9-0.5-4.4l-0.2-0.3L59,5.3
		C59,5.3,58.8,6.4,58.8,10.5z M57.9,3.8c-0.7,0-1.3-0.4-1.3-1.1c0-0.8,0.5-1.2,1.3-1.2c0.7,0,1.3,0.4,1.3,1.2
		C59.2,3.4,58.7,3.8,57.9,3.8z"/>
	<path class="st0" d="M68.5,16.5l0.1-2.4c-0.4,2.1-2,2.5-3.2,2.5c-1.5,0-2.4-0.5-2.9-1.4c-0.4-0.8-0.5-1.7-0.5-4v-0.7
		c0-3.3-0.1-3.8-0.4-4.4l-0.2-0.3l2.5-0.5c0,0-0.1,2-0.1,4.1v1.3c0,2.1,0.1,3.1,0.4,3.7c0.3,0.4,0.7,0.9,1.9,0.9
		c2.1,0,2.4-1.3,2.4-1.3v-3.4c0-3.3-0.1-3.8-0.4-4.4l-0.2-0.3l2.6-0.5c0,0-0.1,2.1-0.1,4.1v1.9c0,3.3,0.2,3.9,0.5,4.4L71,16
		L68.5,16.5z"/>
	<path class="st0" d="M74.6,16.3c-1.1,0-1.6,0-1.6,0l0.2-0.3c0.4-0.7,0.5-1.1,0.5-4.9V6.9c0-3.5-0.1-4.1-0.5-4.8l-0.2-0.3l2.5-0.5
		c0,0-0.1,2.1-0.1,4v5.9c0,3.6,0.1,4.2,0.5,4.9l0.2,0.3C76.2,16.3,75.8,16.3,74.6,16.3z"/>
	<path class="st0" d="M80,16.3c-1.1,0-1.6,0-1.6,0l0.2-0.3c0.4-0.7,0.5-1.1,0.5-4.9v-0.6c0-3.3-0.2-3.9-0.5-4.4l-0.2-0.3l2.7-0.5
		c0,0-0.2,1.1-0.2,5.2v0.6c0,3.6,0.1,4.1,0.5,4.9l0.2,0.3C81.5,16.3,81.1,16.3,80,16.3z M79.9,3.8c-0.7,0-1.3-0.4-1.3-1.1
		c0-0.8,0.5-1.2,1.3-1.2c0.7,0,1.3,0.4,1.3,1.2C81.2,3.4,80.7,3.8,79.9,3.8z"/>
	<path class="st0" d="M90.8,16.5c-1.2,0-1.8-0.4-2.1-1c-0.3-0.5-0.4-1.1-0.4-2.5c0-4.8,0.1-6.4,0.1-6.4h-1.2c0,0,0.7-0.6,1.3-1.6
		c0.7-1.1,1-1.9,1-1.9h0.7v2.4h1.3c1.6,0,1.9-0.2,1.9-0.2s0,0.3,0,0.8c0,0.5,0,0.8,0,0.8S93,6.6,91.5,6.6h-1.3v6.5
		c0,0.9,0.1,1.2,0.2,1.5c0.2,0.4,0.6,0.7,1.3,0.7c1.1,0,1.6-0.6,1.6-0.6C93.4,14.9,93.3,16.5,90.8,16.5z"/>
	<path class="st0" d="M95.4,20.4H94l3.2-19.2h1.4L95.4,20.4z"/>
	<path class="st0" d="M114.7,16.3c-1.1,0-1.6,0-1.6,0l0.2-0.3c0.3-0.6,0.5-0.7,0.5-4.9c0-2.1-0.1-3.1-0.4-3.7
		c-0.3-0.4-0.8-0.9-1.9-0.9c-1.8,0-2.3,0.9-2.4,1.2c0.1,0.6,0.1,1.5,0.1,2.8v0.5c0,4.2,0.2,4.3,0.5,4.9l0.2,0.3c0,0-0.4,0-1.6,0
		s-1.6,0-1.6,0l0.2-0.3c0.3-0.6,0.5-0.7,0.5-4.9c0-2.1-0.1-3.1-0.4-3.7c-0.3-0.4-0.7-0.9-1.8-0.9c-2.1,0-2.4,1.3-2.4,1.3v3.3
		c0,4.2,0.2,4.3,0.5,4.9l0.2,0.3c0,0-0.4,0-1.6,0c-1.1,0-1.6,0-1.6,0l0.2-0.3c0.3-0.6,0.5-0.7,0.5-4.9v-0.6c0-3.3-0.2-3.9-0.5-4.4
		l-0.2-0.3l2.5-0.5l-0.1,2.4c0.4-2.1,1.9-2.5,3.2-2.5c1.6,0,2.7,0.7,3.1,2.2c0.5-1.8,2-2.2,3.2-2.2c1.5,0,2.5,0.5,3,1.4
		c0.4,0.8,0.5,1.7,0.5,4v0.5c0,4.2,0.2,4.3,0.5,4.9l0.2,0.3C116.3,16.3,115.9,16.3,114.7,16.3z"/>
</g>
<g>
	<path class="st0" d="M7.5,42.9c-3,0-3.8-1.6-3.8-1.9c0,0,1,0.6,3.1,0.6c2,0,3.5-0.6,3.5-2.8c0-1.7-0.7-2.6-3-2.6
		c-0.8,0-1.3,0.2-1.4,0.2c0,0,0-0.3,0-0.8c0-0.6,0-0.8,0-0.8c0.1,0,0.6,0.2,1.4,0.2c1.5,0,2.8-0.6,2.8-2.7c0-1.4-0.7-2.3-2.5-2.3
		c-1.5,0-2.3,0.5-3.1,1.7c0,0,0-0.5,0-1.3c0-0.8,0-1.1,0-1.1s1.1-0.6,3.3-0.6c3.1,0,4.3,1.4,4.3,3.3c0,2.4-1.7,3.3-3.2,3.5
		c1.1,0,3.5,0.5,3.5,3.3C12.3,42.5,9.2,42.9,7.5,42.9z"/>
	<path class="st0" d="M19.6,41.9c-4.1,0-4.9-3.6-4.9-6.6c0-2.3,0.6-6.5,5.1-6.5c4.1,0,4.9,3.6,4.9,6.6
		C24.7,37.6,24.1,41.9,19.6,41.9z M19.8,29.9c-1.3,0-2.1,0.6-2.5,1.7c-0.4,1.1-0.5,2.8-0.5,3.7c0,4,0.9,5.4,2.8,5.4
		c1.3,0,2-0.6,2.4-1.6c0.4-1.1,0.6-2.8,0.6-3.7C22.6,31.3,21.7,29.9,19.8,29.9z"/>
	<path class="st0" d="M37.7,41.8l0.1-2.3c-0.5,2.1-2.1,2.3-3.2,2.3c-2.7,0-3.4-1.8-3.4-3.2c0-3.2,2.7-3.4,4.5-3.4
		c1.1,0,1.9,0.1,1.9,0.1v-0.9c0-0.8,0-1.5-0.4-2c-0.3-0.4-0.9-0.7-2-0.7c-0.5,0-2.1,0-2.9,1.4c0,0,0-0.4,0-1.1c0-0.7,0-1,0-1
		s1-0.5,3.3-0.5c2,0,2.8,0.6,3.3,1.1c0.6,0.7,0.6,1.7,0.6,2.9c0,0.4,0,1.7,0,3.7c0,1.4,0.1,2.1,0.5,2.7l0.2,0.3L37.7,41.8z
		 M37.6,36.5c0,0-0.4-0.1-1.6-0.1c-1.1,0-2.9,0.1-2.9,2.1c0,1.4,0.9,2,2.1,2c2,0,2.4-1.2,2.4-1.2V36.5z"/>
	<path class="st0" d="M49.6,41.8l0.1-2.4c-0.4,2.1-2,2.5-3.2,2.5c-1.5,0-2.4-0.5-2.9-1.4c-0.4-0.8-0.5-1.7-0.5-4v-0.7
		c0-3.3-0.1-3.8-0.4-4.4l-0.2-0.3l2.5-0.5c0,0-0.1,2-0.1,4.1v1.3c0,2.1,0.1,3.1,0.4,3.7c0.3,0.4,0.7,0.9,1.9,0.9
		c2.1,0,2.4-1.3,2.4-1.3v-3.4c0-3.3-0.1-3.8-0.4-4.4L49,31.1l2.6-0.5c0,0-0.1,2.1-0.1,4.1v1.9c0,3.3,0.2,3.9,0.5,4.4l0.2,0.3
		L49.6,41.8z"/>
	<path class="st0" d="M58.3,45.7c-4.2,0-4.6-1.9-4.6-2.6c0-1.9,2.3-2.3,2.5-2.3c0,0-1-0.3-1-1.5c0-1.4,1.5-1.9,1.6-1.9
		c-0.4,0-2.5-0.7-2.5-3.2c0-1.7,0.9-3.6,3.9-3.6c1.1,0,1.7,0.3,1.7,0.3h1.3c1.5,0,2.6-0.2,2.6-0.2s0,0.3,0,0.8c0,0.5,0,0.7,0,0.7
		s-0.7-0.2-2-0.2l-0.6,0c0.1,0,1.1,0.7,1.1,2.2c0,2.8-2.2,3.4-4,3.4c-0.7,0-1.2-0.1-1.2-0.1s-0.4,0.3-0.4,1c0,0.9,0.7,1,1.4,1h2.3
		c1.4,0,3.3,0.1,3.3,2.4C63.8,44.5,61.3,45.7,58.3,45.7z M60,41h-3.3c0,0-1.3,0.4-1.3,1.7c0,0.7,0.3,1.9,3.1,1.9
		c2.2,0,3.6-0.8,3.6-2.2C62.1,41,61.1,41,60,41z M58.3,31.5c-1.5,0-2,1.2-2,2.6c0,1,0.3,2.5,2.2,2.5c1.5,0,2-1.2,2-2.6
		C60.5,33,60.2,31.5,58.3,31.5z"/>
	<path class="st0" d="M72.8,41.8l0.1-2.4c-0.4,2.1-2,2.5-3.2,2.5c-1.5,0-2.4-0.5-2.9-1.4c-0.4-0.8-0.5-1.7-0.5-4v-0.7
		c0-3.3-0.1-3.8-0.4-4.4l-0.2-0.3l2.5-0.5c0,0-0.1,2-0.1,4.1v1.3c0,2.1,0.1,3.1,0.4,3.7c0.3,0.4,0.7,0.9,1.9,0.9
		c2.1,0,2.4-1.3,2.4-1.3v-3.4c0-3.3-0.1-3.8-0.4-4.4l-0.2-0.3l2.6-0.5c0,0-0.1,2.1-0.1,4.1v1.9c0,3.3,0.2,3.9,0.5,4.4l0.2,0.3
		L72.8,41.8z"/>
	<path class="st0" d="M80.6,41.7c-1.8,0-2.9-0.6-2.9-0.6s0-0.4,0-1.1c0-0.7,0-1.3,0-1.3c0.7,1.1,1.4,1.8,2.8,1.8c1.7,0,2-0.8,2-1.6
		c0-0.8-0.4-1.2-1.2-1.7l-1.7-1c-0.7-0.4-1.9-1-1.9-2.8c0-2.1,1.4-2.9,3.5-2.9c1.8,0,2.7,0.6,2.7,0.6s0,0.4,0,1.1c0,0.7,0,1.2,0,1.2
		c-0.7-1.1-1.4-1.8-2.7-1.8c-0.6,0-1.8,0.1-1.8,1.4c0,0.9,0.5,1.2,1.5,1.8l1.3,0.7c1.2,0.7,2,1.5,2,3C84.4,40,83.6,41.7,80.6,41.7z"
		/>
	<path class="st0" d="M90,41.8c-1.2,0-1.8-0.4-2.1-1c-0.3-0.5-0.4-1.1-0.4-2.5c0-4.8,0.1-6.4,0.1-6.4h-1.2c0,0,0.7-0.6,1.3-1.6
		c0.7-1.1,1-1.9,1-1.9h0.7v2.4h1.3c1.6,0,1.9-0.2,1.9-0.2s0,0.3,0,0.8c0,0.5,0,0.8,0,0.8S92.2,32,90.6,32h-1.3v6.5
		c0,0.9,0.1,1.2,0.2,1.5c0.2,0.4,0.6,0.7,1.3,0.7c1.1,0,1.6-0.6,1.6-0.6C92.5,40.3,92.4,41.8,90,41.8z"/>
	<path class="st0" d="M101.1,41.8l0.1-2.4c-0.4,2.1-2,2.5-3.2,2.5c-1.5,0-2.4-0.5-2.9-1.4c-0.4-0.8-0.5-1.7-0.5-4v-0.7
		c0-3.3-0.1-3.8-0.4-4.4L94,31.1l2.5-0.5c0,0-0.1,2-0.1,4.1v1.3c0,2.1,0.1,3.1,0.4,3.7c0.3,0.4,0.7,0.9,1.9,0.9
		c2.1,0,2.4-1.3,2.4-1.3v-3.4c0-3.3-0.1-3.8-0.4-4.4l-0.2-0.3l2.6-0.5c0,0-0.1,2.1-0.1,4.1v1.9c0,3.3,0.2,3.9,0.5,4.4l0.2,0.3
		L101.1,41.8z"/>
	<path class="st0" d="M109,41.7c-1.8,0-2.9-0.6-2.9-0.6s0-0.4,0-1.1c0-0.7,0-1.3,0-1.3c0.7,1.1,1.4,1.8,2.8,1.8c1.7,0,2-0.8,2-1.6
		c0-0.8-0.4-1.2-1.2-1.7l-1.7-1c-0.7-0.4-1.9-1-1.9-2.8c0-2.1,1.4-2.9,3.5-2.9c1.8,0,2.7,0.6,2.7,0.6s0,0.4,0,1.1c0,0.7,0,1.2,0,1.2
		c-0.7-1.1-1.4-1.8-2.7-1.8c-0.6,0-1.8,0.1-1.8,1.4c0,0.9,0.5,1.2,1.5,1.8l1.3,0.7c1.2,0.7,2,1.5,2,3C112.7,40,112,41.7,109,41.7z"
		/>
</g>
</svg>
