<?xml version="1.0" encoding="utf-8"?>
<!-- Generator: Adobe Illustrator 22.0.0, SVG Export Plug-In . SVG Version: 6.00 Build 0)  -->
<svg version="1.1" id="Laag_1" xmlns="http://www.w3.org/2000/svg" xmlns:xlink="http://www.w3.org/1999/xlink" x="0px" y="0px"
	 viewBox="0 0 364.3 60.8" style="enable-background:new 0 0 364.3 60.8;" xml:space="preserve">
<style type="text/css">
	.st0{fill:#FFFFFF;}
</style>
<g>
	<path class="st0" d="M42.8,40.6L42.8,40.6c0.3,1.2,0.5,1.9,0.4,2.3h-0.3c0,0.1,0,0.3,0.1,0.6c0.1,0.3,0.1,0.5,0.1,0.6
		c0,0.1,0,0.3,0,0.6h-0.4c0-0.1-0.2-0.2-0.3-0.3c0.1,0.2,0.1,0.6,0.1,1c0,0.5-0.1,0.8-0.2,0.9H42l-0.4-0.2v0.3
		c0.2,0.9,0.2,1.4-0.1,1.6h-0.4c-0.2-0.4-0.3-0.6-0.5-0.6c0,0.6,0,1.3-0.1,2l-0.4,0.1c0,0-0.1-0.1-0.1-0.2c0-0.1-0.1-0.2-0.2-0.2
		c-0.1-0.1-0.1-0.1-0.2-0.1c-0.2,0.5-0.3,1.2-0.3,2.1l-0.2,0.1c-0.1,0-0.3-0.2-0.6-0.5l-0.1,0.1c0,0.4-0.1,1-0.4,1.7l-0.3-0.1
		c-0.1-0.3-0.2-0.5-0.4-0.5c0,0.3-0.2,0.8-0.6,1.4l-0.6-0.1c-0.2,0.7-0.4,1.2-0.7,1.4l-0.2-0.2c-0.1-0.4-0.2-0.6-0.5-0.6
		c-0.2,0.7-0.4,1.1-0.5,1.2c-0.1,0-0.2-0.2-0.3-0.3c-0.1-0.2-0.2-0.3-0.4-0.3c-0.1,0.6-0.3,1.1-0.7,1.4c-0.1,0-0.2-0.1-0.2-0.2
		c-0.1-0.3-0.2-0.5-0.3-0.5c-0.1,0.6-0.4,1-0.8,1l-0.3-0.7l-0.1,0.1l-0.5,1.2h-0.3c-0.2-0.4-0.5-0.7-1-0.8c-0.1,0.4-0.3,0.8-0.5,1.1
		l-0.3-0.1c0,0-0.1-0.2-0.3-0.5c-0.1-0.3-0.3-0.4-0.5-0.5c-0.4,0.9-0.6,1.4-0.6,1.4L27.4,57l-0.7-0.7l-0.1,0.1
		c-0.1,0.5-0.3,0.9-0.7,1.1h-0.3c-0.1-0.3-0.2-0.7-0.3-1.2c-0.1,0.1-0.3,0.3-0.5,0.6c-0.2,0.3-0.3,0.5-0.5,0.6
		c-0.1,0-0.2-0.1-0.3-0.2l-0.2-0.7h-0.2l-0.9,1h-0.1l-0.2-0.1c0-0.2,0-0.5-0.1-1l-0.5,0.5c-0.4,0.3-0.7,0.5-0.9,0.7l-0.1-0.1
		c0-0.1,0-0.2,0-0.5c0-0.2,0-0.4,0-0.5c-0.1,0-0.3,0.1-0.6,0.3c-0.3,0.2-0.5,0.2-0.6,0.2c0-0.6,0-0.9-0.1-0.9
		c-0.9,0.9-1.4,1.1-1.6,0.7c0.1-0.3,0.2-0.6,0.1-0.8c-0.1,0-0.2,0.1-0.4,0.2c-0.2,0.1-0.3,0.2-0.4,0.3c-0.1,0.1-0.2,0.1-0.4,0.2
		c-0.2,0-0.4,0.1-0.6,0.1l0.1-1.2h-0.1c-0.1,0.1-0.4,0.2-0.7,0.4c-0.3,0.2-0.6,0.3-0.8,0.4c-0.1-0.1-0.2-0.4-0.2-0.9h-0.1
		c-0.8,0.5-1.4,0.7-1.8,0.8l-0.1-0.2c-0.1-0.1,0-0.4,0.2-0.8l-0.1-0.1c-0.1,0.1-0.4,0.3-0.9,0.5c-0.5,0.2-0.8,0.2-1-0.1
		c0-0.1,0-0.2,0-0.5c0.1-0.2,0.1-0.3,0.1-0.4l-0.1-0.1c-0.6,0.3-1.1,0.4-1.4,0.3c0-0.1,0-0.3,0.1-0.5c0,0-0.3,0.1-0.7,0.2
		c-0.5,0.1-0.8,0.1-1.1,0c0-0.1,0.1-0.5,0.3-1.2l-1.5,0.7c-0.1-0.1-0.1-0.2-0.1-0.2l0.1-0.7c-0.7,0-1.3,0-1.6,0l0.1-0.6
		c-0.8,0.1-1.3,0-1.4-0.3v-0.6C4,52.1,4.2,52,4.4,52l-0.1-0.2c-0.3,0.1-0.5,0.1-0.6,0.1v-0.1c0,0-0.1-0.1-0.1-0.2
		c0-0.1,0.2-0.2,0.5-0.4c0.3-0.2,0.4-0.3,0.5-0.4c-0.3,0.1-0.6,0.1-0.7,0v-0.1c0.1-0.2,0.4-0.5,0.9-0.8c0.5-0.4,0.8-0.7,0.9-0.8
		c-0.1,0-0.2,0.1-0.4,0.2s-0.4,0.1-0.5,0.1v-0.2c0.1-0.1,0.5-0.6,1.2-1.3c-0.3,0.1-0.6,0.1-0.6-0.1c0.1-0.3,0.3-0.6,0.8-1
		C6.4,46.3,6.7,46,6.8,46l-0.1-0.1c-0.3,0.2-0.6,0.2-0.8,0.1v-0.3c0.2,0,0.4-0.2,0.7-0.6c0.3-0.3,0.5-0.6,0.6-0.7
		c-0.3,0.2-0.6,0.2-0.8,0.1v-0.2c0.5-0.7,0.8-1,1-1.1c0.1,0,0.3-0.1,0.5-0.3c0.3-0.1,0.4-0.3,0.5-0.4c-0.6,0-0.9,0-0.9-0.1
		c0.1-0.2,0.3-0.4,0.7-0.6c0.4-0.2,0.6-0.5,0.7-0.7C8.5,41.1,8.4,41,8.3,41v-0.4c0.4-0.1,0.7-0.3,1-0.6l-0.3-1l0.1-0.1h0.2l0.8,0.5
		c0,0,0.1,0.1,0.2,0.3c0.1,0.1,0.2,0.2,0.3,0.3c0-0.2,0-0.3,0.1-0.3c0.7,0.3,1.2,0.8,1.6,1.4c0.3-0.1,0.5-0.1,0.5-0.1
		c0.1,0,0.4,0.3,0.8,0.7c0-0.1,0.1-0.2,0.3-0.4l0.1,0.1c0.2,0,0.5,0.4,1,1c0.2-0.1,0.4-0.1,0.6,0c0.2,0.1,0.4,0.3,0.6,0.6
		c0.2,0.3,0.3,0.4,0.4,0.5v-0.6l0.2-0.1l1,0.6l0.5,0.6l0.1-0.1c-0.1-0.3-0.1-0.6,0-0.8l0.2,0.1c0.7,0.5,1.1,0.8,1.2,1
		c0-0.3,0-0.5,0.1-0.6c0.2,0,0.5,0,0.9,0.3c0.4,0.2,0.6,0.3,0.6,0.3v-0.2l-0.2-0.3l0.4-0.3c0.5,0.3,0.8,0.4,0.8,0.3
		c0-0.1,0-0.2,0.1-0.3l0.8-0.2c0-0.1,0-0.2,0.1-0.2c0-0.1,0.2-0.2,0.4-0.3c0.2-0.1,0.4-0.2,0.5-0.3c-0.1-0.2-0.1-0.6,0.2-1.1
		c-0.2-0.1-0.2-0.5,0-1.1L24,40.6l-0.1-0.1c0-0.1,0-0.5,0.1-1.2l-0.1,0.1c-0.3,0.5-0.6,0.7-0.8,0.7c0,0-0.1-0.2-0.1-0.3
		c0-0.2-0.1-0.3-0.1-0.3L22.1,40L22,40c0-0.1-0.1-0.3-0.2-0.5c-0.1-0.3-0.2-0.4-0.2-0.5L21.5,39c0,0.1,0.1,0.2,0.1,0.5
		c-0.5,0.1-0.9,0-1.2-0.3l0.1,0.8c0,0-0.1-0.1-0.2-0.1c-0.2-0.1-0.5-0.3-0.9-0.6c-0.4-0.3-0.6-0.6-0.8-0.7c0,0.2,0,0.3-0.1,0.5
		l-0.3,0.1c-0.1-0.1-0.2-0.2-0.4-0.4c-0.1-0.2-0.2-0.3-0.3-0.3l0.1,0.7c0,0-0.1,0-0.1,0.1c-0.9-0.3-1.4-0.6-1.6-0.9l-0.1,0.1v0.3
		c-0.4,0-0.7-0.1-0.8-0.3c0.1-0.3-0.1-0.7-0.5-1.1c0,0.1,0,0.2,0,0.3c0,0.1,0,0.2,0,0.3l-0.3,0.4c-0.2,0-0.4-0.1-0.5-0.2
		c-0.1-0.1-0.2-0.2-0.3-0.4c-0.1-0.2-0.2-0.3-0.3-0.4c0,0,0,0.1,0,0.2c0,0.1,0,0.1-0.1,0.2c0,0.1-0.1,0.1-0.1,0.2
		c-0.1,0-0.2-0.1-0.3-0.1c-0.1,0-0.2-0.1-0.3-0.1c0-0.1-0.1-0.3-0.2-0.5c-0.1-0.3-0.2-0.4-0.4-0.5c0,0.1-0.1,0.2-0.1,0.3
		c0,0.1-0.1,0.1-0.1,0.1L11.4,37c-0.1-0.1-0.2-0.4-0.3-0.7c-0.1-0.3-0.2-0.6-0.3-0.7l-0.1,0.1c0,0.1-0.1,0.2-0.2,0.3
		c-0.1-0.1-0.3-0.3-0.4-0.5c-0.1-0.3-0.2-0.5-0.3-0.7c0-0.2-0.1-0.4-0.1-0.4L9.5,35H9.2l-0.1-0.1C8.8,33.6,8.7,33,8.6,33l-0.5,0.7
		c0,0-0.1,0-0.2,0c-0.1,0-0.1,0-0.2,0L7.6,32c0,0-0.1,0.1-0.1,0.1c-0.1,0.2-0.2,0.4-0.3,0.5c-0.2-0.1-0.3-0.3-0.4-0.5
		c0-0.3,0-0.5,0-0.8c0-0.3,0-0.5-0.1-0.8c-0.3,0.2-0.5,0.2-0.8,0c0-0.2,0-0.5,0.1-1c0.1-0.4,0.1-0.7,0.1-0.8c-0.6,0.3-1,0.3-0.9-0.2
		c0-0.2,0.1-0.4,0.3-0.6c0.2-0.2,0.3-0.4,0.4-0.5c-0.4,0-0.7,0-0.9-0.1l0.1-0.4c0-0.1,0.2-0.2,0.5-0.3c0,0-0.2-0.2-0.7-0.5v-0.6
		l-0.2,0.1c-0.1-0.1-0.1-0.2-0.1-0.2l-0.1-0.2c0.1,0,0.2-0.1,0.3-0.2c0.1-0.1,0.2-0.2,0.3-0.4c0.1-0.2,0.2-0.3,0.2-0.4l-0.2-0.4
		l0.9-1.2v-0.1c-0.4,0.1-0.7,0.2-0.7,0.1c0.1-0.2,0.6-0.8,1.4-1.8v-0.1c-0.3,0.1-0.5,0.2-0.8,0.2v-0.2c0-0.2,0.2-0.5,0.6-0.7
		c0.3-0.3,0.6-0.5,0.6-0.6c-0.3,0.1-0.6,0.1-0.7,0l0.1-0.5c0.6-0.3,1-0.7,1.2-1H7.3v-0.3c0.3-0.1,0.7-0.5,1.1-1V16
		c0.1-0.1,0.3-0.2,0.6-0.5c0.3-0.2,0.6-0.4,0.8-0.5v-0.1c-0.1,0-0.3-0.1-0.6-0.3v-0.3c0.1,0,0.6-0.3,1.6-0.8
		c-0.1-0.1-0.2-0.2-0.2-0.3c0.1-0.1,0.3-0.2,0.6-0.3c0.3-0.1,0.5-0.2,0.6-0.3c0.3-0.3,0.4-0.5,0.5-0.6c0.1,0,0.3-0.1,0.6-0.1
		c0.3,0,0.5-0.1,0.6-0.2c-0.4-0.2-0.2-0.4,0.5-0.6c0.5-0.2,0.9-0.2,1.2-0.1c0-0.1,0-0.3-0.1-0.7c0-0.3-0.1-0.6-0.1-0.8
		c0.1,0,0.3,0,0.4,0c0,0.3,0.3,0.7,0.6,1l0.1-0.1c0.3-0.7,0.5-1.2,0.5-1.4c0.3,0,0.5,0,0.7,0.1l0.3,0.5l0.1-0.1l0.5-1
		c0.3,0,0.6,0.3,1,0.7c0.2,0,0.3-0.1,0.5-0.3c0.1-0.2,0.3-0.3,0.4-0.5c0.2-0.2,0.3-0.3,0.4-0.4l0.5,0.1l0.2,0.6
		c0.2-0.1,0.4-0.3,0.6-0.5C21.7,8,21.8,7.8,22,7.7h0.4c0.1,0.1,0.2,0.4,0.1,0.8c0.3,0,0.6-0.2,1-0.5c0.4-0.3,0.7-0.5,1-0.6l-0.1,0.8
		h0.1c0.1,0,0.4-0.2,0.7-0.4c0.3-0.2,0.6-0.3,0.9-0.3l0.1,0.2L26,8.3c0.3,0,0.6-0.2,0.9-0.3c0.3-0.2,0.6-0.3,0.7-0.3
		c0.1,0,0.3,0,0.4,0c0.1,0.1,0.2,0.1,0.3,0.1l1.4-0.6l0.5,0.2v0.3c-0.3,0.1-0.4,0.4-0.5,1c0.9-0.5,1.6-0.7,2.1-0.5
		c0,0.1-0.1,0.2-0.2,0.4s-0.1,0.2-0.2,0.3h0.1c0.7-0.5,1.4-0.6,1.9-0.5l0.1,0.3c0,0.1,0,0.2-0.1,0.4h0.3c0.6-0.2,1.1-0.3,1.6-0.3
		c0,0.1,0.1,0.2,0.2,0.2l-0.2,0.6c0.9-0.1,1.5-0.1,1.8,0.1l-0.1,0.3c-0.3,0-0.4,0.1-0.5,0.3c1.1,0,1.8,0.1,2.2,0.2l-0.1,0.3
		c0,0,0.1,0.1,0.1,0.1c0.2,0,0.5-0.1,0.9,0c0.5,0,0.7,0,0.7-0.1l0.2,0.3c-0.2,0.3-0.5,0.5-0.8,0.7l0.1,0.1c0.4-0.1,1.1,0.1,2.1,0.5
		l-0.1,0.5v0.1c-0.2-0.2-0.4-0.2-0.6,0l0.7,1.8c-0.1,0.1-0.2,0.1-0.2,0.1l-0.3-0.1c-0.1-0.5-0.4-0.8-0.9-0.9v0.1
		c0.4,1.2,0.5,1.9,0.5,2.2h-0.2c-0.2-0.3-0.3-0.5-0.4-0.6l0.3,1.8l-0.1,0.1c-0.2,0-0.3-0.2-0.5-0.5s-0.3-0.4-0.4-0.5v0.2
		c0.5,0.9,0.5,1.7,0.2,2.4l-0.1,0.1c-0.3-0.3-0.5-0.5-0.7-0.6v0.2c0.1,0.3,0.2,0.7,0.4,1.2c0.1,0.5,0.1,0.9,0,1.2
		c-0.1,0-0.3-0.2-0.4-0.4c-0.2-0.2-0.3-0.3-0.5-0.4v0.2c0.3,0.9,0.3,1.5,0,1.9L38.2,22c0-0.1-0.1-0.2-0.2-0.4
		c-0.1-0.2-0.1-0.3-0.2-0.4l-0.1,0.1c-0.1,0.2,0,0.5,0.1,0.9c0.2,0.4,0.2,0.7,0.2,0.9c0,0.1,0,0.2-0.1,0.2h-0.2l-0.5-0.8l-0.1,0.1
		c0,0.1,0,0.4,0.1,0.8c0.1,0.4,0.1,0.7,0.1,0.9c0,0.2-0.1,0.4-0.2,0.6L37,24.7c-0.1,0-0.2-0.1-0.3-0.3c-0.1-0.1-0.2-0.2-0.4-0.3
		c0,0.3-0.1,0.5-0.4,0.6c0-0.2,0-0.4-0.1-0.5c0,0-0.1,0-0.2-0.1c-0.2,0.2-0.3,0.2-0.5,0.1c0-0.9-0.3-1.5-0.8-2l-0.1,0.1
		c0.2,0.6,0.2,1,0.1,1c-0.1,0-0.2,0-0.4,0c0-0.7-0.1-1.1-0.2-1.4l-0.2-0.1h-0.1l-0.1,0.1l-0.2,0.8l-0.1,0.1c0,0-0.2-0.2-0.4-0.7
		c-0.2-0.5-0.4-0.7-0.5-0.8c0,0.5,0,0.8-0.1,1c-0.1,0-0.2,0-0.5-0.1c-0.4-0.8-0.7-1.3-0.8-1.4c0,0.5,0,0.9-0.1,1.1
		c-0.1,0-0.3,0-0.4,0c0-0.1-0.1-0.4-0.3-0.8c-0.2-0.5-0.3-0.7-0.3-0.8l-0.1,0.1c0,0.1-0.1,0.3,0,0.4c0,0.2,0,0.3,0,0.4
		s0,0.2-0.1,0.2l-0.3,0.1c0-0.3-0.2-0.6-0.5-0.8c0,0.1-0.2,0.3-0.4,0.5L28,21.5c0-0.2,0-0.4-0.1-0.8c-0.1,0-0.2,0.2-0.3,0.4
		s-0.2,0.3-0.3,0.4L27,21.3c0-0.3-0.1-0.4-0.3-0.5c0,0.3-0.1,0.6-0.4,0.8l-0.3-0.1c0-0.2-0.1-0.3-0.3-0.4c0,0.3,0,0.5-0.1,0.6
		c-0.2,0-0.3,0-0.4,0c-0.1,0-0.2-0.1-0.3-0.1c-0.1,0-0.1-0.1-0.2-0.2c-0.1-0.1-0.2-0.1-0.3-0.2v0.2c0.4,0.3,0.5,0.7,0.4,1l-1-0.2
		v0.1c0.3,0.1,0.5,0.3,0.6,0.5c0,0-0.1,0.1-0.2,0.2c-0.1,0.1-0.1,0.1-0.2,0.2l0.4,0.1c0,0.2,0,0.3,0.1,0.3c0,0-0.2,0.1-0.4,0.2
		c-0.2,0.1-0.4,0.2-0.5,0.3c0.2,0,0.5,0,1-0.3c0.3,0.1,0.5,0.3,0.6,0.5c0.2,0,0.4,0,0.6,0l0.1,0.3c0.6,0,1.1,0.1,1.3,0.2l-0.4,0.4
		c0,0,0,0.1,0.1,0.1c0.1,0,0.3-0.1,0.5-0.2c0.2-0.1,0.4-0.2,0.5-0.2c0.1,0,0.3,0,0.7,0c0,0.1-0.1,0.3-0.3,0.4
		c-0.2,0.2-0.2,0.3-0.3,0.4h0.2c0.9-0.4,1.5-0.5,1.8-0.3l-0.5,0.4c0,0,0,0.1,0.1,0.1c0.7-0.4,1.3-0.5,1.6-0.3c0,0.1-0.1,0.2-0.2,0.3
		c-0.1,0.1-0.2,0.2-0.2,0.4c1.3-0.1,2.2,0,2.7,0.1c-0.2,0.4-0.3,0.6-0.3,0.7c0.3,0,1.1,0,2.1-0.3v0.3l-0.6,0.1l-0.1,0.4
		c1.2-0.1,1.9-0.1,2.1,0.1l0.2,0.3l-0.1,0.1v0.1c0,0-0.1,0.1-0.2,0.1c-0.1,0-0.2,0.1-0.2,0.2c1-0.2,1.6-0.1,2,0.4l-0.1,0.2
		c-0.3,0-0.5,0.1-0.5,0.3c0.7,0,1.3,0.2,1.8,0.5l0.1,0.2c-0.2,0.1-0.3,0.1-0.5,0.1v0.2c1.1,0,1.7,0.3,1.8,1c-0.1,0-0.2,0.1-0.4,0
		c-0.2,0-0.3,0-0.4,0l-0.1,0.1c0.7,0.2,1.2,0.5,1.4,0.8l0.1,0.3h-0.5V33l1.2,1c-0.1,0.1-0.3,0.1-0.5,0.1c0,0,0.2,0.3,0.6,0.7
		c0.3,0.4,0.4,0.8,0.4,1l-0.7-0.2c-0.2,0-0.3,0-0.3,0.1c0.4,0.1,0.7,0.3,1,0.6c0.3,0.3,0.5,0.6,0.5,1c-0.1,0-0.2,0.1-0.3,0.1
		c0.4,0.7,0.6,1.1,0.4,1.4c-0.2,0-0.3,0-0.5,0.1V39c0.7,0.6,0.9,1.1,0.6,1.5L42.8,40.6z"/>
	<path class="st0" d="M82.4,11.5L82.4,11.5c0.3,0.6,0.4,0.9,0.3,1.1l-0.5-0.1v0.2c0.2,0.1,0.4,0.4,0.6,0.8C83,14,83,14.3,83,14.5
		h-0.1l-0.3-0.1c-0.1-0.1-0.2-0.2-0.3-0.3c0,0.1,0.2,0.4,0.5,0.9c0.3,0.5,0.4,0.8,0.3,1h-0.1c-0.1-0.1-0.3-0.2-0.5-0.4l-0.1,0.1
		l0.6,1.7c-0.1,0.1-0.2,0.1-0.3,0.1c-0.1,0-0.2,0-0.2,0.1l0.7,1.5l-0.1,0.2c-0.1,0-0.2,0-0.3-0.1c-0.1-0.1-0.2-0.2-0.4-0.2v0.1
		c0,0,0.1,0.2,0.3,0.6c0.2,0.3,0.3,0.5,0.3,0.7c0,0.1,0,0.3-0.1,0.6l-0.6-0.1v0.1l0.8,2.1c-0.1,0.1-0.2,0.1-0.2,0.1L82.4,23
		c0,0,0,0.1-0.1,0.1l0.6,1.6c0,0,0,0.1-0.1,0.2l-0.8-0.3v0.1c0.6,1.4,0.8,2.2,0.6,2.5l-0.6-0.3c0.1,0.3,0.2,0.6,0.4,0.9
		c0.2,0.3,0.3,0.5,0.3,0.7l-0.1,0.1l-0.5-0.2c0-0.4-0.1-0.6-0.2-0.7c0,0.6,0,0.9-0.1,0.9h-0.3c0-0.1-0.1-0.2-0.2-0.3
		c-0.1-0.1-0.2-0.3-0.2-0.4c0,0-0.1,0-0.2,0.1c-0.1,0-0.1,0.1-0.2,0.1L80.7,28c0-0.3-0.1-0.6-0.3-0.9c-0.2-0.4-0.4-0.6-0.6-0.6
		c0,0.3,0,0.5,0,0.7c0,0.2-0.2,0.2-0.4,0.2c-0.1-0.5-0.4-1-0.8-1.5h-0.1v0.2l-0.1,0.4c0,0,0,0.1-0.1,0.1l-0.3-0.1
		c0-0.4-0.3-1-0.8-1.8c-0.2,0-0.2,0.2-0.1,0.6c0.1,0.3,0.2,0.5,0.2,0.6l-0.2,0.1c-0.6-0.4-1-1-1.2-1.8h-0.3c0,0.2,0,0.4,0.1,0.7
		c0,0.3,0,0.5,0,0.7h-0.3v-0.3c-0.4-0.3-0.7-0.6-0.8-0.7c-0.1-0.1-0.2-0.3-0.2-0.6c-0.1-0.3-0.2-0.5-0.3-0.7l-0.1-0.1
		c-0.1,0.4-0.1,1,0,2c-0.1,0.1-0.3,0.2-0.4,0.3c-0.4-1.2-0.8-1.9-1.2-2.1c0,0.3-0.1,0.7-0.1,1.3H72c-0.3-0.5-0.5-0.9-0.8-1
		c-0.1,0.1-0.2,0.2-0.2,0.4c-0.1,0.2-0.1,0.4-0.2,0.7c0,0.3-0.1,0.4-0.1,0.5h-0.2l-0.1-0.1c0.1-0.2,0-0.7-0.4-1.4h-0.1l-0.1,0.1
		c-0.1,1-0.3,1.7-0.4,1.9L69,25.7c0.1-0.3,0-0.6-0.3-0.6c-0.2,0.9-0.6,1.4-1.1,1.4v-0.9h-0.2l-0.4,1.8h-0.2c0-0.1-0.1-0.2-0.1-0.3
		c0-0.1,0-0.2-0.1-0.3c0-0.1-0.1-0.1-0.2-0.1c0,0.1-0.1,0.4-0.2,0.7s-0.1,0.6-0.2,0.8c-0.1,0-0.2-0.2-0.3-0.4
		c-0.1-0.2-0.2-0.3-0.2-0.4l-0.1-0.1c0,0-0.1,0-0.1,0.1c0.3,0.7,0.2,1.3-0.1,1.8c-0.1,0-0.3-0.1-0.4-0.3s-0.2-0.2-0.3-0.3l0.2,1.6
		l-0.2,0.1l-0.5-0.3L64,30.2v0.1l0.5,2l-0.4,0.2l0.1,0.1c0.1,0,0.2,0,0.3,0.1l-0.3,0.3c-0.1,0-0.4-0.2-0.7-0.3
		c0,0.2,0.1,0.4,0.3,0.6c0.2,0.2,0.2,0.3,0.3,0.4v0.6c0,0.1,0.2,0.3,0.4,0.5c0.2,0.2,0.4,0.3,0.5,0.5l-0.1,0.1h-0.9l0.1,0.2
		c0.3,0.1,0.6,0.4,1.1,0.8l-0.1,0.3c0.5,0.4,0.8,0.8,0.9,1.2l-0.3,0.2l0.1,0.1c0.6,0.2,0.9,0.3,1,0.5l-0.4,0.4l0.1,0.1
		c0,0,0.2,0,0.4,0.1c0.2,0.1,0.4,0.1,0.6,0.2c0.2,0.1,0.3,0.2,0.3,0.3l-0.3,0.3V40c0.6,0,0.9,0.2,1.1,0.5l0.1,0.6
		c0.7,0,1.3,0,1.8,0.1v0.2c-0.1,0.1-0.2,0.2-0.1,0.3c0.7-0.3,1.3-0.4,1.9-0.4v0.6c0.1,0,0.3-0.2,0.6-0.3c0.3-0.2,0.5-0.2,0.8-0.2
		l0.1,0.4l0.1-0.1l0.8-0.6c0.1,0,0.3,0.1,0.6,0.4l0.5-0.4c0.3-0.3,0.6-0.4,0.8-0.5l0.5,0.3c0.3-0.5,0.7-0.8,1.2-0.8l0.2,0.1
		c0,0.1,0,0.2,0.1,0.3h0.1c0-0.1,0.3-0.6,0.7-1.3l0.4,0.1c0.1,0.3,0.2,0.6,0.3,0.7l0.7-1.5c0,0,0.1,0,0.2,0c0.1,0,0.1,0.1,0.2,0.1
		c0,0.1,0.1,0.2,0.2,0.2c0.1-1.2,0.7-1.8,1.7-2v0.6c0.1,0,0.3,0,0.4,0.1c-0.3,0.6-0.4,1-0.4,1c0,0.1,0.1,0.3,0.2,0.5
		c0.2,0.2,0.2,0.3,0.3,0.4c0,0.1,0,0.2-0.2,0.4l-0.4-0.1v0.1c0,0.1,0.1,0.3,0.3,0.5c0.1,0.3,0.2,0.5,0.3,0.7
		c0.1,0.2,0.1,0.4,0.1,0.6h-0.2l-0.5-0.1c0,0.1,0.1,0.3,0.2,0.6c0.1,0.3,0.2,0.5,0.3,0.7c0,0.2,0,0.4-0.1,0.6l-0.6-0.2v0.1
		c0.5,0.8,0.6,1.4,0.5,1.8c-0.3-0.2-0.6-0.3-0.7-0.3l0.6,1.6c-0.1,0.1-0.1,0.2-0.1,0.2H82c0.5,1.1,0.7,1.8,0.7,2h-0.2l-0.4-0.2
		c0,0,0.1,0.3,0.3,0.7c0.2,0.5,0.2,0.8,0.1,1L82,50V50l0.7,1.6c0,0,0,0.1,0,0.2l-0.1,0.1h-0.2c-0.1-0.2-0.2-0.3-0.5-0.3
		c0.5,1.1,0.6,1.8,0.5,2.1L82,53.4h-0.1c0.4,0.8,0.5,1.5,0.2,2.1l-0.1,0.1c-0.1,0-0.2-0.1-0.4-0.1c-0.2,0-0.3-0.1-0.4-0.1v0.1
		c0.1,0,0.2,0.1,0.3,0.2l-0.1,0.1c0,0-0.1,0.1-0.2,0.1l-1.6-0.3v0.1l0.5,0.5c0,0-0.1,0.1-0.1,0.2l-0.2,0.1c-0.2-0.1-0.5-0.1-0.9-0.2
		c-0.4,0-0.6,0-0.7,0l0.3,0.3v0.3c-0.7-0.2-1.2-0.3-1.6-0.3c0,0.1,0,0.3-0.1,0.5c-0.3,0-0.6-0.1-1-0.2c-0.4-0.1-0.6-0.2-0.7-0.3
		l0.2,0.6l-0.1,0.1c-0.2,0-0.5,0-0.8-0.3c-0.3-0.2-0.5-0.3-0.6-0.3c0,0.2,0,0.4-0.1,0.6h-0.3c-0.1,0-0.4-0.2-0.8-0.5
		c-0.4-0.3-0.8-0.5-1.1-0.6v0.1c0.2,0.4,0.2,0.6,0.2,0.8c-0.2,0-0.5-0.2-1-0.4c-0.4-0.2-0.8-0.3-1-0.4c0,0.1,0.1,0.2,0.2,0.3
		c0.1,0.1,0.2,0.2,0.2,0.3l0.1,0.5l-0.1,0.1h-0.1c-0.2-0.2-0.8-0.5-1.8-0.9v0.1c0.1,0.3,0.1,0.6,0,1c-0.3-0.1-0.8-0.4-1.2-0.8
		c-0.5-0.5-0.8-0.7-1-0.8H66l0.6,1.4c-0.1,0.1-0.2,0.2-0.3,0.1c-0.1-0.2-0.4-0.6-0.9-1.1c-0.5-0.5-0.9-0.8-1.1-0.8l-0.1,0.1
		c0,0,0,0.2,0.1,0.3c0.1,0.2,0.2,0.3,0.2,0.5c0.1,0.2,0.1,0.2,0,0.3c0,0,0,0.1-0.1,0.1c0,0-0.1,0-0.1,0c-0.6-0.4-1-0.7-1.2-0.8
		l-0.6-0.9c0,0-0.2-0.1-0.3-0.2c0,0,0,0.2,0,0.4c0,0.2,0.1,0.4,0,0.6c0,0.2-0.1,0.2-0.2,0.2L61.7,56c-0.2-0.6-0.5-1-0.9-1.3
		l-0.1,0.1c0.1,0.7,0.2,1.1,0.1,1.2h-0.1c0,0-0.1-0.1-0.1-0.1c-0.2-1-0.6-1.6-1.1-1.7c0.1,0.3,0.1,0.5-0.1,0.6c0,0-0.1,0-0.3-0.1
		c-0.1-0.7-0.4-1.2-1-1.4c0.2,0.4,0.2,0.8,0.1,1.1H58c-0.1-0.2-0.3-0.5-0.6-0.9c-0.2-0.4-0.4-0.7-0.6-0.9h-0.2c0,0.3,0,0.6-0.1,0.7
		l-0.1-0.1c0,0-0.1,0-0.1-0.1c-0.4-1.1-0.8-1.6-1-1.7c0,0.5-0.1,0.8-0.2,1.1L55,52.6c0-0.1-0.1-0.4-0.2-0.8
		c-0.1-0.4-0.2-0.8-0.3-1.2c-0.1-0.3-0.2-0.6-0.4-0.7L54.1,50c0.1,0.5,0.1,0.9,0.1,1.2H54c-0.2-0.2-0.4-0.5-0.6-1.1
		c-0.2-0.6-0.4-0.9-0.6-1.1c0,0.6-0.2,0.8-0.5,0.8l-0.1-0.1c0-0.1,0-0.4-0.1-0.9c0-0.5-0.1-0.9-0.3-1.1c0,0.1-0.1,0.3-0.1,0.6
		c0,0.3,0,0.5-0.1,0.6h-0.2c0-0.1-0.2-0.4-0.3-0.8c-0.2-0.4-0.3-0.8-0.3-1.2c-0.4,0.1-0.6,0.1-0.6,0.1c0-0.3,0-0.6,0-1
		c-0.2,0-0.4,0-0.5,0l0.1-0.5c0-0.3,0-0.6,0-0.8c0-0.2-0.1-0.3-0.3-0.4c0,0.4-0.1,0.6-0.3,0.7l-0.1,0.1l-0.1-0.6
		c0-0.4-0.1-0.8-0.1-1.1s0-0.6,0-0.7h-0.1l-0.5,0.8l-0.3-0.1v-2h-0.1c-0.1,0.3-0.3,0.6-0.5,0.7L47.5,42c-0.1-0.3-0.1-0.5-0.1-0.7
		c0-0.2,0.1-0.4,0.1-0.7s0.1-0.5,0.1-0.6h-0.2c-0.1,0.2-0.2,0.3-0.3,0.4c0,0-0.1,0-0.3-0.1c0.3-1.3,0.5-2,0.5-2.3l-0.1-0.1
		c0,0.1-0.2,0.3-0.4,0.4c-0.2,0.1-0.4,0.2-0.5,0.1c0.4-0.8,0.6-1.4,0.6-1.8c0,0-0.1,0.1-0.3,0.2c-0.2,0.1-0.3,0.1-0.4,0.1
		c0-0.3,0.1-0.6,0.3-1c0.2-0.4,0.3-0.7,0.3-1c-0.1,0-0.2,0.1-0.2,0.1c-0.1,0-0.1,0.1-0.2,0.1c-0.1,0-0.1,0-0.2,0
		c0.3-0.8,0.5-1.4,0.5-1.8h-0.1c0,0.1-0.2,0.1-0.3,0l0.5-1.2l-0.5,0.2l-0.1-0.2l0.8-1.4h-0.2l-0.3,0.3c0,0-0.1-0.1-0.3-0.2
		c0.2-0.7,0.5-1.2,0.8-1.5v-0.1c-0.2,0-0.3-0.1-0.3-0.3c0.4-0.7,0.8-1.3,1-1.8c-0.5,0.1-0.8,0.1-0.8,0.1l0.1-0.3
		c0.4-0.1,0.7-0.5,0.9-1.2c-0.2,0-0.3-0.1-0.3-0.3c0-0.1,0.2-0.3,0.5-0.7c0.3-0.3,0.5-0.6,0.6-0.9c-0.4,0.1-0.7,0.1-0.8,0.1
		c0-0.1,0-0.2,0.3-0.4c0.2-0.2,0.5-0.4,0.7-0.6c0.3-0.2,0.4-0.4,0.5-0.5c-0.1,0-0.2,0.1-0.3,0c-0.1,0-0.1-0.1-0.1-0.2
		c0.1-0.2,0.3-0.5,0.7-0.8c0.4-0.3,0.6-0.6,0.7-0.8c-0.5,0.2-0.8,0.2-0.9,0.2c0-0.2,0.2-0.4,0.3-0.6c0.2-0.2,0.4-0.3,0.6-0.5
		c0.2-0.2,0.4-0.3,0.5-0.4l-0.1-0.3c0.1-0.1,0.3-0.3,0.7-0.6c0.4-0.3,0.6-0.5,0.7-0.7l-0.8,0.1l0.2-0.4c0.3-0.1,0.6-0.4,0.8-0.8
		c0.3,0,0.7-0.1,1.1-0.3l-0.1-0.1c-0.3-0.2-0.5-0.3-0.5-0.3l0.3-0.5c0.2,0,0.4,0,0.8-0.1l-0.1-0.1c-0.1,0-0.1-0.2-0.1-0.3
		c0.1-0.1,0.2-0.2,0.4-0.3c0.2-0.1,0.4-0.2,0.7-0.3c0.3-0.1,0.5-0.2,0.7-0.3l-0.3-0.2c0-0.3,0.1-0.5,0.3-0.6c0.1-0.1,0.3-0.1,0.6,0
		c0.3,0.1,0.5,0.1,0.6,0c-0.2-0.2-0.3-0.4-0.3-0.6c0.2-0.1,0.6-0.2,1.4-0.3v-0.2l-0.3-0.3c0,0,0.1-0.1,0.1-0.1l0.3-0.3
		c0.1,0,0.6,0,1.4,0.1c0-0.1-0.1-0.3-0.2-0.4c-0.1-0.2-0.2-0.3-0.2-0.4c0.2,0,0.7,0,1.4,0.2v-0.1c0,0-0.1-0.1-0.2-0.3
		c-0.1-0.1-0.2-0.3-0.2-0.5c0.2-0.4,0.8-0.5,1.9-0.1L61.4,10c0.1-0.1,0.2-0.2,0.2-0.3c0.2-0.1,0.5,0,1.1,0.2
		c0.5,0.2,0.9,0.2,1.1,0.1c-0.2-0.2-0.3-0.3-0.3-0.5c0.4-0.2,0.7-0.3,0.7-0.3c0.1,0,0.2,0.1,0.4,0.3c0.2,0.2,0.4,0.4,0.6,0.5
		l0.1-0.8c0.1,0,0.2-0.1,0.2-0.2C65.6,9,65.8,9.1,66,9.3c0.2,0.2,0.4,0.3,0.5,0.4l0.1-0.1c-0.2-0.5-0.1-0.9,0.3-1.2
		c0.4,0,0.8,0.3,1.2,0.8l0.4-1H69c0.1,0,0.2,0.2,0.4,0.3c0.2,0.2,0.3,0.3,0.4,0.4c0-0.3,0-0.5,0-0.7C70.5,8,71,7.9,71,7.9
		c0,0.3,0,0.6,0,1h0.1c0.7-0.7,1.1-0.8,1.3-0.5l-0.1,0.4h0.1c0.7-0.3,1.2-0.4,1.6-0.2c0,0-0.1,0.1-0.1,0.1c0,0.1-0.1,0.2-0.1,0.2H74
		c0.5-0.2,0.9-0.3,1-0.3L75.2,9c0.1,0,0.3,0,0.7-0.1c0.4-0.1,0.6-0.1,0.7,0L76.7,9l-0.3,0.4h0.2c0.7-0.4,1.3-0.5,1.7-0.3l-0.1,0.2
		c-0.3,0.1-0.5,0.2-0.6,0.5c0.1,0,0.4-0.1,0.9-0.2c0.5-0.1,0.8-0.1,1-0.1l0.1,0.2c0,0.1,0,0.2,0,0.3c0.5-0.4,0.9-0.5,1.2-0.5
		c0,0,0.1,0.1,0.1,0.2c-0.1,0.1-0.3,0.4-0.6,0.8c0.8-0.3,1.5-0.5,2.1-0.5c0,0.3,0.1,0.5,0.4,0.7c0.2,0.2,0.4,0.4,0.4,0.5l-0.1,0.3
		L82.4,11.5z"/>
	<path class="st0" d="M134.2,17.5v0.3c0.3,0.4,0.5,0.8,0.6,1.2l-0.1,0.2c-0.1,0-0.3,0-0.4-0.1c-0.1-0.1-0.2-0.2-0.3-0.2
		c0,0.1,0.2,0.4,0.4,0.9c0.2,0.5,0.4,0.8,0.4,1h-0.3l-0.6-0.3v0.1l-0.1,0.1c0,0.1,0.1,0.2,0.3,0.4s0.2,0.4,0.3,0.6
		c0.1,0.2,0.1,0.3,0.1,0.5h-0.6l0.6,1.3v0.3l-0.1,0.1c0,0-0.1,0-0.1,0l-0.6-0.2v0.1c0,0.1,0.2,0.3,0.4,0.6c0.2,0.3,0.3,0.5,0.4,0.8
		c0.1,0.2,0.1,0.4,0.1,0.6l-0.6-0.1v0.1c0.4,0.8,0.5,1.4,0.5,1.8c-0.2-0.1-0.4-0.2-0.7-0.3c0,0,0.1,0.3,0.4,0.9
		c0.2,0.5,0.3,0.9,0.2,1.1c-0.1,0-0.2,0-0.3-0.1s-0.2-0.1-0.3-0.1c0,0.1,0.1,0.3,0.3,0.6c0.1,0.2,0.2,0.5,0.3,0.7
		c0.1,0.2,0.2,0.4,0.2,0.6c-0.1,0-0.3,0-0.4-0.1s-0.2-0.1-0.3-0.1c0.4,1.1,0.6,1.7,0.5,1.9l-0.6-0.2c0.6,1.1,0.8,1.9,0.7,2.3
		l-0.7-0.2c0,0.1,0.2,0.5,0.5,1c0.3,0.6,0.3,1,0.3,1.4h-0.2c-0.2-0.2-0.3-0.3-0.5-0.3v0.3c0.4,0.9,0.6,1.6,0.5,2h-0.2l-0.5-0.1
		c0,0,0.1,0.3,0.4,0.9c0.3,0.5,0.3,1,0.3,1.5c-0.3-0.2-0.5-0.3-0.5-0.3c0,0.1,0.1,0.3,0.2,0.6c0.1,0.3,0.2,0.5,0.3,0.7
		c0.1,0.2,0.1,0.4,0.1,0.7c-0.3-0.1-0.6-0.1-0.7-0.1c0.5,1.3,0.8,2.1,0.8,2.3l-0.1,0.1c-0.1,0-0.2,0-0.3-0.1
		c-0.1-0.1-0.3-0.1-0.4-0.2v0.1l1,2.6c0,0-0.1,0-0.1,0.1h-0.2c0-0.1-0.1-0.2-0.2-0.2v0.2c0.3,1.1,0.5,1.8,0.3,2.2l-0.6-0.3l-0.1,0.1
		l0.8,2.4c-0.1,0-0.1,0-0.1,0.1l-0.5-0.2c0,0.1,0.2,0.4,0.3,0.7c0.2,0.4,0.2,0.7,0.2,0.9h-0.2l-0.3-0.1l0.6,1.9l-0.1,0.1
		c-0.1,0-0.3-0.1-0.4-0.2c-0.2-0.1-0.3-0.2-0.4-0.2c0,0.3,0.2,0.6,0.4,1.1c0.2,0.5,0.3,0.7,0.3,0.7l-0.2,0.1
		c-0.3-0.3-0.6-0.5-0.8-0.6l0.3,0.5c0,0,0,0.1-0.1,0.2c-0.5-0.3-0.9-0.5-1.3-0.5c0.1,0.2,0.1,0.4,0,0.5c-0.1,0.1-0.4,0-0.7-0.3
		c-0.3-0.3-0.6-0.4-0.7-0.4c0,0.1,0,0.2,0.1,0.4c0.1,0.2,0.1,0.4,0.1,0.6c-0.2-0.1-0.4-0.2-0.8-0.5c-0.3-0.2-0.6-0.4-0.8-0.5v0.7
		h-0.3l-1-0.9c0,0-0.1,0-0.2,0.1v0.8h-0.3c-0.2-0.3-0.4-0.6-0.8-0.9l-0.1,0.1c0,0.1-0.1,0.2-0.1,0.4c0,0.2,0,0.3,0,0.4h-0.4
		c-0.2-0.4-0.5-0.6-0.7-0.6l-0.1,0.6c-0.1,0-0.2,0-0.3,0.1l-0.8-1c0,0,0,0.1-0.1,0.1l-0.5,0.9c-0.2-0.1-0.3-0.1-0.5-0.1
		c-0.1-0.3-0.3-0.5-0.5-0.7l-0.6,0.8l-0.3-0.1c0,0,0-0.2-0.1-0.4s-0.1-0.3-0.2-0.4c-0.2,0-0.3,0.1-0.4,0.2c-0.1,0.1-0.2,0.3-0.3,0.5
		c-0.1,0.2-0.2,0.3-0.2,0.4l-0.3-0.1l-0.3-0.9l-0.1,0.1c-0.3,0.4-0.6,0.6-0.9,0.6l-0.2-0.8c-0.1,0-0.3,0.1-0.7,0.4
		c-0.4,0.3-0.7,0.4-0.9,0.2c0-0.3,0.2-0.7,0.5-1.2h-0.2c0,0.1,0,0.2-0.1,0.3l-0.3-0.2c0-0.1,0.1-0.6,0.3-1.6h-0.2
		c0,0,0.1-0.6,0.3-1.6l-0.3-0.2c0-0.1,0-0.3,0.1-0.6c0.1-0.3,0.1-0.4,0.1-0.5c-0.2-0.3-0.3-0.5-0.3-0.6l0.5-1.3c-0.1,0-0.2,0-0.3,0
		c0,0-0.1-0.2-0.1-0.3l0.3-1c0,0-0.1,0-0.2,0c-0.1,0-0.2-0.1-0.2-0.1c0-0.3,0-0.6,0.2-1c0.2-0.4,0.3-0.6,0.3-0.7
		c-0.2-0.1-0.3-0.2-0.4-0.3c-0.1-0.2-0.1-0.6,0.2-1.2h-0.1c-0.1,0-0.2,0.1-0.3,0.1c0-0.4,0.2-1.1,0.6-2.2c-0.2,0.1-0.4,0.2-0.5,0.1
		c0-0.1,0.1-0.6,0.5-1.5h-0.3v-0.6c-0.2,0-0.4,0.2-0.5,0.4l-0.3-0.1c0-0.1,0.1-0.2,0.1-0.5c-0.5,0.1-0.8,0.1-0.9,0.1l-0.6,0.5
		l-0.2-0.1l0.1-0.3c0,0-0.1-0.1-0.1-0.1c-0.1,0.1-0.3,0.2-0.4,0.3c-0.1-0.1-0.2-0.2-0.2-0.4c-0.1,0-0.3,0.1-0.4,0.3
		s-0.3,0.2-0.5,0.3l-0.1-0.7H113c-0.1,0.5-0.3,0.8-0.7,0.9c0,0-0.1-0.1-0.1-0.1c0-0.4-0.1-0.7-0.2-0.8c-0.1,0.1-0.2,0.2-0.3,0.4
		c-0.1,0.2-0.2,0.3-0.3,0.4l-0.2-0.1c-0.1,0-0.1,0-0.1-0.1c0-0.6-0.1-0.9-0.3-1l-0.5,1c-0.1,0-0.2,0-0.2-0.1
		c-0.1-0.3-0.3-0.5-0.5-0.7l0.1,0.9h-0.2c0,0-0.1-0.1-0.2-0.2c-0.1-0.1-0.2-0.2-0.3-0.2c-0.1-0.1-0.2-0.1-0.3-0.2l-0.1,0.6
		c-0.1,0-0.2,0-0.3,0.1c-0.1-0.4-0.4-0.6-0.8-0.6c0.1,0.6,0.1,1.1,0.1,1.2c-0.2-0.1-0.3-0.1-0.4-0.1l0.1,0.3
		c0.1,0.1,0.3,0.3,0.4,0.7c0.2,0.4,0.2,0.7,0,0.8l-0.5-0.1c0.4,1,0.7,1.6,0.7,2c-0.1,0-0.2,0-0.3-0.1c-0.1-0.1-0.2-0.1-0.4-0.2
		c0.4,1.3,0.6,2.1,0.6,2.1h-0.1c-0.3-0.2-0.4-0.3-0.5-0.3c0.4,1,0.6,1.8,0.5,2.4l-0.4-0.2c0.3,1.4,0.4,2.2,0.4,2.2
		c-0.1,0-0.2,0-0.4-0.1c-0.1-0.1-0.2-0.1-0.3-0.1c0.3,1,0.5,1.6,0.5,1.9c-0.2,0-0.3,0-0.3-0.1c0-0.1-0.2-0.2-0.4-0.3v0.1
		c0.5,1,0.7,1.8,0.5,2.3l-0.5-0.1c0.1,0.3,0.3,0.5,0.5,0.6c0.2,0.1,0.3,0.2,0.3,0.3l-0.1,1.1c-0.1,0-0.3-0.2-0.5-0.4
		c-0.2-0.2-0.4-0.4-0.6-0.4l-0.1,0.8c0,0-0.1-0.1-0.2-0.1l-1.2-1l-0.1,0.1c0,0.1,0,0.2,0.1,0.3c0.1,0.1,0.1,0.2,0.1,0.4
		c-0.1,0-0.3,0-0.7-0.2c-0.4-0.2-0.6-0.2-0.6-0.2c-0.1,0-0.2,0.2-0.2,0.4c-0.1,0.2-0.2,0.3-0.4,0.3c-0.1-0.3-0.4-0.6-0.9-0.8
		l-0.3,0.6l-0.1,0.1c-0.1,0-0.2,0-0.2,0l-0.4-0.7h-0.2c0,0.3-0.1,0.5-0.3,0.7l-0.2-0.1c-0.2-0.4-0.3-0.6-0.5-0.6l-0.5,0.8h-0.3
		l-0.7-1c0,0-0.1,0-0.1,0.1l-0.6,0.8h-0.4l-0.5-1.3c-0.1,0-0.3,0.2-0.4,0.6c-0.2,0.3-0.2,0.5-0.3,0.6l-0.4,0.1c0-0.3-0.2-0.6-0.6-1
		H95c0,0-0.1,0.1-0.2,0.3c-0.1,0.2-0.1,0.3-0.2,0.4c-0.1,0.1-0.2,0.2-0.3,0.3c-0.1,0.1-0.2,0.1-0.4,0.1c0-0.3-0.2-0.6-0.6-0.8
		c-0.2,0.3-0.5,0.5-0.8,0.5l-0.2-0.5l-1.2,0.8c0-0.1-0.1-0.2-0.2-0.2c-0.1,0-0.2-0.1-0.2-0.1c0-0.1,0-0.2,0.1-0.5l-0.1,0.1
		c0,0-0.1,0-0.1-0.1c0-0.4,0.1-0.8,0.3-1.2c0.2-0.4,0.3-0.6,0.4-0.7c-0.1,0-0.3,0.1-0.6,0.3c-0.2,0.1-0.5,0.2-0.7,0.2v-0.1
		c0-0.1,0-0.3,0.1-0.6c0.1-0.3,0.2-0.6,0.4-0.9c0.2-0.3,0.2-0.6,0.2-0.7l-0.5,0.2v-0.1c0-0.3,0.1-0.7,0.4-1.1
		c0.2-0.4,0.4-0.7,0.4-0.9l-0.2,0.2c-0.1,0.1-0.2,0.2-0.3,0.2c0-0.3,0.1-0.5,0.3-0.8c0.2-0.3,0.3-0.5,0.3-0.7c-0.1,0-0.2,0-0.3,0.1
		c-0.1,0.1-0.2,0.2-0.3,0.2c0-0.2,0-0.4,0.1-0.7c0.1-0.3,0.1-0.5,0.1-0.6c-0.1,0-0.2,0.1-0.3,0.1l0.3-1.5l-0.3-0.2
		c0-0.3,0.2-0.8,0.5-1.5l-0.4,0.2l-0.2-0.1c0-0.2,0-0.5,0.3-0.8c0.2-0.3,0.3-0.5,0.3-0.5c-0.2,0-0.3,0-0.5-0.1l-0.1-0.3
		c0.1-0.2,0.2-0.5,0.3-0.7L90.3,43l-0.1-0.1c0-0.2,0-0.5,0.2-0.8c0.2-0.3,0.2-0.5,0.2-0.6h-0.4c0-0.4,0.2-0.8,0.5-1.2
		c0.3-0.4,0.5-0.7,0.5-1l-1,0.7L90.1,40c0-0.2,0-0.7,0.1-1.5c-0.1,0-0.2-0.2-0.2-0.3l0.5-1h-0.3c-0.4,0-0.3-0.4,0.3-1.2
		c0.3-0.3,0.4-0.6,0.5-0.7l-0.6,0.3c0,0-0.1,0-0.1-0.1c0-0.2,0.1-0.4,0.2-0.6c0.1-0.3,0.2-0.5,0.3-0.6s0.1-0.3,0-0.5l-0.1,0.1
		c0,0-0.1,0.1-0.2,0.2c-0.1,0.1-0.2,0.1-0.3,0.1L90,33.9c0.3-0.2,0.5-0.5,0.7-0.9c-0.1,0-0.2-0.2-0.3-0.3c0-0.2,0.3-0.8,0.9-2
		c-0.1,0-0.2,0.2-0.5,0.4c-0.2,0.2-0.4,0.3-0.6,0.4v-0.1c0-0.2,0-0.5,0.2-0.7c0.2-0.3,0.3-0.5,0.3-0.6c-0.2,0.1-0.3,0.1-0.4,0.1
		c-0.2-0.2-0.2-0.3,0-0.4l0.7-1.1c0,0,0-0.1-0.1-0.1l-0.4,0.3h-0.1l-0.1-0.4c0-0.1,0.1-0.3,0.2-0.6c0.1-0.3,0.2-0.5,0.2-0.7
		l-0.3-0.1c-0.1-0.2-0.1-0.5,0-0.7c0.1-0.3,0.2-0.5,0.2-0.6c-0.1,0-0.3,0.1-0.5,0.1c0-0.3,0.1-0.6,0.3-1c0.2-0.4,0.3-0.7,0.3-0.8
		c-0.1,0.1-0.3,0.1-0.4,0l-0.1-0.1c0.3-0.7,0.6-1.3,0.8-2.1c0,0-0.1,0.2-0.3,0.4s-0.3,0.3-0.4,0.4l-0.1-0.3l0.8-1.8h-0.1l-0.6,0.3
		l-0.1-0.2c-0.1-0.3,0-0.7,0.3-1.1c0.3-0.5,0.4-0.7,0.4-0.8h-0.3l-0.1-0.4c0.1-0.4,0.4-0.8,0.7-1.2c0.3-0.4,0.5-0.6,0.6-0.7v-0.1
		c-0.7,0.4-1.2,0.5-1.4,0.3c-0.2-0.3-0.1-0.8,0.3-1.5c0.4-0.6,0.6-1,0.6-1.1c-0.1,0-0.3,0.1-0.4,0.2c-0.2,0.2-0.3,0.2-0.4,0.2
		l-0.1-0.3c0.1-0.2,0.2-0.6,0.5-1.2l0.6-0.8c-0.4,0-0.7,0-0.8-0.1c0,0,0-0.3,0.1-0.9c0.2,0,0.3-0.1,0.4-0.2
		c-0.3-0.1-0.6-0.7-0.8-1.6L90.4,9c0.3,0.2,0.5,0.3,0.5,0.3L91,9.3c-0.1-0.2-0.1-0.3-0.1-0.5c0.3,0,0.6,0.1,1,0.3
		c0.3,0.2,0.6,0.4,0.7,0.4c-0.2-0.3-0.2-0.5-0.1-0.7c0.5,0.2,0.9,0.3,1,0.2c0,0-0.1-0.2-0.1-0.3c0.2,0,0.5,0.2,0.8,0.5
		c0.3,0.3,0.5,0.4,0.7,0.5c-0.1-0.4-0.1-0.6,0-0.7c0.1,0,0.3,0,0.4,0c0.2,0.1,0.3,0.1,0.5,0.2c0.2,0.1,0.3,0.2,0.4,0.2
		c-0.1-0.4-0.1-0.7,0.1-0.8c0.2,0.1,0.4,0.2,0.7,0.5c0.2,0.2,0.4,0.4,0.6,0.5c0-0.5,0.1-0.8,0.4-1c0,0,0.1,0.2,0.3,0.3
		c0.1,0.2,0.2,0.3,0.4,0.4c0.1,0.1,0.2,0.1,0.4,0.1c0-0.1,0-0.3,0.1-0.5h0.3c0.2,0.1,0.4,0.4,0.6,0.8l0.1-0.1c0.1-0.6,0.2-0.9,0.3-1
		c0.1,0,0.3,0.3,0.6,0.7c0.3-0.2,0.5-0.3,0.6-0.3c-0.2,0.2-0.2,0.3,0.1,0.3c0-0.1,0.1-0.3,0.2-0.6c0.1-0.2,0.2-0.4,0.2-0.5l0.3,0.1
		c0,0.2,0,0.3,0,0.5c0,0.2-0.1,0.3-0.1,0.5c0,0.2-0.1,0.3-0.1,0.5c0.3,0,0.6-0.3,1-0.7c0.4-0.4,0.6-0.8,0.7-1.1
		c0.2,0.1,0.3,0.2,0.3,0.3c-0.2,0.4-0.3,0.7-0.3,0.7c0.7-0.5,1.2-0.7,1.5-0.6c0,0.1,0,0.3-0.1,0.8l0.1-0.1c0.1,0,0.2-0.2,0.5-0.4
		c0.2-0.2,0.4-0.3,0.5-0.2c0.2,0,0.3,0,0.4,0.1c0,0.1,0,0.3-0.1,0.4c0.2,0,0.4,0,0.5,0c0.1,0,0.3,0.1,0.4,0.2
		c0.2,0.1,0.3,0.2,0.4,0.2c0,0.1,0,0.2-0.1,0.3c-0.1,0.1-0.2,0.2-0.3,0.2c-0.1,0.1-0.2,0.1-0.3,0.2c0,0.1,0.1,0.3,0.2,0.6
		c0.2,0.3,0.2,0.5,0.1,0.7c-0.4-0.1-0.6-0.1-0.6-0.1c0,0.1,0.1,0.3,0.3,0.6c0.1,0.3,0.2,0.5,0.3,0.7l-0.2,0.1h-0.3
		c0,0.2,0.2,0.4,0.4,0.8c0.2,0.4,0.3,0.7,0.3,0.9h-0.1c-0.1,0-0.2-0.1-0.4-0.2c-0.1-0.1-0.2-0.1-0.3-0.1v0.1c0.5,1.1,0.7,1.7,0.6,2
		l-0.6-0.1H107l0.9,1.8c0,0.1,0,0.1-0.1,0.1h-0.2c-0.1-0.1-0.3-0.2-0.5-0.2v0.1c0.3,1.2,0.6,2.1,0.6,2.5h-0.3c0-0.3-0.2-0.4-0.5-0.5
		v0.1c0.5,1.1,0.7,1.8,0.6,2.2h-0.4c0,0,0.1,0.3,0.3,0.8c0.2,0.5,0.2,0.8,0.2,1c-0.1,0-0.2-0.1-0.4-0.3c-0.1-0.1-0.2-0.2-0.3-0.3
		l0.5,1.4c0.2,0,0.3,0,0.5-0.1l0.4-0.7h0.3l0.3,0.7c0,0,0.1,0,0.1-0.1c0-0.1,0.1-0.1,0.1-0.2c0-0.1,0.1-0.2,0.1-0.2l0.3-0.1
		c0,0,0.1,0.1,0.2,0.3c0.1,0.1,0.2,0.2,0.2,0.3c0.1,0.1,0.2,0.1,0.3,0.1c0-0.1,0-0.3,0-0.5c0-0.3,0.1-0.4,0.1-0.5h0.1
		c0.1,0.2,0.2,0.3,0.2,0.5h0.3l0.3,0.5c0,0,0-0.1,0.1-0.1c0,0,0-0.1,0.1-0.3c0.2,0,0.4,0,0.6,0.2c0.2,0.2,0.3,0.2,0.4,0.2
		c0.1-0.3,0.2-0.5,0.3-0.6c0.1,0,0.2,0.2,0.4,0.4c0,0,0.1-0.1,0.2-0.2s0.1-0.2,0.2-0.3c0.1,0.1,0.2,0.2,0.3,0.4
		c0.1,0.2,0.2,0.2,0.2,0.3l0.3-0.4h0.2l0.4,0.5l0.1-0.1c0,0,0.1-0.1,0.1-0.1c0.2-0.1,0.3-0.1,0.4,0.1c0.1,0,0.2-0.2,0.3-0.5
		c0.1-0.1,0.2-0.1,0.3-0.1c0,0.3,0.1,0.6,0.2,0.7c0.6-0.5,0.9-0.8,1-1l-0.1-0.1h-0.3v-1.4c-0.1,0-0.2,0-0.2-0.1
		c-0.1-0.2-0.1-0.4,0.1-0.7c0.2-0.3,0.2-0.5,0.2-0.6c-0.2,0-0.3,0-0.3-0.1c0-0.2,0.1-0.4,0.3-0.7c0.1-0.3,0.2-0.5,0.2-0.7
		c-0.2,0-0.3,0-0.4-0.1c0-0.2,0-0.3,0-0.5c0-0.2,0.1-0.4,0.2-0.6c0.1-0.2,0.2-0.4,0.2-0.5l-0.1-0.2c-0.1-0.3,0-0.8,0.4-1.5
		c0,0-0.1,0-0.1-0.1c-0.1,0-0.2,0.1-0.4,0.1c-0.2-0.5-0.1-1,0.3-1.6l-0.4-0.1c0-0.3,0-0.6,0.2-1c0.2-0.4,0.2-0.6,0.2-0.8
		c-0.1,0-0.2,0.1-0.4,0.1c0-0.3,0.1-0.8,0.4-1.6c-0.2,0.1-0.3,0.1-0.4,0.1l-0.1-0.1c0-0.4,0.2-0.8,0.5-1.3c-0.1-0.2-0.3-0.3-0.6-0.4
		c0-0.2,0.1-0.3,0.2-0.5c0.3,0,0.6,0,0.9,0.2c0.3,0.2,0.6,0.2,0.7,0.3V9.3l-0.2-0.7l0.2-0.1c0.1,0,0.3,0.2,0.6,0.5
		c0.3,0.3,0.5,0.4,0.6,0.5V9l-0.1-0.4c0.1,0,0.1,0,0.1-0.1c0.3,0,0.6,0.2,0.9,0.4c0.3,0.2,0.5,0.4,0.6,0.4c-0.1-0.6,0-0.9,0.3-1
		c0.1,0,0.2,0.1,0.3,0.2c0.1,0.1,0.2,0.2,0.3,0.2l0.2,0.5l0.3-0.1c0.2-0.3,0.4-0.5,0.6-0.5c0,0,0.1,0.2,0.2,0.3
		c0.1,0.2,0.2,0.3,0.2,0.5h0.2c0,0,0.2-0.2,0.3-0.5c0.2-0.3,0.3-0.5,0.5-0.6l0.1,0.1c-0.1,0.2-0.1,0.4,0,0.7h0.1
		c0-0.1,0.1-0.2,0.3-0.4c0.1-0.2,0.2-0.2,0.2-0.3h0.2c0,0.2,0.1,0.3,0.2,0.5c0.1-0.1,0.3-0.2,0.4-0.2l0.3,0.5c0.1,0,0.3-0.1,0.4-0.2
		c0.1-0.1,0.3-0.2,0.4-0.4c0.1-0.2,0.2-0.2,0.3-0.3h0.2c0,0.1,0,0.2,0.1,0.2c-0.2,0.3-0.3,0.6-0.3,0.8c0.2,0,0.3-0.1,0.5-0.2
		c0.2-0.1,0.3-0.2,0.5-0.4s0.3-0.3,0.4-0.4l0.3,0.1c0,0,0,0.1,0,0.2c0,0.1,0,0.2,0,0.2c0.1,0,0.3-0.1,0.6-0.2
		c0.3-0.1,0.6-0.2,0.8-0.1v0.2L130.4,9c0.1,0,0.3-0.2,0.5-0.3c0.2-0.2,0.3-0.3,0.4-0.3l0.2,0.1c0,0-0.1,0.1-0.1,0.2
		c0,0.1,0,0.2-0.1,0.2c0.1,0,0.3-0.1,0.6-0.3c0.3-0.2,0.5-0.2,0.7-0.2l0.1,0.3l0.5-0.2c0.1,0.1,0.2,0.2,0.5,0.3
		c0.2,0.1,0.4,0.2,0.5,0.3L134,9.3c0,0.1-0.2,0.3-0.3,0.4c0.1,0.2,0.3,0.3,0.5,0.5c0.3,0.2,0.4,0.3,0.5,0.4v0.2
		c-0.6,0-0.9,0-0.9,0.1c0,0.1,0,0.3,0,0.5c0.1,0.2,0.2,0.4,0.4,0.6c0.2,0.2,0.3,0.3,0.3,0.4c0,0.1,0,0.2-0.1,0.2
		c0,0-0.1,0.1-0.2,0.1l-0.8-0.2v0.1l0.1,0.1c0,0.1,0.2,0.2,0.4,0.5c0.2,0.2,0.4,0.5,0.6,0.7c0.1,0.2,0.1,0.4,0,0.6
		c-0.1,0-0.3-0.1-0.4-0.3c-0.2-0.2-0.3-0.2-0.4-0.3l-0.1,0.1c0.3,0.7,0.7,1.3,1.2,2v0.1c-0.1,0-0.2,0-0.3,0.1
		c-0.4-0.4-0.6-0.6-0.8-0.6l-0.1,0.1c0,0.1,0.2,0.4,0.6,0.9c0.3,0.5,0.5,0.9,0.6,1.2C134.9,17.7,134.6,17.7,134.2,17.5z"/>
	<path class="st0" d="M187.8,30.7l-0.1,0.3c-0.1,0-0.2,0-0.3-0.1c-0.1-0.1-0.2-0.1-0.3-0.1c-0.1,0-0.2,0-0.3,0
		c0.5,0.8,0.8,1.4,0.8,1.6l-0.1,0.3h-0.6c0,0.1,0.2,0.4,0.4,0.8c0.2,0.4,0.3,0.8,0.3,1l-0.3,0.1c-0.3-0.3-0.6-0.4-0.8-0.4l0.1,0.1
		c0.6,0.8,0.9,1.5,0.8,2l-0.1,0.2c-0.1,0-0.2,0-0.2-0.1c-0.1,0-0.2,0-0.2-0.1c-0.1-0.1-0.2-0.1-0.3-0.2v0.1c0.3,0.7,0.5,1.3,0.5,1.8
		l-0.1,0.1c-0.1,0-0.2,0-0.4-0.1c-0.2-0.1-0.3-0.1-0.4-0.2c0,0.2,0.2,0.5,0.4,0.8c0.2,0.3,0.4,0.6,0.4,0.8l-0.1,0.1h-0.1l-0.4-0.3
		h-0.1v0.1c0.3,0.8,0.3,1.4,0.1,1.8l-0.7-0.2c0,0.3,0,0.7,0.1,1c0.1,0.4,0.1,0.7,0.1,0.9c-0.2,0-0.4,0-0.6-0.2
		c-0.2-0.2-0.3-0.2-0.5-0.2c0.1,0.3,0.1,0.7,0,1.3c-0.1,0.6-0.2,1-0.4,1.2h-0.3c-0.1-0.3-0.2-0.5-0.3-0.7l-0.1,0.1
		c0,0.3,0,0.7-0.1,1.2c-0.1,0.5-0.2,0.9-0.3,0.9l-0.3,0.1c-0.1-0.2-0.3-0.3-0.5-0.5l-0.1,0.1c0,1,0,1.6-0.1,1.8h-0.3l-0.2-0.2
		c-0.3-0.1-0.4-0.1-0.5-0.1c-0.1,1.1-0.3,1.9-0.5,2.3l-0.3,0.1c0-0.2-0.2-0.6-0.5-1.2h-0.1v0.3c-0.3,1.3-0.5,1.9-0.6,2l-0.2,0.1
		c-0.3-0.3-0.6-0.5-0.8-0.6c0,0.3-0.2,0.8-0.5,1.3l-0.3-0.1c0-0.3-0.1-0.4-0.3-0.5c-0.1,0.4-0.4,0.9-0.7,1.5l-0.3,0.1
		c-0.1-0.3-0.2-0.6-0.3-0.7l-0.2,0.1c0,0.1-0.2,0.3-0.4,0.6c-0.2,0.3-0.4,0.6-0.5,0.8l-0.3-0.1c-0.1-0.3-0.2-0.5-0.4-0.6
		c0,0.1-0.2,0.3-0.5,0.7c-0.3,0.3-0.5,0.6-0.6,0.8l-0.3,0.1l-0.4-0.7c-0.2,0.1-0.5,0.3-0.8,0.7c-0.3,0.4-0.7,0.6-1,0.7l-0.3-0.1
		l0.1-0.5c0-0.2-0.1-0.3-0.2-0.3c-0.3,0.3-0.6,0.7-1.2,1.2l-0.3-0.1c0-0.2,0-0.4-0.1-0.7h-0.3c0,0-0.2,0.2-0.4,0.4
		c-0.2,0.2-0.3,0.4-0.4,0.6h-0.3c-0.1-0.4-0.3-0.6-0.4-0.7c-0.8,0.7-1.3,1-1.6,1.1l-0.3-0.2c0.1-0.2,0.1-0.4,0-0.6l-0.2,0.2
		c-0.1,0-0.3,0.2-0.5,0.4c-0.3,0.2-0.5,0.3-0.7,0.2l-0.1-0.2c0.1-0.2,0.1-0.3,0-0.5c-0.6,0.5-1.1,0.9-1.5,1l-0.2-0.4
		c0,0-0.1,0.1-0.1,0.2c-0.2,0.3-0.4,0.4-0.6,0.2c0-0.1,0-0.3,0-0.7c-0.1-0.3-0.2-0.5-0.3-0.5c0,0.6-0.1,0.9-0.3,1h-0.2l-0.1-0.1
		c0,0,0-0.1-0.1-0.3c0-0.1-0.1-0.2-0.1-0.3c0-0.1-0.1-0.2-0.1-0.3s-0.1-0.2-0.2-0.2c0,0-0.1,0-0.2,0c0,0-0.1,0-0.1,0.1l-0.2,1.2
		l-0.4-0.2l-1-1.5l-0.2,0.1c0,0.7,0,1.1-0.1,1.2c0,0-0.1-0.1-0.1-0.1c-0.1,0-0.3-0.3-0.7-0.7c-0.4-0.4-0.7-0.6-1-0.6
		c0.1,0.4,0.1,0.7,0.1,0.8c0,0-0.1,0.1-0.3,0.1c-0.2-0.1-0.5-0.4-0.7-0.8c-0.3-0.4-0.5-0.7-0.7-0.8l-0.2,0.1c0,0.1,0,0.3,0,0.5
		c0,0.2,0,0.3,0,0.5l-0.2,0.2h-0.2c-0.1-0.3-0.4-0.6-0.7-0.9c-0.3-0.3-0.5-0.6-0.6-0.7h-0.1l-0.1,1.2c0,0-0.1,0-0.2,0.1h-0.1
		c-0.1-0.1-0.2-0.2-0.4-0.3c-0.2-0.1-0.3-0.2-0.4-0.2c-0.1-0.1-0.2-0.3-0.4-0.6c-0.2-0.3-0.3-0.6-0.5-0.7l-0.1,1l-0.1,0.1
		c-0.3-0.1-0.6-0.5-1-1.2c-0.3-0.6-0.6-1.1-0.8-1.2c0.1,0.7,0.1,1.1-0.1,1.2H148l-0.7-0.8l-0.5-1c-0.1,0.4-0.2,0.7-0.3,1h-0.3
		l-1.1-2.1v0.5c-0.1,0.1-0.2,0.2-0.3,0.1c-0.1-0.1-0.3-0.4-0.6-0.9c-0.3-0.5-0.5-0.8-0.6-0.9l-0.2,0.8h-0.3c-0.6-1.2-1-1.9-1.2-2.1
		l-0.2,0.7l-0.2,0.1c-0.1-0.1-0.3-0.4-0.4-1c-0.1-0.6-0.3-0.9-0.4-1.1c-0.1,0.4-0.3,0.6-0.6,0.6l-0.3-0.8c0,0,0-0.2-0.1-0.6
		c0-0.4-0.1-0.6-0.1-0.8l-0.2,0.5h-0.3l-0.1-0.1l-0.1-1.6c-0.1,0-0.2,0.1-0.3,0.3c-0.1,0.1-0.2,0.2-0.2,0.3l-0.2-0.1
		c0,0,0-0.3-0.1-0.9c-0.1-0.6-0.2-0.9-0.3-1c0,0.1-0.1,0.3-0.3,0.4c0-0.1-0.1-0.1-0.3-0.1c0-1.6,0-2.4-0.1-2.5
		c-0.2,0.2-0.3,0.2-0.5,0.2c-0.1-0.2-0.1-0.6,0.1-1.2c0.2-0.6,0.2-1,0.2-1.1l-0.1,0.2c-0.1,0-0.3,0.2-0.5,0.4l-0.1-0.1l-0.2-0.1
		c0.5-1,0.7-1.7,0.5-2.1c-0.3,0.1-0.5,0.3-0.6,0.7h-0.4c0-0.4,0.2-0.9,0.6-1.4c0.3-0.5,0.5-0.8,0.6-1.1c-0.3,0.1-0.6,0.3-1.1,0.7
		l-0.2-0.1c0-0.3,0.2-0.7,0.5-1c0.3-0.4,0.4-0.7,0.5-0.8c-0.1,0-0.3,0.1-0.7,0.2c-0.4,0.1-0.6,0.1-0.6,0c0.2-0.6,0.6-1.2,1.2-1.7
		l-0.1-0.1c-0.4,0.2-0.7,0.2-0.8,0.1c0.1-0.3,0.3-0.6,0.6-1c0.3-0.4,0.5-0.7,0.6-0.9l-0.7,0.3v-0.1l-0.1-0.2l0.5-0.8v-0.5l0.5-0.8
		l-0.1-0.1h-0.1c-0.3,0.5-0.6,0.7-1,0.8c0-0.3,0.2-0.7,0.5-1.1c0.3-0.4,0.5-0.7,0.5-0.9c-0.1,0-0.2-0.1-0.2-0.3v-0.1
		c0.1,0,0.3-0.3,0.6-0.6c0.3-0.4,0.5-0.7,0.6-0.8L137,25c0-0.2,0-0.4,0.1-0.5c0.1,0,0.4-0.2,0.8-0.5c0.4-0.3,0.7-0.6,0.7-0.7
		c-0.6,0.1-1,0.1-1.2,0.1l-0.1-0.2h0.1c0.1-0.1,0.3-0.2,0.6-0.4c0.3-0.2,0.5-0.3,0.6-0.5c-0.1,0-0.2,0-0.3-0.1V22
		c0.1-0.2,0.4-0.5,0.7-0.7c0.4-0.3,0.6-0.5,0.7-0.7c-0.1,0-0.3-0.1-0.6-0.3l0.1-0.3c0.7-0.1,1.2-0.5,1.6-1c-0.7,0.1-1.2,0-1.3-0.3
		l0.1-0.3c0.5,0,1-0.2,1.4-0.5l-0.3-0.2c0-0.1,0-0.2,0.1-0.3c0.6,0,1.1-0.2,1.2-0.7c0,0-0.2-0.1-0.3-0.1c-0.2,0-0.3-0.1-0.3-0.2
		c0-0.1,0-0.3,0.1-0.5c0.3,0,0.7-0.2,1.4-0.5c0.7-0.3,1.1-0.5,1.1-0.6c-0.6-0.1-1-0.2-1-0.3l0.1-0.2c0.5-0.1,1.1-0.3,2-0.5h-0.3
		c0-0.3,0-0.5,0.1-0.5c0.1,0,0.4-0.1,0.7-0.2c0.3-0.1,0.7-0.2,0.9-0.2l-0.3-0.3l0.1-0.1l0.2-0.2c0.2,0,0.4,0,0.7-0.1
		c0.3-0.1,0.5-0.1,0.7-0.1c0-0.1-0.2-0.2-0.3-0.3c0-0.1,0-0.2,0.1-0.4c0.7,0,1.1-0.1,1.4-0.3c-0.1-0.2-0.2-0.3-0.2-0.5
		c0.5,0,1.1-0.1,2-0.1v-0.1l-0.3-0.3c0.1-0.2,0.4-0.2,0.7-0.2c0.3,0.1,0.6,0.1,0.7,0l0.1-0.2c0.2,0,0.6,0,1.2,0c0.6,0,0.9,0,1,0V9.8
		c-0.3-0.2-0.4-0.3-0.5-0.5l0.1-0.1c0.1-0.1,0.3-0.1,0.6,0c0.3,0.1,0.6,0.1,0.7,0V8.8c0.7-0.1,1.6-0.1,2.6,0.1V8.8l-0.1-0.4
		c0,0,0.1,0,0.1-0.1l0.3,0.1c0.1-0.1,0.1-0.2,0.1-0.2l0.9,0.3c0,0,0-0.1,0-0.3c0-0.1,0-0.3,0-0.4c0.2,0,0.4,0.1,0.6,0.3
		c0.2,0.1,0.4,0.2,0.5,0.3V8.3l-0.1-0.4l0.2-0.2h0.2c0.2,0.5,0.4,0.7,0.6,0.7c0,0,0.1-0.2,0.1-0.4c0-0.2,0.1-0.4,0.2-0.5
		c0,0.1,0.1,0.2,0.2,0.2c0,0,0.1-0.1,0.2-0.1l0.1,1c1-0.6,1.6-0.8,2-0.7l-0.1,1c0.3-0.2,0.5-0.3,0.7-0.5c0.2-0.2,0.4-0.3,0.7-0.3
		l0.2,0.2c0,0.2,0,0.4-0.1,0.5h0.1l1.8-0.7l0.2,0.2v0.2l-0.5,0.3c-0.1,0.2-0.2,0.3-0.2,0.3c0.1,0,0.3-0.1,0.7-0.2
		c0.4-0.1,0.7-0.2,1-0.2l0.3,0.3l-0.1,0.2h0.1c0.4-0.2,1.2-0.2,2.2,0.1c0.1,0.3,0.3,0.5,0.4,0.5c0,0,0.1,0,0.3,0h0.2
		c0.2,0.1,0.2,0.3,0.1,0.8h0.1c0.1,0,0.4-0.2,0.7-0.4c0.4-0.2,0.6-0.3,0.8-0.2c0.1,0.5,0.1,0.8,0,1.1l0.1,0.1
		c0.7-0.2,1.1-0.3,1.2-0.3c0,0.4,0,0.8-0.1,1l1.4-0.2V12c0,0.1-0.2,0.2-0.3,0.4v0.1c1.3,0.2,2.1,0.4,2.3,0.5v0.3l-0.1,0.1
		c-0.2,0-0.4,0.1-0.8,0.2c0,0.1,0.1,0.1,0.1,0.1c1.5,0.4,2.4,0.6,2.5,0.7l0.1,0.1c0,0-0.1,0.1-0.1,0.2c-0.2,0-0.4,0.1-0.5,0.2
		c0.7,0.2,1.3,0.4,1.6,0.6l-0.1,0.3c-0.2,0-0.4,0-0.5,0.1v0.3c0.1,0.1,0.2,0.1,0.4,0.2c0.2,0,0.3,0.1,0.4,0.1l0.8,0.6
		c0,0.1,0,0.2-0.1,0.3l-0.3,0.1l0.1,0.1c0.3,0.1,0.6,0.2,0.9,0.4c0.3,0.2,0.4,0.4,0.3,0.6l-0.6,0.1c0.2,0.2,0.6,0.4,1,0.7
		c0.5,0.3,0.8,0.5,1,0.6l-0.1,0.2c0,0-0.1,0-0.2,0c-0.1,0-0.2,0-0.2,0v0.1c0.4,0.2,1,0.8,1.8,1.8l-0.1,0.2c0,0-0.1,0-0.3-0.1
		c-0.2,0-0.3-0.1-0.4-0.1c-0.1,0-0.2,0-0.2,0.1c0.6,0.3,0.9,0.6,1.1,1l-0.2,0.5c-0.2,0-0.3,0-0.4,0.1c0.9,0.5,1.4,1.1,1.5,1.8
		c0,0-0.4,0-1-0.1v0.2c0.3,0.1,0.6,0.4,0.9,0.8c0.3,0.4,0.4,0.8,0.4,1l-0.7-0.2v0.1c0.7,0.4,1,0.9,1,1.4l-0.1,0.1
		c-0.1,0-0.3-0.1-0.5-0.1C186.8,29.7,187.2,30.2,187.8,30.7z M167.7,36.9l-0.1-0.1c0.1-0.2,0.3-0.4,0.6-0.6c0.3-0.2,0.5-0.4,0.5-0.6
		c-0.1,0-0.2,0-0.3-0.1c0-0.1,0-0.3,0.1-0.5c0.4-0.2,0.7-0.5,1-0.9c-0.4,0-0.6,0-0.7-0.1c-0.1-0.2,0-0.5,0.3-0.9
		c0.3-0.4,0.5-0.6,0.5-0.7h-0.6c0-0.3,0.2-0.6,0.3-0.9c0.2-0.3,0.3-0.6,0.3-0.7c-0.5,0.1-0.7,0.1-0.8,0c0-0.1,0-0.3,0.1-0.6
		c0.1-0.3,0.2-0.5,0.2-0.6l-0.4,0.1c-0.2,0.1-0.4,0.1-0.6,0.1c0-0.4,0.1-0.8,0.3-1.2c0.2-0.4,0.4-0.8,0.4-1h-0.2
		c-0.1,0-0.2,0.2-0.5,0.4c-0.2,0.2-0.4,0.3-0.6,0.4l-0.2-0.8l0.2-1c-0.3,0.2-0.6,0.4-0.9,0.5h-0.2c0-0.1,0-0.5,0.1-1
		c0.1-0.5,0.1-0.8-0.1-1c0-0.2-0.2-0.2-0.3-0.2l-0.7,1.4l-0.3-0.2c0-0.1,0-0.6-0.1-1.3l-0.3-0.1l-0.8,1l-0.2-0.2
		c0-0.5,0-0.8-0.1-1.1c-0.2,0.1-0.3,0.2-0.5,0.5c-0.2,0.2-0.3,0.4-0.4,0.5l-0.1-0.1c0,0-0.1-0.2-0.1-0.5s0-0.4-0.1-0.5l-0.1,0.4
		c0,0.3-0.1,0.5-0.1,0.5l-0.1,0.2c-0.1,0-0.2-0.2-0.3-0.5c-0.1-0.3-0.2-0.4-0.3-0.5c0,0,0,0.1-0.1,0.2c0,0.1-0.1,0.2-0.1,0.3
		c0,0.1-0.1,0.2-0.1,0.2c0,0.1-0.1,0.1-0.1,0.2c0,0-0.1,0.1-0.1,0.1c-0.1-0.1-0.2-0.2-0.3-0.4c-0.1-0.2-0.2-0.3-0.2-0.3h-0.2
		c0,0.1,0,0.2-0.1,0.3c-0.1,0.1-0.1,0.1-0.2,0l-0.5-0.6c0,0,0,0.1-0.1,0.1l-0.3,0.9c-0.2,0-0.3,0-0.4-0.1c-0.1-0.1-0.1-0.2-0.2-0.3
		c0-0.2-0.1-0.2-0.1-0.3l-0.2,0.1c0,0.3-0.2,0.7-0.5,1l0.1,0.5l-0.1,0.1h-0.3c-0.6-0.7-1.1-1-1.2-1c0,0.2,0.1,0.6,0.3,1
		c0.2,0.5,0.2,0.8,0.2,1c-0.2,0-0.4-0.2-0.7-0.3c-0.2-0.2-0.4-0.3-0.6-0.3c0.4,0.8,0.4,1.3,0.1,1.6c-0.4-0.3-0.8-0.4-1-0.5
		c0,0.3,0.1,0.6,0.3,0.9s0.2,0.7,0.2,1h-0.2l-0.7-0.2c0,0.1,0.1,0.2,0.2,0.4c0.1,0.2,0.2,0.3,0.2,0.5c-0.1,0.3-0.4,0.5-0.9,0.6
		c0,0.1,0.1,0.2,0.2,0.3c0.1,0.1,0.2,0.2,0.3,0.3c0.1,0.1,0.2,0.2,0.3,0.3l-0.1,0.1c0,0-0.1,0.1-0.1,0.1l-1-0.3
		c0,0.2,0.2,0.5,0.5,0.8c0.3,0.3,0.5,0.7,0.5,1l-0.1,0.1c-0.4,0-0.6,0-0.6,0.1c0.3,0.1,0.5,0.4,0.8,0.7c0.3,0.3,0.4,0.6,0.4,0.8
		l-0.1,0.2l-0.7-0.1l0.1,0.2c0.3,0.1,0.6,0.4,1,0.7c0.3,0.4,0.5,0.7,0.6,1.1l-0.2,0.2c-0.1,0-0.3-0.1-0.5-0.3
		c-0.2-0.2-0.4-0.2-0.6-0.3l0.1,0.1c0,0.3,0.4,0.7,1,1c0.6,0.3,1,0.6,1.1,0.6l-0.1,0.1c0,0-0.1,0.1-0.3,0.2s-0.2,0.1-0.3,0.2
		l0.1,0.2c0.9,0,1.4,0.1,1.6,0.3l-0.2,0.5c0.1,0,0.2,0,0.4,0c0.2,0,0.3,0,0.5,0s0.3,0,0.4,0c0,0,0,0.3-0.1,0.7h0.3
		c0.3-0.3,0.6-0.3,0.8-0.3c0.2,0.1,0.2,0.3,0.2,0.8h0.1c0.3-0.1,0.7-0.2,1-0.2l0.1,0.3c0.1,0,0.2-0.2,0.4-0.4
		c0.2-0.2,0.4-0.3,0.6-0.4l0.1,0.1c0.1,0.5,0.3,0.8,0.6,1c0,0,0.1-0.2,0.1-0.4c-0.2-0.3-0.3-0.5-0.3-0.6l0.1-0.1
		c0.1-0.1,0.1-0.2,0.1-0.2l1.1,0.6l0.1-0.1v-0.7h0.9c0,0-0.1-0.1-0.1-0.3l1.2,0.1v-0.1c-0.2-0.1-0.2-0.3-0.1-0.6l1,0.2
		c-0.2-0.5-0.2-0.7-0.1-0.8c0.1,0,0.2-0.1,0.3-0.1l0.7-0.1V39l-0.1-0.1c-0.1,0-0.3-0.2-0.5-0.3c0.1-0.2,0.3-0.4,0.7-0.6
		c0.4-0.2,0.6-0.4,0.7-0.7C167.9,37.2,167.7,37.1,167.7,36.9z"/>
	<path class="st0" d="M230.1,28.5v0.1c0.4,1,0.5,1.9,0.4,2.5h-0.3l-0.4-0.3V31c0.3,0.9,0.3,1.6,0,2l-0.6-0.3v0.2c0.2,1,0.2,1.6,0,2
		h-0.1c-0.2-0.3-0.4-0.5-0.5-0.5c0,0.6-0.1,1.2-0.3,2h-0.1H228l-0.1-0.3h-0.1l-0.1,0.1c0,0.3-0.1,0.8-0.4,1.3
		c-0.3,0.5-0.5,0.7-0.7,0.5c0.1-0.3,0-0.6-0.1-0.8c-0.2,0.9-0.5,1.6-0.9,2.1l-0.2-0.1c-0.1-0.3-0.2-0.5-0.2-0.5
		c-0.2,0.9-0.5,1.5-0.8,1.7l-0.1-0.1h-0.1l-0.1-0.1c0.1-0.2,0.2-0.4,0.1-0.6l-0.1,0.1c-0.1,0.7-0.4,1.1-0.9,1.4l-0.1-0.1
		c-0.1-0.2-0.1-0.3-0.1-0.5l-0.1,0.1c-0.1,0.5-0.4,0.9-0.8,1.2c-0.5-0.1-0.7-0.4-0.7-0.8l-0.2,0.1c0,0.3-0.1,0.6-0.2,0.8l-0.5,0.1
		l-0.3-0.5c-0.2-0.3-0.4-0.4-0.6-0.5l-0.1,0.8c-0.1,0-0.2,0.1-0.3,0.3l-0.5-0.1c-0.1-0.3-0.2-0.5-0.5-0.5l0.1,0.6
		c-0.4,0-0.7-0.1-1-0.2c-0.3-0.2-0.5-0.2-0.6-0.3v0.8c-0.1,0-0.3-0.2-0.7-0.5c-0.4-0.3-0.7-0.4-1-0.4c0.1,0.3,0.2,0.6,0.1,1h-0.3
		c-0.1-0.2-0.3-0.4-0.6-0.6c-0.3-0.2-0.5-0.4-0.6-0.5h-0.1v0.1l0.1,0.6c-0.1,0.2-0.2,0.3-0.3,0.3c-0.4-0.6-0.9-0.8-1.4-0.8l0.1,0.7
		c-0.1,0-0.2,0-0.4-0.1c-0.2-0.1-0.3-0.1-0.5-0.2c-0.2-0.1-0.3-0.2-0.4-0.2c0,0.1-0.1,0.3-0.1,0.5h-0.3c-0.5-0.3-0.9-0.4-1.2-0.5
		c0.1,0.3,0.1,0.5,0,0.7c-0.1,0-0.2-0.2-0.4-0.3c-0.2-0.2-0.4-0.3-0.6-0.3c0,0.3,0,0.5,0,0.7c-0.2,0-0.4-0.1-0.6-0.3
		c-0.2-0.2-0.4-0.2-0.6-0.3c0.3,0.4,0.3,0.7,0.1,0.9l-0.5-0.1c0,0.1,0.1,0.3,0.3,0.6c0.1,0.2,0.2,0.4,0.3,0.6c0.1,0.1,0.1,0.3,0,0.6
		c-0.1,0-0.3,0-0.5-0.1c-0.2-0.1-0.3-0.1-0.4-0.1c0,0.2,0.2,0.6,0.6,1.2c0.4,0.6,0.5,1.1,0.5,1.3l-0.1,0.2c-0.2,0-0.3-0.2-0.5-0.3
		c-0.2-0.2-0.3-0.3-0.4-0.3c0,0,0.1,0.2,0.3,0.6c0.2,0.3,0.3,0.7,0.4,0.9c0.1,0.3,0.1,0.5,0,0.7c0,0.1-0.2,0.2-0.4,0.1
		c0,0.1,0.2,0.4,0.4,0.9c0.2,0.5,0.3,0.9,0.3,1.1l-0.1,0.1c-0.1,0-0.2-0.1-0.3-0.2c-0.1-0.1-0.2-0.2-0.4-0.2c0,0.3,0.2,0.7,0.6,1.3
		c0.3,0.6,0.5,1,0.6,1.3l-0.3,0.1c-0.4-0.3-0.6-0.5-0.7-0.5v0.1l0.7,1.5l-0.1,0.3l-0.9-0.4v0.1l0.6,1.1c0,0.1-0.2,0.3-0.5,0.6
		c-0.1,0-0.3-0.1-0.5-0.2c-0.2-0.1-0.4-0.2-0.5-0.2c0,0.4,0,0.6-0.1,0.7c-0.2,0-0.5-0.2-0.9-0.5c-0.4-0.3-0.6-0.4-0.6-0.4v0.8
		c-0.2,0-0.3,0-0.5,0c-0.2,0-0.2-0.1-0.3-0.1c0,0-0.1-0.1-0.3-0.2c-0.1-0.1-0.2-0.2-0.3-0.2v0.8h-0.3c-0.1,0-0.3-0.2-0.5-0.5
		c-0.3-0.3-0.5-0.4-0.8-0.5c0,0,0,0.2-0.1,0.5c0,0.3-0.1,0.5-0.1,0.6h-0.2c-0.5-0.5-0.9-0.8-1.2-0.9c0,0,0,0.1-0.1,0.3
		c0,0.2-0.1,0.3-0.1,0.4c0,0.1-0.1,0.2-0.1,0.3c-0.2,0-0.3,0-0.4-0.1c0-0.3-0.2-0.6-0.3-0.8c-0.2-0.2-0.4-0.3-0.6-0.3l-0.2,0.7
		c-0.2,0-0.3,0-0.3-0.1c-0.1-0.5-0.4-0.7-0.8-0.7l-0.1,0.8l-0.1,0.1h-0.2c0,0-0.2-0.2-0.5-0.5c-0.3-0.3-0.5-0.4-0.6-0.5l-0.6,1.2
		l-0.1-0.1l-0.1-0.1l-0.4-1c-0.1,0-0.2,0.1-0.3,0.2c-0.1,0.1-0.2,0.2-0.3,0.4c-0.1,0.2-0.2,0.3-0.2,0.4l-0.3-0.1
		c-0.1-0.5-0.2-0.9-0.3-1.2l-1.2,1.4H191c0,0-0.1-0.1-0.1-0.1c0-0.1,0-0.2,0-0.3c0-0.1,0-0.2,0-0.3c0-0.1,0-0.2-0.1-0.2
		c-0.2,0.1-0.4,0.2-0.6,0.4l-0.1-0.1c-0.1-0.1-0.1-0.2-0.1-0.5h0.3l0.4-0.9h-0.1c-0.1,0.1-0.3,0.2-0.4,0.2l-0.2-0.1
		c0-0.1,0-0.3,0.1-0.5c0.1-0.2,0.2-0.4,0.3-0.6c0.1-0.2,0.2-0.3,0.3-0.4l-0.1-0.1c-0.4,0.2-0.6,0.2-0.6-0.1c0,0,0.2-0.4,0.5-0.9
		c0.3-0.6,0.5-0.9,0.5-1c-0.6,0.1-0.9,0.1-1,0.1l0.1-0.1c0.1-0.3,0.3-0.6,0.6-1.1c0.3-0.5,0.4-0.8,0.5-0.9c-0.2,0-0.5,0.2-0.8,0.6
		l-0.3-0.1v-0.3c0.5-0.6,0.8-1.2,1-1.9c-0.1,0-0.3,0.1-0.6,0.2c-0.2,0.1-0.4,0.2-0.6,0.1c0-0.2,0.1-0.5,0.4-0.9
		c0.3-0.4,0.6-0.7,0.8-0.8l-0.1-0.1c-0.1,0-0.2,0.1-0.4,0.2c-0.2,0.1-0.3,0.2-0.3,0.2c0,0-0.2,0-0.4,0c0-0.2,0.1-0.3,0.2-0.5
		c0.1-0.2,0.2-0.3,0.4-0.5c0.2-0.2,0.3-0.3,0.4-0.4V45h-0.3l-0.4,0.2c0,0,0-0.1-0.1-0.2l1-1.8c-0.4,0.1-0.7,0.3-0.8,0.5l-0.3-0.1
		l-0.1-0.3c0.4-0.4,0.8-1.1,1.4-2.1l-1.2,0.6l-0.3-0.2l0.1-0.1c0.1-0.2,0.3-0.5,0.5-0.8c0.3-0.4,0.4-0.7,0.5-0.8
		c-0.1,0-0.3,0-0.5,0.1c-0.2,0.1-0.4,0.1-0.5,0c0.1-0.2,0.2-0.5,0.5-0.9c0.2-0.4,0.3-0.7,0.4-0.9c-0.2,0-0.4,0.1-0.6,0.3
		c-0.2,0.1-0.4,0.2-0.5,0.3c-0.1-0.1-0.1-0.3,0-0.5c0.1-0.3,0.2-0.5,0.2-0.6s0.2-0.3,0.3-0.6c0.2-0.2,0.2-0.4,0.3-0.4
		c-0.1,0-0.3,0-0.5,0.1c-0.2,0.1-0.4,0.1-0.5,0l-0.1-0.3c0.3-0.2,0.6-0.7,1-1.5l-0.1-0.1l-0.1,0.1l-0.2,0.1h-0.3
		c0-0.3,0.1-0.7,0.4-1.1c0.3-0.4,0.4-0.7,0.5-0.9l-0.1-0.1l-0.9,0.4l-0.1-0.1V33c0.7-0.5,1.1-1.1,1.2-1.6l-0.1-0.1
		c-0.1,0-0.2,0-0.4,0c-0.1,0-0.2,0.1-0.4,0.2c-0.1,0.1-0.2,0.2-0.3,0.2l-0.1-0.1c0-0.2,0-0.4,0.1-0.5c0.2,0,0.4-0.2,0.6-0.4
		c0.2-0.2,0.3-0.4,0.4-0.6c-0.1,0-0.3-0.1-0.5,0c-0.2,0-0.3,0-0.4,0l-0.2-0.1c0.1-0.2,0.3-0.4,0.6-0.8c0.3-0.3,0.5-0.6,0.6-0.9
		l-0.1-0.1c-0.5,0.1-0.9,0.4-1,0.7l-0.3-0.2v-0.3c0,0,0.2-0.3,0.4-0.7c0.2-0.4,0.3-0.7,0.3-0.8c-0.3,0.2-0.5,0.3-0.6,0.3
		c0-0.1,0-0.3,0.1-0.6c0.1-0.3,0.2-0.6,0.4-0.9c0.2-0.3,0.2-0.5,0.3-0.6l-0.8,0.2c0-0.3,0.2-0.7,0.6-1.4c-0.1,0-0.2,0-0.3-0.1v-0.2
		c0.1-0.1,0.2-0.4,0.4-0.7c0.2-0.3,0.3-0.6,0.4-0.7c-0.1,0-0.2,0-0.2,0.1c-0.1,0-0.1,0.1-0.2,0.2c-0.1,0.1-0.1,0.1-0.2,0.2h-0.2
		c0-0.2,0-0.3-0.1-0.4c0.4-0.5,0.7-1,0.8-1.5c-0.1,0-0.2,0.1-0.4,0.3c-0.2,0.1-0.3,0.2-0.5,0.3v-0.3c0,0,0.2-0.5,0.6-1.3
		c0.1-0.1,0.2-0.3,0.4-0.5c0.2-0.2,0.2-0.3,0.3-0.3c-0.1,0-0.2,0-0.5,0.1c-0.2,0.1-0.4,0.1-0.6,0.1l-0.1-0.1c0-0.2,0.1-0.4,0.2-0.6
		c0.1-0.2,0.3-0.4,0.5-0.6c0.2-0.2,0.3-0.3,0.4-0.4c-0.1,0-0.2,0-0.4,0c-0.2,0-0.3,0-0.4,0c0-0.3,0.1-0.6,0.4-1
		c0.3-0.3,0.4-0.6,0.5-0.7h-0.9l-0.1-0.3c0.3-0.3,0.6-0.6,0.7-1c-0.3,0.1-0.5,0.2-0.7,0.1c-0.2-0.4,0-1,0.5-1.7c0,0-0.2,0-0.3,0
		c-0.2,0.1-0.3,0.1-0.5,0c0.3-0.6,0.6-1.1,1-1.4v-0.3h-0.9c0-0.2,0-0.4,0.2-0.7c0.2-0.3,0.2-0.5,0.2-0.7c-0.4-0.3-0.6-0.4-0.7-0.5
		l-0.1-0.4c0.2,0,0.6,0,1,0.1c0.5,0.1,0.8,0.2,1,0.2c0-0.1-0.1-0.3-0.2-0.5C191,8.7,191,8.6,191,8.4l0.1-0.1c0.1,0,0.1,0,0.1-0.1
		l0.3,0.1c0.1,0.6,0.5,0.9,1.1,1.1l0.1-0.8h0.2l0.7,0.7h0.1l-0.1-1h0.4c0.4,0.7,0.9,1.1,1.3,1.2l0.2-1.1c0,0,0.1,0,0.2,0.1
		s0.1,0.1,0.2,0.1l0.1,0.7c0,0,0-0.1,0.1-0.1l0.1-0.7c0.4,0,0.8,0.3,1.1,0.7c0.3,0.4,0.6,0.7,0.8,0.8V9.6c-0.2-0.6-0.1-1.1,0.2-1.3
		l0.4,0.1c0.1,0,0.2,0.1,0.3,0.2c0.1,0.1,0.2,0.2,0.2,0.4c0.1,0.2,0.1,0.2,0.2,0.3c0-0.3,0-0.5,0.1-0.6c0.5-0.1,0.9,0,1.2,0.3
		c0.3,0.3,0.5,0.5,0.6,0.5c-0.1-0.4-0.2-0.7-0.1-0.8c0.3,0,0.6,0,0.8,0.1c0.2,0,0.4,0.1,0.6,0.2s0.4,0.2,0.6,0.2
		c0.1-0.4,0.3-0.6,0.8-0.6l1.1,0.5c0.3-0.4,0.4-0.6,0.5-0.7c0.2,0,0.4,0.1,0.6,0.3c0.2,0.2,0.3,0.3,0.4,0.3c0.1-0.1,0.2-0.2,0.5-0.4
		c0.2-0.2,0.4-0.3,0.5-0.5l0.4,0.2l0.2,0.8c0.1,0,0.3-0.2,0.6-0.3c0.2-0.2,0.4-0.3,0.6-0.4c0.1-0.1,0.3-0.1,0.5,0l-0.1,0.7h0.1
		l1.4-0.9c0.1,0,0.2,0.1,0.3,0.1v0.8c0.1-0.1,0.3-0.2,0.5-0.4c0.2-0.2,0.3-0.3,0.4-0.3l0.4,0.2c0,0.2,0,0.3,0.1,0.5h0.1l0.5-0.7
		c0,0,0.1,0.1,0.2,0.1c0.1,0,0.2,0,0.2,0.1c-0.1,0.1-0.1,0.3,0.1,0.5l0.3-0.1c0-0.2,0.1-0.4,0.3-0.6c0.2,0,0.3,0,0.3,0
		c0.1,0,0.2,0.1,0.3,0.2c0.1,0.1,0.1,0.2,0.2,0.4c0.1,0.2,0.1,0.3,0.2,0.4c0.1-0.1,0.3-0.3,0.5-0.5c0.2-0.3,0.3-0.4,0.5-0.5l0.5,0.1
		c0,0.1,0,0.2,0,0.5c0,0.2,0,0.4,0,0.5c1-0.5,1.6-0.8,1.7-0.8l0.2,0.1c0,0.1,0,0.3-0.1,0.5c-0.1,0.2-0.1,0.3-0.1,0.5
		c0.6-0.2,1-0.2,1.3-0.1c0,0.1,0,0.3-0.1,0.5c0.1,0,0.3-0.1,0.5-0.2c0.2-0.1,0.4-0.1,0.5-0.1c0.1,0,0.2,0,0.4,0
		c0.2,0,0.3,0.1,0.5,0.2c0.1,0.2,0.1,0.4,0.1,0.7c1.1-0.5,1.8-0.5,2.1,0.1c0,0-0.1,0.1-0.2,0.1s-0.1,0.1-0.2,0.1s-0.1,0.1-0.1,0.2
		c0.6-0.1,1.1,0,1.5,0.1c0,0-0.2,0.1-0.4,0.3c-0.2,0.2-0.4,0.3-0.5,0.4v0.2c1,0,1.6,0,1.8,0.1l0.1,0.1c0,0.3-0.1,0.7-0.2,1
		c1.1,0,1.6,0.3,1.7,0.9l-0.6,0.3c0,0,0,0.1,0.1,0.1c0.7,0.1,1.2,0.4,1.6,0.9c0,0.3-0.2,0.4-0.5,0.5l0.1,0.1c1,0.3,1.5,0.7,1.6,1.3
		c0,0-0.1,0-0.2,0.1c-0.2,0-0.3,0.1-0.4,0.1c0.3,0.1,0.7,0.4,1.4,1l-0.1,0.1l-0.1,0.1c-0.3-0.1-0.6-0.2-0.9-0.2c0,0.1,0,0.2,0.1,0.3
		c0.1,0.1,0.2,0.2,0.3,0.3s0.2,0.2,0.3,0.2c0,0,0.4,0.6,1,1.7l-0.1,0.2c0,0-0.1,0-0.2,0c-0.1,0-0.1,0-0.2,0
		c-0.1-0.1-0.3-0.2-0.5-0.2c0.1,0.2,0.3,0.5,0.6,1c0.3,0.4,0.5,0.8,0.6,1.2c-0.1,0-0.3-0.1-0.5-0.1c0,0.1,0.2,0.2,0.3,0.5
		c0.2,0.2,0.3,0.4,0.3,0.6l-0.3,0.1c0,0.1,0.1,0.3,0.2,0.7c0.1,0.4,0.2,0.7,0.2,0.8s-0.1,0.4-0.2,0.7l-0.1,0.1l-0.3-0.1
		c0.6,1.2,0.8,2,0.5,2.2L230.1,28.5z M212.9,27.8l-0.1-0.2c0.1,0,0.3-0.2,0.6-0.5c0.3-0.3,0.5-0.4,0.5-0.5c-0.3,0-0.6,0-0.8-0.1
		l0.1-0.3c0.3-0.1,0.4-0.3,0.5-0.5c-0.2,0-0.3-0.2-0.4-0.3c0,0,0.1-0.1,0.2-0.3c0.1-0.2,0.2-0.3,0.2-0.4c-0.4,0.1-0.6,0.1-0.7,0.1
		l-0.1-0.2c0.1-0.1,0.2-0.3,0.2-0.7h-0.1V24l-0.3-0.2c-0.1-0.5-0.3-0.8-0.6-1c0,0-0.1,0.1-0.2,0.3c-0.1,0.1-0.1,0.2-0.2,0.3
		c-0.1,0-0.3,0-0.4,0l-0.3-0.6l-0.1,0.1l-0.1,0.3l-0.2,0.1c-0.4-0.6-0.7-0.9-1-1.1l-0.1,0.1c0.1,0.3,0.1,0.5-0.1,0.7
		c0,0-0.1,0-0.2-0.1c-0.4-0.5-0.9-0.8-1.4-0.8c0,0,0.1,0.2,0.2,0.4c0.1,0.2,0.2,0.4,0.2,0.6h-0.4c-0.1,0-0.2-0.1-0.3-0.2
		c-0.1-0.1-0.2-0.1-0.2-0.2c-0.1,0-0.2-0.1-0.3-0.1c-0.1,0-0.2-0.1-0.4-0.1c0,0.1,0.1,0.2,0.3,0.4c0.1,0.2,0.2,0.3,0.3,0.4
		c0.1,0.1,0.1,0.3,0.1,0.5c-0.2,0-0.3,0-0.4-0.1c-0.1-0.2-0.4-0.4-0.7-0.5c0,0,0.2,0.2,0.4,0.6c0.2,0.3,0.4,0.7,0.5,0.9
		c0.1,0.3,0.2,0.4,0.1,0.5c0,0-0.1,0-0.2,0c-0.1,0-0.2-0.1-0.4-0.2c-0.2-0.1-0.3-0.1-0.3-0.1l1.2,2.3c0,0-0.1,0-0.1,0.1
		c0,0.1-0.2,0.1-0.4,0c-0.2-0.1-0.3-0.1-0.4-0.1c0,0.3,0.2,0.6,0.4,0.9c0.2,0.4,0.4,0.6,0.4,0.8l-0.1,0.1c0,0-0.4-0.1-1-0.2
		c0.1,0.6,0.3,0.9,0.6,1c0.1-0.1,0.3-0.3,0.6-0.5l-0.1,0.6h0.1l0.3-0.5h0.1c0.1,0.3,0.3,0.6,0.6,0.7c0-0.1,0-0.3-0.1-0.6
		c0,0,0.1,0,0.1-0.1c0-0.1,0.1-0.1,0.2-0.2h0.1c0.2,0.2,0.3,0.3,0.4,0.5v-0.6h0.5c0.1,0,0.2,0.2,0.3,0.3c0.1,0.2,0.2,0.3,0.4,0.3
		v-0.1l-0.2-0.6c0.1-0.1,0.2-0.1,0.2-0.1c0.1,0,0.2,0,0.4,0.1c0.1,0.1,0.2,0.2,0.3,0.2c0-0.2,0.1-0.4,0.4-0.5
		c0.2,0.1,0.3,0.1,0.5-0.1l0.1-0.2c0.5-0.1,0.9-0.2,1.1-0.4C213.1,27.9,212.9,27.8,212.9,27.8z"/>
	<path class="st0" d="M272.3,28.5v0.1c0.4,1,0.5,1.9,0.4,2.5h-0.3l-0.4-0.3V31c0.3,0.9,0.3,1.6,0,2l-0.6-0.3v0.2c0.2,1,0.2,1.6,0,2
		h-0.1c-0.2-0.3-0.4-0.5-0.5-0.5c0,0.6-0.1,1.2-0.3,2h-0.1h-0.2l-0.1-0.3h-0.1l-0.1,0.1c0,0.3-0.1,0.8-0.4,1.3
		c-0.3,0.5-0.5,0.7-0.7,0.5c0.1-0.3,0-0.6-0.1-0.8c-0.2,0.9-0.5,1.6-0.9,2.1l-0.2-0.1c-0.1-0.3-0.2-0.5-0.2-0.5
		c-0.2,0.9-0.5,1.5-0.8,1.7l-0.1-0.1h-0.1l-0.1-0.1c0.1-0.2,0.2-0.4,0.1-0.6l-0.1,0.1c-0.1,0.7-0.4,1.1-0.9,1.4l-0.1-0.1
		c-0.1-0.2-0.1-0.3-0.1-0.5l-0.1,0.1c-0.1,0.5-0.4,0.9-0.8,1.2c-0.5-0.1-0.7-0.4-0.7-0.8l-0.2,0.1c0,0.3-0.1,0.6-0.2,0.8l-0.5,0.1
		l-0.3-0.5c-0.2-0.3-0.4-0.4-0.6-0.5l-0.1,0.8c-0.1,0-0.2,0.1-0.3,0.3l-0.5-0.1c-0.1-0.3-0.2-0.5-0.5-0.5l0.1,0.6
		c-0.4,0-0.7-0.1-1-0.2c-0.3-0.2-0.5-0.2-0.6-0.3v0.8c-0.1,0-0.3-0.2-0.7-0.5c-0.4-0.3-0.7-0.4-1-0.4c0.1,0.3,0.2,0.6,0.1,1H257
		c-0.1-0.2-0.3-0.4-0.6-0.6c-0.3-0.2-0.5-0.4-0.6-0.5h-0.1v0.1l0.1,0.6c-0.1,0.2-0.2,0.3-0.3,0.3c-0.4-0.6-0.9-0.8-1.4-0.8l0.1,0.7
		c-0.1,0-0.2,0-0.4-0.1c-0.2-0.1-0.3-0.1-0.5-0.2c-0.2-0.1-0.3-0.2-0.4-0.2c0,0.1-0.1,0.3-0.1,0.5h-0.3c-0.5-0.3-0.9-0.4-1.2-0.5
		c0.1,0.3,0.1,0.5,0,0.7c-0.1,0-0.2-0.2-0.4-0.3c-0.2-0.2-0.4-0.3-0.6-0.3c0,0.3,0,0.5,0,0.7c-0.2,0-0.4-0.1-0.6-0.3
		c-0.2-0.2-0.4-0.2-0.6-0.3c0.3,0.4,0.3,0.7,0.1,0.9l-0.5-0.1c0,0.1,0.1,0.3,0.3,0.6c0.1,0.2,0.2,0.4,0.3,0.6c0.1,0.1,0.1,0.3,0,0.6
		c-0.1,0-0.3,0-0.5-0.1c-0.2-0.1-0.3-0.1-0.4-0.1c0,0.2,0.2,0.6,0.6,1.2c0.4,0.6,0.5,1.1,0.5,1.3l-0.1,0.2c-0.2,0-0.3-0.2-0.5-0.3
		c-0.2-0.2-0.3-0.3-0.4-0.3c0,0,0.1,0.2,0.3,0.6c0.2,0.3,0.3,0.7,0.4,0.9c0.1,0.3,0.1,0.5,0,0.7c0,0.1-0.2,0.2-0.4,0.1
		c0,0.1,0.2,0.4,0.4,0.9c0.2,0.5,0.3,0.9,0.3,1.1l-0.1,0.1c-0.1,0-0.2-0.1-0.3-0.2c-0.1-0.1-0.2-0.2-0.4-0.2c0,0.3,0.2,0.7,0.6,1.3
		c0.3,0.6,0.5,1,0.6,1.3l-0.3,0.1c-0.4-0.3-0.6-0.5-0.7-0.5v0.1l0.7,1.5l-0.1,0.3l-0.9-0.4v0.1l0.6,1.1c0,0.1-0.2,0.3-0.5,0.6
		c-0.1,0-0.3-0.1-0.5-0.2c-0.2-0.1-0.4-0.2-0.5-0.2c0,0.4,0,0.6-0.1,0.7c-0.2,0-0.5-0.2-0.9-0.5c-0.4-0.3-0.6-0.4-0.6-0.4v0.8
		c-0.2,0-0.3,0-0.5,0c-0.2,0-0.2-0.1-0.3-0.1c0,0-0.1-0.1-0.3-0.2c-0.1-0.1-0.2-0.2-0.3-0.2v0.8h-0.3c-0.1,0-0.3-0.2-0.5-0.5
		c-0.3-0.3-0.5-0.4-0.8-0.5c0,0,0,0.2-0.1,0.5c0,0.3-0.1,0.5-0.1,0.6h-0.2c-0.5-0.5-0.9-0.8-1.2-0.9c0,0,0,0.1-0.1,0.3
		c0,0.2-0.1,0.3-0.1,0.4c0,0.1-0.1,0.2-0.1,0.3c-0.2,0-0.3,0-0.4-0.1c0-0.3-0.2-0.6-0.3-0.8c-0.2-0.2-0.4-0.3-0.6-0.3l-0.2,0.7
		c-0.2,0-0.3,0-0.3-0.1c-0.1-0.5-0.4-0.7-0.8-0.7l-0.1,0.8l-0.1,0.1h-0.2c0,0-0.2-0.2-0.5-0.5c-0.3-0.3-0.5-0.4-0.6-0.5l-0.6,1.2
		l-0.1-0.1l-0.1-0.1l-0.4-1c-0.1,0-0.2,0.1-0.3,0.2c-0.1,0.1-0.2,0.2-0.3,0.4c-0.1,0.2-0.2,0.3-0.2,0.4l-0.3-0.1
		c-0.1-0.5-0.2-0.9-0.3-1.2l-1.2,1.4h-0.1c0,0-0.1-0.1-0.1-0.1c0-0.1,0-0.2,0-0.3c0-0.1,0-0.2,0-0.3c0-0.1,0-0.2-0.1-0.2
		c-0.2,0.1-0.4,0.2-0.6,0.4l-0.1-0.1c-0.1-0.1-0.1-0.2-0.1-0.5h0.3l0.4-0.9h-0.1c-0.1,0.1-0.3,0.2-0.4,0.2l-0.2-0.1
		c0-0.1,0-0.3,0.1-0.5c0.1-0.2,0.2-0.4,0.3-0.6c0.1-0.2,0.2-0.3,0.3-0.4l-0.1-0.1c-0.4,0.2-0.6,0.2-0.6-0.1c0,0,0.2-0.4,0.5-0.9
		c0.3-0.6,0.5-0.9,0.5-1c-0.6,0.1-0.9,0.1-1,0.1l0.1-0.1c0.1-0.3,0.3-0.6,0.6-1.1c0.3-0.5,0.4-0.8,0.5-0.9c-0.2,0-0.5,0.2-0.8,0.6
		l-0.3-0.1v-0.3c0.5-0.6,0.8-1.2,1-1.9c-0.1,0-0.3,0.1-0.6,0.2c-0.2,0.1-0.4,0.2-0.6,0.1c0-0.2,0.1-0.5,0.4-0.9
		c0.3-0.4,0.6-0.7,0.8-0.8l-0.1-0.1c-0.1,0-0.2,0.1-0.4,0.2c-0.2,0.1-0.3,0.2-0.3,0.2c0,0-0.2,0-0.4,0c0-0.2,0.1-0.3,0.2-0.5
		c0.1-0.2,0.2-0.3,0.4-0.5c0.2-0.2,0.3-0.3,0.4-0.4V45h-0.3l-0.4,0.2c0,0,0-0.1-0.1-0.2l1-1.8c-0.4,0.1-0.7,0.3-0.8,0.5l-0.3-0.1
		l-0.1-0.3c0.4-0.4,0.8-1.1,1.4-2.1l-1.2,0.6l-0.3-0.2l0.1-0.1c0.1-0.2,0.3-0.5,0.5-0.8c0.3-0.4,0.4-0.7,0.5-0.8
		c-0.1,0-0.3,0-0.5,0.1c-0.2,0.1-0.4,0.1-0.5,0c0.1-0.2,0.2-0.5,0.5-0.9c0.2-0.4,0.3-0.7,0.4-0.9c-0.2,0-0.4,0.1-0.6,0.3
		c-0.2,0.1-0.4,0.2-0.5,0.3c-0.1-0.1-0.1-0.3,0-0.5c0.1-0.3,0.2-0.5,0.2-0.6s0.2-0.3,0.3-0.6c0.2-0.2,0.2-0.4,0.3-0.4
		c-0.1,0-0.3,0-0.5,0.1c-0.2,0.1-0.4,0.1-0.5,0l-0.1-0.3c0.3-0.2,0.6-0.7,1-1.5l-0.1-0.1l-0.1,0.1l-0.2,0.1h-0.3
		c0-0.3,0.1-0.7,0.4-1.1c0.3-0.4,0.4-0.7,0.5-0.9l-0.1-0.1l-0.9,0.4l-0.1-0.1V33c0.7-0.5,1.1-1.1,1.2-1.6l-0.1-0.1
		c-0.1,0-0.2,0-0.4,0c-0.1,0-0.2,0.1-0.4,0.2c-0.1,0.1-0.2,0.2-0.3,0.2l-0.1-0.1c0-0.2,0-0.4,0.1-0.5c0.2,0,0.4-0.2,0.6-0.4
		c0.2-0.2,0.3-0.4,0.4-0.6c-0.1,0-0.3-0.1-0.5,0c-0.2,0-0.3,0-0.4,0L232,30c0.1-0.2,0.3-0.4,0.6-0.8c0.3-0.3,0.5-0.6,0.6-0.9
		l-0.1-0.1c-0.5,0.1-0.9,0.4-1,0.7l-0.3-0.2v-0.3c0,0,0.2-0.3,0.4-0.7c0.2-0.4,0.3-0.7,0.3-0.8c-0.3,0.2-0.5,0.3-0.6,0.3
		c0-0.1,0-0.3,0.1-0.6c0.1-0.3,0.2-0.6,0.4-0.9c0.2-0.3,0.2-0.5,0.3-0.6l-0.8,0.2c0-0.3,0.2-0.7,0.6-1.4c-0.1,0-0.2,0-0.3-0.1v-0.2
		c0.1-0.1,0.2-0.4,0.4-0.7c0.2-0.3,0.3-0.6,0.4-0.7c-0.1,0-0.2,0-0.2,0.1c-0.1,0-0.1,0.1-0.2,0.2c-0.1,0.1-0.1,0.1-0.2,0.2h-0.2
		c0-0.2,0-0.3-0.1-0.4c0.4-0.5,0.7-1,0.8-1.5c-0.1,0-0.2,0.1-0.4,0.3c-0.2,0.1-0.3,0.2-0.5,0.3v-0.3c0,0,0.2-0.5,0.6-1.3
		c0.1-0.1,0.2-0.3,0.4-0.5c0.2-0.2,0.2-0.3,0.3-0.3c-0.1,0-0.2,0-0.5,0.1c-0.2,0.1-0.4,0.1-0.6,0.1l-0.1-0.1c0-0.2,0.1-0.4,0.2-0.6
		c0.1-0.2,0.3-0.4,0.5-0.6c0.2-0.2,0.3-0.3,0.4-0.4c-0.1,0-0.2,0-0.4,0c-0.2,0-0.3,0-0.4,0c0-0.3,0.1-0.6,0.4-1
		c0.3-0.3,0.4-0.6,0.5-0.7h-0.9l-0.1-0.3c0.3-0.3,0.6-0.6,0.7-1c-0.3,0.1-0.5,0.2-0.7,0.1c-0.2-0.4,0-1,0.5-1.7c0,0-0.2,0-0.3,0
		c-0.2,0.1-0.3,0.1-0.5,0c0.3-0.6,0.6-1.1,1-1.4v-0.3H232c0-0.2,0-0.4,0.2-0.7c0.2-0.3,0.2-0.5,0.2-0.7c-0.4-0.3-0.6-0.4-0.7-0.5
		l-0.1-0.4c0.2,0,0.6,0,1,0.1c0.5,0.1,0.8,0.2,1,0.2c0-0.1-0.1-0.3-0.2-0.5c-0.2-0.2-0.2-0.4-0.2-0.6l0.1-0.1c0.1,0,0.1,0,0.1-0.1
		l0.3,0.1c0.1,0.6,0.5,0.9,1.1,1.1l0.1-0.8h0.2l0.7,0.7h0.1l-0.1-1h0.4c0.4,0.7,0.9,1.1,1.3,1.2l0.2-1.1c0,0,0.1,0,0.2,0.1
		s0.1,0.1,0.2,0.1l0.1,0.7c0,0,0-0.1,0.1-0.1l0.1-0.7c0.4,0,0.8,0.3,1.1,0.7c0.3,0.4,0.6,0.7,0.8,0.8V9.6c-0.2-0.6-0.1-1.1,0.2-1.3
		l0.4,0.1c0.1,0,0.2,0.1,0.3,0.2c0.1,0.1,0.2,0.2,0.2,0.4c0.1,0.2,0.1,0.2,0.2,0.3c0-0.3,0-0.5,0.1-0.6c0.5-0.1,0.9,0,1.2,0.3
		c0.3,0.3,0.5,0.5,0.6,0.5c-0.1-0.4-0.2-0.7-0.1-0.8c0.3,0,0.6,0,0.8,0.1c0.2,0,0.4,0.1,0.6,0.2s0.4,0.2,0.6,0.2
		c0.1-0.4,0.3-0.6,0.8-0.6l1.1,0.5c0.3-0.4,0.4-0.6,0.5-0.7c0.2,0,0.4,0.1,0.6,0.3c0.2,0.2,0.3,0.3,0.4,0.3c0.1-0.1,0.2-0.2,0.5-0.4
		c0.2-0.2,0.4-0.3,0.5-0.5l0.4,0.2l0.2,0.8c0.1,0,0.3-0.2,0.6-0.3c0.2-0.2,0.4-0.3,0.6-0.4c0.1-0.1,0.3-0.1,0.5,0l-0.1,0.7h0.1
		l1.4-0.9c0.1,0,0.2,0.1,0.3,0.1v0.8c0.1-0.1,0.3-0.2,0.5-0.4c0.2-0.2,0.3-0.3,0.4-0.3l0.4,0.2c0,0.2,0,0.3,0.1,0.5h0.1l0.5-0.7
		c0,0,0.1,0.1,0.2,0.1c0.1,0,0.2,0,0.2,0.1c-0.1,0.1-0.1,0.3,0.1,0.5l0.3-0.1c0-0.2,0.1-0.4,0.3-0.6c0.2,0,0.3,0,0.3,0
		c0.1,0,0.2,0.1,0.3,0.2c0.1,0.1,0.1,0.2,0.2,0.4c0.1,0.2,0.1,0.3,0.2,0.4c0.1-0.1,0.3-0.3,0.5-0.5c0.2-0.3,0.3-0.4,0.5-0.5l0.5,0.1
		c0,0.1,0,0.2,0,0.5c0,0.2,0,0.4,0,0.5c1-0.5,1.6-0.8,1.7-0.8l0.2,0.1c0,0.1,0,0.3-0.1,0.5c-0.1,0.2-0.1,0.3-0.1,0.5
		c0.6-0.2,1-0.2,1.3-0.1c0,0.1,0,0.3-0.1,0.5c0.1,0,0.3-0.1,0.5-0.2c0.2-0.1,0.4-0.1,0.5-0.1c0.1,0,0.2,0,0.4,0
		c0.2,0,0.3,0.1,0.5,0.2c0.1,0.2,0.1,0.4,0.1,0.7c1.1-0.5,1.8-0.5,2.1,0.1c0,0-0.1,0.1-0.2,0.1s-0.1,0.1-0.2,0.1s-0.1,0.1-0.1,0.2
		c0.6-0.1,1.1,0,1.5,0.1c0,0-0.2,0.1-0.4,0.3c-0.2,0.2-0.4,0.3-0.5,0.4v0.2c1,0,1.6,0,1.8,0.1l0.1,0.1c0,0.3-0.1,0.7-0.2,1
		c1.1,0,1.6,0.3,1.7,0.9l-0.6,0.3c0,0,0,0.1,0.1,0.1c0.7,0.1,1.2,0.4,1.6,0.9c0,0.3-0.2,0.4-0.5,0.5l0.1,0.1c1,0.3,1.5,0.7,1.6,1.3
		c0,0-0.1,0-0.2,0.1c-0.2,0-0.3,0.1-0.4,0.1c0.3,0.1,0.7,0.4,1.4,1l-0.1,0.1l-0.1,0.1c-0.3-0.1-0.6-0.2-0.9-0.2c0,0.1,0,0.2,0.1,0.3
		c0.1,0.1,0.2,0.2,0.3,0.3s0.2,0.2,0.3,0.2c0,0,0.4,0.6,1,1.7l-0.1,0.2c0,0-0.1,0-0.2,0c-0.1,0-0.1,0-0.2,0
		c-0.1-0.1-0.3-0.2-0.5-0.2c0.1,0.2,0.3,0.5,0.6,1c0.3,0.4,0.5,0.8,0.6,1.2c-0.1,0-0.3-0.1-0.5-0.1c0,0.1,0.2,0.2,0.3,0.5
		c0.2,0.2,0.3,0.4,0.3,0.6l-0.3,0.1c0,0.1,0.1,0.3,0.2,0.7c0.1,0.4,0.2,0.7,0.2,0.8s-0.1,0.4-0.2,0.7l-0.1,0.1l-0.3-0.1
		c0.6,1.2,0.8,2,0.5,2.2L272.3,28.5z M255.1,27.8l-0.1-0.2c0.1,0,0.3-0.2,0.6-0.5c0.3-0.3,0.5-0.4,0.5-0.5c-0.3,0-0.6,0-0.8-0.1
		l0.1-0.3c0.3-0.1,0.4-0.3,0.5-0.5c-0.2,0-0.3-0.2-0.4-0.3c0,0,0.1-0.1,0.2-0.3c0.1-0.2,0.2-0.3,0.2-0.4c-0.4,0.1-0.6,0.1-0.7,0.1
		l-0.1-0.2c0.1-0.1,0.2-0.3,0.2-0.7h-0.1V24l-0.3-0.2c-0.1-0.5-0.3-0.8-0.6-1c0,0-0.1,0.1-0.2,0.3c-0.1,0.1-0.1,0.2-0.2,0.3
		c-0.1,0-0.3,0-0.4,0l-0.3-0.6l-0.1,0.1l-0.1,0.3l-0.2,0.1c-0.4-0.6-0.7-0.9-1-1.1l-0.1,0.1c0.1,0.3,0.1,0.5-0.1,0.7
		c0,0-0.1,0-0.2-0.1c-0.4-0.5-0.9-0.8-1.4-0.8c0,0,0.1,0.2,0.2,0.4c0.1,0.2,0.2,0.4,0.2,0.6h-0.4c-0.1,0-0.2-0.1-0.3-0.2
		c-0.1-0.1-0.2-0.1-0.2-0.2c-0.1,0-0.2-0.1-0.3-0.1c-0.1,0-0.2-0.1-0.4-0.1c0,0.1,0.1,0.2,0.3,0.4c0.1,0.2,0.2,0.3,0.3,0.4
		c0.1,0.1,0.1,0.3,0.1,0.5c-0.2,0-0.3,0-0.4-0.1c-0.1-0.2-0.4-0.4-0.7-0.5c0,0,0.2,0.2,0.4,0.6c0.2,0.3,0.4,0.7,0.5,0.9
		c0.1,0.3,0.2,0.4,0.1,0.5c0,0-0.1,0-0.2,0c-0.1,0-0.2-0.1-0.4-0.2c-0.2-0.1-0.3-0.1-0.3-0.1l1.2,2.3c0,0-0.1,0-0.1,0.1
		c0,0.1-0.2,0.1-0.4,0c-0.2-0.1-0.3-0.1-0.4-0.1c0,0.3,0.2,0.6,0.4,0.9c0.2,0.4,0.4,0.6,0.4,0.8l-0.1,0.1c0,0-0.4-0.1-1-0.2
		c0.1,0.6,0.3,0.9,0.6,1c0.1-0.1,0.3-0.3,0.6-0.5l-0.1,0.6h0.1l0.3-0.5h0.1c0.1,0.3,0.3,0.6,0.6,0.7c0-0.1,0-0.3-0.1-0.6
		c0,0,0.1,0,0.1-0.1c0-0.1,0.1-0.1,0.2-0.2h0.1c0.2,0.2,0.3,0.3,0.4,0.5v-0.6h0.5c0.1,0,0.2,0.2,0.3,0.3c0.1,0.2,0.2,0.3,0.4,0.3
		v-0.1l-0.2-0.6c0.1-0.1,0.2-0.1,0.2-0.1c0.1,0,0.2,0,0.4,0.1c0.1,0.1,0.2,0.2,0.3,0.2c0-0.2,0.1-0.4,0.4-0.5
		c0.2,0.1,0.3,0.1,0.5-0.1l0.1-0.2c0.5-0.1,0.9-0.2,1.1-0.4C255.3,27.9,255.2,27.8,255.1,27.8z"/>
	<path class="st0" d="M307.7,44.1h-0.3c0,0.1,0.1,0.2,0.2,0.5c0.1,0.2,0.1,0.5,0.1,0.7c-0.4-0.1-0.6-0.1-0.7-0.1
		c0.6,0.9,0.8,1.5,0.7,1.8c-0.1,0-0.3-0.1-0.4-0.2c-0.2-0.1-0.3-0.1-0.4-0.1l0.7,1.4c0,0,0,0.1-0.1,0.2l-0.5-0.1v0.1
		c0.4,0.9,0.6,1.4,0.6,1.4h-0.5c0,0.2,0.2,0.4,0.3,0.8c0.2,0.3,0.3,0.6,0.3,0.8l-0.1,0.1h-0.2c-0.1-0.1-0.3-0.2-0.5-0.2
		c0,0.1,0.1,0.3,0.3,0.6c0.1,0.2,0.2,0.5,0.3,0.7c0.1,0.2,0.1,0.4,0,0.6h-0.3c0,0.1,0,0.3,0.1,0.6c0.1,0.3,0.1,0.5,0.1,0.6
		c0,0.1,0,0.3,0,0.6l-0.3,0.1v0.1l0.2,1l-0.5-0.1c0-0.2-0.1-0.3-0.3-0.5c-0.2-0.1-0.4-0.2-0.6-0.2c0,0.1,0.1,0.2,0.2,0.5
		s0.2,0.5,0.3,0.7l-0.1,0.1h-0.1c-0.1,0-0.2-0.2-0.4-0.4c-0.2-0.2-0.3-0.4-0.5-0.5c-0.2-0.1-0.3-0.2-0.5-0.2L305,56
		c0,0-0.1,0.1-0.1,0.1l-0.2-0.1c-0.2-0.3-0.5-0.5-1.1-0.6v0.2l0.2,0.5c0,0,0,0.1-0.1,0.1c-0.3,0-0.6-0.1-0.9-0.4
		c-0.3-0.3-0.6-0.4-0.9-0.4l0.3,0.6l-0.2,0.2c-0.6-0.6-1-0.8-1.4-0.7c0.1,0.3,0.1,0.6-0.1,0.7l-0.3-0.1c-0.1-0.6-0.5-0.8-1.2-0.8
		c0.2,0.4,0.2,0.7,0.2,0.8l-0.1,0.2H299c-0.6-0.7-1.1-1-1.6-1.1v0.1c0.2,0.3,0.3,0.7,0.3,1h-0.2c-0.2-0.1-0.4-0.2-0.7-0.4
		c-0.3-0.2-0.5-0.3-0.6-0.3c0,0.4,0,0.6-0.1,0.6l-0.3,0.3c-0.1,0-0.2-0.1-0.3-0.3c-0.1-0.2-0.2-0.3-0.4-0.4
		c-0.1-0.1-0.2-0.2-0.4-0.2c0.1,0.3,0.1,0.6,0,0.8h-0.1c-0.2-0.3-0.5-0.4-0.9-0.5c-0.1,0.3-0.3,0.4-0.6,0.3c-0.1,0-0.2-0.2-0.4-0.4
		c-0.2-0.2-0.2-0.3-0.3-0.4c-0.1,0.1-0.2,0.2-0.2,0.5c-0.1,0.2-0.2,0.4-0.3,0.5l-0.2,0.1c-0.3-0.4-0.5-0.8-0.6-1
		c0,0-0.2,0.2-0.4,0.5c-0.2,0.3-0.5,0.5-0.7,0.5c-0.1,0-0.3,0-0.6-0.1c0-0.3-0.1-0.5-0.3-0.8c0,0-0.2,0.2-0.4,0.5
		c-0.2,0.3-0.5,0.4-0.7,0.5l-0.2-0.1c-0.3-0.4-0.4-0.7-0.3-0.9c-0.1,0-0.3,0.2-0.6,0.4c-0.3,0.2-0.6,0.3-0.9,0.3l-0.2-0.8
		c-0.1,0-0.2,0.2-0.5,0.6c-0.2,0.3-0.5,0.5-0.9,0.6l-0.6-1h-0.1c-0.2,0.4-0.6,0.8-1.2,1.2h-0.3c0-0.5-0.1-0.8-0.3-1
		c-0.6,0.6-1.3,0.8-1.9,0.8v-1c-0.2,0-0.5,0.2-0.8,0.4c-0.3,0.2-0.6,0.4-0.8,0.4c0,0-0.1-0.4-0.1-1c-0.1,0-0.4,0.2-0.8,0.5
		c-0.4,0.3-0.8,0.3-1.2,0.2l0.1-0.3h-0.1c-0.8,0.4-1.4,0.4-1.8,0.1c0-0.2,0-0.4,0.1-0.6c0.1-0.2,0.2-0.4,0.3-0.6
		c0.1-0.2,0.2-0.4,0.3-0.5c-0.3,0-0.5,0-0.7-0.1c0-0.3,0-0.5,0.1-0.7c0-0.2,0.1-0.4,0.2-0.6c0.1-0.2,0.2-0.3,0.2-0.4l-0.6,0.2
		l-0.1-0.1c0-0.4,0.1-0.8,0.3-1.2c0.2-0.4,0.3-0.7,0.4-0.8c-0.4,0.1-0.7,0.1-0.7,0.1c0-0.3,0-0.7,0.2-1.1c0.2-0.4,0.3-0.7,0.4-0.8
		c-0.3,0.1-0.5,0.1-0.6,0.1l0.1-1.2l-0.3,0.1V48l-0.1-0.1c0-0.2,0.1-0.9,0.5-2.2l-0.5,0.3H274v-0.2c0-0.1,0.1-0.3,0.2-0.6
		c0.1-0.2,0.1-0.5,0.2-0.6c0.1-0.2,0.1-0.4,0.2-0.6l0.5-1H275c-0.2,0.1-0.4,0.2-0.6,0.1c-0.1-0.5,0.1-1,0.5-1.7
		c-0.3,0.1-0.5,0.1-0.6-0.1c-0.1-0.2,0-0.5,0.3-0.9l0.4-0.6c-0.2,0-0.4-0.1-0.5-0.2l0.3-0.8c-0.2,0-0.3-0.2-0.3-0.3
		c0-0.1,0.1-0.3,0.2-0.4c0.1-0.2,0.2-0.3,0.2-0.4l-0.5-0.1l-0.1-0.1l0.8-2l-0.1-0.1c-0.2,0.1-0.3,0.1-0.5,0c0-0.2,0-0.4,0.1-0.7
		c0.1-0.3,0.2-0.5,0.2-0.7c-0.2,0.2-0.4,0.2-0.6,0.1c0-0.4,0.2-1.1,0.6-2l-0.6,0.1v-0.3c0.1-0.5,0.4-1.2,0.8-2.1
		c-0.1,0-0.3,0.1-0.4,0.2s-0.3,0.2-0.5,0.2l-0.1-0.1c0-0.3,0.1-0.8,0.3-1.4c0.2-0.6,0.3-0.9,0.4-1.1l-0.6,0.1l-0.1-0.1
		c0-0.2,0.2-0.4,0.4-0.6c0.2-0.2,0.3-0.4,0.4-0.6l-0.4,0.1l-0.1-0.1c0,0,0.1-0.3,0.3-0.7c-0.1,0-0.2,0.1-0.3,0.1
		c0-0.2,0.1-0.4,0.4-0.7c0.2-0.3,0.3-0.6,0.3-0.8c-0.1,0-0.3-0.1-0.6-0.3l0.9-1.8c-0.6,0-0.9-0.2-0.9-0.5c0.1-0.2,0.2-0.5,0.5-0.8
		c0.2-0.4,0.4-0.7,0.5-1c0,0-0.2,0.1-0.4,0.2c-0.2,0.1-0.4,0.1-0.5,0.1l-0.1-0.2c0-0.2,0.3-0.6,0.9-1.3l-0.1-0.1c-0.1,0-0.2,0-0.4,0
		c-0.2,0-0.3,0-0.4,0c0-0.2,0.1-0.5,0.4-0.9c0.3-0.4,0.4-0.7,0.3-1h-0.8c0-0.3,0.3-1.1,0.8-2.1c-0.4,0-0.8,0-1-0.1
		c0.2-0.5,0.4-0.9,0.8-1.4v-0.2c-0.2,0-0.4,0-0.5-0.1l-0.1-0.7c0.1-0.1,0.3-0.3,0.5-0.6c-0.1-0.3-0.1-0.7,0-1.1
		c-0.4,0.1-0.6,0.1-0.7,0.1v-0.1c0.1-0.5,0.3-0.8,0.7-1.1s0.8-0.3,1.2-0.3c0-0.4,0.1-0.7,0.3-0.8c0.3,0.1,0.6,0.4,0.6,0.8h0.2
		l0.3-0.7c0.3,0,0.6,0.3,0.8,0.7h0.1l0.3-0.7c0.3,0,0.5,0.1,0.7,0.3c0.2,0.2,0.4,0.3,0.6,0.4V8.8l0.5-0.1c0.2,0.4,0.5,0.6,0.8,0.7
		c0-0.1,0.1-0.3,0.2-0.6c0.2,0,0.4,0.1,0.8,0.3c0.4,0.2,0.6,0.3,0.7,0.2l0.1-0.5c0,0,0.2-0.1,0.3-0.1l0.9,0.6V9.2V8.6
		c0.7,0,1.1,0.2,1.4,0.7h0.1l0.1-0.9c0.1,0,0.2-0.1,0.4-0.1c0.4,0.5,0.7,0.8,1,0.8c0-0.3,0.1-0.6,0.2-0.7h0.3c0.3,0.3,0.6,0.7,1.1,1
		l0.8-1h0.4c0.1,0.4,0.1,0.7,0.1,0.9h0.1l0.1-0.1c0.2-0.5,0.4-0.7,0.7-0.7l0.2,0.1c0.1,0,0.1,0.2,0.1,0.5c0.1,0,0.2-0.2,0.4-0.4
		c0.2-0.2,0.3-0.4,0.5-0.5c0.2-0.1,0.3-0.2,0.5-0.1c0.1,0.1,0.1,0.3,0,0.6c0.2,0,0.5-0.2,0.8-0.3c0.4-0.2,0.7-0.2,1-0.2
		c0,0.2,0,0.4-0.3,0.8l0.1,0.1c0.1,0,0.3-0.1,0.4-0.2c0.1-0.1,0.3-0.2,0.4-0.3c0.2-0.1,0.3-0.2,0.4-0.3l0.3,0.1c0,0,0,0.2-0.1,0.4
		c-0.1,0.2-0.1,0.4-0.2,0.5c0.2,0,0.4-0.2,0.7-0.4c0.3-0.2,0.5-0.3,0.5-0.3c0.1,0,0.2,0,0.3,0c0.1,0,0.2,0.1,0.3,0.1
		c0.1,0,0.2-0.1,0.5-0.2c0.2-0.1,0.4-0.2,0.5-0.3l0.3,0.7c0.2,0,0.5-0.2,0.8-0.4c0.3-0.2,0.6-0.4,0.8-0.4l0.1,0.3l-0.5,0.8h0.1
		c0.8-0.6,1.4-0.9,1.8-0.8l-0.3,0.7c0,0,0.1,0,0.1,0.1c0.1,0,0.3-0.2,0.7-0.5c0.3-0.3,0.6-0.4,0.9-0.4l0.2,0.2c0,0.1,0,0.3-0.1,0.5
		l0.1,0.1c0,0,0.2-0.1,0.3-0.3c0.2-0.1,0.3-0.2,0.5-0.3c0.2,0,0.3,0,0.5,0l0.1,0.1l-0.1,0.1c0,0.1,0,0.2,0,0.2
		c0.1,0,0.3-0.1,0.6-0.3c0.3-0.1,0.6-0.2,0.7-0.2c0.1,0,0.3,0,0.6,0.2c0,0-0.1,0.1-0.2,0.3c-0.1,0.2-0.2,0.3-0.2,0.4
		c0.6,0.7,0.8,1.3,0.6,1.6c-0.1,0-0.2,0-0.2,0c-0.1,0-0.1-0.1-0.2-0.1c-0.1,0-0.2-0.1-0.2-0.1c0,0.1,0.2,0.3,0.4,0.6
		c0.2,0.3,0.3,0.5,0.4,0.7c0.1,0.2,0.1,0.3-0.1,0.5l-0.5-0.1c0,0.1,0.1,0.2,0.2,0.5c0.1,0.2,0.2,0.4,0.2,0.5s0,0.3-0.1,0.5l-0.4-0.1
		c0,0.1,0,0.2,0.1,0.4c0.1,0.2,0.1,0.4,0.1,0.5l-0.1,0.1c0,0-0.1-0.1-0.1-0.1c-0.1,0-0.2-0.1-0.2-0.1l-0.1,0.1
		c0,0.1,0.2,0.3,0.3,0.6c0.2,0.3,0.3,0.7,0.3,0.9c-0.1,0-0.3,0-0.4-0.1c-0.2-0.1-0.3-0.1-0.4-0.1c0,0.1,0.2,0.4,0.5,1
		c0.3,0.6,0.4,1,0.3,1.4l-0.5-0.1c0,0.2,0.1,0.5,0.3,0.8c0.2,0.4,0.3,0.7,0.3,1c-0.1,0-0.2-0.1-0.5-0.2c-0.2-0.2-0.5-0.2-0.7-0.1
		c0,0.1,0.2,0.5,0.5,1c0.3,0.5,0.4,1,0.4,1.5l-0.3-0.3h-0.1c0,0.2,0,0.4-0.1,0.5l-1.2-0.6c0,0.2,0,0.4-0.1,0.6l-0.9-0.8h-0.1
		c0,0.5-0.3,0.7-0.8,0.7c-0.2-0.3-0.4-0.5-0.5-0.5c0,0.2-0.1,0.4-0.3,0.6c-0.1,0-0.3-0.2-0.7-0.5c0,0.2-0.1,0.4-0.3,0.5
		c-0.3-0.3-0.6-0.5-0.8-0.6c0,0.3,0,0.5-0.1,0.6c-0.2,0-0.3-0.1-0.5-0.3c-0.2-0.2-0.3-0.2-0.5-0.3c-0.2,0.4-0.4,0.6-0.6,0.6
		c-0.2-0.3-0.4-0.6-0.6-0.6c0,0.3-0.1,0.6-0.3,0.8c0,0-0.2-0.2-0.5-0.5c-0.3-0.3-0.5-0.5-0.7-0.6c0,0.1,0,0.3,0,0.5
		c0,0.2-0.1,0.4-0.1,0.5l-0.3,0.1l-0.1-0.1c-0.3-0.6-0.6-1-0.8-1.1l-0.1,0.9c-0.3,0-0.5-0.2-0.8-0.5c-0.3-0.3-0.4-0.5-0.5-0.5
		l-0.3,1c0,0-0.1,0.1-0.3,0.1c-0.5-0.6-0.7-1-0.8-1c0,0.4,0,0.8-0.1,1l-0.3-0.1c0,0.1,0.1,0.4,0.2,0.7c0.1,0.3,0.2,0.6,0.3,0.8
		l-0.3,0.1l-0.1-0.1l-0.1-0.3l-0.1,0.1c0,0.1,0.1,0.4,0.2,0.7c0.2,0.3,0.2,0.7,0.2,0.9h-0.4c0-0.2-0.1-0.2-0.3-0.2
		c0.2,0.4,0.4,0.7,0.5,1c0.3-0.2,0.8-0.6,1.4-1.1l0.3,0.1l0.1,0.8c0.1,0,0.4-0.2,0.8-0.5c0.2,0,0.3,0,0.5,0.1l-0.1,0.8
		c0.1,0,0.3-0.2,0.6-0.4c0.3-0.2,0.5-0.3,0.7-0.3c0.2,0,0.3,0.2,0.3,0.5c0.1,0,0.3-0.1,0.6-0.3c0.2-0.2,0.4-0.2,0.5-0.3l0.4,0.1
		c0,0,0,0.1,0,0.3c0,0.1,0,0.2,0,0.3c0.1,0,0.4-0.1,0.8-0.3s0.7-0.2,0.9-0.1l-0.1,0.4c0,0,0,0.1,0.1,0.1c0.8-0.6,1.5-0.9,1.9-0.9
		v0.4l-0.1,0.5c0.1,0,0.4-0.2,0.7-0.5c0.4-0.3,0.7-0.3,1-0.3l-0.1,0.6h0.1c0.1,0,0.3-0.2,0.6-0.4c0.3-0.2,0.5-0.3,0.6-0.3
		c0.1,0,0.3,0,0.8,0c0,0.1-0.1,0.2-0.2,0.5c-0.1,0.2-0.1,0.4,0,0.4c0.6,0.2,0.9,0.7,0.9,1.4c-0.3,0-0.5,0-0.7-0.1l0.5,1l-0.3,0.4
		l-0.4-0.1c0,0.3,0.2,0.7,0.6,1.1c0.3,0.4,0.5,0.8,0.6,1l-0.1,0.1c-0.3,0-0.5-0.2-0.6-0.5h-0.1c0,0.1,0.1,0.2,0.2,0.5
		c0.1,0.2,0.2,0.4,0.2,0.5c0,0.1,0,0.3-0.1,0.5c0,0-0.1,0-0.2-0.1c-0.1-0.1-0.2-0.1-0.3-0.1c0.5,0.8,0.7,1.3,0.5,1.7l-0.8-0.2
		l0.5,0.8c0.3,0.5,0.5,1,0.5,1.3l-0.1,0.1h-0.2c-0.1-0.2-0.3-0.3-0.5-0.4c0,0.1,0.1,0.4,0.3,0.7c0.2,0.4,0.3,0.6,0.2,0.8l-0.1,0.1
		c0,0-0.1,0-0.2,0c-0.1,0-0.2,0-0.2,0v0.1c0.3,0.6,0.5,1,0.4,1.3c-0.1,0.2-0.3,0.3-0.5,0.3c-0.3-0.2-0.5-0.3-0.6-0.3
		c0,0,0.1,0.2,0.2,0.4c0.1,0.2,0.2,0.4,0.2,0.5l-0.1,0.1c-0.1,0-0.2,0.1-0.4,0.1c-0.1-0.1-0.3-0.2-0.5-0.4c-0.2-0.2-0.4-0.3-0.5-0.4
		h-0.1c0.1,0.2,0.1,0.4,0,0.6c-0.2,0-0.5-0.2-0.8-0.4c-0.3-0.2-0.6-0.3-0.8-0.4c0.1,0.5,0.1,0.8,0,1h-0.2c-0.6-0.7-1.1-1-1.5-1
		c0.1,0.5,0.1,0.8,0,1l-0.1,0.1c-1-0.7-1.5-1.1-1.8-1.1c0,0.5,0,0.8-0.1,0.8h-0.3v-0.2c-0.2,0-0.4-0.2-0.6-0.4
		c-0.3-0.2-0.5-0.4-0.6-0.4c0,0.3,0,0.6-0.1,1.2l-0.3-0.1c0-0.2-0.2-0.4-0.4-0.6c-0.2-0.2-0.4-0.4-0.4-0.5c0,0-0.1,0.1-0.2,0.1
		c0.1,0.4,0.1,0.8-0.1,1h-0.1c-0.2-0.4-0.5-0.7-0.9-0.8c0,0.6-0.1,0.9-0.2,1c-0.1,0-0.2-0.1-0.4-0.3c-0.2-0.2-0.3-0.3-0.5-0.4
		l-0.1,0.1c0.2,0.3,0.2,0.6,0.2,0.8l-0.1,0.1l-0.5-0.2c0,0.1,0.1,0.3,0.3,0.5c0.1,0.3,0.2,0.5,0.3,0.6c0,0.2,0,0.4,0,0.6h-0.1
		c-0.2-0.2-0.3-0.3-0.4-0.3v0.1l0.3,1.4c-0.1,0-0.2,0-0.4-0.1c-0.1,0-0.2-0.1-0.3-0.1l0.2,0.6c0.3,0,0.5-0.1,0.6-0.2
		c0.2-0.1,0.3-0.3,0.5-0.5c0.2-0.2,0.3-0.3,0.4-0.4l0.3,0.1c0,0.2,0.1,0.5,0.1,1h0.1l0.7-0.5c0.2,0,0.3,0.2,0.5,0.3l1.2-0.7
		c0,0,0.1,0.1,0.2,0.1c0.1,0,0.2,0,0.2,0.1l-0.1,0.7l1.2-0.7c0.3,0.1,0.5,0.3,0.6,0.6c0.8-0.4,1.3-0.6,1.6-0.6c0,0.2,0,0.5-0.1,0.9
		c0.1,0,0.4-0.2,0.8-0.5c0.4-0.3,0.8-0.4,1.2-0.2c0,0.2,0,0.3,0.1,0.3c0.8-0.6,1.4-0.7,1.8-0.5l-0.1,0.4c0,0,0.1,0,0.1,0.1
		c0.5-0.3,1-0.5,1.3-0.5l0.1,0.1c0,0.1,0,0.3-0.1,0.6c0.1,0,0.4-0.2,0.8-0.4c0.4-0.2,0.8-0.4,1.1-0.4l0.1,0.1c0,0.3,0,0.5-0.2,0.6
		C307.6,43.5,307.7,43.9,307.7,44.1z"/>
	<path class="st0" d="M360.8,9.9v0.2c-0.1,0.1-0.3,0.2-0.6,0.2c-0.3,0.1-0.5,0.1-0.6,0.2l0.1,0.1l0.1,0.3c0.1,0,0.2,0,0.3,0
		c0.3,0.9,0.4,1.4,0.3,1.6h-0.1c0,0-0.2-0.2-0.3-0.4c-0.2-0.2-0.3-0.3-0.5-0.4V12c0.1,0.1,0.3,0.4,0.5,0.8c0.2,0.4,0.2,0.7,0.1,0.8
		c0,0.1-0.1,0.1-0.3,0.1l-0.6-0.6h-0.1c0,0.1,0.2,0.4,0.6,0.8c0.3,0.4,0.5,0.8,0.4,1.1l-0.3,0.1c0,0.1,0.1,0.3,0.2,0.6
		c0.1,0.2,0.2,0.4,0.2,0.6c0,0.2,0,0.3,0,0.4l-1.1-0.5c0,0.1,0.2,0.3,0.5,0.8c0.3,0.4,0.3,0.8,0.3,1.2h-0.5v0.1l0.6,1
		c0,0.1,0,0.1-0.1,0.1c-0.2,0-0.3-0.1-0.5-0.2c-0.2-0.1-0.3-0.2-0.4-0.2c0,0.2,0.2,0.5,0.5,0.8c0.3,0.3,0.4,0.6,0.4,0.9l-0.1,0.1
		c-0.1,0-0.3,0-0.5-0.1v0.1c0,0,0.1,0.2,0.3,0.5c0.2,0.3,0.3,0.6,0.4,0.8c0.1,0.2,0.1,0.4,0.1,0.6l-0.7-0.3c0,0.1,0.2,0.3,0.3,0.6
		c0.2,0.2,0.3,0.4,0.3,0.6c-0.3,0.2-0.4,0.3-0.5,0.3l-0.6-0.3c0,0,0.1,0.1,0.1,0.1c0,0.2,0.1,0.4,0.4,0.7c0.2,0.3,0.4,0.6,0.4,0.9
		c-0.1,0-0.2,0-0.3,0c-0.1-0.1-0.2-0.1-0.3-0.1l0.4,0.4c0,0.1,0.1,0.2,0.3,0.5c0.2,0.2,0.3,0.5,0.3,0.7c0.1,0.2,0.1,0.4,0.1,0.6
		l-0.2,0.1c-0.3-0.2-0.5-0.3-0.6-0.3v0.1c0.3,0.5,0.5,1,0.5,1.5h-0.4c0,0.3,0.2,0.5,0.5,0.7c0,0.2-0.1,0.3-0.1,0.3
		c-0.1,0-0.3-0.1-0.5-0.2c-0.2-0.1-0.4-0.2-0.6-0.2l-0.1,0.1c-0.1,0.3,0.3,1,1.2,2.1l-0.3,0.3c-0.1,0-0.3-0.2-0.5-0.3
		c-0.2-0.2-0.3-0.3-0.4-0.3l-0.1,0.1l1.4,3.1l-0.1,0.1c0,0-0.1,0-0.2,0.1c-0.1,0-0.2,0.1-0.3,0.1l-0.2-0.3c0,0-0.1,0-0.1,0
		c0,0,0,0-0.1,0c0.2,0.5,0.5,0.8,0.9,1.1l-0.1,0.3c-0.3,0-0.6-0.1-1.2-0.3l-0.1,0.1c0.4,0.6,0.8,1,1.1,1.4c0,0.1,0,0.2-0.1,0.3
		c0,0-0.1,0.1-0.2,0.1c-0.1,0-0.1,0.1-0.2,0.1c0.5,0.9,0.7,1.5,0.5,1.9c-0.1,0-0.2,0-0.3-0.1c-0.1,0-0.2-0.1-0.3-0.2
		c-0.1-0.1-0.2-0.1-0.3-0.2c0,0.1,0.2,0.3,0.3,0.5c0.2,0.3,0.3,0.5,0.4,0.7c0.1,0.2,0.1,0.4,0,0.6l-0.1,0.2c0,0,0-0.1,0-0.1
		c0,0,0,0,0-0.1l-0.5-0.2c0,0.1,0.1,0.2,0.3,0.5c0.1,0.2,0.2,0.4,0.2,0.5c0,0.1,0,0.3-0.1,0.5l-0.6-0.3c0.3,0.4,0.5,0.7,0.7,0.8
		l-0.1,0.8h-0.2c0,0.2,0.1,0.4,0.3,0.6s0.2,0.4,0.2,0.5c0,0.1,0,0.3-0.1,0.7c-0.1,0-0.2-0.2-0.5-0.4c-0.2-0.2-0.4-0.3-0.6-0.3
		c0.8,1.6,1.3,2.7,1.4,3.2c-0.1,0.1-0.2,0.1-0.4,0.1l-1-0.6c0.1,0.2,0.2,0.4,0.5,0.6c0.2,0.3,0.4,0.5,0.5,0.7
		c0.1,0.2,0.2,0.4,0.1,0.5c-0.1,0.1-0.3,0.1-0.5,0.1c0,0.1,0.1,0.3,0.3,0.6c0.2,0.2,0.2,0.4,0.3,0.6c-0.1,0.1-0.2,0.2-0.3,0.4h-0.3
		l-0.4-0.5c-0.1,0-0.2,0-0.2,0.1l0.1,0.1c0.8,1,1.2,1.7,1,2c-0.1,0-0.3-0.1-0.4-0.2c-0.2-0.1-0.3-0.2-0.4-0.2l0.7,1.4
		c0,0,0,0.1,0,0.1c0,0,0,0,0,0.1l-0.2,0.1c-0.1-0.1-0.2-0.2-0.3-0.3h-0.2c0,0.2,0.2,0.5,0.5,1c0.3,0.4,0.4,0.8,0.5,1.1
		c-0.3,0-0.5-0.1-0.7-0.2c-0.2-0.2-0.4-0.2-0.5-0.3c0.3,0.8,0.6,1.2,0.7,1.4l-0.1,0.2h-0.1c-0.1,0-0.3-0.2-0.4-0.3
		c-0.2-0.2-0.3-0.3-0.4-0.3c0,0.1,0,0.2,0,0.2c0,0,0,0.1,0,0.1h-0.3c-0.1-0.4-0.4-0.7-0.9-0.8c0,0.7-0.1,1-0.2,1.2H357
		c0-0.1-0.1-0.3-0.2-0.6c-0.1-0.3-0.2-0.5-0.3-0.7c-0.1-0.2-0.2-0.3-0.4-0.4l-0.4,1.4h-0.2l-0.2-0.2c0.1-0.2,0.1-0.5,0.1-0.9
		c0-0.5-0.1-0.7-0.2-0.9l-0.5,0.8c0,0.1,0,0.3,0,0.6c0,0.3,0,0.5-0.1,0.6h-0.2c-0.5-0.9-0.9-1.3-1.2-1.4c-0.1,0.2-0.1,0.4,0,0.8
		c0.1,0.4,0.1,0.6,0.1,0.7h-0.2c-0.4-0.9-0.8-1.4-1.2-1.5l-0.3,1.4h-0.3l-0.1-0.1c-0.2-0.6-0.4-1-0.6-1.3l-0.1,0.1
		c0,0,0,0.2-0.1,0.6s-0.1,0.6-0.2,0.9l-0.1,0.5l-0.3-0.1c0-0.7-0.3-1.3-0.8-1.9l-0.4,1.2c0,0.1,0,0.2,0,0.3c0,0.1,0.1,0.2,0.1,0.3
		l-0.3-0.1c-0.1-0.7-0.3-1.1-0.8-1.2c-0.2,0.6-0.5,1-0.8,1.2l-0.1-0.3c0.1-0.4,0.1-0.9-0.1-1.3h-0.1c-0.2,0.5-0.5,1-0.8,1.4
		c-0.1-0.1-0.2-0.2-0.3-0.2c0,0,0-0.2,0.1-0.5c0-0.3,0-0.5-0.1-0.7h-0.2c-0.1,0.3-0.4,0.8-0.9,1.3l-0.2-0.1c0.1-0.6,0.2-1,0.3-1.3
		l-0.1-0.2l-0.1,0.1c0,0.1,0,0.2,0,0.3s0,0.2-0.1,0.3c-0.6,0.1-1,0.1-1.2,0c0-0.5,0-0.8-0.1-1c-0.1,0.3-0.2,0.5-0.5,0.5
		c-0.4-0.2-0.6-0.9-0.5-2.1h-0.1c-0.1,0.3-0.2,0.5-0.3,0.6c-0.1,0-0.3,0-0.5-0.1l-0.3-1.4c0,0-0.2,0-0.3,0.1c0-0.1-0.1-0.4-0.2-0.7
		s-0.2-0.6-0.1-0.8h-0.4c0-0.1-0.1-0.5-0.3-1.2l-0.1-1.1l-0.1,0.1c0,0.1-0.1,0.2-0.1,0.4c0,0.2,0,0.3,0,0.4c-0.3,0-0.5-0.2-0.6-0.4
		c-0.1-0.2-0.2-0.5-0.2-0.8c0-0.4-0.1-0.6-0.1-0.7l-0.1,0.1c0,0,0,0.1-0.1,0.2c-0.3-0.1-0.5-0.4-0.5-1c0-0.6-0.1-0.9-0.2-1
		c0,0.2,0,0.4-0.1,0.5l-0.3-0.1c0-0.1,0-0.3-0.1-0.7c-0.1-0.4-0.1-0.7-0.1-0.9c-0.1,0-0.2,0.1-0.4,0.2c-0.1,0.1-0.2,0.2-0.3,0.2
		l-0.1-0.1l-0.2-0.8l0.1-0.8c-0.1,0.1-0.3,0.1-0.5,0.1l-0.4-1.3c0-0.3,0-0.5-0.1-0.7l-0.2,0.8l-0.3-0.1c-0.2-0.8-0.3-1.5-0.3-2.2
		h-0.2c0,0.3-0.2,0.4-0.5,0.4l-0.3-0.8c0-0.3-0.1-0.7-0.1-1.2l-0.1,0.1c-0.1,0.2-0.1,0.3-0.1,0.3l-0.3-0.1c0-0.1,0-0.6-0.1-1.4
		l-0.2,0.3l-0.2-0.1c-0.2-0.7-0.3-1.1-0.4-1.1c0,0.1-0.2,0.2-0.3,0.1c-0.4-0.7-0.7-1.5-1-2.5l-0.3,0.1c0.1,0.3,0.1,0.4,0.1,0.5
		c0,0,0,0.1-0.1,0.1c-0.1,0-0.1,0.1-0.2,0.2c0.3,0.5,0.5,0.8,0.5,1l-0.1,0.1c0,0-0.1,0-0.3,0s-0.2,0-0.3,0c0,0.1,0.2,0.3,0.4,0.7
		c0.2,0.3,0.4,0.6,0.4,0.9l-0.1,0.1c-0.1,0-0.3,0-0.6-0.1c0,0.2,0.2,0.4,0.4,0.7c0.2,0.3,0.3,0.6,0.3,0.9h-0.2c0,0-0.1,0-0.2-0.1
		c-0.1-0.1-0.1-0.1-0.2-0.2v0.1c0.5,1,0.7,1.5,0.6,1.7l-0.1,0.1c-0.1,0-0.2-0.1-0.5-0.2c-0.2-0.1-0.4-0.2-0.5-0.1
		c0.1,0.1,0.2,0.3,0.4,0.5c0.2,0.2,0.3,0.4,0.5,0.6c0.1,0.2,0.2,0.4,0.2,0.6c-0.1,0-0.2,0-0.3,0c-0.1,0-0.2-0.1-0.3-0.1
		c-0.1,0-0.2-0.1-0.3-0.1l-0.1,0.1c0.6,1,0.9,1.7,0.8,2c-0.1,0-0.2,0-0.3-0.1c-0.1-0.1-0.3-0.1-0.4-0.2c0.8,1.2,1,1.9,0.7,2.1
		l-0.8-0.5v0.2c0.7,1,1.1,1.7,1,2.1l-0.7-0.3c0,0.1,0.1,0.3,0.3,0.7c0.2,0.4,0.2,0.6,0.3,0.7c0,0.1,0,0.3,0,0.6
		c-0.1,0-0.2,0-0.3-0.1c-0.1-0.1-0.2-0.1-0.4-0.1c0,0,0.1,0.2,0.3,0.5c0.2,0.3,0.2,0.5,0.3,0.6c0,0.1,0.1,0.3,0.2,0.6
		c0.1,0.3,0.1,0.5-0.1,0.6H330c-0.2-0.3-0.4-0.5-0.6-0.5c0,0.2,0.2,0.5,0.6,0.9c0.3,0.5,0.5,0.8,0.5,1.1c-0.1,0-0.3,0-0.4-0.1
		c-0.2-0.1-0.2-0.1-0.3-0.1c0,0.2,0.1,0.5,0.4,1c0.2,0.4,0.3,0.8,0.2,1v0.1h-0.2c-0.1-0.2-0.2-0.3-0.4-0.4h-0.2l0.3,0.6
		c0.2,0,0.3,0,0.4,0.1c0,0.3-0.1,0.6-0.3,0.9h-0.3c-0.1-0.2-0.3-0.3-0.6-0.3c0.2,0.3,0.2,0.5-0.1,0.7c-0.1-0.1-0.3-0.2-0.5-0.4
		c-0.2-0.2-0.4-0.3-0.5-0.4l-0.1,0.1c0.1,0.2,0.1,0.4,0,0.5l-0.5,0.1c-0.3-0.4-0.7-0.7-0.9-0.8c0,0.3-0.1,0.5-0.3,0.8h-0.3
		c-0.1-0.3-0.4-0.7-0.9-1l-0.2,0.1c0,0.1,0,0.3-0.1,0.6c0,0.3-0.1,0.5-0.1,0.6h-0.3c-0.1-0.2-0.3-0.5-0.8-1.1h-0.2l-0.1,0.1
		c0,0.1-0.1,0.2-0.1,0.5c0,0.2-0.1,0.4-0.2,0.4c-0.2,0.1-0.3,0.1-0.5-0.1c-0.2-0.2-0.3-0.3-0.4-0.6c-0.1-0.2-0.2-0.4-0.3-0.4
		c0,0.1-0.1,0.2-0.1,0.5c0,0.2-0.1,0.4-0.2,0.6c-0.1,0.1-0.3,0.2-0.5,0.2c-0.4-0.7-0.7-1.1-0.9-1.2c-0.2,0.7-0.4,1.1-0.8,1.2
		c-0.2-0.5-0.4-0.9-0.6-1c-0.1,0-0.4,0.2-0.7,0.6s-0.6,0.5-0.9,0.6v-0.1c0-0.1,0-0.4,0.1-0.7c0.1-0.3,0.1-0.6,0-0.7l-0.1,0.1
		c-0.3,0.7-1,1.1-1.8,1.1c0-0.4,0-0.7,0.1-0.8c-0.6,0.3-1.3,0.6-2,0.7l-0.3-0.3c0,0,0-0.1,0.1-0.2c0.3,0,0.5-0.3,0.6-1
		c-0.3,0.1-0.5,0.1-0.6,0.1l-0.2-0.3c0-0.3,0.2-0.7,0.6-1.2h-0.6c0-0.2,0-0.4,0.1-0.7c0.1-0.3,0.1-0.5,0.1-0.6c-0.2,0-0.3,0-0.4,0
		c0-0.3,0.1-0.7,0.3-1.1c0.2-0.4,0.3-0.7,0.4-0.9c0,0-0.1,0-0.3,0.1c-0.1,0.1-0.2,0.1-0.3,0.2l-0.1-0.1c0-0.2,0.1-0.4,0.3-0.7
		c0.1-0.2,0.2-0.4,0.2-0.5c-0.2,0-0.3,0-0.4-0.1c0-0.3,0.1-0.9,0.5-1.9h-0.3l-0.2-0.3c0.3-0.5,0.4-0.9,0.5-1.4
		c-0.1,0.1-0.3,0.1-0.5,0.1l-0.1-0.2c0-0.2,0.2-0.5,0.3-0.7c0.2-0.3,0.3-0.5,0.3-0.7c-0.1,0-0.2,0-0.3,0.1c-0.1,0.1-0.2,0.1-0.2,0.1
		l-0.1-0.1c0-0.3,0.1-0.6,0.3-1.1c0.3-0.5,0.4-0.7,0.5-0.9l-0.2,0.1l-0.6-0.2c0-0.3,0.2-0.6,0.6-0.9c0.3-0.3,0.5-0.6,0.6-0.8
		c-0.4,0.1-0.7,0.1-0.9-0.1c0-0.3,0.2-0.6,0.5-0.8c0.3-0.3,0.4-0.5,0.5-0.7c-0.1,0-0.2,0.1-0.5,0.2c-0.2,0.1-0.4,0.1-0.5,0.1
		c-0.1,0-0.2-0.1-0.2-0.3c0.4-0.7,0.7-1.2,1-1.6l-0.1-0.1c-0.4,0.2-0.7,0.1-0.8-0.3c0,0-0.1-0.1-0.1-0.2l0.8-1.2
		c-0.5,0.1-0.8,0.1-0.8-0.1c0-0.3,0.2-0.6,0.4-0.9c0.2-0.3,0.4-0.5,0.5-0.7c-0.5,0-0.8-0.1-0.9-0.3c0-0.2,0-0.3,0.1-0.5
		c0.1-0.2,0.2-0.3,0.4-0.5c0.2-0.2,0.3-0.3,0.3-0.5c-0.3,0-0.7,0-1,0v-0.1c0.2-0.7,0.5-1.2,1-1.5V30l-0.8-0.1v-0.3
		c0.1-0.4,0.3-0.6,0.5-0.7v-0.3c-0.3,0.1-0.5,0.1-0.7,0.1l-0.1-0.2c0,0,0.2-0.5,0.6-1.5l-0.6-0.3v-0.3c0-0.2,0.2-0.5,0.5-0.7
		c0.3-0.3,0.4-0.5,0.5-0.6c-0.5,0-0.8-0.1-0.9-0.3c0-0.2,0.2-0.5,0.4-0.8c0.2-0.3,0.3-0.5,0.4-0.7c-0.6,0-0.9-0.1-1.1-0.2l0.1-0.3
		c0.2-0.1,0.6-0.4,1-0.8l-0.1-0.1c-0.5-0.1-0.7-0.3-0.8-0.5v-0.3c0.5-0.2,0.8-0.4,0.8-0.6l-1-0.4c0-0.1,0.2-0.3,0.6-0.6
		c0.3-0.3,0.5-0.5,0.6-0.6c-0.3,0-0.4,0-0.5-0.1c0-0.2,0-0.4,0.2-0.7c0.2-0.2,0.3-0.4,0.4-0.5l-1,0.2l-0.1-0.2
		c0-0.2,0.2-0.5,0.4-0.8c0.2-0.3,0.3-0.6,0.4-0.8c0,0-0.1,0-0.3,0c-0.1,0-0.2,0-0.3,0l-0.1-0.3c0.1-0.2,0.2-0.4,0.3-0.7
		c-0.1,0-0.3,0-0.4-0.1V15c0-0.1,0.1-0.3,0.2-0.5c0.2-0.2,0.2-0.3,0.2-0.5c-0.1,0-0.2-0.1-0.2-0.1c0,0-0.1-0.1-0.1-0.1l0.1-0.5
		c0,0,0.3-0.5,0.7-1.2l-0.1-0.1c-0.2,0.1-0.3,0.1-0.5,0.1l-0.1-0.4c0.5-0.3,0.7-0.6,0.6-0.8c-0.2,0.1-0.3,0.1-0.5,0.1l-0.1-0.1
		c0-0.3,0.1-0.8,0.4-1.4h0.5V8.6c0.2,0,0.3,0,0.5,0.1c0.1,0.1,0.3,0.2,0.5,0.4c0.2,0.2,0.3,0.2,0.3,0.3c0-0.1,0-0.2,0-0.3
		c0-0.1,0.1-0.2,0.1-0.3l0.4,0.1c0.2,0.2,0.4,0.3,0.6,0.5c0-0.5,0.1-0.8,0.2-0.8h0.1c0.1,0.1,0.3,0.3,0.5,0.6
		c0.2,0.3,0.4,0.5,0.6,0.6l0.1-0.6c0.2,0,0.5,0.2,0.7,0.4c0.3,0.2,0.5,0.4,0.7,0.4c0-0.7,0-1.1,0.1-1.2l0.1-0.1
		c0.3,0.3,0.6,0.5,1,0.7l0.1-0.3c0.2,0,0.5,0,0.7,0.2c0.3,0.2,0.5,0.3,0.6,0.3c0.2-0.6,0.5-1,0.9-1.2c0.1,0,0.2,0.1,0.1,0.3v0.9
		l0.2-0.1c0.1-0.3,0.4-0.7,1-1c0.1,0,0.2,0,0.3,0.1v1h0.1c0.2-0.3,0.6-0.6,1.3-1l0.1,0.1c0,0.1,0,0.2,0,0.3c0,0.1,0,0.2,0,0.3
		l0.1-0.1c0.1,0,0.2-0.2,0.4-0.3c0.2-0.2,0.4-0.3,0.6-0.3l0.3,0.2c0,0.1-0.1,0.2-0.1,0.2c0,0.1-0.1,0.1-0.1,0.2
		c0.1,0,0.3-0.1,0.6-0.2c0.3-0.1,0.5-0.2,0.6-0.2c0.1,0,0.3,0,0.6,0V9c1-0.4,1.5-0.6,1.6-0.7l0.1,0.1v0.2l-0.5,1h0.8
		c0,0.1,0.1,0.2,0.2,0.5s0.1,0.4,0.2,0.5c0,0,0.1,0.1,0.2,0.1c0.1,0,0.2,0.1,0.2,0.1v0.3c-0.1,0-0.3,0-0.5-0.1
		c-0.2-0.1-0.3-0.1-0.4-0.1l0.1,0.1c0.6,0.3,1.1,0.8,1.4,1.5l0.5,0.1c0,0,0.1,0.2,0.2,0.4c0.1,0.2,0.2,0.4,0.2,0.5
		c-0.1,0-0.3,0-0.5,0c-0.2-0.1-0.3-0.1-0.4-0.1c0.1,0.3,0.5,0.6,1.3,1.1l-0.1,0.3l0.5,0.3c0.3,0.2,0.5,0.4,0.6,0.6L334,16
		c-0.4,0.1-0.7,0.2-0.7,0.2c1,0.4,1.4,0.8,1.4,1.3c0,0-0.4-0.1-1-0.3l0.1,0.3c1.3,0.4,2,1,2.3,1.6v0.3c-0.3,0-0.5,0-0.6,0.1
		c0.5,0.1,1,0.6,1.4,1.3v0.3c-0.1,0-0.2,0-0.3,0.1l1.2,0.6V22l-0.5,0.3c0,0,0,0.1,0.1,0.1c0.4,0,0.7,0.1,0.9,0.2
		c0.1,0.2,0.1,0.3,0.1,0.5c-0.3,0.1-0.6,0.2-0.6,0.3c0.8,0.2,1.4,0.5,1.7,1c0,0.1-0.1,0.2-0.2,0.3c-0.4,0-0.6,0-0.6,0.1
		c0.3,0,0.8,0.3,1.4,0.8c0,0.2,0,0.3-0.1,0.4h-0.3v0.1l1.1,0.7c0,0.1,0,0.3-0.1,0.4c-0.2,0-0.3,0.1-0.3,0.2c0.6,0.1,1,0.4,1.4,0.9
		c0,0.1-0.1,0.2-0.2,0.3c-0.1,0.1-0.2,0.2-0.2,0.3c0.5,0.2,1,0.5,1.4,0.8c0,0.2,0,0.3-0.1,0.4c0,0-0.1,0-0.3,0
		c-0.2,0-0.2,0.1-0.3,0.1c0.6,0.3,1.1,0.6,1.4,1.2c-0.1,0.2-0.2,0.3-0.1,0.4l0.3,0.1c0.2-0.6,0.3-1.1,0.3-1.4c0,0-0.1,0-0.3,0.1
		c-0.1,0.1-0.2,0.1-0.3,0.1c-0.1-0.1-0.1-0.2-0.2-0.5c0-0.2,0-0.4,0.1-0.6c0.1-0.2,0.1-0.4,0.2-0.6c0.1-0.2,0.1-0.4,0.1-0.4
		c-0.2,0-0.3,0-0.5-0.3c0-0.3,0.1-0.6,0.3-1c0.2-0.3,0.3-0.6,0.4-0.8c-0.4,0.2-0.6,0.2-0.8,0c-0.1-0.2,0-0.5,0.3-0.9
		c0.3-0.4,0.4-0.6,0.4-0.7c0,0-0.2,0-0.3,0.1c-0.2,0-0.3,0-0.4,0l-0.1-0.4l0.6-1.2c-0.1,0-0.3,0-0.5-0.1c-0.1-0.3,0-0.7,0.3-1.1
		c0.3-0.4,0.4-0.6,0.5-0.7c-0.4,0-0.7,0-0.7-0.1l-0.1-0.1c0-0.3,0.1-0.5,0.3-0.8c0.2-0.3,0.3-0.5,0.3-0.7l-0.5,0.1h-0.1l-0.1-0.1
		c-0.1-0.2-0.1-0.4,0-0.6c0.1-0.2,0.2-0.5,0.4-0.7c0.2-0.3,0.3-0.5,0.3-0.6h-0.2l-0.6,0.1v-0.1c-0.1-0.3,0-0.6,0.2-1
		c0.2-0.4,0.3-0.7,0.3-0.7l-0.3,0.3c0,0-0.1,0-0.1-0.1c0,0-0.1-0.1-0.1-0.1c0-0.5,0.2-1.1,0.6-1.8c-0.2-0.3-0.3-0.6-0.3-0.6l0.6-1.3
		h-0.7c-0.1-0.1-0.1-0.2-0.2-0.3c0-0.1,0-0.2,0.1-0.3c0.1-0.1,0.2-0.2,0.3-0.3c0.1-0.1,0.2-0.2,0.3-0.2c0.1-0.1,0.2-0.1,0.2-0.2
		c0-0.2-0.2-0.4-0.4-0.7c-0.2-0.2-0.3-0.4-0.4-0.6l-0.3-0.1l0.2-0.3c0.1,0,0.2,0,0.4,0.1c0.1,0.1,0.2,0.1,0.3,0.1
		c-0.2-0.5-0.2-1-0.1-1.4h0.3c0.3,0,0.5,0.2,0.7,0.6c0.2,0.3,0.4,0.5,0.5,0.6c-0.1-0.6,0-0.9,0.4-1l0.8,0.7c0,0,0.1,0,0.1-0.1
		c0-0.3,0.1-0.6,0.2-0.7l0.3-0.1c0,0,0.2,0.2,0.4,0.3c0.2,0.2,0.3,0.3,0.4,0.5h0.1c0-0.3,0.3-0.6,0.6-0.9h0.2l0.2,0.1
		c-0.1,0.3-0.2,0.7-0.2,1.1c0.1,0,0.3-0.3,0.6-0.7c0.3-0.4,0.5-0.6,0.6-0.7h0.1c0.2,0.3,0.2,0.6,0.1,1.1l0.1,0.1
		c0.1-0.3,0.3-0.5,0.7-0.7c0.4-0.2,0.7-0.3,0.9-0.2l-0.3,0.8c0,0,0.1,0.1,0.1,0.1h0.2c0.4-0.5,1-0.9,1.8-1l0.1,0.1
		c0,0,0.1,0.1,0.1,0.2c-0.2,0.3-0.3,0.5-0.3,0.7h0.1c0.6-0.3,1-0.5,1.2-0.5l0.3,0.1c0,0,0,0.1,0,0.2c0,0.1,0,0.1,0,0.2
		c0.1,0,0.3-0.1,0.6-0.3c0.3-0.1,0.6-0.2,0.8-0.3c0.1,0.1,0.2,0.2,0.3,0.2c0,0,0.1,0.1,0.1,0.2c0,0.1,0,0.1,0,0.2
		c0.7-0.2,1.2-0.4,1.5-0.5l0.2,0.2c0,0,0,0.1,0,0.2c0,0.1-0.1,0.1-0.1,0.2h0.1c0.8-0.3,1.3-0.3,1.6-0.2l0.1,0.1l-0.5,0.4l0.1,0.1
		C359.9,9.7,360.5,9.8,360.8,9.9z"/>
</g>
</svg>
