<?xml version="1.0" encoding="utf-8"?>
<!-- Generator: Adobe Illustrator 22.0.0, SVG Export Plug-In . SVG Version: 6.00 Build 0)  -->
<svg version="1.1" id="Laag_1" xmlns="http://www.w3.org/2000/svg" xmlns:xlink="http://www.w3.org/1999/xlink" x="0px" y="0px"
	 viewBox="0 0 202.8 28.5" style="enable-background:new 0 0 202.8 28.5;" xml:space="preserve">
<g>
	<path d="M9.8,15v10.9c0,0.5,0.3,0.7,0.9,0.7h1v1.9h-1.3c-2,0-3.3-0.4-3.7-1.4C6,27.9,5,28.6,3.8,28.6c-2.1,0-3.1-1-3.1-2.7v-9.7
		c0-1.3,0.8-2,2.1-2.3c-1.3-0.3-1.9-1-1.9-2.1V2.5c0-1.7,1.7-2.6,4.4-2.6c2.9,0,4.5,0.9,4.5,2.6v9.7H6.5V2.6c0-0.5-0.3-0.8-1.1-0.8
		c-0.7,0-1.1,0.3-1.1,0.8v9.6c0,0.6,0.4,0.9,1.2,0.9h6.2v1.8H9.8V15z M6.4,25.7V15H5.5C4.6,15,4,15.4,4,16v9.7
		c0,0.6,0.5,0.9,1.2,0.9C6,26.6,6.4,26.3,6.4,25.7z"/>
	<path d="M26.1,0v28.5h-3.4V14.7h-2.1v13.8h-3.4V0h3.4v12.7h2.1V0H26.1z"/>
	<path d="M35,26.4v2h-6.7V0h6.6v2h-3.2v10.7h3v2h-3v11.8L35,26.4L35,26.4z"/>
	<path d="M44.2,2h-2.7v26.5h-3.4V2h-2.7V0h8.8C44.2,0,44.2,2,44.2,2z"/>
	<path d="M55.6,7.8V0h3v28.5h-3.2l-3-18.5h-0.3l0.4,9.7v8.8h-3V0H53l2.9,17.5h0.3L55.6,7.8z"/>
	<path d="M66.2,21h-2.5l-0.4,7.4h-3.4l2.4-28.5h5.3l2.5,28.5h-3.5L66.2,21z M66.1,19L65.4,6.8l-0.3-4.3h-0.3l-0.3,4.3L63.8,19H66.1z
		"/>
	<path d="M78.2,2h-2.7v26.5h-3.4V2h-2.7V0h8.8C78.2,0,78.2,2,78.2,2z"/>
	<path d="M82.6,0v28.5h-3.3V0H82.6z"/>
	<path d="M93.8,2.9v22.6c0,2-1.6,3.1-4.5,3.1c-3,0-4.5-1.1-4.5-3.1V2.9c0-2,1.6-3.1,4.5-3.1C92.2-0.2,93.8,0.9,93.8,2.9z M90.4,2.7
		c0-0.5-0.4-0.9-1.1-0.9s-1.1,0.3-1.1,0.9v22.9c0,0.6,0.5,0.9,1.1,0.9c0.7,0,1.1-0.4,1.1-0.9V2.7z"/>
	<path d="M101.9,7.8V0h3v28.5h-3.2l-3-18.5h-0.3l0.4,9.7v8.8h-3V0h3.3l2.9,17.5h0.3L101.9,7.8z"/>
	<path d="M112.5,21H110l-0.4,7.4h-3.4l2.4-28.5h5.3l2.5,28.5h-3.5L112.5,21z M112.4,19l-0.7-12.2l-0.3-4.3h-0.3l-0.3,4.3L110.1,19
		H112.4z"/>
	<path d="M124.2,26.4v2h-6.5V0h3.3v26.5L124.2,26.4L124.2,26.4z"/>
	<path d="M131.9,26.4v2h-6.7V0h6.6v2h-3.2v10.7h3v2h-3v11.8L131.9,26.4L131.9,26.4z"/>
	<path d="M145.5,2h-2.7v26.5h-3.4V2h-2.7V0h8.8L145.5,2L145.5,2z"/>
	<path d="M155.5,0v28.5h-3.4V14.7H150v13.8h-3.4V0h3.4v12.7h2.1V0H155.5z"/>
	<path d="M164.4,26.4v2h-6.7V0h6.6v2h-3.2v10.7h3v2h-3v11.8L164.4,26.4L164.4,26.4z"/>
	<path d="M171.3,21h-2.5l-0.4,7.4H165l2.4-28.5h5.3l2.5,28.5h-3.5L171.3,21z M171.2,19l-0.7-12.2l-0.3-4.3h-0.3l-0.3,4.3L169,19
		H171.2z"/>
	<path d="M183.3,2h-2.7v26.5h-3.4V2h-2.7V0h8.8L183.3,2L183.3,2z"/>
	<path d="M191.1,26.4v2h-6.7V0h6.6v2h-3.2v10.7h3v2h-3v11.8L191.1,26.4L191.1,26.4z"/>
	<path d="M198.6,28.4l-1.1-11.6H196v11.6h-3.3V0h4.6c2.7,0,4.4,0.9,4.4,2.9v10.9c0,1-0.5,1.7-1.2,2.1l1.5,12.5H198.6z M196.9,14.8
		c0.9,0,1.3-0.3,1.3-1.1V3.1c0-0.7-0.5-1.1-1.3-1.1H196v12.9h0.9V14.8z"/>
</g>
</svg>
