<?xml version="1.0" encoding="utf-8"?>
<!-- Generator: Adobe Illustrator 24.0.0, SVG Export Plug-In . SVG Version: 6.00 Build 0)  -->
<svg version="1.1" id="Laag_1" xmlns="http://www.w3.org/2000/svg" xmlns:xlink="http://www.w3.org/1999/xlink" x="0px" y="0px"
	 width="379.6px" height="33px" viewBox="0 0 379.6 33" style="enable-background:new 0 0 379.6 33;" xml:space="preserve">
<style type="text/css">
	.st0{fill:#FFFFFF;}
</style>
<g>
	<path class="st0" d="M9.4,25.3h-3L3,16.4v8.9H0V8.6h3l3.5,9.3V8.6h3V25.3z"/>
	<path class="st0" d="M14.4,22l-0.7,3.2h-3.1l4.3-16.7h2.9L22,25.3h-3.1L18.3,22H14.4z M16.3,12.6l-1.4,6.8h2.8L16.3,12.6z"/>
	<path class="st0" d="M27.1,11.3v14h-3v-14h-2.9V8.6H30v2.7H27.1z"/>
	<path class="st0" d="M34.2,8.6v16.7h-3V8.6H34.2z"/>
	<path class="st0" d="M36.2,20.7v-7.5c0-1.6,0.4-2.8,1.3-3.6c0.9-0.8,2.1-1.2,3.5-1.2c1.4,0,2.5,0.4,3.4,1.2c0.8,0.8,1.3,2,1.3,3.6
		v7.5c0,1.5-0.4,2.7-1.3,3.6c-0.9,0.8-2.1,1.2-3.5,1.2c-1.4,0-2.6-0.4-3.4-1.2C36.6,23.4,36.2,22.3,36.2,20.7z M42.7,20.3v-6.7
		c0-0.9-0.1-1.5-0.4-1.9C42,11.3,41.6,11,41,11c-0.6,0-1.1,0.2-1.4,0.7s-0.4,1.1-0.4,2v6.7c0,1.6,0.6,2.4,1.8,2.4
		c0.6,0,1-0.2,1.3-0.6S42.7,21.1,42.7,20.3z"/>
	<path class="st0" d="M57.1,25.3h-3l-3.5-8.9v8.9h-3V8.6h3l3.5,9.3V8.6h3V25.3z"/>
	<path class="st0" d="M62,22l-0.7,3.2h-3.1l4.3-16.7h2.9l4.3,16.7h-3.1L65.9,22H62z M64,12.6l-1.4,6.8h2.8L64,12.6z"/>
	<path class="st0" d="M73.7,22l-0.7,3.2H70l4.3-16.7h2.9l4.3,16.7h-3.1L77.6,22H73.7z M75.7,12.6l-1.4,6.8h2.8L75.7,12.6z"/>
	<path class="st0" d="M85.5,8.6v14H90v2.7h-7.5V8.6H85.5z"/>
	<path class="st0" d="M95.6,20.7v-7.5c0-1.6,0.4-2.8,1.3-3.6c0.9-0.8,2.1-1.2,3.5-1.2c1.4,0,2.5,0.4,3.4,1.2c0.8,0.8,1.3,2,1.3,3.6
		v7.5c0,1.5-0.4,2.7-1.3,3.6c-0.9,0.8-2.1,1.2-3.5,1.2c-1.4,0-2.6-0.4-3.4-1.2C96,23.4,95.6,22.3,95.6,20.7z M102.1,20.3v-6.7
		c0-0.9-0.1-1.5-0.4-1.9c-0.3-0.4-0.7-0.7-1.3-0.7c-0.6,0-1.1,0.2-1.4,0.7s-0.4,1.1-0.4,2v6.7c0,1.6,0.6,2.4,1.8,2.4
		c0.6,0,1-0.2,1.3-0.6S102.1,21.1,102.1,20.3z"/>
	<path class="st0" d="M116.4,25.3h-3l-3.5-8.9v8.9h-3V8.6h3l3.5,9.3V8.6h3V25.3z"/>
	<path class="st0" d="M123.1,8.6c1.4,0,2.5,0.4,3.4,1.2s1.3,2,1.3,3.6v7.1c0,1.6-0.4,2.8-1.3,3.6c-0.9,0.8-2,1.2-3.5,1.2h-4.5V8.6
		H123.1z M124.3,22c0.3-0.4,0.4-1,0.4-1.8v-6.3c0-0.9-0.1-1.5-0.4-1.9s-0.7-0.7-1.3-0.7h-1.6v11.3h1.6C123.6,22.6,124,22.4,124.3,22
		z"/>
	<path class="st0" d="M132.6,15.5h3.9v2.7h-3.9v4.5h4.5v2.7h-7.5V8.6h7.5v2.7h-4.5V15.5z"/>
	<path class="st0" d="M141.7,18.6v6.7h-3V8.6h4.5c1.6,0,2.8,0.4,3.5,1.2c0.7,0.8,1,2.1,1,3.8c0,1.1-0.2,2-0.5,2.8s-0.8,1.3-1.5,1.7
		l2.5,7.3h-3.1l-2.1-6.7H141.7z M143.3,15.9c0.6,0,1-0.2,1.2-0.6c0.2-0.4,0.3-1,0.3-1.8s-0.1-1.4-0.3-1.7c-0.2-0.4-0.6-0.6-1.2-0.6
		h-1.5v4.7H143.3z"/>
	<path class="st0" d="M162.1,25.3h-3.2L157,15l-1.8,10.3H152l-3-16.7h3l1.6,12.5l1.6-12.5h3.6l1.6,12.5l1.6-12.5h3L162.1,25.3z"/>
	<path class="st0" d="M169.3,8.6v16.7h-3V8.6H169.3z"/>
	<path class="st0" d="M171.2,22.6c1,0,1.5-0.5,1.5-1.6V8.6h3v12.7c0,2.6-1.4,4-4.3,4h-0.6v-2.7H171.2z"/>
	<path class="st0" d="M177.3,20.5h2.8c0,0.8,0.2,1.4,0.5,1.8c0.3,0.4,0.7,0.6,1.3,0.6c0.6,0,1-0.2,1.3-0.5c0.3-0.4,0.4-0.9,0.4-1.7
		c0-0.6-0.1-1.2-0.4-1.5s-0.8-0.7-1.5-1.1l-1.1-0.5c-1.1-0.5-1.9-1.1-2.3-1.8s-0.7-1.7-0.7-2.9c0-1.4,0.4-2.5,1.2-3.4
		s1.9-1.3,3.3-1.3c1.4,0,2.4,0.4,3.2,1.2c0.8,0.8,1.1,2,1.2,3.6h-2.7c0-0.8-0.1-1.3-0.4-1.7c-0.2-0.4-0.7-0.6-1.2-0.6
		c-1.1,0-1.6,0.6-1.6,1.9c0,0.6,0.1,1,0.4,1.4c0.3,0.3,0.7,0.7,1.3,0.9l1.1,0.5c1.2,0.5,2,1.2,2.5,1.9s0.8,1.8,0.8,3.1
		c0,1.5-0.4,2.7-1.2,3.6s-2,1.3-3.4,1.3c-1.5,0-2.6-0.4-3.4-1.3C177.7,23.3,177.3,22.1,177.3,20.5z"/>
	<path class="st0" d="M199.9,25.3h-3v-9.8l-2.1,6.5h-1.6l-2.1-6.5v9.7h-3V8.6h3l2.9,8.8l2.9-8.8h3V25.3z"/>
	<path class="st0" d="M202.5,23.3c-0.4-0.7-0.6-1.5-0.6-2.4V8.6h3v12.2c0,0.7,0.1,1.2,0.4,1.5c0.3,0.3,0.7,0.5,1.2,0.5
		c1,0,1.6-0.7,1.6-2V8.6h3v12.3c0,0.9-0.2,1.7-0.6,2.4c-0.4,0.7-0.9,1.2-1.6,1.6c-0.7,0.4-1.5,0.6-2.3,0.6s-1.6-0.2-2.3-0.6
		C203.5,24.5,202.9,24,202.5,23.3z"/>
	<path class="st0" d="M212.5,20.5h2.8c0,0.8,0.2,1.4,0.5,1.8c0.3,0.4,0.7,0.6,1.3,0.6c0.6,0,1-0.2,1.3-0.5c0.3-0.4,0.4-0.9,0.4-1.7
		c0-0.6-0.1-1.2-0.4-1.5c-0.3-0.4-0.8-0.7-1.5-1.1l-1.1-0.5c-1.1-0.5-1.9-1.1-2.3-1.8c-0.5-0.7-0.7-1.7-0.7-2.9
		c0-1.4,0.4-2.5,1.2-3.4c0.8-0.8,1.9-1.3,3.3-1.3c1.4,0,2.4,0.4,3.2,1.2c0.8,0.8,1.1,2,1.2,3.6h-2.7c0-0.8-0.1-1.3-0.4-1.7
		c-0.2-0.4-0.7-0.6-1.2-0.6c-1.1,0-1.6,0.6-1.6,1.9c0,0.6,0.1,1,0.4,1.4c0.3,0.3,0.7,0.7,1.3,0.9l1.1,0.5c1.2,0.5,2,1.2,2.5,1.9
		s0.8,1.8,0.8,3.1c0,1.5-0.4,2.7-1.2,3.6s-2,1.3-3.4,1.3c-1.5,0-2.6-0.4-3.4-1.3C212.9,23.3,212.5,22.1,212.5,20.5z"/>
	<path class="st0" d="M226.3,15.5h3.9v2.7h-3.9v4.5h4.5v2.7h-7.5V8.6h7.5v2.7h-4.5V15.5z"/>
	<path class="st0" d="M233.1,23.3c-0.4-0.7-0.6-1.5-0.6-2.4V8.6h3v12.2c0,0.7,0.1,1.2,0.4,1.5s0.7,0.5,1.2,0.5c1,0,1.6-0.7,1.6-2
		V8.6h3v12.3c0,0.9-0.2,1.7-0.6,2.4c-0.4,0.7-0.9,1.2-1.6,1.6c-0.7,0.4-1.5,0.6-2.3,0.6c-0.9,0-1.6-0.2-2.3-0.6S233.4,24,233.1,23.3
		z"/>
	<path class="st0" d="M255.4,25.3h-3v-9.8l-2.1,6.5h-1.6l-2.1-6.5v9.7h-3V8.6h3l2.9,8.8l2.9-8.8h3V25.3z"/>
	<path class="st0" d="M264.7,8.6v16.7h-3V8.6H264.7z"/>
	<path class="st0" d="M276.3,25.3h-3l-3.5-8.9v8.9h-3V8.6h3l3.5,9.3V8.6h3V25.3z"/>
	<path class="st0" d="M287.2,8.6c1.4,0,2.5,0.4,3.4,1.2s1.3,2,1.3,3.6v7.1c0,1.6-0.4,2.8-1.3,3.6c-0.9,0.8-2,1.2-3.5,1.2h-4.5V8.6
		H287.2z M288.4,22c0.3-0.4,0.4-1,0.4-1.8v-6.3c0-0.9-0.1-1.5-0.4-1.9c-0.3-0.4-0.7-0.7-1.3-0.7h-1.6v11.3h1.6
		C287.6,22.6,288.1,22.4,288.4,22z"/>
	<path class="st0" d="M293.6,20.7v-7.5c0-1.6,0.4-2.8,1.3-3.6c0.9-0.8,2.1-1.2,3.5-1.2c1.4,0,2.5,0.4,3.4,1.2c0.8,0.8,1.3,2,1.3,3.6
		v7.5c0,1.5-0.4,2.7-1.3,3.6c-0.9,0.8-2.1,1.2-3.5,1.2c-1.4,0-2.6-0.4-3.4-1.2S293.6,22.3,293.6,20.7z M300.1,20.3v-6.7
		c0-0.9-0.1-1.5-0.4-1.9c-0.3-0.4-0.7-0.7-1.3-0.7c-0.6,0-1.1,0.2-1.4,0.7c-0.3,0.4-0.4,1.1-0.4,2v6.7c0,1.6,0.6,2.4,1.8,2.4
		c0.6,0,1-0.2,1.3-0.6C300,21.7,300.1,21.1,300.1,20.3z"/>
	<path class="st0" d="M308,18.6v6.7h-3V8.6h4.5c1.6,0,2.8,0.4,3.5,1.2c0.7,0.8,1,2.1,1,3.8c0,1.1-0.2,2-0.5,2.8s-0.8,1.3-1.5,1.7
		l2.5,7.3h-3.1l-2.1-6.7H308z M309.6,15.9c0.6,0,1-0.2,1.2-0.6c0.2-0.4,0.3-1,0.3-1.8s-0.1-1.4-0.3-1.7c-0.2-0.4-0.6-0.6-1.2-0.6
		H308v4.7H309.6z"/>
	<path class="st0" d="M320.8,8.6c1.4,0,2.5,0.4,3.4,1.2s1.3,2,1.3,3.6v7.1c0,1.6-0.4,2.8-1.3,3.6c-0.9,0.8-2,1.2-3.5,1.2h-4.5V8.6
		H320.8z M322,22c0.3-0.4,0.4-1,0.4-1.8v-6.3c0-0.9-0.1-1.5-0.4-1.9c-0.3-0.4-0.7-0.7-1.3-0.7h-1.6v11.3h1.6
		C321.3,22.6,321.7,22.4,322,22z"/>
	<path class="st0" d="M330.4,18.6v6.7h-3V8.6h4.5c1.6,0,2.8,0.4,3.5,1.2c0.7,0.8,1,2.1,1,3.8c0,1.1-0.2,2-0.5,2.8s-0.8,1.3-1.5,1.7
		l2.5,7.3h-3.1l-2.1-6.7H330.4z M331.9,15.9c0.6,0,1-0.2,1.2-0.6c0.2-0.4,0.3-1,0.3-1.8s-0.1-1.4-0.3-1.7c-0.2-0.4-0.6-0.6-1.2-0.6
		h-1.5v4.7H331.9z"/>
	<path class="st0" d="M341.5,15.5h3.9v2.7h-3.9v4.5h4.5v2.7h-7.5V8.6h7.5v2.7h-4.5V15.5z"/>
	<path class="st0" d="M347.5,20.7v-7.5c0-1.6,0.4-2.8,1.3-3.6c0.9-0.8,2.1-1.2,3.5-1.2c1.4,0,2.5,0.4,3.4,1.2c0.9,0.8,1.3,2,1.3,3.7
		v0.5h-3v-0.5c0-0.8-0.2-1.3-0.5-1.7c-0.3-0.4-0.7-0.5-1.3-0.5c-0.6,0-1.1,0.2-1.4,0.7c-0.3,0.4-0.4,1.1-0.4,2v6.7
		c0,1.6,0.6,2.4,1.8,2.4c0.5,0,1-0.2,1.3-0.6c0.3-0.4,0.5-0.9,0.5-1.6v-0.4h3v0.5c0,1.6-0.4,2.8-1.3,3.6s-2,1.2-3.4,1.2
		c-1.4,0-2.6-0.4-3.4-1.2S347.5,22.3,347.5,20.7z"/>
	<path class="st0" d="M368,25.3h-3v-7.2h-3.1v7.2h-3V8.6h3v6.9h3.1V8.6h3V25.3z"/>
	<path class="st0" d="M375,11.3v14h-3v-14h-2.9V8.6h8.7v2.7H375z"/>
</g>
</svg>
