<?xml version="1.0" encoding="utf-8"?>
<!-- Generator: Adobe Illustrator 24.0.0, SVG Export Plug-In . SVG Version: 6.00 Build 0)  -->
<svg version="1.1" id="Laag_1" xmlns="http://www.w3.org/2000/svg" xmlns:xlink="http://www.w3.org/1999/xlink" x="0px" y="0px"
	 width="298.4px" height="66.6px" viewBox="0 0 298.4 66.6" style="enable-background:new 0 0 298.4 66.6;" xml:space="preserve">
<style type="text/css">
	.st0{fill:#1D1D1B;}
	.st1{fill:#34B080;}
</style>
<g>
	<path class="st0" d="M5.1,20.3L0,6.2h5.1l2.9,9l2.9-9h4.6l-5.1,14H5.1z"/>
	<path class="st0" d="M19.2,20.6c-1.4,0-2.5-0.3-3.4-1c-0.9-0.7-1.3-1.8-1.3-3.2c0-3.1,2.5-4.6,7.5-4.6h1.3v-0.3
		c0-0.7-0.1-1.3-0.4-1.7s-0.7-0.6-1.5-0.6c-1.1,0-1.8,0.6-1.9,1.7H15c0.1-1.6,0.8-2.9,2-3.8c1.2-0.9,2.8-1.3,4.7-1.3
		c2,0,3.6,0.4,4.7,1.3c1.1,0.9,1.7,2.2,1.7,4v9.1h-4.7v-1.6C22.5,19.9,21.1,20.6,19.2,20.6z M20.9,17.3c0.7,0,1.3-0.2,1.7-0.5
		c0.4-0.4,0.7-0.8,0.7-1.4v-0.9H22c-1,0-1.7,0.1-2.1,0.3c-0.4,0.2-0.7,0.6-0.7,1.2C19.2,16.9,19.8,17.3,20.9,17.3z"/>
	<path class="st0" d="M29.4,20.3v-14h4.8v2.3c0.4-0.8,1-1.4,1.8-1.9c0.8-0.5,1.7-0.7,2.8-0.7c1.4,0,2.5,0.4,3.4,1.3
		c0.8,0.9,1.2,2.2,1.2,3.9v9.1h-4.8v-8.2c0-1.6-0.7-2.4-2-2.4c-0.7,0-1.3,0.2-1.7,0.7c-0.4,0.4-0.6,1.1-0.6,2v7.9H29.4z"/>
	<path class="st0" d="M48.8,20.3V0.1h4.8v8.4c0.4-0.8,1-1.4,1.8-1.9c0.8-0.5,1.7-0.7,2.8-0.7c1.4,0,2.5,0.4,3.4,1.3
		c0.8,0.9,1.2,2.2,1.2,3.9v9.1H58v-8.2c0-1.6-0.7-2.4-2-2.4c-0.7,0-1.3,0.2-1.7,0.7c-0.4,0.4-0.6,1.1-0.6,2v7.9H48.8z"/>
	<path class="st0" d="M71.1,20.6c-2.3,0-4.1-0.6-5.5-1.9c-1.4-1.3-2.1-3-2.1-5.3v-0.2c0-2.2,0.7-4,2.2-5.3s3.3-2,5.4-2
		c2.1,0,3.8,0.6,5.1,1.8c1.3,1.2,2,3,2,5.4v1.3h-9.9c0.1,0.9,0.4,1.6,0.9,2.2c0.5,0.5,1.2,0.8,2.1,0.8c1.4,0,2.2-0.6,2.4-1.7h4.5
		c-0.2,1.6-0.9,2.8-2.1,3.7C74.9,20.1,73.2,20.6,71.1,20.6z M68.4,11.6h5.1C73.4,9.9,72.6,9,71.1,9c-0.7,0-1.3,0.2-1.8,0.7
		C68.8,10.2,68.5,10.8,68.4,11.6z"/>
	<path class="st0" d="M84.5,20.6c-3.3,0-4.9-1.6-4.9-4.8V9.5h-1.7V6.2h1.7V3.3h4.8v2.9h2.8v3.3h-2.8v5.8c0,1,0.5,1.5,1.4,1.5
		c0.5,0,0.9-0.1,1.4-0.2v3.6C86.1,20.4,85.3,20.6,84.5,20.6z"/>
	<path class="st0" d="M96,20.6c-1.4,0-2.5-0.3-3.4-1c-0.9-0.7-1.3-1.8-1.3-3.2c0-3.1,2.5-4.6,7.5-4.6h1.3v-0.3
		c0-0.7-0.1-1.3-0.4-1.7s-0.7-0.6-1.5-0.6c-1.1,0-1.8,0.6-1.9,1.7h-4.5c0.1-1.6,0.8-2.9,2-3.8c1.2-0.9,2.8-1.3,4.7-1.3
		c2,0,3.6,0.4,4.7,1.3c1.1,0.9,1.7,2.2,1.7,4v9.1h-4.7v-1.6C99.3,19.9,97.9,20.6,96,20.6z M97.6,17.3c0.7,0,1.3-0.2,1.7-0.5
		c0.4-0.4,0.7-0.8,0.7-1.4v-0.9h-1.3c-1,0-1.7,0.1-2.1,0.3C96.2,15,96,15.4,96,16C96,16.9,96.5,17.3,97.6,17.3z"/>
	<path class="st0" d="M116.4,19.4c-1.1,0.8-2.7,1.2-4.7,1.2c-2,0-3.6-0.4-4.7-1.2c-1.1-0.8-1.7-2-1.8-3.6h4.4
		c0.1,0.5,0.3,0.9,0.6,1.2c0.3,0.3,0.8,0.4,1.4,0.4c1.1,0,1.7-0.4,1.7-1.2c0-0.3-0.2-0.6-0.6-0.8s-1.1-0.3-2-0.5
		c-1.9-0.2-3.3-0.7-4.1-1.4c-0.8-0.7-1.2-1.7-1.2-3.1c0-1.5,0.6-2.6,1.7-3.4c1.1-0.8,2.6-1.2,4.3-1.2c3.8,0,5.9,1.5,6.2,4.5h-4.3
		c-0.2-0.9-0.8-1.4-1.8-1.4c-0.5,0-0.9,0.1-1.2,0.3c-0.3,0.2-0.4,0.5-0.4,0.8c0,0.3,0.2,0.6,0.5,0.7s1,0.3,1.8,0.4
		c2,0.2,3.5,0.7,4.4,1.4s1.4,1.7,1.4,3.2C118.1,17.4,117.5,18.6,116.4,19.4z"/>
	<path class="st0" d="M123.1,4.2c-0.5,0.5-1.1,0.7-1.9,0.7c-0.8,0-1.4-0.2-1.9-0.7c-0.5-0.5-0.8-1.1-0.8-1.8c0-0.7,0.2-1.3,0.8-1.8
		c0.5-0.5,1.1-0.7,1.9-0.7c0.8,0,1.4,0.2,1.9,0.7s0.8,1.1,0.8,1.8C123.9,3.1,123.6,3.7,123.1,4.2z M118.8,20.3v-14h4.8v14H118.8z"/>
	<path class="st0" d="M132.1,20.6c-2.3,0-4.1-0.6-5.5-1.9c-1.4-1.3-2.1-3-2.1-5.3v-0.2c0-2.2,0.7-4,2.2-5.3c1.4-1.3,3.3-2,5.4-2
		c2.1,0,3.8,0.6,5.1,1.8c1.3,1.2,2,3,2,5.4v1.3h-9.9c0.1,0.9,0.4,1.6,0.9,2.2c0.5,0.5,1.2,0.8,2.1,0.8c1.4,0,2.2-0.6,2.4-1.7h4.5
		c-0.2,1.6-0.9,2.8-2.1,3.7C135.9,20.1,134.2,20.6,132.1,20.6z M129.4,11.6h5.1c-0.1-1.8-0.9-2.6-2.5-2.6c-0.7,0-1.3,0.2-1.8,0.7
		S129.5,10.8,129.4,11.6z"/>
	<path class="st0" d="M140.1,20.3V0.1h4.8v20.2H140.1z"/>
	<path class="st0" d="M150.5,20.3v-14h4.8v2.3c0.4-0.8,1-1.4,1.8-1.9c0.8-0.5,1.7-0.7,2.8-0.7c1.4,0,2.5,0.4,3.4,1.3
		s1.2,2.2,1.2,3.9v9.1h-4.8v-8.2c0-1.6-0.7-2.4-2-2.4c-0.7,0-1.3,0.2-1.7,0.7c-0.4,0.4-0.6,1.1-0.6,2v7.9H150.5z"/>
	<path class="st0" d="M169.8,20.6c-1.4,0-2.5-0.3-3.4-1c-0.9-0.7-1.3-1.8-1.3-3.2c0-3.1,2.5-4.6,7.5-4.6h1.3v-0.3
		c0-0.7-0.1-1.3-0.4-1.7c-0.3-0.4-0.7-0.6-1.5-0.6c-1.1,0-1.8,0.6-1.9,1.7h-4.5c0.1-1.6,0.8-2.9,2-3.8c1.2-0.9,2.8-1.3,4.7-1.3
		c2,0,3.6,0.4,4.7,1.3c1.1,0.9,1.7,2.2,1.7,4v9.1H174v-1.6C173.1,19.9,171.8,20.6,169.8,20.6z M171.5,17.3c0.7,0,1.3-0.2,1.7-0.5
		c0.4-0.4,0.7-0.8,0.7-1.4v-0.9h-1.3c-1,0-1.7,0.1-2.1,0.3c-0.4,0.2-0.7,0.6-0.7,1.2C169.8,16.9,170.4,17.3,171.5,17.3z"/>
	<path class="st0" d="M184,20.6c-1.4,0-2.5-0.3-3.4-1s-1.3-1.8-1.3-3.2c0-3.1,2.5-4.6,7.5-4.6h1.3v-0.3c0-0.7-0.1-1.3-0.4-1.7
		c-0.3-0.4-0.7-0.6-1.5-0.6c-1.1,0-1.8,0.6-1.9,1.7h-4.5c0.1-1.6,0.8-2.9,2-3.8c1.2-0.9,2.8-1.3,4.7-1.3c2,0,3.6,0.4,4.7,1.3
		s1.7,2.2,1.7,4v9.1h-4.7v-1.6C187.3,19.9,185.9,20.6,184,20.6z M185.7,17.3c0.7,0,1.3-0.2,1.7-0.5c0.4-0.4,0.7-0.8,0.7-1.4v-0.9
		h-1.3c-1,0-1.7,0.1-2.1,0.3c-0.4,0.2-0.7,0.6-0.7,1.2C184,16.9,184.6,17.3,185.7,17.3z"/>
	<path class="st0" d="M194.3,20.3v-14h4.8V9c0.9-2,2.4-3,4.5-3v4.5c-3-0.1-4.5,0.9-4.5,3.1v6.6H194.3z"/>
</g>
<g>
	<path class="st1" d="M1.2,43.3V23.1H6v11.7l3.8-5.6h5l-4.6,6.3l5,7.7H9.8L6,37.1v6.1H1.2z"/>
	<path class="st1" d="M27.1,41.6c-1.4,1.3-3.3,2-5.5,2s-4-0.6-5.5-1.9s-2.2-3-2.2-5.2v-0.2c0-2.2,0.7-4,2.2-5.3c1.5-1.3,3.3-2,5.5-2
		c2.2,0,4,0.7,5.5,2s2.2,3.1,2.2,5.2v0.2C29.3,38.5,28.6,40.3,27.1,41.6z M21.6,40c0.9,0,1.6-0.3,2.1-1c0.5-0.6,0.7-1.5,0.7-2.7
		v-0.2c0-2.4-0.9-3.7-2.8-3.7c-0.9,0-1.6,0.3-2.1,0.9c-0.5,0.6-0.7,1.5-0.7,2.7v0.2C18.8,38.8,19.8,40,21.6,40z"/>
	<path class="st1" d="M34,43.6c-1.4,0-2.5-0.3-3.4-1c-0.9-0.7-1.3-1.8-1.3-3.2c0-3.1,2.5-4.6,7.5-4.6H38v-0.3c0-0.7-0.1-1.3-0.4-1.7
		s-0.7-0.6-1.5-0.6c-1.1,0-1.8,0.6-1.9,1.7h-4.5c0.1-1.6,0.8-2.9,2-3.8c1.2-0.9,2.8-1.3,4.7-1.3c2,0,3.6,0.4,4.7,1.3
		c1.1,0.9,1.7,2.2,1.7,4v9.1h-4.7v-1.6C37.3,42.9,35.9,43.6,34,43.6z M35.6,40.3c0.7,0,1.3-0.2,1.7-0.5c0.4-0.4,0.7-0.8,0.7-1.4
		v-0.9h-1.3c-1,0-1.7,0.1-2.1,0.3C34.2,38,34,38.4,34,39C34,39.9,34.5,40.3,35.6,40.3z"/>
	<path class="st1" d="M44.3,43.3V23.1h4.8v20.2H44.3z"/>
	<path class="st1" d="M54.7,43.6c-1.4,0-2.5-0.3-3.4-1c-0.9-0.7-1.3-1.8-1.3-3.2c0-3.1,2.5-4.6,7.5-4.6h1.3v-0.3
		c0-0.7-0.1-1.3-0.4-1.7s-0.7-0.6-1.5-0.6c-1.1,0-1.8,0.6-1.9,1.7h-4.5c0.1-1.6,0.8-2.9,2-3.8c1.2-0.9,2.8-1.3,4.7-1.3
		c2,0,3.6,0.4,4.7,1.3c1.1,0.9,1.7,2.2,1.7,4v9.1h-4.7v-1.6C58,42.9,56.6,43.6,54.7,43.6z M56.4,40.3c0.7,0,1.3-0.2,1.7-0.5
		c0.4-0.4,0.7-0.8,0.7-1.4v-0.9h-1.3c-1,0-1.7,0.1-2.1,0.3c-0.4,0.2-0.7,0.6-0.7,1.2C54.7,39.9,55.3,40.3,56.4,40.3z"/>
	<path class="st1" d="M66.4,31.8l-2.7-1l2.1-7l4.2,1.4L66.4,31.8z"/>
	<path class="st1" d="M78.6,42.4c-1.1,0.8-2.7,1.2-4.7,1.2c-2,0-3.6-0.4-4.7-1.2c-1.1-0.8-1.7-2-1.8-3.6H72c0.1,0.5,0.3,0.9,0.6,1.2
		c0.3,0.3,0.8,0.4,1.4,0.4c1.1,0,1.7-0.4,1.7-1.2c0-0.3-0.2-0.6-0.6-0.8c-0.4-0.2-1.1-0.3-2-0.5c-1.9-0.2-3.3-0.7-4.1-1.4
		c-0.8-0.7-1.2-1.7-1.2-3.1c0-1.5,0.6-2.6,1.7-3.4c1.1-0.8,2.6-1.2,4.3-1.2c3.8,0,5.9,1.5,6.2,4.5h-4.3c-0.2-0.9-0.8-1.4-1.8-1.4
		c-0.5,0-0.9,0.1-1.2,0.3c-0.3,0.2-0.4,0.5-0.4,0.8c0,0.3,0.2,0.6,0.5,0.7s1,0.3,1.8,0.4c2,0.2,3.5,0.7,4.4,1.4s1.4,1.7,1.4,3.2
		C80.3,40.4,79.8,41.6,78.6,42.4z"/>
</g>
<g>
	<path class="st1" d="M97.2,41.6c-1.4,1.3-3.3,2-5.5,2s-4-0.6-5.5-1.9s-2.2-3-2.2-5.2v-0.2c0-2.2,0.7-4,2.2-5.3c1.5-1.3,3.3-2,5.5-2
		c2.2,0,4,0.7,5.5,2s2.2,3.1,2.2,5.2v0.2C99.3,38.5,98.6,40.3,97.2,41.6z M91.7,40c0.9,0,1.6-0.3,2.1-1c0.5-0.6,0.7-1.5,0.7-2.7
		v-0.2c0-2.4-0.9-3.7-2.8-3.7c-0.9,0-1.6,0.3-2.1,0.9c-0.5,0.6-0.7,1.5-0.7,2.7v0.2C88.9,38.8,89.8,40,91.7,40z"/>
	<path class="st1" d="M100.1,47.9V29.2h4.8v2.1c1-1.6,2.4-2.5,4.4-2.5c1.7,0,3.1,0.6,4.2,1.9c1.1,1.3,1.7,3.1,1.7,5.4v0.2
		c0,2.3-0.6,4.1-1.7,5.4s-2.5,1.9-4.3,1.9c-1,0-1.9-0.2-2.7-0.7s-1.3-1-1.7-1.7v6.8H100.1z M105.5,39c0.5,0.6,1.2,0.9,2.1,0.9
		s1.6-0.3,2.1-0.9c0.5-0.6,0.7-1.5,0.7-2.7v-0.2c0-1.2-0.2-2.1-0.7-2.7c-0.5-0.6-1.2-0.9-2-0.9s-1.6,0.3-2.1,0.9
		c-0.5,0.6-0.7,1.5-0.7,2.7v0.2C104.7,37.5,105,38.4,105.5,39z"/>
	<path class="st1" d="M126.3,42.4c-1.1,0.8-2.7,1.2-4.7,1.2c-2,0-3.6-0.4-4.7-1.2c-1.1-0.8-1.7-2-1.8-3.6h4.4
		c0.1,0.5,0.3,0.9,0.6,1.2c0.3,0.3,0.8,0.4,1.4,0.4c1.1,0,1.7-0.4,1.7-1.2c0-0.3-0.2-0.6-0.6-0.8s-1.1-0.3-2-0.5
		c-1.9-0.2-3.3-0.7-4.1-1.4c-0.8-0.7-1.2-1.7-1.2-3.1c0-1.5,0.6-2.6,1.7-3.4c1.1-0.8,2.6-1.2,4.3-1.2c3.8,0,5.9,1.5,6.2,4.5h-4.3
		c-0.2-0.9-0.8-1.4-1.8-1.4c-0.5,0-0.9,0.1-1.2,0.3c-0.3,0.2-0.4,0.5-0.4,0.8c0,0.3,0.2,0.6,0.5,0.7s1,0.3,1.8,0.4
		c2,0.2,3.5,0.7,4.4,1.4s1.4,1.7,1.4,3.2C128,40.4,127.4,41.6,126.3,42.4z"/>
	<path class="st1" d="M128.6,47.9V29.2h4.8v2.1c1-1.6,2.4-2.5,4.4-2.5c1.7,0,3.1,0.6,4.2,1.9c1.1,1.3,1.7,3.1,1.7,5.4v0.2
		c0,2.3-0.6,4.1-1.7,5.4s-2.5,1.9-4.3,1.9c-1,0-1.9-0.2-2.7-0.7s-1.3-1-1.7-1.7v6.8H128.6z M134,39c0.5,0.6,1.2,0.9,2.1,0.9
		s1.6-0.3,2.1-0.9c0.5-0.6,0.7-1.5,0.7-2.7v-0.2c0-1.2-0.2-2.1-0.7-2.7c-0.5-0.6-1.2-0.9-2-0.9s-1.6,0.3-2.1,0.9
		c-0.5,0.6-0.7,1.5-0.7,2.7v0.2C133.3,37.5,133.5,38.4,134,39z"/>
	<path class="st1" d="M157,41.6c-1.4,1.3-3.3,2-5.5,2c-2.2,0-4-0.6-5.5-1.9c-1.4-1.3-2.2-3-2.2-5.2v-0.2c0-2.2,0.7-4,2.2-5.3
		c1.5-1.3,3.3-2,5.5-2c2.2,0,4,0.7,5.5,2c1.4,1.3,2.2,3.1,2.2,5.2v0.2C159.1,38.5,158.4,40.3,157,41.6z M151.5,40
		c0.9,0,1.6-0.3,2.1-1c0.5-0.6,0.7-1.5,0.7-2.7v-0.2c0-2.4-0.9-3.7-2.8-3.7c-0.9,0-1.6,0.3-2.1,0.9c-0.5,0.6-0.7,1.5-0.7,2.7v0.2
		C148.7,38.8,149.6,40,151.5,40z"/>
	<path class="st1" d="M159.9,43.3v-14h4.8V32c0.9-2,2.4-3,4.5-3v4.5c-3-0.1-4.5,0.9-4.5,3.1v6.6H159.9z"/>
	<path class="st1" d="M176.8,43.6c-2.3,0-4.1-0.6-5.5-1.9c-1.4-1.3-2.1-3-2.1-5.3v-0.2c0-2.2,0.7-4,2.2-5.3c1.4-1.3,3.3-2,5.4-2
		c2.1,0,3.8,0.6,5.1,1.8c1.3,1.2,2,3,2,5.4v1.3H174c0.1,0.9,0.4,1.6,0.9,2.2c0.5,0.5,1.2,0.8,2.1,0.8c1.4,0,2.2-0.6,2.4-1.7h4.5
		c-0.2,1.6-0.9,2.8-2.1,3.7C180.6,43.1,178.9,43.6,176.8,43.6z M174.1,34.6h5.1c-0.1-1.8-0.9-2.6-2.5-2.6c-0.7,0-1.3,0.2-1.8,0.7
		C174.5,33.2,174.2,33.8,174.1,34.6z"/>
	<path class="st1" d="M184.6,43.3v-14h4.8v2.3c0.4-0.8,1-1.4,1.8-1.9c0.8-0.5,1.7-0.7,2.8-0.7c1.4,0,2.5,0.4,3.4,1.3
		s1.2,2.2,1.2,3.9v9.1h-4.8v-8.2c0-1.6-0.7-2.4-2-2.4c-0.7,0-1.3,0.2-1.7,0.7c-0.4,0.4-0.6,1.1-0.6,2v7.9H184.6z"/>
</g>
<g>
	<path class="st0" d="M6.8,66.6c-3.3,0-4.9-1.6-4.9-4.8v-6.2H0.2v-3.3h1.7v-2.9h4.8v2.9h2.8v3.3H6.6v5.8c0,1,0.5,1.5,1.4,1.5
		c0.5,0,0.9-0.1,1.4-0.2v3.6C8.4,66.4,7.5,66.6,6.8,66.6z"/>
	<path class="st0" d="M14.9,66.6c-1.4,0-2.6-0.4-3.4-1.3c-0.9-0.9-1.3-2.2-1.3-3.9v-9.1H15v8.4c0,1.6,0.7,2.4,2,2.4
		c0.8,0,1.3-0.2,1.8-0.7c0.4-0.4,0.6-1.1,0.6-2v-8.1h4.8v14h-4.8v-2.2C18.5,65.7,17,66.6,14.9,66.6z"/>
	<path class="st0" d="M35.9,65.4c-1.1,0.8-2.7,1.2-4.7,1.2c-2,0-3.6-0.4-4.7-1.2c-1.1-0.8-1.7-2-1.8-3.6h4.4
		c0.1,0.5,0.3,0.9,0.6,1.2c0.3,0.3,0.8,0.4,1.4,0.4c1.1,0,1.7-0.4,1.7-1.2c0-0.3-0.2-0.6-0.6-0.8c-0.4-0.2-1.1-0.3-2-0.5
		c-1.9-0.2-3.3-0.7-4.1-1.4c-0.8-0.7-1.2-1.7-1.2-3.1c0-1.5,0.6-2.6,1.7-3.4c1.1-0.8,2.6-1.2,4.3-1.2c3.8,0,5.9,1.5,6.2,4.5h-4.3
		C32.6,55.5,32,55,31,55c-0.5,0-0.9,0.1-1.2,0.3c-0.3,0.2-0.4,0.5-0.4,0.8c0,0.3,0.2,0.6,0.5,0.7s1,0.3,1.8,0.4
		c2,0.2,3.5,0.7,4.4,1.4s1.4,1.7,1.4,3.2C37.6,63.4,37,64.6,35.9,65.4z"/>
	<path class="st0" d="M48.5,65.4c-1.1,0.8-2.7,1.2-4.7,1.2c-2,0-3.6-0.4-4.7-1.2c-1.1-0.8-1.7-2-1.8-3.6h4.4
		c0.1,0.5,0.3,0.9,0.6,1.2c0.3,0.3,0.8,0.4,1.4,0.4c1.1,0,1.7-0.4,1.7-1.2c0-0.3-0.2-0.6-0.6-0.8c-0.4-0.2-1.1-0.3-2-0.5
		c-1.9-0.2-3.3-0.7-4.1-1.4c-0.8-0.7-1.2-1.7-1.2-3.1c0-1.5,0.6-2.6,1.7-3.4c1.1-0.8,2.6-1.2,4.3-1.2c3.8,0,5.9,1.5,6.2,4.5h-4.3
		c-0.2-0.9-0.8-1.4-1.8-1.4c-0.5,0-0.9,0.1-1.2,0.3c-0.3,0.2-0.4,0.5-0.4,0.8c0,0.3,0.2,0.6,0.5,0.7s1,0.3,1.8,0.4
		c2,0.2,3.5,0.7,4.4,1.4s1.4,1.7,1.4,3.2C50.2,63.4,49.6,64.6,48.5,65.4z"/>
	<path class="st0" d="M57.8,66.6c-2.3,0-4.1-0.6-5.5-1.9c-1.4-1.3-2.1-3-2.1-5.3v-0.2c0-2.2,0.7-4,2.2-5.3s3.3-2,5.4-2
		c2.1,0,3.8,0.6,5.1,1.8c1.3,1.2,2,3,2,5.4v1.3H55c0.1,0.9,0.4,1.6,0.9,2.2c0.5,0.5,1.2,0.8,2.1,0.8c1.4,0,2.2-0.6,2.4-1.7h4.5
		c-0.2,1.6-0.9,2.8-2.1,3.7C61.6,66.1,59.9,66.6,57.8,66.6z M55.1,57.6h5.1c-0.1-1.8-0.9-2.6-2.5-2.6c-0.7,0-1.3,0.2-1.8,0.7
		C55.5,56.2,55.2,56.8,55.1,57.6z"/>
	<path class="st0" d="M65.7,66.3v-14h4.8v2.3c0.4-0.8,1-1.4,1.8-1.9c0.8-0.5,1.7-0.7,2.8-0.7c1.4,0,2.5,0.4,3.4,1.3
		c0.8,0.9,1.2,2.2,1.2,3.9v9.1h-4.8v-8.2c0-1.6-0.7-2.4-2-2.4c-0.7,0-1.3,0.2-1.7,0.7c-0.4,0.4-0.6,1.1-0.6,2v7.9H65.7z"/>
	<path class="st0" d="M90.2,66.6c-1.7,0-3.1-0.6-4.2-1.8c-1.1-1.2-1.7-3-1.7-5.3v-0.2c0-2.3,0.6-4.1,1.7-5.4
		c1.1-1.3,2.5-1.9,4.3-1.9c2,0,3.4,0.8,4.3,2.4v-8.2h4.8v20.2h-4.8V64c-0.4,0.8-0.9,1.4-1.7,1.9S91.3,66.6,90.2,66.6z M91.9,62.9
		c0.9,0,1.6-0.3,2.1-0.9c0.5-0.6,0.7-1.5,0.7-2.7v-0.2c0-1.2-0.2-2.1-0.7-2.7c-0.5-0.6-1.2-0.9-2.1-0.9c-1.8,0-2.8,1.2-2.8,3.6v0.2
		c0,1.2,0.2,2,0.7,2.7C90.4,62.6,91.1,62.9,91.9,62.9z"/>
	<path class="st0" d="M107.8,66.6c-2.3,0-4.1-0.6-5.5-1.9c-1.4-1.3-2.1-3-2.1-5.3v-0.2c0-2.2,0.7-4,2.2-5.3s3.3-2,5.4-2
		c2.1,0,3.8,0.6,5.1,1.8c1.3,1.2,2,3,2,5.4v1.3H105c0.1,0.9,0.4,1.6,0.9,2.2c0.5,0.5,1.2,0.8,2.1,0.8c1.4,0,2.2-0.6,2.4-1.7h4.5
		c-0.2,1.6-0.9,2.8-2.1,3.7C111.5,66.1,109.9,66.6,107.8,66.6z M105.1,57.6h5.1c-0.1-1.8-0.9-2.6-2.5-2.6c-0.7,0-1.3,0.2-1.8,0.7
		S105.2,56.8,105.1,57.6z"/>
</g>
<g>
	<path class="st1" d="M123.3,66.3l-5.1-14h5.1l2.9,9l2.9-9h4.6l-5.1,14H123.3z"/>
	<path class="st1" d="M134.1,66.3V46.1h4.8v20.2H134.1z"/>
	<path class="st1" d="M144.5,66.6c-1.4,0-2.5-0.3-3.4-1s-1.3-1.8-1.3-3.2c0-3.1,2.5-4.6,7.5-4.6h1.3v-0.3c0-0.7-0.1-1.3-0.4-1.7
		c-0.3-0.4-0.7-0.6-1.5-0.6c-1.1,0-1.8,0.6-1.9,1.7h-4.5c0.1-1.6,0.8-2.9,2-3.8c1.2-0.9,2.8-1.3,4.7-1.3c2,0,3.6,0.4,4.7,1.3
		s1.7,2.2,1.7,4v9.1h-4.7v-1.6C147.8,65.9,146.4,66.6,144.5,66.6z M146.1,63.3c0.7,0,1.3-0.2,1.7-0.5c0.4-0.4,0.7-0.8,0.7-1.4v-0.9
		h-1.3c-1,0-1.7,0.1-2.1,0.3c-0.4,0.2-0.7,0.6-0.7,1.2C144.5,62.9,145,63.3,146.1,63.3z"/>
	<path class="st1" d="M154.7,66.3v-14h4.8v2.1c0.4-0.7,1-1.3,1.7-1.8c0.8-0.5,1.6-0.7,2.7-0.7c1.9,0,3.1,0.8,3.8,2.3
		c1.1-1.6,2.7-2.3,4.6-2.3c1.4,0,2.5,0.4,3.3,1.3c0.8,0.9,1.3,2.2,1.3,3.9v9.2h-4.8v-8.4c0-0.7-0.2-1.2-0.5-1.6
		c-0.3-0.4-0.8-0.5-1.3-0.5c-0.7,0-1.2,0.2-1.6,0.6c-0.4,0.4-0.6,1-0.6,1.7v8.1h-4.7v-8.4c0-0.7-0.2-1.2-0.5-1.6
		c-0.3-0.4-0.8-0.5-1.3-0.5c-0.7,0-1.2,0.2-1.6,0.6s-0.6,1-0.6,1.7v8.1H154.7z"/>
	<path class="st1" d="M178.3,66.3v-14h4.8v2.1c0.4-0.7,1-1.3,1.7-1.8c0.8-0.5,1.6-0.7,2.7-0.7c1.9,0,3.1,0.8,3.8,2.3
		c1.1-1.6,2.7-2.3,4.6-2.3c1.4,0,2.5,0.4,3.3,1.3c0.8,0.9,1.3,2.2,1.3,3.9v9.2h-4.8v-8.4c0-0.7-0.2-1.2-0.5-1.6
		c-0.3-0.4-0.8-0.5-1.3-0.5c-0.7,0-1.2,0.2-1.6,0.6c-0.4,0.4-0.6,1-0.6,1.7v8.1h-4.7v-8.4c0-0.7-0.2-1.2-0.5-1.6
		c-0.3-0.4-0.8-0.5-1.3-0.5c-0.7,0-1.2,0.2-1.6,0.6s-0.6,1-0.6,1.7v8.1H178.3z"/>
	<path class="st1" d="M208.9,66.6c-2.3,0-4.1-0.6-5.5-1.9c-1.4-1.3-2.1-3-2.1-5.3v-0.2c0-2.2,0.7-4,2.2-5.3c1.4-1.3,3.3-2,5.4-2
		c2.1,0,3.8,0.6,5.1,1.8c1.3,1.2,2,3,2,5.4v1.3h-9.9c0.1,0.9,0.4,1.6,0.9,2.2c0.5,0.5,1.2,0.8,2.1,0.8c1.4,0,2.2-0.6,2.4-1.7h4.5
		c-0.2,1.6-0.9,2.8-2.1,3.7C212.6,66.1,211,66.6,208.9,66.6z M206.1,57.6h5.1c-0.1-1.8-0.9-2.6-2.5-2.6c-0.7,0-1.3,0.2-1.8,0.7
		S206.3,56.8,206.1,57.6z"/>
	<path class="st1" d="M216.7,66.3v-14h4.8v2.3c0.4-0.8,1-1.4,1.8-1.9c0.8-0.5,1.7-0.7,2.8-0.7c1.4,0,2.5,0.4,3.4,1.3
		c0.8,0.9,1.2,2.2,1.2,3.9v9.1h-4.8v-8.2c0-1.6-0.7-2.4-2-2.4c-0.7,0-1.3,0.2-1.7,0.7c-0.4,0.4-0.6,1.1-0.6,2v7.9H216.7z"/>
</g>
</svg>
