<svg xmlns="http://www.w3.org/2000/svg" width="285.9" height="71.5" fill="#fff"><path d="M4.6 22.3h10.1v3H0V23L10 8.7v-.2H.6v-3h14.1v2.2L4.6 22v.3zm31.1-.5L37 24c-.2.4-.6.7-1.1 1.1s-1.1.5-1.8.5c-1 0-1.8-.3-2.5-.8-.6-.5-1-1.2-1.1-2.2-1.7 2-3.9 3-6.7 3-1.9 0-3.5-.5-4.7-1.4s-1.9-2.3-1.9-4.1c0-2 .8-3.5 2.4-4.6s3.8-1.7 6.6-1.9l3.7-.3v-.5c0-1.5-.4-2.7-1.1-3.6s-1.7-1.3-3.1-1.3c-1.3 0-2.3.4-3 1.1s-1.1 1.7-1.3 2.7h-3.3A6.46 6.46 0 0 1 20.4 7c1.4-1.2 3.1-1.9 5.3-1.9 2.3 0 4.1.7 5.5 2.1s2.1 3.3 2.1 5.7v7.6c0 1.4.4 2.1 1.3 2.1.3.1.7-.2 1.1-.8zm-11.5.9c1.5 0 2.8-.5 4-1.4 1.1-.9 1.7-2.3 1.7-4.1v-1.4l-3.3.2c-1.9.2-3.3.6-4.4 1.2-1 .7-1.5 1.5-1.5 2.6 0 .9.3 1.7 1 2.1.7.6 1.5.8 2.5.8zm27 2.5V6.9h-5V4h2.3c2 0 3-.9 3-2.8V0h3.2v25.2h-3.5zm26.2-8.6v3H73v5.6h-3.4v-5.6H58v-2.3L68.6 0H73v16.6h4.4zm-15.4 0h7.6V4.2h-.4L62 16.6zM15.3 33.5h3.5v28h-2.6l-.6-2.8h-.4C13.8 60.9 11.7 62 9 62c-2.6 0-4.8-1-6.5-2.9C.9 57.2 0 54.7 0 51.7s.9-5.5 2.6-7.4 3.9-2.9 6.5-2.9c3 0 5 1.1 6.2 3.3V33.5zM5.2 56.8a5.5 5.5 0 0 0 4.3 2c1.8 0 3.2-.7 4.3-2s1.6-3 1.6-5.1-.5-3.8-1.6-5.1-2.5-1.9-4.3-1.9-3.2.7-4.4 2c-1.1 1.3-1.7 3-1.7 5.1.1 2 .6 3.7 1.8 5zm26.3-15.3c2.8 0 5 .9 6.7 2.8s2.4 4.6 2.2 8.2H25.5c.1 2 .7 3.6 1.8 4.7s2.6 1.8 4.5 1.8c1.2 0 2.2-.3 3.2-.8.9-.5 1.6-1.3 2.1-2.3h3.3c-.5 2-1.5 3.5-3.1 4.5-1.6 1.1-3.4 1.6-5.5 1.6-3 0-5.3-.9-7.1-2.8-1.7-1.9-2.6-4.4-2.6-7.5 0-2.9.9-5.4 2.7-7.3 1.7-2 4-2.9 6.7-2.9zm-5.9 8.3h11.5c-.1-1.5-.6-2.8-1.6-3.9s-2.3-1.6-4-1.6c-1.6 0-2.9.5-4 1.5s-1.6 2.3-1.9 4zm35.9 5c-.3 2.1-1.3 3.8-2.9 5.2-1.7 1.3-3.7 2-6 2-3.1 0-5.5-1-7.2-2.9s-2.6-4.4-2.6-7.3.9-5.3 2.8-7.3 4.2-3 7-3c2.4 0 4.5.7 6.1 2.1 1.7 1.4 2.6 3.2 2.8 5.4H58c-.2-1.3-.8-2.3-1.8-3.2-1-.8-2.2-1.3-3.8-1.3-1.8 0-3.3.7-4.5 2-1.1 1.4-1.7 3.1-1.7 5.1 0 2.1.5 3.9 1.6 5.2s2.6 2 4.7 2c1.4 0 2.6-.4 3.6-1.1s1.6-1.8 1.9-3h3.5zm154.1-49c2.1 0 3.7.7 4.9 2 1.2 1.4 1.8 3.4 1.8 6v12h-3.6V14c0-1.7-.4-2.9-1.1-3.8-.8-.9-1.8-1.3-3-1.3s-2.2.5-3.1 1.4-1.3 2.2-1.3 3.8v11.7h-3.6V14.3c0-1.7-.4-3-1.2-3.9S203.6 9 202.5 9c-1.2 0-2.2.4-3.1 1.3s-1.3 2.1-1.3 3.8v11.8h-3.6V6.1h2.7l.6 2.5h.3a5.37 5.37 0 0 1 2.2-2c.9-.6 2-.8 3.3-.8 1.4 0 2.6.4 3.6 1.1s1.7 1.6 2 2.6h.3c.5-1 1.3-1.9 2.3-2.6 1-.8 2.3-1.1 3.8-1.1zm28.5 16.6l1.3 2.2c-.2.4-.6.7-1.1 1.1s-1.1.5-1.8.5c-1 0-1.8-.3-2.5-.8-.6-.5-1-1.2-1.1-2.2-1.7 2-3.9 3-6.7 3-1.9 0-3.5-.5-4.7-1.4s-1.9-2.3-1.9-4.1c0-2 .8-3.5 2.4-4.6s3.8-1.7 6.6-1.9l3.7-.3v-.5c0-1.5-.4-2.7-1.1-3.6s-1.7-1.3-3.1-1.3c-1.3 0-2.3.4-3 1.1s-1.1 1.7-1.3 2.7h-3.3c.2-1.9.9-3.5 2.3-4.7s3.1-1.9 5.3-1.9c2.3 0 4.1.7 5.5 2.1s2.1 3.3 2.1 5.7v7.6c0 1.4.4 2.1 1.3 2.1.3.1.7-.2 1.1-.8zm-11.5.9c1.5 0 2.8-.5 4-1.4 1.1-.9 1.7-2.3 1.7-4.1v-1.4l-3.3.2c-1.9.2-3.3.6-4.4 1.2-1 .7-1.5 1.5-1.5 2.6 0 .9.3 1.7 1 2.1s1.5.8 2.5.8zm27.5 2.5V7.5h-5V4.6h2.3c2 0 3-.9 3-2.8V.6h3.2v25.2h-3.5zm20.6-13.3c1.3.4 2.4 1.2 3.2 2.3s1.2 2.4 1.2 3.9c0 2.2-.8 4-2.3 5.4s-3.6 2.1-6.2 2.1c-2.7 0-4.7-.7-6.2-2.1s-2.3-3.3-2.4-5.7h3.4c.1 1.3.6 2.4 1.5 3.2.9.9 2.1 1.3 3.6 1.3 1.4 0 2.6-.4 3.5-1.2s1.4-1.9 1.4-3.3c0-1.3-.4-2.4-1.3-3.2s-2.1-1.3-3.7-1.3H275v-3h1.3c1.3 0 2.4-.4 3.1-1.1.8-.7 1.2-1.7 1.2-2.8a3.69 3.69 0 0 0-1.1-2.7c-.7-.7-1.7-1.1-3-1.1-1.2 0-2.2.3-3 1s-1.2 1.6-1.3 2.8h-3.5c0-2 .8-3.7 2.3-5s3.4-2 5.6-2c2.1 0 3.8.6 5.2 1.9s2.1 2.8 2.1 4.6c0 2.5-1.1 4.4-3.3 5.6v.4zm-32 44.8c0 .7.1 1.2.4 1.5s.7.4 1.4.4v2.9h-.6c-2.1 0-3.3-.9-3.8-2.7-.8.9-1.7 1.7-2.9 2.2-1.2.6-2.5.8-3.8.8-1.9 0-3.5-.5-4.7-1.4s-1.9-2.3-1.9-4.1c0-2 .8-3.5 2.4-4.6s3.8-1.7 6.6-1.9l3.7-.3v-.5c0-1.5-.4-2.7-1.1-3.6s-1.7-1.3-3.1-1.3c-1.3 0-2.3.4-3 1.1s-1.1 1.7-1.3 2.7h-3.3c.2-1.9.9-3.5 2.3-4.7s3.1-1.9 5.3-1.9c2.3 0 4.1.7 5.5 2.1s2.1 3.3 2.1 5.7v7.6zm-9 2.4c1.5 0 2.8-.5 4-1.4 1.1-.9 1.7-2.3 1.7-4.1v-1.4l-3.3.2c-1.9.2-3.3.6-4.4 1.2-1 .7-1.5 1.5-1.5 2.6 0 .9.3 1.7 1 2.1s1.5.8 2.5.8zM263 42.1c2.6 0 4.8 1 6.5 2.9s2.6 4.4 2.6 7.4-.9 5.5-2.6 7.4-3.9 2.9-6.5 2.9c-3 0-5-1.1-6.2-3.3V70h-3.5V42.5h2.6l.6 2.8h.4c1.3-2.2 3.4-3.2 6.1-3.2zm-.5 17.3c1.8 0 3.2-.7 4.4-2 1.1-1.3 1.7-3 1.7-5.1s-.6-3.8-1.7-5.1a5.5 5.5 0 0 0-4.3-2 5.5 5.5 0 0 0-4.3 2c-1.1 1.3-1.6 3-1.6 5.1s.5 3.8 1.6 5.1c1 1.4 2.5 2 4.2 2zm22.2-17.3h1.3v3.5c-.4-.1-.9-.2-1.6-.2a5.28 5.28 0 0 0-3.9 1.6c-1.1 1.1-1.6 2.7-1.6 4.9v10.2h-3.6V42.5h2.7l.6 2.8h.3c1.4-2.2 3.4-3.2 5.8-3.2zM88.4 12.8H183v1.8H88.4z"/></svg>