<?xml version="1.0" encoding="utf-8"?>
<!-- Generator: Adobe Illustrator 24.0.0, SVG Export Plug-In . SVG Version: 6.00 Build 0)  -->
<svg version="1.1" id="Laag_1" xmlns="http://www.w3.org/2000/svg" xmlns:xlink="http://www.w3.org/1999/xlink" x="0px" y="0px"
	 width="107.3px" height="87.6px" viewBox="0 0 107.3 87.6" style="enable-background:new 0 0 107.3 87.6;" xml:space="preserve">
<style type="text/css">
	.st0{fill:none;}
	.st1{fill:#FFFFFF;}
	.st2{fill:#DEDDE8;}
</style>
<g>
	<path class="st0" d="M39.2,44.9c-0.8,0.2-1.5,0.5-2,1.1s-0.9,1.3-1,2.1l6.6-1.4C42.1,45.1,40.9,44.5,39.2,44.9z"/>
	<path class="st0" d="M34,69.8c-0.8,0-1.5,0.3-2.1,0.8s-1,1.1-1.3,1.9l6.8-0.4C36.8,70.5,35.7,69.7,34,69.8z"/>
	<path class="st0" d="M17.2,39.6c0.2,0.1,0.3,0.1,0.5,0.2c0,0,0.1,0,0.1,0.1l0,0c0-0.2,0-0.5,0-0.8C17.5,39.2,17.3,39.4,17.2,39.6z"
		/>
	<path class="st0" d="M23.7,47.6c0.8,0,1.5-0.4,2-1s0.7-1.4,0.7-2.2c0-0.9-0.3-1.5-0.9-2c-0.5-0.5-1.3-0.7-2.1-0.6L20.1,42l0.3,5.8
		L23.7,47.6z"/>
	<path class="st0" d="M75.9,42.8c-0.8-0.1-1.6,0-2.3,0.3c-0.7,0.3-1.3,0.9-1.7,1.6l6.7,1.1C78.5,44,77.6,43,75.9,42.8z"/>
	<path class="st0" d="M18.2,41.4c0.6,0,1.2-0.5,1.2-1.2c0-0.2,0-0.4-0.1-0.6c0,0.2-0.1,0.4-0.1,0.6c-0.1,0.4-0.7,0.4-0.8,0
		c-0.1,0-0.3,0-0.4-0.1c0,0.3-0.2,0.5-0.5,0.4c-0.1,0-0.2-0.1-0.3-0.1C17.2,41,17.7,41.4,18.2,41.4z"/>
	<path class="st0" d="M60.1,43.8c-0.8-0.7-1.6-1-2.6-0.9s-1.8,0.5-2.4,1.2c-0.6,0.7-0.8,1.7-0.8,3c0.1,1.2,0.4,2.2,1.1,2.9
		c0.6,0.7,1.5,1,2.5,0.9s1.8-0.4,2.5-1.2c0.7-0.7,1-1.7,0.9-3C61.3,45.5,60.9,44.5,60.1,43.8z"/>
	<path class="st0" d="M49.5,67.6c-0.8,0.3-1.4,0.7-1.9,1.3c-0.5,0.6-0.7,1.3-0.7,2.2l6.4-2.2C52.4,67.5,51.1,67.1,49.5,67.6z"/>
	<path class="st0" d="M86,37.4L86,37.4c0.1-0.1,0.1-0.2,0.1-0.3c-0.1,0.1-0.3,0.2-0.4,0.3C85.8,37.3,85.9,37.4,86,37.4z"/>
	<path class="st0" d="M86.6,37.8c-0.1,0-0.2,0-0.3,0c0,0.2-0.2,0.4-0.5,0.4c-0.1,0-0.2,0-0.4-0.1l0,0c0,0.6,0.6,1.2,1.2,1.1
		c0.6,0,1.2-0.6,1.1-1.2c0-0.3-0.1-0.5-0.3-0.7c0,0.1,0,0.3-0.1,0.4C87.3,38.2,86.8,38.1,86.6,37.8z"/>
	<path class="st0" d="M98.1,66.5c-0.8-0.1-1.6,0.1-2.2,0.5c-0.7,0.4-1.2,1-1.6,1.7l6.8,0.6C100.8,67.5,99.8,66.6,98.1,66.5z"/>
	<path class="st1" d="M88.1,35.5l-0.5,0.1c0.1,0.1,0.2,0.2,0.1,0.4c-0.1,0.4-0.1,0.9-0.2,1.3c0.2,0.2,0.3,0.4,0.3,0.7
		c0,0.6-0.5,1.2-1.1,1.2s-1.2-0.5-1.2-1.1l0,0c-0.2,0-0.5-0.1-0.7-0.1l5,19.2l3.8-1L88.1,35.5z"/>
	<path class="st1" d="M86.1,37.1c0-0.3,0-0.7,0-1l-1.8,0.5l0.2,0.6c0.4,0.1,0.8,0.2,1.3,0.2C85.8,37.2,85.9,37.1,86.1,37.1z"/>
	<path class="st1" d="M47.4,50.7l-3.7,0.8l-0.2,0.3c-0.1,0.3-0.4,0.5-0.9,0.8c-0.4,0.3-1,0.5-1.5,0.6c-0.9,0.2-1.8,0.1-2.6-0.2
		s-1.5-1-1.9-2l10.8-2.2c-0.2-1.5-0.6-2.7-1.2-3.8c-0.6-1.1-1.3-1.9-2.2-2.4c-0.8-0.5-1.7-0.9-2.7-1c-0.9-0.2-1.9-0.1-2.9,0.1
		c-2,0.4-3.6,1.5-4.8,3.1c-1.2,1.7-1.5,3.6-1,5.8s1.6,3.9,3.3,5c1.8,1.1,3.7,1.5,5.7,1c1.5-0.3,2.7-1,3.8-2
		C46.5,53.6,47.2,52.3,47.4,50.7z M37.2,46c0.5-0.6,1.2-0.9,2-1.1c1.7-0.3,2.9,0.3,3.6,1.8L36.2,48C36.3,47.2,36.7,46.5,37.2,46z"/>
	<path class="st1" d="M63.5,52.1c1.3-1.5,1.9-3.4,1.8-5.6c-0.1-2.2-0.9-4-2.3-5.4c-1.4-1.4-3.1-2-5.1-1.9c-1.6,0.1-2.8,0.7-3.7,1.8
		h-0.5l-0.5-1.4l-2.9,0.2l1.1,21.1l3.8-0.2l-0.4-7.5c1,1,2.3,1.5,4,1.4C60.6,54.4,62.2,53.6,63.5,52.1z M60.4,49.7
		c-0.7,0.7-1.5,1.1-2.5,1.2c-1,0.1-1.8-0.3-2.5-0.9c-0.6-0.7-1-1.6-1.1-2.9c-0.1-1.2,0.2-2.2,0.8-3c0.6-0.7,1.3-1.1,2.4-1.2
		c1-0.1,1.9,0.3,2.6,0.9c0.8,0.7,1.2,1.6,1.2,2.9C61.4,47.9,61.1,48.9,60.4,49.7z"/>
	<path class="st1" d="M74,54.7c1.5,0.2,2.9,0.1,4.3-0.6c1.4-0.6,2.4-1.6,3.2-3l-3.7-0.6l-0.3,0.3c-0.2,0.2-0.6,0.3-1.1,0.5
		c-0.5,0.1-1.1,0.1-1.7,0c-0.9-0.1-1.7-0.5-2.4-1.2c-0.7-0.6-1-1.5-1-2.6l10.9,1.8c0.4-1.4,0.4-2.7,0.3-4c-0.2-1.2-0.6-2.2-1.2-3
		s-1.3-1.4-2.1-1.9c-0.8-0.5-1.7-0.8-2.7-1c-2-0.3-3.9,0.1-5.6,1.2c-1.7,1.1-2.7,2.8-3.1,5.1c-0.5,2.3,0,4.3,1.2,6
		C70.2,53.3,71.9,54.4,74,54.7z M73.6,43.1c0.7-0.3,1.4-0.4,2.3-0.3c1.7,0.3,2.6,1.3,2.7,3L72,44.7C72.4,43.9,73,43.4,73.6,43.1z"/>
	<path class="st1" d="M12.5,76.5c-0.3-0.5-0.8-1-1.4-1.3c-0.6-0.3-1.2-0.5-1.7-0.7c-0.5-0.1-1.2-0.3-2-0.4C5.9,74,5.1,73.5,5,72.8
		c0-0.3,0.1-0.6,0.4-0.9s0.7-0.4,1.3-0.4c1.3-0.1,2,0.3,2.3,1.2l3.7-0.2c-0.2-1.3-0.8-2.4-1.9-3.2c-1.1-0.8-2.5-1.2-4.1-1.1
		s-2.9,0.5-4,1.4c-1.1,0.8-1.6,2-1.5,3.4c0,0.5,0.1,1,0.3,1.5c0.2,0.4,0.5,0.8,0.9,1.1c0.4,0.3,0.7,0.5,1,0.7s0.7,0.3,1.3,0.5
		c0.6,0.1,1,0.2,1.2,0.3c0.2,0,0.6,0.1,1.1,0.2c0.7,0.1,1.2,0.3,1.6,0.5s0.6,0.6,0.6,1.1c0,1-0.6,1.5-1.8,1.5
		c-0.8,0-1.4-0.1-1.9-0.5S4.8,79,4.7,78.4L1,78.6c0.2,1.6,0.9,2.8,2.1,3.7c1.2,0.9,2.7,1.3,4.5,1.2c1.6-0.1,3-0.6,4-1.5
		s1.5-2.1,1.4-3.6C13,77.7,12.8,77.1,12.5,76.5z"/>
	<path class="st1" d="M24.5,78.9c-0.2,0.1-0.4,0.2-0.7,0.3c-0.3,0.1-0.6,0.2-0.8,0.2c-0.5,0-1-0.1-1.4-0.5c-0.4-0.3-0.6-0.7-0.6-1.2
		L20.6,71l3.8-0.2l-0.2-3.2l-3.8,0.2l-0.2-4.5l-3.6,0.2l0.2,3c0,0.5-0.1,1-0.4,1.3s-0.7,0.5-1.2,0.5l-1.5,0.1l0.2,2.9l3-0.2l0.4,7
		c0.1,1.5,0.7,2.7,1.8,3.5c1.1,0.9,2.4,1.3,3.9,1.2c0.7,0,1.3-0.2,1.9-0.4c0.6-0.3,1-0.5,1.2-0.6s0.3-0.3,0.4-0.4l-1.6-2.6
		L24.5,78.9z"/>
	<path class="st1" d="M39.1,68.3c-0.8-0.7-1.6-1.1-2.5-1.4s-1.9-0.4-2.9-0.4c-2.1,0.1-3.8,0.9-5.2,2.4c-1.4,1.5-2,3.3-1.9,5.6
		c0.1,2.3,1,4.1,2.5,5.5c1.6,1.4,3.4,2,5.5,1.9c1.5-0.1,2.9-0.6,4.1-1.4c1.2-0.9,2-2.1,2.5-3.6L37.4,77l-0.3,0.3
		c-0.2,0.2-0.5,0.5-1,0.7s-1,0.4-1.6,0.4c-0.9,0-1.8-0.2-2.6-0.6c-0.8-0.5-1.3-1.2-1.6-2.3l11-0.6c0-1.5-0.1-2.8-0.6-3.9
		C40.4,69.9,39.8,69,39.1,68.3z M30.5,72.5c0.3-0.8,0.7-1.4,1.3-1.9s1.3-0.7,2.1-0.8c1.7-0.1,2.8,0.7,3.3,2.3L30.5,72.5z"/>
	<path class="st1" d="M54.6,74c-0.1,0.3-0.4,0.6-0.8,0.9c-0.4,0.4-0.9,0.6-1.5,0.8c-0.9,0.3-1.8,0.3-2.6,0.1
		c-0.9-0.2-1.6-0.8-2.1-1.8L58,70.5c-0.4-1.4-0.9-2.6-1.6-3.6c-0.7-1-1.5-1.7-2.4-2.1s-1.8-0.7-2.8-0.7s-1.9,0.1-2.9,0.4
		c-2,0.7-3.4,1.9-4.4,3.7c-0.9,1.8-1.1,3.7-0.3,5.9c0.7,2.2,2,3.7,3.9,4.6s3.8,1,5.8,0.4c1.4-0.5,2.6-1.3,3.5-2.5s1.4-2.5,1.5-4.1
		l-3.6,1.2L54.6,74z M46.9,71.1c0-0.8,0.3-1.6,0.7-2.2c0.5-0.6,1.1-1.1,1.9-1.3c1.6-0.5,2.9-0.1,3.8,1.4L46.9,71.1z"/>
	
		<rect x="61" y="59.1" transform="matrix(0.9986 -5.210222e-02 5.210222e-02 0.9986 -3.5511 3.3745)" class="st1" width="3.9" height="21.4"/>
	<path class="st1" d="M86.9,64.2l-3.8,0.2l0.8,16c0,0.5-0.1,0.9-0.5,1.3s-0.8,0.6-1.4,0.6s-1.2-0.1-1.8-0.5L79,84.6l0.4,0.3
		c0.3,0.2,0.7,0.4,1.3,0.5c0.6,0.2,1.3,0.3,1.9,0.2c1.5-0.1,2.7-0.6,3.7-1.6s1.5-2.2,1.4-3.7L86.9,64.2z"/>
	<path class="st1" d="M82.2,60.2c0,0.7,0.3,1.3,0.9,1.7c0.5,0.5,1.2,0.7,1.9,0.7c0.7,0,1.3-0.3,1.7-0.8c0.5-0.5,0.7-1.1,0.7-1.8
		s-0.3-1.3-0.8-1.8s-1.1-0.7-1.8-0.6c-0.7,0-1.3,0.3-1.8,0.8C82.4,58.9,82.2,59.5,82.2,60.2z"/>
	<path class="st1" d="M104.7,68.6c-0.3-1.2-0.7-2.2-1.4-2.9c-0.7-0.8-1.4-1.3-2.3-1.8c-0.9-0.4-1.8-0.7-2.8-0.8
		c-2.1-0.2-3.9,0.4-5.5,1.6c-1.6,1.3-2.5,3-2.7,5.3s0.4,4.2,1.7,5.8c1.4,1.6,3.1,2.5,5.2,2.6c1.5,0.1,2.9-0.2,4.2-0.9
		c1.3-0.7,2.3-1.8,3-3.2l-3.8-0.3l-0.3,0.3c-0.2,0.2-0.6,0.4-1.1,0.6s-1.1,0.2-1.7,0.2c-0.9-0.1-1.7-0.4-2.4-1
		c-0.7-0.6-1.1-1.4-1.2-2.5l11,1C105,71.2,105,69.8,104.7,68.6z M94.3,68.6c0.4-0.8,0.9-1.3,1.6-1.7c0.7-0.4,1.4-0.5,2.2-0.5
		c1.7,0.1,2.7,1.1,3,2.8L94.3,68.6z"/>
	<path class="st1" d="M17.8,39.1c0-0.3,0-0.6,0-0.9l-1.7,0.1l0.1,1c0.4,0.1,0.7,0.2,1.1,0.3C17.3,39.4,17.5,39.2,17.8,39.1z"/>
	<path class="st1" d="M19.4,40.2c0,0.6-0.5,1.2-1.2,1.2c-0.5,0-1-0.4-1.1-0.9c-0.3-0.1-0.6-0.2-0.9-0.3l1,19.2l3.8-0.2l-0.4-7.7
		l2.5-0.1l4.9,7.5l4.5-0.2L27,50.5c1.1-0.6,2-1.5,2.6-2.6s0.9-2.4,0.9-3.8c-0.1-2-0.8-3.5-2.1-4.6c-1.3-1.1-2.9-1.6-4.7-1.5l-4,0.2
		c0,0.5-0.1,1-0.2,1.5C19.4,39.8,19.4,40,19.4,40.2z M23.4,41.7c0.9,0,1.6,0.2,2.1,0.6c0.5,0.5,0.8,1.1,0.9,2c0,0.9-0.2,1.6-0.7,2.2
		c-0.5,0.6-1.2,0.9-2,1l-3.3,0.2l-0.3-5.8L23.4,41.7z"/>
	<path class="st2" d="M14.5,39.7c0.6,0.1,1.1,0.3,1.7,0.5c0.3,0.1,0.6,0.2,0.9,0.3c0.1,0,0.2,0.1,0.3,0.1c0.3,0.1,0.5-0.1,0.5-0.4
		c0.1,0.1,0.2,0.1,0.4,0.1c0.1,0.3,0.7,0.4,0.8,0c0.1-0.2,0.1-0.4,0.1-0.6c0.1-0.5,0.2-1,0.2-1.5c0-0.1,0-0.2,0-0.3
		c0-0.5-0.8-0.5-0.8,0c0.1-6.5,0.2-30.5,0.3-36.9c0-0.6-0.8-0.6-0.9,0c-0.1,6.7-0.2,28.7-0.4,37.3c0,0.3,0,0.6,0,0.9
		c0,0.3,0,0.5,0,0.8l0,0l-0.1-0.1c-0.2-0.1-0.3-0.1-0.5-0.2c-0.3-0.1-0.7-0.2-1.1-0.3c-0.5-0.1-1-0.3-1.4-0.4
		C14.2,38.8,13.9,39.6,14.5,39.7z"/>
	<path class="st2" d="M85.8,38.2c0.3,0,0.5-0.2,0.5-0.4c0.1,0,0.2,0.1,0.3,0c0.2,0.3,0.7,0.3,0.8-0.1c0-0.1,0-0.3,0.1-0.4
		c0.1-0.4,0.1-0.9,0.2-1.3c0-0.2,0-0.3-0.1-0.4c-0.2-0.1-0.4-0.2-0.6-0.1c0.1-5.9,0.2-29.3,0-35.2c0-0.6-0.9-0.6-0.9,0
		c0.2,6.1,0.1,27.6,0,35.6c0,0.4,0,0.7,0,1c0,0.1,0,0.2,0,0.3H86c-0.1,0-0.2,0-0.3,0c-0.4-0.1-0.8-0.1-1.3-0.2
		c-0.1,0-0.3-0.1-0.4-0.1c-0.5-0.1-0.8,0.7-0.2,0.8c0.3,0.1,0.6,0.1,0.9,0.2c0.2,0,0.5,0.1,0.7,0.1C85.5,38.2,85.6,38.2,85.8,38.2z"
		/>
	<path class="st1" d="M79.9,78.5l-1.6-2.6L78.1,76c-0.2,0.1-0.4,0.2-0.7,0.3c-0.3,0.1-0.6,0.2-0.8,0.2c-0.5,0-1-0.1-1.4-0.5
		c-0.4-0.3-0.6-0.7-0.6-1.2l-0.4-6.7l3.8-0.2l-0.2-3.2L74,64.9l-0.2-4.5l-3.6,0.2l0.2,3c0,0.5-0.1,1-0.4,1.3
		c-0.3,0.3-0.7,0.5-1.2,0.5l-1.5,0.1l0.2,2.9l3-0.2l0.4,7c0.1,1.5,0.7,2.7,1.8,3.5c1.1,0.9,2.4,1.3,3.9,1.2c0.7,0,1.3-0.2,1.9-0.4
		c0.6-0.3,1-0.5,1.2-0.6C79.7,78.8,79.8,78.6,79.9,78.5z"/>
</g>
<g>
	<path class="st1" d="M101.1,57.7c0.3,0.1,0.5,0.3,0.6,0.6c0.1,0.3,0.2,0.6,0.2,0.9c-0.1,0.4-0.3,0.8-0.6,1
		c-0.4,0.2-0.8,0.3-1.3,0.2c-0.5-0.1-0.9-0.3-1.2-0.6c-0.3-0.3-0.4-0.7-0.3-1.1c0-0.3,0.2-0.6,0.4-0.8c0.2-0.2,0.5-0.3,0.8-0.4l0,0
		c-0.2-0.1-0.3-0.3-0.5-0.5c-0.1-0.2-0.1-0.4-0.1-0.7c0.1-0.4,0.2-0.7,0.6-0.9c0.3-0.2,0.7-0.3,1.1-0.2c0.4,0.1,0.8,0.2,1,0.5
		c0.3,0.3,0.4,0.6,0.3,1c0,0.2-0.1,0.5-0.3,0.6C101.5,57.5,101.3,57.6,101.1,57.7L101.1,57.7z M99.9,59.8c0.3,0,0.5,0,0.8-0.1
		c0.2-0.1,0.4-0.3,0.4-0.6c0-0.3,0-0.5-0.2-0.7c-0.2-0.2-0.4-0.3-0.7-0.4c-0.3,0-0.6,0-0.8,0.2c-0.2,0.2-0.3,0.4-0.4,0.6
		c0,0.3,0,0.5,0.2,0.7C99.4,59.6,99.7,59.7,99.9,59.8z M101.1,56c-0.1-0.2-0.3-0.3-0.6-0.3c-0.2,0-0.5,0-0.6,0.1
		c-0.2,0.1-0.3,0.3-0.3,0.5c0,0.2,0,0.4,0.2,0.6c0.1,0.2,0.3,0.3,0.5,0.3c0.2,0,0.4,0,0.6-0.1c0.2-0.1,0.3-0.3,0.3-0.5
		C101.3,56.4,101.2,56.2,101.1,56z"/>
	<path class="st1" d="M106.4,58.7l-0.1,0.6l-1.4-0.2l-0.2,1.5l-0.6-0.1l0.2-1.5l-1.4-0.2l0.1-0.6l1.4,0.2l0.2-1.5l0.6,0.1l-0.2,1.5
		L106.4,58.7z"/>
</g>
</svg>
