<?xml version="1.0" encoding="utf-8"?>
<!-- Generator: Adobe Illustrator 24.0.0, SVG Export Plug-In . SVG Version: 6.00 Build 0)  -->
<svg version="1.1" id="Laag_1" xmlns="http://www.w3.org/2000/svg" xmlns:xlink="http://www.w3.org/1999/xlink" x="0px" y="0px"
	 width="204px" height="41.1px" viewBox="0 0 204 41.1" style="enable-background:new 0 0 204 41.1;" xml:space="preserve">
<style type="text/css">
	.st0{font-family:'NHaasGroteskDSPro-75Bd';}
	.st1{font-size:25px;}
	.st2{fill:#1D1D1B;}
</style>
<g>
	<path d="M1.2,4.6h8.5c0.9,0,1.7,0.1,2.5,0.3c0.8,0.2,1.4,0.6,2,1s1,1,1.3,1.6S16,9,16,9.8c0,1-0.3,1.9-0.8,2.7
		c-0.5,0.7-1.3,1.3-2.3,1.6v0.1c0.8,0.3,1.4,0.7,1.8,1.2c0.4,0.5,0.7,1.2,0.8,2.1c0.1,0.6,0.2,1.2,0.2,1.7c0,0.6,0.1,1.1,0.1,1.5
		c0,0.4,0.1,0.8,0.2,1.1c0.1,0.3,0.2,0.5,0.3,0.5v0.2H12c-0.1-0.1-0.2-0.2-0.3-0.5c-0.1-0.3-0.1-0.6-0.1-1c0-0.4-0.1-0.8-0.1-1.3
		c0-0.5-0.1-0.9-0.2-1.4c-0.1-0.8-0.4-1.5-0.9-1.9C10,16,9.3,15.8,8.3,15.8H5.6v6.7H1.2V4.6z M9,12.5c0.9,0,1.5-0.2,2-0.6
		c0.4-0.4,0.7-0.9,0.7-1.6c0-0.6-0.2-1.2-0.6-1.6c-0.4-0.4-1.1-0.6-1.9-0.6H5.6v4.4H9z"/>
	<path d="M23.9,22.9c-1,0-2-0.2-2.8-0.5c-0.8-0.3-1.6-0.8-2.2-1.4s-1.1-1.3-1.4-2.2c-0.3-0.8-0.5-1.7-0.5-2.7s0.2-1.9,0.5-2.7
		c0.3-0.8,0.8-1.5,1.4-2.2c0.6-0.6,1.3-1.1,2.2-1.4c0.8-0.3,1.8-0.5,2.8-0.5c1,0,2,0.2,2.8,0.5c0.8,0.3,1.6,0.8,2.1,1.4
		c0.6,0.6,1.1,1.3,1.4,2.2c0.3,0.8,0.5,1.7,0.5,2.7s-0.2,1.9-0.5,2.7c-0.3,0.8-0.8,1.5-1.4,2.2c-0.6,0.6-1.3,1.1-2.1,1.4
		C25.9,22.8,25,22.9,23.9,22.9z M23.9,20c0.9,0,1.6-0.4,2-1.1c0.5-0.7,0.7-1.6,0.7-2.8c0-1.2-0.2-2.1-0.7-2.8
		c-0.5-0.7-1.1-1.1-2-1.1s-1.6,0.4-2,1.1c-0.5,0.7-0.7,1.7-0.7,2.8c0,1.2,0.2,2.1,0.7,2.8C22.3,19.7,23,20,23.9,20z"/>
	<path d="M36.9,22.7c-0.6,0-1.1-0.1-1.6-0.2c-0.5-0.1-0.9-0.3-1.3-0.6c-0.4-0.3-0.6-0.6-0.9-1.1c-0.2-0.5-0.3-1-0.3-1.7v-6.9h-1.7
		V9.7h1.7v-4h4v4h2.3v2.5h-2.3v6c0,0.5,0.1,0.8,0.4,1c0.3,0.2,0.6,0.2,1,0.2c0.2,0,0.4,0,0.5,0c0.2,0,0.3,0,0.4,0v3
		c-0.2,0-0.5,0.1-0.8,0.1C38,22.7,37.5,22.7,36.9,22.7z"/>
	<path d="M40.6,4.6h4.1v6.7h0.1c0.5-0.6,1-1.1,1.6-1.4c0.6-0.3,1.3-0.5,2.2-0.5c0.7,0,1.3,0.1,1.9,0.4c0.6,0.2,1,0.6,1.4,1
		c0.4,0.4,0.7,0.9,0.9,1.5c0.2,0.6,0.3,1.2,0.3,2v8.3H49V15c0-0.7-0.2-1.2-0.5-1.7c-0.3-0.4-0.8-0.6-1.5-0.6c-0.7,0-1.2,0.2-1.6,0.8
		c-0.4,0.5-0.6,1.2-0.6,2v7.1h-4.1V4.6z"/>
	<path d="M54.9,4.6h4V14l3.8-4.3h4.7l-4.5,4.8l5,8h-4.7l-3.1-5.2l-1.2,1.3v3.9h-4V4.6z"/>
	<path d="M74.2,22.9c-1,0-2-0.2-2.8-0.5c-0.8-0.3-1.6-0.8-2.2-1.4s-1.1-1.3-1.4-2.2c-0.3-0.8-0.5-1.7-0.5-2.7s0.2-1.9,0.5-2.7
		c0.3-0.8,0.8-1.5,1.4-2.2c0.6-0.6,1.3-1.1,2.2-1.4c0.8-0.3,1.8-0.5,2.8-0.5c1,0,2,0.2,2.8,0.5c0.8,0.3,1.6,0.8,2.1,1.4
		c0.6,0.6,1.1,1.3,1.4,2.2c0.3,0.8,0.5,1.7,0.5,2.7s-0.2,1.9-0.5,2.7c-0.3,0.8-0.8,1.5-1.4,2.2c-0.6,0.6-1.3,1.1-2.1,1.4
		C76.2,22.8,75.2,22.9,74.2,22.9z M74.2,20c0.9,0,1.6-0.4,2-1.1c0.5-0.7,0.7-1.6,0.7-2.8c0-1.2-0.2-2.1-0.7-2.8
		c-0.5-0.7-1.1-1.1-2-1.1s-1.6,0.4-2,1.1c-0.5,0.7-0.7,1.7-0.7,2.8c0,1.2,0.2,2.1,0.7,2.8C72.6,19.7,73.3,20,74.2,20z"/>
	<path d="M92.2,22.8c-1,0-1.9-0.1-2.7-0.4c-0.8-0.3-1.5-0.6-2-1.1c-0.5-0.5-0.9-1-1.2-1.7c-0.3-0.6-0.4-1.3-0.4-2.1
		c0-0.7,0.1-1.3,0.3-1.8c0.2-0.5,0.5-1,0.8-1.4c0.3-0.4,0.8-0.8,1.2-1.1c0.5-0.3,1-0.6,1.5-0.9c-0.4-0.5-0.8-1-1-1.6
		c-0.2-0.5-0.4-1.2-0.4-1.9c0-0.6,0.1-1.2,0.4-1.7c0.2-0.5,0.6-1,1-1.4c0.4-0.4,1-0.7,1.6-0.9c0.6-0.2,1.3-0.3,2.1-0.3
		c0.7,0,1.4,0.1,2,0.3s1.2,0.5,1.6,0.9c0.5,0.4,0.8,0.8,1.1,1.3c0.2,0.5,0.4,1.1,0.4,1.8c0,0.5-0.1,1-0.3,1.5
		c-0.2,0.4-0.4,0.8-0.7,1.2c-0.3,0.3-0.6,0.6-1.1,0.9c-0.4,0.3-0.8,0.5-1.3,0.7l2.1,2.7c0.2-0.3,0.3-0.7,0.4-1.1
		c0.1-0.4,0.2-0.8,0.3-1.2h3.5c-0.1,0.9-0.3,1.7-0.6,2.6c-0.3,0.9-0.8,1.7-1.3,2.5l3.1,3.8h-5l-0.9-1.1c-0.7,0.4-1.4,0.8-2.2,1
		C93.9,22.7,93,22.8,92.2,22.8z M92.4,19.5c0.9,0,1.7-0.3,2.4-0.8l-3-3.9c-0.6,0.4-1.1,0.8-1.3,1.2c-0.2,0.4-0.4,0.9-0.4,1.4
		c0,0.6,0.2,1.1,0.6,1.5S91.7,19.5,92.4,19.5z M93.4,11c0.5-0.3,0.9-0.6,1.1-1c0.2-0.4,0.3-0.7,0.3-1.2c0-0.4-0.1-0.7-0.4-1
		s-0.6-0.4-1-0.4c-0.4,0-0.7,0.1-1,0.4c-0.2,0.3-0.4,0.6-0.4,1c0,0.4,0.1,0.8,0.4,1.1C92.8,10.4,93.1,10.7,93.4,11z"/>
	<path d="M107.6,4.6h4.1v3.3h-4.1V4.6z M107.6,9.7h4.1v12.8h-4.1V9.7z"/>
	<path d="M113.6,4.6h4V14l3.8-4.3h4.7l-4.5,4.8l5,8h-4.7l-3.1-5.2l-1.2,1.3v3.9h-4V4.6z"/>
</g>
<text transform="matrix(1 0 0 1 126.5749 22.5236)" class="st0 st1"> </text>
<g>
	<path d="M0.3,29.8h8.5V31H5.2v9.5H3.9V31H0.3V29.8z"/>
	<path d="M11.7,40.7c-0.6,0-1.1-0.1-1.6-0.3c-0.5-0.2-0.9-0.5-1.2-0.9c-0.3-0.4-0.6-0.8-0.7-1.3c-0.2-0.5-0.3-1-0.3-1.6
		c0-0.6,0.1-1.1,0.3-1.6s0.4-0.9,0.8-1.3c0.3-0.4,0.7-0.7,1.2-0.9c0.5-0.2,1-0.3,1.5-0.3c0.6,0,1.1,0.1,1.5,0.3
		c0.4,0.2,0.8,0.5,1.1,0.9c0.3,0.4,0.5,0.8,0.7,1.4c0.2,0.5,0.2,1.1,0.2,1.8h-6c0,0.4,0.1,0.8,0.2,1.1c0.1,0.3,0.3,0.6,0.5,0.9
		c0.2,0.3,0.5,0.4,0.8,0.6c0.3,0.1,0.6,0.2,1,0.2c0.6,0,1-0.1,1.4-0.4c0.4-0.3,0.6-0.7,0.8-1.2H15c-0.2,0.8-0.6,1.5-1.1,1.9
		C13.3,40.5,12.5,40.7,11.7,40.7z M11.6,33.5c-0.4,0-0.7,0.1-1,0.2c-0.3,0.1-0.5,0.3-0.7,0.5c-0.2,0.2-0.4,0.5-0.5,0.8
		c-0.1,0.3-0.2,0.6-0.2,1h4.7c0-0.8-0.3-1.4-0.6-1.8C12.8,33.8,12.3,33.5,11.6,33.5z"/>
	<path d="M18.4,39.6l4.3-5.7v0h-4.1v-1.1h5.8v0.7L20,39.4v0h4.6v1.1h-6.2V39.6z"/>
	<path d="M25.8,29.8H27v1.5h-1.2V29.8z M25.8,32.8H27v7.8h-1.2V32.8z"/>
	<path d="M32,40.7c-0.6,0-1.1-0.1-1.6-0.3c-0.5-0.2-0.9-0.5-1.2-0.9c-0.3-0.4-0.6-0.8-0.7-1.3c-0.2-0.5-0.3-1-0.3-1.6
		c0-0.6,0.1-1.1,0.3-1.6s0.4-0.9,0.8-1.3c0.3-0.4,0.7-0.7,1.2-0.9c0.5-0.2,1-0.3,1.5-0.3c0.6,0,1.1,0.1,1.5,0.3
		c0.4,0.2,0.8,0.5,1.1,0.9c0.3,0.4,0.5,0.8,0.7,1.4c0.2,0.5,0.2,1.1,0.2,1.8h-6c0,0.4,0.1,0.8,0.2,1.1c0.1,0.3,0.3,0.6,0.5,0.9
		c0.2,0.3,0.5,0.4,0.8,0.6c0.3,0.1,0.6,0.2,1,0.2c0.6,0,1-0.1,1.4-0.4c0.4-0.3,0.6-0.7,0.8-1.2h1.2c-0.2,0.8-0.6,1.5-1.1,1.9
		C33.6,40.5,32.8,40.7,32,40.7z M31.9,33.5c-0.4,0-0.7,0.1-1,0.2c-0.3,0.1-0.5,0.3-0.7,0.5c-0.2,0.2-0.4,0.5-0.5,0.8
		c-0.1,0.3-0.2,0.6-0.2,1h4.7c0-0.8-0.3-1.4-0.6-1.8C33.1,33.8,32.6,33.5,31.9,33.5z"/>
	<path d="M37.9,33.8L37.9,33.8c0.3-0.4,0.6-0.7,1-0.9s0.9-0.3,1.4-0.3c0.8,0,1.4,0.2,1.9,0.6c0.5,0.4,0.7,1,0.7,1.9v5.4h-1.2v-5.3
		c0-0.5-0.2-0.9-0.5-1.2c-0.3-0.3-0.7-0.4-1.3-0.4c-0.3,0-0.6,0.1-0.9,0.2c-0.3,0.1-0.5,0.2-0.7,0.4c-0.2,0.2-0.3,0.4-0.4,0.7
		c-0.1,0.3-0.2,0.6-0.2,0.9v4.8h-1.2v-7.8h1.2V33.8z"/>
	<path d="M46.5,32.8h1.1v-2.4h1.2v2.4h1.5v1h-1.5v5c0,0.3,0.1,0.5,0.2,0.6c0.1,0.1,0.3,0.2,0.6,0.2c0.1,0,0.2,0,0.4,0
		c0.1,0,0.2,0,0.3-0.1h0v1.1c-0.1,0-0.3,0.1-0.5,0.1c-0.2,0-0.3,0-0.5,0c-0.5,0-0.9-0.1-1.2-0.3c-0.3-0.2-0.5-0.6-0.5-1.2v-5.3h-1.1
		V32.8z"/>
	<path d="M55.2,29.8h1.3l-4.3,10.7H51L55.2,29.8z"/>
	<path d="M56.9,32.8h1.2v1.1h0c0.2-0.4,0.6-0.7,1-0.9s0.8-0.4,1.3-0.4c0.5,0,0.9,0.1,1.2,0.4c0.3,0.2,0.6,0.6,0.8,1h0
		c0.2-0.5,0.6-0.8,1-1c0.4-0.2,0.9-0.4,1.4-0.4c0.7,0,1.3,0.2,1.7,0.6c0.4,0.4,0.7,1,0.7,1.9v5.4H66v-5.4c0-0.5-0.1-0.9-0.4-1.1
		c-0.3-0.3-0.6-0.4-1-0.4c-0.3,0-0.5,0.1-0.7,0.2c-0.2,0.1-0.4,0.2-0.6,0.4c-0.2,0.2-0.3,0.4-0.4,0.7c-0.1,0.3-0.2,0.5-0.2,0.8v4.8
		h-1.2v-5.4c0-0.5-0.1-0.9-0.4-1.1c-0.2-0.3-0.6-0.4-1-0.4c-0.2,0-0.5,0.1-0.7,0.2c-0.2,0.1-0.4,0.2-0.6,0.4
		c-0.2,0.2-0.3,0.4-0.5,0.7c-0.1,0.3-0.2,0.5-0.2,0.8v4.8h-1.2V32.8z"/>
	<path d="M71.2,38.8c0.2-0.5,0.5-0.9,0.9-1.3c0.4-0.4,0.8-0.7,1.2-1c0.4-0.3,0.9-0.5,1.3-0.8c0.3-0.2,0.6-0.4,0.9-0.5
		c0.3-0.2,0.5-0.4,0.7-0.6c0.2-0.2,0.3-0.4,0.4-0.6c0.1-0.2,0.1-0.5,0.1-0.8c0-0.6-0.2-1.1-0.6-1.5c-0.4-0.4-0.9-0.6-1.6-0.6
		c-0.4,0-0.7,0.1-0.9,0.2s-0.5,0.3-0.7,0.5c-0.2,0.2-0.3,0.5-0.4,0.8c-0.1,0.3-0.1,0.7-0.1,1.3h-1.3c0-0.7,0.1-1.2,0.2-1.7
		c0.2-0.4,0.4-0.8,0.7-1.1c0.3-0.3,0.7-0.6,1.2-0.7s1-0.2,1.5-0.2c0.5,0,1,0.1,1.4,0.2c0.4,0.2,0.8,0.4,1.1,0.7
		c0.3,0.3,0.5,0.6,0.7,1c0.2,0.4,0.2,0.8,0.2,1.3c0,0.5-0.1,0.9-0.2,1.3c-0.2,0.3-0.4,0.6-0.6,0.9s-0.6,0.5-1,0.7
		c-0.4,0.2-0.8,0.4-1.2,0.7c-0.3,0.2-0.6,0.3-0.9,0.5c-0.3,0.2-0.6,0.4-0.8,0.6c-0.3,0.2-0.5,0.4-0.7,0.7c-0.2,0.2-0.3,0.5-0.4,0.8
		h5.6v1.2h-7.1C70.8,39.8,71,39.2,71.2,38.8z"/>
	<path d="M79.6,38.8c0.2-0.5,0.5-0.9,0.9-1.3c0.4-0.4,0.8-0.7,1.2-1c0.4-0.3,0.9-0.5,1.3-0.8c0.3-0.2,0.6-0.4,0.9-0.5
		c0.3-0.2,0.5-0.4,0.7-0.6c0.2-0.2,0.3-0.4,0.4-0.6c0.1-0.2,0.1-0.5,0.1-0.8c0-0.6-0.2-1.1-0.6-1.5c-0.4-0.4-0.9-0.6-1.6-0.6
		c-0.4,0-0.7,0.1-0.9,0.2s-0.5,0.3-0.7,0.5c-0.2,0.2-0.3,0.5-0.4,0.8c-0.1,0.3-0.1,0.7-0.1,1.3h-1.3c0-0.7,0.1-1.2,0.2-1.7
		c0.2-0.4,0.4-0.8,0.7-1.1c0.3-0.3,0.7-0.6,1.2-0.7s1-0.2,1.5-0.2c0.5,0,1,0.1,1.4,0.2c0.4,0.2,0.8,0.4,1.1,0.7
		c0.3,0.3,0.5,0.6,0.7,1c0.2,0.4,0.2,0.8,0.2,1.3c0,0.5-0.1,0.9-0.2,1.3c-0.2,0.3-0.4,0.6-0.6,0.9s-0.6,0.5-1,0.7
		c-0.4,0.2-0.8,0.4-1.2,0.7c-0.3,0.2-0.6,0.3-0.9,0.5c-0.3,0.2-0.6,0.4-0.8,0.6c-0.3,0.2-0.5,0.4-0.7,0.7c-0.2,0.2-0.3,0.5-0.4,0.8
		h5.6v1.2h-7.1C79.2,39.8,79.3,39.2,79.6,38.8z"/>
	<path d="M90.2,32.8h1.2v1.1h0c0.2-0.4,0.6-0.7,1-0.9s0.8-0.4,1.3-0.4c0.5,0,0.9,0.1,1.2,0.4c0.3,0.2,0.6,0.6,0.8,1h0
		c0.2-0.5,0.6-0.8,1-1c0.4-0.2,0.9-0.4,1.4-0.4c0.7,0,1.3,0.2,1.7,0.6c0.4,0.4,0.7,1,0.7,1.9v5.4h-1.2v-5.4c0-0.5-0.1-0.9-0.4-1.1
		c-0.3-0.3-0.6-0.4-1-0.4c-0.3,0-0.5,0.1-0.7,0.2c-0.2,0.1-0.4,0.2-0.6,0.4c-0.2,0.2-0.3,0.4-0.4,0.7c-0.1,0.3-0.2,0.5-0.2,0.8v4.8
		h-1.2v-5.4c0-0.5-0.1-0.9-0.4-1.1c-0.2-0.3-0.6-0.4-1-0.4c-0.2,0-0.5,0.1-0.7,0.2c-0.2,0.1-0.4,0.2-0.6,0.4
		c-0.2,0.2-0.3,0.4-0.5,0.7c-0.1,0.3-0.2,0.5-0.2,0.8v4.8h-1.2V32.8z"/>
	<path d="M108.2,40.6c-0.8,0-1.2-0.4-1.3-1.2h0c-0.1,0.2-0.3,0.3-0.4,0.4c-0.2,0.1-0.3,0.3-0.6,0.4s-0.4,0.2-0.7,0.3
		c-0.3,0.1-0.6,0.1-0.9,0.1c-0.4,0-0.7,0-1-0.1c-0.3-0.1-0.6-0.2-0.8-0.4c-0.2-0.2-0.4-0.4-0.6-0.7c-0.1-0.3-0.2-0.6-0.2-1
		c0-0.5,0.1-0.8,0.3-1.1c0.2-0.3,0.4-0.5,0.7-0.7c0.3-0.2,0.7-0.3,1.1-0.4c0.4-0.1,0.9-0.2,1.3-0.3c0.3,0,0.5-0.1,0.8-0.1
		c0.2,0,0.4-0.1,0.6-0.2s0.3-0.2,0.4-0.3s0.1-0.3,0.1-0.5c0-0.4-0.2-0.8-0.5-1c-0.3-0.2-0.7-0.4-1.3-0.4c-0.6,0-1.1,0.1-1.4,0.4
		c-0.3,0.3-0.5,0.7-0.5,1.3h-1.2c0-0.4,0.1-0.7,0.2-1s0.3-0.6,0.6-0.8c0.3-0.2,0.6-0.4,1-0.5c0.4-0.1,0.8-0.2,1.3-0.2
		c0.4,0,0.8,0,1.1,0.1c0.4,0.1,0.7,0.2,0.9,0.4c0.3,0.2,0.5,0.4,0.6,0.8c0.1,0.3,0.2,0.7,0.2,1.2v3.7c0,0.3,0.1,0.6,0.2,0.7
		c0.1,0.2,0.3,0.2,0.7,0.1h0v0.9c-0.1,0-0.2,0.1-0.3,0.1C108.5,40.6,108.4,40.6,108.2,40.6z M104.6,39.7c0.4,0,0.8-0.1,1-0.2
		s0.5-0.3,0.7-0.5c0.2-0.2,0.3-0.4,0.4-0.7c0.1-0.2,0.1-0.5,0.1-0.7v-1.3c-0.2,0.1-0.5,0.2-0.8,0.3c-0.3,0.1-0.7,0.2-1,0.2
		c-0.3,0.1-0.6,0.1-0.9,0.2c-0.3,0.1-0.5,0.1-0.7,0.3c-0.2,0.1-0.3,0.3-0.5,0.4c-0.1,0.2-0.2,0.4-0.2,0.7c0,0.3,0,0.5,0.1,0.6
		s0.2,0.3,0.4,0.4c0.1,0.1,0.3,0.2,0.5,0.2C104.2,39.7,104.4,39.7,104.6,39.7z"/>
	<path d="M115.9,40.6c-0.8,0-1.2-0.4-1.3-1.2h0c-0.1,0.2-0.3,0.3-0.4,0.4c-0.2,0.1-0.3,0.3-0.6,0.4s-0.4,0.2-0.7,0.3
		c-0.3,0.1-0.6,0.1-0.9,0.1c-0.4,0-0.7,0-1-0.1s-0.6-0.2-0.8-0.4c-0.2-0.2-0.4-0.4-0.6-0.7c-0.1-0.3-0.2-0.6-0.2-1
		c0-0.5,0.1-0.8,0.3-1.1s0.4-0.5,0.7-0.7s0.7-0.3,1.1-0.4c0.4-0.1,0.9-0.2,1.3-0.3c0.3,0,0.5-0.1,0.8-0.1c0.2,0,0.4-0.1,0.6-0.2
		s0.3-0.2,0.4-0.3s0.1-0.3,0.1-0.5c0-0.4-0.2-0.8-0.5-1c-0.3-0.2-0.7-0.4-1.3-0.4c-0.6,0-1.1,0.1-1.4,0.4c-0.3,0.3-0.5,0.7-0.5,1.3
		h-1.2c0-0.4,0.1-0.7,0.2-1s0.3-0.6,0.6-0.8c0.3-0.2,0.6-0.4,1-0.5c0.4-0.1,0.8-0.2,1.3-0.2c0.4,0,0.8,0,1.1,0.1
		c0.3,0.1,0.7,0.2,0.9,0.4c0.3,0.2,0.5,0.4,0.6,0.8c0.1,0.3,0.2,0.7,0.2,1.2v3.7c0,0.3,0.1,0.6,0.2,0.7c0.1,0.2,0.3,0.2,0.7,0.1h0
		v0.9c-0.1,0-0.2,0.1-0.3,0.1C116.2,40.6,116,40.6,115.9,40.6z M112.2,39.7c0.4,0,0.8-0.1,1.1-0.2c0.3-0.1,0.5-0.3,0.7-0.5
		c0.2-0.2,0.3-0.4,0.4-0.7s0.1-0.5,0.1-0.7v-1.3c-0.2,0.1-0.5,0.2-0.8,0.3c-0.3,0.1-0.7,0.2-1,0.2c-0.3,0.1-0.6,0.1-0.9,0.2
		c-0.3,0.1-0.5,0.1-0.7,0.3c-0.2,0.1-0.4,0.3-0.5,0.4c-0.1,0.2-0.2,0.4-0.2,0.7c0,0.3,0,0.5,0.1,0.6c0.1,0.2,0.2,0.3,0.4,0.4
		c0.2,0.1,0.3,0.2,0.5,0.2C111.8,39.7,112,39.7,112.2,39.7z"/>
	<path d="M118.7,34.1L118.7,34.1c0.3-0.4,0.6-0.7,1-1c0.4-0.3,0.9-0.4,1.4-0.4c0.1,0,0.2,0,0.3,0c0.1,0,0.1,0,0.2,0.1v1.2h0
		c-0.1,0-0.2,0-0.2-0.1c-0.1,0-0.2,0-0.3,0c-0.3,0-0.6,0.1-0.9,0.2c-0.3,0.1-0.5,0.3-0.7,0.5c-0.2,0.2-0.4,0.4-0.5,0.7
		s-0.2,0.6-0.2,1v4.3h-1.2v-7.8h1.2V34.1z"/>
	<path d="M122.1,32.8h1.1v-2.4h1.2v2.4h1.5v1h-1.5v5c0,0.3,0.1,0.5,0.2,0.6c0.1,0.1,0.3,0.2,0.6,0.2c0.1,0,0.2,0,0.4,0
		c0.1,0,0.2,0,0.3-0.1h0v1.1c-0.1,0-0.3,0.1-0.5,0.1c-0.2,0-0.3,0-0.5,0c-0.5,0-0.9-0.1-1.2-0.3c-0.3-0.2-0.5-0.6-0.5-1.2v-5.3h-1.1
		V32.8z"/>
	<path d="M129.6,38.8c0.2-0.5,0.5-0.9,0.9-1.3c0.4-0.4,0.8-0.7,1.2-1s0.9-0.5,1.3-0.8c0.3-0.2,0.6-0.4,0.9-0.5
		c0.3-0.2,0.5-0.4,0.7-0.6c0.2-0.2,0.3-0.4,0.4-0.6c0.1-0.2,0.1-0.5,0.1-0.8c0-0.6-0.2-1.1-0.6-1.5c-0.4-0.4-0.9-0.6-1.6-0.6
		c-0.4,0-0.7,0.1-0.9,0.2c-0.3,0.1-0.5,0.3-0.7,0.5c-0.2,0.2-0.3,0.5-0.4,0.8c-0.1,0.3-0.1,0.7-0.1,1.3h-1.3c0-0.7,0.1-1.2,0.2-1.7
		c0.2-0.4,0.4-0.8,0.7-1.1c0.3-0.3,0.7-0.6,1.2-0.7s1-0.2,1.5-0.2c0.5,0,1,0.1,1.4,0.2c0.4,0.2,0.8,0.4,1.1,0.7
		c0.3,0.3,0.5,0.6,0.7,1c0.2,0.4,0.2,0.8,0.2,1.3c0,0.5-0.1,0.9-0.2,1.3c-0.2,0.3-0.4,0.6-0.6,0.9c-0.3,0.3-0.6,0.5-1,0.7
		c-0.4,0.2-0.8,0.4-1.2,0.7c-0.3,0.2-0.6,0.3-0.9,0.5c-0.3,0.2-0.6,0.4-0.8,0.6c-0.3,0.2-0.5,0.4-0.7,0.7c-0.2,0.2-0.3,0.5-0.4,0.8
		h5.6v1.2h-7.1C129.3,39.8,129.4,39.2,129.6,38.8z"/>
	<path d="M141.7,40.7c-0.6,0-1.2-0.1-1.7-0.4s-0.9-0.6-1.3-1.1s-0.6-1-0.8-1.7s-0.3-1.4-0.3-2.2c0-0.8,0.1-1.6,0.3-2.2
		c0.2-0.7,0.5-1.2,0.8-1.7c0.3-0.5,0.8-0.8,1.3-1.1s1-0.4,1.7-0.4c0.6,0,1.2,0.1,1.6,0.4s0.9,0.6,1.3,1.1s0.6,1,0.8,1.7
		c0.2,0.7,0.3,1.4,0.3,2.3c0,0.8-0.1,1.6-0.3,2.2s-0.4,1.2-0.8,1.7s-0.8,0.8-1.3,1.1S142.4,40.7,141.7,40.7z M141.8,39.7
		c0.9,0,1.6-0.4,2-1.1c0.4-0.8,0.7-1.8,0.7-3.1c0-0.7-0.1-1.2-0.2-1.8c-0.1-0.5-0.3-1-0.5-1.4c-0.2-0.4-0.5-0.7-0.8-0.9
		s-0.7-0.3-1.2-0.3c-0.9,0-1.6,0.4-2,1.1c-0.4,0.8-0.7,1.8-0.7,3.1c0,0.6,0.1,1.2,0.2,1.8c0.1,0.5,0.3,1,0.5,1.3
		c0.2,0.4,0.5,0.7,0.8,0.9S141.3,39.7,141.8,39.7z"/>
	<path d="M147.2,38.8c0.2-0.5,0.5-0.9,0.9-1.3c0.4-0.4,0.8-0.7,1.2-1c0.4-0.3,0.9-0.5,1.3-0.8c0.3-0.2,0.6-0.4,0.9-0.5
		c0.3-0.2,0.5-0.4,0.7-0.6c0.2-0.2,0.3-0.4,0.4-0.6c0.1-0.2,0.2-0.5,0.2-0.8c0-0.6-0.2-1.1-0.6-1.5c-0.4-0.4-0.9-0.6-1.6-0.6
		c-0.4,0-0.7,0.1-0.9,0.2c-0.3,0.1-0.5,0.3-0.7,0.5c-0.2,0.2-0.3,0.5-0.4,0.8c-0.1,0.3-0.1,0.7-0.1,1.3H147c0-0.7,0.1-1.2,0.2-1.7
		c0.2-0.4,0.4-0.8,0.7-1.1c0.3-0.3,0.7-0.6,1.2-0.7s1-0.2,1.5-0.2c0.5,0,1,0.1,1.4,0.2s0.8,0.4,1.1,0.7c0.3,0.3,0.5,0.6,0.7,1
		s0.2,0.8,0.2,1.3c0,0.5-0.1,0.9-0.2,1.3c-0.2,0.3-0.4,0.6-0.6,0.9c-0.3,0.3-0.6,0.5-1,0.7c-0.4,0.2-0.8,0.4-1.2,0.7
		c-0.3,0.2-0.6,0.3-0.9,0.5c-0.3,0.2-0.6,0.4-0.8,0.6s-0.5,0.4-0.7,0.7s-0.3,0.5-0.4,0.8h5.6v1.2h-7.1
		C146.8,39.8,147,39.2,147.2,38.8z"/>
	<path d="M159.3,40.7c-0.6,0-1.2-0.1-1.7-0.4s-0.9-0.6-1.3-1.1s-0.6-1-0.8-1.7c-0.2-0.7-0.3-1.4-0.3-2.2c0-0.8,0.1-1.6,0.3-2.2
		c0.2-0.7,0.5-1.2,0.8-1.7c0.4-0.5,0.8-0.8,1.3-1.1c0.5-0.2,1-0.4,1.6-0.4s1.2,0.1,1.7,0.4c0.5,0.2,0.9,0.6,1.3,1.1
		c0.3,0.5,0.6,1,0.8,1.7c0.2,0.7,0.3,1.4,0.3,2.3c0,0.8-0.1,1.6-0.3,2.2s-0.4,1.2-0.8,1.7s-0.8,0.8-1.3,1.1S160,40.7,159.3,40.7z
		 M159.3,39.7c0.9,0,1.6-0.4,2-1.1c0.4-0.8,0.7-1.8,0.7-3.1c0-0.7-0.1-1.2-0.2-1.8c-0.1-0.5-0.3-1-0.5-1.4c-0.2-0.4-0.5-0.7-0.8-0.9
		s-0.7-0.3-1.2-0.3c-0.9,0-1.6,0.4-2,1.1c-0.4,0.8-0.7,1.8-0.7,3.1c0,0.6,0.1,1.2,0.2,1.8c0.1,0.5,0.3,1,0.5,1.3
		c0.2,0.4,0.5,0.7,0.8,0.9S158.9,39.7,159.3,39.7z"/>
</g>
<polygon class="st2" points="137,6.1 139.8,4.5 138.4,2.2 135.7,3.7 135.7,0.6 132.9,0.6 132.9,3.7 130.2,2.2 128.8,4.5 131.5,6.1 
	128.8,7.7 130.2,10.1 132.9,8.5 132.9,11.7 135.7,11.7 135.7,8.5 138.4,10.1 139.8,7.7 "/>
</svg>
