<?xml version="1.0" encoding="utf-8"?>
<!-- Generator: Adobe Illustrator 24.0.0, SVG Export Plug-In . SVG Version: 6.00 Build 0)  -->
<svg version="1.1" id="Laag_1" xmlns="http://www.w3.org/2000/svg" xmlns:xlink="http://www.w3.org/1999/xlink" x="0px" y="0px"
	 width="210px" height="42.8px" viewBox="0 0 210 42.8" style="enable-background:new 0 0 210 42.8;" xml:space="preserve">
<style type="text/css">
	.st0{fill:#874040;}
	.st1{font-family:'NHaasGroteskDSPro-75Bd';}
	.st2{font-size:25px;}
	.st3{fill:#FFFFFF;}
</style>
<text transform="matrix(1 0 0 1 166.8161 20.2644)" class="st0 st1 st2"> </text>
<g>
	<path class="st3" d="M0.6,2.7h8.5c0.9,0,1.7,0.1,2.5,0.3s1.4,0.6,2,1s1,1,1.3,1.6s0.5,1.4,0.5,2.2c0,1-0.3,1.9-0.8,2.7
		c-0.5,0.7-1.3,1.3-2.3,1.6v0.1c0.8,0.3,1.4,0.7,1.8,1.2c0.4,0.5,0.7,1.2,0.8,2.1c0.1,0.6,0.2,1.2,0.2,1.7c0,0.6,0.1,1.1,0.1,1.5
		s0.1,0.8,0.2,1.1c0.1,0.3,0.2,0.5,0.3,0.5v0.2h-4.3c-0.1-0.1-0.2-0.2-0.3-0.5S11,19.4,11,19s-0.1-0.8-0.1-1.3s-0.1-0.9-0.2-1.4
		c-0.1-0.8-0.4-1.5-0.9-1.9s-1.2-0.7-2.1-0.7H5v6.7H0.6V2.7z M8.3,10.6c0.9,0,1.5-0.2,2-0.6C10.8,9.7,11,9.1,11,8.5
		s-0.2-1.2-0.6-1.6c-0.5-0.5-1.1-0.7-2-0.7H5v4.4H8.3z"/>
	<path class="st3" d="M23.3,21c-1,0-2-0.2-2.8-0.5s-1.6-0.8-2.2-1.4s-1.1-1.3-1.4-2.2c-0.3-0.8-0.5-1.7-0.5-2.7s0.2-1.9,0.5-2.7
		s0.8-1.5,1.4-2.2c0.6-0.6,1.3-1.1,2.2-1.4c0.8-0.3,1.8-0.5,2.8-0.5s2,0.2,2.8,0.5c0.8,0.3,1.6,0.8,2.1,1.4c0.6,0.6,1.1,1.3,1.4,2.2
		c0.3,0.8,0.5,1.7,0.5,2.7s-0.2,1.9-0.5,2.7s-0.8,1.5-1.4,2.2c-0.6,0.6-1.3,1.1-2.1,1.4C25.3,20.8,24.3,21,23.3,21z M23.3,18.1
		c0.9,0,1.6-0.4,2-1.1c0.5-0.7,0.7-1.6,0.7-2.8s-0.2-2.1-0.7-2.8c-0.5-0.7-1.1-1.1-2-1.1s-1.6,0.4-2,1.1c-0.5,0.7-0.7,1.7-0.7,2.8
		c0,1.2,0.2,2.1,0.7,2.8C21.7,17.8,22.4,18.1,23.3,18.1z"/>
	<path class="st3" d="M36.3,20.8c-0.6,0-1.1-0.1-1.6-0.2s-0.9-0.3-1.3-0.6c-0.4-0.3-0.6-0.6-0.9-1.1c-0.2-0.5-0.3-1-0.3-1.7v-6.9
		h-1.7V7.8h1.7v-4h4v4h2.3v2.5h-2.3v6c0,0.5,0.1,0.8,0.4,1c0.3,0.2,0.6,0.2,1,0.2c0.2,0,0.4,0,0.5,0c0.2,0,0.3,0,0.4,0v3
		c-0.2,0-0.5,0.1-0.8,0.1C37.3,20.7,36.9,20.8,36.3,20.8z"/>
	<path class="st3" d="M40,2.7h4.1v6.7h0.1c0.5-0.6,1-1.1,1.6-1.4c0.6-0.3,1.3-0.5,2.2-0.5c0.7,0,1.3,0.1,1.9,0.4
		c0.6,0.2,1,0.6,1.4,1s0.7,0.9,0.9,1.5s0.3,1.2,0.3,2v8.3h-4.1v-7.5c0-0.7-0.2-1.2-0.5-1.7c-0.3-0.4-0.8-0.6-1.5-0.6
		s-1.2,0.3-1.6,0.8c-0.4,0.5-0.6,1.2-0.6,2v7.1H40V2.7z"/>
	<path class="st3" d="M54.3,2.7h4v9.4l3.8-4.3h4.7l-4.5,4.8l5,8h-4.7l-3.1-5.2l-1.2,1.3v3.9h-4C54.3,20.6,54.3,2.7,54.3,2.7z"/>
	<path class="st3" d="M73.6,21c-1,0-2-0.2-2.8-0.5s-1.6-0.8-2.2-1.4s-1.1-1.3-1.4-2.2c-0.3-0.8-0.5-1.7-0.5-2.7s0.2-1.9,0.5-2.7
		S68,10,68.6,9.3c0.6-0.6,1.3-1.1,2.2-1.4c0.8-0.3,1.8-0.5,2.8-0.5s2,0.2,2.8,0.5c0.8,0.3,1.6,0.8,2.1,1.4c0.6,0.6,1.1,1.3,1.4,2.2
		c0.3,0.8,0.5,1.7,0.5,2.7s-0.2,1.9-0.5,2.7s-0.8,1.5-1.4,2.2c-0.6,0.6-1.3,1.1-2.1,1.4C75.5,20.8,74.6,21,73.6,21z M73.5,18.1
		c0.9,0,1.6-0.4,2-1.1c0.5-0.7,0.7-1.6,0.7-2.8s-0.2-2.1-0.7-2.8c-0.5-0.7-1.1-1.1-2-1.1s-1.6,0.4-2,1.1c-0.5,0.7-0.7,1.7-0.7,2.8
		c0,1.2,0.2,2.1,0.7,2.8C72,17.8,72.6,18.1,73.5,18.1z"/>
	<path class="st3" d="M91.6,20.9c-1,0-1.9-0.1-2.7-0.4c-0.8-0.3-1.5-0.6-2-1.1s-0.9-1-1.2-1.7c-0.3-0.6-0.4-1.3-0.4-2.1
		c0-0.7,0.1-1.3,0.3-1.8c0.2-0.5,0.5-1,0.8-1.4s0.8-0.8,1.2-1.1c0.5-0.3,1-0.6,1.5-0.9c-0.4-0.5-0.8-1-1-1.6
		c-0.2-0.5-0.4-1.2-0.4-1.9c0-0.6,0.1-1.2,0.4-1.7c0.2-0.5,0.6-1,1-1.4s1-0.7,1.6-0.9s1.3-0.3,2.1-0.3c0.7,0,1.4,0.1,2,0.3
		s1.2,0.5,1.6,0.9c0.5,0.4,0.8,0.8,1.1,1.3c0.2,0.5,0.4,1.1,0.4,1.8c0,0.5-0.1,1-0.3,1.5c-0.2,0.4-0.4,0.8-0.7,1.2
		c-0.3,0.3-0.6,0.6-1.1,0.9c-0.4,0.3-0.8,0.5-1.3,0.7l2.1,2.7c0.2-0.3,0.3-0.7,0.4-1.1c0.1-0.4,0.2-0.8,0.3-1.2h3.5
		c-0.1,0.9-0.3,1.7-0.6,2.6c-0.3,0.9-0.8,1.7-1.3,2.5l3.1,3.8h-5l-0.9-1.1c-0.7,0.4-1.4,0.8-2.2,1C93.2,20.8,92.4,20.9,91.6,20.9z
		 M91.7,17.6c0.9,0,1.7-0.3,2.4-0.8l-3-3.9c-0.6,0.4-1.1,0.8-1.3,1.2c-0.2,0.4-0.4,0.9-0.4,1.4c0,0.6,0.2,1.1,0.6,1.5
		S91.1,17.6,91.7,17.6z M92.8,9.1c0.5-0.3,0.9-0.6,1.1-1c0.2-0.4,0.3-0.7,0.3-1.2c0-0.4-0.1-0.7-0.4-1s-0.6-0.4-1-0.4
		s-0.7,0.1-1,0.4c-0.2,0.3-0.4,0.6-0.4,1s0.1,0.8,0.4,1.1C92.2,8.5,92.5,8.8,92.8,9.1z"/>
	<path class="st3" d="M107.2,2.7h6l2.2,7.8c0.1,0.3,0.2,0.7,0.3,1.1c0.1,0.5,0.2,0.9,0.3,1.3c0.1,0.5,0.3,1.1,0.4,1.6l0,0
		c0.1-0.6,0.2-1.1,0.4-1.6c0.1-0.4,0.2-0.9,0.3-1.3c0.1-0.5,0.2-0.8,0.3-1.1l2.2-7.8h6v17.9h-4v-9c0-0.2,0-0.5,0-0.9s0-0.8,0-1.2
		c0-0.5,0-1,0-1.5l0,0c-0.1,0.5-0.2,1-0.3,1.4c-0.1,0.4-0.2,0.8-0.3,1.1c-0.1,0.4-0.2,0.6-0.2,0.8l-2.6,9.2h-3.7l-2.5-9.2
		c0-0.2-0.1-0.4-0.2-0.8c-0.1-0.4-0.2-0.7-0.3-1.1c-0.1-0.4-0.2-0.9-0.3-1.4l0,0c0,0.5,0,1.1,0,1.5c0,0.4,0,0.8,0,1.2s0,0.7,0,0.9v9
		h-4C107.2,20.6,107.2,2.7,107.2,2.7z"/>
	<path class="st3" d="M131.6,20.9c-0.6,0-1.2-0.1-1.8-0.2c-0.5-0.2-1-0.4-1.4-0.8s-0.7-0.7-0.9-1.2c-0.2-0.5-0.3-1-0.3-1.7
		s0.1-1.3,0.4-1.8s0.6-0.9,1.1-1.2c0.4-0.3,1-0.5,1.6-0.7s1.2-0.3,1.9-0.4c1.2-0.2,2-0.3,2.5-0.5s0.7-0.5,0.7-0.9s-0.1-0.8-0.4-1
		s-0.7-0.4-1.3-0.4s-1.1,0.1-1.5,0.4c-0.3,0.3-0.5,0.7-0.6,1.2h-3.8c0-0.6,0.1-1.2,0.4-1.7c0.2-0.5,0.6-1,1.1-1.4s1.1-0.7,1.8-1
		s1.6-0.4,2.5-0.4c1,0,1.8,0.1,2.5,0.3c0.7,0.2,1.2,0.4,1.7,0.8c0.6,0.4,1,0.9,1.2,1.5c0.3,0.6,0.4,1.3,0.4,2.1v6.5
		c0,0.5,0,0.9,0.1,1.2c0.1,0.3,0.2,0.5,0.4,0.6v0.2h-4c-0.1-0.1-0.2-0.3-0.2-0.6c-0.1-0.2-0.1-0.5-0.2-0.9l0,0
		c-0.4,0.5-0.9,1-1.5,1.3S132.5,20.9,131.6,20.9z M132.9,18.3c0.8,0,1.4-0.2,1.9-0.6s0.7-1,0.7-1.7v-1.5c-0.3,0.1-0.6,0.3-0.9,0.4
		s-0.7,0.2-1.2,0.3c-0.8,0.2-1.3,0.4-1.7,0.6c-0.4,0.2-0.5,0.6-0.5,1.1s0.2,0.9,0.5,1.1S132.4,18.3,132.9,18.3z"/>
	<path class="st3" d="M141.3,7.8h3.9v2h0.1c0.5-0.8,1-1.3,1.5-1.7c0.5-0.4,1.2-0.5,2-0.5c0.4,0,0.7,0,0.8,0.1v3.5h-0.1
		c-1.2-0.2-2.2,0-3,0.6c-0.7,0.6-1.1,1.6-1.1,3v5.7h-4.1L141.3,7.8L141.3,7.8z"/>
	<path class="st3" d="M150.9,2.7h4.1V6h-4.1V2.7z M150.9,7.8h4.1v12.8h-4.1V7.8z"/>
	<path class="st3" d="M163.2,21c-1.1,0-2-0.2-2.9-0.5c-0.8-0.3-1.6-0.8-2.1-1.4c-0.6-0.6-1-1.3-1.4-2.2c-0.3-0.8-0.5-1.7-0.5-2.7
		s0.2-1.8,0.5-2.7c0.3-0.8,0.8-1.5,1.4-2.1c0.6-0.6,1.3-1.1,2.1-1.4c0.8-0.3,1.7-0.5,2.7-0.5c0.9,0,1.7,0.1,2.5,0.4
		c0.7,0.3,1.4,0.7,1.9,1.2c0.8,0.7,1.3,1.6,1.7,2.7s0.6,2.3,0.5,3.6h-9.2c0.1,0.9,0.4,1.5,0.9,2s1.1,0.8,2,0.8c0.5,0,1-0.1,1.3-0.3
		c0.3-0.2,0.6-0.5,0.8-0.9h4c-0.1,0.6-0.4,1.1-0.8,1.7c-0.4,0.5-0.8,1-1.4,1.4c-0.5,0.4-1.1,0.7-1.8,0.9S164,21,163.2,21z
		 M165.4,12.8c-0.1-0.8-0.3-1.4-0.8-1.8c-0.4-0.5-1-0.7-1.7-0.7c-0.8,0-1.4,0.2-1.8,0.7c-0.4,0.4-0.7,1.1-0.8,1.8H165.4z"/>
	<path class="st3" d="M170.9,2.7h4v9.4l3.8-4.3h4.7l-4.5,4.8l5,8h-4.7l-3.1-5.2l-1.2,1.3v3.9h-4V2.7z"/>
	<path class="st3" d="M190.2,21c-1.1,0-2-0.2-2.9-0.5c-0.8-0.3-1.6-0.8-2.1-1.4c-0.6-0.6-1-1.3-1.4-2.2c-0.3-0.8-0.5-1.7-0.5-2.7
		s0.2-1.8,0.5-2.7c0.3-0.8,0.8-1.5,1.4-2.1c0.6-0.6,1.3-1.1,2.1-1.4c0.8-0.3,1.7-0.5,2.7-0.5c0.9,0,1.7,0.1,2.5,0.4
		c0.7,0.3,1.4,0.7,1.9,1.2c0.8,0.7,1.3,1.6,1.7,2.7s0.6,2.3,0.5,3.6h-9.2c0.1,0.9,0.4,1.5,0.9,2s1.1,0.8,2,0.8c0.5,0,1-0.1,1.3-0.3
		c0.3-0.2,0.6-0.5,0.8-0.9h4c-0.1,0.6-0.4,1.1-0.8,1.7c-0.4,0.5-0.8,1-1.4,1.4c-0.5,0.4-1.1,0.7-1.8,0.9S191,21,190.2,21z
		 M192.4,12.8c-0.1-0.8-0.3-1.4-0.8-1.8c-0.4-0.5-1-0.7-1.7-0.7c-0.8,0-1.4,0.2-1.8,0.7c-0.4,0.4-0.7,1.1-0.8,1.8H192.4z"/>
</g>
<g>
	<path class="st3" d="M0,31.5c0-0.5,0.1-0.9,0.4-1.2c0.2-0.3,0.5-0.4,0.9-0.5v0.6c-0.2,0.1-0.3,0.2-0.4,0.4
		c-0.1,0.2-0.2,0.4-0.2,0.7h0.6V33H0V31.5z M2.3,31.5c0-0.5,0.1-0.9,0.4-1.2c0.2-0.3,0.5-0.4,0.9-0.5v0.6c-0.2,0.1-0.3,0.2-0.4,0.4
		C3,30.9,3,31.2,3,31.5h0.6V33H2.3V31.5z"/>
	<path class="st3" d="M5.2,29.9h1.3v10.7H5.2V29.9z"/>
	<path class="st3" d="M10.8,36.4l-1.1,1.1v3.1H8.4V29.9h1.2v6.3l3.4-3.3h1.5l-3,2.8l3.3,5h-1.4L10.8,36.4z"/>
	<path class="st3" d="M17.3,32.9h1.3l1.6,4.9c0,0.2,0.1,0.4,0.2,0.5c0.1,0.2,0.1,0.4,0.2,0.5c0.1,0.2,0.1,0.4,0.2,0.6l0,0
		c0-0.2,0.1-0.4,0.2-0.6c0-0.2,0.1-0.3,0.2-0.5s0.1-0.4,0.2-0.5l1.6-4.9h1.3l-2.8,7.8h-1.4L17.3,32.9z"/>
	<path class="st3" d="M28.2,40.8c-0.6,0-1.1-0.1-1.6-0.3s-0.9-0.5-1.2-0.9c-0.3-0.4-0.6-0.8-0.7-1.3c-0.2-0.5-0.3-1-0.3-1.6
		s0.1-1.1,0.3-1.6s0.4-0.9,0.8-1.3c0.3-0.4,0.7-0.7,1.2-0.9s1-0.3,1.5-0.3c0.6,0,1.1,0.1,1.5,0.3s0.8,0.5,1.1,0.9
		c0.3,0.4,0.5,0.8,0.7,1.4c0.2,0.5,0.2,1.1,0.2,1.8h-6c0,0.4,0.1,0.8,0.2,1.1s0.3,0.6,0.5,0.9c0.2,0.3,0.5,0.4,0.8,0.6
		c0.3,0.1,0.6,0.2,1,0.2c0.6,0,1-0.1,1.4-0.4c0.4-0.3,0.6-0.7,0.8-1.2h1.2c-0.2,0.8-0.6,1.5-1.1,1.9C29.8,40.6,29.1,40.8,28.2,40.8z
		 M28.1,33.6c-0.4,0-0.7,0.1-1,0.2c-0.3,0.1-0.5,0.3-0.7,0.5s-0.4,0.5-0.5,0.8s-0.2,0.6-0.2,1h4.7c0-0.8-0.3-1.4-0.6-1.8
		C29.4,33.8,28.8,33.6,28.1,33.6z"/>
	<path class="st3" d="M34.1,34.1L34.1,34.1c0.3-0.4,0.6-0.7,1-1s0.9-0.4,1.4-0.4c0.1,0,0.2,0,0.3,0s0.1,0,0.2,0.1V34l0,0
		c-0.1,0-0.2,0-0.2-0.1c-0.1,0-0.2,0-0.3,0c-0.3,0-0.6,0.1-0.9,0.2c-0.3,0.1-0.5,0.3-0.7,0.5s-0.4,0.4-0.5,0.7s-0.2,0.6-0.2,1v4.3
		H33v-7.8h1.2L34.1,34.1L34.1,34.1z"/>
	<path class="st3" d="M43.8,40.7c-0.8,0-1.2-0.4-1.3-1.2l0,0c-0.1,0.2-0.3,0.3-0.4,0.4c-0.2,0.1-0.3,0.3-0.6,0.4s-0.4,0.2-0.7,0.3
		s-0.6,0.1-0.9,0.1c-0.4,0-0.7,0-1-0.1s-0.6-0.2-0.8-0.4s-0.4-0.4-0.6-0.7c-0.1-0.3-0.2-0.6-0.2-1c0-0.5,0.1-0.8,0.3-1.1
		s0.4-0.5,0.7-0.7s0.7-0.3,1.1-0.4c0.4-0.1,0.9-0.2,1.3-0.3c0.3,0,0.5-0.1,0.8-0.1s0.4-0.1,0.6-0.2s0.3-0.2,0.4-0.3s0.1-0.3,0.1-0.5
		c0-0.4-0.2-0.8-0.5-1s-0.7-0.4-1.3-0.4s-1.1,0.1-1.4,0.4c-0.3,0.3-0.5,0.7-0.5,1.3h-1.2c0-0.4,0.1-0.7,0.2-1s0.3-0.6,0.6-0.8
		s0.6-0.4,1-0.5s0.8-0.2,1.3-0.2c0.4,0,0.8,0,1.1,0.1s0.7,0.2,0.9,0.4c0.3,0.2,0.5,0.4,0.6,0.8c0.1,0.3,0.2,0.7,0.2,1.2v3.7
		c0,0.3,0.1,0.6,0.2,0.7c0.1,0.2,0.3,0.2,0.7,0.1l0,0v0.9c-0.1,0-0.2,0.1-0.3,0.1C44.1,40.7,44,40.7,43.8,40.7z M40.2,39.8
		c0.4,0,0.8-0.1,1.1-0.2c0.3-0.1,0.5-0.3,0.7-0.5s0.3-0.4,0.4-0.7c0.1-0.2,0.1-0.5,0.1-0.7v-1.3c-0.2,0.1-0.5,0.2-0.8,0.3
		s-0.7,0.2-1,0.2c-0.3,0.1-0.6,0.1-0.9,0.2c-0.3,0.1-0.5,0.1-0.7,0.3c-0.2,0.1-0.4,0.3-0.5,0.4c-0.1,0.2-0.2,0.4-0.2,0.7
		s0,0.5,0.1,0.6c0.1,0.2,0.2,0.3,0.4,0.4c0.1,0.1,0.3,0.2,0.5,0.2S40,39.8,40.2,39.8z"/>
	<path class="st3" d="M46.6,33.9L46.6,33.9c0.3-0.4,0.6-0.7,1-0.9s0.9-0.3,1.4-0.3c0.8,0,1.4,0.2,1.9,0.6c0.5,0.4,0.7,1,0.7,1.9v5.4
		h-1.2v-5.3c0-0.5-0.2-0.9-0.5-1.2s-0.7-0.4-1.3-0.4c-0.3,0-0.6,0.1-0.9,0.2c-0.3,0.1-0.5,0.2-0.7,0.4s-0.3,0.4-0.4,0.7
		c-0.1,0.3-0.2,0.6-0.2,0.9v4.8h-1.2v-7.8h1.2v1H46.6z"/>
	<path class="st3" d="M56.3,40.8c-0.5,0-1-0.1-1.4-0.3s-0.8-0.5-1.1-0.8c-0.3-0.4-0.5-0.8-0.7-1.3s-0.2-1.1-0.2-1.7
		c0-0.6,0.1-1.2,0.3-1.7s0.4-0.9,0.7-1.3c0.3-0.3,0.7-0.6,1.1-0.8c0.4-0.2,0.9-0.3,1.3-0.3c0.5,0,1,0.1,1.4,0.4s0.7,0.5,1,0.9l0,0
		v-4.1H60v10.7h-1.2v-0.9l0,0c-0.3,0.4-0.6,0.7-1,0.9C57.3,40.7,56.9,40.8,56.3,40.8z M56.4,39.8c0.4,0,0.8-0.1,1.1-0.2
		s0.6-0.4,0.8-0.6c0.2-0.3,0.3-0.6,0.4-1c0.1-0.4,0.1-0.8,0.1-1.2c0-0.5-0.1-0.9-0.2-1.2s-0.3-0.7-0.5-1s-0.5-0.5-0.8-0.6
		c-0.3-0.2-0.7-0.2-1.1-0.2c-0.4,0-0.7,0.1-1,0.2c-0.3,0.2-0.5,0.4-0.7,0.6s-0.3,0.6-0.4,1S54,36.4,54,36.8s0,0.8,0.1,1.2
		s0.2,0.7,0.4,1s0.4,0.5,0.7,0.6C55.7,39.7,56,39.8,56.4,39.8z"/>
	<path class="st3" d="M64.9,40.8c-0.6,0-1.1-0.1-1.6-0.3s-0.9-0.5-1.2-0.9s-0.6-0.8-0.7-1.3c-0.2-0.5-0.3-1-0.3-1.6s0.1-1.1,0.3-1.6
		s0.4-0.9,0.8-1.3c0.3-0.4,0.7-0.7,1.2-0.9s1-0.3,1.5-0.3c0.6,0,1.1,0.1,1.5,0.3s0.8,0.5,1.1,0.9c0.3,0.4,0.5,0.8,0.7,1.4
		c0.2,0.5,0.2,1.1,0.2,1.8h-6c0,0.4,0.1,0.8,0.2,1.1c0.1,0.3,0.3,0.6,0.5,0.9c0.2,0.3,0.5,0.4,0.8,0.6c0.3,0.1,0.6,0.2,1,0.2
		c0.6,0,1-0.1,1.4-0.4c0.4-0.3,0.6-0.7,0.8-1.2h1.2c-0.2,0.8-0.6,1.5-1.1,1.9C66.5,40.6,65.8,40.8,64.9,40.8z M64.9,33.6
		c-0.4,0-0.7,0.1-1,0.2c-0.3,0.1-0.5,0.3-0.7,0.5s-0.4,0.5-0.5,0.8s-0.2,0.6-0.2,1h4.7c0-0.8-0.3-1.4-0.6-1.8
		C66.1,33.8,65.6,33.6,64.9,33.6z"/>
	<path class="st3" d="M70.8,34.1L70.8,34.1c0.3-0.4,0.6-0.7,1-1s0.9-0.4,1.4-0.4c0.1,0,0.2,0,0.3,0c0.1,0,0.1,0,0.2,0.1V34l0,0
		c-0.1,0-0.2,0-0.2-0.1c-0.1,0-0.2,0-0.3,0c-0.3,0-0.6,0.1-0.9,0.2c-0.3,0.1-0.5,0.3-0.7,0.5s-0.4,0.4-0.5,0.7s-0.2,0.6-0.2,1v4.3
		h-1.2v-7.8h1.2v1.3H70.8z"/>
	<path class="st3" d="M77.1,29.9h1.2v1.5h-1.2V29.9z M77.1,32.9h1.2v7.8h-1.2V32.9z"/>
	<path class="st3" d="M81.2,33.9L81.2,33.9c0.3-0.4,0.6-0.7,1-0.9s0.9-0.3,1.4-0.3c0.8,0,1.4,0.2,1.9,0.6c0.5,0.4,0.7,1,0.7,1.9v5.4
		H85v-5.3c0-0.5-0.2-0.9-0.5-1.2s-0.7-0.4-1.3-0.4c-0.3,0-0.6,0.1-0.9,0.2c-0.3,0.1-0.5,0.2-0.7,0.4s-0.3,0.4-0.4,0.7
		S81,35.6,81,35.9v4.8h-1v-7.8h1.2V33.9z"/>
	<path class="st3" d="M93.6,40.8c-0.6,0-1.1-0.1-1.6-0.3s-0.9-0.5-1.2-0.9c-0.3-0.4-0.6-0.8-0.7-1.3c-0.2-0.5-0.3-1-0.3-1.6
		s0.1-1.1,0.3-1.6s0.4-0.9,0.8-1.3c0.3-0.4,0.7-0.7,1.2-0.9s1-0.3,1.5-0.3c0.6,0,1.1,0.1,1.5,0.3s0.8,0.5,1.1,0.9
		c0.3,0.4,0.5,0.8,0.7,1.4c0.2,0.5,0.2,1.1,0.2,1.8h-6c0,0.4,0.1,0.8,0.2,1.1s0.3,0.6,0.5,0.9c0.2,0.3,0.5,0.4,0.8,0.6
		c0.3,0.1,0.6,0.2,1,0.2c0.6,0,1-0.1,1.4-0.4c0.4-0.3,0.6-0.7,0.8-1.2H97c-0.2,0.8-0.6,1.5-1.1,1.9C95.2,40.6,94.5,40.8,93.6,40.8z
		 M93.6,33.6c-0.4,0-0.7,0.1-1,0.2c-0.3,0.1-0.5,0.3-0.7,0.5s-0.4,0.5-0.5,0.8s-0.2,0.6-0.2,1h4.7c0-0.8-0.3-1.4-0.6-1.8
		C94.8,33.8,94.3,33.6,93.6,33.6z"/>
	<path class="st3" d="M101.6,40.8c-0.6,0-1.1-0.1-1.6-0.3s-0.9-0.5-1.2-0.9c-0.3-0.4-0.6-0.8-0.7-1.3c-0.2-0.5-0.3-1-0.3-1.6
		s0.1-1.1,0.3-1.6s0.4-0.9,0.8-1.3c0.3-0.4,0.7-0.7,1.2-0.9s1-0.3,1.5-0.3c0.6,0,1.1,0.1,1.5,0.3s0.8,0.5,1.1,0.9
		c0.3,0.4,0.5,0.8,0.7,1.4c0.2,0.5,0.2,1.1,0.2,1.8h-6c0,0.4,0.1,0.8,0.2,1.1s0.3,0.6,0.5,0.9c0.2,0.3,0.5,0.4,0.8,0.6
		c0.3,0.1,0.6,0.2,1,0.2c0.6,0,1-0.1,1.4-0.4c0.4-0.3,0.6-0.7,0.8-1.2h1.2c-0.2,0.8-0.6,1.5-1.1,1.9S102.5,40.8,101.6,40.8z
		 M101.5,33.6c-0.4,0-0.7,0.1-1,0.2c-0.3,0.1-0.5,0.3-0.7,0.5s-0.4,0.5-0.5,0.8s-0.2,0.6-0.2,1h4.7c0-0.8-0.3-1.4-0.6-1.8
		C102.8,33.8,102.2,33.6,101.5,33.6z"/>
	<path class="st3" d="M107.5,33.9L107.5,33.9c0.3-0.4,0.6-0.7,1-0.9s0.9-0.3,1.4-0.3c0.8,0,1.4,0.2,1.9,0.6c0.5,0.4,0.7,1,0.7,1.9
		v5.4h-1.2v-5.3c0-0.5-0.2-0.9-0.5-1.2s-0.7-0.4-1.3-0.4c-0.3,0-0.6,0.1-0.9,0.2c-0.3,0.1-0.5,0.2-0.7,0.4s-0.3,0.4-0.4,0.7
		s-0.2,0.6-0.2,0.9v4.8h-1.2v-7.8h1.2v1H107.5z"/>
	<path class="st3" d="M116.3,39.7l4.3-5.7l0,0h-4.1v-1.1h5.8v0.7l-4.5,5.9l0,0h4.6v1.1h-6.2L116.3,39.7L116.3,39.7z"/>
	<path class="st3" d="M122.9,32.9h1.3l1.4,4.8c0,0.2,0.1,0.3,0.1,0.5s0.1,0.4,0.1,0.5c0,0.2,0.1,0.4,0.1,0.6l0,0
		c0-0.2,0.1-0.4,0.1-0.6c0-0.2,0.1-0.3,0.1-0.5s0.1-0.4,0.1-0.5l1.3-4.8h1.3l1.3,4.8c0,0.2,0.1,0.3,0.1,0.5s0.1,0.4,0.1,0.5
		c0,0.2,0.1,0.4,0.1,0.6l0,0c0-0.2,0.1-0.4,0.2-0.6c0-0.2,0.1-0.4,0.1-0.5c0-0.2,0.1-0.4,0.1-0.5l1.4-4.8h1.3l-2.5,7.8h-1l-1.3-4.7
		c0-0.2-0.1-0.3-0.1-0.5s-0.1-0.4-0.1-0.5c0-0.2-0.1-0.4-0.1-0.6l0,0c0,0.2-0.1,0.4-0.1,0.6c0,0.2-0.1,0.3-0.1,0.5s-0.1,0.4-0.1,0.5
		l-1.3,4.7h-1.3L122.9,32.9z"/>
	<path class="st3" d="M140.5,40.7c-0.8,0-1.2-0.4-1.3-1.2l0,0c-0.1,0.2-0.3,0.3-0.4,0.4c-0.2,0.1-0.3,0.3-0.6,0.4s-0.4,0.2-0.7,0.3
		s-0.6,0.1-0.9,0.1c-0.4,0-0.7,0-1-0.1s-0.6-0.2-0.8-0.4s-0.4-0.4-0.6-0.7c-0.1-0.3-0.2-0.6-0.2-1c0-0.5,0.1-0.8,0.3-1.1
		s0.4-0.5,0.7-0.7s0.7-0.3,1.1-0.4c0.4-0.1,0.9-0.2,1.3-0.3c0.3,0,0.5-0.1,0.8-0.1c0.2,0,0.4-0.1,0.6-0.2s0.3-0.2,0.4-0.3
		s0.1-0.3,0.1-0.5c0-0.4-0.2-0.8-0.5-1s-0.7-0.4-1.3-0.4s-1.1,0.1-1.4,0.4c-0.3,0.3-0.5,0.7-0.5,1.3h-1.2c0-0.4,0.1-0.7,0.2-1
		s0.3-0.6,0.6-0.8s0.6-0.4,1-0.5s0.8-0.2,1.3-0.2c0.4,0,0.8,0,1.1,0.1c0.4,0.1,0.7,0.2,0.9,0.4c0.3,0.2,0.5,0.4,0.6,0.8
		c0.1,0.3,0.2,0.7,0.2,1.2v3.7c0,0.3,0.1,0.6,0.2,0.7c0.1,0.2,0.3,0.2,0.7,0.1l0,0v0.9c-0.1,0-0.2,0.1-0.3,0.1
		C140.8,40.7,140.7,40.7,140.5,40.7z M136.9,39.8c0.4,0,0.8-0.1,1-0.2s0.5-0.3,0.7-0.5s0.3-0.4,0.4-0.7c0.1-0.2,0.1-0.5,0.1-0.7
		v-1.3c-0.2,0.1-0.5,0.2-0.8,0.3s-0.7,0.2-1,0.2c-0.3,0.1-0.6,0.1-0.9,0.2c-0.3,0.1-0.5,0.1-0.7,0.3c-0.2,0.1-0.3,0.3-0.5,0.4
		c-0.1,0.2-0.2,0.4-0.2,0.7s0,0.5,0.1,0.6s0.2,0.3,0.4,0.4c0.1,0.1,0.3,0.2,0.5,0.2C136.5,39.8,136.7,39.8,136.9,39.8z"/>
	<path class="st3" d="M148.2,40.7c-0.8,0-1.2-0.4-1.3-1.2l0,0c-0.1,0.2-0.3,0.3-0.4,0.4c-0.2,0.1-0.3,0.3-0.6,0.4s-0.4,0.2-0.7,0.3
		s-0.6,0.1-0.9,0.1c-0.4,0-0.7,0-1-0.1s-0.6-0.2-0.8-0.4s-0.4-0.4-0.6-0.7c-0.1-0.3-0.2-0.6-0.2-1c0-0.5,0.1-0.8,0.3-1.1
		s0.4-0.5,0.7-0.7s0.7-0.3,1.1-0.4c0.4-0.1,0.9-0.2,1.3-0.3c0.3,0,0.5-0.1,0.8-0.1c0.2,0,0.4-0.1,0.6-0.2s0.3-0.2,0.4-0.3
		s0.1-0.3,0.1-0.5c0-0.4-0.2-0.8-0.5-1s-0.7-0.4-1.3-0.4s-1.1,0.1-1.4,0.4c-0.3,0.3-0.5,0.7-0.5,1.3H142c0-0.4,0.1-0.7,0.2-1
		s0.3-0.6,0.6-0.8s0.6-0.4,1-0.5s0.8-0.2,1.3-0.2c0.4,0,0.8,0,1.1,0.1s0.7,0.2,0.9,0.4c0.3,0.2,0.5,0.4,0.6,0.8
		c0.1,0.3,0.2,0.7,0.2,1.2v3.7c0,0.3,0.1,0.6,0.2,0.7c0.1,0.2,0.3,0.2,0.7,0.1l0,0v0.9c-0.1,0-0.2,0.1-0.3,0.1
		C148.5,40.7,148.4,40.7,148.2,40.7z M144.5,39.8c0.4,0,0.8-0.1,1.1-0.2c0.3-0.1,0.5-0.3,0.7-0.5s0.3-0.4,0.4-0.7s0.1-0.5,0.1-0.7
		v-1.3c-0.2,0.1-0.5,0.2-0.8,0.3s-0.7,0.2-1,0.2c-0.3,0.1-0.6,0.1-0.9,0.2c-0.3,0.1-0.5,0.1-0.7,0.3c-0.2,0.1-0.4,0.3-0.5,0.4
		c-0.1,0.2-0.2,0.4-0.2,0.7s0,0.5,0.1,0.6c0.1,0.2,0.2,0.3,0.4,0.4c0.2,0.1,0.3,0.2,0.5,0.2C144.1,39.8,144.3,39.8,144.5,39.8z"/>
	<path class="st3" d="M151,33.9L151,33.9c0.3-0.4,0.6-0.7,1-0.9s0.9-0.3,1.4-0.3c0.8,0,1.4,0.2,1.9,0.6c0.5,0.4,0.7,1,0.7,1.9v5.4
		h-1.2v-5.3c0-0.5-0.2-0.9-0.5-1.2s-0.7-0.4-1.3-0.4c-0.3,0-0.6,0.1-0.9,0.2c-0.3,0.1-0.5,0.2-0.7,0.4s-0.3,0.4-0.4,0.7
		s-0.2,0.6-0.2,0.9v4.8h-1.2v-7.8h1.2v1H151z"/>
	<path class="st3" d="M158.4,31.4c0,0.5-0.1,0.9-0.4,1.2s-0.5,0.4-0.9,0.5v-0.6c0.2-0.1,0.3-0.2,0.4-0.4c0.1-0.2,0.2-0.4,0.2-0.7
		h-0.6v-1.5h1.3V31.4z M160.6,31.4c0,0.5-0.1,0.9-0.4,1.2c-0.2,0.3-0.5,0.4-0.9,0.5v-0.6c0.2-0.1,0.3-0.2,0.4-0.4s0.2-0.4,0.2-0.7
		h-0.6v-1.5h1.3V31.4z"/>
</g>
<polygon class="st3" points="205.9,6.2 208.6,4.6 207.2,2.2 204.5,3.8 204.5,0.7 201.7,0.7 201.7,3.8 199,2.2 197.6,4.6 200.3,6.2 
	197.6,7.8 199,10.2 201.7,8.6 201.7,11.8 204.5,11.8 204.5,8.6 207.2,10.2 208.6,7.8 "/>
</svg>
