<?xml version="1.0" encoding="utf-8"?>
<!-- Generator: Adobe Illustrator 24.3.0, SVG Export Plug-In . SVG Version: 6.00 Build 0)  -->
<svg version="1.1" id="Laag_1" xmlns="http://www.w3.org/2000/svg" xmlns:xlink="http://www.w3.org/1999/xlink" x="0px" y="0px"
	 width="55.1px" height="7.1px" viewBox="0 0 55.1 7.1" style="enable-background:new 0 0 55.1 7.1;" xml:space="preserve">
<style type="text/css">
	.st0{fill:#573B4E;}
</style>
<g>
	<path class="st0" d="M9.4,5.6l-2-2.5H7v2.5H6.2V0.1H7v2.3h0.4l1.8-2.3H10L8,2.7v0l2.3,2.8H9.4z"/>
	<path class="st0" d="M12.3,5.6c-0.6,0-1-0.2-1.4-0.6c-0.4-0.4-0.6-0.9-0.6-1.5c0-0.6,0.2-1.1,0.6-1.4c0.4-0.4,0.8-0.6,1.4-0.6
		c0.6,0,1,0.2,1.4,0.6c0.4,0.4,0.6,0.9,0.6,1.5c0,0.6-0.2,1.1-0.6,1.5S12.8,5.6,12.3,5.6z M12.3,5c0.4,0,0.7-0.1,0.9-0.4
		c0.2-0.3,0.4-0.6,0.4-1c0-0.4-0.1-0.7-0.4-1s-0.6-0.4-0.9-0.4c-0.4,0-0.7,0.1-0.9,0.4c-0.2,0.3-0.4,0.6-0.4,1c0,0.4,0.1,0.7,0.4,1
		C11.6,4.9,11.9,5,12.3,5z"/>
	<path class="st0" d="M16.8,5.6c-0.6,0-1-0.2-1.4-0.6c-0.4-0.4-0.6-0.9-0.6-1.5c0-0.6,0.2-1.1,0.6-1.4c0.4-0.4,0.8-0.6,1.4-0.6
		c0.6,0,1,0.2,1.4,0.6c0.4,0.4,0.6,0.9,0.6,1.5c0,0.6-0.2,1.1-0.6,1.5S17.4,5.6,16.8,5.6z M16.8,5c0.4,0,0.7-0.1,0.9-0.4
		c0.2-0.3,0.4-0.6,0.4-1c0-0.4-0.1-0.7-0.4-1s-0.6-0.4-0.9-0.4c-0.4,0-0.7,0.1-0.9,0.4c-0.2,0.3-0.4,0.6-0.4,1c0,0.4,0.1,0.7,0.4,1
		C16.2,4.9,16.5,5,16.8,5z"/>
	<path class="st0" d="M21.5,1.6c0.5,0,0.9,0.2,1.3,0.6c0.3,0.4,0.5,0.9,0.5,1.5c0,0.6-0.2,1.1-0.5,1.5c-0.3,0.4-0.8,0.6-1.3,0.6
		c-0.6,0-1-0.2-1.2-0.6v2.1h-0.7V1.6h0.5l0.1,0.6h0.1C20.6,1.8,21,1.6,21.5,1.6z M21.5,5c0.4,0,0.6-0.1,0.9-0.4s0.3-0.6,0.3-1
		c0-0.4-0.1-0.8-0.3-1c-0.2-0.3-0.5-0.4-0.9-0.4c-0.4,0-0.6,0.1-0.8,0.4s-0.3,0.6-0.3,1c0,0.4,0.1,0.8,0.3,1C20.8,4.9,21.1,5,21.5,5
		z"/>
	<path class="st0" d="M28.4,5.5c-0.2,0.1-0.4,0.2-0.6,0.2c-0.6,0-1-0.3-1-1V2.2H26V1.7h0.2c0.4,0,0.6-0.2,0.6-0.5V0.7h0.6v1h0.9v0.6
		h-0.9v2.3c0,0.3,0.1,0.5,0.4,0.5c0.1,0,0.2,0,0.3-0.1L28.4,5.5z"/>
	<path class="st0" d="M29.9,0.9C29.8,1,29.7,1,29.5,1c-0.1,0-0.2,0-0.3-0.1C29.1,0.8,29,0.7,29,0.6s0-0.2,0.1-0.3
		c0.1-0.1,0.2-0.1,0.3-0.1c0.1,0,0.2,0,0.3,0.1C29.9,0.3,30,0.4,30,0.6S29.9,0.8,29.9,0.9z M29.9,1.6v3.9h-0.7V1.6H29.9z"/>
	<path class="st0" d="M34.5,4.2c-0.1,0.4-0.3,0.8-0.6,1c-0.3,0.3-0.7,0.4-1.2,0.4c-0.6,0-1.1-0.2-1.4-0.6c-0.3-0.4-0.5-0.9-0.5-1.5
		c0-0.6,0.2-1,0.6-1.4c0.4-0.4,0.8-0.6,1.4-0.6c0.5,0,0.9,0.1,1.2,0.4c0.3,0.3,0.5,0.6,0.6,1.1h-0.7c0-0.3-0.2-0.5-0.3-0.6
		S33,2.2,32.7,2.2c-0.4,0-0.7,0.1-0.9,0.4c-0.2,0.3-0.3,0.6-0.3,1c0,0.4,0.1,0.8,0.3,1C32,4.9,32.3,5,32.7,5C33,5,33.2,5,33.4,4.8
		c0.2-0.2,0.3-0.3,0.4-0.6H34.5z"/>
	<path class="st0" d="M38.6,1.6L37,3.3l1.6,2.3h-0.8l-1.3-1.8L36,4.3v1.2h-0.7V0H36v3.4h0.1l1.7-1.7H38.6z"/>
	<path class="st0" d="M40.7,1.6c0.6,0,1,0.2,1.3,0.6c0.3,0.4,0.5,0.9,0.4,1.6h-3c0,0.4,0.1,0.7,0.4,0.9C40.1,4.9,40.4,5,40.8,5
		C41,5,41.2,5,41.4,4.9s0.3-0.3,0.4-0.5h0.7c-0.1,0.4-0.3,0.7-0.6,0.9c-0.3,0.2-0.7,0.3-1.1,0.3c-0.6,0-1.1-0.2-1.4-0.6
		s-0.5-0.9-0.5-1.5c0-0.6,0.2-1.1,0.5-1.4C39.8,1.8,40.2,1.6,40.7,1.6z M39.6,3.2h2.3c0-0.3-0.1-0.6-0.3-0.8s-0.5-0.3-0.8-0.3
		c-0.3,0-0.6,0.1-0.8,0.3C39.8,2.6,39.6,2.9,39.6,3.2z"/>
	<path class="st0" d="M45.3,5.5c-0.2,0.1-0.4,0.2-0.6,0.2c-0.6,0-1-0.3-1-1V2.2h-0.8V1.7h0.2c0.4,0,0.6-0.2,0.6-0.5V0.7h0.6v1h0.9
		v0.6h-0.9v2.3c0,0.3,0.1,0.5,0.4,0.5c0.1,0,0.2,0,0.3-0.1L45.3,5.5z"/>
	<path class="st0" d="M48.8,4.5c0,0.3-0.1,0.6-0.4,0.8c-0.3,0.2-0.6,0.3-1,0.3c-0.5,0-0.8-0.1-1.1-0.4c-0.3-0.2-0.4-0.6-0.4-1h0.7
		c0,0.3,0.1,0.5,0.3,0.6C47,5,47.2,5.1,47.4,5.1c0.2,0,0.4,0,0.5-0.1s0.2-0.2,0.2-0.4c0-0.2-0.1-0.3-0.2-0.4
		c-0.2-0.1-0.4-0.2-0.7-0.3c-0.2-0.1-0.3-0.1-0.4-0.2s-0.3-0.1-0.4-0.2s-0.2-0.2-0.3-0.3C46,3,46,2.8,46,2.7c0-0.3,0.1-0.6,0.4-0.8
		c0.3-0.2,0.6-0.3,1-0.3c0.4,0,0.7,0.1,1,0.3c0.2,0.2,0.4,0.5,0.4,0.8h-0.7c0-0.2-0.1-0.3-0.2-0.4c-0.1-0.1-0.3-0.2-0.5-0.2
		c-0.2,0-0.3,0-0.5,0.1c-0.1,0.1-0.2,0.2-0.2,0.4c0,0.2,0.1,0.3,0.2,0.4c0.1,0.1,0.3,0.2,0.6,0.3c0.4,0.1,0.7,0.3,1,0.5
		C48.7,4,48.8,4.2,48.8,4.5z"/>
</g>
</svg>
