<?xml version="1.0" encoding="utf-8"?>
<!-- Generator: Adobe Illustrator 24.3.0, SVG Export Plug-In . SVG Version: 6.00 Build 0)  -->
<svg version="1.1" id="Laag_1" xmlns="http://www.w3.org/2000/svg" xmlns:xlink="http://www.w3.org/1999/xlink" x="0px" y="0px"
	 width="90.2px" height="36.4px" viewBox="0 0 90.2 36.4" style="enable-background:new 0 0 90.2 36.4;" xml:space="preserve">
<style type="text/css">
	.st0{fill:#A1803B;}
</style>
<g>
	<path class="st0" d="M0,13.6V0.1h1.9l2.9,8.1h0V0.1h1.9v13.5H5L2,5.5h0v8.1H0z"/>
	<path class="st0" d="M15.2,0.1v10.4c0,0.4-0.1,0.8-0.2,1.2c-0.2,0.4-0.4,0.7-0.7,1c-0.3,0.3-0.6,0.5-1,0.7
		c-0.4,0.2-0.8,0.2-1.2,0.2c-0.4,0-0.8-0.1-1.2-0.2c-0.4-0.2-0.7-0.4-1-0.7c-0.3-0.3-0.5-0.6-0.7-1C9.1,11.4,9,11,9,10.5V0.1h1.9
		v10.2c0,0.5,0.1,0.8,0.3,1.1c0.2,0.2,0.5,0.3,0.9,0.3c0.3,0,0.6-0.1,0.9-0.3c0.2-0.2,0.3-0.6,0.3-1.1V0.1H15.2z"/>
	<path class="st0" d="M18.8,13.6V1.9h-2.2V0.1h6.4v1.8h-2.2v11.6H18.8z"/>
	<path class="st0" d="M24.2,13.6V0.1h1.9l2.5,7.1h0l2.5-7.1h1.9v13.5H31V5.4h0l-1.9,5.8h-1l-1.9-5.8h0v8.2H24.2z"/>
	<path class="st0" d="M35.2,13.6V0.1H41v1.8h-3.8v3.9h3.3v1.8h-3.3v3.9H41v1.9H35.2z"/>
	<path class="st0" d="M42.6,3.3c0-0.5,0.1-1,0.3-1.4c0.2-0.4,0.4-0.8,0.8-1c0.3-0.3,0.6-0.5,1-0.6S45.4,0,45.8,0
		c0.4,0,0.8,0.1,1.2,0.2c0.4,0.1,0.7,0.3,1,0.6c0.3,0.3,0.5,0.6,0.7,1C48.9,2.3,49,2.7,49,3.3V4h-1.9V3.3c0-0.5-0.1-0.8-0.4-1
		c-0.3-0.2-0.6-0.3-0.9-0.3c-0.4,0-0.7,0.1-0.9,0.3c-0.3,0.2-0.4,0.6-0.4,1v7.1c0,0.5,0.1,0.8,0.4,1c0.3,0.2,0.6,0.3,0.9,0.3
		c0.4,0,0.7-0.1,0.9-0.3c0.3-0.2,0.4-0.6,0.4-1V7.9h-1.5V6.2H49v4.2c0,0.6-0.1,1.1-0.3,1.5c-0.2,0.4-0.4,0.7-0.7,1
		c-0.3,0.3-0.7,0.5-1,0.6c-0.4,0.1-0.8,0.2-1.2,0.2c-0.4,0-0.8-0.1-1.2-0.2s-0.7-0.3-1-0.6c-0.3-0.3-0.6-0.6-0.8-1
		c-0.2-0.4-0.3-0.9-0.3-1.5V3.3z"/>
	<path class="st0" d="M56.5,13.6V1.9h-2.2V0.1h6.4v1.8h-2.2v11.6H56.5z"/>
	<path class="st0" d="M60,13.6l3-13.5h1.6l3,13.5h-1.9l-0.6-2.9h-2.6L62,13.6H60z M64.8,8.9L63.8,4h0l-0.9,4.9H64.8z"/>
	<path class="st0" d="M69.1,13.6V0.1H71v11.5h3.8v1.9H69.1z"/>
	<path class="st0" d="M76.5,13.6V0.1h5.7v1.8h-3.8v3.9h3.3v1.8h-3.3v3.9h3.8v1.9H76.5z"/>
	<path class="st0" d="M90.2,4h-1.9V3.6c0-0.4-0.1-0.8-0.3-1.1c-0.2-0.3-0.6-0.5-1-0.5c-0.3,0-0.5,0-0.6,0.2
		c-0.2,0.1-0.3,0.2-0.4,0.4c-0.1,0.2-0.2,0.3-0.2,0.6c0,0.2-0.1,0.4-0.1,0.7c0,0.3,0,0.5,0,0.7c0,0.2,0.1,0.3,0.1,0.5
		c0.1,0.1,0.2,0.3,0.3,0.4c0.1,0.1,0.3,0.2,0.6,0.3L88.2,6c0.4,0.2,0.8,0.4,1,0.6c0.3,0.2,0.5,0.5,0.6,0.8c0.1,0.3,0.2,0.6,0.3,1
		c0.1,0.4,0.1,0.8,0.1,1.3c0,0.6-0.1,1.1-0.2,1.6c-0.1,0.5-0.3,0.9-0.5,1.2c-0.3,0.4-0.6,0.6-1,0.8c-0.4,0.2-1,0.3-1.6,0.3
		c-0.5,0-0.9-0.1-1.3-0.2c-0.4-0.2-0.7-0.4-1-0.7c-0.3-0.3-0.5-0.6-0.7-1c-0.2-0.4-0.3-0.8-0.3-1.3V9.8h1.9v0.6c0,0.4,0.1,0.7,0.3,1
		c0.2,0.3,0.6,0.4,1,0.4c0.3,0,0.6,0,0.8-0.1c0.2-0.1,0.3-0.2,0.4-0.4c0.1-0.2,0.2-0.4,0.2-0.6c0-0.2,0-0.5,0-0.8c0-0.4,0-0.6,0-0.9
		c0-0.2-0.1-0.4-0.2-0.5C88,8.2,87.9,8.1,87.8,8c-0.1-0.1-0.3-0.2-0.6-0.3l-1.4-0.6c-0.8-0.3-1.4-0.8-1.7-1.4
		c-0.3-0.6-0.4-1.3-0.4-2.1c0-0.5,0.1-1,0.2-1.4c0.1-0.5,0.3-0.8,0.6-1.2c0.3-0.3,0.6-0.6,1-0.8S86.4,0,87,0c0.5,0,0.9,0.1,1.3,0.3
		c0.4,0.2,0.7,0.4,1,0.7c0.6,0.6,0.9,1.3,0.9,2.1V4z"/>
	<path class="st0" d="M0,26c0-0.5,0.1-1,0.3-1.4c0.2-0.4,0.4-0.8,0.8-1c0.3-0.3,0.6-0.5,1-0.6s0.8-0.2,1.2-0.2
		c0.4,0,0.8,0.1,1.2,0.2c0.4,0.1,0.7,0.3,1,0.6c0.3,0.3,0.5,0.6,0.7,1c0.2,0.4,0.3,0.9,0.3,1.4v7.1c0,0.6-0.1,1.1-0.3,1.5
		c-0.2,0.4-0.4,0.7-0.7,1c-0.3,0.3-0.7,0.5-1,0.6c-0.4,0.1-0.8,0.2-1.2,0.2c-0.4,0-0.8-0.1-1.2-0.2s-0.7-0.3-1-0.6
		c-0.3-0.3-0.6-0.6-0.8-1C0.1,34.1,0,33.6,0,33.1V26z M1.9,33.1c0,0.5,0.1,0.8,0.4,1c0.3,0.2,0.6,0.3,0.9,0.3c0.4,0,0.7-0.1,0.9-0.3
		c0.3-0.2,0.4-0.6,0.4-1V26c0-0.5-0.1-0.8-0.4-1c-0.3-0.2-0.6-0.3-0.9-0.3c-0.4,0-0.7,0.1-0.9,0.3c-0.3,0.2-0.4,0.6-0.4,1V33.1z"/>
	<path class="st0" d="M8.6,36.2V22.8h5.7v1.8h-3.8v4.1h3.3v1.8h-3.3v5.7H8.6z"/>
	<path class="st0" d="M20.1,36.2V22.8h2.8c0.6,0,1.1,0.1,1.6,0.3c0.4,0.2,0.8,0.4,1.1,0.8c0.3,0.3,0.5,0.7,0.6,1.1s0.2,0.8,0.2,1.3
		v0.5c0,0.4,0,0.7-0.1,0.9c-0.1,0.3-0.1,0.5-0.3,0.7c-0.2,0.4-0.5,0.7-1,0.9c0.5,0.2,0.8,0.5,1,0.9c0.2,0.4,0.3,1,0.3,1.7v0.8
		c0,1.2-0.3,2.1-0.9,2.7s-1.5,0.9-2.7,0.9H20.1z M22,24.6v3.7h0.9c0.6,0,1.1-0.2,1.3-0.5c0.2-0.3,0.3-0.8,0.3-1.4
		c0-0.6-0.1-1.1-0.4-1.4c-0.2-0.3-0.7-0.5-1.3-0.5H22z M22,30v4.3h0.8c0.4,0,0.7-0.1,0.9-0.2c0.2-0.1,0.4-0.3,0.5-0.5
		c0.1-0.2,0.2-0.4,0.2-0.7c0-0.3,0-0.6,0-0.9c0-0.3,0-0.6-0.1-0.9s-0.1-0.5-0.2-0.6c-0.1-0.2-0.3-0.3-0.5-0.4
		C23.5,30,23.2,30,22.9,30H22z"/>
	<path class="st0" d="M27.5,36.2l3-13.5h1.6l3,13.5h-1.9l-0.6-2.9H30l-0.6,2.9H27.5z M32.3,31.5l-0.9-4.9h0l-0.9,4.9H32.3z"/>
	<path class="st0" d="M36.5,36.2V22.8h1.9l2.9,8.1h0v-8.1h1.9v13.5h-1.8l-2.9-8.1h0v8.1H36.5z"/>
	<path class="st0" d="M45.4,36.2V22.8h2.9c1.1,0,1.9,0.3,2.5,0.9s0.9,1.5,0.9,2.6v6.3c0,1.3-0.3,2.2-0.9,2.8s-1.5,0.9-2.6,0.9H45.4z
		 M47.3,24.6v9.8h0.9c0.5,0,0.9-0.1,1.2-0.4c0.2-0.3,0.3-0.7,0.3-1.3v-6.5c0-0.5-0.1-0.9-0.3-1.2c-0.2-0.3-0.6-0.4-1.2-0.4H47.3z"/>
	<path class="st0" d="M52.8,36.2l3-13.5h1.6l3,13.5h-1.9L58,33.4h-2.6l-0.6,2.9H52.8z M57.6,31.5l-0.9-4.9h0l-0.9,4.9H57.6z"/>
</g>
</svg>
