<?xml version="1.0" encoding="utf-8"?>
<!-- Generator: Adobe Illustrator 24.3.0, SVG Export Plug-In . SVG Version: 6.00 Build 0)  -->
<svg version="1.1" id="Laag_1" xmlns="http://www.w3.org/2000/svg" xmlns:xlink="http://www.w3.org/1999/xlink" x="0px" y="0px"
	 width="89.9px" height="629.7px" viewBox="0 0 89.9 629.7" style="enable-background:new 0 0 89.9 629.7;" xml:space="preserve">
<style type="text/css">
	.st0{clip-path:url(#SVGID_2_);fill:#E62A36;}
</style>
<g>
	<defs>
		<rect id="SVGID_1_" width="89.9" height="629.7"/>
	</defs>
	<clipPath id="SVGID_2_">
		<use xlink:href="#SVGID_1_"  style="overflow:visible;"/>
	</clipPath>
	<path class="st0" d="M1.2,582.6v12.2H58l-56.8,8.4v5.4l56.8,8.2H1.2v12.8H89v-16.3l-46.4-6.7l46.4-6.5v-17.6H1.2z M20.3,539.9
		c-12.6,0-20.2,5-20.2,17.1v2.4c0,12.1,7.8,17.2,20.2,17.2H89v-13.9H19.5c-3.9,0-6.3-1.2-6.3-4.5c0-3,2.5-4.4,6.3-4.4H89v-13.9H20.3
		z M89,503.5H1.2v31.8h13.3v-18.2h25.4v13.7h13.3v-13.7h23v17.4H89V503.5z M89.9,479c0-10.8-5.4-16.8-17.1-16.8h-2.8
		c-8.7,0-14.4,1.7-21.7,7.5l-10.9,8.7c-6.3,5-8.5,5.6-14.8,5.6h-2c-5.4,0-7.6-1.2-7.6-4.5c0-3.1,2.1-4.5,6.1-4.5h15.4v-13.6H16.9
		c-10.9,0-16.7,5.8-16.7,16.7v2.7c0,12,7.7,17.7,20.5,17.7h2.8c9.9,0,14.4-1.9,22.2-8.1l11-8.7c5.8-4.6,8.5-5.6,13.5-5.6h1.7
		c4.1,0,6.1,0.7,6.1,4c0,3.3-2.2,3.9-5.2,3.9H60.2v13.2h14.4c10.4,0,15.2-4.4,15.2-15.6V479z M20.3,419.8c-12.6,0-20.2,5-20.2,17.1
		v2.4c0,12.1,7.8,17.2,20.2,17.2H89v-13.9H19.5c-3.9,0-6.3-1.2-6.3-4.5c0-3,2.5-4.4,6.3-4.4H89v-13.9H20.3z M1.2,366.6v12.2H58
		l-56.8,8.4v5.4l56.8,8.2H1.2v12.8H89v-16.3l-46.4-6.7l46.4-6.5v-17.6H1.2z M40.4,325v3.5c0,4.4-1.7,5.1-5.5,5.1H8.4
		c-4.7,0-6.3,0.7-7.2,1.3v13.6h0.6c1.3-0.6,3-1.3,6.5-1.3h30.8c5.9,0,8.3-2.9,9.6-5.9c1.1,2.4,3.9,5.9,11.2,5.9h15.6
		c9.8,0,13.6-4.6,13.6-13.7v-22.2H1.2V325H40.4z M77.1,325v3.6c0,4.1-1.9,5-5.7,5H59.2c-3.9,0-6.3-1.2-6.3-5V325H77.1z M89,274.8
		H1.2v31.8h13.3v-18.2h25.4v13.7h13.3v-13.7h23v17.4H89V274.8z M0,246.3c0,6.9,6.8,11.5,9.8,12.5c-3.8,1.1-8.1,2.2-8.6,2.3v7.7h53.4
		v-19.1H41.1v6.2h-22c-3.3,0-5.7-1.6-5.7-5.1c0-2.8,2.1-4.5,6.3-4.5h51.4c3.9,0,6,1.3,6,4.2c0,3.4-2.1,4.4-6,4.4h-9.9v13.3h9
		c10.4,0,19.7-1.7,19.7-16.3v-2.7c0-13-9.1-16.8-18.9-16.8H16.1C7,232.4,0,237.5,0,245.5V246.3z M89,189.9H1.2v12.3h50.5L1.2,215.3
		v11.1H89V214H41.9L89,202.3V189.9z M89,183.6v-13.7H1.2v13.7H89z M89,127.1H1.2v12.3h50.5L1.2,152.5v11.1H89v-12.5H41.9L89,139.4
		V127.1z M19.8,107.2c-3.8,0-6.7-1-6.7-4.6c0-3.9,3-5,6.7-5h50.5c4.5,0,6.7,1.3,6.7,4.8c0,3.1-2.1,4.7-6.7,4.7H19.8z M69.8,121.2
		c12,0,20.1-4.2,20.1-17.6v-2.3c0-12.8-8-17.6-20.2-17.6H20.8c-12.3,0-20.7,4.6-20.7,17.7v2.3c0,13.2,8.4,17.4,20.7,17.4H69.8z
		 M40.4,56v3.5c0,4.4-1.7,5.1-5.5,5.1H8.4c-4.7,0-6.3,0.7-7.2,1.3v13.6h0.6c1.3-0.6,3-1.3,6.5-1.3h30.8c5.9,0,8.3-2.9,9.6-5.9
		c1.1,2.4,3.9,5.9,11.2,5.9h15.6c9.8,0,13.6-4.6,13.6-13.7V42.4H1.2V56H40.4z M77.1,56v3.6c0,4.1-1.9,5-5.7,5H59.2
		c-3.9,0-6.3-1.2-6.3-5V56H77.1z M0,13.9c0,6.9,6.8,11.5,9.8,12.5c-3.8,1.1-8.1,2.2-8.6,2.3v7.7h53.4V17.3H41.1v6.2h-22
		c-3.3,0-5.7-1.6-5.7-5.1c0-2.8,2.1-4.5,6.3-4.5h51.4c3.9,0,6,1.3,6,4.2c0,3.4-2.1,4.4-6,4.4h-9.9v13.3h9c10.4,0,19.7-1.7,19.7-16.3
		v-2.7C89.9,3.9,80.8,0,71,0H16.1C7,0,0,5.1,0,13.1V13.9z"/>
</g>
</svg>
