<?xml version="1.0" encoding="utf-8"?>
<!-- Generator: Adobe Illustrator 24.0.0, SVG Export Plug-In . SVG Version: 6.00 Build 0)  -->
<svg version="1.1" id="Layer_1" xmlns="http://www.w3.org/2000/svg" xmlns:xlink="http://www.w3.org/1999/xlink" x="0px" y="0px"
	 width="253.4px" height="178.6px" viewBox="0 0 253.4 178.6" style="enable-background:new 0 0 253.4 178.6;" xml:space="preserve"
	>
<style type="text/css">
	.st0{fill:#FFFFFF;}
</style>
<g>
	<path class="st0" d="M102.9,39c-3.5-0.4-3.9-0.7-3.9-3.4V24.2h14.9v11.4c0,2.7-0.5,3-3.9,3.4v1.7H125V39c-3.5-0.4-3.9-0.7-3.9-3.4
		V11.2c0-2.7,0.5-3,3.9-3.4V6.1h-15.1v1.7c3.5,0.4,3.9,0.7,3.9,3.4v10.6H99V11.2c0-2.7,0.5-3,3.9-3.4V6.1H87.8v1.7
		c3.5,0.4,3.9,0.7,3.9,3.4v24.4c0,2.7-0.5,3-3.9,3.4v1.7h15.2V39z"/>
	<path class="st0" d="M139,41.3c5.7,0,9.3-3.4,10.6-8.2l-0.8-0.4c-1.8,2.6-4,4-7.4,4c-4.8,0-8.4-4.1-8.2-11h16.1v-1.1
		c0-5.9-3.5-10.3-10.1-10.3c-6.8,0-12.2,5.8-12.2,14.3C127.1,36,131.9,41.3,139,41.3z M138.8,15.9c3.2,0,4.4,3.2,4.4,7.8h-9.9
		C133.8,19.2,135.5,15.9,138.8,15.9z"/>
	<path class="st0" d="M153.8,33.6c0,5.5,3,7.7,7,7.7c3.6,0,6-1.8,7.6-4.2l-0.6-0.9c-1.2,0.9-2.3,1.4-3.7,1.4c-2.3,0-3.5-1.3-3.5-4.3
		V16.9h6.4v-2.3h-6.4V8.2h-1.5c-2.1,3.3-5,6-8.4,7.6v1.1h3.1V33.6z"/>
	<path class="st0" d="M50.1,54.6c2,0.5,3.9,0.7,5.7,0.7c8.3,0,13.8-5.5,16.3-16.3l7.3-31.5l0.5-2l-2-0.5l-9-2.1l-2-0.5l-0.5,2
		L58.9,37c-1.3,5.5-3.5,5.5-4.4,5.5c-0.5,0-1-0.1-1.6-0.2c-1.7-0.4-3.3-1.3-3.1-5.5l0.1-2.1l-2.1,0l-9.3-0.2l-1.9,0l-0.2,1.9
		C35.5,45.4,40.8,52.4,50.1,54.6z M38.5,36.5l9.3,0.2c-0.2,4.5,1.5,6.8,4.7,7.5c0.7,0.2,1.4,0.3,2,0.3c2.9,0,5.2-1.8,6.4-7.1L68.5,5
		l9,2.1l-7.3,31.5c-2.5,10.6-7.5,14.7-14.4,14.7c-1.6,0-3.4-0.2-5.2-0.7C42.1,50.6,37.7,44.6,38.5,36.5z"/>
	<path class="st0" d="M24,53.9c4,0.3,4.9,0.8,4.9,3.5V75l-18-22.9H0.8v1.7c1.8,0.1,2.5,0.9,4,3.1v24.7c0,2.7-0.4,3.1-3.9,3.5v1.7
		h11.5v-1.7c-4-0.3-4.9-0.8-4.9-3.5v-22l21.6,27.3h2.4V57.4c0-2.7,0.5-3.1,3.9-3.5v-1.7H24V53.9z"/>
	<path class="st0" d="M51.2,83c0.5,2.7,2.3,4.3,4.9,4.3c2.3,0,4.2-0.9,5.6-2.6l-0.3-1.1c-0.5,0.2-1.2,0.5-2,0.5
		c-1.3,0-1.6-1.1-1.6-2.8V68.3c0-5.8-3.5-8.1-9.8-8.1c-5.5,0-9.7,2.1-9.7,6.2c0,1.6,0.8,2.7,2.2,3.1l4.1-0.5
		c-0.2-1.1-0.4-2.1-0.4-3.1c0-2.4,0.9-4.1,3.3-4.1c2.6,0,3.5,2,3.5,4.8v4.2l-7.5,2.7c-3.7,1.4-6.8,3.1-6.8,7.4
		c0,3.9,2.7,6.4,6.7,6.4C47.1,87.2,49.7,85.1,51.2,83z M46.8,74.3l4.2-1.7v9.2c-1.4,1-2.4,1.6-3.8,1.6c-2.6,0-3.8-1.8-3.8-4.4
		C43.5,76.2,44.8,75.1,46.8,74.3z"/>
	<path class="st0" d="M71.8,87.3c3.6,0,6-1.8,7.6-4.2l-0.6-0.9c-1.2,0.9-2.3,1.4-3.7,1.4c-2.3,0-3.5-1.3-3.5-4.3V62.9H78v-2.3h-6.4
		v-6.4h-1.5c-2.1,3.3-5,6-8.4,7.6v1.1h3.1v16.7C64.8,85.2,67.7,87.3,71.8,87.3z"/>
	<path class="st0" d="M93.4,85.2c-2.3-0.1-3.1-0.4-3.1-2.2V60.2h-1.1l-8.7,2.7v0.9l3,1.7V83c0,1.7-0.8,2-3.1,2.2v1.6h13V85.2z"/>
	<path class="st0" d="M86.8,57.2c2.4,0,4-1.8,4-3.9c0-2.1-1.6-3.9-4-3.9c-2.4,0-4,1.8-4,3.9C82.8,55.4,84.5,57.2,86.8,57.2z"/>
	<path class="st0" d="M196.3,73.5c-3.7,1.4-6.8,3.1-6.8,7.4c0,3.9,2.7,6.4,6.7,6.4c3.6,0,6.1-2.2,7.7-4.2c0.5,2.7,2.3,4.3,4.9,4.3
		c2.3,0,4.2-0.9,5.6-2.6l-0.3-1.1c-0.5,0.2-1.2,0.5-2,0.5c-1.3,0-1.6-1.1-1.6-2.8V68.3c0-5.8-3.5-8.1-9.8-8.1
		c-5.5,0-9.7,2.1-9.7,6.2c0,1.6,0.8,2.7,2.2,3.1l4.1-0.5c-0.2-1.1-0.4-2.1-0.4-3.1c0-2.4,0.9-4.1,3.3-4.1c2.6,0,3.5,2,3.5,4.8v4.2
		L196.3,73.5z M203.8,81.8c-1.4,1-2.4,1.6-3.8,1.6c-2.6,0-3.8-1.8-3.8-4.4c0-2.8,1.3-3.9,3.4-4.7l4.2-1.7V81.8z"/>
	<path class="st0" d="M225.2,83V48.2h-1.1l-8.7,2.4v1l3,1.5V83c0,1.7-0.8,2-3.1,2.2v1.6h13v-1.6C226,85.1,225.2,84.8,225.2,83z"/>
	<path class="st0" d="M251.8,78.6c-1.8,2.6-4,4-7.4,4c-4.8,0-8.4-4.1-8.2-11h16.1v-1.1c0-5.9-3.5-10.3-10.1-10.3
		c-6.8,0-12.2,5.8-12.2,14.3c0,7.6,4.8,12.9,11.9,12.9c5.7,0,9.3-3.4,10.6-8.2L251.8,78.6z M241.8,62c3.2,0,4.4,3.2,4.4,7.8h-9.9
		C236.8,65.3,238.6,62,241.8,62z"/>
	<path class="st0" d="M41,98.3l-0.7,11.4h1.6c3.2-7.4,4.4-9.6,8.2-9.6h2.6v27.9c0,2.7-1.1,2.9-4.4,3.3v1.7h16.1v-1.7
		c-3.4-0.4-4.4-0.5-4.4-3.3V100h2.6c3.8,0,5,2.3,8.1,9.6h1.6l-0.7-11.4H41z"/>
	<path class="st0" d="M99.9,129.1v-14.8c0-5.4-2.5-8.1-7.1-8.1c-4.1,0-7,2.4-9.1,4.8V94.3h-1.1l-8.7,2.4v1l3,1.5v29.9
		c0,1.7-0.8,2-3.1,2.2v1.6h12.9v-1.6c-2.3-0.1-3-0.4-3-2.2v-16.7c1.6-1.1,3.5-2,5.5-2c2.7,0,3.9,1.4,3.9,4.3v14.4c0,1.7-0.7,2-3,2.2
		v1.6H103v-1.6C100.7,131.1,99.9,130.9,99.9,129.1z"/>
	<path class="st0" d="M119,128.7c-4.8,0-8.4-4.1-8.2-11h16.1v-1.1c0-5.9-3.5-10.3-10.1-10.3c-6.8,0-12.2,5.8-12.2,14.3
		c0,7.6,4.8,12.9,11.9,12.9c5.7,0,9.3-3.4,10.6-8.2l-0.8-0.4C124.6,127.3,122.3,128.7,119,128.7z M116.3,108.1
		c3.2,0,4.4,3.2,4.4,7.8h-9.9C111.3,111.4,113.1,108.1,116.3,108.1z"/>
	<path class="st0" d="M152,130.2c-1.3,0-1.6-1.1-1.6-2.8v-13.1c0-5.8-3.5-8.1-9.8-8.1c-5.5,0-9.7,2.1-9.7,6.2c0,1.6,0.8,2.7,2.2,3.1
		l4.1-0.5c-0.2-1.1-0.4-2.1-0.4-3.1c0-2.4,0.9-4.1,3.3-4.1c2.6,0,3.5,2,3.5,4.8v4.2l-7.5,2.7c-3.7,1.4-6.8,3.1-6.8,7.4
		c0,3.9,2.7,6.4,6.7,6.4c3.6,0,6.1-2.2,7.7-4.2c0.5,2.7,2.3,4.3,4.9,4.3c2.3,0,4.2-0.9,5.6-2.6l-0.3-1.1
		C153.4,130,152.7,130.2,152,130.2z M143.5,127.9c-1.4,1-2.4,1.6-3.8,1.6c-2.6,0-3.8-1.8-3.8-4.4c0-2.8,1.3-3.9,3.4-4.7l4.2-1.7
		V127.9z"/>
	<path class="st0" d="M167.5,129.7c-2.3,0-3.5-1.3-3.5-4.3V109h6.4v-2.3H164v-6.4h-1.5c-2.1,3.3-5,6-8.4,7.6v1.1h3.1v16.7
		c0,5.5,3,7.7,7,7.7c3.6,0,6-1.8,7.6-4.2l-0.6-0.9C170,129.2,168.9,129.7,167.5,129.7z"/>
	<path class="st0" d="M220.1,148.1l-0.1-2l-2,0.1l-18.2,1l-2,0.1l0.1,2l0.4,7.7l0.1,2l2-0.1l6.7-0.4c-1.3,4-4.9,5.7-8.3,5.9
		c-0.3,0-0.6,0-0.8,0c-7.3,0-11.5-5.1-12-14.3c-0.3-4.9,0.8-8.9,3-11.6c2-2.4,4.9-3.7,8.5-3.9c0.2,0,0.4,0,0.7,0
		c4.4,0,7.7,2.5,10.1,7.6l0.8,1.6l1.7-0.5l8.3-2.7l2-0.6l-0.7-2c-2.4-7.1-7.1-12.1-13.3-14.5v-8.4c2.5-2.5,4.9-2.7,8-2.7h0.9v-5.3
		c-0.4-0.5-1.1-0.8-2.2-0.8c-2.9,0-4.4,1.9-6.8,7.3l0.2-7.3H206l-8.8,2.7v0.9l3,1.7V122c-0.6,0-1.3-0.1-1.9-0.1c-0.5,0-1,0-1.6,0
		c-5.4,0.3-10.4,2.1-14.4,5.1c-2.2-1.8-3.5-5-3.4-9.3H195v-1.1c0-5.9-3.5-10.3-10.1-10.3c-6.8,0-12.2,5.8-12.2,14.3
		c0,4.8,1.9,8.7,5.1,10.9c-4,5.1-5.9,11.8-5.4,19.5c0.4,8.2,3.3,15,8.1,19.6c4.4,4.2,10.4,6.6,16.9,6.6c0.5,0,1,0,1.5,0
		c5-0.3,8.3-2.1,10.5-4l0.2,1.1l0.3,1.7l1.8-0.1l7.8-0.4l2-0.1l-0.1-2L220.1,148.1z M184.4,108.1c3.2,0,4.4,3.2,4.4,7.8H179
		C179.4,111.4,181.1,108.1,184.4,108.1z M211.6,173.7l-1.1-5.3c-1.8,3-5.4,6.2-11.8,6.6c-0.5,0-0.9,0-1.4,0
		c-11.5,0-22.1-7.9-23-24.3c-0.4-7.8,1.7-13.9,5.2-18.3c1.3-1.7,2.9-3.1,4.6-4.2c3.6-2.5,8-3.9,12.6-4.2c0.5,0,1,0,1.4,0
		c0.7,0,1.3,0,1.9,0.1c2.5,0.2,4.8,0.8,6.8,1.7c5.5,2.4,9.3,7.1,11.3,12.9l-8.3,2.7c-2-4.3-4.9-7.3-8.9-8.4c-1-0.3-2-0.4-3.1-0.4
		c-0.3,0-0.5,0-0.8,0c-0.1,0-0.1,0-0.2,0c-7.9,0.5-13.8,6.2-13.2,17.7c0.6,11.5,6.7,16.2,14.1,16.2c0.3,0,0.6,0,0.9,0
		c7.3-0.4,10.3-5.5,10.7-10.1l-9.2,0.5l-0.4-7.7l18.2-1l1.3,25.1L211.6,173.7z"/>
	<path class="st0" d="M148.2,45.8l-3.1,23.1c-1.6-15.8-12.9-22.1-23-22.7c-0.5,0-1,0-1.6,0h0c-6.6,0-12.4,2.2-16.7,6.5
		c-4.7,4.6-7.5,11.4-7.9,19.7c-1.1,20.3,11.8,28.2,23.2,28.9c0.5,0,1,0,1.6,0c6.6,0,12.4-2.2,16.7-6.5c2.3-2.3,4.1-5,5.5-8.3
		l-1.2,8.8l-0.3,2l2,0.3l9.2,1.2l2,0.3l0.3-2l3.3-24.8l11,27.7l0.4,1.1l1.2,0.2l9.7,1.3l2,0.3l0.3-2l6.5-49.4l0.3-2l-2-0.3l-9.2-1.2
		l-2-0.3l-0.3,2l-3.3,24.8l-11-27.7l-0.4-1.1l-1.2-0.2l-9.7-1.3l-2-0.3L148.2,45.8z M143.3,75c-0.9,16.6-11,24.3-22.6,24.3
		c-0.5,0-1,0-1.4,0c-12.1-0.7-22.2-9.4-21.2-26.7c0.9-16.6,11-24.3,22.6-24.3c0.5,0,1,0,1.4,0C134.2,48.9,144.2,57.7,143.3,75z
		 M159.9,47.4l13.8,35l4.3-32.6l9.2,1.2l-6.5,49.4l-9.7-1.3l-13.8-35l-4.3,32.6l-9.2-1.2l6.5-49.4L159.9,47.4z"/>
	<path class="st0" d="M121.6,56.8c-0.3,0-0.5,0-0.8,0c-6.9,0-13.1,4.8-13.7,16.2c-0.6,11.8,5.5,17.3,12.7,17.7c0.3,0,0.5,0,0.8,0
		c6.9,0,13.1-4.8,13.7-16.2C134.9,62.6,128.8,57.2,121.6,56.8z M132.2,74.3c-0.5,8.9-4.8,14.3-11.7,14.3c-0.2,0-0.5,0-0.7,0
		c-7.2-0.4-11.2-6.2-10.7-15.5c0.5-8.9,4.8-14.3,11.7-14.3c0.2,0,0.5,0,0.7,0C128.7,59.2,132.7,65,132.2,74.3z"/>
</g>
</svg>
