<?xml version="1.0" encoding="utf-8"?>
<!-- Generator: Adobe Illustrator 24.0.0, SVG Export Plug-In . SVG Version: 6.00 Build 0)  -->
<svg version="1.1" id="Layer_1" xmlns="http://www.w3.org/2000/svg" xmlns:xlink="http://www.w3.org/1999/xlink" x="0px" y="0px"
	 width="120px" height="27px" viewBox="0 0 120 27" style="enable-background:new 0 0 120 27;" xml:space="preserve">
<g>
	<path d="M15.7,17.2h-2.1l-0.2-0.3c-0.4-0.5-0.7-0.9-0.8-1.1c-0.5-0.6-1-0.9-1.5-1.2c-0.5-0.2-1.1-0.3-1.8-0.3v2.9H7.5V9.4h5
		c1,0,1.7,0.2,2.3,0.6c0.6,0.4,0.8,1,0.8,1.8c0,1.4-1,2.2-2.9,2.3c0.4,0.2,0.7,0.4,1.1,0.8c0.4,0.4,0.7,0.7,1,1.1L15.7,17.2z
		 M13,12.7c0.3,0,0.5-0.1,0.7-0.2c0.2-0.1,0.2-0.3,0.2-0.6c0-0.3-0.1-0.5-0.3-0.6C13.4,11.1,13.2,11,13,11c-0.3,0-0.7,0-1.2,0H9.2
		v1.8h2.5C12.3,12.7,12.7,12.7,13,12.7z"/>
	<path d="M16.6,9.4h7.8v1.5h-6.1v1.6h6.1V14h-6.1v1.6h6.1v1.5h-7.8V9.4z"/>
	<path d="M27.5,16.9c-0.9-0.2-1.5-0.6-1.9-0.9l0.4-1.5c0.7,0.5,1.3,0.8,2.1,1c0.7,0.2,1.6,0.3,2.5,0.3c0.7,0,1.2-0.1,1.5-0.2
		c0.3-0.2,0.5-0.4,0.5-0.6c0-0.2-0.1-0.4-0.3-0.5s-0.5-0.2-0.8-0.2c-0.3,0-0.7-0.1-1.3-0.1c-0.2,0-0.4,0-0.5,0
		c-1.3,0-2.2-0.3-2.9-0.7c-0.6-0.4-0.9-1-0.9-1.8c0-0.8,0.3-1.4,1-1.7c0.7-0.4,1.6-0.6,2.7-0.6c1.8,0,3.3,0.4,4.6,1.3l-0.4,1.5
		c-0.6-0.4-1.3-0.7-2.1-0.9c-0.8-0.2-1.6-0.3-2.5-0.3c-0.5,0-0.8,0.1-1.1,0.2c-0.3,0.1-0.4,0.3-0.4,0.6c0,0.3,0.2,0.5,0.6,0.7
		c0.4,0.1,1,0.2,1.9,0.2c0.9,0,1.6,0.1,2.2,0.2c0.6,0.1,1.1,0.4,1.5,0.7c0.4,0.4,0.5,0.8,0.5,1.5c0,0.5-0.2,1-0.5,1.3
		c-0.3,0.4-0.8,0.6-1.4,0.8c-0.6,0.2-1.3,0.3-2.1,0.3C29.3,17.3,28.4,17.2,27.5,16.9z"/>
	<path d="M35.4,9.4h7.8v1.5h-6.1v1.6h6.1V14h-6.1v1.6h6.1v1.5h-7.8V9.4z"/>
	<path d="M52.4,17.2h-2.1l-0.2-0.3c-0.4-0.5-0.7-0.9-0.8-1.1c-0.5-0.6-1-0.9-1.5-1.2c-0.5-0.2-1.1-0.3-1.8-0.3v2.9h-1.7V9.4h5
		c1,0,1.7,0.2,2.3,0.6c0.6,0.4,0.8,1,0.8,1.8c0,1.4-1,2.2-2.9,2.3c0.4,0.2,0.7,0.4,1.1,0.8c0.4,0.4,0.7,0.7,1,1.1L52.4,17.2z
		 M49.7,12.7c0.3,0,0.5-0.1,0.7-0.2s0.2-0.3,0.2-0.6c0-0.3-0.1-0.5-0.3-0.6C50.2,11.1,50,11,49.7,11c-0.3,0-0.7,0-1.2,0H46v1.8h2.5
		C49,12.7,49.5,12.7,49.7,12.7z"/>
	<path d="M62.7,9.4l-4,7.7h-2l-4-7.7h1.9l3.1,5.9l3.1-5.9H62.7z"/>
	<path d="M63.5,9.4h7.8v1.5h-6.1v1.6h6.1V14h-6.1v1.6h6.1v1.5h-7.8V9.4z"/>
	<path d="M72.4,9.4h7.8v1.5h-6.1v1.6h6.1V14h-6.1v1.6h6.1v1.5h-7.8V9.4z"/>
	<path d="M89.5,17.2h-2.1l-0.2-0.3c-0.4-0.5-0.6-0.9-0.8-1.1c-0.5-0.6-1-0.9-1.5-1.2c-0.5-0.2-1.1-0.3-1.8-0.3v2.9h-1.7V9.4h5
		c1,0,1.7,0.2,2.3,0.6c0.6,0.4,0.8,1,0.8,1.8c0,1.4-1,2.2-2.9,2.3c0.4,0.2,0.7,0.4,1.1,0.8c0.4,0.4,0.7,0.7,1,1.1L89.5,17.2z
		 M86.8,12.7c0.3,0,0.5-0.1,0.7-0.2c0.2-0.1,0.2-0.3,0.2-0.6c0-0.3-0.1-0.5-0.3-0.6C87.3,11.1,87,11,86.8,11c-0.3,0-0.7,0-1.2,0
		h-2.5v1.8h2.5C86.1,12.7,86.5,12.7,86.8,12.7z"/>
	<path d="M102.5,9.4v7.7h-1.4l-5.9-5.2v5.2h-1.7V9.4h1.4l5.9,5.2V9.4H102.5z"/>
	<path d="M105.7,16.9c-0.7-0.3-1.2-0.7-1.5-1.3c-0.4-0.6-0.5-1.2-0.5-2V9.4h1.7v3.8c0,0.6,0.1,1.1,0.3,1.5c0.2,0.4,0.5,0.6,0.9,0.8
		c0.4,0.2,0.9,0.2,1.5,0.2c0.6,0,1.1-0.1,1.5-0.2c0.4-0.2,0.7-0.4,0.9-0.8c0.2-0.4,0.3-0.9,0.3-1.5V9.4h1.7v4.2c0,0.8-0.2,1.4-0.5,2
		c-0.4,0.6-0.9,1-1.5,1.3c-0.7,0.3-1.4,0.4-2.3,0.4C107.1,17.3,106.3,17.2,105.7,16.9z"/>
</g>
</svg>
