<?xml version="1.0" encoding="utf-8"?>
<!-- Generator: Adobe Illustrator 24.0.0, SVG Export Plug-In . SVG Version: 6.00 Build 0)  -->
<svg version="1.1" id="Laag_1" xmlns="http://www.w3.org/2000/svg" xmlns:xlink="http://www.w3.org/1999/xlink" x="0px" y="0px"
	 width="65.2px" height="46.1px" viewBox="0 0 65.2 46.1" style="enable-background:new 0 0 65.2 46.1;" xml:space="preserve">
<style type="text/css">
	.st0{fill:#FFFFFF;}
</style>
<g>
	<path class="st0" d="M0.3-0.1h1.6v6.3H0.3V-0.1z"/>
	<path class="st0" d="M3.2,1.7h1.4v0.6l0,0C4.8,2.1,5,1.9,5.2,1.7S5.7,1.5,6,1.5s0.5,0,0.7,0.1S7.1,1.8,7.2,2s0.2,0.3,0.3,0.5
		s0.1,0.4,0.1,0.7v2.9H6.1V3.6C6.1,3.4,6,3.2,5.9,3S5.6,2.8,5.3,2.8S4.8,2.9,4.7,3.1C4.5,3.3,4.5,3.5,4.5,3.8v2.5H3V1.7H3.2z"/>
	<path class="st0" d="M10.6,6.2c-0.2,0-0.4,0-0.6-0.1C9.8,6.1,9.7,6,9.5,5.9S9.3,5.7,9.2,5.5C9.1,5.3,9.1,5.1,9.1,4.9V2.6H8.5V1.7
		h0.6V0.3h1.5v1.4h0.9v0.9h-0.9v2.1c0,0.2,0,0.3,0.1,0.4s0.2,0.1,0.4,0.1c0.1,0,0.1,0,0.2,0c0.1,0,0.1,0,0.1,0v1c-0.1,0-0.2,0-0.3,0
		S10.8,6.2,10.6,6.2z"/>
	<path class="st0" d="M14.7,6.3c-0.4,0-0.7-0.1-1-0.2s-0.6-0.3-0.8-0.5s-0.4-0.5-0.5-0.8s-0.2-0.6-0.2-1c0-0.3,0.1-0.6,0.2-0.9
		c0.1-0.3,0.3-0.5,0.5-0.8c0.2-0.2,0.5-0.4,0.8-0.5s0.6-0.2,1-0.2c0.3,0,0.6,0,0.9,0.1c0.3,0.1,0.5,0.2,0.7,0.4
		c0.3,0.2,0.5,0.6,0.6,0.9c0.1,0.4,0.2,0.8,0.2,1.3h-3.4c0,0.3,0.2,0.5,0.3,0.7c0.2,0.2,0.4,0.3,0.7,0.3c0.2,0,0.4,0,0.5-0.1
		s0.2-0.2,0.3-0.3H17c0,0.2-0.1,0.4-0.3,0.6c-0.1,0.2-0.3,0.3-0.5,0.5s-0.4,0.4-0.7,0.4C15.3,6.3,15,6.3,14.7,6.3z M15.5,3.5
		c0-0.3-0.1-0.5-0.3-0.6c-0.2-0.2-0.4-0.2-0.6-0.2c-0.3,0-0.5,0.1-0.7,0.2c-0.1,0.1-0.2,0.3-0.2,0.6H15.5z"/>
	<path class="st0" d="M18,1.7h1.4v0.7l0,0c0.2-0.3,0.4-0.5,0.6-0.6s0.4-0.2,0.7-0.2c0.1,0,0.2,0,0.3,0v1.2l0,0
		c-0.5-0.1-0.8,0-1.1,0.2s-0.4,0.6-0.4,1.1v2H18V1.7z"/>
	<path class="st0" d="M22,1.7h1.4v0.6l0,0c0.2-0.2,0.4-0.4,0.6-0.6c0.2-0.1,0.5-0.2,0.8-0.2s0.5,0,0.7,0.1C25.8,1.8,26,1.9,26.1,2
		c0.1,0.1,0.2,0.3,0.3,0.5c0.1,0.2,0.1,0.4,0.1,0.7v2.9H25V3.6c0-0.2-0.1-0.4-0.2-0.6c-0.1-0.1-0.3-0.2-0.6-0.2s-0.5,0.1-0.6,0.3
		c-0.2,0.2-0.2,0.4-0.2,0.7v2.5h-1.5L22,1.7L22,1.7z"/>
	<path class="st0" d="M29.1,6.3c-0.2,0-0.4,0-0.6-0.1S28.1,6.1,28,5.9c-0.1-0.1-0.3-0.3-0.3-0.4c-0.1-0.2-0.1-0.4-0.1-0.6
		s0-0.5,0.1-0.6S27.8,4,28,3.9s0.4-0.2,0.6-0.3s0.4-0.1,0.7-0.1c0.4-0.1,0.8-0.1,0.9-0.2c0.2-0.1,0.3-0.2,0.3-0.3s-0.1-0.3-0.2-0.4
		c-0.1-0.1-0.3-0.1-0.5-0.1s-0.4,0-0.5,0.2c-0.1,0.1-0.2,0.2-0.2,0.4h-1.4c0-0.2,0.1-0.4,0.1-0.6C27.9,2.3,28,2.1,28.2,2
		s0.4-0.3,0.7-0.3s0.6-0.1,0.9-0.1c0.4,0,0.7,0,0.9,0.1c0.2,0.1,0.5,0.2,0.6,0.3c0.2,0.1,0.4,0.3,0.5,0.5s0.1,0.5,0.1,0.7v2.3
		c0,0.2,0,0.3,0,0.4S32,6.1,32,6.1v0.1h-1.5c0,0-0.1-0.1-0.1-0.2s0-0.2-0.1-0.3l0,0C30.2,5.9,30,6,29.8,6.1
		C29.7,6.3,29.4,6.3,29.1,6.3z M29.6,5.4c0.3,0,0.5-0.1,0.7-0.2s0.3-0.3,0.3-0.6V4c-0.1,0-0.2,0.1-0.3,0.1S30,4.2,29.9,4.2
		c-0.3,0.1-0.5,0.1-0.6,0.2s-0.2,0.2-0.2,0.4c0,0.2,0.1,0.3,0.2,0.4C29.2,5.4,29.4,5.4,29.6,5.4z"/>
	<path class="st0" d="M34.9,6.2c-0.2,0-0.4,0-0.6-0.1c-0.2,0-0.3-0.1-0.5-0.2s-0.2-0.2-0.3-0.4S33.4,5.2,33.4,5V2.6h-0.6V1.7h0.6
		V0.3h1.5v1.4h0.9v0.9h-0.9v2.1c0,0.2,0,0.3,0.1,0.4s0.2,0.1,0.4,0.1c0.1,0,0.1,0,0.2,0s0.1,0,0.1,0v1c-0.1,0-0.2,0-0.3,0
		C35.3,6.2,35.1,6.2,34.9,6.2z"/>
	<path class="st0" d="M36.7-0.1h1.5v1.2h-1.5V-0.1z M36.7,1.7h1.5v4.5h-1.5V1.7z"/>
	<path class="st0" d="M41.7,6.3c-0.4,0-0.7-0.1-1-0.2s-0.6-0.3-0.8-0.5s-0.4-0.5-0.5-0.8s-0.2-0.6-0.2-0.9s0.1-0.7,0.2-0.9
		c0.1-0.3,0.3-0.5,0.5-0.8c0.2-0.2,0.5-0.4,0.8-0.5s0.7-0.2,1-0.2c0.4,0,0.7,0.1,1,0.2s0.6,0.3,0.8,0.5S43.9,2.7,44,3
		s0.2,0.6,0.2,0.9S44.1,4.6,44,4.8c-0.1,0.3-0.3,0.5-0.5,0.8S43,6,42.7,6.2C42.4,6.3,42.1,6.3,41.7,6.3z M41.7,5.3
		c0.3,0,0.6-0.1,0.8-0.4c0.2-0.2,0.3-0.6,0.3-1s-0.1-0.7-0.3-1s-0.4-0.4-0.8-0.4S41.1,2.7,40.9,3c-0.2,0.3-0.2,0.6-0.2,1
		s0.1,0.7,0.2,1C41.1,5.2,41.4,5.3,41.7,5.3z"/>
	<path class="st0" d="M45.2,1.7h1.4v0.6l0,0c0.2-0.2,0.4-0.4,0.6-0.6c0.2-0.1,0.5-0.2,0.8-0.2s0.5,0,0.7,0.1s0.4,0.2,0.5,0.4
		c0.1,0.1,0.2,0.3,0.3,0.5s0.1,0.4,0.1,0.7v2.9h-1.5V3.6c0-0.2-0.1-0.4-0.2-0.6c-0.1-0.1-0.3-0.2-0.6-0.2s-0.5,0.1-0.6,0.3
		c-0.2,0.2-0.2,0.4-0.2,0.7v2.5H45V1.7H45.2z"/>
	<path class="st0" d="M52.3,6.3c-0.2,0-0.4,0-0.6-0.1S51.2,6.1,51.1,6c-0.1-0.2-0.3-0.3-0.3-0.5s-0.1-0.4-0.1-0.6s0-0.5,0.1-0.6
		C50.9,4.1,51,4,51.2,3.9s0.4-0.2,0.6-0.3s0.4-0.1,0.7-0.1c0.4-0.1,0.8-0.1,0.9-0.2c0.2-0.1,0.3-0.2,0.3-0.3s-0.1-0.3-0.2-0.4
		c-0.1-0.1-0.3-0.1-0.5-0.1s-0.4,0-0.5,0.2c-0.1,0.1-0.2,0.2-0.2,0.4h-1.4c0-0.2,0.1-0.4,0.1-0.6c0.1-0.2,0.2-0.4,0.4-0.5
		s0.4-0.3,0.7-0.3s0.6-0.1,0.9-0.1s0.7,0,0.9,0.1s0.5,0.2,0.6,0.3c0.2,0.1,0.4,0.3,0.5,0.5s0.1,0.5,0.1,0.7v2.3c0,0.2,0,0.3,0,0.4
		s0.1,0.2,0.1,0.2v0.1h-1.4c0,0-0.1-0.1-0.1-0.2s0-0.2-0.1-0.3l0,0c-0.1,0.2-0.3,0.3-0.5,0.4S52.6,6.3,52.3,6.3z M52.7,5.4
		c0.3,0,0.5-0.1,0.7-0.2s0.3-0.3,0.3-0.6V4c-0.1,0-0.2,0.1-0.3,0.1S53.1,4.2,53,4.2c-0.3,0.1-0.5,0.1-0.6,0.2s-0.2,0.2-0.2,0.4
		c0,0.2,0.1,0.3,0.2,0.4S52.5,5.4,52.7,5.4z"/>
	<path class="st0" d="M56.3-0.1h1.5v6.3h-1.5V-0.1z"/>
</g>
<g>
	<path class="st0" d="M2.9,15.3c-0.4,0-0.8,0-1.2-0.1S1,15,0.8,14.8s-0.5-0.4-0.6-0.7S0,13.5,0,13.2h1.6c0,0.3,0.2,0.5,0.4,0.7
		c0.2,0.1,0.5,0.2,0.9,0.2c0.1,0,0.3,0,0.4,0c0.1,0,0.2-0.1,0.3-0.1s0.2-0.1,0.2-0.2c0.1-0.1,0.1-0.2,0.1-0.3s0-0.2-0.1-0.3
		S3.6,13,3.5,13c-0.1-0.1-0.3-0.1-0.5-0.2s-0.4-0.1-0.6-0.1c-0.3-0.1-0.6-0.1-0.9-0.2c-0.3-0.1-0.5-0.2-0.8-0.3
		c-0.2-0.1-0.4-0.3-0.5-0.5S0,11.2,0,10.9s0.1-0.6,0.2-0.9c0.1-0.2,0.3-0.4,0.6-0.6C1,9.2,1.3,9.1,1.6,9s0.7-0.1,1-0.1
		c0.4,0,0.7,0,1,0.1s0.6,0.2,0.8,0.4S4.8,9.8,5,10s0.2,0.5,0.2,0.9H3.8c0-0.2-0.1-0.4-0.3-0.6C3.2,10,3,10,2.7,10S2.2,10.1,2,10.2
		c-0.2,0.1-0.3,0.3-0.3,0.4c0,0.1,0,0.2,0.1,0.3S2,11,2.1,11.1s0.3,0.1,0.5,0.1s0.4,0.1,0.6,0.1c0.3,0.1,0.6,0.1,0.9,0.2
		s0.5,0.2,0.7,0.4C5,12,5.2,12.2,5.3,12.5c0.1,0.2,0.2,0.5,0.2,0.8s-0.1,0.6-0.2,0.9c-0.1,0.3-0.3,0.5-0.6,0.6
		c-0.2,0.2-0.5,0.3-0.9,0.4C3.6,15.3,3.2,15.3,2.9,15.3z"/>
	<path class="st0" d="M6.6,8.9h1.5v2.3l0,0c0.2-0.2,0.4-0.4,0.6-0.5c0.2-0.1,0.5-0.2,0.8-0.2s0.5,0,0.7,0.1s0.4,0.2,0.5,0.4
		s0.2,0.3,0.3,0.5s0.1,0.4,0.1,0.7v2.9H9.6v-2.6c0-0.2-0.1-0.4-0.2-0.6s-0.3-0.2-0.6-0.2S8.3,11.8,8.2,12C8,12.2,8,12.4,8,12.7v2.5
		H6.5L6.6,8.9L6.6,8.9z"/>
	<path class="st0" d="M14.6,15.3c-0.4,0-0.7-0.1-1-0.2c-0.3-0.1-0.6-0.3-0.8-0.5s-0.4-0.5-0.5-0.8s-0.2-0.6-0.2-0.9
		c0-0.3,0.1-0.7,0.2-0.9c0.1-0.3,0.3-0.5,0.5-0.8c0.2-0.2,0.5-0.4,0.8-0.5s0.7-0.2,1-0.2s0.7,0.1,1,0.2c0.3,0.1,0.6,0.3,0.8,0.5
		s0.4,0.5,0.5,0.8s0.2,0.6,0.2,0.9c0,0.3-0.1,0.7-0.2,0.9c-0.1,0.3-0.3,0.5-0.5,0.8s-0.5,0.4-0.8,0.5C15.3,15.3,15,15.3,14.6,15.3z
		 M14.6,14.3c0.3,0,0.6-0.1,0.8-0.4c0.2-0.2,0.3-0.6,0.3-1s-0.1-0.7-0.3-1s-0.4-0.4-0.8-0.4c-0.3,0-0.6,0.1-0.7,0.4s-0.2,0.6-0.2,1
		s0.1,0.7,0.2,1S14.3,14.3,14.6,14.3z"/>
	<path class="st0" d="M18.1,10.7h1.4v0.7l0,0c0.2-0.3,0.4-0.5,0.6-0.6s0.4-0.2,0.7-0.2c0.1,0,0.2,0,0.3,0v1.2l0,0
		c-0.5-0.1-0.8,0-1.1,0.2s-0.4,0.6-0.4,1.1v2h-1.5V10.7z"/>
	<path class="st0" d="M24,15.2c-0.2,0-0.4,0-0.6-0.1s-0.3-0.1-0.5-0.2s-0.2-0.2-0.3-0.4s-0.1-0.4-0.1-0.6v-2.4h-0.6v-0.9h0.6V9.3H24
		v1.4h0.8v0.9h-0.9v2.1c0,0.2,0,0.3,0.1,0.4c0.1,0.1,0.2,0.1,0.4,0.1c0.1,0,0.1,0,0.2,0s0.1,0,0.1,0v1c-0.1,0-0.2,0-0.3,0
		C24.4,15.2,24.2,15.2,24,15.2z"/>
	<path class="st0" d="M27.8,8.9h4.9v1.3h-3.3v1.3h2.7v1.3h-2.7v2.4h-1.6C27.8,15.2,27.8,8.9,27.8,8.9z"/>
	<path class="st0" d="M33.7,8.9h1.5v1.2h-1.5V8.9z M33.7,10.7h1.5v4.5h-1.5V10.7z"/>
	<path class="st0" d="M36.4,8.9h1.5v6.3h-1.5V8.9z"/>
	<path class="st0" d="M39.1,10.7h1.4v0.6l0,0c0.1-0.2,0.3-0.4,0.6-0.6c0.2-0.1,0.5-0.2,0.9-0.2c0.3,0,0.6,0.1,0.8,0.2
		c0.2,0.1,0.4,0.3,0.5,0.6l0,0c0.2-0.3,0.4-0.5,0.6-0.6s0.5-0.2,0.8-0.2s0.5,0,0.7,0.1s0.4,0.2,0.5,0.3s0.2,0.3,0.3,0.5
		s0.1,0.4,0.1,0.7V15h-1.5v-2.7c0-0.2-0.1-0.4-0.2-0.6c-0.1-0.1-0.3-0.2-0.5-0.2s-0.4,0.1-0.6,0.3s-0.2,0.4-0.2,0.7V15h-1.5v-2.7
		c0-0.2-0.1-0.4-0.2-0.6c-0.1-0.1-0.3-0.2-0.5-0.2s-0.4,0.1-0.5,0.3s-0.2,0.4-0.2,0.7V15h-1.5v-4.3H39.1z"/>
	<path class="st0" d="M0.4,17.2h4.9v1.3H2v1.3h2.7v1.3H2v2.4H0.4V17.2z"/>
	<path class="st0" d="M8.2,23.6c-0.4,0-0.7-0.1-1-0.2s-0.6-0.3-0.8-0.5c-0.2-0.2-0.4-0.5-0.5-0.8s-0.2-0.6-0.2-1
		c0-0.3,0.1-0.6,0.2-0.9s0.3-0.5,0.5-0.8c0.2-0.2,0.5-0.4,0.8-0.5s0.6-0.2,1-0.2c0.3,0,0.6,0,0.9,0.1s0.5,0.2,0.7,0.4
		c0.3,0.2,0.5,0.6,0.6,0.9c0.1,0.4,0.2,0.8,0.2,1.3H7.2c0,0.3,0.2,0.5,0.3,0.7c0.2,0.2,0.4,0.3,0.7,0.3c0.2,0,0.4,0,0.5-0.1
		S8.9,22.1,9,22h1.5c0,0.2-0.1,0.4-0.3,0.6c-0.1,0.2-0.3,0.3-0.5,0.5c-0.2,0.1-0.4,0.2-0.7,0.3C8.8,23.6,8.5,23.6,8.2,23.6z M9,20.8
		c0-0.3-0.1-0.5-0.3-0.6C8.5,20,8.3,20,8.1,20c-0.3,0-0.5,0.1-0.7,0.2c-0.2,0.2-0.3,0.4-0.3,0.6C7.1,20.8,9,20.8,9,20.8z"/>
	<path class="st0" d="M13.5,23.6c-0.7,0-1.2-0.1-1.6-0.4c-0.4-0.3-0.6-0.7-0.6-1.2h1.4c0,0.2,0.1,0.4,0.3,0.5s0.3,0.2,0.6,0.2
		c0.2,0,0.4,0,0.5-0.1s0.2-0.2,0.2-0.3s0-0.2-0.1-0.2C14.1,22,14,22,13.9,21.9c-0.1,0-0.2-0.1-0.4-0.1c-0.1,0-0.3,0-0.4-0.1
		c-0.2,0-0.4-0.1-0.6-0.1s-0.4-0.1-0.5-0.2s-0.3-0.2-0.4-0.4c-0.1-0.2-0.1-0.4-0.1-0.6s0.1-0.4,0.2-0.6s0.3-0.3,0.4-0.5
		c0.2-0.1,0.4-0.2,0.6-0.3s0.5-0.1,0.8-0.1c0.7,0,1.2,0.1,1.5,0.4c0.4,0.3,0.6,0.6,0.6,1.1h-1.4c0-0.2-0.1-0.3-0.2-0.4
		c-0.1-0.1-0.3-0.1-0.5-0.1s-0.3,0-0.5,0.1c-0.1,0.1-0.2,0.2-0.2,0.3s0,0.1,0.1,0.2s0.1,0.1,0.2,0.1s0.2,0.1,0.4,0.1
		c0.1,0,0.3,0,0.4,0.1c0.2,0,0.4,0.1,0.6,0.1s0.4,0.1,0.6,0.2c0.2,0.1,0.3,0.2,0.4,0.4c0.1,0.2,0.2,0.4,0.2,0.7
		c0,0.2-0.1,0.5-0.2,0.7c-0.1,0.2-0.3,0.3-0.4,0.5c-0.1,0.2-0.4,0.2-0.7,0.3S13.8,23.6,13.5,23.6z"/>
	<path class="st0" d="M18.3,23.5c-0.2,0-0.4,0-0.6-0.1s-0.3-0.1-0.5-0.2C17,23.1,17,23,16.9,22.8s-0.1-0.4-0.1-0.6v-2.4h-0.6v-0.9
		h0.6v-1.3h1.5V19h0.9v0.9h-0.9V22c0,0.2,0,0.3,0.1,0.4s0.2,0.1,0.4,0.1c0.1,0,0.1,0,0.2,0s0.1,0,0.1,0v1c-0.1,0-0.2,0-0.3,0
		C18.7,23.5,18.5,23.5,18.3,23.5z"/>
	<path class="st0" d="M20.2,17.2h1.5v1.2h-1.5V17.2z M20.2,19h1.5v4.5h-1.5V19z"/>
	<path class="st0" d="M22.5,19H24l0.6,2c0,0.1,0.1,0.2,0.1,0.3s0.1,0.2,0.1,0.3s0,0.2,0.1,0.3l0,0c0-0.1,0-0.2,0.1-0.3
		c0-0.1,0.1-0.2,0.1-0.3s0.1-0.2,0.1-0.3l0.7-2h1.5l-1.6,4.5h-1.6L22.5,19z"/>
	<path class="st0" d="M29.3,23.6c-0.2,0-0.4,0-0.6-0.1s-0.4-0.1-0.5-0.3c-0.1-0.1-0.3-0.3-0.3-0.4s-0.1-0.4-0.1-0.6s0-0.5,0.1-0.6
		c0.1-0.2,0.2-0.3,0.4-0.4c0.2-0.1,0.4-0.2,0.6-0.3s0.4-0.1,0.7-0.1c0.4-0.1,0.8-0.1,0.9-0.2c0.2-0.1,0.3-0.2,0.3-0.3
		s-0.1-0.3-0.2-0.4s-0.3-0.1-0.5-0.1s-0.4,0-0.5,0.2c-0.1,0.1-0.2,0.2-0.2,0.4H28c0-0.2,0.1-0.4,0.1-0.6c0.1-0.2,0.2-0.4,0.4-0.5
		s0.4-0.3,0.7-0.3s0.6-0.1,0.9-0.1s0.7,0,0.9,0.1s0.5,0.2,0.6,0.3c0.2,0.1,0.4,0.3,0.5,0.5s0.1,0.5,0.1,0.7v2.3c0,0.2,0,0.3,0,0.4
		s0.1,0.2,0.1,0.2v0.1h-1.5c0,0-0.1-0.1-0.1-0.2s0-0.2-0.1-0.3l0,0c-0.1,0.2-0.3,0.3-0.5,0.4C29.9,23.5,29.7,23.6,29.3,23.6z
		 M29.8,22.7c0.3,0,0.5-0.1,0.7-0.2s0.3-0.3,0.3-0.6v-0.6c-0.1,0-0.2,0.1-0.3,0.1s-0.3,0.1-0.4,0.1c-0.3,0.1-0.5,0.1-0.6,0.2
		s-0.2,0.2-0.2,0.4c0,0.2,0.1,0.3,0.2,0.4S29.6,22.7,29.8,22.7z"/>
	<path class="st0" d="M33.4,17.2h1.5v6.3h-1.5V17.2z"/>
</g>
<g>
	<path class="st0" d="M0.3,25.4h1.6l2,3.2c0,0,0.1,0.1,0.1,0.2s0.1,0.2,0.2,0.3c0.1,0.1,0.1,0.2,0.2,0.3l0,0c0-0.1,0-0.3,0-0.4
		s0-0.2,0-0.3s0-0.2,0-0.2v-3H6v6.3H4.4l-1.9-3.1c0,0-0.1-0.1-0.1-0.2c-0.1-0.1-0.1-0.2-0.2-0.3S2.1,28,2,27.8l0,0
		c0,0.2,0,0.3,0,0.4s0,0.2,0,0.3c0,0.1,0,0.2,0,0.3v2.9H0.4L0.3,25.4L0.3,25.4z"/>
	<path class="st0" d="M7.2,25.4h1.5v1.2H7.2V25.4z M7.2,27.2h1.5v4.5H7.2V27.2z"/>
	<path class="st0" d="M10,33.2c-0.1,0-0.3,0-0.4,0c-0.2,0-0.3,0-0.4-0.1v-1c0.1,0,0.2,0,0.3,0s0.2,0,0.2-0.1c0-0.1,0.1-0.1,0.1-0.1
		s0.1-0.2,0.1-0.3v-4.5h1.5v4.5c0,0.3,0,0.5-0.1,0.7s-0.2,0.3-0.3,0.4c-0.1,0.1-0.3,0.2-0.5,0.3C10.4,33.2,10.2,33.2,10,33.2z
		 M9.9,25.4h1.5v1.2H9.9V25.4z"/>
	<path class="st0" d="M12.6,27.2H14v0.6l0,0c0.1-0.2,0.3-0.4,0.6-0.6c0.2-0.1,0.5-0.2,0.9-0.2c0.3,0,0.6,0.1,0.8,0.2
		s0.4,0.3,0.5,0.6l0,0c0.2-0.3,0.4-0.5,0.6-0.6s0.5-0.2,0.8-0.2s0.5,0,0.7,0.1s0.4,0.2,0.5,0.3s0.2,0.3,0.3,0.5
		c0.2,0.4,0.2,0.6,0.2,0.9v2.9h-1.5V29c0-0.2-0.1-0.4-0.2-0.6c-0.1-0.1-0.3-0.2-0.5-0.2s-0.4,0.1-0.6,0.3c-0.1,0.2-0.2,0.4-0.2,0.7
		v2.5h-1.5V29c0-0.2-0.1-0.4-0.2-0.6c-0.1-0.1-0.3-0.2-0.5-0.2s-0.4,0.1-0.5,0.3S14,28.9,14,29.2v2.5h-1.5v-4.5H12.6z"/>
	<path class="st0" d="M23.3,31.8c-0.4,0-0.7-0.1-1-0.2s-0.6-0.3-0.8-0.5s-0.4-0.5-0.5-0.8s-0.2-0.6-0.2-1c0-0.3,0.1-0.6,0.2-0.9
		s0.3-0.5,0.5-0.8c0.2-0.2,0.5-0.4,0.8-0.5s0.6-0.2,1-0.2c0.3,0,0.6,0,0.9,0.1s0.5,0.2,0.7,0.4c0.3,0.2,0.5,0.6,0.6,0.9
		c0.1,0.4,0.2,0.8,0.2,1.3h-3.4c0,0.3,0.2,0.5,0.3,0.7c0.2,0.2,0.4,0.3,0.7,0.3c0.2,0,0.4,0,0.5-0.1s0.2-0.2,0.3-0.3h1.5
		c0,0.2-0.1,0.4-0.3,0.6c-0.1,0.2-0.3,0.3-0.5,0.5c-0.2,0.1-0.4,0.2-0.7,0.3C23.9,31.8,23.6,31.8,23.3,31.8z M24.2,29
		c0-0.3-0.1-0.5-0.3-0.6c-0.2-0.2-0.4-0.2-0.6-0.2c-0.3,0-0.5,0.1-0.7,0.2c-0.2,0.2-0.3,0.4-0.3,0.6H24.2z"/>
	<path class="st0" d="M28.8,33.3c-0.7,0-1.2-0.1-1.6-0.4c-0.4-0.2-0.6-0.6-0.7-1.1H28c0,0.1,0.1,0.2,0.3,0.3
		c0.1,0.1,0.3,0.1,0.6,0.1c0.3,0,0.5-0.1,0.7-0.2c0.1-0.1,0.2-0.4,0.2-0.6V31l0,0c-0.1,0.2-0.3,0.3-0.5,0.4s-0.4,0.1-0.7,0.1
		c-0.3,0-0.5,0-0.8-0.1c-0.2-0.1-0.5-0.2-0.7-0.4c-0.2-0.2-0.3-0.4-0.5-0.7c-0.1-0.3-0.2-0.6-0.2-0.9s0-0.6,0.1-0.9s0.2-0.5,0.4-0.7
		s0.4-0.4,0.6-0.5s0.5-0.2,0.8-0.2s0.6,0.1,0.8,0.2c0.2,0.1,0.4,0.3,0.5,0.4l0,0v-0.5H31v4.1c0,0.3-0.1,0.6-0.2,0.9
		c-0.1,0.2-0.3,0.5-0.5,0.6c-0.2,0.2-0.5,0.3-0.8,0.4C29.5,33.2,29.2,33.3,28.8,33.3z M28.8,30.4c0.3,0,0.6-0.1,0.7-0.3
		s0.2-0.5,0.2-0.8c0-0.2,0-0.3-0.1-0.4c0-0.1-0.1-0.3-0.2-0.4s-0.2-0.2-0.3-0.2c-0.1-0.1-0.3-0.1-0.4-0.1c-0.3,0-0.5,0.1-0.7,0.3
		c-0.2,0.2-0.3,0.5-0.3,0.8s0.1,0.6,0.3,0.8C28.3,30.3,28.6,30.4,28.8,30.4z"/>
	<path class="st0" d="M34.7,31.8c-0.4,0-0.7-0.1-1-0.2s-0.6-0.3-0.8-0.5s-0.4-0.5-0.5-0.8s-0.2-0.6-0.2-1c0-0.3,0.1-0.6,0.2-0.9
		s0.3-0.5,0.5-0.8c0.2-0.2,0.5-0.4,0.8-0.5s0.6-0.2,1-0.2c0.3,0,0.6,0,0.9,0.1s0.5,0.2,0.7,0.4c0.3,0.2,0.5,0.6,0.6,0.9
		c0.1,0.4,0.2,0.8,0.2,1.3h-3.4c0,0.3,0.2,0.5,0.3,0.7c0.2,0.2,0.4,0.3,0.7,0.3c0.2,0,0.4,0,0.5-0.1s0.2-0.2,0.3-0.3h1.4
		c0,0.2-0.1,0.4-0.3,0.6c-0.1,0.2-0.3,0.3-0.5,0.5c-0.2,0.1-0.4,0.2-0.7,0.3S35,31.8,34.7,31.8z M35.5,29c0-0.3-0.1-0.5-0.3-0.6
		c-0.2-0.2-0.4-0.2-0.6-0.2c-0.3,0-0.5,0.1-0.7,0.2c-0.2,0.2-0.3,0.4-0.3,0.6H35.5z"/>
	<path class="st0" d="M38,27.2h1.4v0.6l0,0c0.2-0.2,0.4-0.4,0.6-0.6c0.2-0.1,0.5-0.2,0.8-0.2s0.5,0,0.7,0.1s0.4,0.2,0.5,0.4
		c0.1,0.1,0.2,0.3,0.3,0.5s0.1,0.4,0.1,0.7v2.9h-1.5V29c0-0.2-0.1-0.4-0.2-0.6c-0.1-0.1-0.3-0.2-0.6-0.2s-0.5,0.1-0.6,0.3
		c-0.2,0.2-0.2,0.4-0.2,0.7v2.5h-1.5v-4.5C37.8,27.2,38,27.2,38,27.2z"/>
</g>
<g>
	<path class="st0" d="M0.9,42.3H0.1v-0.6c0.3,0,0.5-0.1,0.7-0.2C1,41.4,1.1,41.2,1.1,41h0.7v3.7H0.9V42.3z"/>
	<path class="st0" d="M4.2,44.7c-0.2,0-0.4,0-0.6-0.1s-0.4-0.1-0.5-0.2c-0.1-0.1-0.3-0.2-0.3-0.4c-0.1-0.1-0.1-0.3-0.2-0.5h0.9
		c0,0.2,0.1,0.3,0.2,0.3C3.8,44,4,44,4.2,44c0.2,0,0.3-0.1,0.4-0.2c0.1-0.1,0.2-0.3,0.2-0.4c0-0.2-0.1-0.3-0.2-0.4
		c-0.1-0.1-0.3-0.2-0.4-0.2c-0.1,0-0.2,0-0.3,0.1c-0.1,0-0.2,0.1-0.2,0.2H2.7l0.4-2h2.4v0.7H3.8l-0.1,0.6h0c0.1-0.1,0.2-0.1,0.3-0.2
		c0.1,0,0.3-0.1,0.4-0.1c0.2,0,0.4,0,0.5,0.1c0.2,0.1,0.3,0.1,0.4,0.2c0.1,0.1,0.2,0.2,0.3,0.4c0.1,0.2,0.1,0.3,0.1,0.5
		c0,0.2,0,0.4-0.1,0.5c-0.1,0.2-0.2,0.3-0.3,0.4c-0.1,0.1-0.3,0.2-0.5,0.3C4.6,44.7,4.4,44.7,4.2,44.7z"/>
	<path class="st0" d="M8.7,40.8h1l1.4,3.8h-1l-0.2-0.7H8.5l-0.2,0.7h-1L8.7,40.8z M9.6,43.3l-0.3-0.9c0,0,0-0.1-0.1-0.2
		c0-0.1,0-0.1-0.1-0.2c0-0.1,0-0.1-0.1-0.2h0c0,0.1,0,0.1-0.1,0.2c0,0.1,0,0.1-0.1,0.2c0,0.1,0,0.1-0.1,0.2l-0.3,0.9H9.6z"/>
	<path class="st0" d="M11.6,41.9h0.9v0.3h0c0.1-0.1,0.2-0.2,0.4-0.3s0.3-0.1,0.5-0.1c0.2,0,0.4,0,0.5,0.1c0.2,0.1,0.3,0.2,0.4,0.3
		c0.1,0.1,0.2,0.3,0.2,0.5c0.1,0.2,0.1,0.4,0.1,0.6c0,0.2,0,0.4-0.1,0.6c-0.1,0.2-0.1,0.3-0.3,0.5s-0.2,0.2-0.4,0.3
		c-0.2,0.1-0.3,0.1-0.5,0.1c-0.2,0-0.3,0-0.5-0.1c-0.1-0.1-0.2-0.2-0.3-0.3h0v1.2h-0.9V41.9z M13.1,44c0.2,0,0.3-0.1,0.4-0.2
		c0.1-0.1,0.1-0.3,0.1-0.5c0-0.2,0-0.4-0.1-0.6s-0.2-0.2-0.4-0.2c-0.1,0-0.2,0-0.3,0.1c-0.1,0-0.1,0.1-0.2,0.2
		c0,0.1-0.1,0.2-0.1,0.2c0,0.1,0,0.2,0,0.3c0,0.2,0.1,0.4,0.2,0.5C12.8,44,12.9,44,13.1,44z"/>
	<path class="st0" d="M15.2,41.9H16v0.4h0c0.1-0.2,0.2-0.3,0.3-0.4c0.1-0.1,0.3-0.1,0.4-0.1c0.1,0,0.1,0,0.2,0v0.7h0
		c-0.3,0-0.5,0-0.7,0.1c-0.2,0.1-0.2,0.3-0.2,0.6v1.2h-0.9V41.9z"/>
	<path class="st0" d="M17.6,40.8h0.9v0.7h-0.9V40.8z M17.6,41.9h0.9v2.7h-0.9V41.9z"/>
	<path class="st0" d="M19.2,40.8h0.9v3.8h-0.9V40.8z"/>
	<path class="st0" d="M21.9,42.9h1.5v0.7h-1.5V42.9z"/>
	<path class="st0" d="M26,42.3h-0.8v-0.6c0.3,0,0.5-0.1,0.7-0.2c0.2-0.1,0.3-0.3,0.3-0.6h0.7v3.7H26V42.3z"/>
	<path class="st0" d="M29.2,44.7c-0.3,0-0.5,0-0.7-0.1s-0.4-0.1-0.5-0.3c-0.3-0.2-0.4-0.6-0.4-1h0.9c0,0.2,0.1,0.4,0.2,0.5
		C28.8,44,29,44,29.2,44c0.2,0,0.3,0,0.4-0.1c0.1-0.1,0.2-0.2,0.2-0.4c0-0.2-0.1-0.3-0.2-0.4c-0.1-0.1-0.3-0.1-0.5-0.1h-0.2v-0.6
		h0.2c0.2,0,0.3,0,0.4-0.1c0.1-0.1,0.2-0.2,0.2-0.3c0-0.1,0-0.2-0.1-0.3c-0.1-0.1-0.2-0.1-0.4-0.1c-0.2,0-0.4,0.1-0.4,0.2
		c-0.1,0.1-0.1,0.2-0.2,0.4h-0.9c0-0.2,0-0.3,0.1-0.5c0.1-0.2,0.2-0.3,0.3-0.4c0.1-0.1,0.3-0.2,0.5-0.3c0.2-0.1,0.4-0.1,0.6-0.1
		c0.2,0,0.4,0,0.6,0.1c0.2,0,0.3,0.1,0.4,0.2c0.1,0.1,0.2,0.2,0.3,0.3c0.1,0.1,0.1,0.3,0.1,0.4c0,0.2-0.1,0.3-0.2,0.5
		c-0.1,0.1-0.2,0.2-0.4,0.3v0c0.2,0.1,0.4,0.2,0.5,0.3c0.1,0.1,0.2,0.3,0.2,0.6c0,0.2,0,0.4-0.1,0.5c-0.1,0.1-0.2,0.3-0.3,0.4
		c-0.1,0.1-0.3,0.2-0.5,0.2C29.6,44.7,29.4,44.7,29.2,44.7z"/>
	<path class="st0" d="M32.6,40.8h1.3l0.5,1.7c0,0.1,0,0.1,0.1,0.2c0,0.1,0,0.2,0.1,0.3c0,0.1,0.1,0.2,0.1,0.3h0
		c0-0.1,0.1-0.2,0.1-0.3c0-0.1,0-0.2,0.1-0.3c0-0.1,0-0.2,0.1-0.2l0.5-1.7h1.3v3.8h-0.9v-1.9c0,0,0-0.1,0-0.2s0-0.2,0-0.3
		c0-0.1,0-0.2,0-0.3h0c0,0.1-0.1,0.2-0.1,0.3c0,0.1,0,0.2-0.1,0.2c0,0.1,0,0.1,0,0.2l-0.6,2h-0.8l-0.6-2c0,0,0-0.1-0.1-0.2
		c0-0.1,0-0.2-0.1-0.2c0-0.1,0-0.2-0.1-0.3h0c0,0.1,0,0.2,0,0.3c0,0.1,0,0.2,0,0.3c0,0.1,0,0.1,0,0.2v1.9h-0.9V40.8z"/>
	<path class="st0" d="M38.2,44.7c-0.1,0-0.3,0-0.4-0.1c-0.1,0-0.2-0.1-0.3-0.2c-0.1-0.1-0.2-0.2-0.2-0.3c0-0.1-0.1-0.2-0.1-0.4
		c0-0.1,0-0.3,0.1-0.4c0.1-0.1,0.1-0.2,0.2-0.2c0.1-0.1,0.2-0.1,0.3-0.2c0.1,0,0.3-0.1,0.4-0.1c0.3,0,0.5-0.1,0.6-0.1
		c0.1,0,0.2-0.1,0.2-0.2c0-0.1,0-0.2-0.1-0.2c-0.1-0.1-0.2-0.1-0.3-0.1c-0.1,0-0.3,0-0.3,0.1c-0.1,0.1-0.1,0.1-0.1,0.3h-0.8
		c0-0.1,0-0.2,0.1-0.4c0.1-0.1,0.1-0.2,0.2-0.3c0.1-0.1,0.2-0.2,0.4-0.2s0.3-0.1,0.6-0.1c0.2,0,0.4,0,0.5,0.1c0.1,0,0.3,0.1,0.4,0.2
		c0.1,0.1,0.2,0.2,0.3,0.3c0.1,0.1,0.1,0.3,0.1,0.5v1.4c0,0.1,0,0.2,0,0.3c0,0.1,0,0.1,0.1,0.1v0h-0.9c0,0,0-0.1-0.1-0.1
		c0-0.1,0-0.1,0-0.2h0c-0.1,0.1-0.2,0.2-0.3,0.3C38.6,44.7,38.5,44.7,38.2,44.7z M38.5,44.1c0.2,0,0.3,0,0.4-0.1s0.2-0.2,0.2-0.4
		v-0.3c-0.1,0-0.1,0.1-0.2,0.1c-0.1,0-0.2,0-0.3,0.1c-0.2,0-0.3,0.1-0.4,0.1c-0.1,0.1-0.1,0.1-0.1,0.2c0,0.1,0,0.2,0.1,0.2
		C38.3,44.1,38.4,44.1,38.5,44.1z"/>
	<path class="st0" d="M40.7,44.8H41c0.1,0,0.2,0,0.3-0.1c0.1,0,0.1-0.1,0.1-0.2c0-0.1,0-0.1,0-0.2c0-0.1-0.1-0.2-0.1-0.3l-0.8-2.1h1
		l0.4,1.2c0,0.1,0,0.1,0.1,0.2c0,0.1,0,0.1,0.1,0.2c0,0.1,0,0.1,0.1,0.2h0c0-0.1,0-0.1,0-0.2c0-0.1,0-0.1,0.1-0.2
		c0-0.1,0-0.1,0.1-0.2l0.4-1.2h0.9l-1,2.8c-0.1,0.2-0.1,0.3-0.2,0.4c-0.1,0.1-0.1,0.2-0.2,0.3c-0.1,0.1-0.2,0.1-0.3,0.1
		c-0.1,0-0.2,0-0.4,0h-0.6V44.8z"/>
	<path class="st0" d="M44.4,44.2c0-0.1,0.1-0.2,0.1-0.3c0.1-0.1,0.1-0.2,0.2-0.3c0.1-0.1,0.2-0.2,0.3-0.2c0.2-0.1,0.4-0.3,0.6-0.4
		c0.2-0.1,0.4-0.3,0.5-0.4c0.1-0.1,0.1-0.1,0.2-0.2c0-0.1,0.1-0.2,0.1-0.2c0-0.1,0-0.3-0.1-0.3c-0.1-0.1-0.2-0.1-0.4-0.1
		c-0.2,0-0.3,0.1-0.4,0.2c-0.1,0.1-0.1,0.1-0.1,0.2c0,0.1,0,0.2,0,0.3h-0.9c0-0.2,0-0.4,0.1-0.5c0-0.1,0.1-0.3,0.2-0.4
		c0.1-0.1,0.3-0.3,0.5-0.4c0.2-0.1,0.5-0.1,0.8-0.1c0.2,0,0.4,0,0.6,0.1c0.2,0.1,0.3,0.1,0.4,0.2c0.1,0.1,0.2,0.2,0.3,0.4
		c0.1,0.1,0.1,0.3,0.1,0.5c0,0.1,0,0.2,0,0.3c0,0.1-0.1,0.2-0.1,0.3c-0.1,0.1-0.1,0.2-0.2,0.2c-0.1,0.1-0.2,0.1-0.2,0.2
		c-0.1,0.1-0.2,0.1-0.3,0.2c-0.1,0.1-0.2,0.1-0.3,0.2c-0.1,0.1-0.2,0.1-0.3,0.2c-0.1,0.1-0.2,0.1-0.2,0.2v0h1.7v0.7h-3
		C44.3,44.5,44.4,44.3,44.4,44.2z"/>
	<path class="st0" d="M49.3,44.7c-0.2,0-0.5,0-0.7-0.1c-0.2-0.1-0.4-0.2-0.5-0.4c-0.1-0.2-0.3-0.4-0.3-0.6c-0.1-0.2-0.1-0.5-0.1-0.8
		c0-0.3,0-0.6,0.1-0.8c0.1-0.2,0.2-0.4,0.3-0.6c0.1-0.2,0.3-0.3,0.5-0.4c0.2-0.1,0.4-0.1,0.7-0.1c0.3,0,0.5,0,0.7,0.1
		c0.2,0.1,0.4,0.2,0.5,0.4c0.1,0.2,0.3,0.4,0.3,0.6c0.1,0.2,0.1,0.5,0.1,0.8c0,0.3,0,0.6-0.1,0.8c-0.1,0.2-0.2,0.4-0.3,0.6
		c-0.1,0.2-0.3,0.3-0.5,0.4C49.7,44.7,49.5,44.7,49.3,44.7z M49.3,44c0.1,0,0.2,0,0.3-0.1c0.1-0.1,0.2-0.1,0.2-0.2
		c0.1-0.1,0.1-0.2,0.1-0.4c0-0.1,0-0.3,0-0.5c0-0.2,0-0.3,0-0.5c0-0.1-0.1-0.3-0.1-0.4c-0.1-0.1-0.1-0.2-0.2-0.2s-0.2-0.1-0.3-0.1
		c-0.1,0-0.2,0-0.3,0.1c-0.1,0.1-0.2,0.1-0.2,0.2c-0.1,0.1-0.1,0.2-0.1,0.4c0,0.1,0,0.3,0,0.5c0,0.2,0,0.3,0,0.5
		c0,0.1,0.1,0.3,0.1,0.4c0.1,0.1,0.1,0.2,0.2,0.2C49,44,49.1,44,49.3,44z"/>
	<path class="st0" d="M51.3,44.2c0-0.1,0.1-0.2,0.1-0.3c0.1-0.1,0.1-0.2,0.2-0.3c0.1-0.1,0.2-0.2,0.3-0.2c0.2-0.1,0.4-0.3,0.6-0.4
		c0.2-0.1,0.4-0.3,0.5-0.4c0.1-0.1,0.1-0.1,0.2-0.2c0-0.1,0.1-0.2,0.1-0.2c0-0.1,0-0.3-0.1-0.3c-0.1-0.1-0.2-0.1-0.4-0.1
		c-0.2,0-0.3,0.1-0.4,0.2c-0.1,0.1-0.1,0.1-0.1,0.2c0,0.1,0,0.2,0,0.3h-0.9c0-0.2,0-0.4,0.1-0.5s0.1-0.3,0.2-0.4
		c0.1-0.1,0.3-0.3,0.5-0.4c0.2-0.1,0.5-0.1,0.8-0.1c0.2,0,0.4,0,0.6,0.1c0.2,0.1,0.3,0.1,0.4,0.2c0.1,0.1,0.2,0.2,0.3,0.4
		c0.1,0.1,0.1,0.3,0.1,0.5c0,0.1,0,0.2,0,0.3c0,0.1-0.1,0.2-0.1,0.3c-0.1,0.1-0.1,0.2-0.2,0.2c-0.1,0.1-0.2,0.1-0.2,0.2
		c-0.1,0.1-0.2,0.1-0.3,0.2s-0.2,0.1-0.3,0.2c-0.1,0.1-0.2,0.1-0.3,0.2c-0.1,0.1-0.2,0.1-0.2,0.2v0h1.7v0.7h-3
		C51.2,44.5,51.2,44.3,51.3,44.2z"/>
	<path class="st0" d="M56.1,44.7c-0.2,0-0.5,0-0.7-0.1c-0.2-0.1-0.4-0.2-0.5-0.4c-0.1-0.2-0.3-0.4-0.3-0.6c-0.1-0.2-0.1-0.5-0.1-0.8
		c0-0.3,0-0.6,0.1-0.8c0.1-0.2,0.2-0.4,0.3-0.6c0.1-0.2,0.3-0.3,0.5-0.4c0.2-0.1,0.4-0.1,0.7-0.1c0.3,0,0.5,0,0.7,0.1
		c0.2,0.1,0.4,0.2,0.5,0.4c0.1,0.2,0.3,0.4,0.3,0.6c0.1,0.2,0.1,0.5,0.1,0.8c0,0.3,0,0.6-0.1,0.8c-0.1,0.2-0.2,0.4-0.3,0.6
		c-0.1,0.2-0.3,0.3-0.5,0.4C56.6,44.7,56.4,44.7,56.1,44.7z M56.1,44c0.1,0,0.2,0,0.3-0.1c0.1-0.1,0.2-0.1,0.2-0.2
		c0.1-0.1,0.1-0.2,0.1-0.4c0-0.1,0-0.3,0-0.5c0-0.2,0-0.3,0-0.5c0-0.1-0.1-0.3-0.1-0.4c-0.1-0.1-0.1-0.2-0.2-0.2s-0.2-0.1-0.3-0.1
		c-0.1,0-0.2,0-0.3,0.1c-0.1,0.1-0.2,0.1-0.2,0.2c-0.1,0.1-0.1,0.2-0.1,0.4c0,0.1,0,0.3,0,0.5c0,0.2,0,0.3,0,0.5
		c0,0.1,0.1,0.3,0.1,0.4c0.1,0.1,0.1,0.2,0.2,0.2C55.9,44,56,44,56.1,44z"/>
</g>
</svg>
