<?xml version="1.0" encoding="utf-8"?>
<!-- Generator: Adobe Illustrator 24.3.0, SVG Export Plug-In . SVG Version: 6.00 Build 0)  -->
<svg version="1.1" id="Laag_1" xmlns="http://www.w3.org/2000/svg" xmlns:xlink="http://www.w3.org/1999/xlink" x="0px" y="0px"
	 width="433.2px" height="39px" viewBox="0 0 433.2 39" style="enable-background:new 0 0 433.2 39;" xml:space="preserve">
<style type="text/css">
	.st0{fill:#DC7B62;}
</style>
<g>
	<path class="st0" d="M0,13L1.8,2.3L26.9,0l1.4,1.1l-0.8,8.7l-1,0.2c-2.5-2.5-5.9-3.3-8.5-3.4l0.2,25.4l-8.8,2.6L9,34.3l1.2-4.9
		l1.6-22.5C7.4,7.1,3.4,9.8,0.8,13.2L0,13z"/>
	<path class="st0" d="M28.8,22l7.3-16.5l12.8-0.9l7,10.6v1.3l-6.2,14.8l-13.1,1.8L28.8,22z M40.5,26.8l2.9,0.5l6-11.4
		c-1.9-2.5-4.2-4.3-6.9-5.4c-2.6,2.6-5,5.8-7.2,9.5L40.5,26.8z"/>
	<path class="st0" d="M78.3,31.5l1-14.4l-2.2-2.7l-3.8,3.5l-1.2-1.5v-0.5l4.7-3.6l3.7-4.5l5.3-1l1.3,1.1l-0.7,22.3l-7.2,2L78.3,31.5
		z"/>
	<path class="st0" d="M96.6,35.5L108,14.2l-0.5-1.5c-6.2-0.4-10.8,2.5-14.3,7.5L92.1,20l1.6-10.2l1.4-1.3L115.3,7l0.6,1.3
		c-5.1,7.2-8.3,14.9-6.3,22.4l-0.1,0.8c-2.8,0.8-8.3,1.8-11.4,4.5L96.6,35.5z"/>
	<path class="st0" d="M132.6,19.2l9.9-16.5l15.4-1.6l7.4,15.6l-8.7,15.3l-15.2,1.2L132.6,19.2z M146.7,27.8l3.7,0.6l7.4-11.5
		l-5.5-9.3L149.7,7l-9.2,12.2L146.7,27.8z"/>
	<path class="st0" d="M167.1,20.2l5.5-13.5l15.9-1.2l0.6,1l-2.7,8.1l-1.2,0.1c-2-1.3-4.3-2.3-7.6-2.7l-2.8,7.6
		c1.1,2.9,2.4,5.4,4.1,7.4h0.8c4.7-2.4,7.3-5.8,9.5-9.2l1.2,0.3l-1.8,11.6L173,32.6L167.1,20.2z"/>
	<path class="st0" d="M195.4,3.8l7.4-3.1l0.9,0.7c-0.6,2.4-1.1,5.4-1.4,8.7l0.3,0.1l8.1-4.1l0.4,0.4l-3.1,11.2l-0.8,0.1l-4.9-2.1
		l-0.3,0c-0.1,5.2,0.2,10.5,1.2,14.3l-0.4,1.6l-8.4,0.6L195.4,3.8z"/>
	<path class="st0" d="M211.4,22l7.2-16.5l12.8-0.9l7,10.6v1.3l-6.2,14.8l-13.1,1.8L211.4,22z M223.1,26.8l2.9,0.5l6-11.4
		c-1.9-2.5-4.2-4.3-6.9-5.4c-2.6,2.6-5,5.8-7.2,9.5L223.1,26.8z"/>
	<path class="st0" d="M241.4,1.7l8.7-1.6l0.4,0.3l-1.8,7.1l1.1,1l5-3.8h0.7l7.8,10.4L258,30.4l-17,2.5l-0.7-0.5
		C242.4,21.9,242.6,11.5,241.4,1.7z M248.8,25.9l1.6,0.2l5.8-4.6c0.6-2.7,0.9-5.4,0.9-8.1c-2.8-1.9-5.9-1.7-9-0.8L248.8,25.9z"/>
	<path class="st0" d="M265.3,18L273,5l11.3-0.9l6.1,12.8l-0.7,1.8l-16.3,0.8l-0.2,0.8l5.3,6.6l10.4-5.2l0.5,0.8l-3.2,8.4l-14.1,1.8
		L265.3,18z M272.8,15.3l11.1-0.8L284,14l-4.8-5.6l-0.5,0l-6,6.7L272.8,15.3z"/>
	<path class="st0" d="M294.2,7.1l7.5-2.3l1.1,0.9l-0.2,4.8l0.4-0.1l4.5-5.5l0.9-0.1l4.2,5.5c-0.9,3.1-2.2,6-4,8.7l-1.2-0.1
		c0.1-2.7-0.7-4.7-3.8-5.1l-1.7,0.7c-0.5,4.7-0.1,10.4,0.7,16.6l-8.5,1.4l-0.8-0.9C294.9,22,295.9,13.2,294.2,7.1z"/>
</g>
</svg>
