<?xml version="1.0" encoding="utf-8"?>
<!-- Generator: Adobe Illustrator 24.0.0, SVG Export Plug-In . SVG Version: 6.00 Build 0)  -->
<svg version="1.1" id="Laag_1" xmlns="http://www.w3.org/2000/svg" xmlns:xlink="http://www.w3.org/1999/xlink" x="0px" y="0px"
	 width="161.6px" height="13.9px" viewBox="0 0 161.6 13.9" style="enable-background:new 0 0 161.6 13.9;" xml:space="preserve">
<style type="text/css">
	.st0{fill:#3D2B77;}
</style>
<g>
	<path class="st0" d="M0.7,0.9h8.8v1.6H2.7v2.4h6.7v1.5H2.7v4.2h-2C0.7,10.6,0.7,0.9,0.7,0.9z"/>
	<path class="st0" d="M18.9,10.5h-2.2L17,7.7h-0.1c-0.3,1.8-1.3,3.1-3.4,3.1c-2,0-2.9-1.1-2.9-4.1v-3h2v2.8c0,2.1,0.6,2.9,1.9,2.9
		C16,9.3,17,7.8,17,5.5V3.6h2v6.9H18.9z"/>
	<path class="st0" d="M20.7,10.2V8.6c1.2,0.4,2.2,0.7,3.4,0.7c1.7,0,2.4-0.2,2.4-0.8c0-1.3-6.2,0.2-6.2-2.8c0-1.6,1.6-2.3,4.1-2.3
		c0.8,0,2.3,0.2,3.5,0.4v1.6c-1-0.2-2.2-0.4-3.3-0.4c-1.6,0-2.3,0.2-2.3,0.7c0,1.3,6.1-0.2,6.1,2.8c0,1.6-1.6,2.3-4.1,2.3
		C23.3,10.8,21.8,10.6,20.7,10.2z"/>
	<path class="st0" d="M29.6,7.1c0-2.2,1.7-3.7,4.2-3.7s4.1,1.3,4.2,3.1v1.1h-6.4c0.2,1.1,1.1,1.6,2.9,1.6c1.7,0,2.4-0.4,3.2-0.8V10
		c-1.3,0.5-2.1,0.7-3.9,0.7C31.2,10.8,29.6,9.3,29.6,7.1z M36,6.6c0-1-1-1.7-2.3-1.7c-1.2,0-2.1,0.7-2.2,1.8L36,6.6z"/>
	<path class="st0" d="M43.5,0.9h2v8h6.8v1.7h-8.7L43.5,0.9L43.5,0.9z"/>
	<path class="st0" d="M53.3,1.3c0-0.7,0.5-1.1,1.2-1.1s1.2,0.4,1.2,1.1c0,0.8-0.5,1.1-1.2,1.1S53.3,2.1,53.3,1.3z M53.6,3.6h2v6.9
		h-2V3.6z"/>
	<path class="st0" d="M56.8,3.6h2.1l2.9,5.5l2.9-5.5h2.1l-3.7,6.9h-2.7L56.8,3.6z"/>
	<path class="st0" d="M67.7,7.1c0-2.2,1.7-3.7,4.2-3.7s4.1,1.3,4.2,3.1v1.1h-6.4c0.2,1.1,1.1,1.6,2.9,1.6c1.7,0,2.4-0.4,3.2-0.8V10
		c-1.3,0.5-2.1,0.7-3.9,0.7C69.4,10.8,67.7,9.3,67.7,7.1z M74.2,6.6c0-1-1-1.7-2.3-1.7c-1.2,0-2.1,0.7-2.2,1.8L74.2,6.6z"/>
</g>
</svg>
