<?xml version="1.0" encoding="utf-8"?>
<!-- Generator: Adobe Illustrator 24.0.0, SVG Export Plug-In . SVG Version: 6.00 Build 0)  -->
<svg version="1.1" id="Laag_1" xmlns="http://www.w3.org/2000/svg" xmlns:xlink="http://www.w3.org/1999/xlink" x="0px" y="0px"
	 width="113px" height="57.2px" viewBox="0 0 113 57.2" style="enable-background:new 0 0 113 57.2;" xml:space="preserve">
<style type="text/css">
	.st0{fill:#FFFFFF;}
</style>
<g>
	<path class="st0" d="M0.9,0.6h11.1V4H4.8v2.4h6.6v3.2H4.8v5H0.9V0.6z"/>
	<path class="st0" d="M13.6,0h3.9v2.8h-3.9V0z M13.7,3.8h3.8v10.7h-3.8V3.8z"/>
	<path class="st0" d="M19.6,3.8h3.8v1.5C24,4.4,25,3.5,26.6,3.5c2.3,0,3.7,1.5,3.7,4v7h-3.8V8.7c0-1.2-0.6-1.8-1.5-1.8
		s-1.6,0.6-1.6,1.8v5.8h-3.8V3.8z"/>
	<path class="st0" d="M31.7,11.4L31.7,11.4c0-2.3,1.7-3.4,4.2-3.4c1,0,2,0.2,2.6,0.4V8.2c0-1.1-0.7-1.8-2.1-1.8c-1.1,0-2,0.2-3,0.6
		l-0.8-2.6c1.2-0.5,2.5-0.8,4.3-0.8c1.9,0,3.2,0.5,4.1,1.3c0.8,0.8,1.2,1.9,1.2,3.4v6.2h-3.7v-1.1c-0.8,0.8-1.8,1.4-3.2,1.4
		C33.2,14.7,31.7,13.5,31.7,11.4z M38.5,10.6v-0.5c-0.4-0.2-0.9-0.3-1.5-0.3c-1.1,0-1.7,0.5-1.7,1.3v0c0,0.7,0.6,1.2,1.3,1.2
		C37.7,12.4,38.5,11.7,38.5,10.6z"/>
	<path class="st0" d="M44.2,0h3.8v14.5h-3.8V0z"/>
	<path class="st0" d="M50,3.8h3.8v1.5c0.7-0.9,1.7-1.7,3.2-1.7c1.4,0,2.5,0.6,3.1,1.7c0.9-1.1,2-1.7,3.6-1.7c2.3,0,3.7,1.4,3.7,3.9
		v7h-3.8V8.7c0-1.2-0.6-1.8-1.5-1.8c-0.9,0-1.5,0.6-1.5,1.8v5.8h-3.8V8.7c0-1.2-0.6-1.8-1.5-1.8c-0.9,0-1.5,0.6-1.5,1.8v5.8H50V3.8z
		"/>
	<path class="st0" d="M68.9,9.2L68.9,9.2c0-3.2,2.2-5.7,5.4-5.7c3.7,0,5.4,2.7,5.4,5.9c0,0.2,0,0.5,0,0.8h-7.2
		c0.3,1.2,1.2,1.8,2.3,1.8c0.9,0,1.6-0.3,2.4-1.1l2.1,1.7c-1,1.3-2.5,2.2-4.6,2.2C71.3,14.8,68.9,12.5,68.9,9.2z M76.2,8.2
		c-0.1-1.2-0.9-1.9-1.9-1.9c-1,0-1.7,0.8-1.9,1.9H76.2z"/>
	<path class="st0" d="M81.4,3.8h3.8v1.5c0.7-0.9,1.7-1.7,3.2-1.7c2.3,0,3.7,1.5,3.7,4v7h-3.8V8.7c0-1.2-0.6-1.8-1.5-1.8
		s-1.6,0.6-1.6,1.8v5.8h-3.8V3.8z"/>
	<path class="st0" d="M94.6,11.2V6.8h-1.3v-3h1.3V1h3.8v2.7h2.5v3h-2.5v3.7c0,0.8,0.3,1.1,1,1.1c0.5,0,1-0.1,1.4-0.4v2.9
		c-0.7,0.4-1.6,0.6-2.6,0.6C96,14.7,94.6,13.7,94.6,11.2z"/>
	<path class="st0" d="M101.8,9.2L101.8,9.2c0-3.2,2.2-5.7,5.4-5.7c3.7,0,5.4,2.7,5.4,5.9c0,0.2,0,0.5,0,0.8h-7.2
		c0.3,1.2,1.2,1.8,2.3,1.8c0.9,0,1.6-0.3,2.4-1.1l2.1,1.7c-1,1.3-2.5,2.2-4.6,2.2C104.2,14.8,101.8,12.5,101.8,9.2z M109.1,8.2
		c-0.1-1.2-0.9-1.9-1.9-1.9c-1,0-1.7,0.8-1.9,1.9H109.1z"/>
</g>
<g>
	<path class="st0" d="M-0.1,33.7l1.4-2.3c1.2,0.8,2.6,1.2,3.7,1.2c0.7,0,1-0.2,1-0.6v0c0-0.4-0.6-0.6-1.7-0.9
		c-2.1-0.6-3.8-1.3-3.8-3.4v0c0-2.3,1.8-3.6,4.3-3.6c1.6,0,3.2,0.5,4.4,1.3l-1.3,2.4c-1.1-0.6-2.3-1-3.2-1c-0.6,0-0.9,0.2-0.9,0.5v0
		c0,0.4,0.6,0.6,1.7,1c2.1,0.6,3.8,1.3,3.8,3.4v0c0,2.4-1.8,3.6-4.4,3.6C3.2,35.3,1.4,34.8-0.1,33.7z"/>
	<path class="st0" d="M10.5,29.8L10.5,29.8c0-3.2,2.2-5.7,5.4-5.7c3.7,0,5.4,2.7,5.4,5.9c0,0.2,0,0.5,0,0.8h-7.2
		c0.3,1.2,1.2,1.8,2.3,1.8c0.9,0,1.6-0.3,2.4-1.1l2.1,1.7c-1,1.3-2.5,2.2-4.6,2.2C12.9,35.4,10.5,33.1,10.5,29.8z M17.8,28.9
		c-0.1-1.2-0.9-1.9-1.9-1.9c-1,0-1.7,0.8-1.9,1.9H17.8z"/>
	<path class="st0" d="M23,24.4h3.8v1.5c0.7-0.9,1.7-1.7,3.2-1.7c2.3,0,3.7,1.5,3.7,4v7h-3.8v-5.8c0-1.2-0.6-1.8-1.5-1.8
		c-0.9,0-1.6,0.6-1.6,1.8v5.8H23V24.4z"/>
	<path class="st0" d="M35.2,32.6l4.9-5.3h-4.8v-3h9.8v2.5l-5,5.3h5v3h-9.9V32.6z"/>
	<path class="st0" d="M46.2,32L46.2,32c0-2.3,1.7-3.4,4.2-3.4c1,0,2,0.2,2.6,0.4v-0.2c0-1.1-0.7-1.8-2.1-1.8c-1.1,0-2,0.2-3,0.6
		L47.1,25c1.2-0.5,2.5-0.8,4.3-0.8c1.9,0,3.2,0.5,4.1,1.3c0.8,0.8,1.2,1.9,1.2,3.4v6.2H53V34c-0.8,0.8-1.8,1.4-3.2,1.4
		C47.8,35.3,46.2,34.2,46.2,32z M53,31.2v-0.5c-0.4-0.2-0.9-0.3-1.5-0.3c-1.1,0-1.7,0.5-1.7,1.3v0c0,0.7,0.6,1.2,1.3,1.2
		C52.3,33,53,32.3,53,31.2z"/>
</g>
<g>
	<path class="st0" d="M0.3,50.4L0.3,50.4c0-3.1,2.3-5.6,5.7-5.6c2.2,0,3.7,1,4.6,2.4l-2.5,1.9c-0.5-0.7-1.1-1.1-2-1.1
		C4.8,47.9,4,49,4,50.3v0c0,1.4,0.9,2.4,2.1,2.4c0.9,0,1.5-0.4,2.1-1.1l2.5,1.8C9.7,55,8.3,56,5.9,56C2.7,56,0.3,53.4,0.3,50.4z"/>
	<path class="st0" d="M11.3,50.4L11.3,50.4c0-3.1,2.5-5.7,5.9-5.7c3.4,0,5.9,2.5,5.9,5.6v0c0,3.1-2.5,5.6-6,5.6
		C13.8,56,11.3,53.5,11.3,50.4z M19.5,50.4L19.5,50.4c0-1.4-1-2.5-2.3-2.5c-1.4,0-2.2,1.1-2.2,2.4v0c0,1.3,1,2.4,2.3,2.4
		C18.6,52.8,19.5,51.7,19.5,50.4z"/>
	<path class="st0" d="M24.4,50.4L24.4,50.4c0-3.5,2.2-5.7,4.7-5.7c1.6,0,2.6,0.7,3.3,1.5v-5.1h3.8v14.5h-3.8v-1.4
		c-0.7,0.9-1.6,1.7-3.3,1.7C26.6,56,24.4,53.8,24.4,50.4z M32.5,50.4L32.5,50.4c0-1.4-1-2.5-2.2-2.5c-1.2,0-2.2,1-2.2,2.4v0
		c0,1.4,1,2.4,2.2,2.4C31.5,52.8,32.5,51.8,32.5,50.4z"/>
	<path class="st0" d="M37.8,50.4L37.8,50.4c0-3.2,2.2-5.7,5.4-5.7c3.7,0,5.4,2.7,5.4,5.9c0,0.2,0,0.5,0,0.8h-7.2
		c0.3,1.2,1.2,1.8,2.3,1.8c0.9,0,1.6-0.3,2.4-1.1l2.1,1.7c-1,1.3-2.5,2.2-4.6,2.2C40.2,56,37.8,53.7,37.8,50.4z M45.1,49.5
		c-0.1-1.2-0.9-1.9-1.9-1.9c-1,0-1.7,0.8-1.9,1.9H45.1z"/>
</g>
</svg>
