<?xml version="1.0" encoding="utf-8"?>
<!-- Generator: Adobe Illustrator 23.0.2, SVG Export Plug-In . SVG Version: 6.00 Build 0)  -->
<svg version="1.1" id="Laag_1" xmlns="http://www.w3.org/2000/svg" xmlns:xlink="http://www.w3.org/1999/xlink" x="0px" y="0px"
	 width="193.6px" height="95.6px" viewBox="0 0 193.6 95.6" style="enable-background:new 0 0 193.6 95.6;" xml:space="preserve">
<style type="text/css">
	.st0{fill:#FFFFFF;}
</style>
<g>
	<path class="st0" d="M19,81.1h-1.7L4.8,49.4H1.9v-1.8h12.3v1.8H9.5l9.6,24.3l9.5-24.3h-3.3v-1.8h8.5v1.8h-2.5L19,81.1z"/>
	<path class="st0" d="M32.4,69.1c0-6.5,4.9-11.8,10.8-11.8c6,0,10.8,5.3,10.8,11.8s-4.9,11.8-10.8,11.8
		C37.2,80.9,32.4,75.6,32.4,69.1z M36.7,69.1c0,5.4,2.9,9.8,6.6,9.8c3.7,0,6.6-4.3,6.6-9.8c0-5.5-2.9-9.8-6.6-9.8
		C39.5,59.3,36.7,63.6,36.7,69.1z"/>
	<path class="st0" d="M76.6,80.3H57.2v-1.8l14.4-18.3H60.1l-0.6,4.2h-2.1l1-7.4h2.1l-0.1,1h16.4v1.5L62.2,78h12.3v-3.8l2.1,0V80.3z"
		/>
	<path class="st0" d="M100,59.7h-2.1l-8.4,21.7c-1.1,3-3,6.5-4.6,8.9c-0.4,0.6-1.1,1.5-2,2.7l-3.2-3.3c2.7-1.5,3.7-2.3,5.2-4.3
		c1.4-1.8,2-3,3.2-6l-8-19.6h-2.1v-1.8h9.6v1.8h-3.5l6,14.6l5.5-14.6h-3.3v-1.8h7.6V59.7z"/>
	<path class="st0" d="M121.2,79.3l-3.3,1c-0.6,0.2-1.3,0.3-1.7,0.3c-1.5,0-2.4-1.1-2.4-2.9c0-0.1,0-0.3,0-0.5
		c-2.1,2.6-4,3.6-6.6,3.6c-3.4,0-5.9-2.4-5.9-5.7c0-2.5,1.6-4.6,4-5.1l8.5-1.9v-5.6c0-2-1.5-3.4-3.5-3.4c-1,0-1.6,0.1-3.1,0.8v2.4
		l-4.4,1.3c-0.3-0.6-0.4-0.8-0.4-1.4c0-2.9,3.3-5,7.8-5c4.4,0,7.2,2.2,7.2,5.4v15.2h3.8V79.3z M113.7,70.1l-8.5,2v2.5
		c0,2.1,1.3,3.4,3.4,3.4c1.6,0,2.9-0.7,5-2.6V70.1z"/>
	<path class="st0" d="M133.9,80.3h-11.2v-1.8h3.8V47h-4.4v-1.3l7.1-1.9h0.9v34.6h3.7V80.3z M146.9,80.3h-6.1l-10.1-12.2l8.9-8.4
		h-3.2v-1.8h9.8v1.8h-3.8l-7.7,7.3l9.5,11.4h2.8V80.3z"/>
	<path class="st0" d="M148.1,69.1c0-6.5,4.9-11.8,10.8-11.8c6,0,10.8,5.3,10.8,11.8s-4.9,11.8-10.8,11.8
		C152.9,80.9,148.1,75.6,148.1,69.1z M152.3,69.1c0,5.4,2.9,9.8,6.6,9.8c3.7,0,6.6-4.3,6.6-9.8c0-5.5-2.9-9.8-6.6-9.8
		C155.2,59.3,152.3,63.6,152.3,69.1z"/>
	<path class="st0" d="M192.9,59.7h-2.1l-8.1,21.2h-1l-8.7-21.2l-2.1,0v-1.8h9.6v1.8h-3.5l5.9,14.6l5.5-14.6h-3.3v-1.8h7.6V59.7z"/>
</g>
<g>
	<path class="st0" d="M29.1,36.4c-4.2,1.5-6.9,2.1-10.4,2.1C8.5,38.5,1,31.4,1,21.6c0-9.6,7.5-17,17.1-17c3.2,0,5.8,0.5,8.6,1.8V4.2
		H29v8.4h-2.3v-2.4c-3-2.2-5.2-3.1-8.4-3.1c-7.3,0-12.4,5.8-12.4,14.2c0,8.2,5.7,14.6,13.1,14.6c2.5,0,4.5-0.6,7.7-2.5v-3.6h2.4
		V36.4z"/>
	<path class="st0" d="M31.5,26.7c0-6.5,4.9-11.8,10.8-11.8c6,0,10.8,5.3,10.8,11.8s-4.9,11.8-10.8,11.8
		C36.3,38.5,31.5,33.2,31.5,26.7z M35.7,26.7c0,5.4,2.9,9.8,6.6,9.8c3.7,0,6.6-4.3,6.6-9.8s-2.9-9.8-6.6-9.8
		C38.6,16.9,35.7,21.2,35.7,26.7z"/>
	<path class="st0" d="M66.6,37.8H55.4V36h3.8V4.6h-4.4V3.3l7.1-1.9h0.9V36h3.7V37.8z"/>
	<path class="st0" d="M79.4,37.8H68.2V36h3.8V4.6h-4.4V3.3l7.1-1.9h0.9V36h3.7V37.8z"/>
	<path class="st0" d="M100.6,35.8c-3.7,2.1-5.4,2.7-8.3,2.7c-6.3,0-10.7-4.9-10.7-11.7c0-6.9,4.5-12,10.6-12c5.3,0,9,3.7,9,9v1.3
		H85.6v0.5c0,6.2,3.3,10.5,8,10.5c2,0,3.3-0.5,6.1-2.3L100.6,35.8z M97.2,23.2V22c0-3-2-5.1-4.9-5.1c-3.6,0-6.1,2.4-6.6,6.3H97.2z"
		/>
	<path class="st0" d="M122.9,36.1c-3.3,1.9-4.6,2.4-7.7,2.4c-6.9,0-11.3-4.5-11.3-11.4c0-7.2,5-12.2,12.1-12.2c2.6,0,4,0.5,6.6,2.3
		l-2.7,3c-1.7-1.8-2.2-2.1-4.2-3.4c-2.7,0.2-3.8,0.7-5.4,2.7c-1.5,1.8-2.3,4-2.3,6.5c0,5.5,3.8,10.1,8.4,10.1c1.6,0,2.8-0.4,5.5-1.8
		L122.9,36.1z"/>
	<path class="st0" d="M137.9,35.8c-2.6,2.1-3.6,2.5-5.4,2.5c-2.9,0-4.6-1.8-4.6-4.8V18.2h-4.3v-1.3l4.3-1.1V8.9h3.6v7h6.1v2.3h-6.1
		V33c0,1.9,0.6,2.6,2.3,2.6c1,0,1.7-0.2,3.4-1.2L137.9,35.8z"/>
	<path class="st0" d="M150.3,37.8H139V36h3.8V18.2h-4.3v-1.3l7.1-1.9h0.9V36h3.8V37.8z M144.4,3.8c1.5,0,2.6,1.1,2.6,2.6
		c0,1.5-1.1,2.6-2.6,2.6c-1.4,0-2.6-1.1-2.6-2.6C141.9,5,143,3.8,144.4,3.8z"/>
	<path class="st0" d="M171.6,35.8c-3.7,2.1-5.4,2.7-8.3,2.7c-6.3,0-10.7-4.9-10.7-11.7c0-6.9,4.5-12,10.6-12c5.3,0,9,3.7,9,9v1.3
		h-15.6v0.5c0,6.2,3.3,10.5,8,10.5c2,0,3.3-0.5,6.1-2.3L171.6,35.8z M168.1,23.2V22c0-3-2-5.1-4.9-5.1c-3.6,0-6.1,2.4-6.6,6.3H168.1
		z"/>
</g>
</svg>
