<?xml version="1.0" encoding="utf-8"?>
<!-- Generator: Adobe Illustrator 24.3.0, SVG Export Plug-In . SVG Version: 6.00 Build 0)  -->
<svg version="1.1" id="Laag_1" xmlns="http://www.w3.org/2000/svg" xmlns:xlink="http://www.w3.org/1999/xlink" x="0px" y="0px"
	 width="307px" height="18.4px" viewBox="0 0 307 18.4" style="enable-background:new 0 0 307 18.4;" xml:space="preserve">
<style type="text/css">
	.st0{fill:#EBEEE2;}
</style>
<g>
	<g>
		<g>
			<g>
				<path class="st0" d="M217.1,14c-1,0-1.8-0.3-2.5-1c-0.7-0.7-1-1.6-1-2.6c0-1,0.3-1.9,1-2.6c0.7-0.7,1.5-1,2.5-1s1.8,0.3,2.5,1
					c0.7,0.7,1,1.6,1,2.6c0,1-0.3,1.9-1,2.6C219,13.7,218.1,14,217.1,14z M217.1,13.1c0.7,0,1.3-0.3,1.8-0.8
					c0.5-0.5,0.7-1.2,0.7-1.9c0-0.8-0.2-1.4-0.7-1.9c-0.5-0.5-1.1-0.8-1.8-0.8c-0.7,0-1.3,0.3-1.8,0.8c-0.5,0.5-0.7,1.2-0.7,1.9
					c0,0.8,0.2,1.4,0.7,1.9C215.8,12.9,216.4,13.1,217.1,13.1z"/>
				<path class="st0" d="M226.2,13.9l-0.6-1.8h-2.9l-0.6,1.8h-1l2.4-7h1.2l2.4,7H226.2z M223,11.3h2.3l-1.1-3.4h-0.1L223,11.3z"/>
				<path class="st0" d="M232.8,12.2c0,0.6-0.2,1.1-0.6,1.4c-0.4,0.3-1,0.5-1.7,0.5c-0.8,0-1.4-0.2-1.9-0.6c-0.4-0.4-0.7-1-0.7-1.6
					h0.9c0,0.4,0.2,0.8,0.4,1s0.7,0.4,1.2,0.4c0.4,0,0.7-0.1,1-0.3c0.3-0.2,0.4-0.4,0.4-0.8c0-0.3-0.1-0.6-0.4-0.8s-0.7-0.4-1.3-0.6
					c-0.7-0.2-1.2-0.5-1.5-0.8c-0.4-0.3-0.5-0.7-0.5-1.2c0-0.6,0.2-1.1,0.6-1.4s0.9-0.5,1.6-0.5c0.7,0,1.3,0.2,1.7,0.6
					c0.4,0.4,0.6,0.9,0.6,1.5h-0.9c0-0.3-0.2-0.6-0.4-0.9s-0.6-0.4-1.1-0.4c-0.4,0-0.7,0.1-0.9,0.3c-0.2,0.2-0.3,0.4-0.3,0.8
					c0,0.3,0.1,0.6,0.4,0.7c0.2,0.2,0.6,0.4,1.2,0.6c0.7,0.2,1.3,0.5,1.6,0.9C232.6,11.2,232.8,11.6,232.8,12.2z"/>
				<path class="st0" d="M235.1,13.1h3.6v0.9h-4.5v-7h4.4v0.9h-3.5v2.2h3.1v0.8h-3.1V13.1z"/>
				<path class="st0" d="M247.6,13.9h-1l-1.7-2.9h0h-1.4v2.9h-0.9v-7h2.4c0.7,0,1.3,0.2,1.7,0.6s0.6,0.9,0.6,1.5
					c0,0.5-0.1,0.9-0.4,1.2s-0.6,0.6-1.1,0.7L247.6,13.9z M243.5,7.7v2.5h1.4c0.5,0,0.8-0.1,1.1-0.3c0.3-0.2,0.4-0.5,0.4-0.9
					c0-0.4-0.1-0.7-0.4-0.9c-0.3-0.2-0.6-0.3-1.1-0.3H243.5z"/>
				<path class="st0" d="M251.8,14c-1,0-1.8-0.3-2.5-1c-0.7-0.7-1-1.6-1-2.6c0-1,0.3-1.9,1-2.6c0.7-0.7,1.5-1,2.5-1s1.8,0.3,2.5,1
					c0.7,0.7,1,1.6,1,2.6c0,1-0.3,1.9-1,2.6C253.6,13.7,252.8,14,251.8,14z M251.8,13.1c0.7,0,1.3-0.3,1.8-0.8
					c0.5-0.5,0.7-1.2,0.7-1.9c0-0.8-0.2-1.4-0.7-1.9c-0.5-0.5-1.1-0.8-1.8-0.8c-0.7,0-1.3,0.3-1.8,0.8c-0.5,0.5-0.7,1.2-0.7,1.9
					c0,0.8,0.2,1.4,0.7,1.9C250.5,12.9,251.1,13.1,251.8,13.1z"/>
				<path class="st0" d="M260.8,6.9v0.8h-2v6.2h-0.9V7.7h-2V6.9H260.8z"/>
				<path class="st0" d="M266.7,6.9v0.8h-2v6.2h-0.9V7.7h-2V6.9H266.7z"/>
				<path class="st0" d="M268.8,13.1h3.6v0.9h-4.5v-7h4.4v0.9h-3.5v2.2h3.1v0.8h-3.1V13.1z"/>
				<path class="st0" d="M278.5,13.9h-1l-1.7-2.9h0h-1.4v2.9h-0.9v-7h2.4c0.7,0,1.3,0.2,1.7,0.6s0.6,0.9,0.6,1.5
					c0,0.5-0.1,0.9-0.4,1.2s-0.6,0.6-1.1,0.7L278.5,13.9z M274.5,7.7v2.5h1.4c0.5,0,0.8-0.1,1.1-0.3c0.3-0.2,0.4-0.5,0.4-0.9
					c0-0.4-0.1-0.7-0.4-0.9c-0.3-0.2-0.6-0.3-1.1-0.3H274.5z"/>
				<path class="st0" d="M281.7,6.9c1.1,0,2,0.3,2.6,0.9c0.6,0.6,0.9,1.5,0.9,2.5c0,1.1-0.3,2-0.9,2.6s-1.5,1-2.6,1h-2.1v-7H281.7z
					 M281.7,13c0.9,0,1.5-0.2,1.9-0.7s0.6-1.1,0.6-2c0-0.8-0.2-1.4-0.7-1.9s-1.1-0.7-1.9-0.7h-1.1V13H281.7z"/>
				<path class="st0" d="M290.9,13.9l-0.6-1.8h-2.9l-0.6,1.8h-1l2.4-7h1.2l2.4,7H290.9z M287.7,11.3h2.3l-1.1-3.4h-0.1L287.7,11.3z"
					/>
				<path class="st0" d="M300,6.9v7h-0.9V8.3H299l-2.1,5.1h-1l-2.1-5.1h-0.1v5.7h-0.9v-7h1.3l2.2,5.3h0.1l2.2-5.3H300z"/>
			</g>
		</g>
		<g>
			<path class="st0" d="M206.4,15.6l-0.3-0.3c-0.4-0.4-3.5-3.9-3.5-5.9c0-2.1,1.7-3.8,3.8-3.8s3.8,1.7,3.8,3.8c0,2-3.2,5.5-3.5,5.9
				L206.4,15.6z M206.4,6.4c-1.7,0-3.1,1.4-3.1,3.1c0,1.3,2,3.9,3.1,5.1c1.1-1.2,3.1-3.8,3.1-5.1C209.4,7.8,208.1,6.4,206.4,6.4z"/>
			<path class="st0" d="M206.4,8.7c0.3,0,0.6,0.3,0.6,0.6c0,0.3-0.3,0.6-0.6,0.6s-0.6-0.3-0.6-0.6C205.8,9,206,8.7,206.4,8.7
				 M206.4,8c-0.7,0-1.3,0.6-1.3,1.3s0.6,1.3,1.3,1.3c0.7,0,1.3-0.6,1.3-1.3S207.1,8,206.4,8L206.4,8z"/>
		</g>
	</g>
	<g>
		<g>
			<path class="st0" d="M4.7,0h1v8.4H5L4.8,7.5H4.7c-0.4,0.6-1.1,1-1.9,1C2,8.5,1.4,8.2,0.9,7.6C0.4,7.1,0.1,6.3,0.1,5.4
				c0-0.9,0.3-1.6,0.8-2.2c0.5-0.6,1.2-0.8,1.9-0.8c0.9,0,1.5,0.3,1.8,1V0z M1.7,6.9C2,7.3,2.4,7.5,3,7.5c0.5,0,0.9-0.2,1.3-0.6
				C4.5,6.6,4.7,6,4.7,5.4c0-0.6-0.2-1.1-0.5-1.5S3.5,3.3,3,3.3c-0.5,0-1,0.2-1.3,0.6C1.3,4.3,1.2,4.8,1.2,5.4
				C1.2,6,1.3,6.5,1.7,6.9z"/>
			<path class="st0" d="M9.5,8.5c-0.9,0-1.6-0.3-2.1-0.9C6.8,7,6.5,6.3,6.5,5.4c0-0.9,0.3-1.6,0.8-2.2c0.6-0.6,1.3-0.9,2.1-0.9
				s1.6,0.3,2.1,0.9c0.6,0.6,0.8,1.3,0.8,2.2c0,0.9-0.3,1.6-0.8,2.2C11.1,8.2,10.3,8.5,9.5,8.5z M9.5,7.5c0.6,0,1-0.2,1.4-0.6
				c0.4-0.4,0.5-0.9,0.5-1.5c0-0.6-0.2-1.1-0.5-1.5C10.5,3.5,10,3.3,9.5,3.3c-0.6,0-1,0.2-1.4,0.6C7.7,4.3,7.6,4.8,7.6,5.4
				c0,0.6,0.2,1.1,0.5,1.5C8.4,7.3,8.9,7.5,9.5,7.5z"/>
			<path class="st0" d="M17,8.4V2.9h-1.5V2h0.7c0.6,0,0.9-0.3,0.9-0.8V0.8h1v7.5H17z"/>
			<path class="st0" d="M24.2,7.5c-0.5,0.7-1.2,1-2,1s-1.5-0.3-2-1c-0.5-0.7-0.8-1.6-0.8-2.9c0-1.3,0.3-2.2,0.8-2.9
				c0.5-0.7,1.2-1,2-1s1.5,0.3,2,1C24.7,2.4,25,3.3,25,4.6C25,5.9,24.7,6.8,24.2,7.5z M21.1,6.8c0.3,0.5,0.7,0.7,1.2,0.7
				c0.5,0,0.9-0.2,1.2-0.7c0.3-0.5,0.4-1.2,0.4-2.1s-0.1-1.7-0.4-2.2c-0.3-0.5-0.7-0.7-1.2-0.7c-0.5,0-0.9,0.2-1.2,0.7
				c-0.3,0.5-0.4,1.2-0.4,2.2S20.8,6.3,21.1,6.8z"/>
			<path class="st0" d="M2.1,11.7v0.7h1.5v0.9H2.1v5H1v-5H0v-0.9h1v-0.8c0-0.5,0.1-0.9,0.4-1.2c0.3-0.3,0.6-0.4,1.1-0.4
				c0.5,0,0.9,0.1,1.2,0.4l-0.4,0.8C3.2,11,3,10.9,2.7,10.9c-0.2,0-0.4,0.1-0.5,0.2C2.1,11.2,2.1,11.4,2.1,11.7z"/>
			<path class="st0" d="M6.4,12.3c0.8,0,1.5,0.3,2,0.8c0.5,0.6,0.7,1.4,0.7,2.4H4.6c0,0.6,0.2,1.1,0.5,1.4c0.3,0.3,0.8,0.5,1.3,0.5
				c0.4,0,0.7-0.1,0.9-0.2s0.5-0.4,0.6-0.7h1c-0.1,0.6-0.5,1-0.9,1.3c-0.5,0.3-1,0.5-1.6,0.5c-0.9,0-1.6-0.3-2.1-0.8
				c-0.5-0.6-0.8-1.3-0.8-2.2c0-0.9,0.3-1.6,0.8-2.2C5,12.6,5.6,12.3,6.4,12.3z M4.7,14.8h3.4c0-0.5-0.2-0.8-0.5-1.1
				S7,13.2,6.5,13.2c-0.5,0-0.9,0.1-1.2,0.4S4.8,14.3,4.7,14.8z"/>
			<path class="st0" d="M12.8,12.3c0.8,0,1.4,0.3,1.9,0.8c0.5,0.6,0.8,1.3,0.8,2.2c0,0.9-0.3,1.6-0.8,2.2c-0.5,0.6-1.1,0.9-1.9,0.9
				c-0.8,0-1.4-0.3-1.9-1h-0.1l-0.2,0.8H9.9V9.9h1v3.3C11.3,12.6,11.9,12.3,12.8,12.3z M11.4,16.9c0.3,0.4,0.7,0.6,1.3,0.6
				c0.5,0,1-0.2,1.3-0.6c0.3-0.4,0.5-0.9,0.5-1.5c0-0.6-0.2-1.1-0.5-1.5c-0.3-0.4-0.8-0.6-1.3-0.6c-0.5,0-0.9,0.2-1.3,0.6
				s-0.5,0.9-0.5,1.5C10.9,16,11.1,16.5,11.4,16.9z"/>
		</g>
		<g>
			<path class="st0" d="M165.1,7.6h2.7v0.8h-4V7.8l2.7-3.8V3.9H164V3.1h3.8v0.6L165.1,7.6L165.1,7.6z"/>
			<path class="st0" d="M173,7.5l0.3,0.6c-0.1,0.1-0.2,0.2-0.3,0.3c-0.1,0.1-0.3,0.1-0.5,0.1c-0.3,0-0.5-0.1-0.7-0.2
				c-0.2-0.1-0.3-0.3-0.3-0.6c-0.5,0.5-1,0.8-1.8,0.8c-0.5,0-0.9-0.1-1.3-0.4c-0.3-0.3-0.5-0.6-0.5-1.1c0-0.5,0.2-0.9,0.6-1.2
				s1-0.5,1.8-0.5l1-0.1V5.1c0-0.4-0.1-0.7-0.3-1c-0.2-0.2-0.5-0.4-0.8-0.4c-0.4,0-0.6,0.1-0.8,0.3c-0.2,0.2-0.3,0.4-0.3,0.7h-0.9
				c0-0.5,0.2-0.9,0.6-1.3c0.4-0.3,0.8-0.5,1.4-0.5c0.6,0,1.1,0.2,1.5,0.6s0.6,0.9,0.6,1.5v2.1c0,0.4,0.1,0.6,0.3,0.6
				C172.8,7.7,172.9,7.7,173,7.5z M169.9,7.7c0.4,0,0.8-0.1,1.1-0.4c0.3-0.3,0.5-0.6,0.5-1.1V5.9L170.6,6c-0.5,0-0.9,0.2-1.2,0.3
				C169.1,6.5,169,6.7,169,7c0,0.3,0.1,0.4,0.3,0.6S169.7,7.7,169.9,7.7z"/>
			<path class="st0" d="M178.1,4c0.7,0,1.2,0.2,1.6,0.6c0.4,0.4,0.6,1,0.6,1.7c0,0.7-0.2,1.2-0.7,1.6c-0.4,0.4-1,0.6-1.7,0.6
				c-0.7,0-1.3-0.2-1.7-0.6c-0.4-0.4-0.6-0.9-0.6-1.5h0.9c0,0.4,0.2,0.7,0.4,1s0.5,0.4,0.9,0.4c0.4,0,0.7-0.1,1-0.4
				c0.3-0.3,0.4-0.6,0.4-1c0-0.4-0.1-0.8-0.4-1.1s-0.6-0.4-1-0.4c-0.6,0-1.1,0.2-1.4,0.7l-0.8-0.2l0.4-3.6h3.8v0.9h-3l-0.2,1.9
				C177.1,4.1,177.6,4,178.1,4z"/>
			<path class="st0" d="M171.5,13c0.6,0,1,0.2,1.3,0.5s0.5,0.9,0.5,1.6v3.2h-1v-3.2c0-0.4-0.1-0.8-0.3-1c-0.2-0.2-0.5-0.3-0.8-0.3
				c-0.3,0-0.6,0.1-0.8,0.4c-0.2,0.2-0.3,0.6-0.3,1v3.1h-1v-3.1c0-0.5-0.1-0.8-0.3-1.1s-0.5-0.4-0.8-0.4c-0.3,0-0.6,0.1-0.8,0.4
				s-0.4,0.6-0.4,1v3.2h-1V13h0.7l0.1,0.7h0.1c0.1-0.2,0.3-0.4,0.6-0.5c0.3-0.1,0.5-0.2,0.9-0.2c0.4,0,0.7,0.1,1,0.3
				s0.4,0.4,0.5,0.7h0.1c0.1-0.3,0.3-0.5,0.6-0.7C170.8,13,171.1,13,171.5,13z"/>
			<path class="st0" d="M176.7,12.9h0.3v1c-0.1,0-0.2,0-0.4,0c-0.4,0-0.8,0.1-1,0.4c-0.3,0.3-0.4,0.7-0.4,1.3v2.7h-1V13h0.7l0.1,0.7
				h0.1C175.5,13.2,176.1,12.9,176.7,12.9z"/>
			<path class="st0" d="M180.5,18.2c-0.3,0.2-0.5,0.2-0.9,0.2c-0.9,0-1.3-0.5-1.3-1.4v-3.2h-1v-0.7h0.3c0.5,0,0.8-0.2,0.8-0.7v-0.7
				h0.8V13h1.3v0.8h-1.3v3.1c0,0.4,0.2,0.7,0.5,0.7c0.2,0,0.3,0,0.5-0.1L180.5,18.2z"/>
		</g>
		<rect x="30.2" y="9.2" class="st0" width="124" height="0.5"/>
	</g>
</g>
</svg>
