<?xml version="1.0" encoding="utf-8"?>
<!-- Generator: Adobe Illustrator 24.3.0, SVG Export Plug-In . SVG Version: 6.00 Build 0)  -->
<svg version="1.1" id="Laag_1" xmlns="http://www.w3.org/2000/svg" xmlns:xlink="http://www.w3.org/1999/xlink" x="0px" y="0px"
	 width="128.7px" height="48.8px" viewBox="0 0 128.7 48.8" style="enable-background:new 0 0 128.7 48.8;" xml:space="preserve">
<style type="text/css">
	.st0{fill:#FF00FF;}
	.st1{fill:#FFFFFF;}
</style>
<rect x="1.3" y="4.9" transform="matrix(0.9969 -7.846106e-02 7.846106e-02 0.9969 -1.7148 5.123)" class="st0" width="126" height="39"/>
<g>
	<path class="st1" d="M8.4,19.9l3.3-0.3l0.5,6.8l1.9-7l3.2-0.3l-2.1,7.7l3.8,9.2l-3.4,0.3l-3.3-8.5l0.7,8.7l-3.3,0.3L8.4,19.9z"/>
	<path class="st1" d="M19.3,22.9c-0.1-1.4,0.2-2.4,0.9-3.2c0.7-0.7,1.8-1.2,3.4-1.3c0.9-0.1,1.6,0,2.3,0.2c0.7,0.2,1.1,0.6,1.5,1.1
		c0.1,0.2,0.2,0.4,0.3,0.6c0.1,0.2,0.2,0.4,0.2,0.7c0.1,0.3,0.1,0.6,0.2,1c0,0.4,0.1,0.8,0.1,1.3l0.6,7.2c0,0.6,0.1,1,0.1,1.4
		c0,0.4,0,0.6,0,0.9c0,0.2-0.1,0.5-0.1,0.6c-0.1,0.2-0.1,0.4-0.2,0.7c-0.2,0.5-0.7,1-1.4,1.3c-0.7,0.3-1.5,0.6-2.6,0.6
		c-2.7,0.2-4.2-1-4.4-3.5L19.3,22.9z M24.8,22.9c0-0.5-0.1-0.9-0.3-1.1c-0.2-0.2-0.5-0.3-0.8-0.3c-0.7,0.1-1.1,0.5-1,1.4l0.6,8
		c0.1,0.7,0.2,1.2,0.3,1.5s0.5,0.4,0.9,0.3c0.7-0.1,1-0.5,0.9-1.5L24.8,22.9z"/>
	<path class="st1" d="M30.5,22c-0.1-1.4,0.2-2.4,0.9-3.2c0.7-0.7,1.8-1.2,3.4-1.3c0.9-0.1,1.6,0,2.3,0.2c0.7,0.2,1.1,0.6,1.5,1.1
		c0.1,0.2,0.2,0.4,0.3,0.6c0.1,0.2,0.2,0.4,0.2,0.7c0.1,0.3,0.1,0.6,0.2,1c0,0.4,0.1,0.8,0.1,1.3l0.6,7.2c0,0.6,0.1,1,0.1,1.4
		c0,0.4,0,0.6,0,0.9c0,0.2-0.1,0.5-0.1,0.6c-0.1,0.2-0.1,0.4-0.2,0.7c-0.2,0.5-0.7,1-1.4,1.3c-0.7,0.3-1.5,0.6-2.6,0.6
		c-2.7,0.2-4.2-1-4.4-3.5L30.5,22z M36,22.1c0-0.5-0.1-0.9-0.3-1.1c-0.2-0.2-0.5-0.3-0.8-0.3c-0.7,0.1-1.1,0.5-1,1.4l0.6,8
		c0.1,0.7,0.2,1.2,0.3,1.5c0.2,0.3,0.5,0.4,0.9,0.3c0.7-0.1,1-0.5,0.9-1.5L36,22.1z"/>
	<path class="st1" d="M41.4,17.3l4.8-0.4c0.9-0.1,1.5-0.1,2.1,0c0.5,0.1,0.9,0.2,1.2,0.5c0.3,0.2,0.5,0.5,0.6,0.9
		c0.1,0.4,0.2,0.8,0.2,1.2l0.3,3.3c0,0.5,0,1-0.1,1.4c-0.1,0.4-0.3,0.7-0.6,0.9c-0.3,0.3-0.7,0.5-1.2,0.6c-0.5,0.1-1.1,0.2-1.8,0.3
		l-1.5,0.1L46,34l-3.3,0.3L41.4,17.3z M46.3,23c0.7-0.1,1-0.4,0.9-0.9l-0.1-1.2c0-0.3-0.1-0.5-0.3-0.6c-0.2-0.1-0.4-0.2-0.7-0.1
		l-1.2,0.1l0.2,2.8L46.3,23z"/>
	<path class="st1" d="M58.8,19.2l-2.3,0.2l-0.3-3.2l8.1-0.6l0.3,3.2l-2.4,0.2l1.1,13.7l-3.3,0.3L58.8,19.2z"/>
	<path class="st1" d="M65.9,15.4l3.3-0.3l1.3,16.9l-3.3,0.3L65.9,15.4z"/>
	<path class="st1" d="M71.8,18.8c-0.1-1.4,0.2-2.5,0.9-3.2c0.7-0.7,1.9-1.1,3.5-1.3c0.8-0.1,1.6,0,2.3,0.3c0.7,0.2,1.1,0.6,1.5,1.2
		c0.3,0.6,0.5,1.5,0.6,2.7l0.1,1.1l-3.3,0.3l-0.1-1c0-0.6-0.1-1-0.3-1.2c-0.2-0.2-0.4-0.3-0.8-0.2c-0.4,0-0.7,0.2-0.8,0.4
		c-0.2,0.2-0.2,0.6-0.2,1.1l0.7,8.3c0.1,1,0.5,1.5,1.3,1.5c0.4,0,0.7-0.2,0.8-0.5c0.1-0.3,0.2-0.9,0.1-1.7l-0.1-1l3.3-0.3l0,0.5
		c0.1,0.7,0.1,1.3,0.1,1.7c0,0.4,0,0.8,0,1c0,0.3,0,0.5-0.1,0.6c0,0.2-0.1,0.4-0.2,0.6c-0.2,0.6-0.6,1.1-1.3,1.5
		c-0.7,0.4-1.6,0.7-2.6,0.7c-2.9,0.2-4.5-1-4.7-3.7L71.8,18.8z"/>
	<path class="st1" d="M82.3,14.1l3.3-0.3l0.5,6.8l1.9-7l3.2-0.3l-2.1,7.7l3.8,9.2l-3.4,0.3L86.3,22l0.7,8.7L83.7,31L82.3,14.1z"/>
	<path class="st1" d="M93.1,13.3l6.8-0.5l0.2,3.1l-3.5,0.3l0.2,3.1l3.5-0.3l0.2,3.2l-3.5,0.3l0.3,4.4l3.5-0.3l0.2,3.1l-6.8,0.5
		L93.1,13.3z"/>
	<path class="st1" d="M103.9,15.6l-2.3,0.2l-0.3-3.2l8.1-0.6l0.3,3.2l-2.4,0.2l1.1,13.7l-3.3,0.3L103.9,15.6z"/>
	<path class="st1" d="M114.6,23.1l0.1,1.2c0.1,1,0.5,1.5,1.2,1.4c0.4,0,0.7-0.2,0.8-0.5c0.2-0.3,0.2-0.7,0.2-1.3
		c0-0.3-0.1-0.5-0.1-0.6s-0.1-0.3-0.3-0.5c-0.1-0.2-0.3-0.3-0.5-0.5c-0.2-0.2-0.5-0.3-0.8-0.6l-1.7-1.1c-0.5-0.3-0.8-0.6-1.1-0.8
		c-0.3-0.3-0.6-0.5-0.8-0.9c-0.2-0.3-0.3-0.7-0.4-1.1c-0.1-0.4-0.2-0.9-0.2-1.5c0-0.6-0.1-1.1,0-1.5c0-0.4,0.1-0.7,0.1-1
		c0.1-0.3,0.1-0.5,0.2-0.7c0.1-0.2,0.2-0.3,0.3-0.5c0.2-0.3,0.6-0.7,1.2-1c0.5-0.3,1.2-0.5,2.1-0.5c0.5,0,1.1,0,1.6,0.1
		c0.5,0.1,0.9,0.3,1.3,0.5c0.4,0.3,0.7,0.6,1,1.2c0.3,0.5,0.4,1.2,0.5,1.9l0.1,1.7l-3,0.2c0-0.1,0-0.2,0-0.3c0-0.1,0-0.2,0-0.4
		c0-0.2,0-0.4-0.1-0.6c0-0.2-0.1-0.4-0.2-0.6c-0.1-0.2-0.2-0.3-0.4-0.4c-0.2-0.1-0.4-0.2-0.6-0.1c-0.7,0.1-1,0.6-0.9,1.6
		c0,0.3,0.1,0.6,0.2,0.8c0.1,0.2,0.3,0.4,0.4,0.6c0.2,0.2,0.4,0.4,0.7,0.6c0.3,0.2,0.6,0.4,1,0.7c0.4,0.2,0.8,0.5,1.2,0.8
		c0.4,0.3,0.8,0.6,1.1,0.9c0.3,0.3,0.6,0.6,0.9,1c0.2,0.3,0.4,0.7,0.4,1.1l0.2,1.9c0.1,1.4-0.2,2.4-0.8,3.2
		c-0.6,0.8-1.8,1.2-3.4,1.4c-0.8,0.1-1.5,0-2.1-0.3c-0.6-0.2-1.1-0.6-1.4-1c-0.3-0.3-0.5-0.8-0.6-1.3c-0.2-0.5-0.3-1.2-0.3-2.2
		c0-0.1,0-0.3,0-0.4c0-0.1,0-0.3,0-0.4L114.6,23.1z"/>
</g>
</svg>
