<?xml version="1.0" encoding="utf-8"?>
<!-- Generator: Adobe Illustrator 24.3.0, SVG Export Plug-In . SVG Version: 6.00 Build 0)  -->
<svg version="1.1" id="Laag_1" xmlns="http://www.w3.org/2000/svg" xmlns:xlink="http://www.w3.org/1999/xlink" x="0px" y="0px"
	 width="111.2px" height="4.4px" viewBox="0 0 111.2 4.4" style="enable-background:new 0 0 111.2 4.4;" xml:space="preserve">
<style type="text/css">
	.st0{fill:#FFFFFF;}
</style>
<g>
	<path class="st0" d="M0,1.3V1c0-0.4,0.1-0.7,0.3-1l0.3,0.1C0.6,0.3,0.5,0.5,0.5,0.8c0.2,0,0.3,0.1,0.3,0.3v0.3
		c0,0.2-0.1,0.3-0.3,0.3H0.3C0.1,1.6,0,1.6,0,1.3z M1.1,1.3V1c0-0.4,0.1-0.7,0.3-1l0.3,0.1C1.6,0.3,1.6,0.5,1.6,0.8
		c0.2,0,0.3,0.1,0.3,0.3v0.3c0,0.2-0.1,0.3-0.3,0.3H1.4C1.2,1.6,1.1,1.6,1.1,1.3z"/>
	<path class="st0" d="M7.1,0.5l0.2,3.8H6.4L6.2,0.9H6.1L5.5,3.5c0,0.2-0.2,0.3-0.4,0.3H4.5c-0.2,0-0.3-0.1-0.4-0.3L3.5,0.9H3.4
		L3.3,4.3H2.4l0.1-3.8c0-0.2,0.1-0.3,0.3-0.3h0.9c0.2,0,0.3,0.1,0.4,0.3l0.5,2.1c0,0.2,0.1,0.4,0.1,0.6h0.1c0-0.2,0.1-0.4,0.1-0.6
		l0.5-2.1c0-0.2,0.2-0.3,0.4-0.3h0.9C6.9,0.2,7.1,0.3,7.1,0.5z"/>
	<path class="st0" d="M11.4,2.3c0,1.7-0.5,2.1-1.8,2.1S7.8,3.9,7.8,2.3c0-1.7,0.5-2.1,1.8-2.1S11.4,0.6,11.4,2.3z M8.8,2.3
		c0,1.1,0.2,1.4,0.8,1.4s0.8-0.3,0.8-1.4c0-1.1-0.2-1.4-0.8-1.4S8.8,1.2,8.8,2.3z"/>
	<path class="st0" d="M13.3,2.5h-0.4c0,0.1,0,0.3,0,0.4v1.4H12V0.2h0.9v1.2c0,0.2,0,0.3,0,0.5h0.3l1.1-1.7h1l-1.1,1.6
		C14.1,2,14,2.1,13.9,2.2v0c0.1,0.1,0.3,0.2,0.3,0.4l1.1,1.8h-1L13.3,2.5z"/>
	<path class="st0" d="M18.5,3.6v0.7c-0.5,0-1.3,0-1.9,0c-0.6,0-0.9-0.3-0.9-0.8V1c0-0.5,0.4-0.8,0.9-0.8c0.6,0,1.3,0,1.9,0v0.7h-1.6
		c-0.2,0-0.3,0.1-0.3,0.3v0.6h1.6v0.7h-1.6v0.8c0,0.2,0.1,0.3,0.3,0.3H18.5z"/>
	<path class="st0" d="M22.4,4.3h-1l-0.3-1.3c-0.1-0.3-0.2-0.3-0.4-0.3H20v1.6h-0.9V0.2c0.5,0,0.8-0.1,1.6-0.1c1.1,0,1.5,0.3,1.5,1.2
		c0,0.6-0.2,1-0.8,1v0C21.7,2.5,22,2.6,22,3L22.4,4.3z M21.3,1.4c0-0.5-0.1-0.6-0.6-0.6c-0.2,0-0.5,0-0.7,0V2h0.7
		C21.2,2,21.3,1.9,21.3,1.4z"/>
	<path class="st0" d="M25.6,0.2v0.7c-0.4,0-0.9,0-1.3,0c-0.4,0-0.6,0-0.6,0.4c0,0.3,0.2,0.4,0.5,0.5L24.9,2c0.7,0.3,0.9,0.6,0.9,1.2
		c0,0.8-0.4,1.2-1.6,1.2c-0.2,0-0.8,0-1.4-0.1V3.6c0.8,0,1.1,0,1.3,0c0.5,0,0.7-0.1,0.7-0.4c0-0.3-0.1-0.4-0.4-0.5l-0.7-0.3
		c-0.7-0.2-0.9-0.6-0.9-1.2c0-0.9,0.5-1.1,1.6-1.1C24.6,0.1,25.2,0.1,25.6,0.2z"/>
	<path class="st0" d="M27.3,3.3c0,0.2,0.1,0.3,0.3,0.3h1.4v0.7c-0.5,0.1-1.1,0.1-1.7,0.1c-0.7,0-0.9-0.4-0.9-0.9V0.2h0.9V3.3z"/>
	<path class="st0" d="M31.8,3.2h-1.4l-0.3,1.1h-0.9l1.2-3.9c0-0.1,0.2-0.2,0.3-0.2h0.9c0.2,0,0.3,0.1,0.3,0.2l1.2,3.9h-0.9L31.8,3.2
		z M31.6,2.5l-0.3-1.3c0-0.1-0.1-0.3-0.1-0.4H31L31,1.3l-0.3,1.3H31.6z"/>
	<path class="st0" d="M36.6,1.9v2.4h-0.7l-0.1-0.4c-0.2,0.2-0.6,0.5-1.2,0.5c-0.9,0-1.3-0.6-1.3-2.2c0-1.6,0.5-2.1,1.9-2.1
		c0.5,0,0.9,0,1.3,0.1v0.7c-0.5,0-0.9,0-1.2,0c-0.7,0-0.9,0.2-0.9,1.4c0,1,0.2,1.3,0.7,1.3c0.3,0,0.5-0.1,0.7-0.2V1.9H36.6z"/>
	<path class="st0" d="M40.6,4.1c0,0.2-0.2,0.3-0.3,0.3h-0.8c-0.2,0-0.3-0.1-0.3-0.3L38,0.2H39l0.7,3c0,0.2,0.1,0.3,0.1,0.5H40
		c0-0.2,0.1-0.3,0.1-0.5l0.7-3h0.9L40.6,4.1z"/>
	<path class="st0" d="M44.2,3.2h-1.4l-0.3,1.1h-0.9l1.2-3.9c0-0.1,0.2-0.2,0.3-0.2h0.9c0.2,0,0.3,0.1,0.3,0.2l1.2,3.9h-0.9L44.2,3.2
		z M44,2.5l-0.3-1.3c0-0.1-0.1-0.3-0.1-0.4h-0.2l-0.1,0.4L43,2.5H44z"/>
	<path class="st0" d="M45.8,0.5c0-0.2,0.1-0.3,0.3-0.3h0.6c0.2,0,0.3,0.1,0.4,0.3l1,2.1c0.1,0.2,0.2,0.4,0.3,0.7h0.1
		c0-0.2,0-0.5,0-0.7V0.2h0.9V4c0,0.2-0.1,0.3-0.3,0.3h-0.6c-0.2,0-0.3-0.1-0.4-0.3L47,1.9c-0.1-0.2-0.2-0.4-0.3-0.6h-0.1
		c0,0.2,0,0.4,0,0.7v2.5h-0.9V0.5z"/>
	<path class="st0" d="M56,0.5l0.2,3.8h-0.9l-0.1-3.4H55l-0.6,2.6c0,0.2-0.2,0.3-0.4,0.3h-0.6c-0.2,0-0.3-0.1-0.4-0.3l-0.6-2.6h-0.1
		l-0.1,3.4h-0.9l0.2-3.8c0-0.2,0.1-0.3,0.3-0.3h0.9c0.2,0,0.3,0.1,0.4,0.3l0.5,2.1c0,0.2,0.1,0.4,0.1,0.6h0.1c0-0.2,0.1-0.4,0.1-0.6
		l0.5-2.1c0-0.2,0.2-0.3,0.4-0.3h0.9C55.8,0.2,56,0.3,56,0.5z"/>
	<path class="st0" d="M59.6,3.6v0.7c-0.5,0-1.3,0-1.9,0c-0.6,0-0.9-0.3-0.9-0.8V1c0-0.5,0.4-0.8,0.9-0.8c0.6,0,1.3,0,1.9,0v0.7H58
		c-0.2,0-0.3,0.1-0.3,0.3v0.6h1.6v0.7h-1.6v0.8c0,0.2,0.1,0.3,0.3,0.3H59.6z"/>
	<path class="st0" d="M63.1,3.6v0.7c-0.5,0-1.3,0-1.9,0c-0.6,0-0.9-0.3-0.9-0.8V1c0-0.5,0.4-0.8,0.9-0.8c0.6,0,1.3,0,1.9,0v0.7h-1.6
		c-0.2,0-0.3,0.1-0.3,0.3v0.6h1.6v0.7h-1.6v0.8c0,0.2,0.1,0.3,0.3,0.3H63.1z"/>
	<path class="st0" d="M66.4,0.2v0.7c-0.4,0-0.9,0-1.3,0c-0.4,0-0.6,0-0.6,0.4c0,0.3,0.2,0.4,0.5,0.5L65.6,2c0.7,0.3,0.9,0.6,0.9,1.2
		c0,0.8-0.4,1.2-1.6,1.2c-0.2,0-0.8,0-1.4-0.1V3.6c0.8,0,1.1,0,1.3,0c0.5,0,0.7-0.1,0.7-0.4c0-0.3-0.2-0.4-0.4-0.5l-0.7-0.3
		c-0.7-0.2-0.9-0.6-0.9-1.2c0-0.9,0.5-1.1,1.6-1.1C65.4,0.1,65.9,0.1,66.4,0.2z"/>
	<path class="st0" d="M70.2,0.9H69v3.4h-0.9V0.9h-1.2V0.2h3.4V0.9z"/>
	<path class="st0" d="M73.5,3.6v0.7c-0.5,0-1.3,0-1.9,0c-0.6,0-0.9-0.3-0.9-0.8V1c0-0.5,0.4-0.8,0.9-0.8c0.6,0,1.3,0,1.9,0v0.7h-1.6
		c-0.2,0-0.3,0.1-0.3,0.3v0.6h1.6v0.7h-1.6v0.8c0,0.2,0.1,0.3,0.3,0.3H73.5z"/>
	<path class="st0" d="M77.4,4.3h-1l-0.3-1.3c-0.1-0.3-0.2-0.3-0.4-0.3h-0.6v1.6h-0.9V0.2c0.5,0,0.8-0.1,1.6-0.1
		c1.1,0,1.5,0.3,1.5,1.2c0,0.6-0.2,1-0.8,1v0c0.2,0,0.5,0.2,0.6,0.6L77.4,4.3z M76.3,1.4c0-0.5-0.1-0.6-0.6-0.6c-0.2,0-0.5,0-0.7,0
		V2h0.7C76.2,2,76.3,1.9,76.3,1.4z"/>
	<path class="st0" d="M80.2,4.1c0,0.2-0.2,0.3-0.3,0.3H79c-0.2,0-0.3-0.1-0.3-0.3l-1.1-3.9h0.9l0.8,3c0,0.2,0.1,0.3,0.1,0.5h0.2
		c0-0.2,0.1-0.3,0.1-0.5l0.7-3h0.9L80.2,4.1z"/>
	<path class="st0" d="M84.5,3.6v0.7c-0.5,0-1.3,0-1.9,0c-0.6,0-0.9-0.3-0.9-0.8V1c0-0.5,0.4-0.8,0.9-0.8c0.6,0,1.3,0,1.9,0v0.7h-1.6
		c-0.2,0-0.3,0.1-0.3,0.3v0.6h1.6v0.7h-1.6v0.8c0,0.2,0.1,0.3,0.3,0.3H84.5z"/>
	<path class="st0" d="M88.4,4.3h-1l-0.3-1.3c-0.1-0.3-0.2-0.3-0.4-0.3h-0.6v1.6h-0.9V0.2c0.5,0,0.8-0.1,1.6-0.1
		c1.1,0,1.5,0.3,1.5,1.2c0,0.6-0.2,1-0.8,1v0c0.2,0,0.5,0.2,0.6,0.6L88.4,4.3z M87.3,1.4c0-0.5-0.1-0.6-0.6-0.6c-0.2,0-0.5,0-0.7,0
		V2h0.7C87.2,2,87.3,1.9,87.3,1.4z"/>
	<path class="st0" d="M92,0.9h-1.2v3.4h-0.9V0.9h-1.2V0.2H92V0.9z"/>
	<path class="st0" d="M95.3,3.6v0.7c-0.5,0-1.3,0-1.9,0c-0.6,0-0.9-0.3-0.9-0.8V1c0-0.5,0.4-0.8,0.9-0.8c0.6,0,1.3,0,1.9,0v0.7h-1.6
		c-0.2,0-0.3,0.1-0.3,0.3v0.6h1.6v0.7h-1.6v0.8c0,0.2,0.1,0.3,0.3,0.3H95.3z"/>
	<path class="st0" d="M96.9,3.3c0,0.2,0.1,0.3,0.3,0.3h1.4v0.7c-0.5,0.1-1.1,0.1-1.7,0.1c-0.7,0-0.9-0.4-0.9-0.9V0.2h0.9V3.3z"/>
	<path class="st0" d="M100,3.3c0,0.2,0.1,0.3,0.3,0.3h1.4v0.7c-0.5,0.1-1.1,0.1-1.7,0.1c-0.7,0-0.9-0.4-0.9-0.9V0.2h0.9V3.3z"/>
	<path class="st0" d="M105.1,3.6v0.7c-0.5,0-1.3,0-1.9,0c-0.6,0-0.9-0.3-0.9-0.8V1c0-0.5,0.4-0.8,0.9-0.8c0.6,0,1.3,0,1.9,0v0.7
		h-1.6c-0.2,0-0.3,0.1-0.3,0.3v0.6h1.6v0.7h-1.6v0.8c0,0.2,0.1,0.3,0.3,0.3H105.1z"/>
	<path class="st0" d="M109,4.3h-1l-0.3-1.3c-0.1-0.3-0.2-0.3-0.4-0.3h-0.6v1.6h-0.9V0.2c0.5,0,0.8-0.1,1.6-0.1
		c1.1,0,1.5,0.3,1.5,1.2c0,0.6-0.2,1-0.8,1v0c0.2,0,0.5,0.2,0.6,0.6L109,4.3z M107.9,1.4c0-0.5-0.1-0.6-0.6-0.6c-0.2,0-0.5,0-0.7,0
		V2h0.7C107.7,2,107.9,1.9,107.9,1.4z"/>
	<path class="st0" d="M110.2,0.3v0.3c0,0.4-0.1,0.7-0.3,1l-0.3-0.1c0.1-0.2,0.1-0.4,0.1-0.7c-0.2,0-0.3-0.1-0.3-0.3V0.3
		c0-0.2,0.1-0.3,0.3-0.3h0.2C110.1,0.1,110.2,0.1,110.2,0.3z M111.2,0.3v0.3c0,0.4-0.1,0.7-0.3,1l-0.3-0.1c0.1-0.2,0.1-0.4,0.1-0.7
		c-0.2,0-0.3-0.1-0.3-0.3V0.3c0-0.2,0.1-0.3,0.3-0.3h0.2C111.2,0.1,111.2,0.1,111.2,0.3z"/>
</g>
</svg>
