<?xml version="1.0" encoding="utf-8"?>
<!-- Generator: Adobe Illustrator 24.0.0, SVG Export Plug-In . SVG Version: 6.00 Build 0)  -->
<svg version="1.1" id="Laag_1" xmlns="http://www.w3.org/2000/svg" xmlns:xlink="http://www.w3.org/1999/xlink" x="0px" y="0px"
	 width="294.6px" height="91px" viewBox="0 0 294.6 91" style="enable-background:new 0 0 294.6 91;" xml:space="preserve">
<style type="text/css">
	.st0{fill:#FFFFFF;}
</style>
<g>
	<path class="st0" d="M9.6,90.2L0,0.8h17.5l5,56.4l5-56.4h16.6l4.8,56.4l4.8-56.4h17.7l-9.8,89.3H40.1l-4.5-43.1l-4.3,43.1H9.6z"/>
	<path class="st0" d="M81.5,84.4c-3.7-4.4-5.6-10.6-5.6-18.6V23.3c0-7.7,1.9-13.5,5.6-17.4C85.3,2,90.8,0,98,0
		c7.2,0,12.7,2,16.4,5.9c3.7,3.9,5.6,9.7,5.6,17.4v42.5c0,8-1.9,14.2-5.6,18.6S105.2,91,98,91C90.8,91,85.3,88.8,81.5,84.4z
		 M101.2,72.5c0.6-1.4,0.8-3.3,0.8-5.8V23c0-1.9-0.3-3.5-0.8-4.7c-0.5-1.2-1.6-1.8-3.2-1.8c-3,0-4.5,2.3-4.5,6.8v43.6
		c0,2.6,0.3,4.5,0.9,5.8c0.6,1.3,1.8,2,3.4,2C99.6,74.6,100.6,73.9,101.2,72.5z"/>
	<path class="st0" d="M132.1,84.4c-3.7-4.4-5.6-10.6-5.6-18.6V23.3c0-7.7,1.9-13.5,5.6-17.4C135.8,2,141.3,0,148.5,0
		c7.2,0,12.7,2,16.4,5.9c3.7,3.9,5.6,9.7,5.6,17.4v42.5c0,8-1.9,14.2-5.6,18.6s-9.2,6.6-16.4,6.6C141.3,91,135.8,88.8,132.1,84.4z
		 M151.7,72.5c0.6-1.4,0.8-3.3,0.8-5.8V23c0-1.9-0.3-3.5-0.8-4.7c-0.5-1.2-1.6-1.8-3.2-1.8c-3,0-4.5,2.3-4.5,6.8v43.6
		c0,2.6,0.3,4.5,0.9,5.8c0.6,1.3,1.8,2,3.4,2C150.1,74.6,151.2,73.9,151.7,72.5z"/>
	<path class="st0" d="M181.4,85c-3.6-4-5.4-10.5-5.4-19.4v-8.7h17.6v11.1c0,4.4,1.4,6.7,4.3,6.7c1.6,0,2.7-0.5,3.3-1.4
		c0.6-0.9,0.9-2.5,0.9-4.7c0-2.9-0.3-5.3-1-7.2c-0.7-1.9-1.6-3.5-2.7-4.8c-1.1-1.3-3-3.3-5.8-6l-7.7-7.7c-6-5.8-8.9-12.3-8.9-19.3
		c0-7.6,1.8-13.4,5.3-17.4c3.5-4,8.6-6,15.3-6c8,0,13.8,2.1,17.4,6.4s5.3,10.9,5.3,20H201l-0.1-6.1c0-1.2-0.3-2.1-1-2.8
		c-0.7-0.7-1.6-1-2.8-1c-1.4,0-2.4,0.4-3.1,1.1c-0.7,0.8-1,1.8-1,3.1c0,2.9,1.7,5.9,5,9l10.4,10c2.4,2.4,4.4,4.6,6,6.7
		c1.6,2.1,2.9,4.6,3.8,7.5c1,2.9,1.5,6.3,1.5,10.2c0,8.8-1.6,15.5-4.8,20c-3.2,4.5-8.5,6.8-16,6.8C190.8,91,185,89,181.4,85z"/>
	<path class="st0" d="M225.7,90.2V0.8h17.8v31.9h8.4V0.8h17.8v89.3h-17.8V49.6h-8.4v40.6H225.7z"/>
	<path class="st0" d="M280,65.8l-3.5-65h18.2l-3.6,65H280z M276.4,90.2V75h18.2v15.2H276.4z"/>
</g>
</svg>
