<?xml version="1.0" encoding="utf-8"?>
<!-- Generator: Adobe Illustrator 24.3.0, SVG Export Plug-In . SVG Version: 6.00 Build 0)  -->
<svg version="1.1" id="Laag_1" xmlns="http://www.w3.org/2000/svg" xmlns:xlink="http://www.w3.org/1999/xlink" x="0px" y="0px"
	 width="308.3px" height="21.8px" viewBox="0 0 308.3 21.8" style="enable-background:new 0 0 308.3 21.8;" xml:space="preserve">
<style type="text/css">
	.st0{fill:#EBEEE2;}
	.st1{fill:none;stroke:#EBEEE2;stroke-width:0.6507;stroke-miterlimit:10;}
	.st2{fill:none;stroke:#EBEEE2;stroke-width:1.0414;stroke-miterlimit:10;}
</style>
<g>
	<g>
		<g>
			<path class="st0" d="M8.5,2h1.2L8,9.3H6.4L4.9,3.9H4.8L3.3,9.3H1.7L0,2h1.2L2.5,8h0.1l1.5-5.4h1.5L7.1,8h0.1L8.5,2z"/>
			<path class="st0" d="M13.7,9.4c-1.1,0-1.9-0.4-2.6-1.1c-0.7-0.7-1-1.6-1-2.7c0-1.1,0.3-2,1-2.7s1.6-1.1,2.6-1.1
				c1.1,0,1.9,0.4,2.6,1.1s1,1.6,1,2.7c0,1.1-0.3,2-1,2.7C15.7,9.1,14.8,9.4,13.7,9.4z M13.7,8.3c0.7,0,1.3-0.3,1.7-0.8
				c0.4-0.5,0.7-1.1,0.7-1.9c0-0.7-0.2-1.3-0.7-1.9C15,3.3,14.4,3,13.7,3C13,3,12.4,3.3,12,3.8c-0.4,0.5-0.7,1.1-0.7,1.9
				c0,0.7,0.2,1.4,0.7,1.9C12.4,8,13,8.3,13.7,8.3z"/>
			<path class="st0" d="M25.1,3.4c0.7,0,1.3,0.3,1.9,0.8c0.6,0.5,0.8,1.3,0.8,2.2c0,0.9-0.3,1.6-0.9,2.2s-1.3,0.9-2.3,0.9
				c-0.9,0-1.7-0.3-2.3-0.9s-0.9-1.3-0.9-2.3c0-0.5,0.1-1,0.3-1.5c0.2-0.5,0.5-1,0.9-1.6l2-3.2h1.6l-2.6,3.8
				C24.1,3.5,24.6,3.4,25.1,3.4z M24.7,8.3c0.6,0,1-0.2,1.4-0.6c0.3-0.4,0.5-0.8,0.5-1.4c0-0.5-0.2-1-0.5-1.4s-0.8-0.5-1.4-0.5
				c-0.6,0-1,0.2-1.4,0.5s-0.5,0.8-0.5,1.4c0,0.5,0.2,1,0.5,1.4S24.2,8.3,24.7,8.3z"/>
			<path class="st0" d="M3.9,21.7c-1.1,0-1.9-0.4-2.6-1.1c-0.7-0.7-1-1.6-1-2.7c0-1.1,0.3-2,1-2.7s1.6-1.1,2.6-1.1
				c1.1,0,1.9,0.4,2.6,1.1s1,1.6,1,2.7c0,1.1-0.3,2-1,2.7C5.8,21.4,4.9,21.7,3.9,21.7z M3.9,20.6c0.7,0,1.3-0.3,1.7-0.8
				C6,19.3,6.2,18.7,6.2,18c0-0.7-0.2-1.3-0.7-1.9c-0.5-0.5-1-0.8-1.7-0.8c-0.7,0-1.3,0.3-1.7,0.8c-0.4,0.5-0.7,1.1-0.7,1.9
				c0,0.7,0.2,1.4,0.7,1.9C2.6,20.3,3.2,20.6,3.9,20.6z"/>
			<path class="st0" d="M14.5,14.3l-3,3.1l3,4.2h-1.5l-2.3-3.3l-1,1.1v2.3H8.4V11.3h1.3v6.3h0.1l3.1-3.2H14.5z"/>
			<path class="st0" d="M19.5,21.4c-0.3,0.2-0.7,0.3-1.2,0.3c-1.2,0-1.8-0.6-1.8-1.9v-4.4h-1.4v-0.9h0.4c0.7,0,1.1-0.3,1.1-1v-0.9
				h1.1v1.8h1.7v1.1h-1.7v4.3c0,0.6,0.2,0.9,0.7,0.9c0.2,0,0.4-0.1,0.6-0.2L19.5,21.4z"/>
		</g>
		<g>
			<path class="st0" d="M159.5,8.4h3.4v1h-4.9V8.7l3.3-4.8V3.8h-3.1v-1h4.7v0.7L159.5,8.4L159.5,8.4z"/>
			<path class="st0" d="M166.4,9.5c-1,0-1.8-0.3-2.4-1c-0.6-0.6-0.9-1.5-0.9-2.4c0-1,0.3-1.8,0.9-2.4s1.4-1,2.4-1c1,0,1.8,0.3,2.4,1
				s0.9,1.5,0.9,2.4c0,1-0.3,1.8-0.9,2.4C168.1,9.2,167.4,9.5,166.4,9.5z M166.4,8.5c0.6,0,1.2-0.2,1.6-0.7c0.4-0.5,0.6-1,0.6-1.7
				c0-0.7-0.2-1.2-0.6-1.7c-0.4-0.5-0.9-0.7-1.6-0.7c-0.6,0-1.1,0.2-1.5,0.7c-0.4,0.5-0.6,1-0.6,1.7c0,0.7,0.2,1.2,0.6,1.7
				C165.2,8.2,165.7,8.5,166.4,8.5z"/>
			<path class="st0" d="M174.8,9.4V3.3h-1.7v-1h0.8c0.7,0,1-0.3,1-0.9V1h1.1v8.4H174.8z"/>
			<path class="st0" d="M183.4,6.5v1h-1.5v1.9h-1.1V7.5h-3.9V6.8l3.5-5.8h1.5v5.5H183.4z M178.3,6.5h2.5V2.4h-0.1L178.3,6.5z"/>
			<path class="st0" d="M167.2,15c0.7,0,1.3,0.2,1.7,0.7s0.7,1.2,0.7,2v3.9h-1.2V18c0-0.6-0.1-1.1-0.4-1.4c-0.3-0.3-0.7-0.5-1.2-0.5
				c-0.4,0-0.8,0.2-1.1,0.5c-0.3,0.3-0.5,0.8-0.5,1.4v3.8h-1.2v-6.5h0.9l0.2,0.8h0.1C165.7,15.3,166.3,15,167.2,15z"/>
			<path class="st0" d="M173.8,21.8c-1,0-1.8-0.3-2.4-1c-0.6-0.6-0.9-1.5-0.9-2.4c0-1,0.3-1.8,0.9-2.4s1.4-1,2.4-1
				c1,0,1.8,0.3,2.4,1s0.9,1.5,0.9,2.4c0,1-0.3,1.8-0.9,2.4C175.5,21.5,174.7,21.8,173.8,21.8z M173.8,20.8c0.6,0,1.2-0.2,1.6-0.7
				c0.4-0.5,0.6-1,0.6-1.7c0-0.7-0.2-1.2-0.6-1.7c-0.4-0.5-0.9-0.7-1.6-0.7c-0.6,0-1.1,0.2-1.5,0.7c-0.4,0.5-0.6,1-0.6,1.7
				c0,0.7,0.2,1.2,0.6,1.7C172.6,20.5,173.1,20.8,173.8,20.8z"/>
			<path class="st0" d="M182.2,15.1h1.2l-2.4,6.5h-1.7l-2.4-6.5h1.2l1.9,5.5h0.1L182.2,15.1z"/>
		</g>
		<line class="st1" x1="37.5" y1="10.6" x2="146.5" y2="10.6"/>
	</g>
	<g>
		<g>
			<g>
				<path class="st0" d="M225.9,15c-1.4,0-2.6-0.5-3.5-1.5s-1.4-2.2-1.4-3.7c0-1.5,0.5-2.7,1.4-3.7s2.1-1.5,3.5-1.5
					c1.4,0,2.6,0.5,3.5,1.5s1.4,2.2,1.4,3.7c0,1.5-0.5,2.7-1.4,3.7S227.4,15,225.9,15z M225.9,13.7c1,0,1.9-0.4,2.5-1.1
					c0.7-0.7,1-1.7,1-2.7c0-1.1-0.3-2-1-2.7c-0.7-0.7-1.5-1.1-2.5-1.1s-1.9,0.4-2.5,1.1s-1,1.7-1,2.7c0,1.1,0.3,2,1,2.7
					S224.9,13.7,225.9,13.7z"/>
				<path class="st0" d="M236.5,4.8c1,0,1.8,0.3,2.3,0.8c0.6,0.6,0.9,1.3,0.9,2.2c0,1-0.3,1.7-0.9,2.2s-1.4,0.8-2.4,0.8h-2.2v3.9
					h-1.3v-10H236.5z M236.3,9.7c0.7,0,1.2-0.2,1.6-0.5c0.4-0.3,0.6-0.8,0.6-1.4c0-0.6-0.2-1-0.5-1.3C237.5,6.2,237,6,236.4,6h-2.2
					v3.7H236.3z"/>
				<path class="st0" d="M251.9,4.8V6H249v8.8h-1.3V6h-2.9V4.8H251.9z"/>
				<path class="st0" d="M257.5,15c-1.4,0-2.6-0.5-3.5-1.5s-1.4-2.2-1.4-3.7c0-1.5,0.5-2.7,1.4-3.7s2.1-1.5,3.5-1.5
					c1.4,0,2.6,0.5,3.5,1.5s1.4,2.2,1.4,3.7c0,1.5-0.5,2.7-1.4,3.7S258.9,15,257.5,15z M257.5,13.7c1,0,1.9-0.4,2.5-1.1
					c0.7-0.7,1-1.7,1-2.7c0-1.1-0.3-2-1-2.7c-0.7-0.7-1.5-1.1-2.5-1.1s-1.9,0.4-2.5,1.1s-1,1.7-1,2.7c0,1.1,0.3,2,1,2.7
					S256.5,13.7,257.5,13.7z"/>
				<path class="st0" d="M272.2,4.8v6.1c0,1.3-0.4,2.3-1.1,3c-0.7,0.7-1.7,1-2.8,1c-1.1,0-2.1-0.3-2.8-1s-1.1-1.7-1.1-3V4.8h1.4v6
					c0,0.9,0.2,1.6,0.7,2.1c0.5,0.5,1.1,0.7,1.8,0.7c0.8,0,1.4-0.2,1.8-0.7s0.7-1.2,0.7-2.1v-6H272.2z"/>
				<path class="st0" d="M281.7,14.8h-1.5l-2.4-4.1h0h-1.9v4.1h-1.3v-10h3.4c1,0,1.8,0.3,2.4,0.8s0.9,1.2,0.9,2.1
					c0,0.7-0.2,1.2-0.6,1.7c-0.4,0.5-0.9,0.8-1.5,1L281.7,14.8z M275.9,6v3.5h1.9c0.7,0,1.2-0.2,1.5-0.5c0.4-0.3,0.6-0.7,0.6-1.3
					c0-0.6-0.2-1-0.6-1.3C279,6.2,278.5,6,277.9,6H275.9z"/>
				<path class="st0" d="M290,4.8h1.3v10h-1.4l-5.2-7.7h-0.1v7.7h-1.3v-10h1.5l5.1,7.7h0.1V4.8z"/>
				<path class="st0" d="M295,13.6h5.2v1.2h-6.4v-10h6.3V6h-5v3.1h4.4v1.2H295V13.6z"/>
				<path class="st0" d="M303.1,13.6h5.2v1.2h-6.4v-10h6.3V6h-5v3.1h4.4v1.2h-4.4V13.6z"/>
			</g>
		</g>
		<g>
			<path class="st2" d="M210.7,3.6c-2.7,0-4.9,2.2-4.9,4.9s4.9,8,4.9,8s4.9-5.3,4.9-8S213.4,3.6,210.7,3.6z"/>
			<g>
				<path class="st0" d="M210.7,7.5c0.5,0,0.8,0.4,0.8,0.8c0,0.5-0.4,0.8-0.8,0.8s-0.8-0.4-0.8-0.8C209.8,7.9,210.2,7.5,210.7,7.5
					 M210.7,6.4c-1,0-1.9,0.8-1.9,1.9c0,1,0.8,1.9,1.9,1.9s1.9-0.8,1.9-1.9C212.6,7.3,211.7,6.4,210.7,6.4L210.7,6.4z"/>
			</g>
		</g>
	</g>
</g>
</svg>
