<?xml version="1.0" encoding="utf-8"?>
<!-- Generator: Adobe Illustrator 22.0.0, SVG Export Plug-In . SVG Version: 6.00 Build 0)  -->
<svg version="1.1" id="Laag_1" xmlns="http://www.w3.org/2000/svg" xmlns:xlink="http://www.w3.org/1999/xlink" x="0px" y="0px"
	 viewBox="0 0 108.8 17.3" style="enable-background:new 0 0 108.8 17.3;" xml:space="preserve">
<style type="text/css">
	.st0{fill:#FFFFFF;}
</style>
<g>
	<path class="st0" d="M6.5,0.7c2.6,0,4.4,1.4,4.4,4.2c0,1.3-0.6,2.3-1.5,2.9c1.5,0.6,2.3,1.8,2.3,3.8c0,3-2,4.7-5.1,4.7H0.8V0.7H6.5
		z M3.7,3.3v3.4h2.6c1.2,0,1.8-0.4,1.8-1.7c0-1.3-0.7-1.7-1.9-1.7H3.7z M3.7,9.4v4.2h2.6c1.8,0,2.5-0.8,2.5-2.1
		c0-1.3-0.7-2.1-2.5-2.1H3.7z"/>
	<path class="st0" d="M23.8,0.7v2.7h-6.7v3.3h5.4v2.7h-5.4v4.3H24v2.7h-9.8V0.7H23.8z"/>
	<path class="st0" d="M33.1,4.8c-0.6-1.2-1.2-1.6-2.2-1.6c-0.8,0-1.5,0.6-1.5,1.4c0,2.7,6.6,2.4,6.6,7c0,3-2,4.8-5,4.8
		c-2.8,0-4.9-2-5.3-4.3l2.3-1.5c0.5,1.7,1.4,3.1,3.1,3.1c1.2,0,2-0.6,2-2c0-2.6-6.5-2.1-6.5-7c0-2.4,1.8-4.2,4.2-4.2
		c2.1,0,3.6,1,4.5,2.8L33.1,4.8z"/>
	<path class="st0" d="M37.2,0.7h11.5v2.7h-4.3v12.9h-2.9V3.3h-4.3V0.7z"/>
	<path class="st0" d="M60.7,0.7v2.7H54v3.3h5.4v2.7H54v4.3H61v2.7h-9.8V0.7H60.7z"/>
	<path class="st0" d="M66.5,0.7v12.9h6.6v2.7h-9.5V0.7H66.5z"/>
	<path class="st0" d="M92.5,0.7v15.5h-3L83.8,6v10.2h-2.9V0.7h3l5.7,10.2V0.7H92.5z"/>
	<path class="st0" d="M107.3,10.3c0,4.1-2.4,6.1-5.8,6.1c-3.4,0-5.8-1.9-5.8-6.1V0.7h2.9v9.7c0,2.3,1,3.4,2.9,3.4
		c2,0,2.9-1.1,2.9-3.4V0.7h2.9V10.3z"/>
</g>
</svg>
