<?xml version="1.0" encoding="utf-8"?>
<!-- Generator: Adobe Illustrator 24.0.0, SVG Export Plug-In . SVG Version: 6.00 Build 0)  -->
<svg version="1.1" id="Layer_1" xmlns="http://www.w3.org/2000/svg" xmlns:xlink="http://www.w3.org/1999/xlink" x="0px" y="0px"
	 width="133.6px" height="8.7px" viewBox="0 0 133.6 8.7" style="enable-background:new 0 0 133.6 8.7;" xml:space="preserve">
<style type="text/css">
	.st0{fill:#FFFFFF;}
</style>
<g>
	<path class="st0" d="M1.8,3.4v5.3H0V0.3h1.7l3.6,5.3V0.3h1.8v8.4H5.4L1.8,3.4z"/>
	<path class="st0" d="M8.6,1c0-0.6,0.4-1,1-1c0.6,0,1,0.4,1,1c0,0.6-0.4,1-1,1C9.1,2,8.6,1.5,8.6,1z M8.8,2.7h1.7v6H8.8V2.7z"/>
	<path class="st0" d="M14.8,8.8c-1.7,0-3.1-1.1-3.1-3.2c0-2,1.4-3.1,3-3.1c1.6,0,2.8,1.1,2.9,2.9c0,0.4,0,0.5,0,0.6h-4.2
		c0.1,0.9,0.7,1.4,1.5,1.4c0.6,0,1.1-0.3,1.4-0.8l1.2,0.8C17,8.3,16.1,8.8,14.8,8.8z M13.5,5h2.4c0-0.8-0.6-1.1-1.2-1.1
		C14.1,3.9,13.5,4.2,13.5,5z"/>
	<path class="st0" d="M22.5,8c-0.4,0.5-0.9,0.9-1.7,0.9c-1.2,0-2.1-0.7-2.1-2.3V2.7h1.7v3.4c0,0.8,0.5,1.1,1,1.1
		c0.4,0,0.8-0.3,1.1-0.8V2.7h1.7v6h-1.7V8z"/>
	<path class="st0" d="M29.3,6.2l-1.1,2.5h-1.4l-1.6-6h1.7l0.9,3.6l1-2.3H30L31,6.3l1-3.6h1.6l-1.7,6h-1.4L29.3,6.2z"/>
	<path class="st0" d="M37.2,1c0-0.6,0.4-1,1-1c0.6,0,1,0.4,1,1c0,0.6-0.4,1-1,1C37.6,2,37.2,1.5,37.2,1z M37.3,2.7h1.7v6h-1.7V2.7z"
		/>
	<path class="st0" d="M42.4,4.9v3.8h-1.7v-6h1.7v0.7c0.4-0.5,1-0.9,1.8-0.9c1.2,0,2.1,0.7,2.1,2.4v3.8h-1.7V5.3c0-0.8-0.4-1.2-1-1.2
		C43,4.1,42.6,4.4,42.4,4.9z"/>
	<path class="st0" d="M54.3,1.9v6.8h-1.8V1.9h-2.5V0.3h6.7v1.6H54.3z"/>
	<path class="st0" d="M59.6,8.8c-1.7,0-3.1-1.1-3.1-3.2c0-2,1.4-3.1,3-3.1c1.6,0,2.8,1.1,2.9,2.9c0,0.4,0,0.5,0,0.6h-4.2
		c0.1,0.9,0.7,1.4,1.5,1.4c0.6,0,1.1-0.3,1.4-0.8l1.2,0.8C61.8,8.3,60.9,8.8,59.6,8.8z M58.2,5h2.4c0-0.8-0.6-1.1-1.2-1.1
		C58.8,3.9,58.3,4.2,58.2,5z"/>
	<path class="st0" d="M65.7,6.7l-1.2,2h-1.8l1.9-3l-1.9-3h1.9l1.1,1.8l1.1-1.8h1.8l-1.8,2.9l1.9,3.1h-1.9L65.7,6.7z"/>
	<path class="st0" d="M71.8,8.8c-1.1,0-1.9-0.6-1.9-1.9l0-2.7h-0.9V2.7h0.9V1.1h1.7v1.6h1.5v1.4h-1.5v2.6c0,0.5,0.2,0.7,0.5,0.7
		c0.2,0,0.4-0.1,0.6-0.2l0.6,1.1C73,8.6,72.4,8.8,71.8,8.8z"/>
	<path class="st0" d="M74.1,1c0-0.6,0.4-1,1-1c0.6,0,1,0.4,1,1c0,0.6-0.4,1-1,1C74.5,2,74.1,1.5,74.1,1z M74.2,2.7H76v6h-1.7V2.7z"
		/>
	<path class="st0" d="M80.3,8.8c-1.7,0-3.1-1.1-3.1-3.2c0-2,1.4-3.1,3-3.1c1.6,0,2.8,1.1,2.9,2.9c0,0.4,0,0.5,0,0.6h-4.2
		c0.1,0.9,0.7,1.4,1.5,1.4c0.6,0,1.1-0.3,1.4-0.8L83,7.5C82.5,8.3,81.6,8.8,80.3,8.8z M78.9,5h2.4c0-0.8-0.6-1.1-1.2-1.1
		C79.5,3.9,79,4.2,78.9,5z"/>
	<path class="st0" d="M84.2,0.1h1.7v8.6h-1.7V0.1z"/>
	<path class="st0" d="M89.4,8.7h-1.8V0.3h1.8l2.4,2.8l2.4-2.8h1.7v8.4h-1.8V3.1L92,5.4h-0.5l-2.1-2.3V8.7z"/>
	<path class="st0" d="M101.3,8c-0.4,0.5-0.9,0.9-1.7,0.9c-1.2,0-2.1-0.7-2.1-2.3V2.7h1.7v3.4c0,0.8,0.5,1.1,1,1.1
		c0.4,0,0.8-0.3,1.1-0.8V2.7h1.7v6h-1.7V8z"/>
	<path class="st0" d="M104,7.1l1.5-0.4c0.2,0.6,0.6,0.9,1.2,0.9c0.5,0,0.9-0.2,0.9-0.6c0-0.4-0.5-0.6-1.2-0.7
		c-1.2-0.2-2.1-0.7-2.1-1.8c0-1.2,1.1-1.9,2.5-1.9c1.4,0,2.2,0.7,2.4,1.6l-1.5,0.4c-0.1-0.5-0.5-0.7-1-0.7c-0.5,0-0.8,0.2-0.8,0.6
		c0,0.4,0.5,0.5,1.2,0.6c1.2,0.2,2.1,0.7,2.1,1.9c0,1.2-1.1,1.9-2.6,1.9C105.2,8.8,104.3,8.2,104,7.1z"/>
	<path class="st0" d="M113.2,8.8c-1.7,0-3.1-1.1-3.1-3.2c0-2,1.4-3.1,3-3.1c1.6,0,2.8,1.1,2.9,2.9c0,0.4,0,0.5,0,0.6h-4.2
		c0.1,0.9,0.7,1.4,1.5,1.4c0.6,0,1.1-0.3,1.4-0.8l1.2,0.8C115.4,8.3,114.5,8.8,113.2,8.8z M111.8,5h2.4c0-0.8-0.6-1.1-1.2-1.1
		C112.4,3.9,111.9,4.2,111.8,5z"/>
	<path class="st0" d="M120.8,8c-0.4,0.5-0.9,0.9-1.7,0.9c-1.2,0-2.1-0.7-2.1-2.3V2.7h1.7v3.4c0,0.8,0.5,1.1,1,1.1
		c0.4,0,0.8-0.3,1.1-0.8V2.7h1.7v6h-1.7V8z"/>
	<path class="st0" d="M125.9,4.9v3.8h-1.7v-6h1.7v0.7c0.4-0.5,0.9-0.8,1.7-0.8c0.7,0,1.3,0.3,1.7,0.9c0.4-0.6,1.1-0.9,1.9-0.9
		c1.3,0,2.2,0.8,2.2,2.3v3.8h-1.7V5.3c0-0.7-0.4-1.1-1-1.1c-0.5,0-0.9,0.3-1.1,0.8v3.8h-1.7V5.3c0-0.7-0.4-1.1-1-1.1
		C126.5,4.1,126.1,4.5,125.9,4.9z"/>
</g>
</svg>
