<?xml version="1.0" encoding="utf-8"?>
<!-- Generator: Adobe Illustrator 24.0.0, SVG Export Plug-In . SVG Version: 6.00 Build 0)  -->
<svg version="1.1" id="Laag_1" xmlns="http://www.w3.org/2000/svg" xmlns:xlink="http://www.w3.org/1999/xlink" x="0px" y="0px"
	 width="156.3px" height="18.7px" viewBox="0 0 156.3 18.7" style="enable-background:new 0 0 156.3 18.7;" xml:space="preserve">
<style type="text/css">
	.st0{fill:#FFFFFF;}
</style>
<g>
	<path class="st0" d="M12.6,14.5L6.5,6.9v7.6H5.1V0.2h1.4v6.1l5.6-6.1h1.7L7.9,6.6l6.4,7.9H12.6z"/>
	<path class="st0" d="M20.3,4c3,0,4.8,2.6,4.8,5.3s-1.8,5.3-4.8,5.3c-3,0-4.8-2.6-4.8-5.3S17.3,4,20.3,4z M20.3,13.5
		c2.3,0,3.5-2.1,3.5-4.1s-1.2-4.1-3.5-4.1c-2.3,0-3.5,2.1-3.5,4.1S18,13.5,20.3,13.5z"/>
	<path class="st0" d="M32.5,4c3,0,4.8,2.6,4.8,5.3s-1.8,5.3-4.8,5.3c-3,0-4.8-2.6-4.8-5.3S29.5,4,32.5,4z M32.5,13.5
		c2.3,0,3.5-2.1,3.5-4.1s-1.2-4.1-3.5-4.1c-2.3,0-3.5,2.1-3.5,4.1S30.2,13.5,32.5,13.5z"/>
	<path class="st0" d="M40.3,18.7V4.2h1.3v1.4C42.1,4.7,43.5,4,44.8,4c3,0,4.6,2.4,4.6,5.3s-1.6,5.3-4.6,5.3c-1.1,0-2.5-0.6-3.2-1.6
		v5.6H40.3z M44.8,5.2c-2.2,0-3.3,1.8-3.3,4.1c0,2.3,1.1,4.1,3.3,4.1c2.2,0,3.3-1.8,3.3-4.1C48.1,7,47,5.2,44.8,5.2z"/>
	<path class="st0" d="M65.7,14.5h-1.3V7.6c0-1.5-0.7-2.4-2.1-2.4C60.5,5.2,59,7.1,59,10v4.5h-1.3V4.2H59v2.2C59.7,5,61.1,4,62.5,4
		c1.9,0,3.2,1.2,3.2,3.4V14.5z"/>
	<path class="st0" d="M69,4.2h1.3v6.9c0,1.5,0.7,2.4,2.1,2.4c1.9,0,3.3-1.8,3.3-4.8V4.2H77v10.3h-1.3v-2.2c-0.7,1.4-2.1,2.3-3.5,2.3
		c-1.9,0-3.2-1.2-3.2-3.4V4.2z"/>
	<path class="st0" d="M87.4,0v8.8l4.3-4.6h1.6l-4.5,4.7l4.8,5.6H92l-4.7-5.4v5.4h-1.3V0H87.4z"/>
	<path class="st0" d="M102.7,14.5h-1l-0.3-1.6c-0.6,1-1.6,1.8-3.3,1.8c-1.7,0-3.2-0.9-3.2-3.1c0-2.3,1.9-3.4,4.8-3.4h1.7V7.7
		c0-1.8-1-2.5-2.4-2.5c-1.4,0-2.2,0.9-2.5,1.9l-1.2-0.3C95.6,5.1,97.2,4,99,4c2,0,3.6,1.3,3.6,3.6V14.5z M98.2,13.5
		c1.3,0,3.1-1,3.1-3.8V9.3h-1.7c-2.4,0-3.5,0.8-3.5,2.2C96.2,12.8,97,13.5,98.2,13.5z"/>
	<path class="st0" d="M112.9,14.5h-1l-0.3-1.6c-0.6,1-1.6,1.8-3.3,1.8c-1.7,0-3.2-0.9-3.2-3.1c0-2.3,1.9-3.4,4.8-3.4h1.7V7.7
		c0-1.8-1-2.5-2.4-2.5c-1.4,0-2.2,0.9-2.5,1.9l-1.2-0.3c0.3-1.7,1.8-2.8,3.7-2.8c2,0,3.6,1.3,3.6,3.6V14.5z M108.5,13.5
		c1.3,0,3.1-1,3.1-3.8V9.3h-1.7c-2.4,0-3.5,0.8-3.5,2.2C106.4,12.8,107.2,13.5,108.5,13.5z"/>
	<path class="st0" d="M121.5,5.6c-0.5-0.2-0.9-0.4-1.5-0.4c-1.6,0-2.8,1.8-2.8,5.3v4h-1.3V4.2h1.3V6c0.6-1.3,1.6-2,3-2
		c0.6,0,1,0.1,1.6,0.3L121.5,5.6z"/>
	<path class="st0" d="M123.4,4.2h1.8V0.8l1.3-0.8v4.2h2.7v1.2h-2.7v6.4c0,1.2,0.6,1.7,1.4,1.7c0.4,0,0.9-0.1,1.3-0.3l0.3,1.1
		c-0.5,0.3-1.2,0.4-1.8,0.4c-1.5,0-2.6-0.9-2.6-3.1V5.4h-1.8V4.2z"/>
	<path class="st0" d="M140.4,9.3h-7.8c0,2.4,1.2,4.1,3.3,4.1c1.6,0,2.4-0.7,3.2-2.2l1.1,0.6c-1.1,2.1-2.4,2.8-4.3,2.8
		c-2.7,0-4.6-2.3-4.6-5.3c0-3.1,1.8-5.3,4.6-5.3c2.7,0,4.5,1.9,4.5,4.8V9.3z M132.7,8.2h6.4c-0.2-1.8-1.4-3-3.2-3
		C134.1,5.2,133,6.5,132.7,8.2z"/>
	<path class="st0" d="M151.2,14.5h-1.3V7.6c0-1.5-0.7-2.4-2.1-2.4c-1.9,0-3.3,1.8-3.3,4.8v4.5h-1.3V4.2h1.3v2.2
		c0.7-1.4,2-2.3,3.5-2.3c1.9,0,3.2,1.2,3.2,3.4V14.5z"/>
</g>
</svg>
