<?xml version="1.0" encoding="utf-8"?>
<!-- Generator: Adobe Illustrator 23.0.2, SVG Export Plug-In . SVG Version: 6.00 Build 0)  -->
<svg version="1.1" id="Laag_1" xmlns="http://www.w3.org/2000/svg" xmlns:xlink="http://www.w3.org/1999/xlink" x="0px" y="0px"
	 width="957.9px" height="527.3px" viewBox="0 0 957.9 527.3" style="enable-background:new 0 0 957.9 527.3;" xml:space="preserve"
	>
<style type="text/css">
	.st0{fill:#F0D447;}
	.st1{fill:#324694;}
	.st2{fill:#C43221;}
</style>
<rect x="365.3" y="313" class="st0" width="18.5" height="11.9"/>
<rect x="365.3" y="236" class="st0" width="36.9" height="23.7"/>
<rect x="402.2" y="283.4" class="st0" width="30.8" height="11.9"/>
<rect x="488.3" y="271.6" class="st0" width="18.5" height="17.8"/>
<rect x="371.4" y="473.1" class="st0" width="18.5" height="17.8"/>
<rect x="168.4" y="496.8" class="st1" width="18.5" height="17.8"/>
<rect x="303.7" y="170.8" class="st0" width="61.5" height="17.8"/>
<rect x="445.2" y="390.1" class="st2" width="18.5" height="17.8"/>
<rect x="426.8" y="378.2" class="st0" width="18.5" height="17.8"/>
<rect x="371.4" y="378.3" class="st1" width="18.5" height="11.9"/>
<rect x="340.6" y="407.9" class="st0" width="18.5" height="11.9"/>
<rect x="217.6" y="236" class="st0" width="43.1" height="35.6"/>
<rect x="149.9" y="431.6" class="st2" width="55.4" height="29.6"/>
<rect x="488.3" y="230.1" class="st0" width="18.5" height="17.8"/>
<rect x="463.7" y="247.9" class="st0" width="12.3" height="11.9"/>
<rect x="457.6" y="224.2" class="st0" width="12.3" height="11.9"/>
<rect x="377.6" y="200.4" class="st0" width="12.3" height="11.9"/>
<rect x="273" y="159" class="st0" width="12.3" height="11.9"/>
<rect x="451.4" y="159" class="st0" width="12.3" height="11.9"/>
<rect x="125.3" y="159" class="st2" width="12.3" height="11.9"/>
<rect x="88.4" y="159" class="st2" width="18.5" height="11.9"/>
<rect x="371.4" y="111.6" class="st0" width="12.3" height="11.9"/>
<rect x="248.3" y="91.2" class="st0" width="6.2" height="11.9"/>
<rect x="174.4" y="105.6" class="st0" width="12.3" height="11.9"/>
<rect x="248.3" y="59.7" class="st2" width="12.3" height="11.9"/>
<rect x="193" y="28.6" class="st0" width="12.3" height="11.9"/>
<rect x="211.4" y="59.7" class="st0" width="18.5" height="11.9"/>
<rect x="297.6" y="76" class="st1" width="30.8" height="11.9"/>
<rect x="248.3" y="159" class="st0" width="6.2" height="11.9"/>
<rect x="229.9" y="159" class="st0" width="6.2" height="11.9"/>
<rect x="174.5" y="159" class="st0" width="6.2" height="11.9"/>
<rect x="193" y="159" class="st0" width="12.3" height="11.9"/>
<rect x="156" y="159" class="st1" width="12.3" height="11.9"/>
<rect x="180.7" y="271.6" class="st0" width="12.3" height="11.9"/>
<rect x="156" y="283.4" class="st0" width="18.5" height="11.9"/>
<rect x="199.1" y="271.6" class="st0" width="12.3" height="11.9"/>
<rect x="346.8" y="271.6" class="st0" width="12.3" height="11.9"/>
<rect x="285.3" y="271.6" class="st0" width="6.2" height="11.9"/>
<rect x="303.7" y="271.6" class="st0" width="6.2" height="11.9"/>
<rect x="229.9" y="271.6" class="st0" width="6.2" height="11.9"/>
<rect x="426.8" y="224.2" class="st0" width="12.3" height="11.9"/>
<rect x="402.2" y="224.2" class="st0" width="12.3" height="11.9"/>
<rect x="377.6" y="419.7" class="st1" width="12.3" height="11.9"/>
<rect x="279.3" y="461.2" class="st2" width="18.5" height="11.9"/>
<rect x="334.5" y="461.2" class="st1" width="18.5" height="11.9"/>
<rect x="291.4" y="419.7" class="st0" width="12.3" height="11.9"/>
<rect x="137.6" y="413.8" class="st0" width="12.3" height="5.9"/>
<rect x="137.6" y="378.2" class="st2" width="12.3" height="5.9"/>
<rect x="137.6" y="336.7" class="st1" width="12.3" height="5.9"/>
<rect x="137.6" y="289.3" class="st0" width="12.3" height="5.9"/>
<rect x="211.4" y="461.2" class="st0" width="12.3" height="11.9"/>
<rect x="131.4" y="473.1" class="st0" width="12.3" height="11.9"/>
<rect x="316" y="419.7" class="st2" width="12.3" height="11.9"/>
<rect x="248.6" y="461.2" class="st0" width="6.2" height="11.9"/>
<rect x="149.9" y="461.2" class="st2" width="6.2" height="11.9"/>
<rect x="110" y="424.8" class="st1" width="12.3" height="11.9"/>
<rect x="248.3" y="419.7" class="st1" width="12.3" height="11.9"/>
<rect x="297.6" y="324.9" class="st0" width="12.3" height="11.9"/>
<rect x="303.7" y="313" class="st0" width="18.5" height="11.9"/>
<rect x="303.7" y="247.9" class="st0" width="18.5" height="5.9"/>
<rect x="303.7" y="295.3" class="st0" width="18.5" height="5.9"/>
<rect x="322.2" y="336.8" class="st0" width="12.3" height="11.9"/>
<rect x="254.5" y="324.9" class="st0" width="12.3" height="11.9"/>
<rect x="223.7" y="324.9" class="st0" width="12.3" height="11.9"/>
<rect x="168.4" y="324.9" class="st0" width="12.3" height="11.9"/>
<rect x="137.6" y="313" class="st2" width="12.3" height="11.9"/>
<rect x="137.6" y="259.7" class="st0" width="12.3" height="11.9"/>
<rect x="131.4" y="271.6" class="st0" width="6.2" height="11.9"/>
<rect x="149.9" y="271.6" class="st0" width="6.2" height="11.9"/>
<rect x="365.3" y="224.2" class="st0" width="6.2" height="11.9"/>
<rect x="322.2" y="224.2" class="st0" width="6.2" height="11.9"/>
<rect x="70.5" y="366.4" class="st0" width="12.3" height="11.9"/>
<rect x="8.4" y="289.3" class="st0" width="12.3" height="11.9"/>
<rect x="8.4" y="236" class="st0" width="12.3" height="11.9"/>
<rect x="20.7" y="224.2" class="st0" width="12.3" height="11.9"/>
<rect x="45.3" y="224.2" class="st0" width="12.3" height="11.9"/>
<rect x="94.5" y="224.2" class="st0" width="12.3" height="11.9"/>
<rect x="88.4" y="135.3" class="st1" width="18.5" height="11.9"/>
<rect x="125.3" y="87.9" class="st1" width="18.5" height="17.8"/>
<rect x="149.9" y="64.2" class="st2" width="24.6" height="17.8"/>
<rect x="119.1" y="224.2" class="st0" width="12.3" height="11.9"/>
<rect x="161.6" y="212.3" class="st0" width="12.3" height="11.9"/>
<rect x="125.3" y="200.4" class="st0" width="12.3" height="11.9"/>
<rect x="161.6" y="188.6" class="st0" width="12.3" height="11.9"/>
<rect x="137.6" y="176.7" class="st0" width="12.3" height="11.9"/>
<rect x="193" y="224.2" class="st0" width="12.3" height="11.9"/>
<rect x="174.5" y="224.2" class="st0" width="6.2" height="11.9"/>
<rect x="297.6" y="224.2" class="st0" width="12.3" height="11.9"/>
<rect x="309.9" y="218.2" class="st0" width="12.3" height="5.9"/>
<rect x="340.6" y="218.2" class="st0" width="12.3" height="5.9"/>
<rect x="88.4" y="247.9" class="st0" width="12.3" height="11.9"/>
<rect x="63.8" y="236" class="st0" width="12.3" height="11.9"/>
<rect x="193" y="336.8" class="st0" width="12.3" height="11.9"/>
<rect x="76.1" y="265.6" class="st0" width="30.8" height="23.7"/>
<rect x="36.1" y="283.4" class="st0" width="30.8" height="23.7"/>
<rect x="438.1" y="336.8" class="st0" width="18.5" height="11.9"/>
<rect x="420.1" y="59.7" class="st0" width="12.3" height="11.9"/>
<rect x="395.5" y="71.5" class="st2" width="18.5" height="11.9"/>
<rect x="438.5" y="59.7" class="st1" width="12.3" height="11.9"/>
<rect x="377" y="77.5" class="st0" width="12.3" height="5.9"/>
<rect x="377" y="47.8" class="st0" width="12.3" height="11.9"/>
<rect x="370.8" y="59.7" class="st2" width="6.2" height="11.9"/>
<rect x="389.3" y="59.7" class="st0" width="6.2" height="11.9"/>
<rect x="432.4" y="117.5" class="st1" width="12.3" height="11.9"/>
<rect x="783.6" y="195.7" class="st0" width="18.5" height="11.9"/>
<rect x="783.6" y="260.8" class="st0" width="36.9" height="23.7"/>
<rect x="820.6" y="225.3" class="st0" width="30.8" height="11.9"/>
<rect x="906.7" y="231.2" class="st0" width="18.5" height="17.8"/>
<rect x="789.8" y="29.7" class="st0" width="18.5" height="17.8"/>
<rect x="586.7" y="6" class="st0" width="18.5" height="17.8"/>
<rect x="826.7" y="326" class="st0" width="24.6" height="23.7"/>
<rect x="722.1" y="332" class="st2" width="61.5" height="17.8"/>
<rect x="863.6" y="112.7" class="st2" width="18.5" height="17.8"/>
<rect x="845.2" y="124.5" class="st1" width="18.5" height="17.8"/>
<rect x="789.8" y="142.3" class="st0" width="18.5" height="11.9"/>
<rect x="759" y="100.8" class="st0" width="18.5" height="11.9"/>
<rect x="728.3" y="136.4" class="st1" width="43.1" height="34.3"/>
<rect x="636" y="249" class="st0" width="43.1" height="35.6"/>
<rect x="568.3" y="59.4" class="st2" width="55.4" height="29.6"/>
<rect x="906.7" y="272.7" class="st0" width="18.5" height="17.8"/>
<rect x="882.1" y="260.8" class="st0" width="12.3" height="11.9"/>
<rect x="875.9" y="284.6" class="st0" width="12.3" height="11.9"/>
<rect x="691.3" y="349.7" class="st0" width="12.3" height="11.9"/>
<rect x="869.8" y="349.7" class="st1" width="12.3" height="11.9"/>
<rect x="543.7" y="349.7" class="st2" width="12.3" height="11.9"/>
<rect x="506.7" y="349.7" class="st2" width="18.5" height="11.9"/>
<rect x="592.7" y="403.1" class="st0" width="12.3" height="11.9"/>
<rect x="611.4" y="480.1" class="st0" width="12.3" height="11.9"/>
<rect x="629.8" y="448.6" class="st0" width="18.5" height="11.9"/>
<rect x="666.7" y="349.7" class="st0" width="6.2" height="11.9"/>
<rect x="648.3" y="349.7" class="st1" width="6.2" height="11.9"/>
<rect x="592.9" y="349.7" class="st0" width="6.2" height="11.9"/>
<rect x="611.4" y="349.7" class="st1" width="12.3" height="11.9"/>
<rect x="574.4" y="349.7" class="st0" width="12.3" height="11.9"/>
<rect x="599" y="237.1" class="st0" width="12.3" height="11.9"/>
<rect x="574.4" y="225.3" class="st0" width="18.5" height="11.9"/>
<rect x="617.5" y="237.1" class="st0" width="12.3" height="11.9"/>
<rect x="765.2" y="237.1" class="st0" width="12.3" height="11.9"/>
<rect x="703.6" y="237.1" class="st0" width="6.2" height="11.9"/>
<rect x="722.1" y="237.1" class="st0" width="6.2" height="11.9"/>
<rect x="648.3" y="237.1" class="st0" width="6.2" height="11.9"/>
<rect x="845.2" y="284.6" class="st0" width="12.3" height="11.9"/>
<rect x="820.6" y="284.6" class="st0" width="12.3" height="11.9"/>
<rect x="839" y="183.8" class="st0" width="12.3" height="11.9"/>
<rect x="795.9" y="89" class="st1" width="12.3" height="11.9"/>
<rect x="697.7" y="47.5" class="st0" width="18.5" height="11.9"/>
<rect x="752.9" y="47.5" class="st0" width="18.5" height="11.9"/>
<rect x="709.8" y="89" class="st0" width="12.3" height="11.9"/>
<rect x="556" y="100.8" class="st0" width="12.3" height="5.9"/>
<rect x="556" y="136.4" class="st2" width="12.3" height="5.9"/>
<rect x="556" y="177.9" class="st1" width="12.3" height="5.9"/>
<rect x="556" y="225.3" class="st0" width="12.3" height="5.9"/>
<rect x="629.8" y="47.5" class="st0" width="12.3" height="11.9"/>
<rect x="549.8" y="35.7" class="st0" width="12.3" height="11.9"/>
<rect x="734.4" y="89" class="st2" width="12.3" height="11.9"/>
<rect x="667" y="47.5" class="st0" width="6.2" height="11.9"/>
<rect x="568.3" y="47.5" class="st2" width="6.2" height="11.9"/>
<rect x="528.4" y="83.9" class="st0" width="12.3" height="11.9"/>
<rect x="666.7" y="89" class="st1" width="12.3" height="11.9"/>
<rect x="716" y="183.8" class="st2" width="12.3" height="11.9"/>
<rect x="722.1" y="195.7" class="st0" width="18.5" height="11.9"/>
<rect x="722.1" y="266.8" class="st0" width="18.5" height="5.9"/>
<rect x="722.1" y="219.4" class="st0" width="18.5" height="5.9"/>
<rect x="740.6" y="172" class="st0" width="12.3" height="11.9"/>
<rect x="672.9" y="183.8" class="st0" width="12.3" height="11.9"/>
<rect x="642.1" y="183.8" class="st0" width="12.3" height="11.9"/>
<rect x="586.7" y="183.8" class="st0" width="12.3" height="11.9"/>
<rect x="556" y="195.7" class="st2" width="12.3" height="11.9"/>
<rect x="556" y="249" class="st0" width="12.3" height="11.9"/>
<rect x="549.8" y="237.1" class="st0" width="6.2" height="11.9"/>
<rect x="568.3" y="237.1" class="st0" width="6.2" height="11.9"/>
<rect x="783.6" y="284.6" class="st0" width="6.2" height="11.9"/>
<rect x="740.6" y="284.6" class="st0" width="6.2" height="11.9"/>
<rect x="488.9" y="142.3" class="st2" width="12.3" height="11.9"/>
<rect x="426.8" y="219.4" class="st0" width="12.3" height="11.9"/>
<rect x="426.8" y="272.7" class="st0" width="12.3" height="11.9"/>
<rect x="439.1" y="284.6" class="st0" width="12.3" height="11.9"/>
<rect x="463.7" y="284.6" class="st0" width="12.3" height="11.9"/>
<rect x="512.9" y="284.6" class="st0" width="12.3" height="11.9"/>
<rect x="506.7" y="373.4" class="st1" width="18.5" height="11.9"/>
<rect x="543.7" y="414.9" class="st0" width="18.5" height="17.8"/>
<rect x="568.3" y="433.6" class="st2" width="24.6" height="17.8"/>
<rect x="537.5" y="284.6" class="st0" width="12.3" height="11.9"/>
<rect x="580" y="296.4" class="st0" width="12.3" height="11.9"/>
<rect x="580" y="320.1" class="st0" width="12.3" height="11.9"/>
<rect x="556" y="332" class="st0" width="12.3" height="11.9"/>
<rect x="611.4" y="284.6" class="st0" width="12.3" height="11.9"/>
<rect x="592.9" y="284.6" class="st0" width="6.2" height="11.9"/>
<rect x="716" y="284.6" class="st0" width="12.3" height="11.9"/>
<rect x="728.3" y="296.4" class="st0" width="12.3" height="5.9"/>
<rect x="759" y="296.4" class="st0" width="12.3" height="5.9"/>
<rect x="506.7" y="260.8" class="st0" width="12.3" height="11.9"/>
<rect x="482.1" y="272.7" class="st0" width="12.3" height="11.9"/>
<rect x="525.8" y="142.3" class="st0" width="6.2" height="11.9"/>
<rect x="611.4" y="172" class="st2" width="12.3" height="11.9"/>
<rect x="501.2" y="183.8" class="st0" width="30.8" height="23.7"/>
<rect x="494.4" y="231.2" class="st0" width="30.8" height="23.7"/>
<rect x="454.4" y="213.4" class="st0" width="30.8" height="23.7"/>
<rect x="851.3" y="172" class="st0" width="18.5" height="11.9"/>
<rect x="856.9" y="456.4" class="st1" width="12.3" height="11.9"/>
<rect x="795.4" y="468.3" class="st0" width="12.3" height="11.9"/>
<rect x="849.2" y="390.5" class="st0" width="12.3" height="11.8"/>
<rect x="703.2" y="372.7" class="st1" width="55.3" height="29.6"/>
<rect x="703.2" y="402.2" class="st1" width="6.1" height="11.8"/>
<rect x="788.4" y="396.4" class="st2" width="12.3" height="11.8"/>
</svg>
