<?xml version="1.0" encoding="utf-8"?>
<!-- Generator: Adobe Illustrator 23.1.1, SVG Export Plug-In . SVG Version: 6.00 Build 0)  -->
<svg version="1.1" id="Laag_1" xmlns="http://www.w3.org/2000/svg" xmlns:xlink="http://www.w3.org/1999/xlink" x="0px" y="0px"
	 width="161.5px" height="7.4px" viewBox="0 0 161.5 7.4" style="enable-background:new 0 0 161.5 7.4;" xml:space="preserve">
<style type="text/css">
	.st0{fill:#FFFFFF;}
</style>
<g>
	<path class="st0" d="M1.2,0.2h1.9l-1.2,7H0L1.2,0.2z"/>
	<path class="st0" d="M4.4,0.2h2.2l1.9,4.4h0l0.8-4.4h1.9l-1.2,7H7.8l-2-4.4h0L5,7.2H3.1L4.4,0.2z"/>
	<path class="st0" d="M14.9,0.2h6.2l-0.3,1.6h-2.1l-0.9,5.4h-1.9l0.9-5.4h-2.1L14.9,0.2z"/>
	<path class="st0" d="M21.7,0.2h1.9l-0.4,2.5h2.9l0.4-2.5h1.9l-1.2,7h-1.9l0.5-2.9H23l-0.5,2.9h-1.9L21.7,0.2z"/>
	<path class="st0" d="M29.7,0.2h5.8l-0.3,1.5h-3.9L31.2,3h3.7l-0.3,1.4H31l-0.2,1.3h3.9l-0.3,1.5h-5.8L29.7,0.2z"/>
	<path class="st0" d="M38.1,0.2h2.4l1.3,7h-2.1l-0.2-1.1H37l-0.5,1.1h-2.1L38.1,0.2z M39,2l-1.3,2.6h1.6L39,2L39,2z"/>
	<path class="st0" d="M42.8,0.2H49l-0.3,1.6h-2.1l-0.9,5.4h-1.9l0.9-5.4h-2.1L42.8,0.2z"/>
	<path class="st0" d="M49.6,0.2h5.8l-0.3,1.5h-3.9L51,3h3.7l-0.3,1.4h-3.7l-0.2,1.3h3.9l-0.3,1.5h-5.8L49.6,0.2z"/>
	<path class="st0" d="M56.2,0.2h4.7c1.1,0,1.6,0.5,1.6,1.4c0,0.5-0.1,1-0.3,1.4c-0.2,0.4-0.5,0.6-0.9,0.7l0,0c0.3,0.2,0.5,0.5,0.5,1
		c0,0.1,0,0.4-0.1,0.8c0,0.5-0.1,0.8-0.1,1c0,0.3,0,0.5,0.1,0.6h-2.1c0-0.1,0-0.2,0-0.3c0-0.2,0-0.4,0.1-0.7c0-0.3,0.1-0.5,0.1-0.7
		c0-0.2,0-0.4-0.1-0.5s-0.2-0.2-0.5-0.2h-1.8L57,7.2H55L56.2,0.2z M57.9,1.8l-0.3,1.5h1.9c0.3,0,0.5-0.1,0.6-0.3
		c0.1-0.2,0.2-0.4,0.2-0.7c0-0.2-0.1-0.3-0.2-0.4c-0.1-0.1-0.3-0.1-0.4-0.1H57.9z"/>
	<path class="st0" d="M63.1,2.7c0-0.2,0-0.5,0.1-0.7c0.1-0.2,0.2-0.5,0.3-0.7c0.2-0.2,0.4-0.5,0.6-0.6c0.2-0.2,0.6-0.3,1-0.5
		C65.5,0.1,66,0,66.6,0c1.1,0,1.8,0.2,2.4,0.5c0.5,0.3,0.8,0.8,0.8,1.5c0,0,0,0.1,0,0.3h-2.2V2.2c0-0.5-0.4-0.8-1.1-0.8
		c-0.4,0-0.7,0.1-0.8,0.2c-0.1,0.1-0.2,0.2-0.2,0.3s-0.1,0.2-0.1,0.3c0,0.2,0.2,0.3,0.5,0.4L68,3c0.3,0.1,0.5,0.1,0.7,0.2
		s0.3,0.2,0.4,0.3c0.1,0.1,0.2,0.2,0.2,0.4c0.1,0.1,0.1,0.2,0.1,0.3c0,0.1,0,0.2,0,0.3c0,0.3-0.1,0.7-0.2,1S69,6.2,68.7,6.5
		c-0.7,0.6-1.7,0.9-3,0.9c-0.4,0-0.7,0-1,0S64,7.3,63.8,7.2S63.3,7,63.1,6.8s-0.3-0.3-0.4-0.6c-0.1-0.2-0.2-0.5-0.2-0.8
		c0-0.1,0-0.3,0-0.4h2.3c0,0,0,0.1,0,0.1c0,0.2,0.1,0.4,0.2,0.5c0.2,0.1,0.5,0.2,0.9,0.2c0.2,0,0.4,0,0.6-0.1
		c0.2-0.1,0.3-0.1,0.3-0.2C67,5.6,67,5.5,67.1,5.4c0-0.1,0.1-0.2,0.1-0.2c0,0,0-0.1,0-0.1c0-0.1-0.1-0.2-0.2-0.3
		c-0.1-0.1-0.3-0.1-0.7-0.2l-1.9-0.4C63.5,4,63.1,3.5,63.1,2.7z"/>
	<path class="st0" d="M73.6,2.9c0.4-1.7,1.6-2.6,3.8-2.6c0.9,0,1.5,0.2,2,0.5c0.5,0.3,0.7,0.8,0.7,1.4c0,0.7-0.3,1.3-0.8,1.8
		C79,4.2,78.5,4.4,78,4.6c-0.2,0.1-0.5,0.1-0.9,0.2S76.4,4.9,76.2,5c-0.2,0.1-0.4,0.2-0.7,0.3c-0.2,0.1-0.4,0.3-0.5,0.4h4.4
		l-0.3,1.5h-6.5c0.2-1,0.6-1.8,1.1-2.3C74.3,4.4,75,4,75.9,3.7c0.5-0.1,1-0.3,1.4-0.5c0.5-0.2,0.7-0.4,0.7-0.8
		c0-0.2-0.1-0.4-0.3-0.5c-0.2-0.1-0.4-0.1-0.7-0.1c-0.3,0-0.6,0.1-0.9,0.3c-0.3,0.2-0.5,0.5-0.6,0.8H73.6z"/>
	<path class="st0" d="M81,2.3c0.1-0.4,0.3-0.7,0.5-1c0.2-0.3,0.5-0.5,0.9-0.6s0.7-0.2,1-0.3c0.4-0.1,0.7-0.1,1.2-0.1
		c1.8,0,2.7,0.5,2.7,1.5c0,0.5-0.1,0.9-0.4,1.2S86.3,3.5,86,3.5v0c0.3,0.1,0.5,0.2,0.7,0.4S87,4.4,87,4.8c0,0.1,0,0.3,0,0.4
		c0,0.2-0.1,0.4-0.2,0.6s-0.3,0.5-0.5,0.7c-0.6,0.6-1.6,0.8-2.9,0.8c-1.1,0-1.8-0.2-2.3-0.5s-0.7-0.8-0.7-1.5c0-0.1,0-0.3,0-0.5h1.9
		c0,0,0,0,0,0.1c0,0,0,0,0,0.1c0,0.5,0.4,0.8,1.2,0.8c0.5,0,0.8-0.1,1.1-0.3c0.2-0.2,0.4-0.4,0.4-0.7c0-0.4-0.3-0.6-1-0.6h-1.1
		L83,2.9h1.2c0.3,0,0.5,0,0.7-0.1c0.2-0.1,0.3-0.3,0.3-0.6c0-0.4-0.3-0.5-1-0.5c-0.3,0-0.6,0-0.8,0.1C83.3,1.8,83.1,2,83,2.3H81z"/>
	<path class="st0" d="M91.2,2.7c0-0.2,0-0.5,0.1-0.7c0.1-0.2,0.2-0.5,0.3-0.7C91.8,1,92,0.8,92.2,0.6c0.2-0.2,0.6-0.3,1-0.5
		C93.6,0.1,94.1,0,94.7,0c1.1,0,1.8,0.2,2.4,0.5c0.5,0.3,0.8,0.8,0.8,1.5c0,0,0,0.1,0,0.3h-2.2V2.2c0-0.5-0.4-0.8-1.1-0.8
		c-0.4,0-0.7,0.1-0.8,0.2c-0.1,0.1-0.2,0.2-0.2,0.3s-0.1,0.2-0.1,0.3c0,0.2,0.2,0.3,0.5,0.4L96.1,3c0.3,0.1,0.5,0.1,0.7,0.2
		c0.2,0.1,0.3,0.2,0.4,0.3c0.1,0.1,0.2,0.2,0.2,0.4s0.1,0.2,0.1,0.3c0,0.1,0,0.2,0,0.3c0,0.3-0.1,0.7-0.2,1s-0.3,0.7-0.6,0.9
		c-0.7,0.6-1.7,0.9-3,0.9c-0.4,0-0.7,0-1,0c-0.3,0-0.6-0.1-0.9-0.2c-0.3-0.1-0.5-0.2-0.7-0.3s-0.3-0.3-0.4-0.6
		c-0.1-0.2-0.2-0.5-0.2-0.8c0-0.1,0-0.3,0-0.4h2.3c0,0,0,0.1,0,0.1c0,0.2,0.1,0.4,0.2,0.5c0.2,0.1,0.5,0.2,0.9,0.2
		c0.2,0,0.4,0,0.6-0.1c0.2-0.1,0.3-0.1,0.3-0.2c0.1-0.1,0.1-0.1,0.2-0.2c0-0.1,0.1-0.2,0.1-0.2s0-0.1,0-0.1c0-0.1-0.1-0.2-0.2-0.3
		c-0.1-0.1-0.3-0.1-0.7-0.2l-1.9-0.4C91.6,4,91.2,3.5,91.2,2.7z"/>
	<path class="st0" d="M99.1,0.2h5.8l-0.3,1.5h-3.9L100.6,3h3.7L104,4.4h-3.7l-0.2,1.3h3.9l-0.3,1.5h-5.8L99.1,0.2z"/>
	<path class="st0" d="M105.8,0.2h4.3c0.6,0,1,0.1,1.3,0.4s0.5,0.7,0.5,1.2c0,0.3,0,0.7-0.2,1.1c-0.1,0.4-0.2,0.7-0.4,1
		c-0.5,0.6-1.1,1-1.9,1h-2.4l-0.4,2.3h-1.9L105.8,0.2z M109.3,1.7h-1.8l-0.3,1.8h1.8c0.4,0,0.6-0.1,0.7-0.4c0.1-0.2,0.2-0.5,0.2-0.8
		C109.9,1.8,109.7,1.7,109.3,1.7z"/>
	<path class="st0" d="M115.6,3.6h2.9l-0.3,1.5h-2.9L115.6,3.6z"/>
	<path class="st0" d="M125.2,0.4h1.4l-1.2,6.8h-1.8l0.7-4.1h-1.7l0.3-1.4c0.2,0,0.4,0,0.6,0c0.1,0,0.3,0,0.5-0.1
		c0.2,0,0.4-0.1,0.5-0.2c0.1-0.1,0.3-0.2,0.4-0.4S125.1,0.7,125.2,0.4z"/>
	<path class="st0" d="M127.7,2.9c0.4-1.7,1.6-2.6,3.8-2.6c0.9,0,1.5,0.2,2,0.5c0.5,0.3,0.7,0.8,0.7,1.4c0,0.7-0.3,1.3-0.8,1.8
		c-0.3,0.3-0.8,0.5-1.3,0.7c-0.2,0.1-0.5,0.1-0.9,0.2s-0.7,0.2-0.9,0.2c-0.2,0.1-0.4,0.2-0.7,0.3c-0.2,0.1-0.4,0.3-0.5,0.4h4.4
		l-0.3,1.5h-6.5c0.2-1,0.6-1.8,1.1-2.3c0.5-0.5,1.2-0.9,2.1-1.2c0.5-0.1,1-0.3,1.4-0.5c0.5-0.2,0.7-0.4,0.7-0.8
		c0-0.2-0.1-0.4-0.3-0.5c-0.2-0.1-0.4-0.1-0.7-0.1c-0.3,0-0.6,0.1-0.9,0.3c-0.3,0.2-0.5,0.5-0.6,0.8H127.7z"/>
	<path class="st0" d="M138.7,0.2h2.8l0.5,4.6h0l2.1-4.6h2.8l-1.2,7h-1.8L145,2h0l-2.4,5.2h-1.6L140.3,2h0l-0.9,5.2h-1.8L138.7,0.2z"
		/>
	<path class="st0" d="M148.3,0.2h4.7c1.1,0,1.6,0.5,1.6,1.4c0,0.5-0.1,1-0.3,1.4c-0.2,0.4-0.5,0.6-0.9,0.7l0,0
		c0.3,0.2,0.5,0.5,0.5,1c0,0.1,0,0.4-0.1,0.8c0,0.5-0.1,0.8-0.1,1c0,0.3,0,0.5,0.1,0.6h-2.1c0-0.1,0-0.2,0-0.3c0-0.2,0-0.4,0.1-0.7
		c0-0.3,0.1-0.5,0.1-0.7c0-0.2,0-0.4-0.1-0.5s-0.2-0.2-0.5-0.2h-1.8L149,7.2h-1.9L148.3,0.2z M149.9,1.8l-0.3,1.5h1.9
		c0.3,0,0.5-0.1,0.6-0.3c0.2-0.2,0.2-0.4,0.2-0.7c0-0.2-0.1-0.3-0.2-0.4c-0.1-0.1-0.3-0.1-0.4-0.1H149.9z"/>
	<path class="st0" d="M155.2,0.2h6.2l-0.3,1.6h-2.1l-0.9,5.4h-1.9l0.9-5.4H155L155.2,0.2z"/>
</g>
</svg>
