<?xml version="1.0" encoding="utf-8"?>
<!-- Generator: Adobe Illustrator 24.3.0, SVG Export Plug-In . SVG Version: 6.00 Build 0)  -->
<svg version="1.1" id="Laag_1" xmlns="http://www.w3.org/2000/svg" xmlns:xlink="http://www.w3.org/1999/xlink" x="0px" y="0px"
	 width="199.1px" height="40.2px" viewBox="0 0 199.1 40.2" style="enable-background:new 0 0 199.1 40.2;" xml:space="preserve">
<style type="text/css">
	.st0{clip-path:url(#SVGID_2_);fill:#231F20;}
</style>
<g>
	<defs>
		<rect id="SVGID_1_" width="199.1" height="40.2"/>
	</defs>
	<clipPath id="SVGID_2_">
		<use xlink:href="#SVGID_1_"  style="overflow:visible;"/>
	</clipPath>
	<path class="st0" d="M15.9,32.9c-4.1,0-6-2.1-6-5.3c0-3.2,1.9-5.2,6-5.2H22v10.5H15.9z M0,0.8l11.4,15.7c-5.7,1.2-9,5.5-9,11.2
		c0,6.9,4.8,11.7,12.4,11.7H29V0.8h-7v15.4h-2.6L8.9,0.8H0z M53.7,33c-7.3,0-12.4-5.2-12.4-12.9c0-7.7,5.2-12.9,12.4-12.9
		c7.2,0,12.4,5.2,12.4,12.9C66.1,27.8,60.9,33,53.7,33 M53.7,40.2c11.5,0,20.2-8.1,20.2-20.1C73.8,8.1,65.1,0,53.7,0
		S33.5,8.1,33.5,20.1C33.5,32,42.2,40.2,53.7,40.2 M89.9,32.9c-4.1,0-6-2.1-6-5.3c0-3.2,1.9-5.2,6-5.2H96v10.5H89.9z M74,0.8
		l11.4,15.7c-5.7,1.2-9,5.5-9,11.2c0,6.9,4.8,11.7,12.4,11.7H103V0.8h-7v15.4h-2.6L82.9,0.8H74z M121.7,32.9c-4.1,0-6-2.1-6-5.3
		c0-3.2,1.9-5.2,6-5.2h6.1v10.5H121.7z M105.8,0.8l11.4,15.7c-5.7,1.2-9,5.5-9,11.2c0,6.9,4.8,11.7,12.4,11.7h14.2V0.8h-7v15.4h-2.6
		L114.7,0.8H105.8z M148.4,0.8h-7.1v38.5h7.1V0.8z M166.4,39.4l8.8-21.9h0.1l8.7,21.9h5.5l9.6-38.5h-7.4l-5.9,25.1h-0.1l-7.9-19.3
		h-5.1l-7.9,19.3h-0.1l-5.8-25.1h-7.4l9.6,38.5H166.4z"/>
</g>
</svg>
