<?xml version="1.0" encoding="utf-8"?>
<!-- Generator: Adobe Illustrator 24.3.0, SVG Export Plug-In . SVG Version: 6.00 Build 0)  -->
<svg version="1.1" id="Laag_1" xmlns="http://www.w3.org/2000/svg" xmlns:xlink="http://www.w3.org/1999/xlink" x="0px" y="0px"
	 width="587.6px" height="94.1px" viewBox="0 0 587.6 94.1" style="enable-background:new 0 0 587.6 94.1;" xml:space="preserve">
<style type="text/css">
	.st0{fill:#FFFFFF;}
</style>
<g>
	<path class="st0" d="M18.8,30.2l1.5-3.6C24.6,15.9,27.4,9.3,28.4,7c1.1-2.3,1.9-3.7,2.4-4c0.4-0.3,1.1-0.5,2.1-0.5
		c0.2,0,0.3-0.2,0.3-0.7V1.2c0-0.3-0.2-0.5-0.6-0.5H22c-0.3,0-0.5,0.1-0.5,0.4v0.9c0,0.3,0.3,0.5,0.9,0.5c1.3,0,2.3,0.1,2.9,0.2
		c0.6,0.2,0.9,0.6,0.9,1.2c0,0.4-0.2,1.1-0.5,2l0,0c-1.2,3.5-3.2,8.6-5.9,15.5l-2.3,5.7c-1.1-2.7-2.2-5.5-3.3-8.3s-2.2-5.8-3.3-9
		C9.9,6.8,9.4,4.9,9.4,4.1c0-0.7,0.3-1.2,1-1.3s1.7-0.3,3.1-0.3c0.6,0,0.8-0.2,0.8-0.5V1.1c0-0.3-0.2-0.4-0.7-0.4h-13
		c-0.3,0-0.4,0.2-0.4,0.5v0.8c0,0.3,0.2,0.5,0.6,0.5c0.7,0,1.2,0.2,1.6,0.5c0.4,0.3,1,1.3,1.8,3s1.6,3.5,2.3,5.4l8.2,21.1l0.1,0.2
		c0.2,0.5,0.4,0.8,0.7,0.8H17c0.3,0,0.4-0.1,0.6-0.2s0.3-0.5,0.5-1.1C18.3,31.4,18.5,30.7,18.8,30.2z"/>
	<path class="st0" d="M67.4,31h-0.7c-0.4,0-0.8-0.2-1.2-0.5s-0.8-0.8-1.2-1.5c-0.4-0.8-1.7-3.4-3.7-7.7L51.3,0.1h-2.1L36.9,26.5
		c-1.4,3-2.8,4.5-4,4.5h-0.7c-0.2,0-0.4,0.1-0.4,0.4v0.8c0,0.3,0.1,0.5,0.2,0.5h10.7c0.2,0,0.3-0.1,0.3-0.4v-0.8
		c0-0.3-0.2-0.5-0.5-0.5h-1.2c-1.5,0-2.3-0.6-2.3-1.7c0-0.4,0.1-0.8,0.3-1.3l2.3-5.5H56l1.9,4.8c0.3,0.8,0.5,1.5,0.5,2
		c0,1.1-0.8,1.7-2.4,1.7h-1.3c-0.3,0-0.4,0.1-0.4,0.4v0.8c0,0.3,0.1,0.5,0.4,0.5h12.6c0,0,0.1,0,0.2-0.1c0.1,0,0.1,0,0.1,0l0.2-0.2
		v-1.1C67.8,31.1,67.7,31,67.4,31z M42.8,20.5L49,6.1l6.1,14.4H42.8z"/>
	<path class="st0" d="M106.3,0.7H94.5c-0.4,0-0.6,0.1-0.6,0.4v0.8c0,0.2,0.1,0.4,0.2,0.4c0.1,0.1,0.5,0.1,1,0.1c1.4,0,2.4,0.1,3,0.2
		s0.9,0.6,1,1.4s0.2,2,0.2,3.8v16.8l-4-5.1l-11.4-15l-2.9-4h-10c-0.2,0-0.4,0.2-0.4,0.6v0.7c0,0.2,0,0.4,0.1,0.4
		c0.1,0.1,0.2,0.1,0.5,0.1c2.4,0,3.8,0.3,4.1,0.8c0.3,0.6,0.4,2.1,0.4,4.6v18.5c0,1.5-0.1,2.5-0.3,3.1c-0.2,0.6-0.5,1-1.1,1.2
		S72.8,31,71.3,31c-0.5,0-0.7,0.2-0.7,0.7v0.6c0,0.3,0.1,0.4,0.4,0.4h12.3c0.2,0,0.3-0.1,0.3-0.3v-0.8c0-0.4-0.3-0.5-0.8-0.5
		c-1.1,0-2-0.1-2.5-0.2c-0.5-0.1-0.9-0.3-1.2-0.5c-0.5-0.5-0.8-2.6-0.8-6.2V5.6L82,10l14,18.3l2.4,3.2l1.2,1.7h2
		c0.2,0,0.3-0.2,0.3-0.5V7.9c0-2.3,0.1-3.8,0.3-4.5c0.1-0.4,0.4-0.7,1-0.8s1.5-0.2,2.8-0.2c0.5,0,0.7-0.1,0.7-0.4V1.2
		C106.7,0.9,106.5,0.7,106.3,0.7z"/>
	<path class="st0" d="M119,32.4v-0.8c0-0.3-0.2-0.5-0.5-0.5h-1.2c-1.5,0-2.3-0.6-2.3-1.7c0-0.4,0.1-0.8,0.3-1.3l2.3-5.5h14.1
		l1.9,4.8c0.3,0.8,0.5,1.5,0.5,2c0,1.1-0.8,1.7-2.4,1.7h-1.3c-0.3,0-0.4,0.1-0.4,0.4v0.8c0,0.3,0.1,0.5,0.4,0.5H143
		c0,0,0.1,0,0.2-0.1c0.1,0,0.1,0,0.1,0l0.2-0.2v-1.1c0-0.2-0.1-0.3-0.4-0.3h-0.7c-0.4,0-0.8-0.2-1.2-0.5s-0.8-0.8-1.2-1.5
		c-0.4-0.8-1.7-3.4-3.7-7.7l-9.2-21.1H125l-12.3,26.4c-1.4,3-2.8,4.5-4,4.5h-0.7c-0.2,0-0.4,0.1-0.4,0.4v0.8c0,0.3,0.1,0.5,0.2,0.5
		h10.7C118.9,32.7,119,32.6,119,32.4z M124.8,6.1l6.1,14.4h-12.4L124.8,6.1z"/>
	<path class="st0" d="M170.1,0.7h-23.6c-0.2,0-0.3,0.1-0.3,0.4v1.2c0,0.1,0.2,0.2,0.7,0.2c1.4,0,2.3,0.1,2.7,0.3
		c0.4,0.2,0.7,0.9,0.9,1.9c0.2,1.1,0.2,2.9,0.2,5.4v13.5c0,2.8-0.1,4.7-0.4,5.8c-0.1,0.3-0.2,0.6-0.3,0.7c-0.2,0.3-0.6,0.5-1.2,0.7
		c-0.6,0.2-1.4,0.3-2.3,0.3c-0.3,0-0.4,0.2-0.4,0.5v0.8c0,0.3,0.1,0.4,0.4,0.4h14.7c0.3,0,0.4-0.1,0.4-0.3v-1.2
		c0-0.2-0.2-0.3-0.5-0.3c-1.5,0-2.8-0.1-3.8-0.3c-0.5-0.1-0.9-0.2-1.1-0.4c-0.3-0.1-0.4-0.6-0.5-1.3c-0.2-1.3-0.3-3.2-0.3-5.7v-6
		h7.7c0.9,0,1.6,0.1,2.1,0.3c0.5,0.2,0.9,0.7,1.1,1.5c0.2,0.8,0.3,1.7,0.3,2.7c0,0.4,0.1,0.7,0.4,0.7h1c0.3,0,0.4-0.2,0.4-0.5V11
		c0-0.4-0.2-0.6-0.5-0.6h-0.7c-0.2,0-0.3,0-0.4,0.1c0,0.1-0.1,0.3-0.1,0.7c0,0.9-0.1,1.7-0.3,2.5s-0.6,1.3-1.2,1.5
		c-0.6,0.2-1.6,0.3-3,0.3h-6.8V7.7c0-2.2,0-3.8,0.1-4.9h7.1c1.9,0,3.2,0.1,4.1,0.2c0.8,0.2,1.4,0.6,1.7,1.2c0.3,0.7,0.4,1.5,0.4,2.4
		c0,0.1,0,0.3,0,0.4v0.1c0,0.3,0.2,0.5,0.7,0.5h0.6c0.3,0,0.5-0.1,0.5-0.2V1.2C170.5,0.9,170.4,0.7,170.1,0.7z"/>
	<path class="st0" d="M188.1,32.7h20.3c0.2,0,0.3-0.2,0.3-0.6v-6.2c0-0.3-0.1-0.4-0.2-0.4h-1.1c-0.3,0-0.4,0.2-0.4,0.5
		c0,0.4,0,0.8-0.1,1.1c-0.1,0.3-0.2,0.6-0.3,0.8c-0.5,0.6-2.5,1-6.2,1h-8.2v-0.1c2-1.5,4.5-3.7,7.6-6.6c3-2.9,5.2-5.4,6.4-7.5
		c1.2-2.1,1.8-4.2,1.8-6.3c0-2.5-0.8-4.5-2.5-6.1c-1.7-1.6-3.9-2.3-6.5-2.3c-2.7,0-5.1,0.8-7.1,2.5c-0.8,0.7-1.5,1.5-2.1,2.4
		c-0.6,0.9-0.9,1.5-0.9,1.9c0,0.1,0,0.1,0.1,0.2l1,0.5c0,0,0.1,0,0.1,0c0.1,0,0.3-0.1,0.5-0.4c1.7-2.5,3.9-3.8,6.7-3.8
		c1.7,0,3.1,0.6,4.3,1.9c1.2,1.3,1.7,2.8,1.7,4.6c0,2.5-1.1,5.3-3.4,8.4c-2.2,3.1-5.6,6.5-10,10.2c-0.9,0.7-1.6,1.4-2.1,1.8v2.1
		C187.7,32.6,187.9,32.7,188.1,32.7z"/>
	<path class="st0" d="M233.5,28.5c2.3-3.3,3.5-7.6,3.5-12.9c0-4.8-1-8.6-3.1-11.4c-2-2.8-4.7-4.2-8.1-4.2c-3.7,0-6.7,1.6-9,4.9
		c-2.3,3.3-3.4,7.7-3.4,13.2c0,4.8,1,8.6,3.1,11.3c2,2.7,4.8,4,8.2,4C228.3,33.4,231.2,31.8,233.5,28.5z M220.1,27.6
		c-1.2-2.6-1.8-6.4-1.8-11.5c0-9.5,2.2-14.3,6.7-14.3c4.7,0,7,5.3,7,15.8c0,4.5-0.6,7.9-1.8,10.3c-1.2,2.4-2.9,3.6-5,3.6
		C223,31.6,221.3,30.3,220.1,27.6z"/>
	<path class="st0" d="M268.7,28.8c0.9-1.5,1.3-3.8,1.3-7l-0.1-4.5L269.7,9c0-1.5,0-2.8,0.1-3.8s0.2-1.6,0.3-2
		c0.2-0.5,1.4-0.8,3.5-0.8c0.4,0,0.6-0.2,0.6-0.5V1c0-0.2-0.2-0.2-0.5-0.2h-13.5c-0.4,0-0.5,0.2-0.5,0.5v0.7c0,0.4,0.3,0.6,0.9,0.6
		c1.1,0,1.9,0.1,2.5,0.2c0.6,0.1,1,0.3,1.2,0.5c0.2,0.2,0.4,1.2,0.6,3c0.2,2.5,0.3,5.8,0.3,10.1V23c0,3.2-0.4,5.4-1.3,6.6
		c-0.9,1.2-2.2,1.8-3.8,1.8c-1.1,0-2-0.3-2.9-0.8c-0.7-0.4-1.1-0.9-1.3-1.3c-0.2-0.4-0.3-1.2-0.5-2.5c-0.2-1.2-0.3-1.8-0.4-1.8h-1.2
		c-0.2,0-0.2,0.2-0.2,0.5v7c2,0.5,3.9,0.7,5.7,0.7c2.2,0,4.2-0.4,5.9-1.2C266.6,31.4,267.8,30.3,268.7,28.8z"/>
	<path class="st0" d="M286,31h-1.2c-1.5,0-2.3-0.6-2.3-1.7c0-0.4,0.1-0.8,0.3-1.3l2.3-5.5h14.1l1.9,4.8c0.3,0.8,0.5,1.5,0.5,2
		c0,1.1-0.8,1.7-2.4,1.7h-1.3c-0.3,0-0.4,0.1-0.4,0.4v0.8c0,0.3,0.1,0.5,0.4,0.5h12.6c0,0,0.1,0,0.2-0.1c0.1,0,0.1,0,0.1,0l0.2-0.2
		v-1.1c0-0.2-0.1-0.3-0.4-0.3h-0.7c-0.4,0-0.8-0.2-1.2-0.5c-0.4-0.3-0.8-0.8-1.2-1.5c-0.4-0.8-1.7-3.4-3.7-7.7l-9.2-21.1h-2.1
		l-12.3,26.4c-1.4,3-2.8,4.5-4,4.5h-0.7c-0.2,0-0.4,0.1-0.4,0.4v0.8c0,0.3,0.1,0.5,0.2,0.5h10.7c0.2,0,0.3-0.1,0.3-0.4v-0.8
		C286.5,31.2,286.4,31,286,31z M292.3,6.1l6.1,14.4H286L292.3,6.1z"/>
	<path class="st0" d="M326,31c-1.1,0-2-0.1-2.5-0.2s-0.9-0.3-1.2-0.5c-0.5-0.5-0.8-2.6-0.8-6.2V5.6l3.7,4.3l14,18.3l2.4,3.2l1.2,1.7
		h2c0.2,0,0.3-0.2,0.3-0.5V7.9c0-2.3,0.1-3.8,0.3-4.5c0.1-0.4,0.4-0.7,1-0.8s1.5-0.2,2.8-0.2c0.5,0,0.7-0.1,0.7-0.4V1.2
		c0-0.3-0.1-0.5-0.4-0.5h-11.8c-0.4,0-0.6,0.1-0.6,0.4v0.8c0,0.2,0.1,0.4,0.2,0.4c0.1,0.1,0.5,0.1,1,0.1c1.5,0,2.4,0.1,3,0.2
		s0.9,0.6,1,1.4s0.2,2,0.2,3.8v16.8l-4-5.1l-11.4-15l-2.9-4h-10c-0.2,0-0.4,0.2-0.4,0.6v0.7c0,0.2,0,0.4,0.1,0.4s0.2,0.1,0.5,0.1
		c2.4,0,3.8,0.3,4.1,0.8c0.3,0.6,0.4,2.1,0.4,4.6v18.5c0,1.5-0.1,2.5-0.3,3.1s-0.5,1-1.1,1.2s-1.5,0.3-3.1,0.3
		c-0.5,0-0.7,0.2-0.7,0.7v0.6c0,0.3,0.1,0.4,0.4,0.4h12.3c0.2,0,0.3-0.1,0.3-0.3v-0.8C326.8,31.2,326.5,31,326,31z"/>
	<path class="st0" d="M360.8,30.5c2.1,1.9,5.1,2.9,9,2.9c3.4,0,6.1-1,8.4-3.1c2.2-2.1,3.4-5.3,3.4-9.9V8.2c0-2,0.1-3.5,0.4-4.4
		c0.1-0.5,0.5-0.9,1-1.1c0.5-0.2,1.3-0.3,2.3-0.3c0.4,0,0.7,0,0.8-0.1c0.1-0.1,0.2-0.2,0.2-0.5V1c0-0.2-0.1-0.3-0.4-0.3h-11.5
		c-0.5,0-0.7,0.2-0.7,0.5v0.8c0,0.3,0.3,0.5,0.9,0.5c1.1,0,2,0.1,2.6,0.2c0.6,0.1,1,0.3,1.1,0.7c0.2,0.3,0.3,0.8,0.4,1.5
		c0.3,1.6,0.4,3.5,0.4,5.6v8c0,3.2-0.3,5.7-0.8,7.3c-0.5,1.6-1.5,2.9-2.9,3.8c-1.4,1-3,1.5-4.7,1.5c-1.7,0-3.1-0.4-4.5-1.2
		c-1.3-0.8-2.3-1.9-2.9-3.4c-0.6-1.5-0.9-4-0.9-7.6V9.2c0-2.2,0.1-3.9,0.4-5c0.1-0.4,0.2-0.7,0.3-0.9c0.2-0.3,0.5-0.5,1.1-0.6
		c0.5-0.1,1.4-0.2,2.7-0.2c0.3,0,0.5,0,0.6-0.1s0.1-0.3,0.1-0.5V1.1c0-0.2-0.1-0.4-0.4-0.4h-13.8c-0.3,0-0.5,0.1-0.5,0.2v1
		c0,0.3,0.3,0.5,0.8,0.5c1.4,0,2.3,0.1,2.8,0.2c0.5,0.2,0.8,0.5,1,1.2c0.2,0.6,0.2,1.7,0.2,3.3v14.9
		C357.7,25.8,358.8,28.6,360.8,30.5z"/>
	<path class="st0" d="M420.8,31H420c-0.4,0-0.8-0.2-1.2-0.5c-0.4-0.3-0.8-0.8-1.2-1.5c-0.4-0.8-1.7-3.4-3.7-7.7l-9.2-21.1h-2.1
		l-12.3,26.4c-1.4,3-2.8,4.5-4,4.5h-0.7c-0.2,0-0.4,0.1-0.4,0.4v0.8c0,0.3,0.1,0.5,0.2,0.5h10.7c0.2,0,0.3-0.1,0.3-0.4v-0.8
		c0-0.3-0.2-0.5-0.5-0.5H395c-1.5,0-2.3-0.6-2.3-1.7c0-0.4,0.1-0.8,0.3-1.3l2.3-5.5h14.1l1.9,4.8c0.3,0.8,0.5,1.5,0.5,2
		c0,1.1-0.8,1.7-2.4,1.7H408c-0.3,0-0.4,0.1-0.4,0.4v0.8c0,0.3,0.1,0.5,0.4,0.5h12.6c0,0,0.1,0,0.2-0.1c0.1,0,0.1,0,0.1,0l0.2-0.2
		v-1.1C421.2,31.1,421,31,420.8,31z M396.1,20.5l6.3-14.4l6.1,14.4H396.1z"/>
	<path class="st0" d="M453.9,30.9c-0.7-0.1-1.1-0.2-1.5-0.5c-0.6-0.4-1.8-2-3.8-4.9c-2-2.9-4-6-6.1-9.3c2.3-0.6,4.1-1.6,5.4-3
		s1.9-3,1.9-4.9c0-1.4-0.4-2.7-1.2-4c-0.8-1.3-2-2.2-3.6-2.8c-1.5-0.6-3.2-0.9-4.9-0.9h-15.3c-0.3,0-0.5,0.1-0.5,0.3v0.8
		c0,0.4,0.3,0.6,0.9,0.6c1.2,0,2.1,0.1,2.5,0.2s0.8,0.7,0.9,1.6c0.1,0.9,0.2,2.7,0.2,5.3v13.5c0,1.8,0,3.3-0.1,4.6
		c-0.1,1.3-0.2,2.2-0.3,2.6c-0.2,0.5-1.2,0.7-3.1,0.7c-0.6,0-1,0.2-1,0.6v0.9c0,0.2,0.1,0.3,0.4,0.3h13.4c0.3,0,0.5-0.1,0.5-0.3
		v-1.1c0-0.2-0.2-0.4-0.6-0.4c-1.1,0-2,0-2.6-0.1s-1-0.2-1.2-0.3c-0.5-0.3-0.7-2.4-0.7-6.3v-7.1h2l2.4-0.2
		c4.5,6.7,7.5,11.7,8.9,14.8c0.3,0.7,0.5,1,0.8,1h6.7c0.3,0,0.5-0.1,0.5-0.4v-0.9C454.7,31.2,454.5,31,453.9,30.9z M434.1,15.4h-0.6
		V2.5l2.9-0.1c2.2,0,3.9,0.2,5,0.6c1.1,0.4,1.9,1.1,2.4,2.1c0.5,1,0.8,2.1,0.8,3.3c0,2.3-0.9,4-2.6,5.1
		C440.4,14.8,437.7,15.4,434.1,15.4z"/>
	<path class="st0" d="M472.3,0.7h-14.5c-0.3,0-0.5,0.1-0.5,0.2v1.1c0,0.2,0.3,0.3,1,0.3c1.2,0,2.2,0.1,2.8,0.2s1.1,0.5,1.3,0.9
		c0.2,0.4,0.3,1.3,0.3,2.7v15.6c0,2.6,0,4.6-0.1,5.8c-0.1,1.3-0.2,2.1-0.4,2.5c-0.3,0.5-1.6,0.8-4.1,0.8c-0.1,0-0.1,0-0.2,0
		c-0.3,0-0.5,0.1-0.5,0.4v0.9c0,0.3,0.1,0.4,0.3,0.4h14.6c0.2,0,0.3,0,0.4-0.1c0,0,0.1-0.2,0.1-0.5v-0.8c0-0.2-0.2-0.3-0.6-0.3
		c-1.8,0-3-0.1-3.5-0.2c-0.5-0.2-0.8-0.5-0.9-0.9c-0.2-0.8-0.3-2.2-0.3-4.2V8.6c0-1.7,0-2.9,0.1-3.7c0.1-0.8,0.3-1.3,0.5-1.6
		c0.4-0.6,1.8-0.9,4-0.9c0.5,0,0.8-0.1,0.8-0.3v-1C472.8,0.8,472.6,0.7,472.3,0.7z"/>
	<path class="st0" d="M510.7,25.5h-1.1c-0.3,0-0.4,0.2-0.4,0.5c0,0.4,0,0.8-0.1,1.1c-0.1,0.3-0.2,0.6-0.3,0.8c-0.5,0.6-2.5,1-6.2,1
		h-8.2v-0.1c2-1.5,4.5-3.7,7.6-6.6c3-2.9,5.2-5.4,6.4-7.5c1.2-2.1,1.8-4.2,1.8-6.3c0-2.5-0.8-4.5-2.5-6.1c-1.7-1.6-3.9-2.3-6.5-2.3
		c-2.7,0-5.1,0.8-7.1,2.5c-0.8,0.7-1.5,1.5-2.1,2.4c-0.6,0.9-0.9,1.5-0.9,1.9c0,0.1,0,0.1,0.1,0.2l1,0.5c0,0,0.1,0,0.1,0
		c0.1,0,0.3-0.1,0.5-0.4c1.7-2.5,3.9-3.8,6.7-3.8c1.7,0,3.1,0.6,4.3,1.9s1.7,2.8,1.7,4.6c0,2.5-1.1,5.3-3.4,8.4
		c-2.2,3.1-5.6,6.5-10,10.2c-0.9,0.7-1.6,1.4-2.1,1.8v2.1c0,0.2,0.1,0.3,0.4,0.3h20.3c0.2,0,0.3-0.2,0.3-0.6v-6.2
		C510.9,25.6,510.8,25.5,510.7,25.5z"/>
	<path class="st0" d="M528.4,0c-3.7,0-6.7,1.6-9,4.9c-2.3,3.3-3.4,7.7-3.4,13.2c0,4.8,1,8.6,3.1,11.3c2,2.7,4.8,4,8.2,4
		c3.5,0,6.4-1.6,8.8-4.9c2.3-3.3,3.5-7.6,3.5-12.9c0-4.8-1-8.6-3.1-11.4S531.7,0,528.4,0z M532.8,28c-1.2,2.4-2.9,3.6-5,3.6
		c-2.2,0-4-1.3-5.1-3.9c-1.2-2.6-1.8-6.4-1.8-11.5c0-9.5,2.2-14.3,6.7-14.3c4.7,0,7,5.3,7,15.8C534.6,22.2,534,25.6,532.8,28z"/>
	<path class="st0" d="M564.5,25.5h-1.1c-0.3,0-0.4,0.2-0.4,0.5c0,0.4,0,0.8-0.1,1.1c-0.1,0.3-0.2,0.6-0.3,0.8c-0.5,0.6-2.5,1-6.2,1
		h-8.2v-0.1c2-1.5,4.5-3.7,7.6-6.6c3-2.9,5.2-5.4,6.4-7.5c1.2-2.1,1.8-4.2,1.8-6.3c0-2.5-0.8-4.5-2.5-6.1C559.8,0.8,557.6,0,555,0
		c-2.7,0-5.1,0.8-7.1,2.5c-0.8,0.7-1.5,1.5-2.1,2.4c-0.6,0.9-0.9,1.5-0.9,1.9c0,0.1,0,0.1,0.1,0.2l1,0.5c0,0,0.1,0,0.1,0
		c0.1,0,0.3-0.1,0.5-0.4c1.7-2.5,3.9-3.8,6.7-3.8c1.7,0,3.1,0.6,4.3,1.9s1.7,2.8,1.7,4.6c0,2.5-1.1,5.3-3.4,8.4
		c-2.2,3.1-5.6,6.5-10,10.2c-0.9,0.7-1.6,1.4-2.1,1.8v2.1c0,0.2,0.1,0.3,0.4,0.3h20.3c0.2,0,0.3-0.2,0.3-0.6v-6.2
		C564.7,25.6,564.6,25.5,564.5,25.5z"/>
	<path class="st0" d="M587.3,31h-1.4c-1.4,0-2.3-0.3-2.9-1c-0.5-0.7-0.8-2-0.8-4V3.8c0-0.8,0-1.7,0.1-2.6c0-0.4,0.1-0.6,0.1-0.7
		c0-0.3-0.1-0.5-0.4-0.5c-0.1,0-0.2,0-0.5,0.1c-1.9,0.3-3.8,0.5-5.5,0.5h-2.3c-0.3,0-0.5,0.2-0.5,0.5V2c0,0.2,0.2,0.3,0.7,0.3
		c1.9,0,3,0.3,3.4,0.9c0.4,0.6,0.6,1.9,0.6,4v18.3c0,1.8-0.1,3.1-0.4,3.7c-0.2,0.7-0.6,1.1-1.2,1.4s-1.4,0.4-2.5,0.4h-1
		c-0.2,0-0.3,0-0.3,0.1c0,0,0,0.2,0,0.4v1c0,0.2,0.1,0.3,0.4,0.3h13.9c0.5,0,0.8-0.1,0.8-0.2v-1.1C587.6,31.2,587.5,31,587.3,31z"/>
	<path class="st0" d="M15,61.7H0.5c-0.3,0-0.5,0.1-0.5,0.2v1.1c0,0.2,0.3,0.3,1,0.3c1.2,0,2.2,0.1,2.8,0.2c0.7,0.2,1.1,0.5,1.3,0.9
		c0.2,0.4,0.3,1.3,0.3,2.7v15.6c0,2.6,0,4.6-0.1,5.8S5,90.8,4.9,91.2C4.6,91.8,3.2,92,0.7,92c-0.1,0-0.1,0-0.2,0
		C0.2,92,0,92.1,0,92.4v0.9c0,0.3,0.1,0.4,0.3,0.4h14.6c0.2,0,0.3,0,0.4-0.1c0,0,0.1-0.2,0.1-0.5v-0.8c0-0.2-0.2-0.3-0.6-0.3
		c-1.8,0-3-0.1-3.5-0.2c-0.5-0.2-0.8-0.5-0.9-0.9c-0.2-0.8-0.3-2.2-0.3-4.2V69.6c0-1.7,0-2.9,0.1-3.7c0.1-0.8,0.3-1.3,0.5-1.6
		c0.4-0.6,1.8-0.9,4-0.9c0.5,0,0.8-0.1,0.8-0.3v-1C15.4,61.8,15.3,61.7,15,61.7z"/>
	<path class="st0" d="M53.6,61.7H41.8c-0.4,0-0.6,0.1-0.6,0.4v0.8c0,0.2,0.1,0.4,0.2,0.4c0.1,0.1,0.5,0.1,1,0.1c1.4,0,2.4,0.1,3,0.2
		c0.5,0.2,0.9,0.6,1,1.4s0.2,2,0.2,3.8v16.8l-4-5.1l-11.4-15l-2.9-4h-10c-0.2,0-0.4,0.2-0.4,0.6v0.7c0,0.2,0,0.4,0.1,0.4
		c0.1,0.1,0.2,0.1,0.5,0.1c2.4,0,3.8,0.3,4.1,0.8s0.4,2.1,0.4,4.6v18.5c0,1.5-0.1,2.5-0.3,3.1c-0.2,0.6-0.5,1-1.1,1.2
		c-0.5,0.2-1.5,0.3-3.1,0.3c-0.5,0-0.7,0.2-0.7,0.7v0.6c0,0.3,0.1,0.4,0.4,0.4h12.3c0.2,0,0.3-0.1,0.3-0.3v-0.8
		c0-0.4-0.3-0.5-0.8-0.5c-1.1,0-2-0.1-2.5-0.2c-0.5-0.1-0.9-0.3-1.2-0.5c-0.5-0.5-0.8-2.6-0.8-6.2V66.6l3.7,4.3l14,18.3l2.4,3.2
		l1.2,1.7h2c0.2,0,0.3-0.2,0.3-0.5V68.9c0-2.3,0.1-3.8,0.3-4.5c0.1-0.4,0.4-0.7,1-0.8c0.5-0.1,1.5-0.2,2.8-0.2
		c0.5,0,0.7-0.1,0.7-0.4v-0.9C54,61.9,53.9,61.7,53.6,61.7z"/>
	<path class="st0" d="M105.9,61.7H92.2c-0.2,0-0.3,0.1-0.3,0.4v1c0,0.2,0.3,0.3,0.8,0.3c1.2,0,2.1,0.1,2.7,0.2c0.6,0.2,1,0.5,1.1,1
		c0.3,0.8,0.4,2.3,0.4,4.6v6.4H80v-5.1c0-1.8,0.1-3.3,0.2-4.4c0.1-1.1,0.3-1.9,0.6-2.2c0.3-0.4,1.5-0.6,3.7-0.6
		c0.4,0,0.6-0.2,0.6-0.5V62c0-0.2-0.1-0.3-0.4-0.3H70.7c-0.3,0-0.4,0-0.4,0.1c0,0.1-0.1,0.2-0.1,0.3v0.8c0,0.2,0.1,0.3,0.2,0.4
		c0.1,0.1,0.4,0.1,0.8,0.1c1.4,0,2.4,0.1,2.9,0.2c0.5,0.2,0.8,0.5,0.9,0.9c0.2,0.8,0.4,3,0.4,6.8v16.3c0,1.3-0.1,2.4-0.4,3.2
		c-0.1,0.4-0.2,0.6-0.4,0.8c-0.1,0.1-0.5,0.3-1,0.3C73,92,72,92,70.7,92c-0.3,0-0.5,0.1-0.5,0.4v1c0,0.2,0.1,0.3,0.2,0.3h14.3
		c0.2,0,0.3-0.1,0.3-0.4v-0.9c0-0.3-0.2-0.5-0.5-0.5c-0.1,0-0.2,0-0.2,0c-0.9,0-1.6,0-2.2-0.1c-0.6-0.1-1-0.2-1.2-0.3
		c-0.6-0.4-0.9-2.5-0.9-6.4v-7h16.9v7.6c0,2.2-0.1,3.8-0.2,4.8c-0.1,0.3-0.1,0.6-0.2,0.7c-0.1,0.2-0.4,0.4-0.9,0.6
		C95,92,94,92,92.3,92c-0.3,0-0.5,0.1-0.5,0.4v1.1c0,0.1,0.1,0.2,0.3,0.2h14c0.3,0,0.4-0.2,0.4-0.5v-0.9c0-0.2-0.3-0.3-0.8-0.3
		c-0.7,0-1.4,0-1.9-0.1s-1-0.2-1.3-0.3c-0.3-0.1-0.5-0.5-0.7-1c-0.3-1-0.4-1.9-0.4-2.8V69.7c0-1.7,0.1-3,0.2-3.9
		c0.1-0.9,0.3-1.6,0.6-1.8c0.4-0.4,1.6-0.6,3.6-0.6c0.5,0,0.7-0.1,0.7-0.4V62C106.6,61.8,106.3,61.7,105.9,61.7z"/>
	<path class="st0" d="M135.4,86h-1.1c-0.2,0-0.3,0.2-0.3,0.7c0,0.9-0.1,1.7-0.1,2.3s-0.2,1.2-0.4,1.5c-0.2,0.3-0.6,0.6-1.2,0.8
		c-1.2,0.3-3.1,0.5-5.6,0.5h-7.5c-0.1-2.2-0.2-4.4-0.2-6.6v-7h9.4c1.4,0,2.3,0.3,2.8,0.8c0.5,0.5,0.7,1.6,0.7,3.1
		c0,0.4,0.1,0.6,0.3,0.6h1c0.3,0,0.4-0.2,0.4-0.5V72c0-0.4-0.1-0.5-0.4-0.5h-0.9c-0.3,0-0.5,0.3-0.5,0.9c0,1.6-0.3,2.6-0.8,3.1
		c-0.5,0.5-1.6,0.7-3.3,0.7H119v-8l0.1-2.2l0.1-2.2h11.3c1,0,1.8,0.3,2.2,0.8c0.4,0.6,0.6,1.7,0.6,3.5c0,0.4,0.1,0.5,0.4,0.5h1.1
		c0.2,0,0.2-0.2,0.2-0.6v-5.8c0-0.3-0.2-0.5-0.6-0.5h-24.5c-0.4,0-0.6,0.1-0.6,0.3v1.1c0,0.2,0.3,0.3,0.8,0.3c1.7,0,2.8,0.3,3.4,0.8
		s0.8,1.9,0.8,4.2v15.8c0,2.7-0.1,4.7-0.4,5.9c-0.1,0.6-0.2,1-0.4,1.2c-0.2,0.2-0.6,0.4-1.3,0.5c-0.7,0.2-1.5,0.2-2.4,0.2
		c-0.4,0-0.6,0.1-0.6,0.3v1c0,0.3,0.1,0.4,0.3,0.4h25.8c0.2,0,0.3-0.1,0.3-0.3v-7.1C135.7,86.1,135.6,86,135.4,86z"/>
	<path class="st0" d="M168.6,61.7h-28.1c-0.3,0-0.4,0.2-0.4,0.7v7.9c0,0.2,0.1,0.3,0.3,0.3h0.9c0.3,0,0.4-0.3,0.5-1
		c0.2-1.4,0.4-2.5,0.6-3.3c0.2-0.7,0.5-1.3,0.8-1.6c0.3-0.3,0.9-0.4,1.7-0.4h7.4v20.4c0,2.2-0.2,3.9-0.5,5.3
		c-0.2,0.7-0.4,1.2-0.6,1.4c-0.3,0.2-0.7,0.4-1.3,0.5c-0.6,0.1-1.6,0.1-2.9,0.1c-0.3,0-0.5,0.1-0.5,0.4v0.9c0,0.3,0.1,0.4,0.4,0.4
		h15.3c0.2,0,0.3-0.1,0.3-0.3v-1.2c0-0.2-0.2-0.3-0.7-0.3c-1.4,0-2.3-0.1-2.9-0.2c-0.6-0.1-1-0.3-1.3-0.5c-0.5-0.5-0.7-3.2-0.7-8.2
		V64.3h7.3c1,0,1.7,0.3,2,0.8c0.3,0.5,0.7,2.1,1.1,4.8c0.1,0.4,0.1,0.6,0.1,0.6c0,0.1,0.1,0.1,0.2,0.1h1.1c0.2,0,0.3-0.2,0.3-0.5
		v-7.9C169.2,61.9,169,61.7,168.6,61.7z"/>
	<path class="st0" d="M215.1,61.7H187c-0.3,0-0.4,0.2-0.4,0.7v7.9c0,0.2,0.1,0.3,0.3,0.3h0.9c0.3,0,0.4-0.3,0.5-1
		c0.2-1.4,0.4-2.5,0.6-3.3c0.2-0.7,0.5-1.3,0.8-1.6c0.3-0.3,0.9-0.4,1.7-0.4h7.4v20.4c0,2.2-0.2,3.9-0.5,5.3
		c-0.2,0.7-0.4,1.2-0.6,1.4c-0.3,0.2-0.7,0.4-1.3,0.5c-0.6,0.1-1.6,0.1-2.9,0.1c-0.3,0-0.5,0.1-0.5,0.4v0.9c0,0.3,0.1,0.4,0.4,0.4
		h15.3c0.2,0,0.3-0.1,0.3-0.3v-1.2c0-0.2-0.2-0.3-0.7-0.3c-1.4,0-2.3-0.1-2.9-0.2c-0.6-0.1-1-0.3-1.3-0.5c-0.5-0.5-0.7-3.2-0.7-8.2
		V64.3h7.3c1,0,1.7,0.3,2,0.8c0.3,0.5,0.7,2.1,1.1,4.8c0.1,0.4,0.1,0.6,0.1,0.6c0,0.1,0.1,0.1,0.2,0.1h1.1c0.2,0,0.3-0.2,0.3-0.5
		v-7.9C215.6,61.9,215.5,61.7,215.1,61.7z"/>
	<path class="st0" d="M255.1,61.7h-13.8c-0.2,0-0.3,0.1-0.3,0.4v1c0,0.2,0.3,0.3,0.8,0.3c1.2,0,2.1,0.1,2.7,0.2c0.6,0.2,1,0.5,1.1,1
		c0.3,0.8,0.4,2.3,0.4,4.6v6.4h-16.9v-5.1c0-1.8,0.1-3.3,0.2-4.4c0.1-1.1,0.3-1.9,0.6-2.2c0.3-0.4,1.5-0.6,3.7-0.6
		c0.4,0,0.6-0.2,0.6-0.5V62c0-0.2-0.1-0.3-0.4-0.3h-13.9c-0.3,0-0.4,0-0.4,0.1c0,0.1-0.1,0.2-0.1,0.3v0.8c0,0.2,0.1,0.3,0.2,0.4
		c0.1,0.1,0.4,0.1,0.8,0.1c1.4,0,2.4,0.1,2.9,0.2c0.5,0.2,0.8,0.5,0.9,0.9c0.2,0.8,0.4,3,0.4,6.8v16.3c0,1.3-0.1,2.4-0.4,3.2
		c-0.1,0.4-0.2,0.6-0.4,0.8c-0.1,0.1-0.5,0.3-1,0.3c-0.6,0.1-1.5,0.1-2.8,0.1c-0.3,0-0.5,0.1-0.5,0.4v1c0,0.2,0.1,0.3,0.2,0.3h14.3
		c0.2,0,0.3-0.1,0.3-0.4v-0.9c0-0.3-0.2-0.5-0.5-0.5c-0.1,0-0.2,0-0.2,0c-0.9,0-1.6,0-2.2-0.1c-0.6-0.1-1-0.2-1.2-0.3
		c-0.6-0.4-0.9-2.5-0.9-6.4v-7H246v7.6c0,2.2-0.1,3.8-0.2,4.8c-0.1,0.3-0.1,0.6-0.2,0.7c-0.1,0.2-0.4,0.4-0.9,0.6
		c-0.5,0.1-1.5,0.2-3.2,0.2c-0.3,0-0.5,0.1-0.5,0.4v1.1c0,0.1,0.1,0.2,0.3,0.2h14c0.3,0,0.4-0.2,0.4-0.5v-0.9c0-0.2-0.3-0.3-0.8-0.3
		c-0.7,0-1.4,0-1.9-0.1s-1-0.2-1.3-0.3c-0.3-0.1-0.5-0.5-0.7-1c-0.3-1-0.4-1.9-0.4-2.8V69.7c0-1.7,0.1-3,0.2-3.9
		c0.1-0.9,0.3-1.6,0.6-1.8c0.4-0.4,1.6-0.6,3.6-0.6c0.5,0,0.7-0.1,0.7-0.4V62C255.7,61.8,255.5,61.7,255.1,61.7z"/>
	<path class="st0" d="M285.4,86h-1.1c-0.2,0-0.3,0.2-0.3,0.7c0,0.9-0.1,1.7-0.1,2.3s-0.2,1.2-0.4,1.5c-0.2,0.3-0.6,0.6-1.2,0.8
		c-1.2,0.3-3.1,0.5-5.6,0.5H269c-0.1-2.2-0.2-4.4-0.2-6.6v-7h9.4c1.4,0,2.3,0.3,2.8,0.8c0.5,0.5,0.7,1.6,0.7,3.1
		c0,0.4,0.1,0.6,0.3,0.6h1c0.3,0,0.4-0.2,0.4-0.5V72c0-0.4-0.1-0.5-0.4-0.5h-0.9c-0.3,0-0.5,0.3-0.5,0.9c0,1.6-0.3,2.6-0.8,3.1
		c-0.5,0.5-1.6,0.7-3.3,0.7h-8.7v-8l0.1-2.2l0.1-2.2h11.3c1,0,1.8,0.3,2.2,0.8c0.4,0.6,0.6,1.7,0.6,3.5c0,0.4,0.1,0.5,0.4,0.5h1.1
		c0.2,0,0.2-0.2,0.2-0.6v-5.8c0-0.3-0.2-0.5-0.6-0.5h-24.5c-0.4,0-0.6,0.1-0.6,0.3v1.1c0,0.2,0.3,0.3,0.8,0.3c1.7,0,2.8,0.3,3.4,0.8
		s0.8,1.9,0.8,4.2v15.8c0,2.7-0.1,4.7-0.4,5.9c-0.1,0.6-0.2,1-0.4,1.2c-0.2,0.2-0.6,0.4-1.3,0.5c-0.7,0.2-1.5,0.2-2.4,0.2
		c-0.4,0-0.6,0.1-0.6,0.3v1c0,0.3,0.1,0.4,0.3,0.4h25.8c0.2,0,0.3-0.1,0.3-0.3v-7.1C285.6,86.1,285.5,86,285.4,86z"/>
	<path class="st0" d="M325.1,92h-0.7c-0.4,0-0.8-0.2-1.2-0.5c-0.4-0.3-0.8-0.8-1.2-1.6c-0.4-0.8-1.7-3.4-3.7-7.7L309,61.1h-2.1
		l-12.3,26.4c-1.4,3-2.8,4.5-4,4.5H290c-0.2,0-0.4,0.1-0.4,0.4v0.8c0,0.3,0.1,0.5,0.2,0.5h10.7c0.2,0,0.3-0.1,0.3-0.4v-0.8
		c0-0.3-0.2-0.5-0.5-0.5h-1.2c-1.5,0-2.3-0.6-2.3-1.7c0-0.4,0.1-0.8,0.3-1.3l2.3-5.5h14.1l1.9,4.8c0.3,0.8,0.5,1.5,0.5,2
		c0,1.1-0.8,1.7-2.4,1.7h-1.3c-0.3,0-0.4,0.1-0.4,0.4v0.8c0,0.3,0.1,0.5,0.4,0.5h12.6c0,0,0.1,0,0.2-0.1c0.1,0,0.1,0,0.1,0l0.2-0.2
		v-1.1C325.5,92.1,325.4,92,325.1,92z M300.4,81.5l6.3-14.4l6.1,14.4H300.4z"/>
	<path class="st0" d="M355.8,61.7h-28.1c-0.3,0-0.4,0.2-0.4,0.7v7.9c0,0.2,0.1,0.3,0.3,0.3h0.9c0.3,0,0.4-0.3,0.5-1
		c0.2-1.4,0.4-2.5,0.6-3.3c0.2-0.7,0.5-1.3,0.8-1.6c0.3-0.3,0.9-0.4,1.7-0.4h7.4v20.4c0,2.2-0.2,3.9-0.5,5.3
		c-0.2,0.7-0.4,1.2-0.6,1.4s-0.7,0.4-1.3,0.5s-1.6,0.1-2.9,0.1c-0.3,0-0.5,0.1-0.5,0.4v0.9c0,0.3,0.1,0.4,0.4,0.4h15.3
		c0.2,0,0.3-0.1,0.3-0.3v-1.2c0-0.2-0.2-0.3-0.7-0.3c-1.4,0-2.3-0.1-2.9-0.2c-0.6-0.1-1-0.3-1.3-0.5c-0.5-0.5-0.7-3.2-0.7-8.2V64.3
		h7.3c1,0,1.7,0.3,2,0.8c0.3,0.5,0.7,2.1,1.1,4.8c0.1,0.4,0.1,0.6,0.1,0.6c0,0.1,0.1,0.1,0.2,0.1h1.1c0.2,0,0.3-0.2,0.3-0.5v-7.9
		C356.3,61.9,356.2,61.7,355.8,61.7z"/>
	<path class="st0" d="M385.9,86h-1.1c-0.2,0-0.3,0.2-0.3,0.7c0,0.9,0,1.7-0.1,2.3s-0.2,1.2-0.4,1.5c-0.2,0.3-0.6,0.6-1.2,0.8
		c-1.2,0.3-3.1,0.5-5.6,0.5h-7.5c-0.1-2.2-0.2-4.4-0.2-6.6v-7h9.4c1.4,0,2.3,0.3,2.8,0.8s0.7,1.6,0.7,3.1c0,0.4,0.1,0.6,0.3,0.6h1
		c0.3,0,0.4-0.2,0.4-0.5V72c0-0.4-0.1-0.5-0.4-0.5h-0.9c-0.3,0-0.5,0.3-0.5,0.9c0,1.6-0.3,2.6-0.8,3.1c-0.5,0.5-1.6,0.7-3.3,0.7
		h-8.7v-8l0.1-2.2l0.1-2.2h11.3c1,0,1.8,0.3,2.2,0.8c0.4,0.6,0.6,1.7,0.6,3.5c0,0.4,0.1,0.5,0.4,0.5h1.1c0.2,0,0.2-0.2,0.2-0.6v-5.8
		c0-0.3-0.2-0.5-0.6-0.5h-24.5c-0.4,0-0.6,0.1-0.6,0.3v1.1c0,0.2,0.3,0.3,0.8,0.3c1.7,0,2.8,0.3,3.4,0.8c0.6,0.5,0.8,1.9,0.8,4.2
		v15.8c0,2.7-0.1,4.7-0.4,5.9c-0.1,0.6-0.2,1-0.4,1.2c-0.2,0.2-0.6,0.4-1.3,0.5c-0.7,0.2-1.5,0.2-2.4,0.2c-0.4,0-0.6,0.1-0.6,0.3v1
		c0,0.3,0.1,0.4,0.3,0.4h25.8c0.2,0,0.3-0.1,0.3-0.3v-7.1C386.1,86.1,386,86,385.9,86z"/>
	<path class="st0" d="M419.4,91.9c-0.7-0.1-1.1-0.2-1.5-0.5c-0.6-0.4-1.8-2-3.8-4.9c-2-2.9-4-6-6.1-9.3c2.3-0.6,4.1-1.6,5.4-3
		c1.3-1.4,1.9-3,1.9-4.9c0-1.4-0.4-2.7-1.2-4c-0.8-1.3-2-2.2-3.6-2.8c-1.5-0.6-3.2-0.9-4.9-0.9h-15.3c-0.3,0-0.5,0.1-0.5,0.3v0.8
		c0,0.4,0.3,0.6,0.9,0.6c1.2,0,2.1,0.1,2.5,0.2c0.5,0.2,0.8,0.7,0.9,1.6c0.1,0.9,0.2,2.7,0.2,5.3v13.5c0,1.8,0,3.3-0.1,4.6
		c-0.1,1.3-0.2,2.2-0.3,2.6c-0.2,0.5-1.2,0.7-3.1,0.7c-0.6,0-1,0.2-1,0.6v0.9c0,0.2,0.1,0.3,0.4,0.3h13.4c0.3,0,0.5-0.1,0.5-0.3
		v-1.1c0-0.2-0.2-0.4-0.6-0.4c-1.1,0-2,0-2.6-0.1s-1-0.2-1.2-0.3c-0.5-0.3-0.7-2.4-0.7-6.3v-7.1h2l2.4-0.2
		c4.5,6.7,7.5,11.7,8.9,14.8c0.3,0.7,0.5,1,0.8,1h6.7c0.3,0,0.5-0.1,0.5-0.4v-0.9C420.2,92.2,419.9,92,419.4,91.9z M399.6,76.4h-0.6
		V63.5l2.9-0.1c2.2,0,3.9,0.2,5,0.6c1.1,0.4,1.9,1.1,2.4,2.1c0.5,1,0.8,2.1,0.8,3.3c0,2.3-0.9,4-2.6,5.1
		C405.8,75.8,403.2,76.4,399.6,76.4z"/>
</g>
</svg>
