<?xml version="1.0" encoding="utf-8"?>
<!-- Generator: Adobe Illustrator 24.3.0, SVG Export Plug-In . SVG Version: 6.00 Build 0)  -->
<svg version="1.1" id="Laag_1" xmlns="http://www.w3.org/2000/svg" xmlns:xlink="http://www.w3.org/1999/xlink" x="0px" y="0px"
	 width="385.8px" height="108.2px" viewBox="0 0 385.8 108.2" style="enable-background:new 0 0 385.8 108.2;" xml:space="preserve"
	>
<style type="text/css">
	.st0{fill:#FEE5D1;}
</style>
<g>
	<g>
		<path class="st0" d="M0,0.5h6.7v33.2H0V0.5z"/>
		<path class="st0" d="M8.8,0.5h7l0.6,4.6L18,21.4h0.3l-1-20.9h5.8v33.2h-7l-0.6-4.6l-1.7-17.4l-0.3,0l1.1,22H8.8V0.5z"/>
		<path class="st0" d="M25.1,29v-6.4h6.1v6.5c0,0.2,0.1,0.4,0.2,0.5c0.1,0.1,0.3,0.2,0.5,0.2c0.2,0,0.4-0.1,0.5-0.2
			c0.1-0.1,0.2-0.3,0.2-0.5c0-1.7-0.1-3-0.3-4.1c-0.2-1.2-0.5-2.3-0.8-3.2c-0.4-1-0.7-1.8-1.2-2.5c-0.4-0.7-1-1.5-1.6-2.5
			c-0.8-1.1-1.4-2.1-1.9-3C26.3,13,26,12,25.6,10.7c-0.3-1.2-0.5-2.7-0.5-4.4V5.2c0-1.8,0.6-3.1,1.7-4C28,0.4,29.6,0,31.7,0
			c2.3,0,4,0.5,5.1,1.4c1.1,0.9,1.7,2.2,1.7,3.8v4.8h-5.9V5.1c0-0.2-0.1-0.4-0.2-0.5c-0.1-0.1-0.3-0.2-0.5-0.2
			c-0.2,0-0.4,0.1-0.5,0.2s-0.2,0.3-0.2,0.5c0,1,0.1,2,0.3,2.9c0.2,1,0.5,1.8,1,2.6c0.4,0.7,1,1.7,1.8,2.8c0.9,1.3,1.7,2.6,2.3,3.7
			c0.6,1.1,1.1,2.5,1.5,4.3c0.4,1.8,0.6,3.9,0.6,6.4v1.5c0,1.6-0.7,2.8-1.8,3.6s-2.8,1.2-4.7,1.2C27.5,34.2,25.1,32.5,25.1,29z"/>
		<path class="st0" d="M42.6,32.4c-1.3-1.2-1.9-3-1.9-5.3V7c0-2.3,0.6-4.1,1.9-5.3C43.9,0.6,45.8,0,48.3,0c2.5,0,4.3,0.6,5.6,1.7
			c1.3,1.1,1.9,2.8,2,5.1v9.5h-7V6.2c0-0.5-0.2-0.7-0.7-0.7c-0.5,0-0.7,0.2-0.7,0.7v21.7c0,0.5,0.2,0.7,0.7,0.7
			c0.5,0,0.7-0.2,0.7-0.7V17.8h7v9.5c-0.1,2.3-0.8,4-2,5.1c-1.3,1.1-3.1,1.7-5.6,1.7C45.8,34.2,43.9,33.6,42.6,32.4z"/>
		<path class="st0" d="M58,0.5h6.7v33.2H58V0.5z"/>
		<path class="st0" d="M66.8,0.5h11v4.6h-4.2v10.4h3.3v3.5h-3.3v10.3h4.3v4.5H66.8V0.5z"/>
		<path class="st0" d="M79.7,0.5h7l0.6,4.6l1.5,16.3h0.3l-1-20.9H94v33.2h-7l-0.6-4.6l-1.7-17.4l-0.3,0l1.1,22h-5.8V0.5z"/>
		<path class="st0" d="M97.9,32.4c-1.3-1.2-1.9-3-1.9-5.3V7c0-2.3,0.6-4.1,1.9-5.3c1.3-1.2,3.2-1.8,5.7-1.8c2.5,0,4.3,0.6,5.6,1.7
			c1.3,1.1,1.9,2.8,2,5.1v9.5h-7V6.2c0-0.5-0.2-0.7-0.7-0.7c-0.5,0-0.7,0.2-0.7,0.7v21.7c0,0.5,0.2,0.7,0.7,0.7
			c0.5,0,0.7-0.2,0.7-0.7V17.8h7v9.5c-0.1,2.3-0.8,4-2,5.1c-1.3,1.1-3.1,1.7-5.6,1.7C101.1,34.2,99.2,33.6,97.9,32.4z"/>
		<path class="st0" d="M113.2,0.5h11v4.6h-4.2v10.4h3.3v3.5h-3.3v10.3h4.3v4.5h-11.1V0.5z"/>
	</g>
	<g>
		<path class="st0" d="M0,37.5h6.7v33.2H0V37.5z"/>
		<path class="st0" d="M8.8,37.5h7l0.6,4.6L18,58.4h0.3l-1-20.9h5.8v33.2h-7l-0.6-4.6l-1.7-17.4l-0.3,0l1.1,22H8.8V37.5z"/>
		<path class="st0" d="M27.4,42.4h-2.4v-5h11.6v5h-2.4v28.2h-6.7V42.4z"/>
		<path class="st0" d="M38.3,37.5h11v4.6h-4.2v10.4h3.3v3.5h-3.3v10.3h4.3v4.5H38.3V37.5z"/>
		<path class="st0" d="M59,70.7l-0.5-12h0h-0.9v12h-6.4V37.5h6.9c1.6,0,2.9,0.2,4,0.5c1,0.3,1.9,0.8,2.5,1.6
			c0.6,0.8,0.9,1.9,0.9,3.3v10.8c0,1.6-0.5,2.8-1.4,3.6l1.5,13.4H59z M58.9,54.7c0.1-0.2,0.2-0.4,0.2-0.8V43.1
			c0-0.4-0.1-0.6-0.2-0.7c-0.1-0.1-0.3-0.2-0.6-0.2h-0.6v12.8h0.6C58.5,54.9,58.7,54.8,58.9,54.7z"/>
		<path class="st0" d="M67.3,37.5h7l0.6,4.6l1.5,16.3h0.3l-1-20.9h5.8v33.2h-7l-0.6-4.6l-1.7-17.4l-0.3,0l1.1,22h-5.8V37.5z"/>
		<path class="st0" d="M91.8,66h-1.5l-0.1,4.7h-6.7l3.9-33.2h7.3l4,33.2h-6.7L91.8,66z M91.7,62.2l-0.5-15.5h-0.2l-0.5,15.5H91.7z"
			/>
		<path class="st0" d="M101.4,42.4H99v-5h11.6v5h-2.4v28.2h-6.7V42.4z"/>
		<path class="st0" d="M112.3,37.5h6.7v33.2h-6.7V37.5z"/>
		<path class="st0" d="M121,43.9c0-2.2,0.6-4,1.9-5.1c1.3-1.2,3.2-1.8,5.7-1.8c2.5,0,4.4,0.6,5.7,1.8c1.3,1.2,1.9,2.9,1.9,5.3v20
			c0,2.3-0.6,4.1-1.9,5.3c-1.3,1.2-3.2,1.8-5.7,1.8c-2.5,0-4.4-0.6-5.6-1.8c-1.3-1.2-1.9-3-2-5.3V43.9z M128.6,65.6
			c0.5,0,0.7-0.2,0.7-0.7V43.2c0-0.5-0.2-0.7-0.7-0.7c-0.5,0-0.7,0.2-0.7,0.7v21.7C128,65.4,128.2,65.6,128.6,65.6z"/>
		<path class="st0" d="M138.2,37.5h7l0.6,4.6l1.5,16.3h0.3l-1-20.9h5.8v33.2h-7l-0.6-4.6l-1.7-17.4l-0.3,0l1.1,22h-5.8V37.5z"/>
		<path class="st0" d="M162.7,66h-1.5l-0.1,4.7h-6.7l3.9-33.2h7.3l4,33.2h-6.7L162.7,66z M162.6,62.2l-0.5-15.5h-0.2l-0.5,15.5
			H162.6z"/>
		<path class="st0" d="M171.4,37.5h6.7v28.4h3.3v4.8h-10.1V37.5z"/>
	</g>
	<g>
		<path class="st0" d="M0,103v-6.4h6.1v6.5c0,0.2,0.1,0.4,0.2,0.5c0.1,0.1,0.3,0.2,0.5,0.2c0.2,0,0.4-0.1,0.5-0.2
			c0.1-0.1,0.2-0.3,0.2-0.5c0-1.7-0.1-3-0.3-4.1c-0.2-1.2-0.5-2.3-0.8-3.2c-0.4-1-0.7-1.8-1.2-2.5s-1-1.5-1.6-2.5
			c-0.8-1.1-1.4-2.1-1.9-3C1.2,87,0.8,86,0.5,84.7S0,82,0,80.3v-1.1c0-1.8,0.6-3.1,1.7-4C2.8,74.4,4.5,74,6.6,74
			c2.3,0,4,0.5,5.1,1.4c1.1,0.9,1.7,2.2,1.7,3.8v4.8H7.6v-4.9c0-0.2-0.1-0.4-0.2-0.5c-0.1-0.1-0.3-0.2-0.5-0.2
			c-0.2,0-0.4,0.1-0.5,0.2c-0.1,0.1-0.2,0.3-0.2,0.5c0,1,0.1,2,0.3,2.9c0.2,1,0.5,1.8,1,2.6c0.4,0.7,1,1.7,1.8,2.8
			c0.9,1.3,1.7,2.6,2.3,3.7c0.6,1.1,1.1,2.5,1.5,4.3s0.6,3.9,0.6,6.4v1.5c0,1.6-0.7,2.8-1.8,3.6c-1.2,0.8-2.8,1.2-4.7,1.2
			C2.4,108.2,0,106.5,0,103z"/>
		<path class="st0" d="M17.5,106.4c-1.3-1.2-1.9-3-1.9-5.3V81c0-2.3,0.6-4.1,1.9-5.3c1.3-1.2,3.2-1.8,5.7-1.8c2.5,0,4.3,0.6,5.6,1.7
			c1.3,1.1,1.9,2.8,2,5.1v9.5h-7V80.2c0-0.5-0.2-0.7-0.7-0.7c-0.5,0-0.7,0.2-0.7,0.7v21.7c0,0.5,0.2,0.7,0.7,0.7
			c0.5,0,0.7-0.2,0.7-0.7V91.8h7v9.5c-0.1,2.3-0.8,4-2,5.1c-1.3,1.1-3.1,1.7-5.6,1.7C20.7,108.2,18.8,107.6,17.5,106.4z"/>
		<path class="st0" d="M32.8,74.5h6.7v33.2h-6.7V74.5z"/>
		<path class="st0" d="M41.6,74.5h11v4.6h-4.2v10.4h3.3v3.5h-3.3v10.3h4.3v4.5H41.6V74.5z"/>
		<path class="st0" d="M54.5,74.5h7l0.6,4.6l1.5,16.3H64l-1-20.9h5.8v33.2h-7l-0.6-4.6l-1.7-17.4l-0.3,0l1.1,22h-5.8V74.5z"/>
		<path class="st0" d="M72.8,106.4c-1.3-1.2-1.9-3-1.9-5.3V81c0-2.3,0.6-4.1,1.9-5.3c1.3-1.2,3.2-1.8,5.7-1.8c2.5,0,4.3,0.6,5.6,1.7
			c1.3,1.1,1.9,2.8,2,5.1v9.5h-7V80.2c0-0.5-0.2-0.7-0.7-0.7c-0.5,0-0.7,0.2-0.7,0.7v21.7c0,0.5,0.2,0.7,0.7,0.7
			c0.5,0,0.7-0.2,0.7-0.7V91.8h7v9.5c-0.1,2.3-0.8,4-2,5.1c-1.3,1.1-3.1,1.7-5.6,1.7C76,108.2,74.1,107.6,72.8,106.4z"/>
		<path class="st0" d="M88.1,74.5h11v4.6h-4.2v10.4h3.3v3.5h-3.3v10.3h4.3v4.5H88.1V74.5z"/>
		<path class="st0" d="M109.1,74.5H120v4.6h-4.2v11.2h3.4v4.5h-3.4v12.9h-6.7V74.5z"/>
		<path class="st0" d="M121.9,74.5h6.7v33.2h-6.7V74.5z"/>
		<path class="st0" d="M130.8,74.5h6.7v28.4h3.3v4.8h-10.1V74.5z"/>
		<path class="st0" d="M142.7,74.5h8.3l1.1,22.5h0.3l1.2-22.5h8.3v33.2h-5.8l1-22.1h-0.4l-2.1,22.1H150l-2.2-22.1h-0.3l1,22.1h-5.8
			V74.5z"/>
		<path class="st0" d="M169.8,74.5h10.9v4.6h-4.2v11.2h3.4v4.5h-3.4v12.9h-6.7V74.5z"/>
		<path class="st0" d="M181.9,74.5h11v4.6h-4.2v10.4h3.3v3.5h-3.3v10.3h4.3v4.5h-11.1V74.5z"/>
		<path class="st0" d="M193.8,103v-6.4h6.1v6.5c0,0.2,0.1,0.4,0.2,0.5c0.1,0.1,0.3,0.2,0.5,0.2c0.2,0,0.4-0.1,0.5-0.2
			c0.1-0.1,0.2-0.3,0.2-0.5c0-1.7-0.1-3-0.3-4.1c-0.2-1.2-0.5-2.3-0.8-3.2c-0.4-1-0.7-1.8-1.2-2.5c-0.4-0.7-1-1.5-1.6-2.5
			c-0.8-1.1-1.4-2.1-1.9-3c-0.5-0.8-0.9-1.9-1.2-3.1c-0.3-1.2-0.5-2.7-0.5-4.4v-1.1c0-1.8,0.6-3.1,1.7-4c1.1-0.8,2.7-1.2,4.8-1.2
			c2.3,0,4,0.5,5.1,1.4c1.1,0.9,1.7,2.2,1.7,3.8v4.8h-5.9v-4.9c0-0.2-0.1-0.4-0.2-0.5c-0.1-0.1-0.3-0.2-0.5-0.2
			c-0.2,0-0.4,0.1-0.5,0.2c-0.1,0.1-0.2,0.3-0.2,0.5c0,1,0.1,2,0.3,2.9c0.2,1,0.5,1.8,1,2.6c0.4,0.7,1,1.7,1.8,2.8
			c0.9,1.3,1.7,2.6,2.3,3.7c0.6,1.1,1.1,2.5,1.5,4.3c0.4,1.8,0.6,3.9,0.6,6.4v1.5c0,1.6-0.7,2.8-1.8,3.6c-1.2,0.8-2.8,1.2-4.7,1.2
			C196.2,108.2,193.8,106.5,193.8,103z"/>
		<path class="st0" d="M210.7,79.4h-2.4v-5h11.6v5h-2.4v28.2h-6.7V79.4z"/>
		<path class="st0" d="M220.6,74.5h6.7v33.2h-6.7V74.5z"/>
		<path class="st0" d="M228.1,74.5h6.7l0.8,24h0.2l0.8-24h6.7l-3.9,33.2h-7.4L228.1,74.5z"/>
		<path class="st0" d="M252,103h-1.5l-0.1,4.7h-6.7l3.9-33.2h7.3l4,33.2h-6.7L252,103z M251.8,99.2l-0.5-15.5h-0.2l-0.5,15.5H251.8z
			"/>
		<path class="st0" d="M259.6,74.5h6.7v28.4h3.3v4.8h-10.1V74.5z"/>
		<path class="st0" d="M277.3,74.5h7l0.6,4.6l1.5,16.3h0.3l-1-20.9h5.8v33.2h-7l-0.6-4.6l-1.7-17.4l-0.3,0l1.1,22h-5.8V74.5z"/>
		<path class="st0" d="M292.9,74.5h6.7v33.2h-6.7V74.5z"/>
		<path class="st0" d="M300.6,103.1h1.3c0.6,0,0.9-0.3,0.9-1V74.5h6.7v28.1c0,1.7-0.4,3-1.3,3.8s-2.1,1.3-3.7,1.3h-4V103.1z"/>
		<path class="st0" d="M310.7,74.5h8.3l1.1,22.5h0.3l1.2-22.5h8.3v33.2h-5.8l1-22.1h-0.4l-2.1,22.1h-4.8l-2.2-22.1h-0.3l1,22.1h-5.8
			V74.5z"/>
		<path class="st0" d="M331.3,74.5h11v4.6h-4.2v10.4h3.3v3.5h-3.3v10.3h4.3v4.5h-11.1V74.5z"/>
		<path class="st0" d="M345,106.4c-1.3-1.2-1.9-2.9-1.9-5.2V81c0-2.3,0.6-4.1,1.9-5.2s3.2-1.8,5.7-1.8c2.5,0,4.3,0.5,5.6,1.5
			c1.3,1,1.9,2.5,1.9,4.5v9l-6.8,0v-9.4c0-0.5-0.2-0.7-0.7-0.7c-0.5,0-0.7,0.2-0.7,0.7v23.7c0,0.2,0.1,0.4,0.2,0.5
			c0.1,0.1,0.3,0.2,0.5,0.2c0.3,0,0.6-0.1,0.7-0.2V93.5h-0.6v-3.4h7.4v16.4c-1.9,1.1-4.4,1.7-7.5,1.7
			C348.2,108.2,346.3,107.6,345,106.4z"/>
		<path class="st0" d="M359.5,74.5h11v4.6h-4.2v10.4h3.3v3.5h-3.3v10.3h4.3v4.5h-11.1V74.5z"/>
		<path class="st0" d="M371.4,74.5h7l0.6,4.6l1.5,16.3h0.3l-1-20.9h5.8v33.2h-7l-0.6-4.6l-1.7-17.4l-0.3,0l1.1,22h-5.8V74.5z"/>
	</g>
</g>
</svg>
