<?xml version="1.0" encoding="utf-8"?>
<!-- Generator: Adobe Illustrator 22.0.0, SVG Export Plug-In . SVG Version: 6.00 Build 0)  -->
<svg version="1.1" id="Laag_1" xmlns="http://www.w3.org/2000/svg" xmlns:xlink="http://www.w3.org/1999/xlink" x="0px" y="0px"
	 viewBox="0 0 372.8 138.9" style="enable-background:new 0 0 372.8 138.9;" xml:space="preserve">
<g>
	<path d="M14.3,41.5L2.5,6.5h7.2l7.9,25.9l7.9-25.9h7.2l-11.8,35H14.3z"/>
	<path d="M49.6,33.3H38.5l-2.6,8.3h-7l11.9-35h6.5l11.9,35h-7L49.6,33.3z M40.3,27.3h7.4L44,15.1L40.3,27.3z"/>
	<path d="M89.7,6.5v35h-6.9L70,18.4v23.1h-6.5v-35h6.9l12.9,23.1V6.5H89.7z"/>
	<path d="M122.2,19.1c6.4,0,11.3,4.6,11.3,11.4c0,6.5-5,11.4-11.7,11.4c-6.6,0-11.7-4.9-11.7-11.4c0-2.1,0.7-4.4,1.7-6.2L122,6.1h7
		l-7.6,13H122.2z M116.4,30.5c0,3.4,2.5,5.6,5.4,5.6c3,0,5.4-2.2,5.4-5.6c0-3.6-2.4-5.6-5.4-5.6C118.8,24.9,116.4,26.9,116.4,30.5z"
		/>
	<path d="M153.1,6.5h7.3l8.3,21.9l8.3-21.9h7.3v35h-6.5V19.9L171,38.3h-4.7l-6.7-18.4v21.6h-6.5V6.5z"/>
	<path d="M208.2,25.9l9.7,15.7h-7.3l-9.4-15.1h-3.4v15.1h-6.5v-35h12.8c7,0,10.7,4.1,10.7,10C214.8,21.1,212.5,24.6,208.2,25.9z
		 M208.3,16.5c0-2.9-1.8-4-4.1-4h-6.3v7.9h6.3C206.5,20.4,208.3,19.3,208.3,16.5z"/>
	<path d="M219.3,6.5h25.9v6h-9.7v29H229v-29h-9.7V6.5z"/>
	<path d="M2.9,53.5h25.9v6h-9.7v29h-6.5v-29H2.9V53.5z"/>
	<path d="M54.4,51L32.6,91h-6l21.8-40H54.4z"/>
	<path d="M58.2,53.5h7.3l8.3,21.9L82,53.5h7.3v35h-6.5V66.9l-6.7,18.4h-4.7l-6.7-18.4v21.6h-6.5V53.5z"/>
	<path d="M109.4,86l12.5-16.2c2.1-2.6,2.7-4.4,2.7-6.4c0-2.9-1.4-4.6-4.3-4.6c-2.5,0-4.2,1.7-4.6,4.6l-5.8-1.1
		c0.4-5.3,4.7-9.3,10.5-9.3c6.7,0,10.5,4.3,10.5,10.2c0,2.8-0.9,5.6-3,8.3l-8.6,11.2h12.3v5.8h-22.3V86z"/>
	<path d="M163.7,71c0,11.2-4.6,17.9-12.9,17.9s-12.9-6.7-12.9-17.9s4.6-17.9,12.9-17.9S163.7,59.8,163.7,71z M144.1,71
		c0,7.8,2.1,12.1,6.7,12.1s6.7-4.3,6.7-12.1c0-7.8-2.1-12.1-6.7-12.1S144.1,63.2,144.1,71z"/>
	<path d="M183.7,53.5h7.3l8.3,21.9l8.3-21.9h7.3v35h-6.5V66.9l-6.7,18.4h-4.7l-6.7-18.4v21.6h-6.5V53.5z"/>
	<path d="M243.6,53.5v6h-15.2v7.4h12.2v6h-12.2v9.7h15.7v6H222v-35H243.6z"/>
	<path d="M256.6,88.5h-6.5v-35h6.5V88.5z"/>
	<path d="M13.5,135.5H7v-35h6.5V135.5z"/>
	<path d="M46.8,100.5v35H40l-12.9-23.1v23.1h-6.5v-35h6.9l12.9,23.1v-23.1H46.8z"/>
	<path d="M68.2,135.5v-35h11c8.3,0,16.3,5.2,16.3,17.5c0,12.3-8.1,17.5-16.3,17.5H68.2z M77.1,129.5c5.6,0,11.8-2.2,11.8-11.5
		c0-9.3-6.2-11.5-11.8-11.5h-2.4v23H77.1z"/>
	<path d="M123,100.5v6h-15.2v7.4H120v6h-12.2v9.7h15.7v6h-22.2v-35H123z"/>
	<path d="M138.4,100.5h25.9v6h-9.7v29h-6.5v-29h-9.7V100.5z"/>
	<path d="M169.9,100.5h6.5v13.3h14v-13.3h6.5v35h-6.5v-15.7h-14v15.7h-6.5V100.5z"/>
	<path d="M225.7,100.5v6h-15.2v7.4h12.2v6h-12.2v9.7h15.7v6H204v-35H225.7z"/>
	<path d="M249.9,127.3h-11.1l-2.6,8.3h-7l11.9-35h6.5l11.9,35h-7L249.9,127.3z M240.7,121.3h7.4l-3.7-12.2L240.7,121.3z"/>
	<path d="M256.5,100.5h25.9v6h-9.7v29h-6.5v-29h-9.7V100.5z"/>
	<path d="M309.6,100.5v6h-15.2v7.4h12.2v6h-12.2v9.7h15.7v6H288v-35H309.6z"/>
	<path d="M332.9,119.9l9.7,15.7h-7.3l-9.4-15.1h-3.4v15.1h-6.5v-35h12.8c7,0,10.7,4.1,10.7,10C339.5,115.1,337.2,118.6,332.9,119.9z
		 M333,110.5c0-2.9-1.8-4-4.1-4h-6.3v7.9h6.3C331.2,114.4,333,113.3,333,110.5z"/>
	<path d="M362.3,109.8c-1.4-2.6-2.8-3.7-4.9-3.7c-1.9,0-3.4,1.4-3.4,3.2c0,6.1,15,5.3,15,15.7c0,6.9-4.5,10.9-11.2,10.9
		c-6.4,0-11-4.5-12.1-9.8l5.3-3.3c1,3.8,3.1,7.1,7,7.1c2.7,0,4.6-1.4,4.6-4.6c0-5.8-14.7-4.7-14.7-15.8c0-5.3,4.1-9.5,9.6-9.5
		c4.7,0,8.2,2.3,10.1,6.4L362.3,109.8z"/>
</g>
</svg>
