<?xml version="1.0" encoding="utf-8"?>
<!-- Generator: Adobe Illustrator 24.0.0, SVG Export Plug-In . SVG Version: 6.00 Build 0)  -->
<svg version="1.1" id="Laag_1" xmlns="http://www.w3.org/2000/svg" xmlns:xlink="http://www.w3.org/1999/xlink" x="0px" y="0px"
	 width="131.3px" height="33px" viewBox="0 0 131.3 33" style="enable-background:new 0 0 131.3 33;" xml:space="preserve">
<style type="text/css">
	.st0{fill:#EE2D29;}
</style>
<g>
	<path class="st0" d="M11.9,20.3c0,1.7-0.3,2.9-1,3.7S9,25.1,7.4,25.1H2.8V8.4h4.5c1.6,0,2.8,0.4,3.5,1.1s1,1.9,1,3.4
		c0,0.8-0.1,1.5-0.4,2.1c-0.3,0.6-0.7,1-1.4,1.3c0.7,0.3,1.2,0.8,1.5,1.4C11.8,18.4,11.9,19.3,11.9,20.3z M5.8,15.1H7
		c0.7,0,1.2-0.2,1.5-0.5c0.3-0.3,0.4-0.8,0.4-1.5c0-0.7-0.1-1.3-0.4-1.6c-0.3-0.3-0.8-0.5-1.5-0.5H5.8V15.1z M9,20.1
		c0-0.8-0.1-1.4-0.4-1.8S7.7,17.7,7,17.7H5.8v4.8H7c0.7,0,1.3-0.2,1.5-0.5C8.8,21.6,9,20.9,9,20.1z"/>
	<path class="st0" d="M16.8,15.3h3.9V18h-3.9v4.5h4.5v2.7h-7.5V8.4h7.5v2.7h-4.5V15.3z"/>
	<path class="st0" d="M22.4,20.4h2.8c0,0.8,0.2,1.4,0.5,1.8c0.3,0.4,0.7,0.6,1.3,0.6s1-0.2,1.3-0.5c0.3-0.4,0.4-0.9,0.4-1.7
		c0-0.6-0.1-1.2-0.4-1.5c-0.3-0.4-0.8-0.7-1.5-1.1l-1.1-0.5c-1.1-0.5-1.9-1.1-2.3-1.8c-0.5-0.7-0.7-1.7-0.7-2.9
		c0-1.4,0.4-2.5,1.2-3.4c0.8-0.8,1.9-1.3,3.3-1.3c1.4,0,2.4,0.4,3.2,1.2c0.8,0.8,1.1,2,1.2,3.6h-2.7c0-0.8-0.1-1.3-0.4-1.7
		c-0.2-0.4-0.7-0.6-1.2-0.6c-1.1,0-1.6,0.6-1.6,1.9c0,0.6,0.1,1,0.4,1.4s0.7,0.7,1.3,0.9l1.1,0.5c1.2,0.5,2,1.2,2.5,1.9
		s0.8,1.8,0.8,3.1c0,1.5-0.4,2.7-1.2,3.6s-2,1.3-3.4,1.3c-1.5,0-2.6-0.4-3.4-1.3C22.8,23.2,22.4,22,22.4,20.4z"/>
	<path class="st0" d="M38.2,11.1v14h-3v-14h-2.9V8.4h8.7v2.7H38.2z"/>
	<path class="st0" d="M45.1,15.3H49V18h-3.9v4.5h4.5v2.7h-7.5V8.4h7.5v2.7h-4.5V15.3z"/>
	<path class="st0" d="M54.2,8.4v14h4.5v2.7h-7.5V8.4H54.2z"/>
	<path class="st0" d="M69.3,11.1v14h-3v-14h-2.9V8.4h8.7v2.7H69.3z"/>
	<path class="st0" d="M76.4,8.4v16.7h-3V8.4H76.4z"/>
	<path class="st0" d="M78.4,20.5V13c0-1.6,0.4-2.8,1.3-3.6c0.9-0.8,2.1-1.2,3.5-1.2c1.4,0,2.5,0.4,3.4,1.2c0.9,0.8,1.3,2,1.3,3.7
		v0.5h-3v-0.5c0-0.8-0.2-1.3-0.5-1.7c-0.3-0.4-0.7-0.5-1.3-0.5c-0.6,0-1.1,0.2-1.4,0.7s-0.4,1.1-0.4,2v6.7c0,1.6,0.6,2.4,1.8,2.4
		c0.5,0,1-0.2,1.3-0.6s0.5-0.9,0.5-1.6V20h3v0.5c0,1.6-0.4,2.8-1.3,3.6s-2,1.2-3.4,1.2c-1.4,0-2.6-0.4-3.4-1.2
		C78.8,23.3,78.4,22.1,78.4,20.5z"/>
	<path class="st0" d="M92.8,21.4v3.8h-3V8.4h3v7.9l3.6-7.9h3l-3.5,6.9l4,9.8h-3.2l-2.5-6.5L92.8,21.4z"/>
	<path class="st0" d="M103.9,15.3h3.9V18h-3.9v4.5h4.5v2.7h-7.5V8.4h7.5v2.7h-4.5V15.3z"/>
	<path class="st0" d="M115,11.1v14h-3v-14h-2.9V8.4h8.7v2.7H115z"/>
	<path class="st0" d="M118.4,20.4h2.8c0,0.8,0.2,1.4,0.5,1.8c0.3,0.4,0.7,0.6,1.3,0.6s1-0.2,1.3-0.5c0.3-0.4,0.4-0.9,0.4-1.7
		c0-0.6-0.1-1.2-0.4-1.5c-0.3-0.4-0.8-0.7-1.5-1.1l-1.1-0.5c-1.1-0.5-1.9-1.1-2.3-1.8c-0.5-0.7-0.7-1.7-0.7-2.9
		c0-1.4,0.4-2.5,1.2-3.4c0.8-0.8,1.9-1.3,3.3-1.3c1.4,0,2.4,0.4,3.2,1.2c0.8,0.8,1.1,2,1.2,3.6h-2.7c0-0.8-0.1-1.3-0.4-1.7
		c-0.2-0.4-0.7-0.6-1.2-0.6c-1.1,0-1.6,0.6-1.6,1.9c0,0.6,0.1,1,0.4,1.4s0.7,0.7,1.3,0.9l1.1,0.5c1.2,0.5,2,1.2,2.5,1.9
		s0.8,1.8,0.8,3.1c0,1.5-0.4,2.7-1.2,3.6s-2,1.3-3.4,1.3c-1.5,0-2.6-0.4-3.4-1.3C118.8,23.2,118.4,22,118.4,20.4z"/>
</g>
</svg>
