<?xml version="1.0" encoding="utf-8"?>
<!-- Generator: Adobe Illustrator 24.0.0, SVG Export Plug-In . SVG Version: 6.00 Build 0)  -->
<svg version="1.1" id="Laag_1" xmlns="http://www.w3.org/2000/svg" xmlns:xlink="http://www.w3.org/1999/xlink" x="0px" y="0px"
	 width="75.5px" height="39px" viewBox="0 0 75.5 39" style="enable-background:new 0 0 75.5 39;" xml:space="preserve">
<style type="text/css">
	.st0{fill:#FFFFFF;}
</style>
<g>
	<polygon class="st0" points="0,4.4 0,10.2 5.5,6.1 5.5,20.6 5.5,38.7 11,38.7 11,19.8 11,0.3 5.5,0.3 	"/>
	<path class="st0" d="M35.2,6.4c-0.1-0.5-0.3-1-0.4-1.4c-0.2-0.4-0.4-0.8-0.6-1.2c-0.7-1.1-1.7-2.1-2.9-2.7c-1.2-0.7-2.5-1-4-1
		c-1.5,0-2.9,0.3-4.1,1c-1.2,0.6-2.2,1.6-2.9,2.7C20,4.2,19.8,4.6,19.6,5c-0.2,0.4-0.3,0.9-0.3,1.4c-0.1,0.6-0.2,1.3-0.2,2.1
		c0,0.8-0.1,1.8-0.1,3.1c0,1.5,0,2.8,0.1,3.7c0,1,0.1,1.8,0.2,2.5c0,0.3,0.1,0.6,0.1,0.8c0.1,0.3,0.1,0.6,0.2,0.8
		c0.1,0.4,0.3,0.8,0.6,1.2c0.5,0.7,1.1,1.3,1.9,1.8c0.8,0.5,1.7,0.7,2.7,0.7c0.6,0,1.1,0,1.5-0.1c0.4-0.1,0.7-0.2,0.8-0.3l0.1,0.1
		L21,38.7h6.1l7.2-19.3c0.2-0.5,0.3-1,0.5-1.4c0.1-0.4,0.2-1,0.3-1.5c0-0.1,0-0.1,0-0.2c0.1-0.5,0.1-1.1,0.1-1.8
		c0-0.8,0.1-1.8,0.1-2.9c0-1.3,0-2.3-0.1-3.1C35.3,7.6,35.3,6.9,35.2,6.4z M29.9,15.4c0,0.7-0.2,1.3-0.6,1.7
		c-0.1,0.1-0.1,0.2-0.2,0.3c-0.5,0.5-1.2,0.8-1.9,0.8c-0.6,0-1.1-0.2-1.5-0.5c-0.1-0.1-0.2-0.2-0.3-0.3c-0.5-0.5-0.8-1.2-0.8-2V8.2
		c0-0.8,0.3-1.5,0.8-2c0.5-0.5,1.2-0.8,1.9-0.8c0.7,0,1.3,0.3,1.9,0.8c0.5,0.5,0.8,1.2,0.8,2V15.4z"/>
	<polygon class="st0" points="54.2,16.9 48.7,16.9 48.7,27.8 43.2,27.8 47.2,14.5 51.5,0.3 45.6,0.3 41.3,15.3 37.7,27.8 37.7,33 
		48.7,33 48.7,38.7 54.2,38.7 54.2,33 56.8,33 56.8,27.8 54.2,27.8 	"/>
	<path class="st0" d="M64.6,5.5h10.9V0.3H59.8v12.3V21h4.9c0-0.1,0.1-0.3,0.3-0.6c0.1-0.3,0.3-0.5,0.5-0.7c0.2-0.2,0.5-0.4,0.8-0.6
		c0.3-0.2,0.7-0.2,1.2-0.2c0.8,0,1.4,0.3,1.9,0.8c0.5,0.5,0.7,1.2,0.7,1.9v9c0,0.9-0.2,1.6-0.7,2.1c-0.5,0.5-1.1,0.8-1.9,0.8
		c-0.8,0-1.5-0.3-2-0.8c-0.5-0.5-0.8-1.2-0.8-2.2v-1.4h-5.5v1.6c0,1.3,0.2,2.4,0.7,3.4c0.4,1,1.1,1.9,1.8,2.6
		c0.8,0.7,1.6,1.3,2.6,1.6c1,0.4,2,0.6,3.1,0.6c1.1,0,2.1-0.2,3.1-0.6c1-0.4,1.9-0.9,2.6-1.6c0.8-0.7,1.4-1.6,1.8-2.6
		c0.4-1,0.7-2.2,0.7-3.4v-9.9c0-2.3-0.6-4-1.8-5.1c-1.2-1.1-2.7-1.7-4.6-1.7c-1,0-1.9,0.2-2.6,0.5c-0.8,0.3-1.4,0.8-1.9,1.3v-3.9
		V5.5z"/>
</g>
</svg>
