<?xml version="1.0" encoding="utf-8"?>
<!-- Generator: Adobe Illustrator 24.0.0, SVG Export Plug-In . SVG Version: 6.00 Build 0)  -->
<svg version="1.1" id="Laag_1" xmlns="http://www.w3.org/2000/svg" xmlns:xlink="http://www.w3.org/1999/xlink" x="0px" y="0px"
	 width="131.3px" height="33px" viewBox="0 0 131.3 33" style="enable-background:new 0 0 131.3 33;" xml:space="preserve">
<style type="text/css">
	.st0{fill:#EE2D29;}
</style>
<path class="st0" d="M7.3,8.5c1.4,0,2.5,0.4,3.4,1.2s1.3,2,1.3,3.6v7.1c0,1.6-0.4,2.8-1.3,3.6c-0.9,0.8-2,1.2-3.5,1.2H2.7V8.5H7.3z
	 M8.5,21.9c0.3-0.4,0.4-1,0.4-1.8v-6.3c0-0.9-0.1-1.5-0.4-1.9c-0.3-0.4-0.7-0.7-1.3-0.7H5.7v11.3h1.6C7.8,22.6,8.2,22.4,8.5,21.9z"
	/>
<path class="st0" d="M13.8,20.6v-7.5c0-1.6,0.4-2.8,1.3-3.6c0.9-0.8,2.1-1.2,3.5-1.2c1.4,0,2.5,0.4,3.4,1.2c0.8,0.8,1.3,2,1.3,3.6
	v7.5c0,1.5-0.4,2.7-1.3,3.6c-0.9,0.8-2.1,1.2-3.5,1.2c-1.4,0-2.6-0.4-3.4-1.2C14.2,23.4,13.8,22.2,13.8,20.6z M20.3,20.3v-6.7
	c0-0.9-0.1-1.5-0.4-1.9c-0.3-0.4-0.7-0.7-1.3-0.7c-0.6,0-1.1,0.2-1.4,0.7s-0.4,1.1-0.4,2v6.7c0,1.6,0.6,2.4,1.8,2.4
	c0.6,0,1-0.2,1.3-0.6S20.3,21.1,20.3,20.3z"/>
<path class="st0" d="M28.2,18.5v6.7h-3V8.5h4.5c1.6,0,2.8,0.4,3.5,1.2c0.7,0.8,1,2.1,1,3.8c0,1.1-0.2,2-0.5,2.8
	c-0.3,0.7-0.8,1.3-1.5,1.7l2.5,7.3h-3.1l-2.1-6.7H28.2z M29.8,15.9c0.6,0,1-0.2,1.2-0.6c0.2-0.4,0.3-1,0.3-1.8s-0.1-1.4-0.3-1.7
	c-0.2-0.4-0.6-0.6-1.2-0.6h-1.5v4.7H29.8z"/>
<path class="st0" d="M41,8.5c1.4,0,2.5,0.4,3.4,1.2s1.3,2,1.3,3.6v7.1c0,1.6-0.4,2.8-1.3,3.6c-0.9,0.8-2,1.2-3.5,1.2h-4.5V8.5H41z
	 M42.2,21.9c0.3-0.4,0.4-1,0.4-1.8v-6.3c0-0.9-0.1-1.5-0.4-1.9s-0.7-0.7-1.3-0.7h-1.6v11.3h1.6C41.5,22.6,41.9,22.4,42.2,21.9z"/>
<path class="st0" d="M50.5,18.5v6.7h-3V8.5h4.5c1.6,0,2.8,0.4,3.5,1.2c0.7,0.8,1,2.1,1,3.8c0,1.1-0.2,2-0.5,2.8
	c-0.3,0.7-0.8,1.3-1.5,1.7l2.5,7.3h-3.1L52,18.5H50.5z M52.1,15.9c0.6,0,1-0.2,1.2-0.6c0.2-0.4,0.3-1,0.3-1.8s-0.1-1.4-0.3-1.7
	c-0.2-0.4-0.6-0.6-1.2-0.6h-1.5v4.7H52.1z"/>
<path class="st0" d="M61.7,15.4h3.9v2.7h-3.9v4.5h4.5v2.7h-7.5V8.5h7.5v2.7h-4.5V15.4z"/>
<path class="st0" d="M67.7,20.6v-7.5c0-1.6,0.4-2.8,1.3-3.6c0.9-0.8,2.1-1.2,3.5-1.2c1.4,0,2.5,0.4,3.4,1.2s1.3,2,1.3,3.7v0.5h-3
	v-0.5c0-0.8-0.2-1.3-0.5-1.7C73.4,11.2,73,11,72.4,11c-0.6,0-1.1,0.2-1.4,0.7s-0.4,1.1-0.4,2v6.7c0,1.6,0.6,2.4,1.8,2.4
	c0.5,0,1-0.2,1.3-0.6c0.3-0.4,0.5-0.9,0.5-1.6v-0.4h3v0.5c0,1.6-0.4,2.8-1.3,3.6c-0.9,0.8-2,1.2-3.4,1.2c-1.4,0-2.6-0.4-3.4-1.2
	C68.1,23.4,67.7,22.2,67.7,20.6z"/>
<path class="st0" d="M88.2,25.2h-3v-7.2h-3.1v7.2h-3V8.5h3v6.9h3.1V8.5h3V25.2z"/>
<path class="st0" d="M95.2,11.2v14h-3v-14h-2.9V8.5H98v2.7H95.2z"/>
</svg>
