<?xml version="1.0" encoding="utf-8"?>
<!-- Generator: Adobe Illustrator 24.0.0, SVG Export Plug-In . SVG Version: 6.00 Build 0)  -->
<svg version="1.1" id="Laag_1" xmlns="http://www.w3.org/2000/svg" xmlns:xlink="http://www.w3.org/1999/xlink" x="0px" y="0px"
	 width="205.5px" height="68.6px" viewBox="0 0 205.5 68.6" style="enable-background:new 0 0 205.5 68.6;" xml:space="preserve">
<style type="text/css">
	.st0{fill:#BCBEC0;}
	.st1{fill:#FFFFFF;}
</style>
<g>
	<path class="st0" d="M103.2,64.9l-3-3c-1.5,1.5-3.6,2.5-6,2.5c-4.7,0-8.4-3.8-8.4-8.4s3.8-8.4,8.4-8.4c4.2,0,8.4,3.1,8.4,7.1l4.3,0
		c0-6.4-6.1-11.3-12.7-11.3c-7,0-12.7,5.7-12.7,12.7c0,7,5.7,12.7,12.7,12.7C97.7,68.6,100.9,67.2,103.2,64.9 M107.1,29.8l-3-3
		c-1.5,1.5-3.6,2.5-6,2.5c-4.7,0-8.4-3.8-8.4-8.4c0-4.7,3.8-8.4,8.4-8.4c4.2,0,8.4,3.1,8.4,7.1l4.3,0c0-6.4-6.1-11.3-12.7-11.3
		c-7,0-12.7,5.7-12.7,12.7c0,7,5.7,12.7,12.7,12.7C101.7,33.6,104.8,32.1,107.1,29.8 M115.6,17.4c0-5.1,4.1-9.3,9.3-9.3v4.3
		c-2.7,0-5,2.2-5,5H115.6z M186.3,33c0,5.1-4.1,9.3-9.3,9.3v-4.3c2.7,0,5-2.2,5-5H186.3z M184.1,0c-1.6,0-2.9,1.3-2.9,2.9
		c0,1.6,1.3,2.9,2.9,2.9c1.6,0,2.9-1.3,2.9-2.9C187,1.3,185.7,0,184.1,0 M171.6,0c-1.6,0-2.9,1.3-2.9,2.9c0,1.6,1.3,2.9,2.9,2.9
		c1.6,0,2.9-1.3,2.9-2.9C174.5,1.3,173.2,0,171.6,0 M38.1,57.2c0,6.3,5.1,11.4,11.4,11.4c6.3,0,11.4-5.1,11.4-11.4h-4.3
		c0,3.9-3.2,7.1-7.1,7.1c-3.9,0-7.1-3.2-7.1-7.1H38.1z M52.1,19.5c0-6.3-5.1-11.4-11.4-11.4c-6.3,0-11.4,5.1-11.4,11.4h4.3
		c0-3.9,3.2-7.1,7.1-7.1c3.9,0,7.1,3.2,7.1,7.1H52.1z M9.3,43.1c-5.1,0-9.3,4.1-9.3,9.3h4.3c0-2.7,2.2-5,5-5c2.7,0,5,2.2,5,5h4.3
		c0-2.7,2.2-5,5-5c2.7,0,5,2.2,5,5h4.3c0-5.1-4.1-9.3-9.3-9.3c-2.9,0-5.4,1.3-7.1,3.3C14.7,44.4,12.1,43.1,9.3,43.1 M77.2,20.8
		c0,4.7-3.8,8.4-8.4,8.4c-4.7,0-8.4-3.8-8.4-8.4c0-4.7,3.8-8.4,8.4-8.4C73.4,12.4,77.2,16.2,77.2,20.8 M68.7,8.1
		c-7,0-12.7,5.7-12.7,12.7c0,7,5.7,12.7,12.7,12.7c7,0,12.7-5.7,12.7-12.7C81.4,13.8,75.7,8.1,68.7,8.1 M21.2,20.8
		c0,4.7-3.8,8.4-8.4,8.4c-4.7,0-8.4-3.8-8.4-8.4c0-4.7,3.8-8.4,8.4-8.4C17.4,12.4,21.2,16.2,21.2,20.8 M12.7,8.1
		C5.7,8.1,0,13.8,0,20.8s5.7,12.7,12.7,12.7c7,0,12.7-5.7,12.7-12.7S19.8,8.1,12.7,8.1 M153.3,33.6c5.1,0,9.3-4.1,9.3-9.3h-4.3
		c0,2.7-2.2,5-5,5c-2.7,0-5-2.2-5-5H144c0,2.7-2.2,5-5,5s-5-2.2-5-5h-4.3c0,5.1,4.1,9.3,9.3,9.3c2.9,0,5.4-1.3,7.1-3.3
		C147.9,32.3,150.4,33.6,153.3,33.6 M200.5,24.3c0,5.1-4.1,9.3-9.3,9.3v-4.3c2.7,0,5-2.2,5-5H200.5z M196.2,17.4
		c0-5.1,4.1-9.3,9.3-9.3v4.3c-2.7,0-5,2.2-5,5H196.2z M73.2,59.3c0,5.1-4.1,9.3-9.3,9.3v-4.3c2.7,0,5-2.2,5-5H73.2z M68.9,52.4
		c0-5.1,4.1-9.3,9.3-9.3v4.3c-2.7,0-5,2.2-5,5H68.9z M111.9,57.2c0,6.3,5.1,11.4,11.4,11.4c6.3,0,11.4-5.1,11.4-11.4h-4.3
		c0,3.9-3.2,7.1-7.1,7.1c-3.9,0-7.1-3.2-7.1-7.1H111.9z M156.3,46.5c1.7-2.1,4.2-3.3,7.1-3.3c5.1,0,9.3,4.1,9.3,9.3h-4.3
		c0-2.7-2.2-5-5-5c-2.7,0-5,2.2-5,5h-4.3c0-2.7-2.2-5-5-5c-2.7,0-5,2.2-5,5h-4.3c0-5.1,4.1-9.3,9.3-9.3
		C152,43.1,154.6,44.4,156.3,46.5"/>
	<path class="st1" d="M81.4,20.8c0-3.8-1.7-7.2-4.3-9.5h0V0.7h4.3V20.8z M106.9,54.5v4.3H86.2c-0.3-0.9-0.5-1.9-0.5-2.9
		c0-0.5,0-0.9,0.1-1.4H106.9z M110.8,19.4v4.3H90.2c-0.3-0.9-0.5-1.9-0.5-2.9c0-0.5,0-0.9,0.1-1.4H110.8z M115.6,17.4h4.3V33h-4.3
		V17.4z M169.5,33h4.3V8.7h-4.3V33z M42.3,43.7h-4.3v13.5h4.3V43.7z M47.8,33h4.3V19.5h-4.3V33z M29.4,33h4.3V19.5h-4.3V33z
		 M4.3,52.4H0V68h4.3V52.4z M18.5,52.4h-4.3V68h4.3V52.4z M32.8,52.4h-4.3V68h4.3V52.4z M158.2,24.3h4.3V8.7h-4.3V24.3z M144,24.3
		h4.3V8.7H144V24.3z M129.8,24.3h4.3V8.7h-4.3V24.3z M182,33h4.3V8.7H182V33z M196.2,24.3h4.3v-6.9h-4.3V24.3z M68.9,59.3h4.3v-6.9
		h-4.3V59.3z M60.8,43.7h-4.3v13.5h4.3V43.7z M116.2,43.7h-4.3v13.5h4.3V43.7z M134.6,43.7h-4.3v13.5h4.3V43.7z M144.2,52.4h-4.3V68
		h4.3V52.4z M158.4,52.4h-4.3V68h4.3V52.4z M172.7,68h-4.3V52.4h4.3V68z"/>
</g>
</svg>
