<?xml version="1.0" encoding="utf-8"?>
<!-- Generator: Adobe Illustrator 23.0.2, SVG Export Plug-In . SVG Version: 6.00 Build 0)  -->
<svg version="1.1" id="Laag_1" xmlns="http://www.w3.org/2000/svg" xmlns:xlink="http://www.w3.org/1999/xlink" x="0px" y="0px"
	 width="49.7px" height="25.3px" viewBox="0 0 49.7 25.3" style="enable-background:new 0 0 49.7 25.3;" xml:space="preserve">
<style type="text/css">
	.st0{fill:#1D1D1B;}
	.st1{font-family:'AkzidenzGroteskBE-Md';}
	.st2{font-size:11.5566px;}
</style>
<rect y="11.6" class="st0" width="48.5" height="0.6"/>
<rect x="1.9" y="23" class="st0" width="44.6" height="0.6"/>
<g>
	<path class="st0" d="M7,9.4c0-0.2,0.1-6.7,0.1-6.7L5.4,9.4H4L2.2,2.7c0,0,0.2,6.4,0.2,6.7H0.9V1.2h2.2l1.6,6.1l1.6-6.1h2.2v8.2H7z"
		/>
	<path class="st0" d="M12.8,9.6c-2.1,0-3-1.7-3-3.1c0-1.4,0.9-3,3-3c1.3,0,3,0.8,3,3C15.7,8,14.7,9.6,12.8,9.6z M12.8,8.3
		c1,0,1.5-0.9,1.5-1.7c0-0.9-0.5-1.9-1.6-1.9c-0.8,0-1.5,0.6-1.5,1.8C11.2,7.5,11.8,8.3,12.8,8.3z"/>
	<path class="st0" d="M18.1,3.6v0.8c0.4-0.9,1.4-0.9,1.7-0.9H20v1.4c-0.3,0-1.4,0-1.7,1.1c-0.1,0.3-0.1,0.6-0.1,0.9v2.5h-1.3V3.6
		H18.1z"/>
	<path class="st0" d="M21.9,6.8c0,0.3,0.3,1.4,1.6,1.4c1,0,1.4-0.6,1.5-0.8l1.2,0.7c-0.5,0.6-1.3,1.5-2.8,1.5c-1.7,0-3-1.2-3-3.1
		c0-2.1,1.4-3,2.9-3c2.2,0,2.8,1.8,2.8,3.3H21.9z M24.7,5.8c0-0.3-0.2-1.2-1.3-1.2c-1.1,0-1.4,1-1.4,1.2H24.7z"/>
	<path class="st0" d="M29.8,2.7V1.3h1.4v1.4H29.8z M29.8,9.4V3.6h1.4v5.8H29.8z"/>
	<path class="st0" d="M34,3.6v0.7c0.5-0.8,1.5-0.9,1.8-0.9c1.2,0,1.9,0.8,1.9,1.9v4h-1.4V6.1c0-0.6-0.2-1.4-1-1.4
		c-0.2,0-0.4,0-0.7,0.3C34.1,5.4,34,5.9,34,6.9v2.5h-1.4V3.6H34z"/>
	<path class="st0" d="M40.6,4.6v4.8h-1.4V4.6h-0.9v-1h0.9V2.8c0-1,0.3-1.6,1.9-1.6c0.3,0,0.5,0,0.8,0.1v1.2c0,0-0.3,0-0.4,0
		c-0.8,0-0.8,0.4-0.8,0.8v0.4h1.3v1H40.6z"/>
	<path class="st0" d="M45.2,9.6c-2.1,0-3-1.7-3-3.1c0-1.4,0.9-3,3-3c1.3,0,3,0.8,3,3C48.1,8,47.2,9.6,45.2,9.6z M45.2,8.3
		c1,0,1.5-0.9,1.5-1.7c0-0.9-0.5-1.9-1.6-1.9c-0.8,0-1.5,0.6-1.5,1.8C43.6,7.5,44.2,8.3,45.2,8.3z"/>
</g>
<text transform="matrix(1 0 0 1 48.4639 9.3897)" class="st0 st1 st2"> </text>
<g>
	<path class="st0" d="M8.9,17c0,0.1,0,0.3-0.1,0.4c-0.1,0.2-0.3,1.2-0.9,1.9c0.3,0.3,0.4,0.4,0.8,0.4c0,0,0.2,0,0.3,0v1.2
		c-0.2,0-0.3,0-0.6,0c-0.8,0-1.2-0.2-1.5-0.5C6.6,20.6,6,21,5,21c-1.4,0-2.6-0.8-2.6-2.3c0-1.3,0.9-1.9,1.8-2.4
		C4.1,16,3.9,15.7,3.9,15c0-0.9,0.6-1.9,1.9-1.9c1.1,0,1.9,0.8,1.9,1.7c0,0.5-0.3,1.4-1.5,1.9c0.3,0.5,0.7,1.1,1.1,1.5
		c0.4-0.5,0.4-1,0.4-1.3H8.9z M4.8,17.3c-0.8,0.4-1,0.9-1,1.3c0,0.5,0.4,1.2,1.3,1.2c0.2,0,0.7-0.1,1.1-0.4L4.8,17.3z M6.4,14.8
		c0-0.4-0.3-0.6-0.6-0.6c-0.3,0-0.6,0.2-0.6,0.6c0,0.3,0.1,0.5,0.3,0.9C5.9,15.6,6.4,15.4,6.4,14.8z"/>
	<path class="st0" d="M12,15h0.8v-2.1h1.4V15h1.2v1h-1.2v2.9c0,0.2,0,0.5,0.1,0.6c0.2,0.2,0.5,0.2,0.5,0.2c0.2,0,0.4,0,0.6-0.1v1.2
		c-0.2,0-0.5,0.1-1,0.1c-1.2,0-1.6-0.5-1.6-1.4V16H12V15z"/>
	<path class="st0" d="M16.4,14.1v-1.4h1.4v1.4H16.4z M16.4,20.8V15h1.4v5.8H16.4z"/>
	<path class="st0" d="M24.2,19.2c-0.4,1.1-1.5,1.8-2.6,1.8c-1.7,0-2.9-1.3-2.9-3.1c0-1.5,1-3.1,2.9-3.1c1.5,0,2.3,1.1,2.5,1.6
		L22.9,17c-0.2-0.5-0.6-1-1.3-1c-0.9,0-1.4,0.8-1.4,1.8c0,1,0.5,1.8,1.5,1.8c1,0,1.3-0.9,1.4-1.1L24.2,19.2z"/>
	<path class="st0" d="M29,20.8l-1.7-2.6L26.5,19v1.8h-1.4v-8.2h1.4v4.6l2.3-2.2h1.8l-2.2,2.2l2.4,3.6H29z"/>
	<path class="st0" d="M32.2,18.2c0,0.3,0.3,1.4,1.6,1.4c1,0,1.4-0.6,1.5-0.8l1.2,0.7c-0.5,0.6-1.3,1.5-2.8,1.5c-1.7,0-3-1.2-3-3.1
		c0-2.1,1.4-3,2.9-3c2.2,0,2.8,1.8,2.8,3.3H32.2z M35,17.2c0-0.3-0.2-1.2-1.3-1.2c-1.1,0-1.4,1-1.4,1.2H35z"/>
	<path class="st0" d="M36.8,15h0.8v-2.1h1.4V15h1.2v1h-1.2v2.9c0,0.2,0,0.5,0.1,0.6c0.2,0.2,0.5,0.2,0.5,0.2c0.2,0,0.4,0,0.6-0.1
		v1.2c-0.2,0-0.5,0.1-1,0.1c-1.2,0-1.6-0.5-1.6-1.4V16h-0.8V15z"/>
	<path class="st0" d="M45,16.8c-0.3-0.6-0.9-0.9-1.6-0.9c-0.3,0-1,0.1-1,0.6c0,0.4,0.3,0.5,1.2,0.6l0.9,0.2c0.9,0.2,1.5,0.7,1.5,1.6
		c0,1.1-1,2-2.6,2c-1.6,0-2.4-0.7-2.8-1l1-0.8c0.3,0.4,0.8,0.7,1.7,0.7c0.8,0,1.1-0.4,1.1-0.7c0-0.3-0.3-0.5-0.9-0.6l-0.7-0.1
		c-0.5-0.1-2-0.4-2-1.7c0-1.1,1.1-1.9,2.5-1.9c0.5,0,1.6,0.1,2.5,1.1L45,16.8z"/>
</g>
</svg>
