<?xml version="1.0" encoding="utf-8"?>
<!-- Generator: Adobe Illustrator 22.0.0, SVG Export Plug-In . SVG Version: 6.00 Build 0)  -->
<svg version="1.1" id="Laag_1" xmlns="http://www.w3.org/2000/svg" xmlns:xlink="http://www.w3.org/1999/xlink" x="0px" y="0px"
	 viewBox="0 0 125.8 69.9" style="enable-background:new 0 0 125.8 69.9;" xml:space="preserve">
<style type="text/css">
	.st0{fill:#FFFFFF;}
</style>
<g>
	<path class="st0" d="M8.8,2.8H6.1v26.5H2.7V2.8H0v-2h8.8V2.8z"/>
	<path class="st0" d="M19.7,0.6L12,32.3H8.8l7.6-31.7C16.4,0.6,19.7,0.6,19.7,0.6z"/>
	<path class="st0" d="M28.2,14.1l1.3-13.4h4.6v28.5h-3v-10l0.2-11.4H31l-1.8,21.4h-3.4L24.1,7.8h-0.3L24,19.2v10h-3V0.8h4.7L27,14.2
		l0.4,6.8h0.3L28.2,14.1z"/>
	<path class="st0" d="M45.9,21.8h-2.5L43,29.2h-3.4L42,0.7h5.3l2.5,28.5h-3.5L45.9,21.8z M45.8,19.8L45.1,7.6l-0.3-4.3h-0.3
		l-0.3,4.3l-0.7,12.2H45.8z"/>
	<path class="st0" d="M54.4,19.7v9.5h-3.3V0.8h4.6c2.7,0,4.5,1,4.5,2.9v13.1c0,2-1.9,3-4.5,3h-1.3V19.7z M56.7,16.6V3.8
		c0-0.7-0.5-1.1-1.3-1.1h-1v14.9h1C56.3,17.7,56.7,17.3,56.7,16.6z"/>
	<path class="st0" d="M67.9,29.2l-1.1-11.6h-1.5v11.6H62V0.8h4.6c2.7,0,4.4,0.9,4.4,2.9v10.9c0,1-0.5,1.7-1.2,2.1l1.5,12.5
		C71.3,29.2,67.9,29.2,67.9,29.2z M66.1,15.6c0.9,0,1.3-0.3,1.3-1.1V3.9c0-0.7-0.5-1.1-1.3-1.1h-0.9v12.9L66.1,15.6L66.1,15.6z"/>
	<path class="st0" d="M76.3,0.8v28.5H73V0.8H76.3z"/>
	<path class="st0" d="M85.1,27.2v2h-6.5V0.8h3.3v26.5L85.1,27.2L85.1,27.2z"/>
	<path class="st0" d="M8.8,42.8H6.1v26.5H2.7V42.8H0v-2h8.8V42.8z"/>
	<path class="st0" d="M16.6,67.2v2H9.9V40.8h6.6v2h-3.2v10.7h3v2h-3v11.8h3.3V67.2z"/>
	<path class="st0" d="M30.1,67.2v2h-8.4v-1.9l4.5-24.5h-4.3v-2h7.9l-0.1,2l-4.3,24.5L30.1,67.2L30.1,67.2z"/>
	<path class="st0" d="M34.8,40.8v28.5h-3.3V40.8H34.8z"/>
	<path class="st0" d="M43.7,67.2v2H37V40.8h6.6v2h-3.2v10.7h3v2h-3v11.8h3.3V67.2z"/>
	<path class="st0" d="M51.3,48.6v-7.8h3v28.5h-3.2l-3-18.5h-0.3l0.4,9.7v8.8h-3V40.8h3.3l2.9,17.5h0.3L51.3,48.6z"/>
</g>
</svg>
