<svg xmlns="http://www.w3.org/2000/svg" xmlns:xlink="http://www.w3.org/1999/xlink" width="269.2" height="129.7" xmlns:v="https://vecta.io/nano"><g fill="#fff"><path d="M11.5.5v1.3c-3 0-4 .9-4 3.6v10.9c0 3.9 2.8 6.3 7.5 6.3 4 0 7.7-2.1 7.7-7.6V5.9c0-2.5-.8-4.1-4.1-4.1V.5H28v1.3c-2.2 0-3.7.9-3.7 3.7v9.9c0 7.2-4.7 9.4-10.2 9.4-7.2 0-10.3-3.6-10.3-7.7v-12C3.8 3 3 1.8 0 1.8V.5h11.5zm23.2 19.7c0 1.9.8 2.9 2.8 2.9v1.3h-8.4v-1.3c1.8-.1 2.6-.9 2.6-2.7V12l-2.3-1.3v-.9l4.4-1.6h.9v3h.1c1.4-1.9 3.7-3 5.6-3 3.3 0 5.1 1.6 5.1 5.4v6.7c0 1.8.5 2.6 2.5 2.8v1.3h-8.3v-1.3c2 0 2.8-1 2.8-2.9v-5.8c0-2.2-1-3.9-3.3-3.9-1.6 0-3.1.8-4.6 2.1v7.6zm29.6 6.6c0 2.3 1 2.9 3 2.9V31h-8.5v-1.3c1.7 0 2.6-1.1 2.6-2.6V12l-2.5-1.3v-.8l4.6-1.7h.9v2.6C66.1 9 67.8 8.2 70 8.2c3.8 0 6.4 3.1 6.4 7.4 0 5-3.6 9.1-8.1 9.1-1.4 0-2.8-.4-4.1-1v3.1zm0-8.3c0 3 1.9 4.7 4.4 4.7 3 0 4.8-2.1 4.8-6 0-4.9-3-6.6-5.1-6.6-1.3 0-2.8.6-4.1 1.6v6.3z"/><use xlink:href="#B"/><use xlink:href="#C"/><path d="M118.5 12.5c0-2.1-2.1-2.8-3.2-2.8-1.4 0-2.7.8-2.7 1.6s1.4 2 .5 2.4l-2.1 1c-.2.1-1.2-1.6-1.2-2.4 0-1.6 1.9-4.1 6.4-4.1 3.3 0 5.1 1.1 5.1 3.7v9c0 1.3.8 1.7 2 .9l.3 1.3c-1 1.2-1.9 1.6-2.8 1.6-1.3 0-2.2-.9-2.4-2.5-2 1.8-3.5 2.5-5.2 2.5-2.3 0-3.9-1.6-3.9-3.7s1.5-3.5 5.4-4.8l3.7-1.3v-2.4zm-1.8 4.4c-2.8 1-4.1 1.8-4.1 3.2 0 1.1.7 2.3 2.5 2.3 1.3 0 2.3-.6 3.5-1.8v-4.4l-1.9.7zm21.8-13.3l-2.6-1.4v-.8l4.6-1.4h.9v20.7c0 1.5.8 2.1 2.5 1.6v1.4l-4.6 1h-.9v-2.6c-1.8 1.7-3.9 2.6-5.8 2.6-3.7 0-6.6-3.3-6.6-7.5 0-4.9 3.9-9 8.5-9 1.1 0 2.3.2 3.9.7V3.6zm0 11.8c0-4.3-2.7-5.7-4.6-5.7-2.7 0-4.9 2.6-4.9 5.7 0 2.5 1.3 7 5.4 7 1.6 0 3.1-.7 4.1-2v-5zm9.8-3.4l-2.7-1.3v-.8l4.7-1.7h.9v12.1c0 1.9.9 2.8 2.2 2.8v1.3h-7.6v-1.3c1.3 0 2.5-.8 2.5-2.6V12zm-.1-6h-.6l1.8-5.9h3.8l-5 5.9zm17.2 7.5h-1.1c-.5-2.8-1.6-4-3.6-4-1.6 0-2.6.8-2.6 2.3 0 2.6 5.3 3.3 7.3 5.3.7.7 1.1 1.9 1.1 3 0 2.9-2.1 4.6-5.4 4.6-1.8 0-3.8-.5-5.1-1.1v-4.4h1.2c.3 2.7 1.6 4.2 3.7 4.2 1.9 0 3.2-1.1 3.2-2.5 0-2.7-4.6-2.6-7.5-5.5-.7-.7-1.1-1.9-1.1-2.9 0-2.6 2.1-4.3 5.1-4.3 1.9 0 3.4.5 4.7 1.5v3.8z"/><use xlink:href="#D"/><use xlink:href="#E"/><use xlink:href="#F"/><use xlink:href="#G"/><path d="M87.3 55.2c0 1.8.6 2.8 2.2 2.9v1.3H82v-1.3c1.8-.1 2.4-1.2 2.4-2.7V38.7L82 37.4v-.8l4.5-1.6h.9v20.2z"/><use xlink:href="#H"/><use xlink:href="#C" x="14.7" y="35"/><path d="M134.5 48.5h-1.1c-.5-2.8-1.6-4-3.6-4-1.6 0-2.6.8-2.6 2.3 0 2.6 5.3 3.3 7.3 5.3.7.7 1.1 1.9 1.1 3 0 2.9-2.1 4.6-5.4 4.6-1.8 0-3.8-.5-5.1-1.1v-4.4h1.2c.4 2.7 1.6 4.2 3.7 4.2 1.9 0 3.2-1.1 3.2-2.5 0-2.7-4.6-2.6-7.5-5.5-.7-.7-1.1-1.9-1.1-2.9 0-2.6 2.1-4.3 5.1-4.3 1.9 0 3.4.5 4.7 1.5v3.8zm15.9-1.5l-2.7-1.3v-.8l4.7-1.7h.9v12.1c0 1.9.9 2.8 2.2 2.8v1.3h-7.6v-1.3c1.3 0 2.5-.8 2.5-2.6V47zm1.4-12c1.1 0 1.9.8 1.9 1.9s-.8 1.9-1.9 1.9c-1 0-1.9-.8-1.9-1.9s.8-1.9 1.9-1.9zm20.9 20c0 2.3.5 3.1 3.6 3.1v1.3h-9.5v-1.3c2.2 0 2.9-1 2.9-2.8V45.2h-2.9v-1.6h.8c1.6 0 1.9-.2 2-1.5.1-4 2.3-7.2 6.8-7.2 2.3 0 3.9 1.1 3.9 2.6 0 .9-.6 1.5-1.5 1.5-1.6 0-2-2.6-3.7-2.6-1 0-2.4.8-2.4 3.2v4h4.2v1.6h-4.2V55z"/><use xlink:href="#H" x="86.5"/><use xlink:href="#C" x="101.2" y="35"/><path d="M216.4 55c0 2.1.5 2.9 2.5 3.1v1.3h-8v-1.3c1.6-.1 2.6-.9 2.6-2.7v-8.3l-2.5-1.5v-.8l4.6-1.6h.9v2.7c2.1-2 3.6-2.7 5.8-2.7 2.3 0 3.6.8 4.4 2.7 2.1-2 3.6-2.7 5.7-2.7 2.8 0 4.9 1.4 4.9 4.4v7.7c0 1.7.6 2.6 2.4 2.8v1.3h-8v-1.3c1.9-.1 2.7-.9 2.7-2.9v-6.6c0-2.1-1.5-3.1-3.5-3.1-1.3 0-2.8.7-4 1.6v8c0 1.9.5 2.8 2.5 3v1.3H221v-1.3c2 0 2.8-.9 2.8-2.9v-6c0-2.6-.9-3.6-3.2-3.6-1.8 0-2.9.5-4.3 1.8V55z"/><use xlink:href="#I"/><path d="M268.1 48.5H267c-.5-2.8-1.6-4-3.6-4-1.6 0-2.6.8-2.6 2.3 0 2.6 5.3 3.3 7.3 5.3.7.7 1.1 1.9 1.1 3 0 2.9-2.1 4.6-5.4 4.6-1.8 0-3.8-.5-5.1-1.1v-4.4h1.2c.3 2.7 1.6 4.2 3.7 4.2 1.9 0 3.2-1.1 3.2-2.5 0-2.7-4.6-2.6-7.5-5.5-.7-.7-1.1-1.9-1.1-2.9 0-2.6 2.1-4.3 5.1-4.3 1.9 0 3.4.5 4.7 1.5v3.8zm-258 34c0-2.1-2.1-2.8-3.2-2.8-1.4 0-2.7.8-2.7 1.6s1.4 2 .5 2.4l-2.1 1c-.2.1-1.2-1.6-1.2-2.4 0-1.6 1.9-4.1 6.4-4.1 3.3 0 5.1 1.1 5.1 3.7v9c0 1.3.8 1.7 2 .9l.3 1.3c-1 1.2-1.9 1.6-2.8 1.6-1.3 0-2.2-.9-2.4-2.5-2 1.8-3.5 2.5-5.2 2.5C2.6 94.7 1 93.1 1 91s1.5-3.5 5.4-4.8l3.7-1.3v-2.4zm-1.9 4.4c-2.8 1-4.1 1.8-4.1 3.2 0 1.1.7 2.3 2.5 2.3 1.3 0 2.3-.6 3.5-1.8v-4.4l-1.9.7zm14.3 3.3c0 1.8.6 2.8 2.2 2.9v1.3h-7.5v-1.3c1.8-.1 2.4-1.2 2.4-2.7V73.7l-2.4-1.3v-.8l4.5-1.6h.9v20.2z"/><use xlink:href="#F" x="-10.2" y="35"/><path d="M55.9 84.6c-.2 4.7 2.8 7.3 6.1 7.3 1.6 0 3-.5 4.4-1.7l.7.7c-1.5 2.5-3.9 3.8-6.5 3.8-4.2 0-7.3-3.4-7.3-8.1 0-4.8 3.2-8.4 7.3-8.4 4.5 0 6.5 4 6.5 6.4H55.9zm7.5-1.2c-.3-2.5-1.5-3.9-3.5-3.9s-3.5 1.5-3.8 3.9h7.3zm10.9 6.8c0 1.9.8 2.9 2.8 2.9v1.3h-8.4v-1.3c1.8-.1 2.6-.9 2.6-2.7V82L69 80.7v-.8l4.4-1.6h.9v3h.1c1.4-1.9 3.7-3 5.6-3 3.3 0 5.1 1.6 5.1 5.4v6.7c0 1.8.5 2.6 2.5 2.8v1.3h-8.3v-1.3c2 0 2.8-1 2.8-2.9v-5.8c0-2.2-1-3.9-3.3-3.9-1.6 0-3.1.8-4.6 2.1v7.5zm20.2.3c0 1.6.4 2.1 2.5 2.1.7 0 1.9-.1 2.5-.2v1.7c-1.5.2-3.1.6-4.6.6-2.3 0-3.3-.9-3.3-3.1V80.3H89v-.9c2-.7 3.3-2.2 4.4-3.6h1.2v2.8h4.8v1.8h-4.8v10.1z"/><use xlink:href="#C" x="5.2" y="70"/><use xlink:href="#I" x="-127.3" y="35"/><use xlink:href="#D" y="70"/><use xlink:href="#E" y="70"/><path d="M50.5 110.2c0-2.3-1.1-3.4-3.7-3.4v-1.3h12.7c4.9 0 7.6 2.1 7.6 5.8 0 3.2-2.2 4.8-7.1 5.6v.1c6.2.1 8.1 3.4 8.1 6.1 0 4-3.7 6.4-8 6.4H46.8V128c2.9 0 3.7-1.3 3.7-3.6v-14.2zm7 5.8c3.7 0 5.4-1.1 5.4-4.2 0-3.2-2.1-4.8-5.9-4.8h-2.8v9.1h3.3zm-3.4 8.3c0 2.3 1.1 3.5 3.3 3.5h1.8c2.8 0 4.6-1.8 4.6-4.6 0-2.6-1.7-5.5-6.1-5.5h-3.5v6.6z"/><use xlink:href="#B" x="-8.3" y="105"/><use xlink:href="#C" x="-8.3" y="105"/><use xlink:href="#F" x="54" y="70"/><use xlink:href="#I" x="-124.4" y="70"/><path d="M138.7 125.2c0 1.8.6 2.8 2.2 2.9v1.3h-7.5v-1.3c1.8-.1 2.4-1.2 2.4-2.7v-16.7l-2.4-1.3v-.8l4.5-1.6h.9v20.2z"/><use xlink:href="#G" x="79.9" y="70"/><path d="M167 125.2c0 1.9.8 2.9 2.8 2.9v1.3h-8.4v-1.3c1.8-.1 2.6-.9 2.6-2.7V117l-2.3-1.3v-.8l4.4-1.6h.9v3h.1c1.4-1.9 3.7-3 5.6-3 3.3 0 5.1 1.6 5.1 5.4v6.7c0 1.8.5 2.6 2.5 2.8v1.3H172v-1.3c2 0 2.8-1 2.8-2.9v-5.8c0-2.2-1-3.9-3.3-3.9-1.6 0-3.1.8-4.6 2.1v7.5z"/><use xlink:href="#B" x="102.9" y="105"/></g><defs ><path id="B" d="M88.7 12.5c0-2.1-2.1-2.8-3.2-2.8-1.4 0-2.7.8-2.7 1.6s1.4 2 .5 2.4l-2.1 1c-.2.1-1.2-1.6-1.2-2.4 0-1.6 1.9-4.1 6.4-4.1 3.3 0 5.1 1.1 5.1 3.7v9c0 1.3.8 1.7 2 .9l.3 1.3c-1 1.2-1.9 1.6-2.8 1.6-1.3 0-2.2-.9-2.4-2.5-2 1.8-3.5 2.5-5.2 2.5-2.3 0-3.9-1.6-3.9-3.7s1.5-3.5 5.4-4.8l3.7-1.3v-2.4zm-1.9 4.4c-2.8 1-4.1 1.8-4.1 3.2 0 1.1.7 2.3 2.5 2.3 1.3 0 2.3-.6 3.5-1.8v-4.4l-1.9.7z"/><path id="C" d="M101 19.7c0 2.6.5 3.4 3.6 3.4v1.3h-9.1v-1.3c1.4 0 2.6-.7 2.6-2.7v-8.2l-2.6-1.3v-.8l4.7-1.9h.9v3.5h.1c1.6-2.6 2.5-3.3 4.3-3.3 1.5 0 2.6 1.3 2.6 2 0 .2-.4 2.3-1.4 2.3-1.2 0-1.5-1.6-2.6-1.6-.8 0-1.5.6-2.9 2.6v6z"/><path id="D" d="M13.2 38.6l-2.6-1.4v-.8l4.6-1.4h.9v20.7c0 1.5.8 2.1 2.5 1.6v1.4l-4.6 1h-.9v-2.6c-1.8 1.7-3.9 2.6-5.8 2.6-3.7 0-6.6-3.3-6.6-7.5 0-4.9 3.9-9 8.5-9 1.1 0 2.3.2 3.9.7v-5.3zm0 11.8c0-4.3-2.7-5.7-4.6-5.7-2.7 0-4.9 2.6-4.9 5.7 0 2.5 1.3 7 5.4 7 1.6 0 3.1-.7 4.1-2v-5z"/><path id="E" d="M23.6 49.6c-.2 4.7 2.8 7.3 6.1 7.3 1.6 0 3-.5 4.4-1.7l.7.7c-1.5 2.5-3.9 3.8-6.5 3.8-4.2 0-7.3-3.4-7.3-8.1 0-4.8 3.2-8.4 7.3-8.4 4.5 0 6.5 4 6.5 6.4H23.6zm7.5-1.2c-.3-2.5-1.5-3.9-3.5-3.9s-3.5 1.5-3.8 3.9h7.3z"/><path id="F" d="M61 55.2c-.7 2.8-3.2 4.5-6.4 4.5-5.2 0-7.5-4.4-7.5-8.1s2.3-8.4 8.3-8.4c2.9 0 5.5.8 5.5 3.2 0 1.1-.5 1.7-1.3 1.7-2.3 0-.8-3.3-4.8-3.3-2.9 0-4.8 2.3-4.8 5.7 0 3.1 2 6.6 5.7 6.6 2.2 0 3.5-.7 4.5-2.2l.8.3z"/><path id="G" d="M71.3 43.2c4.8 0 8.2 3.4 8.2 8.1 0 4.8-3.4 8.4-7.9 8.4-4.4 0-8.1-3.8-8.1-8.4 0-4.5 3.5-8.1 7.8-8.1zm.6 15.2c2.7 0 4.4-1.9 4.4-5 0-3-1.2-9-5.1-9-2.6 0-4.3 1.5-4.3 5.5-.1 3.2 1.4 8.5 5 8.5z"/><path id="H" d="M99.8 43.2c4.8 0 8.2 3.4 8.2 8.1 0 4.8-3.4 8.4-7.9 8.4-4.4 0-8.1-3.8-8.1-8.4 0-4.5 3.4-8.1 7.8-8.1zm.6 15.2c2.7 0 4.4-1.9 4.4-5 0-3-1.2-9-5.1-9-2.6 0-4.3 1.5-4.3 5.5-.1 3.2 1.4 8.5 5 8.5z"/><path id="I" d="M244.5 49.6c-.2 4.7 2.8 7.3 6.1 7.3 1.6 0 3-.5 4.4-1.7l.7.7c-1.5 2.5-3.9 3.8-6.5 3.8-4.2 0-7.3-3.4-7.3-8.1 0-4.8 3.2-8.4 7.3-8.4 4.5 0 6.5 4 6.5 6.4h-11.2zm7.5-1.2c-.3-2.5-1.5-3.9-3.5-3.9s-3.5 1.5-3.8 3.9h7.3z"/></defs></svg>