<?xml version="1.0" encoding="utf-8"?>
<!-- Generator: Adobe Illustrator 24.3.0, SVG Export Plug-In . SVG Version: 6.00 Build 0)  -->
<svg version="1.1" id="Laag_1" xmlns="http://www.w3.org/2000/svg" xmlns:xlink="http://www.w3.org/1999/xlink" x="0px" y="0px"
	 width="732.7px" height="284.3px" viewBox="0 0 732.7 284.3" style="enable-background:new 0 0 732.7 284.3;" xml:space="preserve"
	>
<style type="text/css">
	.st0{fill:#FFFFFF;}
</style>
<g>
	<path class="st0" d="M7,2.7h16.4l26.1,33.5V2.7h17.4v63.4H51.6L24.4,31.3v34.8H7V2.7z"/>
	<path class="st0" d="M75.2,41.9v-0.2c0-14,11.4-25.6,27.1-25.6c15.7,0,27,11.5,27,25.5v0.2c0,13.9-11.4,25.6-27.2,25.6
		C86.5,67.3,75.2,55.8,75.2,41.9z M112.6,41.9v-0.2c0-6.1-4.4-11.1-10.5-11.1c-6.3,0-10.2,5-10.2,11v0.2c0,6,4.3,11.1,10.4,11.1
		C108.5,52.7,112.6,47.7,112.6,41.9z"/>
	<path class="st0" d="M136.5,17.1h17.2V24c3.2-4.1,7.7-8,14.7-8c10.4,0,16.7,6.9,16.7,18v32.1H168V39.6c0-5.4-2.8-8.3-7-8.3
		s-7.2,2.9-7.2,8.3v26.5h-17.2V17.1z"/>
	<path class="st0" d="M219.1,17.1h17.2v6.5c3.4-4.1,7.5-7.6,14.9-7.6c11.7,0,21.7,9.7,21.7,25.4v0.2c0,15.9-10.1,25.6-21.6,25.6
		c-7.4,0-11.8-3.4-14.9-7.1v20.5h-17.2V17.1z M256,41.7v-0.2c0-6.5-4.5-11.1-10.1-11.1c-5.6,0-10.1,4.6-10.1,11.1v0.2
		c0,6.5,4.4,11.1,10.1,11.1C251.5,52.8,256,48.3,256,41.7z"/>
	<path class="st0" d="M278.4,41.9v-0.2c0-14.3,10.2-25.6,24.7-25.6c16.8,0,24.6,12.4,24.6,26.8c0,1.1,0,2.4-0.1,3.5h-32.8
		c1.4,5.3,5.3,8.1,10.6,8.1c4.2,0,7.3-1.5,10.9-5l9.5,7.9c-4.7,6-11.5,10-21.2,10C289.3,67.3,278.4,57,278.4,41.9z M311.7,37.6
		c-0.6-5.4-3.9-8.9-8.6-8.9c-4.5,0-7.6,3.4-8.5,8.9H311.7z"/>
	<path class="st0" d="M335.2,17.1h17.2V27c2.8-6.7,7.3-11.1,15.5-10.7v18.1h-1.4c-9,0-14,5.2-14,16.4v15.3h-17.2V17.1z"/>
	<path class="st0" d="M371.2,41.9v-0.2c0-15.9,10.1-25.6,21.6-25.6c7.4,0,11.8,3.4,14.9,7.1V0H425v66.1h-17.2v-6.5
		c-3.4,4.1-7.5,7.6-14.9,7.6C381.3,67.2,371.2,57.5,371.2,41.9z M408.2,41.7v-0.2c0-6.4-4.4-11.1-10.1-11.1
		c-5.5,0-10.1,4.6-10.1,11.1v0.2c0,6.5,4.5,11.1,10.1,11.1C403.8,52.8,408.2,48.2,408.2,41.7z"/>
	<path class="st0" d="M434.4,0h17.8v12.7h-17.8V0z M434.7,17.1h17.1v49h-17.1V17.1z"/>
	<path class="st0" d="M459.2,52.1v-0.2c0-10.2,7.7-15.4,19.2-15.4c4.5,0,9,0.8,11.8,1.9v-0.8c0-5.2-3.2-8.1-9.8-8.1
		c-5.2,0-9.1,1.1-13.6,2.7l-3.5-12c5.5-2.3,11.4-3.8,19.8-3.8c8.8,0,14.8,2.1,18.7,6c3.7,3.6,5.3,8.7,5.3,15.6v28.2h-16.9V61
		c-3.4,3.7-8.1,6.3-14.5,6.3C466.3,67.2,459.2,61.8,459.2,52.1z M490.3,48.4v-2.3c-1.8-0.7-4.3-1.3-6.8-1.3c-5,0-7.9,2.4-7.9,6.1
		v0.2c0,3.4,2.5,5.3,6.1,5.3C486.8,56.4,490.3,53.3,490.3,48.4z"/>
	<path class="st0" d="M515.8,17.1H533v6.7c3.2-4.1,7.7-7.8,14.6-7.8c6.5,0,11.5,2.9,14.1,8c4.3-4.9,9.2-8,16.4-8
		c10.4,0,16.8,6.5,16.8,17.9v32.2h-17.2V39.5c0-5.3-2.6-8.2-6.7-8.2c-4.1,0-7.1,2.9-7.1,8.2v26.6h-17.1V39.5c0-5.3-2.7-8.2-6.8-8.2
		c-4.1,0-7,2.9-7,8.2v26.6h-17.2V17.1z"/>
	<path class="st0" d="M601.9,41.9v-0.2c0-14,11.4-25.6,27.1-25.6c15.7,0,27,11.5,27,25.5v0.2c0,13.9-11.4,25.6-27.2,25.6
		C613.2,67.3,601.9,55.8,601.9,41.9z M639.3,41.9v-0.2c0-6.1-4.4-11.1-10.5-11.1c-6.3,0-10.2,5-10.2,11v0.2c0,6,4.3,11.1,10.4,11.1
		C635.2,52.7,639.3,47.7,639.3,41.9z"/>
	<path class="st0" d="M661.3,41.9v-0.2c0-13.9,10.7-25.5,26.2-25.5c10.1,0,16.8,4.3,20.9,10.9l-11.6,8.7c-2.4-3.2-5.1-5.2-9.1-5.2
		c-5.6,0-9.7,5-9.7,11v0.2c0,6.3,4,11.1,9.8,11.1c4.2,0,6.8-1.9,9.4-5.1l11.5,8.3c-4.5,6.7-11.1,11.2-21.7,11.2
		C672.1,67.3,661.3,55.7,661.3,41.9z"/>
	<path class="st0" d="M714.8,0h17.8v12.7h-17.8V0z M715.2,17.1h17.1v49h-17.1V17.1z"/>
</g>
<g>
	<path class="st0" d="M4.2,140.7v-0.2c0-15.9,10.1-25.6,21.6-25.6c7.4,0,11.8,3.4,14.9,7.1V98.8H58V165H40.8v-6.5
		c-3.4,4.1-7.5,7.6-14.9,7.6C14.3,166,4.2,156.3,4.2,140.7z M41.2,140.5v-0.2c0-6.4-4.4-11.1-10.1-11.1c-5.5,0-10.1,4.6-10.1,11.1
		v0.2c0,6.5,4.5,11.1,10.1,11.1C36.7,151.6,41.2,147,41.2,140.5z"/>
	<path class="st0" d="M67.3,98.8h17.8v12.7H67.3V98.8z M67.7,115.9h17.1v49H67.7V115.9z"/>
	<path class="st0" d="M115.9,115.9H134l9.4,28.6l9.5-28.6h17.8l-19.6,49.4h-15.7L115.9,115.9z"/>
	<path class="st0" d="M176.3,98.8h17.8v12.7h-17.8V98.8z M176.7,115.9h17.1v49h-17.1V115.9z"/>
	<path class="st0" d="M199.9,158.7l6.4-10.3c5.6,3.7,11.7,5.6,16.8,5.6c3,0,4.4-0.9,4.4-2.6v-0.2c0-2-2.8-2.8-8-4.3
		c-9.7-2.5-17.4-5.8-17.4-15.6v-0.2c0-10.4,8.3-16.2,19.7-16.2c7.2,0,14.6,2.1,20.2,5.7l-5.9,10.9c-5.1-2.9-10.6-4.6-14.5-4.6
		c-2.6,0-4,1-4,2.4v0.2c0,1.9,2.9,2.8,8,4.3c9.7,2.7,17.4,6.1,17.4,15.6v0.2c0,10.8-8.1,16.4-20,16.4
		C214.7,166,206.6,163.6,199.9,158.7z"/>
	<path class="st0" d="M252.3,149.7v-20h-5.8v-13.8h5.8v-12.4h17.1v12.4h11.4v13.8h-11.4v16.7c0,3.4,1.5,4.9,4.7,4.9
		c2.3,0,4.4-0.6,6.5-1.6v13.4c-3.1,1.7-7.2,2.9-12,2.9C258.4,165.9,252.3,161.4,252.3,149.7z"/>
	<path class="st0" d="M285.9,150.9v-0.2c0-10.2,7.7-15.4,19.2-15.4c4.5,0,9,0.8,11.8,1.9v-0.8c0-5.2-3.2-8.1-9.8-8.1
		c-5.2,0-9.1,1.1-13.6,2.7l-3.5-12c5.5-2.3,11.4-3.8,19.8-3.8c8.8,0,14.8,2.1,18.7,6c3.7,3.6,5.3,8.7,5.3,15.6V165h-16.9v-5.2
		c-3.4,3.7-8.1,6.3-14.5,6.3C293,166,285.9,160.6,285.9,150.9z M317.1,147.2v-2.3c-1.8-0.7-4.3-1.3-6.8-1.3c-5,0-7.9,2.4-7.9,6.1
		v0.2c0,3.4,2.5,5.3,6.1,5.3C313.5,155.3,317.1,152.1,317.1,147.2z"/>
	<path class="st0" d="M341.9,147.3h17.8V165h-17.8V147.3z"/>
</g>
<g>
	<path class="st0" d="M59.6,251.5H48.8l-2.1,12.2h-13l2.1-12.2H24.2l-2.1,12.2H9l2.1-12.2h-7V237h9.4l1.8-10.2H7.1v-14.5h10.7
		l2.1-11.9H33l-2.1,11.9h11.5l2.1-11.9h13l-2.1,11.9h7.2v14.5H53L51.2,237h8.4V251.5z M26.2,237.5h12.3l2-11.3H28.1L26.2,237.5z"/>
	<path class="st0" d="M66.2,254.4l9.8-11.7c6.3,5,13.2,7.6,20.6,7.6c4.8,0,7.3-1.6,7.3-4.3v-0.2c0-2.7-2.1-4.1-10.8-6.2
		c-13.5-3.1-23.9-6.9-23.9-19.8v-0.2c0-11.8,9.3-20.3,24.5-20.3c10.8,0,19.2,2.9,26.1,8.4l-8.8,12.4c-5.8-4.2-12.1-6.3-17.8-6.3
		c-4.3,0-6.3,1.7-6.3,4.1v0.2c0,2.9,2.2,4.2,11.1,6.2c14.5,3.2,23.6,7.9,23.6,19.7v0.2c0,13-10.2,20.7-25.6,20.7
		C84.6,264.9,74,261.3,66.2,254.4z"/>
	<path class="st0" d="M131.3,248.6v-20h-5.8v-13.8h5.8v-12.4h17.1v12.4h11.4v13.8h-11.4v16.7c0,3.4,1.5,4.9,4.7,4.9
		c2.3,0,4.4-0.6,6.5-1.6v13.4c-3.1,1.7-7.2,2.9-12,2.9C137.4,264.8,131.3,260.2,131.3,248.6z"/>
	<path class="st0" d="M164.9,249.7v-0.2c0-10.2,7.7-15.4,19.2-15.4c4.5,0,9,0.8,11.8,1.9v-0.8c0-5.2-3.2-8.1-9.8-8.1
		c-5.2,0-9.1,1.1-13.6,2.7l-3.5-12c5.5-2.3,11.4-3.8,19.8-3.8c8.8,0,14.8,2.1,18.7,6c3.7,3.6,5.3,8.7,5.3,15.6v28.2h-16.9v-5.2
		c-3.4,3.7-8.1,6.3-14.5,6.3C172,264.9,164.9,259.4,164.9,249.7z M196.1,246v-2.3c-1.8-0.7-4.3-1.3-6.8-1.3c-5,0-7.9,2.4-7.9,6.1
		v0.2c0,3.4,2.5,5.3,6.1,5.3C192.5,254.1,196.1,250.9,196.1,246z"/>
	<path class="st0" d="M252.8,214.8h17.7l-17.9,47.8c-4.3,11.5-8.9,15.9-18.7,15.9c-6.1,0-11.1-1.6-15.7-4.3l5.3-12
		c2.8,1.6,5.6,2.6,7.5,2.6c1.7,0,2.9-0.5,4.1-2l-19.2-48.1h17.9l9.8,29.5L252.8,214.8z"/>
	<path class="st0" d="M279.1,248.6v-20h-5.8v-13.8h5.8v-12.4h17.1v12.4h11.4v13.8h-11.4v16.7c0,3.4,1.5,4.9,4.7,4.9
		c2.3,0,4.4-0.6,6.5-1.6v13.4c-3.1,1.7-7.2,2.9-12,2.9C285.2,264.8,279.1,260.2,279.1,248.6z"/>
	<path class="st0" d="M314.7,246.7v-32h17.2v26.5c0,5.3,2.8,8.2,7,8.2c4.2,0,7.2-2.9,7.2-8.2v-26.5h17.1v49h-17.1V257
		c-3.2,4.1-7.7,7.9-14.7,7.9C321.1,264.9,314.7,257.9,314.7,246.7z"/>
	<path class="st0" d="M372.5,214.8h17.2v6.9c3.2-4.1,7.7-8,14.7-8c10.4,0,16.7,6.9,16.7,18v32.1h-17.1v-26.5c0-5.4-2.8-8.3-7-8.3
		s-7.2,2.9-7.2,8.3v26.5h-17.2V214.8z"/>
	<path class="st0" d="M428,239.5v-0.2c0-14.3,10.2-25.6,24.7-25.6c16.8,0,24.6,12.4,24.6,26.8c0,1.1,0,2.4-0.1,3.5h-32.8
		c1.4,5.3,5.3,8.1,10.6,8.1c4.2,0,7.3-1.5,10.9-5l9.5,7.9c-4.7,6-11.5,10-21.2,10C438.9,265,428,254.6,428,239.5z M461.4,235.2
		c-0.6-5.4-3.9-8.9-8.6-8.9c-4.5,0-7.6,3.4-8.5,8.9H461.4z"/>
	<path class="st0" d="M483,239.5v-0.2c0-15.9,10.1-25.6,21.7-25.6c7.4,0,11.8,3.4,14.9,7.1v-23.1h17.2v66.1h-17.2v-6.5
		c-3.4,4.1-7.5,7.6-14.9,7.6C493.1,264.9,483,255.2,483,239.5z M520,239.3v-0.2c0-6.4-4.4-11.1-10.1-11.1c-5.5,0-10.1,4.6-10.1,11.1
		v0.2c0,6.5,4.5,11.1,10.1,11.1C515.5,250.5,520,245.8,520,239.3z"/>
	<path class="st0" d="M545.4,246.1h17.8v17.7h-17.8V246.1z"/>
</g>
</svg>
