<?xml version="1.0" encoding="utf-8"?>
<!-- Generator: Adobe Illustrator 24.3.0, SVG Export Plug-In . SVG Version: 6.00 Build 0)  -->
<svg version="1.1" id="Laag_1" xmlns="http://www.w3.org/2000/svg" xmlns:xlink="http://www.w3.org/1999/xlink" x="0px" y="0px"
	 width="111.5px" height="55.6px" viewBox="0 0 111.5 55.6" style="enable-background:new 0 0 111.5 55.6;" xml:space="preserve">
<style type="text/css">
	.st0{fill:#FFFFFF;}
</style>
<g>
	<path class="st0" d="M7.1,5C7,3.8,7,2.5,7,1.5l0,0c-0.3,0.9-0.6,2-1,3.1L4.5,8.5H3.7L2.4,4.6C2,3.5,1.7,2.4,1.5,1.5l0,0
		c0,1-0.1,2.4-0.2,3.6L1.1,8.5h-1l0.6-8.1H2l1.4,3.9C3.7,5.3,4,6.2,4.2,7l0,0c0.2-0.8,0.5-1.7,0.9-2.7l1.4-3.9h1.3l0.5,8.1h-1L7.1,5
		z"/>
	<path class="st0" d="M10.6,5.8c0,1.4,0.9,2,2,2c0.8,0,1.2-0.1,1.6-0.3l0.2,0.8c-0.4,0.2-1,0.4-1.9,0.4c-1.8,0-2.9-1.2-2.9-2.9
		s1-3.1,2.7-3.1c1.9,0,2.4,1.7,2.4,2.7c0,0.2,0,0.4,0,0.5L10.6,5.8L10.6,5.8z M13.7,5c0-0.7-0.3-1.7-1.5-1.7c-1.1,0-1.5,1-1.6,1.7
		H13.7z"/>
	<path class="st0" d="M17.3,1v1.7h1.5v0.8h-1.5v3.1c0,0.7,0.2,1.1,0.8,1.1c0.3,0,0.5,0,0.6-0.1v0.8c-0.2,0.1-0.5,0.1-0.9,0.1
		c-0.5,0-0.9-0.2-1.1-0.4c-0.3-0.3-0.4-0.8-0.4-1.5V3.5h-0.9V2.7h0.9V1.3L17.3,1z"/>
	<path class="st0" d="M23.5,5.4L23.5,5.4c0.2-0.2,0.4-0.5,0.5-0.7l1.7-2H27l-2.2,2.4l2.6,3.4h-1.3l-2-2.8l-0.5,0.6v2.2h-1V0h1v5.4
		H23.5z"/>
	<path class="st0" d="M33,6.9c0,0.6,0,1.1,0,1.6h-0.9L32,7.6l0,0c-0.3,0.5-0.9,1.1-1.9,1.1c-0.9,0-2-0.5-2-2.5V2.7h1.1v3.2
		c0,1.1,0.3,1.8,1.3,1.8c0.7,0,1.2-0.5,1.4-1c0,0,0.1-0.2,0.1-0.4V2.7h1V6.9z"/>
	<path class="st0" d="M34.8,4.3c0-0.6,0-1.1,0-1.6h0.9l0.1,1l0,0c0.3-0.6,1-1.1,1.9-1.1c0.8,0,2.1,0.5,2.1,2.5v3.5h-1.1V5.2
		c0-0.9-0.3-1.7-1.3-1.7c-0.7,0-1.2,0.5-1.4,1.1c0,0.1-0.1,0.3-0.1,0.5v3.5h-1.1C34.8,8.6,34.8,4.3,34.8,4.3z"/>
	<path class="st0" d="M41.3,7.4c0.3,0.2,0.9,0.4,1.4,0.4c0.8,0,1.1-0.4,1.1-0.9s-0.3-0.8-1.1-1.1c-1-0.4-1.5-0.9-1.5-1.6
		c0-0.9,0.8-1.7,2-1.7c0.6,0,1.1,0.2,1.4,0.4l-0.3,0.8c-0.2-0.1-0.6-0.3-1.2-0.3c-0.6,0-1,0.4-1,0.8c0,0.5,0.3,0.7,1.1,1
		c1,0.4,1.5,0.9,1.5,1.8c0,1-0.8,1.7-2.2,1.7c-0.6,0-1.2-0.2-1.6-0.4L41.3,7.4z"/>
	<path class="st0" d="M47.5,1v1.7H49v0.8h-1.5v3.1c0,0.7,0.2,1.1,0.8,1.1c0.3,0,0.5,0,0.6-0.1v0.8c-0.2,0.1-0.5,0.1-0.9,0.1
		c-0.5,0-0.9-0.2-1.1-0.4c-0.3-0.3-0.4-0.8-0.4-1.5V3.5h-0.9V2.7h0.9V1.3L47.5,1z"/>
	<path class="st0" d="M50.7,2.7l0.8,3c0.2,0.6,0.3,1.2,0.4,1.8l0,0c0.1-0.6,0.3-1.2,0.5-1.8l0.9-3h0.9l0.9,2.9
		c0.2,0.7,0.4,1.3,0.5,1.9l0,0c0.1-0.6,0.3-1.2,0.4-1.9l1-2.9h1l-1.9,5.8h-1l-0.9-2.8c-0.2-0.6-0.4-1.2-0.5-1.9l0,0
		c-0.1,0.7-0.3,1.3-0.5,1.9l-0.9,2.8h-1l-1.8-5.8C49.5,2.7,50.7,2.7,50.7,2.7z"/>
	<path class="st0" d="M59.6,5.8c0,1.4,0.9,2,2,2c0.8,0,1.2-0.1,1.6-0.3l0.2,0.8c-0.4,0.2-1,0.4-1.9,0.4c-1.8,0-2.9-1.2-2.9-2.9
		s1-3.1,2.7-3.1c1.9,0,2.4,1.7,2.4,2.7c0,0.2,0,0.4,0,0.5L59.6,5.8L59.6,5.8z M62.7,5c0-0.7-0.3-1.7-1.5-1.7c-1.1,0-1.5,1-1.6,1.7
		H62.7z"/>
	<path class="st0" d="M65,4.5c0-0.7,0-1.3,0-1.8h0.9v1.1l0,0c0.3-0.8,0.9-1.3,1.6-1.3c0.1,0,0.2,0,0.3,0v1c-0.1,0-0.2,0-0.4,0
		c-0.7,0-1.3,0.6-1.4,1.4c0,0.1,0,0.3,0,0.5v3.1h-1V4.5z"/>
	<path class="st0" d="M70,5.4L70,5.4c0.2-0.2,0.4-0.5,0.5-0.7l1.7-2h1.3l-2.2,2.4l2.6,3.4h-1.3l-2-2.8L70,6.3v2.2h-1V0h1V5.4z"/>
	<path class="st0" d="M75.2,5.8c0,1.4,0.9,2,2,2c0.8,0,1.2-0.1,1.6-0.3L79,8.3c-0.4,0.2-1,0.4-1.9,0.4c-1.8,0-2.9-1.2-2.9-2.9
		s1-3.1,2.7-3.1c1.9,0,2.4,1.7,2.4,2.7c0,0.2,0,0.4,0,0.5L75.2,5.8L75.2,5.8z M78.3,5c0-0.7-0.3-1.7-1.5-1.7c-1.1,0-1.5,1-1.6,1.7
		H78.3z"/>
	<path class="st0" d="M80.6,4.3c0-0.6,0-1.1,0-1.6h0.9l0.1,1l0,0c0.3-0.6,1-1.1,1.9-1.1c0.8,0,2.1,0.5,2.1,2.5v3.5h-1.1V5.2
		c0-0.9-0.3-1.7-1.3-1.7c-0.7,0-1.2,0.5-1.4,1.1c0,0.1-0.1,0.3-0.1,0.5v3.5h-1.1V4.3z"/>
	<path class="st0" d="M90.2,2.7L91.4,6c0.2,0.5,0.3,1,0.5,1.5l0,0C92,7,92.2,6.5,92.4,6l1.1-3.3h1.1l-2.3,5.8h-1l-2.2-5.8
		C89.1,2.7,90.2,2.7,90.2,2.7z"/>
	<path class="st0" d="M98.8,8.5l-0.1-0.7l0,0c-0.3,0.5-0.9,0.9-1.8,0.9c-1.2,0-1.8-0.8-1.8-1.7c0-1.4,1.2-2.2,3.5-2.2V4.7
		c0-0.5-0.1-1.3-1.3-1.3c-0.5,0-1.1,0.2-1.5,0.4l-0.2-0.7c0.5-0.3,1.2-0.5,1.9-0.5c1.8,0,2.2,1.2,2.2,2.4v2.2c0,0.5,0,1,0.1,1.4
		L98.8,8.5L98.8,8.5z M98.6,5.6c-1.2,0-2.5,0.2-2.5,1.3c0,0.7,0.5,1,1,1c0.8,0,1.2-0.5,1.4-1c0-0.1,0.1-0.2,0.1-0.3V5.6z"/>
	<path class="st0" d="M101.3,4.3c0-0.6,0-1.1,0-1.6h0.9l0.1,1l0,0c0.3-0.6,1-1.1,1.9-1.1c0.8,0,2.1,0.5,2.1,2.5v3.5h-1.1V5.2
		c0-0.9-0.3-1.7-1.3-1.7c-0.7,0-1.2,0.5-1.4,1.1c0,0.1-0.1,0.3-0.1,0.5v3.5h-1.1V4.3z"/>
	<path class="st0" d="M4.4,19.2H1.2v2.9h3.5V23H0.2v-8.1h4.4v0.9H1.2v2.6h3.1v0.8H4.4z"/>
	<path class="st0" d="M6.1,14.5h1.1V23H6.1V14.5z"/>
	<path class="st0" d="M10.1,15.6c0,0.4-0.3,0.6-0.7,0.6s-0.6-0.3-0.6-0.6c0-0.4,0.3-0.7,0.7-0.7C9.8,14.9,10.1,15.2,10.1,15.6z
		 M8.9,23v-5.8h1V23C9.9,23,8.9,23,8.9,23z"/>
	<path class="st0" d="M11.6,21.9c0.3,0.2,0.9,0.4,1.4,0.4c0.8,0,1.1-0.4,1.1-0.9s-0.3-0.8-1.1-1.1c-1-0.4-1.5-0.9-1.5-1.6
		c0-0.9,0.8-1.7,2-1.7c0.6,0,1.1,0.2,1.4,0.4l-0.3,0.8c-0.2-0.1-0.6-0.3-1.2-0.3c-0.6,0-1,0.4-1,0.8c0,0.5,0.3,0.7,1.1,1
		c1,0.4,1.5,0.9,1.5,1.8c0,1-0.8,1.7-2.2,1.7c-0.6,0-1.2-0.2-1.6-0.4L11.6,21.9z"/>
	<path class="st0" d="M17,20.3c0,1.4,0.9,2,2,2c0.8,0,1.2-0.1,1.6-0.3l0.2,0.8c-0.4,0.2-1,0.4-1.9,0.4c-1.8,0-2.9-1.2-2.9-2.9
		s1-3.1,2.7-3.1c1.9,0,2.4,1.7,2.4,2.7c0,0.2,0,0.4,0,0.5H17V20.3z M20.1,19.6c0-0.7-0.3-1.7-1.5-1.7c-1.1,0-1.5,1-1.6,1.7H20.1z"/>
	<path class="st0" d="M26.3,14.8c-0.3,1-0.8,2.3-1.1,2.8l-0.7,0.1c0.3-0.7,0.6-2,0.7-2.8L26.3,14.8z"/>
	<path class="st0" d="M28.6,15.5v1.7h1.5V18h-1.5v3.1c0,0.7,0.2,1.1,0.8,1.1c0.3,0,0.5,0,0.6-0.1v0.8c-0.1,0.2-0.4,0.2-0.9,0.2
		s-0.9-0.2-1.1-0.4c-0.3-0.3-0.4-0.8-0.4-1.5V18h-0.9v-0.8h0.9v-1.4L28.6,15.5z"/>
	<path class="st0" d="M35,14.9v3.4h3.9v-3.4h1V23h-1v-3.8H35V23h-1v-8.1C34,14.9,35,14.9,35,14.9z"/>
	<path class="st0" d="M44.9,23l-0.1-0.7l0,0c-0.3,0.5-0.9,0.9-1.8,0.9c-1.2,0-1.8-0.8-1.8-1.7c0-1.4,1.2-2.2,3.5-2.2v-0.1
		c0-0.5-0.1-1.3-1.3-1.3c-0.5,0-1.1,0.2-1.5,0.4l-0.2-0.7c0.5-0.3,1.2-0.5,1.9-0.5c1.8,0,2.2,1.2,2.2,2.4v2.2c0,0.5,0,1,0.1,1.4
		L44.9,23L44.9,23z M44.8,20.1c-1.2,0-2.5,0.2-2.5,1.3c0,0.7,0.5,1,1,1c0.8,0,1.2-0.5,1.4-1c0-0.1,0.1-0.2,0.1-0.3V20.1z"/>
	<path class="st0" d="M47.5,19c0-0.7,0-1.3,0-1.8h0.9v1.1l0,0c0.3-0.8,0.9-1.3,1.6-1.3c0.1,0,0.2,0,0.3,0v1c-0.1,0-0.2,0-0.4,0
		c-0.7,0-1.3,0.6-1.4,1.4c0,0.1,0,0.3,0,0.5V23h-1C47.5,23,47.5,19,47.5,19z"/>
	<path class="st0" d="M53,15.5v1.7h1.5V18H53v3.1c0,0.7,0.2,1.1,0.8,1.1c0.3,0,0.5,0,0.6-0.1v0.8c-0.2,0.2-0.5,0.2-0.9,0.2
		c-0.5,0-0.9-0.2-1.1-0.4c-0.3-0.3-0.4-0.8-0.4-1.5V18h-0.9v-0.8h0.8v-1.4L53,15.5z"/>
	<path class="st0" d="M54.9,24.5c0.3-0.7,0.6-2,0.7-2.9l1.2-0.1c-0.3,1-0.8,2.4-1.1,2.9L54.9,24.5z"/>
	<path class="st0" d="M2.8,28.1h1v5.4c0,2.1-1.1,2.8-2.4,2.8c-0.4,0-0.9-0.1-1.1-0.2l0.2-0.9c0.2,0.1,0.5,0.2,0.9,0.2
		c0.9,0,1.5-0.4,1.5-2v-5.3H2.8z"/>
	<path class="st0" d="M10.9,33.3c0,2.1-1.5,3.1-2.9,3.1c-1.6,0-2.8-1.2-2.8-3c0-1.9,1.3-3.1,2.9-3.1C9.7,30.3,10.9,31.5,10.9,33.3z
		 M6.2,33.3c0,1.3,0.7,2.2,1.8,2.2c1,0,1.8-0.9,1.8-2.3c0-1-0.5-2.2-1.7-2.2C6.8,31.1,6.2,32.2,6.2,33.3z"/>
	<path class="st0" d="M12.2,32.2c0-0.7,0-1.3,0-1.8h0.9v1.1l0,0c0.3-0.8,0.9-1.3,1.6-1.3c0.1,0,0.2,0,0.3,0v1c-0.1,0-0.2,0-0.4,0
		c-0.7,0-1.3,0.6-1.4,1.4c0,0.1,0,0.3,0,0.5v3.1h-1V32.2z"/>
	<path class="st0" d="M21,30.4c0,0.4,0,0.9,0,1.6v3.4c0,1.3-0.3,2.1-0.8,2.7c-0.6,0.5-1.4,0.7-2.1,0.7s-1.5-0.2-1.9-0.5l0.3-0.8
		c0.4,0.2,1,0.5,1.7,0.5c1.1,0,1.9-0.6,1.9-2v-0.6l0,0c-0.3,0.5-0.9,1-1.8,1c-1.4,0-2.5-1.2-2.5-2.8c0-2,1.3-3.1,2.6-3.1
		c1,0,1.6,0.5,1.8,1l0,0v-0.9H21V30.4z M19.9,32.7c0-0.2,0-0.3-0.1-0.5c-0.2-0.6-0.7-1.1-1.5-1.1c-1,0-1.7,0.9-1.7,2.2
		c0,1.1,0.6,2.1,1.7,2.1c0.6,0,1.2-0.4,1.5-1.1c0.1-0.2,0.1-0.4,0.1-0.6V32.7z"/>
	<path class="st0" d="M26.3,28.1v3.4h3.9v-3.4h1.1v8.1h-1.1v-3.8h-3.9v3.8h-1v-8.1C25.3,28.1,26.3,28.1,26.3,28.1z"/>
	<path class="st0" d="M33.7,33.5c0,1.4,0.9,2,2,2c0.8,0,1.2-0.1,1.6-0.3l0.2,0.8c-0.4,0.2-1,0.4-1.9,0.4c-1.8,0-2.9-1.2-2.9-2.9
		c0-1.7,1-3.1,2.7-3.1c1.9,0,2.4,1.7,2.4,2.7c0,0.2,0,0.4,0,0.5L33.7,33.5L33.7,33.5z M36.8,32.8c0-0.7-0.3-1.7-1.5-1.7
		c-1.1,0-1.5,1-1.6,1.7H36.8z"/>
	<path class="st0" d="M39.1,32c0-0.6,0-1.1,0-1.6H40v0.9l0,0c0.3-0.6,0.9-1.1,1.8-1.1c0.8,0,1.4,0.5,1.6,1.2l0,0
		c0.2-0.3,0.4-0.6,0.6-0.8c0.3-0.3,0.7-0.4,1.3-0.4c0.8,0,1.9,0.5,1.9,2.5v3.4h-1v-3.3c0-1.1-0.4-1.8-1.3-1.8c-0.6,0-1.1,0.4-1.2,1
		c0,0.1-0.1,0.3-0.1,0.5v3.6h-1v-3.5c0-0.9-0.4-1.6-1.2-1.6c-0.7,0-1.1,0.5-1.3,1.1C40,32.3,40,32.4,40,32.6v3.5h-1L39.1,32L39.1,32
		z"/>
	<path class="st0" d="M49.1,32.3c0-0.7,0-1.3,0-1.9H50v1l0,0c0.4-0.7,1.1-1.1,2.1-1.1c1.4,0,2.5,1.2,2.5,3c0,2.1-1.3,3.1-2.6,3.1
		c-0.8,0-1.4-0.3-1.8-0.9l0,0v3.2h-1L49.1,32.3L49.1,32.3z M50.2,33.9c0,0.2,0,0.3,0,0.4c0.2,0.7,0.8,1.2,1.6,1.2
		c1.1,0,1.8-0.9,1.8-2.2c0-1.2-0.6-2.2-1.7-2.2c-0.7,0-1.4,0.5-1.6,1.3c0,0.1-0.1,0.3-0.1,0.4C50.2,32.8,50.2,33.9,50.2,33.9z"/>
	<path class="st0" d="M56.5,33.5c0,1.4,0.9,2,2,2c0.8,0,1.2-0.1,1.6-0.3l0.2,0.8c-0.4,0.2-1,0.4-1.9,0.4c-1.8,0-2.9-1.2-2.9-2.9
		c0-1.7,1-3.1,2.7-3.1c1.9,0,2.4,1.7,2.4,2.7c0,0.2,0,0.4,0,0.5L56.5,33.5L56.5,33.5z M59.6,32.8c0-0.7-0.3-1.7-1.5-1.7
		c-1.1,0-1.5,1-1.6,1.7H59.6z"/>
	<path class="st0" d="M61.9,32c0-0.6,0-1.1,0-1.6h0.9l0.1,1l0,0c0.3-0.6,1-1.1,1.9-1.1c0.8,0,2.1,0.5,2.1,2.5v3.5h-1.1V33
		c0-0.9-0.3-1.7-1.3-1.7c-0.7,0-1.2,0.5-1.4,1.1c0,0.1-0.1,0.3-0.1,0.5v3.5h-1.1V32z"/>
	<path class="st0" d="M69.8,28.8c0,0.4-0.3,0.6-0.7,0.6s-0.6-0.3-0.6-0.6c0-0.4,0.3-0.7,0.7-0.7C69.5,28.1,69.8,28.4,69.8,28.8z
		 M68.6,36.2v-5.8h1.1v5.8C69.7,36.2,68.6,36.2,68.6,36.2z"/>
	<path class="st0" d="M76.3,34.6c0,0.6,0,1.1,0,1.6h-0.9l-0.1-0.9l0,0c-0.3,0.5-0.9,1.1-1.9,1.1c-0.9,0-2-0.5-2-2.5v-3.4h1.1v3.2
		c0,1.1,0.3,1.8,1.3,1.8c0.7,0,1.2-0.5,1.4-1c0.1-0.2,0.1-0.3,0.1-0.5v-3.6h1.1v4.2H76.3z"/>
	<path class="st0" d="M77.9,35.1c0.3,0.2,0.9,0.4,1.4,0.4c0.8,0,1.1-0.4,1.1-0.9s-0.3-0.8-1.1-1.1c-1-0.4-1.5-0.9-1.5-1.6
		c0-0.9,0.8-1.7,2-1.7c0.6,0,1.1,0.2,1.4,0.4l-0.3,0.8c-0.2-0.1-0.6-0.3-1.2-0.3c-0.6,0-1,0.4-1,0.8c0,0.5,0.3,0.7,1.1,1
		c1,0.4,1.5,0.9,1.5,1.8c0,1-0.8,1.7-2.2,1.7c-0.6,0-1.2-0.2-1.6-0.4L77.9,35.1z"/>
	<path class="st0" d="M1.4,42.5v8.1h-1v-8.1C0.4,42.5,1.4,42.5,1.4,42.5z"/>
	<path class="st0" d="M3.3,46.4c0-0.6,0-1.1,0-1.6h0.9l0.1,1l0,0c0.3-0.6,1-1.1,1.9-1.1c0.8,0,2.1,0.5,2.1,2.5v3.5H7.2v-3.3
		c0-0.9-0.3-1.7-1.3-1.7c-0.7,0-1.2,0.5-1.4,1.1c0,0.1-0.1,0.3-0.1,0.5v3.5H3.3L3.3,46.4L3.3,46.4z"/>
	<path class="st0" d="M10.6,47.9c0,1.4,0.9,2,2,2c0.8,0,1.2-0.1,1.6-0.3l0.2,0.8c-0.4,0.2-1,0.4-1.9,0.4c-1.8,0-2.9-1.2-2.9-2.9
		c0-1.7,1-3.1,2.7-3.1c1.9,0,2.4,1.7,2.4,2.7c0,0.2,0,0.4,0,0.5L10.6,47.9L10.6,47.9z M13.7,47.2c0-0.7-0.3-1.7-1.5-1.7
		c-1.1,0-1.5,1-1.6,1.7H13.7z"/>
	<path class="st0" d="M15.3,50l2.6-3.4c0.3-0.3,0.5-0.6,0.8-0.9l0,0h-3.1v-0.9H20v0.7l-2.6,3.4c-0.2,0.3-0.5,0.6-0.7,0.9l0,0h3.4
		v0.8h-4.7L15.3,50L15.3,50z"/>
	<path class="st0" d="M28.7,42.1v7c0,0.5,0,1.1,0,1.5h-0.9v-1l0,0c-0.3,0.6-1,1.1-2,1.1c-1.4,0-2.5-1.2-2.5-3c0-1.9,1.2-3.1,2.6-3.1
		c0.9,0,1.5,0.4,1.8,0.9l0,0V42L28.7,42.1L28.7,42.1z M27.6,47.2c0-0.1,0-0.3,0-0.4c-0.2-0.7-0.7-1.2-1.5-1.2c-1.1,0-1.7,1-1.7,2.2
		s0.6,2.1,1.7,2.1c0.7,0,1.4-0.5,1.5-1.3c0-0.1,0-0.3,0-0.5V47.2z"/>
	<path class="st0" d="M31,47.9c0,1.4,0.9,2,2,2c0.8,0,1.2-0.1,1.6-0.3l0.2,0.8c-0.4,0.2-1,0.4-1.9,0.4c-1.8,0-2.9-1.2-2.9-2.9
		c0-1.7,1-3.1,2.7-3.1c1.9,0,2.4,1.7,2.4,2.7c0,0.2,0,0.4,0,0.5L31,47.9L31,47.9z M34.1,47.2c0-0.7-0.3-1.7-1.5-1.7
		c-1.1,0-1.5,1-1.6,1.7H34.1z"/>
	<path class="st0" d="M39,42.6c0.5-0.1,1.2-0.2,1.9-0.2c1,0,1.7,0.2,2.2,0.6c0.4,0.3,0.7,0.8,0.7,1.4c0,0.8-0.5,1.5-1.4,1.8l0,0
		c0.8,0.2,1.7,0.8,1.7,2c0,0.7-0.3,1.2-0.7,1.6c-0.6,0.5-1.5,0.8-2.8,0.8c-0.7,0-1.3,0-1.6-0.1L39,42.6L39,42.6z M40.1,46H41
		c1.1,0,1.8-0.6,1.8-1.4c0-0.9-0.7-1.3-1.8-1.3c-0.5,0-0.8,0-0.9,0.1V46z M40.1,49.8c0.2,0,0.5,0,0.9,0c1.1,0,2.1-0.4,2.1-1.6
		c0-1.1-0.9-1.6-2.1-1.6h-0.9V49.8z"/>
	<path class="st0" d="M45.5,46.6c0-0.7,0-1.3,0-1.8h0.9v1.1l0,0c0.3-0.8,0.9-1.3,1.6-1.3c0.1,0,0.2,0,0.3,0v1c-0.1,0-0.2,0-0.4,0
		c-0.7,0-1.3,0.6-1.4,1.4c0,0.1,0,0.3,0,0.5v3.1h-1L45.5,46.6L45.5,46.6z"/>
	<path class="st0" d="M52.6,50.6l-0.1-0.7l0,0c-0.3,0.5-0.9,0.9-1.8,0.9c-1.2,0-1.8-0.8-1.8-1.7c0-1.4,1.2-2.2,3.5-2.2v-0.1
		c0-0.5-0.1-1.3-1.3-1.3c-0.5,0-1.1,0.2-1.5,0.4l-0.2-0.7c0.5-0.3,1.2-0.5,1.9-0.5c1.8,0,2.2,1.2,2.2,2.4v2.2c0,0.5,0,1,0.1,1.4
		L52.6,50.6L52.6,50.6z M52.4,47.7c-1.2,0-2.5,0.2-2.5,1.3c0,0.7,0.5,1,1,1c0.8,0,1.2-0.5,1.4-1c0-0.1,0.1-0.2,0.1-0.3V47.7z"/>
	<path class="st0" d="M60,49c0,0.6,0,1.1,0,1.6h-0.9L59,49.7l0,0c-0.3,0.5-0.9,1.1-1.9,1.1c-0.9,0-2-0.5-2-2.5v-3.4h1.1v3.2
		c0,1.1,0.3,1.8,1.3,1.8c0.7,0,1.2-0.5,1.4-1c0.1-0.2,0.1-0.3,0.1-0.5v-3.6h1.1V49H60z"/>
	<path class="st0" d="M62.2,44.8l0.8,3c0.2,0.6,0.3,1.2,0.4,1.8l0,0c0.1-0.6,0.3-1.2,0.5-1.8l0.9-3h0.9l0.9,2.9
		c0.2,0.7,0.4,1.3,0.5,1.9l0,0c0.1-0.6,0.3-1.2,0.4-1.9l0.8-2.9h1l-1.9,5.8h-1l-0.9-2.8c-0.2-0.6-0.4-1.2-0.5-1.9l0,0
		c-0.1,0.7-0.3,1.3-0.5,1.9l-0.9,2.8h-1l-1.8-5.8C60.8,44.8,62.2,44.8,62.2,44.8z"/>
</g>
</svg>
