<?xml version="1.0" encoding="utf-8"?>
<!-- Generator: Adobe Illustrator 24.3.0, SVG Export Plug-In . SVG Version: 6.00 Build 0)  -->
<svg version="1.1" id="Laag_1" xmlns="http://www.w3.org/2000/svg" xmlns:xlink="http://www.w3.org/1999/xlink" x="0px" y="0px"
	 width="121.4px" height="47.4px" viewBox="0 0 121.4 47.4" style="enable-background:new 0 0 121.4 47.4;" xml:space="preserve">
<style type="text/css">
	.st0{clip-path:url(#SVGID_2_);fill:#231F20;}
</style>
<g>
	<defs>
		<rect id="SVGID_1_" width="121.4" height="47.4"/>
	</defs>
	<clipPath id="SVGID_2_">
		<use xlink:href="#SVGID_1_"  style="overflow:visible;"/>
	</clipPath>
	<path class="st0" d="M117.1,29.3v3.2h1.1V47h3.3V29.3H117.1z M114.8,47v-3l-7.2,0l4.2-4.4c2.2-2.2,3-3.8,3-5.7
		c0-3.2-2.1-5.1-5.7-5.1c-3.7,0-6,2.1-6.1,5.7h3.3c0-1.7,1-2.7,2.7-2.7c1.5,0,2.4,0.9,2.4,2.3c0,1.1-0.6,2.2-2.3,3.9l-6.1,6.5V47
		H114.8z M98.1,28.2l0.6,6.7h1.6l0.6-6.7H98.1z M80.1,36.6v3.1h5.3c-0.2,2-1.8,4.3-5.4,4.3c-3.8,0-6.2-2.6-6.2-6.2
		c0-3.5,2.3-6.2,6.1-6.2c2.1,0,3.8,0.8,5.1,1.9l2.2-2.9c-1.8-1.4-4.1-2.4-7.2-2.4c-6,0-9.9,3.9-9.9,9.6c0,5.9,4.1,9.6,9.7,9.6
		c6.2,0,9.2-4.5,9.2-9.8c0-0.3,0-0.7,0-1.1H80.1z M64.2,28.6v11c0,2.7-1.6,4.4-4,4.4c-2.5,0-4.1-1.7-4.1-4.4v-11h-3.6v11.2
		c0,4.7,2.8,7.6,7.6,7.6c4.8,0,7.6-3,7.6-7.6V28.6H64.2z M42.9,32.5l2.7,7.2h-5.4L42.9,32.5z M52,47l-7.4-18.4h-3.4L33.8,47h3.7
		l1.6-4.2h7.6l1.6,4.2H52z M20.1,38.2c-1.9,0-3.2-1.3-3.2-3.2c0-1.9,1.3-3.2,3.2-3.2s3.2,1.3,3.2,3.2C23.3,37,22,38.2,20.1,38.2
		 M20,47l3-3.5c2.5-2.9,3.6-5.3,3.6-8c0-4.1-2.5-6.7-6.5-6.7c-3.8,0-6.5,2.6-6.5,6.2c0,3.3,2.4,6,5.6,6c1.2,0,2.3-0.4,3.2-1.2
		l0.1,0.1L16.2,47H20z M12.2,47v-3l-7.2,0l4.2-4.4c2.2-2.2,3-3.8,3-5.7c0-3.2-2.1-5.1-5.7-5.1c-3.7,0-6,2.1-6.1,5.7h3.3
		c0-1.7,1-2.7,2.7-2.7c1.5,0,2.4,0.9,2.4,2.3c0,1.1-0.6,2.2-2.3,3.9l-6.1,6.5V47H12.2z"/>
	<path class="st0" d="M26.4,20.7v-6.2c0-2.5,1.1-3.4,2.5-3.4c1.5,0,2.2,0.9,2.2,2.5v7h3.2v-6.2c0-2.5,1.1-3.4,2.4-3.4
		c1.5,0,2.2,0.9,2.2,2.5v7h3.2V13c0-3.3-1.9-4.8-4.2-4.8c-1.7,0-3.2,0.8-4,2.4h-0.1c-0.7-1.6-1.9-2.4-3.7-2.4c-1.7,0-3,0.7-3.7,2.2
		h-0.1V8.5h-3.2v12.2H26.4z M9.2,22.4l2.4,1.3L24,1.3L21.6,0L9.2,22.4z M8,8.5H5.5V3.7H2.2v4.9H0v2.7h2.2v5.9c0,2.4,1.4,3.6,3.7,3.6
		h1.4v-3H6.8c-0.9,0-1.3-0.4-1.3-1.4v-5.1H8V8.5z"/>
</g>
</svg>
