<?xml version="1.0" encoding="utf-8"?>
<!-- Generator: Adobe Illustrator 23.0.2, SVG Export Plug-In . SVG Version: 6.00 Build 0)  -->
<svg version="1.1" id="Laag_1" xmlns="http://www.w3.org/2000/svg" xmlns:xlink="http://www.w3.org/1999/xlink" x="0px" y="0px"
	 width="617.9px" height="41.3px" viewBox="0 0 617.9 41.3" style="enable-background:new 0 0 617.9 41.3;" xml:space="preserve">
<style type="text/css">
	.st0{fill:#FFFFFF;}
</style>
<g>
	<path class="st0" d="M12.8,31.9c-8,0-12-5.7-12-12.6v-4.6c0-6.9,4-12.6,12-12.6c8,0,12,5.7,12,12.6v4.6
		C24.7,26.3,20.7,31.9,12.8,31.9z M21.6,19.6v-4.9c0-5.4-2.7-9.7-8.8-9.7S4,9.3,4,14.7v4.9c0,5.4,2.7,9.7,8.8,9.7
		S21.6,24.9,21.6,19.6z"/>
	<path class="st0" d="M30.9,10.5h2.9v4.8c0.8-3.2,3-4.9,6.8-4.9h0.5v2.9h-0.6c-4,0-6.5,2.6-6.5,7.9v10.2h-3.1V10.5z"/>
	<path class="st0" d="M44.3,33.6h3.1c1.1,2,3.1,2.9,6,2.9c3.6,0,6.1-2,6.1-5.2v-4.7c-0.7,1.9-3.5,4-7,4c-5.4,0-8.5-3.9-8.5-8.5v-3.5
		c0-4.7,3.1-8.5,8.6-8.5c3.9,0,6.2,2.1,7.1,4v-3.5h3v20.9c0,4.3-3.9,7.6-9.2,7.6C49.2,39,45.5,37,44.3,33.6z M59.5,21.7V19
		c0-3.5-2.7-6.4-6.3-6.4c-4.1,0-6.2,2.2-6.2,6.2v3c0,3.9,2.1,6.2,6.1,6.2C56.6,28,59.5,25.6,59.5,21.7z"/>
	<path class="st0" d="M83.3,31.4v-2.6c-0.9,1.5-3.7,3.1-7.2,3.1c-4.9,0-7.9-2.8-7.9-6.6c0-4,3.3-6.5,8.3-6.5c3.3,0,5.5,1.4,6.7,2.6
		v-3.9c0-2.9-1.9-5.1-5.2-5.1c-2.6,0-4.4,1.2-5.2,3.1h-2.9c1.1-3.5,4-5.6,8.1-5.6c5.2,0,8.3,3.4,8.3,7.5v13.9H83.3z M83.2,25.3
		c0-2.6-3.1-4.4-6.2-4.4c-3.5,0-5.8,1.6-5.8,4.5c0,2.9,2.4,4.5,5.6,4.5C80.1,29.9,83.2,27.9,83.2,25.3z"/>
	<path class="st0" d="M92.7,10.5h2.9v3.5c1-2.4,3.3-4,7-4c4.7,0,7.7,3.2,7.7,8.2v13.2h-3.1V18.7c0-3.5-1.6-5.9-5.3-5.9
		c-3.4,0-6,2.1-6,6.4v12.3h-3.1V10.5z"/>
	<path class="st0" d="M118.4,3.1c1.2,0,2,0.8,2,1.9c0,1.1-0.8,1.9-2,1.9c-1.2,0-2-0.8-2-1.9C116.4,3.9,117.2,3.1,118.4,3.1z
		 M116.8,10.5h3.1v20.9h-3.1V10.5z"/>
	<path class="st0" d="M125.8,25.3v-0.2h2.8v0.1c0,2.6,2.4,4.3,5.9,4.3c3.2,0,5.5-1.3,5.5-4c0-1.5-0.9-2.5-2.6-2.9l-6.2-1.4
		c-3.1-0.7-4.9-2.6-4.9-5.3c0-3.9,3.3-5.9,7.9-5.9c4.4,0,7.7,2.6,7.7,6.5v0.2h-2.8v-0.1c0-2.6-1.9-4.3-5-4.3c-2.9,0-5,1.2-5,3.5
		c0,1.4,0.7,2.3,2.2,2.7l6.4,1.5c3.2,0.8,5.1,2.4,5.1,5.4c0,3.7-3.6,6.4-8.5,6.4C129.3,31.9,125.8,29.3,125.8,25.3z"/>
	<path class="st0" d="M149.9,3.1c1.2,0,2,0.8,2,1.9c0,1.1-0.8,1.9-2,1.9c-1.2,0-2-0.8-2-1.9C148,3.9,148.7,3.1,149.9,3.1z
		 M148.4,10.5h3.1v20.9h-3.1V10.5z"/>
	<path class="st0" d="M157.3,22.8v-3.3c0-5.7,3.2-9.4,9.1-9.4c5.9,0,8.8,4,8.8,9.1v3.1h-15v0.7c0,3.6,1.9,6.6,6.2,6.6
		c3.1,0,5.1-1.7,5.7-4h2.8c-0.7,3.7-4.2,6.4-8.5,6.4C161.1,31.9,157.3,28.4,157.3,22.8z M160.2,19.8h12.1v-1c0-3.7-1.9-6.5-5.9-6.5
		c-4.5,0-6.1,3-6.1,6.8V19.8z"/>
	<path class="st0" d="M180.9,10.5h2.9v4.8c0.8-3.2,3-4.9,6.8-4.9h0.5v2.9h-0.6c-4,0-6.5,2.6-6.5,7.9v10.2h-3.1V10.5z"/>
	<path class="st0" d="M202.6,31.4c-4,0-5.7-2-5.7-5.5V13h-3.5v-2.5h3.5v-6h3.1v6h5.3V13h-5.3v12.8c0,2.1,0.8,3,3.1,3h2.1v2.5H202.6z
		"/>
	<path class="st0" d="M219.4,10.5h2.9v3.5c1-2.4,3.3-4,6.9-4c3.1,0,5.5,1.5,6.6,4.1c1.4-2.4,4-4.1,7.6-4.1c4.6,0,7.5,3.3,7.5,8.2
		v13.2h-3.1V18.7c0-3.5-1.8-5.9-5.2-5.9c-3.4,0-5.9,2.1-5.9,6.4v12.3h-3.1V18.7c0-3.5-1.8-5.9-5.2-5.9c-3.4,0-5.9,2.1-5.9,6.4v12.3
		h-3.1V10.5z"/>
	<path class="st0" d="M259.1,3.1c1.2,0,2,0.8,2,1.9c0,1.1-0.8,1.9-2,1.9c-1.2,0-2-0.8-2-1.9C257.2,3.9,257.9,3.1,259.1,3.1z
		 M257.6,10.5h3.1v20.9h-3.1V10.5z"/>
	<path class="st0" d="M274.9,31.4c-4,0-5.7-2-5.7-5.5V13h-3.5v-2.5h3.5v-6h3.1v6h5.3V13h-5.3v12.8c0,2.1,0.8,3,3.1,3h2.1v2.5H274.9z
		"/>
</g>
</svg>
