<?xml version="1.0" encoding="utf-8"?>
<!-- Generator: Adobe Illustrator 24.0.0, SVG Export Plug-In . SVG Version: 6.00 Build 0)  -->
<svg version="1.1" id="Laag_1" xmlns="http://www.w3.org/2000/svg" xmlns:xlink="http://www.w3.org/1999/xlink" x="0px" y="0px"
	 width="232.7px" height="23.7px" viewBox="0 0 232.7 23.7" style="enable-background:new 0 0 232.7 23.7;" xml:space="preserve">
<style type="text/css">
	.st0{fill:#FFFFFF;}
</style>
<g>
	<path class="st0" d="M0,0.8h14.9v4.3H5.1V8H14v4H5.1v3h10v4.4H0V0.8z"/>
	<path class="st0" d="M17,22l1.6-3.3c1.5,0.8,3.1,1.3,5,1.3c2.5,0,3.7-1.2,3.7-3.5v-0.6c-1,1.2-2.3,2.1-4.4,2.1
		c-3.5,0-6.4-2.5-6.4-6.6v-0.1c0-4.1,2.9-6.7,6.2-6.7c2.2,0,3.4,0.9,4.5,2V5h5v10.9c0,2.6-0.6,4.5-1.9,5.7c-1.3,1.3-3.3,2-6.3,2
		C21.4,23.6,19.1,23.1,17,22z M27.4,11.4L27.4,11.4c0-1.6-1.2-2.8-2.9-2.8c-1.7,0-2.9,1.2-2.9,2.8v0.1c0,1.6,1.2,2.8,2.9,2.8
		C26.2,14.2,27.4,13,27.4,11.4z"/>
	<path class="st0" d="M35,0h5.2v3.7H35V0z M35.1,5h5v14.3h-5V5z"/>
	<path class="st0" d="M43.9,14.9V9.1h-1.7V5h1.7V1.4h5V5h3.3v4h-3.3v4.9c0,1,0.4,1.4,1.4,1.4c0.7,0,1.3-0.2,1.9-0.5v3.9
		c-0.9,0.5-2.1,0.8-3.5,0.8C45.7,19.6,43.9,18.3,43.9,14.9z"/>
	<path class="st0" d="M55.3,14.9V9.1h-1.7V5h1.7V1.4h5V5h3.3v4h-3.3v4.9c0,1,0.4,1.4,1.4,1.4c0.7,0,1.3-0.2,1.9-0.5v3.9
		c-0.9,0.5-2.1,0.8-3.5,0.8C57.1,19.6,55.3,18.3,55.3,14.9z"/>
	<path class="st0" d="M64.8,12.3L64.8,12.3c0-4.1,3.3-7.5,7.9-7.5s7.9,3.4,7.9,7.4v0.1c0,4.1-3.3,7.5-7.9,7.5
		C68.1,19.7,64.8,16.3,64.8,12.3z M75.8,12.3L75.8,12.3c0-1.8-1.3-3.3-3.1-3.3c-1.8,0-3,1.5-3,3.2v0.1c0,1.7,1.3,3.2,3,3.2
		C74.6,15.4,75.8,14,75.8,12.3z"/>
	<path class="st0" d="M88.4,15.3L88.4,15.3c0-3,2.2-4.6,5.6-4.6c1.3,0,2.6,0.2,3.4,0.6V11c0-1.5-0.9-2.4-2.9-2.4
		c-1.5,0-2.7,0.3-4,0.8l-1-3.5c1.6-0.7,3.3-1.1,5.8-1.1c2.6,0,4.3,0.6,5.5,1.7c1.1,1.1,1.5,2.5,1.5,4.6v8.2h-4.9v-1.5
		c-1,1.1-2.4,1.8-4.2,1.8C90.5,19.7,88.4,18.1,88.4,15.3z M97.5,14.2v-0.7c-0.5-0.2-1.2-0.4-2-0.4c-1.5,0-2.3,0.7-2.3,1.8V15
		c0,1,0.7,1.6,1.8,1.6C96.5,16.5,97.5,15.6,97.5,14.2z"/>
	<path class="st0" d="M112.3,0h5v9.8l3.9-4.8h5.7l-5,5.7l5.1,8.6h-5.6l-2.9-4.9l-1.3,1.5v3.4h-5V0H112.3z"/>
	<path class="st0" d="M128.2,5h5v2c0.9-1.2,2.2-2.3,4.3-2.3c1.9,0,3.4,0.8,4.1,2.3c1.2-1.4,2.7-2.3,4.8-2.3c3,0,4.9,1.9,4.9,5.2v9.4
		h-5v-7.8c0-1.6-0.8-2.4-2-2.4s-2.1,0.8-2.1,2.4v7.8h-5v-7.8c0-1.6-0.8-2.4-2-2.4s-2,0.8-2,2.4v7.8h-5V5z"/>
	<path class="st0" d="M181.1,0.7l-2.6,3c1.5,1.7,2.4,3.9,2.4,6.4v0.1c0,5.3-4.3,9.6-10,9.6c-2,0-3.8-0.5-5.2-1.4l-1,1.1h-3.9l2.6-3
		c-1.5-1.7-2.4-3.9-2.4-6.4V10c0-5.3,4.3-9.6,10-9.6c2,0,3.7,0.5,5.2,1.4l1-1.1C177.2,0.7,181.1,0.7,181.1,0.7z M166.7,12.7l6.3-7.2
		c-0.6-0.3-1.3-0.5-2.1-0.5c-2.9,0-4.8,2.3-4.8,5.1v0.1C166.1,11,166.3,11.9,166.7,12.7z M175.7,10.1L175.7,10.1
		c0-1-0.2-1.9-0.7-2.6l-6.3,7.2c0.6,0.3,1.3,0.5,2.2,0.5C173.8,15.2,175.7,12.9,175.7,10.1z"/>
</g>
</svg>
