<?xml version="1.0" encoding="utf-8"?>
<!-- Generator: Adobe Illustrator 24.0.0, SVG Export Plug-In . SVG Version: 6.00 Build 0)  -->
<svg version="1.1" id="Laag_1" xmlns="http://www.w3.org/2000/svg" xmlns:xlink="http://www.w3.org/1999/xlink" x="0px" y="0px"
	 width="93.3px" height="12.1px" viewBox="0 0 93.3 12.1" style="enable-background:new 0 0 93.3 12.1;" xml:space="preserve">
<style type="text/css">
	.st0{fill:#FFFFFF;}
</style>
<g>
	<path class="st0" d="M4.3,0.3h2.3v3.4l3.2-3.4h2.8L9,4l3.8,5.6h-2.7L7.4,5.6L6.6,6.4v3.2H4.3V0.3z"/>
	<path class="st0" d="M16,9.9c-0.5,0-1-0.1-1.5-0.3s-0.8-0.4-1.1-0.8c-0.3-0.3-0.6-0.7-0.7-1.1c-0.2-0.4-0.3-0.9-0.3-1.4
		s0.1-1,0.3-1.4c0.2-0.4,0.4-0.8,0.7-1.1c0.3-0.3,0.7-0.6,1.1-0.8C15,2.8,15.5,2.8,16,2.8c0.5,0,1,0.1,1.5,0.3
		c0.4,0.2,0.8,0.4,1.1,0.8c0.3,0.3,0.6,0.7,0.7,1.1c0.2,0.4,0.3,0.9,0.3,1.4s-0.1,1-0.3,1.4c-0.2,0.4-0.4,0.8-0.7,1.1
		c-0.3,0.3-0.7,0.6-1.1,0.8C17,9.8,16.6,9.9,16,9.9z M16,8.4c0.5,0,0.8-0.2,1.1-0.6c0.2-0.4,0.4-0.9,0.4-1.5c0-0.6-0.1-1.1-0.4-1.5
		c-0.2-0.4-0.6-0.6-1.1-0.6c-0.5,0-0.8,0.2-1.1,0.6c-0.2,0.4-0.4,0.9-0.4,1.5c0,0.6,0.1,1.1,0.4,1.5C15.2,8.2,15.5,8.4,16,8.4z"/>
	<path class="st0" d="M23.6,9.9c-0.5,0-1-0.1-1.5-0.3c-0.4-0.2-0.8-0.4-1.1-0.8c-0.3-0.3-0.6-0.7-0.7-1.1C20.1,7.3,20,6.8,20,6.3
		s0.1-1,0.3-1.4c0.2-0.4,0.4-0.8,0.7-1.1c0.3-0.3,0.7-0.6,1.1-0.8c0.4-0.2,0.9-0.3,1.5-0.3s1,0.1,1.5,0.3c0.4,0.2,0.8,0.4,1.1,0.8
		c0.3,0.3,0.6,0.7,0.7,1.1c0.2,0.4,0.3,0.9,0.3,1.4s-0.1,1-0.3,1.4c-0.2,0.4-0.4,0.8-0.7,1.1c-0.3,0.3-0.7,0.6-1.1,0.8
		C24.7,9.8,24.2,9.9,23.6,9.9z M23.6,8.4c0.5,0,0.8-0.2,1.1-0.6c0.2-0.4,0.4-0.9,0.4-1.5c0-0.6-0.1-1.1-0.4-1.5
		c-0.2-0.4-0.6-0.6-1.1-0.6c-0.5,0-0.8,0.2-1.1,0.6c-0.2,0.4-0.4,0.9-0.4,1.5c0,0.6,0.1,1.1,0.4,1.5C22.8,8.2,23.2,8.4,23.6,8.4z"/>
	<path class="st0" d="M28,2.9H30v0.8h0c0.2-0.3,0.5-0.6,0.8-0.7c0.3-0.2,0.7-0.3,1.2-0.3c0.4,0,0.9,0.1,1.2,0.3s0.7,0.4,0.9,0.8
		c0.3,0.3,0.4,0.7,0.6,1.1C34.9,5.3,35,5.8,35,6.3c0,0.5-0.1,1-0.2,1.5c-0.1,0.4-0.3,0.8-0.6,1.1c-0.3,0.3-0.6,0.6-0.9,0.7
		c-0.4,0.2-0.8,0.3-1.2,0.3c-0.4,0-0.8-0.1-1.1-0.2c-0.3-0.2-0.6-0.4-0.8-0.7h0v2.9H28V2.9z M31.5,8.2c0.4,0,0.7-0.2,1-0.5
		c0.2-0.3,0.3-0.8,0.3-1.4s-0.1-1-0.3-1.4c-0.2-0.4-0.6-0.5-1-0.5c-0.2,0-0.4,0-0.6,0.1c-0.2,0.1-0.3,0.2-0.4,0.4s-0.2,0.4-0.3,0.6
		c-0.1,0.2-0.1,0.5-0.1,0.8c0,0.6,0.1,1,0.4,1.3C30.7,8.1,31,8.2,31.5,8.2z"/>
	<path class="st0" d="M37.8,12c-0.2,0-0.4,0-0.6,0c-0.2,0-0.4,0-0.6-0.1v-1.5c0.2,0,0.3,0,0.5,0c0.1,0,0.3,0,0.4-0.1
		s0.2-0.1,0.2-0.2c0-0.1,0.1-0.2,0.1-0.4V2.9h2.1v6.8c0,0.4,0,0.8-0.1,1.1c-0.1,0.3-0.2,0.5-0.4,0.6c-0.2,0.2-0.4,0.3-0.7,0.4
		C38.5,11.9,38.2,12,37.8,12z M37.8,0.3h2.1V2h-2.1V0.3z"/>
	<path class="st0" d="M44.2,9.9c-0.6,0-1.1-0.1-1.5-0.3c-0.4-0.2-0.8-0.4-1.1-0.8c-0.3-0.3-0.5-0.7-0.7-1.1
		c-0.2-0.4-0.3-0.9-0.3-1.4c0-0.5,0.1-1,0.3-1.4c0.2-0.4,0.4-0.8,0.7-1.1c0.3-0.3,0.7-0.6,1.1-0.8c0.4-0.2,0.9-0.3,1.4-0.3
		c0.5,0,0.9,0.1,1.3,0.2c0.4,0.2,0.7,0.4,1,0.6C46.8,4,47.1,4.4,47.3,5c0.2,0.6,0.3,1.2,0.3,1.9h-4.9c0.1,0.5,0.2,0.8,0.5,1.1
		c0.2,0.3,0.6,0.4,1,0.4c0.3,0,0.5-0.1,0.7-0.2c0.2-0.1,0.3-0.3,0.4-0.5h2.1c-0.1,0.3-0.2,0.6-0.4,0.9c-0.2,0.3-0.4,0.5-0.7,0.7
		c-0.3,0.2-0.6,0.4-0.9,0.5C45.1,9.8,44.7,9.9,44.2,9.9z M45.4,5.6c0-0.4-0.2-0.7-0.4-1c-0.2-0.2-0.5-0.4-0.9-0.4
		c-0.4,0-0.7,0.1-0.9,0.4c-0.2,0.2-0.4,0.6-0.4,1H45.4z"/>
	<path class="st0" d="M53.1,9.8c-0.3,0-0.6,0-0.9-0.1c-0.3-0.1-0.5-0.2-0.7-0.3c-0.2-0.1-0.3-0.3-0.4-0.6c-0.1-0.2-0.2-0.5-0.2-0.9
		V4.3H50V2.9h0.9V0.8H53v2.1h1.2v1.3H53v3.2c0,0.3,0.1,0.4,0.2,0.5s0.3,0.1,0.5,0.1c0.1,0,0.2,0,0.3,0c0.1,0,0.2,0,0.2,0v1.6
		c-0.1,0-0.2,0.1-0.4,0.1C53.6,9.8,53.3,9.8,53.1,9.8z"/>
	<path class="st0" d="M55,0.3h2.1V2H55V0.3z M55,2.9h2.1v6.8H55V2.9z"/>
	<path class="st0" d="M61.5,9.9c-0.5,0-1-0.1-1.5-0.3c-0.4-0.2-0.8-0.4-1.1-0.8s-0.6-0.7-0.7-1.1c-0.2-0.4-0.3-0.9-0.3-1.4
		s0.1-1,0.3-1.4c0.2-0.4,0.4-0.8,0.7-1.1C59.1,3.5,59.5,3.2,60,3c0.4-0.2,0.9-0.3,1.5-0.3c0.5,0,0.9,0.1,1.2,0.2
		c0.4,0.1,0.7,0.3,1,0.5s0.5,0.5,0.7,0.8c0.2,0.3,0.3,0.7,0.3,1h-2.1c-0.1-0.3-0.2-0.6-0.4-0.7s-0.4-0.3-0.7-0.3
		c-0.5,0-0.8,0.2-1,0.5c-0.2,0.4-0.3,0.8-0.3,1.5c0,0.6,0.1,1.1,0.3,1.4c0.2,0.4,0.6,0.5,1,0.5c0.7,0,1.1-0.4,1.2-1.2h2.1
		c0,0.4-0.1,0.8-0.3,1.1c-0.2,0.3-0.4,0.6-0.6,0.9c-0.3,0.3-0.6,0.4-1,0.6C62.4,9.8,61.9,9.9,61.5,9.9z"/>
	<path class="st0" d="M65.4,0.3h2.1v5l2-2.3H72l-2.4,2.5l2.7,4.2h-2.5l-1.6-2.8l-0.6,0.7v2.1h-2.1V0.3z"/>
	<path class="st0" d="M75.5,9.9c-0.6,0-1.1-0.1-1.5-0.3c-0.4-0.2-0.8-0.4-1.1-0.8c-0.3-0.3-0.5-0.7-0.7-1.1
		c-0.2-0.4-0.3-0.9-0.3-1.4c0-0.5,0.1-1,0.3-1.4c0.2-0.4,0.4-0.8,0.7-1.1C73.2,3.4,73.5,3.2,74,3c0.4-0.2,0.9-0.3,1.4-0.3
		c0.5,0,0.9,0.1,1.3,0.2c0.4,0.2,0.7,0.4,1,0.6C78.1,4,78.4,4.4,78.6,5c0.2,0.6,0.3,1.2,0.3,1.9H74c0.1,0.5,0.2,0.8,0.5,1.1
		c0.2,0.3,0.6,0.4,1,0.4c0.3,0,0.5-0.1,0.7-0.2c0.2-0.1,0.3-0.3,0.4-0.5h2.1c-0.1,0.3-0.2,0.6-0.4,0.9c-0.2,0.3-0.4,0.5-0.7,0.7
		c-0.3,0.2-0.6,0.4-0.9,0.5C76.3,9.8,75.9,9.9,75.5,9.9z M76.7,5.6c0-0.4-0.2-0.7-0.4-1c-0.2-0.2-0.5-0.4-0.9-0.4
		c-0.4,0-0.7,0.1-0.9,0.4c-0.2,0.2-0.4,0.6-0.4,1H76.7z"/>
	<path class="st0" d="M82.1,9.8c-0.3,0-0.6,0-0.9-0.1c-0.3-0.1-0.5-0.2-0.7-0.3c-0.2-0.1-0.3-0.3-0.4-0.6C80,8.6,80,8.3,80,7.9V4.3
		h-0.9V2.9H80V0.8h2.1v2.1h1.2v1.3h-1.2v3.2c0,0.3,0.1,0.4,0.2,0.5s0.3,0.1,0.5,0.1c0.1,0,0.2,0,0.3,0c0.1,0,0.2,0,0.2,0v1.6
		c-0.1,0-0.2,0.1-0.4,0.1C82.7,9.8,82.4,9.8,82.1,9.8z"/>
	<path class="st0" d="M87.1,9.9c-1,0-1.8-0.2-2.4-0.6c-0.6-0.4-0.9-1-0.9-1.8h2c0,0.3,0.2,0.6,0.4,0.8c0.2,0.2,0.5,0.3,0.9,0.3
		c0.3,0,0.6-0.1,0.8-0.2C88,8.2,88.1,8,88.1,7.8c0-0.1,0-0.3-0.1-0.4c-0.1-0.1-0.2-0.2-0.4-0.2c-0.2-0.1-0.3-0.1-0.5-0.1
		c-0.2,0-0.4-0.1-0.6-0.1c-0.3-0.1-0.6-0.1-0.9-0.2c-0.3-0.1-0.6-0.2-0.8-0.3c-0.2-0.1-0.4-0.3-0.6-0.6c-0.1-0.3-0.2-0.6-0.2-1
		c0-0.4,0.1-0.7,0.2-0.9c0.2-0.3,0.4-0.5,0.6-0.7c0.3-0.2,0.6-0.3,0.9-0.4c0.4-0.1,0.7-0.1,1.1-0.1c1,0,1.7,0.2,2.2,0.6
		s0.8,0.9,0.8,1.6h-2c0-0.3-0.2-0.5-0.3-0.6c-0.2-0.1-0.4-0.2-0.7-0.2c-0.3,0-0.5,0.1-0.7,0.2C86.1,4.4,86,4.5,86,4.7
		C86,4.9,86,5,86.1,5c0.1,0.1,0.2,0.1,0.4,0.2s0.3,0.1,0.5,0.1c0.2,0,0.4,0.1,0.6,0.1c0.3,0.1,0.6,0.1,0.9,0.2
		c0.3,0.1,0.6,0.2,0.8,0.3c0.3,0.2,0.5,0.4,0.6,0.6c0.2,0.3,0.2,0.6,0.2,1c0,0.4-0.1,0.7-0.2,1c-0.2,0.3-0.4,0.5-0.6,0.7
		s-0.6,0.3-1,0.4C87.9,9.9,87.5,9.9,87.1,9.9z"/>
</g>
</svg>
