<?xml version="1.0" encoding="utf-8"?>
<!-- Generator: Adobe Illustrator 24.3.0, SVG Export Plug-In . SVG Version: 6.00 Build 0)  -->
<svg version="1.1" id="Laag_1" xmlns="http://www.w3.org/2000/svg" xmlns:xlink="http://www.w3.org/1999/xlink" x="0px" y="0px"
	 width="124.4px" height="26.7px" viewBox="0 0 124.4 26.7" style="enable-background:new 0 0 124.4 26.7;" xml:space="preserve">
<style type="text/css">
	.st0{fill:#000B8C;}
</style>
<g>
	<path class="st0" d="M25.3,7.7h1.8v9.4h5.1v1.8h-6.9V7.7z"/>
	<path class="st0" d="M37.1,10.8c2.1,0,3.8,1.4,3.8,3.9c0,0.2,0,0.3,0,0.6h-6.2c0.1,1.3,1.1,2.1,2.4,2.1c1.1,0,1.8-0.5,2.2-1.2
		l1.3,0.9c-0.7,1.1-1.9,1.8-3.6,1.8c-2.4,0-4.1-1.7-4.1-4.1C33,12.6,34.7,10.8,37.1,10.8z M34.7,14h4.4c-0.2-1.1-1.1-1.7-2.1-1.7
		S35,12.9,34.7,14z"/>
	<path class="st0" d="M46.2,10.8c2.1,0,3.8,1.4,3.8,3.9c0,0.2,0,0.3,0,0.6h-6.2c0.1,1.3,1.1,2.1,2.4,2.1c1.1,0,1.8-0.5,2.2-1.2
		l1.3,0.9C49,18.3,47.8,19,46.2,19c-2.4,0-4.1-1.7-4.1-4.1C42.1,12.6,43.8,10.8,46.2,10.8z M43.8,14h4.4c-0.2-1.1-1.1-1.7-2.1-1.7
		S44.1,12.9,43.8,14z"/>
	<path class="st0" d="M54.1,19c-1.3,0-2.5-0.5-3.1-1.6l1.3-0.9c0.3,0.7,1.1,1.1,1.9,1.1c0.7,0,1.2-0.3,1.2-0.8c0-0.5-0.3-0.7-1.3-1
		l-0.7-0.2c-1.3-0.4-2-1.2-2-2.4c0-1.3,1.2-2.2,2.7-2.2c1.1,0,2,0.4,2.6,1.1l-1,1.1c-0.4-0.5-1-0.7-1.6-0.7c-0.6,0-1.1,0.3-1.1,0.7
		c0,0.4,0.2,0.6,1.1,0.9l0.8,0.3c1.4,0.4,2.1,1.2,2.1,2.4C57,18.1,55.8,19,54.1,19z"/>
	<path class="st0" d="M62.5,11h1.7v1.1c0.4-0.7,1.2-1.2,2.2-1.2c1.2,0,2,0.6,2.4,1.6c0.5-1,1.5-1.6,2.5-1.6c1.8,0,2.8,1.3,2.8,3.3
		v4.7h-1.7v-4.4c0-1.2-0.5-2-1.4-2c-1.1,0-1.9,0.9-1.9,2.6v3.9h-1.7v-4.4c0-1.2-0.5-2-1.4-2c-1.1,0-1.9,0.9-1.9,2.6v3.9h-1.7V11z"/>
	<path class="st0" d="M80,10.8c2.1,0,3.8,1.4,3.8,3.9c0,0.2,0,0.3,0,0.6h-6.2c0.1,1.3,1.1,2.1,2.4,2.1c1.1,0,1.8-0.5,2.2-1.2
		l1.3,0.9C82.8,18.3,81.6,19,80,19c-2.4,0-4.1-1.7-4.1-4.1C75.9,12.6,77.6,10.8,80,10.8z M77.6,14H82c-0.2-1.1-1.1-1.7-2.1-1.7
		C78.9,12.3,77.9,12.9,77.6,14z"/>
	<path class="st0" d="M89.1,10.8c2.1,0,3.8,1.4,3.8,3.9c0,0.2,0,0.3,0,0.6h-6.2c0.1,1.3,1.1,2.1,2.4,2.1c1.1,0,1.8-0.5,2.2-1.2
		l1.3,0.9c-0.7,1.1-1.9,1.8-3.6,1.8c-2.4,0-4.1-1.7-4.1-4.1C85,12.6,86.7,10.8,89.1,10.8z M86.7,14h4.4c-0.2-1.1-1.1-1.7-2.1-1.7
		C88,12.3,87,12.9,86.7,14z"/>
	<path class="st0" d="M94.6,11h1.7v1.4c0.3-0.9,1.2-1.5,2.1-1.5c0.2,0,0.4,0,0.7,0.1v1.8c-0.3-0.1-0.5-0.1-0.9-0.1
		c-1,0-1.9,0.8-1.9,2.4v3.8h-1.7V11z"/>
</g>
</svg>
