<?xml version="1.0" encoding="utf-8"?>
<!-- Generator: Adobe Illustrator 24.3.0, SVG Export Plug-In . SVG Version: 6.00 Build 0)  -->
<svg version="1.1" id="Laag_1" xmlns="http://www.w3.org/2000/svg" xmlns:xlink="http://www.w3.org/1999/xlink" x="0px" y="0px"
	 width="141.7px" height="34.8px" viewBox="0 0 141.7 34.8" style="enable-background:new 0 0 141.7 34.8;" xml:space="preserve">
<style type="text/css">
	.st0{fill:#FEE5D1;}
</style>
<g>
	<g>
		<path class="st0" d="M2.7,2.6H0l1.8-2.4h3.4V13H2.7V2.6z"/>
		<path class="st0" d="M12.3,13.2c-2.8,0-4.8-2.1-4.8-5.1V5c0-2.9,2-5,4.8-5C15.1,0,17,2.1,17,5v3.1C17,11.1,15.1,13.2,12.3,13.2z
			 M12.3,10.8c1.4,0,2.3-1,2.3-2.6V5c0-1.6-0.9-2.6-2.3-2.6c-1.4,0-2.3,1-2.3,2.6v3.1C10,9.8,10.9,10.8,12.3,10.8z"/>
		<path class="st0" d="M23,6.8h13.8v2.4H23V6.8z"/>
		<path class="st0" d="M44.6,2.6h-2.7l1.8-2.4h3.4V13h-2.5V2.6z"/>
		<path class="st0" d="M55.2,10.1h-6.4v-2l6.6-7.9h2.2v7.6h1.7v2.3h-1.7V13h-2.5V10.1z M55.2,3.9l-3.3,3.9h3.3V3.9z"/>
	</g>
	<g>
		<path class="st0" d="M10.6,34.6l-6.6-8.3v8.3H1.4V21.8h2.3l6.6,8.3v-8.3h2.6v12.8H10.6z"/>
		<path class="st0" d="M21.5,34.8c-3.7,0-6.6-3-6.6-6.6c0-3.7,3-6.6,6.6-6.6c3.7,0,6.6,3,6.6,6.6C28.2,31.9,25.2,34.8,21.5,34.8z
			 M21.5,32.3c2.2,0,4-1.9,4-4.1c0-2.2-1.7-4.1-4-4.1c-2.2,0-4,1.9-4,4.1C17.6,30.4,19.3,32.3,21.5,32.3z"/>
		<path class="st0" d="M28.4,21.8h2.8l3.6,8.9l3.6-8.9h2.9l-5.3,12.8h-2.3L28.4,21.8z"/>
		<path class="st0" d="M42.7,21.8h8v2.5h-5.3v2.6h4.3v2.5h-4.3v2.7h5.3v2.5h-8V21.8z"/>
		<path class="st0" d="M55.5,26.3v8.3h-2.6V21.8h2.4l4.2,5.7l4.2-5.7H66v12.8h-2.6v-8.3l-3.9,5.4L55.5,26.3z"/>
		<path class="st0" d="M68.8,21.8h4.7c2.1,0,3.8,1.7,3.8,3.7c0,1-0.4,1.7-1,2.3c1.1,0.5,1.9,1.6,1.9,3c0,2.1-1.7,3.8-4,3.8h-5.4
			V21.8z M73.3,27.1c0.9,0,1.5-0.6,1.5-1.4c0-0.8-0.6-1.4-1.5-1.4h-1.8v2.9H73.3z M74.1,32.2c1,0,1.6-0.6,1.6-1.5
			c0-0.8-0.6-1.5-1.6-1.5h-2.6v2.9H74.1z"/>
		<path class="st0" d="M80.2,21.8h8v2.5h-5.3v2.6h4.3v2.5h-4.3v2.7h5.3v2.5h-8V21.8z"/>
		<path class="st0" d="M90.5,21.8h4.9c2.4,0,3.9,1.7,3.9,3.8c0,1.7-0.9,2.8-2.6,3.3l4.6,5.7h-3.2l-4.4-5.4h-0.6v5.4h-2.6V21.8z
			 M95.1,27c1,0,1.6-0.5,1.6-1.4c0-0.9-0.7-1.4-1.6-1.4h-2V27H95.1z"/>
		<path class="st0" d="M114,34.6h-8.7v-0.8c0-2.9,2.3-4.1,4.1-5.4c1.1-0.8,2-1.6,2-2.6c0-0.9-0.6-1.7-1.7-1.7
			c-1.1,0-1.9,0.8-1.9,1.8h-2.5c0-2.5,1.9-4.2,4.5-4.2c2.2,0,4.1,1.3,4.1,3.9c0,2.2-1.1,3.3-2.7,4.5c-0.8,0.6-2.1,1.3-2.5,2.1h5.3
			V34.6z"/>
		<path class="st0" d="M120.6,34.8c-2.8,0-4.8-2.1-4.8-5.1v-3.1c0-2.9,2-5,4.8-5c2.8,0,4.8,2.1,4.8,5v3.1
			C125.3,32.7,123.4,34.8,120.6,34.8z M120.6,32.4c1.4,0,2.3-1,2.3-2.6v-3.1c0-1.6-0.9-2.6-2.3-2.6c-1.4,0-2.3,1-2.3,2.6v3.1
			C118.3,31.4,119.2,32.4,120.6,32.4z"/>
		<path class="st0" d="M135.7,34.6H127v-0.8c0-2.9,2.3-4.1,4.1-5.4c1.1-0.8,2-1.6,2-2.6c0-0.9-0.6-1.7-1.7-1.7
			c-1.1,0-1.9,0.8-1.9,1.8H127c0-2.5,1.9-4.2,4.5-4.2c2.2,0,4.1,1.3,4.1,3.9c0,2.2-1.1,3.3-2.7,4.5c-0.8,0.6-2.1,1.3-2.5,2.1h5.3
			V34.6z"/>
		<path class="st0" d="M139.2,24.2h-2.7l1.8-2.4h3.4v12.8h-2.5V24.2z"/>
	</g>
</g>
</svg>
