<?xml version="1.0" encoding="utf-8"?>
<!-- Generator: Adobe Illustrator 24.0.0, SVG Export Plug-In . SVG Version: 6.00 Build 0)  -->
<svg version="1.1" id="Laag_1" xmlns="http://www.w3.org/2000/svg" xmlns:xlink="http://www.w3.org/1999/xlink" x="0px" y="0px"
	 width="139.2px" height="14px" viewBox="0 0 139.2 14" style="enable-background:new 0 0 139.2 14;" xml:space="preserve">
<g>
	<path d="M2.4,3.6h1.1V1.2h1.2v2.4h1.5v1H4.7v5c0,0.3,0.1,0.5,0.2,0.6c0.1,0.1,0.3,0.2,0.6,0.2c0.1,0,0.2,0,0.4,0
		c0.1,0,0.2,0,0.3-0.1l0,0v1.1c-0.1,0-0.3,0.1-0.5,0.1s-0.3,0-0.5,0c-0.5,0-0.9-0.1-1.2-0.3S3.5,10.6,3.5,10V4.6H2.4V3.6z"/>
	<path d="M11.2,0.6h1.3L8.2,11.3H7L11.2,0.6z"/>
	<path d="M12.9,3.6h1.2v1.1l0,0c0.2-0.4,0.6-0.7,1-0.9s0.8-0.4,1.3-0.4s0.9,0.1,1.2,0.4c0.3,0.2,0.6,0.6,0.8,1l0,0
		c0.2-0.5,0.6-0.8,1-1s0.9-0.4,1.4-0.4c0.7,0,1.3,0.2,1.7,0.6s0.7,1,0.7,1.9v5.4H22V6c0-0.5-0.1-0.9-0.4-1.1c-0.3-0.3-0.6-0.4-1-0.4
		c-0.3,0-0.5,0.1-0.7,0.2s-0.4,0.2-0.6,0.4c-0.2,0.2-0.3,0.4-0.4,0.7c-0.1,0.3-0.2,0.5-0.2,0.8v4.8h-1.2V6c0-0.5-0.1-0.9-0.4-1.1
		c-0.2-0.3-0.6-0.4-1-0.4c-0.2,0-0.5,0.1-0.7,0.2S15,4.9,14.8,5.1c-0.2,0.2-0.3,0.4-0.5,0.7c-0.1,0.3-0.2,0.5-0.2,0.8v4.8h-1.2
		C12.9,11.4,12.9,3.6,12.9,3.6z"/>
	<path d="M31.6,8.8h-4.8V7.7l5-6.7h1v6.9h1.7v1h-1.7v2.5h-1.2V8.8z M27.9,7.8h3.6V3l0,0L27.9,7.8L27.9,7.8z"/>
	<path d="M41.4,11.6c-0.6,0-1.1-0.1-1.6-0.3s-0.9-0.5-1.2-0.9C38.3,10,38,9.6,37.9,9.1c-0.2-0.5-0.3-1-0.3-1.6s0.1-1.1,0.3-1.6
		s0.4-0.9,0.8-1.3c0.3-0.4,0.7-0.7,1.2-0.9s1-0.3,1.6-0.3s1.1,0.1,1.6,0.3s0.9,0.5,1.2,0.9C44.6,5,44.9,5.4,45,5.9
		c0.2,0.5,0.3,1,0.3,1.6S45.2,8.6,45,9.1c-0.2,0.5-0.4,0.9-0.7,1.3c-0.3,0.4-0.7,0.7-1.2,0.9C42.4,11.5,41.9,11.6,41.4,11.6z
		 M41.4,10.6c0.4,0,0.8-0.1,1.1-0.2c0.3-0.2,0.6-0.4,0.8-0.7c0.2-0.3,0.4-0.6,0.5-1S44,7.9,44,7.5c0-0.4-0.1-0.8-0.2-1.2
		c-0.1-0.4-0.3-0.7-0.5-1s-0.5-0.5-0.8-0.7s-0.7-0.2-1.1-0.2s-0.8,0.1-1.1,0.2C40,4.8,39.7,5,39.5,5.3s-0.4,0.6-0.5,1
		s-0.2,0.8-0.2,1.2c0,0.4,0.1,0.8,0.2,1.2s0.3,0.7,0.5,1s0.5,0.5,0.8,0.7C40.6,10.5,40.9,10.6,41.4,10.6z"/>
	<path d="M48.7,7.2l-1.1,1.1v3.1h-1.2V0.6h1.2v6.3L51,3.6h1.5l-3,2.8l3.3,5h-1.4L48.7,7.2z"/>
	<path d="M53,3.6h1.1V1.2h1.2v2.4h1.5v1h-1.5v5c0,0.3,0.1,0.5,0.2,0.6s0.3,0.2,0.6,0.2c0.1,0,0.2,0,0.4,0c0.1,0,0.2,0,0.3-0.1l0,0
		v1.1c-0.1,0-0.3,0.1-0.5,0.1s-0.3,0-0.5,0c-0.5,0-0.9-0.1-1.2-0.3c-0.3-0.2-0.5-0.6-0.5-1.2V4.6H53V3.6z"/>
	<path d="M61.3,11.6c-0.6,0-1.1-0.1-1.6-0.3s-0.9-0.5-1.2-0.9C58.3,10,58,9.6,57.9,9.1c-0.2-0.5-0.3-1-0.3-1.6s0.1-1.1,0.3-1.6
		s0.4-0.9,0.8-1.3s0.7-0.7,1.2-0.9s1-0.3,1.6-0.3s1.1,0.1,1.6,0.3s0.9,0.5,1.2,0.9C64.6,5,64.9,5.4,65,5.9s0.3,1,0.3,1.6
		S65.2,8.6,65,9.1c-0.2,0.5-0.4,0.9-0.7,1.3c-0.3,0.4-0.7,0.7-1.2,0.9S61.9,11.6,61.3,11.6z M61.3,10.6c0.4,0,0.8-0.1,1.1-0.2
		c0.3-0.2,0.6-0.4,0.8-0.7c0.2-0.3,0.4-0.6,0.5-1s0.2-0.8,0.2-1.2c0-0.4-0.1-0.8-0.2-1.2c-0.1-0.4-0.3-0.7-0.5-1s-0.5-0.5-0.8-0.7
		s-0.7-0.2-1.1-0.2s-0.8,0.1-1.1,0.2c-0.3,0.2-0.6,0.4-0.8,0.7s-0.4,0.6-0.5,1s-0.2,0.8-0.2,1.2c0,0.4,0.1,0.8,0.2,1.2
		s0.3,0.7,0.5,1s0.5,0.5,0.8,0.7C60.6,10.5,60.9,10.6,61.3,10.6z"/>
	<path d="M70,11.6c-0.5,0-1-0.1-1.4-0.3s-0.7-0.5-1.1-1l0,0v1h-1.2V0.6h1.2v4.1l0,0c0.3-0.4,0.6-0.7,1-0.9s0.9-0.3,1.5-0.3
		c0.5,0,0.9,0.1,1.3,0.3s0.8,0.5,1,0.8s0.5,0.8,0.7,1.3s0.2,1.1,0.2,1.7S73.1,8.8,73,9.3s-0.4,0.9-0.7,1.3c-0.3,0.4-0.6,0.6-1.1,0.8
		C71,11.5,70.5,11.6,70,11.6z M69.9,10.6c0.4,0,0.7-0.1,1-0.2c0.3-0.2,0.5-0.4,0.7-0.6c0.2-0.3,0.3-0.6,0.4-1s0.1-0.8,0.1-1.2
		c0-0.4,0-0.8-0.1-1.2c-0.1-0.4-0.2-0.7-0.4-1c-0.2-0.3-0.4-0.5-0.7-0.6c-0.3-0.2-0.6-0.2-1-0.2s-0.8,0.1-1.1,0.2
		C68.5,5,68.2,5.2,68,5.5c-0.2,0.3-0.4,0.6-0.5,1s-0.2,0.8-0.2,1.2c0,0.4,0,0.8,0.2,1.2c0.1,0.4,0.3,0.7,0.5,1s0.5,0.5,0.8,0.6
		C69.1,10.5,69.5,10.6,69.9,10.6z"/>
	<path d="M77.9,11.6c-0.6,0-1.1-0.1-1.6-0.3s-0.9-0.5-1.2-0.9c-0.3-0.4-0.6-0.8-0.7-1.3c-0.2-0.5-0.3-1-0.3-1.6s0.1-1.1,0.3-1.6
		s0.4-0.9,0.8-1.3s0.7-0.7,1.2-0.9c0.4-0.2,0.9-0.3,1.5-0.3s1.1,0.1,1.5,0.3s0.8,0.5,1.1,0.9S81,5.4,81.2,6s0.2,1.1,0.2,1.8h-6
		c0,0.4,0.1,0.8,0.2,1.1s0.3,0.6,0.5,0.9c0.2,0.3,0.5,0.4,0.8,0.6c0.3,0.1,0.6,0.2,1,0.2c0.6,0,1-0.1,1.4-0.4
		c0.4-0.3,0.6-0.7,0.8-1.2h1.2c-0.2,0.8-0.6,1.5-1.1,1.9S78.7,11.6,77.9,11.6z M77.8,4.4c-0.4,0-0.7,0.1-1,0.2s-0.5,0.3-0.7,0.5
		s-0.4,0.5-0.5,0.8s-0.2,0.6-0.2,1h4.7c0-0.8-0.3-1.4-0.6-1.8C79,4.6,78.5,4.4,77.8,4.4z"/>
	<path d="M83.8,4.9L83.8,4.9c0.3-0.4,0.6-0.7,1-1s0.9-0.4,1.4-0.4c0.1,0,0.2,0,0.3,0c0.1,0,0.1,0,0.2,0.1v1.2l0,0
		c-0.1,0-0.2,0-0.2-0.1c-0.1,0-0.2,0-0.3,0c-0.3,0-0.6,0.1-0.9,0.2s-0.5,0.3-0.7,0.5s-0.4,0.4-0.5,0.7s-0.2,0.6-0.2,1v4.3h-1.2V3.6
		h1.2v1.3H83.8z"/>
	<path d="M90.1,9.6c0.2-0.5,0.5-0.9,0.9-1.3c0.4-0.4,0.8-0.7,1.2-1c0.4-0.3,0.9-0.5,1.3-0.8c0.3-0.2,0.6-0.4,0.9-0.5
		c0.3-0.2,0.5-0.4,0.7-0.6s0.3-0.4,0.4-0.6s0.2-0.5,0.2-0.8c0-0.6-0.2-1.1-0.6-1.5s-0.9-0.6-1.6-0.6c-0.4,0-0.7,0.1-0.9,0.2
		c-0.3,0.1-0.5,0.3-0.7,0.5s-0.3,0.5-0.4,0.8s-0.1,0.7-0.1,1.3H90C90,4,90.1,3.5,90.2,3c0.2-0.4,0.4-0.8,0.7-1.1
		c0.3-0.3,0.7-0.6,1.2-0.7s1-0.2,1.5-0.2s1,0.1,1.4,0.2s0.8,0.4,1.1,0.7c0.3,0.3,0.5,0.6,0.7,1C97,3.1,97,3.6,97,4
		c0,0.5-0.1,0.9-0.2,1.3c-0.2,0.3-0.4,0.6-0.6,0.9c-0.3,0.3-0.6,0.5-1,0.7S94.4,7.3,94,7.6c-0.3,0.2-0.6,0.3-0.9,0.5
		c-0.3,0.2-0.6,0.4-0.8,0.6c-0.3,0.2-0.5,0.4-0.7,0.7s-0.3,0.5-0.4,0.8h5.6v1.2h-7.1C89.7,10.7,89.9,10.1,90.1,9.6z"/>
	<path d="M102.2,11.6c-0.6,0-1.2-0.1-1.7-0.4c-0.5-0.3-0.9-0.6-1.3-1.1s-0.6-1-0.8-1.7S98.1,7,98.1,6.2s0.1-1.6,0.3-2.2
		c0.2-0.7,0.5-1.2,0.8-1.7s0.8-0.8,1.3-1.1c0.5-0.2,1-0.4,1.7-0.4c0.6,0,1.2,0.1,1.7,0.4c0.5,0.2,0.9,0.6,1.3,1.1s0.6,1,0.8,1.7
		s0.3,1.4,0.3,2.3c0,0.8-0.1,1.6-0.3,2.2c-0.2,0.7-0.4,1.2-0.8,1.7c-0.3,0.5-0.8,0.8-1.3,1.1S102.9,11.6,102.2,11.6z M102.2,10.5
		c0.9,0,1.6-0.4,2-1.1c0.4-0.8,0.7-1.8,0.7-3.1c0-0.7-0.1-1.2-0.2-1.8s-0.3-1-0.5-1.4s-0.5-0.7-0.8-0.9s-0.7-0.3-1.2-0.3
		c-0.9,0-1.6,0.4-2,1.1c-0.4,0.8-0.7,1.8-0.7,3.1c0,0.6,0.1,1.2,0.2,1.8s0.3,1,0.5,1.3c0.2,0.4,0.5,0.7,0.8,0.9
		C101.4,10.4,101.8,10.5,102.2,10.5z"/>
	<path d="M107.7,9.6c0.2-0.5,0.5-0.9,0.9-1.3c0.4-0.4,0.8-0.7,1.2-1s0.9-0.5,1.3-0.8c0.3-0.2,0.6-0.4,0.9-0.5
		c0.3-0.2,0.5-0.4,0.7-0.6s0.3-0.4,0.4-0.6c0.1-0.2,0.2-0.5,0.2-0.8c0-0.6-0.2-1.1-0.6-1.5c-0.4-0.4-0.9-0.6-1.6-0.6
		c-0.4,0-0.7,0.1-0.9,0.2c-0.3,0.1-0.5,0.3-0.7,0.5s-0.3,0.5-0.4,0.8C109,3.7,109,4.1,109,4.7h-1.3c0-0.7,0.1-1.2,0.2-1.7
		c0.2-0.4,0.4-0.8,0.7-1.1s0.7-0.6,1.2-0.7s1-0.2,1.5-0.2s1,0.1,1.4,0.2s0.8,0.4,1.1,0.7s0.5,0.6,0.7,1s0.2,0.8,0.2,1.3
		s-0.1,0.9-0.2,1.3c-0.2,0.3-0.4,0.6-0.6,0.9c-0.3,0.3-0.6,0.5-1,0.7s-0.8,0.4-1.2,0.7c-0.3,0.2-0.6,0.3-0.9,0.5
		c-0.3,0.2-0.6,0.4-0.8,0.6c-0.3,0.2-0.5,0.4-0.7,0.7s-0.3,0.5-0.4,0.8h5.6v1.2h-7.1C107.3,10.7,107.4,10.1,107.7,9.6z"/>
	<path d="M119.8,11.6c-0.6,0-1.2-0.1-1.7-0.4c-0.5-0.3-0.9-0.6-1.3-1.1s-0.6-1-0.8-1.7s-0.3-1.4-0.3-2.2s0.1-1.6,0.3-2.2
		c0.2-0.7,0.5-1.2,0.8-1.7s0.8-0.8,1.3-1.1c0.5-0.2,1-0.4,1.7-0.4c0.6,0,1.2,0.1,1.7,0.4c0.5,0.2,0.9,0.6,1.3,1.1s0.6,1,0.8,1.7
		s0.3,1.4,0.3,2.3c0,0.8-0.1,1.6-0.3,2.2c-0.2,0.7-0.4,1.2-0.8,1.7c-0.3,0.5-0.8,0.8-1.3,1.1S120.4,11.6,119.8,11.6z M119.8,10.5
		c0.9,0,1.6-0.4,2-1.1c0.4-0.8,0.7-1.8,0.7-3.1c0-0.7-0.1-1.2-0.2-1.8s-0.3-1-0.5-1.4s-0.5-0.7-0.8-0.9s-0.7-0.3-1.2-0.3
		c-0.9,0-1.6,0.4-2,1.1c-0.4,0.8-0.7,1.8-0.7,3.1c0,0.6,0.1,1.2,0.2,1.8s0.3,1,0.5,1.3c0.2,0.4,0.5,0.7,0.8,0.9
		C119,10.4,119.4,10.5,119.8,10.5z"/>
</g>
</svg>
