<?xml version="1.0" encoding="utf-8"?>
<!-- Generator: Adobe Illustrator 24.0.0, SVG Export Plug-In . SVG Version: 6.00 Build 0)  -->
<svg version="1.1" id="Laag_1" xmlns="http://www.w3.org/2000/svg" xmlns:xlink="http://www.w3.org/1999/xlink" x="0px" y="0px"
	 width="112.1px" height="50.8px" viewBox="0 0 112.1 50.8" style="enable-background:new 0 0 112.1 50.8;" xml:space="preserve">
<style type="text/css">
	.st0{fill:#FFFFFF;}
</style>
<g>
	<path class="st0" d="M1.2,0.8h15.5v4.5H6.5v3h9.3v4.2H6.5v3.1h10.4v4.6H1.2V0.8z"/>
	<path class="st0" d="M18.9,22.9l1.7-3.5c1.6,0.9,3.2,1.4,5.2,1.4c2.6,0,3.9-1.3,3.9-3.7v-0.6c-1,1.2-2.4,2.2-4.6,2.2
		c-3.7,0-6.6-2.6-6.6-6.9v-0.1c0-4.3,3-7,6.5-7c2.3,0,3.6,0.9,4.7,2.1V5.2h5.2v11.3c0,2.7-0.6,4.7-1.9,6c-1.4,1.4-3.4,2.1-6.6,2.1
		C23.5,24.6,21.1,24,18.9,22.9z M29.7,11.9L29.7,11.9c0-1.7-1.3-3-3.1-3c-1.8,0-3.1,1.2-3.1,2.9v0.1c0,1.7,1.3,2.9,3.1,2.9
		C28.5,14.8,29.7,13.5,29.7,11.9z"/>
	<path class="st0" d="M37.7,0h5.4v3.9h-5.4V0z M37.8,5.2H43v14.9h-5.2V5.2z"/>
	<path class="st0" d="M46.9,15.5V9.4h-1.8V5.2h1.8V1.4h5.2v3.8h3.5v4.2h-3.5v5.1c0,1,0.5,1.5,1.4,1.5c0.7,0,1.4-0.2,2-0.5v4.1
		c-0.9,0.5-2.2,0.9-3.6,0.9C48.8,20.4,46.9,19.1,46.9,15.5z"/>
	<path class="st0" d="M58.8,15.5V9.4H57V5.2h1.8V1.4H64v3.8h3.5v4.2H64v5.1c0,1,0.5,1.5,1.4,1.5c0.7,0,1.4-0.2,2-0.5v4.1
		c-0.9,0.5-2.2,0.9-3.6,0.9C60.7,20.4,58.8,19.1,58.8,15.5z"/>
	<path class="st0" d="M68.8,12.7L68.8,12.7c0-4.3,3.5-7.9,8.2-7.9c4.8,0,8.2,3.5,8.2,7.8v0.1c0,4.2-3.5,7.8-8.3,7.8
		C72.2,20.5,68.8,17,68.8,12.7z M80.2,12.7L80.2,12.7c0-1.9-1.4-3.4-3.2-3.4c-1.9,0-3.1,1.5-3.1,3.3v0.1c0,1.8,1.3,3.4,3.2,3.4
		C78.9,16.1,80.2,14.5,80.2,12.7z"/>
</g>
<g>
	<path class="st0" d="M0.2,43.2L0.2,43.2c0-3.2,2.3-4.7,5.8-4.7c1.4,0,2.7,0.2,3.6,0.6v-0.2c0-1.6-1-2.5-3-2.5
		c-1.6,0-2.8,0.3-4.1,0.8l-1.1-3.7c1.7-0.7,3.5-1.2,6-1.2c2.7,0,4.5,0.6,5.7,1.8c1.1,1.1,1.6,2.6,1.6,4.7v8.6H9.6v-1.6
		c-1,1.1-2.5,1.9-4.4,1.9C2.3,47.9,0.2,46.2,0.2,43.2z M9.7,42.1v-0.7C9.1,41.2,8.4,41,7.6,41c-1.5,0-2.4,0.7-2.4,1.8v0.1
		c0,1,0.8,1.6,1.8,1.6C8.6,44.6,9.7,43.6,9.7,42.1z"/>
	<path class="st0" d="M25.1,27.4h5.2v10.2l4.1-5h5.9l-5.2,6l5.3,9h-5.8l-3-5.1L30.3,44v3.5h-5.2C25.1,47.5,25.1,27.4,25.1,27.4z"/>
	<path class="st0" d="M41.7,32.6h5.2v2c1-1.2,2.3-2.4,4.4-2.4c2,0,3.5,0.9,4.3,2.4c1.3-1.5,2.8-2.4,5-2.4c3.2,0,5.1,2,5.1,5.5v9.8
		h-5.2v-8.1c0-1.6-0.8-2.5-2-2.5s-2.2,0.9-2.2,2.5v8.1h-5.2v-8.1c0-1.6-0.8-2.5-2.1-2.5c-1.2,0-2.1,0.9-2.1,2.5v8.1h-5.2
		C41.7,47.5,41.7,32.6,41.7,32.6z"/>
	<path class="st0" d="M96.8,28.1L94,31.2c1.6,1.8,2.5,4.1,2.5,6.6v0.1c0,5.5-4.5,10-10.4,10c-2,0-3.9-0.5-5.5-1.4l-1.1,1.2h-4.1
		l2.7-3.1c-1.6-1.7-2.5-4.1-2.5-6.6v-0.1c0-5.5,4.5-10,10.4-10c2,0,3.9,0.5,5.5,1.4l1.1-1.2H96.8z M81.8,40.5l6.6-7.5
		c-0.7-0.3-1.4-0.5-2.2-0.5c-3,0-5,2.4-5,5.3v0.1C81.1,38.8,81.4,39.7,81.8,40.5z M91.2,37.9L91.2,37.9c0-1-0.2-2-0.7-2.8l-6.6,7.5
		c0.7,0.4,1.4,0.5,2.3,0.5C89.2,43.2,91.2,40.8,91.2,37.9z"/>
</g>
</svg>
