<?xml version="1.0" encoding="utf-8"?>
<!-- Generator: Adobe Illustrator 24.0.0, SVG Export Plug-In . SVG Version: 6.00 Build 0)  -->
<svg version="1.1" id="Laag_1" xmlns="http://www.w3.org/2000/svg" xmlns:xlink="http://www.w3.org/1999/xlink" x="0px" y="0px"
	 width="112.1px" height="48.8px" viewBox="0 0 112.1 48.8" style="enable-background:new 0 0 112.1 48.8;" xml:space="preserve">
<style type="text/css">
	.st0{fill:#FFFFFF;}
</style>
<g>
	<path class="st0" d="M0,0.8h5.7L10,12.6l4.2-11.8h5.6l-7.5,18.7H7.5L0,0.8z"/>
	<path class="st0" d="M18.7,15.3L18.7,15.3c0-3.1,2.3-4.6,5.6-4.6c1.3,0,2.6,0.2,3.5,0.6V11c0-1.5-0.9-2.4-2.9-2.4
		c-1.5,0-2.7,0.3-4,0.8l-1-3.5c1.6-0.7,3.3-1.1,5.8-1.1c2.6,0,4.3,0.6,5.5,1.8c1.1,1.1,1.5,2.5,1.5,4.6v8.3h-5V18
		c-1,1.1-2.4,1.8-4.2,1.8C20.7,19.7,18.7,18.1,18.7,15.3z M27.8,14.2v-0.7c-0.5-0.2-1.2-0.4-2-0.4c-1.5,0-2.3,0.7-2.3,1.8V15
		c0,1,0.7,1.6,1.8,1.6C26.8,16.5,27.8,15.6,27.8,14.2z"/>
	<path class="st0" d="M34.7,12.3L34.7,12.3c0-4.1,3.1-7.5,7.7-7.5c2.9,0,4.9,1.3,6.1,3.2l-3.4,2.5C44.4,9.6,43.6,9,42.4,9
		c-1.6,0-2.8,1.5-2.8,3.2v0.1c0,1.9,1.2,3.3,2.9,3.3c1.2,0,2-0.6,2.8-1.5l3.4,2.4c-1.3,2-3.2,3.3-6.4,3.3
		C37.9,19.7,34.7,16.3,34.7,12.3z"/>
	<path class="st0" d="M49.7,15.3L49.7,15.3c0-3.1,2.3-4.6,5.6-4.6c1.3,0,2.6,0.2,3.5,0.6V11c0-1.5-0.9-2.4-2.9-2.4
		c-1.5,0-2.7,0.3-4,0.8l-1-3.5c1.6-0.7,3.3-1.1,5.8-1.1c2.6,0,4.3,0.6,5.5,1.8c1.1,1.1,1.5,2.5,1.5,4.6v8.3h-5V18
		c-1,1.1-2.4,1.8-4.2,1.8C51.7,19.7,49.7,18.1,49.7,15.3z M58.8,14.2v-0.7c-0.5-0.2-1.2-0.4-2-0.4c-1.5,0-2.3,0.7-2.3,1.8V15
		c0,1,0.7,1.6,1.8,1.6C57.8,16.5,58.8,15.6,58.8,14.2z"/>
	<path class="st0" d="M66.3,5h5v2c0.9-1.2,2.3-2.3,4.3-2.3c3.1,0,4.9,2,4.9,5.3v9.4h-5v-7.8c0-1.6-0.8-2.4-2-2.4s-2.1,0.8-2.1,2.4
		v7.8h-5V5H66.3z"/>
	<path class="st0" d="M82.6,16.1L89.2,9h-6.4V5h13.1v3.3l-6.7,7.1h6.7v4H82.6V16.1z"/>
	<path class="st0" d="M97.1,12.3L97.1,12.3c0-4.2,3-7.6,7.2-7.6c4.9,0,7.2,3.6,7.2,7.9c0,0.3,0,0.7,0,1h-9.6
		c0.4,1.6,1.5,2.4,3.1,2.4c1.2,0,2.2-0.5,3.2-1.5l2.8,2.3c-1.4,1.8-3.4,2.9-6.2,2.9C100.3,19.7,97.1,16.7,97.1,12.3z M106.9,11
		c-0.2-1.6-1.1-2.6-2.5-2.6c-1.3,0-2.2,1-2.5,2.6H106.9z"/>
	<path class="st0" d="M0,36.6L0,36.6C0,32.4,3,29,7.2,29c4.9,0,7.2,3.6,7.2,7.9c0,0.3,0,0.7,0,1H4.8c0.4,1.6,1.5,2.4,3.1,2.4
		c1.2,0,2.2-0.5,3.2-1.5l2.8,2.3c-1.4,1.8-3.4,2.9-6.2,2.9C3.2,44,0,41,0,36.6z M9.8,35.3c-0.2-1.6-1.1-2.6-2.5-2.6
		c-1.3,0-2.2,1-2.5,2.6H9.8z"/>
	<path class="st0" d="M16.6,46.3l1.6-3.3c1.5,0.8,3.1,1.4,5,1.4c2.5,0,3.7-1.2,3.7-3.5v-0.6c-1,1.2-2.3,2.2-4.4,2.2
		c-3.5,0-6.4-2.5-6.4-6.7v-0.1c0-4.1,2.9-6.7,6.2-6.7c2.2,0,3.5,0.9,4.5,2v-1.7h5v10.9c0,2.6-0.6,4.5-1.9,5.7c-1.3,1.3-3.3,2-6.3,2
		C21,48,18.6,47.4,16.6,46.3z M27,35.7L27,35.7c0-1.6-1.2-2.8-2.9-2.8s-2.9,1.2-2.9,2.8v0.1c0,1.6,1.2,2.8,2.9,2.8
		C25.8,38.5,27,37.3,27,35.7z"/>
	<path class="st0" d="M34.6,24.3h5.2V28h-5.2V24.3z M34.8,29.3h5v14.4h-5V29.3z"/>
	<path class="st0" d="M42.1,40.4l6.6-7.1h-6.4v-4h13.1v3.3l-6.7,7.1h6.7v4H42.1V40.4L42.1,40.4z"/>
	<path class="st0" d="M57.6,24.3h5.2V28h-5.2V24.3z M57.7,29.3h5v14.4h-5V29.3z"/>
	<path class="st0" d="M64.8,39.6L64.8,39.6c0-3.1,2.3-4.6,5.6-4.6c1.3,0,2.6,0.2,3.5,0.6v-0.3c0-1.5-0.9-2.4-2.9-2.4
		c-1.5,0-2.7,0.3-4,0.8l-1-3.5c1.6-0.7,3.3-1.1,5.8-1.1c2.6,0,4.3,0.6,5.5,1.8c1.1,1.1,1.5,2.5,1.5,4.6v8.3h-5v-1.5
		c-1,1.1-2.4,1.8-4.2,1.8C66.9,44,64.8,42.4,64.8,39.6z M74,38.5v-0.7c-0.5-0.2-1.2-0.4-2-0.4c-1.5,0-2.3,0.7-2.3,1.8v0.1
		c0,1,0.7,1.6,1.8,1.6C72.9,40.8,74,39.9,74,38.5z"/>
	<path class="st0" d="M81.4,29.3h5v2c0.9-1.2,2.3-2.3,4.3-2.3c3.1,0,4.9,2,4.9,5.3v9.4h-5v-7.8c0-1.6-0.8-2.4-2-2.4
		s-2.1,0.8-2.1,2.4v7.8h-5L81.4,29.3L81.4,29.3z"/>
	<path class="st0" d="M97.7,36.6L97.7,36.6c0-4.2,3-7.6,7.2-7.6c4.9,0,7.2,3.6,7.2,7.9c0,0.3,0,0.7,0,1h-9.6
		c0.4,1.6,1.5,2.4,3.1,2.4c1.2,0,2.2-0.5,3.2-1.5l2.8,2.3c-1.4,1.8-3.4,2.9-6.2,2.9C100.9,44,97.7,41,97.7,36.6z M107.5,35.3
		c-0.2-1.6-1.1-2.6-2.5-2.6c-1.3,0-2.2,1-2.5,2.6H107.5z"/>
</g>
</svg>
