<?xml version="1.0" encoding="utf-8"?>
<!-- Generator: Adobe Illustrator 24.0.0, SVG Export Plug-In . SVG Version: 6.00 Build 0)  -->
<svg version="1.1" id="Laag_1" xmlns="http://www.w3.org/2000/svg" xmlns:xlink="http://www.w3.org/1999/xlink" x="0px" y="0px"
	 width="128.2px" height="43.6px" viewBox="0 0 128.2 43.6" style="enable-background:new 0 0 128.2 43.6;" xml:space="preserve">
<style type="text/css">
	.st0{fill:#FFFFFF;}
</style>
<g>
	<path class="st0" d="M0.3,15.7h1.6V22H0.3V15.7z"/>
	<path class="st0" d="M3.2,17.5h1.4v0.6l0,0c0.2-0.2,0.4-0.4,0.6-0.6c0.2-0.2,0.5-0.2,0.8-0.2s0.5,0,0.7,0.1
		c0.2,0.1,0.4,0.2,0.5,0.4c0.1,0.2,0.2,0.3,0.3,0.5c0.1,0.2,0.1,0.4,0.1,0.7v2.9H6.1v-2.5c0-0.2-0.1-0.4-0.2-0.6
		c-0.1-0.2-0.3-0.2-0.6-0.2s-0.5,0.1-0.6,0.3c-0.2,0.2-0.2,0.4-0.2,0.7v2.5H3v-4.6H3.2z"/>
	<path class="st0" d="M10.6,22c-0.2,0-0.4,0-0.6-0.1c-0.2,0-0.3-0.1-0.5-0.2s-0.2-0.2-0.3-0.4c-0.1-0.2-0.1-0.4-0.1-0.6v-2.3H8.5
		v-0.9h0.6v-1.4h1.5v1.4h0.9v0.9h-0.9v2.1c0,0.2,0,0.3,0.1,0.4c0.1,0.1,0.2,0.1,0.4,0.1c0.1,0,0.1,0,0.2,0c0.1,0,0.1,0,0.1,0v1
		c-0.1,0-0.2,0-0.3,0C11,22,10.8,22,10.6,22z"/>
	<path class="st0" d="M14.7,22.1c-0.4,0-0.7-0.1-1-0.2c-0.3-0.1-0.6-0.3-0.8-0.5c-0.2-0.2-0.4-0.5-0.5-0.8c-0.1-0.3-0.2-0.6-0.2-1
		c0-0.3,0.1-0.6,0.2-0.9c0.1-0.3,0.3-0.5,0.5-0.8c0.2-0.2,0.5-0.4,0.8-0.5c0.3-0.1,0.6-0.2,1-0.2c0.3,0,0.6,0,0.9,0.1
		c0.3,0.1,0.5,0.2,0.7,0.4c0.3,0.2,0.5,0.6,0.6,0.9c0.1,0.4,0.2,0.8,0.2,1.3h-3.4c0,0.3,0.2,0.5,0.3,0.7c0.2,0.2,0.4,0.3,0.7,0.3
		c0.2,0,0.4,0,0.5-0.1s0.2-0.2,0.3-0.3H17c0,0.2-0.1,0.4-0.3,0.6c-0.1,0.2-0.3,0.3-0.5,0.5C16,21.8,15.8,22,15.5,22
		C15.3,22.1,15,22.1,14.7,22.1z M15.5,19.3c0-0.3-0.1-0.5-0.3-0.6c-0.2-0.2-0.4-0.2-0.6-0.2c-0.3,0-0.5,0.1-0.7,0.2
		c-0.1,0.1-0.2,0.3-0.2,0.6H15.5z"/>
	<path class="st0" d="M18,17.5h1.4v0.7l0,0c0.2-0.3,0.4-0.5,0.6-0.6c0.2-0.1,0.4-0.2,0.7-0.2c0.1,0,0.2,0,0.3,0v1.2l0,0
		c-0.5-0.1-0.8,0-1.1,0.2c-0.3,0.2-0.4,0.6-0.4,1.1v2H18V17.5z"/>
	<path class="st0" d="M22,17.5h1.4v0.6l0,0c0.2-0.2,0.4-0.4,0.6-0.6c0.2-0.1,0.5-0.2,0.8-0.2c0.3,0,0.5,0,0.7,0.1
		c0.3,0.2,0.5,0.3,0.6,0.4c0.1,0.1,0.2,0.3,0.3,0.5c0.1,0.2,0.1,0.4,0.1,0.7v2.9H25v-2.5c0-0.2-0.1-0.4-0.2-0.6
		c-0.1-0.1-0.3-0.2-0.6-0.2s-0.5,0.1-0.6,0.3c-0.2,0.2-0.2,0.4-0.2,0.7v2.5h-1.5L22,17.5L22,17.5z"/>
	<path class="st0" d="M29.1,22.1c-0.2,0-0.4,0-0.6-0.1c-0.2-0.1-0.4-0.1-0.5-0.3c-0.1-0.1-0.3-0.3-0.3-0.4c-0.1-0.2-0.1-0.4-0.1-0.6
		c0-0.2,0-0.5,0.1-0.6s0.1-0.3,0.3-0.4s0.4-0.2,0.6-0.3c0.2-0.1,0.4-0.1,0.7-0.1c0.4-0.1,0.8-0.1,0.9-0.2c0.2-0.1,0.3-0.2,0.3-0.3
		s-0.1-0.3-0.2-0.4c-0.1-0.1-0.3-0.1-0.5-0.1s-0.4,0-0.5,0.2c-0.1,0.1-0.2,0.2-0.2,0.4h-1.4c0-0.2,0.1-0.4,0.1-0.6
		c0.1-0.2,0.2-0.4,0.4-0.5s0.4-0.3,0.7-0.3s0.6-0.1,0.9-0.1c0.4,0,0.7,0,0.9,0.1c0.2,0.1,0.5,0.2,0.6,0.3c0.2,0.1,0.4,0.3,0.5,0.5
		s0.1,0.5,0.1,0.7v2.3c0,0.2,0,0.3,0,0.4s0.1,0.2,0.1,0.2V22h-1.5c0,0-0.1-0.1-0.1-0.2s0-0.2-0.1-0.3l0,0c-0.1,0.2-0.3,0.3-0.5,0.4
		C29.7,22.1,29.4,22.1,29.1,22.1z M29.6,21.2c0.3,0,0.5-0.1,0.7-0.2c0.2-0.1,0.3-0.3,0.3-0.6v-0.6c-0.1,0-0.2,0.1-0.3,0.1
		S30,20,29.9,20c-0.3,0.1-0.5,0.1-0.6,0.2c-0.1,0.1-0.2,0.2-0.2,0.4c0,0.2,0.1,0.3,0.2,0.4C29.2,21.2,29.4,21.2,29.6,21.2z"/>
	<path class="st0" d="M34.9,22c-0.2,0-0.4,0-0.6-0.1c-0.2,0-0.3-0.1-0.5-0.2s-0.2-0.2-0.3-0.4c-0.1-0.2-0.1-0.3-0.1-0.5v-2.4h-0.6
		v-0.9h0.6v-1.4h1.5v1.4h0.9v0.9h-0.9v2.1c0,0.2,0,0.3,0.1,0.4c0.1,0.1,0.2,0.1,0.4,0.1c0.1,0,0.1,0,0.2,0s0.1,0,0.1,0v1
		c-0.1,0-0.2,0-0.3,0C35.3,22,35.1,22,34.9,22z"/>
	<path class="st0" d="M36.7,15.7h1.5v1.2h-1.5V15.7z M36.7,17.5h1.5V22h-1.5V17.5z"/>
	<path class="st0" d="M41.7,22.1c-0.4,0-0.7-0.1-1-0.2c-0.3-0.1-0.6-0.3-0.8-0.5c-0.2-0.2-0.4-0.5-0.5-0.8c-0.1-0.3-0.2-0.6-0.2-0.9
		s0.1-0.7,0.2-0.9c0.1-0.3,0.3-0.5,0.5-0.8c0.2-0.2,0.5-0.4,0.8-0.5s0.7-0.2,1-0.2c0.4,0,0.7,0.1,1,0.2s0.6,0.3,0.8,0.5
		c0.2,0.2,0.4,0.5,0.5,0.8c0.1,0.3,0.2,0.6,0.2,0.9c0,0.3-0.1,0.7-0.2,0.9c-0.1,0.3-0.3,0.5-0.5,0.8c-0.2,0.3-0.5,0.4-0.8,0.6
		C42.4,22.1,42.1,22.1,41.7,22.1z M41.7,21.1c0.3,0,0.6-0.1,0.8-0.4c0.2-0.2,0.3-0.6,0.3-1s-0.1-0.7-0.3-1c-0.2-0.3-0.4-0.4-0.8-0.4
		s-0.6,0.2-0.8,0.5c-0.2,0.3-0.2,0.6-0.2,1c0,0.4,0.1,0.7,0.2,1C41.1,21,41.4,21.1,41.7,21.1z"/>
	<path class="st0" d="M45.2,17.5h1.4v0.6l0,0c0.2-0.2,0.4-0.4,0.6-0.6c0.2-0.1,0.5-0.2,0.8-0.2s0.5,0,0.7,0.1
		c0.2,0.1,0.4,0.2,0.5,0.4c0.1,0.1,0.2,0.3,0.3,0.5c0.1,0.2,0.1,0.4,0.1,0.7v2.9h-1.5v-2.5c0-0.2-0.1-0.4-0.2-0.6
		c-0.1-0.1-0.3-0.2-0.6-0.2c-0.3,0-0.5,0.1-0.6,0.3c-0.2,0.2-0.2,0.4-0.2,0.7v2.5H45v-4.6H45.2z"/>
	<path class="st0" d="M52.3,22.1c-0.2,0-0.4,0-0.6-0.1c-0.2-0.1-0.5-0.1-0.6-0.2c-0.1-0.2-0.3-0.3-0.3-0.5c0-0.2-0.1-0.4-0.1-0.6
		c0-0.2,0-0.5,0.1-0.6c0.1-0.2,0.2-0.3,0.4-0.4c0.2-0.1,0.4-0.2,0.6-0.3c0.2-0.1,0.4-0.1,0.7-0.1c0.4-0.1,0.8-0.1,0.9-0.2
		c0.2-0.1,0.3-0.2,0.3-0.3s-0.1-0.3-0.2-0.4c-0.1-0.1-0.3-0.1-0.5-0.1s-0.4,0-0.5,0.2c-0.1,0.1-0.2,0.2-0.2,0.4h-1.4
		c0-0.2,0.1-0.4,0.1-0.6c0.1-0.2,0.2-0.4,0.4-0.5s0.4-0.3,0.7-0.3s0.6-0.1,0.9-0.1s0.7,0,0.9,0.1c0.2,0.1,0.5,0.2,0.6,0.3
		c0.2,0.1,0.4,0.3,0.5,0.5s0.1,0.5,0.1,0.7v2.3c0,0.2,0,0.3,0,0.4s0.1,0.2,0.1,0.2V22h-1.4c0,0-0.1-0.1-0.1-0.2s0-0.2-0.1-0.3l0,0
		c-0.1,0.2-0.3,0.3-0.5,0.4C52.9,22,52.6,22.1,52.3,22.1z M52.7,21.2c0.3,0,0.5-0.1,0.7-0.2c0.2-0.1,0.3-0.3,0.3-0.6v-0.6
		c-0.1,0-0.2,0.1-0.3,0.1S53.1,20,53,20c-0.3,0.1-0.5,0.1-0.6,0.2c-0.1,0.1-0.2,0.2-0.2,0.4c0,0.2,0.1,0.3,0.2,0.4
		S52.5,21.2,52.7,21.2z"/>
	<path class="st0" d="M56.3,15.7h1.5V22h-1.5V15.7z"/>
</g>
<g>
	<path class="st0" d="M2.9,31.1c-0.4,0-0.8,0-1.2-0.1S1,30.8,0.8,30.6c-0.2-0.2-0.5-0.4-0.6-0.7C0.1,29.6,0,29.3,0,29h1.6
		c0,0.3,0.2,0.5,0.4,0.7c0.2,0.1,0.5,0.2,0.9,0.2c0.1,0,0.3,0,0.4,0c0.1,0,0.2-0.1,0.3-0.1s0.2-0.1,0.2-0.2c0.1-0.1,0.1-0.2,0.1-0.3
		s0-0.2-0.1-0.3s-0.2-0.2-0.3-0.2c-0.1-0.1-0.3-0.1-0.5-0.2c-0.2-0.1-0.4-0.1-0.6-0.1c-0.3-0.1-0.6-0.1-0.9-0.2
		C1.2,28.2,1,28.1,0.7,28c-0.2-0.1-0.4-0.3-0.5-0.5C0.1,27.3,0,27,0,26.7c0-0.3,0.1-0.6,0.2-0.9c0.1-0.2,0.3-0.4,0.6-0.6
		C1,25,1.3,24.9,1.6,24.8c0.3-0.1,0.7-0.1,1-0.1c0.4,0,0.7,0,1,0.1s0.6,0.2,0.8,0.4c0.2,0.2,0.4,0.4,0.6,0.6s0.2,0.5,0.2,0.9H3.8
		c0-0.2-0.1-0.4-0.3-0.6c-0.3-0.3-0.5-0.3-0.8-0.3S2.2,25.9,2,26c-0.2,0.1-0.3,0.3-0.3,0.4c0,0.1,0,0.2,0.1,0.3s0.2,0.1,0.3,0.2
		C2.2,27,2.4,27,2.6,27s0.4,0.1,0.6,0.1c0.3,0.1,0.6,0.1,0.9,0.2c0.3,0.1,0.5,0.2,0.7,0.4C5,27.8,5.2,28,5.3,28.3
		c0.1,0.2,0.2,0.5,0.2,0.8c0,0.3-0.1,0.6-0.2,0.9c-0.1,0.3-0.3,0.5-0.6,0.6c-0.2,0.2-0.5,0.3-0.9,0.4C3.6,31.1,3.2,31.1,2.9,31.1z"
		/>
	<path class="st0" d="M6.6,24.7h1.5V27l0,0c0.2-0.2,0.4-0.4,0.6-0.5c0.2-0.1,0.5-0.2,0.8-0.2s0.5,0,0.7,0.1s0.4,0.2,0.5,0.4
		c0.1,0.2,0.2,0.3,0.3,0.5c0.1,0.2,0.1,0.4,0.1,0.7v2.9H9.6v-2.6c0-0.2-0.1-0.4-0.2-0.6s-0.3-0.2-0.6-0.2s-0.5,0.1-0.6,0.3
		C8,28,8,28.2,8,28.5V31H6.5v-6.3H6.6z"/>
	<path class="st0" d="M14.6,31.1c-0.4,0-0.7-0.1-1-0.2c-0.3-0.1-0.6-0.3-0.8-0.5c-0.2-0.2-0.4-0.5-0.5-0.8c-0.1-0.3-0.2-0.6-0.2-0.9
		s0.1-0.7,0.2-0.9c0.1-0.3,0.3-0.5,0.5-0.8c0.2-0.2,0.5-0.4,0.8-0.5s0.7-0.2,1-0.2s0.7,0.1,1,0.2s0.6,0.3,0.8,0.5
		c0.2,0.2,0.4,0.5,0.5,0.8c0.1,0.3,0.2,0.6,0.2,0.9c0,0.3-0.1,0.7-0.2,0.9c-0.1,0.3-0.3,0.5-0.5,0.8c-0.2,0.3-0.5,0.4-0.8,0.5
		C15.3,31.1,15,31.1,14.6,31.1z M14.6,30.1c0.3,0,0.6-0.1,0.8-0.4c0.2-0.2,0.3-0.6,0.3-1s-0.1-0.7-0.3-1c-0.2-0.3-0.4-0.4-0.8-0.4
		c-0.3,0-0.6,0.1-0.7,0.4s-0.2,0.6-0.2,1s0.1,0.7,0.2,1C14,30,14.3,30.1,14.6,30.1z"/>
	<path class="st0" d="M18.1,26.5h1.4v0.7l0,0c0.2-0.3,0.4-0.5,0.6-0.6c0.2-0.1,0.4-0.2,0.7-0.2c0.1,0,0.2,0,0.3,0v1.2l0,0
		c-0.5-0.1-0.8,0-1.1,0.2c-0.3,0.2-0.4,0.6-0.4,1.1v2h-1.5V26.5z"/>
	<path class="st0" d="M24,31c-0.2,0-0.4,0-0.6-0.1s-0.3-0.1-0.5-0.2c-0.2-0.1-0.2-0.2-0.3-0.4c-0.1-0.2-0.1-0.4-0.1-0.6v-2.4h-0.6
		v-0.9h0.6v-1.3H24v1.4h0.8v0.9h-0.9v2.1c0,0.2,0,0.3,0.1,0.4s0.2,0.1,0.4,0.1c0.1,0,0.1,0,0.2,0s0.1,0,0.1,0v1c-0.1,0-0.2,0-0.3,0
		C24.4,31,24.2,31,24,31z"/>
	<path class="st0" d="M27.8,24.7h4.9V26h-3.3v1.3h2.7v1.3h-2.7V31h-1.6V24.7z"/>
	<path class="st0" d="M33.7,24.7h1.5v1.2h-1.5V24.7z M33.7,26.5h1.5V31h-1.5V26.5z"/>
	<path class="st0" d="M36.4,24.7h1.5V31h-1.5V24.7z"/>
	<path class="st0" d="M39.1,26.5h1.4v0.6l0,0c0.1-0.2,0.3-0.4,0.6-0.6c0.2-0.1,0.5-0.2,0.9-0.2c0.3,0,0.6,0.1,0.8,0.2
		c0.2,0.1,0.4,0.3,0.5,0.6l0,0c0.2-0.3,0.4-0.5,0.6-0.6s0.5-0.2,0.8-0.2s0.5,0,0.7,0.1s0.4,0.2,0.5,0.3s0.2,0.3,0.3,0.5
		c0.1,0.2,0.1,0.4,0.1,0.7v2.9h-1.5v-2.7c0-0.2-0.1-0.4-0.2-0.6c-0.1-0.1-0.3-0.2-0.5-0.2s-0.4,0.1-0.6,0.3
		c-0.2,0.2-0.2,0.4-0.2,0.7v2.5h-1.5v-2.7c0-0.2-0.1-0.4-0.2-0.6c-0.1-0.1-0.3-0.2-0.5-0.2s-0.4,0.1-0.5,0.3
		c-0.1,0.2-0.2,0.4-0.2,0.7v2.5h-1.5v-4.3H39.1z"/>
	<path class="st0" d="M49.5,24.7h4.9V26h-3.3v1.3h2.7v1.3h-2.7V31h-1.6V24.7z"/>
	<path class="st0" d="M57.3,31.1c-0.4,0-0.7-0.1-1-0.2c-0.3-0.1-0.6-0.3-0.8-0.5c-0.2-0.2-0.4-0.5-0.5-0.8c-0.1-0.3-0.2-0.6-0.2-1
		c0-0.3,0.1-0.6,0.2-0.9s0.3-0.5,0.5-0.8c0.2-0.2,0.5-0.4,0.8-0.5s0.6-0.2,1-0.2c0.3,0,0.6,0,0.9,0.1s0.5,0.2,0.7,0.4
		c0.3,0.2,0.5,0.6,0.6,0.9c0.1,0.4,0.2,0.8,0.2,1.3h-3.4c0,0.3,0.2,0.5,0.3,0.7c0.2,0.2,0.4,0.3,0.7,0.3c0.2,0,0.4,0,0.5-0.1
		s0.2-0.2,0.3-0.3h1.5c0,0.2-0.1,0.4-0.3,0.6c-0.1,0.2-0.3,0.3-0.5,0.5c-0.2,0.1-0.4,0.2-0.7,0.3C57.9,31.1,57.6,31.1,57.3,31.1z
		 M58.1,28.3c0-0.3-0.1-0.5-0.3-0.6c-0.2-0.2-0.4-0.2-0.6-0.2c-0.3,0-0.5,0.1-0.7,0.2c-0.2,0.2-0.3,0.4-0.3,0.6H58.1z"/>
	<path class="st0" d="M62.6,31.1c-0.7,0-1.2-0.1-1.6-0.4s-0.6-0.7-0.6-1.2h1.4c0,0.2,0.1,0.4,0.3,0.5s0.3,0.2,0.6,0.2
		c0.2,0,0.4,0,0.5-0.1s0.2-0.2,0.2-0.3s0-0.2-0.1-0.2c-0.1-0.1-0.2-0.1-0.3-0.2c-0.1,0-0.2-0.1-0.4-0.1c-0.1,0-0.3,0-0.4-0.1
		c-0.2,0-0.4-0.1-0.6-0.1s-0.4-0.1-0.5-0.2c-0.1-0.1-0.3-0.2-0.4-0.4c-0.1-0.2-0.1-0.4-0.1-0.6c0-0.2,0.1-0.4,0.2-0.6
		s0.3-0.3,0.4-0.5c0.2-0.1,0.4-0.2,0.6-0.3s0.5-0.1,0.8-0.1c0.7,0,1.2,0.1,1.5,0.4c0.4,0.3,0.6,0.6,0.6,1.1h-1.4
		c0-0.2-0.1-0.3-0.2-0.4c-0.1-0.1-0.3-0.1-0.5-0.1s-0.3,0-0.5,0.1c-0.1,0.1-0.2,0.2-0.2,0.3s0,0.1,0.1,0.2c0.1,0.1,0.1,0.1,0.2,0.1
		s0.2,0.1,0.4,0.1c0.1,0,0.3,0,0.4,0.1c0.2,0,0.4,0.1,0.6,0.1s0.4,0.1,0.6,0.2c0.2,0.1,0.3,0.2,0.4,0.4c0.1,0.2,0.2,0.4,0.2,0.7
		c0,0.2-0.1,0.5-0.2,0.7c-0.1,0.2-0.3,0.3-0.4,0.5c-0.1,0.2-0.4,0.2-0.7,0.3S62.9,31.1,62.6,31.1z"/>
	<path class="st0" d="M67.4,31c-0.2,0-0.4,0-0.6-0.1s-0.3-0.1-0.5-0.2c-0.2-0.1-0.2-0.2-0.3-0.4c-0.1-0.2-0.1-0.4-0.1-0.6v-2.4h-0.6
		v-0.9h0.6v-1.3h1.5v1.4h0.9v0.9h-0.9v2.1c0,0.2,0,0.3,0.1,0.4s0.2,0.1,0.4,0.1c0.1,0,0.1,0,0.2,0s0.1,0,0.1,0v1c-0.1,0-0.2,0-0.3,0
		C67.8,31,67.6,31,67.4,31z"/>
	<path class="st0" d="M69.3,24.7h1.5v1.2h-1.5V24.7z M69.3,26.5h1.5V31h-1.5V26.5z"/>
	<path class="st0" d="M71.6,26.5h1.5l0.6,2c0,0.1,0.1,0.2,0.1,0.3s0.1,0.2,0.1,0.3s0,0.2,0.1,0.3l0,0c0-0.1,0-0.2,0.1-0.3
		c0-0.1,0.1-0.2,0.1-0.3s0.1-0.2,0.1-0.3l0.7-2h1.5L74.9,31h-1.6L71.6,26.5z"/>
	<path class="st0" d="M78.4,31.1c-0.2,0-0.4,0-0.6-0.1s-0.4-0.1-0.5-0.3c-0.1-0.1-0.3-0.3-0.3-0.4c0-0.1-0.1-0.4-0.1-0.6
		s0-0.5,0.1-0.6c0.1-0.2,0.2-0.3,0.4-0.4c0.2-0.1,0.4-0.2,0.6-0.3s0.4-0.1,0.7-0.1c0.4-0.1,0.8-0.1,0.9-0.2c0.2-0.1,0.3-0.2,0.3-0.3
		s-0.1-0.3-0.2-0.4s-0.3-0.1-0.5-0.1s-0.4,0-0.5,0.2c-0.1,0.1-0.2,0.2-0.2,0.4h-1.4c0-0.2,0.1-0.4,0.1-0.6c0.1-0.2,0.2-0.4,0.4-0.5
		s0.4-0.3,0.7-0.3s0.6-0.1,0.9-0.1s0.7,0,0.9,0.1s0.5,0.2,0.6,0.3c0.2,0.1,0.4,0.3,0.5,0.5c0.1,0.2,0.1,0.5,0.1,0.7v2.3
		c0,0.2,0,0.3,0,0.4c0,0.1,0.1,0.2,0.1,0.2V31h-1.5c0,0-0.1-0.1-0.1-0.2c0-0.1,0-0.2-0.1-0.3l0,0c-0.1,0.2-0.3,0.3-0.5,0.4
		C79,31,78.8,31.1,78.4,31.1z M78.9,30.2c0.3,0,0.5-0.1,0.7-0.2c0.2-0.1,0.3-0.3,0.3-0.6v-0.6c-0.1,0-0.2,0.1-0.3,0.1
		S79.3,29,79.2,29c-0.3,0.1-0.5,0.1-0.6,0.2c-0.1,0.1-0.2,0.2-0.2,0.4c0,0.2,0.1,0.3,0.2,0.4C78.7,30.1,78.7,30.2,78.9,30.2z"/>
	<path class="st0" d="M82.5,24.7H84V31h-1.5V24.7z"/>
</g>
<g>
	<path class="st0" d="M0.2,33.7h1.6l2,3.2c0,0,0.1,0.1,0.1,0.2c0,0.1,0.1,0.2,0.2,0.3c0.1,0.1,0.1,0.2,0.2,0.3l0,0
		c0-0.1,0-0.3,0-0.4c0-0.1,0-0.2,0-0.3s0-0.2,0-0.2v-3h1.6v6.3H4.3L2.4,37c0,0-0.1-0.1-0.1-0.2c-0.1-0.1-0.1-0.2-0.2-0.3
		C2,36.4,2,36.3,1.9,36.1l0,0c0,0.2,0,0.3,0,0.4c0,0.1,0,0.2,0,0.3c0,0.1,0,0.2,0,0.3V40H0.3L0.2,33.7L0.2,33.7z"/>
	<path class="st0" d="M7.1,33.7h1.5v1.2H7.1V33.7z M7.1,35.5h1.5V40H7.1V35.5z"/>
	<path class="st0" d="M9.9,41.5c-0.1,0-0.3,0-0.4,0c-0.2,0-0.3,0-0.4-0.1v-1c0.1,0,0.2,0,0.3,0s0.2,0,0.2-0.1c0-0.1,0.1-0.1,0.1-0.1
		s0.1-0.2,0.1-0.3v-4.5h1.5v4.5c0,0.3,0,0.5-0.1,0.7S11,40.9,10.9,41c-0.1,0.1-0.3,0.2-0.5,0.3C10.3,41.5,10.1,41.5,9.9,41.5z
		 M9.8,33.7h1.5v1.2H9.8V33.7z"/>
	<path class="st0" d="M12.5,35.5h1.4v0.6l0,0c0.1-0.2,0.3-0.4,0.6-0.6c0.2-0.1,0.5-0.2,0.9-0.2c0.3,0,0.6,0.1,0.8,0.2
		c0.2,0.1,0.4,0.3,0.5,0.6l0,0c0.2-0.3,0.4-0.5,0.6-0.6c0.2-0.1,0.5-0.2,0.8-0.2s0.5,0,0.7,0.1c0.2,0.1,0.4,0.2,0.5,0.3
		s0.2,0.3,0.3,0.5c0.2,0.4,0.2,0.6,0.2,0.9V40h-1.5v-2.7c0-0.2-0.1-0.4-0.2-0.6c-0.1-0.1-0.3-0.2-0.5-0.2s-0.4,0.1-0.6,0.3
		c-0.1,0.2-0.2,0.4-0.2,0.7V40h-1.5v-2.7c0-0.2-0.1-0.4-0.2-0.6c-0.1-0.1-0.3-0.2-0.5-0.2s-0.4,0.1-0.5,0.3
		c-0.1,0.2-0.2,0.4-0.2,0.7V40h-1.5v-4.5H12.5z"/>
	<path class="st0" d="M23.2,40.1c-0.4,0-0.7-0.1-1-0.2c-0.3-0.1-0.6-0.3-0.8-0.5s-0.4-0.5-0.5-0.8s-0.2-0.6-0.2-1
		c0-0.3,0.1-0.6,0.2-0.9c0.1-0.3,0.3-0.5,0.5-0.8c0.2-0.2,0.5-0.4,0.8-0.5c0.3-0.1,0.6-0.2,1-0.2c0.3,0,0.6,0,0.9,0.1
		c0.3,0.1,0.5,0.2,0.7,0.4c0.3,0.2,0.5,0.6,0.6,0.9c0.1,0.4,0.2,0.8,0.2,1.3h-3.4c0,0.3,0.2,0.5,0.3,0.7c0.2,0.2,0.4,0.3,0.7,0.3
		c0.2,0,0.4,0,0.5-0.1c0.1-0.1,0.2-0.2,0.3-0.3h1.5c0,0.2-0.1,0.4-0.3,0.6c-0.1,0.2-0.3,0.3-0.5,0.5c-0.2,0.1-0.4,0.2-0.7,0.3
		C23.8,40.1,23.5,40.1,23.2,40.1z M24.1,37.3c0-0.3-0.1-0.5-0.3-0.6c-0.2-0.2-0.4-0.2-0.6-0.2c-0.3,0-0.5,0.1-0.7,0.2
		c-0.2,0.2-0.3,0.4-0.3,0.6H24.1z"/>
	<path class="st0" d="M28.7,41.6c-0.7,0-1.2-0.1-1.6-0.4c-0.4-0.2-0.6-0.6-0.7-1.1h1.5c0,0.1,0.1,0.2,0.3,0.3
		c0.1,0.1,0.3,0.1,0.6,0.1c0.3,0,0.5-0.1,0.7-0.2c0.1-0.1,0.2-0.4,0.2-0.6v-0.4l0,0c-0.1,0.2-0.3,0.3-0.5,0.4
		c-0.2,0.1-0.4,0.1-0.7,0.1c-0.3,0-0.5,0-0.8-0.1c-0.2-0.1-0.5-0.2-0.7-0.4s-0.3-0.4-0.5-0.7c-0.1-0.3-0.2-0.6-0.2-0.9
		s0-0.6,0.1-0.9s0.2-0.5,0.4-0.7s0.4-0.4,0.6-0.5c0.2-0.1,0.5-0.2,0.8-0.2s0.6,0.1,0.8,0.2c0.2,0.1,0.4,0.3,0.5,0.4l0,0v-0.5h1.4
		v4.1c0,0.3-0.1,0.6-0.2,0.9c-0.1,0.2-0.3,0.5-0.5,0.6c-0.2,0.2-0.5,0.3-0.8,0.4C29.4,41.5,29.1,41.6,28.7,41.6z M28.7,38.7
		c0.3,0,0.6-0.1,0.7-0.3c0.1-0.2,0.2-0.5,0.2-0.8c0-0.2,0-0.3-0.1-0.4c0-0.1-0.1-0.3-0.2-0.4c-0.1-0.1-0.2-0.2-0.3-0.2
		c-0.1-0.1-0.3-0.1-0.4-0.1c-0.3,0-0.5,0.1-0.7,0.3s-0.3,0.5-0.3,0.8s0.1,0.6,0.3,0.8C28.2,38.6,28.5,38.7,28.7,38.7z"/>
	<path class="st0" d="M34.6,40.1c-0.4,0-0.7-0.1-1-0.2c-0.3-0.1-0.6-0.3-0.8-0.5s-0.4-0.5-0.5-0.8s-0.2-0.6-0.2-1
		c0-0.3,0.1-0.6,0.2-0.9s0.3-0.5,0.5-0.8c0.2-0.2,0.5-0.4,0.8-0.5c0.3-0.1,0.6-0.2,1-0.2c0.3,0,0.6,0,0.9,0.1
		c0.3,0.1,0.5,0.2,0.7,0.4c0.3,0.2,0.5,0.6,0.6,0.9c0.1,0.4,0.2,0.8,0.2,1.3h-3.4c0,0.3,0.2,0.5,0.3,0.7c0.2,0.2,0.4,0.3,0.7,0.3
		c0.2,0,0.4,0,0.5-0.1c0.1-0.1,0.2-0.2,0.3-0.3h1.4c0,0.2-0.1,0.4-0.3,0.6c-0.1,0.2-0.3,0.3-0.5,0.5c-0.2,0.1-0.4,0.2-0.7,0.3
		S34.9,40.1,34.6,40.1z M35.4,37.3c0-0.3-0.1-0.5-0.3-0.6c-0.2-0.2-0.4-0.2-0.6-0.2c-0.3,0-0.5,0.1-0.7,0.2
		c-0.2,0.2-0.3,0.4-0.3,0.6H35.4z"/>
	<path class="st0" d="M37.9,35.5h1.4v0.6l0,0c0.2-0.2,0.4-0.4,0.6-0.6c0.2-0.1,0.5-0.2,0.8-0.2s0.5,0,0.7,0.1
		c0.2,0.1,0.4,0.2,0.5,0.4c0.1,0.1,0.2,0.3,0.3,0.5c0.1,0.2,0.1,0.4,0.1,0.7v2.9h-1.5v-2.6c0-0.2-0.1-0.4-0.2-0.6
		c-0.1-0.1-0.3-0.2-0.6-0.2c-0.3,0-0.5,0.1-0.6,0.3c-0.2,0.2-0.2,0.4-0.2,0.7V40h-1.5v-4.5H37.9z"/>
</g>
<g>
	<path class="st0" d="M1.6,3.3H0.2v-1C0.7,2.3,1,2.2,1.3,2s0.5-0.5,0.6-0.9h1.2v6.1H1.6V3.3z"/>
	<path class="st0" d="M4.5,4.4H7v1.2H4.5V4.4z"/>
	<path class="st0" d="M10.5,7.3c-0.4,0-0.7,0-1-0.1C9.2,7.1,8.9,7,8.7,6.9C8.5,6.7,8.3,6.5,8.1,6.2C8,6,7.9,5.7,7.8,5.4h1.5
		c0,0.3,0.2,0.5,0.4,0.6s0.4,0.2,0.7,0.2s0.6-0.1,0.7-0.3s0.3-0.4,0.3-0.7c0-0.3-0.1-0.6-0.3-0.7c-0.2-0.2-0.4-0.3-0.7-0.3
		c-0.2,0-0.4,0-0.5,0.1c-0.1,0-0.2,0.1-0.3,0.2H8.1l0.6-3.3h3.9v1.2H9.9l-0.2,1l0,0c0.1-0.1,0.3-0.2,0.5-0.3S10.7,3,10.9,3
		c0.3,0,0.6,0,0.8,0.1c0.3,0.1,0.5,0.2,0.7,0.4s0.4,0.4,0.5,0.7s0.2,0.5,0.2,0.9c0,0.3-0.1,0.6-0.2,0.9c-0.1,0.3-0.3,0.5-0.5,0.7
		S11.9,7,11.6,7.1C11.2,7.3,10.9,7.3,10.5,7.3z"/>
</g>
<g>
	<path class="st0" d="M18,0.5h1.6L22,6.8h-1.7L20,5.7h-2.3l-0.4,1.1h-1.6L18,0.5z M19.5,4.5L19,3C19,2.8,19,2.8,19,2.7
		s-0.1-0.2-0.1-0.3S18.8,2.2,18.8,2l0,0c0,0.1-0.1,0.2-0.1,0.3c0,0.2,0,0.2,0,0.3S18.5,2.9,18.5,3L18,4.5C18,4.5,19.5,4.5,19.5,4.5z
		"/>
	<path class="st0" d="M22.9,2.3h1.4v0.5l0,0c0.2-0.2,0.4-0.3,0.7-0.5c0.2-0.1,0.5-0.2,0.8-0.2c0.3,0,0.6,0.1,0.8,0.2
		c0.2,0.1,0.5,0.3,0.6,0.5c0.2,0.2,0.3,0.5,0.4,0.8s0.1,0.6,0.1,0.9c0,0.4,0,0.7-0.1,1S27.4,6,27.2,6.3c-0.2,0.2-0.4,0.4-0.6,0.5
		S26.1,7,25.8,7c-0.3,0-0.6-0.1-0.8-0.2c-0.2-0.1-0.4-0.3-0.5-0.4l0,0v2h-1.6V2.3z M25.4,5.8c0.3,0,0.5-0.1,0.7-0.3
		c0.2-0.2,0.2-0.5,0.2-0.9S26.1,3.9,26,3.7c-0.1-0.2-0.4-0.4-0.7-0.4c-0.2,0-0.3,0-0.4,0.1c-0.1,0.1-0.3,0.2-0.4,0.3
		s-0.1,0.2-0.2,0.4c0,0.2-0.1,0.3-0.1,0.5c0,0.4,0.1,0.7,0.3,0.9C24.8,5.7,25,5.8,25.4,5.8z"/>
	<path class="st0" d="M28.8,2.3h1.4V3l0,0c0.2-0.3,0.3-0.5,0.6-0.6c0.2-0.1,0.4-0.2,0.7-0.2c0.1,0,0.2,0,0.3,0v1.2l0,0
		c-0.5-0.1-0.8,0-1.1,0.2c-0.3,0.2-0.4,0.6-0.4,1.1v2h-1.5V2.3z"/>
	<path class="st0" d="M32.8,0.5h1.5v1.2h-1.5V0.5z M32.8,2.3h1.5v4.5h-1.5V2.3z"/>
	<path class="st0" d="M35.5,0.5H37v6.3h-1.5V0.5z"/>
</g>
<g>
	<path class="st0" d="M39.6,6.8c0.1-0.2,0.1-0.4,0.2-0.6C39.9,6,40,5.9,40.1,5.7c0.1-0.2,0.3-0.3,0.4-0.4c0.3-0.2,0.6-0.5,0.9-0.7
		C41.7,4.3,42,4.2,42.3,4c0.1-0.1,0.2-0.2,0.3-0.3c0.1-0.1,0.1-0.3,0.1-0.4c0-0.2-0.1-0.4-0.2-0.6c-0.1-0.1-0.3-0.2-0.6-0.2
		c-0.3,0-0.5,0.1-0.7,0.3C41.1,2.8,41,3,41,3.1s-0.1,0.3-0.1,0.5h-1.3c0-0.4,0-0.6,0.1-0.9C39.8,2.5,39.9,2.2,40,2
		c0.2-0.2,0.4-0.4,0.8-0.6c0.3-0.1,0.8-0.2,1.2-0.2s0.7,0,1,0.1s0.5,0.2,0.7,0.4s0.3,0.4,0.4,0.6c0.2,0.4,0.3,0.6,0.3,0.9
		c0,0.2,0,0.4-0.1,0.6c-0.1,0.2-0.1,0.3-0.2,0.4c-0.1,0.1-0.2,0.3-0.3,0.4c-0.1,0.1-0.3,0.2-0.4,0.3c-0.1,0.1-0.3,0.2-0.4,0.3
		c-0.1,0.1-0.3,0.2-0.4,0.3c-0.1,0.1-0.3,0.2-0.4,0.3c-0.1,0.1-0.3,0.2-0.4,0.3l0,0h2.7v1.2h-5C39.5,7.2,39.5,7,39.6,6.8z"/>
	<path class="st0" d="M48.1,7.6c-0.4,0-0.8-0.1-1.1-0.2S46.4,7,46.1,6.7c-0.2-0.3-0.4-0.6-0.6-1c-0.1-0.4-0.2-0.8-0.2-1.3
		s0.1-0.9,0.2-1.3s0.3-0.7,0.6-1c0.2-0.3,0.5-0.5,0.9-0.6s0.7-0.3,1.1-0.3c0.4,0,0.8,0.1,1.1,0.2s0.6,0.4,0.9,0.6
		c0.2,0.3,0.4,0.6,0.6,1c0.1,0.4,0.2,0.8,0.2,1.3s-0.1,0.9-0.2,1.3c-0.1,0.4-0.3,0.7-0.6,1c-0.2,0.3-0.5,0.5-0.9,0.6
		C48.9,7.6,48.6,7.6,48.1,7.6z M48.1,6.5c0.2,0,0.4,0,0.5-0.1C48.7,6.3,48.9,6.2,49,6c0.1-0.2,0.2-0.4,0.2-0.6s0.1-0.5,0.1-0.8
		s0-0.6-0.1-0.8c0-0.2-0.1-0.5-0.2-0.6c-0.1-0.2-0.2-0.3-0.4-0.4c-0.2-0.1-0.3-0.1-0.5-0.1c-0.2,0-0.4,0-0.5,0.1
		c-0.1,0.1-0.3,0.1-0.4,0.2C47.1,3.2,47,3.4,47,3.6s-0.1,0.5-0.1,0.8s0,0.6,0.1,0.8c0,0.2,0.1,0.5,0.2,0.6c0.1,0.3,0.2,0.4,0.4,0.5
		C47.8,6.4,47.9,6.5,48.1,6.5z"/>
	<path class="st0" d="M51.8,6.8c0.1-0.2,0.1-0.4,0.2-0.6s0.2-0.3,0.3-0.5c0.1-0.2,0.3-0.3,0.4-0.4c0.3-0.2,0.6-0.5,0.9-0.7
		s0.6-0.4,0.9-0.6c0.1-0.1,0.2-0.2,0.3-0.3c0.1-0.1,0.1-0.3,0.1-0.4c0-0.2-0.1-0.4-0.2-0.6c-0.1-0.1-0.3-0.2-0.6-0.2
		s-0.5,0.1-0.7,0.3c-0.1,0.1-0.2,0.2-0.2,0.4s0.1,0.3,0.1,0.5h-1.5c0-0.4,0-0.6,0.1-0.9c0.1-0.3,0.2-0.5,0.3-0.7
		c0.2-0.2,0.4-0.4,0.8-0.6c0.3-0.2,0.8-0.2,1.3-0.2c0.4,0,0.7,0,1,0.1s0.5,0.2,0.7,0.4s0.3,0.4,0.4,0.6c0.1,0.2,0.2,0.5,0.2,0.7
		s0,0.4-0.1,0.6c-0.1,0.2-0.1,0.5-0.2,0.6c-0.1,0.1-0.2,0.3-0.3,0.4S55.7,4.9,55.6,5c-0.1,0.1-0.3,0.2-0.4,0.3
		c-0.1,0.1-0.3,0.2-0.4,0.3c-0.1,0.1-0.3,0.2-0.4,0.3C54.3,5.9,54.1,6,54,6.1l0,0h2.7v1.2h-4.9C51.7,7.2,51.8,7,51.8,6.8z"/>
	<path class="st0" d="M60.4,7.6c-0.4,0-0.8-0.1-1.1-0.2C59,7.2,58.7,7,58.4,6.7c-0.2-0.3-0.4-0.6-0.6-1c-0.1-0.4-0.2-0.8-0.2-1.3
		s0.1-0.9,0.2-1.3c0.1-0.4,0.3-0.7,0.6-1c0.2-0.3,0.5-0.5,0.9-0.6c0.4-0.1,0.7-0.2,1.1-0.2c0.4,0,0.8,0.1,1.1,0.2s0.6,0.4,0.9,0.6
		c0.2,0.3,0.4,0.6,0.6,1c0.1,0.4,0.2,0.8,0.2,1.3S63.1,5.3,63,5.7c-0.1,0.4-0.3,0.7-0.6,1c-0.2,0.3-0.5,0.5-0.9,0.6
		C61.2,7.6,60.8,7.6,60.4,7.6z M60.4,6.5c0.2,0,0.4,0,0.5-0.1C61,6.3,61.2,6.2,61.3,6c0.1-0.2,0.2-0.4,0.2-0.6s0.1-0.5,0.1-0.8
		s0-0.6-0.1-0.8c0-0.2-0.1-0.5-0.2-0.6c-0.1-0.2-0.2-0.3-0.4-0.4c-0.2-0.1-0.3-0.1-0.5-0.1s-0.4,0-0.5,0.1c-0.1,0.1-0.3,0.2-0.4,0.4
		c-0.1,0.2-0.2,0.4-0.2,0.6s-0.1,0.5-0.1,0.8s0,0.6,0.1,0.8c0,0.2,0.1,0.5,0.2,0.6c0.1,0.2,0.2,0.3,0.4,0.4
		C60.1,6.5,60.1,6.5,60.4,6.5z"/>
</g>
</svg>
