<?xml version="1.0" encoding="utf-8"?>
<!-- Generator: Adobe Illustrator 24.3.0, SVG Export Plug-In . SVG Version: 6.00 Build 0)  -->
<svg version="1.1" id="Laag_1" xmlns="http://www.w3.org/2000/svg" xmlns:xlink="http://www.w3.org/1999/xlink" x="0px" y="0px"
	 width="96px" height="37.6px" viewBox="0 0 96 37.6" style="enable-background:new 0 0 96 37.6;" xml:space="preserve">
<style type="text/css">
	.st0{fill:#C67951;}
</style>
<g>
	<path class="st0" d="M0,8.7V0.4h1.6v8.2H0z"/>
	<path class="st0" d="M3.3,8.7V2.4h1.2l0.1,0.8h0.1C4.8,3,5,2.8,5.2,2.7c0.2-0.1,0.4-0.3,0.7-0.3s0.5-0.1,0.8-0.1
		c0.4,0,0.8,0.1,1.1,0.2c0.3,0.1,0.5,0.4,0.7,0.7c0.2,0.3,0.3,0.7,0.3,1.3v4.3H7.3v-4c0-0.2,0-0.4-0.1-0.6C7.1,4,7.1,3.9,7,3.8
		C6.9,3.7,6.7,3.6,6.6,3.6S6.3,3.5,6.1,3.5c-0.3,0-0.5,0.1-0.7,0.2S5,4,4.9,4.2C4.8,4.4,4.7,4.7,4.7,5v3.7H3.3z"/>
	<path class="st0" d="M14.9,8.8c-0.5,0-1-0.1-1.3-0.3s-0.7-0.6-0.9-1.1c-0.2-0.5-0.3-1.1-0.3-1.9c0-0.8,0.1-1.4,0.3-1.9
		c0.2-0.5,0.5-0.8,0.9-1.1c0.4-0.2,0.8-0.3,1.2-0.3c0.3,0,0.6,0,0.8,0.1c0.2,0.1,0.5,0.2,0.6,0.3c0.2,0.1,0.3,0.3,0.5,0.5h0.1V0h1.5
		v8.7H17l-0.1-0.8h-0.1c-0.2,0.3-0.5,0.6-0.8,0.7C15.6,8.7,15.3,8.8,14.9,8.8z M15.3,7.6c0.3,0,0.6-0.1,0.8-0.2
		c0.2-0.2,0.4-0.4,0.5-0.7s0.1-0.6,0.1-1.1V5.5c0-0.3,0-0.6-0.1-0.8c-0.1-0.2-0.1-0.5-0.3-0.6c-0.1-0.2-0.3-0.3-0.4-0.4
		c-0.2-0.1-0.4-0.1-0.6-0.1c-0.4,0-0.6,0.1-0.9,0.2C14.2,3.8,14.1,4,14,4.3c-0.1,0.3-0.1,0.7-0.1,1.1v0.2c0,0.4,0,0.8,0.1,1.1
		c0.1,0.3,0.2,0.5,0.5,0.6C14.7,7.5,15,7.6,15.3,7.6z"/>
	<path class="st0" d="M22.5,8.8c-0.7,0-1.2-0.1-1.7-0.4c-0.4-0.2-0.8-0.6-1-1.1c-0.2-0.5-0.3-1.1-0.3-1.9c0-0.8,0.1-1.4,0.3-1.9
		c0.2-0.5,0.6-0.8,1-1.1c0.4-0.2,1-0.4,1.7-0.4c0.6,0,1.1,0.1,1.5,0.3c0.4,0.2,0.7,0.6,0.9,1c0.2,0.5,0.3,1.1,0.3,1.8v0.4H21
		c0,0.4,0.1,0.7,0.2,1c0.1,0.3,0.3,0.5,0.5,0.6c0.2,0.1,0.5,0.2,0.9,0.2c0.2,0,0.4,0,0.5-0.1s0.3-0.1,0.4-0.2s0.2-0.2,0.3-0.4
		c0.1-0.2,0.1-0.3,0.1-0.5h1.4c0,0.4-0.1,0.7-0.2,1c-0.1,0.3-0.3,0.5-0.6,0.7s-0.5,0.3-0.9,0.4S22.9,8.8,22.5,8.8z M21,4.8h2.7
		c0-0.3,0-0.5-0.1-0.7s-0.1-0.3-0.3-0.5S23.1,3.5,23,3.5c-0.2-0.1-0.3-0.1-0.5-0.1c-0.3,0-0.6,0.1-0.8,0.2c-0.2,0.1-0.4,0.3-0.5,0.5
		C21.1,4.2,21,4.5,21,4.8z"/>
	<path class="st0" d="M0,23.1v-8.2h1.6v3.8l3.6-3.8h1.9l-3.2,3.3l3.3,4.9H5.3l-2.5-3.8l-1.3,1.2v2.7H0z"/>
	<path class="st0" d="M11.5,23.2c-0.9,0-1.6-0.2-2.2-0.5c-0.6-0.3-1.1-0.8-1.4-1.4S7.3,19.9,7.3,19c0-1,0.2-1.8,0.5-2.4
		s0.8-1.1,1.4-1.4c0.6-0.3,1.4-0.5,2.2-0.5c0.9,0,1.6,0.2,2.2,0.5c0.6,0.3,1.1,0.8,1.4,1.4c0.3,0.6,0.5,1.4,0.5,2.4
		c0,1-0.2,1.8-0.5,2.4c-0.3,0.6-0.8,1.1-1.4,1.4C13.1,23.1,12.3,23.2,11.5,23.2z M11.5,21.9c0.4,0,0.8-0.1,1.1-0.2
		c0.3-0.1,0.6-0.3,0.8-0.5c0.2-0.2,0.4-0.5,0.5-0.9C14,20,14,19.6,14,19.1v-0.3c0-0.5-0.1-0.9-0.2-1.2c-0.1-0.4-0.3-0.6-0.5-0.9
		c-0.2-0.2-0.5-0.4-0.8-0.5c-0.3-0.1-0.7-0.2-1.1-0.2s-0.8,0.1-1.1,0.2c-0.3,0.1-0.6,0.3-0.8,0.5c-0.2,0.2-0.4,0.5-0.5,0.9
		C9,18,8.9,18.4,8.9,18.8v0.3c0,0.5,0.1,0.9,0.2,1.2s0.3,0.6,0.5,0.9c0.2,0.2,0.5,0.4,0.8,0.5C10.7,21.8,11,21.9,11.5,21.9z"/>
	<path class="st0" d="M17.1,23.1v-8.2h4.1c0.6,0,1.1,0.1,1.5,0.3c0.4,0.2,0.7,0.5,0.9,0.9c0.2,0.4,0.3,0.9,0.3,1.4
		c0,0.5-0.1,1-0.3,1.4c-0.2,0.4-0.5,0.7-0.9,0.9s-0.9,0.3-1.5,0.3h-2.5v2.9H17.1z M18.6,18.8h2.4c0.4,0,0.7-0.1,0.9-0.4
		c0.2-0.2,0.3-0.6,0.3-1c0-0.3,0-0.5-0.1-0.7c-0.1-0.2-0.2-0.3-0.4-0.4c-0.2-0.1-0.4-0.2-0.7-0.2h-2.4V18.8z"/>
	<path class="st0" d="M25.1,23.1v-8.2h6.4v1.3h-4.9v2H31v1.3h-4.3v2.2h4.9v1.3H25.1z"/>
	<path class="st0" d="M33.2,23.1v-8.2h4.3c0.6,0,1.1,0.1,1.5,0.3s0.7,0.5,0.9,0.9c0.2,0.4,0.3,0.8,0.3,1.4c0,0.5-0.1,1-0.4,1.4
		c-0.2,0.4-0.6,0.7-1.1,0.9l1.7,3.3h-1.7L37.3,20h-2.6v3.1H33.2z M34.7,18.7h2.7c0.4,0,0.7-0.1,0.9-0.3c0.2-0.2,0.3-0.6,0.3-1
		c0-0.3,0-0.5-0.1-0.7s-0.2-0.3-0.4-0.4c-0.2-0.1-0.4-0.1-0.7-0.1h-2.7V18.7z"/>
	<path class="st0" d="M45.5,23.2c-1.3,0-2.3-0.3-3-1s-1.1-1.8-1.1-3.2c0-1,0.2-1.8,0.5-2.4s0.8-1.1,1.4-1.4c0.6-0.3,1.4-0.5,2.3-0.5
		c0.5,0,1,0.1,1.5,0.2c0.5,0.1,0.9,0.3,1.2,0.5c0.4,0.2,0.6,0.5,0.8,0.9c0.2,0.4,0.3,0.8,0.3,1.3h-1.6c0-0.3-0.1-0.5-0.2-0.7
		c-0.1-0.2-0.3-0.4-0.5-0.5c-0.2-0.1-0.4-0.2-0.7-0.3C46.3,16.1,46,16,45.7,16c-0.4,0-0.8,0.1-1.2,0.2s-0.6,0.3-0.8,0.5
		c-0.2,0.2-0.4,0.5-0.5,0.9C43.1,18,43,18.4,43,18.8v0.3c0,0.6,0.1,1.2,0.3,1.6s0.5,0.7,0.8,0.9s0.8,0.3,1.4,0.3
		c0.5,0,0.9-0.1,1.2-0.2c0.4-0.1,0.6-0.4,0.8-0.6c0.2-0.3,0.3-0.6,0.3-1V20h-2.6v-1.3h4.2v4.4h-1.1l-0.1-0.9
		c-0.2,0.2-0.5,0.4-0.8,0.6c-0.3,0.2-0.6,0.3-0.9,0.3S45.9,23.2,45.5,23.2z"/>
	<path class="st0" d="M51.2,23.1v-8.2h1.6v8.2H51.2z"/>
	<path class="st0" d="M54.6,23.1v-8.2H61v1.3h-4.9v2h4.3v1.3h-4.3v2.2h4.9v1.3H54.6z"/>
	<path class="st0" d="M64.7,23.1v-6.9h-2.6v-1.3h6.8v1.3h-2.6v6.9H64.7z"/>
	<path class="st0" d="M70.1,23.1v-8.2h6.4v1.3h-4.9v2H76v1.3h-4.3v2.2h4.9v1.3H70.1z"/>
	<path class="st0" d="M78.2,23.1v-8.2h4.3c0.6,0,1.1,0.1,1.5,0.3s0.7,0.5,0.9,0.9c0.2,0.4,0.3,0.8,0.3,1.4c0,0.5-0.1,1-0.4,1.4
		c-0.2,0.4-0.6,0.7-1.1,0.9l1.7,3.3h-1.7L82.3,20h-2.6v3.1H78.2z M79.7,18.7h2.7c0.4,0,0.7-0.1,0.9-0.3c0.2-0.2,0.3-0.6,0.3-1
		c0-0.3,0-0.5-0.1-0.7s-0.2-0.3-0.4-0.4c-0.2-0.1-0.4-0.1-0.7-0.1h-2.7V18.7z"/>
	<path class="st0" d="M88.9,23.1v-3.3l-3.2-4.9h1.8l2.2,3.5h0.1l2.1-3.5h1.7l-3.2,4.9v3.3H88.9z"/>
	<path class="st0" d="M-0.4,34.9v-1.3h3v1.3H-0.4z"/>
	<path class="st0" d="M10.1,37.6c-1.3,0-2.3-0.3-3-1s-1.1-1.8-1.1-3.2c0-1,0.2-1.8,0.5-2.4s0.8-1.1,1.4-1.4c0.6-0.3,1.4-0.5,2.3-0.5
		c0.5,0,1,0.1,1.5,0.2c0.5,0.1,0.9,0.3,1.2,0.5c0.4,0.2,0.6,0.5,0.8,0.9c0.2,0.4,0.3,0.8,0.3,1.3h-1.6c0-0.3-0.1-0.5-0.2-0.7
		c-0.1-0.2-0.3-0.4-0.5-0.5c-0.2-0.1-0.4-0.2-0.7-0.3c-0.3-0.1-0.5-0.1-0.8-0.1c-0.4,0-0.8,0.1-1.2,0.2s-0.6,0.3-0.8,0.5
		C8.2,31.4,8,31.7,7.9,32c-0.1,0.4-0.2,0.8-0.2,1.2v0.3c0,0.6,0.1,1.2,0.3,1.6s0.5,0.7,0.8,0.9s0.8,0.3,1.4,0.3
		c0.5,0,0.9-0.1,1.2-0.2c0.4-0.1,0.6-0.4,0.8-0.6c0.2-0.3,0.3-0.6,0.3-1v-0.1H10v-1.3h4.2v4.4h-1.1l-0.1-0.9
		c-0.2,0.2-0.5,0.4-0.8,0.6c-0.3,0.2-0.6,0.3-0.9,0.3S10.6,37.6,10.1,37.6z"/>
	<path class="st0" d="M18.5,37.6c-0.7,0-1.2-0.1-1.7-0.4c-0.4-0.2-0.8-0.6-1-1.1c-0.2-0.5-0.3-1.1-0.3-1.9c0-0.8,0.1-1.4,0.3-1.9
		c0.2-0.5,0.6-0.8,1-1.1c0.4-0.2,1-0.4,1.7-0.4c0.6,0,1.1,0.1,1.5,0.3c0.4,0.2,0.7,0.6,0.9,1c0.2,0.5,0.3,1.1,0.3,1.8v0.4H17
		c0,0.4,0.1,0.7,0.2,1s0.3,0.5,0.5,0.6c0.2,0.1,0.5,0.2,0.9,0.2c0.2,0,0.4,0,0.5-0.1s0.3-0.1,0.4-0.2c0.1-0.1,0.2-0.2,0.3-0.4
		c0.1-0.2,0.1-0.3,0.1-0.5h1.4c0,0.4-0.1,0.7-0.2,1c-0.1,0.3-0.3,0.5-0.6,0.7c-0.3,0.2-0.5,0.3-0.9,0.4
		C19.3,37.6,18.9,37.6,18.5,37.6z M17,33.6h2.7c0-0.3,0-0.5-0.1-0.7c-0.1-0.2-0.1-0.3-0.3-0.5s-0.2-0.2-0.4-0.3s-0.3-0.1-0.5-0.1
		c-0.3,0-0.6,0.1-0.8,0.2c-0.2,0.1-0.4,0.3-0.5,0.5C17.1,33,17,33.3,17,33.6z"/>
	<path class="st0" d="M22.5,37.5v-6.3h1.2l0.1,0.8H24c0.1-0.2,0.3-0.4,0.5-0.5c0.2-0.1,0.4-0.3,0.7-0.3S25.7,31,26,31
		c0.4,0,0.8,0.1,1.1,0.2c0.3,0.1,0.5,0.4,0.7,0.7c0.2,0.3,0.3,0.7,0.3,1.3v4.3h-1.5v-4c0-0.2,0-0.4-0.1-0.6
		c-0.1-0.1-0.1-0.3-0.2-0.4c-0.1-0.1-0.2-0.2-0.4-0.2s-0.3-0.1-0.5-0.1c-0.3,0-0.5,0.1-0.7,0.2s-0.4,0.3-0.5,0.5
		C24,33.2,24,33.5,24,33.8v3.7H22.5z"/>
	<path class="st0" d="M31.2,37.6c-0.4,0-0.7-0.1-0.9-0.2s-0.4-0.4-0.5-0.6c-0.1-0.2-0.1-0.5-0.1-0.8v-3.7h-0.8v-1.2h0.8l0.3-1.8h1.2
		v1.8h1.1v1.2h-1.1v3.5c0,0.2,0,0.3,0.1,0.4s0.2,0.1,0.4,0.1h0.6v1c-0.1,0-0.2,0.1-0.3,0.1c-0.1,0-0.2,0.1-0.4,0.1
		C31.4,37.6,31.3,37.6,31.2,37.6z"/>
</g>
</svg>
