<?xml version="1.0" encoding="utf-8"?>
<!-- Generator: Adobe Illustrator 24.3.0, SVG Export Plug-In . SVG Version: 6.00 Build 0)  -->
<svg version="1.1" id="Laag_1" xmlns="http://www.w3.org/2000/svg" xmlns:xlink="http://www.w3.org/1999/xlink" x="0px" y="0px"
	 width="74.7px" height="52.2px" viewBox="0 0 74.7 52.2" style="enable-background:new 0 0 74.7 52.2;" xml:space="preserve">
<g>
	<path d="M0.4,4.6c0-0.8,0.1-1.5,0.3-2.1C0.8,1.9,1.1,1.4,1.4,1c0.3-0.4,0.7-0.6,1.1-0.8S3.4,0,4,0c0.4,0,0.8,0.1,1.2,0.2
		s0.7,0.3,1,0.5c0.3,0.2,0.5,0.5,0.8,0.9c0.2,0.4,0.4,0.8,0.5,1.3c0.1,0.5,0.2,1.1,0.2,1.7c0,0.8-0.1,1.4-0.3,2
		C7.1,7.1,6.8,7.6,6.5,8S5.8,8.6,5.4,8.7C5,8.9,4.5,9,4,9C3.5,9,3.2,8.9,2.8,8.8s-0.7-0.3-1-0.5C1.5,8.1,1.3,7.8,1,7.5
		C0.8,7.1,0.7,6.7,0.6,6.2C0.4,5.7,0.4,5.2,0.4,4.6z M1.1,4.6C1.1,4.6,1.1,4.6,1.1,4.6c0,0.5,0.1,0.9,0.2,1.3C1.5,6.2,1.7,6.5,2,6.7
		c0.3,0.2,0.6,0.4,0.9,0.5C3.2,7.3,3.6,7.3,4,7.3c0.4,0,0.8,0,1.1-0.1C5.4,7.1,5.7,6.9,6,6.7c0.3-0.2,0.5-0.5,0.6-0.9
		c0.1-0.4,0.2-0.8,0.2-1.3c0,0,0,0,0,0c0-0.7-0.3-1.3-0.7-1.7C5.6,2.4,4.9,2.2,4,2.2c-0.9,0-1.6,0.2-2.1,0.7
		C1.4,3.3,1.2,3.8,1.1,4.6z"/>
	<path d="M9.6,8.9V0.1h2l4,7.5V0.1h0.9v8.8h-1.8l-4.2-7.1v7.1H9.6z"/>
	<path d="M18.1,2.3V0.1h6.1v2.2h-2.6v6.6h-0.9V2.3H18.1z"/>
	<path d="M26.3,8.9V0.1h2.9c0.6,0,1,0.1,1.5,0.2s0.8,0.4,1.2,0.8c0.3,0.3,0.6,0.8,0.8,1.4c0.2,0.6,0.3,1.3,0.3,2
		c0,2.9-1.2,4.3-3.6,4.3H26.3z M27.2,7.1h2.5c0.4,0,0.8-0.1,1.2-0.3s0.7-0.5,0.9-0.9c0.2-0.4,0.4-0.8,0.4-1.3c0-0.7-0.2-1.3-0.7-1.8
		c-0.5-0.5-1.2-0.7-2-0.7h-2.3V7.1z"/>
	<path d="M35.1,8.9V0.1h5.3v2.2h-4.5v1.8h3.4v1h-3.4v2.2h4.5v1.5H35.1z"/>
	<path d="M42.6,8.9V0.1h0.9V4l3.4-3.8h2.4l-3.8,4.1l3.3,4.7h-1.1l-2.9-4l-1.4,1.5v2.5H42.6z"/>
	<path d="M1.1,23.3v-8.8h0.9v3.4h4.7v-3.4h0.9v8.8H6.6V20H1.9v3.3H1.1z"/>
	<path d="M10,23.3v-8.8h5.3v2.2h-4.5v1.8h3.4v1h-3.4v2.2h4.5v1.5H10z"/>
	<path d="M16.9,16.7v-2.2H23v2.2h-2.6v6.6h-0.9v-6.6H16.9z"/>
	<path d="M27.5,23.3v-8.8h2l4,7.5v-7.5h0.9v8.8h-1.8l-4.2-7.1v7.1H27.5z"/>
	<path d="M36.3,23.3v-1.7H38v-4.9h-1.7v-2.2h4.2v2.2h-1.6v4.9h1.7v1.7H36.3z"/>
	<path d="M42.4,23.3v-8.8h5.3v2.2h-4.5v1.8h3.4v1h-3.4v2.2h4.5v1.5H42.4z"/>
	<path d="M49.8,19.8v-5.2h0.8v4.3c0,0.9,0.2,1.5,0.5,1.9c0.5,0.5,1.2,0.7,2.2,0.7c0.9,0,1.6-0.2,2.1-0.7c0.3-0.4,0.5-1,0.5-1.8v-4.4
		h0.8v5.2c0,1.2-0.3,2.2-0.9,2.8c-0.6,0.6-1.4,0.9-2.5,0.9c-0.5,0-1-0.1-1.4-0.2s-0.8-0.4-1.1-0.7c-0.3-0.3-0.5-0.7-0.7-1.1
		S49.8,20.4,49.8,19.8z"/>
	<path d="M57.5,14.5h0.9l2.1,7.1l1.9-5.5l0.7,0l1.7,5.4l2-7h1.5l-2.6,8.7h-1.3L63,18.8l-1.6,4.4h-1.4L57.5,14.5z"/>
	<path d="M69.3,23.3v-8.8h5.3v2.2h-4.5v1.8h3.4v1h-3.4v2.2h4.5v1.5H69.3z"/>
	<path d="M0,31.1v-2.2h6.1v2.2H3.5v6.6H2.6v-6.6H0z"/>
	<path d="M8,37.7v-8.8h0.9v3.4h4.7v-3.4h0.9v8.8h-0.9v-3.3H8.9v3.3H8z"/>
	<path d="M17,37.7v-8.8h5.3v2.2h-4.5v1.8h3.4v1h-3.4v2.2h4.5v1.5H17z"/>
	<path d="M23.9,37.7l3.1-8.8h1.5l3.2,8.8h-0.9l-0.9-2.5h-3.6l-0.9,2.5H23.9z M26.7,34.3h2.8l-1.4-3.7L26.7,34.3z"/>
	<path d="M32.6,31.1v-2.2h6.1v2.2h-2.6v6.6h-0.9v-6.6H32.6z"/>
	<path d="M40.2,37.7v-8.8h5.3v2.2h-4.5v1.8h3.4v1h-3.4v2.2h4.5v1.5H40.2z"/>
	<path d="M48,37.7v-8.8h2.9c2,0,3,0.9,3,2.8c0,0.7-0.1,1.3-0.4,1.6c-0.3,0.4-0.7,0.6-1.2,0.7c0.4,0.3,0.6,0.7,0.7,1.2
		c0.1,0.4,0.1,0.6,0.2,0.7c0.1,0.1,0.2,0.2,0.4,0.2c0.3,0,0.5-0.1,0.6-0.2l0.3,1.1c-0.1,0.2-0.2,0.3-0.4,0.4s-0.4,0.1-0.6,0.1
		c-0.7,0-1.1-0.7-1.3-2.1c0-0.3-0.2-0.5-0.4-0.7c-0.2-0.2-0.5-0.2-0.9-0.2h-2.1v2.9H48z M48.8,33.1h2.5c0.6,0,1.1-0.1,1.4-0.3
		c0.3-0.2,0.4-0.4,0.4-0.8c0-0.8-0.6-1.2-1.8-1.2h-2.5V33.1z"/>
	<path d="M55.9,34.6v-0.9h3.2v0.9H55.9z"/>
	<path d="M0.5,50.6L1,49c0.2,0.4,0.6,0.8,1.2,1s1.2,0.4,1.9,0.4c0.8,0,1.3-0.1,1.7-0.3c0.4-0.2,0.6-0.5,0.6-0.8
		c0-0.3-0.2-0.6-0.6-0.8c-0.4-0.2-1-0.3-1.7-0.4c-0.6,0-1.1-0.1-1.6-0.3c-0.4-0.1-0.7-0.3-1-0.5S1.1,46.9,1,46.6s-0.1-0.6-0.1-1
		c0-0.8,0.3-1.4,0.8-1.9S3,43,4,43c0.8,0,1.4,0.1,2,0.4s0.9,0.6,1.2,0.9l-0.4,1.6c-0.3-0.2-0.6-0.4-1.1-0.6C5.2,45.1,4.6,45,4,45
		c-0.4,0-0.7,0-1,0.1c-0.3,0.1-0.5,0.2-0.7,0.3c-0.2,0.1-0.3,0.2-0.3,0.4c-0.1,0.1-0.1,0.3-0.1,0.4c0,0.1,0,0.3,0.1,0.4
		s0.2,0.2,0.3,0.3C2.4,47,2.7,47.1,3,47.2c0.3,0.1,0.7,0.1,1.1,0.2c1.2,0.1,2.1,0.4,2.6,0.8c0.5,0.4,0.8,1,0.8,1.7c0,0,0,0,0,0
		c0,0.8-0.3,1.3-0.9,1.7C6,52,5.1,52.2,4,52.2c-0.8,0-1.6-0.2-2.3-0.5S0.6,51.1,0.5,50.6z"/>
	<path d="M9.4,52.1v-8.8h5.3v2.2h-4.5v1.8h3.4v1h-3.4v2.2h4.5v1.5H9.4z"/>
	<path d="M16.6,52.1v-1.7h1.8v-4.9h-1.7v-2.2h4.2v2.2h-1.6v4.9h1.7v1.7H16.6z"/>
	<path d="M22.5,52.1v-0.5l4.7-6.1h-4.3v-2.2h6.7v0.4l-5,6.7h4.8v1.7H22.5z"/>
	<path d="M31.2,47.8c0-0.8,0.1-1.5,0.3-2.1c0.2-0.6,0.4-1.1,0.7-1.4c0.3-0.4,0.7-0.6,1.1-0.8s0.9-0.3,1.5-0.3c0.4,0,0.8,0.1,1.2,0.2
		s0.7,0.3,1,0.5c0.3,0.2,0.5,0.5,0.8,0.9c0.2,0.4,0.4,0.8,0.5,1.3c0.1,0.5,0.2,1.1,0.2,1.7c0,0.8-0.1,1.4-0.3,2
		c-0.2,0.6-0.4,1-0.7,1.4c-0.3,0.4-0.7,0.6-1.1,0.8c-0.4,0.2-0.9,0.3-1.4,0.3c-0.4,0-0.8-0.1-1.2-0.2c-0.4-0.1-0.7-0.3-1-0.5
		c-0.3-0.2-0.6-0.5-0.8-0.9c-0.2-0.3-0.4-0.8-0.5-1.3C31.3,48.9,31.2,48.4,31.2,47.8z M32,47.8C32,47.8,32,47.8,32,47.8
		c0,0.5,0.1,0.9,0.2,1.3c0.1,0.4,0.4,0.7,0.6,0.9c0.3,0.2,0.6,0.4,0.9,0.5c0.3,0.1,0.7,0.1,1.1,0.1c0.4,0,0.8,0,1.1-0.1
		c0.3-0.1,0.6-0.2,0.9-0.5c0.3-0.2,0.5-0.5,0.6-0.9c0.1-0.4,0.2-0.8,0.2-1.3c0,0,0,0,0,0c0-0.7-0.3-1.3-0.7-1.7
		c-0.5-0.4-1.2-0.7-2.1-0.7c-0.9,0-1.6,0.2-2.1,0.7S32,47,32,47.8z"/>
	<path d="M40.2,52.1v-8.8h5.3v2.2h-4.5v1.8h3.4v1h-3.4v2.2h4.5v1.5H40.2z"/>
	<path d="M48,52.1v-8.8h2l4,7.5v-7.5h0.9v8.8h-1.8L48.8,45v7.1H48z"/>
</g>
</svg>
