<?xml version="1.0" encoding="utf-8"?>
<!-- Generator: Adobe Illustrator 24.0.0, SVG Export Plug-In . SVG Version: 6.00 Build 0)  -->
<svg version="1.1" id="Laag_1" xmlns="http://www.w3.org/2000/svg" xmlns:xlink="http://www.w3.org/1999/xlink" x="0px" y="0px"
	 width="210px" height="42.6px" viewBox="0 0 210 42.6" style="enable-background:new 0 0 210 42.6;" xml:space="preserve">
<style type="text/css">
	.st0{fill:#FFFFFF;}
	.st1{font-family:'NHaasGroteskDSPro-75Bd';}
	.st2{font-size:25px;}
</style>
<g>
	<path class="st0" d="M0.6,4.2h8.5c0.9,0,1.7,0.1,2.5,0.3c0.8,0.2,1.4,0.6,2,1s1,1,1.3,1.6s0.5,1.4,0.5,2.2c0,1-0.3,1.9-0.8,2.7
		c-0.5,0.7-1.3,1.3-2.3,1.6v0.2c0.8,0.3,1.4,0.7,1.8,1.2c0.4,0.5,0.7,1.2,0.8,2.1c0.1,0.6,0.2,1.2,0.2,1.7c0,0.6,0.1,1.1,0.1,1.5
		s0.1,0.8,0.2,1.1c0.1,0.3,0.2,0.5,0.3,0.5v0.2h-4.3c-0.1-0.1-0.2-0.2-0.3-0.5S11,21,11,20.6s-0.1-0.8-0.1-1.3s-0.1-0.9-0.2-1.4
		c-0.1-0.8-0.4-1.5-0.9-1.9c-0.5-0.4-1.2-0.7-2.1-0.7H5V22H0.6V4.2z M8.3,12.1c0.9,0,1.5-0.2,2-0.6c0.4-0.4,0.7-0.9,0.7-1.6
		c0-0.6-0.2-1.2-0.6-1.6c-0.5-0.4-1.1-0.6-2-0.6H5v4.4H8.3z"/>
	<path class="st0" d="M23.3,22.5c-1,0-2-0.2-2.8-0.5s-1.6-0.8-2.2-1.4s-1.1-1.3-1.4-2.2c-0.3-0.8-0.5-1.7-0.5-2.7s0.2-1.9,0.5-2.7
		s0.8-1.5,1.4-2.2c0.6-0.6,1.3-1.1,2.2-1.4c0.8-0.3,1.8-0.5,2.8-0.5s2,0.2,2.8,0.5s1.6,0.8,2.1,1.4c0.6,0.6,1.1,1.3,1.4,2.2
		c0.3,0.8,0.5,1.7,0.5,2.7s-0.2,1.9-0.5,2.7s-0.8,1.5-1.4,2.2c-0.6,0.6-1.3,1.1-2.1,1.4C25.3,22.3,24.3,22.5,23.3,22.5z M23.3,19.6
		c0.9,0,1.6-0.4,2-1.1c0.5-0.7,0.7-1.6,0.7-2.8s-0.2-2.1-0.7-2.8c-0.5-0.7-1.1-1.1-2-1.1s-1.6,0.4-2,1.1c-0.5,0.7-0.7,1.7-0.7,2.8
		c0,1.2,0.2,2.1,0.7,2.8C21.7,19.2,22.4,19.6,23.3,19.6z"/>
	<path class="st0" d="M36.3,22.2c-0.6,0-1.1-0.1-1.6-0.2s-0.9-0.3-1.3-0.6c-0.4-0.3-0.6-0.6-0.9-1.1c-0.2-0.5-0.3-1-0.3-1.7v-6.8
		h-1.7V9.3h1.7v-4h4v4h2.3v2.5h-2.3v6c0,0.5,0.1,0.8,0.4,1c0.3,0.2,0.6,0.2,1,0.2c0.2,0,0.4,0,0.5,0c0.2,0,0.3,0,0.4,0v3
		c-0.2,0-0.5,0.1-0.8,0.1C37.3,22.2,36.9,22.2,36.3,22.2z"/>
	<path class="st0" d="M40,4.2h4.1v6.7h0.1c0.5-0.6,1-1.1,1.6-1.4C46.4,9.2,47.1,9,48,9c0.7,0,1.3,0.1,1.9,0.4c0.6,0.2,1,0.6,1.4,1
		s0.7,0.9,0.9,1.5s0.3,1.2,0.3,2v8.3h-4.1v-7.5c0-0.7-0.2-1.2-0.5-1.7c-0.3-0.4-0.8-0.6-1.5-0.6s-1.2,0.2-1.6,0.8
		c-0.4,0.5-0.6,1.2-0.6,2v7.1H40V4.2z"/>
	<path class="st0" d="M54.3,4.2h4v9.4l3.8-4.3h4.7l-4.5,4.8l5,8h-4.7l-3.1-5.2l-1.2,1.3v3.9h-4C54.3,22.1,54.3,4.2,54.3,4.2z"/>
	<path class="st0" d="M73.6,22.5c-1,0-2-0.2-2.8-0.5s-1.6-0.8-2.2-1.4s-1.1-1.3-1.4-2.2c-0.3-0.8-0.5-1.7-0.5-2.7s0.2-1.9,0.5-2.7
		s0.8-1.5,1.4-2.2c0.6-0.6,1.3-1.1,2.2-1.4c0.8-0.3,1.8-0.5,2.8-0.5s2,0.2,2.8,0.5s1.6,0.8,2.1,1.4c0.6,0.6,1.1,1.3,1.4,2.2
		c0.3,0.8,0.5,1.7,0.5,2.7s-0.2,1.9-0.5,2.7s-0.8,1.5-1.4,2.2c-0.6,0.6-1.3,1.1-2.1,1.4C75.5,22.3,74.6,22.5,73.6,22.5z M73.5,19.6
		c0.9,0,1.6-0.4,2-1.1c0.5-0.7,0.7-1.6,0.7-2.8s-0.2-2.1-0.7-2.8c-0.5-0.7-1.1-1.1-2-1.1s-1.6,0.4-2,1.1c-0.5,0.7-0.7,1.7-0.7,2.8
		c0,1.2,0.2,2.1,0.7,2.8S72.6,19.6,73.5,19.6z"/>
	<path class="st0" d="M91.6,22.4c-1,0-1.9-0.1-2.7-0.4c-0.8-0.3-1.5-0.6-2-1.1s-0.9-1-1.2-1.7c-0.3-0.6-0.4-1.3-0.4-2.1
		c0-0.7,0.1-1.3,0.3-1.8c0.2-0.5,0.5-1,0.8-1.4s0.8-0.8,1.2-1.1s1-0.6,1.5-0.9c-0.4-0.5-0.8-1-1-1.6c-0.2-0.5-0.4-1.2-0.4-1.9
		c0-0.6,0.1-1.2,0.4-1.7c0.2-0.5,0.6-1,1-1.4s1-0.7,1.6-0.9c0.6-0.2,1.3-0.3,2.1-0.3c0.7,0,1.4,0.1,2,0.3c0.6,0.2,1.2,0.5,1.6,0.9
		s0.8,0.8,1,1.3s0.4,1.1,0.4,1.8c0,0.5-0.1,1-0.3,1.5c-0.2,0.4-0.4,0.8-0.7,1.2c-0.3,0.3-0.7,0.6-1.1,0.9c-0.4,0.3-0.8,0.5-1.3,0.7
		l2.1,2.7c0.2-0.3,0.3-0.7,0.4-1.1c0.1-0.4,0.2-0.8,0.3-1.2h3.5c-0.1,0.9-0.3,1.7-0.6,2.6c-0.3,0.9-0.8,1.7-1.3,2.5l3.1,3.8h-5
		L96,20.9c-0.7,0.4-1.4,0.8-2.2,1C93.2,22.3,92.4,22.4,91.6,22.4z M91.7,19.1c0.9,0,1.7-0.3,2.4-0.8l-3-3.9
		c-0.6,0.4-1.1,0.8-1.3,1.2c-0.2,0.4-0.4,0.9-0.4,1.4c0,0.6,0.2,1.1,0.6,1.5S91.1,19.1,91.7,19.1z M92.8,10.6c0.5-0.3,0.9-0.6,1.1-1
		s0.3-0.7,0.3-1.2c0-0.4-0.1-0.7-0.4-1S93.2,7,92.8,7s-0.7,0.1-1,0.4c-0.2,0.3-0.4,0.6-0.4,1c0,0.4,0.1,0.8,0.4,1.1
		C92.2,9.9,92.5,10.3,92.8,10.6z"/>
	<path class="st0" d="M107.2,4.2h4.4V11h6.3V4.2h4.4v17.9h-4.4v-7.5h-6.3v7.5h-4.4V4.2z"/>
	<path class="st0" d="M128.3,22.4c-0.6,0-1.2-0.1-1.8-0.2c-0.5-0.2-1-0.4-1.4-0.8s-0.7-0.7-0.9-1.2c-0.2-0.5-0.3-1-0.3-1.7
		s0.1-1.3,0.4-1.8s0.6-0.9,1.1-1.2c0.4-0.3,1-0.5,1.6-0.7s1.2-0.3,1.9-0.4c1.2-0.2,2-0.3,2.5-0.5s0.7-0.5,0.7-0.9s-0.1-0.8-0.4-1
		s-0.7-0.4-1.3-0.4s-1.1,0.1-1.5,0.4c-0.3,0.3-0.5,0.7-0.6,1.2h-3.8c0-0.6,0.1-1.2,0.4-1.7c0.2-0.5,0.6-1,1.1-1.4s1.1-0.7,1.8-1
		c0.7-0.3,1.6-0.4,2.5-0.4c1,0,1.8,0.1,2.5,0.3s1.2,0.4,1.7,0.8c0.6,0.4,1,0.9,1.2,1.5c0.3,0.6,0.4,1.3,0.4,2.1v6.5
		c0,0.5,0,0.9,0.1,1.2c0.1,0.3,0.2,0.5,0.4,0.6v0.2h-4c-0.1-0.1-0.2-0.3-0.2-0.6c-0.1-0.2-0.1-0.5-0.2-0.9l0,0
		c-0.4,0.5-0.9,1-1.5,1.3S129.3,22.4,128.3,22.4z M129.6,19.8c0.8,0,1.4-0.2,1.9-0.6s0.7-1,0.7-1.7V16c-0.3,0.1-0.6,0.3-0.9,0.4
		s-0.7,0.2-1.2,0.3c-0.8,0.2-1.3,0.4-1.7,0.6s-0.5,0.6-0.5,1.1s0.2,0.9,0.5,1.1C128.7,19.7,129.1,19.8,129.6,19.8z"/>
	<path class="st0" d="M138.1,4.2h4.1v17.9h-4.1V4.2z"/>
	<path class="st0" d="M144.2,4.2h4.1v3.3h-4.1V4.2z M144.2,9.3h4.1v12.8h-4.1V9.3z"/>
	<path class="st0" d="M150.2,4.2h4.1v17.9h-4.1V4.2z"/>
</g>
<text transform="matrix(1 0 0 1 155.295 22.0791)" class="st0 st1 st2"> </text>
<g>
	<path class="st0" d="M0,31c0-0.5,0.1-0.9,0.4-1.2c0.2-0.3,0.5-0.4,0.9-0.5v0.6C1.1,30,1,30.1,0.9,30.3c-0.1,0.2-0.2,0.4-0.2,0.7
		h0.6v1.5H0V31z M2.3,31c0-0.5,0.1-0.9,0.4-1.2c0.2-0.3,0.5-0.4,0.9-0.5v0.6c-0.2,0.1-0.3,0.2-0.4,0.4C3,30.4,3,30.7,3,31h0.6v1.5
		H2.3V31z"/>
	<path class="st0" d="M5.2,29.4h1.4V34h5.7v-4.6h1.4v10.7h-1.4V35H6.5v5.1H5.2V29.4z"/>
	<path class="st0" d="M18.8,40.3c-0.6,0-1.1-0.1-1.6-0.3s-0.9-0.5-1.2-0.9s-0.6-0.8-0.7-1.3c-0.2-0.5-0.3-1-0.3-1.6s0.1-1.1,0.3-1.6
		s0.4-0.9,0.8-1.3c0.3-0.4,0.7-0.7,1.2-0.9s1-0.3,1.5-0.3c0.6,0,1.1,0.1,1.5,0.3s0.8,0.5,1.1,0.9c0.3,0.4,0.5,0.8,0.7,1.4
		c0.2,0.5,0.2,1.1,0.2,1.8h-6c0,0.4,0.1,0.8,0.2,1.1s0.3,0.6,0.5,0.9c0.2,0.3,0.5,0.4,0.8,0.6c0.3,0.1,0.6,0.2,1,0.2
		c0.6,0,1-0.1,1.4-0.4c0.4-0.3,0.6-0.7,0.8-1.2h1.2c-0.2,0.8-0.6,1.5-1.1,1.9C20.4,40.1,19.6,40.3,18.8,40.3z M18.7,33.1
		c-0.4,0-0.7,0.1-1,0.2c-0.3,0.1-0.5,0.3-0.7,0.5s-0.4,0.5-0.5,0.8s-0.2,0.6-0.2,1H21c0-0.8-0.3-1.4-0.6-1.8
		C19.9,33.3,19.4,33.1,18.7,33.1z"/>
	<path class="st0" d="M22.8,32.3h1.1v-2.4h1.2v2.4h1.5v1h-1.5v5c0,0.3,0.1,0.5,0.2,0.6s0.3,0.2,0.6,0.2c0.1,0,0.2,0,0.4,0
		c0.1,0,0.2,0,0.3-0.1l0,0v1.1c-0.1,0-0.3,0.1-0.5,0.1s-0.3,0-0.5,0c-0.5,0-0.9-0.1-1.2-0.3c-0.3-0.2-0.5-0.6-0.5-1.2v-5.3h-1.1
		V32.3z"/>
	<path class="st0" d="M33.4,42.7c-1,0-1.8-0.2-2.3-0.6c-0.6-0.4-0.9-0.9-0.9-1.6h1.1c0.1,0.4,0.3,0.7,0.7,0.9s0.9,0.3,1.5,0.3
		c0.7,0,1.3-0.2,1.7-0.5s0.6-0.8,0.6-1.5v-1.1l0,0c-0.3,0.4-0.6,0.7-0.9,0.9c-0.3,0.2-0.8,0.3-1.4,0.3c-0.5,0-1-0.1-1.4-0.3
		c-0.4-0.2-0.8-0.5-1.1-0.8s-0.5-0.7-0.7-1.2s-0.2-1-0.2-1.5c0-0.6,0.1-1.1,0.3-1.6c0.2-0.5,0.4-0.9,0.7-1.2
		c0.3-0.3,0.7-0.6,1.1-0.8c0.4-0.2,0.8-0.3,1.3-0.3c0.6,0,1,0.1,1.4,0.3s0.7,0.5,1,0.9l0,0v-1h1.2v7.3c0,0.5-0.1,1-0.2,1.3
		c-0.2,0.4-0.4,0.7-0.7,0.9s-0.7,0.4-1.1,0.6C34.3,42.6,33.9,42.7,33.4,42.7z M33.3,38.8c0.5,0,0.8-0.1,1.1-0.2
		c0.3-0.1,0.5-0.3,0.7-0.6s0.3-0.6,0.4-0.9c0.1-0.3,0.1-0.7,0.1-1.1c0-0.8-0.2-1.5-0.6-2s-1-0.7-1.8-0.7c-0.7,0-1.3,0.3-1.6,0.8
		c-0.4,0.5-0.5,1.2-0.5,2s0.2,1.5,0.6,2C32,38.5,32.6,38.8,33.3,38.8z"/>
	<path class="st0" d="M44.5,40.2c-0.8,0-1.2-0.4-1.3-1.2l0,0c-0.1,0.2-0.3,0.3-0.4,0.4c-0.2,0.1-0.3,0.3-0.6,0.4s-0.4,0.2-0.7,0.3
		s-0.6,0.1-0.9,0.1c-0.4,0-0.7,0-1-0.1s-0.6-0.2-0.8-0.4s-0.4-0.4-0.6-0.7C38,38.8,38,38.4,38,38.1c0-0.5,0.1-0.8,0.3-1.1
		s0.4-0.5,0.7-0.7s0.7-0.3,1.1-0.4c0.4-0.1,0.9-0.2,1.3-0.3c0.3,0,0.5-0.1,0.8-0.1s0.4-0.1,0.6-0.2s0.3-0.2,0.4-0.3s0.1-0.3,0.1-0.5
		c0-0.4-0.2-0.8-0.5-1s-0.7-0.4-1.3-0.4s-1.1,0.1-1.4,0.4c-0.3,0.3-0.5,0.7-0.5,1.3h-1.2c0-0.4,0.1-0.7,0.2-1s0.3-0.6,0.6-0.8
		s0.6-0.4,1-0.5s0.8-0.2,1.3-0.2c0.4,0,0.8,0,1.1,0.1s0.7,0.2,0.9,0.4c0.3,0.2,0.5,0.4,0.6,0.8c0.1,0.3,0.2,0.7,0.2,1.2v3.7
		c0,0.3,0.1,0.6,0.2,0.7c0.1,0.2,0.3,0.2,0.7,0.1l0,0v0.9c-0.1,0-0.2,0.1-0.3,0.1C44.8,40.2,44.7,40.2,44.5,40.2z M40.9,39.3
		c0.4,0,0.8-0.1,1.1-0.2c0.3-0.1,0.5-0.3,0.7-0.5s0.3-0.4,0.4-0.7c0.1-0.2,0.1-0.5,0.1-0.7v-1.3c-0.2,0.1-0.5,0.2-0.8,0.3
		s-0.7,0.2-1,0.2c-0.3,0.1-0.6,0.1-0.9,0.2c-0.3,0.1-0.5,0.1-0.7,0.3c-0.2,0.1-0.4,0.3-0.5,0.4c-0.1,0.2-0.2,0.4-0.2,0.7
		s0,0.5,0.1,0.6c0.1,0.2,0.2,0.3,0.4,0.4c0.1,0.1,0.3,0.2,0.5,0.2S40.7,39.3,40.9,39.3z"/>
	<path class="st0" d="M45.5,32.3h1.1v-1.2c0-0.7,0.2-1.1,0.5-1.4c0.4-0.3,0.9-0.4,1.5-0.4c0.1,0,0.2,0,0.3,0s0.2,0,0.3,0v1
		c-0.1,0-0.2,0-0.2,0s-0.1,0-0.2,0c-0.4,0-0.7,0.1-0.8,0.2c-0.2,0.1-0.2,0.3-0.2,0.7v1.2h1.4v1h-1.4v6.8h-1.2v-6.8h-1.1
		C45.5,33.4,45.5,32.3,45.5,32.3z"/>
	<path class="st0" d="M52.8,32.3H54v1.1l0,0c0.2-0.4,0.6-0.7,1-0.9s0.8-0.4,1.3-0.4s0.9,0.1,1.2,0.4c0.3,0.2,0.6,0.6,0.8,1l0,0
		c0.2-0.5,0.6-0.8,1-1s0.9-0.4,1.4-0.4c0.7,0,1.3,0.2,1.7,0.6c0.4,0.4,0.7,1,0.7,1.9V40h-1.2v-5.4c0-0.5-0.1-0.9-0.4-1.1
		c-0.3-0.3-0.6-0.4-1-0.4c-0.3,0-0.5,0.1-0.7,0.2c-0.2,0.1-0.4,0.2-0.6,0.4c-0.2,0.2-0.3,0.4-0.4,0.7c-0.1,0.3-0.2,0.5-0.2,0.8V40
		h-1.2v-5.4c0-0.5-0.1-0.9-0.4-1.1c-0.2-0.3-0.6-0.4-1-0.4c-0.2,0-0.5,0.1-0.7,0.2c-0.2,0.1-0.4,0.2-0.6,0.4
		c-0.2,0.2-0.3,0.4-0.5,0.7c-0.1,0.3-0.2,0.5-0.2,0.8V40h-1.2C52.8,40,52.8,32.3,52.8,32.3z"/>
	<path class="st0" d="M68,40.3c-0.6,0-1.1-0.1-1.6-0.3s-0.9-0.5-1.2-0.9c-0.3-0.4-0.6-0.8-0.7-1.3c-0.2-0.5-0.3-1-0.3-1.6
		s0.1-1.1,0.3-1.6s0.4-0.9,0.8-1.3c0.3-0.4,0.7-0.7,1.2-0.9s1-0.3,1.5-0.3c0.6,0,1.1,0.1,1.5,0.3s0.8,0.5,1.1,0.9
		c0.3,0.4,0.5,0.8,0.7,1.4c0.2,0.5,0.2,1.1,0.2,1.8h-6c0,0.4,0.1,0.8,0.2,1.1s0.3,0.6,0.5,0.9c0.2,0.3,0.5,0.4,0.8,0.6
		c0.3,0.1,0.6,0.2,1,0.2c0.6,0,1-0.1,1.4-0.4c0.4-0.3,0.6-0.7,0.8-1.2h1.2c-0.2,0.8-0.6,1.5-1.1,1.9C69.6,40.1,68.9,40.3,68,40.3z
		 M68,33.1c-0.4,0-0.7,0.1-1,0.2c-0.3,0.1-0.5,0.3-0.7,0.5s-0.4,0.5-0.5,0.8s-0.2,0.6-0.2,1h4.7c0-0.8-0.3-1.4-0.6-1.8
		C69.2,33.3,68.7,33.1,68,33.1z"/>
	<path class="st0" d="M74.3,32.3h1.3l1.4,4.8c0,0.2,0.1,0.3,0.1,0.5s0.1,0.4,0.1,0.5c0,0.2,0.1,0.4,0.1,0.6l0,0
		c0-0.2,0.1-0.4,0.1-0.6c0-0.2,0.1-0.3,0.1-0.5s0.1-0.4,0.1-0.5l1.3-4.8h1.3l1.3,4.8c0,0.2,0.1,0.3,0.1,0.5s0.1,0.4,0.1,0.5
		c0,0.2,0.1,0.4,0.1,0.6l0,0c0-0.2,0.1-0.4,0.1-0.6c0.1-0.2,0.1-0.4,0.1-0.5c0-0.2,0.1-0.4,0.1-0.5l1.4-4.8h1.3l-2.5,7.8h-1.2
		l-1.3-4.7c0-0.2-0.1-0.3-0.1-0.5s-0.1-0.4-0.1-0.5c0-0.2-0.1-0.4-0.1-0.6l0,0c-0.1,0.2-0.1,0.4-0.1,0.6c0,0.2-0.1,0.3-0.1,0.5
		s-0.1,0.4-0.1,0.5l-1.3,4.7h-1.3L74.3,32.3z"/>
	<path class="st0" d="M89.3,40.3c-0.6,0-1.1-0.1-1.6-0.3s-0.9-0.5-1.2-0.9c-0.3-0.4-0.6-0.8-0.7-1.3c-0.2-0.5-0.3-1-0.3-1.6
		s0.1-1.1,0.3-1.6s0.4-0.9,0.8-1.3c0.3-0.4,0.7-0.7,1.2-0.9s1-0.3,1.5-0.3c0.6,0,1.1,0.1,1.5,0.3s0.8,0.5,1.1,0.9
		c0.3,0.4,0.5,0.8,0.7,1.4c0.2,0.5,0.2,1.1,0.2,1.8h-6c0,0.4,0.1,0.8,0.2,1.1s0.3,0.6,0.5,0.9c0.2,0.3,0.5,0.4,0.8,0.6
		c0.3,0.1,0.6,0.2,1,0.2c0.6,0,1-0.1,1.4-0.4c0.4-0.3,0.6-0.7,0.8-1.2h1.2c-0.2,0.8-0.6,1.5-1.1,1.9S90.2,40.3,89.3,40.3z
		 M89.2,33.1c-0.4,0-0.7,0.1-1,0.2c-0.3,0.1-0.5,0.3-0.7,0.5s-0.4,0.5-0.5,0.8s-0.2,0.6-0.2,1h4.7c0-0.8-0.3-1.4-0.6-1.8
		C90.4,33.3,89.9,33.1,89.2,33.1z"/>
	<path class="st0" d="M97.3,40.3c-0.6,0-1.1-0.1-1.6-0.3s-0.9-0.5-1.2-0.9c-0.3-0.4-0.6-0.8-0.7-1.3c-0.2-0.5-0.3-1-0.3-1.6
		s0.1-1.1,0.3-1.6s0.4-0.9,0.8-1.3s0.7-0.7,1.2-0.9s1-0.3,1.5-0.3c0.6,0,1.1,0.1,1.5,0.3s0.8,0.5,1.1,0.9s0.5,0.8,0.7,1.4
		s0.2,1.1,0.2,1.8h-6c0,0.4,0.1,0.8,0.2,1.1s0.3,0.6,0.5,0.9c0.2,0.3,0.5,0.4,0.8,0.6c0.3,0.1,0.6,0.2,1,0.2c0.6,0,1-0.1,1.4-0.4
		c0.4-0.3,0.6-0.7,0.8-1.2h1.2c-0.2,0.8-0.6,1.5-1.1,1.9C98.9,40.1,98.2,40.3,97.3,40.3z M97.2,33.1c-0.4,0-0.7,0.1-1,0.2
		s-0.5,0.3-0.7,0.5s-0.4,0.5-0.5,0.8s-0.2,0.6-0.2,1h4.7c0-0.8-0.3-1.4-0.6-1.8C98.4,33.3,97.9,33.1,97.2,33.1z"/>
	<path class="st0" d="M103.2,33.6L103.2,33.6c0.3-0.4,0.6-0.7,1-1s0.9-0.4,1.4-0.4c0.1,0,0.2,0,0.3,0c0.1,0,0.1,0,0.2,0.1v1.2l0,0
		c-0.1,0-0.2,0-0.2-0.1c-0.1,0-0.2,0-0.3,0c-0.3,0-0.6,0.1-0.9,0.2c-0.3,0.1-0.5,0.3-0.7,0.5s-0.4,0.4-0.5,0.7s-0.2,0.6-0.2,1v4.3
		H102v-7.8h1.2V33.6z"/>
	<path class="st0" d="M110.7,33.4L110.7,33.4c0.3-0.4,0.6-0.7,1-0.9s0.9-0.3,1.4-0.3c0.8,0,1.4,0.2,1.9,0.6c0.5,0.4,0.7,1,0.7,1.9
		v5.4h-1.2v-5.3c0-0.5-0.2-0.9-0.5-1.2s-0.7-0.4-1.3-0.4c-0.3,0-0.6,0.1-0.9,0.2c-0.3,0.1-0.5,0.2-0.7,0.4s-0.3,0.4-0.4,0.7
		s-0.2,0.6-0.2,0.9v4.8h-1.2V29.4h1.2v4H110.7z"/>
	<path class="st0" d="M120.7,40.3c-0.6,0-1.1-0.1-1.6-0.3s-0.9-0.5-1.2-0.9c-0.3-0.4-0.6-0.8-0.8-1.3c-0.2-0.5-0.3-1-0.3-1.6
		s0.1-1.1,0.3-1.6s0.4-0.9,0.8-1.3s0.7-0.7,1.2-0.9s1-0.3,1.6-0.3s1.1,0.1,1.6,0.3s0.9,0.5,1.2,0.9s0.6,0.8,0.7,1.3
		c0.2,0.5,0.3,1,0.3,1.6s-0.1,1.1-0.3,1.6c-0.2,0.5-0.4,0.9-0.7,1.3c-0.3,0.4-0.7,0.7-1.2,0.9C121.8,40.2,121.3,40.3,120.7,40.3z
		 M120.7,39.3c0.4,0,0.8-0.1,1.1-0.2s0.6-0.4,0.8-0.7c0.2-0.3,0.4-0.6,0.5-1s0.2-0.8,0.2-1.2s-0.1-0.8-0.2-1.2s-0.3-0.7-0.5-1
		s-0.5-0.5-0.8-0.7s-0.7-0.2-1.1-0.2s-0.8,0.1-1.1,0.2c-0.3,0.2-0.6,0.4-0.8,0.7s-0.4,0.6-0.5,1s-0.2,0.8-0.2,1.2s0.1,0.8,0.2,1.2
		s0.3,0.7,0.5,1s0.5,0.5,0.8,0.7C119.9,39.2,120.3,39.3,120.7,39.3z"/>
	<path class="st0" d="M129,40.3c-0.6,0-1.1-0.1-1.6-0.3s-0.9-0.5-1.2-0.9c-0.3-0.4-0.6-0.8-0.8-1.3c-0.2-0.5-0.3-1-0.3-1.6
		s0.1-1.1,0.3-1.6s0.4-0.9,0.8-1.3c0.3-0.4,0.7-0.7,1.2-0.9s1-0.3,1.6-0.3s1.1,0.1,1.6,0.3s0.9,0.5,1.2,0.9s0.6,0.8,0.7,1.3
		s0.3,1,0.3,1.6s-0.1,1.1-0.3,1.6s-0.4,0.9-0.7,1.3c-0.3,0.4-0.7,0.7-1.2,0.9S129.6,40.3,129,40.3z M129,39.3c0.4,0,0.8-0.1,1.1-0.2
		c0.3-0.2,0.6-0.4,0.8-0.7s0.4-0.6,0.5-1s0.2-0.8,0.2-1.2s-0.1-0.8-0.2-1.2c-0.1-0.4-0.3-0.7-0.5-1s-0.5-0.5-0.8-0.7
		s-0.7-0.2-1.1-0.2c-0.4,0-0.8,0.1-1.1,0.2s-0.6,0.4-0.8,0.7s-0.4,0.6-0.5,1s-0.2,0.8-0.2,1.2s0.1,0.8,0.2,1.2s0.3,0.7,0.5,1
		s0.5,0.5,0.8,0.7C128.2,39.3,128.6,39.3,129,39.3z"/>
	<path class="st0" d="M133.9,32.3h1.2v1.1l0,0c0.3-0.4,0.6-0.7,1-0.9s0.9-0.3,1.5-0.3c0.5,0,0.9,0.1,1.4,0.3c0.4,0.2,0.8,0.5,1,0.8
		s0.5,0.8,0.7,1.3s0.2,1.1,0.2,1.7c0,0.6-0.1,1.2-0.2,1.7c-0.2,0.5-0.4,0.9-0.7,1.3c-0.3,0.4-0.6,0.6-1.1,0.8
		c-0.4,0.2-0.9,0.3-1.4,0.3s-1-0.1-1.4-0.3s-0.7-0.5-1.1-0.9l0,0v3.4h-1.2V32.3H133.9z M137.5,39.3c0.4,0,0.7-0.1,1-0.2
		c0.3-0.2,0.5-0.4,0.7-0.6c0.2-0.3,0.3-0.6,0.4-1s0.1-0.8,0.1-1.2s0-0.8-0.1-1.2s-0.2-0.7-0.4-1s-0.4-0.5-0.7-0.6
		c-0.3-0.2-0.6-0.2-1-0.2s-0.8,0.1-1.1,0.2c-0.3,0.2-0.6,0.4-0.8,0.7s-0.3,0.6-0.4,1c-0.1,0.4-0.2,0.8-0.2,1.2s0,0.8,0.1,1.2
		s0.2,0.7,0.4,1s0.4,0.5,0.8,0.7C136.7,39.2,137.1,39.3,137.5,39.3z"/>
	<path class="st0" d="M142.7,30.9c0,0.5-0.1,0.9-0.4,1.2c-0.2,0.3-0.5,0.4-0.9,0.5V32c0.2-0.1,0.3-0.2,0.4-0.4
		c0.1-0.2,0.2-0.4,0.2-0.7h-0.6v-1.5h1.3V30.9z M145,30.9c0,0.5-0.1,0.9-0.4,1.2c-0.3,0.3-0.5,0.4-0.9,0.5V32
		c0.2-0.1,0.3-0.2,0.4-0.4c0.1-0.2,0.2-0.4,0.2-0.7h-0.6v-1.5h1.3V30.9z"/>
</g>
<polygon class="st0" points="166.9,5.7 169.6,4.1 168.2,1.7 165.5,3.3 165.5,0.1 162.7,0.1 162.7,3.3 160,1.7 158.6,4.1 161.4,5.7 
	158.6,7.3 160,9.7 162.7,8.1 162.7,11.2 165.5,11.2 165.5,8.1 168.2,9.7 169.6,7.3 "/>
</svg>
