<?xml version="1.0" encoding="utf-8"?>
<!-- Generator: Adobe Illustrator 24.0.0, SVG Export Plug-In . SVG Version: 6.00 Build 0)  -->
<svg version="1.1" id="Laag_1" xmlns="http://www.w3.org/2000/svg" xmlns:xlink="http://www.w3.org/1999/xlink" x="0px" y="0px"
	 width="210px" height="42.8px" viewBox="0 0 210 42.8" style="enable-background:new 0 0 210 42.8;" xml:space="preserve">
<style type="text/css">
	.st0{fill:#FFFFFF;}
	.st1{font-family:'NHaasGroteskDSPro-75Bd';}
	.st2{font-size:25px;}
</style>
<g>
	<path class="st0" d="M0.6,4.8h8.5c0.9,0,1.7,0.1,2.5,0.3c0.8,0.2,1.4,0.6,2,1s1,1,1.3,1.6s0.5,1.4,0.5,2.2c0,1-0.3,1.9-0.8,2.7
		c-0.5,0.7-1.3,1.3-2.3,1.6v0.1c0.8,0.3,1.4,0.7,1.8,1.2c0.4,0.5,0.7,1.2,0.8,2.1c0.1,0.6,0.2,1.2,0.2,1.7c0,0.6,0.1,1.1,0.1,1.5
		s0.1,0.8,0.2,1.1c0.1,0.3,0.2,0.5,0.3,0.5v0.2h-4.3c-0.1-0.1-0.2-0.2-0.3-0.5s-0.1-0.6-0.1-1s-0.1-0.8-0.1-1.3s-0.1-0.9-0.2-1.4
		c-0.1-0.8-0.4-1.5-0.9-1.9s-1.2-0.7-2.1-0.7H5v6.7H0.6V4.8z M8.3,12.7c0.9,0,1.5-0.2,2-0.6c0.4-0.4,0.7-0.9,0.7-1.6
		c0-0.6-0.2-1.2-0.6-1.6c-0.5-0.4-1.1-0.6-2-0.6H5v4.4H8.3z"/>
	<path class="st0" d="M23.3,23.1c-1,0-2-0.2-2.8-0.5s-1.6-0.8-2.2-1.4s-1.1-1.3-1.4-2.2c-0.3-0.8-0.5-1.7-0.5-2.7s0.2-1.9,0.5-2.7
		s0.8-1.5,1.4-2.2c0.6-0.6,1.3-1.1,2.2-1.4c0.8-0.3,1.8-0.5,2.8-0.5s2,0.2,2.8,0.5s1.6,0.8,2.1,1.4c0.6,0.6,1.1,1.3,1.4,2.2
		c0.3,0.8,0.5,1.7,0.5,2.7s-0.2,1.9-0.5,2.7s-0.8,1.5-1.4,2.2c-0.6,0.6-1.3,1.1-2.1,1.4C25.3,22.9,24.3,23.1,23.3,23.1z M23.3,20.2
		c0.9,0,1.6-0.4,2-1.1c0.5-0.7,0.7-1.6,0.7-2.8s-0.2-2.1-0.7-2.8c-0.5-0.7-1.1-1.1-2-1.1s-1.6,0.4-2,1.1c-0.5,0.7-0.7,1.7-0.7,2.8
		c0,1.2,0.2,2.1,0.7,2.8C21.7,19.8,22.4,20.2,23.3,20.2z"/>
	<path class="st0" d="M36.3,22.8c-0.6,0-1.1-0.1-1.6-0.2s-0.9-0.3-1.3-0.6c-0.4-0.3-0.6-0.6-0.9-1.1c-0.2-0.5-0.3-1-0.3-1.7v-6.8
		h-1.7V9.9h1.7v-4h4v4h2.3v2.5h-2.3v6c0,0.5,0.1,0.8,0.4,1c0.3,0.2,0.6,0.2,1,0.2c0.2,0,0.4,0,0.5,0c0.2,0,0.3,0,0.4,0v3
		c-0.2,0-0.5,0.1-0.8,0.1C37.3,22.8,36.9,22.8,36.3,22.8z"/>
	<path class="st0" d="M40,4.8h4.1v6.6h0.1c0.5-0.6,1-1.1,1.6-1.4c0.6-0.3,1.3-0.5,2.2-0.5c0.7,0,1.3,0.1,1.9,0.4
		c0.6,0.2,1,0.6,1.4,1s0.7,0.9,0.9,1.5s0.3,1.2,0.3,2v8.3h-4.1v-7.5c0-0.7-0.2-1.2-0.5-1.7c-0.3-0.4-0.8-0.6-1.5-0.6
		s-1.2,0.2-1.6,0.8c-0.4,0.5-0.6,1.2-0.6,2v7.1H40V4.8z"/>
	<path class="st0" d="M54.3,4.8h4v9.4l3.8-4.3h4.7l-4.5,4.8l5,8h-4.7l-3.1-5.3l-1.2,1.3v3.9h-4V4.8z"/>
	<path class="st0" d="M73.6,23.1c-1,0-2-0.2-2.8-0.5s-1.6-0.8-2.2-1.4s-1.1-1.3-1.4-2.2c-0.3-0.8-0.5-1.7-0.5-2.7s0.2-1.9,0.5-2.7
		s0.8-1.5,1.4-2.2c0.6-0.6,1.3-1.1,2.2-1.4c0.8-0.3,1.8-0.5,2.8-0.5s2,0.2,2.8,0.5s1.6,0.8,2.1,1.4c0.6,0.6,1.1,1.3,1.4,2.2
		c0.3,0.8,0.5,1.7,0.5,2.7s-0.2,1.9-0.5,2.7s-0.8,1.5-1.4,2.2c-0.6,0.6-1.3,1.1-2.1,1.4C75.5,22.9,74.6,23.1,73.6,23.1z M73.5,20.2
		c0.9,0,1.6-0.4,2-1.1c0.5-0.7,0.7-1.6,0.7-2.8s-0.2-2.1-0.7-2.8c-0.5-0.7-1.1-1.1-2-1.1s-1.6,0.4-2,1.1c-0.5,0.7-0.7,1.7-0.7,2.8
		c0,1.2,0.2,2.1,0.7,2.8S72.6,20.2,73.5,20.2z"/>
	<path class="st0" d="M91.6,23c-1,0-1.9-0.1-2.7-0.4c-0.8-0.3-1.5-0.6-2-1.1s-0.9-1-1.2-1.7c-0.3-0.6-0.4-1.3-0.4-2.1
		c0-0.7,0.1-1.3,0.3-1.8c0.2-0.5,0.5-1,0.8-1.4s0.8-0.8,1.2-1.1c0.5-0.3,1-0.6,1.5-0.9c-0.4-0.5-0.8-1-1-1.6
		c-0.2-0.5-0.4-1.2-0.4-1.9c0-0.6,0.1-1.2,0.4-1.7c0.2-0.5,0.6-1,1-1.4s1-0.7,1.6-0.9c0.6-0.2,1.3-0.3,2.1-0.3c0.7,0,1.4,0.1,2,0.3
		s1.2,0.5,1.6,0.9c0.5,0.4,0.8,0.8,1.1,1.3c0.2,0.5,0.4,1.1,0.4,1.8c0,0.5-0.1,1-0.3,1.5c-0.2,0.4-0.4,0.8-0.7,1.2
		c-0.3,0.3-0.6,0.6-1.1,0.9c-0.4,0.3-0.8,0.5-1.3,0.7l2.1,2.7c0.2-0.3,0.3-0.7,0.4-1.1c0.1-0.4,0.2-0.8,0.3-1.2h3.5
		c-0.1,0.9-0.3,1.7-0.6,2.6c-0.3,0.9-0.8,1.7-1.3,2.5l3.1,3.8h-5l-0.9-1.1c-0.7,0.4-1.4,0.8-2.2,1C93.2,22.8,92.4,23,91.6,23z
		 M91.7,19.7c0.9,0,1.7-0.3,2.4-0.8l-3-3.9c-0.6,0.4-1.1,0.8-1.3,1.2c-0.2,0.4-0.4,0.9-0.4,1.4c0,0.6,0.2,1.1,0.6,1.5
		S91.1,19.7,91.7,19.7z M92.8,11.2c0.5-0.3,0.9-0.6,1.1-1s0.3-0.7,0.3-1.2c0-0.4-0.1-0.7-0.4-1s-0.6-0.4-1-0.4s-0.7,0.1-1,0.4
		c-0.2,0.3-0.4,0.6-0.4,1s0.1,0.8,0.4,1.1C92.2,10.5,92.5,10.8,92.8,11.2z"/>
	<path class="st0" d="M107.2,4.8h8c1.1,0,2,0.1,2.8,0.4s1.5,0.7,2,1.2c0.6,0.5,1,1.2,1.3,1.9c0.3,0.7,0.5,1.6,0.5,2.5
		s-0.1,1.6-0.4,2.4c-0.3,0.7-0.7,1.3-1.2,1.8s-1.2,0.9-1.9,1.2c-0.8,0.3-1.6,0.4-2.5,0.4h-4.2v6h-4.5L107.2,4.8L107.2,4.8z
		 M115,13.2c0.8,0,1.4-0.2,1.9-0.7c0.4-0.4,0.6-1,0.6-1.7s-0.2-1.3-0.6-1.7s-1.1-0.6-1.9-0.6h-3.3v4.7H115z"/>
	<path class="st0" d="M129,23c-1.1,0-2-0.2-2.9-0.5c-0.8-0.3-1.6-0.8-2.1-1.4c-0.6-0.6-1-1.3-1.4-2.2c-0.3-0.8-0.5-1.7-0.5-2.7
		c0-1,0.2-1.8,0.5-2.7c0.3-0.8,0.8-1.5,1.4-2.1s1.3-1.1,2.1-1.4c0.8-0.3,1.7-0.5,2.7-0.5c0.9,0,1.7,0.1,2.5,0.4
		c0.7,0.3,1.4,0.7,1.9,1.2c0.8,0.7,1.3,1.6,1.7,2.7s0.6,2.3,0.5,3.6h-9.2c0.1,0.9,0.4,1.5,0.9,2s1.1,0.8,2,0.8c0.5,0,1-0.1,1.3-0.3
		c0.3-0.2,0.6-0.5,0.8-0.9h4c-0.1,0.6-0.4,1.1-0.8,1.7c-0.4,0.5-0.8,1-1.4,1.4c-0.5,0.4-1.1,0.7-1.8,0.9S129.8,23,129,23z
		 M131.2,14.9c-0.1-0.8-0.3-1.4-0.8-1.8c-0.4-0.5-1-0.7-1.7-0.7c-0.8,0-1.4,0.2-1.8,0.7c-0.4,0.4-0.7,1.1-0.8,1.8H131.2z"/>
	<path class="st0" d="M141.6,22.8c-0.6,0-1.1-0.1-1.6-0.2s-0.9-0.3-1.3-0.6c-0.4-0.3-0.7-0.6-0.9-1.1s-0.3-1-0.3-1.7v-6.8h-1.7V9.9
		h1.7v-4h4v4h2.3v2.5h-2.3v6c0,0.5,0.1,0.8,0.4,1c0.3,0.2,0.6,0.2,1,0.2c0.2,0,0.4,0,0.5,0c0.2,0,0.3,0,0.4,0v3
		c-0.2,0-0.5,0.1-0.8,0.1C142.6,22.8,142.1,22.8,141.6,22.8z"/>
	<path class="st0" d="M151.4,23c-1,0-2-0.2-2.8-0.5c-0.9-0.3-1.6-0.8-2.2-1.4s-1-1.3-1.3-2.2c-0.3-0.8-0.5-1.7-0.5-2.7
		c0-1,0.2-1.8,0.5-2.7c0.3-0.8,0.8-1.5,1.3-2.1s1.3-1.1,2.1-1.4s1.7-0.5,2.7-0.5c0.9,0,1.7,0.1,2.5,0.4c0.7,0.3,1.4,0.7,1.9,1.2
		c0.8,0.7,1.3,1.6,1.7,2.7s0.6,2.3,0.5,3.6h-9.2c0.1,0.9,0.4,1.5,0.9,2s1.1,0.8,2,0.8c0.5,0,1-0.1,1.3-0.3c0.4-0.2,0.6-0.5,0.8-0.9
		h4c-0.1,0.6-0.4,1.1-0.8,1.7c-0.4,0.5-0.8,1-1.4,1.4c-0.5,0.4-1.1,0.7-1.8,0.9C152.9,22.9,152.2,23,151.4,23z M153.6,14.9
		c-0.1-0.8-0.3-1.4-0.8-1.8c-0.4-0.5-1-0.7-1.7-0.7c-0.8,0-1.4,0.2-1.8,0.7c-0.4,0.4-0.7,1.1-0.8,1.8H153.6z"/>
	<path class="st0" d="M159.1,9.9h3.9v2h0.1c0.5-0.8,1-1.3,1.5-1.7s1.2-0.5,2-0.5c0.4,0,0.7,0,0.8,0.1v3.5h-0.1c-1.2-0.2-2.2,0-3,0.6
		c-0.7,0.6-1.1,1.6-1.1,3v5.8h-4.1L159.1,9.9L159.1,9.9z"/>
</g>
<text transform="matrix(1 0 0 1 167.6951 22.6277)" class="st0 st1 st2"> </text>
<g>
	<path class="st0" d="M0,31.6c0-0.5,0.1-0.9,0.4-1.2c0.2-0.3,0.5-0.4,0.9-0.5v0.6c-0.2,0.1-0.3,0.2-0.4,0.4
		c-0.1,0.2-0.2,0.4-0.2,0.7h0.6v1.5H0V31.6z M2.3,31.6c0-0.5,0.1-0.9,0.4-1.2c0.2-0.3,0.5-0.4,0.9-0.5v0.6c-0.2,0.1-0.3,0.2-0.4,0.4
		C3,31,3,31.2,3,31.6h0.6v1.5H2.3V31.6z"/>
	<path class="st0" d="M5.2,29.9h1.3v10.7H5.2V29.9z"/>
	<path class="st0" d="M10.8,36.5l-1.1,1.1v3.1H8.4V29.9h1.2v6.3l3.4-3.3h1.5l-3,2.8l3.3,5h-1.4L10.8,36.5z"/>
	<path class="st0" d="M17.3,32.9h1.3l1.6,4.9c0,0.2,0.1,0.4,0.2,0.5c0.1,0.2,0.1,0.4,0.2,0.5c0.1,0.2,0.1,0.4,0.2,0.6l0,0
		c0-0.2,0.1-0.4,0.2-0.6c0-0.2,0.1-0.3,0.2-0.5s0.1-0.4,0.2-0.5l1.6-4.9h1.3l-2.8,7.8h-1.4L17.3,32.9z"/>
	<path class="st0" d="M28.2,40.9c-0.6,0-1.1-0.1-1.6-0.3s-0.9-0.5-1.2-0.9c-0.3-0.4-0.6-0.8-0.8-1.3c-0.2-0.5-0.3-1-0.3-1.6
		s0.1-1.1,0.3-1.6s0.4-0.9,0.8-1.3c0.3-0.4,0.7-0.7,1.2-0.9s1-0.3,1.6-0.3s1.1,0.1,1.6,0.3s0.9,0.5,1.2,0.9c0.3,0.4,0.6,0.8,0.7,1.3
		c0.2,0.5,0.3,1,0.3,1.6s-0.1,1.1-0.3,1.6c-0.2,0.5-0.4,0.9-0.7,1.3c-0.3,0.4-0.7,0.7-1.2,0.9C29.3,40.8,28.8,40.9,28.2,40.9z
		 M28.2,39.9c0.4,0,0.8-0.1,1.1-0.2c0.3-0.2,0.6-0.4,0.8-0.7c0.2-0.3,0.4-0.6,0.5-1s0.2-0.8,0.2-1.2s-0.1-0.8-0.2-1.2
		s-0.3-0.7-0.5-1s-0.5-0.5-0.8-0.7s-0.7-0.2-1.1-0.2s-0.8,0.1-1.1,0.2c-0.3,0.2-0.6,0.4-0.8,0.7s-0.4,0.6-0.5,1s-0.2,0.8-0.2,1.2
		s0.1,0.8,0.2,1.2s0.3,0.7,0.5,1s0.5,0.5,0.8,0.7C27.4,39.8,27.8,39.9,28.2,39.9z"/>
	<path class="st0" d="M34.4,33.9L34.4,33.9c0.3-0.4,0.6-0.7,1-0.9s0.9-0.3,1.4-0.3c0.8,0,1.4,0.2,1.9,0.6c0.5,0.4,0.7,1,0.7,1.9v5.4
		h-1.2v-5.3c0-0.5-0.2-0.9-0.5-1.2s-0.7-0.4-1.3-0.4c-0.3,0-0.6,0.1-0.9,0.2c-0.3,0.1-0.5,0.2-0.7,0.4s-0.3,0.4-0.4,0.7
		c-0.1,0.3-0.2,0.6-0.2,0.9v4.8H33v-7.8h1.2v1H34.4z"/>
	<path class="st0" d="M44.1,40.9c-0.5,0-1-0.1-1.4-0.3s-0.8-0.5-1.1-0.8c-0.3-0.4-0.5-0.8-0.7-1.3s-0.2-1.1-0.2-1.7
		c0-0.6,0.1-1.2,0.3-1.7s0.4-0.9,0.7-1.3c0.3-0.3,0.7-0.6,1.1-0.8c0.4-0.2,0.9-0.3,1.3-0.3c0.5,0,1,0.1,1.4,0.4s0.7,0.5,1,0.9l0,0
		v-4.1h1.2v10.7h-1.2v-0.9l0,0c-0.3,0.4-0.6,0.7-1,0.9C45.1,40.8,44.6,40.9,44.1,40.9z M44.1,39.9c0.4,0,0.8-0.1,1.1-0.2
		s0.6-0.4,0.8-0.6c0.2-0.3,0.3-0.6,0.4-1c0.1-0.4,0.1-0.8,0.1-1.2c0-0.5-0.1-0.9-0.2-1.2s-0.3-0.7-0.5-1s-0.5-0.5-0.8-0.6
		c-0.3-0.2-0.7-0.2-1.1-0.2c-0.4,0-0.7,0.1-1,0.2c-0.3,0.2-0.5,0.4-0.7,0.6s-0.3,0.6-0.4,1s-0.1,0.8-0.1,1.2s0,0.8,0.1,1.2
		s0.2,0.7,0.4,1s0.4,0.5,0.7,0.6C43.4,39.8,43.8,39.9,44.1,39.9z"/>
	<path class="st0" d="M55.1,40.9c-0.6,0-1.1-0.1-1.6-0.3s-0.9-0.5-1.2-0.9s-0.6-0.8-0.7-1.3c-0.2-0.5-0.3-1-0.3-1.6s0.1-1.1,0.3-1.6
		s0.4-0.9,0.8-1.3c0.3-0.4,0.7-0.7,1.2-0.9s1-0.3,1.5-0.3c0.6,0,1.1,0.1,1.5,0.3s0.8,0.5,1.1,0.9s0.5,0.8,0.7,1.4
		c0.2,0.5,0.2,1.1,0.2,1.8h-6c0,0.4,0.1,0.8,0.2,1.1c0.1,0.3,0.3,0.6,0.5,0.9c0.2,0.3,0.5,0.4,0.8,0.6c0.3,0.1,0.6,0.2,1,0.2
		c0.6,0,1-0.1,1.4-0.4c0.4-0.3,0.6-0.7,0.8-1.2h1.2c-0.2,0.8-0.6,1.5-1.1,1.9C56.7,40.7,56,40.9,55.1,40.9z M55,33.7
		c-0.4,0-0.7,0.1-1,0.2c-0.3,0.1-0.5,0.3-0.7,0.5s-0.4,0.5-0.5,0.8s-0.2,0.6-0.2,1h4.7c0-0.8-0.3-1.4-0.6-1.8
		C56.2,33.9,55.7,33.7,55,33.7z"/>
	<path class="st0" d="M61,34.2L61,34.2c0.3-0.4,0.6-0.7,1-1s0.9-0.4,1.4-0.4c0.1,0,0.2,0,0.3,0s0.1,0,0.2,0.1v1.2l0,0
		c-0.1,0-0.2,0-0.2-0.1c-0.1,0-0.2,0-0.3,0c-0.3,0-0.6,0.1-0.9,0.2c-0.3,0.1-0.5,0.3-0.7,0.5s-0.4,0.4-0.5,0.7
		C61,35.7,61,36,61,36.4v4.3h-1.2v-7.8H61V34.2z"/>
	<path class="st0" d="M68.5,33.9L68.5,33.9c0.3-0.4,0.6-0.7,1-0.9s0.9-0.3,1.4-0.3c0.8,0,1.4,0.2,1.9,0.6c0.5,0.4,0.7,1,0.7,1.9v5.4
		h-1.2v-5.3c0-0.5-0.2-0.9-0.5-1.2s-0.7-0.4-1.3-0.4c-0.3,0-0.6,0.1-0.9,0.2c-0.3,0.1-0.5,0.2-0.7,0.4s-0.3,0.4-0.4,0.7
		s-0.2,0.6-0.2,0.9v4.8h-1.2v-7.8h1.2v1H68.5z"/>
	<path class="st0" d="M75.2,29.9h1.2v1.5h-1.2V29.9z M75.2,32.9h1.2v7.8h-1.2V32.9z"/>
	<path class="st0" d="M81.4,40.9c-0.6,0-1.1-0.1-1.6-0.3s-0.9-0.5-1.2-0.9c-0.3-0.4-0.6-0.8-0.7-1.3c-0.2-0.5-0.3-1-0.3-1.6
		s0.1-1.1,0.3-1.6s0.4-0.9,0.8-1.3c0.3-0.4,0.7-0.7,1.2-0.9s1-0.3,1.5-0.3c0.6,0,1.1,0.1,1.5,0.3s0.8,0.5,1.1,0.9
		c0.3,0.4,0.5,0.8,0.7,1.4c0.2,0.5,0.2,1.1,0.2,1.8h-6c0,0.4,0.1,0.8,0.2,1.1s0.3,0.6,0.5,0.9c0.2,0.3,0.5,0.4,0.8,0.6
		c0.3,0.1,0.6,0.2,1,0.2c0.6,0,1-0.1,1.4-0.4c0.4-0.3,0.6-0.7,0.8-1.2h1.2c-0.2,0.8-0.6,1.5-1.1,1.9C83,40.7,82.3,40.9,81.4,40.9z
		 M81.3,33.7c-0.4,0-0.7,0.1-1,0.2c-0.3,0.1-0.5,0.3-0.7,0.5s-0.4,0.5-0.5,0.8s-0.2,0.6-0.2,1h4.7c0-0.8-0.3-1.4-0.6-1.8
		C82.6,33.9,82,33.7,81.3,33.7z"/>
	<path class="st0" d="M85.4,32.9h1.1v-2.4h1.2v2.4h1.5v1h-1.5v5c0,0.3,0.1,0.5,0.2,0.6s0.3,0.2,0.6,0.2c0.1,0,0.2,0,0.4,0
		c0.1,0,0.2,0,0.3-0.1l0,0v1.1c-0.1,0-0.3,0.1-0.5,0.1s-0.3,0-0.5,0c-0.5,0-0.9-0.1-1.2-0.3c-0.3-0.2-0.5-0.6-0.5-1.2V34h-1.1V32.9z
		"/>
	<path class="st0" d="M93.5,40.9c-1.1,0-1.9-0.2-2.5-0.7s-0.9-1.2-1-2h1.2c0,0.3,0.1,0.6,0.3,0.8c0.1,0.2,0.3,0.4,0.5,0.5
		s0.4,0.2,0.7,0.3c0.2,0.1,0.5,0.1,0.8,0.1c0.6,0,1.1-0.1,1.4-0.4c0.3-0.2,0.4-0.5,0.4-0.9c0-0.2,0-0.4-0.1-0.5s-0.2-0.3-0.4-0.4
		c-0.2-0.1-0.4-0.2-0.6-0.3c-0.3-0.1-0.6-0.1-0.9-0.2c-0.4-0.1-0.7-0.2-1.1-0.3s-0.7-0.2-0.9-0.4c-0.3-0.2-0.5-0.4-0.6-0.7
		c-0.2-0.3-0.2-0.6-0.2-1c0-0.6,0.2-1.2,0.7-1.6c0.5-0.4,1.2-0.6,2.1-0.6c1,0,1.7,0.2,2.2,0.6c0.5,0.4,0.8,1,0.9,1.8H95
		c-0.1-0.5-0.2-0.9-0.5-1.1c-0.3-0.2-0.7-0.4-1.3-0.4c-0.6,0-1,0.1-1.2,0.3s-0.4,0.5-0.4,0.8c0,0.2,0,0.4,0.1,0.5s0.2,0.2,0.4,0.3
		s0.4,0.2,0.7,0.2c0.3,0.1,0.6,0.1,0.9,0.2c0.4,0.1,0.8,0.2,1.1,0.3s0.6,0.2,0.9,0.4s0.5,0.4,0.6,0.7s0.2,0.6,0.2,1.1
		c0,0.4-0.1,0.7-0.2,1s-0.4,0.5-0.6,0.7c-0.3,0.2-0.6,0.3-1,0.4S93.9,40.9,93.5,40.9z"/>
	<path class="st0" d="M106.2,40.7c-0.8,0-1.2-0.4-1.3-1.2l0,0c-0.1,0.2-0.3,0.3-0.4,0.4c-0.2,0.1-0.3,0.3-0.6,0.4s-0.4,0.2-0.7,0.3
		c-0.3,0.1-0.6,0.1-0.9,0.1c-0.4,0-0.7,0-1-0.1s-0.6-0.2-0.8-0.4c-0.2-0.2-0.4-0.4-0.6-0.7c-0.1-0.3-0.2-0.6-0.2-1
		c0-0.5,0.1-0.8,0.3-1.1c0.2-0.3,0.4-0.5,0.7-0.7c0.3-0.2,0.7-0.3,1.1-0.4c0.4-0.1,0.9-0.2,1.3-0.3c0.3,0,0.5-0.1,0.8-0.1
		c0.2,0,0.4-0.1,0.6-0.2s0.3-0.2,0.4-0.3s0.1-0.3,0.1-0.5c0-0.4-0.2-0.8-0.5-1s-0.7-0.4-1.3-0.4c-0.6,0-1.1,0.1-1.4,0.4
		c-0.3,0.3-0.5,0.7-0.5,1.3H100c0-0.4,0.1-0.7,0.2-1s0.3-0.6,0.6-0.8c0.3-0.2,0.6-0.4,1-0.5s0.8-0.2,1.3-0.2c0.4,0,0.8,0,1.1,0.1
		c0.4,0.1,0.7,0.2,0.9,0.4c0.3,0.2,0.5,0.4,0.6,0.8c0.1,0.3,0.2,0.7,0.2,1.2v3.7c0,0.3,0.1,0.6,0.2,0.7c0.1,0.2,0.3,0.2,0.7,0.1l0,0
		v0.9c-0.1,0-0.2,0.1-0.3,0.1C106.5,40.7,106.3,40.7,106.2,40.7z M102.5,39.9c0.4,0,0.8-0.1,1-0.2s0.5-0.3,0.7-0.5s0.3-0.4,0.4-0.7
		c0.1-0.2,0.1-0.5,0.1-0.7v-1.3c-0.2,0.1-0.5,0.2-0.8,0.3s-0.7,0.2-1,0.2c-0.3,0.1-0.6,0.1-0.9,0.2c-0.3,0.1-0.5,0.1-0.7,0.3
		c-0.2,0.1-0.4,0.3-0.5,0.4c-0.1,0.2-0.2,0.4-0.2,0.7s0,0.5,0.1,0.6c0.1,0.2,0.2,0.3,0.4,0.4c0.1,0.1,0.3,0.2,0.5,0.2
		S102.3,39.9,102.5,39.9z"/>
	<path class="st0" d="M113.8,40.7c-0.8,0-1.2-0.4-1.3-1.2l0,0c-0.1,0.2-0.3,0.3-0.4,0.4c-0.2,0.1-0.3,0.3-0.6,0.4s-0.4,0.2-0.7,0.3
		c-0.3,0.1-0.6,0.1-0.9,0.1c-0.4,0-0.7,0-1-0.1s-0.6-0.2-0.8-0.4c-0.2-0.2-0.4-0.4-0.6-0.7c-0.1-0.3-0.2-0.6-0.2-1
		c0-0.5,0.1-0.8,0.3-1.1s0.4-0.5,0.7-0.7s0.7-0.3,1.1-0.4c0.4-0.1,0.9-0.2,1.3-0.3c0.3,0,0.5-0.1,0.8-0.1c0.2,0,0.4-0.1,0.6-0.2
		s0.3-0.2,0.4-0.3s0.1-0.3,0.1-0.5c0-0.4-0.2-0.8-0.5-1s-0.7-0.4-1.3-0.4c-0.6,0-1.1,0.1-1.4,0.4c-0.3,0.3-0.5,0.7-0.5,1.3h-1.2
		c0-0.4,0.1-0.7,0.2-1s0.3-0.6,0.6-0.8c0.3-0.2,0.6-0.4,1-0.5s0.8-0.2,1.3-0.2c0.4,0,0.8,0,1.1,0.1c0.3,0.1,0.7,0.2,0.9,0.4
		c0.3,0.2,0.5,0.4,0.6,0.8c0.1,0.3,0.2,0.7,0.2,1.2v3.7c0,0.3,0.1,0.6,0.2,0.7c0.1,0.2,0.3,0.2,0.7,0.1l0,0v0.9
		c-0.1,0-0.2,0.1-0.3,0.1C114.1,40.7,114,40.7,113.8,40.7z M110.2,39.9c0.4,0,0.8-0.1,1.1-0.2c0.3-0.1,0.5-0.3,0.7-0.5
		s0.3-0.4,0.4-0.7s0.1-0.5,0.1-0.7v-1.3c-0.2,0.1-0.5,0.2-0.8,0.3s-0.7,0.2-1,0.2c-0.3,0.1-0.6,0.1-0.9,0.2
		c-0.3,0.1-0.5,0.1-0.7,0.3c-0.2,0.1-0.4,0.3-0.5,0.4c-0.1,0.2-0.2,0.4-0.2,0.7s0,0.5,0.1,0.6c0.1,0.2,0.2,0.3,0.4,0.4
		c0.2,0.1,0.3,0.2,0.5,0.2C109.8,39.9,110,39.9,110.2,39.9z"/>
	<path class="st0" d="M116.6,33.9L116.6,33.9c0.3-0.4,0.6-0.7,1-0.9s0.9-0.3,1.4-0.3c0.8,0,1.4,0.2,1.9,0.6c0.5,0.4,0.7,1,0.7,1.9
		v5.4h-1.2v-5.3c0-0.5-0.2-0.9-0.5-1.2s-0.7-0.4-1.3-0.4c-0.3,0-0.6,0.1-0.9,0.2c-0.3,0.1-0.5,0.2-0.7,0.4s-0.3,0.4-0.4,0.7
		s-0.2,0.6-0.2,0.9v4.8h-1.2v-7.8h1.2v1H116.6z"/>
	<path class="st0" d="M124,31.4c0,0.5-0.1,0.9-0.4,1.2c-0.3,0.3-0.5,0.4-0.9,0.5v-0.6c0.2-0.1,0.3-0.2,0.4-0.4s0.2-0.4,0.2-0.7h-0.6
		v-1.5h1.3V31.4z M126.3,31.4c0,0.5-0.1,0.9-0.4,1.2c-0.2,0.3-0.5,0.4-0.9,0.5v-0.6c0.2-0.1,0.3-0.2,0.4-0.4
		c0.1-0.2,0.2-0.4,0.2-0.7H125v-1.5h1.3V31.4z"/>
</g>
<polygon class="st0" points="178.9,6.3 181.7,4.7 180.3,2.3 177.6,3.9 177.6,0.7 174.8,0.7 174.8,3.9 172.1,2.3 170.7,4.7 
	173.4,6.3 170.7,7.8 172.1,10.2 174.8,8.7 174.8,11.8 177.6,11.8 177.6,8.7 180.3,10.2 181.7,7.8 "/>
</svg>
