<?xml version="1.0" encoding="utf-8"?>
<!-- Generator: Adobe Illustrator 22.1.0, SVG Export Plug-In . SVG Version: 6.00 Build 0)  -->
<svg version="1.1" id="Laag_1" xmlns="http://www.w3.org/2000/svg" xmlns:xlink="http://www.w3.org/1999/xlink" x="0px" y="0px"
	 width="302.1px" height="212.4px" viewBox="0 0 302.1 212.4" style="enable-background:new 0 0 302.1 212.4;" xml:space="preserve"
	>
<style type="text/css">
	.st0{fill:none;}
	.st1{fill:#FFFFFF;}
</style>
<g>
	<polygon class="st0" points="84.4,83.7 63,112.4 92.4,118.6 	"/>
	<path class="st0" d="M256.6,48.1c0,3.6,2.7,6.2,8.5,6.2c7.1,0,12.8-5.9,12.8-11.3v-3.2l-14.4,1.7C258.4,42.2,256.6,44.9,256.6,48.1
		z"/>
	<path class="st0" d="M112.4,185.9c-2.7,0-4.8,0.7-6.3,2.2c-1.5,1.5-2.4,3.4-2.7,5.8h17.3c-0.2-2.4-1-4.3-2.4-5.8
		C117,186.7,115,185.9,112.4,185.9z"/>
	<polygon class="st0" points="11.4,198.5 31.5,198.5 21.4,176.8 	"/>
	<path class="st0" d="M113.3,113.2c0,10.1,6.3,17.3,16.2,17.3c9.7,0,15.6-6.9,15.6-17.3c0-10.5-5.9-17.3-15.6-17.3
		C119.6,95.9,113.3,103.1,113.3,113.2z"/>
	<path class="st0" d="M218.3,189c-0.9-0.9-1.9-1.6-3.1-2.1c-1.2-0.5-2.6-0.8-4.1-0.8c-1.5,0-2.8,0.3-4.1,0.8
		c-1.2,0.5-2.3,1.2-3.1,2.1c-0.9,0.9-1.5,2-2,3.2c-0.5,1.3-0.7,2.6-0.7,4.1c0,1.5,0.2,2.9,0.7,4.1c0.5,1.3,1.1,2.3,2,3.2
		c0.9,0.9,1.9,1.6,3.1,2.1c1.2,0.5,2.6,0.8,4.1,0.8c1.5,0,2.8-0.3,4.1-0.8c1.2-0.5,2.3-1.2,3.1-2.1c0.9-0.9,1.5-2,2-3.2
		c0.5-1.3,0.7-2.6,0.7-4.1c0-1.5-0.2-2.9-0.7-4.1C219.8,191,219.1,189.9,218.3,189z"/>
	<path class="st0" d="M251.8,189c-0.9-0.9-1.9-1.6-3.1-2.1c-1.2-0.5-2.6-0.8-4.1-0.8c-1.5,0-2.8,0.3-4.1,0.8
		c-1.2,0.5-2.3,1.2-3.1,2.1c-0.9,0.9-1.5,2-2,3.2c-0.5,1.3-0.7,2.6-0.7,4.1c0,1.5,0.2,2.9,0.7,4.1c0.5,1.3,1.1,2.3,2,3.2
		c0.9,0.9,1.9,1.6,3.1,2.1c1.2,0.5,2.6,0.8,4.1,0.8c1.5,0,2.8-0.3,4.1-0.8c1.2-0.5,2.3-1.2,3.1-2.1c0.9-0.9,1.5-2,2-3.2
		c0.5-1.3,0.7-2.6,0.7-4.1c0-1.5-0.2-2.9-0.7-4.1C253.3,191,252.6,189.9,251.8,189z"/>
	<polygon class="st1" points="0,0 0,60.5 7.2,60.5 7.2,47.5 13.8,41.3 27.7,60.5 37.4,60.5 19.1,36.4 37.4,17.3 26.9,17.3 7.2,37.6 
		7.2,0 	"/>
	<path class="st1" d="M42,17.3v25.6c0,10.7,4.1,18.7,15.8,18.7c6.5,0,10.8-2.4,14.2-7.3v6.2h7.2V17.3h-7.4v20.1
		c0,3.9-0.4,8.8-2.5,12.1c-2.1,3.4-5.7,5.1-10.1,5.1c-7.5,0-9.5-4.9-9.5-11.7V17.3H42z"/>
	<path class="st1" d="M88.8,17.3v43.2h7.4V40.3c0-3.9,0.4-8.8,2.5-12.1c2.2-3.5,6.2-5.1,10.2-5.1c6.6,0,10,4.1,10,11.6v25.7h7.6
		V35.1c0-11.1-5.1-18.8-16.5-18.8c-5.6,0-10.6,1.9-14.1,6.7v-5.7H88.8z"/>
	<path class="st1" d="M150.5,54.6c-4.5,0-9-1.7-11.3-7.1l-6.1,3.9c3.2,7.1,9.9,10.1,17.4,10.1c9.6,0,16.8-5.1,16.8-13.4
		c0-8-6.8-10.8-16.1-12.9c-5.8-1.3-9.9-2.3-9.9-6c0-3.3,3.4-6.1,9-6.1c5.2,0,9,2.4,11,6.3l6.1-3.9c-3.4-6.3-9.3-9.3-16.8-9.3
		c-10.3,0-16.8,5.8-16.8,13.2c0,8.8,9,11.1,16.2,12.7c4.9,1,9.9,2.2,9.9,6.3C159.9,52.3,155.7,54.6,150.5,54.6z"/>
	<path class="st1" d="M179.2,5v12.3h-8.6v6.5h8.6v24.6c0,9.2,4.1,12.5,11.9,12.5c2.8,0,5.3-0.3,7.8-0.9v-6.5
		c-2.3,0.3-4.6,0.5-7.3,0.5c-3.6,0-4.9-1.9-4.9-5.3V23.8h11.8v-6.5h-11.8V5H179.2z"/>
	<path class="st1" d="M204.4,0v60.5h7.4V40.3c0-3.9,0.4-8.8,2.5-12.1c2.2-3.5,6-5.1,10.1-5.1c6.7,0,10.1,4.2,10.1,11.6v25.7h7.6
		V35.1c0-11.1-4.9-18.8-16.8-18.8c-5.4,0-10.2,2.2-13.5,6.7V0H204.4z"/>
	<path class="st1" d="M267.7,16.2c-10.4,0-15.6,4.5-17.2,10.9l6.7,3.6c0.9-5.4,4.9-7.9,11.1-7.9c5.9,0,9.4,2.7,9.4,6.4v0.9
		c0,1.7-1.2,3-3.2,3.2l-12.5,1.2C255,35.3,249,39.8,249,48.1c0,7.4,5.3,13.2,14.9,13.2c6,0,11.1-2.8,13.9-7v6.1h7.4V32.4
		C285.3,22.4,279.7,16.2,267.7,16.2z M277.8,43c0,5.4-5.7,11.3-12.8,11.3c-5.8,0-8.5-2.6-8.5-6.2c0-3.2,1.8-6,6.8-6.6l14.4-1.7V43z"
		/>
	<rect x="294.7" y="0" class="st1" width="7.4" height="60.5"/>
	<polygon class="st1" points="196.4,129.5 167,129.5 167,110.9 196.4,110.9 196.4,103.1 167,103.1 167,84.6 196.4,84.6 196.4,76.8 
		159.2,76.8 159.2,137.3 196.4,137.3 	"/>
	<path class="st1" d="M105.2,113.2c0,15.3,9.8,25.1,22.9,25.1c0.2,0,0.4,0,0.6,0c0.2,0,0.5,0,0.7,0c6.9,0,12.3-2.9,15.1-7.3v6.2h7.4
		V76.8h-7.4v18.8c-3.1-4.4-8.7-7.5-16.2-7.5C115,88.1,105.2,97.8,105.2,113.2z M145.1,113.2c0,10.5-5.9,17.3-15.6,17.3
		c-9.9,0-16.2-7.2-16.2-17.3c0-10.1,6.3-17.3,16.2-17.3C139.2,95.9,145.1,102.7,145.1,113.2z"/>
	<path class="st1" d="M31,154.9l26.6-35.6l36.8,7.8l9.8,43.3l8.2,1.7l-22-96.9l-8.2-1.7l-40.8,54.4l-19.2-24.9l26.1-26.4h-11
		L7.6,106.9V76.8H0v60.5h7.6V118l9.2-9.2l19.8,25.9l-13.8,18.5L31,154.9z M84.4,83.7l8,34.9L63,112.4L84.4,83.7z"/>
	<path class="st1" d="M89.9,184.9c-0.9-1.1-2.1-2-3.5-2.6c-1.4-0.6-3.1-0.9-5.1-0.9c-2.7,0-4.9,0.5-6.5,1.6c-1.6,1.1-3,2.4-4.1,4.1
		c-0.8-1.7-1.9-3.1-3.4-4.1c-1.5-1-3.5-1.5-6-1.5c-2.1,0-4,0.4-5.5,1.3c-1.5,0.8-2.7,2-3.6,3.4v-4h-4.8v28.7h4.9v-13.4
		c0-1.6,0.1-3,0.4-4.4c0.2-1.4,0.7-2.6,1.3-3.6c0.6-1,1.5-1.8,2.6-2.4c1.1-0.6,2.4-0.9,4.1-0.9c2.3,0,3.9,0.6,5.1,1.9
		c1.1,1.3,1.7,3.2,1.7,5.7v17.1h4.9v-13.4c0-1.6,0.1-3.1,0.4-4.5c0.3-1.4,0.7-2.6,1.4-3.6c0.6-1,1.5-1.8,2.6-2.4
		c1.1-0.6,2.5-0.9,4.1-0.9c2.2,0,3.9,0.6,5,1.9c1.1,1.3,1.7,3.2,1.7,5.7v17.1h5v-16.5c0-1.9-0.2-3.7-0.6-5.3
		C91.4,187.4,90.8,186,89.9,184.9z"/>
	<path class="st1" d="M24.1,170.6h-5.4L0.1,210.7h5.7l3.3-7h24.9l3.3,7h5.7L24.1,170.6z M11.4,198.5l10-21.7l10,21.7H11.4z"/>
	<path class="st1" d="M297.4,206.4c-1.2,0-2.1-0.3-2.6-0.9c-0.5-0.6-0.7-1.4-0.7-2.6v-16.6h7.9V182h-7.9v-7.7h-4.9v7.7h-5.7v4.3h5.7
		v16.3c0,3.1,0.7,5.2,2,6.4c1.3,1.2,3.3,1.9,5.9,1.9c0.9,0,1.8-0.1,2.6-0.2c0.8-0.1,1.6-0.3,2.3-0.5v-4.4c-0.8,0.2-1.5,0.3-2.2,0.3
		C299.1,206.4,298.3,206.4,297.4,206.4z"/>
	<path class="st1" d="M255.3,185.7c-1.3-1.3-2.9-2.4-4.8-3.2c-1.8-0.8-3.8-1.1-6-1.1c-2.1,0-4.1,0.4-6,1.1c-1.8,0.8-3.4,1.8-4.8,3.2
		c-1.3,1.3-2.4,2.9-3.2,4.8c-0.8,1.8-1.1,3.8-1.1,6c0,2.1,0.4,4.1,1.1,6c0.8,1.8,1.8,3.4,3.2,4.8c1.3,1.3,2.9,2.4,4.8,3.2
		c1.8,0.8,3.8,1.1,6,1.1c2.1,0,4.1-0.4,6-1.1c1.8-0.8,3.4-1.8,4.8-3.2c1.3-1.3,2.4-2.9,3.2-4.8c0.8-1.8,1.1-3.8,1.1-6
		c0-2.1-0.4-4.1-1.1-6C257.7,188.6,256.6,187,255.3,185.7z M253.8,200.5c-0.5,1.3-1.1,2.3-2,3.2c-0.9,0.9-1.9,1.6-3.1,2.1
		c-1.2,0.5-2.6,0.8-4.1,0.8c-1.5,0-2.8-0.3-4.1-0.8c-1.2-0.5-2.3-1.2-3.1-2.1c-0.9-0.9-1.5-2-2-3.2c-0.5-1.3-0.7-2.6-0.7-4.1
		c0-1.5,0.2-2.9,0.7-4.1c0.5-1.3,1.1-2.3,2-3.2c0.9-0.9,1.9-1.6,3.1-2.1c1.2-0.5,2.6-0.8,4.1-0.8c1.5,0,2.8,0.3,4.1,0.8
		c1.2,0.5,2.3,1.2,3.1,2.1c0.9,0.9,1.5,2,2,3.2c0.5,1.3,0.7,2.6,0.7,4.1C254.5,197.9,254.2,199.2,253.8,200.5z"/>
	<path class="st1" d="M278.7,181.4c-2,0-3.8,0.4-5.2,1.3c-1.4,0.9-2.6,2.1-3.5,3.7V182h-4.8v28.7h4.9v-13.4c0-1.6,0.1-3.1,0.4-4.4
		c0.3-1.3,0.7-2.5,1.4-3.4c0.7-1,1.5-1.7,2.6-2.2c1.1-0.5,2.4-0.8,4-0.8c0.5,0,1,0,1.5,0.1s0.9,0.1,1.4,0.3v-5.2
		c-0.5-0.1-0.9-0.1-1.4-0.2C279.7,181.4,279.2,181.4,278.7,181.4z"/>
	<path class="st1" d="M122.6,185.7c-1.1-1.4-2.6-2.4-4.3-3.2c-1.7-0.8-3.7-1.1-6-1.1c-2.2,0-4.1,0.4-5.9,1.2
		c-1.7,0.8-3.2,1.9-4.4,3.3c-1.2,1.4-2.2,3-2.8,4.8c-0.7,1.9-1,3.8-1,5.9c0,2.3,0.4,4.3,1.1,6.1c0.7,1.8,1.7,3.4,3,4.7
		c1.3,1.3,2.8,2.3,4.6,3c1.8,0.7,3.8,1,5.9,1c1.3,0,2.6-0.1,3.7-0.4c1.1-0.3,2.2-0.7,3.2-1.2c1-0.5,1.8-1.1,2.6-1.7
		c0.8-0.6,1.4-1.2,2-1.9l-2.6-3.8c-1,1.2-2.2,2.2-3.7,3.1s-3.3,1.3-5.4,1.3c-1.2,0-2.4-0.2-3.5-0.6c-1.1-0.4-2.1-0.9-2.9-1.7
		c-0.8-0.7-1.5-1.7-2.1-2.8c-0.5-1.1-0.8-2.4-0.9-3.8v-0.1h22.9v-1.5c0-2.1-0.3-4.1-0.9-5.9C124.6,188.6,123.7,187,122.6,185.7z
		 M103.4,193.9c0.3-2.4,1.3-4.3,2.7-5.8c1.5-1.5,3.6-2.2,6.3-2.2c2.6,0,4.6,0.7,5.9,2.2c1.4,1.5,2.1,3.4,2.4,5.8H103.4z"/>
	<path class="st1" d="M221.8,185.7c-1.3-1.3-2.9-2.4-4.8-3.2c-1.8-0.8-3.8-1.1-6-1.1c-2.1,0-4.1,0.4-6,1.1c-1.8,0.8-3.4,1.8-4.8,3.2
		c-1.3,1.3-2.4,2.9-3.2,4.8c-0.8,1.8-1.1,3.8-1.1,6c0,2.1,0.4,4.1,1.1,6c0.8,1.8,1.8,3.4,3.2,4.8c1.3,1.3,2.9,2.4,4.8,3.2
		c1.8,0.8,3.8,1.1,6,1.1c2.1,0,4.1-0.4,6-1.1c1.8-0.8,3.4-1.8,4.8-3.2c1.3-1.3,2.4-2.9,3.2-4.8c0.8-1.8,1.1-3.8,1.1-6
		c0-2.1-0.4-4.1-1.1-6C224.2,188.6,223.1,187,221.8,185.7z M220.3,200.5c-0.5,1.3-1.1,2.3-2,3.2c-0.9,0.9-1.9,1.6-3.1,2.1
		c-1.2,0.5-2.6,0.8-4.1,0.8c-1.5,0-2.8-0.3-4.1-0.8c-1.2-0.5-2.3-1.2-3.1-2.1c-0.9-0.9-1.5-2-2-3.2c-0.5-1.3-0.7-2.6-0.7-4.1
		c0-1.5,0.2-2.9,0.7-4.1c0.5-1.3,1.1-2.3,2-3.2c0.9-0.9,1.9-1.6,3.1-2.1c1.2-0.5,2.6-0.8,4.1-0.8c1.5,0,2.8,0.3,4.1,0.8
		c1.2,0.5,2.3,1.2,3.1,2.1c0.9,0.9,1.5,2,2,3.2c0.5,1.3,0.7,2.6,0.7,4.1C221,197.9,220.8,199.2,220.3,200.5z"/>
	<path class="st1" d="M158.5,186.9c1.1-0.6,2.4-0.9,4-0.9c2,0,3.6,0.4,4.7,1.2c1.2,0.8,2.1,1.8,2.7,3l4.1-2.6
		c-1.1-1.9-2.5-3.4-4.3-4.5c-1.8-1.1-4.2-1.7-7-1.7c-3.4,0-6,0.8-7.9,2.3c-1.9,1.6-2.8,3.6-2.8,6.1c0,1.6,0.3,2.9,1,3.9
		c0.7,1,1.6,1.8,2.6,2.5c1.1,0.6,2.2,1.1,3.5,1.5c1.3,0.4,2.5,0.7,3.7,0.9c1,0.2,1.8,0.4,2.6,0.6c0.8,0.2,1.5,0.5,2,0.8
		c0.6,0.3,1,0.7,1.3,1.1c0.3,0.5,0.5,1.1,0.5,1.8c0,1.3-0.5,2.3-1.6,3c-1.1,0.6-2.5,1-4.4,1c-1.8,0-3.4-0.3-5-1
		c-1.6-0.7-2.8-1.9-3.7-3.7l-4.1,2.6c0.6,1.2,1.3,2.2,2.2,3c0.9,0.8,1.9,1.5,3,2.1c1.1,0.6,2.3,1,3.6,1.2c1.3,0.2,2.6,0.4,3.9,0.4
		c1.6,0,3-0.2,4.4-0.5c1.3-0.3,2.5-0.9,3.5-1.6c1-0.7,1.8-1.7,2.3-2.8c0.6-1.1,0.8-2.5,0.8-4c0-1.6-0.3-3-0.9-4
		c-0.6-1-1.4-1.8-2.4-2.4c-1-0.6-2.1-1.1-3.3-1.4c-1.2-0.3-2.4-0.6-3.6-0.9c-1-0.2-1.9-0.4-2.7-0.7c-0.8-0.2-1.5-0.5-2.1-0.8
		c-0.6-0.3-1.1-0.7-1.4-1.1c-0.3-0.4-0.5-1-0.5-1.7C156.9,188.4,157.4,187.5,158.5,186.9z"/>
	<path class="st1" d="M144.9,181.4c-2,0-3.8,0.4-5.2,1.3c-1.4,0.9-2.6,2.1-3.5,3.7V182h-4.8v28.7h4.9v-13.4c0-1.6,0.1-3.1,0.4-4.4
		c0.3-1.3,0.7-2.5,1.4-3.4c0.7-1,1.5-1.7,2.6-2.2c1.1-0.5,2.4-0.8,4-0.8c0.5,0,1,0,1.5,0.1c0.4,0.1,0.9,0.1,1.4,0.3v-5.2
		c-0.5-0.1-0.9-0.1-1.4-0.2C145.9,181.4,145.4,181.4,144.9,181.4z"/>
	<path class="st1" d="M195.2,170.5c-0.8-0.1-1.5-0.2-2.2-0.3c-0.7-0.1-1.4-0.1-2.2-0.1c-1.4,0-2.6,0.2-3.8,0.5
		c-1.1,0.4-2.1,1-2.9,1.8c-0.8,0.8-1.4,1.9-1.9,3.2c-0.5,1.3-0.7,2.9-0.7,4.8v1.6h-5.3v4.3h5.3v24.4h4.9v-24.4h8.3V182h-8.3v-1.6
		c0-2.2,0.4-3.7,1.1-4.6c0.8-0.8,2-1.3,3.8-1.3c0.6,0,1.2,0,1.8,0.1c0.6,0.1,1.3,0.2,2,0.3V170.5z"/>
</g>
</svg>
