<?xml version="1.0" encoding="utf-8"?>
<!-- Generator: Adobe Illustrator 24.3.0, SVG Export Plug-In . SVG Version: 6.00 Build 0)  -->
<svg version="1.1" id="Laag_1" xmlns="http://www.w3.org/2000/svg" xmlns:xlink="http://www.w3.org/1999/xlink" x="0px" y="0px"
	 width="80.5px" height="40.5px" viewBox="0 0 80.5 40.5" style="enable-background:new 0 0 80.5 40.5;" xml:space="preserve">
<style type="text/css">
	.st0{fill:#FFFFFF;}
</style>
<g>
	<path class="st0" d="M6.4,0.2v1.5C5.5,1.6,5,1.6,4.1,1.6c-1.3,0-1.7,0.6-1.7,2.7S2.8,7,4.1,7c1,0,1.7,0,2.5-0.1v1.5
		C5.9,8.5,5.1,8.6,4.1,8.6c-2.7,0-3.6-1.1-3.6-4.3C0.5,1,1.5,0,4.1,0C5.2,0,5.8,0.1,6.4,0.2z"/>
	<path class="st0" d="M9.6,8.4H7.8V0.1h1.8V8.4z"/>
	<path class="st0" d="M17.5,1.6H15v6.8h-1.8V1.6h-2.5V0.1h6.8V1.6z"/>
	<path class="st0" d="M20.4,8.4h-1.8V0.1h1.8V8.4z"/>
	<path class="st0" d="M21.7,7l3.6-5c0.1-0.1,0.2-0.3,0.4-0.5l0-0.1c-0.2,0-0.4,0-0.5,0h-3.4V0.1h5.9v1.4l-3.6,4.9
		C24,6.6,23.8,6.8,23.6,7l0,0c0.2,0,0.4,0,0.5,0h3.6v1.4h-6V7z"/>
	<path class="st0" d="M34.6,7v1.4c-1.1,0.1-2.5,0.1-3.8,0.1c-1.1,0-1.8-0.6-1.8-1.7v-5c0-1,0.7-1.7,1.8-1.7c1.3,0,2.7,0,3.8,0.1v1.4
		h-3.2c-0.4,0-0.6,0.2-0.6,0.6v1.3h3.3v1.3h-3.3v1.6C30.8,6.8,31,7,31.4,7H34.6z"/>
	<path class="st0" d="M36,0.8c0-0.4,0.2-0.7,0.7-0.7h1.1c0.4,0,0.6,0.2,0.7,0.5L40.6,5c0.2,0.4,0.4,0.9,0.6,1.3h0.1
		c0-0.5-0.1-0.9-0.1-1.4V0.1h1.7v7.6c0,0.4-0.2,0.7-0.6,0.7h-1.1c-0.4,0-0.6-0.2-0.7-0.5l-2.2-4.4c-0.2-0.4-0.4-0.9-0.5-1.3h-0.1
		c0.1,0.4,0.1,0.9,0.1,1.3v4.9H36V0.8z"/>
	<path class="st0" d="M49.7,4.8H49C49,5,49,5.3,49,5.6v2.9h-1.8V0.1H49v2.3c0,0.3,0,0.7-0.1,1h0.7l2.1-3.3h2l-2.1,3.3
		c-0.2,0.3-0.4,0.5-0.6,0.7v0c0.2,0.2,0.5,0.5,0.7,0.7l2.2,3.5h-2L49.7,4.8z"/>
	<path class="st0" d="M2.7,16.6c0,0.1-0.2,0.2-0.3,0.2H1.5c-0.2,0-0.3-0.1-0.3-0.2L0,13.4h1.1l0.6,2.2c0.1,0.2,0.1,0.4,0.1,0.6H2
		c0.1-0.2,0.1-0.4,0.2-0.6l0.6-2.2h1.1L2.7,16.6z"/>
	<path class="st0" d="M7.4,14.5v2.3H6.6l-0.1-0.4c-0.2,0.2-0.6,0.5-1.2,0.5c-0.7,0-1.2-0.4-1.2-1.1v-0.2c0-0.6,0.4-1,1.2-1h1.1v-0.2
		c0-0.3-0.1-0.4-0.6-0.4c-0.3,0-0.9,0-1.5,0v-0.8c0.5,0,1.3-0.1,1.7-0.1C7,13.3,7.4,13.6,7.4,14.5z M5.6,16.1c0.2,0,0.5-0.1,0.8-0.2
		v-0.6H5.5c-0.3,0-0.4,0.1-0.4,0.3v0.1C5.1,16,5.3,16.1,5.6,16.1z"/>
	<path class="st0" d="M11.6,14.2v2.6h-1v-2.3c0-0.3-0.1-0.4-0.3-0.4c-0.3,0-0.6,0.1-1,0.3l0,2.4h-1v-3.5h0.8l0.1,0.5
		c0.5-0.4,1-0.6,1.5-0.6C11.3,13.3,11.6,13.6,11.6,14.2z"/>
	<path class="st0" d="M17.1,12v0.8c-0.5,0-1.1,0-1.5,0c-0.5,0-0.7,0-0.7,0.4c0,0.3,0.2,0.4,0.6,0.6l0.8,0.3c0.8,0.3,1.1,0.7,1.1,1.4
		c0,1-0.5,1.4-1.8,1.4c-0.3,0-1,0-1.6-0.1V16c0.9,0,1.3,0,1.6,0c0.5,0,0.8-0.1,0.8-0.5c0-0.3-0.2-0.4-0.5-0.5l-0.8-0.3
		c-0.8-0.3-1.1-0.7-1.1-1.4c0-1,0.5-1.3,1.8-1.3C15.9,11.9,16.6,11.9,17.1,12z"/>
	<path class="st0" d="M21.2,14.5v2.3h-0.8l-0.1-0.4c-0.2,0.2-0.6,0.5-1.2,0.5c-0.7,0-1.2-0.4-1.2-1.1v-0.2c0-0.6,0.4-1,1.2-1h1.1
		v-0.2c0-0.3-0.1-0.4-0.6-0.4c-0.3,0-0.9,0-1.5,0v-0.8c0.5,0,1.3-0.1,1.7-0.1C20.7,13.3,21.2,13.6,21.2,14.5z M19.3,16.1
		c0.2,0,0.5-0.1,0.8-0.2v-0.6h-0.8c-0.3,0-0.4,0.1-0.4,0.3v0.1C18.9,16,19,16.1,19.3,16.1z"/>
	<path class="st0" d="M25.3,11.9v4.9h-0.8l-0.1-0.5c-0.3,0.3-0.7,0.6-1.3,0.6c-0.9,0-1.2-0.7-1.2-1.8c0-1.4,0.5-1.8,1.3-1.8
		c0.4,0,0.8,0.1,1.1,0.3c0-0.2,0-0.5,0-0.7v-0.9H25.3z M23.5,16c0.3,0,0.5-0.1,0.8-0.3v-1.6C24,14.1,23.8,14,23.5,14
		c-0.4,0-0.6,0.1-0.6,1C22.9,15.9,23.1,16,23.5,16z"/>
	<path class="st0" d="M27.9,16.1c0.3,0,0.8,0,1.3,0v0.7c-0.4,0.1-0.9,0.2-1.4,0.2c-1.3,0-1.8-0.5-1.8-1.8c0-1.4,0.5-1.8,1.8-1.8
		c1.2,0,1.6,0.4,1.6,1.2c0,0.6-0.3,1-1.1,1h-1.2C27.2,16,27.4,16.1,27.9,16.1z M27.1,14.8h1c0.3,0,0.3-0.2,0.3-0.4
		c0-0.3-0.1-0.4-0.6-0.4C27.3,14,27.1,14.2,27.1,14.8z"/>
	<path class="st0" d="M31.4,14.1v1.6c0,0.3,0.1,0.4,0.4,0.4h0.5v0.8c-0.2,0.1-0.7,0.1-0.9,0.1c-0.6,0-1-0.4-1-1v-1.8h-0.6v-0.7
		l0.6,0l0.1-1h0.9v1h1v0.7H31.4z"/>
	<path class="st0" d="M34.3,14.1v1.6c0,0.3,0.1,0.4,0.4,0.4h0.5v0.8c-0.2,0.1-0.7,0.1-0.9,0.1c-0.6,0-1-0.4-1-1v-1.8h-0.6v-0.7
		l0.6,0l0.1-1h0.9v1h1v0.7H34.3z"/>
	<path class="st0" d="M36.9,12.1v0.4c0,0.2-0.1,0.3-0.3,0.3h-0.5c-0.2,0-0.3-0.1-0.3-0.3v-0.4c0-0.2,0.1-0.3,0.3-0.3h0.5
		C36.8,11.8,36.9,11.9,36.9,12.1z M36.9,16.8h-1v-3.5h1V16.8z"/>
	<path class="st0" d="M41.1,14.2v2.6h-1v-2.3c0-0.3-0.1-0.4-0.3-0.4c-0.3,0-0.6,0.1-1,0.3l0,2.4h-1v-3.5h0.8l0.1,0.5
		c0.5-0.4,1-0.6,1.5-0.6C40.8,13.3,41.1,13.6,41.1,14.2z"/>
	<path class="st0" d="M45,14.7h-0.4c0,0.2,0,0.3,0,0.5v1.7h-1.1V12h1.1v1.4c0,0.2,0,0.4,0,0.6h0.4l1.2-1.9h1.2l-1.2,1.9
		c-0.1,0.2-0.2,0.3-0.4,0.4v0c0.1,0.1,0.3,0.3,0.4,0.4l1.3,2.1h-1.2L45,14.7z"/>
	<path class="st0" d="M49,12.1v0.4c0,0.2-0.1,0.3-0.3,0.3h-0.5c-0.2,0-0.3-0.1-0.3-0.3v-0.4c0-0.2,0.1-0.3,0.3-0.3h0.5
		C48.9,11.8,49,11.9,49,12.1z M48.9,16.8h-1v-3.5h1V16.8z"/>
	<path class="st0" d="M52.2,13.3v1h-0.3c-0.3,0-0.6,0.1-1.1,0.2v2.4h-1v-3.5h0.8l0.1,0.5c0.5-0.4,1-0.6,1.4-0.6H52.2z"/>
	<path class="st0" d="M58.1,14.2v2.6h-1v-2.3c0-0.3-0.1-0.4-0.4-0.4c-0.2,0-0.4,0.1-0.8,0.3v2.4h-1v-2.3c0-0.3-0.1-0.4-0.4-0.4
		c-0.2,0-0.4,0.1-0.8,0.3v2.4h-1v-3.5h0.8l0.1,0.5c0.4-0.4,0.8-0.6,1.3-0.6c0.5,0,0.8,0.2,0.9,0.6c0.4-0.4,0.8-0.6,1.3-0.6
		C57.8,13.3,58.1,13.6,58.1,14.2z"/>
	<path class="st0" d="M60,12.1v0.4c0,0.2-0.1,0.3-0.3,0.3h-0.5c-0.2,0-0.3-0.1-0.3-0.3v-0.4c0-0.2,0.1-0.3,0.3-0.3h0.5
		C59.9,11.8,60,11.9,60,12.1z M60,16.8h-1v-3.5h1V16.8z"/>
	<path class="st0" d="M60.7,16.1l1.6-1.7c0.1-0.1,0.2-0.2,0.3-0.2l0,0c-0.1,0-0.2,0-0.3,0h-1.6v-0.7h3v0.7l-1.7,1.7
		c-0.1,0.1-0.2,0.1-0.3,0.2l0,0c0.1,0,0.2,0,0.3,0h1.7v0.7h-3.1V16.1z"/>
	<path class="st0" d="M65.6,12.1v0.4c0,0.2-0.1,0.3-0.3,0.3h-0.5c-0.2,0-0.3-0.1-0.3-0.3v-0.4c0-0.2,0.1-0.3,0.3-0.3h0.5
		C65.5,11.8,65.6,11.9,65.6,12.1z M65.5,16.8h-1v-3.5h1V16.8z"/>
	<path class="st0" d="M69.9,13.4l-1.2,3.5c-0.3,0.8-0.9,1.5-2,1.5v-0.8c0.6-0.1,0.9-0.3,1-0.7l0,0h-0.2c-0.2,0-0.3-0.1-0.3-0.3
		L66,13.4h1.1l0.6,2.2c0,0.2,0.1,0.3,0.1,0.5H68c0.1-0.2,0.1-0.4,0.2-0.5l0.6-2.2H69.9z"/>
	<path class="st0" d="M73.6,13.4v3.5h-0.8l-0.1-0.5c-0.5,0.4-0.9,0.6-1.4,0.6c-0.6,0-1-0.3-1-1v-2.6h1v2.3c0,0.3,0.1,0.4,0.4,0.4
		c0.3,0,0.5-0.1,0.9-0.3v-2.4H73.6z M71,12.5v-0.4c0-0.1,0.1-0.2,0.2-0.2h0.3c0.2,0,0.2,0.1,0.2,0.2v0.4c0,0.2-0.1,0.2-0.2,0.2h-0.3
		C71,12.7,71,12.6,71,12.5z M72.2,12.5v-0.4c0-0.1,0.1-0.2,0.2-0.2h0.3c0.2,0,0.2,0.1,0.2,0.2v0.4c0,0.2-0.1,0.2-0.2,0.2h-0.3
		C72.3,12.7,72.2,12.6,72.2,12.5z"/>
	<path class="st0" d="M74.3,16.1l1.6-1.7c0.1-0.1,0.2-0.2,0.3-0.2l0,0c-0.1,0-0.2,0-0.3,0h-1.6v-0.7h3v0.7l-1.7,1.7
		c-0.1,0.1-0.2,0.1-0.3,0.2l0,0c0.1,0,0.2,0,0.3,0h1.7v0.7h-3.1V16.1z"/>
</g>
</svg>
