<?xml version="1.0" encoding="utf-8"?>
<!-- Generator: Adobe Illustrator 24.3.0, SVG Export Plug-In . SVG Version: 6.00 Build 0)  -->
<svg version="1.1" id="Laag_1" xmlns="http://www.w3.org/2000/svg" xmlns:xlink="http://www.w3.org/1999/xlink" x="0px" y="0px"
	 width="325.1px" height="16.7px" viewBox="0 0 325.1 16.7" style="enable-background:new 0 0 325.1 16.7;" xml:space="preserve">
<style type="text/css">
	.st0{fill:#C67951;}
</style>
<g>
	<path class="st0" d="M0,13.2V0.7h6.8c0.7,0,1.3,0.1,1.8,0.4c0.5,0.3,0.9,0.6,1.2,1.1c0.3,0.5,0.5,1,0.5,1.6c0,0.5-0.1,0.9-0.3,1.3
		C9.9,5.4,9.6,5.8,9.3,6C9,6.3,8.7,6.5,8.3,6.6v0.1C8.7,6.8,9.1,7,9.5,7.3c0.4,0.3,0.7,0.6,0.9,1c0.2,0.4,0.3,0.9,0.3,1.5
		c0,0.8-0.2,1.4-0.5,1.9c-0.3,0.5-0.8,0.9-1.4,1.1c-0.6,0.2-1.2,0.4-1.9,0.4H0z M2.4,5.8h3.8c0.4,0,0.7-0.1,0.9-0.2
		C7.4,5.5,7.6,5.3,7.7,5c0.1-0.2,0.2-0.5,0.2-0.8c0-0.5-0.1-0.9-0.4-1.2S6.8,2.7,6.3,2.7h-4V5.8z M2.4,11.2h4.1
		c0.5,0,0.9-0.1,1.2-0.4c0.3-0.3,0.5-0.7,0.5-1.3c0-0.3-0.1-0.6-0.2-0.9C7.9,8.3,7.7,8.1,7.4,8c-0.3-0.1-0.6-0.2-1-0.2h-4V11.2z"/>
	<path class="st0" d="M12.7,2.1V0h2.2v2.1H12.7z M12.7,13.2V3.6h2.2v9.6H12.7z"/>
	<path class="st0" d="M17.1,16.5c-0.2,0-0.4,0-0.5,0c-0.2,0-0.4-0.1-0.6-0.1c-0.2,0-0.3-0.1-0.5-0.1v-1.5h0.9c0.3,0,0.5-0.1,0.6-0.2
		c0.1-0.1,0.2-0.3,0.2-0.6V3.6h2.2v10.5c0,0.4-0.1,0.8-0.2,1.2s-0.4,0.7-0.7,0.9S17.8,16.5,17.1,16.5z M17.3,2.1V0h2.2v2.1H17.3z"/>
	<path class="st0" d="M25.7,13.2V0.7h2.4v5.8l5.5-5.8h2.9l-4.9,5.1l4.9,7.4h-2.8l-3.7-5.8l-2,1.8v4H25.7z"/>
	<path class="st0" d="M43.1,13.4c-1.3,0-2.4-0.2-3.4-0.7c-0.9-0.5-1.7-1.2-2.2-2.1c-0.5-1-0.8-2.2-0.8-3.6c0-1.5,0.3-2.7,0.8-3.6
		c0.5-1,1.2-1.7,2.2-2.1c0.9-0.5,2.1-0.7,3.4-0.7c1.3,0,2.4,0.2,3.4,0.7c0.9,0.5,1.7,1.2,2.2,2.1c0.5,1,0.8,2.2,0.8,3.6
		c0,1.5-0.3,2.7-0.8,3.6c-0.5,1-1.2,1.7-2.2,2.1S44.4,13.4,43.1,13.4z M43.1,11.4c0.6,0,1.2-0.1,1.7-0.3c0.5-0.2,0.9-0.5,1.2-0.8
		c0.3-0.4,0.6-0.8,0.7-1.3C46.9,8.5,47,7.8,47,7.2V6.8c0-0.7-0.1-1.3-0.3-1.9c-0.2-0.5-0.4-1-0.7-1.3c-0.3-0.4-0.7-0.6-1.2-0.8
		c-0.5-0.2-1-0.3-1.7-0.3c-0.6,0-1.2,0.1-1.7,0.3c-0.5,0.2-0.9,0.5-1.2,0.8c-0.3,0.4-0.6,0.8-0.7,1.3S39.3,6,39.3,6.8v0.4
		c0,0.7,0.1,1.3,0.2,1.8c0.2,0.5,0.4,1,0.7,1.3c0.3,0.4,0.7,0.6,1.2,0.8C41.9,11.3,42.5,11.4,43.1,11.4z"/>
	<path class="st0" d="M51.6,13.2V0.7h6.3c0.9,0,1.7,0.2,2.3,0.5c0.6,0.3,1.1,0.8,1.4,1.4C61.9,3.2,62,3.9,62,4.7
		c0,0.8-0.2,1.5-0.5,2.1c-0.3,0.6-0.8,1.1-1.4,1.4c-0.6,0.3-1.4,0.5-2.3,0.5H54v4.5H51.6z M54,6.7h3.7c0.6,0,1.1-0.2,1.4-0.5
		c0.3-0.4,0.5-0.9,0.5-1.5c0-0.4-0.1-0.8-0.2-1.1c-0.1-0.3-0.4-0.5-0.6-0.7c-0.3-0.2-0.6-0.2-1.1-0.2H54V6.7z"/>
	<path class="st0" d="M63.9,13.2V0.7h9.8v2h-7.4v3.1h6.6v2h-6.6v3.4h7.5v2H63.9z"/>
	<path class="st0" d="M76.1,13.2V0.7h6.6c0.9,0,1.7,0.2,2.3,0.5c0.6,0.3,1.1,0.8,1.4,1.4c0.3,0.6,0.5,1.3,0.5,2.1
		c0,0.8-0.2,1.5-0.5,2.2c-0.4,0.6-0.9,1.1-1.6,1.4l2.6,5.1h-2.6l-2.3-4.7h-3.9v4.7H76.1z M78.5,6.6h4c0.6,0,1.1-0.2,1.4-0.5
		c0.3-0.4,0.5-0.8,0.5-1.5c0-0.4-0.1-0.7-0.2-1c-0.1-0.3-0.4-0.5-0.6-0.6c-0.3-0.1-0.6-0.2-1-0.2h-4V6.6z"/>
	<path class="st0" d="M94.8,13.4c-1.9,0-3.4-0.5-4.5-1.6c-1.1-1-1.6-2.7-1.6-4.9c0-1.5,0.3-2.7,0.8-3.6s1.2-1.7,2.2-2.1
		c1-0.5,2.1-0.7,3.4-0.7c0.8,0,1.6,0.1,2.3,0.3c0.7,0.2,1.3,0.5,1.9,0.8c0.5,0.4,1,0.8,1.3,1.4c0.3,0.6,0.5,1.2,0.5,2h-2.4
		c0-0.4-0.1-0.8-0.3-1.1c-0.2-0.3-0.4-0.6-0.7-0.8c-0.3-0.2-0.7-0.4-1.1-0.5c-0.4-0.1-0.8-0.2-1.3-0.2c-0.7,0-1.3,0.1-1.8,0.3
		c-0.5,0.2-0.9,0.4-1.3,0.8s-0.6,0.8-0.7,1.3c-0.2,0.5-0.2,1.2-0.2,1.9v0.4c0,1,0.1,1.8,0.4,2.4c0.3,0.6,0.7,1.1,1.3,1.4
		c0.6,0.3,1.3,0.4,2.1,0.4c0.7,0,1.3-0.1,1.9-0.3c0.5-0.2,1-0.5,1.3-1c0.3-0.4,0.5-0.9,0.5-1.5V8.4h-4v-2h6.4v6.7h-1.7l-0.2-1.4
		c-0.4,0.4-0.8,0.7-1.2,0.9c-0.4,0.2-0.9,0.4-1.4,0.5C96,13.4,95.5,13.4,94.8,13.4z"/>
	<path class="st0" d="M103.6,13.2V0.7h2.4v12.5H103.6z"/>
	<path class="st0" d="M108.8,13.2V0.7h9.8v2h-7.4v3.1h6.6v2h-6.6v3.4h7.5v2H108.8z"/>
	<path class="st0" d="M124.1,13.2V2.7h-4v-2h10.4v2h-4v10.5H124.1z"/>
	<path class="st0" d="M132.3,13.2V0.7h9.8v2h-7.4v3.1h6.6v2h-6.6v3.4h7.5v2H132.3z"/>
	<path class="st0" d="M144.6,13.2V0.7h6.6c0.9,0,1.7,0.2,2.3,0.5c0.6,0.3,1.1,0.8,1.4,1.4c0.3,0.6,0.5,1.3,0.5,2.1
		c0,0.8-0.2,1.5-0.5,2.2c-0.4,0.6-0.9,1.1-1.6,1.4l2.6,5.1h-2.6l-2.3-4.7H147v4.7H144.6z M147,6.6h4c0.6,0,1.1-0.2,1.4-0.5
		c0.3-0.4,0.5-0.8,0.5-1.5c0-0.4-0.1-0.7-0.2-1c-0.1-0.3-0.4-0.5-0.6-0.6c-0.3-0.1-0.6-0.2-1-0.2h-4V6.6z"/>
	<path class="st0" d="M160.9,13.2V8.1l-4.8-7.4h2.7l3.3,5.3h0.1l3.3-5.3h2.6l-4.8,7.4v5.1H160.9z"/>
	<path class="st0" d="M173.3,16.7V0h1.7v16.7H173.3z"/>
	<path class="st0" d="M184.5,13.2V2.7h-4v-2h10.4v2h-4v10.5H184.5z"/>
	<path class="st0" d="M192.5,13.2V0h2.2v4.7h0.1c0.2-0.3,0.5-0.5,0.7-0.7c0.3-0.2,0.6-0.3,1-0.5c0.4-0.1,0.8-0.2,1.2-0.2
		c0.6,0,1.1,0.1,1.6,0.3c0.5,0.2,0.8,0.6,1.1,1.1c0.3,0.5,0.4,1.1,0.4,2v6.5h-2.2V7.1c0-0.3,0-0.6-0.1-0.8c-0.1-0.2-0.2-0.4-0.3-0.5
		c-0.2-0.1-0.3-0.2-0.6-0.3c-0.2-0.1-0.5-0.1-0.7-0.1c-0.4,0-0.8,0.1-1.1,0.3c-0.3,0.2-0.6,0.5-0.8,0.8c-0.2,0.3-0.3,0.7-0.3,1.2
		v5.6H192.5z"/>
	<path class="st0" d="M207.3,13.4c-1,0-1.9-0.2-2.6-0.5c-0.7-0.4-1.2-0.9-1.5-1.7c-0.3-0.7-0.5-1.7-0.5-2.8c0-1.2,0.2-2.1,0.5-2.8
		c0.3-0.7,0.9-1.3,1.5-1.6c0.7-0.4,1.5-0.5,2.6-0.5c0.9,0,1.7,0.2,2.3,0.5c0.6,0.3,1.1,0.9,1.4,1.6c0.3,0.7,0.5,1.6,0.5,2.8v0.7H205
		c0,0.6,0.1,1.1,0.3,1.5c0.2,0.4,0.4,0.7,0.7,0.9c0.3,0.2,0.8,0.3,1.3,0.3c0.3,0,0.5,0,0.8-0.1s0.5-0.2,0.6-0.3
		c0.2-0.2,0.3-0.3,0.4-0.6c0.1-0.2,0.2-0.5,0.2-0.8h2.2c0,0.6-0.1,1.1-0.3,1.6c-0.2,0.5-0.5,0.8-0.9,1.1s-0.8,0.5-1.3,0.7
		C208.5,13.3,207.9,13.4,207.3,13.4z M205,7.4h4.2c0-0.4,0-0.7-0.1-1c-0.1-0.3-0.2-0.5-0.4-0.7c-0.2-0.2-0.4-0.3-0.6-0.4
		c-0.2-0.1-0.5-0.1-0.8-0.1c-0.5,0-0.9,0.1-1.2,0.2c-0.3,0.2-0.6,0.4-0.7,0.7C205.2,6.4,205.1,6.9,205,7.4z"/>
	<path class="st0" d="M215.9,13.4c-0.3,0-0.6,0-0.9-0.1c-0.3-0.1-0.7-0.2-1-0.4c-0.3-0.2-0.6-0.5-0.8-0.8c-0.2-0.4-0.3-0.8-0.3-1.4
		c0-0.7,0.1-1.2,0.4-1.6c0.3-0.4,0.7-0.8,1.2-1c0.5-0.2,1.2-0.4,1.9-0.5c0.7-0.1,1.5-0.2,2.4-0.2V6.6c0-0.3,0-0.5-0.1-0.7
		c-0.1-0.2-0.2-0.4-0.5-0.5c-0.2-0.1-0.6-0.2-1-0.2c-0.5,0-0.8,0.1-1.1,0.2c-0.3,0.1-0.4,0.2-0.5,0.4c-0.1,0.2-0.1,0.3-0.1,0.5v0.3
		h-2.2c0-0.1,0-0.1,0-0.2s0-0.1,0-0.2c0-0.5,0.2-1,0.5-1.4c0.3-0.4,0.8-0.7,1.4-0.9c0.6-0.2,1.3-0.3,2-0.3c0.9,0,1.6,0.1,2.2,0.4
		c0.6,0.2,1,0.6,1.3,1c0.3,0.5,0.4,1,0.4,1.6V11c0,0.2,0.1,0.4,0.2,0.5c0.1,0.1,0.3,0.1,0.4,0.1h0.6v1.5c-0.1,0-0.3,0.1-0.5,0.2
		c-0.2,0.1-0.5,0.1-0.9,0.1c-0.3,0-0.6-0.1-0.8-0.2c-0.2-0.1-0.5-0.3-0.6-0.4c-0.2-0.2-0.3-0.4-0.4-0.7H219
		c-0.2,0.3-0.5,0.5-0.7,0.7c-0.3,0.2-0.6,0.4-1,0.5C216.8,13.4,216.4,13.4,215.9,13.4z M216.6,11.6c0.4,0,0.7-0.1,1-0.2
		c0.3-0.1,0.5-0.3,0.7-0.5s0.3-0.4,0.4-0.7c0.1-0.3,0.2-0.6,0.2-0.9V8.9c-0.7,0-1.3,0-1.9,0.1c-0.6,0.1-1,0.2-1.4,0.5
		c-0.3,0.2-0.5,0.6-0.5,1c0,0.2,0.1,0.4,0.2,0.6s0.3,0.3,0.5,0.4C216,11.5,216.3,11.6,216.6,11.6z"/>
	<path class="st0" d="M226.1,13.4c-0.6,0-1.1-0.1-1.4-0.4c-0.3-0.2-0.6-0.5-0.7-0.9c-0.1-0.4-0.2-0.8-0.2-1.1V5.4h-1.2V3.6h1.2
		l0.4-2.7h1.8v2.7h1.7v1.8H226v5.4c0,0.3,0.1,0.5,0.2,0.6c0.1,0.1,0.3,0.2,0.6,0.2h0.9v1.5c-0.1,0-0.3,0.1-0.4,0.1
		c-0.2,0-0.4,0.1-0.6,0.1C226.5,13.4,226.3,13.4,226.1,13.4z"/>
	<path class="st0" d="M233.4,13.4c-1,0-1.9-0.2-2.6-0.5c-0.7-0.4-1.2-0.9-1.5-1.7c-0.3-0.7-0.5-1.7-0.5-2.8c0-1.2,0.2-2.1,0.5-2.8
		c0.3-0.7,0.9-1.3,1.5-1.6c0.7-0.4,1.5-0.5,2.6-0.5c0.9,0,1.7,0.2,2.3,0.5c0.6,0.3,1.1,0.9,1.4,1.6c0.3,0.7,0.5,1.6,0.5,2.8v0.7
		h-6.5c0,0.6,0.1,1.1,0.3,1.5c0.2,0.4,0.4,0.7,0.7,0.9c0.3,0.2,0.8,0.3,1.3,0.3c0.3,0,0.5,0,0.8-0.1c0.2-0.1,0.5-0.2,0.6-0.3
		c0.2-0.2,0.3-0.3,0.4-0.6c0.1-0.2,0.2-0.5,0.2-0.8h2.2c0,0.6-0.1,1.1-0.3,1.6c-0.2,0.5-0.5,0.8-0.9,1.1c-0.4,0.3-0.8,0.5-1.3,0.7
		C234.6,13.3,234,13.4,233.4,13.4z M231.2,7.4h4.2c0-0.4,0-0.7-0.1-1c-0.1-0.3-0.2-0.5-0.4-0.7c-0.2-0.2-0.4-0.3-0.6-0.4
		c-0.2-0.1-0.5-0.1-0.8-0.1c-0.5,0-0.9,0.1-1.2,0.2c-0.3,0.2-0.6,0.4-0.7,0.7C231.3,6.4,231.2,6.9,231.2,7.4z"/>
	<path class="st0" d="M239.6,13.2V3.6h1.9l0.2,1.5h0.1c0.1-0.3,0.3-0.6,0.4-0.8c0.2-0.3,0.4-0.5,0.7-0.6c0.3-0.2,0.6-0.2,1-0.2
		c0.2,0,0.4,0,0.5,0.1s0.3,0.1,0.4,0.1v2.1h-0.7c-0.4,0-0.7,0.1-1,0.2c-0.3,0.1-0.5,0.3-0.7,0.5c-0.2,0.2-0.3,0.5-0.4,0.8
		c-0.1,0.3-0.1,0.7-0.1,1.1v4.9H239.6z"/>
	<path class="st0" d="M246.2,13.2V0h2.2v4.7h0.1c0.2-0.3,0.5-0.5,0.7-0.7c0.3-0.2,0.6-0.3,1-0.5c0.4-0.1,0.8-0.2,1.2-0.2
		c0.6,0,1.1,0.1,1.6,0.3c0.5,0.2,0.8,0.6,1.1,1.1c0.3,0.5,0.4,1.1,0.4,2v6.5h-2.2V7.1c0-0.3,0-0.6-0.1-0.8c-0.1-0.2-0.2-0.4-0.3-0.5
		c-0.2-0.1-0.3-0.2-0.6-0.3c-0.2-0.1-0.5-0.1-0.7-0.1c-0.4,0-0.8,0.1-1.1,0.3c-0.3,0.2-0.6,0.5-0.8,0.8c-0.2,0.3-0.3,0.7-0.3,1.2
		v5.6H246.2z"/>
	<path class="st0" d="M259.9,13.4c-0.9,0-1.7-0.3-2.3-0.8c-0.6-0.5-0.9-1.4-0.9-2.6V3.6h2.2v6.1c0,0.3,0,0.6,0.1,0.8
		c0.1,0.2,0.2,0.4,0.3,0.5c0.2,0.1,0.3,0.2,0.6,0.3c0.2,0.1,0.5,0.1,0.7,0.1c0.4,0,0.8-0.1,1.1-0.3c0.3-0.2,0.6-0.5,0.8-0.8
		s0.3-0.7,0.3-1.2V3.6h2.2v9.6h-1.8l-0.2-1.3h-0.1c-0.2,0.3-0.5,0.6-0.8,0.8c-0.3,0.2-0.6,0.4-1,0.5S260.3,13.4,259.9,13.4z"/>
	<path class="st0" d="M267.5,2.1V0h2.2v2.1H267.5z M267.5,13.2V3.6h2.2v9.6H267.5z"/>
	<path class="st0" d="M275.8,13.4c-0.7,0-1.3-0.1-1.8-0.2c-0.5-0.2-1-0.4-1.3-0.6c-0.4-0.3-0.6-0.6-0.8-0.9
		c-0.2-0.4-0.3-0.8-0.3-1.2c0-0.1,0-0.1,0-0.2c0,0,0-0.1,0-0.1h2.2c0,0,0,0,0,0.1c0,0,0,0,0,0.1c0,0.3,0.1,0.6,0.3,0.8
		c0.2,0.2,0.4,0.3,0.8,0.4c0.3,0.1,0.7,0.1,1,0.1c0.3,0,0.6,0,0.9-0.1c0.3-0.1,0.5-0.2,0.7-0.3c0.2-0.2,0.3-0.3,0.3-0.6
		c0-0.3-0.1-0.6-0.4-0.7c-0.2-0.2-0.6-0.3-1-0.4c-0.4-0.1-0.8-0.2-1.3-0.3c-0.4-0.1-0.8-0.2-1.2-0.4c-0.4-0.1-0.8-0.3-1.1-0.5
		c-0.3-0.2-0.6-0.5-0.8-0.8c-0.2-0.3-0.3-0.7-0.3-1.2c0-0.5,0.1-0.9,0.3-1.2c0.2-0.4,0.5-0.6,0.9-0.9c0.4-0.2,0.8-0.4,1.3-0.5
		c0.5-0.1,1-0.2,1.6-0.2c0.6,0,1.1,0.1,1.6,0.2c0.5,0.1,0.9,0.3,1.2,0.5s0.6,0.5,0.8,0.8c0.2,0.3,0.3,0.7,0.3,1.1c0,0.1,0,0.2,0,0.3
		c0,0.1,0,0.1,0,0.1h-2.2V6.3c0-0.2-0.1-0.4-0.2-0.6c-0.1-0.2-0.3-0.3-0.6-0.4c-0.3-0.1-0.6-0.1-1-0.1c-0.3,0-0.5,0-0.8,0.1
		c-0.2,0-0.4,0.1-0.5,0.2c-0.1,0.1-0.2,0.2-0.3,0.3c-0.1,0.1-0.1,0.2-0.1,0.4c0,0.2,0.1,0.4,0.3,0.5c0.2,0.1,0.4,0.2,0.7,0.3
		s0.6,0.2,1,0.3c0.4,0.1,0.9,0.2,1.4,0.4c0.5,0.1,0.9,0.3,1.3,0.5c0.4,0.2,0.7,0.5,1,0.8c0.2,0.4,0.4,0.8,0.4,1.4
		c0,0.6-0.1,1-0.3,1.4c-0.2,0.4-0.5,0.7-0.9,0.9c-0.4,0.2-0.8,0.4-1.4,0.5C277,13.4,276.4,13.4,275.8,13.4z"/>
	<path class="st0" d="M291.5,13.4c-1.9,0-3.4-0.5-4.5-1.6c-1.1-1-1.6-2.7-1.6-4.9c0-1.5,0.3-2.7,0.8-3.6c0.5-1,1.2-1.7,2.2-2.1
		c1-0.5,2.1-0.7,3.4-0.7c0.8,0,1.6,0.1,2.3,0.3c0.7,0.2,1.3,0.5,1.9,0.8c0.5,0.4,1,0.8,1.3,1.4c0.3,0.6,0.5,1.2,0.5,2h-2.4
		c0-0.4-0.1-0.8-0.3-1.1c-0.2-0.3-0.4-0.6-0.7-0.8c-0.3-0.2-0.7-0.4-1.1-0.5c-0.4-0.1-0.8-0.2-1.3-0.2c-0.7,0-1.3,0.1-1.8,0.3
		c-0.5,0.2-0.9,0.4-1.3,0.8s-0.6,0.8-0.7,1.3c-0.2,0.5-0.2,1.2-0.2,1.9v0.4c0,1,0.1,1.8,0.4,2.4c0.3,0.6,0.7,1.1,1.3,1.4
		c0.6,0.3,1.3,0.4,2.1,0.4c0.7,0,1.3-0.1,1.9-0.3s1-0.5,1.3-1c0.3-0.4,0.5-0.9,0.5-1.5V8.4h-4v-2h6.4v6.7h-1.7l-0.2-1.4
		c-0.4,0.4-0.8,0.7-1.2,0.9c-0.4,0.2-0.9,0.4-1.4,0.5C292.7,13.4,292.1,13.4,291.5,13.4z"/>
	<path class="st0" d="M304.2,13.4c-1,0-1.9-0.2-2.6-0.5c-0.7-0.4-1.2-0.9-1.5-1.7c-0.3-0.7-0.5-1.7-0.5-2.8c0-1.2,0.2-2.1,0.5-2.8
		c0.3-0.7,0.9-1.3,1.5-1.6c0.7-0.4,1.5-0.5,2.6-0.5c0.9,0,1.7,0.2,2.3,0.5c0.6,0.3,1.1,0.9,1.4,1.6c0.3,0.7,0.5,1.6,0.5,2.8v0.7
		h-6.5c0,0.6,0.1,1.1,0.3,1.5c0.2,0.4,0.4,0.7,0.7,0.9c0.3,0.2,0.8,0.3,1.3,0.3c0.3,0,0.5,0,0.8-0.1s0.5-0.2,0.6-0.3
		c0.2-0.2,0.3-0.3,0.4-0.6c0.1-0.2,0.2-0.5,0.2-0.8h2.2c0,0.6-0.1,1.1-0.3,1.6c-0.2,0.5-0.5,0.8-0.9,1.1s-0.8,0.5-1.3,0.7
		S304.8,13.4,304.2,13.4z M301.9,7.4h4.2c0-0.4,0-0.7-0.1-1c-0.1-0.3-0.2-0.5-0.4-0.7c-0.2-0.2-0.4-0.3-0.6-0.4
		c-0.2-0.1-0.5-0.1-0.8-0.1c-0.5,0-0.9,0.1-1.2,0.2c-0.3,0.2-0.6,0.4-0.7,0.7C302.1,6.4,302,6.9,301.9,7.4z"/>
	<path class="st0" d="M310.3,13.2V3.6h1.9l0.2,1.3h0.1c0.2-0.3,0.5-0.6,0.8-0.8c0.3-0.2,0.6-0.4,1-0.5c0.4-0.1,0.8-0.2,1.3-0.2
		c0.6,0,1.1,0.1,1.6,0.3c0.5,0.2,0.8,0.6,1.1,1.1c0.3,0.5,0.4,1.1,0.4,2v6.5h-2.2V7.1c0-0.3,0-0.6-0.1-0.8c-0.1-0.2-0.2-0.4-0.3-0.5
		c-0.2-0.1-0.3-0.2-0.6-0.3c-0.2-0.1-0.5-0.1-0.7-0.1c-0.4,0-0.8,0.1-1.1,0.3c-0.3,0.2-0.6,0.5-0.8,0.8c-0.2,0.3-0.3,0.7-0.3,1.2
		v5.6H310.3z"/>
	<path class="st0" d="M323.5,13.4c-0.6,0-1.1-0.1-1.4-0.4c-0.3-0.2-0.6-0.5-0.7-0.9c-0.1-0.4-0.2-0.8-0.2-1.1V5.4H320V3.6h1.2
		l0.4-2.7h1.8v2.7h1.7v1.8h-1.7v5.4c0,0.3,0.1,0.5,0.2,0.6s0.3,0.2,0.6,0.2h0.9v1.5c-0.1,0-0.3,0.1-0.4,0.1c-0.2,0-0.4,0.1-0.6,0.1
		C323.9,13.4,323.7,13.4,323.5,13.4z"/>
</g>
</svg>
