<?xml version="1.0" encoding="utf-8"?>
<!-- Generator: Adobe Illustrator 22.1.0, SVG Export Plug-In . SVG Version: 6.00 Build 0)  -->
<svg version="1.1" id="Laag_1" xmlns="http://www.w3.org/2000/svg" xmlns:xlink="http://www.w3.org/1999/xlink" x="0px" y="0px"
	 width="92px" height="27.2px" viewBox="0 0 92 27.2" style="enable-background:new 0 0 92 27.2;" xml:space="preserve">
<style type="text/css">
	.st0{fill:#E4E9DD;}
	.st1{fill:#EAEDE1;}
</style>
<g>
	<g>
		<path class="st0" d="M8.6,10.9h2.4v12.5H8.6v-5.3h-5v5.3H1.2V10.9h2.4V16h5V10.9z"/>
		<path class="st0" d="M19.2,20.6h2.2c-0.2,0.9-0.7,1.7-1.5,2.2c-0.8,0.5-1.7,0.8-2.7,0.8c-1.4,0-2.5-0.4-3.3-1.3
			c-0.8-0.9-1.3-2-1.3-3.4c0-1.4,0.4-2.5,1.3-3.3c0.8-0.9,1.9-1.3,3.1-1.3c0.6,0,1.2,0.1,1.7,0.3c0.5,0.2,1,0.5,1.4,0.9
			c0.4,0.4,0.7,1,0.9,1.7c0.2,0.7,0.3,1.5,0.2,2.4h-6.5c0.2,1.4,1,2.1,2.4,2.1c0.4,0,0.8-0.1,1.2-0.3S19.1,20.9,19.2,20.6z
			 M17.2,16.1c-0.6,0-1,0.2-1.4,0.5c-0.4,0.3-0.6,0.7-0.8,1.3h4.3c0-0.5-0.2-0.9-0.6-1.2C18.3,16.3,17.8,16.1,17.2,16.1z"/>
		<path class="st0" d="M24.2,13.4c-0.4,0-0.8-0.1-1-0.4c-0.3-0.3-0.4-0.6-0.4-1c0-0.4,0.1-0.8,0.4-1c0.3-0.3,0.6-0.4,1-0.4
			c0.4,0,0.7,0.1,1,0.4c0.3,0.3,0.4,0.6,0.4,1c0,0.4-0.1,0.7-0.4,1C24.9,13.3,24.6,13.4,24.2,13.4z M25.4,14.5v8.9H23v-8.9H25.4z"/>
		<path class="st0" d="M34.2,20.9c0,0.8-0.3,1.5-1,2c-0.7,0.5-1.5,0.7-2.6,0.7c-1.1,0-2.1-0.3-2.8-0.9c-0.7-0.6-1.1-1.4-1.1-2.3h2.3
			c0,0.5,0.2,0.8,0.5,1.1c0.3,0.2,0.7,0.3,1.1,0.3c0.3,0,0.6-0.1,0.9-0.2c0.2-0.1,0.3-0.4,0.3-0.6c0-0.3-0.1-0.6-0.4-0.7
			c-0.3-0.2-0.7-0.4-1.3-0.5c-0.4-0.1-0.8-0.2-1.1-0.3c-0.3-0.1-0.6-0.3-0.9-0.5c-0.3-0.2-0.6-0.5-0.8-0.8c-0.2-0.3-0.3-0.7-0.3-1.1
			c0-0.8,0.3-1.5,1-2c0.6-0.5,1.5-0.7,2.5-0.7c1,0,1.8,0.3,2.5,0.8c0.6,0.5,1,1.2,1,2h-2.2c0-0.3-0.2-0.6-0.4-0.8
			c-0.3-0.2-0.6-0.3-1-0.3c-0.3,0-0.5,0.1-0.7,0.2c-0.2,0.1-0.3,0.3-0.3,0.6c0,0.3,0.1,0.5,0.4,0.6c0.3,0.2,0.7,0.3,1.4,0.5
			c1,0.3,1.7,0.6,2.3,1.1C34,19.6,34.2,20.2,34.2,20.9z"/>
		<path class="st0" d="M41.9,20.6h2.2c-0.2,0.9-0.7,1.7-1.5,2.2s-1.7,0.8-2.7,0.8c-1.4,0-2.5-0.4-3.3-1.3c-0.8-0.9-1.3-2-1.3-3.4
			c0-1.4,0.4-2.5,1.3-3.3c0.8-0.9,1.9-1.3,3.1-1.3c0.6,0,1.2,0.1,1.7,0.3c0.5,0.2,1,0.5,1.4,0.9c0.4,0.4,0.7,1,0.9,1.7
			c0.2,0.7,0.3,1.5,0.2,2.4h-6.5c0.2,1.4,1,2.1,2.4,2.1c0.4,0,0.8-0.1,1.2-0.3C41.5,21.2,41.8,20.9,41.9,20.6z M39.9,16.1
			c-0.6,0-1,0.2-1.4,0.5c-0.4,0.3-0.6,0.7-0.8,1.3h4.3c0-0.5-0.2-0.9-0.6-1.2C41,16.3,40.5,16.1,39.9,16.1z"/>
		<path class="st0" d="M50.8,14.3c1,0,1.9,0.4,2.5,1.1c0.6,0.7,1,1.7,1,3v5.1h-2.4v-4.7c0-0.8-0.2-1.3-0.5-1.7
			c-0.4-0.4-0.8-0.6-1.4-0.6c-0.5,0-1,0.2-1.3,0.6c-0.4,0.4-0.5,0.9-0.5,1.7v4.7h-2.4v-8.9h1.9l0.3,1.1H48c0.2-0.2,0.4-0.4,0.5-0.6
			c0.2-0.1,0.4-0.3,0.8-0.5C49.8,14.4,50.3,14.3,50.8,14.3z"/>
		<path class="st0" d="M60.9,14.3c1.2,0,2.2,0.4,3,1.3c0.8,0.9,1.2,2,1.2,3.4c0,1.4-0.4,2.5-1.2,3.3c-0.8,0.8-1.8,1.3-2.9,1.3
			c-1.1,0-1.9-0.4-2.5-1.2h-0.2l-0.3,1h-1.8V10.7h2.3v4.7C59,14.6,59.8,14.3,60.9,14.3z M59,20.8c0.4,0.5,0.9,0.7,1.6,0.7
			s1.2-0.2,1.6-0.7c0.4-0.5,0.6-1.1,0.6-1.9c0-0.8-0.2-1.4-0.6-1.8c-0.4-0.5-0.9-0.7-1.6-0.7s-1.2,0.2-1.6,0.7
			c-0.4,0.5-0.6,1.1-0.6,1.8C58.5,19.7,58.6,20.3,59,20.8z"/>
		<path class="st0" d="M72.8,20.6H75c-0.2,0.9-0.7,1.7-1.5,2.2c-0.8,0.5-1.7,0.8-2.7,0.8c-1.4,0-2.5-0.4-3.3-1.3
			c-0.8-0.9-1.3-2-1.3-3.4c0-1.4,0.4-2.5,1.3-3.3c0.8-0.9,1.9-1.3,3.1-1.3c0.6,0,1.2,0.1,1.7,0.3c0.5,0.2,1,0.5,1.4,0.9
			s0.7,1,0.9,1.7c0.2,0.7,0.3,1.5,0.2,2.4h-6.5c0.2,1.4,1,2.1,2.4,2.1c0.4,0,0.8-0.1,1.2-0.3C72.4,21.2,72.6,20.9,72.8,20.6z
			 M70.7,16.1c-0.6,0-1,0.2-1.4,0.5c-0.4,0.3-0.6,0.7-0.8,1.3h4.3c0-0.5-0.2-0.9-0.6-1.2C71.8,16.3,71.3,16.1,70.7,16.1z"/>
		<path class="st0" d="M81.6,14.3h0.6v2.3c-0.3-0.1-0.6-0.1-0.9-0.1c-0.7,0-1.3,0.2-1.8,0.7c-0.5,0.5-0.7,1.2-0.7,2.2v3.9h-2.4v-8.9
			h1.9l0.3,1.2h0.2C79.5,14.8,80.5,14.3,81.6,14.3z"/>
		<path class="st0" d="M92,15c-0.3,0.3-0.7,0.6-1.4,0.9c0.3,0.5,0.4,1,0.4,1.6c0,0.9-0.4,1.6-1.1,2.1s-1.6,0.8-2.7,0.8
			c-0.4,0-0.8,0-1.2-0.1c-0.4,0.1-0.6,0.3-0.6,0.6c0,0.4,0.4,0.6,1.3,0.6h1.4c1.1,0,1.9,0.2,2.5,0.7c0.6,0.5,0.8,1.1,0.8,2
			c0,0.9-0.4,1.7-1.1,2.2c-0.7,0.6-1.8,0.8-3,0.8c-1.3,0-2.4-0.3-3.1-0.9c-0.7-0.6-1.1-1.4-1.1-2.2l1.3-1.1c-0.7-0.3-1-0.8-1-1.5
			c0-0.8,0.4-1.4,1.3-1.8c-0.8-0.6-1.2-1.3-1.2-2.3c0-0.9,0.3-1.6,1-2.2c0.7-0.6,1.5-0.9,2.6-0.9c0.9,0,1.6,0.2,2.3,0.6
			c0.5-0.3,0.9-0.7,1.4-1.2L92,15z M89.3,24.3c0-0.7-0.5-1-1.5-1h-1.3l-1.1,0.9c0.2,0.9,0.9,1.3,2.1,1.3c0.5,0,1-0.1,1.3-0.3
			C89.1,24.9,89.3,24.6,89.3,24.3z M86.2,18.3c0.3,0.3,0.6,0.4,1.1,0.4c0.5,0,0.8-0.1,1.1-0.4c0.3-0.3,0.4-0.6,0.4-1
			c0-0.4-0.1-0.7-0.4-1c-0.3-0.3-0.6-0.4-1.1-0.4c-0.5,0-0.8,0.1-1.1,0.4c-0.3,0.3-0.4,0.6-0.4,1C85.8,17.7,86,18.1,86.2,18.3z"/>
	</g>
</g>
<g>
	<path class="st1" d="M3.9,5.2c0,0.4-0.1,0.7-0.4,1C3.1,6.3,2.7,6.5,2.3,6.5C1.7,6.5,1.3,6.3,1,6C0.7,5.7,0.5,5.4,0.5,4.9h0.7
		c0,0.3,0.1,0.5,0.3,0.7c0.2,0.2,0.5,0.3,0.8,0.3c0.3,0,0.5-0.1,0.7-0.2c0.2-0.1,0.3-0.3,0.3-0.5c0-0.2-0.1-0.4-0.2-0.6
		C2.8,4.5,2.5,4.3,2.1,4.2C1.6,4,1.3,3.8,1,3.6C0.8,3.4,0.6,3.2,0.6,2.8c0-0.4,0.1-0.7,0.4-1s0.7-0.4,1.1-0.4c0.5,0,0.9,0.1,1.2,0.4
		c0.3,0.3,0.4,0.6,0.4,1H3.2c0-0.2-0.1-0.4-0.3-0.6C2.7,2.1,2.5,2,2.2,2C1.9,2,1.7,2.1,1.5,2.2C1.4,2.4,1.3,2.5,1.3,2.8
		c0,0.2,0.1,0.4,0.2,0.5S2,3.5,2.4,3.6C2.9,3.8,3.3,4,3.5,4.3C3.8,4.5,3.9,4.8,3.9,5.2z"/>
	<path class="st1" d="M5.5,1.5v4.9H4.9V1.5H5.5z"/>
	<path class="st1" d="M11.6,1.5v4.9H11V2.5h-0.1L9.5,6H8.8L7.4,2.5H7.3v3.9H6.7V1.5h0.9l1.5,3.7h0.1l1.5-3.7H11.6z"/>
	<path class="st1" d="M15,6.5c-0.7,0-1.3-0.2-1.7-0.7c-0.5-0.5-0.7-1.1-0.7-1.8c0-0.7,0.2-1.3,0.7-1.8c0.5-0.5,1-0.7,1.7-0.7
		s1.3,0.2,1.7,0.7c0.5,0.5,0.7,1.1,0.7,1.8c0,0.7-0.2,1.3-0.7,1.8C16.2,6.2,15.7,6.5,15,6.5z M15,5.8c0.5,0,0.9-0.2,1.2-0.5
		c0.3-0.4,0.5-0.8,0.5-1.3s-0.2-1-0.5-1.3c-0.3-0.4-0.7-0.5-1.2-0.5c-0.5,0-0.9,0.2-1.2,0.5C13.4,3,13.2,3.4,13.2,4s0.2,1,0.5,1.3
		C14.1,5.7,14.5,5.8,15,5.8z"/>
	<path class="st1" d="M21.7,1.5h0.6v4.9h-0.7L19,2.6H19v3.8h-0.6V1.5h0.7l2.5,3.8h0.1V1.5z"/>
	<path class="st1" d="M28.4,5.2c0,0.4-0.1,0.7-0.4,1c-0.3,0.2-0.7,0.3-1.2,0.3c-0.6,0-1-0.1-1.3-0.4c-0.3-0.3-0.5-0.7-0.5-1.1h0.7
		c0,0.3,0.1,0.5,0.3,0.7c0.2,0.2,0.5,0.3,0.8,0.3c0.3,0,0.5-0.1,0.7-0.2c0.2-0.1,0.3-0.3,0.3-0.5c0-0.2-0.1-0.4-0.2-0.6
		c-0.2-0.2-0.5-0.3-0.9-0.4c-0.5-0.2-0.8-0.3-1.1-0.5c-0.3-0.2-0.4-0.5-0.4-0.8c0-0.4,0.1-0.7,0.4-1s0.7-0.4,1.1-0.4
		c0.5,0,0.9,0.1,1.2,0.4c0.3,0.3,0.4,0.6,0.4,1h-0.6c0-0.2-0.1-0.4-0.3-0.6C27.3,2.1,27,2,26.7,2c-0.3,0-0.5,0.1-0.6,0.2
		c-0.2,0.1-0.2,0.3-0.2,0.5c0,0.2,0.1,0.4,0.2,0.5s0.4,0.3,0.8,0.4c0.5,0.2,0.9,0.4,1.1,0.6C28.3,4.5,28.4,4.8,28.4,5.2z"/>
	<path class="st1" d="M32.4,1.5v0.6H31v4.3h-0.6V2.1H29V1.5H32.4z"/>
	<path class="st1" d="M33.8,5.8h2.5v0.6h-3.1V1.5h3.1v0.6h-2.4v1.5H36v0.6h-2.2V5.8z"/>
	<path class="st1" d="M38.9,1.5c0.5,0,0.9,0.1,1.1,0.4c0.3,0.3,0.4,0.6,0.4,1.1c0,0.5-0.1,0.8-0.4,1.1c-0.3,0.3-0.7,0.4-1.2,0.4
		h-1.1v1.9h-0.6V1.5H38.9z M38.8,3.9c0.3,0,0.6-0.1,0.8-0.2c0.2-0.2,0.3-0.4,0.3-0.7c0-0.3-0.1-0.5-0.3-0.7
		c-0.2-0.2-0.4-0.2-0.7-0.2h-1.1v1.8H38.8z"/>
	<path class="st1" d="M44.2,1.5h0.6v4.9h-0.6V4.2h-2.4v2.2h-0.6V1.5h0.6v2.1h2.4V1.5z"/>
	<path class="st1" d="M46.6,5.8h2.5v0.6H46V1.5h3.1v0.6h-2.4v1.5h2.2v0.6h-2.2V5.8z"/>
	<path class="st1" d="M53.2,1.5h0.6v4.9h-0.7l-2.5-3.8h-0.1v3.8h-0.6V1.5h0.7l2.5,3.8h0.1V1.5z"/>
	<path class="st1" d="M58.2,5.2c0,0.4-0.1,0.7-0.4,1c-0.3,0.2-0.7,0.3-1.2,0.3c-0.6,0-1-0.1-1.3-0.4s-0.5-0.7-0.5-1.1h0.7
		c0,0.3,0.1,0.5,0.3,0.7c0.2,0.2,0.5,0.3,0.8,0.3c0.3,0,0.5-0.1,0.7-0.2c0.2-0.1,0.3-0.3,0.3-0.5c0-0.2-0.1-0.4-0.2-0.6
		c-0.2-0.2-0.5-0.3-0.9-0.4C56,4,55.6,3.8,55.3,3.6C55.1,3.4,55,3.2,55,2.8c0-0.4,0.1-0.7,0.4-1c0.3-0.2,0.7-0.4,1.1-0.4
		c0.5,0,0.9,0.1,1.2,0.4c0.3,0.3,0.4,0.6,0.4,1h-0.6c0-0.2-0.1-0.4-0.3-0.6C57.1,2.1,56.8,2,56.5,2c-0.3,0-0.5,0.1-0.6,0.2
		c-0.2,0.1-0.2,0.3-0.2,0.5c0,0.2,0.1,0.4,0.3,0.5c0.2,0.1,0.4,0.3,0.8,0.4c0.5,0.2,0.9,0.4,1.1,0.6C58.1,4.5,58.2,4.8,58.2,5.2z"/>
	<path class="st1" d="M59.3,1.3c0.1,0,0.2,0,0.3,0.1c0.1,0.1,0.1,0.2,0.1,0.4c0,0.2-0.1,0.4-0.2,0.6S59.2,2.8,59,2.8l-0.1-0.2
		c0.2-0.2,0.4-0.4,0.4-0.6c-0.1,0-0.2,0-0.3-0.1c-0.1-0.1-0.1-0.2-0.1-0.3s0-0.2,0.1-0.3C59.1,1.3,59.2,1.3,59.3,1.3z"/>
</g>
</svg>
