<?xml version="1.0" encoding="utf-8"?>
<!-- Generator: Adobe Illustrator 23.0.2, SVG Export Plug-In . SVG Version: 6.00 Build 0)  -->
<svg version="1.1" id="Laag_1" xmlns="http://www.w3.org/2000/svg" xmlns:xlink="http://www.w3.org/1999/xlink" x="0px" y="0px"
	 width="274.6px" height="102.8px" viewBox="0 0 274.6 102.8" style="enable-background:new 0 0 274.6 102.8;" xml:space="preserve"
	>
<g>
	<path d="M7.1,17.8c-1.1,0-1.9-0.2-2.8-0.4c-0.7-0.2-1.4-0.5-1.9-1.1c-0.7-0.4-1.1-0.9-1.4-1.6c-0.4-0.5-0.5-1.2-0.5-2.1h3.7
		c0,0.7,0.4,1.2,0.9,1.6c0.5,0.4,1.2,0.5,2.1,0.5c0.4,0,0.5,0,0.9,0c0.4-0.2,0.5-0.2,0.7-0.4s0.4-0.4,0.5-0.5
		c0.2-0.2,0.2-0.5,0.2-0.7c0-0.4,0-0.5-0.2-0.7c-0.3,0-0.5-0.2-0.7-0.4s-0.7-0.4-1.1-0.4s-0.9-0.2-1.4-0.4c-0.7-0.2-1.2-0.4-1.9-0.5
		S3,10.2,2.5,9.9S1.6,9.2,1.2,8.6S0.7,7.4,0.7,6.7c0-0.9,0.2-1.4,0.5-2.1C1.6,4,1.9,3.5,2.5,3.2s1.2-0.7,1.9-0.9S6,1.9,6.7,1.9
		c0.9,0,1.6,0.2,2.3,0.4s1.4,0.5,1.9,0.9C11.5,3.5,12,4,12.2,4.6c0.4,0.5,0.5,1.2,0.5,2.1H9.2c0-0.5-0.4-1.1-0.7-1.4
		C8.1,4.9,7.4,4.8,6.7,4.8S5.5,4.9,5.1,5.1S4.4,5.8,4.4,6.3c0,0.4,0,0.5,0.2,0.7s0.5,0.2,0.7,0.4C5.6,7.6,6,7.6,6.4,7.8
		C6.8,8,7.3,8,7.8,8.2c0.7,0.2,1.4,0.4,1.9,0.5c0.7,0.2,1.2,0.5,1.8,0.9c0.5,0.4,0.9,0.9,1.2,1.4c0.4,0.5,0.5,1.1,0.5,1.9
		c0,0.7-0.2,1.4-0.5,2.1c-0.2,0.5-0.7,1.1-1.2,1.6c-0.5,0.4-1.2,0.7-1.9,0.9S7.9,17.8,7.1,17.8z"/>
	<path d="M18.7,17.7c-0.5,0-0.9,0-1.4-0.2c-0.4-0.2-0.7-0.4-1.1-0.5c-0.4-0.2-0.5-0.5-0.7-0.9c-0.2-0.4-0.4-0.9-0.4-1.4V8.8h-1.4
		V6.5h1.4V3.2h3.4v3.4h1.9v2.1h-1.9v5.1c0,0.4,0.2,0.7,0.4,0.9c0.2,0.2,0.5,0.2,0.9,0.2c0.2,0,0.4,0,0.5,0c0.2,0,0.2,0,0.4,0v2.5
		c-0.2,0-0.4,0-0.7,0.2C19.6,17.5,19.1,17.7,18.7,17.7z"/>
	<path d="M27,17.8c-0.9,0-1.8-0.2-2.5-0.4c-0.7-0.4-1.4-0.7-1.8-1.2c-0.5-0.5-0.9-1.1-1.1-1.8c-0.4-0.9-0.5-1.6-0.5-2.5
		s0.2-1.6,0.4-2.3c0.2-0.7,0.7-1.2,1.1-1.8c0.5-0.5,1.1-0.9,1.8-1.2c0.7-0.4,1.4-0.4,2.3-0.4c0.7,0,1.4,0.2,2.1,0.4
		c0.7,0.2,1.2,0.5,1.8,0.9c0.7,0.6,1,1.5,1.4,2.4c0.4,0.9,0.5,1.9,0.5,3h-7.8c0.2,0.7,0.4,1.2,0.7,1.8c0.4,0.4,0.9,0.7,1.6,0.7
		c0.5,0,0.9-0.2,1.1-0.4c0.4-0.2,0.5-0.5,0.7-0.7h3.4c-0.2,0.5-0.4,0.9-0.7,1.4c-0.4,0.5-0.7,0.9-1.2,1.2c-0.5,0.4-0.9,0.5-1.6,0.7
		C28.3,17.7,27.7,17.8,27,17.8z M29,10.8c0-0.7-0.4-1.2-0.7-1.6c-0.4-0.4-0.9-0.5-1.4-0.5c-0.7,0-1.2,0.2-1.6,0.5
		c-0.2,0.5-0.5,1.1-0.5,1.6H29z"/>
	<path d="M33.6,6.5H37v1.6l0,0c0.4-0.5,0.7-1.1,1.2-1.4s1.2-0.5,1.9-0.5s1.4,0.2,1.9,0.5s0.9,0.9,1.2,1.4l0,0
		c0.4-0.7,0.9-1.1,1.4-1.4c0.5-0.4,1.2-0.5,1.9-0.5c0.5,0,1.1,0.2,1.6,0.4c0.5,0.2,0.9,0.5,1.2,0.9c0.4,0.4,0.5,0.9,0.7,1.2
		c0.2,0.4,0.2,1.1,0.2,1.6v7.1h-3.5V11c0-0.5-0.2-1.1-0.4-1.4c0-0.2-0.5-0.4-1.1-0.4S44.1,9.4,44,9.7c-0.4,0.4-0.5,0.9-0.5,1.6v6H40
		v-6.4c0-0.5-0.2-1.1-0.4-1.4S39.1,9,38.5,9s-0.9,0.2-1.2,0.5c0,0.7-0.2,1.2-0.2,1.8v6h-3.5V6.5z"/>
	<path d="M54.5,6.5H58l1.4,5c0,0.4,0.2,0.5,0.2,0.9c0,0.2,0.2,0.5,0.2,0.7s0.2,0.5,0.2,0.7l0,0c0-0.2,0.2-0.4,0.2-0.7
		c0-0.2,0.2-0.4,0.2-0.7c0-0.2,0.2-0.5,0.2-0.9l1.6-5h3.5l-3.7,11h-3.7L54.5,6.5z"/>
	<path d="M71.4,17.8c-0.9,0-1.6-0.2-2.5-0.4c-0.7-0.4-1.4-0.7-1.8-1.2c-0.5-0.5-0.9-1.1-1.2-1.8c-0.4-0.7-0.4-1.4-0.4-2.3
		s0.2-1.6,0.4-2.3c0.4-0.7,0.7-1.2,1.2-1.8c0.5-0.5,1.1-0.9,1.8-1.2c0.7-0.4,1.6-0.4,2.5-0.4s1.6,0.2,2.5,0.4
		c0.7,0.4,1.2,0.7,1.8,1.2c0.5,0.5,0.9,1.1,1.2,1.8c0.4,0.7,0.4,1.4,0.4,2.3s-0.2,1.6-0.4,2.3c-0.4,0.7-0.7,1.2-1.2,1.8
		c-0.5,0.5-1.1,0.9-1.8,1.2C73,17.7,72.3,17.8,71.4,17.8z M71.4,15.4c0.7,0,1.4-0.4,1.8-0.9s0.5-1.4,0.5-2.5s-0.2-1.8-0.5-2.5
		c-0.4-0.5-0.9-0.9-1.8-0.9c-0.7,0-1.4,0.4-1.8,0.9s-0.5,1.4-0.5,2.5s0.2,1.8,0.5,2.5C70,15,70.5,15.4,71.4,15.4z"/>
	<path d="M83.6,17.8c-0.9,0-1.6-0.2-2.5-0.4c-0.7-0.4-1.4-0.7-1.8-1.2c-0.5-0.5-0.9-1.1-1.2-1.8c-0.2-0.9-0.4-1.6-0.4-2.5
		s0.2-1.6,0.4-2.3c0.4-0.7,0.7-1.2,1.2-1.8s1.1-0.9,1.8-1.2s1.6-0.4,2.5-0.4s1.6,0.2,2.5,0.4c0.7,0.4,1.2,0.7,1.8,1.2
		c0.5,0.5,0.9,1.1,1.2,1.8c0.4,0.7,0.4,1.4,0.4,2.3c0,0.9-0.2,1.6-0.4,2.3c-0.4,0.7-0.7,1.2-1.2,1.8c-0.5,0.5-1.1,0.9-1.8,1.2
		C85.4,17.7,84.5,17.8,83.6,17.8z M83.6,15.4c0.7,0,1.4-0.4,1.8-0.9s0.5-1.4,0.5-2.5s-0.2-1.8-0.5-2.5C85,9,84.5,8.6,83.6,8.6
		c-0.7,0-1.4,0.4-1.8,0.9c-0.4,0.7-0.5,1.6-0.5,2.5s0.2,1.8,0.5,2.5C82.2,15,82.9,15.4,83.6,15.4z"/>
	<path d="M90.7,6.5h3.4v1.8l0,0c0.4-0.7,0.9-1.1,1.2-1.4c0.5-0.4,1.1-0.5,1.8-0.5c0.4,0,0.5,0,0.7,0v3l0,0c-1.1-0.2-1.9,0-2.5,0.5
		s-0.9,1.4-0.9,2.5v5h-3.5V6.5H90.7z"/>
	<path d="M0.9,27.7h3.5v5.7l0,0c0.4-0.5,0.9-0.9,1.4-1.2c0.5-0.4,1.1-0.4,1.9-0.4c0.5,0,1.1,0.2,1.6,0.4s0.9,0.5,1.2,0.9
		c0.4,0.4,0.5,0.7,0.7,1.2s0.2,1.1,0.2,1.6V43H7.9v-6.4c0-0.5-0.2-1.1-0.4-1.4c-0.4-0.4-0.7-0.5-1.2-0.5s-1.1,0.2-1.4,0.7
		c-0.4,0.4-0.5,1.1-0.5,1.6v6H0.9C0.9,43,0.9,27.7,0.9,27.7z"/>
	<path d="M18.2,43.3c-0.9,0-1.8-0.2-2.5-0.4c-0.7-0.4-1.4-0.7-1.8-1.2c-0.5-0.5-0.9-1.1-1.1-1.8c-0.4-0.9-0.5-1.6-0.5-2.5
		s0.2-1.6,0.4-2.3c0.4-0.7,0.7-1.2,1.1-1.8c0.5-0.5,1.1-0.9,1.8-1.2c0.7-0.4,1.4-0.4,2.3-0.4c0.7,0,1.4,0.2,2.1,0.4
		c0.5,0.2,1.2,0.5,1.6,1.1c0.7,0.5,1.1,1.4,1.4,2.3c0.4,0.9,0.5,1.9,0.5,3h-7.6c0.2,0.7,0.4,1.2,0.7,1.8c0.4,0.5,0.9,0.7,1.6,0.7
		c0.5,0,0.9-0.2,1.1-0.4c0.4-0.2,0.5-0.5,0.7-0.9h3.4c-0.2,0.5-0.4,0.9-0.7,1.4c-0.4,0.5-0.7,0.9-1.2,1.2s-0.9,0.5-1.6,0.7
		C19.1,43.3,18.9,43.3,18.2,43.3z M20.1,36.2c0-0.7-0.4-1.2-0.7-1.6c-0.4-0.4-0.9-0.5-1.4-0.5c-0.7,0-1.2,0.2-1.6,0.5
		c-0.2,0.5-0.5,1.1-0.5,1.6H20.1z"/>
	<path d="M28.8,43.1c-0.5,0-0.9,0-1.4-0.2c-0.4-0.2-0.7-0.2-1.1-0.5c-0.4-0.2-0.5-0.5-0.7-0.9s-0.2-0.9-0.2-1.4v-5.8H24v-2.1h1.4
		v-3.4h3.4v3.4h1.9v2.1h-1.9v5.1c0,0.4,0.2,0.7,0.4,0.9c0.2,0.2,0.5,0.2,0.9,0.2c0.2,0,0.4,0,0.5,0c0.2,0,0.2,0,0.4,0V43
		c-0.2,0-0.4,0-0.7,0.2C29.7,43,29.3,43.1,28.8,43.1z"/>
	<path d="M35.4,32h3.4v1.6l0,0c0.4-0.5,0.7-1.1,1.2-1.4c0.5-0.4,1.2-0.5,1.9-0.5s1.4,0.2,1.9,0.5s0.9,0.9,1.2,1.4l0,0
		c0.4-0.7,0.9-1.1,1.4-1.4c0.5-0.4,1.2-0.5,1.9-0.5c0.5,0,1.1,0.2,1.6,0.4s0.9,0.5,1.2,0.9c0.4,0.4,0.5,0.7,0.7,1.2s0.2,1.1,0.2,1.6
		v7.1h-3.5v-6.4c0-0.5-0.2-1.1-0.4-1.4c-0.2-0.4-0.7-0.5-1.2-0.5s-0.9,0-1.1,0.4c-0.4,0.4-0.5,0.9-0.5,1.6V43h-3.5v-6.4
		c0-0.5-0.2-1.1-0.4-1.4c-0.2-0.4-0.7-0.5-1.2-0.5s-0.9,0.2-1.2,0.5s-0.5,0.9-0.5,1.6V43H35V32H35.4z"/>
	<path d="M57.5,43.3c-1.2,0-2.1-0.4-2.8-1.1c-0.7-0.7-0.9-1.8-0.9-3v-7.1h3.4v6.4c0,0.5,0.2,1.1,0.4,1.4c0.2,0.4,0.7,0.5,1.2,0.5
		s1.1-0.2,1.4-0.5c0.4-0.4,0.5-0.9,0.5-1.6v-6h3.5V43h-3.4v-1.4l0,0c-0.4,0.5-0.9,0.9-1.4,1.2S58.3,43.3,57.5,43.3z"/>
	<path d="M70.4,43.3c-1.6,0-2.8-0.4-3.7-1.1c-0.9-0.7-1.4-1.6-1.4-2.8h3.2c0,0.5,0.4,0.9,0.5,1.2c0.4,0.4,0.9,0.4,1.4,0.4
		s0.9-0.2,1.2-0.4c0.4-0.2,0.5-0.5,0.5-0.9c0-0.2,0-0.4-0.2-0.5c-0.2-0.2-0.4-0.4-0.5-0.4c-0.2-0.2-0.5-0.2-0.9-0.2
		s-0.7-0.2-1.1-0.2c-0.5,0-0.9-0.2-1.4-0.4s-0.9-0.4-1.2-0.5c-0.4-0.2-0.7-0.5-0.9-0.9c-0.4-0.4-0.5-0.9-0.5-1.6
		c0-0.5,0.2-1.1,0.4-1.6c0.2-0.4,0.5-0.9,1.1-1.1c0.4-0.4,0.9-0.5,1.4-0.7s1.2-0.2,1.8-0.2c1.6,0,2.7,0.4,3.5,0.9
		c0.9,0.5,1.2,1.4,1.4,2.5h-3.2c0-0.5-0.2-0.9-0.5-1.1c-0.4-0.2-0.7-0.4-1.2-0.4c-0.4,0-0.7,0-1.1,0.2s-0.4,0.4-0.4,0.7
		c0,0.2,0,0.4,0.2,0.5c0.2,0.2,0.4,0.2,0.5,0.4c0.2,0,0.5,0.2,0.9,0.2s0.7,0.2,1.1,0.2c0.5,0,0.9,0.2,1.4,0.4s0.9,0.4,1.4,0.5
		c0.4,0.2,0.7,0.5,1.1,1.1c0.4,0.5,0.4,1.1,0.4,1.8c0,0.5-0.2,1.1-0.4,1.6c-0.2,0.5-0.5,0.9-1.1,1.1c-0.5,0.2-1.1,1-1.8,1
		C71.8,43.1,71.1,43.3,70.4,43.3z"/>
	<path d="M81.9,43.3c-0.9,0-1.8-0.2-2.5-0.4c-0.7-0.4-1.4-0.7-1.8-1.2c-0.5-0.5-0.9-1.1-1.1-1.8c-0.4-0.7-0.4-1.4-0.4-2.3
		s0.2-1.6,0.4-2.3c0.4-0.7,0.7-1.2,1.1-1.8c0.5-0.5,1.1-0.9,1.8-1.2c0.7-0.4,1.4-0.4,2.3-0.4c0.7,0,1.4,0.2,2.1,0.4
		c0.5,0.2,1.2,0.5,1.6,1.1c0.7,0.5,1.1,1.4,1.4,2.3s0.5,1.9,0.5,3h-7.8c0.2,0.7,0.4,1.2,0.7,1.8c0.4,0.5,0.9,0.7,1.6,0.7
		c0.5,0,0.9-0.2,1.1-0.4c0.4-0.2,0.5-0.5,0.7-0.9H87c-0.2,0.5-0.4,0.9-0.7,1.4s-0.7,0.9-1.2,1.2c-0.5,0.4-0.9,0.5-1.6,0.7
		C82.8,43.5,82.6,43.3,81.9,43.3z M83.8,36.2c0-0.7-0.4-1.2-0.7-1.6s-0.9-0.5-1.4-0.5c-0.7,0-1.2,0.2-1.6,0.5
		c-0.4,0.4-0.5,0.9-0.7,1.6H83.8z"/>
	<path d="M92.1,43.3c-1.2,0-2.1-0.4-2.8-1.1s-0.9-1.8-0.9-3v-7.1h3.4v6.4c0,0.5,0.2,1.1,0.4,1.4c0.2,0.4,0.7,0.5,1.2,0.5
		s1.1-0.2,1.4-0.5c0.4-0.4,0.5-0.9,0.5-1.6v-6h3.5V43h-3.4v-1.4l0,0c-0.4,0.5-0.9,0.9-1.4,1.2S93,43.3,92.1,43.3z"/>
	<path d="M100.4,32h3.4v1.6l0,0c0.4-0.5,0.7-1.1,1.2-1.4c0.5-0.4,1.2-0.5,1.9-0.5c0.7,0,1.4,0.2,1.9,0.5c0.5,0.4,0.9,0.9,1.2,1.4
		l0,0c0.4-0.7,0.9-1.1,1.4-1.4c0.5-0.4,1.2-0.5,1.9-0.5c0.5,0,1.1,0.2,1.6,0.4s0.9,0.5,1.2,0.9c0.4,0.4,0.5,0.7,0.7,1.2
		s0.2,1.1,0.2,1.6v7.1h-3.5v-6.4c0-0.5-0.2-1.1-0.4-1.4c-0.2-0.4-0.7-0.5-1.2-0.5s-1.1,0.2-1.2,0.5c-0.4,0.4-0.5,0.9-0.5,1.6V43
		h-3.5v-6.4c0-0.5-0.2-1.1-0.4-1.4c-0.2-0.4-0.7-0.5-1.2-0.5s-0.9,0.2-1.2,0.5s-0.5,0.9-0.5,1.6V43h-3.5V32H100.4z"/>
	<path d="M121.3,32h3.5l1.2,4.4c0,0.2,0.2,0.5,0.2,0.7s0.2,0.5,0.2,0.7s0.2,0.5,0.2,0.7l0,0l0.2-0.7c0-0.2,0.2-0.4,0.2-0.7
		c0-0.2,0.2-0.5,0.2-0.7l1.1-4.4h3l1.2,4.4c0,0.2,0.2,0.5,0.2,0.7s0.2,0.5,0.2,0.7s0.2,0.5,0.2,0.7l0,0c0-0.2,0.2-0.5,0.2-0.7
		s0.2-0.4,0.2-0.7c0-0.4,0.2-0.5,0.2-0.7l1.2-4.4h3.2l-3.2,11h-3.2l-1.2-5c0-0.2-0.2-0.4-0.2-0.7c0-0.2-0.2-0.4-0.2-0.7
		c0-0.2-0.2-0.5-0.2-0.7l0,0c0,0.2-0.2,0.4-0.2,0.7c0,0.2-0.2,0.4-0.2,0.7c0,0.2-0.2,0.5-0.2,0.7l-1.4,5h-3.2L121.3,32z"/>
	<path d="M141.6,43.1c-0.5,0-1.1,0-1.4-0.2c-0.5-0.2-0.9-0.4-1.2-0.7c-0.4-0.4-0.5-0.7-0.7-1.1c-0.4-0.4-0.4-0.7-0.4-1.2
		s0.2-1.1,0.4-1.4c0.2-0.4,0.5-0.7,0.9-1.1c0.4-0.4,0.9-0.5,1.4-0.5c0.5-0.2,1.1-0.2,1.6-0.4c1.1-0.2,1.8-0.4,2.1-0.4
		c0.4-0.2,0.5-0.4,0.5-0.7s-0.2-0.7-0.4-0.9c-0.2-0.5-0.7-0.5-1.2-0.5s-0.9,0.2-1.2,0.4s-0.5,0.5-0.5,1.1h-3.2
		c0-0.5,0.2-1.1,0.4-1.4c0.2-0.4,0.5-0.9,0.9-1.2c0.4-0.4,0.9-0.5,1.6-0.9c0.5-0.2,1.2-0.4,2.1-0.4c0.9,0,1.6,0,2.1,0.2
		s1.1,0.4,1.4,0.7c0.5,0.4,0.9,0.7,1.1,1.2c0.2,0.5,0.4,1.1,0.4,1.8v5.7c0,0.4,0,0.7,0,1.1c0,0.2,0.2,0.4,0.4,0.5V43h-3.4
		c0-0.2-0.2-0.4-0.2-0.5c0-0.2-0.2-0.5-0.2-0.7l0,0c-0.4,0.5-0.7,0.9-1.2,1.1C143.1,43.1,142.4,43.1,141.6,43.1z M142.7,41
		c0.7,0,1.2-0.2,1.6-0.5c0.4-0.4,0.5-0.9,0.5-1.4v-1.2c-0.2,0.2-0.5,0.2-0.9,0.4s-0.7,0.2-1.1,0.4c-0.7,0.2-1.1,0.4-1.4,0.5
		s-0.5,0.5-0.5,0.9s0.2,0.7,0.4,0.9C142,40.8,142.4,41,142.7,41z"/>
	<path d="M153.1,43.1c-0.5,0-1.1,0-1.4-0.2c-0.5-0.2-0.9-0.4-1.2-0.7c-0.4-0.4-0.5-0.7-0.7-1.1c-0.2-0.4-0.4-0.9-0.4-1.4
		s0.2-1.1,0.4-1.4s0.5-0.7,0.9-1.1c0.4-0.4,0.9-0.5,1.4-0.5c0.5-0.2,1.1-0.2,1.6-0.4c1.1-0.2,1.8-0.4,2.1-0.4
		c0.4-0.2,0.5-0.4,0.5-0.7s-0.2-0.7-0.4-0.9c-0.4-0.4-0.7-0.4-1.2-0.4s-0.9,0.2-1.2,0.4S153,35,153,35.5h-3.2c0-0.5,0.2-1.1,0.4-1.4
		c0.2-0.4,0.5-0.9,0.9-1.2c0.4-0.4,0.9-0.5,1.6-0.9c0.5-0.2,1.2-0.4,2.1-0.4c0.9,0,1.6,0,2.1,0.2s1.1,0.4,1.4,0.7
		c0.5,0.4,0.9,0.7,1.1,1.2c0.2,0.5,0.4,1.1,0.4,1.8v5.7c0,0.4,0,0.7,0,1.1c0,0.2,0.2,0.4,0.4,0.5V43h-3.4c0-0.2-0.2-0.4-0.2-0.5
		c0-0.2-0.2-0.5-0.2-0.7l0,0c-0.4,0.5-0.7,0.9-1.2,1.1C154.6,43.1,153.8,43.1,153.1,43.1z M154.2,41c0.7,0,1.2-0.2,1.6-0.5
		c0.4-0.4,0.5-0.9,0.5-1.4v-1.2c-0.2,0.2-0.5,0.2-0.9,0.4s-0.7,0.2-1.1,0.4c-0.7,0.2-1.1,0.4-1.4,0.5s-0.5,0.5-0.5,0.9
		s0.2,0.7,0.4,0.9C153.5,40.8,153.8,41,154.2,41z"/>
	<path d="M161.3,32h3.4v1.8l0,0c0.4-0.7,0.9-1.1,1.2-1.4c0.5-0.4,1.1-0.5,1.8-0.5c0.4,0,0.5,0,0.7,0v3l0,0c-1.1-0.2-1.9,0-2.5,0.5
		s-0.9,1.4-0.9,2.5V43h-3.5V32H161.3z"/>
	<path d="M172.9,46.5c-0.4,0-0.7,0-1.1,0s-0.7,0-0.9-0.2v-2.5c0.4,0,0.5,0,0.9,0c0.2,0,0.4,0,0.5-0.2c0.2-0.2,0.2-0.2,0.4-0.4
		s0.2-0.4,0.2-0.7V31.8h3.5V43c0,0.7,0,1.2-0.2,1.8c-0.2,0.5-0.4,0.7-0.5,1.1c-0.4,0.4-0.7,0.5-1.1,0.7
		C174.4,46.7,173.5,46.5,172.9,46.5z M172.8,27.7h3.5v2.8h-3.5V27.7z"/>
	<path d="M183.2,43.3c-0.9,0-1.8-0.2-2.5-0.4c-0.7-0.4-1.4-0.7-1.8-1.2c-0.5-0.5-0.9-1.1-1.1-1.8c-0.4-0.7-0.4-1.4-0.4-2.3
		s0.2-1.6,0.4-2.3c0.4-0.7,0.7-1.2,1.1-1.8c0.5-0.5,1.1-0.9,1.8-1.2c0.7-0.4,1.4-0.4,2.3-0.4c0.7,0,1.4,0.2,2.1,0.4
		c0.5,0.2,1.2,0.5,1.6,1.1c0.7,0.5,1.1,1.4,1.4,2.3c0.4,0.9,0.5,1.9,0.5,3h-7.8c0.2,0.7,0.4,1.2,0.7,1.8c0.4,0.5,0.9,0.7,1.6,0.7
		c0.5,0,0.9-0.2,1.1-0.4c0.4-0.2,0.5-0.5,0.7-0.9h3.4c-0.2,0.5-0.4,0.9-0.7,1.4c-0.4,0.5-0.7,0.9-1.2,1.2c-0.5,0.4-0.9,0.5-1.6,0.7
		S183.9,43.3,183.2,43.3z M185.1,36.2c0-0.7-0.4-1.2-0.7-1.6c-0.4-0.4-0.9-0.5-1.4-0.5c-0.7,0-1.2,0.2-1.6,0.5
		c-0.4,0.4-0.5,0.9-0.7,1.6H185.1z"/>
	<path d="M193.1,27.7h3.4v8l3.2-3.7h4.1l-3.9,4.1l4.2,6.7H200l-2.7-4.4l-1.1,1.1V43h-3.4V27.7H193.1z"/>
	<path d="M208.3,43.3c-1.2,0-2.1-0.4-2.8-1.1c-0.7-0.7-0.9-1.8-0.9-3v-7.1h3.4v6.4c0,0.5,0.2,1.1,0.4,1.4c0.2,0.4,0.7,0.5,1.2,0.5
		s1.1-0.2,1.4-0.5c0.4-0.4,0.5-0.9,0.5-1.6v-6h3.5V43h-3.4v-1.4l0,0c-0.4,0.5-0.9,0.9-1.4,1.2S209.2,43.3,208.3,43.3z"/>
	<path d="M216.6,32h3.4v1.4l0,0c0.4-0.5,0.9-1.1,1.4-1.4c0.5-0.4,1.2-0.5,1.9-0.5c0.5,0,1.1,0.2,1.6,0.4s0.9,0.5,1.2,0.9
		c0.4,0.4,0.5,0.7,0.7,1.2s0.2,1.1,0.2,1.6v7.1h-3.5v-6.4c0-0.5-0.2-1.1-0.4-1.4c-0.4-0.4-0.7-0.5-1.2-0.5s-1.1,0.2-1.4,0.7
		c-0.4,0.4-0.5,1.1-0.5,1.6V43h-3.5V32H216.6z"/>
	<path d="M233.4,43.3c-1.6,0-2.8-0.4-3.7-1.1c-0.9-0.7-1.4-1.6-1.4-2.8h3.2c0,0.5,0.4,0.9,0.5,1.2c0.4,0.4,0.9,0.4,1.4,0.4
		s0.9-0.2,1.2-0.4s0.5-0.5,0.5-0.9c0-0.2,0-0.4-0.2-0.5c-0.2-0.2-0.4-0.4-0.5-0.4c-0.2-0.2-0.5-0.2-0.9-0.2s-0.7-0.2-1.1-0.2
		c-0.5,0-0.9-0.2-1.4-0.4s-0.9-0.4-1.2-0.5c-0.4-0.2-0.7-0.5-0.9-0.9s-0.4-0.9-0.4-1.6c0-0.5,0.2-1.1,0.4-1.6
		c0.2-0.4,0.5-0.9,1.1-1.1c0.4-0.4,0.9-0.5,1.4-0.7s1.2-0.2,1.8-0.2c1.6,0,2.7,0.4,3.5,0.9c0.9,0.5,1.2,1.4,1.4,2.5H235
		c0-0.5-0.2-0.9-0.5-1.1c-0.4-0.2-0.7-0.4-1.2-0.4c-0.4,0-0.7,0-1.1,0.2c-0.4,0.2-0.4,0.4-0.4,0.7c0,0.2,0,0.4,0.2,0.5
		c0.2,0.2,0.4,0.2,0.5,0.4c0.2,0,0.5,0.2,0.9,0.2s0.7,0.2,1.1,0.2c0.5,0,0.9,0.2,1.4,0.4s0.9,0.4,1.4,0.5c0.4,0.2,0.7,0.5,1.1,1.1
		c0.4,0.5,0.4,1.1,0.4,1.8c0,0.5-0.2,1.1-0.4,1.6s-0.5,0.9-1.1,1.1c-0.5,0.2-0.9,0.5-1.6,0.7C234.7,43.1,234.1,43.3,233.4,43.3z"/>
	<path d="M243.3,43.1c-0.5,0-0.9,0-1.4-0.2c-0.4-0.2-0.7-0.2-1.1-0.5c-0.4-0.2-0.5-0.5-0.7-0.9s-0.2-0.9-0.2-1.4v-5.8h-1.4v-2.1h1.4
		v-3.4h3.4v3.4h1.9v2.1h-1.9v5.1c0,0.4,0.2,0.7,0.4,0.9s0.5,0.2,0.9,0.2c0.2,0,0.4,0,0.5,0s0.2,0,0.4,0V43c-0.2,0-0.4,0-0.7,0.2
		C244.2,43,243.9,43.1,243.3,43.1z"/>
	<path d="M0.9,57.5h3.4v1.4l0,0c0.4-0.5,0.9-1.1,1.4-1.4C6.2,57.1,6.9,57,7.6,57c0.5,0,1.1,0.2,1.6,0.4s0.9,0.5,1.2,0.9
		c0.4,0.4,0.5,0.7,0.7,1.2s0.2,1.1,0.2,1.6v7.1H7.8v-6.4c0-0.5-0.2-1.1-0.4-1.4C7,60,6.7,59.9,6.2,59.9s-1.1,0.2-1.4,0.7
		c-0.4,0.4-0.5,1.1-0.5,1.6v6H0.7V57.5H0.9z"/>
	<path d="M12.9,53.2h3.5V56h-3.5V53.2z M12.9,57.5h3.5v10.8h-3.5V57.5z"/>
	<path d="M23.3,68.8c-0.9,0-1.8-0.2-2.5-0.4c-0.7-0.4-1.4-0.7-1.8-1.2c-0.5-0.5-0.9-1.1-1.1-1.8c-0.4-0.7-0.4-1.4-0.4-2.3
		s0.2-1.6,0.4-2.3c0.4-0.7,0.7-1.2,1.1-1.8c0.5-0.5,1.1-0.9,1.8-1.2c0.7-0.4,1.4-0.4,2.3-0.4c0.7,0,1.4,0.2,2.1,0.4
		c0.5,0.2,1.2,0.5,1.6,1.1c0.7,0.5,1.1,1.4,1.4,2.3c0.4,0.9,0.5,1.9,0.5,3H21c0.2,0.7,0.4,1.2,0.7,1.8c0.4,0.5,0.9,0.7,1.6,0.7
		c0.5,0,0.9-0.2,1.1-0.4c0.4-0.2,0.5-0.5,0.7-0.9h3.4c-0.2,0.5-0.4,0.9-0.7,1.4s-0.7,0.9-1.2,1.2c-0.5,0.4-0.9,0.5-1.6,0.7
		C24.2,68.9,24,68.8,23.3,68.8z M25.3,61.7c0-0.7-0.4-1.2-0.7-1.6c-0.4-0.4-0.9-0.5-1.4-0.5c-0.7,0-1.2,0.2-1.6,0.5
		c-0.4,0.4-0.5,0.9-0.7,1.6H25.3z"/>
	<path d="M33.9,68.6c-0.5,0-0.9,0-1.4-0.2c-0.4-0.2-0.7-0.2-1.1-0.5c-0.4-0.2-0.5-0.5-0.7-0.9s-0.2-0.9-0.2-1.4v-5.8h-1.4v-2.1h1.4
		v-3.4h3.4v3.4h1.9v2.1h-1.9v5.1c0,0.4,0.2,0.7,0.4,0.9s0.5,0.2,0.9,0.2c0.2,0,0.4,0,0.5,0c0.2,0,0.2,0,0.4,0v2.5
		c-0.2,0-0.4,0-0.7,0.2C34.8,68.4,34.5,68.6,33.9,68.6z"/>
	<path d="M40.5,57.5h3.4V59l0,0c0.4-0.5,0.7-1.1,1.2-1.4c0.5-0.4,1.2-0.5,1.9-0.5s1.4,0.2,1.9,0.5s0.9,0.9,1.2,1.4l0,0
		c0.4-0.7,0.9-1.1,1.4-1.4c0.5-0.4,1.2-0.5,1.9-0.5c0.5,0,1.1,0.2,1.6,0.4s0.9,0.5,1.2,0.9c0.4,0.4,0.5,0.7,0.7,1.2s0.2,1.1,0.2,1.6
		v7.1h-3.5v-6.4c0-0.5-0.2-1.1-0.4-1.4C53,60.1,52.5,60,52,60s-1.1,0.2-1.2,0.5c-0.4,0.4-0.5,0.9-0.5,1.6v6h-3.5v-6.4
		c0-0.5-0.2-1.1-0.4-1.4c-0.2-0.4-0.7-0.5-1.2-0.5S44.3,60,44,60.3c-0.4,0.4-0.5,0.9-0.5,1.6v6H40V57.5H40.5z"/>
	<path d="M64.2,68.8c-0.9,0-1.6-0.2-2.5-0.4s-1.4-0.7-1.8-1.2c-0.5-0.5-0.9-1.1-1.2-1.8c-0.4-0.7-0.4-1.4-0.4-2.3s0.2-1.6,0.4-2.3
		c0.4-0.7,0.7-1.2,1.2-1.8c0.5-0.5,1.1-0.9,1.8-1.2c0.7-0.4,1.6-0.4,2.5-0.4s1.6,0.2,2.5,0.4c0.7,0.4,1.2,0.7,1.8,1.2
		c0.5,0.5,0.9,1.1,1.2,1.8c0.4,0.7,0.4,1.4,0.4,2.3s-0.2,1.6-0.4,2.3c-0.4,0.7-0.7,1.2-1.2,1.8c-0.5,0.5-1.1,0.9-1.8,1.2
		C66,68.6,65.1,68.8,64.2,68.8z M64.2,66.3c0.7,0,1.4-0.4,1.8-0.9s0.5-1.4,0.5-2.3c0-1.1-0.2-1.8-0.5-2.5c-0.4-0.5-0.9-0.9-1.8-0.9
		c-0.7,0-1.4,0.4-1.8,0.9c-0.4,0.5-0.5,1.4-0.5,2.5c0,1.1,0.2,1.8,0.5,2.3C62.8,65.9,63.5,66.3,64.2,66.3z"/>
	<path d="M76.6,68.8c-0.9,0-1.6-0.2-2.5-0.4c-0.9-0.2-1.4-0.7-1.8-1.2c-0.5-0.5-0.9-1.1-1.2-1.8c-0.4-0.9-0.4-1.6-0.4-2.5
		s0.2-1.6,0.4-2.3c0.4-0.7,0.7-1.2,1.2-1.8c0.5-0.5,1.1-0.9,1.8-1.2s1.6-0.4,2.5-0.4s1.6,0.2,2.5,0.4c0.7,0.4,1.2,0.7,1.8,1.2
		c0.5,0.5,0.9,1.1,1.2,1.8c0.4,0.7,0.4,1.4,0.4,2.3s-0.2,1.6-0.4,2.3c-0.4,0.7-0.7,1.2-1.2,1.8c-0.5,0.5-1.1,0.9-1.8,1.2
		C78.2,68.6,77.4,68.8,76.6,68.8z M76.4,66.3c0.7,0,1.4-0.4,1.8-0.9s0.5-1.4,0.5-2.3c0-1.1-0.2-1.8-0.5-2.5
		c-0.4-0.5-0.9-0.9-1.8-0.9c-0.7,0-1.4,0.4-1.8,0.9s-0.5,1.4-0.5,2.5c0,1.1,0.2,1.8,0.5,2.3C75.1,65.9,75.7,66.3,76.4,66.3z"/>
	<path d="M83.5,53.2H87V56h-3.5V53.2z M83.5,57.5H87v10.8h-3.5V57.5z"/>
	<path d="M91.8,53.2h3.5v5.7l0,0c0.4-0.5,0.9-0.9,1.4-1.2c0.5-0.4,1.1-0.4,1.9-0.4c0.5,0,1.1,0.2,1.6,0.4s0.9,0.5,1.2,0.9
		s0.5,0.7,0.7,1.2s0.2,1.1,0.2,1.6v7.1h-3.5v-6.4c0-0.5-0.2-1.1-0.4-1.4c-0.4-0.4-0.7-0.5-1.2-0.5s-1.1,0.2-1.4,0.7
		c-0.4,0.4-0.5,1.1-0.5,1.6v6h-3.5C91.8,68.5,91.8,53.2,91.8,53.2z"/>
	<path d="M109.3,68.8c-0.9,0-1.6-0.2-2.5-0.4c-0.9-0.2-1.4-0.7-1.8-1.2c-0.5-0.5-0.9-1.1-1.2-1.8c-0.4-0.7-0.4-1.4-0.4-2.3
		s0.2-1.6,0.4-2.3c0.4-0.7,0.7-1.2,1.2-1.8c0.5-0.5,1.1-0.9,1.8-1.2c0.7-0.4,1.6-0.4,2.5-0.4s1.6,0.2,2.5,0.4
		c0.7,0.4,1.2,0.7,1.8,1.2c0.5,0.5,0.9,1.1,1.2,1.8c0.4,0.7,0.4,1.4,0.4,2.3s-0.2,1.6-0.4,2.3c-0.4,0.7-0.7,1.2-1.2,1.8
		c-0.5,0.5-1.1,0.9-1.8,1.2C110.9,68.6,110.2,68.8,109.3,68.8z M109.3,66.3c0.7,0,1.4-0.4,1.8-0.9s0.5-1.4,0.5-2.3
		c0-1.1-0.2-1.8-0.5-2.5c-0.4-0.5-0.9-0.9-1.8-0.9c-0.7,0-1.4,0.4-1.8,0.9S107,62,107,63.1c0,1.1,0.2,1.8,0.5,2.3
		C107.9,65.9,108.6,66.3,109.3,66.3z"/>
	<path d="M121.5,68.8c-0.9,0-1.8-0.2-2.5-0.4c-0.7-0.4-1.4-0.7-1.8-1.2c-0.5-0.5-0.9-1.1-1.1-1.8c-0.4-0.7-0.4-1.4-0.4-2.3
		s0.2-1.6,0.4-2.3c0.4-0.7,0.7-1.2,1.1-1.8c0.5-0.5,1.1-0.9,1.8-1.2c0.7-0.4,1.4-0.4,2.3-0.4c0.7,0,1.4,0.2,2.1,0.4
		c0.5,0.2,1.2,0.5,1.6,1.1c0.7,0.5,1.1,1.4,1.4,2.3c0.4,0.9,0.5,1.9,0.5,3h-7.8c0.2,0.7,0.4,1.2,0.7,1.8c0.4,0.5,0.9,0.7,1.6,0.7
		c0.5,0,0.9-0.2,1.1-0.4c0.4-0.2,0.5-0.5,0.7-0.9h3.4c-0.2,0.5-0.4,0.9-0.7,1.4c-0.4,0.5-0.7,0.9-1.2,1.2c-0.5,0.4-0.9,0.5-1.6,0.7
		S122.2,68.8,121.5,68.8z M123.4,61.7c0-0.7-0.4-1.2-0.7-1.6c-0.4-0.4-0.9-0.5-1.4-0.5c-0.7,0-1.2,0.2-1.6,0.5
		c-0.4,0.4-0.5,0.9-0.7,1.6H123.4z"/>
	<path d="M128.7,59.8h-1.4v-2.1h1.4V57c0-1.1,0.4-1.9,0.9-2.5c0.5-0.5,1.1-0.7,1.9-0.9c0.9-0.2,1.8-0.2,2.7,0V56c-0.4,0-0.5,0-0.9,0
		s-0.5,0-0.7,0.2c-0.2,0-0.4,0.2-0.4,0.4c-0.2,0.2-0.2,0.4-0.2,0.7v0.5h2.1v2.1H132v8.7h-3.5v-8.8H128.7z"/>
	<path d="M139.7,68.6c-0.5,0-0.9,0-1.4-0.2c-0.4-0.2-0.7-0.2-1.1-0.5c-0.4-0.2-0.5-0.5-0.7-0.9s-0.2-0.9-0.2-1.4v-5.8h-1.4v-2.1h1.2
		v-3.4h3.4v3.4h1.9v2.1h-1.9v5.1c0,0.4,0.2,0.7,0.4,0.9s0.5,0.2,0.9,0.2c0.2,0,0.4,0,0.5,0c0.2,0,0.2,0,0.4,0v2.5
		c-0.2,0-0.4,0-0.7,0.2C140.4,68.4,140.1,68.6,139.7,68.6z"/>
	<path d="M150.3,68.6c-0.5,0-0.9,0-1.4-0.2c-0.4-0.2-0.7-0.2-1.1-0.5c-0.4-0.2-0.5-0.5-0.7-0.9s-0.2-0.9-0.2-1.4v-5.8h-1.4v-2.1h1.4
		v-3.4h3.4v3.4h1.9v2.1h-1.9v5.1c0,0.4,0.2,0.7,0.4,0.9s0.5,0.2,0.9,0.2c0.2,0,0.4,0,0.5,0c0.2,0,0.2,0,0.4,0v2.5
		c-0.2,0-0.4,0-0.7,0.2C151.2,68.4,150.8,68.6,150.3,68.6z"/>
	<path d="M158.6,68.8c-0.9,0-1.8-0.2-2.5-0.4c-0.7-0.4-1.4-0.7-1.8-1.2c-0.5-0.5-0.9-1.1-1.1-1.8c-0.4-0.7-0.4-1.4-0.4-2.3
		s0.2-1.6,0.4-2.3c0.4-0.7,0.7-1.2,1.1-1.8c0.5-0.5,1.1-0.9,1.8-1.2c0.7-0.4,1.4-0.4,2.3-0.4c0.7,0,1.4,0.2,2.1,0.4
		c0.5,0.2,1.2,0.5,1.6,1.1c0.7,0.5,1.1,1.4,1.4,2.3c0.4,0.9,0.5,1.9,0.5,3h-7.8c0.2,0.7,0.4,1.2,0.7,1.8c0.4,0.5,0.9,0.7,1.6,0.7
		c0.5,0,0.9-0.2,1.1-0.4c0.4-0.2,0.5-0.5,0.7-0.9h3.4c-0.2,0.5-0.4,0.9-0.7,1.4c-0.4,0.5-0.7,0.9-1.2,1.2s-0.9,0.5-1.6,0.7
		S159.3,68.8,158.6,68.8z M160.6,61.7c0-0.7-0.4-1.2-0.7-1.6c-0.4-0.4-0.9-0.5-1.4-0.5c-0.7,0-1.2,0.2-1.6,0.5
		c-0.4,0.4-0.5,0.9-0.7,1.6H160.6z"/>
	<path d="M167.6,57.5h3.5l1.4,5c0,0.4,0.2,0.5,0.2,0.9c0,0.2,0.2,0.5,0.2,0.7s0.2,0.5,0.2,0.7l0,0c0-0.2,0.2-0.4,0.2-0.7
		c0-0.2,0.2-0.4,0.2-0.7c0-0.2,0.2-0.5,0.2-0.9l1.6-5h3.5l-3.7,10.8h-3.7L167.6,57.5z"/>
	<path d="M179.7,53.2h3.5V56h-3.5V53.2z M179.7,57.5h3.5v10.8h-3.5V57.5z"/>
	<path d="M184.8,57.5h3.4v1.4l0,0c0.4-0.5,0.9-1.1,1.4-1.4c0.5-0.4,1.2-0.5,1.9-0.5c0.5,0,1.1,0.2,1.6,0.4s0.9,0.5,1.2,0.9
		c0.4,0.4,0.5,0.7,0.7,1.2s0.2,1.1,0.2,1.6v7.1h-3.5v-6.4c0-0.5-0.2-1.1-0.4-1.4c-0.4-0.4-0.7-0.5-1.2-0.5s-1.1,0.2-1.4,0.7
		c-0.4,0.4-0.5,1.1-0.5,1.6v6h-3.5V57.5H184.8z"/>
	<path d="M201.2,68.8c-0.7,0-1.4-0.2-1.9-0.4c-0.5-0.2-1.1-0.7-1.6-1.1c-0.4-0.5-0.7-1.1-1.1-1.8c-0.2-0.7-0.4-1.6-0.4-2.5
		s0.2-1.6,0.4-2.3s0.5-1.2,1.1-1.8c0.5-0.5,0.9-0.9,1.4-1.2c0.5-0.4,1.2-0.4,1.9-0.4s1.4,0.2,1.8,0.4c0.5,0.4,0.9,0.7,1.2,1.1l0,0
		v-5.5h3.5v15.2h-3.4v-1.4l0,0c-0.4,0.5-0.7,1.1-1.2,1.4C202.5,68.6,202,68.8,201.2,68.8z M202.1,65.9c0.7,0,1.2-0.4,1.8-0.9
		s0.5-1.2,0.5-2.1c0-0.5,0-0.9-0.2-1.2c-0.2-0.4-0.2-0.7-0.4-1.1c-0.2-0.4-0.4-0.5-0.7-0.7c-0.4-0.2-0.5-0.2-1.1-0.2
		c-0.7,0-1.2,0.4-1.6,0.9c-0.4,0.5-0.5,1.2-0.5,2.3c0,0.9,0.2,1.8,0.5,2.3C200.9,65.8,201.4,65.9,202.1,65.9z"/>
	<path d="M214.7,68.8c-0.9,0-1.8-0.2-2.5-0.4c-0.7-0.4-1.4-0.7-1.8-1.2c-0.5-0.5-0.9-1.1-1.1-1.8c-0.4-0.7-0.4-1.4-0.4-2.3
		s0.2-1.6,0.4-2.3c0.4-0.7,0.7-1.2,1.1-1.8c0.5-0.5,1.1-0.9,1.8-1.2c0.7-0.4,1.4-0.4,2.3-0.4c0.7,0,1.4,0.2,2.1,0.4
		c0.5,0.2,1.2,0.5,1.6,1.1c0.7,0.5,1.1,1.4,1.4,2.3s0.5,1.9,0.5,3h-8c0.2,0.7,0.4,1.2,0.7,1.8c0.4,0.5,0.9,0.7,1.6,0.7
		c0.5,0,0.9-0.2,1.1-0.4c0.4-0.2,0.5-0.5,0.7-0.9h3.4c-0.2,0.5-0.4,0.9-0.7,1.4c-0.4,0.5-0.7,0.9-1.2,1.2c-0.5,0.4-0.9,0.5-1.6,0.7
		C215.4,68.9,215.4,68.8,214.7,68.8z M216.6,61.7c0-0.7-0.4-1.2-0.7-1.6c-0.4-0.4-0.9-0.5-1.4-0.5c-0.7,0-1.2,0.2-1.6,0.5
		c-0.4,0.4-0.5,0.9-0.7,1.6H216.6z"/>
	<path d="M221.2,57.5h3.4v1.4l0,0c0.4-0.5,0.9-1.1,1.4-1.4c0.5-0.4,1.2-0.5,1.9-0.5c0.5,0,1.1,0.2,1.6,0.4s0.9,0.5,1.2,0.9
		c0.4,0.4,0.5,0.7,0.7,1.2s0.2,1.1,0.2,1.6v7.1h-3.5v-6.4c0-0.5-0.2-1.1-0.4-1.4c-0.4-0.4-0.7-0.5-1.2-0.5s-1.1,0.2-1.4,0.7
		c-0.4,0.4-0.5,1.1-0.5,1.6v6h-3.5V57.5H221.2z"/>
	<path d="M240.7,51.4v3.2l2.8-1.6l1.4,2.5l-2.8,1.6l2.8,1.6l-1.4,2.5l-2.8-1.6v3.2h-2.8v-3.2l-2.8,1.6l-1.4-2.5l2.8-1.6l-2.8-1.6
		L235,53l2.8,1.6v-3.2C237.9,51.4,240.7,51.4,240.7,51.4z"/>
</g>
<g>
	<path d="M1.2,79.2h1.9v3.7h3.7v-3.7h1.9v9.4H6.8v-4.1H3.1v4.1H1.2V79.2z"/>
	<path d="M14.4,88.6v-0.8l0,0c-0.2,0.3-0.5,0.5-0.8,0.7s-0.7,0.3-1.2,0.3c-0.8,0-1.3-0.2-1.7-0.7c-0.4-0.4-0.6-1-0.6-1.8v-4.5h1.8
		V86c0,0.4,0.1,0.7,0.3,0.9c0.2,0.2,0.5,0.3,0.8,0.3c0.4,0,0.8-0.1,1-0.4s0.4-0.7,0.4-1.1v-3.9h1.8v6.8H14.4z"/>
	<path d="M20.4,90.9c-0.9,0-1.7-0.2-2.2-0.6s-0.9-0.9-1-1.5H19c0.1,0.2,0.2,0.4,0.4,0.5c0.2,0.1,0.5,0.2,0.9,0.2
		c1,0,1.5-0.5,1.5-1.4v-0.7l0,0c-0.2,0.2-0.4,0.4-0.7,0.6c-0.3,0.1-0.6,0.2-1.1,0.2c-0.4,0-0.7-0.1-1.1-0.2s-0.7-0.4-0.9-0.6
		c-0.3-0.3-0.5-0.6-0.7-1S17,85.5,17,85s0.1-1,0.2-1.4s0.3-0.8,0.6-1c0.3-0.3,0.6-0.5,0.9-0.7c0.4-0.2,0.7-0.2,1.2-0.2
		c0.4,0,0.8,0.1,1.1,0.2c0.3,0.2,0.6,0.4,0.8,0.7l0,0v-0.7h1.7v6.2c0,0.5-0.1,0.9-0.2,1.2c-0.1,0.3-0.3,0.6-0.6,0.8
		c-0.3,0.3-0.6,0.5-1.1,0.6C21.4,90.9,20.9,90.9,20.4,90.9z M20.4,86.8c0.3,0,0.5,0,0.7-0.1s0.4-0.2,0.5-0.4
		c0.1-0.2,0.2-0.4,0.3-0.6C22,85.5,22,85.2,22,85s0-0.5-0.1-0.7s-0.2-0.4-0.3-0.6c-0.1-0.2-0.3-0.3-0.5-0.4s-0.4-0.1-0.7-0.1
		c-0.5,0-0.8,0.2-1.1,0.5C19,84,18.8,84.4,18.8,85s0.1,1,0.4,1.3C19.5,86.6,19.9,86.8,20.4,86.8z"/>
	<path d="M28.1,88.8c-0.5,0-1-0.1-1.4-0.3c-0.4-0.2-0.8-0.4-1.1-0.8c-0.3-0.3-0.6-0.7-0.7-1.1s-0.3-0.9-0.3-1.4s0.1-1,0.3-1.4
		c0.2-0.4,0.4-0.8,0.7-1.1c0.3-0.3,0.7-0.6,1.1-0.8c0.4-0.2,0.9-0.3,1.4-0.3s1,0.1,1.4,0.3c0.4,0.2,0.8,0.4,1.1,0.8
		c0.3,0.3,0.6,0.7,0.7,1.1c0.2,0.4,0.3,0.9,0.3,1.4s-0.1,1-0.3,1.4s-0.4,0.8-0.7,1.1c-0.3,0.3-0.7,0.6-1.1,0.8
		C29.1,88.7,28.7,88.8,28.1,88.8z M28.1,87.5c0.6,0,1-0.2,1.3-0.6s0.4-0.9,0.4-1.6s-0.1-1.2-0.4-1.6s-0.7-0.6-1.3-0.6
		c-0.6,0-1,0.2-1.3,0.6s-0.4,0.9-0.4,1.6s0.1,1.2,0.4,1.6C27.2,87.3,27.6,87.5,28.1,87.5z"/>
	<path d="M35.1,79.2h4.2c0.5,0,1,0.1,1.3,0.2s0.7,0.3,0.9,0.5c0.5,0.4,0.8,1,0.8,1.8c0,0.5-0.1,0.9-0.4,1.2
		c-0.3,0.3-0.6,0.5-1.1,0.7l0,0c0.5,0.1,1,0.4,1.3,0.8s0.5,0.9,0.5,1.5c0,0.4-0.1,0.8-0.2,1.1c-0.1,0.3-0.3,0.6-0.6,0.8
		c-0.3,0.2-0.6,0.4-1,0.6c-0.4,0.1-0.9,0.2-1.4,0.2h-4.3V79.2z M39.1,83c0.4,0,0.8-0.1,1-0.3c0.3-0.2,0.4-0.5,0.4-0.8
		c0-0.4-0.1-0.6-0.4-0.8c-0.2-0.2-0.6-0.3-1-0.3H37V83H39.1z M37,87.1h2.2c0.5,0,0.8-0.1,1.1-0.3c0.3-0.2,0.4-0.5,0.4-0.9
		s-0.1-0.8-0.4-1c-0.3-0.2-0.7-0.3-1.1-0.3H37V87.1z"/>
	<path d="M47,88.8c-0.5,0-1-0.1-1.4-0.3c-0.4-0.2-0.8-0.4-1.1-0.8c-0.3-0.3-0.6-0.7-0.7-1.1c-0.2-0.4-0.3-0.9-0.3-1.4s0.1-1,0.3-1.4
		s0.4-0.8,0.7-1.1c0.3-0.3,0.7-0.6,1.1-0.8c0.4-0.2,0.9-0.3,1.4-0.3s1,0.1,1.4,0.3c0.4,0.2,0.8,0.4,1.1,0.8c0.3,0.3,0.6,0.7,0.7,1.1
		c0.2,0.4,0.3,0.9,0.3,1.4s-0.1,1-0.3,1.4s-0.4,0.8-0.7,1.1c-0.3,0.3-0.7,0.6-1.1,0.8C48,88.7,47.5,88.8,47,88.8z M47,87.5
		c0.6,0,1-0.2,1.3-0.6s0.4-0.9,0.4-1.6s-0.1-1.2-0.4-1.6c-0.3-0.4-0.7-0.6-1.3-0.6s-1,0.2-1.3,0.6s-0.4,0.9-0.4,1.6s0.1,1.2,0.4,1.6
		C46,87.3,46.4,87.5,47,87.5z"/>
	<path d="M53.2,83L53.2,83c0.2-0.4,0.5-0.7,0.7-0.9c0.3-0.2,0.6-0.3,1-0.3c0.2,0,0.3,0,0.4,0.1v1.6l0,0c-0.6-0.1-1.1,0.1-1.4,0.4
		c-0.4,0.3-0.6,0.8-0.6,1.5v3.3h-1.8v-6.8h1.7C53.2,81.9,53.2,83,53.2,83z"/>
	<path d="M59,88.8c-1,0-1.7-0.2-2.3-0.7c-0.5-0.4-0.8-1-0.9-1.7h1.7c0.1,0.4,0.2,0.7,0.5,0.9c0.3,0.2,0.6,0.3,1,0.3s0.7-0.1,0.9-0.2
		s0.3-0.3,0.3-0.6c0-0.2-0.1-0.3-0.2-0.4c-0.1-0.1-0.2-0.2-0.4-0.2c-0.2-0.1-0.4-0.1-0.6-0.2c-0.2,0-0.4-0.1-0.7-0.1
		c-0.3-0.1-0.6-0.1-0.9-0.2c-0.3-0.1-0.5-0.2-0.8-0.3c-0.2-0.1-0.4-0.3-0.5-0.6c-0.1-0.2-0.2-0.5-0.2-0.9s0.1-0.7,0.2-1
		c0.1-0.3,0.3-0.5,0.6-0.7s0.5-0.3,0.9-0.4c0.3-0.1,0.7-0.1,1.1-0.1c0.9,0,1.6,0.2,2.1,0.6s0.8,0.9,0.8,1.6H60
		c0-0.4-0.2-0.6-0.4-0.8c-0.2-0.1-0.5-0.2-0.9-0.2s-0.6,0.1-0.8,0.2s-0.3,0.3-0.3,0.6c0,0.1,0.1,0.3,0.2,0.3
		c0.1,0.1,0.2,0.2,0.4,0.2c0.2,0.1,0.4,0.1,0.6,0.1c0.2,0,0.5,0.1,0.7,0.1c0.3,0.1,0.6,0.1,0.8,0.2c0.3,0.1,0.5,0.2,0.8,0.3
		c0.2,0.2,0.4,0.4,0.6,0.6c0.1,0.3,0.2,0.6,0.2,1c0,0.3-0.1,0.6-0.2,0.9c-0.1,0.3-0.3,0.5-0.6,0.7s-0.5,0.3-0.9,0.4
		C59.8,88.8,59.4,88.8,59,88.8z"/>
	<path d="M62.3,81.9h0.9v-2.1H65v2.1h1.2v1.2H65v3.6c0,0.3,0.1,0.4,0.2,0.5s0.3,0.1,0.5,0.1H66c0.1,0,0.1,0,0.2,0v1.3
		c-0.1,0-0.2,0-0.3,0c-0.1,0-0.2,0-0.4,0c-0.1,0-0.3,0-0.5,0s-0.4,0-0.7-0.1c-0.2,0-0.4-0.1-0.6-0.3c-0.2-0.1-0.3-0.3-0.4-0.5
		c-0.1-0.2-0.2-0.5-0.2-0.8v-4h-0.9v-1H62.3z"/>
</g>
<g>
	<path d="M73.9,88.8c-0.5,0-0.9-0.1-1.3-0.2s-0.7-0.3-0.9-0.5c-0.2-0.2-0.4-0.5-0.6-0.8c-0.1-0.3-0.2-0.6-0.2-1h0.9
		c0.1,1.2,0.8,1.8,2.2,1.8c0.2,0,0.5,0,0.7-0.1s0.4-0.1,0.5-0.2s0.3-0.2,0.3-0.4c0.1-0.2,0.1-0.4,0.1-0.6s-0.1-0.4-0.2-0.6
		s-0.2-0.3-0.4-0.4c-0.2-0.1-0.4-0.2-0.7-0.3c-0.3-0.1-0.5-0.1-0.9-0.2c-0.3-0.1-0.6-0.1-0.9-0.2s-0.5-0.2-0.7-0.4
		c-0.2-0.1-0.4-0.3-0.5-0.5s-0.2-0.5-0.2-0.8s0.1-0.5,0.2-0.8c0.1-0.2,0.3-0.4,0.5-0.6s0.5-0.3,0.8-0.4s0.6-0.1,1-0.1
		s0.8,0.1,1.1,0.2c0.3,0.1,0.6,0.3,0.8,0.4c0.2,0.2,0.4,0.4,0.5,0.7c0.1,0.3,0.2,0.6,0.2,0.9h-0.8c-0.1-0.5-0.3-0.9-0.6-1.1
		c-0.3-0.3-0.7-0.4-1.2-0.4s-0.9,0.1-1.2,0.3C72.1,82.7,72,83,72,83.3c0,0.2,0,0.4,0.1,0.5s0.2,0.3,0.4,0.3s0.4,0.2,0.6,0.2
		c0.2,0.1,0.5,0.1,0.7,0.2c0.3,0.1,0.7,0.2,1,0.2c0.3,0.1,0.6,0.2,0.8,0.4c0.2,0.2,0.4,0.4,0.6,0.6c0.1,0.3,0.2,0.6,0.2,1
		c0,0.3-0.1,0.6-0.2,0.9s-0.3,0.5-0.5,0.6c-0.2,0.2-0.5,0.3-0.8,0.4C74.6,88.7,74.3,88.8,73.9,88.8z"/>
	<path d="M79.7,88.8c-0.4,0-0.7-0.1-1-0.2s-0.6-0.3-0.8-0.6c-0.2-0.2-0.4-0.5-0.5-0.9c-0.1-0.3-0.2-0.7-0.2-1c0-0.4,0.1-0.7,0.2-1
		s0.3-0.6,0.5-0.9c0.2-0.2,0.5-0.4,0.8-0.6c0.3-0.1,0.6-0.2,1-0.2c0.6,0,1.1,0.2,1.5,0.5s0.6,0.8,0.7,1.3h-0.8
		c-0.1-0.3-0.2-0.6-0.4-0.8c-0.2-0.2-0.5-0.3-0.9-0.3c-0.3,0-0.5,0.1-0.7,0.2s-0.4,0.3-0.5,0.4c-0.1,0.2-0.2,0.4-0.3,0.6
		c-0.1,0.2-0.1,0.5-0.1,0.8s0,0.5,0.1,0.8c0.1,0.2,0.2,0.5,0.3,0.6c0.1,0.2,0.3,0.3,0.5,0.4s0.4,0.2,0.7,0.2c0.4,0,0.7-0.1,1-0.3
		s0.4-0.5,0.4-0.9H82c-0.1,0.6-0.3,1.1-0.7,1.4S80.3,88.8,79.7,88.8z"/>
	<path d="M83.6,84.2L83.6,84.2c0.2-0.2,0.4-0.4,0.7-0.6c0.3-0.1,0.6-0.2,1-0.2c0.5,0,1,0.1,1.3,0.4s0.5,0.7,0.5,1.2v3.6h-0.8v-3.5
		c0-0.3-0.1-0.6-0.3-0.8c-0.2-0.2-0.5-0.3-0.8-0.3c-0.2,0-0.4,0-0.6,0.1s-0.3,0.2-0.4,0.3s-0.2,0.3-0.3,0.4
		c-0.1,0.2-0.1,0.4-0.1,0.6v3.1H83v-7.1h0.8v2.8H83.6z"/>
	<path d="M88.9,84.4L88.9,84.4c0.2-0.3,0.4-0.5,0.6-0.6c0.3-0.2,0.6-0.3,0.9-0.3c0.1,0,0.1,0,0.2,0h0.1v0.8l0,0c-0.1,0-0.1,0-0.2,0
		c0,0-0.1,0-0.2,0c-0.2,0-0.4,0-0.6,0.1s-0.3,0.2-0.5,0.3c-0.1,0.1-0.2,0.3-0.3,0.5c-0.1,0.2-0.1,0.4-0.1,0.6v2.8H88v-5.1h0.8
		L88.9,84.4L88.9,84.4z"/>
	<path d="M91.6,81.6h0.8v1h-0.8V81.6z M91.6,83.5h0.8v5.1h-0.8V83.5z"/>
	<path d="M93.2,90.1c-0.1,0-0.2,0-0.2,0c-0.1,0-0.1,0-0.2,0v-0.7l0,0c0.1,0,0.2,0,0.3,0c0.3,0,0.5-0.2,0.5-0.5v-5.4h0.8V89
		c0,0.2,0,0.4-0.1,0.6c-0.1,0.1-0.1,0.3-0.3,0.3c-0.1,0.1-0.2,0.1-0.4,0.2C93.5,90.1,93.3,90.1,93.2,90.1z M93.6,81.6h0.8v1h-0.8
		V81.6z"/>
	<path d="M95,83.5h0.9l1.1,3.2c0,0.1,0.1,0.2,0.1,0.4c0,0.1,0.1,0.2,0.1,0.4c0,0.1,0.1,0.2,0.1,0.4l0,0c0-0.1,0.1-0.2,0.1-0.4
		c0-0.1,0.1-0.2,0.1-0.4c0-0.1,0.1-0.2,0.1-0.4l1.1-3.2h0.8l-1.8,5.1h-0.9L95,83.5z"/>
	<path d="M102.3,88.8c-0.4,0-0.7-0.1-1-0.2s-0.6-0.3-0.8-0.6c-0.2-0.2-0.4-0.5-0.5-0.9c-0.1-0.3-0.2-0.7-0.2-1c0-0.4,0.1-0.7,0.2-1
		s0.3-0.6,0.5-0.9c0.2-0.2,0.5-0.4,0.8-0.6c0.3-0.1,0.6-0.2,1-0.2s0.7,0.1,1,0.2s0.5,0.3,0.7,0.6c0.2,0.3,0.3,0.6,0.4,0.9
		s0.2,0.7,0.2,1.2h-4c0,0.3,0.1,0.5,0.1,0.7c0.1,0.2,0.2,0.4,0.3,0.6c0.1,0.2,0.3,0.3,0.5,0.4s0.4,0.1,0.7,0.1
		c0.4,0,0.7-0.1,0.9-0.3c0.2-0.2,0.4-0.4,0.5-0.8h0.8c-0.1,0.6-0.4,1-0.8,1.3C103.3,88.6,102.9,88.8,102.3,88.8z M102.2,84
		c-0.2,0-0.4,0-0.6,0.1s-0.3,0.2-0.5,0.3c-0.1,0.1-0.2,0.3-0.3,0.5c-0.1,0.2-0.1,0.4-0.2,0.6h3.1c0-0.5-0.2-0.9-0.4-1.2
		C103,84.2,102.7,84,102.2,84z"/>
	<path d="M106.3,84.4L106.3,84.4c0.2-0.3,0.4-0.5,0.6-0.6c0.3-0.2,0.6-0.3,0.9-0.3c0.1,0,0.1,0,0.2,0h0.1v0.8l0,0
		c-0.1,0-0.1,0-0.2,0c0,0-0.1,0-0.2,0c-0.2,0-0.4,0-0.6,0.1s-0.3,0.2-0.5,0.3c-0.1,0.1-0.2,0.3-0.3,0.5c-0.1,0.2-0.1,0.4-0.1,0.6
		v2.8h-0.8v-5.1h0.8L106.3,84.4L106.3,84.4z"/>
	<path d="M108.3,89.5c0.1,0,0.2-0.1,0.3-0.2c0.1-0.1,0.1-0.3,0.1-0.6h-0.5v-1h1v1c0,0.4-0.1,0.6-0.3,0.8c-0.2,0.2-0.4,0.3-0.7,0.4
		L108.3,89.5L108.3,89.5z"/>
	<path d="M114.2,88.8c-0.4,0-0.7-0.1-1-0.2s-0.6-0.3-0.8-0.6c-0.2-0.2-0.4-0.5-0.5-0.9c-0.1-0.3-0.2-0.7-0.2-1c0-0.4,0.1-0.7,0.2-1
		s0.3-0.6,0.5-0.9c0.2-0.2,0.5-0.4,0.8-0.6c0.3-0.1,0.6-0.2,1-0.2c0.6,0,1.1,0.2,1.5,0.5s0.6,0.8,0.7,1.3h-0.8
		c-0.1-0.3-0.2-0.6-0.4-0.8c-0.2-0.2-0.5-0.3-0.9-0.3c-0.3,0-0.5,0.1-0.7,0.2s-0.4,0.3-0.5,0.4c-0.1,0.2-0.2,0.4-0.3,0.6
		c-0.1,0.2-0.1,0.5-0.1,0.8s0,0.5,0.1,0.8c0.1,0.2,0.2,0.5,0.3,0.6c0.1,0.2,0.3,0.3,0.5,0.4s0.4,0.2,0.7,0.2c0.4,0,0.7-0.1,1-0.3
		s0.4-0.5,0.4-0.9h0.8c-0.1,0.6-0.3,1.1-0.7,1.4S114.8,88.8,114.2,88.8z"/>
	<path d="M119.4,88.8c-0.4,0-0.7-0.1-1-0.2s-0.6-0.3-0.8-0.6c-0.2-0.2-0.4-0.5-0.5-0.9c-0.1-0.3-0.2-0.7-0.2-1c0-0.4,0.1-0.7,0.2-1
		s0.3-0.6,0.5-0.9c0.2-0.2,0.5-0.4,0.8-0.6c0.3-0.1,0.6-0.2,1-0.2s0.7,0.1,1,0.2s0.6,0.3,0.8,0.6c0.2,0.2,0.4,0.5,0.5,0.9
		s0.2,0.7,0.2,1c0,0.4-0.1,0.7-0.2,1s-0.3,0.6-0.5,0.9c-0.2,0.2-0.5,0.4-0.8,0.6S119.7,88.8,119.4,88.8z M119.4,88.1
		c0.3,0,0.5-0.1,0.7-0.2s0.4-0.2,0.5-0.4c0.1-0.2,0.2-0.4,0.3-0.6c0.1-0.2,0.1-0.5,0.1-0.8s0-0.5-0.1-0.8c-0.1-0.2-0.2-0.5-0.3-0.6
		c-0.1-0.2-0.3-0.3-0.5-0.4s-0.4-0.2-0.7-0.2c-0.3,0-0.5,0.1-0.7,0.2s-0.4,0.3-0.5,0.4c-0.1,0.2-0.2,0.4-0.3,0.6
		c-0.1,0.2-0.1,0.5-0.1,0.8s0,0.5,0.1,0.8c0.1,0.2,0.2,0.5,0.3,0.6c0.1,0.2,0.3,0.3,0.5,0.4C118.9,88.1,119.1,88.1,119.4,88.1z"/>
	<path d="M122.7,81.6h0.8v7.1h-0.8V81.6z"/>
	<path d="M128,88.6v-0.7l0,0c-0.2,0.3-0.4,0.4-0.6,0.6c-0.2,0.1-0.5,0.2-0.9,0.2c-0.5,0-0.9-0.1-1.3-0.4c-0.3-0.3-0.5-0.7-0.5-1.2
		v-3.5h0.8V87c0,0.3,0.1,0.6,0.3,0.8c0.2,0.2,0.5,0.3,0.8,0.3c0.2,0,0.4,0,0.6-0.1s0.3-0.2,0.4-0.3c0.1-0.1,0.2-0.3,0.3-0.4
		c0.1-0.2,0.1-0.4,0.1-0.6v-3.1h0.8v5.1H128V88.6z"/>
	<path d="M130,83.5h0.8v0.7l0,0c0.2-0.3,0.4-0.5,0.6-0.6s0.6-0.2,0.9-0.2c0.3,0,0.6,0.1,0.8,0.2c0.2,0.2,0.4,0.4,0.5,0.7l0,0
		c0.2-0.3,0.4-0.5,0.7-0.7s0.6-0.2,0.9-0.2c0.5,0,0.8,0.1,1.1,0.4s0.4,0.7,0.4,1.2v3.6H136v-3.5c0-0.3-0.1-0.6-0.3-0.7
		c-0.2-0.2-0.4-0.3-0.7-0.3c-0.2,0-0.3,0-0.5,0.1s-0.3,0.2-0.4,0.3c-0.1,0.1-0.2,0.3-0.3,0.4c-0.1,0.2-0.1,0.4-0.1,0.5v3.2H133v-3.5
		c0-0.3-0.1-0.6-0.2-0.7c-0.2-0.2-0.4-0.3-0.6-0.3c-0.2,0-0.3,0-0.5,0.1s-0.3,0.2-0.4,0.3c-0.1,0.1-0.2,0.3-0.3,0.4
		c-0.1,0.2-0.1,0.4-0.1,0.5v3.2H130V83.5z"/>
	<path d="M138.7,84.2L138.7,84.2c0.2-0.2,0.4-0.4,0.7-0.6c0.3-0.1,0.6-0.2,1-0.2c0.5,0,1,0.1,1.3,0.4s0.5,0.7,0.5,1.2v3.6h-0.8v-3.5
		c0-0.3-0.1-0.6-0.3-0.8c-0.2-0.2-0.5-0.3-0.8-0.3c-0.2,0-0.4,0-0.6,0.1s-0.3,0.2-0.4,0.3s-0.2,0.3-0.3,0.4
		c-0.1,0.2-0.1,0.4-0.1,0.6v3.1h-0.8v-5.1h0.8v0.8H138.7z"/>
	<path d="M143.2,81.6h0.8v1h-0.8V81.6z M143.2,83.5h0.8v5.1h-0.8V83.5z"/>
	<path d="M147.2,88.8c-0.7,0-1.2-0.2-1.6-0.5c-0.4-0.3-0.6-0.8-0.6-1.3h0.8c0,0.2,0.1,0.4,0.2,0.6c0.1,0.1,0.2,0.3,0.3,0.3
		c0.1,0.1,0.3,0.1,0.4,0.2c0.2,0,0.3,0.1,0.5,0.1c0.4,0,0.7-0.1,0.9-0.2c0.2-0.2,0.3-0.4,0.3-0.6c0-0.1,0-0.3-0.1-0.4
		c0-0.1-0.1-0.2-0.2-0.2c-0.1-0.1-0.2-0.1-0.4-0.2c-0.2,0-0.4-0.1-0.6-0.1c-0.3-0.1-0.5-0.1-0.7-0.2s-0.4-0.1-0.6-0.3
		c-0.2-0.1-0.3-0.3-0.4-0.4c-0.1-0.2-0.2-0.4-0.2-0.7c0-0.4,0.2-0.8,0.5-1c0.3-0.3,0.8-0.4,1.4-0.4c0.6,0,1.1,0.1,1.4,0.4
		c0.3,0.3,0.5,0.7,0.6,1.2h-0.8c0-0.3-0.2-0.6-0.3-0.7c-0.2-0.2-0.5-0.2-0.9-0.2s-0.6,0.1-0.8,0.2s-0.2,0.3-0.2,0.5
		c0,0.1,0,0.3,0.1,0.3c0.1,0.1,0.1,0.2,0.3,0.2c0.1,0.1,0.3,0.1,0.4,0.1c0.2,0,0.4,0.1,0.6,0.1c0.3,0.1,0.5,0.1,0.7,0.2
		s0.4,0.2,0.6,0.3c0.2,0.1,0.3,0.3,0.4,0.4c0.1,0.2,0.1,0.4,0.1,0.7c0,0.3,0,0.5-0.1,0.7s-0.2,0.4-0.4,0.5s-0.4,0.2-0.6,0.3
		C147.7,88.8,147.5,88.8,147.2,88.8z"/>
	<path d="M149.7,83.5h0.7v-1.6h0.8v1.6h1v0.7h-1v3.3c0,0.2,0,0.3,0.1,0.4s0.2,0.1,0.4,0.1c0.1,0,0.2,0,0.2,0c0.1,0,0.1,0,0.2,0l0,0
		v0.7c-0.1,0-0.2,0-0.3,0s-0.2,0-0.3,0c-0.3,0-0.6-0.1-0.8-0.2s-0.3-0.4-0.3-0.8v-3.5h-0.7L149.7,83.5L149.7,83.5z"/>
	<path d="M153,89.5c0.1,0,0.2-0.1,0.3-0.2s0.1-0.3,0.1-0.6H153v-1h1v1c0,0.4-0.1,0.6-0.3,0.8c-0.2,0.2-0.4,0.3-0.7,0.4V89.5z"/>
	<path d="M157.5,84.4L157.5,84.4c0.2-0.3,0.4-0.5,0.6-0.6c0.3-0.2,0.6-0.3,0.9-0.3c0.1,0,0.1,0,0.2,0h0.1v0.8l0,0
		c-0.1,0-0.1,0-0.2,0c0,0-0.1,0-0.2,0c-0.2,0-0.4,0-0.6,0.1c-0.2,0.1-0.3,0.2-0.5,0.3c-0.1,0.1-0.2,0.3-0.3,0.5s-0.1,0.4-0.1,0.6
		v2.8h-0.8v-5.1h0.8v0.9H157.5z"/>
	<path d="M162.3,88.8c-0.4,0-0.7-0.1-1-0.2s-0.6-0.3-0.8-0.6c-0.2-0.2-0.4-0.5-0.5-0.9c-0.1-0.3-0.2-0.7-0.2-1c0-0.4,0.1-0.7,0.2-1
		c0.1-0.3,0.3-0.6,0.5-0.9c0.2-0.2,0.5-0.4,0.8-0.6c0.3-0.1,0.6-0.2,1-0.2s0.7,0.1,1,0.2s0.5,0.3,0.7,0.6c0.2,0.3,0.3,0.6,0.4,0.9
		c0.1,0.4,0.2,0.7,0.2,1.2h-4c0,0.3,0.1,0.5,0.1,0.7c0.1,0.2,0.2,0.4,0.3,0.6s0.3,0.3,0.5,0.4s0.4,0.1,0.7,0.1
		c0.4,0,0.7-0.1,0.9-0.3c0.2-0.2,0.4-0.4,0.5-0.8h0.8c-0.1,0.6-0.4,1-0.8,1.3C163.4,88.6,162.9,88.8,162.3,88.8z M162.2,84
		c-0.2,0-0.4,0-0.6,0.1c-0.2,0.1-0.3,0.2-0.5,0.3c-0.1,0.1-0.2,0.3-0.3,0.5s-0.1,0.4-0.2,0.6h3.1c0-0.5-0.2-0.9-0.4-1.2
		C163.1,84.2,162.7,84,162.2,84z"/>
	<path d="M167.5,88.8c-0.3,0-0.7-0.1-0.9-0.2c-0.3-0.1-0.5-0.3-0.7-0.5s-0.3-0.5-0.4-0.8c-0.1-0.3-0.2-0.7-0.2-1.1s0.1-0.8,0.2-1.1
		c0.1-0.3,0.3-0.6,0.5-0.8c0.2-0.2,0.4-0.4,0.7-0.5s0.6-0.2,0.9-0.2c0.4,0,0.7,0.1,0.9,0.2c0.3,0.2,0.5,0.4,0.7,0.6l0,0v-2.7h0.8
		v7.1h-0.8V88l0,0c-0.2,0.3-0.4,0.4-0.7,0.6C168.1,88.7,167.8,88.8,167.5,88.8z M167.5,88.1c0.3,0,0.5-0.1,0.7-0.2s0.4-0.2,0.5-0.4
		c0.1-0.2,0.2-0.4,0.3-0.6s0.1-0.5,0.1-0.8s0-0.6-0.1-0.8c-0.1-0.2-0.2-0.5-0.3-0.6c-0.1-0.2-0.3-0.3-0.5-0.4s-0.4-0.1-0.7-0.1
		c-0.2,0-0.5,0.1-0.6,0.2c-0.2,0.1-0.3,0.2-0.5,0.4c-0.1,0.2-0.2,0.4-0.3,0.6s-0.1,0.5-0.1,0.8s0,0.6,0.1,0.8
		c0.1,0.2,0.2,0.5,0.3,0.6c0.1,0.2,0.3,0.3,0.5,0.4C167,88.1,167.2,88.1,167.5,88.1z"/>
	<path d="M175.1,88.7c-0.5,0-0.8-0.3-0.9-0.8l0,0c-0.1,0.1-0.2,0.2-0.3,0.3c-0.1,0.1-0.2,0.2-0.4,0.3c-0.1,0.1-0.3,0.1-0.5,0.2
		c-0.2,0-0.4,0.1-0.6,0.1c-0.2,0-0.5,0-0.7-0.1s-0.4-0.1-0.5-0.3c-0.2-0.1-0.3-0.3-0.4-0.4c-0.1-0.2-0.1-0.4-0.1-0.6
		c0-0.3,0.1-0.5,0.2-0.7c0.1-0.2,0.3-0.3,0.5-0.5c0.2-0.1,0.4-0.2,0.7-0.3c0.3-0.1,0.6-0.1,0.9-0.2c0.2,0,0.3-0.1,0.5-0.1
		s0.3-0.1,0.4-0.1c0.1,0,0.2-0.1,0.3-0.2s0.1-0.2,0.1-0.3c0-0.3-0.1-0.5-0.3-0.7s-0.5-0.2-0.8-0.2c-0.4,0-0.7,0.1-0.9,0.3
		s-0.3,0.5-0.3,0.9h-1c0-0.2,0.1-0.5,0.1-0.7c0.1-0.2,0.2-0.4,0.4-0.5c0.2-0.2,0.4-0.3,0.6-0.4s0.5-0.1,0.9-0.1c0.3,0,0.5,0,0.8,0.1
		c0.2,0.1,0.4,0.1,0.6,0.3c0.2,0.1,0.3,0.3,0.4,0.5c0.1,0.2,0.1,0.5,0.1,0.8v2.4c0,0.2,0,0.4,0.1,0.5s0.2,0.1,0.4,0.1l0,0v0.6
		c-0.1,0-0.1,0-0.2,0.1C175.2,88.7,175.2,88.7,175.1,88.7z M172.6,88.1c0.3,0,0.5,0,0.7-0.1s0.4-0.2,0.5-0.3
		c0.1-0.1,0.2-0.3,0.3-0.4c0.1-0.2,0.1-0.3,0.1-0.5v-0.9c-0.1,0.1-0.3,0.2-0.5,0.2c-0.2,0.1-0.4,0.1-0.6,0.2c-0.2,0-0.4,0.1-0.6,0.1
		s-0.3,0.1-0.5,0.2c-0.1,0.1-0.2,0.2-0.3,0.3c-0.1,0.1-0.1,0.3-0.1,0.5s0,0.3,0.1,0.4s0.1,0.2,0.2,0.3c0.1,0.1,0.2,0.1,0.3,0.1
		C172.4,88.1,172.5,88.1,172.6,88.1z"/>
	<path d="M178.4,88.8c-0.4,0-0.7-0.1-1-0.2s-0.6-0.3-0.8-0.6c-0.2-0.2-0.4-0.5-0.5-0.9c-0.1-0.3-0.2-0.7-0.2-1c0-0.4,0.1-0.7,0.2-1
		c0.1-0.3,0.3-0.6,0.5-0.9c0.2-0.2,0.5-0.4,0.8-0.6c0.3-0.1,0.6-0.2,1-0.2c0.6,0,1.1,0.2,1.5,0.5s0.6,0.8,0.7,1.3h-0.8
		c-0.1-0.3-0.2-0.6-0.4-0.8c-0.2-0.2-0.5-0.3-0.9-0.3c-0.3,0-0.5,0.1-0.7,0.2s-0.4,0.3-0.5,0.4c-0.1,0.2-0.2,0.4-0.3,0.6
		s-0.1,0.5-0.1,0.8s0,0.5,0.1,0.8c0.1,0.2,0.2,0.5,0.3,0.6c0.1,0.2,0.3,0.3,0.5,0.4s0.4,0.2,0.7,0.2c0.4,0,0.7-0.1,1-0.3
		c0.2-0.2,0.4-0.5,0.4-0.9h0.8c-0.1,0.6-0.3,1.1-0.7,1.4C179.5,88.6,179,88.8,178.4,88.8z"/>
	<path d="M181.2,83.5h0.7v-1.6h0.8v1.6h1v0.7h-1v3.3c0,0.2,0,0.3,0.1,0.4s0.2,0.1,0.4,0.1c0.1,0,0.2,0,0.2,0c0.1,0,0.1,0,0.2,0l0,0
		v0.7c-0.1,0-0.2,0-0.3,0s-0.2,0-0.3,0c-0.3,0-0.6-0.1-0.8-0.2s-0.3-0.4-0.3-0.8v-3.5h-0.7L181.2,83.5L181.2,83.5z"/>
	<path d="M186.8,88.8c-0.4,0-0.7-0.1-1-0.2s-0.6-0.3-0.8-0.6c-0.2-0.2-0.4-0.5-0.5-0.9c-0.1-0.3-0.2-0.7-0.2-1c0-0.4,0.1-0.7,0.2-1
		s0.3-0.6,0.5-0.9c0.2-0.2,0.5-0.4,0.8-0.6c0.3-0.1,0.6-0.2,1-0.2s0.7,0.1,1,0.2s0.5,0.3,0.7,0.6c0.2,0.3,0.3,0.6,0.4,0.9
		c0.1,0.4,0.2,0.7,0.2,1.2h-4c0,0.3,0.1,0.5,0.1,0.7c0.1,0.2,0.2,0.4,0.3,0.6s0.3,0.3,0.5,0.4s0.4,0.1,0.7,0.1
		c0.4,0,0.7-0.1,0.9-0.3c0.2-0.2,0.4-0.4,0.5-0.8h0.8c-0.1,0.6-0.4,1-0.8,1.3C187.8,88.6,187.3,88.8,186.8,88.8z M186.7,84
		c-0.2,0-0.4,0-0.6,0.1c-0.2,0.1-0.3,0.2-0.5,0.3c-0.1,0.1-0.2,0.3-0.3,0.5s-0.1,0.4-0.2,0.6h3.1c0-0.5-0.2-0.9-0.4-1.2
		C187.5,84.2,187.2,84,186.7,84z"/>
	<path d="M193.2,88.6v-0.7l0,0c-0.2,0.3-0.4,0.4-0.6,0.6c-0.2,0.1-0.5,0.2-0.9,0.2c-0.5,0-0.9-0.1-1.3-0.4c-0.3-0.3-0.5-0.7-0.5-1.2
		v-3.5h0.8V87c0,0.3,0.1,0.6,0.3,0.8c0.2,0.2,0.5,0.3,0.8,0.3c0.2,0,0.4,0,0.6-0.1c0.2-0.1,0.3-0.2,0.4-0.3c0.1-0.1,0.2-0.3,0.3-0.4
		c0.1-0.2,0.1-0.4,0.1-0.6v-3.1h0.8v5.1h-0.8V88.6z"/>
	<path d="M196,84.4L196,84.4c0.2-0.3,0.4-0.5,0.6-0.6c0.3-0.2,0.6-0.3,0.9-0.3c0.1,0,0.1,0,0.2,0h0.1v0.8l0,0c-0.1,0-0.1,0-0.2,0
		c0,0-0.1,0-0.2,0c-0.2,0-0.4,0-0.6,0.1c-0.2,0.1-0.3,0.2-0.5,0.3c-0.1,0.1-0.2,0.3-0.3,0.5s-0.1,0.4-0.1,0.6v2.8h-0.8v-5.1h0.8v0.9
		H196z"/>
	<path d="M202.5,88.8c-0.4,0-0.7-0.1-1-0.2s-0.6-0.3-0.8-0.6c-0.2-0.2-0.4-0.5-0.5-0.9c-0.1-0.3-0.2-0.7-0.2-1c0-0.4,0.1-0.7,0.2-1
		c0.1-0.3,0.3-0.6,0.5-0.9c0.2-0.2,0.5-0.4,0.8-0.6c0.3-0.1,0.6-0.2,1-0.2s0.7,0.1,1,0.2s0.5,0.3,0.7,0.6c0.2,0.3,0.3,0.6,0.4,0.9
		c0.1,0.4,0.2,0.7,0.2,1.2h-4c0,0.3,0.1,0.5,0.1,0.7c0.1,0.2,0.2,0.4,0.3,0.6s0.3,0.3,0.5,0.4s0.4,0.1,0.7,0.1
		c0.4,0,0.7-0.1,0.9-0.3c0.2-0.2,0.4-0.4,0.5-0.8h0.8c-0.1,0.6-0.4,1-0.8,1.3C203.6,88.6,203.1,88.8,202.5,88.8z M202.5,84
		c-0.2,0-0.4,0-0.6,0.1c-0.2,0.1-0.3,0.2-0.5,0.3c-0.1,0.1-0.2,0.3-0.3,0.5s-0.1,0.4-0.2,0.6h3.1c0-0.5-0.2-0.9-0.4-1.2
		C203.3,84.2,202.9,84,202.5,84z"/>
	<path d="M206.5,84.2L206.5,84.2c0.2-0.2,0.4-0.4,0.7-0.6c0.3-0.1,0.6-0.2,1-0.2c0.5,0,1,0.1,1.3,0.4s0.5,0.7,0.5,1.2v3.6h-1v-3.5
		c0-0.3-0.1-0.6-0.3-0.8c-0.2-0.2-0.5-0.3-0.8-0.3c-0.2,0-0.4,0-0.6,0.1c-0.2,0.1-0.3,0.2-0.4,0.3c-0.1,0.1-0.2,0.3-0.3,0.4
		c-0.1,0.2-0.1,0.4-0.1,0.6v3.1h-0.8v-5.1h0.8L206.5,84.2L206.5,84.2z"/>
	<path d="M212.2,83.5h0.9l1.1,3.2c0,0.1,0.1,0.2,0.1,0.4c0,0.1,0.1,0.2,0.1,0.4c0,0.1,0.1,0.2,0.1,0.4l0,0c0-0.1,0.1-0.2,0.1-0.4
		c0-0.1,0.1-0.2,0.1-0.4c0-0.1,0.1-0.2,0.1-0.4l1.1-3.2h0.8l-1.8,5.1H214L212.2,83.5z"/>
	<path d="M219.4,88.8c-0.4,0-0.7-0.1-1-0.2s-0.6-0.3-0.8-0.6c-0.2-0.2-0.4-0.5-0.5-0.9c-0.1-0.3-0.2-0.7-0.2-1c0-0.4,0.1-0.7,0.2-1
		c0.1-0.3,0.3-0.6,0.5-0.9c0.2-0.2,0.5-0.4,0.8-0.6c0.3-0.1,0.6-0.2,1-0.2s0.7,0.1,1,0.2s0.6,0.3,0.8,0.6c0.2,0.2,0.4,0.5,0.5,0.9
		c0.1,0.3,0.2,0.7,0.2,1c0,0.4-0.1,0.7-0.2,1c-0.1,0.3-0.3,0.6-0.5,0.9c-0.2,0.2-0.5,0.4-0.8,0.6S219.8,88.8,219.4,88.8z
		 M219.4,88.1c0.3,0,0.5-0.1,0.7-0.2s0.4-0.2,0.5-0.4c0.1-0.2,0.2-0.4,0.3-0.6s0.1-0.5,0.1-0.8s0-0.5-0.1-0.8
		c-0.1-0.2-0.2-0.5-0.3-0.6c-0.1-0.2-0.3-0.3-0.5-0.4s-0.4-0.2-0.7-0.2s-0.5,0.1-0.7,0.2s-0.4,0.3-0.5,0.4c-0.1,0.2-0.2,0.4-0.3,0.6
		s-0.1,0.5-0.1,0.8s0,0.5,0.1,0.8c0.1,0.2,0.2,0.5,0.3,0.6c0.1,0.2,0.3,0.3,0.5,0.4C218.9,88.1,219.1,88.1,219.4,88.1z"/>
	<path d="M225,88.8c-0.4,0-0.7-0.1-1-0.2s-0.6-0.3-0.8-0.6c-0.2-0.2-0.4-0.5-0.5-0.9c-0.1-0.3-0.2-0.7-0.2-1c0-0.4,0.1-0.7,0.2-1
		s0.3-0.6,0.5-0.9c0.2-0.2,0.5-0.4,0.8-0.6c0.3-0.1,0.6-0.2,1-0.2s0.7,0.1,1,0.2s0.5,0.3,0.7,0.6c0.2,0.3,0.3,0.6,0.4,0.9
		c0.1,0.4,0.2,0.7,0.2,1.2h-4c0,0.3,0.1,0.5,0.1,0.7c0.1,0.2,0.2,0.4,0.3,0.6s0.3,0.3,0.5,0.4s0.4,0.1,0.7,0.1
		c0.4,0,0.7-0.1,0.9-0.3c0.2-0.2,0.4-0.4,0.5-0.8h0.8c-0.1,0.6-0.4,1-0.8,1.3C226,88.6,225.5,88.8,225,88.8z M224.9,84
		c-0.2,0-0.4,0-0.6,0.1c-0.2,0.1-0.3,0.2-0.5,0.3c-0.1,0.1-0.2,0.3-0.3,0.5s-0.1,0.4-0.2,0.6h3.1c0-0.5-0.2-0.9-0.4-1.2
		C225.7,84.2,225.4,84,224.9,84z"/>
	<path d="M227.8,83.5h0.7v-1.6h0.8v1.6h1v0.7h-1v3.3c0,0.2,0,0.3,0.1,0.4s0.2,0.1,0.4,0.1c0.1,0,0.2,0,0.2,0c0.1,0,0.1,0,0.2,0l0,0
		v0.7c-0.1,0-0.2,0-0.3,0s-0.2,0-0.3,0c-0.3,0-0.6-0.1-0.8-0.2s-0.3-0.4-0.3-0.8v-3.5h-0.7L227.8,83.5L227.8,83.5z"/>
	<path d="M233.7,88.8c-0.3,0-0.7-0.1-0.9-0.2c-0.3-0.1-0.5-0.3-0.7-0.6l0,0v0.7h-0.8v-7.1h0.8v2.7l0,0c0.2-0.3,0.4-0.5,0.7-0.6
		c0.3-0.2,0.6-0.2,1-0.2c0.3,0,0.6,0.1,0.9,0.2c0.3,0.1,0.5,0.3,0.7,0.5s0.3,0.5,0.4,0.8c0.1,0.3,0.2,0.7,0.2,1.1s0,0.8-0.1,1.1
		c-0.1,0.3-0.2,0.6-0.4,0.8c-0.2,0.2-0.4,0.4-0.7,0.5C234.3,88.7,234,88.8,233.7,88.8z M233.6,88.1c0.2,0,0.5-0.1,0.6-0.2
		c0.2-0.1,0.3-0.2,0.4-0.4c0.1-0.2,0.2-0.4,0.3-0.6s0.1-0.5,0.1-0.8s0-0.5-0.1-0.8c-0.1-0.2-0.1-0.5-0.3-0.6
		c-0.1-0.2-0.3-0.3-0.4-0.4c-0.2-0.1-0.4-0.2-0.6-0.2c-0.3,0-0.5,0.1-0.7,0.2s-0.4,0.3-0.5,0.4c-0.1,0.2-0.2,0.4-0.3,0.6
		s-0.1,0.5-0.1,0.8s0,0.6,0.1,0.8c0.1,0.2,0.2,0.5,0.3,0.6c0.1,0.2,0.3,0.3,0.5,0.4C233.1,88.1,233.4,88.1,233.6,88.1z"/>
	<path d="M240.8,88.7c-0.5,0-0.8-0.3-0.9-0.8l0,0c-0.1,0.1-0.2,0.2-0.3,0.3c-0.1,0.1-0.2,0.2-0.4,0.3c-0.1,0.1-0.3,0.1-0.5,0.2
		c-0.2,0-0.4,0.1-0.6,0.1c-0.2,0-0.5,0-0.7-0.1s-0.4-0.1-0.5-0.3s-0.3-0.3-0.4-0.4c-0.1-0.2-0.1-0.4-0.1-0.6c0-0.3,0.1-0.5,0.2-0.7
		c0.1-0.2,0.3-0.3,0.5-0.5c0.2-0.1,0.4-0.2,0.7-0.3c0.3-0.1,0.6-0.1,0.9-0.2c0.2,0,0.3-0.1,0.5-0.1s0.3-0.1,0.4-0.1
		c0.1,0,0.2-0.1,0.3-0.2s0.1-0.2,0.1-0.3c0-0.3-0.1-0.5-0.3-0.7s-0.5-0.2-0.8-0.2c-0.4,0-0.7,0.1-0.9,0.3s-0.3,0.5-0.3,0.9h-0.8
		c0-0.2,0.1-0.5,0.1-0.7c0.1-0.2,0.2-0.4,0.4-0.5c0.2-0.2,0.4-0.3,0.6-0.4s0.5-0.1,0.9-0.1c0.3,0,0.5,0,0.8,0.1
		c0.2,0.1,0.4,0.1,0.6,0.3c0.2,0.1,0.3,0.3,0.4,0.5c0.1,0.2,0.1,0.5,0.1,0.8v2.4c0,0.2,0,0.4,0.1,0.5s0.2,0.1,0.4,0.1l0,0v0.6
		c-0.1,0-0.1,0-0.2,0.1C241,88.7,240.9,88.7,240.8,88.7z M238.4,88.1c0.3,0,0.5,0,0.7-0.1s0.4-0.2,0.5-0.3c0.1-0.1,0.2-0.3,0.3-0.4
		c0.1-0.2,0.1-0.3,0.1-0.5v-0.9c-0.1,0.1-0.3,0.2-0.5,0.2c-0.2,0.1-0.4,0.1-0.6,0.2c-0.2,0-0.4,0.1-0.6,0.1s-0.3,0.1-0.5,0.2
		c-0.1,0.1-0.2,0.2-0.3,0.3c-0.1,0.1-0.1,0.3-0.1,0.5s0,0.3,0.1,0.4s0.1,0.2,0.2,0.3c0.1,0.1,0.2,0.1,0.3,0.1
		C238.1,88.1,238.3,88.1,238.4,88.1z"/>
	<path d="M242,81.6h0.8v7.1H242V81.6z"/>
	<path d="M246.1,88.8c-0.4,0-0.7-0.1-1-0.2s-0.6-0.3-0.8-0.6c-0.2-0.2-0.4-0.5-0.5-0.9c-0.1-0.3-0.2-0.7-0.2-1c0-0.4,0.1-0.7,0.2-1
		c0.1-0.3,0.3-0.6,0.5-0.9c0.2-0.2,0.5-0.4,0.8-0.6c0.3-0.1,0.6-0.2,1-0.2c0.6,0,1.1,0.2,1.5,0.5s0.6,0.8,0.7,1.3h-0.8
		c-0.1-0.3-0.2-0.6-0.4-0.8c-0.2-0.2-0.5-0.3-0.9-0.3c-0.3,0-0.5,0.1-0.7,0.2s-0.4,0.3-0.5,0.4c-0.1,0.2-0.2,0.4-0.3,0.6
		s-0.1,0.5-0.1,0.8s0,0.5,0.1,0.8c0.1,0.2,0.2,0.5,0.3,0.6c0.1,0.2,0.3,0.3,0.5,0.4s0.4,0.2,0.7,0.2c0.4,0,0.7-0.1,1-0.3
		c0.2-0.2,0.4-0.5,0.4-0.9h0.8c-0.1,0.6-0.3,1.1-0.7,1.4C247.3,88.6,246.8,88.8,246.1,88.8z"/>
	<path d="M250,84.4L250,84.4c0.2-0.3,0.4-0.5,0.6-0.6c0.3-0.2,0.6-0.3,0.9-0.3c0.1,0,0.1,0,0.2,0h0.1v0.8l0,0c-0.1,0-0.1,0-0.2,0
		c0,0-0.1,0-0.2,0c-0.2,0-0.4,0-0.6,0.1c-0.2,0.1-0.3,0.2-0.5,0.3c-0.1,0.1-0.2,0.3-0.3,0.5s-0.1,0.4-0.1,0.6v2.8h-0.8v-5.1h0.8v0.9
		H250z"/>
	<path d="M252.7,81.6h0.8v1h-0.8V81.6z M252.7,83.5h0.8v5.1h-0.8V83.5z"/>
	<path d="M254.4,83.5h0.7v-1.6h0.8v1.6h1v0.7h-1v3.3c0,0.2,0,0.3,0.1,0.4s0.2,0.1,0.4,0.1c0.1,0,0.2,0,0.2,0c0.1,0,0.1,0,0.2,0l0,0
		v0.7c-0.1,0-0.2,0-0.3,0c-0.1,0-0.2,0-0.3,0c-0.3,0-0.6-0.1-0.8-0.2s-0.3-0.4-0.3-0.8v-3.5h-0.7L254.4,83.5L254.4,83.5z"/>
	<path d="M257.8,81.6h0.8v1h-0.8V81.6z M257.8,83.5h0.8v5.1h-0.8V83.5z"/>
	<path d="M262,88.8c-0.4,0-0.7-0.1-1-0.2s-0.6-0.3-0.8-0.6c-0.2-0.2-0.4-0.5-0.5-0.9c-0.1-0.3-0.2-0.7-0.2-1c0-0.4,0.1-0.7,0.2-1
		s0.3-0.6,0.5-0.9c0.2-0.2,0.5-0.4,0.8-0.6c0.3-0.1,0.6-0.2,1-0.2c0.6,0,1.1,0.2,1.5,0.5s0.6,0.8,0.7,1.3h-0.8
		c-0.1-0.3-0.2-0.6-0.4-0.8c-0.2-0.2-0.5-0.3-0.9-0.3c-0.3,0-0.5,0.1-0.7,0.2s-0.4,0.3-0.5,0.4c-0.1,0.2-0.2,0.4-0.3,0.6
		c-0.1,0.2-0.1,0.5-0.1,0.8s0,0.5,0.1,0.8c0.1,0.2,0.2,0.5,0.3,0.6c0.1,0.2,0.3,0.3,0.5,0.4s0.4,0.2,0.7,0.2c0.4,0,0.7-0.1,1-0.3
		c0.2-0.2,0.4-0.5,0.4-0.9h0.8c-0.1,0.6-0.3,1.1-0.7,1.4S262.6,88.8,262,88.8z"/>
	<path d="M268.3,88.6v-0.7l0,0c-0.2,0.3-0.4,0.4-0.6,0.6c-0.2,0.1-0.5,0.2-0.9,0.2c-0.5,0-0.9-0.1-1.3-0.4c-0.3-0.3-0.5-0.7-0.5-1.2
		v-3.5h0.8V87c0,0.3,0.1,0.6,0.3,0.8c0.2,0.2,0.5,0.3,0.8,0.3c0.2,0,0.4,0,0.6-0.1s0.3-0.2,0.4-0.3c0.1-0.1,0.2-0.3,0.3-0.4
		c0.1-0.2,0.1-0.4,0.1-0.6v-3.1h0.8v5.1h-0.8V88.6z"/>
	<path d="M272.2,88.8c-0.7,0-1.2-0.2-1.6-0.5S270,87.5,270,87h0.8c0,0.2,0.1,0.4,0.2,0.6c0.1,0.1,0.2,0.3,0.3,0.3
		c0.1,0.1,0.3,0.1,0.4,0.2c0.2,0,0.3,0.1,0.5,0.1c0.4,0,0.7-0.1,0.9-0.2c0.2-0.2,0.3-0.4,0.3-0.6c0-0.1,0-0.3-0.1-0.4
		c0-0.1-0.1-0.2-0.2-0.2c-0.1-0.1-0.2-0.1-0.4-0.2c-0.2,0-0.4-0.1-0.6-0.1c-0.3-0.1-0.5-0.1-0.7-0.2s-0.4-0.1-0.6-0.3
		c-0.2-0.1-0.3-0.3-0.4-0.4c-0.1-0.2-0.2-0.4-0.2-0.7c0-0.4,0.2-0.8,0.5-1c0.3-0.3,0.8-0.4,1.4-0.4s1.1,0.1,1.4,0.4s0.5,0.7,0.6,1.2
		h-0.8c0-0.3-0.2-0.6-0.3-0.7c-0.2-0.2-0.5-0.2-0.9-0.2s-0.6,0.1-0.8,0.2c-0.2,0.1-0.2,0.3-0.2,0.5c0,0.1,0,0.3,0.1,0.3
		c0.1,0.1,0.1,0.2,0.3,0.2c0.1,0.1,0.3,0.1,0.4,0.1c0.2,0,0.4,0.1,0.6,0.1c0.3,0.1,0.5,0.1,0.7,0.2s0.4,0.2,0.6,0.3
		c0.2,0.1,0.3,0.3,0.4,0.4c0.1,0.2,0.1,0.4,0.1,0.7c0,0.3,0,0.5-0.1,0.7s-0.2,0.4-0.4,0.5c-0.2,0.1-0.4,0.2-0.6,0.3
		C272.7,88.8,272.5,88.8,272.2,88.8z"/>
</g>
</svg>
