<?xml version="1.0" encoding="utf-8"?>
<!-- Generator: Adobe Illustrator 23.0.2, SVG Export Plug-In . SVG Version: 6.00 Build 0)  -->
<svg version="1.1" id="Laag_1" xmlns="http://www.w3.org/2000/svg" xmlns:xlink="http://www.w3.org/1999/xlink" x="0px" y="0px"
	 width="287.2px" height="14.1px" viewBox="0 0 287.2 14.1" style="enable-background:new 0 0 287.2 14.1;" xml:space="preserve">
<style type="text/css">
	.st0{fill:#FFFFFF;}
</style>
<g>
	<path class="st0" d="M0,0h8.6v2.3H2.8v2h5v2.2h-5V9h5.9v2.4H0V0z"/>
	<path class="st0" d="M9.9,3.2h2.5v1.1h0c0.3-0.4,0.7-0.8,1.1-1C13.9,3.1,14.4,3,14.9,3c0.4,0,0.8,0.1,1.2,0.2
		c0.4,0.2,0.6,0.4,0.9,0.6c0.2,0.3,0.4,0.6,0.6,1c0.1,0.4,0.2,0.8,0.2,1.3v5.3h-2.6V6.6c0-0.4-0.1-0.8-0.3-1.1
		c-0.2-0.3-0.5-0.4-1-0.4c-0.4,0-0.8,0.2-1,0.5c-0.3,0.3-0.4,0.7-0.4,1.2v4.5H9.9V3.2z"/>
	<path class="st0" d="M21.4,3.2h2.5v1.2h0c0.3-0.4,0.6-0.8,1-1C25.3,3.1,25.8,3,26.4,3c0.5,0,1,0.1,1.4,0.4c0.4,0.3,0.7,0.6,0.9,1.1
		h0c0.3-0.5,0.7-0.9,1.1-1.1C30.3,3.1,30.8,3,31.3,3c0.5,0,0.9,0.1,1.2,0.2c0.4,0.1,0.6,0.4,0.9,0.6c0.2,0.3,0.4,0.6,0.5,1
		c0.1,0.4,0.2,0.8,0.2,1.3v5.3h-2.6V6.6c0-0.4-0.1-0.8-0.3-1c-0.2-0.2-0.5-0.4-0.9-0.4c-0.4,0-0.7,0.2-1,0.5
		c-0.2,0.3-0.3,0.7-0.3,1.2v4.6h-2.6V6.6c0-0.4-0.1-0.8-0.3-1c-0.2-0.2-0.5-0.4-0.9-0.4c-0.4,0-0.7,0.2-0.9,0.5
		C24.1,5.9,24,6.3,24,6.8v4.6h-2.6V3.2z"/>
	<path class="st0" d="M37.7,11.6c-0.4,0-0.8-0.1-1.1-0.2c-0.3-0.1-0.6-0.3-0.9-0.5c-0.2-0.2-0.4-0.5-0.6-0.8
		c-0.1-0.3-0.2-0.7-0.2-1.1c0-0.4,0.1-0.8,0.2-1.1c0.2-0.3,0.4-0.6,0.7-0.7c0.3-0.2,0.6-0.3,1-0.5c0.4-0.1,0.8-0.2,1.2-0.2
		c0.8-0.1,1.3-0.2,1.6-0.3c0.3-0.1,0.5-0.3,0.5-0.6c0-0.3-0.1-0.5-0.3-0.6c-0.2-0.2-0.5-0.2-0.9-0.2c-0.4,0-0.7,0.1-0.9,0.3
		c-0.2,0.2-0.3,0.4-0.4,0.8h-2.4c0-0.4,0.1-0.7,0.3-1.1c0.2-0.3,0.4-0.6,0.7-0.9c0.3-0.3,0.7-0.5,1.1-0.6C37.8,3.1,38.4,3,39,3
		c0.6,0,1.1,0.1,1.6,0.2c0.4,0.1,0.8,0.3,1.1,0.5c0.4,0.3,0.6,0.6,0.8,1c0.2,0.4,0.3,0.8,0.3,1.4v4.1c0,0.3,0,0.6,0.1,0.8
		c0,0.2,0.1,0.3,0.2,0.4v0.1h-2.5c-0.1-0.1-0.1-0.2-0.2-0.4c0-0.2-0.1-0.3-0.1-0.6h0c-0.2,0.3-0.6,0.6-0.9,0.8
		C38.8,11.5,38.3,11.6,37.7,11.6z M38.5,10c0.5,0,0.9-0.1,1.2-0.4c0.3-0.3,0.5-0.6,0.5-1.1v-1c-0.2,0.1-0.4,0.2-0.6,0.2
		c-0.2,0.1-0.5,0.1-0.7,0.2c-0.5,0.1-0.9,0.3-1.1,0.4c-0.2,0.2-0.3,0.4-0.3,0.7c0,0.3,0.1,0.6,0.3,0.7C37.9,9.9,38.2,10,38.5,10z"/>
	<path class="st0" d="M46.3,11.6c-0.4,0-0.8-0.1-1.1-0.2c-0.3-0.1-0.6-0.3-0.9-0.5c-0.2-0.2-0.4-0.5-0.6-0.8
		c-0.1-0.3-0.2-0.7-0.2-1.1c0-0.4,0.1-0.8,0.2-1.1c0.2-0.3,0.4-0.6,0.7-0.7c0.3-0.2,0.6-0.3,1-0.5c0.4-0.1,0.8-0.2,1.2-0.2
		c0.8-0.1,1.3-0.2,1.6-0.3c0.3-0.1,0.5-0.3,0.5-0.6c0-0.3-0.1-0.5-0.3-0.6c-0.2-0.2-0.5-0.2-0.9-0.2c-0.4,0-0.7,0.1-0.9,0.3
		c-0.2,0.2-0.3,0.4-0.4,0.8h-2.4c0-0.4,0.1-0.7,0.3-1.1c0.2-0.3,0.4-0.6,0.7-0.9c0.3-0.3,0.7-0.5,1.1-0.6C46.4,3.1,47,3,47.6,3
		c0.6,0,1.1,0.1,1.6,0.2s0.8,0.3,1.1,0.5c0.4,0.3,0.6,0.6,0.8,1c0.2,0.4,0.3,0.8,0.3,1.4v4.1c0,0.3,0,0.6,0.1,0.8
		c0,0.2,0.1,0.3,0.2,0.4v0.1h-2.5c-0.1-0.1-0.1-0.2-0.2-0.4c0-0.2-0.1-0.3-0.1-0.6h0c-0.2,0.3-0.6,0.6-0.9,0.8
		C47.4,11.5,46.9,11.6,46.3,11.6z M47.2,10c0.5,0,0.9-0.1,1.2-0.4c0.3-0.3,0.5-0.6,0.5-1.1v-1c-0.2,0.1-0.4,0.2-0.6,0.2
		c-0.2,0.1-0.5,0.1-0.7,0.2c-0.5,0.1-0.9,0.3-1.1,0.4C46.1,8.5,46,8.7,46,9c0,0.3,0.1,0.6,0.3,0.7C46.6,9.9,46.8,10,47.2,10z"/>
	<path class="st0" d="M52.5,0h2.6v6l2.4-2.8h3l-2.9,3.1l3.2,5.1h-3l-2-3.3l-0.8,0.8v2.5h-2.6V0z"/>
	<path class="st0" d="M64,0h2.6v6l2.4-2.8h3l-2.9,3.1l3.2,5.1h-3l-2-3.3l-0.8,0.8v2.5H64V0z"/>
	<path class="st0" d="M75.6,11.6c-0.4,0-0.8-0.1-1.1-0.2c-0.3-0.1-0.6-0.3-0.9-0.5c-0.2-0.2-0.4-0.5-0.6-0.8
		c-0.1-0.3-0.2-0.7-0.2-1.1c0-0.4,0.1-0.8,0.2-1.1c0.2-0.3,0.4-0.6,0.7-0.7c0.3-0.2,0.6-0.3,1-0.5c0.4-0.1,0.8-0.2,1.2-0.2
		c0.8-0.1,1.3-0.2,1.6-0.3C77.8,6.1,78,5.9,78,5.6c0-0.3-0.1-0.5-0.3-0.6c-0.2-0.2-0.5-0.2-0.9-0.2c-0.4,0-0.7,0.1-0.9,0.3
		c-0.2,0.2-0.3,0.4-0.4,0.8h-2.4c0-0.4,0.1-0.7,0.3-1.1c0.2-0.3,0.4-0.6,0.7-0.9c0.3-0.3,0.7-0.5,1.1-0.6c0.5-0.1,1-0.2,1.6-0.2
		c0.6,0,1.1,0.1,1.6,0.2s0.8,0.3,1.1,0.5c0.4,0.3,0.6,0.6,0.8,1c0.2,0.4,0.3,0.8,0.3,1.4v4.1c0,0.3,0,0.6,0.1,0.8
		c0,0.2,0.1,0.3,0.2,0.4v0.1h-2.5c-0.1-0.1-0.1-0.2-0.2-0.4c0-0.2-0.1-0.3-0.1-0.6h0c-0.2,0.3-0.6,0.6-0.9,0.8
		C76.7,11.5,76.2,11.6,75.6,11.6z M76.4,10c0.5,0,0.9-0.1,1.2-0.4c0.3-0.3,0.5-0.6,0.5-1.1v-1c-0.2,0.1-0.4,0.2-0.6,0.2
		c-0.2,0.1-0.5,0.1-0.7,0.2c-0.5,0.1-0.9,0.3-1.1,0.4c-0.2,0.2-0.3,0.4-0.3,0.7c0,0.3,0.1,0.6,0.3,0.7C75.8,9.9,76.1,10,76.4,10z"/>
	<path class="st0" d="M81.8,3.2h2.5v1.1h0c0.3-0.4,0.7-0.8,1.1-1C85.8,3.1,86.3,3,86.9,3c0.4,0,0.8,0.1,1.2,0.2
		c0.4,0.2,0.6,0.4,0.9,0.6c0.2,0.3,0.4,0.6,0.6,1c0.1,0.4,0.2,0.8,0.2,1.3v5.3h-2.6V6.6c0-0.4-0.1-0.8-0.3-1.1
		c-0.2-0.3-0.5-0.4-1-0.4c-0.4,0-0.8,0.2-1,0.5c-0.3,0.3-0.4,0.7-0.4,1.2v4.5h-2.6V3.2z"/>
	<path class="st0" d="M94.4,11.7c-1.2,0-2.2-0.3-2.9-0.8c-0.7-0.5-1.1-1.2-1.1-2.1h2.5c0.1,0.4,0.2,0.7,0.5,0.9
		c0.3,0.2,0.6,0.3,1,0.3c0.4,0,0.7-0.1,0.9-0.2s0.3-0.3,0.3-0.6c0-0.2-0.1-0.3-0.2-0.4c-0.1-0.1-0.3-0.2-0.5-0.3
		c-0.2-0.1-0.4-0.1-0.7-0.2c-0.2,0-0.5-0.1-0.8-0.1c-0.4-0.1-0.7-0.1-1.1-0.2c-0.4-0.1-0.7-0.2-0.9-0.4c-0.3-0.2-0.5-0.4-0.7-0.7
		c-0.2-0.3-0.3-0.7-0.3-1.2c0-0.4,0.1-0.8,0.3-1.1c0.2-0.3,0.4-0.6,0.8-0.8c0.3-0.2,0.7-0.4,1.1-0.5C93.2,3.1,93.7,3,94.1,3
		c1.2,0,2,0.2,2.7,0.7c0.6,0.5,1,1.1,1,1.9h-2.4C95.4,5.2,95.2,5,95,4.9c-0.2-0.1-0.5-0.2-0.9-0.2c-0.3,0-0.6,0.1-0.8,0.2
		C93.1,5,93,5.2,93,5.4c0,0.1,0.1,0.3,0.2,0.4c0.1,0.1,0.2,0.2,0.4,0.2C93.8,6,94,6.1,94.2,6.1c0.2,0,0.5,0.1,0.7,0.1
		c0.4,0.1,0.7,0.1,1.1,0.2c0.4,0.1,0.7,0.2,1,0.4c0.3,0.2,0.6,0.4,0.7,0.8C98,8,98.1,8.4,98.1,8.9c0,0.4-0.1,0.8-0.3,1.2
		c-0.2,0.3-0.4,0.6-0.8,0.8c-0.3,0.2-0.7,0.4-1.2,0.5C95.4,11.6,94.9,11.7,94.4,11.7z"/>
	<path class="st0" d="M105.4,11.7c-0.7,0-1.3-0.1-1.8-0.3c-0.5-0.2-1-0.5-1.4-0.9c-0.4-0.4-0.7-0.8-0.9-1.4C101.1,8.5,101,8,101,7.3
		c0-0.6,0.1-1.2,0.3-1.7c0.2-0.5,0.5-1,0.9-1.4c0.4-0.4,0.8-0.7,1.4-0.9c0.5-0.2,1.1-0.3,1.8-0.3c0.7,0,1.3,0.1,1.8,0.3
		c0.5,0.2,1,0.5,1.4,0.9c0.4,0.4,0.7,0.8,0.9,1.4c0.2,0.5,0.3,1.1,0.3,1.7c0,0.6-0.1,1.2-0.3,1.7c-0.2,0.5-0.5,1-0.9,1.4
		s-0.8,0.7-1.4,0.9C106.7,11.6,106.1,11.7,105.4,11.7z M105.4,9.8c0.6,0,1-0.2,1.3-0.7c0.3-0.5,0.4-1.1,0.4-1.8
		c0-0.7-0.1-1.3-0.4-1.8s-0.7-0.7-1.3-0.7s-1,0.2-1.3,0.7c-0.3,0.5-0.4,1.1-0.4,1.8c0,0.7,0.1,1.3,0.4,1.8
		C104.4,9.6,104.8,9.8,105.4,9.8z"/>
	<path class="st0" d="M110.6,3.2h2.5v1h0c0.3-0.4,0.6-0.7,1-0.9c0.4-0.2,0.9-0.3,1.5-0.3c0.5,0,1,0.1,1.5,0.3
		c0.4,0.2,0.8,0.5,1.1,0.9c0.3,0.4,0.5,0.8,0.7,1.4c0.2,0.5,0.2,1.1,0.2,1.7c0,0.7-0.1,1.3-0.3,1.8c-0.2,0.5-0.4,1-0.7,1.4
		c-0.3,0.4-0.7,0.7-1.1,0.9c-0.4,0.2-0.9,0.3-1.5,0.3c-0.5,0-1-0.1-1.4-0.3c-0.4-0.2-0.7-0.5-0.9-0.8h0v3.5h-2.6V3.2z M114.9,9.7
		c0.5,0,0.9-0.2,1.2-0.6c0.3-0.4,0.4-0.9,0.4-1.6s-0.1-1.3-0.4-1.7c-0.3-0.4-0.7-0.6-1.2-0.6c-0.3,0-0.5,0.1-0.7,0.2
		c-0.2,0.1-0.4,0.3-0.5,0.5c-0.1,0.2-0.2,0.5-0.3,0.7c-0.1,0.3-0.1,0.6-0.1,0.9c0,0.7,0.2,1.2,0.5,1.6
		C113.9,9.4,114.4,9.7,114.9,9.7z"/>
	<path class="st0" d="M126.5,11.6c-0.7,0-1.3-0.1-1.8-0.3c-0.5-0.2-1-0.5-1.4-0.9c-0.4-0.4-0.7-0.8-0.9-1.4
		c-0.2-0.5-0.3-1.1-0.3-1.7c0-0.6,0.1-1.2,0.3-1.7c0.2-0.5,0.5-1,0.9-1.4c0.4-0.4,0.8-0.7,1.3-0.9c0.5-0.2,1.1-0.3,1.7-0.3
		c0.6,0,1.1,0.1,1.6,0.3c0.5,0.2,0.9,0.4,1.2,0.7c0.5,0.4,0.9,1,1.1,1.7s0.4,1.4,0.3,2.3h-5.9c0.1,0.6,0.3,1,0.6,1.3
		c0.3,0.3,0.7,0.5,1.3,0.5c0.3,0,0.6-0.1,0.8-0.2c0.2-0.1,0.4-0.3,0.5-0.6h2.5c-0.1,0.4-0.2,0.7-0.5,1.1c-0.2,0.3-0.5,0.6-0.9,0.9
		c-0.3,0.2-0.7,0.4-1.1,0.6C127.5,11.6,127,11.6,126.5,11.6z M127.9,6.4c-0.1-0.5-0.2-0.9-0.5-1.2c-0.3-0.3-0.6-0.4-1.1-0.4
		c-0.5,0-0.9,0.1-1.1,0.4c-0.3,0.3-0.4,0.7-0.5,1.2H127.9z"/>
	<path class="st0" d="M135.4,11.6c-0.7,0-1.3-0.1-1.8-0.3c-0.5-0.2-1-0.5-1.4-0.9c-0.4-0.4-0.7-0.8-0.9-1.4
		c-0.2-0.5-0.3-1.1-0.3-1.7c0-0.6,0.1-1.2,0.3-1.7c0.2-0.5,0.5-1,0.9-1.4c0.4-0.4,0.8-0.7,1.3-0.9c0.5-0.2,1.1-0.3,1.7-0.3
		c0.6,0,1.1,0.1,1.6,0.3c0.5,0.2,0.9,0.4,1.2,0.7c0.5,0.4,0.9,1,1.1,1.7s0.4,1.4,0.3,2.3h-5.9c0.1,0.6,0.3,1,0.6,1.3
		c0.3,0.3,0.7,0.5,1.3,0.5c0.3,0,0.6-0.1,0.8-0.2c0.2-0.1,0.4-0.3,0.5-0.6h2.5c-0.1,0.4-0.2,0.7-0.5,1.1c-0.2,0.3-0.5,0.6-0.9,0.9
		c-0.3,0.2-0.7,0.4-1.1,0.6C136.4,11.6,135.9,11.6,135.4,11.6z M136.9,6.4c-0.1-0.5-0.2-0.9-0.5-1.2c-0.3-0.3-0.6-0.4-1.1-0.4
		c-0.5,0-0.9,0.1-1.1,0.4c-0.3,0.3-0.4,0.7-0.5,1.2H136.9z"/>
	<path class="st0" d="M140.4,3.2h2.5v1.1h0c0.3-0.4,0.7-0.8,1.1-1c0.4-0.2,0.9-0.3,1.5-0.3c0.4,0,0.8,0.1,1.2,0.2
		c0.4,0.2,0.6,0.4,0.9,0.6c0.2,0.3,0.4,0.6,0.6,1s0.2,0.8,0.2,1.3v5.3h-2.6V6.6c0-0.4-0.1-0.8-0.3-1.1c-0.2-0.3-0.5-0.4-1-0.4
		c-0.4,0-0.8,0.2-1,0.5C143.1,6,143,6.4,143,6.9v4.5h-2.6V3.2z"/>
	<path class="st0" d="M151.9,3.2h2.5v1.3h0c0.3-0.5,0.6-0.8,1-1.1c0.4-0.2,0.8-0.3,1.3-0.3c0.2,0,0.4,0,0.5,0.1v2.2h-0.1
		c-0.8-0.1-1.4,0-1.9,0.4c-0.5,0.4-0.7,1-0.7,1.9v3.7h-2.6V3.2z"/>
	<path class="st0" d="M161.9,11.6c-0.7,0-1.3-0.1-1.8-0.3c-0.5-0.2-1-0.5-1.4-0.9c-0.4-0.4-0.7-0.8-0.9-1.4
		c-0.2-0.5-0.3-1.1-0.3-1.7c0-0.6,0.1-1.2,0.3-1.7c0.2-0.5,0.5-1,0.9-1.4c0.4-0.4,0.8-0.7,1.3-0.9c0.5-0.2,1.1-0.3,1.7-0.3
		c0.6,0,1.1,0.1,1.6,0.3c0.5,0.2,0.9,0.4,1.2,0.7c0.5,0.4,0.9,1,1.1,1.7s0.4,1.4,0.3,2.3h-5.9c0.1,0.6,0.3,1,0.6,1.3
		c0.3,0.3,0.7,0.5,1.3,0.5c0.3,0,0.6-0.1,0.8-0.2c0.2-0.1,0.4-0.3,0.5-0.6h2.5c-0.1,0.4-0.2,0.7-0.5,1.1c-0.2,0.3-0.5,0.6-0.9,0.9
		c-0.3,0.2-0.7,0.4-1.1,0.6C162.9,11.6,162.4,11.6,161.9,11.6z M163.3,6.4c-0.1-0.5-0.2-0.9-0.5-1.2c-0.3-0.3-0.6-0.4-1.1-0.4
		c-0.5,0-0.9,0.1-1.1,0.4c-0.3,0.3-0.4,0.7-0.5,1.2H163.3z"/>
	<path class="st0" d="M166.8,0h2.6v2.1h-2.6V0z M166.8,3.2h2.6v8.2h-2.6V3.2z"/>
	<path class="st0" d="M174.1,11.7c-1.2,0-2.2-0.3-2.9-0.8c-0.7-0.5-1.1-1.2-1.1-2.1h2.5c0.1,0.4,0.2,0.7,0.5,0.9
		c0.3,0.2,0.6,0.3,1,0.3c0.4,0,0.7-0.1,0.9-0.2s0.3-0.3,0.3-0.6c0-0.2-0.1-0.3-0.2-0.4c-0.1-0.1-0.3-0.2-0.5-0.3
		c-0.2-0.1-0.4-0.1-0.7-0.2c-0.2,0-0.5-0.1-0.8-0.1c-0.4-0.1-0.7-0.1-1.1-0.2c-0.4-0.1-0.7-0.2-0.9-0.4c-0.3-0.2-0.5-0.4-0.7-0.7
		c-0.2-0.3-0.3-0.7-0.3-1.2c0-0.4,0.1-0.8,0.3-1.1c0.2-0.3,0.4-0.6,0.8-0.8c0.3-0.2,0.7-0.4,1.1-0.5c0.4-0.1,0.9-0.2,1.4-0.2
		c1.2,0,2,0.2,2.7,0.7c0.6,0.5,1,1.1,1,1.9h-2.4c-0.1-0.4-0.2-0.6-0.4-0.8c-0.2-0.1-0.5-0.2-0.9-0.2c-0.3,0-0.6,0.1-0.8,0.2
		s-0.3,0.3-0.3,0.6c0,0.1,0.1,0.3,0.2,0.4c0.1,0.1,0.2,0.2,0.4,0.2c0.2,0.1,0.4,0.1,0.6,0.2c0.2,0,0.5,0.1,0.7,0.1
		c0.4,0.1,0.7,0.1,1.1,0.2c0.4,0.1,0.7,0.2,1,0.4c0.3,0.2,0.6,0.4,0.7,0.8c0.2,0.3,0.3,0.7,0.3,1.3c0,0.4-0.1,0.8-0.3,1.2
		c-0.2,0.3-0.4,0.6-0.8,0.8c-0.3,0.2-0.7,0.4-1.2,0.5C175.2,11.6,174.7,11.7,174.1,11.7z"/>
	<path class="st0" d="M181.2,3.2h2.5v1.1h0c0.3-0.4,0.7-0.8,1.1-1c0.4-0.2,0.9-0.3,1.5-0.3c0.4,0,0.8,0.1,1.2,0.2
		c0.4,0.2,0.6,0.4,0.9,0.6c0.2,0.3,0.4,0.6,0.6,1s0.2,0.8,0.2,1.3v5.3h-2.6V6.6c0-0.4-0.1-0.8-0.3-1.1c-0.2-0.3-0.5-0.4-1-0.4
		c-0.4,0-0.8,0.2-1,0.5c-0.3,0.3-0.4,0.7-0.4,1.2v4.5h-2.6V3.2z"/>
	<path class="st0" d="M192.7,11.6c-0.4,0-0.8-0.1-1.1-0.2c-0.3-0.1-0.6-0.3-0.9-0.5c-0.2-0.2-0.4-0.5-0.6-0.8
		c-0.1-0.3-0.2-0.7-0.2-1.1c0-0.4,0.1-0.8,0.2-1.1c0.2-0.3,0.4-0.6,0.7-0.7c0.3-0.2,0.6-0.3,1-0.5c0.4-0.1,0.8-0.2,1.2-0.2
		c0.8-0.1,1.3-0.2,1.6-0.3c0.3-0.1,0.5-0.3,0.5-0.6c0-0.3-0.1-0.5-0.3-0.6c-0.2-0.2-0.5-0.2-0.9-0.2c-0.4,0-0.7,0.1-0.9,0.3
		c-0.2,0.2-0.3,0.4-0.4,0.8h-2.4c0-0.4,0.1-0.7,0.3-1.1c0.2-0.3,0.4-0.6,0.7-0.9c0.3-0.3,0.7-0.5,1.1-0.6c0.5-0.1,1-0.2,1.6-0.2
		c0.6,0,1.1,0.1,1.6,0.2c0.4,0.1,0.8,0.3,1.1,0.5c0.4,0.3,0.6,0.6,0.8,1c0.2,0.4,0.3,0.8,0.3,1.4v4.1c0,0.3,0,0.6,0.1,0.8
		c0,0.2,0.1,0.3,0.2,0.4v0.1h-2.5c-0.1-0.1-0.1-0.2-0.2-0.4c0-0.2-0.1-0.3-0.1-0.6h0c-0.2,0.3-0.6,0.6-0.9,0.8
		C193.8,11.5,193.3,11.6,192.7,11.6z M193.5,10c0.5,0,0.9-0.1,1.2-0.4c0.3-0.3,0.5-0.6,0.5-1.1v-1c-0.2,0.1-0.4,0.2-0.6,0.2
		c-0.2,0.1-0.5,0.1-0.7,0.2c-0.5,0.1-0.9,0.3-1.1,0.4c-0.2,0.2-0.3,0.4-0.3,0.7c0,0.3,0.1,0.6,0.3,0.7C192.9,9.9,193.2,10,193.5,10z
		"/>
	<path class="st0" d="M201.3,11.6c-0.4,0-0.8-0.1-1.1-0.2c-0.3-0.1-0.6-0.3-0.9-0.5c-0.2-0.2-0.4-0.5-0.6-0.8
		c-0.1-0.3-0.2-0.7-0.2-1.1c0-0.4,0.1-0.8,0.2-1.1c0.2-0.3,0.4-0.6,0.7-0.7c0.3-0.2,0.6-0.3,1-0.5c0.4-0.1,0.8-0.2,1.2-0.2
		c0.8-0.1,1.3-0.2,1.6-0.3c0.3-0.1,0.5-0.3,0.5-0.6c0-0.3-0.1-0.5-0.3-0.6c-0.2-0.2-0.5-0.2-0.9-0.2c-0.4,0-0.7,0.1-0.9,0.3
		c-0.2,0.2-0.3,0.4-0.4,0.8h-2.4c0-0.4,0.1-0.7,0.3-1.1c0.2-0.3,0.4-0.6,0.7-0.9c0.3-0.3,0.7-0.5,1.1-0.6c0.5-0.1,1-0.2,1.6-0.2
		c0.6,0,1.1,0.1,1.6,0.2s0.8,0.3,1.1,0.5c0.4,0.3,0.6,0.6,0.8,1c0.2,0.4,0.3,0.8,0.3,1.4v4.1c0,0.3,0,0.6,0.1,0.8
		c0,0.2,0.1,0.3,0.2,0.4v0.1H204c-0.1-0.1-0.1-0.2-0.2-0.4c0-0.2-0.1-0.3-0.1-0.6h0c-0.2,0.3-0.6,0.6-0.9,0.8
		C202.4,11.5,201.9,11.6,201.3,11.6z M202.1,10c0.5,0,0.9-0.1,1.2-0.4c0.3-0.3,0.5-0.6,0.5-1.1v-1c-0.2,0.1-0.4,0.2-0.6,0.2
		c-0.2,0.1-0.5,0.1-0.7,0.2c-0.5,0.1-0.9,0.3-1.1,0.4C201.1,8.5,201,8.7,201,9c0,0.3,0.1,0.6,0.3,0.7C201.5,9.9,201.8,10,202.1,10z"
		/>
	<path class="st0" d="M207.5,3.2h2.5v1.3h0c0.3-0.5,0.6-0.8,1-1.1c0.4-0.2,0.8-0.3,1.3-0.3c0.2,0,0.4,0,0.5,0.1v2.2h-0.1
		c-0.8-0.1-1.4,0-1.9,0.4c-0.5,0.4-0.7,1-0.7,1.9v3.7h-2.6V3.2z"/>
	<path class="st0" d="M216.3,0h2.8l3.4,5.7c0,0.1,0.1,0.2,0.2,0.4c0.1,0.2,0.2,0.3,0.3,0.5c0.1,0.2,0.2,0.4,0.3,0.6h0
		c0-0.3,0-0.5,0-0.7c0-0.2,0-0.4,0-0.6c0-0.2,0-0.3,0-0.4V0h2.8v11.4h-2.8l-3.3-5.6c-0.1-0.1-0.1-0.2-0.2-0.4
		c-0.1-0.2-0.2-0.3-0.3-0.5c-0.1-0.2-0.2-0.4-0.3-0.7h0c0,0.3,0,0.5,0,0.8c0,0.2,0,0.4,0,0.6c0,0.2,0,0.4,0,0.5v5.3h-2.8V0z"/>
	<path class="st0" d="M231.4,11.6c-0.7,0-1.3-0.1-1.8-0.3c-0.5-0.2-1-0.5-1.4-0.9c-0.4-0.4-0.7-0.8-0.9-1.4
		c-0.2-0.5-0.3-1.1-0.3-1.7c0-0.6,0.1-1.2,0.3-1.7c0.2-0.5,0.5-1,0.9-1.4c0.4-0.4,0.8-0.7,1.3-0.9c0.5-0.2,1.1-0.3,1.7-0.3
		c0.6,0,1.1,0.1,1.6,0.3c0.5,0.2,0.9,0.4,1.2,0.7c0.5,0.4,0.9,1,1.1,1.7s0.4,1.4,0.3,2.3h-5.9c0.1,0.6,0.3,1,0.6,1.3
		c0.3,0.3,0.7,0.5,1.3,0.5c0.3,0,0.6-0.1,0.8-0.2c0.2-0.1,0.4-0.3,0.5-0.6h2.5c-0.1,0.4-0.2,0.7-0.5,1.1c-0.2,0.3-0.5,0.6-0.9,0.9
		c-0.3,0.2-0.7,0.4-1.1,0.6C232.4,11.6,231.9,11.6,231.4,11.6z M232.9,6.4c-0.1-0.5-0.2-0.9-0.5-1.2c-0.3-0.3-0.6-0.4-1.1-0.4
		c-0.5,0-0.9,0.1-1.1,0.4c-0.3,0.3-0.4,0.7-0.5,1.2H232.9z"/>
	<path class="st0" d="M235.7,3.2h2.6l0.9,3.4c0,0.2,0.1,0.3,0.1,0.5c0,0.2,0.1,0.4,0.1,0.5c0,0.2,0.1,0.4,0.1,0.5h0l0.1-0.6
		c0-0.2,0.1-0.3,0.1-0.5c0-0.2,0.1-0.4,0.1-0.6l0.9-3.3h2.2l0.9,3.3c0,0.2,0.1,0.4,0.1,0.6c0,0.2,0.1,0.4,0.1,0.5
		c0,0.2,0.1,0.4,0.1,0.6h0c0-0.2,0.1-0.4,0.1-0.6c0-0.2,0.1-0.3,0.1-0.5c0-0.2,0.1-0.4,0.1-0.5l0.9-3.4h2.6l-2.5,8.2h-2.4l-1-3.7
		c-0.1-0.2-0.1-0.3-0.1-0.5c0-0.2-0.1-0.3-0.1-0.5c0-0.2-0.1-0.3-0.1-0.5h0c0,0.2-0.1,0.3-0.1,0.5c0,0.1-0.1,0.3-0.1,0.5
		c0,0.2-0.1,0.3-0.1,0.5l-1,3.7h-2.4L235.7,3.2z"/>
	<path class="st0" d="M253.9,7.2L250,0h3.1l1.5,3c0.1,0.2,0.2,0.4,0.3,0.6c0.1,0.2,0.2,0.4,0.2,0.6c0.1,0.2,0.2,0.4,0.2,0.6h0
		c0.1-0.2,0.2-0.4,0.2-0.6c0.1-0.2,0.2-0.4,0.3-0.6c0.1-0.2,0.2-0.4,0.3-0.6l1.5-3h3l-3.9,7.2v4.2h-2.8V7.2z"/>
	<path class="st0" d="M264,11.7c-0.7,0-1.3-0.1-1.8-0.3c-0.5-0.2-1-0.5-1.4-0.9c-0.4-0.4-0.7-0.8-0.9-1.4s-0.3-1.1-0.3-1.7
		c0-0.6,0.1-1.2,0.3-1.7s0.5-1,0.9-1.4c0.4-0.4,0.8-0.7,1.4-0.9c0.5-0.2,1.1-0.3,1.8-0.3c0.7,0,1.3,0.1,1.8,0.3
		c0.5,0.2,1,0.5,1.4,0.9c0.4,0.4,0.7,0.8,0.9,1.4s0.3,1.1,0.3,1.7c0,0.6-0.1,1.2-0.3,1.7s-0.5,1-0.9,1.4c-0.4,0.4-0.8,0.7-1.4,0.9
		C265.2,11.6,264.6,11.7,264,11.7z M264,9.8c0.6,0,1-0.2,1.3-0.7c0.3-0.5,0.4-1.1,0.4-1.8c0-0.7-0.1-1.3-0.4-1.8
		c-0.3-0.5-0.7-0.7-1.3-0.7c-0.6,0-1,0.2-1.3,0.7c-0.3,0.5-0.4,1.1-0.4,1.8c0,0.7,0.1,1.3,0.4,1.8C263,9.6,263.4,9.8,264,9.8z"/>
	<path class="st0" d="M269.2,3.2h2.5v1.3h0c0.3-0.5,0.6-0.8,1-1.1c0.4-0.2,0.8-0.3,1.3-0.3c0.2,0,0.4,0,0.5,0.1v2.2h-0.1
		c-0.8-0.1-1.4,0-1.9,0.4c-0.5,0.4-0.7,1-0.7,1.9v3.7h-2.6V3.2z"/>
	<path class="st0" d="M275.4,0h2.6v6l2.4-2.8h3l-2.9,3.1l3.2,5.1h-3l-2-3.3l-0.8,0.8v2.5h-2.6V0z"/>
	<path class="st0" d="M284.4,8.7h2.7v2.7h-2.7V8.7z M284.5,2.7V0h2.7v2.7l-0.7,5h-1.3L284.5,2.7z"/>
</g>
</svg>
