<?xml version="1.0" encoding="utf-8"?>
<!-- Generator: Adobe Illustrator 24.0.0, SVG Export Plug-In . SVG Version: 6.00 Build 0)  -->
<svg version="1.1" id="Laag_1" xmlns="http://www.w3.org/2000/svg" xmlns:xlink="http://www.w3.org/1999/xlink" x="0px" y="0px"
	 width="127.2px" height="46.3px" viewBox="0 0 127.2 46.3" style="enable-background:new 0 0 127.2 46.3;" xml:space="preserve">
<style type="text/css">
	.st0{fill:#3D2B77;}
</style>
<g>
	<path class="st0" d="M0.6,0.7h2V6l6.4-5.4h2.8L7.4,4.3l4.6,6H9.5L5.9,5.6L2.5,8.3v2h-2V0.7z"/>
	<path class="st0" d="M13.2,6.9c0-2.2,1.7-3.7,4.3-3.7c2.6,0,4.3,1.5,4.3,3.7c0,2.2-1.7,3.7-4.3,3.7C14.9,10.6,13.2,9.1,13.2,6.9z
		 M20.1,6.9c0-1.3-1-2.2-2.5-2.2C16,4.7,15,5.6,15,6.9C15,8.2,16,9,17.5,9C19,9,20.1,8.2,20.1,6.9z"/>
	<path class="st0" d="M23.2,3.4h2.2l-0.3,2.9h0.1c0.3-1.8,1.3-3.1,3.4-3.1c1.7,0,2.6,0.9,2.8,3.1h0.1c0.3-1.8,1.3-3.1,3.4-3.1
		c2,0,2.9,1.1,2.9,4.1v3h-2V7.6c0-2.1-0.6-2.9-1.9-2.9c-1.5,0-2.5,1.5-2.5,3.8v1.9h-2V7.6c0-2.1-0.6-2.9-1.9-2.9
		c-1.5,0-2.4,1.5-2.4,3.8v1.9h-2V3.4z"/>
	<path class="st0" d="M43.3,0.7h2v9.7h-2V0.7z"/>
	<path class="st0" d="M55.1,10.3h-2.2l0.3-2.9h-0.1c-0.3,1.8-1.3,3.1-3.4,3.1c-2,0-2.9-1.1-2.9-4.1v-3h2v2.8c0,2.1,0.6,2.9,1.9,2.9
		c1.5,0,2.4-1.5,2.4-3.8V3.4h2V10.3z"/>
	<path class="st0" d="M56.6,1.1c0-0.7,0.5-1.1,1.2-1.1C58.6,0,59,0.4,59,1.1c0,0.8-0.5,1.1-1.2,1.1C57.1,2.2,56.6,1.9,56.6,1.1z
		 M56.8,3.4h2v6.9h-2V3.4z"/>
	<path class="st0" d="M60.6,10V8.4C61.8,8.8,62.8,9,64,9c1.7,0,2.4-0.2,2.4-0.8c0-1.3-6.2,0.2-6.2-2.8c0-1.6,1.6-2.3,4.1-2.3
		c0.8,0,2.3,0.2,3.5,0.4v1.6c-1-0.2-2.2-0.4-3.3-0.4c-1.6,0-2.3,0.2-2.3,0.7c0,1.3,6.1-0.2,6.1,2.8c0,1.6-1.6,2.3-4.1,2.3
		C63.3,10.6,61.8,10.4,60.6,10z"/>
	<path class="st0" d="M70.5,7.8v-3h-1V3.4h1.1V1.8l1.9-0.3v1.9h2v1.4h-2v2.6c0,1.4,0,1.8,1.3,1.8c0.2,0,0.4,0,0.7,0v1
		c-0.6,0.2-1.1,0.3-1.9,0.3C70.7,10.5,70.5,9.8,70.5,7.8z"/>
	<path class="st0" d="M75.4,6.9c0-2.2,1.7-3.7,4.2-3.7c2.5,0,4.1,1.3,4.2,3.1v1.1h-6.4c0.2,1.1,1.1,1.6,2.9,1.6
		c1.7,0,2.4-0.4,3.2-0.8v1.6c-1.3,0.5-2.1,0.7-3.9,0.7C77,10.6,75.4,9.1,75.4,6.9z M81.8,6.4c0-1-1-1.7-2.3-1.7
		c-1.2,0-2.1,0.7-2.2,1.8L81.8,6.4z"/>
	<path class="st0" d="M85,3.4h2.2L86.9,6H87c0.4-2,1.4-2.8,4-2.8v1.6C88.1,4.8,87,5.8,87,8v2.3h-2V3.4z"/>
	<path class="st0" d="M91.9,6.9c0-2.2,1.7-3.7,4.2-3.7c2.5,0,4.1,1.3,4.2,3.1v1.1h-6.4c0.2,1.1,1.1,1.6,2.9,1.6
		c1.7,0,2.4-0.4,3.2-0.8v1.6c-1.3,0.5-2.1,0.7-3.9,0.7C93.6,10.6,91.9,9.1,91.9,6.9z M98.4,6.4c0-1-1-1.7-2.3-1.7
		c-1.2,0-2.1,0.7-2.2,1.8L98.4,6.4z"/>
	<path class="st0" d="M101.6,3.4h2.2l-0.3,2.9h0.1c0.3-1.8,1.3-3.1,3.4-3.1c2,0,2.9,1.1,2.9,4.1v3h-2V7.6c0-2.1-0.6-2.9-1.9-2.9
		c-1.5,0-2.4,1.5-2.4,3.8v1.9h-2V3.4z"/>
	<path class="st0" d="M115,1.1c0-0.7,0.5-1.1,1.2-1.1c0.7,0,1.2,0.4,1.2,1.1c0,0.8-0.5,1.1-1.2,1.1C115.5,2.2,115,1.9,115,1.1z
		 M115.3,3.4h2v6.9h-2V3.4z"/>
	<path class="st0" d="M119,3.4h2.2l-0.3,2.9h0.1c0.3-1.8,1.3-3.1,3.4-3.1c2,0,2.9,1.1,2.9,4.1v3h-2V7.6c0-2.1-0.6-2.9-1.9-2.9
		c-1.5,0-2.4,1.5-2.4,3.8v1.9h-2V3.4z"/>
	<path class="st0" d="M0,22.1c0-3,2.3-5.1,5.8-5.1c3.5,0,5.8,1.8,5.8,4.4h-2c-0.1-1.8-1.6-2.8-3.8-2.8C3.5,18.7,2,20,2,22.1
		c0,2.1,1.5,3.4,3.9,3.4c2.2,0,3.8-1,3.8-2.8h2c0,2.7-2.3,4.4-5.8,4.4C2.3,27.2,0,25.1,0,22.1z"/>
	<path class="st0" d="M12.7,23.5c0-2.2,1.7-3.7,4.3-3.7c2.6,0,4.3,1.5,4.3,3.7c0,2.2-1.7,3.7-4.3,3.7C14.4,27.2,12.7,25.7,12.7,23.5
		z M19.6,23.5c0-1.3-1-2.2-2.5-2.2c-1.5,0-2.5,0.9-2.5,2.2c0,1.3,1,2.2,2.5,2.2C18.5,25.6,19.6,24.8,19.6,23.5z"/>
	<path class="st0" d="M22.7,20h2.2l-0.3,2.9h0.1c0.3-1.8,1.3-3.1,3.4-3.1c2,0,2.9,1.1,2.9,4.1v3h-2v-2.8c0-2.1-0.6-2.9-1.9-2.9
		c-1.5,0-2.4,1.5-2.4,3.8v1.9h-2V20z"/>
	<path class="st0" d="M32,23.5c0-2.2,1.8-3.7,4.5-3.7c1.2,0,2.1,0.2,3.2,0.7v1.7c-1-0.6-1.9-0.9-3.2-0.9c-1.6,0-2.5,0.9-2.5,2.2
		s1.1,2.2,2.7,2.2c1.4,0,2.2-0.3,3.1-0.8v1.6c-1.1,0.5-1.8,0.7-3.2,0.7C33.9,27.2,32,25.7,32,23.5z"/>
	<path class="st0" d="M40.8,23.5c0-2.2,1.7-3.7,4.2-3.7c2.5,0,4.1,1.3,4.2,3.1v1.1h-6.4c0.2,1.1,1.1,1.6,2.9,1.6
		c1.7,0,2.4-0.4,3.2-0.8v1.6c-1.3,0.5-2.1,0.7-3.9,0.7C42.4,27.2,40.8,25.7,40.8,23.5z M47.2,23c0-1-1-1.7-2.3-1.7
		c-1.2,0-2.1,0.7-2.2,1.8L47.2,23z"/>
	<path class="st0" d="M50.4,20h2.2l-0.3,2.6h0.1c0.4-2,1.4-2.8,4-2.8v1.6c-2.9,0-4.1,0.9-4.1,3.2v2.3h-2V20z"/>
	<path class="st0" d="M58.2,24.5v-3h-1V20h1.1v-1.7l1.9-0.3V20h2v1.4h-2V24c0,1.4,0,1.8,1.3,1.8c0.2,0,0.4,0,0.7,0v1
		c-0.6,0.2-1.1,0.3-1.9,0.3C58.5,27.1,58.2,26.4,58.2,24.5z"/>
	<path class="st0" d="M64.3,29.1v-1.7c0.7,0.5,2,0.8,3.4,0.8c2,0,2.8-0.8,2.8-2.4l0-0.9c-0.4,1.4-1.8,2.2-3.4,2.2
		c-2.3,0-3.9-1.4-3.9-3.7c0-2.2,1.6-3.6,3.6-3.6c1.7,0,3.3,0.8,3.6,2.5h0.2L70.5,20h1.9v6.1c0,2.5-1.8,3.6-4.5,3.6
		C66.2,29.7,65.4,29.5,64.3,29.1z M70.1,23.5c0-1.3-1.2-2.1-2.5-2.1c-1.4,0-2.5,0.8-2.5,2.1c0,1.4,1,2.2,2.5,2.2
		C68.9,25.6,70.1,24.8,70.1,23.5z"/>
	<path class="st0" d="M73.7,23.5c0-2.2,1.7-3.7,4.2-3.7c2.5,0,4.1,1.3,4.2,3.1v1.1h-6.4c0.2,1.1,1.1,1.6,2.9,1.6
		c1.7,0,2.4-0.4,3.2-0.8v1.6c-1.3,0.5-2.1,0.7-3.9,0.7C75.3,27.2,73.7,25.7,73.7,23.5z M80.1,23c0-1-1-1.7-2.3-1.7
		c-1.2,0-2.1,0.7-2.2,1.8L80.1,23z"/>
	<path class="st0" d="M85.4,24.7h-0.2l0.3,2.3h-2v-9.7h2v5h0.1c0.3-1.6,1.9-2.5,3.6-2.5c2,0,3.6,1.5,3.6,3.6c0,2.2-1.6,3.7-3.9,3.7
		C87.1,27.2,85.7,26.1,85.4,24.7z M90.8,23.5c0-1.3-1-2.1-2.5-2.1c-1.3,0-2.5,0.8-2.5,2.1c0,1.4,1.2,2.2,2.5,2.2
		C89.8,25.6,90.8,24.8,90.8,23.5z"/>
	<path class="st0" d="M93.8,23.5c0-2.2,1.7-3.7,4.3-3.7c2.6,0,4.3,1.5,4.3,3.7c0,2.2-1.7,3.7-4.3,3.7C95.5,27.2,93.8,25.7,93.8,23.5
		z M100.6,23.5c0-1.3-1-2.2-2.5-2.2c-1.5,0-2.5,0.9-2.5,2.2c0,1.3,1,2.2,2.5,2.2C99.6,25.6,100.6,24.8,100.6,23.5z"/>
	<path class="st0" d="M111.8,26.9h-2.2l0.3-2.9h-0.1c-0.3,1.8-1.3,3.1-3.4,3.1c-2,0-2.9-1.1-2.9-4.1v-3h2v2.8c0,2.1,0.6,2.9,1.9,2.9
		c1.5,0,2.4-1.5,2.4-3.8V20h2V26.9z"/>
	<path class="st0" d="M112.8,20h2l2.2,5.2l2.1-5.2h1.5l2.2,5.3l2.2-5.3h2l-3,6.9h-2.5l-1.6-4l-1.5,4h-2.6L112.8,20z"/>
	<path class="st0" d="M0.6,33.9h4.6c3.5,0,5.6,1.7,5.6,4.8c0,3.2-2.2,4.8-5.6,4.8H0.6V33.9z M5.1,41.9c2.3,0,3.7-1.1,3.7-3.2
		c0-2-1.4-3.2-3.7-3.2H2.5v6.4H5.1z"/>
	<path class="st0" d="M11.8,40.1c0-2.2,1.7-3.7,4.2-3.7c2.5,0,4.1,1.3,4.2,3.1v1.1h-6.4c0.2,1.1,1.1,1.6,2.9,1.6
		c1.7,0,2.4-0.4,3.2-0.8v1.6c-1.3,0.5-2.1,0.7-3.9,0.7C13.5,43.8,11.8,42.3,11.8,40.1z M18.3,39.6c0-1-1-1.7-2.3-1.7
		c-1.2,0-2.1,0.7-2.2,1.8L18.3,39.6z"/>
	<path class="st0" d="M38.6,33.9l-5.4,9.7h-2.8L25,33.9h2.4l4.4,8.3l4.4-8.3H38.6z"/>
	<path class="st0" d="M39.5,40.1c0-2.2,1.7-3.7,4.2-3.7c2.5,0,4.1,1.3,4.2,3.1v1.1h-6.4c0.2,1.1,1.1,1.6,2.9,1.6
		c1.7,0,2.4-0.4,3.2-0.8v1.6c-1.3,0.5-2.1,0.7-3.9,0.7C41.1,43.8,39.5,42.3,39.5,40.1z M45.9,39.6c0-1-1-1.7-2.3-1.7
		c-1.2,0-2.1,0.7-2.2,1.8L45.9,39.6z"/>
	<path class="st0" d="M49.1,36.6h2.2L51,39.2h0.1c0.4-2,1.4-2.8,4-2.8v1.6c-2.9,0-4.1,0.9-4.1,3.2v2.3h-2V36.6z"/>
	<path class="st0" d="M56,40.1c0-2.2,1.7-3.7,4.2-3.7c2.5,0,4.1,1.3,4.2,3.1v1.1H58c0.2,1.1,1.1,1.6,2.9,1.6c1.7,0,2.4-0.4,3.2-0.8
		v1.6c-1.3,0.5-2.1,0.7-3.9,0.7C57.7,43.8,56,42.3,56,40.1z M62.5,39.6c0-1-1-1.7-2.3-1.7c-1.2,0-2.1,0.7-2.2,1.8L62.5,39.6z"/>
	<path class="st0" d="M65.4,40.1c0-2.2,1.7-3.7,4.2-3.7c2.5,0,4.1,1.3,4.2,3.1v1.1h-6.4c0.2,1.1,1.1,1.6,2.9,1.6
		c1.7,0,2.4-0.4,3.2-0.8v1.6c-1.3,0.5-2.1,0.7-3.9,0.7C67,43.8,65.4,42.3,65.4,40.1z M71.8,39.6c0-1-1-1.7-2.3-1.7
		c-1.2,0-2.1,0.7-2.2,1.8L71.8,39.6z"/>
	<path class="st0" d="M75,36.6h2.2l-0.3,2.9H77c0.3-1.8,1.3-3.1,3.4-3.1c2,0,2.9,1.1,2.9,4.1v3h-2v-2.8c0-2.1-0.6-2.9-1.9-2.9
		c-1.5,0-2.4,1.5-2.4,3.8v1.9h-2V36.6z"/>
	<path class="st0" d="M84.5,34.3c0-0.7,0.5-1.1,1.2-1.1c0.7,0,1.2,0.4,1.2,1.1c0,0.8-0.5,1.1-1.2,1.1C85,35.4,84.5,35.1,84.5,34.3z
		 M84.8,36.6h2v6.9h-2V36.6z"/>
	<path class="st0" d="M89.3,45.7V44c0.7,0.5,2,0.8,3.4,0.8c2,0,2.8-0.8,2.8-2.4l0-0.9c-0.4,1.4-1.8,2.2-3.4,2.2
		c-2.3,0-3.9-1.4-3.9-3.7c0-2.2,1.6-3.6,3.6-3.6c1.7,0,3.3,0.8,3.6,2.5h0.2l-0.2-2.2h1.9v6.1c0,2.5-1.8,3.6-4.5,3.6
		C91.3,46.3,90.4,46.1,89.3,45.7z M95.2,40.1c0-1.3-1.2-2.1-2.5-2.1c-1.4,0-2.5,0.8-2.5,2.1c0,1.4,1,2.2,2.5,2.2
		C94,42.3,95.2,41.4,95.2,40.1z"/>
	<path class="st0" d="M98.9,34.3c0-0.7,0.5-1.1,1.2-1.1c0.7,0,1.2,0.4,1.2,1.1c0,0.8-0.5,1.1-1.2,1.1C99.4,35.4,98.9,35.1,98.9,34.3
		z M99.1,36.6h2v6.9h-2V36.6z"/>
	<path class="st0" d="M102.8,36.6h2.2l-0.3,2.9h0.1c0.3-1.8,1.3-3.1,3.4-3.1c2,0,2.9,1.1,2.9,4.1v3h-2v-2.8c0-2.1-0.6-2.9-1.9-2.9
		c-1.5,0-2.4,1.5-2.4,3.8v1.9h-2V36.6z"/>
	<path class="st0" d="M113.3,45.7V44c0.7,0.5,2,0.8,3.4,0.8c2,0,2.8-0.8,2.8-2.4l0-0.9c-0.4,1.4-1.8,2.2-3.4,2.2
		c-2.3,0-3.9-1.4-3.9-3.7c0-2.2,1.6-3.6,3.6-3.6c1.7,0,3.3,0.8,3.6,2.5h0.2l-0.2-2.2h1.9v6.1c0,2.5-1.8,3.6-4.5,3.6
		C115.3,46.3,114.4,46.1,113.3,45.7z M119.2,40.1c0-1.3-1.2-2.1-2.5-2.1c-1.4,0-2.5,0.8-2.5,2.1c0,1.4,1,2.2,2.5,2.2
		C118,42.3,119.2,41.4,119.2,40.1z"/>
</g>
</svg>
