<?xml version="1.0" encoding="utf-8"?>
<!-- Generator: Adobe Illustrator 22.1.0, SVG Export Plug-In . SVG Version: 6.00 Build 0)  -->
<svg version="1.1" id="Laag_1" xmlns="http://www.w3.org/2000/svg" xmlns:xlink="http://www.w3.org/1999/xlink" x="0px" y="0px"
	 width="127.1px" height="50.9px" viewBox="0 0 127.1 50.9" style="enable-background:new 0 0 127.1 50.9;" xml:space="preserve">
<style type="text/css">
	.st0{fill:#FFFFFF;}
</style>
<g>
	<path class="st0" d="M6.3,0.9h3.6v21.9h-3v-18L5.1,7.5h-3V6.9L6.3,0.9z"/>
	<path class="st0" d="M21.8,23.1c-3.6,0-6.4-2.5-6.4-6.3h3c0,2.2,1.6,3.5,3.5,3.5c4,0,5-5.2,4.9-8.2c-1,1.5-2.4,2.7-4.9,2.7
		c-4.4,0-6.9-3.3-6.9-7c0-3.6,2.7-7,7-7c2.9,0,5.2,1.7,6.4,4.2c0.9,2,1.3,4.4,1.2,7C29.6,17.5,27.4,23.1,21.8,23.1z M18,7.6
		c0,2.4,1.8,4.2,4.2,4.2s4-1.7,4-4.2c0-2.2-1.7-4.2-4.1-4.2C19.6,3.5,18,5.2,18,7.6z"/>
	<path class="st0" d="M38.4,8.7h2.7v-3l2.4-3h0.6v6h3v2.7h-3v7.2c0,0.9,0.6,1.5,1.5,1.5l1.8-0.3v2.7l-1.7,0.3c-3,0-4.6-1.5-4.6-4.2
		v-7.2h-2.7V8.7z"/>
	<path class="st0" d="M50.4,24h-2.1L61.5,0h2.1L50.4,24z"/>
	<path class="st0" d="M75.4,9.9c0.8-0.9,2.2-1.5,3.5-1.5c3.3,0,5.1,2.1,5.1,5.1v9.3h-3v-9c0-1.8-0.9-2.7-2.4-2.7
		c-1.8,0-3.2,1.4-3.3,3.2v8.5h-3v-9c0-1.8-0.9-2.7-2.4-2.7c-1.8,0-3.2,1.4-3.3,3.2v8.5h-3V8.7h2.7l0.3,1.2l0.2,0.2l0.1-0.2
		c0.6-0.9,2.1-1.5,3.3-1.5c2.2,0,3.7,0.9,4.5,2.4L75.4,9.9z"/>
	<path class="st0" d="M107.7,3.9l-6.4,5.2c3.9,0.2,6.7,3.1,6.7,7c0,3.5-2.9,7-7.2,7c-4.2,0-7.2-3.1-7.2-6.8h3c0,2.2,1.8,3.9,4.2,3.9
		c2.4,0,4.2-2,4.2-4.2c0-2.7-2-4.3-4.5-4.3h-3V9l6.2-5.1h-9.1v-3h11.4L107.7,3.9z"/>
	<path class="st0" d="M117.5,23.1c-4.8,0-7.5-4.8-7.5-11.2c0-6.5,2.7-11.2,7.5-11.2s7.5,4.8,7.5,11.2
		C124.9,18.3,122.2,23.1,117.5,23.1z M117.5,20.2c3.1,0,4.5-3.4,4.5-8.4s-1.3-8.4-4.5-8.4s-4.5,3.4-4.5,8.4S114.2,20.2,117.5,20.2z"
		/>
	<path class="st0" d="M14.5,50.6h-2.7l-0.3-1.2l-0.2-0.1l-0.2,0.1c-0.9,0.9-2.4,1.5-3.9,1.5c-3.9,0-7.2-3-7.2-7.3s3.3-7.3,7.2-7.3
		c1.5,0,3,0.6,3.9,1.5l0.2,0.2l0.2-0.2v-10h3V50.6z M7.4,38.9C4.5,38.9,3,41,3,43.5s1.5,4.6,4.4,4.6c2.5,0,4.3-2.1,4.3-4.6
		S10,38.9,7.4,38.9z"/>
	<path class="st0" d="M20.2,44.3c0,2.1,1.5,3.9,4,3.9c1.8,0,3-0.9,3.5-2.1l2.5,1.2c-1.2,2.1-3.3,3.6-6.1,3.6c-3.8,0-6.9-3-6.9-7.3
		s3-7.3,6.9-7.3c3.6,0,6.6,2.8,6.6,7.2l-0.3,0.9H20.2V44.3z M20.3,41.7h7.2c-0.2-1.6-1.7-2.8-3.5-2.8C22,38.9,20.8,40.1,20.3,41.7z"
		/>
	<path class="st0" d="M39.7,48.2c1.8,0,3.2-1.2,3.7-2.4l2.3,1.5c-1.2,2.1-3.3,3.6-6.1,3.6c-3.8,0-7.2-3-7.2-7.3s3.4-7.3,7.2-7.3
		c2.8,0,5,1.5,6.1,3.6l-2.3,1.5c-0.5-1.2-1.8-2.4-3.6-2.4c-2.9,0-4.4,2.1-4.4,4.6S36.8,48.2,39.7,48.2z"/>
	<path class="st0" d="M50,44.3c0,2.1,1.5,3.9,4,3.9c1.8,0,3-0.9,3.5-2.1l2.5,1.2c-1.2,2.1-3.3,3.6-6.1,3.6c-3.8,0-6.9-3-6.9-7.3
		s3-7.3,6.9-7.3c3.6,0,6.6,2.8,6.6,7.2l-0.3,0.9H50V44.3z M50.2,41.7h7.2c-0.2-1.6-1.7-2.8-3.5-2.8C51.8,38.9,50.6,40.1,50.2,41.7z"
		/>
	<path class="st0" d="M74.9,37.7c0.8-0.9,2.2-1.5,3.5-1.5c3.3,0,5.1,2.1,5.1,5.1v9.3h-3v-9c0-1.8-0.9-2.7-2.4-2.7
		c-1.8,0-3.2,1.4-3.3,3.2v8.5h-3v-9c0-1.8-0.9-2.7-2.4-2.7c-1.8,0-3.2,1.4-3.3,3.2v8.5h-3V36.5h2.7l0.3,1.2l0.2,0.2l0.1-0.2
		c0.6-0.9,2.1-1.5,3.3-1.5c2.2,0,3.7,0.9,4.5,2.4L74.9,37.7z"/>
	<path class="st0" d="M86.8,27.8h3v9.9l0.2,0.2l0.1-0.2c0.9-0.9,2.4-1.5,3.9-1.5c3.9,0,7.2,3,7.2,7.3s-3.3,7.3-7.2,7.3
		c-1.5,0-3-0.6-3.9-1.5L90,49.2l-0.2,0.1l-0.3,1.2h-2.7V27.8z M93.8,48.2c2.8,0,4.3-2.1,4.3-4.6S96.6,39,93.8,39
		c-2.5,0-4.3,2.1-4.3,4.6S91.3,48.2,93.8,48.2z"/>
	<path class="st0" d="M106,44.3c0,2.1,1.5,3.9,4,3.9c1.8,0,3-0.9,3.5-2.1l2.5,1.2c-1.2,2.1-3.3,3.6-6.1,3.6c-3.8,0-6.9-3-6.9-7.3
		s3-7.3,6.9-7.3c3.6,0,6.6,2.8,6.6,7.2l-0.3,0.9H106V44.3z M106.1,41.7h7.2c-0.2-1.6-1.7-2.8-3.5-2.8
		C107.8,38.9,106.6,40.1,106.1,41.7z"/>
	<path class="st0" d="M119,36.5h2.7L122,38l0.2,0.2l0.1-0.2c0.9-1.2,2.1-1.8,3.3-1.8c0.6,0,0.9,0,1.5,0.3v2.7h-1.8
		c-1.8,0-3.2,1.4-3.3,3.2v8.2h-3L119,36.5L119,36.5z"/>
</g>
</svg>
