<?xml version="1.0" encoding="utf-8"?>
<!-- Generator: Adobe Illustrator 24.0.0, SVG Export Plug-In . SVG Version: 6.00 Build 0)  -->
<svg version="1.1" id="Laag_1" xmlns="http://www.w3.org/2000/svg" xmlns:xlink="http://www.w3.org/1999/xlink" x="0px" y="0px"
	 width="155.5px" height="10.4px" viewBox="0 0 155.5 10.4" style="enable-background:new 0 0 155.5 10.4;" xml:space="preserve">
<style type="text/css">
	.st0{fill:#FFFFFF;}
</style>
<g>
	<path class="st0" d="M6,3.1C6,4,5.6,4.6,4.8,5c0.9,0.4,1.4,1,1.4,1.9c0,1.7-1.6,2.5-3.2,2.5c-1.3,0-2.3-0.4-3-1.2l1.1-1.3
		c0.5,0.5,1.1,0.8,1.8,0.8c0.7,0,1.3-0.3,1.3-0.9c0-0.6-0.7-0.9-1.5-0.9H1.8V4.1h1C3.5,4.1,4,3.8,4,3.3c0-0.6-0.5-0.8-1.2-0.8
		c-0.8,0-1.3,0.4-1.7,0.8L0,2c0.6-0.7,1.5-1.3,2.9-1.3C4.8,0.7,6,1.6,6,3.1z"/>
	<path class="st0" d="M16.2,6.3c0,1.8-1.4,3.1-3.2,3.1S9.8,8.1,9.8,6.3c0-1.8,1.3-3.1,3.2-3.1S16.2,4.5,16.2,6.3z M11.8,6.3
		c0,0.8,0.5,1.3,1.3,1.3c0.7,0,1.3-0.6,1.3-1.3S13.8,4.9,13,4.9C12.3,4.9,11.8,5.5,11.8,6.3z"/>
	<path class="st0" d="M19.6,5.3L21,3.4h2.3l-2.2,2.8l2.2,3.1H21L19.5,7h-0.4v2.3h-1.9V0.6h1.9v4.7H19.6z"/>
	<path class="st0" d="M26.4,5v1.7c0,0.7,0.4,0.9,0.8,0.9c0.4,0,0.7-0.2,1-0.4l0.6,1.5c-0.6,0.4-1.1,0.7-2.1,0.7
		c-1.6,0-2.3-0.9-2.3-2.4V5h-1.1V3.4h1.1V1.6h1.9v1.7h2V5H26.4z"/>
	<path class="st0" d="M35.6,6.3c0,1.8-1.4,3.1-3.2,3.1s-3.2-1.3-3.2-3.1c0-1.8,1.3-3.1,3.2-3.1S35.6,4.5,35.6,6.3z M31.1,6.3
		c0,0.8,0.5,1.3,1.3,1.3c0.7,0,1.3-0.6,1.3-1.3s-0.5-1.3-1.3-1.3C31.6,4.9,31.1,5.5,31.1,6.3z"/>
	<path class="st0" d="M42.8,6.3c0,1.7-1.2,3.1-2.7,3.1c-0.8,0-1.3-0.3-1.7-0.8v0.6h-1.8V0.6h1.9v3.3c0.4-0.4,0.9-0.7,1.6-0.7
		C41.6,3.2,42.8,4.6,42.8,6.3z M38.4,6.3c0,0.8,0.5,1.3,1.3,1.3c0.8,0,1.3-0.6,1.3-1.3s-0.5-1.3-1.3-1.3C38.9,4.9,38.4,5.5,38.4,6.3
		z"/>
	<path class="st0" d="M49.5,6.3c0,0.2,0,0.5,0,0.6h-4c0.2,0.6,0.6,0.9,1.3,0.9c0.4,0,0.9-0.2,1.3-0.5l1.2,1.1c-0.6,0.6-1.5,1-2.6,1
		c-1.8,0-3.1-1.2-3.1-3.1c0-1.8,1.2-3.1,3-3.1C48.3,3.2,49.5,4.4,49.5,6.3z M45.4,5.7h2.1c-0.1-0.6-0.5-0.9-1.1-0.9
		C45.9,4.8,45.6,5.1,45.4,5.7z"/>
	<path class="st0" d="M54.5,3.3l-0.2,1.9C54.1,5.1,53.8,5,53.4,5c-0.7,0-1.1,0.3-1.1,1.1v3.2h-1.9V3.4h1.8V4
		c0.3-0.6,0.9-0.8,1.6-0.8C54.2,3.2,54.4,3.2,54.5,3.3z"/>
	<path class="st0" d="M60.5,5v1.7c0,0.7,0.4,0.9,0.8,0.9c0.4,0,0.7-0.2,1-0.4L63,8.7c-0.6,0.4-1.1,0.7-2.1,0.7
		c-1.6,0-2.3-0.9-2.3-2.4V5h-1.1V3.4h1.1V1.6h1.9v1.7h2V5H60.5z"/>
	<path class="st0" d="M62.9,10.4L68,0H70l-5.1,10.4H62.9z"/>
	<path class="st0" d="M78.9,5.4v3.9H77V6C77,5.3,76.6,5,76.1,5c-0.5,0-1,0.3-1,1.1v3.2h-1.9V6c0-0.7-0.3-1.1-0.9-1.1
		c-0.5,0-1,0.3-1,1.1v3.2h-1.9V3.4h1.8v0.7c0.4-0.6,1-0.9,1.8-0.9c0.8,0,1.4,0.4,1.8,1c0.4-0.7,1-1,1.9-1C78,3.2,78.9,4,78.9,5.4z"
		/>
	<path class="st0" d="M85.7,0.7c1.8,0,2.9,1.1,2.9,2.7c0,1-0.4,1.6-1.3,2.5l-1.5,1.5h3v1.8h-5.7V7.7L86,4.9c0.4-0.4,0.6-0.8,0.6-1.3
		c0-0.6-0.5-1-1.1-1c-0.8,0-1.3,0.4-1.7,0.9l-1.2-1.3C83.2,1.5,84.1,0.7,85.7,0.7z"/>
	<path class="st0" d="M92.8,6.4c-1.9,0-3-1.2-3-2.8c0-1.7,1.4-2.9,3.3-2.9c1.9,0,3.3,1.2,3.3,2.9c0,0.8-0.3,1.5-0.8,2.3l-2.2,3.3
		h-2.3l2-2.8H92.8z M94.2,3.6c0-0.7-0.5-1.2-1.2-1.2c-0.7,0-1.2,0.5-1.2,1.2c0,0.7,0.5,1.2,1.2,1.2C93.7,4.8,94.2,4.3,94.2,3.6z"/>
	<path class="st0" d="M105.6,5.4v3.9h-1.9V6c0-0.7-0.3-1.1-0.9-1.1c-0.5,0-1,0.3-1,1.1v3.2h-1.9V3.4h1.8v0.7c0.4-0.6,1-0.9,1.8-0.9
		C104.7,3.2,105.6,4,105.6,5.4z"/>
	<path class="st0" d="M112.9,6.3c0,1.8-1.4,3.1-3.2,3.1s-3.2-1.3-3.2-3.1c0-1.8,1.3-3.1,3.2-3.1S112.9,4.5,112.9,6.3z M108.5,6.3
		c0,0.8,0.5,1.3,1.3,1.3c0.7,0,1.3-0.6,1.3-1.3s-0.5-1.3-1.3-1.3C109,4.9,108.5,5.5,108.5,6.3z"/>
	<path class="st0" d="M115.4,9.2l-2.3-5.9h2l1.3,3.8l1.3-3.8h2l-2.2,5.9H115.4z"/>
	<path class="st0" d="M125.9,6.3c0,0.2,0,0.5,0,0.6h-4c0.2,0.6,0.6,0.9,1.3,0.9c0.4,0,0.9-0.2,1.3-0.5l1.2,1.1c-0.6,0.6-1.5,1-2.6,1
		c-1.8,0-3.1-1.2-3.1-3.1c0-1.8,1.2-3.1,3-3.1C124.7,3.2,125.9,4.4,125.9,6.3z M121.9,5.7h2.1c-0.2-0.6-0.5-0.9-1.1-0.9
		C122.4,4.8,122,5.1,121.9,5.7z"/>
	<path class="st0" d="M136.3,5.4v3.9h-1.9V6c0-0.7-0.3-1.1-0.9-1.1c-0.5,0-1,0.3-1,1.1v3.2h-1.9V6c0-0.7-0.3-1.1-0.9-1.1
		c-0.5,0-1,0.3-1,1.1v3.2h-1.9V3.4h1.8v0.7c0.4-0.6,1-0.9,1.8-0.9c0.8,0,1.4,0.4,1.8,1c0.4-0.7,1-1,1.9-1
		C135.4,3.2,136.3,4,136.3,5.4z"/>
	<path class="st0" d="M143.8,6.3c0,1.7-1.2,3.1-2.7,3.1c-0.8,0-1.3-0.3-1.7-0.8v0.6h-1.8V0.6h1.9v3.3c0.4-0.4,0.9-0.7,1.6-0.7
		C142.6,3.2,143.8,4.6,143.8,6.3z M139.4,6.3c0,0.8,0.5,1.3,1.3,1.3c0.8,0,1.3-0.6,1.3-1.3s-0.5-1.3-1.3-1.3
		C139.9,4.9,139.4,5.5,139.4,6.3z"/>
	<path class="st0" d="M150.5,6.3c0,0.2,0,0.5,0,0.6h-4c0.2,0.6,0.6,0.9,1.3,0.9c0.4,0,0.9-0.2,1.3-0.5l1.2,1.1c-0.6,0.6-1.5,1-2.6,1
		c-1.8,0-3.1-1.2-3.1-3.1c0-1.8,1.2-3.1,3-3.1C149.3,3.2,150.5,4.4,150.5,6.3z M146.5,5.7h2.1c-0.2-0.6-0.5-0.9-1.1-0.9
		C146.9,4.8,146.6,5.1,146.5,5.7z"/>
	<path class="st0" d="M155.5,3.3l-0.2,1.9c-0.3-0.1-0.6-0.2-0.9-0.2c-0.7,0-1.1,0.3-1.1,1.1v3.2h-1.9V3.4h1.8V4
		c0.3-0.6,0.9-0.8,1.6-0.8C155.2,3.2,155.4,3.2,155.5,3.3z"/>
</g>
</svg>
