<?xml version="1.0" encoding="utf-8"?>
<!-- Generator: Adobe Illustrator 24.3.0, SVG Export Plug-In . SVG Version: 6.00 Build 0)  -->
<svg version="1.1" id="Laag_1" xmlns="http://www.w3.org/2000/svg" xmlns:xlink="http://www.w3.org/1999/xlink" x="0px" y="0px"
	 width="170.4px" height="92.3px" viewBox="0 0 170.4 92.3" style="enable-background:new 0 0 170.4 92.3;" xml:space="preserve">
<style type="text/css">
	.st0{fill:#FFFFFF;}
</style>
<g>
	<path class="st0" d="M7.4,22.4C7.4,23.7,8.3,24,9,24c0.1,0,0.5,0,0.5,0v4.9c-0.6,0.4-1.4,0.8-2.6,0.8c-3.2,0-5.5-1.8-5.5-7V16
		c0-5.3,2.3-7,5.5-7C8.1,9,9,9.4,9.5,9.8v4.8c0,0-0.3,0-0.5,0c-0.7,0-1.5,0.3-1.5,1.7L7.4,22.4L7.4,22.4z M1.6,31.2h5.9v5.9
		c-4.6-0.5-5.9-3.1-5.9-5.8C1.6,31.3,1.6,31.2,1.6,31.2z M10.5,9.1h6.1v20.6c0,4.8-1.7,7.5-7.6,7.5H8.5v-4.6c0,0,0.3,0,0.4,0
		c0.9,0,1.5-0.4,1.5-1.4V9.1H10.5z"/>
	<path class="st0" d="M25.9,23.2c0,1.3,0.9,1.6,1.5,1.6h0.5v4.9h-0.5c-4.8,0-7.6-3.1-7.6-7.9v-5c0-4.9,2.8-8,7.6-8h0.5v5h-0.5
		c-0.7,0-1.5,0.3-1.5,1.7V23.2z M29,17V9c3.9,0.6,6.1,3.3,6.1,7.7v4.4H27V17H29z M35.1,23v0.1c0,3.2-2.2,5.9-6.1,6.5V23H35.1z"/>
	<path class="st0" d="M44.2,29.4h-6V9.1h6V29.4z M53.4,15.9v13.4h-6.1V16.2c0-1.4-0.9-1.7-1.5-1.7c-0.1,0-0.5,0-0.5,0V9.7
		c0.6-0.4,1.4-0.8,2.6-0.8C51.2,8.9,53.4,10.7,53.4,15.9z"/>
	<path class="st0" d="M59.9,7.2c-2,0-3.6-1.6-3.6-3.6S57.9,0,59.9,0s3.6,1.6,3.6,3.6S61.9,7.2,59.9,7.2z M62.9,29.4h-6V9.1h6V29.4z"
		/>
	<path class="st0" d="M72.3,23.2c0,1.3,0.9,1.6,1.5,1.6h0.5v4.9h-0.5c-4.8,0-7.6-3.1-7.6-7.9v-5c0-4.9,2.8-8,7.6-8h0.5v5h-0.5
		c-0.7,0-1.5,0.3-1.5,1.7V23.2z M75.4,17V9c3.9,0.6,6.1,3.3,6.1,7.7v4.4h-8.1V17H75.4z M81.5,23v0.1c0,3.2-2.2,5.9-6.1,6.5V23H81.5z
		"/>
	<path class="st0" d="M83.4,9.5c3,0,3.7-1.2,3.7-4.6h4.2v4.2h3v5.4H83.4V9.5z M94.4,29.6c-6.8,0.7-9-2.3-9-7.6v-6.3h6v7
		c0,1.4,0.9,1.9,3,1.5V29.6z"/>
	<path class="st0" d="M102.6,23.2c0,1.3,0.9,1.6,1.5,1.6h0.5v4.9h-0.5c-4.8,0-7.6-3.1-7.6-7.9v-5c0-4.9,2.8-8,7.6-8h0.5v5h-0.5
		c-0.7,0-1.5,0.3-1.5,1.7V23.2z M105.7,17V9c3.9,0.6,6.1,3.3,6.1,7.7v4.4h-8.1V17H105.7z M111.8,23v0.1c0,3.2-2.2,5.9-6.1,6.5V23
		H111.8z"/>
	<path class="st0" d="M120.9,29.4h-6V9.1h6V29.4z M130.1,15.9v13.4H124V16.2c0-1.4-0.9-1.7-1.5-1.7c-0.1,0-0.5,0-0.5,0V9.7
		c0.6-0.4,1.4-0.8,2.6-0.8C127.9,8.9,130.1,10.7,130.1,15.9z"/>
	<path class="st0" d="M0,41.1h6.4L11,61.3H5.4L0,41.1z M10.9,41.1h6.4L12,60.9L9.3,49.1L10.9,41.1z"/>
	<path class="st0" d="M24.8,54.4c0,1.4,0.9,1.7,1.5,1.7c0.1,0,0.5,0,0.5,0V61c-0.6,0.4-1.4,0.8-2.6,0.8c-3.2,0-5.5-1.8-5.5-7v-6.7
		c0-5.3,2.3-7,5.5-7c1.2,0,2.1,0.4,2.6,0.8v4.8c0,0-0.3,0-0.5,0c-0.7,0-1.5,0.3-1.5,1.7V54.4z M34,61.4h-6.1V41.1H34V61.4z"/>
	<path class="st0" d="M43.8,61.4h-6V41.1h6V61.4z M53.1,47.9v13.4H47V48.2c0-1.4-0.9-1.7-1.5-1.7c-0.1,0-0.5,0-0.5,0v-4.8
		c0.6-0.4,1.4-0.8,2.6-0.8C50.8,40.9,53.1,42.7,53.1,47.9z"/>
	<path class="st0" d="M9.1,92.6c-4.8,0-7.6-3.1-7.6-7.9v-5c0-4.9,2.8-8,7.6-8h0.5v5.4c0,0-0.4,0-0.5,0c-0.7,0-1.5,0.3-1.5,1.7v6.7
		c0,1.4,0.9,1.7,1.5,1.7c0.1,0,0.5,0,0.5,0v5.4C9.6,92.6,9.1,92.6,9.1,92.6z M16.8,80.2h-6.1v-8.3c3.9,0.6,6.1,3.3,6.1,7.7V80.2z
		 M16.8,84.3v0.6c0,4.3-2.2,7-6.1,7.6v-8.2C10.7,84.3,16.8,84.3,16.8,84.3z"/>
	<path class="st0" d="M19.5,72h6.1v20.4c-3.9-0.6-6.1-3.5-6.1-7.8V72z M28.7,72h6.1v12.6c0,4.9-2.9,8-7.6,8h-0.6v-5.4
		c0.1,0,0.3,0,0.5,0c0.6,0,1.5-0.3,1.5-1.7L28.7,72L28.7,72z"/>
	<path class="st0" d="M44.3,92.3h-6.1V65h6.1V92.3z"/>
	<path class="st0" d="M47,72.4c3,0,3.7-1.2,3.7-4.6h4.2V72h3v5.4H47C47,77.4,47,72.4,47,72.4z M57.9,92.5c-6.8,0.7-9-2.3-9-7.6v-6.3
		h6v7c0,1.4,0.9,1.9,3,1.5V92.5z"/>
	<path class="st0" d="M60.3,72h6.1v20.4c-3.9-0.6-6.1-3.5-6.1-7.8C60.3,84.6,60.3,72,60.3,72z M69.5,72h6.1v12.6c0,4.9-2.9,8-7.6,8
		h-0.5v-5.4c0.1,0,0.3,0,0.5,0c0.6,0,1.5-0.3,1.5-1.7V72z"/>
	<path class="st0" d="M78.6,72h6.1v20.4c-3.9-0.6-6.1-3.5-6.1-7.8V72z M87.8,72h6.1v12.6c0,4.9-2.9,8-7.6,8h-0.5v-5.4
		c0.1,0,0.3,0,0.5,0c0.6,0,1.5-0.3,1.5-1.7V72z"/>
	<path class="st0" d="M103.3,92.3h-6V72h6V92.3z M108,71.9v5.7h-3.6v-5c0.6-0.4,1.4-0.8,2.6-0.8C107.3,71.8,107.7,71.9,108,71.9z"/>
</g>
</svg>
