<?xml version="1.0" encoding="utf-8"?>
<!-- Generator: Adobe Illustrator 22.1.0, SVG Export Plug-In . SVG Version: 6.00 Build 0)  -->
<svg version="1.1" id="Laag_1" xmlns="http://www.w3.org/2000/svg" xmlns:xlink="http://www.w3.org/1999/xlink" x="0px" y="0px"
	 width="258.7px" height="24px" viewBox="0 0 258.7 24" style="enable-background:new 0 0 258.7 24;" xml:space="preserve">
<style type="text/css">
	.st0{fill:#FFFFFF;}
</style>
<g>
	<path class="st0" d="M4.2,0.9h3.6v21.9h-3v-18L3,7.5H0V6.9L4.2,0.9z"/>
	<path class="st0" d="M19.7,23.1c-3.6,0-6.4-2.5-6.4-6.3h3c0,2.2,1.6,3.5,3.5,3.5c4,0,5-5.2,4.9-8.2c-1,1.5-2.4,2.7-4.9,2.7
		c-4.4,0-6.9-3.3-6.9-7c0-3.6,2.7-7,7-7c2.9,0,5.2,1.7,6.4,4.2c0.9,2,1.3,4.4,1.2,7C27.5,17.5,25.3,23.1,19.7,23.1z M15.9,7.6
		c0,2.4,1.8,4.2,4.2,4.2c2.4,0,4-1.7,4-4.2c0-2.2-1.7-4.2-4.1-4.2C17.5,3.5,15.9,5.2,15.9,7.6z"/>
	<path class="st0" d="M36.3,8.7H39v-3l2.4-3H42v6h3v2.7h-3v7.2c0,0.9,0.6,1.5,1.5,1.5l1.8-0.3v2.7l-1.7,0.3c-3,0-4.6-1.5-4.6-4.2
		v-7.2h-2.7V8.7z"/>
	<path class="st0" d="M48.3,24h-2.1L59.4,0h2.1L48.3,24z"/>
	<path class="st0" d="M73.3,9.9c0.8-0.9,2.2-1.5,3.5-1.5c3.3,0,5.1,2.1,5.1,5.1v9.3h-3v-9c0-1.8-0.9-2.7-2.4-2.7
		c-1.8,0-3.2,1.4-3.3,3.2v8.5h-3v-9c0-1.8-0.9-2.7-2.4-2.7c-1.8,0-3.2,1.4-3.3,3.2v8.5h-3V8.7h2.7l0.3,1.2l0.2,0.2l0.1-0.2
		c0.6-0.9,2.1-1.5,3.3-1.5c2.2,0,3.7,0.9,4.5,2.4L73.3,9.9z"/>
	<path class="st0" d="M105.6,3.9l-6.4,5.2c3.9,0.2,6.7,3.1,6.7,7c0,3.5-2.9,7-7.2,7c-4.2,0-7.2-3.1-7.2-6.8h3c0,2.2,1.8,3.9,4.2,3.9
		c2.4,0,4.2-2,4.2-4.2c0-2.7-2-4.3-4.5-4.3h-3V9l6.2-5.1h-9.1v-3h11.4L105.6,3.9z"/>
	<path class="st0" d="M115.4,23.1c-4.8,0-7.5-4.8-7.5-11.2c0-6.5,2.7-11.2,7.5-11.2c4.8,0,7.5,4.8,7.5,11.2
		C122.8,18.3,120.2,23.1,115.4,23.1z M115.4,20.2c3.1,0,4.5-3.4,4.5-8.4c0-5-1.3-8.4-4.5-8.4c-3.2,0-4.5,3.4-4.5,8.4
		C110.9,16.8,112.2,20.2,115.4,20.2z"/>
	<path class="st0" d="M146.1,22.8h-2.7l-0.3-1.2l-0.2-0.1l-0.2,0.1c-0.9,0.9-2.4,1.5-3.9,1.5c-3.9,0-7.2-3-7.2-7.3s3.3-7.3,7.2-7.3
		c1.5,0,3,0.6,3.9,1.5l0.2,0.2l0.2-0.2V0h3V22.8z M139,11.1c-2.9,0-4.4,2.1-4.4,4.6s1.5,4.6,4.4,4.6c2.5,0,4.3-2.1,4.3-4.6
		S141.6,11.1,139,11.1z"/>
	<path class="st0" d="M151.8,16.5c0,2.1,1.5,3.9,4,3.9c1.8,0,3-0.9,3.5-2.1l2.5,1.2c-1.2,2.1-3.3,3.6-6.1,3.6c-3.8,0-6.9-3-6.9-7.3
		s3-7.3,6.9-7.3c3.6,0,6.6,2.8,6.6,7.2l-0.3,0.9H151.8z M151.9,13.9h7.2c-0.2-1.6-1.7-2.8-3.5-2.8C153.6,11.1,152.4,12.3,151.9,13.9
		z"/>
	<path class="st0" d="M171.3,20.4c1.8,0,3.2-1.2,3.7-2.4l2.3,1.5c-1.2,2.1-3.3,3.6-6.1,3.6c-3.8,0-7.2-3-7.2-7.3s3.4-7.3,7.2-7.3
		c2.8,0,5,1.5,6.1,3.6l-2.3,1.5c-0.5-1.2-1.8-2.4-3.6-2.4c-2.9,0-4.4,2.1-4.4,4.6S168.4,20.4,171.3,20.4z"/>
	<path class="st0" d="M181.6,16.5c0,2.1,1.5,3.9,4,3.9c1.8,0,3-0.9,3.5-2.1l2.5,1.2c-1.2,2.1-3.3,3.6-6.1,3.6c-3.8,0-6.9-3-6.9-7.3
		s3-7.3,6.9-7.3c3.6,0,6.6,2.8,6.6,7.2l-0.3,0.9H181.6z M181.8,13.9h7.2c-0.2-1.6-1.7-2.8-3.5-2.8C183.4,11.1,182.2,12.3,181.8,13.9
		z"/>
	<path class="st0" d="M206.5,9.9c0.8-0.9,2.2-1.5,3.5-1.5c3.3,0,5.1,2.1,5.1,5.1v9.3h-3v-9c0-1.8-0.9-2.7-2.4-2.7
		c-1.8,0-3.2,1.4-3.3,3.2v8.5h-3v-9c0-1.8-0.9-2.7-2.4-2.7c-1.8,0-3.2,1.4-3.3,3.2v8.5h-3V8.7h2.7l0.3,1.2l0.2,0.2l0.1-0.2
		c0.6-0.9,2.1-1.5,3.3-1.5c2.2,0,3.7,0.9,4.5,2.4L206.5,9.9z"/>
	<path class="st0" d="M218.4,0h3v9.9l0.2,0.2l0.1-0.2c0.9-0.9,2.4-1.5,3.9-1.5c3.9,0,7.2,3,7.2,7.3s-3.3,7.3-7.2,7.3
		c-1.5,0-3-0.6-3.9-1.5l-0.1-0.1l-0.2,0.1l-0.3,1.2h-2.7V0z M225.4,20.4c2.8,0,4.3-2.1,4.3-4.6s-1.5-4.6-4.3-4.6
		c-2.5,0-4.3,2.1-4.3,4.6S222.9,20.4,225.4,20.4z"/>
	<path class="st0" d="M237.6,16.5c0,2.1,1.5,3.9,4,3.9c1.8,0,3-0.9,3.5-2.1l2.5,1.2c-1.2,2.1-3.3,3.6-6.1,3.6c-3.8,0-6.9-3-6.9-7.3
		s3-7.3,6.9-7.3c3.6,0,6.6,2.8,6.6,7.2l-0.3,0.9H237.6z M237.7,13.9h7.2c-0.2-1.6-1.7-2.8-3.5-2.8C239.4,11.1,238.2,12.3,237.7,13.9
		z"/>
	<path class="st0" d="M250.6,8.7h2.7l0.3,1.5l0.2,0.2l0.1-0.2c0.9-1.2,2.1-1.8,3.3-1.8c0.6,0,0.9,0,1.5,0.3v2.7h-1.8
		c-1.8,0-3.2,1.4-3.3,3.2v8.2h-3V8.7z"/>
</g>
</svg>
