<?xml version="1.0" encoding="utf-8"?>
<!-- Generator: Adobe Illustrator 22.1.0, SVG Export Plug-In . SVG Version: 6.00 Build 0)  -->
<svg version="1.1" id="Laag_1" xmlns="http://www.w3.org/2000/svg" xmlns:xlink="http://www.w3.org/1999/xlink" x="0px" y="0px"
	 width="236.3px" height="267.2px" viewBox="0 0 236.3 267.2" style="enable-background:new 0 0 236.3 267.2;" xml:space="preserve"
	>
<style type="text/css">
	.st0{fill:#FEFDFD;}
	.st1{fill:#FDFDFD;}
	.st2{fill:#C74217;}
	.st3{fill:#C74117;}
	.st4{fill:#C84218;}
	.st5{fill:#026571;}
	.st6{fill:#C84318;}
	.st7{fill:#026471;}
	.st8{fill:#C64116;}
	.st9{fill:#FDFCFB;}
	.st10{fill:#C84319;}
	.st11{fill:#C64219;}
	.st12{fill:#463029;}
</style>
<g>
	<path class="st0" d="M42.3,225.1c2.5,0.2,4.9,0.4,7.4,0.6c3.3,0.3,6.6,0.5,9.9,0.8c0.6,0,1.1,0.1,1.8,0.1
		c0.6-7.6,1.2-15.2,1.8-22.8c3.9,0.3,7.8,0.6,11.6,0.9c3.9-9.9,10.7-16.6,21-19.3c10.3-2.6,19.5,0.1,27.7,7
		c-3.6-16.2-7.1-32.1-10.7-48.1c5.8-1.3,11.4-2.5,17.1-3.8c1.1,1.4,2.3,2.9,3.5,4.3c0.1,0.1,0.1,0.2,0.2,0.3
		c5.8,7.5,11.6,15.1,17.4,22.6c0.1,0.2,0.2,0.4,0.3,0.5c0.1-0.1,0.2-0.1,0.3-0.2c0.1-0.6,0.3-1.3,0.4-1.9c0.9-4,1.8-7.9,2.7-11.9
		c1.5-6.7,3-13.4,4.5-20.1c0-0.1,0.1-0.1,0.1-0.3c2.7-0.6,5.5-1.2,8.4-1.9c0.4,1.6,0.8,3.2,1.2,4.8c0.1,0.4,0.1,0.7,0.2,1.1
		c0.6,2.9,1.3,5.8,1.9,8.7c2.7,12.1,5.4,24.2,8,36.2c0.4,2,0.8,4,1.2,5.9c-1.3,0.3-2.6,0.5-4,0.8c-1.7-7.5-3.3-14.9-5-22.4
		c-0.9-4.3-1.9-8.5-2.8-12.8c-0.1,0-0.2,0-0.2,0c-2.8,11.3-5.5,22.6-8.3,33.8c-2,0.5-3.9,0.9-5.9,1.4c-0.5,0.1-1.1,0.2-1.7,0.3
		c-5.3-6.7-10.7-13.3-16.1-20c-1.9-2.4-3.9-4.9-5.8-7.3c1.1,6,2.4,11.9,3.7,17.7c1.3,5.9,2.6,11.7,3.9,17.7
		c-2.9,0.7-5.7,1.3-8.6,1.9c0.2,0.4,0.3,0.6,0.4,0.9c3.5,7.4,4.1,14.9,1.5,22.7c-3.6,10.9-13.8,20.5-28.2,20.6
		c-7.1,0.1-13.5-2.3-19-6.8c-0.3-0.2-0.6-0.4-0.9-0.6c0,0,0,0,0,0c-0.1-0.1-0.1-0.1-0.2-0.2l0,0c-0.1-0.1-0.2-0.1-0.3-0.2
		c-0.2-0.3-0.4-0.5-0.6-0.8c-1.4-1.7-2.7-3.3-4.1-5c0-0.1-0.1-0.2-0.1-0.3c-1.3-2-2.3-4.2-3.1-6.5c0-0.1-0.1-0.2-0.3-0.5
		c-1,13.2-2.1,26.2-3.1,39.2c-1.3-0.1-2.6-0.2-3.8-0.3c-1.7-0.1-3.4-0.2-5.1-0.3c-1.3-0.1-2.5-0.3-4-0.4c0-0.7,0.1-1.4,0.1-2.1
		c0.4-5.1,0.8-10.3,1.2-15.4c0-0.4,0.1-0.8,0.1-1.2c0.1-1.3,0.2-2.7,0.3-4.1c-7.7-0.6-15.4-1.2-23.1-1.8c-0.6,7.6-1.2,15.2-1.8,22.8
		c-1.4-0.1-2.7-0.2-4-0.3c-1.7-0.1-3.3-0.2-5-0.3c-1.3-0.1-2.6-0.3-4-0.4c0.7-8.9,1.4-17.8,2.1-26.8c1.4,0.1,2.8,0.1,4.2,0.2
		c0.4,0.1,0.9,0.1,1.3,0.2c2.1,0.2,4.3,0.3,6.4,0.5c3.9,0.3,7.9,0.6,11.8,0.9c3.9,0.3,7.8,0.6,11.6,0.9c0.2,0,0.4,0,0.7,0
		c0.1-1.4,0.4-2.7,0.2-4.1c-1.5-0.1-2.9-0.2-4.3-0.3c-4.1-0.3-8.2-0.7-12.3-1c-3-0.2-6-0.5-9-0.7c-2.1-0.2-4.1-0.3-6.2-0.4
		c-1.3-0.1-2.7-0.2-4.1-0.4c0.7-9,1.4-17.9,2.1-26.9c4.3,0.3,8.6,0.7,12.9,1c-0.1,1.4-0.1,2.7-0.2,4.1c0,0.1,0,0.2-0.1,0.3
		c-0.2,2.8-0.4,5.5-0.7,8.3c-0.2,3.1-0.5,6.2-0.7,9.3c0,0.3,0,0.6,0,0.9C39.8,224.9,41.1,225,42.3,225.1z M84.6,203.4
		c0.1-0.1,0.1-0.2,0.2-0.2c0.1-0.1,0.2-0.3,0.3-0.4c3-4.6,7.1-7.7,12.4-9.2c0.3-0.1,0.6-0.2,0.9-0.3c-0.3-1.4-0.6-2.7-0.9-4
		c-0.2,0-0.3,0-0.4,0c-0.2,0-0.5,0.1-0.7,0.2c-3.6,0.9-6.8,2.6-9.7,5c-10.9,9-12.5,25.2-3.6,36.1c0.2,0.2,0.5,0.4,0.7,0.7l0,0
		c0.1,0.1,0.2,0.3,0.3,0.4c0.1,0.1,0.2,0.2,0.3,0.3c6.1,6.3,13.5,8.9,22.3,7.9c0.5-0.1,1.1-0.2,1.6-0.3c0.3-0.1,0.4-0.3,0.2-0.5
		c-0.3-1.2-0.5-2.4-0.8-3.6c-1,0.1-1.9,0.3-2.8,0.4c-5.6,0.4-10.6-1.1-15-4.5c-0.2-0.2-0.4-0.2-0.7-0.4l0,0
		c-0.1-0.1-0.2-0.1-0.3-0.2c-0.4-0.5-0.8-0.9-1.2-1.4c-5.5-5.8-7.3-12.7-5.4-20.4c0.2-0.8,0.5-1.5,0.7-2.3c0.3-0.8,0.6-1.6,0.9-2.3
		l0,0c0.1-0.1,0.1-0.2,0.2-0.2c0,0,0,0,0,0c0.1-0.1,0.1-0.3,0.2-0.4l0,0C84.5,203.7,84.5,203.5,84.6,203.4L84.6,203.4z M116.9,204
		L116.9,204c-0.2-0.3-0.3-0.6-0.5-0.8c-4.4-4.9-9.8-7-16.2-5.9c-6.7,1.1-11.3,5.1-13.5,11.5c-2.2,6.4-0.9,12.3,3.6,17.4
		c0.1,0.2,0.4,0.3,0.5,0.4l0,0c0.1,0.2,0.3,0.4,0.4,0.5c0.4,0.4,0.8,0.8,1.3,1.1c4.4,3.2,9.2,4.4,14.5,3.2c11.1-2.5,17.3-15.4,11-26
		c-0.3-0.4-0.6-0.8-1-1.1C117.1,204.2,117,204.1,116.9,204z"/>
	<path class="st0" d="M85.5,84.4c-2.1-1.8-4.1-3.7-5.7-5.9c-4.5-6.2-6.5-13.2-5.7-20.9c1.5-14.3,12.7-24.5,24.6-26.3
		c10-1.6,18.6,1.2,26,8c2,1.9,3.7,3.9,5.2,6.3c0-0.8,0-1.6,0-2.3c-0.3-4.7-0.6-9.4-1-14.1c-0.4-5.3-0.8-10.5-1.1-15.8
		c-0.2-3-0.4-6.1-0.6-9.1c0-0.2,0-0.3,0-0.6c1.4-0.1,2.7-0.2,4-0.3c0.1,0.8,0.2,1.6,0.3,2.3c0.2,2.5,0.3,4.9,0.5,7.4
		c0.3,4.4,0.6,8.8,0.9,13.3c0.2,3.3,0.4,6.6,0.7,9.9c0.3,4.5,0.6,9.1,1,13.6c0.2,2.5,0.4,4.9,0.5,7.4c0.1,1.3,0.2,2.7,0.3,4.1
		c-0.5,0.1-0.9,0.1-1.5,0.2c-0.2,2.3-0.5,4.6-1.1,6.9c-0.6,2.3-1.5,4.4-2.6,6.5c-1.1,2.1-2.5,4-4.1,5.8c-1.6,1.7-3.3,3.3-5.2,4.7
		c-1.9,1.4-4,2.5-6.2,3.3c-2.2,0.9-4.4,1.4-6.8,1.8c-2.4,0.3-4.7,0.4-7.1,0.1c-2.3-0.2-4.5-0.9-6.9-1.5c0.2,0.7,0.3,1.3,0.5,1.8
		c0.1,0.4,0.1,0.7,0.2,1.1c-0.3,0.1-0.5,0.3-0.8,0.4c-8.5,1.9-17,3.8-25.5,5.7c-2.4,0.5-4.9,1.1-7.3,1.7c-1.1,0.2-2.1,0.4-3.3,0.6
		c-0.7-3.1-1.4-6.2-2.1-9.3c-0.3-1.2-0.5-2.4-0.8-3.7c-2.7,1.1-5.3,2.1-7.9,3.1c-0.4,0.1-0.8,0.3-1.2,0.4c-2.3-2.3-4.7-4.6-7-6.9
		c-0.6-0.7-1.3-1.3-1.9-2c-0.5-0.6-0.9-0.6-1.6-0.3C28.2,84.3,21.1,87,14,89.8c-0.3,0.1-0.7,0.3-1,0.4c-0.1,4.5-0.3,8.9-0.4,13.3
		c-1.4,0.5-2.7,1-4.2,1.6C8.6,99,8.8,93.1,9,87.2c8-3.1,15.9-6.1,23.9-9.2C31.7,77,30.7,76,29.6,75c-8.1,3.1-16.4,6.3-24.6,9.4
		c0,0.6-0.1,1.2-0.1,1.7c-0.2,6.6-0.5,13.1-0.7,19.7c0,0.4-0.1,0.7-0.2,1.1c-1.3,0.5-2.6,0.9-4,1.4c0.8-21.1,1.6-42.1,2.4-63.1
		c3.9-1.5,7.8-3,11.7-4.5c0.8,0.7,1.5,1.5,2.3,2.2c0.2,0.3,0.4,0.5,0.7,0.8c4.1,4.2,8.3,8.5,12.4,12.7c7.7,7.8,15.3,15.7,23,23.5
		c0.2,0.2,0.4,0.4,0.6,0.6c0.1,0,0.1-0.1,0.2-0.1c-0.4-1.7-0.8-3.4-1.2-5.1c-0.4-1.8-0.7-3.6-1.1-5.4C49.6,63.9,48.3,58,47,52
		c0-0.1,0-0.1,0-0.3c4.1-0.9,8.3-1.8,12.6-2.8c0.3,1.4,0.7,2.7,1,4c0,0.2,0,0.5,0.1,0.7c2.9,13.1,5.8,26.1,8.7,39.2
		c0,0.2,0.2,0.4,0.3,0.7c1.1-0.3,2.1-0.5,3.2-0.8c2.5-0.5,4.9-1.1,7.4-1.6c3.5-0.8,6.9-1.5,10.4-2.3c0.5-0.1,1-0.2,1.6-0.4
		c-1.6-0.9-3.2-1.8-4.7-2.7c-0.4-0.2-0.8-0.5-1.2-0.7c0,0,0,0,0,0c-0.1-0.1-0.2-0.1-0.2-0.2c0,0,0,0,0,0c-0.1-0.1-0.2-0.2-0.4-0.3
		c0,0,0,0,0,0C85.6,84.5,85.5,84.5,85.5,84.4z M91.9,78.9c-0.1-0.1-0.2-0.1-0.3-0.2c-0.5-0.4-0.9-0.9-1.4-1.3c-4.7-4-7.4-9-7.9-15.2
		c-0.2-2.4,0.1-4.6,0.6-6.9c0.4-1.1,0.7-2.2,1.1-3.2l0,0c0.1-0.1,0.1-0.3,0.2-0.4l0,0l0.1,0l0-0.1c0.2-0.3,0.4-0.6,0.6-0.9
		c3-5.5,7.4-9.1,13.4-10.7c0.3-0.1,0.5-0.2,0.8-0.3c-0.3-1.4-0.6-2.7-0.9-4c-0.2,0-0.3,0-0.3,0c-10,2.3-18.6,11-19.7,22.7
		c-0.7,8.1,1.9,15.1,7.7,20.8c0.2,0.2,0.5,0.4,0.8,0.6l0,0c0.1,0.1,0.1,0.2,0.2,0.3c6.5,5.6,14,7.5,22.5,6c-0.1-0.4-0.1-0.6-0.2-0.9
		c-0.2-1.1-0.4-2.2-0.7-3.2c-1.5,0.2-2.8,0.4-4.1,0.4c-3.9,0.1-7.6-0.9-11.1-2.8c-0.3-0.2-0.7-0.3-1-0.4l0,0
		C92.2,79.1,92.1,79,91.9,78.9L91.9,78.9z M116.3,48.8L116.3,48.8c-0.1-0.1-0.2-0.2-0.3-0.3l0,0c-0.2-0.3-0.3-0.6-0.6-0.8
		c-4.4-3.7-9.4-5.3-15.1-4.1c-7,1.5-11.5,5.9-13.3,12.7c-1.8,6.8,0.2,12.6,5.3,17.4c0.2,0.2,0.4,0.3,0.7,0.4l0,0
		c0.1,0.1,0.2,0.2,0.3,0.3c0.3,0.3,0.6,0.5,0.9,0.8c4.2,2.7,8.7,3.6,13.5,2.5c9.5-2.2,15.4-11.6,13.1-21.1c-0.7-2.9-2-5.5-4.2-7.7
		C116.5,49,116.4,48.9,116.3,48.8z M17.9,75c2.9-1.1,5.8-2.2,8.8-3.3c-0.3-0.3-0.5-0.6-0.7-0.8c-2-2.1-4-4.2-6.1-6.2
		c-0.5-0.5-1.1-1-1.6-1.5c-1.2-1.3-2.4-2.5-3.6-3.8c-0.1,0-0.1,0.1-0.2,0.1c-0.2,5.7-0.5,11.4-0.8,17.2C15.3,76,16.6,75.5,17.9,75z"
		/>
	<path class="st0" d="M202.1,48.8c2.2,0.7,4.3,1.5,6.5,2.2c4.6,1.6,9.3,3.1,13.9,4.7c0.3,0.1,0.5,0.2,0.8,0.3
		c-0.4,1.3-0.8,2.7-1.2,4c-0.8,2.2-1.5,4.4-2.3,6.6c-8.5-2.8-16.8-5.6-25.2-8.4c-1.3,3.8-2.5,7.6-3.8,11.4c1.4,0.4,2.7,0.8,4,1.2
		c2.4,0.8,4.8,1.7,7.2,2.5c5.6,1.9,11.3,3.8,16.9,5.7c0.3,0.1,0.5,0.2,0.8,0.3c-0.4,1.4-0.8,2.7-1.3,4c-0.8,2.3-1.6,4.6-2.4,6.9
		c-0.5-0.2-0.9-0.3-1.4-0.4c-11.4-3.8-22.9-7.7-34.3-11.5c-0.4-0.1-0.8-0.1-1.2-0.2c-0.3-0.2-0.6-0.3-0.9-0.5
		c-0.9-0.3-1.8-0.6-2.8-1c0.1-0.3,0.2-0.6,0.3-1c1.6-4.9,3.2-9.7,4.9-14.6c0-0.1,0.1-0.3,0.1-0.4c0.3-0.8,0.6-1.5,0.9-2.4
		c-1.7,0.1-3.2,0.2-4.7,0.3c-1.1,0.1-2.2,0.2-3.3,0.3c-0.6,0-1.2,0-1.8,0.1c-0.6,0.1-0.9-0.1-1.3-0.5c-3.9-4.5-7.8-9.1-11.7-13.6
		c-4.1-4.8-8.3-9.6-12.4-14.3c-0.2-0.3-0.5-0.5-0.7-0.7c-1.5-1.7-2.9-3.5-4.4-5.2c-0.1,0-0.1,0.1-0.2,0.1
		c0.8,12.1,1.7,24.1,2.5,36.3c-1.4,0.1-2.7,0.2-4.1,0.3c0-0.5-0.1-0.8-0.1-1.1c-0.1-1.5-0.2-2.9-0.3-4.4c-0.3-4.4-0.6-8.8-0.9-13.3
		c-0.2-3.3-0.4-6.6-0.7-9.9c-0.3-4.3-0.6-8.6-0.9-13c-0.2-3.4-0.5-6.8-0.7-10.2c-0.1-1.2-0.2-2.5-0.3-3.7c0-0.8,0-1.5,0-2.4
		c1.2-0.1,2.4-0.2,3.5-0.3c0.4,0,0.6,0.1,0.8,0.4c0.5,0.6,1,1.2,1.5,1.7c0.1,0.1,0.1,0.2,0.2,0.2c9.2,10.7,18.3,21.5,27.5,32.2
		c0.1,0.2,0.3,0.3,0.6,0.5c-0.1-1.3-0.2-2.4-0.2-3.5c0-0.5-0.1-1-0.1-1.5c-0.2-2.5-0.3-5.1-0.5-7.6c-0.2-3.3-0.5-6.6-0.7-9.9
		c-0.3-4.7-0.7-9.3-1-14c0-0.2,0-0.4,0-0.7c4.3-0.3,8.6-0.6,12.9-0.9c0.1,0.8,0.2,1.6,0.3,2.3c0,0.5,0,1,0,1.5
		c0.2,3,0.4,5.9,0.6,8.9s0.4,5.9,0.6,8.9c0.4,5.3,0.8,10.6,1.1,15.9c0.3,4.4,0.6,8.7,0.9,13.1c0,0.4,0.1,0.7,0.1,1.1
		c0.1,0,0.1,0,0.2,0c1.1-3.4,2.3-6.9,3.4-10.3c2.2-6.7,4.5-13.4,6.8-20.1c13.3,4.4,26.5,8.9,39.7,13.3c-0.4,1.3-0.9,2.6-1.3,3.9
		c-0.4-0.1-0.7-0.2-1.1-0.3c-11.2-3.8-22.5-7.5-33.7-11.3c-0.3-0.1-0.7-0.2-1.1-0.3c-2.1,6.1-4.1,12.2-6.1,18.4
		c1.4,0.5,2.6,0.9,4,1.3c1.6-4.8,3.2-9.6,4.8-14.4c10.7,3.6,21.3,7.1,31.9,10.7c-0.5,1.4-0.9,2.6-1.3,3.9c-9.4-3.1-18.7-6.2-28-9.4
		c-1.2,3.5-2.3,7-3.5,10.6C199.6,48,200.9,48.4,202.1,48.8z"/>
	<path class="st1" d="M51.8,162.1c-1-1.7-1.9-3.5-2.4-5.4c-1-3.8-0.8-7.6,0.4-11.4c1.5-4.6,4-8.6,8-11.5c4.6-3.3,9.6-4,14.9-2.2
		c3,1,5.3,3.1,6.9,5.9c0.2,0.3,0.4,0.6,0.6,1.1c0.4-1.2,0.7-2.2,1.1-3.2c3.4,1.1,6.7,2.1,10.1,3.2c-0.4,1.1-0.7,2.2-1,3.3
		c-0.1,0.4-0.2,0.8-0.3,1.3c-0.1,0.3-0.3,0.6-0.4,0.9c-0.7,2.3-1.4,4.6-2.2,6.9c-1.4,4.5-2.8,9-4.2,13.5c-0.3,0.9-0.5,1.8-0.5,2.7
		c0,1.6,0.9,2.4,2.5,2.4c0.2,0,0.5-0.1,0.7-0.1c0.9-0.2,1.7-0.7,2.4-1.3c1.5-1.3,2.6-2.9,3.6-4.6c1.7-3.2,2.6-6.6,3.2-10.1
		c0.6-3.9,0.5-7.8-0.5-11.6c-0.1-0.5-0.3-0.9-0.4-1.3c0-0.1-0.1-0.2-0.1-0.3c0,0,0,0,0,0c-0.1-0.1-0.1-0.3-0.2-0.4c0,0,0,0,0,0
		c0-0.2-0.1-0.4-0.1-0.6c-0.9-2.2-2-4.3-3.4-6.2c-2.9-3.7-6.6-6.1-11-7.7c-4.1-1.5-8.4-2.2-12.8-1.6c-5.7,0.7-10.7,3.1-15,6.9
		c-4.7,4-7.4,9.2-8.9,15.2c-1.5,6.1-1,12,1.7,17.6c0.2,0.3,0.4,0.6,0.6,0.9c0,0,0,0,0,0c0.1,0.1,0.1,0.3,0.2,0.4
		c1,2.1,2.4,3.9,4,5.6c4.1,4.1,9,6.5,14.7,7.3c3.8,0.5,7.5-0.1,11.1-1.7c0.4-0.2,0.8-0.4,1.3-0.6c0.5,2,1,4,1.4,6c0,0.3,0,0.5,0,0.8
		c-0.3,0.1-0.6,0.3-0.8,0.4c-2.4,0.9-5,1.3-7.5,1.5c-4,0.3-8-0.1-11.8-1.4c-7.6-2.5-13.8-7-18.1-13.9c-0.1-0.1-0.2-0.2-0.3-0.4
		c0,0,0,0,0,0c-0.1-0.2-0.2-0.3-0.2-0.5c-0.9-2.1-2-4.2-2.8-6.4c-2.3-6.6-2.1-13.2-0.1-19.8c4-13.3,13.1-21.1,26.4-24.3
		c6.4-1.5,12.7-0.7,18.9,1.6c9.7,3.6,16.2,10.3,19.7,19.9c0.2,0.5,0.4,1,0.6,1.5c0.1,0.2,0.1,0.3,0.2,0.5c0,0,0,0,0,0
		c0.1,0.3,0.1,0.7,0.2,1c0.5,2.1,0.8,4.3,0.9,6.5c0.1,3.6-0.3,7.2-1.3,10.6c-1.1,4-2.6,7.8-5.1,11.2c-1.6,2.2-3.6,4-6,5.3
		c-2.6,1.4-5.4,1.7-8.3,1c-2.1-0.5-3.8-1.6-5.3-3.2c-0.2-0.2-0.3-0.4-0.5-0.6c-1.2-1.7-2-3.6-2.1-5.9c-0.5,0.3-0.9,0.5-1.2,0.7
		c-2.5,1.5-5.2,2.3-8.1,2.1c-5-0.4-9.1-2.6-12.2-6.6c-0.2-0.2-0.4-0.4-0.6-0.7c0,0,0,0,0,0C52,162.4,51.9,162.3,51.8,162.1z
		 M62.2,158.7c0.2,0.2,0.3,0.4,0.5,0.5c2.2,1.6,5.9,2.5,9,0.1c2.4-1.8,3.7-4.3,4.4-7.2c0.3-1.2,0.5-2.5,0.2-3.7
		c-0.2-2.9-1.4-5.1-4-6.5c-3-1.6-6.2-1.2-8.7,1.1c-3.4,3.1-4.8,8.9-3.1,13.2C60.8,157.1,61.3,158.1,62.2,158.7z"/>
	<path class="st0" d="M204.2,168.6c2.8,0.3,5.6,0.6,8.5,0.9c3.9,0.4,7.9,0.8,11.8,1.1c0.6,0.1,1.3,0.1,2,0.2c-0.1,1.4-0.2,2.7-0.3,4
		c-0.1,1.1-0.3,2.1-0.4,3.2c-0.1,1.3-0.3,2.5-0.4,3.9c-8.9-0.9-17.6-1.7-26.5-2.5c-0.4,4-0.8,7.9-1.1,11.9c1.5,0.1,2.9,0.2,4.3,0.3
		c1.8,0.2,3.7,0.4,5.5,0.6c4.1,0.4,8.1,0.8,12.2,1.2c2.4,0.2,4.8,0.5,7.3,0.7c0.3,0,0.7,0.1,1,0.1c-0.1,1.4-0.2,2.8-0.3,4.1
		c0,0.1-0.1,0.3-0.1,0.4c-0.2,1.7-0.3,3.3-0.5,5c-0.1,0.7-0.2,1.3-0.3,2c-0.7-0.1-1.2-0.1-1.8-0.2c-3.1-0.3-6.2-0.6-9.3-0.9
		c-3.9-0.4-7.9-0.8-11.8-1.1c-3.2-0.3-6.4-0.6-9.6-0.9c-2-0.2-4-0.3-6-0.5c-1.1-0.1-2.1-0.3-3.2-0.4c-0.3,0-0.5-0.1-0.8-0.1
		c0.2-1.6,0.3-3.2,0.5-4.8c0.1-1.2,0.2-2.5,0.3-3.7c0.2-1.7,0.4-3.4,0.6-5.1c-0.5,0-0.9,0.1-1.3,0.1c-0.3-1.2-0.5-2.3-0.8-3.4
		c-2.8-12.4-5.5-24.9-8.3-37.3c-0.8-3.7-1.7-7.4-2.5-11.1c-0.3-1.6-0.7-3.1-1-4.8c1.4-0.3,2.7-0.6,4-0.9c0.4,1.6,0.8,3.2,1.1,4.7
		c0,0.1,0,0.2,0,0.3c2.9,13.2,5.9,26.5,8.8,39.7c0.2,0.9,0.4,1.8,0.6,2.7c0.1,0,0.1,0,0.2,0c0.4-4.4,0.8-8.7,1.3-13.1
		c0.7-7,1.3-14,2-21.2c13.9,1.3,27.8,2.7,41.7,4c-0.1,1.4-0.2,2.7-0.3,4.1c-0.3,0-0.5,0-0.8,0c-2.4-0.2-4.8-0.5-7.2-0.7
		c-3.9-0.4-7.8-0.7-11.6-1.1c-5.3-0.5-10.5-1-15.8-1.5c-0.7-0.1-1.5-0.1-2.3-0.2c-0.6,6.5-1.3,12.8-1.8,19.3
		c1.4,0.1,2.7,0.3,4.1,0.4c0.5-5.1,1-10.1,1.5-15.2c11.2,1.1,22.3,2.1,33.5,3.2c-0.1,1.4-0.3,2.7-0.4,4.1
		c-9.8-0.9-19.6-1.9-29.4-2.8c-0.4,3.8-0.7,7.4-1.1,11.1C201.4,168.3,202.8,168.5,204.2,168.6z"/>
	<path class="st2" d="M135.4,5.5c0.1,1.2,0.3,2.5,0.3,3.7c0.2,3.4,0.5,6.8,0.7,10.2c0.3,4.3,0.6,8.6,0.9,13c0.2,3.3,0.4,6.6,0.7,9.9
		c0.3,4.4,0.6,8.8,0.9,13.3c0.1,1.5,0.2,2.9,0.3,4.4c0,0.3,0.1,0.7,0.1,1.1c1.4-0.1,2.7-0.2,4.1-0.3c-0.8-12.2-1.7-24.2-2.5-36.3
		c0.1,0,0.1-0.1,0.2-0.1c1.5,1.7,2.9,3.5,4.4,5.2c0.1,1.4,0.1,2.8,0.2,4.3c0.2,2.3,0.4,4.7,0.5,7c0.3,3.7,0.5,7.4,0.8,11.1
		c0.2,2.4,0.3,4.7,0.5,7.1c0.1,1.2,0.2,2.4,0.3,3.6c-3.6,0.4-7.3,0.5-10.9,0.8c-0.4,9.9-4.3,18.1-12.2,24.1c-8,6-16.9,7.3-26.6,4.7
		c0.5,3.8,1.6,7.4,2.4,11.2c-12.3,2.7-24.5,5.4-36.8,8.2c-0.4-1.3-0.7-2.6-0.9-4c0.1-0.1,0.2-0.1,0.4-0.2c9.8-2.2,19.7-4.4,29.5-6.5
		c1.2-0.3,2.4-0.5,3.7-0.8c-0.3-1.4-0.6-2.7-0.9-4c-0.2,0-0.4,0-0.5,0.1c-8.9,2-17.9,4-26.8,6c-2.1,0.5-4.2,0.9-6.3,1.3
		c-0.3-1.3-0.6-2.6-0.9-3.9c2.4-0.6,4.9-1.1,7.3-1.7c8.5-1.9,17-3.8,25.5-5.7c0.3-0.1,0.5-0.2,0.8-0.4c0.5-0.1,1-0.2,1.4-0.3
		c-0.2-0.3-0.5-0.4-0.7-0.5c-0.3-0.1-0.6-0.2-0.9-0.3c-0.1-0.6-0.3-1.1-0.5-1.8c2.3,0.6,4.6,1.3,6.9,1.5c2.4,0.2,4.7,0.2,7.1-0.1
		c2.3-0.3,4.6-0.9,6.8-1.8c2.2-0.9,4.2-2,6.2-3.3c1.9-1.4,3.7-2.9,5.2-4.7c1.6-1.8,2.9-3.7,4.1-5.8c1.1-2.1,2-4.2,2.6-6.5
		c0.6-2.3,0.9-4.6,1.1-6.9c0.5-0.1,0.9-0.1,1.5-0.2c-0.1-1.4-0.2-2.7-0.3-4.1c-0.2-2.5-0.4-4.9-0.5-7.4c-0.3-4.5-0.6-9.1-1-13.6
		c-0.2-3.3-0.4-6.6-0.7-9.9c-0.3-4.4-0.6-8.8-0.9-13.3c-0.2-2.5-0.3-4.9-0.5-7.4C132.7,5.6,134.1,5.6,135.4,5.5z"/>
	<path class="st3" d="M83.4,236.9c0.3,0.2,0.6,0.4,0.9,0.6c5.5,4.5,11.9,6.9,19,6.8c14.4-0.1,24.6-9.7,28.2-20.6
		c2.6-7.8,2-15.3-1.5-22.7c-0.1-0.3-0.2-0.5-0.4-0.9c2.9-0.6,5.7-1.3,8.6-1.9c-1.3-5.9-2.6-11.8-3.9-17.7
		c-1.3-5.9-2.6-11.8-3.7-17.7c1.9,2.4,3.9,4.9,5.8,7.3c0,0.4,0,0.7,0.1,1.1c2.2,10.1,4.5,20.2,6.7,30.3c0,0.2,0,0.3,0.1,0.6
		c-3.4,0.8-6.8,1.5-10.2,2.3c0.3,0.7,0.5,1.2,0.7,1.8c1.5,3.7,2.3,7.6,2.3,11.6c-0.1,6.9-2.3,13.2-6.7,18.6
		c-4.7,5.9-10.8,9.5-18.3,10.9c-5.8,1-11.4,0.3-16.8-2c-4-1.7-7.5-4.2-10.4-7.5C83.6,237.5,83.5,237.2,83.4,236.9z"/>
	<path class="st4" d="M202.1,48.8c-1.3-0.4-2.6-0.8-4-1.2c1.2-3.6,2.4-7,3.5-10.6c9.4,3.1,18.6,6.2,28,9.4c0.4-1.3,0.9-2.5,1.3-3.9
		c-10.6-3.6-21.2-7.1-31.9-10.7c-1.6,4.8-3.2,9.6-4.8,14.4c-1.3-0.4-2.6-0.9-4-1.3c2.1-6.1,4.1-12.2,6.1-18.4
		c0.4,0.1,0.8,0.2,1.1,0.3c11.2,3.8,22.5,7.5,33.7,11.3c0.4,0.1,0.7,0.2,1.1,0.3c1.3,0.5,2.5,0.9,3.9,1.4c-1.3,3.9-2.6,7.7-3.9,11.7
		c-9.4-3.1-18.6-6.2-28-9.4C203.6,44.5,202.9,46.7,202.1,48.8z"/>
	<path class="st4" d="M204.2,168.6c-1.4-0.1-2.8-0.2-4.3-0.4c0.4-3.7,0.7-7.3,1.1-11.1c9.8,0.9,19.6,1.9,29.4,2.8
		c0.1-1.4,0.3-2.7,0.4-4.1c-11.2-1.1-22.3-2.1-33.5-3.2c-0.5,5.1-1,10.1-1.5,15.2c-1.4-0.1-2.7-0.3-4.1-0.4
		c0.6-6.4,1.2-12.8,1.8-19.3c0.8,0.1,1.6,0.1,2.3,0.2c5.3,0.5,10.5,1,15.8,1.5c3.9,0.4,7.8,0.7,11.6,1.1c2.4,0.2,4.8,0.5,7.2,0.7
		c0.3,0,0.5,0,0.8,0c1.4,0.1,2.7,0.2,4.2,0.4c-0.4,4.1-0.8,8.2-1.2,12.3c-3.3-0.2-6.5-0.6-9.8-0.9c-3.2-0.3-6.5-0.6-9.7-0.9
		c-3.3-0.3-6.5-0.6-9.9-1C204.5,163.9,204.4,166.2,204.2,168.6z"/>
	<path class="st4" d="M4,106.9c0.1-0.4,0.2-0.7,0.2-1.1c0.2-6.6,0.5-13.1,0.7-19.7C4.9,85.6,5,85,5,84.4c8.2-3.2,16.5-6.3,24.6-9.4
		c1.1,1,2.1,2,3.3,3.1c-8,3.1-15.9,6.1-23.9,9.2C8.8,93.1,8.6,99,8.4,105.1c1.5-0.6,2.8-1.1,4.2-1.6c0.1-4.5,0.3-8.9,0.4-13.3
		c0.3-0.1,0.7-0.3,1-0.4c7.1-2.7,14.2-5.4,21.2-8.2c0.7-0.3,1.1-0.3,1.6,0.3c0.6,0.7,1.2,1.3,1.9,2c-7,2.7-13.9,5.4-20.9,8
		c-0.9,0.3-0.9,0.3-0.9,1.3c-0.1,4-0.3,7.9-0.4,11.9c0,0.2,0,0.3-0.1,0.6c-4.1,1.6-8.3,3.2-12.5,4.8C3.7,109.2,4,108,4,106.9z"/>
	<path class="st5" d="M44.9,164.2c-0.2-0.3-0.4-0.6-0.6-0.9c-2.7-5.7-3.2-11.6-1.7-17.6c1.4-6,4.2-11.1,8.9-15.2
		c4.3-3.7,9.3-6.2,15-6.9c4.4-0.6,8.6,0.1,12.8,1.6c4.3,1.6,8.1,4,11,7.7c1.5,1.9,2.6,4,3.4,6.2c0.1,0.2,0.1,0.4,0.1,0.6
		c-0.2-0.1-0.4-0.2-0.5-0.3c-3.9-5.5-9.5-8.4-16-9.8c-2.4-0.5-4.8-0.7-7.3-0.5c-3.9,0.3-7.6,1.4-11,3.4c-2.3,1.3-4.5,2.9-6.4,4.8
		c-3.5,3.4-5.8,7.6-7.2,12.2c-1,3.2-1.4,6.5-1.2,9.9c0.1,1.3,0.3,2.6,0.5,3.9C44.9,163.5,44.9,163.8,44.9,164.2z"/>
	<path class="st6" d="M172.8,136.1c0.8,3.7,1.7,7.4,2.5,11.1c2.8,12.4,5.5,24.9,8.3,37.3c0.2,1.1,0.5,2.2,0.8,3.4
		c0.4,0,0.8-0.1,1.3-0.1c-0.2,1.7-0.4,3.4-0.6,5.1c-1.2,0.2-2.4,0.5-3.6,0.7c-0.5-1.6-0.7-3.2-1.1-4.7c-0.4-2-0.8-4-1.2-5.9
		c-2.7-12.1-5.4-24.2-8-36.2c-0.6-2.9-1.3-5.8-1.9-8.7c-0.1-0.4-0.1-0.7-0.2-1.1C170.2,136.7,171.5,136.4,172.8,136.1z"/>
	<path class="st3" d="M26.6,259.3c1.7,0.1,3.3,0.2,5,0.3c1.3,0.1,2.6,0.2,4,0.3c0.6-7.6,1.2-15.2,1.8-22.8
		c7.7,0.6,15.3,1.2,23.1,1.8c-0.1,1.4-0.2,2.8-0.3,4.1c-6.3-0.5-12.6-1-19-1.5c-0.6,7.7-1.2,15.2-1.8,22.8c-4.3-0.3-8.6-0.7-12.9-1
		C26.4,261.9,26.5,260.6,26.6,259.3z"/>
	<path class="st7" d="M76.7,173.4c1.5,1.6,3.2,2.7,5.3,3.2c2.9,0.7,5.6,0.4,8.3-1c2.4-1.3,4.4-3.1,6-5.3c2.5-3.4,4-7.2,5.1-11.2
		c1-3.5,1.4-7,1.3-10.6c-0.1-2.2-0.4-4.4-0.9-6.5c-0.1-0.3-0.1-0.7-0.2-1c0.3,0.6,0.7,1.2,1,1.8c1.2,2.9,2,5.9,2.3,9
		c0.8,8.5-1.2,16.3-5.8,23.5c-1.6,2.4-3.6,4.4-6.2,5.8c-4.2,2.2-8.4,2.1-12.3-0.6C78.4,178.7,77,176.3,76.7,173.4z"/>
	<path class="st3" d="M154.1,189.8c1.9-0.4,3.9-0.9,5.9-1.4c2.8-11.3,5.5-22.6,8.3-33.8c0.1,0,0.2,0,0.2,0c0.9,4.3,1.9,8.5,2.8,12.8
		c-0.2,0.4-0.4,0.7-0.5,1.1c-1.6,6.5-3.2,12.9-4.7,19.4c-0.4,1.4-0.7,2.9-1.1,4.4c-0.5,0.1-1,0.3-1.5,0.4c-1.8,0.4-3.6,0.8-5.3,1.2
		c-0.5,0.1-0.8,0-1.1-0.4C156.1,192.3,155.1,191.1,154.1,189.8z"/>
	<path class="st3" d="M179.2,77.9c0.4,0.1,0.8,0.1,1.2,0.2c11.4,3.8,22.9,7.6,34.3,11.5c0.4,0.1,0.8,0.3,1.4,0.4
		c0.8-2.3,1.6-4.6,2.4-6.9c1.3,0.4,2.5,0.9,3.9,1.3c-1.2,3.7-2.4,7.2-3.6,10.9c-13.6-4.5-27.1-9.1-40.6-13.6
		C178.5,80.4,178.9,79.2,179.2,77.9z"/>
	<path class="st8" d="M188.3,202c2,0.2,4,0.3,6,0.5c3.2,0.3,6.4,0.6,9.6,0.9c3.9,0.4,7.9,0.8,11.8,1.1c3.1,0.3,6.2,0.6,9.3,0.9
		c0.6,0.1,1.1,0.1,1.8,0.2c0.1-0.7,0.2-1.3,0.3-2c0.2-1.7,0.3-3.3,0.5-5c0-0.1,0.1-0.3,0.1-0.4c1.3,0.1,2.7,0.2,4.2,0.3
		c-0.3,3.9-0.7,7.6-1.1,11.5c-14.2-1.4-28.4-2.7-42.7-4.1C188.2,204.6,188.3,203.3,188.3,202z"/>
	<path class="st3" d="M62.6,262.1c1.7,0.1,3.4,0.2,5.1,0.3c1.2,0.1,2.5,0.2,3.8,0.3c1-13.1,2.1-26.1,3.1-39.2
		c0.2,0.3,0.3,0.4,0.3,0.5c0.8,2.3,1.8,4.4,3.1,6.5c0.1,0.1,0.1,0.2,0.1,0.3c-0.2,3.1-0.5,6.2-0.7,9.3c-0.3,3.8-0.6,7.6-0.9,11.4
		c-0.2,3-0.5,6.1-0.7,9.1c-0.1,1.9-0.3,3.7-0.4,5.6c0,0.3-0.1,0.6-0.2,1c-4.3-0.3-8.5-0.7-12.8-1C62.5,264.8,62.5,263.5,62.6,262.1z
		"/>
	<path class="st3" d="M194.8,70.8c-1.3-0.4-2.6-0.8-4-1.2c1.3-3.8,2.5-7.5,3.8-11.4c8.4,2.8,16.8,5.6,25.2,8.4
		c0.8-2.2,1.5-4.4,2.3-6.6c1.2,0.4,2.5,0.8,3.9,1.3c-1.1,3.6-2.3,7-3.5,10.6c-8.4-2.8-16.8-5.6-25.3-8.4
		C196.4,65.9,195.6,68.3,194.8,70.8z"/>
	<path class="st3" d="M201.9,191.6c-1.4-0.1-2.8-0.2-4.3-0.3c0.4-4,0.8-7.9,1.1-11.9c8.9,0.9,17.7,1.7,26.5,2.5
		c0.1-1.4,0.3-2.6,0.4-3.9c0.1-1.1,0.2-2.1,0.4-3.2c1.3,0.2,2.7,0.3,4.1,0.5c-0.3,3.7-0.7,7.3-1.1,11.1c-8.8-0.8-17.6-1.7-26.5-2.5
		C202.4,186.4,202.2,189,201.9,191.6z"/>
	<path class="st3" d="M187.2,41.4c-1.1,3.4-2.3,6.9-3.4,10.3c-0.1,0-0.1,0-0.2,0c0-0.4-0.1-0.7-0.1-1.1c-0.3-4.4-0.6-8.7-0.9-13.1
		c-0.4-5.3-0.8-10.6-1.1-15.9c-0.2-3-0.4-5.9-0.6-8.9s-0.4-5.9-0.6-8.9c0-0.5,0-1,0-1.5c1.3-0.1,2.6-0.2,4-0.2
		c0.1,0.3,0.2,0.6,0.2,0.9c0.2,2.4,0.3,4.7,0.5,7.1c0.2,3.4,0.5,6.7,0.7,10.1c0.2,2.2,0.3,4.5,0.5,6.7c0.3,3.6,0.5,7.2,0.8,10.8
		c0.1,1,0.1,2.1,0.2,3.1C187.1,41,187.2,41.2,187.2,41.4z"/>
	<path class="st7" d="M39.1,168.4c0.1,0.1,0.3,0.2,0.3,0.4c4.3,6.9,10.4,11.3,18.1,13.9c3.8,1.3,7.8,1.6,11.8,1.4
		c2.6-0.2,5.1-0.6,7.5-1.5c0.3-0.1,0.6-0.2,0.8-0.4c0-0.3,0-0.6,0-0.8c0.3-0.1,0.6-0.2,1.1-0.3c0.5,2.2,1,4.4,1.5,6.7
		c-1.1,0.3-2,0.7-2.9,0.9c-3.9,1.1-7.8,1.2-11.8,0.8c-6.7-0.8-12.6-3.6-17.7-7.9c-3.9-3.3-6.6-7.4-8.6-12
		C39.1,169.1,39.1,168.7,39.1,168.4z"/>
	<path class="st9" d="M61.8,103.6c2.1-0.4,4.2-0.9,6.3-1.3c8.9-2,17.9-4,26.8-6c0.1,0,0.3,0,0.5-0.1c0.3,1.3,0.6,2.6,0.9,4
		c-1.3,0.3-2.5,0.6-3.7,0.8c-9.8,2.2-19.7,4.3-29.5,6.5c-0.1,0-0.2,0.1-0.4,0.2c-1.1,0.2-2.2,0.4-3.3,0.6c-0.3-1.3-0.6-2.6-0.9-4
		C59.7,104.1,60.8,103.9,61.8,103.6z"/>
	<path class="st2" d="M187.8,164.7c-0.4,4.4-0.8,8.7-1.3,13.1c-0.1,0-0.1,0-0.2,0c-0.2-0.9-0.4-1.8-0.6-2.7
		c-2.9-13.2-5.9-26.5-8.8-39.7c0-0.1,0-0.2,0-0.3c1.3-0.3,2.6-0.5,3.9-0.8c0.2,1,0.5,2,0.7,2.9c1.8,8.2,3.6,16.3,5.4,24.5
		c0.2,0.8,0.3,1.5,0.5,2.3C187.6,164.3,187.7,164.5,187.8,164.7z"/>
	<path class="st3" d="M52.1,75.3c0.4,1.7,0.8,3.4,1.2,5.1c-0.1,0-0.1,0.1-0.2,0.1c-0.2-0.2-0.4-0.4-0.6-0.6
		c-7.7-7.8-15.3-15.7-23-23.5c-4.1-4.2-8.3-8.5-12.4-12.7c-0.2-0.2-0.4-0.5-0.7-0.8c0.7-0.3,1.4-0.6,2-0.9c0.4-0.2,0.8-0.2,1.1,0.2
		c0.1,0.1,0.2,0.2,0.4,0.4c6.1,6.3,12.3,12.5,18.4,18.8c4.3,4.4,8.6,8.8,12.9,13.2C51.5,74.8,51.8,75,52.1,75.3z"/>
	<path class="st3" d="M72.8,92.7c-1,0.3-2.1,0.5-3.2,0.8c-0.1-0.3-0.2-0.5-0.3-0.7c-2.9-13.1-5.8-26.1-8.7-39.2
		c-0.1-0.2-0.1-0.5-0.1-0.7c1-0.2,2-0.4,3.2-0.7c0.2,1,0.5,1.9,0.7,2.8c2.6,11.6,5.2,23.2,7.7,34.8C72.3,90.7,72.6,91.7,72.8,92.7z"
		/>
	<path class="st10" d="M29.2,228.2c2.1,0.1,4.1,0.3,6.2,0.4c3,0.2,6,0.5,9,0.7c4.1,0.3,8.2,0.7,12.3,1c1.4,0.1,2.8,0.2,4.3,0.3
		c0.1,1.4-0.1,2.7-0.2,4.1c-0.3,0-0.5,0-0.7,0c-3.9-0.3-7.8-0.6-11.6-0.9c-3.9-0.3-7.9-0.6-11.8-0.9c-2.1-0.2-4.3-0.3-6.4-0.5
		c-0.4,0-0.9-0.1-1.3-0.2C29,230.9,29.1,229.6,29.2,228.2z"/>
	<path class="st5" d="M52,162.5c0.2,0.2,0.4,0.4,0.6,0.7c3.1,4,7.2,6.2,12.2,6.6c2.9,0.2,5.6-0.6,8.1-2.1c0.4-0.2,0.7-0.4,1.2-0.7
		c0.1,2.2,0.9,4.1,2.1,5.9c-1,0.5-2,1.1-3,1.5c-3.7,1.5-7.4,1.4-11.1-0.1c-4.4-1.8-7.4-5-9.4-9.2C52.5,164.2,52.3,163.3,52,162.5z"
		/>
	<path class="st7" d="M86,169.4c-0.2,0-0.5,0.1-0.7,0.1c-1.6,0-2.5-0.9-2.5-2.4c0-0.9,0.2-1.8,0.5-2.7c1.4-4.5,2.8-9,4.2-13.5
		c0.7-2.3,1.4-4.6,2.2-6.9c0.1-0.3,0.3-0.6,0.4-0.9c1.2,0.3,2.4,0.6,3.7,1c-0.1,0.4-0.1,0.6-0.2,0.9c-1.6,5.1-3.2,10.2-4.8,15.3
		c-0.9,2.8-1.8,5.7-2.7,8.5C86.1,169,86,169.2,86,169.4z"/>
	<path class="st11" d="M169.3,34.5c0.1,1.1,0.2,2.2,0.2,3.5c-0.3-0.2-0.4-0.4-0.6-0.5c-9.2-10.7-18.3-21.5-27.5-32.2
		c-0.1-0.1-0.1-0.2-0.2-0.2c2.4-0.2,2.4-0.2,3.9,1.6c5,5.9,10.1,11.8,15.1,17.8c2.5,2.9,5,5.9,7.5,8.8
		C168.3,33.6,168.9,34.1,169.3,34.5z"/>
	<path class="st3" d="M42.3,225.1c-1.3-0.1-2.5-0.2-3.9-0.2c0-0.4,0-0.7,0-0.9c0.2-3.1,0.5-6.2,0.7-9.3c0.2-2.8,0.4-5.5,0.7-8.3
		c0-0.1,0-0.2,0.1-0.3c1.3,0.1,2.5,0.2,4,0.4C43.3,212.7,42.8,218.9,42.3,225.1z"/>
	<path class="st11" d="M152.1,166.2c-0.1,0.6-0.3,1.3-0.4,1.9c-0.1,0.1-0.2,0.1-0.3,0.2c-0.1-0.2-0.1-0.4-0.3-0.5
		c-5.8-7.5-11.6-15.1-17.4-22.6c-0.1-0.1-0.1-0.2-0.2-0.3c0.5-0.1,1-0.3,1.6-0.4c1,1.3,2,2.6,3,3.9c4.4,5.7,8.9,11.5,13.3,17.2
		C151.6,165.8,151.8,166,152.1,166.2z"/>
	<path class="st11" d="M46.9,90.4c2.6-1,5.2-2,7.9-3.1c0.3,1.3,0.5,2.5,0.8,3.7c-1.7,0.5-3.5,1.1-5.2,1.7c-0.8,0.3-1.3,0.2-1.8-0.5
		C48.1,91.6,47.5,91,46.9,90.4z"/>
	<path class="st11" d="M173.6,58.8c1.1-0.1,2.2-0.2,3.3-0.3c1.5-0.1,3-0.2,4.7-0.3c-0.3,0.9-0.6,1.7-0.9,2.4
		c-1.5,0.1-3.1,0.1-4.6,0.3c-0.5,0-0.9-0.1-1.2-0.5C174.5,59.8,174.1,59.3,173.6,58.8z"/>
	<path class="st11" d="M86.2,85c0.4,0.2,0.8,0.5,1.2,0.7c1.5,0.9,3.1,1.8,4.7,2.7c-0.6,0.1-1.1,0.2-1.6,0.4C89.4,87.9,88.2,87,87,86
		C86.7,85.7,86.5,85.4,86.2,85z"/>
	<path class="st5" d="M93.8,139.7c0.1,0.1,0.1,0.3,0.2,0.4C93.9,140,93.9,139.8,93.8,139.7z"/>
	<path class="st7" d="M101.6,141c-0.1-0.2-0.1-0.3-0.2-0.5C101.5,140.7,101.6,140.8,101.6,141z"/>
	<path class="st5" d="M51.8,162.1c0.1,0.1,0.1,0.3,0.2,0.4C52,162.4,51.9,162.3,51.8,162.1z"/>
	<path class="st11" d="M85.6,84.6c0.1,0.1,0.2,0.2,0.4,0.3C85.9,84.8,85.8,84.7,85.6,84.6z"/>
	<path class="st5" d="M45.1,164.6c-0.1-0.1-0.1-0.3-0.2-0.4C45,164.3,45.1,164.4,45.1,164.6z"/>
	<path class="st7" d="M38.8,168c0.1,0.2,0.2,0.3,0.2,0.5C39,168.3,38.9,168.1,38.8,168z"/>
	<path class="st3" d="M83.2,236.7c0.1,0.1,0.1,0.1,0.2,0.2C83.3,236.9,83.2,236.8,83.2,236.7z"/>
	<path class="st3" d="M82.9,236.6c0.1,0.1,0.2,0.1,0.3,0.2C83.1,236.7,83,236.6,82.9,236.6z"/>
	<path class="st5" d="M94,140.1c0,0.1,0.1,0.2,0.1,0.3C94.1,140.3,94,140.2,94,140.1z"/>
	<path class="st11" d="M85.5,84.4c0.1,0.1,0.1,0.1,0.2,0.2C85.6,84.5,85.5,84.5,85.5,84.4z"/>
	<path class="st11" d="M86,84.9c0.1,0.1,0.2,0.1,0.2,0.2C86.1,85,86.1,84.9,86,84.9z"/>
	<path class="st3" d="M116.9,204c-0.2-0.1-0.5-0.2-0.7-0.3c-3.6-2.6-7.6-3.7-12-3.3c-7.7,0.8-13.5,6.4-15.2,13.4
		c-1,4.2-0.4,8.2,1.5,12c0.1,0.3,0.2,0.6,0.3,0.8c-0.2-0.1-0.4-0.2-0.5-0.4c-4.5-5.1-5.8-11-3.6-17.4c2.2-6.4,6.8-10.4,13.5-11.5
		c6.4-1.1,11.9,1,16.2,5.9C116.7,203.4,116.8,203.7,116.9,204z"/>
	<path class="st11" d="M108.6,239.2c-3.8,0.3-7.4-0.1-10.9-1.6c-3.2-1.3-5.9-3.3-8.1-5.9c-0.1-0.2-0.2-0.4-0.3-0.6
		c0.2,0.1,0.5,0.2,0.7,0.4c4.4,3.4,9.4,4.9,15,4.5c0.9-0.1,1.8-0.2,2.8-0.4C108,236.7,108.3,237.9,108.6,239.2z"/>
	<g>
		<polygon class="st12" points="84.2,204.2 84.2,204.2 84.2,204.2 		"/>
		<path class="st3" d="M97.5,189.3c-0.2,0-0.3,0-0.4,0c-0.2,0-0.5,0.1-0.7,0.2c-3.6,0.9-6.8,2.6-9.7,5c-10.9,9-12.5,25.2-3.6,36.1
			c0.2,0.2,0.5,0.4,0.7,0.7c-0.1-0.2-0.1-0.4-0.2-0.6c-2.7-4.8-3.8-9.9-3.4-15.3c0.2-3.1,1.1-6,2.4-8.7c0.1-0.1,0.2-0.2,0.2-0.3
			c0.2-0.7,0.5-1.4,1.1-1.9c-0.6,0.5-0.8,1.2-1.1,1.9l1.1-1.9c0.1-0.1,0.1-0.1,0.2-0.2c0.1-0.1,0.1-0.3,0.2-0.4c0,0,0,0,0,0
			c0.1-0.1,0.1-0.3,0.2-0.4c0,0,0,0,0,0c0.1-0.1,0.1-0.2,0.2-0.2c0.1-0.1,0.2-0.3,0.3-0.4c3-4.6,7.1-7.7,12.4-9.2
			c0.3-0.1,0.6-0.2,0.9-0.3C98.1,191.9,97.8,190.6,97.5,189.3z"/>
	</g>
	<path class="st3" d="M90.9,226.6c0.1,0.2,0.3,0.4,0.4,0.5C91.2,227,91,226.8,90.9,226.6z"/>
	<path class="st4" d="M83.9,231.3c0.1,0.1,0.2,0.3,0.3,0.4C84.1,231.6,84,231.4,83.9,231.3z"/>
	<path class="st12" d="M84.2,204.2c0.1-0.1,0.1-0.3,0.2-0.4C84.3,203.9,84.3,204.1,84.2,204.2z"/>
	<path class="st12" d="M84.4,203.8c0.1-0.1,0.1-0.3,0.2-0.4C84.5,203.5,84.5,203.7,84.4,203.8z"/>
	<path class="st11" d="M89.3,231c-0.1-0.1-0.2-0.1-0.3-0.2C89.1,230.9,89.2,231,89.3,231z"/>
	<path class="st12" d="M84,204.4c0.1-0.1,0.1-0.2,0.2-0.2C84.1,204.3,84.1,204.4,84,204.4z"/>
	<path class="st3" d="M117.1,204.3c-0.1-0.1-0.1-0.2-0.2-0.3C117,204.1,117.1,204.2,117.1,204.3z"/>
	<path class="st12" d="M84.6,203.4c0.1-0.1,0.1-0.2,0.2-0.2C84.7,203.3,84.7,203.3,84.6,203.4z"/>
	<path class="st4" d="M86.6,79.8c-0.3-0.2-0.6-0.3-0.8-0.6c-5.8-5.8-8.4-12.7-7.7-20.8c1.1-11.8,9.7-20.5,19.7-22.7
		c0.1,0,0.1,0,0.3,0c0.3,1.3,0.6,2.6,0.9,4c-0.3,0.1-0.6,0.2-0.8,0.3c-6,1.7-10.4,5.3-13.4,10.7c-0.2,0.3-0.4,0.6-0.6,0.9
		c0,0.1,0,0.1-0.1,0.1c0,0,0,0,0,0c-0.1,0.1-0.1,0.3-0.2,0.4c0,0,0,0,0,0c-0.7,1-1.1,2.1-1.4,3.2c-1.1,3.3-1.6,6.8-1.3,10.3
		c0.4,4.9,2,9.4,5,13.4C86.4,79.3,86.5,79.5,86.6,79.8z"/>
	<path class="st3" d="M116,48.6c-0.3-0.1-0.7-0.2-1-0.3c-2.5-1.3-5.2-2-8-2c-4.1,0-7.9,1.3-11,4c-3.4,2.9-5.5,6.5-6.2,10.9
		c-0.7,4.3,0.3,8.4,2.6,12.1c0.2,0.3,0.4,0.7,0.6,1c-0.2-0.1-0.5-0.2-0.7-0.4c-5.1-4.8-7.1-10.6-5.3-17.4
		c1.8-6.9,6.4-11.2,13.3-12.7c5.7-1.2,10.7,0.3,15.1,4.1C115.6,48,115.8,48.3,116,48.6z"/>
	<path class="st4" d="M17.9,75c-1.3,0.5-2.6,1-4.1,1.6c0.3-5.9,0.5-11.5,0.8-17.2c0.1,0,0.1-0.1,0.2-0.1c1.2,1.3,2.4,2.5,3.6,3.8
		c0,1.1-0.1,2.3-0.1,3.4C18.1,69.3,18,72.1,17.9,75z"/>
	<path class="st11" d="M109.1,85.1c-6.1,0.5-11.5-1.2-16.2-5.1c-0.3-0.2-0.7-0.4-0.6-0.9c0.3,0.1,0.7,0.3,1,0.4
		c3.4,1.9,7.1,2.9,11.1,2.8c1.3,0,2.6-0.3,4.1-0.4C108.6,83,108.9,84.1,109.1,85.1z"/>
	<path class="st3" d="M116.3,48.8c-0.2,0-0.4,0-0.4-0.3C116.1,48.7,116.2,48.7,116.3,48.8z"/>
	<path class="st12" d="M84,52.1c0.1-0.1,0.1-0.3,0.2-0.4C84.1,51.8,84.1,52,84,52.1z"/>
	<path class="st11" d="M92.3,79.1c-0.3,0.2-0.4,0-0.4-0.2C92.1,79,92.2,79.1,92.3,79.1z"/>
	<path class="st4" d="M86.6,79.8c0.1,0.1,0.1,0.2,0.2,0.3C86.7,80,86.7,79.9,86.6,79.8z"/>
	<path class="st3" d="M116.6,49.1c-0.1-0.1-0.2-0.2-0.3-0.2C116.4,48.9,116.5,49,116.6,49.1z"/>
	<path class="st12" d="M84.2,51.7c0,0,0.1-0.1,0.1-0.1C84.2,51.6,84.2,51.7,84.2,51.7L84.2,51.7z"/>
	<path class="st11" d="M91.9,78.9c-0.1-0.1-0.2-0.1-0.3-0.2C91.7,78.8,91.8,78.9,91.9,78.9z"/>
	<path class="st3" d="M92.9,74.3c0.1,0.1,0.2,0.2,0.3,0.3C93.1,74.4,93,74.3,92.9,74.3z"/>
	<path class="st5" d="M76.2,148.3c-0.9-0.5-1.7-1-2.6-1.4c-3.5-1.3-6.4,0-8.5,2.5c-2,2.4-3,5.1-2.9,8.2c0,0.3,0,0.7,0,1
		c-0.9-0.7-1.4-1.6-1.7-2.6c-1.7-4.3-0.3-10.1,3.1-13.2c2.5-2.3,5.7-2.7,8.7-1.1C74.8,143.2,76.1,145.5,76.2,148.3z"/>
</g>
</svg>
