<?xml version="1.0" encoding="utf-8"?>
<!-- Generator: Adobe Illustrator 24.0.0, SVG Export Plug-In . SVG Version: 6.00 Build 0)  -->
<svg version="1.1" id="Laag_1" xmlns="http://www.w3.org/2000/svg" xmlns:xlink="http://www.w3.org/1999/xlink" x="0px" y="0px"
	 width="108px" height="8.6px" viewBox="0 0 108 8.6" style="enable-background:new 0 0 108 8.6;" xml:space="preserve">
<style type="text/css">
	.st0{fill:#F2FF00;}
</style>
<g>
	<path class="st0" d="M8.5,0.1v8.4H7.4V1.8H7.3l-2.4,6H3.6l-2.4-6H1.1v6.7H0V0.1h1.6l2.6,6.3h0.1l2.6-6.3H8.5z"/>
	<path class="st0" d="M11.6,7.5h4.3v1h-5.4V0.1h5.3v1h-4.2v2.6h3.7v1h-3.7V7.5z"/>
	<path class="st0" d="M18.4,7.5h4.3v1h-5.4V0.1h5.3v1h-4.2v2.6h3.7v1h-3.7V7.5z"/>
	<path class="st0" d="M29.6,0.1v1h-2.4v7.4h-1.1V1.1h-2.4v-1H29.6z"/>
	<path class="st0" d="M38.1,8.6c-1.2,0-2.2-0.4-3-1.2c-0.8-0.8-1.2-1.9-1.2-3.1c0-1.2,0.4-2.3,1.2-3.1C35.9,0.4,36.9,0,38,0
		c1.2,0,2.2,0.4,3,1.2c0.8,0.8,1.2,1.9,1.2,3.1c0,1.2-0.4,2.3-1.2,3.1C40.2,8.2,39.2,8.6,38.1,8.6z M38.1,7.6c0.9,0,1.6-0.3,2.1-0.9
		C40.8,6,41,5.2,41,4.3S40.8,2.6,40.2,2c-0.6-0.6-1.3-0.9-2.1-0.9c-0.9,0-1.6,0.3-2.1,0.9s-0.9,1.4-0.9,2.3s0.3,1.7,0.9,2.3
		S37.2,7.6,38.1,7.6z"/>
	<path class="st0" d="M50.4,0.1v5.1c0,1.1-0.3,2-0.9,2.5s-1.4,0.9-2.3,0.9c-1,0-1.8-0.3-2.4-0.9c-0.6-0.6-0.9-1.4-0.9-2.5V0.1H45
		v5.1C45,6,45.2,6.5,45.6,7c0.4,0.4,0.9,0.6,1.5,0.6c0.6,0,1.1-0.2,1.5-0.6c0.4-0.4,0.6-1,0.6-1.8V0.1H50.4z"/>
	<path class="st0" d="M58.4,8.5h-1.2l-2-3.4h0h-1.6v3.4h-1.1V0.1h2.8c0.8,0,1.5,0.2,2,0.7c0.5,0.4,0.7,1,0.7,1.8
		c0,0.6-0.2,1-0.5,1.5c-0.3,0.4-0.7,0.7-1.3,0.9L58.4,8.5z M53.5,1.1v2.9h1.6c0.6,0,1-0.1,1.3-0.4c0.3-0.3,0.5-0.6,0.5-1.1
		c0-0.5-0.2-0.8-0.5-1.1c-0.3-0.3-0.7-0.4-1.3-0.4H53.5z"/>
	<path class="st0" d="M71.4,0.1v8.4h-1.1V1.8h-0.1l-2.4,6h-1.2l-2.4-6H64v6.7h-1.1V0.1h1.6l2.6,6.3h0.1l2.6-6.3H71.4z"/>
	<path class="st0" d="M78.6,8.5l-0.7-2.2h-3.4l-0.7,2.2h-1.2l2.9-8.4h1.5l2.9,8.4H78.6z M74.8,5.4h2.8l-1.3-4h-0.1L74.8,5.4z"/>
	<path class="st0" d="M85.9,8.5l-3.1-3.8h-0.6v3.8H81V0.1h1.1v3.5h0.6l2.8-3.5h1.3l-3.2,4v0.1l3.5,4.3H85.9z"/>
	<path class="st0" d="M89.5,7.5h4.3v1h-5.4V0.1h5.3v1h-4.2v2.6h3.7v1h-3.7V7.5z"/>
	<path class="st0" d="M101.2,8.5h-1.2l-2-3.4h0h-1.6v3.4h-1.1V0.1h2.8c0.8,0,1.5,0.2,2,0.7c0.5,0.4,0.7,1,0.7,1.8
		c0,0.6-0.2,1-0.5,1.5c-0.3,0.4-0.7,0.7-1.3,0.9L101.2,8.5z M96.3,1.1v2.9h1.6c0.6,0,1-0.1,1.3-0.4c0.3-0.3,0.5-0.6,0.5-1.1
		c0-0.5-0.2-0.8-0.5-1.1c-0.3-0.3-0.7-0.4-1.3-0.4H96.3z"/>
	<path class="st0" d="M108,6.4c0,0.7-0.3,1.3-0.8,1.6s-1.2,0.6-2,0.6c-1,0-1.7-0.2-2.2-0.7s-0.8-1.1-0.8-1.9h1.1
		c0,0.5,0.2,0.9,0.5,1.2c0.3,0.3,0.8,0.5,1.4,0.5c0.5,0,0.9-0.1,1.2-0.3s0.5-0.5,0.5-0.9c0-0.4-0.1-0.7-0.4-1s-0.8-0.5-1.5-0.8
		c-0.8-0.3-1.4-0.6-1.8-0.9c-0.4-0.4-0.7-0.8-0.7-1.5c0-0.7,0.2-1.3,0.7-1.7s1.1-0.6,1.9-0.6c0.9,0,1.5,0.2,2,0.7s0.8,1.1,0.8,1.7
		h-1.1c0-0.4-0.2-0.8-0.5-1S105.6,1,105.1,1c-0.4,0-0.8,0.1-1.1,0.4c-0.3,0.2-0.4,0.5-0.4,0.9c0,0.4,0.1,0.7,0.4,0.9
		c0.3,0.2,0.8,0.4,1.4,0.7c0.9,0.3,1.5,0.6,2,1.1C107.8,5.2,108,5.8,108,6.4z"/>
</g>
</svg>
