<?xml version="1.0" encoding="utf-8"?>
<!-- Generator: Adobe Illustrator 24.0.0, SVG Export Plug-In . SVG Version: 6.00 Build 0)  -->
<svg version="1.1" id="Laag_1" xmlns="http://www.w3.org/2000/svg" xmlns:xlink="http://www.w3.org/1999/xlink" x="0px" y="0px"
	 width="178.4px" height="89.6px" viewBox="0 0 178.4 89.6" style="enable-background:new 0 0 178.4 89.6;" xml:space="preserve">
<style type="text/css">
	.st0{fill:#F2FF00;}
	.st1{fill:#5C394D;}
	.st2{opacity:0.4;fill:#FFFFFF;}
</style>
<g>
	<g>
		<g>
			<path class="st0" d="M153.7,46.2c0-0.1,0-0.1,0-0.2C153.7,46,153.7,46.1,153.7,46.2z"/>
		</g>
	</g>
	<g>
		<g>
			<path class="st0" d="M154.6,38.9c0,0.1,0,0.2,0,0.3C154.5,39.3,154.5,39.2,154.6,38.9z"/>
		</g>
	</g>
	<g>
		<g>
			<path class="st0" d="M17.1,34.3c0-0.1,0.1-0.2,0.1-0.3c0-0.1,0-0.1,0-0.2C17.2,34,17.2,34.1,17.1,34.3z"/>
		</g>
	</g>
	<g>
		<g>
			<path class="st0" d="M153.5,47.9c0,0.2,0,0.2,0,0.3c0.2-0.9,0.2-1.6,0.2-2C153.5,47.4,153.5,47.6,153.5,47.9z"/>
		</g>
	</g>
	<g>
		<g>
			<path class="st0" d="M67.7,22.2c0.1-0.1,0.1-0.3,0.1-0.5C67.8,21.9,67.7,22.1,67.7,22.2z"/>
		</g>
	</g>
	<g>
		<g>
			<path class="st0" d="M154.6,38.9c0.1-1,0.3-2,0.4-2.6C155,35.8,154.7,38,154.6,38.9z"/>
		</g>
	</g>
	<g>
		<g>
			<path class="st0" d="M93.9,28.9c0,0-2.4-0.6-5.5-1.4c-0.8-0.2-1.6-0.4-2.5-0.6c-0.9-0.2-1.7-0.4-2.6-0.7c-0.7,0.7-1.2,1-1.7,0.9
				c-0.4-0.1-1,0.4-1-1.4c-0.5,0-0.5-1.6-1.2-0.4c0.1-1.9-0.6-1-1.2-0.4c-0.4,0-0.8-0.2-1.2-0.1c-0.3-0.2,0.1-2.9-0.9-0.7
				c-0.5,0.4-0.5-0.6-1.3,1.1c0.5-2.2,0.4-2.4,0.2-2.2c-0.5,1.2-0.2-0.4-0.7,0.9c-0.9-0.5-1.9,0.7-1.6-0.4c-0.4,1.5-0.7,0.9-1.1-0.2
				c-0.5,1-0.7,1.2-0.9,1.1c-0.5,1-0.5,0-0.3-1.4c-0.4-0.5-0.5-1-1.8-0.2c-0.3-0.3-0.8-0.4-0.8-0.8c-0.2,0.3-0.6,0.5-1,0.4
				c0,0.2-0.4-0.3,0.1-1.1c-0.4,0.4-0.3,0.7-1.4,0.5c-0.5,1.3,0.3-2-1.4,0.4c-1.3,1.1-1.2-1.2-1.3-0.2c-1,1.1-2,1-1.4-0.2
				c-1.8-0.6-1.4-0.3-1.4-0.2c-3.4-1.2,0.2,0.4-1.5-0.2c-0.6,0-1,0.1-2.7-0.4c-3.2-1-1,0.1-2.8-0.4c-0.7,0-3.2-0.8-2.8-0.4
				c-1.5-0.3-1.3,0-2.9-0.4c-1.9-0.5-1.4,0-2.8-0.4c-1.1-0.2-1,0.1-2.8-0.4c-3.4-0.9-4.5-0.8-5.2-0.7c-1.7-0.2-3.2-0.4-4.6-0.6
				C27.6,17.4,21,16.4,21,16.4s-0.7,3.2-1.5,7.5c-0.2,1.1-0.5,2.2-0.7,3.4c-0.2,1.2-0.5,2.4-0.7,3.6c-0.2,0.8-0.8,3-0.7,2.9
				c-0.3,1.1,0.1-0.1-0.2,1.2c0-0.1,0-0.4,0-0.6c-0.1,0.3-0.2,0.8-0.3,1.1c0-0.1,0,0.2-0.5,2.1c-0.6,2.6,0.1,0.1-0.4,2.1
				c0-0.2,0.4-1-0.3,1.7c-0.5,2.1,0.3,0,0.1,1.5c-0.3,1.7,0.2,0.2,0.4,0c0.5-1.3-0.1,1.3-0.3,2.7c0.6-1.5-0.1,1.3,0.2,0.9
				c0.4-0.7,0.1,0.6-0.5,3.4c-0.1,1,0.3-1.1,0.4-1c-0.1,0.7-0.1,1.6-0.2,2.2c0,1.2-0.1,2.3-0.1,3.2c-0.1,1.9-0.1,3.2-0.1,3.2
				l80.7,15.8c0,0,4.6,0.5,11.4,1.2c0.8,0.1,1.7,0.3,2.6,0.5c1.1-0.5,1.8,0.3,2.9,0.1c0.7,1.1,2,0.2,2.9,0.7c1,0,2.1,0.1,3.2-0.1
				c0.8,0.8,1.8,1.3,3.1,0.4c1,0.3,2.1,0.3,3.3,0.3c0.9,0.9,2.1,0.4,3.2,0.4c1.1,0.1,2.3-0.2,3.3,0.3c3.7,1.6,17.2,3.9,17.2,3.9
				s0.1-0.6,0.2-1.7c0.1-0.5,0-0.5,0.4-2.5c0.5-2.3,0.6-3.1,0.2-2c0.1-0.7,0.6-2.6,0.2-1.5c0.6-2.4-0.2-5.5,1.1-11.4
				c0.3-1.3-0.1-0.4,0.3-1.9c0-0.3,1.1-4.5,0.3-2c-1.3,4.6-0.5,1.4-0.2,0.2c0.6-2.4-0.3,0.9,0.5-2.2c0.3-1.5,0.6-2.9,0.4-2.5
				c-0.4,0.9-0.9,2.5,0.2-1.7c-0.7,2.3,0.7-2.8-0.3,0.5c-0.2,0.6,0.8-3,0.6-2.8c0.3-1.3,0.2-1.2,0.2-1.4c-0.1,0.4-0.2,0.8-0.3,1.3
				c0-0.2-0.5,1.1,0.2-1.6c0.1-0.6,0.2-1.2,0.3-2.2c0.4-2.1,0.2-1.8,0.4-3.1c0.5-2.2,0.1-1.3,0.5-3.4c0.1-1.1,0.3-2.9,0.3-2.9
				L93.9,28.9z M17.3,34.8c-0.1,0.5-0.2,0.5-0.2,0.2C17.5,33.9,17.4,34.5,17.3,34.8z"/>
		</g>
	</g>
	<g>
		<g>
			<path class="st0" d="M17.2,34c0,0.1,0,0.2,0,0.3C17.3,33.8,17.4,33.5,17.2,34z"/>
		</g>
	</g>
	<g>
		<g>
			<path class="st0" d="M17.5,32.2c-0.1,0.2-0.2,0.9-0.3,1.6C17.5,32.9,17.5,32.4,17.5,32.2z"/>
		</g>
	</g>
</g>
<g>
	<g>
		<path class="st1" d="M34.7,52.8c-0.7,0-1.4-0.1-2.2-0.2L25,51.5L28.8,28l7.6,1.2c3.1,0.5,5.9,2,7.7,4.3c2,2.5,2.7,5.7,2.2,9.3l0,0
			c-0.6,3.6-2.3,6.4-5,8.1C39.4,52.2,37.1,52.8,34.7,52.8z M25.8,50.9l6.9,1.1c5.3,0.9,11.7-1.7,12.9-9.3c1.2-7.6-4-12-9.3-12.9
			l-6.9-1.1L25.8,50.9z M34.7,48.5c-0.5,0-0.9,0-1.4-0.1l-3.1-0.5L32.5,33l3.1,0.5c4.4,0.7,6.8,4,6.1,8.5c-0.4,2.3-1.4,4.1-3,5.2
			C37.6,48,36.2,48.5,34.7,48.5z M30.9,47.3l2.5,0.4c1.9,0.3,3.7-0.1,5-1c1.4-1,2.4-2.7,2.7-4.8l0.3,0.1l-0.3-0.1
			c0.7-4.1-1.5-7.1-5.6-7.8l-2.5-0.4L30.9,47.3z"/>
	</g>
	<g>
		<path class="st1" d="M52.7,55.9l-5.2-0.8l3.8-23.5l5.2,0.8L52.7,55.9z M48.2,54.5l3.9,0.6L55.7,33l-3.9-0.6L48.2,54.5z"/>
	</g>
	<g>
		<path class="st1" d="M76.3,59.7l-3.6-0.6l-0.2-2l0,0c-1.6,1.2-3.7,1.6-6.2,1.1c-3-0.5-5.6-2.1-7.3-4.6c-1.6-2.5-2.3-5.7-1.7-9
			c0.5-3.3,2.1-6.2,4.4-8c2.4-1.9,5.4-2.6,8.6-2.1c4,0.6,6.1,2.9,7.2,4.7c1.2,1.9,1.4,3.7,1.4,3.8l0,0.4l-5.5-0.9l0-0.2
			c0-0.1-0.6-2.5-3.8-3c-3.6-0.6-6.5,2-7.2,6.1c-0.7,4.2,1.4,7.5,5.2,8.1c2.2,0.4,4.1-0.2,5.1-1.6l0.3-1.6l-4.9-0.8l0.7-4.5l9.8,1.6
			L76.3,59.7z M73.3,58.6l2.5,0.4l1.9-11.8l-8.5-1.4L68.7,49l4.9,0.8l-0.4,2.4l0,0.1c-1.2,1.6-3.3,2.3-5.8,1.9
			c-4.1-0.7-6.4-4.2-5.7-8.8c0.4-2.2,1.3-4,2.7-5.3c1.4-1.2,3.3-1.7,5.2-1.4c3.1,0.5,4,2.6,4.3,3.3l4.2,0.7
			c-0.1-0.6-0.5-1.8-1.2-3.1c-1.5-2.4-3.7-3.9-6.7-4.4c-6.2-1-11.2,2.9-12.3,9.5c-1.1,6.5,2.5,12,8.5,12.9c2.5,0.4,4.4,0,5.9-1.1
			l0.1-0.1l0.8,0.1L73.3,58.6z"/>
	</g>
	<g>
		<path class="st1" d="M85.4,61.1l-5.2-0.8L84,36.9l5.2,0.8L85.4,61.1z M80.9,59.8l3.9,0.6l3.6-22.2l-3.9-0.6L80.9,59.8z"/>
	</g>
	<g>
		<path class="st1" d="M98.9,63.3l-5-0.8l3-18.8l-6.2-1l0.8-4.7l17.3,2.8l-0.8,4.7l-6.2-1L98.9,63.3z M94.6,62l3.7,0.6l3-18.8l6.2,1
			l0.5-3.4L92,38.8l-0.5,3.4l6.2,1L94.6,62z"/>
	</g>
	<g>
		<path class="st1" d="M125.2,67.5l-5.4-0.9l-0.8-5.2l-8.1-1.3l-2.4,4.7l-5.4-0.9l11.7-22.2l6.2,1L125.2,67.5z M120.4,66.1l4,0.6
			l-3.9-23.4l-5.3-0.8l-11,21l4,0.6l2.4-4.7l9,1.4L120.4,66.1z M119.1,57.3l-6.8-1.1l4.2-8.1l1.2,0.2L119.1,57.3z M113.2,55.7
			l5.1,0.8l-1.2-7.7l-0.3-0.1L113.2,55.7z"/>
	</g>
	<g>
		<path class="st1" d="M143.4,70.5l-16.3-2.6l3.8-23.5l5.2,0.8l-3,18.6l11.1,1.8L143.4,70.5z M127.8,67.3l15.1,2.4l0.6-3.6
			l-11.1-1.8l3-18.6l-3.9-0.6L127.8,67.3z"/>
	</g>
</g>
<path class="st2" d="M178.2,64.6l-1.5-0.1l-0.7,1.3l-1.5-0.1l-0.7,1.3l-1.5-0.1l-0.7,1.3l-1.5-0.1l-0.7,1.3l-1.5-0.1l-0.7,1.3
	l-1.5-0.1l-0.7,1.3l-26.8-46.7c4.2-5.8,5.2-2,13.1-7.6L178.2,64.6z"/>
<path class="st2" d="M2.6,32.7l0.6-1.4l-1-1.1l0.6-1.4l-1-1.1l0.6-1.4l-1-1.1L2,23.9l-1-1.1l0.6-1.4l-1-1.1l0.6-1.4l-1-1.1l53-9.3
	c4,6,0.1,5.6,2.7,14.9L2.6,32.7z"/>
</svg>
