<?xml version="1.0" encoding="utf-8"?>
<!-- Generator: Adobe Illustrator 24.0.0, SVG Export Plug-In . SVG Version: 6.00 Build 0)  -->
<svg version="1.1" id="Laag_1" xmlns="http://www.w3.org/2000/svg" xmlns:xlink="http://www.w3.org/1999/xlink" x="0px" y="0px"
	 width="136.9px" height="96.6px" viewBox="0 0 136.9 96.6" style="enable-background:new 0 0 136.9 96.6;" xml:space="preserve">
<style type="text/css">
	.st0{fill:#FFFFFF;}
</style>
<g>
	<g>
		<path class="st0" d="M45.6,34.2h5.3v27.3h-5.3V50.1H34.9v11.4h-5.3V34.2h5.3v11h10.8V34.2z"/>
	</g>
	<g>
		<path class="st0" d="M77.5,57.7c-2.6,2.7-5.7,4-9.4,4c-3.6,0-6.8-1.3-9.4-4c-2.6-2.7-4-5.9-4-9.9c0-3.9,1.3-7.2,3.9-9.9
			c2.6-2.7,5.8-4,9.4-4c3.6,0,6.8,1.3,9.4,4c2.6,2.7,3.9,5.9,3.9,9.9C81.4,51.8,80.1,55.1,77.5,57.7z M62.3,54.1
			c1.5,1.6,3.4,2.4,5.7,2.4c2.3,0,4.2-0.8,5.7-2.4c1.5-1.6,2.2-3.7,2.2-6.3c0-2.5-0.7-4.6-2.2-6.3c-1.5-1.6-3.4-2.4-5.7-2.4
			c-2.3,0-4.2,0.8-5.7,2.4c-1.5,1.6-2.2,3.7-2.2,6.3C60.1,50.4,60.9,52.5,62.3,54.1z"/>
	</g>
	<g>
		<path class="st0" d="M107.3,34.2v15.6c0,4-1,7-3.1,8.9c-2,2-4.7,3-7.9,3c-3.2,0-5.9-1-7.9-3c-2.1-2-3.1-5-3.1-8.9V34.2h5.4v15.2
			c0,2.3,0.5,4,1.4,5.3c0.9,1.2,2.3,1.9,4.2,1.9c1.8,0,3.2-0.6,4.2-1.9c0.9-1.2,1.4-3,1.4-5.3V34.2H107.3z"/>
	</g>
	<g>
		<path class="st0" d="M65.8,87.9c0,2.4-0.9,4.4-2.6,5.7c-1.7,1.4-3.9,2.1-6.5,2.1c-3,0-5.4-0.9-7.3-2.6c-1.9-1.7-2.8-3.9-2.8-6.4
			h5.1c0.2,1.5,0.8,2.6,1.8,3.2c1,0.6,2.1,1,3.2,1c0.6,0,1.1-0.1,1.7-0.2c0.5-0.1,1.1-0.4,1.6-0.9c0.5-0.5,0.8-1.1,0.8-1.9
			c0-0.5-0.1-1-0.4-1.5s-0.6-0.8-1.1-1.2c-0.5-0.3-0.9-0.6-1.3-0.8c-0.4-0.2-1-0.4-1.7-0.7c-2.7-1.1-4.6-1.9-5.5-2.6
			c-2.2-1.5-3.3-3.4-3.3-5.8c0-2.2,0.9-4,2.6-5.4c1.7-1.4,3.8-2,6.3-2c2.7,0,4.8,0.7,6.4,2.2c1.6,1.5,2.4,3.2,2.4,5h-5
			c-0.1-0.8-0.6-1.4-1.3-1.8c-0.7-0.5-1.6-0.7-2.6-0.7c-1,0-1.8,0.2-2.5,0.7c-0.7,0.5-1,1.1-1,2c0,0.4,0.1,0.8,0.2,1.1
			c0.2,0.3,0.5,0.6,0.9,0.9c0.5,0.3,0.9,0.5,1.2,0.7c0.4,0.2,1,0.5,1.8,0.9c0.2,0.1,0.7,0.3,1.6,0.7c0.9,0.4,1.5,0.6,2,0.9
			c0.5,0.2,1.1,0.6,1.9,1.1c0.8,0.5,1.4,1,1.8,1.6c0.4,0.5,0.8,1.2,1.1,2C65.6,86,65.8,86.9,65.8,87.9z"/>
	</g>
	<g>
		<path class="st0" d="M75.9,90.6h13.3v4.9H70.8V68.2h18V73H75.9v6.2h11.7v4.9H75.9V90.6z"/>
	</g>
</g>
</svg>
