<?xml version="1.0" encoding="utf-8"?>
<!-- Generator: Adobe Illustrator 24.0.0, SVG Export Plug-In . SVG Version: 6.00 Build 0)  -->
<svg version="1.1" id="Laag_1" xmlns="http://www.w3.org/2000/svg" xmlns:xlink="http://www.w3.org/1999/xlink" x="0px" y="0px"
	 width="39px" height="44.5px" viewBox="0 0 39 44.5" style="enable-background:new 0 0 39 44.5;" xml:space="preserve">
<style type="text/css">
	.st0{fill:#F2FF00;}
	.st1{fill:#FFFFFF;}
</style>
<g>
	<path class="st0" d="M35.5,2.8L30.4,0l-1.8,1l3.3,1.8l-1.6,0.9v9.1l1.8-1V2.9l1.6,0.9L35.5,2.8z M32,11.7l-1.5,0.8V3.7L32,2.9V11.7
		z M28.9,1l1.5-0.8l4.8,2.6l-1.5,0.8L28.9,1z"/>
	<path class="st0" d="M38.7,8.2L38.7,8.2c0.3-1,0.5-2.5-0.4-3.6c-0.5-0.7-1.2-0.9-1.2-0.9l0,0l-1.6,0.9v0l-0.1,0.1l-0.1,0.1l0,0
		l-1.6,0.8v9l1.8,1V10l1.5,0.8v5.4l1.8-1V9.9L37.1,9L38.7,8.2z M35.3,15.2l-1.5-0.8V5.5l1.5-0.8V15.2z M37,3.7
		c0.1,0.1,0.7,0.3,1.2,0.9c0.7,0.9,0.8,2.1,0.4,3.5l-1.5,0.8c0.3-1,0.4-2.4-0.5-3.5c-0.4-0.5-0.9-0.8-1.1-0.9L37,3.7z M35.4,4.6
		c0.2,0.1,0.7,0.3,1.1,0.9C37.2,6.4,37.4,7.6,37,9l-1.5,0.8V4.6z M38.6,9.9v5.3l-1.5,0.8v-5.3l-1.6-0.9L37,9.1L38.6,9.9z"/>
</g>
<g>
	<g>
		<path class="st1" d="M7.7,29.8v-2.1l-1.5,0.9C6,28,5.6,27.6,5,27.2c-0.5-0.3-1.1-0.5-1.8-0.5c-1,0-1.7,0.3-2.3,0.9
			c-0.6,0.6-0.9,1.4-0.9,2.3v3.6h7.6v-1.9H6.6v-1.2L7.7,29.8z M4.8,31.7H1.9v-1.6c0-0.4,0.1-0.8,0.4-1c0.2-0.3,0.6-0.4,1-0.4
			c0.4,0,0.8,0.1,1.1,0.4c0.3,0.3,0.4,0.6,0.4,1V31.7z"/>
		<path class="st1" d="M1.5,23.8c-1-1-1.5-2.2-1.5-3.5c0-1.4,0.5-2.6,1.5-3.5c1-1,2.2-1.5,3.7-1.5c0.9,0,1.7,0.2,2.5,0.6v2.4
			c0,0-0.1-0.1-0.1-0.1c-0.6-0.6-1.4-0.8-2.4-0.8c-1,0-1.7,0.3-2.4,0.8c-0.6,0.6-0.9,1.3-0.9,2.2c0,0.9,0.3,1.6,0.9,2.2
			c0.6,0.6,1.4,0.8,2.4,0.8c1,0,1.7-0.3,2.4-0.8c0,0,0.1-0.1,0.1-0.1v2.4c-0.7,0.4-1.6,0.6-2.5,0.6C3.7,25.3,2.5,24.8,1.5,23.8z"/>
		<path class="st1" d="M6.5,40.3v-2.1c0-0.9-0.3-1.6-0.9-2.3c-0.6-0.6-1.4-0.9-2.4-0.9c-1,0-1.8,0.3-2.3,0.9
			c-0.6,0.6-0.8,1.4-0.8,2.3v3.9h7.6v-1.9H6.5z M4.7,40.3H1.9v-1.9c0-0.4,0.1-0.8,0.4-1c0.2-0.3,0.6-0.4,1-0.4
			c0.4,0,0.8,0.1,1.1,0.4c0.3,0.3,0.4,0.6,0.4,1V40.3z"/>
		<path class="st1" d="M7.7,13.4H0.1v-3.3c0-1.4,0.5-2.6,1.4-3.6C2.4,5.5,3.6,5,5.2,5C6.2,5,7,5.2,7.7,5.6v2.5C7.6,8,7.6,8,7.5,7.9
			C7,7.3,6.2,7,5.2,7c-1,0-1.8,0.3-2.3,0.9C2.3,8.5,2,9.2,2,10.2v1.3h5.7V13.4z"/>
	</g>
	<g>
		<polygon class="st1" points="17.8,11.8 10.2,11.8 10.2,5 12,5 12,9.9 14.3,9.9 14.3,5.5 16.2,5.5 16.2,9.9 17.8,9.9 		"/>
		<rect x="10.2" y="13.9" class="st1" width="7.6" height="2"/>
		<path class="st1" d="M16,36.2c0.7,0,1.2,0.1,1.7,0.2v2.3c-0.5-0.3-1.1-0.5-1.9-0.5h-5.7v-2H16z"/>
		<polygon class="st1" points="12,25 10.2,25 10.2,17.5 12,17.5 12,20.3 17.8,20.3 17.8,22.3 12,22.3 		"/>
		<path class="st1" d="M17.8,44.3c-0.5,0.1-1.1,0.2-1.7,0.2h-5.9v-2h5.7c0.8,0,1.4-0.2,1.9-0.5V44.3z"/>
		<path class="st1" d="M10.1,30c0-1,0.3-1.9,0.8-2.6c0.6-0.8,1.3-1.3,2.3-1.6V28c-0.8,0.4-1.2,1-1.2,2c0,0.8,0.3,1.5,0.9,1.9
			c0.6,0.5,1.4,0.7,2.4,0.7c1,0,1.8-0.2,2.4-0.7c0,0,0.1-0.1,0.1-0.1v2.3c-0.7,0.3-1.6,0.5-2.5,0.5c-1.5,0-2.8-0.4-3.7-1.3
			C10.6,32.5,10.1,31.4,10.1,30z"/>
	</g>
	<g>
		<rect x="20.3" y="14" class="st1" width="7.6" height="2"/>
		<path class="st1" d="M20.3,18H26c0.7,0,1.3,0.1,1.9,0.3v2.3c0,0,0,0-0.1-0.1c-0.5-0.3-1.1-0.5-1.9-0.5h-5.6V18z"/>
		<path class="st1" d="M20.3,24.1h5.6c0.8,0,1.5-0.2,1.9-0.5c0,0,0,0,0.1-0.1v2.3c-0.5,0.2-1.2,0.3-1.9,0.3h-5.8V24.1z"/>
		<path class="st1" d="M20.9,10.9c-0.5-0.6-0.7-1.4-0.7-2.3c0-1,0.3-1.8,0.8-2.4c0.5-0.6,1.2-0.9,1.9-0.9v1.8
			c-0.3,0-0.5,0.2-0.7,0.5c-0.2,0.3-0.3,0.6-0.3,1c0,0.4,0.1,0.7,0.3,0.9c0.2,0.2,0.4,0.4,0.7,0.4c0.2,0,0.3,0,0.4-0.1
			c0.1-0.1,0.2-0.2,0.3-0.3c0.1-0.2,0.2-0.3,0.3-0.4c0.1-0.1,0.2-0.4,0.3-0.7c0-0.1,0.1-0.3,0.3-0.6c0.1-0.3,0.2-0.6,0.3-0.7
			c0.1-0.2,0.2-0.4,0.4-0.7c0.2-0.3,0.4-0.5,0.6-0.7c0.2-0.2,0.4-0.3,0.7-0.4c0.3-0.1,0.6-0.2,1-0.2c0.1,0,0.2,0,0.4,0v2
			c-0.1,0-0.2-0.1-0.4-0.1c-0.2,0-0.4,0-0.5,0.1c-0.2,0.1-0.3,0.2-0.4,0.4c-0.1,0.2-0.2,0.3-0.3,0.5c-0.1,0.2-0.2,0.4-0.3,0.6
			c-0.4,1-0.7,1.7-1,2c-0.6,0.8-1.3,1.2-2.1,1.2C22.1,11.9,21.4,11.5,20.9,10.9z"/>
		<polygon class="st1" points="27.9,35.9 20.3,35.9 20.3,33.9 24.3,33.9 24.3,30 20.3,30 20.3,28 27.9,28 27.9,30 26.2,30 
			26.2,33.9 27.9,33.9 		"/>
	</g>
</g>
</svg>
