<?xml version="1.0" encoding="utf-8"?>
<!-- Generator: Adobe Illustrator 24.0.0, SVG Export Plug-In . SVG Version: 6.00 Build 0)  -->
<svg version="1.1" id="Laag_1" xmlns="http://www.w3.org/2000/svg" xmlns:xlink="http://www.w3.org/1999/xlink" x="0px" y="0px"
	 width="136.9px" height="96.6px" viewBox="0 0 136.9 96.6" style="enable-background:new 0 0 136.9 96.6;" xml:space="preserve">
<style type="text/css">
	.st0{fill:#FFFFFF;}
</style>
<g>
	<g>
		<path class="st0" d="M58.1,0h5.3l-5.8,27.3h-8.2L46.4,9.7h-0.8l-3.4,17.6H34L28.6,0H34l4,21.3h0.8L42.6,2h6.9L53,21.3h0.8L58.1,0z
			"/>
	</g>
	<g>
		<path class="st0" d="M72.7,22.4H86v4.9H67.6V0h18v4.9H72.7V11h11.7v4.9H72.7V22.4z"/>
	</g>
	<g>
		<path class="st0" d="M96.6,22.2h13.3v5.1H91.1V0h5.5V22.2z"/>
	</g>
	<g>
		<path class="st0" d="M31.5,53.1h5.9c-0.8,2.6-2.2,4.6-4.2,6.1c-2,1.5-4.3,2.2-7,2.2c-3.6,0-6.5-1.3-8.8-3.9
			c-2.3-2.6-3.5-5.9-3.5-9.9c0-4,1.2-7.3,3.5-9.9c2.3-2.6,5.3-3.9,8.8-3.9c2.6,0,5,0.7,7,2.2c2,1.5,3.5,3.5,4.2,6.1h-5.9
			c-1-2.2-2.8-3.2-5.3-3.2c-2.2,0-3.9,0.8-5.1,2.4c-1.2,1.6-1.9,3.7-1.9,6.3c0,2.6,0.6,4.7,1.9,6.3c1.2,1.6,3,2.4,5.2,2.4
			C28.7,56.3,30.5,55.2,31.5,53.1z"/>
	</g>
	<g>
		<path class="st0" d="M63.2,57.5c-2.6,2.7-5.7,4-9.4,4c-3.6,0-6.8-1.3-9.4-4c-2.6-2.7-4-5.9-4-9.9c0-3.9,1.3-7.2,3.9-9.9
			c2.6-2.7,5.8-4,9.4-4c3.6,0,6.8,1.3,9.4,4c2.6,2.7,3.9,5.9,3.9,9.9C67.1,51.5,65.8,54.8,63.2,57.5z M48.1,53.9
			c1.5,1.6,3.4,2.4,5.7,2.4s4.2-0.8,5.7-2.4c1.5-1.6,2.2-3.7,2.2-6.3c0-2.5-0.7-4.6-2.2-6.3c-1.5-1.6-3.4-2.4-5.7-2.4
			s-4.2,0.8-5.7,2.4c-1.5,1.6-2.2,3.7-2.2,6.3C45.8,50.2,46.6,52.3,48.1,53.9z"/>
	</g>
	<g>
		<path class="st0" d="M98.8,34v27.3h-5.1V44.6h-0.3l-5.1,14.7H82l-5.1-14.7h-0.3v16.7h-5.1V34h6.7l6.7,19.4h0.6L92.1,34H98.8z"/>
	</g>
	<g>
		<path class="st0" d="M110,56.4h13.3v4.9h-18.4V34h18v4.9H110V45h11.7v4.9H110V56.4z"/>
	</g>
</g>
<g>
	<g>
		<path class="st0" d="M13,95.4H7.4V73H0v-5.3h20.4V73H13V95.4z M7.8,95h4.8V72.6H20v-4.4H0.4v4.4h7.4V95z"/>
	</g>
	<g>
		<path class="st0" d="M34.4,95.6c-3.7,0-6.9-1.4-9.6-4c-2.7-2.7-4-6.1-4-10c0-4,1.3-7.3,4-10c2.7-2.7,5.9-4,9.6-4
			c3.7,0,6.9,1.4,9.6,4c2.7,2.7,4,6.1,4,10c0,4-1.3,7.3-4,10C41.3,94.3,38.1,95.6,34.4,95.6z M34.4,67.9c-3.6,0-6.7,1.3-9.3,3.9
			c-2.6,2.6-3.9,5.9-3.9,9.7c0,3.9,1.3,7.1,3.9,9.7c2.6,2.6,5.7,3.9,9.3,3.9c3.6,0,6.7-1.3,9.2-3.9c2.6-2.6,3.9-5.9,3.9-9.7
			c0-3.9-1.3-7.1-3.9-9.7C41.1,69.3,37.9,67.9,34.4,67.9z M34.4,90.5c-2.4,0-4.4-0.8-5.9-2.5c-1.5-1.7-2.3-3.8-2.3-6.4
			c0-2.6,0.8-4.7,2.3-6.4c1.5-1.7,3.5-2.5,5.9-2.5c2.4,0,4.4,0.8,5.9,2.5c1.5,1.7,2.3,3.8,2.3,6.4c0,2.6-0.8,4.7-2.3,6.4
			C38.8,89.7,36.8,90.5,34.4,90.5z M34.4,73.1c-2.3,0-4.1,0.8-5.6,2.4c-1.4,1.6-2.2,3.6-2.2,6.1c0,2.5,0.7,4.5,2.2,6.1
			c1.4,1.6,3.3,2.4,5.6,2.4c2.3,0,4.1-0.8,5.6-2.4l0,0c1.4-1.6,2.2-3.6,2.2-6.1c0-2.5-0.7-4.5-2.2-6.1
			C38.5,73.9,36.7,73.1,34.4,73.1z"/>
	</g>
	<g>
		<path class="st0" d="M72.4,95.6c-3.7,0-6.9-1.4-9.6-4c-2.7-2.7-4-6.1-4-10c0-4,1.3-7.3,4-10c2.7-2.7,5.9-4,9.6-4
			c3.7,0,6.9,1.4,9.6,4c2.7,2.7,4,6.1,4,10c0,4-1.3,7.3-4,10C79.3,94.3,76.1,95.6,72.4,95.6z M72.3,67.9c-3.6,0-6.7,1.3-9.3,3.9
			c-2.6,2.6-3.9,5.9-3.9,9.7c0,3.9,1.3,7.1,3.9,9.7c2.6,2.6,5.7,3.9,9.3,3.9c3.6,0,6.7-1.3,9.2-3.9c2.6-2.6,3.9-5.9,3.9-9.7
			c0-3.9-1.3-7.1-3.9-9.7C79,69.3,75.9,67.9,72.3,67.9z M72.4,90.5c-2.4,0-4.4-0.8-5.9-2.5c-1.5-1.7-2.3-3.8-2.3-6.4
			c0-2.6,0.8-4.7,2.3-6.4c1.5-1.7,3.5-2.5,5.9-2.5c2.4,0,4.4,0.8,5.9,2.5c1.5,1.7,2.3,3.8,2.3,6.4c0,2.6-0.8,4.7-2.3,6.4
			C76.7,89.7,74.8,90.5,72.4,90.5z M72.3,73.1c-2.3,0-4.1,0.8-5.6,2.4c-1.4,1.6-2.2,3.6-2.2,6.1c0,2.5,0.7,4.5,2.2,6.1
			c1.4,1.6,3.3,2.4,5.6,2.4c2.3,0,4.1-0.8,5.6-2.4l0,0c1.4-1.6,2.2-3.6,2.2-6.1c0-2.5-0.7-4.5-2.2-6.1
			C76.5,73.9,74.6,73.1,72.3,73.1z"/>
	</g>
	<g>
		<path class="st0" d="M100.7,95.6c-3.3,0-6-1-8.1-3c-2.1-2-3.2-5.1-3.2-9.1V67.7h5.8v15.4c0,2.2,0.5,3.9,1.4,5.1
			c0.9,1.2,2.3,1.8,4,1.8c1.8,0,3.1-0.6,4-1.8c0.9-1.2,1.3-2.9,1.3-5.1V67.7h5.8v15.8c0,4-1.1,7.1-3.1,9.1
			C106.6,94.6,103.9,95.6,100.7,95.6z M89.8,68.1v15.4c0,3.9,1,6.9,3,8.8c2,1.9,4.6,2.9,7.8,2.9c3.2,0,5.8-1,7.8-2.9
			c2-1.9,3-4.9,3-8.8V68.1h-5v15c0,2.3-0.5,4.1-1.4,5.4c-1,1.3-2.4,2-4.3,2c-1.9,0-3.4-0.7-4.4-2c-1-1.3-1.5-3.1-1.5-5.4v-15H89.8z"
			/>
	</g>
	<g>
		<path class="st0" d="M136.9,95.4h-6.3l-5.8-10h-2.9v10h-5.4V67.7h9.8c2.4,0,4.5,0.8,6.1,2.3c1.7,1.5,2.5,3.7,2.5,6.3
			c0,1.8-0.5,3.5-1.4,4.9c-0.9,1.4-2,2.4-3.4,3.1L136.9,95.4z M130.9,95h5.3l-6.5-10.8l0.2-0.1c1.4-0.7,2.6-1.7,3.5-3.1
			c0.9-1.4,1.3-2.9,1.3-4.7c0-2.5-0.8-4.5-2.4-6c-1.6-1.5-3.6-2.2-5.9-2.2H117V95h4.5V85h3.6L130.9,95z M126,80.6h-4.5v-8h4.5
			c1.2,0,2.1,0.3,2.8,1c0.7,0.7,1.1,1.6,1.1,2.8c0,1.2-0.4,2.2-1.1,3C128.1,80.2,127.2,80.6,126,80.6z M121.9,80.2h4.1
			c1,0,1.9-0.3,2.5-1.1v0c0.6-0.7,1-1.6,1-2.7c0-1.1-0.3-1.9-0.9-2.5c-0.6-0.6-1.5-0.9-2.5-0.9h-4.1V80.2z"/>
	</g>
</g>
</svg>
