<?xml version="1.0" encoding="utf-8"?>
<!-- Generator: Adobe Illustrator 23.0.2, SVG Export Plug-In . SVG Version: 6.00 Build 0)  -->
<svg version="1.1" id="Laag_1" xmlns="http://www.w3.org/2000/svg" xmlns:xlink="http://www.w3.org/1999/xlink" x="0px" y="0px"
	 width="155.5px" height="52.8px" viewBox="0 0 155.5 52.8" style="enable-background:new 0 0 155.5 52.8;" xml:space="preserve">
<style type="text/css">
	.st0{fill:#FFFFFF;}
</style>
<g>
	<path class="st0" d="M7.8,3.5c0.6,0,1.1,0.2,1.4,0.6s0.5,1,0.5,1.7v3.4h-1V5.9c0-0.5-0.1-0.8-0.3-1.1C8.1,4.6,7.8,4.4,7.5,4.4
		c-0.3,0-0.6,0.1-0.9,0.4C6.4,5.1,6.3,5.5,6.3,5.9v3.3h-1V5.9c0-0.5-0.1-0.9-0.3-1.1C4.7,4.6,4.4,4.4,4.1,4.4
		c-0.3,0-0.6,0.1-0.9,0.4C2.9,5.1,2.8,5.4,2.8,5.9v3.4h-1V3.6h0.8l0.2,0.7h0.1C3,4.1,3.2,3.9,3.4,3.8S4,3.5,4.4,3.5
		c0.4,0,0.7,0.1,1,0.3C5.7,4,5.9,4.3,6,4.6h0.1C6.2,4.3,6.4,4,6.7,3.8C7,3.6,7.3,3.5,7.8,3.5z"/>
	<path class="st0" d="M13.6,3.5c0.8,0,1.4,0.3,1.9,0.8c0.5,0.5,0.7,1.3,0.6,2.3h-4.2c0,0.6,0.2,1,0.5,1.4c0.3,0.3,0.7,0.5,1.3,0.5
		c0.3,0,0.6-0.1,0.9-0.2s0.5-0.4,0.6-0.7h1c-0.1,0.6-0.4,1-0.9,1.3c-0.4,0.3-1,0.4-1.6,0.4c-0.8,0-1.5-0.3-2-0.8
		c-0.5-0.5-0.7-1.2-0.7-2.1c0-0.8,0.3-1.5,0.8-2.1C12.2,3.8,12.8,3.5,13.6,3.5z M11.9,5.9h3.3c0-0.4-0.2-0.8-0.4-1.1
		c-0.3-0.3-0.7-0.4-1.1-0.4c-0.5,0-0.8,0.1-1.1,0.4C12.2,5,12,5.4,11.9,5.9z"/>
	<path class="st0" d="M20.3,9.1c-0.3,0.2-0.6,0.3-0.9,0.3c-0.9,0-1.4-0.5-1.4-1.5V4.4h-1.1V3.7h0.3c0.6,0,0.9-0.3,0.9-0.8V2.2H19
		v1.4h1.3v0.8H19v3.3c0,0.5,0.2,0.7,0.6,0.7c0.2,0,0.3-0.1,0.5-0.2L20.3,9.1z"/>
	<path class="st0" d="M27.2,9.3c-0.8,0-1.5-0.3-2-0.8c-0.5-0.6-0.8-1.3-0.8-2.1c0-0.8,0.3-1.5,0.8-2.1c0.5-0.6,1.2-0.8,2-0.8
		s1.5,0.3,2,0.8c0.5,0.6,0.8,1.2,0.8,2.1c0,0.8-0.3,1.5-0.8,2.1C28.8,9.1,28.1,9.3,27.2,9.3z M27.2,8.5c0.5,0,1-0.2,1.3-0.6
		c0.3-0.4,0.5-0.9,0.5-1.4c0-0.6-0.2-1-0.5-1.4c-0.3-0.4-0.8-0.6-1.3-0.6s-1,0.2-1.3,0.6s-0.5,0.9-0.5,1.4c0,0.6,0.2,1,0.5,1.4
		C26.3,8.3,26.7,8.5,27.2,8.5z"/>
	<path class="st0" d="M31.6,9.3c-0.2,0-0.3-0.1-0.5-0.2C31,9,30.9,8.8,30.9,8.6c0-0.2,0.1-0.3,0.2-0.5C31.3,8,31.4,8,31.6,8
		c0.2,0,0.3,0.1,0.5,0.2c0.1,0.1,0.2,0.3,0.2,0.5c0,0.2-0.1,0.3-0.2,0.5C31.9,9.3,31.8,9.3,31.6,9.3z"/>
	<path class="st0" d="M38.1,7.9c0,0.2,0,0.4,0.1,0.4s0.2,0.1,0.4,0.1v0.8h-0.2c-0.6,0-1-0.3-1.1-0.8c-0.2,0.3-0.5,0.5-0.8,0.6
		c-0.3,0.2-0.7,0.2-1.1,0.2c-0.5,0-1-0.1-1.4-0.4s-0.5-0.7-0.5-1.2c0-0.6,0.2-1,0.7-1.3c0.4-0.3,1.1-0.5,1.9-0.5l1.1-0.1V5.7
		c0-0.4-0.1-0.8-0.3-1c-0.2-0.3-0.5-0.4-0.9-0.4c-0.4,0-0.7,0.1-0.9,0.3c-0.2,0.2-0.3,0.5-0.4,0.8h-0.9c0-0.5,0.3-1,0.6-1.4
		c0.4-0.4,0.9-0.5,1.5-0.5c0.6,0,1.2,0.2,1.6,0.6c0.4,0.4,0.6,0.9,0.6,1.6V7.9z M35.5,8.5c0.4,0,0.8-0.1,1.1-0.4
		C37,7.9,37.1,7.5,37.1,7V6.6l-0.9,0.1c-0.5,0-1,0.2-1.2,0.3c-0.3,0.2-0.4,0.4-0.4,0.7c0,0.3,0.1,0.5,0.3,0.6
		C35,8.5,35.2,8.5,35.5,8.5z"/>
	<path class="st0" d="M40.4,9.3c-0.2,0-0.3-0.1-0.5-0.2c-0.1-0.1-0.2-0.3-0.2-0.5c0-0.2,0.1-0.3,0.2-0.5C40,8,40.2,8,40.4,8
		c0.2,0,0.3,0.1,0.5,0.2c0.1,0.1,0.2,0.3,0.2,0.5c0,0.2-0.1,0.3-0.2,0.5C40.7,9.3,40.6,9.3,40.4,9.3z"/>
	<path class="st0" d="M50.7,1.4h1v7.8h-1V5.7h-3.8v3.5h-1V1.4h1v3.4h3.8V1.4z"/>
	<path class="st0" d="M58.6,9.2l-0.7-2h-3.2l-0.7,2H53l2.7-7.8H57l2.7,7.8H58.6z M55.1,6.3h2.6l-1.2-3.8h-0.1L55.1,6.3z"/>
	<path class="st0" d="M66.3,1.4h1v7.8h-1.1l-4.1-6.1H62v6.1h-1V1.4h1.2l4,6.1h0.1V1.4z"/>
	<path class="st0" d="M74.5,7.3c0,0.7-0.2,1.2-0.7,1.5c-0.5,0.4-1.1,0.5-1.9,0.5c-0.9,0-1.6-0.2-2.1-0.7c-0.5-0.5-0.8-1.1-0.8-1.8
		h1.1c0,0.5,0.2,0.9,0.5,1.1c0.3,0.3,0.7,0.4,1.3,0.4c0.5,0,0.8-0.1,1.1-0.3c0.3-0.2,0.4-0.5,0.4-0.9c0-0.4-0.1-0.7-0.4-0.9
		c-0.3-0.2-0.7-0.5-1.4-0.7c-0.7-0.2-1.3-0.5-1.7-0.9S69.3,4,69.3,3.4c0-0.6,0.2-1.2,0.7-1.6s1.1-0.6,1.8-0.6c0.8,0,1.4,0.2,1.9,0.7
		s0.7,1,0.7,1.6h-1c0-0.4-0.2-0.7-0.5-1c-0.3-0.3-0.7-0.4-1.2-0.4c-0.4,0-0.8,0.1-1,0.3c-0.3,0.2-0.4,0.5-0.4,0.8
		c0,0.3,0.1,0.6,0.4,0.8s0.7,0.4,1.3,0.6c0.8,0.3,1.4,0.6,1.8,1C74.3,6.2,74.5,6.7,74.5,7.3z"/>
	<path class="st0" d="M86.1,6.8c-0.2,0.8-0.5,1.4-1.1,1.8c-0.6,0.5-1.3,0.7-2.1,0.7c-1.1,0-2-0.4-2.7-1.1c-0.7-0.7-1-1.7-1-2.9
		c0-1.2,0.3-2.1,1-2.9c0.7-0.8,1.5-1.1,2.6-1.1c0.8,0,1.5,0.2,2.1,0.7c0.6,0.4,1,1.1,1.1,1.9h-1.1c-0.1-0.5-0.4-0.9-0.8-1.1
		c-0.4-0.3-0.8-0.4-1.4-0.4c-0.8,0-1.4,0.3-1.8,0.9c-0.5,0.6-0.7,1.3-0.7,2.2c0,0.9,0.2,1.6,0.7,2.2c0.5,0.6,1.1,0.8,1.9,0.8
		c0.5,0,1-0.1,1.4-0.4c0.4-0.3,0.7-0.6,0.8-1.1H86.1z"/>
	<path class="st0" d="M93.2,9.2h-1.1L90.2,6h0h-1.5v3.2h-1V1.4h2.7c0.8,0,1.4,0.2,1.9,0.6c0.5,0.4,0.7,1,0.7,1.7
		c0,0.5-0.1,1-0.4,1.4c-0.3,0.4-0.7,0.7-1.2,0.8L93.2,9.2z M88.6,2.3v2.7h1.5c0.5,0,0.9-0.1,1.2-0.4c0.3-0.3,0.4-0.6,0.4-1
		c0-0.4-0.1-0.8-0.4-1c-0.3-0.2-0.7-0.4-1.2-0.4H88.6z"/>
	<path class="st0" d="M98.1,9.3c-1.1,0-2-0.4-2.8-1.2c-0.7-0.8-1.1-1.7-1.1-2.9s0.4-2.1,1.1-2.9c0.7-0.8,1.7-1.2,2.8-1.2
		c1.1,0,2,0.4,2.8,1.2c0.7,0.8,1.1,1.7,1.1,2.9s-0.4,2.1-1.1,2.9C100.1,9,99.2,9.3,98.1,9.3z M98.1,8.3c0.8,0,1.5-0.3,2-0.9
		s0.8-1.3,0.8-2.2s-0.3-1.6-0.8-2.2s-1.2-0.9-2-0.9c-0.8,0-1.5,0.3-2,0.9s-0.8,1.3-0.8,2.2s0.3,1.6,0.8,2.2S97.3,8.3,98.1,8.3z"/>
	<path class="st0" d="M104.7,1.4v7.8h-1.1V1.4H104.7z"/>
	<path class="st0" d="M111.9,7.3c0,0.7-0.2,1.2-0.7,1.5c-0.5,0.4-1.1,0.5-1.9,0.5c-0.9,0-1.6-0.2-2.1-0.7c-0.5-0.5-0.8-1.1-0.8-1.8
		h1.1c0,0.5,0.2,0.9,0.5,1.1c0.3,0.3,0.7,0.4,1.3,0.4c0.5,0,0.8-0.1,1.1-0.3c0.3-0.2,0.4-0.5,0.4-0.9c0-0.4-0.1-0.7-0.4-0.9
		c-0.3-0.2-0.7-0.5-1.4-0.7c-0.7-0.2-1.3-0.5-1.7-0.9s-0.6-0.8-0.6-1.4c0-0.6,0.2-1.2,0.7-1.6c0.5-0.4,1.1-0.6,1.8-0.6
		c0.8,0,1.4,0.2,1.9,0.7s0.7,1,0.7,1.6h-1c0-0.4-0.2-0.7-0.5-1c-0.3-0.3-0.7-0.4-1.2-0.4c-0.4,0-0.8,0.1-1,0.3
		c-0.3,0.2-0.4,0.5-0.4,0.8c0,0.3,0.1,0.6,0.4,0.8c0.3,0.2,0.7,0.4,1.3,0.6c0.8,0.3,1.4,0.6,1.8,1C111.7,6.2,111.9,6.7,111.9,7.3z"
		/>
	<path class="st0" d="M114.6,8.3h4.1v1h-5.1V1.4h5v1h-3.9v2.5h3.5v0.9h-3.5V8.3z"/>
	<path class="st0" d="M125.2,1.4v0.9H123v6.9h-1V2.3h-2.3V1.4H125.2z"/>
</g>
<g>
	<path class="st0" d="M8.2,21.2H7.1l-1-1.1C5.8,20.5,5.4,20.8,5,21c-0.4,0.2-0.8,0.3-1.3,0.3c-0.6,0-1.1-0.2-1.5-0.5
		c-0.4-0.3-0.6-0.8-0.6-1.3c0-0.5,0.1-0.9,0.4-1.2c0.3-0.3,0.7-0.7,1.3-1.1c-0.2-0.2-0.4-0.4-0.5-0.6c-0.1-0.1-0.3-0.4-0.4-0.6
		c-0.1-0.3-0.2-0.5-0.2-0.8c0-0.5,0.2-0.9,0.6-1.3c0.4-0.4,0.9-0.5,1.4-0.5c0.6,0,1.1,0.2,1.5,0.5s0.6,0.7,0.6,1.2
		c0,0.2,0,0.4-0.1,0.6c-0.1,0.2-0.2,0.4-0.4,0.6c-0.2,0.2-0.3,0.4-0.5,0.5c-0.1,0.1-0.4,0.3-0.7,0.5L6,18.8l0.9-1.3h1l-1.1,1.7
		c0,0,0,0-0.1,0.1c0,0.1-0.1,0.1-0.1,0.1L8.2,21.2z M3.8,20.4c0.6,0,1.1-0.3,1.7-1l-1.6-1.7c-0.5,0.4-0.8,0.6-1,0.9
		s-0.3,0.5-0.3,0.8c0,0.3,0.1,0.6,0.4,0.8S3.5,20.4,3.8,20.4z M4.2,14.1c-0.3,0-0.6,0.1-0.8,0.3s-0.3,0.4-0.3,0.7
		c0,0.2,0.1,0.5,0.2,0.7C3.5,16,3.7,16.2,4,16.6c0.3-0.2,0.6-0.4,0.7-0.5c0.2-0.1,0.3-0.3,0.4-0.5c0.1-0.2,0.2-0.4,0.2-0.6
		c0-0.3-0.1-0.5-0.3-0.7S4.5,14.1,4.2,14.1z"/>
	<path class="st0" d="M18.1,21.2H17L15.1,18h0h-1.5v3.2h-1v-7.8h2.7c0.8,0,1.4,0.2,1.9,0.6s0.7,1,0.7,1.7c0,0.5-0.1,1-0.4,1.4
		c-0.3,0.4-0.7,0.7-1.2,0.8L18.1,21.2z M13.6,14.3V17h1.5c0.5,0,0.9-0.1,1.2-0.4s0.4-0.6,0.4-1c0-0.4-0.1-0.8-0.4-1
		s-0.7-0.4-1.2-0.4H13.6z"/>
	<path class="st0" d="M20.5,20.2h4.1v1h-5.1v-7.8h5v1h-3.9v2.5H24v0.9h-3.5V20.2z"/>
	<path class="st0" d="M31.3,13.3h1v7.8h-1.1l-4.1-6.1H27v6.1h-1v-7.8h1.2l4,6.1h0.1V13.3z"/>
	<path class="st0" d="M35.3,20.2h4.1v1h-5.1v-7.8h5v1h-3.9v2.5h3.5v0.9h-3.5V20.2z M37.1,11.1h1.2l-1.2,1.5h-0.7L37.1,11.1z"/>
	<path class="st0" d="M49,13.3h1.1l-2.7,7.8h-1.5l-2.7-7.8h1.1l2.3,6.7h0.1L49,13.3z"/>
	<path class="st0" d="M55.4,21.2l-0.7-2h-3.2l-0.7,2h-1.1l2.7-7.8h1.4l2.7,7.8H55.4z M51.9,18.3h2.6l-1.2-3.8h-0.1L51.9,18.3z"/>
	<path class="st0" d="M63.1,13.3h1v7.8H63l-4.1-6.1h-0.1v6.1h-1v-7.8H59l4,6.1h0.1V13.3z"/>
	<path class="st0" d="M69.4,15.4c-0.2,0-0.4-0.1-0.5-0.2c-0.1-0.2-0.2-0.4-0.2-0.6c0-0.4,0.1-0.7,0.3-1s0.4-0.5,0.7-0.6l0.2,0.3
		c-0.4,0.3-0.6,0.6-0.6,0.9c0.2,0,0.3,0,0.4,0.1c0.1,0.1,0.2,0.3,0.2,0.5s-0.1,0.4-0.2,0.5C69.7,15.3,69.5,15.4,69.4,15.4z"/>
	<path class="st0" d="M76.7,13.3v0.9h-2.3v6.9h-1v-6.9h-2.3v-0.9H76.7z"/>
	<path class="st0" d="M86,13.3h1v7.8h-1v-3.5h-3.8v3.5h-1v-7.8h1v3.4H86V13.3z"/>
	<path class="st0" d="M92.6,21.3c-1.1,0-2-0.4-2.8-1.2c-0.7-0.8-1.1-1.7-1.1-2.9s0.4-2.1,1.1-2.9c0.7-0.8,1.7-1.2,2.8-1.2
		c1.1,0,2,0.4,2.8,1.2c0.7,0.8,1.1,1.7,1.1,2.9s-0.4,2.1-1.1,2.9C94.6,20.9,93.7,21.3,92.6,21.3z M92.6,20.3c0.8,0,1.5-0.3,2-0.9
		s0.8-1.3,0.8-2.2s-0.3-1.6-0.8-2.2s-1.2-0.9-2-0.9c-0.8,0-1.5,0.3-2,0.9s-0.8,1.3-0.8,2.2s0.3,1.6,0.8,2.2S91.8,20.3,92.6,20.3z"/>
	<path class="st0" d="M103,14.3h-3.8v2.5h3.3v0.9h-3.3v3.4h-1v-7.8h4.8V14.3z"/>
</g>
<g>
	<path class="st0" d="M7.2,28.4v0.9H4.9v6.9h-1v-6.9H1.6v-0.9H7.2z"/>
	<path class="st0" d="M13.3,28.4h1v7.8h-1v-3.5H9.5v3.5h-1v-7.8h1v3.4h3.8V28.4z"/>
	<path class="st0" d="M17.1,35.3h4.1v1h-5.1v-7.8h5v1h-3.9v2.5h3.5v0.9h-3.5V35.3z"/>
	<path class="st0" d="M27.6,36.2l-0.7-2h-3.2l-0.7,2h-1.1l2.7-7.8H26l2.7,7.8H27.6z M24,33.3h2.6l-1.2-3.8h-0.1L24,33.3z"/>
	<path class="st0" d="M35,28.4v0.9h-2.3v6.9h-1v-6.9h-2.3v-0.9H35z"/>
	<path class="st0" d="M37.3,35.3h4.1v1h-5.1v-7.8h5v1h-3.9v2.5h3.5v0.9h-3.5V35.3z"/>
	<path class="st0" d="M48.2,36.2H47L45.2,33h0h-1.5v3.2h-1v-7.8h2.7c0.8,0,1.4,0.2,1.9,0.6c0.5,0.4,0.7,1,0.7,1.7
		c0,0.5-0.1,1-0.4,1.4c-0.3,0.4-0.7,0.7-1.2,0.8L48.2,36.2z M43.6,29.3v2.7h1.5c0.5,0,0.9-0.1,1.2-0.4c0.3-0.3,0.4-0.6,0.4-1
		c0-0.4-0.1-0.8-0.4-1s-0.7-0.4-1.2-0.4H43.6z"/>
	<path class="st0" d="M54.6,28.4v0.9h-2.3v6.9h-1v-6.9H49v-0.9H54.6z"/>
	<path class="st0" d="M59.6,36.3c-1.1,0-2-0.4-2.8-1.2s-1.1-1.7-1.1-2.9c0-1.2,0.4-2.1,1.1-2.9c0.7-0.8,1.7-1.2,2.8-1.2
		c1.1,0,2,0.4,2.8,1.2c0.7,0.8,1.1,1.7,1.1,2.9c0,1.2-0.4,2.1-1.1,2.9C61.6,35.9,60.7,36.3,59.6,36.3z M59.6,35.3
		c0.8,0,1.5-0.3,2-0.9c0.5-0.6,0.8-1.3,0.8-2.2c0-0.9-0.3-1.6-0.8-2.2s-1.2-0.9-2-0.9c-0.8,0-1.5,0.3-2,0.9
		c-0.5,0.6-0.8,1.3-0.8,2.2c0,0.9,0.3,1.6,0.8,2.2C58.1,35,58.8,35.3,59.6,35.3z"/>
	<path class="st0" d="M71.2,28.4v4.8c0,1-0.3,1.8-0.9,2.4c-0.6,0.5-1.3,0.8-2.2,0.8c-0.9,0-1.6-0.3-2.2-0.8C65.3,35,65,34.2,65,33.1
		v-4.8h1.1v4.7c0,0.7,0.2,1.3,0.6,1.6c0.4,0.4,0.9,0.6,1.4,0.6c0.6,0,1.1-0.2,1.4-0.6c0.4-0.4,0.5-0.9,0.5-1.6v-4.7H71.2z"/>
	<path class="st0" d="M78.5,36.2h-1.1L75.5,33h0h-1.5v3.2h-1v-7.8h2.7c0.8,0,1.4,0.2,1.9,0.6c0.5,0.4,0.7,1,0.7,1.7
		c0,0.5-0.1,1-0.4,1.4c-0.3,0.4-0.7,0.7-1.2,0.8L78.5,36.2z M73.9,29.3v2.7h1.5c0.5,0,0.9-0.1,1.2-0.4c0.3-0.3,0.4-0.6,0.4-1
		c0-0.4-0.1-0.8-0.4-1s-0.7-0.4-1.2-0.4H73.9z"/>
	<path class="st0" d="M85.1,28.4h1v7.8H85l-4.1-6.1h-0.1v6.1h-1v-7.8H81l4,6.1h0.1V28.4z"/>
	<path class="st0" d="M88.9,35.3h4.1v1h-5.1v-7.8h5v1h-3.9v2.5h3.5v0.9h-3.5V35.3z"/>
	<path class="st0" d="M95.2,35.3h4.1v1h-5.1v-7.8h5v1h-3.9v2.5h3.5v0.9h-3.5V35.3z"/>
	<path class="st0" d="M6.1,41.7h1v8H6.3l-0.2-0.8H6.1c-0.4,0.6-1,0.9-1.8,0.9c-0.7,0-1.4-0.3-1.8-0.8c-0.5-0.5-0.7-1.2-0.7-2.1
		c0-0.9,0.2-1.6,0.7-2.1C3,44.2,3.6,44,4.3,44c0.8,0,1.4,0.3,1.8,0.9V41.7z M3.2,48.3c0.3,0.4,0.7,0.6,1.2,0.6
		c0.5,0,0.9-0.2,1.2-0.6c0.3-0.4,0.5-0.9,0.5-1.5c0-0.6-0.2-1.1-0.5-1.5c-0.3-0.4-0.7-0.6-1.2-0.6c-0.5,0-0.9,0.2-1.2,0.6
		s-0.5,0.9-0.5,1.5C2.7,47.5,2.9,47.9,3.2,48.3z"/>
	<path class="st0" d="M9.7,43c-0.1,0.1-0.3,0.2-0.5,0.2c-0.2,0-0.3-0.1-0.5-0.2c-0.1-0.1-0.2-0.3-0.2-0.5s0.1-0.3,0.2-0.5
		c0.1-0.1,0.3-0.2,0.5-0.2c0.2,0,0.3,0.1,0.5,0.2s0.2,0.3,0.2,0.5S9.9,42.9,9.7,43z M9.7,44.1v5.6h-1v-5.6H9.7z"/>
	<path class="st0" d="M18,45.8c0.4,0.1,0.7,0.4,1,0.7c0.3,0.3,0.4,0.7,0.4,1.2c0,0.6-0.2,1.1-0.7,1.5c-0.5,0.4-1.1,0.6-1.8,0.6
		c-0.7,0-1.3-0.2-1.8-0.6c-0.5-0.4-0.7-0.9-0.7-1.5c0-0.5,0.1-0.9,0.4-1.2c0.3-0.3,0.6-0.6,1-0.7v-0.1c-0.3-0.1-0.5-0.3-0.7-0.6
		c-0.2-0.3-0.3-0.6-0.3-0.9c0-0.5,0.2-1,0.6-1.3c0.4-0.3,0.9-0.5,1.5-0.5c0.6,0,1.1,0.2,1.5,0.5c0.4,0.3,0.6,0.8,0.6,1.3
		c0,0.4-0.1,0.7-0.3,0.9C18.6,45.4,18.3,45.6,18,45.8L18,45.8z M16.9,48.9c0.4,0,0.8-0.1,1-0.3c0.3-0.2,0.4-0.5,0.4-0.9
		c0-0.4-0.1-0.7-0.4-0.9c-0.3-0.3-0.6-0.4-1.1-0.4c-0.4,0-0.8,0.1-1,0.4c-0.3,0.3-0.4,0.6-0.4,1c0,0.4,0.1,0.7,0.4,0.9
		C16.1,48.8,16.5,48.9,16.9,48.9z M17.8,43.5c-0.2-0.2-0.5-0.3-0.8-0.3c-0.3,0-0.6,0.1-0.9,0.3s-0.3,0.4-0.3,0.8
		c0,0.3,0.1,0.6,0.4,0.8c0.2,0.2,0.5,0.3,0.8,0.3c0.3,0,0.6-0.1,0.8-0.3c0.2-0.2,0.4-0.5,0.4-0.8C18.1,43.9,18,43.7,17.8,43.5z"/>
	<path class="st0" d="M26.6,49.8c-0.8,0-1.5-0.3-2-0.8c-0.5-0.6-0.8-1.3-0.8-2.1c0-0.8,0.3-1.5,0.8-2.1c0.5-0.6,1.2-0.8,2-0.8
		s1.5,0.3,2,0.8c0.5,0.6,0.8,1.2,0.8,2.1c0,0.8-0.3,1.5-0.8,2.1C28.1,49.5,27.4,49.8,26.6,49.8z M26.6,48.9c0.5,0,1-0.2,1.3-0.6
		c0.3-0.4,0.5-0.9,0.5-1.4c0-0.6-0.2-1-0.5-1.4c-0.3-0.4-0.8-0.6-1.3-0.6s-1,0.2-1.3,0.6c-0.3,0.4-0.5,0.9-0.5,1.4
		c0,0.6,0.2,1,0.5,1.4C25.6,48.7,26.1,48.9,26.6,48.9z"/>
	<path class="st0" d="M35.5,44.1l-2.3,2.4l2.3,3.3h-1.1l-1.8-2.6l-0.8,0.8v1.7h-1v-8h1v4.8h0.1l2.4-2.5H35.5z"/>
	<path class="st0" d="M39.7,49.5c-0.3,0.2-0.6,0.3-0.9,0.3c-0.9,0-1.4-0.5-1.4-1.5v-3.4h-1.1v-0.7h0.3c0.6,0,0.9-0.3,0.9-0.8v-0.7
		h0.9v1.4h1.3v0.8h-1.3v3.3c0,0.5,0.2,0.7,0.6,0.7c0.2,0,0.3-0.1,0.5-0.2L39.7,49.5z"/>
	<path class="st0" d="M43.8,45.8h4v0.9h-4V45.8z"/>
	<path class="st0" d="M56.2,44.1h1l-2,5.6h-1.4l-2-5.6h1.1l1.6,4.7h0.1L56.2,44.1z"/>
	<path class="st0" d="M61.1,44h0.4v1c-0.1,0-0.3,0-0.5,0c-0.4,0-0.8,0.2-1.1,0.5c-0.3,0.3-0.4,0.8-0.4,1.4v2.9h-1v-5.6h0.8l0.2,0.8
		h0.1C59.9,44.3,60.4,44,61.1,44z"/>
	<path class="st0" d="M66.9,49.7v-5.2h-1.4v-0.8h0.7c0.6,0,0.9-0.3,0.9-0.8v-0.3h0.9v7.2H66.9z"/>
	<path class="st0" d="M73.1,45.9c0.4,0.1,0.7,0.3,0.9,0.7c0.2,0.3,0.3,0.7,0.3,1.1c0,0.6-0.2,1.1-0.6,1.5c-0.4,0.4-1,0.6-1.8,0.6
		c-0.8,0-1.4-0.2-1.8-0.6s-0.6-0.9-0.7-1.6h1c0,0.4,0.2,0.7,0.4,0.9c0.2,0.2,0.6,0.4,1,0.4c0.4,0,0.7-0.1,1-0.3
		c0.3-0.2,0.4-0.5,0.4-0.9c0-0.4-0.1-0.7-0.4-0.9s-0.6-0.4-1.1-0.4h-0.4v-0.9h0.4c0.4,0,0.7-0.1,0.9-0.3c0.2-0.2,0.3-0.5,0.3-0.8
		c0-0.3-0.1-0.6-0.3-0.8c-0.2-0.2-0.5-0.3-0.8-0.3c-0.3,0-0.6,0.1-0.8,0.3c-0.2,0.2-0.3,0.5-0.4,0.8h-1c0-0.6,0.2-1,0.6-1.4
		c0.4-0.4,1-0.6,1.6-0.6c0.6,0,1.1,0.2,1.5,0.5c0.4,0.4,0.6,0.8,0.6,1.3C74.1,44.9,73.8,45.5,73.1,45.9L73.1,45.9z"/>
	<path class="st0" d="M83.1,41.7h1v8h-0.7l-0.2-0.8h-0.1c-0.4,0.6-1,0.9-1.8,0.9c-0.7,0-1.4-0.3-1.8-0.8c-0.5-0.5-0.7-1.2-0.7-2.1
		c0-0.9,0.2-1.6,0.7-2.1c0.5-0.5,1.1-0.8,1.9-0.8c0.8,0,1.4,0.3,1.8,0.9V41.7z M80.2,48.3c0.3,0.4,0.7,0.6,1.2,0.6
		c0.5,0,0.9-0.2,1.2-0.6c0.3-0.4,0.5-0.9,0.5-1.5c0-0.6-0.2-1.1-0.5-1.5c-0.3-0.4-0.7-0.6-1.2-0.6c-0.5,0-0.9,0.2-1.2,0.6
		s-0.5,0.9-0.5,1.5C79.8,47.5,79.9,47.9,80.2,48.3z"/>
	<path class="st0" d="M88.1,44c0.8,0,1.4,0.3,1.9,0.8c0.5,0.5,0.7,1.3,0.6,2.3h-4.2c0,0.6,0.2,1,0.5,1.4c0.3,0.3,0.7,0.5,1.3,0.5
		c0.3,0,0.6-0.1,0.9-0.2c0.3-0.1,0.5-0.4,0.6-0.7h1c-0.1,0.6-0.4,1-0.9,1.3c-0.4,0.3-1,0.4-1.6,0.4c-0.8,0-1.5-0.3-2-0.8
		s-0.7-1.2-0.7-2.1c0-0.8,0.3-1.5,0.8-2.1C86.7,44.2,87.4,44,88.1,44z M86.5,46.3h3.3c0-0.4-0.2-0.8-0.4-1.1
		c-0.3-0.3-0.7-0.4-1.1-0.4c-0.5,0-0.8,0.1-1.1,0.4C86.7,45.5,86.5,45.8,86.5,46.3z"/>
	<path class="st0" d="M97.1,47.7c-0.1,0.6-0.4,1.1-0.8,1.5s-1,0.6-1.7,0.6c-0.9,0-1.6-0.3-2.1-0.8s-0.7-1.2-0.7-2.1
		c0-0.8,0.3-1.5,0.8-2.1s1.2-0.8,2-0.8c0.7,0,1.3,0.2,1.7,0.6s0.7,0.9,0.8,1.5h-1c-0.1-0.4-0.2-0.7-0.5-0.9s-0.6-0.4-1.1-0.4
		c-0.5,0-0.9,0.2-1.3,0.6s-0.5,0.9-0.5,1.5c0,0.6,0.2,1.1,0.5,1.5c0.3,0.4,0.8,0.6,1.3,0.6c0.4,0,0.7-0.1,1-0.3
		c0.3-0.2,0.5-0.5,0.5-0.9H97.1z"/>
</g>
</svg>
