<?xml version="1.0" encoding="utf-8"?>
<!-- Generator: Adobe Illustrator 24.0.0, SVG Export Plug-In . SVG Version: 6.00 Build 0)  -->
<svg version="1.1" id="Laag_1" xmlns="http://www.w3.org/2000/svg" xmlns:xlink="http://www.w3.org/1999/xlink" x="0px" y="0px"
	 width="107.3px" height="126.1px" viewBox="0 0 107.3 126.1" style="enable-background:new 0 0 107.3 126.1;" xml:space="preserve"
	>
<style type="text/css">
	.st0{fill:none;}
	.st1{fill:#FFFFFF;}
	.st2{fill:#DEDDE8;}
</style>
<g>
	<path class="st0" d="M57.5,81.4c-1.1,0.1-1.8,0.5-2.4,1.2c-0.6,0.8-0.9,1.8-0.8,3c0.1,1.3,0.5,2.2,1.1,2.9c0.7,0.6,1.5,1,2.5,0.9
		c1-0.1,1.8-0.5,2.5-1.2c0.7-0.8,1-1.8,0.9-3c0-1.3-0.4-2.2-1.2-2.9C59.4,81.7,58.5,81.3,57.5,81.4z"/>
	<path class="st0" d="M33.9,108.3c-0.8,0.1-1.5,0.3-2.1,0.8c-0.6,0.5-1,1.1-1.3,1.9l6.7-0.4C36.7,109,35.6,108.2,33.9,108.3z"/>
	<path class="st0" d="M49.5,106.1c-0.8,0.2-1.4,0.7-1.9,1.3c-0.4,0.6-0.7,1.4-0.7,2.2l6.4-2.1C52.4,106,51.1,105.6,49.5,106.1z"/>
	<path class="st0" d="M39.2,83.4c-0.8,0.2-1.5,0.5-2,1.1c-0.5,0.5-0.9,1.2-1,2l6.6-1.3C42.1,83.7,40.9,83.1,39.2,83.4z"/>
	<path class="st0" d="M23.7,86c0.8-0.1,1.5-0.4,2-1c0.5-0.6,0.7-1.3,0.7-2.2c-0.1-0.9-0.4-1.5-0.9-2c-0.5-0.4-1.2-0.6-2.1-0.6
		l-3.3,0.2l0.3,5.8L23.7,86z"/>
	<path class="st0" d="M100.3,95.7c0.2,0,0.4,0,0.6-0.1c0.2-0.1,0.3-0.3,0.3-0.5c0.1-0.2,0-0.4-0.1-0.6c-0.1-0.2-0.3-0.3-0.6-0.3
		c-0.2,0-0.5,0-0.6,0.1c-0.2,0.1-0.3,0.3-0.3,0.5s0,0.4,0.2,0.6C99.9,95.6,100.1,95.7,100.3,95.7z"/>
	<path class="st0" d="M75.9,81.3c-0.9-0.1-1.6,0-2.3,0.3c-0.6,0.3-1.2,0.8-1.6,1.6l6.6,1.1C78.5,82.6,77.6,81.6,75.9,81.3z"/>
	<path class="st0" d="M99.9,98.3c0.3,0,0.5,0,0.8-0.1c0.2-0.1,0.4-0.3,0.4-0.6s0-0.5-0.2-0.7s-0.4-0.3-0.7-0.4c-0.3,0-0.6,0-0.8,0.2
		c-0.2,0.2-0.3,0.4-0.4,0.6c0,0.3,0,0.5,0.2,0.7C99.4,98.1,99.7,98.2,99.9,98.3z"/>
	<path class="st0" d="M86.6,76.3c-0.1,0.1-0.2,0-0.3,0c0,0.2-0.2,0.4-0.5,0.4c-0.1,0-0.2,0-0.3-0.1c0,0.6,0.6,1.1,1.2,1.1
		c0.6,0,1.1-0.6,1.1-1.2c0-0.3-0.1-0.5-0.3-0.7c-0.1,0.1-0.1,0.3-0.1,0.4C87.3,76.6,86.8,76.6,86.6,76.3z"/>
	<path class="st0" d="M87.6,74.1c0.1,0.1,0.1,0.2,0.1,0.4C87.8,74.3,87.7,74.2,87.6,74.1z"/>
	<path class="st0" d="M98.1,104.9c-0.8,0-1.5,0.1-2.2,0.5c-0.7,0.4-1.2,0.9-1.6,1.7l6.8,0.6C100.8,106,99.8,105,98.1,104.9z"/>
	<path class="st1" d="M88.1,74l-0.5,0.1l0,0c0,0,0,0,0,0c0.1,0.1,0.2,0.2,0.1,0.4c-0.1,0.4-0.1,0.9-0.2,1.3c0.2,0.2,0.3,0.4,0.3,0.7
		c0,0.6-0.5,1.2-1.1,1.2c-0.6,0-1.2-0.5-1.2-1.1c0,0,0,0,0,0c-0.2,0-0.5-0.1-0.7-0.1l5,19.2l3.8-1L88.1,74z"/>
	<path class="st1" d="M85.9,75.7c0-0.1,0.1-0.1,0.2-0.1c0-0.3,0-0.7,0-1l-1.8,0.5l0.1,0.4c0.5,0.1,0.9,0.1,1.3,0.2
		C85.8,75.7,85.8,75.7,85.9,75.7z"/>
	<path class="st1" d="M47.4,89.2L43.7,90l-0.2,0.3c-0.1,0.3-0.4,0.5-0.9,0.8c-0.4,0.3-1,0.5-1.5,0.6c-0.9,0.2-1.8,0.1-2.6-0.2
		c-0.8-0.3-1.5-1-1.9-2l10.8-2.2c-0.2-1.5-0.6-2.7-1.2-3.8c-0.6-1.1-1.3-1.9-2.2-2.4c-0.8-0.5-1.7-0.9-2.7-1
		c-0.9-0.2-1.9-0.1-2.9,0.1c-2,0.4-3.6,1.5-4.8,3.1c-1.2,1.7-1.5,3.6-1,5.8s1.6,3.9,3.3,5c1.8,1.1,3.7,1.5,5.7,1
		c1.5-0.3,2.7-1,3.8-2C46.5,92.1,47.2,90.8,47.4,89.2z M37.2,84.5c0.5-0.6,1.2-0.9,2-1.1c1.7-0.3,2.9,0.3,3.6,1.8l-6.6,1.3
		C36.3,85.7,36.7,85,37.2,84.5z"/>
	<path class="st1" d="M63.5,90.6c1.3-1.5,1.9-3.4,1.8-5.6c-0.1-2.2-0.9-4-2.3-5.4s-3.1-2-5.1-1.9c-1.6,0.1-2.8,0.7-3.7,1.8h-0.5
		l-0.5-1.4l-2.9,0.2l1.1,21.1l3.8-0.2l-0.4-7.5c1,1,2.3,1.5,4,1.4C60.6,92.9,62.2,92.1,63.5,90.6z M60.4,88.2
		c-0.7,0.7-1.5,1.1-2.5,1.2c-1,0.1-1.8-0.3-2.5-0.9c-0.6-0.7-1-1.6-1.1-2.9c-0.1-1.2,0.2-2.2,0.8-3c0.6-0.7,1.3-1.1,2.4-1.2
		c1-0.1,1.9,0.3,2.6,0.9c0.8,0.7,1.2,1.6,1.2,2.9C61.4,86.4,61.1,87.4,60.4,88.2z"/>
	<path class="st1" d="M74,93.2c1.5,0.2,2.9,0.1,4.3-0.6c1.4-0.6,2.4-1.6,3.2-3L77.8,89l-0.3,0.3c-0.2,0.2-0.6,0.3-1.1,0.5
		c-0.5,0.1-1.1,0.1-1.7,0c-0.9-0.1-1.7-0.5-2.4-1.2c-0.7-0.6-1-1.5-1-2.6l10.9,1.8c0.4-1.4,0.4-2.7,0.3-4c-0.2-1.2-0.6-2.2-1.2-3
		c-0.6-0.8-1.3-1.4-2.1-1.9s-1.7-0.8-2.7-1c-2-0.3-3.9,0.1-5.6,1.2s-2.7,2.8-3.1,5.1c-0.5,2.3,0,4.3,1.2,6
		C70.2,91.8,71.9,92.9,74,93.2z M73.6,81.6c0.7-0.3,1.4-0.4,2.3-0.3c1.7,0.3,2.6,1.3,2.7,3L72,83.2C72.4,82.4,73,81.9,73.6,81.6z"/>
	<path class="st1" d="M11.1,113.7c-0.6-0.3-1.2-0.5-1.7-0.7c-0.5-0.1-1.2-0.3-2-0.4c-1.5-0.1-2.3-0.6-2.4-1.3c0-0.3,0.1-0.6,0.4-0.9
		c0.3-0.3,0.7-0.4,1.3-0.4c1.3-0.1,2,0.3,2.3,1.2l3.7-0.2c-0.2-1.3-0.8-2.4-1.9-3.2c-1.1-0.8-2.5-1.2-4.1-1.1
		c-1.6,0.1-2.9,0.5-4,1.4c-1.1,0.8-1.6,2-1.5,3.4c0,0.5,0.1,1,0.3,1.5c0.2,0.4,0.5,0.8,0.9,1.1c0.4,0.3,0.7,0.5,1,0.7
		c0.3,0.2,0.7,0.3,1.3,0.5c0.6,0.1,1,0.2,1.2,0.3c0.2,0,0.6,0.1,1.1,0.2c0.7,0.1,1.2,0.3,1.6,0.5c0.4,0.2,0.6,0.6,0.6,1.1
		c0,1-0.6,1.5-1.8,1.5c-0.8,0-1.4-0.1-1.9-0.5c-0.5-0.4-0.7-0.9-0.8-1.5L1,117.1c0.2,1.6,0.9,2.8,2.1,3.7c1.2,0.9,2.7,1.3,4.5,1.2
		c1.6-0.1,3-0.6,4-1.5c1-0.9,1.5-2.1,1.4-3.6c0-0.7-0.2-1.3-0.5-1.9C12.2,114.5,11.7,114,11.1,113.7z"/>
	<path class="st1" d="M24.5,117.4c-0.2,0.1-0.4,0.2-0.7,0.3c-0.3,0.1-0.6,0.2-0.8,0.2c-0.5,0-1-0.1-1.4-0.5
		c-0.4-0.3-0.6-0.7-0.6-1.2l-0.4-6.7l3.8-0.2l-0.2-3.2l-3.8,0.2l-0.2-4.5l-3.6,0.2l0.2,3c0,0.5-0.1,1-0.4,1.3
		c-0.3,0.3-0.7,0.5-1.2,0.5l-1.5,0.1l0.2,2.9l3-0.2l0.4,7c0.1,1.5,0.7,2.7,1.8,3.5c1.1,0.9,2.4,1.3,3.9,1.2c0.7,0,1.3-0.2,1.9-0.4
		c0.6-0.3,1-0.5,1.2-0.6c0.2-0.1,0.3-0.3,0.4-0.4l-1.6-2.6L24.5,117.4z"/>
	<path class="st1" d="M40.7,109.5c-0.3-1.1-0.9-2-1.6-2.7c-0.8-0.7-1.6-1.1-2.5-1.4c-0.9-0.3-1.9-0.4-2.9-0.4
		c-2.1,0.1-3.8,0.9-5.2,2.4s-2,3.3-1.9,5.6c0.1,2.3,1,4.1,2.5,5.5c1.6,1.4,3.4,2,5.5,1.9c1.5-0.1,2.9-0.6,4.1-1.4
		c1.2-0.9,2-2.1,2.5-3.6l-3.8,0.1l-0.3,0.3c-0.2,0.2-0.5,0.5-1,0.7c-0.5,0.2-1,0.4-1.6,0.4c-0.9,0-1.8-0.2-2.6-0.6
		c-0.8-0.5-1.3-1.2-1.6-2.3l11-0.6C41.3,111.9,41.2,110.6,40.7,109.5z M30.5,111c0.3-0.8,0.7-1.4,1.3-1.9c0.6-0.5,1.3-0.7,2.1-0.8
		c1.7-0.1,2.8,0.7,3.3,2.3L30.5,111z"/>
	<path class="st1" d="M54.6,112.5c-0.1,0.3-0.4,0.6-0.8,0.9c-0.4,0.4-0.9,0.6-1.5,0.8c-0.9,0.3-1.8,0.3-2.6,0.1
		c-0.9-0.2-1.6-0.8-2.1-1.8L58,109c-0.4-1.4-0.9-2.6-1.6-3.6c-0.7-1-1.5-1.7-2.4-2.1c-0.9-0.4-1.8-0.7-2.8-0.7s-1.9,0.1-2.9,0.4
		c-2,0.7-3.4,1.9-4.4,3.7c-0.9,1.8-1.1,3.7-0.3,5.9c0.7,2.2,2,3.7,3.9,4.6c1.9,0.9,3.8,1,5.8,0.4c1.4-0.5,2.6-1.3,3.5-2.5
		c0.9-1.2,1.4-2.5,1.5-4.1l-3.6,1.2L54.6,112.5z M46.9,109.6c0-0.8,0.3-1.6,0.7-2.2c0.5-0.6,1.1-1.1,1.9-1.3
		c1.6-0.5,2.9-0.1,3.8,1.4L46.9,109.6z"/>
	
		<rect x="61" y="97.6" transform="matrix(0.9986 -5.210448e-02 5.210448e-02 0.9986 -5.5559 3.4269)" class="st1" width="3.9" height="21.4"/>
	<path class="st1" d="M83.1,102.9l0.8,16c0,0.5-0.1,0.9-0.5,1.3c-0.4,0.4-0.8,0.6-1.4,0.6s-1.2-0.1-1.8-0.5l-1.2,2.8l0.4,0.3
		c0.3,0.2,0.7,0.4,1.3,0.5c0.6,0.2,1.3,0.3,1.9,0.2c1.5-0.1,2.7-0.6,3.7-1.6s1.5-2.2,1.4-3.7l-0.8-16.1L83.1,102.9z"/>
	<path class="st1" d="M83.1,100.4c0.5,0.5,1.2,0.7,1.9,0.7s1.3-0.3,1.7-0.8c0.5-0.5,0.7-1.1,0.7-1.8c0-0.7-0.3-1.3-0.8-1.8
		s-1.1-0.7-1.8-0.6c-0.7,0-1.3,0.3-1.8,0.8c-0.6,0.5-0.8,1.1-0.8,1.8C82.2,99.4,82.5,100,83.1,100.4z"/>
	<path class="st1" d="M103.3,104.2c-0.7-0.8-1.4-1.3-2.3-1.8c-0.9-0.4-1.8-0.7-2.8-0.8c-2.1-0.2-3.9,0.4-5.5,1.6
		c-1.6,1.3-2.5,3-2.7,5.3c-0.2,2.3,0.4,4.2,1.7,5.8c1.4,1.6,3.1,2.5,5.2,2.6c1.5,0.1,2.9-0.2,4.2-0.9c1.3-0.7,2.3-1.8,3-3.2
		l-3.8-0.3l-0.3,0.3c-0.2,0.2-0.6,0.4-1.1,0.6s-1.1,0.2-1.7,0.2c-0.9-0.1-1.7-0.4-2.4-1s-1.1-1.4-1.2-2.5l11,1
		c0.4-1.4,0.4-2.8,0.1-4S104,104.9,103.3,104.2z M94.3,107.1c0.4-0.8,0.9-1.3,1.6-1.7c0.7-0.4,1.4-0.5,2.2-0.5
		c1.7,0.1,2.7,1.1,3,2.8L94.3,107.1z"/>
	<path class="st1" d="M17.6,76.7l-1.5,0.1l0.1,1c0.4,0.1,0.7,0.2,1.1,0.3c0-0.2,0.1-0.3,0.3-0.4C17.6,77.4,17.6,77.1,17.6,76.7
		C17.6,76.7,17.6,76.7,17.6,76.7z"/>
	<path class="st1" d="M17.2,97.9l3.8-0.2L20.6,90l2.5-0.1l4.9,7.5l4.5-0.2L27,89c1.1-0.6,2-1.5,2.6-2.6c0.6-1.1,0.9-2.4,0.9-3.8
		c-0.1-2-0.8-3.5-2.1-4.6c-1.3-1.1-2.9-1.6-4.7-1.5l-4,0.2c0,0.5-0.1,1-0.2,1.5c-0.1,0.1-0.1,0.3-0.1,0.5c0,0.6-0.5,1.2-1.2,1.2
		c-0.5,0-1-0.4-1.1-0.9c-0.3-0.1-0.6-0.2-0.9-0.3L17.2,97.9z M23.4,80.2c0.9,0,1.6,0.2,2.1,0.6c0.5,0.5,0.8,1.1,0.9,2
		c0,0.9-0.2,1.6-0.7,2.2c-0.5,0.6-1.2,0.9-2,1l-3.3,0.2l-0.3-5.8L23.4,80.2z"/>
	<path class="st2" d="M14.5,78.2c0.6,0.1,1.1,0.3,1.7,0.5c0.3,0.1,0.6,0.2,0.9,0.3c0.1,0,0.2,0.1,0.3,0.1c0.3,0.1,0.5-0.1,0.5-0.4
		c0.1,0.1,0.2,0.1,0.4,0.1c0.1,0.3,0.7,0.4,0.8,0c0.1-0.2,0.1-0.4,0.1-0.6c0.1-0.5,0.2-1,0.2-1.5c0-0.1,0-0.2,0-0.3
		c0-0.5-0.8-0.5-0.8,0c0.1-6.5,0.2-30.5,0.3-36.9c0-0.1,0-0.2-0.1-0.3c0-15.6,0.1-29.3,0.1-36.1c0-1.7-0.8-1.7-0.9,0
		c-0.1,10.3-0.1,33.1-0.2,55.9c-0.1,6.9-0.1,13.8-0.2,17.8c0,0,0,0.1,0,0.1c0,0.3,0,0.6,0,0.9c0,0,0,0,0,0c0,0.3,0,0.5,0,0.8
		l-0.1-0.1c-0.2-0.1-0.3-0.1-0.5-0.2c-0.3-0.1-0.7-0.2-1.1-0.3c-0.5-0.1-1-0.3-1.4-0.4C14.2,77.3,13.9,78.1,14.5,78.2z"/>
	<path class="st2" d="M85.5,76.6c0.1,0.1,0.2,0.1,0.3,0.1c0.3,0,0.5-0.2,0.5-0.4c0.1,0,0.2,0.1,0.3,0c0.2,0.3,0.7,0.3,0.8-0.1
		c0-0.1,0-0.3,0.1-0.4c0.1-0.4,0.1-0.9,0.2-1.3c0-0.2,0-0.3-0.1-0.4c0,0,0,0,0,0l0,0C87.4,74,87.2,73.9,87,74
		c0.1-3.8,0.1-14.7,0.1-23.7c0-20.6,0-41-0.1-49.3c0-1.7-0.9-1.7-0.9,0c0.1,7.1,0.1,21.4,0.1,37.5c-0.1,0.1-0.1,0.2-0.1,0.3
		c0.1,2.1,0.1,6.2,0.1,10.9c0,3.1,0,6.1,0,9.2c0,6.1-0.1,12-0.1,15.5c0,0.4,0,0.7,0,1c0,0.1,0,0.2,0,0.3H86c0,0-0.1,0-0.1,0
		c-0.1,0-0.1,0-0.2,0c-0.4-0.1-0.8-0.1-1.3-0.2c0,0,0,0,0,0c-0.1,0-0.3-0.1-0.4-0.1c-0.5-0.1-0.8,0.7-0.2,0.8
		c0.3,0.1,0.6,0.1,0.9,0.2c0.2,0,0.5,0.1,0.7,0.1C85.4,76.5,85.4,76.5,85.5,76.6C85.5,76.6,85.5,76.6,85.5,76.6z"/>
	<path class="st1" d="M79.9,117l-1.6-2.6l-0.2,0.1c-0.2,0.1-0.4,0.2-0.7,0.3c-0.3,0.1-0.6,0.2-0.8,0.2c-0.5,0-1-0.1-1.4-0.5
		c-0.4-0.3-0.6-0.7-0.6-1.2l-0.4-6.7l3.8-0.2l-0.2-3.2l-3.8,0.2l-0.2-4.5l-3.6,0.2l0.2,3c0,0.5-0.1,1-0.4,1.3s-0.7,0.5-1.2,0.5
		l-1.5,0.1l0.2,2.9l3-0.2l0.4,7c0.1,1.5,0.7,2.7,1.8,3.5c1.1,0.9,2.4,1.3,3.9,1.2c0.7,0,1.3-0.2,1.9-0.4c0.6-0.3,1-0.5,1.2-0.6
		C79.7,117.3,79.8,117.1,79.9,117z"/>
	<path class="st1" d="M100,98.9c0.5,0.1,0.9,0,1.3-0.2c0.3-0.2,0.5-0.6,0.6-1c0-0.3-0.1-0.6-0.2-0.9c-0.1-0.3-0.3-0.5-0.6-0.6
		c0.2-0.1,0.4-0.2,0.7-0.4c0.2-0.1,0.3-0.4,0.3-0.6c0.1-0.4,0-0.7-0.3-1c-0.2-0.3-0.6-0.4-1-0.5c-0.4-0.1-0.8,0-1.1,0.2
		c-0.4,0.2-0.5,0.5-0.6,0.9c0,0.3,0,0.5,0.1,0.7c0.2,0.2,0.3,0.4,0.5,0.5c-0.3,0.1-0.6,0.2-0.8,0.4c-0.2,0.2-0.4,0.5-0.4,0.8
		c-0.1,0.4,0,0.8,0.3,1.1S99.5,98.8,100,98.9z M99.6,94.8c0-0.2,0.1-0.4,0.3-0.5c0.1-0.1,0.4-0.1,0.6-0.1c0.3,0,0.5,0.1,0.6,0.3
		c0.1,0.2,0.2,0.4,0.1,0.6c0,0.2-0.1,0.4-0.3,0.5c-0.2,0.1-0.4,0.1-0.6,0.1s-0.4-0.1-0.5-0.3C99.6,95.2,99.6,95,99.6,94.8z
		 M99.4,96.7c0.2-0.2,0.5-0.2,0.8-0.2c0.3,0.1,0.5,0.2,0.7,0.4s0.2,0.4,0.2,0.7s-0.2,0.5-0.4,0.6c-0.3,0.1-0.5,0.1-0.8,0.1
		c-0.2-0.1-0.5-0.2-0.7-0.3C99,97.8,99,97.6,99,97.3C99.1,97.1,99.2,96.9,99.4,96.7z"/>
	<polygon class="st1" points="105,97 105.2,95.5 104.6,95.4 104.4,96.9 103,96.7 102.9,97.3 104.3,97.5 104.1,99 104.7,99.1 
		104.9,97.6 106.3,97.8 106.4,97.2 	"/>
</g>
</svg>
