<?xml version="1.0" encoding="utf-8"?>
<!-- Generator: Adobe Illustrator 22.1.0, SVG Export Plug-In . SVG Version: 6.00 Build 0)  -->
<svg version="1.1" id="Laag_1" xmlns="http://www.w3.org/2000/svg" xmlns:xlink="http://www.w3.org/1999/xlink" x="0px" y="0px"
	 width="61px" height="85px" viewBox="0 0 61 85" style="enable-background:new 0 0 61 85;" xml:space="preserve">
<style type="text/css">
	.st0{fill:#FFFFFF;}
</style>
<g>
	<polygon class="st0" points="37.6,84 45.1,79.9 45.1,55.5 37.6,51.4 30.1,55.5 37.6,59.6 	"/>
	<polygon class="st0" points="22.5,75.8 30.1,79.9 30.1,55.5 30.1,31.1 22.5,35.2 	"/>
	<polygon class="st0" points="30.1,23 7.5,10.8 0,14.9 15,23 15,23 15,23 22.5,27.1 	"/>
	<polygon class="st0" points="7.5,27 7.5,67.7 15,63.6 15,23 15,23 	"/>
	<path class="st0" d="M37.6,27l-7.5,4.1c0,0,12.1,4.3,7.5,20.2l7.5-4C49.8,31.3,37.6,27,37.6,27z"/>
	<polygon class="st0" points="2,6.7 3.3,6.7 3.3,1.2 5.1,1.2 5.1,0 0.2,0 0.2,1.2 2,1.2 	"/>
	<polygon class="st0" points="8,3.9 10.6,3.9 10.6,6.7 11.9,6.7 11.9,0 10.6,0 10.6,2.7 8,2.7 8,0 6.7,0 6.7,6.7 8,6.7 	"/>
	<polygon class="st0" points="18.7,5.5 15.4,5.5 15.4,3.9 18.3,3.9 18.3,2.7 15.4,2.7 15.4,1.2 18.6,1.2 18.6,0 14.2,0 14.2,6.7 
		18.7,6.7 	"/>
	<path class="st0" d="M22.2,5.2h2.5L25,6.7h1.4L24.2,0h-1.7l-2.2,6.7h1.4L22.2,5.2z M23.2,1.7h0.2L24.2,4h-1.7L23.2,1.7z"/>
	<polygon class="st0" points="28.7,6.7 30,6.7 30,1.2 31.8,1.2 31.8,0 26.9,0 26.9,1.2 28.7,1.2 	"/>
	<polygon class="st0" points="37.9,5.5 34.6,5.5 34.6,3.9 37.5,3.9 37.5,2.7 34.6,2.7 34.6,1.2 37.8,1.2 37.8,0 33.4,0 33.4,6.7 
		37.9,6.7 	"/>
	<path class="st0" d="M41.2,4.2H42l1.5,2.5h1.4l-1.7-2.6c0.4-0.2,0.7-0.5,0.9-0.8c0.2-0.4,0.3-0.8,0.3-1.2c0-0.6-0.2-1.1-0.6-1.5
		C43.4,0.2,42.9,0,42.3,0H40v6.6h1.2V4.2z M41.2,1.2h1.1c0.3,0,0.5,0,0.7,0.2c0.1,0.1,0.2,0.3,0.2,0.6s-0.1,0.5-0.3,0.7
		S42.5,3,42.2,3h-1V1.2z"/>
	<path class="st0" d="M52.5,10.9v1.2h2.4v0.8l-2.4,1.4v1.4l2.6-1.6c0.2,0.4,0.5,0.7,0.8,0.9c0.4,0.2,0.8,0.3,1.2,0.3
		c0.6,0,1.1-0.2,1.5-0.6c0.4-0.4,0.6-0.9,0.6-1.5v-2.3C59.2,10.9,52.5,10.9,52.5,10.9z M58,13.2c0,0.3,0,0.5-0.2,0.7
		c-0.1,0.1-0.3,0.2-0.6,0.2s-0.5-0.1-0.7-0.3s-0.3-0.4-0.3-0.7v-1H58V13.2z"/>
	<path class="st0" d="M55.8,17c-1,0-1.8,0.4-2.4,1c-0.7,0.6-1,1.4-1,2.3s0.4,1.7,1,2.3c0.7,0.7,1.5,1,2.4,1c1,0,1.8-0.4,2.4-1
		c0.7-0.6,1-1.4,1-2.3s-0.4-1.7-1-2.3C57.6,17.3,56.8,17,55.8,17z M57.3,21.8c-0.4,0.3-0.9,0.5-1.5,0.5s-1.1-0.1-1.5-0.5
		s-0.6-0.8-0.6-1.4s0.2-1,0.6-1.4c0.4-0.4,0.9-0.5,1.5-0.5s1.1,0.1,1.5,0.5s0.6,0.8,0.6,1.4C57.9,21,57.7,21.4,57.3,21.8z"/>
	<polygon class="st0" points="59.1,29.6 59.1,24.8 58,24.8 58,26.6 52.5,26.6 52.5,27.8 58,27.8 58,29.6 	"/>
	<polygon class="st0" points="52.5,34.1 58,34.1 58,35.9 59.1,35.9 59.1,31 58,31 58,32.8 52.5,32.8 	"/>
	<polygon class="st0" points="52.5,42 53.7,42 53.7,38.8 55.3,38.8 55.3,41.6 56.4,41.6 56.4,38.8 58,38.8 58,41.9 59.1,41.9 
		59.1,37.5 52.5,37.5 	"/>
	<path class="st0" d="M52.5,45.4h2.4v0.8l-2.4,1.4V49l2.6-1.6c0.2,0.4,0.5,0.7,0.8,0.9c0.4,0.2,0.8,0.3,1.2,0.3
		c0.6,0,1.1-0.2,1.5-0.6c0.4-0.4,0.6-0.9,0.6-1.5v-2.3h-6.7C52.5,44.2,52.5,45.4,52.5,45.4z M56.2,45.4H58v1.1c0,0.3,0,0.5-0.2,0.7
		c-0.1,0.1-0.3,0.2-0.6,0.2s-0.5-0.1-0.7-0.3s-0.3-0.4-0.3-0.7V45.4z"/>
	<path class="st0" d="M52.5,52.9c0,1,0.3,1.8,0.9,2.4c0.6,0.7,1.4,1,2.4,1s1.8-0.4,2.4-1c0.6-0.7,0.9-1.5,0.9-2.4h0.1v-2.1h-6.7
		C52.5,50.8,52.5,52.9,52.5,52.9z M53.7,52.1h4.1v0.8c0,0.6-0.1,1.1-0.5,1.5S56.4,55,55.8,55s-1.1-0.2-1.5-0.6
		c-0.4-0.4-0.6-0.9-0.6-1.5V52.1z"/>
	<path class="st0" d="M52.5,58.8l1.5,0.5v2.5l-1.5,0.5v1.4l6.7-2.2v-1.7l-6.7-2.2V58.8z M55.1,59.6l2.3,0.8v0.2l-2.3,0.8V59.6z"/>
	<polygon class="st0" points="52.5,66.4 56.5,66.4 53,67.7 53,69.2 56.5,70.5 52.5,70.5 52.5,71.8 59.1,71.8 59.1,70.2 54.4,68.5 
		54.4,68.4 59.1,66.8 59.1,65.1 52.5,65.1 	"/>
</g>
</svg>
