<?xml version="1.0" encoding="utf-8"?>
<!-- Generator: Adobe Illustrator 24.0.0, SVG Export Plug-In . SVG Version: 6.00 Build 0)  -->
<svg version="1.1" id="Laag_1" xmlns="http://www.w3.org/2000/svg" xmlns:xlink="http://www.w3.org/1999/xlink" x="0px" y="0px"
	 width="110.6px" height="64.7px" viewBox="0 0 110.6 64.7" style="enable-background:new 0 0 110.6 64.7;" xml:space="preserve">
<style type="text/css">
	.st0{fill:#1D1D1B;}
</style>
<g>
	<path class="st0" d="M22.4,22c-0.8,0.1-1.4,0.2-2,0.3c-0.2,0-0.4,0.2-0.5,0.3c-0.3,0.3-0.5,0.8-0.3,1c0.2,0.3,0.6,0.3,0.9,0.2
		C21.5,23.6,22.1,23.1,22.4,22 M35.2,22.8c-1-0.1-2-0.3-3-0.4c-0.2,0-0.4,0.2-0.5,0.4c-0.2,0.5,0,1.1,0.4,1.3
		C33.2,24.8,34.7,24.2,35.2,22.8 M66.2,23.7c-0.1-0.1-0.1-0.1-0.1-0.1c-0.7,0.1-1.5,0.3-2.2,0.4c-1.1,0.2-1.2,0.3-1.2,1.4
		c0,0.2,0,0.3,0,0.5c0.1,1,0.7,1.3,1.6,0.8C65.5,26,65.9,24.9,66.2,23.7 M54.9,23.7c0.3-0.1,0.4-0.1,0.6-0.2c1.3-0.7,2.6-0.7,4-0.6
		c0.6,0,1.2,0,1.8,0.1c0.4,0,0.7-0.1,0.9-0.4c0.7-0.8,1.6-1.3,2.6-1.4c0.1,0,0.2,0,0.3,0c0.8-0.4,1.7-0.7,2.4,0.2
		c0.8,0,1.5,0.2,2.3,0.1c1.4-0.2,2.8-0.5,4.1-0.7c0.3-0.1,0.6-0.3,0.8-0.4c0.5-0.3,1-0.7,1.5-1c1-0.5,1.9-0.4,2.6,0.4
		c0.5,0.5,1,1,1.1,1.7c0.2,1-0.2,1.7-0.7,2.4c-0.5,0.7-1.1,1.3-1.9,1.6c-0.5,0.2-1.1,0.3-1.6,0.1c-0.3-0.1-0.5-0.3-0.4-0.7
		c0-0.3,0.3-0.4,0.6-0.4c1.3-0.1,2.5-1.3,2.6-2.6c0-0.5-0.1-1-0.6-1.4c-0.5-0.3-1-0.3-1.5,0c-0.8,0.5-1.2,1.3-1.7,2.1
		c-1.2,2.5-1.7,5.2-2.2,8c-0.5,2.7-1,5.5-1.5,8.2c-0.1,0.6-0.2,0.6-0.5,1.1c-1-0.2-1.3-0.6-1.2-1.6c0.1-1.2,0.2-2.4,0.5-3.5
		c0.9-3.8,1.9-7.6,2.8-11.5c0.1-0.3,0.1-0.6,0.2-0.9c-0.4,0-0.6,0.1-0.9,0.1c-1.2,0.1-2.4,0.2-3.6,0.3c-0.7,0.1-0.7,0.1-0.8,0.8
		c-0.2,1.7-0.9,3.2-2.3,4.2c-0.2,0.1-0.3,0.2-0.5,0.3c-1.9,0.8-2.9-0.2-3.4-1.8c-0.2-0.6-0.1-1.2-0.2-1.9c-1.1-0.2-2.3-0.3-3.5-0.2
		c-0.6,0.1-1.1,0.4-1.7,0.6c-1.2,0.4-1.8,1.1-1.9,2.4c0,0.5-0.2,1-0.3,1.5c-0.1,0.2-0.3,0.5-0.5,0.5c-0.3,0.1-0.7,0.1-0.8-0.3
		c-0.1-0.3-0.3-0.6-0.3-0.9c0-0.6,0-1.2,0.1-1.7c0-0.7,0.2-1.3,0.8-1.8c0.1-0.1,0.2-0.2,0.3-0.3c0.3-0.9,0.5-1.7,0.7-2.6
		c0.6-1.8,1.2-3.6,1.8-5.4c0.2-0.6,0.5-1.2,0.6-1.9c-0.4,0.5-0.9,0.9-1.3,1.4c-1,1.2-1.9,2.4-2.9,3.5c-1.5,1.8-3.1,3.7-4.7,5.4
		c-1.4,1.4-2.9,2.7-4.7,3.5c-0.4,0.2-0.5,0.4-0.5,0.7c-0.3,1.6-0.6,3.1-1,4.7c-0.3,1.2-0.7,2.4-1,3.6c-0.1,0.3-0.2,0.7-0.7,0.6
		c-0.5-0.1-0.8-0.5-0.7-1c0.3-1.3,0.6-2.5,0.8-3.7c0.3-1.3,0.5-2.5,0.7-3.8c0-0.1,0-0.3,0.1-0.4c0.5-2.5,1-5.1,1.6-7.6
		c0.2-0.9,0.4-1.7,0.6-2.5c0-0.1,0-0.3,0-0.5c-1,0.8-2,1.6-3,2.3c-1,0.7-2,1.3-3.1,1.9c-0.1,0.7-0.3,1.5-0.9,2.2
		c-1.5,1.6-3.6,1.5-5.2-0.1c-0.4-0.4-0.4-0.9-0.4-1.5c0-0.2,0.1-0.4,0.1-0.7c-0.5-0.1-0.9-0.2-1.4-0.2c-1.2-0.2-2.4-0.4-3.6-0.6
		c-0.9-0.1-1,0-1.4,0.9c-0.7,1.5-1.7,2.6-3.4,2.8c-1.4,0.2-2.5-0.8-2.4-2.4c-0.7-0.1-1.3,0.3-2,0.4c-0.1-0.3-0.3-0.7-0.5-1.1
		c1.1-0.3,2.1-0.6,3.2-0.7c0.4,0,0.8-0.1,1.1-0.3c0.8-0.4,1.6-0.6,2.5-0.6c0.2,0,0.4,0,0.5,0c1.6-0.3,3.1,0,4.7,0.3
		c0.9,0.1,1.8,0.3,2.8,0.4c0.4,0,0.8,0,1.1-0.1c0.9-0.3,1.9-0.2,2.8,0.1c0.7,0.2,1.2,0.1,1.8-0.1c1.9-0.7,3.4-1.9,4.9-3.1
		c0.7-0.6,1.4-1.3,2-1.9c0.6-0.6,0.9-1.4,1.3-2.2c0.3-0.8,0.8-1.5,1.3-2.2c0.3-0.4,0.7-0.7,1.2-0.9c0.2-0.1,0.6,0,0.8,0.1
		c0.3,0.2,0.3,0.5,0.1,0.9c-0.5,0.9-1,1.8-1.6,2.6c-0.6,0.7-1,1.5-1.2,2.4c-0.6,2.1-1.1,4.1-1.6,6.2c-0.3,1.1-0.5,2.2-0.7,3.3
		c0,0.2,0,0.4-0.1,0.7c0.3-0.1,0.5-0.1,0.6-0.2c0.7-0.4,1.4-0.9,2-1.4c1.9-1.6,3.4-3.4,5-5.3c2.1-2.6,4.2-5.1,6.4-7.7
		c0.9-1,2-1.9,3-2.8c0.1-0.1,0.3-0.2,0.4-0.2c0.2,0,0.6,0.1,0.7,0.2c0.1,0.1,0.2,0.5,0.1,0.7c-0.3,0.5-0.6,1-0.9,1.5
		c-1.4,2.3-2.5,4.8-3.3,7.4c-0.4,1.3-0.8,2.6-1.2,3.9C55,23.1,55,23.4,54.9,23.7"/>
	<path class="st0" d="M4.2,10.2c-0.1,0-0.2,0-0.2-0.1c-1.3,2.1-1.5,4.5-1.7,7C2.9,14.8,3.5,12.5,4.2,10.2 M6.4,21.1
		c0.5-0.5,1-0.8,1.4-1.3c0.7-0.9,1.3-1.8,2-2.8c0.9-1.4,1.7-2.9,2-4.5c0.2-0.9,0.2-1.8,0.2-2.8c0-0.4-0.3-0.8-0.6-1
		c-1.4-1.2-4-1.3-5.6-0.3C6.2,8.9,6.1,9.5,6,10c-0.4,1.4-0.8,2.9-1.2,4.3c-0.3,1.4-0.7,2.8-1,4.2c-0.1,0.6,0,0.8,0.5,1.1
		c0.2,0.1,0.4,0.2,0.6,0.4C5.4,20.3,5.8,20.6,6.4,21.1 M3.2,21.7C3,22.4,2.9,23,2.8,23.6c-0.1,1-0.2,1.9-0.3,2.9
		c0,0.3-0.1,0.6-0.2,0.9c-0.2,0.4-0.5,0.6-1,0.5c-0.5-0.1-0.7-0.3-0.8-0.8C0,24.5-0.1,21.8,0.2,19c0.2-2.1,0.4-4.2,0.9-6.2
		c0.3-1.1,0.6-2.3,1.2-3.3c1.4-2.3,3.4-3.2,6-3.1c1,0,2,0.1,2.9,0.5c1,0.4,1.8,1.1,2.3,2c0.5,0.9,0.4,1.9,0.3,2.8
		c-0.4,2.3-1.2,4.4-2.6,6.4c-1,1.6-2.2,3-3.7,4.2C8.2,23.2,9,24,9.9,24.7c1.2,0.9,2.3,1.8,3.5,2.6c1.4,0.9,3,1.7,4.7,2.1
		c0.9,0.2,1.8,0.4,2.7,0.5c1.7,0.1,3.4-0.1,4.8-1.2c0.3-0.2,0.7-0.3,1.1-0.3c0.2,0,0.5,0.1,0.5,0.2c0.1,0.2,0.1,0.5,0,0.7
		c-0.4,0.6-0.9,1-1.5,1.3c-2.5,1.1-5,1.2-7.6,0.5c-2.9-0.8-5.4-2.3-7.8-4.1c-1.4-1-2.7-2.2-3.9-3.4c-0.4-0.4-0.8-0.7-1.4-0.7
		c-0.4,0-0.8-0.3-1.2-0.5C3.7,22.2,3.5,22,3.2,21.7"/>
	<path class="st0" d="M56.3,42.2c-1-0.2-1.9-0.3-2.9-0.4c-0.5-0.1-0.8,0.3-1.1,0.7c-0.4,0.9-0.4,1.7-0.1,2.6c0.3,0.9,1,1.1,1.8,0.6
		C55.3,45,55.9,43.7,56.3,42.2 M64.4,49.1c-0.4,0.4-0.7,0.6-1,1c-1.5,1.6-2.7,3.4-3.5,5.4c-0.7,1.7-1,3.5-0.8,5.4
		c0.1,0.7,0.4,1.4,0.8,2c0.6,0.8,1.4,0.9,2.2,0.2c0.1-0.1,0.3-0.3,0.4-0.5c0.9-1.2,1.3-2.5,1.6-3.9c0.5-3,0.5-6,0.5-9.1
		C64.5,49.5,64.4,49.4,64.4,49.1 M51.1,41.6c-3.9-0.2-7.6,0.3-11.5,0.6c0,0.5,0,0.9,0,1.2c0.1,1.5-0.2,2.8-0.8,4.2
		c-0.3,0.8-0.8,0.9-1.3,0.2c-0.3-0.4-0.4-0.8-0.5-1.3c-0.1-0.7,0-1.5-0.1-2.3c0-0.4,0-0.7,0-1.1c-0.1,0-0.1,0-0.2-0.1
		c-0.2,0.2-0.4,0.4-0.5,0.6c-0.8,1.1-1.4,2.4-1.9,3.6c-0.2,0.7-0.5,1.4-1.1,1.8c-0.9-0.3-1.1-0.8-0.7-1.5c0.6-1.3,1.2-2.5,1.8-3.8
		c0.5-1.1,1.4-1.9,2.4-2.6c0.8-0.6,1.4-0.8,2.4-0.5c0.7,0.2,1.5,0.1,2.3,0c3-0.3,6-0.6,9-0.5c0.4,0,0.9,0.1,1.3,0.1
		c0.5,0,1-0.1,1.5-0.1c0.3,0,0.6-0.1,0.9-0.1c0.7,0.1,1.2,0,1.7-0.6c0.4-0.5,1-0.4,1.5,0c0.2,0.2,0.3,0.4,0.4,0.5
		c1.9,0.2,3.7,0.3,5.5,0.4c0.7,0,1.3,0,2,0.1c0.7,0.1,1,0.4,0.9,1.1c-0.1,1.1-0.2,2.1-0.2,3.2c0,0.4,0.1,0.7,0.2,1.2
		c0.2,0,0.3,0,0.4-0.1c0.8-0.5,1.7-1,2.5-1.6c0.2-0.2,0.5-0.4,0.6-0.6c1.2-2.3,3.1-3.6,5.5-4.5c0.9-0.3,1.5-0.2,2,0.5
		c-0.5,1.1-1.4,1.9-2.4,2.6c-1.1,0.8-2.2,1.5-3.4,2.2c-0.8,0.5-1,1.3-0.5,2.1c0.4,0.6,1,1,1.6,1.3c1.8,0.7,3.6,0.7,5.4,0.4
		c0.8-0.1,1.6-0.4,1.8-1.4c0.1-0.4,0.7-0.4,0.9,0c0.2,0.3,0.4,0.7,0.1,1.1c-0.3,0.5-0.7,0.9-1.3,1.2c-1.3,0.6-2.6,0.7-4,0.6
		c-1.3-0.1-2.6-0.2-3.7-0.8c-1.1-0.6-2.2-1.3-2.6-2.6c0-0.1-0.1-0.2-0.2-0.3c-0.2,0.1-0.4,0.1-0.6,0.2c-0.7,0.4-1.4,0.9-2.2,1.3
		c-0.3,0.2-0.5,0.4-0.5,0.8c0.1,0.7,0.1,1.5,0.1,2.2c0,0.6,0,1.2-0.1,1.8c-0.1,1.8-0.1,3.7-0.3,5.5c-0.2,2-0.8,3.9-2.2,5.5
		c-1.2,1.3-2.4,1.4-3.8,0.3c-1.1-0.9-1.6-2-1.8-3.4c-0.3-1.8,0.1-3.6,0.8-5.3c1.1-3,3.1-5.4,5.4-7.5c0.4-0.4,0.6-0.8,0.6-1.4
		c0-1.3,0-2.6,0-3.8c0-0.2-0.1-0.4-0.1-0.6c-1.9-0.1-3.8-0.3-5.6-0.4c-0.9,0-0.9,0-1.1,0.9c-0.4,1.8-1.1,3.4-2.8,4.3
		c-0.4,0.2-0.9,0.5-1.4,0.5c-0.6-0.1-1.2-0.4-1.6-0.7c-1.1-0.8-1.3-2-1.2-3.2C50.7,42.8,50.9,42.2,51.1,41.6"/>
	<path class="st0" d="M94.4,43.9c2.8,0,5.5,0,8.2,0.1c2.7,0.1,5.3,0,8,0c0,0.6-0.3,0.8-0.7,0.8c-1.4,0.2-2.7,0.5-4.1,0.5
		c-3.8,0-7.6,0-11.4-0.1c-0.1,0-0.3,0-0.4,0c-0.4,1.1-0.4,2.3-0.9,3.4c-1.1-0.2-1.1-0.3-1.3-1.2c-0.1-0.4-0.1-0.8-0.2-1.2
		c0-0.1-0.1-0.2-0.2-0.3c-0.3,0.5-0.6,0.9-0.9,1.3c-0.9,1.2-1.8,2.3-3.2,2.9c-1.7,0.8-3.2-0.2-3.5-1.6c-0.1-0.5-0.2-0.9-0.1-1.4
		c0.1-1.6,0.6-3,1.4-4.4c0.6-1,1.4-1.6,2.4-2.1c0.1,0,0.2-0.1,0.3-0.1c0.4-0.1,0.8,0.1,0.9,0.4c0.2,0.4-0.1,0.7-0.4,0.9
		c-0.3,0.2-0.7,0.4-1,0.6c-0.4,0.4-0.9,0.8-1.2,1.2c-0.8,1.3-1.2,2.7-1.1,4.2c0,0.2,0.1,0.5,0.1,0.7c0.1,0.4,0.4,0.6,0.8,0.5
		c0.4-0.1,0.8-0.3,1.1-0.5c1.4-1,2.4-2.3,3.2-3.9c0.1-0.2,0.1-0.4,0.1-0.7c-0.1-0.4,0.1-0.7,0.5-0.8c0.4-0.1,0.5-0.4,0.7-0.7
		c1.1-2.4,2.2-4.8,3.3-7.2c0.8-1.8,1.8-3.6,2.7-5.4c0.2-0.4,0.5-0.7,0.7-1c0.3-0.4,0.6-0.4,1-0.2c0.4,0.1,0.5,0.5,0.3,1
		c0,0.1-0.1,0.3-0.1,0.4c-0.8,2-1.7,4-2.4,6c-0.9,2.4-1.7,4.9-2.5,7.4C94.5,43.4,94.5,43.5,94.4,43.9"/>
	<path class="st0" d="M28.5,38.7c1.9-0.2,4.7-4.4,4.4-6.8c-0.5,0.2-1,0.3-1.4,0.5c-0.6,0.3-1.2,0.8-1.8,1.1
		c-0.6,0.3-0.8,0.7-0.8,1.3c-0.1,1.2-0.3,2.3-0.4,3.5C28.5,38.4,28.5,38.6,28.5,38.7 M28.2,40.4c-0.1,1.1-0.2,2.1-0.3,3
		c-0.2,2.5-0.5,5.1-0.8,7.6c-0.1,0.7-0.4,1.1-0.8,1.1c-0.5,0-1.1-0.7-1.1-1.2c0-0.2,0-0.3,0-0.5c0.2-1.8,0.4-3.5,0.6-5.3
		c0.1-0.9,0.2-1.9,0.3-2.8c0-0.3,0-0.6,0.1-1c0-0.5,0.2-1,0.1-1.5c-0.1-0.4-0.5-0.8-0.8-1.2c0.3-0.2,0.6-0.3,1-0.5
		c0.1-0.6,0.2-1.4,0.3-2.1c-0.4-0.4-0.8-0.7-1.1-1.1c1.2-1.9,2.7-3.1,4.6-3.9c0.6-0.2,1.2-0.6,1.8-0.7c0.9-0.2,1.7-0.1,2.5,0.5
		c0.5,0.4,0.7,0.8,0.6,1.4c-0.2,1.4-0.7,2.7-1.4,3.9c-0.4,0.6-0.8,1.2-1.3,1.8C31.4,39.4,30.2,40.5,28.2,40.4"/>
	<path class="st0" d="M67.1,34.2c0.8,0,1,0.2,0.7,0.8c-0.1,0.2-0.3,0.4-0.4,0.6c-0.1,0.3-0.4,0.4-0.6,0.3c-0.3-0.1-0.6-0.2-0.7-0.6
		c-0.1-0.3,0.1-0.6,0.3-0.7C66.7,34.4,66.9,34.3,67.1,34.2"/>
	<path class="st0" d="M91.8,0.1L96.9,8h0V0.1h1.2v9.7h-1.4L91.7,2h0v7.8h-1.2V0.1H91.8z M89.4,0.1v1.1h-5.4v3.1h5v1.1h-5v3.4h5.5
		v1.1h-6.7V0.1H89.4z M76.8,0.1v8.6H82v1.1h-6.4V0.1H76.8z M71.4,4.5c0.3,0,0.5-0.1,0.7-0.3c0.2-0.1,0.4-0.3,0.5-0.5
		c0.1-0.2,0.2-0.5,0.2-0.9c0-0.5-0.1-0.9-0.4-1.2c-0.3-0.3-0.7-0.5-1.3-0.5h-3.2v3.4h2.7C70.9,4.6,71.1,4.6,71.4,4.5 M71.1,0.1
		c0.9,0,1.6,0.2,2.2,0.7c0.5,0.5,0.8,1.1,0.8,1.9c0,0.6-0.1,1.1-0.4,1.6c-0.3,0.4-0.7,0.7-1.3,0.9v0c0.3,0.1,0.5,0.1,0.7,0.3
		c0.2,0.1,0.3,0.3,0.4,0.5c0.1,0.2,0.2,0.4,0.2,0.6c0,0.2,0.1,0.4,0.1,0.7c0,0.2,0,0.5,0,0.7c0,0.2,0,0.5,0.1,0.7
		c0,0.2,0.1,0.5,0.2,0.7c0.1,0.2,0.2,0.4,0.3,0.6H73c-0.1-0.1-0.2-0.2-0.2-0.4c0-0.2-0.1-0.4-0.1-0.6c0-0.2,0-0.4,0-0.7
		c0-0.2,0-0.5-0.1-0.7c0-0.2-0.1-0.5-0.1-0.7c-0.1-0.2-0.1-0.4-0.3-0.6C72.1,6,72,5.9,71.8,5.8c-0.2-0.1-0.4-0.1-0.8-0.1h-3.2v4.1
		h-1.3V0.1H71.1z M65.5,0.1v1.1h-5.4v3.1h5v1.1h-5v3.4h5.5v1.1h-6.7V0.1H65.5z M57.7,0.1v1.1h-5.4v3.1h5v1.1h-5v3.4h5.5v1.1H51V0.1
		H57.7z M42.9,0.1v4.2H48V0.1h1.3v9.7H48V5.4h-5.1v4.4h-1.3V0.1H42.9z M36.5,0.1v1.1h-5.4v3.1h5v1.1h-5v3.4h5.5v1.1h-6.7V0.1H36.5z
		 M21.7,0.1v4.2h5.1V0.1h1.3v9.7h-1.3V5.4h-5.1v4.4h-1.3V0.1H21.7z M11.9,1.2V0.1h7.8v1.1h-3.2v8.6h-1.3V1.2H11.9z"/>
</g>
</svg>
