<?xml version="1.0" encoding="utf-8"?>
<!-- Generator: Adobe Illustrator 24.0.0, SVG Export Plug-In . SVG Version: 6.00 Build 0)  -->
<svg version="1.1" id="Laag_1" xmlns="http://www.w3.org/2000/svg" xmlns:xlink="http://www.w3.org/1999/xlink" x="0px" y="0px"
	 width="130.6px" height="58.9px" viewBox="0 0 130.6 58.9" style="enable-background:new 0 0 130.6 58.9;" xml:space="preserve">
<style type="text/css">
	.st0{fill:#1D1D1B;}
</style>
<g>
	<path class="st0" d="M19.6,26.1c-1.9,1.8-4.6,2.7-8.1,2.7C7.9,28.8,5,28,3,26.3c-2-1.7-3-4.4-3-8.1V0.3h3.7v17.8
		c0,2.5,0.7,4.4,2,5.7c1.3,1.3,3.2,1.9,5.7,1.9c2.4,0,4.2-0.6,5.4-1.9c1.2-1.3,1.9-3.2,1.9-5.7V0.3h3.7v17.8
		C22.4,21.7,21.5,24.4,19.6,26.1z"/>
	<path class="st0" d="M29.8,0.3v27.9h-3.7V0.3H29.8z"/>
	<path class="st0" d="M30.7,3.4V0.3H53v3.1h-9.3v24.8H40V3.4H30.7z"/>
	<path class="st0" d="M75.6,24c-0.3,0.9-0.7,1.7-1.4,2.4c-0.6,0.7-1.5,1.3-2.5,1.7c-1.1,0.4-2.4,0.6-3.9,0.6c-2.6,0-4.6-0.7-6-2.1
		s-2.1-3.4-2.1-6V19h3.7v1.2c0,0.8,0.1,1.5,0.2,2.2c0.1,0.7,0.4,1.3,0.7,1.8c0.3,0.5,0.8,0.9,1.4,1.2s1.3,0.4,2.2,0.4
		c1.7,0,2.9-0.5,3.5-1.4c0.6-0.9,1-2.1,1-3.7V0.3H76v20.9C76,22.2,75.9,23.1,75.6,24z"/>
	<path class="st0" d="M99,0.3v3.1H83.4v8.9h14.5v3.1H83.4v9.6h15.7v3.1H79.7V0.3H99z"/>
</g>
<g>
	<path class="st0" d="M111.7,31V45L125.8,31h4.8l-11.8,11.2l12.2,16.6h-4.7l-10.1-14.1l-4.6,4.3v9.8H108V31H111.7z"/>
</g>
<g>
	<path class="st0" d="M96.5,31l10.9,27.9h-4.1l-3-8.4H88.5l-3.1,8.4h-3.8L92.4,31H96.5z M99.1,47.4l-4.6-13h-0.1l-4.7,13H99.1z"/>
</g>
<g>
	<path class="st0" d="M70.2,31c4.3,0,7.6,1.1,9.9,3.3c2.3,2.2,3.5,5.5,3.5,10c0,2.3-0.3,4.4-0.8,6.2c-0.5,1.8-1.3,3.3-2.4,4.6
		c-1.1,1.2-2.5,2.2-4.2,2.8c-1.7,0.7-3.7,1-6,1h-9.6V31H70.2z M70.5,55.8c0.4,0,0.9,0,1.6-0.1c0.6-0.1,1.3-0.2,2-0.5
		c0.7-0.2,1.4-0.6,2.1-1.1c0.7-0.5,1.3-1.1,1.9-1.9c0.5-0.8,1-1.8,1.3-3s0.5-2.7,0.5-4.4c0-1.7-0.2-3.2-0.5-4.5
		c-0.3-1.3-0.9-2.4-1.6-3.4c-0.7-0.9-1.7-1.6-2.9-2.1c-1.2-0.5-2.6-0.7-4.3-0.7h-6.2v21.6H70.5z"/>
</g>
</svg>
