<?xml version="1.0" encoding="utf-8"?>
<!-- Generator: Adobe Illustrator 24.3.0, SVG Export Plug-In . SVG Version: 6.00 Build 0)  -->
<svg version="1.1" id="Laag_1" xmlns="http://www.w3.org/2000/svg" xmlns:xlink="http://www.w3.org/1999/xlink" x="0px" y="0px"
	 width="190.7px" height="54.4px" viewBox="0 0 190.7 54.4" style="enable-background:new 0 0 190.7 54.4;" xml:space="preserve">
<style type="text/css">
	.st0{fill:#FFFFFF;}
</style>
<g>
	<path class="st0" d="M50.5,54.4h11.3l6.6-27h0.3l6.6,27h11.3l7.7-41.5h-8l-5.6,30.8h-0.2l-6.8-27.9H63.4l-6.8,27.9h-0.3l-5.5-30.6
		l0-0.2h-8.1l7.7,41.3L50.5,54.4z M50.5,13.3L56,44l0,0.2h1l6.8-27.9h9.5l6.8,27.9h1l5.6-30.8h7.1l-7.5,40.6H75.6L69,27h-1l-6.6,27
		H50.9l-7.6-40.6H50.5z"/>
	<path class="st0" d="M129.1,33.8h-20v-9.7h16.8v-7.3h-16.8V7.7h19.5V0h-27.6v41.5h28.2V33.8z M128.7,41h-27.3V0.5h26.7v6.8h-19.5
		v10.1h16.8v6.4h-16.8v10.6h20V41z"/>
</g>
</svg>
