<?xml version="1.0" encoding="utf-8"?>
<!-- Generator: Adobe Illustrator 24.0.0, SVG Export Plug-In . SVG Version: 6.00 Build 0)  -->
<svg version="1.1" id="Laag_1" xmlns="http://www.w3.org/2000/svg" xmlns:xlink="http://www.w3.org/1999/xlink" x="0px" y="0px"
	 width="147.4px" height="16.6px" viewBox="0 0 147.4 16.6" style="enable-background:new 0 0 147.4 16.6;" xml:space="preserve">
<style type="text/css">
	.st0{fill:#FFFFFF;}
</style>
<g>
	<path class="st0" d="M8.2,3.1H6.4C6.1,2.3,5.5,1.8,4.3,1.8C2.9,1.8,1.9,3,1.9,4.6c0,1.6,1,2.8,2.5,2.8c1.2,0,2-0.6,2.1-1.6h-2V4.3
		h3.8V5c0,2.5-1.6,4-3.9,4c-2.5,0-4.2-1.8-4.2-4.4c0-2.5,1.7-4.3,4.2-4.3C6.5,0.2,7.8,1.4,8.2,3.1z"/>
	<path class="st0" d="M15,6.2h-4.2c0,0.8,0.6,1.4,1.5,1.4c0.6,0,1.1-0.2,1.2-0.7H15c-0.4,1.3-1.3,2-2.8,2c-1.8,0-3-1.2-3-3.2
		c0-1.8,1.2-3.2,3-3.2c1.6,0,2.8,1,2.8,3.2V6.2z M13.4,5.2c0-0.8-0.5-1.3-1.3-1.3c-0.8,0-1.3,0.5-1.4,1.3H13.4z"/>
	<path class="st0" d="M21.3,4.8v3.9h-1.5V5.2c0-0.7-0.3-1.1-0.9-1.1c-0.6,0-1.1,0.5-1.1,1.5v3.2h-1.5V2.7h1.3l0.1,0.8
		c0.3-0.5,0.8-0.9,1.6-0.9C20.6,2.6,21.3,3.5,21.3,4.8z"/>
	<path class="st0" d="M24.6,0.9c0,0.5-0.4,0.9-0.9,0.9c-0.5,0-0.9-0.4-0.9-0.9c0-0.5,0.4-0.9,0.9-0.9C24.1,0,24.6,0.4,24.6,0.9z
		 M22.8,8.8V2.7h1.5v6.1H22.8z"/>
	<path class="st0" d="M31.4,6.2h-4.2c0,0.8,0.6,1.4,1.5,1.4c0.6,0,1.1-0.2,1.2-0.7h1.5c-0.4,1.3-1.3,2-2.8,2c-1.8,0-3-1.2-3-3.2
		c0-1.8,1.2-3.2,3-3.2c1.6,0,2.8,1,2.8,3.2V6.2z M29.9,5.2c0-0.8-0.5-1.3-1.3-1.3c-0.8,0-1.3,0.5-1.4,1.3H29.9z"/>
	<path class="st0" d="M36,2.7v1.4h-1.4l0,2.5c0,0.6,0.2,0.9,0.8,0.9c0.3,0,0.5,0,0.6-0.1v1.4c-0.2,0.1-0.5,0.1-1,0.1
		c-1.3,0-2-0.5-2-1.9l0-2.8h-1V2.7h1l0-1.5h1.6l0,1.5H36z"/>
	<path class="st0" d="M48,4.8v3.9h-1.5V5.2c0-0.7-0.3-1.1-0.9-1.1c-0.6,0-1.1,0.5-1.1,1.5v3.2H43V5.2c0-0.7-0.3-1.1-0.9-1.1
		c-0.6,0-1.1,0.5-1.1,1.5v3.2h-1.5V2.7h1.3L41,3.5c0.3-0.5,0.8-0.9,1.6-0.9c0.9,0,1.5,0.4,1.7,1.1c0.3-0.6,0.9-1.1,1.8-1.1
		C47.4,2.6,48,3.5,48,4.8z"/>
	<path class="st0" d="M55,6.2h-4.2c0,0.8,0.6,1.4,1.5,1.4c0.6,0,1.1-0.2,1.2-0.7h1.5c-0.4,1.3-1.3,2-2.8,2c-1.8,0-3-1.2-3-3.2
		c0-1.8,1.2-3.2,3-3.2c1.6,0,2.8,1,2.8,3.2V6.2z M53.4,5.2c0-0.8-0.5-1.3-1.3-1.3c-0.8,0-1.3,0.5-1.4,1.3H53.4z"/>
	<path class="st0" d="M59.5,2.7v1.4h-1.4l0,2.5c0,0.6,0.2,0.9,0.8,0.9c0.3,0,0.5,0,0.6-0.1v1.4c-0.2,0.1-0.5,0.1-1,0.1
		c-1.3,0-2-0.5-2-1.9l0-2.8h-1V2.7h1l0-1.5h1.6l0,1.5H59.5z"/>
	<path class="st0" d="M66.2,2.6c1.3,0,2,0.9,2,2.3v3.9h-1.5V5.2c0-0.7-0.3-1.1-0.9-1.1c-0.6,0-1.1,0.5-1.1,1.5v3.2h-1.5V0h1.5v3.3
		C64.9,3,65.4,2.6,66.2,2.6z"/>
	<path class="st0" d="M75.1,6.2h-4.2c0,0.8,0.6,1.4,1.5,1.4c0.6,0,1.1-0.2,1.2-0.7H75c-0.4,1.3-1.3,2-2.8,2c-1.8,0-3-1.2-3-3.2
		c0-1.8,1.2-3.2,3-3.2c1.6,0,2.8,1,2.8,3.2V6.2z M73.5,5.2c0-0.8-0.5-1.3-1.3-1.3c-0.8,0-1.3,0.5-1.4,1.3H73.5z"/>
	<path class="st0" d="M79.6,2.7v1.4h-1.4l0,2.5c0,0.6,0.2,0.9,0.8,0.9c0.3,0,0.5,0,0.6-0.1v1.4c-0.2,0.1-0.5,0.1-1,0.1
		c-1.3,0-2-0.5-2-1.9l0-2.8h-1V2.7h1l0-1.5h1.6l0,1.5H79.6z"/>
	<path class="st0" d="M86.3,2.6c1.3,0,2,0.9,2,2.3v3.9h-1.5V5.2c0-0.7-0.3-1.1-0.9-1.1c-0.6,0-1.1,0.5-1.1,1.5v3.2h-1.5V0h1.5v3.3
		C85,3,85.5,2.6,86.3,2.6z"/>
	<path class="st0" d="M95.2,6.2h-4.2c0,0.8,0.6,1.4,1.5,1.4c0.6,0,1.1-0.2,1.2-0.7h1.5c-0.4,1.3-1.3,2-2.8,2c-1.8,0-3-1.2-3-3.2
		c0-1.8,1.2-3.2,3-3.2c1.6,0,2.8,1,2.8,3.2V6.2z M93.6,5.2c0-0.8-0.5-1.3-1.3-1.3c-0.8,0-1.3,0.5-1.4,1.3H93.6z"/>
	<path class="st0" d="M96.4,8.8V0H98v8.8H96.4z"/>
	<path class="st0" d="M105,6.2h-4.2c0,0.8,0.6,1.4,1.5,1.4c0.6,0,1.1-0.2,1.2-0.7h1.5c-0.4,1.3-1.3,2-2.8,2c-1.8,0-3-1.2-3-3.2
		c0-1.8,1.2-3.2,3-3.2c1.6,0,2.8,1,2.8,3.2V6.2z M103.4,5.2c0-0.8-0.5-1.3-1.3-1.3c-0.8,0-1.3,0.5-1.4,1.3H103.4z"/>
	<path class="st0" d="M114,4h-0.9c0.1,0.2,0.1,0.5,0.1,0.7c0,1.2-1,2.1-2.4,2.1c-0.4,0-0.7-0.1-1-0.2c-0.1,0.1-0.2,0.3-0.2,0.4
		c0,0.3,0.2,0.5,0.6,0.5h1.4c1.2,0,2,0.6,2,1.8c0,1.4-1.1,2.1-2.7,2.1c-1.8,0-2.8-0.7-2.8-1.9c0-0.5,0.3-0.9,0.6-1.1
		c-0.4-0.3-0.7-0.7-0.7-1.3s0.3-1,0.6-1.3c-0.3-0.3-0.4-0.8-0.4-1.2c0-1.3,1-2.2,2.4-2.2c0.3,0,0.6,0,0.9,0.1h2.3V4z M109.8,9.5
		c0,0.6,0.5,0.8,1.2,0.8c0.7,0,1.2-0.3,1.2-0.9c0-0.5-0.3-0.7-0.9-0.7h-0.9C110,8.9,109.8,9.1,109.8,9.5z M111.7,4.7
		c0-0.6-0.4-1-0.9-1c-0.6,0-0.9,0.4-0.9,1c0,0.6,0.4,1,0.9,1C111.3,5.7,111.7,5.3,111.7,4.7z"/>
	<path class="st0" d="M120.2,6.2H116c0,0.8,0.6,1.4,1.5,1.4c0.6,0,1.1-0.2,1.2-0.7h1.5c-0.4,1.3-1.3,2-2.8,2c-1.8,0-3-1.2-3-3.2
		c0-1.8,1.2-3.2,3-3.2c1.6,0,2.8,1,2.8,3.2V6.2z M118.7,5.2c0-0.8-0.5-1.3-1.3-1.3c-0.8,0-1.3,0.5-1.4,1.3H118.7z"/>
	<path class="st0" d="M123.1,7.4h2.9v1.4h-5V7.6l2.8-3.6H121V2.7h4.8v1.2L123.1,7.4z"/>
	<path class="st0" d="M128.9,0.9c0,0.5-0.4,0.9-0.9,0.9c-0.5,0-0.9-0.4-0.9-0.9c0-0.5,0.4-0.9,0.9-0.9C128.4,0,128.9,0.4,128.9,0.9z
		 M127.1,8.8V2.7h1.5v6.1H127.1z"/>
	<path class="st0" d="M135.4,4.8v3.9h-1.5V5.2c0-0.7-0.3-1.1-0.9-1.1c-0.6,0-1.1,0.5-1.1,1.5v3.2h-1.5V2.7h1.3l0.1,0.8
		c0.3-0.5,0.8-0.9,1.6-0.9C134.7,2.6,135.4,3.5,135.4,4.8z"/>
</g>
</svg>
