<?xml version="1.0" encoding="utf-8"?>
<!-- Generator: Adobe Illustrator 24.0.0, SVG Export Plug-In . SVG Version: 6.00 Build 0)  -->
<svg version="1.1" id="Laag_1" xmlns="http://www.w3.org/2000/svg" xmlns:xlink="http://www.w3.org/1999/xlink" x="0px" y="0px"
	 width="125.3px" height="57.8px" viewBox="0 0 125.3 57.8" style="enable-background:new 0 0 125.3 57.8;" xml:space="preserve">
<style type="text/css">
	.st0{fill:#FFFFFF;}
</style>
<g>
	<path class="st0" d="M7.4,31.1h4.8v1.2H7.4V31.1z"/>
	<path class="st0" d="M24.1,30v-4.7h1.3v11.2h-1.3v-1.2c-0.6,0.9-1.6,1.4-2.8,1.4c-2.1,0-3.6-1.8-3.6-4s1.5-4.1,3.6-4.1
		C22.5,28.6,23.5,29.1,24.1,30z M24.1,32.7c0-1.6-1.1-2.9-2.6-2.9c-1.5,0-2.6,1.2-2.6,2.9c0,1.6,1.1,2.8,2.6,2.8
		C23.1,35.5,24.1,34.3,24.1,32.7z"/>
	<path class="st0" d="M34.2,32.2v0.7h-5.9c0.1,1.7,1.1,2.7,2.6,2.7c1.2,0,2.1-0.8,2.3-1.9l1.2,0.2c-0.2,1.7-1.7,2.9-3.5,2.9
		c-2.3,0-3.9-1.7-3.9-4c0-2.3,1.5-4.1,3.7-4.1C32.8,28.6,34.2,30.1,34.2,32.2z M32.9,31.8c0-1.2-0.9-2-2.2-2c-1.2,0-2.2,0.8-2.5,2
		H32.9z"/>
	<path class="st0" d="M40.6,25.4l3.7,9.7l3.7-9.7h1.4l-4.3,11.2h-1.6l-4.3-11.2H40.6z"/>
	<path class="st0" d="M56.8,32.7c0,2.3-1.6,4-3.9,4c-2.3,0-4-1.8-4-4s1.6-4.1,4-4.1C55.1,28.6,56.8,30.4,56.8,32.7z M55.5,32.7
		c0-1.6-1.1-2.9-2.7-2.9c-1.5,0-2.7,1.2-2.7,2.9c0,1.6,1.1,2.8,2.7,2.8C54.3,35.5,55.5,34.3,55.5,32.7z"/>
	<path class="st0" d="M58.3,25.4h1.3v11.2h-1.3V25.4z"/>
	<path class="st0" d="M61.7,25.4h1.3v6.8l3.3-3.3h1.7l-3.2,3.2l3.4,4.4h-1.6L63.8,33l-0.8,0.8v2.7h-1.3V25.4z"/>
	<path class="st0" d="M69.6,33.5c0.1,1.2,1,2.1,2.2,2.1c1.1,0,1.8-0.5,1.8-1.3c0-0.6-0.5-1.1-2-1.2c-1.9-0.2-2.7-1-2.7-2.3
		c0-1.2,1.2-2.1,2.8-2.1c1.4,0,2.6,0.9,2.9,2.4l-1.2,0.4c-0.2-1-0.9-1.5-1.8-1.5c-0.9,0-1.5,0.4-1.5,0.9c0,0.6,0.4,1,1.6,1.1
		c2,0.2,3.1,1,3.1,2.4c0,1.4-1.3,2.5-3.1,2.5c-1.8,0-3.2-1.2-3.5-3L69.6,33.5z"/>
	<path class="st0" d="M76.4,25.4h1.3v6.8l3.3-3.3h1.7l-3.2,3.2l3.4,4.4h-1.6L78.5,33l-0.8,0.8v2.7h-1.3V25.4z"/>
	<path class="st0" d="M84.1,28.9h1.3v0.8c0.5-0.7,1.1-1.1,2-1.1c1.4,0,2.3,1,2.3,2.8v0.3l-1.3,0.2c0-0.1,0-0.2,0-0.4
		c0-1.1-0.5-1.7-1.4-1.7c-1,0-1.7,0.9-1.7,2.3v4.4h-1.3V28.9z"/>
	<path class="st0" d="M95.5,31.6v-0.4c0-0.9-0.7-1.5-1.8-1.5c-1.2,0-1.9,0.7-1.9,1.8c0,0.1,0,0.2,0,0.2l-1.2-0.1v-0.2
		c0-1.8,1.4-2.8,3-2.8c2,0,3.1,1,3.1,2.7v5.2h-1.2v-1c-0.4,0.7-1.2,1.2-2.3,1.2c-1.8,0-2.6-1.1-2.6-2.3c0-1.4,1-2.2,2.9-2.5
		L95.5,31.6z M95.5,33.2v-0.6l-2,0.3c-1.1,0.2-1.7,0.6-1.7,1.3c0,0.7,0.6,1.2,1.6,1.2C94.7,35.6,95.5,34.6,95.5,33.2z"/>
	<path class="st0" d="M98.8,28.9h1.3v1c0.6-0.8,1.4-1.2,2.5-1.2c1.7,0,2.7,1.1,2.7,2.9v5H104v-4.7c0-1.3-0.6-2-1.8-2
		c-1.3,0-2.2,1-2.2,2.6v4.1h-1.3V28.9z"/>
	<path class="st0" d="M106.3,28.9h1.5v-2.3h1.3v2.3h4V30h-4v3.9c0,1.1,0.6,1.7,1.5,1.7c1,0,1.5-0.8,1.5-1.9l1.2,0.1
		c0.1,1.8-1.1,3-2.7,3c-1.8,0-2.9-1.1-2.9-2.9V30h-1.5V28.9z"/>
</g>
<path class="st0" d="M15.4,0l2.6,8.1h8.6l-6.9,5l2.6,8.1l-6.9-5l-6.9,5l2.6-8.1l-6.9-5h8.6L15.4,0z"/>
<path class="st0" d="M40,0l2.6,8.1h8.6l-6.9,5l2.6,8.1l-6.9-5l-6.9,5l2.6-8.1l-6.9-5h8.6L40,0z"/>
<path class="st0" d="M64.6,0l2.6,8.1h8.6l-6.9,5l2.6,8.1l-6.9-5l-6.9,5l2.6-8.1l-6.9-5h8.6L64.6,0z"/>
<path class="st0" d="M89.2,0l2.6,8.1h8.6l-6.9,5l2.6,8.1l-6.9-5l-6.9,5l2.6-8.1l-6.9-5h8.6L89.2,0z"/>
<path class="st0" d="M113.8,0l2.6,8.1h8.6l-6.9,5l2.6,8.1l-6.9-5l-6.9,5l2.6-8.1l-6.9-5h8.6L113.8,0z"/>
</svg>
