<?xml version="1.0" encoding="utf-8"?>
<!-- Generator: Adobe Illustrator 24.0.0, SVG Export Plug-In . SVG Version: 6.00 Build 0)  -->
<svg version="1.1" id="Laag_1" xmlns="http://www.w3.org/2000/svg" xmlns:xlink="http://www.w3.org/1999/xlink" x="0px" y="0px"
	 width="121.1px" height="10.1px" viewBox="0 0 121.1 10.1" style="enable-background:new 0 0 121.1 10.1;" xml:space="preserve">
<style type="text/css">
	.st0{fill:#F7DBE9;}
</style>
<path class="st0" d="M2.9,9.9c-2.3,0-2.9,0-2.9,0s0.1-0.3,0.1-2.3V3.3C0.1,1.3,0,1,0,1s0.6,0,2.8,0c2.5,0,5.8,0.1,5.8,4.4
	C8.6,9.8,5.1,9.9,2.9,9.9z M3.4,2.6c-0.6,0-0.7,0-0.7,0v5.6c0,0,0.2,0,0.8,0c1.4,0,2.4-0.5,2.4-2.8C5.9,2.9,4.8,2.6,3.4,2.6z
	 M13.2,7c-1,0-1.4-0.1-1.4-0.1c0,1.2,0.8,2,2.2,2c1.3,0,1.9-0.7,1.9-0.7l0.6,1.2c0,0-0.7,0.7-2.8,0.7c-2.6,0-3.8-1.5-3.8-3.6
	c0-2,1.1-3.8,3.5-3.8c2.2,0,3.1,0.9,3.1,2.1C16.5,6.1,15.7,7,13.2,7z M13.4,3.7c-1,0-1.6,0.7-1.6,2.1c0,0,0.3,0.1,1.2,0.1
	c0.9,0,1.6-0.2,1.6-1.1C14.6,4.4,14.5,3.7,13.4,3.7z M29.3,0.9c0,0-0.2,0.3-0.4,2.3l-0.5,4.1C28.3,8,28.1,9,28.1,9.6
	c0,0.2,0,0.3,0,0.3h-2.5c0,0,0.2-0.3,0.4-2.3l0.6-5c0,0-0.3,0.8-0.5,1.5l-2.2,5.9h-2.5l-0.8-5.9c-0.1-0.6-0.1-1.5-0.1-1.5l-0.6,4.8
	c-0.1,0.7-0.2,1.7-0.2,2.3v0.3h-2.2c0,0,0.2-0.3,0.4-2.3l0.5-4.1c0.1-0.7,0.2-1.7,0.2-2.3c0-0.2,0-0.3,0-0.3h3.5l0.7,5.6
	C23,7.2,23,8,23,8s0.1-0.8,0.4-1.5l2.2-5.6H29.3z M37.1,2.7l-0.7,5.2c-0.1,0.6-0.1,1-0.1,1.2c0,0.5,0.1,0.6,0.1,0.6L34.9,10
	c0,0-0.1-0.2-0.1-0.6c0-0.4,0.1-0.8,0.1-0.8S34.2,10,32.4,10c-1.8,0-2.2-1.1-2.2-2c0-1.3,0.5-3.5,0.5-4.5c0-0.5-0.1-0.6-0.1-0.6
	l1.5-0.2c0,0,0.1,0.2,0.1,0.7c0,0.9-0.5,3.2-0.5,4.3c0,0.5,0.1,1.2,1.2,1.2c1.5,0,2-1.6,2-1.6l0.6-4.4L37.1,2.7z M42.9,4.4
	c0,0-0.6-0.7-1.9-0.7c-0.8,0-1.2,0.4-1.2,0.8c0,0.5,0.3,0.7,1.2,1.3c1,0.5,2,1,2,2.2c0,1.1-0.6,2.1-2.6,2.1c-1.9,0-2.6-0.7-2.6-0.7
	l0.5-1.1c0,0,0.5,0.7,2,0.7c0.7,0,1.2-0.2,1.2-0.9c0-0.6-0.4-0.8-1.2-1.2c-1-0.5-1.9-1-1.9-2.2c0-0.9,0.5-2,2.5-2
	c1.6,0,2.4,0.6,2.4,0.6L42.9,4.4z M47.3,6.9c-0.8,0-1.4-0.1-1.4-0.1v0.4c0,1,0.5,1.9,2,1.9c1.4,0,1.8-0.7,1.8-0.7l0.5,1
	c0,0-0.6,0.7-2.5,0.7c-2.5,0-3.2-1.6-3.2-3.1c0-3.3,2.1-4.2,3.7-4.2c1.3,0,2.6,0.5,2.6,1.9C50.8,6.2,49.6,6.9,47.3,6.9z M48,3.6
	c-0.9,0-1.8,0.6-2,2.2c0,0,0.4,0,1.2,0c1.3,0,2.1-0.3,2.1-1.3C49.3,3.7,48.5,3.6,48,3.6z M58.8,2.7l-0.7,5.2C58,8.5,58,8.9,58,9.1
	c0,0.5,0.1,0.6,0.1,0.6L56.6,10c0,0-0.1-0.2-0.1-0.6c0-0.4,0.1-0.8,0.1-0.8S56,10,54.2,10C52.4,10,52,9,52,8.1
	c0-1.3,0.5-3.5,0.5-4.5c0-0.5-0.1-0.6-0.1-0.6l1.5-0.2c0,0,0.1,0.2,0.1,0.7c0,0.9-0.5,3.2-0.5,4.3c0,0.5,0.1,1.2,1.2,1.2
	c1.5,0,2-1.6,2-1.6l0.6-4.4L58.8,2.7z M70.7,9.2c0,0.5,0.1,0.6,0.1,0.6L69.4,10c0,0-0.2-0.2-0.2-0.7c0-0.9,0.5-3.1,0.5-4.3
	c0-0.5-0.1-1.2-1.1-1.2c-1.4,0-1.9,1.6-1.9,1.6s-0.1,0.6-0.1,1l-0.4,3.6h-1.5L65,6.4c0.1-0.5,0.1-1.1,0.1-1.3c0-0.6,0-1.3-1.1-1.3
	c-1.4,0-1.9,1.6-1.9,1.6l-0.6,4.5H60l0.7-5.1c0.1-0.5,0.1-1,0.1-1.2c0-0.5-0.1-0.6-0.1-0.6l1.5-0.2c0,0,0.1,0.2,0.1,0.6
	c0,0.4-0.1,0.7-0.1,0.7s0.6-1.4,2.3-1.4c2,0,2.1,1.4,2.1,1.4s0.6-1.4,2.5-1.4c1,0,2.1,0.3,2.1,2C71.2,6.2,70.7,8,70.7,9.2z
	 M78.9,2.8c0,0-0.6-0.2-2.2-0.2h-1.1v1.9h0.7c1.6,0,2.1-0.2,2.1-0.2v2.1c0,0-0.5-0.2-2.1-0.2h-0.7v1.2c0,2,0.1,2.4,0.1,2.4H73
	c0,0,0.1-0.3,0.1-2.3V3.3c0-2-0.1-2.4-0.1-2.4h5.9V2.8z M85.3,10c0,0-0.2-0.3-0.2-1c-0.2,0.4-0.9,1-2.3,1c-2.3,0-3.1-1.7-3.1-3.6
	c0-2.1,1-3.8,3.6-3.8c1.4,0,2,0.5,2,0.5l1.5-0.5v5.2c0,1.6,0.3,1.9,0.3,1.9L85.3,10z M84.9,4.4c0,0-0.3-0.6-1.4-0.6
	c-1.7,0-1.9,1.4-1.9,2.5c0,1.4,0.4,2.4,1.8,2.4c1.1,0,1.4-0.8,1.4-0.8V4.4z M92.4,10c-1.4,0-2.1-0.5-2.1-0.5L88.9,10V2
	c0-1.4-0.2-1.8-0.2-1.8L90.8,0v3.6c0.1-0.2,0.8-0.9,2.1-0.9c2.3,0,3.1,1.7,3.1,3.6C96,8.4,95,10,92.4,10z M92.2,3.9
	c-1.1,0-1.5,0.8-1.5,0.8v3.6c0,0,0.3,0.6,1.4,0.6c1.7,0,1.9-1.4,1.9-2.5C94.1,5,93.6,3.9,92.2,3.9z M101.8,4.5c0,0-0.3-0.5-1.1-0.5
	c-0.5,0-1,0.2-1.3,0.8v5h-1.9V4.8c0-1.6-0.3-1.9-0.3-1.9l1.8-0.2c0,0,0.2,0.3,0.2,1.1c0.2-0.5,0.7-1.2,1.7-1.2
	c0.9,0,1.2,0.3,1.2,0.3L101.8,4.5z M103.4,10c0,0-0.4-0.3-0.4-1.5l0.1-3.7c0-1.3-0.2-1.8-0.2-1.8l2.1-0.2L105,8.1
	c0,1.4,0.5,1.7,0.5,1.7L103.4,10z M104.1,1.6c-0.6,0-1.1-0.2-1.1-0.8c0-0.6,0.5-0.8,1.1-0.8c0.6,0,1.1,0.2,1.1,0.8
	C105.2,1.4,104.7,1.6,104.1,1.6z M109.8,7c-1,0-1.4-0.1-1.4-0.1c0,1.2,0.8,2,2.2,2c1.3,0,1.9-0.7,1.9-0.7l0.6,1.2
	c0,0-0.7,0.7-2.8,0.7c-2.6,0-3.8-1.5-3.8-3.6c0-2,1.1-3.8,3.5-3.8c2.2,0,3.1,0.9,3.1,2.1C113.1,6.1,112.3,7,109.8,7z M110,3.7
	c-1,0-1.6,0.7-1.6,2.1c0,0,0.3,0.1,1.2,0.1c0.9,0,1.6-0.2,1.6-1.1C111.2,4.4,111.2,3.7,110,3.7z M121.2,2.8c0,0-0.4,0.4-1,1
	l-1.9,2.1c1.1,1,1.8,2.5,2,2.9c0.4,0.8,0.8,0.9,0.8,0.9l-2.4,0.2c-0.6-1.6-1.5-2.9-2.4-3.7v3.7h-1.9V2c0-1.4-0.2-1.8-0.2-1.8
	l2.1-0.2v6.1l1.7-2.2c0.7-0.9,0.8-1.2,0.8-1.2H121.2z"/>
</svg>
