<?xml version="1.0" encoding="utf-8"?>
<!-- Generator: Adobe Illustrator 24.3.0, SVG Export Plug-In . SVG Version: 6.00 Build 0)  -->
<svg version="1.1" id="Laag_1" xmlns="http://www.w3.org/2000/svg" xmlns:xlink="http://www.w3.org/1999/xlink" x="0px" y="0px"
	 width="201.9px" height="23.1px" viewBox="0 0 201.9 23.1" style="enable-background:new 0 0 201.9 23.1;" xml:space="preserve">
<style type="text/css">
	.st0{fill:#FFFFFF;}
</style>
<g>
	<path class="st0" d="M4.4,15.6h7.7V18H1.5V0.9h3V15.6z"/>
	<path class="st0" d="M19.8,18.2c-1.8,0-3.3-0.6-4.4-1.7s-1.7-2.7-1.7-4.5v-0.4c0-1.3,0.2-2.4,0.7-3.4s1.2-1.8,2.1-2.3
		s1.9-0.8,3-0.8c1.7,0,3.1,0.6,4,1.7s1.4,2.7,1.4,4.7v1.1h-8.3c0.1,1,0.4,1.9,1,2.5S19,16,19.9,16c1.3,0,2.4-0.5,3.2-1.6l1.5,1.5
		c-0.5,0.8-1.2,1.3-2,1.8S20.8,18.2,19.8,18.2z M19.4,7.4c-0.8,0-1.4,0.3-1.9,0.8s-0.8,1.3-0.9,2.3H22v-0.2c-0.1-1-0.3-1.7-0.8-2.2
		S20.2,7.4,19.4,7.4z"/>
	<path class="st0" d="M26.6,11.6c0-2,0.5-3.5,1.4-4.7s2.2-1.8,3.7-1.8c1.4,0,2.6,0.5,3.4,1.5l0.1-1.3h2.6v12.3c0,1.7-0.5,3-1.6,3.9
		S33.8,23,32,23c-0.9,0-1.8-0.2-2.7-0.6s-1.6-0.9-2-1.5l1.3-1.7c0.9,1,2,1.6,3.2,1.6c0.9,0,1.7-0.3,2.2-0.8s0.8-1.3,0.8-2.3v-0.9
		c-0.8,0.9-1.9,1.4-3.3,1.4c-1.5,0-2.7-0.6-3.6-1.8S26.6,13.7,26.6,11.6z M29.4,11.8c0,1.3,0.3,2.3,0.8,3s1.2,1.1,2.2,1.1
		c1.1,0,2-0.5,2.6-1.5V8.9c-0.5-1-1.4-1.4-2.5-1.4c-0.9,0-1.7,0.4-2.2,1.1S29.4,10.4,29.4,11.8z"/>
	<path class="st0" d="M46.3,18.2c-1.8,0-3.3-0.6-4.4-1.7s-1.7-2.7-1.7-4.5v-0.4c0-1.3,0.2-2.4,0.7-3.4s1.2-1.8,2.1-2.3
		s1.9-0.8,3-0.8c1.7,0,3.1,0.6,4,1.7s1.4,2.7,1.4,4.7v1.1h-8.3c0.1,1,0.4,1.9,1,2.5s1.4,0.9,2.3,0.9c1.3,0,2.4-0.5,3.2-1.6l1.5,1.5
		c-0.5,0.8-1.2,1.3-2,1.8S47.3,18.2,46.3,18.2z M45.9,7.4c-0.8,0-1.4,0.3-1.9,0.8s-0.8,1.3-0.9,2.3h5.4v-0.2c-0.1-1-0.3-1.7-0.8-2.2
		S46.7,7.4,45.9,7.4z"/>
	<path class="st0" d="M56.2,5.3l0.1,1.5c0.9-1.1,2.2-1.7,3.7-1.7c2.6,0,4,1.5,4,4.5V18h-2.8V9.8C61.1,9,61,8.4,60.6,8
		s-0.9-0.6-1.7-0.6c-1.1,0-2,0.5-2.6,1.6v9h-2.8V5.3H56.2z"/>
	<path class="st0" d="M66.4,11.6c0-2,0.5-3.5,1.4-4.7s2.1-1.8,3.6-1.8c1.3,0,2.4,0.5,3.3,1.4V0h2.8v18h-2.6l-0.1-1.3
		c-0.9,1-2,1.5-3.4,1.5c-1.5,0-2.7-0.6-3.6-1.8S66.4,13.6,66.4,11.6z M69.2,11.8c0,1.3,0.2,2.3,0.7,3s1.2,1.1,2.1,1.1
		c1.2,0,2-0.5,2.6-1.6V8.9c-0.5-1-1.4-1.5-2.5-1.5c-0.9,0-1.6,0.4-2.1,1.1S69.2,10.3,69.2,11.8z"/>
	<path class="st0" d="M88,18c-0.1-0.2-0.2-0.6-0.3-1.2c-0.9,0.9-2,1.4-3.3,1.4c-1.3,0-2.3-0.4-3.1-1.1S80,15.5,80,14.4
		c0-1.4,0.5-2.4,1.5-3.1s2.4-1.1,4.3-1.1h1.7V9.4c0-0.7-0.2-1.2-0.6-1.6s-0.9-0.6-1.7-0.6c-0.6,0-1.2,0.2-1.6,0.5S83.2,8.5,83.2,9
		h-2.8c0-0.7,0.2-1.3,0.7-2s1.1-1.1,1.9-1.4s1.7-0.5,2.7-0.5c1.5,0,2.7,0.4,3.6,1.1s1.3,1.8,1.4,3.1v5.7c0,1.1,0.2,2.1,0.5,2.7V18
		H88z M84.9,15.9c0.6,0,1.1-0.1,1.6-0.4s0.9-0.6,1.1-1.1V12h-1.5c-1.1,0-1.8,0.2-2.4,0.6s-0.8,0.9-0.8,1.6c0,0.5,0.2,1,0.5,1.3
		S84.3,15.9,84.9,15.9z"/>
	<path class="st0" d="M100.1,7.9c-0.4-0.1-0.8-0.1-1.2-0.1c-1.3,0-2.2,0.5-2.6,1.5V18h-2.8V5.3h2.7l0.1,1.4c0.7-1.1,1.6-1.7,2.9-1.7
		c0.4,0,0.7,0.1,1,0.2L100.1,7.9z"/>
	<path class="st0" d="M106.5,13.9l2.6-8.6h3l-5,14.6c-0.8,2.1-2.1,3.2-3.9,3.2c-0.4,0-0.9-0.1-1.4-0.2v-2.2l0.5,0
		c0.7,0,1.3-0.1,1.6-0.4s0.7-0.7,0.9-1.3l0.4-1.1l-4.5-12.6h3.1L106.5,13.9z"/>
	<path class="st0" d="M131.6,3.3h-5.3V18h-2.9V3.3h-5.3V0.9h13.5V3.3z"/>
	<path class="st0" d="M133.6,2c0-0.4,0.1-0.8,0.4-1.1s0.7-0.4,1.2-0.4s0.9,0.1,1.2,0.4s0.4,0.7,0.4,1.1c0,0.4-0.1,0.8-0.4,1.1
		s-0.7,0.4-1.2,0.4s-0.9-0.1-1.2-0.4S133.6,2.5,133.6,2z M136.6,18h-2.8V5.3h2.8V18z"/>
	<path class="st0" d="M144.9,16c0.7,0,1.3-0.2,1.8-0.6s0.7-0.9,0.8-1.5h2.7c0,0.8-0.3,1.5-0.7,2.2s-1.1,1.2-1.9,1.6
		s-1.6,0.6-2.6,0.6c-1.8,0-3.2-0.6-4.2-1.7s-1.6-2.7-1.6-4.8v-0.3c0-1.9,0.5-3.5,1.5-4.6s2.4-1.7,4.2-1.7c1.5,0,2.7,0.4,3.7,1.3
		s1.4,2,1.5,3.5h-2.7c0-0.7-0.3-1.3-0.7-1.8s-1.1-0.7-1.8-0.7c-0.9,0-1.6,0.3-2.1,1s-0.8,1.7-0.8,3v0.5c0,1.4,0.2,2.4,0.7,3.1
		S144,16,144.9,16z"/>
	<path class="st0" d="M156.4,12.6l-1.3,1.3V18h-2.8V0h2.8v10.4l0.9-1.1l3.5-3.9h3.4l-4.7,5.3l5.2,7.4h-3.3L156.4,12.6z"/>
	<path class="st0" d="M170.2,18.2c-1.8,0-3.3-0.6-4.4-1.7s-1.7-2.7-1.7-4.5v-0.4c0-1.3,0.2-2.4,0.7-3.4s1.2-1.8,2.1-2.3
		s1.9-0.8,3-0.8c1.7,0,3.1,0.6,4,1.7s1.4,2.7,1.4,4.7v1.1H167c0.1,1,0.4,1.9,1,2.5s1.4,0.9,2.3,0.9c1.3,0,2.4-0.5,3.2-1.6l1.5,1.5
		c-0.5,0.8-1.2,1.3-2,1.8S171.2,18.2,170.2,18.2z M169.8,7.4c-0.8,0-1.4,0.3-1.9,0.8s-0.8,1.3-0.9,2.3h5.4v-0.2
		c-0.1-1-0.3-1.7-0.8-2.2S170.6,7.4,169.8,7.4z"/>
	<path class="st0" d="M181,2.2v3.1h2.2v2.1H181v7.1c0,0.5,0.1,0.8,0.3,1s0.5,0.3,1,0.3c0.3,0,0.7,0,1-0.1V18
		c-0.6,0.2-1.3,0.3-1.9,0.3c-2.2,0-3.3-1.2-3.3-3.6V7.4h-2.1V5.3h2.1V2.2H181z"/>
	<path class="st0" d="M187.2,15c0.5,0,0.9,0.2,1.2,0.5s0.4,0.7,0.4,1.1c0,0.4-0.1,0.8-0.4,1.1s-0.7,0.4-1.2,0.4
		c-0.5,0-0.9-0.1-1.2-0.4s-0.4-0.7-0.4-1.1s0.1-0.8,0.4-1.1S186.7,15,187.2,15z"/>
</g>
</svg>
