<?xml version="1.0" encoding="utf-8"?>
<!-- Generator: Adobe Illustrator 24.3.0, SVG Export Plug-In . SVG Version: 6.00 Build 0)  -->
<svg version="1.1" id="Laag_1" xmlns="http://www.w3.org/2000/svg" xmlns:xlink="http://www.w3.org/1999/xlink" x="0px" y="0px"
	 width="201.9px" height="46.9px" viewBox="0 0 201.9 46.9" style="enable-background:new 0 0 201.9 46.9;" xml:space="preserve">
<style type="text/css">
	.st0{fill:#FFFFFF;}
</style>
<g>
	<path class="st0" d="M4.4,15.6h7.7V18H1.5V0.9h3L4.4,15.6L4.4,15.6z"/>
	<path class="st0" d="M12.5,1.5L12.2,6h-1.9V0h2.2V1.5z"/>
	<path class="st0" d="M22.5,16.8c-0.8,1-2,1.5-3.6,1.5c-1.4,0-2.4-0.4-3.1-1.2s-1.1-2-1.1-3.5V5.3h2.8v8.2c0,1.6,0.7,2.4,2,2.4
		c1.4,0,2.3-0.5,2.8-1.5V5.3h2.8V18h-2.7L22.5,16.8z"/>
	<path class="st0" d="M30.8,5.3l0.1,1.5c0.9-1.1,2.2-1.7,3.7-1.7c2.6,0,4,1.5,4,4.5V18h-2.8V9.8c0-0.8-0.2-1.4-0.5-1.8
		s-0.9-0.6-1.7-0.6c-1.1,0-2,0.5-2.6,1.6v9h-2.8V5.3H30.8z"/>
	<path class="st0" d="M41.6,2c0-0.4,0.1-0.8,0.4-1.1s0.7-0.4,1.2-0.4s0.9,0.1,1.2,0.4s0.4,0.7,0.4,1.1s-0.1,0.8-0.4,1.1
		s-0.7,0.4-1.2,0.4s-1-0.1-1.2-0.4S41.6,2.5,41.6,2z M44.6,18h-2.8V5.3h2.8V18z"/>
	<path class="st0" d="M52.9,16c0.7,0,1.3-0.2,1.8-0.6s0.7-0.9,0.8-1.5h2.7c0,0.8-0.3,1.5-0.7,2.2c-0.4,0.7-1.1,1.2-1.9,1.6
		S54,18.3,53,18.3c-1.8,0-3.2-0.6-4.2-1.7s-1.6-2.7-1.6-4.8v-0.3c0-1.9,0.5-3.5,1.5-4.6s2.4-1.7,4.2-1.7c1.5,0,2.7,0.4,3.7,1.3
		s1.4,2,1.5,3.5h-2.7c0-0.7-0.3-1.3-0.7-1.8s-1.1-0.7-1.8-0.7c-0.9,0-1.6,0.3-2.1,1s-0.8,1.7-0.8,3V12c0,1.4,0.2,2.4,0.7,3.1
		S51.9,16,52.9,16z"/>
	<path class="st0" d="M59.7,11.5c0-1.2,0.2-2.4,0.7-3.4s1.2-1.8,2.1-2.3S64.4,5,65.6,5c1.7,0,3.1,0.6,4.2,1.7s1.6,2.6,1.7,4.4v0.7
		c0,1.2-0.2,2.4-0.7,3.4s-1.2,1.7-2.1,2.3s-1.9,0.8-3.1,0.8c-1.8,0-3.2-0.6-4.3-1.8s-1.6-2.8-1.6-4.8V11.5z M62.6,11.8
		c0,1.3,0.3,2.3,0.8,3.1s1.3,1.1,2.2,1.1s1.7-0.4,2.2-1.1s0.8-1.8,0.8-3.3c0-1.3-0.3-2.3-0.8-3s-1.3-1.1-2.2-1.1
		c-0.9,0-1.7,0.4-2.2,1.1S62.6,10.3,62.6,11.8z"/>
	<path class="st0" d="M91,11.8c0,2-0.4,3.5-1.3,4.7c-0.9,1.2-2.1,1.7-3.6,1.7s-2.6-0.5-3.5-1.6L82.5,18h-2.6V0h2.8v6.5
		C83.5,5.5,84.6,5,86,5c1.5,0,2.8,0.6,3.6,1.7S91,9.6,91,11.6V11.8z M88.2,11.5c0-1.4-0.2-2.4-0.7-3.1s-1.2-1-2.1-1
		c-1.2,0-2.1,0.5-2.6,1.6v5.2c0.5,1.1,1.4,1.7,2.6,1.7c0.9,0,1.6-0.3,2.1-1s0.7-1.7,0.8-3v-0.4H88.2z"/>
	<path class="st0" d="M93.4,2c0-0.4,0.1-0.8,0.4-1.1s0.7-0.4,1.2-0.4s0.9,0.1,1.2,0.4s0.4,0.7,0.4,1.1s-0.1,0.8-0.4,1.1
		S95.5,3.5,95,3.5s-0.9-0.1-1.2-0.4S93.4,2.5,93.4,2z M96.4,18h-2.8V5.3h2.8V18z"/>
	<path class="st0" d="M99,11.6c0-2,0.5-3.5,1.4-4.7s2.2-1.8,3.7-1.8c1.4,0,2.6,0.5,3.4,1.5l0.1-1.3h2.6v12.3c0,1.7-0.5,3-1.6,3.9
		s-2.4,1.4-4.2,1.4c-0.9,0-1.8-0.2-2.7-0.6s-1.6-0.9-2-1.5l1.3-1.7c0.9,1,2,1.6,3.2,1.6c0.9,0,1.7-0.3,2.2-0.8s0.8-1.3,0.8-2.3v-0.9
		c-0.8,0.9-1.9,1.4-3.3,1.4c-1.5,0-2.7-0.6-3.6-1.8S99,13.7,99,11.6z M101.9,11.8c0,1.3,0.3,2.3,0.8,3s1.2,1.1,2.2,1.1
		c1.1,0,2-0.5,2.6-1.5V8.9c-0.5-1-1.4-1.4-2.5-1.4c-0.9,0-1.7,0.4-2.2,1.1S101.9,10.4,101.9,11.8z"/>
	<path class="st0" d="M116.2,18h-2.8V0h2.8V18z"/>
	<path class="st0" d="M119.3,2c0-0.4,0.1-0.8,0.4-1.1s0.7-0.4,1.2-0.4s0.9,0.1,1.2,0.4s0.4,0.7,0.4,1.1s-0.1,0.8-0.4,1.1
		s-0.7,0.4-1.2,0.4s-0.9-0.1-1.2-0.4S119.3,2.5,119.3,2z M122.3,18h-2.8V5.3h2.8V18z"/>
	<path class="st0" d="M131,18.2c-1.8,0-3.3-0.6-4.4-1.7s-1.7-2.7-1.7-4.5v-0.4c0-1.3,0.2-2.4,0.7-3.4s1.2-1.8,2.1-2.3
		c0.9-0.5,1.9-0.8,3-0.8c1.7,0,3.1,0.6,4,1.7s1.4,2.7,1.4,4.7v1.1h-8.3c0.1,1,0.4,1.9,1,2.5s1.4,0.9,2.3,0.9c1.3,0,2.4-0.5,3.2-1.6
		l1.5,1.5c-0.5,0.8-1.2,1.3-2,1.8S132,18.2,131,18.2z M130.6,7.4c-0.8,0-1.4,0.3-1.9,0.8s-0.8,1.3-0.9,2.3h5.4v-0.2
		c-0.1-1-0.3-1.7-0.8-2.2S131.4,7.4,130.6,7.4z"/>
	<path class="st0" d="M141.8,2.2v3.1h2.2v2.1h-2.2v7.1c0,0.5,0.1,0.8,0.3,1s0.5,0.3,1,0.3c0.3,0,0.7,0,1-0.1V18
		c-0.6,0.2-1.3,0.3-1.9,0.3c-2.2,0-3.3-1.2-3.3-3.6V7.4h-2.1V5.3h2.1V2.2H141.8z"/>
	<path class="st0" d="M149.8,2.2v3.1h2.2v2.1h-2.2v7.1c0,0.5,0.1,0.8,0.3,1s0.5,0.3,1,0.3c0.3,0,0.7,0,1-0.1V18
		c-0.6,0.2-1.3,0.3-1.9,0.3c-2.2,0-3.3-1.2-3.3-3.6V7.4h-2.1V5.3h2.1V2.2H149.8z"/>
	<path class="st0" d="M153.3,11.5c0-1.2,0.2-2.4,0.7-3.4s1.2-1.8,2.1-2.3S158,5,159.2,5c1.7,0,3.1,0.6,4.2,1.7s1.6,2.6,1.7,4.4v0.7
		c0,1.2-0.2,2.4-0.7,3.4s-1.2,1.7-2.1,2.3s-1.9,0.8-3.1,0.8c-1.8,0-3.2-0.6-4.3-1.8s-1.6-2.8-1.6-4.8L153.3,11.5L153.3,11.5z
		 M156.2,11.8c0,1.3,0.3,2.3,0.8,3.1s1.3,1.1,2.2,1.1s1.7-0.4,2.2-1.1s0.8-1.8,0.8-3.3c0-1.3-0.3-2.3-0.8-3s-1.3-1.1-2.2-1.1
		s-1.7,0.4-2.2,1.1S156.2,10.3,156.2,11.8z"/>
	<path class="st0" d="M5.7,38.4l2.7-9.1h2.9L6.9,42H4.4L0,29.3h3L5.7,38.4z"/>
	<path class="st0" d="M20.5,42c-0.1-0.2-0.2-0.6-0.3-1.2c-0.9,0.9-2,1.4-3.3,1.4s-2.3-0.4-3.1-1.1s-1.2-1.6-1.2-2.7
		c0-1.4,0.5-2.4,1.5-3.1s2.4-1.1,4.3-1.1h1.7v-0.8c0-0.7-0.2-1.2-0.6-1.6s-0.9-0.6-1.7-0.6c-0.6,0-1.2,0.2-1.6,0.5s-0.6,0.7-0.6,1.2
		h-2.8c0-0.7,0.2-1.3,0.7-2s1.1-1.1,1.9-1.4s1.7-0.5,2.7-0.5c1.5,0,2.7,0.4,3.6,1.1s1.3,1.8,1.4,3.1v5.7c0,1.1,0.2,2.1,0.5,2.7V42
		H20.5z M17.3,39.9c0.6,0,1.1-0.1,1.6-0.4s0.9-0.6,1.1-1.1V36h-1.5c-1.1,0-1.8,0.2-2.4,0.6s-0.8,0.9-0.8,1.6c0,0.5,0.2,1,0.5,1.3
		S16.7,39.9,17.3,39.9z"/>
	<path class="st0" d="M28.9,42h-2.8V24h2.8V42z"/>
	<path class="st0" d="M32,26c0-0.4,0.1-0.8,0.4-1.1s0.7-0.4,1.2-0.4s0.9,0.1,1.2,0.4s0.4,0.7,0.4,1.1s-0.1,0.8-0.4,1.1
		s-0.7,0.4-1.2,0.4s-0.9-0.1-1.2-0.4S32,26.5,32,26z M35,42h-2.8V29.3H35V42z"/>
	<path class="st0" d="M37.6,35.6c0-2,0.5-3.5,1.4-4.7s2.1-1.8,3.6-1.8c1.3,0,2.4,0.5,3.3,1.4V24h2.8v18h-2.6L46,40.7
		c-0.9,1-2,1.5-3.4,1.5c-1.5,0-2.7-0.6-3.6-1.8S37.6,37.6,37.6,35.6z M40.5,35.8c0,1.3,0.2,2.3,0.7,3s1.2,1.1,2.1,1.1
		c1.2,0,2-0.5,2.6-1.6v-5.4c-0.5-1-1.4-1.5-2.5-1.5c-0.9,0-1.6,0.4-2.1,1.1C40.8,33.2,40.5,34.3,40.5,35.8z"/>
	<path class="st0" d="M51.2,35.5c0-1.2,0.2-2.4,0.7-3.4s1.2-1.8,2.1-2.3s1.9-0.8,3.1-0.8c1.7,0,3.1,0.6,4.2,1.7s1.6,2.6,1.7,4.4v0.7
		c0,1.2-0.2,2.4-0.7,3.4s-1.2,1.7-2.1,2.3s-1.9,0.8-3.1,0.8c-1.8,0-3.2-0.6-4.3-1.8s-1.6-2.8-1.6-4.8C51.2,35.7,51.2,35.5,51.2,35.5
		z M54,35.8c0,1.3,0.3,2.3,0.8,3.1S56.1,40,57,40s1.7-0.4,2.2-1.1s0.8-1.8,0.8-3.3c0-1.3-0.3-2.3-0.8-3S58,31.4,57,31.4
		c-0.9,0-1.7,0.4-2.2,1.1S54,34.3,54,35.8z"/>
	<path class="st0" d="M82.4,35.8c0,2-0.4,3.5-1.3,4.7s-2.1,1.8-3.6,1.8c-1.4,0-2.5-0.5-3.3-1.4v6h-2.8V29.3H74l0.1,1.3
		c0.8-1,2-1.5,3.4-1.5c1.5,0,2.8,0.6,3.6,1.7s1.3,2.8,1.3,4.8C82.4,35.6,82.4,35.8,82.4,35.8z M79.6,35.5c0-1.3-0.3-2.3-0.8-3
		s-1.2-1.1-2.2-1.1c-1.2,0-2,0.5-2.5,1.4v5.6c0.5,1,1.4,1.5,2.5,1.5c0.9,0,1.6-0.4,2.1-1.1S79.6,37,79.6,35.5z"/>
	<path class="st0" d="M90.4,42.2c-1.8,0-3.3-0.6-4.4-1.7s-1.7-2.7-1.7-4.5v-0.4c0-1.3,0.2-2.4,0.7-3.4s1.2-1.8,2.1-2.3
		s1.9-0.8,3-0.8c1.7,0,3.1,0.6,4,1.7s1.4,2.7,1.4,4.7v1.1h-8.3c0.1,1,0.4,1.9,1,2.5s1.4,0.9,2.3,0.9c1.3,0,2.4-0.5,3.2-1.6l1.5,1.5
		c-0.5,0.8-1.2,1.3-2,1.8S91.5,42.2,90.4,42.2z M90.1,31.4c-0.8,0-1.4,0.3-1.9,0.8c-0.5,0.5-0.8,1.3-0.9,2.3h5.4v-0.2
		c-0.1-1-0.3-1.7-0.8-2.2S90.9,31.4,90.1,31.4z"/>
	<path class="st0" d="M104.4,31.9c-0.4-0.1-0.8-0.1-1.2-0.1c-1.3,0-2.2,0.5-2.6,1.5V42h-2.8V29.3h2.7l0.1,1.4
		c0.7-1.1,1.6-1.7,2.9-1.7c0.4,0,0.7,0.1,1,0.2L104.4,31.9z"/>
	<path class="st0" d="M119.7,42h-2.8V28.3l-4.2,1.4v-2.4l6.7-2.4h0.4L119.7,42L119.7,42z"/>
	<path class="st0" d="M136.7,34.8c0,2.5-0.5,4.3-1.4,5.5s-2.3,1.9-4.2,1.9c-1.8,0-3.2-0.6-4.2-1.8s-1.4-3-1.4-5.4v-3
		c0-2.5,0.5-4.3,1.4-5.5s2.3-1.8,4.2-1.8s3.3,0.6,4.2,1.8s1.4,3,1.4,5.4V34.8z M133.9,31.6c0-1.6-0.2-2.8-0.7-3.5s-1.1-1.1-2.1-1.1
		c-0.9,0-1.6,0.4-2.1,1.1s-0.7,1.8-0.7,3.3v3.9c0,1.6,0.2,2.8,0.7,3.6s1.1,1.2,2.1,1.2c0.9,0,1.6-0.4,2-1.1s0.7-1.9,0.7-3.4v-4
		H133.9z"/>
	<path class="st0" d="M150.4,34.8c0,2.5-0.5,4.3-1.4,5.5s-2.3,1.9-4.2,1.9c-1.8,0-3.2-0.6-4.2-1.8s-1.4-3-1.4-5.4v-3
		c0-2.5,0.5-4.3,1.4-5.5s2.3-1.8,4.2-1.8s3.3,0.6,4.2,1.8s1.4,3,1.4,5.4V34.8z M147.5,31.6c0-1.6-0.2-2.8-0.7-3.5s-1.1-1.1-2.1-1.1
		c-0.9,0-1.6,0.4-2.1,1.1s-0.7,1.8-0.7,3.3v3.9c0,1.6,0.2,2.8,0.7,3.6s1.1,1.2,2.1,1.2c0.9,0,1.6-0.4,2-1.1s0.7-1.9,0.7-3.4v-4
		H147.5z"/>
	<path class="st0" d="M166.6,42c-0.1-0.2-0.2-0.6-0.3-1.2c-0.9,0.9-2,1.4-3.3,1.4s-2.3-0.4-3.1-1.1s-1.2-1.6-1.2-2.7
		c0-1.4,0.5-2.4,1.5-3.1s2.4-1.1,4.3-1.1h1.7v-0.8c0-0.7-0.2-1.2-0.6-1.6s-0.9-0.6-1.7-0.6c-0.6,0-1.2,0.2-1.6,0.5s-0.6,0.7-0.6,1.2
		h-2.8c0-0.7,0.2-1.3,0.7-2s1.1-1.1,1.9-1.4s1.7-0.5,2.7-0.5c1.5,0,2.7,0.4,3.6,1.1s1.3,1.8,1.4,3.1v5.7c0,1.1,0.2,2.1,0.5,2.7V42
		H166.6z M163.5,39.9c0.6,0,1.1-0.1,1.6-0.4s0.9-0.6,1.1-1.1V36h-1.5c-1.1,0-1.8,0.2-2.4,0.6s-0.8,0.9-0.8,1.6c0,0.5,0.2,1,0.5,1.3
		S162.9,39.9,163.5,39.9z"/>
	<path class="st0" d="M174.7,29.3l0.1,1.5c0.9-1.1,2.2-1.7,3.7-1.7c2.6,0,4,1.5,4,4.5V42h-2.8v-8.2c0-0.8-0.2-1.4-0.5-1.8
		s-0.9-0.6-1.7-0.6c-1.1,0-2,0.5-2.6,1.6v9H172V29.3H174.7z"/>
	<path class="st0" d="M188,29.3l0.1,1.5c0.9-1.1,2.2-1.7,3.7-1.7c2.6,0,4,1.5,4,4.5V42H193v-8.2c0-0.8-0.2-1.4-0.5-1.8
		s-0.9-0.6-1.7-0.6c-1.1,0-2,0.5-2.6,1.6v9h-2.8V29.3H188z"/>
	<path class="st0" d="M198.7,26c0-0.4,0.1-0.8,0.4-1.1s0.7-0.4,1.2-0.4s0.9,0.1,1.2,0.4s0.4,0.7,0.4,1.1s-0.1,0.8-0.4,1.1
		s-0.7,0.4-1.2,0.4s-0.9-0.1-1.2-0.4S198.7,26.5,198.7,26z M201.7,42h-2.8V29.3h2.8V42z"/>
</g>
</svg>
