<?xml version="1.0" encoding="utf-8"?>
<!-- Generator: Adobe Illustrator 24.3.0, SVG Export Plug-In . SVG Version: 6.00 Build 0)  -->
<svg version="1.1" id="Laag_1" xmlns="http://www.w3.org/2000/svg" xmlns:xlink="http://www.w3.org/1999/xlink" x="0px" y="0px"
	 width="18.4px" height="13.6px" viewBox="0 0 18.4 13.6" style="enable-background:new 0 0 18.4 13.6;" xml:space="preserve">
<style type="text/css">
	.st0{fill:#FFFFFF;}
</style>
<g>
	<path class="st0" d="M0,9.6c0-0.7,0.1-1.3,0.4-1.8s0.7-0.9,1.3-1.2c-1-0.5-1.6-1.4-1.6-2.9c0-0.8,0.2-1.5,0.6-2s0.9-1,1.6-1.2
		C3,0.1,3.7,0,4.5,0c0.6,0,1.2,0.1,1.7,0.2c0.5,0.1,0.9,0.4,1.3,0.7c0.4,0.3,0.7,0.7,0.9,1.2C8.6,2.6,8.7,3.2,8.7,4
		c0,1.2-0.4,2.2-1.3,3c1.1,0.6,1.6,1.7,1.6,3.2c0,1.1-0.4,1.9-1.2,2.5S6,13.6,4.5,13.6c-1.4,0-2.5-0.4-3.3-1.1
		C0.4,11.8,0,10.8,0,9.6z M1.1,9.9c0,0.4,0.3,0.8,0.9,1.1s1.4,0.4,2.5,0.4c1.1,0,1.9-0.2,2.5-0.6c0.6-0.4,0.9-0.9,0.9-1.5
		c0-0.4-0.1-0.8-0.3-1.2C7.3,7.9,7,7.6,6.6,7.5C6,7.8,5.3,8,4.5,8.1C3.3,8.3,2.4,8.5,1.9,8.8C1.4,9.1,1.2,9.5,1.1,9.9z M1.3,4.6
		c0,0.3,0.1,0.6,0.4,0.9C2,5.8,2.4,6,2.9,6.1c0.5-0.1,1-0.2,1.6-0.3C5,5.7,5.5,5.7,5.8,5.6c0.3-0.1,0.6-0.1,0.9-0.3
		C7,5.2,7.2,5.1,7.4,4.9s0.2-0.4,0.2-0.6c0-0.4-0.2-0.8-0.8-1C6.3,3.1,5.5,3,4.5,3c-1,0-1.7,0.2-2.3,0.5C1.6,3.9,1.3,4.2,1.3,4.6z"
		/>
	<path class="st0" d="M11.2,8.6V6.5h2.9v-3h1.3v3h3v2.1h-3v3.2h-1.3V8.6H11.2z"/>
</g>
</svg>
