<?xml version="1.0" encoding="utf-8"?>
<!-- Generator: Adobe Illustrator 22.0.0, SVG Export Plug-In . SVG Version: 6.00 Build 0)  -->
<svg version="1.1" id="Laag_1" xmlns="http://www.w3.org/2000/svg" xmlns:xlink="http://www.w3.org/1999/xlink" x="0px" y="0px"
	 viewBox="0 0 106.5 111.4" style="enable-background:new 0 0 106.5 111.4;" xml:space="preserve">
<g>
	<path d="M9.8,15.8v10.9c0,0.5,0.3,0.7,0.9,0.7h1v1.9h-1.3c-2,0-3.3-0.4-3.7-1.4C6,28.8,5,29.5,3.8,29.5c-2.1,0-3.1-1-3.1-2.7v-9.7
		c0-1.3,0.8-2,2.1-2.3c-1.3-0.3-1.9-1-1.9-2.1V3.3c0-1.7,1.7-2.6,4.4-2.6c2.9,0,4.5,0.9,4.5,2.6v9.7H6.5V3.4c0-0.5-0.3-0.8-1.1-0.8
		C4.6,2.6,4.2,3,4.2,3.5V13c0,0.6,0.4,0.9,1.2,0.9h6.2v1.8H9.8z M6.4,26.5V15.8H5.5c-0.9,0-1.5,0.4-1.5,1v9.7c0,0.6,0.5,0.9,1.2,0.9
		C6,27.5,6.4,27.1,6.4,26.5z"/>
	<path d="M26.1,0.8v28.5h-3.4V15.5h-2.1v13.8h-3.4V0.8h3.4v12.7h2.1V0.8H26.1z"/>
	<path d="M35,27.3v2h-6.7V0.8h6.6v2h-3.2v10.7h3v2h-3v11.8H35z"/>
	<path d="M44.2,2.8h-2.7v26.5h-3.4V2.9h-2.7v-2l8.8,0V2.8z"/>
	<path d="M7.1,48.6v-7.8h3v28.5H6.9L4,50.8H3.7l0.4,9.7v8.8h-3V40.8h3.3l2.9,17.5h0.3L7.1,48.6z"/>
	<path d="M17.7,61.9h-2.5l-0.4,7.4h-3.4l2.4-28.5h5.3l2.5,28.5h-3.5L17.7,61.9z M17.5,59.9l-0.7-12.2l-0.3-4.3h-0.3L16,47.7
		l-0.7,12.2H17.5z"/>
	<path d="M29.7,42.8H27v26.5h-3.4V42.9h-2.7v-2l8.8,0V42.8z"/>
	<path d="M34.1,40.8v28.5h-3.3V40.8H34.1z"/>
	<path d="M45.3,43.8v22.6c0,2-1.6,3.1-4.5,3.1c-3,0-4.5-1.1-4.5-3.1V43.8c0-2,1.6-3.1,4.5-3.1C43.7,40.7,45.3,41.8,45.3,43.8z
		 M41.9,43.6c0-0.5-0.4-0.9-1.1-0.9c-0.7,0-1.1,0.3-1.1,0.9v22.9c0,0.6,0.5,0.9,1.1,0.9c0.7,0,1.1-0.4,1.1-0.9V43.6z"/>
	<path d="M53.4,48.6v-7.8h3v28.5h-3.2l-3-18.5H50l0.4,9.7v8.8h-3V40.8h3.3l2.9,17.5h0.3L53.4,48.6z"/>
	<path d="M64,61.9h-2.5l-0.4,7.4h-3.4l2.4-28.5h5.3l2.5,28.5h-3.5L64,61.9z M63.9,59.9l-0.7-12.2l-0.3-4.3h-0.3l-0.3,4.3l-0.7,12.2
		H63.9z"/>
	<path d="M75.7,67.3v2h-6.5V40.8h3.3v26.5H75.7z"/>
	<path d="M83.4,67.3v2h-6.7V40.8h6.6v2h-3.2v10.7h3v2h-3v11.8H83.4z"/>
	<path d="M8.8,82.8H6.1v26.5H2.7V82.9H0v-2l8.8,0V82.8z"/>
	<path d="M18.9,80.8v28.5h-3.4V95.5h-2.1v13.8H9.9V80.8h3.4v12.7h2.1V80.8H18.9z"/>
	<path d="M27.7,107.3v2h-6.7V80.8h6.6v2h-3.2v10.7h3v2h-3v11.8H27.7z"/>
	<path d="M34.6,101.9h-2.5l-0.4,7.4h-3.4l2.4-28.5H36l2.5,28.5h-3.5L34.6,101.9z M34.5,99.9l-0.7-12.2l-0.3-4.3h-0.3L33,87.7
		l-0.7,12.2H34.5z"/>
	<path d="M46.6,82.8h-2.7v26.5h-3.4V82.9h-2.7v-2l8.8,0V82.8z"/>
	<path d="M54.4,107.3v2h-6.7V80.8h6.6v2h-3.2v10.7h3v2h-3v11.8H54.4z"/>
	<path d="M62,109.3l-1.1-11.6h-1.5v11.6H56V80.8h4.6c2.7,0,4.4,0.9,4.4,2.9v10.9c0,1-0.5,1.7-1.2,2.1l1.5,12.5H62z M60.2,95.7
		c0.9,0,1.3-0.3,1.3-1.1V83.9c0-0.7-0.5-1.1-1.3-1.1h-0.9v12.9H60.2z"/>
</g>
</svg>
