<?xml version="1.0" encoding="utf-8"?>
<!-- Generator: Adobe Illustrator 24.0.0, SVG Export Plug-In . SVG Version: 6.00 Build 0)  -->
<svg version="1.1" id="Laag_1" xmlns="http://www.w3.org/2000/svg" xmlns:xlink="http://www.w3.org/1999/xlink" x="0px" y="0px"
	 width="69.8px" height="12.5px" viewBox="0 0 69.8 12.5" style="enable-background:new 0 0 69.8 12.5;" xml:space="preserve">
<style type="text/css">
	.st0{fill:#FFFFFF;}
</style>
<g>
	<path class="st0" d="M0,3.2h1.9v0.6c0,0,0.4-0.7,1.3-0.7C4.3,3.1,5,3.7,5,5.4v2.2C5,9.4,4.3,10,3.2,10C2.3,10,2,9.4,2,9.4v2.9H0
		V3.2z M3,5.5C3,5.1,2.7,5,2.5,5C2.3,5,2,5.1,2,5.5v2.1C2,8,2.3,8.2,2.5,8.2C2.7,8.2,3,8,3,7.6V5.5z"/>
	<path class="st0" d="M8.1,9.9h-2V0.8h2V9.9z"/>
	<path class="st0" d="M14.2,9.9h-1.9V9.4c0,0-0.4,0.7-1.3,0.7c-1.1,0-1.8-0.6-1.8-2.3V5.4c0-1.8,0.7-2.3,1.8-2.3
		c0.9,0,1.3,0.7,1.3,0.7V3.2h1.9V9.9z M11.2,7.6c0,0.5,0.3,0.6,0.5,0.6c0.2,0,0.5-0.1,0.5-0.6V5.5c0-0.5-0.3-0.6-0.5-0.6
		c-0.2,0-0.5,0.1-0.5,0.6V7.6z"/>
	<path class="st0" d="M17.4,9.9h-2V3.2h1.9v0.6c0,0,0.4-0.7,1.3-0.7c1.1,0,1.8,0.6,1.8,2.3v4.5h-2V5.6c0-0.5-0.3-0.6-0.5-0.6
		c-0.2,0-0.5,0.1-0.5,0.6V9.9z"/>
	<path class="st0" d="M23.7,10.7c0.2,0,0.5-0.1,0.5-0.5v-7h2v6.5c0,1.8-0.8,2.7-2.5,2.7V10.7z M25.2,2.5C24.5,2.5,24,2,24,1.3
		s0.5-1.2,1.2-1.2c0.7,0,1.2,0.5,1.2,1.2S25.9,2.5,25.2,2.5z"/>
	<path class="st0" d="M32.3,7.8L32.3,7.8c0,1.3-0.9,2.3-2.5,2.3c-1.6,0-2.5-1-2.5-2.6V5.8c0-1.6,0.9-2.7,2.5-2.7
		c1.6,0,2.5,0.9,2.5,2.6v1.5h-3v0.7c0,0.4,0.3,0.5,0.5,0.5c0.2,0,0.5-0.1,0.5-0.5V7.8H32.3z M29.2,5.8h1V5.3c0-0.5-0.3-0.6-0.5-0.6
		c-0.2,0-0.5,0.1-0.5,0.6V5.8z"/>
	<path class="st0" d="M35.9,0.8h2v3c0,0,0.3-0.7,1.2-0.7c1.1,0,1.8,0.6,1.8,2.3v2.2c0,1.8-0.7,2.3-1.8,2.3c-0.9,0-1.3-0.7-1.3-0.7
		v0.6h-1.9V0.8z M38.9,5.6c0-0.5-0.3-0.6-0.5-0.6c-0.2,0-0.5,0.1-0.5,0.6v2.1c0,0.5,0.3,0.6,0.5,0.6c0.2,0,0.5-0.1,0.5-0.6V5.6z"/>
	<path class="st0" d="M46.8,7.8L46.8,7.8c0,1.3-0.9,2.3-2.5,2.3c-1.6,0-2.5-1-2.5-2.6V5.8c0-1.6,0.9-2.7,2.5-2.7
		c1.6,0,2.5,0.9,2.5,2.6v1.5h-3v0.7c0,0.4,0.3,0.5,0.5,0.5c0.2,0,0.5-0.1,0.5-0.5V7.8H46.8z M43.8,5.8h1V5.3c0-0.5-0.3-0.6-0.5-0.6
		c-0.2,0-0.5,0.1-0.5,0.6V5.8z"/>
	<path class="st0" d="M51.9,9.9h-4.6L49.2,5h-1.6V3.2h4.3L50,8.1h1.9V9.9z"/>
	<path class="st0" d="M52.6,7.4V5.7c0-1.6,0.9-2.6,2.5-2.6c1.6,0,2.5,1,2.5,2.6v1.6c0,1.6-0.9,2.7-2.5,2.7C53.5,10,52.6,9,52.6,7.4z
		 M54.6,5.5v2.2c0,0.5,0.3,0.6,0.5,0.6c0.2,0,0.5-0.1,0.5-0.6V5.5c0-0.5-0.3-0.6-0.5-0.6C54.8,4.9,54.6,5,54.6,5.5z"/>
	<path class="st0" d="M63.5,7.8L63.5,7.8c0,1.3-0.9,2.3-2.5,2.3c-1.6,0-2.5-1-2.5-2.6V5.8c0-1.6,0.9-2.7,2.5-2.7
		c1.6,0,2.5,0.9,2.5,2.6v1.5h-3v0.7c0,0.4,0.3,0.5,0.5,0.5c0.2,0,0.5-0.1,0.5-0.5V7.8H63.5z M60.4,5.8h1V5.3c0-0.5-0.3-0.6-0.5-0.6
		c-0.2,0-0.5,0.1-0.5,0.6V5.8z"/>
	<path class="st0" d="M69.8,9.9h-2.2l-0.8-2.5h-0.4v2.5h-2V0.8h2v4.9h0.4l0.8-2.6h2.2l-1.3,3.4L69.8,9.9z"/>
</g>
</svg>
