<?xml version="1.0" encoding="utf-8"?>
<!-- Generator: Adobe Illustrator 23.1.1, SVG Export Plug-In . SVG Version: 6.00 Build 0)  -->
<svg version="1.1" id="Laag_1" xmlns="http://www.w3.org/2000/svg" xmlns:xlink="http://www.w3.org/1999/xlink" x="0px" y="0px"
	 width="101.8px" height="48.2px" viewBox="0 0 101.8 48.2" style="enable-background:new 0 0 101.8 48.2;" xml:space="preserve">
<style type="text/css">
	.st0{fill:none;}
	.st1{fill:#252422;}
</style>
<g>
	<path class="st0" d="M31.9,7.8c0.6,0,1.1-0.5,1.1-1.1V4.9c0-0.6-0.5-1.1-1.1-1.1c-0.6,0-1.1,0.5-1.1,1.1v1.8
		C30.8,7.3,31.3,7.8,31.9,7.8z"/>
	<path class="st0" d="M58.8,20.2c-0.6,0-1.1,0.5-1.1,1.1v3.3c0,0.4,0,0.6,0.1,0.6c0.1,0.1,0.3,0.1,0.7,0.1h0.7c0.4,0,0.6,0,0.6-0.1
		c0.1-0.1,0.1-0.3,0.1-0.6v-3.3C59.9,20.7,59.4,20.2,58.8,20.2z"/>
	<path class="st0" d="M37.2,25c-0.6,0-1.1,0.5-1.1,1.1v1.8c0,0.6,0.5,1.1,1.1,1.1s1.1-0.5,1.1-1.1v-1.8C38.3,25.5,37.8,25,37.2,25z"
		/>
	<path class="st0" d="M45,3.8c-0.6,0-1.1,0.5-1.1,1.1v6.6c0,0.6,0.5,1.1,1.1,1.1c0.6,0,1.1-0.5,1.1-1.1V4.9
		C46.1,4.3,45.6,3.8,45,3.8z"/>
	<path class="st0" d="M80,12.6h0.8c0.6,0,1.1-0.5,1.1-1.1v-1.1c0-0.6-0.5-1.1-1.1-1.1h-0.4H80c-0.4,0-0.6,0-0.7,0.1
		c-0.1,0.1-0.1,0.3-0.1,0.7v1.8c0,0.4,0,0.6,0.1,0.7C79.4,12.6,79.6,12.6,80,12.6z"/>
	<path class="st0" d="M80,7.1h0.4c0.6,0,1.1-0.5,1.1-1.1V4.9c0-0.6-0.5-1.1-1.1-1.1H80c-0.4,0-0.6,0-0.6,0.1
		c-0.1,0.1-0.1,0.3-0.1,0.6v1.9c0,0.4,0,0.5,0.1,0.6C79.4,7.1,79.6,7.1,80,7.1z"/>
	<path class="st0" d="M52.4,2.3v2.2c0,0.2,0,0.3,0.1,0.3c0,0,0.1-0.1,0.2-0.3L54,2.3c0.2-0.3,0.3-0.5,0.5-0.6
		c0.2-0.1,0.5-0.2,0.9-0.2h-3.7c0.3,0,0.5,0,0.6,0.1C52.4,1.7,52.4,1.9,52.4,2.3z"/>
	<path class="st0" d="M97.4,7.1h0.3c0.6,0,1.1-0.5,1.1-1.1V4.9c0-0.6-0.5-1.1-1.1-1.1h-0.4c-0.4,0-0.6,0-0.7,0.1
		c-0.1,0.1-0.1,0.3-0.1,0.6v1.9c0,0.3,0,0.5,0.1,0.6C96.7,7.1,96.9,7.1,97.4,7.1z"/>
	<path class="st0" d="M80.9,36.6c-0.6,0-1.1,0.5-1.1,1.1v6.6c0,0.6,0.5,1.1,1.1,1.1c0.6,0,1.1-0.5,1.1-1.1v-6.6
		C82,37.1,81.5,36.6,80.9,36.6z"/>
	<path class="st0" d="M71.9,12.6c0.6,0,1.1-0.5,1.1-1.1V4.9c0-0.6-0.5-1.1-1.1-1.1s-1.1,0.5-1.1,1.1v6.6
		C70.8,12.1,71.3,12.6,71.9,12.6z"/>
	<path class="st0" d="M94.7,21.3c0-0.6-0.5-1.1-1.1-1.1h-0.4c-0.4,0-0.6,0-0.7,0.1c-0.1,0.1-0.1,0.3-0.1,0.6v1.9
		c0,0.3,0,0.5,0.1,0.6c0.1,0.1,0.3,0.1,0.8,0.1h0.3c0.6,0,1.1-0.5,1.1-1.1V21.3z"/>
	<path class="st0" d="M97.9,36.6c-0.6,0-1.1,0.5-1.1,1.1v6.6c0,0.6,0.5,1.1,1.1,1.1s1.1-0.5,1.1-1.1v-6.6
		C99,37.1,98.5,36.6,97.9,36.6z"/>
	<path class="st0" d="M86.2,24.6v-3.3c0-0.6-0.5-1.1-1.1-1.1S84,20.7,84,21.3v3.3c0,0.4,0,0.6,0.1,0.6c0.1,0.1,0.3,0.1,0.7,0.1h0.7
		c0.4,0,0.6,0,0.6-0.1C86.2,25.1,86.2,25,86.2,24.6z"/>
	<path class="st1" d="M89.4,34.4c-1.8,0-3.3,1.5-3.3,3.3v0.5c0,0.3,0,0.5,0.1,0.6s0.3,0.1,0.6,0.1h0.7c0.4,0,0.6,0,0.7-0.1
		c0.1-0.1,0.1-0.3,0.1-0.6v-0.4c0-0.6,0.5-1.1,1.1-1.1c0.6,0,1.1,0.5,1.1,1.1v1.8c0,0.6-0.5,1.1-1.1,1.1c-1.8,0-3.3,1.5-3.3,3.3v2.9
		c0,0.4,0,0.6,0.1,0.6s0.3,0.1,0.6,0.1H92c0.4,0,0.6,0,0.6-0.1c0.1-0.1,0.1-0.3,0.1-0.6v-0.7c0-0.4,0-0.6-0.1-0.7
		c-0.1-0.1-0.3-0.1-0.6-0.1H89c-0.4,0-0.6,0-0.7-0.1c-0.1-0.1-0.1-0.3-0.1-0.6v-0.8c0-0.6,0.5-1.1,1.1-1.1c1.8,0,3.3-1.5,3.3-3.3
		v-1.8C92.7,35.9,91.2,34.4,89.4,34.4z"/>
	<path class="st1" d="M97.9,34.4c-1.8,0-3.3,1.5-3.3,3.3v6.6c0,1.8,1.5,3.3,3.3,3.3c1.8,0,3.3-1.5,3.3-3.3v-6.6
		C101.2,35.9,99.7,34.4,97.9,34.4z M99,44.3c0,0.6-0.5,1.1-1.1,1.1s-1.1-0.5-1.1-1.1v-6.6c0-0.6,0.5-1.1,1.1-1.1s1.1,0.5,1.1,1.1
		V44.3z"/>
	<path class="st1" d="M80.9,34.4c-1.8,0-3.3,1.5-3.3,3.3v6.6c0,1.8,1.5,3.3,3.3,3.3c1.8,0,3.3-1.5,3.3-3.3v-6.6
		C84.3,35.9,82.8,34.4,80.9,34.4z M82,44.3c0,0.6-0.5,1.1-1.1,1.1c-0.6,0-1.1-0.5-1.1-1.1v-6.6c0-0.6,0.5-1.1,1.1-1.1
		c0.6,0,1.1,0.5,1.1,1.1V44.3z"/>
	<path class="st1" d="M72.5,34.4c-1.8,0-3.3,1.5-3.3,3.3v0.5c0,0.3,0,0.5,0.1,0.6c0.1,0.1,0.3,0.1,0.6,0.1h0.7c0.4,0,0.6,0,0.7-0.1
		c0.1-0.1,0.1-0.3,0.1-0.6v-0.4c0-0.6,0.5-1.1,1.1-1.1s1.1,0.5,1.1,1.1v1.8c0,0.6-0.5,1.1-1.1,1.1c-1.8,0-3.3,1.5-3.3,3.3v2.9
		c0,0.4,0,0.6,0.1,0.6c0.1,0.1,0.3,0.1,0.6,0.1H75c0.4,0,0.6,0,0.6-0.1c0.1-0.1,0.1-0.3,0.1-0.6v-0.7c0-0.4,0-0.6-0.1-0.7
		c-0.1-0.1-0.3-0.1-0.6-0.1h-2.9c-0.4,0-0.6,0-0.7-0.1c-0.1-0.1-0.1-0.3-0.1-0.6v-0.8c0-0.6,0.5-1.1,1.1-1.1c1.8,0,3.3-1.5,3.3-3.3
		v-1.8C75.8,35.9,74.3,34.4,72.5,34.4z"/>
	<path class="st1" d="M100.5,18h-0.7c-0.4,0-0.6,0-0.7,0.1C99,18.2,99,18.3,99,18.7v11.8c0,0.4,0,0.5,0.1,0.6
		c0.1,0.1,0.3,0.1,0.7,0.1h0.7c0.4,0,0.5,0,0.6-0.1c0.1-0.1,0.1-0.3,0.1-0.6V18.7c0-0.4,0-0.6-0.1-0.6C101,18,100.8,18,100.5,18z"/>
	<path class="st1" d="M95,31.1c0.1,0.1,0.4,0.1,0.7,0.1h0.9c0.4,0,0.5,0,0.6-0.2c0.1-0.1,0-0.4-0.2-0.8l-2.1-4.8
		c1.2-0.5,2.1-1.7,2.1-3.1v-1.1c0-1.8-1.5-3.3-3.3-3.3h-2.5c-0.4,0-0.6,0-0.7,0.1c-0.1,0.1-0.1,0.3-0.1,0.6v11.8
		c0,0.4,0,0.5,0.1,0.6c0.1,0.1,0.3,0.1,0.7,0.1h0.7c0.4,0,0.5,0,0.6-0.1c0.1-0.1,0.1-0.3,0.1-0.6v-4.1c0-0.2,0-0.3,0.1-0.3
		c0.1,0,0.2,0.2,0.3,0.4l1.8,4C94.8,30.8,94.8,31,95,31.1z M93.6,23.5h-0.3c-0.5,0-0.7,0-0.8-0.1c-0.1-0.1-0.1-0.3-0.1-0.6v-1.9
		c0-0.3,0-0.5,0.1-0.6c0.1-0.1,0.3-0.1,0.7-0.1h0.4c0.6,0,1.1,0.5,1.1,1.1v1.1C94.7,23,94.2,23.5,93.6,23.5z"/>
	<path class="st1" d="M6.3,21.8H2.2c-0.2,0-0.4,0-0.4,0.1c-0.1,0.1-0.1,0.2-0.1,0.5v0.5c0,0.2,0,0.4,0.1,0.4
		c0.1,0.1,0.2,0.1,0.5,0.1h0.7c0.2,0,0.4,0,0.5,0c0.1,0.1,0.1,0.2,0.1,0.5v6.9c0,0.2,0,0.4,0.1,0.4c0.1,0.1,0.2,0.1,0.5,0.1h0.5
		c0.2,0,0.4,0,0.4-0.1C5,31.2,5,31.1,5,30.8V24c0-0.3,0-0.4,0.1-0.5c0.1-0.1,0.2-0.1,0.5-0.1h0.7c0.3,0,0.4,0,0.5-0.1
		s0.1-0.2,0.1-0.4v-0.5c0-0.3,0-0.4-0.1-0.5C6.7,21.8,6.6,21.8,6.3,21.8z"/>
	<path class="st1" d="M80,27.9v-9.2c0-0.4,0-0.6-0.1-0.6C79.8,18,79.6,18,79.2,18h-0.6c-0.4,0-0.6,0-0.7,0.1
		c-0.1,0.1-0.1,0.3-0.1,0.6v9.3c0,0.6-0.5,1.1-1.1,1.1s-1.1-0.5-1.1-1.1v-9.3c0-0.4,0-0.5-0.1-0.6C75.4,18,75.2,18,74.9,18h-0.7
		c-0.4,0-0.6,0-0.7,0.1c-0.1,0.1-0.1,0.3-0.1,0.6v9.2c0,1.8,1.5,3.3,3.3,3.3C78.5,31.2,80,29.7,80,27.9z"/>
	<path class="st1" d="M12.4,21.8h-0.5c-0.2,0-0.4,0-0.5,0.1c-0.1,0.1-0.1,0.2-0.2,0.4l-2.9,8.4c-0.1,0.2-0.1,0.3-0.1,0.4
		c0,0.1,0.2,0.1,0.5,0.1h0.6c0.2,0,0.4,0,0.4-0.1c0.1-0.1,0.1-0.2,0.2-0.4l2.9-8.4c0.1-0.2,0.1-0.3,0-0.4
		C12.8,21.9,12.6,21.8,12.4,21.8z"/>
	<path class="st1" d="M58.8,18c-1.8,0-3.3,1.5-3.3,3.3v9.2c0,0.4,0,0.5,0.1,0.6c0.1,0.1,0.3,0.1,0.7,0.1H57c0.3,0,0.5,0,0.6-0.1
		c0.1-0.1,0.1-0.2,0.1-0.6v-2.2c0-0.4,0-0.6,0.1-0.6c0.1-0.1,0.3-0.1,0.6-0.1h0.7c0.4,0,0.6,0,0.7,0.1c0.1,0.1,0.1,0.3,0.1,0.7v2.2
		c0,0.3,0,0.5,0.1,0.6c0.1,0.1,0.3,0.1,0.7,0.1h0.6c0.4,0,0.6,0,0.7-0.1c0.1-0.1,0.1-0.3,0.1-0.6v-9.2C62.1,19.5,60.6,18,58.8,18z
		 M59.9,24.6c0,0.4,0,0.6-0.1,0.6c-0.1,0.1-0.3,0.1-0.6,0.1h-0.7c-0.4,0-0.6,0-0.7-0.1c-0.1-0.1-0.1-0.3-0.1-0.6v-3.3
		c0-0.6,0.5-1.1,1.1-1.1s1.1,0.5,1.1,1.1V24.6z"/>
	<path class="st1" d="M86.2,28.3v2.2c0,0.3,0,0.5,0.1,0.6c0.1,0.1,0.3,0.1,0.7,0.1h0.6c0.4,0,0.6,0,0.7-0.1c0.1-0.1,0.1-0.3,0.1-0.6
		v-9.2c0-1.8-1.5-3.3-3.3-3.3c-1.8,0-3.3,1.5-3.3,3.3v9.2c0,0.4,0,0.5,0.1,0.6c0.1,0.1,0.3,0.1,0.7,0.1h0.7c0.3,0,0.5,0,0.6-0.1
		c0.1-0.1,0.1-0.2,0.1-0.6v-2.2c0-0.4,0-0.6,0.1-0.6c0.1-0.1,0.3-0.1,0.6-0.1h0.7c0.4,0,0.6,0,0.7,0.1
		C86.2,27.7,86.2,27.9,86.2,28.3z M84.8,25.3c-0.4,0-0.6,0-0.7-0.1C84,25.1,84,24.9,84,24.6v-3.3c0-0.6,0.5-1.1,1.1-1.1
		s1.1,0.5,1.1,1.1v3.3c0,0.4,0,0.6-0.1,0.6c-0.1,0.1-0.3,0.1-0.6,0.1H84.8z"/>
	<path class="st1" d="M70.1,31.2h0.7c0.4,0,0.5,0,0.6-0.1c0.1-0.1,0.1-0.3,0.1-0.6V18.7c0-0.4,0-0.6-0.1-0.6
		C71.3,18,71.1,18,70.8,18h-0.7c-0.4,0-0.6,0-0.7,0.1c-0.1,0.1-0.1,0.3-0.1,0.6v5.8c0,0.3,0,0.5-0.1,0.5c-0.1,0-0.1-0.1-0.3-0.5
		l-2.4-5.7c-0.1-0.2-0.1-0.4-0.2-0.5c0-0.1-0.1-0.2-0.2-0.2C66,18,65.8,18,65.4,18h-0.7c-0.4,0-0.6,0-0.7,0.1
		c-0.1,0.1-0.1,0.3-0.1,0.6v11.8c0,0.4,0,0.5,0.1,0.6c0.1,0.1,0.3,0.1,0.7,0.1h0.7c0.4,0,0.5,0,0.6-0.1c0.1-0.1,0.1-0.3,0.1-0.6
		v-5.8c0-0.3,0-0.5,0.1-0.5c0.1,0,0.2,0.2,0.3,0.5l2.6,5.9c0.1,0.2,0.2,0.5,0.3,0.6C69.5,31.2,69.7,31.2,70.1,31.2z"/>
	<path class="st1" d="M52.9,18h-4.4c-0.4,0-0.6,0-0.7,0.1c-0.1,0.1-0.1,0.3-0.1,0.6v0.8c0,0.3,0,0.5,0.1,0.6
		c0.1,0.1,0.3,0.1,0.7,0.1h2.2c0.4,0,0.5,0,0.6,0.1c0.1,0.1,0.1,0.3,0.1,0.7v7c0,0.6-0.5,1.1-1.1,1.1s-1.1-0.5-1.1-1.1v-0.3
		c0-0.4,0-0.6-0.1-0.7c-0.1-0.1-0.3-0.1-0.7-0.1h-0.6c-0.4,0-0.6,0-0.7,0.1C47,27,47,27.2,47,27.5v0.4c0,1.8,1.5,3.3,3.3,3.3
		s3.3-1.5,3.3-3.3v-9.2c0-0.4,0-0.5-0.1-0.6C53.4,18,53.3,18,52.9,18z"/>
	<path class="st1" d="M28.8,18c-1.8,0-3.3,1.5-3.3,3.3v0.5c0,0.3,0,0.5,0.1,0.6c0.1,0.1,0.3,0.1,0.6,0.1h0.7c0.4,0,0.6,0,0.7-0.1
		c0.1-0.1,0.1-0.3,0.1-0.6v-0.4c0-0.6,0.5-1.1,1.1-1.1c0.6,0,1.1,0.5,1.1,1.1v1.8c0,0.6-0.5,1.1-1.1,1.1c-1.8,0-3.3,1.5-3.3,3.3v2.9
		c0,0.4,0,0.6,0.1,0.6c0.1,0.1,0.3,0.1,0.6,0.1h5.2c0.4,0,0.6,0,0.6-0.1c0.1-0.1,0.1-0.3,0.1-0.6v-0.7c0-0.4,0-0.6-0.1-0.7
		C31.9,29,31.7,29,31.3,29h-2.9c-0.4,0-0.6,0-0.7-0.1c-0.1-0.1-0.1-0.3-0.1-0.6v-0.8c0-0.6,0.5-1.1,1.1-1.1c1.8,0,3.3-1.5,3.3-3.3
		v-1.8C32.1,19.5,30.6,18,28.8,18z"/>
	<path class="st1" d="M20,21.8h-0.5c-0.2,0-0.3,0-0.4,0c0,0-0.1,0.1-0.1,0.1c0,0.1-0.1,0.1-0.1,0.2L17.6,26
		c-0.1,0.2-0.1,0.4-0.2,0.4c-0.1,0-0.1-0.1-0.2-0.4l-1.4-3.7c0-0.1-0.1-0.2-0.1-0.2c0-0.1-0.1-0.1-0.1-0.1c-0.1,0-0.1,0-0.2,0h-0.2
		h-0.5c-0.3,0-0.4,0-0.5,0.1c-0.1,0.1-0.1,0.2-0.1,0.4v8.3c0,0.2,0,0.4,0.1,0.4c0.1,0.1,0.2,0.1,0.5,0.1h0.5c0.2,0,0.4,0,0.4-0.1
		c0.1-0.1,0.1-0.2,0.1-0.5v-3.6c0-0.2,0-0.3,0.1-0.3c0,0,0.1,0.1,0.2,0.3l1,3c0.1,0.1,0.1,0.2,0.2,0.2c0.1,0,0.1,0.1,0.3,0.1
		c0.2,0,0.2,0,0.3-0.1c0.1,0,0.1-0.1,0.1-0.2l1-3c0.1-0.2,0.1-0.3,0.2-0.3c0,0,0.1,0.1,0.1,0.3v3.6c0,0.3,0,0.4,0.1,0.5
		c0.1,0.1,0.2,0.1,0.4,0.1H20c0.3,0,0.4,0,0.5-0.1c0.1-0.1,0.1-0.2,0.1-0.4v-8.3c0-0.2,0-0.4-0.1-0.4C20.5,21.8,20.3,21.8,20,21.8z"
		/>
	<path class="st1" d="M37.2,22.8c-0.6,0.1-0.9,0.1-1-0.1c-0.1-0.1-0.1-0.3-0.1-0.7v-0.7c0-0.6,0.5-1.1,1.1-1.1c0.4,0,0.8,0.3,1,0.6
		c0.1,0.2,0.1,0.3,0.2,0.4c0.1,0.1,0.2,0.1,0.6,0.1h0.9c0.3,0,0.5,0,0.6-0.1c0.1-0.1,0.1-0.2,0-0.5c-0.1-0.7-0.5-1.4-1.1-1.9
		c-0.6-0.5-1.4-0.8-2.2-0.8c-1.8,0-3.3,1.5-3.3,3.3v6.6c0,1.8,1.5,3.3,3.3,3.3c1.8,0,3.3-1.5,3.3-3.3v-1.8
		C40.5,24.2,39.1,22.8,37.2,22.8z M38.3,27.9c0,0.6-0.5,1.1-1.1,1.1s-1.1-0.5-1.1-1.1v-1.8c0-0.6,0.5-1.1,1.1-1.1s1.1,0.5,1.1,1.1
		V27.9z"/>
	<path class="st1" d="M77.8,14.8h2.9c1.8,0,3.3-1.5,3.3-3.3v-1.1c0-0.7-0.2-1.4-0.7-2c-0.1-0.2-0.2-0.3-0.2-0.4
		c0-0.1,0.1-0.3,0.1-0.5c0.2-0.4,0.4-1,0.4-1.5V4.9c0-1.8-1.5-3.3-3.3-3.3h-2.6c-0.4,0-0.6,0-0.7,0.1C77,1.8,77,1.9,77,2.3v11.8
		c0,0.4,0,0.5,0.1,0.6C77.2,14.8,77.4,14.8,77.8,14.8z M79.2,4.5c0-0.4,0-0.5,0.1-0.6c0.1-0.1,0.3-0.1,0.6-0.1h0.4
		c0.6,0,1.1,0.5,1.1,1.1V6c0,0.6-0.5,1.1-1.1,1.1H80c-0.4,0-0.6,0-0.7-0.1c-0.1-0.1-0.1-0.3-0.1-0.6V4.5z M79.2,10.1
		c0-0.4,0-0.6,0.1-0.7c0.1-0.1,0.3-0.1,0.7-0.1h0.3h0.4c0.6,0,1.1,0.5,1.1,1.1v1.1c0,0.6-0.5,1.1-1.1,1.1H80c-0.4,0-0.6,0-0.6-0.1
		c-0.1-0.1-0.1-0.3-0.1-0.7V10.1z"/>
	<path class="st1" d="M86.7,14.8h5c0.4,0,0.6,0,0.7-0.1c0.1-0.1,0.1-0.3,0.1-0.7v-0.7c0-0.4,0-0.6-0.1-0.7c-0.1-0.1-0.3-0.1-0.6-0.1
		h-2.9c-0.4,0-0.6,0-0.7-0.1c-0.1-0.1-0.1-0.3-0.1-0.7V10c0-0.4,0-0.5,0.1-0.6c0.1-0.1,0.3-0.1,0.6-0.1h2.6c0.3,0,0.5,0,0.6-0.1
		c0.1-0.1,0.1-0.3,0.1-0.6V7.9c0-0.4,0-0.6-0.1-0.7c-0.1-0.1-0.3-0.1-0.6-0.1h-2.5c-0.5,0-0.7,0-0.8-0.1c-0.1-0.1-0.1-0.3-0.1-0.6
		V4.5c0-0.4,0-0.6,0.1-0.7c0.1-0.1,0.3-0.1,0.6-0.1h3c0.3,0,0.5,0,0.6-0.1c0.1-0.1,0.1-0.3,0.1-0.7V2.3c0-0.4,0-0.6-0.1-0.7
		c-0.1-0.1-0.3-0.1-0.6-0.1h-5.2c-0.4,0-0.6,0-0.7,0.1c-0.1,0.1-0.1,0.3-0.1,0.6v11.8c0,0.4,0,0.5,0.1,0.6
		C86,14.8,86.2,14.8,86.7,14.8z"/>
	<path class="st1" d="M95.1,14.8h0.7c0.4,0,0.5,0,0.6-0.1c0.1-0.1,0.1-0.3,0.1-0.6V10c0-0.2,0-0.3,0.1-0.3c0.1,0,0.2,0.2,0.3,0.4
		l1.8,4c0.1,0.3,0.2,0.5,0.4,0.6c0.1,0.1,0.4,0.1,0.7,0.1h0.9c0.4,0,0.5,0,0.6-0.2c0.1-0.1,0-0.4-0.2-0.8l-2.1-4.8
		c1.2-0.5,2.1-1.7,2.1-3.1V4.9c0-1.8-1.5-3.3-3.3-3.3h-2.6c-0.4,0-0.6,0-0.7,0.1c-0.1,0.1-0.1,0.3-0.1,0.6v11.8c0,0.4,0,0.5,0.1,0.6
		C94.5,14.8,94.7,14.8,95.1,14.8z M96.6,4.4c0-0.3,0-0.5,0.1-0.6c0.1-0.1,0.3-0.1,0.7-0.1h0.4c0.6,0,1.1,0.5,1.1,1.1V6
		c0,0.6-0.5,1.1-1.1,1.1h-0.3c-0.5,0-0.7,0-0.8-0.1c-0.1-0.1-0.1-0.3-0.1-0.6V4.4z"/>
	<path class="st1" d="M31.9,10c0.6-0.1,0.9-0.1,1,0.1c0.1,0.1,0.1,0.3,0.1,0.7v0.7c0,0.6-0.5,1.1-1.1,1.1c-0.4,0-0.8-0.3-1-0.6
		c-0.1-0.2-0.1-0.3-0.2-0.4c-0.1-0.1-0.2-0.1-0.6-0.1h-0.9c-0.3,0-0.5,0-0.6,0.1c-0.1,0.1-0.1,0.2,0,0.5c0.1,0.7,0.5,1.4,1.1,1.9
		c0.6,0.5,1.4,0.8,2.2,0.8c1.8,0,3.3-1.5,3.3-3.3V4.9c0-1.8-1.5-3.3-3.3-3.3h0c-1.8,0-3.3,1.5-3.3,3.3v1.8C28.6,8.5,30.1,10,31.9,10
		z M30.8,4.9c0-0.6,0.5-1.1,1.1-1.1c0.6,0,1.1,0.5,1.1,1.1v1.8c0,0.6-0.5,1.1-1.1,1.1c-0.6,0-1.1-0.5-1.1-1.1V4.9z"/>
	<path class="st1" d="M71.9,14.8c1.8,0,3.3-1.5,3.3-3.3V4.9c0-1.8-1.5-3.3-3.3-3.3h0c-1.8,0-3.3,1.5-3.3,3.3v6.6
		C68.6,13.3,70,14.8,71.9,14.8z M70.8,4.9c0-0.6,0.5-1.1,1.1-1.1S73,4.3,73,4.9v6.6c0,0.6-0.5,1.1-1.1,1.1s-1.1-0.5-1.1-1.1V4.9z"/>
	<path class="st1" d="M48.3,11.5V4.9c0-1.8-1.5-3.3-3.3-3.3h0c-1.8,0-3.3,1.5-3.3,3.3v6.6c0,1.8,1.5,3.3,3.3,3.3
		C46.8,14.8,48.3,13.3,48.3,11.5z M46.1,11.5c0,0.6-0.5,1.1-1.1,1.1c-0.6,0-1.1-0.5-1.1-1.1V4.9c0-0.6,0.5-1.1,1.1-1.1
		c0.6,0,1.1,0.5,1.1,1.1V11.5z"/>
	<path class="st1" d="M26.7,14.7c0.1-0.1,0.1-0.3,0.1-0.6V2.3c0-0.4,0-0.6-0.1-0.6c-0.1-0.1-0.3-0.1-0.6-0.1h-0.9
		c-0.2,0-0.3,0-0.4,0c-0.1,0-0.2,0.1-0.3,0.1L23,2.3c-0.3,0.1-0.5,0.2-0.6,0.3c-0.1,0.1,0,0.3,0.1,0.7l0.2,0.7
		c0.1,0.3,0.2,0.5,0.3,0.5c0.1,0.1,0.3,0,0.6-0.1L24.6,4v10.1c0,0.4,0,0.5,0.1,0.6c0.1,0.1,0.3,0.1,0.7,0.1h0.7
		C26.4,14.8,26.6,14.8,26.7,14.7z"/>
	<path class="st1" d="M56.9,14.8c0.4,0,0.6,0,0.6-0.1c0.1-0.1,0-0.3-0.2-0.7L54,8.1c-0.1-0.3-0.2-0.5-0.3-0.6c0-0.2,0.1-0.4,0.2-0.6
		l2.4-4.4c0.2-0.4,0.3-0.6,0.2-0.8c-0.1-0.1-0.2-0.1-0.5-0.1h-0.7c-0.4,0-0.7,0.1-0.9,0.2C54.3,1.8,54.1,2,54,2.3l-1.3,2.3
		c-0.1,0.1-0.2,0.3-0.2,0.3c-0.1,0-0.1-0.1-0.1-0.3V2.3c0-0.4,0-0.6-0.1-0.6c-0.1-0.1-0.3-0.1-0.6-0.1h-0.8c-0.4,0-0.6,0-0.7,0.1
		c-0.1,0.1-0.1,0.3-0.1,0.6v11.8c0,0.4,0,0.5,0.1,0.6c0.1,0.1,0.3,0.1,0.7,0.1h0.7c0.4,0,0.5,0,0.6-0.1c0.1-0.1,0.1-0.3,0.1-0.6
		v-3.6c0-0.2,0-0.3,0.1-0.4c0.1,0,0.2,0.1,0.3,0.4l2,3.6c0.1,0.3,0.3,0.4,0.4,0.5c0.2,0.2,0.4,0.2,0.9,0.2H56.9z"/>
	<path class="st1" d="M64.1,14.3V4.6c0-0.4,0-0.6,0.1-0.7c0.1-0.1,0.3-0.1,0.7-0.1h1c0.4,0,0.6,0,0.6-0.1c0.1-0.1,0.1-0.3,0.1-0.6
		V2.4c0-0.4,0-0.6-0.1-0.7c-0.1-0.1-0.3-0.1-0.6-0.1h-6c-0.3,0-0.5,0-0.6,0.1c-0.1,0.1-0.1,0.3-0.1,0.7v0.7c0,0.4,0,0.5,0.1,0.6
		c0.1,0.1,0.3,0.1,0.6,0.1h1.1c0.4,0,0.5,0,0.6,0.1c0.1,0.1,0.1,0.3,0.1,0.7v9.8c0,0.4,0,0.5,0.1,0.6c0.1,0.1,0.3,0.1,0.7,0.1h0.7
		c0.4,0,0.5,0,0.6-0.1C64.1,14.8,64.1,14.6,64.1,14.3z"/>
</g>
</svg>
