<?xml version="1.0" encoding="utf-8"?>
<!-- Generator: Adobe Illustrator 22.1.0, SVG Export Plug-In . SVG Version: 6.00 Build 0)  -->
<svg version="1.1" id="Laag_1" xmlns="http://www.w3.org/2000/svg" xmlns:xlink="http://www.w3.org/1999/xlink" x="0px" y="0px"
	 viewBox="0 0 158.9 65.9" style="enable-background:new 0 0 158.9 65.9;" xml:space="preserve">
<style type="text/css">
	.st0{enable-background:new    ;}
	.st1{fill:#F8E934;}
</style>
<text transform="matrix(1 0 0 1 576.1063 147.3257)" class="st1" style="font-family:'FuturaHEMAProOT-Bold'; font-size:12px;"> </text>
<g>
	<path class="st1" d="M22.5,19.8h-4.9l-3.4-11l-3.3,11H6L0,1.5h4.9l3.7,12.2l3.9-12.2h3.4l3.9,12.1l3.7-12.1h4.8L22.5,19.8z"/>
	<path class="st1" d="M39.9,20.5c-5.9,0-10.1-4.2-10.1-9.9c0-5.9,4.6-9.8,10.1-9.8C45.6,0.8,50,5,50,10.5
		C50,16.4,45.5,20.5,39.9,20.5z M39.9,5.3c-3.1,0-5.3,2.3-5.3,5.4s2.1,5.3,5.2,5.3c3.1,0,5.3-2.3,5.3-5.5C45.2,7.6,43,5.3,39.9,5.3z
		"/>
	<path class="st1" d="M57,19.8l8-9.2c0.7-0.8,1.7-2.3,1.7-3.6s-0.9-2.2-2.3-2.2c-1.7,0-2.3,1.2-2.3,3h-4.7c0-4.1,2.5-7.1,7.2-7.1
		c3.8,0,6.8,2.7,6.8,6.3c0,3.7-2.8,6.3-5.7,8.9h6.1v3.9H57z"/>
	<path class="st1" d="M82.5,20.5c-5.1,0-9-4-9-9.6c0-6.2,3.7-10.1,9-10.1c5.1,0,8.8,4,8.8,9.7C91.3,16.4,87.7,20.5,82.5,20.5z
		 M82.3,4.9c-2.8,0-4,2.3-4,5.8s1.5,5.7,4.3,5.7c2.7,0,4-2.3,4-5.7C86.5,7.2,85.1,4.9,82.3,4.9z"/>
	<path class="st1" d="M101.9,20.2c-2,0-3.4-0.7-5.5-2.6l2.9-2.8c0,0,1,1.3,2.1,1.3c1.2,0,1.4-0.6,1.4-2.4V1.5h4.8v12.3
		C107.6,17.7,105.6,20.2,101.9,20.2z"/>
	<path class="st1" d="M119.7,20.4c-4,0-8-2.1-8-6.6V1.5h4.8v11.2c0,2.4,1.5,3.3,3.3,3.3c1.7,0,3.3-0.9,3.3-3.1V1.5h4.8v11.7
		C127.9,17.4,125,20.4,119.7,20.4z"/>
	<path class="st1" d="M145.2,19.8l-8.4-10.9v10.9H132V1.5h4.8l8.6,10.9V1.5h4.6v18.3C150,19.8,145.2,19.8,145.2,19.8z"/>
	<path class="st1" d="M154.1,19.8V1.5h4.8v18.3C158.9,19.8,154.1,19.8,154.1,19.8z"/>
	<path class="st1" d="M77.8,34.9v-4.1h8.8v4.1H77.8z"/>
	<path class="st1" d="M31.8,61.4h8v4H24.2l8.2-14.2h-7.5V47h15.2L31.8,61.4z"/>
	<path class="st1" d="M55.2,65.3L54,61.9h-6.3l-1.2,3.4h-5.1L48.2,47h5.5l6.8,18.3H55.2z M50.8,52.6l-2,5.6h3.9L50.8,52.6z"/>
	<path class="st1" d="M72.9,65.3h-5.6l8.3-14.4h-7.7V47h15L72.9,65.3z"/>
	<path class="st1" d="M92.3,65.7c-2,0-3.4-0.7-5.5-2.6l2.9-2.8c0,0,1,1.3,2.1,1.3c1.2,0,1.4-0.6,1.4-2.4V47H98v12.3
		C98,63.2,96,65.7,92.3,65.7z"/>
	<path class="st1" d="M110.1,65.9c-4,0-8-2.1-8-6.6V47h4.8v11.2c0,2.4,1.5,3.3,3.3,3.3c1.7,0,3.3-0.9,3.3-3.1V47h4.8v11.7
		C118.3,62.9,115.4,65.9,110.1,65.9z"/>
	<path class="st1" d="M122.4,65.3V47h4.8v14.2h5.8v4.2h-10.6V65.3z"/>
	<path class="st1" d="M135.9,65.3V47h4.8v18.3C140.7,65.3,135.9,65.3,135.9,65.3z"/>
</g>
</svg>
