<?xml version="1.0" encoding="utf-8"?>
<!-- Generator: Adobe Illustrator 24.0.0, SVG Export Plug-In . SVG Version: 6.00 Build 0)  -->
<svg version="1.1" id="Laag_1" xmlns="http://www.w3.org/2000/svg" xmlns:xlink="http://www.w3.org/1999/xlink" x="0px" y="0px"
	 width="125.3px" height="57.8px" viewBox="0 0 125.3 57.8" style="enable-background:new 0 0 125.3 57.8;" xml:space="preserve">
<style type="text/css">
	.st0{fill:#FFFFFF;}
</style>
<g>
	<path class="st0" d="M2.5,27.9c-0.1,0-0.1,0-0.3,0c-0.6,0-1.1,0.4-1.2,1c0.1,0,0.2,0,0.3,0c0.7,0,1.3,0.5,1.3,1.2
		c0,0.7-0.6,1.2-1.3,1.2c-0.8,0-1.3-0.6-1.3-1.5c0-0.8,0.2-1.5,0.6-2c0.4-0.5,1-0.8,1.6-0.8c0.1,0,0.2,0,0.4,0L2.5,27.9z M5.7,27.9
		c-0.1,0-0.1,0-0.3,0c-0.6,0-1.1,0.4-1.2,1c0.1,0,0.2,0,0.3,0c0.7,0,1.3,0.5,1.3,1.2c0,0.7-0.6,1.2-1.3,1.2c-0.8,0-1.3-0.6-1.3-1.5
		c0-0.8,0.2-1.5,0.6-2c0.4-0.5,1-0.8,1.6-0.8c0.1,0,0.2,0,0.4,0L5.7,27.9z"/>
	<path class="st0" d="M14.1,34.5c0,2.3-1.7,4.1-4,4.1c-2.4,0-4-1.8-4-4.1c0-2.3,1.7-4.1,4-4.1C12.5,30.4,14.1,32.2,14.1,34.5z
		 M11.5,36.1c0.4-0.4,0.6-0.9,0.6-1.6s-0.2-1.1-0.6-1.6c-0.4-0.4-0.9-0.6-1.5-0.6c-1.2,0-2.1,0.9-2.1,2.2c0,1.3,0.9,2.2,2.1,2.2
		C10.7,36.7,11.2,36.5,11.5,36.1z"/>
	<path class="st0" d="M16.6,30.6l2.1,5.2l2.1-5.2h2.1l-3.1,7.7h-2.1l-3.1-7.7H16.6z"/>
	<path class="st0" d="M30.6,34.1V35h-5.5c0.2,1.1,1,1.8,2.1,1.8c0.9,0,1.6-0.6,1.8-1.4l1.8,0.3c-0.1,0.8-0.5,1.5-1.2,2.1
		c-0.7,0.5-1.5,0.8-2.4,0.8c-2.3,0-3.9-1.8-3.9-4.1s1.6-4.1,3.9-4.1C29.2,30.4,30.6,32,30.6,34.1z M28.8,33.5c0-0.8-0.8-1.4-1.8-1.4
		c-0.9,0-1.6,0.5-1.9,1.4H28.8z"/>
	<path class="st0" d="M32.1,30.6h2v0.7c0.5-0.6,1.1-0.9,2-0.9c1.5,0,2.3,1,2.3,3.2l-2,0.3c0-0.1,0-0.2,0-0.3c0-0.9-0.3-1.3-1-1.3
		c-0.8,0-1.3,0.7-1.3,2v4.2h-2V30.6z"/>
	<path class="st0" d="M45.1,31.4v-4.2h2v11.2h-2v-0.8c-0.6,0.7-1.4,1-2.4,1c-2.1,0-3.6-1.8-3.6-4.1c0-2.3,1.5-4.1,3.6-4.1
		C43.7,30.4,44.5,30.7,45.1,31.4z M45.1,34.5c0-1.3-0.8-2.2-2-2.2c-1.2,0-2,0.9-2,2.2c0,1.3,0.8,2.2,2,2.2
		C44.3,36.7,45.1,35.8,45.1,34.5z"/>
	<path class="st0" d="M56.5,34.5c0,2.3-1.7,4.1-4,4.1c-2.4,0-4-1.8-4-4.1c0-2.3,1.7-4.1,4-4.1C54.8,30.4,56.5,32.2,56.5,34.5z
		 M53.9,36.1c0.4-0.4,0.6-0.9,0.6-1.6s-0.2-1.1-0.6-1.6c-0.4-0.4-0.9-0.6-1.5-0.6c-1.2,0-2.1,0.9-2.1,2.2c0,1.3,0.9,2.2,2.1,2.2
		C53,36.7,53.5,36.5,53.9,36.1z"/>
	<path class="st0" d="M57.8,30.6h2v0.7c0.6-0.7,1.3-1,2.3-1c1.7,0,2.7,1.2,2.7,3v5h-2v-4.6c0-1.1-0.4-1.6-1.4-1.6
		c-1,0-1.6,0.8-1.6,2v4.2h-2V30.6z"/>
	<path class="st0" d="M72,31.4v-4.2h2v11.2h-2v-0.8c-0.6,0.7-1.4,1-2.4,1c-2.1,0-3.6-1.8-3.6-4.1c0-2.3,1.5-4.1,3.6-4.1
		C70.6,30.4,71.4,30.7,72,31.4z M72,34.5c0-1.3-0.8-2.2-2-2.2c-1.2,0-2,0.9-2,2.2c0,1.3,0.8,2.2,2,2.2C71.2,36.7,72,35.8,72,34.5z"
		/>
	<path class="st0" d="M82.7,34.1V35h-5.5c0.2,1.1,1,1.8,2.1,1.8c0.9,0,1.6-0.6,1.8-1.4l1.8,0.3c-0.1,0.8-0.5,1.5-1.2,2.1
		c-0.7,0.5-1.5,0.8-2.4,0.8c-2.3,0-3.9-1.8-3.9-4.1s1.6-4.1,3.9-4.1C81.3,30.4,82.7,32,82.7,34.1z M80.9,33.5c0-0.8-0.8-1.4-1.8-1.4
		c-0.9,0-1.6,0.5-1.9,1.4H80.9z"/>
	<path class="st0" d="M84.1,30.6h2v0.7c0.5-0.6,1.1-0.9,2-0.9c1.5,0,2.3,1,2.3,3.2l-2,0.3c0-0.1,0-0.2,0-0.3c0-0.9-0.3-1.3-1-1.3
		c-0.8,0-1.3,0.7-1.3,2v4.2h-2V30.6z"/>
	<path class="st0" d="M98.5,34.1V35H93c0.2,1.1,1,1.8,2.1,1.8c0.9,0,1.6-0.6,1.8-1.4l1.8,0.3c-0.1,0.8-0.5,1.5-1.2,2.1
		c-0.7,0.5-1.5,0.8-2.4,0.8c-2.3,0-3.9-1.8-3.9-4.1s1.6-4.1,3.9-4.1C97.1,30.4,98.5,32,98.5,34.1z M96.8,33.5c0-0.8-0.8-1.4-1.8-1.4
		c-0.9,0-1.6,0.5-1.9,1.4H96.8z"/>
	<path class="st0" d="M100,30.6h2v0.7c0.6-0.7,1.3-1,2.3-1c1.7,0,2.7,1.2,2.7,3v5h-2v-4.6c0-1.1-0.4-1.6-1.4-1.6c-1,0-1.6,0.8-1.6,2
		v4.2h-2V30.6z"/>
	<path class="st0" d="M114.3,31.4v-4.2h2v11.2h-2v-0.8c-0.6,0.7-1.4,1-2.4,1c-2.1,0-3.6-1.8-3.6-4.1c0-2.3,1.5-4.1,3.6-4.1
		C112.9,30.4,113.7,30.7,114.3,31.4z M114.3,34.5c0-1.3-0.8-2.2-2-2.2c-1.2,0-2,0.9-2,2.2c0,1.3,0.8,2.2,2,2.2
		C113.4,36.7,114.3,35.8,114.3,34.5z"/>
	<path class="st0" d="M117.7,30.5c0.1,0,0.1,0,0.3,0c0.6,0,1.1-0.4,1.2-1c-0.1,0-0.2,0-0.3,0c-0.7,0-1.3-0.5-1.3-1.2
		c0-0.7,0.6-1.2,1.3-1.2c0.8,0,1.3,0.6,1.3,1.5c0,0.8-0.2,1.5-0.6,2c-0.4,0.5-0.9,0.8-1.6,0.8c-0.1,0-0.2,0-0.4,0L117.7,30.5z
		 M120.9,30.5c0.1,0,0.1,0,0.3,0c0.6,0,1.1-0.4,1.2-1c-0.1,0-0.2,0-0.3,0c-0.7,0-1.3-0.5-1.3-1.2c0-0.7,0.6-1.2,1.3-1.2
		c0.8,0,1.3,0.6,1.3,1.5c0,0.8-0.2,1.5-0.6,2c-0.4,0.5-0.9,0.8-1.6,0.8c-0.1,0-0.2,0-0.4,0L120.9,30.5z"/>
	<path class="st0" d="M7.4,52.1h4.8v1.2H7.4V52.1z"/>
	<path class="st0" d="M24.1,51v-4.7h1.3v11.2h-1.3v-1.2c-0.6,0.9-1.6,1.4-2.8,1.4c-2.1,0-3.6-1.8-3.6-4s1.5-4.1,3.6-4.1
		C22.5,49.6,23.5,50.1,24.1,51z M24.1,53.7c0-1.6-1.1-2.9-2.6-2.9c-1.5,0-2.6,1.2-2.6,2.9c0,1.6,1.1,2.8,2.6,2.8
		C23.1,56.5,24.1,55.3,24.1,53.7z"/>
	<path class="st0" d="M34.2,53.2v0.7h-5.9c0.1,1.7,1.1,2.7,2.6,2.7c1.2,0,2.1-0.8,2.3-1.9l1.2,0.2c-0.2,1.7-1.7,2.9-3.5,2.9
		c-2.3,0-3.9-1.7-3.9-4c0-2.3,1.5-4.1,3.7-4.1C32.8,49.6,34.2,51.1,34.2,53.2z M32.9,52.8c0-1.2-0.9-2-2.2-2c-1.2,0-2.2,0.8-2.5,2
		H32.9z"/>
	<path class="st0" d="M40.6,46.4l3.7,9.7l3.7-9.7h1.4l-4.3,11.2h-1.6l-4.3-11.2H40.6z"/>
	<path class="st0" d="M56.8,53.7c0,2.3-1.6,4-3.9,4c-2.3,0-4-1.8-4-4s1.6-4.1,4-4.1C55.1,49.6,56.8,51.4,56.8,53.7z M55.5,53.7
		c0-1.6-1.1-2.9-2.7-2.9c-1.5,0-2.7,1.2-2.7,2.9c0,1.6,1.1,2.8,2.7,2.8C54.3,56.5,55.5,55.3,55.5,53.7z"/>
	<path class="st0" d="M58.3,46.4h1.3v11.2h-1.3V46.4z"/>
	<path class="st0" d="M61.7,46.4h1.3v6.8l3.3-3.3h1.7l-3.2,3.2l3.4,4.4h-1.6L63.8,54l-0.8,0.8v2.7h-1.3V46.4z"/>
	<path class="st0" d="M69.6,54.5c0.1,1.2,1,2.1,2.2,2.1c1.1,0,1.8-0.5,1.8-1.3c0-0.6-0.5-1.1-2-1.2c-1.9-0.2-2.7-1-2.7-2.3
		c0-1.2,1.2-2.1,2.8-2.1c1.4,0,2.6,0.9,2.9,2.4l-1.2,0.4c-0.2-1-0.9-1.5-1.8-1.5c-0.9,0-1.5,0.4-1.5,0.9c0,0.6,0.4,1,1.6,1.1
		c2,0.2,3.1,1,3.1,2.4c0,1.4-1.3,2.5-3.1,2.5c-1.8,0-3.2-1.2-3.5-3L69.6,54.5z"/>
	<path class="st0" d="M76.4,46.4h1.3v6.8l3.3-3.3h1.7l-3.2,3.2l3.4,4.4h-1.6L78.5,54l-0.8,0.8v2.7h-1.3V46.4z"/>
	<path class="st0" d="M84.1,49.9h1.3v0.8c0.5-0.7,1.1-1.1,2-1.1c1.4,0,2.3,1,2.3,2.8v0.3l-1.3,0.2c0-0.1,0-0.2,0-0.4
		c0-1.1-0.5-1.7-1.4-1.7c-1,0-1.7,0.9-1.7,2.3v4.4h-1.3V49.9z"/>
	<path class="st0" d="M95.5,52.6v-0.4c0-0.9-0.7-1.5-1.8-1.5c-1.2,0-1.9,0.7-1.9,1.8c0,0.1,0,0.2,0,0.2l-1.2-0.1v-0.2
		c0-1.8,1.4-2.8,3-2.8c2,0,3.1,1,3.1,2.7v5.2h-1.2v-1c-0.4,0.7-1.2,1.2-2.3,1.2c-1.8,0-2.6-1.1-2.6-2.3c0-1.4,1-2.2,2.9-2.5
		L95.5,52.6z M95.5,54.2v-0.6l-2,0.3c-1.1,0.2-1.7,0.6-1.7,1.3c0,0.7,0.6,1.2,1.6,1.2C94.7,56.6,95.5,55.6,95.5,54.2z"/>
	<path class="st0" d="M98.8,49.9h1.3v1c0.6-0.8,1.4-1.2,2.5-1.2c1.7,0,2.7,1.1,2.7,2.9v5H104v-4.7c0-1.3-0.6-2-1.8-2
		c-1.3,0-2.2,1-2.2,2.6v4.1h-1.3V49.9z"/>
	<path class="st0" d="M106.3,49.9h1.5v-2.3h1.3v2.3h4V51h-4v3.9c0,1.1,0.6,1.7,1.5,1.7c1,0,1.5-0.8,1.5-1.9l1.2,0.1
		c0.1,1.8-1.1,3-2.7,3c-1.8,0-2.9-1.1-2.9-2.9V51h-1.5V49.9z"/>
</g>
<path class="st0" d="M15.4,0l2.6,8.1h8.6l-6.9,5l2.6,8.1l-6.9-5l-6.9,5l2.6-8.1l-6.9-5h8.6L15.4,0z"/>
<path class="st0" d="M40,0l2.6,8.1h8.6l-6.9,5l2.6,8.1l-6.9-5l-6.9,5l2.6-8.1l-6.9-5h8.6L40,0z"/>
<path class="st0" d="M64.6,0l2.6,8.1h8.6l-6.9,5l2.6,8.1l-6.9-5l-6.9,5l2.6-8.1l-6.9-5h8.6L64.6,0z"/>
<path class="st0" d="M89.2,0l2.6,8.1h8.6l-6.9,5l2.6,8.1l-6.9-5l-6.9,5l2.6-8.1l-6.9-5h8.6L89.2,0z"/>
<path class="st0" d="M113.8,0l2.6,8.1h8.6l-6.9,5l2.6,8.1l-6.9-5l-6.9,5l2.6-8.1l-6.9-5h8.6L113.8,0z"/>
</svg>
