<?xml version="1.0" encoding="utf-8"?>
<!-- Generator: Adobe Illustrator 24.0.0, SVG Export Plug-In . SVG Version: 6.00 Build 0)  -->
<svg version="1.1" id="Laag_1" xmlns="http://www.w3.org/2000/svg" xmlns:xlink="http://www.w3.org/1999/xlink" x="0px" y="0px"
	 width="204.6px" height="27.3px" viewBox="0 0 204.6 27.3" style="enable-background:new 0 0 204.6 27.3;" xml:space="preserve">
<style type="text/css">
	.st0{fill:#FFFFFF;}
</style>
<g>
	<path class="st0" d="M18.8,25.3L25,6.6h0.7L19,26.9h-0.5L12.9,8.1L7.2,26.9H6.6L0,6.6h0.8l6.1,18.6l5.6-18.6h0.6L18.8,25.3z"/>
	<path class="st0" d="M43.8,16.7H29.1v2.4c0,4.5,2.6,7.3,7,7.3c4.4,0,6.9-2.8,6.9-6.2v-0.1h0.7v0.1c0,3.7-2.8,6.9-7.7,6.9
		c-4.9,0-7.7-3.1-7.7-8v-4.8c0-5,2.8-8.1,7.7-8.1c4.8,0,7.7,2.9,7.7,7.9V16.7z M29.1,16h13.9v-1.8c0-4.6-2.6-7.2-6.9-7.2
		c-4.4,0-7,2.8-7,7.4V16z"/>
	<path class="st0" d="M62.9,16.7H48.3v2.4c0,4.5,2.6,7.3,7,7.3c4.4,0,6.9-2.8,6.9-6.2v-0.1h0.7v0.1c0,3.7-2.8,6.9-7.7,6.9
		c-4.9,0-7.7-3.1-7.7-8v-4.8c0-5,2.8-8.1,7.7-8.1c4.8,0,7.7,2.9,7.7,7.9V16.7z M48.3,16h13.9v-1.8c0-4.6-2.6-7.2-6.9-7.2
		c-4.4,0-7,2.8-7,7.4V16z"/>
	<path class="st0" d="M80.4,13.5c0-4.2-2.3-6.6-6.8-6.6c-4.1,0-6.2,1.8-6.2,4.8c0,3.7,3.3,4.3,6.9,5c3.7,0.7,7,1.3,7,5.1
		c0,3.5-2.4,5.6-7.4,5.6c-4.9,0-7.6-3-7.6-7.6h0.7c0,4.1,2.4,6.8,6.9,6.8c4.5,0,6.7-1.8,6.7-4.9c0-3.1-3-3.7-6.4-4.4
		c-3.9-0.7-7.5-1.4-7.5-5.7c0-3.4,2.4-5.5,6.9-5.5c4.9,0,7.5,2.6,7.5,7.3H80.4z"/>
	<path class="st0" d="M110.4,25.3l6.2-18.7h0.7l-6.7,20.2h-0.5l-5.7-18.7l-5.7,18.7h-0.5L91.6,6.6h0.8l6.1,18.6l5.6-18.6h0.6
		L110.4,25.3z"/>
	<path class="st0" d="M135.4,16.7h-14.7v2.4c0,4.5,2.6,7.3,7,7.3c4.4,0,6.9-2.8,6.9-6.2v-0.1h0.7v0.1c0,3.7-2.8,6.9-7.7,6.9
		c-4.9,0-7.7-3.1-7.7-8v-4.8c0-5,2.8-8.1,7.7-8.1c4.8,0,7.7,2.9,7.7,7.9V16.7z M120.7,16h13.9v-1.8c0-4.6-2.6-7.2-6.9-7.2
		c-4.4,0-7,2.8-7,7.4V16z"/>
	<path class="st0" d="M140.4,0v26.9h-0.7V0H140.4z"/>
	<path class="st0" d="M158.5,26.9l-10-9.9h-2.3v9.8h-0.7V0h0.7v16.3h2.3l9.9-9.6h1.1l-10.3,10l10.5,10.2H158.5z"/>
	<path class="st0" d="M161,19v-4.6c0-4.9,2.8-8,7.7-8c4.8,0,7.7,3.1,7.7,8V19c0,5-2.9,8.1-7.7,8.1C163.8,27.2,161,24,161,19z
		 M175.6,19v-4.6c0-4.4-2.6-7.3-6.9-7.3c-4.5,0-7,2.8-7,7.3V19c0,4.6,2.5,7.4,7,7.4C173,26.5,175.6,23.6,175.6,19z"/>
	<path class="st0" d="M181.6,6.6v3c1-2.1,2.8-3.3,5.4-3.3c3,0,4.9,1.6,5.7,4.2c0.8-2.6,2.8-4.2,5.8-4.2c3.9,0,6.1,2.7,6.1,6.8v13.8
		h-0.7V13.1c0-3.7-1.9-6.1-5.4-6.1c-3.3,0-5.4,2.3-5.4,5.8v14h-0.7V13.1c0-3.7-1.9-6.1-5.4-6.1c-3.3,0-5.4,2.3-5.4,5.8v14h-0.7V6.6
		H181.6z"/>
</g>
</svg>
