<?xml version="1.0" encoding="utf-8"?>
<!-- Generator: Adobe Illustrator 22.1.0, SVG Export Plug-In . SVG Version: 6.00 Build 0)  -->
<svg version="1.1" id="Laag_1" xmlns="http://www.w3.org/2000/svg" xmlns:xlink="http://www.w3.org/1999/xlink" x="0px" y="0px"
	 viewBox="0 0 121 77" style="enable-background:new 0 0 121 77;" xml:space="preserve">
<style type="text/css">
	.st0{fill:#EAEDE1;}
	.st1{font-family:'Moderat-Regular';}
	.st2{font-size:12.3015px;}
</style>
<g>
	<path class="st0" d="M2,8.5h4.5v1H0.9V0.9h5.4v1H2v2.7h3.8v1H2V8.5z"/>
	<path class="st0" d="M13.9,9.5h-1.3L10.6,6h0H9v3.5H7.9V0.9h2.9c0.9,0,1.5,0.2,2,0.7c0.5,0.5,0.8,1.1,0.8,1.8
		c0,0.6-0.2,1.1-0.5,1.5c-0.3,0.4-0.8,0.7-1.3,0.9L13.9,9.5z M9,1.9v3h1.7c0.6,0,1-0.1,1.3-0.4c0.3-0.3,0.5-0.6,0.5-1.1
		c0-0.5-0.2-0.8-0.5-1.1c-0.3-0.3-0.8-0.4-1.3-0.4H9z"/>
	<path class="st0" d="M16.5,0.9v8.6h-1.2V0.9H16.5z"/>
	<path class="st0" d="M23.5,9.5l-3.2-3.9h-0.6v3.9h-1.1V0.9h1.1v3.6h0.6l2.9-3.6h1.3L21.3,5v0.1l3.6,4.4H23.5z"/>
	<path class="st0" d="M38,0.9h1.1l-1.7,8.6h-1.7L34,3h-0.1l-1.7,6.5h-1.6l-1.8-8.6h1.1l1.5,7.2h0.1l1.8-6.6h1.5l1.8,6.6h0.1L38,0.9z
		"/>
	<path class="st0" d="M45.8,0.9H47v8.6h-1.1V5.7h-4.2v3.8h-1.1V0.9h1.1v3.7h4.2V0.9z"/>
	<path class="st0" d="M50.3,0.9v8.6h-1.2V0.9H50.3z"/>
	<path class="st0" d="M53.4,8.5h4.5v1h-5.6V0.9h5.4v1h-4.3v2.7h3.8v1h-3.8V8.5z"/>
	<path class="st0" d="M65.1,0.9h1.1v8.6H65l-4.5-6.7h-0.1v6.7h-1.1V0.9h1.3L65,7.5h0.1V0.9z"/>
	<path class="st0" d="M78.3,9.5h-1.2L76,8.3c-0.4,0.4-0.8,0.8-1.2,1c-0.4,0.2-0.9,0.3-1.4,0.3c-0.7,0-1.2-0.2-1.7-0.6
		c-0.4-0.4-0.7-0.9-0.7-1.5c0-0.5,0.1-1,0.4-1.4C71.9,5.9,72.3,5.5,73,5c-0.3-0.3-0.5-0.5-0.6-0.6C72.2,4.2,72.1,4,72,3.7
		c-0.1-0.3-0.2-0.6-0.2-0.9c0-0.6,0.2-1,0.6-1.4c0.4-0.4,0.9-0.6,1.6-0.6c0.7,0,1.2,0.2,1.6,0.5c0.4,0.4,0.6,0.8,0.6,1.4
		c0,0.3,0,0.5-0.1,0.7C76,3.6,75.9,3.8,75.7,4c-0.2,0.2-0.4,0.4-0.5,0.5c-0.2,0.1-0.4,0.3-0.8,0.6l1.6,1.7l0.9-1.4H78l-1.2,1.9
		c0,0,0,0.1-0.1,0.1s-0.1,0.1-0.1,0.1L78.3,9.5z M73.5,8.7c0.6,0,1.3-0.4,1.9-1.1l-1.8-1.9c-0.5,0.4-0.9,0.7-1.1,1
		c-0.2,0.2-0.3,0.5-0.3,0.9c0,0.3,0.1,0.6,0.4,0.8C72.8,8.5,73.1,8.7,73.5,8.7z M74,1.7c-0.4,0-0.6,0.1-0.9,0.3
		c-0.2,0.2-0.3,0.5-0.3,0.8c0,0.3,0.1,0.5,0.2,0.7s0.4,0.5,0.7,0.9c0.4-0.2,0.6-0.4,0.8-0.6s0.3-0.3,0.5-0.5
		c0.1-0.2,0.2-0.4,0.2-0.6c0-0.3-0.1-0.5-0.4-0.7S74.3,1.7,74,1.7z"/>
</g>
<text transform="matrix(1 0 0 1 82.0366 9.499)" class="st0 st1 st2"> </text>
<g>
	<path class="st0" d="M5,19.7c1.1,0.4,1.7,1.1,1.7,2.2c0,0.8-0.3,1.4-0.8,1.8c-0.5,0.4-1.2,0.6-2,0.6H0.9v-8.6h2.7
		c0.8,0,1.5,0.2,1.9,0.6c0.5,0.4,0.7,0.9,0.7,1.6C6.3,18.7,5.9,19.3,5,19.7L5,19.7z M2,16.6v2.7h1.6c0.5,0,0.9-0.1,1.2-0.4
		s0.4-0.6,0.4-1c0-0.4-0.1-0.8-0.4-1c-0.3-0.2-0.7-0.3-1.1-0.3H2z M3.8,23.3c0.5,0,1-0.1,1.3-0.4c0.3-0.3,0.5-0.6,0.5-1.1
		S5.4,21,5.1,20.7s-0.8-0.4-1.3-0.4H2v3H3.8z"/>
	<path class="st0" d="M12.2,24.4c-1.2,0-2.2-0.4-3.1-1.3S8,21.2,8,20s0.4-2.3,1.2-3.2s1.8-1.3,3-1.3c1.2,0,2.2,0.4,3,1.3
		c0.8,0.8,1.2,1.9,1.2,3.2s-0.4,2.3-1.2,3.2S13.4,24.4,12.2,24.4z M12.2,23.3c0.9,0,1.6-0.3,2.2-1c0.6-0.6,0.9-1.4,0.9-2.4
		c0-0.9-0.3-1.7-0.9-2.4c-0.6-0.6-1.3-1-2.2-1c-0.9,0-1.6,0.3-2.2,1C9.4,18.2,9.2,19,9.2,20c0,0.9,0.3,1.7,0.9,2.4
		C10.6,23,11.3,23.3,12.2,23.3z"/>
	<path class="st0" d="M22.1,24.4c-1.2,0-2.2-0.4-3.1-1.3s-1.2-1.9-1.2-3.2s0.4-2.3,1.2-3.2s1.8-1.3,3-1.3c1.2,0,2.2,0.4,3,1.3
		c0.8,0.8,1.2,1.9,1.2,3.2s-0.4,2.3-1.2,3.2S23.3,24.4,22.1,24.4z M22.1,23.3c0.9,0,1.6-0.3,2.2-1c0.6-0.6,0.9-1.4,0.9-2.4
		c0-0.9-0.3-1.7-0.9-2.4c-0.6-0.6-1.3-1-2.2-1c-0.9,0-1.6,0.3-2.2,1c-0.6,0.6-0.9,1.4-0.9,2.4c0,0.9,0.3,1.7,0.9,2.4
		C20.5,23,21.2,23.3,22.1,23.3z"/>
	<path class="st0" d="M31.5,19.8h3.8v4.5h-0.8l-0.2-0.9h-0.1c-0.7,0.7-1.6,1.1-2.6,1.1c-1.2,0-2.1-0.4-2.8-1.2c-0.7-0.8-1-1.8-1-3
		c0-1.3,0.4-2.5,1.1-3.3c0.7-0.9,1.7-1.3,2.8-1.3c1,0,1.8,0.3,2.4,0.8s1,1.2,1.1,2H34c-0.1-0.5-0.4-0.9-0.8-1.2
		c-0.4-0.3-0.9-0.5-1.5-0.5c-0.9,0-1.5,0.3-2.1,1c-0.5,0.7-0.8,1.5-0.8,2.5c0,1,0.2,1.7,0.7,2.3c0.5,0.6,1.2,0.9,2.1,0.9
		c0.5,0,1-0.1,1.4-0.3c0.4-0.2,0.7-0.5,1-0.7v-1.5h-2.6V19.8z"/>
	<path class="st0" d="M42.7,24.3L42,22h-3.5l-0.7,2.2h-1.2l3-8.6H41l2.9,8.6H42.7z M38.8,21h2.8l-1.4-4.1h-0.1L38.8,21z"/>
	<path class="st0" d="M46.3,23.2h4.5v1h-5.6v-8.6h5.4v1h-4.3v2.7h3.8v1h-3.8V23.2z"/>
	<path class="st0" d="M58.2,24.3H57l-2.1-3.5h0h-1.7v3.5h-1.1v-8.6h2.9c0.9,0,1.5,0.2,2,0.7c0.5,0.5,0.8,1.1,0.8,1.8
		c0,0.6-0.2,1.1-0.5,1.5c-0.3,0.4-0.8,0.7-1.3,0.9L58.2,24.3z M53.3,16.7v3h1.7c0.6,0,1-0.1,1.3-0.4c0.3-0.3,0.5-0.6,0.5-1.1
		c0-0.5-0.2-0.8-0.5-1.1c-0.3-0.3-0.8-0.4-1.3-0.4H53.3z"/>
	<path class="st0" d="M62.1,15.6c1.4,0,2.4,0.4,3.2,1.2s1.1,1.8,1.1,3.1c0,1.3-0.4,2.4-1.1,3.2c-0.7,0.8-1.8,1.2-3.2,1.2h-2.5v-8.6
		H62.1z M62.1,23.2c1,0,1.8-0.3,2.4-0.9s0.8-1.4,0.8-2.4c0-1-0.3-1.7-0.8-2.3c-0.5-0.6-1.3-0.9-2.3-0.9h-1.4v6.5H62.1z"/>
	<path class="st0" d="M73.1,15.6v1h-2.5v7.6h-1.1v-7.6H67v-1H73.1z"/>
	<path class="st0" d="M78.4,15L74,24.9h-1.2l4.4-9.8H78.4z"/>
</g>
<text transform="matrix(1 0 0 1 81.9888 24.2607)" class="st0 st1 st2"> </text>
<g>
	<path class="st0" d="M6.5,30.4h1.2L4.8,39H3.2l-2.9-8.6h1.2L4,37.8h0.1L6.5,30.4z"/>
	<path class="st0" d="M13.5,39l-0.7-2.2H9.3L8.5,39H7.3l3-8.6h1.5l2.9,8.6H13.5z M9.6,35.8h2.8l-1.4-4.1h-0.1L9.6,35.8z"/>
	<path class="st0" d="M21.8,30.4h1.1V39h-1.2l-4.5-6.7h-0.1V39H16v-8.6h1.3l4.4,6.7h0.1V30.4z"/>
	<path class="st0" d="M27.5,30.4c1.4,0,2.4,0.4,3.2,1.2s1.1,1.8,1.1,3.1c0,1.3-0.4,2.4-1.1,3.2C30,38.6,28.9,39,27.5,39H25v-8.6
		H27.5z M27.5,38c1,0,1.8-0.3,2.4-0.9s0.8-1.4,0.8-2.4c0-1-0.3-1.7-0.8-2.3c-0.5-0.6-1.3-0.9-2.3-0.9h-1.4V38H27.5z"/>
	<path class="st0" d="M34.7,38h4.5v1h-5.6v-8.6H39v1h-4.3v2.7h3.8v1h-3.8V38z"/>
	<path class="st0" d="M46.6,39h-1.3l-2.1-3.5h0h-1.7V39h-1.1v-8.6h2.9c0.9,0,1.5,0.2,2,0.7c0.5,0.5,0.8,1.1,0.8,1.8
		c0,0.6-0.2,1.1-0.5,1.5c-0.3,0.4-0.8,0.7-1.3,0.9L46.6,39z M41.6,31.5v3h1.7c0.6,0,1-0.1,1.3-0.4c0.3-0.3,0.5-0.6,0.5-1.1
		c0-0.5-0.2-0.8-0.5-1.1c-0.3-0.3-0.8-0.4-1.3-0.4H41.6z"/>
	<path class="st0" d="M53.7,36.9c0,0.7-0.3,1.3-0.8,1.7c-0.5,0.4-1.2,0.6-2.1,0.6c-1,0-1.7-0.3-2.3-0.8c-0.5-0.5-0.8-1.2-0.8-2h1.2
		c0,0.5,0.2,0.9,0.5,1.3c0.3,0.3,0.8,0.5,1.5,0.5c0.5,0,0.9-0.1,1.2-0.3c0.3-0.2,0.5-0.5,0.5-1c0-0.4-0.1-0.7-0.4-1
		s-0.8-0.5-1.6-0.8c-0.8-0.3-1.4-0.6-1.9-0.9c-0.4-0.4-0.7-0.9-0.7-1.5c0-0.7,0.3-1.3,0.8-1.7c0.5-0.4,1.2-0.6,1.9-0.6
		c0.9,0,1.6,0.2,2.1,0.7c0.5,0.5,0.8,1.1,0.8,1.8h-1.1c0-0.4-0.2-0.8-0.5-1.1c-0.3-0.3-0.7-0.4-1.3-0.4c-0.5,0-0.8,0.1-1.1,0.4
		s-0.4,0.5-0.4,0.9c0,0.4,0.1,0.7,0.4,0.9c0.3,0.2,0.8,0.5,1.5,0.7c0.9,0.3,1.6,0.7,2,1.1C53.4,35.7,53.7,36.2,53.7,36.9z"/>
	<path class="st0" d="M62.7,36.4c-0.2,0.8-0.6,1.5-1.3,2c-0.7,0.5-1.4,0.8-2.3,0.8c-1.2,0-2.2-0.4-3-1.2C55.3,37.1,55,36,55,34.7
		c0-1.3,0.4-2.3,1.1-3.2c0.7-0.8,1.7-1.3,2.9-1.3c0.9,0,1.7,0.2,2.4,0.7s1.1,1.2,1.2,2.1h-1.2c-0.1-0.5-0.4-1-0.8-1.3
		s-0.9-0.5-1.5-0.5c-0.8,0-1.5,0.3-2,1c-0.5,0.7-0.8,1.4-0.8,2.4c0,1,0.3,1.8,0.8,2.4c0.5,0.6,1.2,0.9,2.1,0.9
		c0.6,0,1.1-0.2,1.5-0.5s0.7-0.7,0.9-1.2H62.7z"/>
	<path class="st0" d="M69.6,30.4h1.1V39h-1.1v-3.8h-4.2V39h-1.1v-8.6h1.1v3.7h4.2V30.4z"/>
	<path class="st0" d="M76.7,39.1c-1.2,0-2.2-0.4-3.1-1.3s-1.2-1.9-1.2-3.2s0.4-2.3,1.2-3.2s1.8-1.3,3-1.3c1.2,0,2.2,0.4,3,1.3
		c0.8,0.8,1.2,1.9,1.2,3.2s-0.4,2.3-1.2,3.2S77.9,39.1,76.7,39.1z M76.7,38c0.9,0,1.6-0.3,2.2-1c0.6-0.6,0.9-1.4,0.9-2.4
		c0-0.9-0.3-1.7-0.9-2.4c-0.6-0.6-1.3-1-2.2-1c-0.9,0-1.6,0.3-2.2,1c-0.6,0.6-0.9,1.4-0.9,2.4c0,0.9,0.3,1.7,0.9,2.4
		C75.1,37.7,75.8,38,76.7,38z"/>
	<path class="st0" d="M86.6,39.1c-1.2,0-2.2-0.4-3.1-1.3s-1.2-1.9-1.2-3.2s0.4-2.3,1.2-3.2s1.8-1.3,3-1.3c1.2,0,2.2,0.4,3,1.3
		c0.8,0.8,1.2,1.9,1.2,3.2s-0.4,2.3-1.2,3.2S87.8,39.1,86.6,39.1z M86.6,38c0.9,0,1.6-0.3,2.2-1c0.6-0.6,0.9-1.4,0.9-2.4
		c0-0.9-0.3-1.7-0.9-2.4c-0.6-0.6-1.3-1-2.2-1c-0.9,0-1.6,0.3-2.2,1c-0.6,0.6-0.9,1.4-0.9,2.4c0,0.9,0.3,1.7,0.9,2.4
		C85,37.7,85.7,38,86.6,38z"/>
	<path class="st0" d="M97.6,30.4v1h-2.5V39H94v-7.6h-2.5v-1H97.6z"/>
</g>
<g>
	<path class="st0" d="M1.9,56.7V51H0.4v-0.9h0.7c0.6,0,0.9-0.3,0.9-0.9v-0.4h1v7.9H1.9z"/>
	<path class="st0" d="M7.1,53.8c-0.6,0-1.1-0.2-1.6-0.7c-0.5-0.5-0.7-1.1-0.7-1.8c0-0.8,0.2-1.4,0.7-1.9c0.5-0.5,1.1-0.7,1.9-0.7
		c0.8,0,1.5,0.2,1.9,0.7s0.7,1.1,0.7,1.9c0,0.4-0.1,0.9-0.3,1.3c-0.2,0.4-0.4,0.9-0.8,1.4l-1.7,2.7H6.1l2.2-3.2
		C8,53.7,7.6,53.8,7.1,53.8z M7.5,49.7c-0.5,0-0.9,0.2-1.2,0.5c-0.3,0.3-0.4,0.7-0.4,1.2c0,0.5,0.1,0.8,0.4,1.2S7,53,7.5,53
		c0.5,0,0.9-0.2,1.2-0.5C8.9,52.2,9,51.8,9,51.4s-0.1-0.9-0.4-1.2S7.9,49.7,7.5,49.7z"/>
	<path class="st0" d="M14.4,52.4h4.4v0.9h-4.4V52.4z"/>
	<path class="st0" d="M26.5,53.5c-1.2,0.7-1.8,1.5-1.8,2.2h3.8v1h-5.1v-0.5c0-1.3,0.7-2.4,2.1-3.3c0.8-0.5,1.3-0.9,1.5-1.1
		c0.3-0.3,0.4-0.6,0.4-0.9c0-0.4-0.1-0.7-0.4-0.9c-0.2-0.2-0.6-0.4-1-0.4c-0.5,0-0.9,0.2-1.1,0.5c-0.3,0.3-0.4,0.7-0.4,1.2h-1.1
		c0-0.4,0.1-0.8,0.3-1.2c0.2-0.4,0.5-0.7,0.9-1c0.4-0.3,0.9-0.4,1.5-0.4c0.7,0,1.3,0.2,1.8,0.6c0.5,0.4,0.7,0.9,0.7,1.6
		c0,0.5-0.2,1-0.5,1.4C27.6,52.7,27.1,53.1,26.5,53.5z"/>
	<path class="st0" d="M34.9,55.8c-0.5,0.7-1.2,1-2.1,1s-1.6-0.3-2.1-1c-0.5-0.7-0.8-1.7-0.8-3c0-1.3,0.3-2.3,0.8-3s1.2-1,2.1-1
		s1.6,0.3,2.1,1c0.5,0.7,0.8,1.7,0.8,3C35.7,54.1,35.4,55.1,34.9,55.8z M31.5,55c0.3,0.5,0.7,0.8,1.2,0.8s0.9-0.3,1.2-0.8
		c0.3-0.5,0.5-1.3,0.5-2.3S34.3,51,34,50.5c-0.3-0.5-0.7-0.8-1.2-0.8c-0.5,0-0.9,0.3-1.2,0.8c-0.3,0.5-0.5,1.3-0.5,2.3
		C31.1,53.8,31.2,54.5,31.5,55z"/>
	<path class="st0" d="M44.6,56.8c-1.2,0-2.2-0.4-3.1-1.3s-1.2-1.9-1.2-3.2s0.4-2.3,1.2-3.2s1.8-1.3,3-1.3c1.2,0,2.2,0.4,3,1.3
		c0.8,0.8,1.2,1.9,1.2,3.2s-0.4,2.3-1.2,3.2S45.9,56.8,44.6,56.8z M44.6,55.7c0.9,0,1.6-0.3,2.2-1c0.6-0.6,0.9-1.4,0.9-2.4
		c0-0.9-0.3-1.7-0.9-2.4c-0.6-0.6-1.3-1-2.2-1c-0.9,0-1.6,0.3-2.2,1c-0.6,0.6-0.9,1.4-0.9,2.4c0,0.9,0.3,1.7,0.9,2.4
		C43,55.4,43.8,55.7,44.6,55.7z"/>
	<path class="st0" d="M55.6,56.7l-3.2-3.9h-0.6v3.9h-1.1v-8.6h1.1v3.6h0.6l2.9-3.6h1.3l-3.2,4.1v0.1l3.6,4.4H55.6z"/>
	<path class="st0" d="M63.9,48.1v1h-2.5v7.6h-1.1v-7.6h-2.5v-1H63.9z"/>
</g>
<g>
	<path class="st0" d="M21,64.7v1h-2.5v7.6h-1.1v-7.6h-2.5v-1H21z"/>
	<path class="st0" d="M28.5,73.3h-1.3l-2.1-3.5h0h-1.7v3.5h-1.1v-8.6h2.9c0.9,0,1.5,0.2,2,0.7c0.5,0.5,0.8,1.1,0.8,1.8
		c0,0.6-0.2,1.1-0.5,1.5c-0.3,0.4-0.8,0.7-1.3,0.9L28.5,73.3z M23.5,65.8v3h1.7c0.6,0,1-0.1,1.3-0.4c0.3-0.3,0.5-0.6,0.5-1.1
		c0-0.5-0.2-0.8-0.5-1.1c-0.3-0.3-0.8-0.4-1.3-0.4H23.5z"/>
	<path class="st0" d="M38.9,71.2c0,0.7-0.3,1.3-0.8,1.7c-0.5,0.4-1.2,0.6-2.1,0.6c-1,0-1.7-0.3-2.3-0.8c-0.5-0.5-0.8-1.2-0.8-2h1.2
		c0,0.5,0.2,0.9,0.5,1.3c0.3,0.3,0.8,0.5,1.5,0.5c0.5,0,0.9-0.1,1.2-0.3c0.3-0.2,0.5-0.5,0.5-1c0-0.4-0.1-0.7-0.4-1
		s-0.8-0.5-1.6-0.8c-0.8-0.3-1.4-0.6-1.9-0.9c-0.4-0.4-0.7-0.9-0.7-1.5c0-0.7,0.3-1.3,0.8-1.7c0.5-0.4,1.2-0.6,1.9-0.6
		c0.9,0,1.6,0.2,2.1,0.7c0.5,0.5,0.8,1.1,0.8,1.8h-1.1c0-0.4-0.2-0.8-0.5-1.1c-0.3-0.3-0.7-0.4-1.3-0.4c-0.5,0-0.8,0.1-1.1,0.4
		s-0.4,0.5-0.4,0.9c0,0.4,0.1,0.7,0.4,0.9c0.3,0.2,0.8,0.5,1.5,0.7c0.9,0.3,1.6,0.7,2,1.1C38.7,70,38.9,70.5,38.9,71.2z"/>
	<path class="st0" d="M47.9,70.7c-0.2,0.8-0.6,1.5-1.3,2c-0.7,0.5-1.4,0.8-2.3,0.8c-1.2,0-2.2-0.4-3-1.2c-0.8-0.8-1.1-1.9-1.1-3.2
		c0-1.3,0.4-2.3,1.1-3.2c0.7-0.8,1.7-1.3,2.9-1.3c0.9,0,1.7,0.2,2.4,0.7s1.1,1.2,1.2,2.1h-1.2c-0.1-0.5-0.4-1-0.8-1.3
		s-0.9-0.5-1.5-0.5c-0.8,0-1.5,0.3-2,1c-0.5,0.7-0.8,1.4-0.8,2.4c0,1,0.3,1.8,0.8,2.4c0.5,0.6,1.2,0.9,2.1,0.9
		c0.6,0,1.1-0.2,1.5-0.5s0.7-0.7,0.9-1.2H47.9z"/>
	<path class="st0" d="M54.9,64.7H56v8.6h-1.1v-3.8h-4.2v3.8h-1.1v-8.6h1.1v3.7h4.2V64.7z"/>
	<path class="st0" d="M62,73.4c-1.2,0-2.2-0.4-3.1-1.3s-1.2-1.9-1.2-3.2s0.4-2.3,1.2-3.2s1.8-1.3,3-1.3c1.2,0,2.2,0.4,3,1.3
		c0.8,0.8,1.2,1.9,1.2,3.2s-0.4,2.3-1.2,3.2S63.2,73.4,62,73.4z M62,72.3c0.9,0,1.6-0.3,2.2-1C64.8,70.7,65,70,65,69
		c0-0.9-0.3-1.7-0.9-2.4c-0.6-0.6-1.3-1-2.2-1c-0.9,0-1.6,0.3-2.2,1c-0.6,0.6-0.9,1.4-0.9,2.4c0,0.9,0.3,1.7,0.9,2.4
		C60.4,72,61.1,72.3,62,72.3z"/>
	<path class="st0" d="M74.7,64.7v5.2c0,1.1-0.3,2-0.9,2.6s-1.4,0.9-2.4,0.9c-1,0-1.8-0.3-2.4-0.9c-0.6-0.6-1-1.5-1-2.6v-5.2h1.2v5.2
		c0,0.8,0.2,1.4,0.6,1.8c0.4,0.4,0.9,0.6,1.6,0.6s1.2-0.2,1.6-0.6c0.4-0.4,0.6-1,0.6-1.8v-5.2H74.7z"/>
	<path class="st0" d="M85.3,64.7h1.1l-1.7,8.6h-1.7l-1.7-6.5h-0.1l-1.7,6.5h-1.6L76,64.7h1.1l1.5,7.2h0.1l1.8-6.6h1.5l1.8,6.6h0.1
		L85.3,64.7z"/>
	<path class="st0" d="M91.9,68.8c1.1,0.4,1.7,1.1,1.7,2.2c0,0.8-0.3,1.4-0.8,1.8c-0.5,0.4-1.2,0.6-2,0.6h-3.1v-8.6h2.7
		c0.8,0,1.5,0.2,1.9,0.6c0.5,0.4,0.7,0.9,0.7,1.6C93.2,67.8,92.7,68.4,91.9,68.8L91.9,68.8z M88.8,65.7v2.7h1.6
		c0.5,0,0.9-0.1,1.2-0.4s0.4-0.6,0.4-1c0-0.4-0.1-0.8-0.4-1c-0.3-0.2-0.7-0.3-1.1-0.3H88.8z M90.6,72.4c0.5,0,1-0.1,1.3-0.4
		c0.3-0.3,0.5-0.6,0.5-1.1s-0.2-0.8-0.5-1.1s-0.8-0.4-1.3-0.4h-1.8v3H90.6z"/>
	<path class="st0" d="M101.9,64.7v5.2c0,1.1-0.3,2-0.9,2.6s-1.4,0.9-2.4,0.9c-1,0-1.8-0.3-2.4-0.9c-0.6-0.6-1-1.5-1-2.6v-5.2h1.2
		v5.2c0,0.8,0.2,1.4,0.6,1.8c0.4,0.4,0.9,0.6,1.6,0.6s1.2-0.2,1.6-0.6c0.4-0.4,0.6-1,0.6-1.8v-5.2H101.9z"/>
	<path class="st0" d="M110.1,73.3h-1.3l-2.1-3.5h0h-1.7v3.5H104v-8.6h2.9c0.9,0,1.5,0.2,2,0.7c0.5,0.5,0.8,1.1,0.8,1.8
		c0,0.6-0.2,1.1-0.5,1.5c-0.3,0.4-0.8,0.7-1.3,0.9L110.1,73.3z M105.1,65.8v3h1.7c0.6,0,1-0.1,1.3-0.4c0.3-0.3,0.5-0.6,0.5-1.1
		c0-0.5-0.2-0.8-0.5-1.1c-0.3-0.3-0.8-0.4-1.3-0.4H105.1z"/>
	<path class="st0" d="M114.7,68.9h3.8v4.5h-0.8l-0.2-0.9h-0.1c-0.7,0.7-1.6,1.1-2.6,1.1c-1.2,0-2.1-0.4-2.8-1.2c-0.7-0.8-1-1.8-1-3
		c0-1.3,0.4-2.5,1.1-3.3c0.7-0.9,1.7-1.3,2.8-1.3c1,0,1.8,0.3,2.4,0.8s1,1.2,1.1,2h-1.2c-0.1-0.5-0.4-0.9-0.8-1.2
		c-0.4-0.3-0.9-0.5-1.5-0.5c-0.9,0-1.5,0.3-2.1,1c-0.5,0.7-0.8,1.5-0.8,2.5c0,1,0.2,1.7,0.7,2.3c0.5,0.6,1.2,0.9,2.1,0.9
		c0.5,0,1-0.1,1.4-0.3c0.4-0.2,0.7-0.5,1-0.7v-1.5h-2.6V68.9z"/>
</g>
<path class="st0" d="M5.2,62.4c-2.4,0-4.4,2-4.4,4.4c0,1.9,2.9,5.6,4.4,7.2c1.5-1.7,4.4-5.3,4.4-7.2C9.6,64.3,7.7,62.4,5.2,62.4
	 M5.2,75.3l-0.3-0.4C4.7,74.7,0,69.5,0,66.7c0-2.9,2.4-5.2,5.2-5.2s5.2,2.4,5.2,5.2c0,2.8-4.7,7.9-4.9,8.2L5.2,75.3z"/>
<path class="st0" d="M5.3,64.7c-1,0-1.9,0.8-1.9,1.9c0,1,0.8,1.9,1.9,1.9s1.9-0.8,1.9-1.9C7.1,65.5,6.3,64.7,5.3,64.7 M5.3,65.6
	c0.5,0,1,0.4,1,1s-0.4,1-1,1c-0.5,0-1-0.4-1-1S4.7,65.6,5.3,65.6"/>
</svg>
