<?xml version="1.0" encoding="utf-8"?>
<!-- Generator: Adobe Illustrator 24.3.0, SVG Export Plug-In . SVG Version: 6.00 Build 0)  -->
<svg version="1.1" id="Laag_1" xmlns="http://www.w3.org/2000/svg" xmlns:xlink="http://www.w3.org/1999/xlink" x="0px" y="0px"
	 width="114.1px" height="36.4px" viewBox="0 0 114.1 36.4" style="enable-background:new 0 0 114.1 36.4;" xml:space="preserve">
<style type="text/css">
	.st0{fill:#4E4E4A;}
</style>
<g>
	<path class="st0" d="M0,13.6V0.1h2.9C4,0.1,4.8,0.4,5.4,1s0.9,1.5,0.9,2.6v6.3c0,1.3-0.3,2.2-0.9,2.8s-1.5,0.9-2.6,0.9H0z M1.9,1.9
		v9.8h0.9c0.5,0,0.9-0.1,1.2-0.4c0.2-0.3,0.3-0.7,0.3-1.3V3.6c0-0.5-0.1-0.9-0.3-1.2C3.8,2.1,3.4,1.9,2.8,1.9H1.9z"/>
	<path class="st0" d="M8.5,13.6V0.1h5.7v1.8h-3.8v3.9h3.3v1.8h-3.3v3.9h3.8v1.9H8.5z"/>
	<path class="st0" d="M20,13.6V0.1h5.7v1.8h-3.8v3.9h3.3v1.8h-3.3v3.9h3.8v1.9H20z"/>
	<path class="st0" d="M33.6,9.7v0.8c0,0.4-0.1,0.8-0.2,1.2c-0.2,0.4-0.4,0.7-0.7,1c-0.3,0.3-0.6,0.5-1,0.7s-0.8,0.3-1.2,0.3
		c-0.4,0-0.7-0.1-1.1-0.2c-0.4-0.1-0.7-0.3-1-0.5s-0.6-0.6-0.7-1s-0.3-0.9-0.3-1.5V3.1c0-0.4,0.1-0.8,0.2-1.2c0.2-0.4,0.4-0.7,0.6-1
		c0.3-0.3,0.6-0.5,1-0.7S30,0,30.5,0c0.9,0,1.6,0.3,2.2,0.9c0.3,0.3,0.5,0.6,0.7,1c0.2,0.4,0.2,0.8,0.2,1.3V4h-1.9V3.3
		c0-0.4-0.1-0.7-0.3-1c-0.2-0.3-0.5-0.4-0.9-0.4c-0.5,0-0.8,0.1-1,0.4S29.2,3,29.2,3.5v6.9c0,0.4,0.1,0.7,0.3,1s0.5,0.4,0.9,0.4
		c0.1,0,0.3,0,0.4-0.1c0.1,0,0.3-0.1,0.4-0.2c0.1-0.1,0.2-0.2,0.3-0.4c0.1-0.2,0.1-0.4,0.1-0.7V9.7H33.6z"/>
	<path class="st0" d="M35.6,13.6V0.1h1.9v5.8h2.4V0.1h1.9v13.5h-1.9v-6h-2.4v6H35.6z"/>
	<path class="st0" d="M44,3.3c0-0.5,0.1-1,0.3-1.4c0.2-0.4,0.4-0.8,0.8-1c0.3-0.3,0.6-0.5,1-0.6S46.8,0,47.2,0
		c0.4,0,0.8,0.1,1.2,0.2c0.4,0.1,0.7,0.3,1,0.6c0.3,0.3,0.5,0.6,0.7,1c0.2,0.4,0.3,0.9,0.3,1.4v7.1c0,0.6-0.1,1.1-0.3,1.5
		c-0.2,0.4-0.4,0.7-0.7,1c-0.3,0.3-0.7,0.5-1,0.6c-0.4,0.1-0.8,0.2-1.2,0.2c-0.4,0-0.8-0.1-1.2-0.2s-0.7-0.3-1-0.6
		c-0.3-0.3-0.6-0.6-0.8-1C44.1,11.4,44,11,44,10.4V3.3z M45.9,10.4c0,0.5,0.1,0.8,0.4,1c0.3,0.2,0.6,0.3,0.9,0.3
		c0.4,0,0.7-0.1,0.9-0.3c0.3-0.2,0.4-0.6,0.4-1V3.3c0-0.5-0.1-0.8-0.4-1c-0.3-0.2-0.6-0.3-0.9-0.3c-0.4,0-0.7,0.1-0.9,0.3
		c-0.3,0.2-0.4,0.6-0.4,1V10.4z"/>
	<path class="st0" d="M63.2,0.1l-2.8,13.5h-1.7L56,0.1h2l1.5,9.4h0l1.5-9.4H63.2z"/>
	<path class="st0" d="M63.2,13.6l3-13.5h1.6l3,13.5h-1.9l-0.6-2.9h-2.6l-0.6,2.9H63.2z M68,8.9L67,4h0l-0.9,4.9H68z"/>
	<path class="st0" d="M72.2,13.6V0.1H74l2.9,8.1h0V0.1h1.9v13.5h-1.8l-2.9-8.1h0v8.1H72.2z"/>
	<path class="st0" d="M0,36.2V22.8h5.7v1.8H1.9v3.9h3.3v1.8H1.9v3.9h3.8v1.9H0z"/>
	<path class="st0" d="M7.5,36.2V22.8h5.7v1.8H9.4v3.9h3.3v1.8H9.4v3.9h3.8v1.9H7.5z"/>
	<path class="st0" d="M14.9,36.2V22.8h1.9l2.9,8.1h0v-8.1h1.9v13.5h-1.8l-2.9-8.1h0v8.1H14.9z"/>
	<path class="st0" d="M27.8,36.2V22.8h1.9l2.5,7.1h0l2.5-7.1h1.9v13.5h-1.9v-8.2h0l-1.9,5.8h-1l-1.9-5.8h0v8.2H27.8z"/>
	<path class="st0" d="M37.9,36.2l3-13.5h1.6l3,13.5h-1.9L43,33.4h-2.6l-0.6,2.9H37.9z M42.6,31.5l-0.9-4.9h0l-0.9,4.9H42.6z"/>
	<path class="st0" d="M53.2,26.7h-1.9v-0.4c0-0.4-0.1-0.8-0.3-1.1c-0.2-0.3-0.6-0.5-1-0.5c-0.3,0-0.5,0-0.6,0.2
		c-0.2,0.1-0.3,0.2-0.4,0.4c-0.1,0.2-0.2,0.3-0.2,0.6c0,0.2-0.1,0.4-0.1,0.7c0,0.3,0,0.5,0,0.7c0,0.2,0.1,0.3,0.1,0.5
		c0.1,0.1,0.2,0.3,0.3,0.4c0.1,0.1,0.3,0.2,0.6,0.3l1.5,0.6c0.4,0.2,0.8,0.4,1,0.6c0.3,0.2,0.5,0.5,0.6,0.8c0.1,0.3,0.2,0.6,0.3,1
		c0.1,0.4,0.1,0.8,0.1,1.3c0,0.6-0.1,1.1-0.2,1.6c-0.1,0.5-0.3,0.9-0.5,1.2c-0.3,0.4-0.6,0.6-1,0.8c-0.4,0.2-1,0.3-1.6,0.3
		c-0.5,0-0.9-0.1-1.3-0.2c-0.4-0.2-0.7-0.4-1-0.7c-0.3-0.3-0.5-0.6-0.7-1c-0.2-0.4-0.3-0.8-0.3-1.3v-0.7h1.9V33c0,0.4,0.1,0.7,0.3,1
		c0.2,0.3,0.6,0.4,1,0.4c0.3,0,0.6,0,0.8-0.1c0.2-0.1,0.3-0.2,0.4-0.4c0.1-0.2,0.2-0.4,0.2-0.6c0-0.2,0-0.5,0-0.8c0-0.4,0-0.6,0-0.9
		c0-0.2-0.1-0.4-0.2-0.5c-0.1-0.1-0.2-0.3-0.3-0.3c-0.1-0.1-0.3-0.2-0.6-0.3l-1.4-0.6c-0.8-0.3-1.4-0.8-1.7-1.4
		c-0.3-0.6-0.4-1.3-0.4-2.1c0-0.5,0.1-1,0.2-1.4c0.1-0.5,0.3-0.8,0.6-1.2c0.3-0.3,0.6-0.6,1-0.8s0.9-0.3,1.5-0.3
		c0.5,0,0.9,0.1,1.3,0.3c0.4,0.2,0.7,0.4,1,0.7c0.6,0.6,0.9,1.3,0.9,2.1V26.7z"/>
	<path class="st0" d="M61.3,26.7h-1.9v-0.4c0-0.4-0.1-0.8-0.3-1.1c-0.2-0.3-0.6-0.5-1-0.5c-0.3,0-0.5,0-0.6,0.2
		c-0.2,0.1-0.3,0.2-0.4,0.4c-0.1,0.2-0.2,0.3-0.2,0.6c0,0.2-0.1,0.4-0.1,0.7c0,0.3,0,0.5,0,0.7c0,0.2,0.1,0.3,0.1,0.5
		c0.1,0.1,0.2,0.3,0.3,0.4c0.1,0.1,0.3,0.2,0.6,0.3l1.5,0.6c0.4,0.2,0.8,0.4,1,0.6c0.3,0.2,0.5,0.5,0.6,0.8c0.1,0.3,0.2,0.6,0.3,1
		c0.1,0.4,0.1,0.8,0.1,1.3c0,0.6-0.1,1.1-0.2,1.6c-0.1,0.5-0.3,0.9-0.5,1.2c-0.3,0.4-0.6,0.6-1,0.8c-0.4,0.2-1,0.3-1.6,0.3
		c-0.5,0-0.9-0.1-1.3-0.2c-0.4-0.2-0.7-0.4-1-0.7c-0.3-0.3-0.5-0.6-0.7-1c-0.2-0.4-0.3-0.8-0.3-1.3v-0.7h1.9V33c0,0.4,0.1,0.7,0.3,1
		c0.2,0.3,0.6,0.4,1,0.4c0.3,0,0.6,0,0.8-0.1c0.2-0.1,0.3-0.2,0.4-0.4c0.1-0.2,0.2-0.4,0.2-0.6c0-0.2,0-0.5,0-0.8c0-0.4,0-0.6,0-0.9
		c0-0.2-0.1-0.4-0.2-0.5c-0.1-0.1-0.2-0.3-0.3-0.3c-0.1-0.1-0.3-0.2-0.6-0.3l-1.4-0.6c-0.8-0.3-1.4-0.8-1.7-1.4
		c-0.3-0.6-0.4-1.3-0.4-2.1c0-0.5,0.1-1,0.2-1.4c0.1-0.5,0.3-0.8,0.6-1.2c0.3-0.3,0.6-0.6,1-0.8s0.9-0.3,1.5-0.3
		c0.5,0,0.9,0.1,1.3,0.3c0.4,0.2,0.7,0.4,1,0.7c0.6,0.6,0.9,1.3,0.9,2.1V26.7z"/>
	<path class="st0" d="M62.3,36.2l3-13.5h1.6l3,13.5H68l-0.6-2.9h-2.6l-0.6,2.9H62.3z M67.1,31.5l-0.9-4.9h0l-0.9,4.9H67.1z"/>
	<path class="st0" d="M71.4,36.2V22.8h1.9l2.5,7.1h0l2.5-7.1h1.9v13.5h-1.9v-8.2h0l-1.9,5.8h-1l-1.9-5.8h0v8.2H71.4z"/>
	<path class="st0" d="M82.2,26c0-0.5,0.1-1,0.3-1.4c0.2-0.4,0.4-0.8,0.8-1c0.3-0.3,0.6-0.5,1-0.6s0.8-0.2,1.2-0.2
		c0.4,0,0.8,0.1,1.2,0.2c0.4,0.1,0.7,0.3,1,0.6c0.3,0.3,0.5,0.6,0.7,1c0.2,0.4,0.3,0.9,0.3,1.4v7.1c0,0.6-0.1,1.1-0.3,1.5
		c-0.2,0.4-0.4,0.7-0.7,1c-0.3,0.3-0.7,0.5-1,0.6c-0.4,0.1-0.8,0.2-1.2,0.2c-0.4,0-0.8-0.1-1.2-0.2s-0.7-0.3-1-0.6
		c-0.3-0.3-0.6-0.6-0.8-1c-0.2-0.4-0.3-0.9-0.3-1.5V26z M84.2,33.1c0,0.5,0.1,0.8,0.4,1c0.3,0.2,0.6,0.3,0.9,0.3
		c0.4,0,0.7-0.1,0.9-0.3c0.3-0.2,0.4-0.6,0.4-1V26c0-0.5-0.1-0.8-0.4-1c-0.3-0.2-0.6-0.3-0.9-0.3c-0.4,0-0.7,0.1-0.9,0.3
		c-0.3,0.2-0.4,0.6-0.4,1V33.1z"/>
	<path class="st0" d="M90.8,26c0-0.5,0.1-1,0.3-1.4c0.2-0.4,0.4-0.8,0.8-1c0.3-0.3,0.6-0.5,1-0.6s0.8-0.2,1.2-0.2
		c0.4,0,0.8,0.1,1.2,0.2c0.4,0.1,0.7,0.3,1,0.6c0.3,0.3,0.5,0.6,0.7,1c0.2,0.4,0.3,0.9,0.3,1.4v7.1c0,0.6-0.1,1.1-0.3,1.5
		c-0.2,0.4-0.4,0.7-0.7,1c-0.3,0.3-0.7,0.5-1,0.6c-0.4,0.1-0.8,0.2-1.2,0.2c-0.4,0-0.8-0.1-1.2-0.2s-0.7-0.3-1-0.6
		c-0.3-0.3-0.6-0.6-0.8-1c-0.2-0.4-0.3-0.9-0.3-1.5V26z M92.7,33.1c0,0.5,0.1,0.8,0.4,1c0.3,0.2,0.6,0.3,0.9,0.3
		c0.4,0,0.7-0.1,0.9-0.3c0.3-0.2,0.4-0.6,0.4-1V26c0-0.5-0.1-0.8-0.4-1c-0.3-0.2-0.6-0.3-0.9-0.3c-0.4,0-0.7,0.1-0.9,0.3
		c-0.3,0.2-0.4,0.6-0.4,1V33.1z"/>
	<path class="st0" d="M99.4,36.2V22.8h3.1c2.3,0,3.4,1.3,3.4,3.9c0,0.8-0.1,1.5-0.4,2c-0.2,0.6-0.7,1-1.3,1.3l2.1,6.1h-2l-1.8-5.7
		h-1.2v5.7H99.4z M101.3,24.6v4.2h1.1c0.3,0,0.6,0,0.8-0.1s0.4-0.2,0.5-0.4c0.1-0.2,0.2-0.4,0.2-0.7c0-0.3,0.1-0.6,0.1-0.9
		c0-0.3,0-0.6-0.1-0.9c0-0.3-0.1-0.5-0.2-0.7c-0.2-0.4-0.7-0.5-1.4-0.5H101.3z"/>
	<path class="st0" d="M107.9,36.2V22.8h2.9c1.1,0,1.9,0.3,2.5,0.9s0.9,1.5,0.9,2.6v6.3c0,1.3-0.3,2.2-0.9,2.8s-1.5,0.9-2.6,0.9
		H107.9z M109.8,24.6v9.8h0.9c0.5,0,0.9-0.1,1.2-0.4c0.2-0.3,0.3-0.7,0.3-1.3v-6.5c0-0.5-0.1-0.9-0.3-1.2c-0.2-0.3-0.6-0.4-1.2-0.4
		H109.8z"/>
</g>
</svg>
