<?xml version="1.0" encoding="utf-8"?>
<!-- Generator: Adobe Illustrator 24.3.0, SVG Export Plug-In . SVG Version: 6.00 Build 0)  -->
<svg version="1.1" id="Laag_1" xmlns="http://www.w3.org/2000/svg" xmlns:xlink="http://www.w3.org/1999/xlink" x="0px" y="0px"
	 width="79.4px" height="11.8px" viewBox="0 0 79.4 11.8" style="enable-background:new 0 0 79.4 11.8;" xml:space="preserve">
<g>
	<path d="M6.3,3.2c0,0.4-0.1,0.8-0.2,1.1C6,4.6,5.8,4.9,5.6,5.1C5.3,5.4,5,5.6,4.6,5.7C4.3,5.8,3.8,5.9,3.3,5.9H1.5v3H0V0.4h3.3
		c0.5,0,0.9,0.1,1.3,0.2s0.7,0.3,0.9,0.6S6,1.7,6.1,2C6.3,2.4,6.3,2.7,6.3,3.2z M4.8,3.2c0-0.4-0.1-0.7-0.4-1
		C4.2,1.9,3.8,1.8,3.3,1.8H1.5v2.7h1.7c0.5,0,0.9-0.1,1.1-0.4C4.7,3.9,4.8,3.6,4.8,3.2z"/>
	<path d="M9.8,8.9C9.6,9,9.5,9,9.4,9C9.4,9,9.2,9,9.1,9C8.6,9,8.2,8.9,7.9,8.6C7.5,8.3,7.4,7.9,7.4,7.3V0.3h1.5v6.8
		c0,0.2,0,0.3,0.1,0.4s0.2,0.2,0.5,0.2c0.1,0,0.1,0,0.1,0c0,0,0.1,0,0.1,0V8.9z"/>
	<path d="M16.5,8.9C16.4,8.9,16.2,9,16.2,9c-0.1,0-0.2,0-0.4,0c-0.3,0-0.6-0.1-0.8-0.3c-0.2-0.2-0.3-0.4-0.3-0.6
		c-0.1,0.3-0.4,0.5-0.7,0.7c-0.3,0.2-0.7,0.3-1.2,0.3c-0.4,0-0.7-0.1-1-0.2c-0.3-0.1-0.5-0.3-0.7-0.4c-0.2-0.2-0.3-0.4-0.4-0.6
		c-0.1-0.2-0.1-0.5-0.1-0.7c0-0.3,0.1-0.6,0.2-0.8s0.3-0.4,0.5-0.6c0.2-0.2,0.4-0.3,0.7-0.4c0.3-0.1,0.5-0.1,0.8-0.2L14.5,5V4.7
		c0-0.3-0.1-0.5-0.2-0.7c-0.1-0.2-0.4-0.3-0.8-0.3c-0.4,0-0.6,0.1-0.8,0.2c-0.2,0.2-0.3,0.4-0.3,0.7h-1.5c0-0.4,0.1-0.7,0.2-0.9
		c0.1-0.3,0.3-0.5,0.6-0.6c0.2-0.2,0.5-0.3,0.8-0.4c0.3-0.1,0.6-0.1,1-0.1c0.5,0,1,0.1,1.4,0.3s0.7,0.5,0.9,1
		c0.1,0.2,0.1,0.4,0.1,0.6s0,0.4,0,0.6v2.3c0,0.1,0,0.2,0.1,0.3c0.1,0.1,0.1,0.1,0.3,0.1c0.1,0,0.1,0,0.1,0c0,0,0,0,0.1,0V8.9z
		 M14.5,6.2l-1.6,0.1c-0.2,0-0.4,0.1-0.6,0.2C12.1,6.6,12,6.8,12,7.1c0,0.2,0.1,0.4,0.3,0.6c0.2,0.1,0.4,0.2,0.6,0.2
		c0.5,0,0.9-0.1,1.2-0.4s0.4-0.6,0.4-1.1V6.2z"/>
	<path d="M21.6,8.9V5.1c0-0.4-0.1-0.7-0.2-0.9S21,3.9,20.6,3.9c-0.3,0-0.5,0.1-0.7,0.2c-0.2,0.1-0.3,0.3-0.4,0.6
		c-0.1,0.2-0.2,0.5-0.2,0.8s0,0.6,0,0.9v2.5h-1.5V2.7h1.3l0.1,0.8c0.2-0.3,0.4-0.6,0.8-0.7c0.3-0.2,0.7-0.2,1.1-0.2
		c0.3,0,0.6,0.1,0.9,0.2c0.3,0.1,0.5,0.3,0.7,0.5c0.2,0.2,0.3,0.4,0.4,0.7c0.1,0.3,0.1,0.6,0.1,0.9v4.2H21.6z"/>
	<path d="M29.1,9.8c0,0.5-0.2,1-0.5,1.3s-0.7,0.5-1.3,0.5c-0.1,0-0.2,0-0.3,0c-0.1,0-0.2,0-0.3,0c-0.1,0-0.2,0-0.3,0
		c-0.1,0-0.2,0-0.4-0.1v-1.3c0.1,0,0.2,0,0.3,0s0.1,0,0.2,0s0.1,0,0.1,0c0,0,0.1,0,0.1,0c0.2,0,0.4-0.1,0.5-0.2
		c0.1-0.1,0.2-0.3,0.2-0.5V2.7h1.5V9.8z M27.5,1.8V0.3h1.6v1.5H27.5z"/>
	<path d="M36.2,5.9c0,0.1,0,0.1,0,0.2v0.3H32c0,0.2,0,0.5,0.1,0.7c0.1,0.2,0.2,0.4,0.3,0.5c0.1,0.1,0.2,0.2,0.4,0.3
		c0.1,0.1,0.3,0.1,0.5,0.1c0.2,0,0.4,0,0.5-0.1s0.3-0.1,0.4-0.2c0.1-0.1,0.2-0.3,0.3-0.5h1.4c0,0.2-0.1,0.4-0.2,0.6
		c-0.1,0.2-0.2,0.4-0.3,0.5c-0.3,0.3-0.6,0.5-0.9,0.7c-0.4,0.1-0.8,0.2-1.2,0.2c-0.4,0-0.8-0.1-1.1-0.2c-0.3-0.1-0.6-0.3-0.8-0.6
		c-0.3-0.3-0.5-0.7-0.7-1.1c-0.2-0.4-0.2-0.9-0.2-1.4c0-0.5,0.1-1,0.2-1.4c0.1-0.4,0.4-0.8,0.7-1.1c0.2-0.2,0.5-0.4,0.8-0.6
		s0.7-0.2,1.1-0.2c0.5,0,0.9,0.1,1.3,0.3s0.7,0.5,1,0.9c0.2,0.3,0.4,0.7,0.4,1.1C36.2,5.1,36.2,5.5,36.2,5.9z M34.7,5.2
		c0-0.5-0.1-0.8-0.4-1.1C34.2,4,34.1,3.9,34,3.8c-0.2-0.1-0.3-0.1-0.6-0.1c-0.2,0-0.4,0-0.6,0.1c-0.2,0.1-0.3,0.2-0.4,0.3
		c-0.1,0.1-0.2,0.3-0.2,0.4C32.1,4.8,32,5,32,5.2H34.7z"/>
	<path d="M45.9,5.8c0,0.6-0.1,1.1-0.3,1.6c-0.2,0.5-0.5,0.8-0.8,1.1c-0.2,0.2-0.4,0.3-0.7,0.4c-0.3,0.1-0.5,0.1-0.8,0.1
		c-0.3,0-0.7-0.1-1-0.2c-0.3-0.1-0.6-0.3-0.8-0.6l-0.1,0.7h-1.3V0.3h1.5v2.9C41.8,3,42,2.8,42.3,2.7c0.3-0.1,0.6-0.2,1-0.2
		c0.3,0,0.6,0,0.9,0.1c0.3,0.1,0.5,0.2,0.7,0.4C45.5,3.7,45.9,4.6,45.9,5.8z M44.4,5.8c0-0.3,0-0.5-0.1-0.8
		c-0.1-0.3-0.2-0.5-0.3-0.7c-0.1-0.1-0.2-0.3-0.4-0.3c-0.2-0.1-0.4-0.1-0.6-0.1c-0.3,0-0.5,0.1-0.7,0.2c-0.2,0.1-0.3,0.3-0.4,0.5
		c-0.1,0.2-0.2,0.4-0.2,0.6c0,0.2-0.1,0.5-0.1,0.7c0,0.3,0,0.6,0.1,0.9c0.1,0.3,0.2,0.6,0.4,0.8c0.1,0.1,0.2,0.2,0.4,0.2
		c0.1,0.1,0.3,0.1,0.5,0.1c0.2,0,0.4,0,0.6-0.1c0.2-0.1,0.3-0.2,0.4-0.3c0.2-0.2,0.3-0.4,0.3-0.7C44.4,6.3,44.4,6.1,44.4,5.8z"/>
	<path d="M52.6,5.9c0,0.1,0,0.1,0,0.2v0.3h-4.2c0,0.2,0,0.5,0.1,0.7c0.1,0.2,0.2,0.4,0.3,0.5c0.1,0.1,0.2,0.2,0.4,0.3
		c0.1,0.1,0.3,0.1,0.5,0.1c0.2,0,0.4,0,0.5-0.1s0.3-0.1,0.4-0.2C50.9,7.4,51,7.3,51,7.1h1.4c0,0.2-0.1,0.4-0.2,0.6
		c-0.1,0.2-0.2,0.4-0.3,0.5c-0.3,0.3-0.6,0.5-0.9,0.7c-0.4,0.1-0.8,0.2-1.2,0.2c-0.4,0-0.8-0.1-1.1-0.2c-0.3-0.1-0.6-0.3-0.8-0.6
		c-0.3-0.3-0.5-0.7-0.7-1.1c-0.2-0.4-0.2-0.9-0.2-1.4c0-0.5,0.1-1,0.2-1.4c0.1-0.4,0.4-0.8,0.7-1.1c0.2-0.2,0.5-0.4,0.8-0.6
		s0.7-0.2,1.1-0.2c0.5,0,0.9,0.1,1.3,0.3s0.7,0.5,1,0.9c0.2,0.3,0.4,0.7,0.4,1.1C52.6,5.1,52.6,5.5,52.6,5.9z M51.1,5.2
		c0-0.5-0.1-0.8-0.4-1.1c-0.1-0.1-0.2-0.2-0.4-0.3c-0.2-0.1-0.3-0.1-0.6-0.1c-0.2,0-0.4,0-0.6,0.1C49,4,48.9,4.1,48.8,4.2
		c-0.1,0.1-0.2,0.3-0.2,0.4c0,0.2-0.1,0.3-0.1,0.5H51.1z"/>
	<path d="M53.6,8.9V7.6l3.3-3.7h-3.3V2.7h5v1.4l-3.3,3.6h3.3v1.2H53.6z"/>
	<path d="M65.3,5.8c0,0.5-0.1,1-0.2,1.3s-0.3,0.7-0.5,1c-0.2,0.3-0.5,0.5-0.9,0.7c-0.4,0.2-0.8,0.3-1.3,0.3S61.5,9,61.1,8.8
		c-0.4-0.2-0.7-0.4-0.9-0.7c-0.2-0.3-0.4-0.6-0.5-1s-0.2-0.8-0.2-1.3c0-0.5,0.1-1,0.2-1.3s0.3-0.7,0.5-1c0.2-0.3,0.5-0.5,0.9-0.7
		s0.8-0.3,1.3-0.3s0.9,0.1,1.3,0.3s0.7,0.4,0.9,0.7c0.2,0.3,0.4,0.6,0.5,1S65.3,5.3,65.3,5.8z M63.8,5.8c0-0.3,0-0.6-0.1-0.9
		c-0.1-0.3-0.2-0.5-0.4-0.7C63.2,4.1,63.1,4,62.9,4c-0.2-0.1-0.3-0.1-0.6-0.1S62,3.9,61.8,4c-0.2,0.1-0.3,0.2-0.4,0.3
		c-0.2,0.2-0.3,0.4-0.4,0.7C61,5.2,61,5.5,61,5.8c0,0.3,0,0.6,0.1,0.9c0.1,0.3,0.2,0.5,0.4,0.7c0.1,0.1,0.2,0.2,0.4,0.3
		c0.2,0.1,0.3,0.1,0.6,0.1s0.4,0,0.6-0.1c0.2-0.1,0.3-0.2,0.4-0.3c0.2-0.2,0.3-0.4,0.4-0.7C63.7,6.4,63.8,6.1,63.8,5.8z"/>
	<path d="M72,5.9C72,5.9,72,6,72,6v0.3h-4.2c0,0.2,0,0.5,0.1,0.7c0.1,0.2,0.2,0.4,0.3,0.5c0.1,0.1,0.2,0.2,0.4,0.3
		c0.1,0.1,0.3,0.1,0.5,0.1c0.2,0,0.4,0,0.5-0.1s0.3-0.1,0.4-0.2c0.1-0.1,0.2-0.3,0.3-0.5h1.4c0,0.2-0.1,0.4-0.2,0.6
		c-0.1,0.2-0.2,0.4-0.3,0.5c-0.3,0.3-0.6,0.5-0.9,0.7C70,9,69.6,9.1,69.2,9.1c-0.4,0-0.8-0.1-1.1-0.2c-0.3-0.1-0.6-0.3-0.8-0.6
		c-0.3-0.3-0.5-0.7-0.7-1.1c-0.2-0.4-0.2-0.9-0.2-1.4c0-0.5,0.1-1,0.2-1.4c0.1-0.4,0.4-0.8,0.7-1.1c0.2-0.2,0.5-0.4,0.8-0.6
		s0.7-0.2,1.1-0.2c0.5,0,0.9,0.1,1.3,0.3s0.7,0.5,1,0.9c0.2,0.3,0.4,0.7,0.4,1.1C72,5.1,72,5.5,72,5.9z M70.5,5.2
		c0-0.5-0.1-0.8-0.4-1.1C70,4,69.9,3.9,69.7,3.8c-0.2-0.1-0.3-0.1-0.6-0.1c-0.2,0-0.4,0-0.6,0.1c-0.2,0.1-0.3,0.2-0.4,0.3
		c-0.1,0.1-0.2,0.3-0.2,0.4c0,0.2-0.1,0.3-0.1,0.5H70.5z"/>
	<path d="M77.7,8.9l-1.8-2.7l-1,1.1v1.6h-1.5V0.3h1.5v5l2.4-2.5h1.9l-2.2,2.4l2.5,3.8H77.7z"/>
</g>
</svg>
