<?xml version="1.0" encoding="utf-8"?>
<!-- Generator: Adobe Illustrator 24.3.0, SVG Export Plug-In . SVG Version: 6.00 Build 0)  -->
<svg version="1.1" id="Laag_1" xmlns="http://www.w3.org/2000/svg" xmlns:xlink="http://www.w3.org/1999/xlink" x="0px" y="0px"
	 width="319.3px" height="57.6px" viewBox="0 0 319.3 57.6" style="enable-background:new 0 0 319.3 57.6;" xml:space="preserve">
<style type="text/css">
	.st0{fill:#FFFFFF;}
</style>
<path class="st0" d="M313.5,11.7h5.8V5.3h-5.8V11.7z M313.6,44.5h5.7V17h-5.7V44.5z M306.6,0h-5.8v39.3l0.6,5.3h5.8l-0.6-5.3V0z
	 M293.8,17H288v16.7c-0.2,3.4-3,6.2-6.4,6.2c-3.9,0-5.7-2.1-5.8-5.9V17h-5.8v17c0,6.4,4.1,11.1,11,11.1c2.3,0,5.2-1.2,6.4-2.9
	l0.3-0.3l0.3,0.3l0.6,2.3h5.2V17z M258,11.7h5.7V5.3H258V11.7z M255.4,52.3c1.7,0,2.6-1.2,2.6-2.9V17h5.7v31.8
	c0,5.3-2.8,8.8-8.6,8.8l-2.9-0.6v-5.3L255.4,52.3z M216.9,13.2c0-3.8,3.2-6.4,7.2-6.4c4.1,0,7.2,2.6,7.2,6.4c0,3.2-2.6,6.6-7.2,6.6
	C219.5,19.7,216.9,16.4,216.9,13.2 M216,32.5c0-4.4,3.8-7.3,8.1-7.3c4.6,0,8.1,2.9,8.1,7.3c0,4.1-3.5,7-8.1,7
	C219.5,39.6,216,36.6,216,32.5 M211.1,12.9c0,4,2.1,7.3,5.2,9.3c-3.7,2.1-6.1,5.6-6.1,10.6c0,6.7,5.8,12.3,13.9,12.3
	c8.1,0,13.9-5.6,13.9-12.3c0-5-2.4-8.6-6.1-10.6c3.2-2.1,5.3-5.3,5.3-9.3c0-6.4-6.1-11.7-13-11.7C217.2,1.2,211.1,6.4,211.1,12.9
	 M184.4,13.5v1.2h5.8l3.4-5.3v35.2h5.8V1.8h-6.9L184.4,13.5z M146.8,21.1c-1.5-2.9-4.5-4.7-8.7-4.7c-2.3,0-5.2,1.2-6.4,2.9l-0.3,0.3
	l-0.3-0.3l-0.6-2.3h-5.2v27.6h5.8V27.9c0.1-3.4,3-6.2,6.4-6.2c2.9,0,4.6,1.8,4.6,5.3v17.6h5.8V27.9c0.1-3.4,3-6.2,6.4-6.2
	c2.9,0,4.6,1.8,4.6,5.3v17.6h5.8V26.4c0-5.9-3.5-10-9.8-10c-2.3,0-5.2,1.2-6.7,2.9L146.8,21.1z M125.4,0h-4.1L95.8,46.9h4.1L125.4,0
	z M76.7,22.3H82v14.1c0,5.3,3.1,8.2,8.9,8.2l3.2-0.6v-5.3l-3.5,0.6c-1.7,0-3-1.2-3-2.9V22.3h5.8V17h-5.8V5.3h-1.1L82,11.1V17h-5.3
	V22.3z M55.9,1.8h-22v5.8h17.7l-11.9,10v5.3h5.8c4.9,0,8.7,3.2,8.7,8.5c0,4.4-3.5,8.2-8.1,8.2c-4.6,0-8.1-3.2-8.1-7.6h-5.8
	c0,7,5.8,13.2,13.9,13.2c8.4,0,13.9-7,13.9-13.8c0-7.6-5.4-13.2-13-13.7L59.4,7.6L55.9,1.8z M5.8,23.1c0-9.7,2.6-16.3,8.7-16.3
	c6.1,0,8.7,6.7,8.7,16.3c0,9.7-2.6,16.4-8.7,16.4C8.4,39.5,5.8,32.8,5.8,23.1 M29,23.1c0-12.6-5.2-22-14.5-22C5.2,1.2,0,10.5,0,23.1
	c0,12.6,5.2,22,14.5,22C23.7,45.1,29,35.8,29,23.1"/>
</svg>
