<?xml version="1.0" encoding="utf-8"?>
<!-- Generator: Adobe Illustrator 24.3.0, SVG Export Plug-In . SVG Version: 6.00 Build 0)  -->
<svg version="1.1" id="Laag_1" xmlns="http://www.w3.org/2000/svg" xmlns:xlink="http://www.w3.org/1999/xlink" x="0px" y="0px"
	 width="75.6px" height="24.6px" viewBox="0 0 75.6 24.6" style="enable-background:new 0 0 75.6 24.6;" xml:space="preserve">
<style type="text/css">
	.st0{fill:#FFFFFF;}
</style>
<g>
	<g>
		<path class="st0" d="M2.8,6.1L2.4,7.2C2.1,7.9,2,8.2,2,8.5c0,0.6,0.4,1,1.3,1.1V10H0V9.6c0.5,0,1-0.5,1.6-2l2.8-6.9L4.2,0.2h1.3
			l3.3,7.9c0.5,1.1,0.8,1.4,1.4,1.5V10H6.4V9.6c0.8,0,1.2-0.3,1.2-0.8c0-0.3-0.1-0.5-0.4-1.4L6.7,6.1H2.8z M4.6,1.3L3,5.5h3.4
			L4.6,1.3z"/>
		<path class="st0" d="M12.5,0v4.6c0.9-0.9,1.5-1.3,2.4-1.3c1.9,0,2.8,1.9,2.8,3.3c0,1.6-1.2,3.5-3.5,3.5c-1.2,0-1.9-0.3-2.8-0.8v-8
			l-1-0.5V0.6L12.5,0z M12.5,8c0,1.2,1.1,1.8,1.9,1.8c1.3,0,2.1-1,2.1-2.6c0-1.7-0.9-2.8-2.2-2.8c-0.6,0-1.2,0.3-1.8,0.8V8z"/>
		<path class="st0" d="M21.8,3.4c1.8,0,3.2,1.5,3.2,3.3c0,1.9-1.4,3.4-3.2,3.4c-1.9,0-3.3-1.4-3.3-3.4S20,3.4,21.8,3.4z M20.8,9.2
			c0.2,0.2,0.6,0.5,1.3,0.5c1.1,0,1.8-0.9,1.8-2.2c0-0.7-0.2-2.4-1.1-3.3c-0.3-0.3-0.7-0.5-1.2-0.5c-0.9,0-2,0.6-2,2.3
			C19.7,7,20.1,8.5,20.8,9.2z"/>
		<path class="st0" d="M27.7,3.4v1.2c0.7-0.7,1.6-1.2,2.5-1.2c1.1,0,1.9,0.7,1.9,2.1v3c0,0.9,0.2,1.2,1.1,1.2V10h-3.3V9.6
			c0.9,0,1.1-0.3,1.1-1.2V5.5c0-0.8-0.5-1.3-1.3-1.3c-0.7,0-1.4,0.3-2,0.9v3.3c0,0.9,0.1,1.3,1.2,1.3V10h-3.4V9.6
			c0.8,0,1.1-0.2,1.1-1.3V4.7l-1-0.5V4L27.7,3.4z"/>
		<path class="st0" d="M39.8,9.4c-0.5,0.5-0.8,0.8-1.2,0.8c-0.6,0-0.9-0.4-0.9-1.2c-0.7,0.7-1.4,1.2-2.1,1.2c-1,0-1.7-0.6-1.7-1.5
			s0.5-1.4,2.4-2l1.3-0.4V5c0-0.7-0.5-1.2-1.4-1.2c-0.6,0-1.2,0.4-1.2,0.8c0,0.3,0.4,0.7,0.4,0.9c0,0.2-0.9,0.5-1,0.5S34,5.5,34,5.1
			c0-1,1.1-1.7,2.6-1.7c1.4,0,2,0.6,2,1.7v3.3c0,0.5,0.1,0.7,0.4,0.7c0.2,0,0.3,0,0.5-0.2L39.8,9.4z M35.9,7.3
			c-0.6,0.3-0.9,0.6-0.9,1c0,0.6,0.4,1,1.1,1c0.5,0,1.1-0.3,1.5-0.8v-2L35.9,7.3z"/>
		<path class="st0" d="M42.6,3.4v1.1c0.7-0.7,1.5-1.1,2.4-1.1s1.6,0.5,1.8,1.2c0.8-0.8,1.6-1.2,2.5-1.2c0.8,0,1.9,0.5,1.9,1.7v3.3
			c0,0.9,0.1,1.2,1,1.2V10H49V9.6c0.7,0,1-0.3,1-1.1V5.8c0-0.9-0.3-1.6-1.4-1.6c-0.6,0-1.2,0.3-1.8,0.8v3.5c0,0.8,0.2,1.2,1,1.2V10
			h-3.2V9.6c0.8,0,1.1-0.3,1.1-1.2V5.5c0-0.8-0.5-1.3-1.4-1.3c-0.6,0-1.3,0.3-1.8,0.7v3.4c0,0.9,0.2,1.2,1,1.2V10h-3.3V9.6
			c1,0,1.1-0.3,1.1-1.3V4.7l-1-0.5V4L42.6,3.4z"/>
		<path class="st0" d="M53.6,5.9c-0.1,2.2,1.3,3.2,2.6,3.2c0.7,0,1.2-0.2,1.8-0.8l0.2,0.2c-0.7,1-1.6,1.6-2.6,1.6
			c-1.8,0-3-1.4-3-3.3c0-2,1.2-3.4,3-3.4c1.5,0,2.6,1.1,2.7,2.5H53.6z M56.9,5.5c-0.1-1.1-0.7-1.7-1.5-1.7s-1.5,0.7-1.7,1.7H56.9z"
			/>
		<path class="st0" d="M60.9,3.4v1.2c0.7-0.7,1.6-1.2,2.5-1.2c1.1,0,1.9,0.7,1.9,2.1v3c0,0.9,0.2,1.2,1.1,1.2V10H63V9.6
			c0.9,0,1.1-0.3,1.1-1.2V5.5c0-0.8-0.5-1.3-1.3-1.3c-0.7,0-1.4,0.3-2,0.9v3.3c0,0.9,0.1,1.3,1.2,1.3V10h-3.4V9.6
			c0.8,0,1.1-0.2,1.1-1.3V4.7l-1-0.5V4L60.9,3.4z"/>
		<path class="st0" d="M70.6,9.8c-0.6,0.2-1.4,0.4-1.8,0.4c-1,0-1.4-0.5-1.4-1.5V4h-1.2V3.7c0.9-0.3,1.6-0.8,1.9-1.6h0.4v1.4h2V4h-2
			v4.5c0,0.7,0.2,1,1,1c0.3,0,0.6,0,1.2-0.1L70.6,9.8L70.6,9.8z"/>
		<path class="st0" d="M71.7,7.8c0.1,1.1,0.7,1.9,1.7,1.9c0.7,0,1.3-0.5,1.3-1.1c0-0.2-0.1-0.5-0.2-0.6c-0.7-0.7-2-0.9-2.8-1.7
			c-0.3-0.3-0.4-0.6-0.4-1.1c0-1,0.9-1.7,2.1-1.7c0.7,0,1.3,0.2,1.9,0.6v1.5h-0.4c-0.2-1.2-0.7-1.7-1.5-1.7c-0.7,0-1.1,0.4-1.1,1
			c0,0.3,0.1,0.5,0.3,0.7C73,6,74.3,6.3,75.1,7.1c0.3,0.3,0.5,0.8,0.5,1.2c0,1.1-1,1.9-2.3,1.9c-0.7,0-1.4-0.2-2-0.5V7.8H71.7z"/>
	</g>
	<g>
		<path class="st0" d="M12.2,17.8v5c0,0.9,0.2,1.2,1,1.2v0.4H9.9V24c1,0,1.1-0.2,1.1-1.3V19l-1-0.4v-0.2L12.2,17.8z M11.6,14.4
			c0.4,0,0.7,0.3,0.7,0.7s-0.3,0.7-0.7,0.7s-0.7-0.3-0.7-0.7S11.2,14.4,11.6,14.4z"/>
		<path class="st0" d="M17.7,20.3c-0.1,2.2,1.3,3.2,2.6,3.2c0.7,0,1.2-0.2,1.8-0.8l0.2,0.2c-0.7,1-1.6,1.6-2.6,1.6
			c-1.8,0-3-1.4-3-3.3c0-2,1.2-3.4,3-3.4c1.5,0,2.6,1.1,2.7,2.5C22.4,20.3,17.7,20.3,17.7,20.3z M20.9,19.9
			c-0.1-1.1-0.7-1.7-1.5-1.7s-1.5,0.7-1.7,1.7H20.9z"/>
		<path class="st0" d="M24.9,17.8V19c0.7-0.7,1.6-1.2,2.5-1.2c1.1,0,1.9,0.7,1.9,2.1v3c0,0.9,0.2,1.2,1.1,1.2v0.4h-3.3V24
			c0.9,0,1.1-0.3,1.1-1.2V20c0-0.8-0.5-1.3-1.3-1.3c-0.7,0-1.4,0.3-2,0.9v3.3c0,0.9,0.1,1.3,1.2,1.3v0.4h-3.4V24
			c0.8,0,1.1-0.2,1.1-1.3V19l-1-0.5v-0.2L24.9,17.8z"/>
		<path class="st0" d="M34.7,24.2c-0.6,0.2-1.4,0.4-1.8,0.4c-1,0-1.4-0.5-1.4-1.5v-4.7h-1.2v-0.3c0.9-0.3,1.6-0.8,1.9-1.6h0.4v1.4h2
			v0.5h-2v4.5c0,0.7,0.2,1,1,1c0.3,0,0.6,0,1.2-0.1v0.4H34.7z"/>
		<path class="st0" d="M37.4,17.8v1.7l0,0c0.5-1.2,1.1-1.6,1.7-1.6c0.5,0,1.1,0.4,1.1,0.8c0,0.3-0.2,0.8-0.5,0.8
			c-0.4,0-0.6-0.7-1.1-0.7c-0.3,0-0.6,0.2-1.2,1.3v2.8c0,0.9,0.1,1.2,1.5,1.2v0.4h-3.7V24c0.8,0,1.1-0.2,1.1-1v-3.9l-1.1-0.5v-0.2
			L37.4,17.8z"/>
		<path class="st0" d="M46.7,23.8c-0.5,0.5-0.8,0.8-1.2,0.8c-0.6,0-0.9-0.4-0.9-1.2c-0.7,0.7-1.4,1.2-2.1,1.2c-1,0-1.7-0.6-1.7-1.5
			s0.5-1.4,2.4-2l1.3-0.4v-1.1c0-0.7-0.5-1.2-1.4-1.2c-0.6,0-1.2,0.4-1.2,0.8c0,0.3,0.4,0.7,0.4,0.9c0,0.2-0.9,0.5-1,0.5
			s-0.4-0.5-0.4-0.9c0-1,1.1-1.7,2.6-1.7c1.4,0,2,0.6,2,1.7V23c0,0.5,0.1,0.7,0.4,0.7c0.2,0,0.3,0,0.5-0.2L46.7,23.8z M42.8,21.7
			c-0.6,0.3-0.9,0.6-0.9,1c0,0.6,0.4,1,1.1,1c0.5,0,1.1-0.3,1.5-0.8v-2L42.8,21.7z"/>
		<path class="st0" d="M54.5,24.2l-2.2,0.4v-1.2c-0.9,0.9-1.5,1.2-2.4,1.2c-1.5,0-2.7-1.3-2.7-3.1c0-1.6,1.2-3.7,3.5-3.7
			c0.6,0,1.1,0.1,1.6,0.5v-2.6l-1.1-0.5V15l2.2-0.6V23c0,0.6,0.2,0.9,0.6,0.9c0.2,0,0.3,0,0.4,0v0.3H54.5z M52.3,20.3
			c0-1.1-0.7-2.1-2-2.1s-2,1-2,2.6c0,1.7,0.9,2.9,2.2,2.9c0.6,0,1.2-0.3,1.7-0.9L52.3,20.3L52.3,20.3z"/>
		<path class="st0" d="M55.9,20.3c-0.1,2.2,1.3,3.2,2.6,3.2c0.7,0,1.2-0.2,1.8-0.8l0.2,0.2c-0.7,1-1.6,1.6-2.6,1.6
			c-1.8,0-3-1.4-3-3.3c0-2,1.2-3.4,3-3.4c1.5,0,2.6,1.1,2.7,2.5C60.6,20.3,55.9,20.3,55.9,20.3z M59.2,19.9
			c-0.1-1.1-0.7-1.7-1.5-1.7s-1.5,0.7-1.7,1.7H59.2z"/>
		<path class="st0" d="M62,22.2c0.1,1.1,0.7,1.9,1.7,1.9c0.7,0,1.3-0.5,1.3-1.1c0-0.2-0.1-0.5-0.2-0.6c-0.7-0.7-2-0.9-2.8-1.7
			c-0.3-0.3-0.4-0.6-0.4-1.1c0-1,0.9-1.7,2.1-1.7c0.7,0,1.3,0.2,1.9,0.6V20H65c-0.2-1.2-0.7-1.7-1.5-1.7c-0.7,0-1.1,0.4-1.1,1
			c0,0.3,0.1,0.5,0.3,0.7c0.6,0.6,1.9,0.8,2.7,1.6c0.3,0.3,0.5,0.8,0.5,1.2c0,1.1-1,1.9-2.3,1.9c-0.7,0-1.4-0.2-2-0.5v-1.8H62V22.2z
			"/>
	</g>
</g>
</svg>
