<?xml version="1.0" encoding="utf-8"?>
<!-- Generator: Adobe Illustrator 24.0.0, SVG Export Plug-In . SVG Version: 6.00 Build 0)  -->
<svg version="1.1" id="Laag_1" xmlns="http://www.w3.org/2000/svg" xmlns:xlink="http://www.w3.org/1999/xlink" x="0px" y="0px"
	 width="247.9px" height="37.3px" viewBox="0 0 247.9 37.3" style="enable-background:new 0 0 247.9 37.3;" xml:space="preserve">
<style type="text/css">
	.st0{fill:#FFFFFF;}
</style>
<g>
	<polygon class="st0" points="9.9,26.1 9.8,26.1 5.6,0.3 0,0.3 7.5,37.3 12.2,37.3 19.8,0.3 14.2,0.3 	"/>
	<path class="st0" d="M37.6,2.2c-0.9-0.7-1.8-1.3-2.9-1.7C33.7,0.2,32.6,0,31.5,0c-1.1,0-2.1,0.2-3.2,0.6c-1.1,0.4-2,0.9-2.8,1.7
		c-0.9,0.8-1.6,1.7-2.1,2.9c-0.5,1.1-0.8,2.5-0.8,3.9v19.5c0,1.6,0.3,2.9,0.8,4c0.5,1.1,1.2,2,2.1,2.8c0.8,0.8,1.8,1.3,2.8,1.7
		c1.1,0.4,2.1,0.6,3.2,0.6c1.1,0,2.1-0.2,3.2-0.6c1.1-0.4,2-1,2.9-1.7c0.8-0.7,1.5-1.6,2-2.8c0.5-1.1,0.8-2.4,0.8-4V9
		c0-1.5-0.3-2.8-0.8-3.9C39.1,3.9,38.4,3,37.6,2.2z M35.1,28.6c0,1.3-0.4,2.2-1.1,2.8c-0.7,0.6-1.5,0.9-2.5,0.9
		c-1,0-1.8-0.3-2.5-0.9c-0.7-0.6-1.1-1.5-1.1-2.8V9c0-1.3,0.4-2.2,1.1-2.8c0.7-0.6,1.5-0.9,2.5-0.9c1,0,1.8,0.3,2.5,0.9
		c0.7,0.6,1.1,1.6,1.1,2.8V28.6z"/>
	<path class="st0" d="M59.7,2.2c-0.9-0.7-1.8-1.3-2.9-1.7C55.8,0.2,54.7,0,53.6,0c-1.1,0-2.1,0.2-3.2,0.6c-1.1,0.4-2,0.9-2.8,1.7
		c-0.9,0.8-1.6,1.7-2.1,2.9C45,6.2,44.8,7.5,44.8,9v19.5c0,1.6,0.3,2.9,0.8,4c0.5,1.1,1.2,2,2.1,2.8c0.8,0.8,1.8,1.3,2.8,1.7
		c1.1,0.4,2.1,0.6,3.2,0.6c1.1,0,2.1-0.2,3.2-0.6c1.1-0.4,2-1,2.9-1.7c0.8-0.7,1.5-1.6,2-2.8c0.5-1.1,0.8-2.4,0.8-4V9
		c0-1.5-0.3-2.8-0.8-3.9C61.2,3.9,60.6,3,59.7,2.2z M57.2,28.6c0,1.3-0.4,2.2-1.1,2.8c-0.7,0.6-1.5,0.9-2.5,0.9
		c-1,0-1.8-0.3-2.5-0.9c-0.7-0.6-1.1-1.5-1.1-2.8V9c0-1.3,0.4-2.2,1.1-2.8c0.7-0.6,1.5-0.9,2.5-0.9c1,0,1.8,0.3,2.5,0.9
		c0.7,0.6,1.1,1.6,1.1,2.8V28.6z"/>
	<path class="st0" d="M84.1,16.7c0.7-1.5,1-3.4,1-5.6c0-7.2-3.1-10.9-9.3-10.9h-8.5v37h5.3V21.5h3.2l4.9,15.8h5.6l-5.7-16.9
		C82.2,19.5,83.4,18.2,84.1,16.7z M79.6,13.5c-0.1,0.7-0.3,1.3-0.6,1.8c-0.3,0.5-0.7,0.9-1.3,1.1c-0.6,0.3-1.3,0.4-2.2,0.4h-3V5.3
		h2.8c1.8,0,3.1,0.5,3.7,1.5c0.3,0.5,0.5,1.1,0.6,1.8c0.1,0.7,0.2,1.5,0.2,2.5C79.8,12,79.7,12.8,79.6,13.5z"/>
	<path class="st0" d="M106.8,0.3H99v37h7.4c3.1,0,5.6-0.8,7.2-2.5c1.7-1.6,2.5-4.2,2.5-7.7V9.9c0-3-0.8-5.4-2.4-7.1
		S109.9,0.3,106.8,0.3z M110.8,27.7c0,1.6-0.3,2.8-0.9,3.5c-0.6,0.7-1.7,1.1-3.2,1.1h-2.4v-27h2.4c1.6,0,2.6,0.4,3.2,1.2
		c0.6,0.8,0.9,1.9,0.9,3.4V27.7z"/>
	<polygon class="st0" points="121.1,37.3 136.9,37.3 136.9,32 126.4,32 126.4,21.1 135.6,21.1 135.6,16.2 126.4,16.2 126.4,5.3 
		136.9,5.3 136.9,0.3 121.1,0.3 	"/>
	<path class="st0" d="M157,27.8c0,0.9-0.1,1.7-0.4,2.3c-0.2,0.6-0.6,1-0.9,1.3c-0.4,0.3-0.8,0.6-1.2,0.7c-0.4,0.1-0.8,0.2-1.1,0.2
		c-0.6,0-1.1-0.1-1.6-0.4c-0.5-0.3-0.9-0.6-1.3-1l-4.2,3.3c0.7,0.7,1.5,1.5,2.7,2.2c1.1,0.7,2.5,1.1,4.2,1.1c1.5,0,2.7-0.2,3.8-0.7
		c1.1-0.5,2-1.1,2.8-2c1.6-1.7,2.4-3.8,2.4-6.3V0.3H157V27.8z"/>
	<polygon class="st0" points="167.3,37.3 183.1,37.3 183.1,32 172.6,32 172.6,21.1 181.7,21.1 181.7,16.2 172.6,16.2 172.6,5.3 
		183.1,5.3 183.1,0.3 167.3,0.3 	"/>
	<path class="st0" d="M198.3,28.5c0,1.3-0.3,2.3-0.9,2.9c-0.6,0.6-1.4,0.9-2.3,0.9c-0.9,0-1.7-0.3-2.3-0.9c-0.6-0.6-0.9-1.6-0.9-2.9
		V0.3h-5.3V29c0,1.2,0.2,2.3,0.7,3.3c0.4,1,1.1,1.9,1.9,2.7c0.8,0.8,1.7,1.4,2.7,1.9c1,0.5,2.1,0.7,3.3,0.7c1.2,0,2.3-0.2,3.3-0.7
		c1-0.4,2-1.1,2.8-1.9c0.8-0.8,1.4-1.7,1.8-2.7c0.4-1,0.6-2.1,0.6-3.3V0.3h-5.3V28.5z"/>
	<path class="st0" d="M223.3,2.2c-0.9-0.7-1.8-1.3-2.9-1.7c-1.1-0.4-2.1-0.6-3.2-0.6c-1.1,0-2.1,0.2-3.2,0.6c-1.1,0.4-2,0.9-2.8,1.7
		c-0.9,0.8-1.6,1.7-2.1,2.9c-0.5,1.1-0.8,2.5-0.8,3.9v19.5c0,1.6,0.3,2.9,0.8,4c0.5,1.1,1.2,2,2.1,2.8c0.8,0.8,1.8,1.3,2.8,1.7
		c1.1,0.4,2.1,0.6,3.2,0.6c1.1,0,2.1-0.2,3.2-0.6c1.1-0.4,2-1,2.9-1.7c0.8-0.7,1.5-1.6,2-2.8c0.5-1.1,0.8-2.4,0.8-4V16.9h-9.5v4.7
		h4.2v7c0,1.3-0.4,2.2-1.1,2.8c-0.7,0.6-1.5,0.9-2.5,0.9c-1,0-1.8-0.3-2.5-0.9c-0.7-0.6-1.1-1.5-1.1-2.8V9c0-1.3,0.4-2.2,1.1-2.8
		c0.7-0.6,1.5-0.9,2.5-0.9c1,0,1.8,0.3,2.5,0.9c0.7,0.6,1.1,1.6,1.1,2.8v1.9h5.3V9c0-1.5-0.3-2.8-0.8-3.9
		C224.8,3.9,224.1,3,223.3,2.2z"/>
	<path class="st0" d="M245.5,2.8c-1.6-1.7-3.9-2.5-6.9-2.5h-7.8v37h7.4c3.1,0,5.6-0.8,7.2-2.5c1.7-1.6,2.5-4.2,2.5-7.7V9.9
		C247.9,6.8,247.1,4.5,245.5,2.8z M242.6,27.7c0,1.6-0.3,2.8-0.9,3.5c-0.6,0.7-1.7,1.1-3.2,1.1H236v-27h2.4c1.6,0,2.6,0.4,3.2,1.2
		c0.6,0.8,0.9,1.9,0.9,3.4V27.7z"/>
</g>
</svg>
