<?xml version="1.0" encoding="utf-8"?>
<!-- Generator: Adobe Illustrator 24.3.0, SVG Export Plug-In . SVG Version: 6.00 Build 0)  -->
<svg version="1.1" id="Laag_1" xmlns="http://www.w3.org/2000/svg" xmlns:xlink="http://www.w3.org/1999/xlink" x="0px" y="0px"
	 width="550.3px" height="51.9px" viewBox="0 0 550.3 51.9" style="enable-background:new 0 0 550.3 51.9;" xml:space="preserve">
<style type="text/css">
	.st0{fill:#FFFFFF;}
</style>
<g>
	<path class="st0" d="M69,1.3h18.7c4.4,0,7.8,1.1,10.1,3.2c2.3,2.1,3.5,5.2,3.5,9.2c0,2.4-0.4,4.4-1.3,6c-0.9,1.6-2.2,3-4,4.1
		c1.8,0.3,3.3,0.9,4.6,1.6c1.3,0.7,2.3,1.6,3.1,2.6c0.8,1,1.4,2.2,1.7,3.5c0.3,1.3,0.5,2.6,0.5,4.1c0,2.3-0.4,4.3-1.2,6
		c-0.8,1.7-1.9,3.2-3.3,4.4c-1.4,1.2-3.2,2.1-5.2,2.7c-2,0.6-4.3,0.9-6.9,0.9H69V1.3z M81.5,20.3h2.3c3.9,0,5.9-1.6,5.9-4.7
		s-2-4.7-5.9-4.7h-2.3V20.3z M81.5,39.8h2.8c3.2,0,5.4-0.4,6.8-1.2c1.4-0.8,2-2.1,2-3.9s-0.7-3.1-2-3.9c-1.4-0.8-3.6-1.2-6.8-1.2
		h-2.8V39.8z"/>
	<path class="st0" d="M126.4,1.3v48.2h-12.5V1.3H126.4z"/>
	<path class="st0" d="M135,49.6l8.2-48.2h12.4l9.7,25.7l9.6-25.7h12.4l8.2,48.2H183l-4.2-27.8l-11.4,27.8h-5l-10.8-27.8l-4.2,27.8
		H135z"/>
	<path class="st0" d="M216.5,19.9h18.1V1.3h12.5v48.2h-12.5V29.7h-18.1v19.9H204V1.3h12.5V19.9z"/>
	<path class="st0" d="M270.4,1.3v26.2c0,1.4,0.1,2.8,0.2,4.3c0.1,1.5,0.4,2.8,1,4c0.5,1.2,1.4,2.2,2.5,2.9c1.2,0.7,2.8,1.1,4.9,1.1
		c2.1,0,3.7-0.4,4.8-1.1c1.1-0.7,2-1.7,2.5-2.9c0.6-1.2,0.9-2.5,1-4c0.1-1.5,0.2-2.9,0.2-4.3V1.3h12.5v27.9c0,7.5-1.7,13-5.1,16.4
		c-3.4,3.5-8.7,5.2-15.8,5.2c-7.1,0-12.4-1.7-15.9-5.2s-5.2-8.9-5.2-16.4V1.3H270.4z"/>
	<path class="st0" d="M323.2,1.3v48.2h-12.5V1.3H323.2z"/>
	<path class="st0" d="M360.4,13.7c-1.4-1.1-2.7-1.9-4.1-2.5c-1.4-0.5-2.7-0.8-4-0.8c-1.6,0-2.9,0.4-4,1.2c-1,0.8-1.5,1.8-1.5,3
		c0,0.9,0.3,1.6,0.8,2.1c0.5,0.6,1.2,1,2,1.4c0.8,0.4,1.8,0.8,2.8,1.1c1,0.3,2.1,0.6,3.1,1c4.1,1.4,7.1,3.2,9,5.5
		c1.9,2.3,2.8,5.3,2.8,8.9c0,2.5-0.4,4.7-1.2,6.7c-0.8,2-2,3.7-3.6,5.1s-3.6,2.5-5.9,3.3c-2.3,0.8-5,1.2-7.9,1.2
		c-6.1,0-11.7-1.8-16.9-5.4l5.4-10.1c1.9,1.7,3.7,2.9,5.6,3.7c1.8,0.8,3.6,1.2,5.4,1.2c2,0,3.6-0.5,4.6-1.4c1-0.9,1.5-2,1.5-3.2
		c0-0.7-0.1-1.4-0.4-1.9c-0.3-0.5-0.7-1-1.3-1.5c-0.6-0.4-1.4-0.9-2.3-1.2s-2.1-0.8-3.5-1.3c-1.6-0.5-3.2-1.1-4.8-1.7
		c-1.6-0.6-2.9-1.4-4.2-2.5c-1.2-1-2.2-2.3-2.9-3.9c-0.7-1.6-1.1-3.5-1.1-5.9s0.4-4.6,1.2-6.5s1.9-3.6,3.3-5
		c1.4-1.4,3.2-2.5,5.2-3.2c2.1-0.8,4.4-1.2,6.9-1.2c2.4,0,4.9,0.3,7.5,1c2.6,0.7,5.1,1.6,7.5,2.9L360.4,13.7z"/>
	<path class="st0" d="M416.6,12v37.6H404V12h-10.3V1.3h33.1V12H416.6z"/>
	<path class="st0" d="M444.3,1.3L456,30.7l11.7-29.4h13.6L461,49.6h-10L430.7,1.3H444.3z"/>
</g>
</svg>
