<?xml version="1.0" encoding="utf-8"?>
<!-- Generator: Adobe Illustrator 22.1.0, SVG Export Plug-In . SVG Version: 6.00 Build 0)  -->
<svg version="1.1" id="Laag_1" xmlns="http://www.w3.org/2000/svg" xmlns:xlink="http://www.w3.org/1999/xlink" x="0px" y="0px"
	 viewBox="0 0 127.4 89.6" style="enable-background:new 0 0 127.4 89.6;" xml:space="preserve">
<style type="text/css">
	.st0{fill:#FFFFFF;}
	.st1{fill:#1D1D1B;}
</style>
<rect y="1.3" class="st0" width="127.4" height="88.3"/>
<g>
	<g>
		<path class="st1" d="M127.4,89.6H0V0h127.4V89.6z M1,88.6h125.4V1H1V88.6z"/>
	</g>
	<g>
		<path class="st1" d="M11.6,29.7l2-0.3c0.1,0.8,0.4,1.4,0.9,1.8c0.5,0.4,1.2,0.6,2.2,0.6c0.9,0,1.6-0.2,2.1-0.6s0.7-0.8,0.7-1.3
			c0-0.5-0.2-0.8-0.6-1.1c-0.3-0.2-1-0.4-2.1-0.7c-1.5-0.4-2.5-0.7-3.1-1c-0.6-0.3-1-0.7-1.3-1.1c-0.3-0.5-0.4-1-0.4-1.6
			c0-0.5,0.1-1,0.4-1.5c0.2-0.5,0.6-0.8,1-1.1c0.3-0.2,0.7-0.4,1.3-0.6c0.5-0.2,1.1-0.2,1.7-0.2c0.9,0,1.8,0.1,2.5,0.4
			c0.7,0.3,1.2,0.6,1.6,1.1c0.3,0.5,0.6,1.1,0.7,1.8l-2,0.3c-0.1-0.6-0.4-1.1-0.8-1.4c-0.4-0.3-1-0.5-1.8-0.5c-0.9,0-1.6,0.2-2,0.5
			c-0.4,0.3-0.6,0.7-0.6,1.1c0,0.3,0.1,0.5,0.2,0.7c0.2,0.2,0.4,0.4,0.8,0.5c0.2,0.1,0.8,0.2,1.8,0.5c1.4,0.4,2.4,0.7,3,0.9
			c0.6,0.2,1,0.6,1.3,1.1s0.5,1,0.5,1.7c0,0.7-0.2,1.3-0.6,1.9c-0.4,0.6-1,1.1-1.7,1.4c-0.7,0.3-1.6,0.5-2.5,0.5
			c-1.5,0-2.7-0.3-3.5-1C12.4,32,11.8,31,11.6,29.7z"/>
		<path class="st1" d="M28.3,31.5l0.3,1.8c-0.6,0.1-1.1,0.2-1.5,0.2c-0.7,0-1.3-0.1-1.7-0.3c-0.4-0.2-0.7-0.5-0.9-0.9
			s-0.2-1.2-0.2-2.4v-6.9h-1.5v-1.6h1.5v-3l2-1.2v4.2h2v1.6h-2v7c0,0.6,0,0.9,0.1,1.1c0.1,0.2,0.2,0.3,0.3,0.4
			c0.2,0.1,0.4,0.1,0.7,0.1C27.7,31.6,28,31.5,28.3,31.5z"/>
		<path class="st1" d="M38.5,29.5l2.1,0.3c-0.3,1.2-0.9,2.2-1.8,2.8s-2,1-3.4,1c-1.7,0-3.1-0.5-4.1-1.6c-1-1.1-1.5-2.6-1.5-4.5
			c0-2,0.5-3.6,1.5-4.7s2.4-1.7,4-1.7c1.6,0,2.9,0.5,3.9,1.6c1,1.1,1.5,2.6,1.5,4.6c0,0.1,0,0.3,0,0.5h-8.9c0.1,1.3,0.4,2.3,1.1,3
			c0.7,0.7,1.5,1,2.5,1c0.7,0,1.4-0.2,1.9-0.6S38.2,30.3,38.5,29.5z M31.8,26.2h6.7c-0.1-1-0.3-1.8-0.8-2.3
			c-0.6-0.8-1.5-1.2-2.5-1.2c-0.9,0-1.7,0.3-2.3,0.9C32.3,24.3,31.9,25.2,31.8,26.2z"/>
		<path class="st1" d="M50.8,33.3v-1.5c-0.8,1.2-1.9,1.8-3.3,1.8c-1,0-1.8-0.3-2.6-0.8c-0.8-0.5-1.4-1.3-1.9-2.2
			c-0.4-0.9-0.7-2-0.7-3.2c0-1.2,0.2-2.3,0.6-3.2s1-1.7,1.8-2.2c0.8-0.5,1.7-0.8,2.7-0.8c0.7,0,1.4,0.2,1.9,0.5
			c0.6,0.3,1,0.7,1.4,1.2v-5.9h2v16.5H50.8z M44.5,27.3c0,1.5,0.3,2.7,1,3.4c0.6,0.8,1.4,1.1,2.3,1.1c0.9,0,1.6-0.4,2.3-1.1
			c0.6-0.7,0.9-1.8,0.9-3.3c0-1.6-0.3-2.8-0.9-3.6s-1.4-1.1-2.3-1.1c-0.9,0-1.6,0.4-2.3,1.1C44.8,24.6,44.5,25.8,44.5,27.3z"/>
		<path class="st1" d="M64.1,29.5l2.1,0.3c-0.3,1.2-0.9,2.2-1.8,2.8s-2,1-3.4,1c-1.7,0-3.1-0.5-4.1-1.6c-1-1.1-1.5-2.6-1.5-4.5
			c0-2,0.5-3.6,1.5-4.7s2.4-1.7,4-1.7c1.6,0,2.9,0.5,3.9,1.6c1,1.1,1.5,2.6,1.5,4.6c0,0.1,0,0.3,0,0.5h-8.9c0.1,1.3,0.4,2.3,1.1,3
			c0.7,0.7,1.5,1,2.5,1c0.7,0,1.4-0.2,1.9-0.6S63.8,30.3,64.1,29.5z M57.4,26.2h6.7c-0.1-1-0.3-1.8-0.8-2.3
			c-0.6-0.8-1.5-1.2-2.5-1.2c-0.9,0-1.7,0.3-2.3,0.9C57.8,24.3,57.5,25.2,57.4,26.2z"/>
		<path class="st1" d="M68.6,33.3V16.8h2v16.5H68.6z"/>
		<path class="st1" d="M73.8,19.2v-2.3h2v2.3H73.8z M73.8,33.3V21.4h2v11.9H73.8z"/>
		<path class="st1" d="M76.3,37.9l0.4-1.7c0.4,0.1,0.7,0.2,1,0.2c0.4,0,0.7-0.1,0.9-0.4s0.3-1,0.3-2V21.4h2V34
			c0,1.5-0.2,2.5-0.6,3.1c-0.5,0.7-1.3,1.1-2.4,1.1C77.4,38.1,76.9,38.1,76.3,37.9z M78.9,19.2v-2.3h2v2.3H78.9z"/>
		<path class="st1" d="M84,33.3V16.8h2v9.4l4.8-4.9h2.6l-4.6,4.4l5,7.5h-2.5l-3.9-6.1l-1.4,1.4v4.7H84z"/>
	</g>
	<g>
		<path class="st1" d="M12.4,53.3V41.4h1.8v1.7c0.4-0.6,0.9-1.1,1.5-1.4s1.3-0.5,2.1-0.5c0.9,0,1.6,0.2,2.2,0.5
			c0.6,0.4,1,0.9,1.2,1.5c0.9-1.4,2.2-2.1,3.7-2.1c1.2,0,2.1,0.3,2.7,1s1,1.7,1,3v8.2h-2v-7.5c0-0.8-0.1-1.4-0.2-1.7
			c-0.1-0.4-0.4-0.6-0.7-0.9c-0.3-0.2-0.7-0.3-1.2-0.3c-0.8,0-1.5,0.3-2.1,0.8s-0.8,1.5-0.8,2.7v6.9h-2v-7.7c0-0.9-0.2-1.6-0.5-2
			s-0.9-0.7-1.6-0.7c-0.6,0-1.1,0.1-1.6,0.4c-0.5,0.3-0.8,0.7-1,1.3c-0.2,0.6-0.3,1.4-0.3,2.5v6.2H12.4z"/>
		<path class="st1" d="M39.4,53.3v-1.8c-0.9,1.3-2.2,2-3.8,2c-0.7,0-1.4-0.1-2-0.4c-0.6-0.3-1.1-0.6-1.4-1c-0.3-0.4-0.5-0.9-0.6-1.5
			c-0.1-0.4-0.1-1-0.1-1.9v-7.4h2V48c0,1.1,0,1.8,0.1,2.1c0.1,0.5,0.4,0.9,0.8,1.3c0.4,0.3,0.9,0.5,1.5,0.5s1.2-0.2,1.7-0.5
			s0.9-0.7,1.1-1.3c0.2-0.5,0.3-1.3,0.3-2.3v-6.4h2v11.9H39.4z"/>
		<path class="st1" d="M43.6,49.8l2-0.3c0.1,0.8,0.4,1.4,0.9,1.8c0.5,0.4,1.2,0.6,2.2,0.6c0.9,0,1.6-0.2,2.1-0.6s0.7-0.8,0.7-1.3
			c0-0.5-0.2-0.8-0.6-1.1c-0.3-0.2-1-0.4-2.1-0.7c-1.5-0.4-2.5-0.7-3.1-1c-0.6-0.3-1-0.7-1.3-1.1c-0.3-0.5-0.4-1-0.4-1.6
			c0-0.5,0.1-1,0.4-1.5c0.2-0.5,0.6-0.8,1-1.1c0.3-0.2,0.7-0.4,1.3-0.6c0.5-0.2,1.1-0.2,1.7-0.2c0.9,0,1.8,0.1,2.5,0.4
			c0.7,0.3,1.2,0.6,1.6,1.1c0.3,0.5,0.6,1.1,0.7,1.8l-2,0.3c-0.1-0.6-0.4-1.1-0.8-1.4c-0.4-0.3-1-0.5-1.8-0.5c-0.9,0-1.6,0.2-2,0.5
			c-0.4,0.3-0.6,0.7-0.6,1.1c0,0.3,0.1,0.5,0.2,0.7c0.2,0.2,0.4,0.4,0.8,0.5c0.2,0.1,0.8,0.2,1.8,0.5c1.4,0.4,2.4,0.7,3,0.9
			c0.6,0.2,1,0.6,1.3,1.1s0.5,1,0.5,1.7c0,0.7-0.2,1.3-0.6,1.9c-0.4,0.6-1,1.1-1.7,1.4c-0.7,0.3-1.6,0.5-2.5,0.5
			c-1.5,0-2.7-0.3-3.5-1C44.3,52,43.8,51,43.6,49.8z"/>
		<path class="st1" d="M64,49.5l2.1,0.3c-0.3,1.2-0.9,2.2-1.8,2.8s-2,1-3.4,1c-1.7,0-3.1-0.5-4.1-1.6c-1-1.1-1.5-2.6-1.5-4.5
			c0-2,0.5-3.6,1.5-4.7s2.4-1.7,4-1.7c1.6,0,2.9,0.5,3.9,1.6c1,1.1,1.5,2.6,1.5,4.6c0,0.1,0,0.3,0,0.5h-8.9c0.1,1.3,0.4,2.3,1.1,3
			c0.7,0.7,1.5,1,2.5,1c0.7,0,1.4-0.2,1.9-0.6S63.7,50.3,64,49.5z M57.4,46.2h6.7c-0.1-1-0.3-1.8-0.8-2.3c-0.6-0.8-1.5-1.2-2.5-1.2
			c-0.9,0-1.7,0.3-2.3,0.9C57.8,44.3,57.5,45.2,57.4,46.2z"/>
		<path class="st1" d="M76.5,53.3v-1.8c-0.9,1.3-2.2,2-3.8,2c-0.7,0-1.4-0.1-2-0.4c-0.6-0.3-1.1-0.6-1.4-1c-0.3-0.4-0.5-0.9-0.6-1.5
			c-0.1-0.4-0.1-1-0.1-1.9v-7.4h2V48c0,1.1,0,1.8,0.1,2.1c0.1,0.5,0.4,0.9,0.8,1.3c0.4,0.3,0.9,0.5,1.5,0.5s1.2-0.2,1.7-0.5
			s0.9-0.7,1.1-1.3s0.3-1.3,0.3-2.3v-6.4h2v11.9H76.5z"/>
		<path class="st1" d="M81.5,53.3V41.4h1.8v1.7c0.4-0.6,0.9-1.1,1.5-1.4c0.6-0.4,1.3-0.5,2.1-0.5c0.9,0,1.6,0.2,2.2,0.5
			c0.6,0.4,1,0.9,1.2,1.5c0.9-1.4,2.2-2.1,3.7-2.1c1.2,0,2.1,0.3,2.7,1c0.6,0.7,1,1.7,1,3v8.2h-2v-7.5c0-0.8-0.1-1.4-0.2-1.7
			c-0.1-0.4-0.4-0.6-0.7-0.9c-0.3-0.2-0.7-0.3-1.2-0.3c-0.8,0-1.5,0.3-2.1,0.8s-0.8,1.5-0.8,2.7v6.9h-2v-7.7c0-0.9-0.2-1.6-0.5-2
			s-0.9-0.7-1.6-0.7c-0.6,0-1.1,0.1-1.6,0.4c-0.5,0.3-0.8,0.7-1,1.3c-0.2,0.6-0.3,1.4-0.3,2.5v6.2H81.5z"/>
	</g>
	<g>
		<path class="st1" d="M11.6,69.8l2-0.3c0.1,0.8,0.4,1.4,0.9,1.8c0.5,0.4,1.2,0.6,2.2,0.6c0.9,0,1.6-0.2,2.1-0.6s0.7-0.8,0.7-1.3
			c0-0.5-0.2-0.8-0.6-1.1c-0.3-0.2-1-0.4-2.1-0.7c-1.5-0.4-2.5-0.7-3.1-1c-0.6-0.3-1-0.7-1.3-1.1c-0.3-0.5-0.4-1-0.4-1.6
			c0-0.5,0.1-1,0.4-1.5c0.2-0.5,0.6-0.8,1-1.1c0.3-0.2,0.7-0.4,1.3-0.6c0.5-0.2,1.1-0.2,1.7-0.2c0.9,0,1.8,0.1,2.5,0.4
			c0.7,0.3,1.2,0.6,1.6,1.1c0.3,0.5,0.6,1.1,0.7,1.8l-2,0.3c-0.1-0.6-0.4-1.1-0.8-1.4c-0.4-0.3-1-0.5-1.8-0.5c-0.9,0-1.6,0.2-2,0.5
			c-0.4,0.3-0.6,0.7-0.6,1.1c0,0.3,0.1,0.5,0.2,0.7c0.2,0.2,0.4,0.4,0.8,0.5c0.2,0.1,0.8,0.2,1.8,0.5c1.4,0.4,2.4,0.7,3,0.9
			c0.6,0.2,1,0.6,1.3,1.1s0.5,1,0.5,1.7c0,0.7-0.2,1.3-0.6,1.9c-0.4,0.6-1,1.1-1.7,1.4c-0.7,0.3-1.6,0.5-2.5,0.5
			c-1.5,0-2.7-0.3-3.5-1C12.4,72,11.8,71,11.6,69.8z"/>
		<path class="st1" d="M31.7,69l2,0.3c-0.2,1.4-0.8,2.4-1.7,3.2c-0.9,0.8-2,1.2-3.3,1.2c-1.6,0-2.9-0.5-3.9-1.6
			c-1-1.1-1.5-2.6-1.5-4.6c0-1.3,0.2-2.4,0.6-3.4s1.1-1.7,1.9-2.2c0.9-0.5,1.8-0.7,2.8-0.7c1.3,0,2.4,0.3,3.2,1s1.4,1.6,1.6,2.8
			l-2,0.3c-0.2-0.8-0.5-1.4-1-1.8c-0.5-0.4-1.1-0.6-1.7-0.6c-1,0-1.8,0.4-2.5,1.1c-0.6,0.7-1,1.9-1,3.5c0,1.6,0.3,2.8,0.9,3.5
			c0.6,0.7,1.4,1.1,2.4,1.1c0.8,0,1.5-0.2,2-0.7C31.2,70.7,31.6,70,31.7,69z"/>
		<path class="st1" d="M35.4,73.3V56.9h2v5.9c0.9-1.1,2.1-1.6,3.6-1.6c0.9,0,1.7,0.2,2.3,0.5c0.7,0.3,1.1,0.8,1.4,1.4
			c0.3,0.6,0.4,1.5,0.4,2.7v7.6h-2v-7.6c0-1-0.2-1.7-0.7-2.2c-0.4-0.5-1.1-0.7-1.9-0.7c-0.6,0-1.2,0.2-1.7,0.5
			c-0.5,0.3-0.9,0.7-1.1,1.3c-0.2,0.5-0.3,1.3-0.3,2.2v6.5H35.4z"/>
		<path class="st1" d="M48.2,59.2v-2.3h2v2.3H48.2z M48.2,73.3V61.4h2v11.9H48.2z"/>
		<path class="st1" d="M61.5,69.5l2.1,0.3c-0.3,1.2-0.9,2.2-1.8,2.8s-2,1-3.4,1c-1.7,0-3.1-0.5-4.1-1.6c-1-1.1-1.5-2.6-1.5-4.5
			c0-2,0.5-3.6,1.5-4.7s2.4-1.7,4-1.7c1.6,0,2.9,0.5,3.9,1.6c1,1.1,1.5,2.6,1.5,4.6c0,0.1,0,0.3,0,0.5h-8.9c0.1,1.3,0.4,2.3,1.1,3
			c0.7,0.7,1.5,1,2.5,1c0.7,0,1.4-0.2,1.9-0.6S61.2,70.3,61.5,69.5z M54.9,66.2h6.7c-0.1-1-0.3-1.8-0.8-2.3
			c-0.6-0.8-1.5-1.2-2.5-1.2c-0.9,0-1.7,0.3-2.3,0.9C55.3,64.3,54.9,65.2,54.9,66.2z"/>
		<path class="st1" d="M73.9,73.3v-1.5c-0.8,1.2-1.9,1.8-3.3,1.8c-1,0-1.8-0.3-2.6-0.8c-0.8-0.5-1.4-1.3-1.9-2.2
			c-0.4-0.9-0.7-2-0.7-3.2c0-1.2,0.2-2.3,0.6-3.2s1-1.7,1.8-2.2c0.8-0.5,1.7-0.8,2.7-0.8c0.7,0,1.4,0.2,1.9,0.5
			c0.6,0.3,1,0.7,1.4,1.2v-5.9h2v16.5H73.9z M67.5,67.4c0,1.5,0.3,2.7,1,3.4c0.6,0.8,1.4,1.1,2.3,1.1c0.9,0,1.6-0.4,2.3-1.1
			c0.6-0.7,0.9-1.8,0.9-3.3c0-1.6-0.3-2.8-0.9-3.6s-1.4-1.1-2.3-1.1c-0.9,0-1.6,0.4-2.3,1.1C67.8,64.6,67.5,65.8,67.5,67.4z"/>
		<path class="st1" d="M86.7,71.9c-0.7,0.6-1.5,1.1-2.2,1.3c-0.7,0.3-1.4,0.4-2.2,0.4c-1.3,0-2.3-0.3-3-1c-0.7-0.6-1.1-1.5-1.1-2.5
			c0-0.6,0.1-1.1,0.4-1.6c0.3-0.5,0.6-0.9,1-1.2c0.4-0.3,0.9-0.5,1.5-0.7c0.4-0.1,1-0.2,1.8-0.3c1.6-0.2,2.8-0.4,3.6-0.7
			c0-0.3,0-0.5,0-0.5c0-0.8-0.2-1.4-0.6-1.7c-0.5-0.5-1.3-0.7-2.3-0.7c-1,0-1.7,0.2-2.1,0.5s-0.8,0.9-1,1.8l-2-0.3
			c0.2-0.8,0.5-1.5,0.9-2c0.4-0.5,1-0.9,1.8-1.2c0.8-0.3,1.7-0.4,2.7-0.4c1,0,1.8,0.1,2.5,0.4s1.1,0.5,1.4,0.9
			c0.3,0.4,0.5,0.8,0.6,1.4c0.1,0.3,0.1,1,0.1,1.9v2.7c0,1.9,0,3.1,0.1,3.6s0.3,1,0.5,1.4h-2.1C86.9,72.9,86.8,72.4,86.7,71.9z
			 M86.5,67.3c-0.7,0.3-1.8,0.6-3.3,0.8c-0.8,0.1-1.4,0.3-1.8,0.4c-0.3,0.2-0.6,0.4-0.8,0.7s-0.3,0.6-0.3,1c0,0.5,0.2,1,0.6,1.3
			c0.4,0.4,1,0.5,1.8,0.5c0.8,0,1.5-0.2,2.1-0.5s1.1-0.8,1.3-1.4c0.2-0.5,0.3-1.1,0.3-2V67.3z"/>
		<path class="st1" d="M91.7,73.3V61.4h1.8v1.7c0.4-0.6,0.9-1.1,1.5-1.4c0.6-0.4,1.3-0.5,2.1-0.5c0.9,0,1.6,0.2,2.2,0.5
			c0.6,0.4,1,0.9,1.2,1.5c0.9-1.4,2.2-2.1,3.7-2.1c1.2,0,2.1,0.3,2.7,1c0.6,0.7,1,1.7,1,3v8.2h-2v-7.5c0-0.8-0.1-1.4-0.2-1.7
			c-0.1-0.4-0.4-0.6-0.7-0.9c-0.3-0.2-0.7-0.3-1.2-0.3c-0.8,0-1.5,0.3-2.1,0.8s-0.8,1.5-0.8,2.7v6.9h-2v-7.7c0-0.9-0.2-1.6-0.5-2
			s-0.9-0.7-1.6-0.7c-0.6,0-1.1,0.1-1.6,0.4c-0.5,0.3-0.8,0.7-1,1.3c-0.2,0.6-0.3,1.4-0.3,2.5v6.2H91.7z"/>
	</g>
</g>
</svg>
