<?xml version="1.0" encoding="utf-8"?>
<!-- Generator: Adobe Illustrator 24.3.0, SVG Export Plug-In . SVG Version: 6.00 Build 0)  -->
<svg version="1.1" id="Laag_1" xmlns="http://www.w3.org/2000/svg" xmlns:xlink="http://www.w3.org/1999/xlink" x="0px" y="0px"
	 width="197.4px" height="13.9px" viewBox="0 0 197.4 13.9" style="enable-background:new 0 0 197.4 13.9;" xml:space="preserve">
<style type="text/css">
	.st0{fill:#1D1D1B;}
</style>
<g>
	<path class="st0" d="M3.9,11.5c-0.5,0-0.9-0.1-1.4-0.2C2,11.2,1.6,11,1.3,10.8c-0.4-0.2-0.7-0.6-0.9-1C0.1,9.4,0,8.9,0,8.3
		c0-0.4,0.1-0.7,0.2-1c0.1-0.3,0.3-0.5,0.5-0.8C0.8,6.4,1,6.2,1.3,6s0.5-0.3,0.8-0.4v0C1.6,5.4,1.2,5.2,1,4.8C0.7,4.4,0.5,4,0.5,3.4
		c0-0.4,0.1-0.8,0.3-1.1C0.9,2,1.2,1.7,1.5,1.5c0.3-0.2,0.7-0.4,1.1-0.5C3,0.8,3.4,0.7,3.9,0.7s0.9,0.1,1.3,0.2
		C5.6,1.1,6,1.2,6.3,1.5C6.6,1.7,6.8,2,7,2.3C7.2,2.6,7.3,3,7.3,3.4c0,0.5-0.1,1-0.4,1.4C6.5,5.2,6.2,5.4,5.7,5.6v0
		C6,5.8,6.2,5.9,6.5,6S7,6.4,7.2,6.6c0.2,0.2,0.3,0.5,0.4,0.8c0.1,0.3,0.2,0.6,0.2,1c0,0.6-0.1,1.1-0.3,1.5c-0.2,0.4-0.5,0.7-0.9,1
		c-0.4,0.3-0.8,0.4-1.2,0.5C4.9,11.4,4.4,11.5,3.9,11.5z M3.9,10.4c0.8,0,1.4-0.2,1.9-0.6S6.5,9,6.5,8.3c0-0.7-0.2-1.2-0.7-1.6
		S4.7,6.1,3.9,6.1C3.1,6.1,2.4,6.3,2,6.7S1.3,7.7,1.3,8.3C1.3,9,1.5,9.5,2,9.9S3.1,10.4,3.9,10.4z M3.9,5.2c0.7,0,1.2-0.1,1.6-0.4
		C5.8,4.4,6,4,6,3.5S5.8,2.5,5.5,2.2C5.1,1.9,4.5,1.8,3.9,1.8c-0.7,0-1.2,0.1-1.6,0.4C1.9,2.5,1.7,2.9,1.7,3.5s0.2,0.9,0.6,1.2
		C2.7,5,3.2,5.2,3.9,5.2z"/>
	<path class="st0" d="M11,3.5h1.1V1.1h1.2v2.4h1.5v1h-1.5v5c0,0.3,0.1,0.5,0.2,0.6c0.1,0.1,0.3,0.2,0.6,0.2c0.1,0,0.2,0,0.4,0
		c0.1,0,0.2,0,0.3-0.1h0v1.1c-0.1,0-0.3,0.1-0.5,0.1c-0.2,0-0.3,0-0.5,0c-0.5,0-0.9-0.1-1.2-0.3c-0.3-0.2-0.5-0.6-0.5-1.2V4.5H11
		V3.5z"/>
	<path class="st0" d="M19.8,0.5H21l-4.3,10.7h-1.3L19.8,0.5z"/>
	<path class="st0" d="M21.4,3.5h1.2v1.1h0c0.2-0.4,0.6-0.7,1-0.9s0.8-0.4,1.3-0.4c0.5,0,0.9,0.1,1.2,0.4c0.3,0.2,0.6,0.6,0.8,1h0
		c0.2-0.5,0.6-0.8,1-1c0.4-0.2,0.9-0.4,1.4-0.4C30,3.3,30.6,3.5,31,4c0.4,0.4,0.7,1,0.7,1.9v5.4h-1.2V5.9c0-0.5-0.1-0.9-0.4-1.1
		c-0.3-0.3-0.6-0.4-1-0.4c-0.3,0-0.5,0.1-0.7,0.2c-0.2,0.1-0.4,0.2-0.6,0.4c-0.2,0.2-0.3,0.4-0.4,0.7c-0.1,0.3-0.2,0.5-0.2,0.8v4.8
		h-1.2V5.9c0-0.5-0.1-0.9-0.4-1.1c-0.2-0.3-0.6-0.4-1-0.4c-0.2,0-0.5,0.1-0.7,0.2c-0.2,0.1-0.4,0.2-0.6,0.4
		c-0.2,0.2-0.3,0.4-0.5,0.7c-0.1,0.3-0.2,0.5-0.2,0.8v4.8h-1.2V3.5z"/>
	<path class="st0" d="M37.6,3.8h-2.2V2.9c0.3,0,0.6,0,0.9-0.1c0.3-0.1,0.5-0.2,0.8-0.3s0.4-0.4,0.6-0.6s0.2-0.6,0.3-1h1v10.3h-1.3
		V3.8z"/>
	<path class="st0" d="M40.9,9.5c0.2-0.5,0.5-0.9,0.9-1.3c0.4-0.4,0.8-0.7,1.2-1c0.4-0.3,0.9-0.5,1.3-0.8c0.3-0.2,0.6-0.4,0.9-0.5
		c0.3-0.2,0.5-0.4,0.7-0.6c0.2-0.2,0.3-0.4,0.4-0.6c0.1-0.2,0.1-0.5,0.1-0.8c0-0.6-0.2-1.1-0.6-1.5C45.6,2,45,1.8,44.3,1.8
		c-0.4,0-0.7,0.1-0.9,0.2c-0.3,0.1-0.5,0.3-0.7,0.5c-0.2,0.2-0.3,0.5-0.4,0.8c-0.1,0.3-0.1,0.7-0.1,1.3h-1.3c0-0.7,0.1-1.2,0.2-1.7
		c0.2-0.4,0.4-0.8,0.7-1.1c0.3-0.3,0.7-0.6,1.2-0.7s1-0.2,1.5-0.2c0.5,0,1,0.1,1.4,0.2c0.4,0.2,0.8,0.4,1.1,0.7
		c0.3,0.3,0.5,0.6,0.7,1c0.2,0.4,0.2,0.8,0.2,1.3c0,0.5-0.1,0.9-0.2,1.3c-0.2,0.3-0.4,0.6-0.6,0.9s-0.6,0.5-1,0.7
		c-0.4,0.2-0.8,0.4-1.2,0.7C44.6,7.6,44.3,7.8,44,8c-0.3,0.2-0.6,0.4-0.8,0.6c-0.3,0.2-0.5,0.4-0.7,0.7c-0.2,0.2-0.3,0.5-0.4,0.8
		h5.6v1.2h-7.1C40.6,10.6,40.7,10,40.9,9.5z"/>
	<path class="st0" d="M54.6,11.5c-0.5,0-1-0.1-1.4-0.3c-0.4-0.2-0.8-0.5-1.1-0.8c-0.3-0.4-0.5-0.8-0.7-1.3c-0.2-0.5-0.2-1.1-0.2-1.7
		c0-0.6,0.1-1.2,0.3-1.7s0.4-0.9,0.7-1.3c0.3-0.3,0.7-0.6,1.1-0.8c0.4-0.2,0.9-0.3,1.3-0.3c0.5,0,1,0.1,1.4,0.4s0.7,0.5,1,0.9h0V0.5
		h1.2v10.7H57v-0.9h0c-0.3,0.4-0.6,0.7-1,0.9C55.6,11.4,55.2,11.5,54.6,11.5z M54.7,10.5c0.4,0,0.8-0.1,1.1-0.2s0.6-0.4,0.8-0.6
		c0.2-0.3,0.3-0.6,0.4-1c0.1-0.4,0.1-0.8,0.1-1.2c0-0.5-0.1-0.9-0.2-1.2s-0.3-0.7-0.5-1C56.3,5,56,4.7,55.7,4.6
		c-0.3-0.2-0.7-0.2-1.1-0.2c-0.4,0-0.7,0.1-1,0.2C53.4,4.8,53.2,5,53,5.3s-0.3,0.6-0.4,1S52.4,7,52.4,7.4c0,0.4,0,0.8,0.1,1.2
		s0.2,0.7,0.4,1c0.2,0.3,0.4,0.5,0.7,0.6C54,10.4,54.3,10.5,54.7,10.5z"/>
	<path class="st0" d="M63.2,11.5c-0.6,0-1.1-0.1-1.6-0.3c-0.5-0.2-0.9-0.5-1.2-0.9c-0.3-0.4-0.6-0.8-0.7-1.3c-0.2-0.5-0.3-1-0.3-1.6
		c0-0.6,0.1-1.1,0.3-1.6s0.4-0.9,0.8-1.3c0.3-0.4,0.7-0.7,1.2-0.9c0.5-0.2,1-0.3,1.5-0.3c0.6,0,1.1,0.1,1.5,0.3
		c0.4,0.2,0.8,0.5,1.1,0.9c0.3,0.4,0.5,0.8,0.7,1.4c0.2,0.5,0.2,1.1,0.2,1.8h-6c0,0.4,0.1,0.8,0.2,1.1c0.1,0.3,0.3,0.6,0.5,0.9
		c0.2,0.3,0.5,0.4,0.8,0.6c0.3,0.1,0.6,0.2,1,0.2c0.6,0,1-0.1,1.4-0.4c0.4-0.3,0.6-0.7,0.8-1.2h1.2c-0.2,0.8-0.6,1.5-1.1,1.9
		C64.8,11.3,64.1,11.5,63.2,11.5z M63.1,4.3c-0.4,0-0.7,0.1-1,0.2c-0.3,0.1-0.5,0.3-0.7,0.5c-0.2,0.2-0.4,0.5-0.5,0.8
		c-0.1,0.3-0.2,0.6-0.2,1h4.7c0-0.8-0.3-1.4-0.6-1.8C64.4,4.5,63.8,4.3,63.1,4.3z"/>
	<path class="st0" d="M71.2,11.5c-0.6,0-1.1-0.1-1.6-0.3s-0.9-0.5-1.2-0.9c-0.3-0.4-0.6-0.8-0.8-1.3c-0.2-0.5-0.3-1-0.3-1.6
		c0-0.6,0.1-1.1,0.3-1.6s0.4-0.9,0.8-1.3c0.3-0.4,0.7-0.7,1.2-0.9c0.5-0.2,1-0.3,1.6-0.3c0.9,0,1.7,0.2,2.2,0.7
		c0.6,0.5,0.9,1.1,1.1,2h-1.2c-0.1-0.5-0.3-0.9-0.7-1.2c-0.4-0.3-0.8-0.5-1.4-0.5c-0.4,0-0.8,0.1-1.1,0.2c-0.3,0.2-0.6,0.4-0.8,0.7
		s-0.4,0.6-0.5,1c-0.1,0.4-0.2,0.8-0.2,1.2c0,0.4,0.1,0.8,0.2,1.2s0.3,0.7,0.5,1c0.2,0.3,0.5,0.5,0.8,0.7c0.3,0.2,0.7,0.2,1.1,0.2
		c0.6,0,1.1-0.2,1.5-0.5c0.4-0.3,0.6-0.8,0.6-1.4h1.2c-0.1,0.9-0.4,1.7-1,2.2C73,11.2,72.2,11.5,71.2,11.5z"/>
	<path class="st0" d="M79,11.5c-0.6,0-1.1-0.1-1.6-0.3c-0.5-0.2-0.9-0.5-1.2-0.9c-0.3-0.4-0.6-0.8-0.7-1.3c-0.2-0.5-0.3-1-0.3-1.6
		c0-0.6,0.1-1.1,0.3-1.6s0.4-0.9,0.8-1.3c0.3-0.4,0.7-0.7,1.2-0.9c0.5-0.2,1-0.3,1.5-0.3c0.6,0,1.1,0.1,1.5,0.3
		c0.4,0.2,0.8,0.5,1.1,0.9c0.3,0.4,0.5,0.8,0.7,1.4c0.2,0.5,0.2,1.1,0.2,1.8h-6c0,0.4,0.1,0.8,0.2,1.1c0.1,0.3,0.3,0.6,0.5,0.9
		c0.2,0.3,0.5,0.4,0.8,0.6c0.3,0.1,0.6,0.2,1,0.2c0.6,0,1-0.1,1.4-0.4c0.4-0.3,0.6-0.7,0.8-1.2h1.2c-0.2,0.8-0.6,1.5-1.1,1.9
		S79.9,11.5,79,11.5z M78.9,4.3c-0.4,0-0.7,0.1-1,0.2c-0.3,0.1-0.5,0.3-0.7,0.5c-0.2,0.2-0.4,0.5-0.5,0.8c-0.1,0.3-0.2,0.6-0.2,1
		h4.7c0-0.8-0.3-1.4-0.6-1.8C80.2,4.5,79.6,4.3,78.9,4.3z"/>
	<path class="st0" d="M83.7,3.5h1.2v1.1h0c0.2-0.4,0.6-0.7,1-0.9c0.4-0.2,0.8-0.4,1.3-0.4c0.5,0,0.9,0.1,1.2,0.4
		c0.3,0.2,0.6,0.6,0.8,1h0c0.2-0.5,0.6-0.8,1-1c0.4-0.2,0.9-0.4,1.4-0.4c0.7,0,1.3,0.2,1.7,0.6C93.8,4.4,94,5,94,5.8v5.4h-1.2V5.9
		c0-0.5-0.1-0.9-0.4-1.1c-0.3-0.3-0.6-0.4-1-0.4c-0.2,0-0.5,0.1-0.7,0.2C90.4,4.6,90.2,4.8,90,5c-0.2,0.2-0.3,0.4-0.4,0.7
		c-0.1,0.3-0.2,0.5-0.2,0.8v4.8h-1.2V5.9c0-0.5-0.1-0.9-0.4-1.1c-0.2-0.3-0.6-0.4-1-0.4c-0.2,0-0.5,0.1-0.7,0.2
		c-0.2,0.1-0.4,0.2-0.6,0.4c-0.2,0.2-0.3,0.4-0.5,0.7c-0.1,0.3-0.2,0.5-0.2,0.8v4.8h-1.2V3.5z"/>
	<path class="st0" d="M99.3,11.5c-0.5,0-1-0.1-1.4-0.3s-0.7-0.5-1.1-1h0v1h-1.2V0.5h1.2v4.1h0c0.3-0.4,0.6-0.7,1-0.9
		c0.4-0.2,0.9-0.3,1.5-0.3c0.5,0,0.9,0.1,1.3,0.3c0.4,0.2,0.8,0.5,1,0.8s0.5,0.8,0.7,1.3c0.2,0.5,0.2,1.1,0.2,1.7
		c0,0.6-0.1,1.2-0.2,1.7c-0.2,0.5-0.4,0.9-0.7,1.3c-0.3,0.4-0.6,0.6-1.1,0.8C100.3,11.4,99.8,11.5,99.3,11.5z M99.2,10.5
		c0.4,0,0.7-0.1,1-0.2c0.3-0.2,0.5-0.4,0.7-0.6c0.2-0.3,0.3-0.6,0.4-1s0.1-0.8,0.1-1.2c0-0.4,0-0.8-0.1-1.2s-0.2-0.7-0.4-1
		c-0.2-0.3-0.4-0.5-0.7-0.6c-0.3-0.2-0.6-0.2-1-0.2c-0.4,0-0.8,0.1-1.1,0.2c-0.3,0.2-0.6,0.4-0.8,0.7s-0.3,0.6-0.4,1
		c-0.1,0.4-0.2,0.8-0.2,1.2c0,0.4,0,0.8,0.2,1.2c0.1,0.4,0.3,0.7,0.5,1c0.2,0.3,0.5,0.5,0.8,0.6S98.8,10.5,99.2,10.5z"/>
	<path class="st0" d="M107.2,11.5c-0.6,0-1.1-0.1-1.6-0.3c-0.5-0.2-0.9-0.5-1.2-0.9c-0.3-0.4-0.6-0.8-0.7-1.3
		c-0.2-0.5-0.3-1-0.3-1.6c0-0.6,0.1-1.1,0.3-1.6s0.4-0.9,0.8-1.3s0.7-0.7,1.2-0.9c0.5-0.2,1-0.3,1.5-0.3c0.6,0,1.1,0.1,1.5,0.3
		c0.4,0.2,0.8,0.5,1.1,0.9s0.5,0.8,0.7,1.4s0.2,1.1,0.2,1.8h-6c0,0.4,0.1,0.8,0.2,1.1s0.3,0.6,0.5,0.9c0.2,0.3,0.5,0.4,0.8,0.6
		c0.3,0.1,0.6,0.2,1,0.2c0.6,0,1-0.1,1.4-0.4c0.4-0.3,0.6-0.7,0.8-1.2h1.2c-0.2,0.8-0.6,1.5-1.1,1.9C108.8,11.3,108,11.5,107.2,11.5
		z M107.1,4.3c-0.4,0-0.7,0.1-1,0.2s-0.5,0.3-0.7,0.5c-0.2,0.2-0.4,0.5-0.5,0.8s-0.2,0.6-0.2,1h4.7c0-0.8-0.3-1.4-0.6-1.8
		C108.3,4.5,107.8,4.3,107.1,4.3z"/>
	<path class="st0" d="M113.1,4.8L113.1,4.8c0.3-0.4,0.6-0.7,1-1c0.4-0.3,0.9-0.4,1.4-0.4c0.1,0,0.2,0,0.3,0c0.1,0,0.1,0,0.2,0.1v1.2
		h0c-0.1,0-0.2,0-0.2-0.1c-0.1,0-0.2,0-0.3,0c-0.3,0-0.6,0.1-0.9,0.2c-0.3,0.1-0.5,0.3-0.7,0.5c-0.2,0.2-0.4,0.4-0.5,0.7
		c-0.1,0.3-0.2,0.6-0.2,1v4.3h-1.2V3.5h1.2V4.8z"/>
	<path class="st0" d="M119.4,9.5c0.2-0.5,0.5-0.9,0.9-1.3c0.4-0.4,0.8-0.7,1.2-1c0.4-0.3,0.9-0.5,1.3-0.8c0.3-0.2,0.6-0.4,0.9-0.5
		c0.3-0.2,0.5-0.4,0.7-0.6c0.2-0.2,0.3-0.4,0.4-0.6c0.1-0.2,0.2-0.5,0.2-0.8c0-0.6-0.2-1.1-0.6-1.5c-0.4-0.4-0.9-0.6-1.6-0.6
		c-0.4,0-0.7,0.1-0.9,0.2c-0.3,0.1-0.5,0.3-0.7,0.5c-0.2,0.2-0.3,0.5-0.4,0.8c-0.1,0.3-0.1,0.7-0.1,1.3h-1.3c0-0.7,0.1-1.2,0.2-1.7
		c0.2-0.4,0.4-0.8,0.7-1.1c0.3-0.3,0.7-0.6,1.2-0.7s1-0.2,1.5-0.2c0.5,0,1,0.1,1.4,0.2s0.8,0.4,1.1,0.7c0.3,0.3,0.5,0.6,0.7,1
		s0.2,0.8,0.2,1.3c0,0.5-0.1,0.9-0.2,1.3c-0.2,0.3-0.4,0.6-0.6,0.9c-0.3,0.3-0.6,0.5-1,0.7c-0.4,0.2-0.8,0.4-1.2,0.7
		c-0.3,0.2-0.6,0.3-0.9,0.5c-0.3,0.2-0.6,0.4-0.8,0.6s-0.5,0.4-0.7,0.7s-0.3,0.5-0.4,0.8h5.6v1.2H119C119,10.6,119.2,10,119.4,9.5z"
		/>
	<path class="st0" d="M131.5,11.5c-0.6,0-1.2-0.1-1.7-0.4s-0.9-0.6-1.3-1.1s-0.6-1-0.8-1.7c-0.2-0.7-0.3-1.4-0.3-2.2
		c0-0.8,0.1-1.6,0.3-2.2c0.2-0.7,0.5-1.2,0.8-1.7c0.4-0.5,0.8-0.8,1.3-1.1c0.5-0.2,1-0.4,1.6-0.4s1.2,0.1,1.7,0.4
		c0.5,0.2,0.9,0.6,1.3,1.1c0.3,0.5,0.6,1,0.8,1.7c0.2,0.7,0.3,1.4,0.3,2.3c0,0.8-0.1,1.6-0.3,2.2s-0.4,1.2-0.8,1.7s-0.8,0.8-1.3,1.1
		S132.2,11.5,131.5,11.5z M131.5,10.4c0.9,0,1.6-0.4,2-1.1c0.4-0.8,0.7-1.8,0.7-3.1c0-0.7-0.1-1.2-0.2-1.8c-0.1-0.5-0.3-1-0.5-1.4
		c-0.2-0.4-0.5-0.7-0.8-0.9s-0.7-0.3-1.2-0.3c-0.9,0-1.6,0.4-2,1.1c-0.4,0.8-0.7,1.8-0.7,3.1c0,0.6,0.1,1.2,0.2,1.8
		c0.1,0.5,0.3,1,0.5,1.3c0.2,0.4,0.5,0.7,0.8,0.9S131.1,10.4,131.5,10.4z"/>
	<path class="st0" d="M137,9.5c0.2-0.5,0.5-0.9,0.9-1.3c0.4-0.4,0.8-0.7,1.2-1s0.9-0.5,1.3-0.8c0.3-0.2,0.6-0.4,0.9-0.5
		c0.3-0.2,0.5-0.4,0.7-0.6c0.2-0.2,0.3-0.4,0.4-0.6c0.1-0.2,0.1-0.5,0.1-0.8c0-0.6-0.2-1.1-0.6-1.5c-0.4-0.4-0.9-0.6-1.6-0.6
		c-0.4,0-0.7,0.1-0.9,0.2c-0.3,0.1-0.5,0.3-0.7,0.5c-0.2,0.2-0.3,0.5-0.4,0.8c-0.1,0.3-0.1,0.7-0.1,1.3h-1.3c0-0.7,0.1-1.2,0.2-1.7
		c0.2-0.4,0.4-0.8,0.7-1.1c0.3-0.3,0.7-0.6,1.2-0.7s1-0.2,1.5-0.2c0.5,0,1,0.1,1.4,0.2c0.4,0.2,0.8,0.4,1.1,0.7
		c0.3,0.3,0.5,0.6,0.7,1c0.2,0.4,0.2,0.8,0.2,1.3c0,0.5-0.1,0.9-0.2,1.3c-0.2,0.3-0.4,0.6-0.6,0.9c-0.3,0.3-0.6,0.5-1,0.7
		c-0.4,0.2-0.8,0.4-1.2,0.7c-0.3,0.2-0.6,0.3-0.9,0.5c-0.3,0.2-0.6,0.4-0.8,0.6c-0.3,0.2-0.5,0.4-0.7,0.7c-0.2,0.2-0.3,0.5-0.4,0.8
		h5.6v1.2h-7.1C136.6,10.6,136.7,10,137,9.5z"/>
	<path class="st0" d="M147.2,3.8H145V2.9c0.3,0,0.6,0,0.9-0.1c0.3-0.1,0.5-0.2,0.8-0.3c0.2-0.2,0.4-0.4,0.6-0.6
		c0.1-0.3,0.2-0.6,0.3-1h1v10.3h-1.3V3.8z"/>
	<path class="st0" d="M150.3,12.5c0.2-0.1,0.3-0.2,0.5-0.4s0.2-0.5,0.2-0.9h-0.7V9.8h1.5v1.5c0,0.5-0.1,1-0.4,1.3
		c-0.3,0.3-0.6,0.5-1,0.6V12.5z"/>
	<path class="st0" d="M158.7,13.9c-1,0-1.8-0.2-2.3-0.6s-0.9-0.9-0.9-1.6h1.1c0.1,0.4,0.3,0.7,0.7,0.9c0.4,0.2,0.9,0.3,1.5,0.3
		c0.7,0,1.3-0.2,1.7-0.5c0.4-0.3,0.6-0.8,0.6-1.5V9.8h0c-0.3,0.4-0.6,0.7-0.9,0.9c-0.3,0.2-0.8,0.3-1.4,0.3c-0.5,0-1-0.1-1.4-0.3
		c-0.4-0.2-0.8-0.5-1.1-0.8s-0.5-0.7-0.7-1.2c-0.2-0.5-0.2-1-0.2-1.5c0-0.6,0.1-1.1,0.3-1.6c0.2-0.5,0.4-0.9,0.7-1.2
		s0.7-0.6,1.1-0.8s0.8-0.3,1.3-0.3c0.6,0,1,0.1,1.4,0.3c0.4,0.2,0.7,0.5,1,0.9h0v-1h1.2v7.3c0,0.5-0.1,1-0.2,1.3
		c-0.2,0.4-0.4,0.7-0.7,0.9s-0.7,0.4-1.1,0.6C159.7,13.8,159.2,13.9,158.7,13.9z M158.6,10c0.5,0,0.8-0.1,1.1-0.2
		c0.3-0.1,0.5-0.3,0.7-0.6c0.2-0.3,0.3-0.6,0.4-0.9c0.1-0.3,0.1-0.7,0.1-1.1c0-0.8-0.2-1.5-0.6-2s-1-0.7-1.8-0.7
		c-0.7,0-1.3,0.3-1.6,0.8c-0.4,0.5-0.5,1.2-0.5,2c0,0.8,0.2,1.5,0.6,2C157.4,9.7,157.9,10,158.6,10z"/>
	<path class="st0" d="M165,4.8L165,4.8c0.3-0.4,0.6-0.7,1-1c0.4-0.3,0.9-0.4,1.4-0.4c0.1,0,0.2,0,0.3,0c0.1,0,0.1,0,0.2,0.1v1.2h0
		c-0.1,0-0.2,0-0.2-0.1c-0.1,0-0.2,0-0.3,0c-0.3,0-0.6,0.1-0.9,0.2c-0.3,0.1-0.5,0.3-0.7,0.5c-0.2,0.2-0.4,0.4-0.5,0.7
		C165,6.3,165,6.6,165,7v4.3h-1.2V3.5h1.2V4.8z"/>
	<path class="st0" d="M174.7,11.3c-0.8,0-1.2-0.4-1.3-1.2h0c-0.1,0.2-0.3,0.3-0.4,0.4c-0.2,0.1-0.3,0.3-0.6,0.4s-0.4,0.2-0.7,0.3
		c-0.3,0.1-0.6,0.1-0.9,0.1c-0.4,0-0.7,0-1-0.1c-0.3-0.1-0.6-0.2-0.8-0.4s-0.4-0.4-0.6-0.7c-0.1-0.3-0.2-0.6-0.2-1
		c0-0.5,0.1-0.8,0.3-1.1c0.2-0.3,0.4-0.5,0.7-0.7c0.3-0.2,0.7-0.3,1.1-0.4c0.4-0.1,0.9-0.2,1.3-0.3c0.3,0,0.5-0.1,0.8-0.1
		c0.2,0,0.4-0.1,0.6-0.2s0.3-0.2,0.4-0.3s0.1-0.3,0.1-0.5c0-0.4-0.2-0.8-0.5-1c-0.3-0.2-0.7-0.4-1.3-0.4c-0.6,0-1.1,0.1-1.4,0.4
		c-0.3,0.3-0.5,0.7-0.5,1.3h-1.2c0-0.4,0.1-0.7,0.2-1s0.3-0.6,0.6-0.8c0.3-0.2,0.6-0.4,1-0.5c0.4-0.1,0.8-0.2,1.3-0.2
		c0.4,0,0.8,0,1.1,0.1c0.4,0.1,0.7,0.2,0.9,0.4c0.3,0.2,0.5,0.4,0.6,0.8c0.1,0.3,0.2,0.7,0.2,1.2v3.7c0,0.3,0.1,0.6,0.2,0.7
		c0.1,0.2,0.3,0.2,0.7,0.1h0v0.9c-0.1,0-0.2,0.1-0.3,0.1C175,11.3,174.9,11.3,174.7,11.3z M171.1,10.5c0.4,0,0.8-0.1,1-0.2
		s0.5-0.3,0.7-0.5c0.2-0.2,0.3-0.4,0.4-0.7c0.1-0.2,0.1-0.5,0.1-0.7V7.1c-0.2,0.1-0.5,0.2-0.8,0.3c-0.3,0.1-0.7,0.2-1,0.2
		c-0.3,0.1-0.6,0.1-0.9,0.2c-0.3,0.1-0.5,0.1-0.7,0.3c-0.2,0.1-0.3,0.3-0.5,0.4c-0.1,0.2-0.2,0.4-0.2,0.7c0,0.3,0,0.5,0.1,0.6
		s0.2,0.3,0.4,0.4c0.1,0.1,0.3,0.2,0.5,0.2C170.7,10.5,170.9,10.5,171.1,10.5z"/>
	<path class="st0" d="M175.6,3.5h1.1V1.1h1.2v2.4h1.5v1H178v5c0,0.3,0.1,0.5,0.2,0.6c0.1,0.1,0.3,0.2,0.6,0.2c0.1,0,0.2,0,0.4,0
		c0.1,0,0.2,0,0.3-0.1h0v1.1c-0.1,0-0.3,0.1-0.5,0.1c-0.2,0-0.3,0-0.5,0c-0.5,0-0.9-0.1-1.2-0.3c-0.3-0.2-0.5-0.6-0.5-1.2V4.5h-1.1
		V3.5z"/>
	<path class="st0" d="M180.7,0.5h1.2V2h-1.2V0.5z M180.7,3.5h1.2v7.8h-1.2V3.5z"/>
	<path class="st0" d="M186.6,11.5c-1.1,0-1.9-0.2-2.5-0.7c-0.6-0.5-0.9-1.2-1-2h1.2c0,0.3,0.1,0.6,0.3,0.8c0.1,0.2,0.3,0.4,0.5,0.5
		s0.4,0.2,0.7,0.3c0.2,0.1,0.5,0.1,0.8,0.1c0.6,0,1.1-0.1,1.4-0.4s0.4-0.5,0.4-0.9c0-0.2,0-0.4-0.1-0.5c-0.1-0.1-0.2-0.3-0.4-0.4
		c-0.2-0.1-0.4-0.2-0.6-0.3c-0.3-0.1-0.6-0.1-0.9-0.2c-0.4-0.1-0.7-0.2-1.1-0.3s-0.7-0.2-0.9-0.4c-0.3-0.2-0.5-0.4-0.6-0.7
		c-0.2-0.3-0.2-0.6-0.2-1c0-0.6,0.2-1.2,0.7-1.6c0.5-0.4,1.2-0.6,2.1-0.6c1,0,1.7,0.2,2.2,0.6c0.5,0.4,0.8,1,0.9,1.8h-1.2
		c-0.1-0.5-0.2-0.9-0.5-1.1c-0.3-0.2-0.7-0.4-1.3-0.4c-0.6,0-1,0.1-1.2,0.3c-0.2,0.2-0.4,0.5-0.4,0.8c0,0.2,0,0.4,0.1,0.5
		c0.1,0.1,0.2,0.2,0.4,0.3c0.2,0.1,0.4,0.2,0.7,0.2c0.3,0.1,0.6,0.1,0.9,0.2c0.4,0.1,0.8,0.2,1.1,0.3c0.3,0.1,0.6,0.2,0.9,0.4
		c0.3,0.2,0.5,0.4,0.6,0.7c0.2,0.3,0.2,0.6,0.2,1.1c0,0.4-0.1,0.7-0.2,1c-0.1,0.3-0.4,0.5-0.6,0.7c-0.3,0.2-0.6,0.3-1,0.4
		S187,11.5,186.6,11.5z"/>
</g>
</svg>
