<?xml version="1.0" encoding="utf-8"?>
<!-- Generator: Adobe Illustrator 24.3.0, SVG Export Plug-In . SVG Version: 6.00 Build 0)  -->
<svg version="1.1" id="Laag_1" xmlns="http://www.w3.org/2000/svg" xmlns:xlink="http://www.w3.org/1999/xlink" x="0px" y="0px"
	 width="242.5px" height="24.3px" viewBox="0 0 242.5 24.3" style="enable-background:new 0 0 242.5 24.3;" xml:space="preserve">
<style type="text/css">
	.st0{fill:#1D1D1B;}
</style>
<g>
	<g>
		<path class="st0" d="M8,20.3c-1.2,0-2.3-0.1-3.2-0.4c-1-0.3-1.8-0.6-2.5-1.1S1,17.6,0.6,16.9C0.2,16.1,0,15.2,0,14.2h4.5
			c0.1,0.9,0.4,1.5,1,2c0.6,0.4,1.4,0.6,2.5,0.6c0.4,0,0.7,0,1.1-0.1c0.3-0.1,0.6-0.2,0.9-0.3s0.5-0.3,0.7-0.6
			c0.2-0.2,0.2-0.5,0.2-0.9c0-0.3-0.1-0.6-0.3-0.9s-0.4-0.4-0.8-0.6S9.1,13.1,8.6,13c-0.5-0.1-1-0.3-1.7-0.4
			c-0.8-0.2-1.6-0.4-2.3-0.6c-0.8-0.2-1.4-0.5-2-0.9C2,10.6,1.5,10.1,1.1,9.5C0.7,8.9,0.5,8.1,0.5,7.2c0-1,0.2-1.8,0.6-2.5
			C1.5,4,2,3.5,2.6,3C3.2,2.5,4,2.2,4.9,2c0.9-0.2,1.8-0.3,2.8-0.3c1,0,1.9,0.1,2.7,0.3c0.8,0.2,1.6,0.6,2.2,1
			c0.6,0.4,1.1,1,1.5,1.7c0.4,0.7,0.6,1.5,0.6,2.4h-4.3C10.3,6.5,10,5.9,9.5,5.6S8.3,5,7.5,5C6.7,5,6.1,5.2,5.6,5.5
			C5.2,5.8,4.9,6.2,4.9,6.7C4.9,7,5,7.3,5.2,7.5C5.4,7.7,5.6,7.9,6,8c0.3,0.1,0.8,0.3,1.3,0.4S8.3,8.7,9,8.8
			c0.8,0.2,1.6,0.4,2.4,0.7s1.4,0.6,2,1c0.6,0.4,1,0.9,1.4,1.6c0.4,0.6,0.5,1.4,0.5,2.4c0,0.9-0.2,1.8-0.6,2.5
			c-0.4,0.7-0.9,1.3-1.5,1.8c-0.7,0.5-1.4,0.9-2.3,1.1C10,20.2,9,20.3,8,20.3z"/>
		<path class="st0" d="M23.2,20.3c-1,0-2-0.2-2.8-0.5c-0.8-0.3-1.5-0.8-2.1-1.4c-0.6-0.6-1.1-1.3-1.4-2.2c-0.3-0.8-0.5-1.7-0.5-2.7
			s0.2-1.9,0.5-2.7c0.3-0.8,0.8-1.5,1.4-2.2c0.6-0.6,1.3-1.1,2.1-1.4c0.8-0.3,1.7-0.5,2.8-0.5c0.9,0,1.7,0.1,2.4,0.4
			c0.7,0.2,1.3,0.6,1.8,1c0.5,0.4,0.9,1,1.2,1.6c0.3,0.6,0.5,1.3,0.6,2h-3.9c-0.1-0.6-0.4-1-0.7-1.4c-0.3-0.3-0.8-0.5-1.4-0.5
			c-0.9,0-1.5,0.3-2,1s-0.6,1.6-0.6,2.8c0,1.2,0.2,2.1,0.6,2.7c0.4,0.7,1.1,1,2,1c1.3,0,2-0.7,2.2-2.2h3.9c0,0.7-0.2,1.4-0.5,2.1
			c-0.3,0.6-0.7,1.2-1.2,1.7c-0.5,0.5-1.2,0.8-1.9,1.1C24.9,20.1,24.1,20.3,23.2,20.3z"/>
		<path class="st0" d="M30.6,2h4.1v6.7h0.1c0.5-0.6,1-1.1,1.6-1.4c0.6-0.3,1.3-0.5,2.2-0.5c0.7,0,1.3,0.1,1.9,0.4
			c0.6,0.2,1,0.6,1.4,1c0.4,0.4,0.7,0.9,0.9,1.5c0.2,0.6,0.3,1.2,0.3,2v8.3h-4.1v-7.5c0-0.7-0.2-1.2-0.5-1.7
			c-0.3-0.4-0.8-0.6-1.5-0.6c-0.7,0-1.2,0.2-1.6,0.8c-0.4,0.5-0.6,1.2-0.6,2v7.1h-4.1V2z"/>
		<path class="st0" d="M44.8,2h4.1v3.3h-4.1V2z M44.8,7.1h4.1v12.8h-4.1V7.1z"/>
		<path class="st0" d="M57.1,20.2c-1.1,0-2-0.2-2.9-0.5c-0.9-0.3-1.6-0.8-2.1-1.4c-0.6-0.6-1-1.3-1.4-2.2c-0.3-0.8-0.5-1.7-0.5-2.7
			c0-1,0.2-1.8,0.5-2.7c0.3-0.8,0.8-1.5,1.4-2.1c0.6-0.6,1.3-1.1,2.1-1.4c0.8-0.3,1.7-0.5,2.7-0.5c0.9,0,1.7,0.1,2.5,0.4
			s1.4,0.7,1.9,1.2C62,9,62.6,9.9,62.9,11c0.4,1.1,0.6,2.3,0.5,3.6h-9.2c0.1,0.9,0.4,1.5,0.9,2s1.1,0.8,2,0.8c0.5,0,1-0.1,1.3-0.3
			c0.4-0.2,0.6-0.5,0.8-0.9h4c-0.1,0.6-0.4,1.1-0.8,1.7c-0.4,0.5-0.8,1-1.4,1.4c-0.5,0.4-1.1,0.7-1.8,0.9
			C58.7,20.2,57.9,20.2,57.1,20.2z M59.3,12.1c-0.1-0.8-0.3-1.4-0.8-1.8c-0.4-0.5-1-0.7-1.7-0.7c-0.8,0-1.4,0.2-1.8,0.7
			c-0.4,0.4-0.7,1.1-0.8,1.8H59.3z"/>
		<path class="st0" d="M69.9,20.3c-0.8,0-1.6-0.2-2.2-0.5c-0.7-0.3-1.3-0.8-1.8-1.3c-0.5-0.6-0.9-1.3-1.2-2.1s-0.4-1.8-0.4-2.9
			c0-1,0.1-1.9,0.4-2.8c0.3-0.8,0.7-1.5,1.1-2.1s1.1-1.1,1.8-1.4c0.7-0.3,1.4-0.5,2.3-0.5c0.9,0,1.6,0.2,2.2,0.5
			c0.6,0.3,1,0.8,1.4,1.3h0.1V2h4.1v17.9h-3.9v-1.7h-0.1c-0.4,0.7-0.9,1.2-1.5,1.6S70.7,20.3,69.9,20.3z M70.9,17c0.9,0,1.5-0.3,2-1
			c0.5-0.7,0.7-1.5,0.7-2.6c0-0.5-0.1-1-0.2-1.5c-0.1-0.5-0.3-0.8-0.5-1.2s-0.5-0.6-0.8-0.8c-0.3-0.2-0.7-0.3-1.2-0.3
			c-0.8,0-1.5,0.3-1.9,1c-0.5,0.7-0.7,1.6-0.7,2.6c0,1.1,0.2,2,0.7,2.7C69.5,16.7,70.1,17,70.9,17z"/>
		<path class="st0" d="M83.3,20.2c-0.6,0-1.2-0.1-1.8-0.2c-0.5-0.2-1-0.4-1.4-0.8c-0.4-0.3-0.7-0.7-0.9-1.2c-0.2-0.5-0.3-1-0.3-1.7
			c0-0.7,0.1-1.3,0.4-1.8c0.3-0.5,0.6-0.9,1.1-1.2c0.4-0.3,1-0.5,1.6-0.7c0.6-0.2,1.2-0.3,1.9-0.4c1.2-0.2,2-0.3,2.5-0.5
			s0.7-0.5,0.7-0.9c0-0.4-0.1-0.8-0.4-1c-0.3-0.2-0.7-0.4-1.3-0.4c-0.6,0-1.1,0.1-1.5,0.4s-0.5,0.7-0.6,1.2h-3.8
			c0-0.6,0.1-1.2,0.4-1.7c0.2-0.5,0.6-1,1.1-1.4c0.5-0.4,1.1-0.7,1.8-1c0.7-0.2,1.6-0.4,2.5-0.4c1,0,1.8,0.1,2.5,0.3
			c0.7,0.2,1.2,0.4,1.7,0.8c0.6,0.4,1,0.9,1.2,1.5c0.3,0.6,0.4,1.3,0.4,2.1v6.5c0,0.5,0,0.9,0.1,1.2c0.1,0.3,0.2,0.5,0.4,0.6v0.2h-4
			c-0.1-0.1-0.2-0.3-0.2-0.6c-0.1-0.2-0.1-0.5-0.2-0.9h-0.1c-0.4,0.5-0.9,1-1.5,1.3C85.1,20,84.3,20.2,83.3,20.2z M84.6,17.6
			c0.8,0,1.4-0.2,1.9-0.6c0.5-0.4,0.7-1,0.7-1.7v-1.5c-0.3,0.1-0.6,0.3-0.9,0.4s-0.7,0.2-1.2,0.3c-0.8,0.2-1.4,0.4-1.7,0.6
			c-0.4,0.2-0.5,0.6-0.5,1.1c0,0.5,0.2,0.9,0.5,1.1S84.1,17.6,84.6,17.6z"/>
		<path class="st0" d="M93.1,7.1H97v1.8H97c0.4-0.7,0.9-1.2,1.5-1.6c0.6-0.4,1.4-0.6,2.3-0.6c0.8,0,1.6,0.2,2.2,0.6
			c0.6,0.4,1.1,1,1.4,1.7h0.1c0.5-0.8,1.1-1.4,1.8-1.7c0.7-0.4,1.4-0.5,2.3-0.5c0.7,0,1.4,0.1,1.9,0.3c0.6,0.2,1,0.6,1.4,1
			c0.4,0.4,0.6,0.9,0.8,1.5c0.2,0.6,0.3,1.3,0.3,2v8.3h-4.1v-7.6c0-0.7-0.1-1.2-0.4-1.6s-0.7-0.6-1.4-0.6c-0.6,0-1.1,0.2-1.5,0.7
			s-0.5,1.1-0.5,1.9v7.2H101v-7.6c0-0.7-0.1-1.2-0.4-1.6c-0.3-0.4-0.7-0.6-1.4-0.6c-0.6,0-1.1,0.2-1.5,0.7s-0.5,1.1-0.5,1.9v7.2
			h-4.1V7.1z"/>
		<path class="st0" d="M127,20.3c-1.4,0-2.6-0.2-3.7-0.7c-1.1-0.5-2-1.1-2.8-1.9c-0.8-0.8-1.3-1.8-1.8-3c-0.4-1.1-0.6-2.4-0.6-3.7
			c0-1.3,0.2-2.6,0.6-3.7c0.4-1.1,1-2.1,1.8-3c0.8-0.8,1.7-1.5,2.8-2c1.1-0.5,2.3-0.7,3.7-0.7c1.3,0,2.6,0.2,3.7,0.7
			c1.1,0.5,2,1.1,2.8,2c0.8,0.8,1.4,1.8,1.8,3s0.6,2.4,0.6,3.7c0,1.3-0.2,2.6-0.6,3.7s-1,2.1-1.8,3c-0.8,0.8-1.7,1.5-2.8,1.9
			C129.6,20.1,128.4,20.3,127,20.3z M127,16.7c0.7,0,1.3-0.1,1.9-0.4s1-0.7,1.4-1.2c0.4-0.5,0.6-1.1,0.8-1.8
			c0.2-0.7,0.3-1.5,0.3-2.3c0-0.8-0.1-1.6-0.3-2.3c-0.2-0.7-0.4-1.3-0.8-1.8c-0.4-0.5-0.8-0.9-1.4-1.2c-0.5-0.3-1.2-0.4-1.9-0.4
			c-0.7,0-1.3,0.1-1.9,0.4c-0.5,0.3-1,0.7-1.4,1.2c-0.4,0.5-0.6,1.1-0.8,1.8c-0.2,0.7-0.3,1.5-0.3,2.3c0,0.8,0.1,1.6,0.3,2.3
			c0.2,0.7,0.5,1.3,0.8,1.8c0.4,0.5,0.8,0.9,1.4,1.2S126.3,16.7,127,16.7z"/>
		<path class="st0" d="M137.3,7.1h3.9v1.5h0.1c0.4-0.6,1-1,1.6-1.4c0.6-0.3,1.4-0.5,2.3-0.5c0.8,0,1.6,0.2,2.3,0.5
			c0.7,0.3,1.2,0.8,1.7,1.4c0.5,0.6,0.8,1.3,1.1,2.1c0.2,0.8,0.4,1.7,0.4,2.7c0,1-0.1,2-0.4,2.8c-0.3,0.8-0.6,1.6-1.1,2.2
			c-0.5,0.6-1.1,1-1.8,1.4s-1.4,0.5-2.3,0.5c-0.8,0-1.5-0.2-2.1-0.5c-0.6-0.3-1.1-0.7-1.5-1.3h-0.1v5.5h-4.1V7.1z M144,17.1
			c0.8,0,1.4-0.3,1.8-0.9s0.7-1.5,0.7-2.6s-0.2-2-0.6-2.7c-0.4-0.7-1.1-1-1.9-1c-0.5,0-0.8,0.1-1.2,0.3s-0.6,0.4-0.8,0.8
			s-0.4,0.7-0.5,1.2s-0.2,0.9-0.2,1.5c0,1,0.2,1.9,0.7,2.5C142.5,16.8,143.2,17.1,144,17.1z"/>
		<path class="st0" d="M158,24.3c-1.8,0-3.2-0.3-4.3-1c-1.1-0.7-1.8-1.7-2-3.1h4c0.1,0.3,0.3,0.6,0.7,0.9c0.3,0.2,0.9,0.4,1.5,0.4
			c0.9,0,1.5-0.2,1.9-0.6c0.4-0.4,0.6-1,0.6-1.8v-1.3h-0.1c-0.4,0.4-0.8,0.8-1.3,1.1c-0.5,0.3-1.2,0.4-1.9,0.4
			c-0.7,0-1.4-0.1-2.1-0.4c-0.7-0.3-1.3-0.7-1.8-1.2c-0.5-0.5-0.9-1.1-1.2-1.9c-0.3-0.8-0.5-1.6-0.5-2.6c0-0.9,0.1-1.8,0.4-2.6
			s0.6-1.5,1.1-2c0.5-0.6,1-1,1.7-1.3c0.7-0.3,1.4-0.5,2.2-0.5c0.9,0,1.6,0.2,2.2,0.5c0.6,0.3,1.1,0.7,1.5,1.3h0V7.1h3.9v11.5
			c0,1-0.2,1.8-0.5,2.5s-0.7,1.3-1.2,1.8c-0.6,0.5-1.3,0.9-2.1,1.1C159.8,24.2,158.9,24.3,158,24.3z M158,16.2c0.9,0,1.5-0.3,2-0.9
			c0.4-0.6,0.6-1.4,0.6-2.3c0-0.4-0.1-0.8-0.2-1.2c-0.1-0.4-0.3-0.7-0.5-1c-0.2-0.3-0.5-0.5-0.8-0.7c-0.3-0.2-0.7-0.2-1.1-0.2
			c-0.8,0-1.4,0.3-1.8,0.9c-0.5,0.6-0.7,1.4-0.7,2.3c0,1,0.2,1.7,0.7,2.3C156.6,15.9,157.2,16.2,158,16.2z"/>
		<path class="st0" d="M172.6,20.2c-1,0-2-0.2-2.8-0.5c-0.9-0.3-1.6-0.8-2.2-1.4s-1-1.3-1.3-2.2c-0.3-0.8-0.5-1.7-0.5-2.7
			c0-1,0.2-1.8,0.5-2.7c0.3-0.8,0.8-1.5,1.3-2.1s1.3-1.1,2.1-1.4s1.7-0.5,2.7-0.5c0.9,0,1.7,0.1,2.5,0.4c0.7,0.3,1.4,0.7,1.9,1.2
			c0.8,0.7,1.3,1.6,1.7,2.7c0.4,1.1,0.6,2.3,0.5,3.6h-9.2c0.1,0.9,0.4,1.5,0.9,2s1.1,0.8,2,0.8c0.5,0,1-0.1,1.3-0.3
			c0.4-0.2,0.6-0.5,0.8-0.9h4c-0.1,0.6-0.4,1.1-0.8,1.7c-0.4,0.5-0.8,1-1.4,1.4c-0.5,0.4-1.1,0.7-1.8,0.9
			C174.2,20.2,173.4,20.2,172.6,20.2z M174.8,12.1c-0.1-0.8-0.3-1.4-0.8-1.8c-0.4-0.5-1-0.7-1.7-0.7c-0.8,0-1.4,0.2-1.8,0.7
			c-0.4,0.4-0.7,1.1-0.8,1.8H174.8z"/>
		<path class="st0" d="M180.4,2h4.1v17.9h-4.1V2z"/>
		<path class="st0" d="M186.5,2h4.1v3.3h-4.1V2z M186.5,7.1h4.1v12.8h-4.1V7.1z"/>
		<path class="st0" d="M198.7,20.3c-1,0-2-0.2-2.8-0.5c-0.8-0.3-1.5-0.8-2.1-1.4s-1-1.3-1.4-2.2s-0.5-1.7-0.5-2.7s0.2-1.9,0.5-2.7
			s0.8-1.5,1.4-2.2c0.6-0.6,1.3-1.1,2.1-1.4c0.8-0.3,1.7-0.5,2.8-0.5c0.9,0,1.7,0.1,2.4,0.4c0.7,0.2,1.3,0.6,1.8,1
			c0.5,0.4,0.9,1,1.2,1.6c0.3,0.6,0.5,1.3,0.6,2h-3.9c-0.1-0.6-0.4-1-0.7-1.4c-0.3-0.3-0.8-0.5-1.4-0.5c-0.9,0-1.5,0.3-2,1
			s-0.6,1.6-0.6,2.8c0,1.2,0.2,2.1,0.6,2.7c0.4,0.7,1.1,1,2,1c1.3,0,2-0.7,2.2-2.2h3.9c0,0.7-0.2,1.4-0.5,2.1
			c-0.3,0.6-0.7,1.2-1.2,1.7c-0.5,0.5-1.2,0.8-1.9,1.1C200.4,20.1,199.6,20.3,198.7,20.3z"/>
		<path class="st0" d="M206.1,2h4.1v6.7h0.1c0.5-0.6,1-1.1,1.6-1.4c0.6-0.3,1.3-0.5,2.2-0.5c0.7,0,1.3,0.1,1.9,0.4
			c0.6,0.2,1,0.6,1.4,1c0.4,0.4,0.7,0.9,0.9,1.5s0.3,1.2,0.3,2v8.3h-4.1v-7.5c0-0.7-0.2-1.2-0.5-1.7c-0.3-0.4-0.8-0.6-1.5-0.6
			c-0.7,0-1.2,0.2-1.6,0.8c-0.4,0.5-0.6,1.2-0.6,2v7.1h-4.1V2z"/>
		<path class="st0" d="M225.2,20c-0.6,0-1.1-0.1-1.6-0.2c-0.5-0.1-0.9-0.3-1.3-0.6s-0.6-0.6-0.8-1.1c-0.2-0.5-0.3-1-0.3-1.7V9.6
			h-1.7V7.1h1.7V3h4v4h2.3v2.5h-2.3v6c0,0.5,0.1,0.8,0.4,1c0.3,0.2,0.6,0.2,1,0.2c0.2,0,0.4,0,0.5,0c0.2,0,0.3,0,0.4,0v3
			c-0.2,0-0.5,0.1-0.8,0.1C226.2,20,225.7,20,225.2,20z"/>
	</g>
	<g>
		<path class="st0" d="M234.1,0h3.4v3.8l3.3-1.9l1.7,2.9l-3.3,1.9l3.3,1.9l-1.7,2.9l-3.3-1.9v3.8h-3.4V9.7l-3.3,1.9l-1.7-2.9
			l3.3-1.9l-3.3-1.9l1.7-2.9l3.3,1.9V0z"/>
	</g>
</g>
</svg>
