<?xml version="1.0" encoding="utf-8"?>
<!-- Generator: Adobe Illustrator 24.3.0, SVG Export Plug-In . SVG Version: 6.00 Build 0)  -->
<svg version="1.1" id="Laag_1" xmlns="http://www.w3.org/2000/svg" xmlns:xlink="http://www.w3.org/1999/xlink" x="0px" y="0px"
	 width="164.3px" height="12.9px" viewBox="0 0 164.3 12.9" style="enable-background:new 0 0 164.3 12.9;" xml:space="preserve">
<style type="text/css">
	.st0{fill:#1D1D1B;}
</style>
<g>
	<path class="st0" d="M0,0h8.5v1.2H4.9v9.5H3.6V1.2H0V0z"/>
	<path class="st0" d="M11.3,10.9c-0.6,0-1.1-0.1-1.6-0.3c-0.5-0.2-0.9-0.5-1.2-0.9C8.2,9.4,8,8.9,7.8,8.4c-0.2-0.5-0.3-1-0.3-1.6
		c0-0.6,0.1-1.1,0.3-1.6S8.3,4.3,8.6,4c0.3-0.4,0.7-0.7,1.2-0.9c0.5-0.2,1-0.3,1.5-0.3c0.6,0,1.1,0.1,1.5,0.3
		c0.4,0.2,0.8,0.5,1.1,0.9c0.3,0.4,0.5,0.8,0.7,1.4c0.2,0.5,0.2,1.1,0.2,1.8h-6c0,0.4,0.1,0.8,0.2,1.1c0.1,0.3,0.3,0.6,0.5,0.9
		c0.2,0.3,0.5,0.4,0.8,0.6c0.3,0.1,0.6,0.2,1,0.2c0.6,0,1-0.1,1.4-0.4c0.4-0.3,0.6-0.7,0.8-1.2h1.2c-0.2,0.8-0.6,1.5-1.1,1.9
		C12.9,10.7,12.2,10.9,11.3,10.9z M11.2,3.7c-0.4,0-0.7,0.1-1,0.2C10,4,9.8,4.2,9.6,4.4C9.4,4.7,9.2,4.9,9.1,5.2
		C9,5.5,8.9,5.9,8.8,6.2h4.7c0-0.8-0.3-1.4-0.6-1.8C12.5,4,11.9,3.7,11.2,3.7z"/>
	<path class="st0" d="M18.1,9.8l4.3-5.7v0h-4.1V3h5.8v0.7l-4.5,5.9v0h4.6v1.1h-6.2V9.8z"/>
	<path class="st0" d="M25.5,0h1.2v1.5h-1.2V0z M25.5,3h1.2v7.8h-1.2V3z"/>
	<path class="st0" d="M31.6,10.9c-0.6,0-1.1-0.1-1.6-0.3c-0.5-0.2-0.9-0.5-1.2-0.9c-0.3-0.4-0.6-0.8-0.7-1.3c-0.2-0.5-0.3-1-0.3-1.6
		c0-0.6,0.1-1.1,0.3-1.6s0.4-0.9,0.8-1.3c0.3-0.4,0.7-0.7,1.2-0.9c0.5-0.2,1-0.3,1.5-0.3c0.6,0,1.1,0.1,1.5,0.3
		c0.4,0.2,0.8,0.5,1.1,0.9c0.3,0.4,0.5,0.8,0.7,1.4c0.2,0.5,0.2,1.1,0.2,1.8h-6c0,0.4,0.1,0.8,0.2,1.1c0.1,0.3,0.3,0.6,0.5,0.9
		c0.2,0.3,0.5,0.4,0.8,0.6c0.3,0.1,0.6,0.2,1,0.2c0.6,0,1-0.1,1.4-0.4c0.4-0.3,0.6-0.7,0.8-1.2H35c-0.2,0.8-0.6,1.5-1.1,1.9
		C33.2,10.7,32.5,10.9,31.6,10.9z M31.6,3.7c-0.4,0-0.7,0.1-1,0.2c-0.3,0.1-0.5,0.3-0.7,0.5c-0.2,0.2-0.4,0.5-0.5,0.8
		c-0.1,0.3-0.2,0.6-0.2,1h4.7c0-0.8-0.3-1.4-0.6-1.8C32.8,4,32.3,3.7,31.6,3.7z"/>
	<path class="st0" d="M37.5,4L37.5,4c0.3-0.4,0.6-0.7,1-0.9s0.9-0.3,1.4-0.3c0.8,0,1.4,0.2,1.9,0.6c0.5,0.4,0.7,1,0.7,1.9v5.4h-1.2
		V5.4c0-0.5-0.2-0.9-0.5-1.2c-0.3-0.3-0.7-0.4-1.3-0.4c-0.3,0-0.6,0.1-0.9,0.2c-0.3,0.1-0.5,0.2-0.7,0.4c-0.2,0.2-0.3,0.4-0.4,0.7
		c-0.1,0.3-0.2,0.6-0.2,0.9v4.8h-1.2V3h1.2V4z"/>
	<path class="st0" d="M46.1,3h1.1V0.5h1.2V3H50v1h-1.5v5c0,0.3,0.1,0.5,0.2,0.6c0.1,0.1,0.3,0.2,0.6,0.2c0.1,0,0.2,0,0.4,0
		c0.1,0,0.2,0,0.3-0.1h0v1.1c-0.1,0-0.3,0.1-0.5,0.1c-0.2,0-0.3,0-0.5,0c-0.5,0-0.9-0.1-1.2-0.3c-0.3-0.2-0.5-0.6-0.5-1.2V4h-1.1V3z
		"/>
	<path class="st0" d="M54.9,0h1.3l-4.3,10.7h-1.3L54.9,0z"/>
	<path class="st0" d="M56.5,3h1.2v1.1h0c0.2-0.4,0.6-0.7,1-0.9c0.4-0.2,0.8-0.4,1.3-0.4c0.5,0,0.9,0.1,1.2,0.4
		c0.3,0.2,0.6,0.6,0.8,1h0c0.2-0.5,0.6-0.8,1-1c0.4-0.2,0.9-0.4,1.4-0.4c0.7,0,1.3,0.2,1.7,0.6c0.4,0.4,0.7,1,0.7,1.9v5.4h-1.2V5.3
		c0-0.5-0.1-0.9-0.4-1.1c-0.3-0.3-0.6-0.4-1-0.4c-0.2,0-0.5,0.1-0.7,0.2c-0.2,0.1-0.4,0.2-0.6,0.4c-0.2,0.2-0.3,0.4-0.4,0.7
		c-0.1,0.3-0.2,0.5-0.2,0.8v4.8h-1.2V5.3c0-0.5-0.1-0.9-0.4-1.1c-0.2-0.3-0.6-0.4-1-0.4c-0.2,0-0.5,0.1-0.7,0.2
		c-0.2,0.1-0.4,0.2-0.6,0.4c-0.2,0.2-0.3,0.4-0.5,0.7c-0.1,0.3-0.2,0.5-0.2,0.8v4.8h-1.2V3z"/>
	<path class="st0" d="M72.8,3.2h-2.2V2.4c0.3,0,0.6,0,0.9-0.1C71.7,2.2,72,2.1,72.2,2c0.2-0.2,0.4-0.4,0.6-0.6
		c0.2-0.3,0.2-0.6,0.3-1h1v10.3h-1.3V3.2z"/>
	<path class="st0" d="M79.9,10.9c-0.6,0-1.1-0.1-1.5-0.2c-0.4-0.2-0.8-0.4-1.1-0.7c-0.6-0.5-0.9-1.1-1.1-1.8s-0.3-1.6-0.3-2.7
		c0-0.8,0.1-1.5,0.3-2.2c0.2-0.7,0.4-1.2,0.8-1.7s0.8-0.8,1.2-1.1s1.1-0.4,1.7-0.4c0.5,0,1,0.1,1.3,0.2c0.4,0.2,0.7,0.4,1,0.6
		c0.3,0.3,0.5,0.6,0.6,0.9s0.2,0.7,0.3,1.1h-1.2c0-0.2-0.1-0.5-0.2-0.7c-0.1-0.2-0.2-0.4-0.4-0.6c-0.2-0.2-0.4-0.3-0.6-0.4
		c-0.2-0.1-0.5-0.1-0.8-0.1c-0.5,0-0.9,0.1-1.3,0.3C78.2,1.8,78,2,77.8,2.4c-0.2,0.4-0.4,0.8-0.5,1.3c-0.1,0.5-0.2,1.1-0.2,1.7h0
		c0.3-0.5,0.7-0.8,1.2-1.1s1-0.4,1.6-0.4c0.5,0,0.9,0.1,1.3,0.3S82,4.7,82.3,5c0.3,0.3,0.5,0.7,0.7,1.1c0.2,0.4,0.3,0.9,0.3,1.3
		c0,0.5-0.1,0.9-0.3,1.4c-0.2,0.4-0.4,0.8-0.7,1.1c-0.3,0.3-0.7,0.6-1.1,0.8C80.8,10.9,80.4,10.9,79.9,10.9z M79.9,9.9
		c0.3,0,0.6-0.1,0.9-0.2c0.3-0.1,0.5-0.3,0.7-0.5C81.7,9,81.9,8.8,82,8.5s0.2-0.6,0.2-1c0-0.4-0.1-0.7-0.2-1
		c-0.1-0.3-0.3-0.6-0.5-0.8S81,5.3,80.7,5.2C80.5,5.1,80.1,5,79.8,5c-0.4,0-0.7,0.1-1,0.2c-0.3,0.1-0.6,0.3-0.8,0.5
		s-0.4,0.5-0.5,0.8s-0.2,0.6-0.2,1c0,0.4,0.1,0.7,0.2,1c0.1,0.3,0.3,0.6,0.5,0.8c0.2,0.2,0.5,0.4,0.8,0.5
		C79.2,9.9,79.5,9.9,79.9,9.9z"/>
	<path class="st0" d="M86.6,12.9c-0.1,0-0.3,0-0.4,0c-0.1,0-0.2,0-0.3,0v-1h0c0.1,0,0.3,0,0.4,0c0.5,0,0.8-0.2,0.8-0.8V3h1.2v8.3
		c0,0.4,0,0.7-0.1,0.9s-0.2,0.4-0.4,0.5c-0.2,0.1-0.3,0.2-0.6,0.2C87,12.9,86.8,12.9,86.6,12.9z M87.1,0h1.2v1.5h-1.2V0z"/>
	<path class="st0" d="M96.1,10.8c-0.8,0-1.2-0.4-1.3-1.2h0c-0.1,0.2-0.3,0.3-0.4,0.4c-0.2,0.1-0.3,0.3-0.6,0.4s-0.4,0.2-0.7,0.3
		c-0.3,0.1-0.6,0.1-0.9,0.1c-0.4,0-0.7,0-1-0.1c-0.3-0.1-0.6-0.2-0.8-0.4s-0.4-0.4-0.6-0.7c-0.1-0.3-0.2-0.6-0.2-1
		c0-0.5,0.1-0.8,0.3-1.1c0.2-0.3,0.4-0.5,0.7-0.7c0.3-0.2,0.7-0.3,1.1-0.4c0.4-0.1,0.9-0.2,1.3-0.3c0.3,0,0.5-0.1,0.8-0.1
		c0.2,0,0.4-0.1,0.6-0.2s0.3-0.2,0.4-0.3s0.1-0.3,0.1-0.5c0-0.4-0.2-0.8-0.5-1C94,3.9,93.6,3.7,93,3.7c-0.6,0-1.1,0.1-1.4,0.4
		c-0.3,0.3-0.5,0.7-0.5,1.3h-1.2c0-0.4,0.1-0.7,0.2-1s0.3-0.6,0.6-0.8c0.3-0.2,0.6-0.4,1-0.5c0.4-0.1,0.8-0.2,1.3-0.2
		c0.4,0,0.8,0,1.1,0.1c0.4,0.1,0.7,0.2,0.9,0.4c0.3,0.2,0.5,0.4,0.6,0.8c0.1,0.3,0.2,0.7,0.2,1.2V9c0,0.3,0.1,0.6,0.2,0.7
		c0.1,0.2,0.3,0.2,0.7,0.1h0v0.9c-0.1,0-0.2,0.1-0.3,0.1C96.4,10.8,96.2,10.8,96.1,10.8z M92.4,9.9c0.4,0,0.8-0.1,1-0.2
		s0.5-0.3,0.7-0.5c0.2-0.2,0.3-0.4,0.4-0.7c0.1-0.2,0.1-0.5,0.1-0.7V6.5c-0.2,0.1-0.5,0.2-0.8,0.3C93.7,7,93.3,7,93,7.1
		c-0.3,0.1-0.6,0.1-0.9,0.2c-0.3,0.1-0.5,0.1-0.7,0.3C91.3,7.7,91.1,7.8,91,8c-0.1,0.2-0.2,0.4-0.2,0.7c0,0.3,0,0.5,0.1,0.6
		s0.2,0.3,0.4,0.4c0.1,0.1,0.3,0.2,0.5,0.2C92,9.9,92.2,9.9,92.4,9.9z"/>
	<path class="st0" d="M98.9,4L98.9,4c0.3-0.4,0.6-0.7,1-0.9c0.4-0.2,0.9-0.3,1.4-0.3c0.8,0,1.4,0.2,1.9,0.6c0.5,0.4,0.7,1,0.7,1.9
		v5.4h-1.2V5.4c0-0.5-0.2-0.9-0.5-1.2c-0.3-0.3-0.7-0.4-1.3-0.4c-0.3,0-0.6,0.1-0.9,0.2c-0.3,0.1-0.5,0.2-0.7,0.4
		c-0.2,0.2-0.3,0.4-0.4,0.7c-0.1,0.3-0.2,0.6-0.2,0.9v4.8h-1.2V3h1.2V4z"/>
	<path class="st0" d="M110.5,10.7V9.7h0c-0.3,0.4-0.6,0.7-1,0.9c-0.4,0.2-0.8,0.3-1.4,0.3c-0.8,0-1.4-0.2-1.9-0.7
		c-0.5-0.5-0.7-1.1-0.7-1.9V3h1.2v5.3c0,0.5,0.2,0.9,0.5,1.2c0.3,0.3,0.7,0.4,1.3,0.4c0.3,0,0.6-0.1,0.8-0.2
		c0.2-0.1,0.5-0.3,0.6-0.5c0.2-0.2,0.3-0.4,0.4-0.7c0.1-0.3,0.1-0.5,0.1-0.9V3h1.2v7.8H110.5z"/>
	<path class="st0" d="M119.5,10.8c-0.8,0-1.2-0.4-1.3-1.2h0c-0.1,0.2-0.3,0.3-0.4,0.4c-0.2,0.1-0.3,0.3-0.6,0.4s-0.4,0.2-0.7,0.3
		c-0.3,0.1-0.6,0.1-0.9,0.1c-0.4,0-0.7,0-1-0.1s-0.6-0.2-0.8-0.4c-0.2-0.2-0.4-0.4-0.6-0.7c-0.1-0.3-0.2-0.6-0.2-1
		c0-0.5,0.1-0.8,0.3-1.1s0.4-0.5,0.7-0.7s0.7-0.3,1.1-0.4c0.4-0.1,0.9-0.2,1.3-0.3c0.3,0,0.5-0.1,0.8-0.1c0.2,0,0.4-0.1,0.6-0.2
		s0.3-0.2,0.4-0.3s0.1-0.3,0.1-0.5c0-0.4-0.2-0.8-0.5-1c-0.3-0.2-0.7-0.4-1.3-0.4c-0.6,0-1.1,0.1-1.4,0.4c-0.3,0.3-0.5,0.7-0.5,1.3
		h-1.2c0-0.4,0.1-0.7,0.2-1s0.3-0.6,0.6-0.8c0.3-0.2,0.6-0.4,1-0.5c0.4-0.1,0.8-0.2,1.3-0.2c0.4,0,0.8,0,1.1,0.1
		c0.3,0.1,0.7,0.2,0.9,0.4c0.3,0.2,0.5,0.4,0.6,0.8c0.1,0.3,0.2,0.7,0.2,1.2V9c0,0.3,0.1,0.6,0.2,0.7c0.1,0.2,0.3,0.2,0.7,0.1h0v0.9
		c-0.1,0-0.2,0.1-0.3,0.1C119.7,10.8,119.6,10.8,119.5,10.8z M115.8,9.9c0.4,0,0.8-0.1,1.1-0.2c0.3-0.1,0.5-0.3,0.7-0.5
		c0.2-0.2,0.3-0.4,0.4-0.7s0.1-0.5,0.1-0.7V6.5c-0.2,0.1-0.5,0.2-0.8,0.3c-0.3,0.1-0.7,0.2-1,0.2c-0.3,0.1-0.6,0.1-0.9,0.2
		c-0.3,0.1-0.5,0.1-0.7,0.3c-0.2,0.1-0.4,0.3-0.5,0.4c-0.1,0.2-0.2,0.4-0.2,0.7c0,0.3,0,0.5,0.1,0.6c0.1,0.2,0.2,0.3,0.4,0.4
		c0.2,0.1,0.3,0.2,0.5,0.2C115.4,9.9,115.6,9.9,115.8,9.9z"/>
	<path class="st0" d="M122.2,4.3L122.2,4.3c0.3-0.4,0.6-0.7,1-1c0.4-0.3,0.9-0.4,1.4-0.4c0.1,0,0.2,0,0.3,0c0.1,0,0.1,0,0.2,0.1v1.2
		h0c-0.1,0-0.2,0-0.2-0.1c-0.1,0-0.2,0-0.3,0c-0.3,0-0.6,0.1-0.9,0.2c-0.3,0.1-0.5,0.3-0.7,0.5c-0.2,0.2-0.4,0.4-0.5,0.7
		s-0.2,0.6-0.2,1v4.3H121V3h1.2V4.3z"/>
	<path class="st0" d="M126.2,0h1.2v1.5h-1.2V0z M126.2,3h1.2v7.8h-1.2V3z"/>
	<path class="st0" d="M131.4,9c0.2-0.5,0.5-0.9,0.9-1.3c0.4-0.4,0.8-0.7,1.2-1s0.9-0.5,1.3-0.8c0.3-0.2,0.6-0.4,0.9-0.5
		c0.3-0.2,0.5-0.4,0.7-0.6c0.2-0.2,0.3-0.4,0.4-0.6c0.1-0.2,0.1-0.5,0.1-0.8c0-0.6-0.2-1.1-0.6-1.5c-0.4-0.4-0.9-0.6-1.6-0.6
		c-0.4,0-0.7,0.1-0.9,0.2c-0.3,0.1-0.5,0.3-0.7,0.5c-0.2,0.2-0.3,0.5-0.4,0.8c-0.1,0.3-0.1,0.7-0.1,1.3h-1.3c0-0.7,0.1-1.2,0.2-1.7
		c0.2-0.4,0.4-0.8,0.7-1.1c0.3-0.3,0.7-0.6,1.2-0.7s1-0.2,1.5-0.2c0.5,0,1,0.1,1.4,0.2c0.4,0.2,0.8,0.4,1.1,0.7
		c0.3,0.3,0.5,0.6,0.7,1c0.2,0.4,0.2,0.8,0.2,1.3c0,0.5-0.1,0.9-0.2,1.3c-0.2,0.3-0.4,0.6-0.6,0.9c-0.3,0.3-0.6,0.5-1,0.7
		c-0.4,0.2-0.8,0.4-1.2,0.7c-0.3,0.2-0.6,0.3-0.9,0.5c-0.3,0.2-0.6,0.4-0.8,0.6c-0.3,0.2-0.5,0.4-0.7,0.7c-0.2,0.2-0.3,0.5-0.4,0.8
		h5.6v1.2h-7.1C131.1,10,131.2,9.4,131.4,9z"/>
	<path class="st0" d="M143.6,10.9c-0.6,0-1.2-0.1-1.7-0.4s-0.9-0.6-1.3-1.1s-0.6-1-0.8-1.7c-0.2-0.7-0.3-1.4-0.3-2.2
		c0-0.8,0.1-1.6,0.3-2.2c0.2-0.7,0.5-1.2,0.8-1.7c0.4-0.5,0.8-0.8,1.3-1.1c0.5-0.2,1-0.4,1.6-0.4s1.2,0.1,1.7,0.4
		c0.5,0.2,0.9,0.6,1.3,1.1c0.3,0.5,0.6,1,0.8,1.7c0.2,0.7,0.3,1.4,0.3,2.3c0,0.8-0.1,1.6-0.3,2.2s-0.4,1.2-0.8,1.7s-0.8,0.8-1.3,1.1
		S144.2,10.9,143.6,10.9z M143.6,9.9c0.9,0,1.6-0.4,2-1.1c0.4-0.8,0.7-1.8,0.7-3.1c0-0.7-0.1-1.2-0.2-1.8c-0.1-0.5-0.3-1-0.5-1.4
		c-0.2-0.4-0.5-0.7-0.8-0.9s-0.7-0.3-1.2-0.3c-0.9,0-1.6,0.4-2,1.1c-0.4,0.8-0.7,1.8-0.7,3.1c0,0.6,0.1,1.2,0.2,1.8
		c0.1,0.5,0.3,1,0.5,1.3c0.2,0.4,0.5,0.7,0.8,0.9S143.1,9.9,143.6,9.9z"/>
	<path class="st0" d="M149,9c0.2-0.5,0.5-0.9,0.9-1.3c0.4-0.4,0.8-0.7,1.2-1c0.4-0.3,0.9-0.5,1.3-0.8c0.3-0.2,0.6-0.4,0.9-0.5
		c0.3-0.2,0.5-0.4,0.7-0.6c0.2-0.2,0.3-0.4,0.4-0.6c0.1-0.2,0.2-0.5,0.2-0.8c0-0.6-0.2-1.1-0.6-1.5c-0.4-0.4-0.9-0.6-1.6-0.6
		c-0.4,0-0.7,0.1-0.9,0.2c-0.3,0.1-0.5,0.3-0.7,0.5c-0.2,0.2-0.3,0.5-0.4,0.8c-0.1,0.3-0.1,0.7-0.1,1.3h-1.3c0-0.7,0.1-1.2,0.2-1.7
		c0.2-0.4,0.4-0.8,0.7-1.1c0.3-0.3,0.7-0.6,1.2-0.7s1-0.2,1.5-0.2c0.5,0,1,0.1,1.4,0.2s0.8,0.4,1.1,0.7c0.3,0.3,0.5,0.6,0.7,1
		s0.2,0.8,0.2,1.3c0,0.5-0.1,0.9-0.2,1.3c-0.2,0.3-0.4,0.6-0.6,0.9c-0.3,0.3-0.6,0.5-1,0.7c-0.4,0.2-0.8,0.4-1.2,0.7
		c-0.3,0.2-0.6,0.3-0.9,0.5c-0.3,0.2-0.6,0.4-0.8,0.6s-0.5,0.4-0.7,0.7s-0.3,0.5-0.4,0.8h5.6v1.2h-7.1C148.6,10,148.8,9.4,149,9z"/>
	<path class="st0" d="M157.4,9c0.2-0.5,0.5-0.9,0.9-1.3c0.4-0.4,0.8-0.7,1.2-1c0.4-0.3,0.9-0.5,1.3-0.8c0.3-0.2,0.6-0.4,0.9-0.5
		c0.3-0.2,0.5-0.4,0.7-0.6c0.2-0.2,0.3-0.4,0.4-0.6c0.1-0.2,0.2-0.5,0.2-0.8c0-0.6-0.2-1.1-0.6-1.5c-0.4-0.4-0.9-0.6-1.6-0.6
		c-0.4,0-0.7,0.1-0.9,0.2c-0.3,0.1-0.5,0.3-0.7,0.5c-0.2,0.2-0.3,0.5-0.4,0.8c-0.1,0.3-0.1,0.7-0.1,1.3h-1.3c0-0.7,0.1-1.2,0.2-1.7
		c0.2-0.4,0.4-0.8,0.7-1.1c0.3-0.3,0.7-0.6,1.2-0.7s1-0.2,1.5-0.2c0.5,0,1,0.1,1.4,0.2s0.8,0.4,1.1,0.7c0.3,0.3,0.5,0.6,0.7,1
		s0.2,0.8,0.2,1.3c0,0.5-0.1,0.9-0.2,1.3c-0.2,0.3-0.4,0.6-0.6,0.9c-0.3,0.3-0.6,0.5-1,0.7c-0.4,0.2-0.8,0.4-1.2,0.7
		c-0.3,0.2-0.6,0.3-0.9,0.5c-0.3,0.2-0.6,0.4-0.8,0.6s-0.5,0.4-0.7,0.7s-0.3,0.5-0.4,0.8h5.6v1.2H157C157,10,157.1,9.4,157.4,9z"/>
</g>
</svg>
