<?xml version="1.0" encoding="utf-8"?>
<!-- Generator: Adobe Illustrator 24.0.0, SVG Export Plug-In . SVG Version: 6.00 Build 0)  -->
<svg version="1.1" id="Laag_1" xmlns="http://www.w3.org/2000/svg" xmlns:xlink="http://www.w3.org/1999/xlink" x="0px" y="0px"
	 width="93.3px" height="12.1px" viewBox="0 0 93.3 12.1" style="enable-background:new 0 0 93.3 12.1;" xml:space="preserve">
<style type="text/css">
	.st0{fill:#FFFFFF;}
</style>
<g>
	<path class="st0" d="M4.5,0.2h4.2c0.6,0,1.1,0.1,1.5,0.2c0.4,0.1,0.8,0.4,1.1,0.6c0.3,0.3,0.5,0.6,0.7,1c0.2,0.4,0.2,0.8,0.2,1.3
		c0,0.4-0.1,0.9-0.2,1.2c-0.1,0.4-0.4,0.7-0.6,1c-0.3,0.3-0.6,0.5-1,0.6C10,6.4,9.6,6.5,9.1,6.5H6.9v3.1H4.5V0.2z M8.6,4.6
		c0.4,0,0.7-0.1,1-0.3c0.2-0.2,0.3-0.5,0.3-0.9c0-0.4-0.1-0.7-0.3-0.9C9.4,2.3,9,2.2,8.6,2.2H6.9v2.5H8.6z"/>
	<path class="st0" d="M13,0.2h2.2v9.4H13V0.2z"/>
	<path class="st0" d="M18.2,9.8c-0.3,0-0.6,0-0.9-0.1c-0.3-0.1-0.5-0.2-0.7-0.4c-0.2-0.2-0.4-0.4-0.5-0.6c-0.1-0.3-0.2-0.5-0.2-0.9
		c0-0.4,0.1-0.7,0.2-0.9c0.1-0.3,0.3-0.5,0.6-0.6c0.2-0.2,0.5-0.3,0.8-0.4c0.3-0.1,0.6-0.2,1-0.2c0.6-0.1,1.1-0.2,1.3-0.3
		c0.3-0.1,0.4-0.3,0.4-0.5c0-0.2-0.1-0.4-0.2-0.5c-0.1-0.1-0.4-0.2-0.7-0.2c-0.3,0-0.6,0.1-0.8,0.2c-0.2,0.1-0.3,0.4-0.3,0.6h-2
		c0-0.3,0.1-0.6,0.2-0.9c0.1-0.3,0.3-0.5,0.6-0.7c0.3-0.2,0.6-0.4,0.9-0.5c0.4-0.1,0.8-0.2,1.3-0.2c0.5,0,0.9,0,1.3,0.1
		c0.4,0.1,0.6,0.2,0.9,0.4c0.3,0.2,0.5,0.5,0.6,0.8c0.1,0.3,0.2,0.7,0.2,1.1v3.4c0,0.3,0,0.5,0,0.6c0,0.2,0.1,0.3,0.2,0.3v0.1h-2.1
		c-0.1-0.1-0.1-0.2-0.1-0.3c0-0.1-0.1-0.3-0.1-0.5h0c-0.2,0.3-0.5,0.5-0.8,0.7C19.1,9.7,18.7,9.8,18.2,9.8z M18.9,8.4
		c0.4,0,0.7-0.1,1-0.3c0.3-0.2,0.4-0.5,0.4-0.9V6.4c-0.1,0.1-0.3,0.1-0.5,0.2c-0.2,0.1-0.4,0.1-0.6,0.2c-0.4,0.1-0.7,0.2-0.9,0.3
		C18,7.2,18,7.4,18,7.7c0,0.3,0.1,0.5,0.3,0.6C18.4,8.4,18.6,8.4,18.9,8.4z"/>
	<path class="st0" d="M23.3,2.9h2.1v0.9h0C25.7,3.4,26,3.2,26.3,3c0.3-0.2,0.7-0.3,1.2-0.3c0.4,0,0.7,0.1,1,0.2
		C28.8,3,29,3.2,29.2,3.4c0.2,0.2,0.4,0.5,0.5,0.8c0.1,0.3,0.2,0.7,0.2,1v4.4h-2.1v-4c0-0.4-0.1-0.6-0.3-0.9
		c-0.2-0.2-0.4-0.3-0.8-0.3c-0.4,0-0.6,0.1-0.9,0.4c-0.2,0.3-0.3,0.6-0.3,1v3.7h-2.1V2.9z"/>
	<path class="st0" d="M33,11.9c-0.2,0-0.4,0-0.6,0c-0.2,0-0.4,0-0.6-0.1v-1.5c0.2,0,0.3,0,0.5,0c0.1,0,0.3,0,0.4-0.1
		c0.1,0,0.2-0.1,0.2-0.2c0-0.1,0.1-0.2,0.1-0.4V2.9H35v6.8c0,0.4,0,0.8-0.1,1.1c-0.1,0.3-0.2,0.5-0.4,0.6c-0.2,0.2-0.4,0.3-0.7,0.4
		C33.6,11.9,33.3,11.9,33,11.9z M32.9,0.2H35v1.7h-2.1V0.2z"/>
	<path class="st0" d="M39.4,9.8c-0.6,0-1.1-0.1-1.5-0.3c-0.4-0.2-0.8-0.4-1.1-0.8c-0.3-0.3-0.5-0.7-0.7-1.1
		c-0.2-0.4-0.3-0.9-0.3-1.4c0-0.5,0.1-1,0.3-1.4s0.4-0.8,0.7-1.1C37,3.4,37.4,3.1,37.8,3c0.4-0.2,0.9-0.3,1.4-0.3
		c0.5,0,0.9,0.1,1.3,0.2c0.4,0.1,0.7,0.4,1,0.6c0.4,0.4,0.7,0.8,0.9,1.4c0.2,0.6,0.3,1.2,0.3,1.9h-4.8c0.1,0.5,0.2,0.8,0.5,1.1
		c0.2,0.3,0.6,0.4,1,0.4c0.3,0,0.5-0.1,0.7-0.2c0.2-0.1,0.3-0.3,0.4-0.5h2.1c-0.1,0.3-0.2,0.6-0.4,0.9C42,8.8,41.8,9,41.5,9.2
		c-0.3,0.2-0.6,0.4-0.9,0.5C40.2,9.8,39.8,9.8,39.4,9.8z M40.5,5.5c0-0.4-0.2-0.7-0.4-1c-0.2-0.2-0.5-0.4-0.9-0.4
		c-0.4,0-0.7,0.1-0.9,0.4c-0.2,0.2-0.4,0.6-0.4,1H40.5z"/>
	<path class="st0" d="M49.6,9.8c-0.4,0-0.8-0.1-1.2-0.3c-0.4-0.2-0.6-0.4-0.8-0.8h0v0.9h-2.1V0.2h2.1v3.4h0c0.2-0.3,0.5-0.5,0.8-0.7
		s0.7-0.3,1.2-0.3c0.4,0,0.8,0.1,1.2,0.3c0.4,0.2,0.7,0.4,0.9,0.8c0.3,0.3,0.4,0.7,0.6,1.1s0.2,0.9,0.2,1.4c0,0.6-0.1,1.1-0.2,1.5
		c-0.1,0.4-0.3,0.8-0.6,1.1c-0.3,0.3-0.6,0.5-0.9,0.7C50.4,9.8,50,9.8,49.6,9.8z M49,8.1c0.4,0,0.7-0.2,1-0.5
		c0.2-0.3,0.3-0.8,0.3-1.4c0-0.6-0.1-1-0.3-1.4c-0.2-0.4-0.6-0.5-1-0.5c-0.5,0-0.8,0.2-1.1,0.6c-0.2,0.4-0.3,0.8-0.3,1.4
		c0,0.6,0.1,1,0.4,1.4C48.2,8,48.5,8.1,49,8.1z"/>
	<path class="st0" d="M56.5,9.8c-0.6,0-1.1-0.1-1.5-0.3c-0.4-0.2-0.8-0.4-1.1-0.8c-0.3-0.3-0.5-0.7-0.7-1.1
		c-0.2-0.4-0.3-0.9-0.3-1.4c0-0.5,0.1-1,0.3-1.4s0.4-0.8,0.7-1.1c0.3-0.3,0.7-0.6,1.1-0.8c0.4-0.2,0.9-0.3,1.4-0.3
		c0.5,0,0.9,0.1,1.3,0.2c0.4,0.1,0.7,0.4,1,0.6c0.4,0.4,0.7,0.8,0.9,1.4c0.2,0.6,0.3,1.2,0.3,1.9H55c0.1,0.5,0.2,0.8,0.5,1.1
		c0.2,0.3,0.6,0.4,1,0.4c0.3,0,0.5-0.1,0.7-0.2c0.2-0.1,0.3-0.3,0.4-0.5h2.1c-0.1,0.3-0.2,0.6-0.4,0.9c-0.2,0.3-0.4,0.5-0.7,0.7
		c-0.3,0.2-0.6,0.4-0.9,0.5C57.3,9.8,56.9,9.8,56.5,9.8z M57.7,5.5c0-0.4-0.2-0.7-0.4-1c-0.2-0.2-0.5-0.4-0.9-0.4
		c-0.4,0-0.7,0.1-0.9,0.4c-0.2,0.2-0.4,0.6-0.4,1H57.7z"/>
	<path class="st0" d="M60.2,8l2.7-2.9c0,0,0.1-0.1,0.2-0.2c0.1-0.1,0.1-0.1,0.2-0.2c0.1-0.1,0.1-0.2,0.2-0.2v0c-0.1,0-0.2,0-0.3,0
		h-0.5h-2.1V2.9h5.5v1.6l-2.6,2.8l-0.4,0.4c-0.1,0.1-0.2,0.2-0.3,0.3v0h0.4c0.1,0,0.2,0,0.3,0c0.1,0,0.2,0,0.3,0h2.4v1.7h-6V8z"/>
	<path class="st0" d="M70.2,9.8c-0.5,0-1-0.1-1.5-0.3c-0.4-0.2-0.8-0.4-1.1-0.8c-0.3-0.3-0.6-0.7-0.7-1.1c-0.2-0.4-0.3-0.9-0.3-1.4
		c0-0.5,0.1-1,0.3-1.4C67,4.4,67.3,4,67.6,3.7c0.3-0.3,0.7-0.6,1.1-0.8s0.9-0.3,1.5-0.3c0.5,0,1,0.1,1.5,0.3
		c0.4,0.2,0.8,0.4,1.1,0.8c0.3,0.3,0.6,0.7,0.7,1.1c0.2,0.4,0.3,0.9,0.3,1.4c0,0.5-0.1,1-0.3,1.4c-0.2,0.4-0.4,0.8-0.7,1.1
		c-0.3,0.3-0.7,0.6-1.1,0.8C71.2,9.7,70.8,9.8,70.2,9.8z M70.2,8.3c0.5,0,0.8-0.2,1.1-0.6c0.2-0.4,0.4-0.9,0.4-1.5s-0.1-1.1-0.4-1.5
		c-0.2-0.4-0.6-0.6-1.1-0.6c-0.5,0-0.8,0.2-1.1,0.6c-0.2,0.4-0.4,0.9-0.4,1.5s0.1,1.1,0.4,1.5C69.4,8.1,69.7,8.3,70.2,8.3z"/>
	<path class="st0" d="M77.8,9.8c-0.6,0-1.1-0.1-1.5-0.3c-0.4-0.2-0.8-0.4-1.1-0.8c-0.3-0.3-0.5-0.7-0.7-1.1
		c-0.2-0.4-0.3-0.9-0.3-1.4c0-0.5,0.1-1,0.3-1.4s0.4-0.8,0.7-1.1c0.3-0.3,0.7-0.6,1.1-0.8c0.4-0.2,0.9-0.3,1.4-0.3
		c0.5,0,0.9,0.1,1.3,0.2c0.4,0.1,0.7,0.4,1,0.6c0.4,0.4,0.7,0.8,0.9,1.4c0.2,0.6,0.3,1.2,0.3,1.9h-4.8c0.1,0.5,0.2,0.8,0.5,1.1
		c0.2,0.3,0.6,0.4,1,0.4c0.3,0,0.5-0.1,0.7-0.2C78.7,8,78.9,7.8,79,7.6h2.1c-0.1,0.3-0.2,0.6-0.4,0.9c-0.2,0.3-0.4,0.5-0.7,0.7
		c-0.3,0.2-0.6,0.4-0.9,0.5C78.6,9.8,78.3,9.8,77.8,9.8z M79,5.5c0-0.4-0.2-0.7-0.4-1c-0.2-0.2-0.5-0.4-0.9-0.4
		c-0.4,0-0.7,0.1-0.9,0.4c-0.2,0.2-0.4,0.6-0.4,1H79z"/>
	<path class="st0" d="M81.9,0.2H84v5l2-2.3h2.5l-2.4,2.5l2.6,4.2h-2.5l-1.6-2.8L84,7.6v2.1h-2.1V0.2z"/>
</g>
</svg>
