<?xml version="1.0" encoding="utf-8"?>
<!-- Generator: Adobe Illustrator 24.0.0, SVG Export Plug-In . SVG Version: 6.00 Build 0)  -->
<svg version="1.1" id="Laag_1" xmlns="http://www.w3.org/2000/svg" xmlns:xlink="http://www.w3.org/1999/xlink" x="0px" y="0px"
	 width="121.1px" height="22.3px" viewBox="0 0 121.1 22.3" style="enable-background:new 0 0 121.1 22.3;" xml:space="preserve">
<style type="text/css">
	.st0{fill:#F7DBE9;}
</style>
<path class="st0" d="M2.9,9.9c-2.3,0-2.9,0-2.9,0s0.1-0.3,0.1-2.3V3.3C0.1,1.3,0,1,0,1s0.6,0,2.8,0c2.5,0,5.8,0.1,5.8,4.4
	C8.6,9.8,5.1,9.9,2.9,9.9z M3.4,2.6c-0.6,0-0.7,0-0.7,0v5.6c0,0,0.2,0,0.8,0c1.4,0,2.4-0.5,2.4-2.8C5.9,2.9,4.8,2.6,3.4,2.6z
	 M13.2,7c-1,0-1.4-0.1-1.4-0.1c0,1.2,0.8,2,2.2,2c1.3,0,1.9-0.7,1.9-0.7l0.6,1.2c0,0-0.7,0.7-2.8,0.7c-2.6,0-3.8-1.5-3.8-3.6
	c0-2,1.1-3.8,3.5-3.8c2.2,0,3.1,0.9,3.1,2.1C16.5,6.1,15.7,7,13.2,7z M13.4,3.7c-1,0-1.6,0.7-1.6,2.1c0,0,0.3,0.1,1.2,0.1
	s1.6-0.2,1.6-1.1C14.6,4.4,14.5,3.7,13.4,3.7z M29.3,0.9c0,0-0.2,0.3-0.4,2.3l-0.5,4.1C28.3,8,28.1,9,28.1,9.6c0,0.2,0,0.3,0,0.3
	h-2.5c0,0,0.2-0.3,0.4-2.3l0.6-5c0,0-0.3,0.8-0.5,1.5L23.9,10h-2.5l-0.8-5.9c-0.1-0.6-0.1-1.5-0.1-1.5l-0.6,4.8
	c-0.1,0.7-0.2,1.7-0.2,2.3V10h-2.2c0,0,0.2-0.3,0.4-2.3l0.5-4.1c0.1-0.7,0.2-1.7,0.2-2.3c0-0.2,0-0.3,0-0.3h3.5l0.7,5.6
	C23,7.2,23,8,23,8s0.1-0.8,0.4-1.5l2.2-5.6C25.6,0.9,29.3,0.9,29.3,0.9z M37.1,2.7l-0.7,5.2c-0.1,0.6-0.1,1-0.1,1.2
	c0,0.5,0.1,0.6,0.1,0.6L34.9,10c0,0-0.1-0.2-0.1-0.6c0-0.4,0.1-0.8,0.1-0.8S34.2,10,32.4,10s-2.2-1.1-2.2-2c0-1.3,0.5-3.5,0.5-4.5
	c0-0.5-0.1-0.6-0.1-0.6l1.5-0.2c0,0,0.1,0.2,0.1,0.7c0,0.9-0.5,3.2-0.5,4.3c0,0.5,0.1,1.2,1.2,1.2c1.5,0,2-1.6,2-1.6l0.6-4.4
	L37.1,2.7z M42.9,4.4c0,0-0.6-0.7-1.9-0.7c-0.8,0-1.2,0.4-1.2,0.8c0,0.5,0.3,0.7,1.2,1.3c1,0.5,2,1,2,2.2c0,1.1-0.6,2.1-2.6,2.1
	c-1.9,0-2.6-0.7-2.6-0.7l0.5-1.1c0,0,0.5,0.7,2,0.7c0.7,0,1.2-0.2,1.2-0.9c0-0.6-0.4-0.8-1.2-1.2c-1-0.5-1.9-1-1.9-2.2
	c0-0.9,0.5-2,2.5-2c1.6,0,2.4,0.6,2.4,0.6L42.9,4.4z M47.3,6.9c-0.8,0-1.4-0.1-1.4-0.1v0.4c0,1,0.5,1.9,2,1.9c1.4,0,1.8-0.7,1.8-0.7
	l0.5,1c0,0-0.6,0.7-2.5,0.7c-2.5,0-3.2-1.6-3.2-3.1c0-3.3,2.1-4.2,3.7-4.2c1.3,0,2.6,0.5,2.6,1.9C50.8,6.2,49.6,6.9,47.3,6.9z
	 M48,3.6c-0.9,0-1.8,0.6-2,2.2c0,0,0.4,0,1.2,0c1.3,0,2.1-0.3,2.1-1.3C49.3,3.7,48.5,3.6,48,3.6z M58.8,2.7l-0.7,5.2
	C58,8.5,58,8.9,58,9.1c0,0.5,0.1,0.6,0.1,0.6L56.6,10c0,0-0.1-0.2-0.1-0.6c0-0.4,0.1-0.8,0.1-0.8S56,10,54.2,10S52,9,52,8.1
	c0-1.3,0.5-3.5,0.5-4.5c0-0.5-0.1-0.6-0.1-0.6l1.5-0.2c0,0,0.1,0.2,0.1,0.7c0,0.9-0.5,3.2-0.5,4.3c0,0.5,0.1,1.2,1.2,1.2
	c1.5,0,2-1.6,2-1.6L57.3,3L58.8,2.7z M70.7,9.2c0,0.5,0.1,0.6,0.1,0.6L69.4,10c0,0-0.2-0.2-0.2-0.7c0-0.9,0.5-3.1,0.5-4.3
	c0-0.5-0.1-1.2-1.1-1.2c-1.4,0-1.9,1.6-1.9,1.6s-0.1,0.6-0.1,1L66.2,10h-1.5L65,6.4c0.1-0.5,0.1-1.1,0.1-1.3c0-0.6,0-1.3-1.1-1.3
	c-1.4,0-1.9,1.6-1.9,1.6l-0.6,4.5H60l0.7-5.1c0.1-0.5,0.1-1,0.1-1.2c0-0.5-0.1-0.6-0.1-0.6l1.5-0.2c0,0,0.1,0.2,0.1,0.6
	s-0.1,0.7-0.1,0.7s0.6-1.4,2.3-1.4c2,0,2.1,1.4,2.1,1.4s0.6-1.4,2.5-1.4c1,0,2.1,0.3,2.1,2C71.2,6.2,70.7,8,70.7,9.2z M78.9,2.8
	c0,0-0.6-0.2-2.2-0.2h-1.1v1.9h0.7c1.6,0,2.1-0.2,2.1-0.2v2.1c0,0-0.5-0.2-2.1-0.2h-0.7v1.2c0,2,0.1,2.4,0.1,2.4H73
	c0,0,0.1-0.3,0.1-2.3V3.3c0-2-0.1-2.4-0.1-2.4h5.9V2.8z M85.3,10c0,0-0.2-0.3-0.2-1c-0.2,0.4-0.9,1-2.3,1c-2.3,0-3.1-1.7-3.1-3.6
	c0-2.1,1-3.8,3.6-3.8c1.4,0,2,0.5,2,0.5l1.5-0.5v5.2c0,1.6,0.3,1.9,0.3,1.9L85.3,10z M84.9,4.4c0,0-0.3-0.6-1.4-0.6
	c-1.7,0-1.9,1.4-1.9,2.5c0,1.4,0.4,2.4,1.8,2.4c1.1,0,1.4-0.8,1.4-0.8L84.9,4.4L84.9,4.4z M92.4,10c-1.4,0-2.1-0.5-2.1-0.5L88.9,10
	V2c0-1.4-0.2-1.8-0.2-1.8L90.8,0v3.6c0.1-0.2,0.8-0.9,2.1-0.9c2.3,0,3.1,1.7,3.1,3.6C96,8.4,95,10,92.4,10z M92.2,3.9
	c-1.1,0-1.5,0.8-1.5,0.8v3.6c0,0,0.3,0.6,1.4,0.6c1.7,0,1.9-1.4,1.9-2.5C94.1,5,93.6,3.9,92.2,3.9z M101.8,4.5c0,0-0.3-0.5-1.1-0.5
	c-0.5,0-1,0.2-1.3,0.8v5h-1.9v-5c0-1.6-0.3-1.9-0.3-1.9L99,2.7c0,0,0.2,0.3,0.2,1.1c0.2-0.5,0.7-1.2,1.7-1.2c0.9,0,1.2,0.3,1.2,0.3
	L101.8,4.5z M103.4,10c0,0-0.4-0.3-0.4-1.5l0.1-3.7c0-1.3-0.2-1.8-0.2-1.8l2.1-0.2v5.3c0,1.4,0.5,1.7,0.5,1.7L103.4,10z M104.1,1.6
	c-0.6,0-1.1-0.2-1.1-0.8s0.5-0.8,1.1-0.8s1.1,0.2,1.1,0.8S104.7,1.6,104.1,1.6z M109.8,7c-1,0-1.4-0.1-1.4-0.1c0,1.2,0.8,2,2.2,2
	c1.3,0,1.9-0.7,1.9-0.7l0.6,1.2c0,0-0.7,0.7-2.8,0.7c-2.6,0-3.8-1.5-3.8-3.6c0-2,1.1-3.8,3.5-3.8c2.2,0,3.1,0.9,3.1,2.1
	C113.1,6.1,112.3,7,109.8,7z M110,3.7c-1,0-1.6,0.7-1.6,2.1c0,0,0.3,0.1,1.2,0.1c0.9,0,1.6-0.2,1.6-1.1C111.2,4.4,111.2,3.7,110,3.7
	z M121.2,2.8c0,0-0.4,0.4-1,1l-1.9,2.1c1.1,1,1.8,2.5,2,2.9c0.4,0.8,0.8,0.9,0.8,0.9l-2.4,0.2c-0.6-1.6-1.5-2.9-2.4-3.7v3.7h-1.9V2
	c0-1.4-0.2-1.8-0.2-1.8l2.1-0.2v6.1l1.7-2.2c0.7-0.9,0.8-1.2,0.8-1.2h2.4V2.8z"/>
<g>
	<path class="st0" d="M36.7,20.8l0,0.3h-3.1c-0.4,0-0.6,0-0.6,0l0.1-0.1c0.2-0.3,0.2-0.4,0.2-2.7c0-2.3,0-2.3-0.2-2.7l-0.1-0.1
		c0,0,0.2,0,0.6,0h3c0,0,0,0.2,0,0.6c0,0.4,0,0.6,0,0.6c0,0-0.1-0.1-0.3-0.2c-0.2-0.1-0.5-0.2-0.9-0.2h-0.8v1.6h0.6
		c0.4,0,0.7,0,0.9-0.1c0.2-0.1,0.3-0.2,0.3-0.2c0,0,0,0.2,0,0.8c0,0.5,0,0.7,0,0.8c0,0-0.1-0.1-0.3-0.2c-0.2-0.1-0.5-0.2-0.9-0.2
		h-0.6v1.6h0.8c1,0,1.1-0.2,1.4-0.7C36.8,19.6,36.7,19.9,36.7,20.8z"/>
	<path class="st0" d="M44.8,15.6c-0.2,0.3-0.2,0.4-0.2,2.7v2.8c0,0-0.2,0-0.7,0c-0.5,0-0.9,0-0.9,0l-1.8-3.8
		c-0.1-0.3-0.2-0.6-0.2-0.6v1.6c0,2.3,0,2.3,0.2,2.7l0.1,0.1c0,0-0.2,0-0.8,0c-0.6,0-0.8,0-0.8,0l0.1-0.1c0.1-0.3,0.2-0.4,0.2-2.7
		c0-2.3,0-2.3-0.2-2.7l-0.1-0.1c0,0,0.3,0,1,0c0.6,0,0.9,0,0.9,0l1.8,3.8c0.1,0.3,0.2,0.6,0.2,0.6v-1.6c0-2.3,0-2.3-0.2-2.7
		l-0.1-0.1c0,0,0.2,0,0.8,0c0.6,0,0.8,0,0.8,0L44.8,15.6z"/>
	<path class="st0" d="M49.3,21.1c-1,0-1.5-0.2-1.5-0.2s0-0.2,0-0.6c0-0.5,0-0.8,0-0.8c0.3,0.4,0.7,0.8,1.4,0.8c0.5,0,1-0.1,1-0.6
		c0-0.4-0.3-0.5-0.6-0.7l-0.7-0.4c-0.6-0.3-1.1-0.8-1.1-1.6c0-1.1,0.7-1.6,2-1.6c0.9,0,1.4,0.2,1.4,0.2s0,0.2,0,0.6
		c0,0.5,0,0.7,0,0.7c-0.3-0.5-0.7-0.8-1.3-0.8c-0.5,0-0.8,0.1-0.8,0.6c0,0.4,0.3,0.5,0.7,0.7l0.6,0.3c0.7,0.4,1.1,0.8,1.1,1.7
		C51.5,20.8,50.5,21.1,49.3,21.1z"/>
	<path class="st0" d="M57.1,21.1c-2.1,0-2.8-1.2-2.8-2.8c0-2,1.1-3,2.9-3c1,0,1.5,0.2,1.5,0.2s0,0.2,0,0.7c0,0.4,0,0.7,0,0.7
		c-0.3-0.5-0.6-0.8-1.3-0.8c-1.1,0-1.6,0.9-1.6,2.1c0,1.3,0.5,2,1.5,2c0.7,0,1-0.3,1.4-0.8c0,0,0,0.3,0,0.7c0,0.5,0,0.6,0,0.6
		S58.2,21.1,57.1,21.1z"/>
	<path class="st0" d="M65.8,21.1c-0.7,0-1,0-1,0l0.1-0.1c0.2-0.3,0.2-0.4,0.2-2.3h-1.9c0,2,0,2,0.2,2.3l0.1,0.1c0,0-0.3,0-1,0
		c-0.7,0-1,0-1,0l0.1-0.1c0.2-0.3,0.2-0.4,0.2-2.7c0-2.3,0-2.3-0.2-2.7l-0.1-0.1c0,0,0.3,0,1,0c0.7,0,1,0,1,0l-0.1,0.1
		c-0.1,0.3-0.2,0.3-0.2,2.2h1.9c0-1.8,0-1.9-0.2-2.2l-0.1-0.1c0,0,0.3,0,1,0c0.7,0,1,0,1,0l-0.1,0.1c-0.2,0.3-0.2,0.4-0.2,2.7
		c0,2.3,0,2.3,0.2,2.7l0.1,0.1C66.8,21.1,66.5,21.1,65.8,21.1z"/>
	<path class="st0" d="M73.5,20.8l0,0.3h-3.1c-0.4,0-0.6,0-0.6,0l0.1-0.1c0.2-0.3,0.2-0.4,0.2-2.7c0-2.3,0-2.3-0.2-2.7l-0.1-0.1
		c0,0,0.2,0,0.6,0h3c0,0,0,0.2,0,0.6c0,0.4,0,0.6,0,0.6c0,0-0.1-0.1-0.3-0.2c-0.2-0.1-0.5-0.2-0.9-0.2h-0.8v1.6h0.6
		c0.4,0,0.7,0,0.9-0.1c0.2-0.1,0.3-0.2,0.3-0.2c0,0,0,0.2,0,0.8c0,0.5,0,0.7,0,0.8c0,0-0.1-0.1-0.3-0.2c-0.2-0.1-0.5-0.2-0.9-0.2
		h-0.6v1.6h0.8c1,0,1.1-0.2,1.4-0.7C73.6,19.6,73.6,19.9,73.5,20.8z"/>
	<path class="st0" d="M78.5,21.1c-0.3,0-0.9,0-1.2,0c-0.5,0-0.8,0-0.8,0l0.1-0.1c0.2-0.3,0.2-0.4,0.2-2.7c0-2.3,0-2.3-0.2-2.7
		l-0.1-0.1c0,0,0.3,0,0.8,0c0.3,0,0.9,0,1.2,0c1.3,0,3.2,0.1,3.2,2.7C81.7,21,79.7,21.1,78.5,21.1z M78.6,16.2c-0.3,0-0.4,0-0.4,0
		v4.1c0,0,0.1,0,0.4,0c1.2,0,1.7-0.7,1.7-2.1C80.3,16.9,79.8,16.2,78.6,16.2z"/>
	<path class="st0" d="M88.4,20.8l0,0.3h-3.1c-0.4,0-0.6,0-0.6,0l0.1-0.1c0.2-0.3,0.2-0.4,0.2-2.7c0-2.3,0-2.3-0.2-2.7l-0.1-0.1
		c0,0,0.2,0,0.6,0h3c0,0,0,0.2,0,0.6c0,0.4,0,0.6,0,0.6c0,0-0.1-0.1-0.3-0.2c-0.2-0.1-0.5-0.2-0.9-0.2h-0.8v1.6H87
		c0.4,0,0.7,0,0.9-0.1c0.2-0.1,0.3-0.2,0.3-0.2c0,0,0,0.2,0,0.8c0,0.5,0,0.7,0,0.8c0,0-0.1-0.1-0.3-0.2c-0.2-0.1-0.5-0.2-0.9-0.2
		h-0.6v1.6h0.8c1,0,1.1-0.2,1.4-0.7C88.5,19.6,88.4,19.9,88.4,20.8z"/>
</g>
</svg>
