<?xml version="1.0" encoding="utf-8"?>
<!-- Generator: Adobe Illustrator 24.3.0, SVG Export Plug-In . SVG Version: 6.00 Build 0)  -->
<svg version="1.1" id="Layer_1" xmlns="http://www.w3.org/2000/svg" xmlns:xlink="http://www.w3.org/1999/xlink" x="0px" y="0px"
	 width="329.4px" height="86.1px" viewBox="0 0 329.4 86.1" style="enable-background:new 0 0 329.4 86.1;" xml:space="preserve">
<style type="text/css">
	.st0{fill:#FFFFFF;}
	.st1{fill:#1D1D1B;}
	.st2{fill:#F3AC27;}
</style>
<g>
	<rect class="st0" width="329.4" height="86.1"/>
	<path class="st1" d="M294,51.3c-0.3,1.4-0.5,3.8-0.5,7.3c0,2.4,0.1,4.3,0.3,5.7c0.2,1.4,0.7,2.6,1.5,3.5c0.8,0.9,2.1,1.4,3.8,1.4
		c1.1,0,2.1-0.3,3.2-0.8c1.1-0.6,1.8-1.7,2.1-3.3c0.3-1.7,0.5-4.2,0.5-7.6c0-3.1-0.2-5.3-0.6-6.5c-0.4-1.2-1-2-1.9-2.6
		c-0.9-0.5-1.9-0.8-3.1-0.8c-1.2,0-2.3,0.3-3.3,0.8C295,48.9,294.3,49.9,294,51.3 M304.3,34.4c0.3-1.7,0.5-4.2,0.5-7.7
		c0-3.1-0.2-5.3-0.6-6.5c-0.4-1.2-1.1-2-1.9-2.6c-0.9-0.5-1.9-0.8-3.1-0.8c-1.2,0-2.3,0.3-3.3,0.8c-1,0.6-1.6,1.5-2,2.9
		c-0.3,1.4-0.5,3.8-0.5,7.3c0,2.4,0.1,4.3,0.3,5.7c0.2,1.4,0.7,2.6,1.5,3.5c0.8,0.9,2.1,1.4,3.8,1.4c1.1,0,2.1-0.3,3.2-0.9
		C303.3,37.2,304,36.1,304.3,34.4 M309.5,27.8c0,3.1-1,5.8-3.1,8.2c-2.1,2.4-4.5,3.5-7.2,3.5c-2.9,0-5.3-1.2-7.3-3.6
		c-2-2.4-3-5-3-7.8c0-3.3,1.1-6.1,3.2-8.5c2.1-2.3,4.6-3.5,7.4-3.5c2.6,0,5,1.2,7.1,3.6C308.4,22,309.5,24.7,309.5,27.8 M285.5,69.5
		h-11.2v-0.8h3.6V48h-3.6v-0.8h11.2V48h-3.7v20.6h3.7V69.5z M272.6,27.9v10.2h4.5c2.6,0,4.3-0.5,5.3-1.6c1-1.1,1.6-2.8,1.8-5h0.8
		l-0.2,7.5h-19.8v-0.9h3.5V17.4h-3.5v-0.9h18.9l0.4,6h-0.8c-0.3-1.8-0.9-3.1-1.8-3.9c-0.9-0.8-2.4-1.2-4.5-1.2h-4.7V27h2
		c0.7,0,1.3-0.1,1.8-0.2c0.5-0.1,0.9-0.5,1.3-1.1c0.4-0.6,0.6-1.6,0.7-2.9h0.9v9.5h-0.9c-0.1-1.8-0.4-3-1-3.6
		c-0.6-0.6-1.5-0.9-2.8-0.9H272.6z M261.6,31.8c0,2.2-0.7,4-2.1,5.5c-1.4,1.5-3.2,2.2-5.3,2.2c-1.7,0-3.4-0.6-5.1-1.9l-1.6,1.4h-0.6
		v-6.3h0.7c0.7,2,1.6,3.4,2.7,4.4c1.2,1,2.5,1.5,3.9,1.5c1.4,0,2.7-0.5,3.8-1.4c1.2-0.9,1.7-2.1,1.7-3.5c0-1.2-0.4-2.2-1.2-3
		c-0.8-0.8-2.1-1.4-3.9-1.7c-1.8-0.3-3.2-0.7-4.1-1.1c-1-0.4-1.8-1.1-2.5-2.1c-0.7-1-1-2.1-1-3.3c0-1.7,0.6-3.2,1.8-4.5
		c1.2-1.3,2.8-2,4.9-2c1.7,0,3.3,0.5,4.8,1.6c0.4-0.4,0.8-0.8,1.1-1.4h0.7l0.1,5.8h-0.8c-1.1-3.5-3.1-5.2-5.9-5.2
		c-1.6,0-2.8,0.4-3.6,1.3c-0.9,0.9-1.3,1.8-1.3,2.7c0,0.9,0.4,1.6,1.1,2.2c0.7,0.6,2,1.1,3.9,1.4c1.9,0.3,3.3,0.7,4.3,1.2
		c1,0.5,1.8,1.3,2.5,2.4C261.2,29.1,261.6,30.4,261.6,31.8 M243.7,17.4h-3.5V31c0,2-0.1,3.4-0.4,4.3c-0.3,0.9-0.8,1.7-1.6,2.4
		c-0.8,0.6-1.7,1.1-2.8,1.4c-1.1,0.3-2.2,0.4-3.3,0.4c-2.4,0-4.2-0.4-5.3-1.2c-1.1-0.8-1.8-1.7-2.1-2.8c-0.3-1.1-0.4-2.6-0.4-4.5
		V17.4H221v-0.9h10.6v0.9h-3.5v13.2c0,1.8,0.1,3.2,0.3,4.3c0.2,1,0.6,1.9,1.3,2.6c0.7,0.7,1.9,1,3.5,1c1.3,0,2.4-0.3,3.5-0.8
		c1-0.5,1.7-1.2,2.1-2.1s0.6-2.5,0.6-5V17.4h-3.6v-0.9h8V17.4z M226,46.6c1.5,0,3,0.4,4.4,1.3c0.4,0.3,0.7,0.4,0.9,0.4
		c0.4,0,0.7-0.3,1.1-0.9h0.7l0.2,6.1h-0.8c-0.9-4-3.1-6-6.5-6c-1.8,0-3.1,0.4-3.9,1.2c-0.8,0.8-1.3,1.8-1.5,3
		c-0.2,1.2-0.3,3-0.3,5.2c0,4.1,0.1,6.8,0.4,8.1c0.3,1.3,0.8,2.3,1.7,3c0.8,0.7,1.9,1,3.1,1c1,0,1.8-0.2,2.6-0.6
		c0.8-0.4,1.2-1,1.4-1.8c0.2-0.8,0.3-2,0.3-3.6V62h-3.8v-0.8h11.5V62h-3.2c0,2.9-0.9,4.9-2.7,6.1c-1.8,1.2-3.7,1.9-5.7,1.9
		c-2.9,0-5.3-1.2-7.3-3.5c-1.9-2.3-2.9-5.1-2.9-8.2c0-3.2,1-5.9,3-8.2C220.6,47.8,223,46.6,226,46.6 M217.3,39h-10.5v-0.9h3.4V17.1
		h-0.1L203.5,39h-0.8l-6.6-21.9H196v21.1h3.4V39h-7.6v-0.9h3.3V17.4h-3.3v-0.9h8l4.8,15.8h0.1l4.8-15.8h7.8v0.9H214v20.7h3.3V39z
		 M192.2,47.2h18.9l0.4,6h-0.8c-0.3-1.8-0.9-3.1-1.8-3.9c-0.9-0.8-2.4-1.2-4.5-1.2h-4.7v9.6h2c0.7,0,1.3-0.1,1.8-0.2
		c0.5-0.1,0.9-0.5,1.3-1.1c0.4-0.6,0.6-1.6,0.7-2.9h0.9v9.4h-0.9c-0.1-1.8-0.4-3-1-3.6c-0.6-0.6-1.5-0.9-2.8-0.9h-2v10.2h4.5
		c2.6,0,4.3-0.5,5.3-1.6c1-1.1,1.6-2.7,1.8-5h0.8l-0.2,7.5h-19.7v-0.8h3.5V48h-3.5V47.2z M239.7,47.2h11.2V48h-3.7v20.6h3.7v0.8
		h-11.2v-0.8h3.6V48h-3.6V47.2z M253.7,68.6L266.4,48h-5.2c-1.9,0-3.2,0.4-4,1.2c-0.8,0.8-1.3,2.1-1.6,4h-0.8l0.3-6h15.9v0.6
		l-12.9,20.9h5.4c1.6,0,2.7-0.2,3.5-0.5c0.8-0.3,1.5-1.1,2.1-2.3c0.6-1.2,1-2.5,1.1-3.7h0.8l-0.4,7.3h-17V68.6z M288.8,58.6
		c0-3.3,1.1-6.1,3.2-8.5c2.1-2.3,4.5-3.5,7.3-3.5c2.6,0,5,1.2,7,3.6c2.1,2.4,3.1,5.1,3.1,8.1c0,3.1-1,5.8-3.1,8.2
		c-2.1,2.3-4.5,3.5-7.2,3.5c-2.9,0-5.3-1.2-7.3-3.6C289.8,63.9,288.8,61.4,288.8,58.6"/>
	<path class="st2" d="M145.8,51.4l29.1,12.5c1.4,0.6,2.2,2.1,1.9,3.6c-0.3,1.5-1.6,2.5-3.1,2.5h-47.9c-1.6,0-3-1.2-3.2-2.8
		l-4.2-33.9l-17.2,34.9c-0.6,1.3-2,2-3.4,1.7c-1.4-0.2-2.5-1.4-2.6-2.8l-3.3-31L78.5,68c-0.5,1.2-1.7,2-2.9,2
		c-0.4,0-0.8-0.1-1.2-0.2c-1.6-0.7-2.4-2.5-1.7-4.2l18-43.3c0.6-1.3,2-2.1,3.4-1.9c1.4,0.2,2.6,1.4,2.7,2.8l3.5,32.4L117.3,21
		c0.6-1.3,2-2,3.4-1.7c1.4,0.2,2.5,1.4,2.6,2.7l5.2,41.6h29.6L133.4,53c-1.3-0.6-2.1-1.9-1.9-3.3c0.2-1.4,1.2-2.5,2.6-2.8l28.1-4.9
		l-30-15.4c-1.3-0.6-1.9-2-1.7-3.4c0.3-1.4,1.4-2.4,2.8-2.6l40-4.5c1.7-0.2,3.3,1.1,3.5,2.8c0.2,1.7-1.1,3.3-2.8,3.5l-29.5,3.3
		l29.1,14.9c1.2,0.6,1.9,2,1.7,3.3c-0.2,1.4-1.3,2.4-2.6,2.7L145.8,51.4z"/>
</g>
</svg>
