<?xml version="1.0" encoding="utf-8"?>
<!-- Generator: Adobe Illustrator 24.3.0, SVG Export Plug-In . SVG Version: 6.00 Build 0)  -->
<svg version="1.1" id="Laag_1" xmlns="http://www.w3.org/2000/svg" xmlns:xlink="http://www.w3.org/1999/xlink" x="0px" y="0px"
	 width="318.5px" height="118.2px" viewBox="0 0 318.5 118.2" style="enable-background:new 0 0 318.5 118.2;" xml:space="preserve"
	>
<g>
	<g>
		<path d="M19.8,0.9h4.7L14.2,26.2h-3.8L0,0.9h4.8l7.5,19.4L19.8,0.9z"/>
		<path d="M27.7,4.1V0h4.6v4.1H27.7z M27.8,26.1v-19h4.3v19H27.8z"/>
		<path d="M50.8,7.1h4.5l-7.7,19.1h-3.9L36,7.1h4.6l5.1,14L50.8,7.1z"/>
		<path d="M59,4.1V0h4.6v4.1H59z M59.2,26.1v-19h4.3v19H59.2z"/>
		<path d="M80,4.7V0.9h16.5v3.3l-6.9,7.2c3.8,0.5,7.3,2.4,7.3,7.1c0,4.7-3.6,8-8.7,8c-4.3,0-7.4-1.8-9.5-4.4l3.1-2.9
			c1.8,2.1,3.8,3.3,6.5,3.3c2.5,0,4.3-1.5,4.3-3.9c0-2.5-2.2-3.9-5.7-3.9h-2L84,12l6.7-7.2H80z"/>
		<path d="M117,6.7c-1.7-1.4-3.2-2.2-5.4-2.2c-3.7,0-5.8,3.4-6,8c1.3-1.3,3-2.5,5.9-2.5c4.8,0,8.7,2.9,8.7,8s-4,8.6-9.2,8.6
			c-3.1,0-5.3-1-6.9-2.6c-1.9-1.9-3-4.6-3-9.7c0-7.7,3.6-13.8,10.7-13.8c3.2,0,5.4,1,7.6,2.8L117,6.7z M110.8,13.6
			c-3.1,0-5.1,2-5.1,4.5c0,2.6,2,4.6,5.2,4.6c3.1,0,5-2,5-4.6C115.9,15.5,113.9,13.6,110.8,13.6z"/>
		<path d="M126.4,0.9h14.9v3.9h-11.1l-0.4,5.9c1.2-0.4,2.3-0.7,3.9-0.7c4.9,0,8.6,2.6,8.6,8c0,5.2-3.7,8.6-9.2,8.6
			c-3.8,0-6.8-1.5-9.1-3.9l2.7-3.2c2,1.9,4.1,3,6.4,3c3,0,4.9-1.7,4.9-4.4c0-2.6-2.1-4.2-5.2-4.2c-1.8,0-3.3,0.5-4.6,1.1l-2.6-1.8
			L126.4,0.9z"/>
		<path d="M166.2,31.9c-3.1,0-6-0.8-8.4-2.3l1.6-3.3c2,1.3,4.1,2,6.7,2c3.8,0,5.9-2,5.9-5.8v-1.5c-1.6,2.1-3.5,3.5-6.6,3.5
			c-4.4,0-8.5-3.3-8.5-8.9c0-5.7,4.2-9,8.5-9c3.2,0,5.1,1.5,6.6,3.2V7.1h4.3v15.1C176.3,28.9,172.7,31.9,166.2,31.9z M166.6,10.3
			c-3,0-5.3,2.1-5.3,5.3s2.4,5.3,5.3,5.3c3,0,5.5-2.1,5.5-5.3C172.1,12.4,169.6,10.3,166.6,10.3z"/>
		<path d="M181.8,4.1V0h4.6v4.1H181.8z M182,26.1v-19h4.3v19H182z"/>
		<path d="M200.8,26.5c-5.7,0-10-4.4-10-9.9c0-5.5,4.3-10,10-10s10,4.4,10,9.9C210.9,22,206.6,26.5,200.8,26.5z M200.8,10.5
			c-3.5,0-5.7,2.7-5.7,6.1c0,3.4,2.4,6.2,5.7,6.2c3.5,0,5.7-2.7,5.7-6.1C206.6,13.2,204.2,10.5,200.8,10.5z"/>
		<path d="M219.5,26.1h-4.3v-19h4.3v4.3c1.2-2.8,3.3-4.8,6.7-4.6v4.6H226c-3.8,0-6.4,2.5-6.4,7.5V26.1z"/>
		<path d="M234.2,26.1h-4.3v-19h4.3v3c1.2-1.8,3-3.3,5.9-3.3c4.2,0,6.7,2.9,6.7,7.3v12.1h-4.3V15.3c0-3-1.5-4.6-4-4.6
			c-2.5,0-4.2,1.8-4.2,4.7V26.1z"/>
		<path d="M252.1,4.1V0h4.6v4.1H252.1z M252.2,26.1v-19h4.3v19H252.2z"/>
		<path d="M15.8,69.3v-3.2c-1.4,2-3.3,3.6-6.4,3.6c-4.4,0-8.7-3.6-8.7-9.9c0-6.3,4.2-9.9,8.7-9.9c3.1,0,5.1,1.6,6.4,3.3V43h4.3v26.3
			H15.8z M10.4,53.6c-3,0-5.4,2.3-5.4,6.1c0,3.7,2.5,6.1,5.4,6.1c2.9,0,5.4-2.4,5.4-6.1S13.3,53.6,10.4,53.6z"/>
		<path d="M25.5,47.3v-4.1h4.6v4.1H25.5z M25.7,69.3v-19H30v19H25.7z"/>
		<path d="M52.7,69.6c-2.7,0-5.6-1-8-2.8l1.9-3c2,1.5,4.2,2.3,6.2,2.3c1.8,0,2.9-0.8,2.9-2.1V64c0-1.5-2-2-4.2-2.7
			c-2.8-0.8-5.9-1.9-5.9-5.6v-0.1c0-3.6,3-5.8,6.7-5.8c2.3,0,4.9,0.8,6.9,2.2l-1.7,3.1c-1.8-1.1-3.7-1.8-5.3-1.8
			c-1.7,0-2.6,0.8-2.6,1.9v0.1c0,1.4,2,1.9,4.2,2.7c2.7,0.9,5.8,2.1,5.8,5.5v0.1C59.7,67.6,56.7,69.6,52.7,69.6z"/>
		<path d="M72.8,69.7c-5.6,0-9.7-4.4-9.7-9.9c0-5.4,4.1-10,9.7-10c3.6,0,5.8,1.3,7.5,3.3l-2.7,2.9c-1.3-1.4-2.7-2.4-4.9-2.4
			c-3.1,0-5.4,2.7-5.4,6.1c0,3.4,2.3,6.2,5.6,6.2c2,0,3.5-1,4.9-2.4l2.6,2.6C78.6,68.2,76.4,69.7,72.8,69.7z"/>
		<path d="M92.8,69.7c-5.7,0-10-4.4-10-9.9c0-5.5,4.3-10,10-10c5.8,0,10,4.4,10,9.9C102.9,65.2,98.6,69.7,92.8,69.7z M92.8,53.7
			c-3.5,0-5.7,2.7-5.7,6.1c0,3.4,2.4,6.2,5.7,6.2c3.5,0,5.7-2.7,5.7-6.1C98.6,56.4,96.2,53.7,92.8,53.7z"/>
		<path d="M117.9,69.7c-3.1,0-5.1-1.6-6.4-3.3V75h-4.3V50.3h4.3v3.2c1.4-2,3.3-3.6,6.4-3.6c4.4,0,8.8,3.6,8.8,9.9
			C126.7,66.1,122.4,69.7,117.9,69.7z M116.9,53.6c-2.9,0-5.5,2.4-5.5,6.1s2.6,6.1,5.5,6.1c3,0,5.4-2.3,5.4-6.1
			C122.3,56,119.8,53.6,116.9,53.6z"/>
		<path d="M139.7,66.1c2.1,0,3.6-0.8,5.1-2.3l2.5,2.3c-1.8,2.2-4.2,3.6-7.7,3.6c-5.4,0-9.6-4-9.6-9.9c0-5.5,3.8-9.9,9.2-9.9
			c6,0,9,4.8,9,10.3c0,0.4,0,0.8-0.1,1.2h-13.8C134.8,64.4,137,66.1,139.7,66.1z M143.9,58.4c-0.3-2.8-1.9-5-4.8-5
			c-2.6,0-4.5,2.1-4.9,5H143.9z"/>
		<path d="M156.8,69.3h-4.3v-19h4.3v4.3c1.2-2.8,3.3-4.8,6.7-4.6v4.6h-0.2c-3.8,0-6.4,2.5-6.4,7.5V69.3z"/>
		<path d="M172.4,63.3c0,1.7,0.9,2.4,2.3,2.4c1,0,1.8-0.2,2.7-0.6v3.6c-1.1,0.6-2.3,1-3.9,1c-3.2,0-5.4-1.4-5.4-5.6V54h-2.4v-3.7
			h2.4V45h4.3v5.2h5.1V54h-5.1V63.3z"/>
		<path d="M193.3,69.3v-2.3c-1.3,1.5-3.2,2.7-6.1,2.7c-3.6,0-6.7-2.1-6.7-5.9v-0.1c0-4.1,3.2-6.1,7.6-6.1c2.3,0,3.7,0.3,5.2,0.8
			v-0.5c0-2.6-1.6-4.1-4.6-4.1c-2.1,0-3.7,0.5-5.4,1.2l-1.2-3.5c2.1-0.9,4.1-1.6,7.1-1.6c5.5,0,8.3,3,8.3,8v11.3H193.3z M193.4,61.2
			c-1.1-0.4-2.6-0.8-4.3-0.8c-2.7,0-4.3,1.1-4.3,3.1v0.1c0,1.8,1.6,2.8,3.6,2.8c2.8,0,5-1.6,5-4V61.2z"/>
		<path d="M204.2,69.3h-1.8v-4.9h4.7v4.2c0,4-1.9,5.7-5.5,6l-0.5-1.8C203.4,72.2,204.4,71.1,204.2,69.3z"/>
		<path d="M5.9,112.5H1.6v-19h4.3v4.3c1.2-2.8,3.3-4.8,6.7-4.6v4.6h-0.2c-3.8,0-6.4,2.5-6.4,7.5V112.5z"/>
		<path d="M16.4,90.5v-4.1H21v4.1H16.4z M16.6,112.5v-19h4.3v19H16.6z"/>
		<path d="M35.2,112.9c-5.6,0-9.7-4.4-9.7-9.9c0-5.4,4.1-10,9.7-10c3.6,0,5.8,1.3,7.5,3.3L40,99.2c-1.3-1.4-2.7-2.4-4.9-2.4
			c-3.1,0-5.4,2.7-5.4,6.1c0,3.4,2.3,6.2,5.6,6.2c2,0,3.5-1,4.9-2.4l2.6,2.6C41,111.4,38.8,112.9,35.2,112.9z"/>
		<path d="M55,109.3c2.1,0,3.6-0.8,5.1-2.3l2.5,2.3c-1.8,2.2-4.2,3.6-7.7,3.6c-5.4,0-9.6-4-9.6-9.9c0-5.5,3.8-9.9,9.2-9.9
			c6,0,9,4.8,9,10.3c0,0.4,0,0.8-0.1,1.2H49.5C50,107.6,52.2,109.3,55,109.3z M59.1,101.6c-0.3-2.8-1.9-5-4.8-5
			c-2.6,0-4.5,2.1-4.9,5H59.1z"/>
		<path d="M72.1,112.5h-4.3v-19h4.3v4.3c1.2-2.8,3.3-4.8,6.7-4.6v4.6h-0.2c-3.8,0-6.4,2.5-6.4,7.5V112.5z"/>
		<path d="M90.5,112.9c-5.6,0-9.7-4.4-9.7-9.9c0-5.4,4.1-10,9.7-10c3.6,0,5.8,1.3,7.5,3.3l-2.7,2.9c-1.3-1.4-2.7-2.4-4.9-2.4
			c-3.1,0-5.4,2.7-5.4,6.1c0,3.4,2.3,6.2,5.6,6.2c2,0,3.5-1,4.9-2.4l2.6,2.6C96.3,111.4,94.1,112.9,90.5,112.9z"/>
		<path d="M113.6,112.5v-2.3c-1.3,1.5-3.2,2.7-6.1,2.7c-3.6,0-6.7-2.1-6.7-5.9v-0.1c0-4.1,3.2-6.1,7.6-6.1c2.3,0,3.7,0.3,5.2,0.8
			v-0.5c0-2.6-1.6-4.1-4.6-4.1c-2.1,0-3.7,0.5-5.4,1.2l-1.2-3.5c2.1-0.9,4.1-1.6,7.1-1.6c5.5,0,8.3,3,8.3,8v11.3H113.6z
			 M113.7,104.4c-1.1-0.4-2.6-0.8-4.3-0.8c-2.7,0-4.3,1.1-4.3,3.1v0.1c0,1.8,1.6,2.8,3.6,2.8c2.8,0,5-1.6,5-4V104.4z"/>
		<path d="M142.3,109.3c2.1,0,3.6-0.8,5.1-2.3l2.5,2.3c-1.8,2.2-4.2,3.6-7.7,3.6c-5.4,0-9.6-4-9.6-9.9c0-5.5,3.8-9.9,9.2-9.9
			c6,0,9,4.8,9,10.3c0,0.4,0,0.8-0.1,1.2h-13.8C137.4,107.6,139.6,109.3,142.3,109.3z M146.5,101.6c-0.3-2.8-1.9-5-4.8-5
			c-2.6,0-4.5,2.1-4.9,5H146.5z"/>
		<path d="M176.5,112.9c-3.1,0-5.1-1.6-6.4-3.3v8.7h-4.3V93.5h4.3v3.2c1.4-2,3.3-3.6,6.4-3.6c4.4,0,8.8,3.6,8.8,9.9
			C185.2,109.3,181,112.9,176.5,112.9z M175.5,96.8c-2.9,0-5.5,2.4-5.5,6.1s2.6,6.1,5.5,6.1c3,0,5.4-2.3,5.4-6.1
			C180.9,99.2,178.4,96.8,175.5,96.8z"/>
		<path d="M201.1,112.5v-2.3c-1.3,1.5-3.2,2.7-6.1,2.7c-3.6,0-6.7-2.1-6.7-5.9v-0.1c0-4.1,3.2-6.1,7.6-6.1c2.3,0,3.7,0.3,5.2,0.8
			v-0.5c0-2.6-1.6-4.1-4.6-4.1c-2.1,0-3.7,0.5-5.4,1.2l-1.2-3.5c2.1-0.9,4.1-1.6,7.1-1.6c5.5,0,8.3,3,8.3,8v11.3H201.1z
			 M201.2,104.4c-1.1-0.4-2.6-0.8-4.3-0.8c-2.7,0-4.3,1.1-4.3,3.1v0.1c0,1.8,1.6,2.8,3.6,2.8c2.8,0,5-1.6,5-4V104.4z"/>
		<path d="M217,112.8c-2.7,0-5.6-1-8-2.8l1.9-3c2,1.5,4.2,2.3,6.2,2.3c1.8,0,2.9-0.8,2.9-2.1v-0.1c0-1.5-2-2-4.2-2.7
			c-2.8-0.8-5.9-1.9-5.9-5.6v-0.1c0-3.6,3-5.8,6.7-5.8c2.3,0,4.9,0.8,6.9,2.2l-1.7,3.1c-1.8-1.1-3.7-1.8-5.3-1.8
			c-1.7,0-2.6,0.8-2.6,1.9v0.1c0,1.4,2,1.9,4.2,2.7c2.7,0.9,5.8,2.1,5.8,5.5v0.1C223.9,110.8,220.9,112.8,217,112.8z"/>
		<path d="M234.4,112.8c-2.7,0-5.6-1-8-2.8l1.9-3c2,1.5,4.2,2.3,6.2,2.3c1.8,0,2.9-0.8,2.9-2.1v-0.1c0-1.5-2-2-4.2-2.7
			c-2.8-0.8-5.9-1.9-5.9-5.6v-0.1c0-3.6,3-5.8,6.7-5.8c2.3,0,4.9,0.8,6.9,2.2l-1.7,3.1c-1.8-1.1-3.7-1.8-5.3-1.8
			c-1.7,0-2.6,0.8-2.6,1.9v0.1c0,1.4,2,1.9,4.2,2.7c2.7,0.9,5.8,2.1,5.8,5.5v0.1C241.4,110.8,238.3,112.8,234.4,112.8z"/>
		<path d="M245.8,90.5v-4.1h4.6v4.1H245.8z M246,112.5v-19h4.3v19H246z"/>
		<path d="M264.8,112.9c-5.7,0-10-4.4-10-9.9c0-5.5,4.3-10,10-10c5.8,0,10,4.4,10,9.9C274.9,108.4,270.6,112.9,264.8,112.9z
			 M264.8,96.9c-3.5,0-5.7,2.7-5.7,6.1c0,3.4,2.4,6.2,5.7,6.2c3.5,0,5.7-2.7,5.7-6.1C270.6,99.6,268.2,96.9,264.8,96.9z"/>
		<path d="M283.6,112.5h-4.3v-19h4.3v3c1.2-1.8,3-3.3,5.9-3.3c4.2,0,6.7,2.9,6.7,7.3v12.1h-4.3v-10.8c0-3-1.5-4.6-4-4.6
			c-2.5,0-4.2,1.8-4.2,4.7V112.5z"/>
		<path d="M310,109.3c2.1,0,3.6-0.8,5.1-2.3l2.5,2.3c-1.8,2.2-4.2,3.6-7.7,3.6c-5.4,0-9.6-4-9.6-9.9c0-5.5,3.8-9.9,9.2-9.9
			c6,0,9,4.8,9,10.3c0,0.4,0,0.8-0.1,1.2h-13.8C305.1,107.6,307.2,109.3,310,109.3z M314.2,101.6c-0.3-2.8-1.9-5-4.8-5
			c-2.6,0-4.5,2.1-4.9,5H314.2z"/>
	</g>
</g>
</svg>
