<?xml version="1.0" encoding="utf-8"?>
<!-- Generator: Adobe Illustrator 24.3.0, SVG Export Plug-In . SVG Version: 6.00 Build 0)  -->
<svg version="1.1" id="Laag_1" xmlns="http://www.w3.org/2000/svg" xmlns:xlink="http://www.w3.org/1999/xlink" x="0px" y="0px"
	 width="325.3px" height="100.2px" viewBox="0 0 325.3 100.2" style="enable-background:new 0 0 325.3 100.2;" xml:space="preserve"
	>
<style type="text/css">
	.st0{fill:#1D1D1B;}
	.st1{fill:#E30613;}
</style>
<g>
	<g>
		<path class="st0" d="M32,100.2c-6.4,0-14.2-1.3-19.8-7v5.4H0V0h13v45.9c5.6-5.6,13.2-6.8,19.1-6.8c15.3,0,25.6,11.9,25.6,30.2
			C57.7,87,46.4,100.2,32,100.2z M29,50.9c-9.8,0-16.7,7.4-16.7,18.6c0,11.8,6.8,19.4,16.9,19.4c10,0,15.7-8.3,15.7-20.1
			C44.9,57.9,38.2,50.9,29,50.9z"/>
	</g>
	<g>
		<path class="st1" d="M104.3,100.1c-19.8,0-32-12.5-32-30.8c0-18.3,11.9-31,32-31c19.2,0,31.8,12,31.8,31
			C136.2,87.6,123.8,100.1,104.3,100.1z M104.3,49c-10.9,0-18.8,7.9-18.8,20.2c0,12.3,7.9,20.2,18.9,20.2c10.7,0,18.6-8,18.6-20.2
			C123,56.9,115.1,49,104.3,49z"/>
		<path class="st1" d="M183.1,100.1c-19.8,0-32-12.5-32-30.8c0-18.3,11.9-31,32-31c19.2,0,31.8,12,31.8,31
			C214.9,87.6,202.5,100.1,183.1,100.1z M183.1,49c-10.9,0-18.8,7.9-18.8,20.2c0,12.3,7.9,20.2,18.9,20.2c10.7,0,18.6-8,18.6-20.2
			C201.7,56.9,193.8,49,183.1,49z"/>
	</g>
	<g>
		<path class="st0" d="M312.2,98.5V62.1c0-7.3-4.8-11.4-12.5-11.4c-8.4,0-13.5,5.5-13.5,13.8v34.1H274V63.2c0-8-3.6-12.5-11.2-12.5
			c-8.5,0-14.7,4.1-14.7,14.5v33.4h-13V39.9h13v6.6c5.9-7.1,16.4-7.9,19.4-7.9c7.8,0,13.4,3,16.6,8.7c4.1-5.5,12.5-8.7,20.2-8.7
			c12.8,0,20.9,7,20.9,20.8v39.1H312.2z"/>
	</g>
</g>
</svg>
