<?xml version="1.0" encoding="utf-8"?>
<!-- Generator: Adobe Illustrator 24.3.0, SVG Export Plug-In . SVG Version: 6.00 Build 0)  -->
<svg version="1.1" id="Laag_1" xmlns="http://www.w3.org/2000/svg" xmlns:xlink="http://www.w3.org/1999/xlink" x="0px" y="0px"
	 width="92.1px" height="18.9px" viewBox="0 0 92.1 18.9" style="enable-background:new 0 0 92.1 18.9;" xml:space="preserve">
<style type="text/css">
	.st0{fill:#5F3A4E;}
</style>
<g>
	<g>
		<path class="st0" d="M7.1,7.3l-3.3,3.4l3.3,4.8H5.4l-2.6-3.8L1.6,13v2.6H0.2V3.9h1.4V11h0.1l3.5-3.6L7.1,7.3L7.1,7.3z"/>
		<path class="st0" d="M11.8,15.7c-1.2,0-2.2-0.4-3-1.2s-1.2-1.8-1.2-3.1c0-1.2,0.4-2.2,1.2-3s1.8-1.2,3-1.2s2.2,0.4,3,1.2
			s1.2,1.8,1.2,3s-0.4,2.3-1.2,3.1S13,15.7,11.8,15.7z M11.8,14.4c0.8,0,1.4-0.3,2-0.9c0.5-0.6,0.8-1.3,0.8-2.1s-0.3-1.5-0.8-2.1
			s-1.2-0.9-1.9-0.9c-0.8,0-1.4,0.3-1.9,0.9c-0.5,0.6-0.7,1.3-0.7,2.1s0.2,1.5,0.7,2.1C10.3,14.1,11,14.4,11.8,14.4z"/>
		<path class="st0" d="M21.4,15.7c-1.2,0-2.2-0.4-3-1.2s-1.2-1.8-1.2-3.1c0-1.2,0.4-2.2,1.2-3c0.8-0.8,1.8-1.2,3-1.2s2.2,0.4,3,1.2
			s1.2,1.8,1.2,3s-0.4,2.3-1.2,3.1C23.6,15.3,22.6,15.7,21.4,15.7z M21.4,14.4c0.8,0,1.4-0.3,2-0.9c0.5-0.6,0.8-1.3,0.8-2.1
			s-0.3-1.5-0.8-2.1s-1.2-0.9-1.9-0.9c-0.8,0-1.4,0.3-1.9,0.9c-0.5,0.6-0.7,1.3-0.7,2.1s0.2,1.5,0.7,2.1
			C19.9,14.1,20.6,14.4,21.4,14.4z"/>
		<path class="st0" d="M31.2,7.2c1.1,0,2,0.4,2.7,1.2s1.1,1.8,1.1,3.1s-0.4,2.3-1.1,3.1c-0.7,0.8-1.6,1.2-2.7,1.2
			c-1.2,0-2.1-0.5-2.6-1.4v4.5h-1.4V7.3h1.1l0.2,1.2h0.2C29.2,7.6,30.1,7.2,31.2,7.2z M31,14.4c0.7,0,1.3-0.3,1.8-0.8
			c0.5-0.6,0.7-1.3,0.7-2.1s-0.2-1.6-0.7-2.1c-0.5-0.6-1.1-0.8-1.8-0.8c-0.7,0-1.3,0.3-1.8,0.8s-0.7,1.3-0.7,2.1
			c0,0.9,0.2,1.6,0.7,2.1S30.3,14.4,31,14.4z"/>
		<path class="st0" d="M45.6,15.3c-0.4,0.3-0.8,0.4-1.3,0.4c-1.3,0-2-0.7-2-2.2v-5h-1.6v-1h0.5c0.8,0,1.3-0.4,1.3-1.1v-1h1.3v2.1h2
			v1.2h-2v4.8c0,0.7,0.3,1,0.8,1c0.3,0,0.5-0.1,0.7-0.2L45.6,15.3z"/>
		<path class="st0" d="M48.6,5.8C48.4,6,48.2,6,47.9,6s-0.5-0.1-0.7-0.3C47,5.5,46.9,5.3,46.9,5s0.1-0.5,0.3-0.7S47.6,4,47.9,4
			s0.5,0.1,0.7,0.3s0.3,0.4,0.3,0.7S48.8,5.6,48.6,5.8z M48.6,7.3v8.2h-1.5V7.3H48.6z"/>
		<path class="st0" d="M58.3,12.7c-0.1,0.9-0.5,1.6-1.2,2.1c-0.7,0.6-1.5,0.8-2.5,0.8c-1.3,0-2.3-0.4-3-1.2s-1.1-1.8-1.1-3.1
			c0-1.2,0.4-2.2,1.2-3s1.7-1.2,2.9-1.2c1,0,1.9,0.3,2.5,0.9c0.7,0.6,1.1,1.3,1.2,2.2h-1.4c-0.1-0.5-0.3-1-0.7-1.3s-0.9-0.5-1.6-0.5
			c-0.8,0-1.4,0.3-1.9,0.8c-0.5,0.6-0.7,1.3-0.7,2.1c0,0.9,0.2,1.6,0.7,2.2c0.4,0.6,1.1,0.8,2,0.8c0.6,0,1.1-0.2,1.5-0.5
			s0.7-0.7,0.8-1.2h1.3V12.7z"/>
		<path class="st0" d="M66.9,7.3l-3.3,3.4l3.3,4.8h-1.7l-2.6-3.8L61.5,13v2.6H60V3.9h1.4V11h0.1L65,7.4L66.9,7.3L66.9,7.3z"/>
		<path class="st0" d="M71.4,7.2c1.2,0,2.1,0.4,2.8,1.2s1,1.9,0.9,3.4h-6.2c0.1,0.8,0.3,1.5,0.7,2s1.1,0.7,1.9,0.7
			c0.5,0,0.9-0.1,1.3-0.3s0.7-0.5,0.9-1h1.4c-0.2,0.8-0.6,1.4-1.3,1.9c-0.7,0.4-1.4,0.7-2.3,0.7c-1.2,0-2.2-0.4-2.9-1.2
			s-1.1-1.8-1.1-3.1c0-1.2,0.4-2.2,1.1-3C69.3,7.6,70.3,7.2,71.4,7.2z M68.9,10.6h4.8c0-0.6-0.2-1.2-0.7-1.6c-0.4-0.4-1-0.7-1.7-0.7
			s-1.2,0.2-1.7,0.6C69.3,9.4,69.1,9.9,68.9,10.6z"/>
		<path class="st0" d="M81,15.3c-0.4,0.3-0.8,0.4-1.3,0.4c-1.3,0-2-0.7-2-2.2v-5H76v-1h0.5c0.8,0,1.3-0.4,1.3-1.1v-1H79v2.1h2v1.2
			h-2v4.8c0,0.7,0.3,1,0.8,1c0.3,0,0.5-0.1,0.7-0.2L81,15.3z"/>
		<path class="st0" d="M88.3,13.4c0,0.7-0.3,1.3-0.8,1.7s-1.3,0.6-2.1,0.6c-1,0-1.8-0.3-2.3-0.8c-0.6-0.5-0.9-1.2-0.9-2h1.4
			c0,0.5,0.2,1,0.6,1.2s0.8,0.4,1.3,0.4c0.4,0,0.8-0.1,1.1-0.3c0.3-0.2,0.4-0.5,0.4-0.8c0-0.4-0.2-0.7-0.5-0.9s-0.8-0.4-1.4-0.6
			c-0.3-0.1-0.7-0.2-0.9-0.3s-0.5-0.3-0.8-0.5s-0.5-0.4-0.6-0.7s-0.2-0.6-0.2-0.9c0-0.7,0.3-1.3,0.8-1.7c0.5-0.4,1.2-0.6,2-0.6
			c0.9,0,1.6,0.2,2.1,0.7s0.8,1.1,0.8,1.7h-1.4c0-0.4-0.2-0.7-0.5-0.9s-0.7-0.4-1.1-0.4s-0.7,0.1-0.9,0.3C84.1,8.8,84,9.1,84,9.4
			s0.1,0.6,0.4,0.8s0.7,0.4,1.3,0.6c0.9,0.3,1.6,0.6,2,1C88.1,12.2,88.3,12.7,88.3,13.4z"/>
	</g>
	<rect y="18.2" class="st0" width="26.3" height="0.7"/>
	<rect x="29.9" y="18.2" class="st0" width="59.1" height="0.7"/>
</g>
</svg>
