<?xml version="1.0" encoding="utf-8"?>
<!-- Generator: Adobe Illustrator 24.0.0, SVG Export Plug-In . SVG Version: 6.00 Build 0)  -->
<svg version="1.1" id="Laag_1" xmlns="http://www.w3.org/2000/svg" xmlns:xlink="http://www.w3.org/1999/xlink" x="0px" y="0px"
	 width="122.7px" height="44.1px" viewBox="0 0 122.7 44.1" style="enable-background:new 0 0 122.7 44.1;" xml:space="preserve">
<style type="text/css">
	.st0{fill:#FFFFFF;}
</style>
<g>
	<path class="st0" d="M12.7,19.2c1.1-0.8,1.7-2.1,1.7-3.7c0-1.2-0.3-2.2-1-2.9c-0.7-0.7-1.5-1.2-2.5-1.5v-0.2
		c1.7-0.6,2.6-1.9,2.6-3.7c0-1.4-0.5-2.6-1.6-3.3c-1.1-0.8-2.4-1.2-4-1.2H1.5v17.8h7C10.1,20.5,11.6,20.1,12.7,19.2z M4.8,5.6h2.9
		c0.7,0,1.3,0.2,1.7,0.6c0.4,0.4,0.7,0.9,0.7,1.5c0,0.7-0.2,1.2-0.6,1.6c-0.4,0.4-1,0.6-1.8,0.6H4.8V5.6z M4.8,17.5v-4.9h3.1
		c0.9,0,1.7,0.2,2.2,0.7c0.5,0.5,0.8,1.1,0.8,1.8c0,0.7-0.3,1.3-0.8,1.7s-1.3,0.6-2.3,0.6H4.8z"/>
	<path class="st0" d="M29.3,14.1c0-2-0.6-3.5-1.9-4.8c-1.3-1.2-2.9-1.8-4.8-1.8c-1.9,0-3.5,0.6-4.8,1.9c-1.3,1.2-1.9,2.8-1.9,4.8
		s0.6,3.5,1.9,4.8c1.3,1.2,2.9,1.9,4.8,1.9c1.9,0,3.5-0.6,4.8-1.9C28.6,17.6,29.3,16,29.3,14.1z M25,16.7c-0.6,0.7-1.4,1.1-2.4,1.1
		c-1,0-1.8-0.4-2.5-1.1c-0.6-0.7-1-1.6-1-2.6c0-1.1,0.3-1.9,1-2.6c0.6-0.7,1.5-1.1,2.5-1.1c1,0,1.8,0.4,2.4,1.1s0.9,1.6,0.9,2.6
		C26,15.2,25.6,16,25,16.7z"/>
	<path class="st0" d="M38.7,17.5c-0.4,0.2-0.8,0.4-1.2,0.4c-0.8,0-1.2-0.5-1.2-1.5v-6h3.2V7.7h-3.2V4.5h-3v1.7c0,0.6-0.2,1-0.5,1.3
		C32.5,7.8,32,8,31.3,8h-0.8v2.4H33v6.3c0,2.7,1.3,4.1,3.9,4.1c0.9,0,1.7-0.2,2.5-0.7L38.7,17.5z"/>
	<path class="st0" d="M46.5,12.8c-3.8,0.3-5.7,1.7-5.7,4.3c0,1.2,0.4,2.1,1.2,2.7c0.8,0.6,1.9,1,3.3,1c1.9,0,3.4-0.6,4.4-1.9
		c0.4,1.1,1.3,1.7,2.8,1.7h0.6v-2.7c-0.4,0-0.6-0.1-0.8-0.3c-0.2-0.2-0.2-0.5-0.2-0.9v-3.9c0-1.7-0.5-3-1.5-3.9s-2.3-1.4-3.8-1.4
		c-1.6,0-2.8,0.4-3.8,1.3c-1,0.8-1.5,1.9-1.6,3.3h3.1c0.1-0.5,0.3-1,0.6-1.4c0.4-0.4,0.9-0.6,1.6-0.6c0.6,0,1.2,0.2,1.5,0.6
		c0.4,0.4,0.6,1,0.6,1.7v0.3L46.5,12.8z M48.9,15.1c0,0.9-0.3,1.6-0.9,2.2c-0.6,0.5-1.3,0.8-2.2,0.8c-0.5,0-0.9-0.1-1.2-0.3
		c-0.3-0.2-0.5-0.5-0.5-1c0-1,1-1.6,3.1-1.8l1.6-0.1V15.1z"/>
	<path class="st0" d="M62.9,11.4c0.5,0.6,0.8,1.4,0.8,2.5v6.7h3.4v-7.2c0-1.8-0.5-3.3-1.4-4.3c-0.9-1-2.1-1.5-3.6-1.5
		c-0.7,0-1.4,0.1-1.9,0.3c-0.6,0.2-1,0.4-1.2,0.6s-0.5,0.5-0.8,0.8h-0.3l-0.4-1.6h-2.7v12.7h3.5v-6.7c0-1.1,0.3-1.9,0.8-2.4
		c0.5-0.5,1.2-0.8,1.9-0.8C61.7,10.5,62.4,10.8,62.9,11.4z"/>
	<path class="st0" d="M71.4,2.1c-0.6,0-1.1,0.2-1.5,0.6c-0.4,0.4-0.6,0.9-0.6,1.5c0,0.5,0.2,1,0.6,1.4c0.4,0.4,0.9,0.6,1.5,0.6
		c0.6,0,1-0.2,1.5-0.6c0.4-0.4,0.6-0.9,0.6-1.5c0-0.6-0.2-1.1-0.6-1.5C72.5,2.3,72,2.1,71.4,2.1z"/>
	<rect x="69.8" y="7.7" class="st0" width="3.3" height="12.7"/>
	<path class="st0" d="M86,19.4c1.1-0.9,1.8-2,1.9-3.4h-3.4c-0.2,0.6-0.5,1-1,1.4c-0.5,0.3-1.1,0.5-1.8,0.5c-1,0-1.8-0.3-2.4-1
		s-0.9-1.6-0.9-2.7c0-1.1,0.3-2.1,0.9-2.7s1.4-1,2.3-1c0.8,0,1.4,0.2,1.9,0.6c0.5,0.4,0.8,0.9,0.9,1.5h3.3C87.8,11,87.1,9.8,86,8.9
		c-1.1-0.9-2.5-1.4-4.1-1.4c-1.9,0-3.4,0.6-4.7,1.9c-1.3,1.3-1.9,2.9-1.9,4.8s0.6,3.5,1.8,4.7c1.2,1.2,2.8,1.9,4.8,1.9
		C83.5,20.7,84.9,20.3,86,19.4z"/>
	<path class="st0" d="M95.2,12.8c-3.8,0.3-5.7,1.7-5.7,4.3c0,1.2,0.4,2.1,1.2,2.7c0.8,0.6,1.9,1,3.3,1c1.9,0,3.4-0.6,4.4-1.9
		c0.4,1.1,1.3,1.7,2.8,1.7h0.6v-2.7c-0.4,0-0.6-0.1-0.8-0.3c-0.2-0.2-0.2-0.5-0.2-0.9v-3.9c0-1.7-0.5-3-1.5-3.9S97,7.5,95.4,7.5
		c-1.6,0-2.8,0.4-3.8,1.3c-1,0.8-1.5,1.9-1.6,3.3h3.1c0.1-0.5,0.3-1,0.7-1.4c0.4-0.4,0.9-0.6,1.6-0.6c0.6,0,1.2,0.2,1.5,0.6
		c0.4,0.4,0.6,1,0.6,1.7v0.3L95.2,12.8z M97.5,15.1c0,0.9-0.3,1.6-0.9,2.2c-0.6,0.5-1.3,0.8-2.2,0.8c-0.5,0-0.9-0.1-1.2-0.3
		s-0.5-0.5-0.5-1c0-1,1-1.6,3.1-1.8l1.6-0.1V15.1z"/>
	<rect x="103.5" y="2.4" class="st0" width="3.4" height="18.1"/>
	<polygon class="st0" points="16.8,37 16.5,37 13.6,24.9 9.3,24.9 6.3,37 6.1,37 3.7,23.6 0.3,23.6 3.7,41.5 8.4,41.5 11.3,29.8 
		11.6,29.8 14.4,41.5 19.2,41.5 22.5,23.6 19.2,23.6 	"/>
	<path class="st0" d="M34.8,37.7v-3.9c0-1.7-0.5-3-1.5-3.9c-1-0.9-2.3-1.4-3.8-1.4c-1.6,0-2.8,0.4-3.8,1.3c-1,0.8-1.5,1.9-1.6,3.3
		h3.1c0.1-0.5,0.3-1,0.6-1.4c0.4-0.4,0.9-0.6,1.6-0.6c0.6,0,1.2,0.2,1.5,0.6c0.4,0.4,0.6,1,0.6,1.7v0.3l-2.4,0.2
		c-3.8,0.3-5.7,1.7-5.7,4.3c0,1.2,0.4,2.1,1.2,2.7c0.8,0.6,1.9,1,3.3,1c1.9,0,3.4-0.6,4.4-1.9c0.4,1.1,1.3,1.7,2.8,1.7h0.6v-2.7
		c-0.4,0-0.6-0.1-0.8-0.3C34.9,38.4,34.8,38.1,34.8,37.7z M31.6,36.1c0,0.9-0.3,1.6-0.9,2.2c-0.6,0.5-1.3,0.8-2.2,0.8
		c-0.5,0-0.9-0.1-1.2-0.3c-0.3-0.2-0.5-0.5-0.5-1c0-1,1-1.6,3.1-1.8l1.6-0.1V36.1z"/>
	<path class="st0" d="M43.2,33.8c-0.9-0.3-1.6-0.5-2-0.8c-0.4-0.2-0.6-0.5-0.6-0.9c0-0.4,0.1-0.6,0.4-0.8s0.6-0.3,1.1-0.3
		c0.6,0,1,0.1,1.4,0.4c0.4,0.3,0.6,0.6,0.6,1.1h3.1c-0.1-1.2-0.6-2.1-1.5-2.9c-0.9-0.8-2.1-1.1-3.5-1.1c-1.4,0-2.6,0.4-3.5,1.1
		c-0.9,0.7-1.4,1.6-1.4,2.8c0,0.6,0.1,1.1,0.4,1.6c0.3,0.5,0.6,0.8,1.1,1.1c0.5,0.3,0.9,0.5,1.4,0.7s0.9,0.3,1.5,0.5
		c0.9,0.2,1.5,0.5,1.9,0.7c0.4,0.3,0.6,0.6,0.6,1.1c0,0.4-0.2,0.7-0.5,0.9c-0.3,0.2-0.7,0.3-1.2,0.3c-0.6,0-1.2-0.2-1.6-0.5
		c-0.5-0.3-0.7-0.8-0.8-1.5H37c0.1,1.4,0.6,2.5,1.6,3.3c1,0.8,2.3,1.2,3.9,1.2c1.5,0,2.7-0.3,3.6-1c0.9-0.7,1.4-1.6,1.4-2.8
		c0-1.1-0.4-2-1.1-2.6C45.7,34.8,44.6,34.2,43.2,33.8z"/>
	<path class="st0" d="M54.6,25.5h-3v1.7c0,0.6-0.2,1-0.5,1.3c-0.3,0.3-0.8,0.5-1.5,0.5h-0.8v2.4h2.5v6.3c0,2.7,1.3,4.1,3.9,4.1
		c0.9,0,1.8-0.2,2.5-0.7L57,38.5c-0.4,0.2-0.8,0.4-1.2,0.4c-0.8,0-1.2-0.5-1.2-1.5v-6h3.2v-2.6h-3.2V25.5z"/>
	<path class="st0" d="M67.3,38.6c-0.5,0.3-1.1,0.4-1.7,0.4c-2,0-3.1-1-3.4-3h9.2c0.1-1.3,0-2.5-0.3-3.5c-0.3-1-0.7-1.8-1.4-2.4
		c-0.6-0.6-1.3-1-2-1.3c-0.8-0.3-1.6-0.4-2.5-0.4c-1.8,0-3.3,0.6-4.5,1.8c-1.2,1.2-1.8,2.8-1.8,4.8c0,2,0.6,3.6,1.8,4.8
		c1.2,1.2,2.8,1.8,4.7,1.8c1.5,0,2.8-0.4,3.9-1.1c1.1-0.8,1.8-1.8,2.1-3.1h-3.1C68.2,37.9,67.8,38.3,67.3,38.6z M63.5,31.7
		c0.5-0.4,1.2-0.7,2-0.7c0.8,0,1.5,0.3,2.1,0.8s0.8,1.1,0.9,1.8h-6.1C62.6,32.8,62.9,32.2,63.5,31.7z"/>
	<rect x="73.7" y="23.4" class="st0" width="3.4" height="18.1"/>
	<path class="st0" d="M90.4,37.7v-3.9c0-1.7-0.5-3-1.5-3.9s-2.3-1.4-3.8-1.4c-1.6,0-2.8,0.4-3.8,1.3c-1,0.8-1.5,1.9-1.6,3.3h3.1
		c0.1-0.5,0.3-1,0.7-1.4c0.4-0.4,0.9-0.6,1.6-0.6c0.6,0,1.2,0.2,1.5,0.6c0.4,0.4,0.6,1,0.6,1.7v0.3l-2.4,0.2
		c-3.8,0.3-5.7,1.7-5.7,4.3c0,1.2,0.4,2.1,1.2,2.7c0.8,0.6,1.9,1,3.3,1c1.9,0,3.4-0.6,4.4-1.9c0.4,1.1,1.3,1.7,2.8,1.7h0.6v-2.7
		c-0.4,0-0.6-0.1-0.8-0.3C90.5,38.4,90.4,38.1,90.4,37.7z M87.2,36.1c0,0.9-0.3,1.6-0.9,2.2c-0.6,0.5-1.3,0.8-2.2,0.8
		c-0.5,0-0.9-0.1-1.2-0.3s-0.5-0.5-0.5-1c0-1,1-1.6,3.1-1.8l1.6-0.1V36.1z"/>
	<path class="st0" d="M100.5,28.5c-0.7,0-1.4,0.1-1.9,0.3c-0.6,0.2-1,0.4-1.2,0.6c-0.2,0.2-0.5,0.5-0.8,0.8h-0.3l-0.4-1.6h-2.7v12.7
		h3.5v-6.7c0-1.1,0.3-1.9,0.8-2.4c0.5-0.5,1.2-0.8,1.9-0.8c0.8,0,1.5,0.3,2,0.8s0.8,1.4,0.8,2.5v6.7h3.4v-7.2c0-1.8-0.5-3.3-1.4-4.3
		C103.1,29,101.9,28.5,100.5,28.5z"/>
	<path class="st0" d="M116.9,23.3V30c-0.7-1.1-1.9-1.6-3.5-1.6c-1.7,0-3.1,0.6-4.3,1.8c-1.2,1.2-1.7,2.8-1.7,4.8
		c0,2,0.6,3.6,1.7,4.8c1.1,1.2,2.5,1.8,4.1,1.8c1.5,0,2.7-0.6,3.6-1.7h0.3l0.4,1.5h2.5V23.3H116.9z M116.1,37.7
		c-0.6,0.7-1.3,1-2.2,1c-0.9,0-1.7-0.3-2.3-1c-0.6-0.7-0.9-1.6-0.9-2.6c0-1.1,0.3-1.9,0.9-2.6c0.6-0.7,1.3-1,2.3-1
		c0.9,0,1.7,0.3,2.2,1c0.6,0.7,0.8,1.6,0.8,2.6S116.6,37,116.1,37.7z"/>
</g>
</svg>
