<?xml version="1.0" encoding="utf-8"?>
<!-- Generator: Adobe Illustrator 24.0.0, SVG Export Plug-In . SVG Version: 6.00 Build 0)  -->
<svg version="1.1" id="Laag_1" xmlns="http://www.w3.org/2000/svg" xmlns:xlink="http://www.w3.org/1999/xlink" x="0px" y="0px"
	 width="77.7px" height="12.1px" viewBox="0 0 77.7 12.1" style="enable-background:new 0 0 77.7 12.1;" xml:space="preserve">
<style type="text/css">
	.st0{fill:#54384C;}
</style>
<g>
	<path class="st0" d="M4.5,10L2,6.7H1.5V10H0V2.1h1.5v3.1H2l2.2-3.1h1.7L3.3,5.9V6l3,4H4.5z"/>
	<path class="st0" d="M10.4,10.1c-1.2,0-2.1-0.4-2.9-1.2C6.8,8.2,6.4,7.2,6.4,6s0.4-2.1,1.1-2.9C8.3,2.4,9.2,2,10.4,2
		c1.1,0,2.1,0.4,2.9,1.2C14,3.9,14.4,4.9,14.4,6c0,1.2-0.4,2.1-1.1,2.9C12.5,9.7,11.6,10.1,10.4,10.1z M10.4,8.6
		c0.7,0,1.3-0.2,1.7-0.7c0.5-0.5,0.7-1.1,0.7-1.8s-0.2-1.4-0.7-1.8c-0.5-0.5-1-0.7-1.7-0.7S9.1,3.8,8.7,4.3C8.2,4.7,8,5.3,8,6
		s0.2,1.4,0.7,1.8C9.1,8.4,9.7,8.6,10.4,8.6z"/>
	<path class="st0" d="M19.3,10.1c-1.2,0-2.1-0.4-2.9-1.2c-0.8-0.8-1.1-1.7-1.1-2.9s0.4-2.1,1.1-2.9C17.2,2.4,18.2,2,19.3,2
		c1.1,0,2.1,0.4,2.9,1.2C23,3.9,23.3,4.9,23.3,6c0,1.2-0.4,2.1-1.1,2.9C21.4,9.7,20.5,10.1,19.3,10.1z M19.3,8.6
		c0.7,0,1.3-0.2,1.7-0.7c0.5-0.5,0.7-1.1,0.7-1.8S21.5,4.7,21,4.3c-0.5-0.5-1-0.7-1.7-0.7S18,3.8,17.6,4.3c-0.5,0.5-0.7,1.1-0.7,1.8
		s0.2,1.4,0.7,1.8C18.1,8.4,18.7,8.6,19.3,8.6z"/>
	<path class="st0" d="M27.6,2.1c0.8,0,1.5,0.2,2,0.7s0.7,1.1,0.7,1.8c0,0.8-0.2,1.4-0.7,1.9s-1.2,0.7-2,0.7h-1.5V10h-1.5V2.1H27.6z
		 M27.5,5.8c0.4,0,0.8-0.1,1-0.3c0.2-0.2,0.3-0.5,0.3-0.9c0-0.3-0.1-0.6-0.3-0.8c-0.2-0.2-0.5-0.3-0.9-0.3h-1.5v2.4L27.5,5.8
		L27.5,5.8z"/>
	<path class="st0" d="M40,2.1v1.4h-2.2V10h-1.5V3.5h-2.2V2.1H40z"/>
	<path class="st0" d="M42.7,2.1V10h-1.6V2.1H42.7z"/>
	<path class="st0" d="M51.2,7.5C51,8.3,50.7,9,50,9.5c-0.6,0.5-1.4,0.7-2.2,0.7c-1.2,0-2.1-0.4-2.8-1.1c-0.7-0.8-1-1.7-1-2.9
		s0.3-2.2,1-2.9C45.7,2.4,46.6,2,47.7,2c0.9,0,1.6,0.2,2.2,0.7c0.6,0.4,1,1.1,1.1,2h-1.6c-0.1-0.4-0.3-0.7-0.6-0.9s-0.7-0.3-1.1-0.3
		c-0.6,0-1.2,0.2-1.5,0.7c-0.4,0.5-0.6,1.1-0.6,1.9s0.2,1.4,0.6,1.9c0.4,0.5,0.9,0.7,1.6,0.7c0.4,0,0.8-0.1,1.1-0.3s0.5-0.5,0.7-0.9
		C49.6,7.5,51.2,7.5,51.2,7.5z"/>
	<path class="st0" d="M56.9,10l-2.5-3.3h-0.5V10h-1.5V2.1h1.5v3.1h0.5l2.2-3.1h1.7l-2.6,3.8V6l3,4H56.9z"/>
	<path class="st0" d="M61,8.6h3.9V10h-5.3V2.1h5.2v1.4H61v1.9h3.2v1.3H61V8.6z"/>
	<path class="st0" d="M71.3,2.1v1.4h-2.2V10h-1.5V3.5h-2.2V2.1H71.3z"/>
	<path class="st0" d="M77.7,7.9c0,0.7-0.3,1.3-0.8,1.6c-0.5,0.4-1.2,0.6-2,0.6c-0.9,0-1.6-0.2-2.2-0.7c-0.4-0.5-0.7-1.2-0.7-2h1.5
		c0,0.4,0.1,0.8,0.4,1c0.2,0.2,0.6,0.4,1.1,0.4c0.3,0,0.6-0.1,0.8-0.2c0.2-0.2,0.3-0.4,0.3-0.7S76,7.4,75.7,7.2
		C75.5,7,75,6.8,74.5,6.6c-0.7-0.3-1.3-0.6-1.7-0.9c-0.4-0.4-0.6-0.8-0.6-1.4c0-0.7,0.2-1.3,0.7-1.7C73.4,2.2,74.1,2,74.8,2
		c0.8,0,1.5,0.2,2,0.7s0.7,1,0.7,1.7h-1.4c0-0.3-0.2-0.6-0.4-0.8c-0.2-0.2-0.5-0.3-0.9-0.3c-0.3,0-0.6,0.1-0.8,0.2
		c-0.2,0.2-0.3,0.4-0.3,0.6c0,0.3,0.1,0.5,0.3,0.6c0.2,0.2,0.6,0.4,1.1,0.6c0.8,0.3,1.4,0.7,1.9,1C77.5,6.8,77.7,7.3,77.7,7.9z"/>
</g>
</svg>
