<?xml version="1.0" encoding="utf-8"?>
<!-- Generator: Adobe Illustrator 24.3.0, SVG Export Plug-In . SVG Version: 6.00 Build 0)  -->
<svg version="1.1" id="Laag_1" xmlns="http://www.w3.org/2000/svg" xmlns:xlink="http://www.w3.org/1999/xlink" x="0px" y="0px"
	 width="152.1px" height="17.3px" viewBox="0 0 152.1 17.3" style="enable-background:new 0 0 152.1 17.3;" xml:space="preserve">
<style type="text/css">
	.st0{clip-path:url(#SVGID_1_);}
	.st1{fill:#FAE513;}
</style>
<g>
	<defs>
		<rect id="SVGID_3_" y="0.2" width="151.1" height="16.8"/>
	</defs>
	<clipPath id="SVGID_1_">
		<use xlink:href="#SVGID_3_"  style="overflow:visible;"/>
	</clipPath>
	<g class="st0">
		<path class="st1" d="M6.6,15H15V17H3.4v-1.5L12,2.4V2.3H4v-2h11v1.5L6.6,14.8V15z"/>
		<path class="st1" d="M28.9,17l-1.4-4.3h-6.8L19.2,17h-2.4l5.8-16.8h2.9L31.3,17H28.9z M21.3,10.8h5.5l-2.7-8.1H24L21.3,10.8z"/>
		<path class="st1" d="M45,17h-2.4l-4-6.9h0h-3.3V17h-2.1V0.2h5.7c1.7,0,3,0.4,4,1.3c1,0.9,1.5,2.1,1.5,3.6c0,1.1-0.3,2.1-0.9,2.9
			s-1.5,1.4-2.6,1.8L45,17z M35.3,2.3v5.9h3.3c1.1,0,2-0.3,2.6-0.8s0.9-1.3,0.9-2.1c0-0.9-0.3-1.6-0.9-2.1s-1.5-0.8-2.6-0.8H35.3z"
			/>
		<path class="st1" d="M58.5,17l-1.4-4.3h-6.8L48.8,17h-2.4l5.8-16.8h2.9L60.9,17H58.5z M50.9,10.8h5.5l-2.7-8.1h-0.2L50.9,10.8z"/>
		<path class="st1" d="M73.2,0.2h2.2V17h-2.2V9.6H65V17h-2.2V0.2H65v7.3h8.2V0.2z"/>
		<path class="st1" d="M92.3,8.2c2.2,0.7,3.3,2.1,3.3,4.2c0,1.5-0.5,2.6-1.5,3.4c-1,0.8-2.3,1.2-3.9,1.2h-6V0.2h5.3
			c1.6,0,2.9,0.4,3.8,1.1c1,0.7,1.4,1.8,1.4,3.1c0,1.8-0.8,3-2.5,3.6V8.2z M86.3,2.1v5.3h3.1c1,0,1.8-0.2,2.4-0.7
			c0.5-0.5,0.8-1.1,0.8-2c0-0.8-0.3-1.5-0.9-1.9c-0.6-0.4-1.3-0.7-2.2-0.7H86.3z M89.8,15.1c1.1,0,1.9-0.2,2.5-0.7
			c0.6-0.5,1-1.2,1-2.1s-0.3-1.6-0.9-2.2c-0.6-0.6-1.5-0.8-2.5-0.8h-3.6v5.9H89.8z"/>
		<path class="st1" d="M110.1,17h-2.4l-4-6.9h0h-3.3V17h-2.1V0.2h5.7c1.7,0,3,0.4,4,1.3c1,0.9,1.5,2.1,1.5,3.6
			c0,1.1-0.3,2.1-0.9,2.9s-1.5,1.4-2.6,1.8L110.1,17z M100.4,2.3v5.9h3.3c1.1,0,2-0.3,2.6-0.8s0.9-1.3,0.9-2.1
			c0-0.9-0.3-1.6-0.9-2.1s-1.5-0.8-2.6-0.8H100.4z"/>
		<path class="st1" d="M123.7,17l-1.4-4.3h-6.8L114,17h-2.4l5.8-16.8h2.9L126,17H123.7z M116,10.8h5.5l-2.7-8.1h-0.2L116,10.8z"/>
		<path class="st1" d="M141.8,11.9c-0.3,1.6-1.2,2.9-2.4,3.9c-1.3,1-2.8,1.5-4.6,1.5c-2.4,0-4.4-0.8-5.8-2.4
			c-1.5-1.6-2.2-3.7-2.2-6.2c0-2.5,0.7-4.6,2.2-6.2c1.4-1.6,3.3-2.5,5.6-2.5c1.8,0,3.3,0.5,4.6,1.4c1.3,0.9,2.1,2.3,2.4,4h-2.3
			c-0.3-1-0.8-1.9-1.6-2.5c-0.8-0.6-1.8-0.9-3-0.9c-1.6,0-3,0.6-4,1.9c-1,1.3-1.5,2.8-1.5,4.6c0,2,0.5,3.5,1.5,4.7
			c1,1.2,2.4,1.8,4.1,1.8c1.1,0,2.1-0.3,3-0.9s1.4-1.4,1.8-2.4H141.8z"/>
		<path class="st1" d="M154.7,0.2h2.2V17h-2.2V9.6h-8.2V17h-2.2V0.2h2.2v7.3h8.2V0.2z"/>
		<path class="st1" d="M170.9,0.2v2h-4.9V17h-2.2V2.3H159v-2H170.9z"/>
	</g>
</g>
</svg>
