<?xml version="1.0" encoding="utf-8"?>
<!-- Generator: Adobe Illustrator 24.0.0, SVG Export Plug-In . SVG Version: 6.00 Build 0)  -->
<svg version="1.1" id="Laag_1" xmlns="http://www.w3.org/2000/svg" xmlns:xlink="http://www.w3.org/1999/xlink" x="0px" y="0px"
	 width="311.3px" height="166.3px" viewBox="0 0 311.3 166.3" style="enable-background:new 0 0 311.3 166.3;" xml:space="preserve"
	>
<style type="text/css">
	.st0{fill:#FCF4F7;}
</style>
<g>
	<path class="st0" d="M33,29.9v-1.4l2.4-0.3V3.4c-4.2,0-6,3-7.5,6.6l-1.1-0.2l1.5-8.5c0.8,0.2,1.5,0.4,2.3,0.5
		c0.8,0.1,1.6,0.1,2.7,0.1h8.2c2.2,0,3.4-0.1,5-0.6l1.5,8.5L46.7,10c-1.5-3.6-3.4-6.6-7.5-6.6v24.8l2.4,0.3v1.4H33z"/>
	<path class="st0" d="M50.8,21.2c0.1,2.8,1.9,6.7,5.6,6.7c2.2,0,3.6-1.3,4.8-3.2l1,0.7c-1.3,2.8-3.6,5.2-7,5.2
		c-5.2,0-7.8-4.7-7.8-9.4c0-6.6,3.5-10.9,7.4-10.9c4.4,0,6.4,3.7,7,7.7L50.8,21.2z M55.9,17.8c1.3-0.4,2.1-0.8,2.1-2.6
		c0-1.5-0.8-3.6-3.1-3.6c-3.4,0-4.4,3.2-4.4,5.6c0,1.2,0,1.6,0,2L55.9,17.8z"/>
	<path class="st0" d="M65.1,29.9v-1.2l2-0.3v-13c0-2.1-0.6-2.5-2.1-2.5v-1l4.1-1.7c0.5,1,1,2.1,1.2,3c1.8-1.6,2.9-3,6.1-3
		c3.8,0,6.3,2.2,6.3,7.1v11.1l2,0.3v1.2h-7.2v-1.2l2-0.3V17.5c0-3-1.2-5-4.2-5c-2.2,0-3.5,1.1-5,2.8v13.1l2,0.3v1.2H65.1z"/>
	<path class="st0" d="M98,10.8v1.8h-5.2v12.5c0,2.2,0.7,3.1,2.7,3.1c1,0,2.1-0.7,3.1-1.5l0.6,1.2c-1.8,1.6-3.2,2.6-5.7,2.6
		c-2.6,0-4-2-4-5.7V12.6H87v-1.8h2.6V5.6L92.8,3v7.9H98z"/>
	<path class="st0" d="M109.6,10.2c5.2,0,8.6,5.4,8.6,10.2c0,4.8-3.3,10.1-8.6,10.1s-8.6-5.4-8.6-10.1
		C101,15.6,104.3,10.2,109.6,10.2z M104.7,20.4c0,4.8,1.2,8.7,4.9,8.7s4.9-3.9,4.9-8.7c0-4.8-1.2-8.7-4.9-8.7S104.7,15.6,104.7,20.4
		z"/>
	<path class="st0" d="M129.8,10.2c5.2,0,8.6,5.4,8.6,10.2c0,4.8-3.3,10.1-8.6,10.1s-8.6-5.4-8.6-10.1
		C121.2,15.6,124.5,10.2,129.8,10.2z M124.9,20.4c0,4.8,1.2,8.7,4.9,8.7c3.6,0,4.9-3.9,4.9-8.7c0-4.8-1.2-8.7-4.9-8.7
		C126.1,11.7,124.9,15.6,124.9,20.4z"/>
	<path class="st0" d="M141.4,29.9v-1.2l2-0.3v-13c0-2.1-0.6-2.5-2.1-2.5v-1l4.1-1.7c0.5,1,1,2.1,1.2,3c1.8-1.6,2.9-3,6.1-3
		c3.8,0,6.3,2.2,6.3,7.1v11.1l2,0.3v1.2h-7.2v-1.2l2-0.3V17.5c0-3-1.2-5-4.2-5c-2.2,0-3.5,1.1-5,2.8v13.1l2,0.3v1.2H141.4z"/>
	<path class="st0" d="M169.4,30.5c-3.1,0-6-1.5-6-3.5c0-1.4,0.8-2.1,1.9-2.1c3,0,1.3,4.1,4.2,4.1c2.2,0,4.2-1.1,4.2-3.2
		c0-5-9.2-4.1-9.2-10.2c0-3.4,2.6-5.5,7.2-5.5c2.3,0,3.5,1,3.5,2.2c0,1.4-0.8,1.9-2,1.9c-1.9,0-1.8-2.7-3.3-2.7
		c-1.6,0-2.8,1.1-2.8,2.7c0,4.5,9.2,3,9.2,10.2C176.3,27.7,173.7,30.5,169.4,30.5z"/>
	<path class="st0" d="M190.1,10.8v1.8h-5.2v12.5c0,2.2,0.7,3.1,2.7,3.1c1,0,2.1-0.7,3.1-1.5l0.6,1.2c-1.8,1.6-3.2,2.6-5.7,2.6
		c-2.6,0-4-2-4-5.7V12.6h-2.5v-1.8h2.6V5.6l3.2-2.6v7.9H190.1z"/>
	<path class="st0" d="M196.7,21.2c0.1,2.8,1.9,6.7,5.6,6.7c2.2,0,3.6-1.3,4.8-3.2l1,0.7c-1.3,2.8-3.6,5.2-7,5.2
		c-5.2,0-7.8-4.7-7.8-9.4c0-6.6,3.5-10.9,7.4-10.9c4.4,0,6.4,3.7,7,7.7L196.7,21.2z M201.9,17.8c1.3-0.4,2.1-0.8,2.1-2.6
		c0-1.5-0.8-3.6-3.1-3.6c-3.4,0-4.4,3.2-4.4,5.6c0,1.2,0,1.6,0,2L201.9,17.8z"/>
	<path class="st0" d="M216.9,0c0,0.8-0.1,1.6-0.1,2.4v26l2,0.3v1.2h-7.2v-1.2l2-0.3V6.4c0-2.8-0.4-3.5-1.2-3.5c-0.3,0-0.6,0-1,0.2
		V1.8L216.9,0z"/>
	<path class="st0" d="M228.2,0c0,0.8-0.1,1.6-0.1,2.4v26l2,0.3v1.2h-7.2v-1.2l2-0.3V6.4c0-2.8-0.4-3.5-1.2-3.5c-0.3,0-0.6,0-1,0.2
		V1.8L228.2,0z"/>
	<path class="st0" d="M234.2,29.9v-1.2l2-0.3V16.6c0-2.8-0.4-3.5-1.2-3.5c-0.3,0-0.6,0-1,0.2v-1.2l5.5-1.8c0,0.8-0.1,1.6-0.1,2.4
		v15.8l2,0.3v1.2H234.2z M240,3.4c0,1.2-0.8,2.1-2.2,2.1c-1.4,0-2.2-1-2.2-2.1s0.8-2.1,2.2-2.1C239.2,1.3,240,2.3,240,3.4z"/>
	<path class="st0" d="M245,29.9v-1.2l2-0.3v-13c0-2.1-0.6-2.5-2.1-2.5v-1l4.1-1.7c0.5,1,1,2.1,1.2,3c1.8-1.6,2.9-3,6.1-3
		c3.8,0,6.3,2.2,6.3,7.1v11.1l2,0.3v1.2h-7.2v-1.2l2-0.3V17.5c0-3-1.2-5-4.2-5c-2.2,0-3.5,1.1-5,2.8v13.1l2,0.3v1.2H245z"/>
	<path class="st0" d="M267.2,33.1c0-1.8,2.2-2.8,3.5-3.6c-1-0.3-2.9-0.3-2.9-2c0-1.6,3-3.5,4.1-4.4c-2.2-1.3-3.7-3.2-3.7-5.9
		c0-4,3.2-6.9,7.3-6.9h1.4c1.6-1.6,3.6-3.8,6-3.8c1.3,0,2.1,0.9,2.1,1.8c0,1.2-0.7,2-2.1,2c-0.9,0-1.7-0.7-2.2-1.2
		c-1,0-1.6,0.9-2.2,1.5c2.9,1,5,3.3,5,6.4c0,4.2-3.4,7.2-7.8,7.2c-0.7,0-1.6-0.1-2.2-0.3c-0.4,0.3-2,1.2-2,1.8
		c0,0.8,1.4,1.2,5.9,1.2c4.8,0,7.7,1.5,7.7,5c0,3.2-2.9,5.4-10,5.4C271.8,37.1,267.2,36.8,267.2,33.1z M282.4,32.3
		c0-0.9-0.7-1.5-1.6-1.8c-1.8-0.6-4.2-0.7-8.2-0.7c-0.6,0.1-2.1,1.7-2.1,2.9c0,2.7,2.7,3,4.9,3C279,35.6,282.4,35.2,282.4,32.3z
		 M275.8,22.6c3.1,0,4.4-3,4.4-5.6c0-3.3-1.6-5.4-4.4-5.4c-3.1,0-4.4,2.8-4.4,5.4C271.4,19.2,272.7,22.6,275.8,22.6z"/>
</g>
<g>
	<path class="st0" d="M14.7,111.5c-0.6-0.3-1.3-0.4-2.1-0.5c-0.8-0.1-1.6-0.1-2.8-0.1H0v-2.1c2-3.2,4.4-6.3,7.1-9.1
		c2.9-3,5.6-6.1,5.6-9.6c0-3.8-2.3-6.2-5.1-6.2c-1.9,0-3.9,0.9-3.9,2.6c0,0.8,1.3,1.3,1.3,3.1c0,1-0.4,2.4-2,2.4
		c-1.5,0-2.5-1.4-2.5-2.9c0-4,4-6.7,8.1-6.7c5,0,8,3.5,8,7.6c0,5.1-4.8,8.2-8.7,11.7c-2.3,2-4.9,4.6-5,5.8h6.9
		c3.6,0,4.4-1.6,5.5-4.3l1.4,0.2L14.7,111.5z"/>
	<path class="st0" d="M34.8,111.5c-0.6-0.3-1.3-0.4-2.1-0.5c-0.8-0.1-1.6-0.1-2.8-0.1h-9.8v-2.1c2-3.2,4.4-6.3,7.1-9.1
		c2.9-3,5.6-6.1,5.6-9.6c0-3.8-2.3-6.2-5.1-6.2c-1.9,0-3.9,0.9-3.9,2.6c0,0.8,1.3,1.3,1.3,3.1c0,1-0.4,2.4-2,2.4
		c-1.5,0-2.5-1.4-2.5-2.9c0-4,4-6.7,8.1-6.7c5,0,8,3.5,8,7.6c0,5.1-4.8,8.2-8.7,11.7c-2.3,2-4.9,4.6-5,5.8h6.9
		c3.6,0,4.4-1.6,5.5-4.3l1.4,0.2L34.8,111.5z"/>
	<path class="st0" d="M56.6,111.5c-3.1,0-6-1.5-6-3.5c0-1.4,0.8-2.1,1.9-2.1c3,0,1.3,4.1,4.2,4.1c2.2,0,4.2-1.1,4.2-3.2
		c0-5-9.2-4.1-9.2-10.2c0-3.4,2.6-5.5,7.2-5.5c2.3,0,3.5,1,3.5,2.2c0,1.4-0.8,1.9-2,1.9c-1.9,0-1.8-2.7-3.3-2.7
		c-1.6,0-2.8,1.1-2.8,2.7c0,4.5,9.2,3,9.2,10.2C63.5,108.7,60.9,111.5,56.6,111.5z"/>
	<path class="st0" d="M70.4,102.2c0.1,2.8,1.9,6.7,5.6,6.7c2.2,0,3.6-1.3,4.8-3.2l1,0.7c-1.3,2.8-3.6,5.2-7,5.2
		c-5.2,0-7.8-4.7-7.8-9.4c0-6.6,3.5-10.9,7.4-10.9c4.4,0,6.4,3.7,7,7.7L70.4,102.2z M75.5,98.8c1.3-0.4,2.1-0.8,2.1-2.6
		c0-1.5-0.8-3.6-3.1-3.6c-3.4,0-4.4,3.2-4.4,5.6c0,1.2,0,1.6,0,2L75.5,98.8z"/>
	<path class="st0" d="M84.4,117.7v-1.2l2-0.3V97.5c0-2.8-0.4-3.5-1.2-3.5c-0.3,0-0.6,0-1,0.2V93l4.1-1.7c0.5,1,0.9,2,1.3,3
		c1.4-1.5,3.1-3,5.3-3c4.4,0,6.8,4.8,6.8,9.2c0,7-4.2,10.8-7.8,10.8c-1.8,0-3-0.2-4.3-1v5.9l2,0.3v1.2H84.4z M89.6,107.4
		c0,1.1,2.1,2.7,3.8,2.7c3.8,0,5-4,5-7.6c0-3.6-1.2-8.5-5.1-8.5c-1.8,0-3,1.2-3.7,2.2V107.4z"/>
	<path class="st0" d="M115.4,91.8v1.8h-5.2v12.5c0,2.2,0.7,3.1,2.7,3.1c1,0,2.1-0.7,3.1-1.5l0.6,1.2c-1.8,1.6-3.2,2.6-5.7,2.6
		c-2.6,0-4-2-4-5.7V93.6h-2.5v-1.8h2.6v-5.2l3.2-2.6v7.9H115.4z"/>
	<path class="st0" d="M122,102.2c0.1,2.8,1.9,6.7,5.6,6.7c2.2,0,3.6-1.3,4.8-3.2l1,0.7c-1.3,2.8-3.6,5.2-7,5.2
		c-5.2,0-7.8-4.7-7.8-9.4c0-6.6,3.5-10.9,7.4-10.9c4.4,0,6.4,3.7,7,7.7L122,102.2z M127.2,98.8c1.3-0.4,2.1-0.8,2.1-2.6
		c0-1.5-0.8-3.6-3.1-3.6c-3.4,0-4.4,3.2-4.4,5.6c0,1.2,0,1.6,0,2L127.2,98.8z"/>
	<path class="st0" d="M138.5,96.2c0-2.1-0.6-2.5-2.1-2.5v-1l3.8-1.4c0.6,1,1.1,2.2,1.4,3.2c1.6-1.4,2.7-3.2,6.2-3.2
		c2.4,0,4,1.5,5,3.3c1.9-1.6,3.7-3.3,6.4-3.3c3.8,0,6,2.7,6,7.2v11l2,0.3v1.2h-7.2v-1.2l2-0.3V98.1c0-3.5-2.1-4.6-4.1-4.6
		c-1.7,0-3.1,1.1-4.4,2.3v13.6l2,0.3v1.2h-7.2v-1.2l2-0.3v-12c0-1.8-1.5-3.8-3.8-3.8c-1.8,0-3.5,1.6-4.7,2.6v13.3l2,0.3v1.2h-7.2
		v-1.2l2-0.3V96.2z"/>
	<path class="st0" d="M174.6,81c0,0.8-0.1,1.6-0.1,2.4v10.4c1.4-1.4,2.9-2.6,4.7-2.6c4.5,0,7.5,3.7,7.5,9.4c0,5.2-3,10.9-8.2,10.9
		c-1.9,0-4-0.9-5.2-2.8l-2.4,2.8l-0.7-0.4c0.5-1.2,1.2-3.9,1.2-8.6V87.4c0-2.8-0.4-3.5-1.2-3.5c-0.3,0-0.6,0-1,0.2v-1.2L174.6,81z
		 M174.4,106.6c0,1.8,2.1,3.5,3.8,3.5c3.9,0,5.2-4.1,5.2-7.4c0-4.9-2-8.8-5.5-8.8c-1.4,0-2.8,1-3.5,2V106.6z"/>
	<path class="st0" d="M193.7,102.2c0.1,2.8,1.9,6.7,5.6,6.7c2.2,0,3.6-1.3,4.8-3.2l1,0.7c-1.3,2.8-3.6,5.2-7,5.2
		c-5.2,0-7.8-4.7-7.8-9.4c0-6.6,3.5-10.9,7.4-10.9c4.4,0,6.4,3.7,7,7.7L193.7,102.2z M198.8,98.8c1.3-0.4,2.1-0.8,2.1-2.6
		c0-1.5-0.8-3.6-3.1-3.6c-3.4,0-4.4,3.2-4.4,5.6c0,1.2,0,1.6,0,2L198.8,98.8z"/>
	<path class="st0" d="M208.8,110.9v-1.2l2-0.3V98.8c0-2.6-0.7-4.9-1.8-4.9c-0.3,0-0.6,0.1-0.8,0.2v-1.2l4-1.7c0.6,1.4,1.5,4.2,1.6,7
		h0.1c0.4-2.2,2.6-7,5.4-7c1.4,0,2.2,0.9,2.2,2.2c0,0.9-1.2,2.1-2.1,2.1c-1,0-1.4-0.5-2-0.5c-1.8,0-3.4,5.6-3.4,8.6v5.8l2,0.3v1.2
		H208.8z"/>
	<path class="st0" d="M248.2,111.5c-0.6-0.3-1.3-0.4-2.1-0.5c-0.8-0.1-1.6-0.1-2.8-0.1h-9.8v-2.1c2-3.2,4.4-6.3,7.1-9.1
		c2.9-3,5.6-6.1,5.6-9.6c0-3.8-2.3-6.2-5.1-6.2c-1.9,0-3.9,0.9-3.9,2.6c0,0.8,1.3,1.3,1.3,3.1c0,1-0.4,2.4-2,2.4
		c-1.5,0-2.5-1.4-2.5-2.9c0-4,4-6.7,8.1-6.7c5,0,8,3.5,8,7.6c0,5.1-4.8,8.2-8.7,11.7c-2.3,2-4.9,4.6-5,5.8h6.9
		c3.6,0,4.4-1.6,5.5-4.3l1.4,0.2L248.2,111.5z"/>
	<path class="st0" d="M270.9,96.9c0,6-3.1,14.6-8.2,14.6s-8.2-6.8-8.2-14.6c0-8.1,4-14.6,8.2-14.6C267.5,82.3,270.9,88.8,270.9,96.9
		z M258.4,96.9c0,10.1,0.8,13.2,4.4,13.2c3.1,0,4.4-4,4.4-13.2c0-9.2-0.9-13.2-4.4-13.2C260,83.7,258.4,87.7,258.4,96.9z"/>
	<path class="st0" d="M288.6,111.5c-0.6-0.3-1.3-0.4-2.1-0.5c-0.8-0.1-1.6-0.1-2.8-0.1h-9.8v-2.1c2-3.2,4.4-6.3,7.1-9.1
		c2.9-3,5.6-6.1,5.6-9.6c0-3.8-2.3-6.2-5.1-6.2c-1.9,0-3.9,0.9-3.9,2.6c0,0.8,1.3,1.3,1.3,3.1c0,1-0.4,2.4-2,2.4
		c-1.5,0-2.5-1.4-2.5-2.9c0-4,4-6.7,8.1-6.7c5,0,8,3.5,8,7.6c0,5.1-4.8,8.2-8.7,11.7c-2.3,2-4.9,4.6-5,5.8h6.9
		c3.6,0,4.4-1.6,5.5-4.3l1.4,0.2L288.6,111.5z"/>
	<path class="st0" d="M311.3,96.9c0,6-3.1,14.6-8.2,14.6s-8.2-6.8-8.2-14.6c0-8.1,4-14.6,8.2-14.6C307.9,82.3,311.3,88.8,311.3,96.9
		z M298.7,96.9c0,10.1,0.8,13.2,4.4,13.2c3.1,0,4.4-4,4.4-13.2c0-9.2-0.9-13.2-4.4-13.2C300.3,83.7,298.7,87.7,298.7,96.9z"/>
</g>
<g>
	<path class="st0" d="M146.1,129.4v-2.2h20v2.2H146.1z"/>
</g>
<g>
	<path class="st0" d="M34.8,165.5c-0.6-0.3-1.3-0.4-2.1-0.5c-0.8-0.1-1.6-0.1-2.8-0.1h-9.8v-2.1c2-3.2,4.4-6.3,7.1-9.1
		c2.9-3,5.6-6.1,5.6-9.6c0-3.8-2.3-6.2-5.1-6.2c-1.9,0-3.9,0.9-3.9,2.6c0,0.8,1.3,1.3,1.3,3.1c0,1-0.4,2.4-2,2.4
		c-1.5,0-2.5-1.4-2.5-2.9c0-4,4-6.7,8.1-6.7c5,0,8,3.5,8,7.6c0,5.1-4.8,8.2-8.7,11.7c-2.3,2-4.9,4.6-5,5.8h6.9
		c3.6,0,4.4-1.6,5.5-4.3l1.4,0.2L34.8,165.5z"/>
	<path class="st0" d="M43,164.9v-1.4l5-0.5v-20.5c0-2-0.2-2.6-2.5-2.6c-0.8,0-1.6,0-2.4,0v-1.5l8.5-2.2v26.8l4.2,0.4v1.4H43z"/>
	<path class="st0" d="M80.1,145.8v1.8h-3.9v15.8l2,0.3v1.2h-7.2v-1.2l2-0.3v-15.8h-2.2v-1.8H73C73,141,76.7,135,80.3,135
		c1.4,0,2.4,0.6,2.4,2.2c0,1-0.8,1.6-1.8,1.6c-0.9,0-1.4-0.3-1.7-0.6c-0.3-0.3-0.4-0.6-0.8-0.6c-1.2,0-2.2,2.2-2.2,4.7
		c0,1.4,0,2.5,0,3.5H80.1z"/>
	<path class="st0" d="M86,156.2c0.1,2.8,1.9,6.7,5.6,6.7c2.2,0,3.6-1.3,4.8-3.2l1,0.7c-1.3,2.8-3.6,5.2-7,5.2
		c-5.2,0-7.8-4.7-7.8-9.4c0-6.6,3.5-10.9,7.4-10.9c4.4,0,6.4,3.7,7,7.7L86,156.2z M91.1,152.8c1.3-0.4,2.1-0.8,2.1-2.6
		c0-1.5-0.8-3.6-3.1-3.6c-3.4,0-4.4,3.2-4.4,5.6c0,1.2,0,1.6,0,2L91.1,152.8z"/>
	<path class="st0" d="M105,135c0,0.8-0.1,1.6-0.1,2.4v10.4c1.4-1.4,2.9-2.6,4.7-2.6c4.5,0,7.5,3.7,7.5,9.4c0,5.2-3,10.9-8.2,10.9
		c-1.9,0-4-0.9-5.2-2.8l-2.4,2.8l-0.7-0.4c0.5-1.2,1.2-3.9,1.2-8.6v-15.2c0-2.8-0.4-3.5-1.2-3.5c-0.3,0-0.6,0-1,0.2v-1.2L105,135z
		 M104.9,160.6c0,1.8,2.1,3.5,3.8,3.5c3.9,0,5.2-4.1,5.2-7.4c0-4.9-2-8.8-5.5-8.8c-1.4,0-2.8,1-3.5,2V160.6z"/>
	<path class="st0" d="M121.2,164.9v-1.2l2-0.3v-10.6c0-2.6-0.7-4.9-1.8-4.9c-0.3,0-0.6,0.1-0.8,0.2v-1.2l4-1.7
		c0.6,1.4,1.5,4.2,1.6,7h0.1c0.4-2.2,2.6-7,5.4-7c1.4,0,2.2,0.9,2.2,2.2c0,0.9-1.2,2.1-2.1,2.1c-1,0-1.4-0.5-2-0.5
		c-1.8,0-3.4,5.6-3.4,8.6v5.8l2,0.3v1.2H121.2z"/>
	<path class="st0" d="M141.4,145.2c0,0.8-0.1,1.6-0.1,2.4v11.6c0,2.4,1.5,3.9,3.9,3.9c2.6,0,4.4-2.2,5.2-3.6v-8
		c0-2.8-0.4-3.5-1.2-3.5c-0.3,0-0.6,0-1,0.2v-1.2l5.5-1.8c0,0.8-0.1,1.6-0.1,2.4v13.4c0,1.3,0.2,2.1,1,2.1c0.4,0,0.7,0,1.1-0.2v1.2
		l-4,1.2c-0.7-1.1-1.1-2.3-1.3-3.6c-2,2.4-4,3.6-7,3.6c-2.8,0-5.4-1.8-5.4-5.7v-8.2c0-2.8-0.4-3.5-1.2-3.5c-0.3,0-0.6,0-1,0.2v-1.2
		L141.4,145.2z"/>
	<path class="st0" d="M171.8,162.1c0,0.9,0.5,1.1,1,1.1c0.6,0,1-0.4,1.3-0.7l0.8,0.8c-0.9,1.3-2.1,2.2-3.8,2.2
		c-1.4,0-2.3-1.2-2.4-2.6c-1.4,1.5-3.6,2.6-5.6,2.6c-2.7,0-5-2-5-4.8c0-5.1,6.4-7.6,10.6-8.5c0-4.4-2.6-5.6-3.9-5.6
		c-1.5,0-0.8,2.7-3.5,2.7c-1,0-1.7-0.7-1.7-1.8c0-1.7,1-2.3,3.6-2.3c2.4,0,8.7,1.3,8.7,6.9V162.1z M168.6,153.7
		c-2.7,0.5-7,2.2-7,6.2c0,2,1.2,3.3,3.2,3.3c1.6,0,2.9-1,3.8-2.1V153.7z"/>
	<path class="st0" d="M177.4,164.9v-1.2l2-0.3v-10.6c0-2.6-0.7-4.9-1.8-4.9c-0.3,0-0.6,0.1-0.8,0.2v-1.2l4-1.7
		c0.6,1.4,1.5,4.2,1.6,7h0.1c0.4-2.2,2.6-7,5.4-7c1.4,0,2.2,0.9,2.2,2.2c0,0.9-1.2,2.1-2.1,2.1c-1,0-1.4-0.5-2-0.5
		c-1.8,0-3.4,5.6-3.4,8.6v5.8l2,0.3v1.2H177.4z"/>
	<path class="st0" d="M192.9,164.9v-1.2l2-0.3v-11.8c0-2.8-0.4-3.5-1.2-3.5c-0.3,0-0.6,0-1,0.2v-1.2l5.5-1.8c0,0.8-0.1,1.6-0.1,2.4
		v15.8l2,0.3v1.2H192.9z M198.7,138.4c0,1.2-0.8,2.1-2.2,2.1c-1.4,0-2.2-1-2.2-2.1s0.8-2.1,2.2-2.1
		C197.9,136.3,198.7,137.3,198.7,138.4z"/>
	<path class="st0" d="M228.1,165.5c-0.6-0.3-1.3-0.4-2.1-0.5c-0.8-0.1-1.6-0.1-2.8-0.1h-9.8v-2.1c2-3.2,4.4-6.3,7.1-9.1
		c2.9-3,5.6-6.1,5.6-9.6c0-3.8-2.3-6.2-5.1-6.2c-1.9,0-3.9,0.9-3.9,2.6c0,0.8,1.3,1.3,1.3,3.1c0,1-0.4,2.4-2,2.4
		c-1.5,0-2.5-1.4-2.5-2.9c0-4,4-6.7,8.1-6.7c5,0,8,3.5,8,7.6c0,5.1-4.8,8.2-8.7,11.7c-2.3,2-4.9,4.6-5,5.8h6.9
		c3.6,0,4.4-1.6,5.5-4.3l1.4,0.2L228.1,165.5z"/>
	<path class="st0" d="M250.8,150.9c0,6-3.1,14.6-8.2,14.6s-8.2-6.8-8.2-14.6c0-8.1,4-14.6,8.2-14.6
		C247.4,136.3,250.8,142.8,250.8,150.9z M238.2,150.9c0,10.1,0.8,13.2,4.4,13.2c3.1,0,4.4-4,4.4-13.2c0-9.2-0.9-13.2-4.4-13.2
		C239.8,137.7,238.2,141.7,238.2,150.9z"/>
	<path class="st0" d="M268.5,165.5c-0.6-0.3-1.3-0.4-2.1-0.5c-0.8-0.1-1.6-0.1-2.8-0.1h-9.8v-2.1c2-3.2,4.4-6.3,7.1-9.1
		c2.9-3,5.6-6.1,5.6-9.6c0-3.8-2.3-6.2-5.1-6.2c-1.9,0-3.9,0.9-3.9,2.6c0,0.8,1.3,1.3,1.3,3.1c0,1-0.4,2.4-2,2.4
		c-1.5,0-2.5-1.4-2.5-2.9c0-4,4-6.7,8.1-6.7c5,0,8,3.5,8,7.6c0,5.1-4.8,8.2-8.7,11.7c-2.3,2-4.9,4.6-5,5.8h6.9
		c3.6,0,4.4-1.6,5.5-4.3l1.4,0.2L268.5,165.5z"/>
	<path class="st0" d="M276.8,164.9v-1.4l5-0.5v-20.5c0-2-0.2-2.6-2.5-2.6c-0.8,0-1.6,0-2.4,0v-1.5l8.5-2.2v26.8l4.2,0.4v1.4H276.8z"
		/>
</g>
</svg>
