<?xml version="1.0" encoding="utf-8"?>
<!-- Generator: Adobe Illustrator 24.3.0, SVG Export Plug-In . SVG Version: 6.00 Build 0)  -->
<svg version="1.1" id="Laag_1" xmlns="http://www.w3.org/2000/svg" xmlns:xlink="http://www.w3.org/1999/xlink" x="0px" y="0px"
	 width="94.1px" height="11.1px" viewBox="0 0 94.1 11.1" style="enable-background:new 0 0 94.1 11.1;" xml:space="preserve">
<style type="text/css">
	.st0{fill:#FFFFFF;}
</style>
<g>
	<path class="st0" d="M3.4,0.1c1.4,0,2.4,0.4,3.1,1.1C7.3,2,7.6,3,7.6,4.3c0,1.3-0.4,2.4-1.1,3.2C5.8,8.3,4.8,8.7,3.4,8.7H0.9V0.1
		H3.4z M3.4,7.6c1,0,1.8-0.3,2.3-0.9c0.5-0.6,0.8-1.4,0.8-2.4c0-0.9-0.3-1.7-0.8-2.3C5.2,1.5,4.4,1.2,3.4,1.2H2v6.4H3.4z"/>
	<path class="st0" d="M14.6,8.7l-0.7-2.2h-3.5L9.7,8.7H8.5l2.9-8.5h1.5l2.9,8.5H14.6z M10.7,5.5h2.8l-1.4-4.1h-0.1L10.7,5.5z"/>
	<path class="st0" d="M23,0.1h1.1v8.5h-1.2L18.4,2h-0.1v6.6h-1.1V0.1h1.3l4.4,6.6H23V0.1z"/>
	<path class="st0" d="M33.6,6.1c-0.2,0.8-0.6,1.5-1.2,2c-0.7,0.5-1.4,0.7-2.3,0.7c-1.2,0-2.2-0.4-3-1.2s-1.1-1.9-1.1-3.2
		c0-1.3,0.4-2.3,1.1-3.2S28.7,0,29.9,0c0.9,0,1.7,0.2,2.3,0.7c0.7,0.5,1.1,1.2,1.2,2.1h-1.2c-0.1-0.5-0.4-0.9-0.8-1.2
		c-0.4-0.3-0.9-0.5-1.5-0.5c-0.8,0-1.5,0.3-2,1s-0.8,1.4-0.8,2.4c0,1,0.3,1.8,0.8,2.4c0.5,0.6,1.2,0.9,2.1,0.9
		c0.6,0,1.1-0.2,1.5-0.5c0.4-0.3,0.7-0.7,0.9-1.2H33.6z"/>
	<path class="st0" d="M36.4,7.6h4.4v1h-5.5V0.1h5.4v1h-4.3v2.7h3.8v1h-3.8V7.6z"/>
	<path class="st0" d="M54.2,0.1h1.1l-1.7,8.5h-1.6l-1.7-6.4h-0.1l-1.7,6.4h-1.6L45,0.1h1.1l1.5,7.2h0.1l1.7-6.6h1.5l1.7,6.6h0.1
		L54.2,0.1z"/>
	<path class="st0" d="M58,0.1v8.5h-1.2V0.1H58z"/>
	<path class="st0" d="M65.6,0.1v1h-2.5v7.5H62V1.1h-2.5v-1H65.6z"/>
	<path class="st0" d="M72.4,0.1h1.1v8.5h-1.1V4.9h-4.1v3.8h-1.1V0.1h1.1v3.7h4.1V0.1z"/>
	<path class="st0" d="M85.6,0.1v5.2c0,1.1-0.3,2-0.9,2.6s-1.4,0.9-2.4,0.9c-1,0-1.8-0.3-2.4-0.9s-0.9-1.5-0.9-2.6V0.1h1.2v5.2
		c0,0.8,0.2,1.4,0.6,1.8c0.4,0.4,0.9,0.6,1.6,0.6s1.2-0.2,1.6-0.6s0.6-1,0.6-1.8V0.1H85.6z"/>
	<path class="st0" d="M93.3,6.5c0,0.7-0.3,1.3-0.8,1.7c-0.5,0.4-1.2,0.6-2.1,0.6c-1,0-1.7-0.3-2.3-0.8c-0.5-0.5-0.8-1.2-0.8-2h1.1
		c0,0.5,0.2,0.9,0.5,1.2c0.3,0.3,0.8,0.5,1.5,0.5c0.5,0,0.9-0.1,1.2-0.3s0.5-0.5,0.5-1c0-0.4-0.1-0.7-0.4-1
		c-0.3-0.3-0.8-0.5-1.6-0.8c-0.8-0.3-1.4-0.6-1.9-0.9c-0.4-0.4-0.7-0.9-0.7-1.5c0-0.7,0.3-1.3,0.8-1.7C88.9,0.2,89.5,0,90.3,0
		c0.9,0,1.6,0.2,2.1,0.7c0.5,0.5,0.8,1.1,0.8,1.8h-1.1c0-0.4-0.2-0.8-0.5-1.1S90.9,1,90.3,1c-0.5,0-0.8,0.1-1.1,0.4
		c-0.3,0.2-0.4,0.5-0.4,0.9c0,0.4,0.1,0.7,0.4,0.9c0.3,0.2,0.8,0.4,1.5,0.7c0.9,0.3,1.5,0.7,2,1.1C93.1,5.3,93.3,5.9,93.3,6.5z"/>
	<path class="st0" d="M0,11.1v-0.6h94.1v0.6H0z"/>
</g>
</svg>
