<?xml version="1.0" encoding="utf-8"?>
<!-- Generator: Adobe Illustrator 24.3.0, SVG Export Plug-In . SVG Version: 6.00 Build 0)  -->
<svg version="1.1" id="Laag_1" xmlns="http://www.w3.org/2000/svg" xmlns:xlink="http://www.w3.org/1999/xlink" x="0px" y="0px"
	 width="190.7px" height="58.2px" viewBox="0 0 190.7 58.2" style="enable-background:new 0 0 190.7 58.2;" xml:space="preserve">
<style type="text/css">
	.st0{fill:#FFFFFF;}
</style>
<g>
	<path class="st0" d="M13.5,0H0v41h13.5c12.7,0,20.6-7.5,20.6-20.6C34.1,7.4,26.1,0,13.5,0z M13.5,33.6H8.1V7.4h5.5
		c7.6,0,12.5,4.8,12.5,12.7C26.1,28.5,21.1,33.6,13.5,33.6z"/>
	<path class="st0" d="M48.8,4.5l-13.9,41h8.4l2.9-9h15.5l2.9,9h8.4l-13.8-41H48.8z M48.4,29.7l5.3-16.6h0.6l5.3,16.6H48.4z"/>
	<polygon class="st0" points="104.7,43.6 104.1,43.6 86.7,17.1 78.5,17.1 78.5,58.2 86.2,58.2 86.2,31.5 86.9,31.5 104.7,58.2 
		112.3,58.2 112.3,17.1 104.7,17.1 	"/>
	<path class="st0" d="M138.3,35.1c-7,0-11.4-5.4-11.4-13.5c0-7.7,4.1-13.7,10.9-13.7c4.9,0,8,2.5,9,6.3h8.4
		c-1.6-9.7-9.1-13.8-17.5-13.8c-11.6,0-19.3,8.8-19.3,21.1c0,12.3,7.6,21.1,20,21.1c8.8,0,16-5,17.6-13.8h-8.3
		C146.4,32.5,143,35.1,138.3,35.1z"/>
	<polygon class="st0" points="170.6,39.2 170.6,29.1 187.4,29.1 187.4,22.2 170.6,22.2 170.6,12.6 190.1,12.6 190.1,5.4 163,5.4 
		163,46.4 190.7,46.4 190.7,39.2 	"/>
</g>
</svg>
