<?xml version="1.0" encoding="utf-8"?>
<!-- Generator: Adobe Illustrator 24.3.0, SVG Export Plug-In . SVG Version: 6.00 Build 0)  -->
<svg version="1.1" id="Laag_1" xmlns="http://www.w3.org/2000/svg" xmlns:xlink="http://www.w3.org/1999/xlink" x="0px" y="0px"
	 width="671.6px" height="699.9px" viewBox="0 0 671.6 699.9" style="enable-background:new 0 0 671.6 699.9;" xml:space="preserve"
	>
<style type="text/css">
	.st0{fill:#FFFFFF;}
</style>
<g>
	<path class="st0" d="M200,85.1V32.8c0-5.8-2.8-6.8-6.2-6.8h-14.6v-9.7h1.6c5.4,0,10.1-0.1,14.7-3.5c4.5-3.3,6-7.6,7.3-12.7h12.6
		v85.1H200z"/>
	<path class="st0" d="M269.5,85.1V32.8c0-5.8-2.8-6.8-6.2-6.8h-14.6v-9.7h1.6c5.4,0,10.1-0.1,14.7-3.5c4.5-3.3,6-7.6,7.3-12.7H285
		v85.1H269.5z"/>
	<path class="st0" d="M314.1,53.9V39.7h36.4v14.2H314.1z"/>
	<path class="st0" d="M384.8,85.1V32.8c0-5.8-2.8-6.8-6.2-6.8H364v-9.7h1.6c5.4,0,10.1-0.1,14.7-3.5c4.5-3.3,6-7.6,7.3-12.7h12.6
		v85.1H384.8z"/>
	<path class="st0" d="M479.2,65.5v19.5h-15.5V65.5h-37.3V54.4L463.7,0h15.5v52.5h11v13H479.2z M463.7,52.5c0-1.9,0.9-33.8,0.9-33.8
		l-21.9,33.8H463.7z"/>
</g>
<g>
	<path class="st0" d="M104.7,225l-38.9-62.4c0,0,1,60.7,1,62.4H50.5v-89h15l39.4,62.8c0,0-1.9-60.7-2-62.8h16.4v89H104.7z"/>
	<path class="st0" d="M165.3,226.9c-22.9,0-32.8-18.3-32.8-33.6c0-15.1,10-33.1,32.3-33.1c13.7,0,32.4,9.2,32.5,33.1
		C197.3,210.2,186.7,226.9,165.3,226.9z M165.3,213.1c11.1,0,16.3-9.5,16.3-19c0-10.1-5.4-20.3-17-20.3c-8.8,0-16.3,6.4-16.3,19.2
		C148.3,204,154.5,213.1,165.3,213.1z"/>
	<path class="st0" d="M238.5,225h-16.1L202,162h15.6l13.1,43.3l12.9-43.3h15.8L238.5,225z"/>
	<path class="st0" d="M279.8,196.6c0.3,3.1,3.2,15.6,17.8,15.6c10.7,0,15.2-6.6,16.5-8.7l12.9,7.4c-5,6.8-14.2,16-30.7,16
		c-18.8,0-32.4-12.9-32.4-33.8c0-22.6,15.2-33,31.6-33c24.1,0,31,19.3,31,36.4H279.8z M309.8,185.5c-0.3-3.1-2.3-13.2-14.1-13.2
		c-12.5,0-14.9,10.7-15.4,13.2H309.8z"/>
	<path class="st0" d="M352.3,162v7.1c2.6-3.5,10.1-8.9,19.8-8.9c7.2,0,14,3.3,17.5,9.6c4-5.2,10.5-9.6,20.3-9.6
		c12.7,0,21.7,6.7,21.7,21.8V225h-15v-38.6c0-2.4-0.5-12.2-10.6-12.2c-2.4,0-7.8,0.9-11.2,6.4c-2.9,4.5-3,9.7-3,14.7V225h-15v-38.7
		c0-4.9-2.1-12-10.3-12c-1.5,0-4.8,0.4-7.9,3c-6.2,5.3-6.3,14.1-6.3,21.2V225H337v-63H352.3z"/>
	<path class="st0" d="M461.3,136.1v31.2c6.4-6.4,15.1-7.2,18-7.2c14.6,0,27.7,12.9,27.7,33c0,22.4-15.2,33.8-28.6,33.8
		c-3.7,0-10.6-0.8-17.3-8.4v6.6h-15v-89H461.3z M476.4,212.6c8.2,0,15.1-7.1,15.1-20.5c0-8.4-4.9-18.1-15.8-18.1
		c-9.1,0-14.7,7.9-14.7,18.1C461,205.6,467.3,212.6,476.4,212.6z"/>
	<path class="st0" d="M530.7,196.6c0.3,3.1,3.2,15.6,17.8,15.6c10.7,0,15.2-6.6,16.5-8.7l12.9,7.4c-5,6.8-14.2,16-30.7,16
		c-18.8,0-32.4-12.9-32.4-33.8c0-22.6,15.2-33,31.6-33c24.1,0,31,19.3,31,36.4H530.7z M560.7,185.5c-0.3-3.1-2.3-13.2-14.1-13.2
		c-12.5,0-14.9,10.7-15.4,13.2H560.7z"/>
	<path class="st0" d="M602.8,162v8.9c4.8-10,15.8-10.3,18.8-10.3h1.3v15.5c-3.2,0-15.2,0-18.9,11.6c-1.1,3.5-1.1,6.7-1.1,10.3v27
		h-14.6v-63H602.8z"/>
</g>
<g>
	<path class="st0" d="M199.7,352.7c14.6-10.5,25.2-21,29.7-26.1c2-2.3,9.2-10.1,9.2-20.8c0-6.9-3.7-12.7-11.2-12.7
		c-11.6,0-12,11.6-12,18.1v1.6l-15.8-1.5v-0.6c0-10.7,3.3-17.6,6-21.4c2.8-3.9,10.2-10.7,23.1-10.7c10.1,0,16.4,4.3,19.3,6.9
		c5.5,4.9,7.9,12.5,7.9,19.8c0,2.5-0.3,7.8-3.3,14.1c-5,10.6-14.9,18-23.4,25.3c-3,2.5-5.9,5-9.1,7.2h37.3V365h-57.8V352.7z"/>
	<path class="st0" d="M297.6,366.2c-29.6,0-30.9-30.1-30.9-44.1c0-31.1,13.4-43.5,31.6-43.5c16,0,30.5,11.1,30.5,43.6
		C328.9,357.1,312.5,366.2,297.6,366.2z M297.9,352.2c12.1,0,14.6-12.1,14.6-29.7c0-12.2-0.5-29.9-14.4-29.9
		c-12.7,0-15.1,14.5-15.1,30.4C283,332.4,283,352.2,297.9,352.2z"/>
	<path class="st0" d="M338.9,352.7c14.6-10.5,25.2-21,29.7-26.1c2-2.3,9.2-10.1,9.2-20.8c0-6.9-3.7-12.7-11.2-12.7
		c-11.6,0-12,11.6-12,18.1v1.6l-15.8-1.5v-0.6c0-10.7,3.3-17.6,6-21.4c2.8-3.9,10.2-10.7,23.1-10.7c10.1,0,16.4,4.3,19.3,6.9
		c5.5,4.9,7.9,12.5,7.9,19.8c0,2.5-0.3,7.8-3.3,14.1c-5,10.6-14.9,18-23.4,25.3c-3,2.5-5.9,5-9.1,7.2h37.3V365h-57.8V352.7z"/>
	<path class="st0" d="M431.7,365v-52.3c0-5.8-2.8-6.8-6.2-6.8h-14.6v-9.7h1.6c5.4,0,10.1-0.1,14.7-3.5c4.5-3.3,6-7.6,7.3-12.7h12.6
		V365H431.7z"/>
</g>
<g>
	<path class="st0" d="M195.6,517.1c0,7.6-0.1,11.3-1.5,15.8c-2.9,8.9-13.1,20.4-34.9,20.4c-14.2,0-29.2-5.5-33.9-20.2
		c-1.4-4.5-1.4-8.7-1.4-18.1V462h16.8v54.7c0,5.3,0,7.2,0.9,9.8c1.6,5.3,6.4,10.6,18.3,10.6c2.1,0,14.4,0,18-10.1
		c1-2.9,1.1-5.3,1.1-11.2V462h16.6V517.1z"/>
	<path class="st0" d="M205,488h9.2v-22.4h15.1V488h13.5v10.7h-13.5V530c0,2.4,0.1,5.2,1.5,6.7c1.8,1.9,5,1.9,5.7,1.9
		c2.1,0,4.4-0.3,6.3-0.8v12.7c-2,0.3-5.7,1-10.8,1c-13.5,0-17.8-4.9-17.8-15.2v-37.6H205V488z"/>
	<path class="st0" d="M265.5,488v8.9c4.8-10,15.8-10.3,18.8-10.3h1.3v15.5c-3.2,0-15.2,0-18.9,11.6c-1.1,3.5-1.1,6.7-1.1,10.3v27
		h-14.6v-63H265.5z"/>
	<path class="st0" d="M304,522.5c0.3,3.1,3.2,15.6,17.8,15.6c10.7,0,15.2-6.6,16.5-8.7l12.9,7.4c-5,6.8-14.2,16-30.7,16
		c-18.8,0-32.4-12.9-32.4-33.8c0-22.6,15.2-33,31.6-33c24.1,0,31,19.3,31,36.4H304z M334,511.4c-0.3-3.2-2.3-13.2-14.1-13.2
		c-12.5,0-14.9,10.7-15.4,13.2H334z"/>
	<path class="st0" d="M416.1,533.2c-4.4,12.5-15.9,19.7-28.5,19.7c-18.5,0-31.1-14.6-31.1-33.4c0-16.4,11.1-33.4,31.9-33.4
		c16.4,0,24.7,12,27.1,17.9l-13.5,6.3c-1.8-5.4-6.2-10.7-14.4-10.7c-10.2,0-15.5,9.1-15.5,19.5c0,11,5.7,19.7,15.9,19.7
		c10.7,0,14.1-9.3,15.2-12.3L416.1,533.2z"/>
	<path class="st0" d="M465.6,551v-36.9c0-9.2-4.5-13.6-11.8-13.6c-8.2,0-15.8,6.2-15.8,15.6V551h-15.1v-89H438v32.4
		c3.8-3.9,10.6-8.3,19.9-8.3c13.7,0,22.6,7.8,22.6,22.3V551H465.6z"/>
	<path class="st0" d="M487.6,488h9.2v-22.4h15.1V488h13.5v10.7h-13.5V530c0,2.4,0.1,5.2,1.5,6.7c1.8,1.9,5,1.9,5.7,1.9
		c2.1,0,4.4-0.3,6.3-0.8v12.7c-2,0.3-5.7,1-10.8,1c-13.5,0-17.8-4.9-17.8-15.2v-37.6h-9.2V488z"/>
	<path class="st0" d="M546.8,553.1c0,9.6-6.7,13.6-15.8,15.4v-7.3c5.8-0.6,6.8-5.3,6.8-10.2h-7.8v-17.3h16.8V553.1z"/>
</g>
<g>
	<path class="st0" d="M54.2,691l-38.9-62.4c0,0,1,60.7,1,62.4H0v-89h15l39.4,62.8c0,0-1.9-60.7-2-62.8h16.4v89H54.2z"/>
	<path class="st0" d="M98,662.5c0.3,3.2,3.2,15.6,17.8,15.6c10.7,0,15.2-6.6,16.5-8.7l12.9,7.4c-5,6.8-14.2,16-30.7,16
		C95.6,692.9,82,680,82,659.1c0-22.6,15.2-33,31.6-33c24.1,0,31,19.3,31,36.4H98z M128,651.4c-0.3-3.2-2.3-13.2-14.1-13.2
		c-12.5,0-14.9,10.7-15.4,13.2H128z"/>
	<path class="st0" d="M147.8,628h9.2v-22.4h15.1V628h13.5v10.7h-13.5v31.2c0,2.4,0.1,5.2,1.5,6.7c1.8,1.9,5,1.9,5.7,1.9
		c2.1,0,4.4-0.3,6.3-0.8v12.7c-2,0.3-5.7,1-10.8,1c-13.5,0-17.8-4.9-17.8-15.2v-37.5h-9.2V628z"/>
	<path class="st0" d="M236.2,691v-36.9c0-9.2-4.5-13.6-11.8-13.6c-8.2,0-15.8,6.2-15.8,15.6V691h-15.1v-89h15.1v32.4
		c3.8-3.9,10.6-8.3,19.9-8.3c13.7,0,22.6,7.8,22.6,22.3V691H236.2z"/>
	<path class="st0" d="M278.2,662.5c0.3,3.2,3.2,15.6,17.8,15.6c10.7,0,15.2-6.6,16.5-8.7l12.9,7.4c-5,6.8-14.2,16-30.7,16
		c-18.8,0-32.4-12.9-32.4-33.8c0-22.6,15.2-33,31.6-33c24.1,0,31,19.3,31,36.4H278.2z M308.2,651.4c-0.3-3.2-2.3-13.2-14.1-13.2
		c-12.5,0-14.9,10.7-15.4,13.2H308.2z"/>
	<path class="st0" d="M350.3,628v8.9c4.8-10,15.8-10.3,18.8-10.3h1.3v15.5c-3.2,0-15.2,0-18.9,11.6c-1.1,3.5-1.1,6.7-1.1,10.3v27
		h-14.6v-63H350.3z"/>
	<path class="st0" d="M379.3,691v-89h15.4v89H379.3z"/>
	<path class="st0" d="M446.4,691l-0.4-4.9c-4.2,3.3-10.8,6.4-18.5,6.4c-14.4,0-22.9-8.7-22.9-19.3c0-13.7,10.5-19.2,22.4-21.3
		c9.5-1.8,15.4-3.3,19.4-4.7c0-4.8-1.4-9.5-10.8-9.5c-11.5,0-12.7,6.2-12.7,9.5l-15.4-0.9c0.3-4.2,1.1-20.3,27.6-20.3
		c18.5,0,26.5,6.8,26.5,17.9v36.8c0,4.8,0.3,6.2,2.8,10.2H446.4z M446.4,659.6c-2.5,1.3-6.2,2.6-12,3.5c-6.9,1-13.9,2.4-13.9,8.7
		c0,4.2,2.8,7.7,10.3,7.7c6.9,0,15.5-3.5,15.5-11.5V659.6z"/>
	<path class="st0" d="M491.6,628v7.4c5.7-8.6,16.9-9.3,19.4-9.3c13.4,0,20.4,8.7,20.4,21V691h-14.9v-35.4c0-6.9-1.8-14.7-11.1-14.7
		c-1.6,0-4.8,0.3-7.9,2.9c-4.5,3.8-5.9,9.1-5.9,19.9V691h-15.2v-63H491.6z"/>
	<path class="st0" d="M588,691v-6c-1.3,1.5-6.3,7.9-17.5,7.9c-13.2,0-28-9.2-28-32.1c0-22.6,13.7-34.7,28.6-34.7
		c5.2,0,12.7,1.9,16.9,7.1V602h15v89H588z M573.3,679.1c8.2,0,14.6-6.8,14.6-18.5c0-9.6-2.8-20.5-14.5-20.5c-9.5,0-15.1,8.4-15.1,19
		C558.3,668.4,562.2,679.1,573.3,679.1z"/>
	<path class="st0" d="M659.2,647.8c-3.4-6.7-9.8-9.6-17.1-9.6c-2.9,0-10.5,0.9-10.5,6.6c0,4.2,3.8,5.4,12.9,7.1l10.2,1.9
		c9.6,1.8,16.9,7.4,16.9,17.6c0,11.6-11,21.5-28.4,21.5s-26.7-7.7-30.2-11.3l11.3-9.2c3,4,8.7,8.1,18.1,8.1c9.1,0,12.3-4.7,12.3-7.4
		c0-3.7-3.5-5-9.3-6l-7.8-1.4c-4.9-0.9-21.9-4-21.9-18.9c0-12.5,12-20.5,27.1-20.5c4.9,0,17.6,0.8,27.1,11.7L659.2,647.8z"/>
</g>
</svg>
