<?xml version="1.0" encoding="utf-8"?>
<!-- Generator: Adobe Illustrator 22.0.0, SVG Export Plug-In . SVG Version: 6.00 Build 0)  -->
<svg version="1.1" id="Laag_1" xmlns="http://www.w3.org/2000/svg" xmlns:xlink="http://www.w3.org/1999/xlink" x="0px" y="0px"
	 viewBox="0 0 127 34.8" style="enable-background:new 0 0 127 34.8;" xml:space="preserve">
<style type="text/css">
	.st0{fill:#FFFFFF;}
</style>
<path class="st0" d="M8.2,14.8L9.5,1.5h4.6v28.5h-3l0-10l0.2-11.4h-0.3L9.3,29.9H5.9L4.1,8.5H3.9l0.2,11.4v10h-3V1.5h4.7l1.3,13.4
	l0.4,6.8h0.3L8.2,14.8z"/>
<path class="st0" d="M23,27.9v2h-6.7V1.5h6.6v2h-3.2v10.7h3v2h-3v11.8H23z"/>
<path class="st0" d="M32.3,3.5h-2.7v26.5h-3.4V3.5h-2.7v-2l8.8,0V3.5z"/>
<path class="st0" d="M39.4,29.9l-1.1-11.6h-1.5v11.6h-3.3V1.5H38c2.7,0,4.4,0.9,4.4,2.9v10.9c0,1-0.5,1.7-1.2,2.1l1.5,12.5H39.4z
	 M37.6,16.3c0.9,0,1.3-0.3,1.3-1.1V4.6c0-0.7-0.5-1.1-1.3-1.1h-0.9v12.9H37.6z"/>
<path class="st0" d="M53.4,4.4V27c0,2-1.6,3.1-4.5,3.1c-3,0-4.5-1.1-4.5-3.1V4.4c0-2,1.6-3.1,4.5-3.1C51.8,1.3,53.4,2.4,53.4,4.4z
	 M49.9,4.2c0-0.5-0.4-0.9-1.1-0.9c-0.7,0-1.1,0.3-1.1,0.9v22.9c0,0.6,0.5,0.9,1.1,0.9c0.7,0,1.1-0.4,1.1-0.9V4.2z"/>
<path class="st0" d="M58.8,20.4v9.5h-3.3V1.5h4.6c2.7,0,4.5,1,4.5,2.9v13.1c0,2-1.9,3-4.5,3H58.8z M61.1,17.3V4.5
	c0-0.7-0.5-1.1-1.3-1.1h-1v14.9h1C60.7,18.4,61.1,18,61.1,17.3z"/>
<path class="st0" d="M75.2,4.4V27c0,2-1.6,3.1-4.5,3.1c-3,0-4.5-1.1-4.5-3.1V4.4c0-2,1.6-3.1,4.5-3.1C73.7,1.3,75.2,2.4,75.2,4.4z
	 M71.8,4.2c0-0.5-0.4-0.9-1.1-0.9c-0.7,0-1.1,0.3-1.1,0.9v22.9c0,0.6,0.5,0.9,1.1,0.9c0.7,0,1.1-0.4,1.1-0.9V4.2z"/>
<path class="st0" d="M83.9,27.9v2h-6.5V1.5h3.3v26.5H83.9z"/>
<path class="st0" d="M88.3,1.5v28.5H85V1.5H88.3z"/>
<path class="st0" d="M96,11.9V4.1c0-0.5-0.4-0.8-1.1-0.8c-0.7,0-1.1,0.3-1.1,0.7v7.7c0,0.9,0.3,1.3,1.3,1.7l1.5,0.5
	c1.8,0.7,2.8,1.4,2.8,3.2v9.9c0,1.9-1.7,2.9-4.5,2.9c-2.8,0-4.6-1-4.6-2.8v-9.4h3.4v9.3c0,0.5,0.4,0.9,1.2,0.9
	c0.7,0,1.1-0.4,1.1-0.8v-9.3c0-1-0.4-1.4-1.4-1.8l-1.6-0.6c-1.8-0.7-2.7-1.5-2.7-3.3V4.1c0-1.6,1.5-2.7,4.6-2.7c2.9,0,4.4,1,4.4,2.7
	v7.9H96z"/>
<path class="st0" d="M116.4,15.1l-0.3,3.3h2.9l-0.3,1.7h-2.8L114.5,33h-2.8l1.4-12.8h-2.4L109.2,33h-2.8l1.4-12.8h-3.1l0.3-1.7h3
	l0.3-3.3h-2.8l0.3-1.7h2.7l1.3-12.1h2.8l-1.3,12.1h2.4L115,1.3h2.8l-1.3,12.1h3.1l-0.3,1.7H116.4z M113.5,15.1h-2.4l-0.3,3.3h2.4
	L113.5,15.1z"/>
<path class="st0" d="M125.3,1.4v28.5H122V6h-1.9V4.5c2.5-0.2,2.9-1.6,3-3.1H125.3z"/>
<path class="st0" d="M0,33.7v-1.5h100.3v1.5H0z"/>
<path class="st0" d="M119.9,33.7v-1.5h6.4v1.5H119.9z"/>
</svg>
