<?xml version="1.0" encoding="utf-8"?>
<!-- Generator: Adobe Illustrator 24.0.0, SVG Export Plug-In . SVG Version: 6.00 Build 0)  -->
<svg version="1.1" id="Laag_1" xmlns="http://www.w3.org/2000/svg" xmlns:xlink="http://www.w3.org/1999/xlink" x="0px" y="0px"
	 width="46.1px" height="24px" viewBox="0 0 46.1 24" style="enable-background:new 0 0 46.1 24;" xml:space="preserve">
<style type="text/css">
	.st0{clip-path:url(#SVGID_2_);}
	.st1{fill:#007CF9;}
</style>
<g>
	<g>
		<defs>
			<rect id="SVGID_1_" y="0" width="46.1" height="24"/>
		</defs>
		<clipPath id="SVGID_2_">
			<use xlink:href="#SVGID_1_"  style="overflow:visible;"/>
		</clipPath>
		<path class="st0" d="M30.1,18.2h4.2l1.9-7l1.9,7h4.1l4-12.5H42l-2,7.5l-1.9-7.5h-3.4l-2.1,7.5l-1.8-7.5h-4.5L30.1,18.2z
			 M19.9,15.6c-1,0-1.5-0.5-1.5-1.2c0-1,0.8-1.4,2.5-1.4H22v0.8C22,14.9,21.1,15.6,19.9,15.6 M18.4,18.5c2,0,3.1-0.8,3.7-1.7v1.5
			h4.2v-8.1c0-3.3-2.2-4.7-5.6-4.7s-5.8,1.5-6,4.5h4c0.1-0.8,0.5-1.5,1.7-1.5c1.4,0,1.6,0.8,1.6,2v0.3h-1.2c-4.2,0-6.6,1.1-6.6,4.1
			C14.2,17.4,16.2,18.5,18.4,18.5 M7.2,18.2h4.3V8.6H14V5.7h-2.5V4.6c0-0.8,0.4-1.4,1.4-1.4c0.5,0,0.9,0.1,1.2,0.2V0.3
			c-0.6-0.1-1.2-0.3-2-0.3c-3,0-4.9,1.5-4.9,4.6v1.1H5.6v2.9h1.6V18.2z M2.3,4.5c1.3,0,2.4-0.9,2.4-2.2s-1-2.2-2.4-2.2S0,1,0,2.3
			S1,4.5,2.3,4.5 M0.2,18.2h4.3V5.7H0.2V18.2z"/>
	</g>
</g>
<rect x="14.7" y="21.1" class="st1" width="11.6" height="2.9"/>
</svg>
