<?xml version="1.0" encoding="utf-8"?>
<!-- Generator: Adobe Illustrator 24.3.0, SVG Export Plug-In . SVG Version: 6.00 Build 0)  -->
<svg version="1.1" id="Laag_1" xmlns="http://www.w3.org/2000/svg" xmlns:xlink="http://www.w3.org/1999/xlink" x="0px" y="0px"
	 width="550.3px" height="50.9px" viewBox="0 0 550.3 50.9" style="enable-background:new 0 0 550.3 50.9;" xml:space="preserve">
<style type="text/css">
	.st0{fill:#FFFFFF;}
</style>
<g>
	<path class="st0" d="M36.9,17.5c-2.9-3.5-6.5-5.3-10.7-5.3c-1.9,0-3.6,0.3-5.2,1c-1.6,0.7-3,1.6-4.1,2.8c-1.2,1.2-2.1,2.6-2.7,4.2
		c-0.7,1.6-1,3.4-1,5.2c0,1.9,0.3,3.7,1,5.3c0.7,1.6,1.6,3,2.8,4.2c1.2,1.2,2.5,2.1,4.1,2.8c1.6,0.7,3.3,1,5.1,1
		c4,0,7.6-1.7,10.8-5.1v14.8l-1.3,0.4c-1.9,0.7-3.7,1.2-5.4,1.5c-1.7,0.3-3.3,0.5-4.9,0.5c-3.3,0-6.5-0.6-9.6-1.9
		c-3-1.3-5.7-3-8.1-5.3c-2.3-2.3-4.2-5-5.6-8.1C0.7,32.5,0,29,0,25.3c0-3.7,0.7-7.1,2.1-10.2c1.4-3.1,3.2-5.8,5.6-8
		c2.3-2.2,5-4,8.1-5.2C18.8,0.6,22,0,25.4,0c1.9,0,3.8,0.2,5.7,0.6c1.9,0.4,3.8,1,5.9,1.9V17.5z"/>
	<path class="st0" d="M59.4,20h18.1V1.3H90v48.2H77.5V29.7H59.4v19.9H46.9V1.3h12.5V20z"/>
	<path class="st0" d="M127.6,12h-14.9V20h14.1v10.6h-14.1v8.3h14.9v10.6h-27.4V1.3h27.4V12z"/>
	<path class="st0" d="M171.3,17.5c-2.9-3.5-6.5-5.3-10.7-5.3c-1.9,0-3.6,0.3-5.2,1c-1.6,0.7-3,1.6-4.1,2.8c-1.2,1.2-2.1,2.6-2.7,4.2
		c-0.7,1.6-1,3.4-1,5.2c0,1.9,0.3,3.7,1,5.3c0.7,1.6,1.6,3,2.8,4.2c1.2,1.2,2.5,2.1,4.1,2.8c1.6,0.7,3.3,1,5.1,1
		c4,0,7.6-1.7,10.8-5.1v14.8l-1.3,0.4c-1.9,0.7-3.7,1.2-5.4,1.5c-1.7,0.3-3.3,0.5-4.9,0.5c-3.3,0-6.5-0.6-9.6-1.9
		c-3-1.3-5.7-3-8.1-5.3c-2.3-2.3-4.2-5-5.6-8.1c-1.4-3.1-2.1-6.6-2.1-10.3c0-3.7,0.7-7.1,2.1-10.2c1.4-3.1,3.2-5.8,5.6-8
		c2.3-2.2,5-4,8.1-5.2c3.1-1.3,6.3-1.9,9.7-1.9c1.9,0,3.8,0.2,5.7,0.6c1.9,0.4,3.8,1,5.9,1.9V17.5z"/>
	<path class="st0" d="M193.8,21.2l15.3-19.9h15.5l-19.1,22.8l20.9,25.4h-16.2l-16.3-20.9v20.9h-12.5V1.3h12.5V21.2z"/>
	<path class="st0" d="M272,12v37.6h-12.5V12h-10.3V1.3h33.1V12H272z"/>
	<path class="st0" d="M300.4,20h18.1V1.3H331v48.2h-12.5V29.7h-18.1v19.9h-12.5V1.3h12.5V20z"/>
	<path class="st0" d="M368.6,12h-14.9V20h14.1v10.6h-14.1v8.3h14.9v10.6h-27.4V1.3h27.4V12z"/>
	<path class="st0" d="M399.3,1.3H418c4.4,0,7.8,1.1,10.1,3.2c2.3,2.1,3.5,5.2,3.5,9.2c0,2.4-0.4,4.4-1.3,6c-0.9,1.6-2.2,3-4,4.1
		c1.8,0.3,3.3,0.9,4.6,1.6c1.3,0.7,2.3,1.6,3.1,2.6c0.8,1,1.4,2.2,1.7,3.5c0.3,1.3,0.5,2.6,0.5,4.1c0,2.3-0.4,4.3-1.2,6
		c-0.8,1.7-1.9,3.2-3.3,4.4c-1.4,1.2-3.2,2.1-5.2,2.7c-2,0.6-4.3,0.9-6.9,0.9h-20.1V1.3z M411.9,20.3h2.3c3.9,0,5.9-1.6,5.9-4.7
		c0-3.1-2-4.7-5.9-4.7h-2.3V20.3z M411.9,39.8h2.8c3.2,0,5.4-0.4,6.8-1.2c1.4-0.8,2-2.1,2-3.9c0-1.8-0.7-3.1-2-3.9
		c-1.4-0.8-3.6-1.2-6.8-1.2h-2.8V39.8z"/>
	<path class="st0" d="M471,12h-14.9V20h14.1v10.6h-14.1v8.3H471v10.6h-27.4V1.3H471V12z"/>
	<path class="st0" d="M506.5,13.7c-1.4-1.1-2.7-1.9-4.1-2.5c-1.4-0.5-2.7-0.8-4-0.8c-1.6,0-2.9,0.4-4,1.2c-1,0.8-1.5,1.8-1.5,3
		c0,0.9,0.3,1.6,0.8,2.1c0.5,0.6,1.2,1,2,1.4c0.8,0.4,1.8,0.8,2.8,1.1c1,0.3,2.1,0.6,3.1,1c4.1,1.4,7.1,3.2,9,5.5
		c1.9,2.3,2.8,5.3,2.8,8.9c0,2.5-0.4,4.7-1.2,6.7c-0.8,2-2,3.7-3.6,5.1c-1.6,1.4-3.6,2.5-5.9,3.3c-2.3,0.8-5,1.2-7.9,1.2
		c-6.1,0-11.7-1.8-16.9-5.4l5.4-10.1c1.9,1.7,3.7,2.9,5.6,3.7c1.8,0.8,3.6,1.2,5.4,1.2c2,0,3.6-0.5,4.6-1.4c1-0.9,1.5-2,1.5-3.2
		c0-0.7-0.1-1.4-0.4-1.9c-0.3-0.5-0.7-1-1.3-1.5c-0.6-0.4-1.4-0.9-2.3-1.2c-1-0.4-2.1-0.8-3.5-1.3c-1.6-0.5-3.2-1.1-4.8-1.7
		c-1.6-0.6-2.9-1.4-4.2-2.5c-1.2-1-2.2-2.3-2.9-3.9c-0.7-1.6-1.1-3.5-1.1-5.9c0-2.4,0.4-4.6,1.2-6.5c0.8-1.9,1.9-3.6,3.3-5
		c1.4-1.4,3.2-2.5,5.2-3.2c2.1-0.8,4.4-1.2,6.9-1.2c2.4,0,4.9,0.3,7.5,1c2.6,0.7,5.1,1.6,7.5,2.9L506.5,13.7z"/>
	<path class="st0" d="M540,12v37.6h-12.5V12h-10.3V1.3h33.1V12H540z"/>
</g>
</svg>
