<?xml version="1.0" encoding="utf-8"?>
<!-- Generator: Adobe Illustrator 24.3.0, SVG Export Plug-In . SVG Version: 6.00 Build 0)  -->
<svg version="1.1" id="Laag_1" xmlns="http://www.w3.org/2000/svg" xmlns:xlink="http://www.w3.org/1999/xlink" x="0px" y="0px"
	 width="236.6px" height="15.9px" viewBox="0 0 236.6 15.9" style="enable-background:new 0 0 236.6 15.9;" xml:space="preserve">
<style type="text/css">
	.st0{fill:#FFFFFF;}
</style>
<g>
	<path class="st0" d="M8.9,0.4v10.5c0,0.4,0,0.8-0.1,1.2c0,0.4-0.1,0.7-0.2,1c-0.2,0.4-0.4,0.8-0.7,1.2c-0.3,0.4-0.6,0.7-1,0.9
		c-0.4,0.2-0.8,0.4-1.3,0.6s-1,0.2-1.5,0.2c-1.6,0-2.9-0.7-3.9-2.2l2.6-2.6c0.1,0.5,0.2,0.8,0.4,1.1c0.2,0.3,0.5,0.4,0.8,0.4
		c0.7,0,1.1-0.6,1.1-1.7V0.4H8.9z"/>
	<path class="st0" d="M11.6,8c0-1.1,0.2-2.2,0.6-3.1c0.4-1,1-1.8,1.7-2.5c0.7-0.7,1.6-1.3,2.6-1.7c1-0.4,2.1-0.6,3.4-0.6
		c1.2,0,2.3,0.2,3.4,0.6c1,0.4,1.9,1,2.6,1.7c0.7,0.7,1.3,1.6,1.7,2.5c0.4,1,0.6,2,0.6,3.1s-0.2,2.2-0.6,3.1c-0.4,1-1,1.8-1.7,2.5
		c-0.7,0.7-1.6,1.3-2.6,1.7c-1,0.4-2.1,0.6-3.4,0.6c-1.2,0-2.3-0.2-3.4-0.6s-1.9-1-2.6-1.7c-0.7-0.7-1.3-1.6-1.7-2.5
		C11.8,10.1,11.6,9.1,11.6,8z M15.7,8c0,0.6,0.1,1.2,0.3,1.7s0.5,0.9,0.9,1.3c0.4,0.4,0.8,0.7,1.4,0.9c0.5,0.2,1.1,0.3,1.6,0.3
		s1.1-0.1,1.6-0.3c0.5-0.2,1-0.5,1.4-0.9c0.4-0.4,0.7-0.8,0.9-1.3s0.3-1.1,0.3-1.7S24,6.8,23.8,6.3c-0.2-0.5-0.5-0.9-0.9-1.3
		c-0.4-0.4-0.8-0.7-1.4-0.9c-0.5-0.2-1.1-0.3-1.6-0.3s-1.1,0.1-1.6,0.3c-0.5,0.2-1,0.5-1.4,0.9c-0.4,0.4-0.7,0.8-0.9,1.3
		C15.8,6.8,15.7,7.4,15.7,8z"/>
	<path class="st0" d="M34.9,0.4v15.1h-3.9V0.4H34.9z"/>
	<path class="st0" d="M38.2,15.5V0.4h3.9l7.2,9.2V0.4h3.9v15.1h-3.9l-7.2-9.2v9.2H38.2z"/>
	<path class="st0" d="M69.4,3.7v11.8h-3.9V3.7h-3.2V0.4h10.4v3.3H69.4z"/>
	<path class="st0" d="M78.4,6.2h5.7V0.4H88v15.1h-3.9V9.3h-5.7v6.2h-3.9V0.4h3.9V6.2z"/>
	<path class="st0" d="M100,3.7h-4.7v2.5h4.4v3.3h-4.4v2.6h4.7v3.3h-8.6V0.4h8.6V3.7z"/>
	<path class="st0" d="M113.9,0.4v11.8h4.7v3.3H110V0.4H113.9z"/>
	<path class="st0" d="M124.7,0.4v15.1h-3.9V0.4H124.7z"/>
	<path class="st0" d="M130.8,0.4l3.6,9.2l3.7-9.2h4.3L136,15.5h-3.1l-6.3-15.1H130.8z"/>
	<path class="st0" d="M152.7,3.7H148v2.5h4.4v3.3H148v2.6h4.7v3.3h-8.6V0.4h8.6V3.7z"/>
	<path class="st0" d="M164,4.3c-0.4-0.3-0.9-0.6-1.3-0.8c-0.4-0.2-0.8-0.2-1.2-0.2c-0.5,0-0.9,0.1-1.2,0.4c-0.3,0.2-0.5,0.6-0.5,0.9
		c0,0.3,0.1,0.5,0.2,0.7s0.4,0.3,0.6,0.4c0.3,0.1,0.6,0.2,0.9,0.3c0.3,0.1,0.7,0.2,1,0.3c1.3,0.4,2.2,1,2.8,1.7
		c0.6,0.7,0.9,1.6,0.9,2.8c0,0.8-0.1,1.5-0.4,2.1c-0.3,0.6-0.6,1.2-1.1,1.6c-0.5,0.4-1.1,0.8-1.8,1s-1.5,0.4-2.5,0.4
		c-1.9,0-3.7-0.6-5.3-1.7l1.7-3.2c0.6,0.5,1.2,0.9,1.7,1.2s1.1,0.4,1.7,0.4c0.6,0,1.1-0.1,1.4-0.4s0.5-0.6,0.5-1
		c0-0.2,0-0.4-0.1-0.6c-0.1-0.2-0.2-0.3-0.4-0.5c-0.2-0.1-0.4-0.3-0.7-0.4c-0.3-0.1-0.7-0.3-1.1-0.4c-0.5-0.2-1-0.3-1.5-0.5
		c-0.5-0.2-0.9-0.5-1.3-0.8s-0.7-0.7-0.9-1.2s-0.3-1.1-0.3-1.9c0-0.7,0.1-1.4,0.4-2c0.2-0.6,0.6-1.1,1-1.6c0.4-0.4,1-0.8,1.6-1
		c0.6-0.2,1.4-0.4,2.2-0.4c0.7,0,1.5,0.1,2.3,0.3c0.8,0.2,1.6,0.5,2.3,0.9L164,4.3z"/>
	<path class="st0" d="M181.4,15.5h-4.9l-3.7-5.8v5.8h-3.9V0.4h6.1c0.8,0,1.6,0.1,2.2,0.4c0.6,0.2,1.1,0.6,1.5,1
		c0.4,0.4,0.7,0.9,0.9,1.5c0.2,0.6,0.3,1.2,0.3,1.8c0,1.1-0.3,2.1-0.8,2.8c-0.6,0.7-1.4,1.2-2.5,1.4L181.4,15.5z M172.8,7.2h0.7
		c0.8,0,1.4-0.2,1.8-0.5c0.4-0.3,0.6-0.8,0.6-1.4c0-0.6-0.2-1.1-0.6-1.4c-0.4-0.3-1-0.5-1.8-0.5h-0.7V7.2z"/>
	<path class="st0" d="M191.8,3.7h-4.7v2.5h4.4v3.3h-4.4v2.6h4.7v3.3h-8.6V0.4h8.6V3.7z"/>
	<path class="st0" d="M204.1,12.9h-5.6l-0.9,2.6h-4.2l5.7-15.1h4.3l5.7,15.1H205L204.1,12.9z M203,9.9l-1.8-5l-1.8,5H203z"/>
	<path class="st0" d="M210.4,15.5l2.6-15.1h3.9l3,8l3-8h3.9l2.6,15.1h-3.9l-1.3-8.7l-3.6,8.7H219l-3.4-8.7l-1.3,8.7H210.4z"/>
	<path class="st0" d="M231.9,13.6c0-0.3,0.1-0.6,0.2-0.9c0.1-0.3,0.3-0.5,0.5-0.8c0.2-0.2,0.5-0.4,0.8-0.5c0.3-0.1,0.6-0.2,0.9-0.2
		s0.6,0.1,0.9,0.2c0.3,0.1,0.5,0.3,0.8,0.5c0.2,0.2,0.4,0.5,0.5,0.8c0.1,0.3,0.2,0.6,0.2,0.9c0,0.3-0.1,0.6-0.2,0.9
		s-0.3,0.5-0.5,0.8c-0.2,0.2-0.5,0.4-0.8,0.5c-0.3,0.1-0.6,0.2-0.9,0.2s-0.6-0.1-0.9-0.2c-0.3-0.1-0.5-0.3-0.8-0.5
		c-0.2-0.2-0.4-0.5-0.5-0.8S231.9,13.9,231.9,13.6z M232.3,10.4v-10h3.8v10H232.3z"/>
</g>
</svg>
