<?xml version="1.0" encoding="utf-8"?>
<!-- Generator: Adobe Illustrator 24.3.0, SVG Export Plug-In . SVG Version: 6.00 Build 0)  -->
<svg version="1.1" id="Laag_1" xmlns="http://www.w3.org/2000/svg" xmlns:xlink="http://www.w3.org/1999/xlink" x="0px" y="0px"
	 width="157.3px" height="157.3px" viewBox="0 0 157.3 157.3" style="enable-background:new 0 0 157.3 157.3;" xml:space="preserve"
	>
<style type="text/css">
	.st0{fill:#FFF042;}
	.st1{fill:#1D1D1B;}
</style>
<g>
	<path class="st0" d="M66.4,156.4c42.9,6.8,83.2-22.5,90-65.4C163.2,48.1,133.9,7.8,91,1C48.1-5.8,7.8,23.5,1,66.4
		C-5.8,109.3,23.5,149.6,66.4,156.4"/>
	<g>
		<path class="st1" d="M43.3,46c-0.1,0.7-0.3,1.3-0.6,1.8c-0.3,0.5-0.7,1-1.3,1.4c-0.5,0.4-1.1,0.7-1.7,0.8c-0.6,0.2-1.3,0.2-2,0.1
			c-0.6-0.1-1.2-0.3-1.7-0.6c-0.5-0.3-0.9-0.7-1.3-1.2c-0.3-0.5-0.6-1-0.7-1.6c-0.1-0.6-0.2-1.2-0.1-1.8l0.2-1.4l2.9,0.5l-0.2,1.4
			c-0.1,0.4,0,0.8,0.3,1.2c0.3,0.4,0.6,0.6,1.1,0.6c0.6,0.1,1.1,0,1.5-0.3c0.4-0.3,0.6-0.7,0.7-1.3c0-0.3,0-0.6,0-0.8
			c-0.1-0.2-0.2-0.4-0.3-0.6c-0.2-0.2-0.3-0.3-0.6-0.4c-0.2-0.1-0.5-0.2-0.7-0.3c-0.6-0.2-1.2-0.5-1.7-0.8c-0.5-0.3-0.9-0.7-1.3-1.1
			c-0.3-0.4-0.6-0.9-0.7-1.5c-0.1-0.6-0.1-1.2,0-1.9c0.1-0.6,0.3-1.2,0.6-1.7c0.3-0.5,0.7-0.9,1.2-1.3c0.5-0.4,1-0.6,1.6-0.8
			c0.6-0.2,1.2-0.2,1.8-0.1c0.6,0.1,1.2,0.3,1.7,0.6c0.5,0.3,0.9,0.7,1.3,1.2c0.3,0.5,0.6,1,0.7,1.6s0.2,1.2,0.1,1.8l-0.1,0.9
			l-2.9-0.5l0.1-0.9c0.1-0.4,0-0.8-0.3-1.2c-0.3-0.4-0.6-0.6-1.1-0.7c-0.4-0.1-0.8,0-1.2,0.3c-0.4,0.2-0.6,0.6-0.7,1.1
			c-0.1,0.3-0.1,0.6,0,0.8c0,0.2,0.1,0.4,0.2,0.6c0.1,0.2,0.3,0.3,0.5,0.4s0.5,0.2,0.7,0.3c0.6,0.2,1.1,0.5,1.7,0.8
			c0.5,0.3,1,0.7,1.4,1.2c0.4,0.4,0.7,0.9,0.8,1.5C43.3,44.7,43.4,45.3,43.3,46z"/>
		<path class="st1" d="M54.5,48.1c-0.1,0.6-0.3,1.2-0.6,1.7c-0.3,0.5-0.7,0.9-1.2,1.3c-0.5,0.3-1,0.6-1.6,0.7s-1.2,0.2-1.8,0.1
			c-0.6-0.1-1.2-0.3-1.7-0.6c-0.5-0.3-0.9-0.7-1.3-1.2c-0.3-0.5-0.6-1-0.7-1.6s-0.2-1.2-0.1-1.8l1.1-6.8c0.1-0.6,0.3-1.2,0.6-1.7
			s0.7-0.9,1.2-1.3c0.5-0.3,1-0.6,1.6-0.7c0.6-0.2,1.2-0.2,1.8-0.1c0.6,0.1,1.2,0.3,1.7,0.6c0.5,0.3,0.9,0.7,1.3,1.2
			c0.3,0.5,0.6,1,0.7,1.6c0.1,0.6,0.2,1.2,0.1,1.8l-0.2,1.4l-2.9-0.5l0.2-1.4c0.1-0.4,0-0.9-0.3-1.2c-0.3-0.4-0.6-0.6-1.1-0.6
			c-0.4-0.1-0.8,0-1.2,0.3c-0.4,0.3-0.6,0.6-0.7,1.1l-1.1,6.8c-0.1,0.4,0,0.8,0.3,1.2s0.6,0.6,1.1,0.7c0.4,0.1,0.8,0,1.2-0.3
			c0.4-0.3,0.6-0.6,0.7-1.1l0.2-1.4l2.9,0.5L54.5,48.1z"/>
		<path class="st1" d="M65.9,54.1L63,53.6l1-6.1l-3.6-0.6l-1,6.1l-2.9-0.5l2.3-14.8l2.9,0.5L60.8,44l3.6,0.6l0.9-5.8l2.9,0.5
			L65.9,54.1z"/>
		<path class="st1" d="M78.2,56L75,55.5l-1.4-5.7l-1.4-0.2l-0.8,5.3l-2.9-0.5l2.3-14.8l4.7,0.8c0.6,0.1,1.2,0.3,1.8,0.7
			c0.5,0.3,1,0.8,1.4,1.3c0.4,0.5,0.6,1.1,0.8,1.7c0.2,0.6,0.2,1.3,0.1,1.9c-0.1,0.8-0.5,1.6-1,2.2c-0.5,0.7-1.2,1.1-2,1.5L78.2,56z
			 M76.6,45.5c0-0.2,0-0.5,0-0.7c-0.1-0.2-0.2-0.5-0.3-0.6c-0.1-0.2-0.3-0.4-0.5-0.5c-0.2-0.1-0.4-0.2-0.7-0.3l-1.8-0.3l-0.6,3.7
			l1.8,0.3c0.2,0,0.5,0,0.7,0c0.2-0.1,0.5-0.2,0.6-0.3c0.2-0.1,0.4-0.3,0.5-0.5C76.5,46,76.6,45.7,76.6,45.5z"/>
		<path class="st1" d="M83.4,56.8l-2.9-0.5l2.3-14.8l2.9,0.5L83.4,56.8z"/>
		<path class="st1" d="M95.7,54.7c-0.1,0.6-0.3,1.2-0.6,1.7c-0.3,0.5-0.7,0.9-1.2,1.3c-0.5,0.3-1,0.6-1.6,0.7
			c-0.6,0.1-1.2,0.2-1.8,0.1c-0.6-0.1-1.2-0.3-1.7-0.6s-0.9-0.7-1.3-1.2s-0.6-1-0.7-1.6c-0.1-0.6-0.2-1.2-0.1-1.8l0.2-1.4l2.9,0.5
			l-0.2,1.4c-0.1,0.4,0,0.9,0.3,1.2c0.3,0.4,0.6,0.6,1.1,0.6c0.4,0.1,0.8,0,1.2-0.3c0.4-0.3,0.6-0.6,0.7-1.1l1.7-10.8l2.9,0.5
			L95.7,54.7z"/>
		<path class="st1" d="M105.9,54.3l-4.2-0.7l-0.9,5.9l-3.1-0.5l2.3-14.8l7.3,1.2l-0.5,2.9l-4.2-0.7l-0.5,3l4.2,0.7L105.9,54.3z"/>
		<path class="st1" d="M122.7,58.9c-0.1,0.6-0.3,1.2-0.6,1.7c-0.3,0.5-0.7,0.9-1.2,1.3c-0.5,0.3-1,0.6-1.6,0.7
			c-0.6,0.2-1.2,0.2-1.8,0.1c-0.6-0.1-1.2-0.3-1.7-0.6c-0.5-0.3-0.9-0.7-1.3-1.2c-0.3-0.5-0.6-1-0.7-1.6c-0.1-0.6-0.2-1.2-0.1-1.8
			l0.2-1.4l2.9,0.5l-0.2,1.4c-0.1,0.4,0,0.9,0.3,1.2c0.3,0.4,0.6,0.6,1.1,0.6c0.4,0.1,0.8,0,1.2-0.3c0.4-0.3,0.6-0.6,0.7-1.1
			l1.7-10.8l2.9,0.5L122.7,58.9z"/>
		<path class="st1" d="M132,64.5l-7.3-1.2l2.3-14.8l7.3,1.2l-0.5,2.9l-4.2-0.7l-0.5,3l4.2,0.7l-0.5,2.9l-4.2-0.7l-0.5,3l4.2,0.7
			L132,64.5z"/>
	</g>
	<g>
		<path class="st1" d="M41.7,70.5L38.6,70l-2.2-9.8l-0.1,0l-1.5,9.2L32,68.9l2.3-14.8l3.8,0.6l1.8,8l0.1,0l1.2-7.6l2.9,0.5
			L41.7,70.5z"/>
		<path class="st1" d="M53.9,68.3c-0.1,0.6-0.3,1.2-0.6,1.7c-0.3,0.5-0.7,0.9-1.2,1.3c-0.5,0.3-1,0.6-1.6,0.7s-1.2,0.2-1.8,0.1
			c-0.6-0.1-1.2-0.3-1.7-0.6c-0.5-0.3-0.9-0.7-1.3-1.2c-0.3-0.5-0.6-1-0.7-1.6c-0.1-0.6-0.2-1.2-0.1-1.8l1.7-10.8l2.9,0.5l-1.7,10.8
			c-0.1,0.4,0,0.8,0.3,1.2c0.3,0.4,0.6,0.6,1,0.6c0.4,0.1,0.9,0,1.2-0.3s0.6-0.6,0.6-1.1L52.8,57l2.9,0.5L53.9,68.3z"/>
		<path class="st1" d="M64.3,74.1l-2.9-0.5l2.3-14.8l2.9,0.5L64.3,74.1z"/>
		<path class="st1" d="M76.7,76l-3.1-0.5l-2.2-9.8l-0.1,0l-1.5,9.2l-2.9-0.5l2.3-14.8l3.8,0.6l1.8,8l0.1,0l1.2-7.6l2.9,0.5L76.7,76z
			"/>
		<path class="st1" d="M95.6,63.8L90,78.1l-3-0.5l-0.9-15.3l3,0.5l0.3,9.5l0.1,0l3.2-8.9L95.6,63.8z"/>
		<path class="st1" d="M104.4,76.3c-0.1,0.6-0.3,1.2-0.6,1.7c-0.3,0.5-0.7,0.9-1.2,1.3c-0.5,0.3-1,0.6-1.6,0.7s-1.2,0.2-1.8,0.1
			c-0.6-0.1-1.2-0.3-1.7-0.6c-0.5-0.3-0.9-0.7-1.3-1.2s-0.6-1-0.7-1.6c-0.1-0.6-0.2-1.2-0.1-1.8l1.1-6.8c0.1-0.6,0.3-1.2,0.6-1.7
			c0.3-0.5,0.7-0.9,1.2-1.3c0.5-0.3,1-0.6,1.6-0.7c0.6-0.2,1.2-0.2,1.8-0.1c0.6,0.1,1.2,0.3,1.7,0.6c0.5,0.3,0.9,0.7,1.3,1.2
			s0.6,1,0.7,1.6c0.2,0.6,0.2,1.2,0.1,1.8L104.4,76.3z M102.5,69.1c0.1-0.4,0-0.8-0.3-1.2s-0.6-0.6-1.1-0.7c-0.4-0.1-0.9,0-1.2,0.3
			c-0.4,0.3-0.6,0.6-0.6,1.1l-1.1,6.8c-0.1,0.4,0,0.9,0.3,1.2c0.3,0.4,0.6,0.6,1.1,0.6c0.4,0.1,0.8,0,1.2-0.3s0.6-0.6,0.7-1.1
			L102.5,69.1z"/>
		<path class="st1" d="M115.5,78c-0.1,0.6-0.3,1.2-0.6,1.7s-0.7,0.9-1.2,1.3c-0.5,0.3-1,0.6-1.6,0.7c-0.6,0.2-1.2,0.2-1.8,0.1
			c-0.6-0.1-1.2-0.3-1.7-0.6c-0.5-0.3-0.9-0.7-1.3-1.2c-0.3-0.5-0.6-1-0.7-1.6c-0.1-0.6-0.2-1.2-0.1-1.8l1.1-6.8
			c0.1-0.6,0.3-1.2,0.6-1.7c0.3-0.5,0.7-0.9,1.2-1.3c0.5-0.3,1-0.6,1.6-0.7c0.6-0.2,1.2-0.2,1.8-0.1c0.6,0.1,1.2,0.3,1.7,0.6
			c0.5,0.3,0.9,0.7,1.3,1.2c0.3,0.5,0.6,1,0.7,1.6c0.2,0.6,0.2,1.2,0.1,1.8L115.5,78z M113.7,70.8c0.1-0.4,0-0.8-0.3-1.2
			c-0.3-0.4-0.6-0.6-1.1-0.7c-0.4-0.1-0.9,0-1.2,0.3c-0.4,0.3-0.6,0.6-0.6,1.1l-1.1,6.8c-0.1,0.4,0,0.9,0.3,1.2s0.6,0.6,1.1,0.6
			c0.4,0.1,0.8,0,1.2-0.3c0.4-0.3,0.6-0.6,0.7-1.1L113.7,70.8z"/>
		<path class="st1" d="M127.2,84l-3.2-0.5l-1.4-5.7l-1.4-0.2l-0.8,5.3l-2.9-0.5l2.3-14.8l4.7,0.7c0.6,0.1,1.2,0.3,1.8,0.7
			c0.5,0.3,1,0.8,1.4,1.3c0.4,0.5,0.6,1.1,0.8,1.7c0.2,0.6,0.2,1.3,0.1,1.9c-0.1,0.8-0.5,1.6-1,2.2c-0.5,0.7-1.2,1.1-2,1.5L127.2,84
			z M125.7,73.5c0-0.2,0-0.5,0-0.7c-0.1-0.2-0.2-0.5-0.3-0.6s-0.3-0.4-0.5-0.5c-0.2-0.1-0.4-0.2-0.7-0.3l-1.8-0.3l-0.6,3.7l1.8,0.3
			c0.2,0,0.5,0,0.7,0s0.5-0.2,0.6-0.3c0.2-0.1,0.4-0.3,0.5-0.5C125.6,74,125.6,73.7,125.7,73.5z"/>
	</g>
	<g>
		<path class="st1" d="M39,90.3l-2.9-0.5l1-6.1l-3.6-0.6l-1,6.1l-2.9-0.5L31.9,74l2.9,0.5l-0.9,5.8l3.6,0.6l0.9-5.8l2.9,0.5L39,90.3
			z"/>
		<path class="st1" d="M48.4,91.8l-7.3-1.2l2.3-14.8l7.3,1.2l-0.5,2.9l-4.2-0.7l-0.5,3l4.2,0.7l-0.5,2.9l-4.2-0.7l-0.5,3l4.2,0.7
			L48.4,91.8z"/>
		<path class="st1" d="M59.8,81.4l-2.8-0.5L55,92.8l-2.9-0.5L54,80.5L51.2,80l0.5-2.9l8.6,1.4L59.8,81.4z"/>
		<path class="st1" d="M74,95.8l-3.1-0.5l-2.2-9.8l-0.1,0l-1.5,9.2l-2.9-0.5l2.3-14.8l3.8,0.6l1.8,8l0.1,0l1.2-7.6l2.9,0.5L74,95.8z
			"/>
		<path class="st1" d="M79.5,96.7l-2.9-0.5L79,81.5l2.9,0.5L79.5,96.7z"/>
		<path class="st1" d="M89.4,98.3l-7.3-1.2l2.3-14.8l7.3,1.2l-0.5,2.9l-4.2-0.7l-0.5,3l4.2,0.7l-0.5,2.9l-4.2-0.7l-0.5,3l4.2,0.7
			L89.4,98.3z"/>
		<path class="st1" d="M101.7,96.1c-0.1,0.6-0.3,1.2-0.6,1.7c-0.3,0.5-0.7,0.9-1.2,1.3c-0.5,0.3-1,0.6-1.6,0.7s-1.2,0.2-1.8,0.1
			c-0.6-0.1-1.2-0.3-1.7-0.6c-0.5-0.3-0.9-0.7-1.3-1.2c-0.3-0.5-0.6-1-0.7-1.6c-0.1-0.6-0.2-1.2-0.1-1.8l1.7-10.8l2.9,0.5l-1.7,10.8
			c-0.1,0.4,0,0.8,0.3,1.2c0.3,0.4,0.6,0.6,1,0.6c0.4,0.1,0.9,0,1.2-0.3c0.4-0.3,0.6-0.6,0.6-1.1l1.7-10.8l2.9,0.5L101.7,96.1z"/>
		<path class="st1" d="M121,88.1l-5.6,14.3l-3-0.5l-0.5-8.4l-0.1,0l-3,7.8l-3-0.5l-0.9-15.3l3,0.5l0.3,9.5l0.1,0l3.2-8.9l3,0.5
			l0.3,9.5l0.1,0l3.2-8.9L121,88.1z"/>
		<path class="st1" d="M127.5,104.3l-7.3-1.2l2.3-14.8l7.3,1.2l-0.5,2.9l-4.2-0.7l-0.5,3l4.2,0.7l-0.5,2.9l-4.2-0.7l-0.5,3l4.2,0.7
			L127.5,104.3z"/>
	</g>
	<g>
		<path class="st1" d="M49.6,108c-0.1,0.7-0.3,1.3-0.7,1.9c-0.3,0.6-0.8,1-1.3,1.4c-0.5,0.4-1.1,0.6-1.7,0.8c-0.6,0.1-1.3,0.2-2,0
			c-0.6-0.1-1.2-0.3-1.7-0.6c-0.5-0.3-0.9-0.7-1.3-1.2c-0.3-0.5-0.6-1-0.7-1.6s-0.2-1.2-0.1-1.8l0.2-1.4l2.9,0.5l-0.2,1.4
			c-0.1,0.4,0,0.8,0.3,1.2c0.3,0.4,0.6,0.6,1.1,0.6c0.6,0.1,1.1,0,1.5-0.3s0.6-0.7,0.7-1.3c0-0.3,0-0.6,0-0.8
			c-0.1-0.2-0.2-0.4-0.3-0.6c-0.2-0.2-0.3-0.3-0.6-0.4c-0.2-0.1-0.5-0.2-0.7-0.3c-0.6-0.2-1.2-0.5-1.7-0.8c-0.5-0.3-0.9-0.7-1.3-1.1
			c-0.3-0.4-0.6-0.9-0.7-1.5c-0.1-0.6-0.1-1.2,0-1.9c0.1-0.6,0.3-1.2,0.6-1.7c0.3-0.5,0.7-0.9,1.2-1.3c0.5-0.4,1-0.6,1.6-0.8
			c0.6-0.2,1.2-0.2,1.8-0.1c0.6,0.1,1.2,0.3,1.7,0.6c0.5,0.3,0.9,0.7,1.3,1.2c0.3,0.5,0.6,1,0.7,1.6c0.2,0.6,0.2,1.2,0.1,1.8
			l-0.1,0.9l-2.9-0.5l0.1-0.9c0.1-0.4,0-0.8-0.3-1.2c-0.3-0.4-0.6-0.6-1.1-0.7c-0.4-0.1-0.8,0-1.2,0.2c-0.4,0.2-0.6,0.6-0.7,1.1
			c-0.1,0.3-0.1,0.6,0,0.8c0,0.2,0.1,0.4,0.2,0.6c0.1,0.2,0.3,0.3,0.5,0.4c0.2,0.1,0.5,0.2,0.8,0.3c0.6,0.2,1.1,0.5,1.7,0.8
			c0.5,0.3,1,0.7,1.4,1.2c0.4,0.4,0.7,0.9,0.8,1.5C49.7,106.7,49.7,107.3,49.6,108z"/>
		<path class="st1" d="M58.4,113.9l-7.3-1.2L53.5,98l7.3,1.2l-0.5,2.9l-4.2-0.7l-0.5,3l4.2,0.7l-0.5,2.9l-4.2-0.7l-0.5,3l4.2,0.7
			L58.4,113.9z"/>
		<path class="st1" d="M63.9,114.8l-2.9-0.5l2.3-14.8l2.9,0.5L63.9,114.8z"/>
		<path class="st1" d="M75,116.5l-8.5-1.3l0.5-2.9l6.2-8.2l-4.5-0.7l0.5-2.9l7.8,1.2l-0.5,2.9l-6.2,8.2l5.2,0.8L75,116.5z"/>
		<path class="st1" d="M87.3,114.3c-0.1,0.6-0.3,1.2-0.6,1.7c-0.3,0.5-0.7,0.9-1.2,1.3c-0.5,0.3-1,0.6-1.6,0.7
			c-0.6,0.2-1.2,0.2-1.8,0.1c-0.6-0.1-1.2-0.3-1.7-0.6c-0.5-0.3-0.9-0.7-1.3-1.2c-0.3-0.5-0.6-1-0.7-1.6c-0.1-0.6-0.2-1.2-0.1-1.8
			l1.1-6.8c0.1-0.6,0.3-1.2,0.6-1.7c0.3-0.5,0.7-0.9,1.2-1.3c0.5-0.3,1-0.6,1.6-0.7c0.6-0.2,1.2-0.2,1.8-0.1
			c0.6,0.1,1.2,0.3,1.7,0.6c0.5,0.3,0.9,0.7,1.3,1.2c0.3,0.5,0.6,1,0.7,1.6c0.2,0.6,0.2,1.2,0.1,1.8L87.3,114.3z M85.4,107.1
			c0.1-0.4,0-0.8-0.3-1.2c-0.3-0.4-0.6-0.6-1.1-0.7c-0.4-0.1-0.9,0-1.2,0.3c-0.4,0.3-0.6,0.6-0.6,1.1l-1.1,6.8
			c-0.1,0.4,0,0.9,0.3,1.2c0.3,0.4,0.6,0.6,1.1,0.6c0.4,0.1,0.8,0,1.2-0.3c0.4-0.3,0.6-0.6,0.7-1L85.4,107.1z"/>
		<path class="st1" d="M96.1,119.9l-7.3-1.2l2.3-14.8l7.3,1.2L98,108l-4.2-0.7l-0.5,3l4.2,0.7l-0.5,2.9l-4.2-0.7l-0.5,3l4.2,0.7
			L96.1,119.9z"/>
		<path class="st1" d="M108.4,121.8l-3.1-0.5l-2.2-9.8l-0.1,0l-1.5,9.2l-2.9-0.5l2.3-14.8l3.8,0.6l1.8,8l0.1,0l1.2-7.6l2.9,0.5
			L108.4,121.8z"/>
	</g>
</g>
</svg>
