<?xml version="1.0" encoding="utf-8"?>
<!-- Generator: Adobe Illustrator 24.3.0, SVG Export Plug-In . SVG Version: 6.00 Build 0)  -->
<svg version="1.1" id="Laag_1" xmlns="http://www.w3.org/2000/svg" xmlns:xlink="http://www.w3.org/1999/xlink" x="0px" y="0px"
	 width="338.4px" height="17px" viewBox="0 0 338.4 17" style="enable-background:new 0 0 338.4 17;" xml:space="preserve">
<style type="text/css">
	.st0{fill:#E3E8DB;}
</style>
<g>
	<path class="st0" d="M9.5,0.2h1.8L6.9,13.3H4.4L0,0.2h1.8l3.8,11.2h0.1L9.5,0.2z"/>
	<path class="st0" d="M18.9,11c0,0.3,0.1,0.6,0.2,0.7s0.4,0.2,0.7,0.2v1.4h-0.3c-1,0-1.6-0.4-1.8-1.3c-0.4,0.4-0.8,0.8-1.4,1.1
		s-1.2,0.4-1.8,0.4c-0.9,0-1.7-0.2-2.3-0.7c-0.6-0.4-0.9-1.1-0.9-1.9c0-0.9,0.4-1.7,1.1-2.2c0.7-0.5,1.8-0.8,3.1-0.9l1.8-0.1V7.4
		c0-0.7-0.2-1.3-0.5-1.7c-0.3-0.4-0.8-0.6-1.5-0.6c-0.6,0-1.1,0.2-1.4,0.5s-0.5,0.8-0.6,1.3h-1.6c0.1-0.9,0.4-1.7,1.1-2.3
		c0.6-0.6,1.5-0.9,2.5-0.9c1.1,0,1.9,0.3,2.6,1c0.7,0.7,1,1.6,1,2.7V11z M14.6,12.1c0.7,0,1.4-0.2,1.9-0.7c0.5-0.4,0.8-1.1,0.8-1.9
		V8.9L15.8,9c-0.9,0.1-1.6,0.3-2.1,0.6S13,10.3,13,10.8c0,0.4,0.2,0.8,0.5,1C13.8,12,14.2,12.1,14.6,12.1z"/>
	<path class="st0" d="M26.1,3.8c1,0,1.8,0.3,2.5,1c0.6,0.7,1,1.7,1,2.9v5.6h-1.7V8c0-0.9-0.2-1.6-0.6-2c-0.4-0.5-1-0.7-1.7-0.7
		c-0.6,0-1.2,0.2-1.6,0.7c-0.4,0.4-0.7,1.1-0.7,2v5.4h-1.7V4h1.3l0.3,1.2h0.1C23.9,4.2,24.8,3.8,26.1,3.8z"/>
	<path class="st0" d="M39.2,11c0,0.3,0.1,0.6,0.2,0.7s0.4,0.2,0.7,0.2v1.4h-0.3c-1,0-1.6-0.4-1.8-1.3c-0.4,0.4-0.8,0.8-1.4,1.1
		s-1.2,0.4-1.8,0.4c-0.9,0-1.7-0.2-2.3-0.7c-0.6-0.4-0.9-1.1-0.9-1.9c0-0.9,0.4-1.7,1.1-2.2c0.7-0.5,1.8-0.8,3.1-0.9l1.8-0.1V7.4
		c0-0.7-0.2-1.3-0.5-1.7c-0.3-0.4-0.8-0.6-1.5-0.6c-0.6,0-1.1,0.2-1.4,0.5s-0.5,0.8-0.6,1.3H32c0.1-0.9,0.4-1.7,1.1-2.3
		c0.6-0.6,1.5-0.9,2.5-0.9c1.1,0,1.9,0.3,2.6,1c0.7,0.7,1,1.6,1,2.7V11z M34.9,12.1c0.7,0,1.4-0.2,1.9-0.7c0.5-0.4,0.8-1.1,0.8-1.9
		V8.9L36,9c-0.9,0.1-1.6,0.3-2.1,0.6s-0.7,0.7-0.7,1.2c0,0.4,0.2,0.8,0.5,1C34,12,34.4,12.1,34.9,12.1z"/>
	<path class="st0" d="M44.1,2.8V4h2.4v1.4h-2.4v8h-1.6v-8h-1.7V4h1.7V2.6c0-0.8,0.2-1.4,0.7-1.9c0.4-0.5,1-0.7,1.8-0.7
		c0.8,0,1.4,0.2,1.9,0.7L46.2,2c-0.3-0.3-0.7-0.5-1.1-0.5c-0.3,0-0.6,0.1-0.7,0.3C44.2,2.1,44.1,2.4,44.1,2.8z"/>
	<path class="st0" d="M55.4,13.3V4.6h-2.4V3.3h1.1c1,0,1.4-0.4,1.4-1.3V1.3h1.5v12H55.4z"/>
	<path class="st0" d="M71.4,10.9c0,0.8-0.3,1.4-1,1.9c-0.6,0.5-1.5,0.7-2.4,0.7c-1.1,0-2-0.3-2.7-0.9c-0.7-0.6-1-1.4-1-2.3h1.6
		c0,0.6,0.2,1.1,0.7,1.4s0.9,0.5,1.5,0.5c0.5,0,0.9-0.1,1.2-0.3s0.5-0.6,0.5-1c0-0.4-0.2-0.8-0.6-1c-0.4-0.3-0.9-0.5-1.6-0.7
		c-0.4-0.1-0.7-0.3-1-0.4s-0.6-0.3-0.9-0.5c-0.3-0.2-0.6-0.5-0.7-0.8c-0.2-0.3-0.3-0.7-0.3-1c0-0.8,0.3-1.4,0.9-1.9
		c0.6-0.5,1.4-0.7,2.3-0.7c1,0,1.8,0.3,2.4,0.8c0.6,0.5,0.9,1.2,0.9,2h-1.6c0-0.4-0.2-0.8-0.5-1.1c-0.3-0.3-0.8-0.4-1.3-0.4
		c-0.4,0-0.8,0.1-1.1,0.3c-0.3,0.2-0.4,0.5-0.4,0.9c0,0.4,0.2,0.7,0.5,0.9c0.3,0.2,0.8,0.5,1.5,0.7c1,0.3,1.8,0.7,2.3,1.1
		C71.1,9.5,71.4,10.1,71.4,10.9z"/>
	<path class="st0" d="M77.3,3.8c1.3,0,2.4,0.4,3.2,1.3s1.2,2.2,1,3.9h-7.1c0.1,0.9,0.3,1.7,0.8,2.3c0.5,0.6,1.2,0.8,2.1,0.8
		c0.6,0,1.1-0.1,1.5-0.4c0.4-0.2,0.8-0.6,1-1.1h1.6c-0.2,0.9-0.7,1.7-1.5,2.1c-0.7,0.5-1.6,0.7-2.6,0.7c-1.4,0-2.5-0.4-3.4-1.3
		c-0.8-0.9-1.2-2.1-1.2-3.6c0-1.4,0.4-2.5,1.3-3.4S76.1,3.8,77.3,3.8z M74.6,7.7H80c0-0.7-0.3-1.3-0.7-1.8c-0.5-0.5-1.1-0.7-1.9-0.7
		c-0.8,0-1.4,0.2-1.9,0.7C75,6.3,74.7,6.9,74.6,7.7z"/>
	<path class="st0" d="M88.3,3.8c1.2,0,2.3,0.5,3.1,1.4c0.8,0.9,1.2,2.1,1.2,3.5c0,1.4-0.4,2.6-1.2,3.5c-0.8,0.9-1.9,1.4-3.1,1.4
		c-1.4,0-2.4-0.5-2.9-1.6V17h-1.6V4h1.2l0.3,1.3h0.2C86,4.3,87,3.8,88.3,3.8z M88.1,12c0.8,0,1.5-0.3,2.1-0.9
		c0.5-0.6,0.8-1.4,0.8-2.4s-0.3-1.8-0.8-2.4c-0.5-0.6-1.2-0.9-2.1-0.9s-1.5,0.3-2,0.9c-0.5,0.6-0.8,1.4-0.8,2.4c0,1,0.3,1.8,0.8,2.4
		C86.5,11.7,87.2,12,88.1,12z"/>
	<path class="st0" d="M99.2,13.1c-0.4,0.3-1,0.4-1.5,0.4c-1.5,0-2.3-0.8-2.3-2.5V5.3h-1.8V4.1h0.5c1,0,1.4-0.4,1.4-1.3V1.6H97V4h2.2
		v1.4H97v5.5c0,0.8,0.3,1.2,0.9,1.2c0.3,0,0.6-0.1,0.8-0.3L99.2,13.1z"/>
	<path class="st0" d="M104.6,3.8c1.3,0,2.4,0.4,3.2,1.3s1.2,2.2,1,3.9h-7.1c0.1,0.9,0.3,1.7,0.8,2.3c0.5,0.6,1.2,0.8,2.1,0.8
		c0.6,0,1.1-0.1,1.5-0.4c0.4-0.2,0.8-0.6,1-1.1h1.6c-0.2,0.9-0.7,1.7-1.5,2.1c-0.7,0.5-1.6,0.7-2.6,0.7c-1.4,0-2.5-0.4-3.4-1.3
		c-0.8-0.9-1.2-2.1-1.2-3.6c0-1.4,0.4-2.5,1.3-3.4S103.4,3.8,104.6,3.8z M101.9,7.7h5.5c0-0.7-0.3-1.3-0.7-1.8
		c-0.5-0.5-1.1-0.7-1.9-0.7c-0.8,0-1.4,0.2-1.9,0.7C102.3,6.3,102,6.9,101.9,7.7z"/>
	<path class="st0" d="M120.9,3.8c1,0,1.8,0.3,2.3,1c0.6,0.6,0.9,1.6,0.9,2.9v5.7h-1.7V7.7c0-0.8-0.2-1.4-0.5-1.8
		c-0.4-0.4-0.8-0.6-1.4-0.6c-0.6,0-1,0.2-1.5,0.7s-0.6,1-0.6,1.8v5.5h-1.7V7.8c0-0.8-0.2-1.4-0.6-1.9c-0.4-0.4-0.8-0.7-1.4-0.7
		c-0.5,0-1,0.2-1.5,0.6c-0.4,0.4-0.6,1-0.6,1.8v5.6h-1.7V4h1.3l0.3,1.2h0.1c0.2-0.4,0.6-0.7,1-1c0.4-0.3,1-0.4,1.6-0.4
		c0.7,0,1.2,0.2,1.7,0.5c0.5,0.4,0.8,0.8,1,1.2h0.1c0.2-0.5,0.6-0.9,1.1-1.2C119.6,4,120.2,3.8,120.9,3.8z"/>
	<path class="st0" d="M131.1,3.8c1.2,0,2.3,0.5,3.1,1.4s1.2,2.1,1.2,3.5c0,1.4-0.4,2.6-1.2,3.5s-1.8,1.4-3.1,1.4
		c-1.3,0-2.3-0.5-3-1.5H128l-0.3,1.3h-1.2V0h1.6v5.3C128.7,4.3,129.7,3.8,131.1,3.8z M128.9,11.1c0.5,0.6,1.2,0.9,2,0.9
		s1.5-0.3,2.1-0.9c0.5-0.6,0.8-1.4,0.8-2.4s-0.3-1.8-0.8-2.4c-0.5-0.6-1.2-0.9-2.1-0.9c-0.8,0-1.5,0.3-2,0.9
		c-0.5,0.6-0.8,1.4-0.8,2.4C128.1,9.6,128.4,10.4,128.9,11.1z"/>
	<path class="st0" d="M141.4,3.8c1.3,0,2.4,0.4,3.2,1.3s1.2,2.2,1,3.9h-7.1c0.1,0.9,0.3,1.7,0.8,2.3c0.5,0.6,1.2,0.8,2.1,0.8
		c0.6,0,1.1-0.1,1.5-0.4c0.4-0.2,0.8-0.6,1-1.1h1.6c-0.2,0.9-0.7,1.7-1.5,2.1c-0.7,0.5-1.6,0.7-2.6,0.7c-1.4,0-2.5-0.4-3.4-1.3
		c-0.8-0.9-1.2-2.1-1.2-3.6c0-1.4,0.4-2.5,1.3-3.4S140.1,3.8,141.4,3.8z M138.6,7.7h5.5c0-0.7-0.3-1.3-0.7-1.8
		c-0.5-0.5-1.1-0.7-1.9-0.7c-0.8,0-1.4,0.2-1.9,0.7C139,6.3,138.7,6.9,138.6,7.7z"/>
	<path class="st0" d="M152.1,3.8h0.6v1.7c-0.2,0-0.4-0.1-0.8-0.1c-0.7,0-1.3,0.3-1.8,0.8s-0.7,1.3-0.7,2.3v4.8h-1.7V4h1.3l0.3,1.3
		h0.1C150,4.3,151,3.8,152.1,3.8z"/>
	<path class="st0" d="M169.8,4h1.6l-2.2,9.3h-2.1l-1.8-7h-0.1l-1.9,7h-2.1L158.9,4h1.6l1.7,7.6h0.1l1.9-7h1.9l1.9,7h0.1L169.8,4z"/>
	<path class="st0" d="M177,3.8c1.3,0,2.4,0.4,3.2,1.3c0.8,0.9,1.2,2.2,1,3.9h-7.1c0.1,0.9,0.3,1.7,0.8,2.3s1.2,0.8,2.1,0.8
		c0.6,0,1.1-0.1,1.5-0.4c0.4-0.2,0.8-0.6,1-1.1h1.6c-0.2,0.9-0.7,1.7-1.5,2.1c-0.7,0.5-1.6,0.7-2.6,0.7c-1.4,0-2.5-0.4-3.4-1.3
		c-0.8-0.9-1.2-2.1-1.2-3.6c0-1.4,0.4-2.5,1.3-3.4S175.7,3.8,177,3.8z M174.2,7.7h5.5c0-0.7-0.3-1.3-0.7-1.8
		c-0.5-0.5-1.1-0.7-1.9-0.7c-0.8,0-1.4,0.2-1.9,0.7S174.4,6.9,174.2,7.7z"/>
	<path class="st0" d="M187.2,3.8c1.3,0,2.4,0.4,3.2,1.3c0.8,0.9,1.2,2.2,1,3.9h-7.1c0.1,0.9,0.3,1.7,0.8,2.3s1.2,0.8,2.1,0.8
		c0.6,0,1.1-0.1,1.5-0.4c0.4-0.2,0.8-0.6,1-1.1h1.6c-0.2,0.9-0.7,1.7-1.5,2.1c-0.7,0.5-1.6,0.7-2.6,0.7c-1.4,0-2.5-0.4-3.4-1.3
		c-0.8-0.9-1.2-2.1-1.2-3.6c0-1.4,0.4-2.5,1.3-3.4S185.9,3.8,187.2,3.8z M184.4,7.7h5.5c0-0.7-0.3-1.3-0.7-1.8
		c-0.5-0.5-1.1-0.7-1.9-0.7c-0.8,0-1.4,0.2-1.9,0.7S184.6,6.9,184.4,7.7z"/>
	<path class="st0" d="M198,3.8h0.6v1.7c-0.2,0-0.4-0.1-0.8-0.1c-0.7,0-1.3,0.3-1.8,0.8s-0.7,1.3-0.7,2.3v4.8h-1.7V4h1.3l0.3,1.3h0.1
		C195.9,4.3,196.8,3.8,198,3.8z"/>
	<path class="st0" d="M210.1,3.8c1,0,1.8,0.3,2.5,1c0.6,0.7,1,1.7,1,2.9v5.6h-1.7V8c0-0.9-0.2-1.6-0.6-2c-0.4-0.5-1-0.7-1.7-0.7
		c-0.6,0-1.2,0.2-1.6,0.7s-0.7,1.1-0.7,2v5.4h-1.7V4h1.3l0.3,1.2h0.1C207.8,4.2,208.8,3.8,210.1,3.8z"/>
	<path class="st0" d="M223.1,11c0,0.3,0.1,0.6,0.2,0.7c0.1,0.1,0.4,0.2,0.7,0.2v1.4h-0.3c-1,0-1.6-0.4-1.8-1.3
		c-0.4,0.4-0.8,0.8-1.4,1.1s-1.2,0.4-1.8,0.4c-0.9,0-1.7-0.2-2.3-0.7c-0.6-0.4-0.9-1.1-0.9-1.9c0-0.9,0.4-1.7,1.1-2.2
		c0.7-0.5,1.8-0.8,3.1-0.9l1.8-0.1V7.4c0-0.7-0.2-1.3-0.5-1.7c-0.3-0.4-0.8-0.6-1.5-0.6c-0.6,0-1.1,0.2-1.4,0.5s-0.5,0.8-0.6,1.3
		h-1.6c0.1-0.9,0.4-1.7,1.1-2.3s1.5-0.9,2.5-0.9c1.1,0,1.9,0.3,2.6,1c0.7,0.7,1,1.6,1,2.7V11z M218.8,12.1c0.7,0,1.4-0.2,1.9-0.7
		c0.5-0.4,0.8-1.1,0.8-1.9V8.9L219.9,9c-0.9,0.1-1.6,0.3-2.1,0.6c-0.5,0.3-0.7,0.7-0.7,1.2c0,0.4,0.2,0.8,0.5,1
		C217.9,12,218.3,12.1,218.8,12.1z"/>
	<path class="st0" d="M232.8,11c0,0.3,0.1,0.6,0.2,0.7c0.1,0.1,0.4,0.2,0.7,0.2v1.4h-0.3c-1,0-1.6-0.4-1.8-1.3
		c-0.4,0.4-0.8,0.8-1.4,1.1s-1.2,0.4-1.8,0.4c-0.9,0-1.7-0.2-2.3-0.7c-0.6-0.4-0.9-1.1-0.9-1.9c0-0.9,0.4-1.7,1.1-2.2
		c0.7-0.5,1.8-0.8,3.1-0.9l1.8-0.1V7.4c0-0.7-0.2-1.3-0.5-1.7c-0.3-0.4-0.8-0.6-1.5-0.6c-0.6,0-1.1,0.2-1.4,0.5s-0.5,0.8-0.6,1.3
		h-1.6c0.1-0.9,0.4-1.7,1.1-2.3s1.5-0.9,2.5-0.9c1.1,0,1.9,0.3,2.6,1c0.7,0.7,1,1.6,1,2.7V11z M228.5,12.1c0.7,0,1.4-0.2,1.9-0.7
		c0.5-0.4,0.8-1.1,0.8-1.9V8.9L229.7,9c-0.9,0.1-1.6,0.3-2.1,0.6c-0.5,0.3-0.7,0.7-0.7,1.2c0,0.4,0.2,0.8,0.5,1
		C227.7,12,228.1,12.1,228.5,12.1z"/>
	<path class="st0" d="M239.9,3.8h0.6v1.7c-0.2,0-0.4-0.1-0.8-0.1c-0.7,0-1.3,0.3-1.8,0.8s-0.7,1.3-0.7,2.3v4.8h-1.7V4h1.3l0.3,1.3
		h0.1C237.9,4.3,238.8,3.8,239.9,3.8z"/>
	<path class="st0" d="M252.1,3.8c1.1,0,2,0.3,2.6,1s0.9,1.7,0.9,2.9v5.6H254v-5c0-0.9-0.2-1.7-0.6-2.2s-1-0.8-1.8-0.8
		c-0.6,0-1.2,0.2-1.7,0.7c-0.5,0.5-0.7,1.1-0.7,1.9v5.3h-1.7V0h1.7v5h0.1c0.3-0.3,0.7-0.7,1.1-0.9C251,3.9,251.5,3.8,252.1,3.8z"/>
	<path class="st0" d="M262,3.8c1.3,0,2.4,0.4,3.2,1.3c0.8,0.9,1.2,2.2,1,3.9h-7.1c0.1,0.9,0.3,1.7,0.8,2.3s1.2,0.8,2.1,0.8
		c0.6,0,1.1-0.1,1.5-0.4c0.4-0.2,0.8-0.6,1-1.1h1.6c-0.2,0.9-0.7,1.7-1.5,2.1c-0.7,0.5-1.6,0.7-2.6,0.7c-1.4,0-2.5-0.4-3.4-1.3
		c-0.8-0.9-1.2-2.1-1.2-3.6c0-1.4,0.4-2.5,1.3-3.4S260.7,3.8,262,3.8z M259.2,7.7h5.5c0-0.7-0.3-1.3-0.7-1.8
		c-0.5-0.5-1.1-0.7-1.9-0.7c-0.8,0-1.4,0.2-1.9,0.7S259.3,6.9,259.2,7.7z"/>
	<path class="st0" d="M272.9,13.1c-0.4,0.3-1,0.4-1.5,0.4c-1.5,0-2.3-0.8-2.3-2.5V5.3h-1.8V4.1h0.5c1,0,1.4-0.4,1.4-1.3V1.6h1.5V4
		h2.2v1.4h-2.2v5.5c0,0.8,0.3,1.2,0.9,1.2c0.3,0,0.6-0.1,0.8-0.3L272.9,13.1z"/>
	<path class="st0" d="M284.8,13.1c-0.4,0.3-1,0.4-1.5,0.4c-1.5,0-2.3-0.8-2.3-2.5V5.3h-1.8V4.1h0.5c1,0,1.4-0.4,1.4-1.3V1.6h1.5V4
		h2.2v1.4h-2.2v5.5c0,0.8,0.3,1.2,0.9,1.2c0.3,0,0.6-0.1,0.8-0.3L284.8,13.1z"/>
	<path class="st0" d="M291.3,3.8c1.1,0,2,0.3,2.6,1s0.9,1.7,0.9,2.9v5.6h-1.7v-5c0-0.9-0.2-1.7-0.6-2.2s-1-0.8-1.8-0.8
		c-0.6,0-1.2,0.2-1.7,0.7c-0.5,0.5-0.7,1.1-0.7,1.9v5.3h-1.7V0h1.7v5h0.1c0.3-0.3,0.7-0.7,1.1-0.9C290.1,3.9,290.7,3.8,291.3,3.8z"
		/>
	<path class="st0" d="M301.1,3.8c1.3,0,2.4,0.4,3.2,1.3c0.8,0.9,1.2,2.2,1,3.9h-7.1c0.1,0.9,0.3,1.7,0.8,2.3s1.2,0.8,2.1,0.8
		c0.6,0,1.1-0.1,1.5-0.4c0.4-0.2,0.8-0.6,1-1.1h1.6c-0.2,0.9-0.7,1.7-1.5,2.1c-0.7,0.5-1.6,0.7-2.6,0.7c-1.4,0-2.5-0.4-3.4-1.3
		c-0.8-0.9-1.2-2.1-1.2-3.6c0-1.4,0.4-2.5,1.3-3.4S299.8,3.8,301.1,3.8z M298.3,7.7h5.5c0-0.7-0.3-1.3-0.7-1.8
		c-0.5-0.5-1.1-0.7-1.9-0.7c-0.8,0-1.4,0.2-1.9,0.7S298.5,6.9,298.3,7.7z"/>
	<path class="st0" d="M314.6,11c0,0.3,0.1,0.6,0.2,0.7c0.1,0.1,0.4,0.2,0.7,0.2v1.4h-0.3c-1,0-1.6-0.4-1.8-1.3
		c-0.4,0.4-0.8,0.8-1.4,1.1s-1.2,0.4-1.8,0.4c-0.9,0-1.7-0.2-2.3-0.7c-0.6-0.4-0.9-1.1-0.9-1.9c0-0.9,0.4-1.7,1.1-2.2
		c0.7-0.5,1.8-0.8,3.1-0.9l1.8-0.1V7.4c0-0.7-0.2-1.3-0.5-1.7c-0.3-0.4-0.8-0.6-1.5-0.6c-0.6,0-1.1,0.2-1.4,0.5s-0.5,0.8-0.6,1.3
		h-1.6c0.1-0.9,0.4-1.7,1.1-2.3s1.5-0.9,2.5-0.9c1.1,0,1.9,0.3,2.6,1c0.7,0.7,1,1.6,1,2.7V11z M310.3,12.1c0.7,0,1.4-0.2,1.9-0.7
		c0.5-0.4,0.8-1.1,0.8-1.9V8.9L311.5,9c-0.9,0.1-1.6,0.3-2.1,0.6c-0.5,0.3-0.7,0.7-0.7,1.2c0,0.4,0.2,0.8,0.5,1
		C309.5,12,309.9,12.1,310.3,12.1z"/>
	<path class="st0" d="M321.6,13.1c-0.4,0.3-1,0.4-1.5,0.4c-1.5,0-2.3-0.8-2.3-2.5V5.3H316V4.1h0.5c1,0,1.4-0.4,1.4-1.3V1.6h1.5V4
		h2.2v1.4h-2.2v5.5c0,0.8,0.3,1.2,0.9,1.2c0.3,0,0.6-0.1,0.8-0.3L321.6,13.1z"/>
	<path class="st0" d="M327,3.8c1.3,0,2.4,0.4,3.2,1.3c0.8,0.9,1.2,2.2,1,3.9h-7.1c0.1,0.9,0.3,1.7,0.8,2.3s1.2,0.8,2.1,0.8
		c0.6,0,1.1-0.1,1.5-0.4c0.4-0.2,0.8-0.6,1-1.1h1.6c-0.2,0.9-0.7,1.7-1.5,2.1c-0.7,0.5-1.6,0.7-2.6,0.7c-1.4,0-2.5-0.4-3.4-1.3
		c-0.8-0.9-1.2-2.1-1.2-3.6c0-1.4,0.4-2.5,1.3-3.4S325.8,3.8,327,3.8z M324.2,7.7h5.5c0-0.7-0.3-1.3-0.7-1.8
		c-0.5-0.5-1.1-0.7-1.9-0.7c-0.8,0-1.4,0.2-1.9,0.7S324.4,6.9,324.2,7.7z"/>
	<path class="st0" d="M337.8,3.8h0.6v1.7c-0.2,0-0.4-0.1-0.8-0.1c-0.7,0-1.3,0.3-1.8,0.8S335,7.4,335,8.5v4.8h-1.7V4h1.3l0.3,1.3
		h0.1C335.7,4.3,336.6,3.8,337.8,3.8z"/>
</g>
</svg>
