<?xml version="1.0" encoding="utf-8"?>
<!-- Generator: Adobe Illustrator 23.0.2, SVG Export Plug-In . SVG Version: 6.00 Build 0)  -->
<svg version="1.1" id="Laag_1" xmlns="http://www.w3.org/2000/svg" xmlns:xlink="http://www.w3.org/1999/xlink" x="0px" y="0px"
	 width="142.8px" height="11.4px" viewBox="0 0 142.8 11.4" style="enable-background:new 0 0 142.8 11.4;" xml:space="preserve">
<style type="text/css">
	.st0{fill:#FFFFFF;}
</style>
<g>
	<path class="st0" d="M0,2.9V2.1c0.7-0.3,1.4-0.7,2-1.4h0.8v8.8H2V1.6C1.5,2.1,0.8,2.5,0,2.9z"/>
	<path class="st0" d="M6.1,9.5h-1V8.4h1V9.5z"/>
	<path class="st0" d="M15.6,9.5h-3.5V0.3l3.3,0c0.7,0,1.3,0.2,1.8,0.6c0.5,0.4,0.7,1,0.7,1.7c0,0.5-0.2,0.9-0.5,1.3
		c-0.3,0.4-0.7,0.6-1.2,0.7v0c0.6,0.1,1.1,0.4,1.5,0.8s0.6,0.9,0.6,1.6c0,0.7-0.2,1.3-0.7,1.7C17.2,9.2,16.5,9.5,15.6,9.5z M13,4.4
		h2c0.6,0,1.1-0.1,1.5-0.4c0.4-0.3,0.6-0.7,0.6-1.3c0-1.1-0.7-1.6-2.2-1.6h-2V4.4z M13,5.1v3.6h2c0.8,0,1.5-0.1,1.9-0.4
		s0.6-0.7,0.6-1.4c0-0.3-0.1-0.6-0.2-0.8c-0.1-0.2-0.2-0.4-0.4-0.5s-0.4-0.2-0.6-0.3c-0.3-0.1-0.5-0.1-0.8-0.1s-0.6,0-1,0H13z"/>
	<path class="st0" d="M21.5,9.5h-0.8V0.3h0.8V9.5z"/>
	<path class="st0" d="M29.9,7.1c0,0.5-0.1,0.9-0.3,1.2c-0.2,0.3-0.5,0.6-0.8,0.8S28,9.4,27.6,9.5c-0.4,0.1-0.8,0.1-1.3,0.1
		c-0.7,0-1.4-0.2-1.9-0.7c-0.5-0.5-0.8-1.1-0.8-1.8h0.9c0,1.2,0.8,1.8,2.3,1.8c0.6,0,1.1-0.2,1.5-0.5C28.7,8.1,29,7.7,29,7.1
		c0-0.8-0.5-1.3-1.4-1.6c-0.1,0-0.3-0.1-0.6-0.2s-0.5-0.2-0.6-0.2S26,5,25.7,4.9c-0.3-0.1-0.5-0.2-0.6-0.3c-0.1-0.1-0.3-0.2-0.5-0.3
		c-0.2-0.1-0.3-0.3-0.4-0.5S24,3.5,23.9,3.3c-0.1-0.2-0.1-0.4-0.1-0.7c0-0.8,0.3-1.4,0.9-1.8s1.3-0.7,2-0.7c0.3,0,0.6,0,1,0.1
		c0.3,0.1,0.6,0.2,0.9,0.3c0.3,0.1,0.5,0.4,0.7,0.7c0.2,0.3,0.3,0.7,0.4,1.1h-0.9c0-0.3-0.1-0.5-0.2-0.7c-0.1-0.2-0.3-0.3-0.5-0.4
		S27.7,1,27.5,1c-0.2,0-0.5-0.1-0.7-0.1c-0.5,0-1,0.1-1.5,0.4c-0.4,0.3-0.7,0.7-0.7,1.2c0,0.3,0.1,0.6,0.3,0.9
		c0.2,0.3,0.4,0.5,0.7,0.6c0.3,0.1,0.6,0.3,1,0.4s0.7,0.2,1.1,0.4c0.4,0.1,0.7,0.3,1,0.5c0.3,0.2,0.6,0.4,0.7,0.7S29.9,6.6,29.9,7.1
		z"/>
	<path class="st0" d="M40.7,9.5h-6.1V8.7l5.1-7.6h-5.1V0.3h6.1v0.8l-5.1,7.6h5.1V9.5z"/>
	<path class="st0" d="M42.4,0.3h0.8v5.9c0,0.8,0.3,1.5,0.7,2c0.4,0.5,1,0.7,1.8,0.7c0.8,0,1.4-0.2,1.8-0.7c0.4-0.5,0.7-1.1,0.7-2
		V0.3h0.8v5.9c0,1-0.3,1.8-0.9,2.5c-0.6,0.6-1.4,0.9-2.5,0.9s-1.9-0.3-2.5-0.9c-0.6-0.6-0.9-1.4-0.9-2.5V0.3z"/>
	<path class="st0" d="M52.4,9.5h-0.8V0.3h1.3l3.4,8l3.5-8h1.3v9.2h-0.8V1h0l-3.5,8.5h-0.8l-3.5-8.4h0V9.5z"/>
	<path class="st0" d="M72,9.5h-5.5V8.6c0.4-0.4,0.8-0.7,1.2-1.1s0.9-0.9,1.4-1.5s1-1.2,1.3-1.7c0.3-0.6,0.5-1,0.5-1.4
		c0-0.5-0.2-0.9-0.5-1.1c-0.3-0.3-0.8-0.4-1.3-0.4c-0.5,0-1,0.2-1.3,0.5S67.4,2.5,67.4,3h-0.9c0-0.8,0.3-1.4,0.8-1.8
		s1.1-0.7,1.9-0.7c0.7,0,1.4,0.2,1.9,0.6c0.5,0.4,0.8,1,0.8,1.7c0,0.3-0.1,0.6-0.2,0.9c-0.1,0.3-0.3,0.6-0.5,1
		C71,5,70.8,5.3,70.6,5.6c-0.2,0.3-0.5,0.6-0.8,0.9c-0.3,0.3-0.6,0.6-0.8,0.8c-0.2,0.2-0.5,0.5-0.8,0.8c-0.3,0.3-0.6,0.5-0.7,0.6H72
		V9.5z"/>
	<path class="st0" d="M79.1,0.7v0.7l-3.4,8h-1l3.5-8h-4.7V0.7H79.1z"/>
	<path class="st0" d="M79.5,9.5h-1V8.4h1V9.5z"/>
	<path class="st0" d="M92.2,1.4c0.7,0.9,1.1,2,1.1,3.5S93,7.5,92.2,8.4c-0.7,0.9-1.7,1.3-3,1.3c-1.3,0-2.3-0.4-3-1.3
		c-0.7-0.9-1.1-2-1.1-3.5s0.4-2.6,1.1-3.5c0.7-0.9,1.7-1.3,3-1.3C90.5,0.1,91.5,0.6,92.2,1.4z M86.2,3.4c-0.1,0.5-0.2,1-0.2,1.5
		s0.1,1,0.2,1.5c0.1,0.5,0.3,0.9,0.6,1.3c0.2,0.4,0.6,0.7,1,0.9c0.4,0.2,0.9,0.3,1.5,0.3s1-0.1,1.5-0.3c0.4-0.2,0.8-0.5,1-0.9
		c0.2-0.4,0.4-0.8,0.6-1.3c0.1-0.5,0.2-1,0.2-1.5s-0.1-1-0.2-1.5c-0.1-0.5-0.3-0.9-0.6-1.3c-0.2-0.4-0.6-0.7-1-0.9
		c-0.4-0.2-0.9-0.3-1.5-0.3s-1,0.1-1.5,0.3c-0.4,0.2-0.8,0.5-1,0.9S86.3,3,86.2,3.4z"/>
	<path class="st0" d="M96.3,9.5h-0.8V0.3h0.8l0,4l4.1-4h1l-4.2,4.1l4.6,5h-1.1l-4.4-4.8L96.3,9.5z"/>
	<path class="st0" d="M105.1,9.5l0-8.4h-3V0.3h6.7v0.8h-2.9l0,8.4H105.1z"/>
	<path class="st0" d="M116.2,1.4c0.7,0.9,1.1,2,1.1,3.5s-0.4,2.6-1.1,3.5c-0.7,0.9-1.7,1.3-3,1.3c-1.3,0-2.3-0.4-3-1.3
		c-0.7-0.9-1.1-2-1.1-3.5s0.4-2.6,1.1-3.5c0.7-0.9,1.7-1.3,3-1.3C114.5,0.1,115.5,0.6,116.2,1.4z M110.2,3.4c-0.1,0.5-0.2,1-0.2,1.5
		s0.1,1,0.2,1.5c0.1,0.5,0.3,0.9,0.6,1.3c0.2,0.4,0.6,0.7,1,0.9c0.4,0.2,0.9,0.3,1.5,0.3s1-0.1,1.5-0.3c0.4-0.2,0.8-0.5,1-0.9
		c0.2-0.4,0.4-0.8,0.6-1.3c0.1-0.5,0.2-1,0.2-1.5s-0.1-1-0.2-1.5c-0.1-0.5-0.3-0.9-0.6-1.3c-0.2-0.4-0.6-0.7-1-0.9
		c-0.4-0.2-0.9-0.3-1.5-0.3s-1,0.1-1.5,0.3c-0.4,0.2-0.8,0.5-1,0.9S110.3,3,110.2,3.4z"/>
	<path class="st0" d="M122.9,9.5h-3.5V0.3l3.3,0c0.7,0,1.3,0.2,1.8,0.6c0.5,0.4,0.7,1,0.7,1.7c0,0.5-0.2,0.9-0.5,1.3
		c-0.3,0.4-0.7,0.6-1.2,0.7v0c0.6,0.1,1.1,0.4,1.5,0.8c0.4,0.4,0.6,0.9,0.6,1.6c0,0.7-0.2,1.3-0.7,1.7
		C124.5,9.2,123.8,9.5,122.9,9.5z M120.2,4.4h2c0.6,0,1.1-0.1,1.5-0.4c0.4-0.3,0.6-0.7,0.6-1.3c0-1.1-0.7-1.6-2.2-1.6h-2V4.4z
		 M120.2,5.1v3.6h2c0.8,0,1.4-0.1,1.9-0.4s0.6-0.7,0.6-1.4c0-0.3-0.1-0.6-0.2-0.8c-0.1-0.2-0.2-0.4-0.4-0.5s-0.4-0.2-0.6-0.3
		c-0.3-0.1-0.5-0.1-0.8-0.1c-0.3,0-0.6,0-1,0H120.2z"/>
	<path class="st0" d="M133.5,9.5h-5.6V0.3h5.4v0.8h-4.6v3.3h4.4v0.8h-4.4v3.6h4.8V9.5z"/>
	<path class="st0" d="M136.5,5.1v4.4h-0.8V0.3h3c0.9,0,1.6,0.2,2.2,0.5c0.6,0.4,0.9,1,0.9,1.9c0,0.5-0.2,0.9-0.5,1.2
		c-0.3,0.3-0.7,0.6-1.3,0.7v0c0.5,0.1,0.9,0.3,1.1,0.6s0.3,0.8,0.4,1.4c0,0.3,0.1,0.6,0.1,0.9c0,0.4,0.1,0.6,0.1,0.8
		c0,0.2,0.1,0.3,0.1,0.5c0.1,0.2,0.1,0.3,0.2,0.5h-1c-0.1-0.4-0.2-1-0.3-1.9c0-0.4-0.1-0.7-0.1-0.9c0-0.2-0.1-0.4-0.1-0.6
		s-0.1-0.4-0.2-0.5s-0.2-0.2-0.3-0.3s-0.3-0.1-0.5-0.2c-0.2,0-0.4,0-0.7,0H136.5z M136.5,4.4h1.8c0.3,0,0.5,0,0.7,0
		c0.2,0,0.4,0,0.7-0.1c0.3-0.1,0.5-0.1,0.6-0.3c0.2-0.1,0.3-0.3,0.4-0.5c0.1-0.2,0.2-0.5,0.2-0.8c0-0.2,0-0.4-0.1-0.6
		c-0.1-0.2-0.1-0.3-0.2-0.4c-0.1-0.1-0.2-0.2-0.4-0.3c-0.2-0.1-0.3-0.1-0.4-0.2c-0.1,0-0.3-0.1-0.5-0.1c-0.2,0-0.3,0-0.4,0
		s-0.2,0-0.4,0c-0.1,0-0.1,0-0.2,0h-1.9V4.4z"/>
</g>
</svg>
