<?xml version="1.0" encoding="utf-8"?>
<!-- Generator: Adobe Illustrator 23.0.2, SVG Export Plug-In . SVG Version: 6.00 Build 0)  -->
<svg version="1.1" id="Laag_1" xmlns="http://www.w3.org/2000/svg" xmlns:xlink="http://www.w3.org/1999/xlink" x="0px" y="0px"
	 width="214.8px" height="65.1px" viewBox="0 0 214.8 65.1" style="enable-background:new 0 0 214.8 65.1;" xml:space="preserve">
<style type="text/css">
	.st0{fill:#FFFFFF;}
</style>
<g>
	<path class="st0" d="M7.5,7.5L3.4,9V5.6l4.8-2h3.2v19.5H7.5V7.5z"/>
	<path class="st0" d="M15.2,16.7V10c0-4,2.9-6.8,7.4-6.8S29.9,6,29.9,10v6.7c0,4-2.9,6.8-7.4,6.8S15.2,20.7,15.2,16.7z M26.1,9.9
		c0-2.4-1.3-3.6-3.5-3.6s-3.5,1.2-3.5,3.6v6.8c0,2.4,1.3,3.6,3.5,3.6s3.5-1.2,3.5-3.6V9.9z"/>
	<path class="st0" d="M39.5,8.6h3.6v1.7c0.7-1.3,2.1-2.1,4.2-2.1c1.9,0,3.3,0.8,4.2,2.1c1.1-1.4,2.7-2.1,4.8-2.1
		c3,0,5.2,2.1,5.2,5.6v9.3h-3.8v-8.7c0-1.7-0.8-2.9-2.6-2.9c-1.7,0-2.7,1-2.7,3v8.6h-3.8v-8.7c0-1.7-0.8-2.9-2.6-2.9
		c-1.7,0-2.7,1-2.7,3v8.6h-3.8C39.5,23.1,39.5,8.6,39.5,8.6z"/>
	<path class="st0" d="M64.5,16.9v-2c0-3.9,2.3-6.7,6.7-6.7c4.3,0,6.5,2.9,6.5,6.4v2.5h-9.5v0.4c0,1.7,0.9,3.2,3.1,3.2
		c1.6,0,2.6-0.8,3-1.8h3.3c-0.5,2.7-3.1,4.6-6.3,4.6C67.1,23.4,64.5,21,64.5,16.9z M68.2,14.5h6v-0.4c0-1.8-0.9-3.2-3-3.2
		c-2.2,0-3,1.5-3,3.4V14.5z"/>
	<path class="st0" d="M82.7,2.6c1.3,0,2.2,0.9,2.2,2.2C84.9,6,84,7,82.7,7s-2.2-0.9-2.2-2.2S81.4,2.6,82.7,2.6z M80.8,8.6h3.8v14.5
		h-3.8V8.6z"/>
	<path class="st0" d="M94.2,20.2l8-7.8c1.1-1.1,1.8-2,1.8-3.4c0-1.6-1.2-2.6-2.8-2.6c-1.9,0-2.9,1.1-2.9,3v0.4h-3.7V9.1
		c0-3.9,2.5-6,6.5-6s6.7,2.3,6.7,5.7c0,2.8-2,4.7-3.8,6.4l-5.1,4.7h8.8v3.2H94.2V20.2z"/>
	<path class="st0" d="M111,16.7V10c0-4,2.9-6.8,7.4-6.8s7.4,2.8,7.4,6.8v6.7c0,4-2.9,6.8-7.4,6.8S111,20.7,111,16.7z M121.9,9.9
		c0-2.4-1.3-3.6-3.5-3.6s-3.5,1.2-3.5,3.6v6.8c0,2.4,1.3,3.6,3.5,3.6s3.5-1.2,3.5-3.6V9.9z"/>
	<path class="st0" d="M132.2,7.5L128,9V5.6l4.8-2h3.2v19.5h-3.9L132.2,7.5L132.2,7.5z"/>
	<path class="st0" d="M143.1,23.1l5.1-7.4c-0.5,0.5-1.6,0.8-2.6,0.8c-3.3,0-6.1-2.5-6.1-6.5s2.9-6.8,7.3-6.8c4.4,0,7.4,2.7,7.4,6.8
		c0,2.1-0.7,4-1.6,5.4l-5.2,7.7C147.4,23.1,143.1,23.1,143.1,23.1z M146.8,6.2c-2.1,0-3.5,1.5-3.5,3.7c0,2.1,1.3,3.7,3.5,3.7
		s3.6-1.7,3.6-3.7C150.3,7.8,149,6.2,146.8,6.2z"/>
	<path class="st0" d="M164.4,19v-7.3h-2.1V8.6h2.1v-4h3.8v4h3.1v3.1h-3.1v7c0,0.9,0.4,1.3,1.4,1.3h1.5v3.1h-2.6
		C165.7,23.1,164.4,21.5,164.4,19z"/>
	<path class="st0" d="M180.8,2.2h3.7L176.6,26H173L180.8,2.2z"/>
	<path class="st0" d="M186,8.6h3.6v1.7c0.7-1.3,2.1-2.1,4.2-2.1c1.9,0,3.3,0.8,4.2,2.1c1.1-1.4,2.7-2.1,4.8-2.1c3,0,5.2,2.1,5.2,5.6
		v9.3h-3.8v-8.7c0-1.7-0.8-2.9-2.6-2.9c-1.7,0-2.7,1-2.7,3v8.6h-3.8v-8.7c0-1.7-0.8-2.9-2.6-2.9c-1.7,0-2.7,1-2.7,3v8.6H186V8.6z"/>
	<path class="st0" d="M7.6,42.6l-4.2,1.5v-3.4l4.8-2h3.2v19.5H7.5L7.6,42.6L7.6,42.6z"/>
	<path class="st0" d="M18.5,58.2l5-7.4c-0.5,0.5-1.6,0.8-2.6,0.8c-3.3,0-6.1-2.5-6.1-6.5s2.9-6.8,7.3-6.8c4.4,0,7.4,2.7,7.4,6.8
		c0,2.1-0.7,4-1.6,5.4l-5.2,7.7C22.7,58.2,18.5,58.2,18.5,58.2z M22.2,41.3c-2.1,0-3.5,1.5-3.5,3.7c0,2.1,1.3,3.7,3.5,3.7
		s3.6-1.7,3.6-3.7C25.7,42.9,24.4,41.3,22.2,41.3z"/>
	<path class="st0" d="M37,60.1h0.9c0.8,0,1.1-0.3,1.1-0.9V43.7h3.8v15.8c0,2.3-1.2,3.5-3.8,3.5h-2V60.1z M40.8,37.7
		c1.3,0,2.2,0.9,2.2,2.2c0,1.3-0.9,2.2-2.2,2.2s-2.2-0.9-2.2-2.2C38.6,38.6,39.6,37.7,40.8,37.7z"/>
	<path class="st0" d="M45.9,54c0-3.2,2.4-4.6,5.9-4.6c1.7,0,3,0.7,3.7,1.2v-2c0-1.3-0.9-2.3-2.5-2.3c-1.3,0-2.1,0.6-2.5,1.4H47
		c0.8-2.8,3.1-4.3,6.2-4.3c3.6,0,6.1,2.2,6.1,5.6v9.3h-3.7V57c-0.7,1-2.5,1.7-4.2,1.7C48.2,58.5,45.9,56.8,45.9,54z M55.5,53.9
		c0-1.3-1.3-2-3-2c-1.8,0-2.9,0.7-2.9,2.1c0,1.3,1.2,2.1,2.8,2.1C54.1,56,55.5,55.1,55.5,53.9z"/>
	<path class="st0" d="M62.9,43.7h3.6v1.7c0.7-1.3,2.2-2.1,4.3-2.1c3.2,0,5.1,2.1,5.1,5.6v9.3h-3.8v-8.7c0-1.7-0.8-2.9-2.7-2.9
		c-1.7,0-2.8,1-2.8,3v8.6h-3.7V43.7z"/>
	<path class="st0" d="M92.3,58.2h-3.6v-1.7c-0.7,1.2-2.3,2.1-4.2,2.1c-3.3,0-5.1-2.3-5.1-5.6v-9.3h3.8v8.8c0,1.8,0.9,2.9,2.6,2.9
		c1.8,0,2.8-1.1,2.8-2.9v-8.8h3.8L92.3,58.2L92.3,58.2z"/>
	<path class="st0" d="M95.4,54c0-3.2,2.4-4.6,5.9-4.6c1.7,0,3,0.7,3.7,1.2v-2c0-1.3-0.9-2.3-2.5-2.3c-1.3,0-2.1,0.6-2.5,1.4h-3.5
		c0.8-2.8,3.1-4.3,6.2-4.3c3.6,0,6.1,2.2,6.1,5.6v9.3h-3.7V57c-0.7,1-2.5,1.7-4.2,1.7C97.7,58.5,95.4,56.8,95.4,54z M105,53.9
		c0-1.3-1.3-2-3-2c-1.8,0-2.9,0.7-2.9,2.1c0,1.3,1.2,2.1,2.8,2.1C103.6,56,105,55.1,105,53.9z"/>
	<path class="st0" d="M112.4,43.7h3.6v2.8c0.5-2.2,2.2-2.9,4.4-2.9h0.4v3.8H120c-2.5,0-3.8,1.2-3.8,4.2v6.7h-3.8L112.4,43.7
		L112.4,43.7z"/>
	<path class="st0" d="M125.3,37.7c1.3,0,2.2,0.9,2.2,2.2c0,1.3-0.9,2.2-2.2,2.2s-2.2-0.9-2.2-2.2C123.1,38.6,124.1,37.7,125.3,37.7z
		 M123.5,43.7h3.8v14.5h-3.8V43.7z"/>
	<path class="st0" d="M136.8,55.3l8-7.8c1.1-1.1,1.8-2,1.8-3.4c0-1.6-1.2-2.6-2.8-2.6c-1.9,0-2.9,1.1-2.9,3v0.4h-3.7v-0.7
		c0-3.9,2.5-6,6.5-6s6.7,2.3,6.7,5.7c0,2.8-2,4.7-3.8,6.4l-5.1,4.7h8.8v3.2h-13.5V55.3z"/>
	<path class="st0" d="M153.6,51.8v-6.7c0-4,2.9-6.8,7.4-6.8s7.4,2.8,7.4,6.8v6.7c0,4-2.9,6.8-7.4,6.8S153.6,55.8,153.6,51.8z
		 M164.5,45c0-2.4-1.3-3.6-3.5-3.6s-3.5,1.2-3.5,3.6v6.8c0,2.4,1.3,3.6,3.5,3.6s3.5-1.2,3.5-3.6V45z"/>
	<path class="st0" d="M171.4,55.3l8-7.8c1.1-1.1,1.8-2,1.8-3.4c0-1.6-1.2-2.6-2.8-2.6c-1.9,0-2.9,1.1-2.9,3v0.4h-3.7v-0.7
		c0-3.9,2.5-6,6.5-6s6.7,2.3,6.7,5.7c0,2.8-2,4.7-3.8,6.4l-5.1,4.7h8.8v3.2h-13.5V55.3z"/>
	<path class="st0" d="M188.3,51.8v-6.7c0-4,2.9-6.8,7.4-6.8s7.4,2.8,7.4,6.8v6.7c0,4-2.9,6.8-7.4,6.8S188.3,55.8,188.3,51.8z
		 M199.1,45c0-2.4-1.3-3.6-3.5-3.6s-3.5,1.2-3.5,3.6v6.8c0,2.4,1.3,3.6,3.5,3.6s3.5-1.2,3.5-3.6V45z"/>
</g>
</svg>
