<?xml version="1.0" encoding="utf-8"?>
<!-- Generator: Adobe Illustrator 23.0.2, SVG Export Plug-In . SVG Version: 6.00 Build 0)  -->
<svg version="1.1" id="Laag_1" xmlns="http://www.w3.org/2000/svg" xmlns:xlink="http://www.w3.org/1999/xlink" x="0px" y="0px"
	 width="93.5px" height="22.3px" viewBox="0 0 93.5 22.3" style="enable-background:new 0 0 93.5 22.3;" xml:space="preserve">
<style type="text/css">
	.st0{fill:#224B9B;}
</style>
<g>
	<path class="st0" d="M0.8,6.9l3-3.9H0.9V2.4h3.7V3l-3,3.9h3v0.6H0.8V6.9z"/>
	<path class="st0" d="M9.5,7.5V6.9C9.3,7.2,8.6,7.6,7.8,7.6C6.6,7.6,5.9,7,5.9,6c0-1,0.8-1.6,2-1.6c0.8,0,1.3,0.3,1.6,0.6V4.1
		c0-0.7-0.5-1.2-1.3-1.2C7.6,2.9,7.2,3.2,7,3.7H6.3c0.3-0.8,1-1.4,2-1.4c1.3,0,2,0.8,2,1.8v3.4H9.5z M9.5,6c0-0.6-0.8-1.1-1.5-1.1
		C7.2,4.9,6.6,5.3,6.6,6c0,0.7,0.6,1.1,1.4,1.1C8.8,7.1,9.5,6.7,9.5,6z"/>
	<path class="st0" d="M13.8,7.5c-1,0-1.4-0.5-1.4-1.4V3h-0.9V2.4h0.9V1h0.8v1.5h1.3V3h-1.3v3.1c0,0.5,0.2,0.7,0.8,0.7h0.5v0.6H13.8z
		"/>
	<path class="st0" d="M15.6,5.4V4.6c0-1.4,0.8-2.3,2.2-2.3c1.5,0,2.2,1,2.2,2.2v0.8h-3.7v0.2c0,0.9,0.5,1.6,1.5,1.6
		c0.8,0,1.2-0.4,1.4-1h0.7c-0.2,0.9-1,1.6-2.1,1.6C16.5,7.6,15.6,6.8,15.6,5.4z M16.3,4.7h2.9V4.5c0-0.9-0.5-1.6-1.5-1.6
		c-1.1,0-1.5,0.7-1.5,1.7V4.7z"/>
	<path class="st0" d="M21.5,2.4h0.7v1.2c0.2-0.8,0.7-1.2,1.7-1.2H24v0.7h-0.1c-1,0-1.6,0.6-1.6,1.9v2.5h-0.8V2.4z"/>
	<path class="st0" d="M29.5,0.2v7.3h-0.7V6.7c-0.2,0.5-0.9,0.9-1.7,0.9c-1.3,0-2.1-1-2.1-2.3V4.6c0-1.3,0.8-2.3,2.1-2.3
		c0.8,0,1.4,0.4,1.7,0.9V0.2H29.5z M25.7,5.3c0,0.9,0.4,1.7,1.5,1.7c1,0,1.6-0.8,1.6-1.8V4.6c0-1-0.7-1.7-1.6-1.7
		c-1,0-1.5,0.8-1.5,1.7V5.3z"/>
	<path class="st0" d="M34.7,7.5V6.9c-0.2,0.4-0.9,0.8-1.8,0.8c-1.2,0-1.9-0.7-1.9-1.6c0-1,0.8-1.6,2-1.6c0.8,0,1.3,0.3,1.6,0.6V4.1
		c0-0.7-0.5-1.2-1.3-1.2c-0.6,0-1.1,0.3-1.3,0.8h-0.7c0.3-0.8,1-1.4,2-1.4c1.3,0,2,0.8,2,1.8v3.4H34.7z M34.7,6
		c0-0.6-0.8-1.1-1.5-1.1c-0.8,0-1.4,0.4-1.4,1.1c0,0.7,0.6,1.1,1.4,1.1C33.9,7.1,34.7,6.7,34.7,6z"/>
	<path class="st0" d="M37.1,8.1h0.7c0.3,0.5,0.8,0.7,1.5,0.7c0.9,0,1.5-0.5,1.5-1.3V6.3c-0.2,0.5-0.9,1-1.7,1
		c-1.3,0-2.1-0.9-2.1-2.1V4.4c0-1.2,0.7-2.1,2.1-2.1c1,0,1.5,0.5,1.7,1V2.4h0.7v5.1c0,1.1-1,1.9-2.2,1.9C38.3,9.4,37.3,8.9,37.1,8.1
		z M40.8,5.1V4.5c0-0.9-0.7-1.6-1.5-1.6c-1,0-1.5,0.5-1.5,1.5v0.7c0,1,0.5,1.5,1.5,1.5C40.1,6.7,40.8,6.1,40.8,5.1z"/>
</g>
<g>
	<path class="st0" d="M46.7,1.9l-1.5,0.5V1.3l1.7-0.7H48v7h-1.4V1.9z"/>
	<path class="st0" d="M49.6,6.5l2.8-2.8c0.4-0.4,0.6-0.7,0.6-1.2c0-0.6-0.4-0.9-1-0.9c-0.7,0-1,0.4-1,1.1v0.1h-1.3V2.5
		c0-1.4,0.9-2.1,2.3-2.1s2.4,0.8,2.4,2.1c0,1-0.7,1.7-1.4,2.3l-1.8,1.7h3.1v1.1h-4.8V6.5z"/>
	<path class="st0" d="M58.1,5.3V4.6c0-1.3,0.9-2.3,2.4-2.3c1.6,0,2.4,1,2.4,2.3v0.7c0,1.3-0.9,2.3-2.4,2.3C59,7.6,58.1,6.6,58.1,5.3
		z M61.6,4.5c0-0.7-0.4-1.2-1.1-1.2c-0.8,0-1.1,0.5-1.1,1.2v0.9c0,0.7,0.4,1.2,1.1,1.2c0.8,0,1.1-0.5,1.1-1.2V4.5z"/>
	<path class="st0" d="M64.3,0.2h1.4v4.5l1.6-2.4h1.5L67,4.9l1.8,2.6h-1.5L65.6,5v2.5h-1.4V0.2z"/>
	<path class="st0" d="M70.2,6V3.4h-0.7V2.3h0.7V0.9h1.4v1.4h1.1v1.1h-1.1v2.5c0,0.3,0.1,0.5,0.5,0.5h0.5v1.1h-0.9
		C70.6,7.5,70.2,7,70.2,6z"/>
	<path class="st0" d="M74.4,6c0.5,0,0.8,0.3,0.8,0.8s-0.3,0.8-0.8,0.8s-0.8-0.3-0.8-0.8S73.9,6,74.4,6z"/>
</g>
<g>
	<path class="st0" d="M0.8,19.6l3-3.9H0.9v-0.6h3.7v0.6l-3,3.9h3v0.6H0.8V19.6z"/>
	<path class="st0" d="M5.9,18.1v-0.8C5.9,16,6.7,15,8.1,15c1.4,0,2.3,1,2.3,2.2v0.8c0,1.3-0.8,2.2-2.3,2.2
		C6.7,20.3,5.9,19.3,5.9,18.1z M8.1,15.6c-1,0-1.5,0.7-1.5,1.7V18c0,1,0.5,1.7,1.5,1.7S9.7,19,9.7,18v-0.8
		C9.7,16.3,9.1,15.6,8.1,15.6z"/>
	<path class="st0" d="M12,15.1h0.7V16c0.2-0.6,0.8-1,1.7-1c1.1,0,1.9,0.8,1.9,2v3.2h-0.8v-3.1c0-0.9-0.4-1.5-1.3-1.5
		c-0.8,0-1.5,0.5-1.5,1.6v3H12V15.1z"/>
	<path class="st0" d="M22.3,12.9v7.3h-0.7v-0.8c-0.2,0.5-0.9,0.9-1.7,0.9c-1.3,0-2.1-1-2.1-2.3v-0.8c0-1.3,0.8-2.3,2.1-2.3
		c0.8,0,1.4,0.4,1.7,0.9v-2.9H22.3z M18.5,18c0,0.9,0.4,1.7,1.5,1.7c1,0,1.6-0.8,1.6-1.8v-0.7c0-1-0.7-1.7-1.6-1.7
		c-1,0-1.5,0.8-1.5,1.7V18z"/>
	<path class="st0" d="M27.6,20.2v-0.6c-0.2,0.4-0.9,0.8-1.8,0.8c-1.2,0-1.9-0.7-1.9-1.6c0-1,0.8-1.6,2-1.6c0.8,0,1.3,0.3,1.6,0.6
		v-0.9c0-0.7-0.5-1.2-1.3-1.2c-0.6,0-1.1,0.3-1.3,0.8h-0.7c0.3-0.8,1-1.4,2-1.4c1.3,0,2,0.8,2,1.8v3.4H27.6z M27.6,18.7
		c0-0.6-0.8-1.1-1.5-1.1c-0.8,0-1.4,0.4-1.4,1.1c0,0.7,0.6,1.1,1.4,1.1C26.8,19.8,27.6,19.3,27.6,18.7z"/>
	<path class="st0" d="M29.9,20.7h0.7c0.3,0.5,0.8,0.7,1.5,0.7c0.9,0,1.5-0.5,1.5-1.3V19c-0.2,0.5-0.9,1-1.7,1
		c-1.3,0-2.1-0.9-2.1-2.1V17c0-1.2,0.7-2.1,2.1-2.1c1,0,1.5,0.5,1.7,1v-0.8h0.7v5.1c0,1.1-1,1.9-2.2,1.9
		C31.1,22,30.2,21.6,29.9,20.7z M33.6,17.8v-0.7c0-0.9-0.7-1.6-1.5-1.6c-1,0-1.5,0.5-1.5,1.5v0.7c0,1,0.5,1.5,1.5,1.5
		C32.9,19.4,33.6,18.8,33.6,17.8z"/>
</g>
<g>
	<path class="st0" d="M39.5,14.6L38,15.2v-1.2l1.7-0.7h1.1v7h-1.4V14.6z"/>
	<path class="st0" d="M42.8,13.2h4.4v1.1l-1.8,1.8c1.1,0,2.1,0.7,2.1,2c0,1.3-1.2,2.2-2.6,2.2c-1.3,0-2.5-0.7-2.5-2.2h1.3
		c0,0.7,0.5,1.1,1.2,1.1c0.7,0,1.2-0.5,1.2-1.1c0-0.6-0.4-1-1.2-1h-1V16l1.6-1.7h-2.7V13.2z"/>
	<path class="st0" d="M51,18v-0.7c0-1.3,0.9-2.3,2.4-2.3s2.4,1,2.4,2.3V18c0,1.3-0.9,2.3-2.4,2.3S51,19.3,51,18z M54.6,17.1
		c0-0.7-0.4-1.2-1.1-1.2c-0.8,0-1.1,0.5-1.1,1.2v0.9c0,0.7,0.4,1.2,1.1,1.2c0.8,0,1.1-0.5,1.1-1.2V17.1z"/>
	<path class="st0" d="M57.2,12.9h1.4v4.5l1.6-2.4h1.5l-1.8,2.5l1.8,2.6h-1.5l-1.7-2.5v2.5h-1.4V12.9z"/>
	<path class="st0" d="M63.1,18.7v-2.6h-0.7V15h0.7v-1.4h1.4V15h1.1v1.1h-1.1v2.5c0,0.3,0.1,0.5,0.5,0.5h0.5v1.1h-0.9
		C63.6,20.2,63.1,19.6,63.1,18.7z"/>
	<path class="st0" d="M67.3,18.7c0.5,0,0.8,0.3,0.8,0.8c0,0.5-0.3,0.8-0.8,0.8c-0.5,0-0.8-0.3-0.8-0.8C66.5,19,66.9,18.7,67.3,18.7z
		"/>
</g>
</svg>
