<?xml version="1.0" encoding="utf-8"?>
<!-- Generator: Adobe Illustrator 24.3.0, SVG Export Plug-In . SVG Version: 6.00 Build 0)  -->
<svg version="1.1" id="Laag_1" xmlns:v="https://vecta.io/nano"
	 xmlns="http://www.w3.org/2000/svg" xmlns:xlink="http://www.w3.org/1999/xlink" x="0px" y="0px" width="423.3px" height="139.7px"
	 viewBox="0 0 423.3 139.7" style="enable-background:new 0 0 423.3 139.7;" xml:space="preserve">
<style type="text/css">
	.st0{fill:#6A3F24;}
</style>
<g>
	<path class="st0" d="M24.8,34.1l-2.7-7.4h-12l-2.7,7.4H0L12.6,0h7.5l12.5,34.1H24.8z M12.5,20h7.1l-3.1-8.5
		c-0.1-0.2-0.1-0.3-0.1-0.5v-0.4c0-0.2-0.1-0.2-0.2-0.2h0L12.5,20z"/>
	<path class="st0" d="M72.6,0h7.2v34.1h-7.7L56.9,10.7h-0.1c-0.1,0-0.1,0-0.2,0.1c0,0.1-0.1,0.1,0,0.2c0.3,1,0.5,2,0.5,2.9v20.2
		h-7.2V0h7.7l15.2,23.4h0.1c0.1,0,0.1,0,0.2-0.1c0-0.1,0.1-0.1,0-0.2c-0.3-1-0.5-2-0.5-2.9V0z"/>
	<path class="st0" d="M108.7,27.6c0.3,0.3,0.5,0.9,0.5,1.7v4.9h-0.7c-3,0-5.1-1-6.4-2.9c-2.1,2.2-5.1,3.3-9.1,3.3
		c-2.5,0-4.6-0.7-6.1-2c-1.5-1.4-2.2-3.2-2.2-5.5c0-2.2,0.7-4.1,2.1-5.6c1.4-1.5,3.6-2.4,6.5-2.8c3.7-0.4,6.2-1,7.4-1.7v-0.1
		c0-0.8-0.4-1.5-1.2-2c-0.8-0.5-1.8-0.8-2.9-0.8c-0.6,0-1.2,0-1.7,0.1c-0.5,0.1-1,0.2-1.5,0.4c-0.5,0.2-0.8,0.3-1,0.4
		s-0.6,0.3-1,0.6c-0.4,0.3-0.7,0.4-0.7,0.4c-0.6,0.3-1.1,0.4-1.7,0.3c-0.6-0.1-1-0.4-1.3-0.8l-2.1-2.9c0.3-0.4,0.8-0.9,1.4-1.3
		c0.6-0.5,1.3-0.9,2.2-1.5c0.9-0.5,1.9-0.9,3.2-1.3C93.6,8.1,94.9,8,96.2,8c3.8,0,6.6,0.9,8.6,2.6c2,1.7,2.9,4.3,2.9,7.7v7.2
		C107.7,26.5,108,27.1,108.7,27.6L108.7,27.6z M93.9,28.8c0.7,0,1.4,0,2-0.1c0.6-0.1,1.2-0.3,1.9-0.5s1.2-0.6,1.6-1
		c0.4-0.4,0.8-1,1.1-1.7c0.3-0.7,0.4-1.5,0.4-2.4v-0.7c-1.3,1.1-3.3,1.7-6,1.7c-1.2,0.1-2.2,0.4-2.7,0.8s-0.9,1-0.9,1.8
		c0,0.7,0.2,1.2,0.7,1.6C92.5,28.6,93.1,28.8,93.9,28.8z"/>
	<path class="st0" d="M129.3,14.6h-7.4v10.4c0,0.8,0.3,1.5,0.8,2.1c0.5,0.5,1.2,0.8,2,0.8h2.9c0.6,0,1,0.2,1.3,0.5
		c0.3,0.3,0.5,0.8,0.5,1.3v4.6h-5.3c-2.8,0-5.1-0.8-6.7-2.5c-1.6-1.6-2.4-3.9-2.4-6.8V14.6h-2.2c-0.5,0-1-0.2-1.3-0.5
		s-0.5-0.8-0.5-1.3V8.5h4V0h6.9v8.5h7.4V14.6z"/>
	<path class="st0" d="M156.7,27.6c0.3,0.3,0.5,0.9,0.5,1.7v4.9h-0.7c-3,0-5.1-1-6.4-2.9c-2.1,2.2-5.1,3.3-9.1,3.3
		c-2.5,0-4.6-0.7-6.1-2c-1.5-1.4-2.2-3.2-2.2-5.5c0-2.2,0.7-4.1,2.1-5.6c1.4-1.5,3.6-2.4,6.5-2.8c3.7-0.4,6.2-1,7.4-1.7v-0.1
		c0-0.8-0.4-1.5-1.2-2c-0.8-0.5-1.8-0.8-2.9-0.8c-0.6,0-1.2,0-1.7,0.1c-0.5,0.1-1,0.2-1.5,0.4c-0.5,0.2-0.8,0.3-1,0.4
		s-0.6,0.3-1,0.6c-0.4,0.3-0.7,0.4-0.7,0.4c-0.6,0.3-1.1,0.4-1.7,0.3c-0.6-0.1-1-0.4-1.3-0.8l-2.1-2.9c0.3-0.4,0.8-0.9,1.4-1.3
		c0.6-0.5,1.3-0.9,2.2-1.5c0.9-0.5,1.9-0.9,3.2-1.3c1.2-0.3,2.5-0.5,3.8-0.5c3.8,0,6.6,0.9,8.6,2.6c2,1.7,2.9,4.3,2.9,7.7v7.2
		C155.7,26.5,156,27.1,156.7,27.6L156.7,27.6z M141.9,28.8c0.7,0,1.4,0,2-0.1c0.6-0.1,1.2-0.3,1.9-0.5s1.2-0.6,1.6-1
		c0.4-0.4,0.8-1,1.1-1.7c0.3-0.7,0.4-1.5,0.4-2.4v-0.7c-1.3,1.1-3.3,1.7-6,1.7c-1.2,0.1-2.2,0.4-2.7,0.8s-0.9,1-0.9,1.8
		c0,0.7,0.2,1.2,0.7,1.6C140.4,28.6,141.1,28.8,141.9,28.8z"/>
	<path class="st0" d="M170.3,34.2c-2.7,0-4.7-0.7-6.2-2.2c-1.5-1.5-2.2-3.6-2.2-6.2V0h6.9v25.7c0,0.6,0.2,1.2,0.6,1.5
		c0.4,0.4,0.9,0.6,1.5,0.6h1.3c0.5,0,1,0.2,1.3,0.5c0.3,0.3,0.5,0.8,0.5,1.3v4.6H170.3z"/>
	<path class="st0" d="M189.3,8c3.9,0,7,1.3,9.4,3.8s3.6,5.9,3.6,10v1.1c0,0.3-0.1,0.5-0.3,0.7c-0.2,0.2-0.4,0.3-0.7,0.3h-17.9
		c0.4,1.4,1.1,2.6,2.1,3.5c1,0.9,2.3,1.3,3.8,1.3c1.1,0,2.1-0.3,2.9-0.8c0.8-0.6,1.4-1.2,1.9-2c0.3-0.5,0.8-0.6,1.3-0.4l5.8,2
		c-0.9,2.2-2.3,4-4.3,5.3c-2,1.3-4.5,1.9-7.5,1.9c-3.9,0-7.1-1.2-9.5-3.7c-2.4-2.4-3.6-5.6-3.6-9.6c0-4,1.2-7.3,3.6-9.7
		C182.2,9.2,185.4,8,189.3,8z M189.3,14c-1.4,0-2.6,0.4-3.6,1.1c-1,0.7-1.7,1.8-2.1,3.1h11.3c-0.5-1.3-1.2-2.3-2.2-3.1
		C191.8,14.4,190.6,14,189.3,14z"/>
	<path class="st0" d="M17.5,56.1c3.5,0,6.3,1.2,8.4,3.6c2.1,2.4,3.1,5.6,3.1,9.6c0,4.2-1,7.5-3.1,9.8c-2.1,2.3-5,3.5-8.8,3.5
		c-2.8,0-5-0.8-6.8-2.3v10.3H3.3V56.5h5.2c0.3,0,0.5,0.1,0.7,0.3c0.2,0.2,0.3,0.4,0.3,0.7v2.2C11.6,57.3,14.3,56.1,17.5,56.1z
		 M16.2,76.6c1.8,0,3.3-0.7,4.3-2c1.1-1.3,1.6-3.1,1.6-5.2s-0.5-3.9-1.5-5.2c-1-1.3-2.5-2-4.3-2s-3.3,0.6-4.4,1.9
		c-1.1,1.2-1.6,2.9-1.7,5v0.5c0,2.2,0.5,3.9,1.6,5.2C12.8,75.9,14.3,76.6,16.2,76.6z"/>
	<path class="st0" d="M44.8,56c3.9,0,7,1.3,9.4,3.8s3.6,5.9,3.6,10v1.1c0,0.3-0.1,0.5-0.3,0.7c-0.2,0.2-0.4,0.3-0.7,0.3H38.9
		c0.4,1.4,1.1,2.6,2.1,3.5c1,0.9,2.3,1.3,3.8,1.3c1.1,0,2.1-0.3,2.9-0.8c0.8-0.6,1.4-1.2,1.9-2c0.3-0.5,0.8-0.6,1.3-0.4l5.8,2
		c-0.9,2.2-2.3,4-4.3,5.3c-2,1.3-4.5,1.9-7.5,1.9c-3.9,0-7.1-1.2-9.5-3.7c-2.4-2.4-3.6-5.6-3.6-9.6c0-4,1.2-7.3,3.6-9.7
		C37.7,57.2,40.9,56,44.8,56z M44.8,62c-1.4,0-2.6,0.4-3.6,1.1c-1,0.7-1.7,1.8-2.1,3.1h11.3c-0.5-1.3-1.2-2.3-2.2-3.1
		C47.3,62.4,46.1,62,44.8,62z"/>
	<path class="st0" d="M76.3,56.5h0.4v3.9c0,0.6-0.2,1-0.5,1.3c-0.3,0.3-0.7,0.5-1.2,0.5h-0.3c-2,0-3.4,0.6-4.4,1.8
		c-1,1.2-1.5,2.8-1.5,5v13h-6.9V56.5h5.2c0.3,0,0.5,0.1,0.7,0.3c0.2,0.2,0.3,0.4,0.3,0.7V60C70,57.7,72.8,56.5,76.3,56.5z"/>
	<path class="st0" d="M102.2,82.2c-2.7,0-4.7-0.7-6.2-2.2c-1.5-1.5-2.2-3.6-2.2-6.2V48h6.9v25.7c0,0.6,0.2,1.2,0.6,1.5
		c0.4,0.4,0.9,0.6,1.5,0.6h1.3c0.5,0,1,0.2,1.3,0.5c0.3,0.3,0.5,0.8,0.5,1.3v4.6H102.2z"/>
	<path class="st0" d="M132.1,75.6c0.3,0.3,0.5,0.9,0.5,1.7v4.9h-0.7c-3,0-5.1-1-6.4-2.9c-2.1,2.2-5.1,3.3-9.1,3.3
		c-2.5,0-4.6-0.7-6.1-2c-1.5-1.4-2.2-3.2-2.2-5.5c0-2.2,0.7-4.1,2.1-5.6c1.4-1.5,3.6-2.4,6.5-2.8c3.7-0.4,6.2-1,7.4-1.7v-0.1
		c0-0.8-0.4-1.5-1.2-2c-0.8-0.5-1.8-0.8-2.9-0.8c-0.6,0-1.2,0-1.7,0.1c-0.5,0.1-1,0.2-1.5,0.4c-0.5,0.2-0.8,0.3-1,0.4
		s-0.6,0.3-1,0.6c-0.4,0.3-0.7,0.4-0.7,0.4c-0.6,0.3-1.1,0.4-1.7,0.3c-0.6-0.1-1-0.4-1.3-0.8l-2.1-2.9c0.3-0.4,0.8-0.9,1.4-1.3
		c0.6-0.5,1.3-0.9,2.2-1.5c0.9-0.5,1.9-0.9,3.2-1.3c1.2-0.3,2.5-0.5,3.8-0.5c3.8,0,6.6,0.9,8.6,2.6c2,1.7,2.9,4.3,2.9,7.7v7.2
		C131.1,74.5,131.4,75.1,132.1,75.6L132.1,75.6z M117.3,76.8c0.7,0,1.4,0,2-0.1c0.6-0.1,1.2-0.3,1.9-0.5s1.2-0.6,1.6-1
		c0.4-0.4,0.8-1,1.1-1.7c0.3-0.7,0.4-1.5,0.4-2.4v-0.7c-1.3,1.1-3.3,1.7-6,1.7c-1.2,0.1-2.2,0.4-2.7,0.8s-0.9,1-0.9,1.8
		c0,0.7,0.2,1.2,0.7,1.6C115.9,76.6,116.5,76.8,117.3,76.8z"/>
	<path class="st0" d="M166.3,62.6h-7.4v10.4c0,0.8,0.3,1.5,0.8,2.1c0.5,0.5,1.2,0.8,2,0.8h2.9c0.6,0,1,0.2,1.3,0.5
		c0.3,0.3,0.5,0.8,0.5,1.3v4.6H161c-2.8,0-5.1-0.8-6.7-2.5c-1.6-1.6-2.4-3.9-2.4-6.8V62.6h-2.2c-0.5,0-1-0.2-1.3-0.5
		s-0.5-0.8-0.5-1.3v-4.2h4V48h6.9v8.5h7.4V62.6z"/>
	<path class="st0" d="M187.7,56.5h6.9v25.6h-5.2c-0.3,0-0.5-0.1-0.7-0.3c-0.2-0.2-0.3-0.4-0.3-0.7v-1.9c-1.8,2.2-4.1,3.3-6.9,3.3
		c-3.3,0-5.9-0.9-7.6-2.7c-1.7-1.8-2.5-4.4-2.5-7.9V56.5h6.9v14.3c0,1.9,0.3,3.4,1,4.3c0.6,0.9,1.8,1.4,3.4,1.4
		c1.6,0,2.8-0.5,3.7-1.5c0.9-1,1.3-2.4,1.3-4.2V56.5z"/>
	<path class="st0" d="M223.3,75.6c0.3,0.3,0.5,0.9,0.5,1.7v4.9h-0.7c-3,0-5.1-1-6.4-2.9c-2.1,2.2-5.1,3.3-9.1,3.3
		c-2.5,0-4.6-0.7-6.1-2c-1.5-1.4-2.2-3.2-2.2-5.5c0-2.2,0.7-4.1,2.1-5.6c1.4-1.5,3.6-2.4,6.5-2.8c3.7-0.4,6.2-1,7.4-1.7v-0.1
		c0-0.8-0.4-1.5-1.2-2c-0.8-0.5-1.8-0.8-2.9-0.8c-0.6,0-1.2,0-1.7,0.1c-0.5,0.1-1,0.2-1.5,0.4c-0.5,0.2-0.8,0.3-1,0.4
		s-0.6,0.3-1,0.6c-0.4,0.3-0.7,0.4-0.7,0.4c-0.6,0.3-1.1,0.4-1.7,0.3c-0.6-0.1-1-0.4-1.3-0.8l-2.1-2.9c0.3-0.4,0.8-0.9,1.4-1.3
		c0.6-0.5,1.3-0.9,2.2-1.5c0.9-0.5,1.9-0.9,3.2-1.3s2.5-0.5,3.8-0.5c3.8,0,6.6,0.9,8.6,2.6c2,1.7,2.9,4.3,2.9,7.7v7.2
		C222.3,74.5,222.6,75.1,223.3,75.6L223.3,75.6z M208.5,76.8c0.7,0,1.4,0,2-0.1s1.2-0.3,1.9-0.5c0.6-0.3,1.2-0.6,1.6-1
		c0.4-0.4,0.8-1,1.1-1.7c0.3-0.7,0.4-1.5,0.4-2.4v-0.7c-1.3,1.1-3.3,1.7-6,1.7c-1.2,0.1-2.2,0.4-2.7,0.8s-0.9,1-0.9,1.8
		c0,0.7,0.2,1.2,0.7,1.6C207,76.6,207.7,76.8,208.5,76.8z"/>
	<path class="st0" d="M263.5,82.1l-2.7-7.4h-12l-2.7,7.4h-7.4L251.3,48h7.5l12.5,34.1H263.5z M251.2,68h7.1l-3.1-8.5
		c-0.1-0.2-0.1-0.3-0.1-0.5v-0.4c0-0.2-0.1-0.2-0.2-0.2h0L251.2,68z"/>
	<path class="st0" d="M293.7,56.5v6.1L281.8,76h11.9v6.1h-21V76l12.1-13.4h-12.1v-6.1H293.7z"/>
	<path class="st0" d="M301.8,53.8c-1.1,0-2-0.3-2.7-1c-0.7-0.7-1-1.6-1-2.7c0-1.1,0.3-2,1-2.7c0.7-0.7,1.6-1.1,2.7-1.1
		c1.1,0,2,0.4,2.7,1.1c0.7,0.7,1.1,1.6,1.1,2.7c0,1.1-0.4,2-1.1,2.7C303.8,53.5,302.9,53.8,301.8,53.8z M298.4,82.1V56.5h6.9v25.6
		H298.4z"/>
	<path class="st0" d="M323.1,56c3.9,0,7,1.3,9.4,3.8s3.6,5.9,3.6,10v1.1c0,0.3-0.1,0.5-0.3,0.7c-0.2,0.2-0.4,0.3-0.7,0.3h-17.9
		c0.4,1.4,1.1,2.6,2.1,3.5c1,0.9,2.3,1.3,3.8,1.3c1.1,0,2.1-0.3,2.9-0.8c0.8-0.6,1.4-1.2,1.9-2c0.3-0.5,0.8-0.6,1.3-0.4l5.8,2
		c-0.9,2.2-2.3,4-4.3,5.3c-2,1.3-4.5,1.9-7.5,1.9c-3.9,0-7.1-1.2-9.5-3.7c-2.4-2.4-3.6-5.6-3.6-9.6c0-4,1.2-7.3,3.6-9.7
		C316.1,57.2,319.2,56,323.1,56z M323.1,62c-1.4,0-2.6,0.4-3.6,1.1c-1,0.7-1.7,1.8-2.1,3.1h11.3c-0.5-1.3-1.2-2.3-2.2-3.1
		C325.6,62.4,324.5,62,323.1,62z"/>
	<path class="st0" d="M353.9,56.1c3.3,0,5.8,0.9,7.5,2.8s2.6,4.6,2.6,8.1v15.1h-6.9V67.8c0-1.9-0.3-3.4-1-4.3
		c-0.6-0.9-1.8-1.4-3.4-1.4c-1.6,0-2.8,0.5-3.7,1.5c-0.9,1-1.3,2.4-1.3,4.2v14.3h-6.9V56.5h5.2c0.3,0,0.5,0.1,0.7,0.3
		c0.2,0.2,0.3,0.4,0.3,0.7v1.9C348.8,57.2,351.1,56.1,353.9,56.1z"/>
	<path class="st0" d="M387.2,48h6.9v34.1h-5.2c-0.3,0-0.5-0.1-0.7-0.3c-0.2-0.2-0.3-0.4-0.3-0.7V79c-2.1,2.4-4.8,3.6-7.9,3.6
		c-3.5,0-6.3-1.2-8.4-3.6s-3.1-5.6-3.1-9.6c0-4.2,1-7.5,3.1-9.8s5-3.5,8.8-3.5c2.8,0,5,0.8,6.9,2.4V48z M381.3,76.6
		c1.8,0,3.3-0.6,4.3-1.9c1.1-1.2,1.6-3,1.6-5.1v-0.5c0-2.1-0.5-3.8-1.6-5.1c-1.1-1.3-2.6-1.9-4.4-1.9c-1.8,0-3.2,0.7-4.3,2
		c-1,1.3-1.5,3.1-1.5,5.2s0.5,3.9,1.6,5.2C378,75.9,379.4,76.6,381.3,76.6z"/>
	<path class="st0" d="M422.8,75.6c0.3,0.3,0.5,0.9,0.5,1.7v4.9h-0.7c-3,0-5.1-1-6.4-2.9c-2.1,2.2-5.1,3.3-9.1,3.3
		c-2.5,0-4.6-0.7-6.1-2s-2.2-3.2-2.2-5.5c0-2.2,0.7-4.1,2.1-5.6c1.4-1.5,3.6-2.4,6.5-2.8c3.7-0.4,6.2-1,7.4-1.7v-0.1
		c0-0.8-0.4-1.5-1.2-2c-0.8-0.5-1.8-0.8-2.9-0.8c-0.6,0-1.2,0-1.7,0.1c-0.5,0.1-1,0.2-1.5,0.4c-0.5,0.2-0.8,0.3-1,0.4
		c-0.2,0.1-0.6,0.3-1,0.6c-0.4,0.3-0.7,0.4-0.7,0.4c-0.6,0.3-1.1,0.4-1.7,0.3c-0.6-0.1-1-0.4-1.3-0.8l-2.1-2.9
		c0.3-0.4,0.8-0.9,1.4-1.3c0.6-0.5,1.3-0.9,2.2-1.5c0.9-0.5,1.9-0.9,3.2-1.3s2.5-0.5,3.8-0.5c3.8,0,6.6,0.9,8.6,2.6
		c2,1.7,2.9,4.3,2.9,7.7v7.2C421.8,74.5,422.1,75.1,422.8,75.6L422.8,75.6z M408,76.8c0.7,0,1.4,0,2-0.1s1.2-0.3,1.9-0.5
		c0.6-0.3,1.2-0.6,1.6-1c0.4-0.4,0.8-1,1.1-1.7c0.3-0.7,0.4-1.5,0.4-2.4v-0.7c-1.3,1.1-3.3,1.7-6,1.7c-1.2,0.1-2.2,0.4-2.7,0.8
		c-0.6,0.4-0.9,1-0.9,1.8c0,0.7,0.2,1.2,0.7,1.6C406.6,76.6,407.2,76.8,408,76.8z"/>
	<path class="st0" d="M11.6,130.6c-2.2,0-4.2-0.3-6.1-0.9c-1.9-0.6-3.4-1.4-4.5-2.4l2.7-4.1c0.2-0.3,0.5-0.5,0.8-0.5
		c0.3-0.1,0.7,0,1,0.2c2,1.2,4,1.7,6,1.7c1.2,0,2.1-0.2,2.7-0.6c0.6-0.4,0.9-0.9,0.9-1.6c0-0.5-0.2-1-0.6-1.3
		c-0.4-0.4-1-0.6-1.7-0.8c-0.6-0.2-1.5-0.4-2.7-0.6s-2.1-0.5-2.8-0.7c-1.8-0.5-3.2-1.3-4.3-2.6c-1-1.2-1.6-2.8-1.6-4.5
		c0-2.4,0.9-4.4,2.7-5.8c1.8-1.5,4.2-2.2,7.1-2.2c1.9,0,3.7,0.3,5.4,0.9c1.7,0.6,3.1,1.4,4.1,2.3l-2.5,4.1c-0.4,0.7-1,0.8-1.7,0.4
		c-2-1.2-4-1.8-6-1.8c-0.8,0-1.4,0.2-1.8,0.5S8,111.1,8,111.6c0,0.4,0.1,0.7,0.4,1s0.7,0.5,1.2,0.6c1.1,0.3,2.6,0.8,4.5,1.2
		c2.5,0.6,4.4,1.6,5.7,3c1.3,1.4,2,3.1,2,5c0,2.5-0.9,4.4-2.7,5.9C17.3,129.9,14.8,130.6,11.6,130.6z"/>
	<path class="st0" d="M37.1,130.7c-3.9,0-7.1-1.2-9.4-3.7c-2.3-2.4-3.5-5.6-3.5-9.6c0-4.1,1.2-7.4,3.5-9.8c2.3-2.4,5.4-3.6,9.4-3.6
		c3.1,0,5.7,0.8,7.8,2.3c2.1,1.5,3.5,3.8,4.2,6.7l-5.3,1c-1,0.2-1.7-0.1-2.1-0.9c-0.8-2.1-2.4-3.1-4.6-3.1c-1.9,0-3.4,0.7-4.4,2
		c-1,1.4-1.5,3.1-1.5,5.3c0,2.1,0.5,3.8,1.6,5.2s2.5,2,4.4,2c1.3,0,2.3-0.3,3-0.8s1.3-1.4,1.7-2.6c0.2-0.4,0.5-0.7,0.9-0.9
		c0.4-0.2,0.9-0.2,1.3-0.1l5.2,1c-0.6,3.1-2.1,5.4-4.2,7.1C42.9,129.9,40.3,130.7,37.1,130.7z"/>
	<path class="st0" d="M64.8,104c3.9,0,7,1.3,9.4,3.8s3.6,5.9,3.6,10v1.1c0,0.3-0.1,0.5-0.3,0.7c-0.2,0.2-0.4,0.3-0.7,0.3H59
		c0.4,1.4,1.1,2.6,2.1,3.5c1,0.9,2.3,1.3,3.8,1.3c1.1,0,2.1-0.3,2.9-0.8c0.8-0.6,1.4-1.2,1.9-2c0.3-0.5,0.8-0.6,1.3-0.4l5.8,2
		c-0.9,2.2-2.3,4-4.3,5.3c-2,1.3-4.5,1.9-7.5,1.9c-3.9,0-7.1-1.2-9.5-3.7c-2.4-2.4-3.6-5.6-3.6-9.6c0-4,1.2-7.3,3.6-9.7
		C57.8,105.2,60.9,104,64.8,104z M64.8,110c-1.4,0-2.6,0.4-3.6,1.1c-1,0.7-1.7,1.8-2.1,3.1h11.3c-0.5-1.3-1.2-2.3-2.2-3.1
		C67.3,110.4,66.2,110,64.8,110z"/>
	<path class="st0" d="M97.1,125.4c2.8,0,5,0.6,6.5,1.7c1.5,1.1,2.2,2.8,2.2,5c0,2.2-1,4.1-3.1,5.5s-5.3,2.1-9.7,2.1
		c-3.9,0-6.9-0.7-9.1-2.2c-2.2-1.4-3.3-3.3-3.3-5.4c0-1.4,0.3-2.6,1-3.5c0.7-1,1.4-1.6,2.1-1.9c-0.4-0.1-0.8-0.4-1.2-1
		c-0.5-0.6-0.7-1.3-0.7-2.2c0-1.7,0.7-2.9,2.2-3.8c-1.7-1.7-2.6-3.8-2.6-6.3c0-3,1-5.3,2.9-6.9c1.9-1.6,4.6-2.4,8-2.4
		c2.6,0,4.8,0.5,6.6,1.5c0.6-0.6,1.5-0.9,2.6-0.9h3.5v4c0,0.5-0.1,0.8-0.4,1.1c-0.3,0.3-0.6,0.4-1.1,0.4h-0.7c0.3,1,0.5,2.1,0.5,3.3
		c0,3-1,5.3-3.1,6.9s-4.9,2.4-8.4,2.4h-1.7c-0.6,0-1.2,0.1-1.6,0.3c-0.4,0.2-0.6,0.6-0.6,1c0,0.9,0.9,1.4,2.7,1.4H97.1z M93.1,133.9
		c2.3,0,3.9-0.2,5-0.6c1.1-0.4,1.6-0.9,1.6-1.6c0-1-0.9-1.6-2.8-1.6h-7c-2,0-2.9,0.5-2.9,1.6c0,0.6,0.6,1.1,1.8,1.5
		C89.8,133.7,91.3,133.9,93.1,133.9z M95.5,110.7c-0.8-0.6-1.9-0.9-3.3-0.9s-2.5,0.3-3.3,0.9c-0.8,0.6-1.2,1.5-1.2,2.5
		c0,1.1,0.4,2,1.2,2.6c0.8,0.6,1.9,0.9,3.2,0.9c1.4,0,2.5-0.3,3.3-0.9c0.8-0.6,1.2-1.5,1.2-2.6C96.7,112.2,96.3,111.3,95.5,110.7z"
		/>
	<path class="st0" d="M118,130.2c-2.7,0-4.7-0.7-6.2-2.2c-1.5-1.5-2.2-3.6-2.2-6.2V96h6.9v25.7c0,0.6,0.2,1.2,0.6,1.5
		c0.4,0.4,0.9,0.6,1.5,0.6h1.3c0.5,0,1,0.2,1.3,0.5c0.3,0.3,0.5,0.8,0.5,1.3v4.6H118z"/>
	<path class="st0" d="M129.4,101.8c-1.1,0-2-0.3-2.7-1c-0.7-0.7-1-1.6-1-2.7c0-1.1,0.3-2,1-2.7c0.7-0.7,1.6-1.1,2.7-1.1
		c1.1,0,2,0.4,2.7,1.1c0.7,0.7,1.1,1.6,1.1,2.7c0,1.1-0.4,2-1.1,2.7C131.4,101.5,130.5,101.8,129.4,101.8z M125.9,130.1v-25.6h6.9
		v25.6H125.9z"/>
	<path class="st0" d="M161.7,130.2c-2.7,0-4.7-0.7-6.2-2.2c-1.5-1.5-2.2-3.6-2.2-6.2V96h6.9v25.7c0,0.6,0.2,1.2,0.6,1.5
		c0.4,0.4,0.9,0.6,1.5,0.6h1.3c0.5,0,1,0.2,1.3,0.5c0.3,0.3,0.5,0.8,0.5,1.3v4.6H161.7z"/>
	<path class="st0" d="M191.5,123.6c0.3,0.3,0.5,0.9,0.5,1.7v4.9h-0.7c-3,0-5.1-1-6.4-2.9c-2.1,2.2-5.1,3.3-9.1,3.3
		c-2.5,0-4.6-0.7-6.1-2c-1.5-1.4-2.2-3.2-2.2-5.5c0-2.2,0.7-4.1,2.1-5.6c1.4-1.5,3.6-2.4,6.5-2.8c3.7-0.4,6.2-1,7.4-1.7v-0.1
		c0-0.8-0.4-1.5-1.2-2c-0.8-0.5-1.8-0.8-2.9-0.8c-0.6,0-1.2,0-1.7,0.1c-0.5,0.1-1,0.2-1.5,0.4c-0.5,0.2-0.8,0.3-1,0.4
		s-0.6,0.3-1,0.6c-0.4,0.3-0.7,0.4-0.7,0.4c-0.6,0.3-1.1,0.4-1.7,0.3c-0.6-0.1-1-0.4-1.3-0.8l-2.1-2.9c0.3-0.4,0.8-0.9,1.4-1.3
		c0.6-0.5,1.3-0.9,2.2-1.5c0.9-0.5,1.9-0.9,3.2-1.3c1.2-0.3,2.5-0.5,3.8-0.5c3.8,0,6.6,0.9,8.6,2.6c2,1.7,2.9,4.3,2.9,7.7v7.2
		C190.5,122.5,190.8,123.1,191.5,123.6L191.5,123.6z M176.7,124.8c0.7,0,1.4,0,2-0.1c0.6-0.1,1.2-0.3,1.9-0.5s1.2-0.6,1.6-1
		c0.4-0.4,0.8-1,1.1-1.7c0.3-0.7,0.4-1.5,0.4-2.4v-0.7c-1.3,1.1-3.3,1.7-6,1.7c-1.2,0.1-2.2,0.4-2.7,0.8s-0.9,1-0.9,1.8
		c0,0.7,0.2,1.2,0.7,1.6C175.3,124.6,175.9,124.8,176.7,124.8z"/>
	<path class="st0" d="M228.7,104.5h5.2v34.1h-6.9v-10.4c-1.7,1.5-4,2.3-6.8,2.3c-3.8,0-6.8-1.2-8.8-3.5c-2.1-2.3-3.1-5.6-3.1-9.8
		c0-4,1-7.2,3.1-9.6c2.1-2.4,4.9-3.6,8.4-3.6c3.3,0,6,1.2,8,3.6v-2.2c0-0.3,0.1-0.5,0.3-0.7C228.2,104.6,228.4,104.5,228.7,104.5z
		 M221,124.6c1.8,0,3.3-0.6,4.3-1.9c1.1-1.3,1.6-3,1.6-5.2V117c0-2.1-0.6-3.8-1.7-5.1c-1.1-1.2-2.5-1.9-4.4-1.9
		c-1.8,0-3.2,0.7-4.3,2c-1,1.3-1.5,3.1-1.5,5.2s0.5,3.9,1.6,5.2C217.8,123.9,219.2,124.6,221,124.6z"/>
	<path class="st0" d="M256.6,104.5h6.9v25.6h-5.2c-0.3,0-0.5-0.1-0.7-0.3c-0.2-0.2-0.3-0.4-0.3-0.7v-1.9c-1.8,2.2-4.1,3.3-6.9,3.3
		c-3.3,0-5.9-0.9-7.6-2.7c-1.7-1.8-2.5-4.4-2.5-7.9v-15.4h6.9v14.3c0,1.9,0.3,3.4,1,4.3c0.6,0.9,1.8,1.4,3.4,1.4
		c1.6,0,2.8-0.5,3.7-1.5c0.9-1,1.3-2.4,1.3-4.2V104.5z"/>
	<path class="st0" d="M292.2,123.6c0.3,0.3,0.5,0.9,0.5,1.7v4.9H292c-3,0-5.1-1-6.4-2.9c-2.1,2.2-5.1,3.3-9.1,3.3
		c-2.5,0-4.6-0.7-6.1-2s-2.2-3.2-2.2-5.5c0-2.2,0.7-4.1,2.1-5.6c1.4-1.5,3.6-2.4,6.5-2.8c3.7-0.4,6.2-1,7.4-1.7v-0.1
		c0-0.8-0.4-1.5-1.2-2c-0.8-0.5-1.8-0.8-2.9-0.8c-0.6,0-1.2,0-1.7,0.1c-0.5,0.1-1,0.2-1.5,0.4c-0.5,0.2-0.8,0.3-1,0.4
		c-0.2,0.1-0.6,0.3-1,0.6c-0.4,0.3-0.7,0.4-0.7,0.4c-0.6,0.3-1.1,0.4-1.7,0.3c-0.6-0.1-1-0.4-1.3-0.8l-2.1-2.9
		c0.3-0.4,0.8-0.9,1.4-1.3c0.6-0.5,1.3-0.9,2.2-1.5c0.9-0.5,1.9-0.9,3.2-1.3s2.5-0.5,3.8-0.5c3.8,0,6.6,0.9,8.6,2.6
		c2,1.7,2.9,4.3,2.9,7.7v7.2C291.2,122.5,291.5,123.1,292.2,123.6L292.2,123.6z M277.4,124.8c0.7,0,1.4,0,2-0.1s1.2-0.3,1.9-0.5
		c0.6-0.3,1.2-0.6,1.6-1c0.4-0.4,0.8-1,1.1-1.7c0.3-0.7,0.4-1.5,0.4-2.4v-0.7c-1.3,1.1-3.3,1.7-6,1.7c-1.2,0.1-2.2,0.4-2.7,0.8
		c-0.6,0.4-0.9,1-0.9,1.8c0,0.7,0.2,1.2,0.7,1.6C275.9,124.6,276.6,124.8,277.4,124.8z"/>
	<path class="st0" d="M305.8,130.2c-2.7,0-4.7-0.7-6.2-2.2c-1.5-1.5-2.2-3.6-2.2-6.2V96h6.9v25.7c0,0.6,0.2,1.2,0.6,1.5
		c0.4,0.4,0.9,0.6,1.5,0.6h1.3c0.5,0,1,0.2,1.3,0.5c0.3,0.3,0.5,0.8,0.5,1.3v4.6H305.8z"/>
	<path class="st0" d="M317.1,101.8c-1.1,0-2-0.3-2.7-1c-0.7-0.7-1-1.6-1-2.7c0-1.1,0.3-2,1-2.7c0.7-0.7,1.6-1.1,2.7-1.1
		c1.1,0,2,0.4,2.7,1.1c0.7,0.7,1.1,1.6,1.1,2.7c0,1.1-0.4,2-1.1,2.7C319.2,101.5,318.2,101.8,317.1,101.8z M313.7,130.1v-25.6h6.9
		v25.6H313.7z"/>
	<path class="st0" d="M342.9,110.6h-7.4v10.4c0,0.8,0.3,1.5,0.8,2.1c0.5,0.5,1.2,0.8,2,0.8h2.9c0.5,0,1,0.2,1.3,0.5
		c0.3,0.3,0.5,0.8,0.5,1.3v4.6h-5.3c-2.8,0-5.1-0.8-6.7-2.5c-1.6-1.6-2.4-3.9-2.4-6.8v-10.4h-2.2c-0.5,0-1-0.2-1.3-0.5
		s-0.5-0.8-0.5-1.3v-4.2h4V96h6.9v8.5h7.4V110.6z"/>
	<path class="st0" d="M370.3,123.6c0.3,0.3,0.5,0.9,0.5,1.7v4.9h-0.7c-3,0-5.1-1-6.4-2.9c-2.1,2.2-5.1,3.3-9.1,3.3
		c-2.5,0-4.6-0.7-6.1-2s-2.2-3.2-2.2-5.5c0-2.2,0.7-4.1,2.1-5.6c1.4-1.5,3.6-2.4,6.5-2.8c3.7-0.4,6.2-1,7.4-1.7v-0.1
		c0-0.8-0.4-1.5-1.2-2c-0.8-0.5-1.8-0.8-2.9-0.8c-0.6,0-1.2,0-1.7,0.1c-0.5,0.1-1,0.2-1.5,0.4c-0.5,0.2-0.8,0.3-1,0.4
		c-0.2,0.1-0.6,0.3-1,0.6c-0.4,0.3-0.7,0.4-0.7,0.4c-0.6,0.3-1.1,0.4-1.7,0.3c-0.6-0.1-1-0.4-1.3-0.8l-2.1-2.9
		c0.3-0.4,0.8-0.9,1.4-1.3c0.6-0.5,1.3-0.9,2.2-1.5c0.9-0.5,1.9-0.9,3.2-1.3s2.5-0.5,3.8-0.5c3.8,0,6.6,0.9,8.6,2.6
		c2,1.7,2.9,4.3,2.9,7.7v7.2C369.3,122.5,369.6,123.1,370.3,123.6L370.3,123.6z M355.5,124.8c0.7,0,1.4,0,2-0.1s1.2-0.3,1.9-0.5
		c0.6-0.3,1.2-0.6,1.6-1c0.4-0.4,0.8-1,1.1-1.7c0.3-0.7,0.4-1.5,0.4-2.4v-0.7c-1.3,1.1-3.3,1.7-6,1.7c-1.2,0.1-2.2,0.4-2.7,0.8
		c-0.6,0.4-0.9,1-0.9,1.8c0,0.7,0.2,1.2,0.7,1.6C354,124.6,354.7,124.8,355.5,124.8z"/>
	<path class="st0" d="M361.2,100.6h-1.5c-1.3,0-2.5-0.2-3.5-0.6s-1.9-1.1-2.7-1.9l-2.9-2.8c-0.2-0.2-0.2-0.4-0.2-0.6
		c0.1-0.2,0.3-0.3,0.5-0.3h3.1c0.9,0,1.7,0.2,2.3,0.5c0.7,0.3,1.2,0.7,1.5,1.2L361.2,100.6z"/>
</g>
</svg>
