<?xml version="1.0" encoding="utf-8"?>
<!-- Generator: Adobe Illustrator 24.3.0, SVG Export Plug-In . SVG Version: 6.00 Build 0)  -->
<svg version="1.1" id="Laag_1" xmlns="http://www.w3.org/2000/svg" xmlns:xlink="http://www.w3.org/1999/xlink" x="0px" y="0px"
	 width="78px" height="51.8px" viewBox="0 0 78 51.8" style="enable-background:new 0 0 78 51.8;" xml:space="preserve">
<style type="text/css">
	.st0{fill:#EBEEE2;}
	.st1{font-family:'Moderat-Regular';}
	.st2{font-size:7.7655px;}
	.st3{fill:#FFFFFF;}
	.st4{fill:#FAE927;}
</style>
<g>
	<g>
		<g>
			<g>
				<g>
					<g>
						<polygon class="st0" points="67,41.9 70.8,39.9 70.8,27.7 67,25.7 63.3,27.7 67,29.7 						"/>
					</g>
					<g>
						<polygon class="st0" points="59.6,17.6 63.3,15.5 63.3,39.9 59.6,37.8 						"/>
					</g>
					<g>
						<polygon class="st0" points="63.3,11.5 59.6,13.5 48.3,7.4 52.1,5.4 						"/>
					</g>
					<g>
						<polygon class="st0" points="55.8,11.5 55.8,31.7 52.1,33.8 52.1,13.5 						"/>
					</g>
					<g>
						<g>
							<path class="st0" d="M63.3,15.5l3.7-2c0,0,6.1,2.2,3.7,10.1l-3.7,2C69.4,17.7,63.3,15.5,63.3,15.5z"/>
						</g>
					</g>
				</g>
				<g>
					<path class="st0" d="M50.9,0v0.6H50v2.7h-0.6V0.6h-0.9V0H50.9z"/>
					<path class="st0" d="M53.6,0h0.6v3.3h-0.6V1.9h-1.3v1.4h-0.6V0h0.6v1.3h1.3V0z"/>
					<path class="st0" d="M56,2.7h1.6v0.6h-2.2V0h2.2v0.6H56v0.7h1.4v0.6H56V2.7z"/>
					<path class="st0" d="M60.4,0l1.1,3.3h-0.7l-0.2-0.7h-1.2l-0.2,0.7h-0.7L59.5,0H60.4z M59.5,2h0.9L60,0.9h-0.1L59.5,2z"/>
					<path class="st0" d="M64.2,0v0.6h-0.9v2.7h-0.6V0.6h-0.9V0H64.2z"/>
					<path class="st0" d="M65.6,2.7h1.6v0.6H65V0h2.2v0.6h-1.6v0.7H67v0.6h-1.4V2.7z"/>
					<path class="st0" d="M70.7,3.3H70l-0.7-1.2h-0.4v1.2h-0.6V0h1.2c0.3,0,0.5,0.1,0.7,0.3c0.2,0.2,0.3,0.4,0.3,0.7
						c0,0.2-0.1,0.4-0.2,0.6c-0.1,0.2-0.3,0.3-0.4,0.4L70.7,3.3z M68.9,0.6v0.9h0.5c0.1,0,0.2,0,0.3-0.1c0.1-0.1,0.1-0.2,0.1-0.3
						c0-0.1,0-0.2-0.1-0.3c-0.1-0.1-0.2-0.1-0.3-0.1H68.9z"/>
				</g>
				<g>
					<path class="st0" d="M74.5,7.8V7.1l1.2-0.7V6h-1.2V5.4h3.3v1.2c0,0.3-0.1,0.5-0.3,0.7c-0.2,0.2-0.4,0.3-0.7,0.3
						c-0.2,0-0.4-0.1-0.6-0.2C76,7.3,75.9,7.2,75.8,7L74.5,7.8z M77.2,6h-0.9v0.5c0,0.1,0,0.2,0.1,0.3C76.5,7,76.6,7,76.8,7
						c0.1,0,0.2,0,0.3-0.1c0.1-0.1,0.1-0.2,0.1-0.3V6z"/>
					<path class="st0" d="M75,11.3c-0.3-0.3-0.5-0.7-0.5-1.1c0-0.4,0.2-0.8,0.5-1.1c0.3-0.3,0.7-0.5,1.2-0.5c0.5,0,0.9,0.2,1.2,0.5
						c0.3,0.3,0.5,0.7,0.5,1.1c0,0.4-0.2,0.8-0.5,1.1c-0.3,0.3-0.7,0.5-1.2,0.5C75.7,11.8,75.3,11.6,75,11.3z M75.4,9.5
						c-0.2,0.2-0.3,0.4-0.3,0.7s0.1,0.5,0.3,0.7c0.2,0.2,0.5,0.3,0.8,0.3c0.3,0,0.6-0.1,0.8-0.3c0.2-0.2,0.3-0.4,0.3-0.7
						c0-0.3-0.1-0.5-0.3-0.7c-0.2-0.2-0.5-0.3-0.8-0.3C75.8,9.2,75.6,9.3,75.4,9.5z"/>
					<path class="st0" d="M77.8,14.8h-0.6v-0.9h-2.7v-0.6h2.7v-0.9h0.6V14.8z"/>
					<path class="st0" d="M77.8,17.9h-0.6V17h-2.7v-0.6h2.7v-0.9h0.6V17.9z"/>
					<path class="st0" d="M75.1,19.3V21h-0.6v-2.2h3.3v2.2h-0.6v-1.6h-0.7v1.4h-0.6v-1.4H75.1z"/>
					<path class="st0" d="M74.5,24.4v-0.7l1.2-0.7v-0.4h-1.2V22h3.3v1.2c0,0.3-0.1,0.5-0.3,0.7c-0.2,0.2-0.4,0.3-0.7,0.3
						c-0.2,0-0.4-0.1-0.6-0.2c-0.2-0.1-0.3-0.3-0.4-0.4L74.5,24.4z M77.2,22.6h-0.9v0.5c0,0.1,0,0.2,0.1,0.3
						c0.1,0.1,0.2,0.1,0.3,0.1c0.1,0,0.2,0,0.3-0.1c0.1-0.1,0.1-0.2,0.1-0.3V22.6z"/>
					<path class="st0" d="M77.8,26.4c0,0.5-0.1,0.9-0.4,1.2c-0.3,0.3-0.7,0.5-1.2,0.5c-0.5,0-0.9-0.2-1.2-0.5
						c-0.3-0.3-0.4-0.7-0.4-1.2v-1.1h3.3V26.4z M75.1,26.4c0,0.3,0.1,0.5,0.3,0.7c0.2,0.2,0.4,0.3,0.8,0.3c0.3,0,0.6-0.1,0.7-0.3
						c0.2-0.2,0.3-0.4,0.3-0.7V26h-2.1V26.4z"/>
					<path class="st0" d="M77.8,30.6l-3.3,1.1V31l0.7-0.2v-1.2l-0.7-0.2v-0.7l3.3,1.1V30.6z M75.8,29.7v0.9l1.2-0.4v-0.1L75.8,29.7z
						"/>
					<path class="st0" d="M77.8,35.8h-3.3v-0.6h2v0l-1.8-0.6v-0.8l1.8-0.6v0h-2v-0.6h3.3v0.8l-2.4,0.8v0.1l2.4,0.8V35.8z"/>
				</g>
			</g>
		</g>
		<text transform="matrix(1 0 0 1 47.8022 49.4616)" class="st0 st1 st2">MAKERS</text>
	</g>
	<g>
		<path class="st3" d="M2.6,40.3c-0.1-0.1-0.2-0.1-0.3-0.1H1.3V41h0.9c0.2,0,0.3,0,0.4-0.1c0.1-0.1,0.1-0.2,0.1-0.3
			C2.7,40.5,2.7,40.4,2.6,40.3 M2.5,38.5c-0.1-0.1-0.2-0.1-0.3-0.1H1.3v0.7H2c0.4,0,0.6-0.1,0.6-0.3C2.6,38.7,2.5,38.6,2.5,38.5
			 M3.7,41.6c-0.2,0.2-0.5,0.4-0.9,0.4h0c-0.2,0-0.5,0.1-0.9,0.1H1.4l-1.3,0c0,0-0.1,0-0.1,0c0,0,0-0.1,0-0.1v-2.2c0,0,0-0.1,0-0.1
			c0,0,0.1,0,0.1,0h3.2c0.5,0.2,0.8,0.5,0.8,1C4.1,41,3.9,41.3,3.7,41.6 M3.6,39.4C3.6,39.4,3.6,39.4,3.6,39.4
			C3.5,39.4,3.5,39.5,3.6,39.4l-3.5,0c0,0-0.1,0-0.1,0c0,0,0-0.1,0-0.1v-1.8c0,0,0-0.1,0-0.1c0,0,0.1,0,0.1,0l0.8,0h0.4
			c0.5,0,0.9,0,1.1,0c0.5,0,0.8,0.1,1,0.3c0.3,0.2,0.4,0.5,0.5,0.9C3.9,38.9,3.8,39.2,3.6,39.4"/>
		<path class="st3" d="M4.9,40.4c-0.1,0-0.1,0-0.1-0.1c0,0,0-0.1,0-0.1l0.1-0.1l0,0C5.1,40,5.2,40,5.3,39.9c0.1-0.1,0.3-0.1,0.5-0.1
			c0,0,0.1,0,0.1,0c0.1,0,0.1,0,0.2,0c0.1,0,0.1,0,0.2,0c0.1,0,0.1,0,0.2,0v0v0c0-0.1,0-0.2-0.1-0.2c0-0.1-0.1-0.1-0.2-0.1
			c-0.1,0-0.2,0-0.3,0.1h0c-0.1,0-0.1,0.1-0.2,0.2c0,0-0.1,0.1-0.1,0.1H4.8c-0.1,0-0.1,0-0.1-0.1c0-0.4,0.2-0.7,0.5-0.9
			c0.3-0.2,0.6-0.2,1-0.2h0c1,0,1.5,0.4,1.5,1.2v0.8c0,0,0,0.1,0,0.1c0,0-0.1,0-0.1,0H6.7h0H4.9z M6.7,42C6.7,42,6.7,42,6.7,42
			c-0.1-0.1-0.1-0.1-0.1-0.1v-0.1C6.5,41.9,6.3,42,6.2,42c-0.1,0-0.3,0.1-0.4,0.1c-0.3,0-0.6-0.1-0.8-0.3h0
			c-0.1-0.1-0.2-0.2-0.3-0.4c-0.1-0.1-0.1-0.3-0.1-0.4c0-0.1,0-0.1,0-0.1c0,0,0-0.1,0-0.1c0,0,0-0.1,0-0.1c0,0,0.1,0,0.1,0h0.9
			c0.1,0,0.1,0,0.1,0.1c0,0,0,0.1,0,0.1c0,0,0,0.1,0,0.1c0,0.2,0.1,0.2,0.3,0.2c0.2,0,0.3-0.1,0.4-0.2c0-0.1,0.1-0.1,0.1-0.2
			c0-0.1,0.1-0.1,0.1-0.1h1c0,0,0.1,0,0.1,0c0,0,0,0.1,0,0.1v0.8c0,0.1,0,0.2,0.1,0.3c0,0,0,0.1,0,0.1c0,0-0.1,0.1-0.1,0.1H6.7z"/>
		<path class="st3" d="M11.1,39.9C11,39.9,11,39.9,11.1,39.9c-0.1,0-0.2,0-0.2,0c-0.2-0.3-0.3-0.4-0.5-0.4h0c-0.2,0-0.3,0.1-0.4,0.3
			c-0.1,0.1-0.1,0.2-0.1,0.4c0,0,0,0.1,0,0.1c0,0-0.1,0-0.1,0h-1c0,0-0.1,0-0.1,0c0,0,0-0.1,0-0.1c0-0.4,0.2-0.8,0.4-1.1
			c0.3-0.4,0.8-0.6,1.3-0.6c0.3,0,0.6,0.1,0.9,0.2c0.1,0.1,0.2,0.1,0.3,0.2c0.1,0.1,0.2,0.2,0.3,0.4c0.1,0.1,0,0.1,0,0.2L11.1,39.9z
			 M11.8,41.2c-0.2,0.3-0.4,0.5-0.7,0.7c-0.3,0.2-0.6,0.2-0.9,0.2h0c-0.5,0-0.9-0.2-1.2-0.5c-0.3-0.3-0.4-0.7-0.4-1.1
			c0,0,0-0.1,0-0.1c0,0,0.1,0,0.1,0h1c0.1,0,0.1,0,0.1,0.1c0,0.1,0,0.1,0,0.2c0,0.1,0,0.1,0.1,0.2c0.1,0.2,0.3,0.3,0.5,0.3
			c0.1,0,0.2,0,0.3-0.1c0,0,0.1-0.1,0.1-0.1c0,0,0.1-0.1,0.1-0.2l0,0c0,0,0,0,0.1,0c0,0,0.1,0,0.1,0l0.7,0.4L11.8,41.2z"/>
		<path class="st3" d="M14.8,42.1C14.7,42.1,14.7,42,14.8,42.1c-0.1,0-0.1,0-0.1-0.1l-0.8-1.3L13.6,41v1c0,0,0,0.1,0,0.1
			c0,0-0.1,0-0.1,0l-0.9,0c-0.1,0-0.1,0-0.1-0.1V40c0,0,0-0.1,0-0.1c0,0,0.1,0,0.1,0h2.2c0,0,0,0,0.1,0c0,0,0,0,0,0l1.1,1.9
			c0,0,0,0.1,0,0.1c0,0-0.1,0.1-0.1,0.1H14.8z M12.6,39.7C12.5,39.7,12.5,39.7,12.6,39.7c-0.1-0.1-0.1-0.1-0.1-0.1v-2.1
			c0-0.1,0-0.1,0.1-0.1h0.9c0,0,0.1,0,0.1,0c0,0,0,0.1,0,0.1v2l0.8-0.9c0,0,0,0,0,0c0,0,0,0,0,0h1.2c0.1,0,0.1,0,0.1,0.1
			c0,0.1,0,0.1,0,0.1l-0.9,1c0,0,0,0,0,0c0,0,0,0,0,0h-1.1c0,0-0.1,0-0.1,0c0,0,0,0-0.1,0H12.6z"/>
		<path class="st3" d="M19.3,40.3c-0.1-0.1-0.2-0.1-0.3-0.1h-0.9V41h0.9c0.2,0,0.3,0,0.4-0.1c0.1-0.1,0.1-0.2,0.1-0.3
			C19.5,40.5,19.4,40.4,19.3,40.3 M19.2,38.5c-0.1-0.1-0.2-0.1-0.3-0.1h-0.9v0.7h0.7c0.4,0,0.6-0.1,0.6-0.3
			C19.3,38.7,19.3,38.6,19.2,38.5 M20.4,41.6c-0.2,0.2-0.5,0.4-0.9,0.4h0c-0.2,0-0.5,0.1-0.9,0.1h-0.5l-1.3,0c0,0-0.1,0-0.1,0
			c0,0,0-0.1,0-0.1v-2.2c0,0,0-0.1,0-0.1c0,0,0.1,0,0.1,0h3.2c0.5,0.2,0.8,0.5,0.8,1C20.8,41,20.7,41.3,20.4,41.6 M20.4,39.4
			C20.3,39.4,20.3,39.4,20.4,39.4C20.3,39.4,20.3,39.5,20.4,39.4l-3.5,0c0,0-0.1,0-0.1,0c0,0,0-0.1,0-0.1v-1.8c0,0,0-0.1,0-0.1
			c0,0,0.1,0,0.1,0l0.8,0h0.4c0.5,0,0.9,0,1.1,0c0.5,0,0.8,0.1,1,0.3c0.3,0.2,0.4,0.5,0.5,0.9C20.6,38.9,20.5,39.2,20.4,39.4"/>
		<path class="st3" d="M24,40.1C24,40.1,24,40.1,24,40.1c-0.1,0-0.1-0.1-0.1-0.1c0-0.1-0.1-0.2-0.1-0.3c-0.1-0.2-0.3-0.2-0.5-0.2h0
			c-0.2,0-0.4,0.1-0.5,0.2c-0.1,0.1-0.1,0.2-0.2,0.3c0,0,0,0,0,0.1c0,0,0,0-0.1,0h-1c0,0-0.1,0-0.1,0c0,0,0-0.1,0-0.1
			c0-0.5,0.2-0.8,0.5-1.1c0.3-0.3,0.8-0.4,1.4-0.4c0.5,0,1,0.2,1.3,0.5c0.2,0.3,0.4,0.6,0.5,1c0,0,0,0.1,0,0.1c0,0-0.1,0-0.1,0H24z
			 M25.1,40.4c0,0.3-0.1,0.5-0.1,0.7c-0.1,0.2-0.2,0.4-0.4,0.5c-0.3,0.3-0.8,0.5-1.3,0.5h0c-0.6,0-1-0.2-1.4-0.5
			c-0.3-0.3-0.5-0.7-0.5-1.3c0,0,0-0.1,0-0.1c0,0,0.1,0,0.1,0h1c0,0,0.1,0,0.1,0c0,0,0,0,0,0.1c0,0.2,0.1,0.4,0.2,0.5h0
			c0.1,0.2,0.3,0.3,0.5,0.3c0.2,0,0.4-0.1,0.5-0.2c0.1-0.1,0.1-0.3,0.2-0.5c0,0,0-0.1,0-0.1c0,0,0.1,0,0.1,0h1L25.1,40.4z"/>
		<path class="st3" d="M28,42C27.9,42,27.9,42,28,42c-0.1-0.1-0.1-0.1-0.1-0.1l0-1.5c0,0,0-0.1,0-0.1c0,0,0,0,0.1,0h0.9
			c0,0,0.1,0,0.1,0c0,0,0,0.1,0,0.1v1.5c0,0,0,0.1,0,0.1c0,0-0.1,0-0.1,0H28z M26,42C26,42,26,42,26,42c-0.1-0.1-0.1-0.1-0.1-0.1v-1
			c0,0,0-0.1,0-0.1c0,0,0.1,0,0.1,0h1c0,0,0.1,0,0.1,0c0,0,0,0.1,0,0.1v1c0,0,0,0.1,0,0.1c0,0-0.1,0-0.1,0H26z M28,40.1
			C27.9,40.1,27.9,40.1,28,40.1c-0.1-0.1-0.1-0.1-0.1-0.1v-0.1c0-0.1,0-0.2-0.1-0.3c-0.1-0.1-0.1-0.1-0.2-0.1h0c-0.1,0-0.1,0-0.2,0
			c0,0-0.1,0.1-0.1,0.1c0,0.1-0.1,0.2-0.1,0.3c0,0.1,0,0.3,0,0.5v0c0,0,0,0.1-0.1,0.1c0,0-0.1,0-0.1,0H26c0,0-0.1,0-0.1,0
			c0,0,0-0.1,0-0.1v-1.8c0,0,0-0.1,0-0.1c0,0,0.1,0,0.1,0h1c0,0,0.1,0,0.1,0c0,0,0,0.1,0,0.1v0c0.2-0.2,0.5-0.2,0.8-0.2h0
			c0.7,0,1.1,0.4,1.1,1.1v0.4c0,0,0,0.1,0,0.1c0,0-0.1,0-0.1,0H28z"/>
		<path class="st3" d="M33.3,41.2c-0.2,0.3-0.5,0.6-0.7,0.7c-0.3,0.1-0.6,0.2-1,0.2c0,0-0.1,0-0.1,0c0,0,0-0.1,0-0.1v-0.7
			c0,0,0-0.1,0.1-0.1c0,0,0.1,0,0.1,0h0c0.2,0,0.4-0.1,0.6-0.3c0,0,0.1-0.1,0.1-0.2c0,0,0-0.1,0.1-0.1H32c0,0-0.1,0-0.1,0
			c0,0,0-0.1,0-0.1v-0.6c0,0,0-0.1,0-0.1c0,0,0.1,0,0.1,0h0.1c-0.1-0.3-0.2-0.4-0.5-0.4c0,0-0.1,0-0.1,0c0,0,0-0.1,0-0.1l0-0.7
			c0,0,0-0.1,0-0.1c0,0,0.1,0,0.1,0h0c0.6,0,1,0.2,1.3,0.6c0.3,0.4,0.4,0.8,0.4,1.4c0,0,0,0.1,0,0.1c0,0-0.1,0-0.1,0h-0.7l0,0
			l0.7,0.4L33.3,41.2z M31.1,40.6c0,0.2,0.1,0.3,0.2,0.4l0,0c0,0,0,0,0,0.1c0,0,0,0,0,0.1V42c0,0,0,0.1,0,0.1c0,0-0.1,0-0.1,0
			c-0.2,0-0.3-0.1-0.5-0.2c-0.1-0.1-0.3-0.2-0.4-0.3c-0.3-0.3-0.5-0.8-0.5-1.3v0c0-0.5,0.2-1,0.5-1.3c0.2-0.2,0.5-0.4,0.8-0.5
			c0,0,0.1,0,0.1,0c0,0,0,0.1,0,0.1v0.8c0,0,0,0,0,0c0,0,0,0,0,0l0,0c0,0-0.1,0.1-0.1,0.1c0,0-0.1,0.1-0.1,0.1h0.5c0,0,0.1,0,0.1,0
			c0,0,0,0.1,0,0.1v0.6c0,0,0,0.1,0,0.1c0,0-0.1,0-0.1,0H31.1z"/>
		<path class="st4" d="M15.8,17.8h17.6V1.5H16.6C7.4,1.5,0,8.9,0,18.1v17.2h15.8V17.8z"/>
		<path class="st3" d="M26.1,35.3c4,0,7.3-3.3,7.3-7.3v-7.6H18.7v14.9H26.1z"/>
		<path class="st4" d="M32.5,46.1C32.4,46.1,32.4,46.1,32.5,46.1c-0.1,0-0.1,0-0.2,0c-0.1-0.1-0.3-0.2-0.4-0.2
			c-0.1,0-0.3-0.1-0.4-0.1c0,0-0.1,0-0.1,0c0,0-0.1,0-0.1,0c-0.1,0-0.1,0.1-0.1,0.1c0,0,0.1,0.1,0.4,0.1c0.1,0,0.1,0,0.2,0.1
			c0.1,0,0.1,0,0.2,0.1c0,0,0.1,0,0.1,0.1c0,0,0,0.1,0,0.1c0,0,0,0.1,0,0.1c0,0-0.1,0-0.1,0h-1.8c0,0,0,0-0.1,0c0,0,0,0,0-0.1
			c0-0.1,0-0.1,0-0.2c0-0.4,0.2-0.8,0.5-1c0.3-0.2,0.6-0.3,1-0.3c0.2,0,0.3,0,0.4,0c0.1,0,0.3,0,0.4,0.1c0.1,0,0.2,0.1,0.3,0.1
			c0.1,0.1,0.3,0.1,0.4,0.3c0,0,0.1,0.1,0.1,0.1c0,0,0,0.1,0,0.1L32.5,46.1z M32.6,48.3c-0.3,0.2-0.7,0.3-1.1,0.3
			c-0.2,0-0.3,0-0.5,0c-0.2,0-0.3-0.1-0.4-0.1c-0.1,0-0.2-0.1-0.3-0.2c-0.1-0.1-0.3-0.2-0.4-0.3c0,0-0.1-0.1-0.1-0.1
			c0,0,0-0.1,0-0.1l0.6-0.5c0,0,0.1,0,0.1,0c0,0,0.1,0,0.1,0c0.3,0.3,0.6,0.4,0.9,0.4c0.1,0,0.2,0,0.3-0.1c0.1,0,0.2-0.1,0.2-0.1
			c0-0.1-0.1-0.1-0.3-0.2l-0.7-0.2c-0.2,0-0.4-0.1-0.5-0.2c-0.1,0-0.1-0.1,0-0.1c0-0.1,0.1-0.1,0.1-0.1h2.4c0,0,0,0,0,0c0,0,0,0,0,0
			c0.1,0.1,0.1,0.2,0.2,0.3c0,0.1,0.1,0.2,0.1,0.4C33.1,47.7,32.9,48.1,32.6,48.3 M27.8,48.5C27.8,48.5,27.8,48.5,27.8,48.5
			c-0.1-0.1-0.1-0.1-0.1-0.1v-1.4c0,0,0-0.1,0-0.1c0,0,0,0,0.1,0h0.9c0,0,0.1,0,0.1,0c0,0,0,0.1,0,0.1v1.4c0,0,0,0.1,0,0.1
			c0,0-0.1,0-0.1,0H27.8z M29.7,46c-0.4,0.1-0.6,0.1-0.6,0.1c-0.1,0.1-0.2,0.2-0.2,0.4c0,0,0,0.1,0,0.1c0,0-0.1,0-0.1,0h-0.9
			c0,0-0.1,0-0.1,0c0,0,0-0.1,0-0.1V45c0,0,0-0.1,0-0.1c0,0,0.1,0,0.1,0h0.9c0,0,0.1,0,0.1,0c0,0,0,0.1,0,0.1v0.1
			c0.1,0,0.1-0.1,0.1-0.1c0,0,0.1,0,0.1-0.1c0,0,0,0,0.1,0c0.1,0,0.1,0,0.2,0c0,0,0.1,0,0.1,0c0,0,0.1,0,0.1,0c0,0,0.1,0,0.1,0
			c0,0,0,0.1,0,0.1v0.9L29.7,46z M26.1,46.5C26.1,46.5,26.1,46.4,26.1,46.5c-0.1,0-0.1-0.1-0.1-0.1c0-0.1-0.1-0.3-0.1-0.3
			c-0.1-0.2-0.3-0.2-0.5-0.2h0c-0.2,0-0.4,0.1-0.5,0.2c-0.1,0.1-0.1,0.2-0.2,0.3c0,0,0,0,0,0.1c0,0,0,0-0.1,0h-1c0,0-0.1,0-0.1,0
			c0,0,0-0.1,0-0.1c0.1-0.5,0.2-0.8,0.5-1.1c0.3-0.3,0.8-0.5,1.4-0.5c0.6,0,1,0.2,1.3,0.5c0.3,0.3,0.4,0.6,0.5,1c0,0,0,0.1,0,0.1
			c0,0-0.1,0-0.1,0H26.1z M27.3,46.8c0,0.3-0.1,0.5-0.1,0.7c-0.1,0.2-0.2,0.4-0.4,0.5c-0.3,0.3-0.8,0.5-1.3,0.5h0
			c-0.6,0-1.1-0.2-1.4-0.5c-0.3-0.3-0.5-0.7-0.5-1.3c0,0,0-0.1,0-0.1c0,0,0.1,0,0.1,0h1c0,0,0.1,0,0.1,0c0,0,0,0,0,0.1
			c0,0.2,0.1,0.4,0.2,0.5h0c0.1,0.2,0.3,0.3,0.5,0.3c0.2,0,0.4-0.1,0.5-0.2C26,47.1,26,47,26,46.8c0,0,0-0.1,0-0.1c0,0,0.1,0,0.1,0
			h1L27.3,46.8z M21.7,45.9C21.7,45.9,21.7,45.9,21.7,45.9c-0.1-0.1-0.1-0.1-0.1-0.1c-0.1-0.6-0.5-0.9-1.2-0.9h-0.4v0.9
			c0,0,0,0.1,0,0.1c0,0-0.1,0-0.1,0h-1.1c0,0-0.1,0-0.1,0c0,0,0-0.1,0-0.1v-2c0,0,0-0.1,0-0.1c0,0,0.1,0,0.1,0l0.6,0h0.3
			c0.3,0,0.5,0,0.8,0c0.2,0,0.4,0,0.6,0.1c0.6,0.1,1.1,0.3,1.4,0.7c0.3,0.3,0.4,0.8,0.5,1.3c0,0,0,0.1,0,0.1c0,0-0.1,0-0.1,0H21.7z
			 M23,46.2c0,0.6-0.2,1.1-0.5,1.5h0c-0.4,0.5-0.9,0.7-1.7,0.7h-2c0,0-0.1,0-0.1,0c0,0,0-0.1,0-0.1v-2.1c0,0,0-0.1,0-0.1
			c0,0,0.1,0,0.1,0H20c0,0,0.1,0,0.1,0c0,0,0,0.1,0,0.1v1.1h0h0c0.5,0,0.9-0.1,1.1-0.2h0c0.1-0.1,0.2-0.2,0.3-0.3
			c0.1-0.2,0.1-0.3,0.1-0.5c0,0,0-0.1,0-0.1c0,0,0.1,0,0.1,0h1.1L23,46.2z M14.9,48.5C14.8,48.5,14.8,48.4,14.9,48.5
			c-0.1-0.1-0.1-0.1-0.1-0.1v-0.1c-0.1,0.1-0.3,0.2-0.4,0.2c-0.1,0-0.3,0.1-0.4,0.1c-0.3,0-0.6-0.1-0.8-0.3h0
			c-0.1-0.1-0.2-0.2-0.3-0.4c-0.1-0.1-0.1-0.3-0.1-0.5c0-0.1,0-0.1,0-0.2c0,0,0-0.1,0-0.1c0,0,0-0.1,0-0.1c0,0,0.1,0,0.1,0h1
			c0.1,0,0.1,0,0.1,0.1c0,0,0,0.1,0,0.1c0,0,0,0.1,0,0.1c0,0.2,0.1,0.2,0.3,0.3c0.2,0,0.3-0.1,0.4-0.2c0-0.1,0.1-0.1,0.1-0.2
			c0-0.1,0.1-0.1,0.1-0.1h1c0,0,0.1,0,0.1,0c0,0,0,0.1,0,0.1V48c0,0.1,0,0.2,0.1,0.3c0,0,0,0.1,0,0.1c0,0-0.1,0.1-0.1,0.1H14.9z
			 M13.1,46.8c-0.1,0-0.1,0-0.1-0.1c0-0.1,0-0.1,0-0.1l0.1-0.1l0,0c0.1-0.1,0.2-0.2,0.4-0.2c0.1-0.1,0.3-0.1,0.5-0.1
			c0,0,0.1,0,0.2,0c0.1,0,0.1,0,0.2,0c0.1,0,0.1,0,0.2,0c0.1,0,0.1,0,0.2,0v0v0c0-0.1,0-0.2-0.1-0.2c0-0.1-0.1-0.1-0.2-0.1
			c-0.1,0-0.2,0-0.3,0.1h0c-0.1,0-0.1,0.1-0.2,0.2c0,0.1-0.1,0.1-0.1,0.1H13c-0.1,0-0.1,0-0.1-0.1c0-0.4,0.2-0.7,0.5-0.9
			c0.3-0.2,0.6-0.2,1-0.2h0c1,0,1.5,0.4,1.5,1.2v0.8c0,0,0,0.1,0,0.1c0,0-0.1,0-0.1,0h-0.9h0H13.1z M11.2,48.5
			C11.2,48.5,11.1,48.5,11.2,48.5c-0.1-0.1-0.1-0.1-0.1-0.2v0c-0.2,0.2-0.5,0.3-0.8,0.3c-0.5,0-0.9-0.2-1.2-0.7
			c-0.2-0.3-0.3-0.6-0.3-1c0,0,0-0.1,0-0.1c0,0,0.1,0,0.1,0h1c0,0,0.1,0,0.1,0s0,0.1,0,0.1c0,0.1,0,0.2,0,0.2c0,0.1,0,0.1,0.1,0.2
			c0.1,0.2,0.2,0.3,0.4,0.3c0.2,0,0.4-0.1,0.5-0.3c0.1-0.1,0.1-0.3,0.1-0.4c0,0,0-0.1,0-0.1c0,0,0.1,0,0.1,0h0.9c0,0,0.1,0,0.1,0
			c0,0,0,0.1,0,0.1v1.5c0,0,0,0.1,0,0.1c0,0-0.1,0-0.1,0H11.2z M11.2,46.6C11.2,46.6,11.1,46.6,11.2,46.6c-0.1-0.1-0.1-0.1-0.1-0.1
			c0-0.2-0.1-0.3-0.1-0.4c-0.1-0.2-0.3-0.3-0.5-0.3c-0.3,0-0.5,0.2-0.5,0.7c0,0,0,0.1,0,0.1c0,0-0.1,0-0.1,0h-1c0,0-0.1,0-0.1,0
			c0,0,0-0.1,0-0.1c0-0.4,0.2-0.8,0.4-1.1c0.1-0.2,0.3-0.3,0.5-0.4c0.2-0.1,0.4-0.1,0.6-0.1c0.2,0,0.4,0,0.6,0.1c0,0,0.1,0,0.1,0.1
			C11,45,11,45,11,45v-1.2c0,0,0-0.1,0-0.1c0,0,0.1,0,0.1,0h1c0,0,0.1,0,0.1,0c0,0,0,0.1,0,0.1v2.6c0,0,0,0.1,0,0.1c0,0-0.1,0-0.1,0
			H11.2z M7.1,45.9C7.1,45.9,7,45.9,7.1,45.9C7,45.8,7,45.8,7,45.8V45c0,0,0-0.1,0-0.1c0,0,0,0,0.1,0h1c0,0,0.1,0,0.1,0
			c0,0,0,0.1,0,0.1v0.8c0,0,0,0.1,0,0.1c0,0,0,0-0.1,0H7.1z M7.1,48.5C7.1,48.5,7,48.5,7.1,48.5C7,48.4,7,48.4,7,48.3v-2.1
			c0,0,0-0.1,0-0.1c0,0,0,0,0.1,0h1c0,0,0.1,0,0.1,0c0,0,0,0.1,0,0.1v2.1c0,0,0,0.1,0,0.1c0,0,0,0-0.1,0H7.1z M6.5,48.4
			C6.5,48.4,6.5,48.4,6.5,48.4c-0.1,0.1-0.1,0.1-0.1,0.1H5.6c0,0-0.1,0-0.1,0c0,0,0-0.1,0-0.1V47c0,0,0-0.1,0-0.1c0,0,0,0,0.1,0h0.8
			c0,0,0.1,0,0.1,0c0,0,0,0.1,0,0.1V48.4z M5.6,46.7C5.5,46.7,5.5,46.7,5.6,46.7c-0.1-0.1-0.1-0.1-0.1-0.1v-2.8c0,0,0-0.1,0-0.1
			c0,0,0,0,0.1,0h0.8c0,0,0.1,0,0.1,0c0,0,0,0.1,0,0.1v2.8c0,0,0,0.1,0,0.1c0,0,0,0-0.1,0H5.6z M3,46.4C3,46.4,3,46.4,3,46.4
			C3,46.3,2.9,46.3,3,46.4l-0.4-1.1c0,0.1-0.1,0.2-0.1,0.3c0,0.1-0.1,0.2-0.1,0.3c0,0,0,0.1-0.1,0.1c0,0-0.1,0-0.1,0l-0.9-0.5
			c0,0,0,0-0.1-0.1c0,0,0-0.1,0-0.1l0.6-1.6c0,0,0,0,0.1-0.1c0,0,0,0,0.1,0h1.2c0,0,0,0,0.1,0c0,0,0,0,0.1,0.1l1.2,3.2
			c0,0.1,0,0.1,0,0.1c0,0-0.1,0-0.2,0L3,46.4z M3.7,48.5C3.7,48.5,3.7,48.5,3.7,48.5c-0.1,0-0.1-0.1-0.1-0.1l-0.2-0.6H1.9l-0.2,0.6
			c0,0,0,0,0,0.1c0,0-0.1,0-0.1,0H0.4c-0.1,0-0.1,0-0.1-0.1c0,0,0-0.1,0-0.1l0.9-2.5c0,0,0-0.1,0.1-0.1c0,0,0.1,0,0.1,0l0.9,0.5
			c0.1,0,0.1,0.1,0.1,0.2c0,0.1,0,0.1,0,0.1c0,0,0,0.1-0.1,0.1h0.9l1.6,0.8L5,48.3c0,0.1,0,0.1,0,0.1c0,0-0.1,0.1-0.1,0.1H3.7z"/>
	</g>
</g>
</svg>
