<?xml version="1.0" encoding="utf-8"?>
<!-- Generator: Adobe Illustrator 23.1.1, SVG Export Plug-In . SVG Version: 6.00 Build 0)  -->
<svg version="1.1" id="Laag_1" xmlns="http://www.w3.org/2000/svg" xmlns:xlink="http://www.w3.org/1999/xlink" x="0px" y="0px"
	 width="155.1px" height="73.7px" viewBox="0 0 155.1 73.7" style="enable-background:new 0 0 155.1 73.7;" xml:space="preserve">
<style type="text/css">
	.st0{fill:#FFFFFF;}
</style>
<g>
	<path class="st0" d="M53.8,11.4c0,1-0.2,2-0.5,2.8c-0.3,0.9-0.8,1.6-1.4,2.2c-0.6,0.6-1.3,1.1-2.2,1.4s-1.8,0.5-2.9,0.5h-7.5v10H36
		V4.6h10.7c1.1,0,2,0.2,2.9,0.5c0.9,0.3,1.6,0.8,2.2,1.4c0.6,0.6,1.1,1.3,1.4,2.2C53.6,9.5,53.8,10.4,53.8,11.4z M50.5,11.4
		c0-2.6-1.6-4-4.7-4h-6.5v8.2h6.4C48.9,15.6,50.5,14.2,50.5,11.4z"/>
	<path class="st0" d="M57.5,28.4V4.6h2.9v23.8H57.5z"/>
	<path class="st0" d="M76.2,28.4v-2.3c-1.3,1.9-3,2.8-5.2,2.8c-1.1,0-2.1-0.2-2.9-0.7c-0.9-0.5-1.6-1.1-2.3-1.9
		c-0.6-0.8-1.1-1.8-1.5-2.9s-0.5-2.4-0.5-3.8c0-1.3,0.2-2.6,0.5-3.7c0.3-1.1,0.8-2.1,1.5-2.9c0.6-0.8,1.4-1.4,2.3-1.8
		c0.9-0.4,1.9-0.6,3-0.6c0.6,0,1.3,0.1,1.9,0.2c0.6,0.2,1.1,0.4,1.6,0.7c0.3,0.2,0.6,0.5,0.8,0.7c0.2,0.2,0.6,0.6,1,1.2v-2.3h2.7
		v17.3C79.1,28.4,76.2,28.4,76.2,28.4z M76.2,19.6c0-2.1-0.4-3.6-1.3-4.8c-0.8-1.1-2-1.7-3.6-1.7c-1.5,0-2.6,0.6-3.4,1.7
		c-0.8,1.1-1.2,2.8-1.2,4.9s0.4,3.8,1.2,4.9c0.8,1.1,1.9,1.7,3.4,1.7s2.7-0.6,3.5-1.8C75.8,23.5,76.2,21.8,76.2,19.6z"/>
	<path class="st0" d="M94.3,28.4V17.7c0-1.6-0.3-2.7-0.8-3.5c-0.6-0.7-1.5-1.1-2.8-1.1c-1.5,0-2.6,0.5-3.4,1.5
		c-0.8,1-1.2,2.4-1.2,4.2v9.4h-2.9V11.1h2.7v2.4H86c0.7-1,1.5-1.8,2.4-2.2c0.8-0.5,1.9-0.7,3-0.7c1.9,0,3.3,0.5,4.3,1.6
		c1,1,1.5,2.5,1.5,4.4v11.8C97.2,28.4,94.3,28.4,94.3,28.4z"/>
	<path class="st0" d="M12,65.7c0,1.2-0.4,2.1-1.1,2.8c-0.7,0.7-1.7,1.1-3,1.1s-2.3-0.4-3-1.1c-0.7-0.7-1-1.8-1-3.2v-0.2h2.6
		c0,0.1,0,0.2,0,0.4c0,1.1,0.4,1.6,1.3,1.6s1.3-0.6,1.3-1.9V45.5H12C12,45.5,12,65.7,12,65.7z M9.1,42.4V39H12v3.4H9.1z"/>
	<path class="st0" d="M18.7,55.1c0,0.7,0.1,1.2,0.1,1.5s0.1,0.7,0.2,1.1c0.3,1,0.9,1.8,1.7,2.3c0.8,0.6,1.8,0.8,2.9,0.8
		c0.6,0,1.2-0.1,1.7-0.2c0.5-0.2,1-0.4,1.4-0.7c0.4-0.3,0.7-0.7,1-1.1c0.3-0.4,0.4-0.9,0.5-1.4h2.9c-0.4,1.9-1.2,3.3-2.5,4.4
		c-1.3,1-3,1.6-4.9,1.6c-2.5,0-4.5-0.8-5.9-2.3c-1.4-1.6-2.1-3.7-2.1-6.5c0-1.5,0.2-2.8,0.6-3.9c0.4-1.2,0.9-2.2,1.6-3
		s1.6-1.5,2.6-1.9c1-0.4,2.2-0.7,3.4-0.7c2.8,0,4.8,1.1,6.1,3.4c0.5,0.8,0.8,1.6,1,2.3c0.1,0.3,0.2,0.6,0.2,0.9s0.1,0.5,0.1,0.8
		s0.1,0.7,0.1,1.1c0,0.4,0.1,0.9,0.1,1.5C31.5,55.1,18.7,55.1,18.7,55.1z M28.3,52.8c-0.1-0.6-0.1-1-0.2-1.3s-0.1-0.6-0.3-1
		c-0.3-0.9-0.9-1.6-1.6-2.1s-1.6-0.7-2.6-0.7c-1.4,0-2.6,0.5-3.5,1.4c-0.9,0.9-1.4,2.2-1.5,3.8L28.3,52.8L28.3,52.8z"/>
	<path class="st0" d="M58.9,53.7c0,1.4-0.2,2.7-0.5,3.9c-0.4,1.2-0.9,2.2-1.5,3c-0.7,0.8-1.5,1.5-2.4,1.9c-0.9,0.5-2,0.7-3.1,0.7
		s-2.1-0.2-2.8-0.6c-0.7-0.4-1.4-1.1-2-2h-0.1v2.2h-2.7V39h2.9v8.6h0.1c0.4-0.5,0.7-0.8,0.9-1.1c0.2-0.2,0.5-0.5,0.8-0.7
		c1-0.6,2.1-0.9,3.3-0.9c1.1,0,2,0.2,2.9,0.6c0.9,0.4,1.6,1,2.2,1.8c0.6,0.8,1.1,1.7,1.4,2.8C58.8,51.2,58.9,52.4,58.9,53.7z
		 M55.9,53.9c0-4.2-1.6-6.3-4.7-6.3c-1.6,0-2.7,0.6-3.5,1.8s-1.2,2.9-1.2,5.2c0,2,0.4,3.5,1.2,4.6c0.8,1.1,2,1.6,3.5,1.6
		s2.6-0.6,3.4-1.8C55.5,57.8,55.9,56.1,55.9,53.9z"/>
	<path class="st0" d="M64.7,55.1c0,0.7,0.1,1.2,0.1,1.5s0.1,0.7,0.2,1.1c0.3,1,0.9,1.8,1.7,2.3c0.8,0.6,1.8,0.8,2.9,0.8
		c0.6,0,1.2-0.1,1.7-0.2c0.5-0.2,1-0.4,1.4-0.7c0.4-0.3,0.7-0.7,1-1.1c0.3-0.4,0.4-0.9,0.5-1.4h2.9c-0.4,1.9-1.2,3.3-2.5,4.4
		c-1.3,1-3,1.6-4.9,1.6c-2.5,0-4.5-0.8-5.9-2.3c-1.4-1.6-2.1-3.7-2.1-6.5c0-1.5,0.2-2.8,0.6-3.9c0.4-1.2,0.9-2.2,1.6-3
		c0.7-0.8,1.6-1.5,2.6-1.9c1-0.4,2.2-0.7,3.4-0.7c2.8,0,4.8,1.1,6.1,3.4c0.5,0.8,0.8,1.6,1,2.3c0.1,0.3,0.2,0.6,0.2,0.9
		s0.1,0.5,0.1,0.8s0.1,0.7,0.1,1.1c0,0.4,0.1,0.9,0.1,1.5C77.5,55.1,64.7,55.1,64.7,55.1z M74.3,52.8c-0.1-0.6-0.1-1-0.2-1.3
		c-0.1-0.3-0.1-0.6-0.3-1c-0.3-0.9-0.9-1.6-1.6-2.1c-0.7-0.5-1.6-0.7-2.6-0.7c-1.4,0-2.6,0.5-3.5,1.4c-0.9,0.9-1.4,2.2-1.5,3.8
		L74.3,52.8L74.3,52.8z"/>
	<path class="st0" d="M79.6,62.8v-2.3L90,47.9h-9.6v-2.4h13.4v2.4L83.5,60.4h10.6v2.4H79.6z"/>
	<path class="st0" d="M112.4,54.1c0,1.3-0.2,2.6-0.6,3.7c-0.4,1.1-0.9,2.1-1.6,2.9c-0.7,0.8-1.5,1.4-2.5,1.9c-1,0.4-2.1,0.7-3.3,0.7
		s-2.3-0.2-3.3-0.7c-1-0.4-1.8-1.1-2.5-1.9s-1.3-1.7-1.7-2.9c-0.4-1.2-0.6-2.3-0.6-3.7s0.2-2.6,0.6-3.7c0.4-1.1,0.9-2.1,1.6-2.9
		c0.7-0.8,1.6-1.4,2.5-1.9c1-0.4,2.1-0.7,3.3-0.7s2.3,0.2,3.3,0.7c1,0.4,1.8,1.1,2.5,1.9s1.3,1.8,1.7,2.9
		C112.2,51.6,112.4,52.8,112.4,54.1z M109.4,54.1c0-2-0.5-3.6-1.4-4.8c-0.9-1.2-2.1-1.8-3.7-1.8c-1.5,0-2.8,0.6-3.7,1.8
		s-1.4,2.8-1.4,4.8s0.5,3.6,1.4,4.8s2.1,1.8,3.7,1.8c1.5,0,2.8-0.6,3.7-1.8C108.9,57.8,109.4,56.2,109.4,54.1z"/>
	<path class="st0" d="M118,55.1c0,0.7,0.1,1.2,0.1,1.5s0.1,0.7,0.2,1.1c0.3,1,0.9,1.8,1.7,2.3c0.8,0.6,1.8,0.8,2.9,0.8
		c0.6,0,1.2-0.1,1.7-0.2c0.5-0.2,1-0.4,1.4-0.7c0.4-0.3,0.7-0.7,1-1.1c0.3-0.4,0.4-0.9,0.5-1.4h2.9c-0.4,1.9-1.2,3.3-2.5,4.4
		c-1.3,1-3,1.6-4.9,1.6c-2.5,0-4.5-0.8-5.9-2.3c-1.4-1.6-2.1-3.7-2.1-6.5c0-1.5,0.2-2.8,0.6-3.9c0.4-1.2,0.9-2.2,1.6-3
		c0.7-0.8,1.6-1.5,2.6-1.9c1-0.4,2.2-0.7,3.4-0.7c2.8,0,4.8,1.1,6.1,3.4c0.5,0.8,0.8,1.6,1,2.3c0.1,0.3,0.2,0.6,0.2,0.9
		s0.1,0.5,0.1,0.8s0.1,0.7,0.1,1.1c0,0.4,0.1,0.9,0.1,1.5C130.8,55.1,118,55.1,118,55.1z M127.6,52.8c-0.1-0.6-0.1-1-0.2-1.3
		c-0.1-0.3-0.1-0.6-0.3-1c-0.3-0.9-0.9-1.6-1.6-2.1c-0.7-0.5-1.6-0.7-2.6-0.7c-1.4,0-2.6,0.5-3.5,1.4c-0.9,0.9-1.4,2.2-1.5,3.8
		L127.6,52.8L127.6,52.8z"/>
	<path class="st0" d="M144.8,62.8l-5.4-8.7l-2.4,2.2v6.6h-2.8V39h2.8v13.8l7.4-7.3h3.7l-6.6,6.5l7,10.9L144.8,62.8L144.8,62.8z"/>
</g>
</svg>
