<?xml version="1.0" encoding="utf-8"?>
<!-- Generator: Adobe Illustrator 24.3.0, SVG Export Plug-In . SVG Version: 6.00 Build 0)  -->
<svg version="1.1" id="Laag_1" xmlns="http://www.w3.org/2000/svg" xmlns:xlink="http://www.w3.org/1999/xlink" x="0px" y="0px"
	 width="631.7px" height="212.9px" viewBox="0 0 631.7 212.9" style="enable-background:new 0 0 631.7 212.9;" xml:space="preserve"
	>
<style type="text/css">
	.st0{fill:none;stroke:#FFFFFF;stroke-width:2.999;stroke-miterlimit:10;}
	.st1{fill:#FFFFFF;}
</style>
<line class="st0" x1="79.4" y1="206.4" x2="540.3" y2="206.4"/>
<g>
	<path class="st1" d="M83.3,200.4V158h7.3v42.4H83.3z"/>
	<path class="st1" d="M104.1,186.8c0.1,1.5,1.5,7.4,8.5,7.4c5.1,0,7.3-3.1,7.9-4.1l6.1,3.5c-2.4,3.2-6.8,7.6-14.6,7.6
		c-8.9,0-15.4-6.1-15.4-16.1c0-10.7,7.3-15.7,15.1-15.7c11.5,0,14.8,9.2,14.8,17.3h-22.4V186.8z M118.4,181.5
		c-0.1-1.5-1.1-6.3-6.7-6.3c-5.9,0-7.1,5.1-7.3,6.3H118.4z"/>
	<path class="st1" d="M159.3,198.9c0,8.7-5.9,11.5-14.5,11.5c-11.2,0-12.9-5.3-13.7-9.4h7.9c0.7,3.1,4.3,3.7,6,3.7
		c4.3,0,7.1-1.5,7.1-6.7v-2.6c-3.4,3-7.6,3.2-9.1,3.2c-6.3,0-13-4-13-14.3c0-10.5,7.1-14.9,13.6-14.9c3.8,0,6.8,1.6,8.5,4.1v-3.2
		h7.2V198.9z M144.9,175.9c-3.7,0-7.4,2.5-7.4,8.3c0,4.7,2.6,7.9,7.4,7.9c4.7,0,7.4-3.1,7.4-7.7
		C152.4,179.7,149.9,175.9,144.9,175.9z"/>
	<path class="st1" d="M186.9,200.4v-3.1c-1.5,1.4-4.5,3.8-9.7,3.8c-5,0-7.4-2.2-8.6-4c-1.6-2.4-1.7-5.2-1.7-7.9v-18.8h7.3v17.3
		c0,2.9,0.7,6.7,5.9,6.7c3.5,0,5.3-2.3,5.8-3.4c1.1-2.1,1.1-4.9,1.1-7.2v-13.4h7.2v30L186.9,200.4L186.9,200.4z"/>
	<path class="st1" d="M207.8,186.8c0.1,1.5,1.5,7.4,8.5,7.4c5.1,0,7.3-3.1,7.9-4.1l6.1,3.5c-2.4,3.2-6.8,7.6-14.6,7.6
		c-8.9,0-15.4-6.1-15.4-16.1c0-10.7,7.3-15.7,15.1-15.7c11.5,0,14.8,9.2,14.8,17.3h-22.4L207.8,186.8L207.8,186.8z M222,181.5
		c-0.1-1.5-1.1-6.3-6.7-6.3c-5.9,0-7.1,5.1-7.3,6.3H222z"/>
	<path class="st1" d="M255.2,179.8c-1.6-3.2-4.7-4.6-8.2-4.6c-1.4,0-5,0.4-5,3.1c0,2,1.8,2.6,6.1,3.4l4.9,0.9c4.6,0.8,8,3.5,8,8.4
		c0,5.5-5.2,10.3-13.5,10.3s-12.7-3.7-14.4-5.4l5.4-4.4c1.4,1.9,4.1,3.8,8.6,3.8c4.3,0,5.9-2.2,5.9-3.5c0-1.7-1.7-2.4-4.4-2.9
		l-3.7-0.7c-2.3-0.4-10.4-1.9-10.4-9c0-5.9,5.7-9.8,12.9-9.8c2.3,0,8.4,0.4,12.9,5.6L255.2,179.8z"/>
	<path class="st1" d="M286.4,179.8c-1.6-3.2-4.7-4.6-8.2-4.6c-1.4,0-5,0.4-5,3.1c0,2,1.8,2.6,6.1,3.4l4.9,0.9c4.6,0.8,8,3.5,8,8.4
		c0,5.5-5.2,10.3-13.5,10.3s-12.7-3.7-14.4-5.4l5.4-4.4c1.4,1.9,4.1,3.8,8.6,3.8c4.3,0,5.9-2.2,5.9-3.5c0-1.7-1.7-2.4-4.4-2.9
		l-3.7-0.7c-2.3-0.4-10.4-1.9-10.4-9c0-5.9,5.7-9.8,12.9-9.8c2.3,0,8.4,0.4,12.9,5.6L286.4,179.8z"/>
	<path class="st1" d="M329.4,200.4h-7.1l-5.4-19.1l-5.7,19.1h-7.1l-8.7-30h7.5l5.2,20.5l5.6-20.5h6.4l5.5,20.5l5.3-20.5h7.5
		L329.4,200.4z"/>
	<path class="st1" d="M363.5,200.4v-17.6c0-4.4-2.2-6.5-5.6-6.5c-3.9,0-7.5,2.9-7.5,7.4v16.6h-7.2V158h7.2v15.4c1.8-1.9,5-4,9.5-4
		c6.5,0,10.7,3.7,10.7,10.6v20.3L363.5,200.4L363.5,200.4z"/>
	<path class="st1" d="M392,201.3c-10.9,0-15.6-8.7-15.6-16c0-7.2,4.7-15.8,15.4-15.8c6.5,0,15.4,4.4,15.5,15.8
		C407.3,193.3,402.2,201.3,392,201.3z M392,194.7c5.3,0,7.7-4.5,7.7-9.1c0-4.8-2.6-9.7-8.1-9.7c-4.2,0-7.7,3.1-7.7,9.1
		C383.9,190.3,386.9,194.7,392,194.7z"/>
	<path class="st1" d="M411.5,200.4v-8.2h7.9v8.2H411.5z"/>
	<path class="st1" d="M451.6,191.9c-2.1,5.9-7.6,9.4-13.6,9.4c-8.8,0-14.8-7-14.8-15.9c0-7.8,5.3-15.9,15.2-15.9
		c7.8,0,11.8,5.7,12.9,8.5l-6.4,3c-0.8-2.6-2.9-5.1-6.8-5.1c-4.9,0-7.4,4.3-7.4,9.3c0,5.2,2.7,9.4,7.6,9.4c5.1,0,6.7-4.4,7.3-5.9
		L451.6,191.9z"/>
	<path class="st1" d="M470.5,201.3c-10.9,0-15.6-8.7-15.6-16c0-7.2,4.7-15.8,15.4-15.8c6.5,0,15.4,4.4,15.5,15.8
		C485.7,193.3,480.7,201.3,470.5,201.3z M470.5,194.7c5.3,0,7.7-4.5,7.7-9.1c0-4.8-2.6-9.7-8.1-9.7c-4.2,0-7.7,3.1-7.7,9.1
		C462.4,190.3,465.3,194.7,470.5,194.7z"/>
	<path class="st1" d="M498.8,170.4v3.4c1.3-1.7,4.8-4.3,9.4-4.3c3.4,0,6.7,1.6,8.3,4.6c1.9-2.5,5-4.6,9.7-4.6
		c6.1,0,10.3,3.2,10.3,10.4v20.5h-7.1V182c0-1.1-0.2-5.8-5-5.8c-1.1,0-3.7,0.4-5.3,3.1c-1.4,2.2-1.4,4.6-1.4,7v14.1h-7.1V182
		c0-2.3-1-5.7-4.9-5.7c-0.7,0-2.3,0.2-3.8,1.4c-2.9,2.5-3,6.7-3,10.1v12.6h-7.2v-30L498.8,170.4L498.8,170.4z"/>
</g>
<line class="st0" x1="83.9" y1="208" x2="544.8" y2="208"/>
<g>
	<path class="st1" d="M11.4,45.7V20.8c0-2.8-1.3-3.2-2.9-3.2h-7v-4.7h0.8c2.6,0,4.8-0.1,7-1.7s2.9-3.6,3.5-6.1h6v40.5h-7.4V45.7z"/>
	<path class="st1" d="M45.1,45.7V20.8c0-2.8-1.3-3.2-2.9-3.2h-7v-4.7H36c2.6,0,4.8-0.1,7-1.7s2.9-3.6,3.5-6.1h6v40.5h-7.4V45.7z"/>
	<path class="st1" d="M84.2,30.8V24h17.3v6.8H84.2z"/>
	<path class="st1" d="M135.7,45.7V20.8c0-2.8-1.3-3.2-2.9-3.2h-7v-4.7h0.8c2.6,0,4.8-0.1,7-1.7s2.9-3.6,3.5-6.1h6v40.5h-7.4V45.7z"
		/>
	<path class="st1" d="M181.2,36.4v9.3h-7.4v-9.3H156v-5.3l17.8-25.9h7.4v25h5.2v6.2H181.2z M173.8,30.2c0-0.9,0.4-16.1,0.4-16.1
		l-10.4,16.1H173.8z"/>
	<path class="st1" d="M236.7,45.7L218.2,16c0,0,0.5,28.9,0.5,29.7h-7.8V3.3h7.1l18.8,29.9c0,0-0.9-28.9-1-29.9h7.8v42.4H236.7z"/>
	<path class="st1" d="M266.2,46.6c-10.9,0-15.6-8.7-15.6-16c0-7.2,4.7-15.8,15.4-15.8c6.5,0,15.4,4.4,15.5,15.8
		C281.4,38.6,276.4,46.6,266.2,46.6z M266.2,40c5.3,0,7.7-4.5,7.7-9.1c0-4.8-2.6-9.7-8.1-9.7c-4.2,0-7.7,3.1-7.7,9.1
		C258.1,35.6,261,40,266.2,40z"/>
	<path class="st1" d="M301.6,45.7h-7.7l-9.7-30h7.4l6.3,20.6l6.1-20.6h7.5L301.6,45.7z"/>
	<path class="st1" d="M321.9,32.1c0.1,1.5,1.5,7.4,8.5,7.4c5.1,0,7.3-3.1,7.9-4.1l6.1,3.5c-2.4,3.2-6.8,7.6-14.6,7.6
		c-8.9,0-15.4-6.1-15.4-16.1c0-10.7,7.3-15.7,15.1-15.7c11.5,0,14.8,9.2,14.8,17.3L321.9,32.1L321.9,32.1z M336.1,26.8
		c-0.1-1.5-1.1-6.3-6.7-6.3c-5.9,0-7.1,5.1-7.3,6.3H336.1z"/>
	<path class="st1" d="M357,15.7v3.4c1.3-1.7,4.8-4.3,9.4-4.3c3.4,0,6.7,1.6,8.3,4.6c1.9-2.5,5-4.6,9.7-4.6c6.1,0,10.3,3.2,10.3,10.4
		v20.5h-7.1V27.3c0-1.1-0.2-5.8-5-5.8c-1.1,0-3.7,0.4-5.3,3.1c-1.4,2.2-1.4,4.6-1.4,7v14.1h-7.1V27.2c0-2.3-1-5.7-4.9-5.7
		c-0.7,0-2.3,0.2-3.8,1.4c-2.9,2.5-3,6.7-3,10.1v12.6h-7.2v-30L357,15.7L357,15.7z"/>
	<path class="st1" d="M409.5,3.3v14.9c3.1-3.1,7.2-3.4,8.6-3.4c7,0,13.2,6.1,13.2,15.7c0,10.7-7.3,16.1-13.6,16.1
		c-1.7,0-5-0.4-8.2-4v3.1h-7.1V3.3H409.5z M416.7,39.7c3.9,0,7.2-3.4,7.2-9.8c0-4-2.3-8.6-7.5-8.6c-4.3,0-7,3.8-7,8.6
		C409.3,36.4,412.3,39.7,416.7,39.7z"/>
	<path class="st1" d="M443.1,32.1c0.1,1.5,1.5,7.4,8.5,7.4c5.1,0,7.3-3.1,7.9-4.1l6.1,3.5c-2.4,3.2-6.8,7.6-14.6,7.6
		c-8.9,0-15.4-6.1-15.4-16.1c0-10.7,7.3-15.7,15.1-15.7c11.5,0,14.8,9.2,14.8,17.3L443.1,32.1L443.1,32.1z M457.3,26.8
		c-0.1-1.5-1.1-6.3-6.7-6.3c-5.9,0-7.1,5.1-7.3,6.3H457.3z"/>
	<path class="st1" d="M477.9,15.7V20c2.3-4.7,7.5-4.9,8.9-4.9h0.6v7.4c-1.5,0-7.3,0-9,5.5c-0.5,1.7-0.5,3.2-0.5,4.9v12.8h-7v-30
		C470.9,15.7,477.9,15.7,477.9,15.7z"/>
	<path class="st1" d="M509.1,39.8c7-5,12-10,14.2-12.4c1-1.1,4.4-4.8,4.4-9.9c0-3.3-1.7-6.1-5.3-6.1c-5.5,0-5.7,5.5-5.7,8.6v0.8
		l-7.5-0.7v-0.3c0-5.1,1.6-8.4,2.9-10.2c1.3-1.9,4.9-5.1,11-5.1c4.8,0,7.8,2,9.2,3.3c2.6,2.3,3.8,5.9,3.8,9.4c0,1.2-0.1,3.7-1.6,6.7
		c-2.4,5-7.1,8.6-11.2,12.1c-1.4,1.2-2.8,2.4-4.3,3.4h17.8v6.2h-27.5v-5.8H509.1z"/>
	<path class="st1" d="M556.2,46.2c-14.1,0-14.7-14.3-14.7-21c0-14.8,6.4-20.7,15.1-20.7c7.6,0,14.5,5.3,14.5,20.8
		C571.1,41.9,563.3,46.2,556.2,46.2z M556.3,39.5c5.8,0,7-5.8,7-14.2c0-5.8-0.2-14.2-6.8-14.2c-6.1,0-7.2,6.9-7.2,14.5
		C549.3,30.1,549.3,39.5,556.3,39.5z"/>
	<path class="st1" d="M576.5,39.8c7-5,12-10,14.2-12.4c1-1.1,4.4-4.8,4.4-9.9c0-3.3-1.7-6.1-5.3-6.1c-5.5,0-5.7,5.5-5.7,8.6v0.8
		l-7.5-0.7v-0.3c0-5.1,1.6-8.4,2.9-10.2c1.3-1.9,4.9-5.1,11-5.1c4.8,0,7.8,2,9.2,3.3c2.6,2.3,3.8,5.9,3.8,9.4c0,1.2-0.1,3.7-1.6,6.7
		c-2.4,5-7.1,8.6-11.2,12.1c-1.4,1.2-2.8,2.4-4.3,3.4h17.8v6.2h-27.5v-5.8H576.5z"/>
	<path class="st1" d="M621.2,45.7V20.8c0-2.8-1.3-3.2-2.9-3.2h-7v-4.7h0.8c2.6,0,4.8-0.1,7-1.7s2.9-3.6,3.5-6.1h6v40.5h-7.4V45.7z"
		/>
</g>
<g>
	<path class="st1" d="M75.7,103.4c0,3.6-0.1,5.4-0.7,7.5c-1.4,4.3-6.2,9.7-16.6,9.7c-6.8,0-13.9-2.6-16.1-9.6
		c-0.7-2.2-0.7-4.1-0.7-8.6V77.2h8v26c0,2.5,0,3.4,0.4,4.7c0.8,2.5,3.1,5,8.7,5c1,0,6.8,0,8.6-4.8c0.5-1.4,0.5-2.5,0.5-5.3V77.2h7.9
		V103.4z"/>
	<path class="st1" d="M80.7,89.6h4.4V78.9h7.2v10.7h6.4v5.1h-6.4v14.9c0,1.1,0.1,2.5,0.7,3.2c0.8,0.9,2.4,0.9,2.7,0.9
		c1,0,2.1-0.1,3-0.4v6.1c-1,0.1-2.7,0.5-5.2,0.5c-6.4,0-8.5-2.3-8.5-7.3V94.7h-4.4L80.7,89.6L80.7,89.6z"/>
	<path class="st1" d="M110,89.6v4.3c2.3-4.7,7.5-4.9,8.9-4.9h0.7v7.4c-1.5,0-7.3,0-9,5.5c-0.5,1.7-0.5,3.2-0.5,4.9v12.8h-7v-30
		C103.1,89.6,110,89.6,110,89.6z"/>
	<path class="st1" d="M129,106c0.1,1.5,1.5,7.4,8.5,7.4c5.1,0,7.3-3.1,7.9-4.1l6.1,3.5c-2.4,3.2-6.8,7.6-14.6,7.6
		c-8.9,0-15.4-6.1-15.4-16.1c0-10.7,7.3-15.7,15.1-15.7c11.5,0,14.8,9.2,14.8,17.3L129,106L129,106z M143.3,100.7
		c-0.1-1.5-1.1-6.3-6.7-6.3c-5.9,0-7.1,5.1-7.3,6.3H143.3z"/>
	<path class="st1" d="M182.9,111.1c-2.1,5.9-7.6,9.4-13.6,9.4c-8.8,0-14.8-7-14.8-15.9c0-7.8,5.3-15.9,15.2-15.9
		c7.8,0,11.8,5.7,12.9,8.5l-6.4,3c-0.8-2.6-2.9-5.1-6.8-5.1c-4.9,0-7.4,4.3-7.4,9.3c0,5.2,2.7,9.4,7.6,9.4c5.1,0,6.7-4.4,7.3-5.9
		L182.9,111.1z"/>
	<path class="st1" d="M207.1,119.6V102c0-4.4-2.2-6.5-5.6-6.5c-3.9,0-7.5,2.9-7.5,7.4v16.6h-7.2V77.2h7.2v15.4c1.8-1.9,5-4,9.5-4
		c6.5,0,10.7,3.7,10.7,10.6v20.3L207.1,119.6L207.1,119.6z"/>
	<path class="st1" d="M218.2,89.6h4.4V78.9h7.2v10.7h6.4v5.1h-6.4v14.9c0,1.1,0.1,2.5,0.7,3.2c0.8,0.9,2.4,0.9,2.7,0.9
		c1,0,2.1-0.1,3-0.4v6.1c-1,0.1-2.7,0.5-5.2,0.5c-6.4,0-8.5-2.3-8.5-7.3V94.7h-4.4v-5.1H218.2z"/>
	<path class="st1" d="M246.9,120.6c0,4.6-3.2,6.5-7.5,7.3v-3.5c2.8-0.3,3.2-2.5,3.2-4.9h-3.7v-8.2h8V120.6z"/>
	<path class="st1" d="M297.2,119.6l-18.6-29.7c0,0,0.5,28.9,0.5,29.7h-7.7V77.2h7.1l18.8,29.9c0,0-0.9-28.9-1-29.9h7.8v42.4H297.2z"
		/>
	<path class="st1" d="M318.6,106c0.1,1.5,1.5,7.4,8.5,7.4c5.1,0,7.3-3.1,7.9-4.1l6.1,3.5c-2.4,3.2-6.8,7.6-14.6,7.6
		c-8.9,0-15.4-6.1-15.4-16.1c0-10.7,7.3-15.7,15.1-15.7c11.5,0,14.8,9.2,14.8,17.3L318.6,106L318.6,106z M332.9,100.7
		c-0.1-1.5-1.1-6.3-6.7-6.3c-5.9,0-7.1,5.1-7.3,6.3H332.9z"/>
	<path class="st1" d="M342.9,89.6h4.4V78.9h7.2v10.7h6.4v5.1h-6.4v14.9c0,1.1,0.1,2.5,0.7,3.2c0.8,0.9,2.4,0.9,2.7,0.9
		c1,0,2.1-0.1,3-0.4v6.1c-1,0.1-2.7,0.5-5.2,0.5c-6.4,0-8.5-2.3-8.5-7.3V94.7h-4.4L342.9,89.6L342.9,89.6z"/>
	<path class="st1" d="M385.6,119.6V102c0-4.4-2.2-6.5-5.6-6.5c-3.9,0-7.5,2.9-7.5,7.4v16.6h-7.2V77.2h7.2v15.4c1.8-1.9,5-4,9.5-4
		c6.5,0,10.7,3.7,10.7,10.6v20.3L385.6,119.6L385.6,119.6z"/>
	<path class="st1" d="M406.1,106c0.1,1.5,1.5,7.4,8.5,7.4c5.1,0,7.3-3.1,7.9-4.1l6.1,3.5c-2.4,3.2-6.8,7.6-14.6,7.6
		c-8.9,0-15.4-6.1-15.4-16.1c0-10.7,7.3-15.7,15.1-15.7c11.5,0,14.8,9.2,14.8,17.3L406.1,106L406.1,106z M420.4,100.7
		c-0.1-1.5-1.1-6.3-6.7-6.3c-5.9,0-7.1,5.1-7.3,6.3H420.4z"/>
	<path class="st1" d="M440.9,89.6v4.3c2.3-4.7,7.5-4.9,8.9-4.9h0.6v7.4c-1.5,0-7.3,0-9,5.5c-0.5,1.7-0.5,3.2-0.5,4.9v12.8h-7v-30
		C433.9,89.6,440.9,89.6,440.9,89.6z"/>
	<path class="st1" d="M455.3,119.6V77.2h7.3v42.4H455.3z"/>
	<path class="st1" d="M487.9,119.6l-0.2-2.3c-2,1.6-5.2,3.1-8.8,3.1c-6.8,0-10.9-4.1-10.9-9.2c0-6.5,5-9.1,10.7-10.1
		c4.5-0.8,7.3-1.6,9.2-2.2c0-2.3-0.7-4.5-5.2-4.5c-5.5,0-6.1,2.9-6.1,4.5l-7.3-0.4c0.1-2,0.5-9.7,13.1-9.7c8.8,0,12.6,3.2,12.6,8.5
		v17.5c0,2.3,0.1,2.9,1.3,4.9h-8.4V119.6z M487.9,104.6c-1.2,0.6-2.9,1.3-5.7,1.7c-3.3,0.5-6.6,1.1-6.6,4.1c0,2,1.3,3.7,4.9,3.7
		c3.3,0,7.4-1.7,7.4-5.5L487.9,104.6L487.9,104.6z"/>
	<path class="st1" d="M509.9,89.6v3.5c2.7-4.1,8-4.4,9.2-4.4c6.4,0,9.7,4.1,9.7,10v20.9h-7.1v-16.9c0-3.3-0.8-7-5.3-7
		c-0.8,0-2.3,0.1-3.8,1.4c-2.2,1.8-2.8,4.3-2.8,9.5v13h-7.3v-30H509.9z"/>
	<path class="st1" d="M556.4,119.6v-2.9c-0.6,0.7-3,3.8-8.3,3.8c-6.3,0-13.3-4.4-13.3-15.3c0-10.7,6.5-16.5,13.6-16.5
		c2.5,0,6.1,0.9,8,3.4V77.2h7.1v42.4H556.4z M549.4,113.9c3.9,0,7-3.2,7-8.8c0-4.6-1.3-9.8-6.9-9.8c-4.5,0-7.2,4-7.2,9.1
		C542.3,108.8,544.1,113.9,549.4,113.9z"/>
	<path class="st1" d="M590.9,99c-1.6-3.2-4.7-4.6-8.2-4.6c-1.4,0-5,0.4-5,3.1c0,2,1.8,2.6,6.1,3.4l4.9,0.9c4.6,0.8,8,3.5,8,8.4
		c0,5.5-5.2,10.3-13.5,10.3s-12.7-3.7-14.4-5.4l5.4-4.4c1.4,1.9,4.1,3.8,8.6,3.8c4.3,0,5.9-2.2,5.9-3.5c0-1.7-1.7-2.4-4.4-2.9
		l-3.7-0.7c-2.3-0.4-10.4-1.9-10.4-9c0-5.9,5.7-9.8,12.9-9.8c2.3,0,8.4,0.4,12.9,5.6L590.9,99z"/>
</g>
</svg>
