<?xml version="1.0" encoding="utf-8"?>
<!-- Generator: Adobe Illustrator 24.3.0, SVG Export Plug-In . SVG Version: 6.00 Build 0)  -->
<svg version="1.1" id="Laag_1" xmlns="http://www.w3.org/2000/svg" xmlns:xlink="http://www.w3.org/1999/xlink" x="0px" y="0px"
	 width="111px" height="26.7px" viewBox="0 0 111 26.7" style="enable-background:new 0 0 111 26.7;" xml:space="preserve">
<style type="text/css">
	.st0{fill:#674c24;}
</style>
<g>
	<path class="st0" d="M11.2,8.8c2.2-0.2,4.5-0.4,7.2-0.3l0.2,0.2l-1.4,4.5c-1.2,1.1-2.5,1.7-4,2.1c0,0.7,0.1,1.4,0.2,2.1l-2.1,0.4
		L11,17.5C11.4,14.7,11.4,11.8,11.2,8.8z M16.3,10.6l-0.1-0.8c-1.1,0.1-2.1,0.3-3.1,0.5c-0.1,1-0.1,2,0,3.1
		C14.3,13.2,15.5,12.4,16.3,10.6z"/>
	<path class="st0" d="M19.3,9.4l2-1.3l0.2,0.1c-0.4,3.3-0.3,6.1-0.2,8.4l-1.9,1l-0.3-0.1C19.2,14.7,19.3,12.4,19.3,9.4z"/>
	<path class="st0" d="M22.7,17.3l-0.4-3.2c0.6-1.9,1.8-3.4,3.1-4.6l1.1,0.9h0.3l1.7-1l0.2,0.1L28.4,17l-1.7,0.4l-0.2-0.1V16l-0.3,0
		l-3.4,1.4L22.7,17.3z M24.8,15.4l1.8-0.6v-2.9l-0.5-0.2c-0.9,0.6-1.4,1.4-1.8,2.2L24.2,15L24.8,15.4z"/>
	<path class="st0" d="M34.9,12.8c0.1-0.6-0.2-1.1-0.6-1.4c-0.7,0-1.8,0.5-2.6,1l0,4.4l-2.1,0.7l-0.2-0.2c0.3-2.1,0.5-4.3,0.4-6.8
		l1.8-0.8l0.2,0.2l0,1.1l2.9-1.8l2.2,2.4c-0.1,1.7-0.6,3.5-1.1,5.2l-2.5,0.5l-0.2-0.3C33.6,16.6,34.8,14.5,34.9,12.8z"/>
	<path class="st0" d="M42,18.3V18c0.7-0.4,1.3-0.9,2-1.5c-1.2-2-1.9-4-2.3-6c0.9-0.1,1.5-0.3,2.2-0.6l0.3,0.2
		c-0.1,1.6,0.2,3.2,0.9,4.7c0.7-1.4,1.1-2.9,1.4-4.4c0.7-0.1,1.5-0.2,2.2-0.5l0.1,0.3c-0.8,2.3-1.8,4.7-2.9,7L43.9,19
		C43.1,18.7,42.6,18.5,42,18.3z"/>
	<path class="st0" d="M49,14.4l2-4.5l3.5-0.2l1.9,2.9v0.4L54.7,17l-3.6,0.5L49,14.4z M52.2,15.7l0.8,0.1l1.6-3.1
		c-0.5-0.7-1.1-1.2-1.9-1.5c-0.7,0.7-1.4,1.6-2,2.6L52.2,15.7z"/>
	<path class="st0" d="M57.2,17.5l0-7l1.9-0.6l0.1,0.2c-0.3,1.3-0.2,2.8,0,3.8c0.2,0.8,0.5,1.2,0.9,1.2c0.7,0,1.3-1,1.5-2.1
		c0.2-1,0.1-2.1-0.1-2.6l2.1-0.6L63.4,17l-2,0.4l-0.1-0.1l0-1.4l-0.2-0.1l-3.8,1.9L57.2,17.5z"/>
	<path class="st0" d="M64.8,10.3l2.1-0.6l0.3,0.2l0,1.3l0.1,0l1.2-1.5l0.2,0l1.2,1.5c-0.2,0.9-0.6,1.7-1.1,2.4l-0.3,0
		c0-0.7-0.2-1.3-1-1.4L67,12.3c-0.2,1.3,0,2.9,0.2,4.6l-2.4,0.4L64.6,17C65,14.4,65.3,12,64.8,10.3z"/>
	<path class="st0" d="M74.2,9.8l2.5,0l0.2,0.2c-0.1,0.5-0.3,1.4-0.3,2.6c0,1.7,0.3,2.7,0.9,2.7c0.8,0,1.8-2.1,1.8-3.4
		c0-0.7,0-1.2-0.1-1.7l0.2-0.3l2.3-0.1c-0.3,2.9-1.4,5.3-3.2,7.3l-2.5,0.4l-0.3-0.1C74.9,13.9,74.2,11.2,74.2,9.8z"/>
	<path class="st0" d="M82.3,10.8l2-0.8l0.2,0.1c-0.2,1.8-0.3,4.4-0.2,6.7l-2,0.6l-0.3-0.1C82.3,15.3,82.3,12.9,82.3,10.8z M82.3,8.4
		l1.9-0.7l0.2,0.1l0,0.7l-1.9,0.9l-0.3-0.1V8.4z"/>
	<path class="st0" d="M84.9,17.1l1.1-2.3c0.5,0.2,1.2,0.4,1.7,0.4c0.6,0,1-0.2,1-0.5c0-0.5-0.6-1-3-2l-0.2-0.2l0.6-2.3l4.1-0.7
		l0.2,0.2c0,0.7,0.1,1.4,0.3,2.1L90.6,12c-0.6-0.4-1.6-0.8-2.9-0.6l-0.1,0.5c1.2,0.5,2.4,1.3,3.2,2.3l-0.5,2.4
		c-1.8,0.2-3.5,0.6-5.1,0.9L84.9,17.1z"/>
	<path class="st0" d="M92,10.8l2-0.8l0.2,0.1C94,12,93.9,14.5,94,16.8l-2,0.6l-0.3-0.1C92,15.3,92,12.9,92,10.8z M92,8.4L94,7.7
		l0.2,0.1l0,0.7l-1.9,0.9L92,9.3V8.4z"/>
	<path class="st0" d="M95.7,9.4l2-0.8L98,8.7c-0.2,0.7-0.3,1.5-0.4,2.4l0.1,0l2.2-1.1l0.1,0.1l-0.9,3.1l-0.2,0l-1.3-0.6l-0.1,0
		c0,1.4,0.1,2.9,0.3,3.9l-0.1,0.5l-2.3,0.2L95.7,9.4z"/>
</g>
</svg>
