<?xml version="1.0" encoding="utf-8"?>
<!-- Generator: Adobe Illustrator 24.3.0, SVG Export Plug-In . SVG Version: 6.00 Build 0)  -->
<svg version="1.1" id="Laag_1" xmlns="http://www.w3.org/2000/svg" xmlns:xlink="http://www.w3.org/1999/xlink" x="0px" y="0px"
	 width="91.3px" height="78.2px" viewBox="0 0 91.3 78.2" style="enable-background:new 0 0 91.3 78.2;" xml:space="preserve">
<style type="text/css">
	.st0{fill:#D75C40;}
</style>
<path class="st0" d="M0,66.3l2.2-1.5c7.9,1.5,15.9,2.2,24.1,1.6l0.6-1.4l-7.5-6.2c-4.4-7.5-8.5-15.8-11.6-24.9
	C6.7,25.2,6.2,16.5,6.3,7.8l2.3-1.1c9.7,6.4,19.3,13.1,27.9,21c0.9,7,2.1,14.2,3.9,21.2l-1.6,11.6l2.2,0.6c5.2-2.8,9.9-6.4,13.3-12
	l0.7-5.2l-3.3-1c-4.8-5.7-8.4-12.8-10-22.6l7.4-15.2L67.7,0l15.5,6.8c5.9,6.3,8.6,14.4,7.9,24.2c-5.2,13.3-15.5,19.3-30,19l-1.9,5.9
	C52.6,61,45.8,66.8,39,72.9l-9.9,0.2c-6,3.3-13,4.7-20.4,5.1L0,66.3z M24.2,51.6c1.9,2.7,4.1,4.9,6.4,6.7l1.5-1.4
	c0.2-3.8,0.2-7.7,0-11.5c-3.1-8.8-7.4-15.9-12.8-21.6c-1.6-1.6-3.8-0.6-2.8,3.1C18.8,35.8,21.3,43.9,24.2,51.6z M66,37.9l9-4.9
	c1.2-4.1,2-8.1,2-12c-1.7-3.5-3.9-6-6.4-7.9L60.1,13c-2.2,4.8-3.9,9.7-5.2,14.6C58.1,32.1,61.7,35.7,66,37.9z"/>
</svg>
