<?xml version="1.0" encoding="utf-8"?>
<!-- Generator: Adobe Illustrator 24.3.0, SVG Export Plug-In . SVG Version: 6.00 Build 0)  -->
<svg version="1.1" id="Laag_1" xmlns="http://www.w3.org/2000/svg" xmlns:xlink="http://www.w3.org/1999/xlink" x="0px" y="0px"
	 width="552.9px" height="134.1px" viewBox="0 0 552.9 134.1" style="enable-background:new 0 0 552.9 134.1;" xml:space="preserve"
	>
<style type="text/css">
	.st0{fill:#84BF63;}
</style>
<g>
	<path class="st0" d="M150.4,6.5l35.7-2.6l0.5,1.2l-2.3,13l-1.2,0.6c-6.2-5-13.1-6.4-20.9-6.6l-2.2,2l-0.4,9.5l14.4-3.6l1.1,1.4
		L171.4,33l-1.1,0.1c-2.7-1.8-7.2-2-11-1.6L158.8,43c12.1,0,17.2-2.3,26.2-11.9l1,0.7l-1.3,16.1l-35.1,1.6L150.4,6.5z"/>
	<path class="st0" d="M187.7,48L204,30.4c-4.1-5.3-8.9-10.9-14.6-16.6l0.2-1.5l11.2-1.5c2,2.7,5.2,6.4,9.3,12l7-10.5
		c4.5-0.3,8.4-0.6,12.5-1.2l-0.1,1.4l-14.1,17.4c4.3,5.4,8.8,10.9,13.4,15.8l-0.6,1.5l-10.9,3.4c-2-3.6-4.8-8.3-8.4-13.5l-7.6,10.2
		c-4.5,0.6-8.1,1.4-12.2,2.2L187.7,48z"/>
	<path class="st0" d="M258.5,28.6c0.3-3.2-0.6-4.9-2-6.2c-3.5,0.4-8.5,2.7-12.3,5.6l0.2,18.2l-10,3.8l-0.9-0.9
		c0.9-10.7,1.6-28.6,1.1-41L246.8,5l0.8,1c-1.9,4.1-2.5,8.9-2.8,13l11.9-8.1h1.8l10.4,13c-1.1,8.6-2.9,15.4-5.7,23.5l-12.5,2.5
		l-1-1.5C252.3,45.8,257.8,37.3,258.5,28.6z"/>
	<path class="st0" d="M274.3,15.9l10.4-4l1,0.6c-1.1,9.2-1.4,22.1-0.9,34l-10.1,3l-1.4-0.5C274.2,38.7,274.5,26.3,274.3,15.9z
		 M274.5,3.7l9.9-3.7l1,0.6l0.1,3.5l-9.6,4.8l-1.3-0.4V3.7z"/>
	<path class="st0" d="M291.5,5.7l12.1-2.2l0.6,0.5l-2.5,9.9l1.5,1.4l7.1-5.2h1l10.9,14.6l-7.4,21.4L291,49.4l-1-0.7
		C292.9,34,293.2,19.5,291.5,5.7z M301.8,39.6l2.2,0.3l8.1-6.5c0.8-3.8,1.3-7.6,1.3-11.3c-3.9-2.6-8.2-2.3-12.5-1.1L301.8,39.6z"/>
	<path class="st0" d="M326.9,15.9l10.4-4l1,0.6c-1.1,9.2-1.4,22.1-0.9,34l-10.1,3l-1.4-0.5C326.8,38.7,327.2,26.3,326.9,15.9z
		 M327.1,3.7L337,0l1,0.6l0.1,3.5l-9.6,4.8l-1.3-0.4V3.7z"/>
	<path class="st0" d="M345.7,8.6L356,4.3l1.3,1c-0.9,3.4-1.6,7.6-2,12.2l0.3,0.1l11.3-5.7l0.6,0.5l-4.3,15.8l-1.1,0.1l-6.9-2.9
		l-0.5,0.1c-0.1,7.3,0.4,14.6,1.6,20l-0.6,2.3l-11.7,0.8L345.7,8.6z"/>
	<path class="st0" d="M370.9,15.9l10.4-4l1,0.6c-1.1,9.2-1.4,22.1-0.9,34l-10.1,3l-1.4-0.5C370.9,38.7,371.2,26.3,370.9,15.9z
		 M371.1,3.7L381,0l1,0.6l0.1,3.5l-9.6,4.8l-1.3-0.4V3.7z"/>
	<path class="st0" d="M385.6,34.1l10.2-23l17.9-1.3l9.8,14.8v1.8l-8.7,20.7l-18.3,2.5L385.6,34.1z M401.9,40.9l4.1,0.7l8.3-15.9
		c-2.7-3.5-5.8-6-9.7-7.5c-3.6,3.6-7,8.1-10.1,13.3L401.9,40.9z"/>
	<path class="st0" d="M453.4,25.9c0.3-3.2-1-5.6-3.2-7.1c-3.6,0.1-9.2,2.3-13.2,5.2l0.2,22.3L426.6,50l-0.9-0.9
		c1.6-10.7,2.3-22.1,1.8-34.4l9-4.3l0.8,1l0.1,5.7l14.8-9.1l11.1,12.4c-0.5,8.6-3.2,17.8-5.7,26.3l-12.5,2.5l-1-1.5
		C446.7,45.1,452.6,34.6,453.4,25.9z"/>
	<path class="st0" d="M486.7,34.1l10.2-23l17.9-1.3l9.8,14.8v1.8l-8.7,20.7l-18.3,2.5L486.7,34.1z M503,40.9l4.1,0.7l8.3-15.9
		c-2.7-3.5-5.8-6-9.7-7.5c-3.6,3.6-7,8.1-10.1,13.3L503,40.9z"/>
	<path class="st0" d="M533.2,26.1l-2.9,0.3l-1.5-1l-0.4-7.6l5.3,0.8c-0.1-4.9-0.9-9.2-2.1-13.2l0.9-1.3c4.6,0.5,13.1-0.1,19.8-2.2
		l0.6,0.6l-0.4,7.7c-3.8-0.6-7.4-0.3-10.9,0.5l-0.1,8.1c3.5-0.3,6.9-1.2,8.7-2.3l0.8,0.3l-1.2,9.6l-1,0.6c-2.9-0.9-5.6-1.2-7.5-1.2
		c-0.1,6.7,0.5,13,1.3,19.5L542,47l-12.1,1.1l-1-1C531.1,41.3,532.7,33.4,533.2,26.1z"/>
</g>
<g>
	<path class="st0" d="M1,80.9l15.5-3.5l0.5,1.3c-4.3,6.4-6,17.2-6,25.4c0,8,1.6,9.4,5,9.4c3.9,0,12.8-4.5,17.1-8.9l1.3,0.9
		l-3.4,14.8c-13,0.6-22.5,1.5-29.6,2.9L0,122.7C2,109.1,2,95.1,1,80.9z"/>
	<path class="st0" d="M39.8,122.7l-2.1-16.3c3.3-9.8,9-17.1,15.7-23.6l5.5,4.6h1.5l8.5-5.2l0.8,0.6L69,121.1l-8.5,2l-1.1-0.4v-6.3
		l-1.5-0.2l-17.5,7.1L39.8,122.7z M50.6,113l9.2-3.3v-15l-2.7-1.3c-4.5,2.9-7.4,7-9.2,11.4l-0.4,6.2L50.6,113z"/>
	<path class="st0" d="M102,99.9c0.3-3.2-1-5.6-3.2-7.1c-3.6,0.1-9.2,2.3-13.2,5.2l0.2,22.3L75.2,124l-0.9-0.9
		c1.6-10.7,2.3-22.1,1.8-34.4l9-4.3l0.8,1l0.1,5.7l14.8-9.1l11.1,12.4c-0.5,8.6-3.2,17.8-5.7,26.3l-12.5,2.5l-1-1.5
		C95.3,119.1,101.2,108.6,102,99.9z"/>
	<path class="st0" d="M135.7,121.9l0.6-4.7l-1.1-0.4l-18.5,4.8l-0.8-0.5l-1-12.4c2.4-11.9,7.3-18.5,15.4-23.6l6.7,3.4l-0.8-9
		l8.6-2.9l1.4,1.3c0.1,11.8-0.1,30-1.1,42.4l-8.8,2.2L135.7,121.9z M126.7,113.7l10.1-5.9V95.7l-3.1-1.5c-6.4,3.4-9.7,9.2-9.7,16.9
		L126.7,113.7z"/>
	<path class="st0" d="M149.1,121.9l5.5-11.6c2.7,1.3,6.2,2.2,8.9,2.2c3.2,0,5-1,5-2.5c0-2.5-2.9-5.3-15.1-10.4l-0.8-1.2l3.2-11.8
		l20.8-3.6l1.3,1c0.1,3.6,0.6,7.2,1.7,10.6l-1.5,1c-3.3-2.1-8.1-3.8-14.8-3.2l-0.7,2.5c6,2.3,12,6.7,16.4,11.8l-2.3,12
		c-9,1.3-17.6,2.8-25.9,4.6L149.1,121.9z"/>
	<path class="st0" d="M182.9,105.6l7.7-18.8l22.2-1.7l0.8,1.4l-3.8,11.3l-1.7,0.2c-2.9-1.9-6-3.3-10.6-3.8l-3.9,10.6
		c1.5,4.1,3.4,7.6,5.7,10.4h1.1c6.6-3.4,10.2-8.1,13.3-12.9l1.8,0.4l-2.5,16.3l-21.8,3.9L182.9,105.6z"/>
	<path class="st0" d="M221.1,122.7l-2.1-16.3c3.3-9.8,9-17.1,15.7-23.6l5.5,4.6h1.5l8.5-5.2l0.8,0.6l-0.6,38.3l-8.5,2l-1-0.4v-6.3
		l-1.5-0.2l-17.5,7.1L221.1,122.7z M231.9,113l9.2-3.3v-15l-2.7-1.3c-4.5,2.9-7.4,7-9.2,11.4l-0.4,6.2L231.9,113z"/>
	<path class="st0" d="M258.2,85.7l10.7-3.1l1,0.8l-0.6,4.8l8.2-4.3c6.2,4.2,10.3,10.9,9.1,24.3l0.6,6.4l-19.9,6.5
		c0.8,5,2.6,8.9,4.2,10.5l-1.3,1.5l-13.2-9.5C257.8,111.9,258.2,99.9,258.2,85.7z M269,113.8l10.5-5.6c-0.9-8.8-3.9-14-11.1-14.6
		c-1.5,4.9-2,11.7-1.6,20.2L269,113.8z"/>
	<path class="st0" d="M291.1,102.5l10.9-18.1l15.8-1.3l8.6,17.9l-1,2.6l-22.8,1.1l-0.4,1l7.4,9.2l14.5-7.3l0.6,1.1l-4.5,11.7
		l-19.7,2.5L291.1,102.5z M301.6,98.8l15.5-1.1l0.1-0.8l-6.7-7.8L310,89l-8.4,9.3L301.6,98.8z"/>
	<path class="st0" d="M359.6,109.4c-1.3-8.2-4.7-17-9-27.4l0.6-1l11.6-1.8c1.8,10.5,3.8,20,6.4,27.4c4.5-7.3,7.1-16.5,8.6-26.5
		l7.9-1.5c2.5,9.2,5,17.3,8.1,23.7c2.7-6.7,3.5-13.7,4.1-21l11.4-0.9c-1.1,12.8-5.6,27.3-11.6,42.3l-9.8,1.7l-1.5-1.2
		c1.5-3.8,2.9-7.5,3.8-11.2l-7.1-13.8l-11.3,24.9l-9.5,2l-1.6-1.2C360.6,119.4,360.4,114.5,359.6,109.4z"/>
	<path class="st0" d="M411.1,108.1l10.2-23l17.9-1.3l9.8,14.8v1.8l-8.7,20.7l-18.3,2.5L411.1,108.1z M427.4,114.9l4.1,0.7l8.3-15.9
		c-2.7-3.5-5.8-6-9.7-7.5c-3.6,3.6-7,8.1-10.1,13.3L427.4,114.9z"/>
	<path class="st0" d="M453.1,87.2l10.6-3.2l1.5,1.3l-0.2,6.7l0.5-0.1l6.3-7.6l1.3-0.2l5.9,7.7c-1.3,4.3-3.2,8.4-5.5,12.1l-1.8-0.2
		c0.1-3.7-1-6.5-5.3-7.1l-2.3,1c-0.8,6.5-0.1,14.6,1,23.2l-12,1.9l-1-1.2C454.1,108.1,455.4,95.8,453.1,87.2z"/>
	<path class="st0" d="M482.5,84.3l11.5-6.1l1.2,0.9c-1.3,3.1-2.9,8.1-3.2,16.9c0,1.1,0,2.9,0,5.1c5.1-3.8,10.3-9.1,14.4-16l1-0.1
		l8.5,8.5v1.3l-10.6,7.4c6.6,5.5,10.6,12.3,14.3,19l-13.2,4.3l-1.1-0.8c-0.2-8-1-15.5-6-19c-2.2,1.2-4.6,2.5-6.9,4.1
		c0.1,3.9,0.5,8,0.9,11.4l-11.8,3.3l-0.8-1C482.3,111.4,483.2,98.6,482.5,84.3z"/>
	<path class="st0" d="M519.7,121.9l5.5-11.6c2.7,1.3,6.2,2.2,8.9,2.2c3.2,0,5-1,5-2.5c0-2.5-2.9-5.3-15.1-10.4l-0.8-1.2l3.2-11.8
		l20.8-3.6l1.3,1c0.1,3.6,0.6,7.2,1.7,10.6l-1.5,1c-3.3-2.1-8.1-3.8-14.8-3.2L533,95c6,2.3,12,6.7,16.4,11.8l-2.3,12
		c-9,1.3-17.6,2.8-25.9,4.6L519.7,121.9z"/>
</g>
</svg>
