<?xml version="1.0" encoding="utf-8"?>
<!-- Generator: Adobe Illustrator 24.0.0, SVG Export Plug-In . SVG Version: 6.00 Build 0)  -->
<svg version="1.1" id="Laag_1" xmlns="http://www.w3.org/2000/svg" xmlns:xlink="http://www.w3.org/1999/xlink" x="0px" y="0px"
	 width="210.3px" height="80.6px" viewBox="0 0 210.3 80.6" style="enable-background:new 0 0 210.3 80.6;" xml:space="preserve">
<style type="text/css">
	.st0{fill:#FFFFFF;}
</style>
<g>
	<path class="st0" d="M32.9,0h17.6c3.2,0,5.7,2.5,5.7,5.6v7.6c0,1.6-1.2,3.4-2.8,3.9c1.5,0.3,3.1,1.8,3.1,3.9v9
		c0,3.1-2.5,5.6-5.7,5.6H32.9V0z M48.5,14.5c0.7-0.1,1.3-0.6,1.3-1.4V7.2c0-0.8-0.6-1.4-1.4-1.4h-9v8.7H48.5z M39.3,29.8h9.3
		c0.8,0,1.4-0.6,1.4-1.4v-6.7c0-0.8-0.6-1.4-1.4-1.4h-9.3V29.8z"/>
	<path class="st0" d="M63.9,0h21.6v5.9H70.3v8.8h13.9v5.9H70.3v9.1h15.2v5.9H63.9V0z"/>
	<path class="st0" d="M93,0h18.1c3.3,0,5.9,2.6,5.9,5.9V16c0,3.3-2.6,5.9-5.9,5.9H99.4v13.7H93V0z M110.6,7.3c0-0.8-0.6-1.4-1.4-1.4
		h-9.7V16h9.7c0.8,0,1.4-0.6,1.4-1.4V7.3z"/>
</g>
<g>
	<path class="st0" d="M13.2,65.5H6.4v13.7H0V43.7h18.7c3.3,0,5.9,2.6,5.9,5.9v10.1c0,2.8-1.9,5.1-4.4,5.7L27,79.3h-7.1L13.2,65.5z
		 M18.1,50.9c0-0.8-0.6-1.4-1.4-1.4H6.4v10.1h10.3c0.8,0,1.4-0.6,1.4-1.4V50.9z"/>
	<path class="st0" d="M39.3,79.3h-6.4V43.7h6.4V79.3z"/>
	<path class="st0" d="M46.8,43.7h21.6v5.9H53.2v8.8h13.9v5.9H53.2v9.1h15.2v5.9H46.8V43.7z"/>
	<path class="st0" d="M71.8,43.7h25.8v5.9h-9.7v29.7h-6.4V49.5h-9.7V43.7z"/>
	<path class="st0" d="M117.5,79.3h-6.3l-10.9-35.6h6.4l7.6,25.9l7.7-25.9h6.4L117.5,79.3z"/>
	<path class="st0" d="M132.9,43.7h21.6v5.9h-15.2v8.8h13.9v5.9h-13.9v9.1h15.2v5.9h-21.6V43.7z"/>
	<path class="st0" d="M160.8,43.7h6.4v29.7h14.5v5.9h-21V43.7z"/>
	<path class="st0" d="M187,43.7h17.4c3.3,0,5.9,2.6,5.9,5.9v23.9c0,3.3-2.6,5.9-5.9,5.9H187V43.7z M203.9,50.9
		c0-0.8-0.6-1.4-1.4-1.4h-9v23.9h9c0.8,0,1.4-0.6,1.4-1.4V50.9z"/>
</g>
</svg>
