<?xml version="1.0" encoding="utf-8"?>
<!-- Generator: Adobe Illustrator 24.3.0, SVG Export Plug-In . SVG Version: 6.00 Build 0)  -->
<svg version="1.1" id="Laag_1" xmlns="http://www.w3.org/2000/svg" xmlns:xlink="http://www.w3.org/1999/xlink" x="0px" y="0px"
	 width="250.5px" height="320.3px" viewBox="0 0 250.5 320.3" style="enable-background:new 0 0 250.5 320.3;" xml:space="preserve"
	>
<style type="text/css">
	.st0{fill:#714865;}
	.st1{fill:none;stroke:#714865;stroke-miterlimit:10;}
</style>
<g>
	<path class="st0" d="M98.6,0h8.8l-8.8,47.6H85.8l-7.7-31.3h-0.7l-7.6,31.3H57L48.1,0H57l6.4,35.8h0.7l7.9-32.4h11.4l7.9,32.4h0.7
		L98.6,0z"/>
	<path class="st0" d="M122.4,39.2h23.3v8.4h-32.2V0H145v8.4h-22.6v11.2h19.4v8h-19.4V39.2z"/>
	<path class="st0" d="M162.3,38.7h23.1v8.9h-32.8V0h9.7V38.7z"/>
	<path class="st0" d="M63,88.3c-0.9,5-3.2,8.9-6.9,11.7c-3.7,2.8-8.2,4.2-13.5,4.2c-7.1,0-12.8-2.3-17-6.8
		c-4.2-4.5-6.3-10.4-6.3-17.7c0-7.2,2.1-13,6.2-17.6c4.1-4.6,9.6-6.9,16.2-6.9c5.2,0,9.7,1.3,13.4,4c3.7,2.7,6,6.7,6.9,12h-9.7
		c-0.6-2.3-1.8-4.1-3.6-5.4c-1.8-1.3-4.1-2-6.8-2c-3.9,0-6.9,1.5-9.2,4.5c-2.3,3-3.4,6.8-3.4,11.4c0,4.8,1.2,8.6,3.6,11.4
		c2.4,2.9,5.6,4.3,9.7,4.3c2.6,0,4.9-0.7,6.8-2c1.9-1.3,3.3-3.1,4-5.3H63z"/>
	<path class="st0" d="M91.8,104.3c-6.9,0-12.7-2.3-17.3-7c-4.6-4.7-6.9-10.5-6.9-17.5c0-7,2.3-12.8,6.8-17.5c4.6-4.7,10.3-7,17.2-7
		c6.9,0,12.6,2.3,17.2,7c4.6,4.7,6.9,10.5,6.9,17.5c0,7-2.3,12.8-6.9,17.5C104.4,101.9,98.7,104.3,91.8,104.3z M91.8,95.4
		c4.1,0,7.5-1.5,10.3-4.5c2.7-3,4.1-6.7,4.1-11.1c0-4.4-1.4-8.1-4.1-11.1c-2.7-3-6.2-4.5-10.3-4.5c-4.1,0-7.6,1.5-10.3,4.5
		c-2.8,3-4.1,6.7-4.1,11.1c0,4.4,1.4,8.1,4.1,11.1C84.2,93.9,87.6,95.4,91.8,95.4z"/>
	<path class="st0" d="M174.2,56v47.6h-8.8V70.8h-0.7l-11.3,28.7h-9l-11.2-28.7h-0.7v32.8h-8.9V56h12.1l13,32h0.7l12.9-32H174.2z"/>
	<path class="st0" d="M192.8,95.2H216v8.4h-32.2V56h31.5v8.4h-22.6v11.2h19.4v8h-19.4V95.2z"/>
	<path class="st1" d="M35.9,108v8.4H22.7v39.2h-9.1v-39.2H0.5V108H35.9z"/>
	<path class="st1" d="M62.4,156.3c-6.9,0-12.7-2.3-17.3-7c-4.6-4.7-6.9-10.5-6.9-17.5c0-7,2.3-12.8,6.8-17.5c4.6-4.7,10.3-7,17.2-7
		c6.9,0,12.6,2.3,17.2,7c4.6,4.7,6.9,10.5,6.9,17.5c0,7-2.3,12.8-6.9,17.5C74.9,153.9,69.2,156.3,62.4,156.3z M62.4,147.4
		c4.1,0,7.5-1.5,10.3-4.5c2.7-3,4.1-6.7,4.1-11.1c0-4.4-1.4-8.1-4.1-11.1c-2.7-3-6.2-4.5-10.3-4.5c-4.1,0-7.6,1.5-10.3,4.5
		c-2.8,3-4.1,6.7-4.1,11.1c0,4.4,1.4,8.1,4.1,11.1C54.7,145.9,58.2,147.4,62.4,147.4z"/>
	<path class="st1" d="M134.5,156.3c-6.9,0-12.7-2.3-17.3-7c-4.6-4.7-6.9-10.5-6.9-17.5c0-7,2.3-12.8,6.8-17.5c4.6-4.7,10.3-7,17.2-7
		c6.9,0,12.6,2.3,17.2,7c4.6,4.7,6.9,10.5,6.9,17.5c0,7-2.3,12.8-6.9,17.5C147,153.9,141.3,156.3,134.5,156.3z M134.5,147.4
		c4.1,0,7.5-1.5,10.3-4.5c2.7-3,4.1-6.7,4.1-11.1c0-4.4-1.4-8.1-4.1-11.1c-2.7-3-6.2-4.5-10.3-4.5c-4.1,0-7.6,1.5-10.3,4.5
		c-2.8,3-4.1,6.7-4.1,11.1c0,4.4,1.4,8.1,4.1,11.1C126.8,145.9,130.3,147.4,134.5,147.4z"/>
	<path class="st1" d="M204.8,108v27.9c0,6.8-1.8,11.8-5.4,15.3c-3.6,3.4-8.3,5.1-14,5.1c-5.8,0-10.5-1.7-14.1-5.1
		c-3.6-3.4-5.5-8.5-5.5-15.3V108h9.7v28.2c0,3.5,0.9,6.2,2.7,8.3c1.8,2,4.2,3,7.3,3c3,0,5.4-1,7.1-3c1.7-2,2.6-4.8,2.6-8.3V108
		H204.8z"/>
	<path class="st1" d="M249.6,155.6h-9.8l-9.5-17.5h-7v17.5h-8.8V108h17.7c4.8,0,8.6,1.3,11.5,4c2.9,2.7,4.4,6.3,4.4,10.8
		c0,3.1-0.8,5.8-2.4,8.2c-1.6,2.4-3.8,4.2-6.5,5.4L249.6,155.6z M223.3,116.4v13.3h8c2.3,0,4.1-0.6,5.5-1.9c1.4-1.2,2-2.8,2-4.8
		c0-2-0.7-3.6-2-4.8c-1.3-1.2-3.2-1.8-5.5-1.8H223.3z"/>
	<path class="st0" d="M34,184.8h21.5v25.8h-6.3l-1.3-4.8h-0.7c-1.2,1.4-3,2.6-5.2,3.7c-2.3,1.1-5.1,1.7-8.4,1.7
		c-6.5,0-11.7-2.2-15.5-6.6c-3.8-4.4-5.7-10-5.7-17c0-7.4,2.1-13.5,6.2-18.3c4.1-4.8,9.5-7.1,16-7.1c6.2,0,11,1.5,14.5,4.4
		c3.5,2.9,5.5,6.7,5.9,11.3h-9.5c-0.4-2-1.5-3.7-3.4-5c-1.9-1.4-4.1-2-6.9-2c-4.1,0-7.4,1.6-9.8,4.7c-2.4,3.1-3.6,7.1-3.6,11.9
		c0,4.7,1.2,8.4,3.5,11.3c2.3,2.8,5.8,4.2,10.4,4.2c4.2,0,7.7-1.5,10.7-4.4v-6.4H34V184.8z"/>
	<path class="st0" d="M103.5,163v27.9c0,6.8-1.8,11.8-5.4,15.3c-3.6,3.4-8.3,5.1-14,5.1c-5.8,0-10.5-1.7-14.1-5.1
		c-3.6-3.4-5.5-8.5-5.5-15.3V163h9.7v28.2c0,3.5,0.9,6.2,2.7,8.3c1.8,2,4.2,3,7.3,3c3,0,5.4-1,7.1-3c1.7-2,2.6-4.8,2.6-8.3V163
		H103.5z"/>
	<path class="st0" d="M122.1,202.2h23.3v8.4h-32.2V163h31.5v8.4h-22.6v11.2h19.4v8h-19.4V202.2z"/>
	<path class="st0" d="M183.8,198c0,4.3-1.5,7.6-4.6,9.9c-3,2.3-7,3.4-12,3.4c-5.5,0-9.8-1.5-13-4.5c-3.1-3-4.7-6.9-4.7-11.7h9.1
		c0,2.5,0.8,4.6,2.2,6.1c1.5,1.5,3.6,2.2,6.5,2.2c2,0,3.7-0.5,5-1.4c1.3-0.9,2-2.3,2-4s-0.7-3.2-2.1-4.4c-1.4-1.1-3.9-2.3-7.4-3.5
		c-4.4-1.5-7.8-3.4-10.2-5.5c-2.4-2.1-3.6-5-3.6-8.6c0-4.2,1.5-7.5,4.4-10c2.9-2.4,6.6-3.7,11.2-3.7c5,0,8.9,1.4,11.8,4.2
		c2.9,2.8,4.3,6.2,4.4,10.3h-8.4c-0.2-1.9-0.9-3.5-2.2-4.7c-1.3-1.2-3.1-1.9-5.5-1.9c-1.9,0-3.4,0.5-4.5,1.4
		c-1.2,0.9-1.7,2.2-1.7,3.7c0,1.5,0.7,2.8,2,3.9c1.3,1,3.6,2.2,6.8,3.4c5,1.9,8.7,4,11.2,6.3C182.6,191.1,183.8,194.2,183.8,198z"/>
	<path class="st0" d="M223,163v8.4h-13.2v39.2h-9.1v-39.2h-13.1V163H223z"/>
	<path class="st0" d="M75.7,218h9.2v47.6h-9.2v-20H56.5v20h-9.2V218h9.2v19.3h19.2V218z"/>
	<path class="st0" d="M116.6,266.3c-6.9,0-12.7-2.3-17.3-7c-4.6-4.7-6.9-10.5-6.9-17.5c0-7,2.3-12.8,6.8-17.5c4.6-4.7,10.3-7,17.2-7
		c6.9,0,12.6,2.3,17.2,7c4.6,4.7,6.9,10.5,6.9,17.5c0,7-2.3,12.8-6.9,17.5C129.2,263.9,123.4,266.3,116.6,266.3z M116.6,257.4
		c4.1,0,7.5-1.5,10.3-4.5c2.7-3,4.1-6.7,4.1-11.1c0-4.4-1.4-8.1-4.1-11.1c-2.7-3-6.2-4.5-10.3-4.5c-4.1,0-7.6,1.5-10.3,4.5
		c-2.8,3-4.1,6.7-4.1,11.1c0,4.4,1.4,8.1,4.1,11.1C109,255.9,112.4,257.4,116.6,257.4z"/>
	<path class="st0" d="M186.9,218v27.9c0,6.8-1.8,11.8-5.4,15.3c-3.6,3.4-8.3,5.1-14,5.1c-5.8,0-10.5-1.7-14.1-5.1
		c-3.6-3.4-5.5-8.5-5.5-15.3V218h9.7v28.2c0,3.5,0.9,6.2,2.7,8.3c1.8,2,4.2,3,7.3,3c3,0,5.4-1,7.1-3c1.7-2,2.6-4.8,2.6-8.3V218
		H186.9z"/>
	<path class="st0" d="M114.9,307c0,4.3-1.5,7.6-4.6,9.9c-3,2.3-7,3.4-12,3.4c-5.5,0-9.8-1.5-13-4.5c-3.1-3-4.7-6.9-4.7-11.7h9.1
		c0,2.5,0.8,4.6,2.2,6.1c1.5,1.5,3.6,2.2,6.5,2.2c2,0,3.7-0.5,5-1.4c1.3-0.9,2-2.3,2-4s-0.7-3.2-2.1-4.4c-1.4-1.1-3.9-2.3-7.4-3.5
		c-4.4-1.5-7.8-3.4-10.2-5.5c-2.4-2.1-3.6-5-3.6-8.6c0-4.2,1.5-7.5,4.4-10c2.9-2.4,6.6-3.7,11.2-3.7c5,0,8.9,1.4,11.8,4.2
		c2.9,2.8,4.3,6.2,4.4,10.3h-8.4c-0.2-1.9-0.9-3.5-2.2-4.7c-1.3-1.2-3.1-1.9-5.5-1.9c-1.9,0-3.4,0.5-4.5,1.4
		c-1.2,0.9-1.7,2.2-1.7,3.7c0,1.5,0.7,2.8,2,3.9c1.3,1,3.6,2.2,6.8,3.4c5,1.9,8.7,4,11.2,6.3C113.7,300.1,114.9,303.2,114.9,307z"/>
	<path class="st0" d="M131.5,311.2h23.3v8.4h-32.2V272h31.5v8.4h-22.6v11.2H151v8h-19.4V311.2z"/>
</g>
</svg>
