<?xml version="1.0" encoding="utf-8"?>
<!-- Generator: Adobe Illustrator 24.0.0, SVG Export Plug-In . SVG Version: 6.00 Build 0)  -->
<svg version="1.1" id="Laag_1" xmlns="http://www.w3.org/2000/svg" xmlns:xlink="http://www.w3.org/1999/xlink" x="0px" y="0px"
	 width="115.6px" height="12.1px" viewBox="0 0 115.6 12.1" style="enable-background:new 0 0 115.6 12.1;" xml:space="preserve">
<style type="text/css">
	.st0{fill:#FFFFFF;}
</style>
<g>
	<path class="st0" d="M0,2.7h1.7v2.6h0.7l2-2.6H6v0.2L3.7,6.1l2.5,3.1v0.2H4.3l-2-2.6H1.7v2.6H0V2.7z"/>
	<path class="st0" d="M9.9,2.6c2,0,3.5,1.5,3.5,3.5c0,2-1.5,3.4-3.5,3.4C8,9.5,6.5,8,6.5,6.1C6.5,4.1,8,2.6,9.9,2.6z M9.9,7.9
		c1.1,0,1.8-0.8,1.8-1.9c0-1.1-0.7-1.9-1.8-1.9C8.9,4.2,8.1,5,8.1,6.1C8.1,7.1,8.9,7.9,9.9,7.9z"/>
	<path class="st0" d="M17.7,2.6c2,0,3.5,1.5,3.5,3.5c0,2-1.5,3.4-3.5,3.4c-2,0-3.5-1.5-3.5-3.4C14.3,4.1,15.8,2.6,17.7,2.6z
		 M17.7,7.9c1.1,0,1.8-0.8,1.8-1.9c0-1.1-0.7-1.9-1.8-1.9c-1.1,0-1.8,0.8-1.8,1.9C15.9,7.1,16.7,7.9,17.7,7.9z"/>
	<path class="st0" d="M22.5,2.7h3.3c1.3,0,2.5,0.8,2.5,2.5c0,1.5-1.1,2.4-2.5,2.4h-1.7v1.8h-1.7V2.7z M24.2,4.1v2h1.4
		c0.6,0,1-0.4,1-1c0-0.6-0.4-1-1-1H24.2z"/>
	<path class="st0" d="M34.5,4.2v5.2h-1.7V4.2h-2.1V2.7h5.7v1.4H34.5z"/>
	<path class="st0" d="M37.6,2.7h1.7v6.7h-1.7V2.7z"/>
	<path class="st0" d="M44.1,8C45,8,45.5,7.6,46,7.3l0.8,1.2c-0.7,0.6-1.6,1-2.7,1c-2,0-3.6-1.5-3.6-3.4c0-2,1.5-3.4,3.6-3.4
		c1.1,0,2,0.4,2.7,1L46,4.8c-0.4-0.3-1-0.7-1.9-0.7C43,4.1,42.2,5,42.2,6C42.2,7.1,43,8,44.1,8z"/>
	<path class="st0" d="M47.9,2.7h1.7v2.6h0.7l2-2.6h1.7v0.2l-2.3,3.1l2.5,3.1v0.2h-1.9l-2-2.6h-0.7v2.6h-1.7V2.7z"/>
	<path class="st0" d="M55.1,9.4V2.7h5.4v1.4h-3.8v1.2h3.1v1.4h-3.1V8h3.8v1.4H55.1z"/>
	<path class="st0" d="M65,4.2v5.2h-1.7V4.2h-2.1V2.7H67v1.4H65z"/>
	<path class="st0" d="M68.1,7.4c0.5,0.3,1.3,0.7,2.1,0.7c0.7,0,1.1-0.2,1.1-0.6c0-0.3-0.2-0.5-0.8-0.6l-1.1-0.3
		c-1.2-0.3-1.7-0.9-1.7-1.9c0-1.1,0.9-2.1,2.7-2.1c1,0,1.9,0.3,2.4,0.5l-0.5,1.4c-0.5-0.3-1.3-0.5-2-0.5c-0.7,0-0.9,0.2-0.9,0.5
		c0,0.3,0.2,0.4,0.6,0.5l1.2,0.3c1.2,0.4,1.8,1,1.8,1.9c0,1.3-1.1,2.2-2.8,2.2c-1,0-2-0.3-2.5-0.6L68.1,7.4z"/>
	<path class="st0" d="M79.7,2.6c2,0,3.5,1.5,3.5,3.5c0,2-1.5,3.4-3.5,3.4c-2,0-3.5-1.5-3.5-3.4C76.3,4.1,77.8,2.6,79.7,2.6z
		 M79.7,7.9c1.1,0,1.8-0.8,1.8-1.9c0-1.1-0.7-1.9-1.8-1.9c-1.1,0-1.8,0.8-1.8,1.9C77.9,7.1,78.7,7.9,79.7,7.9z"/>
	<path class="st0" d="M86.2,5.3v4.1h-1.7V2.7h1.4l3.4,4.1V2.7H91v6.7h-1.4L86.2,5.3z"/>
	<path class="st0" d="M92.7,9.4V2.7h1.7V8h3.4v1.4H92.7z"/>
	<path class="st0" d="M98.7,2.7h1.7v6.7h-1.7V2.7z"/>
	<path class="st0" d="M103.7,5.3v4.1h-1.7V2.7h1.4l3.4,4.1V2.7h1.7v6.7h-1.4L103.7,5.3z"/>
	<path class="st0" d="M110.2,9.4V2.7h5.4v1.4h-3.8v1.2h3.1v1.4h-3.1V8h3.8v1.4H110.2z"/>
</g>
</svg>
