<?xml version="1.0" encoding="utf-8"?>
<!-- Generator: Adobe Illustrator 24.0.0, SVG Export Plug-In . SVG Version: 6.00 Build 0)  -->
<svg version="1.1" id="Laag_1" xmlns="http://www.w3.org/2000/svg" xmlns:xlink="http://www.w3.org/1999/xlink" x="0px" y="0px"
	 width="206.1px" height="115.9px" viewBox="0 0 206.1 115.9" style="enable-background:new 0 0 206.1 115.9;" xml:space="preserve"
	>
<style type="text/css">
	.st0{fill:#E30613;}
	.st1{fill:#FFFFFF;}
</style>
<polygon class="st0" points="184.5,38.6 184.5,0 0,0 0,38.6 0,77.2 0,115.9 164,115.9 164,77.2 206.1,77.2 206.1,38.6 "/>
<g>
	<path class="st1" d="M12.6,10.5h11.3v2.8h-8.1v4.6h7.6v2.8h-7.6v4.6h8.1v2.8H12.6V10.5z"/>
	<path class="st1" d="M27.9,10.5h11.3v2.8h-8.1v4.6h7.6v2.8h-7.6v4.6h8.1v2.8H27.9V10.5z"/>
	<path class="st1" d="M46.6,10.5L54.4,23V10.5h3.2v17.6h-3.2l-8-12.9v12.9h-3.2V10.5H46.6z"/>
	<path class="st1" d="M78.7,15.4c-0.3-1.5-1.4-2.3-3.2-2.3c-0.9,0-1.6,0.2-2.2,0.6c-0.5,0.4-0.8,0.8-0.8,1.3s0.2,0.9,0.5,1.2
		c0.3,0.3,0.9,0.6,1.6,0.8l3.8,1.5c1.3,0.5,2.3,1.1,3,1.9s1.1,1.7,1.1,2.9c0,1.6-0.6,2.8-1.8,3.8c-1.2,0.9-2.9,1.4-5.1,1.4
		c-1.9,0-3.5-0.5-4.7-1.4c-1.4-1-2.1-2.5-2.1-4.4H72c0,1.4,0.7,2.4,2.2,2.7c0.5,0.1,1,0.2,1.8,0.2s1.4-0.2,2.1-0.6
		c0.6-0.4,0.9-0.9,0.9-1.5s-0.2-1.1-0.5-1.4s-0.9-0.6-1.7-0.9l-3.5-1.4c-1.4-0.5-2.4-1.1-3.1-1.8c-0.8-0.8-1.2-1.8-1.2-3
		c0-1.5,0.6-2.6,1.7-3.5c1.2-0.9,2.7-1.3,4.7-1.3s3.5,0.5,4.6,1.4s1.7,2.2,1.9,3.8H78.7z"/>
	<path class="st1" d="M96.8,12c1.1,1,1.7,2.3,1.7,4.1s-0.6,3.2-1.7,4.1c-1.1,1-2.7,1.4-4.6,1.4h-3V28H86V10.5h6.2
		C94.2,10.5,95.7,11,96.8,12z M92.2,18.9c1,0,1.7-0.3,2.2-0.8s0.8-1.2,0.8-2s-0.3-1.5-0.8-2s-1.3-0.8-2.2-0.8h-3v5.6H92.2z"/>
	<path class="st1" d="M101.3,10.5h11.3v2.8h-8.1v4.6h7.6v2.8h-7.6v4.6h8.1v2.8h-11.3V10.5z"/>
	<path class="st1" d="M116.5,10.5h11.3v2.8h-8.1v4.6h7.6v2.8h-7.6v4.6h8.1v2.8h-11.3V10.5z"/>
	<path class="st1" d="M135,25.3h7.2v2.8h-10.4V10.5h3.2V25.3z"/>
	<path class="st1" d="M154.3,15.4c-0.3-1.5-1.4-2.3-3.2-2.3c-0.9,0-1.6,0.2-2.2,0.6c-0.5,0.4-0.8,0.8-0.8,1.3s0.2,0.9,0.5,1.2
		c0.3,0.3,0.9,0.6,1.6,0.8l3.8,1.5c1.3,0.5,2.3,1.1,3,1.9s1.1,1.7,1.1,2.9c0,1.6-0.6,2.8-1.8,3.8c-1.2,0.9-2.9,1.4-5.1,1.4
		c-1.9,0-3.5-0.5-4.7-1.4c-1.4-1-2.1-2.5-2.1-4.4h3.2c0,1.4,0.7,2.4,2.2,2.7c0.5,0.1,1,0.2,1.8,0.2s1.4-0.2,2.1-0.6
		c0.6-0.4,0.9-0.9,0.9-1.5s-0.2-1.1-0.5-1.4s-0.9-0.6-1.7-0.9l-3.5-1.4c-1.4-0.5-2.4-1.1-3.1-1.8c-0.7-0.7-1.1-1.7-1.1-2.9
		c0-1.5,0.6-2.6,1.7-3.5c1.2-0.9,2.7-1.3,4.7-1.3s3.5,0.5,4.6,1.4s1.7,2.2,1.9,3.8h-3.3V15.4z"/>
	<path class="st1" d="M161.6,10.5h11.3v2.8h-8.1v4.6h7.6v2.8h-7.6v4.6h8.1v2.8h-11.3V10.5z"/>
</g>
<g>
	<path class="st1" d="M17.2,49.7L22,60.2l4.8-10.4h4.4v17.6H28V53.9l-5,11.4h-2.1l-5.1-11.8v13.7h-3.2V49.7H17.2z"/>
	<path class="st1" d="M35.6,49.7h3.2v17.6h-3.2V49.7z"/>
	<path class="st1" d="M58.3,67.3h-4L49.7,61l-4.1,6.2h-3.9l6.2-8.7l-6.2-8.8h3.9L50,56l3.8-6.3h3.9l-5.9,8.8L58.3,67.3z"/>
	<path class="st1" d="M70.1,49.7l4.3,13.6l4.3-13.6H82l-6,17.6h-3.4l-6-17.6C66.6,49.7,70.1,49.7,70.1,49.7z"/>
	<path class="st1" d="M87.6,49.7h4l5.8,17.6H94l-1.2-3.8h-6.5L85,67.3h-3.4L87.6,49.7z M87,61.1h5l-2.4-7.5L87,61.1z"/>
	<path class="st1" d="M103.5,49.7l7.7,12.4V49.7h3.2v17.6h-3.2l-8-12.9v12.9H100V49.7H103.5z"/>
	<path class="st1" d="M132,49.7c2.7,0,4.8,0.8,6.5,2.4c1.7,1.6,2.5,3.7,2.5,6.4s-0.8,4.8-2.5,6.4c-1.6,1.6-3.8,2.4-6.5,2.4h-5.7
		V49.7H132z M129.5,64.4h2.5c1.7,0,3-0.6,4-1.7c1-1.1,1.5-2.5,1.5-4.2c0-1.8-0.5-3.2-1.5-4.2c-1-1.1-2.4-1.7-4-1.7h-2.5V64.4z"/>
	<path class="st1" d="M148,49.7h4l5.8,17.6h-3.4l-1.2-3.8h-6.5l-1.2,3.8H142L148,49.7z M147.4,61.1h4.9l-2.4-7.5L147.4,61.1z"/>
	<path class="st1" d="M163.9,49.7l7.7,12.4V49.7h3.2v17.6h-3.2l-8-12.9v12.9h-3.2V49.7H163.9z"/>
	<path class="st1" d="M188.4,54.5c-0.3-1.5-1.4-2.3-3.2-2.3c-0.9,0-1.6,0.2-2.2,0.6c-0.5,0.4-0.8,0.8-0.8,1.3s0.2,0.9,0.5,1.2
		s0.9,0.6,1.6,0.8l3.8,1.5c1.3,0.5,2.3,1.1,3,1.9c0.7,0.8,1.1,1.7,1.1,2.9c0,1.6-0.6,2.8-1.8,3.8c-1.2,0.9-2.9,1.4-5.1,1.4
		c-1.9,0-3.5-0.5-4.7-1.4c-1.4-1-2.1-2.5-2.1-4.4h3.2c0,1.4,0.7,2.4,2.2,2.7c0.5,0.1,1,0.2,1.8,0.2s1.4-0.2,2.1-0.6
		c0.6-0.4,0.9-0.9,0.9-1.5s-0.2-1.1-0.5-1.4c-0.3-0.3-0.9-0.6-1.7-0.9l-3.5-1.4c-1.4-0.5-2.4-1.1-3.1-1.8c-0.7-0.7-1.1-1.7-1.1-2.9
		c0-1.5,0.6-2.6,1.7-3.5c1.2-0.9,2.7-1.3,4.7-1.3s3.5,0.5,4.6,1.4s1.7,2.2,1.9,3.8L188.4,54.5L188.4,54.5z"/>
</g>
<g>
	<path class="st1" d="M30.8,96.1c-0.8,2.3-1.8,4.1-3,5.6l0.5,0.4c0.3,0.3,0.6,0.5,0.9,0.6s0.6,0.2,1.1,0.2s0.8-0.2,1.1-0.5
		c0.3-0.3,0.5-0.8,0.5-1.5h2.9c0,1.5-0.4,2.7-1.1,3.5s-1.7,1.3-3.1,1.3c-0.9,0-1.7-0.2-2.4-0.5c-0.7-0.3-1.5-0.9-2.3-1.6
		c-1.8,1.4-3.8,2.1-6,2.1c-2,0-3.7-0.5-5.1-1.5s-2.1-2.3-2.1-3.8c0-2.3,1.7-3.8,5-4.3l-0.4-0.4c-1.3-1.2-1.9-2.5-1.9-3.9
		c0-1.2,0.5-2.3,1.5-3c1.1-0.8,2.6-1.2,4.4-1.2c1.7,0,3.2,0.4,4.3,1.2c1,0.8,1.5,1.8,1.5,2.9s-0.4,2.2-1.1,3s-1.9,1.5-3.4,2.1
		l3.4,3.1c1.1-1.3,2-3,2.8-5L30.8,96.1z M19.3,97.8c-2.2,0.3-3.2,1.1-3.2,2.5c0,0.8,0.3,1.4,1,1.9s1.6,0.8,2.8,0.8
		c1.4,0,2.7-0.4,3.9-1.2L19.3,97.8z M22.7,93.9c0.4-0.5,0.7-1,0.7-1.6s-0.2-1.1-0.6-1.4s-1-0.5-1.7-0.5s-1.3,0.2-1.7,0.6
		c-0.4,0.4-0.6,0.9-0.6,1.4c0,0.8,0.4,1.6,1.3,2.3l0.6,0.6C21.5,94.8,22.2,94.3,22.7,93.9z"/>
	<path class="st1" d="M43.2,87.9h14.1v2.8h-5.4v14.8h-3.2V90.6h-5.4L43.2,87.9L43.2,87.9z"/>
	<path class="st1" d="M62.9,87.9v7.3h7.7v-7.3h3.2v17.6h-3.2V98h-7.7v7.4h-3.2V87.9H62.9z"/>
	<path class="st1" d="M78.2,87.9h11.3v2.8h-8.1v4.6H89V98h-7.6v4.6h8.1v2.8H78.2V87.9z"/>
	<path class="st1" d="M98,87.9h4l5.8,17.6h-3.4l-1.2-3.8h-6.5l-1.2,3.8H92L98,87.9z M97.5,99.2h4.9l-2.4-7.5L97.5,99.2z"/>
	<path class="st1" d="M106.9,87.9H121v2.8h-5.4v14.8h-3.2V90.6H107L106.9,87.9L106.9,87.9z"/>
	<path class="st1" d="M123.4,87.9h11.3v2.8h-8.1v4.6h7.6V98h-7.6v4.6h8.1v2.8h-11.3C123.4,105.4,123.4,87.9,123.4,87.9z"/>
	<path class="st1" d="M151.8,93.3c0,1.2-0.4,2.3-1.1,3.2c-0.7,0.9-1.7,1.5-3,1.8l4.7,7.1h-4.2l-3.9-6.8h-2.4v6.8h-3.2V87.9h6.5
		c2.1,0,3.7,0.5,4.8,1.5C151.2,90.3,151.8,91.6,151.8,93.3z M144.9,96.5c1.2,0,2.1-0.3,2.7-0.8c0.6-0.5,0.9-1.2,0.9-2.1
		s-0.3-1.6-0.8-2.1s-1.4-0.8-2.4-0.8H142v5.8H144.9z"/>
</g>
</svg>
