<?xml version="1.0" encoding="utf-8"?>
<!-- Generator: Adobe Illustrator 24.0.0, SVG Export Plug-In . SVG Version: 6.00 Build 0)  -->
<svg version="1.1" id="Laag_1" xmlns="http://www.w3.org/2000/svg" xmlns:xlink="http://www.w3.org/1999/xlink" x="0px" y="0px"
	 width="66.9px" height="33.7px" viewBox="0 0 66.9 33.7" style="enable-background:new 0 0 66.9 33.7;" xml:space="preserve">
<style type="text/css">
	.st0{fill:#78A936;}
</style>
<path class="st0" d="M54.2,32.8l0,0.5h-9.5V21.8h9.5v6.8h-3.5c-1.2,0-1.7,0.2-1.7,0.2s0-0.3,0-1.2c0-0.8,0-1.1,0-1.1
	s0.4,0.2,1.7,0.2h0.6v-3h-3.3v7.6h3c2.5,0,2.8-0.6,3.5-1.4C54.4,30,54.3,31.3,54.2,32.8z"/>
<path class="st0" d="M66.9,33.2c-0.3-0.2-0.6-0.4-0.8-0.8c-0.6-0.8-0.9-2.1-1.8-3.6c-1-1.8-2.4-2.1-2.4-2.1c2.8-1.7,3.1-3.6,4-4.6
	c0.3-0.4,0.6-0.6,0.9-0.8c0,0-1.1,0-2.5,0c-1,0-2.1,0-2.1,0c0.2,0.1,0.5,0.4,0.5,1c0,2.3-3.4,4.7-3.6,4.8c0.1,0.1,1.4,0.7,2.5,2.2
	c1.1,1.6,1.2,3.7,1.2,3.7h2C65.8,33.2,66.9,33.2,66.9,33.2 M59.2,32.9c-0.4-0.8-0.5-1.4-0.5-5.3v-6.3c0-2.1,0.1-4.4,0.1-4.4
	l-3.7,0.5l0.2,0.4c0.4,0.7,0.5,1.3,0.5,5v4.8c0,4.2-0.2,4.6-0.5,5.3l-0.2,0.4c0,0,0.6,0,2.2,0c1.5,0,2.2,0,2.2,0L59.2,32.9z
	 M43.8,32.7c-0.8-0.5-1-1.1-1-3.6V27c0-4.4,0.2-5.7,0.2-5.7l-3.8,0.5l0.2,0.4c0.3,0.6,0.5,1.2,0.5,4.8c0,1.4-0.1,3.3-0.1,4.5
	c0,1,0.1,2,1.9,2C43.4,33.3,43.8,32.7,43.8,32.7"/>
<g>
	<g>
		<path class="st0" d="M37.9,24.9c0,0,0-0.5,0-1.7c0-1.1,0-1.6,0-1.6s-0.7-0.4-1.8-0.4c-1.7,0-2.6,0.7-2.9,0.8l-2.7-0.8
			c0,0,0.2,1.2,0.2,5.6v0.8c0,4.5-0.2,4.7-0.5,5.3L30,33.3c0,0,0.6,0,2.2,0c1.5,0,2.2,0,2.2,0l-0.2-0.4c-0.3-0.6-0.6-0.7-0.6-5.2
			v-4.1c0,0,0.7-0.5,1.6-0.5C36.5,23.1,37.2,23.8,37.9,24.9 M29.2,27.1c0-5.6-3.1-5.9-4.2-5.9c-1,0-2.9,0.2-2.9,2.2
			c0,0,0.4-0.7,1.6-0.7c1.8,0,2.4,1.6,2.4,4.4c0,3.3-0.9,4.6-3,4.6c-1.3,0-1.8-0.5-1.8-0.5V21.2c0-2,0.1-4.2,0.1-4.2l-3.7,0.5
			l0.2,0.4c0.3,0.6,0.5,1.2,0.5,4.8v5.2c0,4.4-0.2,5.7-0.2,5.7l2.7-1.2c0,0,0.9,1.1,3.1,1.1C26.7,33.5,29.2,32.1,29.2,27.1"/>
	</g>
</g>
<g>
	<g>
		<path class="st0" d="M16.8,32.9c-0.4-0.7-0.5-1.4-0.5-2.9c0-2,0-2.9,0-3.8c0-1.3,0-2.5-0.7-3.3c-0.5-0.6-1.5-1.3-3.9-1.3
			c-2.7,0-3.9,0.6-3.9,0.6s0.1,0.5,0.1,1.3c0,0.8,0,1.3,0,1.3c0.9-1.3,2.4-1.4,3.2-1.4c1.2,0,1.8,0.3,2.1,0.7
			c0.4,0.5,0.4,1.2,0.4,1.9v0.7c0,0-0.8-0.1-2-0.1c-1.8,0-4.9,0.2-4.9,3.8c0,1.5,0.7,3.5,3.6,3.5c1.3,0,2.9-0.3,3.4-2.5l-0.1,2.5
			l3.5-0.5L16.8,32.9z M13.4,31.1c0,0-0.4,1-2,1c-1.1,0-1.9-0.6-1.9-2c0-2,1.7-2,2.6-2c1,0,1.3,0.1,1.3,0.1V31.1z M5,33.6l-0.2-0.4
			c-0.5-0.8-0.5-1.3-0.5-5.3v-4h0.7c1.5,0,2,0.2,2,0.2s0-0.3,0-1.1s0-1.1,0-1.1s-0.5,0.2-2,0.2H4.2v-3.1H5c1.6,0,2,0.4,2,0.4
			s0-0.4,0-1.1c0-0.7,0-1.1,0-1.1H1.3v3.7c0,1.4-0.4,1.9-1.3,2.7h1.3V28c0,4.2-0.1,4.5-0.5,5.3l-0.2,0.4c0,0,0.7,0,2.2,0
			C4.3,33.6,5,33.6,5,33.6"/>
	</g>
</g>
</svg>
