<?xml version="1.0" encoding="utf-8"?>
<!-- Generator: Adobe Illustrator 24.3.0, SVG Export Plug-In . SVG Version: 6.00 Build 0)  -->
<svg version="1.1" id="Laag_1" xmlns="http://www.w3.org/2000/svg" xmlns:xlink="http://www.w3.org/1999/xlink" x="0px" y="0px"
	 width="126.9px" height="113.8px" viewBox="0 0 126.9 113.8" style="enable-background:new 0 0 126.9 113.8;" xml:space="preserve"
	>
<style type="text/css">
	.st0{fill:#96628A;}
</style>
<path class="st0" d="M37.4,70.1C24.3,68.4,11,67-0.7,65.8L0,54.3c13.3-5.3,26.3-9.7,39.6-13.6c0-1.7,0.2-3.4,0.3-5.3l-23.8,0.2
	l-1,7.6L3.2,43.4l2.4-18.2l24.8-25c21.8-0.5,40.1-0.2,61.9,1l28,23.1l1.9,17.8h-11.6l-1.2-7.1l-22.9,0.2c0,2.4,0.2,4.6,0.3,7
	c14.4,2.5,26.7,7.5,37.9,12.1l0.5,11.7l-36.5,4.6c1,13.8,2.2,27.7,3.6,39.8l-13.8,3.2c-5.3-6.8-10.7-13.4-16.1-19.9
	c-7,6.6-13.9,13.3-20.7,20.1l-8-4.1C34.7,96.4,35.9,83.4,37.4,70.1z M16.7,57.9l21.6,0.8l0.5-6.8c-7.5,1-15.1,2.7-22.6,4.8
	L16.7,57.9z M20.4,26.1l20.1,0.2c0.3-5.6,0.7-11.2,0.8-16.8h-6.1L20.1,25.2L20.4,26.1z M48.4,94.9l9.2-7.5c-3.1-3.4-6.1-6.8-9.3-10
	l-0.3,0.2l-0.3,17.2L48.4,94.9z M76.5,60.9l0.8-0.8c-0.2-8-0.3-16.3-0.8-24.8c-8.8,0.5-16.1,0.7-25,0.2l-0.8,1
	c-0.7,8-0.7,15.5-0.5,22.8C59.3,60.6,67.3,61.1,76.5,60.9z M73.9,26.7l2.2-1.9c-0.3-3.7-0.7-9.3-1.2-14.8
	c-7.5-0.2-13.8-0.5-21.2-0.5c-1.2,5.6-2,11.2-2.2,16.8C59.5,27.1,66,26.9,73.9,26.7z M62.9,80.8c3.7-3.2,7.3-6.5,11-9.9
	c-6.8-1-13.8-1.4-20.6-0.5C56.4,74,59.7,77.6,62.9,80.8z M79.4,96.6l-0.8-17L78,79.3c-2.7,2.7-5.6,5.3-8.8,8.2
	C72.6,90.7,76,93.7,79.4,96.6z M86,26.1l18.4-1.2L86.9,10.8c-0.5,0-1,0-1.5-0.2C85.5,15.9,85.8,21,86,26.1z M88.1,60.2h22.1l0.3-2.7
	l-22.9-4.6L88.1,60.2z"/>
</svg>
