<?xml version="1.0" encoding="utf-8"?>
<!-- Generator: Adobe Illustrator 24.3.0, SVG Export Plug-In . SVG Version: 6.00 Build 0)  -->
<svg version="1.1" id="Laag_1" xmlns="http://www.w3.org/2000/svg" xmlns:xlink="http://www.w3.org/1999/xlink" x="0px" y="0px"
	 width="433.2px" height="39px" viewBox="0 0 433.2 39" style="enable-background:new 0 0 433.2 39;" xml:space="preserve">
<style type="text/css">
	.st0{fill:#9EA0AF;}
</style>
<g>
	<path class="st0" d="M120.6,14.5l1.8-10.7l25.1-2.3l1.4,1.1l-0.8,8.7l-1,0.2c-2.5-2.5-5.9-3.3-8.5-3.4l0.2,25.4l-8.8,2.6l-0.4-0.3
		l1.2-4.9l1.6-22.5c-4.4,0.2-8.4,2.9-11,6.3L120.6,14.5z"/>
	<path class="st0" d="M149.4,23.5L156.7,7l12.8-0.9l7,10.6V18l-6.2,14.8l-13.1,1.8L149.4,23.5z M161.1,28.3l2.9,0.5l6-11.4
		c-1.9-2.5-4.2-4.3-6.9-5.4c-2.6,2.6-5,5.8-7.2,9.5L161.1,28.3z"/>
	<path class="st0" d="M198.9,33l1-14.4l-2.2-2.7l-3.8,3.5l-1.2-1.5v-0.5l4.7-3.6l3.7-4.5l5.3-1l1.3,1.1L207,31.7l-7.2,2L198.9,33z"
		/>
	<path class="st0" d="M217.2,37l11.4-21.3l-0.5-1.5c-6.2-0.4-10.8,2.5-14.3,7.5l-1.1-0.2l1.6-10.2l1.4-1.3l20.2-1.5l0.6,1.3
		c-5.1,7.2-8.3,14.9-6.3,22.4l-0.1,0.8c-2.8,0.8-8.3,1.8-11.4,4.5L217.2,37z"/>
	<path class="st0" d="M253.2,20.7l9.9-16.5l15.4-1.6l7.4,15.6l-8.7,15.3L262,34.7L253.2,20.7z M267.3,29.3l3.7,0.6l7.4-11.5
		l-5.5-9.3l-2.6-0.6l-9.2,12.2L267.3,29.3z"/>
	<path class="st0" d="M287.7,21.7l5.5-13.5L309.1,7l0.6,1l-2.7,8.1l-1.2,0.1c-2-1.3-4.3-2.3-7.6-2.7l-2.8,7.6
		c1.1,2.9,2.4,5.4,4.1,7.4h0.8c4.7-2.4,7.3-5.8,9.5-9.2l1.2,0.3l-1.8,11.6l-15.6,2.9L287.7,21.7z"/>
	<path class="st0" d="M316,5.3l7.4-3.1l0.9,0.7c-0.6,2.4-1.1,5.4-1.4,8.7l0.3,0.1l8.1-4.1l0.4,0.4l-3.1,11.2l-0.8,0.1l-4.9-2.1h-0.3
		c-0.1,5.2,0.2,10.5,1.2,14.3l-0.4,1.6l-8.4,0.6L316,5.3z"/>
	<path class="st0" d="M332,23.5L339.2,7L352,6.1l7,10.6V18l-6.2,14.8l-13.1,1.8L332,23.5z M343.7,28.3l2.9,0.5l6-11.4
		c-1.9-2.5-4.2-4.3-6.9-5.4c-2.6,2.6-5,5.8-7.2,9.5L343.7,28.3z"/>
	<path class="st0" d="M362,3.2l8.7-1.6l0.4,0.3L369.3,9l1.1,1l5-3.8h0.7l7.8,10.4l-5.3,15.3l-17,2.5l-0.7-0.5
		C363,23.4,363.2,13,362,3.2z M369.4,27.4l1.6,0.2l5.8-4.6c0.6-2.7,0.9-5.4,0.9-8.1c-2.8-1.9-5.9-1.7-9-0.8L369.4,27.4z"/>
	<path class="st0" d="M385.9,19.5l7.7-13l11.3-0.9l6.1,12.8l-0.7,1.8L394,21l-0.2,0.8l5.3,6.6l10.4-5.2L410,24l-3.2,8.4l-14.1,1.8
		L385.9,19.5z M393.4,16.8l11.1-0.8l0.1-0.5l-4.8-5.6h-0.5l-6,6.7L393.4,16.8z"/>
	<path class="st0" d="M414.8,8.6l7.5-2.3l1.1,0.9l-0.2,4.8l0.4-0.1l4.5-5.5l0.9-0.1l4.2,5.5c-0.9,3.1-2.2,6-4,8.7l-1.2-0.1
		c0.1-2.7-0.7-4.7-3.8-5.1l-1.7,0.7c-0.5,4.7-0.1,10.4,0.7,16.6l-8.5,1.4l-0.8-0.9C415.5,23.5,416.5,14.7,414.8,8.6z"/>
</g>
</svg>
