<?xml version="1.0" encoding="utf-8"?>
<!-- Generator: Adobe Illustrator 24.0.0, SVG Export Plug-In . SVG Version: 6.00 Build 0)  -->
<svg version="1.1" id="Laag_1" xmlns="http://www.w3.org/2000/svg" xmlns:xlink="http://www.w3.org/1999/xlink" x="0px" y="0px"
	 width="152.4px" height="71.8px" viewBox="0 0 152.4 71.8" style="enable-background:new 0 0 152.4 71.8;" xml:space="preserve">
<g>
	<path d="M5.6,18.3c-0.8,0-1.6-0.2-2.2-0.5c-0.7-0.3-1.3-0.8-1.8-1.3c-0.5-0.6-0.9-1.3-1.2-2.1S0,12.5,0,11.5s0.1-1.9,0.4-2.8
		c0.3-0.8,0.7-1.5,1.1-2.1s1.1-1.1,1.8-1.4C4,4.9,4.8,4.7,5.6,4.7c0.9,0,1.6,0.2,2.2,0.5s1,0.8,1.4,1.3h0.1V0h4.1v17.9h-4v-1.7l0,0
		c-0.4,0.7-0.9,1.2-1.5,1.6S6.4,18.3,5.6,18.3z M6.6,15c0.9,0,1.5-0.3,2-1s0.7-1.5,0.7-2.6c0-0.5-0.1-1-0.2-1.5
		c0-0.4-0.2-0.8-0.4-1.1S8.2,8.2,7.9,8C7.5,7.9,7.1,7.8,6.7,7.8c-0.8,0-1.5,0.3-1.9,1c-0.5,0.7-0.7,1.6-0.7,2.6c0,1.1,0.2,2,0.7,2.7
		C5.2,14.7,5.8,15,6.6,15z"/>
	<path d="M21.5,18.2c-1.1,0-2-0.2-2.9-0.5s-1.6-0.8-2.1-1.4c-0.6-0.6-1-1.3-1.4-2.2c-0.3-0.8-0.5-1.7-0.5-2.7s0.2-1.8,0.5-2.7
		c0.3-0.8,0.8-1.5,1.4-2.1c0.6-0.6,1.3-1.1,2.1-1.4c0.8-0.3,1.7-0.5,2.7-0.5c0.9,0,1.7,0.1,2.5,0.4s1.4,0.7,1.9,1.2
		C26.4,7,27,7.9,27.4,9s0.6,2.3,0.5,3.6h-9.2c0.1,0.9,0.4,1.5,0.9,2s1.1,0.8,2,0.8c0.5,0,1-0.1,1.3-0.3c0.4-0.2,0.6-0.5,0.8-0.9h4
		c-0.1,0.6-0.4,1.1-0.8,1.7c-0.4,0.5-0.8,1-1.4,1.4c-0.5,0.4-1.1,0.7-1.8,0.9C23.1,18.2,22.3,18.2,21.5,18.2z M23.8,10.1
		c-0.1-0.8-0.3-1.4-0.8-1.8c-0.4-0.5-1-0.7-1.7-0.7c-0.8,0-1.4,0.2-1.8,0.7c-0.4,0.4-0.7,1.1-0.8,1.8H23.8z"/>
	<path d="M32.1,0h4.6l2.8,9.4c0.1,0.3,0.2,0.7,0.3,1c0.1,0.4,0.2,0.7,0.3,1c0.1,0.4,0.2,0.7,0.3,1.1h0.1c0.1-0.4,0.2-0.7,0.3-1.1
		c0.1-0.3,0.2-0.7,0.3-1c0.1-0.4,0.2-0.7,0.3-1L44,0h4.5l-5.9,17.9H38L32.1,0z"/>
	<path d="M53.8,18.3c-1,0-2-0.2-2.8-0.5s-1.6-0.8-2.2-1.4s-1.1-1.3-1.4-2.2c-0.3-0.8-0.5-1.7-0.5-2.7s0.2-1.9,0.5-2.7
		s0.8-1.5,1.4-2.2C49.4,6,50.1,5.5,51,5.2c0.8-0.3,1.8-0.5,2.8-0.5s2,0.2,2.8,0.5s1.6,0.8,2.1,1.4c0.6,0.6,1.1,1.3,1.4,2.2
		c0.3,0.8,0.5,1.7,0.5,2.7s-0.2,1.9-0.5,2.7s-0.8,1.5-1.4,2.2c-0.6,0.6-1.3,1.1-2.1,1.4C55.8,18.1,54.9,18.3,53.8,18.3z M53.8,15.4
		c0.9,0,1.6-0.4,2-1.1c0.5-0.7,0.7-1.6,0.7-2.8s-0.2-2.1-0.7-2.8c-0.5-0.7-1.1-1.1-2-1.1s-1.6,0.4-2,1.1c-0.5,0.7-0.7,1.7-0.7,2.8
		c0,1.2,0.2,2.1,0.7,2.8C52.2,15,52.9,15.4,53.8,15.4z"/>
	<path d="M62.1,0h4.1v17.9h-4.1V0z"/>
	<path d="M68.2,0h4v9.4L76,5.1h4.7l-4.5,4.8l5,8h-4.7l-3.1-5.2L72.2,14v3.9h-4V0z"/>
	<path d="M87.1,18.3c-1.9,0-3.4-0.4-4.5-1.2c-1.1-0.8-1.7-1.9-1.8-3.3h3.8c0.1,0.6,0.3,1.1,0.7,1.4s0.9,0.5,1.6,0.5
		c0.6,0,1.1-0.1,1.5-0.3s0.5-0.5,0.5-1c0-0.3-0.1-0.5-0.3-0.7c-0.2-0.2-0.4-0.3-0.7-0.4c-0.3-0.1-0.6-0.2-1-0.2
		c-0.4-0.1-0.8-0.1-1.2-0.2c-0.5-0.1-1.1-0.2-1.6-0.4c-0.5-0.1-1-0.4-1.5-0.6c-0.4-0.3-0.8-0.7-1.1-1.1c-0.3-0.5-0.4-1.1-0.4-1.8
		s0.1-1.3,0.4-1.8s0.7-0.9,1.2-1.3C83.4,5.4,84,5.1,84.6,5c0.7-0.2,1.4-0.3,2.1-0.3c1.8,0,3.2,0.4,4.2,1.1s1.5,1.7,1.6,3h-3.8
		c-0.1-0.6-0.3-1-0.7-1.2c-0.4-0.2-0.8-0.3-1.4-0.3c-0.5,0-0.9,0.1-1.3,0.3C85.1,7.8,85,8.1,85,8.5c0,0.2,0,0.4,0.2,0.5
		s0.4,0.2,0.7,0.3c0.3,0.1,0.6,0.2,1,0.2c0.4,0.1,0.8,0.1,1.2,0.2c0.6,0.1,1.1,0.2,1.7,0.4c0.6,0.1,1.1,0.4,1.6,0.7s0.9,0.7,1.2,1.2
		c0.3,0.5,0.5,1.2,0.5,2c0,0.7-0.1,1.3-0.4,1.8s-0.7,1-1.2,1.3s-1.1,0.6-1.9,0.8C88.7,18.2,87.9,18.3,87.1,18.3z"/>
	<path d="M94.3,0h4v9.4l3.8-4.3h4.7l-4.5,4.8l5,8h-4.7l-3.1-5.2L98.3,14v3.9h-4V0z"/>
	<path d="M108.3,5.1h3.9v2h0.1c0.4-0.8,0.9-1.3,1.5-1.7c0.5-0.4,1.2-0.5,2-0.5c0.4,0,0.6,0,0.8,0.1v3.5h-0.1c-1.2-0.2-2.2,0-3,0.6
		c-0.7,0.6-1.1,1.6-1.1,3v5.8h-4.1C108.3,17.9,108.3,5.1,108.3,5.1z"/>
	<path d="M121.3,18.2c-0.6,0-1.2-0.1-1.8-0.2c-0.5-0.2-1-0.4-1.4-0.8c-0.4-0.3-0.7-0.7-0.9-1.2c-0.2-0.5-0.3-1-0.3-1.7
		s0.1-1.3,0.4-1.8s0.6-0.9,1.1-1.2c0.4-0.3,1-0.5,1.6-0.7s1.2-0.3,1.9-0.4c1.2-0.2,2-0.3,2.5-0.5s0.7-0.5,0.7-0.9s-0.1-0.8-0.4-1
		s-0.7-0.4-1.3-0.4c-0.6,0-1.1,0.1-1.5,0.4s-0.5,0.7-0.6,1.2h-3.8c0-0.6,0.1-1.2,0.4-1.7c0.2-0.5,0.6-1,1.1-1.4s1.1-0.7,1.8-1
		c0.7-0.2,1.6-0.4,2.5-0.4c1,0,1.8,0.1,2.5,0.3c0.7,0.2,1.2,0.4,1.7,0.8c0.6,0.4,1,0.9,1.2,1.5c0.3,0.6,0.4,1.3,0.4,2.1v6.5
		c0,0.5,0,0.9,0.1,1.2c0.1,0.3,0.2,0.5,0.4,0.6v0.2h-4c-0.1-0.1-0.2-0.3-0.2-0.6c-0.1-0.2-0.1-0.5-0.2-0.9h-0.1
		c-0.4,0.5-0.9,1-1.5,1.3C123,18,122.2,18.2,121.3,18.2z M122.6,15.6c0.8,0,1.4-0.2,1.9-0.6c0.5-0.4,0.7-1,0.7-1.7v-1.5
		c-0.3,0.1-0.6,0.3-0.9,0.4s-0.7,0.2-1.2,0.3c-0.8,0.2-1.4,0.4-1.7,0.6c-0.4,0.2-0.5,0.6-0.5,1.1s0.2,0.9,0.5,1.1
		S122.1,15.6,122.6,15.6z"/>
	<path d="M131,5.1h3.9v1.8h0.1c0.5-0.7,1-1.2,1.7-1.6s1.4-0.5,2.3-0.5c0.7,0,1.3,0.1,1.9,0.4c0.6,0.2,1,0.6,1.4,1s0.7,0.9,0.9,1.5
		s0.3,1.2,0.3,2V18h-4.1v-7.5c0-0.7-0.2-1.2-0.5-1.7c-0.3-0.4-0.8-0.6-1.5-0.6s-1.2,0.2-1.6,0.8c-0.4,0.5-0.6,1.2-0.6,2v7.1H131V5.1
		z"/>
	<path d="M150.1,18c-0.6,0-1.1-0.1-1.6-0.2s-0.9-0.3-1.3-0.6c-0.4-0.3-0.6-0.6-0.8-1.1s-0.3-1-0.3-1.7V7.6h-1.7V5.1h1.7V1h4v4h2.3
		v2.5H150v6c0,0.5,0.1,0.8,0.4,1c0.3,0.2,0.6,0.2,1,0.2c0.2,0,0.4,0,0.5,0c0.2,0,0.3,0,0.4,0v3c-0.2,0-0.5,0.1-0.8,0.1
		C151.1,18,150.7,18,150.1,18z"/>
</g>
<path d="M0,24h8.6c0.9,0,1.7,0.1,2.4,0.3c0.7,0.2,1.3,0.5,1.8,0.9c1,0.9,1.6,2,1.6,3.4c0,0.9-0.2,1.6-0.7,2.2s-1,1-1.8,1.3v0.1
	c1,0.3,1.8,0.8,2.3,1.6c0.6,0.8,0.9,1.7,0.9,2.8c0,0.9-0.2,1.7-0.5,2.3s-0.8,1.2-1.3,1.7c-1.1,0.8-2.6,1.3-4.4,1.3H0V24z M8,31.1
	c0.6,0,1.1-0.2,1.5-0.5s0.6-0.8,0.6-1.3c0-0.6-0.2-1-0.6-1.3S8.6,27.5,8,27.5H4.4v3.6C4.4,31.1,8,31.1,8,31.1z M8.3,38.3
	c0.7,0,1.3-0.2,1.7-0.6s0.6-0.9,0.6-1.5c0-0.7-0.2-1.3-0.7-1.6c-0.5-0.4-1-0.5-1.7-0.5H4.4v4.2C4.4,38.3,8.3,38.3,8.3,38.3z"/>
<path d="M23,42.3c-1.1,0-2-0.2-2.9-0.5S18.5,41,18,40.4c-0.6-0.6-1-1.3-1.4-2.2c-0.3-0.8-0.5-1.7-0.5-2.7c0-0.9,0.2-1.8,0.5-2.7
	c0.3-0.8,0.8-1.5,1.4-2.2c0.6-0.6,1.3-1.1,2.1-1.4c0.8-0.3,1.7-0.5,2.7-0.5c0.9,0,1.7,0.1,2.5,0.4s1.4,0.7,1.9,1.2
	c0.8,0.7,1.3,1.6,1.7,2.7c0.4,1.1,0.6,2.3,0.5,3.6h-9.2c0.1,0.9,0.4,1.5,0.9,2s1.1,0.8,2,0.8c0.5,0,1-0.1,1.3-0.3
	c0.4-0.2,0.6-0.5,0.8-0.9h4c-0.1,0.6-0.4,1.1-0.8,1.7c-0.4,0.5-0.8,1-1.4,1.4c-0.5,0.4-1.1,0.7-1.8,0.9C24.6,42.2,23.9,42.3,23,42.3
	z M25.3,34.1c-0.1-0.8-0.3-1.4-0.8-1.8c-0.4-0.5-1-0.7-1.7-0.7c-0.8,0-1.4,0.2-1.8,0.7c-0.4,0.4-0.7,1.1-0.8,1.8H25.3z"/>
<path d="M37,42.3c-1.1,0-2-0.2-2.9-0.5S32.5,41,32,40.4c-0.6-0.6-1-1.3-1.4-2.2c-0.3-0.8-0.5-1.7-0.5-2.7c0-0.9,0.2-1.8,0.5-2.7
	c0.3-0.8,0.8-1.5,1.4-2.2c0.6-0.6,1.3-1.1,2.1-1.4s1.7-0.5,2.7-0.5c0.9,0,1.7,0.1,2.5,0.4s1.4,0.7,1.9,1.2c0.8,0.7,1.3,1.6,1.7,2.7
	c0.4,1.1,0.6,2.3,0.5,3.6h-9.2c0.1,0.9,0.4,1.5,0.9,2s1.1,0.8,2,0.8c0.5,0,1-0.1,1.3-0.3c0.4-0.2,0.6-0.5,0.8-0.9h4
	c-0.1,0.6-0.4,1.1-0.8,1.7c-0.4,0.5-0.8,1-1.4,1.4c-0.5,0.4-1.1,0.7-1.8,0.9C38.6,42.2,37.9,42.3,37,42.3z M39.3,34.1
	c-0.1-0.8-0.3-1.4-0.8-1.8c-0.4-0.5-1-0.7-1.7-0.7c-0.8,0-1.4,0.2-1.8,0.7c-0.4,0.4-0.7,1.1-0.8,1.8H39.3z"/>
<path d="M44.8,24h4.1v17.9h-4.1V24z"/>
<path d="M55.9,42.3c-0.8,0-1.6-0.2-2.2-0.5c-0.7-0.3-1.3-0.8-1.8-1.3s-0.9-1.3-1.2-2.1s-0.4-1.8-0.4-2.9c0-1,0.1-1.9,0.4-2.8
	s0.7-1.5,1.1-2.1s1.1-1.1,1.8-1.4s1.4-0.5,2.3-0.5c0.9,0,1.6,0.2,2.2,0.5c0.6,0.3,1,0.8,1.4,1.3h0.1V24h4.1v17.9h-3.9v-1.7h-0.1
	c-0.4,0.7-0.9,1.2-1.5,1.6S56.8,42.3,55.9,42.3z M57,39c0.9,0,1.5-0.3,2-1s0.7-1.5,0.7-2.6c0-0.5-0.1-1-0.2-1.5
	c-0.1-0.5-0.3-0.8-0.5-1.2c-0.2-0.3-0.5-0.6-0.8-0.8s-0.7-0.3-1.2-0.3c-0.8,0-1.5,0.3-1.9,1c-0.5,0.7-0.7,1.6-0.7,2.6
	c0,1.1,0.2,2,0.7,2.7C55.6,38.7,56.2,39,57,39z"/>
<path d="M71.9,42.3c-1.1,0-2-0.2-2.9-0.5s-1.6-0.8-2.1-1.4c-0.6-0.6-1-1.3-1.4-2.2c-0.3-0.8-0.5-1.7-0.5-2.7c0-0.9,0.2-1.8,0.5-2.7
	c0.3-0.8,0.8-1.5,1.4-2.2c0.6-0.6,1.3-1.1,2.1-1.4c0.8-0.3,1.7-0.5,2.7-0.5c0.9,0,1.7,0.1,2.5,0.4s1.4,0.7,1.9,1.2
	c0.8,0.7,1.3,1.6,1.7,2.7c0.4,1.1,0.6,2.3,0.5,3.6h-9.2c0.1,0.9,0.4,1.5,0.9,2s1.1,0.8,2,0.8c0.5,0,1-0.1,1.3-0.3
	c0.4-0.2,0.6-0.5,0.8-0.9h4c-0.1,0.6-0.4,1.1-0.8,1.7c-0.4,0.5-0.8,1-1.4,1.4c-0.5,0.4-1.1,0.7-1.8,0.9
	C73.4,42.2,72.7,42.3,71.9,42.3z M74.1,34.1c-0.1-0.8-0.3-1.4-0.8-1.8c-0.4-0.5-1-0.7-1.7-0.7c-0.8,0-1.4,0.2-1.8,0.7
	c-0.4,0.4-0.7,1.1-0.8,1.8H74.1z"/>
<path d="M79.6,29.1h3.9v1.8h0.1c0.5-0.7,1-1.2,1.7-1.6c0.6-0.4,1.4-0.5,2.3-0.5c0.7,0,1.3,0.1,1.9,0.4c0.6,0.2,1,0.6,1.4,1
	s0.7,0.9,0.9,1.5c0.2,0.6,0.3,1.2,0.3,2V42H88v-7.5c0-0.7-0.2-1.2-0.5-1.7s-0.8-0.6-1.5-0.6s-1.2,0.2-1.6,0.8
	c-0.4,0.5-0.6,1.2-0.6,1.9V42h-4.1V29.1H79.6z"/>
<path d="M98.9,42.3c-0.8,0-1.6-0.2-2.2-0.5c-0.7-0.3-1.3-0.8-1.8-1.3s-0.9-1.3-1.2-2.1s-0.4-1.8-0.4-2.9c0-1,0.1-1.9,0.4-2.8
	s0.7-1.5,1.1-2.1s1.1-1.1,1.8-1.4c0.7-0.3,1.4-0.5,2.3-0.5s1.6,0.2,2.2,0.5s1,0.8,1.4,1.3h0.1V24h4.1v17.9h-3.9v-1.7h-0.1
	c-0.4,0.7-0.9,1.2-1.5,1.6S99.7,42.3,98.9,42.3z M99.9,39c0.9,0,1.5-0.3,2-1s0.7-1.5,0.7-2.6c0-0.5-0.1-1-0.2-1.5s-0.3-0.8-0.5-1.2
	c-0.2-0.3-0.5-0.6-0.8-0.8s-0.7-0.3-1.2-0.3c-0.8,0-1.5,0.3-1.9,1c-0.5,0.7-0.7,1.6-0.7,2.6c0,1.1,0.2,2,0.7,2.7
	C98.5,38.7,99.1,39,99.9,39z"/>
<path d="M114.8,42.3c-1.1,0-2-0.2-2.9-0.5s-1.6-0.8-2.1-1.4c-0.6-0.6-1-1.3-1.4-2.2c-0.3-0.8-0.5-1.7-0.5-2.7c0-0.9,0.2-1.8,0.5-2.7
	c0.3-0.8,0.8-1.5,1.4-2.2c0.6-0.6,1.3-1.1,2.1-1.4c0.8-0.3,1.7-0.5,2.7-0.5c0.9,0,1.7,0.1,2.5,0.4s1.4,0.7,1.9,1.2
	c0.8,0.7,1.3,1.6,1.7,2.7c0.4,1.1,0.6,2.3,0.5,3.6H112c0.1,0.9,0.4,1.5,0.9,2s1.1,0.8,2,0.8c0.5,0,1-0.1,1.3-0.3
	c0.4-0.2,0.6-0.5,0.8-0.9h4c-0.1,0.6-0.4,1.1-0.8,1.7c-0.4,0.5-0.8,1-1.4,1.4c-0.5,0.4-1.1,0.7-1.8,0.9
	C116.4,42.2,115.6,42.3,114.8,42.3z M117.1,34.1c-0.1-0.8-0.3-1.4-0.8-1.8c-0.4-0.5-1-0.7-1.7-0.7c-0.8,0-1.4,0.2-1.8,0.7
	c-0.4,0.4-0.7,1.1-0.8,1.8H117.1z"/>
<path d="M0.1,48.2h4.4v6.5l6.1-6.5h5.2L9,55.4l7.2,10.7H11l-5.1-7.7L4.4,60v6.2H0v-18H0.1z"/>
<path d="M20.9,66.5c-1.5,0-2.6-0.4-3.4-1.3c-0.8-0.9-1.1-2-1.1-3.5v-8.4h4v7.6c0,0.7,0.2,1.2,0.5,1.6s0.8,0.6,1.5,0.6
	s1.2-0.2,1.6-0.7c0.4-0.5,0.6-1.1,0.6-1.9v-7.2h4.1v12.8h-3.9v-1.6h-0.1c-0.5,0.6-1,1.1-1.6,1.5C22.6,66.3,21.8,66.5,20.9,66.5z"/>
<path d="M30.7,53.3h3.9v1.8h0.1c0.5-0.7,1-1.2,1.7-1.6c0.6-0.4,1.4-0.5,2.3-0.5c0.7,0,1.3,0.1,1.9,0.4c0.5,0.2,1,0.6,1.4,1
	c0.4,0.4,0.7,0.9,0.9,1.5c0.2,0.6,0.3,1.2,0.3,2v8.3h-4.1v-7.5c0-0.7-0.2-1.2-0.5-1.7c-0.3-0.4-0.8-0.6-1.5-0.6s-1.2,0.2-1.6,0.8
	c-0.4,0.5-0.6,1.2-0.6,1.9v7.1h-4.1L30.7,53.3L30.7,53.3z"/>
<path d="M50.4,66.5c-1.9,0-3.4-0.4-4.5-1.2c-1.1-0.8-1.7-1.9-1.8-3.3h3.8c0.1,0.6,0.3,1.1,0.7,1.4s0.9,0.5,1.6,0.5
	c0.6,0,1.1-0.1,1.5-0.3s0.5-0.5,0.5-0.9c0-0.3-0.1-0.5-0.3-0.7s-0.4-0.3-0.7-0.4c-0.3-0.1-0.6-0.2-1-0.2c-0.4-0.1-0.8-0.1-1.2-0.2
	c-0.5-0.1-1.1-0.2-1.7-0.4c-0.5-0.1-1-0.4-1.5-0.6c-0.4-0.3-0.8-0.7-1.1-1.1c-0.3-0.5-0.4-1.1-0.4-1.8s0.1-1.3,0.4-1.8
	c0.3-0.5,0.7-0.9,1.2-1.3c0.5-0.3,1.1-0.6,1.8-0.8c0.7-0.2,1.4-0.3,2.1-0.3c1.8,0,3.2,0.4,4.2,1.1c1,0.7,1.5,1.7,1.6,3h-3.8
	c-0.1-0.6-0.3-1-0.7-1.2s-0.8-0.3-1.4-0.3c-0.5,0-0.9,0.1-1.3,0.3c-0.3,0.2-0.5,0.5-0.5,0.9c0,0.2,0.1,0.4,0.2,0.6
	c0.2,0.1,0.4,0.2,0.7,0.3s0.6,0.2,1,0.2s0.8,0.1,1.2,0.2c0.6,0.1,1.1,0.2,1.7,0.4c0.6,0.1,1.1,0.4,1.6,0.7s0.9,0.7,1.2,1.2
	s0.4,1.2,0.4,2c0,0.7-0.1,1.3-0.4,1.8c-0.3,0.5-0.7,1-1.2,1.3c-0.5,0.3-1.1,0.6-1.9,0.8S51.2,66.5,50.4,66.5z"/>
<path d="M62.2,66.2c-0.6,0-1.1-0.1-1.6-0.2c-0.5-0.1-0.9-0.3-1.3-0.6c-0.4-0.3-0.6-0.6-0.9-1.1c-0.2-0.5-0.3-1-0.3-1.7v-6.9h-1.7
	v-2.6h1.7v-4h4v4h2.3v2.6h-2.3v6c0,0.5,0.1,0.8,0.4,1c0.3,0.2,0.6,0.2,1,0.2c0.2,0,0.4,0,0.5,0c0.2,0,0.3,0,0.4,0v3
	C64.2,66,63.9,66,63.6,66C63.2,66.2,62.8,66.2,62.2,66.2z"/>
<path d="M70,48.2h8c1.1,0,2.1,0.1,2.8,0.4c0.8,0.3,1.5,0.7,2,1.2c0.6,0.5,1,1.2,1.3,1.9s0.5,1.6,0.5,2.5s-0.1,1.6-0.4,2.4
	c-0.3,0.8-0.7,1.3-1.2,1.8s-1.2,0.9-1.9,1.2c-0.8,0.3-1.6,0.4-2.5,0.4h-4.2v6h-4.5L70,48.2L70,48.2z M77.8,56.6
	c0.8,0,1.4-0.2,1.9-0.7c0.4-0.4,0.6-1,0.6-1.7s-0.2-1.3-0.6-1.7c-0.4-0.4-1-0.6-1.9-0.6h-3.3v4.7C74.5,56.6,77.8,56.6,77.8,56.6z"/>
<path d="M86.1,53.3H90v2h0.1c0.5-0.8,1-1.3,1.5-1.7c0.6-0.4,1.2-0.5,2-0.5c0.4,0,0.7,0,0.8,0.1v3.5h-0.1c-1.2-0.2-2.2,0-3,0.6
	c-0.7,0.6-1.1,1.6-1.1,3v5.8h-4.1L86.1,53.3L86.1,53.3z"/>
<path d="M95.7,48.2h4.1v3.3h-4.1V48.2z M95.7,53.3h4.1v12.8h-4.1V53.3z"/>
<path d="M101.8,70.4c-0.4,0-0.7,0-1.2,0s-0.8-0.1-1.1-0.2v-2.8c0.3,0,0.7,0,0.9,0c0.3,0,0.5-0.1,0.7-0.2c0.2-0.1,0.3-0.2,0.4-0.4
	c0.1-0.2,0.1-0.4,0.1-0.8V53.3h4.1v12.9c0,0.8-0.1,1.5-0.3,2s-0.4,0.9-0.7,1.2c-0.4,0.4-0.8,0.6-1.3,0.8
	C103,70.3,102.5,70.4,101.8,70.4z M101.7,48.2h4.1v3.3h-4.1V48.2z"/>
<path d="M113.2,66.5c-1.9,0-3.4-0.4-4.5-1.2c-1.1-0.8-1.7-1.9-1.8-3.3h3.8c0.1,0.6,0.3,1.1,0.7,1.4c0.4,0.3,0.9,0.5,1.6,0.5
	c0.6,0,1.1-0.1,1.5-0.3s0.5-0.5,0.5-0.9c0-0.3-0.1-0.5-0.3-0.7s-0.4-0.3-0.7-0.4c-0.3-0.1-0.6-0.2-1-0.2c-0.4-0.1-0.8-0.1-1.2-0.2
	c-0.5-0.1-1.1-0.2-1.6-0.4c-0.5-0.1-1-0.4-1.5-0.6s-0.8-0.7-1.1-1.1c-0.3-0.5-0.4-1.1-0.4-1.8s0.1-1.3,0.4-1.8
	c0.3-0.5,0.7-0.9,1.2-1.3c0.5-0.3,1.1-0.6,1.8-0.8c0.7-0.2,1.4-0.3,2.1-0.3c1.8,0,3.2,0.4,4.2,1.1c1,0.7,1.5,1.7,1.6,3h-3.8
	c-0.1-0.6-0.3-1-0.7-1.2s-0.8-0.3-1.4-0.3c-0.5,0-0.9,0.1-1.3,0.3c-0.3,0.2-0.5,0.5-0.5,0.9c0,0.2,0.1,0.4,0.2,0.6
	c0.2,0.1,0.4,0.2,0.7,0.3s0.6,0.2,1,0.2s0.8,0.1,1.2,0.2c0.6,0.1,1.1,0.2,1.7,0.4c0.6,0.1,1.1,0.4,1.6,0.7s0.9,0.7,1.2,1.2
	s0.5,1.2,0.5,2c0,0.7-0.1,1.3-0.4,1.8s-0.7,1-1.2,1.3c-0.5,0.3-1.1,0.6-1.9,0.8C114.8,66.4,114,66.5,113.2,66.5z"/>
<path d="M129.5,46.2h3.4v3.9l3.3-1.9l1.7,2.9l-3.3,1.9l3.3,1.9l-1.7,2.9l-3.3-1.9v3.8h-3.4v-3.8l-3.3,1.9l-1.7-2.9l3.3-1.9l-3.3-1.9
	l1.7-2.9l3.3,1.9V46.2z"/>
</svg>
