<?xml version="1.0" encoding="utf-8"?>
<!-- Generator: Adobe Illustrator 24.0.0, SVG Export Plug-In . SVG Version: 6.00 Build 0)  -->
<svg version="1.1" id="Laag_1" xmlns="http://www.w3.org/2000/svg" xmlns:xlink="http://www.w3.org/1999/xlink" x="0px" y="0px"
	 width="123.7px" height="136.6px" viewBox="0 0 123.7 136.6" style="enable-background:new 0 0 123.7 136.6;" xml:space="preserve"
	>
<style type="text/css">
	.st0{fill:#1D1D1B;}
	.st1{fill:#35AF80;}
</style>
<g>
	<path class="st0" d="M1.2,20.2V0H6v8.4C6.4,7.6,7,7,7.8,6.5s1.7-0.7,2.8-0.7c1.4,0,2.5,0.4,3.4,1.3c0.8,0.9,1.2,2.2,1.2,3.9v9.1
		h-4.8V12c0-1.6-0.7-2.4-2-2.4c-0.7,0-1.3,0.2-1.7,0.7c-0.4,0.4-0.6,1.1-0.6,2v7.9H1.2z"/>
	<path class="st0" d="M23.5,20.5c-2.3,0-4.1-0.6-5.5-1.9c-1.4-1.3-2.1-3-2.1-5.3v-0.2c0-2.2,0.7-4,2.2-5.3c1.4-1.3,3.3-2,5.4-2
		c2.1,0,3.8,0.6,5.1,1.8c1.3,1.2,2,3,2,5.4v1.3h-9.9c0.1,0.9,0.4,1.6,0.9,2.2c0.5,0.5,1.2,0.8,2.1,0.8c1.4,0,2.2-0.6,2.4-1.7h4.5
		c-0.2,1.6-0.9,2.8-2.1,3.7C27.3,20.1,25.6,20.5,23.5,20.5z M20.8,11.6h5.1C25.8,9.8,25,9,23.5,9c-0.7,0-1.3,0.2-1.8,0.7
		C21.2,10.1,20.9,10.7,20.8,11.6z"/>
	<path class="st0" d="M31.5,20.2V0h4.8v20.2H31.5z"/>
	<path class="st0" d="M37.9,24.9V6.2h4.8v2.1c1-1.6,2.4-2.5,4.4-2.5c1.7,0,3.1,0.6,4.2,1.9s1.7,3.1,1.7,5.4v0.2
		c0,2.3-0.6,4.1-1.7,5.4s-2.5,1.9-4.3,1.9c-1,0-1.9-0.2-2.7-0.7s-1.3-1-1.7-1.7v6.8H37.9z M43.3,15.9c0.5,0.6,1.2,0.9,2.1,0.9
		s1.6-0.3,2.1-0.9c0.5-0.6,0.7-1.5,0.7-2.7v-0.2c0-1.2-0.2-2.1-0.7-2.7c-0.5-0.6-1.2-0.9-2-0.9c-0.9,0-1.6,0.3-2.1,0.9
		c-0.5,0.6-0.7,1.5-0.7,2.7v0.2C42.6,14.4,42.8,15.3,43.3,15.9z"/>
	<path class="st0" d="M70.2,18.5c-1.4,1.3-3.3,2-5.5,2s-4-0.6-5.5-1.9s-2.2-3-2.2-5.2v-0.2c0-2.2,0.7-4,2.2-5.3c1.5-1.3,3.3-2,5.5-2
		c2.2,0,4,0.7,5.5,2c1.4,1.3,2.2,3.1,2.2,5.2v0.2C72.4,15.5,71.7,17.2,70.2,18.5z M64.7,16.9c0.9,0,1.6-0.3,2.1-1
		c0.5-0.6,0.7-1.5,0.7-2.7v-0.2c0-2.4-0.9-3.7-2.8-3.7c-0.9,0-1.6,0.3-2.1,0.9C62.2,10.9,62,11.8,62,13v0.2
		C62,15.7,62.9,16.9,64.7,16.9z"/>
	<path class="st0" d="M73.1,20.2v-14h4.8v2.3c0.4-0.8,1-1.4,1.8-1.9s1.7-0.7,2.8-0.7c1.4,0,2.5,0.4,3.4,1.3c0.8,0.9,1.2,2.2,1.2,3.9
		v9.1h-4.8V12c0-1.6-0.7-2.4-2-2.4c-0.7,0-1.3,0.2-1.7,0.7c-0.4,0.4-0.6,1.1-0.6,2v7.9H73.1z"/>
	<path class="st0" d="M87.4,20.2v-0.5l6.1-9.9H88V6.2h12.4v0.5l-6.3,9.9h6v3.6H87.4z"/>
	<path class="st0" d="M107.5,20.5c-2.3,0-4.1-0.6-5.5-1.9c-1.4-1.3-2.1-3-2.1-5.3v-0.2c0-2.2,0.7-4,2.2-5.3c1.4-1.3,3.3-2,5.4-2
		c2.1,0,3.8,0.6,5.1,1.8c1.3,1.2,2,3,2,5.4v1.3h-9.9c0.1,0.9,0.4,1.6,0.9,2.2c0.5,0.5,1.2,0.8,2.1,0.8c1.4,0,2.2-0.6,2.4-1.7h4.5
		c-0.2,1.6-0.9,2.8-2.1,3.7C111.2,20.1,109.6,20.5,107.5,20.5z M104.7,11.6h5.1C109.8,9.8,109,9,107.4,9c-0.7,0-1.3,0.2-1.8,0.7
		S104.9,10.7,104.7,11.6z"/>
</g>
<g>
	<path class="st0" d="M1.2,43.2V23H6v8.4c0.4-0.8,1-1.4,1.8-1.9s1.7-0.7,2.8-0.7c1.4,0,2.5,0.4,3.4,1.3c0.8,0.9,1.2,2.2,1.2,3.9v9.1
		h-4.8V35c0-1.6-0.7-2.4-2-2.4c-0.7,0-1.3,0.2-1.7,0.7c-0.4,0.4-0.6,1.1-0.6,2v7.9H1.2z"/>
	<path class="st0" d="M29,41.5c-1.4,1.3-3.3,2-5.5,2s-4-0.6-5.5-1.9s-2.2-3-2.2-5.2v-0.2c0-2.2,0.7-4,2.2-5.3c1.5-1.3,3.3-2,5.5-2
		c2.2,0,4,0.7,5.5,2c1.4,1.3,2.2,3.1,2.2,5.2v0.2C31.2,38.5,30.5,40.2,29,41.5z M23.6,39.9c0.9,0,1.6-0.3,2.1-1
		c0.5-0.6,0.7-1.5,0.7-2.7v-0.2c0-2.4-0.9-3.7-2.8-3.7c-0.9,0-1.6,0.3-2.1,0.9c-0.5,0.6-0.7,1.5-0.7,2.7v0.2
		C20.8,38.7,21.7,39.9,23.6,39.9z"/>
	<path class="st0" d="M32,43.2v-14h4.8v2.3c0.4-0.8,1-1.4,1.8-1.9s1.7-0.7,2.8-0.7c1.4,0,2.5,0.4,3.4,1.3c0.8,0.9,1.2,2.2,1.2,3.9
		v9.1h-4.8V35c0-1.6-0.7-2.4-2-2.4c-0.7,0-1.3,0.2-1.7,0.7c-0.4,0.4-0.6,1.1-0.6,2v7.9H32z"/>
	<path class="st0" d="M52.5,43.5c-1.7,0-3.1-0.6-4.2-1.9c-1.1-1.2-1.7-3-1.7-5.3v-0.2c0-2.3,0.6-4.1,1.7-5.4
		c1.1-1.3,2.5-1.9,4.3-1.9c2,0,3.4,0.8,4.3,2.4V23h4.8v20.2h-4.8v-2.3c-0.4,0.8-0.9,1.4-1.7,1.9C54.5,43.3,53.6,43.5,52.5,43.5z
		 M54.2,39.8c0.9,0,1.6-0.3,2.1-0.9c0.5-0.6,0.7-1.5,0.7-2.7V36c0-1.2-0.2-2.1-0.7-2.7c-0.5-0.6-1.2-0.9-2.1-0.9
		c-1.8,0-2.8,1.2-2.8,3.6v0.2c0,1.2,0.2,2,0.7,2.7C52.7,39.5,53.4,39.8,54.2,39.8z"/>
	<path class="st0" d="M67.6,43.2V24h8.6c2.2,0,3.8,0.4,4.9,1.3c1.1,0.9,1.6,2.1,1.6,3.7v0.1c0,2.2-1.1,3.6-3.2,4.1
		c2.6,0.4,3.8,1.9,3.8,4.5v0.1c0,3.6-2.3,5.3-7,5.3H67.6z M73,31.6h2.1c0.9,0,1.5-0.2,1.8-0.5c0.4-0.3,0.5-0.8,0.5-1.5v-0.1
		c0-0.7-0.2-1.1-0.6-1.4c-0.4-0.3-1-0.5-1.8-0.5H73V31.6z M73,39.5h2.3c1.7,0,2.5-0.7,2.5-2.2v-0.1c0-1.5-0.9-2.2-2.7-2.2H73V39.5z"
		/>
	<path class="st0" d="M91.1,43.5c-2.3,0-4.1-0.6-5.5-1.9c-1.4-1.3-2.1-3-2.1-5.3v-0.2c0-2.2,0.7-4,2.2-5.3c1.4-1.3,3.3-2,5.4-2
		c2.1,0,3.8,0.6,5.1,1.8c1.3,1.2,2,3,2,5.4v1.3h-9.9c0.1,0.9,0.4,1.6,0.9,2.2c0.5,0.5,1.2,0.8,2.1,0.8c1.4,0,2.2-0.6,2.4-1.7h4.5
		c-0.2,1.6-0.9,2.8-2.1,3.7C94.9,43.1,93.2,43.5,91.1,43.5z M88.4,34.6h5.1c-0.1-1.8-0.9-2.6-2.5-2.6c-0.7,0-1.3,0.2-1.8,0.7
		C88.8,33.1,88.5,33.7,88.4,34.6z"/>
	<path class="st0" d="M103,43.5c-1.4,0-2.5-0.3-3.4-1c-0.9-0.7-1.3-1.8-1.3-3.2c0-3.1,2.5-4.6,7.5-4.6h1.3v-0.3
		c0-0.7-0.1-1.3-0.4-1.7c-0.3-0.4-0.7-0.6-1.5-0.6c-1.1,0-1.8,0.6-1.9,1.7h-4.5c0.1-1.6,0.8-2.9,2-3.8c1.2-0.9,2.8-1.3,4.7-1.3
		c2,0,3.6,0.4,4.7,1.3c1.1,0.9,1.7,2.2,1.7,4v9.1h-4.7v-1.6C106.3,42.9,104.9,43.5,103,43.5z M104.7,40.3c0.7,0,1.3-0.2,1.7-0.5
		s0.7-0.8,0.7-1.4v-0.9h-1.3c-1,0-1.7,0.1-2.1,0.3S103,38.4,103,39C103,39.8,103.6,40.3,104.7,40.3z"/>
	<path class="st0" d="M113.2,43.2v-14h4.8V32c0.9-2,2.4-3,4.5-3v4.5c-3-0.1-4.5,0.9-4.5,3.1v6.6H113.2z"/>
</g>
<g>
	<path class="st0" d="M13.6,64.5c-1.4,1.3-3.3,2-5.5,2s-4-0.6-5.5-1.9s-2.2-3-2.2-5.2v-0.2c0-2.2,0.7-4,2.2-5.3c1.5-1.3,3.3-2,5.5-2
		c2.2,0,4,0.7,5.5,2s2.2,3.1,2.2,5.2v0.2C15.8,61.5,15.1,63.2,13.6,64.5z M8.2,63c0.9,0,1.6-0.3,2.1-1c0.5-0.6,0.7-1.5,0.7-2.7v-0.2
		c0-2.4-0.9-3.7-2.8-3.7c-0.9,0-1.6,0.3-2.1,0.9c-0.5,0.6-0.7,1.5-0.7,2.7v0.2C5.4,61.7,6.3,63,8.2,63z"/>
	<path class="st0" d="M16.5,66.2v-14h4.8v2.1c0.4-0.7,1-1.3,1.7-1.8c0.8-0.5,1.6-0.7,2.7-0.7c1.9,0,3.1,0.8,3.8,2.3
		c1.1-1.6,2.7-2.3,4.6-2.3c1.4,0,2.5,0.4,3.3,1.3c0.8,0.9,1.3,2.2,1.3,3.9v9.2H34v-8.4c0-0.7-0.2-1.2-0.5-1.6s-0.8-0.5-1.3-0.5
		c-0.7,0-1.2,0.2-1.6,0.6s-0.6,1-0.6,1.7v8.1h-4.7v-8.4c0-0.7-0.2-1.2-0.5-1.6c-0.3-0.4-0.8-0.5-1.3-0.5c-0.7,0-1.2,0.2-1.6,0.6
		c-0.4,0.4-0.6,1-0.6,1.7v8.1H16.5z"/>
</g>
<g>
	<path class="st1" d="M44.1,66.2V46h4.8v11.7l3.8-5.5h5l-4.6,6.3l5,7.7h-5.4l-3.8-6.1v6.1H44.1z"/>
	<path class="st1" d="M70,64.5c-1.4,1.3-3.3,2-5.5,2s-4-0.6-5.5-1.9s-2.2-3-2.2-5.2v-0.2c0-2.2,0.7-4,2.2-5.3c1.5-1.3,3.3-2,5.5-2
		c2.2,0,4,0.7,5.5,2s2.2,3.1,2.2,5.2v0.2C72.2,61.5,71.4,63.2,70,64.5z M64.5,63c0.9,0,1.6-0.3,2.1-1c0.5-0.6,0.7-1.5,0.7-2.7v-0.2
		c0-2.4-0.9-3.7-2.8-3.7c-0.9,0-1.6,0.3-2.1,0.9c-0.5,0.6-0.7,1.5-0.7,2.7v0.2C61.7,61.7,62.7,63,64.5,63z"/>
	<path class="st1" d="M76.9,66.5c-1.4,0-2.5-0.3-3.4-1c-0.9-0.7-1.3-1.8-1.3-3.2c0-3.1,2.5-4.6,7.5-4.6h1.3v-0.3
		c0-0.7-0.1-1.3-0.4-1.7s-0.7-0.6-1.5-0.6c-1.1,0-1.8,0.6-1.9,1.7h-4.5c0.1-1.6,0.8-2.9,2-3.8c1.2-0.9,2.8-1.3,4.7-1.3
		c2,0,3.6,0.4,4.7,1.3c1.1,0.9,1.7,2.2,1.7,4v9.1H81v-1.6C80.2,65.9,78.8,66.5,76.9,66.5z M78.6,63.3c0.7,0,1.3-0.2,1.7-0.5
		c0.4-0.4,0.7-0.8,0.7-1.4v-0.9h-1.3c-1,0-1.7,0.1-2.1,0.3c-0.4,0.2-0.7,0.6-0.7,1.2C76.9,62.8,77.4,63.3,78.6,63.3z"/>
	<path class="st1" d="M87.3,66.2V46H92v20.2H87.3z"/>
	<path class="st1" d="M97.6,66.5c-1.4,0-2.5-0.3-3.4-1c-0.9-0.7-1.3-1.8-1.3-3.2c0-3.1,2.5-4.6,7.5-4.6h1.3v-0.3
		c0-0.7-0.1-1.3-0.4-1.7c-0.3-0.4-0.7-0.6-1.5-0.6c-1.1,0-1.8,0.6-1.9,1.7h-4.5c0.1-1.6,0.8-2.9,2-3.8c1.2-0.9,2.8-1.3,4.7-1.3
		c2,0,3.6,0.4,4.7,1.3c1.1,0.9,1.7,2.2,1.7,4v9.1h-4.7v-1.6C100.9,65.9,99.6,66.5,97.6,66.5z M99.3,63.3c0.7,0,1.3-0.2,1.7-0.5
		s0.7-0.8,0.7-1.4v-0.9h-1.3c-1,0-1.7,0.1-2.1,0.3s-0.7,0.6-0.7,1.2C97.6,62.8,98.2,63.3,99.3,63.3z"/>
	<path class="st1" d="M109.4,54.7l-2.7-1l2.1-7l4.2,1.4L109.4,54.7z"/>
	<path class="st1" d="M121.5,65.3c-1.1,0.8-2.7,1.2-4.7,1.2s-3.6-0.4-4.7-1.2c-1.1-0.8-1.7-2-1.8-3.6h4.4c0.1,0.5,0.3,0.9,0.6,1.2
		c0.3,0.3,0.8,0.4,1.4,0.4c1.1,0,1.7-0.4,1.7-1.2c0-0.3-0.2-0.6-0.6-0.8s-1.1-0.3-2-0.5c-1.9-0.2-3.3-0.7-4.1-1.4
		c-0.8-0.7-1.2-1.7-1.2-3.1c0-1.5,0.6-2.6,1.7-3.4c1.1-0.8,2.6-1.2,4.3-1.2c3.8,0,5.9,1.5,6.2,4.5h-4.3c-0.2-0.9-0.8-1.4-1.8-1.4
		c-0.5,0-0.9,0.1-1.2,0.3c-0.3,0.2-0.4,0.5-0.4,0.8c0,0.3,0.2,0.6,0.5,0.7s1,0.3,1.8,0.4c2,0.2,3.5,0.7,4.4,1.4s1.4,1.7,1.4,3.2
		C123.2,63.3,122.7,64.5,121.5,65.3z"/>
</g>
<g>
	<path class="st0" d="M6.8,89.5c-3.3,0-4.9-1.6-4.9-4.8v-6.2H0.2v-3.3h1.7v-2.9h4.8v2.9h2.8v3.3H6.6v5.8c0,1,0.5,1.5,1.4,1.5
		c0.5,0,0.9-0.1,1.4-0.2v3.6C8.4,89.4,7.5,89.5,6.8,89.5z"/>
	<path class="st0" d="M17.2,89.5c-2.3,0-4.1-0.6-5.5-1.9c-1.4-1.3-2.1-3-2.1-5.3v-0.2c0-2.2,0.7-4,2.2-5.3s3.3-2,5.4-2
		c2.1,0,3.8,0.6,5.1,1.8c1.3,1.2,2,3,2,5.4v1.3h-9.9c0.1,0.9,0.4,1.6,0.9,2.2c0.5,0.5,1.2,0.8,2.1,0.8c1.4,0,2.2-0.6,2.4-1.7h4.5
		c-0.2,1.6-0.9,2.8-2.1,3.7C21,89.1,19.3,89.5,17.2,89.5z M14.5,80.6h5.1c-0.1-1.8-0.9-2.6-2.5-2.6c-0.7,0-1.3,0.2-1.8,0.7
		C14.9,79.1,14.6,79.8,14.5,80.6z"/>
</g>
<g>
	<path class="st1" d="M28.9,89.2v-14h4.8V78c0.9-2,2.4-3,4.5-3v4.5c-3-0.1-4.5,0.9-4.5,3.1v6.6H28.9z"/>
	<path class="st1" d="M45.8,89.5c-2.3,0-4.1-0.6-5.5-1.9c-1.4-1.3-2.1-3-2.1-5.3v-0.2c0-2.2,0.7-4,2.2-5.3s3.3-2,5.4-2
		c2.1,0,3.8,0.6,5.1,1.8c1.3,1.2,2,3,2,5.4v1.3h-9.9c0.1,0.9,0.4,1.6,0.9,2.2c0.5,0.5,1.2,0.8,2.1,0.8c1.4,0,2.2-0.6,2.4-1.7h4.5
		c-0.2,1.6-0.9,2.8-2.1,3.7C49.6,89.1,47.9,89.5,45.8,89.5z M43.1,80.6h5.1c-0.1-1.8-0.9-2.6-2.5-2.6c-0.7,0-1.3,0.2-1.8,0.7
		C43.5,79.1,43.2,79.8,43.1,80.6z"/>
	<path class="st1" d="M58.9,89.5c-1.7,0-3.1-0.6-4.2-1.8c-1.1-1.2-1.7-3-1.7-5.3v-0.2c0-2.3,0.6-4.1,1.7-5.4
		c1.1-1.3,2.5-1.9,4.3-1.9c2,0,3.4,0.8,4.3,2.4V69H68v20.2h-4.8v-2.3c-0.4,0.8-0.9,1.4-1.7,1.9S59.9,89.5,58.9,89.5z M60.6,85.8
		c0.9,0,1.6-0.3,2.1-0.9c0.5-0.6,0.7-1.5,0.7-2.7V82c0-1.2-0.2-2.1-0.7-2.7c-0.5-0.6-1.2-0.9-2.1-0.9c-1.8,0-2.8,1.2-2.8,3.6v0.2
		c0,1.2,0.2,2,0.7,2.7C59.1,85.5,59.7,85.8,60.6,85.8z"/>
	<path class="st1" d="M74.7,89.5c-1.7,0-3.1-0.6-4.2-1.8c-1.1-1.2-1.7-3-1.7-5.3v-0.2c0-2.3,0.6-4.1,1.7-5.4
		c1.1-1.3,2.5-1.9,4.3-1.9c2,0,3.4,0.8,4.3,2.4V69h4.8v20.2h-4.8v-2.3c-0.4,0.8-0.9,1.4-1.7,1.9S75.8,89.5,74.7,89.5z M76.4,85.8
		c0.9,0,1.6-0.3,2.1-0.9c0.5-0.6,0.7-1.5,0.7-2.7V82c0-1.2-0.2-2.1-0.7-2.7c-0.5-0.6-1.2-0.9-2.1-0.9c-1.8,0-2.8,1.2-2.8,3.6v0.2
		c0,1.2,0.2,2,0.7,2.7C74.9,85.5,75.6,85.8,76.4,85.8z"/>
	<path class="st1" d="M92.3,89.5c-2.3,0-4.1-0.6-5.5-1.9c-1.4-1.3-2.1-3-2.1-5.3v-0.2c0-2.2,0.7-4,2.2-5.3s3.3-2,5.4-2
		c2.1,0,3.8,0.6,5.1,1.8c1.3,1.2,2,3,2,5.4v1.3h-9.9c0.1,0.9,0.4,1.6,0.9,2.2c0.5,0.5,1.2,0.8,2.1,0.8c1.4,0,2.2-0.6,2.4-1.7h4.5
		c-0.2,1.6-0.9,2.8-2.1,3.7C96.1,89.1,94.4,89.5,92.3,89.5z M89.6,80.6h5.1c-0.1-1.8-0.9-2.6-2.5-2.6c-0.7,0-1.3,0.2-1.8,0.7
		C90,79.1,89.7,79.8,89.6,80.6z"/>
	<path class="st1" d="M100.2,89.2v-14h4.8v2.3c0.4-0.8,1-1.4,1.8-1.9c0.8-0.5,1.7-0.7,2.8-0.7c1.4,0,2.5,0.4,3.4,1.3
		s1.2,2.2,1.2,3.9v9.1h-4.8V81c0-1.6-0.7-2.4-2-2.4c-0.7,0-1.3,0.2-1.7,0.7c-0.4,0.4-0.6,1.1-0.6,2v7.9H100.2z"/>
</g>
<g>
	<path class="st0" d="M5.1,112.2L0,98.2h5.1l2.9,9l2.9-9h4.6l-5.1,14H5.1z"/>
	<path class="st0" d="M19.2,112.5c-1.4,0-2.5-0.3-3.4-1c-0.9-0.7-1.3-1.8-1.3-3.2c0-3.1,2.5-4.6,7.5-4.6h1.3v-0.3
		c0-0.7-0.1-1.3-0.4-1.7s-0.7-0.6-1.5-0.6c-1.1,0-1.8,0.6-1.9,1.7H15c0.1-1.6,0.8-2.9,2-3.8c1.2-0.9,2.8-1.3,4.7-1.3
		c2,0,3.6,0.4,4.7,1.3c1.1,0.9,1.7,2.2,1.7,4v9.1h-4.7v-1.6C22.5,111.9,21.1,112.5,19.2,112.5z M20.9,109.3c0.7,0,1.3-0.2,1.7-0.5
		c0.4-0.4,0.7-0.8,0.7-1.4v-0.9H22c-1,0-1.7,0.1-2.1,0.3c-0.4,0.2-0.7,0.6-0.7,1.2C19.2,108.8,19.8,109.3,20.9,109.3z"/>
	<path class="st0" d="M29.4,112.2v-14h4.8v2.3c0.4-0.8,1-1.4,1.8-1.9c0.8-0.5,1.7-0.7,2.8-0.7c1.4,0,2.5,0.4,3.4,1.3
		c0.8,0.9,1.2,2.2,1.2,3.9v9.1h-4.8V104c0-1.6-0.7-2.4-2-2.4c-0.7,0-1.3,0.2-1.7,0.7c-0.4,0.4-0.6,1.1-0.6,2v7.9H29.4z"/>
	<path class="st0" d="M54,112.5c-1.7,0-3.1-0.6-4.2-1.8c-1.1-1.2-1.7-3-1.7-5.3v-0.2c0-2.3,0.6-4.1,1.7-5.4c1.1-1.3,2.5-1.9,4.3-1.9
		c2,0,3.4,0.8,4.3,2.4V92h4.8v20.2h-4.8v-2.3c-0.4,0.8-0.9,1.4-1.7,1.9S55,112.5,54,112.5z M55.7,108.8c0.9,0,1.6-0.3,2.1-0.9
		c0.5-0.6,0.7-1.5,0.7-2.7V105c0-1.2-0.2-2.1-0.7-2.7c-0.5-0.6-1.2-0.9-2.1-0.9c-1.8,0-2.8,1.2-2.8,3.6v0.2c0,1.2,0.2,2,0.7,2.7
		C54.2,108.5,54.9,108.8,55.7,108.8z"/>
	<path class="st0" d="M71.6,112.5c-2.3,0-4.1-0.6-5.5-1.9c-1.4-1.3-2.1-3-2.1-5.3v-0.2c0-2.2,0.7-4,2.2-5.3s3.3-2,5.4-2
		c2.1,0,3.8,0.6,5.1,1.8c1.3,1.2,2,3,2,5.4v1.3h-9.9c0.1,0.9,0.4,1.6,0.9,2.2c0.5,0.5,1.2,0.8,2.1,0.8c1.4,0,2.2-0.6,2.4-1.7h4.5
		c-0.2,1.6-0.9,2.8-2.1,3.7C75.3,112.1,73.7,112.5,71.6,112.5z M68.9,103.6H74c-0.1-1.8-0.9-2.6-2.5-2.6c-0.7,0-1.3,0.2-1.8,0.7
		C69.3,102.1,69,102.8,68.9,103.6z"/>
</g>
<g>
	<path class="st1" d="M5.1,135.2l-5.1-14h5.1l2.9,9l2.9-9h4.6l-5.1,14H5.1z"/>
	<path class="st1" d="M15.9,135.2V115h4.8v20.2H15.9z"/>
	<path class="st1" d="M26.3,135.5c-1.4,0-2.5-0.3-3.4-1c-0.9-0.7-1.3-1.8-1.3-3.2c0-3.1,2.5-4.6,7.5-4.6h1.3v-0.3
		c0-0.7-0.1-1.3-0.4-1.7s-0.7-0.6-1.5-0.6c-1.1,0-1.8,0.6-1.9,1.7h-4.5c0.1-1.6,0.8-2.9,2-3.8c1.2-0.9,2.8-1.3,4.7-1.3
		c2,0,3.6,0.4,4.7,1.3c1.1,0.9,1.7,2.2,1.7,4v9.1h-4.7v-1.6C29.6,134.9,28.2,135.5,26.3,135.5z M28,132.3c0.7,0,1.3-0.2,1.7-0.5
		c0.4-0.4,0.7-0.8,0.7-1.4v-0.9h-1.3c-1,0-1.7,0.1-2.1,0.3c-0.4,0.2-0.7,0.6-0.7,1.2C26.3,131.8,26.9,132.3,28,132.3z"/>
	<path class="st1" d="M36.5,135.2v-14h4.8v2.1c0.4-0.7,1-1.3,1.7-1.8c0.8-0.5,1.6-0.7,2.7-0.7c1.9,0,3.1,0.8,3.8,2.3
		c1.1-1.6,2.7-2.3,4.6-2.3c1.4,0,2.5,0.4,3.3,1.3c0.8,0.9,1.3,2.2,1.3,3.9v9.2H54v-8.4c0-0.7-0.2-1.2-0.5-1.6s-0.8-0.5-1.3-0.5
		c-0.7,0-1.2,0.2-1.6,0.6s-0.6,1-0.6,1.7v8.1h-4.7v-8.4c0-0.7-0.2-1.2-0.5-1.6c-0.3-0.4-0.8-0.5-1.3-0.5c-0.7,0-1.2,0.2-1.6,0.6
		c-0.4,0.4-0.6,1-0.6,1.7v8.1H36.5z"/>
	<path class="st1" d="M60.2,135.2v-14H65v2.1c0.4-0.7,1-1.3,1.7-1.8c0.8-0.5,1.6-0.7,2.7-0.7c1.9,0,3.1,0.8,3.8,2.3
		c1.1-1.6,2.7-2.3,4.6-2.3c1.4,0,2.5,0.4,3.3,1.3c0.8,0.9,1.3,2.2,1.3,3.9v9.2h-4.8v-8.4c0-0.7-0.2-1.2-0.5-1.6s-0.8-0.5-1.3-0.5
		c-0.7,0-1.2,0.2-1.6,0.6s-0.6,1-0.6,1.7v8.1h-4.7v-8.4c0-0.7-0.2-1.2-0.5-1.6c-0.3-0.4-0.8-0.5-1.3-0.5c-0.7,0-1.2,0.2-1.6,0.6
		c-0.4,0.4-0.6,1-0.6,1.7v8.1H60.2z"/>
	<path class="st1" d="M90.7,135.5c-2.3,0-4.1-0.6-5.5-1.9c-1.4-1.3-2.1-3-2.1-5.3v-0.2c0-2.2,0.7-4,2.2-5.3s3.3-2,5.4-2
		c2.1,0,3.8,0.6,5.1,1.8c1.3,1.2,2,3,2,5.4v1.3h-9.9c0.1,0.9,0.4,1.6,0.9,2.2c0.5,0.5,1.2,0.8,2.1,0.8c1.4,0,2.2-0.6,2.4-1.7h4.5
		c-0.2,1.6-0.9,2.8-2.1,3.7C94.4,135.1,92.8,135.5,90.7,135.5z M88,126.6h5.1c-0.1-1.8-0.9-2.6-2.5-2.6c-0.7,0-1.3,0.2-1.8,0.7
		C88.4,125.1,88.1,125.8,88,126.6z"/>
	<path class="st1" d="M98.5,135.2v-14h4.8v2.3c0.4-0.8,1-1.4,1.8-1.9c0.8-0.5,1.7-0.7,2.8-0.7c1.4,0,2.5,0.4,3.4,1.3
		s1.2,2.2,1.2,3.9v9.1h-4.8v-8.2c0-1.6-0.7-2.4-2-2.4c-0.7,0-1.3,0.2-1.7,0.7c-0.4,0.4-0.6,1.1-0.6,2v7.9H98.5z"/>
</g>
<g>
	<path class="st0" d="M116.3,135.5c-0.8,0-1.4-0.3-2-0.8c-0.5-0.5-0.8-1.2-0.8-1.9s0.3-1.4,0.8-1.9c0.5-0.5,1.2-0.8,2-0.8
		c0.8,0,1.5,0.3,2,0.8c0.5,0.5,0.8,1.2,0.8,1.9s-0.3,1.4-0.8,1.9C117.8,135.2,117.1,135.5,116.3,135.5z"/>
</g>
</svg>
