<?xml version="1.0" encoding="utf-8"?>
<!-- Generator: Adobe Illustrator 24.0.0, SVG Export Plug-In . SVG Version: 6.00 Build 0)  -->
<svg version="1.1" id="Laag_1" xmlns="http://www.w3.org/2000/svg" xmlns:xlink="http://www.w3.org/1999/xlink" x="0px" y="0px"
	 width="770.2px" height="770.2px" viewBox="0 0 770.2 770.2" style="enable-background:new 0 0 770.2 770.2;" xml:space="preserve"
	>
<style type="text/css">
	.st0{opacity:0.87;}
	.st1{fill:#EBDCED;}
	.st2{fill:#3A2E7C;}
</style>
<g>
	<g>
		<g class="st0">
			<g>
				<path class="st1" d="M344.9,768.1c211.5,22.2,401-131.2,423.2-342.7c22.2-211.5-131.2-401-342.7-423.2
					C213.8-20.1,24.4,133.3,2.1,344.9C-20.1,556.4,133.4,745.8,344.9,768.1"/>
			</g>
		</g>
	</g>
	<g>
		<path class="st2" d="M242.6,329.1l-6,70.9c0,0-6.9,1.1-18.8,3.8c-11.8,2.6-18.7,4.5-18.7,4.5l-34.6-61.7
			c-14.5-26.2-20-36.3-27.9-40.7c0,0,6.3-1,21.5-4.4c16.6-3.7,22.7-5.4,22.7-5.4c-2.1,2.3-4.8,5.9-3.2,12.9
			c1.3,5.8,5.6,14.2,13.9,29.8l20.9,39.6c2.4,4.5,4.9,10.1,5.3,11.2c-0.1-0.6-0.3-6.6,0.1-12.2l2.7-43.8c1.2-18.5,1.6-28.3,0.3-34.1
			c-1.5-7-5.3-9.2-8.2-10.4c0,0,6.5-1,19.6-3.9c13.3-3,18.9-4.6,18.9-4.6C245.7,288.4,244.7,303.1,242.6,329.1z"/>
		<path class="st2" d="M303.9,384.6c-14.5,3.2-20.2,4.9-20.2,4.9l1-3.7c2.1-7.1,2.7-10.7-6.1-50.4l-9.9-44.7
			c-7.7-34.6-10.3-39.9-15.2-45.9L251,242l33.5-12.5c0,0,3.9,20.4,8.1,39.2l13.5,60.7c8.6,38.9,10.6,42.3,15.8,48.2l2.5,2.9
			C324.3,380.5,318.4,381.4,303.9,384.6z"/>
		<path class="st2" d="M337.3,246.8c-9.7,2.1-17.7,0.5-19.8-9c-2.3-10.2,4-15.1,14-17.3c9.5-2.1,17.7-0.5,19.8,9
			C353.6,239.8,347.1,244.7,337.3,246.8z M365,371.1c-14.5,3.2-20.4,4.9-20.4,4.9l1-3.7c2.1-7.2,2.7-10.5-6.1-50.4l-1.5-7
			c-7.4-33.4-10.4-38.5-14.7-43.4l-2.5-2.9l34.7-12.8c0,0,0.7,11.2,9.9,52.8l1.6,7.2c7.9,35.8,10,41.4,15.8,48.2l2.5,2.9
			C385.2,367,379.3,367.9,365,371.1z"/>
		<path class="st2" d="M442.3,305.3c-13.1,2.9-20.8,3-20.8,3c2.7,12,11.5,31.7,38,25.9c25.5-5.7,29.6-18.3,29.9-19.6
			c3.3,15.1-4.1,32.6-34.1,39.2c-38.5,8.5-56.8-13-63.8-44.5c-9.3-42.1,8.3-63.9,36.8-70.2c21.3-4.7,45.6-2.2,51.1,22.9
			C482.3,275.1,482.7,296.3,442.3,305.3z M431.3,253.6c-15.1,3.3-19,16-13.6,40.3c0,0,4.7,0.2,16.7-2.5
			c16.4-3.6,20.2-12.4,17.8-23.2C450.8,262,446.7,250.2,431.3,253.6z"/>
		<path class="st2" d="M589.6,202.9c0,0,0.9,12.2,10.1,53.7l10.2,45.8c4.5,20.5,6,31.7-1.8,44.2c-7.6,12.2-23,19.1-42.7,23.5
			c-23.6,5.2-37.7,2.9-37.7,2.9s-0.5-4.1-2.5-13c-2.3-10.4-4.1-16.5-4.1-16.5c13.9,12.3,25.7,12.6,39,9.6
			c29.4-6.5,26.6-24.6,24.2-35.2l-0.8-3.7c-2-8.9-3.4-22-3.4-22c1.2,29.3-16,36.6-26.8,39c-38.9,8.6-49.4-33.5-52.2-46
			c-10.3-46.4,12-64.9,35-70c20.5-4.5,30.6,3.6,30.6,3.6L589.6,202.9z M565.3,231.4c0,0-6.8-4.2-17.6-1.8c-18.2,4-24,19.9-17.9,47.4
			c2.7,12,9.1,38.3,30.8,33.5c16.6-3.7,17.8-20.2,17.8-20.2L565.3,231.4z"/>
	</g>
	<g>
		<path class="st2" d="M384.2,574.9c0,0-5.9,0.9-20.4,4.1c-14.5,3.2-20.2,4.9-20.2,4.9l1-3.7c1.9-6.3,3.5-7.9-5.8-50
			c-4.9-22-7.3-30.2-11.1-34.5c-3-3.4-7.8-6-16.9-4c-15.3,3.4-17.2,17.6-17.5,19.7c0.8,2.9,3.9,16,5,20.6l1.4,6.4
			c9.3,42,11.4,43.3,15.8,48.2l2.5,2.9c0,0-5.9,0.9-20.4,4.1s-20.2,4.9-20.2,4.9l1-3.7c1.9-6.3,3.2-8.2-6-50
			c-4.9-22-7.3-30.2-11.1-34.5c-2.8-3.4-7.6-6-16.5-4c-16.4,3.6-17.3,20.1-17.3,20.1l5.9,26.7c9.3,42,11.4,43.3,15.8,48.2l2.5,2.9
			c0,0-5.9,0.9-20.2,4.1c-14.5,3.2-20.4,4.9-20.4,4.9l1-3.7c1.9-6.3,3.2-8.2-6.1-50.4l-1.5-7c-7.4-33.4-10.4-38.5-14.7-43.4
			l-2.5-2.9l32.8-12.3l5.8,31c-1.3-31.6,19.3-37.3,27.6-39.2c12-2.7,23-1.6,30.8,7.4c4.1,4.6,6.2,10.4,7.1,12.8
			c0.6-27.7,20-33.2,27.9-35c12.4-2.7,23.4-1.5,31.3,7.5c6.2,7.1,9.1,16.2,14.1,38.9l1.5,6.8c9.3,42.1,11.2,43.4,15.6,48.3
			L384.2,574.9z"/>
		<path class="st2" d="M441.2,513.2c-13.1,2.9-20.8,3-20.8,3c2.7,12,11.5,31.7,38,25.9c25.5-5.7,29.6-18.3,29.9-19.6
			c3.3,15.1-4.1,32.6-34.1,39.2c-38.5,8.5-56.8-13-63.8-44.5c-9.3-42.1,8.3-63.9,36.8-70.2c21.3-4.7,45.6-2.2,51.1,22.9
			C481.2,483,481.6,504.2,441.2,513.2z M430.2,461.5c-15.1,3.3-19,16-13.6,40.3c0,0,4.7,0.2,16.7-2.5c16.4-3.6,20.2-12.4,17.8-23.2
			C449.7,469.9,445.6,458.1,430.2,461.5z"/>
		<path class="st2" d="M550.6,488.9c-13.1,2.9-20.8,3-20.8,3c2.7,12,11.5,31.7,38,25.9c25.5-5.7,29.6-18.3,29.9-19.6
			c3.3,15.1-4.1,32.6-34.1,39.2c-38.5,8.5-56.8-13-63.8-44.5c-9.3-42.1,8.3-63.9,36.8-70.2c21.3-4.7,45.6-2.2,51.1,22.9
			C590.6,458.8,591,480,550.6,488.9z M539.6,437.2c-15.1,3.3-19,16-13.6,40.3c0,0,4.7,0.2,16.7-2.5c16.4-3.6,20.2-12.4,17.8-23.2
			C559.1,445.7,555.1,433.8,539.6,437.2z"/>
		<path class="st2" d="M633.8,378.2c-0.9,6.9,0.6,18.1,8.5,69.3l4.8,29.8l-19.9,4.4l-8.3-29c-14.5-49.7-17.9-60.5-21.6-66.4l-2-3.4
			c0,0,5.7-0.9,19.6-3.9c14.1-3.1,19.2-4.7,19.2-4.7L633.8,378.2z M646.2,519.1c-11.7,1.2-17.7-4-19.5-12.1
			c-1.8-8.3,2.6-15.8,12.4-19.2c11.5-1.1,17.5,3.8,19.3,11.9C660.1,508.1,655.9,515.7,646.2,519.1z"/>
	</g>
</g>
</svg>
