<?xml version="1.0" encoding="utf-8"?>
<!-- Generator: Adobe Illustrator 24.3.0, SVG Export Plug-In . SVG Version: 6.00 Build 0)  -->
<svg version="1.1" id="Laag_1" xmlns="http://www.w3.org/2000/svg" xmlns:xlink="http://www.w3.org/1999/xlink" x="0px" y="0px"
	 width="76.6px" height="13.2px" viewBox="0 0 76.6 13.2" style="enable-background:new 0 0 76.6 13.2;" xml:space="preserve">
<g>
	<path d="M4.6,10.3c-0.1-0.2-0.2-0.4-0.2-0.7c-0.5,0.5-1.1,0.8-1.9,0.8c-0.7,0-1.3-0.2-1.8-0.6S0,8.9,0,8.3c0-0.8,0.3-1.4,0.9-1.8
		s1.4-0.6,2.5-0.6h0.9V5.4C4.3,5,4.2,4.8,4,4.6S3.6,4.3,3.2,4.3c-0.3,0-0.6,0.1-0.8,0.2S2.1,4.9,2.1,5.2h-2c0-0.4,0.1-0.8,0.4-1.2
		s0.6-0.7,1.1-0.9s1-0.3,1.6-0.3c0.9,0,1.6,0.2,2.2,0.7s0.8,1.1,0.8,1.9v3.2c0,0.7,0.1,1.2,0.3,1.6v0.1H4.6z M2.9,9
		c0.3,0,0.6-0.1,0.8-0.2s0.4-0.3,0.5-0.5V7H3.6C2.6,7,2,7.3,2,8l0,0.1c0,0.2,0.1,0.4,0.3,0.6S2.6,9,2.9,9z"/>
	<path d="M10.9,8.9c0.4,0,0.7-0.1,0.9-0.3s0.3-0.5,0.4-0.8H14c0,0.5-0.1,1-0.4,1.4s-0.6,0.7-1.1,1s-1,0.3-1.5,0.3
		c-1.1,0-1.9-0.3-2.5-1S7.5,7.9,7.5,6.7V6.5c0-1.1,0.3-2,0.9-2.7s1.4-1,2.5-1c0.9,0,1.7,0.3,2.2,0.8S14,4.8,14,5.7h-1.9
		c0-0.4-0.1-0.7-0.4-0.9s-0.5-0.4-0.9-0.4c-0.5,0-0.8,0.2-1,0.5S9.5,5.8,9.5,6.5v0.2c0,0.8,0.1,1.3,0.3,1.6
		C10,8.7,10.4,8.9,10.9,8.9z"/>
	<path d="M14.8,6.6c0-1.2,0.3-2.1,0.8-2.8s1.2-1,2.1-1c0.8,0,1.4,0.3,1.9,0.9l0.1-0.8h1.7v10.2h-2V9.7c-0.5,0.5-1.1,0.8-1.8,0.8
		c-0.9,0-1.6-0.3-2.1-1S14.8,7.8,14.8,6.6z M16.8,6.7c0,0.7,0.1,1.2,0.4,1.6c0.2,0.4,0.6,0.6,1,0.6c0.6,0,1-0.2,1.3-0.7V5.1
		c-0.2-0.5-0.7-0.7-1.3-0.7c-0.5,0-0.8,0.2-1.1,0.6S16.8,5.9,16.8,6.7z"/>
	<path d="M27.4,9.6c-0.5,0.6-1.2,0.9-2,0.9c-0.8,0-1.4-0.2-1.8-0.7S23,8.7,23,7.8V2.9h2v4.8c0,0.8,0.4,1.2,1.1,1.2
		c0.7,0,1.1-0.2,1.4-0.7V2.9h2v7.4h-1.9L27.4,9.6z"/>
	<path d="M30.8,1c0-0.3,0.1-0.5,0.3-0.7S31.6,0,31.9,0c0.3,0,0.6,0.1,0.8,0.3S33,0.7,33,1c0,0.3-0.1,0.5-0.3,0.7S32.3,2,31.9,2
		s-0.6-0.1-0.8-0.3S30.8,1.3,30.8,1z M32.9,10.3h-2V2.9h2V10.3z"/>
	<path d="M38.6,8.3c0-0.2-0.1-0.4-0.4-0.6s-0.6-0.3-1.2-0.4c-1.8-0.4-2.6-1.1-2.6-2.2c0-0.7,0.3-1.2,0.8-1.6s1.3-0.7,2.1-0.7
		c0.9,0,1.7,0.2,2.3,0.7s0.8,1,0.8,1.7h-2c0-0.3-0.1-0.5-0.3-0.7s-0.5-0.3-0.9-0.3c-0.3,0-0.6,0.1-0.8,0.2S36.3,4.8,36.3,5
		c0,0.2,0.1,0.4,0.3,0.5s0.6,0.3,1,0.3s0.9,0.2,1.2,0.3c1,0.4,1.6,1,1.6,2c0,0.7-0.3,1.2-0.9,1.6s-1.3,0.6-2.2,0.6
		c-0.6,0-1.2-0.1-1.7-0.3s-0.9-0.5-1.1-0.9S34.2,8.4,34.2,8h1.9c0,0.4,0.1,0.6,0.4,0.8s0.6,0.3,1,0.3c0.4,0,0.7-0.1,0.9-0.2
		S38.6,8.5,38.6,8.3z"/>
	<path d="M44.1,1.1v1.8h1.3v1.4h-1.3v3.7c0,0.3,0.1,0.5,0.2,0.6s0.3,0.2,0.6,0.2c0.2,0,0.4,0,0.6,0v1.5c-0.4,0.1-0.8,0.2-1.2,0.2
		c-1.4,0-2.1-0.7-2.1-2.1v-4h-1.1V2.9h1.1V1.1H44.1z"/>
	<path d="M50.8,10.3c-0.1-0.2-0.2-0.4-0.2-0.7c-0.5,0.5-1.1,0.8-1.9,0.8c-0.7,0-1.3-0.2-1.8-0.6s-0.7-0.9-0.7-1.6
		c0-0.8,0.3-1.4,0.9-1.8s1.4-0.6,2.5-0.6h0.9V5.4c0-0.3-0.1-0.6-0.3-0.8s-0.5-0.3-0.8-0.3c-0.3,0-0.6,0.1-0.8,0.2s-0.3,0.4-0.3,0.7
		h-2c0-0.4,0.1-0.8,0.4-1.2s0.6-0.7,1.1-0.9s1-0.3,1.6-0.3c0.9,0,1.6,0.2,2.2,0.7s0.8,1.1,0.8,1.9v3.2c0,0.7,0.1,1.2,0.3,1.6v0.1
		H50.8z M49.1,9c0.3,0,0.6-0.1,0.8-0.2s0.4-0.3,0.5-0.5V7h-0.7c-1,0-1.5,0.3-1.6,1l0,0.1c0,0.2,0.1,0.4,0.3,0.6S48.8,9,49.1,9z"/>
	<path d="M57.2,6.6c0-0.7,0.1-1.4,0.4-2s0.7-1,1.2-1.3s1.1-0.5,1.8-0.5c1,0,1.8,0.3,2.4,0.9s1,1.4,1.1,2.5l0,0.5c0,1.1-0.3,2-1,2.7
		s-1.5,1-2.5,1s-1.9-0.3-2.6-1S57.2,7.8,57.2,6.6L57.2,6.6z M59.1,6.7c0,0.7,0.1,1.2,0.4,1.6c0.3,0.4,0.6,0.6,1.1,0.6
		c0.5,0,0.9-0.2,1.1-0.6c0.3-0.4,0.4-1,0.4-1.8c0-0.7-0.1-1.2-0.4-1.6s-0.6-0.6-1.1-0.6c-0.5,0-0.9,0.2-1.1,0.6S59.1,5.9,59.1,6.7z"
		/>
	<path d="M69.5,4.8c-0.3,0-0.5-0.1-0.7-0.1c-0.7,0-1.2,0.3-1.5,0.8v4.8h-2V2.9h1.9l0.1,0.9c0.4-0.7,0.9-1,1.6-1c0.2,0,0.4,0,0.6,0.1
		L69.5,4.8z"/>
	<path d="M74.6,10.3c-0.1-0.2-0.2-0.4-0.2-0.7c-0.5,0.5-1.1,0.8-1.9,0.8c-0.7,0-1.3-0.2-1.8-0.6S70,8.9,70,8.3
		c0-0.8,0.3-1.4,0.9-1.8s1.4-0.6,2.5-0.6h0.9V5.4c0-0.3-0.1-0.6-0.3-0.8s-0.5-0.3-0.8-0.3c-0.3,0-0.6,0.1-0.8,0.2s-0.3,0.4-0.3,0.7
		h-2c0-0.4,0.1-0.8,0.4-1.2s0.6-0.7,1.1-0.9s1-0.3,1.6-0.3c0.9,0,1.6,0.2,2.2,0.7s0.8,1.1,0.8,1.9v3.2c0,0.7,0.1,1.2,0.3,1.6v0.1
		H74.6z M72.9,9c0.3,0,0.6-0.1,0.8-0.2s0.4-0.3,0.5-0.5V7h-0.7c-1,0-1.5,0.3-1.6,1l0,0.1c0,0.2,0.1,0.4,0.3,0.6S72.6,9,72.9,9z"/>
</g>
</svg>
