<?xml version="1.0" encoding="utf-8"?>
<!-- Generator: Adobe Illustrator 24.3.0, SVG Export Plug-In . SVG Version: 6.00 Build 0)  -->
<svg version="1.1" id="Laag_1" xmlns="http://www.w3.org/2000/svg" xmlns:xlink="http://www.w3.org/1999/xlink" x="0px" y="0px"
	 width="2480.3px" height="826.8px" viewBox="0 0 2480.3 826.8" style="enable-background:new 0 0 2480.3 826.8;"
	 xml:space="preserve">
<style type="text/css">
	.st0{fill:#FFFFFF;}
	.st1{fill:#231F20;}
	.st2{fill-rule:evenodd;clip-rule:evenodd;fill:#FFFFFF;}
</style>
<g transform="scale(4.16667)">
	<path class="st0" d="M0,0h298v198.4H0V0z"/>
	<path class="st1" d="M171,149.1v1.1h-25.3v-1.1c4.9,0,4.9-3.5,4.8-4l-7.8-72.5l-29.2,65.7l-5.8,13.1l-2.4-5.4L72.8,72.7L65,145
		c-0.2,4.1,4.8,4.1,4.8,4.1v1.1H52.3v-1.1c0,0,7.8-0.2,8.4-4.9l8.6-79.4l1.8-16.5h2.5l1.5,3.4l36,81.2L141.8,64l7-15.7h2l0.5,4.9
		l9.6,89C160.9,142.2,161.3,149.1,171,149.1L171,149.1z"/>
	<path class="st1" d="M207.3,110l16.1-44.2l18.1,44.2H207.3z M266.6,143.8l-38-92.5l-1.6-4h-1.4L221,60l-30.5,83.8
		c-1.6,4.5-8.4,5.3-8.4,5.3v1h9.5l0-0.3h0l-0.1,0.3h7.6v-1c0,0-6,0-4.6-4.1h0l11.2-30.7h37.5l12.6,30.7c1.6,4-4.6,4.1-4.6,4.1v1H275
		v-1C275,149.1,268.6,148.3,266.6,143.8z"/>
	<path class="st2" d="M500,138.2c-1.6-2.1-3.3-4.2-4.8-6.4c-2.7-4-5.2-8.2-7.9-12.2c-1.8-2.7-3.9-5.2-5.8-7.8c-2.3-3-4.6-6-6.7-9.2
		c-0.7-1.1-1.2-2.8-1-4.1c0.4-1.8,1.5-3.5,2.4-5.2c0.8-1.6,1.8-3,2.7-4.5c0.8-1.3,1.4-2.7,2.3-3.8c1.6-2.1,3.5-3.9,5-6
		c2.3-3.2,4.7-6.4,6.6-9.8c1.6-2.7,4.6-4.9,3.9-8.8c0-0.2,0.4-0.5,0.5-0.7c0.6-1.1,1.3-2.1,1.6-3.2c0.3-0.9,0.7-2.2,0.1-3.2
		c-1.4-1.3-2.7-1.9-4.6-1.3c-0.1,0-0.4-0.2-0.6-0.4c-0.5-0.3-0.9-0.9-1.4-0.9c-1.6-0.2-3.2-0.3-4.7-0.2c-1,0.1-2.1,0.6-2.8,1.2
		c-1.1,1.1-2.1,2.3-2.9,3.7c-0.9,1.7-2.2,2.9-3.5,4.6c-1,1.3-2.1,3.2-2.6,4.3c-0.4,0.8-2.4,2.1-3.6,3.8c-0.7,1-1.2,2.3-2,3.3
		c-2.1,2.7-4.4,5.4-6.6,8.1c-0.8,1-1.5,2-2.3,3.1c-2.6-2.2-5-4.2-7.3-6.4c-1.3-1.3-2.5-2.8-3.5-4.4c-2.7-4.2-5-8.6-8.1-12.6
		c-1.7-2.2-3.2-4.4-4.4-6.9c-0.9-1.8-1.8-3.8-4.2-4c-1.6-0.1-2.1,0-3.9,0c-1.3,0.2-2.3,0.8-3.9,1.6c-1.6,0.8-2.7-0.3-4-0.6
		c-0.9-0.2-1.7-0.7-2.6-1c-1.6-0.5-3,0.5-3.2,2.2c-0.4,3.8,2.6,5.9,4.2,8.6c1.3,2.2,2.9,4.2,4.4,6.3c0.8,1.1,1.4,2.2,2.2,3.3
		c1.4,1.9,3,3.7,4.4,5.6c2.2,3.1,4.3,6.3,6.6,9.4c1.4,1.9,3.2,3.5,4.5,5.5c2,3.1,3.4,6.8,5.7,9.6c2.4,2.9,1,5.5,0.1,7.9
		c-1.1,2.8-4.3,4.2-5.6,7c-0.2,0.4-0.5,1-0.3,1.9c-0.7,1.1-1.4,0.5-1.8,1.1c-1.5,2.1-3.1,4.1-4.6,6.2c-0.9,1.2-1.9,2.5-2.7,3.8
		c-1.9,2.9-3.6,5.9-5.5,8.8c-1.5,2.2-3.2,4.2-4.7,6.3c-0.9,1.2-1.8,2.5-2.3,3.9c-0.4,1-0.5,2.2-0.3,3.2c0.1,0.4,1.4,0.5,2.1,0.8
		c0.3,0.1,0.5,0.3,0.8,0.4c2.9,1,5.6,2.6,9,1.1c1.6-0.7,3.6-0.4,4.4-2.4c2.7-0.1,3.8-2.7,5.2-4.2c2.3-2.5,3.7-5.9,5.5-8.9
		c1-1.6,1.8-3.5,3.2-4.7c2.5-2.2,4.1-4.9,5.6-7.8c0.3-0.6,0.9-1,1.4-1.5c0.8-0.7,1.6-1.3,2.4-2c0.6-0.6,1-1.3,1.4-1.8
		c3.9,4,7.6,7.7,11.2,11.7c1.8,1.9,3.4,4.1,4.6,6.4c1.6,2.8,5.1,7.9,7.1,9.6c0.2,0.1,0.2,0.4,0.4,0.6c1.5,2.3,3.2,3.9,6.2,3.6
		c2.6-0.3,5.1-0.5,7.7-0.7c1.2-0.1,2.5,0,2.9-1.6c0.2-1.1,1.2-2.8,1.8-3.5c0.4-0.8-0.3-1.3-0.7-1.8
		C501.8,140.6,500.9,139.4,500,138.2L500,138.2z"/>
	<path class="st2" d="M396.3,131.3c-4.7-6.4-9.3-12.8-14-19.2c-2.4-3.3-4.8-6.5-7.2-9.8c-0.4-0.6-0.8-1.7-0.6-2.3
		c1.1-3,2.9-5.7,5.4-7.8l-0.1,0c0.6-1.3,1-2.7,1.7-3.9c2.1-3.3,4.3-6.6,6.5-9.8c3.4-5.1,6.9-10,10.1-15.2c1.6-2.6,3.3-5.4,1.7-8.8
		c-1.1-2.5-2.8-3.5-5.5-2.8c-2.9,0.7-3.1-4.3-5.7-2.8c-4.8,3.1-7.3,8.1-10.3,12.4c-0.4,0.6-1.1,1.8-2,3.2c-0.7,1.1-2.6,1.9-3.4,2.8
		c-2.4,3.1-4.1,6.6-6.2,9.9c-1,1.5-2.1,2.9-3.2,4.3c-0.8,1-1.7,1.1-2.5,0.1c-2.5-3.2-5.1-6.3-7.5-9.6c-2.5-3.4-4.7-7-7-10.5
		c-1.2-1.8-2.5-3.5-3.4-5.3c-1.7-3.4-4-5.8-7.9-6.8c-1.6-0.4-2.6,0.1-3.5,1.2c-1,1.2-2.2,2-3.8,1.3c-1.4-0.7-2.6-1.7-4-2.4
		c-0.7-0.4-1.8-0.7-2.3-0.4c-0.7,0.3-1.3,1.3-1.4,2.1c-0.4,2.6,0.4,4.9,2,7c1.1,1.5,1.8,3.3,2.8,5c0.9,1.6,1.9,3.3,2.9,4.8
		c0.8,1.1,1.9,2.1,2.6,3.2c2.3,3.4,4.5,6.8,6.9,10.1c1.9,2.6,4.3,4.8,6.1,7.5c2.3,3.3,4.3,6.9,6.5,10.4c1.1,1.7,0.6,6.3-0.8,7.7
		c-1.8,1.9-3.7,3.7-5.2,5.9c-3.8,5.3-7.4,10.8-11,16.3c-2.6,3.9-5,7.8-7.4,11.8c-1.2,2-0.7,4.7-0.2,5.4c0.5,0.5,1.8,0.3,3,0.1
		c0.8-0.2,1.3,1.2,2.1,1.5c0.9,0.3,1.9,0.3,2.9,0.4c0.4,0,0.9,0,1.2,0.2c1.3,0.8,4.2,0.7,5.4-0.3c2.4-2.1,4.3-4.5,5.8-7.4
		c1.8-3.4,4.2-6.5,6.5-9.7c2.2-3.1,4.6-6.2,6.9-9.3c1.1-1.4,2.3-2.8,3.5-4.2c0.4,0.4,0.7,0.6,0.9,0.8c1.2,1.7,2.2,3.6,4.3,4.3
		c0.1,0,0.2,0.2,0.3,0.3c2.2,4.5,6.2,7.6,9.1,11.5c0.5,0.7,0.9,1.5,1.2,2.3c0.9,2.2,1.3,4.7,3.8,5.8c0.4,0.2,0.8,0.8,0.8,1.2
		c-0.3,2.3,1.3,3.1,3,3.8c1.5,0.6,3.1,1.4,4.6,1.9c0.4,0.2,1-0.2,1.5-0.2c0.7,0,1.4-0.1,2.1,0c2,0.3,4,1,6.1,1.1
		c1.1,0.1,2.8,0.2,2.4-2.1c-0.2-0.9,0.7-1.6,1.2-2.7c0.1-0.2,0.6-2.9-0.2-4.1C401.5,138,398.8,134.7,396.3,131.3L396.3,131.3z"/>
	<path class="st2" d="M538.8,138.4c-0.1-4.7-0.2-9.5-0.4-14.2c-0.1-3.3-1.5-6.6-0.3-10c0.5-1.5,0.4-3.3,0.4-4.9
		c0.1-2.7-0.2-5.5,0.1-8.2c0.3-2.9-1.7-5.3-0.6-8.5c1-2.9,0.3-6.5,0.3-9.8c0-3.2-0.5-6.5-0.1-9.6c0.4-3.2,0.3-6.1-0.9-9.1
		c-0.2-0.6,0.2-1.5,0.3-2.2c0.1-0.5,0.5-0.9,0.5-1.4c0.1-2.2,0.1-4.4,0.1-6.6c0-0.2-0.1-0.5-0.1-0.8c-0.2-1.6-5.3-3.7-6.5-3
		c-0.4,0.2-1.3,0.1-1.8-0.1c-1.4-0.5-4.9-0.2-5.8-0.3c-0.5-0.1-0.9,0-1.1,0.1c-2.1,0.8-2.7,3.2-2.7,5.4c0,3.3-0.1,6.7-0.2,10
		c-0.1,2.1-0.5,4.3-0.5,6.4c-0.1,4.3-0.1,8.6,0,12.8c0.1,5,0.3,10,0.3,15.1c0,3.8-0.3,7.6-0.4,11.3c0,0.6,0.2,1.3,0.4,1.9
		c0.9,2.4,2.3,4.6,1,7.4c-0.5,1.2-0.4,2.7-0.4,4c0,1.2,0.3,2.4,0.2,3.5c-0.2,3.2-0.9,6.4-0.7,9.5c0.1,1.9-0.1,5.3,0.9,7
		c1.2,1.9,2,2.3,4.1,3.8c1.2,0.8,5.7,1.1,6.7,0.7c0.7-0.3,1.5-0.8,2.2-0.7c2.4,0.2,4.2-0.6,4.6-2.9
		C538.9,142.7,538.8,140.5,538.8,138.4L538.8,138.4z"/>
</g>
</svg>
