<?xml version="1.0" encoding="utf-8"?>
<!-- Generator: Adobe Illustrator 24.0.0, SVG Export Plug-In . SVG Version: 6.00 Build 0)  -->
<svg version="1.1" id="Laag_1" xmlns="http://www.w3.org/2000/svg" xmlns:xlink="http://www.w3.org/1999/xlink" x="0px" y="0px"
	 width="100.4px" height="39.6px" viewBox="0 0 100.4 39.6" style="enable-background:new 0 0 100.4 39.6;" xml:space="preserve">
<style type="text/css">
	.st0{fill:#34B080;}
	.st1{clip-path:url(#SVGID_4_);}
	.st2{fill:#1D1D1B;}
</style>
<g>
	<g>
		<defs>
			<rect id="SVGID_1_" y="0" width="127" height="40.3"/>
		</defs>
		<clipPath id="SVGID_2_">
			<use xlink:href="#SVGID_1_"  style="overflow:visible;"/>
		</clipPath>
	</g>
</g>
<polygon class="st0" points="0,15.5 9.4,10.6 0,5.6 "/>
<g>
	<g>
		<defs>
			<rect id="SVGID_3_" y="0" width="127" height="40.3"/>
		</defs>
		<clipPath id="SVGID_4_">
			<use xlink:href="#SVGID_3_"  style="overflow:visible;"/>
		</clipPath>
		<path class="st1" d="M38.4,34.9h3.3l1.5-5.5l1.5,5.5H48l3.1-9.9h-3.2l-1.6,6l-1.5-5.9h-2.7L40.4,31L39,25.1h-3.5L38.4,34.9z
			 M30.4,32.9c-0.8,0-1.2-0.4-1.2-0.9c0-0.8,0.6-1.1,2-1.1H32v0.6C32,32.3,31.3,32.9,30.4,32.9 M29.2,35.2c1.6,0,2.5-0.7,2.9-1.4V35
			h3.3v-6.4c0-2.6-1.7-3.7-4.5-3.7c-2.7,0-4.6,1.2-4.7,3.5h3.2c0.1-0.6,0.4-1.2,1.3-1.2c1.1,0,1.3,0.6,1.3,1.6V29h-0.9
			c-3.3,0-5.2,0.9-5.2,3.2C25.9,34.3,27.4,35.2,29.2,35.2 M20.3,34.9h3.4v-7.6h2V25h-2v-0.9c0-0.6,0.3-1.1,1.1-1.1
			c0.4,0,0.7,0.1,0.9,0.1v-2.5c-0.5-0.1-0.9-0.2-1.5-0.2c-2.3,0-3.9,1.2-3.9,3.6v0.9h-1.2v2.3h1.2V34.9z M16.5,24.1
			c1.1,0,1.9-0.7,1.9-1.7s-0.8-1.8-1.9-1.8s-1.8,0.8-1.8,1.8C14.6,23.4,15.4,24.1,16.5,24.1 M14.8,34.9h3.4V25h-3.4
			C14.8,25,14.8,34.9,14.8,34.9z"/>
	</g>
</g>
<rect x="26.2" y="37.3" class="st0" width="9.2" height="2.3"/>
<g>
	<path class="st2" d="M51.7,35.1c-0.6,0-1-0.2-1.4-0.6c-0.4-0.4-0.5-0.8-0.5-1.3s0.2-1,0.5-1.3c0.4-0.4,0.8-0.6,1.4-0.6
		c0.6,0,1,0.2,1.4,0.6c0.4,0.4,0.6,0.8,0.6,1.3s-0.2,1-0.6,1.3C52.8,34.9,52.3,35.1,51.7,35.1z"/>
	<path class="st2" d="M63,33.7c-1,0.9-2.3,1.4-3.9,1.4c-1.6,0-2.8-0.5-3.9-1.4c-1-0.9-1.5-2.1-1.5-3.7v-0.2c0-1.6,0.5-2.8,1.5-3.7
		s2.3-1.4,3.9-1.4c1.5,0,2.8,0.5,3.8,1.4s1.5,2.1,1.5,3.7V30C64.5,31.5,64,32.8,63,33.7z M59.2,32.6c0.6,0,1.1-0.2,1.4-0.7
		c0.3-0.4,0.5-1.1,0.5-1.9v-0.2c0-1.7-0.6-2.6-1.9-2.6c-0.6,0-1.1,0.2-1.4,0.6s-0.5,1.1-0.5,1.9V30C57.2,31.7,57.9,32.6,59.2,32.6z"
		/>
	<path class="st2" d="M65,34.8V25h3.4v2c0.6-1.4,1.7-2.1,3.2-2.1V28c-2.1-0.1-3.2,0.7-3.2,2.2v4.7H65V34.8z"/>
	<path class="st2" d="M76.7,38.5c-3.1,0-4.9-1.2-5.2-3.6h3.3c0.2,0.9,0.8,1.3,1.8,1.3c1.4,0,2.1-0.7,2.1-2.1v-1.5
		c-0.3,0.5-0.7,0.9-1.2,1.3c-0.5,0.3-1.1,0.5-1.8,0.5c-1.2,0-2.2-0.4-3-1.3s-1.2-2-1.2-3.5v-0.2c0-1.4,0.4-2.6,1.2-3.4
		c0.8-0.9,1.8-1.3,3-1.3c1.4,0,2.4,0.6,3,1.7V25h3.4v9c0,1.5-0.5,2.6-1.4,3.3S78.5,38.5,76.7,38.5z M75.5,31.3
		c0.3,0.4,0.8,0.6,1.4,0.6s1.1-0.2,1.4-0.6c0.4-0.4,0.5-1,0.5-1.6v-0.1c0-0.7-0.2-1.2-0.5-1.6s-0.8-0.6-1.4-0.6s-1.1,0.2-1.4,0.6
		S75,28.9,75,29.6v0.2C75,30.3,75.2,30.9,75.5,31.3z"/>
</g>
<g>
	<path class="st2" d="M14.7,15.5v-0.3l4.3-7h-3.9V5.7h8.7V6l-4.4,6.9h4.2v2.5H14.7z"/>
	<path class="st2" d="M27.2,4.2c-0.4,0.3-0.8,0.5-1.3,0.5c-0.5,0-1-0.2-1.3-0.5c-0.4-0.3-0.5-0.7-0.5-1.2c0-0.5,0.2-0.9,0.5-1.2
		c0.4-0.3,0.8-0.5,1.3-0.5c0.5,0,1,0.2,1.3,0.5c0.4,0.3,0.5,0.7,0.5,1.2C27.8,3.5,27.6,3.9,27.2,4.2z M24.2,15.5V5.7h3.4v9.8H24.2z"
		/>
	<path class="st2" d="M33.6,15.7c-1.6,0-2.9-0.4-3.9-1.3c-1-0.9-1.5-2.1-1.5-3.7v-0.2c0-1.5,0.5-2.8,1.5-3.7c1-0.9,2.3-1.4,3.8-1.4
		c1.4,0,2.6,0.4,3.6,1.3c0.9,0.9,1.4,2.1,1.4,3.8v0.9h-6.9c0,0.7,0.3,1.2,0.6,1.5s0.8,0.5,1.4,0.5c1,0,1.6-0.4,1.7-1.2h3.2
		c-0.2,1.1-0.6,2-1.5,2.6C36.2,15.4,35.1,15.7,33.6,15.7z M31.7,9.5h3.6c-0.1-1.2-0.6-1.8-1.7-1.8c-0.5,0-0.9,0.2-1.3,0.5
		C32,8.4,31.8,8.9,31.7,9.5z"/>
	<path class="st2" d="M41.9,15.5V1.3h3.4v5.9c0.3-0.6,0.7-1,1.3-1.3c0.5-0.3,1.2-0.5,2-0.5c1,0,1.8,0.3,2.4,0.9
		c0.6,0.6,0.9,1.5,0.9,2.8v6.4h-3.4V9.8c0-1.1-0.5-1.7-1.4-1.7c-0.5,0-0.9,0.2-1.2,0.5s-0.5,0.8-0.5,1.4v5.5H41.9z"/>
	<path class="st2" d="M61.4,14.3c-1,0.9-2.3,1.4-3.9,1.4c-1.6,0-2.8-0.5-3.9-1.4c-1-0.9-1.5-2.1-1.5-3.7v-0.2c0-1.6,0.5-2.8,1.5-3.7
		s2.3-1.4,3.9-1.4c1.5,0,2.8,0.5,3.8,1.4s1.5,2.1,1.5,3.7v0.2C62.9,12.2,62.4,13.4,61.4,14.3z M57.6,13.2c0.6,0,1.1-0.2,1.4-0.7
		c0.3-0.4,0.5-1.1,0.5-1.9v-0.2c0-1.7-0.6-2.6-1.9-2.6c-0.6,0-1.1,0.2-1.4,0.6s-0.5,1.1-0.5,1.9v0.2C55.6,12.3,56.3,13.2,57.6,13.2z
		"/>
	<path class="st2" d="M68.3,15.7c-1.6,0-2.9-0.4-3.9-1.3c-1-0.9-1.5-2.1-1.5-3.7v-0.2c0-1.5,0.5-2.8,1.5-3.7c1-0.9,2.3-1.4,3.8-1.4
		c1.4,0,2.6,0.4,3.6,1.3c0.9,0.9,1.4,2.1,1.4,3.8v0.9h-6.9c0,0.7,0.3,1.2,0.6,1.5s0.8,0.5,1.4,0.5c1,0,1.6-0.4,1.7-1.2h3.2
		c-0.2,1.1-0.6,2-1.5,2.6C70.9,15.4,69.8,15.7,68.3,15.7z M66.4,9.5H70c-0.1-1.2-0.6-1.8-1.7-1.8c-0.5,0-0.9,0.2-1.3,0.5
		C66.7,8.4,66.5,8.9,66.4,9.5z"/>
	<path class="st2" d="M85.3,14.3c-1,0.9-2.3,1.4-3.9,1.4c-1.6,0-2.8-0.5-3.9-1.4c-1-0.9-1.5-2.1-1.5-3.7v-0.2c0-1.6,0.5-2.8,1.5-3.7
		c1-0.9,2.3-1.4,3.9-1.4c1.5,0,2.8,0.5,3.8,1.4s1.5,2.1,1.5,3.7v0.2C86.8,12.2,86.3,13.4,85.3,14.3z M81.5,13.2
		c0.6,0,1.1-0.2,1.4-0.7s0.5-1.1,0.5-1.9v-0.2c0-1.7-0.6-2.6-1.9-2.6c-0.6,0-1.1,0.2-1.4,0.6c-0.3,0.4-0.5,1.1-0.5,1.9v0.2
		C79.5,12.3,80.1,13.2,81.5,13.2z"/>
	<path class="st2" d="M87.4,18.8V5.7h3.4v1.5c0.7-1.2,1.7-1.7,3.1-1.7c1.2,0,2.2,0.4,3,1.3c0.8,0.9,1.2,2.1,1.2,3.8v0.2
		c0,1.6-0.4,2.9-1.2,3.8c-0.8,0.9-1.8,1.3-3,1.3c-0.7,0-1.3-0.2-1.9-0.5c-0.5-0.3-0.9-0.7-1.2-1.2v4.7H87.4z M91.1,12.5
		c0.3,0.4,0.8,0.6,1.4,0.6s1.1-0.2,1.4-0.6c0.3-0.4,0.5-1,0.5-1.9v-0.2c0-0.8-0.2-1.5-0.5-1.9s-0.8-0.6-1.4-0.6s-1.1,0.2-1.4,0.7
		c-0.3,0.4-0.5,1.1-0.5,1.9v0.2C90.6,11.4,90.8,12.1,91.1,12.5z"/>
</g>
</svg>
