<?xml version="1.0" encoding="utf-8"?>
<!-- Generator: Adobe Illustrator 24.0.0, SVG Export Plug-In . SVG Version: 6.00 Build 0)  -->
<svg version="1.1" id="Laag_1" xmlns="http://www.w3.org/2000/svg" xmlns:xlink="http://www.w3.org/1999/xlink" x="0px" y="0px"
	 width="81px" height="47.4px" viewBox="0 0 81 47.4" style="enable-background:new 0 0 81 47.4;" xml:space="preserve">
<style type="text/css">
	.st0{fill:#FFFFFF;}
</style>
<g>
	<path class="st0" d="M1.3,2.4h5.3l1.9,7c0.1,0.3,0.2,0.6,0.3,1s0.2,0.8,0.3,1.2c0.1,0.5,0.2,0.9,0.4,1.5l0,0c0.1-0.5,0.2-1,0.3-1.5
		c0.1-0.4,0.2-0.8,0.3-1.2s0.2-0.7,0.3-1l2-7h5.4v16h-3.6v-8.1c0-0.2,0-0.4,0-0.8c0-0.4,0-0.7,0-1.1c0-0.4,0-0.9,0-1.4l0,0
		c-0.1,0.6-0.2,1-0.3,1.4c-0.1,0.3-0.2,0.7-0.2,1c-0.1,0.3-0.1,0.6-0.2,0.7l-2.3,8.3H7.9l-2.3-8.3c0-0.1-0.1-0.4-0.2-0.7
		s-0.2-0.7-0.2-1C5,8,4.9,7.6,4.8,7.1l0,0c0,0.5,0,0.9,0,1.4c0,0.4,0,0.7,0,1.1c0,0.4,0,0.6,0,0.8v8H1.3V2.4z"/>
	<path class="st0" d="M25.4,18.8c-0.9,0-1.8-0.2-2.5-0.5C22.1,18,21.5,17.6,21,17c-0.5-0.5-1-1.2-1.2-1.9c-0.3-0.7-0.4-1.5-0.4-2.4
		s0.1-1.7,0.4-2.4s0.7-1.4,1.2-1.9s1.2-1,1.9-1.3c0.8-0.3,1.6-0.5,2.5-0.5s1.8,0.2,2.5,0.5c0.8,0.3,1.4,0.7,1.9,1.3
		c0.5,0.5,0.9,1.2,1.2,1.9c0.3,0.7,0.4,1.5,0.4,2.4s-0.1,1.7-0.4,2.4s-0.7,1.4-1.2,1.9s-1.2,1-1.9,1.3
		C27.2,18.6,26.3,18.8,25.4,18.8z M25.4,16.2c0.8,0,1.4-0.3,1.8-1c0.4-0.6,0.6-1.5,0.6-2.5s-0.2-1.9-0.6-2.5s-1-1-1.8-1
		s-1.4,0.3-1.8,1c-0.4,0.6-0.6,1.5-0.6,2.5s0.2,1.9,0.6,2.5C24,15.8,24.6,16.2,25.4,16.2z"/>
	<path class="st0" d="M37.2,18.8c-0.7,0-1.4-0.1-2-0.4s-1.1-0.7-1.6-1.2c-0.4-0.5-0.8-1.2-1-1.9s-0.4-1.6-0.4-2.6
		c0-0.9,0.1-1.7,0.4-2.5c0.2-0.7,0.6-1.4,1-1.9s1-0.9,1.6-1.2c0.6-0.3,1.3-0.4,2-0.4c0.8,0,1.5,0.2,1.9,0.5c0.5,0.3,0.9,0.7,1.3,1.2
		h0.1v-6h3.7v16h-3.5v-1.5l0,0c-0.3,0.6-0.8,1.1-1.4,1.4C38.7,18.6,38,18.8,37.2,18.8z M38.2,15.9c0.8,0,1.4-0.3,1.8-0.9
		c0.4-0.6,0.6-1.4,0.6-2.3c0-0.5,0-0.9-0.1-1.3c-0.1-0.4-0.2-0.8-0.4-1.1s-0.4-0.5-0.7-0.7s-0.6-0.2-1-0.2c-0.7,0-1.3,0.3-1.7,0.9
		c-0.4,0.6-0.6,1.4-0.6,2.4s0.2,1.8,0.6,2.4C36.9,15.6,37.5,15.9,38.2,15.9z"/>
	<path class="st0" d="M51.5,18.7c-0.9,0-1.8-0.2-2.6-0.5C48.2,18,47.6,17.5,47,17c-0.5-0.5-0.9-1.2-1.2-1.9s-0.4-1.6-0.4-2.4
		c0-0.9,0.1-1.6,0.4-2.4c0.3-0.7,0.7-1.4,1.2-1.9s1.1-1,1.9-1.3c0.7-0.3,1.5-0.5,2.4-0.5c0.8,0,1.6,0.1,2.2,0.4
		c0.6,0.3,1.2,0.6,1.7,1.1c0.7,0.6,1.2,1.4,1.5,2.4s0.5,2,0.5,3.2H49c0.1,0.8,0.4,1.4,0.8,1.8c0.4,0.4,1,0.7,1.8,0.7
		c0.5,0,0.9-0.1,1.2-0.3c0.3-0.2,0.6-0.5,0.7-0.8H57c-0.1,0.5-0.3,1-0.7,1.5c-0.3,0.5-0.7,0.9-1.3,1.2c-0.5,0.3-1,0.6-1.6,0.8
		C52.9,18.6,52.3,18.7,51.5,18.7z M53.5,11.4c-0.1-0.7-0.3-1.2-0.7-1.6c-0.4-0.4-0.9-0.6-1.5-0.6c-0.7,0-1.2,0.2-1.6,0.6
		c-0.4,0.4-0.6,0.9-0.7,1.6H53.5z"/>
	<path class="st0" d="M63.4,18.8c-1.7,0-3-0.4-4-1.1s-1.5-1.7-1.6-3h3.5c0.1,0.6,0.3,1,0.6,1.3c0.4,0.3,0.8,0.4,1.5,0.4
		c0.6,0,1-0.1,1.3-0.3s0.5-0.5,0.5-0.9c0-0.3-0.1-0.5-0.2-0.6c-0.2-0.2-0.4-0.3-0.6-0.4c-0.3-0.1-0.6-0.2-0.9-0.2
		c-0.4-0.1-0.7-0.1-1.1-0.2c-0.5-0.1-1-0.2-1.5-0.3s-0.9-0.3-1.3-0.6c-0.4-0.3-0.7-0.6-1-1c-0.2-0.4-0.4-1-0.4-1.6s0.1-1.1,0.4-1.6
		s0.6-0.8,1.1-1.2c0.4-0.3,1-0.5,1.6-0.7s1.2-0.2,1.9-0.2c1.6,0,2.9,0.3,3.7,1c0.9,0.7,1.3,1.6,1.4,2.7h-3.4
		c-0.1-0.5-0.3-0.9-0.6-1.1C63.9,9,63.5,8.9,63,8.9c-0.4,0-0.8,0.1-1.1,0.3s-0.5,0.4-0.5,0.8c0,0.2,0.1,0.4,0.2,0.5
		c0.1,0.1,0.4,0.2,0.6,0.3c0.3,0.1,0.5,0.2,0.9,0.2c0.3,0.1,0.7,0.1,1,0.2c0.5,0.1,1,0.2,1.5,0.3s1,0.3,1.4,0.6s0.8,0.6,1,1.1
		c0.3,0.5,0.4,1.1,0.4,1.8c0,0.6-0.1,1.2-0.4,1.7s-0.6,0.9-1.1,1.2c-0.5,0.3-1,0.6-1.7,0.7C64.8,18.7,64.1,18.8,63.4,18.8z"/>
	<path class="st0" d="M74,18.5c-0.5,0-1,0-1.5-0.1c-0.4-0.1-0.8-0.3-1.2-0.5c-0.3-0.2-0.6-0.6-0.8-1c-0.2-0.4-0.3-0.9-0.3-1.5V9.2
		h-1.5V6.9h1.5V3.3h3.6v3.6H76v2.3h-2.1v5.4c0,0.4,0.1,0.7,0.3,0.9c0.2,0.1,0.5,0.2,0.9,0.2c0.2,0,0.3,0,0.5,0c0.1,0,0.3,0,0.3,0
		v2.7c-0.2,0-0.4,0.1-0.8,0.1C74.9,18.5,74.5,18.5,74,18.5z"/>
</g>
<g>
	<path class="st0" d="M1.3,25.7h11.9V29h-8v3.2h6.7v3.2H5.3v6.2h-4C1.3,41.6,1.3,25.7,1.3,25.7z"/>
	<path class="st0" d="M16.9,42c-0.6,0-1.1-0.1-1.6-0.2c-0.5-0.1-0.9-0.4-1.2-0.7s-0.6-0.7-0.8-1.1c-0.2-0.4-0.3-0.9-0.3-1.5
		s0.1-1.2,0.3-1.6c0.2-0.4,0.5-0.8,1-1.1c0.4-0.3,0.9-0.5,1.4-0.6s1.1-0.3,1.7-0.3c1.1-0.1,1.8-0.3,2.3-0.4c0.4-0.2,0.6-0.4,0.6-0.8
		c0-0.4-0.1-0.7-0.4-0.9c-0.2-0.2-0.6-0.3-1.2-0.3s-1,0.1-1.3,0.4c-0.3,0.3-0.5,0.6-0.5,1.1h-3.4c0-0.5,0.1-1,0.4-1.5
		c0.2-0.5,0.5-0.9,1-1.3c0.4-0.4,1-0.6,1.6-0.9c0.6-0.2,1.4-0.3,2.3-0.3s1.6,0.1,2.2,0.2c0.6,0.2,1.1,0.4,1.5,0.7
		c0.5,0.4,0.9,0.8,1.1,1.4c0.2,0.6,0.4,1.2,0.4,1.9V40c0,0.5,0,0.8,0.1,1.1s0.2,0.4,0.3,0.5v0.2h-3.5c-0.1-0.1-0.2-0.3-0.2-0.5
		c-0.1-0.2-0.1-0.5-0.2-0.8l0,0c-0.3,0.5-0.8,0.9-1.3,1.1C18.4,41.9,17.7,42,16.9,42z M18,39.7c0.7,0,1.2-0.2,1.7-0.6
		c0.4-0.4,0.6-0.9,0.6-1.5v-1.4c-0.2,0.1-0.5,0.2-0.8,0.3s-0.7,0.2-1,0.3c-0.7,0.2-1.2,0.4-1.5,0.6c-0.3,0.2-0.5,0.5-0.5,1
		s0.1,0.8,0.4,1S17.6,39.7,18,39.7z"/>
	<path class="st0" d="M30.5,42.1c-1.7,0-3-0.4-4-1.1c-1-0.7-1.5-1.7-1.6-3h3.5c0.1,0.6,0.3,1,0.6,1.3c0.4,0.3,0.8,0.4,1.5,0.4
		c0.6,0,1-0.1,1.3-0.3s0.5-0.5,0.5-0.9c0-0.3-0.1-0.5-0.2-0.6c-0.2-0.2-0.4-0.3-0.6-0.4c-0.3-0.1-0.6-0.2-0.9-0.2
		c-0.4-0.1-0.7-0.1-1.1-0.2c-0.5-0.1-1-0.2-1.5-0.3s-0.9-0.3-1.3-0.6s-0.7-0.6-1-1c-0.2-0.4-0.4-1-0.4-1.6s0.1-1.1,0.4-1.6
		s0.6-0.8,1.1-1.2c0.4-0.3,1-0.5,1.6-0.7s1.2-0.2,1.9-0.2c1.6,0,2.9,0.3,3.7,1c0.9,0.7,1.3,1.6,1.4,2.7H32c-0.1-0.5-0.3-0.9-0.6-1.1
		c-0.3-0.2-0.7-0.3-1.2-0.3c-0.4,0-0.8,0.1-1.1,0.3c-0.3,0.2-0.5,0.4-0.5,0.8c0,0.2,0.1,0.4,0.2,0.5s0.4,0.2,0.6,0.3
		c0.3,0.1,0.5,0.2,0.9,0.2c0.3,0.1,0.7,0.1,1,0.2c0.5,0.1,1,0.2,1.5,0.3s1,0.3,1.4,0.6s0.8,0.6,1,1.1c0.3,0.5,0.4,1.1,0.4,1.8
		c0,0.6-0.1,1.2-0.4,1.7c-0.3,0.5-0.6,0.9-1.1,1.2s-1,0.6-1.7,0.7C31.9,42,31.2,42.1,30.5,42.1z"/>
	<path class="st0" d="M36.9,25.7h3.7v6h0.1c0.4-0.6,0.9-1,1.4-1.3s1.2-0.5,2-0.5c0.6,0,1.2,0.1,1.7,0.3c0.5,0.2,0.9,0.5,1.3,0.9
		c0.3,0.4,0.6,0.8,0.8,1.4c0.2,0.5,0.3,1.1,0.3,1.8v7.5h-3.7V35c0-0.6-0.1-1.1-0.4-1.5c-0.3-0.4-0.7-0.6-1.3-0.6s-1.1,0.2-1.5,0.7
		c-0.4,0.4-0.5,1-0.5,1.7v6.3h-3.7V25.7H36.9z"/>
	<path class="st0" d="M49.7,25.7h3.7v3h-3.7V25.7z M49.7,30.2h3.7v11.5h-3.7V30.2z"/>
	<path class="st0" d="M60.7,42.1c-0.9,0-1.8-0.2-2.5-0.5c-0.8-0.3-1.4-0.7-1.9-1.3c-0.5-0.5-1-1.2-1.2-1.9c-0.3-0.7-0.4-1.5-0.4-2.4
		s0.1-1.7,0.4-2.4c0.3-0.7,0.7-1.4,1.2-1.9c0.5-0.5,1.2-1,1.9-1.3c0.8-0.3,1.6-0.5,2.5-0.5s1.8,0.2,2.5,0.5c0.8,0.3,1.4,0.7,1.9,1.3
		c0.5,0.5,0.9,1.2,1.2,1.9c0.3,0.7,0.4,1.5,0.4,2.4s-0.1,1.7-0.4,2.4s-0.7,1.4-1.2,1.9s-1.2,1-1.9,1.3
		C62.5,41.9,61.6,42.1,60.7,42.1z M60.7,39.5c0.8,0,1.4-0.3,1.8-1c0.4-0.6,0.6-1.5,0.6-2.5s-0.2-1.9-0.6-2.5c-0.4-0.6-1-1-1.8-1
		s-1.4,0.3-1.8,1c-0.4,0.6-0.6,1.5-0.6,2.5s0.2,1.9,0.6,2.5S59.9,39.5,60.7,39.5z"/>
	<path class="st0" d="M68,30.2h3.5v1.6h0.1c0.4-0.6,0.9-1.1,1.5-1.4s1.2-0.5,2.1-0.5c0.6,0,1.2,0.1,1.7,0.3c0.5,0.2,0.9,0.5,1.3,0.9
		c0.3,0.4,0.6,0.8,0.8,1.4c0.2,0.5,0.3,1.1,0.3,1.8v7.5h-3.7V35c0-0.6-0.1-1.1-0.4-1.5s-0.7-0.6-1.3-0.6c-0.6,0-1.1,0.2-1.5,0.7
		c-0.4,0.4-0.5,1-0.5,1.7v6.3H68V30.2z"/>
</g>
</svg>
