<?xml version="1.0" encoding="utf-8"?>
<!-- Generator: Adobe Illustrator 24.3.0, SVG Export Plug-In . SVG Version: 6.00 Build 0)  -->
<svg version="1.1" id="Layer_1" xmlns="http://www.w3.org/2000/svg" xmlns:xlink="http://www.w3.org/1999/xlink" x="0px" y="0px"
	 width="210.5px" height="76.8px" viewBox="0 0 210.5 76.8" style="enable-background:new 0 0 210.5 76.8;" xml:space="preserve">
<style type="text/css">
	.st0{fill:#E20613;}
	.st1{fill:#FFFFFF;}
</style>
<rect class="st0" width="210.5" height="76.8"/>
<polygon class="st1" points="82.9,19.2 82.9,35.2 76.5,35.2 76.5,19.2 70.2,19.2 70.2,57.6 76.5,57.6 76.5,41.6 82.9,41.6 
	82.9,57.6 89.3,57.6 89.3,19.2 "/>
<g>
	<path class="st1" d="M95.7,48V19.2h6.4V48c0,1.8,1.4,3.2,3.2,3.2s3.2-1.4,3.2-3.2V19.2h6.4V48c0,5.3-4.3,9.6-9.6,9.6
		C100,57.6,95.7,53.3,95.7,48"/>
	<path class="st1" d="M28.7,57.6c5.3,0,9.6-4.3,9.6-9.6c0-2.5-1-4.8-2.5-6.5l-9.5-10.7c-0.5-0.6-0.7-1.3-0.7-2
		c0-1.8,1.4-3.2,3.2-3.2c1.8,0,3.2,1.4,3.2,3.2V32h6.4v-3.2c0-5.3-4.3-9.6-9.6-9.6c-5.3,0-9.6,4.3-9.6,9.6c0,2.3,0.8,4.5,2.2,6.1
		l9.5,10.8c0.6,0.6,1,1.4,1,2.4c0,1.8-1.4,3.2-3.2,3.2c-1.8,0-3.2-1.4-3.2-3.2v-3.2h-6.4V48C19.2,53.3,23.4,57.6,28.7,57.6"/>
	<path class="st1" d="M44.7,28.8c0-5.3,4.3-9.6,9.6-9.6c5.3,0,9.6,4.3,9.6,9.6V32h-6.4v-3.2c0-1.8-1.4-3.2-3.2-3.2
		c-1.8,0-3.2,1.4-3.2,3.2V48c0,1.8,1.4,3.2,3.2,3.2c1.8,0,3.2-1.4,3.2-3.2v-3.2h6.4V48c0,5.3-4.3,9.6-9.6,9.6
		c-5.3,0-9.6-4.3-9.6-9.6V28.8z"/>
	<polygon class="st1" points="133.9,19.2 133.9,36.8 121.2,19.2 121.2,57.6 127.6,57.6 127.6,40 140.3,57.6 140.3,19.2 	"/>
	<path class="st1" d="M146.7,28.8c0-5.3,4.3-9.6,9.6-9.6c5.3,0,9.6,4.3,9.6,9.6V32h-6.4v-3.2c0-1.8-1.4-3.2-3.2-3.2
		c-1.8,0-3.2,1.4-3.2,3.2V48c0,1.8,1.4,3.2,3.2,3.2c1.8,0,3.2-1.4,3.2-3.2v-3.2h6.4V48c0,5.3-4.3,9.6-9.6,9.6
		c-5.3,0-9.6-4.3-9.6-9.6V28.8z"/>
	<polygon class="st1" points="184.9,19.2 178.6,32 178.6,19.2 172.2,19.2 172.2,57.6 178.6,57.6 178.6,44.8 184.9,57.6 191.3,57.6 
		181.7,38.4 191.3,19.2 	"/>
</g>
</svg>
