<?xml version="1.0" encoding="utf-8"?>
<!-- Generator: Adobe Illustrator 24.0.0, SVG Export Plug-In . SVG Version: 6.00 Build 0)  -->
<svg version="1.1" id="Layer_1" xmlns="http://www.w3.org/2000/svg" xmlns:xlink="http://www.w3.org/1999/xlink" x="0px" y="0px"
	 width="303.4px" height="179.4px" viewBox="0 0 303.4 179.4" style="enable-background:new 0 0 303.4 179.4;" xml:space="preserve"
	>
<style type="text/css">
	.st0{fill:#FFFFFF;}
	.st1{opacity:0.6;}
	.st2{fill-rule:evenodd;clip-rule:evenodd;fill:#FFFFFF;}
	.st3{opacity:0.8;fill-rule:evenodd;clip-rule:evenodd;fill:#FFFFFF;}
	.st4{opacity:0.5;fill-rule:evenodd;clip-rule:evenodd;fill:#FFFFFF;}
</style>
<g>
	<g>
		<rect y="-0.7" width="303.4" height="179.9"/>
		<g>
			<g>
				<path class="st0" d="M59.8,31.5c3.5,2.8,5.3,6.9,5.4,12.2c0,5.3-1.8,9.4-5.4,12.2c-3.5,2.8-8.6,4.2-15.3,4.2H27.4V27.3h17.2
					C51.2,27.3,56.3,28.7,59.8,31.5z M54.2,51.2c2.3-1.7,3.5-4.1,3.5-7.5c0-3.3-1.2-5.8-3.5-7.5c-2.3-1.7-5.8-2.5-10.6-2.5h-9.1v20
					h9.1C48.4,53.6,51.9,52.8,54.2,51.2z"/>
				<path class="st0" d="M102.8,60H69.5v-6.4h26v-6.9h-26v-6.1h26v-7h-26v-6.4h33.3V60z"/>
				<path class="st0" d="M115.8,59.1c-3.6-1-6.4-2.4-8.2-4l1.7-6.5c2.8,1.9,5.7,3.3,8.8,4.1c3.1,0.9,6.6,1.3,10.7,1.3
					c2.9,0,5-0.3,6.2-1c1.3-0.7,1.9-1.6,1.9-2.6c0-1-0.4-1.7-1.3-2.2c-0.9-0.5-1.9-0.8-3.2-0.9c-1.3-0.1-3.1-0.3-5.6-0.3
					c-1,0-1.7,0-2.2,0c-5.5-0.2-9.5-1.1-12.2-2.9c-2.7-1.7-4-4.3-4-7.6c0-3.3,1.4-5.8,4.3-7.4s6.7-2.5,11.5-2.5
					c7.7,0,14.2,1.8,19.4,5.4l-1.6,6.6c-2.5-1.8-5.5-3.1-8.9-4c-3.4-0.9-6.9-1.3-10.5-1.3c-1.9,0-3.5,0.3-4.8,0.8s-1.9,1.4-1.9,2.5
					c0,1.3,0.8,2.3,2.5,2.8c1.6,0.5,4.3,0.8,8,0.9c3.7,0.1,6.8,0.4,9.4,1c2.6,0.6,4.7,1.6,6.2,3.1c1.5,1.5,2.3,3.6,2.3,6.2
					c0,2.2-0.7,4.1-2.1,5.6c-1.4,1.5-3.4,2.7-6,3.5c-2.6,0.8-5.5,1.2-8.9,1.2C123.3,60.7,119.5,60.2,115.8,59.1z"/>
				<path class="st0" d="M169.2,33.6v20h12.7V60h-32.8v-6.4h12.7v-20h-12.7v-6.4h32.8v6.4H169.2z"/>
				<path class="st0" d="M204.8,41.7V48h-11.1v4.6c2.8,0.8,6,1.2,9.8,1.2c5.1,0,9-0.9,11.5-2.6c2.6-1.7,3.8-4.3,3.8-7.8
					c0-2-0.6-3.8-1.9-5.3c-1.2-1.5-3-2.7-5.3-3.5c-2.3-0.8-4.9-1.3-7.9-1.3c-5.2,0-9.9,1.3-14.1,3.9l-2.7-6.2
					c2.6-1.7,5.3-2.9,8.2-3.5c2.9-0.6,5.9-0.9,9-0.9c4.4,0,8.3,0.7,11.6,2.1c3.4,1.4,5.9,3.4,7.8,5.9c1.8,2.6,2.8,5.5,2.8,8.9
					c0,3.6-0.9,6.7-2.6,9.3c-1.7,2.6-4.3,4.5-7.6,5.8c-3.3,1.3-7.3,2-11.9,2c-6.3,0-12.2-1.1-17.8-3.3V41.7H204.8z"/>
				<path class="st0" d="M231.6,60V27.3h6l25,22.2V27.3h7.3V60h-6l-25-22.2V60H231.6z"/>
				<path class="st0" d="M35.8,105.3c-3.6-1-6.4-2.4-8.2-4l1.7-6.5c2.8,1.9,5.7,3.3,8.8,4.1c3.1,0.9,6.6,1.3,10.7,1.3
					c2.9,0,5-0.3,6.2-1c1.3-0.7,1.9-1.6,1.9-2.6c0-1-0.4-1.7-1.3-2.2c-0.9-0.5-1.9-0.8-3.2-0.9c-1.3-0.1-3.1-0.3-5.6-0.3
					c-1,0-1.7,0-2.2,0c-5.5-0.2-9.5-1.1-12.2-2.9c-2.7-1.7-4-4.3-4-7.6c0-3.3,1.4-5.8,4.3-7.4c2.9-1.6,6.7-2.5,11.5-2.5
					c7.7,0,14.2,1.8,19.4,5.4L62,84.7c-2.5-1.8-5.5-3.1-8.9-4c-3.4-0.9-6.9-1.3-10.5-1.3c-1.9,0-3.5,0.3-4.8,0.8
					c-1.3,0.5-1.9,1.4-1.9,2.5c0,1.3,0.8,2.3,2.5,2.8c1.6,0.5,4.3,0.8,8,0.9c3.7,0.1,6.8,0.4,9.4,1c2.6,0.6,4.7,1.6,6.2,3.1
					c1.5,1.5,2.3,3.6,2.3,6.2c0,2.2-0.7,4.1-2.1,5.6c-1.4,1.5-3.4,2.7-6,3.5c-2.6,0.8-5.5,1.2-8.9,1.2
					C43.3,106.8,39.5,106.3,35.8,105.3z"/>
				<path class="st0" d="M67.8,99.8h15.6V73.4h7.3v26.4h15.6v6.4H67.8V99.8z"/>
				<path class="st0" d="M119.5,105c-2.8-1.2-5-3-6.5-5.3c-1.5-2.3-2.3-5.2-2.3-8.5V73.4h7.3v16c0,2.7,0.4,4.8,1.2,6.3
					c0.8,1.5,2,2.6,3.7,3.3c1.6,0.7,3.8,1,6.5,1c2.7,0,4.9-0.3,6.5-1c1.6-0.7,2.9-1.7,3.7-3.3c0.8-1.5,1.2-3.6,1.2-6.3v-16h7.3v17.8
					c0,3.3-0.8,6.1-2.3,8.5c-1.5,2.3-3.7,4.1-6.5,5.3c-2.8,1.2-6.1,1.8-9.9,1.8C125.6,106.8,122.3,106.2,119.5,105z"/>
				<path class="st0" d="M185.1,77.6c3.5,2.8,5.3,6.9,5.4,12.2c0,5.3-1.8,9.4-5.4,12.2c-3.5,2.8-8.6,4.2-15.3,4.2h-17.2V73.4h17.2
					C176.5,73.4,181.6,74.8,185.1,77.6z M179.5,97.3c2.3-1.7,3.5-4.1,3.5-7.5s-1.2-5.8-3.5-7.5s-5.8-2.5-10.6-2.5h-9.1v20h9.1
					C173.7,99.8,177.2,98.9,179.5,97.3z"/>
				<path class="st0" d="M214.8,79.8v20h12.7v6.4h-32.8v-6.4h12.7v-20h-12.7v-6.4h32.8v6.4H214.8z"/>
				<path class="st0" d="M241.5,104.8c-3-1.4-5.3-3.3-6.9-5.9c-1.6-2.6-2.5-5.6-2.5-9.1c0-3.5,0.8-6.5,2.5-9c1.7-2.6,4-4.5,7-5.9
					c3-1.4,6.4-2.1,10.3-2.1c3.9,0,7.4,0.7,10.3,2.1c3,1.4,5.3,3.4,7,5.9c1.7,2.6,2.5,5.6,2.5,9c0,3.5-0.8,6.6-2.5,9.1
					c-1.6,2.6-3.9,4.5-6.9,5.9c-3,1.4-6.4,2-10.4,2C247.9,106.8,244.5,106.1,241.5,104.8z M258.3,98.8c1.8-0.8,3.3-2,4.3-3.5
					c1-1.5,1.5-3.4,1.5-5.5c0-2.1-0.5-3.9-1.6-5.4c-1-1.5-2.5-2.7-4.3-3.5c-1.9-0.8-4-1.2-6.4-1.2c-2.4,0-4.5,0.4-6.4,1.2
					c-1.9,0.8-3.3,2-4.3,3.5c-1,1.5-1.5,3.3-1.5,5.4c0,2.1,0.5,4,1.5,5.5c1,1.5,2.5,2.7,4.3,3.5c1.9,0.8,4,1.2,6.4,1.2
					C254.3,100,256.4,99.6,258.3,98.8z"/>
			</g>
		</g>
	</g>
	<g>
		<g>
			<g>
				<g>
					<g>
						<g class="st1">
							<path class="st2" d="M190.5,157.4c-0.5,0-1.1-0.3-1.1-1v-12.2h-2.1c-0.7,0-1.1-0.5-1.1-1c0-0.5,0.4-1.1,1.1-1.1h6.3
								c0.7,0,1.1,0.5,1.1,1.1c0,0.5-0.4,1-1.1,1h-2.1v12.2C191.6,157.1,191,157.4,190.5,157.4"/>
							<path class="st2" d="M198.6,148.6c-0.9,0-1.6,0.6-1.6,1.5v1h3.3v-0.9c0-0.9-0.7-1.5-1.5-1.5H198.6 M198.7,157.4h-0.2
								c-2,0-3.7-1.5-3.7-3.5v-3.7c0-2,1.7-3.6,3.7-3.6h0.2c2,0,3.7,1.5,3.7,3.6v1.8c0,0.5-0.5,1.1-1.1,1.1H197v0.8
								c0,0.9,0.7,1.5,1.6,1.5h0.2c1.5,0,1.2-1.5,2.3-1.5c0.6,0,1.1,0.4,1.1,0.9c0,0.1,0,0.3-0.1,0.5
								C201.4,156.6,200.4,157.4,198.7,157.4"/>
							<path class="st2" d="M210.8,157.4c-0.3,0-0.6-0.1-0.9-0.5l-2-3.1l-2,3.1c-0.2,0.4-0.5,0.5-0.9,0.5c-0.6,0-1.1-0.5-1.1-1
								c0-0.2,0-0.4,0.2-0.6l2.5-4l-2.3-3.6c-0.2-0.2-0.2-0.4-0.2-0.6c0-0.5,0.5-1.1,1.1-1.1c0.3,0,0.6,0.2,0.9,0.5l1.8,2.8l1.8-2.8
								c0.2-0.4,0.5-0.5,0.9-0.5c0.6,0,1.1,0.5,1.1,1.1c0,0.2,0,0.4-0.2,0.6l-2.3,3.6l2.5,4c0.1,0.2,0.2,0.4,0.2,0.6
								C211.9,156.9,211.4,157.4,210.8,157.4"/>
							<path class="st2" d="M217.7,157.3c-1.7,0-3-1.3-3-3v-5.6h-0.4c-0.7,0-1.1-0.5-1.1-1.1c0-0.5,0.4-1,1.1-1h0.4V143
								c0-0.7,0.5-1.1,1-1.1c0.5,0,1.1,0.4,1.1,1.1v3.6h0.8c0.7,0,1.1,0.5,1.1,1c0,0.5-0.4,1.1-1.1,1.1h-0.8v5.6
								c0,0.4,0.4,0.9,0.9,0.9c0.7,0,1.1,0.5,1.1,1C218.8,156.8,218.5,157.3,217.7,157.3"/>
							<path class="st2" d="M222,144.5c-0.5,0-1-0.4-1-1V143c0-0.7,0.5-1.1,1-1.1c0.5,0,1.1,0.4,1.1,1.1v0.5
								C223.1,144.2,222.5,144.5,222,144.5 M222,157.4c-0.5,0-1.1-0.3-1.1-1v-8.7c0-0.7,0.5-1.1,1.1-1.1c0.5,0,1.1,0.4,1.1,1.1v8.7
								C223.1,157.1,222.5,157.4,222,157.4"/>
							<path class="st2" d="M229.2,148.6c-0.9,0-1.6,0.6-1.6,1.5v1h3.3v-0.9c0-0.9-0.7-1.5-1.5-1.5H229.2 M229.4,157.4h-0.2
								c-2,0-3.7-1.5-3.7-3.5v-3.7c0-2,1.7-3.6,3.7-3.6h0.2c2,0,3.7,1.5,3.7,3.6v1.8c0,0.5-0.5,1.1-1.1,1.1h-4.3v0.8
								c0,0.9,0.7,1.5,1.6,1.5h0.2c1.5,0,1.2-1.5,2.3-1.5c0.6,0,1.1,0.4,1.1,0.9c0,0.1,0,0.3-0.1,0.5
								C232,156.6,231,157.4,229.4,157.4"/>
							<path class="st2" d="M238.4,157.3c-2,0-3-1.1-3-3V143c0-0.6,0.4-1.1,1.1-1.1c0.6,0,1.1,0.4,1.1,1v11.3c0,0.5,0.4,0.9,0.9,0.9
								c0.6,0,1.1,0.4,1.1,1C239.4,156.9,239,157.3,238.4,157.3"/>
							<path class="st2" d="M248.7,157.3h-5.9c-0.6,0-1.1-0.5-1.1-1.1V143c0-0.7,0.5-1.1,1.1-1.1c0.5,0,1,0.4,1,1.1v12.2h4.9
								c0.7,0,1.1,0.5,1.1,1.1C249.8,156.7,249.4,157.3,248.7,157.3"/>
							<path class="st2" d="M256.9,152.4c-1.6,0.4-3.3,0.3-3.3,1.7c0,0.7,0.6,1.3,1.6,1.3h0.2c0.9,0,1.6-0.7,1.6-1.5V152.4
								 M259.2,157.4c-0.7,0-1.3-0.4-1.7-0.8c-0.6,0.5-1.4,0.8-2.2,0.8h-0.2c-1.8,0-3.6-1-3.6-3.3V154c0-3.1,3.5-3.2,5.1-3.5
								c0.3-0.1,0.3-0.3,0.3-0.4c0-0.9-0.6-1.4-1.4-1.4h-0.2c-0.6,0-1.2,0.2-1.4,0.9c-0.2,0.4-0.6,0.6-0.9,0.6c-0.6,0-1.1-0.4-1.1-1
								c0-0.2,0-0.3,0.1-0.5c0.7-1.6,2.2-2.1,3.4-2.1h0.2c1.8,0,3.6,1.3,3.6,3.3v4.9c0,0.3,0,0.5,0.4,0.6c0.6,0.1,0.9,0.6,0.9,1.1
								C260.2,156.9,259.8,157.4,259.2,157.4"/>
							<path class="st2" d="M266,148.6c-0.9,0-1.6,0.7-1.6,1.5v3.6c0,0.8,0.7,1.5,1.6,1.5h0.2c0.9,0,1.6-0.7,1.6-1.5v-3.6
								c0-0.9-0.7-1.5-1.6-1.5H266 M266.2,157.4h-0.2c-0.4,0-1.1,0-1.6-0.5c-0.2,0.4-0.4,0.5-1.1,0.5c-0.5,0-1.1-0.4-1.1-1V143
								c0-0.7,0.5-1.1,1.1-1.1c0.5,0,1.1,0.4,1.1,1.1v4.1c0.5-0.4,1.2-0.6,1.6-0.6h0.2c2,0,3.7,1.6,3.7,3.6v3.6
								C269.9,155.8,268.3,157.4,266.2,157.4"/>
						</g>
						<path class="st2" d="M34.8,144.2h-2.1v12.2c0,0.7-0.5,1-1.1,1c-0.5,0-1.1-0.3-1.1-1v-12.2h-2.1c-0.7,0-1.1-0.5-1.1-1
							c0-0.5,0.4-1.1,1.1-1.1h6.3c0.7,0,1.1,0.5,1.1,1.1C35.8,143.7,35.5,144.2,34.8,144.2 M43.5,152v-1.8c0-2.1-1.6-3.6-3.7-3.6
							h-0.2c-2,0-3.7,1.6-3.7,3.6v3.7c0,2,1.6,3.5,3.7,3.5h0.2c1.6,0,2.6-0.7,3.3-2.2c0.1-0.2,0.1-0.4,0.1-0.5
							c0-0.6-0.6-0.9-1.1-0.9c-1.2,0-0.8,1.5-2.3,1.5h-0.2c-0.9,0-1.6-0.6-1.6-1.5v-0.8h4.3C43.1,153.1,43.5,152.5,43.5,152z
							 M41.4,151.1h-3.3v-1c0-0.9,0.7-1.5,1.6-1.5h0.2c0.8,0,1.5,0.6,1.5,1.5V151.1z M51.9,157.4c0.6,0,1.1-0.5,1.1-1
							c0-0.2,0-0.4-0.2-0.6l-2.5-4l2.3-3.6c0.2-0.2,0.2-0.4,0.2-0.6c0-0.5-0.5-1.1-1.1-1.1c-0.3,0-0.6,0.2-0.9,0.5l-1.8,2.8
							l-1.8-2.8c-0.2-0.4-0.5-0.5-0.9-0.5c-0.6,0-1.1,0.5-1.1,1.1c0,0.2,0,0.4,0.2,0.6l2.3,3.6l-2.5,4c-0.1,0.2-0.2,0.4-0.2,0.6
							c0,0.5,0.5,1,1.1,1c0.3,0,0.6-0.1,0.9-0.5l2-3.1l2,3.1C51.2,157.3,51.5,157.4,51.9,157.4 M58.8,157.3c0.7,0,1.1-0.5,1.1-1
							c0-0.5-0.4-1-1.1-1c-0.5,0-0.9-0.6-0.9-0.9v-5.6h0.8c0.7,0,1.1-0.5,1.1-1.1c0-0.5-0.4-1-1.1-1H58V143c0-0.7-0.6-1.1-1.1-1.1
							c-0.5,0-1,0.4-1,1.1v3.6h-0.4c-0.7,0-1.1,0.5-1.1,1c0,0.5,0.4,1.1,1.1,1.1h0.4v5.6C55.8,156,57.2,157.3,58.8,157.3
							 M64.2,156.3v-8.7c0-0.7-0.6-1.1-1.1-1.1c-0.5,0-1.1,0.4-1.1,1.1v8.7c0,0.7,0.5,1,1.1,1C63.6,157.4,64.2,157,64.2,156.3z
							 M64.2,143.5V143c0-0.7-0.5-1.1-1.1-1.1c-0.5,0-1,0.4-1,1.1v0.5c0,0.7,0.5,1,1,1C63.6,144.5,64.2,144.2,64.2,143.5z M74.2,152
							v-1.8c0-2.1-1.6-3.6-3.7-3.6h-0.2c-2,0-3.7,1.6-3.7,3.6v3.7c0,2,1.6,3.5,3.7,3.5h0.2c1.6,0,2.6-0.7,3.3-2.2
							c0.1-0.2,0.1-0.4,0.1-0.5c0-0.6-0.6-0.9-1.1-0.9c-1.2,0-0.8,1.5-2.3,1.5h-0.2c-0.9,0-1.6-0.6-1.6-1.5v-0.8h4.3
							C73.7,153.1,74.2,152.5,74.2,152z M72,151.1h-3.3v-1c0-0.9,0.7-1.5,1.6-1.5h0.2c0.8,0,1.5,0.6,1.5,1.5V151.1z M79.5,157.3
							c0.6,0,1.1-0.4,1.1-1c0-0.6-0.5-1-1.1-1c-0.5,0-0.9-0.4-0.9-0.9V143c0-0.6-0.5-1-1.1-1c-0.6,0-1.1,0.4-1.1,1.1v11.3
							C76.5,156.3,77.5,157.3,79.5,157.3 M93.1,157.4c0.5,0,1.1-0.3,1.1-1V143c0-0.5-0.5-1.1-1.1-1.1h-0.3c-0.6,0-0.9,0.2-1.1,0.6
							l-3.2,7.2l-3.3-7.2c-0.2-0.4-0.5-0.6-1.1-0.6h-0.3c-0.6,0-1.1,0.5-1.1,1.1v13.3c0,0.7,0.5,1,1.1,1c0.5,0,1.1-0.3,1.1-1V147
							l2.5,5.5c0.2,0.4,0.6,0.7,1.1,0.7c0.5,0,0.9-0.2,1.1-0.7L92,147v9.3C92,157,92.6,157.4,93.1,157.4 M103.3,157.4
							c0.5,0,1.1-0.3,1.1-1v-8.7c0-0.7-0.5-1.1-1.1-1.1c-0.5,0-1.1,0.4-1.1,1.1v6.2c0,0.9-0.7,1.5-1.6,1.5h-0.2
							c-0.9,0-1.5-0.7-1.5-1.5v-6.2c0-0.7-0.6-1.1-1.1-1.1c-0.5,0-1.1,0.4-1.1,1.1v6.2c0,2,1.5,3.6,3.7,3.6h0.2c0.5,0,0.9,0,1.6-0.5
							C102.5,157.3,102.9,157.4,103.3,157.4 M110.5,157.4c1.6,0,3.9-0.8,3.9-3.3c0-4.1-5.5-2.8-5.5-4.3v-0.2c0-0.5,0.7-0.9,1.7-0.9
							h0.1c1.4,0,1.6,0.8,2.4,0.8c0.6,0,1-0.5,1-1c0-0.8-1.5-1.9-3.4-1.9h-0.1c-1.4,0-3.8,0.7-3.8,2.9v0.4c0,1.9,1.9,2.5,3.5,2.8
							c0.9,0.2,2.1,0.3,2.1,1.5c0,0.7-0.5,1.2-1.7,1.2h-0.4c-1.5,0-1.5-1.7-2.6-1.7c-0.6,0-1.1,0.4-1.1,1c0,0.2,0,0.3,0.1,0.5
							c0.7,1.4,2.1,2.2,3.5,2.2H110.5 M123.9,152v-1.8c0-2.1-1.6-3.6-3.7-3.6H120c-2,0-3.7,1.6-3.7,3.6v3.7c0,2,1.6,3.5,3.7,3.5h0.2
							c1.6,0,2.6-0.7,3.3-2.2c0.1-0.2,0.1-0.4,0.1-0.5c0-0.6-0.6-0.9-1.1-0.9c-1.2,0-0.8,1.5-2.3,1.5H120c-0.9,0-1.6-0.6-1.6-1.5
							v-0.8h4.3C123.4,153.1,123.9,152.5,123.9,152z M121.7,151.1h-3.3v-1c0-0.9,0.7-1.5,1.6-1.5h0.2c0.8,0,1.5,0.6,1.5,1.5V151.1z
							 M132.5,157.4c0.5,0,1.1-0.3,1.1-1v-8.7c0-0.7-0.5-1.1-1.1-1.1c-0.5,0-1.1,0.4-1.1,1.1v6.2c0,0.9-0.7,1.5-1.6,1.5h-0.2
							c-0.9,0-1.5-0.7-1.5-1.5v-6.2c0-0.7-0.6-1.1-1.1-1.1c-0.5,0-1.1,0.4-1.1,1.1v6.2c0,2,1.5,3.6,3.7,3.6h0.2c0.5,0,0.9,0,1.6-0.5
							C131.7,157.3,132,157.4,132.5,157.4 M148,157.4c0.5,0,1.1-0.3,1.1-1v-6.2c0-2.2-1.2-3.6-3.7-3.6h-0.2c-1,0-2,0.4-2.6,1.1
							c-0.7-0.7-1.5-1.1-2.6-1.1h-0.2c-0.6,0-1.2,0.2-1.6,0.6c-0.3-0.5-0.6-0.6-1.1-0.6c-0.5,0-1.1,0.4-1.1,1.1v8.7
							c0,0.7,0.6,1,1.1,1c0.5,0,1.1-0.3,1.1-1v-6.2c0-0.9,0.7-1.5,1.6-1.5h0.2c0.9,0,1.6,0.7,1.6,1.5v6.1c0,0.7,0.5,1.1,1.1,1.1
							c0.5,0,1.1-0.4,1.1-1.1v-6.1c0-0.9,0.7-1.5,1.6-1.5h0.2c0.9,0,1.6,0.7,1.6,1.5v6.2C147,157,147.5,157.4,148,157.4"/>
					</g>
				</g>
			</g>
			<g>
				<path class="st2" d="M178.2,137.5h-3.4l0.9-2.1c0.3-0.6,0.8-1.3,2-1.3h0.4c0.9,0,1.7,0.8,1.7,1.7
					C179.8,136.7,179.1,137.5,178.2,137.5"/>
				<path class="st2" d="M160.4,137.5h-1.7c-0.9,0-1.7-0.8-1.7-1.7c0,0,0,0,0,0c0-0.9,0.8-1.7,1.7-1.7c0.9,0,1.7,0.8,1.7,1.7
					L160.4,137.5"/>
				<path class="st2" d="M162.1,137.5h-1.7l0-1.7c0-0.9-0.8-1.7-1.7-1.7h0.5c1.2,0,1.7,0.7,2,1.3L162.1,137.5"/>
				<path class="st3" d="M179.8,163.6c0-0.9-0.8-1.7-1.7-1.7h-1.7v-20l-6.1,13.5c-0.1,0.1-0.1,0.3-0.2,0.4v-8l4.6-10.3h3.4
					c0.9,0,1.7-0.8,1.7-1.7V163.6"/>
				<path class="st3" d="M168.4,151.5l-1.7-3.8v-10.3h-4.6l-0.9-2.1c-0.3-0.6-0.8-1.3-2-1.3h18.6c-1.2,0-1.7,0.6-2,1.3l-0.9,2.1
					h-4.6v10.3L168.4,151.5"/>
				<path class="st3" d="M170.1,161.9h-3.4v-6.2c0.4,0.5,1,0.8,1.7,0.8c0.7,0,1.3-0.3,1.7-0.8V161.9"/>
				<path class="st3" d="M166.7,155.7c-0.1-0.1-0.2-0.2-0.2-0.4l-6.1-13.5v-4.4h1.7l4.6,10.3V155.7"/>
				<path class="st2" d="M168.4,156.5c-0.7,0-1.3-0.3-1.7-0.8v-8l1.7,3.8l1.7-3.7v8C169.7,156.2,169.1,156.5,168.4,156.5"/>
				<path class="st4" d="M178.2,165.2h-19.5c0,0,0,0,0,0c0,0,0,0,0,0c0.9,0,1.7-0.8,1.7-1.7v-21.7l0,0l0,20h6.3v1.7
					c0,0.9,0.8,1.7,1.7,1.7c0.9,0,1.7-0.8,1.7-1.7v-1.7h6.3v1.7C176.5,164.5,177.2,165.2,178.2,165.2
					C179.1,165.2,179.1,165.2,178.2,165.2"/>
				<path class="st2" d="M168.4,165.2c-0.9,0-1.7-0.8-1.7-1.7v-1.7h3.4v1.7C170.1,164.5,169.4,165.2,168.4,165.2"/>
				<path class="st3" d="M158.7,165.2C158.7,165.2,158.7,165.2,158.7,165.2C158.7,165.2,158.7,165.2,158.7,165.2
					c-0.3,0-0.5-0.1-0.7-0.2c0,0,0,0,0,0c0,0,0,0,0,0h0c0,0,0,0,0,0c0,0,0,0,0,0c0,0,0,0,0,0c0,0,0,0,0,0c0,0,0,0,0,0c0,0,0,0,0,0
					c0,0,0,0,0,0c0,0,0,0,0,0c-0.5-0.3-0.9-0.8-0.9-1.5c0,0,0,0,0,0c0,0,0,0,0,0c0,0,0,0,0,0c0,0,0,0,0,0v-27.8
					c0,0.9,0.8,1.7,1.7,1.7h1.7v4.4l0,0v21.7C160.4,164.5,159.6,165.2,158.7,165.2"/>
				<path class="st3" d="M178.2,165.2c-0.9,0-1.7-0.8-1.7-1.7v-1.7h1.7c0.9,0,1.7,0.8,1.7,1.7C179.8,164.5,179.1,165.2,178.2,165.2"
					/>
			</g>
		</g>
	</g>
</g>
</svg>
