<?xml version="1.0" encoding="utf-8"?>
<!-- Generator: Adobe Illustrator 24.3.0, SVG Export Plug-In . SVG Version: 6.00 Build 0)  -->
<svg version="1.1" id="Laag_1" xmlns:v="https://vecta.io/nano"
	 xmlns="http://www.w3.org/2000/svg" xmlns:xlink="http://www.w3.org/1999/xlink" x="0px" y="0px" width="297.8px" height="93.6px"
	 viewBox="0 0 297.8 93.6" style="enable-background:new 0 0 297.8 93.6;" xml:space="preserve">
<style type="text/css">
	.st0{fill:#6A3F24;}
</style>
<g>
	<path class="st0" d="M4.2,36.7c-1.1,0-2-0.4-2.7-1.1S0.5,34,0.5,32.9c0-1.1,0.4-2,1.1-2.7s1.6-1,2.7-1c1.1,0,2,0.3,2.7,1
		s1,1.6,1,2.7c0,1.1-0.3,2-1,2.7S5.3,36.7,4.2,36.7z M14.5,36.7c-1.1,0-2-0.4-2.7-1.1s-1.1-1.6-1.1-2.7c0-1.1,0.4-2,1.1-2.7
		s1.6-1,2.7-1c1.1,0,2,0.3,2.7,1s1,1.6,1,2.7c0,1.1-0.3,2-1,2.7S15.6,36.7,14.5,36.7z M24.8,36.7c-1.1,0-2-0.4-2.7-1.1
		S21,34,21,32.9c0-1.1,0.4-2,1.1-2.7s1.6-1,2.7-1c1.1,0,2,0.3,2.7,1s1.1,1.6,1.1,2.7c0,1.1-0.4,2-1.1,2.7S25.8,36.7,24.8,36.7z"/>
	<path class="st0" d="M54.9,29.6c0.3,0.3,0.5,0.9,0.5,1.7v4.9h-0.7c-3,0-5.1-1-6.4-2.9c-2.1,2.2-5.1,3.3-9,3.3c-2.5,0-4.5-0.7-6-2
		s-2.2-3.2-2.2-5.5c0-2.2,0.7-4,2.1-5.5s3.6-2.4,6.5-2.8c3.7-0.4,6.1-1,7.4-1.7v-0.1c0-0.8-0.4-1.5-1.2-2s-1.7-0.8-2.9-0.8
		c-0.6,0-1.2,0-1.7,0.1s-1,0.2-1.5,0.4s-0.8,0.3-1,0.4s-0.5,0.3-1,0.6S37.1,18,37.1,18c-0.6,0.3-1.1,0.4-1.7,0.3s-1-0.4-1.3-0.8
		L32,14.6c0.3-0.4,0.8-0.9,1.3-1.3s1.3-0.9,2.2-1.4s1.9-0.9,3.1-1.3s2.5-0.5,3.8-0.5c3.7,0,6.6,0.9,8.5,2.6s2.9,4.3,2.9,7.7v7.2
		C53.9,28.5,54.2,29.2,54.9,29.6L54.9,29.6z M40.2,30.8c0.7,0,1.4,0,2-0.1s1.2-0.3,1.8-0.5s1.2-0.6,1.6-1s0.8-1,1.1-1.7
		s0.4-1.5,0.4-2.4v-0.7c-1.3,1.1-3.3,1.6-5.9,1.7c-1.2,0.1-2.1,0.4-2.7,0.8s-0.9,1-0.9,1.8c0,0.7,0.2,1.2,0.7,1.6
		S39.4,30.8,40.2,30.8z"/>
	<path class="st0" d="M63.4,8c-1.1,0-2-0.3-2.7-1s-1-1.6-1-2.7c0-1.1,0.3-2,1-2.7s1.6-1.1,2.7-1.1c1.1,0,2,0.4,2.7,1.1
		s1.1,1.6,1.1,2.7c0,1.1-0.4,2-1.1,2.7S64.5,8,63.4,8z M60,36.1V10.7h6.9v25.4H60z"/>
	<path class="st0" d="M89.4,10.7h6.9v25.4h-5.2c-0.3,0-0.5-0.1-0.7-0.3s-0.3-0.4-0.3-0.7v-1.9c-1.8,2.2-4.1,3.3-6.8,3.3
		c-3.3,0-5.8-0.9-7.5-2.6s-2.5-4.4-2.5-7.9V10.7h6.9V25c0,1.9,0.3,3.4,0.9,4.3s1.8,1.4,3.4,1.4c1.6,0,2.8-0.5,3.7-1.5
		s1.3-2.4,1.3-4.2V10.7z"/>
	<path class="st0" d="M118.5,16.7h-7.4V27c0,0.8,0.2,1.5,0.8,2.1s1.2,0.8,2,0.8h2.9c0.5,0,1,0.2,1.3,0.5s0.5,0.8,0.5,1.3v4.6h-5.2
		c-2.8,0-5-0.8-6.6-2.4s-2.4-3.9-2.4-6.8V16.7H102c-0.5,0-1-0.2-1.3-0.5s-0.5-0.8-0.5-1.3v-4.2h4V2.2h6.9v8.5h7.4V16.7z"/>
	<path class="st0" d="M145.6,29.6c0.3,0.3,0.5,0.9,0.5,1.7v4.9h-0.7c-3,0-5.1-1-6.4-2.9c-2.1,2.2-5.1,3.3-9,3.3c-2.5,0-4.5-0.7-6-2
		s-2.2-3.2-2.2-5.5c0-2.2,0.7-4,2.1-5.5s3.6-2.4,6.5-2.8c3.7-0.4,6.1-1,7.4-1.7v-0.1c0-0.8-0.4-1.5-1.2-2s-1.7-0.8-2.9-0.8
		c-0.6,0-1.2,0-1.7,0.1s-1,0.2-1.5,0.4s-0.8,0.3-1,0.4s-0.5,0.3-1,0.6s-0.7,0.4-0.7,0.4c-0.6,0.3-1.1,0.4-1.7,0.3s-1-0.4-1.3-0.8
		l-2.1-2.9c0.3-0.4,0.8-0.9,1.3-1.3s1.3-0.9,2.2-1.4s1.9-0.9,3.1-1.3s2.5-0.5,3.8-0.5c3.7,0,6.6,0.9,8.5,2.6s2.9,4.3,2.9,7.7v7.2
		C144.7,28.5,145,29.2,145.6,29.6L145.6,29.6z M131,30.8c0.7,0,1.4,0,2-0.1s1.2-0.3,1.8-0.5s1.2-0.6,1.6-1s0.8-1,1.1-1.7
		s0.4-1.5,0.4-2.4v-0.7c-1.3,1.1-3.3,1.6-5.9,1.7c-1.2,0.1-2.1,0.4-2.7,0.8s-0.9,1-0.9,1.8c0,0.7,0.2,1.2,0.7,1.6
		S130.2,30.8,131,30.8z"/>
	<path class="st0" d="M164.5,10.7h0.4v3.9c0,0.5-0.2,1-0.5,1.3s-0.7,0.5-1.2,0.5h-0.3c-2,0-3.4,0.6-4.4,1.8s-1.5,2.8-1.5,5v12.9
		h-6.9V10.7h5.2c0.3,0,0.5,0.1,0.7,0.3s0.3,0.4,0.3,0.7v2.5C158.2,11.9,161,10.7,164.5,10.7z"/>
	<path class="st0" d="M179.3,10.1c3.8,0,7,1.3,9.3,3.8s3.6,5.8,3.6,9.9V25c0,0.2-0.1,0.5-0.3,0.7s-0.4,0.3-0.7,0.3h-17.8
		c0.4,1.4,1.1,2.6,2.1,3.4s2.2,1.3,3.8,1.3c1.1,0,2.1-0.3,2.9-0.8s1.4-1.2,1.8-1.9c0.3-0.5,0.8-0.6,1.3-0.4l5.7,2
		c-0.9,2.2-2.3,4-4.3,5.2s-4.5,1.9-7.5,1.9c-3.9,0-7-1.2-9.4-3.6s-3.6-5.6-3.6-9.5c0-4,1.2-7.2,3.6-9.7S175.4,10.1,179.3,10.1z
		 M179.3,16.2c-1.4,0-2.6,0.4-3.5,1.1s-1.7,1.8-2.1,3.1h11.2c-0.5-1.3-1.2-2.3-2.1-3.1S180.6,16.2,179.3,16.2z"/>
	<path class="st0" d="M226.2,10.7h6.9v25.4h-5.2c-0.3,0-0.5-0.1-0.7-0.3s-0.3-0.4-0.3-0.7v-1.9c-1.8,2.2-4.1,3.3-6.8,3.3
		c-3.3,0-5.8-0.9-7.5-2.6s-2.5-4.4-2.5-7.9V10.7h6.9V25c0,1.9,0.3,3.4,0.9,4.3s1.8,1.4,3.4,1.4c1.6,0,2.8-0.5,3.7-1.5
		s1.3-2.4,1.3-4.2V10.7z"/>
	<path class="st0" d="M252.8,10.2c3.3,0,5.8,0.9,7.5,2.8s2.6,4.6,2.6,8.1v15H256V21.9c0-1.9-0.3-3.4-0.9-4.3s-1.8-1.4-3.4-1.4
		c-1.6,0-2.8,0.5-3.7,1.5s-1.3,2.4-1.3,4.2v14.2h-6.9V10.7h5.2c0.3,0,0.5,0.1,0.7,0.3s0.3,0.4,0.3,0.7v1.9
		C247.8,11.3,250.1,10.2,252.8,10.2z"/>
	<path class="st0" d="M291,29.6c0.3,0.3,0.5,0.9,0.5,1.7v4.9h-0.7c-3,0-5.1-1-6.4-2.9c-2.1,2.2-5.1,3.3-9,3.3c-2.5,0-4.5-0.7-6-2
		s-2.2-3.2-2.2-5.5c0-2.2,0.7-4,2.1-5.5s3.6-2.4,6.5-2.8c3.7-0.4,6.1-1,7.4-1.7v-0.1c0-0.8-0.4-1.5-1.2-2s-1.7-0.8-2.9-0.8
		c-0.6,0-1.2,0-1.7,0.1s-1,0.2-1.5,0.4s-0.8,0.3-1,0.4s-0.5,0.3-1,0.6s-0.7,0.4-0.7,0.4c-0.6,0.3-1.1,0.4-1.7,0.3s-1-0.4-1.3-0.8
		l-2.1-2.9c0.3-0.4,0.8-0.9,1.3-1.3s1.3-0.9,2.2-1.4s1.9-0.9,3.1-1.3s2.5-0.5,3.8-0.5c3.7,0,6.6,0.9,8.5,2.6s2.9,4.3,2.9,7.7v7.2
		C290.1,28.5,290.4,29.2,291,29.6L291,29.6z M276.4,30.8c0.7,0,1.4,0,2-0.1s1.2-0.3,1.8-0.5s1.2-0.6,1.6-1s0.8-1,1.1-1.7
		s0.4-1.5,0.4-2.4v-0.7c-1.3,1.1-3.3,1.6-5.9,1.7c-1.2,0.1-2.1,0.4-2.7,0.8s-0.9,1-0.9,1.8c0,0.7,0.2,1.2,0.7,1.6
		S275.6,30.8,276.4,30.8z"/>
	<path class="st0" d="M11.9,49.3h5.4v4.4c0,0.5-0.2,0.9-0.5,1.3s-0.8,0.5-1.3,0.5h-3.1c-0.7,0-1.2,0.2-1.6,0.7s-0.6,1-0.6,1.7v0.8
		h4.7v6h-4.7v19.4H3.3V64.7H1.8c-0.5,0-0.9-0.2-1.3-0.5S0,63.4,0,62.9v-4.2h3.3v-0.8c0-2.7,0.8-4.8,2.3-6.3S9.2,49.3,11.9,49.3z"/>
	<path class="st0" d="M40.5,77.6c0.3,0.3,0.5,0.9,0.5,1.7v4.9h-0.7c-3,0-5.1-1-6.4-2.9c-2.1,2.2-5.1,3.3-9,3.3c-2.5,0-4.5-0.7-6-2
		s-2.2-3.2-2.2-5.5c0-2.2,0.7-4,2.1-5.5s3.6-2.4,6.5-2.8c3.7-0.4,6.1-1,7.4-1.7v-0.1c0-0.8-0.4-1.5-1.2-2s-1.7-0.8-2.9-0.8
		c-0.6,0-1.2,0-1.7,0.1s-1,0.2-1.5,0.4s-0.8,0.3-1,0.4s-0.5,0.3-1,0.6S22.8,66,22.7,66c-0.6,0.3-1.1,0.4-1.7,0.3s-1-0.4-1.3-0.8
		l-2.1-2.9c0.3-0.4,0.8-0.9,1.3-1.3s1.3-0.9,2.2-1.4s1.9-0.9,3.1-1.3s2.5-0.5,3.8-0.5c3.7,0,6.6,0.9,8.5,2.6s2.9,4.3,2.9,7.7v7.2
		C39.5,76.5,39.9,77.2,40.5,77.6L40.5,77.6z M25.9,78.8c0.7,0,1.4,0,2-0.1s1.2-0.3,1.8-0.5s1.2-0.6,1.6-1s0.8-1,1.1-1.7
		s0.4-1.5,0.4-2.4v-0.7c-1.3,1.1-3.3,1.6-5.9,1.7c-1.2,0.1-2.1,0.4-2.7,0.8s-0.9,1-0.9,1.8c0,0.7,0.2,1.2,0.7,1.6S25,78.8,25.9,78.8
		z"/>
	<path class="st0" d="M73.2,58.2c3.1,0,5.4,0.9,7,2.8s2.4,4.5,2.4,8v15.1h-6.9V69.8c0-1.9-0.3-3.3-0.9-4.2s-1.6-1.3-3-1.3
		c-1.5,0-2.6,0.5-3.3,1.4s-1,2.3-1,4.2v14.3h-6.9V69.8c0-1.9-0.3-3.2-1-4.2s-1.6-1.4-3-1.4c-1.5,0-2.6,0.5-3.2,1.4s-1,2.4-1,4.2
		v14.2h-6.9V58.7h5.2c0.3,0,0.5,0.1,0.7,0.3s0.3,0.4,0.3,0.7v1.7c1.7-2.1,3.8-3.1,6.4-3.1c3.7,0,6.3,1.3,7.8,3.8
		C67.8,59.5,70.2,58.2,73.2,58.2z"/>
	<path class="st0" d="M92.4,56c-1.1,0-2-0.3-2.7-1s-1-1.6-1-2.7c0-1.1,0.3-2,1-2.7s1.6-1.1,2.7-1.1c1.1,0,2,0.4,2.7,1.1
		s1.1,1.6,1.1,2.7c0,1.1-0.4,2-1.1,2.7S93.5,56,92.4,56z M88.9,84.1V58.7h6.9v25.4H88.9z"/>
	<path class="st0" d="M117,79.5c2.8,0,5,0.6,6.5,1.7s2.2,2.8,2.2,5c0,2.2-1,4.1-3.1,5.4s-5.3,2.1-9.6,2.1c-3.9,0-6.9-0.7-9.1-2.2
		s-3.3-3.2-3.3-5.4c0-1.4,0.3-2.5,1-3.5s1.4-1.6,2.1-1.8c-0.4-0.1-0.8-0.4-1.2-1s-0.7-1.3-0.7-2.2c0-1.7,0.7-2.9,2.2-3.8
		c-1.7-1.7-2.6-3.8-2.6-6.3c0-3,1-5.3,2.9-6.9s4.6-2.4,7.9-2.4c2.6,0,4.8,0.5,6.5,1.5c0.6-0.6,1.5-0.9,2.6-0.9h3.5v3.9
		c0,0.5-0.1,0.8-0.4,1.1s-0.6,0.4-1.1,0.4h-0.7c0.3,1,0.5,2.1,0.5,3.3c0,3-1,5.3-3.1,6.9s-4.8,2.4-8.4,2.4h-1.7
		c-0.6,0-1.2,0.1-1.5,0.3s-0.6,0.6-0.6,1c0,0.9,0.9,1.4,2.7,1.4H117z M113,87.9c2.3,0,3.9-0.2,5-0.6s1.6-0.9,1.6-1.5
		c0-1-0.9-1.5-2.8-1.5h-7c-2,0-2.9,0.5-2.9,1.5c0,0.6,0.6,1.1,1.7,1.5S111.2,87.9,113,87.9z M115.4,64.9c-0.8-0.6-1.9-0.9-3.3-0.9
		s-2.4,0.3-3.2,0.9s-1.2,1.4-1.2,2.5c0,1.1,0.4,2,1.2,2.6s1.9,0.9,3.2,0.9c1.4,0,2.5-0.3,3.3-0.9s1.2-1.5,1.2-2.6
		C116.6,66.3,116.2,65.5,115.4,64.9z"/>
	<path class="st0" d="M137.8,84.2c-2.6,0-4.7-0.7-6.2-2.2s-2.2-3.5-2.2-6.2V50.2h6.9v25.6c0,0.6,0.2,1.1,0.6,1.5s0.9,0.6,1.5,0.6
		h1.3c0.5,0,0.9,0.2,1.3,0.5s0.5,0.8,0.5,1.3v4.6H137.8z"/>
	<path class="st0" d="M149.1,56c-1.1,0-2-0.3-2.7-1s-1-1.6-1-2.7c0-1.1,0.3-2,1-2.7s1.6-1.1,2.7-1.1c1.1,0,2,0.4,2.7,1.1
		s1.1,1.6,1.1,2.7c0,1.1-0.4,2-1.1,2.7S150.2,56,149.1,56z M145.7,84.1V58.7h6.9v25.4H145.7z"/>
	<path class="st0" d="M181,77.6c0.3,0.3,0.5,0.9,0.5,1.7v4.9h-0.7c-3,0-5.1-1-6.4-2.9c-2.1,2.2-5.1,3.3-9,3.3c-2.5,0-4.5-0.7-6-2
		s-2.2-3.2-2.2-5.5c0-2.2,0.7-4,2.1-5.5s3.6-2.4,6.5-2.8c3.7-0.4,6.1-1,7.4-1.7v-0.1c0-0.8-0.4-1.5-1.2-2s-1.7-0.8-2.9-0.8
		c-0.6,0-1.2,0-1.7,0.1s-1,0.2-1.5,0.4s-0.8,0.3-1,0.4s-0.5,0.3-1,0.6s-0.7,0.4-0.7,0.4c-0.6,0.3-1.1,0.4-1.7,0.3s-1-0.4-1.3-0.8
		l-2.1-2.9c0.3-0.4,0.8-0.9,1.3-1.3s1.3-0.9,2.2-1.4s1.9-0.9,3.1-1.3s2.5-0.5,3.8-0.5c3.7,0,6.6,0.9,8.5,2.6s2.9,4.3,2.9,7.7v7.2
		C180,76.5,180.4,77.2,181,77.6L181,77.6z M166.4,78.8c0.7,0,1.4,0,2-0.1s1.2-0.3,1.8-0.5s1.2-0.6,1.6-1s0.8-1,1.1-1.7
		s0.4-1.5,0.4-2.4v-0.7c-1.3,1.1-3.3,1.6-5.9,1.7c-1.2,0.1-2.1,0.4-2.7,0.8s-0.9,1-0.9,1.8c0,0.7,0.2,1.2,0.7,1.6
		S165.5,78.8,166.4,78.8z"/>
</g>
</svg>
