<?xml version="1.0" encoding="utf-8"?>
<!-- Generator: Adobe Illustrator 24.3.0, SVG Export Plug-In . SVG Version: 6.00 Build 0)  -->
<svg version="1.1" id="Laag_1" xmlns="http://www.w3.org/2000/svg" xmlns:xlink="http://www.w3.org/1999/xlink" x="0px" y="0px"
	 width="409.2px" height="440.9px" viewBox="0 0 409.2 440.9" style="enable-background:new 0 0 409.2 440.9;" xml:space="preserve"
	>
<style type="text/css">
	.st0{fill:#FFFFFF;}
</style>
<g>
	<path class="st0" d="M351.2,439.9h50.8v-17.1h-33.8v-35h29.4v-16.1h-29.4v-35h33.8v-16.1h-50.8V439.9z M272.9,439.9H290v-71.6h0.3
		l26.1,71.6h16.1V320.8h-17.1v71.7H315l-25.8-71.7h-16.4V439.9z M236.7,439.9h17.1V320.8h-17.1V439.9z M169.3,439.9h50.8v-17.1
		h-33.8v-102h-17.1V439.9z M90.9,439.9H108v-71.6h0.3l26.1,71.6h16.1V320.8h-17.1v71.7h-0.3l-25.8-71.7H90.9V439.9z M32.8,348.9
		c0-4.1,1.1-7.2,3.4-9.1c2.3-1.9,5-2.9,8.1-2.9c3.1,0,5.8,1,8.1,2.9c2.3,2,3.4,5,3.4,9.1v62.9c0,4.1-1.1,7.2-3.4,9.1
		c-2.3,2-5,2.9-8.1,2.9c-3.1,0-5.8-1-8.1-2.9c-2.3-1.9-3.4-5-3.4-9.1V348.9z M15.7,411.8c0,4.9,0.8,9.2,2.5,12.8
		c1.7,3.6,3.9,6.6,6.6,9c2.7,2.4,5.8,4.2,9.2,5.4c3.4,1.2,6.8,1.8,10.3,1.8c3.5,0,6.9-0.6,10.3-1.8c3.4-1.2,6.5-3,9.2-5.4
		c2.7-2.4,4.9-5.4,6.6-9c1.7-3.6,2.5-7.9,2.5-12.8v-62.9c0-4.8-0.8-9-2.5-12.7c-1.7-3.7-3.9-6.7-6.6-9.1c-2.7-2.4-5.8-4.2-9.2-5.4
		c-3.4-1.2-6.8-1.8-10.3-1.8c-3.5,0-6.9,0.6-10.3,1.8c-3.4,1.2-6.5,3-9.2,5.4c-2.7,2.4-4.9,5.4-6.6,9.1c-1.7,3.7-2.5,7.9-2.5,12.7
		V411.8z"/>
	<path class="st0" d="M408.6,186.8c0-3.3-0.7-6.6-2-9.8c-1.3-3.2-3.3-6-5.8-8.6c-2.5-2.6-5.5-4.6-9-6.2c-3.5-1.6-7.4-2.3-11.6-2.3
		c-4.9,0-9.2,0.9-12.9,2.6c-3.7,1.7-6.7,4-9.1,6.9c-2.4,2.9-4.2,6.4-5.4,10.4c-1.2,4-1.8,8.3-1.8,12.7c0,7.5,1.3,13.7,3.8,18.6
		c2.5,5,7.4,8.9,14.8,12l12.2,5c2.1,0.9,3.8,1.7,5.1,2.5c1.3,0.8,2.3,1.8,3,3c0.7,1.2,1.2,2.8,1.4,4.9c0.2,2,0.3,4.6,0.3,7.7
		c0,2.7-0.1,5.1-0.3,7.4c-0.2,2.2-0.8,4.1-1.6,5.6s-2.1,2.7-3.7,3.5c-1.6,0.8-3.9,1.3-6.8,1.3c-4.3,0-7.4-1.3-9.3-3.8
		c-1.8-2.5-2.8-5.3-2.8-8.4v-5.4h-17.1v6.4c0,4,0.8,7.8,2.3,11.2c1.5,3.5,3.5,6.4,6.1,8.9c2.6,2.5,5.6,4.5,9.2,5.9
		c3.6,1.4,7.4,2.2,11.5,2.2c5.5,0,10.1-0.9,13.9-2.7c3.8-1.8,6.8-4.2,9.1-7.3c2.3-3.1,3.9-6.7,4.9-11c1-4.3,1.5-8.9,1.5-14
		c0-4.3-0.2-8.2-0.7-11.6c-0.4-3.4-1.3-6.4-2.6-9c-1.3-2.6-3.1-4.9-5.4-6.9c-2.3-1.9-5.4-3.7-9.2-5.1l-13-5.2
		c-2.2-0.9-4-1.8-5.3-2.7c-1.3-0.9-2.3-1.9-2.9-3.1c-0.7-1.2-1.1-2.6-1.3-4.2c-0.2-1.6-0.3-3.6-0.3-5.9c0-2,0.2-3.9,0.5-5.8
		c0.3-1.8,0.9-3.5,1.8-4.9c0.8-1.4,2-2.5,3.5-3.4c1.5-0.9,3.4-1.3,5.8-1.3c4.3,0,7.4,1.4,9.3,4.3c1.8,2.8,2.8,6.2,2.8,10.1v3.8h17.1
		V186.8z M308.2,280h17.1v-103H345v-16.1h-56.5v16.1h19.7V280z M231.8,280h50.8v-17.1h-33.8v-35h29.4v-16.1h-29.4v-35h33.8v-16.1
		h-50.8V280z M160,280h17.1v-35.6l9.2-17.2l19.4,52.8h18.1l-27.6-71.4l23.2-47.7h-17.1l-24.9,54.4h-0.3v-54.4H160V280z M149.1,246
		h-17.1v5.9c0,2.3-0.3,4.3-1,5.9c-0.7,1.6-1.5,2.8-2.6,3.7c-1.1,0.9-2.2,1.5-3.5,1.9c-1.3,0.4-2.5,0.6-3.6,0.6
		c-3.9,0-6.6-1.2-8.1-3.5c-1.5-2.3-2.3-5.2-2.3-8.7v-60.9c0-4,0.7-7.3,2.1-10c1.4-2.6,4.2-3.9,8.4-3.9c3.2,0,5.8,1.2,7.7,3.7
		c1.9,2.5,2.8,5.4,2.8,8.7v5.7h17.1v-6.7c0-4.1-0.7-7.9-2.1-11.5c-1.4-3.5-3.3-6.5-5.8-9c-2.5-2.5-5.4-4.5-8.7-5.9
		c-3.3-1.4-7-2.1-10.9-2.1c-4.1,0-7.9,0.7-11.3,2.1c-3.4,1.4-6.3,3.3-8.8,5.8c-2.5,2.5-4.3,5.4-5.7,8.7s-2,7-2,10.9v65.6
		c0,5.5,0.9,10,2.6,13.5c1.7,3.6,3.9,6.4,6.6,8.6c2.7,2.2,5.7,3.7,9,4.6c3.3,0.9,6.6,1.3,9.9,1.3c3.8,0,7.3-0.8,10.6-2.3
		c3.3-1.5,6.2-3.5,8.6-6c2.5-2.5,4.4-5.4,5.8-8.8c1.4-3.3,2.1-6.9,2.1-10.5V246z M64.8,280h17.1V160.9H64.8V280z M19.7,280h17.1
		v-103h19.7v-16.1H0v16.1h19.7V280z"/>
	<path class="st0" d="M358.3,120.1h50.8V103h-33.8V1h-17.1V120.1z M291.1,120.1h50.8V103h-33.8v-35h29.4V52h-29.4v-35h33.8V1h-50.8
		V120.1z M239.6,120.1h17.1v-103h19.7V1h-56.5v16.1h19.7V120.1z M207.2,26.9c0-3.3-0.7-6.6-2-9.8c-1.3-3.2-3.3-6-5.8-8.6
		c-2.5-2.6-5.5-4.6-9-6.2C186.9,0.8,183,0,178.8,0c-4.9,0-9.2,0.9-12.9,2.6c-3.7,1.7-6.7,4-9.1,6.9c-2.4,2.9-4.2,6.4-5.4,10.4
		c-1.2,4-1.8,8.3-1.8,12.7c0,7.5,1.3,13.7,3.8,18.6c2.5,5,7.4,8.9,14.8,12l12.2,5c2.1,0.9,3.8,1.7,5.1,2.5c1.3,0.8,2.3,1.8,3,3
		c0.7,1.2,1.2,2.8,1.4,4.9c0.2,2,0.3,4.6,0.3,7.7c0,2.7-0.1,5.1-0.3,7.4c-0.2,2.2-0.8,4.1-1.6,5.6c-0.8,1.5-2.1,2.7-3.7,3.5
		c-1.6,0.8-3.9,1.3-6.8,1.3c-4.3,0-7.4-1.3-9.3-3.8c-1.8-2.5-2.8-5.3-2.8-8.4v-5.4h-17.1v6.4c0,4,0.8,7.8,2.3,11.2
		c1.5,3.5,3.5,6.4,6.1,8.9c2.6,2.5,5.6,4.5,9.2,5.9c3.6,1.4,7.4,2.2,11.5,2.2c5.5,0,10.1-0.9,13.9-2.7c3.8-1.8,6.8-4.2,9.1-7.3
		c2.3-3.1,3.9-6.7,4.9-11c1-4.3,1.5-8.9,1.5-14c0-4.3-0.2-8.2-0.7-11.6c-0.4-3.4-1.3-6.4-2.6-9c-1.3-2.6-3.1-4.9-5.4-6.9
		c-2.3-2-5.4-3.7-9.2-5.1l-13-5.2c-2.2-0.9-4-1.8-5.3-2.7c-1.3-0.9-2.3-1.9-2.9-3.1c-0.7-1.2-1.1-2.6-1.3-4.2
		c-0.2-1.6-0.3-3.6-0.3-5.9c0-2,0.2-3.9,0.5-5.8c0.3-1.8,0.9-3.5,1.8-4.9c0.8-1.4,2-2.5,3.5-3.4c1.5-0.9,3.4-1.3,5.8-1.3
		c4.3,0,7.4,1.4,9.3,4.3c1.8,2.8,2.8,6.2,2.8,10.1v3.8h17.1V26.9z M83.4,120.1h50.8V103h-33.8v-35h29.4V52h-29.4v-35h33.8V1H83.4
		V120.1z M26.7,17.1h7c5.7,0,9.6,1.3,11.8,4s3.3,6.7,3.3,12c0,5.5-1,9.6-2.9,12.5c-2,2.8-5.8,4.3-11.5,4.3h-7.7V17.1z M26.7,64.9
		h7.5c3.1,0,5.6,0.4,7.5,1.2c1.9,0.8,3.4,1.9,4.4,3.4c1.1,1.5,1.8,3.4,2.1,5.6c0.3,2.2,0.5,4.9,0.5,7.9c0,2.9-0.1,5.6-0.3,8
		c-0.2,2.5-0.8,4.6-1.8,6.4c-1,1.8-2.5,3.2-4.4,4.2c-2,1-4.7,1.5-8.1,1.5h-7.4V64.9z M9.6,120.1h23.2c11.1,0,19.3-2.8,24.3-8.4
		c5.1-5.6,7.6-13.6,7.6-24.1v-6.7c0-6.2-0.9-11.2-2.8-15c-1.9-3.7-4.8-6.5-8.9-8.4c1.9-1.1,3.6-2.3,5-3.6c1.4-1.3,2.7-2.8,3.7-4.4
		c1-1.7,1.8-3.6,2.3-5.9c0.5-2.2,0.8-5,0.8-8.2v-4.3c0-3.9-0.5-7.7-1.6-11.3c-1.1-3.6-2.8-6.8-5.3-9.6c-2.5-2.8-5.6-5-9.4-6.7
		C44.7,1.8,40,1,34.5,1H9.6V120.1z"/>
</g>
</svg>
