<?xml version="1.0" encoding="utf-8"?>
<!-- Generator: Adobe Illustrator 23.0.2, SVG Export Plug-In . SVG Version: 6.00 Build 0)  -->
<svg version="1.1" id="Laag_1" xmlns="http://www.w3.org/2000/svg" xmlns:xlink="http://www.w3.org/1999/xlink" x="0px" y="0px"
	 width="650px" height="41.3px" viewBox="0 0 650 41.3" style="enable-background:new 0 0 650 41.3;" xml:space="preserve">
<style type="text/css">
	.st0{fill:#FFFFFF;}
</style>
<g>
	<path class="st0" d="M640.5,40.2h5.3V1.6h-6v29.3L614.6,1.6h-5.3v38.7h6V11L640.5,40.2z M582.1,7.5l8,19.7h-16.5L582.1,7.5z
		 M562.2,40.2h6.2l3.6-8.5h19.7l3.5,8.5h6.2L585.6,1.6h-7L562.2,40.2z M538.1,40.2h7.5l16.3-38.7h-6.6l-13.5,33.3L529,1.6h-6.6
		L538.1,40.2z M497.1,40.2h5.3V1.6h-6v29.3L471.2,1.6h-5.3v38.7h6V11L497.1,40.2z M456,40.2V35h-24.9V22.9h20.6v-5.2h-20.6V6.8H456
		V1.6h-30.7v38.7L456,40.2L456,40.2z M406.7,40.2h6V1.6h-5.5l-16.1,18.9l-16-18.9h-5.5v38.7h6V10.9l14.9,17.6h1.2l14.9-17.6v29.3
		C406.6,40.2,406.7,40.2,406.7,40.2z M359.7,40.2V35h-24.9V22.9h20.6v-5.2h-20.6V6.8h24.9V1.6H329v38.7L359.7,40.2L359.7,40.2z
		 M284.4,21c0-8.2,6-14.3,14.4-14.3s14.4,6.1,14.4,14.3c0,8.1-6,14.3-14.4,14.3C290.5,35.2,284.4,29.1,284.4,21 M278.5,21
		c0,11.3,8.7,19.8,20.3,19.8c11.7,0,20.4-8.5,20.4-19.8c0-11.4-8.7-20-20.4-20C287.2,1,278.5,9.5,278.5,21 M274.8,40.2V35h-21.6V1.6
		h-6v38.7L274.8,40.2L274.8,40.2z M211.7,17.9V6.7h8.4c4.9,0,8,1.5,8,5.7c0,3.9-3.3,5.5-8.3,5.5H211.7z M211.7,35.1v-12h10.1
		c5.8,0,9.2,1.8,9.2,6.2c0,3.8-2.8,5.8-8.3,5.8H211.7z M205.7,40.2h18c9.1,0,13.9-4,13.9-10.2c0-5.8-3.7-8.9-9.8-9.9
		c4-1.3,6.6-4.2,6.6-8.4c0-6.9-5.1-10.1-13.4-10.1h-15.3V40.2z M181.8,40.2V35h-24.9V22.9h20.6v-5.2h-20.6V6.8h24.9V1.6h-30.7v38.7
		L181.8,40.2L181.8,40.2z M120.4,6.7c8.4,0.1,14.4,5,14.4,14.3c0,9.1-6,14.1-14.4,14.1h-9.8V6.7H120.4z M104.6,40.2h16.1
		c11.7,0,20.4-6.8,20.4-19.3c0-12.6-8.7-19.3-20.4-19.4h-16.1C104.6,1.5,104.6,40.2,104.6,40.2z M72.8,40.2h5.3V1.6h-6v29.3L47,1.6
		h-5.3v38.7h6V11L72.8,40.2z M31.7,40.2V35H6.8V22.9h20.6v-5.2H6.8V6.8h24.9V1.6H1v38.7L31.7,40.2L31.7,40.2z"/>
</g>
</svg>
