<?xml version="1.0" encoding="utf-8"?>
<!-- Generator: Adobe Illustrator 24.3.0, SVG Export Plug-In . SVG Version: 6.00 Build 0)  -->
<svg version="1.1" id="Laag_1" xmlns="http://www.w3.org/2000/svg" xmlns:xlink="http://www.w3.org/1999/xlink" x="0px" y="0px"
	 width="49.7px" height="8.6px" viewBox="0 0 49.7 8.6" style="enable-background:new 0 0 49.7 8.6;" xml:space="preserve">
<style type="text/css">
	.st0{fill:#FFFFFF;}
</style>
<g>
	<path class="st0" d="M3.3,0c1.2,0,2.2,0.4,2.9,1.1s1,1.8,1,3.1c0,1.3-0.3,2.4-1,3.1S4.6,8.5,3.3,8.5H0V0H3.3z M3.3,7
		c0.8,0,1.3-0.2,1.8-0.8s0.6-1.2,0.6-2.1c0-0.9-0.2-1.6-0.6-2.1s-1-0.7-1.7-0.7H1.6V7H3.3z"/>
	<path class="st0" d="M11.2,8.6c-1,0-1.7-0.3-2.3-0.9S8.1,6.3,8.1,5.3s0.3-1.8,0.8-2.4S10.2,2,11.2,2c1,0,1.7,0.3,2.3,0.9
		s0.8,1.4,0.8,2.4S14,7.1,13.5,7.7S12.2,8.6,11.2,8.6z M10,6.8c0.3,0.4,0.7,0.5,1.2,0.5s0.9-0.2,1.2-0.5s0.4-0.8,0.4-1.5
		s-0.1-1.1-0.4-1.5s-0.7-0.5-1.2-0.5S10.3,3.5,10,3.8S9.6,4.7,9.6,5.3S9.7,6.4,10,6.8z"/>
	<path class="st0" d="M18.7,2c0.8,0,1.5,0.2,1.9,0.7s0.6,1.1,0.6,2v3.8h-1.5V4.9c0-0.5-0.1-0.9-0.3-1.2S19,3.3,18.5,3.3
		c-0.5,0-0.8,0.1-1.1,0.4s-0.4,0.6-0.4,1.1v3.6h-1.5V2.1h1.1c0.1,0,0.1,0,0.2,0.1s0.1,0.1,0.1,0.2v0.5C17.4,2.3,18,2,18.7,2z"/>
	<path class="st0" d="M28.2,7.1c0.1,0,0.2,0.2,0.2,0.4v1h-0.2c-0.7,0-1.2-0.3-1.5-0.8c-0.5,0.6-1.3,0.9-2.3,0.9
		c-0.6,0-1.1-0.2-1.5-0.5s-0.6-0.8-0.6-1.4c0-0.6,0.2-1,0.6-1.4s1-0.6,1.7-0.7c0.4,0,0.7-0.1,1-0.2s0.4-0.1,0.5-0.2s0.2-0.1,0.3-0.2
		v0c0-0.2-0.1-0.4-0.3-0.6s-0.5-0.2-0.9-0.2c-0.1,0-0.3,0-0.4,0s-0.2,0-0.3,0.1s-0.2,0.1-0.3,0.1s-0.2,0.1-0.2,0.1S24,3.7,23.9,3.7
		s-0.1,0.1-0.1,0.1c-0.1,0.1-0.2,0.1-0.4,0.1s-0.2-0.1-0.3-0.2l-0.5-0.6c0.1-0.1,0.2-0.3,0.4-0.4s0.3-0.3,0.5-0.4s0.5-0.2,0.8-0.3
		S24.8,2,25.2,2c0.9,0,1.6,0.2,2.1,0.6s0.7,1,0.7,1.9v2.1c0,0.1,0,0.2,0.1,0.3S28.1,7,28.2,7.1L28.2,7.1z M24.6,7.3
		c0.3,0,0.5,0,0.7-0.1s0.4-0.2,0.6-0.3s0.3-0.3,0.4-0.5s0.1-0.5,0.1-0.8V5.4c-0.3,0.3-0.8,0.4-1.5,0.5c-0.4,0-0.7,0.1-0.9,0.2
		s-0.3,0.3-0.3,0.6c0,0.2,0.1,0.4,0.2,0.5S24.4,7.3,24.6,7.3z"/>
	<path class="st0" d="M35.6,8.6c-1,0-1.7-0.3-2.3-0.9s-0.8-1.4-0.8-2.4s0.3-1.8,0.8-2.4S34.6,2,35.6,2c1,0,1.7,0.3,2.3,0.9
		s0.8,1.4,0.8,2.4s-0.3,1.8-0.8,2.4S36.5,8.6,35.6,8.6z M34.4,6.8c0.3,0.4,0.7,0.5,1.2,0.5s0.9-0.2,1.2-0.5s0.4-0.8,0.4-1.5
		s-0.1-1.1-0.4-1.5s-0.7-0.5-1.2-0.5s-0.9,0.2-1.2,0.5S34,4.7,34,5.3S34.1,6.4,34.4,6.8z"/>
	<path class="st0" d="M43.2,2.1h0.1V3c0,0.1,0,0.2-0.1,0.3S43.1,3.4,43,3.4h-0.1c-0.5,0-0.9,0.2-1.2,0.5s-0.4,0.8-0.4,1.3v3.2h-1.5
		V2.1h1.1c0.1,0,0.1,0,0.2,0.1s0.1,0.1,0.1,0.2V3C41.7,2.4,42.4,2.1,43.2,2.1z"/>
	<path class="st0" d="M49.6,7.1c0.1,0,0.2,0.2,0.2,0.4v1h-0.2c-0.7,0-1.2-0.3-1.5-0.8c-0.5,0.6-1.3,0.9-2.3,0.9
		c-0.6,0-1.1-0.2-1.5-0.5s-0.6-0.8-0.6-1.4c0-0.6,0.2-1,0.6-1.4s1-0.6,1.7-0.7c0.4,0,0.7-0.1,1-0.2s0.4-0.1,0.5-0.2s0.2-0.1,0.3-0.2
		v0c0-0.2-0.1-0.4-0.3-0.6S47,3.3,46.6,3.3c-0.1,0-0.3,0-0.4,0s-0.2,0-0.3,0.1s-0.2,0.1-0.3,0.1s-0.2,0.1-0.2,0.1s-0.1,0.1-0.2,0.1
		s-0.1,0.1-0.1,0.1c-0.1,0.1-0.2,0.1-0.4,0.1s-0.2-0.1-0.3-0.2L44,3.2c0.1-0.1,0.2-0.3,0.4-0.4s0.3-0.3,0.5-0.4s0.5-0.2,0.8-0.3
		S46.2,2,46.5,2c0.9,0,1.6,0.2,2.1,0.6s0.7,1,0.7,1.9v2.1c0,0.1,0,0.2,0.1,0.3S49.5,7,49.6,7.1L49.6,7.1z M46,7.3
		c0.3,0,0.5,0,0.7-0.1s0.4-0.2,0.6-0.3s0.3-0.3,0.4-0.5s0.1-0.5,0.1-0.8V5.4c-0.3,0.3-0.8,0.4-1.5,0.5c-0.4,0-0.7,0.1-0.9,0.2
		s-0.3,0.3-0.3,0.6c0,0.2,0.1,0.4,0.2,0.5S45.7,7.3,46,7.3z"/>
</g>
</svg>
