<?xml version="1.0" encoding="utf-8"?>
<!-- Generator: Adobe Illustrator 24.3.0, SVG Export Plug-In . SVG Version: 6.00 Build 0)  -->
<svg version="1.1" id="Laag_1" xmlns="http://www.w3.org/2000/svg" xmlns:xlink="http://www.w3.org/1999/xlink" x="0px" y="0px"
	 width="273.2px" height="103.9px" viewBox="0 0 273.2 103.9" style="enable-background:new 0 0 273.2 103.9;" xml:space="preserve"
	>
<style type="text/css">
	.st0{fill:#FFFFFF;}
</style>
<g>
	<g>
		<path class="st0" d="M29.5,31.6c0,1.8-0.3,3.5-1,5c-0.7,1.6-1.6,3-2.8,4.1c-1.2,1.2-2.6,2.1-4.1,2.8c-1.6,0.7-3.3,1-5,1H3.6V2h13
			c1.8,0,3.5,0.3,5,1c1.6,0.7,2.9,1.6,4.1,2.8c1.2,1.2,2.1,2.6,2.8,4.1c0.7,1.6,1,3.3,1,5V31.6z M21.1,15c0-1.3-0.4-2.3-1.3-3.2
			c-0.9-0.9-2-1.4-3.2-1.4H12v25.9h4.6c1.3,0,2.4-0.4,3.3-1.3c0.9-0.9,1.3-2,1.3-3.3V15z"/>
		<path class="st0" d="M61.4,44.6h-8.6l-1.5-7.5H44l-1.4,7.5h-8.7L43.4,2H52L61.4,44.6z M49.8,28.6l-2-10.5l-2.1,10.5H49.8z"/>
		<path class="st0" d="M93.9,44.6h-9.1L74.4,18h-0.2v26.6h-8.4V1.9h10.9l8.6,21.8h0.2V1.9h8.4V44.6z"/>
		<path class="st0" d="M128.5,32c0,2.1-0.4,3.9-1.1,5.6c-0.7,1.7-1.7,3.2-3,4.4c-1.3,1.2-2.7,2.2-4.4,2.9c-1.7,0.7-3.6,1-5.6,1
			c-1.8,0-3.5-0.3-5-1c-1.6-0.7-3-1.6-4.1-2.8c-1.2-1.2-2.1-2.6-2.8-4.1c-0.7-1.6-1-3.3-1-5v-3.9h8.4v4c0,1.3,0.5,2.4,1.4,3.2
			c0.9,0.9,2,1.3,3.2,1.3c1.8,0,3.1-0.5,4-1.4c0.9-0.9,1.3-2.3,1.3-4c0-0.9-0.1-1.6-0.4-2.2c-0.3-0.6-0.7-1.1-1.2-1.4
			c-0.5-0.4-1.1-0.7-1.7-0.9c-0.7-0.2-1.4-0.4-2.1-0.6c-1.9-0.4-3.6-0.9-5.2-1.6c-1.6-0.7-2.9-1.6-4-2.6c-1.1-1.1-2-2.4-2.7-3.9
			c-0.6-1.5-0.9-3.3-0.9-5.4c0-1.8,0.3-3.5,1-5c0.7-1.6,1.6-3,2.8-4.2c1.2-1.2,2.6-2.1,4.1-2.8c1.6-0.7,3.3-1,5-1c1.8,0,3.5,0.3,5,1
			c1.6,0.7,2.9,1.6,4.1,2.8c1.2,1.2,2.1,2.6,2.8,4.1c0.7,1.6,1,3.3,1,5V16h-8.4v-2.5c0-1.3-0.4-2.3-1.3-3.2c-0.9-0.9-2-1.4-3.2-1.4
			c-1.3,0-2.3,0.4-3.2,1.2c-0.9,0.8-1.4,1.9-1.4,3.3c0,1,0.1,1.7,0.3,2.3c0.2,0.6,0.5,1.1,0.9,1.5c0.4,0.4,0.9,0.7,1.6,0.9
			c0.6,0.2,1.4,0.4,2.3,0.6c1.7,0.3,3.4,0.9,5.1,1.5c1.6,0.7,3.1,1.6,4.3,2.7c1.3,1.1,2.3,2.4,3,3.9C128.2,28.3,128.5,30.1,128.5,32
			z"/>
		<path class="st0" d="M156.1,44.6H135V2h8.9v34.3h12.2V44.6z"/>
		<path class="st0" d="M180.9,44.6h-21.1V2h21.1v8.4h-12.2v8.8h12.2v8.4h-12.2v8.7h12.2V44.6z"/>
		<path class="st0" d="M215.5,32c0,2.1-0.4,3.9-1.1,5.6c-0.7,1.7-1.7,3.2-3,4.4c-1.3,1.2-2.7,2.2-4.4,2.9c-1.7,0.7-3.6,1-5.6,1
			c-1.8,0-3.5-0.3-5-1c-1.6-0.7-3-1.6-4.1-2.8c-1.2-1.2-2.1-2.6-2.8-4.1c-0.7-1.6-1-3.3-1-5v-3.9h8.4v4c0,1.3,0.5,2.4,1.4,3.2
			c0.9,0.9,2,1.3,3.2,1.3c1.8,0,3.1-0.5,4-1.4c0.9-0.9,1.3-2.3,1.3-4c0-0.9-0.1-1.6-0.4-2.2c-0.3-0.6-0.7-1.1-1.2-1.4
			c-0.5-0.4-1.1-0.7-1.7-0.9c-0.7-0.2-1.4-0.4-2.1-0.6c-1.9-0.4-3.6-0.9-5.2-1.6s-2.9-1.6-4-2.6c-1.1-1.1-2-2.4-2.7-3.9
			c-0.6-1.5-0.9-3.3-0.9-5.4c0-1.8,0.3-3.5,1-5c0.7-1.6,1.6-3,2.8-4.2c1.2-1.2,2.6-2.1,4.1-2.8c1.6-0.7,3.3-1,5-1s3.5,0.3,5,1
			c1.6,0.7,2.9,1.6,4.1,2.8c1.2,1.2,2.1,2.6,2.8,4.1c0.7,1.6,1,3.3,1,5V16h-8.4v-2.5c0-1.3-0.4-2.3-1.3-3.2c-0.9-0.9-2-1.4-3.2-1.4
			c-1.3,0-2.3,0.4-3.2,1.2c-0.9,0.8-1.4,1.9-1.4,3.3c0,1,0.1,1.7,0.3,2.3c0.2,0.6,0.5,1.1,0.9,1.5c0.4,0.4,0.9,0.7,1.6,0.9
			c0.6,0.2,1.4,0.4,2.3,0.6c1.7,0.3,3.4,0.9,5.1,1.5c1.6,0.7,3.1,1.6,4.3,2.7c1.3,1.1,2.3,2.4,3,3.9C215.1,28.3,215.5,30.1,215.5,32
			z"/>
	</g>
	<g>
		<path class="st0" d="M27.9,58.9l-9.5,42.7H9.9L0.5,58.9h8.6l5,26.6h0.2l5-26.6H27.9z"/>
		<path class="st0" d="M58.3,90c0,1.8-0.3,3.5-1,5c-0.7,1.6-1.6,3-2.8,4.1c-1.2,1.2-2.6,2.1-4.1,2.8c-1.6,0.7-3.3,1-5,1
			c-1.8,0-3.5-0.3-5-1c-1.6-0.7-3-1.6-4.1-2.8c-1.2-1.2-2.1-2.6-2.8-4.1c-0.7-1.6-1-3.3-1-5V70.5c0-1.8,0.3-3.5,1-5
			c0.7-1.6,1.6-3,2.8-4.1c1.2-1.2,2.6-2.1,4.1-2.8c1.6-0.7,3.3-1,5-1c1.8,0,3.5,0.3,5,1c1.6,0.7,2.9,1.6,4.1,2.8
			c1.2,1.2,2.1,2.6,2.8,4.1c0.7,1.6,1,3.3,1,5V90z M49.9,70.5c0-1.3-0.4-2.3-1.3-3.2c-0.9-0.9-2-1.4-3.2-1.4c-1.3,0-2.4,0.4-3.3,1.3
			c-0.9,0.9-1.3,2-1.3,3.3V90c0,1.3,0.4,2.4,1.3,3.3c0.9,0.9,2,1.3,3.2,1.3c1.3,0,2.3-0.4,3.2-1.3c0.9-0.9,1.4-2,1.4-3.2V70.5z"/>
		<path class="st0" d="M86.9,101.6H65.8V59h8.9v34.3h12.2V101.6z"/>
		<path class="st0" d="M116.7,90c0,1.8-0.3,3.5-1,5c-0.7,1.6-1.6,2.9-2.8,4.1c-1.2,1.2-2.6,2.1-4.1,2.8c-1.6,0.7-3.3,1-5,1
			c-1.8,0-3.5-0.3-5-1c-1.6-0.7-3-1.6-4.1-2.8c-1.2-1.2-2.1-2.6-2.8-4.1c-0.7-1.6-1-3.3-1-5V70.5c0-1.8,0.3-3.5,1-5
			c0.7-1.6,1.6-3,2.8-4.1c1.2-1.2,2.6-2.1,4.2-2.8c1.6-0.7,3.3-1,5.1-1c1.8,0,3.5,0.3,5,1c1.6,0.7,2.9,1.6,4.1,2.8
			c1.2,1.2,2.1,2.6,2.8,4.1c0.7,1.6,1,3.3,1,5v1.7h-8.4v-1.7c0-1.3-0.4-2.3-1.3-3.2c-0.9-0.9-2-1.4-3.3-1.4s-2.4,0.4-3.3,1.3
			c-0.9,0.9-1.3,2-1.3,3.3V90c0,1.3,0.4,2.4,1.3,3.3c0.9,0.9,2,1.3,3.3,1.3c1.3,0,2.4-0.4,3.3-1.3c0.9-0.9,1.4-2,1.4-3.2v-3.9h-4.7
			v-8.4h13.1V90z"/>
		<path class="st0" d="M144,101.6h-21.1V59H144v8.4h-12.2v8.8H144v8.4h-12.2v8.7H144V101.6z"/>
		<path class="st0" d="M179.7,101.6h-9.1L160.2,75h-0.2v26.6h-8.4V58.9h10.9l8.6,21.8h0.2V58.9h8.4V101.6z"/>
		<path class="st0" d="M213.2,70.6c0,2.7-0.5,4.9-1.6,6.6s-2.7,3.3-4.9,4.7c-1,0.6-1.6,1.3-2,2.1c-0.4,0.8-0.6,1.7-0.6,2.8v3.7h-8.4
			v-3.8c0-5.2,2.2-9.2,6.6-11.9c0.9-0.6,1.6-1.2,2-1.8c0.4-0.6,0.6-1.5,0.6-2.6c0-1.3-0.4-2.4-1.3-3.3c-0.9-0.9-2-1.3-3.3-1.3
			c-1.3,0-2.4,0.4-3.3,1.3c-0.9,0.9-1.3,2-1.3,3.2V73h-8.4v-2.5c0-1.8,0.3-3.5,1-5.1c0.7-1.6,1.6-3,2.8-4.1c1.2-1.2,2.6-2.1,4.1-2.8
			c1.6-0.7,3.3-1,5-1s3.5,0.3,5,1c1.6,0.7,3,1.6,4.1,2.8s2.1,2.6,2.8,4.1C212.8,67.1,213.2,68.8,213.2,70.6z M205.3,98.2
			c0,1.5-0.5,2.8-1.6,3.9c-1.1,1.1-2.4,1.6-3.9,1.6c-1.5,0-2.8-0.5-3.8-1.6c-1-1.1-1.6-2.4-1.6-3.9s0.5-2.8,1.6-3.9
			c1-1.1,2.3-1.6,3.8-1.6c1.5,0,2.8,0.5,3.9,1.6C204.8,95.3,205.3,96.6,205.3,98.2z"/>
	</g>
</g>
</svg>
