<?xml version="1.0" encoding="utf-8"?>
<!-- Generator: Adobe Illustrator 23.0.2, SVG Export Plug-In . SVG Version: 6.00 Build 0)  -->
<svg version="1.1" id="Laag_1" xmlns="http://www.w3.org/2000/svg" xmlns:xlink="http://www.w3.org/1999/xlink" x="0px" y="0px"
	 width="203.2px" height="49.2px" viewBox="0 0 203.2 49.2" style="enable-background:new 0 0 203.2 49.2;" xml:space="preserve">
<style type="text/css">
	.st0{fill:#F0D447;}
</style>
<g>
	<path class="st0" d="M14,14.8v3.6H1.4v-3.1l6.1-4.7c1.5-1.1,2-2.1,2-3.3c0-1.1-0.7-2.1-2.2-2.1c-2,0-2.8,1.2-2.8,3L0.9,7.6
		C1,3.9,3.4,1.5,7.4,1.5c4.2,0,6.2,2.6,6.2,5.5c0,2.1-0.7,3.8-3.3,5.7l-3.1,2.2L14,14.8L14,14.8z"/>
	<path class="st0" d="M16.8,10.9l0.8-9.2h10.6v3.6H21l-0.2,2.8H22c4.3,0,6.8,1.5,6.8,4.8c0,3.9-2.8,5.8-7.1,5.8
		c-2.6,0-4.8-0.7-5.7-1.1l1-3.4c0.8,0.4,2.6,1,4.4,1c1.9,0,3.2-0.7,3.2-2.2c0-1.3-1.1-1.9-2.9-1.9H17L16.8,10.9z"/>
	<path class="st0" d="M37.4,13.4c1.2,0.8,3.1,1.7,5.1,1.7c1.6,0,2.6-0.5,2.6-1.6c0-0.7-0.5-1.2-1.8-1.5l-2.6-0.7
		c-2.8-0.8-4.1-2.3-4.1-4.6c0-2.8,2.1-5.1,6.5-5.1c2.3,0,4.6,0.7,5.8,1.3l-1.1,3.5c-1.3-0.8-3.3-1.4-5-1.4c-1.6,0-2.2,0.5-2.2,1.3
		c0,0.7,0.5,1,1.5,1.3L45,8.5c3,0.9,4.3,2.4,4.3,4.7c0,3.2-2.7,5.4-6.8,5.4c-2.4,0-4.9-0.8-6-1.4L37.4,13.4z"/>
	<path class="st0" d="M52.4,18.4V1.7h13v3.6h-9.2v2.9h7.4v3.4h-7.4v3.2h9.2v3.6H52.4z"/>
	<path class="st0" d="M68.7,1.7h8.1c3.2,0,6,1.9,6,6.2c0,3.8-2.8,6.1-6,6.1h-4.1v4.4h-4V1.7z M72.7,5.3v5.1h3.4c1.4,0,2.5-1,2.5-2.5
		c0-1.6-1.1-2.6-2.5-2.6C76.1,5.3,72.7,5.3,72.7,5.3z"/>
	<path class="st0" d="M102.6,14.8v3.6H89.9v-3.1l6.1-4.7c1.5-1.2,2.1-2.2,2.1-3.3s-0.7-2.1-2.2-2.1c-2,0-2.8,1.2-2.8,3l-3.6-0.7
		C89.6,3.8,92,1.4,96,1.4c4.2,0,6.2,2.6,6.2,5.5c0,2.1-0.7,3.8-3.3,5.7l-3.1,2.2C95.8,14.8,102.6,14.8,102.6,14.8z"/>
	<path class="st0" d="M112,1.5c4.8,0,7.2,3.3,7.2,8.6c0,5.2-2.4,8.5-7.2,8.5c-4.7,0-7.2-3.3-7.2-8.5C104.8,4.8,107.2,1.5,112,1.5z
		 M112,14.8c2.6,0,3.3-2.2,3.3-4.8c0-2.7-0.7-4.8-3.3-4.8c-2.6,0-3.3,2.2-3.3,4.8C108.7,12.7,109.4,14.8,112,14.8z"/>
	<path class="st0" d="M127.4,1.7h2.9v16.6h-4v-12l-4.5,2.5l-1.5-3.1L127.4,1.7z"/>
	<path class="st0" d="M139.2,15.1c2.6,0,3.6-1.4,3.9-3.6c-0.9,0.6-2.1,1.2-4,1.2c-3.9,0-6-2-6-5.3c0-3.7,2.7-6,6.5-6
		c4.8,0,7.5,3.4,7.5,8.6c0,5.1-2.6,8.5-7.5,8.5c-2.6,0-4.8-0.8-5.7-1.2l1-3.4C135.9,14.5,137.6,15.1,139.2,15.1z M143.1,8.3
		c-0.4-1.8-1.3-3.1-3.3-3.1c-1.6,0-2.5,1-2.5,2.3c0,1.5,1,2.1,2.6,2.1C141.2,9.6,142.4,8.9,143.1,8.3z"/>
	<path class="st0" d="M162.8,5.3v13h-4v-13h-5V1.7h13.8v3.6H162.8z"/>
	<path class="st0" d="M176.2,1.7h2.7V2l-8.5,16.3h-2.7V18L176.2,1.7z"/>
	<path class="st0" d="M195.9,8.2l-4.9,6h-0.7l-4.9-6v10.2h-4V1.7h3.5l5.8,6.9l5.8-6.9h3.5v16.6h-4V8.2H195.9z"/>
</g>
<g>
	<path class="st0" d="M0.7,39.5c0-2.3,1.1-3.6,3.4-4.1c-1.8-0.4-2.8-1.9-2.8-3.5c0-3,2.3-4.7,6.7-4.7s6.7,1.6,6.7,4.7
		c0,1.6-1,3.1-2.9,3.5c2.4,0.5,3.4,1.8,3.4,4.1c0,2.9-2.5,4.8-7.3,4.8C3.1,44.3,0.7,42.4,0.7,39.5z M4.9,39c0,1.1,1.2,2,3.1,2
		c1.9,0,3.1-0.8,3.1-2c0-1-0.9-1.9-3.1-1.9C5.8,37.1,4.9,37.9,4.9,39z M5.4,32.2c0,0.9,0.7,1.7,2.6,1.7s2.6-0.8,2.6-1.7
		c0-1.1-1-1.7-2.6-1.7C6.3,30.5,5.4,31.1,5.4,32.2z"/>
	<path class="st0" d="M39.5,33.9l-5,6h-0.7l-5-6v10.2h-4.1V27.4h3.6l6,6.9l6-6.9h3.6V44h-4.1V33.9H39.5z"/>
	<path class="st0" d="M48.1,27.4H56c3.9,0,6.4,1.8,6.4,5.5c0,2.5-1.6,4.3-4,5l4.9,5.4v0.8h-4.4l-5.1-5.9h-1.5v5.9h-4.1L48.1,27.4
		L48.1,27.4z M52.3,31v4.1H56c1.4,0,2.2-0.8,2.2-2.1s-0.9-2.1-2.2-2.1h-3.7V31z"/>
	<path class="st0" d="M74,31v13h-4.1V31h-5.1v-3.6h14.3V31H74z"/>
	<path class="st0" d="M99.8,40.5v3.6H86.7V41l6.3-4.7c1.6-1.2,2.2-2.2,2.2-3.3c0-1.1-0.8-2.1-2.3-2.1c-2,0-2.9,1.2-2.9,3l-3.8-0.7
		c0.1-3.7,2.5-6.1,6.7-6.1c4.4,0,6.4,2.6,6.4,5.5c0,2.1-0.7,3.8-3.4,5.7l-3.1,2.2C92.8,40.5,99.8,40.5,99.8,40.5z"/>
	<path class="st0" d="M109.7,27.2c4.9,0,7.5,3.3,7.5,8.6c0,5.2-2.5,8.5-7.5,8.5c-4.9,0-7.4-3.3-7.4-8.5
		C102.3,30.5,104.8,27.2,109.7,27.2z M109.7,40.5c2.7,0,3.4-2.2,3.4-4.8c0-2.7-0.7-4.8-3.4-4.8c-2.6,0-3.4,2.2-3.4,4.8
		C106.3,38.4,107,40.5,109.7,40.5z"/>
	<path class="st0" d="M133.1,40.5v3.6H120V41l6.3-4.7c1.6-1.2,2.2-2.2,2.2-3.3c0-1.1-0.8-2.1-2.3-2.1c-2,0-2.9,1.2-2.9,3l-3.8-0.7
		c0.1-3.7,2.5-6.1,6.7-6.1c4.4,0,6.4,2.6,6.4,5.5c0,2.1-0.7,3.8-3.4,5.7l-3.1,2.2C126.1,40.5,133.1,40.5,133.1,40.5z"/>
	<path class="st0" d="M143,27.2c4.9,0,7.5,3.3,7.5,8.6c0,5.2-2.5,8.5-7.5,8.5c-4.9,0-7.4-3.3-7.4-8.5
		C135.6,30.5,138.1,27.2,143,27.2z M143,40.5c2.7,0,3.4-2.2,3.4-4.8c0-2.7-0.7-4.8-3.4-4.8c-2.6,0-3.4,2.2-3.4,4.8
		C139.6,38.4,140.3,40.5,143,40.5z"/>
</g>
</svg>
