<?xml version="1.0" encoding="utf-8"?>
<!-- Generator: Adobe Illustrator 23.0.2, SVG Export Plug-In . SVG Version: 6.00 Build 0)  -->
<svg version="1.1" id="Laag_1" xmlns="http://www.w3.org/2000/svg" xmlns:xlink="http://www.w3.org/1999/xlink" x="0px" y="0px"
	 width="168.5px" height="24.4px" viewBox="0 0 168.5 24.4" style="enable-background:new 0 0 168.5 24.4;" xml:space="preserve">
<style type="text/css">
	.st0{fill:#FFFFFF;}
</style>
<g>
	<path class="st0" d="M7,7.4v1.8H0.6V7.6l3.1-2.4c0.8-0.6,1.1-1.1,1.1-1.7S4.4,2.5,3.6,2.5c-1,0-1.4,0.6-1.4,1.5L0.3,3.7
		c0-1.9,1.2-3.1,3.3-3.1c2.2,0,3.2,1.3,3.2,2.8c0,1-0.3,1.9-1.7,2.9L3.6,7.4H7z"/>
	<path class="st0" d="M8.4,5.4l0.4-4.7h5.4v1.8h-3.7l-0.1,1.4H11c2.2,0,3.5,0.7,3.5,2.4c0,2-1.4,2.9-3.6,2.9C9.5,9.3,8.4,9,8,8.8
		l0.5-1.7c0.4,0.2,1.3,0.5,2.3,0.5c0.9,0,1.6-0.4,1.6-1.1c0-0.7-0.6-0.9-1.5-0.9L8.4,5.4L8.4,5.4z"/>
	<path class="st0" d="M24.4,0.7v5.1c0,2.1-1.1,3.6-3.3,3.6c-2.3,0-3.2-1.4-3.3-3.4l2-0.2c0.1,1.1,0.4,1.7,1.3,1.7
		c1,0,1.3-0.7,1.3-1.8V0.7H24.4z"/>
	<path class="st0" d="M28.4,0.7h2.4L34,9.2h-2.1l-0.6-1.6h-3.5l-0.6,1.6h-2.1L28.4,0.7z M28.4,6.1h2.4l-1.2-3.3L28.4,6.1z"/>
	<path class="st0" d="M37.3,0.7h2.4l3.1,8.5h-2.1l-0.6-1.6h-3.5l-0.6,1.6h-2.1L37.3,0.7z M37.3,6.1h2.4l-1.2-3.3L37.3,6.1z"/>
	<path class="st0" d="M44,0.7h3.9c1.9,0,3.2,0.9,3.2,2.8c0,1.3-0.8,2.2-2,2.5l2.4,2.7v0.4h-2.2l-2.5-3H46v3h-2V0.7z M46,2.5v2.1h1.8
		c0.7,0,1.1-0.4,1.1-1c0-0.6-0.4-1-1.1-1H46z"/>
	<path class="st0" d="M63.1,4l-2.5,3.1h-0.4L57.7,4v5.2h-2V0.7h1.8l2.9,3.5l2.9-3.5h1.8v8.5h-2V4z"/>
	<path class="st0" d="M71,0.6c2.4,0,4.3,1.9,4.3,4.4c0,2.5-1.8,4.4-4.3,4.4c-2.4,0-4.2-1.9-4.2-4.4C66.7,2.5,68.5,0.6,71,0.6z
		 M71,7.4c1.3,0,2.2-1,2.2-2.4c0-1.4-0.9-2.4-2.2-2.4c-1.3,0-2.2,1-2.2,2.4C68.7,6.3,69.7,7.4,71,7.4z"/>
	<path class="st0" d="M78.9,4v5.2h-2V0.7h1.8l4.2,5.2V0.7h2v8.5H83L78.9,4z"/>
	<path class="st0" d="M86.9,0.7h3.7c2.4,0,4.3,1.5,4.3,4.3c0,2.7-1.8,4.2-4.3,4.2h-3.7V0.7z M88.9,2.5v4.8h1.6
		c1.3,0,2.2-0.9,2.2-2.4c0-1.6-0.9-2.4-2.2-2.4H88.9z"/>
	<path class="st0" d="M96.5,0.7h3.9c1.9,0,3.2,0.9,3.2,2.8c0,1.3-0.8,2.2-2,2.5l2.4,2.7v0.4h-2.2l-2.5-3h-0.8v3h-2V0.7z M98.5,2.5
		v2.1h1.8c0.7,0,1.1-0.4,1.1-1c0-0.6-0.4-1-1.1-1H98.5z"/>
	<path class="st0" d="M105.4,0.7h2v8.5h-2V0.7z"/>
	<path class="st0" d="M111.7,0.7h2.4l3.1,8.5h-2.1l-0.6-1.6h-3.5l-0.6,1.6h-2.1L111.7,0.7z M111.7,6.1h2.4l-1.2-3.3L111.7,6.1z"/>
	<path class="st0" d="M120.6,0.7h2.4l3.1,8.5h-2.1l-0.6-1.6H120l-0.6,1.6h-2.1L120.6,0.7z M120.6,6.1h2.4l-1.2-3.3L120.6,6.1z"/>
	<path class="st0" d="M129.3,4v5.2h-2V0.7h1.8l4.2,5.2V0.7h2v8.5h-1.8L129.3,4z"/>
	<path class="st0" d="M143.3,5.8h-3.9v3.4h-2V0.7h2V4h3.9V0.7h2v8.5h-2V5.8z"/>
	<path class="st0" d="M149.3,5.4c0,1.2,0.6,2,1.8,2c1.2,0,1.8-0.8,1.8-2V0.7h2v4.8c0,2-1.4,3.8-3.9,3.8c-2.5,0-3.8-1.6-3.8-3.8V0.7
		h2V5.4z"/>
	<path class="st0" d="M156.9,0.7h2v8.5h-2V0.7z"/>
	<path class="st0" d="M161.1,6.7c0.6,0.4,1.6,0.8,2.6,0.8c0.8,0,1.3-0.3,1.3-0.8c0-0.4-0.3-0.6-0.9-0.8l-1.3-0.4
		c-1.4-0.4-2.1-1.2-2.1-2.4c0-1.4,1.1-2.6,3.3-2.6c1.2,0,2.3,0.3,3,0.7l-0.6,1.8c-0.6-0.4-1.6-0.7-2.5-0.7c-0.8,0-1.1,0.3-1.1,0.7
		c0,0.4,0.2,0.5,0.8,0.7l1.5,0.4c1.5,0.4,2.2,1.2,2.2,2.4c0,1.6-1.4,2.8-3.5,2.8c-1.2,0-2.5-0.4-3-0.7L161.1,6.7z"/>
</g>
<g>
	<path class="st0" d="M6.7,22.7v0.8H0.6v-0.7l3.5-2.7c1-0.8,1.5-1.5,1.5-2.5c0-1.1-0.7-2-2.1-2c-1.5,0-2.3,0.9-2.3,2.2l-0.8-0.1
		c0-1.7,1.1-2.9,3.1-2.9c2,0,2.9,1.2,2.9,2.7c0,1.1-0.4,2-1.7,3l-2.8,2.2H6.7z"/>
	<path class="st0" d="M8.5,19l0.3-4H14v0.8H9.5l-0.2,2.7h1.6c2,0,3.4,0.7,3.4,2.4c0,2-1.6,2.8-3.4,2.8c-1.5,0-2.4-0.4-2.9-0.6
		l0.3-0.7c0.4,0.2,1.3,0.6,2.6,0.6c1.3,0,2.6-0.6,2.6-2c0-1.3-1.1-1.7-2.6-1.7L8.5,19L8.5,19z"/>
	<path class="st0" d="M19.1,15h0.8v3.9h1.1l3.5-3.9h0.9v0.1l-3.6,4.2l4,4v0.1h-1L21,19.7h-1.1v3.8h-0.8V15z"/>
	<path class="st0" d="M28.1,20c0,1.7,0.8,2.8,2.7,2.8c1.9,0,2.7-1.3,2.7-2.8v-5h0.8v5c0,1.9-1.2,3.6-3.5,3.6c-2.4,0-3.5-1.5-3.5-3.6
		v-5h0.8V20z"/>
	<path class="st0" d="M37.7,16.4v7.1h-0.8V15h0.7l5.8,7.2V15h0.8v8.5h-0.7L37.7,16.4z"/>
	<path class="st0" d="M46.7,22.1c0.5,0.3,1.5,0.8,2.6,0.8c1.4,0,2.4-0.6,2.4-1.7c0-0.7-0.5-1.1-1.7-1.4l-1.6-0.4c-1.3-0.3-2-1-2-2.1
		c0-1.2,1-2.3,3.1-2.3c1.1,0,2.2,0.3,2.8,0.7l-0.2,0.8c-0.6-0.3-1.7-0.7-2.6-0.7c-1.6,0-2.3,0.7-2.3,1.5c0,0.7,0.5,1.1,1.4,1.3
		l1.7,0.4c1.4,0.4,2.2,1,2.2,2.2c0,1.5-1.4,2.5-3.3,2.5c-1.2,0-2.3-0.4-2.8-0.7L46.7,22.1z"/>
	<path class="st0" d="M57.6,15.8v7.7h-0.8v-7.7h-3.2V15h7v0.8H57.6z"/>
	<path class="st0" d="M62.3,23.5V15h6.3v0.8H63v2.9h4.6v0.8H63v3.3h5.5v0.8H62.3z"/>
	<path class="st0" d="M71.5,16.4v7.1h-0.8V15h0.7l5.8,7.2V15h0.8v8.5h-0.7L71.5,16.4z"/>
	<path class="st0" d="M83.3,15h0.9l3.4,8.5h-0.8l-0.8-2.1h-4.5l-0.9,2.1h-0.8L83.3,15z M81.7,20.8h4l-2-4.9L81.7,20.8z"/>
	<path class="st0" d="M91.9,15h0.9l3.4,8.5h-0.8l-0.8-2.1H90l-0.9,2.1h-0.8L91.9,15z M90.3,20.8h4l-2-4.9L90.3,20.8z"/>
	<path class="st0" d="M98,15h3.5c1.6,0,2.9,0.8,2.9,2.7c0,1.6-1.2,2.6-2.6,2.6l3.2,3.1v0.1h-1l-3.3-3.2h-1.9v3.2H98V15z M98.8,15.8
		v3.8h2.8c1.1,0,2-0.7,2-1.9c0-1.3-0.9-1.9-2-1.9H98.8z"/>
	<path class="st0" d="M106.4,22.1c0.5,0.3,1.5,0.8,2.6,0.8c1.4,0,2.4-0.6,2.4-1.7c0-0.7-0.5-1.1-1.7-1.4l-1.6-0.4
		c-1.3-0.3-2-1-2-2.1c0-1.2,1-2.3,3.1-2.3c1.1,0,2.2,0.3,2.8,0.7l-0.2,0.8c-0.6-0.3-1.7-0.7-2.6-0.7c-1.6,0-2.3,0.7-2.3,1.5
		c0,0.7,0.5,1.1,1.4,1.3l1.7,0.4c1.4,0.4,2.2,1,2.2,2.2c0,1.5-1.4,2.5-3.3,2.5c-1.2,0-2.3-0.4-2.8-0.7L106.4,22.1z"/>
</g>
</svg>
