<?xml version="1.0" encoding="utf-8"?>
<!-- Generator: Adobe Illustrator 24.0.0, SVG Export Plug-In . SVG Version: 6.00 Build 0)  -->
<svg version="1.1" id="Layer_1" xmlns="http://www.w3.org/2000/svg" xmlns:xlink="http://www.w3.org/1999/xlink" x="0px" y="0px"
	 width="93.1px" height="41.7px" viewBox="0 0 93.1 41.7" style="enable-background:new 0 0 93.1 41.7;" xml:space="preserve">
<g>
	<path d="M11.9,0v8.6H10V2.5L7.2,8.7H5L2.2,2.5v6.2H0.3V0h2.8l3,6.6l3-6.6H11.9z"/>
	<path d="M21.6,6.5h-5.4l-1.3,2.2h-2.2L17.8,0H20l5.1,8.6h-2.2L21.6,6.5z M17.2,4.8h3.4l-1.7-2.9L17.2,4.8z"/>
	<path d="M34.4,6.5H29l-1.3,2.2h-2.2L30.6,0h2.2l5.1,8.6h-2.2L34.4,6.5z M30,4.8h3.4l-1.7-2.9L30,4.8z"/>
	<path d="M43.1,3.7l-2.4,1.8v3.2h-1.9V0h1.9v3.4L45.3,0h2.8l-3.5,2.6l4.3,6.1h-2.4L43.1,3.7z"/>
	<path d="M2.4,19.5c-0.8-0.2-1.5-0.5-2.1-1l0.2-1.7c0.6,0.3,1.3,0.6,2.2,0.8C3.4,17.9,4.2,18,4.9,18c0.6,0,1.1-0.1,1.4-0.4
		c0.3-0.2,0.5-0.6,0.5-1.1v-3.8H0.4V11h8.3v5.8c0,0.6-0.2,1.2-0.5,1.6c-0.4,0.4-0.8,0.8-1.5,1c-0.6,0.2-1.3,0.3-2,0.3
		C3.9,19.8,3.1,19.7,2.4,19.5z"/>
	<path d="M10.1,11h8.8v1.7H12v1.8h6.9v1.6H12V18h6.9v1.7h-8.8V11z"/>
	<path d="M23.7,11h8.8v1.7h-6.9v1.8h6.9v1.6h-6.9V18h6.9v1.7h-8.8V11z"/>
	<path d="M39,12.7V18h3.4v1.7h-8.6V18h3.4v-5.3h-3.4V11h8.6v1.7H39z"/>
	<path d="M54.1,14.8V19c-1.5,0.6-3,0.9-4.7,0.9c-1.2,0-2.3-0.2-3.1-0.5c-0.9-0.4-1.5-0.9-2-1.5c-0.5-0.7-0.7-1.5-0.7-2.5
		c0-0.9,0.2-1.7,0.7-2.4c0.5-0.7,1.2-1.2,2.1-1.6c0.9-0.4,1.9-0.6,3.1-0.6c0.8,0,1.6,0.1,2.4,0.2c0.8,0.2,1.5,0.5,2.2,0.9l-0.7,1.6
		c-1.1-0.7-2.4-1-3.7-1c-0.8,0-1.5,0.1-2.1,0.3c-0.6,0.2-1.1,0.5-1.4,0.9c-0.3,0.4-0.5,0.9-0.5,1.4c0,0.9,0.3,1.6,1,2
		c0.7,0.5,1.7,0.7,3,0.7c1,0,1.9-0.1,2.6-0.3v-1.2h-2.9v-1.7H54.1z"/>
	<path d="M55.3,11h8.8v1.7h-6.9v1.8h6.9v1.6h-6.9V18h6.9v1.7h-8.8V11z"/>
	<path d="M75.4,11v8.6h-1.6l-6.6-5.8v5.8h-1.9V11h1.6l6.6,5.8V11H75.4z"/>
	<path d="M8.8,23.1c0.9,0.7,1.4,1.8,1.4,3.2c0,1.4-0.5,2.5-1.4,3.2c-0.9,0.7-2.3,1.1-4,1.1H0.3V22h4.5C6.5,22,7.9,22.4,8.8,23.1z
		 M7.3,28.3c0.6-0.4,0.9-1.1,0.9-2s-0.3-1.5-0.9-2s-1.5-0.7-2.8-0.7H2.2V29h2.4C5.8,29,6.7,28.8,7.3,28.3z"/>
	<path d="M11.4,22h8.8v1.7h-6.9v1.8h6.9v1.6h-6.9V29h6.9v1.7h-8.8V22z"/>
	<path d="M23.6,30.4c-1-0.3-1.7-0.6-2.2-1.1l0.4-1.7c0.7,0.5,1.5,0.9,2.3,1.1c0.8,0.2,1.7,0.3,2.8,0.3c0.8,0,1.3-0.1,1.6-0.3
		c0.3-0.2,0.5-0.4,0.5-0.7c0-0.3-0.1-0.5-0.3-0.6s-0.5-0.2-0.9-0.2c-0.3,0-0.8-0.1-1.5-0.1c-0.3,0-0.4,0-0.6,0
		c-1.4,0-2.5-0.3-3.2-0.8c-0.7-0.5-1-1.1-1-2c0-0.9,0.4-1.5,1.1-2s1.8-0.6,3-0.6c2,0,3.7,0.5,5.1,1.4L30.5,25
		c-0.7-0.5-1.4-0.8-2.3-1.1c-0.9-0.2-1.8-0.4-2.8-0.4c-0.5,0-0.9,0.1-1.3,0.2c-0.3,0.1-0.5,0.4-0.5,0.7c0,0.4,0.2,0.6,0.6,0.7
		c0.4,0.1,1.1,0.2,2.1,0.2c1,0,1.8,0.1,2.5,0.3c0.7,0.2,1.2,0.4,1.6,0.8c0.4,0.4,0.6,0.9,0.6,1.6c0,0.6-0.2,1.1-0.6,1.5
		c-0.4,0.4-0.9,0.7-1.6,0.9c-0.7,0.2-1.5,0.3-2.3,0.3C25.6,30.8,24.6,30.7,23.6,30.4z"/>
	<path d="M37.7,23.7V29H41v1.7h-8.6V29h3.4v-5.3h-3.4V22H41v1.7H37.7z"/>
	<path d="M52.8,25.8V30c-1.5,0.6-3,0.9-4.7,0.9c-1.2,0-2.3-0.2-3.1-0.5c-0.9-0.4-1.5-0.9-2-1.5c-0.5-0.7-0.7-1.5-0.7-2.5
		c0-0.9,0.2-1.7,0.7-2.4c0.5-0.7,1.2-1.2,2.1-1.6c0.9-0.4,1.9-0.6,3.1-0.6c0.8,0,1.6,0.1,2.4,0.2c0.8,0.2,1.5,0.5,2.2,0.9l-0.7,1.6
		c-1.1-0.7-2.4-1-3.7-1c-0.8,0-1.5,0.1-2.1,0.3c-0.6,0.2-1.1,0.5-1.4,0.9c-0.3,0.4-0.5,0.9-0.5,1.4c0,0.9,0.3,1.6,1,2
		c0.7,0.5,1.7,0.7,3,0.7c1,0,1.9-0.1,2.6-0.3v-1.2h-2.9v-1.7H52.8z"/>
	<path d="M64.1,22v8.6h-1.6l-6.6-5.8v5.8H54V22h1.6l6.6,5.8V22H64.1z"/>
	<path d="M65.5,22h8.8v1.7h-6.9v1.8h6.9v1.6h-6.9V29h6.9v1.7h-8.8V22z"/>
	<path d="M84.6,30.7h-2.3L82,30.3c-0.4-0.6-0.7-1-0.9-1.3c-0.5-0.6-1.1-1-1.7-1.3c-0.6-0.2-1.2-0.4-2-0.4v3.3h-1.9V22H81
		c1.1,0,2,0.2,2.6,0.7c0.6,0.5,0.9,1.1,0.9,2c0,1.6-1.1,2.5-3.2,2.6c0.4,0.2,0.8,0.5,1.3,0.9c0.4,0.4,0.8,0.8,1.2,1.3L84.6,30.7z
		 M81.6,25.7c0.3,0,0.5-0.1,0.7-0.3c0.2-0.1,0.3-0.4,0.3-0.7c0-0.3-0.1-0.5-0.3-0.7c-0.2-0.1-0.4-0.2-0.7-0.3c-0.3,0-0.8,0-1.4,0
		h-2.8v2h2.8C80.8,25.7,81.3,25.7,81.6,25.7z"/>
	<path d="M4.5,36.7l-2.4,1.8v3.2H0.3V33h1.9v3.4L6.7,33h2.8l-3.5,2.6l4.3,6.1H8L4.5,36.7z"/>
	<path d="M21.4,33v8.6h-1.6l-6.6-5.8v5.8h-1.9V33h1.6l6.6,5.8V33H21.4z"/>
	<path d="M28.1,34.7V40h3.4v1.7h-8.6V40h3.4v-5.3h-3.4V33h8.6v1.7H28.1z"/>
	<path d="M42.8,34.7h-4.1v7h-1.9v-7h-4.1V33h10.1V34.7z"/>
	<path d="M60.1,33l-3.6,8.6h-2.2l-2.4-5.9l-2.4,5.9h-2.2L43.7,33h2.1l2.6,6.3l2.6-6.3h1.9l2.6,6.3L58,33H60.1z"/>
	<path d="M61,33h8.8v1.7h-6.9v1.8h6.9v1.6h-6.9V40h6.9v1.7H61V33z"/>
	<path d="M79.5,39.5h-5.4l-1.3,2.2h-2.2l5.1-8.6h2.2l5.1,8.6h-2.2L79.5,39.5z M75.1,37.8h3.4l-1.7-2.9L75.1,37.8z"/>
	<path d="M93.1,41.7h-2.3l-0.3-0.4c-0.4-0.6-0.7-1-0.9-1.3c-0.5-0.6-1.1-1-1.7-1.3c-0.6-0.2-1.2-0.4-2-0.4v3.3h-1.9V33h5.5
		c1.1,0,2,0.2,2.6,0.7c0.6,0.5,0.9,1.1,0.9,2c0,1.6-1.1,2.5-3.2,2.6c0.4,0.2,0.8,0.5,1.3,0.9c0.4,0.4,0.8,0.8,1.2,1.3L93.1,41.7z
		 M90,36.7c0.3,0,0.5-0.1,0.7-0.3c0.2-0.1,0.3-0.4,0.3-0.7c0-0.3-0.1-0.5-0.3-0.7c-0.2-0.1-0.4-0.2-0.7-0.3c-0.3,0-0.8,0-1.4,0h-2.8
		v2h2.8C89.3,36.7,89.7,36.7,90,36.7z"/>
</g>
</svg>
