<?xml version="1.0" encoding="utf-8"?>
<!-- Generator: Adobe Illustrator 24.3.0, SVG Export Plug-In . SVG Version: 6.00 Build 0)  -->
<svg version="1.1" id="Laag_1" xmlns:v="https://vecta.io/nano"
	 xmlns="http://www.w3.org/2000/svg" xmlns:xlink="http://www.w3.org/1999/xlink" x="0px" y="0px" width="96.4px" height="24.6px"
	 viewBox="0 0 96.4 24.6" style="enable-background:new 0 0 96.4 24.6;" xml:space="preserve">
<path d="M15.3,14.1c-0.2,0.5-0.6,1.6-0.8,2.4h-0.9c-0.1-0.4-0.3-1.2-0.6-1.7l-2.3-5.2c-0.3-0.7-0.6-0.9-0.9-0.9V8.1h3.8v0.6
	c-0.8,0-0.9,0.4-0.6,1l1.9,4.2l1.4-3.4c0.4-1,0.3-1.7-0.7-1.8V8.1h2.6v0.6c-0.4,0.1-0.7,0.4-0.9,1C17.3,9.7,15.3,14.1,15.3,14.1z
	 M19.7,9.8c0-0.7-0.2-1.1-1.1-1.1V8.1h4.3v0.6c-0.8,0-1.1,0.3-1.1,1v3.5c0,1.5,0.6,2.3,2.2,2.3c1.1,0,2.4-0.5,2.4-2.3v-3
	c0-1.1-0.3-1.5-1.3-1.6V8.1h3v0.6c-0.7,0.1-1,0.5-1,1.3v3.4c0,2.4-1.7,3-3.6,3c-2.1,0-3.8-0.7-3.8-3C19.7,13.4,19.7,9.8,19.7,9.8z"
	/>
<g>
	<path id="B" d="M31.9,14.3c0,1,0.3,1.4,1.2,1.4c1,0,1.8-0.5,2.7-1.5h0.7l-0.3,2h-7.4v-0.6c0.7,0,1-0.3,1-1v-5c0-0.6-0.3-0.9-1-0.9
		V8.1H33v0.6c-0.8,0-1.1,0.3-1.1,1C31.9,9.7,31.9,14.3,31.9,14.3z"/>
</g>
<g>
	<path id="B_1_" d="M40.1,14.3c0,1,0.3,1.4,1.2,1.4c1,0,1.8-0.5,2.7-1.5h0.7l-0.3,2H37v-0.6c0.7,0,1-0.3,1-1v-5c0-0.6-0.3-0.9-1-0.9
		V8.1h4.2v0.6c-0.8,0-1.1,0.3-1.1,1C40.1,9.7,40.1,14.3,40.1,14.3z"/>
</g>
<g>
	<path id="B_2_" d="M51.7,14.3c0,1,0.3,1.4,1.2,1.4c1,0,1.8-0.5,2.7-1.5h0.7l-0.3,2h-7.4v-0.6c0.7,0,1-0.3,1-1v-5
		c0-0.6-0.3-0.9-1-0.9V8.1h4.2v0.6c-0.8,0-1.1,0.3-1.1,1C51.7,9.7,51.7,14.3,51.7,14.3z"/>
</g>
<g>
	<path id="B_3_" d="M59.9,14.3c0,1,0.3,1.4,1.2,1.4c1,0,1.8-0.5,2.7-1.5h0.7l-0.3,2h-7.4v-0.6c0.7,0,1-0.3,1-1v-5
		c0-0.6-0.3-0.9-1-0.9V8.1H61v0.6c-0.8,0-1.1,0.3-1.1,1C59.9,9.7,59.9,14.3,59.9,14.3z"/>
</g>
<path d="M66,9.8c0-0.7-0.2-1.1-1.1-1.1V8.1h4.3v0.6c-0.8,0-1.1,0.3-1.1,1v3.5c0,1.5,0.6,2.3,2.2,2.3c1.1,0,2.4-0.5,2.4-2.3v-3
	c0-1.1-0.3-1.5-1.3-1.6V8.1h3v0.6c-0.8,0.1-1.1,0.5-1.1,1.3v3.4c0,2.4-1.7,3-3.6,3c-2.1,0-3.8-0.7-3.8-3L66,9.8L66,9.8z M86.6,16.3
	h-4.2v-0.6h0.1c0.6,0,0.9-0.3,0.9-1c0-0.8-0.3-1.9-0.4-2.5l-0.3-2l0,0c-0.6,1.5-2,3.7-2.5,6.1h-0.8c-0.1-0.5-0.2-0.8-0.5-1.5l-2-4.4
	l0,0l-0.6,3.7c0,0.2-0.1,0.5-0.1,0.7c0,0.6,0.3,1,0.9,1h0.2v0.6h-2.7v-0.6c0.7,0,0.9-0.8,1.1-1.7l0.7-4.1c0.1-0.7,0-1.2-0.9-1.2V8.1
	h3c0,1.2,0.8,2.4,2,5.3c0.8-2.1,2-3.6,2-4.8V8.2h3.3v0.6h-0.2c-0.8,0-0.9,0.5-0.8,1.4l0.7,4.5c0.1,0.7,0.3,1.1,1,1.1v0.5L86.6,16.3z
	"/>
</svg>
