<?xml version="1.0" encoding="utf-8"?>
<!-- Generator: Adobe Illustrator 24.3.0, SVG Export Plug-In . SVG Version: 6.00 Build 0)  -->
<svg version="1.1" id="Laag_1" xmlns="http://www.w3.org/2000/svg" xmlns:xlink="http://www.w3.org/1999/xlink" x="0px" y="0px"
	 width="101.3px" height="108.3px" viewBox="0 0 101.3 108.3" style="enable-background:new 0 0 101.3 108.3;" xml:space="preserve"
	>
<style type="text/css">
	.st0{fill:#84BF63;}
</style>
<path class="st0" d="M29.9,62.8l4.7,1.9c0,6.2-0.7,11-2.3,17.2L3.3,93.5L0,89.2C6.4,85.1,18.4,74.9,29.9,62.8z M48.1,44.4
	c6.8,1.4,11.2,5.6,13.7,12.3c-0.6,7-3.6,11.7-8.1,14.4v1.2l3.2,2.6l3,32.2l-14.9,1.1l-2.7-2.8l3.5-33.8c-4.6-1.9-7.9-5.6-10-10.5
	C37.3,52,41.2,46.4,48.1,44.4z M45.8,0l4.7,1.4c-0.1,11.1,0.6,24.3,2,37.8l-5.2,3.1c-4.7-3.3-7.8-7.3-10.6-11.8L45.8,0z M45.3,63.7
	c3,1.2,5.9,1.1,8.5-0.7c1.4-2.8,1.2-6-1.5-9.1c-3-1.5-5.8-1.4-8.4,0.4C42.3,57.1,42.8,60.2,45.3,63.7z M52.6,97.7l1-2.1l-2-13.7
	l-1.4-0.1L49,96.3L52.6,97.7z M72.4,55.3l4.1,0.4c10.6,8.4,18.9,15.5,24.8,22.5l-3.5,3.7c-9.7-4.3-24.4-10.2-33.6-13l-1.2-3.5
	L72.4,55.3z"/>
</svg>
