<?xml version="1.0" encoding="utf-8"?>
<!-- Generator: Adobe Illustrator 24.3.0, SVG Export Plug-In . SVG Version: 6.00 Build 0)  -->
<svg version="1.1" id="Laag_1" xmlns="http://www.w3.org/2000/svg" xmlns:xlink="http://www.w3.org/1999/xlink" x="0px" y="0px"
	 width="195.2px" height="131px" viewBox="0 0 195.2 131" style="enable-background:new 0 0 195.2 131;" xml:space="preserve">
<style type="text/css">
	.st0{fill:#067986;}
</style>
<g>
	<path class="st0" d="M0.4,3.7l17.9-1.3L18.6,3l-1.2,6.5l-0.6,0.3c-3.1-2.5-6.6-3.2-10.5-3.3l-1.1,1l-0.2,4.8l7.2-1.8l0.6,0.7L11,17
		l-0.6,0c-1.4-0.9-3.6-1-5.5-0.8L4.6,22c6.1,0,8.6-1.2,13.1-6l0.5,0.4l-0.7,8.1L0,25.2L0.4,3.7z"/>
	<path class="st0" d="M19.1,24.5l8.2-8.8c-2-2.6-4.5-5.4-7.3-8.3l0.1-0.8l5.6-0.7c1,1.3,2.6,3.2,4.7,6l3.5-5.3
		c2.2-0.1,4.2-0.3,6.3-0.6l0,0.7L33,15.4c2.2,2.7,4.4,5.4,6.7,7.9l-0.3,0.8L34,25.8c-1-1.8-2.4-4.1-4.2-6.8L26,24.1
		c-2.2,0.3-4.1,0.7-6.1,1.1L19.1,24.5z"/>
	<path class="st0" d="M54.6,14.8c0.1-1.6-0.3-2.5-1-3.1c-1.8,0.2-4.2,1.4-6.2,2.8l0.1,9.1l-5,1.9L42.1,25c0.5-5.4,0.8-14.4,0.6-20.5
		l6.1-1.6l0.4,0.5c-0.9,2.1-1.3,4.5-1.4,6.5l6-4h0.9l5.2,6.5c-0.6,4.3-1.4,7.7-2.8,11.8l-6.3,1.2l-0.5-0.7
		C51.5,23.4,54.3,19.1,54.6,14.8z"/>
	<path class="st0" d="M62.5,8.4l5.2-2l0.5,0.3c-0.6,4.6-0.7,11.1-0.5,17l-5.1,1.5L62,25C62.5,19.8,62.7,13.6,62.5,8.4z M62.6,2.3
		l5-1.9l0.5,0.3l0,1.8l-4.8,2.4l-0.7-0.2V2.3z"/>
	<path class="st0" d="M71.2,3.2l6.1-1.1l0.3,0.2l-1.2,5L77.1,8l3.5-2.6h0.5l5.4,7.3l-3.7,10.7l-11.9,1.8l-0.5-0.4
		C71.9,17.4,72,10.2,71.2,3.2z M76.3,20.2l1.1,0.2l4.1-3.3c0.4-1.9,0.6-3.8,0.6-5.7c-2-1.3-4.1-1.2-6.3-0.6L76.3,20.2z"/>
	<path class="st0" d="M88.9,8.4l5.2-2l0.5,0.3c-0.6,4.6-0.7,11.1-0.5,17l-5.1,1.5L88.4,25C88.9,19.8,89.1,13.6,88.9,8.4z M89.1,2.3
		l5-1.9l0.5,0.3l0,1.8l-4.8,2.4l-0.7-0.2V2.3z"/>
	<path class="st0" d="M98.4,4.7l5.2-2.1l0.6,0.5c-0.5,1.7-0.8,3.8-1,6.1l0.2,0.1l5.7-2.9l0.3,0.2l-2.2,7.9l-0.5,0.1l-3.4-1.5l-0.2,0
		c-0.1,3.7,0.2,7.3,0.8,10l-0.3,1.2l-5.9,0.4L98.4,4.7z"/>
	<path class="st0" d="M111,8.4l5.2-2l0.5,0.3c-0.6,4.6-0.7,11.1-0.5,17l-5.1,1.5l-0.7-0.2C111,19.8,111.2,13.6,111,8.4z M111.1,2.3
		l5-1.9l0.5,0.3l0,1.8l-4.8,2.4l-0.7-0.2V2.3z"/>
	<path class="st0" d="M118.4,17.5l5.1-11.6l9-0.6l4.9,7.4v0.9L133,24l-9.2,1.3L118.4,17.5z M126.6,20.9l2,0.4l4.2-8
		c-1.3-1.8-2.9-3-4.8-3.8c-1.8,1.8-3.5,4.1-5.1,6.7L126.6,20.9z"/>
	<path class="st0" d="M152.4,13.4c0.1-1.6-0.5-2.8-1.6-3.6c-1.8,0-4.6,1.2-6.6,2.6l0.1,11.2l-5.4,1.9l-0.5-0.5
		c0.8-5.4,1.2-11.1,0.9-17.2l4.5-2.1l0.4,0.5l0.1,2.9l7.4-4.6l5.6,6.2c-0.2,4.3-1.6,8.9-2.8,13.2l-6.3,1.2l-0.5-0.7
		C149,23,152,17.7,152.4,13.4z"/>
</g>
<g>
	<path class="st0" d="M114.3,52.6l5.1-11.6l9-0.6l4.9,7.4v0.9L129,59.1l-9.2,1.3L114.3,52.6z M122.5,56l2,0.4l4.2-8
		c-1.3-1.8-2.9-3-4.8-3.8c-1.8,1.8-3.5,4.1-5.1,6.7L122.5,56z"/>
	<path class="st0" d="M137.7,48.6l-1.4,0.2l-0.8-0.5l-0.2-3.8l2.7,0.4c-0.1-2.5-0.5-4.6-1.1-6.6l0.5-0.6c2.3,0.2,6.6,0,9.9-1.1
		l0.3,0.3l-0.2,3.9c-1.9-0.3-3.7-0.1-5.4,0.2l0,4.1c1.8-0.1,3.5-0.6,4.4-1.2l0.4,0.1l-0.6,4.8l-0.5,0.3c-1.5-0.5-2.8-0.6-3.8-0.6
		c0,3.4,0.2,6.5,0.6,9.8l-0.4,0.9l-6.1,0.6l-0.5-0.5C136.6,56.2,137.4,52.3,137.7,48.6z"/>
</g>
<g>
	<path class="st0" d="M32,74.1l7.8-1.8L40,73c-2.1,3.2-3,8.6-3,12.7c0,4,0.8,4.7,2.5,4.7c1.9,0,6.4-2.2,8.6-4.5l0.7,0.5L47,93.9
		c-6.5,0.3-11.3,0.8-14.9,1.5l-0.7-0.3C32.4,88.2,32.4,81.2,32,74.1z"/>
	<path class="st0" d="M51.4,95.1l-1.1-8.2C52,82,54.8,78.3,58.2,75l2.7,2.3h0.8l4.2-2.6l0.4,0.3l-0.3,19.2l-4.2,1L61.3,95v-3.2
		l-0.7-0.1l-8.8,3.5L51.4,95.1z M56.8,90.2l4.6-1.7V81L60,80.4c-2.2,1.4-3.7,3.5-4.6,5.7l-0.2,3.1L56.8,90.2z"/>
	<path class="st0" d="M82.6,83.6c0.1-1.6-0.5-2.8-1.6-3.6c-1.8,0-4.6,1.2-6.6,2.6l0.1,11.2l-5.4,1.9l-0.5-0.5
		c0.8-5.4,1.2-11.1,0.9-17.2l4.5-2.1l0.4,0.5l0.1,2.9l7.4-4.6l5.6,6.2c-0.2,4.3-1.6,8.9-2.8,13.2l-6.3,1.2L78,94.6
		C79.2,93.2,82.2,88,82.6,83.6z"/>
	<path class="st0" d="M99.5,94.7l0.3-2.4l-0.6-0.2L90,94.5l-0.4-0.2L89.1,88c1.2-6,3.7-9.3,7.7-11.8l3.3,1.7l-0.4-4.5l4.3-1.5
		l0.7,0.7c0,5.9-0.1,15-0.5,21.2l-4.4,1.1L99.5,94.7z M95,90.5l5.1-2.9v-6.1l-1.5-0.7c-3.2,1.7-4.8,4.6-4.8,8.5L95,90.5z"/>
	<path class="st0" d="M106.2,94.6l2.7-5.8c1.4,0.6,3.1,1.1,4.5,1.1c1.6,0,2.5-0.5,2.5-1.2c0-1.2-1.5-2.7-7.6-5.2l-0.4-0.6l1.6-5.9
		l10.4-1.8l0.6,0.5c0,1.8,0.3,3.6,0.8,5.3l-0.8,0.5c-1.7-1.1-4-1.9-7.4-1.6l-0.4,1.2c3,1.2,6,3.4,8.2,5.9l-1.2,6
		c-4.5,0.6-8.8,1.4-13,2.3L106.2,94.6z"/>
	<path class="st0" d="M123.2,86.5l3.9-9.4l11.1-0.8l0.4,0.7l-1.9,5.7l-0.8,0.1c-1.4-0.9-3-1.7-5.3-1.9l-2,5.3c0.8,2,1.7,3.8,2.9,5.2
		h0.6c3.3-1.7,5.1-4,6.7-6.5l0.9,0.2l-1.2,8.2l-11,2L123.2,86.5z"/>
	<path class="st0" d="M142.3,95.1l-1.1-8.2c1.7-4.9,4.5-8.6,7.9-11.8l2.7,2.3h0.8l4.2-2.6l0.4,0.3L157,94.3l-4.2,1l-0.5-0.2v-3.2
		l-0.7-0.1l-8.8,3.5L142.3,95.1z M147.8,90.2l4.6-1.7V81l-1.4-0.6c-2.2,1.4-3.7,3.5-4.6,5.7l-0.2,3.1L147.8,90.2z"/>
	<path class="st0" d="M160.9,76.5l5.4-1.5l0.5,0.4l-0.3,2.4l4.1-2.2c3.1,2.1,5.2,5.4,4.6,12.2l0.3,3.2l-10,3.3
		c0.4,2.5,1.3,4.5,2.1,5.3l-0.7,0.7l-6.6-4.7C160.8,89.6,161,83.6,160.9,76.5z M166.4,90.6l5.3-2.8c-0.5-4.4-2-7-5.6-7.3
		c-0.7,2.5-1,5.9-0.8,10.1L166.4,90.6z"/>
	<path class="st0" d="M177.4,84.9l5.4-9.1l7.9-0.6l4.3,9l-0.5,1.3L183.2,86l-0.2,0.5l3.7,4.6l7.3-3.7l0.3,0.6l-2.2,5.9l-9.9,1.3
		L177.4,84.9z M182.7,83.1l7.8-0.6l0.1-0.4l-3.4-3.9l-0.3,0l-4.2,4.7L182.7,83.1z"/>
</g>
<g>
	<path class="st0" d="M99.6,123.5c-0.7-4.1-2.4-8.5-4.5-13.7l0.3-0.5l5.8-0.9c0.9,5.3,1.9,10,3.2,13.8c2.3-3.7,3.5-8.3,4.3-13.3
		l4-0.7c1.2,4.6,2.5,8.7,4,11.9c1.3-3.4,1.8-6.9,2-10.5l5.7-0.5c-0.5,6.4-2.8,13.7-5.8,21.2l-4.9,0.8l-0.7-0.6
		c0.8-1.9,1.5-3.8,1.9-5.6l-3.6-6.9l-5.7,12.5l-4.8,1l-0.8-0.6C100.1,128.5,100,126.1,99.6,123.5z"/>
	<path class="st0" d="M125.5,122.8l5.1-11.6l9-0.6l4.9,7.4v0.9l-4.4,10.4l-9.2,1.3L125.5,122.8z M133.7,126.2l2,0.4l4.2-8
		c-1.3-1.8-2.9-3-4.8-3.8c-1.8,1.8-3.5,4.1-5.1,6.7L133.7,126.2z"/>
	<path class="st0" d="M146.6,112.4l5.3-1.6l0.8,0.6l-0.1,3.3l0.2,0l3.2-3.8l0.6-0.1l2.9,3.9c-0.6,2.2-1.6,4.2-2.8,6.1l-0.9-0.1
		c0.1-1.9-0.5-3.3-2.7-3.6l-1.2,0.5c-0.4,3.3-0.1,7.3,0.5,11.7l-6,0.9l-0.5-0.6C147.1,122.8,147.7,116.7,146.6,112.4z"/>
	<path class="st0" d="M161.3,110.9l5.8-3.1l0.6,0.5c-0.7,1.5-1.5,4-1.6,8.5c0,0.6,0,1.4,0,2.6c2.6-1.9,5.2-4.6,7.2-8l0.5-0.1
		l4.2,4.2v0.6l-5.3,3.7c3.3,2.8,5.3,6.2,7.2,9.6l-6.6,2.1l-0.6-0.4c-0.1-4-0.5-7.8-3-9.5c-1.1,0.6-2.3,1.3-3.4,2.1
		c0.1,2,0.2,4,0.5,5.7l-5.9,1.7l-0.4-0.5C161.2,124.5,161.7,118.1,161.3,110.9z"/>
	<path class="st0" d="M180,129.8l2.7-5.8c1.4,0.6,3.1,1.1,4.5,1.1c1.6,0,2.5-0.5,2.5-1.2c0-1.2-1.5-2.7-7.6-5.2l-0.4-0.6l1.6-5.9
		l10.4-1.8l0.6,0.5c0,1.8,0.3,3.6,0.8,5.3l-0.8,0.5c-1.7-1.1-4-1.9-7.4-1.6l-0.4,1.2c3,1.2,6,3.4,8.2,5.9l-1.2,6
		c-4.5,0.6-8.8,1.4-13,2.3L180,129.8z"/>
</g>
</svg>
