<?xml version="1.0" encoding="utf-8"?>
<!-- Generator: Adobe Illustrator 24.0.0, SVG Export Plug-In . SVG Version: 6.00 Build 0)  -->
<svg version="1.1" id="Laag_1" xmlns="http://www.w3.org/2000/svg" xmlns:xlink="http://www.w3.org/1999/xlink" x="0px" y="0px"
	 width="159.7px" height="16.7px" viewBox="0 0 159.7 16.7" style="enable-background:new 0 0 159.7 16.7;" xml:space="preserve">
<style type="text/css">
	.st0{fill:#FFFFFF;}
</style>
<g>
	<path class="st0" d="M6.4,9.9L6.4,9.9c-0.2,0.1-0.5,0.2-0.9,0.3c-0.2,0-0.3,0.1-0.5,0.1c-0.2,0-0.3,0-0.5,0c-0.6,0-1.2-0.1-1.8-0.3
		C2.2,9.7,1.7,9.4,1.3,9c-0.4-0.4-0.7-0.9-1-1.5C0.1,7,0,6.4,0,5.7c0-0.7,0.1-1.4,0.4-2C0.6,3.1,1,2.6,1.4,2.2c0.5-0.4,1-0.8,1.6-1
		C3.7,1,4.3,0.8,5,0.8S6.4,1,7,1.2c0.6,0.2,1.1,0.6,1.6,1c0.4,0.4,0.8,0.9,1,1.5c0.3,0.6,0.4,1.2,0.4,1.9c0,0.8-0.1,1.5-0.4,2.2
		c-0.3,0.6-0.6,1.3-1,2l-3.8,6H2.5L6.4,9.9z M8.1,5.6c0-0.4-0.1-0.8-0.2-1.2C7.7,4,7.5,3.7,7.2,3.4C7,3.1,6.7,2.9,6.3,2.8
		C5.9,2.6,5.5,2.5,5.1,2.5c-0.5,0-0.9,0.1-1.2,0.2c-0.4,0.2-0.7,0.4-1,0.6C2.6,3.7,2.4,4,2.2,4.4C2.1,4.8,2,5.2,2,5.6
		c0,0.4,0.1,0.8,0.2,1.2c0.1,0.4,0.3,0.7,0.6,1c0.3,0.3,0.6,0.5,0.9,0.6C4.2,8.6,4.6,8.7,5,8.7c0.5,0,0.9-0.1,1.2-0.2
		c0.4-0.2,0.7-0.4,1-0.6c0.3-0.3,0.5-0.6,0.6-1C8,6.5,8.1,6.1,8.1,5.6z"/>
</g>
<g>
	<path class="st0" d="M12.3,8.9c0-0.3,0.1-0.6,0.2-0.9c0.1-0.3,0.3-0.5,0.5-0.7c0.2-0.2,0.5-0.4,0.7-0.5c0.3-0.1,0.6-0.2,0.9-0.2
		c0.3,0,0.6,0.1,0.9,0.2C15.8,6.9,16,7,16.3,7.2c0.2,0.2,0.4,0.5,0.5,0.7c0.1,0.3,0.2,0.6,0.2,0.9c0,0.3-0.1,0.6-0.2,0.9
		c-0.1,0.3-0.3,0.5-0.5,0.7c-0.2,0.2-0.5,0.4-0.7,0.5c-0.3,0.1-0.6,0.2-0.9,0.2c-0.3,0-0.6-0.1-0.9-0.2c-0.3-0.1-0.5-0.3-0.7-0.5
		c-0.2-0.2-0.4-0.5-0.5-0.7C12.4,9.5,12.3,9.2,12.3,8.9z"/>
</g>
<g>
	<path class="st0" d="M28.8,15.8h-9.5v-1.9l5.8-5.8c0.4-0.5,0.8-0.9,1.1-1.4c0.3-0.5,0.5-1.1,0.5-1.7c0-0.4-0.1-0.7-0.2-1
		c-0.1-0.3-0.3-0.6-0.6-0.8c-0.2-0.2-0.5-0.4-0.8-0.5c-0.3-0.1-0.7-0.2-1-0.2c-0.7,0-1.4,0.2-1.8,0.7c-0.5,0.5-0.8,1.1-0.9,1.8
		l-2-0.3c0.1-0.5,0.3-1.1,0.5-1.5c0.3-0.5,0.6-0.9,1-1.2c0.4-0.4,0.9-0.6,1.4-0.8c0.5-0.2,1.1-0.3,1.7-0.3c0.6,0,1.2,0.1,1.7,0.3
		c0.6,0.2,1,0.4,1.5,0.8c0.4,0.3,0.8,0.8,1,1.3c0.3,0.5,0.4,1.1,0.4,1.8c0,0.5-0.1,0.9-0.2,1.3c-0.1,0.4-0.3,0.8-0.5,1.1
		c-0.2,0.4-0.5,0.7-0.8,1c-0.3,0.3-0.6,0.6-0.9,1L21.6,14h7.2V15.8z"/>
</g>
<g>
	<path class="st0" d="M42.1,7.3h-2.7V13c0,0.4,0,0.7,0.1,0.9c0.1,0.2,0.2,0.4,0.3,0.5c0.1,0.1,0.3,0.2,0.5,0.3
		c0.2,0,0.4,0.1,0.6,0.1c0.2,0,0.4,0,0.6-0.1c0.2-0.1,0.4-0.1,0.6-0.2l0.1,1.2c-0.2,0.1-0.5,0.2-0.8,0.2c-0.3,0-0.6,0.1-0.9,0.1
		c-0.3,0-0.5,0-0.8-0.1c-0.3-0.1-0.6-0.2-0.8-0.4c-0.2-0.2-0.5-0.5-0.6-0.8c-0.2-0.3-0.2-0.8-0.2-1.3v-6h-2V6.2h2V3.4h1.4v2.7h2.7
		V7.3z"/>
	<path class="st0" d="M43.9,16.2l-1.2-0.4l6.2-15l1.2,0.4L43.9,16.2z"/>
	<path class="st0" d="M54.9,6.4c0.6-0.4,1.2-0.5,1.9-0.5c0.3,0,0.5,0,0.8,0.1c0.3,0.1,0.6,0.2,0.8,0.3c0.3,0.2,0.5,0.4,0.7,0.6
		c0.2,0.3,0.4,0.6,0.6,1c0.3-0.7,0.8-1.2,1.4-1.5c0.6-0.4,1.2-0.5,2-0.5c1.2,0,2.1,0.4,2.8,1.1c0.6,0.7,0.9,1.7,0.9,2.9v5.9h-1.4
		v-5.3c0-1-0.2-1.8-0.6-2.5c-0.4-0.6-1-0.9-1.9-0.9c-0.5,0-0.9,0.1-1.3,0.3c-0.4,0.2-0.6,0.5-0.8,0.8c-0.2,0.3-0.4,0.7-0.5,1.1
		c-0.1,0.4-0.1,0.9-0.1,1.3v5.1h-1.4v-5.6c0-0.5,0-0.9-0.1-1.3c-0.1-0.4-0.2-0.7-0.4-1c-0.2-0.3-0.4-0.5-0.7-0.6
		c-0.3-0.1-0.7-0.2-1.2-0.2c-0.3,0-0.7,0.1-1,0.2c-0.3,0.2-0.6,0.4-0.9,0.7c-0.3,0.3-0.5,0.7-0.6,1.2c-0.2,0.5-0.2,1-0.2,1.7v4.9
		h-1.4V8.3c0-0.3,0-0.6,0-1c0-0.4,0-0.8-0.1-1.1h1.3c0,0.3,0,0.6,0.1,0.9c0,0.3,0,0.6,0,0.8h0C53.9,7.2,54.4,6.8,54.9,6.4z"/>
</g>
<g>
	<path class="st0" d="M84.3,3h-6l-0.1,3.8c0.3-0.1,0.6-0.2,0.9-0.2c0.3,0,0.7-0.1,1-0.1c0.7,0,1.4,0.1,1.9,0.3
		c0.6,0.2,1.1,0.5,1.5,0.9c0.4,0.4,0.8,0.9,1,1.5c0.2,0.6,0.4,1.2,0.4,1.9c0,0.8-0.1,1.5-0.4,2.1c-0.3,0.6-0.6,1.1-1.1,1.6
		c-0.5,0.4-1,0.8-1.6,1c-0.6,0.2-1.3,0.4-2,0.4c-1.1,0-2.1-0.3-2.9-0.8c-0.8-0.5-1.4-1.2-1.8-2.1l1.8-0.7c0.2,0.6,0.6,1.1,1.1,1.4
		c0.5,0.4,1.1,0.5,1.7,0.5c0.4,0,0.8-0.1,1.2-0.2c0.4-0.2,0.7-0.4,1-0.6c0.3-0.3,0.5-0.6,0.6-1c0.2-0.4,0.2-0.8,0.2-1.3
		c0-0.5-0.1-1-0.3-1.4c-0.2-0.4-0.4-0.7-0.8-1c-0.3-0.3-0.7-0.5-1.1-0.6s-0.8-0.2-1.3-0.2c-0.6,0-1.1,0.1-1.7,0.2
		c-0.6,0.2-1.1,0.3-1.5,0.6l0.2-7.8h7.9V3z"/>
</g>
<g>
	<path class="st0" d="M87.6,8.9c0-0.3,0.1-0.6,0.2-0.9c0.1-0.3,0.3-0.5,0.5-0.7C88.5,7,88.8,6.9,89,6.7c0.3-0.1,0.6-0.2,0.9-0.2
		c0.3,0,0.6,0.1,0.9,0.2c0.3,0.1,0.5,0.3,0.7,0.5C91.8,7.5,92,7.7,92.1,8c0.1,0.3,0.2,0.6,0.2,0.9c0,0.3-0.1,0.6-0.2,0.9
		c-0.1,0.3-0.3,0.5-0.5,0.7c-0.2,0.2-0.5,0.4-0.7,0.5c-0.3,0.1-0.6,0.2-0.9,0.2c-0.3,0-0.6-0.1-0.9-0.2c-0.3-0.1-0.5-0.3-0.7-0.5
		c-0.2-0.2-0.4-0.5-0.5-0.7C87.7,9.5,87.6,9.2,87.6,8.9z"/>
</g>
<g>
	<path class="st0" d="M103.4,3h-6l-0.1,3.8c0.3-0.1,0.6-0.2,0.9-0.2c0.3,0,0.7-0.1,1-0.1c0.7,0,1.4,0.1,1.9,0.3
		c0.6,0.2,1.1,0.5,1.5,0.9c0.4,0.4,0.8,0.9,1,1.5c0.2,0.6,0.4,1.2,0.4,1.9c0,0.8-0.1,1.5-0.4,2.1c-0.3,0.6-0.6,1.1-1.1,1.6
		c-0.5,0.4-1,0.8-1.6,1c-0.6,0.2-1.3,0.4-2,0.4c-1.1,0-2.1-0.3-2.9-0.8c-0.8-0.5-1.4-1.2-1.8-2.1l1.8-0.7c0.2,0.6,0.6,1.1,1.1,1.4
		c0.5,0.4,1.1,0.5,1.7,0.5c0.4,0,0.8-0.1,1.2-0.2c0.4-0.2,0.7-0.4,1-0.6c0.3-0.3,0.5-0.6,0.6-1c0.2-0.4,0.2-0.8,0.2-1.3
		c0-0.5-0.1-1-0.3-1.4c-0.2-0.4-0.4-0.7-0.8-1c-0.3-0.3-0.7-0.5-1.1-0.6s-0.8-0.2-1.3-0.2c-0.6,0-1.1,0.1-1.7,0.2
		c-0.6,0.2-1.1,0.3-1.5,0.6l0.2-7.8h7.9V3z"/>
	<path class="st0" d="M121.9,15.8h-9.5v-1.9l5.8-5.8c0.4-0.5,0.8-0.9,1.1-1.4c0.3-0.5,0.5-1.1,0.5-1.7c0-0.4-0.1-0.7-0.2-1
		c-0.1-0.3-0.3-0.6-0.6-0.8c-0.2-0.2-0.5-0.4-0.8-0.5c-0.3-0.1-0.7-0.2-1-0.2c-0.7,0-1.4,0.2-1.8,0.7c-0.5,0.5-0.8,1.1-0.9,1.8
		l-2-0.3c0.1-0.5,0.3-1.1,0.5-1.5c0.3-0.5,0.6-0.9,1-1.2s0.9-0.6,1.4-0.8c0.5-0.2,1.1-0.3,1.7-0.3c0.6,0,1.2,0.1,1.7,0.3
		c0.6,0.2,1,0.4,1.5,0.8c0.4,0.3,0.8,0.8,1,1.3c0.3,0.5,0.4,1.1,0.4,1.8c0,0.5-0.1,0.9-0.2,1.3c-0.1,0.4-0.3,0.8-0.5,1.1
		c-0.2,0.4-0.5,0.7-0.8,1c-0.3,0.3-0.6,0.6-0.9,1l-4.7,4.6h7.2V15.8z"/>
	<path class="st0" d="M129.8,0.8c0.9,0,1.6,0.2,2.2,0.6c0.6,0.4,1.1,0.9,1.5,1.6c0.4,0.7,0.7,1.5,0.9,2.4c0.2,0.9,0.3,1.9,0.3,3
		c0,1.1-0.1,2.1-0.3,3c-0.2,0.9-0.5,1.7-0.9,2.4c-0.4,0.7-0.9,1.2-1.5,1.6c-0.6,0.4-1.4,0.6-2.2,0.6s-1.6-0.2-2.2-0.6
		c-0.6-0.4-1.2-0.9-1.6-1.6c-0.4-0.7-0.7-1.5-0.9-2.4c-0.2-0.9-0.3-1.9-0.3-3c0-1.1,0.1-2.1,0.3-3c0.2-0.9,0.5-1.7,0.9-2.4
		c0.4-0.7,0.9-1.2,1.6-1.6C128.2,1,128.9,0.8,129.8,0.8z M129.8,2.5c-0.6,0-1.1,0.2-1.5,0.6c-0.4,0.4-0.7,0.9-0.9,1.5
		c-0.2,0.6-0.4,1.2-0.4,1.9s-0.1,1.4-0.1,2s0,1.3,0.1,2c0.1,0.7,0.2,1.3,0.4,1.9c0.2,0.6,0.5,1.1,0.9,1.5c0.4,0.4,0.9,0.6,1.5,0.6
		c0.6,0,1.1-0.2,1.5-0.6c0.4-0.4,0.7-0.9,0.9-1.5c0.2-0.6,0.4-1.2,0.5-1.9c0.1-0.7,0.1-1.4,0.1-2s0-1.3-0.1-2
		c-0.1-0.7-0.2-1.4-0.5-1.9c-0.2-0.6-0.5-1.1-0.9-1.5C130.9,2.7,130.4,2.5,129.8,2.5z"/>
	<path class="st0" d="M146.9,15.8h-9.5v-1.9l5.8-5.8c0.4-0.5,0.8-0.9,1.1-1.4c0.3-0.5,0.5-1.1,0.5-1.7c0-0.4-0.1-0.7-0.2-1
		c-0.1-0.3-0.3-0.6-0.6-0.8c-0.2-0.2-0.5-0.4-0.8-0.5c-0.3-0.1-0.7-0.2-1-0.2c-0.7,0-1.4,0.2-1.8,0.7c-0.5,0.5-0.8,1.1-0.9,1.8
		l-2-0.3c0.1-0.5,0.3-1.1,0.5-1.5c0.3-0.5,0.6-0.9,1-1.2s0.9-0.6,1.4-0.8c0.5-0.2,1.1-0.3,1.7-0.3c0.6,0,1.2,0.1,1.7,0.3
		c0.6,0.2,1,0.4,1.5,0.8c0.4,0.3,0.8,0.8,1,1.3c0.3,0.5,0.4,1.1,0.4,1.8c0,0.5-0.1,0.9-0.2,1.3c-0.1,0.4-0.3,0.8-0.5,1.1
		c-0.2,0.4-0.5,0.7-0.8,1c-0.3,0.3-0.6,0.6-0.9,1l-4.7,4.6h7.2V15.8z"/>
	<path class="st0" d="M154.7,0.8c0.9,0,1.6,0.2,2.2,0.6c0.6,0.4,1.1,0.9,1.5,1.6c0.4,0.7,0.7,1.5,0.9,2.4c0.2,0.9,0.3,1.9,0.3,3
		c0,1.1-0.1,2.1-0.3,3c-0.2,0.9-0.5,1.7-0.9,2.4c-0.4,0.7-0.9,1.2-1.5,1.6c-0.6,0.4-1.4,0.6-2.2,0.6s-1.6-0.2-2.2-0.6
		c-0.6-0.4-1.2-0.9-1.6-1.6c-0.4-0.7-0.7-1.5-0.9-2.4c-0.2-0.9-0.3-1.9-0.3-3c0-1.1,0.1-2.1,0.3-3c0.2-0.9,0.5-1.7,0.9-2.4
		c0.4-0.7,0.9-1.2,1.6-1.6C153.1,1,153.9,0.8,154.7,0.8z M154.7,2.5c-0.6,0-1.1,0.2-1.5,0.6c-0.4,0.4-0.7,0.9-0.9,1.5
		c-0.2,0.6-0.4,1.2-0.4,1.9c-0.1,0.7-0.1,1.4-0.1,2s0,1.3,0.1,2c0.1,0.7,0.2,1.3,0.4,1.9c0.2,0.6,0.5,1.1,0.9,1.5
		c0.4,0.4,0.9,0.6,1.5,0.6c0.6,0,1.1-0.2,1.5-0.6c0.4-0.4,0.7-0.9,0.9-1.5c0.2-0.6,0.4-1.2,0.5-1.9c0.1-0.7,0.1-1.4,0.1-2
		s0-1.3-0.1-2c-0.1-0.7-0.2-1.4-0.5-1.9c-0.2-0.6-0.5-1.1-0.9-1.5C155.8,2.7,155.3,2.5,154.7,2.5z"/>
</g>
</svg>
