<?xml version="1.0" encoding="utf-8"?>
<!-- Generator: Adobe Illustrator 24.3.0, SVG Export Plug-In . SVG Version: 6.00 Build 0)  -->
<svg version="1.1" id="Layer_1" xmlns="http://www.w3.org/2000/svg" xmlns:xlink="http://www.w3.org/1999/xlink" x="0px" y="0px"
	 width="78.8px" height="78.7px" viewBox="0 0 78.8 78.7" style="enable-background:new 0 0 78.8 78.7;" xml:space="preserve">
<style type="text/css">
	.st0{fill:#1D1D1B;}
</style>
<g>
	<path class="st0" d="M39.3,78.7C17.5,78.6-0.1,60.9,0,39.2S17.8-0.1,39.6,0c21.7,0.1,39.3,17.8,39.3,39.5S61,78.8,39.3,78.7z
		 M39.5,2.2C19,2.1,2.2,18.7,2.2,39.2s16.6,37.3,37.1,37.3S76.6,60,76.7,39.5C76.7,19,60.1,2.2,39.5,2.2z"/>
</g>
<g>
	<path class="st0" d="M15.9,31.6l-3.4,0l1.8-7.5l7.8,0L22,55.4l-6.2,0L15.9,31.6z"/>
	<path class="st0" d="M35.2,51.1l-10.3,0l7.4-26.9l9,0L41.2,46l2.8,0l0,5.1l-2.8,0l0,4.4l-6,0L35.2,51.1z M35.4,46L35.5,30l-4,15.9
		L35.4,46z"/>
</g>
<g>
	<path class="st0" d="M56.1,39.9l-6.5,0l0-3.5l6.5,0l0-6.9l3.5,0l0,6.9l6.5,0l0,3.5l-6.5,0l0,7.2l-3.5,0L56.1,39.9z"/>
</g>
</svg>
