<?xml version="1.0" encoding="utf-8"?>
<!-- Generator: Adobe Illustrator 24.3.0, SVG Export Plug-In . SVG Version: 6.00 Build 0)  -->
<svg version="1.1" id="Laag_1" xmlns="http://www.w3.org/2000/svg" xmlns:xlink="http://www.w3.org/1999/xlink" x="0px" y="0px"
	 width="285.7px" height="10px" viewBox="0 0 285.7 10" style="enable-background:new 0 0 285.7 10;" xml:space="preserve">
<style type="text/css">
	.st0{fill:#FFFFFF;}
</style>
<g>
	<path class="st0" d="M0,2.3C0,1.5,0.2,1,0.6,0.6C1.1,0.2,1.7,0,2.6,0c0.5,0,0.9,0.1,1.3,0.2c0.4,0.2,0.6,0.4,0.8,0.7
		C4.7,1,4.8,1.1,4.8,1.2c0,0.1,0.1,0.3,0.1,0.4S5,2,5,2.2C5,2.4,5,2.7,5,3V7c0,0.3,0,0.6,0,0.8s0,0.4,0,0.5c0,0.1-0.1,0.3-0.1,0.4
		c0,0.1-0.1,0.2-0.2,0.4C4.5,9.3,4.2,9.6,3.9,9.7C3.5,9.9,3,10,2.4,10C0.8,10,0,9.2,0,7.8L0,2.3z M3.1,2.6c0-0.3,0-0.5-0.1-0.6
		C2.9,1.9,2.7,1.8,2.5,1.8c-0.4,0-0.6,0.3-0.6,0.8v4.5c0,0.4,0,0.7,0.1,0.8s0.3,0.2,0.5,0.2c0.4,0,0.6-0.3,0.6-0.8V2.6z"/>
	<path class="st0" d="M6.4,0.2h2.7c0.5,0,0.9,0,1.2,0.1c0.3,0.1,0.5,0.2,0.7,0.3s0.2,0.3,0.3,0.5c0,0.2,0.1,0.4,0.1,0.7v1.9
		c0,0.3,0,0.6-0.1,0.8S11,4.9,10.8,5c-0.2,0.1-0.4,0.2-0.7,0.3c-0.3,0.1-0.6,0.1-1,0.1H8.2v4.4H6.4V0.2z M8.9,3.6
		c0.4,0,0.6-0.2,0.6-0.5V2.4c0-0.2,0-0.3-0.1-0.4C9.3,2,9.1,2,8.9,2H8.2v1.6H8.9z"/>
	<path class="st0" d="M12.5,0.2h3.9v1.8h-2v1.8h2v1.8h-2V8h2v1.8h-3.9V0.2z"/>
	<path class="st0" d="M17.6,0.2h1.7L21,5.3V0.2h1.7v9.6h-1.6l-1.8-5.1v5.1h-1.7V0.2z"/>
	<path class="st0" d="M24,0.2h1.9v3.4h1.2V0.2H29v9.6h-1.9V5.5h-1.2v4.3H24V0.2z"/>
	<path class="st0" d="M31.3,0.2h2.9l1.1,9.6h-1.8l-0.1-1.1H32l-0.1,1.1h-1.8L31.3,0.2z M33.2,7l-0.5-5.1L32.2,7H33.2z"/>
	<path class="st0" d="M36.4,0.2h2.7c0.2,0,0.5,0,0.6,0c0.2,0,0.3,0,0.4,0c0.1,0,0.2,0,0.3,0.1c0.1,0,0.2,0.1,0.3,0.1
		C41,0.5,41.1,0.7,41.2,1c0.1,0.2,0.1,0.6,0.1,1v1.6c0,0.5-0.1,0.9-0.3,1.2c-0.2,0.3-0.5,0.4-1,0.5l1.8,4.6h-2l-1.7-4.4v4.4h-1.9
		V0.2z M38.9,3.6c0.2,0,0.4-0.1,0.5-0.2c0.1-0.1,0.1-0.3,0.1-0.6V2.7c0-0.3,0-0.5-0.1-0.6S39.2,2,39,2h-0.7v1.7H38.9z"/>
	<path class="st0" d="M43.8,2h-1.3V0.2h4.6V2h-1.4l0,7.8h-1.9V2z"/>
	<path class="st0" d="M48.2,0.2h1.9v9.6h-1.9V0.2z"/>
	<path class="st0" d="M51.4,2.5c0-0.9,0.2-1.5,0.6-1.9C52.4,0.2,53.1,0,54,0c0.5,0,1,0.1,1.4,0.3c0.2,0.1,0.4,0.2,0.5,0.3
		s0.2,0.3,0.3,0.5c0.1,0.2,0.1,0.4,0.2,0.7c0,0.3,0,0.6,0,0.9v0.6h-1.9V2.4c0-0.4-0.2-0.6-0.6-0.6s-0.6,0.2-0.6,0.7v4.6
		c0,0.4,0,0.6,0.1,0.8s0.3,0.2,0.5,0.2c0.2,0,0.4-0.1,0.4-0.2c0.1-0.1,0.1-0.4,0.2-0.7V6.6H54V5h2.3v2.5c0,0.4,0,0.8-0.1,1
		c0,0.2-0.1,0.4-0.3,0.6c-0.2,0.3-0.5,0.5-0.8,0.6c-0.4,0.2-0.8,0.2-1.3,0.2c-0.5,0-0.9-0.1-1.2-0.2S52,9.4,51.8,9.1
		c-0.2-0.2-0.3-0.4-0.3-0.7c-0.1-0.2-0.1-0.6-0.1-1V2.5z"/>
	<path class="st0" d="M62,6.7v0.7c0,0.6,0.2,0.8,0.6,0.8c0.2,0,0.4-0.1,0.5-0.2s0.1-0.4,0.1-0.7c0-0.1,0-0.3,0-0.4
		c0-0.1-0.1-0.2-0.1-0.3c-0.1-0.1-0.1-0.2-0.3-0.3c-0.1-0.1-0.2-0.2-0.4-0.4l-0.9-0.7c-0.2-0.2-0.4-0.4-0.6-0.5
		c-0.2-0.2-0.3-0.3-0.4-0.5c-0.1-0.2-0.2-0.4-0.2-0.6c0-0.2-0.1-0.5-0.1-0.8c0-0.3,0-0.6,0-0.8c0-0.2,0.1-0.4,0.1-0.6
		c0-0.2,0.1-0.3,0.2-0.4s0.1-0.2,0.2-0.3c0.2-0.2,0.4-0.3,0.7-0.5C61.8,0.1,62.2,0,62.7,0c0.3,0,0.6,0,0.9,0.1s0.5,0.2,0.7,0.4
		s0.4,0.4,0.5,0.7C64.9,1.5,65,1.8,65,2.3v0.9h-1.7c0,0,0-0.1,0-0.2c0-0.1,0-0.1,0-0.2c0-0.1,0-0.2,0-0.3c0-0.1,0-0.2-0.1-0.3
		c0-0.1-0.1-0.2-0.2-0.3c-0.1-0.1-0.2-0.1-0.3-0.1c-0.4,0-0.6,0.3-0.6,0.9c0,0.2,0,0.3,0.1,0.5c0,0.1,0.1,0.3,0.2,0.4
		c0.1,0.1,0.2,0.2,0.4,0.4c0.1,0.1,0.3,0.3,0.5,0.4c0.2,0.2,0.4,0.3,0.6,0.5c0.2,0.2,0.4,0.4,0.6,0.5s0.3,0.4,0.4,0.6
		c0.1,0.2,0.2,0.4,0.2,0.6v1.1c0,0.8-0.2,1.4-0.6,1.8c-0.4,0.4-1,0.6-2,0.6c-0.4,0-0.8-0.1-1.2-0.2c-0.3-0.2-0.6-0.4-0.7-0.6
		c-0.1-0.2-0.2-0.4-0.3-0.7c-0.1-0.3-0.1-0.7-0.1-1.2c0-0.1,0-0.1,0-0.2c0-0.1,0-0.1,0-0.2H62z"/>
	<path class="st0" d="M67.1,0.2h2.9l1.1,9.6h-1.8l-0.1-1.1h-1.4l-0.1,1.1H66L67.1,0.2z M69.1,7l-0.5-5.1L68,7H69.1z"/>
	<path class="st0" d="M72.3,0.2h2.3l1.2,5.1L77,0.2h2.3v9.6h-1.7V4.4l-1.3,5.4h-1.2l-1.3-5.4v5.4h-1.6V0.2z"/>
	<path class="st0" d="M80.7,0.2h3.9v1.8h-2v1.8h2v1.8h-2V8h2v1.8h-3.9V0.2z"/>
	<path class="st0" d="M85.8,0.2h1.7l1.7,5.1V0.2h1.7v9.6h-1.6l-1.8-5.1v5.1h-1.7V0.2z"/>
	<path class="st0" d="M93.9,6.7v0.7c0,0.6,0.2,0.8,0.6,0.8c0.2,0,0.4-0.1,0.5-0.2s0.1-0.4,0.1-0.7c0-0.1,0-0.3,0-0.4
		c0-0.1-0.1-0.2-0.1-0.3c-0.1-0.1-0.1-0.2-0.3-0.3c-0.1-0.1-0.2-0.2-0.4-0.4l-0.9-0.7c-0.2-0.2-0.4-0.4-0.6-0.5
		c-0.2-0.2-0.3-0.3-0.4-0.5c-0.1-0.2-0.2-0.4-0.2-0.6c0-0.2-0.1-0.5-0.1-0.8c0-0.3,0-0.6,0-0.8c0-0.2,0.1-0.4,0.1-0.6
		c0-0.2,0.1-0.3,0.2-0.4s0.1-0.2,0.2-0.3c0.2-0.2,0.4-0.3,0.7-0.5C93.7,0.1,94.1,0,94.6,0c0.3,0,0.6,0,0.9,0.1s0.5,0.2,0.7,0.4
		s0.4,0.4,0.5,0.7c0.1,0.3,0.2,0.7,0.2,1.1v0.9h-1.7c0,0,0-0.1,0-0.2c0-0.1,0-0.1,0-0.2c0-0.1,0-0.2,0-0.3c0-0.1,0-0.2-0.1-0.3
		C95,2.1,95,2,94.9,1.9c-0.1-0.1-0.2-0.1-0.3-0.1c-0.4,0-0.6,0.3-0.6,0.9c0,0.2,0,0.3,0.1,0.5c0,0.1,0.1,0.3,0.2,0.4
		c0.1,0.1,0.2,0.2,0.4,0.4c0.1,0.1,0.3,0.3,0.5,0.4c0.2,0.2,0.4,0.3,0.6,0.5c0.2,0.2,0.4,0.4,0.6,0.5s0.3,0.4,0.4,0.6
		C96.9,6.1,97,6.3,97,6.5v1.1c0,0.8-0.2,1.4-0.6,1.8c-0.4,0.4-1,0.6-2,0.6c-0.4,0-0.8-0.1-1.2-0.2c-0.3-0.2-0.6-0.4-0.7-0.6
		c-0.1-0.2-0.2-0.4-0.3-0.7c-0.1-0.3-0.1-0.7-0.1-1.2c0-0.1,0-0.1,0-0.2c0-0.1,0-0.1,0-0.2H93.9z"/>
	<path class="st0" d="M98.2,0.2h2.7c0.5,0,0.9,0,1.2,0.1c0.3,0.1,0.5,0.2,0.7,0.3s0.2,0.3,0.3,0.5c0,0.2,0.1,0.4,0.1,0.7v1.9
		c0,0.3,0,0.6-0.1,0.8s-0.2,0.4-0.4,0.5c-0.2,0.1-0.4,0.2-0.7,0.3c-0.3,0.1-0.6,0.1-1,0.1h-0.9v4.4h-1.9V0.2z M100.7,3.6
		c0.4,0,0.6-0.2,0.6-0.5V2.4c0-0.2,0-0.3-0.1-0.4C101.1,2,101,2,100.8,2h-0.7v1.6H100.7z"/>
	<path class="st0" d="M104.4,0.2h3.9v1.8h-2v1.8h2v1.8h-2V8h2v1.8h-3.9V0.2z"/>
	<path class="st0" d="M109.5,0.2h1.9V8h1.4v1.8h-3.3V0.2z"/>
	<path class="st0" d="M116.1,0.2h1.8l0.7,5.7l0.7-5.7h1.8l-1.6,9.6h-1.7L116.1,0.2z"/>
	<path class="st0" d="M122.5,0.2h2.9l1.1,9.6h-1.8l-0.1-1.1h-1.4l-0.1,1.1h-1.8L122.5,0.2z M124.5,7L124,1.9L123.4,7H124.5z"/>
	<path class="st0" d="M127.6,0.2h1.7l1.7,5.1V0.2h1.7v9.6h-1.6l-1.8-5.1v5.1h-1.7V0.2z"/>
	<path class="st0" d="M136.9,0.2h3.9v1.8h-2v1.8h2v1.8h-2V8h2v1.8h-3.9V0.2z"/>
	<path class="st0" d="M142,0.2h3.9v1.8h-2v1.8h2v1.8h-2V8h2v1.8H142V0.2z"/>
	<path class="st0" d="M147.1,0.2h1.7l1.7,5.1V0.2h1.7v9.6h-1.6l-1.8-5.1v5.1h-1.7V0.2z"/>
	<path class="st0" d="M157.2,2h-1.3V0.2h4.6V2h-1.4l0,7.8h-1.9V2z"/>
	<path class="st0" d="M161.6,0.2h2.7c0.2,0,0.5,0,0.6,0s0.3,0,0.4,0c0.1,0,0.2,0,0.3,0.1c0.1,0,0.2,0.1,0.3,0.1
		c0.2,0.1,0.4,0.3,0.5,0.5s0.1,0.6,0.1,1v1.6c0,0.5-0.1,0.9-0.3,1.2c-0.2,0.3-0.5,0.4-1,0.5l1.8,4.6h-2l-1.7-4.4v4.4h-1.9V0.2z
		 M164,3.6c0.2,0,0.4-0.1,0.5-0.2s0.1-0.3,0.1-0.6V2.7c0-0.3,0-0.5-0.1-0.6C164.5,2,164.3,2,164.1,2h-0.7v1.7H164z"/>
	<path class="st0" d="M169.1,0.2h3l1.1,9.6h-1.8l-0.1-1.1h-1.4l-0.1,1.1h-1.8L169.1,0.2z M171,7l-0.5-5.1L170,7H171z"/>
	<path class="st0" d="M174.2,0.2h1.7l1.7,5.1V0.2h1.7v9.6h-1.6l-1.8-5.1v5.1h-1.7V0.2z"/>
	<path class="st0" d="M182.3,6.7v0.7c0,0.6,0.2,0.8,0.6,0.8c0.2,0,0.4-0.1,0.5-0.2s0.2-0.4,0.2-0.7c0-0.1,0-0.3,0-0.4
		c0-0.1-0.1-0.2-0.1-0.3c-0.1-0.1-0.1-0.2-0.3-0.3s-0.2-0.2-0.4-0.4l-0.9-0.7c-0.2-0.2-0.4-0.4-0.6-0.5c-0.2-0.2-0.3-0.3-0.4-0.5
		c-0.1-0.2-0.2-0.4-0.2-0.6c0-0.2-0.1-0.5-0.1-0.8c0-0.3,0-0.6,0-0.8c0-0.2,0.1-0.4,0.1-0.6c0-0.2,0.1-0.3,0.2-0.4s0.1-0.2,0.2-0.3
		c0.2-0.2,0.4-0.3,0.7-0.5c0.3-0.1,0.7-0.2,1.2-0.2c0.3,0,0.6,0,0.9,0.1s0.5,0.2,0.7,0.4c0.2,0.2,0.4,0.4,0.5,0.7
		c0.1,0.3,0.2,0.7,0.2,1.1v0.9h-1.7c0,0,0-0.1,0-0.2c0-0.1,0-0.1,0-0.2c0-0.1,0-0.2,0-0.3c0-0.1,0-0.2-0.1-0.3s-0.1-0.2-0.2-0.3
		c-0.1-0.1-0.2-0.1-0.3-0.1c-0.4,0-0.6,0.3-0.6,0.9c0,0.2,0,0.3,0.1,0.5c0,0.1,0.1,0.3,0.2,0.4s0.2,0.2,0.4,0.4
		c0.1,0.1,0.3,0.3,0.5,0.4c0.2,0.2,0.4,0.3,0.6,0.5c0.2,0.2,0.4,0.4,0.6,0.5c0.2,0.2,0.3,0.4,0.4,0.6c0.1,0.2,0.2,0.4,0.2,0.6v1.1
		c0,0.8-0.2,1.4-0.6,1.8c-0.4,0.4-1,0.6-2,0.6c-0.4,0-0.8-0.1-1.2-0.2s-0.6-0.4-0.7-0.6c-0.1-0.2-0.2-0.4-0.3-0.7
		c-0.1-0.3-0.1-0.7-0.1-1.2c0-0.1,0-0.1,0-0.2c0-0.1,0-0.1,0-0.2H182.3z"/>
	<path class="st0" d="M188.2,2h-1.8l0-1.8h4.1L188.5,8h2v1.8h-4.3L188.2,2z"/>
	<path class="st0" d="M191.7,2.3c0-0.8,0.2-1.4,0.6-1.8c0.4-0.4,1.1-0.6,2-0.6c0.5,0,0.9,0.1,1.3,0.2c0.4,0.2,0.6,0.4,0.8,0.7
		c0.1,0.1,0.1,0.2,0.2,0.3c0,0.1,0.1,0.3,0.1,0.4s0,0.3,0.1,0.6c0,0.2,0,0.5,0,0.8V7c0,0.3,0,0.6,0,0.8c0,0.2,0,0.4,0,0.5
		c0,0.1-0.1,0.3-0.1,0.4s-0.1,0.2-0.2,0.4c-0.2,0.3-0.4,0.5-0.8,0.7c-0.4,0.2-0.9,0.2-1.5,0.2c-1.5,0-2.3-0.7-2.4-2.2L191.7,2.3z
		 M194.8,2.6c0-0.3,0-0.5-0.1-0.6c-0.1-0.1-0.2-0.2-0.5-0.2c-0.4,0-0.6,0.3-0.6,0.8v4.5c0,0.4,0,0.7,0.1,0.8s0.3,0.2,0.5,0.2
		c0.4,0,0.6-0.3,0.6-0.8V2.6z"/>
	<path class="st0" d="M198,2.3c0-0.8,0.2-1.4,0.6-1.8c0.4-0.4,1.1-0.6,2-0.6c0.5,0,0.9,0.1,1.3,0.2c0.4,0.2,0.6,0.4,0.8,0.7
		c0.1,0.1,0.1,0.2,0.2,0.3c0,0.1,0.1,0.3,0.1,0.4s0,0.3,0.1,0.6c0,0.2,0,0.5,0,0.8V7c0,0.3,0,0.6,0,0.8c0,0.2,0,0.4,0,0.5
		c0,0.1-0.1,0.3-0.1,0.4s-0.1,0.2-0.2,0.4c-0.2,0.3-0.4,0.5-0.8,0.7c-0.4,0.2-0.9,0.2-1.5,0.2c-1.5,0-2.3-0.7-2.4-2.2L198,2.3z
		 M201.1,2.6c0-0.3,0-0.5-0.1-0.6c-0.1-0.1-0.2-0.2-0.5-0.2c-0.4,0-0.6,0.3-0.6,0.8v4.5c0,0.4,0,0.7,0.1,0.8s0.3,0.2,0.5,0.2
		c0.4,0,0.6-0.3,0.6-0.8V2.6z"/>
	<path class="st0" d="M204.3,0.2h1.7l1.7,5.1V0.2h1.7v9.6h-1.6L206,4.7v5.1h-1.7V0.2z"/>
	<path class="st0" d="M213.6,0.2h3.9v1.8h-2v1.8h2v1.8h-2V8h2v1.8h-3.9V0.2z"/>
	<path class="st0" d="M218.6,0.2h1.7l1.7,5.1V0.2h1.7v9.6h-1.6l-1.8-5.1v5.1h-1.7V0.2z"/>
	<path class="st0" d="M229.3,2h-1.8l0-1.8h4.1L229.7,8h2v1.8h-4.3L229.3,2z"/>
	<path class="st0" d="M232.8,0.2h1.9v9.6h-1.9V0.2z"/>
	<path class="st0" d="M235.9,7.9h0.1c0.2,0,0.4,0,0.5-0.1c0.1-0.1,0.1-0.3,0.1-0.5V0.2h1.9v7.6c0,0.2,0,0.4,0,0.5c0,0.1,0,0.3,0,0.4
		s0,0.2-0.1,0.3c0,0.1-0.1,0.2-0.1,0.3c-0.1,0.2-0.3,0.4-0.5,0.5c-0.2,0.1-0.5,0.2-0.9,0.2c-0.2,0-0.3,0-0.6,0c-0.2,0-0.4,0-0.5-0.1
		V7.9z"/>
	<path class="st0" d="M239.8,0.2h1.7l1.7,5.1V0.2h1.7v9.6h-1.6l-1.8-5.1v5.1h-1.7V0.2z"/>
	<path class="st0" d="M249,0.2h2.3l1.2,5.1l1.2-5.1h2.3v9.6h-1.7V4.4l-1.3,5.4h-1.2l-1.3-5.4v5.4H249V0.2z"/>
	<path class="st0" d="M257.4,2.3c0-0.8,0.2-1.4,0.6-1.8c0.4-0.4,1.1-0.6,2-0.6c0.5,0,0.9,0.1,1.3,0.2c0.4,0.2,0.6,0.4,0.8,0.7
		c0.1,0.1,0.1,0.2,0.2,0.3c0,0.1,0.1,0.3,0.1,0.4s0,0.3,0.1,0.6c0,0.2,0,0.5,0,0.8V7c0,0.3,0,0.6,0,0.8c0,0.2,0,0.4,0,0.5
		c0,0.1-0.1,0.3-0.1,0.4s-0.1,0.2-0.2,0.4c-0.2,0.3-0.4,0.5-0.8,0.7c-0.4,0.2-0.9,0.2-1.5,0.2c-1.5,0-2.3-0.7-2.4-2.2L257.4,2.3z
		 M260.5,2.6c0-0.3,0-0.5-0.1-0.6c-0.1-0.1-0.2-0.2-0.5-0.2c-0.4,0-0.6,0.3-0.6,0.8v4.5c0,0.4,0,0.7,0.1,0.8s0.3,0.2,0.5,0.2
		c0.4,0,0.6-0.3,0.6-0.8V2.6z"/>
	<path class="st0" d="M263.8,0.2h3.9v1.8h-2v1.8h2v1.8h-2V8h2v1.8h-3.9V0.2z"/>
	<path class="st0" d="M268.8,0.2h2.7c0.2,0,0.4,0,0.5,0s0.3,0,0.4,0c0.1,0,0.2,0,0.3,0.1s0.2,0.1,0.3,0.1c0.3,0.1,0.4,0.3,0.5,0.5
		c0.1,0.2,0.1,0.6,0.1,1.2v5.7c0,0.2,0,0.3,0,0.4c0,0.1,0,0.2,0,0.3c0,0.1,0,0.2-0.1,0.3c0,0.1-0.1,0.2-0.1,0.3
		c-0.1,0.2-0.3,0.4-0.5,0.5c-0.1,0-0.2,0.1-0.2,0.1c-0.1,0-0.2,0.1-0.3,0.1c-0.1,0-0.2,0-0.3,0c-0.1,0-0.3,0-0.5,0h-2.9V0.2z
		 M271.3,8c0.2,0,0.4-0.1,0.5-0.2c0.1-0.1,0.1-0.3,0.1-0.6V2.6c0-0.2,0-0.4-0.1-0.5c-0.1-0.1-0.2-0.1-0.5-0.1h-0.6V8H271.3z"/>
	<path class="st0" d="M275.1,0.2h3.9v1.8h-2v1.8h2v1.8h-2V8h2v1.8h-3.9V0.2z"/>
	<path class="st0" d="M280.2,0.2h2.7c0.2,0,0.5,0,0.6,0c0.2,0,0.3,0,0.4,0c0.1,0,0.2,0,0.3,0.1c0.1,0,0.2,0.1,0.3,0.1
		c0.2,0.1,0.4,0.3,0.5,0.5c0.1,0.2,0.1,0.6,0.1,1v1.6c0,0.5-0.1,0.9-0.3,1.2c-0.2,0.3-0.5,0.4-1,0.5l1.8,4.6h-2l-1.7-4.4v4.4h-1.9
		V0.2z M282.7,3.6c0.2,0,0.4-0.1,0.5-0.2c0.1-0.1,0.1-0.3,0.1-0.6V2.7c0-0.3,0-0.5-0.1-0.6C283.1,2,283,2,282.8,2h-0.7v1.7H282.7z"
		/>
</g>
</svg>
