<?xml version="1.0" encoding="utf-8"?>
<!-- Generator: Adobe Illustrator 24.3.0, SVG Export Plug-In . SVG Version: 6.00 Build 0)  -->
<svg version="1.1" id="Laag_1" xmlns="http://www.w3.org/2000/svg" xmlns:xlink="http://www.w3.org/1999/xlink" x="0px" y="0px"
	 width="324px" height="57.1px" viewBox="0 0 324 57.1" style="enable-background:new 0 0 324 57.1;" xml:space="preserve">
<style type="text/css">
	.st0{fill:#FFFFFF;}
	.st1{fill:none;stroke:#FFFFFF;stroke-width:1.135;stroke-miterlimit:3.003;}
	.st2{font-family:'PlakW01-BlackCondensed';}
	.st3{font-size:51.7207px;}
</style>
<g>
	<g>
		<path class="st0" d="M0,7.6h8.8L13.4,27l4.7-19.4h8.8v36.6h-6.5V23.5l-4.8,20.6h-4.4l-5-20.6v20.6H0V7.6z"/>
		<path class="st0" d="M30.6,7.6h14.7v6.7h-7.7V21h7.7v6.8h-7.7v9.6h7.7v6.7H30.6V7.6z"/>
		<path class="st0" d="M52.8,14.5h-5.1V7.6h17.5v6.9H60l-0.1,29.7h-7.1V14.5z"/>
	</g>
	<g>
		<path class="st1" d="M82.9,14.5H76L76,7.6h15.6l-7.4,29.8h7.6v6.8H75.4L82.9,14.5z"/>
		<path class="st1" d="M94.7,15.7c0-3,0.8-5.2,2.4-6.7c1.6-1.4,4.1-2.2,7.5-2.2c1.9,0,3.5,0.3,4.8,0.9c1.4,0.6,2.4,1.4,3,2.5
			c0.2,0.4,0.4,0.8,0.6,1.3s0.3,1,0.4,1.6c0.1,0.6,0.2,1.3,0.2,2.1c0,0.8,0.1,1.8,0.1,2.9v15.5c0,1.2,0,2.2,0,2.9
			c0,0.8-0.1,1.4-0.2,1.9c-0.1,0.5-0.2,1-0.4,1.4c-0.2,0.4-0.4,0.9-0.6,1.4c-0.6,1.1-1.7,2-3.2,2.6c-1.5,0.6-3.4,0.9-5.7,0.9
			c-5.9,0-8.8-2.8-8.9-8.4L94.7,15.7z M106.5,16.8c0-1.1-0.2-1.9-0.5-2.4c-0.3-0.5-0.9-0.7-1.8-0.7c-1.6,0-2.4,1-2.4,2.9v17.3
			c0,1.6,0.2,2.7,0.5,3.2c0.3,0.6,1,0.9,1.9,0.9c1.5,0,2.3-1,2.3-3V16.8z"/>
		<path class="st1" d="M117.1,7.6h6.5l6.5,19.3V7.6h6.5v36.6h-6.3l-6.8-19.3v19.3h-6.4V7.6z"/>
		<path class="st1" d="M139.9,7.6h10.2c0.8,0,1.5,0,2.1,0c0.6,0,1.1,0.1,1.5,0.1c0.4,0.1,0.8,0.1,1.2,0.2c0.3,0.1,0.7,0.2,1.1,0.4
			c1,0.4,1.6,1,2,2c0.4,0.9,0.6,2.4,0.6,4.4v21.8c0,0.7,0,1.2,0,1.7c0,0.5-0.1,0.9-0.1,1.2c-0.1,0.4-0.2,0.7-0.3,1
			c-0.1,0.3-0.3,0.6-0.4,1c-0.4,0.8-1,1.4-1.8,1.9c-0.3,0.2-0.7,0.3-0.9,0.4c-0.3,0.1-0.6,0.2-1,0.3c-0.4,0.1-0.8,0.1-1.3,0.1
			c-0.5,0-1.1,0-1.8,0h-11V7.6z M149.2,37.4c0.9,0,1.5-0.2,1.8-0.7c0.4-0.5,0.5-1.2,0.5-2.4V16.7c0-0.9-0.2-1.6-0.5-1.9
			c-0.3-0.3-0.9-0.5-1.8-0.5H147v23.2H149.2z"/>
		<path class="st1" d="M162,7.6h14.7v6.7h-7.7V21h7.7v6.8h-7.7v9.6h7.7v6.7H162V7.6z"/>
		<path class="st1" d="M180,7.6h10.1c0.9,0,1.7,0,2.4,0.1s1.2,0.1,1.7,0.2c0.5,0.1,0.9,0.2,1.2,0.3c0.3,0.1,0.7,0.3,1,0.4
			c0.8,0.5,1.4,1.2,1.8,2c0.4,0.9,0.6,2.1,0.6,3.6v6c0,2-0.4,3.4-1.1,4.4c-0.7,1-1.9,1.7-3.7,2l6.9,17.5h-7.4l-6.3-16.6v16.6H180
			V7.6z M189.4,20.7c0.9,0,1.5-0.2,1.8-0.6c0.3-0.4,0.5-1.1,0.5-2.1v-0.8c0-1.1-0.1-1.8-0.4-2.2s-0.8-0.5-1.6-0.5h-2.6v6.3H189.4z"
			/>
	</g>
	<text transform="matrix(1 0 0 1 201.5823 44.1691)" class="st0 st2 st3"> </text>
	<g>
		<path class="st0" d="M212.7,7.6h10.8c1.3,0,2.2,0,2.9,0.1c0.7,0.1,1.3,0.2,1.9,0.4c0.9,0.3,1.5,0.8,2,1.6c0.5,0.8,0.7,1.8,0.7,2.9
			v6.2c0,0.7,0,1.2-0.1,1.6c-0.1,0.4-0.2,0.8-0.4,1.2c-0.5,1.1-1.6,1.9-3.3,2.3c1.4,0.4,2.5,1,3,1.8c0.6,0.8,0.9,2,0.9,3.5v7.5
			c0,0.7,0,1.2,0,1.7c0,0.4-0.1,0.8-0.1,1.2c-0.1,0.3-0.1,0.7-0.2,1c-0.1,0.3-0.2,0.6-0.3,1c-0.8,1.9-2.7,2.8-5.6,2.8h-12.2V7.6z
			 M220.2,21c0.1,0,0.3,0,0.4,0c0.1,0,0.2,0,0.3,0c1.4,0,2.4-0.1,2.8-0.4c0.5-0.3,0.7-0.9,0.7-1.8v-2.1c0-0.9-0.2-1.5-0.5-1.8
			c-0.3-0.3-0.9-0.5-1.7-0.5h-2.5V21H220.2z M220.2,37.3h0.7c0.7,0,1.2,0,1.7-0.1c0.4-0.1,0.8-0.2,1-0.4c0.2-0.2,0.4-0.4,0.5-0.8
			s0.1-0.8,0.1-1.3v-5.1c0-0.9-0.2-1.5-0.5-1.8c-0.3-0.3-0.9-0.5-1.8-0.5h-2.2v9.9H220.2z"/>
		<path class="st0" d="M237.7,7.6H249l4.2,36.6h-6.9l-0.4-4.1h-5.3l-0.5,4.1h-6.9L237.7,7.6z M245.2,33.4L243.3,14l-2.1,19.4H245.2z
			"/>
		<path class="st0" d="M255.8,7.6h7.2v29.7h5.4v6.9h-12.6V7.6z"/>
		<path class="st0" d="M271.2,7.6h7.2v29.7h5.4v6.9h-12.6V7.6z"/>
		<path class="st0" d="M286.8,7.6h14.7v6.7h-7.7V21h7.7v6.8h-7.7v9.6h7.7v6.7h-14.7V7.6z"/>
		<path class="st0" d="M304.5,7.6h6.5l6.5,19.3V7.6h6.5v36.6h-6.3l-6.8-19.3v19.3h-6.4V7.6z"/>
	</g>
</g>
</svg>
