<?xml version="1.0" encoding="utf-8"?>
<!-- Generator: Adobe Illustrator 24.0.0, SVG Export Plug-In . SVG Version: 6.00 Build 0)  -->
<svg version="1.1" id="Layer_1" xmlns="http://www.w3.org/2000/svg" xmlns:xlink="http://www.w3.org/1999/xlink" x="0px" y="0px"
	 width="279px" height="73.2px" viewBox="0 0 279 73.2" style="enable-background:new 0 0 279 73.2;" xml:space="preserve">
<style type="text/css">
	.st0{fill:#FFFFFF;}
</style>
<title>HNT_logo_laying_white</title>
<g>
	<path class="st0" d="M11.7,27c1.8,0.2,2.1,0.4,2.1,1.8v5.6H5.9v-5.6c0-1.4,0.3-1.6,2.1-1.8v-0.9h-8V27c1.8,0.2,2.1,0.4,2.1,1.8
		v12.8c0,1.4-0.3,1.6-2.1,1.8v0.9h8v-0.9c-1.8-0.2-2.1-0.4-2.1-1.8v-6h7.8v6c0,1.4-0.3,1.6-2.1,1.8v0.9h7.9v-0.9
		c-1.8-0.2-2.1-0.4-2.1-1.8V28.8c0-1.4,0.3-1.6,2.1-1.8v-0.9h-7.9V27z"/>
	<path class="st0" d="M28.3,42.1c-2.5,0-4.4-2.2-4.3-5.8h8.5v-0.6c0-3.1-1.8-5.4-5.3-5.4c-3.6,0-6.4,3.1-6.4,7.5
		c0,4,2.5,6.8,6.3,6.8c3,0,4.9-1.8,5.6-4.3L32.2,40C31.2,41.3,30.1,42.1,28.3,42.1z M26.9,31.2c1.7,0,2.3,1.7,2.3,4.1H24
		C24.3,32.9,25.2,31.2,26.9,31.2z"/>
	<path class="st0" d="M40.2,42.6c-1.2,0-1.8-0.7-1.8-2.3v-8.6h3.4v-1.2h-3.4l0-3.4h-0.8c-1.1,1.7-2.6,3.2-4.4,4v0.6h1.6v8.8
		c0,2.9,1.6,4,3.7,4c1.9,0,3.2-0.9,4-2.2l-0.3-0.5C41.5,42.3,41,42.6,40.2,42.6z"/>
	<path class="st0" d="M186,26.1l-0.4,6h0.8c1.7-3.9,2.3-5.1,4.3-5.1h1.4v14.7c0,1.4-0.6,1.5-2.3,1.7v0.9h8.5v-0.9
		c-1.8-0.2-2.3-0.3-2.3-1.7V27h1.4c2,0,2.6,1.2,4.3,5.1h0.8l-0.4-6H186z"/>
	<path class="st0" d="M217,42.3v-7.8c0-2.8-1.3-4.3-3.7-4.3c-2.2,0-3.7,1.2-4.8,2.5V24h-0.6l-4.6,1.2v0.5l1.6,0.8l0,15.7
		c0,0.9-0.4,1.1-1.6,1.1v0.9h6.8v-0.9c-1.2-0.1-1.6-0.2-1.6-1.1v-8.8c0.8-0.6,1.8-1.1,2.9-1.1c1.4,0,2,0.8,2,2.3v7.6
		c0,0.9-0.4,1.1-1.6,1.1v0.9h6.8v-0.9C217.4,43.4,217,43.2,217,42.3z"/>
	<path class="st0" d="M227,42.1c-2.5,0-4.4-2.2-4.3-5.8h8.5v-0.6c0-3.1-1.8-5.4-5.3-5.4c-3.6,0-6.4,3.1-6.4,7.5c0,4,2.5,6.8,6.3,6.8
		c3,0,4.9-1.8,5.6-4.3l-0.4-0.2C229.9,41.3,228.8,42.1,227,42.1z M225.6,31.2c1.7,0,2.3,1.7,2.3,4.1h-5.2h0
		C223,32.9,223.9,31.2,225.6,31.2z"/>
	<path class="st0" d="M244.4,42.9c-0.7,0-0.9-0.6-0.9-1.5l0-6.9c0-3-1.8-4.3-5.1-4.3c-2.9,0-5.1,1.1-5.1,3.3c0,0.9,0.4,1.4,1.1,1.6
		l2.2-0.3c-0.1-0.5-0.2-1.1-0.2-1.6c0-1.2,0.5-2.2,1.7-2.2c1.4,0,1.8,1.1,1.8,2.5v2.2l-3.9,1.4c-1.9,0.7-3.6,1.6-3.6,3.9
		c0,2.1,1.4,3.3,3.5,3.3c1.9,0,3.2-1.1,4.1-2.2c0.3,1.4,1.2,2.3,2.6,2.3c1.2,0,2.2-0.5,3-1.4l-0.2-0.6
		C245.1,42.7,244.7,42.9,244.4,42.9z M239.9,41.6c-0.7,0.5-1.2,0.8-2,0.8c-1.4,0-2-1-2-2.3c0-1.5,0.7-2,1.8-2.5l2.2-0.9V41.6z"/>
	<path class="st0" d="M252.5,42.6c-1.2,0-1.8-0.7-1.8-2.3v-8.6h3.4v-1.2h-3.4l0-3.4h-0.8c-1.1,1.7-2.6,3.2-4.4,4v0.6h1.6v8.8
		c0,2.9,1.6,4,3.7,4c1.9,0,3.2-0.9,4-2.2l-0.3-0.5C253.8,42.3,253.3,42.6,252.5,42.6z"/>
	<path class="st0" d="M262.8,42.1c-2.5,0-4.4-2.2-4.3-5.8h8.5v-0.6c0-3.1-1.8-5.4-5.3-5.4c-3.6,0-6.4,3.1-6.4,7.5
		c0,4,2.5,6.8,6.3,6.8c3,0,4.9-1.8,5.6-4.3l-0.4-0.2C265.8,41.3,264.6,42.1,262.8,42.1z M261.4,31.2c1.7,0,2.3,1.7,2.3,4.1h-5.2
		C258.8,32.9,259.7,31.2,261.4,31.2z"/>
	<path class="st0" d="M276.8,30.3c-1.5,0-2.3,1-3.6,3.8l0.1-3.8h-0.6l-4.6,1.4v0.5l1.6,0.9v9.2c0,0.9-0.4,1.1-1.6,1.1v0.9h7.4v-0.9
		c-1.6-0.1-2.2-0.3-2.2-1.4l0-7.2c1.3-1.3,2.6-1.4,4.2-1.4h0.5v-2.8C277.8,30.4,277.4,30.3,276.8,30.3z"/>
	<path class="st0" d="M84.3,0.3L83.3,0L83,1.1l-3.9,17.1c-0.7,2.9-1.8,2.9-2.3,2.9c-0.3,0-0.5-0.1-0.8-0.1c-0.9-0.2-1.7-0.7-1.6-2.9
		l0.1-1.1h-1.1l-4.9-0.1h-1l-0.1,1c-0.5,4.7,2.3,8.4,7.2,9.6c1.1,0.3,2,0.4,3,0.4c4.4,0,7.3-2.9,8.6-8.6l3.8-16.6l0.3-1.1L89,1.4
		L84.3,0.3z M85,19c-1.3,5.6-3.9,7.7-7.6,7.7c-0.8,0-1.8-0.1-2.7-0.4c-4.5-1.1-6.8-4.2-6.4-8.5l4.9,0.1c-0.1,2.4,0.8,3.6,2.5,3.9
		c0.4,0.1,0.7,0.2,1.1,0.2c1.5,0,2.7-0.9,3.4-3.7l4-17l4.7,1.1L85,19z"/>
	<path class="st0" d="M60.7,27.1c2.1,0.2,2.6,0.4,2.6,1.8v9.2l-9.5-12h-5.3V27c0.9,0.1,1.3,0.5,2.1,1.6v13c0,1.4-0.2,1.6-2,1.8v0.9
		h6v-0.9c-2.1-0.2-2.6-0.4-2.6-1.8V30.1l11.3,14.3h1.3V28.9c0-1.4,0.3-1.6,2-1.8v-0.9h-6V27.1z"/>
	<path class="st0" d="M79.3,42.9c-0.7,0-0.8-0.6-0.8-1.5v-6.8c0-3-1.8-4.3-5.1-4.3c-2.9,0-5.1,1.1-5.1,3.3c0,0.8,0.4,1.4,1.2,1.6
		l2.2-0.3c-0.1-0.6-0.2-1.1-0.2-1.6c0-1.3,0.5-2.2,1.7-2.2c1.4,0,1.8,1.1,1.8,2.5v2.2L71,37.4c-1.9,0.7-3.6,1.6-3.6,3.9
		c0,2,1.4,3.4,3.5,3.4c1.9-0.1,3.3-1.2,4.1-2.3c0.3,1.4,1.2,2.3,2.6,2.3c1.2,0,2.2-0.5,2.9-1.4l-0.2-0.6
		C80.1,42.8,79.7,42.9,79.3,42.9z M74.9,41.7c-0.7,0.5-1.3,0.8-2,0.8c-1.4,0-2-0.9-2-2.3c0.1-1.5,0.7-2,1.8-2.5l2.2-0.9V41.7z"/>
	<path class="st0" d="M87.6,42.7c-1.2,0-1.8-0.7-1.8-2.3v-8.6h3.4v-1.2h-3.4v-3.4h-0.8c-1.1,1.7-2.6,3.2-4.4,4v0.6h1.6v8.8
		c0,2.9,1.5,4,3.7,4c1.9,0,3.2-0.9,4-2.2l-0.3-0.5C88.9,42.4,88.3,42.7,87.6,42.7z"/>
	<path class="st0" d="M95.6,42.4v-12H95l-4.6,1.4v0.5l1.6,0.9v9.2c0,0.9-0.4,1.1-1.6,1.2v0.8h6.8v-0.8C96,43.5,95.6,43.3,95.6,42.4z
		"/>
	<path class="st0" d="M93.7,28.8c1.3,0,2.1-0.9,2.1-2s-0.8-2-2.1-2s-2.1,0.9-2.1,2S92.5,28.8,93.7,28.8z"/>
	<path class="st0" d="M159.6,43c-0.7,0-0.8-0.6-0.8-1.5v-6.9c0-3-1.8-4.3-5.1-4.3c-2.9,0-5.1,1.1-5.1,3.3c0,0.8,0.4,1.4,1.2,1.6
		l2.2-0.3c-0.1-0.6-0.2-1.1-0.2-1.6c0-1.3,0.5-2.2,1.7-2.2c1.4,0,1.8,1.1,1.8,2.5v2.2l-3.9,1.4c-1.9,0.7-3.6,1.6-3.6,3.9
		c0,2,1.4,3.4,3.5,3.4c1.9,0,3.2-1.2,4-2.2c0.3,1.4,1.2,2.3,2.6,2.3c1.2,0,2.2-0.5,2.9-1.4l-0.2-0.6C160.3,42.8,160,43,159.6,43z
		 M155.2,41.7c-0.7,0.5-1.3,0.8-2,0.8c-1.4,0-2-0.9-2-2.3c0-1.5,0.7-2,1.8-2.5l2.2-0.9V41.7z"/>
	<path class="st0" d="M166.4,42.4V24.1h-0.6l-4.6,1.3v0.5l1.6,0.8v15.7c0,0.9-0.4,1.1-1.6,1.2v0.8h6.8v-0.8
		C166.9,43.5,166.4,43.3,166.4,42.4z"/>
	<path class="st0" d="M175.2,44.7c3,0,4.9-1.8,5.6-4.3l-0.4-0.3c-0.9,1.4-2.1,2.1-3.9,2.1c-2.5,0-4.4-2.2-4.3-5.8h8.5v-0.6
		c0-3.1-1.8-5.4-5.3-5.4c-3.6,0-6.4,3-6.4,7.5C169,41.9,171.5,44.7,175.2,44.7z M175.2,31.3c1.7,0,2.3,1.7,2.3,4.1h-5.2
		C172.5,33.1,173.5,31.3,175.2,31.3z"/>
	<path class="st0" d="M194.9,58l-0.1-1.1l-1.1,0.1l-9.6,0.5l-1,0.1l0.1,1l0.2,4l0.1,1.1l1.1-0.1l3.5-0.2c-0.4,1.3-1.5,3-4.4,3.1
		h-0.4c-3.8,0-6.1-2.7-6.4-7.5c-0.3-4.9,1.9-7.9,5.9-8.2h0.1h0.4c0.5,0,0.9,0.1,1.3,0.2c1.7,0.5,3.1,1.8,4,3.9l0.4,0.8l0.9-0.3
		l4.4-1.4l1-0.3l-0.3-1c-1.2-3.5-3.5-6.1-6.5-7.4c-1.2-0.5-2.5-0.9-3.9-1c-0.4-0.1-0.7-0.1-1.1-0.1h-0.7h0l0,0
		c-2.7,0.2-5.1,1-7.1,2.4c-1.1,0.7-2,1.5-2.7,2.4c-2.1,2.7-3.2,6.2-2.9,10.3c0.2,4.3,1.7,7.9,4.3,10.3c2.3,2.2,5.5,3.4,8.9,3.4h0.7
		h0l0,0c2.6-0.2,4.4-1.1,5.5-2.2l0.1,0.7l0.2,0.9l0.9,0l4-0.2l1-0.1l-0.1-1L194.9,58z M190.6,71.5l-0.6-2.8
		c-0.9,1.6-2.8,3.3-6.2,3.5c-0.3,0-0.5,0-0.7,0c-6,0-11.6-4.2-12.1-12.8c-0.2-4.1,0.9-7.3,2.7-9.6c0.7-0.9,1.5-1.6,2.4-2.2
		c1.9-1.3,4.2-2,6.6-2.2c0.3,0,0.5,0,0.7,0c0.4,0,0.7,0,1,0.1c1.3,0.1,2.5,0.4,3.6,0.9c2.9,1.3,4.9,3.7,5.9,6.8l-4.4,1.4
		c-1.1-2.3-2.6-3.8-4.7-4.4c-0.5-0.2-1.1-0.2-1.6-0.2c-0.2,0-0.3,0-0.4,0c-0.1,0-0.1,0-0.1,0c-4.2,0.3-7.3,3.3-6.9,9.3
		c0.3,6,3.5,8.5,7.4,8.5c0.2,0,0.3,0,0.5,0c3.8-0.2,5.4-2.9,5.6-5.3l-4.8,0.3l-0.2-4l9.6-0.5l0.7,13.2L190.6,71.5z"/>
	<path class="st0" d="M146.7,24.6l-4.8-0.6l-1.1-0.2l-0.2,1.1l-1.7,13l-5.8-14.6l-0.2-0.6l-0.6-0.1l-5.1-0.7l-1.1-0.2l-0.2,1
		l-1.6,12.1c-0.8-8.3-6.8-11.6-12.1-11.9c-0.3,0-0.5,0-0.8,0c-3.5,0-6.5,1.2-8.8,3.4c-2.5,2.4-3.9,6-4.2,10.4
		c-0.6,10.7,6.2,14.8,12.2,15.2c0.3,0,0.5,0,0.8,0c3.5,0,6.5-1.2,8.8-3.4c1.2-1.2,2.2-2.6,2.9-4.4l-0.6,4.6l-0.2,1.1l1.1,0.2
		l4.8,0.6l1.1,0.2l0.2-1.1l1.7-13l5.8,14.6l0.2,0.6l0.6,0.1l5.1,0.7l1.1,0.2l0.2-1.1l3.4-26l0.2-1.1L146.7,24.6z M123.4,38.1
		c-0.5,8.7-5.8,12.8-11.9,12.8c-0.3,0-0.5,0-0.7,0c-6.4-0.4-11.7-4.9-11.1-14c0.5-8.7,5.8-12.8,11.9-12.8c0.3,0,0.5,0,0.7,0
		C118.6,24.4,123.9,29.1,123.4,38.1z M143.1,51.5l-5.1-0.7l-7.3-18.4l-2.3,17.1l-4.8-0.6l3.4-26l5.1,0.7l7.3,18.4l2.3-17.1l4.8,0.6
		L143.1,51.5z"/>
	<path class="st0" d="M112,28.6c-0.2,0-0.3,0-0.4,0c-3.6,0-6.9,2.5-7.2,8.5c-0.3,6.2,2.9,9.1,6.7,9.3c0.2,0,0.3,0,0.4,0
		c3.6,0,6.9-2.5,7.2-8.5C119,31.6,115.8,28.8,112,28.6z M117.6,37.8c-0.3,4.7-2.5,7.5-6.1,7.5c-0.1,0-0.3,0-0.4,0
		c-3.8-0.2-5.9-3.3-5.6-8.1c0.3-4.7,2.5-7.5,6.1-7.5c0.1,0,0.3,0,0.4,0C115.7,29.8,117.8,32.9,117.6,37.8z"/>
</g>
</svg>
