<?xml version="1.0" encoding="utf-8"?>
<!-- Generator: Adobe Illustrator 24.3.0, SVG Export Plug-In . SVG Version: 6.00 Build 0)  -->
<svg version="1.1" id="Laag_1" xmlns="http://www.w3.org/2000/svg" xmlns:xlink="http://www.w3.org/1999/xlink" x="0px" y="0px"
	 width="223.8px" height="52.5px" viewBox="0 0 223.8 52.5" style="enable-background:new 0 0 223.8 52.5;" xml:space="preserve">
<style type="text/css">
	.st0{fill:#FFFFFF;}
</style>
<g>
	<g>
		<path class="st0" d="M4.6,9.6V21H0V0l12.9,11.9V0.6h4.6v20.9L4.6,9.6z"/>
		<path class="st0" d="M32.8,21.3c-6,0-8.4-3.7-8.4-8.2V0.9H29v11.8c0,3.1,1.1,4.5,3.8,4.5c2.7,0,3.6-1.4,3.6-4.5V0.9H41v12.2
			C41,17.4,38.8,21.3,32.8,21.3z"/>
		<path class="st0" d="M60.3,4.3V21h-4.6V4.3h-4.2V0.6h13.1v3.7H60.3z"/>
		<path class="st0" d="M69.3,21V0.6h11.9v3.7h-7.3v4.4h6.5v3.7h-6.5v4.7h8V21H69.3z"/>
		<path class="st0" d="M98.3,17.1h9.8V21H90.5l10.7-16.7h-9.2V0.6h16.7L98.3,17.1z"/>
		<path class="st0" d="M113,21V0.6h4.6V21H113z"/>
		<path class="st0" d="M123.7,21V0.6h11.9v3.7h-7.3v4.4h6.5v3.7h-6.5v4.7h8V21H123.7z"/>
		<path class="st0" d="M146.6,9.6V21H142V0L155,11.9V0.6h4.6v20.9L146.6,9.6z"/>
	</g>
	<g>
		<path class="st0" d="M0,52V31.6h4.6V52H0z"/>
		<path class="st0" d="M15.3,40.6V52h-4.6V31l12.9,11.9V31.6h4.6v20.9L15.3,40.6z"/>
		<path class="st0" d="M48.3,52h-6.9V31.6h5.6c7.1,0,11.5,3,11.5,10.6C58.4,46.9,55.4,52,48.3,52z M46.9,35.3h-1v12.8h1.6
			c4,0,6.4-2.4,6.4-6.3C53.9,37.9,51.8,35.3,46.9,35.3z"/>
		<path class="st0" d="M72.1,52.3c-6.3,0-10.7-4.6-10.7-10.5c0-6,4.4-10.5,10.7-10.5c6.4,0,10.7,4.5,10.7,10.5
			C82.8,47.8,78.6,52.3,72.1,52.3z M72.1,35.3c-3.8,0-6.2,2.9-6.2,6.5c0,3.6,2.4,6.6,6.2,6.6c3.9,0,6.2-3,6.2-6.6
			C78.2,38.3,76,35.3,72.1,35.3z"/>
		<path class="st0" d="M98.1,52l-6.3-9.6V52h-4.6V31.6h6.8c4.3,0,7.5,2,7.5,6.1c0,3.4-2.1,5.1-4.2,5.6l6.5,8.8H98.1z M93.9,35.3
			h-2.1v5.2H94c2.4,0,3.1-1.5,3.1-2.8C97,36.4,96.2,35.3,93.9,35.3z"/>
		<path class="st0" d="M114.9,52H108V31.6h5.6c7.1,0,11.5,3,11.5,10.6C125.1,46.9,122,52,114.9,52z M113.6,35.3h-1v12.8h1.6
			c4,0,6.4-2.4,6.4-6.3C120.6,37.9,118.5,35.3,113.6,35.3z"/>
		<path class="st0" d="M140.5,52l-6.3-9.6V52h-4.6V31.6h6.8c4.3,0,7.5,2,7.5,6.1c0,3.4-2.1,5.1-4.2,5.6l6.5,8.8H140.5z M136.3,35.3
			h-2.1v5.2h2.1c2.4,0,3.1-1.5,3.1-2.8C139.4,36.4,138.6,35.3,136.3,35.3z"/>
		<path class="st0" d="M150.4,52V31.6h11.9v3.7H155v4.4h6.5v3.7H155v4.7h8V52H150.4z"/>
		<path class="st0" d="M176.3,52.3c-6.2,0-10.5-4.3-10.5-10.6c0-6,4.6-10.4,10.5-10.4c2.9,0,5.9,0.7,7.8,3.2l-2.9,2.9
			c-0.8-1.2-2.6-2.1-4.9-2.1c-3.2,0-6,2.5-6,6.4c0,3.7,2.3,6.6,6.2,6.6c1.1,0,3.7-0.2,5.2-3l3.1,2.3
			C182.5,51.5,179.1,52.3,176.3,52.3z"/>
		<path class="st0" d="M201.4,52v-8.6h-7.2V52h-4.6V31.6h4.6v8.1h7.2v-8.1h4.6V52H201.4z"/>
		<path class="st0" d="M219.6,35.3V52H215V35.3h-4.2v-3.7h13.1v3.7H219.6z"/>
	</g>
</g>
</svg>
