<?xml version="1.0" encoding="utf-8"?>
<!-- Generator: Adobe Illustrator 24.3.0, SVG Export Plug-In . SVG Version: 6.00 Build 0)  -->
<svg version="1.1" id="Laag_1" xmlns="http://www.w3.org/2000/svg" xmlns:xlink="http://www.w3.org/1999/xlink" x="0px" y="0px"
	 width="50.9px" height="32.4px" viewBox="0 0 50.9 32.4" style="enable-background:new 0 0 50.9 32.4;" xml:space="preserve">
<style type="text/css">
	.st0{fill:#FFFFFF;}
</style>
<g>
	<path class="st0" d="M3.2,0.1h3.4c1.8,0,2.8,0.7,2.8,2.2C9.4,3.1,9,3.7,8.2,4c1.2,0.2,1.9,0.9,1.9,2.1c0,1.3-1,2.2-2.9,2.2h-4V0.1z
		 M6.3,3.4c0.9,0,1.4-0.2,1.4-0.9c0-0.7-0.5-0.9-1.3-0.9H4.9v1.8H6.3z M6.9,6.8c0.9,0,1.4-0.3,1.4-1c0-0.7-0.5-1-1.5-1H4.9v2H6.9z"
		/>
	<path class="st0" d="M11.7,8.3V0.1h6.5v1.5h-4.8v1.8h4v1.5h-4v2h4.8v1.5H11.7z"/>
	<path class="st0" d="M19.9,6.1c0.6,0.4,1.5,0.8,2.6,0.8c1,0,1.6-0.3,1.6-0.9c0-0.4-0.3-0.7-1.1-0.9l-1.3-0.3
		c-1.5-0.4-2.1-1.1-2.1-2.2c0-1.4,1-2.4,3.2-2.4c1.2,0,2.3,0.3,2.9,0.6l-0.5,1.5c-0.6-0.3-1.6-0.6-2.5-0.6c-1,0-1.4,0.3-1.4,0.8
		c0,0.4,0.3,0.6,0.9,0.8l1.5,0.4c1.5,0.4,2.2,1.1,2.2,2.3c0,1.5-1.4,2.6-3.4,2.6c-1.2,0-2.4-0.4-3-0.7L19.9,6.1z"/>
	<path class="st0" d="M31,1.6v6.7h-1.7V1.6h-2.7V0.1h7v1.5H31z"/>
	<path class="st0" d="M35,8.3V0.1h6.5v1.5h-4.8v1.8h4v1.5h-4v2h4.8v1.5H35z"/>
	<path class="st0" d="M43.2,8.3V0.1h1.7v6.7h4.2v1.5H43.2z"/>
	<path class="st0" d="M4.4,13.6v6.7H2.7v-6.7H0v-1.5h7v1.5H4.4z"/>
	<path class="st0" d="M8.4,12.1H10v8.2H8.4V12.1z"/>
	<path class="st0" d="M16,18.8c1.1,0,1.8-0.4,2.4-0.8l0.8,1.2c-0.9,0.8-1.9,1.2-3.2,1.2c-2.4,0-4.3-1.8-4.3-4.2S13.6,12,16,12
		c1.2,0,2.3,0.4,3.2,1.2l-0.8,1.2c-0.6-0.4-1.3-0.8-2.4-0.8c-1.5,0-2.5,1.2-2.5,2.6C13.5,17.7,14.5,18.8,16,18.8z"/>
	<path class="st0" d="M20.8,12.1h1.7v3.4h0.9l2.6-3.4h1.7v0.3l-2.9,3.8L28,20v0.2h-2L23.3,17h-0.9v3.3h-1.7V12.1z"/>
	<path class="st0" d="M29.2,20.3v-8.2h6.5v1.5h-4.8v1.8h4v1.5h-4v2h4.8v1.5H29.2z"/>
	<path class="st0" d="M41,13.6v6.7h-1.7v-6.7h-2.7v-1.5h7v1.5H41z"/>
	<path class="st0" d="M44.9,18.1c0.6,0.4,1.5,0.8,2.6,0.8c1,0,1.6-0.3,1.6-0.9c0-0.4-0.3-0.7-1.1-0.9l-1.3-0.3
		c-1.5-0.4-2.1-1.1-2.1-2.2c0-1.4,1-2.4,3.2-2.4c1.2,0,2.3,0.3,2.9,0.6l-0.5,1.5c-0.6-0.3-1.6-0.6-2.5-0.6c-1,0-1.4,0.3-1.4,0.8
		c0,0.4,0.3,0.6,0.9,0.8l1.5,0.4c1.5,0.4,2.2,1.1,2.2,2.3c0,1.5-1.4,2.6-3.4,2.6c-1.2,0-2.4-0.4-3-0.7L44.9,18.1z"/>
	<path class="st0" d="M5.9,24c2.4,0,4.2,1.8,4.2,4.2c0,2.4-1.8,4.2-4.2,4.2c-2.4,0-4.2-1.8-4.2-4.2C1.8,25.8,3.6,24,5.9,24z M6,30.8
		c1.5,0,2.5-1.1,2.5-2.6c0-1.5-1-2.6-2.5-2.6c-1.5,0-2.5,1.1-2.5,2.6C3.4,29.7,4.5,30.8,6,30.8z"/>
	<path class="st0" d="M13.5,26.8v5.5h-1.7v-8.2h1.5l4.6,5.5v-5.5h1.7v8.2h-1.5L13.5,26.8z"/>
	<path class="st0" d="M21.8,32.3v-8.2h1.7v6.7h4.2v1.5H21.8z"/>
	<path class="st0" d="M29,24.1h1.7v8.2H29V24.1z"/>
	<path class="st0" d="M34.6,26.8v5.5h-1.7v-8.2h1.5l4.6,5.5v-5.5h1.7v8.2h-1.5L34.6,26.8z"/>
	<path class="st0" d="M42.9,32.3v-8.2h6.5v1.5h-4.8v1.8h4v1.5h-4v2h4.8v1.5H42.9z"/>
</g>
</svg>
