<?xml version="1.0" encoding="utf-8"?>
<!-- Generator: Adobe Illustrator 23.1.1, SVG Export Plug-In . SVG Version: 6.00 Build 0)  -->
<svg version="1.1" id="Laag_1" xmlns="http://www.w3.org/2000/svg" xmlns:xlink="http://www.w3.org/1999/xlink" x="0px" y="0px"
	 width="340.8px" height="127.6px" viewBox="0 0 340.8 127.6" style="enable-background:new 0 0 340.8 127.6;" xml:space="preserve"
	>
<style type="text/css">
	.st0{fill:#FFFFFF;}
</style>
<g>
	<path class="st0" d="M241.1,27.3c0.5-0.5,0.7-1.1,0.7-1.8c0-0.5-0.2-0.9-0.5-1.1c-0.4-0.2-0.8-0.4-1.3-0.4h-6l-0.9,4.1h6
		C240,28,240.6,27.8,241.1,27.3z"/>
	<path class="st0" d="M32.5,31c-0.3-0.2-0.8-0.4-1.3-0.4h-6.7l-0.8,3.8h6.6c0.9,0,1.6-0.3,2-0.8c0.4-0.5,0.6-1.1,0.6-1.7
		C33,31.5,32.9,31.2,32.5,31z"/>
	<polygon class="st0" points="214.7,24.5 214.7,24.5 210.6,31.5 215.8,31.5 	"/>
	<polygon class="st0" points="192.6,24.5 192.5,24.5 188.5,31.5 193.7,31.5 	"/>
	<path class="st0" d="M163.1,54h22v0h142.7V3.2h-0.1v0H163.1H44.8H2.7v0V54v0L163.1,54L163.1,54z M300.7,19.8l6.2,11.6h0.1l2.4-11.6
		h6l-3.8,18.6h-6.8l-6.5-11.7h-0.1l-2.4,11.7h-6l3.8-18.6H300.7z M291,19.8l-0.8,4h-12.4l-0.7,3.4h11.6l-0.8,3.8h-11.6l-0.7,3.4H288
		l-0.8,4h-18.6l3.8-18.6H291z M250.8,19.8h19.8l-0.9,4.2h-6.8l-3,14.4h-6.2l3-14.4h-6.8L250.8,19.8z M228.6,19.8h15
		c3.4,0,5.2,1.3,5.2,3.8c0,1.4-0.4,2.6-1.1,3.7c-0.7,1-1.7,1.7-2.9,2l0,0.1c1.1,0.4,1.6,1.3,1.6,2.6c0,0.2-0.1,1-0.2,2.2
		c-0.2,1.2-0.2,2.1-0.2,2.7c0,0.7,0.1,1.3,0.4,1.6h-6.8c-0.1-0.3-0.1-0.5-0.1-0.7c0-0.5,0.1-1.1,0.3-1.9s0.2-1.4,0.2-1.8
		c0-0.6-0.1-1.1-0.4-1.4c-0.3-0.3-0.8-0.5-1.5-0.5h-5.8l-1.3,6.2h-6.2L228.6,19.8z M39.6,31.5c0,1.8-0.6,3.4-1.9,4.8
		c-1.4,1.4-3.4,2.2-6,2.2h-15l3.8-18.6h15.5c1.2,0,2.3,0.3,3.1,0.8s1.2,1.4,1.2,2.6c0,1-0.3,2-0.9,3c-0.6,1-1.4,1.6-2.3,1.9v0.1
		C38.8,28.6,39.6,29.7,39.6,31.5z M60.7,34.4l-0.8,4H41.3l3.8-18.6h18.6l-0.8,4H50.5l-0.7,3.4h11.6L60.6,31H49l-0.7,3.4H60.7z
		 M85,25.3h-7v-0.2c0-1.3-1.2-2-3.6-2c-1.2,0-2.1,0.2-2.7,0.6c-0.3,0.2-0.5,0.4-0.7,0.7s-0.2,0.5-0.2,0.7c0,0.6,0.6,0.9,1.7,1.1
		l7.1,1.1c0.9,0.1,1.6,0.3,2.2,0.6c0.6,0.3,1.1,0.5,1.4,0.8s0.6,0.6,0.8,0.9c0.2,0.4,0.3,0.7,0.3,0.9c0,0.2,0.1,0.5,0.1,0.8
		c0,0.8-0.2,1.8-0.6,2.7c-0.4,1-1.1,1.8-1.9,2.5c-2.1,1.6-5.3,2.4-9.6,2.4c-1.2,0-2.3,0-3.3-0.1c-1-0.1-1.9-0.2-2.7-0.5
		c-0.9-0.2-1.6-0.5-2.2-0.9c-0.6-0.4-1-0.9-1.3-1.5c-0.3-0.6-0.5-1.3-0.5-2.2c0-0.4,0-0.7,0.1-1.1h7.3c0,0.1,0,0.2,0,0.3
		c0,0.6,0.3,1.1,0.8,1.5c0.5,0.3,1.5,0.5,2.9,0.5c0.7,0,1.3-0.1,1.8-0.2s0.9-0.3,1.1-0.5c0.2-0.2,0.4-0.4,0.6-0.6
		c0.1-0.2,0.2-0.4,0.2-0.6c0-0.1,0-0.3,0-0.4c0-0.4-0.2-0.6-0.5-0.8c-0.4-0.2-1.1-0.4-2.1-0.5l-6-0.9c-2.9-0.5-4.3-1.8-4.3-4
		c0-0.6,0.1-1.2,0.3-1.8c0.2-0.6,0.5-1.2,1-1.9c0.5-0.7,1.1-1.2,1.9-1.7c0.8-0.5,1.9-0.9,3.2-1.2c1.3-0.3,2.9-0.5,4.6-0.5
		c3.4,0,5.9,0.4,7.5,1.3c1.6,0.8,2.4,2.2,2.4,3.9C85.1,24.6,85.1,24.9,85,25.3z M96.7,38.4h-6.2l3-14.4h-6.8l0.9-4.2h19.8l-0.9,4.2
		h-6.8L96.7,38.4z M124.8,34.4l-0.8,4h-18.6l3.8-18.6h18.6l-0.8,4h-12.4l-0.7,3.4h11.6l-0.8,3.8H113l-0.7,3.4H124.8z M144,38.4
		h-17.5l3.8-18.6h6.2l-3,14.2h11.3L144,38.4z M156.4,38.4l3.8-18.6h6.2l-1.5,7.3l9.3-7.3h8.2l-9.9,7.3l6.1,10.2l11.2-17.5h7.6
		l3.8,16.9l10.8-16.9h7.6l4.1,18.6H217l-0.5-3h-8.1l-1.7,3h-5.2H200h-5.2l-0.5-3h-8.1l-1.7,3h-5.3h-1.4h-6.9l-4.2-7.4l-3.1,2.2
		l-1.1,5.2H156.4z"/>
	<path class="st0" d="M32.2,23.8h-6.2L25.3,27h6.2c0.7,0,1.2-0.2,1.6-0.6c0.4-0.4,0.6-0.8,0.6-1.4c0-0.4-0.1-0.7-0.4-0.9
		C33,23.9,32.6,23.8,32.2,23.8z"/>
	<path d="M39.5,26.2c0.6-1,0.9-2,0.9-3c0-1.2-0.4-2.1-1.2-2.6s-1.9-0.8-3.1-0.8H20.6l-3.8,18.6h15c2.6,0,4.6-0.7,6-2.2
		c1.3-1.3,1.9-2.9,1.9-4.8c0-1.8-0.8-2.9-2.4-3.3v-0.1C38.2,27.8,38.9,27.2,39.5,26.2z M32.4,33.6c-0.4,0.5-1.1,0.8-2,0.8h-6.6
		l0.8-3.8h6.7c0.5,0,0.9,0.1,1.3,0.4c0.3,0.2,0.5,0.6,0.5,1C33,32.6,32.8,33.1,32.4,33.6z M33.1,26.4c-0.4,0.4-0.9,0.6-1.6,0.6h-6.2
		l0.7-3.1h6.2c0.5,0,0.8,0.1,1.1,0.3c0.3,0.2,0.4,0.5,0.4,0.9C33.7,25.5,33.5,26,33.1,26.4z"/>
	<polygon points="60.6,31 61.4,27.2 49.8,27.2 50.5,23.8 62.9,23.8 63.7,19.8 45.1,19.8 41.3,38.4 59.9,38.4 60.7,34.4 48.3,34.4 
		49,31 	"/>
	<path d="M82.6,20.5c-1.6-0.8-4.1-1.3-7.5-1.3c-1.7,0-3.3,0.2-4.6,0.5c-1.3,0.3-2.4,0.7-3.2,1.2c-0.8,0.5-1.4,1.1-1.9,1.7
		c-0.5,0.7-0.8,1.3-1,1.9c-0.2,0.6-0.3,1.2-0.3,1.8c0,2.2,1.4,3.5,4.3,4l6,0.9c1,0.2,1.7,0.4,2.1,0.5c0.4,0.2,0.5,0.5,0.5,0.8
		c0,0.1,0,0.2,0,0.4c0,0.1-0.1,0.3-0.2,0.6c-0.1,0.2-0.3,0.5-0.6,0.6c-0.2,0.2-0.6,0.3-1.1,0.5S74,35,73.4,35
		c-1.4,0-2.4-0.2-2.9-0.5c-0.5-0.3-0.8-0.8-0.8-1.5c0-0.2,0-0.3,0-0.3h-7.3c-0.1,0.3-0.1,0.7-0.1,1.1c0,0.8,0.2,1.6,0.5,2.2
		c0.3,0.6,0.8,1.1,1.3,1.5c0.6,0.4,1.3,0.7,2.2,0.9c0.9,0.2,1.8,0.4,2.7,0.5c1,0.1,2.1,0.1,3.3,0.1c4.3,0,7.5-0.8,9.6-2.4
		c0.9-0.7,1.5-1.5,1.9-2.5c0.4-1,0.6-1.9,0.6-2.7c0-0.3,0-0.5-0.1-0.8c0-0.2-0.1-0.5-0.3-0.9c-0.2-0.4-0.4-0.7-0.8-0.9
		s-0.8-0.5-1.4-0.8c-0.6-0.3-1.4-0.5-2.2-0.6l-7.1-1.1c-1.1-0.2-1.7-0.5-1.7-1.1c0-0.2,0.1-0.5,0.2-0.7s0.4-0.5,0.7-0.7
		c0.6-0.4,1.5-0.6,2.7-0.6c2.4,0,3.6,0.7,3.6,2v0.2h7c0-0.4,0.1-0.7,0.1-0.8C85.1,22.7,84.3,21.4,82.6,20.5z"/>
	<polygon points="107.3,19.8 87.5,19.8 86.7,24 93.5,24 90.5,38.4 96.7,38.4 99.7,24 106.5,24 	"/>
	<polygon points="124.6,31 125.5,27.2 113.8,27.2 114.5,23.8 126.9,23.8 127.8,19.8 109.2,19.8 105.3,38.4 123.9,38.4 124.8,34.4 
		112.4,34.4 113,31 	"/>
	<polygon points="136.6,19.8 130.4,19.8 126.5,38.4 144,38.4 144.9,34.1 133.6,34.1 	"/>
	<path d="M166.7,31l4.2,7.4h6.9h1.4h5.3l1.7-3h8.1l0.5,3h5.2h1.5h5.2l1.7-3h8.1l0.5,3h6.6l-4.1-18.6h-7.6l-10.8,16.9l-3.8-16.9h-7.6
		l-11.2,17.5l-6.1-10.2l9.9-7.3h-8.2l-9.3,7.3l1.5-7.3h-6.2l-3.8,18.6h6.2l1.1-5.2L166.7,31z M214.7,24.5L214.7,24.5l1.1,7h-5.2
		L214.7,24.5z M192.5,24.5L192.5,24.5l1.1,7h-5.2L192.5,24.5z"/>
	<path d="M232.2,32.2h5.8c0.7,0,1.2,0.2,1.5,0.5c0.3,0.3,0.4,0.8,0.4,1.4c0,0.4-0.1,1-0.2,1.8s-0.2,1.4-0.3,1.9c0,0.2,0,0.4,0.1,0.7
		h6.8c-0.3-0.4-0.4-0.9-0.4-1.6c0-0.5,0.1-1.4,0.2-2.7c0.2-1.2,0.2-2,0.2-2.2c0-1.4-0.5-2.2-1.6-2.6l0-0.1c1.2-0.3,2.2-0.9,2.9-2
		c0.7-1,1.1-2.3,1.1-3.7c0-2.5-1.7-3.8-5.2-3.8h-15l-3.8,18.6h6.2L232.2,32.2z M233.9,24h6c0.5,0,1,0.1,1.3,0.4
		c0.4,0.2,0.5,0.6,0.5,1.1c0,0.7-0.2,1.2-0.7,1.8c-0.5,0.5-1.1,0.8-2,0.8h-6L233.9,24z"/>
	<polygon points="253.7,38.4 259.9,38.4 262.9,24 269.7,24 270.6,19.8 250.8,19.8 249.9,24 256.7,24 	"/>
	<polygon points="287.2,38.4 288,34.4 275.6,34.4 276.3,31 287.9,31 288.7,27.2 277.1,27.2 277.8,23.8 290.2,23.8 291,19.8 
		272.4,19.8 268.6,38.4 	"/>
	<polygon points="295.8,38.4 298.2,26.7 298.2,26.7 304.7,38.4 311.5,38.4 315.4,19.8 309.4,19.8 307,31.5 306.9,31.5 300.7,19.8 
		293.6,19.8 289.8,38.4 	"/>
	<path d="M330.6,0L330.6,0L165.8,0l0,0l-0.1,0h-1H0v57.2h0l11.4,10.4H2.8h-3v3v54v3h3h325h3v-3v-54v-3h10V9.3L330.6,0z M2.7,54
		L2.7,54V3.2v0h42.1h118.4h164.7v0h0.1V54H185.2v0h-22v0H2.7z M327.8,124.6H2.8v-54h325V124.6z"/>
	<path class="st0" d="M2.8,124.6h325v-54H2.8V124.6z M300.8,87.3l6.2,11.6h0.1l2.4-11.6h6l-3.8,18.6h-6.8l-6.5-11.7h-0.1l-2.4,11.7
		h-6l3.8-18.6H300.8z M291,87.3l-0.8,4h-12.4l-0.7,3.4h11.6l-0.8,3.8h-11.6l-0.7,3.4H288l-0.8,4h-18.6l3.8-18.6H291z M250.8,87.3
		h19.8l-0.9,4.2h-6.8l-3,14.4h-6.2l3-14.4h-6.8L250.8,87.3z M228.6,87.3h15c3.4,0,5.2,1.3,5.2,3.8c0,1.4-0.4,2.6-1.1,3.7
		c-0.7,1-1.7,1.7-2.9,2l0,0.1c1.1,0.4,1.6,1.3,1.6,2.6c0,0.2-0.1,1-0.2,2.2c-0.2,1.2-0.2,2.1-0.2,2.7c0,0.7,0.1,1.3,0.4,1.6h-6.8
		c-0.1-0.3-0.1-0.5-0.1-0.7c0-0.5,0.1-1.1,0.3-1.9s0.2-1.4,0.2-1.8c0-0.6-0.1-1.1-0.4-1.4c-0.3-0.3-0.8-0.5-1.5-0.5h-5.8l-1.3,6.2
		h-6.2L228.6,87.3z M160.2,87.3h6.2l-1.5,7.3l9.3-7.3h8.2l-9.9,7.3l6.1,10.2l11.2-17.5h7.6l3.8,16.9l10.8-16.9h7.6l4.1,18.6H217
		l-0.5-3h-8.1l-1.7,3h-5.2H200h-5.2l-0.5-3h-8.1l-1.7,3h-5.3h-1.4h-6.9l-4.2-7.4l-3.1,2.2l-1.1,5.2h-6.2L160.2,87.3z M136.6,87.3
		l-3,14.2h11.3l-0.9,4.3h-17.5l3.8-18.6H136.6z M127.8,87.3l-0.8,4h-12.4l-0.7,3.4h11.6l-0.8,3.8H113l-0.7,3.4h12.4l-0.8,4h-18.6
		l3.8-18.6H127.8z M87.5,87.3h19.8l-0.9,4.2h-6.8l-3,14.4h-6.2l3-14.4h-6.8L87.5,87.3z M64.4,92.1c0.2-0.6,0.5-1.2,1-1.9
		c0.5-0.7,1.1-1.2,1.9-1.7c0.8-0.5,1.9-0.9,3.2-1.2c1.3-0.3,2.9-0.5,4.6-0.5c3.4,0,5.9,0.4,7.5,1.3c1.6,0.8,2.4,2.2,2.4,3.9
		c0,0.1,0,0.4-0.1,0.8h-7v-0.2c0-1.3-1.2-2-3.6-2c-1.2,0-2.1,0.2-2.7,0.6c-0.3,0.2-0.5,0.4-0.7,0.7s-0.2,0.5-0.2,0.7
		c0,0.6,0.6,0.9,1.7,1.1l7.1,1.1c0.9,0.1,1.6,0.3,2.2,0.6c0.6,0.3,1.1,0.5,1.4,0.8s0.6,0.6,0.8,0.9c0.2,0.4,0.3,0.7,0.3,0.9
		c0,0.2,0.1,0.5,0.1,0.8c0,0.8-0.2,1.8-0.6,2.7c-0.4,1-1.1,1.8-1.9,2.5c-2.1,1.6-5.3,2.4-9.6,2.4c-1.2,0-2.3,0-3.3-0.1
		c-1-0.1-1.9-0.2-2.7-0.5c-0.9-0.2-1.6-0.5-2.2-0.9c-0.6-0.4-1-0.9-1.3-1.5c-0.3-0.6-0.5-1.3-0.5-2.2c0-0.4,0-0.7,0.1-1.1h7.3
		c0,0.1,0,0.2,0,0.3c0,0.6,0.3,1.1,0.8,1.5c0.5,0.3,1.5,0.5,2.9,0.5c0.7,0,1.3-0.1,1.8-0.2s0.9-0.3,1.1-0.5c0.2-0.2,0.4-0.4,0.6-0.6
		c0.1-0.2,0.2-0.4,0.2-0.6c0-0.1,0-0.3,0-0.4c0-0.4-0.2-0.6-0.5-0.8c-0.4-0.2-1.1-0.4-2.1-0.5l-6-0.9c-2.9-0.5-4.3-1.8-4.3-4
		C64.1,93.3,64.2,92.7,64.4,92.1z M45.1,87.3h18.6l-0.8,4H50.5l-0.7,3.4h11.6l-0.8,3.8H49l-0.7,3.4h12.4l-0.8,4H41.3L45.1,87.3z
		 M20.6,87.3h15.5c1.2,0,2.3,0.3,3.1,0.8s1.2,1.4,1.2,2.6c0,1-0.3,2-0.9,3c-0.6,1-1.4,1.6-2.3,1.9v0.1c1.6,0.4,2.4,1.5,2.4,3.3
		c0,1.8-0.6,3.4-1.9,4.8c-1.4,1.4-3.4,2.2-6,2.2h-15L20.6,87.3z"/>
	<path class="st0" d="M241.1,94.7c0.5-0.5,0.7-1.1,0.7-1.8c0-0.5-0.2-0.9-0.5-1.1c-0.4-0.2-0.8-0.4-1.3-0.4h-6l-0.9,4.1h6
		C240,95.5,240.6,95.2,241.1,94.7z"/>
	<path class="st0" d="M33,99.4c0-0.4-0.2-0.8-0.5-1c-0.3-0.2-0.8-0.4-1.3-0.4h-6.7l-0.8,3.8h6.6c0.9,0,1.6-0.3,2-0.8
		C32.8,100.6,33,100,33,99.4z"/>
	<polygon class="st0" points="214.7,92 214.7,92 210.6,99 215.8,99 	"/>
	<polygon class="st0" points="192.6,92 192.5,92 188.5,99 193.7,99 	"/>
	<path class="st0" d="M33.1,93.8c0.4-0.4,0.6-0.8,0.6-1.4c0-0.4-0.1-0.7-0.4-0.9c-0.3-0.2-0.6-0.3-1.1-0.3h-6.2l-0.7,3.1h6.2
		C32.2,94.4,32.7,94.2,33.1,93.8z"/>
	<path d="M37.7,103.7c1.3-1.3,1.9-2.9,1.9-4.8c0-1.8-0.8-2.9-2.4-3.3v-0.1c1-0.3,1.7-1,2.3-1.9c0.6-1,0.9-2,0.9-3
		c0-1.2-0.4-2.1-1.2-2.6s-1.9-0.8-3.1-0.8H20.6l-3.8,18.6h15C34.3,105.9,36.3,105.1,37.7,103.7z M25.9,91.3h6.2
		c0.5,0,0.8,0.1,1.1,0.3c0.3,0.2,0.4,0.5,0.4,0.9c0,0.5-0.2,1-0.6,1.4c-0.4,0.4-0.9,0.6-1.6,0.6h-6.2L25.9,91.3z M23.8,101.9
		l0.8-3.8h6.7c0.5,0,0.9,0.1,1.3,0.4c0.3,0.2,0.5,0.6,0.5,1c0,0.6-0.2,1.1-0.6,1.7c-0.4,0.5-1.1,0.8-2,0.8H23.8z"/>
	<polygon points="60.7,101.9 48.3,101.9 49,98.5 60.6,98.5 61.4,94.7 49.8,94.7 50.5,91.3 62.9,91.3 63.7,87.3 45.1,87.3 
		41.3,105.9 59.9,105.9 	"/>
	<path d="M68.4,97.9l6,0.9c1,0.2,1.7,0.4,2.1,0.5c0.4,0.2,0.5,0.5,0.5,0.8c0,0.1,0,0.2,0,0.4c0,0.1-0.1,0.3-0.2,0.6
		c-0.1,0.2-0.3,0.5-0.6,0.6c-0.2,0.2-0.6,0.3-1.1,0.5s-1.1,0.2-1.8,0.2c-1.4,0-2.4-0.2-2.9-0.5c-0.5-0.3-0.8-0.8-0.8-1.5
		c0-0.2,0-0.3,0-0.3h-7.3c-0.1,0.3-0.1,0.7-0.1,1.1c0,0.8,0.2,1.6,0.5,2.2c0.3,0.6,0.8,1.1,1.3,1.5c0.6,0.4,1.3,0.7,2.2,0.9
		c0.9,0.2,1.8,0.4,2.7,0.5c1,0.1,2.1,0.1,3.3,0.1c4.3,0,7.5-0.8,9.6-2.4c0.9-0.7,1.5-1.5,1.9-2.5c0.4-1,0.6-1.9,0.6-2.7
		c0-0.3,0-0.5-0.1-0.8c0-0.2-0.1-0.5-0.3-0.9c-0.2-0.4-0.4-0.7-0.8-0.9s-0.8-0.5-1.4-0.8c-0.6-0.3-1.4-0.5-2.2-0.6l-7.1-1.1
		c-1.1-0.2-1.7-0.5-1.7-1.1c0-0.2,0.1-0.5,0.2-0.7s0.4-0.5,0.7-0.7c0.6-0.4,1.5-0.6,2.7-0.6c2.4,0,3.6,0.7,3.6,2v0.2h7
		c0-0.4,0.1-0.7,0.1-0.8c0-1.8-0.8-3.1-2.4-3.9c-1.6-0.8-4.1-1.3-7.5-1.3c-1.7,0-3.3,0.2-4.6,0.5c-1.3,0.3-2.4,0.7-3.2,1.2
		c-0.8,0.5-1.4,1.1-1.9,1.7c-0.5,0.7-0.8,1.3-1,1.9c-0.2,0.6-0.3,1.2-0.3,1.8C64.1,96.1,65.6,97.4,68.4,97.9z"/>
	<polygon points="90.5,105.9 96.7,105.9 99.7,91.5 106.5,91.5 107.3,87.3 87.5,87.3 86.7,91.5 93.5,91.5 	"/>
	<polygon points="123.9,105.9 124.8,101.9 112.4,101.9 113,98.5 124.7,98.5 125.5,94.7 113.8,94.7 114.5,91.3 126.9,91.3 
		127.8,87.3 109.2,87.3 105.3,105.9 	"/>
	<polygon points="144,105.9 144.9,101.5 133.6,101.5 136.6,87.3 130.4,87.3 126.5,105.9 	"/>
	<path d="M163.6,100.6l3.1-2.2l4.2,7.4h6.9h1.4h5.3l1.7-3h8.1l0.5,3h5.2h1.5h5.2l1.7-3h8.1l0.5,3h6.6l-4.1-18.6h-7.6l-10.8,16.9
		l-3.8-16.9h-7.6l-11.2,17.5l-6.1-10.2l9.9-7.3h-8.2l-9.3,7.3l1.5-7.3h-6.2l-3.8,18.6h6.2L163.6,100.6z M214.7,92L214.7,92l1.1,7
		h-5.2L214.7,92z M192.5,92L192.5,92l1.1,7h-5.2L192.5,92z"/>
	<path d="M232.2,99.7h5.8c0.7,0,1.2,0.2,1.5,0.5c0.3,0.3,0.4,0.8,0.4,1.4c0,0.4-0.1,1-0.2,1.8s-0.2,1.4-0.3,1.9c0,0.2,0,0.4,0.1,0.7
		h6.8c-0.3-0.4-0.4-0.9-0.4-1.6c0-0.5,0.1-1.4,0.2-2.7c0.2-1.2,0.2-2,0.2-2.2c0-1.4-0.5-2.2-1.6-2.6l0-0.1c1.2-0.3,2.2-0.9,2.9-2
		c0.7-1,1.1-2.3,1.1-3.7c0-2.5-1.7-3.8-5.2-3.8h-15l-3.8,18.6h6.2L232.2,99.7z M233.9,91.5h6c0.5,0,1,0.1,1.3,0.4
		c0.4,0.2,0.5,0.6,0.5,1.1c0,0.7-0.2,1.2-0.7,1.8c-0.5,0.5-1.1,0.8-2,0.8h-6L233.9,91.5z"/>
	<polygon points="253.7,105.9 259.9,105.9 262.9,91.5 269.7,91.5 270.6,87.3 250.8,87.3 249.9,91.5 256.7,91.5 	"/>
	<polygon points="287.2,105.9 288,101.9 275.6,101.9 276.3,98.5 287.9,98.5 288.7,94.7 277.1,94.7 277.8,91.3 290.2,91.3 291,87.3 
		272.4,87.3 268.6,105.9 	"/>
	<polygon points="295.8,105.9 298.2,94.1 298.2,94.1 304.7,105.9 311.5,105.9 315.4,87.3 309.4,87.3 307,98.9 306.9,98.9 
		300.8,87.3 293.6,87.3 289.8,105.9 	"/>
</g>
</svg>
