<?xml version="1.0" encoding="utf-8"?>
<!-- Generator: Adobe Illustrator 23.1.1, SVG Export Plug-In . SVG Version: 6.00 Build 0)  -->
<svg version="1.1" id="Laag_1" xmlns="http://www.w3.org/2000/svg" xmlns:xlink="http://www.w3.org/1999/xlink" x="0px" y="0px"
	 width="239.9px" height="76.8px" viewBox="0 0 239.9 76.8" style="enable-background:new 0 0 239.9 76.8;" xml:space="preserve">
<style type="text/css">
	.st0{fill:none;}
	.st1{fill:none;stroke:#000000;stroke-width:0;stroke-linecap:round;stroke-linejoin:round;}
	.st2{fill:#FFFFFF;}
</style>
<g>
	<polygon class="st0" points="3,54.8 3,4 3,4 3,54.8 13.8,54.8 13.8,54.8 4.5,54.8 	"/>
	<rect x="16.3" y="54.8" class="st0" width="137.4" height="0"/>
	<line class="st1" x1="18.7" y1="75.5" x2="18.7" y2="75.6"/>
	<line class="st1" x1="32" y1="75.6" x2="32" y2="75.5"/>
	<line class="st1" x1="32" y1="75.5" x2="32" y2="75.5"/>
	<path d="M187.8,18.4L169.6,0.8l-0.1,0h-13.2l0,0l-0.1,0H13.8H0.5V58h0l18.2,17.6l13.3,0v0v0l142.4,0v0l13.3,0V18.4L187.8,18.4
		C187.8,18.4,187.8,18.4,187.8,18.4z M16.3,54.8L16.3,54.8l-2.5,0v0H3V4h0v0h1.5h149.3h13.3v50.7h-13.3h0v0H16.3z"/>
	<polygon class="st2" points="105.3,22.1 99,34.5 107,34.5 105.4,22.1 	"/>
	<path class="st2" d="M144.2,21.2h-9.3l-1.3,7.2h9.3c1.3,0,2.4-0.5,3.1-1.4c0.7-0.9,1.1-2,1.1-3.1c0-0.9-0.3-1.6-0.8-2
		C145.7,21.4,145,21.2,144.2,21.2z"/>
	<path class="st2" d="M37.1,21.2h-7.4l-3.3,18.1h8.1c1.6,0,3-0.4,4.1-1.2c1.2-0.8,2.1-1.8,2.7-3.2c0.6-1.3,1.1-2.6,1.4-3.9
		c0.3-1.3,0.5-2.6,0.5-3.8c0-2-0.5-3.5-1.6-4.6C40.6,21.7,39.1,21.2,37.1,21.2z"/>
	<path class="st2" d="M153.7,54.8h13.3V4h-13.3H4.5H3v0v50.7h1.5h9.4h2.5H153.7L153.7,54.8z M52.5,31.9c-0.6,2.5-1.4,4.7-2.4,6.6
		c-3,5.5-8,8.2-14.9,8.2H15.6l5.9-32.8H42c7.5,0,11.3,3.8,11.3,11.3C53.3,27.1,53,29.4,52.5,31.9z M108.8,46.7l-0.8-5.3H95.6
		l-2.7,5.3H82.7h0H54.1L60,13.8h28.6l-1.3,7.1H68.3l-1.1,5.9h17.9l-1.2,6.8H66l-1,5.9H84l-1.3,7.1L101,13.8h11.6l6.4,32.8H108.8z
		 M143.4,45.4c0-0.9,0.2-2,0.4-3.3c0.2-1.3,0.4-2.4,0.4-3.1c0-1.1-0.2-1.9-0.7-2.4s-1.2-0.8-2.3-0.8h-8.9l-2,10.9h-9.5l5.9-32.8
		h23.1c5.3,0,8,2.2,8,6.7c0,2.5-0.6,4.6-1.7,6.5c-1.1,1.9-2.6,3-4.5,3.5l0,0.1c1.7,0.7,2.5,2.3,2.5,4.6c0,0.4-0.1,1.7-0.4,3.9
		c-0.2,2.2-0.4,3.7-0.4,4.7c0,1.3,0.2,2.3,0.6,2.9h-10.4C143.4,46.2,143.4,45.8,143.4,45.4z"/>
	<path d="M42,13.8H21.5l-5.9,32.8h19.6c6.9,0,11.9-2.7,14.9-8.2c1-1.9,1.8-4.1,2.4-6.6c0.6-2.5,0.9-4.8,0.9-6.8
		C53.3,17.6,49.6,13.8,42,13.8z M42.8,31.1c-0.3,1.3-0.7,2.6-1.4,3.9c-0.6,1.3-1.5,2.4-2.7,3.2c-1.2,0.8-2.6,1.2-4.1,1.2h-8.1
		l3.3-18.1h7.4c2,0,3.5,0.5,4.6,1.5c1.1,1,1.6,2.5,1.6,4.6C43.2,28.6,43.1,29.8,42.8,31.1z"/>
	<path d="M101,13.8L82.7,46.7l1.3-7.1H64.9l1-5.9h17.9l1.2-6.8H67.2l1.1-5.9h19.1l1.3-7.1H60l-5.9,32.8h28.6h0h10.2l2.7-5.3h12.5
		l0.8,5.3H119l-6.4-32.8H101z M99,34.5l6.2-12.4h0.1l1.7,12.4H99z"/>
	<path d="M153.9,46.7c-0.4-0.6-0.6-1.6-0.6-2.9c0-1,0.1-2.5,0.4-4.7c0.2-2.2,0.4-3.5,0.4-3.9c0-2.4-0.8-3.9-2.5-4.6l0-0.1
		c1.8-0.5,3.3-1.7,4.5-3.5c1.1-1.9,1.7-4,1.7-6.5c0-4.4-2.7-6.7-8-6.7h-23.1l-5.9,32.8h9.5l2-10.9h8.9c1.1,0,1.9,0.3,2.3,0.8
		s0.7,1.4,0.7,2.4c0,0.7-0.1,1.8-0.4,3.1c-0.2,1.3-0.4,2.5-0.4,3.3c0,0.4,0,0.8,0.1,1.2H153.9z M146,27c-0.7,0.9-1.8,1.4-3.1,1.4
		h-9.3l1.3-7.2h9.3c0.8,0,1.5,0.2,2.1,0.6c0.5,0.4,0.8,1.1,0.8,2C147.1,25,146.7,26.1,146,27z"/>
</g>
</svg>
