<?xml version="1.0" encoding="utf-8"?>
<!-- Generator: Adobe Illustrator 24.0.0, SVG Export Plug-In . SVG Version: 6.00 Build 0)  -->
<svg version="1.1" id="Laag_1" xmlns="http://www.w3.org/2000/svg" xmlns:xlink="http://www.w3.org/1999/xlink" x="0px" y="0px"
	 width="85.5px" height="85.1px" viewBox="0 0 85.5 85.1" style="enable-background:new 0 0 85.5 85.1;" xml:space="preserve">
<style type="text/css">
	.st0{fill:#E2E8DB;}
	.st1{fill:#0069B4;}
</style>
<g>
	<ellipse transform="matrix(0.9831 -0.1832 0.1832 0.9831 -7.0718 8.5491)" class="st0" cx="42.7" cy="42.5" rx="42.8" ry="42.1"/>
	<g>
		<path class="st1" d="M27.3,22.9l1.7-1.4l5.8,10.6l-2.4,2L26,29.2l-0.1,0.1l3.5,7.2l-2.4,2l-9.1-7.8l1.7-1.4l6.8,5.9l0.1-0.1
			l-3.6-7.5l2.2-1.8l6.6,5l0.1-0.1L27.3,22.9z"/>
		<path class="st1" d="M39.6,24.6l1.6-1.3c0.4,0.8,0.5,1.6,0.3,2.5c-0.2,0.8-0.7,1.6-1.5,2.2c-1,0.8-2,1.2-3.2,1
			c-1.1-0.1-2.1-0.7-2.9-1.7c-0.8-1-1.2-2.1-1.1-3.2c0.1-1.1,0.6-2.1,1.5-2.8c0.4-0.4,0.9-0.6,1.4-0.8s1-0.2,1.6-0.2
			c0.5,0,1.1,0.3,1.7,0.7c0.6,0.4,1.1,0.9,1.6,1.7l-4.7,3.8c1,0.9,2,1,3,0.2c0.3-0.3,0.5-0.6,0.7-0.9C39.7,25.3,39.7,24.9,39.6,24.6
			z M35.5,22.5c-0.4,0.3-0.6,0.7-0.7,1.2c-0.1,0.5,0,0.9,0.2,1.4l3.1-2.5c-0.3-0.3-0.7-0.5-1.2-0.6S35.9,22.2,35.5,22.5z"/>
		<path class="st1" d="M25.9,57l3-2.5L30,56l-5.3,4.3l-0.8-1l-0.4-6.4l-0.1-0.1l-2.8,2.3l-1.2-1.4l5-4.1l0.8,1l0.4,6.4L25.9,57z"/>
		<path class="st1" d="M27.6,47.1l5.3,6.6L31.2,55l-5.3-6.6L27.6,47.1z M26.1,47c-0.3,0.2-0.6,0.3-1,0.3s-0.7-0.2-0.9-0.5
			c-0.2-0.3-0.4-0.6-0.3-1c0-0.4,0.2-0.7,0.5-0.9c0.3-0.2,0.6-0.3,1-0.3c0.4,0,0.7,0.2,0.9,0.5c0.2,0.3,0.3,0.6,0.3,1
			C26.5,46.4,26.4,46.7,26.1,47z"/>
		<path class="st1" d="M33.7,54.6c0.4,0,0.7-0.1,1-0.3c0.2-0.2,0.4-0.4,0.4-0.7c0-0.3-0.1-0.5-0.3-0.8l-5.6-6.9l1.6-1.3l5.8,7.1
			c0.6,0.7,0.8,1.4,0.7,2.1c-0.1,0.7-0.4,1.3-1,1.8c-0.7,0.5-1.3,0.8-1.9,0.8L33.7,54.6z M29.3,44.4c-0.3,0.2-0.6,0.3-1,0.3
			c-0.4,0-0.7-0.2-0.9-0.5c-0.2-0.3-0.4-0.6-0.3-1c0-0.4,0.2-0.7,0.5-0.9c0.3-0.2,0.6-0.3,1-0.3c0.4,0,0.7,0.2,0.9,0.5
			c0.2,0.3,0.3,0.6,0.3,1C29.8,43.8,29.6,44.1,29.3,44.4z"/>
		<path class="st1" d="M35.8,40.1c0.7-0.6,1.5-0.8,2.4-0.7c0.9,0.1,1.7,0.7,2.5,1.6l3,3.7L42,46.2l-2.8-3.4c-0.5-0.6-0.9-0.9-1.4-1
			c-0.5-0.1-0.9,0-1.3,0.4c-0.4,0.3-0.6,0.7-0.6,1.2c0,0.5,0.2,1,0.6,1.6l2.8,3.5l-1.7,1.4l-5.3-6.6l1.4-1.1l0.9,0.6l0.1-0.1
			c0-0.3,0-0.5,0-0.7c0-0.2,0.1-0.5,0.3-0.8C35.2,40.7,35.5,40.4,35.8,40.1z"/>
		<path class="st1" d="M51.3,35.1l1.6-1.3c0.4,0.8,0.5,1.6,0.3,2.5c-0.2,0.8-0.7,1.6-1.5,2.2c-1,0.8-2,1.2-3.2,1
			c-1.1-0.1-2.1-0.7-2.9-1.7c-0.8-1-1.2-2.1-1.1-3.2c0.1-1.1,0.6-2.1,1.5-2.8c0.4-0.4,0.9-0.6,1.4-0.8s1-0.2,1.6-0.2
			c0.5,0,1.1,0.3,1.7,0.7c0.6,0.4,1.1,0.9,1.6,1.7l-4.7,3.8c1,0.9,2,1,3,0.2c0.3-0.3,0.5-0.6,0.7-0.9C51.4,35.8,51.4,35.4,51.3,35.1
			z M47.2,33c-0.4,0.3-0.6,0.7-0.7,1.2c-0.1,0.5,0,0.9,0.2,1.4l3.1-2.5c-0.3-0.3-0.7-0.5-1.2-0.6C48.1,32.5,47.6,32.7,47.2,33z"/>
		<path class="st1" d="M53.9,25.3l0.5-0.4l1.4,1.7c-0.3,0.1-0.5,0.3-0.7,0.5c-0.5,0.4-0.8,0.9-0.8,1.6c0,0.6,0.2,1.3,0.8,2.1
			l2.3,2.9L55.6,35l-5.3-6.6l1.4-1.1l1,0.7l0.1-0.1C52.7,26.8,53.1,26,53.9,25.3z"/>
		<path class="st1" d="M40.3,56.7l1.6-1.3l3.8,7.8l-2,1.6l-4.6-3.5L39,61.6l2.5,5.2l-2,1.6l-6.9-5.3l1.5-1.3l4.9,3.9l0.1-0.1
			l-2.4-5.2l1.8-1.5l4.6,3.4l0.1-0.1L40.3,56.7z"/>
		<path class="st1" d="M50.8,55.6l1.6-1.3c0.4,0.8,0.5,1.6,0.3,2.5c-0.2,0.8-0.7,1.6-1.5,2.2c-1,0.8-2,1.2-3.2,1
			c-1.1-0.1-2.1-0.7-2.9-1.7c-0.8-1-1.2-2.1-1.1-3.2c0.1-1.1,0.6-2.1,1.5-2.8c0.4-0.4,0.9-0.6,1.4-0.8c0.5-0.2,1-0.2,1.6-0.2
			c0.5,0,1.1,0.3,1.7,0.7s1.1,0.9,1.6,1.7l-4.7,3.8c1,0.9,2,1,3,0.2c0.3-0.3,0.5-0.6,0.7-0.9C50.9,56.3,50.9,56,50.8,55.6z
			 M46.7,53.5c-0.4,0.3-0.6,0.7-0.7,1.2c-0.1,0.5,0,0.9,0.2,1.4l3.1-2.5c-0.3-0.3-0.7-0.5-1.2-0.6C47.5,53,47.1,53.2,46.7,53.5z"/>
		<path class="st1" d="M57.9,49.8l1.6-1.3c0.4,0.8,0.5,1.6,0.3,2.5c-0.2,0.8-0.7,1.6-1.5,2.2c-1,0.8-2,1.2-3.2,1
			C54,54,53,53.5,52.2,52.4c-0.8-1-1.2-2.1-1.1-3.2c0.1-1.1,0.6-2.1,1.5-2.8c0.4-0.4,0.9-0.6,1.4-0.8c0.5-0.2,1-0.2,1.6-0.2
			c0.5,0,1.1,0.3,1.7,0.7s1.1,0.9,1.6,1.7l-4.7,3.8c1,0.9,2,1,3,0.2c0.3-0.3,0.5-0.6,0.7-0.9S58,50.1,57.9,49.8z M53.8,47.7
			c-0.4,0.3-0.6,0.7-0.7,1.2c-0.1,0.5,0,0.9,0.2,1.4l3.1-2.5c-0.3-0.3-0.7-0.5-1.2-0.6C54.6,47.2,54.2,47.4,53.8,47.7z"/>
		<path class="st1" d="M60.5,40l0.5-0.4l1.4,1.7c-0.3,0.1-0.5,0.3-0.7,0.5c-0.5,0.4-0.8,0.9-0.8,1.6c0,0.6,0.2,1.3,0.8,2.1l2.3,2.9
			l-1.7,1.4l-5.3-6.6l1.4-1.1l1,0.7l0.1-0.1C59.3,41.6,59.6,40.7,60.5,40z"/>
		<path class="st1" d="M68.3,44.8c-0.3,0.2-0.6,0.3-1,0.3c-0.4,0-0.7-0.2-0.9-0.5c-0.2-0.3-0.3-0.6-0.3-1c0-0.4,0.2-0.7,0.5-0.9
			c0.3-0.2,0.6-0.3,0.9-0.3c0.4,0,0.6,0.2,0.9,0.5c0.2,0.3,0.3,0.6,0.3,0.9C68.7,44.3,68.6,44.6,68.3,44.8z M59.9,36.3l1.7-1.4
			l5,6.7l-1.2,0.9L59.9,36.3z"/>
	</g>
</g>
</svg>
