<?xml version="1.0" encoding="utf-8"?>
<!-- Generator: Adobe Illustrator 23.0.2, SVG Export Plug-In . SVG Version: 6.00 Build 0)  -->
<svg version="1.1" id="Layer_1" xmlns="http://www.w3.org/2000/svg" xmlns:xlink="http://www.w3.org/1999/xlink" x="0px" y="0px"
	 width="120px" height="27px" viewBox="0 0 120 27" style="enable-background:new 0 0 120 27;" xml:space="preserve">
<style type="text/css">
	.st0{fill:#1F6D81;}
</style>
<g>
	<path class="st0" d="M34.8,18.2c-2.1,0-3.4-1-3.4-2.9l0.1-0.1h0.5l0.1,0.1c0,1.4,0.9,2.2,2.7,2.2c1.6,0,2.3-0.8,2.3-1.8
		c0-1.2-0.8-1.6-2.7-2.1c-2-0.5-2.9-1.2-2.9-2.6c0-0.9,0.5-2.2,3-2.2c1.7,0,3.1,0.7,3.1,2.6l-0.1,0.1h-0.5L37,11.4
		c0-1.3-0.8-2-2.3-2c-1.8,0-2.2,0.8-2.2,1.6c0,1.2,0.8,1.6,2.7,2.1c2,0.5,2.9,1,2.9,2.6C38,16.9,37.4,18.2,34.8,18.2z"/>
	<path class="st0" d="M42.5,18h-0.9c-0.9,0-1.6-0.5-1.6-1.4v-4.3l-0.1-0.1h-1L38.7,12v-0.4l0.1-0.1h1l0.1-0.1v-1.2l0.1-0.1h0.5
		l0.1,0.1v1.2l0.1,0.1h1.6l0.1,0.1V12l-0.1,0.1h-1.6l-0.1,0.1v4.3c0,0.5,0.3,0.8,0.8,0.8h0.9l0.1,0.1v0.4L42.5,18z"/>
	<path class="st0" d="M43.9,11.5h0.5l0.1,0.1v4c0,1.3,0.6,1.8,1.6,1.8c1.4,0,2.1-0.9,2.1-2.3v-3.5l0.1-0.1h0.5l0.1,0.1v6.2L48.8,18
		h-0.4l-0.1-0.1l-0.1-0.8H48c-0.4,0.7-1.2,1-2.1,1c-1.3,0-2.2-0.8-2.2-2.5v-4L43.9,11.5z"/>
	<path class="st0" d="M54.9,12.4h0.1V9.1l0.1-0.1h0.5l0.1,0.1v8.8L55.7,18h-0.4l-0.1-0.1l-0.1-0.8h-0.1c-0.3,0.5-0.9,1-2.1,1
		c-1.8,0-2.7-1.4-2.7-3.4s0.9-3.4,2.7-3.4C54,11.4,54.7,11.9,54.9,12.4z M50.9,14.8c0,1.8,0.8,2.7,2.1,2.7c1.3,0,2.1-0.9,2.1-2.7
		S54.3,12,53,12C51.7,12,50.9,13,50.9,14.8z"/>
	<path class="st0" d="M58.1,10.5h-0.5l-0.1-0.1V9.6l0.1-0.1h0.5l0.1,0.1v0.8L58.1,10.5z M58.1,18h-0.5l-0.1-0.1v-6.2l0.1-0.1h0.5
		l0.1,0.1v6.2L58.1,18z"/>
	<path class="st0" d="M59.4,14.8c0-2.2,1.3-3.4,3-3.4c1.7,0,3,1.2,3,3.4s-1.3,3.4-3,3.4C60.6,18.2,59.4,17,59.4,14.8z M60.1,14.8
		c0,1.7,0.9,2.7,2.2,2.7c1.3,0,2.2-1,2.2-2.7S63.6,12,62.3,12C61,12,60.1,13.1,60.1,14.8z"/>
	<path class="st0" d="M74.4,15.6c0,1.3-0.6,2.6-2.6,2.6c-1.9,0-2.5-1.4-2.5-2.3v-0.1l0.1-0.1H70l0.1,0.1v0.1c0,0.9,0.5,1.7,1.7,1.7
		c1.2,0,1.8-0.6,1.8-1.9V9.1l0.1-0.1h0.5l0.1,0.1V15.6z"/>
	<path class="st0" d="M75.9,14.8c0-2.2,1.3-3.4,3-3.4c1.7,0,3,1.2,3,3.4s-1.3,3.4-3,3.4C77.2,18.2,75.9,17,75.9,14.8z M76.6,14.8
		c0,1.7,0.9,2.7,2.2,2.7c1.3,0,2.2-1,2.2-2.7S80.1,12,78.8,12C77.5,12,76.6,13.1,76.6,14.8z"/>
	<path class="st0" d="M88.7,14.8c0,2-0.9,3.4-2.7,3.4c-1.2,0-1.8-0.5-2.1-1h-0.1l-0.1,0.8L83.5,18h-0.4L83,17.9V9.1l0.1-0.1h0.5
		l0.1,0.1v3.4h0.1c0.3-0.5,0.9-1,2.1-1C87.8,11.4,88.7,12.8,88.7,14.8z M83.8,14.8c0,1.8,0.8,2.7,2.1,2.7s2.1-0.9,2.1-2.7
		S87.2,12,85.9,12S83.8,13,83.8,14.8z"/>
</g>
</svg>
