<?xml version="1.0" encoding="utf-8"?>
<!-- Generator: Adobe Illustrator 24.3.0, SVG Export Plug-In . SVG Version: 6.00 Build 0)  -->
<svg version="1.1" id="Laag_1" xmlns="http://www.w3.org/2000/svg" xmlns:xlink="http://www.w3.org/1999/xlink" x="0px" y="0px"
	 width="326.8px" height="48.3px" viewBox="0 0 326.8 48.3" style="enable-background:new 0 0 326.8 48.3;" xml:space="preserve">
<style type="text/css">
	.st0{fill:#D18A62;}
	.st1{fill:#FFFFFF;}
</style>
<polygon class="st0" points="0,48.3 324.9,40.5 326.8,4.8 0,0 "/>
<g>
	<path class="st1" d="M13.6,31.2l5.7-16.3h2.7l6,16.3h-1.7l-1.7-4.6h-6.6l-1.8,4.6H13.6z M18.7,25H24l-2.6-6.8L18.7,25z"/>
	<path class="st1" d="M29.9,17.2v-3.3h3.5v12.3c0,0.7,0.1,1.2,0.4,1.6s0.7,0.5,1.4,0.5c0.9,0,1.6-0.2,2-0.7l0.6,2.4
		c-0.6,0.9-1.6,1.4-3,1.4c-1,0-1.7-0.3-2.2-0.8c-0.5-0.6-0.7-1.5-0.7-2.7V17.2H29.9z"/>
	<path class="st1" d="M43.6,25.3c0-0.9,0.1-1.8,0.3-2.5c0.2-0.8,0.4-1.4,0.7-1.9c0.3-0.5,0.7-0.9,1.1-1.3c0.4-0.3,0.9-0.6,1.4-0.7
		c0.5-0.1,1-0.2,1.6-0.2c1.6,0,2.8,0.6,3.7,1.9c0.9,1.2,1.3,3.1,1.3,5.6h-8.7c0.1,0.9,0.5,1.5,1.2,1.9c0.6,0.4,1.5,0.7,2.5,0.7
		c0,0,0.1,0,0.1,0c0.9,0,1.6-0.1,2.1-0.3c0.5-0.2,1-0.5,1.3-0.9l1,0.7c-0.4,0.9-1,1.7-1.8,2.3s-1.7,0.9-2.8,0.9
		c-1.6,0-2.9-0.6-3.7-1.7C44,28.7,43.6,27.2,43.6,25.3z M44.9,24.6h7.2c0-0.7-0.3-1.4-1-1.9c-0.7-0.5-1.6-0.8-2.7-0.8
		c-0.9,0-1.6,0.2-2.3,0.7C45.5,23.1,45.1,23.8,44.9,24.6z"/>
	<path class="st1" d="M55.4,25.3c0-0.9,0.1-1.8,0.3-2.5c0.2-0.8,0.4-1.4,0.7-1.9c0.3-0.5,0.7-0.9,1.1-1.3c0.4-0.3,0.9-0.6,1.4-0.7
		c0.5-0.1,1-0.2,1.6-0.2c1.6,0,2.8,0.6,3.7,1.9c0.9,1.2,1.3,3.1,1.3,5.6h-8.7c0.1,0.9,0.5,1.5,1.2,1.9c0.6,0.4,1.5,0.7,2.5,0.7
		c0,0,0.1,0,0.1,0c0.9,0,1.6-0.1,2.1-0.3c0.5-0.2,1-0.5,1.3-0.9l1,0.7c-0.4,0.9-1,1.7-1.8,2.3c-0.8,0.6-1.7,0.9-2.8,0.9
		c-1.6,0-2.9-0.6-3.7-1.7C55.8,28.7,55.4,27.2,55.4,25.3z M56.7,24.6H64c0-0.7-0.3-1.4-1-1.9c-0.7-0.5-1.6-0.8-2.7-0.8
		c-0.9,0-1.6,0.2-2.3,0.7C57.3,23.1,56.9,23.8,56.7,24.6z"/>
	<path class="st1" d="M67.4,31.2V19h1.4v2c0.3-0.7,0.8-1.3,1.4-1.7c0.6-0.4,1.4-0.6,2.2-0.6c1,0,1.8,0.2,2.4,0.5
		c0.6,0.3,1.1,0.9,1.4,1.8s0.5,2,0.5,3.4v6.8h-1.4v-5.4c0-1.1-0.2-2-0.7-2.5c-0.5-0.5-1.2-0.8-2.3-0.8c-1.8,0-3,0.7-3.6,2.2v6.5
		H67.4z"/>
	<path class="st1" d="M79.4,29.2L80,27c0.8,1.1,2.1,1.6,3.8,1.6c0.9,0,1.7-0.1,2.1-0.4c0.5-0.3,0.7-0.6,0.7-1c0-0.6-0.9-1-2.7-1.2
		c-0.7-0.1-1.4-0.2-1.9-0.3c-0.5-0.1-0.9-0.4-1.3-0.7s-0.6-0.6-0.7-1.1c-0.2-0.4-0.2-1-0.2-1.6c0-2.4,1.4-3.6,4.1-3.6
		c1.9,0,3.2,0.7,4,2l-0.4,2.4c-0.7-0.9-1.8-1.3-3.4-1.3c-0.8,0-1.5,0.1-1.9,0.4c-0.5,0.3-0.7,0.6-0.7,1c0,0.3,0.2,0.5,0.6,0.7
		c0.4,0.2,1.1,0.3,2,0.4c1.6,0.1,2.7,0.5,3.3,1.1c0.6,0.6,0.9,1.4,0.9,2.6c0,1.1-0.4,1.9-1.1,2.5c-0.7,0.6-1.8,0.8-3.2,0.8
		C81.8,31.4,80.3,30.7,79.4,29.2z"/>
	<path class="st1" d="M96,27.8c0-1.2,0.4-2.2,1.2-2.8c0.8-0.7,1.8-1,3.2-1c0.6,0,1.3,0.1,1.9,0.2c0.7,0.1,1.2,0.4,1.6,0.6
		c-0.1-1-0.3-1.8-0.8-2.2c-0.5-0.5-1.3-0.7-2.4-0.7c-1.7,0-2.9,0.4-3.6,1.3l-0.1-2.9c0.8-1,2.1-1.5,3.9-1.5c0.8,0,1.4,0.1,2,0.3
		c0.5,0.2,1,0.5,1.4,0.9c0.4,0.4,0.6,1,0.8,1.7c0.2,0.7,0.3,1.6,0.3,2.6v7h-0.9l-0.3-0.8c-0.8,0.7-2,1-3.6,1c-1.5,0-2.6-0.3-3.4-1
		C96.4,29.8,96,28.9,96,27.8z M97.6,27.4c0,0.5,0.3,0.9,0.9,1.2c0.6,0.3,1.3,0.5,2.1,0.5c1.5,0,2.6-0.3,3.3-1v-1.6
		c-0.9-0.7-2-1-3.2-1c-1,0-1.8,0.2-2.3,0.5C97.9,26.4,97.6,26.8,97.6,27.4z"/>
	<path class="st1" d="M107.8,27.8c0-1.2,0.4-2.2,1.2-2.8c0.8-0.7,1.8-1,3.2-1c0.6,0,1.3,0.1,1.9,0.2c0.7,0.1,1.2,0.4,1.6,0.6
		c-0.1-1-0.3-1.8-0.8-2.2c-0.5-0.5-1.3-0.7-2.4-0.7c-1.7,0-2.9,0.4-3.6,1.3l-0.1-2.9c0.8-1,2.1-1.5,3.9-1.5c0.8,0,1.4,0.1,2,0.3
		c0.5,0.2,1,0.5,1.4,0.9c0.4,0.4,0.6,1,0.8,1.7c0.2,0.7,0.3,1.6,0.3,2.6v7h-0.9l-0.3-0.8c-0.8,0.7-2,1-3.6,1c-1.5,0-2.6-0.3-3.4-1
		C108.2,29.8,107.8,28.9,107.8,27.8z M109.4,27.4c0,0.5,0.3,0.9,0.9,1.2c0.6,0.3,1.3,0.5,2.1,0.5c1.5,0,2.6-0.3,3.3-1v-1.6
		c-0.9-0.7-2-1-3.2-1c-1,0-1.8,0.2-2.3,0.5C109.7,26.4,109.4,26.8,109.4,27.4z"/>
	<path class="st1" d="M119.8,31.2V19h1.4v2c0.3-0.7,0.8-1.3,1.4-1.7c0.6-0.4,1.4-0.6,2.2-0.6c1,0,1.8,0.2,2.4,0.5
		c0.6,0.3,1.1,0.9,1.4,1.8s0.5,2,0.5,3.4v6.8h-1.4v-5.4c0-1.1-0.2-2-0.7-2.5c-0.5-0.5-1.2-0.8-2.3-0.8c-1.8,0-3,0.7-3.6,2.2v6.5
		H119.8z"/>
	<path class="st1" d="M136.7,25.2c0-1.1,0.1-2.1,0.4-2.9c0.3-0.8,0.6-1.5,1.1-2c0.4-0.5,1-0.9,1.5-1.1c0.6-0.2,1.2-0.4,1.9-0.4
		c2.3,0,3.8,1,4.6,3l-1,1.9c-0.4-0.5-0.8-0.8-1.3-1.1c-0.5-0.2-1.2-0.4-2.1-0.4c-1.1,0-2,0.3-2.6,0.8s-1,1.3-1,2.2c0,0,0,0,0,0.1
		c0,1,0.3,1.8,0.9,2.5c0.6,0.7,1.5,1,2.7,1c0.9,0,1.7-0.1,2.2-0.4c0.6-0.3,1-0.7,1.3-1.3l1.2,1.6c-0.4,0.9-1,1.6-1.8,2
		s-1.8,0.7-3,0.7c-1.5,0-2.6-0.5-3.5-1.6C137.1,28.8,136.7,27.2,136.7,25.2z"/>
	<path class="st1" d="M148.6,26.2V19h1.4v6c0,1.3,0.2,2.2,0.6,2.7c0.4,0.5,1.2,0.8,2.3,0.8c0.8,0,1.6-0.2,2.2-0.5
		c0.6-0.4,1.1-0.8,1.3-1.5V19h1.4v12.3h-1.4l-0.1-2c-0.3,0.7-0.8,1.2-1.5,1.6c-0.7,0.4-1.5,0.6-2.4,0.6c-0.6,0-1.2-0.1-1.7-0.3
		c-0.5-0.2-0.9-0.5-1.3-0.9c-0.4-0.4-0.6-0.9-0.8-1.6C148.7,28,148.6,27.1,148.6,26.2z"/>
	<path class="st1" d="M160.1,17.2v-3.3h3.5v12.3c0,0.7,0.1,1.2,0.4,1.6s0.7,0.5,1.4,0.5c0.9,0,1.6-0.2,2-0.7l0.6,2.4
		c-0.6,0.9-1.6,1.4-3,1.4c-1,0-1.7-0.3-2.2-0.8c-0.5-0.6-0.7-1.5-0.7-2.7V17.2H160.1z"/>
	<path class="st1" d="M168.6,22.7v-3.5h1.8v-2.9h1.4v2.9h3.3v3.5h-3.3v3.5c0,1.4,0.6,2.1,1.9,2.1c0,0,0,0,0.1,0
		c0.4,0,0.8-0.1,1.1-0.2c0.4-0.1,0.6-0.3,0.8-0.5l0.6,2.3c-0.2,0.5-0.6,0.8-1.1,1.1c-0.6,0.3-1.2,0.4-1.8,0.4c-2,0-3-1.2-3-3.6v-5.2
		H168.6z"/>
	<path class="st1" d="M178.5,26.2V19h1.4v6c0,1.3,0.2,2.2,0.6,2.7c0.4,0.5,1.2,0.8,2.3,0.8c0.8,0,1.6-0.2,2.2-0.5
		c0.6-0.4,1.1-0.8,1.3-1.5V19h1.4v12.3h-1.4l-0.1-2c-0.3,0.7-0.8,1.2-1.5,1.6c-0.7,0.4-1.5,0.6-2.4,0.6c-0.6,0-1.2-0.1-1.7-0.3
		c-0.5-0.2-0.9-0.5-1.3-0.9c-0.4-0.4-0.6-0.9-0.8-1.6C178.6,28,178.5,27.1,178.5,26.2z"/>
	<path class="st1" d="M190.3,26.2V19h1.4v6c0,1.3,0.2,2.2,0.6,2.7c0.4,0.5,1.2,0.8,2.3,0.8c0.8,0,1.6-0.2,2.2-0.5
		c0.6-0.4,1.1-0.8,1.3-1.5V19h1.4v12.3h-1.4l-0.1-2c-0.3,0.7-0.8,1.2-1.5,1.6c-0.7,0.4-1.5,0.6-2.4,0.6c-0.6,0-1.2-0.1-1.7-0.3
		c-0.5-0.2-0.9-0.5-1.3-0.9c-0.4-0.4-0.6-0.9-0.8-1.6C190.4,28,190.3,27.1,190.3,26.2z"/>
	<path class="st1" d="M202.4,22.8V19h1.9l0.8,1.7c0.2-0.6,0.6-1.1,1.1-1.4c0.5-0.3,1-0.5,1.5-0.5s0.9,0.1,1.2,0.2
		c0.3,0.1,0.6,0.3,1,0.6l-0.8,3.7c-0.1-0.3-0.3-0.5-0.6-0.6c-0.3-0.1-0.7-0.2-1.2-0.2c-0.6,0-1,0.2-1.4,0.6c-0.4,0.4-0.5,1-0.5,1.8
		v6.4h-1.4v-8.5H202.4z"/>
	<path class="st1" d="M216.7,33.9l0.6-1.9c0.4,0.6,1,1,1.9,1.3c0.9,0.3,1.9,0.5,3,0.5c1.1,0,2-0.1,2.5-0.4c0.5-0.3,0.8-0.6,0.8-1
		c0-0.3-0.1-0.5-0.4-0.7c-0.3-0.2-0.6-0.3-1.1-0.3c-0.4,0-1.1,0.1-2,0.2c-0.9,0.1-1.6,0.2-2.1,0.2c-0.8,0-1.5-0.3-1.9-0.8
		c-0.5-0.5-0.7-1.1-0.7-1.8c0,0,0-0.1,0-0.1c0-0.4,0.1-0.7,0.2-1.1c0.2-0.4,0.4-0.7,0.7-0.9c-0.6-0.7-0.9-1.6-0.9-2.9
		c0-1,0.1-1.8,0.3-2.5c0.2-0.7,0.5-1.2,0.9-1.6c0.4-0.4,0.9-0.7,1.4-0.9c0.5-0.2,1.2-0.3,1.9-0.3c1.7,0,3,0.5,3.7,1.5
		c0.4-0.9,1.3-1.3,2.6-1.3c0.2,0,0.5,0,0.7,0l-0.8,2.9c-0.1,0-0.2,0-0.3-0.1c-0.1,0-0.4,0-0.7,0c-0.3,0-0.6,0.1-0.8,0.2
		c0.2,0.6,0.2,1.3,0.2,2.1c0,0.7-0.1,1.2-0.3,1.8c-0.2,0.5-0.5,0.9-0.8,1.2c-0.3,0.3-0.7,0.6-1.1,0.7c-0.4,0.2-0.8,0.3-1.2,0.4
		c-0.4,0.1-0.8,0.1-1.3,0.1c-0.9,0-1.7-0.1-2.3-0.3c-0.5,0.3-0.7,0.6-0.7,1c0,0.4,0.1,0.7,0.3,0.9c0.2,0.2,0.5,0.3,0.8,0.3
		c0.5,0,1.2-0.1,2.1-0.3c0.9-0.2,1.7-0.3,2.2-0.3c0,0,0,0,0,0c1,0,1.8,0.3,2.3,0.8c0.5,0.5,0.8,1.3,0.8,2.3c0,0.4-0.1,0.8-0.2,1.2
		c-0.1,0.4-0.3,0.8-0.6,1.1c-0.3,0.4-0.6,0.7-1,0.9c-0.4,0.3-0.9,0.5-1.5,0.6c-0.6,0.2-1.3,0.2-2,0.2c-1.2,0-2.3-0.3-3.3-0.8
		C217.6,35.3,217,34.7,216.7,33.9z M218.6,24.1c0,0.6,0.3,1.1,0.8,1.5c0.5,0.4,1.3,0.6,2.3,0.6c1,0,1.8-0.2,2.4-0.7
		c0.6-0.4,0.9-0.9,0.9-1.5c0-0.7-0.3-1.2-0.8-1.5s-1.3-0.5-2.4-0.5C219.7,22,218.7,22.7,218.6,24.1z"/>
	<path class="st1" d="M229.6,25.3c0-0.9,0.1-1.8,0.3-2.5c0.2-0.8,0.4-1.4,0.7-1.9c0.3-0.5,0.7-0.9,1.1-1.3c0.4-0.3,0.9-0.6,1.4-0.7
		c0.5-0.1,1-0.2,1.6-0.2c1.6,0,2.8,0.6,3.7,1.9c0.9,1.2,1.3,3.1,1.3,5.6h-8.7c0.1,0.9,0.5,1.5,1.2,1.9c0.6,0.4,1.5,0.7,2.5,0.7
		c0,0,0.1,0,0.1,0c0.9,0,1.6-0.1,2.1-0.3c0.5-0.2,1-0.5,1.3-0.9l1,0.7c-0.4,0.9-1,1.7-1.8,2.3s-1.7,0.9-2.8,0.9
		c-1.6,0-2.9-0.6-3.7-1.7C230,28.7,229.6,27.2,229.6,25.3z M230.9,24.6h7.2c0-0.7-0.3-1.4-1-1.9c-0.7-0.5-1.6-0.8-2.7-0.8
		c-0.9,0-1.6,0.2-2.3,0.7C231.5,23.1,231.1,23.8,230.9,24.6z"/>
	<path class="st1" d="M241.2,25.3c0-2.3,0.4-4,1.2-5c0.8-1,1.9-1.5,3.4-1.5c0,0,0,0,0.1,0c1.8,0,3,0.8,3.7,2.2v-7.1h1.4v17.4h-1.4
		l-0.1-1.9c-0.4,0.6-0.9,1.2-1.5,1.5c-0.6,0.4-1.4,0.6-2.1,0.6c-1.5,0-2.7-0.5-3.5-1.6C241.6,28.7,241.2,27.2,241.2,25.3z
		 M242.5,25.3C242.5,25.3,242.5,25.3,242.5,25.3c0,1.1,0.3,2,0.9,2.6c0.6,0.6,1.5,1,2.6,1c0.9,0,1.6-0.1,2.2-0.3
		c0.6-0.2,1-0.5,1.4-1.1v-2.2c0-0.9-0.3-1.6-0.9-2.2c-0.6-0.5-1.5-0.8-2.7-0.8c-1.1,0-1.9,0.3-2.5,0.8
		C242.8,23.7,242.5,24.4,242.5,25.3z"/>
	<path class="st1" d="M253.2,27.8c0-1.2,0.4-2.2,1.2-2.8c0.8-0.7,1.8-1,3.2-1c0.6,0,1.3,0.1,1.9,0.2c0.7,0.1,1.2,0.4,1.6,0.6
		c-0.1-1-0.3-1.8-0.8-2.2c-0.5-0.5-1.3-0.7-2.4-0.7c-1.7,0-2.9,0.4-3.6,1.3l-0.1-2.9c0.8-1,2.1-1.5,3.9-1.5c0.8,0,1.4,0.1,2,0.3
		c0.5,0.2,1,0.5,1.4,0.9c0.4,0.4,0.6,1,0.8,1.7c0.2,0.7,0.3,1.6,0.3,2.6v7h-0.9l-0.3-0.8c-0.8,0.7-2,1-3.6,1c-1.5,0-2.6-0.3-3.4-1
		C253.6,29.8,253.2,28.9,253.2,27.8z M254.8,27.4c0,0.5,0.3,0.9,0.9,1.2c0.6,0.3,1.3,0.5,2.1,0.5c1.5,0,2.6-0.3,3.3-1v-1.6
		c-0.9-0.7-2-1-3.2-1c-1,0-1.8,0.2-2.3,0.5C255.1,26.4,254.8,26.8,254.8,27.4z"/>
	<path class="st1" d="M265.1,25.2c0-1.1,0.1-2.1,0.4-2.9c0.3-0.8,0.6-1.5,1.1-2c0.4-0.5,1-0.9,1.5-1.1c0.6-0.2,1.2-0.4,1.9-0.4
		c2.3,0,3.8,1,4.6,3l-1,1.9c-0.4-0.5-0.8-0.8-1.3-1.1c-0.5-0.2-1.2-0.4-2.1-0.4c-1.1,0-2,0.3-2.6,0.8c-0.6,0.5-1,1.3-1,2.2
		c0,0,0,0,0,0.1c0,1,0.3,1.8,0.9,2.5c0.6,0.7,1.5,1,2.7,1c0.9,0,1.7-0.1,2.2-0.4c0.6-0.3,1-0.7,1.3-1.3l1.2,1.6
		c-0.4,0.9-1,1.6-1.8,2s-1.8,0.7-3,0.7c-1.5,0-2.6-0.5-3.5-1.6C265.6,28.8,265.1,27.2,265.1,25.2z"/>
	<path class="st1" d="M277.1,31.2V13.8h1.4V21c0.3-0.7,0.8-1.3,1.5-1.7c0.7-0.4,1.5-0.6,2.4-0.6c0.9,0,1.7,0.2,2.2,0.5
		s1,0.9,1.3,1.8c0.3,0.8,0.4,2,0.4,3.4v6.8h-1.4v-5.4c0-2.2-1-3.3-2.9-3.3c-1.8,0-3,0.7-3.5,2.2v6.4H277.1z"/>
	<path class="st1" d="M288.6,22.7v-3.5h1.8v-2.9h1.4v2.9h3.3v3.5h-3.3v3.5c0,1.4,0.6,2.1,1.9,2.1c0,0,0,0,0.1,0
		c0.4,0,0.8-0.1,1.1-0.2c0.4-0.1,0.6-0.3,0.8-0.5l0.6,2.3c-0.2,0.5-0.6,0.8-1.1,1.1c-0.6,0.3-1.2,0.4-1.8,0.4c-2,0-3-1.2-3-3.6v-5.2
		H288.6z"/>
	<path class="st1" d="M298.2,18.6c0.6-2.5,2.3-3.8,5.1-3.8c1.5,0,2.7,0.4,3.6,1.3c0.9,0.9,1.3,2.1,1.3,3.7c0,2.7-1.3,4.3-3.8,4.6
		c-0.3,0-0.6,0.1-0.8,0.1c-0.2,0.1-0.5,0.1-0.7,0.2c-0.2,0.1-0.4,0.2-0.6,0.4c-0.1,0.2-0.2,0.4-0.2,0.6c0,0.4,0.2,0.9,0.5,1.6
		l-1.1,0.2c-0.7-0.8-1-1.6-1-2.3c0-1.2,0.3-2,0.9-2.6c0.6-0.6,1.5-0.9,2.7-1.1c1-0.1,1.7-0.3,2.1-0.6c0.4-0.3,0.6-0.6,0.6-1.1
		c0-1.1-1.2-1.7-3.6-1.7c-1.9,0-3.1,0.5-3.7,1.6L298.2,18.6z M301.1,30.2c0-1.1,0.5-1.6,1.6-1.6c1,0,1.5,0.5,1.5,1.6
		c0,0.4-0.1,0.7-0.4,0.9c-0.3,0.2-0.6,0.3-1.1,0.3C301.6,31.4,301.1,31,301.1,30.2z"/>
</g>
</svg>
