<?xml version="1.0" encoding="utf-8"?>
<!-- Generator: Adobe Illustrator 24.3.0, SVG Export Plug-In . SVG Version: 6.00 Build 0)  -->
<svg version="1.1" id="Laag_1" xmlns="http://www.w3.org/2000/svg" xmlns:xlink="http://www.w3.org/1999/xlink" x="0px" y="0px"
	 width="93.9px" height="26.7px" viewBox="0 0 93.9 26.7" style="enable-background:new 0 0 93.9 26.7;" xml:space="preserve">
<style type="text/css">
	.st0{fill:#FFFFFF;}
</style>
<g>
	<path class="st0" d="M9.5,7.8h1.8v3.6l3.3-3.6h2.3l-3.5,3.6l3.7,5.1h-2.3l-2.7-3.8l-0.9,0.9v2.9H9.5V7.8z"/>
	<path class="st0" d="M23.3,15.6c-0.5,0.7-1.4,1-2.5,1s-1.9-0.3-2.5-1s-0.8-1.5-0.8-2.4c0-0.9,0.3-1.7,0.8-2.4c0.5-0.7,1.4-1,2.5-1
		s1.9,0.3,2.5,1c0.5,0.7,0.8,1.5,0.8,2.4C24.1,14.2,23.8,15,23.3,15.6z M21.9,14.7c0.3-0.3,0.4-0.8,0.4-1.5s-0.1-1.1-0.4-1.5
		c-0.3-0.3-0.6-0.5-1.1-0.5s-0.9,0.2-1.1,0.5c-0.3,0.3-0.4,0.8-0.4,1.5s0.1,1.1,0.4,1.5s0.6,0.5,1.1,0.5S21.7,15.1,21.9,14.7z"/>
	<path class="st0" d="M30.6,15.6c-0.5,0.7-1.4,1-2.5,1s-1.9-0.3-2.5-1s-0.8-1.5-0.8-2.4c0-0.9,0.3-1.7,0.8-2.4c0.5-0.7,1.4-1,2.5-1
		s1.9,0.3,2.5,1c0.5,0.7,0.8,1.5,0.8,2.4C31.4,14.2,31.2,15,30.6,15.6z M29.3,14.7c0.3-0.3,0.4-0.8,0.4-1.5s-0.1-1.1-0.4-1.5
		c-0.3-0.3-0.6-0.5-1.1-0.5s-0.9,0.2-1.1,0.5c-0.3,0.3-0.4,0.8-0.4,1.5s0.1,1.1,0.4,1.5s0.6,0.5,1.1,0.5S29,15.1,29.3,14.7z"/>
	<path class="st0" d="M38,10.7c0.5,0.6,0.8,1.4,0.8,2.4c0,1.1-0.3,2-0.8,2.6s-1.2,0.9-2,0.9c-0.5,0-0.9-0.1-1.3-0.4
		c-0.2-0.1-0.4-0.3-0.5-0.6v3.3h-1.7V10h1.6V11c0.2-0.3,0.4-0.5,0.6-0.7c0.4-0.3,0.8-0.4,1.3-0.4C36.8,9.9,37.5,10.2,38,10.7z
		 M36.7,11.9c-0.2-0.4-0.6-0.6-1.1-0.6c-0.6,0-1,0.3-1.3,0.9c-0.1,0.3-0.2,0.7-0.2,1.2c0,0.7,0.2,1.3,0.6,1.6
		c0.2,0.2,0.5,0.3,0.8,0.3c0.5,0,0.8-0.2,1.1-0.5s0.4-0.8,0.4-1.4C37,12.7,36.9,12.3,36.7,11.9z"/>
	<path class="st0" d="M43.3,7.8h1.6v4.7l2.1-2.4h2.1l-2.3,2.4l2.4,4h-2l-1.5-2.7l-0.7,0.7v2h-1.6V7.8z"/>
	<path class="st0" d="M52.5,12.5c0.3,0,0.5-0.1,0.7-0.1c0.2-0.1,0.4-0.3,0.4-0.5c0-0.3-0.1-0.4-0.3-0.5s-0.5-0.1-0.8-0.1
		c-0.4,0-0.7,0.1-0.8,0.3c-0.1,0.1-0.2,0.3-0.2,0.6h-1.6c0-0.6,0.2-1,0.5-1.4c0.4-0.6,1.2-0.8,2.3-0.8c0.7,0,1.3,0.1,1.9,0.4
		s0.8,0.8,0.8,1.6v2.9c0,0.2,0,0.4,0,0.7c0,0.2,0,0.4,0.1,0.4s0.1,0.1,0.2,0.2v0.2h-1.8c-0.1-0.1-0.1-0.2-0.1-0.4s0-0.2,0-0.4
		c-0.2,0.2-0.5,0.5-0.8,0.6c-0.4,0.2-0.8,0.3-1.2,0.3c-0.6,0-1.1-0.2-1.4-0.5c-0.4-0.3-0.6-0.8-0.6-1.4c0-0.8,0.3-1.4,0.9-1.7
		c0.3-0.2,0.8-0.3,1.5-0.4L52.5,12.5z M53.5,13.3c-0.1,0.1-0.2,0.1-0.3,0.2s-0.3,0.1-0.4,0.1l-0.4,0.1c-0.4,0.1-0.6,0.1-0.8,0.2
		c-0.3,0.2-0.4,0.4-0.4,0.7c0,0.3,0.1,0.5,0.2,0.6c0.2,0.1,0.4,0.2,0.6,0.2c0.4,0,0.7-0.1,1-0.3s0.5-0.6,0.5-1.2V13.3z"/>
	<path class="st0" d="M59.2,12.5c0.3,0,0.5-0.1,0.7-0.1c0.2-0.1,0.4-0.3,0.4-0.5c0-0.3-0.1-0.4-0.3-0.5s-0.5-0.1-0.8-0.1
		c-0.4,0-0.7,0.1-0.8,0.3c-0.1,0.1-0.2,0.3-0.2,0.6h-1.6c0-0.6,0.2-1,0.5-1.4c0.4-0.6,1.2-0.8,2.3-0.8c0.7,0,1.3,0.1,1.9,0.4
		s0.8,0.8,0.8,1.6v2.9c0,0.2,0,0.4,0,0.7c0,0.2,0,0.4,0.1,0.4s0.1,0.1,0.2,0.2v0.2h-1.8c-0.1-0.1-0.1-0.2-0.1-0.4s0-0.2,0-0.4
		c-0.2,0.2-0.5,0.5-0.8,0.6c-0.4,0.2-0.8,0.3-1.2,0.3c-0.6,0-1.1-0.2-1.4-0.5c-0.4-0.3-0.6-0.8-0.6-1.4c0-0.8,0.3-1.4,0.9-1.7
		c0.3-0.2,0.8-0.3,1.5-0.4L59.2,12.5z M60.2,13.3c-0.1,0.1-0.2,0.1-0.3,0.2s-0.3,0.1-0.4,0.1L59,13.7c-0.4,0.1-0.6,0.1-0.8,0.2
		c-0.3,0.2-0.4,0.4-0.4,0.7c0,0.3,0.1,0.5,0.2,0.6c0.2,0.1,0.4,0.2,0.6,0.2c0.4,0,0.7-0.1,1-0.3s0.5-0.6,0.5-1.2V13.3z"/>
	<path class="st0" d="M66.8,9.9c0,0,0.1,0,0.1,0v1.7c-0.1,0-0.2,0-0.3,0s-0.1,0-0.2,0c-0.7,0-1.1,0.2-1.4,0.7
		C65,12.5,65,12.8,65,13.4v3.1h-1.7V10h1.6v1.1c0.3-0.4,0.5-0.7,0.7-0.9C65.9,10,66.3,9.9,66.8,9.9C66.8,9.9,66.8,9.9,66.8,9.9z"/>
	<path class="st0" d="M67.3,11.3v-1.2h0.9V8.3h1.7v1.8h1v1.2h-1v3.4c0,0.3,0,0.4,0.1,0.5s0.3,0.1,0.6,0.1c0.1,0,0.1,0,0.2,0
		s0.1,0,0.2,0v1.2l-0.8,0c-0.8,0-1.3-0.1-1.6-0.4c-0.2-0.2-0.3-0.5-0.3-0.9v-3.9H67.3z"/>
	<path class="st0" d="M76.1,10.2c0.4,0.2,0.8,0.5,1.1,0.9c0.3,0.4,0.4,0.8,0.5,1.3c0,0.3,0.1,0.7,0.1,1.3h-4.7
		c0,0.6,0.2,1.1,0.7,1.3c0.3,0.2,0.6,0.2,0.9,0.2c0.4,0,0.7-0.1,0.9-0.3c0.1-0.1,0.2-0.3,0.3-0.4h1.7c0,0.4-0.3,0.8-0.6,1.2
		c-0.6,0.6-1.4,0.9-2.4,0.9c-0.9,0-1.6-0.3-2.2-0.8s-1-1.4-1-2.6c0-1.1,0.3-2,0.9-2.5s1.3-0.9,2.3-0.9C75.2,9.9,75.7,10,76.1,10.2z
		 M73.6,11.6c-0.2,0.2-0.4,0.6-0.4,1h2.9c0-0.4-0.2-0.8-0.4-1s-0.6-0.3-1-0.3C74.2,11.2,73.9,11.4,73.6,11.6z"/>
	<path class="st0" d="M83.8,10.4c0.4,0.3,0.6,0.9,0.6,1.7v4.3h-1.7v-3.9c0-0.3,0-0.6-0.1-0.8c-0.2-0.3-0.5-0.5-0.9-0.5
		c-0.6,0-0.9,0.2-1.2,0.7c-0.1,0.3-0.2,0.6-0.2,1v3.5h-1.7V10h1.6V11c0.2-0.3,0.4-0.6,0.6-0.7c0.3-0.3,0.8-0.4,1.3-0.4
		C82.8,9.9,83.4,10,83.8,10.4z"/>
</g>
</svg>
