<?xml version="1.0" encoding="utf-8"?>
<!-- Generator: Adobe Illustrator 24.3.0, SVG Export Plug-In . SVG Version: 6.00 Build 0)  -->
<svg version="1.1" id="Laag_1" xmlns="http://www.w3.org/2000/svg" xmlns:xlink="http://www.w3.org/1999/xlink" x="0px" y="0px"
	 width="169.9px" height="55.2px" viewBox="0 0 169.9 55.2" style="enable-background:new 0 0 169.9 55.2;" xml:space="preserve">
<style type="text/css">
	.st0{fill:#97825B;}
</style>
<g>
	<path class="st0" d="M4.4,0.2c0.4,0,0.7,0,1.1,0.1s0.7,0.1,1.1,0.2c0.4,0.1,0.7,0.2,1.1,0.4c0.3,0.2,0.7,0.4,1,0.8
		c0.5,0.5,0.9,1,1.1,1.6C10,4,10.1,4.7,10.1,5.5c0,0.8-0.1,1.6-0.4,2.2C9.5,8.3,9.1,8.9,8.7,9.3C8.3,9.7,7.9,10,7.5,10.2
		c-0.4,0.2-0.8,0.4-1.2,0.5c-0.4,0.1-0.7,0.2-1.1,0.2s-0.6,0-0.8,0H1V0.2H4.4z M3.5,8.8h0.7c0.1,0,0.3,0,0.5,0c0.2,0,0.4,0,0.6-0.1
		c0.2,0,0.5-0.1,0.7-0.2c0.2-0.1,0.4-0.2,0.6-0.4c0.3-0.2,0.5-0.6,0.7-1s0.3-1,0.3-1.6c0-0.6-0.1-1.1-0.3-1.4
		C7.1,3.7,6.9,3.4,6.7,3.2C6.5,3,6.3,2.9,6.1,2.8S5.6,2.5,5.4,2.5C5.2,2.4,5,2.4,4.8,2.4c-0.2,0-0.4,0-0.6,0H3.5V8.8z"/>
	<path class="st0" d="M14.7,0.2v10.7h-2.5V0.2H14.7z"/>
	<path class="st0" d="M23.6,2.3h-1.5V0.2h4v10.7h-2.5V2.3z"/>
	<path class="st0" d="M36.9,0.3l-2.8,3.5c0.2-0.1,0.3-0.1,0.5-0.1c0.2,0,0.4,0,0.6,0c0.7,0,1.2,0.1,1.6,0.3c0.4,0.2,0.8,0.5,1,0.7
		C37.9,4.7,38,4.8,38.1,5c0.1,0.1,0.2,0.3,0.3,0.5c0.1,0.2,0.2,0.4,0.2,0.7c0.1,0.3,0.1,0.6,0.1,0.9c0,0.5-0.1,1-0.2,1.5
		c-0.2,0.5-0.4,1-0.8,1.3c-0.2,0.3-0.5,0.5-0.8,0.6s-0.6,0.3-0.9,0.4c-0.3,0.1-0.6,0.1-0.9,0.2c-0.3,0-0.5,0-0.8,0
		c-0.2,0-0.5,0-0.8,0S33.1,11,32.8,11c-0.3-0.1-0.6-0.2-0.9-0.4c-0.3-0.2-0.6-0.4-0.8-0.7c-0.4-0.4-0.6-0.8-0.7-1.2
		c-0.1-0.4-0.2-0.9-0.2-1.4c0-0.4,0-0.8,0.1-1.2c0.1-0.4,0.2-0.7,0.4-1c0.2-0.3,0.3-0.6,0.6-1c0.2-0.3,0.4-0.6,0.6-0.9L34.3,0
		L36.9,0.3z M34.4,9.1c0.3,0,0.6-0.1,0.8-0.2c0.2-0.1,0.4-0.2,0.5-0.3c0.1-0.1,0.3-0.3,0.4-0.6c0.1-0.2,0.2-0.5,0.2-0.9
		c0-0.3-0.1-0.6-0.2-0.8c-0.1-0.2-0.2-0.4-0.4-0.5c-0.2-0.2-0.4-0.3-0.6-0.4c-0.2-0.1-0.4-0.1-0.6-0.1c-0.2,0-0.5,0-0.7,0.1
		c-0.2,0.1-0.4,0.2-0.6,0.4C33,6,32.9,6.2,32.8,6.4c-0.1,0.2-0.2,0.5-0.2,0.9c0,0.2,0,0.5,0.1,0.7c0.1,0.2,0.2,0.4,0.4,0.6
		c0.1,0.1,0.3,0.3,0.6,0.4C33.9,9.1,34.2,9.1,34.4,9.1z"/>
	<path class="st0" d="M44.5,10.9V0.2h2.2l5.7,6.9V0.2h2.5v10.7h-2.2L47,4v6.9H44.5z"/>
	<path class="st0" d="M62.7,0c1.7,0,3.1,0.5,4.1,1.6C67.3,2,67.7,2.6,68,3.3s0.4,1.4,0.4,2.3c0,0.7-0.1,1.4-0.4,2.1S67.4,9,66.8,9.6
		c-0.5,0.5-1.1,0.9-1.8,1.1c-0.7,0.3-1.5,0.4-2.4,0.4c-0.5,0-1,0-1.4-0.1c-0.4-0.1-0.8-0.2-1.1-0.4c-0.3-0.1-0.6-0.3-0.9-0.5
		C59,10,58.7,9.8,58.5,9.6c-0.5-0.5-0.9-1.1-1.2-1.8c-0.3-0.7-0.4-1.4-0.4-2.2c0-0.4,0-0.8,0.1-1.1c0.1-0.4,0.2-0.7,0.3-1.1
		c0.1-0.4,0.3-0.7,0.5-1c0.2-0.3,0.4-0.6,0.7-0.8c0.2-0.2,0.4-0.4,0.7-0.6c0.3-0.2,0.6-0.4,0.9-0.5s0.7-0.3,1.2-0.4
		C61.7,0,62.2,0,62.7,0z M62.7,2.3c-0.5,0-0.9,0.1-1.3,0.2s-0.8,0.4-1,0.7c-0.2,0.2-0.5,0.5-0.7,0.9S59.4,5,59.4,5.6
		c0,1,0.3,1.8,1,2.4c0.3,0.3,0.7,0.6,1.1,0.7s0.8,0.2,1.2,0.2c0.5,0,1-0.1,1.4-0.3c0.4-0.2,0.7-0.4,1-0.6c0.2-0.2,0.4-0.5,0.6-0.9
		C65.9,6.7,66,6.2,66,5.6c0-0.6-0.1-1-0.3-1.4c-0.2-0.4-0.4-0.7-0.7-1c-0.3-0.3-0.6-0.5-1-0.6S63.2,2.3,62.7,2.3z"/>
	<path class="st0" d="M72,0.2l2.7,6.8l2.7-6.8h2.7l-4.5,10.7h-1.7L69.4,0.2H72z"/>
	<path class="st0" d="M87.5,2.3H84v2.1h3.4v2.1H84v2.4h3.5v2.1h-6V0.2h6V2.3z"/>
	<path class="st0" d="M89.2,10.9l1.7-10.7H93l2.6,6.4l2.6-6.4h2.1l1.7,10.7h-2.5l-0.8-6.4L96,10.9h-0.9l-2.6-6.4l-0.8,6.4H89.2z"/>
	<path class="st0" d="M107.3,0.2c0.1,0,0.3,0,0.5,0c0.2,0,0.5,0,0.7,0.1c0.3,0.1,0.5,0.1,0.8,0.2c0.2,0.1,0.5,0.3,0.7,0.5
		c0.2,0.2,0.3,0.3,0.4,0.5c0.1,0.2,0.2,0.4,0.2,0.6s0.1,0.4,0.1,0.5c0,0.2,0,0.3,0,0.4c0,0.2,0,0.4-0.1,0.7c0,0.2-0.1,0.5-0.3,0.7
		c-0.1,0.2-0.3,0.4-0.5,0.5c-0.2,0.1-0.3,0.2-0.4,0.3c0.3,0,0.5,0.1,0.8,0.2c0.3,0.1,0.5,0.3,0.7,0.5c0.2,0.2,0.3,0.4,0.5,0.7
		s0.2,0.7,0.2,1.2c0,0.5-0.1,1-0.3,1.3c-0.2,0.3-0.4,0.6-0.6,0.8c-0.2,0.2-0.5,0.4-0.7,0.5c-0.3,0.1-0.5,0.2-0.8,0.3
		c-0.3,0.1-0.5,0.1-0.7,0.1c-0.2,0-0.4,0-0.6,0h-4V0.2H107.3z M106.4,4.6h0.4c0.2,0,0.4,0,0.6-0.1c0.2,0,0.5-0.1,0.6-0.2
		c0.1-0.1,0.2-0.2,0.3-0.4c0.1-0.2,0.1-0.3,0.1-0.6s0-0.4-0.1-0.6c-0.1-0.1-0.2-0.3-0.3-0.3c-0.2-0.1-0.4-0.2-0.6-0.2
		c-0.2,0-0.4,0-0.7,0h-0.4V4.6z M106.4,9h0.6c0.3,0,0.6,0,1-0.1c0.3,0,0.6-0.2,0.8-0.4c0.2-0.2,0.3-0.5,0.3-0.9c0-0.2,0-0.4-0.1-0.5
		c-0.1-0.1-0.1-0.3-0.2-0.3c-0.1-0.1-0.2-0.2-0.4-0.2c-0.1-0.1-0.3-0.1-0.5-0.1c-0.2,0-0.3,0-0.5,0c-0.2,0-0.3,0-0.4,0h-0.7V9z"/>
	<path class="st0" d="M119.7,2.3h-3.5v2.1h3.4v2.1h-3.4v2.4h3.5v2.1h-6V0.2h6V2.3z"/>
	<path class="st0" d="M125.6,0.2c0.7,0,1.2,0.1,1.7,0.3c0.4,0.2,0.8,0.4,1,0.6c0.2,0.2,0.4,0.5,0.6,0.9c0.2,0.4,0.3,0.9,0.3,1.5
		c0,0.3-0.1,0.7-0.2,1.1c-0.1,0.4-0.3,0.7-0.7,1.1c-0.2,0.2-0.4,0.3-0.6,0.5c-0.3,0.1-0.5,0.3-0.8,0.3l3.3,4.4h-3l-2.9-4.2v4.2h-2.5
		V0.2H125.6z M124.4,5.1h0.6c0.2,0,0.5,0,0.7-0.1s0.5-0.2,0.7-0.4c0.1-0.1,0.2-0.2,0.3-0.4c0.1-0.2,0.1-0.4,0.1-0.7
		c0-0.3-0.1-0.5-0.2-0.7s-0.2-0.3-0.3-0.4c-0.2-0.1-0.4-0.2-0.7-0.3s-0.5-0.1-0.6-0.1h-0.6V5.1z"/>
	<path class="st0" d="M143,10.9h-8.2l3.2-3.5c0.1-0.2,0.3-0.3,0.5-0.5c0.2-0.2,0.3-0.4,0.5-0.6c0.2-0.2,0.3-0.4,0.5-0.6
		s0.3-0.3,0.3-0.5c0.1-0.1,0.1-0.2,0.2-0.3c0.1-0.1,0.1-0.3,0.2-0.4c0.1-0.2,0.1-0.3,0.2-0.5c0-0.2,0.1-0.4,0.1-0.5
		c0-0.2,0-0.4-0.1-0.6c-0.1-0.2-0.2-0.3-0.3-0.5c-0.2-0.2-0.5-0.3-1-0.3c-0.2,0-0.4,0-0.6,0.1c-0.2,0.1-0.3,0.2-0.4,0.3
		c-0.1,0.2-0.3,0.4-0.3,0.6s-0.1,0.5-0.1,0.7h-2.5c0-0.5,0.2-0.9,0.3-1.4c0.2-0.5,0.4-0.9,0.8-1.2c0.1-0.1,0.3-0.3,0.5-0.4
		s0.4-0.2,0.6-0.4c0.2-0.1,0.5-0.2,0.8-0.3c0.3-0.1,0.6-0.1,1-0.1c0.4,0,0.7,0,1,0.1c0.3,0.1,0.6,0.2,0.8,0.3
		c0.2,0.1,0.4,0.2,0.6,0.3c0.2,0.1,0.3,0.2,0.4,0.3c0.3,0.3,0.5,0.6,0.7,1.1S143,3,143,3.6c0,0.5-0.1,0.9-0.2,1.3s-0.3,0.7-0.6,1.1
		c-0.2,0.3-0.5,0.6-0.8,0.9s-0.6,0.6-0.9,0.9l-1.1,1.1h3.7V10.9z"/>
	<path class="st0" d="M153.4,5.6c0,0.9-0.1,1.8-0.4,2.5c-0.2,0.8-0.6,1.4-1.2,1.9c-0.3,0.3-0.7,0.6-1.2,0.8c-0.5,0.2-1,0.3-1.7,0.3
		c-0.6,0-1.2-0.1-1.7-0.3c-0.5-0.2-0.9-0.5-1.2-0.8c-0.5-0.5-0.9-1.2-1.2-1.9s-0.4-1.6-0.4-2.5c0-0.9,0.1-1.8,0.4-2.6
		s0.6-1.4,1.2-1.9c0.3-0.3,0.7-0.6,1.2-0.8c0.5-0.2,1-0.3,1.7-0.3c0.7,0,1.2,0.1,1.7,0.3c0.5,0.2,0.9,0.5,1.2,0.8
		c0.5,0.5,0.9,1.2,1.2,1.9C153.3,3.8,153.4,4.7,153.4,5.6z M149,2.1c-0.2,0-0.4,0-0.5,0.1s-0.3,0.2-0.4,0.3
		c-0.2,0.2-0.3,0.4-0.5,0.7c-0.1,0.3-0.2,0.6-0.3,0.8c-0.1,0.3-0.1,0.6-0.1,0.8c0,0.3,0,0.5,0,0.7c0,0.2,0,0.5,0,0.7
		c0,0.3,0.1,0.6,0.1,0.8c0.1,0.3,0.2,0.6,0.3,0.8c0.1,0.3,0.3,0.5,0.5,0.7c0.1,0.1,0.3,0.2,0.4,0.3c0.1,0.1,0.3,0.1,0.5,0.1
		c0.2,0,0.4,0,0.5-0.1c0.1-0.1,0.3-0.2,0.4-0.3c0.2-0.2,0.3-0.4,0.5-0.7c0.1-0.3,0.2-0.5,0.3-0.8c0.1-0.3,0.1-0.6,0.1-0.8
		s0-0.5,0-0.7c0-0.2,0-0.4,0-0.7c0-0.3-0.1-0.5-0.1-0.8c-0.1-0.3-0.2-0.6-0.3-0.8c-0.1-0.3-0.3-0.5-0.5-0.7
		c-0.1-0.1-0.3-0.2-0.4-0.3S149.2,2.1,149,2.1z"/>
	<path class="st0" d="M162.5,10.9h-8.2l3.2-3.5c0.1-0.2,0.3-0.3,0.5-0.5c0.2-0.2,0.3-0.4,0.5-0.6c0.2-0.2,0.3-0.4,0.5-0.6
		s0.3-0.3,0.3-0.5c0.1-0.1,0.1-0.2,0.2-0.3c0.1-0.1,0.1-0.3,0.2-0.4c0.1-0.2,0.1-0.3,0.2-0.5c0-0.2,0.1-0.4,0.1-0.5
		c0-0.2,0-0.4-0.1-0.6c-0.1-0.2-0.2-0.3-0.3-0.5c-0.2-0.2-0.5-0.3-1-0.3c-0.2,0-0.4,0-0.6,0.1c-0.2,0.1-0.3,0.2-0.4,0.3
		c-0.1,0.2-0.3,0.4-0.3,0.6s-0.1,0.5-0.1,0.7h-2.5c0-0.5,0.2-0.9,0.3-1.4c0.2-0.5,0.4-0.9,0.8-1.2c0.1-0.1,0.3-0.3,0.5-0.4
		s0.4-0.2,0.6-0.4c0.2-0.1,0.5-0.2,0.8-0.3c0.3-0.1,0.6-0.1,1-0.1c0.4,0,0.7,0,1,0.1c0.3,0.1,0.6,0.2,0.8,0.3
		c0.2,0.1,0.4,0.2,0.6,0.3c0.2,0.1,0.3,0.2,0.4,0.3c0.3,0.3,0.5,0.6,0.7,1.1s0.3,0.9,0.3,1.5c0,0.5-0.1,0.9-0.2,1.3
		s-0.3,0.7-0.6,1.1c-0.2,0.3-0.5,0.6-0.8,0.9s-0.6,0.6-0.9,0.9l-1.1,1.1h3.7V10.9z"/>
	<path class="st0" d="M167.4,2.3h-1.5V0.2h4v10.7h-2.5V2.3z"/>
	<path d="M5.9,18.2c0.2,0,0.4,0,0.7,0c0.3,0,0.6,0.1,1,0.1s0.7,0.2,1,0.3c0.3,0.2,0.7,0.4,1,0.6c0.2,0.2,0.4,0.5,0.6,0.7
		c0.1,0.3,0.2,0.5,0.3,0.8c0.1,0.3,0.1,0.5,0.1,0.7c0,0.2,0,0.4,0,0.6c0,0.3,0,0.6-0.1,0.9s-0.2,0.6-0.4,1c-0.2,0.3-0.4,0.5-0.6,0.7
		C9.4,24.9,9.2,25,9,25.1c0.4,0.1,0.7,0.2,1.1,0.3c0.4,0.2,0.7,0.4,0.9,0.6c0.2,0.2,0.5,0.6,0.7,1c0.2,0.4,0.3,1,0.3,1.6
		c0,0.7-0.1,1.4-0.4,1.8c-0.2,0.5-0.5,0.9-0.8,1.1c-0.3,0.3-0.6,0.5-1,0.7c-0.4,0.2-0.7,0.3-1.1,0.4c-0.4,0.1-0.7,0.1-1,0.2
		c-0.3,0-0.6,0-0.8,0H1.4V18.2H5.9z M4.8,24.2h0.5c0.2,0,0.5,0,0.8-0.1C6.5,24.1,6.8,24,7,23.8c0.2-0.1,0.3-0.3,0.4-0.5
		s0.2-0.5,0.2-0.8s-0.1-0.6-0.2-0.8c-0.1-0.2-0.3-0.3-0.4-0.5c-0.2-0.2-0.5-0.3-0.8-0.3c-0.3,0-0.6,0-0.9,0H4.8V24.2z M4.8,30.3h0.8
		c0.4,0,0.9,0,1.3-0.1c0.5-0.1,0.8-0.2,1.2-0.5c0.3-0.3,0.5-0.7,0.5-1.2c0-0.3,0-0.5-0.1-0.7s-0.2-0.3-0.3-0.5
		c-0.1-0.1-0.3-0.2-0.5-0.3c-0.2-0.1-0.4-0.1-0.6-0.2c-0.2,0-0.4,0-0.7-0.1c-0.2,0-0.4,0-0.6,0H4.8V30.3z"/>
	<path d="M19.9,18.2c0.9,0,1.7,0.1,2.3,0.4c0.6,0.3,1.1,0.6,1.4,0.9c0.3,0.3,0.6,0.7,0.9,1.2c0.3,0.5,0.4,1.2,0.4,2
		c0,0.5-0.1,1-0.2,1.5c-0.1,0.5-0.4,1-0.9,1.5c-0.2,0.2-0.5,0.5-0.9,0.7c-0.3,0.2-0.7,0.3-1.1,0.5l4.5,6h-4.1l-4-5.8v5.8h-3.4V18.2
		H19.9z M18.2,24.9h0.8c0.3,0,0.6,0,1-0.1c0.4-0.1,0.7-0.2,1-0.5c0.1-0.1,0.2-0.3,0.4-0.5s0.2-0.5,0.2-0.9c0-0.4-0.1-0.8-0.2-1
		c-0.2-0.2-0.3-0.4-0.4-0.5c-0.3-0.2-0.6-0.3-1-0.4c-0.4-0.1-0.7-0.1-0.9-0.1h-0.8V24.9z"/>
	<path d="M36.9,30.2h-5.5l-1.1,2.7h-3.5l5.9-14.7h3.1l5.8,14.7H38L36.9,30.2z M36,27.5l-1.8-4.9l-1.8,4.9H36z"/>
	<path d="M48,18.2c0.5,0,1,0,1.5,0.1c0.5,0.1,1,0.1,1.5,0.3c0.5,0.1,1,0.3,1.5,0.6c0.5,0.3,0.9,0.6,1.4,1.1c0.7,0.6,1.2,1.4,1.6,2.2
		c0.4,0.9,0.6,1.9,0.6,3c0,1.2-0.2,2.2-0.5,3c-0.4,0.8-0.8,1.6-1.5,2.2c-0.5,0.5-1,0.9-1.6,1.2c-0.5,0.3-1.1,0.5-1.6,0.7
		c-0.5,0.1-1,0.2-1.5,0.3c-0.5,0-0.8,0.1-1.1,0.1h-4.8V18.2H48z M46.8,30.1h0.9c0.2,0,0.4,0,0.7,0c0.3,0,0.5-0.1,0.9-0.1
		s0.6-0.2,0.9-0.3c0.3-0.1,0.6-0.3,0.9-0.5c0.4-0.3,0.7-0.8,1-1.4c0.3-0.6,0.4-1.3,0.4-2.1c0-0.8-0.1-1.4-0.4-2
		c-0.3-0.5-0.5-0.9-0.8-1.2c-0.3-0.3-0.6-0.5-0.9-0.7s-0.6-0.3-0.9-0.4c-0.3-0.1-0.6-0.1-0.9-0.2c-0.3,0-0.6,0-0.8,0h-0.9V30.1z"/>
	<path d="M63.4,32.9l2.4-14.7h2.9l3.6,8.8l3.6-8.8h2.9L81,32.9h-3.4l-1.2-8.8l-3.6,8.8h-1.2L68,24.2l-1.2,8.8H63.4z"/>
	<path d="M92,21.1h-4.9v2.8h4.6v2.9h-4.6v3.3H92v2.9h-8.3V18.2H92V21.1z"/>
	<path d="M98.4,23.8h5.8v-5.6h3.4v14.7h-3.4v-6.2h-5.8v6.2H95V18.2h3.4V23.8z"/>
	<path d="M114.5,18.2v11.8h4.5v2.9h-7.9V18.2H114.5z"/>
	<path d="M125.8,18.2c0.5,0,1,0,1.5,0.1c0.5,0.1,1,0.1,1.5,0.3c0.5,0.1,1,0.3,1.5,0.6s0.9,0.6,1.4,1.1c0.7,0.6,1.2,1.4,1.6,2.2
		c0.4,0.9,0.6,1.9,0.6,3c0,1.2-0.2,2.2-0.5,3c-0.4,0.8-0.8,1.6-1.5,2.2c-0.5,0.5-1,0.9-1.6,1.2c-0.5,0.3-1.1,0.5-1.6,0.7
		c-0.5,0.1-1,0.2-1.5,0.3c-0.5,0-0.8,0.1-1.1,0.1h-4.8V18.2H125.8z M124.6,30.1h0.9c0.2,0,0.4,0,0.7,0c0.3,0,0.6-0.1,0.9-0.1
		s0.6-0.2,0.9-0.3s0.6-0.3,0.9-0.5c0.4-0.3,0.7-0.8,1-1.4s0.4-1.3,0.4-2.1c0-0.8-0.1-1.4-0.4-2c-0.3-0.5-0.5-0.9-0.8-1.2
		c-0.3-0.3-0.6-0.5-0.9-0.7s-0.6-0.3-0.9-0.4c-0.3-0.1-0.6-0.1-0.9-0.2s-0.6,0-0.8,0h-0.9V30.1z"/>
	<path d="M145.1,30.2h-5.5l-1.1,2.7h-3.5l5.9-14.7h3.1l5.8,14.7h-3.5L145.1,30.2z M144.1,27.5l-1.8-4.9l-1.8,4.9H144.1z"/>
	<path d="M164,26.9c0,0.4,0,0.7-0.1,1.1c0,0.4-0.1,0.8-0.2,1.2c-0.1,0.4-0.3,0.8-0.5,1.2s-0.5,0.8-0.9,1.2c-0.4,0.4-0.7,0.7-1.1,0.9
		s-0.8,0.4-1.1,0.5c-0.4,0.1-0.8,0.2-1.2,0.2c-0.4,0-0.8,0.1-1.2,0.1c-0.4,0-0.8,0-1.2-0.1c-0.4,0-0.8-0.1-1.2-0.2s-0.8-0.3-1.1-0.5
		s-0.7-0.5-1.1-0.9c-0.4-0.4-0.7-0.8-0.9-1.2c-0.2-0.4-0.4-0.8-0.5-1.2c-0.1-0.4-0.2-0.8-0.2-1.2c0-0.4-0.1-0.8-0.1-1.1v-8.7h3.4
		v8.6c0,0.3,0,0.7,0.1,1.2s0.3,0.9,0.6,1.3c0.3,0.3,0.6,0.5,1,0.6s0.7,0.1,1,0.1c0.3,0,0.7,0,1-0.1s0.7-0.3,1-0.6
		c0.4-0.4,0.6-0.8,0.6-1.3s0.1-0.9,0.1-1.2v-8.6h3.4V26.9z"/>
	<path d="M6.6,43.1v11.8H3.2V43.1H0v-2.9h9.8v2.9H6.6z"/>
	<path d="M16.9,40.2c0.9,0,1.7,0.1,2.3,0.4c0.6,0.3,1.1,0.6,1.4,0.9c0.3,0.3,0.6,0.7,0.9,1.2c0.3,0.5,0.4,1.2,0.4,2
		c0,0.5-0.1,1-0.2,1.5c-0.1,0.5-0.4,1-0.9,1.5c-0.2,0.2-0.5,0.5-0.9,0.7c-0.3,0.2-0.7,0.3-1.1,0.5l4.5,6h-4.1l-4-5.8v5.8h-3.4V40.2
		H16.9z M15.2,46.9H16c0.3,0,0.6,0,1-0.1c0.4-0.1,0.7-0.2,1-0.5c0.1-0.1,0.2-0.3,0.4-0.5s0.2-0.5,0.2-0.9c0-0.4-0.1-0.8-0.2-1
		c-0.2-0.2-0.3-0.4-0.4-0.5c-0.3-0.2-0.6-0.3-1-0.4c-0.4-0.1-0.7-0.1-0.9-0.1h-0.8V46.9z"/>
	<path d="M28.8,40.2v14.7h-3.4V40.2H28.8z"/>
	<path d="M39.6,39.9c2.3,0,4.2,0.7,5.7,2.1c0.7,0.7,1.3,1.5,1.7,2.4c0.4,0.9,0.6,2,0.6,3.1c0,1-0.2,2-0.5,2.9
		c-0.4,1-0.9,1.8-1.7,2.6c-0.7,0.7-1.5,1.2-2.4,1.6s-2,0.6-3.3,0.6c-0.7,0-1.3-0.1-1.9-0.2c-0.6-0.1-1.1-0.3-1.6-0.5
		c-0.5-0.2-0.9-0.4-1.3-0.7s-0.7-0.5-1-0.8c-0.7-0.7-1.3-1.5-1.7-2.4c-0.4-0.9-0.6-2-0.6-3c0-0.5,0.1-1.1,0.2-1.6
		c0.1-0.5,0.3-1,0.5-1.5c0.2-0.5,0.4-0.9,0.7-1.4s0.6-0.8,0.9-1.1c0.2-0.2,0.6-0.5,0.9-0.8c0.4-0.3,0.8-0.5,1.2-0.7s1-0.4,1.6-0.5
		C38.2,40,38.9,39.9,39.6,39.9z M39.6,43c-0.7,0-1.3,0.1-1.8,0.3c-0.6,0.2-1,0.5-1.4,0.9c-0.3,0.3-0.6,0.7-0.9,1.3
		c-0.3,0.5-0.4,1.2-0.4,2c0,1.3,0.5,2.4,1.4,3.3c0.5,0.5,1,0.8,1.5,0.9c0.5,0.2,1.1,0.3,1.7,0.3c0.8,0,1.4-0.1,1.9-0.4
		s1-0.5,1.3-0.9c0.3-0.3,0.6-0.7,0.9-1.2c0.3-0.5,0.4-1.2,0.4-2.1c0-0.8-0.1-1.4-0.4-2s-0.6-1-0.9-1.3c-0.4-0.4-0.8-0.6-1.4-0.9
		C40.9,43.2,40.3,43,39.6,43z"/>
</g>
</svg>
