<?xml version="1.0" encoding="utf-8"?>
<!-- Generator: Adobe Illustrator 24.0.0, SVG Export Plug-In . SVG Version: 6.00 Build 0)  -->
<svg version="1.1" id="Laag_1" xmlns="http://www.w3.org/2000/svg" xmlns:xlink="http://www.w3.org/1999/xlink" x="0px" y="0px"
	 width="85.2px" height="12.1px" viewBox="0 0 85.2 12.1" style="enable-background:new 0 0 85.2 12.1;" xml:space="preserve">
<style type="text/css">
	.st0{fill:#FFFFFF;}
</style>
<g>
	<path class="st0" d="M3.4,6.1C3,6.1,2.6,6,2.6,6c0,2,0.1,2.3,0.3,2.7L3,8.9c0,0-0.4,0-1.3,0c-0.9,0-1.3,0-1.3,0l0.1-0.2
		C0.7,8.3,0.8,8.2,0.8,5c0-3.1,0-3.2-0.3-3.6L0.4,1.2c0,0,0.4,0,1,0c0.5,0,1.4,0,1.7,0c1.2,0,3.3,0.1,3.3,2.3
		C6.5,5.7,4.8,6.1,3.4,6.1z M3.1,2.2c-0.3,0-0.5,0-0.5,0v2.9c0,0,0.1,0,0.5,0c1.3,0,1.4-0.9,1.4-1.5C4.5,2.3,3.7,2.2,3.1,2.2z"/>
	<path class="st0" d="M12.1,8.5l0,0.4H8.2c-0.6,0-0.8,0-0.8,0l0.1-0.2C7.7,8.3,7.8,8.2,7.8,5c0-3.1,0-3.2-0.3-3.6L7.4,1.2
		c0,0,0.4,0,1.4,0c1,0,1.3,0,1.3,0L9.9,1.4C9.7,1.8,9.6,2,9.6,4.5v3.3h0.7c1.3,0,1.5-0.3,1.9-0.9C12.3,6.9,12.2,7.3,12.1,8.5z"/>
	<path class="st0" d="M18.6,8.8c-0.8,0-1.4,0-1.4,0c0.1-0.1,0.3-0.3,0.3-0.7c0-0.3-0.1-0.9-0.3-1.5l-0.1-0.4h-2.2l-0.1,0.4
		c-0.2,0.6-0.3,1.2-0.3,1.5c0,0.4,0.2,0.6,0.3,0.7c0,0-0.5,0-1.2,0c-0.7,0-1.2,0-1.2,0c0.4-0.4,0.6-1.1,1-2.5l1.3-4.5
		c0-0.1,0.1-0.3,0.1-0.4s-0.1-0.2-0.1-0.2h3.2c0,0-0.1,0.1-0.1,0.2c0,0.1,0,0.3,0.1,0.4L19,6.3c0.4,1.5,0.6,2.2,1,2.5
		C20,8.9,19.4,8.8,18.6,8.8z M16.2,2.6C16,2.1,16,1.8,16,1.8c0,0.1,0,0.3-0.2,0.8l-0.7,2.6h1.7L16.2,2.6z"/>
	<path class="st0" d="M27.5,1.4c-0.2,0.4-0.3,0.5-0.3,3.7v3.8c0,0-0.3,0-1,0c-0.7,0-1.3,0-1.3,0l-2.5-5.1c-0.2-0.4-0.3-0.8-0.3-0.8
		v2.2c0,3.1,0,3.2,0.3,3.6l0.1,0.2c0,0-0.3,0-1,0c-0.8,0-1.1,0-1.1,0l0.1-0.2c0.2-0.4,0.3-0.5,0.3-3.7c0-3.1,0-3.2-0.3-3.6l-0.1-0.2
		c0,0,0.4,0,1.4,0c0.8,0,1.2,0,1.2,0l2.5,5.1c0.2,0.4,0.3,0.8,0.3,0.8V5c0-3.1,0-3.2-0.3-3.6l-0.1-0.2c0,0,0.3,0,1,0
		c0.8,0,1.1,0,1.1,0L27.5,1.4z"/>
	<path class="st0" d="M33.7,1.4c-0.2,0.4-0.3,0.5-0.3,3.7V9c0,1.2-0.1,2.2-2.3,2.2h-0.5c0.8-0.4,0.9-1.1,0.9-2.6V5
		c0-3.1,0-3.2-0.3-3.6l-0.1-0.2c0,0,0.4,0,1.3,0c1,0,1.3,0,1.3,0L33.7,1.4z"/>
	<path class="st0" d="M39.9,8.5l0,0.4h-4.2c-0.6,0-0.8,0-0.8,0L35,8.7c0.2-0.4,0.3-0.5,0.3-3.7c0-3.1,0-3.2-0.3-3.6l-0.1-0.2
		c0,0,0.2,0,0.8,0h4.1c0,0,0,0.2,0,0.8c0,0.6,0,0.8,0,0.8c0,0-0.1-0.1-0.4-0.3c-0.3-0.2-0.7-0.2-1.2-0.2h-1.1v2.2H38
		c0.5,0,0.9-0.1,1.2-0.2C39.4,4.1,39.5,4,39.5,4c0,0,0,0.3,0,1c0,0.7,0,1,0,1c0,0-0.1-0.1-0.4-0.3c-0.3-0.2-0.7-0.2-1.2-0.2h-0.9
		v2.2h1c1.3,0,1.5-0.3,1.9-0.9C40,6.9,40,7.3,39.9,8.5z"/>
	<path class="st0" d="M48.2,8.7c-0.6,0.2-1.2,0.2-2.1,0.2c-0.4,0-1.2,0-1.6,0c-0.7,0-1.1,0-1.1,0l0.1-0.2c0.2-0.4,0.3-0.5,0.3-3.7
		c0-3.1,0-3.2-0.3-3.6l-0.1-0.2c0,0,0.4,0,0.9,0c0.4,0,1.1,0,1.5,0c1.8,0,3.4,0.1,3.4,1.8c0,1.4-1.1,1.8-1.8,1.8
		c1,0,2.1,0.5,2.1,1.9C49.6,7.9,48.9,8.5,48.2,8.7z M46.1,2.2c-0.3,0-0.4,0-0.4,0v2.3c0,0,0.1,0,0.5,0c0.2,0,0.5,0,0.7-0.1
		c0.4-0.1,0.7-0.5,0.7-1.1C47.4,2.4,46.9,2.2,46.1,2.2z M46.2,5.4c-0.3,0-0.5,0-0.5,0v2.4c0,0,0.1,0,0.6,0c0.4,0,0.6,0,0.8-0.1
		c0.3-0.1,0.6-0.4,0.6-1.1C47.7,5.7,47.1,5.4,46.2,5.4z"/>
	<path class="st0" d="M55.6,8.5l0,0.4h-4.2c-0.6,0-0.8,0-0.8,0l0.1-0.2c0.2-0.4,0.3-0.5,0.3-3.7c0-3.1,0-3.2-0.3-3.6l-0.1-0.2
		c0,0,0.2,0,0.8,0h4.1c0,0,0,0.2,0,0.8c0,0.6,0,0.8,0,0.8c0,0-0.1-0.1-0.4-0.3c-0.3-0.2-0.7-0.2-1.2-0.2h-1.1v2.2h0.9
		c0.5,0,0.9-0.1,1.2-0.2C55.1,4.1,55.2,4,55.2,4c0,0,0,0.3,0,1c0,0.7,0,1,0,1c0,0-0.1-0.1-0.4-0.3c-0.3-0.2-0.7-0.2-1.2-0.2h-0.9
		v2.2h1c1.3,0,1.5-0.3,1.9-0.9C55.7,6.9,55.6,7.3,55.6,8.5z"/>
	<path class="st0" d="M62.3,8.5l0,0.3h-5.8V7.7l3.7-5.3h-1.9c-0.5,0-0.9,0.1-1.2,0.3c-0.3,0.2-0.4,0.3-0.4,0.3c0,0,0-0.2,0-0.9
		c0-0.5,0-0.8,0-0.8h5.5v1.2l-3.7,5.4h2c1.3,0,1.5-0.3,1.9-0.9C62.4,6.8,62.3,7.7,62.3,8.5z"/>
	<path class="st0" d="M66.8,9c-2.4,0-3.6-1.4-3.6-3.8c0-2.1,1-4,3.6-4c2.4,0,3.6,1.4,3.6,3.8C70.4,7,69.4,9,66.8,9z M66.8,2.2
		c-1.1,0-1.6,0.9-1.6,2.9s0.5,2.8,1.6,2.8c1.1,0,1.6-0.9,1.6-2.9S67.9,2.2,66.8,2.2z"/>
	<path class="st0" d="M76.4,8.5l0,0.4h-4.2c-0.6,0-0.8,0-0.8,0l0.1-0.2c0.2-0.4,0.3-0.5,0.3-3.7c0-3.1,0-3.2-0.3-3.6l-0.1-0.2
		c0,0,0.2,0,0.8,0h4.1c0,0,0,0.2,0,0.8c0,0.6,0,0.8,0,0.8c0,0-0.1-0.1-0.4-0.3c-0.3-0.2-0.7-0.2-1.2-0.2h-1.1v2.2h0.9
		c0.5,0,0.9-0.1,1.2-0.2C76,4.1,76,4,76.1,4c0,0,0,0.3,0,1c0,0.7,0,1,0,1C76,6,76,6,75.7,5.8c-0.3-0.2-0.7-0.2-1.2-0.2h-0.9v2.2h1
		c1.3,0,1.5-0.3,1.9-0.9C76.5,6.9,76.5,7.3,76.4,8.5z"/>
	<path class="st0" d="M83.1,2.9l-1.5,1.7L83.2,7c1,1.4,1.3,1.7,1.6,1.8c0,0-0.3,0-1.4,0h-1.2l-2.5-3.7c0,3,0,3.1,0.3,3.6l0.1,0.2
		c0,0-0.4,0-1.3,0s-1.3,0-1.3,0l0.1-0.2c0.2-0.4,0.3-0.5,0.3-3.7c0-3.1,0-3.2-0.3-3.6l-0.1-0.2c0,0,0.4,0,1.3,0c1,0,1.3,0,1.3,0
		L80,1.4c-0.2,0.4-0.3,0.5-0.3,3.6l1.7-2.1c0.5-0.7,0.7-1,0.7-1.3c0-0.2-0.1-0.3-0.2-0.4c0,0,0.4,0,1.4,0c1.1,0,1.5,0,1.5,0
		C84.5,1.4,84.1,1.8,83.1,2.9z"/>
</g>
</svg>
