<?xml version="1.0" encoding="utf-8"?>
<!-- Generator: Adobe Illustrator 24.0.0, SVG Export Plug-In . SVG Version: 6.00 Build 0)  -->
<svg version="1.1" id="Laag_1" xmlns="http://www.w3.org/2000/svg" xmlns:xlink="http://www.w3.org/1999/xlink" x="0px" y="0px"
	 width="84.3px" height="38.7px" viewBox="0 0 84.3 38.7" style="enable-background:new 0 0 84.3 38.7;" xml:space="preserve">
<style type="text/css">
	.st0{fill:#1D1D1B;}
</style>
<g>
	<path class="st0" d="M7,16.1c-3.6,0-5.2-2-5.2-5.9s1.7-6,5.3-6c3.6,0,5.2,2,5.2,5.9S10.6,16.1,7,16.1z M7,6.2
		c-0.7,0-1.1,0.3-1.3,1.1C5.5,8,5.5,8.9,5.5,10.2c0,2.9,0.3,4,1.5,4c0.6,0,1-0.3,1.2-0.9s0.3-1.6,0.3-3.1C8.5,7.3,8.2,6.2,7,6.2z"/>
	<path class="st0" d="M17.4,15.9c-1.7,0-2.4,0-2.4,0l0.2-0.3c0.3-0.6,0.4-0.8,0.4-6V7.1c0-0.2-0.1-0.4-0.4-0.4h-2
		C14.5,4.4,18,5,19.3,3.9c0,0-0.2,2.3-0.2,6.3c0,4.6,0.1,4.7,0.4,5.4l0.2,0.3C19.7,15.9,19,15.9,17.4,15.9z"/>
	<path class="st0" d="M24,16.2c-1.4-0.2-2-0.8-2-1.9s0.8-1.8,2-2c1.4,0.2,2,0.8,2,1.9C26,15.4,25.2,16,24,16.2z"/>
	<path class="st0" d="M32.7,16.1c-3.6,0-5.2-2-5.2-5.9s1.7-6,5.3-6c3.6,0,5.2,2,5.2,5.9S36.3,16.1,32.7,16.1z M32.7,6.2
		c-0.7,0-1.1,0.3-1.3,1.1c-0.2,0.6-0.2,1.6-0.2,2.9c0,2.9,0.3,4,1.5,4c0.6,0,1-0.3,1.2-0.9s0.3-1.6,0.3-3.1
		C34.2,7.3,33.9,6.2,32.7,6.2z"/>
	<path class="st0" d="M47.4,12.8c0,0-0.1,1.1-0.1,2.1l0,1.1h-8.5c0-1.8,0.5-2.7,1.8-3.8l1.7-1.5c1.2-1.1,1.4-1.8,1.4-2.6
		c0-0.6-0.1-1.8-1.9-1.8c-1.5,0-1.9,0.6-2.6,1.7c0,0,0-0.6,0-1.6c0-1.2,0-1.6,0-1.6s1.1-0.5,3.4-0.5c3.9,0,4.8,1.6,4.8,3.5
		c0,1.7-0.7,2.8-2.7,4.1l-1.1,0.7c-1.1,0.7-1.3,0.8-1.3,1.1h2.6c0.8,0,1.5-0.1,1.9-0.4C47.2,13,47.4,12.8,47.4,12.8z"/>
	<path class="st0" d="M62.6,6.5c0,0-0.1-0.2-0.6-0.5c-0.4-0.2-1.1-0.4-1.9-0.4h-0.9v4.3c0,5,0.1,5.1,0.4,5.8l0.2,0.3
		c0,0-0.7,0-2.4,0c-1.7,0-2.4,0-2.4,0l0.2-0.3c0.3-0.7,0.4-0.8,0.4-6V5.6h-0.9c-0.8,0-1.5,0.2-1.9,0.4c-0.4,0.3-0.6,0.4-0.6,0.5
		c0,0,0-0.5,0-1.5c0-1,0-1.4,0-1.4h10.2c0,0,0,0.4,0,1.4C62.6,6,62.6,6.5,62.6,6.5z"/>
	<path class="st0" d="M64.1,19.6h-1.8l2.6-17.3h1.8L64.1,19.6z"/>
	<path class="st0" d="M79.5,15.9c-1.7,0-2.4,0-2.4,0l0.2-0.3c0.3-0.6,0.4-0.9,0.4-6V7c0,0.1-0.3,1.1-0.9,2.4l-2.5,5.5l-2.5-5.5
		C71.1,8,70.8,7.1,70.8,7v2.8c0,5,0.1,5.1,0.4,5.8l0.2,0.3c0,0-0.6,0-1.8,0c-1.2,0-1.8,0-1.8,0l0.2-0.3c0.3-0.7,0.4-0.8,0.4-6
		c0-5-0.1-5.1-0.4-5.8l-0.2-0.3c0,0,0.7,0,2.5,0c1.7,0,2.3,0,2.3,0l1.9,4c0.2,0.5,0.3,0.7,0.3,0.8c0-0.1,0.1-0.3,0.3-0.8l1.8-4
		c0,0,0.7,0,2.4,0c1.8,0,2.5,0,2.5,0l-0.2,0.3c-0.3,0.6-0.4,0.8-0.4,6c0,5,0.1,5.1,0.4,5.8l0.2,0.3C81.8,15.9,81.1,15.9,79.5,15.9z"
		/>
</g>
<g>
	<path class="st0" d="M41.8,32.4c0,0-0.1,1.1-0.1,2.1l0,1.1h-8.5c0-1.8,0.5-2.7,1.8-3.8l1.7-1.5c1.2-1.1,1.4-1.8,1.4-2.6
		c0-0.6-0.1-1.8-1.9-1.8c-1.5,0-1.9,0.6-2.6,1.7c0,0,0-0.6,0-1.6c0-1.2,0-1.6,0-1.6s1.1-0.5,3.4-0.5c3.9,0,4.8,1.6,4.8,3.5
		c0,1.7-0.7,2.8-2.7,4.1L38,32.1c-1.1,0.7-1.3,0.8-1.3,1.1h2.6c0.8,0,1.5-0.1,1.9-0.4C41.6,32.6,41.8,32.4,41.8,32.4z"/>
	<path class="st0" d="M52.4,32.9h-0.2c0,0.7,0,1.7,0.4,2.3l0.2,0.3c0,0-0.6,0-2.3,0c-1.7,0-2.3,0-2.3,0l0.2-0.3
		c0.3-0.6,0.4-1.5,0.4-2.3h-5.5c0-1.2,0-2.7,1.7-4.4l1.3-1.2c2.2-2.1,2.6-2.6,2.6-3.6c0-0.6-0.2-0.8-0.2-0.8s0.6,0,2,0
		c1.3,0,2,0,2,0v0.1c0,2.1-0.3,3.1-3.2,5.1l-1.4,1c-0.9,0.6-1.4,0.9-1.4,1.5h2.1v-0.7c0.8-0.1,3.2-1.3,3.5-1.7v2.4h0.2
		c1,0,1.5-0.2,1.5-0.2s0,0.4,0,1.4c0,0.8,0,1.3,0,1.3S53.4,32.9,52.4,32.9z"/>
	<path class="st0" d="M57.4,35.8c-1.4-0.2-2-0.8-2-1.9s0.8-1.8,2-2c1.4,0.2,2,0.8,2,1.9C59.4,35,58.6,35.7,57.4,35.8z"/>
	<path class="st0" d="M66.1,35.8c-3.6,0-5.2-2-5.2-5.9c0-4,1.7-6,5.3-6c3.6,0,5.2,2,5.2,5.9C71.3,33.7,69.7,35.8,66.1,35.8z
		 M66.1,25.8c-0.7,0-1.1,0.3-1.3,1.1c-0.2,0.6-0.2,1.6-0.2,2.9c0,2.9,0.3,4,1.5,4c0.6,0,1-0.3,1.2-0.9s0.3-1.6,0.3-3.1
		C67.7,26.9,67.3,25.8,66.1,25.8z"/>
	<path class="st0" d="M76.6,36.7c-2.5,0-4.2-1.1-4.2-2.9c0,0,0.6,0.7,2.9,0.7c2.3,0,2.6-1.4,2.6-2.2c0-1.4-0.7-2.2-2.7-2.2
		c-1.5,0-1.9,0.3-1.9,0.3V24h5.5c2.1,0,2.3-0.2,2.3-0.2s0,0.4,0,1.3c0,1,0,1.4,0,1.4s-0.3-0.2-2.3-0.2h-3.2v2c0,0,0.4-0.2,1.5-0.2
		c2.9,0,4.4,1.4,4.4,4C81.5,35.8,79,36.7,76.6,36.7z"/>
</g>
</svg>
