<?xml version="1.0" encoding="utf-8"?>
<!-- Generator: Adobe Illustrator 24.3.0, SVG Export Plug-In . SVG Version: 6.00 Build 0)  -->
<svg version="1.1" id="Laag_1" xmlns="http://www.w3.org/2000/svg" xmlns:xlink="http://www.w3.org/1999/xlink" x="0px" y="0px"
	 width="274.1px" height="27.2px" viewBox="0 0 274.1 27.2" style="enable-background:new 0 0 274.1 27.2;" xml:space="preserve">
<style type="text/css">
	.st0{fill:#FCE43C;}
</style>
<g>
	<path class="st0" d="M0,26.7c0.5-1.2,1.1-2.4,1.6-3.6c0.5-1,1-2.1,1.6-3.3c0.6-1.2,1.1-2.3,1.7-3.3c0.4-0.8,0.9-1.7,1.3-2.5
		c0.4-0.8,0.8-1.6,1.1-2.4C7.5,10.8,7.8,10,8,9.3C8.1,8.6,8.2,8,8.2,7.5c0-0.6-0.1-1.1-0.4-1.4C7.5,5.7,7.1,5.6,6.6,5.6
		c-0.5,0-0.9,0.2-1.1,0.5C5.2,6.4,5.1,6.9,5.1,7.5v0.4H0.3l0-0.7c0-0.8,0.1-1.6,0.4-2.4c0.2-0.7,0.6-1.4,1.1-1.9
		c0.5-0.5,1.2-1,2-1.3c0.8-0.3,1.8-0.5,2.9-0.5c2.2,0,3.8,0.5,4.9,1.6s1.6,2.6,1.6,4.7c0,0.8-0.1,1.6-0.2,2.4
		c-0.1,0.8-0.4,1.7-0.8,2.7s-1,2.3-1.7,3.8c-0.8,1.5-1.7,3.4-2.9,5.8h5.9v4.6H0z"/>
	<path class="st0" d="M16.2,8.1c0-4.6,2.2-7,6.6-7c1.1,0,2.1,0.2,3,0.6s1.6,0.9,2.1,1.6c0.2,0.3,0.4,0.6,0.5,0.8
		c0.1,0.3,0.2,0.6,0.3,0.9c0.1,0.3,0.1,0.8,0.1,1.2c0,0.5,0,1.1,0,1.7v12c0,1.1-0.1,2-0.2,2.7c-0.1,0.6-0.4,1.3-0.8,1.9
		c-0.5,0.7-1.2,1.3-2.1,1.7c-1,0.4-2,0.6-3.3,0.6c-2,0-3.5-0.5-4.6-1.6c-1.1-1.1-1.6-2.6-1.6-4.6V8.1z M24,7.9
		c0-0.8-0.1-1.4-0.3-1.7c-0.2-0.3-0.6-0.5-1.1-0.5c-0.5,0-0.9,0.2-1.2,0.6c-0.2,0.4-0.4,1-0.4,1.8v12.1c0,0.9,0.1,1.5,0.4,1.9
		c0.2,0.4,0.6,0.6,1.1,0.6s0.9-0.2,1.1-0.6c0.2-0.4,0.3-1,0.3-1.9V7.9z"/>
	<path class="st0" d="M31.6,26.7c0.5-1.2,1.1-2.4,1.6-3.6c0.5-1,1-2.1,1.6-3.3c0.6-1.2,1.1-2.3,1.7-3.3c0.4-0.8,0.9-1.7,1.3-2.5
		c0.4-0.8,0.8-1.6,1.1-2.4c0.3-0.8,0.6-1.5,0.7-2.2c0.2-0.7,0.3-1.3,0.3-1.9c0-0.6-0.1-1.1-0.4-1.4c-0.3-0.3-0.7-0.4-1.2-0.4
		c-0.5,0-0.9,0.2-1.1,0.5c-0.3,0.3-0.4,0.8-0.4,1.4v0.4h-4.8l0-0.7c0-0.8,0.1-1.6,0.4-2.4c0.2-0.7,0.6-1.4,1.1-1.9
		c0.5-0.5,1.2-1,2-1.3C36,1.3,37,1.1,38.2,1.1c2.2,0,3.8,0.5,4.9,1.6s1.6,2.6,1.6,4.7c0,0.8-0.1,1.6-0.2,2.4
		c-0.1,0.8-0.4,1.7-0.8,2.7s-1,2.3-1.7,3.8c-0.8,1.5-1.7,3.4-2.9,5.8h5.9v4.6H31.6z"/>
	<path class="st0" d="M50,7.6h-2.7l1.4-6h6.2v25.1H50V7.6z"/>
	<path class="st0" d="M58.3,11.2c0-0.7,0.2-1.3,0.7-1.8c0.5-0.5,1.1-0.8,1.8-0.8c0.7,0,1.3,0.3,1.8,0.8c0.5,0.5,0.7,1.1,0.7,1.8
		c0,0.7-0.2,1.3-0.7,1.7c-0.5,0.5-1.1,0.7-1.8,0.7c-0.7,0-1.3-0.2-1.8-0.7C58.6,12.5,58.3,11.9,58.3,11.2z M58.3,24.6
		c0-0.7,0.2-1.3,0.7-1.8c0.5-0.5,1.1-0.8,1.8-0.8c0.7,0,1.3,0.3,1.8,0.8c0.5,0.5,0.7,1.1,0.7,1.8c0,0.7-0.2,1.3-0.7,1.7
		c-0.5,0.5-1.1,0.7-1.8,0.7c-0.7,0-1.3-0.2-1.8-0.7C58.6,25.9,58.3,25.3,58.3,24.6z"/>
	<path class="st0" d="M74.6,0.4h10.6v4.8h-5.5V10h5.5v4.9h-5.5v6.9h5.5v4.8H74.6V0.4z"/>
	<path class="st0" d="M88.3,0.4h10.6v4.8h-5.5V10h5.5v4.9h-5.5v6.9h5.5v4.8H88.3V0.4z"/>
	<path class="st0" d="M101.9,0.4h4.6l4.6,13.9V0.4h4.7v26.2h-4.5l-4.9-13.9v13.9h-4.6V0.4z"/>
	<path class="st0" d="M127.1,0.4h7.3c0.7,0,1.2,0,1.7,0c0.5,0,0.9,0.1,1.2,0.1c0.3,0,0.6,0.1,0.9,0.2s0.5,0.2,0.7,0.3
		c0.6,0.3,1,0.8,1.3,1.5s0.4,1.5,0.4,2.6v4.3c0,1.4-0.3,2.5-0.8,3.2c-0.5,0.7-1.4,1.2-2.7,1.5l5,12.6h-5.3l-4.5-11.9v11.9h-5.2V0.4z
		 M133.9,9.9c0.6,0,1-0.2,1.3-0.5c0.2-0.3,0.4-0.8,0.4-1.5V7.3c0-0.8-0.1-1.3-0.3-1.6c-0.2-0.3-0.6-0.4-1.1-0.4h-1.9v4.5H133.9z"/>
	<path class="st0" d="M144.2,0.4h5.2v19.1v0.5c0,0.8,0.1,1.4,0.4,1.8c0.3,0.4,0.7,0.6,1.3,0.6c1,0,1.6-0.7,1.6-2.2V0.4h5v19.7
		c0,0.6,0,1.1-0.1,1.6s-0.1,0.8-0.2,1.2c-0.1,0.4-0.2,0.7-0.3,1s-0.3,0.6-0.5,0.9c-0.5,0.8-1.3,1.4-2.3,1.8s-2.2,0.6-3.7,0.6
		c-1.2,0-2.3-0.2-3.3-0.6s-1.7-1-2.2-1.7c-0.4-0.6-0.7-1.2-0.8-1.9c-0.1-0.7-0.2-1.7-0.2-2.9V0.4z"/>
	<path class="st0" d="M161.2,0.4h5.1v26.2h-5.1V0.4z"/>
	<path class="st0" d="M169.8,0.4h6.3l3.3,13.9l3.3-13.9h6.3v26.2h-4.6V11.9L181,26.7h-3.2l-3.6-14.8v14.8h-4.4V0.4z"/>
	<path class="st0" d="M195.6,5.4h-3.6v-5h12.5v5h-3.7l0,21.3h-5.1V5.4z"/>
	<path class="st0" d="M207.3,0.4h10.6v4.8h-5.5V10h5.5v4.9h-5.5v6.9h5.5v4.8h-10.6V0.4z"/>
	<path class="st0" d="M221,0.4h7.3c0.7,0,1.2,0,1.7,0c0.5,0,0.9,0.1,1.2,0.1c0.3,0,0.6,0.1,0.9,0.2s0.5,0.2,0.7,0.3
		c0.6,0.3,1,0.8,1.3,1.5s0.4,1.5,0.4,2.6v4.3c0,1.4-0.3,2.5-0.8,3.2c-0.5,0.7-1.4,1.2-2.7,1.5l5,12.6h-5.3l-4.5-11.9v11.9H221V0.4z
		 M227.8,9.9c0.6,0,1-0.2,1.3-0.5c0.2-0.3,0.4-0.8,0.4-1.5V7.3c0-0.8-0.1-1.3-0.3-1.6c-0.2-0.3-0.6-0.4-1.1-0.4h-1.9v4.5H227.8z"/>
	<path class="st0" d="M238.7,0.4h10.6v4.8h-5.5V10h5.5v4.9h-5.5v6.9h5.5v4.8h-10.6V0.4z"/>
	<path class="st0" d="M252.5,0.4h5.1v26.2h-5.1V0.4z"/>
	<path class="st0" d="M265.7,18.2V20c0,1.5,0.6,2.3,1.7,2.3c0.6,0,1.1-0.2,1.3-0.6c0.3-0.4,0.4-1.1,0.4-2c0-0.4,0-0.7-0.1-1
		c0-0.3-0.2-0.5-0.3-0.8s-0.4-0.5-0.7-0.8c-0.3-0.3-0.7-0.6-1.1-1l-2.5-1.9c-0.7-0.5-1.2-1-1.7-1.4c-0.4-0.4-0.8-0.9-1.1-1.4
		c-0.3-0.5-0.4-1.1-0.5-1.7c-0.1-0.6-0.1-1.4-0.1-2.3c0-0.9,0-1.6,0.1-2.2c0.1-0.6,0.2-1.1,0.3-1.5c0.1-0.4,0.3-0.8,0.4-1
		c0.2-0.3,0.3-0.5,0.5-0.7c0.4-0.5,1.1-0.9,1.9-1.3s1.9-0.6,3.3-0.6c0.8,0,1.6,0.1,2.4,0.3s1.4,0.5,2,1c0.6,0.5,1,1.1,1.4,1.9
		c0.3,0.8,0.5,1.8,0.5,3.1v2.6h-4.7c0-0.1,0-0.3,0-0.4c0-0.2,0-0.4,0-0.6c0-0.3,0-0.6-0.1-0.9c0-0.3-0.1-0.6-0.2-0.9
		c-0.1-0.3-0.3-0.5-0.5-0.7c-0.2-0.2-0.5-0.3-0.9-0.3c-1.1,0-1.6,0.8-1.6,2.3c0,0.5,0.1,0.9,0.2,1.2s0.3,0.7,0.6,1
		c0.3,0.3,0.6,0.6,1,1c0.4,0.3,0.9,0.7,1.4,1.1c0.5,0.4,1.1,0.9,1.7,1.3c0.6,0.5,1.1,1,1.6,1.5s0.9,1,1.2,1.6
		c0.3,0.6,0.5,1.1,0.5,1.7v3c0,2.1-0.5,3.8-1.6,4.9c-1.1,1.1-2.9,1.7-5.4,1.7c-1.2,0-2.2-0.2-3.2-0.7c-0.9-0.4-1.6-1-2-1.7
		c-0.3-0.5-0.6-1.2-0.8-2s-0.3-1.9-0.3-3.4c0-0.2,0-0.4,0-0.6c0-0.2,0-0.4,0-0.6H265.7z"/>
</g>
</svg>
