<?xml version="1.0" encoding="utf-8"?>
<!-- Generator: Adobe Illustrator 23.0.2, SVG Export Plug-In . SVG Version: 6.00 Build 0)  -->
<svg version="1.1" id="Laag_1" xmlns="http://www.w3.org/2000/svg" xmlns:xlink="http://www.w3.org/1999/xlink" x="0px" y="0px"
	 width="617.9px" height="41.3px" viewBox="0 0 617.9 41.3" style="enable-background:new 0 0 617.9 41.3;" xml:space="preserve">
<style type="text/css">
	.st0{fill:#FFFFFF;}
</style>
<g>
	<path class="st0" d="M321.4,27.4c0,1.9-1.1,2.9-2.7,2.9h-0.4V32h9.8v-1.7h-0.4c-1.6,0-2.6-0.9-2.6-2.9V16.6c2-1.5,3.4-2,4.8-2
		c2.6,0,3.4,2,3.4,4.4v8.4c0,1.9-1.1,2.9-2.7,2.9h-0.4V32h9.7v-1.7h-0.3c-1.6,0-2.7-0.9-2.7-2.9v-9.7c0-4.2-2.3-6.1-5.2-6.1
		c-2.2,0-4.6,1.4-6.7,3.4V1.5h-1l-5.5,2v0.9l2.8,1.6V27.4z"/>
	<path class="st0" d="M297.7,3.9c0-1.3-1.1-2.4-2.4-2.4c-1.4,0-2.4,1.1-2.4,2.4c0,1.4,1.1,2.4,2.4,2.4
		C296.6,6.3,297.7,5.2,297.7,3.9z"/>
	<path class="st0" d="M216.6,26.8l-1.2,3.3c0.9-0.7,1.6-1.6,2.2-2.5l-0.9-0.9C216.7,26.8,216.7,26.8,216.6,26.8z"/>
	<path class="st0" d="M290.7,30.3h-0.5V32h10.1v-1.7h-0.5c-1.7,0-2.7-0.9-2.7-2.9V11.6h-0.9l-5.6,2l0,0.9l2.8,1.5v11.4
		C293.4,29.3,292.4,30.3,290.7,30.3z"/>
	<path class="st0" d="M239.6,26.4V1.5h-1l-5.6,2l0,0.9l2.9,1.9v6.3c-1.1-0.3-2.5-0.9-4.5-0.9c-2.4,0-4.6,0.8-6.7,2.9
		c-1.8,1.8-3.2,4.9-3.2,8.6c0,4.5,2.6,9.2,7.6,9.2c2.9,0,5.4-1.7,6.9-3.2v3.2h0.9l5.5-1.3v-1.7c-0.5,0-0.9,0.1-1.2,0.1
		C240,29.5,239.6,28.8,239.6,26.4z M235.9,27.1c-2,1.9-3.3,2.3-4.9,2.3c-1.3,0-2.6-0.6-3.4-1.5c-1.6-1.6-2.5-5.2-2.5-7.9
		c0-5,3.4-6.7,5.3-6.7c1.3,0,2.7,0.6,3.6,1.5c1.2,1.2,1.8,3,1.8,5.6V27.1z"/>
	<path class="st0" d="M314.8,29.1c-0.6,0.2-1.7,0.7-2.8,0.7c-2.4,0-2.7-1.4-2.7-2.8V14.2h5.3V12h-5.3V7H308c-1,2.8-2.5,4.7-4.9,5.9
		v1.4h2.6v14c0,2.7,1,4.1,4.4,4.1c1.8,0,3.3-0.3,4.7-1.3V29.1z"/>
	<path class="st0" d="M287.1,13.8v-1.7h-6.5v1.7c1.9,0,2.6,1.7,1.8,3.7l-3.7,9.4l-3.8-10.4c-0.6-1.6,0.3-2.7,2-2.7h0.5v-1.7H268v1.7
		h0.4c1.4,0,2.3,1.2,3.1,4l-4,9.4l-4.1-10.8c-0.6-1.5,0.3-2.6,1.8-2.6v-1.7h-8v1.7c0.9,0,1.6,0.8,2.2,2.1l6.2,16.4h1.6l5.1-12.2
		l4.5,12.2h1.4l6.4-16.2C285.1,15.2,285.7,14,287.1,13.8z"/>
	<path class="st0" d="M174,3.6c-1.2,0-2,0.8-2,1.9c0,1.1,0.8,1.9,2,1.9c1.2,0,2-0.8,2-1.9C176,4.4,175.2,3.6,174,3.6z"/>
	<path class="st0" d="M218.1,22.8l0.9-2.6v-0.5c0-5.2-2.9-9.1-8.9-9.1c-5.9,0-9.1,3.8-9.1,9.5v3.4c0,5.6,3.8,9.1,9.2,9.1
		c1.8,0,3.4-0.4,4.7-1.2l1.9-5.2h-0.9c-0.7,2.4-2.6,4-5.8,4c-4.4,0-6.3-2.9-6.3-6.6v-0.7H218.1z M204,19.7c0-3.8,1.6-6.8,6.1-6.8
		c4.1,0,6,2.8,6,6.5v1H204V19.7z"/>
	<polygon class="st0" points="197,11 181.7,11 181.7,13.5 193.6,13.5 181.2,29.6 181.2,32 197.2,32 197.2,29.5 184.7,29.5 197,13.3 
			"/>
	<path class="st0" d="M90.9,15.8V11H88V32h3.1V21.7c0-5.3,2.5-7.9,6.5-7.9h0.6v-2.9h-0.5C93.9,10.9,91.7,12.6,90.9,15.8z"/>
	<path class="st0" d="M82.6,23.2v-3.4c0-5.2-3.4-9.2-9.3-9.2c-5.9,0-9.4,4.1-9.4,9.2v3.4c0,5.2,3.4,9.2,9.4,9.2
		C79.2,32.4,82.6,28.4,82.6,23.2z M79.6,23.2c0,4-2.2,6.8-6.3,6.8c-4.1,0-6.3-2.8-6.3-6.8v-3.4c0-4,2.2-6.8,6.3-6.8
		c4.1,0,6.3,2.8,6.3,6.8V23.2z"/>
	<path class="st0" d="M42.9,23.2v-3.4c0-5.2-3.4-9.2-9.3-9.2c-5.9,0-9.4,4.1-9.4,9.2v3.4c0,5.2,3.4,9.2,9.4,9.2
		C39.5,32.4,42.9,28.4,42.9,23.2z M27.2,23.2v-3.4c0-4,2.2-6.8,6.3-6.8c4.1,0,6.3,2.8,6.3,6.8v3.4c0,4-2.2,6.8-6.3,6.8
		C29.4,30,27.2,27.1,27.2,23.2z"/>
	<rect x="47.7" y="17.8" class="st0" width="11.4" height="2.7"/>
	<path class="st0" d="M163,19.2V32h3.1V18.7c0-5-3-8.2-7.7-8.2c-3.6,0-6,1.7-7,4V11h-2.9V32h3.1V19.6c0-4.3,2.6-6.4,6.1-6.4
		C161.4,13.2,163,15.6,163,19.2z"/>
	<path class="st0" d="M118.7,32V11h-3v3.5c-0.9-1.8-3.2-4-7.1-4c-5.5,0-8.6,3.8-8.6,8.5v3.5c0,4.7,3.1,8.5,8.5,8.5c3.5,0,6.4-2,7-4
		v4.7c0,3.2-2.5,5.2-6.1,5.2c-2.9,0-4.9-0.9-6-2.9h-3.1c1.1,3.4,4.9,5.4,9.1,5.4C114.7,39.6,118.7,36.3,118.7,32z M115.6,22.2
		c0,4-2.9,6.3-6.4,6.3c-4,0-6.1-2.3-6.1-6.3v-3c0-4,2.1-6.3,6.2-6.3c3.6,0,6.3,2.9,6.3,6.5V22.2z"/>
	<path class="st0" d="M139.3,29.3V32h3V18.1c0-4.1-3.1-7.5-8.3-7.5c-4.1,0-7.1,2.1-8.1,5.6h2.9c0.9-1.9,2.6-3.1,5.2-3.1
		c3.4,0,5.2,2.2,5.2,5.1v3.9c-1.2-1.2-3.4-2.6-6.7-2.6c-5,0-8.3,2.5-8.3,6.5c0,3.8,3,6.6,7.9,6.6C135.6,32.4,138.4,30.8,139.3,29.3z
		 M132.7,30.4c-3.2,0-5.6-1.6-5.6-4.5s2.3-4.5,5.8-4.5c3.1,0,6.3,1.8,6.3,4.5C139.2,28.5,136,30.4,132.7,30.4z"/>
	<rect x="172.5" y="11" class="st0" width="3.1" height="20.9"/>
	<path class="st0" d="M10.8,13c4,0,5.7,2.6,6.1,5.4h2.8c-0.2-4.4-3.7-7.9-9-7.9c-5.8,0-9.3,3.9-9.3,9.2v3.5c0,5.3,3.5,9.2,9.3,9.2
		c5.3,0,8.7-3.4,9-7.9h-2.8c-0.4,2.8-2.2,5.4-6.1,5.4c-4.3,0-6.3-2.8-6.3-6.7v-3.6C4.5,15.8,6.5,13,10.8,13z"/>
</g>
</svg>
