<?xml version="1.0" encoding="utf-8"?>
<!-- Generator: Adobe Illustrator 24.0.0, SVG Export Plug-In . SVG Version: 6.00 Build 0)  -->
<svg version="1.1" id="Laag_1" xmlns="http://www.w3.org/2000/svg" xmlns:xlink="http://www.w3.org/1999/xlink" x="0px" y="0px"
	 width="353.3px" height="71.2px" viewBox="0 0 353.3 71.2" style="enable-background:new 0 0 353.3 71.2;" xml:space="preserve">
<style type="text/css">
	.st0{fill:#FFFFFF;}
</style>
<g>
	<path class="st0" d="M15.2,19.4c0-4.9,3.9-8.2,9.8-8.2c5.9,0,9.8,3.2,9.8,8.2s-3.9,8.2-9.8,8.2C19.1,27.5,15.2,24.3,15.2,19.4z
		 M28.9,19.4c0-1.9-1.6-3.2-4-3.2s-4,1.3-4,3.2c0,1.9,1.6,3.2,4,3.2S28.9,21.3,28.9,19.4z"/>
	<path class="st0" d="M37,11.7h6.6L43,18h0.3c0.8-5,2.9-6.8,7.7-6.8c4.3,0.1,6.2,1.5,6.2,9.2v6.7H51v-6.1c0-4-1-5-3.5-5
		c-2.5,0-4.3,2.6-4.3,6v5.1H37V11.7z"/>
	<path class="st0" d="M61.1,21.5v-5.3h-1.7v-4.5h2.4V8.1l5.6-0.6v4.3h3v4.5h-3v4.4c0,1.9,0,2.5,1.8,2.5c0.3,0,0.7,0,1.2-0.1v3.7
		c-1.6,0.4-3,0.6-4.6,0.6C61.7,27.4,61.1,25.9,61.1,21.5z"/>
	<path class="st0" d="M72.2,19.3c0-4.8,3.1-8,7.8-8c3.7,0,6.6,2.2,7.3,5.5h0.1V5.6h6.2v21.5h-6.3l0.7-5h-0.4
		c-0.6,3.3-3.7,5.5-7.6,5.5C75.2,27.5,72.2,24.2,72.2,19.3z M86.7,19.3c0-2.3-2.2-3.1-4.4-3.1c-2.1,0-4.3,0.8-4.3,3.1
		c0,2.3,2.2,3.2,4.3,3.2C84.5,22.6,86.7,21.7,86.7,19.3z"/>
	<path class="st0" d="M96,19.4c0-4.9,3.7-8.2,9.2-8.2c5.5,0,9.1,2.8,9.2,7v2.5h-12.3c0.5,1.3,2,2.1,4.6,2.1c3.7,0,5.3-1,7-1.7V26
		c-2.4,0.9-4.3,1.5-8.6,1.5C99.6,27.5,96,24.3,96,19.4z M108.4,18.4c-0.2-1.5-1.6-2.2-3.2-2.2c-1.6,0-2.9,0.8-3.2,2.4L108.4,18.4z"
		/>
	<path class="st0" d="M116.9,5.6h6.2v10.9l4.8-4.7h8.5l-5.8,5.2l6.3,10.1h-7.7l-3.4-5.9l-2.7,2.4v3.5h-6.2V5.6z"/>
	<path class="st0" d="M147.9,19.3c0-4.8,3.1-8,7.8-8c3.7,0,6.6,2.2,7.3,5.5h0.1V5.6h6.2v21.5h-6.3l0.7-5h-0.4
		c-0.6,3.3-3.7,5.5-7.6,5.5C151,27.5,147.9,24.2,147.9,19.3z M162.4,19.3c0-2.3-2.2-3.1-4.4-3.1c-2.1,0-4.3,0.8-4.3,3.1
		c0,2.3,2.2,3.2,4.3,3.2C160.2,22.6,162.4,21.7,162.4,19.3z"/>
	<path class="st0" d="M171.7,19.4c0-4.9,3.7-8.2,9.2-8.2c5.5,0,9.1,2.8,9.2,7v2.5h-12.3c0.5,1.3,2,2.1,4.6,2.1c3.7,0,5.3-1,7-1.7V26
		c-2.4,0.9-4.3,1.5-8.6,1.5C175.4,27.5,171.7,24.3,171.7,19.4z M184.2,18.4c-0.2-1.5-1.6-2.2-3.2-2.2c-1.6,0-2.9,0.8-3.2,2.4
		L184.2,18.4z"/>
	<path class="st0" d="M202.1,5.6h6.2v10.9l4.8-4.7h8.5l-5.8,5.2l6.3,10.1h-7.7l-3.4-5.9l-2.7,2.4v3.5h-6.2V5.6z"/>
	<path class="st0" d="M223.4,5.6h6.2v21.5h-6.2V5.6z"/>
	<path class="st0" d="M231.4,23.5c0-3.4,4-4.9,12.3-5.5c0-0.9-1.1-1.4-2.8-1.4c-2.4,0-5.5,0.7-7.6,1.6v-5.3c2.6-1,6.1-1.7,8.8-1.7
		c5.7,0,7.8,2.9,7.8,7.2v8.6h-5.9l0.6-5.2h-0.3c-1,3.9-2.5,5.7-7.2,5.7C234.9,27.5,231.4,27.1,231.4,23.5z M243.8,20.4
		c-3.5,0.2-5.9,0.7-5.9,1.8c0,0.7,1,1.1,2.2,1.1C241.7,23.4,243.8,22.5,243.8,20.4z"/>
	<path class="st0" d="M252.4,11.7h6.6l-0.6,6.3h0.3c0.8-5,2.9-6.8,7.7-6.8c4.3,0.1,6.2,1.5,6.2,9.2v6.7h-6.2v-6.1c0-4-1-5-3.5-5
		c-2.5,0-4.3,2.6-4.3,6v5.1h-6.2V11.7z"/>
	<path class="st0" d="M275.7,5.6h6.2v10.9l4.8-4.7h8.5l-5.8,5.2l6.3,10.1h-7.7l-3.4-5.9l-2.7,2.4v3.5h-6.2V5.6z"/>
	<path class="st0" d="M295.7,19.4c0-4.9,3.7-8.2,9.2-8.2c5.5,0,9.1,2.8,9.2,7v2.5h-12.3c0.5,1.3,2,2.1,4.6,2.1c3.7,0,5.3-1,7-1.7V26
		c-2.4,0.9-4.3,1.5-8.6,1.5C299.3,27.5,295.7,24.3,295.7,19.4z M308.1,18.4c-0.2-1.5-1.6-2.2-3.2-2.2c-1.6,0-2.9,0.8-3.2,2.4
		L308.1,18.4z"/>
	<path class="st0" d="M316.3,11.7h6.6l-0.6,6.3h0.3c0.8-5,2.9-6.8,7.7-6.8c4.3,0.1,6.2,1.5,6.2,9.2v6.7h-6.2v-6.1c0-4-1-5-3.5-5
		c-2.5,0-4.3,2.6-4.3,6v5.1h-6.2V11.7z"/>
</g>
<g>
	<path class="st0" d="M1.7,44.6h6.7l5.1,9.7l5.1-9.7h6.7l-8.1,15.3H9.8L1.7,44.6z"/>
	<path class="st0" d="M24.5,56.3c0-3.4,4-4.9,12.3-5.5c0-0.9-1.1-1.4-2.8-1.4c-2.4,0-5.5,0.7-7.6,1.6v-5.3c2.6-1,6.1-1.7,8.8-1.7
		c5.7,0,7.8,2.9,7.8,7.2v8.6h-5.9l0.6-5.2h-0.3c-1,3.9-2.5,5.7-7.2,5.7C28,60.4,24.5,59.9,24.5,56.3z M36.9,53.3
		c-3.5,0.2-5.9,0.7-5.9,1.8c0,0.7,1,1.1,2.2,1.1C34.8,56.2,36.9,55.3,36.9,53.3z"/>
	<path class="st0" d="M45.5,44.6h6.6l-0.6,6.3h0.3c0.8-5,2.9-6.8,7.7-6.8c4.3,0.1,6.2,1.5,6.2,9.2v6.7h-6.2v-6.1c0-4-1-5-3.5-5
		c-2.5,0-4.3,2.6-4.3,6v5.1h-6.2V44.6z"/>
	<path class="st0" d="M78.9,38.4h10.3c7.8,0,12.5,3.7,12.5,10.7c0,7.1-4.8,10.7-12.5,10.7H78.9V38.4z M89.2,54.6
		c4.3,0,6.3-1.7,6.3-5.5c0-3.8-2.1-5.5-6.3-5.5h-4.1v10.9H89.2z"/>
	<path class="st0" d="M103.6,52.2c0-4.9,3.7-8.2,9.2-8.2c5.5,0,9.1,2.8,9.2,7v2.5h-12.3c0.5,1.3,2,2.1,4.6,2.1c3.7,0,5.3-1,7-1.7
		v4.9c-2.4,0.9-4.3,1.5-8.6,1.5C107.2,60.4,103.6,57.1,103.6,52.2z M116,51.2c-0.2-1.5-1.6-2.2-3.2-2.2c-1.6,0-2.9,0.8-3.2,2.4
		L116,51.2z"/>
	<path class="st0" d="M164.8,38.4l-11.3,21.5h-9l-11.3-21.5h7.3l8.5,16.9l8.5-16.9H164.8z"/>
	<path class="st0" d="M163.4,52.2c0-4.9,3.7-8.2,9.2-8.2c5.5,0,9.1,2.8,9.2,7v2.5h-12.3c0.5,1.3,2,2.1,4.6,2.1c3.7,0,5.3-1,7-1.7
		v4.9c-2.4,0.9-4.3,1.5-8.6,1.5C167.1,60.4,163.4,57.1,163.4,52.2z M175.9,51.2c-0.2-1.5-1.6-2.2-3.2-2.2c-1.6,0-2.9,0.8-3.2,2.4
		L175.9,51.2z"/>
	<path class="st0" d="M184,44.6h6.6l-0.6,5.7h0.3c0.8-4.4,3.2-6.2,8-6.2v5.3c-5.5,0-8.1,0.5-8.1,5.4v5.1H184V44.6z"/>
	<path class="st0" d="M199.1,52.2c0-4.9,3.7-8.2,9.2-8.2c5.5,0,9.1,2.8,9.2,7v2.5h-12.3c0.5,1.3,2,2.1,4.6,2.1c3.7,0,5.3-1,7-1.7
		v4.9c-2.4,0.9-4.3,1.5-8.6,1.5C202.8,60.4,199.1,57.1,199.1,52.2z M211.6,51.2c-0.2-1.5-1.6-2.2-3.2-2.2c-1.6,0-2.9,0.8-3.2,2.4
		L211.6,51.2z"/>
	<path class="st0" d="M219.4,52.2c0-4.9,3.7-8.2,9.2-8.2c5.5,0,9.1,2.8,9.2,7v2.5h-12.3c0.5,1.3,2,2.1,4.6,2.1c3.7,0,5.3-1,7-1.7
		v4.9c-2.4,0.9-4.3,1.5-8.6,1.5C223.1,60.4,219.4,57.1,219.4,52.2z M231.9,51.2c-0.2-1.5-1.6-2.2-3.2-2.2c-1.6,0-2.9,0.8-3.2,2.4
		L231.9,51.2z"/>
	<path class="st0" d="M240.1,44.6h6.6l-0.6,6.3h0.3c0.8-5,2.9-6.8,7.7-6.8c4.3,0.1,6.2,1.5,6.2,9.2v6.7H254v-6.1c0-4-1-5-3.5-5
		c-2.5,0-4.3,2.6-4.3,6v5.1h-6.2V44.6z"/>
	<path class="st0" d="M262.8,40.1c0-2.3,1.3-3.2,3.6-3.2s3.6,0.9,3.6,3.2c0,2.3-1.2,3.2-3.6,3.2C264,43.3,262.8,42.4,262.8,40.1z
		 M263.3,44.6h6.2v15.3h-6.2V44.6z"/>
	<path class="st0" d="M274.2,65.1V60c1,0.5,3.9,1.1,7.1,1.1c4.4,0,5.5-1.1,5.8-5.5v-0.2c-0.8,2.9-3.8,4.4-7.5,4.4
		c-4.6,0-7.7-2.7-7.7-7.7c0-4.8,3.1-8,7.8-8c3.7,0,6.6,2.2,7.3,5.5h0.5l-0.5-5h6.2V58c0,5.6-4.2,8-10.4,8
		C279.8,66,276.6,65.7,274.2,65.1z M286.5,52.2c0-2.3-2.2-3.1-4.4-3.1c-2.1,0-4.3,0.8-4.3,3.1c0,2.3,2.2,3.2,4.3,3.2
		C284.3,55.4,286.5,54.5,286.5,52.2z"/>
	<path class="st0" d="M295.8,40.1c0-2.3,1.3-3.2,3.6-3.2s3.6,0.9,3.6,3.2c0,2.3-1.2,3.2-3.6,3.2C297,43.3,295.8,42.4,295.8,40.1z
		 M296.3,44.6h6.2v15.3h-6.2V44.6z"/>
	<path class="st0" d="M305.3,44.6h6.6l-0.6,6.3h0.3c0.8-5,2.9-6.8,7.7-6.8c4.3,0.1,6.2,1.5,6.2,9.2v6.7h-6.2v-6.1c0-4-1-5-3.5-5
		c-2.5,0-4.3,2.6-4.3,6v5.1h-6.2V44.6z"/>
	<path class="st0" d="M330.5,65.1V60c1,0.5,3.9,1.1,7.1,1.1c4.4,0,5.5-1.1,5.8-5.5v-0.2c-0.8,2.9-3.8,4.4-7.5,4.4
		c-4.6,0-7.7-2.7-7.7-7.7c0-4.8,3.1-8,7.8-8c3.7,0,6.6,2.2,7.3,5.5h0.5l-0.5-5h6.2V58c0,5.6-4.2,8-10.4,8
		C336,66,332.9,65.7,330.5,65.1z M342.7,52.2c0-2.3-2.2-3.1-4.4-3.1c-2.1,0-4.3,0.8-4.3,3.1c0,2.3,2.2,3.2,4.3,3.2
		C340.5,55.4,342.7,54.5,342.7,52.2z"/>
</g>
</svg>
