<?xml version="1.0" encoding="utf-8"?>
<!-- Generator: Adobe Illustrator 23.0.2, SVG Export Plug-In . SVG Version: 6.00 Build 0)  -->
<svg version="1.1" id="Laag_1" xmlns="http://www.w3.org/2000/svg" xmlns:xlink="http://www.w3.org/1999/xlink" x="0px" y="0px"
	 width="650px" height="129.5px" viewBox="0 0 650 129.5" style="enable-background:new 0 0 650 129.5;" xml:space="preserve">
<style type="text/css">
	.st0{fill:#FFED00;}
	.st1{fill:#FFFFFF;}
</style>
<g>
	<path class="st0" d="M5.6,129.1v-40H13l9.8,21.2H23l9.8-21.2h7.4v40h-7.7v-24.3h-0.2L24.8,122H21l-7.5-17.2h-0.2v24.3H5.6z"/>
	<path class="st0" d="M77.3,89.1v31c0,1.3-0.3,2.5-0.9,3.6c-0.6,1.1-1.5,2.1-2.7,3c-1.2,0.9-2.5,1.5-4,2c-1.5,0.5-3.1,0.7-4.8,0.7
		c-1.7,0-3.3-0.2-4.8-0.7c-1.5-0.5-2.8-1.2-3.9-2c-1.2-0.9-2.1-1.8-2.7-3c-0.7-1.1-1-2.3-1-3.6v-31h7.7v30.5c0,1.4,0.5,2.5,1.4,3.1
		c0.9,0.7,2,1,3.4,1s2.5-0.3,3.4-1s1.4-1.7,1.4-3.1V89.1H77.3z"/>
	<path class="st0" d="M114.4,100.6h-7.7v-1.3c0-1.3-0.4-2.4-1.2-3.4c-0.8-1-2.2-1.4-4.2-1.4c-1.1,0-1.9,0.2-2.6,0.4
		c-0.7,0.3-1.2,0.7-1.6,1.1c-0.4,0.5-0.7,1-0.8,1.7c-0.2,0.6-0.2,1.3-0.2,1.9c0,0.8,0,1.4,0.1,2c0.1,0.5,0.3,1,0.6,1.4
		c0.3,0.4,0.7,0.8,1.3,1.1c0.6,0.3,1.4,0.6,2.4,0.9l5.9,1.7c1.7,0.5,3.1,1.1,4.1,1.7c1.1,0.7,1.9,1.4,2.5,2.3
		c0.6,0.9,0.9,1.9,1.1,3.1c0.2,1.1,0.3,2.4,0.3,3.9c0,1.7-0.2,3.3-0.7,4.7c-0.5,1.4-1.2,2.7-2.2,3.7c-1.1,1-2.4,1.9-4.1,2.5
		c-1.7,0.6-3.8,0.9-6.2,0.9c-1.9,0-3.6-0.2-5.2-0.7c-1.6-0.5-3-1.2-4.1-2c-1.2-0.9-2.1-1.9-2.7-3c-0.7-1.1-1-2.4-1-3.7v-2.1h7.7v1.8
		c0,1,0.4,2,1.2,2.8c0.8,0.8,2.2,1.3,4.2,1.3c1.3,0,2.3-0.1,3-0.4c0.7-0.3,1.3-0.7,1.7-1.2c0.4-0.5,0.6-1.2,0.7-1.9
		c0.1-0.7,0.1-1.5,0.1-2.4c0-1-0.1-1.9-0.2-2.6c-0.1-0.7-0.3-1.2-0.6-1.6c-0.4-0.4-0.8-0.7-1.4-1c-0.6-0.3-1.3-0.5-2.3-0.8l-5.5-1.7
		c-3.3-1-5.5-2.4-6.6-4c-1.1-1.7-1.7-3.8-1.7-6.3c0-1.5,0.3-2.9,0.8-4.3c0.6-1.3,1.4-2.5,2.5-3.5c1.1-1,2.4-1.8,4-2.3
		c1.6-0.6,3.6-0.9,5.8-0.9c1.9,0,3.6,0.3,5.2,0.8c1.6,0.5,2.9,1.2,4.1,2.1c2.3,1.8,3.5,3.9,3.5,6.2V100.6z"/>
	<path class="st0" d="M125.3,129.1v-40h22.8v5.4h-15.2v11.7h13.2v5.4h-13.2v11.7h15.2v5.7H125.3z"/>
	<path class="st0" d="M183,89.1v31c0,1.3-0.3,2.5-0.9,3.6c-0.6,1.1-1.5,2.1-2.7,3c-1.2,0.9-2.5,1.5-4,2c-1.5,0.5-3.1,0.7-4.8,0.7
		c-1.7,0-3.3-0.2-4.8-0.7c-1.5-0.5-2.8-1.2-3.9-2c-1.2-0.9-2.1-1.8-2.7-3c-0.7-1.1-1-2.3-1-3.6v-31h7.7v30.5c0,1.4,0.5,2.5,1.4,3.1
		c0.9,0.7,2,1,3.4,1c1.4,0,2.5-0.3,3.4-1c0.9-0.7,1.4-1.7,1.4-3.1V89.1H183z"/>
	<path class="st0" d="M195.3,129.1v-40h7.4l9.8,21.2h0.2l9.8-21.2h7.4v40h-7.7v-24.3H222l-7.6,17.2h-3.8l-7.5-17.2h-0.2v24.3H195.3z
		"/>
	<path class="st0" d="M261.3,129.1v-40h22.8v5.4h-15.2v12.1h13.2v5.4h-13.2v17.1H261.3z"/>
	<path class="st0" d="M294.2,129.1v-40h7.7v34.3H317v5.7H294.2z"/>
	<path class="st0" d="M327.1,129.1v-40h22.8v5.4h-15.2v11.7H348v5.4h-13.2v11.7h15.2v5.7H327.1z"/>
	<path class="st0" d="M360,129.1v-40h7.7v17.1h9.5V89.1h7.7v40h-7.7v-17.8h-9.5v17.8H360z"/>
	<path class="st0" d="M397.3,129.1v-40h7.7v40H397.3z"/>
	<path class="st0" d="M422.6,129.1V94.5h-8.9v-5.4h25.4v5.4h-8.9v34.6H422.6z"/>
	<path class="st0" d="M447.6,129.1v-40h22.8v5.4h-15.2v11.7h13.2v5.4h-13.2v11.7h15.2v5.7H447.6z"/>
</g>
<g>
	<path class="st1" d="M26.2,44.2c-2,4-5.8,5.9-11.5,5.9c-3.9,0-7-1.1-9.4-3.4c-2.4-2.3-3.6-5.2-3.6-8.7v-2.3c0-0.4,0.1-0.6,0.3-0.9
		c0.2-0.2,0.5-0.4,0.9-0.4h9.2c0.4,0,0.6,0.1,0.9,0.4c0.2,0.2,0.3,0.5,0.3,0.9v1c0,1.8,0.4,2.8,1.2,2.8c1.1,0,1.6-1.1,1.6-3.2
		c0-0.6,0-1.3,0-2c0-0.7,0-1.6,0-2.4c-0.8,0.5-1.6,0.9-2.4,1.2s-1.6,0.4-2.5,0.4c-3.7,0-6.3-1.3-7.9-4C1.8,26.7,1,22.8,1,17.6
		C1,12,2.1,7.9,4.3,5.3c2.2-2.6,5.8-4,10.7-4c4.8,0,8.4,1.7,10.8,5.1c2.2,3.2,3.2,8.9,3.2,17v0.9C29,33.9,28.1,40.5,26.2,44.2z
		 M15.9,16.2c-0.1-0.8-0.1-1.4-0.1-1.9v-0.1c-0.1-1.1-0.5-1.7-1.2-1.7c-0.6,0-1,0.4-1.3,1.2c-0.2,0.8-0.3,1.9-0.3,3.4
		c0,1.2,0.1,2.1,0.4,2.8c0.2,0.7,0.6,1,1.2,1c0.6,0,0.9-0.2,1.1-0.5v0.1c0.1-0.1,0.2-0.2,0.2-0.5c0.1-0.2,0.1-0.6,0.2-1.1
		C16.1,17.9,16,17,15.9,16.2z"/>
	<path class="st1" d="M71.3,12.5c0,0.4-0.1,0.6-0.4,0.9c-0.2,0.2-0.5,0.4-0.9,0.4H58.2v6.3h11.2c0.4,0,0.6,0.1,0.9,0.4
		c0.2,0.2,0.4,0.5,0.4,0.9v8.9c0,0.4-0.1,0.6-0.4,0.9c-0.2,0.2-0.5,0.3-0.9,0.3H58.2v16.6c0,0.4-0.1,0.6-0.4,0.9
		c-0.2,0.2-0.5,0.4-0.9,0.4H46.4c-0.4,0-0.6-0.1-0.9-0.4c-0.2-0.2-0.4-0.5-0.4-0.9V3.3c0-0.4,0.1-0.6,0.4-0.9
		C45.8,2.2,46.1,2,46.4,2h23.7c0.4,0,0.6,0.1,0.9,0.4c0.2,0.2,0.4,0.5,0.4,0.9L71.3,12.5z"/>
	<path class="st1" d="M99.6,49c-0.2,0.2-0.5,0.4-0.9,0.4H75.4c-0.4,0-0.6-0.1-0.9-0.4c-0.2-0.2-0.4-0.5-0.4-0.9V3.3
		c0-0.4,0.1-0.6,0.4-0.9C74.7,2.2,75,2,75.4,2h22.7c0.8,0,1.3,0.4,1.3,1.3v9.2c0,0.4-0.1,0.6-0.4,0.9c-0.2,0.2-0.5,0.4-0.9,0.4h-11
		v5.8H96c0.4,0,0.6,0.1,0.9,0.4c0.2,0.2,0.4,0.5,0.4,0.9v8.9c0,0.4-0.1,0.6-0.4,0.9C96.6,30.9,96.3,31,96,31h-8.8v6.2h11.6
		c0.4,0,0.6,0.1,0.9,0.4c0.2,0.2,0.4,0.5,0.4,0.9v9.6C100,48.5,99.9,48.8,99.6,49z"/>
	<path class="st1" d="M129,46c-2.2,2.2-5.7,3.4-10.6,3.4h-14.1c-0.4,0-0.7-0.1-0.9-0.4c-0.3-0.2-0.4-0.5-0.4-0.9V3.3
		c0-0.8,0.4-1.3,1.3-1.3h13.1c4.7,0,8.2,1,10.3,2.9c2.2,2,3.3,5.2,3.3,9.6c0,2.1-0.2,4-0.6,5.6c-0.4,1.6-1.4,2.9-2.8,4
		c0.8,0.5,1.6,1.4,2.4,2.7h-0.1c1.6,2.2,2.4,5.1,2.4,8.4C132.3,40.2,131.2,43.8,129,46z M118.4,16.3c0-1.2-0.2-2.1-0.5-2.7
		c-0.3-0.6-0.9-0.9-1.7-0.9h-0.5v7.5h0.2C117.5,20.1,118.3,18.9,118.4,16.3L118.4,16.3z M118.6,31.2c-0.3-0.6-0.9-1-1.8-1h-1.1v8.2
		h1c0.9,0,1.5-0.3,1.8-0.9c0.4-0.6,0.5-1.6,0.5-3C119.1,33,118.9,31.9,118.6,31.2z"/>
	<path class="st1" d="M164.3,48.8c-0.2,0.4-0.6,0.6-1.1,0.6h-10.2c-0.2,0-0.5-0.1-0.7-0.3c-0.2-0.2-0.4-0.4-0.5-0.6
		c-0.2-0.7-0.5-1.8-0.9-3.3c-0.4-1.5-0.5-3.5-0.5-5.9v-1c0-1.5,0-3-0.1-4.5c-0.1-1.5-0.2-2.4-0.4-3c-0.2-0.7-0.9-1-2-1v18.3
		c0,0.4-0.1,0.6-0.4,0.9c-0.2,0.2-0.5,0.4-0.9,0.4h-10.5c-0.4,0-0.6-0.1-0.9-0.4c-0.2-0.2-0.4-0.5-0.4-0.9V3.3
		c0-0.8,0.4-1.3,1.3-1.3H150c4.7,0,8.1,1.1,10.2,3.2c2.1,2.1,3.1,5.6,3.1,10.3c0,2.2-0.2,4.3-0.6,6.1c-0.4,1.8-1.4,3.3-3.1,4.4
		c1.3,1.1,2.2,2.7,2.6,4.7c0.4,1.4,0.6,2.7,0.7,4.1c0.1,1.4,0.2,2.7,0.2,4.1v0.7c0,1.8,0.1,3.5,0.4,5c0.2,1.5,0.5,2.5,0.8,3
		C164.5,48,164.6,48.4,164.3,48.8z M150.2,13.6c-0.4-0.7-1.1-1.1-2-1.1h-0.3v8.6h0.1c1,0,1.7-0.3,2.1-1s0.6-1.7,0.6-3.2
		C150.8,15.4,150.6,14.3,150.2,13.6z"/>
	<path class="st1" d="M191.6,46.8c-2.6,2.3-6,3.4-10.4,3.4c-4.5,0-8.1-1.1-10.6-3.4s-3.8-5.4-3.8-9.6V3.3c0-0.4,0.1-0.6,0.4-0.9
		c0.2-0.2,0.5-0.4,0.9-0.4h10.5c0.8,0,1.3,0.4,1.3,1.3v32.8c0,1.4,0.4,2,1.3,2c0.9,0,1.3-0.9,1.3-2.8V3.3c0-0.8,0.4-1.3,1.3-1.3
		h10.5c0.4,0,0.6,0.1,0.9,0.4c0.2,0.2,0.4,0.5,0.4,0.9v33.9C195.4,41.3,194.2,44.5,191.6,46.8z"/>
	<path class="st1" d="M227.5,49c-0.3,0.3-0.6,0.4-1,0.4h-10c-0.6,0-1-0.4-1.2-1.1l-0.8-4.6h-4.1c-0.1,0.7-0.3,1.5-0.4,2.3
		c-0.2,0.8-0.3,1.5-0.4,2.3c0,0.3-0.2,0.5-0.4,0.7c-0.2,0.2-0.5,0.3-0.8,0.3h-10c-0.4,0-0.7-0.1-1-0.4c-0.3-0.3-0.4-0.6-0.3-1.1
		l7.8-44.8c0-0.3,0.2-0.5,0.4-0.7c0.2-0.2,0.5-0.3,0.8-0.3h12.7c0.3,0,0.5,0.1,0.8,0.3c0.2,0.2,0.4,0.5,0.4,0.7l7.8,44.8
		C227.9,48.4,227.8,48.7,227.5,49z M213.2,28.6c-0.2-1.5-0.3-2.9-0.4-4.3c-0.1-1.4-0.3-3-0.4-4.8c-0.2,2.2-0.3,4-0.4,5.4
		c-0.1,1.5-0.2,2.9-0.4,4.4s-0.2,2.6-0.3,3.3h2.4C213.5,31.4,213.4,30.1,213.2,28.6z"/>
	<path class="st1" d="M259.3,48.8c-0.2,0.4-0.6,0.6-1.1,0.6H248c-0.2,0-0.5-0.1-0.7-0.3c-0.2-0.2-0.4-0.4-0.5-0.6
		c-0.2-0.7-0.5-1.8-0.9-3.3c-0.4-1.5-0.5-3.5-0.5-5.9v-1c0-1.5,0-3-0.1-4.5c-0.1-1.5-0.2-2.4-0.4-3c-0.2-0.7-0.9-1-2-1v18.3
		c0,0.4-0.1,0.6-0.4,0.9c-0.2,0.2-0.5,0.4-0.9,0.4h-10.5c-0.4,0-0.6-0.1-0.9-0.4c-0.2-0.2-0.4-0.5-0.4-0.9V3.3
		c0-0.8,0.4-1.3,1.3-1.3h13.8c4.7,0,8.1,1.1,10.2,3.2c2.1,2.1,3.1,5.6,3.1,10.3c0,2.2-0.2,4.3-0.6,6.1c-0.4,1.8-1.4,3.3-3.1,4.4
		c1.3,1.1,2.2,2.7,2.6,4.7c0.4,1.4,0.6,2.7,0.7,4.1c0.1,1.4,0.2,2.7,0.2,4.1v0.7c0,1.8,0.1,3.5,0.4,5c0.2,1.5,0.5,2.5,0.8,3
		C259.5,48,259.5,48.4,259.3,48.8z M245.1,13.6c-0.4-0.7-1.1-1.1-2-1.1h-0.3v8.6h0.1c1,0,1.7-0.3,2.1-1s0.6-1.7,0.6-3.2
		C245.7,15.4,245.5,14.3,245.1,13.6z"/>
	<path class="st1" d="M274.7,49c-0.2,0.2-0.5,0.4-0.9,0.4h-10.4c-0.4,0-0.6-0.1-0.9-0.4c-0.2-0.2-0.4-0.5-0.4-0.9V3.3
		c0-0.8,0.4-1.3,1.3-1.3h10.4c0.8,0,1.3,0.4,1.3,1.3v44.8C275.1,48.5,275,48.8,274.7,49z"/>
	<path class="st1" d="M298.9,49.2c-0.2,0.6-0.6,0.9-1.2,0.9h-7.5c-0.4,0-0.8-0.2-1-0.5c-0.2-0.3-0.3-0.7-0.2-1.1l13-46.4
		c0.1-0.3,0.2-0.5,0.5-0.7c0.2-0.2,0.5-0.3,0.7-0.3h7.5c0.4,0,0.8,0.2,1,0.5c0.2,0.3,0.3,0.7,0.2,1.1L298.9,49.2z"/>
	<path class="st1" d="M342.3,49c-0.2,0.2-0.5,0.4-0.9,0.4h-9.8c-0.4,0-0.6-0.1-0.9-0.4c-0.2-0.2-0.3-0.5-0.3-0.9V15.5h-5.1
		c-0.4,0-0.7-0.1-0.9-0.4c-0.2-0.2-0.4-0.5-0.4-0.9V8.5c0-0.4,0.1-0.6,0.4-0.9c0.2-0.2,0.5-0.4,0.9-0.4c1.7,0,3.2-0.4,4.6-1.1
		c1.3-0.7,2.3-2.1,3-4.1c0.1-0.2,0.3-0.4,0.5-0.6c0.2-0.2,0.5-0.2,0.7-0.2h7.3c0.4,0,0.6,0.1,0.9,0.4c0.2,0.2,0.4,0.5,0.4,0.9v45.5
		C342.7,48.5,342.6,48.8,342.3,49z"/>
	<path class="st1" d="M370.2,46.3c-2.2,2.5-5.7,3.8-10.7,3.8s-8.5-1.3-10.7-3.8c-2.2-2.5-3.3-6.6-3.3-12.1v-17
		c0-5.5,1.1-9.6,3.3-12.1c2.2-2.5,5.8-3.8,10.7-3.8c4.9,0,8.5,1.3,10.6,3.8c2.2,2.5,3.2,6.6,3.2,12.1v17
		C373.4,39.7,372.3,43.8,370.2,46.3z M360.9,15.5c0-1.8-0.5-2.8-1.4-2.8s-1.4,0.9-1.4,2.8v20.4c0,1.8,0.5,2.8,1.5,2.8
		c0.9,0,1.3-0.9,1.3-2.8V15.5z"/>
	<path class="st1" d="M412.5,46.7c-2.4,2.3-6,3.5-10.5,3.5c-4.5,0-7.7-1.1-9.7-3.2c-2-2.1-3-5.5-3-10.1V29c0-0.8,0.4-1.3,1.3-1.3
		h9.1c0.4,0,0.7,0.1,0.9,0.4c0.2,0.2,0.4,0.5,0.4,0.9v6.3c0,1,0.1,1.8,0.2,2.3c0.1,0.5,0.5,0.8,1,0.8c0.5,0,0.8-0.3,0.9-0.8
		c0.2-0.5,0.2-1.3,0.2-2.3V3.3c0-0.4,0.1-0.6,0.3-0.9c0.2-0.2,0.5-0.4,0.9-0.4h10.5c0.8,0,1.3,0.4,1.3,1.3v32.3
		C416.2,40.6,415,44.3,412.5,46.7z"/>
	<path class="st1" d="M444.4,46.8c-2.6,2.3-6,3.4-10.4,3.4c-4.5,0-8.1-1.1-10.6-3.4c-2.5-2.2-3.8-5.4-3.8-9.6V3.3
		c0-0.4,0.1-0.6,0.4-0.9c0.2-0.2,0.5-0.4,0.9-0.4h10.5c0.8,0,1.3,0.4,1.3,1.3v32.8c0,1.4,0.4,2,1.3,2c0.9,0,1.3-0.9,1.3-2.8V3.3
		c0-0.8,0.4-1.3,1.3-1.3H447c0.4,0,0.6,0.1,0.9,0.4c0.2,0.2,0.4,0.5,0.4,0.9v33.9C448.2,41.3,446.9,44.5,444.4,46.8z"/>
	<path class="st1" d="M480.7,49c-0.2,0.2-0.5,0.4-0.9,0.4h-9.7c-0.2,0-0.5-0.1-0.7-0.3c-0.2-0.2-0.4-0.4-0.5-0.6L464.1,31v17.1
		c0,0.4-0.1,0.6-0.4,0.9c-0.2,0.2-0.5,0.4-0.9,0.4h-9c-0.4,0-0.6-0.1-0.9-0.4c-0.2-0.2-0.4-0.5-0.4-0.9V3.3c0-0.4,0.1-0.6,0.4-0.9
		c0.2-0.2,0.5-0.4,0.9-0.4h10c0.2,0,0.5,0.1,0.7,0.2c0.2,0.2,0.4,0.3,0.5,0.6l4.5,15V3.3c0-0.8,0.4-1.3,1.3-1.3h9
		c0.4,0,0.6,0.1,0.9,0.4c0.2,0.2,0.4,0.5,0.4,0.9v44.8C481.1,48.5,481,48.8,480.7,49z"/>
	<path class="st1" d="M497.9,49c-0.2,0.2-0.5,0.4-0.9,0.4h-10.4c-0.4,0-0.7-0.1-0.9-0.4c-0.2-0.2-0.4-0.5-0.4-0.9V3.3
		c0-0.8,0.4-1.3,1.3-1.3H497c0.8,0,1.3,0.4,1.3,1.3v44.8C498.2,48.5,498.1,48.8,497.9,49z"/>
	<path class="st1" d="M539.8,24.5c-1.3,2.3-2.6,4.3-4,5.9l-6.3,7.1h10.6c0.4,0,0.6,0.1,0.9,0.4c0.2,0.2,0.4,0.5,0.4,0.9v9.2
		c0,0.4-0.1,0.6-0.4,0.9c-0.2,0.2-0.5,0.4-0.9,0.4h-23.9c-0.4,0-0.6-0.1-0.9-0.4c-0.2-0.2-0.3-0.5-0.3-0.9V38l9.3-12.3
		c0.6-0.7,1.1-1.5,1.7-2.4c0.6-0.8,1.1-1.7,1.7-2.5c1.1-1.6,1.6-3.4,1.6-5.3c0-1.7-0.5-2.5-1.4-2.5c-1,0-1.5,0.8-1.5,2.3v3
		c0,0.4-0.1,0.6-0.4,0.9c-0.2,0.2-0.5,0.4-0.9,0.4h-9.1c-0.4,0-0.6-0.1-0.9-0.4c-0.2-0.2-0.4-0.5-0.4-0.9v-3c0-4.5,1.1-7.9,3.4-10.4
		c2.3-2.4,5.6-3.6,9.8-3.6s7.6,1.3,10,3.8s3.6,6,3.6,10.4C541.9,19,541.2,22,539.8,24.5z"/>
	<path class="st1" d="M568.6,46.3c-2.2,2.5-5.7,3.8-10.7,3.8s-8.5-1.3-10.7-3.8c-2.2-2.5-3.3-6.6-3.3-12.1v-17
		c0-5.5,1.1-9.6,3.3-12.1c2.2-2.5,5.8-3.8,10.7-3.8c4.9,0,8.5,1.3,10.6,3.8c2.2,2.5,3.2,6.6,3.2,12.1v17
		C571.9,39.7,570.8,43.8,568.6,46.3z M559.4,15.5c0-1.8-0.5-2.8-1.4-2.8s-1.4,0.9-1.4,2.8v20.4c0,1.8,0.5,2.8,1.5,2.8
		c0.9,0,1.3-0.9,1.3-2.8V15.5z"/>
	<path class="st1" d="M592.8,49c-0.2,0.2-0.5,0.4-0.9,0.4h-9.8c-0.4,0-0.6-0.1-0.9-0.4c-0.2-0.2-0.3-0.5-0.3-0.9V15.5h-5.1
		c-0.4,0-0.7-0.1-0.9-0.4c-0.2-0.2-0.4-0.5-0.4-0.9V8.5c0-0.4,0.1-0.6,0.4-0.9c0.2-0.2,0.5-0.4,0.9-0.4c1.7,0,3.2-0.4,4.6-1.1
		c1.3-0.7,2.3-2.1,3-4.1c0.1-0.2,0.3-0.4,0.5-0.6c0.2-0.2,0.5-0.2,0.7-0.2h7.3c0.4,0,0.6,0.1,0.9,0.4c0.2,0.2,0.4,0.5,0.4,0.9v45.5
		C593.2,48.5,593.1,48.8,592.8,49z"/>
	<path class="st1" d="M621.3,44.2c-2,4-5.8,5.9-11.5,5.9c-3.9,0-7-1.1-9.4-3.4c-2.4-2.3-3.6-5.2-3.6-8.7v-2.3c0-0.4,0.1-0.6,0.3-0.9
		c0.2-0.2,0.5-0.4,0.9-0.4h9.2c0.4,0,0.6,0.1,0.9,0.4c0.2,0.2,0.3,0.5,0.3,0.9v1c0,1.8,0.4,2.8,1.2,2.8c1.1,0,1.6-1.1,1.6-3.2
		c0-0.6,0-1.3,0-2c0-0.7,0-1.6,0-2.4c-0.8,0.5-1.6,0.9-2.4,1.2s-1.6,0.4-2.5,0.4c-3.7,0-6.3-1.3-7.9-4c-1.6-2.7-2.4-6.6-2.4-11.7
		c0-5.6,1.1-9.7,3.3-12.3c2.2-2.6,5.8-4,10.7-4c4.8,0,8.4,1.7,10.8,5.1c2.2,3.2,3.2,8.9,3.2,17v0.9C624,33.9,623.1,40.5,621.3,44.2z
		 M611,16.2c-0.1-0.8-0.1-1.4-0.1-1.9v-0.1c-0.1-1.1-0.5-1.7-1.2-1.7c-0.6,0-1,0.4-1.3,1.2c-0.2,0.8-0.3,1.9-0.3,3.4
		c0,1.2,0.1,2.1,0.4,2.8c0.2,0.7,0.6,1,1.2,1c0.6,0,0.9-0.2,1.1-0.5v0.1c0.1-0.1,0.2-0.2,0.2-0.5c0.1-0.2,0.1-0.6,0.2-1.1
		C611.1,17.9,611.1,17,611,16.2z"/>
</g>
</svg>
