<?xml version="1.0" encoding="utf-8"?>
<!-- Generator: Adobe Illustrator 23.0.2, SVG Export Plug-In . SVG Version: 6.00 Build 0)  -->
<svg version="1.1" id="Laag_1" xmlns="http://www.w3.org/2000/svg" xmlns:xlink="http://www.w3.org/1999/xlink" x="0px" y="0px"
	 width="542.4px" height="144.8px" viewBox="0 0 542.4 144.8" style="enable-background:new 0 0 542.4 144.8;" xml:space="preserve"
	>
<style type="text/css">
	.st0{fill:#FFFFFF;}
</style>
<g>
	<path class="st0" d="M183.9,74.1c-0.5-2-2.7-1.4-2.8-1c-0.1,0.4-4.6,19.1-6.9,28.7c0.3,1.8,1.7,1.4,2.7,1.6
		C184.5,98,184.5,83,183.9,74.1 M79,74.1c2.6-4.5,5.3-10.7,7.7-15.3c9.1-17.6,20.6-31.5,39.7-40.6c8.4-4,11.9-2.1,10.9,6.5
		c-1.3,11.2-4.1,22.1-5.7,33.3c-2.1,14.9-5.9,28.1-1.9,41.5c0.4,0.8,0.8,1.8,2.7,3.4c2.3-0.6,4.5-2.5,6.2-4.6
		c15.8-19,29.7-35.8,42.1-50.5c1.6-1.9,6.5-4.1,8.5-3.6c2,0.4,0,9.3,0,14.3c6.8-8.9,15-12.3,24.5-10.7c8.1,1.4,13.6,3.4,14.5,27.9
		c4.6-3.6,8.1-6.8,12.1-9.3c2.5-1.6,6.8-4.2,8.7-3.2c1.9,0.9,1.6,5.2,1.8,7.9c0.5,8.4-2.8,17.1,2.5,25.3c0.7,1.1-1.1,5.5-2.5,6.1
		c-1.3,0.6-4.8-1.4-5.5-2.9c-1.4-2.9-2.1-6.4-2.2-9.6c-0.1-5.6,0.5-11.2,0.9-18.3c-16.9,8.8-27.3,38-33.5,37.9
		c-2-2.1,0.2-6.4,0.8-8.6c2.7-9.2,5.9-18.2,8.5-27.5c2.6-9.3-1.1-16.1-9-17.6c-9.7-1.9-18.4,4-19.7,13.4c-1.1,8.2-1.3,16.6-3.1,24.7
		c-1.5,6.4-4.4,12.6-7.6,18.5c-1.1,2-4.7,4.2-7,3.7c-3.4-0.6-6-5.6-5.8-8.3c0.9-9.5,3.1-18.9,5.1-28.2c1.1-4.8,2.8-9.5,4.9-16.2
		c-9.4,6.9-16.6,14.8-22.1,22.8c-6.4,9.4-13.4,16.7-20.8,25.4c-1.6,1.9-6.7,3.6-8.4,2.6c-2.8-1.6-5.8-5.5-5.7-8.3
		c1-16.3,2.7-32.5,4.8-48.7c1.1-8.6,3.4-15.3,4.8-23.8c0.3-1.8-0.8-4.4-2.2-5.6c-0.9-0.8-3.9-0.4-5.4,0.4
		c-15,8.2-25.6,21.8-32.5,36.7c-4.2,9.2-9,16.5-12.3,25.9c-3.9,11-6.3,17.9-9.7,29.1c-1.1,3.7-3.1,7.2-5,10.7
		c-0.2,0.4-1.7,1.9-3.3-0.2c-0.1-3.9-1-8.1,0.3-11.6c7.6-20.1,10.2-38,10.5-59.2c0.1-8.8,0-17.9-1.9-26.5c-0.9-4.2-3.9-10.9-9.5-11
		c-1.4,0-6.2,2.5-9,4.6c-9.5,7.1-10,16.8-11,27.7c-0.8,9.2-0.8,15.8-2.5,25.3c-0.5,6.3-2.3,13-3.2,19.4c-2.6,14.6-7,26.2-12.1,40.9
		c-0.5,1.5-1.9,3.7-3.7,3.7c-1.8,0-2.8-3.6-2.6-5.3c1.2-12.4,4.1-23.8,5.3-36.2c1.7-19.2,6.4-35.5,11.5-54
		c1.6-5.8,0.4-12.4-0.1-18.5c-0.4-4.8-1.8-9.4-2.7-14.2c-1.1-6.4-5.5-8.2-10.7-3.9C10.7,18.5,9.1,28,8.2,37.2
		C6.9,50.3,6.7,63.5,5.9,76.7c-0.2,2.6-1.2,5.2-1.8,7.8c-1.4,1-2.2,0.9-2.5-0.2c-0.3-6.2-1.1-12.4-0.8-18.5c0.4-9.4,1.5-18.7,2.5-28
		C4.6,25.7,9.9,15.1,18.1,6c2.8-3.1,8.1-6,11.7-5.1c3.6,0.9,4.6,6.4,6,10.7c1.8,5.5,2.6,11.4,4.2,19.1c6.1-6.3,10.2-11,14.8-15.4
		c5.9-5.7,14.1-4.8,17.5,2.5c6.4,14,6.7,28.8,5,43.7c-0.5,4-0.8,7.9-1.2,11.9C76.3,76.7,77.8,76.2,79,74.1"/>
	<path class="st0" d="M519.7,60.8c5.7,0,10.2,2.9,10.2,8.9c0,5.6-4.5,8.8-10.2,8.8h-15.2V60.8H519.7z M496.7,101.5h7.8V84.2h9.3
		l18.5,17.3h9v-1.2l-17.8-16.2c8.2-1,14.5-6.4,14.5-14.5c0-10.4-7.8-15-19.1-15h-22.2V101.5z M444.1,54.5h-7.8v27.5
		c0,11.7,7.6,20.2,22.4,20.2c14.9,0,22.6-9.3,22.6-20.2V54.5h-7.8v27c0,8.1-4.7,14-14.8,14c-10,0-14.6-5.5-14.6-13.9V54.5z
		 M424.2,101.5v-6.4h-32.1V80.4h26.6v-6.4h-26.6V60.9h32.1v-6.4h-39.6v46.9H424.2z M374.6,101.5v-6.3h-27.9V54.5h-7.8v46.9H374.6z
		 M323.3,83.5v-6.4h-26.5V60.9h30.6v-6.4h-38.1v46.9h7.5v-18H323.3z M265.1,97.6c0,3.1,1.9,4.8,5.2,4.8c3.3,0,5.2-1.7,5.2-4.8
		c0-3-1.9-4.8-5.2-4.8C266.9,92.9,265.1,94.6,265.1,97.6 M265.1,69.2c0,3.1,1.9,4.8,5.2,4.8c3.3,0,5.2-1.7,5.2-4.8
		c0-3-1.9-4.8-5.2-4.8C266.9,64.4,265.1,66.1,265.1,69.2"/>
</g>
</svg>
