<?xml version="1.0" encoding="utf-8"?>
<!-- Generator: Adobe Illustrator 24.0.0, SVG Export Plug-In . SVG Version: 6.00 Build 0)  -->
<svg version="1.1" id="Laag_1" xmlns="http://www.w3.org/2000/svg" xmlns:xlink="http://www.w3.org/1999/xlink" x="0px" y="0px"
	 width="111px" height="26.7px" viewBox="0 0 111 26.7" style="enable-background:new 0 0 111 26.7;" xml:space="preserve">
<style type="text/css">
	.st0{fill:#E2001A;}
</style>
<g>
	<path class="st0" d="M24,9.1c0.4,0,0.7,0.1,1,0.2s0.6,0.3,0.8,0.5c0.2,0.2,0.4,0.5,0.5,0.8c0.1,0.3,0.2,0.6,0.2,0.9
		c0,0.5-0.1,0.9-0.3,1.3c-0.2,0.4-0.6,0.6-1,0.8v0c0.2,0.1,0.4,0.2,0.6,0.3s0.3,0.3,0.4,0.5c0.1,0.2,0.2,0.4,0.2,0.6
		s0.1,0.4,0.1,0.6c0,0.1,0,0.3,0,0.5c0,0.2,0,0.4,0,0.6c0,0.2,0.1,0.4,0.1,0.5c0,0.2,0.1,0.3,0.2,0.4h-1.9c-0.1-0.3-0.2-0.6-0.2-1
		s-0.1-0.7-0.1-1.1c-0.1-0.4-0.2-0.8-0.4-1c-0.2-0.2-0.5-0.3-1-0.3h-1.9v3.3h-1.9V9.1H24z M23.3,12.9c0.4,0,0.8-0.1,1-0.3
		c0.2-0.2,0.3-0.5,0.3-0.9c0-0.4-0.1-0.7-0.3-0.9c-0.2-0.2-0.5-0.3-1-0.3h-2.1v2.4H23.3z"/>
	<path class="st0" d="M34.4,9.1v1.6h-4.5v1.8h4.2V14h-4.2v2.1h4.6v1.6H28V9.1H34.4z"/>
	<path class="st0" d="M40.1,9.1l3.2,8.6h-2l-0.6-1.9h-3.2l-0.7,1.9h-1.9l3.2-8.6H40.1z M40.2,14.3l-1.1-3.1h0L38,14.3H40.2z"/>
	<path class="st0" d="M47.7,9.1c0.6,0,1.1,0.1,1.5,0.3s0.9,0.4,1.2,0.8c0.3,0.4,0.6,0.8,0.8,1.3c0.2,0.5,0.3,1.1,0.3,1.9
		c0,0.6-0.1,1.2-0.2,1.7c-0.2,0.5-0.4,1-0.7,1.4c-0.3,0.4-0.7,0.7-1.2,0.9s-1.1,0.3-1.7,0.3H44V9.1H47.7z M47.6,16.1
		c0.3,0,0.5,0,0.8-0.1c0.3-0.1,0.5-0.2,0.7-0.4c0.2-0.2,0.4-0.5,0.5-0.8c0.1-0.3,0.2-0.7,0.2-1.2c0-0.4,0-0.8-0.1-1.2
		c-0.1-0.3-0.2-0.6-0.4-0.9c-0.2-0.2-0.4-0.4-0.8-0.6c-0.3-0.1-0.7-0.2-1.2-0.2h-1.3v5.4H47.6z"/>
	<path class="st0" d="M58.9,9.1l2,5.9h0l1.9-5.9h2.7v8.6h-1.8v-6.1h0l-2.1,6.1h-1.5l-2.1-6h0v6h-1.8V9.1H58.9z"/>
	<path class="st0" d="M67,11.6c0.2-0.5,0.5-1,0.8-1.4c0.4-0.4,0.8-0.7,1.3-1s1.1-0.3,1.8-0.3c0.7,0,1.3,0.1,1.8,0.3
		c0.5,0.2,1,0.6,1.3,1c0.4,0.4,0.6,0.9,0.8,1.4c0.2,0.5,0.3,1.1,0.3,1.8c0,0.6-0.1,1.2-0.3,1.7c-0.2,0.5-0.5,1-0.8,1.4
		c-0.4,0.4-0.8,0.7-1.3,0.9c-0.5,0.2-1.1,0.3-1.8,0.3c-0.7,0-1.2-0.1-1.8-0.3c-0.5-0.2-1-0.5-1.3-0.9c-0.4-0.4-0.6-0.9-0.8-1.4
		c-0.2-0.5-0.3-1.1-0.3-1.7C66.8,12.8,66.9,12.2,67,11.6z M68.8,14.4c0.1,0.3,0.2,0.6,0.4,0.9c0.2,0.3,0.4,0.5,0.7,0.7
		s0.7,0.2,1.1,0.2c0.4,0,0.8-0.1,1.1-0.2c0.3-0.2,0.5-0.4,0.7-0.7c0.2-0.3,0.3-0.6,0.4-0.9c0.1-0.3,0.1-0.7,0.1-1
		c0-0.4,0-0.7-0.1-1.1c-0.1-0.4-0.2-0.7-0.4-0.9c-0.2-0.3-0.4-0.5-0.7-0.7c-0.3-0.2-0.7-0.2-1.1-0.2c-0.4,0-0.8,0.1-1.1,0.2
		c-0.3,0.2-0.5,0.4-0.7,0.7c-0.2,0.3-0.3,0.6-0.4,0.9c-0.1,0.4-0.1,0.7-0.1,1.1C68.6,13.8,68.7,14.1,68.8,14.4z"/>
	<path class="st0" d="M81.1,9.1c0.4,0,0.7,0.1,1,0.2c0.3,0.1,0.6,0.3,0.8,0.5c0.2,0.2,0.4,0.5,0.5,0.8c0.1,0.3,0.2,0.6,0.2,0.9
		c0,0.5-0.1,0.9-0.3,1.3c-0.2,0.4-0.6,0.6-1,0.8v0c0.2,0.1,0.4,0.2,0.6,0.3c0.2,0.1,0.3,0.3,0.4,0.5c0.1,0.2,0.2,0.4,0.2,0.6
		s0.1,0.4,0.1,0.6c0,0.1,0,0.3,0,0.5c0,0.2,0,0.4,0,0.6c0,0.2,0.1,0.4,0.1,0.5c0,0.2,0.1,0.3,0.2,0.4H82c-0.1-0.3-0.2-0.6-0.2-1
		c0-0.4-0.1-0.7-0.1-1.1c-0.1-0.4-0.2-0.8-0.4-1s-0.5-0.3-1-0.3h-1.9v3.3h-1.9V9.1H81.1z M80.4,12.9c0.4,0,0.8-0.1,1-0.3
		c0.2-0.2,0.3-0.5,0.3-0.9c0-0.4-0.1-0.7-0.3-0.9c-0.2-0.2-0.5-0.3-1-0.3h-2.1v2.4H80.4z"/>
	<path class="st0" d="M91.5,9.1v1.6H87v1.8h4.2V14H87v2.1h4.6v1.6h-6.5V9.1H91.5z"/>
</g>
</svg>
