<?xml version="1.0" encoding="utf-8"?>
<!-- Generator: Adobe Illustrator 24.3.0, SVG Export Plug-In . SVG Version: 6.00 Build 0)  -->
<svg version="1.1" id="Laag_1" xmlns="http://www.w3.org/2000/svg" xmlns:xlink="http://www.w3.org/1999/xlink" x="0px" y="0px"
	 width="139.1px" height="30px" viewBox="0 0 139.1 30" style="enable-background:new 0 0 139.1 30;" xml:space="preserve">
<style type="text/css">
	.st0{fill:#5F3A4E;}
</style>
<g>
	<g>
		<g>
			<path class="st0" d="M8.2,7.1h1.2l-1.7,7.1H6.2L4.8,8.9H4.7l-1.4,5.3H1.7L0,7.1h1.2l1.3,5.8h0.1L4,7.6h1.5l1.4,5.3H7L8.2,7.1z"/>
			<path class="st0" d="M13.6,14.3c-1,0-1.9-0.3-2.6-1s-1-1.6-1-2.6s0.3-1.9,1-2.6s1.5-1,2.6-1c1,0,1.9,0.3,2.6,1s1,1.6,1,2.6
				c0,1.1-0.3,1.9-1,2.6S14.6,14.3,13.6,14.3z M13.5,13.2c0.7,0,1.2-0.2,1.7-0.7s0.6-1.1,0.6-1.8s-0.2-1.3-0.7-1.8
				c-0.4-0.5-1-0.7-1.7-0.7s-1.2,0.2-1.7,0.7c-0.4,0.5-0.6,1.1-0.6,1.8s0.2,1.3,0.6,1.8C12.3,13,12.9,13.2,13.5,13.2z"/>
			<path class="st0" d="M25.4,10.5c-1.3,0.9-2,1.7-2.1,2.5h4.3v1.2h-5.9v-0.5c0-1.5,0.8-2.8,2.5-3.8c0.9-0.6,1.5-1,1.7-1.2
				c0.3-0.3,0.5-0.7,0.5-1c0-0.4-0.1-0.8-0.4-1c-0.3-0.3-0.7-0.4-1.1-0.4c-0.6,0-1,0.2-1.3,0.6s-0.4,0.8-0.5,1.4h-1.3
				c0-0.5,0.1-1,0.3-1.4c0.2-0.4,0.5-0.8,1-1.2S24.2,5,24.9,5c0.8,0,1.5,0.2,2.1,0.7c0.5,0.5,0.8,1.1,0.8,1.9c0,0.6-0.2,1.2-0.6,1.6
				C26.8,9.5,26.2,10,25.4,10.5z"/>
			<path class="st0" d="M33.4,9.4c0.5,0.2,0.9,0.4,1.1,0.8c0.3,0.4,0.4,0.9,0.4,1.4c0,0.8-0.3,1.4-0.8,1.9s-1.3,0.7-2.2,0.7
				c-1,0-1.7-0.3-2.2-0.8s-0.8-1.2-0.9-2H30c0,0.5,0.2,0.8,0.5,1.2s0.7,0.5,1.3,0.5c0.5,0,0.9-0.1,1.3-0.4s0.5-0.7,0.5-1.2
				s-0.2-0.9-0.5-1.2s-0.8-0.5-1.3-0.5h-0.5v-1h0.5c0.5,0,0.8-0.1,1.1-0.4c0.3-0.3,0.4-0.6,0.4-1s-0.1-0.7-0.4-1S32.4,6.1,32,6.1
				c-0.4,0-0.8,0.1-1.1,0.4c-0.3,0.2-0.4,0.6-0.5,1h-1.2c0-0.7,0.3-1.3,0.8-1.8C30.5,5.2,31.2,5,32,5s1.4,0.2,1.9,0.7s0.7,1,0.7,1.7
				C34.6,8.2,34.2,8.9,33.4,9.4L33.4,9.4z"/>
			<path class="st0" d="M5.5,25.4c0,0.6-0.2,1.1-0.7,1.4S3.7,27.3,3,27.3c-0.8,0-1.5-0.2-2-0.7s-0.8-1-0.8-1.7h1.2
				c0,0.5,0.2,0.8,0.5,1.1c0.3,0.2,0.7,0.4,1.1,0.4s0.7-0.1,0.9-0.3c0.2-0.2,0.4-0.4,0.4-0.7c0-0.3-0.1-0.6-0.4-0.8
				c-0.3-0.2-0.7-0.4-1.2-0.5c-0.3-0.1-0.6-0.2-0.8-0.3s-0.5-0.2-0.7-0.4C1,23.2,0.8,23,0.7,22.8S0.4,22.3,0.4,22
				c0-0.6,0.2-1.1,0.7-1.4s1-0.5,1.8-0.5c0.7,0,1.3,0.2,1.8,0.6s0.7,0.9,0.7,1.5H4.2c0-0.3-0.2-0.6-0.4-0.8S3.2,21,2.8,21
				c-0.3,0-0.6,0.1-0.8,0.2c-0.2,0.2-0.3,0.4-0.3,0.7c0,0.3,0.1,0.5,0.4,0.7c0.2,0.2,0.6,0.4,1.1,0.5C4,23.3,4.5,23.6,5,24
				C5.3,24.3,5.5,24.8,5.5,25.4z"/>
			<path class="st0" d="M9.7,20c1,0,1.8,0.3,2.4,1s0.9,1.6,0.8,2.9H7.6c0,0.7,0.3,1.3,0.6,1.7c0.4,0.4,0.9,0.6,1.6,0.6
				c0.4,0,0.8-0.1,1.1-0.3s0.6-0.5,0.7-0.8h1.2c-0.2,0.7-0.6,1.2-1.1,1.6c-0.6,0.4-1.2,0.6-2,0.6c-1.1,0-1.9-0.3-2.5-1
				s-0.9-1.6-0.9-2.7s0.3-1.9,1-2.6C8,20.3,8.8,20,9.7,20z M7.6,23h4.1c0-0.5-0.2-1-0.6-1.4c-0.4-0.4-0.8-0.6-1.4-0.6
				c-0.6,0-1,0.2-1.4,0.5C8,21.9,7.7,22.4,7.6,23z"/>
			<path class="st0" d="M17.8,20c0.9,0,1.7,0.3,2.3,1c0.6,0.7,0.9,1.6,0.9,2.6s-0.3,2-0.9,2.6c-0.6,0.7-1.4,1-2.3,1
				c-1.1,0-1.8-0.4-2.2-1.2v4h-1.2v-9.9h0.9l0.2,1h0.1C16.1,20.4,16.8,20,17.8,20z M17.6,26.2c0.6,0,1.2-0.2,1.6-0.7
				s0.6-1.1,0.6-1.8s-0.2-1.4-0.6-1.8c-0.4-0.5-0.9-0.7-1.6-0.7c-0.6,0-1.1,0.2-1.5,0.7s-0.6,1.1-0.6,1.8c0,0.8,0.2,1.4,0.6,1.8
				C16.5,26,17,26.2,17.6,26.2z"/>
		</g>
	</g>
	<g>
		<g>
			<path class="st0" d="M108.7,13.3h3.6v1.1H107v-0.8l3.6-5.1V8.4h-3.4V7.3h5.1v0.8L108.7,13.3L108.7,13.3z"/>
			<path class="st0" d="M119.9,13.2l0.5,0.8c-0.1,0.1-0.2,0.3-0.4,0.4c-0.2,0.1-0.4,0.2-0.6,0.2c-0.4,0-0.7-0.1-0.9-0.3
				s-0.4-0.4-0.4-0.8c-0.6,0.7-1.4,1.1-2.4,1.1c-0.7,0-1.3-0.2-1.7-0.5s-0.7-0.8-0.7-1.5s0.3-1.3,0.8-1.6c0.6-0.4,1.3-0.6,2.4-0.7
				l1.3-0.1V9.9c0-0.5-0.1-1-0.4-1.3c-0.3-0.3-0.6-0.5-1.1-0.5s-0.8,0.1-1.1,0.4c-0.3,0.3-0.4,0.6-0.5,1h-1.2
				c0.1-0.7,0.3-1.3,0.8-1.7s1.1-0.7,1.9-0.7c0.8,0,1.5,0.2,2,0.7S119,9.1,119,10v2.7c0,0.5,0.2,0.8,0.5,0.8
				C119.6,13.5,119.8,13.4,119.9,13.2z M115.8,13.5c0.5,0,1-0.2,1.4-0.5s0.6-0.8,0.6-1.5V11l-1.2,0.1c-0.7,0.1-1.2,0.2-1.6,0.4
				c-0.4,0.2-0.6,0.5-0.6,0.9c0,0.3,0.1,0.6,0.4,0.8C115.1,13.4,115.4,13.5,115.8,13.5z"/>
			<path class="st0" d="M127.7,10.7c-1.3,0.9-2,1.7-2.1,2.5h4.3v1.2H124v-0.5c0-1.5,0.8-2.8,2.5-3.8c0.9-0.6,1.5-1,1.7-1.2
				c0.3-0.3,0.5-0.7,0.5-1c0-0.4-0.1-0.8-0.4-1c-0.3-0.3-0.7-0.4-1.1-0.4c-0.6,0-1,0.2-1.3,0.6s-0.4,0.8-0.5,1.4h-1.3
				c0-0.5,0.1-1,0.3-1.4s0.5-0.8,1-1.2s1.1-0.5,1.7-0.5c0.8,0,1.5,0.2,2.1,0.7c0.5,0.5,0.8,1.1,0.8,1.9c0,0.6-0.2,1.2-0.6,1.6
				C129,9.8,128.5,10.2,127.7,10.7z"/>
			<path class="st0" d="M137,13.3c-0.6,0.8-1.4,1.2-2.4,1.2s-1.8-0.4-2.4-1.2c-0.6-0.8-0.9-2-0.9-3.5s0.3-2.7,0.9-3.5
				c0.6-0.8,1.4-1.2,2.4-1.2s1.8,0.4,2.4,1.2c0.6,0.8,0.9,2,0.9,3.5C137.9,11.4,137.6,12.6,137,13.3z M133.2,12.5
				c0.3,0.6,0.8,0.9,1.4,0.9s1.1-0.3,1.4-0.9c0.3-0.6,0.5-1.4,0.5-2.6s-0.2-2-0.5-2.6c-0.4-0.6-0.8-0.9-1.4-0.9
				c-0.6,0-1.1,0.3-1.4,0.9c-0.3,0.6-0.5,1.4-0.5,2.6S132.9,11.9,133.2,12.5z"/>
			<path class="st0" d="M120.1,20.2c0.8,0,1.4,0.3,1.9,0.8s0.7,1.3,0.7,2.2v4.2h-1.3v-4c0-0.7-0.2-1.2-0.5-1.5
				c-0.3-0.4-0.7-0.5-1.3-0.5c-0.5,0-0.9,0.2-1.2,0.5s-0.5,0.8-0.5,1.5v4.1h-1.3v-7.1h1l0.2,0.9h0.1
				C118.4,20.6,119.1,20.2,120.1,20.2z"/>
			<path class="st0" d="M127.5,27.6c-1,0-1.9-0.3-2.6-1s-1-1.6-1-2.6s0.3-1.9,1-2.6s1.5-1,2.6-1c1,0,1.9,0.3,2.6,1s1,1.6,1,2.6
				c0,1.1-0.3,1.9-1,2.6S128.5,27.6,127.5,27.6z M127.4,26.4c0.7,0,1.2-0.2,1.7-0.7s0.6-1.1,0.6-1.8c0-0.7-0.2-1.3-0.7-1.8
				c-0.4-0.5-1-0.7-1.7-0.7s-1.2,0.2-1.7,0.7c-0.4,0.5-0.6,1.1-0.6,1.8c0,0.7,0.2,1.3,0.6,1.8C126.2,26.2,126.8,26.4,127.4,26.4z"/>
			<path class="st0" d="M137,20.4h1.3l-2.6,7.1H134l-2.6-7.1h1.3l2.1,5.9h0.1L137,20.4z"/>
		</g>
	</g>
	<rect x="39.8" y="9.6" class="st0" width="61.6" height="0.8"/>
</g>
</svg>
