<?xml version="1.0" encoding="utf-8"?>
<!-- Generator: Adobe Illustrator 24.3.0, SVG Export Plug-In . SVG Version: 6.00 Build 0)  -->
<svg version="1.1" id="Laag_1" xmlns="http://www.w3.org/2000/svg" xmlns:xlink="http://www.w3.org/1999/xlink" x="0px" y="0px"
	 width="161.8px" height="56px" viewBox="0 0 161.8 56" style="enable-background:new 0 0 161.8 56;" xml:space="preserve">
<style type="text/css">
	.st0{fill:#97825B;}
</style>
<g>
	<path class="st0" d="M4,8.8h4.6v2.1H0l5.1-8.6H0.8V0.2h8.3L4,8.8z"/>
	<path class="st0" d="M16.2,0c1.7,0,3.1,0.5,4.1,1.6c0.5,0.5,0.9,1.1,1.2,1.8S22,4.8,22,5.6c0,0.7-0.1,1.4-0.4,2.1S20.9,9,20.3,9.6
		c-0.5,0.5-1.1,0.9-1.8,1.1c-0.7,0.3-1.5,0.4-2.4,0.4c-0.5,0-1,0-1.4-0.1s-0.8-0.2-1.1-0.4s-0.6-0.3-0.9-0.5S12.2,9.8,12,9.6
		c-0.5-0.5-0.9-1.1-1.2-1.8s-0.4-1.4-0.4-2.2c0-0.4,0-0.8,0.1-1.1c0.1-0.4,0.2-0.7,0.3-1.1s0.3-0.7,0.5-1s0.4-0.6,0.7-0.8
		c0.2-0.2,0.4-0.4,0.7-0.6s0.6-0.4,0.9-0.5s0.7-0.3,1.2-0.4C15.1,0,15.6,0,16.2,0z M16.1,2.3c-0.5,0-0.9,0.1-1.3,0.2
		c-0.4,0.2-0.8,0.4-1,0.7c-0.2,0.2-0.5,0.5-0.7,0.9S12.8,5,12.8,5.6c0,1,0.3,1.8,1,2.4c0.3,0.3,0.7,0.6,1.1,0.7s0.8,0.2,1.2,0.2
		c0.5,0,1-0.1,1.4-0.3s0.7-0.4,1-0.6c0.2-0.2,0.4-0.5,0.6-0.9s0.3-0.9,0.3-1.5s-0.1-1-0.3-1.4c-0.2-0.4-0.4-0.7-0.7-1
		c-0.3-0.3-0.6-0.5-1-0.6S16.6,2.3,16.1,2.3z"/>
	<path class="st0" d="M27.4,3.4c0.1-0.4,0.2-0.9,0.4-1.3C28,1.7,28.2,1.3,28.5,1c0.4-0.4,0.8-0.7,1.3-0.8S30.7,0,31.2,0
		c0.7,0,1.2,0.1,1.7,0.3C33.3,0.5,33.7,0.7,34,1c0.2,0.2,0.4,0.5,0.6,0.9c0.2,0.4,0.2,0.8,0.2,1.3c0,0.3,0,0.5-0.1,0.8
		c-0.1,0.2-0.2,0.5-0.3,0.7C34.2,4.8,34.1,4.9,34,5s-0.3,0.2-0.4,0.3c0.2,0.1,0.4,0.2,0.7,0.3s0.4,0.3,0.6,0.5
		c0.2,0.2,0.3,0.5,0.4,0.8c0.1,0.3,0.1,0.6,0.1,0.9c0,0.4-0.1,0.8-0.3,1.3c-0.2,0.4-0.4,0.8-0.8,1.2c-0.5,0.4-0.9,0.7-1.4,0.8
		s-1,0.2-1.4,0.2c-0.5,0-1.1-0.1-1.6-0.2s-1.1-0.4-1.5-0.9c-0.3-0.3-0.6-0.7-0.8-1.1c-0.2-0.5-0.3-1-0.4-1.5h2.5
		c0,0.2,0.1,0.4,0.2,0.7c0.1,0.2,0.2,0.4,0.4,0.6c0.1,0.1,0.3,0.2,0.5,0.3c0-0.2,0.2-0.1,0.4-0.1s0.4,0,0.6-0.1
		c0.2-0.1,0.3-0.2,0.5-0.3s0.2-0.3,0.3-0.5s0.1-0.4,0.1-0.6s0-0.4-0.1-0.6s-0.2-0.3-0.3-0.4c-0.2-0.2-0.4-0.2-0.7-0.3
		s-0.5-0.1-0.7-0.1h-0.2V4.5h0.1c0.1,0,0.2,0,0.5,0c0.2,0,0.4-0.1,0.6-0.3C32,4.1,32.1,4,32.2,3.8s0.1-0.4,0.1-0.6
		c0-0.2,0-0.3-0.1-0.5c-0.1-0.1-0.2-0.3-0.3-0.4c-0.1-0.1-0.2-0.2-0.4-0.2C31.3,2,31.2,2,31,2s-0.4,0-0.6,0.1
		c-0.2,0.1-0.3,0.1-0.4,0.3c-0.1,0.1-0.2,0.3-0.3,0.5c-0.1,0.2-0.1,0.4-0.1,0.5C29.6,3.4,27.4,3.4,27.4,3.4z"/>
	<path class="st0" d="M40.1,2.3h-1.5V0.2h4v10.7h-2.5V2.3z"/>
	<path class="st0" d="M56.6,0c1.7,0,3.1,0.5,4.1,1.6c0.5,0.5,0.9,1.1,1.2,1.8s0.4,1.4,0.4,2.3c0,0.7-0.1,1.4-0.4,2.1
		c-0.3,0.7-0.7,1.3-1.3,1.9c-0.5,0.5-1.1,0.9-1.8,1.1c-0.7,0.3-1.5,0.4-2.4,0.4c-0.5,0-1,0-1.4-0.1s-0.8-0.2-1.1-0.4
		s-0.6-0.3-0.9-0.5s-0.5-0.4-0.7-0.6c-0.5-0.5-0.9-1.1-1.2-1.8s-0.4-1.4-0.4-2.2c0-0.4,0-0.8,0.1-1.1c0.1-0.4,0.2-0.7,0.3-1.1
		s0.3-0.7,0.5-1s0.4-0.6,0.7-0.8C52.5,1.4,52.7,1.2,53,1s0.6-0.4,0.9-0.5c0.3-0.1,0.7-0.3,1.2-0.4C55.6,0,56,0,56.6,0z M56.6,2.3
		c-0.5,0-0.9,0.1-1.3,0.2c-0.4,0.2-0.8,0.4-1,0.7c-0.2,0.2-0.5,0.5-0.7,0.9S53.3,5,53.3,5.6c0,1,0.3,1.8,1,2.4
		c0.3,0.3,0.7,0.6,1.1,0.7c0.4,0.1,0.8,0.2,1.2,0.2c0.5,0,1-0.1,1.4-0.3s0.7-0.4,1-0.6c0.2-0.2,0.4-0.5,0.6-0.9
		c0.2-0.4,0.3-0.9,0.3-1.5s-0.1-1-0.3-1.4s-0.4-0.7-0.7-1s-0.6-0.5-1-0.6C57.5,2.4,57.1,2.3,56.6,2.3z"/>
	<path class="st0" d="M66.9,4.7l3.6-4.4h3l-4.3,5.1l4.7,5.6h-3.2l-3.8-4.7V11h-2.5V0.2h2.5C66.9,0.2,66.9,4.7,66.9,4.7z"/>
	<path class="st0" d="M79,2.3v8.6h-2.5V2.3h-2.3V0.2h7.1v2.1H79z"/>
	<path class="st0" d="M88.1,0c1.7,0,3.1,0.5,4.1,1.6c0.5,0.5,0.9,1.1,1.2,1.8s0.4,1.4,0.4,2.3c0,0.7-0.1,1.4-0.4,2.1
		S92.8,9,92.2,9.6c-0.5,0.5-1.1,0.9-1.8,1.1c-0.7,0.3-1.5,0.4-2.4,0.4c-0.5,0-1,0-1.4-0.1s-0.8-0.2-1.1-0.4
		c-0.3-0.1-0.6-0.3-0.9-0.5s-0.5-0.4-0.7-0.6C83.4,9,83,8.4,82.7,7.7s-0.4-1.4-0.4-2.2c0-0.4,0-0.8,0.1-1.1c0.1-0.4,0.2-0.7,0.3-1.1
		s0.3-0.7,0.5-1s0.4-0.6,0.7-0.8c0.2-0.2,0.4-0.4,0.7-0.6c0.3-0.2,0.6-0.4,0.9-0.5s0.7-0.3,1.2-0.4C87.1,0,87.6,0,88.1,0z M88.1,2.3
		c-0.5,0-0.9,0.1-1.3,0.2c-0.4,0.2-0.8,0.4-1,0.7c-0.2,0.2-0.5,0.5-0.7,0.9S84.8,5,84.8,5.6c0,1,0.3,1.8,1,2.4
		c0.3,0.3,0.7,0.6,1.1,0.7s0.8,0.2,1.2,0.2c0.5,0,1-0.1,1.4-0.3s0.7-0.4,1-0.6c0.2-0.2,0.4-0.5,0.6-0.9s0.3-0.9,0.3-1.5
		s-0.1-1-0.3-1.4c-0.2-0.4-0.4-0.7-0.7-1c-0.3-0.3-0.6-0.5-1-0.6S88.6,2.3,88.1,2.3z"/>
	<path class="st0" d="M99.2,0.2c0.1,0,0.3,0,0.5,0s0.5,0,0.7,0.1c0.3,0.1,0.5,0.1,0.8,0.2c0.2,0.1,0.5,0.3,0.7,0.5s0.3,0.3,0.4,0.5
		s0.2,0.4,0.2,0.6s0.1,0.4,0.1,0.5c0,0.2,0,0.3,0,0.4c0,0.2,0,0.4-0.1,0.7c0,0.2-0.1,0.5-0.3,0.7c-0.1,0.2-0.3,0.4-0.5,0.5
		s-0.3,0.2-0.4,0.3c0.3,0,0.5,0.1,0.8,0.2s0.5,0.3,0.7,0.5s0.3,0.4,0.5,0.7c0.1,0.3,0.2,0.7,0.2,1.2s-0.1,1-0.3,1.3
		c-0.2,0.3-0.4,0.6-0.6,0.8s-0.5,0.4-0.7,0.5c-0.3,0.1-0.5,0.2-0.8,0.3s-0.5,0.1-0.7,0.1s-0.4,0-0.6,0h-4V0.2H99.2z M98.3,4.6h0.4
		c0.2,0,0.4,0,0.6-0.1c0.2,0,0.5-0.1,0.6-0.2s0.2-0.2,0.3-0.4c0.1-0.2,0.1-0.3,0.1-0.6c0-0.2,0-0.4-0.1-0.6s-0.2-0.3-0.3-0.3
		c-0.2-0.1-0.4-0.2-0.6-0.2s-0.4,0-0.7,0h-0.4L98.3,4.6L98.3,4.6z M98.3,9h0.6c0.3,0,0.6,0,1-0.1c0.3,0,0.6-0.2,0.8-0.4
		c0.2-0.2,0.3-0.5,0.3-0.9c0-0.2,0-0.4-0.1-0.5s-0.1-0.3-0.2-0.3c-0.1-0.1-0.2-0.2-0.4-0.2c-0.1-0.1-0.3-0.1-0.5-0.1s-0.3,0-0.5,0
		s-0.3,0-0.4,0h-0.7L98.3,9L98.3,9z"/>
	<path class="st0" d="M111.6,2.3H108v2.1h3.4v2.1H108v2.4h3.5V11h-6V0.2h6L111.6,2.3L111.6,2.3z"/>
	<path class="st0" d="M117.5,0.2c0.7,0,1.2,0.1,1.7,0.3c0.4,0.2,0.8,0.4,1,0.6s0.4,0.5,0.6,0.9s0.3,0.9,0.3,1.5
		c0,0.3-0.1,0.7-0.2,1.1s-0.3,0.7-0.7,1.1c-0.2,0.2-0.4,0.3-0.6,0.5c-0.3,0.1-0.5,0.3-0.8,0.3l3.3,4.4h-3l-2.9-4.2v4.2h-2.5V0.2
		H117.5z M116.2,5.1h0.6c0.2,0,0.5,0,0.7-0.1s0.5-0.2,0.7-0.4c0.1-0.1,0.2-0.2,0.3-0.4s0.1-0.4,0.1-0.7s-0.1-0.5-0.2-0.7
		s-0.2-0.3-0.3-0.4c-0.2-0.1-0.4-0.2-0.7-0.3c-0.3,0-0.5-0.1-0.6-0.1h-0.6V5.1z"/>
	<path class="st0" d="M134.9,10.9h-8.2l3.2-3.5c0.1-0.2,0.3-0.3,0.5-0.5s0.3-0.4,0.5-0.6s0.3-0.4,0.5-0.6s0.3-0.3,0.3-0.5
		c0.1-0.1,0.1-0.2,0.2-0.3s0.1-0.3,0.2-0.4s0.1-0.3,0.2-0.5c0-0.2,0.1-0.4,0.1-0.5c0-0.2,0-0.4-0.1-0.6c-0.1-0.2-0.2-0.3-0.3-0.5
		c-0.2-0.2-0.5-0.3-1-0.3c-0.2,0-0.4,0-0.6,0.1c-0.2,0.1-0.3,0.2-0.4,0.3c-0.1,0.2-0.3,0.4-0.3,0.6c-0.1,0.3-0.1,0.5-0.1,0.7H127
		c0-0.5,0.2-0.9,0.3-1.4c0.2-0.5,0.4-0.9,0.8-1.2c0.1-0.1,0.3-0.3,0.5-0.4s0.4-0.2,0.6-0.4c0.2-0.1,0.5-0.2,0.8-0.3s0.6-0.1,1-0.1
		s0.7,0,1,0.1s0.6,0.2,0.8,0.3s0.4,0.2,0.6,0.3c0.2,0.1,0.3,0.2,0.4,0.3c0.3,0.3,0.5,0.6,0.7,1.1c0.2,0.4,0.3,0.9,0.3,1.5
		c0,0.5-0.1,0.9-0.2,1.3c-0.1,0.4-0.3,0.7-0.6,1.1c-0.2,0.3-0.5,0.6-0.8,0.9s-0.6,0.6-0.9,0.9l-1.1,1.1h3.7L134.9,10.9L134.9,10.9z"
		/>
	<path class="st0" d="M145.3,5.6c0,0.9-0.1,1.8-0.4,2.5c-0.2,0.8-0.6,1.4-1.2,1.9c-0.3,0.3-0.7,0.6-1.2,0.8s-1,0.3-1.7,0.3
		c-0.6,0-1.2-0.1-1.7-0.3s-0.9-0.5-1.2-0.8c-0.5-0.5-0.9-1.2-1.2-1.9s-0.4-1.6-0.4-2.5s0.1-1.8,0.4-2.6s0.6-1.4,1.2-1.9
		c0.3-0.3,0.7-0.6,1.2-0.8s1-0.3,1.7-0.3s1.2,0.1,1.7,0.3s0.9,0.5,1.2,0.8c0.5,0.5,0.9,1.2,1.2,1.9C145.2,3.8,145.3,4.7,145.3,5.6z
		 M140.9,2.1c-0.2,0-0.4,0-0.5,0.1s-0.3,0.2-0.4,0.3c-0.2,0.2-0.3,0.4-0.5,0.7c-0.1,0.3-0.2,0.6-0.3,0.8c-0.1,0.3-0.1,0.6-0.1,0.8
		c0,0.3,0,0.5,0,0.7s0,0.5,0,0.7c0,0.3,0.1,0.6,0.1,0.8c0.1,0.3,0.2,0.6,0.3,0.8s0.3,0.5,0.5,0.7c0.1,0.1,0.3,0.2,0.4,0.3
		c0.1,0.1,0.3,0.1,0.5,0.1s0.4,0,0.5-0.1s0.3-0.2,0.4-0.3c0.2-0.2,0.3-0.4,0.5-0.7s0.2-0.5,0.3-0.8s0.1-0.6,0.1-0.8s0-0.5,0-0.7
		s0-0.4,0-0.7s-0.1-0.5-0.1-0.8c-0.1-0.3-0.2-0.6-0.3-0.8c-0.1-0.3-0.3-0.5-0.5-0.7c-0.1-0.1-0.3-0.2-0.4-0.3S141.1,2.1,140.9,2.1z"
		/>
	<path class="st0" d="M154.4,10.9h-8.2l3.2-3.5c0.1-0.2,0.3-0.3,0.5-0.5s0.3-0.4,0.5-0.6s0.3-0.4,0.5-0.6s0.3-0.3,0.3-0.5
		c0.1-0.1,0.1-0.2,0.2-0.3s0.1-0.3,0.2-0.4s0.1-0.3,0.2-0.5c0-0.2,0.1-0.4,0.1-0.5c0-0.2,0-0.4-0.1-0.6c-0.1-0.2-0.2-0.3-0.3-0.5
		c-0.2-0.2-0.5-0.3-1-0.3c-0.2,0-0.4,0-0.6,0.1c-0.2,0.1-0.3,0.2-0.4,0.3c-0.1,0.2-0.3,0.4-0.3,0.6c-0.1,0.3-0.1,0.5-0.1,0.7h-2.5
		c0-0.5,0.2-0.9,0.3-1.4c0.2-0.5,0.4-0.9,0.8-1.2c0.1-0.1,0.3-0.3,0.5-0.4s0.4-0.2,0.6-0.4c0.2-0.1,0.5-0.2,0.8-0.3s0.6-0.1,1-0.1
		s0.7,0,1,0.1s0.6,0.2,0.8,0.3s0.4,0.2,0.6,0.3c0.2,0.1,0.3,0.2,0.4,0.3c0.3,0.3,0.5,0.6,0.7,1.1c0.2,0.4,0.3,0.9,0.3,1.5
		c0,0.5-0.1,0.9-0.2,1.3c-0.1,0.4-0.3,0.7-0.6,1.1c-0.2,0.3-0.5,0.6-0.8,0.9s-0.6,0.6-0.9,0.9l-1.1,1.1h3.7L154.4,10.9L154.4,10.9z"
		/>
	<path class="st0" d="M159.3,2.3h-1.5V0.2h4v10.7h-2.5V2.3z"/>
	<path d="M8.8,21.8c-0.3-0.2-0.5-0.4-0.8-0.6S7.5,21,7.3,20.9s-0.4-0.1-0.6-0.1s-0.3,0-0.4,0c-0.2,0-0.5,0-0.7,0.1
		c-0.3,0.1-0.5,0.2-0.7,0.4c-0.1,0.1-0.2,0.3-0.3,0.4c-0.1,0.2-0.1,0.3-0.1,0.5c0,0.4,0.1,0.6,0.3,0.8c0.2,0.2,0.4,0.3,0.7,0.4
		s0.7,0.2,1.2,0.4l1.1,0.4c0.3,0.1,0.7,0.3,1,0.4c0.4,0.2,0.7,0.4,1,0.7c0.4,0.4,0.7,0.9,0.9,1.4c0.1,0.5,0.2,0.9,0.2,1.4
		c0,0.8-0.1,1.5-0.4,2.1c-0.2,0.6-0.6,1.1-0.9,1.5c-0.3,0.3-0.7,0.6-1.1,0.8c-0.4,0.2-0.8,0.3-1.1,0.5c-0.4,0.1-0.7,0.2-1.1,0.2
		s-0.6,0-0.9,0c-0.5,0-1,0-1.5-0.1C3.5,33,3,32.9,2.6,32.6c-0.4-0.2-0.8-0.4-1.2-0.7s-0.7-0.6-1-0.9l1.8-2.4
		c0.2,0.2,0.4,0.4,0.7,0.6s0.5,0.4,0.7,0.5c0.6,0.4,1.2,0.5,1.9,0.5c0.2,0,0.5,0,0.8-0.1s0.5-0.2,0.8-0.4c0.1-0.1,0.3-0.3,0.4-0.5
		s0.2-0.4,0.2-0.7c0-0.2,0-0.5-0.1-0.6c-0.1-0.2-0.2-0.3-0.4-0.4c-0.1-0.1-0.2-0.2-0.4-0.3C6.7,27.1,6.5,27,6.3,27
		c-0.2-0.1-0.3-0.1-0.5-0.2s-0.3-0.1-0.4-0.2L4,26.3c-0.3-0.1-0.7-0.3-1-0.5s-0.7-0.4-1-0.7c-0.4-0.4-0.6-0.9-0.7-1.3
		c-0.1-0.5-0.2-0.9-0.2-1.2c0-0.7,0.1-1.3,0.3-1.8s0.5-1,1-1.5s1.1-0.9,1.7-1.1C4.6,18,5.3,17.9,6,17.9c0.2,0,0.5,0,0.9,0
		s0.7,0.1,1,0.2c0.4,0.1,0.8,0.2,1.2,0.4c0.4,0.2,0.8,0.4,1.3,0.8L8.8,21.8z"/>
	<path d="M26,26.9c0,0.4,0,0.7-0.1,1.1s-0.1,0.8-0.2,1.2c-0.1,0.4-0.3,0.8-0.5,1.2c-0.2,0.4-0.5,0.8-0.9,1.2s-0.7,0.7-1.1,0.9
		s-0.8,0.4-1.1,0.5s-0.8,0.2-1.2,0.2c-0.4,0-0.8,0.1-1.2,0.1c-0.4,0-0.8,0-1.2-0.1c-0.4,0-0.8-0.1-1.2-0.2s-0.8-0.3-1.1-0.5
		c-0.4-0.2-0.7-0.5-1.1-0.9c-0.4-0.4-0.7-0.8-0.9-1.2c-0.2-0.4-0.4-0.8-0.5-1.2c-0.1-0.4-0.2-0.8-0.2-1.2c0-0.4-0.1-0.8-0.1-1.1
		v-8.7H17v8.6c0,0.3,0,0.7,0.1,1.2s0.3,0.9,0.6,1.3c0.3,0.3,0.6,0.5,1,0.6s0.7,0.1,1,0.1s0.7,0,1-0.1s0.7-0.3,1-0.6
		c0.4-0.4,0.6-0.8,0.6-1.3s0.1-0.9,0.1-1.2v-8.6H26V26.9z"/>
	<path d="M29.4,32.9V18.2h3l7.9,9.5v-9.5h3.4v14.7h-3l-7.9-9.5v9.5H29.4z"/>
	<path d="M46.6,24h5.6v2.8h-5.6V24z"/>
	<path d="M54.5,32.9l2.4-14.7h2.9l3.6,8.8l3.6-8.8h2.9l2.4,14.7h-3.4l-1.2-8.8l-3.6,8.8h-1.2l-3.6-8.8l-1.2,8.8H54.5z"/>
	<path d="M78.4,18.2v14.7H75V18.2H78.4z"/>
	<path d="M90.6,23.8h5.8v-5.6h3.4v14.7h-3.4v-6.2h-5.8v6.2h-3.4V18.2h3.4V23.8z"/>
	<path d="M110.6,17.9c2.3,0,4.2,0.7,5.7,2.1c0.7,0.7,1.3,1.5,1.7,2.4c0.4,0.9,0.6,2,0.6,3.1c0,1-0.2,2-0.6,2.9
		c-0.4,1-0.9,1.8-1.7,2.6c-0.7,0.7-1.5,1.2-2.4,1.6c-0.9,0.4-2,0.6-3.3,0.6c-0.7,0-1.3-0.1-1.9-0.2c-0.6-0.1-1.1-0.3-1.6-0.5
		s-0.9-0.4-1.3-0.7s-0.7-0.5-1-0.8c-0.7-0.7-1.3-1.5-1.7-2.4c-0.4-0.9-0.6-2-0.6-3c0-0.5,0.1-1.1,0.2-1.6s0.3-1,0.5-1.5
		s0.4-0.9,0.7-1.4c0.3-0.4,0.6-0.8,0.9-1.1c0.2-0.2,0.5-0.5,0.9-0.8s0.8-0.5,1.2-0.7s1-0.4,1.6-0.5C109.2,18,109.9,17.9,110.6,17.9z
		 M110.6,21c-0.7,0-1.3,0.1-1.8,0.3s-1,0.5-1.4,0.9c-0.3,0.3-0.6,0.7-0.9,1.3c-0.3,0.5-0.4,1.2-0.4,2c0,1.3,0.5,2.4,1.4,3.3
		c0.5,0.5,1,0.8,1.5,0.9c0.5,0.2,1.1,0.3,1.7,0.3c0.8,0,1.4-0.1,1.9-0.4c0.5-0.2,1-0.5,1.3-0.9c0.3-0.3,0.6-0.7,0.9-1.2
		s0.4-1.2,0.4-2.1c0-0.8-0.1-1.4-0.4-2s-0.6-1-0.9-1.3c-0.4-0.4-0.8-0.6-1.4-0.9C111.9,21.2,111.3,21,110.6,21z"/>
	<path d="M121.3,32.9V18.2h3l7.9,9.5v-9.5h3.4v14.7h-3l-7.9-9.5v9.5H121.3z"/>
	<path d="M146.1,24.9h7.3v0.2c0,0.4,0,0.9-0.1,1.5c-0.1,0.5-0.2,1.1-0.4,1.6c-0.2,0.6-0.4,1.1-0.7,1.6s-0.6,1-1,1.4s-0.8,0.8-1.3,1
		c-0.4,0.3-0.9,0.5-1.3,0.6c-0.4,0.1-0.9,0.2-1.3,0.3c-0.4,0.1-0.9,0.1-1.3,0.1c-0.4,0-0.9,0-1.3-0.1c-0.5-0.1-0.9-0.1-1.4-0.3
		c-0.5-0.1-0.9-0.3-1.4-0.6c-0.4-0.3-0.9-0.6-1.3-1.1c-0.2-0.2-0.5-0.5-0.7-0.8s-0.5-0.7-0.7-1.2s-0.4-1-0.5-1.6s-0.2-1.2-0.2-2
		c0-1.2,0.2-2.3,0.6-3.2c0.4-0.9,0.9-1.7,1.5-2.4c0.5-0.5,0.9-0.8,1.4-1.1c0.5-0.3,1-0.5,1.5-0.6c0.5-0.2,1-0.3,1.5-0.3
		s0.9-0.1,1.4-0.1c0.6,0,1.3,0.1,2,0.2s1.4,0.4,2.1,0.9c0.5,0.3,1,0.7,1.4,1.2s0.7,0.9,1,1.4l-3.1,1.7c-0.1-0.3-0.3-0.6-0.5-0.8
		c-0.2-0.3-0.5-0.5-0.8-0.7c-0.6-0.5-1.4-0.7-2.3-0.7c-0.7,0-1.3,0.1-1.8,0.3c-0.5,0.2-0.9,0.5-1.3,0.9c-0.4,0.4-0.7,0.9-0.9,1.5
		s-0.3,1.2-0.3,1.9c0,0.8,0.1,1.5,0.4,2.1c0.3,0.5,0.5,1,0.9,1.3c0.4,0.4,0.9,0.7,1.4,0.9c0.5,0.2,1,0.2,1.6,0.2
		c0.7,0,1.3-0.1,1.7-0.3c0.4-0.2,0.7-0.4,0.9-0.5c0.1,0,0.2-0.2,0.5-0.5s0.5-0.7,0.6-1.2h-3.5v-2.7H146.1z"/>
	<path d="M12.1,54.1c-0.2,0.1-0.4,0.3-0.6,0.4c-0.2,0.1-0.5,0.3-0.9,0.4c-0.3,0.1-0.7,0.2-1.1,0.3c-0.4,0.1-0.9,0.1-1.5,0.1
		c-1.1,0-2.1-0.2-3-0.5s-1.7-0.9-2.4-1.6c-0.9-0.8-1.4-1.7-1.8-2.7c-0.3-1-0.5-1.9-0.5-2.9c0-1.1,0.2-2.1,0.6-3.1s0.9-1.7,1.6-2.4
		c0.6-0.6,1.4-1.2,2.4-1.6c1-0.4,2.1-0.6,3.4-0.6c1.1,0,2.2,0.2,3.2,0.6c1,0.4,1.8,0.9,2.5,1.6c0.7,0.6,1.2,1.4,1.6,2.4
		s0.6,2,0.6,3.2c0,0.6-0.1,1.1-0.2,1.5c-0.1,0.5-0.3,0.9-0.5,1.3c-0.2,0.4-0.4,0.8-0.6,1.1c-0.2,0.3-0.5,0.6-0.8,0.9l2.6,2.8
		l-3.2,0.4L12.1,54.1z M11.9,50.2c0.3-0.4,0.5-0.8,0.6-1.2c0.1-0.4,0.2-0.9,0.2-1.5c0-0.8-0.1-1.5-0.4-2c-0.3-0.5-0.6-0.9-0.9-1.3
		c-0.4-0.4-0.9-0.7-1.5-1s-1.2-0.3-1.8-0.3c-0.7,0-1.3,0.1-1.9,0.4s-1,0.6-1.4,0.9c-0.4,0.4-0.8,0.9-1,1.5c-0.2,0.6-0.3,1.2-0.3,1.8
		c0,0.6,0.1,1.2,0.3,1.7s0.5,1,0.9,1.5c0.4,0.4,0.8,0.7,1.3,0.9S7.1,52,7.9,52c0.6,0,1.2-0.1,1.8-0.4L7.1,49l3.3-0.4L11.9,50.2z"/>
	<path d="M31.5,48.9c0,0.4,0,0.7-0.1,1.1c0,0.4-0.1,0.8-0.2,1.2c-0.1,0.4-0.3,0.8-0.5,1.2s-0.5,0.8-0.9,1.2s-0.7,0.7-1.1,0.9
		s-0.8,0.4-1.1,0.5c-0.4,0.1-0.8,0.2-1.2,0.2s-0.8,0.1-1.2,0.1s-0.8,0-1.2-0.1c-0.4,0-0.8-0.1-1.2-0.2s-0.8-0.3-1.1-0.5
		S21,54,20.6,53.6c-0.4-0.4-0.7-0.8-0.9-1.2s-0.4-0.8-0.5-1.2S19,50.4,19,50s-0.1-0.8-0.1-1.1v-8.7h3.4v8.6c0,0.3,0,0.7,0.1,1.2
		s0.3,0.9,0.6,1.3c0.3,0.3,0.6,0.5,1,0.6c0.4,0.1,0.7,0.1,1,0.1s0.7,0,1-0.1c0.3-0.1,0.7-0.3,1-0.6c0.4-0.4,0.6-0.8,0.6-1.3
		s0.1-0.9,0.1-1.2v-8.6h3.4v8.7H31.5z"/>
	<path d="M38.4,40.2v14.7H35V40.2H38.4z"/>
	<path d="M41.9,54.9V40.2h3l7.9,9.5v-9.5h3.4v14.7h-3l-7.9-9.5v9.5H41.9z"/>
	<path d="M64.8,43.1v11.8h-3.4V43.1h-3.2v-2.9H68v2.9H64.8z"/>
	<path d="M78.2,43.1h-4.9v2.8h4.6v2.9h-4.6v3.3h4.9V55h-8.3V40.2h8.3V43.1z"/>
	<path d="M86.4,43.1v11.8H83V43.1h-3.2v-2.9h9.8v2.9H86.4z"/>
</g>
</svg>
