<?xml version="1.0" encoding="utf-8"?>
<!-- Generator: Adobe Illustrator 24.3.0, SVG Export Plug-In . SVG Version: 6.00 Build 0)  -->
<svg version="1.1" id="Laag_1" xmlns="http://www.w3.org/2000/svg" xmlns:xlink="http://www.w3.org/1999/xlink" x="0px" y="0px"
	 width="417.4px" height="37.5px" viewBox="0 0 417.4 37.5" style="enable-background:new 0 0 417.4 37.5;" xml:space="preserve">
<style type="text/css">
	.st0{fill:#5F3A4E;}
</style>
<g>
	<path class="st0" d="M20.8,37L9.3,21.7H7.1V37H0V0.6h7.1v14.2h2.1l10-14.2h8L15.1,18v0.5L28.8,37H20.8z"/>
	<path class="st0" d="M30,0.1h6.9V37H30V0.1z"/>
	<path class="st0" d="M62.9,29.2c0,0.8,0.2,1.4,0.5,1.8c0.3,0.3,0.9,0.5,1.6,0.5V37h-1.2c-3,0-4.9-1.1-5.7-3.4
		c-2.1,2.6-5.2,3.9-9,3.9c-2.8,0-5-0.7-6.7-2c-1.7-1.3-2.5-3.2-2.5-5.6c0-5.2,3.9-8.1,11.6-8.7l4.8-0.4v-0.5c0-1.5-0.4-2.7-1.2-3.5
		c-0.8-0.9-1.8-1.3-3.1-1.3c-1.4,0-2.5,0.4-3.2,1.3c-0.7,0.8-1.2,1.8-1.3,2.9h-6.4c0.2-2.7,1.3-5,3.2-6.7c1.9-1.7,4.5-2.6,7.7-2.6
		c3.2,0,5.8,0.9,7.9,2.8c2,1.8,3,4.5,3,8V29.2z M50.1,32.2c1.7,0,3.1-0.6,4.4-1.7c1.3-1.1,1.9-2.6,1.9-4.5v-0.5l-3.3,0.3
		c-4.3,0.4-6.4,1.6-6.4,3.7c0,0.8,0.3,1.5,0.9,2C48.3,32,49.1,32.2,50.1,32.2z"/>
	<path class="st0" d="M89.4,29.2c0,0.8,0.2,1.4,0.5,1.8c0.3,0.3,0.9,0.5,1.6,0.5V37h-1.2c-3,0-4.9-1.1-5.7-3.4
		c-2.1,2.6-5.2,3.9-9,3.9c-2.8,0-5-0.7-6.7-2c-1.7-1.3-2.5-3.2-2.5-5.6c0-5.2,3.9-8.1,11.6-8.7l4.8-0.4v-0.5c0-1.5-0.4-2.7-1.2-3.5
		c-0.8-0.9-1.8-1.3-3.1-1.3c-1.4,0-2.5,0.4-3.2,1.3c-0.7,0.8-1.2,1.8-1.3,2.9h-6.4c0.2-2.7,1.3-5,3.2-6.7c1.9-1.7,4.5-2.6,7.7-2.6
		c3.2,0,5.8,0.9,7.9,2.8c2,1.8,3,4.5,3,8V29.2z M76.6,32.2c1.7,0,3.1-0.6,4.4-1.7c1.3-1.1,1.9-2.6,1.9-4.5v-0.5l-3.3,0.3
		c-4.3,0.4-6.4,1.6-6.4,3.7c0,0.8,0.3,1.5,0.9,2C74.8,32,75.6,32.2,76.6,32.2z"/>
	<path class="st0" d="M109.3,10.5h1.9v6.8c-0.9-0.2-1.8-0.3-2.7-0.3c-2.1,0-3.8,0.7-5.2,2.1c-1.4,1.4-2.1,3.6-2.1,6.5V37h-7V11h5.5
		l0.9,3.6h0.6C103.2,11.9,105.9,10.5,109.3,10.5z"/>
	<path class="st0" d="M145.4,11h7l-9,26h-9.5l-9-26h7l6.6,20h0.6L145.4,11z"/>
	<path class="st0" d="M175.6,33.7c-2.6,2.5-5.8,3.8-9.7,3.8c-3.9,0-7.1-1.3-9.8-3.8s-4-5.8-4-9.7c0-4,1.3-7.2,4-9.7
		c2.6-2.5,5.9-3.8,9.8-3.8c3.9,0,7.1,1.3,9.7,3.8c2.6,2.5,3.9,5.8,3.9,9.7C179.5,28,178.2,31.2,175.6,33.7z M165.9,31.6
		c2,0,3.7-0.7,4.9-2.2c1.3-1.4,1.9-3.2,1.9-5.4s-0.6-3.9-1.9-5.4c-1.3-1.4-2.9-2.2-5-2.2c-2,0-3.7,0.7-5,2.2
		c-1.3,1.4-1.9,3.2-1.9,5.4s0.7,3.9,2,5.4C162.1,30.8,163.8,31.6,165.9,31.6z"/>
	<path class="st0" d="M204.9,33.7c-2.6,2.5-5.8,3.8-9.7,3.8c-3.9,0-7.1-1.3-9.8-3.8s-4-5.8-4-9.7c0-4,1.3-7.2,4-9.7
		c2.6-2.5,5.9-3.8,9.8-3.8c3.9,0,7.1,1.3,9.7,3.8c2.6,2.5,3.9,5.8,3.9,9.7C208.8,28,207.5,31.2,204.9,33.7z M195.2,31.6
		c2,0,3.7-0.7,4.9-2.2c1.3-1.4,1.9-3.2,1.9-5.4s-0.6-3.9-1.9-5.4c-1.3-1.4-2.9-2.2-5-2.2c-2,0-3.7,0.7-5,2.2
		c-1.3,1.4-1.9,3.2-1.9,5.4s0.7,3.9,2,5.4C191.5,30.8,193.1,31.6,195.2,31.6z"/>
	<path class="st0" d="M226.6,10.5h1.9v6.8c-0.9-0.2-1.8-0.3-2.7-0.3c-2.1,0-3.8,0.7-5.2,2.1c-1.4,1.4-2.1,3.6-2.1,6.5V37h-7V11h5.5
		l0.9,3.6h0.6C220.5,11.9,223.2,10.5,226.6,10.5z"/>
	<path class="st0" d="M262.2,0h6.6v37h-5.1l-0.8-3h-0.7c-1.8,2.3-4.3,3.5-7.4,3.5c-3.3,0-6.1-1.2-8.4-3.7c-2.3-2.5-3.5-5.7-3.5-9.7
		c0-4.1,1.2-7.4,3.5-9.9c2.4-2.5,5.3-3.7,8.7-3.7c3.3,0,5.6,1.1,7.1,3.2V0z M251.4,29.4c1.2,1.4,2.7,2.1,4.6,2.1
		c1.9,0,3.4-0.7,4.5-2.1c1.1-1.4,1.7-3.2,1.7-5.4c0-2.2-0.6-4-1.7-5.4c-1.1-1.4-2.7-2.1-4.5-2.1c-1.9,0-3.4,0.7-4.6,2.1
		c-1.2,1.4-1.8,3.2-1.8,5.4C249.6,26.2,250.2,28,251.4,29.4z"/>
	<path class="st0" d="M290.8,28.8h6.4c-0.6,2.7-2,4.9-4.3,6.4c-2.3,1.5-4.9,2.3-8,2.3c-4,0-7.2-1.2-9.7-3.7
		c-2.4-2.5-3.6-5.8-3.6-9.8c0-4,1.2-7.2,3.7-9.7c2.5-2.5,5.5-3.8,9.2-3.8c1.8,0,3.5,0.3,5,0.9c1.5,0.6,2.9,1.4,4.2,2.6
		c1.2,1.2,2.1,2.8,2.8,4.8c0.6,2,0.8,4.4,0.6,7h-18.9C278.7,30,281,32,285,32c1.3,0,2.4-0.3,3.5-0.9S290.3,29.8,290.8,28.8z
		 M284.8,15.8c-1.6,0-3,0.5-4.1,1.4s-1.9,2.2-2.3,3.8h12.4c-0.1-1.4-0.7-2.6-1.7-3.6S286.5,15.8,284.8,15.8z"/>
	<path class="st0" d="M333.6,29.8c0,2.5-1,4.4-2.9,5.7c-1.9,1.3-4.4,2-7.4,2c-3.3,0-6-0.8-8-2.5c-2-1.7-3.1-3.9-3.3-6.8h6.6
		c0.1,1.4,0.6,2.4,1.5,3.1s2.1,1,3.3,1c1,0,1.8-0.2,2.5-0.7c0.7-0.4,1-1,1-1.8c0-0.9-0.4-1.6-1.2-2.2s-2.1-1-3.9-1.5
		c-1.2-0.3-2.2-0.7-3.1-1c-0.8-0.3-1.8-0.8-2.8-1.4c-1-0.6-1.8-1.4-2.3-2.3c-0.5-0.9-0.8-2-0.8-3.2c0-2.4,0.9-4.3,2.8-5.7
		c1.9-1.4,4.3-2.2,7.2-2.2c2.9,0,5.3,0.8,7.1,2.3c1.8,1.5,2.8,3.5,3,5.9h-6.3c-0.1-0.9-0.5-1.6-1.3-2.2c-0.8-0.6-1.7-0.9-2.9-0.9
		c-0.9,0-1.6,0.2-2.2,0.6c-0.6,0.4-0.9,1-0.9,1.7c0,0.8,0.4,1.4,1.1,1.9c0.8,0.5,2.1,1,4,1.6c2.9,0.8,5.1,1.9,6.6,3.1
		C332.8,25.8,333.6,27.6,333.6,29.8z"/>
	<path class="st0" d="M351.8,36.1c-1.5,0.9-3.2,1.4-5.1,1.4c-5.3,0-7.9-2.8-7.9-8.3V16.4h-5.1v-4.9h1.6c1.3,0,2.3-0.3,3-1
		c0.7-0.6,1.1-1.5,1.1-2.7V4.5h6.1V11h6.4v5.4h-6.4v12.2c0,2,0.8,3,2.4,3c0.8,0,1.6-0.2,2.4-0.7L351.8,36.1z"/>
	<path class="st0" d="M375.7,29.2c0,0.8,0.2,1.4,0.5,1.8c0.3,0.3,0.9,0.5,1.6,0.5V37h-1.2c-3,0-4.9-1.1-5.7-3.4
		c-2.2,2.6-5.2,3.9-9,3.9c-2.8,0-5-0.7-6.7-2c-1.7-1.3-2.5-3.2-2.5-5.6c0-5.2,3.9-8.1,11.6-8.7l4.8-0.4v-0.5c0-1.5-0.4-2.7-1.2-3.5
		c-0.8-0.9-1.8-1.3-3.1-1.3c-1.4,0-2.5,0.4-3.2,1.3c-0.7,0.8-1.2,1.8-1.3,2.9h-6.4c0.2-2.7,1.3-5,3.2-6.7c1.9-1.7,4.5-2.6,7.7-2.6
		c3.2,0,5.8,0.9,7.9,2.8c2,1.8,3,4.5,3,8V29.2z M362.9,32.2c1.7,0,3.1-0.6,4.4-1.7c1.3-1.1,1.9-2.6,1.9-4.5v-0.5l-3.3,0.3
		c-4.3,0.4-6.4,1.6-6.4,3.7c0,0.8,0.3,1.5,0.9,2S361.9,32.2,362.9,32.2z"/>
	<path class="st0" d="M395.7,10.5h1.9v6.8c-0.9-0.2-1.8-0.3-2.7-0.3c-2.1,0-3.8,0.7-5.2,2.1c-1.4,1.4-2.1,3.6-2.1,6.5V37h-7V11h5.5
		l0.9,3.6h0.6C389.6,11.9,392.3,10.5,395.7,10.5z"/>
	<path class="st0" d="M417.2,36.1c-1.5,0.9-3.2,1.4-5.1,1.4c-5.3,0-7.9-2.8-7.9-8.3V16.4h-5.1v-4.9h1.6c1.3,0,2.3-0.3,3-1
		c0.7-0.6,1.1-1.5,1.1-2.7V4.5h6.1V11h6.4v5.4H411v12.2c0,2,0.8,3,2.4,3c0.8,0,1.6-0.2,2.4-0.7L417.2,36.1z"/>
</g>
</svg>
