<?xml version="1.0" encoding="utf-8"?>
<!-- Generator: Adobe Illustrator 24.0.0, SVG Export Plug-In . SVG Version: 6.00 Build 0)  -->
<svg version="1.1" id="Laag_1" xmlns="http://www.w3.org/2000/svg" xmlns:xlink="http://www.w3.org/1999/xlink" x="0px" y="0px"
	 width="227.8px" height="8.4px" viewBox="0 0 227.8 8.4" style="enable-background:new 0 0 227.8 8.4;" xml:space="preserve">
<style type="text/css">
	.st0{fill:#FFFFFF;}
</style>
<g>
	<path class="st0" d="M0,0.2h5.2v1.3H1.5v2.1h3.5v1.3H1.5v2.1h3.7v1.3H0V0.2z"/>
	<path class="st0" d="M6.9,0.2h5.2v1.3H8.4v2.1h3.5v1.3H8.4v2.1h3.7v1.3H6.9V0.2z"/>
	<path class="st0" d="M15.4,0.2l3.5,5.7V0.2h1.5v8h-1.5l-3.7-5.9v5.9h-1.5v-8H15.4z"/>
	<path class="st0" d="M30.1,2.4c-0.1-0.7-0.6-1.1-1.5-1.1c-0.4,0-0.8,0.1-1,0.3c-0.2,0.2-0.4,0.4-0.4,0.6s0.1,0.4,0.2,0.6
		c0.2,0.1,0.4,0.3,0.7,0.4l1.7,0.7C30.5,4,31,4.3,31.3,4.7C31.6,5,31.8,5.5,31.8,6c0,0.7-0.3,1.3-0.8,1.7c-0.5,0.4-1.3,0.6-2.3,0.6
		c-0.9,0-1.6-0.2-2.2-0.7c-0.6-0.5-0.9-1.2-1-2h1.5c0,0.7,0.3,1.1,1,1.3C28.2,7,28.4,7,28.8,7c0.3,0,0.7-0.1,0.9-0.3
		c0.3-0.2,0.4-0.4,0.4-0.7c0-0.3-0.1-0.5-0.2-0.7c-0.2-0.2-0.4-0.3-0.8-0.4l-1.6-0.6c-0.6-0.2-1.1-0.5-1.4-0.8
		c-0.3-0.3-0.5-0.8-0.5-1.3c0-0.7,0.3-1.2,0.8-1.6C26.9,0.2,27.7,0,28.6,0c0.9,0,1.6,0.2,2.1,0.6c0.5,0.4,0.8,1,0.8,1.8H30.1z"/>
	<path class="st0" d="M38.3,0.8C38.8,1.3,39,1.9,39,2.7c0,0.8-0.3,1.5-0.8,1.9c-0.5,0.4-1.2,0.7-2.1,0.7h-1.4v2.9h-1.5v-8h2.8
		C37,0.2,37.8,0.4,38.3,0.8z M36.1,4c0.5,0,0.8-0.1,1-0.4c0.2-0.2,0.3-0.5,0.3-0.9c0-0.4-0.1-0.7-0.3-0.9c-0.2-0.2-0.6-0.4-1-0.4
		h-1.4V4H36.1z"/>
	<path class="st0" d="M40.2,0.2h5.2v1.3h-3.7v2.1h3.5v1.3h-3.5v2.1h3.7v1.3h-5.2V0.2z"/>
	<path class="st0" d="M47.1,0.2h5.2v1.3h-3.7v2.1H52v1.3h-3.5v2.1h3.7v1.3h-5.2V0.2z"/>
	<path class="st0" d="M55.4,6.9h3.3v1.3H54v-8h1.5V6.9z"/>
	<path class="st0" d="M64.1,2.4c-0.1-0.7-0.6-1.1-1.5-1.1c-0.4,0-0.8,0.1-1,0.3c-0.2,0.2-0.4,0.4-0.4,0.6s0.1,0.4,0.2,0.6
		c0.2,0.1,0.4,0.3,0.7,0.4L64,3.8c0.6,0.2,1.1,0.5,1.4,0.9C65.7,5,65.9,5.5,65.9,6c0,0.7-0.3,1.3-0.8,1.7c-0.5,0.4-1.3,0.6-2.3,0.6
		c-0.9,0-1.6-0.2-2.2-0.7c-0.6-0.5-0.9-1.2-1-2H61c0,0.7,0.3,1.1,1,1.3C62.3,7,62.5,7,62.9,7c0.3,0,0.7-0.1,0.9-0.3
		c0.3-0.2,0.4-0.4,0.4-0.7c0-0.3-0.1-0.5-0.2-0.7c-0.2-0.2-0.4-0.3-0.8-0.4l-1.6-0.6c-0.6-0.2-1.1-0.5-1.4-0.8
		c-0.3-0.3-0.5-0.8-0.5-1.3c0-0.7,0.3-1.2,0.8-1.6C61,0.2,61.7,0,62.7,0c0.9,0,1.6,0.2,2.1,0.6c0.5,0.4,0.8,1,0.8,1.8H64.1z"/>
	<path class="st0" d="M67.4,0.2h5.2v1.3h-3.7v2.1h3.5v1.3h-3.5v2.1h3.7v1.3h-5.2V0.2z"/>
	<path class="st0" d="M79.9,0.2l2.2,4.8l2.2-4.8h2v8h-1.5V2.1l-2.3,5.2h-1l-2.4-5.4v6.3h-1.5v-8H79.9z"/>
	<path class="st0" d="M88.3,0.2h1.5v8h-1.5V0.2z"/>
	<path class="st0" d="M98.6,8.2h-1.8l-2.1-2.9l-1.9,2.9h-1.8l2.8-4l-2.9-4h1.8l2,2.9l1.8-2.9h1.8l-2.7,4L98.6,8.2z"/>
	<path class="st0" d="M103.9,0.2l2,6.2l2-6.2h1.5l-2.8,8h-1.5l-2.7-8H103.9z"/>
	<path class="st0" d="M111.8,0.2h1.8l2.6,8h-1.5l-0.6-1.7h-3l-0.6,1.7h-1.5L111.8,0.2z M111.6,5.4h2.3l-1.1-3.5L111.6,5.4z"/>
	<path class="st0" d="M119,0.2l3.5,5.7V0.2h1.5v8h-1.5l-3.7-5.9v5.9h-1.5v-8H119z"/>
	<path class="st0" d="M132.1,0.2c1.2,0,2.2,0.4,3,1.1c0.8,0.7,1.1,1.7,1.1,2.9c0,1.2-0.4,2.2-1.1,2.9c-0.8,0.7-1.7,1.1-3,1.1h-2.6
		v-8H132.1z M130.9,6.9h1.1c0.8,0,1.4-0.3,1.8-0.8c0.4-0.5,0.7-1.1,0.7-1.9c0-0.8-0.2-1.5-0.7-1.9c-0.5-0.5-1.1-0.8-1.8-0.8h-1.1
		V6.9z"/>
	<path class="st0" d="M139.3,0.2h1.8l2.6,8h-1.5l-0.6-1.7h-3l-0.6,1.7h-1.6L139.3,0.2z M139,5.4h2.3l-1.1-3.5L139,5.4z"/>
	<path class="st0" d="M146.5,0.2l3.5,5.7V0.2h1.5v8H150l-3.7-5.9v5.9h-1.5v-8H146.5z"/>
	<path class="st0" d="M157.6,2.4c-0.1-0.7-0.6-1.1-1.5-1.1c-0.4,0-0.8,0.1-1,0.3c-0.2,0.2-0.4,0.4-0.4,0.6s0.1,0.4,0.2,0.6
		s0.4,0.3,0.7,0.4l1.7,0.7c0.6,0.2,1.1,0.5,1.4,0.9c0.3,0.4,0.5,0.8,0.5,1.3c0,0.7-0.3,1.3-0.8,1.7c-0.5,0.4-1.3,0.6-2.3,0.6
		c-0.9,0-1.6-0.2-2.2-0.7c-0.6-0.5-0.9-1.2-1-2h1.5c0,0.7,0.3,1.1,1,1.3C155.7,7,156,7,156.3,7c0.3,0,0.7-0.1,0.9-0.3
		c0.3-0.2,0.4-0.4,0.4-0.7c0-0.3-0.1-0.5-0.2-0.7c-0.2-0.2-0.4-0.3-0.8-0.4l-1.6-0.6c-0.6-0.2-1.1-0.5-1.4-0.8
		c-0.3-0.3-0.5-0.8-0.5-1.3c0-0.7,0.3-1.2,0.8-1.6c0.5-0.4,1.2-0.6,2.2-0.6c0.9,0,1.6,0.2,2.1,0.6c0.5,0.4,0.8,1,0.8,1.8H157.6z"/>
	<path class="st0" d="M172.7,3.9c-0.4,1-0.8,1.9-1.4,2.6l0.2,0.2c0.1,0.1,0.3,0.2,0.4,0.3c0.1,0.1,0.3,0.1,0.5,0.1
		c0.2,0,0.4-0.1,0.5-0.2c0.1-0.1,0.2-0.4,0.2-0.7h1.3c0,0.7-0.2,1.2-0.5,1.6c-0.3,0.4-0.8,0.6-1.4,0.6c-0.4,0-0.8-0.1-1.1-0.2
		c-0.3-0.2-0.7-0.4-1.1-0.7c-0.8,0.7-1.7,1-2.8,1c-0.9,0-1.7-0.2-2.4-0.7c-0.6-0.5-1-1.1-1-1.8c0-1.1,0.8-1.7,2.3-2l-0.2-0.2
		c-0.6-0.5-0.9-1.1-0.9-1.8c0-0.6,0.2-1,0.7-1.4c0.5-0.4,1.2-0.6,2-0.6c0.8,0,1.5,0.2,2,0.6c0.5,0.4,0.7,0.8,0.7,1.3s-0.2,1-0.5,1.4
		c-0.3,0.4-0.9,0.7-1.6,0.9l1.6,1.4c0.5-0.6,0.9-1.4,1.3-2.3L172.7,3.9z M167.5,4.7c-1,0.1-1.5,0.5-1.5,1.1c0,0.3,0.2,0.6,0.5,0.9
		c0.3,0.2,0.7,0.4,1.3,0.4c0.6,0,1.2-0.2,1.8-0.5L167.5,4.7z M169,2.9c0.2-0.2,0.3-0.5,0.3-0.7c0-0.3-0.1-0.5-0.3-0.6
		c-0.2-0.2-0.5-0.2-0.8-0.2c-0.3,0-0.6,0.1-0.8,0.3c-0.2,0.2-0.3,0.4-0.3,0.6c0,0.4,0.2,0.7,0.6,1.1l0.3,0.3
		C168.5,3.3,168.8,3.1,169,2.9z"/>
	<path class="st0" d="M178.4,0.2h6.4v1.3h-2.5v6.8h-1.5V1.4h-2.5V0.2z"/>
	<path class="st0" d="M187.4,0.2v3.4h3.5V0.2h1.5v8h-1.5V4.8h-3.5v3.4h-1.5v-8H187.4z"/>
	<path class="st0" d="M194.3,0.2h5.2v1.3h-3.7v2.1h3.5v1.3h-3.5v2.1h3.7v1.3h-5.2V0.2z"/>
	<path class="st0" d="M203.2,0.2h1.8l2.6,8h-1.5l-0.6-1.7h-3L202,8.2h-1.6L203.2,0.2z M203,5.4h2.3l-1.1-3.5L203,5.4z"/>
	<path class="st0" d="M207.2,0.2h6.4v1.3h-2.5v6.8h-1.5V1.4h-2.5V0.2z"/>
	<path class="st0" d="M214.6,0.2h5.2v1.3h-3.7v2.1h3.5v1.3h-3.5v2.1h3.7v1.3h-5.2V0.2z"/>
	<path class="st0" d="M227.5,2.6c0,0.6-0.2,1.1-0.5,1.5c-0.3,0.4-0.8,0.7-1.4,0.8l2.2,3.3h-1.9l-1.8-3.1H223v3.1h-1.5v-8h3
		c1,0,1.7,0.2,2.2,0.7C227.2,1.3,227.5,1.9,227.5,2.6z M224.4,4.1c0.5,0,0.9-0.1,1.2-0.4c0.3-0.2,0.4-0.6,0.4-1s-0.1-0.7-0.4-1
		c-0.2-0.2-0.6-0.4-1.1-0.4H223v2.7H224.4z"/>
</g>
</svg>
