<?xml version="1.0" encoding="utf-8"?>
<!-- Generator: Adobe Illustrator 22.0.0, SVG Export Plug-In . SVG Version: 6.00 Build 0)  -->
<svg version="1.1" id="Laag_1" xmlns="http://www.w3.org/2000/svg" xmlns:xlink="http://www.w3.org/1999/xlink" x="0px" y="0px"
	 viewBox="0 0 156.3 35.1" style="enable-background:new 0 0 156.3 35.1;" xml:space="preserve">
<style type="text/css">
	.st0{fill:none;}
</style>
<g>
	<path d="M0,28.8l2.1-1.7c1.8-1.5,2.4-2.4,2.4-4c0-1.6-0.7-2.2-1.6-2.2c-0.6,0-1.4,0.3-1.6,0.8C1.7,22,2,22.3,2,22.8s-0.3,1-0.9,1
		s-1-0.5-1-1c0-1.2,1.4-2.1,3-2.1c2,0,3.1,1.1,3.1,2.4c0,1.2-0.8,2.1-3.1,3.8l-2,1.5v0.1h3.5c1,0,1.2-0.2,1.6-1.4h0.2v2.7H0V28.8z"
		/>
	<path d="M9.4,25.4c-1.1-0.5-1.8-1.2-1.8-2.2c0-1.4,1.4-2.5,2.9-2.5c1.6,0,2.9,0.9,2.9,2.1c0,1-0.7,1.6-1.9,2.1
		c1.5,0.5,2.3,1.3,2.3,2.5c0,1.5-1.6,2.6-3.1,2.6c-2,0-3.3-0.9-3.3-2.3C7.4,26.7,8.2,25.9,9.4,25.4z M9.7,25.6
		c-0.7,0.4-1.1,1.2-1.1,2c0,1.3,0.7,2.1,1.9,2.1c1.1,0,1.8-0.5,1.8-1.8c0-1-0.8-1.6-2.3-2.2C10,25.7,9.9,25.6,9.7,25.6z M11.1,24.7
		l0.2,0.1c0.7-0.5,0.9-1.1,0.9-1.9c0-1.2-0.6-1.9-1.7-1.9C9.6,21,9,21.5,9,22.6C9,23.6,9.7,24.2,11.1,24.7z"/>
	<path d="M15.7,31.4c0-0.5,0.3-0.8,0.8-0.8s0.8,0.3,0.8,0.8c0,0.3-0.1,0.5-0.3,0.7c0.1,0.1,0.2,0.1,0.5,0.1c0.5,0,0.7-0.5,0.7-1.4
		v-6.3c0-0.4-0.2-0.7-1.1-0.7v-0.2l2.5-0.1v6.1c0,1.2-0.1,1.8-0.7,2.3c-0.4,0.4-1,0.5-1.6,0.5C16.3,32.4,15.7,32,15.7,31.4z
		 M17.9,21.5c0-0.5,0.3-0.9,0.9-0.9c0.5,0,0.9,0.3,0.9,0.9c0,0.5-0.3,0.9-0.9,0.9C18.2,22.4,17.9,22.1,17.9,21.5z"/>
	<path d="M21.1,28.3c0-0.5,0.2-1,0.8-1.4c1-0.5,2.6-0.6,2.9-0.8v-1c0-1-0.3-1.5-1.1-1.5c-0.5,0-0.9,0.1-1.1,0.4
		c0.2,0.2,0.4,0.5,0.4,0.7c0,0.5-0.3,0.8-0.8,0.8s-0.8-0.3-0.8-0.8c0-0.8,1-1.4,2.5-1.4s2.3,0.6,2.3,2v3.1c0,0.7,0.2,0.9,1,0.6
		l0.1,0.1c-0.5,0.3-0.8,0.5-1.3,0.5c-0.7,0-1-0.3-1.1-1h-0.1c-0.5,0.6-1.1,1.1-2,1.1C21.6,29.8,21.1,29.1,21.1,28.3z M24.8,28.5v-2
		c-1.8,0.3-2.2,0.7-2.2,1.6c0,0.6,0.3,1.1,1,1.1C24.1,29.2,24.5,28.8,24.8,28.5z"/>
	<path d="M27.4,29.6c0.8,0,0.9-0.1,0.9-0.5v-4.6c0-0.4-0.2-0.7-0.9-0.7v-0.2l2.3-0.1v1.4c0.6-0.9,1.4-1.5,2.3-1.5
		c1.1,0,1.6,0.6,1.6,1.9V29c0,0.4,0.2,0.5,0.9,0.5v0.2h-3.2v-0.2c0.6,0,0.8-0.1,0.8-0.5v-3.4c0-1-0.3-1.4-1.1-1.4
		c-0.6,0-1.1,0.4-1.4,1.1v3.8c0,0.4,0.2,0.5,0.8,0.5v0.2h-3.1v-0.2H27.4z"/>
	<path d="M35.8,28v-3.6c0-0.4-0.2-0.6-1-0.7v-0.1l2.4-0.1v4.1c0,1,0.3,1.5,1.1,1.5c0.6,0,1.1-0.4,1.4-1.1v-3.6c0-0.4-0.2-0.6-1-0.6
		v-0.2l2.4-0.1V29c0,0.3,0.2,0.5,1,0.5v0.1h-2.3v-1.2c-0.6,1-1.3,1.5-2.2,1.5C36.5,29.8,35.8,29.2,35.8,28z"/>
	<path d="M42.7,28.3c0-0.5,0.2-1,0.8-1.4c1-0.5,2.6-0.6,2.9-0.8v-1c0-1-0.3-1.5-1.1-1.5c-0.5,0-0.9,0.1-1.1,0.4
		c0.2,0.2,0.4,0.5,0.4,0.7c0,0.5-0.3,0.8-0.8,0.8S43,25.2,43,24.7c0-0.8,1-1.4,2.5-1.4s2.3,0.6,2.3,2v3.1c0,0.7,0.2,0.9,1,0.6
		l0.1,0.1c-0.5,0.3-0.8,0.5-1.3,0.5c-0.7,0-1-0.3-1.1-1h-0.1c-0.5,0.6-1.1,1.1-2,1.1C43.3,29.8,42.7,29.1,42.7,28.3z M46.4,28.5v-2
		c-1.8,0.3-2.2,0.7-2.2,1.6c0,0.6,0.3,1.1,1,1.1C45.7,29.2,46.1,28.8,46.4,28.5z"/>
	<path d="M49.1,29.6c0.8,0,0.9-0.1,0.9-0.5v-4.6c0-0.4-0.2-0.7-0.9-0.7v-0.2l2.3-0.1v1.4c0.5-0.9,1.1-1.4,1.8-1.4s1.1,0.5,1.1,1
		s-0.3,0.9-0.8,0.9s-0.8-0.3-0.8-0.8c0-0.1,0-0.3,0.1-0.4c-0.5,0.1-0.9,0.5-1.3,1.1v3.9c0,0.4,0.3,0.5,1.2,0.5v0.2h-3.5L49.1,29.6
		L49.1,29.6z"/>
	<path d="M54.7,29.6c0.8,0,1-0.1,1-0.5v-4.6c0-0.4-0.2-0.7-1-0.7v-0.2H57v5.5c0,0.4,0.1,0.5,1,0.5v0.2h-3.4v-0.2H54.7z M55.4,21.5
		c0-0.5,0.3-0.9,0.9-0.9c0.5,0,0.9,0.3,0.9,0.9c0,0.5-0.3,0.9-0.9,0.9C55.8,22.4,55.4,22.1,55.4,21.5z"/>
	<path d="M62,28.1v-4h-1.2v-0.2l1.2-0.3v-1.7l1.4-0.5v2.2h1.9V24h-1.9v4.2c0,0.8,0.2,1.1,0.8,1.1c0.4,0,0.8-0.3,1.1-0.9l0.2,0.1
		c-0.4,0.9-1,1.3-1.9,1.3C62.6,29.9,62,29.3,62,28.1z"/>
	<path d="M68.4,26.2l2.8-6.4h0.4l-2.8,6.4L66,32.6h-0.4L68.4,26.2z"/>
	<path d="M75.8,29.6c0.6,0,0.8-0.1,0.8-0.5v-3.4c0-1-0.3-1.5-1.1-1.5c-0.6,0-1,0.4-1.4,1.1v3.8c0,0.4,0.1,0.5,0.7,0.5v0.2h-3.1v-0.2
		c0.8,0,0.9-0.1,0.9-0.5v-4.6c0-0.4-0.2-0.7-0.9-0.7v-0.2l2.3-0.1v1.4c0.6-1,1.3-1.5,2.2-1.5c0.9,0,1.5,0.5,1.6,1.4
		c0.6-0.9,1.4-1.4,2.2-1.4c1,0,1.6,0.6,1.6,1.9V29c0,0.4,0.2,0.5,0.9,0.5v0.2h-3.1v-0.2c0.6,0,0.7-0.1,0.7-0.5v-3.3
		c0-1-0.3-1.5-1-1.5c-0.4,0-1,0.4-1.4,1v0.1v3.8c0,0.4,0.2,0.5,0.9,0.5v0.2h-3v-0.2H75.8z"/>
	<path d="M86,28.8l2.1-1.7c1.8-1.5,2.4-2.4,2.4-4c0-1.6-0.7-2.2-1.6-2.2c-0.6,0-1.4,0.3-1.6,0.8c0.5,0.2,0.8,0.5,0.8,1s-0.3,1-0.9,1
		s-1-0.5-1-1c0-1.2,1.4-2.1,3-2.1c2,0,3.1,1.1,3.1,2.4c0,1.2-0.8,2.1-3.1,3.8L87,28.4v0.1h3.5c1,0,1.2-0.2,1.6-1.4h0.2v2.7H86V28.8z
		"/>
	<path d="M95.9,27.6h0.2c0.9,1.5,1.4,2,2.3,2c0.7,0,1.2-0.5,1.2-1c0-0.6-0.4-0.9-1.7-1.3c-1.4-0.4-1.9-0.8-1.9-1.8
		c0-1.2,0.9-2,2.3-2c0.6,0,1.2,0.2,1.5,0.4l0.3-0.4h0.1v2H100c-0.8-1.3-1.2-1.7-2-1.7c-0.6,0-1.1,0.4-1.1,1s0.5,0.9,1.6,1.1
		c1.4,0.4,2,0.9,2,1.9c0,1.1-0.8,2.1-2.3,2.1c-0.5,0-1.4-0.2-1.8-0.5L96,29.9h-0.1V27.6z"/>
	<path d="M101.4,26.7c0-1.9,1.4-3.3,3-3.3c1.8,0,2.7,1.3,2.6,2.8h-4.1v0.3l0,0c0,1.6,0.7,2.7,2.1,2.7c0.8,0,1.3-0.4,1.9-1.1l0.1,0.1
		c-0.5,0.9-1.3,1.6-2.6,1.6C102.6,29.9,101.4,28.6,101.4,26.7z M102.9,26.1h2.6c0.1-1.5-0.2-2.4-1.2-2.4
		C103.5,23.7,103,24.5,102.9,26.1z"/>
	<path d="M107.5,32.1c0.8,0,0.9-0.1,0.9-0.5v-7.1c0-0.4-0.2-0.7-0.9-0.7v-0.2l2.3-0.1v0.9c0.6-0.6,1.2-1,2-1c1.6,0,2.4,1.3,2.4,3.1
		c0,1.8-1.1,3.3-2.8,3.3c-0.7,0-1.1-0.1-1.6-0.4v2.2c0,0.4,0.3,0.5,1.3,0.5v0.2h-3.6C107.5,32.3,107.5,32.1,107.5,32.1z M112.8,26.7
		c0-1.4-0.5-2.6-1.6-2.6c-0.5,0-0.9,0.2-1.3,0.7v3.9c0.3,0.7,0.8,1,1.4,1C112.3,29.6,112.8,28.6,112.8,26.7z"/>
	<path d="M115.9,28.1v-4h-1.2v-0.2l1.2-0.3v-1.7l1.4-0.5v2.2h1.9V24h-1.9v4.2c0,0.8,0.2,1.1,0.8,1.1c0.4,0,0.8-0.3,1.1-0.9l0.2,0.1
		c-0.4,0.9-1,1.3-1.9,1.3C116.5,29.9,115.9,29.3,115.9,28.1z"/>
	<path d="M119.7,26.7c0-1.9,1.4-3.3,3-3.3c1.8,0,2.7,1.3,2.6,2.8h-4.1v0.3l0,0c0,1.6,0.7,2.7,2.1,2.7c0.8,0,1.3-0.4,1.9-1.1l0.1,0.1
		c-0.5,0.9-1.3,1.6-2.6,1.6C121,29.9,119.7,28.6,119.7,26.7z M121.3,26.1h2.6c0.1-1.5-0.2-2.4-1.2-2.4
		C121.9,23.7,121.4,24.5,121.3,26.1z"/>
	<path d="M130.1,29.6c0.6,0,0.8-0.1,0.8-0.5v-3.4c0-1-0.3-1.5-1.1-1.5c-0.6,0-1,0.4-1.4,1.1v3.8c0,0.4,0.1,0.5,0.7,0.5v0.2H126v-0.2
		c0.8,0,0.9-0.1,0.9-0.5v-4.6c0-0.4-0.2-0.7-0.9-0.7v-0.2l2.3-0.1v1.4c0.6-1,1.3-1.5,2.2-1.5s1.5,0.5,1.6,1.4
		c0.6-0.9,1.4-1.4,2.2-1.4c1,0,1.6,0.6,1.6,1.9V29c0,0.4,0.2,0.5,0.9,0.5v0.2h-3.1v-0.2c0.6,0,0.7-0.1,0.7-0.5v-3.3
		c0-1-0.3-1.5-1-1.5c-0.4,0-1,0.4-1.4,1v0.1v3.8c0,0.4,0.2,0.5,0.9,0.5v0.2h-3v-0.2H130.1z"/>
	<path d="M138,28.7v-7.6c0-0.5-0.1-0.7-1.1-0.7v-0.2l2.5-0.1v4.3c0.5-0.5,1.2-0.9,2-0.9c1.6,0,2.5,1.3,2.5,3c0,1.9-1.1,3.4-2.9,3.4
		c-0.7,0-1.4-0.2-2.1-0.6l-0.7,0.7H138V28.7z M142.4,26.5c0-1.5-0.6-2.5-1.6-2.5c-0.5,0-0.9,0.2-1.3,0.6v3.9
		c0.3,0.7,0.8,1.1,1.4,1.1C141.9,29.6,142.4,28.4,142.4,26.5z"/>
	<path d="M144.8,26.7c0-1.9,1.4-3.3,3-3.3c1.8,0,2.7,1.3,2.6,2.8h-4.1v0.3l0,0c0,1.6,0.7,2.7,2.1,2.7c0.8,0,1.3-0.4,1.9-1.1l0.1,0.1
		c-0.5,0.9-1.3,1.6-2.6,1.6C146,29.9,144.8,28.6,144.8,26.7z M146.3,26.1h2.6c0.1-1.5-0.2-2.4-1.2-2.4
		C146.9,23.7,146.4,24.5,146.3,26.1z"/>
	<path d="M151.1,29.6c0.8,0,0.9-0.1,0.9-0.5v-4.6c0-0.4-0.2-0.7-0.9-0.7v-0.2l2.3-0.1v1.4c0.5-0.9,1.1-1.4,1.8-1.4s1.1,0.5,1.1,1
		s-0.3,0.9-0.8,0.9s-0.8-0.3-0.8-0.8c0-0.1,0-0.3,0.1-0.4c-0.5,0.1-0.9,0.5-1.3,1.1v3.9c0,0.4,0.3,0.5,1.2,0.5v0.2h-3.5v-0.3H151.1z
		"/>
</g>
<rect x="-13.6" y="-26.5" class="st0" width="180.5" height="29.4"/>
<g>
	<path d="M0,12c1.2,0,1.5-0.3,1.5-0.9V3.9C1.5,3.3,1.2,3,0,3V2.8h7.8l0,3l-0.2,0C6.8,4,6.2,3.1,4.6,3.1H3v4.1h0.7
		c1.1,0,1.7-0.4,2.1-1.8H6v3.9H5.8C5.4,7.9,4.9,7.5,3.7,7.5H3v4.5h1.6C6.5,11.9,7.2,11,8,9l0.2,0l-0.1,3.2H0V12z"/>
	<path d="M13.4,7.5c0.6-0.8,0.5-1.2-0.3-1.4V6h2.6v0.2c-0.8,0.1-1.1,0.4-1.8,1.3l-1,1.3l1.6,2.2c0.6,0.8,0.8,1,1.4,1.1v0.2h-3.2V12
		c0.9-0.1,0.8-0.3,0.5-0.9l-1.1-1.6L11,10.7c-0.6,0.8-0.5,1.2,0.4,1.3v0.2H8.8V12c0.7-0.1,1-0.4,1.7-1.2l1.2-1.5l-1.5-2.1
		c-0.6-0.9-0.8-1-1.4-1.1V6H12v0.2c-0.8,0.1-0.7,0.3-0.4,0.9l1,1.5L13.4,7.5z"/>
	<path d="M16.8,10.5v-4h-1.2V6.3L16.8,6V4.3l1.4-0.5v2.2h1.9v0.4h-1.9v4.2c0,0.8,0.2,1.1,0.8,1.1c0.4,0,0.8-0.3,1.1-0.9l0.2,0.1
		c-0.4,0.9-1,1.3-1.9,1.3C17.4,12.3,16.8,11.7,16.8,10.5z"/>
	<path d="M20.5,12c0.8,0,0.9-0.1,0.9-0.5V6.9c0-0.4-0.2-0.7-0.9-0.7V6.1L22.8,6v1.4c0.5-0.9,1.1-1.4,1.8-1.4c0.7,0,1.1,0.5,1.1,1
		c0,0.5-0.3,0.9-0.8,0.9c-0.5,0-0.8-0.3-0.8-0.8c0-0.1,0-0.3,0.1-0.4c-0.5,0.1-0.9,0.5-1.3,1.1v3.9c0,0.4,0.3,0.5,1.2,0.5v0.2h-3.5
		V12z"/>
	<path d="M26.2,10.8c0-0.5,0.2-1,0.8-1.4c1-0.5,2.6-0.6,2.9-0.8v-1c0-1-0.3-1.5-1.1-1.5c-0.5,0-0.9,0.1-1.1,0.4
		c0.2,0.2,0.4,0.5,0.4,0.7c0,0.5-0.3,0.8-0.8,0.8c-0.5,0-0.8-0.3-0.8-0.8c0-0.8,1-1.4,2.5-1.4c1.5,0,2.3,0.6,2.3,2V11
		c0,0.7,0.2,0.9,1,0.6l0.1,0.1c-0.5,0.3-0.8,0.5-1.3,0.5c-0.7,0-1-0.3-1.1-1h-0.1c-0.5,0.6-1.1,1.1-2,1.1
		C26.7,12.2,26.2,11.5,26.2,10.8z M29.9,10.9v-2c-1.8,0.3-2.2,0.7-2.2,1.6c0,0.6,0.3,1.1,1,1.1C29.2,11.6,29.6,11.3,29.9,10.9z"/>
	<path d="M32.8,9.1c0-1.9,1.4-3.2,3.1-3.2C37.7,5.9,39,7.1,39,9c0,1.9-1.4,3.2-3.1,3.2C34.1,12.3,32.8,11,32.8,9.1z M37.4,9.1
		c0-2.1-0.6-2.9-1.6-2.9c-1,0-1.5,0.8-1.5,2.9s0.6,2.9,1.6,2.9C36.9,12,37.4,11.2,37.4,9.1z"/>
	<path d="M39.7,12c0.8,0,0.9-0.1,0.9-0.5V6.9c0-0.4-0.2-0.7-0.9-0.7V6.1L42,6v1.4c0.5-0.9,1.1-1.4,1.8-1.4c0.7,0,1.1,0.5,1.1,1
		c0,0.5-0.3,0.9-0.8,0.9c-0.5,0-0.8-0.3-0.8-0.8c0-0.1,0-0.3,0.1-0.4c-0.5,0.1-0.9,0.5-1.3,1.1v3.9c0,0.4,0.3,0.5,1.2,0.5v0.2h-3.5
		V12z"/>
	<path d="M45.3,9.2c0-1.8,1.2-3.3,3.1-3.3c0.6,0,1,0.1,1.4,0.3V3.5c0-0.5-0.1-0.7-1.1-0.7V2.7l2.5-0.1v8.9c0,0.3,0.2,0.5,1,0.5v0.1
		l-2.3,0.1v-0.7c-0.4,0.5-1,0.8-1.8,0.8C46.3,12.3,45.3,10.9,45.3,9.2z M49.8,11.2V6.8c-0.3-0.4-0.7-0.7-1.3-0.7c-1,0-1.6,1.2-1.6,3
		c0,1.5,0.6,2.6,1.8,2.6C49.2,11.7,49.5,11.5,49.8,11.2z"/>
	<path d="M52.6,12c0.8,0,1-0.1,1-0.5V6.9c0-0.4-0.2-0.7-1-0.7V6.1L54.9,6v5.5c0,0.4,0.1,0.5,1,0.5v0.2h-3.4V12z M53.3,4
		c0-0.5,0.3-0.9,0.9-0.9C54.7,3,55,3.4,55,3.9c0,0.5-0.3,0.9-0.9,0.9C53.6,4.8,53.3,4.5,53.3,4z"/>
	<path d="M56.4,12c0.8,0,0.9-0.1,0.9-0.5V6.9c0-0.4-0.2-0.7-0.9-0.7V6.1L58.7,6v1.4c0.6-0.9,1.4-1.5,2.3-1.5c1.1,0,1.6,0.6,1.6,1.9
		v3.7c0,0.4,0.2,0.5,0.9,0.5v0.2h-3.2V12c0.6,0,0.8-0.1,0.8-0.5V8.1c0-1-0.3-1.4-1.1-1.4c-0.6,0-1.1,0.4-1.4,1.1v3.8
		c0,0.4,0.2,0.5,0.8,0.5v0.2h-3.1V12z"/>
	<path d="M64.2,10.8c0-0.5,0.2-1,0.8-1.4c1-0.5,2.6-0.6,2.9-0.8v-1c0-1-0.3-1.5-1.1-1.5c-0.5,0-0.9,0.1-1.1,0.4
		c0.2,0.2,0.4,0.5,0.4,0.7c0,0.5-0.3,0.8-0.8,0.8c-0.5,0-0.8-0.3-0.8-0.8c0-0.8,1-1.4,2.5-1.4c1.5,0,2.3,0.6,2.3,2V11
		c0,0.7,0.2,0.9,1,0.6l0.1,0.1c-0.5,0.3-0.8,0.5-1.3,0.5c-0.7,0-1-0.3-1.1-1h-0.1c-0.5,0.6-1.1,1.1-2,1.1
		C64.8,12.2,64.2,11.5,64.2,10.8z M67.9,10.9v-2c-1.8,0.3-2.2,0.7-2.2,1.6c0,0.6,0.3,1.1,1,1.1C67.2,11.6,67.6,11.3,67.9,10.9z"/>
	<path d="M70.5,12c0.8,0,0.9-0.1,0.9-0.5V6.9c0-0.4-0.2-0.7-0.9-0.7V6.1L72.9,6v1.4c0.5-0.9,1.1-1.4,1.8-1.4c0.7,0,1.1,0.5,1.1,1
		c0,0.5-0.3,0.9-0.8,0.9c-0.5,0-0.8-0.3-0.8-0.8c0-0.1,0-0.3,0.1-0.4c-0.5,0.1-0.9,0.5-1.3,1.1v3.9c0,0.4,0.3,0.5,1.2,0.5v0.2h-3.5
		V12z"/>
	<path d="M76.9,7.2c-0.3-0.7-0.5-0.9-1.2-1V6H79v0.2c-0.8,0.1-0.9,0.3-0.7,0.8l1.6,3.7l1.2-3c0.4-1.1,0.2-1.4-0.7-1.5V6h2.4v0.2
		c-0.5,0.1-0.9,0.4-1.2,1.2l-2.2,5.3c-0.7,1.7-1.4,2.2-2.1,2.2c-0.6,0-1-0.4-1-0.9c0-0.4,0.3-0.8,0.8-0.8c0.4,0,0.7,0.3,0.7,0.8
		c0,0.3-0.1,0.5-0.3,0.7c0.5-0.1,1-0.4,1.7-2.1l0.1-0.2L76.9,7.2z"/>
	<path d="M85.7,9.1h0.2c0.8,1.8,1.8,3,3.2,3c1.3,0,2-0.9,2-1.7c0-1.2-0.8-1.6-2.5-2.2c-1.3-0.5-2.7-0.9-2.7-2.6
		c0-1.8,1.4-2.9,3.2-2.9c0.8,0,1.5,0.2,2,0.5l0.5-0.5h0.2v3h-0.2c-0.7-1.8-1.6-2.6-2.7-2.6c-0.9,0-1.7,0.6-1.7,1.6
		c0,1.1,0.9,1.6,2.4,2.1c1.3,0.4,2.6,0.9,2.6,2.6c0,1.5-0.9,3.1-3.2,3.1c-0.8,0-1.7-0.3-2.2-0.6l-0.8,0.7h-0.2V9.1z"/>
	<path d="M92.9,12c0.8,0,0.9-0.1,0.9-0.5v-8c0-0.5-0.1-0.7-1.1-0.7V2.7l2.5-0.1v4.8c0.6-0.9,1.4-1.5,2.3-1.5c1.1,0,1.6,0.6,1.6,1.9
		v3.7c0,0.4,0.2,0.5,1,0.5v0.2H97V12c0.6,0,0.8-0.1,0.8-0.5V8.1c0-1-0.3-1.5-1.1-1.5c-0.6,0-1.1,0.4-1.4,1.1v3.8
		c0,0.4,0.2,0.5,0.8,0.5v0.2h-3.2V12z"/>
	<path d="M100.6,9.1c0-1.9,1.4-3.2,3.1-3.2c1.8,0,3.1,1.3,3.1,3.2c0,1.9-1.4,3.2-3.1,3.2C102,12.3,100.6,11,100.6,9.1z M105.3,9.1
		c0-2.1-0.6-2.9-1.6-2.9c-1,0-1.5,0.8-1.5,2.9s0.6,2.9,1.6,2.9C104.8,12,105.3,11.2,105.3,9.1z"/>
	<path d="M107.7,9.2c0-1.9,1.4-3.3,3-3.3c1.8,0,2.7,1.3,2.6,2.8h-4.1V9v0c0,1.6,0.7,2.7,2.1,2.7c0.8,0,1.3-0.4,1.9-1.1l0.1,0.1
		c-0.5,0.9-1.3,1.6-2.6,1.6C109,12.3,107.7,11,107.7,9.2z M109.3,8.5h2.6c0.1-1.5-0.2-2.4-1.2-2.4C109.9,6.1,109.4,7,109.3,8.5z"/>
	<path d="M116.7,12c1.2,0,1.5-0.3,1.5-0.9V3.9c0-0.5-0.3-0.8-1.5-0.9V2.8h4.2c3.3,0,5,1.9,5,4.5c0,2.5-1.5,4.8-4.9,4.8h-4.3V12z
		 M120.6,11.9c2.7,0,3.5-1,3.5-4.5c0-3.5-1.2-4.3-3.5-4.3h-0.9v8.8H120.6z"/>
	<path d="M127,9.2c0-1.9,1.4-3.3,3-3.3c1.8,0,2.7,1.3,2.6,2.8h-4.1V9v0c0,1.6,0.7,2.7,2.1,2.7c0.8,0,1.3-0.4,1.9-1.1l0.1,0.1
		c-0.5,0.9-1.3,1.6-2.6,1.6C128.2,12.3,127,11,127,9.2z M128.5,8.5h2.6c0.1-1.5-0.2-2.4-1.2-2.4C129.1,6.1,128.6,7,128.5,8.5z"/>
	<path d="M133.5,10h0.2c0.9,1.5,1.4,2,2.3,2c0.7,0,1.1-0.5,1.1-1c0-0.6-0.4-0.9-1.7-1.3c-1.4-0.4-1.9-0.8-1.9-1.8c0-1.1,0.9-2,2.3-2
		c0.6,0,1.1,0.2,1.5,0.4l0.3-0.4h0.1v2h-0.2c-0.8-1.3-1.2-1.7-2-1.7c-0.6,0-1.1,0.4-1.1,1c0,0.6,0.5,0.9,1.6,1.1
		c1.4,0.4,2,0.9,2,1.9c0,1.1-0.8,2.1-2.3,2.1c-0.5,0-1.4-0.2-1.8-0.5l-0.4,0.5h-0.1V10z"/>
	<path d="M138.9,12c0.8,0,1-0.1,1-0.5V6.9c0-0.4-0.2-0.7-1-0.7V6.1l2.4-0.1v5.5c0,0.4,0.1,0.5,1,0.5v0.2h-3.4V12z M139.7,4
		c0-0.5,0.3-0.9,0.9-0.9c0.5,0,0.9,0.3,0.9,0.9c0,0.5-0.3,0.9-0.9,0.9C140,4.8,139.7,4.5,139.7,4z"/>
	<path d="M146.9,6.2c0.3-0.6,0.7-1.1,1.4-1.1c0.5,0,0.8,0.3,0.8,0.7c0,0.3-0.2,0.6-0.6,0.6c-0.3,0-0.6-0.3-0.6-0.7
		c-0.3,0.1-0.6,0.3-0.7,0.6c0.6,0.3,1.1,0.9,1.1,1.7c0,1.3-1.2,2.1-2.5,2.1c-0.3,0-0.6,0-0.9-0.1c-0.5,0.2-0.8,0.4-0.8,0.6
		c0,0.3,0.2,0.5,1.3,0.5h1c1.6,0,2.4,0.5,2.4,1.6c0,1.1-1.2,2.2-3.3,2.2c-1.7,0-2.7-0.6-2.7-1.4c0-0.6,0.6-1.1,1.6-1.3v0
		c-0.8-0.2-1.2-0.6-1.2-1.2c0-0.4,0.4-0.9,1.2-1.2c-0.8-0.3-1.3-0.9-1.3-1.8c0-1.3,1.2-2.1,2.5-2.1C146.1,5.9,146.5,6,146.9,6.2z
		 M147.9,13.2c0-0.5-0.4-0.9-1.8-0.9h-1.4c-0.6,0.2-0.9,0.5-0.9,1c0,0.7,0.6,1.3,2,1.3C147,14.6,147.9,14,147.9,13.2z M146.7,8
		c0-1.1-0.4-1.8-1.2-1.8c-0.8,0-1,0.6-1,1.8c0,1.3,0.4,1.8,1.2,1.8C146.4,9.8,146.7,9.2,146.7,8z"/>
	<path d="M149.1,12c0.8,0,0.9-0.1,0.9-0.5V6.9c0-0.4-0.2-0.7-0.9-0.7V6.1l2.3-0.1v1.4c0.6-0.9,1.4-1.5,2.3-1.5
		c1.1,0,1.6,0.6,1.6,1.9v3.7c0,0.4,0.2,0.5,0.9,0.5v0.2h-3.2V12c0.6,0,0.8-0.1,0.8-0.5V8.1c0-1-0.3-1.4-1.1-1.4
		c-0.6,0-1.1,0.4-1.4,1.1v3.8c0,0.4,0.2,0.5,0.8,0.5v0.2h-3.1V12z"/>
</g>
</svg>
