<?xml version="1.0" encoding="utf-8"?>
<!-- Generator: Adobe Illustrator 24.3.0, SVG Export Plug-In . SVG Version: 6.00 Build 0)  -->
<svg version="1.1" id="Laag_1" xmlns="http://www.w3.org/2000/svg" xmlns:xlink="http://www.w3.org/1999/xlink" x="0px" y="0px"
	 width="124.7px" height="6px" viewBox="0 0 124.7 6" style="enable-background:new 0 0 124.7 6;" xml:space="preserve">
<style type="text/css">
	.st0{fill:#E71984;}
</style>
<path class="st0" d="M115.4,6h1.7V1.7h0l2.3,4.2h1.3l2.3-4.2h0V6h1.7V0.1H122l-2,3.8l-2-3.8h-2.7V6z M107,3.9c0,1.5,0.7,2.2,2.3,2.2
	h2.5c1.6,0,2.3-0.7,2.3-2.2V0.1h-1.7v3.4c0,0.8-0.3,1-1,1h-1.7c-0.7,0-1-0.3-1-1V0.1H107V3.9z M99.6,6h6.3V4.5h-4.6V3.6h4.2V2.4
	h-4.2V1.4h4.5V0.1h-6.2V6z M91.3,4.4c0,1.3,0.6,1.6,2.2,1.6h2.1c2.3,0,2.8-0.3,2.8-1.8c0-1.7-0.6-1.9-3.3-1.9c-1.9,0-2.1,0-2.1-0.5
	c0-0.3,0.3-0.5,0.7-0.5h1.9c0.8,0,0.8,0.2,0.8,0.6h1.7V1.7C98.2,0.7,98,0,96,0h-2.4c-2.2,0-2.3,0.8-2.3,1.9c0,1.4,0.3,1.8,2.9,1.8
	c2.2,0,2.4,0,2.4,0.5c0,0.5-0.4,0.5-0.7,0.5h-2.1c-0.5,0-0.7,0-0.8-0.7h-1.7V4.4z M82.9,3.9c0,1.5,0.7,2.2,2.3,2.2h2.5
	c1.6,0,2.3-0.7,2.3-2.2V0.1h-1.7v3.4c0,0.8-0.3,1-1,1h-1.7c-0.7,0-1-0.3-1-1V0.1h-1.7V3.9z M72.4,6h1.7V1.7h0L76.4,6h1.3L80,1.7h0V6
	h1.7V0.1H79l-2,3.8l-2-3.8h-2.7V6z M61.3,6h1.7V4.4h2.7c0.5,0,0.7,0.2,0.7,0.8V6h1.7V5c0-1-0.4-1.2-1-1.3v0c0.8-0.2,1-0.7,1-1.4V1.8
	c0-1.1-0.4-1.8-1.7-1.8h-5.3V6z M63.1,1.5h2.7c0.5,0,0.8,0.1,0.8,0.6v0.2c0,0.4-0.2,0.6-0.6,0.6h-2.9V1.5z M54,6h6.3V4.5h-4.6V3.6
	H60V2.4h-4.2V1.4h4.5V0.1H54V6z M45.7,3.9c0,1.7,0.9,2.1,2.5,2.1h2.1c2,0,2.8-0.1,2.8-1.8V2.6h-3.9v1.2h2.2V4c0,0.6-0.5,0.6-0.9,0.6
	h-1.9c-0.9,0-1.1-0.2-1.1-1.2V2.6c0-1,0.2-1.2,1.1-1.2h1.9c0.6,0,0.9,0.1,0.9,0.7H53V1.9C53,0.7,52.8,0,50.8,0h-2.6
	c-1.6,0-2.5,0.4-2.5,2.1V3.9z M36.9,6h1.7V1.7h0L42,6h2.7V0.1h-1.7v4.3h0l-3.3-4.3h-2.7V6z M34,6h1.7V0.1H34V6z M25.1,6h1.7V1.7h0
	L30.1,6h2.7V0.1h-1.7v4.3h0l-3.3-4.3h-2.7V6z M18.1,2.7c0-0.7,0.2-1.2,1.1-1.2h2c0.9,0,1.1,0.4,1.1,1.2v0.6c0,0.9-0.2,1.2-1,1.2
	h-2.2c-0.8,0-1-0.3-1-1.2V2.7z M16.3,3.9c0,1.7,0.9,2.1,2.5,2.1h2.8c1.6,0,2.5-0.4,2.5-2.1V2.1c0-1.7-0.9-2.1-2.5-2.1h-2.8
	c-1.6,0-2.5,0.4-2.5,2.1V3.9z M8.4,6h1.7V4.4h2.7c0.5,0,0.7,0.2,0.7,0.8V6h1.7V5c0-1-0.4-1.2-0.9-1.3v0c0.8-0.2,1-0.7,1-1.4V1.8
	c0-1.1-0.4-1.8-1.7-1.8H8.4V6z M10.1,1.5h2.7c0.5,0,0.8,0.1,0.8,0.6v0.2C13.6,2.8,13.5,3,13,3h-2.9V1.5z M0,3.9C0,5.6,0.9,6,2.5,6
	h2.1c2,0,2.8-0.1,2.8-1.8V2.6H3.5v1.2h2.2V4c0,0.6-0.5,0.6-0.9,0.6H2.9C2,4.6,1.8,4.4,1.8,3.4V2.6c0-1,0.2-1.2,1.1-1.2h1.9
	c0.6,0,0.9,0.1,0.9,0.7h1.7V1.9C7.4,0.7,7.1,0,5.1,0H2.5C0.9,0,0,0.4,0,2.1V3.9z"/>
</svg>
