<?xml version="1.0" encoding="utf-8"?>
<!-- Generator: Adobe Illustrator 24.3.0, SVG Export Plug-In . SVG Version: 6.00 Build 0)  -->
<svg version="1.1" id="Laag_1" xmlns="http://www.w3.org/2000/svg" xmlns:xlink="http://www.w3.org/1999/xlink" x="0px" y="0px"
	 width="118.9px" height="10.9px" viewBox="0 0 118.9 10.9" style="enable-background:new 0 0 118.9 10.9;" xml:space="preserve">
<style type="text/css">
	.st0{fill:#FFFFFF;}
</style>
<g>
	<path class="st0" d="M3.4,8.9C1.9,8.9,0.8,8.5,0,7.8l0.7-0.9c0.1-0.1,0.3-0.2,0.4,0c0.6,0.5,1.4,0.7,2.3,0.7c0.5,0,0.9-0.1,1.3-0.3
		s0.5-0.5,0.5-0.8c0-0.3-0.1-0.5-0.3-0.7s-0.6-0.4-1-0.5L2.5,4.8C1.8,4.7,1.3,4.4,0.8,4S0.2,3.1,0.2,2.5c0-0.8,0.3-1.3,0.8-1.7
		s1.3-0.6,2.2-0.6c0.3,0,0.6,0,1,0.1S4.8,0.4,5,0.5s0.4,0.2,0.6,0.3S6,1,6.1,1.1s0.2,0.1,0.2,0.2L5.6,2.2C5.5,2.3,5.4,2.3,5.3,2.3
		s-0.2,0-0.2-0.1C4.4,1.8,3.8,1.6,3.2,1.6c-0.9,0-1.4,0.3-1.4,0.9c0,0.2,0.1,0.4,0.2,0.6s0.4,0.3,0.8,0.3l1.4,0.4
		c1.7,0.4,2.6,1.3,2.6,2.6c0,0.8-0.3,1.5-0.9,1.9S4.4,8.9,3.4,8.9z"/>
	<path class="st0" d="M10.4,8.9c-1,0-1.7-0.3-2.3-0.9S7.3,6.6,7.3,5.7c0-1,0.3-1.8,0.8-2.4s1.3-0.9,2.3-0.9c0.8,0,1.4,0.2,1.9,0.6
		s0.9,0.9,1,1.6l-1.1,0.3c-0.2,0-0.4,0-0.4-0.2c-0.3-0.6-0.7-0.9-1.4-0.9c-0.5,0-0.9,0.2-1.2,0.6S8.8,5,8.8,5.7
		c0,0.6,0.1,1.1,0.4,1.4s0.7,0.5,1.2,0.5c0.4,0,0.7-0.1,0.9-0.3s0.4-0.4,0.5-0.8c0-0.1,0.1-0.2,0.2-0.2s0.2-0.1,0.3,0l1.1,0.2
		c-0.2,0.8-0.5,1.3-1,1.7S11.2,8.9,10.4,8.9z"/>
	<path class="st0" d="M17.2,8.9c-1,0-1.7-0.3-2.3-0.9s-0.8-1.4-0.8-2.4s0.3-1.8,0.8-2.4s1.3-0.9,2.3-0.9c1,0,1.7,0.3,2.3,0.9
		s0.8,1.4,0.8,2.4S20,7.4,19.5,8S18.1,8.9,17.2,8.9z M16,7.1c0.3,0.4,0.7,0.5,1.2,0.5s0.9-0.2,1.2-0.5s0.4-0.8,0.4-1.5
		s-0.1-1.1-0.4-1.5s-0.7-0.5-1.2-0.5S16.3,3.8,16,4.2S15.5,5,15.5,5.6S15.7,6.7,16,7.1z"/>
	<path class="st0" d="M24.9,2.3c0.9,0,1.6,0.3,2.1,0.9s0.8,1.4,0.8,2.4c0,1-0.3,1.9-0.8,2.4s-1.3,0.9-2.2,0.9
		c-0.7,0-1.3-0.2-1.8-0.6v2.6h-1.5V2.4h1.1c0.1,0,0.1,0,0.2,0.1s0.1,0.1,0.1,0.2v0.6C23.5,2.6,24.1,2.3,24.9,2.3z M24.7,7.6
		c0.5,0,0.9-0.2,1.2-0.5s0.4-0.8,0.4-1.4c0-0.6-0.1-1.1-0.4-1.4s-0.7-0.5-1.2-0.5c-0.5,0-0.9,0.2-1.2,0.5s-0.5,0.8-0.5,1.4v0.1
		c0,0.6,0.1,1.1,0.4,1.4S24.2,7.6,24.7,7.6z"/>
	<path class="st0" d="M32.3,2.4h0.1v0.9c0,0.1,0,0.2-0.1,0.3S32.1,3.7,32,3.7h-0.1c-0.5,0-0.9,0.2-1.2,0.5S30.3,5,30.3,5.6v3.2h-1.5
		V2.4h1.1c0.1,0,0.1,0,0.2,0.1s0.1,0.1,0.1,0.2v0.7C30.7,2.8,31.4,2.4,32.3,2.4z"/>
	<path class="st0" d="M34.1,1.7c-0.2,0-0.4-0.1-0.6-0.2s-0.2-0.4-0.2-0.6c0-0.2,0.1-0.4,0.2-0.6S33.8,0,34.1,0
		c0.2,0,0.4,0.1,0.6,0.2s0.2,0.4,0.2,0.6c0,0.2-0.1,0.4-0.2,0.6S34.3,1.7,34.1,1.7z M33.4,8.8V2.4h1.5v6.4H33.4z"/>
	<path class="st0" d="M42.7,8.9c-1,0-1.7-0.3-2.3-0.9s-0.8-1.4-0.8-2.4c0-1,0.3-1.8,0.8-2.4s1.3-0.9,2.3-0.9c0.8,0,1.4,0.2,1.9,0.6
		s0.9,0.9,1,1.6l-1.1,0.3c-0.2,0-0.4,0-0.4-0.2c-0.3-0.6-0.7-0.9-1.4-0.9c-0.5,0-0.9,0.2-1.2,0.6S41,5,41,5.7c0,0.6,0.1,1.1,0.4,1.4
		s0.7,0.5,1.2,0.5c0.4,0,0.7-0.1,0.9-0.3s0.4-0.4,0.5-0.8c0-0.1,0.1-0.2,0.2-0.2s0.2-0.1,0.3,0l1.1,0.2c-0.2,0.8-0.5,1.3-1,1.7
		S43.4,8.9,42.7,8.9z"/>
	<path class="st0" d="M49.4,8.9c-1,0-1.7-0.3-2.3-0.9s-0.8-1.4-0.8-2.4s0.3-1.8,0.8-2.4s1.3-0.9,2.3-0.9c1,0,1.7,0.3,2.3,0.9
		s0.8,1.4,0.8,2.4S52.3,7.4,51.7,8S50.4,8.9,49.4,8.9z M48.2,7.1c0.3,0.4,0.7,0.5,1.2,0.5s0.9-0.2,1.2-0.5s0.4-0.8,0.4-1.5
		s-0.1-1.1-0.4-1.5s-0.7-0.5-1.2-0.5s-0.9,0.2-1.2,0.5S47.8,5,47.8,5.6S47.9,6.7,48.2,7.1z"/>
	<path class="st0" d="M55.8,8.9c-0.5,0-1-0.1-1.5-0.2S53.5,8.3,53.2,8l0.7-0.8C54,7,54.1,7,54.3,7.1c0.5,0.3,1,0.5,1.5,0.5
		c0.4,0,0.6-0.1,0.8-0.2s0.3-0.3,0.3-0.5c0-0.2-0.1-0.3-0.2-0.4s-0.3-0.2-0.6-0.3c-0.1,0-0.3-0.1-0.6-0.1S55,6,54.9,6
		c-0.5-0.1-0.8-0.3-1.1-0.6s-0.4-0.7-0.4-1.1c0-0.6,0.2-1.1,0.6-1.4s1-0.5,1.7-0.5c0.5,0,0.9,0.1,1.4,0.3s0.7,0.4,1,0.6L57.4,4
		c-0.1,0.1-0.2,0.2-0.4,0c-0.4-0.3-0.9-0.5-1.4-0.5c-0.3,0-0.5,0.1-0.6,0.2S54.8,4,54.8,4.2c0,0.1,0,0.2,0.1,0.3s0.2,0.2,0.4,0.2
		c0,0,0.4,0.1,1.1,0.3c0.6,0.1,1.1,0.4,1.4,0.7s0.5,0.8,0.5,1.2c0,0.6-0.2,1.1-0.7,1.4S56.6,8.9,55.8,8.9z"/>
	<path class="st0" d="M64.8,7.4c0.1,0,0.2,0.2,0.2,0.4v1h-0.2c-0.7,0-1.2-0.3-1.5-0.8C62.8,8.6,62,8.9,61,8.9
		c-0.6,0-1.1-0.2-1.5-0.5S59,7.6,59,7.1c0-0.6,0.2-1,0.6-1.4s1-0.6,1.7-0.7c0.4,0,0.7-0.1,1-0.2s0.4-0.1,0.5-0.2s0.2-0.1,0.3-0.2v0
		c0-0.2-0.1-0.4-0.3-0.6s-0.5-0.2-0.9-0.2c-0.1,0-0.3,0-0.4,0s-0.2,0-0.3,0.1S61,3.8,60.9,3.8s-0.2,0.1-0.2,0.1S60.6,4,60.5,4.1
		s-0.1,0.1-0.1,0.1c-0.1,0.1-0.2,0.1-0.4,0.1s-0.2-0.1-0.3-0.2l-0.5-0.6c0.1-0.1,0.2-0.3,0.4-0.4s0.3-0.3,0.5-0.4s0.5-0.2,0.8-0.3
		s0.6-0.1,0.9-0.1c0.9,0,1.6,0.2,2.1,0.6s0.7,1,0.7,1.9V7c0,0.1,0,0.2,0.1,0.3S64.7,7.4,64.8,7.4L64.8,7.4z M61.2,7.7
		c0.3,0,0.5,0,0.7-0.1s0.4-0.2,0.6-0.3s0.3-0.3,0.4-0.5s0.1-0.5,0.1-0.8V5.7c-0.3,0.3-0.8,0.4-1.5,0.5c-0.4,0-0.7,0.1-0.9,0.2
		S60.4,6.7,60.4,7c0,0.2,0.1,0.4,0.2,0.5S61,7.7,61.2,7.7z"/>
	<path class="st0" d="M73,2.3c0.9,0,1.6,0.3,2.1,0.9s0.8,1.4,0.8,2.4c0,1-0.3,1.9-0.8,2.4s-1.3,0.9-2.2,0.9c-0.7,0-1.3-0.2-1.8-0.6
		v2.6h-1.5V2.4h1.1c0.1,0,0.1,0,0.2,0.1S71,2.6,71,2.7v0.6C71.5,2.6,72.2,2.3,73,2.3z M72.8,7.6c0.5,0,0.9-0.2,1.2-0.5
		s0.4-0.8,0.4-1.4c0-0.6-0.1-1.1-0.4-1.4s-0.7-0.5-1.2-0.5c-0.5,0-0.9,0.2-1.2,0.5s-0.5,0.8-0.5,1.4v0.1c0,0.6,0.1,1.1,0.4,1.4
		S72.3,7.6,72.8,7.6z"/>
	<path class="st0" d="M81.1,2.4h1.5v6.4h-1.1c-0.1,0-0.1,0-0.2-0.1s-0.1-0.1-0.1-0.2V8c-0.4,0.6-1,0.9-1.8,0.9C77.8,8.9,77,8,77,6.3
		V2.4h1.5v3.6c0,0.5,0.1,0.9,0.3,1.2s0.5,0.4,0.9,0.4c0.5,0,0.8-0.1,1.1-0.4s0.4-0.6,0.4-1.1V2.4z"/>
	<path class="st0" d="M87,8.9c-1,0-1.7-0.3-2.3-0.9s-0.8-1.4-0.8-2.4s0.3-1.8,0.8-2.4S86,2.3,87,2.3c1,0,1.7,0.3,2.3,0.9
		s0.8,1.4,0.8,2.4S89.8,7.4,89.3,8S87.9,8.9,87,8.9z M85.8,7.1c0.3,0.4,0.7,0.5,1.2,0.5s0.9-0.2,1.2-0.5s0.4-0.8,0.4-1.5
		s-0.1-1.1-0.4-1.5S87.5,3.6,87,3.6s-0.9,0.2-1.2,0.5S85.3,5,85.3,5.6S85.5,6.7,85.8,7.1z"/>
	<path class="st0" d="M92.1,1.7c-0.2,0-0.4-0.1-0.6-0.2s-0.2-0.4-0.2-0.6c0-0.2,0.1-0.4,0.2-0.6S91.8,0,92.1,0
		c0.2,0,0.4,0.1,0.6,0.2s0.2,0.4,0.2,0.6c0,0.2-0.1,0.4-0.2,0.6S92.3,1.7,92.1,1.7z M91.3,8.8V2.4h1.5v6.4H91.3z"/>
	<path class="st0" d="M100.2,0.2h1.4v1c0,0.1,0,0.2-0.1,0.3s-0.2,0.1-0.3,0.1h-0.9c-0.2,0-0.3,0.1-0.4,0.2S99.7,2,99.7,2.1v0.3h1.3
		v1.3h-1.3v5h-1.5v-5h-0.5c-0.1,0-0.2,0-0.3-0.1s-0.1-0.2-0.1-0.3V2.4h0.9V2.1c0-0.6,0.2-1.1,0.5-1.4S99.6,0.2,100.2,0.2z"/>
	<path class="st0" d="M107.3,7.4c0.1,0,0.2,0.2,0.2,0.4v1h-0.2c-0.7,0-1.2-0.3-1.5-0.8c-0.5,0.6-1.3,0.9-2.3,0.9
		c-0.6,0-1.1-0.2-1.5-0.5s-0.6-0.8-0.6-1.4c0-0.6,0.2-1,0.6-1.4s1-0.6,1.7-0.7c0.4,0,0.7-0.1,1-0.2s0.4-0.1,0.5-0.2s0.2-0.1,0.3-0.2
		v0c0-0.2-0.1-0.4-0.3-0.6s-0.5-0.2-0.9-0.2c-0.1,0-0.3,0-0.4,0s-0.2,0-0.3,0.1s-0.2,0.1-0.3,0.1s-0.2,0.1-0.2,0.1S103.1,4,103,4.1
		s-0.1,0.1-0.1,0.1c-0.1,0.1-0.2,0.1-0.4,0.1s-0.2-0.1-0.3-0.2l-0.5-0.6c0.1-0.1,0.2-0.3,0.4-0.4s0.3-0.3,0.5-0.4s0.5-0.2,0.8-0.3
		s0.6-0.1,0.9-0.1c0.9,0,1.6,0.2,2.1,0.6s0.7,1,0.7,1.9V7c0,0.1,0,0.2,0.1,0.3S107.2,7.4,107.3,7.4L107.3,7.4z M103.7,7.7
		c0.3,0,0.5,0,0.7-0.1s0.4-0.2,0.6-0.3s0.3-0.3,0.4-0.5s0.1-0.5,0.1-0.8V5.7c-0.3,0.3-0.8,0.4-1.5,0.5c-0.4,0-0.7,0.1-0.9,0.2
		s-0.3,0.3-0.3,0.6c0,0.2,0.1,0.4,0.2,0.5S103.5,7.7,103.7,7.7z"/>
	<path class="st0" d="M112,2.4h0.1v0.9c0,0.1,0,0.2-0.1,0.3s-0.2,0.1-0.3,0.1h-0.1c-0.5,0-0.9,0.2-1.2,0.5S110,5,110,5.6v3.2h-1.5
		V2.4h1.1c0.1,0,0.1,0,0.2,0.1s0.1,0.1,0.1,0.2v0.7C110.4,2.8,111.1,2.4,112,2.4z"/>
	<path class="st0" d="M115.7,2.3c1,0,1.7,0.3,2.3,0.9s0.9,1.4,0.9,2.5v0.2c0,0.1,0,0.1-0.1,0.2s-0.1,0.1-0.2,0.1H114
		c0.1,0.4,0.3,0.8,0.6,1.1s0.7,0.4,1.1,0.4c0.3,0,0.6-0.1,0.9-0.2s0.4-0.4,0.5-0.6c0.1-0.1,0.2-0.2,0.3-0.1l1.2,0.4
		c-0.2,0.6-0.6,1-1.1,1.4s-1.1,0.5-1.9,0.5c-1,0-1.7-0.3-2.3-0.9s-0.9-1.4-0.9-2.4c0-1,0.3-1.8,0.9-2.4S114.7,2.3,115.7,2.3z
		 M115.7,3.6c-0.4,0-0.8,0.1-1,0.3s-0.5,0.5-0.6,0.9h3.2c-0.1-0.4-0.3-0.7-0.6-0.9S116.1,3.6,115.7,3.6z"/>
</g>
</svg>
