<?xml version="1.0" encoding="utf-8"?>
<!-- Generator: Adobe Illustrator 24.0.0, SVG Export Plug-In . SVG Version: 6.00 Build 0)  -->
<svg version="1.1" id="Laag_1" xmlns="http://www.w3.org/2000/svg" xmlns:xlink="http://www.w3.org/1999/xlink" x="0px" y="0px"
	 width="84.3px" height="38.7px" viewBox="0 0 84.3 38.7" style="enable-background:new 0 0 84.3 38.7;" xml:space="preserve">
<style type="text/css">
	.st0{fill:#E73F12;}
</style>
<path class="st0" d="M11.9,16.5c-0.9,0.3-2,0.3-3.5,0.3c-0.6,0-2.2,0-2.8,0c-1.2,0-1.8,0-1.8,0L4,16.5c0.3-0.6,0.4-0.8,0.4-5.9
	c0-5-0.1-5-0.4-5.7L3.8,4.6c0,0,0.6,0,1.6,0c0.6,0,2.1,0,2.6,0c1.1,0,2.3,0,3.2,0.2c1.5,0.3,2.5,1,2.5,2.7c0,2.3-1.5,2.8-2.4,3
	c1.6,0.1,2.8,1,2.8,2.9C14.2,15.4,13,16.2,11.9,16.5z M8.5,10.7c0.6-0.1,1.8-0.4,1.8-2.3c0-1.6-0.8-1.9-2-1.9c-0.3,0-0.6,0-0.6,0V15
	c0,0,0.1,0,0.8,0c0.6,0,1-0.1,1.2-0.2c0.3-0.2,0.9-0.5,0.9-1.9C10.6,11.1,9.6,10.8,8.5,10.7z M20.2,12.8c-1,0-1.6-0.2-1.6-0.2
	c0,0.7,0.3,2.3,2.6,2.3s2.8-0.9,2.9-1c0,1.5-1.1,3-4,3c-3.7,0-5-2.2-5-5c0-4.7,3-5.3,4.6-5.3c1,0,4.5-0.1,4.5,3
	C24.2,11,23.9,12.8,20.2,12.8z M19.9,8.4c-1.3,0-1.3,1.1-1.3,2.6c0,0,0.2,0.1,0.9,0.1c1,0,1.5-0.3,1.5-1.4C21,9.1,20.7,8.4,19.9,8.4
	z M34.7,16.5l-3.9,0.4v-4.5c0,0-0.2-0.1-0.7-0.1c-0.8,0-1.7,0.1-1.7,1.6c0,1,0.3,1.5,1,1.5c0.5,0,0.6-0.3,0.6-0.4
	c0,1.7-1.5,1.8-2.3,1.8c-2.5,0-2.8-2.1-2.8-3c0-3,2.3-3.3,4.1-3.3c1,0,1.7,0.1,1.7,0.1v-0.2c0-0.5,0-1-0.3-1.3
	c-0.3-0.3-0.8-0.5-1.7-0.5c-0.9,0-2,0.3-2.7,1.1c0-2.3,1.9-3.1,3.9-3.1c2.3,0,3.3,0.7,3.8,1.5c0.3,0.6,0.4,1.2,0.4,2.7
	c0,0.7,0,1.3,0,2.8c0,1.2,0.1,1.9,0.4,2.4L34.7,16.5z M40.9,17c-4.5,0-4.9-1.8-4.9-4.6c0-1.1,0.1-2.7,0.1-3.3c0-1.2-0.1-1.6-0.6-1.9
	c0,0,0.5-0.5,2.1-0.5c1.9,0,2,0.9,2,2c0,0.7-0.1,2.5-0.1,3.4c0,1.9,0.1,2.9,1.5,2.9c0.7,0,1-0.2,1-0.2v-3.3c0-3-0.2-3.4-0.4-3.9
	l-0.2-0.3l4.2-0.4c0,0-0.1,1.7-0.1,5c0,3.6,0.2,4,0.3,4.3C45.8,16.1,44.1,17,40.9,17z M50.6,17c-1.4,0-2.2-0.5-2.6-1
	c-0.4-0.5-0.5-1.5-0.5-2.7c0-2.7,0.1-4.3,0.1-4.3h-1.1c0,0,0.6-0.6,1.6-1.9c0.9-1.1,1.5-2.1,1.5-2.1H51V7h0.9c1.4,0,1.7-0.2,1.7-0.2
	s0,0.3,0,1.1s0,1.1,0,1.1s-0.3-0.2-1.7-0.2H51v4.2c0,0.7,0,1.1,0.2,1.4c0.2,0.4,0.5,0.6,1.1,0.6c0.9,0,1.4-0.5,1.4-0.5
	C53.7,15.8,52.8,17,50.6,17z M63.6,8c-0.5,1.2-1.1,5.3-2.8,8.9c-0.9,1.8-2.1,3.5-4.5,3.5c-1.4,0-1.7-0.3-1.7-0.3s0-0.4,0-1.3
	c0-1.1,0-1.6,0-1.6c0.5,0.8,0.8,1.3,1.6,1.3c0.8,0,1.1-0.4,1.2-0.8l0-0.1L55.1,11c-0.8-2.3-1.3-3.4-1.9-4c0,0,0.8,0,2.6,0
	c1.9,0,2.5,0,2.5,0c-0.2,0.2-0.5,0.4-0.5,1.1c0,0.6,0.3,1.6,0.6,2.8l0.6,2.5c0.3,1.1,0.3,1.4,0.3,1.4c0.7-1.5,1.2-4.8,1.2-6.3
	c0-1-0.3-1.3-0.5-1.4c0,0,0.6,0,2.2,0c1.6,0,2.2,0,2.2,0C64.1,7.1,63.8,7.5,63.6,8z M73.1,5l-2.5,1.9L68.2,5L70.7,3L73.1,5z
	 M70.9,16.9c-1.9,0-2-1.2-2-1.9c0-1,0.1-2.4,0.1-3.5c0-3-0.2-3.4-0.4-3.9l-0.2-0.3l4.2-0.4c0,0-0.2,1.2-0.2,4.9v1.7
	c0,2,0.1,2.6,0.8,3C73.2,16.3,72.7,16.9,70.9,16.9z M77.5,16.9c-2.4,0-3.1-0.5-3.1-0.5s0-0.4,0-1.5c0-1.1,0-1.6,0-1.6
	c0.7,1.1,1.4,1.6,2.6,1.6c0.9,0,1.3-0.2,1.3-0.7c0-0.5-0.3-0.6-1-1L76,12.8c-1.3-0.6-2.1-1.4-2.1-2.9c0-2,1.4-3.2,4-3.2
	c2.2,0,3.3,0.6,3.3,0.6s0,0.3,0,1.4c0,1.1,0,1.7,0,1.7c-0.8-1.5-1.8-1.6-2.8-1.6c-1,0-1.3,0.3-1.3,0.8c0,0.5,0.2,0.6,0.8,0.9
	l1.3,0.6c1.3,0.6,2.1,1.4,2.1,3C81.2,15.8,80,16.9,77.5,16.9z"/>
<g>
	<path class="st0" d="M13.2,35.4l-3.8,0.4l0.1-2c-0.5,1.9-1.7,2.1-2.8,2.1c-2.4,0-3-1.7-3-3c0-3.1,2.6-3.2,4.1-3.2
		c1,0,1.6,0.1,1.6,0.1v-0.3c0-0.5,0-1-0.3-1.3c-0.3-0.3-0.8-0.5-1.7-0.5c-0.9,0-2,0.3-2.7,1.1c0,0,0.1-0.5,0.1-1.3
		c0-0.9-0.1-1.3-0.1-1.3s1.1-0.5,3.7-0.5c2.3,0,3.3,0.5,3.7,1.1c0.6,0.8,0.7,1.8,0.7,3c0,1.3,0,1.5,0,3c0,1.2,0.1,1.9,0.4,2.4
		L13.2,35.4z M9.3,31.2c0,0-0.1-0.1-0.7-0.1c-0.5,0-1.6,0-1.6,1.5c0,1,0.6,1.4,1.2,1.4c0.8,0,1.1-0.4,1.1-0.4V31.2z"/>
	<path class="st0" d="M20.6,35.8c-2.1,0-2.1-1.2-2.1-1.9c0-1.9,0.1-3.1,0.1-4.1v-2.9c0-3-0.2-3.4-0.4-3.9l-0.2-0.3l4.1-0.4
		c0,0-0.1,1.7-0.1,3.3v6.7c0,2,0.1,2.6,0.8,3C22.8,35.2,22.2,35.8,20.6,35.8z"/>
	<path class="st0" d="M28.4,23.8l-2.5,1.9l-2.5-1.9l2.5-1.9L28.4,23.8z M26.1,35.8c-1.9,0-2-1.2-2-1.9c0-1,0.1-2.4,0.1-3.5
		c0-3-0.2-3.4-0.4-3.9l-0.2-0.3l4.2-0.4c0,0-0.2,1.2-0.2,4.9v1.7c0,2,0.1,2.6,0.8,3C28.4,35.2,27.9,35.8,26.1,35.8z"/>
	<path class="st0" d="M39.9,35.7c0,0-0.7,0-2.3,0c-1.6,0-2.3,0-2.3,0l0.2-0.3c0.3-0.5,0.4-0.6,0.4-4.3c0-2-0.1-2.5-0.2-2.8
		c-0.1-0.2-0.4-0.5-1.1-0.5c-1,0-1.2,0.6-1.2,0.6v2.7c0,3.7,0.2,3.9,0.4,4.3l0.2,0.3c0,0-0.7,0-2.3,0c-1.6,0-2.3,0-2.3,0l0.2-0.3
		c0.3-0.5,0.4-0.6,0.4-4.3v-0.7c0-3-0.2-3.4-0.4-3.9l-0.2-0.3l4-0.4l-0.1,2.5c0.4-1.8,1.4-2.5,3.1-2.5c1.3,0,2.2,0.4,2.6,1.2
		c0.4,0.7,0.5,1.5,0.5,3.5v0.7c0,3.7,0.2,3.9,0.4,4.3L39.9,35.7z"/>
	<path class="st0" d="M45.9,31.7c-1,0-1.6-0.2-1.6-0.2c0,0.7,0.3,2.3,2.6,2.3s2.8-0.9,2.9-1c0,1.5-1.1,3-4,3c-3.7,0-5-2.2-5-5
		c0-4.7,3-5.3,4.6-5.3c1,0,4.5-0.1,4.5,3C49.9,29.8,49.5,31.7,45.9,31.7z M45.6,27.2c-1.3,0-1.3,1.1-1.3,2.6c0,0,0.2,0.1,0.9,0.1
		c1,0,1.5-0.3,1.5-1.4C46.6,28,46.4,27.2,45.6,27.2z"/>
</g>
</svg>
