<?xml version="1.0" encoding="utf-8"?>
<!-- Generator: Adobe Illustrator 19.1.0, SVG Export Plug-In . SVG Version: 6.00 Build 0)  -->
<svg version="1.1" id="Laag_1" xmlns="http://www.w3.org/2000/svg" xmlns:xlink="http://www.w3.org/1999/xlink" x="0px" y="0px"
	 viewBox="-365 494.2 127.4 30.7" style="enable-background:new -365 494.2 127.4 30.7;" xml:space="preserve">
<path d="M-352.3,495.2c-0.5,1.1-1.5,7.8-4.1,12.5c0,0-0.6,0-1.8,0c-1.1,0-1.8,0-1.8,0l-2.7-9c-0.8-2.7-1.1-3.9-1.8-4.5
	c0,0,0.7,0,2.2,0c1.7,0,2.4,0,2.4,0c-0.3,0.1-0.6,0.5-0.6,1.2c0,0.7,0.3,1.8,0.7,3.2l1.8,6.7c0.2,0.5,0.2,1.1,0.2,1.1
	c0.9-1.8,2.8-8,2.8-10.8c0-0.9-0.3-1.2-0.5-1.4c0,0,0.7,0,2,0c1.2,0,1.8,0,1.8,0C-351.9,494.4-352,494.6-352.3,495.2z M-341.4,507.7
	c-1,0-2.3,0-2.3,0c0.2-0.2,0.6-0.5,0.6-1.2c0-0.6-0.3-1.6-0.6-2.8l-0.2-0.9l-2,1.8l-2-1.8l-0.2,0.9c-0.3,1.2-0.6,2.2-0.6,2.8
	c0,0.7,0.4,1,0.6,1.2c0,0-0.9,0-1.9,0s-1.9,0-1.9,0c0.7-0.7,1.1-1.9,1.8-4.5l2.3-7.9c0.1-0.2,0.1-0.5,0.1-0.7c0-0.2-0.1-0.4-0.1-0.4
	h4.8c0,0-0.1,0.1-0.1,0.4c0,0.2,0.1,0.5,0.1,0.7l2.1,7.9c0.7,2.7,1.1,3.8,1.8,4.5C-339.1,507.7-340.3,507.7-341.4,507.7z
	 M-345.6,496.4c-0.2-0.8-0.3-1.3-0.3-1.4c0,0.1-0.1,0.6-0.3,1.4l-1.2,4.5l1.5,1.4l1.5-1.4L-345.6,496.4z M-328.2,507.7
	c-1.4,0-1.9,0-1.9,0s0.5-1.8,0.5-6.6c0-3.8-0.6-5.4-3.2-5.4c-1.1,0-1.7,0.3-1.7,0.3v5.3c0,5.3,0.1,5.3,0.5,6.1l0.2,0.3
	c0,0-0.6,0-2,0c-1.4,0-2,0-2,0l0.2-0.3c0.4-0.7,0.5-0.9,0.5-6.6c0-4.5-0.2-5.2-0.4-5.6c0,0,1.8-1.3,5.2-1.3c5.2,0,5.7,2.9,5.7,6.4
	c0,2.6-0.2,4.2-0.2,5.6c0,1,0.4,1.4,0.8,1.7C-326.3,507.7-326.8,507.7-328.2,507.7z M-310,507.7c-1.4,0-1.9,0-1.9,0s0.5-1.8,0.5-6.6
	c0-3.8-0.6-5.4-3.2-5.4c-1.1,0-1.7,0.3-1.7,0.3v5.3c0,5.3,0.1,5.3,0.5,6.1l0.2,0.3c0,0-0.6,0-2,0s-2,0-2,0l0.2-0.3
	c0.4-0.7,0.5-0.9,0.5-6.6c0-4.5-0.2-5.2-0.4-5.6c0,0,1.8-1.3,5.2-1.3c5.2,0,5.7,2.9,5.7,6.4c0,2.6-0.2,4.2-0.2,5.6
	c0,1,0.4,1.4,0.8,1.7C-308,507.7-308.6,507.7-310,507.7z M-294.1,494.5c-0.4,0.7-0.5,0.9-0.5,6.6c0,4.5,0.2,5.3,0.5,5.7
	c0,0-1.9,1.2-5.4,1.2c-5.4,0-5.8-2.8-5.8-6.4c0-2,0.1-4.2,0.1-5.3c0-0.7,0-1.5-0.8-1.8c0,0,0.7-0.3,1.7-0.3c1.9,0,2,0.8,2,1.7
	c0,0.9-0.2,3.2-0.2,4.9c0,3.3,0.1,5.4,3,5.4c1.5,0,2.1-0.3,2.1-0.3v-5.3c0-5.3-0.1-5.3-0.5-6.1l-0.2-0.3c0,0,0.6,0,2,0s2,0,2,0
	V494.5z M-283.7,507v0.7h-6.4c-1,0-1.5,0-1.5,0l0.2-0.3c0.4-0.7,0.5-0.9,0.5-6.6c0-5.5-0.1-5.6-0.5-6.4l-0.2-0.2c0,0,0.6,0,2.1,0
	s2,0,2,0l-0.2,0.3c-0.4,0.7-0.5,1-0.5,5.8v5.8h1.4c2.4,0,2.7-0.6,3.4-1.6C-283.5,504.5-283.6,505.2-283.7,507z M-282.9,501.9v-1.8
	h4.9v1.8H-282.9z M-262.3,496.8c0,0-0.1-0.2-0.7-0.5c-0.5-0.3-1.2-0.5-2.1-0.5h-1.1v5.3c0,5.5,0.1,5.6,0.5,6.4l0.2,0.3
	c0,0-0.6,0-2,0s-2,0-2,0l0.2-0.3c0.4-0.7,0.5-0.9,0.5-6.6v-5.1h-1.2c-0.9,0-1.6,0.2-2.1,0.5c-0.5,0.3-0.7,0.5-0.7,0.5
	s0.1-0.5,0.1-1.4c0-0.8,0-1.2,0-1.2h10.4c0,0,0,0.4,0,1.2C-262.4,496.3-262.3,496.7-262.3,496.8z M-255.3,508
	c-3.3-0.3-6.2-2.3-6.2-7c0-4.7,3.2-6.8,6.3-7c3.3,0.3,6.2,2.3,6.2,7C-249,505.6-252.2,507.7-255.3,508z M-255.2,495.6
	c-1.4,0.3-3.3,1.3-3.3,5.4c0,4.1,1.8,5.1,3.2,5.3c1.5-0.3,3.3-1.3,3.3-5.4C-252,496.9-253.8,495.9-255.2,495.6z M-237.7,496.8
	c0,0-0.1-0.2-0.7-0.5c-0.5-0.3-1.2-0.5-2.1-0.5h-1.1v5.3c0,5.5,0.1,5.6,0.5,6.4l0.2,0.3c0,0-0.6,0-2,0s-2,0-2,0l0.2-0.3
	c0.4-0.7,0.5-0.9,0.5-6.6v-5.1h-1.1c-0.9,0-1.6,0.2-2.1,0.5c-0.5,0.3-0.7,0.5-0.7,0.5s0.1-0.5,0.1-1.4c0-0.8,0-1.2,0-1.2h10.4
	c0,0,0,0.4,0,1.2C-237.7,496.3-237.7,496.7-237.7,496.8z M-361,524.9c-0.8,0-1.8-0.1-2.4-0.1c-1,0-1.6,0-1.6,0l0.2-0.3
	c0.4-0.7,0.5-0.8,0.5-6.2c0-5.2-0.1-5.3-0.5-6l-0.2-0.1c0,0,0.6,0,1.6,0c0.8,0,1.9-0.1,2.6-0.1c2.4,0,7.1,0.2,7.1,6.1
	C-353.7,524.9-358.3,524.9-361,524.9z M-360.8,513.6c-0.7,0-1,0-1,0v9.7c0,0,0.5,0.1,1,0.1c2.5,0,4.3-1.1,4.3-5
	C-356.5,514.9-358.1,513.6-360.8,513.6z M-340.7,512.5c-0.4,0.7-0.5,0.8-0.5,6.2c0,4.2,0.2,5,0.5,5.4c0,0-1.8,1.1-5.1,1.1
	c-5.1,0-5.5-2.6-5.5-6c0-1.9,0.1-4,0.1-5c0-0.7,0-1.4-0.8-1.7c0,0,0.7-0.3,1.6-0.3c1.8,0,1.9,0.8,1.9,1.6s-0.2,3-0.2,4.6
	c0,3.1,0.1,5.1,2.8,5.1c1.4,0,2-0.3,2-0.3v-5c0-5-0.1-5-0.5-5.7l-0.1-0.4c0,0,0.6,0,1.9,0c1.3,0,1.9,0,1.9,0L-340.7,512.5z
	 M-334.6,524.9c0,0-0.6,0-1.9,0c-1.3,0-1.9,0-1.9,0l0.2-0.3c0.4-0.7,0.5-0.8,0.5-6.2c0-5.2-0.1-5.3-0.5-6l-0.3-0.2c0,0,0.6,0,1.9,0
	c1.4,0,1.9,0,1.9,0l-0.2,0.3c-0.4,0.7-0.5,0.8-0.5,6.2c0,5.2,0.1,5.3,0.5,6L-334.6,524.9z M-323.5,524.4v0.6h-9.4v-0.3
	c0-1.8,0.8-3.2,2.1-4.8l3.1-3.7c0.9-1.1,1.2-1.7,1.3-2.4h-3.4c-0.8,0-1.5,0.2-2,0.5c-0.5,0.3-0.7,0.5-0.7,0.5s0.1-0.4,0.1-1.3
	c0-0.8,0-1.1,0-1.1h8.9v0.3c0,1.9-0.8,3.2-2.1,4.8l-3.1,3.7c-0.8,1-1.2,1.6-1.2,2.4h3.6c2.3,0,2.5-0.6,3.2-1.5
	C-323.2,521.8-323.4,523.1-323.5,524.4z M-313.6,524.2v0.6c0,0-0.8,0.2-3,0.2s-3-0.2-3.8-0.8c-0.8-0.8-0.8-1.6-0.8-3.3v-4.2
	c0-1.7,0.1-2.6,0.8-3.4c0.8-0.7,1.6-0.9,3.8-0.9c2.1,0,2.9,0.2,2.9,0.2s0,0.4,0,1.1c0,0.8,0,1.2,0,1.2s-0.1-0.2-0.6-0.5
	c-0.4-0.2-1.1-0.5-2.1-0.5c-0.8,0-1.7,0.1-2.1,0.8c-0.3,0.4-0.3,0.8-0.3,2.1v1.2h2c0.8,0,1.5-0.1,2-0.4s0.6-0.5,0.7-0.5
	c0,0-0.1,0.6-0.1,1.6s0.1,1.5,0.1,1.6c0,0-0.2-0.2-0.7-0.5c-0.5-0.3-1.1-0.4-2-0.4h-2v1.3c0,1.2,0.1,1.7,0.3,2.1
	c0.4,0.7,1.4,0.7,2.1,0.7c1.7,0,2.3-0.7,2.9-1.6C-313.3,521.8-313.5,522.8-313.6,524.2z M-300.2,512.5c-0.3,0.7-0.5,0.8-0.5,6.2v6.3
	c0,0-0.5-0.1-1.4-0.1c-1,0-1.8,0.1-1.8,0.1l-4.6-9.1c-0.3-0.6-0.5-1.2-0.5-1.3v4.1c0,5.2,0.1,5.3,0.5,6l0.2,0.3c0,0-0.5,0-1.6,0
	c-1.1,0-1.6,0-1.6,0l0.2-0.3c0.3-0.7,0.5-0.8,0.5-6.2c0-5.2-0.1-5.3-0.5-6l-0.1-0.3c0,0,0.6,0,2,0c1.2,0,1.8,0,1.8,0l4.5,9.1
	c0.4,0.8,0.5,1.3,0.5,1.3v-4.2c0-5.2-0.1-5.3-0.5-6v-0.2c0,0,0.5,0,1.6,0c1.1,0,1.6,0,1.6,0L-300.2,512.5z M-293.8,524.9
	c-0.8,0-1.8-0.1-2.4-0.1c-1,0-1.6,0-1.6,0l0.2-0.3c0.4-0.7,0.5-0.8,0.5-6.2c0-5.2-0.1-5.3-0.5-6l-0.3-0.1c0,0,0.6,0,1.6,0
	c0.8,0,1.9-0.1,2.6-0.1c2.4,0,7.1,0.2,7.1,6.1C-286.7,524.9-291.3,524.9-293.8,524.9z M-293.6,513.6c-0.7,0-1,0-1,0v9.7
	c0,0,0.5,0.1,1,0.1c2.5,0,4.3-1.1,4.3-5C-289.4,514.9-291.1,513.6-293.6,513.6z M-278.8,520c-1.2,0-2-0.6-2-1.2c0,0,0.2,0,0.5,0
	c1.1,0,2.4-0.3,2.4-2.7c0-1.7-0.6-2.5-2.4-2.5c-0.7,0-1,0-1,0v5.9c0,4.2,0.1,4.4,0.5,5.1l0.2,0.3c0,0-0.6,0-2,0c-1.3,0-1.9,0-1.9,0
	l0.2-0.3c0.4-0.7,0.5-0.8,0.5-6.2c0-5.2-0.1-5.3-0.5-6l-0.2-0.1c0,0,0.6,0,1.5,0c0.8,0,2.1-0.1,2.9-0.1c1.8,0,5,0.1,5,3.9
	C-275.3,519-277.1,520-278.8,520z M-267.8,525.2c-3.1-0.3-5.8-2.2-5.8-6.6c0-4.4,3-6.4,5.9-6.6c3.1,0.3,5.8,2.2,5.8,6.6
	C-261.9,523-264.9,524.9-267.8,525.2z M-267.7,513.6c-1.3,0.3-3.1,1.2-3.1,5.1c0,3.9,1.7,4.8,3,5c1.4-0.3,3.1-1.2,3.1-5.1
	C-264.6,514.8-266.3,513.8-267.7,513.6z M-254.3,525.2c-3.1-0.3-5.8-2.2-5.8-6.6c0-4.4,3-6.4,5.9-6.6c3.1,0.3,5.8,2.2,5.8,6.6
	C-248.3,523-251.3,524.9-254.3,525.2z M-254.2,513.6c-1.3,0.3-3.1,1.2-3.1,5.1c0,3.9,1.7,4.8,3,5c1.4-0.3,3.1-1.2,3.1-5.1
	C-251.2,514.8-252.8,513.8-254.2,513.6z M-237.7,514.7c0,0-0.1-0.2-0.7-0.5c-0.5-0.3-1.1-0.5-2-0.5h-1v5c0,5.2,0.1,5.3,0.5,6
	l0.2,0.3c0,0-0.6,0-1.9,0s-1.9,0-1.9,0l0.2-0.3c0.4-0.7,0.5-0.8,0.5-6.2v-4.8h-1c-0.8,0-1.5,0.2-2,0.5s-0.7,0.5-0.7,0.5
	s0.1-0.5,0.1-1.3c0-0.8,0-1.1,0-1.1h9.8c0,0,0,0.4,0,1.1C-237.7,514.2-237.7,514.6-237.7,514.7z"/>
</svg>
