<?xml version="1.0" encoding="utf-8"?>
<!-- Generator: Adobe Illustrator 24.3.0, SVG Export Plug-In . SVG Version: 6.00 Build 0)  -->
<svg version="1.1" id="Laag_1" xmlns="http://www.w3.org/2000/svg" xmlns:xlink="http://www.w3.org/1999/xlink" x="0px" y="0px"
	 width="484.7px" height="43.6px" viewBox="0 0 484.7 43.6" style="enable-background:new 0 0 484.7 43.6;" xml:space="preserve">
<style type="text/css">
	.st0{fill:#FFFFFF;}
</style>
<g>
	<path class="st0" d="M32.6,36.9c-3.3,3.5-7.7,5.3-13.3,5.3C8.2,42.2,0,34.3,0,22.8C0,11.5,8.3,3.2,19.7,3.2c5.5,0,9.6,1.5,13,4.9
		l-5,6.2c-2-2.2-5-3.2-8-3.2c-5.6,0-10.7,3.5-10.7,11.7c0,7.7,5.2,11.7,10.8,11.7c3,0,6.1-1.1,8.2-3.3L32.6,36.9z"/>
	<path class="st0" d="M49.6,12.2c8.7,0,16,5.6,16,15c0,9.5-7.1,14.9-16.1,14.9c-8.9,0-15.9-5.5-15.9-14.8
		C33.6,17.9,40.7,12.2,49.6,12.2z M49.6,35.3c4.3,0,7.3-2.9,7.3-8.1c0-5.2-3-8.1-7.2-8.1c-4.1,0-7.2,2.8-7.2,8.1
		C42.5,32.4,45.4,35.3,49.6,35.3z"/>
	<path class="st0" d="M70.5,4.2h13.9C92.3,4.2,98,7.4,98,14.6c0,3.8-2,6.3-5,7.8c3.9,1.4,6.4,4.6,6.4,8.7c0,6.3-5.5,10.3-14.3,10.3
		H70.5V4.2z M79.1,10.8V20h5.2c3.6,0,5.1-2.1,5.1-4.8c0-2.7-1.7-4.4-5.1-4.4H79.1z M79.1,25.6v9.3h6.3c3.8,0,5.4-2.3,5.4-4.6
		c0-2.4-1.6-4.7-5.6-4.7H79.1z"/>
	<path class="st0" d="M104.1,13.2h8.4v4.6c2.2-3.1,5.1-5.1,9-5.1c1,0,2,0.1,2.8,0.3l-1.1,7c-0.7-0.2-1.9-0.3-2.7-0.3
		c-3.1,0-6.1,2.4-7.9,6.9v14.8h-8.4V13.2z"/>
	<path class="st0" d="M134.9,4.2h9.2l13.5,37.3h-9l-2.8-8.3h-13.2l-2.8,8.3h-8.5L134.9,4.2z M143.5,26.2l-4.3-12.6l-4.3,12.6H143.5z
		"/>
	<path class="st0" d="M198.5,39.3c-3.5,1.9-7.2,3-12.6,3c-10.4,0-15.6-5.8-15.6-14.9c0-8.8,6.1-15.1,15.1-15.1
		c8.1,0,14.5,4.6,14.5,14.9c0,1.1-0.1,1.9-0.2,2.5h-20.5c0.7,3.9,3.4,5.9,8.3,5.9c3.7,0,6.5-0.7,9.7-2.3L198.5,39.3z M179.1,25.1
		h12.1c-0.4-4.1-2.2-6.3-6-6.3C181.6,18.8,179.6,20.9,179.1,25.1z"/>
	<path class="st0" d="M204.2,13.2h8.4v4.7c2.6-3.5,6-5.5,10.2-5.5c6.6,0,10.8,3.4,10.8,12.7v16.3h-8.4V25.5c0-4.2-1.3-6.1-4.6-6.1
		c-3.3,0-5.9,2.2-7.9,7v15h-8.4V13.2z"/>
	<path class="st0" d="M281.7,36.9c-3.3,3.5-7.7,5.3-13.3,5.3c-11.1,0-19.3-7.9-19.3-19.4c0-11.3,8.3-19.6,19.7-19.6
		c5.5,0,9.6,1.5,13,4.9l-5,6.2c-2-2.2-5-3.2-8-3.2c-5.6,0-10.7,3.5-10.7,11.7c0,7.7,5.2,11.7,10.8,11.7c3,0,6.1-1.1,8.2-3.3
		L281.7,36.9z"/>
	<path class="st0" d="M284.7,4.2h8.4v13.7c2.6-3.5,6-5.5,10.2-5.5c6.6,0,10.8,3.3,10.8,12.7v16.3h-8.4V25.5c0-4.3-1.3-6.2-4.6-6.2
		c-3.2,0-5.9,2.3-7.9,7.1v15h-8.4V4.2z"/>
	<path class="st0" d="M332.1,12.3c4.1,0,7.4,1.5,9.7,4.6v-3.8h8.4v28.2h-8.4v-4.7c-2.3,3.4-5.5,5.4-9.7,5.4c-7.1,0-13.9-5-13.9-14.8
		S324.6,12.3,332.1,12.3z M333.7,35.2c3.7,0,6.7-3.2,8.1-8c-1.5-5.2-4.6-7.9-8.1-7.9c-3.8,0-6.7,2.8-6.7,7.9
		C327,32.2,330,35.2,333.7,35.2z"/>
	<path class="st0" d="M360.2,0c2.7,0,4.9,1.8,4.9,4.7c0,2.8-2.2,4.7-4.9,4.7c-2.5,0-4.9-1.8-4.9-4.7C355.3,1.9,357.5,0,360.2,0z
		 M356,13.2h8.4v28.2H356V13.2z"/>
	<path class="st0" d="M368.8,39.5l1.2-6.6c2.4,1.7,6.6,3.2,10.1,3.2c3.1,0,4.9-1,4.9-2.7c0-4.6-16-0.3-16-11.5
		c0-5.8,4.8-9.6,12.6-9.6c4.2,0,8.1,1.2,10.8,2.6l-1.3,6.5c-2.6-1.4-5.9-2.6-9.1-2.6c-2.9,0-4.7,1.1-4.7,2.7c0,4.8,16,0.7,16,11.1
		c0,5.7-5.5,9.8-13.5,9.8C375.1,42.2,371.2,40.8,368.8,39.5z"/>
	<path class="st0" d="M396.2,39.5l1.2-6.6c2.4,1.7,6.6,3.2,10.1,3.2c3.1,0,4.9-1,4.9-2.7c0-4.6-16-0.3-16-11.5
		c0-5.8,4.8-9.6,12.6-9.6c4.2,0,8.1,1.2,10.8,2.6l-1.3,6.5c-2.6-1.4-5.9-2.6-9.1-2.6c-2.9,0-4.7,1.1-4.7,2.7c0,4.8,16,0.7,16,11.1
		c0,5.7-5.5,9.8-13.5,9.8C402.4,42.2,398.6,40.8,396.2,39.5z"/>
	<path class="st0" d="M437.3,12.3c4.1,0,7.4,1.5,9.7,4.6v-3.8h8.4v28.2H447v-4.7c-2.3,3.4-5.5,5.4-9.7,5.4c-7.1,0-13.9-5-13.9-14.8
		S429.8,12.3,437.3,12.3z M438.9,35.2c3.7,0,6.7-3.2,8.1-8c-1.5-5.2-4.6-7.9-8.1-7.9c-3.8,0-6.7,2.8-6.7,7.9
		C432.2,32.2,435.2,35.2,438.9,35.2z"/>
	<path class="st0" d="M484,40c-2.1,1.3-5.2,2.2-9.2,2.2c-8.7,0-15.2-5.4-15.2-14.5c0-9.6,6.8-15.4,15.7-15.4c3.9,0,6.8,1,9.4,2.5
		l-1.8,6.5c-2.4-1.3-4.3-2-6.9-2c-4.5,0-7.5,3-7.5,8.1c0,4.9,2.9,7.9,7.3,7.9c2.3,0,4.6-0.4,7.3-1.7L484,40z"/>
</g>
</svg>
