<?xml version="1.0" encoding="utf-8"?>
<!-- Generator: Adobe Illustrator 24.3.0, SVG Export Plug-In . SVG Version: 6.00 Build 0)  -->
<svg version="1.1" id="Laag_1" xmlns="http://www.w3.org/2000/svg" xmlns:xlink="http://www.w3.org/1999/xlink" x="0px" y="0px"
	 width="879.2px" height="869.5px" viewBox="0 0 879.2 869.5" style="enable-background:new 0 0 879.2 869.5;" xml:space="preserve"
	>
<style type="text/css">
	.st0{fill:#FFFFFF;}
</style>
<g>
	<path class="st0" d="M303.8,85.1V32.8c0-5.8-2.8-6.8-6.2-6.8H283v-9.7h1.6c5.4,0,10.1-0.1,14.7-3.5c4.5-3.3,6-7.6,7.3-12.7h12.6
		v85.1L303.8,85.1L303.8,85.1z"/>
	<path class="st0" d="M373.3,85.1V32.8c0-5.8-2.8-6.8-6.2-6.8h-14.6v-9.7h1.6c5.4,0,10.1-0.1,14.7-3.5c4.5-3.3,6-7.6,7.3-12.7h12.7
		v85.1L373.3,85.1L373.3,85.1z"/>
	<path class="st0" d="M417.9,53.9V39.7h36.4v14.2H417.9z"/>
	<path class="st0" d="M488.6,85.1V32.8c0-5.8-2.8-6.8-6.2-6.8h-14.6v-9.7h1.6c5.4,0,10.1-0.1,14.7-3.5c4.5-3.3,6-7.6,7.3-12.7H504
		v85.1L488.6,85.1L488.6,85.1z"/>
	<path class="st0" d="M583,65.5V85h-15.5V65.5h-37.3V54.4L567.5,0H583v52.5h11v13H583z M567.5,52.5c0-1.9,0.9-33.8,0.9-33.8
		l-21.9,33.8H567.5z"/>
</g>
<g>
	<path class="st0" d="M208.5,225l-38.9-62.4c0,0,1,60.7,1,62.4h-16.3v-89h15l39.4,62.8c0,0-1.9-60.7-2-62.8h16.4v89H208.5z"/>
	<path class="st0" d="M269.1,226.9c-22.9,0-32.8-18.3-32.8-33.6c0-15.1,10-33.1,32.3-33.1c13.7,0,32.4,9.2,32.5,33.1
		C301.1,210.2,290.5,226.9,269.1,226.9z M269.1,213.1c11.1,0,16.3-9.5,16.3-19c0-10.1-5.4-20.3-17-20.3c-8.8,0-16.3,6.4-16.3,19.2
		C252.1,204,258.3,213.1,269.1,213.1z"/>
	<path class="st0" d="M342.3,225h-16.1l-20.4-63h15.6l13.1,43.3l12.9-43.3h15.8L342.3,225z"/>
	<path class="st0" d="M383.6,196.6c0.3,3.1,3.2,15.6,17.8,15.6c10.7,0,15.2-6.6,16.5-8.7l12.9,7.4c-5,6.8-14.2,16-30.7,16
		c-18.8,0-32.4-12.9-32.4-33.8c0-22.6,15.2-33,31.6-33c24.1,0,31,19.3,31,36.4h-46.7V196.6z M413.6,185.5
		c-0.3-3.1-2.3-13.2-14.1-13.2c-12.5,0-14.9,10.7-15.4,13.2H413.6z"/>
	<path class="st0" d="M456.1,162v7.1c2.6-3.5,10.1-8.9,19.8-8.9c7.2,0,14,3.3,17.5,9.6c4-5.2,10.5-9.6,20.3-9.6
		c12.7,0,21.7,6.7,21.7,21.8v43h-15v-38.6c0-2.4-0.5-12.2-10.6-12.2c-2.4,0-7.8,0.9-11.2,6.4c-2.9,4.5-3,9.7-3,14.7V225h-15v-38.7
		c0-4.9-2.1-12-10.3-12c-1.5,0-4.8,0.4-7.9,3c-6.2,5.3-6.3,14.1-6.3,21.2V225h-15.3v-63H456.1z"/>
	<path class="st0" d="M565.1,136.1v31.2c6.4-6.4,15.1-7.2,18-7.2c14.6,0,27.7,12.9,27.7,33c0,22.4-15.2,33.8-28.6,33.8
		c-3.7,0-10.6-0.8-17.3-8.4v6.6h-15v-89L565.1,136.1L565.1,136.1z M580.2,212.6c8.2,0,15.1-7.1,15.1-20.5c0-8.4-4.9-18.1-15.8-18.1
		c-9.1,0-14.7,7.9-14.7,18.1C564.8,205.6,571.1,212.6,580.2,212.6z"/>
	<path class="st0" d="M634.5,196.6c0.3,3.1,3.2,15.6,17.8,15.6c10.7,0,15.2-6.6,16.5-8.7l12.9,7.4c-5,6.8-14.2,16-30.7,16
		c-18.8,0-32.4-12.9-32.4-33.8c0-22.6,15.2-33,31.6-33c24.1,0,31,19.3,31,36.4h-46.7V196.6z M664.5,185.5
		c-0.3-3.1-2.3-13.2-14.1-13.2c-12.5,0-14.9,10.7-15.4,13.2H664.5z"/>
	<path class="st0" d="M706.6,162v8.9c4.8-10,15.8-10.3,18.8-10.3h1.3v15.5c-3.2,0-15.2,0-18.9,11.6c-1.1,3.5-1.1,6.7-1.1,10.3v27
		h-14.6v-63H706.6z"/>
</g>
<g>
	<path class="st0" d="M303.5,352.7c14.6-10.5,25.2-21,29.7-26.1c2-2.3,9.2-10.1,9.2-20.8c0-6.9-3.7-12.7-11.2-12.7
		c-11.6,0-12,11.6-12,18.1v1.6l-15.8-1.5v-0.6c0-10.7,3.3-17.6,6-21.4c2.8-3.9,10.2-10.7,23.1-10.7c10.1,0,16.4,4.3,19.3,6.9
		c5.5,4.9,7.9,12.5,7.9,19.8c0,2.5-0.3,7.8-3.3,14.1c-5,10.6-14.9,18-23.4,25.3c-3,2.5-5.9,5-9.1,7.2h37.3V365h-57.8v-12.3H303.5z"
		/>
	<path class="st0" d="M401.4,366.2c-29.6,0-30.9-30.1-30.9-44.1c0-31.1,13.4-43.5,31.6-43.5c16,0,30.5,11.1,30.5,43.6
		C432.7,357.1,416.3,366.2,401.4,366.2z M401.7,352.2c12.1,0,14.6-12.1,14.6-29.7c0-12.2-0.5-29.9-14.4-29.9
		c-12.7,0-15.1,14.5-15.1,30.4C386.8,332.4,386.8,352.2,401.7,352.2z"/>
	<path class="st0" d="M442.7,352.7c14.6-10.5,25.2-21,29.7-26.1c2-2.3,9.2-10.1,9.2-20.8c0-6.9-3.7-12.7-11.2-12.7
		c-11.6,0-12,11.6-12,18.1v1.6l-15.8-1.5v-0.6c0-10.7,3.3-17.6,6-21.4c2.8-3.9,10.2-10.7,23.1-10.7c10.1,0,16.4,4.3,19.3,6.9
		c5.5,4.9,7.9,12.5,7.9,19.8c0,2.5-0.3,7.8-3.3,14.1c-5,10.6-14.9,18-23.4,25.3c-3,2.5-5.9,5-9.1,7.2h37.3V365h-57.8L442.7,352.7
		L442.7,352.7z"/>
	<path class="st0" d="M535.5,365v-52.3c0-5.8-2.8-6.8-6.2-6.8h-14.6v-9.7h1.6c5.4,0,10.1-0.1,14.7-3.5c4.5-3.3,6-7.6,7.3-12.7h12.6
		v85H535.5z"/>
</g>
<g>
	<path class="st0" d="M299.4,517.1c0,7.6-0.1,11.3-1.5,15.8c-2.9,8.9-13.1,20.4-34.9,20.4c-14.2,0-29.2-5.5-33.9-20.2
		c-1.4-4.5-1.4-8.7-1.4-18.1v-53h16.8v54.7c0,5.3,0,7.2,0.9,9.8c1.6,5.3,6.4,10.6,18.3,10.6c2.1,0,14.4,0,18-10.1
		c1-2.9,1.1-5.3,1.1-11.2V462h16.6L299.4,517.1L299.4,517.1z"/>
	<path class="st0" d="M308.8,488h9.2v-22.4h15.1V488h13.5v10.7h-13.5V530c0,2.4,0.1,5.2,1.5,6.7c1.8,1.9,5,1.9,5.7,1.9
		c2.1,0,4.4-0.3,6.3-0.8v12.7c-2,0.3-5.7,1-10.8,1c-13.5,0-17.8-4.9-17.8-15.2v-37.6h-9.2V488z"/>
	<path class="st0" d="M369.3,488v8.9c4.8-10,15.8-10.3,18.8-10.3h1.3v15.5c-3.2,0-15.2,0-18.9,11.6c-1.1,3.5-1.1,6.7-1.1,10.3v27
		h-14.6v-63H369.3z"/>
	<path class="st0" d="M407.8,522.5c0.3,3.1,3.2,15.6,17.8,15.6c10.7,0,15.2-6.6,16.5-8.7l12.9,7.4c-5,6.8-14.2,16-30.7,16
		c-18.8,0-32.4-12.9-32.4-33.8c0-22.6,15.2-33,31.6-33c24.1,0,31,19.3,31,36.4L407.8,522.5L407.8,522.5z M437.8,511.4
		c-0.3-3.2-2.3-13.2-14.1-13.2c-12.5,0-14.9,10.7-15.4,13.2H437.8z"/>
	<path class="st0" d="M519.9,533.2c-4.4,12.5-15.9,19.7-28.5,19.7c-18.5,0-31.1-14.6-31.1-33.4c0-16.4,11.1-33.4,31.9-33.4
		c16.4,0,24.7,12,27.1,17.9l-13.5,6.3c-1.8-5.4-6.2-10.7-14.4-10.7c-10.2,0-15.5,9.1-15.5,19.5c0,11,5.7,19.7,15.9,19.7
		c10.7,0,14.1-9.3,15.2-12.3L519.9,533.2z"/>
	<path class="st0" d="M569.4,551v-36.9c0-9.2-4.5-13.6-11.8-13.6c-8.2,0-15.8,6.2-15.8,15.6V551h-15.1v-89h15.1v32.4
		c3.8-3.9,10.6-8.3,19.9-8.3c13.7,0,22.6,7.8,22.6,22.3V551H569.4z"/>
	<path class="st0" d="M591.4,488h9.2v-22.4h15.1V488h13.5v10.7h-13.5V530c0,2.4,0.1,5.2,1.5,6.7c1.8,1.9,5,1.9,5.7,1.9
		c2.1,0,4.4-0.3,6.3-0.8v12.7c-2,0.3-5.7,1-10.8,1c-13.5,0-17.8-4.9-17.8-15.2v-37.6h-9.2V488L591.4,488z"/>
	<path class="st0" d="M650.6,553.1c0,9.6-6.7,13.6-15.8,15.4v-7.3c5.8-0.6,6.8-5.3,6.8-10.2h-7.8v-17.3h16.8V553.1z"/>
</g>
<g>
	<path class="st0" d="M158,691l-38.9-62.4c0,0,1,60.7,1,62.4h-16.3v-89h15l39.4,62.8c0,0-1.9-60.7-2-62.8h16.4v89H158z"/>
	<path class="st0" d="M201.8,662.5c0.3,3.2,3.2,15.6,17.8,15.6c10.7,0,15.2-6.6,16.5-8.7l12.9,7.4c-5,6.8-14.2,16-30.7,16
		c-18.9,0.1-32.5-12.8-32.5-33.7c0-22.6,15.2-33,31.6-33c24.1,0,31,19.3,31,36.4H201.8z M231.8,651.4c-0.3-3.2-2.3-13.2-14.1-13.2
		c-12.5,0-14.9,10.7-15.4,13.2H231.8z"/>
	<path class="st0" d="M251.6,628h9.2v-22.4h15.1V628h13.5v10.7h-13.5v31.2c0,2.4,0.1,5.2,1.5,6.7c1.8,1.9,5,1.9,5.7,1.9
		c2.1,0,4.4-0.3,6.3-0.8v12.7c-2,0.3-5.7,1-10.8,1c-13.5,0-17.8-4.9-17.8-15.2v-37.5h-9.2V628z"/>
	<path class="st0" d="M340,691v-36.9c0-9.2-4.5-13.6-11.8-13.6c-8.2,0-15.8,6.2-15.8,15.6V691h-15.1v-89h15.1v32.4
		c3.8-3.9,10.6-8.3,19.9-8.3c13.7,0,22.6,7.8,22.6,22.3V691H340z"/>
	<path class="st0" d="M382,662.5c0.3,3.2,3.2,15.6,17.8,15.6c10.7,0,15.2-6.6,16.5-8.7l12.9,7.4c-5,6.8-14.2,16-30.7,16
		c-18.8,0-32.4-12.9-32.4-33.8c0-22.6,15.2-33,31.6-33c24.1,0,31,19.3,31,36.4L382,662.5L382,662.5z M412,651.4
		c-0.3-3.2-2.3-13.2-14.1-13.2c-12.5,0-14.9,10.7-15.4,13.2H412z"/>
	<path class="st0" d="M454.1,628v8.9c4.8-10,15.8-10.3,18.8-10.3h1.3v15.5c-3.2,0-15.2,0-18.9,11.6c-1.1,3.5-1.1,6.7-1.1,10.3v27
		h-14.6v-63H454.1z"/>
	<path class="st0" d="M483.1,691v-89h15.4v89H483.1z"/>
	<path class="st0" d="M550.2,691l-0.4-4.9c-4.2,3.3-10.8,6.4-18.5,6.4c-14.4,0-22.9-8.7-22.9-19.3c0-13.7,10.5-19.2,22.4-21.3
		c9.5-1.8,15.4-3.3,19.4-4.7c0-4.8-1.4-9.5-10.8-9.5c-11.5,0-12.7,6.2-12.7,9.5l-15.4-0.9c0.3-4.2,1.1-20.3,27.6-20.3
		c18.5,0,26.5,6.8,26.5,17.9v36.8c0,4.8,0.3,6.2,2.8,10.2L550.2,691L550.2,691z M550.2,659.6c-2.5,1.3-6.2,2.6-12,3.5
		c-6.9,1-13.9,2.4-13.9,8.7c0,4.2,2.8,7.7,10.3,7.7c6.9,0,15.5-3.5,15.5-11.5v-8.4H550.2z"/>
	<path class="st0" d="M595.4,628v7.4c5.7-8.6,16.9-9.3,19.4-9.3c13.4,0,20.4,8.7,20.4,21V691h-14.9v-35.4c0-6.9-1.8-14.7-11.1-14.7
		c-1.6,0-4.8,0.3-7.9,2.9c-4.5,3.8-5.9,9.1-5.9,19.9V691h-15.2v-63H595.4z"/>
	<path class="st0" d="M691.8,691v-6c-1.3,1.5-6.3,7.9-17.5,7.9c-13.2,0-28-9.2-28-32.1c0-22.6,13.7-34.7,28.6-34.7
		c5.2,0,12.7,1.9,16.9,7.1V602h15v89H691.8z M677.1,679.1c8.2,0,14.6-6.8,14.6-18.5c0-9.6-2.8-20.5-14.5-20.5
		c-9.5,0-15.1,8.4-15.1,19C662.1,668.4,666,679.1,677.1,679.1z"/>
	<path class="st0" d="M763,647.8c-3.4-6.7-9.8-9.6-17.1-9.6c-2.9,0-10.5,0.9-10.5,6.6c0,4.2,3.8,5.4,12.9,7.1l10.2,1.9
		c9.6,1.8,16.9,7.4,16.9,17.6c0,11.6-11,21.5-28.4,21.5s-26.7-7.7-30.2-11.3l11.3-9.2c3,4,8.7,8.1,18.1,8.1c9.1,0,12.3-4.7,12.3-7.4
		c0-3.7-3.5-5-9.3-6l-7.8-1.4c-4.9-0.9-21.9-4-21.9-18.9c0-12.5,12-20.5,27.1-20.5c4.9,0,17.6,0.8,27.1,11.7L763,647.8z"/>
</g>
<g>
	<path class="st0" d="M201.7,839v-54.1h4.6V839H201.7z"/>
	<path class="st0" d="M245.8,834.1c-2,2.4-5.6,5.8-13,5.8c-1.3,0-5-0.1-8.4-1.9c-8.7-4.5-9-15.3-9-17.6c0-1.2,0-4.2,1.2-7.4
		c2.4-6.9,8.4-11.4,15.7-11.4c2.2,0,7.5,0.5,11.7,5.2c2.9,3.3,4.8,8.4,4.8,12.9v1.2h-28.4c-0.1,3,0.3,4.8,0.7,6.1
		c0.8,2.9,3.4,9,11.7,8.9c3.2,0,8.3-0.8,11.7-7.7l4.2,1.2C248.3,830.1,247.4,832.2,245.8,834.1z M232.1,805.6
		c-6.4,0-9.4,4.4-10.3,6.4c-0.7,1.5-1.1,3.4-1.4,5.1h23.1C242.4,807.6,236.1,805.6,232.1,805.6z"/>
	<path class="st0" d="M287.5,843.9c-0.1,1.3-0.2,6.3-3.6,9.7c-2,2.1-6,4.1-12.5,4.1c-1.8,0-10.5,0-14.2-7c-1.3-2.5-1.5-5.1-1.6-6.1
		l4.8-0.8c0.6,4.1,1.8,10,11.7,10c1.3,0,7.4,0.2,9.9-5c1.2-2.6,1.1-5.4,1.3-11c0-1.3,0.1-2.7,0.1-4V832c-0.1,0.2-0.4,1.3-0.8,2.1
		c-1.3,2.4-4.8,5.7-11.3,5.7c-3.7,0-6.2-1.1-7.4-1.8c-8.3-4.6-8.4-15.3-8.4-17.4c0-6.4,2-13.3,7.7-16.7c1.4-0.8,4.1-2.1,8.2-2.1
		c1.5,0,5.4,0.1,8.8,2.9c1.5,1.1,2.3,2.4,2.6,3c0.4,0.8,0.5,1.3,0.6,1.6v-6.7h4.4v32.7C287.6,838.1,287.7,841,287.5,843.9z
		 M280.6,809.6c-1.1-1.6-3.8-4-8.8-4c-0.7,0-2.5,0-4.2,0.7c-7.7,3-7.7,12.6-7.7,14.2c0,5.4,1.5,9,2.8,10.8c1.1,1.6,2.7,3,4.5,3.7
		c1.9,0.8,3.6,0.8,4.4,0.8c1.1,0,4.2,0,7-2c3.9-2.8,4.5-8.2,4.6-12.6C283.1,820.3,283.4,813.7,280.6,809.6z"/>
	<path class="st0" d="M323.1,839v-6.6c-0.6,1.4-1.1,2.1-1.5,2.7c-3.4,4.7-8.3,4.8-10.2,4.8c-0.6,0-2.5-0.1-4.3-0.7
		c-3.3-1.1-5.9-3.8-7-7.1c-0.8-2.5-1-6-1-11.7v-17.9h4.6v18.9c0,4.4,0.1,6.8,0.6,8.9c0.6,2.2,2.2,5.4,7.6,5.4c1.8,0,5.7-0.1,8.7-4.1
		c2.8-3.8,2.5-8.7,2.5-13.1v-16h4.5V839H323.1z"/>
	<path class="st0" d="M367.3,834.1c-2,2.4-5.6,5.8-13,5.8c-1.3,0-5-0.1-8.4-1.9c-8.7-4.5-9-15.3-9-17.6c0-1.2,0-4.2,1.2-7.4
		c2.4-6.9,8.4-11.4,15.7-11.4c2.2,0,7.5,0.5,11.7,5.2c2.9,3.3,4.8,8.4,4.8,12.9v1.2h-28.4c-0.1,3,0.3,4.8,0.7,6.1
		c0.8,2.9,3.4,9,11.7,8.9c3.2,0,8.3-0.8,11.7-7.7l4.2,1.2C369.7,830.1,368.8,832.2,367.3,834.1z M353.5,805.6
		c-6.4,0-9.4,4.4-10.3,6.4c-0.7,1.5-1.1,3.4-1.4,5.1h23.1C363.8,807.6,357.5,805.6,353.5,805.6z"/>
	<path class="st0" d="M403.1,833.6c-1.5,2.8-5.1,6.4-12.5,6.4c-2.2,0-8.2-0.3-12.3-5.5c-1.1-1.5-1.8-2.8-2.5-4.3l4.4-1.5
		c0.6,2.5,3.4,7.2,10.2,7.2c3.4,0,5.7-1,6.7-1.8c1.6-1.2,2.6-3.4,2.6-5.3c0-1.2-0.4-2.3-1-3.2c-1.1-1.6-3-2.5-6.9-3.4
		c-3.6-0.8-9.3-1.5-11.9-4.6c-1.2-1.5-2-3.8-1.9-5.7c0-1.1,0.4-4.7,3.1-7.1c2.5-2.3,6.7-3.1,10-3.1c1.1,0,5.6,0,9,2.4
		c2.8,2,3.7,4.7,4,5.9L400,811c-0.8-4.2-5.2-5.4-8.9-5.4c-3,0-5,0.7-6,1.4c-0.3,0.2-1.1,0.8-1.6,1.6c-0.8,1.3-0.8,2.6-0.8,3.1
		c0,4.3,4.5,5.3,7.7,5.9l3.8,0.8c3.3,0.7,6.4,1.9,8.4,4.8c1.7,2.3,1.8,4.5,1.8,5.6C404.3,829.4,404.2,831.5,403.1,833.6z"/>
	<path class="st0" d="M438.2,833.6c-1.5,2.8-5.1,6.4-12.5,6.4c-2.2,0-8.2-0.3-12.3-5.5c-1.1-1.5-1.8-2.8-2.5-4.3l4.4-1.5
		c0.6,2.5,3.4,7.2,10.2,7.2c3.4,0,5.7-1,6.7-1.8c1.6-1.2,2.6-3.4,2.6-5.3c0-1.2-0.4-2.3-1-3.2c-1.1-1.6-3-2.5-6.9-3.4
		c-3.6-0.8-9.3-1.5-11.9-4.6c-1.2-1.5-2-3.8-1.9-5.7c0-1.1,0.4-4.7,3.1-7.1c2.5-2.3,6.7-3.1,10-3.1c1.1,0,5.6,0,9,2.4
		c2.8,2,3.7,4.7,4,5.9l-4.3,1.2c-0.8-4.2-5.2-5.4-8.9-5.4c-3,0-5,0.7-6,1.4c-0.3,0.2-1.1,0.8-1.6,1.6c-0.8,1.3-0.8,2.6-0.8,3.1
		c0,4.3,4.5,5.3,7.7,5.9l3.8,0.8c3.3,0.7,6.4,1.9,8.4,4.8c1.7,2.3,1.8,4.5,1.8,5.6C439.4,829.4,439.3,831.5,438.2,833.6z"/>
	<path class="st0" d="M483.1,839h-3.8l-9-30.1l-9,30.1h-3.8l-12.3-36.6h4.4l9.8,29.5l9-29.5h3.8l9,29.5l9.1-29.5h4.4L483.1,839z"/>
	<path class="st0" d="M525.9,839v-19.9c0-1.1-0.1-2.3-0.1-3.5c-0.1-3.6-0.5-7.1-4.2-8.9c-1.4-0.6-2.8-0.8-4.3-0.8
		c-5.6,0-8.1,3.1-9.2,5.1c-1.5,2.9-1.5,5.9-1.5,12.3V839H502v-54.1h4.6v23.4c0.1-0.2,0.6-1.2,1.2-2c1.3-1.8,4.4-4.6,10.1-4.6
		c1.6,0,6.9,0.3,10,4.5c2.1,2.8,2.4,5.7,2.4,12.2V839H525.9z"/>
	<path class="st0" d="M571.8,827.9c-2.3,7.4-8,12-15.8,12c-2.5,0-8.4-0.5-12.6-6.1c-1.6-2.2-3.8-6.1-3.8-12.6c0-1.6,0.1-5.2,1.7-9.3
		c3.6-9.3,11.4-10.3,15-10.3c4.2,0,7.7,1.2,10.7,4.1c4.1,3.9,5.7,9.5,5.7,14.9C572.8,821.8,572.8,824.7,571.8,827.9z M556.2,805.4
		c-1.1,0-4,0.2-6.6,2.1c-2.8,2.1-5.2,6.1-5.2,13.7c0,1.4-0.2,8.7,4.8,12.6c1.1,0.9,3.3,2.1,6.8,2.1c5.4,0,11.8-3.4,11.9-14.9
		C568.1,809.1,562.1,805.4,556.2,805.4z"/>
	<path class="st0" d="M579.5,839v-8.9h6.1v8.9H579.5z"/>
	<path class="st0" d="M619.8,836.3c-1.7,1.5-5.1,3.6-10.7,3.6c-2,0-7-0.2-11.2-4.1c-5.4-5.1-5.6-12.7-5.6-14.8
		c0-2.8,0.3-5.1,1.2-7.6c2.4-7.5,8.5-11.9,16.4-11.9c5.8,0,8.9,2.2,10.7,4.1c2.1,2.1,2.8,4.1,3.2,5.1l-4.2,1
		c-1.6-4.1-5.6-6.1-9.9-6.1c-1.4,0-4.6,0.2-7.6,2.7c-4.8,4.1-4.8,10.9-4.8,12.5c0,1.1,0.2,7.4,3.5,11.4c0.5,0.6,1.6,1.8,3.6,2.7
		c0.9,0.5,2.5,1.1,5,1.1c4.6,0,7.7-2.1,9.9-6.1l4.6,1.1C622.8,833,621.5,834.8,619.8,836.3z"/>
	<path class="st0" d="M661.2,827.9c-2.3,7.4-8,12-15.8,12c-2.5,0-8.4-0.5-12.6-6.1c-1.6-2.2-3.8-6.1-3.8-12.6c0-1.6,0.1-5.2,1.7-9.3
		c3.6-9.3,11.4-10.3,15-10.3c4.2,0,7.7,1.2,10.7,4.1c4.1,3.9,5.7,9.5,5.7,14.9C662.2,821.8,662.2,824.7,661.2,827.9z M645.7,805.4
		c-1.1,0-4,0.2-6.6,2.1c-2.8,2.1-5.2,6.1-5.2,13.7c0,1.4-0.2,8.7,4.8,12.6c1.1,0.9,3.3,2.1,6.8,2.1c5.4,0,11.8-3.4,11.9-14.9
		C657.6,809.1,651.5,805.4,645.7,805.4z"/>
	<path class="st0" d="M714.4,839v-19.9c0-6.3,0.3-9.8-2.5-12c-1.8-1.3-3.8-1.3-4.5-1.3c-4.1,0-6.9,2.3-8.6,5.9
		c-1.4,2.9-1.5,5.7-1.5,12V839h-4.4v-20.3c0-4.8-0.1-7.7-1.2-9.7c-1.2-2.2-3.5-3.1-5.9-3.1c-2,0-5.7,0.5-8.1,4.9
		c-1.8,3.3-1.8,6.5-1.8,13.6V839h-4.5v-36.6h4.5v7.6c0.1-0.5,0.4-1.8,1-2.9c2-3.8,5.8-5.4,9.9-5.4c5.8,0,8.4,3.5,9.3,5.5
		c0.3,0.8,0.6,1.8,0.8,3.6c0.5-2,1-2.9,1.5-3.7c1.1-2.1,4-5.4,10-5.4c2.3,0,4.7,0.5,6.6,1.8c4.3,3,4.1,8.2,4.1,17.5v18H714.4z"/>
</g>
</svg>
