<?xml version="1.0" encoding="utf-8"?>
<!-- Generator: Adobe Illustrator 24.3.0, SVG Export Plug-In . SVG Version: 6.00 Build 0)  -->
<svg version="1.1" id="Laag_1" xmlns="http://www.w3.org/2000/svg" xmlns:xlink="http://www.w3.org/1999/xlink" x="0px" y="0px"
	 width="686.6px" height="89.8px" viewBox="0 0 686.6 89.8" style="enable-background:new 0 0 686.6 89.8;" xml:space="preserve">
<style type="text/css">
	.st0{clip-path:url(#SVGID_2_);fill:#FFFFFF;}
</style>
<g>
	<defs>
		<rect id="SVGID_1_" width="686.6" height="89.8"/>
	</defs>
	<clipPath id="SVGID_2_">
		<use xlink:href="#SVGID_1_"  style="overflow:visible;"/>
	</clipPath>
	<path class="st0" d="M667.1,0c-10.8,0-16.8,5.4-16.8,17.1V20c0,8.7,1.7,14.4,7.5,21.7l8.7,10.9c5,6.3,5.6,8.5,5.6,14.8v2
		c0,5.4-1.2,7.6-4.5,7.6c-3.1,0-4.5-2.1-4.5-6.1V55.4h-13.6V73c0,10.9,5.8,16.7,16.7,16.7h2.7c12,0,17.7-7.7,17.7-20.5v-2.8
		c0-9.9-1.9-14.4-8.1-22.2l-8.7-11c-4.6-5.8-5.6-8.5-5.6-13.5V18c0-4.1,0.7-6.1,4-6.1s3.9,2.2,3.9,5.2v12.6h13.2V15.2
		c0-10.4-4.4-15.2-15.6-15.2H667.1z M610.1,0.8v12.8h11.5v75.1h13.6V13.6h11.5V0.8H610.1z M575.2,0.8v87.9H607V75.3h-18.2V50h13.7
		V36.6h-13.7v-23h17.4V0.8H575.2z M546.8,50.5l11.4,38.1h14l-14-47l12.7-40.9h-13.3L546.8,36V0.8h-13.7v87.9h13.7V50.5z M514.1,70.9
		c0,3.5-1.2,5.9-4.5,5.9c-3,0-4.4-2.1-4.4-6V18.5c0-3.9,0.8-5.8,4.2-5.8c3.4,0,4.6,2,4.6,5.8V34h13.4V18.3c0-8.6-1.7-18.3-16.7-18.3
		h-3.1c-12.3,0-16.3,8.6-16.3,17.6v53.6c0,8.9,3,18.5,16.8,18.5h3c13.2,0,16.3-9.6,16.3-19V50.4h-13.4V70.9z M485.4,0.8h-13.7v87.9
		h13.7V0.8z M430.6,0.8v12.8h11.5v75.1h13.6V13.6h11.5V0.8H430.6z M382.1,0.8v87.9H414V75.3h-18.2V50h13.7V36.6h-13.7v-23h17.4V0.8
		H382.1z M341.8,50v23.5c0,12,6.2,15.9,15,15.9h3.8c9.4,0,15.5-5.3,15.5-16.8V0.8h-13.9v70.7c0,2.7-0.6,4.8-3.1,4.8h-0.5
		c-2.5,0-3.3-1.8-3.3-4.8V50H341.8z M286.5,69.6c0,12.6,5,20.2,17.1,20.2h2.4c12.1,0,17.2-7.8,17.2-20.2V0.8h-13.9v69.6
		c0,3.9-1.2,6.3-4.5,6.3c-3,0-4.4-2.5-4.4-6.3V0.8h-13.9V69.6z M243.9,0.8v87.9h12.3V38.1l13.1,50.5h11.1V0.8H268v47.1L256.3,0.8
		H243.9z M195.2,0.8v87.9h30.4V75.1h-16.7V0.8H195.2z M158.7,0.8v87.9h31.8V75.3h-18.2V50H186V36.6h-13.7v-23h17.4V0.8H158.7z
		 M117.5,0.8v12.8H129v75.1h13.6V13.6h11.5V0.8H117.5z M95.5,0C84.7,0,78.7,5.4,78.7,17.1V20c0,8.7,1.7,14.4,7.5,21.7l8.7,10.9
		c5,6.3,5.6,8.5,5.6,14.8v2c0,5.4-1.2,7.6-4.5,7.6c-3.1,0-4.5-2.1-4.5-6.1V55.4H78V73c0,10.9,5.8,16.7,16.7,16.7h2.7
		c12,0,17.7-7.7,17.7-20.5v-2.8c0-9.9-1.9-14.4-8.1-22.2l-8.7-11c-4.6-5.8-5.6-8.5-5.6-13.5V18c0-4.1,0.7-6.1,4-6.1
		c3.3,0,3.9,2.2,3.9,5.2v12.6h13.2V15.2C113.7,4.8,109.3,0,98,0H95.5z M42.5,0.8v87.9h31.8V75.3H56.2V50h13.7V36.6H56.2v-23h17.4
		V0.8H42.5z M17.8,12.8c3.8,0,4.7,2,4.7,5.6v11.1c0,3.7-1.1,6.1-4.7,6.1h-4.1V12.8H17.8z M17.8,48.7c4.4,0,5.3,2,5.3,5.7v16.1
		c0,3.9-1,5.9-5.3,5.9h-4.1V48.7H17.8z M0,88.7h22.5C32.8,88.7,37,82,37,72.6v-19c0-8.7-4.2-11.7-7.9-12.9c3.5-1.3,6.8-4.8,6.8-12.2
		V15.1c0-8.5-3-14.3-14.4-14.3H0V88.7z"/>
</g>
</svg>
