<?xml version="1.0" encoding="utf-8"?>
<!-- Generator: Adobe Illustrator 24.3.0, SVG Export Plug-In . SVG Version: 6.00 Build 0)  -->
<svg version="1.1" id="Laag_1" xmlns="http://www.w3.org/2000/svg" xmlns:xlink="http://www.w3.org/1999/xlink" x="0px" y="0px"
	 width="629.7px" height="89.9px" viewBox="0 0 629.7 89.9" style="enable-background:new 0 0 629.7 89.9;" xml:space="preserve">
<style type="text/css">
	.st0{clip-path:url(#SVGID_2_);fill:#E62A36;}
</style>
<g>
	<defs>
		<rect id="SVGID_1_" width="629.7" height="89.9"/>
	</defs>
	<clipPath id="SVGID_2_">
		<use xlink:href="#SVGID_1_"  style="overflow:visible;"/>
	</clipPath>
	<path class="st0" d="M582.6,88.7h12.2V31.9l8.4,56.8h5.4l8.2-56.8v56.8h12.8V0.8h-16.3l-6.7,46.4l-6.5-46.4h-17.6V88.7z
		 M539.9,69.6c0,12.6,5,20.2,17.1,20.2h2.4c12.1,0,17.2-7.8,17.2-20.2V0.8h-13.9v69.6c0,3.9-1.2,6.3-4.5,6.3c-3,0-4.4-2.5-4.4-6.3
		V0.8h-13.9V69.6z M503.5,0.8v87.9h31.8V75.3h-18.2V50h13.7V36.6h-13.7v-23h17.4V0.8H503.5z M479,0c-10.8,0-16.8,5.4-16.8,17.1V20
		c0,8.7,1.7,14.4,7.5,21.7l8.7,10.9c5,6.3,5.6,8.5,5.6,14.8v2c0,5.4-1.2,7.6-4.5,7.6c-3.1,0-4.5-2.1-4.5-6.1V55.4h-13.6V73
		c0,10.9,5.8,16.7,16.7,16.7h2.7c12,0,17.7-7.7,17.7-20.5v-2.8c0-9.9-1.9-14.4-8.1-22.2l-8.7-11c-4.6-5.8-5.6-8.5-5.6-13.5V18
		c0-4.1,0.7-6.1,4-6.1c3.3,0,3.9,2.2,3.9,5.2v12.6h13.2V15.2c0-10.4-4.4-15.2-15.6-15.2H479z M419.8,69.6c0,12.6,5,20.2,17.1,20.2
		h2.4c12.1,0,17.2-7.8,17.2-20.2V0.8h-13.9v69.6c0,3.9-1.2,6.3-4.5,6.3c-3,0-4.4-2.5-4.4-6.3V0.8h-13.9V69.6z M366.6,88.7h12.2V31.9
		l8.4,56.8h5.4l8.2-56.8v56.8h12.8V0.8h-16.3l-6.7,46.4l-6.5-46.4h-17.6V88.7z M325,49.5h3.5c4.4,0,5.1,1.7,5.1,5.5v26.5
		c0,4.7,0.7,6.3,1.3,7.2h13.6v-0.6c-0.6-1.3-1.3-3-1.3-6.5V50.8c0-5.9-2.9-8.3-5.9-9.6c2.4-1.1,5.9-3.9,5.9-11.2V14.4
		c0-9.8-4.6-13.6-13.7-13.6h-22.2v87.9H325V49.5z M325,12.8h3.6c4.1,0,5,1.9,5,5.7v12.3c0,3.9-1.2,6.3-5,6.3H325V12.8z M274.8,0.8
		v87.9h31.8V75.3h-18.2V50h13.7V36.6h-13.7v-23h17.4V0.8H274.8z M246.3,89.9c6.9,0,11.5-6.8,12.5-9.8c1.1,3.8,2.2,8.1,2.3,8.6h7.7
		V35.3h-19.1v13.5h6.2v22c0,3.3-1.6,5.7-5.1,5.7c-2.8,0-4.5-2.1-4.5-6.3V18.8c0-3.9,1.3-6,4.2-6c3.4,0,4.4,2.1,4.4,6v9.9h13.3v-9
		c0-10.4-1.7-19.7-16.3-19.7h-2.7c-13,0-16.8,9.1-16.8,18.9v54.9c0,9.1,5.1,16.1,13.1,16.1H246.3z M189.9,0.8v87.9h12.3V38.1
		l13.1,50.5h11.1V0.8H214v47.1L202.3,0.8H189.9z M183.6,0.8h-13.7v87.9h13.7V0.8z M127.1,0.8v87.9h12.3V38.1l13.1,50.5h11.1V0.8
		h-12.5v47.1L139.4,0.8H127.1z M107.2,70c0,3.8-1,6.7-4.6,6.7c-3.9,0-5-3-5-6.7V19.5c0-4.5,1.3-6.7,4.8-6.7c3.1,0,4.7,2.1,4.7,6.7
		V70z M121.2,20.1c0-12-4.2-20.1-17.6-20.1h-2.3C88.5,0,83.8,8,83.8,20.2v48.9c0,12.3,4.6,20.7,17.7,20.7h2.3
		c13.2,0,17.4-8.4,17.4-20.7V20.1z M56,49.5h3.5c4.4,0,5.1,1.7,5.1,5.5v26.5c0,4.7,0.7,6.3,1.3,7.2h13.6v-0.6
		c-0.6-1.3-1.3-3-1.3-6.5V50.8c0-5.9-2.9-8.3-5.9-9.6c2.4-1.1,5.9-3.9,5.9-11.2V14.4c0-9.8-4.6-13.6-13.7-13.6H42.4v87.9H56V49.5z
		 M56,12.8h3.6c4.1,0,5,1.9,5,5.7v12.3c0,3.9-1.2,6.3-5,6.3H56V12.8z M13.9,89.9c6.9,0,11.5-6.8,12.5-9.8c1.1,3.8,2.2,8.1,2.3,8.6
		h7.7V35.3H17.3v13.5h6.2v22c0,3.3-1.6,5.7-5.1,5.7c-2.8,0-4.5-2.1-4.5-6.3V18.8c0-3.9,1.3-6,4.2-6c3.4,0,4.4,2.1,4.4,6v9.9h13.3v-9
		C35.8,9.3,34.1,0,19.5,0h-2.7C3.9,0,0,9.1,0,18.9v54.9c0,9.1,5.1,16.1,13.1,16.1H13.9z"/>
</g>
</svg>
