<?xml version="1.0" encoding="utf-8"?>
<!-- Generator: Adobe Illustrator 24.3.0, SVG Export Plug-In . SVG Version: 6.00 Build 0)  -->
<svg version="1.1" id="Layer_1" xmlns="http://www.w3.org/2000/svg" xmlns:xlink="http://www.w3.org/1999/xlink" x="0px" y="0px"
	 width="644.9px" height="89.9px" viewBox="0 0 644.9 89.9" style="enable-background:new 0 0 644.9 89.9;" xml:space="preserve">
<style type="text/css">
	.st0{fill:#E62A36;}
</style>
<g>
	<path class="st0" d="M625.4,0c-10.8,0-16.8,5.4-16.8,17.1V20c0,8.7,1.7,14.4,7.5,21.7l8.7,10.9c5,6.3,5.6,8.5,5.6,14.8v2
		c0,5.4-1.2,7.6-4.5,7.6c-3.1,0-4.5-2.1-4.5-6.1V55.4h-13.6V73c0,10.9,5.8,16.7,16.7,16.7h2.7c12,0,17.7-7.7,17.7-20.5v-2.8
		c0-9.9-1.9-14.4-8.1-22.2l-8.7-11c-4.6-5.8-5.6-8.5-5.6-13.5V18c0-4.1,0.7-6.1,4-6.1s3.9,2.2,3.9,5.2v12.6h13.2V15.2
		C643.6,4.8,639.2,0,628,0H625.4z M572.4,0.8v87.9h31.8V75.3h-18.2V50h13.7V36.6h-13.7v-23h17.4V0.8H572.4z M529.6,0.8v87.9h12.3
		V38.1L555,88.7h11.1V0.8h-12.5v47.1L541.9,0.8H529.6z M509.7,70c0,3.8-1,6.7-4.6,6.7c-3.9,0-5-3-5-6.7V19.5c0-4.5,1.3-6.7,4.8-6.7
		c3.1,0,4.7,2.1,4.7,6.7V70z M523.6,20.1c0-12-4.2-20.1-17.6-20.1h-2.3c-12.8,0-17.6,8-17.6,20.2v48.9c0,12.3,4.6,20.7,17.7,20.7
		h2.3c13.2,0,17.4-8.4,17.4-20.7V20.1z M446,0.8v12.8h11.5v75.1h13.6V13.6h11.5V0.8H446z M424,0c-10.8,0-16.8,5.4-16.8,17.1V20
		c0,8.7,1.7,14.4,7.5,21.7l8.7,10.9c5,6.3,5.6,8.5,5.6,14.8v2c0,5.4-1.2,7.6-4.5,7.6c-3.1,0-4.5-2.1-4.5-6.1V55.4h-13.6V73
		c0,10.9,5.8,16.7,16.7,16.7h2.7c12,0,17.7-7.7,17.7-20.5v-2.8c0-9.9-1.9-14.4-8.1-22.2l-8.7-11c-4.6-5.8-5.6-8.5-5.6-13.5V18
		c0-4.1,0.7-6.1,4-6.1c3.3,0,3.9,2.2,3.9,5.2v12.6h13.2V15.2c0-10.4-4.4-15.2-15.6-15.2H424z M365.6,89.9c6.9,0,11.5-6.8,12.5-9.8
		c1.1,3.8,2.2,8.1,2.3,8.6h7.7V35.3h-19.1v13.5h6.2v22c0,3.3-1.6,5.7-5.1,5.7c-2.8,0-4.5-2.1-4.5-6.3V18.8c0-3.9,1.3-6,4.2-6
		c3.4,0,4.4,2.1,4.4,6v9.9h13.3v-9c0-10.4-1.7-19.7-16.3-19.7h-2.7c-13,0-16.8,9.1-16.8,18.9v54.9c0,9.1,5.1,16.1,13.1,16.1H365.6z
		 M309.1,0.8v87.9h12.3V38.1l13.1,50.5h11.1V0.8h-12.5v47.1L321.5,0.8H309.1z M302.9,0.8h-13.7v87.9h13.7V0.8z M254.1,0.8v87.9h30.4
		V75.1h-16.7V0.8H254.1z M219,0.8v87.9h30.4V75.1h-16.7V0.8H219z M199.1,70c0,3.8-1,6.7-4.6,6.7c-3.9,0-5-3-5-6.7V19.5
		c0-4.5,1.3-6.7,4.8-6.7c3.1,0,4.7,2.1,4.7,6.7V70z M213,20.1C213,8,208.8,0,195.5,0h-2.3c-12.8,0-17.6,8-17.6,20.2v48.9
		c0,12.3,4.6,20.7,17.7,20.7h2.3c13.2,0,17.4-8.4,17.4-20.7V20.1z M147.9,49.5h3.5c4.4,0,5.1,1.7,5.1,5.6v26.5
		c0,4.7,0.7,6.3,1.3,7.2h13.6v-0.6c-0.6-1.3-1.3-3-1.3-6.5V50.8c0-5.9-2.9-8.3-5.9-9.6c2.4-1.1,5.9-3.9,5.9-11.2V14.4
		c0-9.8-4.6-13.6-13.7-13.6h-22.2v87.9h13.7V49.5z M147.9,12.8h3.6c4.1,0,5,1.9,5,5.7v12.3c0,3.9-1.2,6.3-5,6.3h-3.6V12.8z
		 M84.1,0.8v87.9H116V75.3H97.8V50h13.7V36.6H97.8v-23h17.4V0.8H84.1z M54.8,50.1h9.3v38.6h13.7V0.8H64.2V36h-9.3V0.8H41.2v87.9
		h13.7V50.1z M0,0.8v12.8h11.5v75.1h13.6V13.6h11.5V0.8H0z"/>
</g>
</svg>
