<?xml version="1.0" encoding="utf-8"?>
<!-- Generator: Adobe Illustrator 24.3.0, SVG Export Plug-In . SVG Version: 6.00 Build 0)  -->
<svg version="1.1" id="Laag_1" xmlns="http://www.w3.org/2000/svg" xmlns:xlink="http://www.w3.org/1999/xlink" x="0px" y="0px"
	 width="285.6px" height="89.9px" viewBox="0 0 285.6 89.9" style="enable-background:new 0 0 285.6 89.9;" xml:space="preserve">
<style type="text/css">
	.st0{clip-path:url(#SVGID_2_);fill:#FFFFFF;}
</style>
<g>
	<defs>
		<rect id="SVGID_1_" width="285.6" height="89.9"/>
	</defs>
	<clipPath id="SVGID_2_">
		<use xlink:href="#SVGID_1_"  style="overflow:visible;"/>
	</clipPath>
	<path class="st0" d="M263.3,12.1h3.8c3.3,0,4.7,1.8,4.7,6.9v50c0,4.8-1.2,6.9-5.3,6.9h-3.2V12.1z M249.8,88.8h20.6
		c11.1,0,15.2-6.8,15.2-17.7V17.1C285.6,6.6,282,0,270.5,0h-20.6V88.8z M215,0v88.8h31.4V75.3h-17.9V49.7h13.5V36.2h-13.5V12.9h17.2
		V0H215z M189.2,12.1h3.5c3.9,0,4.7,2.6,4.7,6.1v14.6c0,3.6-0.6,6.4-4.7,6.4h-3.5V12.1z M197.1,51.9c9.2,0,13.8-5.7,13.8-16.2v-21
		c0-10.6-4.3-14.7-13.8-14.7h-21.4v88.8h13.5V51.9H197.1z M149.9,12.1h3.5c3.9,0,4.7,2.6,4.7,6.1v14.6c0,3.6-0.6,6.4-4.7,6.4h-3.5
		V12.1z M157.8,51.9c9.2,0,13.8-5.7,13.8-16.2v-21c0-10.6-4.3-14.7-13.8-14.7h-21.4v88.8h13.5V51.9H157.8z M131.4,0h-13.5v88.8h13.5
		V0z M81.4,0v12.7h18L80.2,76.7v12.1h34.5v-13H94.3l19.5-64.1V0H81.4z M40.9,0v88.8h12.2V37.7L66,88.8h11V0H64.7v47.6L53.1,0H40.9z
		 M0,69.5c0,12.8,4.9,20.4,16.8,20.4h2.4c11.9,0,16.9-7.9,16.9-20.4V0H22.4v70.3c0,3.9-1.2,6.3-4.4,6.3c-3,0-4.3-2.5-4.3-6.3V0H0
		V69.5z"/>
</g>
</svg>
