<?xml version="1.0" encoding="utf-8"?>
<!-- Generator: Adobe Illustrator 24.3.0, SVG Export Plug-In . SVG Version: 6.00 Build 0)  -->
<svg version="1.1" id="Laag_1" xmlns="http://www.w3.org/2000/svg" xmlns:xlink="http://www.w3.org/1999/xlink" x="0px" y="0px"
	 width="111.6px" height="32.5px" viewBox="0 0 111.6 32.5" style="enable-background:new 0 0 111.6 32.5;" xml:space="preserve">
<style type="text/css">
	.st0{fill:#1D1D1B;}
</style>
<g>
	<g>
		<path class="st0" d="M4.9,11.1c-0.8,0-1.4-0.1-2-0.3c-0.6-0.2-1-0.5-1.4-0.8C1.1,9.7,0.8,9.3,0.6,8.8c-0.2-0.5-0.3-1-0.3-1.5h1.3
			c0.2,1.8,1.3,2.8,3.3,2.8c0.4,0,0.7,0,1-0.1c0.3-0.1,0.6-0.2,0.8-0.4C7,9.4,7.2,9.2,7.3,8.9s0.2-0.5,0.2-0.9
			c0-0.4-0.1-0.7-0.2-0.9S6.9,6.7,6.6,6.5C6.3,6.4,6,6.2,5.6,6.1C5.2,6,4.8,5.9,4.3,5.8C3.8,5.7,3.4,5.6,2.9,5.5S2.1,5.2,1.8,4.9
			C1.5,4.7,1.2,4.4,1.1,4.1C0.9,3.8,0.8,3.3,0.8,2.8C0.8,2.4,0.9,2,1,1.6C1.2,1.3,1.5,1,1.8,0.8c0.3-0.2,0.7-0.4,1.2-0.6
			C3.4,0.1,3.9,0,4.4,0c0.7,0,1.2,0.1,1.7,0.2C6.6,0.4,7,0.6,7.4,0.9C7.7,1.2,7.9,1.6,8.1,2c0.2,0.4,0.3,0.9,0.4,1.4H7.2
			C7.1,2.6,6.8,2,6.3,1.6S5.2,1,4.4,1C3.7,1,3.1,1.2,2.7,1.5C2.2,1.8,2,2.2,2,2.8c0,0.3,0.1,0.6,0.2,0.8s0.3,0.4,0.6,0.5
			s0.5,0.3,0.9,0.4c0.3,0.1,0.7,0.2,1.1,0.3c0.5,0.1,1,0.2,1.5,0.4c0.5,0.1,0.9,0.3,1.3,0.6s0.7,0.6,0.9,0.9S8.8,7.4,8.8,8
			c0,0.5-0.1,0.9-0.3,1.3c-0.2,0.4-0.5,0.7-0.8,1c-0.4,0.3-0.8,0.5-1.2,0.6C6,11.1,5.5,11.1,4.9,11.1z"/>
		<path class="st0" d="M9.7,3.2h1.1V0.7H12v2.4h1.5v1H12v5c0,0.3,0.1,0.5,0.2,0.6s0.3,0.2,0.6,0.2c0.1,0,0.2,0,0.4,0
			c0.1,0,0.2,0,0.3-0.1h0v1.1c-0.1,0-0.3,0.1-0.5,0.1s-0.3,0-0.5,0c-0.5,0-0.9-0.1-1.2-0.3c-0.3-0.2-0.5-0.6-0.5-1.2V4.2H9.7V3.2z"
			/>
		<path class="st0" d="M20.9,11c-0.8,0-1.2-0.4-1.3-1.2h0c-0.1,0.2-0.3,0.3-0.4,0.4c-0.2,0.1-0.3,0.3-0.6,0.4
			c-0.2,0.1-0.4,0.2-0.7,0.3c-0.3,0.1-0.6,0.1-0.9,0.1c-0.4,0-0.7,0-1-0.1c-0.3-0.1-0.6-0.2-0.8-0.4c-0.2-0.2-0.4-0.4-0.6-0.7
			c-0.1-0.3-0.2-0.6-0.2-1c0-0.5,0.1-0.8,0.3-1.1c0.2-0.3,0.4-0.5,0.7-0.7s0.7-0.3,1.1-0.4s0.9-0.2,1.3-0.3c0.3,0,0.5-0.1,0.8-0.1
			c0.2,0,0.4-0.1,0.6-0.2c0.2-0.1,0.3-0.2,0.4-0.3s0.1-0.3,0.1-0.5c0-0.4-0.2-0.8-0.5-1s-0.7-0.4-1.3-0.4c-0.6,0-1.1,0.1-1.4,0.4
			c-0.3,0.3-0.5,0.7-0.5,1.3h-1.2c0-0.4,0.1-0.7,0.2-1c0.1-0.3,0.3-0.6,0.6-0.8s0.6-0.4,1-0.5C16.8,3.1,17.3,3,17.8,3
			c0.4,0,0.8,0,1.1,0.1c0.3,0.1,0.7,0.2,0.9,0.4c0.3,0.2,0.5,0.4,0.6,0.8c0.1,0.3,0.2,0.7,0.2,1.2v3.7c0,0.3,0.1,0.6,0.2,0.7
			c0.1,0.2,0.3,0.2,0.7,0.1h0v0.9c-0.1,0-0.2,0.1-0.3,0.1C21.2,11,21,11,20.9,11z M17.2,10.2c0.4,0,0.8-0.1,1.1-0.2
			c0.3-0.1,0.5-0.3,0.7-0.5c0.2-0.2,0.3-0.4,0.4-0.7c0.1-0.2,0.1-0.5,0.1-0.7V6.8c-0.2,0.1-0.5,0.2-0.8,0.3c-0.3,0.1-0.7,0.2-1,0.2
			c-0.3,0.1-0.6,0.1-0.9,0.2c-0.3,0.1-0.5,0.1-0.7,0.3c-0.2,0.1-0.4,0.3-0.5,0.4c-0.1,0.2-0.2,0.4-0.2,0.7c0,0.3,0,0.5,0.1,0.6
			c0.1,0.2,0.2,0.3,0.4,0.4s0.3,0.2,0.5,0.2C16.8,10.1,17,10.2,17.2,10.2z"/>
		<path class="st0" d="M25.4,11.2c-0.5,0-1-0.1-1.4-0.3c-0.4-0.2-0.8-0.5-1.1-0.8s-0.5-0.8-0.7-1.3C22.1,8.3,22,7.7,22,7.1
			c0-0.6,0.1-1.2,0.3-1.7s0.4-0.9,0.7-1.3c0.3-0.3,0.7-0.6,1.1-0.8C24.5,3.1,24.9,3,25.4,3c0.5,0,1,0.1,1.4,0.4s0.7,0.5,1,0.9h0V0.2
			h1.2v10.7h-1.2V10h0c-0.3,0.4-0.6,0.7-1,0.9C26.5,11.1,26,11.2,25.4,11.2z M25.5,10.1c0.4,0,0.8-0.1,1.1-0.2
			c0.3-0.2,0.6-0.4,0.8-0.6c0.2-0.3,0.3-0.6,0.4-1c0.1-0.4,0.1-0.8,0.1-1.2c0-0.4-0.1-0.9-0.2-1.2c-0.1-0.4-0.3-0.7-0.5-1
			s-0.5-0.5-0.8-0.6C26.2,4.1,25.9,4,25.5,4c-0.4,0-0.7,0.1-1,0.2c-0.3,0.2-0.5,0.4-0.7,0.6c-0.2,0.3-0.3,0.6-0.4,1
			c-0.1,0.4-0.1,0.8-0.1,1.2c0,0.4,0,0.8,0.1,1.2c0.1,0.4,0.2,0.7,0.4,1c0.2,0.3,0.4,0.5,0.7,0.6C24.8,10.1,25.1,10.1,25.5,10.1z"/>
		<path class="st0" d="M33.7,11.2c-1.1,0-1.9-0.2-2.5-0.7c-0.6-0.5-0.9-1.2-1-2h1.2c0,0.3,0.1,0.6,0.3,0.8c0.1,0.2,0.3,0.4,0.5,0.5
			c0.2,0.1,0.4,0.2,0.7,0.3s0.5,0.1,0.8,0.1c0.6,0,1.1-0.1,1.4-0.4c0.3-0.2,0.4-0.5,0.4-0.9c0-0.2,0-0.4-0.1-0.5S35.2,8,35,7.9
			s-0.4-0.2-0.6-0.3c-0.3-0.1-0.6-0.1-0.9-0.2c-0.4-0.1-0.7-0.2-1.1-0.3S31.7,7,31.5,6.8c-0.3-0.2-0.5-0.4-0.6-0.7
			c-0.2-0.3-0.2-0.6-0.2-1c0-0.7,0.2-1.2,0.7-1.6C31.8,3.2,32.5,3,33.4,3c1,0,1.7,0.2,2.2,0.6c0.5,0.4,0.8,1,0.9,1.8h-1.2
			c-0.1-0.5-0.2-0.9-0.5-1.1C34.4,4.1,33.9,4,33.3,4c-0.6,0-1,0.1-1.2,0.3c-0.2,0.2-0.4,0.5-0.4,0.8c0,0.2,0,0.4,0.1,0.5
			s0.2,0.2,0.4,0.3C32.5,6,32.7,6.1,33,6.2c0.3,0.1,0.6,0.1,0.9,0.2c0.4,0.1,0.8,0.2,1.1,0.3c0.3,0.1,0.6,0.2,0.9,0.4
			c0.3,0.2,0.5,0.4,0.6,0.7c0.2,0.3,0.2,0.6,0.2,1.1c0,0.4-0.1,0.7-0.2,1c-0.1,0.3-0.4,0.5-0.6,0.7c-0.3,0.2-0.6,0.3-1,0.4
			S34.1,11.2,33.7,11.2z"/>
		<path class="st0" d="M37,3.2h1.3l1.6,4.9c0,0.2,0.1,0.4,0.2,0.5c0.1,0.2,0.1,0.4,0.2,0.5c0.1,0.2,0.1,0.4,0.2,0.6h0
			c0-0.2,0.1-0.4,0.2-0.6c0-0.2,0.1-0.3,0.2-0.5c0.1-0.2,0.1-0.4,0.2-0.5l1.6-4.9h1.3l-2.8,7.8h-1.4L37,3.2z"/>
		<path class="st0" d="M47.9,11.1c-0.6,0-1.1-0.1-1.6-0.3s-0.9-0.5-1.2-0.9c-0.3-0.4-0.6-0.8-0.7-1.3c-0.2-0.5-0.3-1-0.3-1.6
			s0.1-1.1,0.3-1.6c0.2-0.5,0.4-0.9,0.8-1.3c0.3-0.4,0.7-0.7,1.2-0.9s1-0.3,1.5-0.3c0.6,0,1.1,0.1,1.5,0.3s0.8,0.5,1.1,0.9
			c0.3,0.4,0.5,0.8,0.7,1.4c0.2,0.5,0.2,1.1,0.2,1.8h-6c0,0.4,0.1,0.8,0.2,1.1c0.1,0.3,0.3,0.6,0.5,0.9c0.2,0.3,0.5,0.4,0.8,0.6
			s0.6,0.2,1,0.2c0.6,0,1-0.1,1.4-0.4s0.6-0.7,0.8-1.2h1.2c-0.2,0.8-0.6,1.5-1.1,1.9C49.5,10.9,48.8,11.1,47.9,11.1z M47.8,3.9
			c-0.4,0-0.7,0.1-1,0.2c-0.3,0.1-0.5,0.3-0.7,0.5s-0.4,0.5-0.5,0.8c-0.1,0.3-0.2,0.6-0.2,1h4.7c0-0.8-0.3-1.4-0.6-1.8
			C49.1,4.2,48.5,3.9,47.8,3.9z"/>
		<path class="st0" d="M53.8,4.5L53.8,4.5c0.3-0.4,0.6-0.7,1-1c0.4-0.3,0.9-0.4,1.4-0.4c0.1,0,0.2,0,0.3,0c0.1,0,0.1,0,0.2,0.1v1.2
			h0c-0.1,0-0.2-0.1-0.2-0.1s-0.2,0-0.3,0c-0.3,0-0.6,0.1-0.9,0.2c-0.3,0.1-0.5,0.3-0.7,0.5S54.1,5.4,54,5.6c-0.1,0.3-0.2,0.6-0.2,1
			v4.3h-1.2V3.2h1.2V4.5z"/>
		<path class="st0" d="M58.9,4.2L58.9,4.2c0.3-0.4,0.6-0.7,1-0.9C60.4,3.1,60.9,3,61.4,3c0.8,0,1.4,0.2,1.9,0.6
			c0.5,0.4,0.7,1,0.7,1.9v5.4h-1.2V5.6c0-0.5-0.2-0.9-0.5-1.2C62.1,4.2,61.6,4,61.1,4c-0.3,0-0.6,0.1-0.9,0.2
			c-0.3,0.1-0.5,0.2-0.7,0.4c-0.2,0.2-0.3,0.4-0.4,0.7c-0.1,0.3-0.2,0.6-0.2,0.9v4.8h-1.2V0.2h1.2V4.2z"/>
		<path class="st0" d="M71.7,11c-0.8,0-1.2-0.4-1.3-1.2h0c-0.1,0.2-0.3,0.3-0.4,0.4s-0.3,0.3-0.6,0.4c-0.2,0.1-0.4,0.2-0.7,0.3
			c-0.3,0.1-0.6,0.1-0.9,0.1c-0.4,0-0.7,0-1-0.1c-0.3-0.1-0.6-0.2-0.8-0.4s-0.4-0.4-0.6-0.7c-0.1-0.3-0.2-0.6-0.2-1
			c0-0.5,0.1-0.8,0.3-1.1c0.2-0.3,0.4-0.5,0.7-0.7c0.3-0.2,0.7-0.3,1.1-0.4c0.4-0.1,0.9-0.2,1.3-0.3c0.3,0,0.5-0.1,0.8-0.1
			c0.2,0,0.4-0.1,0.6-0.2c0.2-0.1,0.3-0.2,0.4-0.3s0.1-0.3,0.1-0.5c0-0.4-0.2-0.8-0.5-1s-0.7-0.4-1.3-0.4c-0.6,0-1.1,0.1-1.4,0.4
			c-0.3,0.3-0.5,0.7-0.5,1.3h-1.2c0-0.4,0.1-0.7,0.2-1c0.1-0.3,0.3-0.6,0.6-0.8s0.6-0.4,1-0.5C67.7,3.1,68.2,3,68.7,3
			c0.4,0,0.8,0,1.1,0.1c0.4,0.1,0.7,0.2,0.9,0.4C71,3.8,71.2,4,71.3,4.3c0.1,0.3,0.2,0.7,0.2,1.2v3.7c0,0.3,0.1,0.6,0.2,0.7
			c0.1,0.2,0.3,0.2,0.7,0.1h0v0.9c-0.1,0-0.2,0.1-0.3,0.1C72,11,71.9,11,71.7,11z M68.1,10.2c0.4,0,0.8-0.1,1-0.2s0.5-0.3,0.7-0.5
			c0.2-0.2,0.3-0.4,0.4-0.7c0.1-0.2,0.1-0.5,0.1-0.7V6.8C70.2,6.9,70,7,69.7,7.1c-0.3,0.1-0.7,0.2-1,0.2c-0.3,0.1-0.6,0.1-0.9,0.2
			c-0.3,0.1-0.5,0.1-0.7,0.3S66.8,8,66.7,8.2c-0.1,0.2-0.2,0.4-0.2,0.7c0,0.3,0,0.5,0.1,0.6c0.1,0.2,0.2,0.3,0.4,0.4
			c0.1,0.1,0.3,0.2,0.5,0.2C67.7,10.1,67.9,10.2,68.1,10.2z"/>
		<path class="st0" d="M73.3,0.2h1.2v10.7h-1.2V0.2z"/>
		<path class="st0" d="M79.6,11.1c-0.6,0-1.1-0.1-1.6-0.3c-0.5-0.2-0.9-0.5-1.2-0.9c-0.3-0.4-0.6-0.8-0.7-1.3s-0.3-1-0.3-1.6
			s0.1-1.1,0.3-1.6c0.2-0.5,0.4-0.9,0.8-1.3c0.3-0.4,0.7-0.7,1.2-0.9c0.5-0.2,1-0.3,1.5-0.3c0.6,0,1.1,0.1,1.5,0.3
			c0.4,0.2,0.8,0.5,1.1,0.9s0.5,0.8,0.7,1.4s0.2,1.1,0.2,1.8h-6c0,0.4,0.1,0.8,0.2,1.1s0.3,0.6,0.5,0.9c0.2,0.3,0.5,0.4,0.8,0.6
			s0.6,0.2,1,0.2c0.6,0,1-0.1,1.4-0.4c0.4-0.3,0.6-0.7,0.8-1.2h1.2c-0.2,0.8-0.6,1.5-1.1,1.9C81.2,10.9,80.5,11.1,79.6,11.1z
			 M79.5,3.9c-0.4,0-0.7,0.1-1,0.2S78,4.4,77.8,4.7c-0.2,0.2-0.4,0.5-0.5,0.8s-0.2,0.6-0.2,1h4.7c0-0.8-0.3-1.4-0.6-1.8
			C80.7,4.2,80.2,3.9,79.5,3.9z"/>
		<path class="st0" d="M85.5,4.2L85.5,4.2c0.3-0.4,0.6-0.7,1-0.9C86.9,3.1,87.4,3,88,3c0.8,0,1.4,0.2,1.9,0.6s0.7,1,0.7,1.9v5.4
			h-1.2V5.6c0-0.5-0.2-0.9-0.5-1.2C88.6,4.2,88.1,4,87.6,4c-0.3,0-0.6,0.1-0.9,0.2c-0.3,0.1-0.5,0.2-0.7,0.4S85.7,5,85.6,5.3
			c-0.1,0.3-0.2,0.6-0.2,0.9v4.8h-1.2V3.2h1.2V4.2z"/>
	</g>
	<g>
		<path class="st0" d="M0,18.2h1.3l1.6,4.9c0,0.2,0.1,0.4,0.2,0.5c0.1,0.2,0.1,0.4,0.2,0.5c0.1,0.2,0.1,0.4,0.2,0.6h0
			c0-0.2,0.1-0.4,0.2-0.6c0-0.2,0.1-0.3,0.2-0.5c0.1-0.2,0.1-0.4,0.2-0.5l1.6-4.9h1.3l-2.8,7.8H2.7L0,18.2z"/>
		<path class="st0" d="M13.6,26c-0.8,0-1.2-0.4-1.3-1.2h0c-0.1,0.2-0.3,0.3-0.4,0.4c-0.2,0.1-0.3,0.3-0.6,0.4
			c-0.2,0.1-0.4,0.2-0.7,0.3c-0.3,0.1-0.6,0.1-0.9,0.1c-0.4,0-0.7,0-1-0.1c-0.3-0.1-0.6-0.2-0.8-0.4c-0.2-0.2-0.4-0.4-0.6-0.7
			S7,24.3,7,23.9c0-0.5,0.1-0.8,0.3-1.1c0.2-0.3,0.4-0.5,0.7-0.7s0.7-0.3,1.1-0.4c0.4-0.1,0.9-0.2,1.3-0.3c0.3,0,0.5-0.1,0.8-0.1
			c0.2,0,0.4-0.1,0.6-0.2c0.2-0.1,0.3-0.2,0.4-0.3s0.1-0.3,0.1-0.5c0-0.4-0.2-0.8-0.5-1c-0.3-0.2-0.7-0.4-1.3-0.4
			c-0.6,0-1.1,0.1-1.4,0.4c-0.3,0.3-0.5,0.7-0.5,1.3H7.4c0-0.4,0.1-0.7,0.2-1c0.1-0.3,0.3-0.6,0.6-0.8c0.3-0.2,0.6-0.4,1-0.5
			C9.5,18.1,10,18,10.5,18c0.4,0,0.8,0,1.1,0.1c0.3,0.1,0.7,0.2,0.9,0.4s0.5,0.4,0.6,0.8c0.1,0.3,0.2,0.7,0.2,1.2v3.7
			c0,0.3,0.1,0.6,0.2,0.7c0.1,0.2,0.3,0.2,0.7,0.1h0v0.9c-0.1,0-0.2,0.1-0.3,0.1C13.9,26,13.7,26,13.6,26z M9.9,25.2
			c0.4,0,0.8-0.1,1.1-0.2c0.3-0.1,0.5-0.3,0.7-0.5c0.2-0.2,0.3-0.4,0.4-0.7c0.1-0.2,0.1-0.5,0.1-0.7v-1.3c-0.2,0.1-0.5,0.2-0.8,0.3
			c-0.3,0.1-0.7,0.2-1,0.2c-0.3,0.1-0.6,0.1-0.9,0.2c-0.3,0.1-0.5,0.1-0.7,0.3c-0.2,0.1-0.4,0.3-0.5,0.4c-0.1,0.2-0.2,0.4-0.2,0.7
			c0,0.3,0,0.5,0.1,0.6c0.1,0.2,0.2,0.3,0.4,0.4C9,25,9.1,25.1,9.3,25.1C9.5,25.1,9.7,25.2,9.9,25.2z"/>
		<path class="st0" d="M16.4,19.2L16.4,19.2c0.3-0.4,0.6-0.7,1-0.9c0.4-0.2,0.9-0.3,1.4-0.3c0.8,0,1.4,0.2,1.9,0.6
			c0.5,0.4,0.7,1,0.7,1.9v5.4h-1.2v-5.3c0-0.5-0.2-0.9-0.5-1.2C19.5,19.2,19,19,18.5,19c-0.3,0-0.6,0.1-0.9,0.2s-0.5,0.2-0.7,0.4
			c-0.2,0.2-0.3,0.4-0.4,0.7c-0.1,0.3-0.2,0.6-0.2,0.9v4.8h-1.2v-7.8h1.2V19.2z"/>
		<path class="st0" d="M26.7,19.2L26.7,19.2c0.3-0.4,0.6-0.7,1-0.9c0.4-0.2,0.9-0.3,1.4-0.3c0.8,0,1.4,0.2,1.9,0.6
			c0.5,0.4,0.7,1,0.7,1.9v5.4h-1.2v-5.3c0-0.5-0.2-0.9-0.5-1.2c-0.3-0.3-0.7-0.4-1.3-0.4c-0.3,0-0.6,0.1-0.9,0.2
			c-0.3,0.1-0.5,0.2-0.7,0.4c-0.2,0.2-0.3,0.4-0.4,0.7c-0.1,0.3-0.2,0.6-0.2,0.9v4.8h-1.2v-7.8h1.2V19.2z"/>
		<path class="st0" d="M38.3,25.9v-1.1h0c-0.3,0.4-0.6,0.7-1,0.9c-0.4,0.2-0.8,0.3-1.4,0.3c-0.8,0-1.4-0.2-1.9-0.7
			c-0.5-0.4-0.7-1.1-0.7-1.9v-5.4h1.2v5.3c0,0.5,0.2,0.9,0.5,1.2c0.3,0.3,0.7,0.4,1.3,0.4c0.3,0,0.6-0.1,0.8-0.2s0.5-0.3,0.6-0.5
			c0.2-0.2,0.3-0.4,0.4-0.7c0.1-0.3,0.1-0.5,0.1-0.9v-4.8h1.2v7.8H38.3z"/>
		<path class="st0" d="M46.9,26.1c-0.6,0-1.1-0.1-1.6-0.3s-0.9-0.5-1.2-0.9c-0.3-0.4-0.6-0.8-0.7-1.3c-0.2-0.5-0.3-1-0.3-1.6
			c0-0.6,0.1-1.1,0.3-1.6c0.2-0.5,0.4-0.9,0.8-1.3c0.3-0.4,0.7-0.7,1.2-0.9c0.5-0.2,1-0.3,1.5-0.3c0.6,0,1.1,0.1,1.5,0.3
			c0.4,0.2,0.8,0.5,1.1,0.9c0.3,0.4,0.5,0.8,0.7,1.4c0.2,0.5,0.2,1.1,0.2,1.8h-6c0,0.4,0.1,0.8,0.2,1.1c0.1,0.3,0.3,0.6,0.5,0.9
			s0.5,0.4,0.8,0.6c0.3,0.1,0.6,0.2,1,0.2c0.6,0,1-0.1,1.4-0.4c0.4-0.3,0.6-0.7,0.8-1.2h1.2C50,24.4,49.6,25,49,25.5
			C48.5,25.9,47.7,26.1,46.9,26.1z M46.8,18.9c-0.4,0-0.7,0.1-1,0.2c-0.3,0.1-0.5,0.3-0.7,0.5c-0.2,0.2-0.4,0.5-0.5,0.8
			c-0.1,0.3-0.2,0.6-0.2,1H49c0-0.8-0.3-1.4-0.6-1.8S47.5,18.9,46.8,18.9z"/>
		<path class="st0" d="M52.8,19.2L52.8,19.2c0.3-0.4,0.6-0.7,1-0.9c0.4-0.2,0.9-0.3,1.4-0.3c0.8,0,1.4,0.2,1.9,0.6
			c0.5,0.4,0.7,1,0.7,1.9v5.4h-1.2v-5.3c0-0.5-0.2-0.9-0.5-1.2c-0.3-0.3-0.7-0.4-1.3-0.4c-0.3,0-0.6,0.1-0.9,0.2
			c-0.3,0.1-0.5,0.2-0.7,0.4c-0.2,0.2-0.3,0.4-0.4,0.7c-0.1,0.3-0.2,0.6-0.2,0.9v4.8h-1.2v-7.8h1.2V19.2z"/>
		<path class="st0" d="M61,18.2h1.3l1.6,4.9c0,0.2,0.1,0.4,0.2,0.5c0.1,0.2,0.1,0.4,0.2,0.5c0.1,0.2,0.1,0.4,0.2,0.6h0
			c0-0.2,0.1-0.4,0.2-0.6c0-0.2,0.1-0.3,0.2-0.5c0.1-0.2,0.1-0.4,0.2-0.5l1.6-4.9h1.3l-2.8,7.8h-1.4L61,18.2z"/>
		<path class="st0" d="M70,19.5L70,19.5c0.3-0.4,0.6-0.7,1-1c0.4-0.3,0.9-0.4,1.4-0.4c0.1,0,0.2,0,0.3,0c0.1,0,0.1,0,0.2,0.1v1.2h0
			c-0.1,0-0.2,0-0.2-0.1c-0.1,0-0.2,0-0.3,0c-0.3,0-0.6,0.1-0.9,0.2c-0.3,0.1-0.5,0.3-0.7,0.5c-0.2,0.2-0.4,0.4-0.5,0.7
			c-0.1,0.3-0.2,0.6-0.2,1v4.3h-1.2v-7.8H70V19.5z"/>
		<path class="st0" d="M76.9,26.1c-0.6,0-1.1-0.1-1.6-0.3s-0.9-0.5-1.2-0.9s-0.6-0.8-0.8-1.3c-0.2-0.5-0.3-1-0.3-1.6
			c0-0.6,0.1-1.1,0.3-1.6c0.2-0.5,0.4-0.9,0.8-1.3c0.3-0.4,0.7-0.7,1.2-0.9c0.5-0.2,1-0.3,1.6-0.3s1.1,0.1,1.6,0.3
			c0.5,0.2,0.9,0.5,1.2,0.9c0.3,0.4,0.6,0.8,0.7,1.3c0.2,0.5,0.3,1,0.3,1.6c0,0.6-0.1,1.1-0.3,1.6c-0.2,0.5-0.4,0.9-0.7,1.3
			s-0.7,0.7-1.2,0.9C78,26,77.5,26.1,76.9,26.1z M76.9,25.1c0.4,0,0.8-0.1,1.1-0.2s0.6-0.4,0.8-0.7s0.4-0.6,0.5-1
			c0.1-0.4,0.2-0.8,0.2-1.2c0-0.4-0.1-0.8-0.2-1.2c-0.1-0.4-0.3-0.7-0.5-1c-0.2-0.3-0.5-0.5-0.8-0.7S77.3,19,76.9,19
			s-0.8,0.1-1.1,0.2c-0.3,0.2-0.6,0.4-0.8,0.7c-0.2,0.3-0.4,0.6-0.5,1c-0.1,0.4-0.2,0.8-0.2,1.2c0,0.4,0.1,0.8,0.2,1.2
			c0.1,0.4,0.3,0.7,0.5,1s0.5,0.5,0.8,0.7C76.2,25,76.5,25.1,76.9,25.1z"/>
		<path class="st0" d="M85.2,26.1c-0.6,0-1.1-0.1-1.6-0.3s-0.9-0.5-1.2-0.9c-0.3-0.4-0.6-0.8-0.7-1.3c-0.2-0.5-0.3-1-0.3-1.6
			c0-0.6,0.1-1.1,0.3-1.6c0.2-0.5,0.4-0.9,0.8-1.3c0.3-0.4,0.7-0.7,1.2-0.9c0.5-0.2,1-0.3,1.5-0.3c0.6,0,1.1,0.1,1.5,0.3
			c0.4,0.2,0.8,0.5,1.1,0.9c0.3,0.4,0.5,0.8,0.7,1.4c0.2,0.5,0.2,1.1,0.2,1.8h-6c0,0.4,0.1,0.8,0.2,1.1c0.1,0.3,0.3,0.6,0.5,0.9
			s0.5,0.4,0.8,0.6c0.3,0.1,0.6,0.2,1,0.2c0.6,0,1-0.1,1.4-0.4c0.4-0.3,0.6-0.7,0.8-1.2h1.2c-0.2,0.8-0.6,1.5-1.1,1.9
			C86.8,25.9,86.1,26.1,85.2,26.1z M85.1,18.9c-0.4,0-0.7,0.1-1,0.2c-0.3,0.1-0.5,0.3-0.7,0.5c-0.2,0.2-0.4,0.5-0.5,0.8
			c-0.1,0.3-0.2,0.6-0.2,1h4.7c0-0.8-0.3-1.4-0.6-1.8S85.8,18.9,85.1,18.9z"/>
		<path class="st0" d="M93,28.5c-1,0-1.8-0.2-2.3-0.6c-0.6-0.4-0.9-0.9-0.9-1.6h1.1c0.1,0.4,0.3,0.7,0.7,0.9
			c0.4,0.2,0.9,0.3,1.5,0.3c0.7,0,1.3-0.2,1.7-0.5c0.4-0.3,0.6-0.8,0.6-1.5v-1.1h0c-0.3,0.4-0.6,0.7-0.9,0.9
			c-0.3,0.2-0.8,0.3-1.4,0.3c-0.5,0-1-0.1-1.4-0.3c-0.4-0.2-0.8-0.5-1.1-0.8s-0.5-0.7-0.7-1.2c-0.2-0.5-0.2-1-0.2-1.5
			c0-0.6,0.1-1.1,0.3-1.6s0.4-0.9,0.7-1.2s0.7-0.6,1.1-0.8s0.8-0.3,1.3-0.3c0.6,0,1,0.1,1.4,0.3c0.4,0.2,0.7,0.5,1,0.9h0v-1h1.2v7.3
			c0,0.5-0.1,1-0.2,1.3c-0.2,0.4-0.4,0.7-0.7,0.9s-0.7,0.4-1.1,0.6C93.9,28.5,93.5,28.5,93,28.5z M92.9,24.6c0.5,0,0.8-0.1,1.1-0.2
			s0.5-0.3,0.7-0.6c0.2-0.3,0.3-0.6,0.4-0.9c0.1-0.3,0.1-0.7,0.1-1.1c0-0.8-0.2-1.5-0.6-2s-1-0.7-1.8-0.7c-0.7,0-1.3,0.3-1.6,0.8
			c-0.4,0.5-0.5,1.2-0.5,2c0,0.8,0.2,1.5,0.6,2C91.6,24.4,92.2,24.6,92.9,24.6z"/>
		<path class="st0" d="M101.3,26.1c-0.6,0-1.1-0.1-1.6-0.3s-0.9-0.5-1.2-0.9c-0.3-0.4-0.6-0.8-0.7-1.3c-0.2-0.5-0.3-1-0.3-1.6
			c0-0.6,0.1-1.1,0.3-1.6c0.2-0.5,0.4-0.9,0.8-1.3c0.3-0.4,0.7-0.7,1.2-0.9c0.5-0.2,1-0.3,1.5-0.3c0.6,0,1.1,0.1,1.5,0.3
			c0.4,0.2,0.8,0.5,1.1,0.9c0.3,0.4,0.5,0.8,0.7,1.4c0.2,0.5,0.2,1.1,0.2,1.8h-6c0,0.4,0.1,0.8,0.2,1.1c0.1,0.3,0.3,0.6,0.5,0.9
			s0.5,0.4,0.8,0.6c0.3,0.1,0.6,0.2,1,0.2c0.6,0,1-0.1,1.4-0.4c0.4-0.3,0.6-0.7,0.8-1.2h1.2c-0.2,0.8-0.6,1.5-1.1,1.9
			C102.9,25.9,102.2,26.1,101.3,26.1z M101.3,18.9c-0.4,0-0.7,0.1-1,0.2c-0.3,0.1-0.5,0.3-0.7,0.5c-0.2,0.2-0.4,0.5-0.5,0.8
			c-0.1,0.3-0.2,0.6-0.2,1h4.7c0-0.8-0.3-1.4-0.6-1.8S102,18.9,101.3,18.9z"/>
		<path class="st0" d="M107.2,19.5L107.2,19.5c0.3-0.4,0.6-0.7,1-1c0.4-0.3,0.9-0.4,1.4-0.4c0.1,0,0.2,0,0.3,0c0.1,0,0.1,0,0.2,0.1
			v1.2h0c-0.1,0-0.2,0-0.2-0.1c-0.1,0-0.2,0-0.3,0c-0.3,0-0.6,0.1-0.9,0.2c-0.3,0.1-0.5,0.3-0.7,0.5c-0.2,0.2-0.4,0.4-0.5,0.7
			s-0.2,0.6-0.2,1v4.3H106v-7.8h1.2V19.5z"/>
		<path class="st0" d="M110.1,24.5h1.5v1.5h-1.5V24.5z"/>
	</g>
</g>
</svg>
