<?xml version="1.0" encoding="utf-8"?>
<!-- Generator: Adobe Illustrator 24.3.0, SVG Export Plug-In . SVG Version: 6.00 Build 0)  -->
<svg version="1.1" id="Laag_1" xmlns="http://www.w3.org/2000/svg" xmlns:xlink="http://www.w3.org/1999/xlink" x="0px" y="0px"
	 width="126.5px" height="46.7px" viewBox="0 0 126.5 46.7" style="enable-background:new 0 0 126.5 46.7;" xml:space="preserve">
<style type="text/css">
	.st0{fill:#1D1D1B;}
</style>
<g>
	<path class="st0" d="M8,18.6c-1.2,0-2.3-0.1-3.2-0.4c-1-0.3-1.8-0.6-2.5-1.1S1,15.9,0.6,15.2C0.2,14.4,0,13.6,0,12.6h4.5
		c0.1,0.9,0.4,1.5,1,2c0.6,0.4,1.4,0.6,2.5,0.6c0.4,0,0.7,0,1.1-0.1c0.3-0.1,0.6-0.2,0.9-0.3s0.5-0.3,0.7-0.6
		c0.2-0.2,0.2-0.5,0.2-0.9c0-0.3-0.1-0.6-0.3-0.9s-0.4-0.4-0.8-0.6c-0.3-0.2-0.7-0.3-1.2-0.4c-0.5-0.1-1-0.3-1.7-0.4
		c-0.8-0.2-1.6-0.4-2.3-0.6c-0.8-0.2-1.4-0.5-2-0.9C2,9,1.5,8.4,1.1,7.8C0.7,7.2,0.5,6.4,0.5,5.5c0-1,0.2-1.8,0.5-2.5S2,1.8,2.6,1.3
		s1.4-0.8,2.2-1S6.6,0,7.6,0c1,0,1.9,0.1,2.7,0.3c0.8,0.2,1.6,0.6,2.2,1c0.6,0.4,1.1,1,1.5,1.7c0.4,0.7,0.6,1.5,0.6,2.4h-4.3
		C10.3,4.8,10,4.3,9.5,3.9s-1.2-0.5-2-0.5c-0.8,0-1.4,0.2-1.9,0.5C5.2,4.1,4.9,4.5,4.9,5c0,0.3,0.1,0.6,0.3,0.8C5.4,6,5.6,6.2,6,6.4
		c0.3,0.1,0.8,0.3,1.3,0.4C7.7,6.9,8.3,7,9,7.2c0.8,0.2,1.6,0.4,2.4,0.7c0.8,0.2,1.4,0.6,2,1c0.6,0.4,1,0.9,1.4,1.6
		c0.4,0.6,0.5,1.4,0.5,2.4c0,0.9-0.2,1.8-0.6,2.5c-0.4,0.7-0.9,1.3-1.5,1.8c-0.7,0.5-1.4,0.9-2.3,1.1C10,18.5,9,18.6,8,18.6z"/>
	<path class="st0" d="M23.2,18.6c-1,0-2-0.2-2.8-0.5c-0.8-0.3-1.5-0.8-2.1-1.4c-0.6-0.6-1.1-1.3-1.4-2.2c-0.3-0.8-0.5-1.7-0.5-2.7
		s0.2-1.9,0.5-2.7c0.3-0.8,0.8-1.5,1.3-2.2c0.6-0.6,1.3-1.1,2.1-1.4C21.2,5.2,22.1,5,23.1,5c0.9,0,1.7,0.1,2.4,0.4
		c0.7,0.2,1.3,0.6,1.8,1c0.5,0.4,0.9,1,1.2,1.6c0.3,0.6,0.5,1.3,0.6,2h-3.9c-0.1-0.6-0.4-1-0.7-1.4C24.2,8.2,23.7,8,23.1,8
		c-0.9,0-1.5,0.3-2,1s-0.7,1.6-0.7,2.8c0,1.2,0.2,2.1,0.7,2.7c0.4,0.7,1.1,1,2,1c1.3,0,2-0.7,2.2-2.2h3.9c0,0.7-0.2,1.4-0.5,2.1
		s-0.7,1.2-1.2,1.7c-0.5,0.5-1.2,0.8-1.9,1.1S24.1,18.6,23.2,18.6z"/>
	<path class="st0" d="M30.6,0.3h4.1V7h0.1c0.5-0.6,1-1.1,1.6-1.4C36.9,5.2,37.6,5,38.5,5c0.7,0,1.3,0.1,1.9,0.4c0.5,0.2,1,0.6,1.4,1
		c0.4,0.4,0.7,0.9,0.9,1.5c0.2,0.6,0.3,1.2,0.3,2v8.3h-4.1v-7.5c0-0.7-0.2-1.2-0.5-1.7c-0.3-0.4-0.8-0.6-1.5-0.6
		c-0.7,0-1.2,0.2-1.6,0.8s-0.6,1.2-0.6,2v7.1h-4.1V0.3z"/>
	<path class="st0" d="M44.8,0.3h4.1v3.3h-4.1V0.3z M44.8,5.4h4.1v12.8h-4.1V5.4z"/>
	<path class="st0" d="M57.1,18.6c-1.1,0-2-0.2-2.9-0.5c-0.8-0.3-1.6-0.8-2.1-1.4c-0.6-0.6-1-1.3-1.4-2.2c-0.3-0.8-0.5-1.7-0.5-2.7
		c0-1,0.2-1.8,0.5-2.7c0.3-0.8,0.8-1.5,1.4-2.1c0.6-0.6,1.3-1.1,2.1-1.4C55,5.2,55.9,5,56.8,5c0.9,0,1.7,0.1,2.5,0.4
		c0.7,0.3,1.4,0.7,1.9,1.2c0.8,0.7,1.3,1.6,1.7,2.7c0.4,1.1,0.6,2.3,0.5,3.6h-9.2c0.1,0.9,0.4,1.5,0.9,2s1.1,0.8,2,0.8
		c0.5,0,1-0.1,1.3-0.3c0.3-0.2,0.6-0.5,0.8-0.9h4c-0.1,0.6-0.4,1.1-0.8,1.7c-0.4,0.5-0.8,1-1.4,1.4c-0.5,0.4-1.1,0.7-1.8,0.9
		S57.9,18.6,57.1,18.6z M59.3,10.4C59.3,9.7,59,9,58.6,8.6c-0.4-0.5-1-0.7-1.7-0.7c-0.8,0-1.4,0.2-1.8,0.7c-0.4,0.4-0.7,1.1-0.8,1.8
		H59.3z"/>
	<path class="st0" d="M69.9,18.6c-0.8,0-1.6-0.2-2.2-0.5s-1.3-0.8-1.8-1.3c-0.5-0.6-0.9-1.3-1.2-2.1c-0.3-0.8-0.4-1.8-0.4-2.9
		c0-1,0.1-1.9,0.4-2.8c0.3-0.8,0.7-1.5,1.2-2.1c0.5-0.6,1.1-1.1,1.8-1.4C68.3,5.2,69,5,69.9,5c0.9,0,1.6,0.2,2.2,0.5
		c0.6,0.3,1,0.8,1.4,1.3h0.1V0.3h4.1v17.9h-3.9v-1.7h0c-0.4,0.7-0.9,1.2-1.5,1.6S70.7,18.6,69.9,18.6z M70.9,15.4c0.9,0,1.5-0.3,2-1
		c0.5-0.7,0.7-1.5,0.7-2.6c0-0.5-0.1-1-0.2-1.5c-0.1-0.5-0.3-0.8-0.5-1.2c-0.2-0.3-0.5-0.6-0.8-0.8c-0.3-0.2-0.7-0.3-1.2-0.3
		c-0.8,0-1.5,0.3-1.9,1c-0.5,0.7-0.7,1.6-0.7,2.6c0,1.1,0.2,2,0.7,2.7C69.5,15,70.1,15.4,70.9,15.4z"/>
	<path class="st0" d="M83.3,18.5c-0.6,0-1.2-0.1-1.8-0.2c-0.5-0.2-1-0.4-1.4-0.8s-0.7-0.7-0.9-1.2c-0.2-0.5-0.3-1-0.3-1.7
		c0-0.7,0.1-1.3,0.4-1.8c0.3-0.5,0.6-0.9,1.1-1.2c0.4-0.3,1-0.5,1.6-0.7c0.6-0.2,1.2-0.3,1.9-0.4c1.2-0.2,2-0.3,2.5-0.5
		s0.7-0.5,0.7-0.9c0-0.4-0.1-0.8-0.4-1S86,7.8,85.3,7.8c-0.6,0-1.1,0.1-1.5,0.4c-0.3,0.3-0.5,0.7-0.6,1.2h-3.8
		c0-0.6,0.1-1.2,0.4-1.7c0.2-0.5,0.6-1,1.1-1.4c0.5-0.4,1.1-0.7,1.8-1S84.4,5,85.3,5c1,0,1.8,0.1,2.5,0.3c0.7,0.2,1.2,0.4,1.7,0.8
		c0.6,0.4,1,0.9,1.2,1.5C91,8.2,91.1,9,91.1,9.8v6.5c0,0.5,0,0.9,0.1,1.2c0.1,0.3,0.2,0.5,0.4,0.6v0.2h-4c-0.1-0.1-0.2-0.3-0.2-0.6
		c-0.1-0.2-0.1-0.5-0.2-0.9h0c-0.4,0.5-0.9,1-1.5,1.3S84.3,18.5,83.3,18.5z M84.6,15.9c0.8,0,1.4-0.2,1.9-0.6c0.5-0.4,0.7-1,0.7-1.7
		v-1.5c-0.3,0.1-0.6,0.3-0.9,0.4s-0.7,0.2-1.2,0.3c-0.8,0.2-1.3,0.4-1.7,0.6c-0.4,0.2-0.5,0.6-0.5,1.1c0,0.5,0.2,0.9,0.5,1.1
		C83.7,15.8,84.1,15.9,84.6,15.9z"/>
	<path class="st0" d="M93.1,5.4H97v1.8H97C97.4,6.6,98,6,98.6,5.6C99.2,5.2,100,5,100.9,5c0.8,0,1.6,0.2,2.2,0.6
		c0.6,0.4,1.1,1,1.4,1.7h0c0.5-0.8,1.1-1.4,1.8-1.7s1.4-0.5,2.3-0.5c0.7,0,1.3,0.1,1.9,0.3c0.6,0.2,1,0.6,1.4,1
		c0.4,0.4,0.6,0.9,0.8,1.5c0.2,0.6,0.3,1.3,0.3,2v8.3h-4.1v-7.6c0-0.7-0.1-1.2-0.4-1.6c-0.3-0.4-0.7-0.6-1.4-0.6
		c-0.6,0-1.1,0.2-1.5,0.7c-0.3,0.5-0.5,1.1-0.5,1.9v7.2H101v-7.6c0-0.7-0.1-1.2-0.4-1.6c-0.3-0.4-0.7-0.6-1.4-0.6
		c-0.6,0-1.1,0.2-1.5,0.7s-0.5,1.1-0.5,1.9v7.2h-4.1V5.4z"/>
</g>
<g>
	<path class="st0" d="M9,42.6c-1.4,0-2.6-0.2-3.7-0.7c-1.1-0.5-2-1.1-2.8-1.9c-0.8-0.8-1.3-1.8-1.8-3c-0.4-1.1-0.6-2.4-0.6-3.7
		c0-1.3,0.2-2.6,0.6-3.7c0.4-1.1,1-2.1,1.8-3c0.8-0.8,1.7-1.5,2.8-2C6.4,24.2,7.6,24,9,24c1.3,0,2.6,0.2,3.7,0.7
		c1.1,0.5,2,1.1,2.8,2c0.8,0.8,1.4,1.8,1.8,3c0.4,1.1,0.6,2.4,0.6,3.7c0,1.3-0.2,2.6-0.6,3.7c-0.4,1.1-1,2.1-1.8,3
		c-0.8,0.8-1.7,1.5-2.8,1.9C11.5,42.4,10.3,42.6,9,42.6z M9,39c0.7,0,1.3-0.1,1.9-0.4c0.5-0.3,1-0.7,1.4-1.2
		c0.4-0.5,0.6-1.1,0.8-1.8s0.3-1.5,0.3-2.3c0-0.8-0.1-1.6-0.3-2.3s-0.4-1.3-0.8-1.8s-0.8-0.9-1.4-1.2c-0.5-0.3-1.2-0.4-1.9-0.4
		S7.6,27.7,7.1,28c-0.5,0.3-1,0.7-1.4,1.2S5.1,30.3,4.9,31s-0.3,1.5-0.3,2.3c0,0.8,0.1,1.6,0.3,2.3s0.5,1.3,0.8,1.8
		c0.4,0.5,0.8,0.9,1.4,1.2C7.6,38.9,8.3,39,9,39z"/>
	<path class="st0" d="M19.3,29.4h3.9V31h0.1c0.4-0.6,1-1,1.6-1.4c0.6-0.3,1.4-0.5,2.3-0.5c0.8,0,1.6,0.2,2.3,0.5s1.2,0.8,1.7,1.4
		c0.5,0.6,0.8,1.3,1.1,2.1c0.2,0.8,0.4,1.7,0.4,2.7c0,1-0.1,2-0.4,2.8c-0.3,0.8-0.6,1.6-1.1,2.2c-0.5,0.6-1.1,1-1.8,1.4
		c-0.7,0.3-1.4,0.5-2.3,0.5s-1.5-0.2-2.1-0.5s-1.1-0.7-1.5-1.3h0v5.5h-4.1V29.4z M26,39.5c0.8,0,1.4-0.3,1.8-0.9
		c0.4-0.6,0.7-1.5,0.7-2.6s-0.2-2-0.6-2.7c-0.4-0.7-1.1-1-2-1c-0.5,0-0.8,0.1-1.2,0.3c-0.3,0.2-0.6,0.4-0.8,0.8
		c-0.2,0.3-0.4,0.7-0.5,1.2s-0.2,0.9-0.2,1.5c0,1,0.2,1.9,0.7,2.5C24.4,39.1,25.1,39.5,26,39.5z"/>
	<path class="st0" d="M39.9,46.6c-1.8,0-3.2-0.3-4.3-1.1c-1.1-0.7-1.8-1.7-2-3.1h4c0.1,0.3,0.3,0.6,0.7,0.9c0.3,0.2,0.9,0.4,1.5,0.4
		c0.9,0,1.5-0.2,1.9-0.6c0.4-0.4,0.6-1,0.6-1.8V40h-0.1c-0.4,0.4-0.8,0.8-1.3,1.1c-0.5,0.3-1.2,0.4-1.9,0.4c-0.7,0-1.4-0.1-2.1-0.4
		c-0.7-0.3-1.3-0.7-1.8-1.2c-0.5-0.5-0.9-1.1-1.2-1.9c-0.3-0.8-0.5-1.6-0.5-2.6c0-0.9,0.1-1.8,0.4-2.6s0.6-1.5,1.1-2
		c0.5-0.6,1-1,1.7-1.3c0.7-0.3,1.4-0.5,2.2-0.5c0.9,0,1.6,0.2,2.2,0.5c0.6,0.3,1.1,0.7,1.5,1.3h0v-1.4h3.9V41c0,1-0.2,1.8-0.5,2.5
		c-0.3,0.7-0.7,1.3-1.2,1.8c-0.6,0.5-1.3,0.9-2.1,1.1C41.8,46.5,40.9,46.6,39.9,46.6z M39.9,38.5c0.9,0,1.5-0.3,2-0.9
		c0.4-0.6,0.6-1.4,0.6-2.3c0-0.4-0.1-0.8-0.2-1.2c-0.1-0.4-0.3-0.7-0.5-1c-0.2-0.3-0.5-0.5-0.8-0.7c-0.3-0.2-0.7-0.2-1.1-0.2
		c-0.8,0-1.4,0.3-1.8,0.9c-0.5,0.6-0.7,1.4-0.7,2.3c0,1,0.2,1.7,0.7,2.3C38.5,38.2,39.1,38.5,39.9,38.5z"/>
	<path class="st0" d="M54.5,42.6c-1,0-2-0.2-2.8-0.5c-0.9-0.3-1.6-0.8-2.2-1.4s-1-1.3-1.3-2.2c-0.3-0.8-0.5-1.7-0.5-2.7
		c0-1,0.2-1.8,0.5-2.7c0.3-0.8,0.8-1.5,1.3-2.1s1.3-1.1,2.1-1.4s1.7-0.5,2.7-0.5c0.9,0,1.7,0.1,2.5,0.4c0.7,0.3,1.4,0.7,1.9,1.2
		c0.8,0.7,1.3,1.6,1.7,2.7c0.4,1.1,0.6,2.3,0.5,3.6h-9.2c0.1,0.9,0.4,1.5,0.9,2s1.1,0.8,2,0.8c0.5,0,1-0.1,1.3-0.3
		c0.4-0.2,0.6-0.5,0.8-0.9h4c-0.1,0.6-0.4,1.1-0.8,1.7c-0.4,0.5-0.8,1-1.4,1.4c-0.5,0.4-1.1,0.7-1.8,0.9
		C56.1,42.5,55.3,42.6,54.5,42.6z M56.8,34.4c-0.1-0.8-0.3-1.4-0.8-1.8c-0.4-0.5-1-0.7-1.7-0.7c-0.8,0-1.4,0.2-1.8,0.7
		c-0.4,0.4-0.7,1.1-0.8,1.8H56.8z"/>
	<path class="st0" d="M62.3,24.3h4.1v17.9h-4.1V24.3z"/>
	<path class="st0" d="M68.4,24.3h4.1v3.3h-4.1V24.3z M68.4,29.4h4.1v12.8h-4.1V29.4z"/>
	<path class="st0" d="M80.6,42.6c-1,0-2-0.2-2.8-0.5c-0.8-0.3-1.5-0.8-2.1-1.4c-0.6-0.6-1.1-1.3-1.4-2.2c-0.3-0.8-0.5-1.7-0.5-2.7
		s0.2-1.9,0.5-2.7c0.3-0.8,0.8-1.5,1.3-2.2c0.6-0.6,1.3-1.1,2.1-1.4c0.8-0.3,1.7-0.5,2.8-0.5c0.9,0,1.7,0.1,2.4,0.4
		c0.7,0.2,1.3,0.6,1.8,1c0.5,0.4,0.9,1,1.2,1.6c0.3,0.6,0.5,1.3,0.6,2h-3.9c-0.1-0.6-0.4-1-0.7-1.4c-0.3-0.3-0.8-0.5-1.4-0.5
		c-0.9,0-1.5,0.3-2,1S78,34.7,78,35.8c0,1.2,0.2,2.1,0.7,2.7c0.4,0.7,1.1,1,2,1c1.3,0,2-0.7,2.2-2.2h3.9c0,0.7-0.2,1.4-0.5,2.1
		s-0.7,1.2-1.2,1.7c-0.5,0.5-1.2,0.8-1.9,1.1C82.4,42.5,81.5,42.6,80.6,42.6z"/>
	<path class="st0" d="M88,24.3h4.1V31h0.1c0.5-0.6,1-1.1,1.6-1.4c0.6-0.3,1.3-0.5,2.2-0.5c0.7,0,1.3,0.1,1.9,0.4
		c0.6,0.2,1,0.6,1.4,1c0.4,0.4,0.7,0.9,0.9,1.5s0.3,1.2,0.3,2v8.3h-4.1v-7.5c0-0.7-0.2-1.2-0.5-1.7c-0.3-0.4-0.8-0.6-1.5-0.6
		c-0.7,0-1.2,0.2-1.6,0.8c-0.4,0.5-0.6,1.2-0.6,2v7.1H88V24.3z"/>
	<path class="st0" d="M107.1,42.4c-0.6,0-1.1-0.1-1.6-0.2c-0.5-0.1-0.9-0.3-1.3-0.6c-0.4-0.3-0.6-0.6-0.8-1.1
		c-0.2-0.5-0.3-1-0.3-1.7V32h-1.7v-2.5h1.7v-4h4v4h2.3V32H107v6c0,0.5,0.1,0.8,0.4,1c0.3,0.2,0.6,0.2,1,0.2c0.2,0,0.4,0,0.5,0
		c0.2,0,0.3,0,0.4,0v3c-0.2,0-0.5,0.1-0.8,0.1S107.7,42.4,107.1,42.4z"/>
</g>
<g>
	<path class="st0" d="M116.1,22.3h3.4v3.8l3.3-1.9l1.7,2.9l-3.3,1.9l3.3,1.9l-1.7,2.9l-3.3-1.9v3.8h-3.4V32l-3.3,1.9l-1.7-2.9
		l3.3-1.9l-3.3-1.9l1.7-2.9l3.3,1.9V22.3z"/>
</g>
</svg>
