<?xml version="1.0" encoding="utf-8"?>
<!-- Generator: Adobe Illustrator 24.3.0, SVG Export Plug-In . SVG Version: 6.00 Build 0)  -->
<svg version="1.1" id="Layer_1" xmlns="http://www.w3.org/2000/svg" xmlns:xlink="http://www.w3.org/1999/xlink" x="0px" y="0px"
	 width="698.3px" height="138.6px" viewBox="0 0 698.3 138.6" style="enable-background:new 0 0 698.3 138.6;" xml:space="preserve"
	>
<polygon points="395.3,0.1 395.3,51.1 347.4,51.1 347.4,0.1 314.4,0.1 314.4,136 347.4,136 347.4,81 395.3,81 395.3,136 428.2,136 
	428.2,0.1 "/>
<rect x="108.5" y="0.1" width="32.9" height="135.9"/>
<rect x="567.3" width="32.9" height="135.9"/>
<g>
	<path d="M73.6,64.6c8.6-3.3,18.3-14.9,18.3-29.2C91.9,19,77.9,0,48.5,0H0v135.9h44c40.2,0,51.2-18.9,51.2-39.8
		C95.3,82.8,86.7,69.5,73.6,64.6z M30,26h15.5c9.1,0,14.8,6.6,14.8,13.4c0,8.3-4.8,14.6-17,14.6H30C30,54,30,26,30,26z M46.3,110.3
		H30V80.5h13.5c13.4,0,18.2,7.1,18.2,15.8C61.7,103.6,55.7,110.3,46.3,110.3z"/>
</g>
<path d="M696.2,14c-9.4-7.9-22.8-15.2-39.5-15.2c-23.4,0-41.3,18.9-41.3,40.7c0,12.8,6.1,21.5,15.4,28.8
	c13.3,10.5,35.6,14.1,35.6,28.6c0,6.2-6.2,11.9-13.7,11.9c-8.7,0.1-19.2-7.3-26.7-15.3c-2.1,3.3-13,20.6-15.4,24.3
	c9.9,11.9,27.8,19.9,43.7,19.9c27.1,0,44-19.4,44-41.9c0-17.8-12.1-26.9-24.3-35.3c-14-9.6-27.4-13.3-27.4-23.1
	c0-7.8,5.4-11.9,14.1-11.9c7.3,0,16.9,6.4,21.6,10.8L696.2,14z"/>
<g>
	<g>
		<path d="M496.8,138.6L496.8,138.6L496.8,138.6L496.8,138.6L496.8,138.6L496.8,138.6c-12.4,0-25.1-3.6-34.8-12.1l0,0
			c-9.7-8.5-16.2-21.9-16.1-40.7l0,0v-0.1l0,0V0h31.4v81.8c0,0.1,0,0.1,0,0.2l0,0c0,6,0.6,12.5,3.4,17.2l0,0
			c2.8,4.7,7.4,9.1,17.3,9.2l0,0c8.8-0.1,13.2-4,16.1-8.7l0,0c2.8-4.7,3.8-11.8,3.8-20.1l0,0c0-0.1,0-0.1,0-0.2l0,0V0h31.4v89.7l0,0
			l0,0c0,13.5-5,25.8-14.1,34.7l0,0c-9,8.7-22,14.1-37.7,14.2l0,0l0,0L496.8,138.6L496.8,138.6z"/>
	</g>
</g>
<polygon points="287,0.1 264.3,0.1 228.1,77.7 191.9,0.1 169.2,0.1 155.2,136 185,136 192.4,71.5 222.7,135.9 233.5,135.9 
	263.8,71.5 271.2,136 301,136 "/>
</svg>
