<?xml version="1.0" encoding="utf-8"?>
<!-- Generator: Adobe Illustrator 24.3.0, SVG Export Plug-In . SVG Version: 6.00 Build 0)  -->
<svg version="1.1" id="Laag_1" xmlns="http://www.w3.org/2000/svg" xmlns:xlink="http://www.w3.org/1999/xlink" x="0px" y="0px"
	 width="550.3px" height="51.9px" viewBox="0 0 550.3 51.9" style="enable-background:new 0 0 550.3 51.9;" xml:space="preserve">
<style type="text/css">
	.st0{fill:#FFFFFF;}
</style>
<g>
	<path class="st0" d="M111.2,49.6V1.3h12.5l23.2,29.5V1.3h12.5v48.2h-12.5l-23.2-29.5v29.5H111.2z"/>
	<path class="st0" d="M168.5,25.4c0-3.6,0.7-6.9,2-10c1.3-3.1,3.2-5.8,5.5-8.1c2.3-2.3,5.1-4.1,8.4-5.4c3.3-1.3,6.9-2,10.8-2
		c3.9,0,7.5,0.7,10.7,2c3.3,1.3,6.1,3.1,8.5,5.4s4.2,5,5.5,8.1c1.3,3.1,2,6.4,2,10c0,3.6-0.7,6.9-2,10c-1.3,3.1-3.2,5.8-5.5,8.1
		s-5.2,4.1-8.5,5.4c-3.3,1.3-6.9,2-10.7,2c-3.9,0-7.5-0.7-10.8-2c-3.3-1.3-6.1-3.1-8.4-5.4c-2.3-2.3-4.2-5-5.5-8.1
		C169.2,32.4,168.5,29,168.5,25.4z M181.7,25.4c0,1.9,0.4,3.7,1.1,5.3c0.7,1.6,1.7,3,2.9,4.2c1.2,1.2,2.7,2.1,4.3,2.8
		c1.6,0.7,3.4,1,5.2,1c1.8,0,3.6-0.3,5.2-1c1.6-0.7,3.1-1.6,4.3-2.8c1.3-1.2,2.2-2.6,3-4.2c0.7-1.6,1.1-3.4,1.1-5.3
		c0-1.9-0.4-3.7-1.1-5.3c-0.7-1.6-1.7-3-3-4.2c-1.3-1.2-2.7-2.1-4.3-2.8c-1.6-0.7-3.4-1-5.2-1c-1.8,0-3.6,0.3-5.2,1
		c-1.6,0.7-3.1,1.6-4.3,2.8c-1.2,1.2-2.2,2.6-2.9,4.2C182,21.8,181.7,23.5,181.7,25.4z"/>
	<path class="st0" d="M237.8,1.3l8.3,31.1l10.2-31.1h10l10.2,31.1l8.3-31.1H298l-14.4,48.2h-12.8l-9.5-27.9l-9.5,27.9h-12.8
		L224.7,1.3H237.8z"/>
	<path class="st0" d="M323.9,25.4c0-3.6,0.7-6.9,2-10c1.3-3.1,3.2-5.8,5.5-8.1s5.1-4.1,8.4-5.4c3.3-1.3,6.9-2,10.8-2
		c3.9,0,7.5,0.7,10.7,2c3.3,1.3,6.1,3.1,8.5,5.4s4.2,5,5.5,8.1c1.3,3.1,2,6.4,2,10c0,3.6-0.7,6.9-2,10c-1.3,3.1-3.2,5.8-5.5,8.1
		s-5.2,4.1-8.5,5.4c-3.3,1.3-6.9,2-10.7,2c-3.9,0-7.5-0.7-10.8-2c-3.3-1.3-6.1-3.1-8.4-5.4s-4.2-5-5.5-8.1
		C324.5,32.4,323.9,29,323.9,25.4z M337,25.4c0,1.9,0.4,3.7,1.1,5.3c0.7,1.6,1.7,3,2.9,4.2c1.2,1.2,2.7,2.1,4.3,2.8
		c1.6,0.7,3.4,1,5.2,1c1.8,0,3.6-0.3,5.2-1c1.6-0.7,3.1-1.6,4.3-2.8c1.3-1.2,2.2-2.6,3-4.2c0.7-1.6,1.1-3.4,1.1-5.3
		c0-1.9-0.4-3.7-1.1-5.3c-0.7-1.6-1.7-3-3-4.2c-1.3-1.2-2.7-2.1-4.3-2.8c-1.6-0.7-3.4-1-5.2-1c-1.8,0-3.6,0.3-5.2,1
		c-1.6,0.7-3.1,1.6-4.3,2.8c-1.2,1.2-2.2,2.6-2.9,4.2C337.4,21.8,337,23.5,337,25.4z"/>
	<path class="st0" d="M385.9,49.6V1.3h12.5l23.2,29.5V1.3H434v48.2h-12.5l-23.2-29.5v29.5H385.9z"/>
</g>
</svg>
