<?xml version="1.0" encoding="utf-8"?>
<!-- Generator: Adobe Illustrator 24.0.0, SVG Export Plug-In . SVG Version: 6.00 Build 0)  -->
<svg version="1.1" id="Laag_1" xmlns="http://www.w3.org/2000/svg" xmlns:xlink="http://www.w3.org/1999/xlink" x="0px" y="0px"
	 width="149.3px" height="58.3px" viewBox="0 0 149.3 58.3" style="enable-background:new 0 0 149.3 58.3;" xml:space="preserve">
<style type="text/css">
	.st0{fill:#E2E8DB;}
</style>
<g>
	<path class="st0" d="M23.9,49.6l3.6,5c-0.2,0.2-0.4,0.5-0.7,0.8c-0.3,0.3-1.1,0.8-2.2,1.4c-1.2,0.6-2.4,1-3.8,1.2
		c-3,0.4-5.6-0.2-7.9-1.8c-2.3-1.6-3.7-3.9-4.1-6.9L6.8,35.3l-6,0.8l-0.8-6l3-0.4c1-0.1,1.8-0.6,2.4-1.3c0.5-0.7,0.7-1.7,0.6-2.7
		l-0.8-6.1l7.2-1l1.2,9.2l7.5-1l0.9,6.5l-7.5,1L16.3,48c0.1,1,0.6,1.8,1.5,2.4c0.8,0.6,1.8,0.8,2.9,0.7c0.5-0.1,1.1-0.2,1.6-0.5
		c0.6-0.3,1-0.5,1.3-0.7L23.9,49.6z"/>
	<path class="st0" d="M45.6,23.2l1.9-0.2l1,7.8c-0.8-0.1-1.7,0-2.7,0.1c-2.4,0.3-4.3,1.2-5.8,2.8c-1.5,1.5-2.1,3.6-1.7,6.2l2.1,15.4
		l-8,1.1l-4.1-30.5l6.1-0.8l1.5,3.2l1-0.1C39,25.3,41.9,23.7,45.6,23.2z"/>
	<path class="st0" d="M78.6,39.7c0.2,1.7,0.7,2.8,1.3,3.3c0.7,0.6,1.6,0.8,2.8,0.6l0.8,5.9l-1.8,0.2c-3.6,0.5-6.1-0.5-7.5-3
		c-1.6,3.1-4.6,4.9-8.9,5.5c-3.4,0.5-6.2,0-8.4-1.4c-2.2-1.4-3.5-3.4-3.9-6.2c-0.2-1.5-0.1-2.9,0.4-4.2c0.5-1.3,1.2-2.4,2.3-3.3
		c1.1-0.9,2.1-1.7,3.2-2.3c1.1-0.6,2.4-1.2,4-1.7c1.6-0.5,2.9-0.8,3.8-1c0.9-0.2,2.1-0.4,3.4-0.7c-0.5-3.2-2.5-4.6-5.7-4.1
		c-0.8,0.1-1.5,0.3-2.1,0.6c-0.6,0.3-1,0.5-1.3,0.8c-0.3,0.3-0.5,0.6-0.6,0.9c-0.1,0.3-0.2,0.5-0.2,0.7l0,0.3l-7.5,1
		c-0.1-2.8,0.8-5.2,2.7-7.2c1.9-2,4.7-3.2,8.2-3.7c3.7-0.5,6.8,0.1,9.3,1.9c2.4,1.7,4,4.7,4.5,9L78.6,39.7z M60.6,43.4
		c0.2,1.5,1.2,2.3,2.9,2.5c2,0.2,3.8-0.4,5.4-2c1.5-1.5,2.2-3.4,2-5.8l-0.1-0.6c-1.1,0.3-2,0.5-2.7,0.7c-0.6,0.2-1.4,0.4-2.4,0.7
		c-1,0.3-1.7,0.6-2.2,0.9c-0.5,0.3-1.1,0.6-1.6,1c-0.5,0.4-0.9,0.8-1.1,1.2C60.6,42.4,60.5,42.9,60.6,43.4z"/>
	<path class="st0" d="M114.8,34.3c-0.4,3.6-1.9,6.6-4.3,8.9c-2.4,2.3-5.3,3.7-8.6,4.1c-4.2,0.6-8-0.4-11.3-3
		c-3.3-2.6-5.3-6.1-5.9-10.5c-0.6-4.5,0.4-8.4,3-11.8c2.6-3.4,6.1-5.3,10.3-5.9c3.5-0.5,6.6,0.2,9.5,1.9c2.9,1.7,5,4.3,6.3,7.7
		l-8.1,1.1c-1.7-2.5-4-3.6-6.9-3.2c-2.1,0.3-3.8,1.3-5,3c-1.2,1.7-1.7,3.8-1.4,6.2c0.3,2.4,1.3,4.2,3,5.6c1.7,1.4,3.6,1.9,5.7,1.6
		c2.6-0.4,4.5-1.8,5.6-4.5L114.8,34.3z"/>
	<path class="st0" d="M145.2,10.1l-10.1,14.6l14.2,15.9l-8.6,1.1l-9.9-10.9l-2.6,3.7l-0.2,0l1.2,8.8l-7.5,1L116,1l7.5-1l3.1,23.2
		l1.2-0.2l8.2-11.7L145.2,10.1z"/>
</g>
</svg>
