<?xml version="1.0" encoding="utf-8"?>
<!-- Generator: Adobe Illustrator 23.0.2, SVG Export Plug-In . SVG Version: 6.00 Build 0)  -->
<svg version="1.1" id="Laag_1" xmlns="http://www.w3.org/2000/svg" xmlns:xlink="http://www.w3.org/1999/xlink" x="0px" y="0px"
	 width="172.4px" height="8.2px" viewBox="0 0 172.4 8.2" style="enable-background:new 0 0 172.4 8.2;" xml:space="preserve">
<style type="text/css">
	.st0{fill:#FFFFFF;}
</style>
<g>
	<path class="st0" d="M0,3.4c0-1.7,1.3-3.2,3.2-3.2s3.2,1.5,3.2,3.2S5.2,6.6,3.2,6.6S0,5.1,0,3.4z M6.2,3.4c0-1.6-1.1-3-3-3
		s-3,1.4-3,3s1.1,3,3,3S6.2,5,6.2,3.4z M3.2,4.6c0.5,0,0.8-0.3,0.8-0.7h0.4C4.4,4.5,3.9,5,3.2,5C2.4,5,1.9,4.4,1.9,3.6V3.1
		c0-0.7,0.4-1.4,1.3-1.4c0.7,0,1.2,0.5,1.2,1.1H4.1C4,2.4,3.7,2.1,3.2,2.1c-0.6,0-0.9,0.4-0.9,1v0.5C2.3,4.2,2.6,4.6,3.2,4.6z"/>
	<path class="st0" d="M12.2,0.3c1.6,0,2.5,1,2.5,2.4v1.4c0,1.4-0.9,2.4-2.5,2.4H9.8V0.3H12.2z M13.9,4.1V2.7c0-1.1-0.6-1.8-1.9-1.8
		h-1.6v5.1h1.6C13.3,5.9,13.9,5.2,13.9,4.1z"/>
	<path class="st0" d="M15.7,4.6V3.9c0-1.2,0.7-2.1,2-2.1c1.3,0,1.9,0.9,1.9,2v0.7h-3.3v0.2c0,0.8,0.4,1.4,1.4,1.4
		c0.7,0,1.1-0.4,1.3-0.9h0.6c-0.2,0.8-0.9,1.4-1.9,1.4C16.6,6.6,15.7,5.9,15.7,4.6z M16.4,4H19V3.8c0-0.8-0.4-1.4-1.3-1.4
		c-1,0-1.3,0.6-1.3,1.5V4z"/>
	<path class="st0" d="M20.7,5.2L20.7,5.2l0.6,0v0c0,0.6,0.5,0.9,1.3,0.9c0.7,0,1.2-0.3,1.2-0.9c0-0.3-0.2-0.6-0.6-0.6l-1.4-0.3
		c-0.7-0.2-1.1-0.6-1.1-1.2c0-0.9,0.7-1.3,1.7-1.3c1,0,1.7,0.6,1.7,1.4v0h-0.6v0c0-0.6-0.4-0.9-1.1-0.9c-0.6,0-1.1,0.3-1.1,0.8
		c0,0.3,0.2,0.5,0.5,0.6L23.3,4c0.7,0.2,1.1,0.5,1.1,1.2c0,0.8-0.8,1.4-1.9,1.4C21.5,6.6,20.7,6.1,20.7,5.2z"/>
	<path class="st0" d="M26,0.3c0.3,0,0.4,0.2,0.4,0.4c0,0.2-0.2,0.4-0.4,0.4c-0.3,0-0.4-0.2-0.4-0.4C25.5,0.5,25.7,0.3,26,0.3z
		 M25.6,1.9h0.7v4.6h-0.7V1.9z"/>
	<path class="st0" d="M27.6,7h0.7c0.2,0.4,0.7,0.6,1.3,0.6c0.8,0,1.3-0.4,1.3-1.1v-1c-0.1,0.4-0.8,0.9-1.5,0.9
		c-1.2,0-1.9-0.8-1.9-1.9V3.7c0-1,0.7-1.9,1.9-1.9c0.9,0,1.4,0.5,1.6,0.9V1.9h0.7v4.6c0,0.9-0.9,1.7-2,1.7C28.7,8.2,27.9,7.7,27.6,7
		z M30.9,4.4V3.8c0-0.8-0.6-1.4-1.4-1.4c-0.9,0-1.4,0.5-1.4,1.4v0.6c0,0.9,0.5,1.4,1.3,1.4C30.3,5.8,30.9,5.2,30.9,4.4z"/>
	<path class="st0" d="M33.1,1.9h0.6v0.8c0.2-0.5,0.7-0.9,1.5-0.9c1,0,1.7,0.7,1.7,1.8v2.9h-0.7V3.7c0-0.8-0.3-1.3-1.2-1.3
		c-0.7,0-1.3,0.5-1.3,1.4v2.7h-0.7V1.9z"/>
	<path class="st0" d="M38.1,4.6V3.9c0-1.2,0.7-2.1,2-2.1c1.3,0,1.9,0.9,1.9,2v0.7h-3.3v0.2c0,0.8,0.4,1.4,1.4,1.4
		c0.7,0,1.1-0.4,1.3-0.9H42C41.8,6,41,6.6,40.1,6.6C38.9,6.6,38.1,5.9,38.1,4.6z M38.7,4h2.6V3.8c0-0.8-0.4-1.4-1.3-1.4
		c-1,0-1.3,0.6-1.3,1.5V4z"/>
	<path class="st0" d="M47.1,0v6.5h-0.6V5.8c-0.2,0.4-0.8,0.8-1.5,0.8c-1.2,0-1.9-0.9-1.9-2V3.9c0-1.2,0.7-2,1.9-2
		c0.7,0,1.2,0.3,1.5,0.8V0H47.1z M43.7,4.5c0,0.8,0.4,1.5,1.3,1.5c0.9,0,1.4-0.7,1.4-1.6V3.9c0-0.9-0.6-1.5-1.4-1.5
		c-0.9,0-1.3,0.7-1.3,1.5V4.5z"/>
	<path class="st0" d="M53.6,6.5V5.9c-0.2,0.3-0.8,0.7-1.6,0.7c-1.1,0-1.7-0.6-1.7-1.4c0-0.9,0.7-1.4,1.8-1.4c0.7,0,1.2,0.3,1.5,0.6
		V3.5c0-0.6-0.4-1.1-1.1-1.1c-0.6,0-1,0.3-1.1,0.7h-0.6c0.2-0.8,0.9-1.2,1.8-1.2c1.1,0,1.8,0.7,1.8,1.6v3H53.6z M53.6,5.2
		c0-0.6-0.7-1-1.4-1c-0.8,0-1.3,0.4-1.3,1c0,0.6,0.5,1,1.2,1C52.9,6.2,53.6,5.8,53.6,5.2z"/>
	<path class="st0" d="M55.6,1.9h0.6v0.8c0.2-0.5,0.7-0.9,1.5-0.9c1,0,1.7,0.7,1.7,1.8v2.9h-0.7V3.7c0-0.8-0.3-1.3-1.2-1.3
		c-0.7,0-1.3,0.5-1.3,1.4v2.7h-0.7V1.9z"/>
	<path class="st0" d="M64.7,0v6.5h-0.6V5.8c-0.2,0.4-0.8,0.8-1.5,0.8c-1.2,0-1.9-0.9-1.9-2V3.9c0-1.2,0.7-2,1.9-2
		c0.7,0,1.2,0.3,1.5,0.8V0H64.7z M61.3,4.5c0,0.8,0.4,1.5,1.3,1.5c0.9,0,1.4-0.7,1.4-1.6V3.9c0-0.9-0.6-1.5-1.4-1.5
		c-0.9,0-1.3,0.7-1.3,1.5V4.5z"/>
	<path class="st0" d="M68.1,8.1V1.9h0.6v0.7c0.2-0.4,0.8-0.8,1.5-0.8c1.2,0,1.9,0.9,1.9,2v0.7c0,1.2-0.7,2-1.9,2
		c-0.7,0-1.2-0.3-1.5-0.8v2.2H68.1z M71.5,3.9c0-0.8-0.4-1.5-1.3-1.5c-0.9,0-1.4,0.7-1.4,1.6v0.6c0,0.9,0.6,1.5,1.4,1.5
		c0.9,0,1.3-0.7,1.3-1.5V3.9z"/>
	<path class="st0" d="M73.4,0h0.7v2.6c0.3-0.5,0.7-0.8,1.5-0.8c1,0,1.7,0.7,1.7,1.8v2.9h-0.7V3.7c0-0.8-0.3-1.3-1.2-1.3
		c-0.7,0-1.3,0.5-1.3,1.4v2.7h-0.7V0z"/>
	<path class="st0" d="M78.4,4.6V3.8c0-1.1,0.7-2,2-2c1.3,0,2,0.9,2,2v0.7c0,1.1-0.7,2-2,2C79.2,6.6,78.4,5.7,78.4,4.6z M80.5,2.4
		c-0.9,0-1.4,0.6-1.4,1.5v0.7c0,0.9,0.5,1.5,1.4,1.5c0.9,0,1.4-0.6,1.4-1.5V3.9C81.9,3,81.4,2.4,80.5,2.4z"/>
	<path class="st0" d="M85.3,6.5c-0.9,0-1.2-0.4-1.2-1.2V2.5h-0.8V1.9H84V0.6h0.7v1.3h1.2v0.6h-1.2v2.8c0,0.5,0.2,0.7,0.7,0.7h0.5
		v0.6H85.3z"/>
	<path class="st0" d="M86.7,4.6V3.8c0-1.1,0.7-2,2-2s2,0.9,2,2v0.7c0,1.1-0.7,2-2,2C87.4,6.6,86.7,5.7,86.7,4.6z M88.7,2.4
		c-0.9,0-1.4,0.6-1.4,1.5v0.7c0,0.9,0.5,1.5,1.4,1.5s1.4-0.6,1.4-1.5V3.9C90.1,3,89.6,2.4,88.7,2.4z"/>
	<path class="st0" d="M91.8,7h0.7c0.2,0.4,0.7,0.6,1.3,0.6c0.8,0,1.3-0.4,1.3-1.1v-1c-0.1,0.4-0.8,0.9-1.5,0.9
		c-1.2,0-1.9-0.8-1.9-1.9V3.7c0-1,0.7-1.9,1.9-1.9c0.9,0,1.4,0.5,1.6,0.9V1.9h0.7v4.6c0,0.9-0.9,1.7-2,1.7C92.9,8.2,92.1,7.7,91.8,7
		z M95.2,4.4V3.8c0-0.8-0.6-1.4-1.4-1.4c-0.9,0-1.4,0.5-1.4,1.4v0.6c0,0.9,0.5,1.4,1.3,1.4C94.5,5.8,95.2,5.2,95.2,4.4z"/>
	<path class="st0" d="M97.3,1.9h0.6V3c0.2-0.7,0.7-1.1,1.5-1.1h0.1v0.6h-0.1c-0.9,0-1.4,0.6-1.4,1.7v2.2h-0.7V1.9z"/>
	<path class="st0" d="M103.3,6.5V5.9c-0.2,0.3-0.8,0.7-1.6,0.7c-1.1,0-1.7-0.6-1.7-1.4c0-0.9,0.7-1.4,1.8-1.4c0.7,0,1.2,0.3,1.5,0.6
		V3.5c0-0.6-0.4-1.1-1.1-1.1c-0.6,0-1,0.3-1.1,0.7h-0.6c0.2-0.8,0.9-1.2,1.8-1.2c1.1,0,1.8,0.7,1.8,1.6v3H103.3z M103.2,5.2
		c0-0.6-0.7-1-1.4-1c-0.8,0-1.3,0.4-1.3,1c0,0.6,0.5,1,1.2,1C102.5,6.2,103.2,5.8,103.2,5.2z"/>
	<path class="st0" d="M105.3,8.1V1.9h0.6v0.7c0.2-0.4,0.8-0.8,1.5-0.8c1.2,0,1.9,0.9,1.9,2v0.7c0,1.2-0.7,2-1.9,2
		c-0.7,0-1.2-0.3-1.5-0.8v2.2H105.3z M108.7,3.9c0-0.8-0.4-1.5-1.3-1.5c-0.9,0-1.4,0.7-1.4,1.6v0.6c0,0.9,0.6,1.5,1.4,1.5
		c0.9,0,1.3-0.7,1.3-1.5V3.9z"/>
	<path class="st0" d="M110.6,0h0.7v2.6c0.3-0.5,0.7-0.8,1.5-0.8c1,0,1.7,0.7,1.7,1.8v2.9h-0.7V3.7c0-0.8-0.3-1.3-1.2-1.3
		c-0.7,0-1.3,0.5-1.3,1.4v2.7h-0.7V0z"/>
	<path class="st0" d="M115.6,4.6V3.9c0-1.2,0.7-2.1,2-2.1c1.3,0,1.9,0.9,1.9,2v0.7h-3.3v0.2c0,0.8,0.4,1.4,1.4,1.4
		c0.7,0,1.1-0.4,1.3-0.9h0.6c-0.2,0.8-0.9,1.4-1.9,1.4C116.4,6.6,115.6,5.9,115.6,4.6z M116.3,4h2.6V3.8c0-0.8-0.4-1.4-1.3-1.4
		c-1,0-1.3,0.6-1.3,1.5V4z"/>
	<path class="st0" d="M124.6,0v6.5H124V5.8c-0.2,0.4-0.8,0.8-1.5,0.8c-1.2,0-1.9-0.9-1.9-2V3.9c0-1.2,0.7-2,1.9-2
		c0.7,0,1.2,0.3,1.5,0.8V0H124.6z M121.2,4.5c0,0.8,0.4,1.5,1.3,1.5c0.9,0,1.4-0.7,1.4-1.6V3.9c0-0.9-0.6-1.5-1.4-1.5
		c-0.9,0-1.3,0.7-1.3,1.5V4.5z"/>
	<path class="st0" d="M128.7,0v2.6c0.3-0.5,0.8-0.8,1.5-0.8c1.1,0,1.9,0.9,1.9,2v0.7c0,1.1-0.7,2-1.9,2c-0.8,0-1.3-0.4-1.5-0.8v0.7
		H128V0H128.7z M131.4,3.9c0-0.8-0.5-1.5-1.3-1.5c-0.8,0-1.4,0.6-1.4,1.5v0.6c0,0.9,0.5,1.6,1.4,1.6c0.9,0,1.3-0.7,1.3-1.5V3.9z"/>
	<path class="st0" d="M133.9,8.1l0.6-1.6l-1.7-4.6h0.7l1.4,3.9l1.3-3.9h0.7l-1.7,4.6l-0.6,1.6H133.9z"/>
	<path class="st0" d="M145.3,6.5h-0.7V1.6L142.9,5h-0.7l-1.7-3.4v4.9h-0.7V0.3h0.7l2.1,4.1l2.1-4.1h0.7V6.5z"/>
	<path class="st0" d="M147.2,0.3c0.3,0,0.4,0.2,0.4,0.4c0,0.2-0.2,0.4-0.4,0.4s-0.4-0.2-0.4-0.4C146.8,0.5,146.9,0.3,147.2,0.3z
		 M146.8,1.9h0.7v4.6h-0.7V1.9z"/>
	<path class="st0" d="M148.8,4.6V3.8c0-1.2,0.8-2,2-2c1.1,0,1.9,0.7,2,1.7h-0.6c-0.1-0.6-0.5-1.2-1.3-1.2c-0.9,0-1.4,0.6-1.4,1.5
		v0.8c0,0.9,0.4,1.5,1.4,1.5c0.9,0,1.2-0.6,1.3-1.2h0.6c-0.1,1-0.8,1.7-2,1.7C149.5,6.6,148.8,5.8,148.8,4.6z"/>
	<path class="st0" d="M154,0h0.7v2.6c0.3-0.5,0.7-0.8,1.5-0.8c1,0,1.7,0.7,1.7,1.8v2.9h-0.7V3.7c0-0.8-0.3-1.3-1.2-1.3
		c-0.7,0-1.3,0.5-1.3,1.4v2.7H154V0z"/>
	<path class="st0" d="M159,4.6V3.9c0-1.2,0.7-2.1,2-2.1c1.3,0,1.9,0.9,1.9,2v0.7h-3.3v0.2c0,0.8,0.4,1.4,1.4,1.4
		c0.7,0,1.1-0.4,1.3-0.9h0.6C162.7,6,162,6.6,161,6.6C159.8,6.6,159,5.9,159,4.6z M159.7,4h2.6V3.8c0-0.8-0.4-1.4-1.3-1.4
		c-1,0-1.3,0.6-1.3,1.5V4z"/>
	<path class="st0" d="M164.2,0h0.7v6.5h-0.7V0z"/>
	<path class="st0" d="M166.7,0.3c0.3,0,0.4,0.2,0.4,0.4c0,0.2-0.2,0.4-0.4,0.4c-0.3,0-0.4-0.2-0.4-0.4
		C166.3,0.5,166.5,0.3,166.7,0.3z M166.4,1.9h0.7v4.6h-0.7V1.9z"/>
	<path class="st0" d="M168.6,1.9h0.6v0.8c0.2-0.5,0.7-0.9,1.5-0.9c1,0,1.7,0.7,1.7,1.8v2.9h-0.7V3.7c0-0.8-0.3-1.3-1.2-1.3
		c-0.7,0-1.3,0.5-1.3,1.4v2.7h-0.7V1.9z"/>
</g>
</svg>
