<?xml version="1.0" encoding="utf-8"?>
<!-- Generator: Adobe Illustrator 24.0.0, SVG Export Plug-In . SVG Version: 6.00 Build 0)  -->
<svg version="1.1" id="Laag_1" xmlns="http://www.w3.org/2000/svg" xmlns:xlink="http://www.w3.org/1999/xlink" x="0px" y="0px"
	 width="269px" height="96.9px" viewBox="0 0 269 96.9" style="enable-background:new 0 0 269 96.9;" xml:space="preserve">
<style type="text/css">
	.st0{fill:#FFFFFF;}
</style>
<g>
	<path class="st0" d="M42.6,13.9c0,3.4-0.8,5.9-2.5,7.7c-1.6,1.8-4.1,2.6-7.2,2.6c-3.1,0-5.5-0.9-7.2-2.6c-1.7-1.8-2.5-4.3-2.5-7.7
		c0-3.3,0.8-5.9,2.5-7.6c1.7-1.8,4.1-2.6,7.3-2.6c3.2,0,5.6,0.9,7.2,2.6S42.6,10.5,42.6,13.9z M28.8,13.9c0,3.9,1.3,5.8,4,5.8
		c1.4,0,2.4-0.5,3-1.4c0.7-0.9,1-2.4,1-4.4c0-2-0.3-3.5-1-4.4s-1.7-1.4-3-1.4C30.2,8.1,28.8,10,28.8,13.9z"/>
	<path class="st0" d="M65.2,23.9h-7.1L50.8,9.9h-0.1c0.2,2.2,0.3,3.9,0.3,5.1v9h-4.8V4h7.1l7.3,13.9h0.1c-0.1-2-0.2-3.6-0.2-4.9V4
		h4.8V23.9z"/>
	<path class="st0" d="M86.5,13.5c0,3.3-0.9,5.9-2.8,7.7c-1.8,1.8-4.4,2.7-7.7,2.7h-6.5V4h6.9c3.2,0,5.7,0.8,7.4,2.5
		C85.6,8.1,86.5,10.4,86.5,13.5z M80.9,13.7c0-1.8-0.4-3.2-1.1-4.1S78,8.3,76.5,8.3h-1.6v11.2h1.2c1.6,0,2.8-0.5,3.6-1.4
		S80.9,15.7,80.9,13.7z"/>
	<path class="st0" d="M102,23.9H90.1V4H102v4.3h-6.5v3.1h6v4.3h-6v3.8h6.5V23.9z"/>
	<path class="st0" d="M110.9,16.7v7.3h-5.4V4h6.5c5.4,0,8.1,2,8.1,5.9c0,2.3-1.1,4.1-3.4,5.4l5.8,8.7h-6.1l-4.2-7.3H110.9z
		 M110.9,12.6h1c1.9,0,2.8-0.8,2.8-2.5c0-1.4-0.9-2.1-2.8-2.1h-1.1V12.6z"/>
	<path class="st0" d="M138.7,23.9h-15.6v-3.3l8.7-12.3h-8.4V4h15.1v3.3l-8.7,12.3h8.9V23.9z"/>
	<path class="st0" d="M160.2,13.9c0,3.4-0.8,5.9-2.5,7.7c-1.7,1.8-4.1,2.6-7.2,2.6c-3.1,0-5.5-0.9-7.2-2.6s-2.5-4.3-2.5-7.7
		c0-3.3,0.8-5.9,2.5-7.6c1.7-1.8,4.1-2.6,7.3-2.6c3.2,0,5.6,0.9,7.2,2.6S160.2,10.5,160.2,13.9z M146.5,13.9c0,3.9,1.3,5.8,4,5.8
		c1.4,0,2.4-0.5,3-1.4s1-2.4,1-4.4c0-2-0.3-3.5-1-4.4s-1.7-1.4-3-1.4C147.8,8.1,146.5,10,146.5,13.9z"/>
	<path class="st0" d="M175.7,23.9h-11.9V4h11.9v4.3h-6.5v3.1h6v4.3h-6v3.8h6.5V23.9z"/>
	<path class="st0" d="M196.3,23.9h-6.1l-4-7.6l-1.6,1v6.7h-5.4V4h5.4v8.7c0.3-0.5,0.8-1.4,1.7-2.6l4.2-6.1h5.9l-6.3,9L196.3,23.9z"
		/>
	<path class="st0" d="M217.6,23.9h-11.9V4h11.9v4.3h-6.5v3.1h6v4.3h-6v3.8h6.5V23.9z"/>
	<path class="st0" d="M240.1,23.9H233l-7.3-14.1h-0.1c0.2,2.2,0.3,3.9,0.3,5.1v9h-4.8V4h7.1l7.3,13.9h0.1c-0.1-2-0.2-3.6-0.2-4.9V4
		h4.8V23.9z"/>
</g>
<g>
	<path class="st0" d="M20.7,47.1c0,3.3-0.9,5.9-2.8,7.7c-1.8,1.8-4.4,2.7-7.7,2.7H3.7v-20h6.9c3.2,0,5.7,0.8,7.4,2.5
		C19.8,41.7,20.7,44,20.7,47.1z M15.1,47.3c0-1.8-0.4-3.2-1.1-4.1s-1.8-1.3-3.3-1.3H9.1v11.2h1.2c1.6,0,2.8-0.5,3.6-1.4
		C14.7,50.7,15.1,49.3,15.1,47.3z"/>
	<path class="st0" d="M43,47.5c0,3.4-0.8,5.9-2.5,7.7c-1.6,1.8-4.1,2.6-7.2,2.6c-3.1,0-5.5-0.9-7.2-2.6c-1.7-1.8-2.5-4.3-2.5-7.7
		c0-3.3,0.8-5.9,2.5-7.6c1.7-1.8,4.1-2.6,7.3-2.6c3.2,0,5.6,0.9,7.2,2.6S43,44.1,43,47.5z M29.2,47.5c0,3.9,1.3,5.8,4,5.8
		c1.4,0,2.4-0.5,3-1.4c0.7-0.9,1-2.4,1-4.4c0-2-0.3-3.5-1-4.4s-1.7-1.4-3-1.4C30.6,41.7,29.2,43.6,29.2,47.5z"/>
	<path class="st0" d="M58.4,57.5H46.6v-20h11.9v4.3H52V45h6v4.3h-6v3.8h6.5V57.5z"/>
	<path class="st0" d="M77.9,57.5l-4.1-14.4h-0.1c0.2,2.5,0.3,4.4,0.3,5.7v8.7h-4.8v-20h7.2l4.2,14.2h0.1l4.1-14.2H92v20h-5v-8.8
		c0-0.5,0-1,0-1.5s0.1-1.9,0.2-4.1h-0.1l-4,14.4H77.9z"/>
	<path class="st0" d="M108.2,57.5H96.3v-20h11.9v4.3h-6.5V45h6v4.3h-6v3.8h6.5V57.5z"/>
	<path class="st0" d="M120.5,57.5h-5.4V42h-4.9v-4.4h15.1V42h-4.9V57.5z"/>
	<path class="st0" d="M152.6,57.5h-5.4v-8.1h-6.3v8.1h-5.4v-20h5.4V45h6.3v-7.4h5.4V57.5z"/>
	<path class="st0" d="M168.8,57.5h-11.9v-20h11.9v4.3h-6.5V45h6v4.3h-6v3.8h6.5V57.5z"/>
	<path class="st0" d="M181.1,57.5h-5.4V42h-4.9v-4.4H186V42h-4.9V57.5z"/>
	<path class="st0" d="M213.2,57.5h-5.4v-8.1h-6.3v8.1h-5.4v-20h5.4V45h6.3v-7.4h5.4V57.5z"/>
	<path class="st0" d="M229.4,57.5h-11.9v-20h11.9v4.3H223V45h6v4.3h-6v3.8h6.5V57.5z"/>
	<path class="st0" d="M232.9,57.5v-20h5.4v15.6h7.7v4.4H232.9z"/>
	<path class="st0" d="M261.1,57.5h-11.9v-20h11.9v4.3h-6.5V45h6v4.3h-6v3.8h6.5V57.5z"/>
</g>
<g>
	<path class="st0" d="M95,79.4h8.6v10.8c-2.3,0.8-4.9,1.2-7.7,1.2c-3.1,0-5.5-0.9-7.1-2.7c-1.7-1.8-2.5-4.3-2.5-7.6
		c0-3.2,0.9-5.7,2.8-7.5c1.8-1.8,4.4-2.7,7.7-2.7c1.3,0,2.4,0.1,3.6,0.4c1.1,0.2,2.1,0.5,2.9,0.9l-1.7,4.2c-1.4-0.7-3-1.1-4.7-1.1
		c-1.6,0-2.8,0.5-3.7,1.5s-1.3,2.5-1.3,4.4c0,1.9,0.4,3.3,1.2,4.3c0.8,1,1.9,1.5,3.4,1.5c0.8,0,1.5-0.1,2.2-0.2v-3.1H95V79.4z"/>
	<path class="st0" d="M119.5,91.1h-11.9v-20h11.9v4.3h-6.5v3.1h6V83h-6v3.8h6.5V91.1z"/>
	<path class="st0" d="M137.3,91.1h-15.6v-3.3l8.7-12.3h-8.4v-4.4h15.1v3.3l-8.7,12.3h8.9V91.1z"/>
	<path class="st0" d="M140.1,91.1v-20h5.4v20H140.1z"/>
	<path class="st0" d="M168.9,91.1h-7.1l-7.3-14.1h-0.1c0.2,2.2,0.3,3.9,0.3,5.1v9h-4.8v-20h7.1l7.3,13.9h0.1c-0.1-2-0.2-3.6-0.2-4.9
		v-9h4.8V91.1z"/>
	<path class="st0" d="M177.4,84.1h-4.5l-0.7-12.9h5.9L177.4,84.1z M172.2,88.9c0-0.8,0.2-1.5,0.7-1.9c0.5-0.5,1.2-0.7,2.1-0.7
		c0.9,0,1.6,0.2,2.1,0.7c0.5,0.5,0.7,1.1,0.7,1.9c0,0.8-0.2,1.5-0.7,1.9c-0.5,0.5-1.2,0.7-2.1,0.7c-0.9,0-1.6-0.2-2.1-0.7
		C172.5,90.3,172.2,89.7,172.2,88.9z"/>
</g>
</svg>
