<?xml version="1.0" encoding="utf-8"?>
<!-- Generator: Adobe Illustrator 24.3.0, SVG Export Plug-In . SVG Version: 6.00 Build 0)  -->
<svg version="1.1" id="Laag_1" xmlns="http://www.w3.org/2000/svg" xmlns:xlink="http://www.w3.org/1999/xlink" x="0px" y="0px"
	 width="309.7px" height="69.9px" viewBox="0 0 309.7 69.9" style="enable-background:new 0 0 309.7 69.9;" xml:space="preserve">
<g>
	<g>
		<path d="M22.4,15.4c0,7.5-4.2,11.3-10.7,11.3c-6.5,0-10.6-3.8-10.6-11.1V1.1h4.4v14.3c0,4.7,2.4,7.2,6.3,7.2c3.9,0,6.3-2.4,6.3-7
			V1.1h4.4V15.4z"/>
		<path d="M32.3,26.3H28v-19h4.3v3c1.2-1.8,3-3.3,5.9-3.3c4.2,0,6.7,2.9,6.7,7.3v12.1h-4.3V15.5c0-3-1.5-4.6-4-4.6
			c-2.5,0-4.2,1.8-4.2,4.7V26.3z"/>
		<path d="M51.7,6h-1.8V1.1h4.7v4.2c0,4-1.9,5.7-5.5,6l-0.5-1.9C50.9,9,51.9,7.9,51.7,6z"/>
		<path d="M70.4,26.3v-2.3c-1.3,1.5-3.2,2.7-6.1,2.7c-3.6,0-6.7-2.1-6.7-5.9v-0.1c0-4.1,3.2-6.1,7.6-6.1c2.3,0,3.7,0.3,5.2,0.8v-0.5
			c0-2.6-1.6-4.1-4.6-4.1c-2.1,0-3.7,0.5-5.4,1.2l-1.2-3.5C61.3,7.6,63.3,7,66.4,7c5.5,0,8.3,3,8.3,8v11.3H70.4z M70.5,18.2
			c-1.1-0.4-2.6-0.8-4.3-0.8c-2.7,0-4.3,1.1-4.3,3.1v0.1c0,1.8,1.6,2.8,3.6,2.8c2.8,0,5-1.6,5-4V18.2z"/>
		<path d="M101.7,6.9c4.1,0,6.6,2.6,6.6,7.3v12.1H104V15.5c0-3-1.4-4.6-3.8-4.6c-2.3,0-4,1.7-4,4.7v10.7h-4.3V15.4
			c0-3-1.4-4.6-3.8-4.6c-2.4,0-4,1.8-4,4.8v10.7h-4.3v-19H84v2.9c1.2-1.7,2.8-3.3,5.7-3.3c2.7,0,4.6,1.3,5.6,3.3
			C96.9,8.2,98.9,6.9,101.7,6.9z"/>
		<path d="M113.6,4.4V0.2h4.6v4.1H113.6z M113.8,26.3v-19h4.3v19H113.8z"/>
		<path d="M132.4,26.7c-5.6,0-9.7-4.4-9.7-9.9c0-5.4,4.1-10,9.7-10c3.6,0,5.8,1.3,7.5,3.3l-2.7,2.9c-1.3-1.4-2.7-2.4-4.9-2.4
			c-3.1,0-5.4,2.7-5.4,6.1c0,3.4,2.3,6.2,5.6,6.2c2,0,3.5-1,4.9-2.4l2.6,2.6C138.2,25.2,136,26.7,132.4,26.7z"/>
		<path d="M144.1,4.4V0.2h4.6v4.1H144.1z M144.3,26.3v-19h4.3v19H144.3z"/>
		<path d="M153.7,10.8V7.3h15.9v3l-10.8,12.5h10.8v3.6h-16.3v-3l10.8-12.5H153.7z"/>
		<path d="M174.2,4.4V0.2h4.6v4.1H174.2z M174.3,26.3v-19h4.3v19H174.3z"/>
		<path d="M195.8,26.3v-2.3c-1.3,1.5-3.2,2.7-6.1,2.7c-3.6,0-6.7-2.1-6.7-5.9v-0.1c0-4.1,3.2-6.1,7.6-6.1c2.3,0,3.7,0.3,5.2,0.8
			v-0.5c0-2.6-1.6-4.1-4.6-4.1c-2.1,0-3.7,0.5-5.4,1.2l-1.2-3.5c2.1-0.9,4.1-1.6,7.1-1.6c5.5,0,8.3,3,8.3,8v11.3H195.8z M195.9,18.2
			c-1.1-0.4-2.6-0.8-4.3-0.8c-2.7,0-4.3,1.1-4.3,3.1v0.1c0,1.8,1.6,2.8,3.6,2.8c2.8,0,5-1.6,5-4V18.2z"/>
		<path d="M216.1,26.3V0h4.3v26.3H216.1z"/>
		<path d="M238.3,7.3h4.3v19h-4.3v-3c-1.2,1.8-3,3.3-5.9,3.3c-4.2,0-6.7-2.9-6.7-7.3V7.3h4.3v10.8c0,3,1.5,4.6,4,4.6
			c2.5,0,4.2-1.8,4.2-4.7V7.3z"/>
		<path d="M252.3,26.3H248v-19h4.3v3c1.2-1.8,3-3.3,5.9-3.3c4.2,0,6.7,2.9,6.7,7.3v12.1h-4.3V15.5c0-3-1.5-4.6-4-4.6
			c-2.5,0-4.2,1.8-4.2,4.7V26.3z"/>
		<path d="M278.4,32.1c-3.1,0-6-0.8-8.4-2.3l1.6-3.3c2,1.3,4.1,2,6.7,2c3.8,0,5.9-2,5.9-5.8v-1.5c-1.6,2.1-3.5,3.5-6.6,3.5
			c-4.4,0-8.5-3.3-8.5-8.9c0-5.7,4.2-9,8.5-9c3.2,0,5.1,1.5,6.6,3.2V7.3h4.3v15.1C288.5,29.1,284.9,32.1,278.4,32.1z M278.8,10.5
			c-3,0-5.3,2.1-5.3,5.3s2.4,5.3,5.3,5.3c3,0,5.5-2.1,5.5-5.3C284.3,12.6,281.8,10.5,278.8,10.5z"/>
		<path d="M305.4,26.3v-2.3c-1.3,1.5-3.2,2.7-6.1,2.7c-3.6,0-6.7-2.1-6.7-5.9v-0.1c0-4.1,3.2-6.1,7.6-6.1c2.3,0,3.7,0.3,5.2,0.8
			v-0.5c0-2.6-1.6-4.1-4.6-4.1c-2.1,0-3.7,0.5-5.4,1.2l-1.2-3.5c2.1-0.9,4.1-1.6,7.1-1.6c5.5,0,8.3,3,8.3,8v11.3H305.4z M305.5,18.2
			c-1.1-0.4-2.6-0.8-4.3-0.8c-2.7,0-4.3,1.1-4.3,3.1v0.1c0,1.8,1.6,2.8,3.6,2.8c2.8,0,5-1.6,5-4V18.2z"/>
		<path d="M2.4,44.3h14.9v3.9H6.2l-0.4,5.9c1.2-0.4,2.3-0.7,3.9-0.7c4.9,0,8.6,2.6,8.6,8c0,5.2-3.7,8.6-9.2,8.6
			c-3.8,0-6.8-1.5-9.1-3.9l2.7-3.2c2,1.9,4.1,3,6.4,3c3,0,4.9-1.7,4.9-4.4c0-2.6-2.1-4.2-5.2-4.2c-1.8,0-3.3,0.5-4.6,1.1l-2.6-1.8
			L2.4,44.3z"/>
		<path d="M33.3,69.9c-6.5,0-10.8-5.8-10.8-13c0-7.2,4.3-13.1,10.9-13.1c6.5,0,10.8,5.8,10.8,13C44.2,64.1,39.8,69.9,33.3,69.9z
			 M33.3,47.8c-3.9,0-6.3,4-6.3,9c0,5,2.5,9.1,6.4,9.1s6.3-4,6.3-9C39.7,51.9,37.2,47.8,33.3,47.8z"/>
		<path d="M59,69.9c-6.5,0-10.8-5.8-10.8-13c0-7.2,4.3-13.1,10.9-13.1c6.5,0,10.8,5.8,10.8,13C69.9,64.1,65.6,69.9,59,69.9z
			 M59,47.8c-3.9,0-6.3,4-6.3,9c0,5,2.5,9.1,6.4,9.1s6.3-4,6.3-9C65.4,51.9,62.9,47.8,59,47.8z"/>
		<path d="M84.8,69.9c-6.5,0-10.8-5.8-10.8-13c0-7.2,4.3-13.1,10.9-13.1c6.5,0,10.8,5.8,10.8,13C95.7,64.1,91.3,69.9,84.8,69.9z
			 M84.8,47.8c-3.9,0-6.3,4-6.3,9c0,5,2.5,9.1,6.4,9.1s6.3-4,6.3-9C91.2,51.9,88.7,47.8,84.8,47.8z"/>
		<path d="M122.6,69.5v-2.3c-1.3,1.5-3.2,2.7-6.1,2.7c-3.6,0-6.7-2.1-6.7-5.9v-0.1c0-4.1,3.2-6.1,7.6-6.1c2.3,0,3.7,0.3,5.2,0.8
			v-0.5c0-2.6-1.6-4.1-4.6-4.1c-2.1,0-3.7,0.5-5.4,1.2l-1.2-3.5c2.1-0.9,4.1-1.6,7.1-1.6c5.5,0,8.3,3,8.3,8v11.3H122.6z M122.7,61.4
			c-1.1-0.4-2.6-0.8-4.3-0.8c-2.7,0-4.3,1.1-4.3,3.1v0.1c0,1.8,1.6,2.8,3.6,2.8c2.8,0,5-1.6,5-4V61.4z"/>
		<path d="M136.3,69.5h-4.3v-19h4.3v3c1.2-1.8,3-3.3,5.9-3.3c4.2,0,6.7,2.9,6.7,7.3v12.1h-4.3V58.7c0-3-1.5-4.6-4-4.6
			c-2.5,0-4.2,1.8-4.2,4.7V69.5z"/>
		<path d="M158.3,69.5H154v-19h4.3v3c1.2-1.8,3-3.3,5.9-3.3c4.2,0,6.7,2.9,6.7,7.3v12.1h-4.3V58.7c0-3-1.5-4.6-4-4.6
			c-2.5,0-4.2,1.8-4.2,4.7V69.5z"/>
		<path d="M176.1,47.6v-4.1h4.6v4.1H176.1z M176.3,69.5v-19h4.3v19H176.3z"/>
	</g>
</g>
</svg>
