<?xml version="1.0" encoding="utf-8"?>
<!-- Generator: Adobe Illustrator 24.3.0, SVG Export Plug-In . SVG Version: 6.00 Build 0)  -->
<svg version="1.1" id="Laag_1" xmlns="http://www.w3.org/2000/svg" xmlns:xlink="http://www.w3.org/1999/xlink" x="0px" y="0px"
	 width="713.1px" height="48.1px" viewBox="0 0 713.1 48.1" style="enable-background:new 0 0 713.1 48.1;" xml:space="preserve">
<style type="text/css">
	.st0{fill:#1D1D1B;}
</style>
<g>
	<path class="st0" d="M12.6,39.4C4.8,39.4,0,34.5,0,27.3c0-7.2,4.7-12.2,12.6-12.2c7.6,0,12.5,4.7,12.5,12.2
		C25.1,34.5,20.3,39.4,12.6,39.4z M12.6,19.3c-4.3,0-7.4,3.1-7.4,8c0,4.8,3.1,8,7.5,8c4.2,0,7.3-3.2,7.3-8
		C20,22.4,16.8,19.3,12.6,19.3z"/>
	<path class="st0" d="M38.1,40.4L27.9,15.7h5.4l5.4,13l5.5-13h5.4L38.1,40.4z"/>
	<path class="st0" d="M57.4,28.3c0.1,4.9,3.7,7.1,7.9,7.1c2.2,0,4.8-1,6.8-3.4l2.8,3.6c-3.9,3.4-6.3,4-10.3,4
		c-7.2,0-12.4-4.2-12.4-12.1c0-7.4,5.1-12.3,12-12.3c5.6,0,11.2,3.5,11.2,11.8v1.3H57.4z M64.1,19.4c-3.2,0-5.8,1.7-6.6,5H70
		C69.7,21.4,67.5,19.4,64.1,19.4z"/>
	<path class="st0" d="M96.5,22.1c-1.4-1-2.5-1.5-3.7-1.5c-2.8,0-5,2.3-5,5.3v12.9h-5.1V15.7h5.1V19l1.2-1.3c1.5-1.5,3.2-2.3,5-2.3
		c1.6,0,2.9,0.3,5,1.8L96.5,22.1z"/>
	<path class="st0" d="M115.9,38.8V0h5.1v38.8H115.9z"/>
	<path class="st0" d="M133.7,28.3c0.1,4.9,3.7,7.1,7.9,7.1c2.2,0,4.8-1,6.8-3.4l2.8,3.6c-3.9,3.4-6.3,4-10.3,4
		c-7.2,0-12.4-4.2-12.4-12.1c0-7.4,5.1-12.3,12-12.3c5.6,0,11.2,3.5,11.2,11.8v1.3H133.7z M140.4,19.4c-3.2,0-5.8,1.7-6.6,5h12.5
		C146,21.4,143.8,19.4,140.4,19.4z"/>
	<path class="st0" d="M172.8,22.1c-1.4-1-2.5-1.5-3.7-1.5c-2.8,0-5,2.3-5,5.3v12.9H159V15.7h5.1V19l1.2-1.3c1.5-1.5,3.2-2.3,5-2.3
		c1.6,0,2.9,0.3,5,1.8L172.8,22.1z"/>
	<path class="st0" d="M182.8,28.3c0.1,4.9,3.7,7.1,7.9,7.1c2.2,0,4.8-1,6.8-3.4l2.8,3.6c-3.9,3.4-6.3,4-10.3,4
		c-7.2,0-12.4-4.2-12.4-12.1c0-7.4,5.1-12.3,12-12.3c5.6,0,11.2,3.5,11.2,11.8v1.3H182.8z M189.5,19.4c-3.2,0-5.8,1.7-6.6,5h12.5
		C195.1,21.4,192.9,19.4,189.5,19.4z"/>
	<path class="st0" d="M223.7,38.8V24.9c0-3.6-1.9-4.9-4.6-4.9c-3.3,0-5.8,1.8-5.8,5.4v13.4h-5.1V15.7h5.1v2.6
		c1.9-2.2,5.2-3.1,7.4-3.1c3.8,0,8.2,1.7,8.2,8.2v15.4H223.7z"/>
	<path class="st0" d="M250.7,38.8V0h5.1v38.8H250.7z"/>
	<path class="st0" d="M268.5,28.3c0.1,4.9,3.7,7.1,7.9,7.1c2.2,0,4.8-1,6.8-3.4l2.8,3.6c-3.9,3.4-6.3,4-10.3,4
		c-7.2,0-12.4-4.2-12.4-12.1c0-7.4,5.1-12.3,12-12.3c5.6,0,11.2,3.5,11.2,11.8v1.3H268.5z M275.2,19.4c-3.2,0-5.8,1.7-6.6,5h12.5
		C280.8,21.4,278.5,19.4,275.2,19.4z"/>
	<path class="st0" d="M300,33.7H312v5.1h-21.8v-0.2l13.2-17.7h-11.8v-4.8h20.9v0.2L300,33.7z"/>
	<path class="st0" d="M321.8,28.3c0.1,4.9,3.7,7.1,7.9,7.1c2.2,0,4.8-1,6.8-3.4l2.8,3.6c-3.9,3.4-6.3,4-10.3,4
		c-7.2,0-12.4-4.2-12.4-12.1c0-7.4,5.1-12.3,12-12.3c5.6,0,11.2,3.5,11.2,11.8v1.3H321.8z M328.5,19.4c-3.2,0-5.8,1.7-6.6,5h12.5
		C334.1,21.4,331.9,19.4,328.5,19.4z"/>
	<path class="st0" d="M362.7,38.8V24.9c0-3.6-1.9-4.9-4.6-4.9c-3.3,0-5.8,1.8-5.8,5.4v13.4h-5.1V15.7h5.1v2.6
		c1.9-2.2,5.2-3.1,7.4-3.1c3.8,0,8.2,1.7,8.2,8.2v15.4H362.7z"/>
	<path class="st0" d="M392.3,28.3c0.1,4.9,3.7,7.1,7.9,7.1c2.2,0,4.8-1,6.8-3.4l2.8,3.6c-3.9,3.4-6.3,4-10.3,4
		c-7.2,0-12.4-4.2-12.4-12.1c0-7.4,5.1-12.3,12-12.3c5.6,0,11.2,3.5,11.2,11.8v1.3H392.3z M399,19.4c-3.2,0-5.8,1.7-6.6,5h12.5
		C404.6,21.4,402.4,19.4,399,19.4z"/>
	<path class="st0" d="M433.2,38.8V24.9c0-3.6-1.9-4.9-4.6-4.9c-3.3,0-5.8,1.8-5.8,5.4v13.4h-5.1V15.7h5.1v2.6
		c1.9-2.2,5.2-3.1,7.4-3.1c3.8,0,8.2,1.7,8.2,8.2v15.4H433.2z"/>
	<path class="st0" d="M460.2,38.8V0h5.1v38.8H460.2z"/>
	<path class="st0" d="M478,28.3c0.1,4.9,3.7,7.1,7.9,7.1c2.2,0,4.8-1,6.8-3.4l2.8,3.6c-3.9,3.4-6.3,4-10.3,4
		c-7.2,0-12.4-4.2-12.4-12.1c0-7.4,5.1-12.3,12-12.3c5.6,0,11.2,3.5,11.2,11.8v1.3H478z M484.7,19.4c-3.2,0-5.8,1.7-6.6,5h12.5
		C490.3,21.4,488.1,19.4,484.7,19.4z"/>
	<path class="st0" d="M506.3,28.3c0.1,4.9,3.7,7.1,7.9,7.1c2.2,0,4.8-1,6.8-3.4l2.8,3.6c-3.9,3.4-6.3,4-10.3,4
		c-7.2,0-12.4-4.2-12.4-12.1c0-7.4,5.1-12.3,12-12.3c5.6,0,11.2,3.5,11.2,11.8v1.3H506.3z M513.1,19.4c-3.2,0-5.8,1.7-6.6,5h12.5
		C518.6,21.4,516.4,19.4,513.1,19.4z"/>
	<path class="st0" d="M538.1,39.6c-2.8,0-6-0.8-8.7-2.4l1.8-4.3c2,1.3,4.8,2.4,6.9,2.4c1.7,0,3.9-0.3,3.9-2.4c0-2.1-2.1-3-3.9-3.6
		l-2.4-0.8c-2.3-0.7-5.7-2.3-5.7-6.8c0-4.1,3.6-6.7,8.2-6.7c3,0,6,0.6,8.3,2.3l-2.4,3.7c-1.3-1-3.5-1.7-5.7-1.7
		c-2.3,0-3.4,0.9-3.4,2.2c0,1.9,1.3,2.3,3.3,3.1l2.4,0.9c3,1.1,6.3,2.9,6.3,7.2C547,37.3,543.4,39.6,538.1,39.6z"/>
	<path class="st0" d="M566.9,39.5c-2.5,0-5-0.1-7.5-2.4v11.1h-5.1V15.7h5.1v2.6c2.2-2.4,5-2.9,7.7-2.9c5.9,0,10,4.7,10,11.9
		C577.1,34.3,572.6,39.5,566.9,39.5z M565.7,20.1c-3.9,0-6.6,2.9-6.6,7.3c0,4.6,2.6,7.6,6.5,7.6c4.2,0,6.4-3.2,6.4-7.8
		C572,22.8,569.4,20.1,565.7,20.1z"/>
	<path class="st0" d="M584.7,38.8V0h5.1v38.8H584.7z"/>
	<path class="st0" d="M602.5,28.3c0.1,4.9,3.7,7.1,7.9,7.1c2.2,0,4.8-1,6.8-3.4l2.8,3.6c-3.9,3.4-6.3,4-10.3,4
		c-7.2,0-12.4-4.2-12.4-12.1c0-7.4,5.1-12.3,12-12.3c5.6,0,11.2,3.5,11.2,11.8v1.3H602.5z M609.2,19.4c-3.2,0-5.8,1.7-6.6,5h12.4
		C614.8,21.4,612.6,19.4,609.2,19.4z"/>
	<path class="st0" d="M634,33.7h12.1v5.1h-21.8v-0.2l13.2-17.7h-11.8v-4.8h20.9v0.2L634,33.7z"/>
	<path class="st0" d="M653.6,10.3V4.5h5.1v5.8H653.6z M653.6,38.8V15.7h5.1v23.1H653.6z"/>
	<path class="st0" d="M671.4,28.3c0.1,4.9,3.7,7.1,7.9,7.1c2.2,0,4.8-1,6.8-3.4l2.8,3.6c-3.9,3.4-6.3,4-10.3,4
		c-7.2,0-12.4-4.2-12.4-12.1c0-7.4,5.1-12.3,12-12.3c5.6,0,11.2,3.5,11.2,11.8v1.3H671.4z M678.1,19.4c-3.2,0-5.8,1.7-6.6,5H684
		C683.7,21.4,681.5,19.4,678.1,19.4z"/>
	<path class="st0" d="M710.5,22.1c-1.4-1-2.5-1.5-3.7-1.5c-2.8,0-5,2.3-5,5.3v12.9h-5.1V15.7h5.1V19l1.2-1.3c1.5-1.5,3.2-2.3,5-2.3
		c1.6,0,2.9,0.3,5,1.8L710.5,22.1z"/>
</g>
</svg>
