<?xml version="1.0" encoding="utf-8"?>
<!-- Generator: Adobe Illustrator 24.3.0, SVG Export Plug-In . SVG Version: 6.00 Build 0)  -->
<svg version="1.1" id="Laag_1" xmlns="http://www.w3.org/2000/svg" xmlns:xlink="http://www.w3.org/1999/xlink" x="0px" y="0px"
	 width="566.3px" height="333.7px" viewBox="0 0 566.3 333.7" style="enable-background:new 0 0 566.3 333.7;" xml:space="preserve"
	>
<style type="text/css">
	.st0{fill:#E5262B;}
</style>
<g>
	<path class="st0" d="M83.2,92.4H62l-1.3-1.3V56.8l-1.3-1.3H29l-1.3,1.3v34.3l-1.3,1.3H5.3L4,91.1V1.3L5.3,0h21.1l1.3,1.3v33
		l1.3,1.3h30.4l1.3-1.3v-33L62,0h21.1l1.3,1.3v89.8L83.2,92.4z"/>
	<path class="st0" d="M155.8,76.6l-2.6-1.3h-30.4l-2.6,1.3l-5.3,14.5l-1.3,1.3H97.7l-1.3-1.3V73.9l29-72.6l1.3-1.3h22.4l1.3,1.3
		l29,72.6v17.2l-1.3,1.3h-15.8l-1.3-1.3L155.8,76.6z M128,54.1l1.3,1.3h17.2l1.3-1.3L138.6,29h-1.3L128,54.1z"/>
	<path class="st0" d="M270.6,92.4h-21.1l-1.3-1.3V56.8l-1.3-1.3h-30.4l-1.3,1.3v34.3l-1.3,1.3h-21.1l-1.3-1.3V1.3l1.3-1.3h21.1
		l1.3,1.3v33l1.3,1.3h30.4l1.3-1.3v-33l1.3-1.3h21.1l1.3,1.3v89.8L270.6,92.4z"/>
	<path class="st0" d="M343.2,76.6l-2.6-1.3h-30.4l-2.6,1.3l-5.3,14.5l-1.3,1.3h-15.8l-1.3-1.3V73.9l29-72.6l1.3-1.3h22.4l1.3,1.3
		l29,72.6v17.2l-1.3,1.3h-15.8l-1.3-1.3L343.2,76.6z M315.5,54.1l1.3,1.3H334l1.3-1.3L326,29h-1.3L315.5,54.1z"/>
	<path class="st0" d="M409.2,92.4h-23.8l-1.3-1.3V70l1.3-1.3h23.8l1.3,1.3v21.1L409.2,92.4z M406.6,56.8l-1.3,1.3h-15.8l-1.3-1.3
		L385.4,29V1.3l1.3-1.3h21.1l1.3,1.3V29L406.6,56.8z"/>
	<path class="st0" d="M72.6,120l1.3,1.3l14.5,54.1h1.3l11.9-54.1l1.3-1.3h18.5l1.3,1.3v17.2l-21.1,72.6l-1.3,1.3H77.9l-1.3-1.3
		L62,157h-1.3l-14.5,54.1l-1.3,1.3H22.4l-1.3-1.3L0,138.5v-17.2l1.3-1.3h18.5l1.3,1.3L33,175.4h1.3l14.5-54.1l1.3-1.3H72.6z"/>
	<path class="st0" d="M216.5,212.4h-21.1l-1.3-1.3v-34.3l-1.3-1.3h-30.4l-1.3,1.3v34.3l-1.3,1.3h-21.1l-1.3-1.3v-89.8l1.3-1.3h21.1
		l1.3,1.3v33l1.3,1.3h30.4l1.3-1.3v-33l1.3-1.3h21.1l1.3,1.3v89.8L216.5,212.4z"/>
	<path class="st0" d="M289.1,196.6l-2.6-1.3h-30.4l-2.6,1.3l-5.3,14.5l-1.3,1.3H231l-1.3-1.3v-17.2l29-72.6l1.3-1.3h22.4l1.3,1.3
		l29,72.6v17.2l-1.3,1.3h-15.8l-1.3-1.3L289.1,196.6z M261.4,174.1l1.3,1.3h17.2l1.3-1.3l-9.2-25.1h-1.3L261.4,174.1z"/>
	<path class="st0" d="M390.7,139.8h-26.4l-1.3,1.3v70l-1.3,1.3h-21.1l-1.3-1.3v-70l-1.3-1.3h-26.4l-1.3-1.3v-17.2l1.3-1.3h79.2
		l1.3,1.3v17.2L390.7,139.8z"/>
	<path class="st0" d="M51.5,298.1H29l-1.3,1.3v31.7l-1.3,1.3H5.3L4,331.1v-89.8l1.3-1.3h46.2c19.8,0,33,10.6,33,29
		C84.5,287.5,71.3,298.1,51.5,298.1z M51.5,259.8H29l-1.3,1.3V277l1.3,1.3h22.4c5.3,0,9.2-1.3,9.2-9.2
		C60.7,261.1,56.8,259.8,51.5,259.8z"/>
	<path class="st0" d="M158.4,332.4h-62l-1.3-1.3v-89.8l1.3-1.3h21.1l1.3,1.3v70l1.3,1.3h38.3l1.3,1.3v17.2L158.4,332.4z"/>
	<path class="st0" d="M227,316.6l-2.6-1.3H194l-2.6,1.3l-5.3,14.5l-1.3,1.3H169l-1.3-1.3v-17.2l29-72.6l1.3-1.3h22.4l1.3,1.3
		l29,72.6v17.2l-1.3,1.3h-15.8l-1.3-1.3L227,316.6z M199.3,294.1l1.3,1.3h17.2l1.3-1.3l-9.2-25.1h-1.3L199.3,294.1z"/>
	<path class="st0" d="M264,240h22.4l2.6,1.3l31.7,50.2h1.3v-50.2l1.3-1.3h21.1l1.3,1.3v89.8l-1.3,1.3h-22.4l-2.6-1.3l-31.7-50.2
		h-1.3v50.2l-1.3,1.3H264l-1.3-1.3v-89.8L264,240z"/>
	<path class="st0" d="M402.6,296.8l-9.2-1.3c-27.7-4-33-17.2-33-30.4c0-14.5,11.9-26.4,38.3-26.4c23.8,0,38.3,9.2,38.3,27.7
		l-1.3,1.3h-21.1l-1.3-1.3c0-5.3-4-9.2-14.5-9.2c-10.6,0-15.8,2.6-15.8,7.9s5.3,6.6,14.5,7.9l9.2,1.3c27.7,4,33,15.8,33,30.4
		s-10.6,29-39.6,29c-26.4,0-40.9-10.6-40.9-30.4l1.3-1.3h21.1l1.3,1.3c0,7.9,5.3,11.9,17.2,11.9c10.6,0,17.2-2.6,17.2-9.2
		C417.1,299.4,411.8,298.1,402.6,296.8z"/>
	<path class="st0" d="M493.7,298.1l-1.3,1.3h-18.5l-1.3-1.3c1.3-19.8,21.1-19.8,21.1-31.7c0-5.3-2.6-9.2-9.2-9.2
		c-7.9,0-10.6,4-10.6,11.9l-1.3,1.3h-21.1l-1.3-1.3c0-17.2,10.6-30.4,34.3-30.4c22.4,0,33,13.2,33,27.7
		C517.4,286.2,495,290.2,493.7,298.1z M495,332.4h-23.8l-1.3-1.3V310l1.3-1.3H495l1.3,1.3v21.1L495,332.4z"/>
	<path class="st0" d="M565,332.4h-23.8l-1.3-1.3V310l1.3-1.3H565l1.3,1.3v21.1L565,332.4z M562.3,296.8l-1.3,1.3h-15.8l-1.3-1.3
		l-2.6-27.7v-27.7l1.3-1.3h21.1l1.3,1.3V269L562.3,296.8z"/>
</g>
</svg>
