<?xml version="1.0" encoding="utf-8"?>
<!-- Generator: Adobe Illustrator 24.3.0, SVG Export Plug-In . SVG Version: 6.00 Build 0)  -->
<svg version="1.1" id="Laag_1" xmlns="http://www.w3.org/2000/svg" xmlns:xlink="http://www.w3.org/1999/xlink" x="0px" y="0px"
	 width="777.5px" height="335px" viewBox="0 0 777.5 335" style="enable-background:new 0 0 777.5 335;" xml:space="preserve">
<style type="text/css">
	.st0{fill:#E5262B;}
</style>
<g>
	<path class="st0" d="M109.6,47.5c0,22.4,10.6,27.7,23.8,27.7s18.5-7.9,18.5-14.5l-1.3-1.3h-21.1l-1.3-1.3V42.2l1.3-1.3h44.9
		l1.3,1.3v50.2l-1.3,1.3h-17.2l-1.3-1.3l-1.3-5.3h-1.3c-2.6,2.6-9.2,7.9-22.4,7.9c-26.4,0-44.9-17.2-44.9-47.5S104.3,0,133.3,0
		c23.8,0,38.3,11.9,42.2,29l-1.3,1.3h-22l-1.7-1.3c-2.6-5.3-6.6-9.2-17.2-9.2C118.8,19.8,109.6,26.4,109.6,47.5z"/>
	<path class="st0" d="M232.3,0c27.7,0,46.2,17.2,46.2,47.5S260,95,232.3,95c-27.7,0-46.2-17.2-46.2-47.5S204.6,0,232.3,0z
		 M232.3,75.2c14.5,0,22.4-9.2,22.4-27.7s-7.9-27.7-22.4-27.7c-14.5,0-22.4,9.2-22.4,27.7S217.8,75.2,232.3,75.2z"/>
	<path class="st0" d="M359,58.1l-9.2-1.3c-27.7-4-33-17.2-33-30.4c0-14.5,11.9-26.4,38.3-26.4c23.8,0,38.3,9.2,38.3,27.7L392,29
		h-21.1l-1.3-1.3c0-5.3-4-9.2-14.5-9.2c-10.6,0-15.8,2.6-15.8,7.9c0,5.3,5.3,6.6,14.5,7.9l9.2,1.3c27.7,4,33,15.8,33,30.4
		s-10.6,29-39.6,29c-26.4,0-40.9-10.6-40.9-30.4l1.3-1.3h21.1l1.3,1.3c0,7.9,5.3,11.9,17.2,11.9c10.6,0,17.2-2.6,17.2-9.2
		S368.3,59.4,359,58.1z"/>
	<path class="st0" d="M488.4,93.7h-21.1l-1.3-1.3V58.1l-1.3-1.3h-30.4l-1.3,1.3v34.3l-1.3,1.3h-21.1l-1.3-1.3V2.6l1.3-1.3h21.1
		l1.3,1.3v33l1.3,1.3h30.4l1.3-1.3v-33l1.3-1.3h21.1l1.3,1.3v89.8L488.4,93.7z"/>
	<path class="st0" d="M549.1,0c27.7,0,46.2,17.2,46.2,47.5S576.8,95,549.1,95c-27.7,0-46.2-17.2-46.2-47.5S521.4,0,549.1,0z
		 M549.1,75.2c14.5,0,22.4-9.2,22.4-27.7s-7.9-27.7-22.4-27.7c-14.5,0-22.4,9.2-22.4,27.7S534.6,75.2,549.1,75.2z"/>
	<path class="st0" d="M671.9,56.8v1.3l14.5,17.2v17.2l-1.3,1.3h-10.6l-2.6-1.3l-26.4-31.7l-2.6-1.3h-9.2l-1.3,1.3v31.7l-1.3,1.3
		h-21.1l-1.3-1.3V2.6l1.3-1.3H656c19.8,0,33,10.6,33,29C689,44.9,681.1,52.8,671.9,56.8z M656,21.1h-22.4l-1.3,1.3v15.8l1.3,1.3H656
		c5.3,0,9.2-1.3,9.2-9.2S661.3,21.1,656,21.1z"/>
	<path class="st0" d="M774.8,21.1h-26.4l-1.3,1.3v70l-1.3,1.3h-21.1l-1.3-1.3v-70l-1.3-1.3h-26.4l-1.3-1.3V2.6l1.3-1.3h79.2l1.3,1.3
		v17.2L774.8,21.1z"/>
	<path class="st0" d="M319.4,120c27.7,0,46.2,17.2,46.2,47.5c0,30.4-18.5,47.5-46.2,47.5c-27.7,0-46.2-17.2-46.2-47.5
		C273.2,137.2,291.7,120,319.4,120z M319.4,195.2c14.5,0,22.4-9.2,22.4-27.7s-7.9-27.7-22.4-27.7c-14.5,0-22.4,9.2-22.4,27.7
		S304.9,195.2,319.4,195.2z"/>
	<path class="st0" d="M380.2,121.3h22.4l2.6,1.3l31.7,50.2h1.3v-50.2l1.3-1.3h21.1l1.3,1.3v89.8l-1.3,1.3h-22.4l-2.6-1.3l-31.7-50.2
		h-1.3v50.2l-1.3,1.3h-21.1l-1.3-1.3v-89.8L380.2,121.3z"/>
	<path class="st0" d="M543.8,213.7h-62l-1.3-1.3v-89.8l1.3-1.3h21.1l1.3,1.3v70l1.3,1.3h38.3l1.3,1.3v17.2L543.8,213.7z"/>
	<path class="st0" d="M579.5,213.7h-21.1l-1.3-1.3v-89.8l1.3-1.3h21.1l1.3,1.3v89.8L579.5,213.7z"/>
	<path class="st0" d="M600.6,121.3H623l2.6,1.3l31.7,50.2h1.3v-50.2l1.3-1.3h21.1l1.3,1.3v89.8l-1.3,1.3h-22.4l-2.6-1.3l-31.7-50.2
		H623v50.2l-1.3,1.3h-21.1l-1.3-1.3v-89.8L600.6,121.3z"/>
	<path class="st0" d="M769.6,213.7h-67.3l-1.3-1.3v-89.8l1.3-1.3h67.3l1.3,1.3v17.2l-1.3,1.3H726l-1.3,1.3v13.2l1.3,1.3h40.9
		l1.3,1.3v17.2l-1.3,1.3H726l-1.3,1.3v14.5l1.3,1.3h43.6l1.3,1.3v17.2L769.6,213.7z"/>
	<path class="st0" d="M0,306c0-11.9,6.6-18.5,13.2-21.1v-1.3c-5.3-2.6-10.6-9.2-10.6-18.5C2.6,253.2,13.2,240,37,240
		c23.8,0,34.3,13.2,34.3,25.1c0,9.2-5.3,15.8-10.6,18.5v1.3c6.6,2.6,13.2,9.2,13.2,21.1c0,14.5-11.9,29-37,29
		C11.9,335,0,320.5,0,306z M37,316.6c9.2,0,13.2-5.3,13.2-11.9c0-7.9-5.3-11.9-13.2-11.9c-7.9,0-13.2,4-13.2,11.9
		C23.8,311.3,27.7,316.6,37,316.6z M37,277c6.6,0,10.6-2.6,10.6-9.2s-4-9.2-10.6-9.2c-6.6,0-10.6,2.6-10.6,9.2S30.4,277,37,277z"/>
	<path class="st0" d="M161,296.8h-43.6l-1.3-1.3v-17.2l1.3-1.3H161l1.3,1.3v17.2L161,296.8z"/>
	<path class="st0" d="M270.6,333.7h-64.7l-1.3-1.3v-18.5l1.3-2.6l23.8-21.1c11.9-10.6,15.8-14.5,15.8-22.4c0-5.3-4-7.9-7.9-7.9
		c-6.7,0-9.2,4-9.2,9.2l-1.3,1.3h-21.1l-1.3-1.3c0-13.2,7.9-29,33-29c21.1,0,31.7,13.2,31.7,27.7c0,15.8-10.6,26.4-21.1,35.6
		l-10.6,9.2v1.3h33l1.3,1.3v17.2L270.6,333.7z"/>
	<path class="st0" d="M315.5,335c-22.4,0-33-10.6-34.3-26.4l1.3-1.3h21.1l1.3,1.3c1.3,6.6,5.3,7.9,10.6,7.9
		c7.9,0,11.9-5.3,11.9-14.5c0-7.9-2.6-13.2-10.6-13.2c-4,0-7.9,1.3-10.6,5.3l-2.6,1.3l-18.5-1.3l-1.3-1.3l2.6-50.2l1.3-1.3h58.1
		l1.3,1.3v17.2l-1.3,1.3h-36.3l-1.3,1.3l-0.7,11.9h1.3c4-2.6,9.2-4,14.5-4c21.1,0,27.7,15.8,27.7,30.4
		C351.1,323.2,337.9,335,315.5,335z"/>
	<path class="st0" d="M450.1,317.9l-2.6-1.3h-30.4l-2.6,1.3l-5.3,14.5l-1.3,1.3H392l-1.3-1.3v-17.2l29-72.6l1.3-1.3h22.4l1.3,1.3
		l29,72.6v17.2l-1.3,1.3h-15.8l-1.3-1.3L450.1,317.9z M422.4,295.4l1.3,1.3h17.2l1.3-1.3l-9.2-25.1h-1.3L422.4,295.4z"/>
	<path class="st0" d="M533.3,299.4h-22.4l-1.3,1.3v31.7l-1.3,1.3h-21.1l-1.3-1.3v-89.8l1.3-1.3h46.2c19.8,0,33,10.6,33,29
		C566.3,288.8,553.1,299.4,533.3,299.4z M533.3,261.1h-22.4l-1.3,1.3v15.8l1.3,1.3h22.4c5.3,0,9.2-1.3,9.2-9.2
		C542.5,262.4,538.6,261.1,533.3,261.1z"/>
	<path class="st0" d="M640.2,296.8v1.3l14.5,17.2v17.2l-1.3,1.3h-10.6l-2.6-1.3l-26.4-31.7l-2.6-1.3h-9.2l-1.3,1.3v31.7l-1.3,1.3
		h-21.1l-1.3-1.3v-89.8l1.3-1.3h46.2c19.8,0,33,10.6,33,29C657.4,284.9,649.4,292.8,640.2,296.8z M624.4,261.1h-22.4l-1.3,1.3v15.8
		l1.3,1.3h22.4c5.3,0,9.2-1.3,9.2-9.2C633.6,262.4,629.6,261.1,624.4,261.1z"/>
	<path class="st0" d="M693,333.7h-21.1l-1.3-1.3v-89.8l1.3-1.3H693l1.3,1.3v89.8L693,333.7z"/>
	<path class="st0" d="M776.2,333.7h-62l-1.3-1.3v-89.8l1.3-1.3h21.1l1.3,1.3v70l1.3,1.3h38.3l1.3,1.3v17.2L776.2,333.7z"/>
</g>
</svg>
