<?xml version="1.0" encoding="utf-8"?>
<!-- Generator: Adobe Illustrator 24.0.0, SVG Export Plug-In . SVG Version: 6.00 Build 0)  -->
<svg version="1.1" id="Laag_1" xmlns="http://www.w3.org/2000/svg" xmlns:xlink="http://www.w3.org/1999/xlink" x="0px" y="0px"
	 width="130.5px" height="75.4px" viewBox="0 0 130.5 75.4" style="enable-background:new 0 0 130.5 75.4;" xml:space="preserve">
<style type="text/css">
	.st0{fill:#E2E8DB;}
</style>
<g>
	<path class="st0" d="M27.6,47.1c2.1-0.1,4,0.4,5.7,1.6c1.8,1.2,3.1,3,4,5.5c1.3,3.6,1.1,6.8-0.6,9.6c-1.7,2.8-4.4,5-8.1,6.3
		l-14.3,5.2L0,36.4l13.2-4.8c3.2-1.2,6.3-1.3,9.4-0.4c3.1,0.9,5.2,2.9,6.4,6.2c1.3,3.6,0.8,6.7-1.5,9.3L27.6,47.1z M9.4,40.4
		l3.2,8.9l5.2-1.9c3.9-1.4,5.3-3.6,4.2-6.5c-1.1-3-3.6-3.7-7.5-2.3L9.4,40.4z M24.5,64.2c2.4-0.9,4.1-2,4.9-3.4
		c0.8-1.4,0.9-2.8,0.4-4.4c-0.5-1.5-1.5-2.5-2.9-3.2c-1.4-0.6-3.3-0.5-5.6,0.3L15,55.8l3.8,10.5L24.5,64.2z"/>
	<path class="st0" d="M64.9,46.2c0.6,1.5,1.2,2.5,1.9,2.9c0.7,0.4,1.7,0.4,2.7,0l2,5.3L69.9,55c-3.3,1.2-5.9,0.8-7.6-1.2
		c-0.9,3.2-3.3,5.6-7.2,7c-3.1,1.1-5.8,1.3-8.2,0.5c-2.4-0.8-4-2.5-4.9-5c-0.5-1.4-0.7-2.7-0.5-4c0.2-1.3,0.7-2.5,1.5-3.5
		c0.8-1.1,1.7-2,2.5-2.8c0.9-0.8,2-1.6,3.4-2.4c1.4-0.8,2.5-1.4,3.4-1.8s1.9-0.8,3-1.4c-1.2-2.9-3.3-3.8-6.2-2.7
		c-0.7,0.3-1.3,0.6-1.8,0.9c-0.5,0.4-0.8,0.7-1,1c-0.2,0.3-0.3,0.6-0.4,0.9c-0.1,0.3-0.1,0.6-0.1,0.7l0,0.2L38.9,44
		c-0.7-2.6-0.3-5.1,1.1-7.3c1.4-2.3,3.7-4,7-5.2c3.4-1.3,6.5-1.3,9.1-0.2c2.7,1.1,4.7,3.6,6.1,7.5L64.9,46.2z M48.7,53.5
		c0.5,1.3,1.6,1.9,3.2,1.7c1.9-0.2,3.5-1.2,4.7-3c1.1-1.7,1.4-3.7,0.7-5.9l-0.2-0.6c-1,0.5-1.8,0.9-2.4,1.2
		c-0.6,0.3-1.3,0.7-2.1,1.2c-0.8,0.5-1.5,0.9-1.9,1.3c-0.4,0.4-0.9,0.8-1.3,1.2c-0.4,0.5-0.7,0.9-0.8,1.4
		C48.5,52.5,48.5,53,48.7,53.5z"/>
	<path class="st0" d="M97.2,33.9c0.3,3.5-0.4,6.6-2.2,9.2c-1.8,2.7-4.2,4.5-7.2,5.6c-3.9,1.4-7.6,1.3-11.3-0.5
		c-3.7-1.7-6.2-4.6-7.7-8.6c-1.5-4.1-1.4-8,0.4-11.7c1.8-3.7,4.6-6.3,8.5-7.7c3.2-1.2,6.3-1.2,9.4-0.2c3.1,1,5.6,3,7.5,5.9l-7.4,2.7
		c-2.1-2-4.5-2.6-7.2-1.6c-1.9,0.7-3.3,2-4.1,3.9c-0.8,1.9-0.8,3.9,0,6.1c0.8,2.2,2.1,3.7,3.9,4.6c1.8,0.9,3.7,1,5.7,0.3
		c2.4-0.9,3.9-2.7,4.3-5.4L97.2,33.9z"/>
	<path class="st0" d="M120.3,5l-6.5,15.8l16.7,12l-7.8,2.9l-11.5-8.2l-1.8,4l0,0l2.9,8l-6.9,2.5L90.9,2.5L97.8,0l7.7,21.2l1.1-0.4
		l5.3-12.7L120.3,5z"/>
</g>
</svg>
