<?xml version="1.0" encoding="utf-8"?>
<!-- Generator: Adobe Illustrator 24.3.0, SVG Export Plug-In . SVG Version: 6.00 Build 0)  -->
<svg version="1.1" id="Laag_1" xmlns="http://www.w3.org/2000/svg" xmlns:xlink="http://www.w3.org/1999/xlink" x="0px" y="0px"
	 width="658.7px" height="335px" viewBox="0 0 658.7 335" style="enable-background:new 0 0 658.7 335;" xml:space="preserve">
<style type="text/css">
	.st0{fill:#E5262B;}
</style>
<g>
	<path class="st0" d="M52.8,93.7H1.3L0,92.4V2.6l1.3-1.3h48.8c13.2,0,26.4,6.6,26.4,23.8c0,9.2-4,17.2-13.2,19.8v1.3
		c10.6,2.6,15.8,10.6,15.8,22.4C79.2,87.1,66,93.7,52.8,93.7z M43.6,21.1H25.1l-1.3,1.3v13.2l1.3,1.3h18.5c7.9,0,9.2-4,9.2-7.9
		C52.8,25.1,51.5,21.1,43.6,21.1z M43.6,55.4H25.1l-1.3,1.3v15.8l1.3,1.3h18.5c9.2,0,11.9-2.6,11.9-9.2
		C55.4,58.1,52.8,55.4,43.6,55.4z"/>
	<path class="st0" d="M170.3,58.1c0,23.8-14.5,37-39.6,37c-25.1,0-39.6-13.2-39.6-37V2.6l1.3-1.3h21.1l1.3,1.3v55.4
		c0,13.2,5.3,17.2,15.8,17.2c10.6,0,15.8-4,15.8-17.2V2.6l1.3-1.3H169l1.3,1.3V58.1z"/>
	<path class="st0" d="M232.3,60.7v31.7l-1.3,1.3h-21.1l-1.3-1.3V60.7l-26.4-40.9V2.6l1.3-1.3h11.9l2.6,1.3l21.1,35.6h2.6l21.1-35.6
		l2.6-1.3h11.9l1.3,1.3v17.2L232.3,60.7z"/>
	<path class="st0" d="M345.8,60.7v31.7l-1.3,1.3h-21.1l-1.3-1.3V60.7l-26.4-40.9V2.6l1.3-1.3h11.9l2.6,1.3l21.1,35.6h2.6l21.1-35.6
		l2.6-1.3h11.9l1.3,1.3v17.2L345.8,60.7z"/>
	<path class="st0" d="M423.7,0c27.7,0,46.2,17.2,46.2,47.5S451.4,95,423.7,95c-27.7,0-46.2-17.2-46.2-47.5S396,0,423.7,0z
		 M423.7,75.2c14.5,0,22.4-9.2,22.4-27.7s-7.9-27.7-22.4-27.7s-22.4,9.2-22.4,27.7S409.2,75.2,423.7,75.2z"/>
	<path class="st0" d="M561,58.1c0,23.8-14.5,37-39.6,37s-39.6-13.2-39.6-37V2.6l1.3-1.3h21.1l1.3,1.3v55.4
		c0,13.2,5.3,17.2,15.8,17.2s15.8-4,15.8-17.2V2.6l1.3-1.3h21.1l1.3,1.3V58.1z"/>
	<path class="st0" d="M641.5,56.8v1.3L656,75.2v17.2l-1.3,1.3h-10.6l-2.6-1.3l-26.4-31.7l-2.6-1.3h-9.2l-1.3,1.3v31.7l-1.3,1.3
		h-21.1l-1.3-1.3V2.6l1.3-1.3h46.2c19.8,0,33,10.6,33,29C658.7,44.9,650.8,52.8,641.5,56.8z M625.7,21.1h-22.4l-1.3,1.3v15.8
		l1.3,1.3h22.4c5.3,0,9.2-1.3,9.2-9.2S631,21.1,625.7,21.1z"/>
	<path class="st0" d="M124.1,141.1H97.7l-1.3,1.3v70l-1.3,1.3H73.9l-1.3-1.3v-70l-1.3-1.3H44.9l-1.3-1.3v-17.2l1.3-1.3h79.2l1.3,1.3
		v17.2L124.1,141.1z"/>
	<path class="st0" d="M159.7,213.7h-21.1l-1.3-1.3v-89.8l1.3-1.3h21.1l1.3,1.3v89.8L159.7,213.7z"/>
	<path class="st0" d="M174.2,167.5c0-31.7,21.1-47.5,46.2-47.5c23.8,0,38.3,11.9,42.2,29l-1.3,1.3h-22l-1.7-1.3
		c-2.6-5.3-6.6-9.2-17.2-9.2c-11.9,0-22.4,6.6-22.4,27.7c0,21.1,10.6,27.7,22.4,27.7c10.6,0,14.5-4,17.2-10.6l1.7-1.3h22l1.3,1.3
		c-4,18.5-18.5,30.4-42.2,30.4C195.4,215,174.2,199.2,174.2,167.5z"/>
	<path class="st0" d="M349.8,213.7h-10.6l-2.6-1.3l-29-29h-1.3l-6.6,6.6v22.4l-1.3,1.3h-21.1l-1.3-1.3v-89.8l1.3-1.3h21.1l1.3,1.3
		v35.6h1.3l35.6-35.6l2.6-1.3h9.2l1.3,1.3v17.2l-26.4,26.4v1.3l27.7,27.7v17.2L349.8,213.7z"/>
	<path class="st0" d="M431.6,213.7h-67.3l-1.3-1.3v-89.8l1.3-1.3h67.3l1.3,1.3v17.2l-1.3,1.3h-43.6l-1.3,1.3v13.2l1.3,1.3H429
		l1.3,1.3v17.2l-1.3,1.3h-40.9l-1.3,1.3v14.5l1.3,1.3h43.6l1.3,1.3v17.2L431.6,213.7z"/>
	<path class="st0" d="M522.7,141.1h-26.4l-1.3,1.3v70l-1.3,1.3h-21.1l-1.3-1.3v-70l-1.3-1.3h-26.4l-1.3-1.3v-17.2l1.3-1.3h79.2
		l1.3,1.3v17.2L522.7,141.1z"/>
	<path class="st0" d="M572.9,178.1l-9.2-1.3c-27.7-4-33-17.2-33-30.4c0-14.5,11.9-26.4,38.3-26.4c23.8,0,38.3,9.2,38.3,27.7
		l-1.3,1.3h-21.1l-1.3-1.3c0-5.3-4-9.2-14.5-9.2c-10.6,0-15.8,2.6-15.8,7.9s5.3,6.6,14.5,7.9l9.2,1.3c27.7,4,33,15.8,33,30.4
		s-10.6,29-39.6,29c-26.4,0-40.9-10.6-40.9-30.4l1.3-1.3h21.1l1.3,1.3c0,7.9,5.3,11.9,17.2,11.9c10.6,0,17.2-2.6,17.2-9.2
		C587.4,180.7,582.1,179.4,572.9,178.1z"/>
	<path class="st0" d="M158.4,241.3h22.4l2.6,1.3l31.7,50.2h1.3v-50.2l1.3-1.3h21.1l1.3,1.3v89.8l-1.3,1.3h-22.4l-2.6-1.3l-31.7-50.2
		h-1.3v50.2l-1.3,1.3h-21.1l-1.3-1.3v-89.8L158.4,241.3z"/>
	<path class="st0" d="M299.6,240c27.7,0,46.2,17.2,46.2,47.5c0,30.4-18.5,47.5-46.2,47.5c-27.7,0-46.2-17.2-46.2-47.5
		C253.4,257.2,271.9,240,299.6,240z M299.6,315.2c14.5,0,22.4-9.2,22.4-27.7s-7.9-27.7-22.4-27.7c-14.5,0-22.4,9.2-22.4,27.7
		S285.1,315.2,299.6,315.2z"/>
	<path class="st0" d="M426.4,241.3l1.3,1.3l14.5,54.1h1.3l11.9-54.1l1.3-1.3h18.5l1.3,1.3v17.2l-21.1,72.6l-1.3,1.3h-22.4l-1.3-1.3
		l-14.5-54.1h-1.3L400,332.4l-1.3,1.3h-22.4l-1.3-1.3l-21.1-72.6v-17.2l1.3-1.3h18.5l1.3,1.3l11.9,54.1h1.3l14.5-54.1l1.3-1.3H426.4
		z"/>
	<path class="st0" d="M521.4,333.7h-23.8l-1.3-1.3v-21.1l1.3-1.3h23.8l1.3,1.3v21.1L521.4,333.7z M518.8,298.1l-1.3,1.3h-15.8
		l-1.3-1.3l-2.6-27.7v-27.7l1.3-1.3h21.1l1.3,1.3v27.7L518.8,298.1z"/>
</g>
</svg>
