<?xml version="1.0" encoding="utf-8"?>
<!-- Generator: Adobe Illustrator 24.3.0, SVG Export Plug-In . SVG Version: 6.00 Build 0)  -->
<svg version="1.1" id="Laag_1" xmlns="http://www.w3.org/2000/svg" xmlns:xlink="http://www.w3.org/1999/xlink" x="0px" y="0px"
	 width="473.9px" height="213.7px" viewBox="0 0 473.9 213.7" style="enable-background:new 0 0 473.9 213.7;" xml:space="preserve"
	>
<style type="text/css">
	.st0{fill:#E5262B;}
</style>
<g>
	<path class="st0" d="M0,47.5C0,15.8,21.1,0,46.2,0C70,0,84.5,11.9,88.4,29l-1.3,1.3h-22L63.4,29c-2.6-5.3-6.6-9.2-17.2-9.2
		c-11.9,0-22.4,6.6-22.4,27.7s10.6,27.7,22.4,27.7c10.6,0,14.5-4,17.2-10.6l1.7-1.3h22l1.3,1.3C84.5,83.2,70,95,46.2,95
		C21.1,95,0,79.2,0,47.5z"/>
	<path class="st0" d="M142.6,0c27.7,0,46.2,17.2,46.2,47.5S170.3,95,142.6,95S96.4,77.9,96.4,47.5S114.8,0,142.6,0z M142.6,75.2
		c14.5,0,22.4-9.2,22.4-27.7s-7.9-27.7-22.4-27.7s-22.4,9.2-22.4,27.7S128,75.2,142.6,75.2z"/>
	<path class="st0" d="M279.8,58.1c0,23.8-14.5,37-39.6,37s-39.6-13.2-39.6-37V2.6l1.3-1.3h21.1l1.3,1.3v55.4
		c0,13.2,5.3,17.2,15.8,17.2s15.8-4,15.8-17.2V2.6l1.3-1.3h21.1l1.3,1.3V58.1z"/>
	<path class="st0" d="M298.3,1.3h22.4l2.6,1.3l31.7,50.2h1.3V2.6l1.3-1.3h21.1l1.3,1.3v89.8l-1.3,1.3h-22.4l-2.6-1.3l-31.7-50.2
		h-1.3v50.2l-1.3,1.3h-21.1l-1.3-1.3V2.6L298.3,1.3z"/>
	<path class="st0" d="M472.6,21.1h-26.4l-1.3,1.3v70l-1.3,1.3h-21.1l-1.3-1.3v-70l-1.3-1.3h-26.4l-1.3-1.3V2.6l1.3-1.3h79.2l1.3,1.3
		v17.2L472.6,21.1z"/>
	<path class="st0" d="M108.2,213.7H87.1l-1.3-1.3v-42.2h-1.3l-17.2,42.2l-1.3,1.3H48.8l-1.3-1.3l-17.2-42.2H29v42.2l-1.3,1.3H6.6
		l-1.3-1.3v-89.8l1.3-1.3h25.1l1.3,1.3L56.8,182h1.3l23.8-59.4l1.3-1.3h25.1l1.3,1.3v89.8L108.2,213.7z"/>
	<path class="st0" d="M196.7,213.7h-67.3l-1.3-1.3v-89.8l1.3-1.3h67.3l1.3,1.3v17.2l-1.3,1.3h-43.6l-1.3,1.3v13.2l1.3,1.3H194
		l1.3,1.3v17.2l-1.3,1.3h-40.9l-1.3,1.3v14.5l1.3,1.3h43.6l1.3,1.3v17.2L196.7,213.7z"/>
	<path class="st0" d="M268,213.7h-21.1l-1.3-1.3v-89.8l1.3-1.3H268l1.3,1.3v89.8L268,213.7z"/>
	<path class="st0" d="M289.1,121.3h22.4l2.6,1.3l31.7,50.2h1.3v-50.2l1.3-1.3h21.1l1.3,1.3v89.8l-1.3,1.3h-22.4l-2.6-1.3l-31.7-50.2
		h-1.3v50.2l-1.3,1.3h-21.1l-1.3-1.3v-89.8L289.1,121.3z"/>
	<path class="st0" d="M419.8,213.7H396l-1.3-1.3v-21.1l1.3-1.3h23.8l1.3,1.3v21.1L419.8,213.7z M417.1,178.1l-1.3,1.3H400l-1.3-1.3
		l-2.6-27.7v-27.7l1.3-1.3h21.1l1.3,1.3v27.7L417.1,178.1z"/>
</g>
</svg>
