<?xml version="1.0" encoding="utf-8"?>
<!-- Generator: Adobe Illustrator 24.3.0, SVG Export Plug-In . SVG Version: 6.00 Build 0)  -->
<svg version="1.1" id="Laag_1" xmlns="http://www.w3.org/2000/svg" xmlns:xlink="http://www.w3.org/1999/xlink" x="0px" y="0px"
	 width="699.6px" height="335px" viewBox="0 0 699.6 335" style="enable-background:new 0 0 699.6 335;" xml:space="preserve">
<style type="text/css">
	.st0{fill:#E5262B;}
</style>
<g>
	<path class="st0" d="M75.2,95c-22.4,0-35.6-13.2-35.6-27.7l1.3-1.3H62l1.3,1.3c0,5.3,5.3,9.2,11.9,9.2c7.9,0,13.2-4,13.2-13.2
		s-4-11.9-9.2-11.9c-1.3,0-2.6,0-5.3,1.3H60.7l-1.3-1.3V38.3l18.5-15.8v-1.3H46.2l-1.3-1.3V2.6l1.3-1.3h58.1l1.3,1.3v18.5l-1.3,2.6
		L92.4,34.3v1.3c13.2,2.6,19.8,13.2,19.8,27.7C112.2,81.8,99,95,75.2,95z"/>
	<path class="st0" d="M154.4,95c-22.4,0-35.6-13.2-35.6-27.7l1.3-1.3h21.1l1.3,1.3c0,5.3,5.3,9.2,11.9,9.2c7.9,0,13.2-4,13.2-13.2
		s-4-11.9-9.2-11.9c-1.3,0-2.6,0-5.3,1.3h-13.2l-1.3-1.3V38.3l18.5-15.8v-1.3h-31.7l-1.3-1.3V2.6l1.3-1.3h58.1l1.3,1.3v18.5
		l-1.3,2.6l-11.9,10.6v1.3c13.2,2.6,19.8,13.2,19.8,27.7C191.4,81.8,178.2,95,154.4,95z"/>
	<path class="st0" d="M315.5,93.7h-21.1l-1.3-1.3V58.1l-1.3-1.3h-30.4l-1.3,1.3v34.3l-1.3,1.3h-21.1l-1.3-1.3V2.6l1.3-1.3h21.1
		l1.3,1.3v33l1.3,1.3h30.4l1.3-1.3v-33l1.3-1.3h21.1l1.3,1.3v89.8L315.5,93.7z"/>
	<path class="st0" d="M376.2,0c27.7,0,46.2,17.2,46.2,47.5S403.9,95,376.2,95S330,77.9,330,47.5S348.5,0,376.2,0z M376.2,75.2
		c14.5,0,22.4-9.2,22.4-27.7s-7.9-27.7-22.4-27.7s-22.4,9.2-22.4,27.7S361.7,75.2,376.2,75.2z"/>
	<path class="st0" d="M513.5,58.1c0,23.8-14.5,37-39.6,37c-25.1,0-39.6-13.2-39.6-37V2.6l1.3-1.3h21.1l1.3,1.3v55.4
		c0,13.2,5.3,17.2,15.8,17.2c10.6,0,15.8-4,15.8-17.2V2.6l1.3-1.3h21.1l1.3,1.3V58.1z"/>
	<path class="st0" d="M594,56.8v1.3l14.5,17.2v17.2l-1.3,1.3h-10.6l-2.6-1.3l-26.4-31.7l-2.6-1.3h-9.2l-1.3,1.3v31.7l-1.3,1.3H532
		l-1.3-1.3V2.6l1.3-1.3h46.2c19.8,0,33,10.6,33,29C611.2,44.9,603.2,52.8,594,56.8z M578.2,21.1h-22.4l-1.3,1.3v15.8l1.3,1.3h22.4
		c5.3,0,9.2-1.3,9.2-9.2S583.4,21.1,578.2,21.1z"/>
	<path class="st0" d="M662.6,58.1l-9.2-1.3c-27.7-4-33-17.2-33-30.4c0-14.5,11.9-26.4,38.3-26.4C682.4,0,697,9.2,697,27.7l-1.3,1.3
		h-21.1l-1.3-1.3c0-5.3-4-9.2-14.5-9.2s-15.8,2.6-15.8,7.9c0,5.3,5.3,6.6,14.5,7.9l9.2,1.3c27.7,4,33,15.8,33,30.4S689,95,660,95
		c-26.4,0-40.9-10.6-40.9-30.4l1.3-1.3h21.1l1.3,1.3c0,7.9,5.3,11.9,17.2,11.9c10.6,0,17.2-2.6,17.2-9.2S671.9,59.4,662.6,58.1z"/>
	<path class="st0" d="M46.2,120c27.7,0,46.2,17.2,46.2,47.5c0,30.4-18.5,47.5-46.2,47.5S0,197.9,0,167.5C0,137.2,18.5,120,46.2,120z
		 M46.2,195.2c14.5,0,22.4-9.2,22.4-27.7s-7.9-27.7-22.4-27.7s-22.4,9.2-22.4,27.7S31.7,195.2,46.2,195.2z"/>
	<path class="st0" d="M170.3,141.1h-39.6l-1.3,1.3V157l1.3,1.3h37l1.3,1.3v17.2l-1.3,1.3h-37l-1.3,1.3v33l-1.3,1.3h-21.1l-1.3-1.3
		v-89.8l1.3-1.3h63.4l1.3,1.3v17.2L170.3,141.1z"/>
	<path class="st0" d="M252.1,178.1l-9.2-1.3c-27.7-4-33-17.2-33-30.4c0-14.5,11.9-26.4,38.3-26.4c23.8,0,38.3,9.2,38.3,27.7
		l-1.3,1.3H264l-1.3-1.3c0-5.3-4-9.2-14.5-9.2s-15.8,2.6-15.8,7.9s5.3,6.6,14.5,7.9l9.2,1.3c27.7,4,33,15.8,33,30.4
		s-10.6,29-39.6,29c-26.4,0-40.9-10.6-40.9-30.4l1.3-1.3H231l1.3,1.3c0,7.9,5.3,11.9,17.2,11.9c10.6,0,17.2-2.6,17.2-9.2
		C266.6,180.7,261.4,179.4,252.1,178.1z"/>
	<path class="st0" d="M381.5,213.7h-21.1l-1.3-1.3v-34.3l-1.3-1.3h-30.4l-1.3,1.3v34.3l-1.3,1.3h-21.1l-1.3-1.3v-89.8l1.3-1.3h21.1
		l1.3,1.3v33l1.3,1.3h30.4l1.3-1.3v-33l1.3-1.3h21.1l1.3,1.3v89.8L381.5,213.7z"/>
	<path class="st0" d="M442.2,120c27.7,0,46.2,17.2,46.2,47.5c0,30.4-18.5,47.5-46.2,47.5S396,197.9,396,167.5
		C396,137.2,414.5,120,442.2,120z M442.2,195.2c14.5,0,22.4-9.2,22.4-27.7s-7.9-27.7-22.4-27.7s-22.4,9.2-22.4,27.7
		S427.7,195.2,442.2,195.2z"/>
	<path class="st0" d="M565,176.8v1.3l14.5,17.2v17.2l-1.3,1.3h-10.6l-2.6-1.3l-26.4-31.7l-2.6-1.3h-9.2l-1.3,1.3v31.7l-1.3,1.3
		h-21.1l-1.3-1.3v-89.8l1.3-1.3h46.2c19.8,0,33,10.6,33,29C582.1,164.9,574.2,172.8,565,176.8z M549.1,141.1h-22.4l-1.3,1.3v15.8
		l1.3,1.3h22.4c5.3,0,9.2-1.3,9.2-9.2C558.4,142.4,554.4,141.1,549.1,141.1z"/>
	<path class="st0" d="M667.9,141.1h-26.4l-1.3,1.3v70l-1.3,1.3h-21.1l-1.3-1.3v-70l-1.3-1.3h-26.4l-1.3-1.3v-17.2l1.3-1.3h79.2
		l1.3,1.3v17.2L667.9,141.1z"/>
	<path class="st0" d="M200.6,261.1H161l-1.3,1.3V277l1.3,1.3h37l1.3,1.3v17.2l-1.3,1.3h-37l-1.3,1.3v33l-1.3,1.3h-21.1l-1.3-1.3
		v-89.8l1.3-1.3h63.4l1.3,1.3v17.2L200.6,261.1z"/>
	<path class="st0" d="M237.6,333.7h-21.1l-1.3-1.3v-89.8l1.3-1.3h21.1l1.3,1.3v89.8L237.6,333.7z"/>
	<path class="st0" d="M320.8,333.7h-62l-1.3-1.3v-89.8l1.3-1.3h21.1l1.3,1.3v70l1.3,1.3h38.3l1.3,1.3v17.2L320.8,333.7z"/>
	<path class="st0" d="M436.9,333.7h-21.1l-1.3-1.3v-42.2h-1.3L396,332.4l-1.3,1.3h-17.2l-1.3-1.3L359,290.2h-1.3v42.2l-1.3,1.3
		h-21.1l-1.3-1.3v-89.8l1.3-1.3h25.1l1.3,1.3l23.8,59.4h1.3l23.8-59.4l1.3-1.3h25.1l1.3,1.3v89.8L436.9,333.7z"/>
	<path class="st0" d="M495,298.1l-9.2-1.3c-27.7-4-33-17.2-33-30.4c0-14.5,11.9-26.4,38.3-26.4c23.8,0,38.3,9.2,38.3,27.7L528,269
		h-21.1l-1.3-1.3c0-5.3-4-9.2-14.5-9.2c-10.6,0-15.8,2.6-15.8,7.9s5.3,6.6,14.5,7.9l9.2,1.3c27.7,4,33,15.8,33,30.4
		c0,14.5-10.6,29-39.6,29c-26.4,0-40.9-10.6-40.9-30.4l1.3-1.3h21.1l1.3,1.3c0,7.9,5.3,11.9,17.2,11.9c10.6,0,17.2-2.6,17.2-9.2
		C509.5,300.7,504.2,299.4,495,298.1z"/>
	<path class="st0" d="M575.5,333.7h-23.8l-1.3-1.3v-21.1l1.3-1.3h23.8l1.3,1.3v21.1L575.5,333.7z M572.9,298.1l-1.3,1.3h-15.8
		l-1.3-1.3l-2.6-27.7v-27.7l1.3-1.3h21.1l1.3,1.3v27.7L572.9,298.1z"/>
	<path class="st0" d="M631,333.7h-23.8l-1.3-1.3v-21.1l1.3-1.3H631l1.3,1.3v21.1L631,333.7z M628.3,298.1l-1.3,1.3h-15.8l-1.3-1.3
		l-2.6-27.7v-27.7l1.3-1.3h21.1l1.3,1.3v27.7L628.3,298.1z"/>
	<path class="st0" d="M686.4,333.7h-23.8l-1.3-1.3v-21.1l1.3-1.3h23.8l1.3,1.3v21.1L686.4,333.7z M683.8,298.1l-1.3,1.3h-15.8
		l-1.3-1.3l-2.6-27.7v-27.7l1.3-1.3h21.1l1.3,1.3v27.7L683.8,298.1z"/>
</g>
</svg>
