<?xml version="1.0" encoding="utf-8"?>
<!-- Generator: Adobe Illustrator 19.1.0, SVG Export Plug-In . SVG Version: 6.00 Build 0)  -->
<svg version="1.1" id="Laag_1" xmlns="http://www.w3.org/2000/svg" xmlns:xlink="http://www.w3.org/1999/xlink" x="0px" y="0px"
	 viewBox="-354 484.7 290.7 33.1" style="enable-background:new -354 484.7 290.7 33.1;" xml:space="preserve">
<style type="text/css">
	.st0{fill:#FFFFFF;}
</style>
<g>
	<path class="st0" d="M-327.9,517c0,0-1.3-0.1-4.4-0.1c-3.1,0-4.4,0.1-4.4,0.1l0.4-0.7c0.7-1.5,1-1.9,1-12.3h-11.4
		c0,10.5,0.2,10.8,1,12.3l0.4,0.7c0,0-1.3-0.1-4.4-0.1c-3.1,0-4.4,0.1-4.4,0.1l0.4-0.7c0.8-1.6,1-1.8,1-14.2c0-11.9-0.2-12.1-1-13.8
		l-0.3-0.6c0,0,1.2,0.1,4.4,0.1c3.2,0,4.3-0.1,4.3-0.1l-0.3,0.7c-0.8,1.4-1,1.8-1,11.5h11.5c0-9.6-0.2-10-1-11.5l-0.5-0.7
		c0,0,1.2,0.1,4.4,0.1c3.2,0,4.3-0.1,4.3-0.1l-0.4,0.7c-0.8,1.5-1,1.8-1,14.2c0,11.9,0.2,12.1,1,13.8L-327.9,517z M-303.5,516.1v0.9
		h-18.6v-23.4h18.5v13.5h-6.5c-2.7,0-3.6,0.5-3.6,0.5s0-0.7,0-2.2s0-2.1,0-2.1s0.9,0.5,3.6,0.5h1.4v-6.7h-7.8v16.6h6.3
		c5,0,5.7-1.1,7.2-2.9C-303,510.8-303.4,512.9-303.5,516.1z M-287.9,496.7c-1.8,0-3.2,1-3.2,1v8.2c0,8.9,0.5,9.3,1.1,10.4l0.4,0.7
		c0,0-1.4-0.1-4.4-0.1c-3.1,0-4.4,0.1-4.4,0.1l0.4-0.7c0.7-1.2,1-1.5,1-10.5v-1.6c0-8.8-0.4-11.2-0.4-11.2l5.4,1.6
		c0.5-0.2,2.3-1.6,5.7-1.6c2.1,0,3.5,0.7,3.5,0.7s-0.1,1-0.1,3.1c0,2.3,0.1,3.4,0.1,3.4C-283.9,498.1-285.3,496.7-287.9,496.7z
		 M-275.9,517c-3.1,0-4.4,0.1-4.4,0.1l0.4-0.7c0.8-1.4,1-2.2,1-10.5v-8.4h-2.5c1.8-1.6,2.5-2.7,2.5-5.4v-7.4h11.4c0,0,0,0.7,0,2.1
		c0,1.3,0,2.1,0,2.1s-0.9-0.9-4-0.9h-1.5v6.2h1.4c3.1,0,4-0.5,4-0.5s0,0.7,0,2.2s0,2.1,0,2.1s-1-0.5-4-0.5h-1.4v8
		c0,7.9,0.2,9,1.1,10.6l0.4,0.7C-271.5,517-272.7,517-275.9,517z"/>
	<g>
		<path class="st0" d="M-265.4,501.3c0-0.6,0.1-1.3,0.2-1.8c0.2-0.6,0.4-1.1,0.8-1.7s0.9-1.1,1.5-1.5s1.4-0.7,2.4-1
			c1-0.2,2.1-0.4,3.4-0.4c1.2,0,2.3,0.1,3.4,0.3s1.8,0.4,2.3,0.6l0.7,0.3c-0.1,0.5-0.1,1.3-0.1,2.4l0.1,2.7
			c-0.9-1.3-1.8-2.2-2.7-2.8c-0.9-0.6-2.1-0.9-3.5-0.9c-2.8,0-4.1,1-4.1,3c0,0.7,0.2,1.3,0.6,1.8s1,0.9,1.8,1.3l3.6,1.9
			c0.5,0.2,0.9,0.5,1.1,0.6s0.6,0.4,1.1,0.8c0.4,0.4,0.8,0.7,1,1.1c0.3,0.4,0.5,0.8,0.7,1.4c0.2,0.6,0.3,1.2,0.3,1.9
			c0,2-0.7,3.4-2,4.4c-1.4,1-3.2,1.5-5.6,1.5c-0.8,0-1.5,0-2.2-0.1c-0.7-0.1-1.3-0.2-1.7-0.3c-0.5-0.1-0.9-0.2-1.2-0.3
			c-0.3-0.1-0.6-0.2-0.7-0.3l-0.2-0.1c0.1-0.5,0.1-1.3,0.1-2.4l-0.1-2.6c0.9,1.2,1.8,2.2,2.6,2.8c0.9,0.6,1.9,0.9,3.2,0.9
			c2.5,0,3.8-0.9,3.8-2.6c0-0.7-0.2-1.3-0.7-1.8s-1.3-1-2.4-1.6l-2.8-1.5c-1.5-0.8-2.6-1.6-3.3-2.5
			C-264.7,503.9-265.4,502.7-265.4,501.3z"/>
		<path class="st0" d="M-247.2,498c0.1,0,0.2-0.1,0.5-0.4c0.3-0.2,0.6-0.6,1.1-1.2c0.5-0.6,1-1.2,1.4-1.8c0.5-0.6,0.9-1.3,1.3-2
			c0.4-0.7,0.7-1.2,0.9-1.5l0.2-0.5h1.9v4.8h2.6c1,0,1.8,0,2.5-0.1c0.7-0.1,1.1-0.1,1.3-0.2l0.3-0.1c0,0.4,0,0.9,0,1.7v1.6
			c-0.4-0.3-1.8-0.4-4-0.4h-2.8v12.4c0,1.4,0.2,2.5,0.5,3.1c0.5,0.9,1.5,1.4,2.9,1.4c0.4,0,0.8,0,1.2-0.1s0.7-0.2,1-0.3
			c0.3-0.1,0.5-0.2,0.7-0.3c0.2-0.1,0.3-0.2,0.4-0.3l0.1-0.1c0,0.2,0,0.4-0.1,0.6c-0.1,0.2-0.2,0.5-0.4,0.9c-0.2,0.4-0.5,0.7-0.9,1
			s-0.9,0.6-1.7,0.8c-0.7,0.2-1.6,0.3-2.6,0.3c-2.3,0-3.9-0.7-4.8-2c-0.4-0.5-0.6-1.1-0.7-1.9c-0.1-0.8-0.2-1.8-0.2-3.2
			c0-2.7,0-5.1,0-7.1s0.1-3.4,0.1-4.1v-1C-244.5,498-247.2,498-247.2,498z"/>
		<path class="st0" d="M-232.9,495.3c0.8,0,2.2,0.1,4,0.1l4.4-0.1c-0.8,0.5-1.2,1.2-1.2,2.1c0,0.5,0.1,1.1,0.3,1.8
			c0.2,0.8,0.6,2.2,1.2,4.2l2.6,8.9l0.6,2.4c0.9-1.4,1.9-4.1,3.2-8.1s1.9-6.9,1.9-8.8c0-1.2-0.4-2-1.1-2.5c0.9,0,2.1,0.1,3.7,0.1
			l3.4-0.1c-0.6,0.5-1.1,1.2-1.5,2.1c-0.2,0.4-0.5,1.4-0.9,2.9s-0.8,3.1-1.3,4.7c-0.4,1.6-1.1,3.6-2,5.8c-0.9,2.2-1.9,4.3-3,6.1
			c-0.7,0-1.7-0.1-2.9-0.1l-3.3,0.1l-4.3-13c-1.2-3.6-2-5.9-2.4-6.7C-231.9,496.4-232.4,495.7-232.9,495.3z"/>
		<path class="st0" d="M-208.7,511.1c0-0.9,0.1-1.7,0.3-2.4s0.5-1.3,0.9-1.8s0.8-0.9,1.4-1.2c0.6-0.3,1.1-0.6,1.6-0.8
			c0.5-0.2,1.1-0.3,1.8-0.4c0.7-0.1,1.3-0.2,1.8-0.2s1.1,0,1.7,0c0.7,0,1.4,0,2.1,0.1c0.7,0,1.2,0.1,1.5,0.1l0.5,0.1v-1.7
			c0-0.6,0-1.1,0-1.5c0-0.4-0.1-0.8-0.2-1.2c-0.1-0.4-0.3-0.8-0.6-1.1c-0.8-0.9-2.1-1.3-4.2-1.3c-2.9,0-5.1,0.9-6.3,2.7
			c0.1-0.6,0.1-1.3,0.1-2.2l-0.1-2.1c0.2-0.1,0.4-0.2,0.7-0.3c0.3-0.1,1.1-0.3,2.4-0.5c1.2-0.2,2.6-0.3,4.1-0.3
			c3.6,0,6.1,0.7,7.3,2.2c0.3,0.4,0.6,0.8,0.8,1.2c0.2,0.4,0.3,0.9,0.4,1.5c0.1,0.6,0.1,1.1,0.1,1.5c0,0.4,0,1,0,1.8
			c0,0.1,0,1,0,2.5c0,1.6,0,3.2,0,4.7c0,1.4,0.1,2.5,0.2,3.3c0.1,0.8,0.4,1.5,0.8,2.1l0.4,0.7l-5.8,1l0.2-4.5
			c-0.8,3.1-3,4.7-6.7,4.7c-1.1,0-2.1-0.1-3-0.4s-1.6-0.6-2.1-1c-0.5-0.4-0.9-0.9-1.3-1.5c-0.3-0.6-0.6-1.1-0.7-1.7
			C-208.7,512.3-208.7,511.7-208.7,511.1z M-204.1,510.7c0,1.3,0.4,2.3,1.2,2.9c0.8,0.7,1.8,1,3.1,1c0.7,0,1.4-0.1,2-0.2
			c0.6-0.1,1.1-0.3,1.4-0.5s0.6-0.4,0.8-0.6c0.2-0.2,0.4-0.4,0.4-0.5l0.1-0.2V507c-0.6-0.1-1.7-0.1-3.2-0.1c-0.6,0-1.1,0-1.4,0
			c-0.4,0-0.9,0.1-1.5,0.3c-0.6,0.1-1.1,0.4-1.5,0.6c-0.4,0.2-0.7,0.7-1,1.2C-203.9,509.4-204.1,510-204.1,510.7z"/>
		<path class="st0" d="M-184.4,517l0.4-0.7c0.3-0.5,0.5-1,0.6-1.5s0.2-1.3,0.3-2.6s0.1-3.2,0.1-5.7v-8.6c0-3.3-0.1-5.5-0.2-6.7
			c-0.1-1.1-0.4-2.1-0.8-2.8l-0.4-0.7l6-1c-0.1,2.8-0.1,5.5-0.1,8.1v11.9c0,3.5,0.1,5.8,0.2,6.9c0.1,1.1,0.4,2.1,0.8,2.8l0.4,0.7
			c-0.7,0-1.9-0.1-3.6-0.1H-184.4z M-177.7,506c0.2-0.1,0.5-0.3,0.9-0.6c0.4-0.3,1.1-0.7,1.9-1.3c0.8-0.6,1.5-1.3,2.2-1.9
			s1.3-1.5,1.8-2.4s0.8-1.8,0.8-2.6s-0.3-1.4-1-1.8c1.1,0,2.3,0.1,3.7,0.1l4.5-0.1c-0.7,0.4-1.3,0.9-1.8,1.4c-0.4,0.4-0.8,1-1.3,1.7
			c-0.5,0.7-0.9,1.5-1.3,2.1c-0.4,0.7-1.1,1.4-2,2.3c-0.9,0.9-2.1,1.7-3.4,2.4c0.1,0,0.2,0.1,0.3,0.1s0.4,0.1,0.7,0.3
			c0.4,0.2,0.7,0.4,1.1,0.6c0.3,0.2,0.7,0.6,1.2,1s0.9,0.9,1.2,1.4c0.7,0.9,1.4,2.2,2.2,3.8c0.8,1.6,1.4,2.7,1.7,3.1
			c0.6,0.7,1.1,1.2,1.6,1.4c-1.1,0-2.3,0-3.7,0h-3.2c0-0.1,0-0.2,0-0.4c0-0.2-0.1-0.5-0.2-1.1c-0.1-0.5-0.3-1.1-0.4-1.6
			s-0.4-1.1-0.7-1.8c-0.3-0.7-0.7-1.3-1.1-1.8c-0.4-0.6-0.9-1.1-1.5-1.6c-0.5-0.5-1-0.9-1.4-1.2c-0.4-0.3-0.9-0.6-1.3-0.8
			c-0.4-0.3-0.8-0.4-0.9-0.5S-177.6,506-177.7,506z"/>
		<path class="st0" d="M-160.7,511.1c0-0.9,0.1-1.7,0.3-2.4s0.5-1.3,0.9-1.8s0.8-0.9,1.4-1.2c0.6-0.3,1.1-0.6,1.6-0.8
			c0.5-0.2,1.1-0.3,1.8-0.4c0.7-0.1,1.3-0.2,1.8-0.2s1.1,0,1.7,0c0.7,0,1.4,0,2.1,0.1c0.7,0,1.2,0.1,1.5,0.1l0.5,0.1v-1.7
			c0-0.6,0-1.1,0-1.5c0-0.4-0.1-0.8-0.2-1.2c-0.1-0.4-0.3-0.8-0.6-1.1c-0.8-0.9-2.1-1.3-4.2-1.3c-2.9,0-5.1,0.9-6.3,2.7
			c0.1-0.6,0.1-1.3,0.1-2.2l-0.1-2.1c0.2-0.1,0.4-0.2,0.7-0.3c0.3-0.1,1.1-0.3,2.4-0.5c1.2-0.2,2.6-0.3,4.1-0.3
			c3.6,0,6.1,0.7,7.3,2.2c0.3,0.4,0.6,0.8,0.8,1.2c0.2,0.4,0.3,0.9,0.4,1.5c0.1,0.6,0.1,1.1,0.1,1.5c0,0.4,0,1,0,1.8
			c0,0.1,0,1,0,2.5c0,1.6,0,3.2,0,4.7c0,1.4,0.1,2.5,0.2,3.3c0.1,0.8,0.4,1.5,0.8,2.1l0.4,0.7l-5.8,1l0.2-4.5
			c-0.8,3.1-3,4.7-6.7,4.7c-1.1,0-2.1-0.1-3-0.4s-1.6-0.6-2.1-1c-0.5-0.4-0.9-0.9-1.3-1.5c-0.3-0.6-0.6-1.1-0.7-1.7
			C-160.7,512.3-160.7,511.7-160.7,511.1z M-156,510.7c0,1.3,0.4,2.3,1.2,2.9c0.8,0.7,1.8,1,3.1,1c0.7,0,1.4-0.1,2-0.2
			c0.6-0.1,1.1-0.3,1.4-0.5s0.6-0.4,0.8-0.6c0.2-0.2,0.4-0.4,0.4-0.5l0.1-0.2V507c-0.6-0.1-1.7-0.1-3.2-0.1c-0.6,0-1.1,0-1.4,0
			c-0.4,0-0.9,0.1-1.5,0.3c-0.6,0.1-1.1,0.4-1.5,0.6c-0.4,0.2-0.7,0.7-1,1.2C-155.9,509.4-156,510-156,510.7z"/>
		<path class="st0" d="M-136.2,517l0.4-0.7c0.3-0.5,0.5-0.9,0.6-1.2c0.1-0.3,0.2-1.2,0.3-2.5c0.1-1.4,0.1-3.4,0.1-6v-1.2
			c0-3-0.1-5.1-0.2-6.2c-0.2-1.1-0.4-2-0.8-2.6l-0.4-0.6l5.9-0.9l-0.2,4.8c0.8-3.3,3.1-4.9,6.9-4.9c3.1,0,5.2,0.9,6.3,2.8
			c0.5,0.8,0.8,1.7,0.9,2.8c0.1,1.1,0.2,2.8,0.2,5.1v1.1c0,2.7,0.1,4.7,0.2,6c0.1,1.4,0.2,2.2,0.3,2.5c0.1,0.3,0.3,0.7,0.6,1.2
			l0.4,0.7c-0.7,0-1.9-0.1-3.7-0.1l-3.7,0.1l0.4-0.7c0.3-0.5,0.5-0.9,0.6-1.2c0.1-0.3,0.2-1.2,0.3-2.5c0.1-1.4,0.1-3.4,0.1-6
			c0-2.2-0.1-3.9-0.2-4.9s-0.3-1.8-0.7-2.3c-0.8-1.1-2-1.7-3.8-1.7c-0.8,0-1.5,0.1-2.1,0.3s-1.1,0.4-1.4,0.6
			c-0.3,0.2-0.6,0.5-0.8,0.7c-0.2,0.2-0.4,0.4-0.4,0.6l-0.1,0.2v6.5c0,2.7,0,4.7,0.1,6c0.1,1.4,0.2,2.2,0.3,2.5
			c0.1,0.3,0.3,0.7,0.6,1.2l0.4,0.7c-0.7,0-1.9-0.1-3.6-0.1L-136.2,517z"/>
		<path class="st0" d="M-111.2,498c0.1,0,0.2-0.1,0.5-0.4c0.3-0.2,0.6-0.6,1.1-1.2c0.5-0.6,1-1.2,1.4-1.8c0.5-0.6,0.9-1.3,1.3-2
			c0.4-0.7,0.7-1.2,0.9-1.5l0.2-0.5h1.9v4.8h2.6c1,0,1.8,0,2.5-0.1s1.1-0.1,1.3-0.2l0.3-0.1c0,0.4,0,0.9,0,1.7v1.6
			c-0.4-0.3-1.8-0.4-4-0.4h-2.6v12.4c0,1.4,0.2,2.5,0.5,3.1c0.5,0.9,1.5,1.4,2.9,1.4c0.4,0,0.8,0,1.2-0.1s0.7-0.2,1-0.3
			c0.3-0.1,0.5-0.2,0.7-0.3c0.2-0.1,0.3-0.2,0.4-0.3l0.1-0.1c0,0.2,0,0.4-0.1,0.6c-0.1,0.2-0.2,0.5-0.4,0.9c-0.2,0.4-0.5,0.7-0.9,1
			s-0.9,0.6-1.7,0.8c-0.7,0.2-1.6,0.3-2.6,0.3c-2.3,0-3.9-0.7-4.8-2c-0.4-0.5-0.6-1.1-0.7-1.9s-0.2-1.8-0.2-3.2c0-2.7,0-5.1,0-7.1
			s0.1-3.4,0.1-4.1v-1C-108.3,498-111.2,498-111.2,498z"/>
		<path class="st0" d="M-94.2,496l6.2-1c-0.2,1.5-0.4,5-0.4,10.5v4.2c0,1.3,0,2.2,0.1,2.9c0.1,0.7,0.1,1.3,0.3,1.8
			c0.1,0.5,0.3,0.9,0.6,1.2c0.2,0.3,0.6,0.5,1,0.7c-0.1,0.1-0.2,0.1-0.3,0.2c-0.1,0.1-0.5,0.2-1.1,0.4c-0.6,0.1-1.3,0.2-2,0.2
			s-1.2-0.1-1.7-0.2c-0.4-0.2-0.7-0.4-0.9-0.7c-0.2-0.3-0.3-0.7-0.4-1s-0.1-0.8-0.1-1.3c0-0.7,0-2.1,0.1-4.1c0-2,0.1-3.5,0.1-4.4
			c0-2.1,0-3.8-0.1-5c-0.1-1.2-0.2-2-0.3-2.5c-0.1-0.5-0.3-0.9-0.6-1.3L-94.2,496z M-94.2,489.9l3.6-3.2l3.7,3.2l-3.7,3.1
			L-94.2,489.9z"/>
		<path class="st0" d="M-82.5,506.6c0-1.4,0.1-2.6,0.3-3.8c0.2-1.1,0.5-2.1,0.9-2.9c0.4-0.8,0.8-1.5,1.4-2.1
			c0.5-0.6,1.1-1.1,1.7-1.5s1.2-0.7,1.9-0.9c0.7-0.2,1.3-0.4,1.9-0.5c0.6-0.1,1.2-0.1,1.9-0.1c2.7,0,4.9,0.5,6.5,1.6
			c1.7,1,2.5,2.6,2.5,4.7c0,2.2-0.8,3.9-2.3,5s-3.9,1.6-7.2,1.6c-0.8,0-1.6,0-2.4-0.1s-1.4-0.1-1.8-0.2l-0.6-0.1
			c0,0.7,0.1,1.3,0.2,1.9s0.3,1.3,0.6,1.9s0.7,1.2,1.2,1.7s1.2,0.9,2,1.2s1.8,0.5,2.9,0.5s2-0.1,2.9-0.3s1.6-0.4,2.1-0.7
			s0.9-0.5,1.2-0.8c0.3-0.3,0.6-0.5,0.7-0.7l0.2-0.3c0,0.7-0.2,1.4-0.5,2.1c-0.3,0.6-0.8,1.2-1.4,1.7s-1.5,0.9-2.6,1.2
			s-2.4,0.4-3.8,0.4c-1.8,0-3.5-0.3-4.8-0.8c-1.4-0.5-2.5-1.3-3.3-2.3s-1.4-2.1-1.8-3.4C-82.3,509.6-82.5,508.2-82.5,506.6z
			 M-77.7,504.8c0.9,0.2,2.3,0.4,4.4,0.4c0.5,0,0.9,0,1.3-0.1c0.4,0,0.8-0.1,1.3-0.3c0.5-0.2,0.9-0.4,1.3-0.6
			c0.3-0.3,0.6-0.6,0.9-1.1c0.2-0.5,0.4-1.1,0.4-1.8c0-2.6-1.4-3.9-4.2-3.9c-0.6,0-1.2,0.1-1.7,0.2s-1,0.4-1.4,0.7
			c-0.5,0.3-0.8,0.8-1.1,1.3c-0.3,0.5-0.5,1.3-0.7,2.1C-77.6,502.6-77.7,503.6-77.7,504.8z"/>
	</g>
</g>
</svg>
