<?xml version="1.0" encoding="utf-8"?>
<!-- Generator: Adobe Illustrator 24.3.0, SVG Export Plug-In . SVG Version: 6.00 Build 0)  -->
<svg version="1.1" id="Laag_1" xmlns="http://www.w3.org/2000/svg" xmlns:xlink="http://www.w3.org/1999/xlink" x="0px" y="0px"
	 width="471.3px" height="231.6px" viewBox="0 0 471.3 231.6" style="enable-background:new 0 0 471.3 231.6;" xml:space="preserve"
	>
<style type="text/css">
	.st0{fill:#1A1D56;}
</style>
<g>
	<g>
		<path class="st0" d="M142.4,1.3c-2.7,0-3.3,0.8-3.3,2.8v15.5c0,3.1-0.5,5.2-2,6.7c-1.1,1.1-2.5,1.5-3.6,1.5c-1.9,0-3.3-1-3.3-2.2
			c0-0.8,0.6-1.4,1.4-1.4c1.9,0,1.5,2.3,3,2.3c1.1,0,1.5-0.8,1.5-3.6V3.8c0-1.7-0.6-2.7-3.6-2.5V0.4h9.9V1.3z"/>
		<path class="st0" d="M150,7.5c4.1,0,7.2,3.2,7.2,7.4c0,4.3-3.1,7.6-7.1,7.6c-4.2,0-7.3-3.2-7.3-7.5S145.9,7.5,150,7.5z
			 M147.7,20.5c0.5,0.5,1.4,1.2,2.8,1.2c2.4,0,4.1-2,4.1-4.8c0-1.5-0.4-5.3-2.4-7.4c-0.6-0.6-1.5-1.1-2.6-1.1c-2,0-4.4,1.2-4.4,5.2
			C145.3,15.6,146.1,18.8,147.7,20.5z"/>
		<path class="st0" d="M172.7,7.8v0.8c-1.4,0.3-1.9,0.9-2.9,3.6l-4.5,11.9c-0.9,2.3-2.3,4.1-4.4,4.1c-1.4,0-2.5-0.7-2.5-1.7
			c0-0.7,0.6-1.3,1.2-1.3c1,0,1.1,1.1,2.4,1.1c1.2,0,2-1.1,3-3.9l-5.2-11.6c-0.8-1.7-1.2-2.1-2.4-2.2V7.8h6.8v0.8
			c-1.4,0.1-1.9,0.4-1.9,1.2c0,0.5,0.2,1.1,0.9,2.7l3.1,6.8l2-5.3c0.8-2,1.1-3.1,1.1-3.6c0-1-0.5-1.5-2-1.7V7.8H172.7z"/>
		<path class="st0" d="M185.6,18.8c-1.4,2.4-3.6,3.8-5.9,3.8c-3.8,0-6.9-3.1-6.9-7.3c0-4.5,3.3-7.7,7.7-7.7c2.8,0,4.9,1.2,4.9,2.9
			c0,0.9-0.5,1.4-1.2,1.4c-2,0-0.8-3.4-4.3-3.4c-2.8,0-4.6,2.1-4.6,5.5c0,3.7,2.3,6.4,5.5,6.4c1.5,0,2.9-0.6,4.2-2L185.6,18.8z"/>
		<path class="st0" d="M189.2,13.1c-0.2,4.9,2.8,7.2,5.8,7.2c1.6,0,2.6-0.4,3.9-1.8l0.5,0.5c-1.5,2.3-3.5,3.5-5.7,3.5
			c-3.9,0-6.7-3.1-6.7-7.4c0-4.4,2.8-7.6,6.6-7.6c3.2,0,5.8,2.5,5.9,5.6H189.2z M196.5,12.2c-0.3-2.4-1.5-3.8-3.4-3.8
			c-1.9,0-3.4,1.5-3.7,3.8H196.5z"/>
		<path class="st0" d="M219.5,0.4c7.9,0,12.1,5.1,12.1,10.6c0,3.8-1.7,6.5-3.4,8.2c-1.9,1.9-4.4,3-9.9,3h-11v-0.9
			c3,0.1,3.6-0.8,3.6-2.8V4.2c0-2-0.5-3-3.6-2.8v-1C207.3,0.4,219.5,0.4,219.5,0.4z M213.9,17.9c0,2.4,1.1,3.4,4.4,3.4
			c3,0,5.7-0.6,7.5-2.4c2-2,2.5-4.7,2.5-7c0-3-0.9-5.8-2.8-7.6c-1.8-1.8-4.4-2.9-8-2.9H214L213.9,17.9L213.9,17.9z"/>
		<path class="st0" d="M238.6,7.5v11.2c0,2,0.4,2.7,2.2,2.7v0.8h-7.2v-0.8c2.1,0,2.5-0.5,2.5-2.8v-8.1l-2.3-1.2V8.9L238.6,7.5z
			 M237.3,0c0.9,0,1.6,0.7,1.6,1.6s-0.7,1.6-1.6,1.6c-0.9,0-1.6-0.7-1.6-1.6S236.5,0,237.3,0z"/>
		<path class="st0" d="M254.6,0.4c7.9,0,12.1,5.1,12.1,10.6c0,3.8-1.7,6.5-3.4,8.2c-1.9,1.9-4.4,3-9.9,3h-11v-0.9
			c3,0.1,3.6-0.8,3.6-2.8V4.2c0-2-0.5-3-3.6-2.8v-1C242.4,0.4,254.6,0.4,254.6,0.4z M249,17.9c0,2.4,1.1,3.4,4.4,3.4
			c3,0,5.7-0.6,7.5-2.4c2-2,2.5-4.7,2.5-7c0-3-0.9-5.8-2.8-7.6c-1.8-1.8-4.4-2.9-8-2.9h-3.5L249,17.9L249,17.9z"/>
		<path class="st0" d="M276.4,7.5c4.1,0,7.2,3.2,7.2,7.4c0,4.3-3.1,7.6-7.1,7.6c-4.2,0-7.3-3.2-7.3-7.5S272.3,7.5,276.4,7.5z
			 M274.1,20.5c0.5,0.5,1.4,1.2,2.8,1.2c2.4,0,4.1-2,4.1-4.8c0-1.5-0.4-5.3-2.4-7.4c-0.6-0.6-1.5-1.1-2.6-1.1c-2,0-4.4,1.2-4.4,5.2
			C271.7,15.6,272.5,18.8,274.1,20.5z"/>
		<path class="st0" d="M289.4,7.5v2.8c1.6-1.6,3.5-2.8,5.5-2.8c2.4,0,4.3,1.6,4.3,4.6v6.6c0,2,0.5,2.6,2.3,2.6v0.8h-7.3v-0.8
			c2.1,0,2.5-0.7,2.5-2.8v-6.3c0-1.7-1.1-2.9-2.9-2.9c-1.5,0-3.1,0.7-4.4,1.9v7.3c0,2,0.2,2.9,2.6,2.8v0.8h-7.5v-0.8
			c1.8,0,2.4-0.4,2.4-2.8v-8.2l-2.3-1.1V8.9L289.4,7.5z"/>
		<path class="st0" d="M315.9,20.8c-1,1.2-1.9,1.8-2.7,1.8c-1.3,0-2-0.9-2.1-2.6c-1.5,1.7-3.2,2.6-4.7,2.6c-2.2,0-3.7-1.4-3.7-3.4
			s1.2-3,5.4-4.5l2.9-1v-2.5c0-1.6-1.2-2.7-3-2.7c-1.4,0-2.7,0.8-2.7,1.7c0,0.7,0.8,1.5,0.8,1.9s-2,1.1-2.1,1.1
			c-0.3,0-0.9-1.1-0.9-2c0-2.1,2.5-3.7,5.8-3.7c3.2,0,4.5,1.3,4.5,3.8v7.4c0,1.1,0.3,1.6,0.9,1.6c0.4,0,0.7-0.1,1.2-0.4L315.9,20.8z
			 M307.3,16.2c-1.3,0.6-2,1.3-2,2.3c0,1.3,1,2.2,2.4,2.2c1.2,0,2.3-0.6,3.4-1.8v-4.4L307.3,16.2z"/>
		<path class="st0" d="M325.4,21.8c-1.3,0.5-3,0.8-4.1,0.8c-2.3,0-3.1-1.1-3.1-3.3V9h-2.6V8.2c2.1-0.6,3.5-1.7,4.3-3.6h0.8v3.1h4.4
			V9h-4.4v9.9c0,1.6,0.5,2.2,2.1,2.2c0.7,0,1.4-0.1,2.6-0.3V21.8z"/>
		<path class="st0" d="M332.9,7.5c4.1,0,7.2,3.2,7.2,7.4c0,4.3-3.1,7.6-7.1,7.6c-4.2,0-7.3-3.2-7.3-7.5S328.8,7.5,332.9,7.5z
			 M330.6,20.5c0.5,0.5,1.4,1.2,2.8,1.2c2.4,0,4.1-2,4.1-4.8c0-1.5-0.4-5.3-2.4-7.4c-0.6-0.6-1.5-1.1-2.6-1.1c-2,0-4.4,1.2-4.4,5.2
			C328.2,15.6,329,18.8,330.6,20.5z"/>
	</g>
	<g>
		<path class="st0" d="M118,35.3c-2.7,0-3.3,0.8-3.3,2.8v15.5c0,3.1-0.5,5.2-2,6.7c-1.1,1.1-2.5,1.5-3.6,1.5c-1.9,0-3.3-1-3.3-2.2
			c0-0.8,0.6-1.4,1.4-1.4c1.9,0,1.5,2.3,3,2.3c1.1,0,1.5-0.8,1.5-3.6V37.8c0-1.7-0.6-2.7-3.6-2.5v-0.9h9.9
			C118,34.4,118,35.3,118,35.3z"/>
		<path class="st0" d="M125.6,41.5c4.1,0,7.2,3.2,7.2,7.4c0,4.3-3.1,7.6-7.1,7.6c-4.2,0-7.3-3.2-7.3-7.5S121.5,41.5,125.6,41.5z
			 M123.3,54.5c0.5,0.5,1.4,1.2,2.8,1.2c2.4,0,4.1-2,4.1-4.8c0-1.5-0.4-5.3-2.4-7.4c-0.6-0.6-1.5-1.1-2.6-1.1c-2,0-4.4,1.2-4.4,5.2
			C120.9,49.6,121.7,52.8,123.3,54.5z"/>
		<path class="st0" d="M138.3,44.2c1.9-1.8,3.7-2.7,5.5-2.7c2.5,0,4.2,1.7,4.2,4.4v6.9c0,1.9,0.5,2.5,2.2,2.5v0.8h-6.9v-0.8
			c1.8,0,2.2-0.7,2.2-2.8v-5.8c0-2.3-0.9-3.5-2.9-3.5c-1.5,0-3,0.7-4.4,1.9v7.4c0,2.1,0.4,2.8,2.4,2.8v0.8h-7.2v-0.8
			c1.6,0,2.4-0.4,2.4-2.3V36.9l-2.2-1.1v-0.5l4.7-1.4C138.3,33.9,138.3,44.2,138.3,44.2z"/>
		<path class="st0" d="M156.4,41.5v2.8c1.6-1.6,3.5-2.8,5.5-2.8c2.4,0,4.3,1.6,4.3,4.6v6.6c0,2,0.5,2.6,2.3,2.6v0.8h-7.3v-0.8
			c2.1,0,2.5-0.7,2.5-2.8v-6.3c0-1.7-1.1-2.9-2.9-2.9c-1.5,0-3.1,0.7-4.4,1.9v7.3c0,2,0.2,2.9,2.6,2.8v0.8h-7.5v-0.8
			c1.8,0,2.4-0.4,2.4-2.8v-8.2l-2.3-1.1v-0.4L156.4,41.5z"/>
		<path class="st0" d="M191.7,48.7h-0.9c-0.3-2.3-1.5-3.4-4.6-3.4h-4.1V52c0,3,0.3,3.3,4.4,3.3c4.5,0,6.5-1.6,7.9-4.2h1l-1.3,5.2
			h-18.4v-0.9c2.7,0.1,3.4-0.7,3.4-2.8V38c0-2.1-0.7-2.8-3.4-2.7v-0.9h17.9l0.2,4.7h-1c-0.7-2.4-2.2-3.8-5.4-3.8h-5.3v9.1h4.3
			c2.6,0,4.3-0.9,4.4-3.5h0.9V48.7z"/>
		<path class="st0" d="M201.1,34v18.6c0,2.2,0.4,2.8,2.3,2.8v0.8h-7.1v-0.8c1.8-0.1,2.3-0.4,2.3-2.9V36.9l-2.3-1v-0.5L201.1,34z"/>
		<path class="st0" d="M209.5,41.5v11.2c0,2,0.4,2.7,2.2,2.7v0.8h-7.2v-0.8c2.1,0,2.5-0.5,2.5-2.8v-8.1l-2.3-1.1v-0.5L209.5,41.5z
			 M208.2,34c0.9,0,1.6,0.7,1.6,1.6c0,0.9-0.7,1.6-1.6,1.6c-0.9,0-1.6-0.7-1.6-1.6S207.3,34,208.2,34z"/>
		<path class="st0" d="M219.7,41.5c4.1,0,7.2,3.2,7.2,7.4c0,4.3-3.1,7.6-7.1,7.6c-4.2,0-7.3-3.2-7.3-7.5S215.6,41.5,219.7,41.5z
			 M217.4,54.5c0.5,0.5,1.4,1.2,2.8,1.2c2.4,0,4.1-2,4.1-4.8c0-1.5-0.4-5.3-2.4-7.4c-0.6-0.6-1.5-1.1-2.6-1.1c-2,0-4.4,1.2-4.4,5.2
			C215,49.6,215.8,52.8,217.4,54.5z"/>
		<path class="st0" d="M237.3,55.7c-1.3,0.5-3,0.8-4.1,0.8c-2.3,0-3.1-1.1-3.1-3.3V42.9h-2.6v-0.7c2.1-0.6,3.5-1.7,4.3-3.6h0.8v3.1
			h4.4v1.2h-4.4v9.9c0,1.6,0.5,2.2,2.1,2.2c0.7,0,1.4-0.1,2.6-0.3L237.3,55.7L237.3,55.7z"/>
		<path class="st0" d="M266.4,40.3h-0.9c-1.3-3.4-4.1-5.2-7.7-5.2c-5.1,0-9.2,3.7-9.2,9.9c0,6.1,3.9,10.5,9.4,10.5
			c2.1,0,4.4-0.6,5.8-1.5v-5c0-2.1-0.6-2.9-3.9-2.8v-0.9h9.9v0.9c-2.3-0.1-3.2,0.6-3.2,2.7v6c-3.1,1.1-6,1.7-8.5,1.7
			c-6.6,0-13.1-3.2-13.1-11c0-6.8,5.4-11.6,13.2-11.6c2.7,0,5,0.5,7.8,1.5L266.4,40.3z"/>
		<path class="st0" d="M284.5,54.8c-1,1.2-1.9,1.8-2.7,1.8c-1.3,0-2-0.9-2.1-2.6c-1.5,1.7-3.2,2.6-4.7,2.6c-2.2,0-3.7-1.4-3.7-3.4
			s1.2-3,5.4-4.5l2.9-1v-2.5c0-1.6-1.2-2.7-3-2.7c-1.4,0-2.7,0.8-2.7,1.7c0,0.7,0.8,1.5,0.8,1.9s-2,1.1-2.1,1.1
			c-0.3,0-0.9-1.1-0.9-2c0-2.1,2.5-3.7,5.8-3.7c3.2,0,4.5,1.3,4.5,3.8v7.4c0,1.1,0.3,1.6,0.9,1.6c0.4,0,0.7-0.1,1.2-0.4L284.5,54.8z
			 M275.9,50.1c-1.3,0.6-2,1.3-2,2.3c0,1.3,1,2.2,2.4,2.2c1.2,0,2.3-0.6,3.4-1.8v-4.4L275.9,50.1z"/>
		<path class="st0" d="M290.7,41.5v3.7h0.1c1.2-2.6,2.4-3.5,3.8-3.5c1.1,0,2.4,1,2.4,1.8c0,0.7-0.5,1.9-1.1,1.9
			c-0.8,0-1.3-1.5-2.4-1.5c-0.8,0-1.3,0.5-2.8,2.8v6.2c0,2,0.3,2.7,3.3,2.6v0.8h-8.3v-0.8c1.9,0,2.5-0.4,2.5-2.3v-8.6l-2.5-1.1v-0.4
			L290.7,41.5z"/>
		<path class="st0" d="M313.7,55.7l-4.8,0.8v-2.7c-2,2-3.4,2.7-5.3,2.7c-3.4,0-6-2.9-6-6.8c0-3.6,2.7-8.3,7.7-8.3
			c1.4,0,2.5,0.3,3.6,1.2v-5.7l-2.5-1.1v-0.5l5-1.4v19c0,1.4,0.4,1.9,1.3,1.9c0.4,0,0.8,0,1-0.1V55.7z M308.9,47.1
			c0-2.4-1.6-4.6-4.4-4.6s-4.5,2.3-4.5,5.8c0,3.7,2.1,6.4,5,6.4c1.4,0,2.6-0.6,3.9-2V47.1z"/>
		<path class="st0" d="M319.9,41.5v11.2c0,2,0.4,2.7,2.2,2.7v0.8h-7.2v-0.8c2.1,0,2.5-0.5,2.5-2.8v-8.1l-2.3-1.1v-0.5L319.9,41.5z
			 M318.6,34c0.9,0,1.6,0.7,1.6,1.6c0,0.9-0.7,1.6-1.6,1.6s-1.6-0.7-1.6-1.6S317.7,34,318.6,34z"/>
		<path class="st0" d="M328.2,41.5v2.8c1.6-1.6,3.5-2.8,5.5-2.8c2.4,0,4.3,1.6,4.3,4.6v6.6c0,2,0.5,2.6,2.3,2.6v0.8H333v-0.8
			c2.1,0,2.5-0.7,2.5-2.8v-6.3c0-1.7-1.1-2.9-2.9-2.9c-1.5,0-3.1,0.7-4.4,1.9v7.3c0,2,0.2,2.9,2.6,2.8v0.8h-7.5v-0.8
			c1.8,0,2.4-0.4,2.4-2.8v-8.2l-2.3-1.1v-0.4L328.2,41.5z"/>
		<path class="st0" d="M343.2,47.1c-0.2,4.9,2.8,7.2,5.8,7.2c1.6,0,2.6-0.4,3.9-1.8l0.5,0.5c-1.5,2.3-3.5,3.5-5.7,3.5
			c-3.9,0-6.7-3.1-6.7-7.4c0-4.4,2.8-7.6,6.6-7.6c3.2,0,5.8,2.5,5.9,5.6H343.2z M350.4,46.2c-0.3-2.4-1.5-3.8-3.4-3.8
			s-3.4,1.5-3.7,3.8H350.4z"/>
		<path class="st0" d="M359.3,41.5v3.7h0.1c1.2-2.6,2.4-3.5,3.8-3.5c1.1,0,2.4,1,2.4,1.8c0,0.7-0.5,1.9-1.1,1.9
			c-0.8,0-1.3-1.5-2.4-1.5c-0.8,0-1.3,0.5-2.8,2.8v6.2c0,2,0.3,2.7,3.3,2.6v0.8h-8.3v-0.8c1.9,0,2.5-0.4,2.5-2.3v-8.6l-2.5-1.1v-0.4
			L359.3,41.5z"/>
	</g>
	<g>
		<path class="st0" d="M187.6,68.4v0.9c-1.3,0-2.4,0.9-4.8,4.3l-5.2,7.5v5.3c0,2,0.6,2.9,3.2,2.8v0.9h-9.4v-0.9
			c2.6,0,3.2-0.7,3.2-2.8v-5.5l-6-8.8c-1.5-2.3-2.2-2.7-4-2.8v-0.9h9.5v0.9c-2-0.1-2.6,0.4-2.6,1.3c0,0.7,0.4,1.4,1.3,2.8l4.2,6.3
			l3.4-4.8c1-1.4,1.7-2.9,1.7-3.6c0-1.2-0.8-1.9-2.5-2v-0.9C179.6,68.4,187.6,68.4,187.6,68.4z"/>
		<path class="st0" d="M202.8,89.6l-4.9,0.9v-2.8c-1.6,1.8-3.6,2.8-5.5,2.8c-2.2,0-4.3-1.5-4.3-4.5v-7.1c0-1.5-0.5-2-2.5-2.2v-0.8
			c1.6,0,2.7-0.1,3.4-0.1c0.8-0.1,1.2-0.1,1.6-0.2v9.9c0,2.1,1.1,3.2,3.1,3.2c1.4,0,2.9-0.6,4.2-1.9v-7.6c0-1.8-0.4-2.5-2.6-2.5
			v-0.8c1.4,0,2.4-0.1,3.2-0.1c0.8-0.1,1.4-0.1,2-0.2v11.6c0,1.8,0.7,1.8,2.4,1.6L202.8,89.6L202.8,89.6z"/>
		<path class="st0" d="M207.9,75.5v13.2c0,2-0.5,2.8-4.5,7.5l-0.8-0.7c2.4-3.7,2.8-5.5,2.8-7V78.4l-2.5-1.1v-0.5L207.9,75.5z
			 M206.4,68c0.9,0,1.6,0.7,1.6,1.6s-0.7,1.6-1.6,1.6c-0.9,0-1.6-0.7-1.6-1.6S205.5,68,206.4,68z"/>
		<path class="st0" d="M223.9,88.8c-1,1.2-1.9,1.8-2.7,1.8c-1.3,0-2-0.9-2.1-2.6c-1.5,1.7-3.2,2.6-4.7,2.6c-2.2,0-3.7-1.4-3.7-3.4
			s1.2-3,5.4-4.5l2.9-1v-2.5c0-1.6-1.2-2.7-3-2.7c-1.4,0-2.7,0.8-2.7,1.7c0,0.7,0.8,1.5,0.8,1.9s-2,1.1-2.1,1.1
			c-0.3,0-0.9-1.1-0.9-2c0-2.1,2.5-3.7,5.8-3.7c3.2,0,4.5,1.3,4.5,3.8v7.4c0,1.1,0.3,1.6,0.9,1.6c0.4,0,0.7-0.1,1.2-0.4L223.9,88.8z
			 M215.3,84.1c-1.3,0.6-2,1.3-2,2.3c0,1.3,1,2.2,2.4,2.2c1.2,0,2.3-0.6,3.4-1.8v-4.4L215.3,84.1z"/>
		<path class="st0" d="M262.8,68.4v0.9c-0.2,0-1.1,0.3-1.4,0.6c-0.5,0.5-1.2,1.9-1.9,3.5l-3.2,7.6c-0.7,1.7-3.6,7.2-3.9,9.6h-1.3
			c-0.3-1.2-0.9-2.8-1.7-4.4l-2.3-4.8l-3.1,6c-0.9,1.7-1.2,2.4-1.3,3.2h-1.4c-0.1-0.7-0.7-2.2-1.7-4.5l-4.8-10.8
			c-1-2.3-1.7-4.4-2.6-5.4c-0.4-0.4-1-0.6-1.4-0.6v-0.9h7.6v0.9c-1.2,0.1-1.9,0.8-1.9,1.9c0,2,3.1,6.7,6.6,15.9
			c0.5-1.4,2.3-4.6,3.4-6.9l-3.3-6.9c-1.6-3.5-2-3.9-3.3-4v-0.9h7.4v0.9c-1,0.1-1.6,0.7-1.6,1.7c0,0.9,0.4,1.9,0.8,2.6l1.7,3.3
			l1.9-3.5c0.1-0.3,0.6-1.5,0.6-2.1c0-1-0.7-1.9-1.7-2v-0.9h5.9v0.9c-1.3,0.1-2.3,1.5-4,4.8l-2.1,4.1c1.4,3.1,3.6,7.4,3.8,8.3
			c0.7-1.6,1.3-2.8,2-4.3l2.1-5c0.9-2.1,1.8-4.8,1.8-5.7c0-1.3-0.7-2.1-2-2.2v-0.9C256.5,68.4,262.8,68.4,262.8,68.4z"/>
		<path class="st0" d="M274.8,88.8c-1,1.2-1.9,1.8-2.7,1.8c-1.3,0-2-0.9-2.1-2.6c-1.5,1.7-3.2,2.6-4.7,2.6c-2.2,0-3.7-1.4-3.7-3.4
			s1.2-3,5.4-4.5l2.9-1v-2.5c0-1.6-1.2-2.7-3-2.7c-1.4,0-2.7,0.8-2.7,1.7c0,0.7,0.8,1.5,0.8,1.9s-2,1.1-2.1,1.1
			c-0.3,0-0.9-1.1-0.9-2c0-2.1,2.5-3.7,5.8-3.7c3.2,0,4.5,1.3,4.5,3.8v7.4c0,1.1,0.3,1.6,0.9,1.6c0.4,0,0.7-0.1,1.2-0.4L274.8,88.8z
			 M266.2,84.1c-1.3,0.6-2,1.3-2,2.3c0,1.3,1,2.2,2.4,2.2c1.2,0,2.3-0.6,3.4-1.8v-4.4L266.2,84.1z"/>
		<path class="st0" d="M280.9,75.5v2.8c1.6-1.6,3.5-2.8,5.5-2.8c2.4,0,4.3,1.6,4.3,4.6v6.6c0,2,0.5,2.6,2.3,2.6v0.8h-7.3v-0.8
			c2.1,0,2.5-0.7,2.5-2.8v-6.3c0-1.7-1.1-2.9-2.9-2.9c-1.5,0-3.1,0.7-4.4,1.9v7.3c0,2,0.2,2.9,2.6,2.8v0.8H276v-0.8
			c1.8,0,2.4-0.4,2.4-2.8v-8.2l-2.3-1.1v-0.4L280.9,75.5z"/>
		<path class="st0" d="M308.8,78.3c-0.2,0.1-0.6,0.1-0.8,0.1c-0.8,0-1.7-0.2-2.7-0.4l-0.1,0.1c0.5,0.7,0.8,1.7,0.8,2.6
			c0,2.8-2.5,5-5.7,5c-0.8,0-1.6-0.1-2.1-0.3c-0.9,0.7-1.4,1.3-1.4,1.7c0,0.7,0.9,1,3.6,1h2.5c3.4,0,5.1,1.2,5.1,3.3
			c0,3-3.6,5.2-8.4,5.2c-3,0-5.9-1-5.9-3c0-1,1-2.3,2.7-3.5c-1.2-0.3-1.8-0.9-1.8-1.7c0-0.8,0.4-1.4,2.7-3.4
			c-1.6-0.8-2.7-2.4-2.7-4.2c0-2.9,2.5-5.2,5.7-5.2c1.4,0,2.1,0.3,3,0.5c0.9,0.3,2,0.5,4,0.5c0.5,0,0.9,0,1.4-0.1L308.8,78.3
			L308.8,78.3z M295.8,92.8c0,1.3,1.9,2.3,4.5,2.3c3.4,0,6.1-1.3,6.1-2.9c0-1.4-1.2-1.8-4.5-1.8c-2.2,0-3.1-0.1-4.3-0.3
			C296.3,91.2,295.8,91.9,295.8,92.8z M300.7,84.6c1.7,0,2.8-1.3,2.8-3.3c0-1.2-0.4-4.8-3.4-4.8c-1.8,0-2.9,1.3-2.9,3.6
			C297.3,82.8,298.6,84.6,300.7,84.6z"/>
	</g>
	<g>
		<path class="st0" d="M158.9,109.9c0.3-1.4,0.5-2.9,0.5-4.2c0-1.6-1-2.5-2.6-2.5v-0.9h5.6c0.1,1.6,1.9,6,2.8,8.1l1.5,3.3
			c1.1,2.4,1.7,3.2,3,6.4c0.4-1.2,0.8-2,1.9-4l2.3-4.6c2.4-4.8,2.9-6.8,2.9-9.2h6v0.9c-2-0.1-2.7,0.6-2.7,2.4c0,0.5,0.1,1.2,0.2,2
			L182,120c0.3,2.3,1.2,3,3.1,3.2v0.9h-9.3v-0.9c1.9,0,3-1,3-2.6c0-0.2-0.1-1.5-0.3-3.4l-1.2-10.9h-0.1c-0.2,0.6-0.3,0.9-0.7,1.8
			c-0.8,1.8-0.9,2.1-1.9,4l-1.1,2.1c-1.4,2.8-1.7,3.4-2.3,4.6c-0.7,1.6-1.3,3.1-1.6,3.9c-0.2,0.6-0.3,0.8-0.4,1.4H168
			c-0.4-1.6-0.9-3-2-5.4l-3.1-6.6c-1-2.1-1.9-4.3-2.4-5.9h-0.1l-1.8,11.9c-0.2,1-0.2,1.4-0.2,2c0,1.9,0.8,2.7,3,3v0.9h-7.6v-0.9
			c2.3-0.2,3.1-2.5,3.7-6.2L158.9,109.9z"/>
		<path class="st0" d="M199.9,122.8c-1,1.2-1.9,1.8-2.7,1.8c-1.3,0-2-0.9-2.1-2.6c-1.5,1.7-3.2,2.6-4.7,2.6c-2.2,0-3.7-1.4-3.7-3.4
			s1.2-3,5.4-4.5l2.9-1v-2.5c0-1.6-1.2-2.7-3-2.7c-1.4,0-2.7,0.8-2.7,1.7c0,0.7,0.8,1.5,0.8,1.9s-2,1.1-2.1,1.1
			c-0.3,0-0.9-1.1-0.9-2c0-2.1,2.5-3.7,5.8-3.7c3.2,0,4.5,1.3,4.5,3.8v7.4c0,1.1,0.3,1.6,0.9,1.6c0.4,0,0.7-0.1,1.2-0.4L199.9,122.8
			z M191.3,118.1c-1.3,0.6-2,1.3-2,2.3c0,1.3,1,2.2,2.4,2.2c1.2,0,2.3-0.6,3.4-1.8v-4.4L191.3,118.1z"/>
		<path class="st0" d="M206.6,119.7c-1.2,1.3-1.4,1.8-1.4,2.3c0,0.8,0.7,1.2,1.8,1.3v0.8h-5.9v-0.8c0.8-0.1,1.8-0.6,4-3.1l2.5-2.9
			l-4.3-5.2c-1.1-1.3-1.3-1.5-2.4-1.6v-0.8h6.4v0.8c-1,0-1.4,0.3-1.4,0.7c0,0.4,0.1,0.5,1.1,1.7l2,2.5l1.7-1.9
			c0.6-0.7,1.1-1.5,1.1-1.9c0-0.7-0.5-1-1.5-1.1v-0.8h5.5v0.8c-0.9,0-1.9,0.6-2.8,1.7l-3.4,3.9l4.3,5.2c1.1,1.4,1.8,1.8,2.6,2v0.8
			h-6.9v-0.8c1.1-0.1,1.6-0.4,1.6-1c0-0.4-0.2-0.8-1.1-1.9l-2-2.4L206.6,119.7z"/>
		<path class="st0" d="M246.3,123.8c-1,0.2-1.7,0.3-2.4,0.3c-1.7,0-2.9-0.8-4.9-3.2l-5.3-6.3c-0.6-0.7-0.8-0.8-1.9-0.8h-1.7v6.5
			c0,2,0.5,2.9,3.3,2.8v0.9h-9.5v-0.9c2.8,0.1,3.3-0.8,3.3-2.8V106c0-1.9-0.6-2.8-3.3-2.7v-0.9h10.7c4.6,0,7.6,2.4,7.6,5.6
			c0,2.1-1.4,4.7-6.1,5.4c0.9,1,1.9,2.1,2.5,2.7l3.9,4.6c1.8,2,2.7,2.6,3.7,2.6L246.3,123.8L246.3,123.8z M232.7,112.7
			c4.4,0,6.1-1.7,6.1-4.4c0-2.9-1.7-5-6-5h-2.6v9.4H232.7z"/>
		<path class="st0" d="M252.6,109.4v11.2c0,2,0.4,2.7,2.2,2.7v0.8h-7.2v-0.8c2.1,0,2.5-0.5,2.5-2.8v-8.1l-2.3-1.1v-0.5L252.6,109.4z
			 M251.3,102c0.9,0,1.6,0.7,1.6,1.6s-0.7,1.6-1.6,1.6c-0.9,0-1.6-0.7-1.6-1.6S250.4,102,251.3,102z"/>
		<path class="st0" d="M268.4,120.7c-1.4,2.4-3.6,3.8-5.9,3.8c-3.8,0-6.9-3.1-6.9-7.3c0-4.5,3.3-7.7,7.7-7.7c2.8,0,4.9,1.2,4.9,2.9
			c0,0.9-0.5,1.4-1.2,1.4c-2,0-0.8-3.4-4.3-3.4c-2.8,0-4.6,2.1-4.6,5.5c0,3.7,2.3,6.4,5.5,6.4c1.5,0,2.9-0.6,4.2-2L268.4,120.7z"/>
		<path class="st0" d="M273.7,112.2c1.9-1.8,3.7-2.7,5.5-2.7c2.5,0,4.2,1.7,4.2,4.4v6.9c0,1.9,0.5,2.5,2.2,2.5v0.8h-6.9v-0.8
			c1.8,0,2.2-0.7,2.2-2.8v-5.8c0-2.3-0.9-3.5-2.9-3.5c-1.5,0-3,0.7-4.4,1.9v7.4c0,2.1,0.4,2.8,2.4,2.8v0.8h-7.2v-0.8
			c1.6,0,2.4-0.4,2.4-2.3v-16.1l-2.2-1.1v-0.5l4.7-1.4V112.2z"/>
		<path class="st0" d="M295.1,123.7c-1.3,0.5-3,0.8-4.1,0.8c-2.3,0-3.1-1.1-3.1-3.3v-10.3h-2.6v-0.7c2.1-0.6,3.5-1.7,4.3-3.6h0.8
			v3.1h4.4v1.2h-4.4v9.9c0,1.6,0.5,2.2,2.1,2.2c0.7,0,1.4-0.1,2.6-0.3V123.7z"/>
		<path class="st0" d="M297.6,115.1c-0.2,4.9,2.8,7.2,5.8,7.2c1.6,0,2.6-0.4,3.9-1.8l0.5,0.5c-1.5,2.3-3.5,3.5-5.7,3.5
			c-3.9,0-6.7-3.1-6.7-7.4c0-4.4,2.8-7.6,6.6-7.6c3.2,0,5.8,2.5,5.9,5.6C307.9,115.1,297.6,115.1,297.6,115.1z M304.8,114.2
			c-0.3-2.4-1.5-3.8-3.4-3.8s-3.4,1.5-3.7,3.8H304.8z"/>
		<path class="st0" d="M313.7,109.4v3.7h0.1c1.2-2.6,2.4-3.5,3.8-3.5c1.1,0,2.4,1,2.4,1.8c0,0.7-0.5,1.9-1.1,1.9
			c-0.8,0-1.3-1.5-2.4-1.5c-0.8,0-1.3,0.5-2.8,2.8v6.2c0,2,0.3,2.7,3.3,2.6v0.8h-8.3v-0.8c1.9,0,2.5-0.4,2.5-2.3v-8.6l-2.5-1.1V111
			L313.7,109.4z"/>
	</g>
	<g>
		<path class="st0" d="M20,169.2c7.9,0,12.1,5.1,12.1,10.6c0,3.8-1.7,6.5-3.4,8.2c-1.9,1.9-4.4,3-9.9,3h-11v-0.9
			c3,0.1,3.6-0.8,3.6-2.8V173c0-2-0.5-3-3.6-2.8v-0.9H20C20,169.3,20,169.2,20,169.2z M14.4,186.7c0,2.4,1.1,3.4,4.4,3.4
			c3,0,5.7-0.6,7.5-2.4c2-2,2.5-4.7,2.5-7c0-3-0.9-5.8-2.8-7.6c-1.8-1.8-4.4-2.9-8-2.9h-3.5v16.5H14.4z"/>
		<path class="st0" d="M39.1,176.3v11.2c0,2,0.4,2.7,2.2,2.7v0.8h-7.2v-0.8c2.1,0,2.5-0.5,2.5-2.8v-8.1l-2.3-1.1v-0.5L39.1,176.3z
			 M37.9,168.8c0.9,0,1.6,0.7,1.6,1.6c0,0.9-0.7,1.6-1.6,1.6s-1.6-0.7-1.6-1.6C36.2,169.6,37,168.8,37.9,168.8z"/>
		<path class="st0" d="M55.8,189.6c-1,1.2-1.9,1.8-2.7,1.8c-1.3,0-2-0.9-2.1-2.6c-1.5,1.7-3.2,2.6-4.7,2.6c-2.2,0-3.7-1.4-3.7-3.4
			s1.2-3,5.4-4.5l2.9-1V180c0-1.6-1.2-2.7-3-2.7c-1.4,0-2.7,0.8-2.7,1.7c0,0.7,0.8,1.5,0.8,1.9s-2,1.1-2.1,1.1c-0.3,0-0.9-1.1-0.9-2
			c0-2.1,2.5-3.7,5.8-3.7c3.2,0,4.5,1.3,4.5,3.8v7.4c0,1.1,0.3,1.6,0.9,1.6c0.4,0,0.7-0.1,1.2-0.4L55.8,189.6z M47.2,185
			c-1.3,0.6-2,1.3-2,2.3c0,1.3,1,2.2,2.4,2.2c1.2,0,2.3-0.6,3.4-1.8v-4.4L47.2,185z"/>
		<path class="st0" d="M62,176.3v2.8c1.6-1.6,3.5-2.8,5.5-2.8c2.4,0,4.3,1.6,4.3,4.6v6.6c0,2,0.5,2.6,2.3,2.6v0.8h-7.3v-0.8
			c2.1,0,2.5-0.7,2.5-2.8V181c0-1.7-1.1-2.9-2.9-2.9c-1.5,0-3.1,0.7-4.4,1.9v7.3c0,2,0.2,2.9,2.6,2.8v0.8h-7.5v-0.8
			c1.8,0,2.4-0.4,2.4-2.8v-8.2l-2.3-1.1v-0.4L62,176.3z"/>
		<path class="st0" d="M88.5,189.6c-1,1.2-1.9,1.8-2.7,1.8c-1.3,0-2-0.9-2.1-2.6c-1.5,1.7-3.2,2.6-4.7,2.6c-2.2,0-3.7-1.4-3.7-3.4
			s1.2-3,5.4-4.5l2.9-1V180c0-1.6-1.2-2.7-3-2.7c-1.4,0-2.7,0.8-2.7,1.7c0,0.7,0.8,1.5,0.8,1.9s-2,1.1-2.1,1.1c-0.3,0-0.9-1.1-0.9-2
			c0-2.1,2.5-3.7,5.8-3.7c3.2,0,4.5,1.3,4.5,3.8v7.4c0,1.1,0.3,1.6,0.9,1.6c0.4,0,0.7-0.1,1.2-0.4L88.5,189.6z M79.9,185
			c-1.3,0.6-2,1.3-2,2.3c0,1.3,1,2.2,2.4,2.2c1.2,0,2.3-0.6,3.4-1.8v-4.4L79.9,185z"/>
		<path class="st0" d="M108.1,169.2c7.9,0,12.1,5.1,12.1,10.6c0,3.8-1.7,6.5-3.4,8.2c-1.9,1.9-4.4,3-9.9,3h-11v-0.9
			c3,0.1,3.6-0.8,3.6-2.8V173c0-2-0.5-3-3.6-2.8v-0.9h12.2V169.2z M102.5,186.7c0,2.4,1.1,3.4,4.4,3.4c3,0,5.7-0.6,7.5-2.4
			c2-2,2.5-4.7,2.5-7c0-3-0.9-5.8-2.8-7.6c-1.8-1.8-4.4-2.9-8-2.9h-3.5L102.5,186.7L102.5,186.7z"/>
		<path class="st0" d="M135.8,189.6c-1,1.2-1.9,1.8-2.7,1.8c-1.3,0-2-0.9-2.1-2.6c-1.5,1.7-3.2,2.6-4.7,2.6c-2.2,0-3.7-1.4-3.7-3.4
			s1.2-3,5.4-4.5l2.9-1V180c0-1.6-1.2-2.7-3-2.7c-1.4,0-2.7,0.8-2.7,1.7c0,0.7,0.8,1.5,0.8,1.9s-2,1.1-2.1,1.1c-0.3,0-0.9-1.1-0.9-2
			c0-2.1,2.5-3.7,5.8-3.7c3.2,0,4.5,1.3,4.5,3.8v7.4c0,1.1,0.3,1.6,0.9,1.6c0.4,0,0.7-0.1,1.2-0.4L135.8,189.6z M127.2,185
			c-1.3,0.6-2,1.3-2,2.3c0,1.3,1,2.2,2.4,2.2c1.2,0,2.3-0.6,3.4-1.8v-4.4L127.2,185z"/>
		<path class="st0" d="M142,176.3v2.5c1.5-1.6,3.4-2.5,5.2-2.5c2,0,3.6,1.1,4.1,2.7c1.8-1.9,3.6-2.7,5.5-2.7c1.7,0,4.3,1,4.3,3.9
			v7.3c0,1.9,0.3,2.7,2.3,2.7v0.8h-7v-0.8c1.5,0,2.2-0.6,2.2-2.5v-5.9c0-2-0.6-3.5-3.1-3.5c-1.3,0-2.7,0.6-3.9,1.7v7.7
			c0,1.8,0.4,2.6,2.3,2.6v0.8h-7.2v-0.8c1.9,0,2.4-0.7,2.4-2.7v-6.4c0-1.7-1.2-2.8-3.1-2.8c-1.3,0-2.8,0.6-3.9,1.7v7.6
			c0,2,0.4,2.7,2.3,2.7v0.8h-7.3v-0.8c2.2,0,2.5-0.6,2.5-3v-8l-2.2-1.1v-0.5L142,176.3z"/>
		<path class="st0" d="M169.5,176.3v3.7h0.1c1.2-2.6,2.4-3.5,3.8-3.5c1.1,0,2.4,1,2.4,1.8c0,0.7-0.5,1.9-1.1,1.9
			c-0.8,0-1.3-1.5-2.4-1.5c-0.8,0-1.3,0.5-2.8,2.8v6.2c0,2,0.3,2.7,3.3,2.6v0.8h-8.3v-0.8c1.9,0,2.5-0.4,2.5-2.3v-8.6l-2.5-1.1v-0.4
			L169.5,176.3z"/>
		<path class="st0" d="M190,189.6c-1,1.2-1.9,1.8-2.7,1.8c-1.3,0-2-0.9-2.1-2.6c-1.5,1.7-3.2,2.6-4.7,2.6c-2.2,0-3.7-1.4-3.7-3.4
			s1.2-3,5.4-4.5l2.9-1V180c0-1.6-1.2-2.7-3-2.7c-1.4,0-2.7,0.8-2.7,1.7c0,0.7,0.8,1.5,0.8,1.9s-2,1.1-2.1,1.1c-0.3,0-0.9-1.1-0.9-2
			c0-2.1,2.5-3.7,5.8-3.7c3.2,0,4.5,1.3,4.5,3.8v7.4c0,1.1,0.3,1.6,0.9,1.6c0.4,0,0.7-0.1,1.2-0.4L190,189.6z M181.4,185
			c-1.3,0.6-2,1.3-2,2.3c0,1.3,1,2.2,2.4,2.2c1.2,0,2.3-0.6,3.4-1.8v-4.4L181.4,185z"/>
		<path class="st0" d="M206.8,190.5l-4.9,0.9v-2.8c-1.6,1.8-3.6,2.8-5.5,2.8c-2.2,0-4.3-1.5-4.3-4.5v-7.1c0-1.5-0.5-2-2.5-2.2v-0.8
			c1.6,0,2.7-0.1,3.4-0.1c0.8-0.1,1.2-0.1,1.6-0.2v9.9c0,2.1,1.1,3.2,3.1,3.2c1.4,0,2.9-0.6,4.2-1.9v-7.6c0-1.8-0.4-2.5-2.6-2.5
			v-0.8c1.4,0,2.4-0.1,3.2-0.1c0.8-0.1,1.4-0.1,2-0.2v11.6c0,1.8,0.7,1.8,2.4,1.6L206.8,190.5L206.8,190.5z"/>
	</g>
	<g>
		<path class="st0" d="M235.5,177.6v0.9c-0.9,0.1-1.4,0.4-2.2,1.2c-1.2,1.2-2,4.2-4,6.6c0.5,1,1.5,2.3,2.2,3c2,2,4,0.6,4,1.9
			c0,0.6-0.6,0.8-2.3,0.8c-2.6,0-4-0.7-5.9-3.3c-2.3,2.2-4.8,3.3-7.4,3.3c-3.5,0-6.3-2.5-6.3-5.7c0-1.9,0.9-3.9,3.1-5.4l3-2
			c-1.6-1.8-2.4-3.2-2.4-4.1c0-1.2,0.8-2.6,2.2-3.7c1.2-1,2.7-1.7,3.7-1.7c1.9,0,4.3,2.2,4.3,4.1c0,1.2-0.9,2.1-4.5,4.6
			c2.2,2.2,4.6,5.3,5.8,7.5c1.6-2,2.3-4.3,2.3-5.1c0-1.1-0.6-1.7-2-2v-0.9L235.5,177.6L235.5,177.6z M216.5,184.7
			c0,2.6,2.8,5.3,5.4,5.3c1.6,0,3.3-0.7,4.8-2.2c-1.5-2.3-3.2-4.9-6.2-8.1C217.4,181.9,216.5,183,216.5,184.7z M222.2,177.3
			c2.3-1.7,3-2.6,3-3.5c0-1.3-1.8-3-3.1-3c-0.8,0-2.7,1.4-2.7,2.7c0,0.7,0.4,1.5,1.4,2.4L222.2,177.3z"/>
		<path class="st0" d="M252.2,170.7c-2.7,0-3.3,0.8-3.3,2.8V189c0,3.1-0.5,5.2-2,6.7c-1.1,1.1-2.5,1.5-3.6,1.5c-1.9,0-3.3-1-3.3-2.2
			c0-0.8,0.6-1.4,1.4-1.4c1.9,0,1.5,2.3,3,2.3c1.1,0,1.5-0.8,1.5-3.6v-19.1c0-1.7-0.6-2.7-3.6-2.5v-0.9h9.9V170.7z"/>
		<path class="st0" d="M259.8,176.9c4.1,0,7.2,3.2,7.2,7.4c0,4.3-3.1,7.6-7.1,7.6c-4.2,0-7.3-3.2-7.3-7.5
			C252.6,180.1,255.7,176.9,259.8,176.9z M257.5,189.9c0.5,0.5,1.4,1.2,2.8,1.2c2.4,0,4.1-2,4.1-4.8c0-1.5-0.4-5.3-2.4-7.4
			c-0.6-0.6-1.5-1.1-2.6-1.1c-2,0-4.4,1.2-4.4,5.2C255.1,185.1,255.9,188.3,257.5,189.9z"/>
		<path class="st0" d="M272.8,176.9v2.8c1.6-1.6,3.5-2.8,5.5-2.8c2.4,0,4.3,1.6,4.3,4.6v6.6c0,2,0.5,2.6,2.3,2.6v0.8h-7.3v-0.8
			c2.1,0,2.5-0.7,2.5-2.8v-6.3c0-1.7-1.1-2.9-2.9-2.9c-1.5,0-3.1,0.7-4.4,1.9v7.3c0,2,0.2,2.9,2.6,2.8v0.8h-7.5v-0.8
			c1.8,0,2.4-0.4,2.4-2.8v-8.2l-2.3-1.1v-0.4L272.8,176.9z"/>
		<path class="st0" d="M299.4,190.2c-1,1.2-1.9,1.8-2.7,1.8c-1.3,0-2-0.9-2.1-2.6c-1.5,1.7-3.2,2.6-4.7,2.6c-2.2,0-3.7-1.4-3.7-3.4
			s1.2-3,5.4-4.5l2.9-1v-2.5c0-1.6-1.2-2.7-3-2.7c-1.4,0-2.7,0.8-2.7,1.7c0,0.7,0.8,1.5,0.8,1.9s-2,1.1-2.1,1.1
			c-0.3,0-0.9-1.1-0.9-2c0-2.1,2.5-3.7,5.8-3.7c3.2,0,4.5,1.3,4.5,3.8v7.4c0,1.1,0.3,1.6,0.9,1.6c0.4,0,0.7-0.1,1.2-0.4L299.4,190.2
			z M290.7,185.6c-1.3,0.6-2,1.3-2,2.3c0,1.3,1,2.2,2.4,2.2c1.2,0,2.3-0.6,3.4-1.8v-4.4L290.7,185.6z"/>
		<path class="st0" d="M302,186.8c0.3,2.5,1.6,4.2,3.7,4.2c1.6,0,2.8-1.1,2.8-2.5c0-0.4-0.1-1.1-0.5-1.4c-1.6-1.6-4.5-2-6.3-3.8
			c-0.6-0.6-1-1.4-1-2.5c0-2.3,2-3.9,4.7-3.9c1.5,0,2.9,0.5,4.1,1.4v3.4h-0.8c-0.5-2.6-1.5-3.8-3.3-3.8c-1.5,0-2.5,0.9-2.5,2.2
			c0,0.6,0.2,1.1,0.6,1.5c1.3,1.3,4.2,1.8,6,3.6c0.8,0.8,1.1,1.7,1.1,2.7c0,2.4-2.1,4.2-5,4.2c-1.5,0-3.1-0.4-4.4-1.2v-4L302,186.8
			L302,186.8z"/>
		<path class="st0" d="M328.5,191.6h-9.7v-0.9c2.8,0.1,3.4-0.7,3.4-2.7v-14.6c0-2.1-0.8-2.8-3.4-2.7v-0.9h9.7v0.9
			c-2.5,0-3.4,0.4-3.4,2.8v14.2c0,2.2,0.5,3.1,3.4,3V191.6z M341.2,169.8v0.9c-0.6,0-1.3,0.2-2.2,0.6c-2.4,1.2-6.4,5.2-10.5,8.1
			c4.4,3.3,10.5,9.4,12.8,10.7c0.7,0.4,1.5,0.6,2.3,0.6v0.9h-5.2c-3.2-2.4-6.4-5.9-13.1-11.1c5-3.5,6.8-4.9,7.8-6
			c0.9-0.9,1.2-1.4,1.2-2.1c0-1-0.7-1.5-2.2-1.7v-0.9H341.2z"/>
		<path class="st0" d="M358.1,190.2c-1,1.2-1.9,1.8-2.7,1.8c-1.3,0-2-0.9-2.1-2.6c-1.5,1.7-3.2,2.6-4.7,2.6c-2.2,0-3.7-1.4-3.7-3.4
			s1.2-3,5.4-4.5l2.9-1v-2.5c0-1.6-1.2-2.7-3-2.7c-1.4,0-2.7,0.8-2.7,1.7c0,0.7,0.8,1.5,0.8,1.9s-2,1.1-2.1,1.1
			c-0.3,0-0.9-1.1-0.9-2c0-2.1,2.5-3.7,5.8-3.7c3.2,0,4.5,1.3,4.5,3.8v7.4c0,1.1,0.3,1.6,0.9,1.6c0.4,0,0.7-0.1,1.2-0.4L358.1,190.2
			z M349.5,185.6c-1.3,0.6-2,1.3-2,2.3c0,1.3,1,2.2,2.4,2.2c1.2,0,2.3-0.6,3.4-1.8v-4.4L349.5,185.6z"/>
		<path class="st0" d="M374.9,191l-4.9,0.9v-2.8c-1.6,1.8-3.6,2.8-5.5,2.8c-2.2,0-4.3-1.5-4.3-4.5v-7.1c0-1.5-0.5-2-2.5-2.2v-0.8
			c1.6,0,2.7-0.1,3.4-0.1c0.8-0.1,1.2-0.1,1.6-0.2v9.9c0,2.1,1.1,3.2,3.1,3.2c1.4,0,2.9-0.6,4.2-1.9v-7.6c0-1.8-0.4-2.5-2.6-2.5
			v-0.8c1.4,0,2.4-0.1,3.2-0.1c0.8-0.1,1.4-0.1,2-0.2v11.6c0,1.8,0.7,1.8,2.4,1.6L374.9,191L374.9,191z"/>
		<path class="st0" d="M385.2,178.4h-3.7v9.6c0,2.5,0.4,2.9,3.3,2.8v0.8h-8.4v-0.8c2.3,0.1,2.7-0.6,2.7-2.7v-9.7h-2.6v-1.2
			c1.7,0,2.1-0.1,2.4-0.4c0.8-0.8,0-3.7,1.9-5.6c1.1-1.1,2.6-1.8,4.7-1.8c2.1,0,3.3,0.6,3.3,1.8c0,0.7-0.5,1.3-1.3,1.3
			c-1.4,0-2.1-2-3.4-2c-1.8,0-2.6,1.6-2.6,3.5v3.2h3.7V178.4L385.2,178.4z"/>
		<path class="st0" d="M391.5,176.9v2.5c1.5-1.6,3.4-2.5,5.2-2.5c2,0,3.6,1.1,4.1,2.7c1.8-1.9,3.6-2.7,5.5-2.7c1.7,0,4.3,1,4.3,3.9
			v7.3c0,1.9,0.3,2.7,2.3,2.7v0.8h-7v-0.8c1.5,0,2.2-0.6,2.2-2.5v-5.9c0-2-0.6-3.5-3.1-3.5c-1.3,0-2.7,0.6-3.9,1.7v7.7
			c0,1.8,0.4,2.6,2.3,2.6v0.8h-7.2v-0.8c1.9,0,2.4-0.7,2.4-2.7v-6.4c0-1.7-1.2-2.8-3.1-2.8c-1.3,0-2.8,0.6-3.9,1.7v7.6
			c0,2,0.4,2.7,2.3,2.7v0.8h-7.3V191c2.2,0,2.5-0.6,2.5-3v-8l-2.2-1.1v-0.5L391.5,176.9z"/>
		<path class="st0" d="M427.3,190.2c-1,1.2-1.9,1.8-2.7,1.8c-1.3,0-2-0.9-2.1-2.6c-1.5,1.7-3.2,2.6-4.7,2.6c-2.2,0-3.7-1.4-3.7-3.4
			s1.2-3,5.4-4.5l2.9-1v-2.5c0-1.6-1.2-2.7-3-2.7c-1.4,0-2.7,0.8-2.7,1.7c0,0.7,0.8,1.5,0.8,1.9s-2,1.1-2.1,1.1
			c-0.3,0-0.9-1.1-0.9-2c0-2.1,2.5-3.7,5.8-3.7c3.2,0,4.5,1.3,4.5,3.8v7.4c0,1.1,0.3,1.6,0.9,1.6c0.4,0,0.7-0.1,1.2-0.4L427.3,190.2
			z M418.7,185.6c-1.3,0.6-2,1.3-2,2.3c0,1.3,1,2.2,2.4,2.2c1.2,0,2.3-0.6,3.4-1.8v-4.4L418.7,185.6z"/>
		<path class="st0" d="M433.5,176.9v2.8c1.6-1.6,3.5-2.8,5.5-2.8c2.4,0,4.3,1.6,4.3,4.6v6.6c0,2,0.5,2.6,2.3,2.6v0.8h-7.3v-0.8
			c2.1,0,2.5-0.7,2.5-2.8v-6.3c0-1.7-1.1-2.9-2.9-2.9c-1.5,0-3.1,0.7-4.4,1.9v7.3c0,2,0.2,2.9,2.6,2.8v0.8h-7.5v-0.8
			c1.8,0,2.4-0.4,2.4-2.8v-8.2l-2.3-1.1v-0.4L433.5,176.9z"/>
		<path class="st0" d="M451.6,176.9v2.8c1.6-1.6,3.5-2.8,5.5-2.8c2.4,0,4.3,1.6,4.3,4.6v6.6c0,2,0.5,2.6,2.3,2.6v0.8h-7.3v-0.8
			c2.1,0,2.5-0.7,2.5-2.8v-6.3c0-1.7-1.1-2.9-2.9-2.9c-1.5,0-3.1,0.7-4.4,1.9v7.3c0,2,0.2,2.9,2.6,2.8v0.8h-7.5v-0.8
			c1.8,0,2.4-0.4,2.4-2.8v-8.2l-2.3-1.1v-0.4L451.6,176.9z"/>
	</g>
	<g>
		<path class="st0" d="M119.8,154.5c0,2.2,0.8,2.8,3.6,2.8v0.9h-9.8v-0.9c2.4,0.1,3.3-0.5,3.3-2.7V140c0-1.8-0.5-2.8-3.4-2.7v-0.9
			h8.3c2.9,0,3.7,0.1,4.8,0.3c3.3,0.7,5.1,2.6,5.1,5.4c0,3.5-3.1,6.1-7.3,6.1c-2.1,0-2.6-0.3-2.6-0.8c0-0.3,0.3-0.6,0.7-0.6
			c0.3,0,1,0.1,1.2,0.1c2.1,0,4.6-1.2,4.6-4.4c0-3-2-5.2-5.4-5.2h-3.1V154.5z"/>
		<path class="st0" d="M137.6,146.2c1.9-1.8,3.7-2.7,5.5-2.7c2.5,0,4.2,1.7,4.2,4.4v6.9c0,1.9,0.5,2.5,2.2,2.5v0.8h-6.9v-0.8
			c1.8,0,2.2-0.7,2.2-2.8v-5.8c0-2.3-0.9-3.5-2.9-3.5c-1.5,0-3,0.7-4.4,1.9v7.4c0,2.1,0.4,2.8,2.4,2.8v0.8h-7.2v-0.8
			c1.6,0,2.4-0.4,2.4-2.3v-16.1l-2.2-1.1v-0.5l4.7-1.4C137.6,135.9,137.6,146.2,137.6,146.2z"/>
		<path class="st0" d="M155.2,143.5v11.2c0,2,0.4,2.7,2.2,2.7v0.8h-7.2v-0.8c2.1,0,2.5-0.5,2.5-2.8v-8.1l-2.3-1.1v-0.5L155.2,143.5z
			 M153.9,136c0.9,0,1.6,0.7,1.6,1.6c0,0.9-0.7,1.6-1.6,1.6s-1.6-0.7-1.6-1.6S153,136,153.9,136z"/>
		<path class="st0" d="M162.8,136v18.6c0,2.2,0.4,2.8,2.3,2.8v0.8H158v-0.8c1.8-0.1,2.3-0.4,2.3-2.9v-15.6l-2.3-1v-0.5L162.8,136z"
			/>
		<path class="st0" d="M170.7,143.5v11.2c0,2,0.4,2.7,2.2,2.7v0.8h-7.1v-0.8c2.1,0,2.5-0.5,2.5-2.8v-8.1l-2.3-1.1v-0.5L170.7,143.5z
			 M169.5,136c0.9,0,1.6,0.7,1.6,1.6c0,0.9-0.7,1.6-1.6,1.6c-0.9,0-1.6-0.7-1.6-1.6C167.8,136.7,168.6,136,169.5,136z"/>
		<path class="st0" d="M173.7,145.3v-0.4l4.8-1.4v2.7c1.7-1.8,3.4-2.7,5.3-2.7c3.5,0,6.1,2.9,6.1,6.8c0,4.4-3.5,8.3-7.6,8.3
			c-1.4,0-2.8-0.4-3.8-1.2v3.5c0,2,0.1,2.5,2.8,2.5v0.8h-7.6v-0.8c2.6,0,2.3-1.2,2.3-2.9v-14L173.7,145.3z M178.5,152.6
			c0,2.8,1.8,4.9,4.4,4.9c2.7,0,4.4-2.3,4.4-5.8c0-3.9-2-6.4-5-6.4c-1.4,0-2.6,0.6-3.9,2L178.5,152.6L178.5,152.6z"/>
		<path class="st0" d="M191.6,145.3v-0.4l4.8-1.4v2.7c1.7-1.8,3.4-2.7,5.3-2.7c3.5,0,6.1,2.9,6.1,6.8c0,4.4-3.5,8.3-7.6,8.3
			c-1.4,0-2.8-0.4-3.8-1.2v3.5c0,2,0.1,2.5,2.8,2.5v0.8h-7.6v-0.8c2.6,0,2.3-1.2,2.3-2.9v-14L191.6,145.3z M196.4,152.6
			c0,2.8,1.8,4.9,4.4,4.9c2.7,0,4.4-2.3,4.4-5.8c0-3.9-2-6.4-5-6.4c-1.4,0-2.6,0.6-3.9,2v5.3H196.4z"/>
		<path class="st0" d="M212.4,149.1c-0.2,4.9,2.8,7.2,5.8,7.2c1.6,0,2.6-0.4,3.9-1.8l0.5,0.5c-1.5,2.3-3.5,3.5-5.7,3.5
			c-3.9,0-6.7-3.1-6.7-7.4c0-4.4,2.8-7.6,6.6-7.6c3.2,0,5.8,2.5,5.9,5.6H212.4z M219.7,148.2c-0.3-2.4-1.5-3.8-3.4-3.8
			c-1.9,0-3.4,1.5-3.7,3.8H219.7z"/>
		<path class="st0" d="M241.5,137.3c-2.7,0-3.3,0.8-3.3,2.8v15.5c0,3.1-0.5,5.2-2,6.7c-1.1,1.1-2.5,1.5-3.6,1.5
			c-1.9,0-3.3-1-3.3-2.2c0-0.8,0.6-1.4,1.4-1.4c1.9,0,1.5,2.3,3,2.3c1.1,0,1.5-0.8,1.5-3.6v-19.1c0-1.7-0.6-2.7-3.6-2.5v-0.9h9.9
			V137.3z"/>
		<path class="st0" d="M255.6,156.8c-1,1.2-1.9,1.8-2.7,1.8c-1.3,0-2-0.9-2.1-2.6c-1.5,1.7-3.2,2.6-4.7,2.6c-2.2,0-3.7-1.4-3.7-3.4
			s1.2-3,5.4-4.5l2.9-1v-2.5c0-1.6-1.2-2.7-3-2.7c-1.4,0-2.7,0.8-2.7,1.7c0,0.7,0.8,1.5,0.8,1.9s-2,1.1-2.1,1.1
			c-0.3,0-0.9-1.1-0.9-2c0-2.1,2.5-3.7,5.8-3.7c3.2,0,4.5,1.3,4.5,3.8v7.4c0,1.1,0.3,1.6,0.9,1.6c0.4,0,0.7-0.1,1.2-0.4L255.6,156.8
			z M247,152.1c-1.3,0.6-2,1.3-2,2.3c0,1.3,1,2.2,2.4,2.2c1.2,0,2.3-0.6,3.4-1.8v-4.4L247,152.1z"/>
		<path class="st0" d="M261.3,143.5v3.7h0.1c1.2-2.6,2.4-3.5,3.8-3.5c1.1,0,2.4,1,2.4,1.8c0,0.7-0.5,1.9-1.1,1.9
			c-0.8,0-1.3-1.5-2.4-1.5c-0.8,0-1.3,0.5-2.8,2.8v6.2c0,2,0.3,2.7,3.3,2.6v0.8h-8.3v-0.8c1.9,0,2.5-0.4,2.5-2.3v-8.6l-2.5-1.1v-0.4
			L261.3,143.5z"/>
		<path class="st0" d="M275.9,143.5c4.1,0,7.2,3.2,7.2,7.4c0,4.3-3.1,7.6-7.1,7.6c-4.2,0-7.3-3.2-7.3-7.5S271.8,143.5,275.9,143.5z
			 M273.7,156.4c0.5,0.5,1.4,1.2,2.8,1.2c2.4,0,4.1-2,4.1-4.8c0-1.5-0.4-5.3-2.4-7.4c-0.6-0.6-1.5-1.1-2.6-1.1c-2,0-4.4,1.2-4.4,5.2
			C271.2,151.6,272,154.8,273.7,156.4z"/>
		<path class="st0" d="M301.4,157.6l-4.9,0.9v-2.8c-1.6,1.8-3.6,2.8-5.5,2.8c-2.2,0-4.3-1.5-4.3-4.5v-7.1c0-1.5-0.5-2-2.5-2.2v-0.8
			c1.6,0,2.7-0.1,3.4-0.1c0.8-0.1,1.2-0.1,1.6-0.2v9.9c0,2.1,1.1,3.2,3.1,3.2c1.4,0,2.9-0.6,4.2-1.9v-7.6c0-1.8-0.4-2.5-2.6-2.5
			v-0.8c1.4,0,2.4-0.1,3.2-0.1c0.8-0.1,1.4-0.1,2-0.2v11.6c0,1.8,0.7,1.8,2.4,1.6v0.8H301.4z"/>
		<path class="st0" d="M304.3,153.4c0.3,2.5,1.6,4.2,3.7,4.2c1.6,0,2.8-1.1,2.8-2.5c0-0.4-0.1-1.1-0.5-1.4c-1.6-1.6-4.5-2-6.3-3.8
			c-0.6-0.6-1-1.4-1-2.5c0-2.3,2-3.9,4.7-3.9c1.5,0,2.9,0.5,4.1,1.4v3.4H311c-0.5-2.6-1.5-3.8-3.3-3.8c-1.5,0-2.5,0.9-2.5,2.2
			c0,0.6,0.2,1.1,0.6,1.5c1.3,1.3,4.2,1.8,6,3.6c0.8,0.8,1.1,1.7,1.1,2.7c0,2.4-2.1,4.2-5,4.2c-1.5,0-3.1-0.4-4.4-1.2v-4
			L304.3,153.4L304.3,153.4z"/>
		<path class="st0" d="M316.6,153.4c0.3,2.5,1.6,4.2,3.7,4.2c1.6,0,2.8-1.1,2.8-2.5c0-0.4-0.1-1.1-0.5-1.4c-1.6-1.6-4.5-2-6.3-3.8
			c-0.6-0.6-1-1.4-1-2.5c0-2.3,2-3.9,4.7-3.9c1.5,0,2.9,0.5,4.1,1.4v3.4h-0.8c-0.5-2.6-1.5-3.8-3.3-3.8c-1.5,0-2.5,0.9-2.5,2.2
			c0,0.6,0.2,1.1,0.6,1.5c1.3,1.3,4.2,1.8,6,3.6c0.8,0.8,1.1,1.7,1.1,2.7c0,2.4-2.1,4.2-5,4.2c-1.5,0-3.1-0.4-4.4-1.2v-4
			L316.6,153.4L316.6,153.4z"/>
		<path class="st0" d="M331.2,136v18.7c0,1.7,0.2,2.7,2.4,2.7v0.8h-7v-0.8c1.5-0.1,2.1-0.6,2.1-2.3V139l-2.1-1.1v-0.5L331.2,136z
			 M341.3,143.8v0.8c-1.4,0.1-2.4,0.6-4.6,2.6l-3,2.7l6.3,5.9c1,1,1.7,1.4,2.2,1.6v0.8h-2.8c-0.8-0.6-1.8-1.4-2.4-2l-5.6-5.5
			l2.9-2.5c1.3-1.2,1.8-1.7,1.8-2.3c0-0.8-0.6-1.2-2.2-1.3v-0.8H341.3z"/>
		<path class="st0" d="M357.2,143.8v0.8c-1.4,0.3-1.9,0.9-2.9,3.6l-4.5,11.9c-0.9,2.3-2.3,4.1-4.4,4.1c-1.4,0-2.5-0.7-2.5-1.7
			c0-0.7,0.6-1.3,1.2-1.3c1,0,1.1,1.1,2.4,1.1c1.2,0,2-1.1,3-3.9l-5.2-11.5c-0.8-1.7-1.2-2.1-2.4-2.2v-0.8h6.8v0.8
			c-1.4,0.1-1.9,0.4-1.9,1.1c0,0.5,0.2,1.1,0.9,2.7l3.1,6.8l2-5.3c0.8-2,1.1-3.1,1.1-3.6c0-1-0.5-1.5-2-1.7v-0.8h5.3V143.8z"/>
	</g>
</g>
</svg>
