<?xml version="1.0" encoding="utf-8"?>
<!-- Generator: Adobe Illustrator 23.0.2, SVG Export Plug-In . SVG Version: 6.00 Build 0)  -->
<svg version="1.1" id="Laag_1" xmlns="http://www.w3.org/2000/svg" xmlns:xlink="http://www.w3.org/1999/xlink" x="0px" y="0px"
	 width="225px" height="23px" viewBox="0 0 225 23" style="enable-background:new 0 0 225 23;" xml:space="preserve">
<style type="text/css">
	.st0{fill:#FFFFFF;}
</style>
<g>
	<path class="st0" d="M11.45,10.21c-0.08,0.28-0.18,0.65-0.3,1.11s-0.23,0.91-0.33,1.34c-0.14,0.51-0.26,1.05-0.38,1.62h-0.05
		c-0.13-0.56-0.27-1.1-0.4-1.62c-0.12-0.44-0.23-0.88-0.34-1.34c-0.11-0.46-0.21-0.83-0.29-1.11L7.18,2.38H1.23v17.87h3.96v-8.97
		c0-0.19,0-0.48-0.01-0.88C5.17,10,5.16,9.6,5.14,9.2C5.13,8.73,5.12,8.22,5.12,7.67h0.05c0.12,0.52,0.23,1,0.33,1.43
		c0.08,0.38,0.17,0.76,0.27,1.13c0.11,0.37,0.18,0.63,0.23,0.8l2.55,9.21h3.66l2.57-9.25c0.05-0.17,0.12-0.43,0.21-0.79
		c0.09-0.36,0.18-0.73,0.26-1.11c0.1-0.43,0.22-0.9,0.35-1.42h0.05c-0.02,0.55-0.03,1.06-0.05,1.53c-0.02,0.4,0,0.81,0,1.2
		c0,0.39,0,0.68,0,0.86v9h4.05V2.38h-6L11.45,10.21z"/>
	<path class="st0" d="M33.38,18.24v-6.45c0-0.79-0.13-1.5-0.4-2.12c-0.27-0.61-0.68-1.12-1.23-1.52c-0.47-0.35-1.03-0.62-1.7-0.79
		C29.38,7.19,28.57,7.1,27.6,7.1c-0.96,0-1.8,0.12-2.52,0.35C24.36,7.68,23.77,8,23.29,8.4c-0.48,0.4-0.84,0.87-1.09,1.4
		c-0.25,0.53-0.38,1.1-0.4,1.7h3.74c0.07-0.53,0.26-0.93,0.6-1.22c0.34-0.29,0.83-0.43,1.48-0.43c0.62,0,1.07,0.13,1.34,0.38
		c0.27,0.25,0.41,0.58,0.41,1c0,0.44-0.25,0.75-0.73,0.93c-0.48,0.18-1.32,0.35-2.52,0.5c-0.67,0.09-1.3,0.21-1.89,0.38
		c-0.59,0.16-1.11,0.4-1.56,0.71c-0.45,0.3-0.8,0.7-1.06,1.17c-0.26,0.47-0.39,1.06-0.39,1.76c0,0.63,0.11,1.19,0.33,1.67
		c0.22,0.49,0.52,0.9,0.9,1.23c0.39,0.33,0.85,0.58,1.39,0.75c0.54,0.17,1.13,0.25,1.76,0.25c0.97,0,1.75-0.16,2.34-0.5
		c0.59-0.31,1.08-0.74,1.46-1.27h0.06c0.05,0.33,0.1,0.62,0.17,0.86s0.15,0.43,0.25,0.56h3.95v-0.17c-0.18-0.11-0.3-0.32-0.36-0.61
		C33.41,19.16,33.38,18.76,33.38,18.24z M29.47,15.68c0,0.7-0.23,1.25-0.71,1.67c-0.47,0.41-1.09,0.62-1.86,0.62
		c-0.5,0-0.93-0.09-1.26-0.31c-0.33-0.22-0.5-0.58-0.5-1.1c0-0.49,0.18-0.85,0.53-1.09c0.35-0.24,0.92-0.46,1.7-0.64
		c0.41-0.1,0.8-0.2,1.16-0.31c0.36-0.11,0.67-0.23,0.94-0.36V15.68z"/>
	<path class="st0" d="M46.58,8.43c-0.38-0.42-0.85-0.76-1.4-1S44,7.07,43.3,7.07c-0.9,0-1.67,0.18-2.29,0.54S39.83,8.5,39.35,9.2
		h-0.08V7.45h-3.91v12.81h4.07v-7.08c0-0.8,0.2-1.45,0.61-1.95c0.41-0.5,0.96-0.75,1.64-0.75c0.67,0,1.17,0.2,1.5,0.62
		c0.33,0.42,0.5,0.97,0.5,1.65v7.5h4.08v-8.33c0-0.71-0.1-1.37-0.3-1.96C47.25,9.36,46.96,8.85,46.58,8.43z"/>
	<path class="st0" d="M55.51,17.11c-0.21,0.01-0.42,0.01-0.62,0.01h-0.73v-0.08c0.17-0.18,0.33-0.35,0.5-0.52l0.8-0.8l4.85-5.27
		V7.47h-10.5v3.1h4h0.92c0.2,0,0.42-0.01,0.65-0.03v0.08c-0.15,0.15-0.29,0.3-0.42,0.45c-0.11,0.14-0.24,0.26-0.36,0.38
		c-0.12,0.12-0.23,0.22-0.31,0.3l-5.07,5.47v3.03h11.46V17.1h-4.62C55.91,17.1,55.73,17.1,55.51,17.11z"/>
	<path class="st0" d="M73.11,9.04c-0.59-0.6-1.31-1.08-2.15-1.42c-0.84-0.34-1.78-0.51-2.81-0.51c-1.03,0-1.97,0.17-2.81,0.51
		c-0.84,0.34-1.56,0.81-2.16,1.42c-0.6,0.61-1.07,1.32-1.39,2.15c-0.33,0.83-0.49,1.72-0.49,2.69c0,0.97,0.16,1.86,0.49,2.69
		c0.33,0.82,0.79,1.55,1.39,2.15c0.6,0.6,1.32,1.08,2.16,1.42c0.84,0.34,1.78,0.51,2.81,0.51c1.03,0,1.97-0.17,2.81-0.51
		c0.84-0.34,1.56-0.81,2.15-1.42c0.6-0.61,1.06-1.32,1.38-2.15c0.33-0.83,0.49-1.72,0.49-2.69c0-0.97-0.16-1.86-0.49-2.69
		C74.16,10.37,73.7,9.65,73.11,9.04z M70.16,16.69c-0.46,0.71-1.14,1.06-2.04,1.06c-0.9,0-1.57-0.35-2.02-1.06
		c-0.45-0.71-0.68-1.64-0.68-2.81s0.23-2.11,0.68-2.83c0.44-0.72,1.12-1.08,2.02-1.08c0.9,0,1.58,0.36,2.04,1.08
		c0.46,0.72,0.69,1.66,0.69,2.83C70.85,15.04,70.62,15.98,70.16,16.69z"/>
	<path class="st0" d="M87.58,8.43c-0.38-0.42-0.85-0.76-1.4-1S85,7.07,84.3,7.07c-0.9,0-1.67,0.18-2.29,0.54S80.83,8.5,80.35,9.2
		h-0.08V7.45h-3.91v12.81h4.07v-7.08c0-0.8,0.2-1.45,0.61-1.95c0.41-0.5,0.96-0.75,1.64-0.75c0.67,0,1.17,0.2,1.5,0.62
		c0.33,0.42,0.5,0.97,0.5,1.65v7.5h4.08v-8.33c0-0.71-0.1-1.37-0.3-1.96C88.25,9.36,87.96,8.85,87.58,8.43z"/>
	<rect x="90.6" y="7.45" class="st0" width="4.07" height="12.8"/>
	<rect x="90.6" y="2.38" class="st0" width="4.07" height="3.3"/>
	<rect x="100.5" y="7.45" class="st0" width="4.07" height="12.8"/>
	<rect x="100.5" y="2.38" class="st0" width="4.07" height="3.3"/>
	<path class="st0" d="M117.75,8.43c-0.38-0.42-0.85-0.76-1.4-1c-0.55-0.24-1.18-0.36-1.88-0.36c-0.9,0-1.67,0.18-2.29,0.54
		S111,8.5,110.52,9.2h-0.07V7.45h-3.93v12.81h4.08v-7.08c0-0.8,0.2-1.45,0.61-1.95c0.41-0.5,0.96-0.75,1.64-0.75
		c0.67,0,1.17,0.2,1.5,0.62c0.33,0.42,0.5,0.97,0.5,1.65v7.5h4.08v-8.33c0-0.71-0.09-1.36-0.3-1.96
		C118.42,9.36,118.13,8.85,117.75,8.43z"/>
	<polygon class="st0" points="135.59,9.16 129.32,9.16 129.32,2.38 124.9,2.38 124.9,20.25 129.32,20.25 129.32,12.8 135.59,12.8 
		135.59,20.26 140.02,20.26 140.02,2.38 135.59,2.38 	"/>
	<path class="st0" d="M153.46,9.04c-0.59-0.6-1.31-1.08-2.15-1.42c-0.84-0.34-1.78-0.51-2.81-0.51c-1.03,0-1.97,0.17-2.81,0.51
		c-0.84,0.34-1.56,0.81-2.16,1.42c-0.6,0.61-1.06,1.32-1.39,2.15s-0.49,1.72-0.49,2.69c0,0.97,0.16,1.87,0.49,2.69
		s0.79,1.54,1.39,2.15c0.6,0.6,1.32,1.08,2.16,1.42c0.84,0.34,1.78,0.51,2.81,0.51c1.03,0,1.97-0.17,2.81-0.51
		c0.84-0.34,1.56-0.81,2.15-1.42c0.6-0.61,1.05-1.32,1.38-2.15c0.33-0.83,0.49-1.72,0.49-2.69c0-0.97-0.17-1.86-0.49-2.69
		C154.51,10.37,154.05,9.65,153.46,9.04z M150.51,16.69c-0.46,0.71-1.14,1.06-2.04,1.06c-0.9,0-1.57-0.35-2.02-1.06
		s-0.67-1.64-0.67-2.81s0.22-2.11,0.67-2.83c0.45-0.72,1.12-1.08,2.02-1.08c0.9,0,1.58,0.36,2.04,1.08
		c0.46,0.72,0.69,1.66,0.69,2.83C151.2,15.04,150.97,15.98,150.51,16.69z"/>
	<rect x="156.72" y="2.38" class="st0" width="4.12" height="17.88"/>
	<rect x="162.85" y="2.38" class="st0" width="4.12" height="17.88"/>
	<path class="st0" d="M180.49,18.24v-6.45c0-0.79-0.13-1.5-0.4-2.12c-0.26-0.61-0.67-1.12-1.22-1.52c-0.47-0.35-1.03-0.62-1.7-0.79
		c-0.67-0.17-1.48-0.26-2.45-0.26c-0.97,0-1.81,0.12-2.53,0.35c-0.72,0.23-1.32,0.55-1.79,0.95c-0.48,0.4-0.84,0.87-1.09,1.4
		c-0.25,0.53-0.38,1.1-0.4,1.7h3.75c0.07-0.53,0.26-0.93,0.6-1.22c0.34-0.29,0.83-0.43,1.48-0.43c0.62,0,1.07,0.13,1.34,0.38
		s0.41,0.58,0.41,1c0,0.44-0.25,0.75-0.73,0.93c-0.48,0.18-1.32,0.35-2.52,0.5c-0.67,0.09-1.3,0.21-1.89,0.38
		c-0.59,0.16-1.11,0.4-1.56,0.71c-0.45,0.3-0.8,0.7-1.06,1.17c-0.26,0.47-0.39,1.06-0.39,1.76c0,0.63,0.11,1.19,0.33,1.67
		c0.22,0.49,0.52,0.9,0.9,1.23c0.39,0.33,0.85,0.58,1.39,0.75c0.54,0.17,1.13,0.25,1.76,0.25c0.97,0,1.75-0.16,2.34-0.5
		c0.59-0.31,1.08-0.74,1.46-1.27h0.05c0.06,0.33,0.11,0.62,0.18,0.86s0.15,0.43,0.25,0.56h3.94v-0.17c-0.18-0.11-0.3-0.32-0.36-0.61
		C180.52,19.16,180.49,18.76,180.49,18.24z M176.59,15.68c0,0.7-0.23,1.25-0.71,1.67c-0.47,0.41-1.09,0.62-1.86,0.62
		c-0.5,0-0.93-0.09-1.26-0.31c-0.33-0.22-0.5-0.58-0.5-1.1c0-0.49,0.18-0.85,0.53-1.09c0.35-0.24,0.92-0.46,1.7-0.64
		c0.41-0.1,0.8-0.2,1.16-0.31c0.36-0.11,0.67-0.23,0.94-0.36V15.68z"/>
	<path class="st0" d="M193.7,8.43c-0.38-0.42-0.85-0.76-1.4-1c-0.55-0.24-1.18-0.36-1.88-0.36c-0.9,0-1.67,0.18-2.29,0.54
		s-1.18,0.89-1.66,1.59h-0.08V7.45h-3.92l0.01,12.81h4.07v-7.08c0-0.8,0.2-1.45,0.61-1.95c0.41-0.5,0.96-0.75,1.64-0.75
		c0.67,0,1.17,0.2,1.5,0.62c0.33,0.42,0.5,0.97,0.5,1.65v7.5h4.08v-8.33c0-0.71-0.1-1.37-0.3-1.96
		C194.38,9.36,194.08,8.85,193.7,8.43z"/>
	<path class="st0" d="M205.39,8.89h-0.07c-0.38-0.53-0.85-0.97-1.4-1.31c-0.55-0.34-1.27-0.51-2.17-0.51c-0.83,0-1.59,0.17-2.27,0.5
		c-0.68,0.34-1.27,0.8-1.76,1.39c-0.49,0.6-0.88,1.31-1.15,2.14c-0.27,0.83-0.41,1.75-0.41,2.75c0,1.06,0.14,2.01,0.41,2.86
		c0.27,0.85,0.66,1.56,1.16,2.14c0.5,0.59,1.09,1.03,1.77,1.34s1.43,0.46,2.25,0.46c0.85,0,1.59-0.18,2.23-0.55
		c0.64-0.37,1.16-0.89,1.54-1.56h0.05v1.72h3.9V2.38h-4.08V8.89z M204.79,16.42c-0.48,0.67-1.14,1-1.99,1
		c-0.8,0-1.42-0.32-1.86-0.97c-0.44-0.65-0.66-1.53-0.66-2.65c0-1.09,0.23-1.96,0.68-2.64c0.45-0.67,1.08-1.01,1.9-1.01
		c0.45,0,0.83,0.09,1.16,0.27c0.32,0.18,0.6,0.43,0.82,0.76c0.23,0.32,0.39,0.71,0.5,1.17c0.11,0.46,0.16,0.96,0.16,1.49
		C205.5,14.9,205.26,15.75,204.79,16.42z"/>
	<polygon class="st0" points="223.4,4.27 222.02,1.88 219.29,3.46 219.29,0.3 216.53,0.3 216.53,3.46 213.79,1.88 212.41,4.27 
		215.15,5.85 212.41,7.43 213.79,9.82 216.53,8.24 216.53,11.4 219.29,11.4 219.29,8.24 222.02,9.82 223.4,7.43 220.67,5.85 	"/>
</g>
</svg>
