<?xml version="1.0" encoding="utf-8"?>
<!-- Generator: Adobe Illustrator 23.0.2, SVG Export Plug-In . SVG Version: 6.00 Build 0)  -->
<svg version="1.1" id="Laag_1" xmlns="http://www.w3.org/2000/svg" xmlns:xlink="http://www.w3.org/1999/xlink" x="0px" y="0px"
	 width="225px" height="14px" viewBox="0 0 225 14" style="enable-background:new 0 0 225 14;" xml:space="preserve">
<style type="text/css">
	.st0{fill:#FFFFFF;}
</style>
<g>
	<path class="st0" d="M2.75,1.87C2.6,2.12,2.41,2.33,2.18,2.48S1.7,2.75,1.41,2.81c-0.29,0.07-0.59,0.1-0.9,0.11v0.84h2.25v7.49
		h1.26V0.92H3.04C2.99,1.29,2.9,1.61,2.75,1.87z"/>
	<path class="st0" d="M12.32,5.53c-0.31-0.31-0.66-0.56-1.07-0.74c-0.41-0.18-0.85-0.27-1.32-0.27c-0.62,0-1.16,0.12-1.63,0.37
		c-0.46,0.25-0.86,0.6-1.19,1.06H7.08c0.01-0.63,0.07-1.2,0.17-1.71c0.1-0.51,0.26-0.95,0.48-1.31c0.21-0.36,0.5-0.64,0.85-0.83
		C8.93,1.9,9.35,1.8,9.85,1.8c0.3,0,0.56,0.05,0.79,0.14c0.23,0.1,0.43,0.22,0.59,0.38c0.16,0.16,0.3,0.35,0.4,0.57
		c0.1,0.22,0.16,0.45,0.18,0.69h1.25c-0.04-0.37-0.13-0.73-0.29-1.07c-0.15-0.34-0.36-0.65-0.62-0.91
		c-0.26-0.26-0.59-0.47-0.98-0.63c-0.39-0.16-0.84-0.24-1.35-0.24c-0.65,0-1.22,0.13-1.72,0.38S7.2,1.73,6.86,2.2
		S6.27,3.22,6.1,3.87C5.93,4.52,5.85,5.25,5.85,6.04c0,1.06,0.1,1.95,0.31,2.68s0.59,1.34,1.14,1.84c0.31,0.29,0.67,0.52,1.09,0.68
		c0.41,0.16,0.91,0.24,1.48,0.24c0.48,0,0.93-0.09,1.35-0.28c0.42-0.18,0.79-0.44,1.1-0.76c0.31-0.32,0.56-0.69,0.74-1.12
		c0.17-0.42,0.26-0.88,0.26-1.36c0-0.47-0.09-0.92-0.27-1.33C12.87,6.21,12.63,5.84,12.32,5.53z M11.98,9
		c-0.12,0.3-0.28,0.56-0.48,0.77c-0.21,0.21-0.45,0.38-0.74,0.5c-0.28,0.12-0.59,0.18-0.92,0.18c-0.36,0-0.69-0.06-1-0.18
		c-0.31-0.12-0.58-0.29-0.8-0.5C7.81,9.56,7.63,9.3,7.5,8.99c-0.13-0.3-0.19-0.64-0.19-1c0-0.37,0.06-0.71,0.18-1S7.77,6.43,8,6.22
		C8.21,6,8.48,5.84,8.78,5.72s0.64-0.17,1.01-0.17c0.33,0,0.64,0.06,0.93,0.18c0.29,0.12,0.54,0.29,0.75,0.5s0.38,0.48,0.49,0.78
		c0.12,0.3,0.18,0.64,0.18,1C12.15,8.37,12.09,8.7,11.98,9z"/>
	<path class="st0" d="M19.74,0.43c-0.65,0-1.16,0.14-1.52,0.41c-0.36,0.27-0.54,0.74-0.54,1.41V3.5h-1.06v0.99h1.06v6.76h1.21V4.49
		h1.44V3.5H18.9V2.31c0-0.32,0.08-0.54,0.24-0.65c0.16-0.11,0.44-0.17,0.82-0.17c0.06,0,0.11,0,0.16,0s0.12,0,0.23,0.01V0.46
		c-0.08-0.01-0.17-0.02-0.27-0.02S19.87,0.43,19.74,0.43z"/>
	<path class="st0" d="M27.89,5.9c-0.15-0.54-0.38-1-0.68-1.38c-0.3-0.38-0.67-0.68-1.12-0.9c-0.45-0.21-0.96-0.32-1.54-0.32
		c-0.55,0-1.05,0.11-1.5,0.32c-0.45,0.22-0.84,0.51-1.16,0.88c-0.32,0.37-0.58,0.8-0.75,1.3s-0.26,1.02-0.26,1.58
		c0,0.56,0.08,1.09,0.25,1.58c0.17,0.49,0.42,0.93,0.73,1.3c0.32,0.37,0.71,0.66,1.18,0.88c0.46,0.21,0.99,0.32,1.58,0.32
		c0.88,0,1.61-0.22,2.19-0.67c0.58-0.45,0.96-1.09,1.14-1.94h-1.19c-0.14,0.53-0.39,0.93-0.75,1.19c-0.36,0.26-0.83,0.4-1.4,0.4
		c-0.39,0-0.74-0.07-1.04-0.21c-0.3-0.14-0.56-0.33-0.77-0.59c-0.21-0.25-0.38-0.54-0.49-0.88c-0.12-0.34-0.19-0.71-0.21-1.09h6
		C28.12,7.03,28.05,6.44,27.89,5.9z M22.15,6.75c0.04-0.35,0.12-0.68,0.25-0.98c0.12-0.3,0.28-0.57,0.48-0.79
		c0.19-0.23,0.43-0.4,0.71-0.53c0.28-0.12,0.6-0.19,0.96-0.19c0.7,0,1.24,0.22,1.63,0.66c0.38,0.44,0.6,1.05,0.64,1.83H22.15z"/>
	<path class="st0" d="M35.43,4.39c-0.29-0.34-0.64-0.61-1.04-0.79c-0.4-0.19-0.85-0.28-1.34-0.28c-0.57,0-1.06,0.11-1.46,0.34
		s-0.75,0.54-1.04,0.95h-0.03V0.53h-1.21v10.72h1.21v-1.02h0.03c0.32,0.44,0.68,0.76,1.06,0.95c0.39,0.2,0.85,0.29,1.38,0.29
		c0.52,0,0.99-0.09,1.4-0.28c0.42-0.19,0.77-0.46,1.06-0.82c0.29-0.35,0.51-0.78,0.66-1.29c0.15-0.5,0.23-1.07,0.23-1.69
		c0-0.64-0.08-1.21-0.24-1.72C35.94,5.16,35.72,4.73,35.43,4.39z M34.96,8.62c-0.09,0.37-0.23,0.69-0.4,0.96
		c-0.18,0.27-0.41,0.48-0.68,0.64c-0.28,0.16-0.6,0.23-0.97,0.23c-0.41,0-0.77-0.08-1.08-0.23c-0.31-0.16-0.57-0.37-0.77-0.64
		C30.85,9.32,30.7,9,30.6,8.62c-0.1-0.37-0.15-0.77-0.15-1.21c0-0.42,0.05-0.82,0.15-1.19c0.1-0.37,0.25-0.69,0.45-0.97
		s0.46-0.5,0.77-0.66s0.68-0.24,1.1-0.24c0.37,0,0.69,0.08,0.96,0.23c0.27,0.16,0.5,0.37,0.68,0.65c0.18,0.28,0.31,0.6,0.4,0.97
		s0.14,0.78,0.14,1.21C35.1,7.85,35.05,8.25,34.96,8.62z"/>
	<path class="st0" d="M41.11,3.41c-0.52,0-0.98,0.13-1.37,0.4c-0.4,0.27-0.71,0.6-0.94,0.98h-0.03V3.5h-1.21v7.75h1.21v-4.3
		c0-0.36,0.06-0.69,0.18-0.98c0.12-0.29,0.28-0.54,0.49-0.74c0.21-0.2,0.45-0.35,0.72-0.46c0.27-0.11,0.56-0.17,0.85-0.17
		c0.12,0,0.22,0,0.29,0.02c0.08,0.01,0.16,0.03,0.25,0.06h0.04V3.5c-0.08-0.03-0.16-0.05-0.23-0.07
		C41.31,3.41,41.22,3.41,41.11,3.41z"/>
	<path class="st0" d="M47.64,8.26c0,0.31-0.05,0.6-0.14,0.86c-0.1,0.26-0.23,0.49-0.41,0.68c-0.17,0.19-0.39,0.35-0.64,0.46
		c-0.25,0.11-0.53,0.17-0.84,0.17c-0.55,0-0.98-0.14-1.28-0.41c-0.31-0.28-0.46-0.67-0.46-1.18V3.5h-1.22v5.37
		c0,0.81,0.23,1.44,0.71,1.89s1.1,0.67,1.91,0.67c0.57,0,1.03-0.11,1.39-0.34c0.35-0.23,0.67-0.53,0.95-0.91h0.03v1.07h1.22V3.5
		h-1.22V8.26z"/>
	<path class="st0" d="M56.54,10.21c-0.1-0.15-0.16-0.39-0.16-0.71V5.8c0-0.46-0.07-0.85-0.22-1.16c-0.15-0.32-0.34-0.57-0.6-0.76
		c-0.26-0.19-0.56-0.33-0.91-0.41s-0.73-0.13-1.14-0.13c-0.51,0-0.96,0.07-1.34,0.2c-0.39,0.13-0.71,0.32-0.96,0.55
		c-0.25,0.23-0.45,0.51-0.58,0.83s-0.2,0.67-0.21,1.04h1.17c0.02-0.59,0.19-1.02,0.51-1.3c0.32-0.28,0.79-0.41,1.42-0.41
		c0.56,0,0.99,0.12,1.29,0.35c0.3,0.24,0.45,0.57,0.45,1.01c0,0.21-0.05,0.38-0.14,0.5s-0.22,0.22-0.38,0.3s-0.36,0.13-0.59,0.18
		s-0.48,0.09-0.75,0.13C52.93,6.82,52.49,6.9,52.07,7C51.66,7.09,51.3,7.23,51,7.41c-0.3,0.18-0.53,0.42-0.7,0.71
		c-0.17,0.29-0.26,0.67-0.26,1.12c0,0.37,0.07,0.69,0.2,0.96c0.13,0.27,0.32,0.5,0.56,0.67c0.23,0.18,0.51,0.31,0.83,0.4
		c0.32,0.08,0.66,0.13,1.03,0.13c0.33,0,0.63-0.04,0.89-0.11c0.27-0.07,0.5-0.17,0.71-0.29s0.4-0.25,0.56-0.4
		c0.16-0.14,0.3-0.29,0.42-0.44h0.02c0.12,0.77,0.56,1.16,1.33,1.16c0.16,0,0.29-0.01,0.39-0.04c0.1-0.02,0.19-0.05,0.27-0.08v-0.88
		h-0.05C56.87,10.4,56.65,10.36,56.54,10.21z M55.29,8.38c0,0.23-0.05,0.47-0.14,0.71c-0.09,0.25-0.24,0.47-0.43,0.67
		c-0.19,0.2-0.44,0.37-0.73,0.5c-0.3,0.13-0.65,0.2-1.05,0.2c-0.2,0-0.4-0.02-0.58-0.05s-0.36-0.1-0.51-0.19
		c-0.15-0.09-0.27-0.22-0.37-0.38c-0.1-0.17-0.14-0.38-0.14-0.64c0-0.28,0.06-0.51,0.17-0.69c0.12-0.18,0.27-0.33,0.47-0.44
		c0.19-0.11,0.43-0.2,0.7-0.26c0.27-0.06,0.56-0.12,0.85-0.18c0.33-0.06,0.66-0.14,0.98-0.23c0.33-0.09,0.59-0.21,0.79-0.34V8.38z"
		/>
	<path class="st0" d="M61.71,3.41c-0.52,0-0.98,0.13-1.37,0.4c-0.4,0.27-0.71,0.6-0.94,0.98h-0.03V3.5h-1.21v7.75h1.21v-4.3
		c0-0.36,0.06-0.69,0.18-0.98c0.12-0.29,0.28-0.54,0.49-0.74c0.21-0.2,0.45-0.35,0.72-0.46c0.27-0.11,0.56-0.17,0.85-0.17
		c0.12,0,0.22,0,0.29,0.02c0.08,0.01,0.16,0.03,0.25,0.06h0.04V3.5c-0.08-0.03-0.16-0.05-0.23-0.07
		C61.91,3.41,61.82,3.41,61.71,3.41z"/>
	<rect x="63.3" y="0.53" class="st0" width="1.21" height="1.5"/>
	<rect x="63.3" y="3.5" class="st0" width="1.21" height="7.75"/>
	<path class="st0" d="M70.39,1.05h-1.21V3.5h-1.12v0.99h1.12v5.31c0,0.55,0.16,0.94,0.48,1.16c0.32,0.23,0.73,0.34,1.23,0.34
		c0.18,0,0.35-0.01,0.52-0.03c0.17-0.02,0.32-0.04,0.46-0.07v-1.05h-0.04c-0.07,0.02-0.17,0.04-0.29,0.07
		c-0.12,0.03-0.24,0.04-0.36,0.04c-0.25,0-0.44-0.05-0.58-0.16c-0.14-0.11-0.2-0.29-0.2-0.56V4.49h1.5V3.5h-1.5V1.05z"/>
	<polygon class="st0" points="72.57,11.25 73.83,11.25 78.09,0.53 76.83,0.53 	"/>
	<path class="st0" d="M86.43,3.32c-0.48,0-0.93,0.12-1.36,0.35c-0.43,0.23-0.76,0.58-1.01,1.03h-0.03
		c-0.17-0.45-0.43-0.79-0.78-1.03C82.9,3.43,82.48,3.32,82,3.32c-0.49,0-0.93,0.12-1.33,0.36s-0.71,0.55-0.95,0.93h-0.03V3.5h-1.21
		v7.75h1.21V6.42c0-0.3,0.06-0.58,0.18-0.83c0.12-0.26,0.27-0.48,0.46-0.66c0.19-0.19,0.4-0.33,0.64-0.44
		c0.23-0.1,0.47-0.16,0.71-0.16c0.4,0,0.72,0.13,0.97,0.41c0.25,0.27,0.37,0.64,0.37,1.12v5.38h1.21V6.42c0-0.3,0.05-0.58,0.16-0.83
		c0.1-0.26,0.24-0.48,0.42-0.66c0.17-0.19,0.38-0.33,0.61-0.44c0.23-0.1,0.47-0.16,0.72-0.16c0.39,0,0.72,0.13,1,0.41
		c0.28,0.27,0.42,0.64,0.42,1.12v5.38h1.21V5.8c0-0.81-0.22-1.43-0.66-1.85C87.68,3.53,87.12,3.32,86.43,3.32z"/>
	<path class="st0" d="M95.03,8.56c0.26-0.21,0.55-0.42,0.85-0.6c0.3-0.18,0.59-0.35,0.87-0.5c0.41-0.23,0.8-0.45,1.16-0.67
		c0.37-0.21,0.68-0.45,0.95-0.71s0.48-0.56,0.65-0.91c0.16-0.35,0.24-0.77,0.24-1.27c0-0.46-0.08-0.88-0.24-1.27
		c-0.16-0.38-0.39-0.72-0.69-1c-0.3-0.28-0.66-0.5-1.09-0.65c-0.43-0.16-0.9-0.23-1.42-0.23c-0.53,0-1.03,0.08-1.49,0.24
		s-0.85,0.4-1.19,0.72c-0.32,0.32-0.56,0.7-0.73,1.14c-0.16,0.44-0.25,0.99-0.25,1.65h1.32c0-0.53,0.05-0.95,0.14-1.26
		c0.09-0.31,0.24-0.58,0.44-0.79c0.19-0.2,0.42-0.36,0.69-0.47s0.58-0.17,0.94-0.17c0.69,0,1.24,0.2,1.64,0.58
		c0.4,0.39,0.6,0.9,0.6,1.53c0,0.31-0.05,0.58-0.15,0.81c-0.1,0.23-0.25,0.44-0.44,0.64c-0.19,0.2-0.42,0.38-0.68,0.56
		c-0.27,0.17-0.57,0.36-0.91,0.55c-0.45,0.26-0.9,0.53-1.34,0.8c-0.45,0.28-0.85,0.59-1.21,0.95c-0.37,0.36-0.67,0.78-0.9,1.27
		c-0.23,0.49-0.37,1.07-0.4,1.76h7.12v-1.2h-5.61c0.07-0.28,0.21-0.54,0.4-0.79C94.53,9,94.77,8.77,95.03,8.56z"/>
	<rect x="103.5" y="0.53" class="st0" width="1.21" height="1.5"/>
	<path class="st0" d="M103.5,11.7c0,0.5-0.27,0.75-0.8,0.75c-0.13,0-0.27-0.02-0.42-0.04h-0.03v0.99c0.1,0.02,0.2,0.04,0.31,0.05
		c0.1,0.01,0.23,0.01,0.37,0.01c0.25,0,0.48-0.02,0.7-0.06c0.21-0.04,0.4-0.12,0.56-0.25c0.16-0.12,0.29-0.3,0.38-0.52
		c0.09-0.22,0.14-0.51,0.14-0.87V3.5h-1.21V11.7z"/>
	<path class="st0" d="M111.3,8.26c0,0.31-0.05,0.6-0.14,0.86c-0.1,0.26-0.23,0.49-0.41,0.68c-0.17,0.19-0.39,0.35-0.64,0.46
		c-0.25,0.11-0.53,0.17-0.84,0.17c-0.55,0-0.98-0.14-1.28-0.41s-0.46-0.67-0.46-1.18V3.5h-1.21v5.37c0,0.81,0.23,1.44,0.71,1.89
		c0.47,0.45,1.1,0.67,1.9,0.67c0.57,0,1.03-0.11,1.39-0.34c0.35-0.23,0.67-0.53,0.95-0.91h0.03v1.07h1.22V3.5h-1.22V8.26z"/>
	<path class="st0" d="M117.87,3.32c-0.57,0-1.05,0.11-1.45,0.32c-0.39,0.21-0.73,0.51-1.01,0.88h-0.03V3.5h-1.21v7.75h1.21V6.48
		c0-0.32,0.05-0.61,0.16-0.88s0.25-0.49,0.44-0.67c0.19-0.19,0.41-0.33,0.67-0.44c0.26-0.1,0.54-0.16,0.86-0.16
		c0.55,0,0.98,0.13,1.29,0.41c0.31,0.27,0.46,0.66,0.46,1.17v5.34h1.22V5.8c0-0.81-0.23-1.43-0.7-1.85
		C119.32,3.53,118.68,3.32,117.87,3.32z"/>
	<rect x="122.08" y="0.53" class="st0" width="1.21" height="1.5"/>
	<rect x="122.08" y="3.5" class="st0" width="1.21" height="7.75"/>
	<path class="st0" d="M129.59,8.56c0.27-0.21,0.55-0.42,0.85-0.6c0.3-0.18,0.59-0.35,0.87-0.5c0.41-0.23,0.8-0.45,1.16-0.67
		c0.37-0.21,0.68-0.45,0.95-0.71s0.49-0.56,0.65-0.91c0.16-0.35,0.24-0.77,0.24-1.27c0-0.46-0.08-0.88-0.24-1.27
		c-0.16-0.38-0.39-0.72-0.69-1c-0.3-0.28-0.66-0.5-1.09-0.65c-0.43-0.16-0.9-0.23-1.42-0.23c-0.53,0-1.03,0.08-1.49,0.24
		s-0.85,0.4-1.18,0.72c-0.32,0.32-0.56,0.7-0.73,1.14c-0.16,0.44-0.25,0.99-0.25,1.65h1.32c0-0.53,0.05-0.95,0.14-1.26
		c0.09-0.31,0.24-0.58,0.44-0.79c0.19-0.2,0.42-0.36,0.69-0.47c0.27-0.12,0.59-0.17,0.95-0.17c0.69,0,1.24,0.2,1.63,0.58
		c0.4,0.39,0.6,0.9,0.6,1.53c0,0.31-0.05,0.58-0.15,0.81c-0.1,0.23-0.25,0.44-0.44,0.64c-0.19,0.2-0.42,0.38-0.68,0.56
		c-0.26,0.17-0.57,0.36-0.91,0.55c-0.45,0.26-0.9,0.53-1.34,0.8c-0.45,0.28-0.85,0.59-1.21,0.95c-0.37,0.36-0.67,0.78-0.9,1.27
		c-0.24,0.49-0.37,1.07-0.4,1.76h7.12v-1.2h-5.61c0.07-0.28,0.21-0.54,0.4-0.79C129.09,9,129.33,8.77,129.59,8.56z"/>
	<path class="st0" d="M142.42,2.16c-0.34-0.46-0.76-0.81-1.25-1.06s-1.04-0.37-1.65-0.37s-1.16,0.12-1.65,0.37
		c-0.49,0.25-0.91,0.6-1.26,1.07c-0.35,0.46-0.62,1.03-0.81,1.69c-0.19,0.67-0.29,1.41-0.29,2.24c0,0.82,0.09,1.56,0.27,2.22
		s0.44,1.22,0.78,1.69s0.76,0.83,1.25,1.08c0.49,0.25,1.06,0.38,1.69,0.38c0.64,0,1.21-0.13,1.7-0.38s0.91-0.62,1.25-1.08
		s0.6-1.03,0.77-1.69c0.18-0.66,0.26-1.4,0.26-2.22c0-0.84-0.09-1.59-0.28-2.26S142.76,2.62,142.42,2.16z M141.53,9.24
		c-0.43,0.76-1.11,1.14-2.02,1.14c-0.45,0-0.84-0.1-1.18-0.3s-0.62-0.49-0.85-0.86c-0.22-0.37-0.39-0.82-0.5-1.35
		s-0.17-1.12-0.17-1.77c0-1.33,0.22-2.38,0.67-3.14c0.44-0.77,1.12-1.15,2.03-1.15c0.45,0,0.84,0.1,1.17,0.3s0.61,0.49,0.83,0.86
		c0.22,0.38,0.39,0.83,0.5,1.36s0.17,1.12,0.17,1.77C142.18,7.44,141.96,8.48,141.53,9.24z"/>
	<path class="st0" d="M146.67,1.87c-0.15,0.25-0.34,0.46-0.56,0.62c-0.23,0.16-0.48,0.27-0.77,0.33c-0.29,0.07-0.59,0.1-0.9,0.11
		v0.84h2.25v7.49h1.26V0.92h-0.98C146.92,1.29,146.82,1.61,146.67,1.87z"/>
	<path class="st0" d="M156.9,3.31c-0.22-0.75-0.62-1.36-1.22-1.81c-0.29-0.23-0.63-0.42-1.02-0.55c-0.39-0.14-0.84-0.21-1.35-0.21
		c-0.52,0-1,0.09-1.44,0.28c-0.44,0.18-0.82,0.44-1.15,0.76c-0.32,0.32-0.58,0.69-0.75,1.12s-0.26,0.88-0.26,1.36
		c0,0.47,0.09,0.92,0.27,1.33s0.42,0.79,0.73,1.1c0.31,0.31,0.67,0.56,1.09,0.74c0.42,0.18,0.86,0.27,1.33,0.27
		c0.62,0,1.16-0.11,1.63-0.34c0.47-0.22,0.87-0.55,1.2-0.97H156c-0.03,0.77-0.11,1.44-0.25,2c-0.13,0.57-0.36,1.01-0.67,1.34
		c-0.2,0.23-0.44,0.4-0.73,0.51c-0.29,0.11-0.62,0.17-1.01,0.17c-0.69,0-1.22-0.18-1.6-0.55c-0.38-0.36-0.59-0.83-0.65-1.4h-1.27
		c0.02,0.45,0.12,0.86,0.31,1.24c0.18,0.38,0.43,0.69,0.74,0.95c0.31,0.26,0.68,0.46,1.1,0.61c0.42,0.14,0.89,0.22,1.4,0.22
		c0.98,0,1.79-0.27,2.42-0.82c0.51-0.45,0.88-1.05,1.1-1.79c0.23-0.75,0.34-1.64,0.34-2.69C157.23,5.02,157.12,4.06,156.9,3.31z
		 M155.64,5.2c-0.12,0.31-0.29,0.57-0.5,0.78s-0.48,0.38-0.79,0.5c-0.31,0.12-0.66,0.18-1.05,0.18c-0.33,0-0.64-0.06-0.94-0.18
		c-0.29-0.12-0.55-0.29-0.77-0.5c-0.22-0.21-0.39-0.47-0.52-0.78c-0.12-0.3-0.19-0.64-0.19-1c0-0.36,0.06-0.69,0.18-0.99
		c0.12-0.3,0.29-0.56,0.5-0.77s0.47-0.38,0.77-0.5c0.29-0.12,0.62-0.18,0.98-0.18c0.34,0,0.66,0.06,0.97,0.18
		c0.31,0.12,0.57,0.29,0.8,0.5s0.41,0.47,0.54,0.77s0.2,0.63,0.2,0.99C155.82,4.56,155.76,4.89,155.64,5.2z"/>
</g>
</svg>
