<?xml version="1.0" encoding="utf-8"?>
<!-- Generator: Adobe Illustrator 24.0.0, SVG Export Plug-In . SVG Version: 6.00 Build 0)  -->
<svg version="1.1" id="Laag_1" xmlns="http://www.w3.org/2000/svg" xmlns:xlink="http://www.w3.org/1999/xlink" x="0px" y="0px"
	 width="128.2px" height="25.8px" viewBox="0 0 128.2 25.8" style="enable-background:new 0 0 128.2 25.8;" xml:space="preserve">
<style type="text/css">
	.st0{fill:#FFFFFF;}
</style>
<g>
	<path class="st0" d="M39.5-0.1h1.6v6.3h-1.6V-0.1z"/>
	<path class="st0" d="M42.4,1.7h1.4v0.6h0c0.2-0.2,0.4-0.4,0.6-0.6s0.5-0.2,0.8-0.2c0.3,0,0.5,0,0.7,0.1c0.2,0.1,0.4,0.2,0.5,0.4
		s0.2,0.3,0.3,0.5s0.1,0.4,0.1,0.7v2.9h-1.5V3.6c0-0.2-0.1-0.4-0.2-0.6s-0.3-0.2-0.6-0.2c-0.3,0-0.5,0.1-0.6,0.3
		c-0.2,0.2-0.2,0.4-0.2,0.7v2.5h-1.5V1.7z"/>
	<path class="st0" d="M49.8,6.2c-0.2,0-0.4,0-0.6-0.1c-0.2,0-0.3-0.1-0.5-0.2s-0.2-0.2-0.3-0.4c-0.1-0.2-0.1-0.4-0.1-0.6V2.6h-0.6
		V1.7h0.6V0.3h1.5v1.4h0.9v0.9h-0.9v2.1c0,0.2,0,0.3,0.1,0.4s0.2,0.1,0.4,0.1c0.1,0,0.1,0,0.2,0c0.1,0,0.1,0,0.1,0v1
		c-0.1,0-0.2,0-0.3,0C50.2,6.2,50,6.2,49.8,6.2z"/>
	<path class="st0" d="M53.9,6.3c-0.4,0-0.7-0.1-1-0.2c-0.3-0.1-0.6-0.3-0.8-0.5c-0.2-0.2-0.4-0.5-0.5-0.8c-0.1-0.3-0.2-0.6-0.2-1
		c0-0.3,0.1-0.6,0.2-0.9c0.1-0.3,0.3-0.5,0.5-0.8c0.2-0.2,0.5-0.4,0.8-0.5s0.6-0.2,1-0.2c0.3,0,0.6,0,0.9,0.1
		c0.3,0.1,0.5,0.2,0.7,0.4c0.3,0.2,0.5,0.6,0.6,0.9c0.1,0.4,0.2,0.8,0.2,1.3h-3.4c0,0.3,0.2,0.5,0.3,0.7c0.2,0.2,0.4,0.3,0.7,0.3
		c0.2,0,0.4,0,0.5-0.1c0.1-0.1,0.2-0.2,0.3-0.3h1.5c0,0.2-0.1,0.4-0.3,0.6c-0.1,0.2-0.3,0.3-0.5,0.5C55.2,6,55,6.2,54.7,6.2
		C54.5,6.3,54.2,6.3,53.9,6.3z M54.7,3.5c0-0.3-0.1-0.5-0.3-0.6c-0.2-0.2-0.4-0.2-0.6-0.2c-0.3,0-0.5,0.1-0.7,0.2
		C53,3,52.9,3.2,52.9,3.5H54.7z"/>
	<path class="st0" d="M57.2,1.7h1.4v0.7h0c0.2-0.3,0.4-0.5,0.6-0.6c0.2-0.1,0.4-0.2,0.7-0.2c0.1,0,0.2,0,0.3,0v1.2h0
		c-0.5-0.1-0.8,0-1.1,0.2c-0.3,0.2-0.4,0.6-0.4,1.1v2h-1.5V1.7z"/>
	<path class="st0" d="M61.2,1.7h1.4v0.6h0c0.2-0.2,0.4-0.4,0.6-0.6c0.2-0.1,0.5-0.2,0.8-0.2c0.3,0,0.5,0,0.7,0.1
		C65,1.8,65.2,1.9,65.3,2c0.1,0.1,0.2,0.3,0.3,0.5c0.1,0.2,0.1,0.4,0.1,0.7v2.9h-1.5V3.6c0-0.2-0.1-0.4-0.2-0.6
		c-0.1-0.1-0.3-0.2-0.6-0.2c-0.3,0-0.5,0.1-0.6,0.3c-0.2,0.2-0.2,0.4-0.2,0.7v2.5h-1.5V1.7z"/>
	<path class="st0" d="M68.3,6.3c-0.2,0-0.4,0-0.6-0.1c-0.2-0.1-0.4-0.1-0.5-0.3c-0.1-0.1-0.3-0.3-0.3-0.4c-0.1-0.2-0.1-0.4-0.1-0.6
		c0-0.2,0-0.5,0.1-0.6S67,4,67.2,3.9c0.2-0.1,0.4-0.2,0.6-0.3s0.4-0.1,0.7-0.1c0.4-0.1,0.8-0.1,0.9-0.2c0.2-0.1,0.3-0.2,0.3-0.3
		c0-0.1-0.1-0.3-0.2-0.4c-0.1-0.1-0.3-0.1-0.5-0.1c-0.2,0-0.4,0-0.5,0.2c-0.1,0.1-0.2,0.2-0.2,0.4h-1.4c0-0.2,0.1-0.4,0.1-0.6
		c0.1-0.2,0.2-0.4,0.4-0.5s0.4-0.3,0.7-0.3s0.6-0.1,0.9-0.1c0.4,0,0.7,0,0.9,0.1c0.2,0.1,0.5,0.2,0.6,0.3c0.2,0.1,0.4,0.3,0.5,0.5
		c0.1,0.2,0.1,0.5,0.1,0.7v2.3c0,0.2,0,0.3,0,0.4c0,0.1,0.1,0.2,0.1,0.2v0.1h-1.5c0,0-0.1-0.1-0.1-0.2s0-0.2-0.1-0.3h0
		c-0.1,0.2-0.3,0.3-0.5,0.4C68.9,6.3,68.6,6.3,68.3,6.3z M68.8,5.4c0.3,0,0.5-0.1,0.7-0.2s0.3-0.3,0.3-0.6V4c-0.1,0-0.2,0.1-0.3,0.1
		s-0.3,0.1-0.4,0.1c-0.3,0.1-0.5,0.1-0.6,0.2c-0.1,0.1-0.2,0.2-0.2,0.4c0,0.2,0.1,0.3,0.2,0.4C68.4,5.4,68.6,5.4,68.8,5.4z"/>
	<path class="st0" d="M74.1,6.2c-0.2,0-0.4,0-0.6-0.1c-0.2,0-0.3-0.1-0.5-0.2s-0.2-0.2-0.3-0.4S72.6,5.2,72.6,5V2.6H72V1.7h0.6V0.3
		h1.5v1.4h0.9v0.9h-0.9v2.1c0,0.2,0,0.3,0.1,0.4c0.1,0.1,0.2,0.1,0.4,0.1c0.1,0,0.1,0,0.2,0c0.1,0,0.1,0,0.1,0v1c-0.1,0-0.2,0-0.3,0
		C74.5,6.2,74.3,6.2,74.1,6.2z"/>
	<path class="st0" d="M75.9-0.1h1.5v1.2h-1.5V-0.1z M75.9,1.7h1.5v4.5h-1.5V1.7z"/>
	<path class="st0" d="M80.9,6.3c-0.4,0-0.7-0.1-1-0.2c-0.3-0.1-0.6-0.3-0.8-0.5c-0.2-0.2-0.4-0.5-0.5-0.8c-0.1-0.3-0.2-0.6-0.2-0.9
		c0-0.3,0.1-0.7,0.2-0.9c0.1-0.3,0.3-0.5,0.5-0.8c0.2-0.2,0.5-0.4,0.8-0.5c0.3-0.1,0.7-0.2,1-0.2c0.4,0,0.7,0.1,1,0.2
		s0.6,0.3,0.8,0.5c0.2,0.2,0.4,0.5,0.5,0.8c0.1,0.3,0.2,0.6,0.2,0.9c0,0.3-0.1,0.7-0.2,0.9c-0.1,0.3-0.3,0.5-0.5,0.8
		S82.2,6,81.9,6.2C81.6,6.3,81.3,6.3,80.9,6.3z M80.9,5.3c0.3,0,0.6-0.1,0.8-0.4c0.2-0.2,0.3-0.6,0.3-1c0-0.4-0.1-0.7-0.3-1
		c-0.2-0.3-0.4-0.4-0.8-0.4S80.3,2.7,80.1,3c-0.2,0.3-0.2,0.6-0.2,1c0,0.4,0.1,0.7,0.2,1C80.3,5.2,80.6,5.3,80.9,5.3z"/>
	<path class="st0" d="M84.4,1.7h1.4v0.6h0c0.2-0.2,0.4-0.4,0.6-0.6c0.2-0.1,0.5-0.2,0.8-0.2c0.3,0,0.5,0,0.7,0.1
		c0.2,0.1,0.4,0.2,0.5,0.4c0.1,0.1,0.2,0.3,0.3,0.5c0.1,0.2,0.1,0.4,0.1,0.7v2.9h-1.5V3.6c0-0.2-0.1-0.4-0.2-0.6
		c-0.1-0.1-0.3-0.2-0.6-0.2c-0.3,0-0.5,0.1-0.6,0.3c-0.2,0.2-0.2,0.4-0.2,0.7v2.5h-1.5V1.7z"/>
	<path class="st0" d="M91.5,6.3c-0.2,0-0.4,0-0.6-0.1S90.4,6.1,90.3,6C90.2,5.8,90,5.7,90,5.5s-0.1-0.4-0.1-0.6c0-0.2,0-0.5,0.1-0.6
		c0.1-0.2,0.2-0.3,0.4-0.4c0.2-0.1,0.4-0.2,0.6-0.3s0.4-0.1,0.7-0.1c0.4-0.1,0.8-0.1,0.9-0.2c0.2-0.1,0.3-0.2,0.3-0.3
		c0-0.1-0.1-0.3-0.2-0.4c-0.1-0.1-0.3-0.1-0.5-0.1c-0.2,0-0.4,0-0.5,0.2c-0.1,0.1-0.2,0.2-0.2,0.4h-1.4c0-0.2,0.1-0.4,0.1-0.6
		c0.1-0.2,0.2-0.4,0.4-0.5s0.4-0.3,0.7-0.3s0.6-0.1,0.9-0.1s0.7,0,0.9,0.1s0.5,0.2,0.6,0.3c0.2,0.1,0.4,0.3,0.5,0.5
		c0.1,0.2,0.1,0.5,0.1,0.7v2.3c0,0.2,0,0.3,0,0.4s0.1,0.2,0.1,0.2v0.1H93c0,0-0.1-0.1-0.1-0.2s0-0.2-0.1-0.3h0
		c-0.1,0.2-0.3,0.3-0.5,0.4S91.8,6.3,91.5,6.3z M91.9,5.4c0.3,0,0.5-0.1,0.7-0.2s0.3-0.3,0.3-0.6V4c-0.1,0-0.2,0.1-0.3,0.1
		s-0.3,0.1-0.4,0.1c-0.3,0.1-0.5,0.1-0.6,0.2c-0.1,0.1-0.2,0.2-0.2,0.4c0,0.2,0.1,0.3,0.2,0.4S91.7,5.4,91.9,5.4z"/>
	<path class="st0" d="M95.5-0.1H97v6.3h-1.5V-0.1z"/>
</g>
<g>
	<path class="st0" d="M42.1,15.3c-0.4,0-0.8,0-1.2-0.1c-0.4-0.1-0.7-0.2-0.9-0.4s-0.5-0.4-0.6-0.7c-0.1-0.3-0.2-0.6-0.2-0.9h1.6
		c0,0.3,0.2,0.5,0.4,0.7c0.2,0.1,0.5,0.2,0.9,0.2c0.1,0,0.3,0,0.4,0c0.1,0,0.2-0.1,0.3-0.1s0.2-0.1,0.2-0.2c0.1-0.1,0.1-0.2,0.1-0.3
		c0-0.1,0-0.2-0.1-0.3c-0.1-0.1-0.2-0.2-0.3-0.2c-0.1-0.1-0.3-0.1-0.5-0.2s-0.4-0.1-0.6-0.1c-0.3-0.1-0.6-0.1-0.9-0.2
		c-0.3-0.1-0.5-0.2-0.8-0.3c-0.2-0.1-0.4-0.3-0.5-0.5c-0.1-0.2-0.2-0.5-0.2-0.8c0-0.3,0.1-0.6,0.2-0.9c0.1-0.2,0.3-0.4,0.6-0.6
		c0.2-0.2,0.5-0.3,0.8-0.4s0.7-0.1,1-0.1c0.4,0,0.7,0,1,0.1c0.3,0.1,0.6,0.2,0.8,0.4c0.2,0.2,0.4,0.4,0.6,0.6s0.2,0.5,0.2,0.9H43
		c0-0.2-0.1-0.4-0.3-0.6C42.4,10,42.2,10,41.9,10c-0.3,0-0.5,0.1-0.7,0.2c-0.2,0.1-0.3,0.3-0.3,0.4c0,0.1,0,0.2,0.1,0.3
		s0.2,0.1,0.3,0.2s0.3,0.1,0.5,0.1s0.4,0.1,0.6,0.1c0.3,0.1,0.6,0.1,0.9,0.2s0.5,0.2,0.7,0.4c0.2,0.1,0.4,0.3,0.5,0.6
		c0.1,0.2,0.2,0.5,0.2,0.8c0,0.3-0.1,0.6-0.2,0.9c-0.1,0.3-0.3,0.5-0.6,0.6c-0.2,0.2-0.5,0.3-0.9,0.4C42.8,15.3,42.4,15.3,42.1,15.3
		z"/>
	<path class="st0" d="M45.8,8.9h1.5v2.3h0c0.2-0.2,0.4-0.4,0.6-0.5c0.2-0.1,0.5-0.2,0.8-0.2c0.3,0,0.5,0,0.7,0.1
		c0.2,0.1,0.4,0.2,0.5,0.4s0.2,0.3,0.3,0.5s0.1,0.4,0.1,0.7v2.9h-1.5v-2.6c0-0.2-0.1-0.4-0.2-0.6s-0.3-0.2-0.6-0.2
		c-0.3,0-0.5,0.1-0.6,0.3c-0.2,0.2-0.2,0.4-0.2,0.7v2.5h-1.5V8.9z"/>
	<path class="st0" d="M53.8,15.3c-0.4,0-0.7-0.1-1-0.2c-0.3-0.1-0.6-0.3-0.8-0.5c-0.2-0.2-0.4-0.5-0.5-0.8c-0.1-0.3-0.2-0.6-0.2-0.9
		c0-0.3,0.1-0.7,0.2-0.9c0.1-0.3,0.3-0.5,0.5-0.8c0.2-0.2,0.5-0.4,0.8-0.5c0.3-0.1,0.7-0.2,1-0.2s0.7,0.1,1,0.2
		c0.3,0.1,0.6,0.3,0.8,0.5c0.2,0.2,0.4,0.5,0.5,0.8c0.1,0.3,0.2,0.6,0.2,0.9c0,0.3-0.1,0.7-0.2,0.9c-0.1,0.3-0.3,0.5-0.5,0.8
		s-0.5,0.4-0.8,0.5C54.5,15.3,54.2,15.3,53.8,15.3z M53.8,14.3c0.3,0,0.6-0.1,0.8-0.4c0.2-0.2,0.3-0.6,0.3-1c0-0.4-0.1-0.7-0.3-1
		c-0.2-0.3-0.4-0.4-0.8-0.4c-0.3,0-0.6,0.1-0.7,0.4s-0.2,0.6-0.2,1c0,0.4,0.1,0.7,0.2,1S53.5,14.3,53.8,14.3z"/>
	<path class="st0" d="M57.3,10.7h1.4v0.7h0c0.2-0.3,0.4-0.5,0.6-0.6c0.2-0.1,0.4-0.2,0.7-0.2c0.1,0,0.2,0,0.3,0v1.2h0
		c-0.5-0.1-0.8,0-1.1,0.2c-0.3,0.2-0.4,0.6-0.4,1.1v2h-1.5V10.7z"/>
	<path class="st0" d="M63.2,15.2c-0.2,0-0.4,0-0.6-0.1s-0.3-0.1-0.5-0.2s-0.2-0.2-0.3-0.4c-0.1-0.2-0.1-0.4-0.1-0.6v-2.4h-0.6v-0.9
		h0.6V9.3h1.5v1.4H64v0.9h-0.9v2.1c0,0.2,0,0.3,0.1,0.4c0.1,0.1,0.2,0.1,0.4,0.1c0.1,0,0.1,0,0.2,0s0.1,0,0.1,0v1
		c-0.1,0-0.2,0-0.3,0C63.6,15.2,63.4,15.2,63.2,15.2z"/>
	<path class="st0" d="M67,8.9h4.9v1.3h-3.3v1.3h2.7v1.3h-2.7v2.4H67V8.9z"/>
	<path class="st0" d="M72.9,8.9h1.5v1.2h-1.5V8.9z M72.9,10.7h1.5v4.5h-1.5V10.7z"/>
	<path class="st0" d="M75.6,8.9h1.5v6.3h-1.5V8.9z"/>
	<path class="st0" d="M78.3,10.7h1.4v0.6h0c0.1-0.2,0.3-0.4,0.6-0.6c0.2-0.1,0.5-0.2,0.9-0.2c0.3,0,0.6,0.1,0.8,0.2
		c0.2,0.1,0.4,0.3,0.5,0.6h0c0.2-0.3,0.4-0.5,0.6-0.6c0.2-0.1,0.5-0.2,0.8-0.2c0.3,0,0.5,0,0.7,0.1s0.4,0.2,0.5,0.3s0.2,0.3,0.3,0.5
		c0.1,0.2,0.1,0.4,0.1,0.7v2.9h-1.5v-2.7c0-0.2-0.1-0.4-0.2-0.6c-0.1-0.1-0.3-0.2-0.5-0.2c-0.2,0-0.4,0.1-0.6,0.3s-0.2,0.4-0.2,0.7
		v2.5h-1.5v-2.7c0-0.2-0.1-0.4-0.2-0.6c-0.1-0.1-0.3-0.2-0.5-0.2c-0.2,0-0.4,0.1-0.5,0.3s-0.2,0.4-0.2,0.7v2.5h-1.5V10.7z"/>
	<path class="st0" d="M88.7,8.9h4.9v1.3h-3.3v1.3h2.7v1.3h-2.7v2.4h-1.6V8.9z"/>
	<path class="st0" d="M96.5,15.3c-0.4,0-0.7-0.1-1-0.2s-0.6-0.3-0.8-0.5c-0.2-0.2-0.4-0.5-0.5-0.8c-0.1-0.3-0.2-0.6-0.2-1
		c0-0.3,0.1-0.6,0.2-0.9c0.1-0.3,0.3-0.5,0.5-0.8c0.2-0.2,0.5-0.4,0.8-0.5c0.3-0.1,0.6-0.2,1-0.2c0.3,0,0.6,0,0.9,0.1
		c0.3,0.1,0.5,0.2,0.7,0.4c0.3,0.2,0.5,0.6,0.6,0.9c0.1,0.4,0.2,0.8,0.2,1.3h-3.4c0,0.3,0.2,0.5,0.3,0.7c0.2,0.2,0.4,0.3,0.7,0.3
		c0.2,0,0.4,0,0.5-0.1s0.2-0.2,0.3-0.3h1.5c0,0.2-0.1,0.4-0.3,0.6c-0.1,0.2-0.3,0.3-0.5,0.5c-0.2,0.1-0.4,0.2-0.7,0.3
		C97.1,15.3,96.8,15.3,96.5,15.3z M97.3,12.5c0-0.3-0.1-0.5-0.3-0.6c-0.2-0.2-0.4-0.2-0.6-0.2c-0.3,0-0.5,0.1-0.7,0.2
		c-0.2,0.2-0.3,0.4-0.3,0.6H97.3z"/>
	<path class="st0" d="M101.8,15.3c-0.7,0-1.2-0.1-1.6-0.4c-0.4-0.3-0.6-0.7-0.6-1.2h1.4c0,0.2,0.1,0.4,0.3,0.5s0.3,0.2,0.6,0.2
		c0.2,0,0.4,0,0.5-0.1c0.1-0.1,0.2-0.2,0.2-0.3c0-0.1,0-0.2-0.1-0.2c-0.1-0.1-0.2-0.1-0.3-0.2c-0.1,0-0.2-0.1-0.4-0.1
		c-0.1,0-0.3,0-0.4-0.1c-0.2,0-0.4-0.1-0.6-0.1c-0.2,0-0.4-0.1-0.5-0.2s-0.3-0.2-0.4-0.4c-0.1-0.2-0.1-0.4-0.1-0.6
		c0-0.2,0.1-0.4,0.2-0.6s0.3-0.3,0.4-0.5c0.2-0.1,0.4-0.2,0.6-0.3c0.2-0.1,0.5-0.1,0.8-0.1c0.7,0,1.2,0.1,1.5,0.4
		c0.4,0.3,0.6,0.6,0.6,1.1h-1.4c0-0.2-0.1-0.3-0.2-0.4s-0.3-0.1-0.5-0.1c-0.2,0-0.3,0-0.5,0.1c-0.1,0.1-0.2,0.2-0.2,0.3
		c0,0.1,0,0.1,0.1,0.2s0.1,0.1,0.2,0.1s0.2,0.1,0.4,0.1c0.1,0,0.3,0,0.4,0.1c0.2,0,0.4,0.1,0.6,0.1c0.2,0,0.4,0.1,0.6,0.2
		s0.3,0.2,0.4,0.4s0.2,0.4,0.2,0.7c0,0.2-0.1,0.5-0.2,0.7s-0.3,0.3-0.4,0.5s-0.4,0.2-0.7,0.3S102.1,15.3,101.8,15.3z"/>
	<path class="st0" d="M106.6,15.2c-0.2,0-0.4,0-0.6-0.1s-0.3-0.1-0.5-0.2s-0.2-0.2-0.3-0.4c-0.1-0.2-0.1-0.4-0.1-0.6v-2.4h-0.6v-0.9
		h0.6V9.3h1.5v1.4h0.9v0.9h-0.9v2.1c0,0.2,0,0.3,0.1,0.4c0.1,0.1,0.2,0.1,0.4,0.1c0.1,0,0.1,0,0.2,0s0.1,0,0.1,0v1
		c-0.1,0-0.2,0-0.3,0C107,15.2,106.8,15.2,106.6,15.2z"/>
	<path class="st0" d="M108.5,8.9h1.5v1.2h-1.5V8.9z M108.5,10.7h1.5v4.5h-1.5V10.7z"/>
	<path class="st0" d="M110.8,10.7h1.5l0.6,2c0,0.1,0.1,0.2,0.1,0.3s0.1,0.2,0.1,0.3c0,0.1,0,0.2,0.1,0.3h0c0-0.1,0-0.2,0.1-0.3
		c0-0.1,0.1-0.2,0.1-0.3c0-0.1,0.1-0.2,0.1-0.3l0.7-2h1.5l-1.6,4.5h-1.6L110.8,10.7z"/>
	<path class="st0" d="M117.6,15.3c-0.2,0-0.4,0-0.6-0.1s-0.4-0.1-0.5-0.3c-0.1-0.1-0.3-0.3-0.3-0.4s-0.1-0.4-0.1-0.6
		c0-0.2,0-0.5,0.1-0.6c0.1-0.2,0.2-0.3,0.4-0.4c0.2-0.1,0.4-0.2,0.6-0.3s0.4-0.1,0.7-0.1c0.4-0.1,0.8-0.1,0.9-0.2
		c0.2-0.1,0.3-0.2,0.3-0.3c0-0.1-0.1-0.3-0.2-0.4c-0.1-0.1-0.3-0.1-0.5-0.1c-0.2,0-0.4,0-0.5,0.2c-0.1,0.1-0.2,0.2-0.2,0.4h-1.4
		c0-0.2,0.1-0.4,0.1-0.6c0.1-0.2,0.2-0.4,0.4-0.5s0.4-0.3,0.7-0.3s0.6-0.1,0.9-0.1s0.7,0,0.9,0.1s0.5,0.2,0.6,0.3
		c0.2,0.1,0.4,0.3,0.5,0.5c0.1,0.2,0.1,0.5,0.1,0.7v2.3c0,0.2,0,0.3,0,0.4s0.1,0.2,0.1,0.2v0.1h-1.5c0,0-0.1-0.1-0.1-0.2
		s0-0.2-0.1-0.3h0c-0.1,0.2-0.3,0.3-0.5,0.4S118,15.3,117.6,15.3z M118.1,14.4c0.3,0,0.5-0.1,0.7-0.2s0.3-0.3,0.3-0.6V13
		c-0.1,0-0.2,0.1-0.3,0.1s-0.3,0.1-0.4,0.1c-0.3,0.1-0.5,0.1-0.6,0.2c-0.1,0.1-0.2,0.2-0.2,0.4c0,0.2,0.1,0.3,0.2,0.4
		S117.9,14.4,118.1,14.4z"/>
	<path class="st0" d="M121.7,8.9h1.5v6.3h-1.5V8.9z"/>
</g>
<g>
	<path class="st0" d="M39.4,17.9h1.6l2,3.2c0,0,0.1,0.1,0.1,0.2s0.1,0.2,0.2,0.3c0.1,0.1,0.1,0.2,0.2,0.3h0c0-0.1,0-0.3,0-0.4
		c0-0.1,0-0.2,0-0.3s0-0.2,0-0.2v-3h1.6v6.3h-1.6l-1.9-3.1c0,0-0.1-0.1-0.1-0.2c-0.1-0.1-0.1-0.2-0.2-0.3c-0.1-0.1-0.1-0.2-0.2-0.4
		h0c0,0.2,0,0.3,0,0.4c0,0.1,0,0.2,0,0.3c0,0.1,0,0.2,0,0.3v2.9h-1.6V17.9z"/>
	<path class="st0" d="M46.3,17.9h1.5v1.2h-1.5V17.9z M46.3,19.7h1.5v4.5h-1.5V19.7z"/>
	<path class="st0" d="M49.1,25.7c-0.1,0-0.3,0-0.4,0c-0.2,0-0.3,0-0.4-0.1v-1c0.1,0,0.2,0,0.3,0c0.1,0,0.2,0,0.2-0.1
		s0.1-0.1,0.1-0.1s0.1-0.2,0.1-0.3v-4.5h1.5v4.5c0,0.3,0,0.5-0.1,0.7s-0.2,0.3-0.3,0.4c-0.1,0.1-0.3,0.2-0.5,0.3
		C49.5,25.7,49.3,25.7,49.1,25.7z M49,17.9h1.5v1.2H49V17.9z"/>
	<path class="st0" d="M51.7,19.7h1.4v0.6h0c0.1-0.2,0.3-0.4,0.6-0.6c0.2-0.1,0.5-0.2,0.9-0.2c0.3,0,0.6,0.1,0.8,0.2
		c0.2,0.1,0.4,0.3,0.5,0.6h0c0.2-0.3,0.4-0.5,0.6-0.6c0.2-0.1,0.5-0.2,0.8-0.2c0.3,0,0.5,0,0.7,0.1c0.2,0.1,0.4,0.2,0.5,0.3
		s0.2,0.3,0.3,0.5C59,20.8,59,21,59,21.3v2.9h-1.5v-2.7c0-0.2-0.1-0.4-0.2-0.6c-0.1-0.1-0.3-0.2-0.5-0.2c-0.2,0-0.4,0.1-0.6,0.3
		c-0.1,0.2-0.2,0.4-0.2,0.7v2.5h-1.5v-2.7c0-0.2-0.1-0.4-0.2-0.6c-0.1-0.1-0.3-0.2-0.5-0.2c-0.2,0-0.4,0.1-0.5,0.3s-0.2,0.4-0.2,0.7
		v2.5h-1.5V19.7z"/>
	<path class="st0" d="M62.4,24.3c-0.4,0-0.7-0.1-1-0.2s-0.6-0.3-0.8-0.5c-0.2-0.2-0.4-0.5-0.5-0.8c-0.1-0.3-0.2-0.6-0.2-1
		c0-0.3,0.1-0.6,0.2-0.9c0.1-0.3,0.3-0.5,0.5-0.8c0.2-0.2,0.5-0.4,0.8-0.5c0.3-0.1,0.6-0.2,1-0.2c0.3,0,0.6,0,0.9,0.1
		c0.3,0.1,0.5,0.2,0.7,0.4c0.3,0.2,0.5,0.6,0.6,0.9c0.1,0.4,0.2,0.8,0.2,1.3h-3.4c0,0.3,0.2,0.5,0.3,0.7c0.2,0.2,0.4,0.3,0.7,0.3
		c0.2,0,0.4,0,0.5-0.1s0.2-0.2,0.3-0.3h1.5c0,0.2-0.1,0.4-0.3,0.6c-0.1,0.2-0.3,0.3-0.5,0.5c-0.2,0.1-0.4,0.2-0.7,0.3
		C63,24.3,62.7,24.3,62.4,24.3z M63.3,21.5c0-0.3-0.1-0.5-0.3-0.6c-0.2-0.2-0.4-0.2-0.6-0.2c-0.3,0-0.5,0.1-0.7,0.2
		c-0.2,0.2-0.3,0.4-0.3,0.6H63.3z"/>
	<path class="st0" d="M67.9,25.8c-0.7,0-1.2-0.1-1.6-0.4c-0.4-0.2-0.6-0.6-0.7-1.1h1.5c0,0.1,0.1,0.2,0.3,0.3
		c0.1,0.1,0.3,0.1,0.6,0.1c0.3,0,0.5-0.1,0.7-0.2c0.1-0.1,0.2-0.4,0.2-0.6v-0.4h0c-0.1,0.2-0.3,0.3-0.5,0.4
		c-0.2,0.1-0.4,0.1-0.7,0.1c-0.3,0-0.5,0-0.8-0.1c-0.2-0.1-0.5-0.2-0.7-0.4c-0.2-0.2-0.3-0.4-0.5-0.7c-0.1-0.3-0.2-0.6-0.2-0.9
		c0-0.3,0-0.6,0.1-0.9s0.2-0.5,0.4-0.7s0.4-0.4,0.6-0.5s0.5-0.2,0.8-0.2c0.3,0,0.6,0.1,0.8,0.2c0.2,0.1,0.4,0.3,0.5,0.4h0v-0.5h1.4
		v4.1c0,0.3-0.1,0.6-0.2,0.9c-0.1,0.2-0.3,0.5-0.5,0.6c-0.2,0.2-0.5,0.3-0.8,0.4C68.6,25.7,68.3,25.8,67.9,25.8z M67.9,22.9
		c0.3,0,0.6-0.1,0.7-0.3s0.2-0.5,0.2-0.8c0-0.2,0-0.3-0.1-0.4c0-0.1-0.1-0.3-0.2-0.4c-0.1-0.1-0.2-0.2-0.3-0.2
		c-0.1-0.1-0.3-0.1-0.4-0.1c-0.3,0-0.5,0.1-0.7,0.3c-0.2,0.2-0.3,0.5-0.3,0.8c0,0.3,0.1,0.6,0.3,0.8C67.4,22.8,67.7,22.9,67.9,22.9z
		"/>
	<path class="st0" d="M73.8,24.3c-0.4,0-0.7-0.1-1-0.2c-0.3-0.1-0.6-0.3-0.8-0.5s-0.4-0.5-0.5-0.8c-0.1-0.3-0.2-0.6-0.2-1
		c0-0.3,0.1-0.6,0.2-0.9c0.1-0.3,0.3-0.5,0.5-0.8c0.2-0.2,0.5-0.4,0.8-0.5c0.3-0.1,0.6-0.2,1-0.2c0.3,0,0.6,0,0.9,0.1
		c0.3,0.1,0.5,0.2,0.7,0.4c0.3,0.2,0.5,0.6,0.6,0.9c0.1,0.4,0.2,0.8,0.2,1.3h-3.4c0,0.3,0.2,0.5,0.3,0.7c0.2,0.2,0.4,0.3,0.7,0.3
		c0.2,0,0.4,0,0.5-0.1c0.1-0.1,0.2-0.2,0.3-0.3H76c0,0.2-0.1,0.4-0.3,0.6c-0.1,0.2-0.3,0.3-0.5,0.5c-0.2,0.1-0.4,0.2-0.7,0.3
		S74.1,24.3,73.8,24.3z M74.6,21.5c0-0.3-0.1-0.5-0.3-0.6c-0.2-0.2-0.4-0.2-0.6-0.2c-0.3,0-0.5,0.1-0.7,0.2
		c-0.2,0.2-0.3,0.4-0.3,0.6H74.6z"/>
	<path class="st0" d="M77.1,19.7h1.4v0.6h0c0.2-0.2,0.4-0.4,0.6-0.6c0.2-0.1,0.5-0.2,0.8-0.2c0.3,0,0.5,0,0.7,0.1
		c0.2,0.1,0.4,0.2,0.5,0.4c0.1,0.1,0.2,0.3,0.3,0.5c0.1,0.2,0.1,0.4,0.1,0.7v2.9h-1.5v-2.6c0-0.2-0.1-0.4-0.2-0.6
		c-0.1-0.1-0.3-0.2-0.6-0.2c-0.3,0-0.5,0.1-0.6,0.3c-0.2,0.2-0.2,0.4-0.2,0.7v2.5h-1.5V19.7z"/>
</g>
<g>
	<path class="st0" d="M1.6,2.3H0.2v-1C0.7,1.3,1,1.2,1.3,1s0.5-0.5,0.6-0.9h1.2v6.1H1.6V2.3z"/>
	<path class="st0" d="M4.5,3.4H7v1.2H4.5V3.4z"/>
	<path class="st0" d="M10.5,6.3c-0.4,0-0.7,0-1-0.1C9.2,6.1,8.9,6,8.7,5.9C8.5,5.7,8.3,5.5,8.1,5.2C8,5,7.9,4.7,7.8,4.4h1.5
		c0,0.3,0.2,0.5,0.4,0.6c0.2,0.1,0.4,0.2,0.7,0.2c0.3,0,0.6-0.1,0.7-0.3s0.3-0.4,0.3-0.7c0-0.3-0.1-0.6-0.3-0.7
		c-0.2-0.2-0.4-0.3-0.7-0.3c-0.2,0-0.4,0-0.5,0.1C9.8,3.3,9.7,3.4,9.6,3.5H8.1l0.6-3.3h3.9v1.2H9.9L9.7,2.4h0
		c0.1-0.1,0.3-0.2,0.5-0.3c0.2-0.1,0.5-0.1,0.7-0.1c0.3,0,0.6,0,0.8,0.1c0.3,0.1,0.5,0.2,0.7,0.4s0.4,0.4,0.5,0.7
		c0.1,0.3,0.2,0.5,0.2,0.9c0,0.3-0.1,0.6-0.2,0.9c-0.1,0.3-0.3,0.5-0.5,0.7c-0.2,0.2-0.5,0.3-0.8,0.4C11.2,6.3,10.9,6.3,10.5,6.3z"
		/>
</g>
<g>
	<path class="st0" d="M2.4,8.9H4l2.4,6.3H4.7l-0.4-1.1H2l-0.4,1.1H0L2.4,8.9z M3.9,12.9l-0.5-1.5c0-0.1-0.1-0.2-0.1-0.3
		c0-0.1-0.1-0.2-0.1-0.3c0-0.1-0.1-0.2-0.1-0.3h0c0,0.1-0.1,0.2-0.1,0.3C3,11,3,11,3,11.1c0,0.1-0.1,0.2-0.1,0.3l-0.5,1.5H3.9z"/>
	<path class="st0" d="M7.2,10.7h1.4v0.5h0C8.8,11,9,10.9,9.3,10.7c0.2-0.1,0.5-0.2,0.8-0.2c0.3,0,0.6,0.1,0.8,0.2s0.5,0.3,0.6,0.5
		c0.2,0.2,0.3,0.5,0.4,0.8c0.1,0.3,0.1,0.6,0.1,0.9c0,0.4,0,0.7-0.1,1s-0.2,0.5-0.4,0.8c-0.2,0.2-0.4,0.4-0.6,0.5s-0.5,0.2-0.8,0.2
		c-0.3,0-0.6-0.1-0.8-0.2c-0.2-0.1-0.4-0.3-0.5-0.4h0v2H7.2V10.7z M9.7,14.2c0.3,0,0.5-0.1,0.7-0.3c0.2-0.2,0.2-0.5,0.2-0.9
		c0-0.4-0.1-0.7-0.2-0.9s-0.4-0.4-0.7-0.4c-0.2,0-0.3,0-0.4,0.1S9,12,8.9,12.1c-0.1,0.1-0.1,0.2-0.2,0.4c0,0.2-0.1,0.3-0.1,0.5
		c0,0.4,0.1,0.7,0.3,0.9S9.4,14.2,9.7,14.2z"/>
	<path class="st0" d="M13.1,10.7h1.4v0.7h0c0.2-0.3,0.3-0.5,0.6-0.6c0.2-0.1,0.4-0.2,0.7-0.2c0.1,0,0.2,0,0.3,0v1.2h0
		c-0.5-0.1-0.8,0-1.1,0.2c-0.3,0.2-0.4,0.6-0.4,1.1v2h-1.5V10.7z"/>
	<path class="st0" d="M17.1,8.9h1.5v1.2h-1.5V8.9z M17.1,10.7h1.5v4.5h-1.5V10.7z"/>
	<path class="st0" d="M19.8,8.9h1.5v6.3h-1.5V8.9z"/>
</g>
<g>
	<path class="st0" d="M0.3,23.5c0.1-0.2,0.1-0.4,0.2-0.6s0.2-0.3,0.3-0.5s0.3-0.3,0.4-0.4c0.3-0.2,0.6-0.5,0.9-0.7
		c0.3-0.2,0.6-0.4,0.9-0.6c0.1-0.1,0.2-0.2,0.3-0.3s0.1-0.3,0.1-0.4c0-0.2-0.1-0.4-0.2-0.6c-0.1-0.1-0.3-0.2-0.6-0.2
		c-0.3,0-0.5,0.1-0.7,0.3c-0.1,0.1-0.2,0.2-0.2,0.4s-0.1,0.3-0.1,0.5H0.3c0-0.4,0-0.6,0.1-0.9s0.2-0.5,0.3-0.7
		c0.2-0.2,0.4-0.4,0.8-0.6C1.8,18.1,2.3,18,2.7,18c0.4,0,0.7,0,1,0.1c0.3,0.1,0.5,0.2,0.7,0.4s0.3,0.4,0.4,0.6
		C5,19.5,5.1,19.7,5.1,20c0,0.2,0,0.4-0.1,0.6S4.9,20.9,4.8,21c-0.1,0.1-0.2,0.3-0.3,0.4c-0.1,0.1-0.3,0.2-0.4,0.3
		c-0.1,0.1-0.3,0.2-0.4,0.3c-0.1,0.1-0.3,0.2-0.4,0.3c-0.1,0.1-0.3,0.2-0.4,0.3c-0.1,0.1-0.3,0.2-0.4,0.3v0h2.7v1.2H0.2
		C0.2,23.9,0.2,23.7,0.3,23.5z"/>
	<path class="st0" d="M8.8,24.3c-0.4,0-0.8-0.1-1.1-0.2c-0.3-0.1-0.6-0.4-0.9-0.6c-0.2-0.3-0.4-0.6-0.6-1c-0.1-0.4-0.2-0.8-0.2-1.3
		c0-0.5,0.1-0.9,0.2-1.3c0.1-0.4,0.3-0.7,0.6-1c0.2-0.3,0.5-0.5,0.9-0.6S8.4,18,8.8,18c0.4,0,0.8,0.1,1.1,0.2
		c0.3,0.1,0.6,0.4,0.9,0.6c0.2,0.3,0.4,0.6,0.6,1c0.1,0.4,0.2,0.8,0.2,1.3c0,0.5-0.1,0.9-0.2,1.3c-0.1,0.4-0.3,0.7-0.6,1
		c-0.2,0.3-0.5,0.5-0.9,0.6C9.6,24.3,9.3,24.3,8.8,24.3z M8.8,23.2c0.2,0,0.4,0,0.5-0.1s0.3-0.2,0.4-0.4c0.1-0.2,0.2-0.4,0.2-0.6
		c0-0.2,0.1-0.5,0.1-0.8c0-0.3,0-0.6-0.1-0.8c0-0.2-0.1-0.5-0.2-0.6c-0.1-0.2-0.2-0.3-0.4-0.4s-0.3-0.1-0.5-0.1
		c-0.2,0-0.4,0-0.5,0.1S8,19.6,7.9,19.7c-0.1,0.2-0.2,0.4-0.2,0.6s-0.1,0.5-0.1,0.8c0,0.3,0,0.6,0.1,0.8c0,0.2,0.1,0.5,0.2,0.6
		C8,22.8,8.1,22.9,8.3,23S8.6,23.2,8.8,23.2z"/>
	<path class="st0" d="M12.5,23.5c0.1-0.2,0.1-0.4,0.2-0.6s0.2-0.3,0.3-0.5s0.3-0.3,0.4-0.4c0.3-0.2,0.6-0.5,0.9-0.7
		c0.3-0.2,0.6-0.4,0.9-0.6c0.1-0.1,0.2-0.2,0.3-0.3s0.1-0.3,0.1-0.4c0-0.2-0.1-0.4-0.2-0.6c-0.1-0.1-0.3-0.2-0.6-0.2
		c-0.3,0-0.5,0.1-0.7,0.3c-0.1,0.1-0.2,0.2-0.2,0.4S14,20.2,14,20.4h-1.5c0-0.4,0-0.6,0.1-0.9s0.2-0.5,0.3-0.7
		c0.2-0.2,0.4-0.4,0.8-0.6c0.3-0.2,0.8-0.2,1.3-0.2c0.4,0,0.7,0,1,0.1c0.3,0.1,0.5,0.2,0.7,0.4s0.3,0.4,0.4,0.6
		c0.1,0.2,0.2,0.5,0.2,0.7c0,0.2,0,0.4-0.1,0.6S17.1,20.9,17,21c-0.1,0.1-0.2,0.3-0.3,0.4c-0.1,0.1-0.3,0.2-0.4,0.3
		c-0.1,0.1-0.3,0.2-0.4,0.3c-0.1,0.1-0.3,0.2-0.4,0.3c-0.1,0.1-0.3,0.2-0.4,0.3c-0.1,0.1-0.3,0.2-0.4,0.3v0h2.7v1.2h-4.9
		C12.4,23.9,12.5,23.7,12.5,23.5z"/>
	<path class="st0" d="M21.1,24.3c-0.4,0-0.8-0.1-1.1-0.2c-0.3-0.1-0.6-0.4-0.9-0.6c-0.2-0.3-0.4-0.6-0.6-1c-0.1-0.4-0.2-0.8-0.2-1.3
		c0-0.5,0.1-0.9,0.2-1.3c0.1-0.4,0.3-0.7,0.6-1c0.2-0.3,0.5-0.5,0.9-0.6s0.7-0.2,1.1-0.2c0.4,0,0.8,0.1,1.1,0.2
		c0.3,0.1,0.6,0.4,0.9,0.6c0.2,0.3,0.4,0.6,0.6,1c0.1,0.4,0.2,0.8,0.2,1.3c0,0.5-0.1,0.9-0.2,1.3c-0.1,0.4-0.3,0.7-0.6,1
		c-0.2,0.3-0.5,0.5-0.9,0.6C21.9,24.3,21.5,24.3,21.1,24.3z M21.1,23.2c0.2,0,0.4,0,0.5-0.1s0.3-0.2,0.4-0.4
		c0.1-0.2,0.2-0.4,0.2-0.6c0-0.2,0.1-0.5,0.1-0.8c0-0.3,0-0.6-0.1-0.8c0-0.2-0.1-0.5-0.2-0.6c-0.1-0.2-0.2-0.3-0.4-0.4
		s-0.3-0.1-0.5-0.1c-0.2,0-0.4,0-0.5,0.1s-0.3,0.2-0.4,0.4c-0.1,0.2-0.2,0.4-0.2,0.6s-0.1,0.5-0.1,0.8c0,0.3,0,0.6,0.1,0.8
		c0,0.2,0.1,0.5,0.2,0.6c0.1,0.2,0.2,0.3,0.4,0.4S20.8,23.2,21.1,23.2z"/>
</g>
</svg>
