<?xml version="1.0" encoding="utf-8"?>
<!-- Generator: Adobe Illustrator 23.0.2, SVG Export Plug-In . SVG Version: 6.00 Build 0)  -->
<svg version="1.1" id="Laag_1" xmlns="http://www.w3.org/2000/svg" xmlns:xlink="http://www.w3.org/1999/xlink" x="0px" y="0px"
	 width="187.6px" height="45.1px" viewBox="0 0 187.6 45.1" style="enable-background:new 0 0 187.6 45.1;" xml:space="preserve">
<style type="text/css">
	.st0{fill:none;}
	.st1{fill:#FFFFFF;}
</style>
<g>
	<path class="st0" d="M121.1,12.1c-0.2-0.6-0.8-0.9-1.8-0.9v22.7c0.9-0.1,1.5-0.4,1.7-0.9c0.4-1.1,0.7-3,0.7-5.7l0.1-9.8
		c0-1.3-0.1-2.4-0.1-3.3C121.5,13.2,121.3,12.6,121.1,12.1z"/>
	<path class="st0" d="M13.2,26.7h-1v7.4h0.9c0.8,0,1.3-0.3,1.7-0.8c0.3-0.6,0.5-1.5,0.5-2.7c0-1.4-0.1-2.4-0.4-2.9
		C14.6,27,14,26.7,13.2,26.7z"/>
	<path class="st0" d="M14.6,14.2L14.6,14.2c0.1-1.1-0.1-1.9-0.4-2.5c-0.3-0.5-0.8-0.8-1.5-0.8h-0.5v6.7h0.2
		C13.9,17.6,14.6,16.4,14.6,14.2z"/>
	<path class="st1" d="M25.1,23.6c-0.8-1.1-1.5-2-2.2-2.4c1.3-0.9,2.1-2.1,2.5-3.6c0.4-1.5,0.6-3.1,0.6-5c0-4-1-6.9-2.9-8.6
		c-2-1.8-5.1-2.6-9.3-2.6H2c-0.8,0-1.1,0.4-1.1,1.1v40.3c0,0.3,0.1,0.6,0.4,0.8c0.2,0.2,0.5,0.3,0.8,0.3h12.6c4.3,0,7.5-1,9.5-3
		c2-2,3-5.2,3-9.6c0-3-0.7-5.6-2.1-7.6H25.1z M12.2,10.9h0.5c0.7,0,1.2,0.3,1.5,0.8c0.3,0.5,0.4,1.4,0.4,2.5h-0.1
		c0,2.3-0.7,3.4-2.2,3.4h-0.2V10.9z M14.8,33.2c-0.3,0.6-0.9,0.8-1.7,0.8h-0.9v-7.4h1c0.8,0,1.3,0.3,1.6,0.9
		c0.3,0.6,0.4,1.6,0.4,2.9C15.3,31.8,15.1,32.7,14.8,33.2z"/>
	<path class="st1" d="M51.8,32.9H41.4v-5.6h7.9c0.3,0,0.6-0.1,0.8-0.3c0.2-0.2,0.3-0.5,0.3-0.8v-8c0-0.3-0.1-0.6-0.3-0.8
		c-0.2-0.2-0.5-0.3-0.8-0.3h-7.9v-5.2h9.8c0.3,0,0.6-0.1,0.8-0.3c0.2-0.2,0.3-0.5,0.3-0.8V2.5c0-0.8-0.4-1.1-1.1-1.1H30.8
		c-0.3,0-0.6,0.1-0.8,0.3c-0.2,0.2-0.3,0.5-0.3,0.8v40.3c0,0.3,0.1,0.6,0.3,0.8c0.2,0.2,0.5,0.3,0.8,0.3h21c0.3,0,0.6-0.1,0.8-0.3
		c0.2-0.2,0.3-0.5,0.3-0.8v-8.7c0-0.3-0.1-0.6-0.3-0.8C52.4,33.1,52.1,32.9,51.8,32.9z"/>
	<path class="st1" d="M77.7,32.9H67.3v-5.6h7.9c0.3,0,0.6-0.1,0.8-0.3c0.2-0.2,0.3-0.5,0.3-0.8v-8c0-0.3-0.1-0.6-0.3-0.8
		c-0.2-0.2-0.5-0.3-0.8-0.3h-7.9v-5.2h9.8c0.3,0,0.6-0.1,0.8-0.3c0.2-0.2,0.3-0.5,0.3-0.8V2.5c0-0.8-0.4-1.1-1.1-1.1H56.7
		c-0.3,0-0.6,0.1-0.8,0.3c-0.2,0.2-0.3,0.5-0.3,0.8v40.3c0,0.3,0.1,0.6,0.3,0.8c0.2,0.2,0.5,0.3,0.8,0.3h21c0.3,0,0.6-0.1,0.8-0.3
		c0.2-0.2,0.3-0.5,0.3-0.8v-8.7c0-0.3-0.1-0.6-0.3-0.8C78.3,33.1,78,32.9,77.7,32.9z"/>
	<path class="st1" d="M104.1,32.9H93V2.5c0-0.8-0.4-1.1-1.1-1.1h-9.4c-0.3,0-0.6,0.1-0.8,0.3c-0.2,0.2-0.3,0.5-0.3,0.8v40.3
		c0,0.3,0.1,0.6,0.3,0.8c0.2,0.2,0.5,0.3,0.8,0.3h21.6c0.3,0,0.6-0.1,0.8-0.3c0.2-0.2,0.3-0.5,0.3-0.8v-8.7c0-0.3-0.1-0.6-0.3-0.8
		C104.7,33.1,104.4,32.9,104.1,32.9z"/>
	<path class="st1" d="M130.9,6.5c-1.7-3.4-5.6-5.2-11.6-5.2h-10.6c-0.3,0-0.6,0.1-0.8,0.3c-0.2,0.2-0.3,0.5-0.3,0.8v40.3
		c0,0.3,0.1,0.6,0.4,0.8c0.2,0.2,0.5,0.3,0.8,0.3h10.6c5.8,0,9.6-1.7,11.4-5.2v0.1c0.9-1.7,1.5-3.8,2-6.5c0.5-2.6,0.7-5.9,0.7-9.6
		c0-3.8-0.2-7.1-0.7-9.8C132.4,10.1,131.7,8,130.9,6.5z M121.7,27.3c0,2.7-0.2,4.6-0.7,5.7c-0.2,0.5-0.8,0.8-1.7,0.9V11.2
		c1,0.1,1.6,0.4,1.8,0.9c0.2,0.4,0.4,1.1,0.5,2c0.1,0.9,0.1,2,0.1,3.3L121.7,27.3z"/>
	<path class="st1" d="M158.4,32.9H148v-5.6h7.9c0.3,0,0.6-0.1,0.8-0.3c0.2-0.2,0.3-0.5,0.3-0.8v-8c0-0.3-0.1-0.6-0.3-0.8
		c-0.2-0.2-0.5-0.3-0.8-0.3H148v-5.2h9.8c0.3,0,0.6-0.1,0.8-0.3c0.2-0.2,0.3-0.5,0.3-0.8V2.5c0-0.8-0.4-1.1-1.1-1.1h-20.4
		c-0.3,0-0.6,0.1-0.8,0.3c-0.2,0.2-0.3,0.5-0.3,0.8v40.3c0,0.3,0.1,0.6,0.3,0.8c0.2,0.2,0.5,0.3,0.8,0.3h21c0.3,0,0.6-0.1,0.8-0.3
		c0.2-0.2,0.3-0.5,0.3-0.8v-8.7c0-0.3-0.1-0.6-0.3-0.8C159,33.1,158.7,32.9,158.4,32.9z"/>
	<path class="st1" d="M187.6,1.7c-0.2-0.2-0.5-0.3-0.8-0.3h-8.1c-0.8,0-1.1,0.4-1.1,1.1v13.1l-4-13.5c-0.1-0.2-0.2-0.4-0.4-0.5
		c-0.2-0.1-0.4-0.2-0.6-0.2h-9c-0.3,0-0.6,0.1-0.8,0.3c-0.2,0.2-0.3,0.5-0.3,0.8v40.3c0,0.3,0.1,0.6,0.3,0.8
		c0.2,0.2,0.5,0.3,0.8,0.3h8.1c0.3,0,0.6-0.1,0.8-0.3c0.2-0.2,0.3-0.5,0.3-0.8V27.4l4.3,15.7c0.1,0.2,0.2,0.4,0.4,0.5
		c0.2,0.2,0.4,0.2,0.6,0.2h8.7c0.3,0,0.6-0.1,0.8-0.3c0.2-0.2,0.3-0.5,0.3-0.8V2.5C187.9,2.2,187.8,1.9,187.6,1.7z"/>
</g>
</svg>
