<?xml version="1.0" encoding="utf-8"?>
<!-- Generator: Adobe Illustrator 22.1.0, SVG Export Plug-In . SVG Version: 6.00 Build 0)  -->
<svg version="1.1" id="Laag_1" xmlns="http://www.w3.org/2000/svg" xmlns:xlink="http://www.w3.org/1999/xlink" x="0px" y="0px"
	 viewBox="0 0 121 77" width="121px" height="77px" style="enable-background:new 0 0 121 77;" xml:space="preserve">
<style type="text/css">
	.st0{fill:#EAEDE1;}
</style>
<g>
	<path class="st0" d="M2,8.5h4.5v1H0.9V0.9h5.4v1H2v2.7h3.8v1H2V8.5z"/>
	<path class="st0" d="M13.9,9.5h-1.3l-2-3.5l0,0H9v3.5H7.9V0.9h2.9c0.9,0,1.5,0.2,2,0.7s0.8,1.1,0.8,1.8c0,0.6-0.2,1.1-0.5,1.5
		c-0.3,0.4-0.8,0.7-1.3,0.9L13.9,9.5z M9,1.9v3h1.7c0.6,0,1-0.1,1.3-0.4s0.5-0.6,0.5-1.1S12.3,2.6,12,2.3s-0.8-0.4-1.3-0.4H9z"/>
	<path class="st0" d="M16.5,0.9v8.6h-1.2V0.9H16.5z"/>
	<path class="st0" d="M23.5,9.5l-3.2-3.9h-0.6v3.9h-1.1V0.9h1.1v3.6h0.6l2.9-3.6h1.3L21.3,5v0.1l3.6,4.4H23.5z"/>
	<path class="st0" d="M38,0.9h1.1l-1.7,8.6h-1.7L34,3h-0.1l-1.7,6.5h-1.6l-1.8-8.6h1.1l1.5,7.2h0.1l1.8-6.6h1.5l1.8,6.6h0.1L38,0.9z
		"/>
	<path class="st0" d="M45.8,0.9H47v8.6h-1.1V5.7h-4.2v3.8h-1.1V0.9h1.1v3.7h4.2V0.9H45.8z"/>
	<path class="st0" d="M50.3,0.9v8.6h-1.2V0.9H50.3z"/>
	<path class="st0" d="M53.4,8.5h4.5v1h-5.6V0.9h5.4v1h-4.3v2.7h3.8v1h-3.8C53.4,5.6,53.4,8.5,53.4,8.5z"/>
	<path class="st0" d="M65.1,0.9h1.1v8.6H65l-4.5-6.7h-0.1v6.7h-1.1V0.9h1.3L65,7.5h0.1V0.9z"/>
	<path class="st0" d="M78.3,9.5h-1.2L76,8.3c-0.4,0.4-0.8,0.8-1.2,1c-0.4,0.2-0.9,0.3-1.4,0.3c-0.7,0-1.2-0.2-1.7-0.6
		C71.3,8.6,71,8.1,71,7.5c0-0.5,0.1-1,0.4-1.4C71.9,5.9,72.3,5.5,73,5c-0.3-0.3-0.5-0.5-0.6-0.6C72.2,4.2,72.1,4,72,3.7
		s-0.2-0.6-0.2-0.9c0-0.6,0.2-1,0.6-1.4s0.9-0.6,1.6-0.6s1.2,0.2,1.6,0.5c0.4,0.4,0.6,0.8,0.6,1.4c0,0.3,0,0.5-0.1,0.7
		C76,3.6,75.9,3.8,75.7,4c-0.2,0.2-0.4,0.4-0.5,0.5c-0.2,0.1-0.4,0.3-0.8,0.6L76,6.8l0.9-1.4H78l-1.2,1.9c0,0,0,0.1-0.1,0.1
		s-0.1,0.1-0.1,0.1L78.3,9.5z M73.5,8.7c0.6,0,1.3-0.4,1.9-1.1l-1.8-1.9c-0.5,0.4-0.9,0.7-1.1,1c-0.2,0.2-0.3,0.5-0.3,0.9
		c0,0.3,0.1,0.6,0.4,0.8C72.8,8.5,73.1,8.7,73.5,8.7z M74,1.7c-0.4,0-0.6,0.1-0.9,0.3c-0.2,0.2-0.3,0.5-0.3,0.8s0.1,0.5,0.2,0.7
		s0.4,0.5,0.7,0.9c0.4-0.2,0.6-0.4,0.8-0.6s0.3-0.3,0.5-0.5c0.1-0.2,0.2-0.4,0.2-0.6c0-0.3-0.1-0.5-0.4-0.7S74.3,1.7,74,1.7z"/>
</g>
<g>
	<path class="st0" d="M5,19.7c1.1,0.4,1.7,1.1,1.7,2.2c0,0.8-0.3,1.4-0.8,1.8s-1.2,0.6-2,0.6h-3v-8.6h2.7c0.8,0,1.5,0.2,1.9,0.6
		c0.5,0.4,0.7,0.9,0.7,1.6C6.3,18.7,5.9,19.3,5,19.7L5,19.7z M2,16.6v2.7h1.6c0.5,0,0.9-0.1,1.2-0.4s0.4-0.6,0.4-1s-0.1-0.8-0.4-1
		s-0.7-0.3-1.1-0.3C3.7,16.6,2,16.6,2,16.6z M3.8,23.3c0.5,0,1-0.1,1.3-0.4c0.3-0.3,0.5-0.6,0.5-1.1S5.4,21,5.1,20.7
		s-0.8-0.4-1.3-0.4H2v3C2,23.3,3.8,23.3,3.8,23.3z"/>
	<path class="st0" d="M12.2,24.4c-1.2,0-2.2-0.4-3.1-1.3S8,21.2,8,20s0.4-2.3,1.2-3.2s1.8-1.3,3-1.3s2.2,0.4,3,1.3
		c0.8,0.8,1.2,1.9,1.2,3.2s-0.4,2.3-1.2,3.2S13.4,24.4,12.2,24.4z M12.2,23.3c0.9,0,1.6-0.3,2.2-1c0.6-0.6,0.9-1.4,0.9-2.4
		c0-0.9-0.3-1.7-0.9-2.4c-0.6-0.6-1.3-1-2.2-1s-1.6,0.3-2.2,1C9.4,18.2,9.2,19,9.2,20c0,0.9,0.3,1.7,0.9,2.4
		C10.6,23,11.3,23.3,12.2,23.3z"/>
	<path class="st0" d="M22.1,24.4c-1.2,0-2.2-0.4-3.1-1.3s-1.2-1.9-1.2-3.2s0.4-2.3,1.2-3.2s1.8-1.3,3-1.3s2.2,0.4,3,1.3
		c0.8,0.8,1.2,1.9,1.2,3.2s-0.4,2.3-1.2,3.2S23.3,24.4,22.1,24.4z M22.1,23.3c0.9,0,1.6-0.3,2.2-1c0.6-0.6,0.9-1.4,0.9-2.4
		c0-0.9-0.3-1.7-0.9-2.4c-0.6-0.6-1.3-1-2.2-1c-0.9,0-1.6,0.3-2.2,1c-0.6,0.6-0.9,1.4-0.9,2.4c0,0.9,0.3,1.7,0.9,2.4
		C20.5,23,21.2,23.3,22.1,23.3z"/>
	<path class="st0" d="M31.5,19.8h3.8v4.5h-0.8l-0.2-0.9h-0.1c-0.7,0.7-1.6,1.1-2.6,1.1c-1.2,0-2.1-0.4-2.8-1.2c-0.7-0.8-1-1.8-1-3
		c0-1.3,0.4-2.5,1.1-3.3c0.7-0.9,1.7-1.3,2.8-1.3c1,0,1.8,0.3,2.4,0.8s1,1.2,1.1,2H34c-0.1-0.5-0.4-0.9-0.8-1.2
		c-0.4-0.3-0.9-0.5-1.5-0.5c-0.9,0-1.5,0.3-2.1,1c-0.5,0.7-0.8,1.5-0.8,2.5s0.2,1.7,0.7,2.3c0.5,0.6,1.2,0.9,2.1,0.9
		c0.5,0,1-0.1,1.4-0.3c0.4-0.2,0.7-0.5,1-0.7V21h-2.6L31.5,19.8L31.5,19.8z"/>
	<path class="st0" d="M42.7,24.3L42,22h-3.5l-0.7,2.2h-1.2l3-8.6H41l2.9,8.6L42.7,24.3L42.7,24.3z M38.8,21h2.8l-1.4-4.1h-0.1
		L38.8,21z"/>
	<path class="st0" d="M46.3,23.2h4.5v1h-5.6v-8.6h5.4v1h-4.3v2.7h3.8v1h-3.8C46.3,20.3,46.3,23.2,46.3,23.2z"/>
	<path class="st0" d="M58.2,24.3H57l-2.1-3.5l0,0h-1.7v3.5h-1.1v-8.6H55c0.9,0,1.5,0.2,2,0.7c0.5,0.5,0.8,1.1,0.8,1.8
		c0,0.6-0.2,1.1-0.5,1.5s-0.8,0.7-1.3,0.9L58.2,24.3z M53.3,16.7v3H55c0.6,0,1-0.1,1.3-0.4s0.5-0.6,0.5-1.1s-0.2-0.8-0.5-1.1
		c-0.3-0.3-0.8-0.4-1.3-0.4H53.3z"/>
	<path class="st0" d="M62.1,15.6c1.4,0,2.4,0.4,3.2,1.2s1.1,1.8,1.1,3.1c0,1.3-0.4,2.4-1.1,3.2c-0.7,0.8-1.8,1.2-3.2,1.2h-2.5v-8.6
		h2.5C62.1,15.7,62.1,15.6,62.1,15.6z M62.1,23.2c1,0,1.8-0.3,2.4-0.9c0.6-0.6,0.8-1.4,0.8-2.4s-0.3-1.7-0.8-2.3
		c-0.5-0.6-1.3-0.9-2.3-0.9h-1.4v6.5C60.8,23.2,62.1,23.2,62.1,23.2z"/>
	<path class="st0" d="M73.1,15.6v1h-2.5v7.6h-1.1v-7.6H67v-1H73.1z"/>
	<path class="st0" d="M78.4,15L74,24.9h-1.2l4.4-9.8L78.4,15L78.4,15z"/>
</g>
<g>
	<path class="st0" d="M6.5,30.4h1.2L4.8,39H3.2l-2.9-8.6h1.2L4,37.8h0.1L6.5,30.4z"/>
	<path class="st0" d="M13.5,39l-0.7-2.2H9.3L8.5,39H7.3l3-8.6h1.5l2.9,8.6H13.5z M9.6,35.8h2.8L11,31.7h-0.1L9.6,35.8z"/>
	<path class="st0" d="M21.8,30.4h1.1V39h-1.2l-4.5-6.7h-0.1V39H16v-8.6h1.3l4.4,6.7h0.1V30.4z"/>
	<path class="st0" d="M27.5,30.4c1.4,0,2.4,0.4,3.2,1.2s1.1,1.8,1.1,3.1s-0.4,2.4-1.1,3.2C30,38.6,28.9,39,27.5,39H25v-8.6H27.5z
		 M27.5,38c1,0,1.8-0.3,2.4-0.9s0.8-1.4,0.8-2.4s-0.3-1.7-0.8-2.3c-0.5-0.6-1.3-0.9-2.3-0.9h-1.4V38H27.5z"/>
	<path class="st0" d="M34.7,38h4.5v1h-5.6v-8.6H39v1h-4.3v2.7h3.8v1h-3.8V38z"/>
	<path class="st0" d="M46.6,39h-1.3l-2.1-3.5l0,0h-1.7V39h-1.1v-8.6h2.9c0.9,0,1.5,0.2,2,0.7s0.8,1.1,0.8,1.8c0,0.6-0.2,1.1-0.5,1.5
		s-0.8,0.7-1.3,0.9L46.6,39z M41.6,31.5v3h1.7c0.6,0,1-0.1,1.3-0.4c0.3-0.3,0.5-0.6,0.5-1.1s-0.2-0.8-0.5-1.1
		c-0.3-0.3-0.8-0.4-1.3-0.4H41.6z"/>
	<path class="st0" d="M53.7,36.9c0,0.7-0.3,1.3-0.8,1.7s-1.2,0.6-2.1,0.6c-1,0-1.7-0.3-2.3-0.8c-0.5-0.5-0.8-1.2-0.8-2h1.2
		c0,0.5,0.2,0.9,0.5,1.3c0.3,0.3,0.8,0.5,1.5,0.5c0.5,0,0.9-0.1,1.2-0.3s0.5-0.5,0.5-1c0-0.4-0.1-0.7-0.4-1s-0.8-0.5-1.6-0.8
		s-1.4-0.6-1.9-0.9c-0.4-0.4-0.7-0.9-0.7-1.5c0-0.7,0.3-1.3,0.8-1.7c0.5-0.4,1.2-0.6,1.9-0.6c0.9,0,1.6,0.2,2.1,0.7s0.8,1.1,0.8,1.8
		h-1.1c0-0.4-0.2-0.8-0.5-1.1c-0.3-0.3-0.7-0.4-1.3-0.4c-0.5,0-0.8,0.1-1.1,0.4c-0.3,0.3-0.4,0.5-0.4,0.9c0,0.4,0.1,0.7,0.4,0.9
		c0.3,0.2,0.8,0.5,1.5,0.7c0.9,0.3,1.6,0.7,2,1.1C53.4,35.7,53.7,36.2,53.7,36.9z"/>
	<path class="st0" d="M62.7,36.4c-0.2,0.8-0.6,1.5-1.3,2s-1.4,0.8-2.3,0.8c-1.2,0-2.2-0.4-3-1.2c-0.8-0.9-1.1-2-1.1-3.3
		s0.4-2.3,1.1-3.2c0.7-0.8,1.7-1.3,2.9-1.3c0.9,0,1.7,0.2,2.4,0.7s1.1,1.2,1.2,2.1h-1.2c-0.1-0.5-0.4-1-0.8-1.3s-0.9-0.5-1.5-0.5
		c-0.8,0-1.5,0.3-2,1s-0.8,1.4-0.8,2.4s0.3,1.8,0.8,2.4c0.5,0.6,1.2,0.9,2.1,0.9c0.6,0,1.1-0.2,1.5-0.5s0.7-0.7,0.9-1.2h1.1
		C62.7,36.2,62.7,36.4,62.7,36.4z"/>
	<path class="st0" d="M69.6,30.4h1.1V39h-1.1v-3.8h-4.2V39h-1.1v-8.6h1.1v3.7h4.2V30.4z"/>
	<path class="st0" d="M76.7,39.1c-1.2,0-2.2-0.4-3.1-1.3s-1.2-1.9-1.2-3.2s0.4-2.3,1.2-3.2s1.8-1.3,3-1.3s2.2,0.4,3,1.3
		c0.8,0.8,1.2,1.9,1.2,3.2s-0.4,2.3-1.2,3.2S77.9,39.1,76.7,39.1z M76.7,38c0.9,0,1.6-0.3,2.2-1c0.6-0.6,0.9-1.4,0.9-2.4
		c0-0.9-0.3-1.7-0.9-2.4c-0.6-0.6-1.3-1-2.2-1c-0.9,0-1.6,0.3-2.2,1c-0.6,0.6-0.9,1.4-0.9,2.4c0,0.9,0.3,1.7,0.9,2.4
		S75.8,38,76.7,38z"/>
	<path class="st0" d="M86.6,39.1c-1.2,0-2.2-0.4-3.1-1.3s-1.2-1.9-1.2-3.2s0.4-2.3,1.2-3.2s1.8-1.3,3-1.3s2.2,0.4,3,1.3
		c0.8,0.8,1.2,1.9,1.2,3.2s-0.4,2.3-1.2,3.2S87.8,39.1,86.6,39.1z M86.6,38c0.9,0,1.6-0.3,2.2-1c0.6-0.6,0.9-1.4,0.9-2.4
		c0-0.9-0.3-1.7-0.9-2.4c-0.6-0.6-1.3-1-2.2-1c-0.9,0-1.6,0.3-2.2,1c-0.6,0.6-0.9,1.4-0.9,2.4c0,0.9,0.3,1.7,0.9,2.4
		S85.7,38,86.6,38z"/>
	<path class="st0" d="M97.6,30.4v1h-2.5V39H94v-7.6h-2.5v-1H97.6z"/>
</g>
<g>
	<path class="st0" d="M6.4,48.9v1H3.9v7.6H2.8V50H0.3v-1L6.4,48.9L6.4,48.9z"/>
	<path class="st0" d="M13.1,48.9h1.1v8.6h-1.1v-3.8H8.9v3.8H7.7v-8.6h1.1v3.7H13v-3.7H13.1z"/>
	<path class="st0" d="M17.1,56.5h4.5v1H16v-8.6h5.4v1h-4.3v2.7H21v1h-3.8v2.9H17.1z"/>
	<path class="st0" d="M28.5,57.5l-0.7-2.2h-3.5l-0.7,2.2h-1.2l3-8.6h1.5l2.9,8.6H28.5z M24.6,54.3h2.8L26,50.2h-0.1L24.6,54.3z"/>
	<path class="st0" d="M36.5,48.9v1H34v7.6h-1.1V50h-2.5v-1L36.5,48.9L36.5,48.9z"/>
	<path class="st0" d="M38.9,56.5h4.5v1h-5.6v-8.6h5.4v1h-4.3v2.7h3.8v1h-3.8C38.9,53.6,38.9,56.5,38.9,56.5z"/>
	<path class="st0" d="M50.8,57.5h-1.3l-2-3.5l0,0h-1.7v3.5h-1.1v-8.6h2.9c0.9,0,1.5,0.2,2,0.7s0.8,1.1,0.8,1.8
		c0,0.6-0.2,1.1-0.5,1.5s-0.8,0.7-1.3,0.9L50.8,57.5z M45.8,50v3h1.7c0.6,0,1-0.1,1.3-0.4c0.3-0.3,0.5-0.6,0.5-1.1s-0.2-0.8-0.5-1.1
		C48.5,50.1,48,50,47.5,50H45.8z"/>
	<path class="st0" d="M57.7,48.9v1h-2.5v7.6h-1.1V50h-2.5v-1L57.7,48.9L57.7,48.9z"/>
	<path class="st0" d="M63.1,57.7c-1.2,0-2.2-0.4-3.1-1.3c-0.8-0.8-1.2-1.9-1.2-3.2s0.4-2.3,1.2-3.2c0.8-0.8,1.8-1.3,3-1.3
		c1.2,0,2.2,0.4,3,1.3c0.8,0.8,1.2,1.9,1.2,3.2s-0.4,2.3-1.2,3.2S64.3,57.7,63.1,57.7z M63.1,56.5c0.9,0,1.6-0.3,2.2-1
		s0.9-1.4,0.9-2.4c0-0.9-0.3-1.7-0.9-2.4c-0.6-0.6-1.3-1-2.2-1s-1.6,0.3-2.2,1c-0.6,0.6-0.9,1.4-0.9,2.4c0,0.9,0.3,1.7,0.9,2.4
		S62.2,56.5,63.1,56.5z"/>
	<path class="st0" d="M75.7,48.9v5.2c0,1.1-0.3,2-0.9,2.6s-1.4,0.9-2.4,0.9s-1.8-0.3-2.4-0.9c-0.6-0.6-1-1.5-1-2.6v-5.2h1.2v5.2
		c0,0.8,0.2,1.4,0.6,1.8c0.4,0.4,0.9,0.6,1.6,0.6c0.6,0,1.2-0.2,1.6-0.6c0.4-0.4,0.6-1,0.6-1.8v-5.2H75.7z"/>
	<path class="st0" d="M83.6,57.5h-1.3l-2-3.5l0,0h-1.7v3.5h-1.1v-8.6h2.9c0.9,0,1.5,0.2,2,0.7s0.8,1.1,0.8,1.8
		c0,0.6-0.2,1.1-0.5,1.5s-0.8,0.7-1.3,0.9L83.6,57.5z M78.6,50v3h1.7c0.6,0,1-0.1,1.3-0.4c0.3-0.3,0.5-0.6,0.5-1.1s-0.2-0.8-0.5-1.1
		S80.8,50,80.3,50H78.6z"/>
	<path class="st0" d="M90.7,48.9h1.1v8.6h-1.2l-4.5-6.7H86v6.7h-1.1v-8.6h1.3l4.4,6.7h0.1C90.7,55.6,90.7,48.9,90.7,48.9z"/>
	<path class="st0" d="M94.8,56.5h4.5v1h-5.6v-8.6h5.4v1h-4.3v2.7h3.8v1h-3.8V56.5z"/>
	<path class="st0" d="M101.7,56.5h4.5v1h-5.6v-8.6h5.4v1h-4.3v2.7h3.8v1h-3.8V56.5z"/>
	<path class="st0" d="M1.9,72.3v-5.7H0.3v-0.9H1c0.6,0,0.9-0.3,0.9-0.9v-0.4h1v7.9H1.9z"/>
	<path class="st0" d="M8.6,68.1c0.4,0.1,0.7,0.4,1,0.7C9.8,69.1,10,69.6,10,70c0,0.7-0.2,1.3-0.7,1.7c-0.5,0.4-1.1,0.6-1.9,0.6
		s-1.5-0.2-1.9-0.7c-0.5-0.4-0.7-1-0.8-1.8h1.1c0,0.4,0.2,0.7,0.5,1s0.6,0.4,1.1,0.4s0.8-0.1,1.1-0.4s0.4-0.6,0.4-1s-0.1-0.7-0.4-1
		c-0.3-0.3-0.7-0.4-1.2-0.4H6.8v-0.9h0.4c0.4,0,0.7-0.1,1-0.3c0.2-0.2,0.4-0.5,0.4-0.9c0-0.3-0.1-0.6-0.3-0.8
		c-0.2-0.2-0.5-0.3-0.9-0.3s-0.7,0.1-0.9,0.3c-0.4,0.3-0.5,0.6-0.5,1H4.9c0-0.6,0.2-1.2,0.7-1.6s1.1-0.6,1.7-0.6
		c0.7,0,1.2,0.2,1.6,0.6c0.4,0.4,0.6,0.9,0.6,1.4C9.6,67.1,9.3,67.7,8.6,68.1L8.6,68.1z"/>
	<path class="st0" d="M20.7,70.1c0,0.7-0.3,1.3-0.8,1.7c-0.5,0.4-1.2,0.6-2.1,0.6c-1,0-1.7-0.3-2.3-0.8c-0.5-0.5-0.8-1.2-0.8-2h1.2
		c0,0.5,0.2,0.9,0.5,1.3c0.3,0.3,0.8,0.5,1.5,0.5c0.5,0,0.9-0.1,1.2-0.3c0.3-0.2,0.5-0.5,0.5-1c0-0.4-0.1-0.7-0.4-1
		s-0.8-0.5-1.6-0.8c-0.8-0.3-1.4-0.6-1.9-0.9C15.3,67,15,66.5,15,65.9c0-0.7,0.3-1.3,0.8-1.7c0.5-0.4,1.2-0.6,1.9-0.6
		c0.9,0,1.6,0.2,2.1,0.7c0.5,0.5,0.8,1.1,0.8,1.8h-1.1c0-0.4-0.2-0.8-0.5-1.1c-0.3-0.3-0.7-0.4-1.3-0.4c-0.5,0-0.8,0.1-1.1,0.4
		s-0.4,0.5-0.4,0.9s0.1,0.7,0.4,0.9c0.3,0.2,0.8,0.5,1.5,0.7c0.9,0.3,1.6,0.7,2,1.1C20.5,68.9,20.7,69.5,20.7,70.1z"/>
	<path class="st0" d="M23.4,71.3h4.5v1h-5.6v-8.6h5.4v1h-4.3v2.7h3.8v1h-3.8C23.4,68.4,23.4,71.3,23.4,71.3z"/>
	<path class="st0" d="M32.3,63.7c0.8,0,1.5,0.2,2,0.7s0.8,1.1,0.8,1.9s-0.3,1.5-0.8,1.9c-0.5,0.5-1.2,0.7-2.1,0.7h-1.9v3.4h-1.1
		v-8.6C29.2,63.7,32.3,63.7,32.3,63.7z M32.1,67.9c0.6,0,1-0.1,1.3-0.4s0.5-0.7,0.5-1.2s-0.2-0.9-0.5-1.2c-0.3-0.3-0.7-0.4-1.3-0.4
		h-1.9v3.2H32.1z"/>
	<path class="st0" d="M39.5,68H44v0.9h-4.4L39.5,68L39.5,68z"/>
	<path class="st0" d="M51.6,69.1c-1.2,0.7-1.8,1.5-1.8,2.2h3.8v1h-5.1v-0.5c0-1.3,0.7-2.4,2.1-3.3c0.8-0.5,1.3-0.9,1.5-1.1
		c0.3-0.3,0.4-0.6,0.4-0.9c0-0.4-0.1-0.7-0.4-0.9c-0.2-0.2-0.6-0.4-1-0.4c-0.5,0-0.9,0.2-1.1,0.5c-0.3,0.3-0.4,0.7-0.4,1.2h-1.1
		c0-0.4,0.1-0.8,0.3-1.2c0.2-0.4,0.5-0.7,0.9-1s0.9-0.4,1.5-0.4c0.7,0,1.3,0.2,1.8,0.6s0.7,0.9,0.7,1.6c0,0.5-0.2,1-0.5,1.4
		C52.8,68.3,52.3,68.7,51.6,69.1z"/>
	<path class="st0" d="M60,71.4c-0.5,0.7-1.2,1-2.1,1s-1.6-0.3-2.1-1s-0.8-1.7-0.8-3s0.3-2.3,0.8-3s1.2-1,2.1-1s1.6,0.3,2.1,1
		s0.8,1.7,0.8,3C60.8,69.7,60.6,70.7,60,71.4z M56.7,70.6c0.3,0.5,0.7,0.8,1.2,0.8s0.9-0.3,1.2-0.8s0.5-1.3,0.5-2.3
		s-0.2-1.7-0.5-2.3c-0.3-0.5-0.7-0.8-1.2-0.8S57,65.5,56.7,66s-0.5,1.3-0.5,2.3C56.2,69.4,56.4,70.1,56.7,70.6z"/>
	<path class="st0" d="M69.9,72.4c-1.2,0-2.2-0.4-3.1-1.3c-0.8-0.8-1.2-1.9-1.2-3.2s0.4-2.3,1.2-3.2c0.8-0.8,1.8-1.3,3-1.3
		s2.2,0.4,3,1.3c0.8,0.8,1.2,1.9,1.2,3.2s-0.4,2.3-1.2,3.2S71.1,72.4,69.9,72.4z M69.9,71.3c0.9,0,1.6-0.3,2.2-1
		c0.6-0.6,0.9-1.4,0.9-2.4c0-0.9-0.3-1.7-0.9-2.4c-0.6-0.6-1.3-1-2.2-1c-0.9,0-1.6,0.3-2.2,1c-0.6,0.6-0.9,1.4-0.9,2.4
		c0,0.9,0.3,1.7,0.9,2.4C68.2,71,69,71.3,69.9,71.3z"/>
	<path class="st0" d="M80.7,72.3l-3.2-3.9h-0.6v3.9h-1.1v-8.6h1.1v3.6h0.6l2.9-3.6h1.3l-3.2,4.1v0.1l3.6,4.4H80.7z"/>
	<path class="st0" d="M88.8,63.7v1h-2.5v7.6h-1.1v-7.6h-2.5v-1C82.7,63.7,88.8,63.7,88.8,63.7z"/>
</g>
</svg>
