<?xml version="1.0" encoding="utf-8"?>
<!-- Generator: Adobe Illustrator 23.0.2, SVG Export Plug-In . SVG Version: 6.00 Build 0)  -->
<svg version="1.1" id="Laag_1" xmlns="http://www.w3.org/2000/svg" xmlns:xlink="http://www.w3.org/1999/xlink" x="0px" y="0px"
	 width="175px" height="20.1px" viewBox="0 0 175 20.1" style="enable-background:new 0 0 175 20.1;" xml:space="preserve">
<style type="text/css">
	.st0{fill:#FFFFFF;}
</style>
<g>
	<path class="st0" d="M10.6,2.1c5,0,8.7,3.7,8.7,8.6s-3.7,8.6-8.7,8.6c-4.9,0-8.6-3.7-8.6-8.6C2,5.8,5.7,2.1,10.6,2.1z M10.6,15.4
		c2.7,0,4.6-2,4.6-4.7C15.2,8,13.3,6,10.6,6C8,6,6,8,6,10.7S8,15.4,10.6,15.4z"/>
	<path class="st0" d="M26.6,8.9V19h-4.2V2.3H26l8.5,10.1V2.3h4.2V19h-3.6L26.6,8.9z"/>
	<path class="st0" d="M50.7,6v13h-4.2V6h-5.2V2.3h14.3V6H50.7z"/>
	<path class="st0" d="M58.5,2.3H66c5,0,8.7,2.9,8.7,8.4c0,5.4-3.7,8.3-8.7,8.3h-7.6L58.5,2.3L58.5,2.3z M62.6,5.9v9.5h3.2
		c2.7,0,4.6-1.7,4.6-4.7c0-3.1-1.9-4.8-4.6-4.8C65.8,5.9,62.6,5.9,62.6,5.9z"/>
	<path class="st0" d="M77.9,19V2.3h13.5v3.6h-9.5v2.9h7.7v3.5h-7.7v3.2h9.5V19H77.9z"/>
	<path class="st0" d="M94.8,2.3H99V9h1.8l4.9-6.6h4.2V3l-5.8,7.8l6.2,7.8V19h-4.7l-4.9-6.5H99V19h-4.2V2.3z"/>
</g>
</svg>
