<?xml version="1.0" encoding="utf-8"?>
<!-- Generator: Adobe Illustrator 24.3.0, SVG Export Plug-In . SVG Version: 6.00 Build 0)  -->
<svg version="1.1" id="Laag_1" xmlns="http://www.w3.org/2000/svg" xmlns:xlink="http://www.w3.org/1999/xlink" x="0px" y="0px"
	 width="79.4px" height="12.4px" viewBox="0 0 79.4 12.4" style="enable-background:new 0 0 79.4 12.4;" xml:space="preserve">
<style type="text/css">
	.st0{fill:#FFFFFF;}
</style>
<g>
	<path class="st0" d="M9.9,10.2H7.8L5.3,1.7H7l1.9,6.7l1.8-6.7h1.6L9.9,10.2z"/>
	<path class="st0" d="M13.2,3.2V1.8h1.4v1.5H13.2z M13.2,10.2v-6h1.4v6H13.2z"/>
	<path class="st0" d="M21.1,9.1c-0.3,0.6-1,1.2-2.5,1.2c-1.1,0-1.9-0.4-2.3-0.6c-0.2-0.1-0.4-0.3-0.6-0.5l1.1-0.9
		c0,0.1,0.1,0.2,0.3,0.3c0.5,0.4,1.3,0.5,1.5,0.5c0.4,0,0.8-0.1,1-0.4c0.1-0.1,0.2-0.2,0.2-0.3c0,0,0-0.1-0.1-0.3
		C19.5,8,19.3,8,18.8,7.9c-0.4-0.1-0.8-0.1-1.2-0.2C17.4,7.6,16,7.2,16,5.9c0-0.5,0.2-0.8,0.3-0.9c0.3-0.5,1-1,2.3-1
		C19,4,20.2,4,21.1,5.1l-1,0.9c-0.1-0.3-0.3-0.4-0.4-0.5c-0.4-0.3-0.8-0.4-1.3-0.4c-0.1,0-0.5,0-0.7,0.2c-0.2,0.1-0.3,0.3-0.3,0.4
		c0,0.2,0.2,0.3,0.2,0.4c0.2,0.1,0.6,0.2,1,0.3c0.3,0.1,0.6,0.1,1,0.2C20,6.7,20.4,6.8,20.6,7c0.2,0.2,0.7,0.6,0.7,1.3
		C21.3,8.6,21.2,8.8,21.1,9.1z"/>
	<path class="st0" d="M22.5,3.2V1.8h1.4v1.5H22.5z M22.5,10.2v-6h1.4v6H22.5z"/>
	<path class="st0" d="M27.3,10.2c-0.8,0-1.2-0.2-1.4-0.5c-0.1-0.1-0.2-0.3-0.2-0.3c-0.1-0.2-0.1-0.6-0.1-1.1V5.2h-0.9v-1h0.9V2h1.4
		v2.1h1.3v1h-1.3v2.7c0,0.2,0,0.7,0.1,0.9C27.4,9,27.7,9,27.8,9c0.2,0,0.4,0,0.6-0.1v1.2C28.2,10.1,27.8,10.2,27.3,10.2z"/>
	<path class="st0" d="M38.9,10.2h-1.4l-1.1-3.8l-1.1,3.8h-1.4l-1.7-6h1.5l1,4.1l1.1-4.1h1.3l1.1,4.1l1.1-4.1h1.5L38.9,10.2z"/>
	<path class="st0" d="M46.8,9.4c-0.3,0.3-1.1,0.9-2.4,0.9c-0.4,0-1.3,0-2.1-0.8c-0.7-0.6-0.9-1.5-0.9-2.4c0-0.5,0.1-1,0.3-1.4
		c0.3-0.6,1-1.7,2.7-1.7c1.3,0,2.1,0.7,2.4,1.2c0.3,0.4,0.6,1.2,0.6,2.3h-4.4c0,0.2,0.1,0.6,0.4,0.9c0.2,0.3,0.6,0.6,1.3,0.6
		s1.2-0.3,1.4-0.6c0,0,0.1-0.1,0.2-0.3l1.2,0.7C47.2,8.9,47.1,9.2,46.8,9.4z M45.6,5.9c-0.1-0.3-0.4-0.8-1.2-0.8
		c-0.3,0-0.5,0.1-0.6,0.1c-0.7,0.3-0.8,0.9-0.9,1.2h2.8C45.7,6.4,45.7,6.1,45.6,5.9z"/>
	<path class="st0" d="M52.8,10c-0.5,0.3-1,0.3-1.2,0.3c-0.3,0-0.8-0.1-1.4-0.5c-0.1-0.1-0.2-0.2-0.3-0.3v0.6h-1.4V1.7h1.4l0,3
		c0.1-0.1,0.1-0.1,0.2-0.2C50.7,4,51.3,4,51.6,4c0.4,0,1.1,0.1,1.7,0.8c0.4,0.4,0.9,1.1,0.9,2.4C54.2,8.2,53.8,9.4,52.8,10z
		 M52.4,5.9c-0.3-0.4-0.7-0.6-1.2-0.6c-0.4,0-0.7,0.1-0.9,0.4c-0.5,0.5-0.5,1.2-0.5,1.4c0,0.6,0.1,1.2,0.6,1.6
		C50.6,8.8,50.9,9,51.3,9c0.2,0,0.8-0.1,1.1-0.6c0.3-0.5,0.3-1.1,0.3-1.3C52.8,6.9,52.8,6.4,52.4,5.9z"/>
	<path class="st0" d="M60.3,9.1c-0.3,0.6-1,1.2-2.5,1.2c-1.1,0-1.9-0.4-2.3-0.6c-0.2-0.1-0.4-0.3-0.6-0.5L56,8.4
		c0,0.1,0.1,0.2,0.3,0.3c0.5,0.4,1.3,0.5,1.5,0.5c0.4,0,0.8-0.1,1-0.4c0.1-0.1,0.2-0.2,0.2-0.3c0,0,0-0.1-0.1-0.3
		C58.7,8,58.5,8,58,7.9c-0.4-0.1-0.8-0.1-1.2-0.2c-0.3-0.1-1.7-0.4-1.7-1.7c0-0.5,0.2-0.8,0.3-0.9c0.3-0.5,1-1,2.3-1
		c0.5,0,1.7,0.1,2.6,1.1l-1,0.9c-0.1-0.3-0.3-0.4-0.4-0.5c-0.4-0.3-0.8-0.4-1.3-0.4c-0.1,0-0.5,0-0.7,0.2c-0.2,0.1-0.3,0.3-0.3,0.4
		c0,0.2,0.2,0.3,0.2,0.4c0.2,0.1,0.6,0.2,1,0.3c0.3,0.1,0.6,0.1,1,0.2c0.3,0.1,0.7,0.2,0.9,0.4c0.2,0.2,0.7,0.6,0.7,1.3
		C60.5,8.6,60.4,8.8,60.3,9.1z"/>
	<path class="st0" d="M61.7,3.2V1.8h1.4v1.5H61.7z M61.7,10.2v-6h1.4v6H61.7z"/>
	<path class="st0" d="M66.5,10.2c-0.8,0-1.2-0.2-1.4-0.5c-0.1-0.1-0.2-0.3-0.2-0.3c-0.1-0.2-0.1-0.6-0.1-1.1V5.2H64v-1h0.9V2h1.4
		v2.1h1.3v1h-1.3v2.7c0,0.2,0,0.7,0.1,0.9C66.6,9,66.9,9,67,9c0.2,0,0.4,0,0.6-0.1v1.2C67.4,10.1,67,10.2,66.5,10.2z"/>
	<path class="st0" d="M73.5,9.4c-0.3,0.3-1.1,0.9-2.4,0.9c-0.4,0-1.3,0-2.1-0.8c-0.7-0.6-0.9-1.5-0.9-2.4c0-0.5,0.1-1,0.3-1.4
		c0.3-0.6,1-1.7,2.7-1.7c1.3,0,2.1,0.7,2.4,1.2C73.7,5.5,74,6.3,74,7.4h-4.4c0,0.2,0.1,0.6,0.4,0.9c0.2,0.3,0.6,0.6,1.3,0.6
		s1.2-0.3,1.4-0.6c0,0,0.1-0.1,0.2-0.3l1.2,0.7C74,8.9,73.8,9.2,73.5,9.4z M72.3,5.9c-0.1-0.3-0.4-0.8-1.2-0.8
		c-0.3,0-0.5,0.1-0.6,0.1c-0.7,0.3-0.8,0.9-0.9,1.2h2.8C72.5,6.4,72.4,6.1,72.3,5.9z"/>
</g>
</svg>
