<?xml version="1.0" encoding="utf-8"?>
<!-- Generator: Adobe Illustrator 24.0.0, SVG Export Plug-In . SVG Version: 6.00 Build 0)  -->
<svg version="1.1" id="Laag_1" xmlns="http://www.w3.org/2000/svg" xmlns:xlink="http://www.w3.org/1999/xlink" x="0px" y="0px"
	 width="72.9px" height="26.8px" viewBox="0 0 72.9 26.8" style="enable-background:new 0 0 72.9 26.8;" xml:space="preserve">
<style type="text/css">
	.st0{fill:#FFFFFF;}
</style>
<g>
	<path class="st0" d="M15.2,2.5c0,0.9-0.4,1.5-1.2,1.9c0.9,0.4,1.4,1,1.4,1.9c0,1.7-1.6,2.5-3.2,2.5c-1.3,0-2.3-0.4-3-1.2l1.1-1.3
		C10.8,6.8,11.4,7,12.1,7c0.7,0,1.3-0.3,1.3-0.9c0-0.6-0.7-0.9-1.5-0.9h-0.9V3.5h1c0.7,0,1.3-0.3,1.3-0.9c0-0.6-0.5-0.8-1.2-0.8
		c-0.8,0-1.3,0.4-1.7,0.8L9.2,1.4c0.6-0.7,1.5-1.3,2.9-1.3C13.9,0.1,15.2,1,15.2,2.5z"/>
	<path class="st0" d="M25.4,5.7c0,1.8-1.4,3.1-3.2,3.1S19,7.5,19,5.7s1.3-3.1,3.2-3.1S25.4,3.9,25.4,5.7z M20.9,5.7
		c0,0.8,0.5,1.3,1.3,1.3c0.7,0,1.3-0.6,1.3-1.3s-0.5-1.3-1.3-1.3C21.5,4.3,20.9,4.9,20.9,5.7z"/>
	<path class="st0" d="M28.7,4.7l1.4-1.9h2.3l-2.2,2.8l2.2,3.1h-2.3l-1.5-2.3h-0.4v2.3h-1.9V0h1.9v4.7H28.7z"/>
	<path class="st0" d="M35.6,4.4v1.7c0,0.7,0.4,0.9,0.8,0.9c0.4,0,0.7-0.2,1-0.4l0.6,1.5c-0.6,0.4-1.1,0.7-2.1,0.7
		c-1.6,0-2.3-0.9-2.3-2.4v-2h-1.1V2.8h1.1V1h1.9v1.7h2v1.7H35.6z"/>
	<path class="st0" d="M44.7,5.7c0,1.8-1.4,3.1-3.2,3.1c-1.8,0-3.2-1.3-3.2-3.1s1.3-3.1,3.2-3.1C43.4,2.6,44.7,3.9,44.7,5.7z
		 M40.3,5.7c0,0.8,0.5,1.3,1.3,1.3c0.7,0,1.3-0.6,1.3-1.3s-0.5-1.3-1.3-1.3C40.8,4.3,40.3,4.9,40.3,5.7z"/>
	<path class="st0" d="M52,5.7c0,1.7-1.2,3.1-2.7,3.1c-0.8,0-1.3-0.3-1.7-0.8v0.6h-1.8V0h1.9v3.3c0.4-0.4,0.9-0.7,1.6-0.7
		C50.8,2.6,52,4,52,5.7z M47.5,5.7C47.5,6.5,48,7,48.8,7C49.5,7,50,6.5,50,5.7s-0.5-1.3-1.3-1.3C48,4.3,47.5,4.9,47.5,5.7z"/>
	<path class="st0" d="M58.6,5.7c0,0.2,0,0.5,0,0.6h-4c0.2,0.6,0.6,0.9,1.3,0.9c0.4,0,0.9-0.2,1.3-0.5l1.2,1.1c-0.6,0.6-1.5,1-2.6,1
		c-1.8,0-3.1-1.2-3.1-3.1c0-1.8,1.2-3.1,3-3.1C57.4,2.6,58.6,3.8,58.6,5.7z M54.6,5.1h2.1c-0.2-0.6-0.5-0.9-1.1-0.9
		C55.1,4.2,54.8,4.5,54.6,5.1z"/>
	<path class="st0" d="M63.7,2.7l-0.2,1.9c-0.3-0.1-0.6-0.2-0.9-0.2c-0.7,0-1.1,0.3-1.1,1.1v3.2h-1.9V2.8h1.8v0.7
		c0.3-0.6,0.9-0.8,1.6-0.8C63.3,2.6,63.6,2.6,63.7,2.7z"/>
	<path class="st0" d="M34.5,15.2v-1.6h3.6v1.6H34.5z"/>
	<path class="st0" d="M3.1,18.1c1.8,0,2.9,1.1,2.9,2.7c0,1-0.4,1.6-1.3,2.5l-1.5,1.5h3v1.8H0.4v-1.5l2.9-2.8C3.7,21.9,4,21.5,4,21
		c0-0.6-0.5-1-1.1-1c-0.8,0-1.3,0.4-1.7,0.9L0,19.6C0.5,18.9,1.5,18.1,3.1,18.1z"/>
	<path class="st0" d="M10.1,23.8c-1.9,0-3-1.2-3-2.8c0-1.7,1.4-2.9,3.3-2.9c1.9,0,3.3,1.2,3.3,2.9c0,0.8-0.3,1.5-0.8,2.3l-2.2,3.3
		H8.2l2-2.8H10.1z M11.6,21c0-0.7-0.5-1.2-1.2-1.2c-0.7,0-1.2,0.5-1.2,1.2c0,0.7,0.5,1.2,1.2,1.2C11.1,22.2,11.6,21.7,11.6,21z"/>
	<path class="st0" d="M22.9,22.8v3.9h-1.9v-3.2c0-0.7-0.3-1.1-0.9-1.1c-0.5,0-1,0.3-1,1.1v3.2h-1.9v-5.9h1.8v0.7
		c0.4-0.6,1-0.9,1.8-0.9C22,20.6,22.9,21.4,22.9,22.8z"/>
	<path class="st0" d="M30.3,23.7c0,1.8-1.4,3.1-3.2,3.1s-3.2-1.3-3.2-3.1s1.3-3.1,3.2-3.1S30.3,21.9,30.3,23.7z M25.8,23.7
		c0,0.8,0.5,1.3,1.3,1.3c0.7,0,1.3-0.6,1.3-1.3s-0.5-1.3-1.3-1.3C26.4,22.3,25.8,22.9,25.8,23.7z"/>
	<path class="st0" d="M32.7,26.6l-2.3-5.9h2l1.3,3.8l1.3-3.8h2l-2.2,5.9H32.7z"/>
	<path class="st0" d="M43.2,23.7c0,0.2,0,0.5,0,0.6h-4c0.2,0.6,0.6,0.9,1.3,0.9c0.4,0,0.9-0.2,1.3-0.5l1.2,1.1c-0.6,0.6-1.5,1-2.6,1
		c-1.8,0-3.1-1.2-3.1-3.1c0-1.8,1.2-3.1,3-3.1C42.1,20.6,43.2,21.8,43.2,23.7z M39.2,23.1h2.1c-0.2-0.6-0.5-0.9-1.1-0.9
		C39.7,22.2,39.4,22.5,39.2,23.1z"/>
	<path class="st0" d="M53.7,22.8v3.9h-1.9v-3.2c0-0.7-0.3-1.1-0.9-1.1c-0.5,0-1,0.3-1,1.1v3.2H48v-3.2c0-0.7-0.3-1.1-0.9-1.1
		c-0.5,0-1,0.3-1,1.1v3.2h-1.9v-5.9h1.8v0.7c0.4-0.6,1-0.9,1.8-0.9c0.8,0,1.4,0.4,1.8,1c0.4-0.7,1-1,1.9-1
		C52.8,20.6,53.7,21.4,53.7,22.8z"/>
	<path class="st0" d="M61.2,23.7c0,1.7-1.2,3.1-2.7,3.1c-0.8,0-1.3-0.3-1.7-0.8v0.6h-1.8V18h1.9v3.3c0.4-0.4,0.9-0.7,1.6-0.7
		C60,20.6,61.2,22,61.2,23.7z M56.7,23.7c0,0.8,0.5,1.3,1.3,1.3c0.8,0,1.3-0.6,1.3-1.3s-0.5-1.3-1.3-1.3
		C57.3,22.3,56.7,22.9,56.7,23.7z"/>
	<path class="st0" d="M67.8,23.7c0,0.2,0,0.5,0,0.6h-4c0.2,0.6,0.6,0.9,1.3,0.9c0.4,0,0.9-0.2,1.3-0.5l1.2,1.1c-0.6,0.6-1.5,1-2.6,1
		c-1.8,0-3.1-1.2-3.1-3.1c0-1.8,1.2-3.1,3-3.1C66.6,20.6,67.8,21.8,67.8,23.7z M63.8,23.1H66c-0.2-0.6-0.5-0.9-1.1-0.9
		C64.3,22.2,64,22.5,63.8,23.1z"/>
	<path class="st0" d="M72.9,20.7l-0.2,1.9c-0.3-0.1-0.6-0.2-0.9-0.2c-0.7,0-1.1,0.3-1.1,1.1v3.2h-1.9v-5.9h1.8v0.7
		c0.3-0.6,0.9-0.8,1.6-0.8C72.5,20.6,72.8,20.6,72.9,20.7z"/>
</g>
</svg>
