<?xml version="1.0" encoding="utf-8"?>
<!-- Generator: Adobe Illustrator 16.0.4, SVG Export Plug-In . SVG Version: 6.00 Build 0)  -->
<!DOCTYPE svg PUBLIC "-//W3C//DTD SVG 1.1//EN" "http://www.w3.org/Graphics/SVG/1.1/DTD/svg11.dtd">
<svg version="1.1" id="Layer_1" xmlns="http://www.w3.org/2000/svg" xmlns:xlink="http://www.w3.org/1999/xlink" x="0px" y="0px"
	 width="340px" height="420px" viewBox="0 0 340 420" enable-background="new 0 0 340 420" xml:space="preserve">
<g>
	<g>
		<path fill="#006283" d="M41,35.894l2.288,25.254l-0.004,11.247l-0.343,13.566l-0.357,15.146c0,0,0.317,32.609,0.317,35.142
			c0,2.531-0.317,27.541-0.317,27.541l0.632,24.061l-0.333,28.492l1.918,27.226l-0.634,12.663l-0.634,23.108l0.634,19.629
			l0.505,25.354l1.394,25.614l1.266,28.809l5.762,7.232l59.771-0.9l0.95-44.003l87.691-3.168l82.309,2.851l2.848-39.889
			l-20.26,4.113l-71.546,0.32l-83.261,0.314l-3.797-11.396l3.674-26.494c0,0,20.386,0.22,21.968,0.22s64.266-0.317,64.266-0.317
			l28.808-0.949h25.959l39.262-1.716l-0.639-4.3l-2.217-53.818l-1.582-42.421l-0.949-55.718l-0.316-50.65l-0.688-21.874
			l-54.716-0.922l-50.017-0.947l-32.642,2.68l-36.689-1.099H41z"/>
		<g>
			<polygon fill="#006283" points="71.607,381.943 71.607,381.947 71.607,381.947 			"/>
			<path fill="#006283" d="M71.609,381.964c-0.005,0.008-0.005,0.013-0.005,0.018c0,0.002,0,0.007,0.003,0.011
				C71.609,381.983,71.607,381.974,71.609,381.964z"/>
			<path fill="#006283" d="M47.874,386.688c0.083,0.013,0.174-0.185,0.206-0.476l0,0l0,0c-0.264,0.597-0.982-0.417-0.764,1.904
				C47.337,387.07,47.525,386.619,47.874,386.688z"/>
			<path fill="#006283" d="M79.527,387.831c-0.145,0.002-0.281-0.008-0.414-0.029C79.224,387.86,79.366,387.86,79.527,387.831z"/>
			<path fill="#006283" d="M54.041,384.562c0.303,0.104,0.596,0.205,0.878,0.287C54.661,384.425,54.367,384.486,54.041,384.562z"/>
			<path fill="#006283" d="M48.08,386.212c0.81-0.28,1.562-1.519,2.38-1.522c0.852-0.003,1.782-1.102,2.515-0.342
				c0.375,0.393,0.734,0.293,1.066,0.214c-0.723-0.254-1.494-0.539-2.272-0.693c-0.99-0.197-1.89-1.104-2.822-1.823
				c-0.276-0.211-0.692,0.054-0.737-1.331c-1.055,0.576-2.133,0.249-3.251,0.599c0.185,0.884,0.485,0.261,0.554,0.766
				c0.12,0.854,0.346,0.787,0.566,0.789c0.647,0.004,1.285,0.436,1.941,0.208c0.194-0.066,0.402,0.312,0.655,0.534
				c-0.226,0.458-0.363,0.867-0.562,0.379c-0.29-0.738-0.471-0.178-0.652,0.454c0.188,0.703,0.436,0.669,0.655,0.861
				C48.479,385.621,48.07,385.891,48.08,386.212L48.08,386.212L48.08,386.212z"/>
			<path fill="#006283" d="M48.946,382.045c0.933,0.72,1.832,1.626,2.822,1.823c0.778,0.154,1.55,0.439,2.272,0.693
				c0.326-0.075,0.62-0.137,0.878,0.287c-0.282-0.082-0.575-0.183-0.878-0.287c-0.332,0.079-0.691,0.179-1.066-0.214
				c-0.732-0.76-1.663,0.339-2.515,0.342c-0.818,0.004-1.57,1.242-2.38,1.522l0,0c0.098,0.193,0.198,0.391,0.324,0.284
				c0.354-0.323,0.713-0.268,1.078-0.851c0.358-0.562,0.887,0.029,1.307-0.748c0.126-0.238,0.193,0.231,0.285,0.399
				c0.212,0.391,0.412,0.4,0.655,0.007c0.466-0.788,0.979-0.817,1.49-0.614c-0.006,0.595-0.216,0.827-0.127,1.288
				c0.049,0.271,0.18,0.323,0.243,0.125c0.469-1.462,1.062-0.677,1.597-0.899c0.171-0.074,0.394,0.316,0.602-0.593
				c-0.619-0.21-1.161-0.461-1.709-0.563c-0.619-0.117-1.241-0.166-1.842-0.605c-0.361-0.267-0.682-0.677-1.079-0.308
				c-0.22,0.201-0.469-0.434-0.722-0.171c-0.26-1.395-0.772-0.965-1.169-1.381c-0.271-0.277-0.58-0.23-0.805-0.868
				C48.253,382.099,48.669,381.834,48.946,382.045z"/>
			<polygon fill="#006283" points="48.08,386.212 48.08,386.212 48.08,386.212 			"/>
			<polygon fill="#006283" points="48.08,386.212 48.08,386.212 48.08,386.212 			"/>
			<polygon fill="#006283" points="48.08,386.212 48.08,386.212 48.08,386.212 			"/>
			<polygon fill="#006283" points="48.08,386.212 48.08,386.212 48.08,386.212 			"/>
			<path fill="#006283" d="M71.607,381.943c0-0.006,0-0.006,0.002-0.009c-0.002-0.016-0.002-0.034-0.002-0.052
				C71.607,381.9,71.607,381.923,71.607,381.943z"/>
			<path fill="#006283" d="M71.607,381.959l0.004-0.004l0,0c-0.002-0.006-0.002-0.008-0.004-0.008
				C71.609,381.949,71.609,381.955,71.607,381.959z"/>
			<path fill="#006283" d="M71.607,381.883c-0.005-0.086-0.005-0.172-0.018-0.253c0.14-0.83,0.38-0.608,0.607-0.59
				c0.609,0.053,1.217,0.378,1.839,0.159c-0.972-0.306-1.963-0.139-2.926-0.688C71.255,381.029,71.537,381.142,71.607,381.883z"/>
			<path fill="#006283" d="M71.607,381.947c0-0.004-0.003-0.004-0.003-0.004c0.003-0.021,0.003-0.043,0.003-0.061
				c-0.07-0.741-0.352-0.854-0.497-1.371C71.192,381.248,71.412,381.557,71.607,381.947z"/>
			<polygon fill="#006283" points="71.611,381.955 71.611,381.955 71.611,381.955 			"/>
			<path fill="#006283" d="M71.607,381.947L71.607,381.947c-0.003,0.008-0.009,0.017-0.013,0.027l0.013-0.016
				C71.609,381.955,71.609,381.949,71.607,381.947z"/>
			<path fill="#006283" d="M72.197,381.04c-0.228-0.019-0.468-0.24-0.607,0.59c0.013,0.081,0.013,0.167,0.018,0.253
				c0,0.018,0,0.036,0.002,0.052c0.169-0.708,0.389-0.654,0.66-0.61c0.583,0.106,1.179,0.527,1.767-0.125
				C73.414,381.418,72.806,381.093,72.197,381.04z"/>
			<path fill="#006283" d="M49.781,380.655c-0.521-0.095-1.044-0.653-1.567,0.056C48.734,380.341,49.258,381.01,49.781,380.655z"/>
			<path fill="#006283" d="M49.781,380.655c-0.522,0.354-1.047-0.314-1.567,0.056C48.734,380.829,49.258,381.073,49.781,380.655z"/>
			<path fill="#006283" d="M75.401,384.2c0.393-0.044,0.787,0.202,1.184-0.384c-1.242,0.613-2.467-0.072-3.701-0.041
				C73.726,383.823,74.556,384.287,75.401,384.2z"/>
			<path fill="#006283" d="M71.812,384.12c0.021-0.04,0.039-0.086,0.063-0.117h-0.004c-0.017,0.044-0.042,0.075-0.062,0.117H71.812z
				"/>
			<polygon fill="#006283" points="71.809,384.129 71.806,384.12 71.806,384.12 71.806,384.12 71.809,384.129 			"/>
			<path fill="#006283" d="M71.809,384.12h-0.003l0.003,0.009C71.809,384.122,71.809,384.122,71.809,384.12z"/>
			<path fill="#006283" d="M71.895,383.971c-0.01,0.008-0.013,0.023-0.02,0.032c0.337-0.155,0.671-0.22,1.008-0.228
				C72.554,383.759,72.228,383.8,71.895,383.971z"/>
			<path fill="#006283" d="M71.895,383.971c0.333-0.171,0.659-0.212,0.988-0.195c1.234-0.031,2.459,0.654,3.701,0.041
				c-0.396,0.586-0.791,0.34-1.184,0.384c-0.845,0.087-1.675-0.377-2.518-0.425c-0.337,0.008-0.671,0.072-1.008,0.228
				c-0.024,0.031-0.042,0.077-0.063,0.117c1.752,0.078,3.496,1.181,5.425,0.231c-0.459-1.102-0.784-1.755-1.243-1.062
				c-0.202,0.302-0.41,0.322-0.605-0.004c-0.183-0.306-0.359-0.211-0.539,0.045c-0.366,0.521-0.716,0.361-1.09,0.049
				c-0.639-0.518-1.288-0.591-1.888,0.623h0.004C71.882,383.994,71.885,383.979,71.895,383.971z"/>
			<rect x="71.606" y="381.953" fill="#006283" width="0.005" height="0.009"/>
			<polygon fill="#006283" points="71.809,384.129 71.809,384.129 71.809,384.129 			"/>
			<path fill="#006283" d="M71.614,382.133c0-0.015,0.003-0.034,0.003-0.052c0-0.028,0-0.052-0.003-0.077
				c0-0.003-0.005-0.006-0.007-0.012C71.614,382.042,71.614,382.09,71.614,382.133z"/>
			<path fill="#006283" d="M71.592,383.402c-0.011-0.418,0.021-0.845,0.021-1.27c-0.01,0.132-0.024,0.259-0.06,0.299
				c-0.756,0.87-0.797,1.835-0.146,3.705c0.247-0.449,0.174-1.512,0.4-2.005c0-0.003,0-0.003-0.003-0.012l0,0l0,0l0,0l0,0l0,0
				c-0.004-0.008-0.004-0.017-0.006-0.021C71.619,384.291,71.604,383.787,71.592,383.402z"/>
			<polygon fill="#006283" points="71.611,381.955 71.611,381.955 71.611,381.955 			"/>
			<path fill="#006283" d="M71.614,382.133c0,0.425-0.032,0.852-0.021,1.27c0.012,0.385,0.026,0.889,0.208,0.697
				c-0.129-0.272-0.104-0.68-0.057-1.027c0.074-0.537,0.021-0.86-0.13-1.068c0.003,0.025,0.003,0.049,0.003,0.077
				C71.617,382.099,71.614,382.118,71.614,382.133z"/>
			<path fill="#006283" d="M71.409,386.137c-0.651-1.87-0.61-2.835,0.146-3.705c0.035-0.04,0.05-0.167,0.06-0.299
				c0-0.043,0-0.091-0.007-0.141c-0.003-0.004-0.003-0.009-0.003-0.011c-0.181,0.683-0.373,0.097-0.562,0.12
				c-0.222,0.028-0.464,0.217-0.359,1.093c0.17,1.465,0.17,3.29,0.805,3.882c0.256-0.824,0.385-1.801,0.321-2.944
				C71.583,384.625,71.656,385.688,71.409,386.137z"/>
			<path fill="#006283" d="M71.607,381.959l-0.013,0.016c0.004,0.002,0.004,0.002,0.01,0.007c0-0.005,0-0.01,0.005-0.018
				C71.609,381.962,71.609,381.962,71.607,381.959z"/>
			<polygon fill="#006283" points="71.806,384.12 71.806,384.12 71.806,384.12 			"/>
			<rect x="71.808" y="384.12" fill="#006283" width="0" height="0.009"/>
			<g>
				<path fill="#006283" d="M295.82,341.812l-1.383-6.121c-4.193,0.25-8.383,0.509-12.572,0.763
					c-3.459,0.207-6.926,0.192-10.385,0.133c-0.676-0.014-1.217,0.353-1.891,0.3c-1.74-0.128-3.469,0.141-5.209,0.146
					c-3.281,0.017-6.559,0.058-9.828,0.087c0.357,0.198,0.707,0.479,0.045,0.638c-0.812,0.188-1.668,0.289-2.51,0.317
					c-1.246,0.032-2.493-0.034-3.738-0.071c-0.238-0.001-0.547,0.031-0.703-0.085c-1.233-0.898-2.778-0.693-4.183-0.995l0,0l0,0
					c-2.93-0.238-5.866-0.195-8.796-0.229c-4.179-0.049-8.358-0.158-12.527-0.223c-2.306-0.037-4.608,0.049-6.904-0.067
					c-1.533-0.076-3.062-0.153-4.59-0.083c-1.194,0.056-2.388,0.01-3.586-0.062c-2.675-0.158-5.347-0.349-8.027-0.293
					c-1.862,0.04-3.738,0.037-5.59-0.13c-2.428-0.217-4.841-0.163-7.262-0.095c-4.456,0.124-8.901,0.306-13.363,0.052
					c-3.231-0.186-6.47-0.145-9.7-0.347c-4.171-0.262-8.333-0.242-12.492-0.237c-2.368,0-4.73,0.175-7.092,0.093
					c-4.862-0.183-9.719-0.483-14.576-0.732c-0.414,0.22-0.866,0.298-1.351,0.253c-0.638-0.064-1.258-0.309-1.928-0.117
					c-0.204,0.06-0.38-0.211-0.489-0.408c-0.094-0.006-0.184-0.012-0.277-0.018c-0.02,0.359-0.224,0.571-0.635,0.441
					c-0.551-0.173-0.984,0.113-1.441,0.105c-0.161,0.407,0.385,0.357,0.461,0.753c-0.891-0.395-2.009,0.524-2.608-0.707
					c-1.017,0.76-2.242,0.801-3.535,0.609c-0.419-0.062-0.843-0.049-1.264-0.091c-0.548-0.052-1.23,0.219-1.458-0.597
					c-0.067-0.249-0.506-0.137-0.77-0.211c-0.346-0.097-0.22-0.304-0.118-0.497c-0.947-0.1-1.878-0.054-2.781,0.195
					c0.034,0.297-0.146,0.498-0.444,0.503c-0.544,0.007-1.039,0.294-1.6,0.147c-0.141,0.014-0.277,0.041-0.422,0.042l0.537,7.386
					c0.279,0.02,0.552,0.011,0.829,0.117c1.488,0.586,3.065,0.586,4.63,0.695c1.44,0.098,2.903-0.321,4.33,0.253
					c0.136,0.059,0.346-0.075,0.523-0.078c1.348-0.029,2.63-0.477,4.025-0.267c1.287,0.193,2.581,0.208,3.885-0.088
					c0.952-0.216,2.015-0.129,3.003-0.102c1.431,0.037,2.792-0.042,4.139-0.427c0.167-0.045,0.373-0.058,0.544-0.024
					c2.553,0.497,5.093,0.704,7.627,0.092c0.269-0.063,0.566-0.034,0.848-0.037c3.547-0.046,7.095-0.132,10.643-0.107
					c1.677,0.013,3.41-0.289,5.006,0.56c0.274,0.146,0.553,0.031,0.59-0.308c0.027-0.297,0.276-0.291,0.512-0.252
					c0.143,0.024,0.247,0.135,0.208,0.278c-0.063,0.233-0.464,0-0.508,0.303c0.5,0.083,0.981,0.192,1.505,0.033
					c0.281-0.085,0.766-0.155,0.916,0.089c0.423,0.677,1.029,0.448,1.403,0.191c0.704-0.488,1.827-0.02,2.356-0.857
					c0.086-0.14,0.46-0.066,0.594,0.158c0.12,0.203,0.224,0.35,0.527,0.269c0.596-0.148,1.216-0.002,1.826-0.024
					c1.367-0.054,2.783-0.199,4.102,0.159c0.955,0.26,1.771,0.183,2.643-0.058c0.306-0.084,0.642-0.094,0.961-0.128
					c1.287-0.135,2.518,0.205,3.755,0.283c2.744,0.168,5.53,0.126,8.269-0.088c3.209-0.251,6.43-0.394,9.643-0.629
					c0.854-0.062,1.824-0.251,2.568,0.458c0.106,0.1,0.367,0.124,0.544,0.107c2.271-0.208,4.575,0.378,6.836-0.122
					c0.593-0.132,1.227-0.252,1.825-0.203c2.941,0.257,5.887-0.347,8.834,0.199c1.079,0.195,2.213,0.079,3.267,0.546
					c0.788,0.35,1.857,0.41,2.515,0.138c1.147-0.478,2.25-0.284,3.322-0.183c2.102,0.195,4.178,0.079,6.235-0.146
					c2.129-0.233,4.262-0.371,6.4-0.481c0.143-0.005,0.294,0.009,0.424,0.053c1.208,0.447,1.206,0.447,1.711,0.379
					c1.426-0.189,2.846-0.31,4.304-0.266c2.258,0.063,4.516,0.2,6.78,0.021c2.061-0.165,4.121-0.412,6.197-0.297
					c0.736,0.044,1.707-0.604,2.211,0.456c0.027,0.057,0.273,0.057,0.408,0.04c3.023-0.387,6.076,0.062,9.105-0.203
					c0.939-0.078,1.918-0.276,2.861,0.104c0.15,0.062,0.418,0.029,0.564-0.052c1.273-0.727,2.725-0.324,4.082-0.457
					c2.832-0.275,5.693-0.147,8.543-0.324c1.832-0.114,3.645-0.373,5.5-0.351"/>
				<path fill="#006283" d="M293.213,300.629c0.225-0.188,0.34-0.521,0.469-0.848c0.176-0.435,0.076-0.681-0.217-0.91
					c-1.109-0.863-2.322-0.758-3.549-0.657c-0.068,0.007-0.123,0.071-0.17,0.14c-0.293,0.163-0.604,0.123-0.908,0.137
					c-0.301,0.229-0.637,0.121-0.949,0.164c-1.037,0.144-2.088,0.293-3.156,0.312c-0.174,0.086-0.35,0.034-0.529,0.034
					c-1.166-0.004-2.352-0.084-3.541,0.009c-1.268,0.098-2.545,0.013-3.836-0.021c-0.504-0.013-0.998,0.017-1.477,0.24
					c-0.49,0.235-1.012,0.326-1.523,0.494c-0.861,0.279-1.752,0.391-2.639,0.599c-1.135,0.269-2.295,0.479-3.477,0.481
					c-1.166,0.007-2.299,0.277-3.422,0.688c-0.504,0.18-0.996,0.281-1.525,0.232c-2.152-0.195-4.348-0.198-6.582-0.09
					c-1.25,0.061-2.494,0.373-3.777,0.326c-2.84-0.098-5.742,0.208-8.72,0.188c-1.511-0.013-3.043-0.081-4.597-0.065
					c-1.516,0.017-3.045-0.078-4.6-0.104c-1.968-0.029-3.967-0.127-5.981,0.148c-1.468,0.2-2.962,0.217-4.466,0.32
					c-0.652,0.039-1.328,0.063-1.982-0.019c-2.334-0.294-4.724-0.216-7.146-0.375c-2.634-0.175-5.32,0.076-8.061,0.054
					c-2.042-0.017-4.11-0.082-6.207,0.062c-2.02,0.138-4.065,0.215-6.146,0.059c-2.436-0.174-4.913-0.296-7.431-0.128
					c-1.822,0.121-3.662,0.251-5.527,0.299c-5.535,0.141-11.279,0.241-17.233,0.359c-1.343,0.028-2.703-0.006-4.061,0.09
					c-3.882,0.271-7.856,0.191-11.911-0.145c-3.401-0.28-6.87-0.396-10.412-0.342c-3.663,0.059-7.398,0.264-11.223,0.354
					c-4.314,0.1-8.734-0.291-13.271-0.161c-1.442,0.039-2.617,0.513-3.947,0.747c-0.254,0.042-0.567,0.241-0.638,0.415
					c-0.562,1.404-1.05,2.829-0.485,4.307c0.177,0.46,0.575,0.664,1.318,0.676c2.17,0.037,4.315,0.139,6.442,0.19
					c5.381,0.127,10.598,0.212,15.687-0.036c2.083-0.098,4.151-0.049,6.178-0.269c2.623-0.288,5.216-0.297,7.763-0.15
					c4.126,0.235,8.159,0.216,12.102,0.146c0.601-0.009,1.27-0.127,1.782,0.04c1.155,0.369,2.314,0.273,3.467,0.225
					c3.201-0.134,6.321-0.418,9.407-0.479c4.138-0.075,8.168-0.262,12.087-0.588c3.016-0.252,5.967-0.659,8.887-0.639
					c0.957,0.009,1.907,0.049,2.854,0.021c2.836-0.088,5.615-0.146,8.342-0.146c1.704,0.003,3.392,0.028,5.049-0.148
					c3.071-0.332,6.082-0.239,9.009-0.049c2.344,0.152,4.617-0.022,6.865-0.156c1.286-0.076,2.552-0.21,3.813-0.237
					c1.421-0.036,2.826,0.024,4.204-0.249c0.733-0.148,1.466-0.176,2.21-0.071c0.559,0.079,1.141,0.089,1.699-0.031
					c1.011-0.217,2.009-0.205,2.998-0.03c0.31,0.058,0.61,0.126,0.924,0.162c1.339,0.155,2.672-0.021,3.98-0.051
					c2.021-0.044,4.009-0.093,5.965-0.117c0.98-0.013,1.947-0.096,2.912-0.205c2.123-0.237,4.213-0.442,6.277-0.262
					c0.506,0.046,1.014-0.003,1.51,0.146c0.574,0.171,1.156,0.235,1.738,0.146c0.693-0.106,1.365,0.003,2.027,0.135
					c0.191,0.039,0.395,0.112,0.547-0.011c0.412-0.335,0.869-0.29,1.312-0.311c1.309-0.058,2.592-0.18,3.854-0.434
					c0.814-0.16,1.6-0.449,2.412-0.519c2.426-0.214,4.807-0.25,7.131-0.396c0.275-0.015,0.549-0.007,0.812,0.099
					c0.984,0.392,1.99,0.457,2.984,0.362c1.512-0.134,3-0.309,4.461-0.537c0.59-0.093,1.178-0.109,1.762-0.217
					c1.115-0.218,2.229-0.369,3.326-0.278"/>
				<path fill="#006283" d="M115.185,271.327c0.022,0.207-0.297,0.126-0.178,0.48c0.677-0.396,1.421-0.143,2.151-0.354
					c0.444-0.129,1.03-0.358,1.514-0.032c0.338,0.226,0.646,0.146,0.979,0.183c0.722,0.082,1.399-0.411,2.112-0.195
					c0.925,0.285,1.856,0.135,2.769,0.045c2.515-0.243,5.024-0.427,7.552-0.203c0.989,0.092,1.986,0.097,2.982,0.113
					c1.719,0.033,3.41-0.295,5.116-0.464c3.168-0.317,6.338-0.546,9.525-0.483c1.777,0.039,3.563-0.026,5.337-0.234
					c3.18-0.372,6.361-0.586,9.556-0.427c1.289,0.067,2.579,0.293,3.86-0.159c0.251-0.088,0.663-0.166,0.794,0.146
					c0.25,0.576,0.619,0.181,0.847,0.41c0.106-0.281-0.255-0.312-0.062-0.554c0.282-0.131,0.552,0.028,0.837-0.066
					c1.15-0.377,2.338-0.544,3.523-0.54c2.785,0.012,5.578,0.072,8.369,0.182c1.763,0.065,3.521-0.018,5.271-0.188
					c2.29-0.229,4.583-0.356,6.874-0.479c1.477-0.08,2.958-0.068,4.435-0.169c2.988-0.207,5.978-0.219,8.975-0.292
					c1.86-0.047,3.721,0.079,5.585,0.11c2.301,0.036,4.604-0.267,6.91-0.056c0.564,0.05,1.146,0.053,1.699-0.077
					c2.371-0.549,4.726-0.266,7.093-0.061c1.887,0.162,3.78,0.349,5.684,0.061c2.394-0.358,4.802-0.627,7.189-1.021
					c0.557-0.092,1.028,0.33,1.582,0.116c0.581-0.232,1.196-0.174,1.8-0.12c2.816,0.252,5.641,0.228,8.467,0.213
					c3.082-0.018,6.17-0.129,9.254-0.252c1.947-0.078,3.881-0.408,5.824-0.479c1.43-0.049,2.871-0.254,4.293-0.144
					c1.492,0.122,2.982,0.339,4.467-0.01c2.094-0.488,4.176-0.635,6.283-0.371c1.297,0.158,2.619-0.254,3.918-0.011
					c1.574,0.294,3.184,0.216,4.744,0.597c0.129,0.029,0.256,0.045,0.383,0.032c0.32-0.03,0.709-0.022,0.781-0.53
					c0.076-0.564-0.289-0.747-0.645-0.854c-0.152-0.047-0.314-0.027-0.471-0.047c-0.48-0.051-0.977-0.021-1.43-0.18
					c-2.809-0.96-5.729-0.226-8.574-0.604c-0.154-0.022-0.316,0.083-0.473,0.098c-1.145,0.124-2.268,0.571-3.428,0.359
					c-1.299-0.237-2.594-0.203-3.893,0.244c-0.469,0.165-0.945,0.09-1.42-0.066c-0.932-0.306-1.908-0.33-2.844-0.059
					c-0.951,0.271-1.906,0.415-2.85,0.352c-1.252-0.08-2.473,0.173-3.711,0.303c-2.475,0.259-4.932,0.817-7.414,0.967
					c-1.107,0.063-2.164,0.144-3.256-0.396c-1.617-0.807-3.314-1.132-5.106-0.485c-0.964,0.351-1.998,0.371-3.018,0.222
					c-1.54-0.23-3.112-0.385-4.621,0.267c-1.479,0.638-2.949,0.454-4.414,0.249c-1.133-0.151-2.258-0.355-3.401-0.381
					c-1.705-0.036-3.42-0.018-5.119-0.075c-1.556-0.052-3.096,0.005-4.637,0.225c-0.726,0.107-1.452,0.239-2.175,0.122
					c-3.694-0.589-7.426-0.403-11.128-0.848c-1.536-0.183-3.08-0.269-4.632-0.146c-0.366,0.029-0.748,0.045-1.135-0.541
					c1.232,0.025,2.331,0.051,3.43,0.074c-1.407-0.419-3.647-0.335-4.175,0.036c0.135,0.004,0.331-0.055,0.366,0.019
					c0.125,0.256-0.059,0.348-0.211,0.359c-0.25,0.021-0.504,0-0.753-0.008c-0.086-0.005-0.117-0.061-0.096-0.139
					c0.039-0.285,0.372-0.056,0.398-0.402c-0.218-0.18-0.459-0.131-0.701-0.069c-0.851,0.222-1.705,0.012-2.552-0.02
					c-0.712-0.021-1.406-0.098-2.128,0.003c-2.03,0.281-4.057,0.586-6.097,0.568c-1.883-0.015-3.766,0.066-5.635-0.135
					c-1.15-0.128-2.368,0.257-3.464-0.531c-0.205-0.145-0.503-0.177-0.739-0.123c-0.821,0.19-1.617-0.084-2.418-0.163
					c-1.407-0.137-2.818,0.039-4.229-0.208c-0.925-0.161-1.89-0.177-2.808,0.149c-1.384,0.495-2.805,0.504-4.201,0.522
					c-3.719,0.059-7.438-0.135-11.152,0.012c-0.322,0.013-0.638,0.022-0.859-0.352c-0.342,0.474-0.975,0.364-1.114,0.154
					c-0.439-0.647-0.656,0.493-0.983,0.082c-0.042-0.051-0.11-0.056-0.171-0.082c0.107-0.041,0.249,0.026,0.303-0.272
					c-0.562-0.006-1.147-0.175-1.636,0.136c-0.254,0.163-0.41,0.261-0.638,0.084c-0.232-0.18-0.48-0.126-0.729-0.106
					c-0.807,0.062-1.609,0.144-2.418,0.161c-1.7,0.047-3.36,0.672-5.075,0.511c-0.323-0.032-0.683,0.322-0.987,0.246
					c-0.833-0.215-1.664,0.169-2.494-0.128c-0.285-0.102-0.613-0.021-0.926,0.055c-0.742,0.178-1.479,0.366-2.215,0.562
					c-1.742,0.458-3.532,0.188-5.299,0.214c-0.178,0.004-0.289-0.113-0.329-0.337c-0.37-0.045-0.831,0.084-0.772-0.726
					c-0.184-0.003-0.367-0.008-0.546-0.016c0.048,0.182,0.153,0.383-0.058,0.498c-0.474,0.263-0.974,0.33-1.428,0.024
					c-0.028-0.015-0.049-0.034-0.076-0.049c-0.142-0.002-0.281-0.015-0.422-0.034c-0.047,0.034-0.092,0.081-0.137,0.146
					c-0.215,0.297-0.488,0.281-0.771,0.285c-0.312,0.006-0.408-0.18-0.472-0.554c-0.006-0.061-0.029-0.1-0.056-0.129
					c-0.12-0.02-0.236-0.032-0.359-0.046c-0.021,0.002-0.044,0.002-0.063-0.001c-0.923-0.083-1.848,0.095-2.771-0.107
					c-1.167,0.073-2.305,0.403-3.442,0.698c-1.258,0.327-2.524,0.608-3.782,0.907c-0.129,0.346-0.396,0.199-0.572,0.191
					c-0.937-0.015-1.881,0.358-2.812-0.064c-0.103,0.084-0.273,0.142-0.298,0.251c-0.222,1.045-0.874,0.989-1.445,0.81
					c-0.303-0.098-0.592-0.024-0.877-0.138c-0.578,0.073-1.2,0.089-1.131,1.192c0.004,0.032-0.023,0.071-0.043,0.098
					c-0.298,0.468-0.295,0.772,0.256,0.821c0.149,0.013,0.397,0.217,0.279,0.324c-0.488,0.434,0.143,0.689,0.065,1.062
					c-0.106,0.518,0.156,0.596,0.496,0.552c0.272-0.029,0.582,0.096,0.822-0.024c1.194-0.573,2.445-0.356,3.675-0.466
					C115.1,271.141,115.195,271.164,115.185,271.327z M199.202,265.067c0.004-0.125,0.096-0.186,0.192-0.186
					c0.141,0,0.322-0.047,0.349,0.221c0.022,0.199-0.117,0.248-0.23,0.288C199.338,265.385,199.2,265.313,199.202,265.067z
					 M125.464,265.473c0.004-0.225,0.161-0.195,0.278-0.191c0.117,0,0.274,0,0.27,0.216c-0.001,0.212-0.155,0.202-0.276,0.207
					C125.615,265.684,125.461,265.684,125.464,265.473z"/>
				<path fill="#006283" d="M287.496,36.174c-0.115-0.543-0.9-0.545-1.709-0.545c-1.236-0.003-2.664,0.2-2.904-0.797
					c-0.035-0.164-0.793-0.381-1.24-0.394c-2.824-0.071-5.537-0.517-8.479-0.3c-2.488,0.184-5.078-0.026-7.617-0.062
					c-2.23-0.274-4.479,0.022-6.717,0.014c-7.766-0.015-15.528,0.175-23.281,0.091c-9.196-0.095-18.379-0.149-27.554-0.241
					c-7.104-0.068-14.196-0.163-21.285-0.254c-3.422-0.043-6.832,0.209-10.226,0.209c-6.697-0.004-13.243,0.553-19.809,1.066
					c-5.664,0.447-11.363,0.547-17.035,0.306c-7.94-0.342-15.858-0.729-23.82-0.676c-7.858,0.051-15.701,0.236-23.535,0.363
					c-5.892,0.098-11.781,0.124-17.642,0.348c-4.783,0.185-9.54,0.274-14.324,0.148c-2.325-0.061-4.685-0.04-6.999,0.09
					c-3.657,0.209-7.296,0.414-10.978,0.216c-1.077-0.055-2.172-0.038-3.261-0.036c-0.524,0.003-1.001,0.119-1.078,0.421
					c-0.062,0.253,0.346,0.4,0.729,0.472c0.7,0.141,1.421,0.296,2.152,0.325c4.075,0.167,8.147,0.482,12.262,0.253
					c3.416-0.193,6.836-0.289,10.272-0.139c1.583,0.067,3.178,0.125,4.766,0.124c7.372-0.004,14.746-0.354,22.145-0.136
					c0.5,0.016,1.011,0.012,1.512-0.02c4.518-0.297,9.058-0.375,13.611-0.289c3.71,0.074,7.436,0.064,11.122,0.27
					c6.479,0.359,12.987,0.366,19.497,0.458c1.438,0.02,2.869-0.068,4.305-0.16c2.515-0.161,5.026-0.298,7.593-0.308
					c5.07-0.021,10.165-0.116,15.2-0.635c2.593-0.271,5.051-0.803,7.712-0.929c8.523-0.411,17.034-0.199,25.54,0.123
					c5.791,0.22,11.535,0.663,17.393,0.625c4.533-0.026,9.087,0.068,13.619,0.224c8.326,0.284,16.669,0.254,25.034,0.112
					c10.941-0.183,21.898-0.824,32.877-0.331C286.064,36.083,286.779,36.068,287.496,36.174z"/>
				<path fill="#006283" d="M107.344,263.764c0.454,2.111,0.782,4.133,0.618,6.046c-0.174,2.108,0.395,4.078,0.08,5.978
					c-0.159,0.94-0.672,1.871-0.27,2.793c0.385,0.892,0.222,1.771,0.202,2.631c-0.029,1.044-0.226,2.035-0.353,3.007
					c-0.291,2.193-0.258,4.24-0.521,6.154c-0.28,2.029-0.703,3.916-0.729,5.677c-0.015,1.035-0.143,2.037,0.059,2.98
					c0.177,0.781,0.563,1.526,0.522,2.278c-0.024,0.402,0.137,0.826,0.661,1.187c0.299,0.205,0.611,0.262,1.284,0.262
					c0.708,0.006,0.964-0.152,1.249-0.294c0.592-0.298,1.086-0.637,1.615-0.967c1.04-0.649,1.184-1.266,0.521-1.955
					c-0.041-0.043-0.009-0.153,0.041-0.159c0.947-0.152,0.471-0.426,0.41-0.659c-0.155-0.563-0.497-1.142-0.502-1.743
					c-0.012-1.213-0.288-2.482-0.117-3.845c0.151-1.177-0.357-2.39-0.749-3.65c-0.476-1.54-0.493-3.186-0.259-4.932
					c0.26-1.925,0.754-3.97,0.983-6.154c0.356-3.455,0.054-7.273,0.61-11.543c0.257-1.948,1.128-4.104-0.405-6.169
					c-0.148-0.198-0.046-0.533-0.015-0.804"/>
				<g>
					<path fill="#006283" d="M46.029,386.212c0.074,0.023,0.134,0.125,0.186,0.195c0.336,0.479,0.852,0.528,1.279,0.459
						c0.468-0.08,0.928-0.101,1.39-0.056c0.587,0.061,0.957-0.174,1.246-0.687c0.782-1.367,1.124-2.871,1.159-4.482
						c0.025-1.321-0.149-2.637-0.215-3.958c-0.159-3.277,0.029-6.562-0.543-9.836c-0.306-1.777-0.201-3.562-0.26-5.344
						c-0.089-2.671-0.68-5.298-0.787-7.957c-0.158-3.918-0.693-7.8-1.163-11.703c-0.331-2.751-0.486-5.525-0.262-8.304
						c0.288-3.594,0.371-7.206-1.191-10.659c-0.614-0.34-1.227-0.684-1.978-0.783c-0.193,0.773-0.036,1.516-0.08,2.233
						c-0.025,0.441,0.158,0.942-0.234,1.294c-0.286,1.455-0.062,2.959-0.198,4.426c-0.271,2.952-0.216,5.903,0.105,8.867
						c0.118,1.104,0.178,2.215,0.077,3.316c-0.164,1.825-0.277,3.654-0.26,5.497c0.022,1.974,0.172,3.959,0.102,5.923
						c-0.109,3.062-0.637,6.074-0.672,9.137c-0.041,3.469-0.397,6.901-0.266,10.377c0.074,1.949,0.395,3.906,0.082,5.855
						c-0.113,0.694-0.04,1.465,0.104,2.173C43.978,383.816,44.082,385.623,46.029,386.212z"/>
					<path fill="#006283" d="M43.839,158.93c0.121-0.579,0.02-1.356,0.904-1.239c0.22,0.026,0.312-0.123,0.369-0.321
						c0.389-1.275,1.178-2.409,1.135-3.829c-0.076-2.758,0.135-5.513-0.051-8.276c-0.062-0.938-0.129-1.871-0.039-2.809
						c0.196-2.129,0.065-4.261-0.11-6.396c-0.124-1.536-0.216-3.075-0.321-4.612c-0.146-2.187-0.196-4.387-0.466-6.559
						c-0.425-3.483-0.317-6.983-0.585-10.478c-0.17-2.25-0.068-4.533-0.393-6.758c-0.357-2.469-0.375-4.945-0.599-7.418
						c-0.195-2.141,0.01-4.281,0.151-6.421c0.097-1.511,0.161-3.031,0.028-4.555c-0.445-0.441-0.387-0.995-0.297-1.555
						c-0.001-0.192-0.001-0.385-0.001-0.576c-0.396-0.235-0.126-0.902-0.625-1.167c-0.465,0.438-0.441,1.045-0.431,1.633
						c0.034,2.23-0.506,4.383-0.555,6.598c0,0.082-0.101,0.156-0.155,0.232c-0.053,1.407-0.169,2.812-0.16,4.22
						c0.027,4.917-0.134,9.806-0.5,14.688c-0.259,3.418-0.588,6.85-0.284,10.312c0.055,0.591,0.035,1.219-0.095,1.784
						c-0.476,2.044-0.426,4.134-0.422,6.224c0.004,0.995-0.051,1.986-0.078,2.976c-0.083,2.82-0.4,5.622,0.024,8.469
						c0.282,1.896,0.302,3.832,0.409,5.75c0.057,0.916,0.269,1.804,0.729,2.549c0.415,0.665,0.594,1.418,0.586,2.097
						c-0.03,2.118,0.391,4.214,0.291,6.322C43.176,160.273,43.42,159.42,43.839,158.93z"/>
					<path fill="#006283" d="M44.671,324.322c0.056-0.496-0.332-1.209,0.346-1.431c0.552-0.183,1.088,0.12,1.528,0.544
						c0.131,0.128,0.215,0.297,0.322,0.445c0.058-0.379-0.041-0.735-0.139-1.099c-0.297-1.13-0.482-2.271-0.545-3.442
						c-0.156-2.903,0.17-5.76,0.281-8.643c0.158-4.116,0.123-8.222-0.712-12.305c-0.468-2.289-0.617-4.565-0.529-6.873
						c0.027-0.652,0.157-1.296,0.163-1.951c0.053-4.325,0.31-8.654-0.033-13.004c-0.313-0.749-1.009-1.463-0.241-2.303
						c-0.013-0.186-0.027-0.371-0.042-0.555c-0.62-0.573-1.476-0.852-1.852-1.736l0,0c-0.034,0.081-0.038,0.167-0.014,0.256
						c0.136,0.312,0.107,0.614,0,0.914c-0.015,0.068-0.015,0.14,0.004,0.205c0.015,1.066,0.365,2.158-0.106,3.184
						c-0.034,2.688-0.076,5.374-0.105,8.06c-0.021,1.599-0.056,3.198-0.019,4.795c0.062,2.539,0.021,5.08,0.27,7.614
						c0.16,1.636,0.37,3.271,0.522,4.904c0.259,2.765,0.062,5.511-0.011,8.26c-0.145,5.503,0.797,10.981,0.815,16.463
						C44.841,325.878,44.589,325.083,44.671,324.322z"/>
					<path fill="#006283" d="M44.81,325.331c0.044-0.718-0.113-1.46,0.08-2.233c0.751,0.1,1.363,0.443,1.978,0.783
						c-0.107-0.148-0.191-0.317-0.322-0.445c-0.44-0.424-0.977-0.727-1.528-0.544c-0.678,0.222-0.29,0.935-0.346,1.431
						c-0.082,0.761,0.17,1.556-0.096,2.303C44.968,326.273,44.785,325.772,44.81,325.331z"/>
					<path fill="#006283" d="M42.968,220.643c-0.023-1.433-0.049-2.864-0.086-4.3c-0.023-0.762,0.16-1.308,0.619-1.973
						c0.586-0.849,0.626,0.009,0.902,0.107c0.186-0.83-0.173-1.618-0.233-2.435c-0.399-5.069-0.283-10.137-0.108-15.203
						c0.091-2.576,0.208-5.129-0.081-7.72c-0.259-2.378-0.082-4.769,0.04-7.157c0.14-2.73-0.311-5.46-0.544-8.189
						c-0.112-1.316-0.47-2.671-0.322-3.938c0.417-3.614,0.595-7.251,0.685-10.905c-0.297,0.739-0.396,1.896-1.539,0.884
						c-0.034,0.14-0.086,0.278-0.102,0.421c-0.184,1.812-0.019,3.634-0.019,5.451c-0.002,1.106,0.153,2.233,0.037,3.314
						c-0.117,1.123-0.192,2.23-0.174,3.362c0.063,3.971,0.104,7.937,0.146,11.896c0.015,1.404-0.146,2.821-0.031,4.201
						c0.166,1.949,0.181,3.889,0.285,5.834c0.098,1.795,0.134,3.603,0.021,5.385c-0.082,1.355-0.076,2.71-0.124,4.062
						c-0.088,2.616,0.212,5.23,0.209,7.844c-0.008,3.573,0.153,7.15,0.241,10.719C43.108,221.791,42.974,221.205,42.968,220.643z"/>
					<path fill="#006283" d="M43.839,158.93c-0.419,0.49-0.663,1.344-1.539,0.884C43.444,160.825,43.542,159.669,43.839,158.93z"/>
					<path fill="#006283" d="M43.284,72.395c-0.022,0.36,0.267,0.622,0.563,0.777c0.52-2.353-0.227-4.596-0.603-6.864
						c-0.13-0.781,0.005-1.188,0.757-1.15c0.115-0.534-0.154-1.04-0.118-1.568c-0.194-0.005-0.501,0.222-0.54-0.15
						c-0.08-0.767-0.261-1.616-0.056-2.291c0.192-0.642,0.192-1.25,0.259-1.878c-0.604-0.01-0.567-0.485-0.586-0.96
						c-0.074-1.863,0.047-3.722,0.068-5.586c0.033-2.673,0.079-5.36-0.387-8.017c-0.203-1.129-0.242-2.229,0.015-3.335l0,0
						c-0.354,0.162-0.595,0.146-0.483-0.403c0.057-0.276,0.117-0.553,0.178-0.827c-0.108-0.403-0.212-0.808-0.314-1.212
						c-1.185-0.008-1.185-0.008-1.333,1.539c0.113,1.742,0.229,3.482,0.352,5.223c0.286,3.972,0.01,7.931,0.147,11.896
						c0.166,4.693,0.406,9.352,1.188,13.969C42.717,71.788,43.335,71.571,43.284,72.395z"/>
					<polygon fill="#006283" points="44.087,237.031 44.084,237.035 44.092,237.039 					"/>
					<path fill="#006283" d="M44.46,236.134c-0.144-0.401-0.262-0.831,0.211-1.208c0.399,0.678-0.117,1.533,0.42,2.124
						c-0.051-1.722-0.143-3.445-0.139-5.164c0.002-3.889,0.141-7.783,0.048-11.682c-0.046-1.903-0.213-3.836-0.597-5.727
						c-0.895,0.36-1.2,1.089-1.16,2.114c0.058,1.431,0.094,2.861,0.079,4.288c-0.006,0.531,0.131,1.183-0.532,1.423
						c-0.015,1.427-0.029,2.854-0.046,4.283c-0.039,2.9-0.159,5.799,0.229,8.697c0.281,0.65,0.877,1.065,1.113,1.748
						C44.439,236.854,44.625,236.607,44.46,236.134z"/>
					<path fill="#006283" d="M43.323,220.88c0.015-1.427-0.021-2.857-0.079-4.288c-0.04-1.025,0.266-1.754,1.16-2.114
						c-0.276-0.099-0.316-0.956-0.902-0.107c-0.459,0.665-0.643,1.211-0.619,1.973c0.037,1.436,0.062,2.867,0.086,4.3
						c0.006,0.562,0.14,1.148-0.178,1.66C43.454,222.062,43.317,221.411,43.323,220.88z"/>
					<path fill="#006283" d="M42.197,87.217c0.021-0.631,0.104-1.362,0.753-1.381c0.709-0.02,0.504,0.794,0.616,1.292
						c0.092-0.331,0.25-0.657,0.273-0.995c0.137-2.006,0.262-4.015,0.355-6.024c0.05-1.214,0.235-2.431,0.216-3.629
						c-0.03-1.713,0.144-3.405,0.146-5.112c0-2.09-0.297-4.146-0.556-6.21c-0.689,0.983-0.271,2.069-0.037,3.048
						c0.354,1.459,0.334,2.896,0.267,4.354c-0.011,0.298,0.072,0.678-0.214,0.805c-0.336,0.146-0.612-0.131-0.781-0.439
						c-0.257-0.474-0.453-0.996-0.846-1.367c-0.069,1.618,0.168,3.229,0.086,4.858c-0.062,1.302-0.179,2.604-0.188,3.918
						c-0.02,2.657-0.26,5.298-0.483,7.937c-0.171,2.034-0.207,4.102-0.004,6.154c0.155-2.245,0.215-4.504,0.396-6.754
						C42.207,87.521,42.19,87.367,42.197,87.217z"/>
					<path fill="#006283" d="M41.956,94.191c0.049-2.215,0.589-4.367,0.555-6.598c-0.011-0.588-0.034-1.195,0.431-1.633
						c0.499,0.265,0.229,0.932,0.625,1.167c-0.112-0.498,0.093-1.312-0.616-1.292c-0.649,0.019-0.732,0.75-0.753,1.381
						c-0.007,0.15,0.01,0.304,0,0.453c-0.182,2.25-0.241,4.509-0.396,6.754C41.855,94.348,41.956,94.273,41.956,94.191z"/>
					<path fill="#006283" d="M44.017,73.363c0.286-0.127,0.203-0.507,0.214-0.805c0.067-1.457,0.087-2.895-0.267-4.354
						c-0.234-0.979-0.652-2.064,0.037-3.048c-0.752-0.038-0.887,0.369-0.757,1.15c0.376,2.269,1.122,4.512,0.603,6.864
						c-0.297-0.155-0.586-0.417-0.563-0.777c0.052-0.823-0.566-0.606-0.894-0.838c0.393,0.371,0.589,0.894,0.846,1.367
						C43.405,73.232,43.681,73.51,44.017,73.363z"/>
					<path fill="#006283" d="M45.071,273.707c0.135-1.367-0.095-2.738-0.113-4.106c-0.021-1.699-0.313-3.42,0.043-5.089
						c0.197-0.928,0.226-1.861,0.299-2.803c0.162-2.193-0.176-4.364-0.37-6.543l0,0c-0.08-0.033-0.238-0.096-0.238-0.094
						c-0.24,0.728-0.73,1.345-0.818,2.133c-0.103,0.871-0.269,1.741-0.014,2.646c0.073,0.246-0.109,0.533-0.314,0.725
						c-0.124,3.338-0.258,6.674-0.354,10.006c-0.015,0.457-0.206,0.924,0.029,1.389l0,0C44.062,272.26,44.64,272.89,45.071,273.707z
						"/>
					<path fill="#006283" d="M45.071,273.707c-0.431-0.817-1.009-1.447-1.852-1.736C43.595,272.855,44.451,273.134,45.071,273.707z"
						/>
					<path fill="#006283" d="M43.477,246.721c0.061,0.461-0.121,0.986,0.54,1.084c0.335,0.052,0.243,0.315,0.241,0.537
						c-0.007,0.316-0.459,0.463-0.229,0.904c0.58-0.482,0.919-1.047,0.775-1.887c-0.125-0.742,0.052-1.406,0.471-1.986
						c0.335-2.768,0.283-5.543-0.185-8.323c-0.652-0.117-0.188-0.775-0.465-1.055c0.105,0.411,0.184,0.835-0.261,1.093
						c-0.096,0.032-0.186,0.026-0.281,0c0.003,0.118,0.01,0.236-0.003,0.349c-0.01,0.081-0.07,0.228-0.082,0.225
						c-0.154-0.052-0.164-0.202-0.121-0.321c0.035-0.096,0.107-0.176,0.177-0.256c-0.017-0.006-0.031-0.004-0.044-0.013
						c-0.698-0.362-0.821-1.104-1.037-1.788c0.08,3.457,0.162,6.912,0.244,10.362C43.847,245.854,43.431,246.365,43.477,246.721z"/>
					<path fill="#006283" d="M44.011,237.071c0.013,0.009,0.027,0.007,0.044,0.013c0.009-0.015,0.02-0.024,0.029-0.039
						c0-0.003,0-0.008,0-0.01c0-0.004,0-0.004,0-0.004c-0.233-0.683-0.829-1.098-1.11-1.748
						C43.19,235.967,43.313,236.709,44.011,237.071z"/>
					<path fill="#006283" d="M44.671,234.926c-0.473,0.377-0.354,0.807-0.211,1.208c0.165,0.474-0.021,0.72-0.373,0.897
						c0,0.005,0,0.006,0.005,0.008c-0.005,0.003-0.008,0.004-0.008,0.006c0,0.017,0.003,0.03,0,0.043
						c0.096,0.026,0.186,0.032,0.281,0c0.444-0.258,0.366-0.682,0.261-1.093c0.277,0.279-0.188,0.938,0.465,1.055
						C44.554,236.459,45.071,235.604,44.671,234.926z"/>
					<path fill="#006283" d="M43.611,257.192c0.016-0.882,0.444-1.498,0.752-2.194c0.146-0.336,0.433-0.162,0.566,0.168l0,0
						c0.002-0.473,0.044-0.946,0-1.414c-0.161-1.736-0.16-3.444,0.086-5.174c0.146-1.041,0.398-2.107,0.261-3.205
						c-0.215,0.771-0.37,1.552-0.315,2.367c0.035,0.507-0.104,0.918-0.345,1.323c-0.146,0.248-0.288,0.489-0.595,0.418
						c-0.339-0.078-0.29-0.386-0.336-0.677c-0.152-1.052-0.313-2.105-0.467-3.159c-0.149,1.619,0.025,3.232,0.21,4.844
						c0.11,0.947,0.275,1.905,0.173,2.842c-0.261,2.409-0.1,4.831-0.057,7.245C43.809,259.467,43.583,258.318,43.611,257.192z"/>
					<path fill="#006283" d="M43.859,259.852c-0.255-0.905-0.089-1.775,0.014-2.646c0.088-0.788,0.578-1.405,0.818-2.133
						c0-0.002,0.158,0.061,0.238,0.094c-0.134-0.33-0.42-0.504-0.566-0.168c-0.308,0.696-0.736,1.312-0.752,2.194
						c-0.027,1.126,0.198,2.274-0.066,3.384C43.75,260.385,43.932,260.098,43.859,259.852z"/>
					<path fill="#006283" d="M44.021,249.481c0.307,0.071,0.448-0.17,0.595-0.418c0.241-0.405,0.38-0.816,0.345-1.323
						c-0.055-0.815,0.101-1.597,0.315-2.367c-0.419,0.58-0.596,1.244-0.471,1.986c0.144,0.84-0.195,1.404-0.775,1.887
						c-0.23-0.441,0.222-0.588,0.229-0.904c0.002-0.222,0.094-0.485-0.241-0.537c-0.661-0.098-0.479-0.623-0.54-1.084
						c-0.046-0.355,0.37-0.866-0.259-1.075c0.153,1.054,0.314,2.107,0.467,3.159C43.731,249.096,43.682,249.403,44.021,249.481z"/>
					<path fill="#006283" d="M43.379,51.559c-0.067,2.235-0.125,4.472-0.027,6.708c0.008,0.355-0.077,0.712,0.194,1.003
						c0.196-0.735,0.178-1.487,0.155-2.257c-0.075-2.32-0.237-4.651-0.124-6.963c0.133-2.766-0.26-5.464-0.636-8.18
						c-0.03-0.212-0.127-0.377-0.285-0.498C42.858,44.776,43.477,48.141,43.379,51.559z"/>
					<path fill="#006283" d="M42.642,44.707c0.466,2.656,0.42,5.344,0.387,8.017c-0.021,1.864-0.143,3.723-0.068,5.586
						c0.019,0.475-0.019,0.95,0.586,0.96c-0.271-0.291-0.187-0.647-0.194-1.003c-0.098-2.236-0.04-4.473,0.027-6.708
						c0.098-3.418-0.521-6.782-0.723-10.187C42.4,42.479,42.439,43.578,42.642,44.707z"/>
					<path fill="#006283" d="M42.037,38.93c0.02-0.601-0.472-0.97-0.566-1.522c-0.035-0.208-0.181-0.341-0.39-0.341
						c-0.199,0.003-0.351,0.141-0.37,0.348c-0.096,1.015-0.583,2.021-0.007,3.055C40.498,38.75,40.734,38.479,42.037,38.93z"/>
					<path fill="#006283" d="M42.037,38.93c-1.303-0.451-1.539-0.18-1.333,1.539C40.852,38.922,40.852,38.922,42.037,38.93z"/>
					<path fill="#006283" d="M43.568,62.657c0.075,0.336,0.01,0.698,0.315,0.932c-0.079-1.44,0.123-2.903-0.337-4.319
						C43.97,60.401,43.32,61.518,43.568,62.657z"/>
					<path fill="#006283" d="M43.343,63.438c0.039,0.372,0.346,0.146,0.54,0.15c-0.306-0.233-0.24-0.596-0.315-0.932
						c-0.248-1.14,0.402-2.256-0.021-3.388c-0.066,0.628-0.066,1.236-0.259,1.878C43.083,61.822,43.263,62.672,43.343,63.438z"/>
					<path fill="#006283" d="M45.354,276.564c0.062-0.781,0.083-1.555-0.241-2.303C45.012,275.047,45.149,275.807,45.354,276.564z"
						/>
					<path fill="#006283" d="M45.354,276.564c-0.205-0.758-0.342-1.518-0.241-2.303C44.345,275.102,45.041,275.815,45.354,276.564z"
						/>
					<path fill="#006283" d="M43.209,273.346c-0.331,1.038-0.147,2.119-0.106,3.184C43.303,275.482,42.979,274.394,43.209,273.346z"
						/>
					<path fill="#006283" d="M43.209,273.346c-0.23,1.048,0.094,2.137-0.106,3.184C43.575,275.504,43.224,274.412,43.209,273.346z"
						/>
					<path fill="#006283" d="M43.567,87.704c0.194,0.497,0.267,1.021,0.297,1.555C44.318,88.619,43.779,88.198,43.567,87.704z"/>
					<path fill="#006283" d="M43.864,89.259c-0.03-0.533-0.103-1.058-0.297-1.555C43.477,88.264,43.418,88.817,43.864,89.259z"/>
					<path fill="#006283" d="M42.657,41.372c0.049-0.455,0.065-0.903-0.306-1.23C42.699,40.478,42.113,41.092,42.657,41.372z"/>
					<path fill="#006283" d="M42.657,41.372c-0.544-0.28,0.042-0.895-0.306-1.23c-0.061,0.274-0.121,0.551-0.178,0.827
						C42.062,41.519,42.302,41.534,42.657,41.372z"/>
					<path fill="#006283" d="M43.206,272.227c-0.222,0.297-0.183,0.604,0,0.914C43.078,272.831,43.048,272.525,43.206,272.227z"/>
					<path fill="#006283" d="M43.206,272.227c-0.157,0.299-0.128,0.604,0,0.914C43.313,272.841,43.341,272.538,43.206,272.227z"/>
					<path fill="#006283" d="M43.878,237.34c-0.043,0.119-0.033,0.27,0.121,0.321c0.012,0.003,0.072-0.144,0.082-0.225
						c0.013-0.112,0.006-0.23,0.003-0.349c-0.012-0.002-0.019-0.002-0.029-0.004C43.986,237.164,43.914,237.244,43.878,237.34z"/>
					<path fill="#006283" d="M44.055,237.084c0.011,0.002,0.018,0.002,0.029,0.004c0.003-0.013,0-0.026,0-0.043
						C44.075,237.06,44.064,237.069,44.055,237.084z"/>
					<polygon fill="#006283" points="44.084,237.035 44.084,237.045 44.092,237.039 					"/>
				</g>
				<g>
					<path fill="#006283" d="M287.398,90.104c-0.029-4.263,0.49-8.525,0.523-12.8c0.076-9.517-0.668-19.013-0.949-28.573
						c-0.121-4.062-0.4-8.129-0.408-12.208c-0.01-1.519-0.152-2.739-1.588-3.542c-0.016,0.494-0.455,0.843-0.42,1.494
						c0.08,1.425,0.035,2.861,0.025,4.294c-0.023,5.9-0.074,11.787-0.064,17.666c0.004,3.411,0.1,6.816,0.154,10.218
						c0.053,3.01,0.123,6.012,0.172,9.012c0.031,1.867-0.471,3.789,0.408,5.564c-0.67,1.266-0.441,2.628-0.467,3.953
						c-0.051,2.438-0.277,4.911,0.008,7.295c0.258,2.176,0.457,4.302,0.205,6.487c-0.221,1.937-0.029,3.892,0.021,5.81
						c0.098,3.566,0.223,7.14,0.549,10.694c0.52,5.491-0.07,11.028,0.186,16.544c0.307,6.629-0.123,13.297-0.354,19.927
						c-0.234,7.017-0.236,14.022,0.391,20.944c0.73,8.05,1.23,16.083,1.529,24.114c0.156,4.086,0.406,8.159,0.518,12.233
						c0.137,5.124,0.312,10.23,0.615,15.325c0.504,8.447-0.141,16.937,0.879,25.307c0.479,3.918,0.166,7.876,0.643,11.779
						c0.174,1.423,0.5,2.817,0.031,4.344c-0.35,1.167,1.195,2.697,2.742,3.147c0.287-1.134-0.355-2.131-0.418-3.217
						c-0.186-3.04,0.137-6.093-0.121-9.115c-0.412-4.807-1.035-9.588-1.064-14.459c-0.059-8.812-0.609-17.637-1.129-26.482
						c-0.309-5.371-0.84-10.74-1.254-16.125c-0.188-2.473-0.109-4.983-0.287-7.438c-0.221-3.049-0.23-6.106-0.365-9.16
						c-0.092-2.185,0.256-4.396,0.348-6.6c0.273-6.59,0.127-13.188,0.188-19.805c0.098-11.041-0.395-22.107-0.061-33.24
						c0.086-2.653-0.146-5.289-0.48-7.893c-0.799-6.175-0.371-12.444-0.861-18.668C287.07,94.726,287.412,92.385,287.398,90.104z"/>
				</g>
				<path fill="#006283" d="M293.736,340.952c0.035-1.518-0.451-3.106,0.957-4.498c0.246-0.238,0.059-0.498-0.5-0.552
					c-0.492-0.047-0.48-0.272-0.408-0.483c0.039-0.127,0.221-0.213,0.457-0.171c0.379,0.07-0.004,0.422,0.494,0.479
					c0.137-0.445,0.318-0.873,0.062-1.36c-0.137-0.26-0.248-0.706,0.156-0.824c1.115-0.336,0.746-0.907,0.328-1.262
					c-0.801-0.671-0.02-1.66-1.391-2.193c-0.23-0.089-0.107-0.421,0.266-0.528c0.332-0.095,0.572-0.18,0.447-0.464
					c-0.248-0.552,0.006-1.104-0.027-1.66c-0.08-1.242-0.305-2.535,0.295-3.715c0.436-0.851,0.314-1.596-0.076-2.406
					c-0.137-0.28-0.146-0.59-0.205-0.886c-0.211-1.175,0.365-2.273,0.502-3.394c0.297-2.493,0.25-5.032-0.078-7.541
					c-0.389-2.941-0.602-5.892-0.961-8.841l-10.777,3.946c-0.375,2.203-0.301,4.398-0.209,6.607
					c0.174,4.056,0.443,8.105-0.002,12.142c-0.324,2.915-0.281,5.854-0.635,8.762c-0.451,3.758-0.457,7.52-0.477,11.279
					L293.736,340.952z"/>
				<path fill="#006283" d="M56.373,389.335c0.375,0.012,0.744-0.013,1.12-0.071c1.097-0.163,2.191-0.48,3.29-0.49
					c0.787-0.006,1.57-0.193,2.357,0.039c0.438,0.134,0.874-0.302,1.325-0.237c2.48,0.362,4.954,1.046,7.45,0.986
					c2.763-0.068,5.518,0.161,8.283-0.412c1.027-0.212,2.055-0.073,3.083-0.443c-0.854-0.299-1.724-0.204-2.568-0.712
					c-0.101-0.061-0.186-0.051-0.262,0.15c-0.23,0.626-0.52,0.479-0.734,0.253c-0.352-0.366-0.667-0.428-1.011,0.101
					c-0.13,0.202-0.293,0.221-0.341-0.311c-0.05-0.576,0.085-0.894,0.258-1.089c0.019-0.024,0.054-0.059,0.067-0.032
					c0.573,0.996,1.175-0.338,1.758-0.033c0.28,0.146,0.724-0.92,0.774-1.773c0.027-0.542-0.085-0.72-0.254-0.688
					c-0.896,0.174-1.79,0.229-2.678-0.146c-0.159-0.068-0.333,0.029-0.474-0.264c-0.049-0.103-0.097-0.338-0.091-0.49
					c0.011-0.165,0.081-0.385,0.137-0.429c0.112-0.084,0.233-0.083,0.35-0.09c0.581-0.043,0.578-0.037,0.788-1.664
					c0.034-0.262,0.087-0.506,0.129-0.757c-0.232-0.029-0.465-0.14-0.696-0.076c-1.465,0.397-2.934,0.564-4.398,0.544
					c-0.588,0.652-1.184,0.231-1.767,0.125c-0.271-0.044-0.491-0.098-0.66,0.61c0,0.005,0.002,0.013,0.002,0.021l0,0l0,0
					c0,0.017,0.003,0.033,0.003,0.049c0.151,0.208,0.204,0.531,0.13,1.068c-0.048,0.348-0.072,0.755,0.057,1.027
					c0.021-0.023,0.041-0.051,0.066-0.094c0.004-0.003,0.005-0.003,0.005-0.003c0.6-1.214,1.249-1.141,1.888-0.623
					c0.374,0.312,0.724,0.472,1.09-0.049c0.18-0.256,0.356-0.351,0.539-0.045c0.195,0.326,0.403,0.306,0.605,0.004
					c0.459-0.693,0.784-0.04,1.243,1.062c-1.929,0.949-3.673-0.153-5.425-0.231c-0.003,0.009-0.003,0.009-0.003,0.012
					c0.063,1.144-0.065,2.12-0.321,2.944c-0.635-0.592-0.635-2.417-0.805-3.882c-0.104-0.876,0.138-1.064,0.359-1.093
					c0.188-0.023,0.381,0.562,0.562-0.12c-0.006-0.005-0.006-0.005-0.01-0.007c0.004-0.011,0.01-0.02,0.013-0.027
					c-0.195-0.391-0.415-0.699-0.497-1.436c-0.058-0.098-0.128-0.326-0.163-0.277c-0.676,0.928-1.371,0.473-2.055,0.428
					c-0.889-0.058-1.768-0.586-2.656-0.485c-1.196,0.138-2.383,0.342-3.564-0.083c-0.164-0.059-0.33-0.034-0.492-0.075
					c-0.907-0.264-1.845,1.003-2.733-0.248c-0.051-0.077-0.137,0.062-0.207,0.036c-0.385-0.145-0.781-0.04-1.159,0.007
					c-1.48,0.201-2.965,0.344-4.449,0.485c-1.283,0.125-2.563,0.652-3.85,0.356c-0.522,0.418-1.047,0.174-1.567,0.056l-0.005,0.003
					c0.225,0.638,0.534,0.591,0.805,0.868c0.396,0.416,0.909-0.014,1.169,1.381c0.253-0.263,0.502,0.372,0.722,0.171
					c0.397-0.369,0.718,0.041,1.079,0.308c0.601,0.439,1.223,0.488,1.842,0.605c0.548,0.103,1.09,0.354,1.709,0.563
					c-0.208,0.909-0.431,0.519-0.602,0.593c-0.535,0.223-1.128-0.562-1.597,0.899c-0.063,0.198-0.194,0.146-0.243-0.125
					c-0.089-0.461,0.121-0.693,0.127-1.288c-0.512-0.203-1.024-0.174-1.49,0.614c-0.243,0.394-0.443,0.384-0.655-0.007
					c-0.092-0.168-0.159-0.638-0.285-0.399c-0.42,0.777-0.948,0.187-1.307,0.748c-0.365,0.583-0.725,0.527-1.078,0.851
					c-0.126,0.106-0.227-0.091-0.324-0.284c-0.032,0.291-0.123,0.488-0.206,0.476c-0.349-0.068-0.536,0.383-0.558,1.429
					c2.797,0.501,5.598,1.001,8.397,1.502C55.911,388.993,56.153,389.325,56.373,389.335z M63.724,387.156
					c-0.042-0.119-0.053-0.339-0.08-0.514c0.492-0.354,0.082-1.326,0.165-1.824c0.119-0.745,0.397-1.265,0.538-2.102
					c0.067-0.398,0.337-0.225,0.483-0.597c0.028-0.067,0.17,0.056,0.182,0.169c0.189,1.831,0.697,0.21,1.004,0.729
					c0.589-0.885,1.194,0.204,1.79-0.312c0.039-0.034,0.094,0.027,0.134,0.083c0.488,0.701,0.488,0.701,0.874-0.578
					c0.29,0.718,0.566,1.34,0.818,2.036c0.129,0.371,0.266,0.739-0.089,1.06c-0.396,0.356-0.753,0.305-1.144,0.168
					c-0.81-0.28-1.62,0.24-2.43,0.32c-0.284,0.024-0.567,0.183-0.842,0.09c-0.342-0.117-0.545,0.055-0.714,1.104
					C64.257,387.94,63.997,387.912,63.724,387.156z"/>
				<path fill="#006283" d="M48.08,386.212L48.08,386.212c-0.176-0.192-0.362-0.161-0.547-0.173
					c-0.699-0.054-1.374,0.596-2.062,0.718c-1.456,0.261-2.91,0.146-4.362-0.159c-0.137-0.031-0.281-0.107-0.366,0.346
					c2.189,0.392,4.377,0.782,6.573,1.173C47.097,385.795,47.816,386.809,48.08,386.212z"/>
				<path fill="#006283" d="M78.269,383.8c0.396,0.097,0.784,0.467,1.185,0.384s0.796-0.181,1.193-0.037
					c0.281,0.101,0.697-0.311,0.684,1.077c-0.012,1.13-0.271,1.987-0.669,2.155c-0.405,0.172-0.812,0.387-1.135,0.452
					c0.881-0.008,1.943-0.403,2.984,0.158c0.269,0.144,0.574-0.052,0.771,0.717c1.143,0.167,2.287,0.391,3.435,0.492
					c1.479,0.127,2.964,0.026,4.433,0.504c0.577,0.183,1.169,0.136,1.759,0.111c1.88-0.082,3.768-0.188,5.645-0.018
					c1.699,0.156,3.387-0.31,5.083-0.812c1.528-0.457,3.065-0.957,4.6-1.05c1.058-0.063,2.117-0.269,3.177-0.405
					c1.104-0.146,2.219-0.61,3.312,0.015c0.143,0.08,0.283,0.053,0.416-0.143c0.403-0.578,0.837-0.635,1.258-0.774
					c0.382-0.123,0.751-0.44,1.115-0.801c0.261-0.26,0.346-1.229,0.146-1.432c-0.363-0.369-0.622-1.382-0.992-1.502
					c-0.956-0.313-1.909-0.651-2.856-1.083c-0.16-0.069-0.336-0.081-0.494,0.031c-0.501,0.348-0.991,0.181-1.487,0.109
					c-1.125-0.148-2.242-0.461-3.365-0.767c-1.758-0.472-3.536,0.11-5.307,0.333c-1.249,0.155-2.5,0.473-3.742-0.013
					c-0.347-0.14-0.704-0.194-1.055-0.117c-1.536,0.334-3.071,0.406-4.594,0.302c-0.987-0.067-1.966-0.514-2.948-0.639
					c-1.898-0.24-3.803-0.403-5.707-0.54c-1.989-0.148-3.982-0.507-5.98,0.223C79.122,382.965,79.033,383.271,78.269,383.8z"/>
				<path fill="#006283" d="M78.213,383.152c-0.116,0.007-0.237,0.006-0.35,0.09c-0.056,0.044-0.126,0.264-0.137,0.429
					c-0.006,0.152,0.042,0.388,0.091,0.49c0.141,0.293,0.314,0.195,0.474,0.264c0.888,0.375,1.782,0.32,2.678,0.146
					c0.169-0.031,0.281,0.146,0.254,0.688c-0.051,0.854-0.494,1.92-0.774,1.773c-0.583-0.305-1.185,1.029-1.758,0.033
					c-0.014-0.026-0.049,0.008-0.067,0.032c-0.173,0.195-0.308,0.513-0.258,1.089c0.048,0.531,0.211,0.513,0.341,0.311
					c0.344-0.528,0.659-0.467,1.011-0.101c0.215,0.227,0.504,0.373,0.734-0.253c0.076-0.201,0.161-0.211,0.262-0.15
					c0.845,0.508,1.714,0.413,2.568,0.712c-0.196-0.769-0.502-0.573-0.771-0.717c-1.041-0.562-2.104-0.166-2.984-0.158
					c-0.161,0.029-0.303,0.029-0.414-0.029c0.133,0.021,0.27,0.031,0.414,0.029c0.323-0.065,0.729-0.28,1.135-0.452
					c0.398-0.168,0.657-1.025,0.669-2.155c0.014-1.388-0.402-0.977-0.684-1.077c-0.397-0.144-0.793-0.046-1.193,0.037
					s-0.788-0.287-1.185-0.384c0.764-0.529,0.853-0.835,0.861-3.068c-0.042,0.251-0.095,0.495-0.129,0.757
					C78.792,383.115,78.794,383.109,78.213,383.152z"/>
				<path fill="#006283" d="M64.415,386.988c0.169-1.049,0.372-1.221,0.714-1.104c0.274,0.093,0.558-0.065,0.842-0.09
					c0.81-0.08,1.62-0.601,2.43-0.32c0.391,0.137,0.748,0.188,1.144-0.168c0.354-0.32,0.218-0.688,0.089-1.06
					c-0.252-0.696-0.528-1.318-0.818-2.036c-0.386,1.279-0.386,1.279-0.874,0.578c-0.04-0.056-0.095-0.117-0.134-0.083
					c-0.596,0.516-1.201-0.573-1.79,0.312c-0.307-0.519-0.814,1.103-1.004-0.729c-0.012-0.113-0.153-0.236-0.182-0.169
					c-0.146,0.372-0.416,0.198-0.483,0.597c-0.141,0.837-0.419,1.356-0.538,2.102c-0.083,0.498,0.327,1.471-0.165,1.824
					c0.027,0.175,0.038,0.395,0.08,0.514C63.997,387.912,64.257,387.94,64.415,386.988z"/>
				<path fill="#006283" d="M109.464,387.339c0.028-2.401,0.235-4.791,0.772-7.147c0.135-0.584,0.009-1.158-0.247-1.759
					c-0.586-1.354-0.946-2.71-0.847-4.076c0.107-1.394-0.148-2.81-0.513-4.233c-0.285-1.115-0.396-2.231-0.818-3.347
					c-0.247-0.665-0.37-1.338-0.734-1.996c-0.361-0.647-0.377-1.282-0.311-1.92c0.17-1.665,0.451-3.317,0.382-5.01
					c-0.065-1.606,0.188-3.198,0.31-4.798c0.016-0.246,0.132-0.483-0.01-0.742c0.066-1.491-0.121-2.998-0.297-4.498
					c-0.051-0.463,0.188-0.928-0.222-1.393c0.004-0.451,0.111-0.896-0.18-1.354c-0.127-0.077-0.246-0.168-0.249-0.272
					c-0.08-1.824-0.174-3.653,1.62-5.165c0.479-0.404,0.982-0.502,1.812-0.157c0.629,0.264,1.269,0.491,1.611,0.87
					c-0.049-2.173,0.405-4.309,1.032-6.427l5.304,5.117c-0.353,1.66-0.223,3.364,0.026,5.063c0.13,0.881,0.068,1.745,0.156,2.622
					c0.214,2.148,0.32,4.288,0.354,6.423c0.02,1.392-0.244,2.749-1.117,4.007c-0.235,0.337-0.289,0.699-0.297,1.074
					c-0.063,3.088-0.322,6.162-0.269,9.257c0.021,1.017,0.424,2.034,0.599,3.055c0.272,1.571,0.314,3.12,0.239,4.671
					c-0.023,0.522-0.164,1.047,0.35,1.588c0.199,0.199,0.046,0.419-0.049,0.631c-0.318,0.74-0.592,1.484-0.499,2.285
					c0.076,0.673-0.114,1.313-0.478,1.929c-0.312,0.522-0.297,1.093-0.432,1.641L109.464,387.339z"/>
			</g>
		</g>
	</g>
	<g>
		<g>
			<path fill="#FFFFFF" d="M93.663,80.058V68.34h7.263v30.438h-7.263V86.777H80.857v12.001h-7.263V68.34h7.263v11.718H93.663z"/>
			<path fill="#FFFFFF" d="M126.563,88.104c0,0.694-0.042,1.651-0.13,2.109h-14.461c0.589,2.347,2.223,3.414,4.568,3.414
				c1.587,0,3.284-0.653,4.651-1.87l4.395,4.089c-2.239,2.239-5.413,3.499-9.396,3.499c-6.693,0-11.239-4.457-11.239-11.108
				c0-6.699,4.435-11.375,10.938-11.375C122.217,76.861,126.563,81.43,126.563,88.104z M111.998,85.909h7.761
				c-0.546-2.151-1.847-3.263-3.845-3.263C113.801,82.646,112.52,83.799,111.998,85.909z"/>
			<path fill="#FFFFFF" d="M139.33,83.473v6.24c0,2.456,1.307,3.283,3.024,3.283c1.284,0,2.632-0.695,3.694-1.327l2.351,5.308
				c-2.024,1.367-4.112,2.368-7.566,2.368c-5.742,0-8.31-3.438-8.31-8.764v-7.108h-3.976V77.45h3.976v-6.218h6.807v6.218h7.284
				v6.022H139.33z"/>
		</g>
		<g>
			<path fill="#FFFFFF" d="M80.857,130.639v11.633h-7.263v-30.437h23.003v6.542h-15.74v5.697h14.696v6.564H80.857z"/>
			<path fill="#FFFFFF" d="M108.082,114.376c0,2.264-1.782,4.043-4.062,4.043c-2.31,0-4.068-1.779-4.068-4.043
				c0-2.305,1.759-4.084,4.068-4.084C106.299,110.292,108.082,112.071,108.082,114.376z M100.647,142.271v-21.326h6.804v21.326
				H100.647z"/>
			<path fill="#FFFFFF" d="M112.217,142.271v-31.306h6.802v31.306H112.217z"/>
			<path fill="#FFFFFF" d="M131.217,114.376c0,2.264-1.782,4.043-4.063,4.043c-2.305,0-4.066-1.779-4.066-4.043
				c0-2.305,1.762-4.084,4.066-4.084C129.435,110.292,131.217,112.071,131.217,114.376z M123.783,142.271v-21.326h6.807v21.326
				H123.783z"/>
		</g>
		<g>
			<path fill="#FFFFFF" d="M149.767,142.271v-2.303c-1.305,1.673-3.236,2.871-6.129,2.871c-5.676,0-9.915-4.936-9.915-11.264
				c0-6.263,4.217-11.221,9.937-11.221c2.871,0,4.824,1.219,6.107,2.893v-2.303h6.59v21.326H149.767z M140.723,131.596
				c0,2.784,1.826,4.895,4.544,4.895c2.674,0,4.566-2.067,4.566-4.895c0-2.825-1.893-4.891-4.566-4.891
				C142.549,126.705,140.723,128.812,140.723,131.596z"/>
			<path fill="#FFFFFF" d="M176.041,142.271v-2.303c-1.307,1.673-3.24,2.871-6.135,2.871c-5.675,0-9.912-4.936-9.912-11.264
				c0-6.263,4.216-11.221,9.936-11.221c2.871,0,4.827,1.219,6.111,2.893v-2.303h6.587v21.326H176.041z M166.995,131.596
				c0,2.784,1.826,4.895,4.541,4.895c2.675,0,4.567-2.067,4.567-4.895c0-2.825-1.893-4.891-4.567-4.891
				C168.821,126.705,166.995,128.812,166.995,131.596z"/>
		</g>
		<g>
			<path fill="#FFFFFF" d="M187.48,142.271v-31.306h6.807v31.306H187.48z"/>
		</g>
		<g>
			<path fill="#FFFFFF" d="M82.334,170.458v6.241c0,2.456,1.306,3.282,3.024,3.282c1.279,0,2.627-0.695,3.695-1.327l2.349,5.307
				c-2.022,1.369-4.11,2.369-7.568,2.369c-5.741,0-8.306-3.436-8.306-8.763v-7.109h-3.979v-6.021h3.979v-6.219h6.806v6.219h7.282
				v6.021H82.334z"/>
			<path fill="#FFFFFF" d="M106.949,163.848c4.263,0,7.568,2.979,7.568,7.916v14h-6.807v-11.588c0-2.543-1.26-3.936-3.369-3.936
				c-1.893,0-3.455,1.263-3.455,4.046v11.478h-6.809v-31.329h6.809v12.241C102.253,164.738,104.278,163.848,106.949,163.848z"/>
			<path fill="#FFFFFF" d="M139.635,175.09c0,0.696-0.045,1.652-0.13,2.108h-14.461c0.59,2.348,2.218,3.415,4.567,3.415
				c1.585,0,3.281-0.653,4.653-1.872l4.387,4.09c-2.234,2.238-5.409,3.499-9.388,3.499c-6.698,0-11.243-4.456-11.243-11.107
				c0-6.699,4.436-11.375,10.937-11.375C135.287,163.848,139.635,168.414,139.635,175.09z M125.069,172.895h7.761
				c-0.544-2.152-1.848-3.261-3.852-3.261C126.868,169.634,125.588,170.785,125.069,172.895z"/>
			<path fill="#FFFFFF" d="M158.208,185.764v-2.302c-1.308,1.671-3.245,2.868-6.133,2.868c-5.677,0-9.915-4.935-9.915-11.261
				c0-6.262,4.218-11.222,9.937-11.222c2.866,0,4.827,1.22,6.111,2.893v-2.303h6.584v21.326H158.208z M149.158,175.09
				c0,2.783,1.83,4.892,4.551,4.892c2.671,0,4.563-2.062,4.563-4.892c0-2.828-1.893-4.891-4.563-4.891
				C150.988,170.199,149.158,172.307,149.158,175.09z"/>
			<path fill="#FFFFFF" d="M178.669,170.458v6.241c0,2.456,1.307,3.282,3.021,3.282c1.284,0,2.632-0.695,3.696-1.327l2.35,5.307
				c-2.022,1.369-4.109,2.369-7.564,2.369c-5.742,0-8.309-3.436-8.309-8.763v-7.109h-3.977v-6.021h3.977v-6.219h6.807v6.219h7.283
				v6.021H178.669z"/>
			<path fill="#FFFFFF" d="M210.896,175.09c0,0.696-0.045,1.652-0.132,2.108h-14.459c0.59,2.348,2.222,3.415,4.565,3.415
				c1.591,0,3.285-0.653,4.657-1.872l4.388,4.09c-2.234,2.238-5.413,3.499-9.391,3.499c-6.694,0-11.242-4.456-11.242-11.107
				c0-6.699,4.438-11.375,10.939-11.375C206.546,163.848,210.896,168.414,210.896,175.09z M196.326,172.895h7.764
				c-0.542-2.152-1.846-3.261-3.848-3.261C198.132,169.634,196.851,170.785,196.326,172.895z"/>
		</g>
		<g>
			<path fill="#FFFFFF" d="M229.273,164.175l-0.63,6.786c-0.936-0.327-2.197-0.569-3.416-0.569c-2.433,0-3.89,1.175-3.89,3.851
				v11.521h-6.804v-21.326h6.522v2.453c1.238-2.085,3.194-3.043,5.828-3.043C227.903,163.848,228.75,164.023,229.273,164.175z"/>
		</g>
		<g>
			<path fill="#FFFFFF" d="M107.315,215.258v14h-6.805v-11.59c0-2.542-1.239-3.933-3.392-3.933c-1.869,0-3.456,1.26-3.456,4.043
				v11.479h-6.806v-11.59c0-2.542-1.261-3.933-3.369-3.933c-1.893,0-3.458,1.26-3.458,4.043v11.479h-6.807v-21.329h6.525v2.676
				c1.365-2.261,3.479-3.263,6.346-3.263c2.808,0,5.195,1.282,6.501,3.567c1.458-2.46,3.804-3.567,6.766-3.567
				C104.231,207.342,107.315,210.32,107.315,215.258z"/>
			<path fill="#FFFFFF" d="M126.868,229.258v-2.304c-1.306,1.674-3.238,2.871-6.13,2.871c-5.674,0-9.915-4.938-9.915-11.265
				c0-6.262,4.219-11.219,9.937-11.219c2.87,0,4.829,1.219,6.108,2.892v-2.305h6.59v21.329H126.868z M117.823,218.583
				c0,2.783,1.828,4.894,4.546,4.894c2.676,0,4.565-2.068,4.565-4.894c0-2.827-1.89-4.891-4.565-4.891
				C119.651,213.692,117.823,215.8,117.823,218.583z"/>
		</g>
		<g>
			<path fill="#FFFFFF" d="M146.769,214.995l5.045-7.066h8.24l-7.895,10.067l7.915,11.262h-8.216l-5.262-8.24h-1.457v8.24h-6.807
				V197.95h6.807v17.045H146.769z"/>
			<path fill="#FFFFFF" d="M182.844,218.583c0,0.694-0.044,1.653-0.13,2.11h-14.461c0.59,2.346,2.217,3.412,4.569,3.412
				c1.584,0,3.28-0.65,4.653-1.87l4.392,4.088c-2.241,2.239-5.417,3.502-9.395,3.502c-6.698,0-11.242-4.458-11.242-11.11
				c0-6.698,4.438-11.373,10.938-11.373C178.497,207.342,182.844,211.908,182.844,218.583z M168.274,216.387h7.767
				c-0.547-2.15-1.854-3.261-3.851-3.261C170.08,213.126,168.798,214.276,168.274,216.387z"/>
		</g>
		<g>
			<path fill="#FFFFFF" d="M200.44,207.668l-0.633,6.783c-0.938-0.326-2.196-0.563-3.417-0.563c-2.43,0-3.888,1.173-3.888,3.848
				v11.522h-6.806v-21.329h6.522v2.457c1.238-2.089,3.196-3.044,5.825-3.044C199.068,207.342,199.915,207.514,200.44,207.668z"/>
			<path fill="#FFFFFF" d="M212.574,212.844c-1.803,0-2.482,0.521-2.482,1.306c0,0.911,1.351,1.108,3.438,1.456l1.566,0.238
				c4.59,0.695,6.98,2.848,6.98,6.479c0,4.671-3.655,7.48-9.873,7.48c-3.65,0-7.414-0.675-9.85-2.243l2.37-5.26
				c2.153,1.282,4.542,1.997,7.524,1.997c2.107,0,2.975-0.454,2.975-1.388c0-0.802-0.953-1.151-3.365-1.522l-1.241-0.173
				c-5.154-0.762-7.523-2.87-7.523-6.719c0-4.521,3.39-7.132,9.223-7.132c3.453,0,5.67,0.477,9.173,1.825l-1.896,5.307
				C217.509,213.627,214.747,212.844,212.574,212.844z"/>
		</g>
	</g>
</g>
</svg>
