<?xml version="1.0" encoding="utf-8"?>
<!-- Generator: Adobe Illustrator 24.3.0, SVG Export Plug-In . SVG Version: 6.00 Build 0)  -->
<svg version="1.1" id="Laag_1" xmlns="http://www.w3.org/2000/svg" xmlns:xlink="http://www.w3.org/1999/xlink" x="0px" y="0px"
	 width="202.9px" height="30px" viewBox="0 0 202.9 30" style="enable-background:new 0 0 202.9 30;" xml:space="preserve">
<style type="text/css">
	.st0{fill:#5F3A4E;}
	.st1{clip-path:url(#SVGID_1_);}
	.st2{fill:none;stroke:#FAE513;stroke-width:0.8038;stroke-miterlimit:10;}
	.st3{fill:#FFE500;}
</style>
<g>
	<g>
		<g>
			<path class="st0" d="M8.2,7.1h1.2l-1.7,7.1H6.2L4.8,8.9H4.7l-1.4,5.3H1.7L0,7.1h1.2l1.3,5.8h0.1L4,7.6h1.5l1.4,5.3H7L8.2,7.1z"/>
			<path class="st0" d="M13.6,14.3c-1,0-1.9-0.3-2.6-1s-1-1.6-1-2.6c0-1,0.3-1.9,1-2.6s1.5-1,2.6-1c1,0,1.9,0.3,2.6,1s1,1.6,1,2.6
				c0,1.1-0.3,1.9-1,2.6S14.6,14.3,13.6,14.3z M13.5,13.2c0.7,0,1.2-0.2,1.7-0.7s0.6-1.1,0.6-1.8c0-0.7-0.2-1.3-0.7-1.8
				c-0.4-0.5-1-0.7-1.7-0.7s-1.2,0.2-1.7,0.7c-0.4,0.5-0.6,1.1-0.6,1.8c0,0.7,0.2,1.3,0.6,1.8C12.3,13,12.9,13.2,13.5,13.2z"/>
			<path class="st0" d="M25.4,10.5c-1.3,0.9-2,1.7-2.1,2.5h4.3v1.2h-5.9v-0.5c0-1.5,0.8-2.8,2.5-3.8c0.9-0.6,1.5-1,1.7-1.2
				c0.3-0.3,0.5-0.7,0.5-1c0-0.4-0.1-0.8-0.4-1c-0.3-0.3-0.7-0.4-1.1-0.4c-0.6,0-1,0.2-1.3,0.6s-0.4,0.8-0.5,1.4h-1.3
				c0-0.5,0.1-1,0.3-1.4c0.2-0.4,0.5-0.8,1-1.2S24.2,5,24.9,5c0.8,0,1.5,0.2,2.1,0.7c0.5,0.5,0.8,1.1,0.8,1.9c0,0.6-0.2,1.2-0.6,1.6
				C26.8,9.5,26.2,10,25.4,10.5z"/>
			<path class="st0" d="M33.4,9.4c0.5,0.2,0.9,0.4,1.1,0.8c0.3,0.4,0.4,0.9,0.4,1.4c0,0.8-0.3,1.4-0.8,1.9s-1.3,0.7-2.2,0.7
				c-1,0-1.7-0.3-2.2-0.8s-0.8-1.2-0.9-2h1.2c0,0.5,0.2,0.8,0.5,1.2s0.7,0.5,1.3,0.5c0.5,0,0.9-0.1,1.3-0.4s0.5-0.7,0.5-1.2
				c0-0.5-0.2-0.9-0.5-1.2c-0.3-0.3-0.8-0.5-1.3-0.5h-0.5V8.8h0.5c0.5,0,0.8-0.1,1.1-0.4c0.3-0.3,0.4-0.6,0.4-1c0-0.4-0.1-0.7-0.4-1
				S32.4,6.1,32,6.1c-0.4,0-0.8,0.1-1.1,0.4c-0.3,0.2-0.4,0.6-0.5,1h-1.2c0-0.7,0.3-1.3,0.8-1.8C30.5,5.2,31.2,5,32,5
				c0.8,0,1.4,0.2,1.9,0.7s0.7,1,0.7,1.7C34.6,8.2,34.2,8.9,33.4,9.4L33.4,9.4z"/>
			<path class="st0" d="M5.5,25.4c0,0.6-0.2,1.1-0.7,1.4c-0.5,0.3-1.1,0.5-1.8,0.5c-0.8,0-1.5-0.2-2-0.7s-0.8-1-0.8-1.7h1.2
				c0,0.5,0.2,0.8,0.5,1.1c0.3,0.2,0.7,0.4,1.1,0.4c0.4,0,0.7-0.1,0.9-0.3c0.2-0.2,0.4-0.4,0.4-0.7c0-0.3-0.1-0.6-0.4-0.8
				c-0.3-0.2-0.7-0.4-1.2-0.5c-0.3-0.1-0.6-0.2-0.8-0.3s-0.5-0.2-0.7-0.4c-0.2-0.2-0.4-0.4-0.5-0.6S0.4,22.3,0.4,22
				c0-0.6,0.2-1.1,0.7-1.4s1-0.5,1.8-0.5c0.7,0,1.3,0.2,1.8,0.6s0.7,0.9,0.7,1.5H4.2c0-0.3-0.2-0.6-0.4-0.8S3.2,21,2.8,21
				c-0.3,0-0.6,0.1-0.8,0.2c-0.2,0.2-0.3,0.4-0.3,0.7c0,0.3,0.1,0.5,0.4,0.7c0.2,0.2,0.6,0.4,1.1,0.5c0.8,0.2,1.3,0.5,1.8,0.9
				C5.3,24.3,5.5,24.8,5.5,25.4z"/>
			<path class="st0" d="M9.7,20c1,0,1.8,0.3,2.4,1c0.6,0.7,0.9,1.6,0.8,2.9H7.6c0,0.7,0.3,1.3,0.6,1.7c0.4,0.4,0.9,0.6,1.6,0.6
				c0.4,0,0.8-0.1,1.1-0.3s0.6-0.5,0.7-0.8h1.2c-0.2,0.7-0.6,1.2-1.1,1.6c-0.6,0.4-1.2,0.6-2,0.6c-1.1,0-1.9-0.3-2.5-1
				c-0.6-0.7-0.9-1.6-0.9-2.7c0-1.1,0.3-1.9,1-2.6C8,20.3,8.8,20,9.7,20z M7.6,23h4.1c0-0.5-0.2-1-0.6-1.4c-0.4-0.4-0.8-0.6-1.4-0.6
				c-0.6,0-1,0.2-1.4,0.5C8,21.9,7.7,22.4,7.6,23z"/>
			<path class="st0" d="M17.8,20c0.9,0,1.7,0.3,2.3,1c0.6,0.7,0.9,1.6,0.9,2.6s-0.3,2-0.9,2.6c-0.6,0.7-1.4,1-2.3,1
				c-1.1,0-1.8-0.4-2.2-1.2V30h-1.2v-9.9h0.9l0.2,1h0.1C16.1,20.4,16.8,20,17.8,20z M17.6,26.2c0.6,0,1.2-0.2,1.6-0.7
				s0.6-1.1,0.6-1.8s-0.2-1.4-0.6-1.8c-0.4-0.5-0.9-0.7-1.6-0.7c-0.6,0-1.1,0.2-1.5,0.7c-0.4,0.5-0.6,1.1-0.6,1.8
				c0,0.8,0.2,1.4,0.6,1.8C16.5,26,17,26.2,17.6,26.2z"/>
		</g>
	</g>
	<g>
		<g>
			<path class="st0" d="M169.7,13.3h3.6v1.1H168v-0.8l3.6-5.1V8.4h-3.4V7.3h5.1v0.8L169.7,13.3L169.7,13.3z"/>
			<path class="st0" d="M180.9,13.2l0.5,0.8c-0.1,0.1-0.2,0.3-0.4,0.4c-0.2,0.1-0.4,0.2-0.6,0.2c-0.4,0-0.7-0.1-0.9-0.3
				c-0.2-0.2-0.4-0.4-0.4-0.8c-0.6,0.7-1.4,1.1-2.4,1.1c-0.7,0-1.3-0.2-1.7-0.5c-0.4-0.3-0.7-0.8-0.7-1.5c0-0.7,0.3-1.3,0.8-1.6
				c0.6-0.4,1.3-0.6,2.4-0.7l1.3-0.1V9.9c0-0.5-0.1-1-0.4-1.3c-0.3-0.3-0.6-0.5-1.1-0.5c-0.5,0-0.8,0.1-1.1,0.4
				c-0.3,0.3-0.4,0.6-0.5,1h-1.2c0.1-0.7,0.3-1.3,0.8-1.7s1.1-0.7,1.9-0.7c0.8,0,1.5,0.2,2,0.7S180,9.1,180,10v2.7
				c0,0.5,0.2,0.8,0.5,0.8C180.6,13.5,180.8,13.4,180.9,13.2z M176.8,13.5c0.5,0,1-0.2,1.4-0.5c0.4-0.3,0.6-0.8,0.6-1.5V11l-1.2,0.1
				c-0.7,0.1-1.2,0.2-1.6,0.4c-0.4,0.2-0.6,0.5-0.6,0.9c0,0.3,0.1,0.6,0.4,0.8C176.1,13.4,176.4,13.5,176.8,13.5z"/>
			<path class="st0" d="M188.7,10.7c-1.3,0.9-2,1.7-2.1,2.5h4.3v1.2H185v-0.5c0-1.5,0.8-2.8,2.5-3.8c0.9-0.6,1.5-1,1.7-1.2
				c0.3-0.3,0.5-0.7,0.5-1c0-0.4-0.1-0.8-0.4-1c-0.3-0.3-0.7-0.4-1.1-0.4c-0.6,0-1,0.2-1.3,0.6s-0.4,0.8-0.5,1.4h-1.3
				c0-0.5,0.1-1,0.3-1.4c0.2-0.4,0.5-0.8,1-1.2s1.1-0.5,1.7-0.5c0.8,0,1.5,0.2,2.1,0.7c0.5,0.5,0.8,1.1,0.8,1.9
				c0,0.6-0.2,1.2-0.6,1.6C190,9.8,189.5,10.2,188.7,10.7z"/>
			<path class="st0" d="M198,13.3c-0.6,0.8-1.4,1.2-2.4,1.2s-1.8-0.4-2.4-1.2c-0.6-0.8-0.9-2-0.9-3.5c0-1.5,0.3-2.7,0.9-3.5
				c0.6-0.8,1.4-1.2,2.4-1.2s1.8,0.4,2.4,1.2c0.6,0.8,0.9,2,0.9,3.5C198.9,11.4,198.6,12.6,198,13.3z M194.2,12.5
				c0.3,0.6,0.8,0.9,1.4,0.9s1.1-0.3,1.4-0.9c0.3-0.6,0.5-1.4,0.5-2.6s-0.2-2-0.5-2.6c-0.4-0.6-0.8-0.9-1.4-0.9
				c-0.6,0-1.1,0.3-1.4,0.9c-0.3,0.6-0.5,1.4-0.5,2.6S193.9,11.9,194.2,12.5z"/>
			<path class="st0" d="M181.1,20.2c0.8,0,1.4,0.3,1.9,0.8s0.7,1.3,0.7,2.2v4.2h-1.3v-4c0-0.7-0.2-1.2-0.5-1.5
				c-0.3-0.4-0.7-0.5-1.3-0.5c-0.5,0-0.9,0.2-1.2,0.5c-0.3,0.3-0.5,0.8-0.5,1.5v4.1h-1.3v-7.1h1l0.2,0.9h0.1
				C179.4,20.6,180.1,20.2,181.1,20.2z"/>
			<path class="st0" d="M188.5,27.6c-1,0-1.9-0.3-2.6-1s-1-1.6-1-2.6c0-1,0.3-1.9,1-2.6s1.5-1,2.6-1c1,0,1.9,0.3,2.6,1s1,1.6,1,2.6
				c0,1.1-0.3,1.9-1,2.6S189.5,27.6,188.5,27.6z M188.4,26.4c0.7,0,1.2-0.2,1.7-0.7s0.6-1.1,0.6-1.8c0-0.7-0.2-1.3-0.7-1.8
				c-0.4-0.5-1-0.7-1.7-0.7s-1.2,0.2-1.7,0.7c-0.4,0.5-0.6,1.1-0.6,1.8c0,0.7,0.2,1.3,0.6,1.8C187.2,26.2,187.8,26.4,188.4,26.4z"/>
			<path class="st0" d="M198,20.4h1.3l-2.6,7.1H195l-2.6-7.1h1.3l2.1,5.9h0.1L198,20.4z"/>
		</g>
	</g>
	<rect x="39.8" y="9.6" class="st0" width="120.7" height="0.8"/>
</g>
<g>
	<defs>
		<rect id="SVGID_3_" x="19.1" width="183.8" height="6.9"/>
	</defs>
	<clipPath id="SVGID_1_">
		<use xlink:href="#SVGID_3_"  style="overflow:visible;"/>
	</clipPath>
	<g class="st1">
		<path class="st2" d="M43.8,6"/>
		<path class="st2" d="M171.5,6"/>
	</g>
	<g class="st1">
		<g>
			<g>
				<path class="st3" d="M11.2,4.1h1.2l-1.7,7.1H9.2L7.8,5.9H7.7l-1.4,5.3H4.7L3,4.1h1.2l1.3,5.8h0.1L7,4.6h1.5l1.4,5.3H10L11.2,4.1
					z"/>
				<path class="st3" d="M16.6,11.3c-1,0-1.9-0.3-2.6-1s-1-1.6-1-2.6c0-1,0.3-1.9,1-2.6s1.5-1,2.6-1c1,0,1.9,0.3,2.6,1s1,1.6,1,2.6
					c0,1.1-0.3,1.9-1,2.6S17.6,11.3,16.6,11.3z M16.5,10.2c0.7,0,1.2-0.2,1.7-0.7s0.6-1.1,0.6-1.8c0-0.7-0.2-1.3-0.7-1.8
					c-0.4-0.5-1-0.7-1.7-0.7s-1.2,0.2-1.7,0.7c-0.4,0.5-0.6,1.1-0.6,1.8c0,0.7,0.2,1.3,0.6,1.8C15.3,10,15.9,10.2,16.5,10.2z"/>
				<path class="st3" d="M28.4,7.5c-1.3,0.9-2,1.7-2.1,2.5h4.3v1.2h-5.9v-0.5c0-1.5,0.8-2.8,2.5-3.8c0.9-0.6,1.5-1,1.7-1.2
					c0.3-0.3,0.5-0.7,0.5-1c0-0.4-0.1-0.8-0.4-1c-0.3-0.3-0.7-0.4-1.1-0.4c-0.6,0-1,0.2-1.3,0.6s-0.4,0.8-0.5,1.4h-1.3
					c0-0.5,0.1-1,0.3-1.4c0.2-0.4,0.5-0.8,1-1.2S27.2,2,27.9,2c0.8,0,1.5,0.2,2.1,0.7c0.5,0.5,0.8,1.1,0.8,1.9
					c0,0.6-0.2,1.2-0.6,1.6C29.8,6.5,29.2,7,28.4,7.5z"/>
				<path class="st3" d="M36.4,6.4c0.5,0.2,0.9,0.4,1.1,0.8C37.8,7.6,38,8.1,38,8.6c0,0.8-0.3,1.4-0.8,1.9s-1.3,0.7-2.2,0.7
					c-1,0-1.7-0.3-2.2-0.8s-0.8-1.2-0.9-2h1.2c0,0.5,0.2,0.8,0.5,1.2s0.7,0.5,1.3,0.5c0.5,0,0.9-0.1,1.3-0.4s0.5-0.7,0.5-1.2
					c0-0.5-0.2-0.9-0.5-1.2c-0.3-0.3-0.8-0.5-1.3-0.5h-0.5V5.8h0.5c0.5,0,0.8-0.1,1.1-0.4c0.3-0.3,0.4-0.6,0.4-1
					c0-0.4-0.1-0.7-0.4-1S35.4,3.1,35,3.1c-0.4,0-0.8,0.1-1.1,0.4c-0.3,0.2-0.4,0.6-0.5,1h-1.2c0-0.7,0.3-1.3,0.8-1.8
					C33.5,2.2,34.2,2,35,2c0.8,0,1.4,0.2,1.9,0.7s0.7,1,0.7,1.7C37.6,5.2,37.2,5.9,36.4,6.4L36.4,6.4z"/>
				<path class="st3" d="M8.5,22.4c0,0.6-0.2,1.1-0.7,1.4c-0.5,0.3-1.1,0.5-1.8,0.5c-0.8,0-1.5-0.2-2-0.7s-0.8-1-0.8-1.7h1.2
					c0,0.5,0.2,0.8,0.5,1.1c0.3,0.2,0.7,0.4,1.1,0.4c0.4,0,0.7-0.1,0.9-0.3c0.2-0.2,0.4-0.4,0.4-0.7c0-0.3-0.1-0.6-0.4-0.8
					c-0.3-0.2-0.7-0.4-1.2-0.5c-0.3-0.1-0.6-0.2-0.8-0.3s-0.5-0.2-0.7-0.4c-0.2-0.2-0.4-0.4-0.5-0.6S3.4,19.3,3.4,19
					c0-0.6,0.2-1.1,0.7-1.4s1-0.5,1.8-0.5c0.7,0,1.3,0.2,1.8,0.6s0.7,0.9,0.7,1.5H7.2c0-0.3-0.2-0.6-0.4-0.8S6.2,18,5.8,18
					c-0.3,0-0.6,0.1-0.8,0.2c-0.2,0.2-0.3,0.4-0.3,0.7c0,0.3,0.1,0.5,0.4,0.7c0.2,0.2,0.6,0.4,1.1,0.5c0.8,0.2,1.3,0.5,1.8,0.9
					C8.3,21.3,8.5,21.8,8.5,22.4z"/>
				<path class="st3" d="M12.7,17c1,0,1.8,0.3,2.4,1c0.6,0.7,0.9,1.6,0.8,2.9h-5.4c0,0.7,0.3,1.3,0.6,1.7c0.4,0.4,0.9,0.6,1.6,0.6
					c0.4,0,0.8-0.1,1.1-0.3s0.6-0.5,0.7-0.8h1.2c-0.2,0.7-0.6,1.2-1.1,1.6c-0.6,0.4-1.2,0.6-2,0.6c-1.1,0-1.9-0.3-2.5-1
					c-0.6-0.7-0.9-1.6-0.9-2.7c0-1.1,0.3-1.9,1-2.6C11,17.3,11.8,17,12.7,17z M10.6,20h4.1c0-0.5-0.2-1-0.6-1.4
					c-0.4-0.4-0.8-0.6-1.4-0.6c-0.6,0-1,0.2-1.4,0.5C11,18.9,10.7,19.4,10.6,20z"/>
				<path class="st3" d="M20.8,17c0.9,0,1.7,0.3,2.3,1c0.6,0.7,0.9,1.6,0.9,2.6s-0.3,2-0.9,2.6c-0.6,0.7-1.4,1-2.3,1
					c-1.1,0-1.8-0.4-2.2-1.2V27h-1.2v-9.9h0.9l0.2,1h0.1C19.1,17.4,19.8,17,20.8,17z M20.6,23.2c0.6,0,1.2-0.2,1.6-0.7
					s0.6-1.1,0.6-1.8s-0.2-1.4-0.6-1.8c-0.4-0.5-0.9-0.7-1.6-0.7c-0.6,0-1.1,0.2-1.5,0.7c-0.4,0.5-0.6,1.1-0.6,1.8
					c0,0.8,0.2,1.4,0.6,1.8C19.5,23,20,23.2,20.6,23.2z"/>
			</g>
		</g>
		<g>
			<g>
				<path class="st3" d="M172.7,10.3h3.6v1.1H171v-0.8l3.6-5.1V5.4h-3.4V4.3h5.1v0.8L172.7,10.3L172.7,10.3z"/>
				<path class="st3" d="M183.9,10.2l0.5,0.8c-0.1,0.1-0.2,0.3-0.4,0.4c-0.2,0.1-0.4,0.2-0.6,0.2c-0.4,0-0.7-0.1-0.9-0.3
					c-0.2-0.2-0.4-0.4-0.4-0.8c-0.6,0.7-1.4,1.1-2.4,1.1c-0.7,0-1.3-0.2-1.7-0.5c-0.4-0.3-0.7-0.8-0.7-1.5c0-0.7,0.3-1.3,0.8-1.6
					c0.6-0.4,1.3-0.6,2.4-0.7l1.3-0.1V6.9c0-0.5-0.1-1-0.4-1.3c-0.3-0.3-0.6-0.5-1.1-0.5c-0.5,0-0.8,0.1-1.1,0.4
					c-0.3,0.3-0.4,0.6-0.5,1h-1.2c0.1-0.7,0.3-1.3,0.8-1.7s1.1-0.7,1.9-0.7c0.8,0,1.5,0.2,2,0.7S183,6.1,183,7v2.7
					c0,0.5,0.2,0.8,0.5,0.8C183.6,10.5,183.8,10.4,183.9,10.2z M179.8,10.5c0.5,0,1-0.2,1.4-0.5c0.4-0.3,0.6-0.8,0.6-1.5V8l-1.2,0.1
					c-0.7,0.1-1.2,0.2-1.6,0.4c-0.4,0.2-0.6,0.5-0.6,0.9c0,0.3,0.1,0.6,0.4,0.8C179.1,10.4,179.4,10.5,179.8,10.5z"/>
				<path class="st3" d="M191.7,7.7c-1.3,0.9-2,1.7-2.1,2.5h4.3v1.2H188v-0.5c0-1.5,0.8-2.8,2.5-3.8c0.9-0.6,1.5-1,1.7-1.2
					c0.3-0.3,0.5-0.7,0.5-1c0-0.4-0.1-0.8-0.4-1c-0.3-0.3-0.7-0.4-1.1-0.4c-0.6,0-1,0.2-1.3,0.6s-0.4,0.8-0.5,1.4h-1.3
					c0-0.5,0.1-1,0.3-1.4c0.2-0.4,0.5-0.8,1-1.2s1.1-0.5,1.7-0.5c0.8,0,1.5,0.2,2.1,0.7c0.5,0.5,0.8,1.1,0.8,1.9
					c0,0.6-0.2,1.2-0.6,1.6C193,6.8,192.5,7.2,191.7,7.7z"/>
				<path class="st3" d="M201,10.3c-0.6,0.8-1.4,1.2-2.4,1.2s-1.8-0.4-2.4-1.2c-0.6-0.8-0.9-2-0.9-3.5c0-1.5,0.3-2.7,0.9-3.5
					c0.6-0.8,1.4-1.2,2.4-1.2s1.8,0.4,2.4,1.2c0.6,0.8,0.9,2,0.9,3.5C201.9,8.4,201.6,9.6,201,10.3z M197.2,9.5
					c0.3,0.6,0.8,0.9,1.4,0.9s1.1-0.3,1.4-0.9c0.3-0.6,0.5-1.4,0.5-2.6s-0.2-2-0.5-2.6c-0.4-0.6-0.8-0.9-1.4-0.9
					c-0.6,0-1.1,0.3-1.4,0.9c-0.3,0.6-0.5,1.4-0.5,2.6S196.9,8.9,197.2,9.5z"/>
				<path class="st3" d="M184.1,17.2c0.8,0,1.4,0.3,1.9,0.8s0.7,1.3,0.7,2.2v4.2h-1.3v-4c0-0.7-0.2-1.2-0.5-1.5
					c-0.3-0.4-0.7-0.5-1.3-0.5c-0.5,0-0.9,0.2-1.2,0.5c-0.3,0.3-0.5,0.8-0.5,1.5v4.1h-1.3v-7.1h1l0.2,0.9h0.1
					C182.4,17.6,183.1,17.2,184.1,17.2z"/>
				<path class="st3" d="M191.5,24.6c-1,0-1.9-0.3-2.6-1s-1-1.6-1-2.6c0-1,0.3-1.9,1-2.6s1.5-1,2.6-1c1,0,1.9,0.3,2.6,1s1,1.6,1,2.6
					c0,1.1-0.3,1.9-1,2.6S192.5,24.6,191.5,24.6z M191.4,23.4c0.7,0,1.2-0.2,1.7-0.7s0.6-1.1,0.6-1.8c0-0.7-0.2-1.3-0.7-1.8
					c-0.4-0.5-1-0.7-1.7-0.7s-1.2,0.2-1.7,0.7c-0.4,0.5-0.6,1.1-0.6,1.8c0,0.7,0.2,1.3,0.6,1.8C190.2,23.2,190.8,23.4,191.4,23.4z"
					/>
				<path class="st3" d="M201,17.4h1.3l-2.6,7.1H198l-2.6-7.1h1.3l2.1,5.9h0.1L201,17.4z"/>
			</g>
		</g>
		<rect x="42.8" y="6.6" class="st3" width="120.7" height="0.8"/>
	</g>
</g>
</svg>
