<?xml version="1.0" encoding="utf-8"?>
<!-- Generator: Adobe Illustrator 24.3.0, SVG Export Plug-In . SVG Version: 6.00 Build 0)  -->
<svg version="1.1" id="Laag_1" xmlns="http://www.w3.org/2000/svg" xmlns:xlink="http://www.w3.org/1999/xlink" x="0px" y="0px"
	 width="117px" height="12.1px" viewBox="0 0 117 12.1" style="enable-background:new 0 0 117 12.1;" xml:space="preserve">
<style type="text/css">
	.st0{fill:#5F3A4E;}
</style>
<g>
	<path class="st0" d="M2.2,10.5h5.9v1.4H0v-1.1l6-9.1V1.6H0.4V0.2h7.7v1l-5.9,9.1V10.5z"/>
	<path class="st0" d="M17.8,11.9l-1-3H12l-1,3H9.4l4-11.7h2l4,11.7H17.8z M12.5,7.5h3.9l-1.9-5.6h-0.2L12.5,7.5z"/>
	<path class="st0" d="M29.1,11.9h-1.7l-2.8-4.8h0h-2.3v4.8h-1.5V0.2h4c1.2,0,2.1,0.3,2.8,0.9c0.7,0.6,1,1.5,1,2.5
		c0,0.8-0.2,1.5-0.7,2s-1,1-1.8,1.2L29.1,11.9z M22.3,1.6v4.1h2.3c0.8,0,1.4-0.2,1.8-0.6S27,4.2,27,3.6c0-0.6-0.2-1.1-0.7-1.5
		s-1-0.5-1.8-0.5H22.3z"/>
	<path class="st0" d="M38.5,11.9l-1-3h-4.8l-1,3h-1.7l4-11.7h2l4,11.7H38.5z M33.2,7.5H37l-1.9-5.6H35L33.2,7.5z"/>
	<path class="st0" d="M48.7,0.2h1.5v11.7h-1.5V6.7H43v5.2h-1.6V0.2H43v5.1h5.7V0.2z"/>
	<path class="st0" d="M62,5.7c1.5,0.5,2.3,1.5,2.3,2.9c0,1-0.4,1.8-1.1,2.4c-0.7,0.5-1.6,0.8-2.7,0.8h-4.2V0.2h3.7
		c1.1,0,2,0.3,2.7,0.8c0.7,0.5,1,1.2,1,2.2c0,1.3-0.6,2.1-1.7,2.5V5.7z M57.9,1.5v3.7h2.2c0.7,0,1.3-0.2,1.6-0.5
		c0.4-0.3,0.6-0.8,0.6-1.4c0-0.6-0.2-1-0.6-1.3c-0.4-0.3-0.9-0.5-1.5-0.5H57.9z M60.3,10.6c0.7,0,1.3-0.2,1.8-0.5
		c0.4-0.3,0.7-0.8,0.7-1.5S62.5,7.4,62.1,7c-0.4-0.4-1-0.6-1.8-0.6h-2.5v4.1H60.3z"/>
	<path class="st0" d="M74.5,11.9h-1.7L70,7.1h0h-2.3v4.8h-1.5V0.2h4c1.2,0,2.1,0.3,2.8,0.9c0.7,0.6,1,1.5,1,2.5c0,0.8-0.2,1.5-0.7,2
		s-1,1-1.8,1.2L74.5,11.9z M67.7,1.6v4.1H70c0.8,0,1.4-0.2,1.8-0.6s0.7-0.9,0.7-1.5c0-0.6-0.2-1.1-0.7-1.5s-1-0.5-1.8-0.5H67.7z"/>
	<path class="st0" d="M84,11.9l-1-3h-4.8l-1,3h-1.7l4-11.7h2l4,11.7H84z M78.6,7.5h3.9l-1.9-5.6h-0.2L78.6,7.5z"/>
	<path class="st0" d="M96.6,8.3c-0.2,1.1-0.8,2-1.7,2.7c-0.9,0.7-2,1-3.2,1c-1.7,0-3.1-0.6-4.1-1.7c-1-1.1-1.5-2.6-1.5-4.3
		c0-1.7,0.5-3.2,1.5-4.3c1-1.1,2.3-1.7,3.9-1.7c1.2,0,2.3,0.3,3.2,1s1.5,1.6,1.7,2.8h-1.6c-0.2-0.7-0.6-1.3-1.1-1.7
		c-0.6-0.4-1.3-0.6-2.1-0.6c-1.1,0-2.1,0.4-2.8,1.3c-0.7,0.9-1.1,2-1.1,3.2c0,1.4,0.4,2.5,1.1,3.3s1.7,1.3,2.9,1.3
		c0.8,0,1.5-0.2,2.1-0.6c0.6-0.4,1-1,1.2-1.7H96.6z"/>
	<path class="st0" d="M105.6,0.2h1.5v11.7h-1.5V6.7h-5.7v5.2h-1.6V0.2h1.6v5.1h5.7V0.2z"/>
	<path class="st0" d="M117,0.2v1.4h-3.4v10.3H112V1.6h-3.4V0.2H117z"/>
</g>
</svg>
