<?xml version="1.0" encoding="utf-8"?>
<!-- Generator: Adobe Illustrator 24.3.0, SVG Export Plug-In . SVG Version: 6.00 Build 0)  -->
<svg version="1.1" id="Layer_1" xmlns="http://www.w3.org/2000/svg" xmlns:xlink="http://www.w3.org/1999/xlink" x="0px" y="0px"
	 width="66.4px" height="66px" viewBox="0 0 66.4 66" style="enable-background:new 0 0 66.4 66;" xml:space="preserve">
<style type="text/css">
	.st0{fill:#05AB4F;}
	.st1{fill:#8F5EB0;}
	.st2{fill:#FA0A1A;}
	.st3{fill:#08C4BF;}
	.st4{fill:#FC96C2;}
	.st5{fill:#08AB52;}
	.st6{fill:#FADE38;}
	.st7{fill:#0887C9;}
	.st8{fill:#FFB508;}
	.st9{fill:#8F5CB0;}
	.st10{fill:#0D8AC9;}
	.st11{fill:#FFFFFF;}
</style>
<g>
	<path class="st0" d="M36.9,52.2c0,0.4-0.3,0.8-0.8,0.8c-0.4,0-0.8-0.4-0.8-0.8c0-0.4,0.3-0.8,0.8-0.8
		C36.6,51.4,36.9,51.7,36.9,52.2"/>
	<path class="st1" d="M40.2,57.6c-0.3-0.1-0.5-0.1-0.7,0c-0.1,0-0.2,0.1-0.2,0c0-0.3-0.1-0.6,0-0.9c0-0.1,0.1-0.1,0.2-0.2
		c0.2,0,0.3,0,0.5,0c0.5,0.1,0.5,0.1,0.3,0.5C40.1,57.2,40.1,57.4,40.2,57.6"/>
	<path class="st2" d="M23.8,31.7c0.3-0.4,0.4-0.8,0.2-1.2c0.5,0.1,0.9,0,1.3-0.2c0.1,0.3,0.2,0.6,0.2,0.9c0.1,0.4-0.1,0.6-0.5,0.6
		C24.6,31.8,24.2,31.7,23.8,31.7"/>
	<path class="st3" d="M21.5,41.6c0.2,0,0.2,0.2,0.2,0.3c0,0.1,0.1,0.2-0.1,0.3c-0.4,0.2-0.8,0.3-1.1,0.5c-0.1,0-0.2,0.1-0.2-0.1
		c-0.1-0.4-0.1-0.4,0.3-0.6C20.9,42,21.2,41.8,21.5,41.6"/>
	<path class="st3" d="M24.8,43c0,0.2-0.1,0.3,0,0.4c0.3,0.3,0,0.4-0.2,0.5c-0.3,0.1-0.5,0.2-0.8,0.2c-0.3,0-0.5-0.3-0.5-0.5
		c0-0.1,0.1-0.1,0.2-0.1C24,43.5,24.4,43.3,24.8,43"/>
	<path class="st4" d="M66,39.3c-0.1,0.1-0.1,0.1-0.1,0.2c0,0.3-0.1,0.3-0.4,0.4c-0.3,0.1-0.3-0.1-0.4-0.3c0-0.2-0.1-0.5,0.2-0.5
		C65.5,39.3,65.8,39.3,66,39.3L66,39.3z"/>
	<path class="st5" d="M0.2,40.9c0.2-0.2,0.4-0.3,0.7,0C1,41,1,41.2,0.8,41.4c-0.2,0.2-0.4,0.1-0.6-0.1V40.9z"/>
	<path class="st6" d="M53.9,34.8c-0.3,0.3-0.5,0.5-0.5,0.9c0,0.1-0.1,0.1-0.2,0.1c-0.7-0.1-1.4-0.3-2-0.8c-0.2-0.2,0-1,0.2-1
		c0.1,0,0.2,0.1,0.3,0.1c0.3,0.2,0.6,0.3,1,0.5C53.1,34.7,53.5,34.8,53.9,34.8"/>
	<path class="st4" d="M55.8,47.3c0.3,0.3,0.5,0.5,0.9,0.4c0.1,0,0.2,0.1,0.2,0.2c0,0.7-0.2,1.4-0.6,2c-0.1,0.2-0.9,0-1-0.1
		c0,0,0-0.1,0-0.1C55.5,48.9,55.7,48.2,55.8,47.3"/>
	<path class="st7" d="M37,46.8c-0.4,0.1-0.7,0.2-0.8,0.6c0,0.1-0.1,0-0.2,0c-0.6-0.4-1.1-0.9-1.4-1.6c0-0.1,0-0.2,0-0.3
		c0.1-0.2,0.3-0.3,0.5-0.4c0.1-0.1,0.2-0.1,0.3,0.1C35.8,45.8,36.3,46.4,37,46.8"/>
	<path class="st4" d="M35.2,13.3c0.1,0.4,0.2,0.7,0.6,0.8c0.1,0,0.1,0.1,0,0.2c-0.4,0.6-0.9,1.1-1.6,1.4c-0.3,0.1-0.4-0.1-0.5-0.3
		c-0.4-0.3-0.3-0.4,0.1-0.7C34.3,14.4,34.8,13.9,35.2,13.3"/>
	<path class="st8" d="M49.9,36.2c-0.3-0.3-0.6-0.3-0.9-0.3c0.3-0.8,0.6-1.5,0.8-2.3c0-0.1,0.1-0.1,0.2-0.1c0.2,0,0.4,0.1,0.6,0.2
		c0.1,0.1,0.2,0.2,0.1,0.3C50.4,34.7,50.1,35.4,49.9,36.2"/>
	<path class="st4" d="M66.2,29c0.2,0,0.2,0,0.2,0.2c0,0.1,0,0.2,0,0.3c0.2,0.3,0,0.4-0.3,0.4c-0.7,0-1.3,0-2,0.2
		c-0.1,0-0.2,0-0.2-0.1c-0.1-0.2-0.1-0.3-0.1-0.5c0-0.2,0.1-0.3,0.4-0.4C64.8,29.2,65.5,29.1,66.2,29"/>
	<path class="st9" d="M0.3,28.1c0.2-0.5,0.3-0.9-0.1-1.4c0.5,0,0.9-0.2,1.2-0.4c0.1-0.1,0.1-0.1,0.2,0c0.1,0.3,0.4,0.6,0.4,1
		c0.1,0.3,0,0.5-0.3,0.6C1.2,28,0.8,28.1,0.3,28.1"/>
	<path class="st9" d="M11.3,41.3c0-0.4-0.3-0.6-0.5-0.8c0.7-0.4,1.4-0.8,2-1.3c0.1-0.1,0.1,0,0.2,0c0.1,0.1,0.2,0.2,0.2,0.3
		c0.2,0.4,0.2,0.4-0.1,0.6C12.5,40.5,11.9,40.9,11.3,41.3"/>
	<path class="st4" d="M50.6,24c0.1,0,0.2,0.1,0.3,0.1c1.2,0.2,1.2,0.6,0.6,1.5c-0.1,0.2-0.2,0.4-0.4,0.5c-0.2,0.1-0.2-0.3-0.4-0.4
		c-0.2-0.1-0.3-0.3-0.5-0.3c-0.2,0-0.3-0.1-0.1-0.3c0.2-0.3,0.2-0.6,0.3-0.9C50.4,24,50.4,23.9,50.6,24"/>
	<path class="st4" d="M26.8,47.4c-0.1-0.4-0.2-0.6-0.5-0.8c-0.1-0.1-0.1-0.1,0-0.2c0.3-0.6,0.8-1,1.4-1.3c0.2-0.1,0.8,0.3,0.8,0.5
		c0,0.1-0.1,0.1-0.1,0.2C27.7,46.3,27.2,46.8,26.8,47.4"/>
	<path class="st2" d="M53.6,53.5c-0.1,0-0.1-0.1-0.2-0.1c-0.4-0.6-0.8-1.1-1.1-1.7c-0.1-0.2-0.1-0.2,0.1-0.2c0.1,0,0.3-0.1,0.3-0.2
		c0.2-0.2,0.2-0.2,0.4,0c0.3,0.5,0.6,1.1,1,1.5c0.2,0.2,0.1,0.4-0.1,0.5C53.9,53.4,53.7,53.4,53.6,53.5"/>
	<path class="st4" d="M10.9,29.6c-0.2,0-0.3-0.1-0.4-0.3c-0.1-0.6-0.2-1.2-0.2-1.9c0-0.2,0-0.3,0.2-0.2c0.1,0.1,0.3,0,0.4-0.1
		c0.3-0.1,0.3,0,0.3,0.2c0,0.6,0.1,1.1,0.2,1.7C11.5,29.5,11.4,29.6,10.9,29.6"/>
	<path class="st3" d="M13.2,43c0.3-0.1,0.5-0.3,0.6-0.6c0-0.1,0.1-0.1,0.2-0.1c0.6,0.2,1.1,0.6,1.5,1.2c0.1,0.2-0.2,0.8-0.4,0.8
		c-0.1,0-0.1,0-0.1-0.1c-0.2-0.3-0.5-0.5-0.8-0.7C13.8,43.3,13.5,43.1,13.2,43"/>
	<path class="st0" d="M45.4,19.8c0.1,0.5,0.3,0.9,0.8,1.1c-0.3,0.3-0.6,0.6-0.7,1c0,0.1-0.1,0.1-0.2,0.1c-0.3-0.2-0.6-0.3-0.8-0.5
		c-0.2-0.2-0.3-0.4-0.1-0.7C44.7,20.4,45.1,20.1,45.4,19.8"/>
	<path class="st2" d="M9.5,31.8c-0.3,0.2-0.6,0.3-0.6,0.6c0,0.2-0.1,0.1-0.2,0.1c-0.6-0.2-1-0.6-1.4-1.1c-0.1-0.2,0.2-0.8,0.4-0.8
		c0.1,0,0.1,0.1,0.2,0.1c0.2,0.2,0.4,0.4,0.7,0.6C8.9,31.5,9.2,31.6,9.5,31.8"/>
	<path class="st8" d="M44.9,45.7c0.1-0.5,0-0.8-0.2-1.2c0-0.1-0.1-0.2,0-0.2c0.3-0.1,0.7-0.2,1-0.2c0.3,0,0.4,0.1,0.5,0.4
		c0.1,0.4,0,0.9,0,1.3C45.8,45.7,45.4,45.5,44.9,45.7"/>
	<path class="st7" d="M32.4,20.3c0,0.4,0,0.7,0.2,0.9c0.1,0.1,0,0.1-0.1,0.2c-0.5,0.4-1,0.6-1.6,0.6c-0.3,0-0.7-0.5-0.6-0.8
		c0-0.1,0.1-0.1,0.2-0.1C31.2,20.9,31.8,20.7,32.4,20.3"/>
	<path class="st9" d="M17.5,18.3c0,0.2,0,0.4,0.2,0.5c0.3,0.3,0.1,0.3-0.2,0.4c-0.6,0.2-1.1,0.4-1.6,0.7c-0.3,0.2-0.4,0-0.4-0.2
		c-0.1-0.2-0.3-0.5,0.1-0.6C16.1,18.9,16.8,18.6,17.5,18.3"/>
	<path class="st6" d="M53.4,44.3c0.1,0,0.2,0.1,0.2,0.2c0.3,0.6,0.5,1.1,0.8,1.7c0.1,0.2,0.1,0.3-0.1,0.3c-0.1,0-0.2,0-0.2,0.1
		c-0.2,0.2-0.4,0.2-0.5-0.1c-0.2-0.5-0.4-1-0.7-1.4c-0.2-0.3-0.2-0.4,0.2-0.6C53.2,44.3,53.3,44.3,53.4,44.3"/>
	<path class="st2" d="M34,31.4c0.2,0.3,0.4,0.5,0.7,0.4c0.1,0,0.1,0.1,0.1,0.2c-0.1,0.6-0.3,1.1-0.8,1.6c-0.1,0.1-0.8-0.1-0.8-0.3
		c0,0,0-0.1,0.1-0.1C33.5,32.6,33.8,32.1,34,31.4"/>
	<path class="st4" d="M13.9,22c0,0.3,0,0.5,0.1,0.8c0.1,0.1,0,0.2-0.1,0.3c-0.2,0.1-0.4,0.1-0.6,0.2c-0.6,0.1-0.7-0.1-0.8-0.6
		c0-0.3,0.1-0.6,0.1-0.9c0-0.2,0.1-0.1,0.2-0.1c0.2,0.2,0.5,0.2,0.7,0.2C13.9,21.7,14,21.8,13.9,22"/>
	<path class="st4" d="M6.5,46.4c-0.5,0-0.8-0.3-0.8-0.8c0-0.4,0.4-0.8,0.8-0.8c0.4,0,0.8,0.4,0.8,0.8C7.3,46.1,6.9,46.4,6.5,46.4"/>
	<path class="st6" d="M28.8,44.6c0-0.4,0.3-0.8,0.8-0.8c0.4,0,0.8,0.3,0.8,0.8c0,0.4-0.3,0.8-0.8,0.8C29.2,45.3,28.8,45,28.8,44.6"
		/>
	<path class="st6" d="M7.8,51.9c0,0.4-0.3,0.8-0.8,0.8c-0.4,0-0.8-0.4-0.8-0.8c0-0.4,0.4-0.8,0.8-0.8C7.5,51.1,7.8,51.5,7.8,51.9"/>
	<path class="st3" d="M48,30.5c0,0.3,0.2,0.5,0.4,0.7c-0.3,0.2-0.7,0.4-1,0.6c-0.2,0.1-0.5,0.3-0.7,0.5c-0.2,0.2-0.4,0.2-0.5-0.1
		c-0.2-0.3-0.2-0.5,0.1-0.6C46.8,31.2,47.4,30.9,48,30.5"/>
	<path class="st1" d="M33.1,9.7c-0.4,0-0.7-0.3-0.5-0.7c0.2-0.5,0.5-1,0.7-1.5c0.1-0.1,0.1-0.2,0.3-0.1c0.1,0.1,0.1,0.1,0.2,0.1
		c0.4,0,0.3,0.2,0.2,0.5c-0.3,0.5-0.5,0.9-0.7,1.5C33.3,9.6,33.3,9.7,33.1,9.7"/>
	<path class="st0" d="M43.4,34c-0.3,0.2-0.5,0.3-0.5,0.7c0,0.1-0.1,0.1-0.2,0.1c-0.6-0.1-1.1-0.4-1.5-0.9c-0.1-0.2,0.1-0.8,0.3-0.8
		c0.1,0,0.1,0,0.2,0.1C42.2,33.5,42.7,33.8,43.4,34"/>
	<path class="st4" d="M34.9,42.6c-0.4,0-0.6-0.4-0.4-0.7c0.2-0.5,0.5-0.9,0.7-1.4c0.1-0.2,0.2-0.3,0.3-0.1c0,0.1,0.1,0.1,0.2,0.1
		c0.4,0.1,0.3,0.2,0.1,0.5c-0.3,0.4-0.5,0.9-0.7,1.4C35.1,42.6,35,42.7,34.9,42.6"/>
	<path class="st9" d="M58.6,44.3c0.4-0.6,0.8-1.2,1-1.9c0-0.1,0.1-0.1,0.1-0.1c0.2,0,0.4,0.2,0.6,0.3c0.1,0.2,0,0.3-0.1,0.4
		c-0.3,0.5-0.5,1-0.8,1.5c-0.1,0.1-0.1,0.2-0.3,0C59.1,44.4,58.9,44.4,58.6,44.3"/>
	<path class="st10" d="M42,50.2c-0.2-0.2-0.5-0.3-0.8-0.3c0.3-0.7,0.6-1.3,0.8-2c0-0.1,0.1-0.1,0.1-0.1c0.4-0.1,0.7,0.3,0.5,0.6
		C42.4,49,42.2,49.6,42,50.2"/>
	<path class="st4" d="M33.2,35.8c0,0-0.1,0.1-0.1,0.1c-0.4,0.5-0.8,0.9-1.1,1.4c-0.1,0.1-0.2,0.1-0.3,0c0-0.1-0.1-0.1-0.2-0.2
		c-0.4-0.1-0.3-0.3-0.1-0.5c0.4-0.4,0.7-0.8,1-1.3c0.1-0.1,0.2-0.1,0.3-0.1C33,35.4,33.1,35.6,33.2,35.8"/>
	<path class="st3" d="M20.8,55.1c0-0.4,0.3-0.7,0.8-0.7c0.4,0,0.8,0.3,0.8,0.8c0,0.4-0.4,0.8-0.7,0.8C21.1,55.9,20.8,55.5,20.8,55.1
		"/>
	<path class="st2" d="M25,36.6c0,0.4-0.3,0.8-0.8,0.7c-0.4,0-0.7-0.3-0.7-0.7c0-0.4,0.3-0.7,0.7-0.7C24.7,35.8,25,36.1,25,36.6"/>
	<path class="st4" d="M62.7,45.6c0.1-0.4,0-0.7-0.1-1c-0.1-0.1-0.1-0.2,0.1-0.3c0.3-0.1,0.5-0.2,0.8-0.2c0.3,0,0.4,0.1,0.5,0.4
		c0.1,0.4,0,0.7,0,1.1c0,0.1-0.1,0.2-0.2,0.1C63.4,45.5,63.1,45.4,62.7,45.6"/>
	<path class="st6" d="M16.3,32.8c0.4,0,0.7-0.1,1-0.3c0.1-0.1,0.2-0.1,0.3,0.1c0.1,0.2,0.1,0.3,0.2,0.5c0.2,0.6,0.1,0.7-0.4,0.9
		c-0.1,0-0.2,0-0.2,0c-0.2,0-0.5,0.1-0.6,0c-0.2-0.1,0-0.4,0-0.6C16.4,33.2,16.4,33,16.3,32.8"/>
	<path class="st3" d="M31.1,26.5c-0.2-0.1-0.3-0.2-0.4-0.2c-0.4,0-0.3-0.2-0.2-0.4c0.2-0.5,0.4-0.9,0.6-1.4c0.1-0.3,0.2-0.2,0.4-0.2
		c0.2,0.1,0.5,0.1,0.4,0.4C31.6,25.3,31.4,25.9,31.1,26.5"/>
	<path class="st4" d="M13.9,28.1c-0.1-0.2-0.3-0.3-0.5-0.5c-0.1-0.1,0.1-0.2,0.2-0.3c0.4-0.4,0.7-0.7,1-1.1c0.1-0.2,0.2-0.2,0.4-0.1
		c0.2,0.1,0.4,0.3,0.3,0.5C14.9,27.1,14.4,27.5,13.9,28.1C14,28,13.9,28,13.9,28.1"/>
	<path class="st6" d="M25.2,22.4c0.4-0.1,0.6-0.3,0.8-0.6c0.1-0.1,0.1-0.2,0.3,0c0.2,0.2,0.4,0.3,0.5,0.5c0.2,0.2,0.2,0.4-0.1,0.6
		c-0.3,0.2-0.5,0.3-0.8,0.5c-0.2,0.1-0.2,0-0.2-0.2C25.6,23,25.5,22.7,25.2,22.4"/>
	<path class="st9" d="M31.5,46.1c0.4,0,0.7,0.3,0.7,0.7c0,0.4-0.3,0.7-0.8,0.7c-0.4,0-0.7-0.3-0.7-0.7
		C30.8,46.4,31.1,46.1,31.5,46.1"/>
	<path class="st7" d="M22.6,16.8c-0.4,0-0.7-0.3-0.7-0.7c0-0.4,0.3-0.7,0.7-0.7c0.4,0,0.7,0.3,0.7,0.7C23.4,16.5,23,16.8,22.6,16.8"
		/>
	<path class="st7" d="M11.8,35.4c0.4,0,0.7,0.3,0.7,0.7c0,0.4-0.3,0.7-0.7,0.7c-0.4,0-0.7-0.3-0.7-0.7
		C11.1,35.8,11.4,35.4,11.8,35.4"/>
	<path class="st4" d="M28.4,33c-0.2,0-0.3,0-0.2-0.2c0.1-0.2-0.2-0.4,0-0.6c0.1-0.1,0.4,0,0.6-0.1c0.4-0.1,0.8-0.1,1.2-0.2
		c0.2-0.1,0.3,0,0.3,0.2c0,0.2,0.1,0.5-0.1,0.5C29.5,32.9,29,32.9,28.4,33"/>
	<path class="st2" d="M46,9.2c-0.1-0.7-0.2-1.3-0.5-1.9c-0.1-0.1,0-0.2,0.1-0.2c0.4-0.2,0.6-0.1,0.7,0.3c0.1,0.5,0.2,1,0.4,1.4
		c0,0.2,0,0.2-0.2,0.2C46.3,8.9,46.2,9.1,46,9.2"/>
	<path class="st9" d="M13.8,52.1c0,0.3,0.1,0.5,0.3,0.7c0.1,0.1,0,0.1,0,0.2c-0.4,0.4-0.8,0.7-1.4,0.8c-0.4,0.1-0.4-0.3-0.5-0.5
		c-0.1-0.2,0.1-0.2,0.2-0.3C13,52.8,13.4,52.5,13.8,52.1"/>
	<path class="st6" d="M38.1,1.9c-0.2-0.1-0.3-0.2-0.4-0.4c-0.1-0.1,0-0.2,0.1-0.3c0.4-0.4,0.8-0.8,1.1-1.2C39,0,39.1,0,39.2,0.1
		c0,0,0.1,0.1,0.1,0.1c0.3,0.3,0.3,0.3,0,0.6c-0.3,0.3-0.6,0.6-0.9,0.9C38.3,1.8,38.2,1.9,38.1,1.9"/>
	<path class="st2" d="M33,27.6c-0.1,0.4,0,0.6,0.2,0.8c-0.4,0.4-0.9,0.5-1.4,0.6c-0.3,0-0.6-0.4-0.5-0.6c0-0.1,0.1-0.1,0.2-0.1
		C32,28.1,32.5,27.9,33,27.6"/>
	<path class="st6" d="M17.6,6.3c0.2,0.1,0.3,0.2,0.4,0.4C18,6.8,18,6.9,17.9,7C17.5,7.3,17,7.6,16.6,8c-0.1,0.1-0.2,0.1-0.2-0.1
		c0,0,0-0.1-0.1-0.1c0-0.1-0.3-0.2-0.2-0.4c0.1-0.1,0.2-0.2,0.4-0.2c0.4-0.2,0.7-0.5,1-0.7C17.5,6.4,17.6,6.3,17.6,6.3"/>
	<path class="st10" d="M22.9,48c-0.3,0-0.5,0-0.6,0.1c-0.2,0.2-0.3,0.1-0.4,0c-0.3-0.3-0.5-0.7-0.6-1.1c-0.1-0.3,0.3-0.6,0.6-0.6
		c0.1,0,0.1,0.1,0.1,0.1C22.2,47,22.4,47.5,22.9,48"/>
	<path class="st0" d="M32.6,2.7c0-0.3-0.1-0.5-0.4-0.6c0.3-0.4,0.7-0.7,1.3-0.9c0.3-0.1,0.7,0.2,0.6,0.5c0,0,0,0.1-0.1,0.1
		C33.5,2,33,2.4,32.6,2.7L32.6,2.7z"/>
	<path class="st10" d="M44.3,37.9c0.4-0.1,0.6-0.4,0.8-0.7c0.1,0.1,0.2,0.2,0.4,0.3c0.5,0.5,0.5,0.8-0.1,1.1
		c-0.2,0.1-0.4,0.2-0.6,0.3C44.7,38.5,44.6,38.2,44.3,37.9"/>
	<path class="st3" d="M52.8,9.1C52.9,9,53,9,53.1,8.9c0.2-0.4,0.3-0.2,0.5,0c0.3,0.3,0.5,0.7,0.9,0.9c0.2,0.2,0.1,0.3,0,0.4
		c-0.1,0.1-0.3,0.3-0.5,0.1C53.6,10,53.2,9.5,52.8,9.1"/>
	<path class="st8" d="M26.6,12.9c0,0.3-0.3,0.6-0.7,0.6c-0.4,0-0.6-0.3-0.6-0.7c0-0.3,0.3-0.6,0.6-0.6
		C26.3,12.2,26.6,12.5,26.6,12.9"/>
	<path class="st1" d="M35.7,66c0,0-0.1,0-0.1,0c-0.4-0.4-0.9-0.6-1.5-0.7c0.2-0.2,0.4-0.3,0.4-0.6c0-0.1,0.1-0.1,0.2-0.1
		c0.5,0.1,0.8,0.3,1.2,0.6c0.1,0.1,0.1,0.3,0.1,0.4C35.8,65.8,35.7,65.9,35.7,66"/>
	<path class="st3" d="M26.5,0.9C26.8,0.7,27,0.4,27,0c0.3,0.1,0.5,0.2,0.8,0.1c0.2,0,0.2,0,0.2,0.2c0,1-0.2,1.2-1.1,0.8
		C26.8,1.1,26.7,1,26.5,0.9"/>
	<path class="st2" d="M41.3,38.3c0,0.3-0.3,0.6-0.6,0.6c-0.4,0-0.6-0.3-0.6-0.7c0-0.3,0.3-0.6,0.6-0.6C41,37.6,41.3,37.9,41.3,38.3"
		/>
	<path class="st0" d="M15.9,39.5c0-0.3-0.2-0.6-0.3-0.8c-0.1-0.1-0.1-0.1,0-0.2c0,0,0,0,0.1,0c0.3-0.1,0.6-0.5,0.9-0.3
		c0.3,0.2,0.3,0.7,0.4,1c0,0.2-0.1,0.1-0.2,0.1C16.4,39.3,16.2,39.3,15.9,39.5"/>
	<path class="st10" d="M46,34.3c0,0.3-0.3,0.6-0.6,0.6c-0.4,0-0.7-0.3-0.7-0.6c0-0.4,0.3-0.7,0.6-0.7C45.7,33.7,46,34,46,34.3"/>
	<path class="st9" d="M29.1,7.6c0-0.3-0.1-0.6-0.3-0.8c-0.1-0.1-0.1-0.1,0-0.2c0,0,0.1,0,0.1-0.1c0.3-0.1,0.6-0.4,0.9-0.1
		c0.3,0.3,0.2,0.7,0.2,1.1c0,0.1-0.1,0.1-0.2,0.1C29.6,7.4,29.4,7.4,29.1,7.6"/>
	<path class="st4" d="M44.1,48.7c0-0.4,0.3-0.7,0.6-0.7c0.4,0,0.7,0.3,0.7,0.7c0,0.3-0.3,0.6-0.6,0.6C44.4,49.3,44.1,49,44.1,48.7"
		/>
	<path class="st1" d="M38,29.2c-0.2-0.1-0.4-0.2-0.6-0.1c-0.1,0-0.1-0.1-0.1-0.1c-0.1-0.5,0-0.9,0.2-1.3c0.1-0.3,0.4-0.1,0.6-0.1
		c0.2,0.1,0.1,0.2,0.1,0.3C38,28.3,38,28.7,38,29.2"/>
	<path class="st4" d="M64.5,35.1c-0.1,0.3-0.2,0.6-0.4,0.9C64,36.1,64,36,63.9,36c-0.1-0.1-0.2-0.2-0.3-0.3
		c-0.1-0.1-0.4-0.1-0.4-0.2c0-0.3,0.1-0.6,0.2-0.8c0,0,0,0,0,0c0.3-0.1,0.5,0,0.7,0.1C64.4,34.8,64.5,34.8,64.5,35.1"/>
	<path class="st7" d="M20.8,50.6c0,0.3-0.3,0.6-0.6,0.6c-0.3,0-0.6-0.3-0.6-0.6c0-0.3,0.3-0.6,0.6-0.6C20.5,50,20.8,50.3,20.8,50.6"
		/>
	<path class="st3" d="M9,40.7c-0.1,0-0.1,0.1-0.1,0.1c-0.3,0.3-0.7,0.6-0.9,1c-0.1,0.2-0.3,0.1-0.4,0c-0.1-0.1-0.4-0.2-0.2-0.5
		c0.3-0.4,0.7-0.7,1-1.1c0.1-0.1,0.2-0.1,0.2,0C8.7,40.5,8.9,40.6,9,40.7"/>
	<path class="st6" d="M39,41.8c0,0.4-0.2,0.5-0.5,0.4c-0.4-0.1-0.8-0.3-1.2-0.4c-0.2-0.1-0.2-0.1-0.1-0.2c0.1-0.1,0-0.4,0.2-0.4
		c0.1,0,0.3,0.1,0.5,0.2c0.3,0.1,0.6,0.2,0.9,0.3C38.9,41.6,39,41.6,39,41.8"/>
	<path class="st2" d="M18.5,56.9c-0.1-0.2-0.1-0.3-0.2-0.4c-0.3-0.1-0.2-0.3,0-0.5c0.2-0.2,0.4-0.4,0.7-0.6c0.3-0.2,0.5-0.1,0.7,0.2
		c0.1,0.1,0,0.2-0.1,0.2C19.1,56.2,18.8,56.5,18.5,56.9"/>
	<path class="st2" d="M13.9,57.6c-0.3,0-0.6-0.3-0.6-0.6c0-0.3,0.3-0.6,0.6-0.6c0.3,0,0.6,0.3,0.6,0.6
		C14.5,57.4,14.2,57.6,13.9,57.6"/>
	<path class="st1" d="M12.8,45.4c-0.3,0-0.6,0.1-0.8,0.3c-0.1,0-0.1,0.1-0.2,0c-0.1-0.2-0.3-0.5-0.3-0.7c0-0.2,0-0.3,0.2-0.3
		c0.3-0.1,0.6-0.2,0.9-0.2c0.1,0,0.2,0.1,0.1,0.2C12.6,44.8,12.6,45.1,12.8,45.4"/>
	<path class="st2" d="M55.4,23.5c0.2-0.2,0.3-0.3,0.3-0.5c0-0.1,0.1-0.1,0.2-0.1c0.4,0.1,0.8,0.2,1.1,0.5c0.3,0.2,0.1,0.4,0,0.6
		c-0.1,0.2-0.3,0-0.3-0.1C56.3,23.7,55.9,23.6,55.4,23.5"/>
	<path class="st4" d="M35.6,18.1c0.2,0,0.4,0,0.6-0.1c0.1-0.1,0.1,0,0.2,0.1c0.2,0.4,0.3,0.7,0.3,1.2c0,0.3-0.3,0.4-0.5,0.4
		c-0.1,0-0.1-0.1-0.1-0.2c0-0.2-0.1-0.5-0.1-0.7C35.8,18.6,35.7,18.4,35.6,18.1"/>
	<path class="st2" d="M27.2,18.8c0.1,0.3,0.2,0.6,0.5,0.8c-0.2,0.1-0.4,0.3-0.4,0.4c-0.1,0.3-0.2,0.3-0.4,0.1
		c-0.1-0.1-0.2-0.1-0.2-0.1c-0.3-0.2-0.3-0.4-0.1-0.7C26.7,19.1,26.9,18.9,27.2,18.8"/>
	<path class="st8" d="M29.8,62.4c0.3,0,0.6,0.3,0.6,0.6c0,0.3-0.3,0.6-0.6,0.6c-0.3,0-0.6-0.3-0.6-0.6
		C29.2,62.6,29.5,62.4,29.8,62.4"/>
	<path class="st2" d="M59.5,18.7c-0.2-0.3-0.3-0.6-0.7-0.6c0.1-0.2,0.3-0.3,0.3-0.5c0.1-0.4,0.1-0.4,0.6-0.2
		c0.4,0.2,0.5,0.3,0.3,0.6C59.9,18.3,59.7,18.5,59.5,18.7"/>
	<path class="st4" d="M53.9,33c0-0.1,0-0.2-0.1-0.2c-0.4-0.4,0-0.5,0.3-0.6c0.3-0.1,0.6-0.3,0.9-0.5c0.2-0.1,0.3,0,0.4,0.1
		c0.1,0.1,0.2,0.3,0,0.4c-0.4,0.2-0.8,0.4-1.1,0.6C54.1,32.9,54,32.9,53.9,33"/>
	<path class="st2" d="M11.4,7.9c0-0.1,0.1-0.3,0.1-0.4c-0.1-0.4,0.1-0.4,0.4-0.4c0.3,0,0.6,0,0.9,0.1c0.1,0,0.2,0.1,0.2,0.2
		C13,8,12.9,8,12.5,8C12.2,7.9,11.8,7.9,11.4,7.9"/>
	<path class="st2" d="M47.7,49.3c0.1,0,0.3,0,0.3,0.2c0.1,0.4,0.1,0.9,0.2,1.3c0,0.1,0,0.2-0.1,0.2c-0.5,0-0.5,0.1-0.5-0.5
		c0-0.3-0.1-0.6-0.2-0.8C47.3,49.4,47.5,49.4,47.7,49.3"/>
	<path class="st3" d="M20.1,14.7c0,0.2,0,0.3,0,0.4c0.2,0.3,0,0.4-0.2,0.5c-0.3,0.1-0.6,0.2-0.9,0.2c-0.1,0-0.2,0-0.3-0.2
		c-0.2-0.4-0.1-0.5,0.3-0.5C19.4,15,19.7,14.9,20.1,14.7"/>
	<path class="st10" d="M39.5,31.7c0.1-0.1,0.3-0.2,0.3-0.3c0.1-0.3,0.3-0.2,0.5-0.2c0.3,0.1,0.6,0.3,0.8,0.5
		c0.1,0.1,0.1,0.2,0.1,0.3c-0.2,0.4-0.2,0.4-0.6,0.1C40.2,32,39.9,31.8,39.5,31.7"/>
	<path class="st1" d="M42.7,42.9c-0.2-0.1-0.3-0.3-0.5-0.2c-0.1,0-0.1-0.1-0.1-0.2c0-0.4,0.1-0.7,0.4-1c0.1-0.1,0.2-0.2,0.3-0.1
		c0.4,0.1,0.4,0.1,0.3,0.5C42.8,42.1,42.7,42.5,42.7,42.9"/>
	<path class="st3" d="M26.5,35.1c0,0.3-0.3,0.5-0.6,0.6c-0.3,0-0.6-0.3-0.6-0.6c0-0.3,0.3-0.5,0.6-0.5
		C26.3,34.6,26.5,34.8,26.5,35.1"/>
	<path class="st6" d="M35.6,31c-0.1-0.2-0.2-0.3-0.3-0.5c-0.2-0.3-0.2-0.3,0.1-0.6c0.3-0.2,0.5-0.2,0.7,0c0.1,0.1,0.1,0.2,0.2,0.4
		c0.2,0.4,0.2,0.4-0.3,0.5C35.9,30.9,35.7,30.9,35.6,31"/>
	<path class="st4" d="M21.7,62c0.3,0,0.5,0.2,0.4,0.5c-0.1,0.4-0.3,0.7-0.4,1.1c-0.1,0.2-0.1,0.2-0.3,0.1c0,0-0.1-0.1-0.2-0.1
		c-0.2,0-0.2-0.1-0.1-0.2c0.2-0.4,0.3-0.8,0.5-1.2C21.6,62,21.6,62,21.7,62"/>
	<path class="st2" d="M38.5,44.5c0.2-0.1,0.4-0.2,0.6-0.4c0.1-0.1,0.1-0.1,0.3,0c0.6,0.6,0.6,0.8-0.2,1.1c-0.2,0.1-0.4,0.1-0.3-0.2
		C38.8,44.9,38.7,44.7,38.5,44.5"/>
	<path class="st4" d="M24.6,22.9c-0.1,0.2-0.3,0.3-0.3,0.5c0,0.1,0,0.1-0.1,0.1c-0.4-0.1-0.8-0.3-1.1-0.6c-0.2-0.2,0-0.4,0.1-0.5
		c0.1-0.2,0.2,0,0.3,0.1C23.8,22.6,24.1,22.8,24.6,22.9"/>
	<path class="st4" d="M39.1,12.1c-0.2,0.1-0.2,0.3-0.3,0.4c-0.1,0.1-0.2-0.1-0.3-0.1c-0.3-0.2-0.6-0.4-0.9-0.6
		c-0.2-0.1-0.2-0.2-0.1-0.4c0.1-0.2,0.2-0.3,0.4-0.1c0.3,0.2,0.6,0.4,0.9,0.7C39,12,39.1,12.1,39.1,12.1"/>
	<path class="st1" d="M29.6,53.4c-0.1-0.1-0.2-0.2-0.3-0.2c-0.4-0.1-0.3-0.3-0.2-0.5c0.1-0.3,0.2-0.5,0.4-0.7
		c0.1-0.1,0.2-0.1,0.3-0.1c0.4,0.1,0.4,0.2,0.2,0.5C29.8,52.7,29.7,53.1,29.6,53.4"/>
	<path class="st10" d="M10.1,17.1c0.2,0.2,0.3,0.5,0.7,0.5c-0.1,0.2-0.2,0.3-0.2,0.5c0,0.5-0.3,0.3-0.5,0.2
		c-0.4-0.1-0.5-0.2-0.4-0.5C9.7,17.5,9.9,17.3,10.1,17.1"/>
	<path class="st5" d="M20.2,19.8c0.2,0,0.3,0.1,0.5,0c0.1-0.1,0.2,0,0.2,0.1c0.1,0.3,0.1,0.6,0.1,1c0,0.2-0.1,0.3-0.3,0.3
		c-0.3,0-0.4,0-0.4-0.3C20.4,20.6,20.3,20.2,20.2,19.8"/>
	<path class="st6" d="M58.6,11.3c0,0.2,0.1,0.4,0.2,0.4c0.1,0.1,0.1,0.1,0,0.2c-0.2,0.3-0.5,0.5-0.8,0.6c-0.2,0.1-0.3,0-0.4-0.1
		c-0.1-0.2-0.2-0.3,0.1-0.4C58,11.9,58.3,11.6,58.6,11.3"/>
	<path class="st6" d="M1.1,33.8c0,0.6-0.1,0.7-0.6,0.6c-0.1,0-0.2-0.1-0.3-0.1c-0.2,0-0.3-0.1-0.1-0.3c0,0,0.1-0.1,0.1-0.1
		c0.2-0.3,0.2-0.3,0.6-0.4C1.1,33.4,1.2,33.5,1.1,33.8"/>
	<path class="st9" d="M24.5,6.8c-0.2,0.1-0.5,0.1-0.6,0.4c-0.1,0.1-0.1,0-0.2,0C23.6,7,23.5,7,23.4,6.9c-0.1-0.1-0.4-0.1-0.3-0.3
		c0.1-0.2,0.3-0.5,0.6-0.6c0.1,0,0.2,0,0.3,0.1C24.2,6.3,24.3,6.5,24.5,6.8"/>
	<path class="st3" d="M43.2,25.7c-0.3,0-0.5-0.2-0.5-0.5c0-0.3,0.3-0.5,0.5-0.5c0.3,0,0.5,0.3,0.5,0.5
		C43.7,25.5,43.5,25.7,43.2,25.7"/>
	<path class="st3" d="M44.9,14.3c0-0.2,0.1-0.3,0.2-0.3c0.4,0,0.7-0.1,1.1-0.1c0.4,0,0.1,0.3,0.2,0.4c0.1,0.2-0.1,0.2-0.2,0.2
		c-0.4,0-0.7,0-1.1,0.1C44.9,14.6,44.9,14.5,44.9,14.3"/>
	<path class="st6" d="M60.7,50.1c0.1,0.1,0.1,0.2,0.1,0.3c0.3,0.2,0.1,0.4-0.1,0.5c-0.2,0.2-0.4,0.3-0.6,0.4c-0.1,0-0.2,0.1-0.3,0
		c-0.3-0.2-0.3-0.4,0-0.5C60.2,50.7,60.5,50.4,60.7,50.1"/>
	<path class="st1" d="M20.3,25c0.2,0.2,0.4,0.3,0.6,0.4c0.2,0,0.2,0.1,0.1,0.2c-0.3,0.7-0.5,0.8-1.1,0.3c-0.1-0.1-0.2-0.1-0.2-0.3
		C20,25.5,20.2,25.3,20.3,25"/>
	<path class="st2" d="M7.3,35.4c0,0.3-0.2,0.5-0.5,0.5c-0.3,0-0.5-0.2-0.5-0.5c0-0.3,0.2-0.5,0.5-0.5C7.1,34.9,7.3,35.1,7.3,35.4"/>
	<path class="st3" d="M33.9,25.6c0-0.2,0.1-0.5,0.1-0.7c0-0.2,0-0.3,0.3-0.3c0.3,0,0.3,0.1,0.3,0.4c0,0.3-0.1,0.6-0.1,0.9
		c0,0.2,0,0.3-0.2,0.3c-0.2,0-0.4-0.1-0.3-0.3C33.9,25.8,33.9,25.7,33.9,25.6C33.9,25.6,33.9,25.6,33.9,25.6"/>
	<path class="st6" d="M34.4,22.6c0.3,0,0.5,0.2,0.5,0.5c0,0.3-0.2,0.5-0.5,0.5c-0.3,0-0.5-0.2-0.5-0.5
		C33.9,22.8,34.1,22.6,34.4,22.6"/>
	<path class="st10" d="M43.3,29.1c-0.1,0-0.1,0-0.1-0.1c-0.1-0.1-0.1-0.1-0.2-0.2c-0.1-0.1-0.4-0.1-0.3-0.3c0.1-0.2,0.3-0.4,0.5-0.5
		c0.1,0,0.2,0,0.2,0.1c0.1,0.1,0.2,0.2,0.3,0.3c0.1,0.1,0.2,0.2,0.2,0.4c0,0.1-0.2,0.1-0.3,0.1C43.5,28.9,43.4,29,43.3,29.1"/>
	<path class="st2" d="M17.2,22.9c0,0.3-0.2,0.5-0.5,0.5c-0.3,0-0.5-0.2-0.5-0.5c0-0.3,0.2-0.5,0.5-0.5C17,22.4,17.2,22.6,17.2,22.9"
		/>
	<path class="st10" d="M28.8,35c0.3,0,0.5,0.1,0.7-0.1c0,0,0,0,0,0c0.1-0.1,0.1,0.1,0.1,0.1c0,0.2,0.5,0.4,0.2,0.6
		c-0.6,0.5-0.8,0.4-1-0.4C28.8,35.2,28.8,35.1,28.8,35"/>
	<path class="st9" d="M46.8,17.3c-0.1,0.1-0.2,0.1-0.2,0.2c-0.2,0.5-0.5,0.2-0.7,0c-0.1-0.1-0.2-0.2-0.4-0.3c-0.1-0.1-0.1-0.2,0-0.4
		c0.1-0.2,0.2-0.3,0.4,0C46.1,17,46.4,17.1,46.8,17.3"/>
	<path class="st2" d="M44.9,29.5c0.2,0,0.3-0.3,0.5-0.2c0.1,0.1,0.2,0.3,0.3,0.4c0.1,0.2,0.2,0.4,0.4,0.5c0.1,0.1,0.1,0.2,0,0.3
		c-0.1,0.1-0.3,0.2-0.4,0C45.4,30.2,45.2,29.9,44.9,29.5"/>
	<path class="st3" d="M51.6,37.8c0.3-0.3,0.6-0.5,0.8-0.8c0.1-0.1,0.2-0.1,0.3,0c0.1,0.1,0.3,0.2,0.1,0.4c-0.3,0.3-0.5,0.5-0.8,0.8
		c-0.1,0.1-0.1,0.1-0.2,0C51.8,38,51.7,37.9,51.6,37.8"/>
	<path class="st2" d="M37.9,25.3c0,0.3-0.2,0.5-0.5,0.5c-0.3,0-0.5-0.2-0.5-0.5c0-0.3,0.2-0.5,0.5-0.5C37.7,24.8,37.9,25,37.9,25.3"
		/>
	<path class="st8" d="M37,33.4c0.1,0.1,0.1,0.2,0.2,0.2c0.5,0.1,0.3,0.3,0.2,0.6c0,0.1-0.1,0.3-0.2,0.4c-0.1,0.3-0.3,0.2-0.5,0.1
		c-0.2-0.1,0-0.2,0-0.4C36.8,34,36.9,33.7,37,33.4"/>
	<path class="st10" d="M39.1,23.4c0.1,0.1,0.3,0.2,0.4,0.2c0.5,0.1,0.2,0.3,0.2,0.5c-0.1,0.3-0.3,0.4-0.5,0.2
		c-0.1,0-0.1-0.1-0.2-0.1c-0.1-0.1-0.2-0.2-0.3-0.3C38.8,23.9,39,23.7,39.1,23.4"/>
	<path class="st3" d="M40.9,41.5c0,0.3-0.2,0.5-0.5,0.5c-0.3,0-0.5-0.2-0.5-0.4c0-0.3,0.2-0.5,0.5-0.5C40.7,41,40.9,41.3,40.9,41.5"
		/>
	<path class="st2" d="M41.2,63.1C41.1,63,41,63,41,63c-0.4,0.2-0.4-0.2-0.5-0.4c0-0.2,0-0.3,0-0.5c0-0.3,0.2-0.3,0.4-0.3
		c0.3,0,0.2,0.2,0.2,0.3C41,62.4,41.1,62.7,41.2,63.1"/>
	<path class="st2" d="M28.8,41c0.1,0,0.2,0.1,0.3,0.1c0.4-0.1,0.4,0.2,0.4,0.4c0,0.2,0,0.4,0,0.6c-0.1,0.2-0.3,0.3-0.5,0.2
		c-0.1,0-0.1-0.1-0.1-0.2C28.9,41.8,28.9,41.4,28.8,41"/>
	<path class="st4" d="M47.2,39.7c0.2,0,0.3,0,0.5,0c0.2,0,0.3,0.1,0.3,0.3c0,0.2-0.1,0.3-0.3,0.3c-0.3,0-0.6,0-0.9,0
		c-0.2,0-0.2-0.1-0.2-0.2c0-0.3,0.1-0.3,0.3-0.3C47,39.7,47.1,39.7,47.2,39.7"/>
	<path class="st10" d="M52,17.2c-0.1,0-0.3,0-0.4,0c-0.1,0-0.3,0.2-0.4,0.1c-0.1-0.2-0.2-0.4-0.2-0.7c0-0.1,0.1-0.2,0.2-0.2
		c0.2,0,0.3,0,0.5,0c0.2,0,0.3,0.1,0.2,0.3C52,16.9,52,17,52,17.2"/>
	<path class="st4" d="M36.5,59.6c0-0.1,0-0.3,0-0.4c0-0.2,0-0.3,0.2-0.3c0.2,0,0.4,0,0.3,0.3c0,0.3,0,0.5,0,0.8c0,0.2,0,0.3-0.3,0.3
		c-0.3,0-0.3-0.1-0.2-0.3C36.5,59.8,36.5,59.7,36.5,59.6L36.5,59.6z"/>
	<path class="st4" d="M46.7,2.8c-0.2,0.2-0.2,0.5-0.5,0.6c-0.2,0.1-0.3-0.1-0.4-0.2c-0.1-0.1-0.2-0.2-0.2-0.3c0,0-0.1-0.1,0-0.1
		c0.2-0.1,0.4-0.3,0.7-0.4c0,0,0.2,0.2,0.3,0.2C46.5,2.7,46.6,2.7,46.7,2.8"/>
	<path class="st6" d="M24.7,18c0-0.2,0.1-0.3,0.3-0.3c0.3,0.1,0.6,0.1,0.9,0.2c0.3,0,0.1,0.3,0.1,0.4c0,0.2-0.1,0.1-0.2,0.1
		c-0.3-0.1-0.6-0.1-0.9-0.1C24.7,18.2,24.7,18.1,24.7,18"/>
	<path class="st6" d="M38,37.3c0.2,0,0.5,0.3,0.4,0.5c0,0.2-0.2,0.4-0.5,0.4c-0.3,0-0.5-0.2-0.5-0.5C37.5,37.5,37.7,37.3,38,37.3"/>
	<path class="st3" d="M15.5,12.7c0-0.1,0-0.1,0.1-0.2c0.1-0.1-0.1-0.3,0.2-0.4c0.4,0,0.7,0,1,0.2c0.1,0.1,0.1,0.3,0,0.4
		c-0.1,0.1-0.2,0.1-0.3,0C16.2,12.7,15.9,12.7,15.5,12.7"/>
	<path class="st1" d="M16.6,42.1c-0.3,0-0.5-0.2-0.5-0.5c0-0.3,0.2-0.5,0.5-0.5c0.3,0,0.5,0.2,0.4,0.5C17,41.9,16.8,42.2,16.6,42.1"
		/>
	<path class="st6" d="M49.6,53.5c-0.2-0.1-0.4-0.1-0.5-0.3c-0.1-0.2,0.1-0.4,0.2-0.5c0.1-0.2,0.2-0.3,0.5,0c0.4,0.3,0.1,0.5,0,0.8
		C49.8,53.4,49.7,53.5,49.6,53.5"/>
	<path class="st4" d="M40.2,28.2c0.3,0,0.4,0.2,0.5,0.4c0,0.3-0.2,0.5-0.4,0.5c-0.2,0-0.5-0.2-0.5-0.5
		C39.7,28.4,39.9,28.2,40.2,28.2"/>
	<path class="st4" d="M47.8,23.6c0,0.1-0.1,0.1-0.1,0.2c-0.2,0.2-0.5,0.3-0.7,0.5c-0.2,0.2-0.3,0.1-0.4-0.1c-0.1-0.1-0.1-0.2,0-0.3
		c0.3-0.2,0.6-0.4,0.9-0.6c0.1-0.1,0.1-0.1,0.2,0C47.7,23.4,47.8,23.5,47.8,23.6"/>
	<path class="st7" d="M29.4,20.3c0,0.3-0.2,0.5-0.5,0.5c-0.2,0-0.5-0.2-0.5-0.4c0-0.3,0.2-0.5,0.5-0.5
		C29.2,19.9,29.4,20.1,29.4,20.3"/>
	<path class="st8" d="M48,60.2c0-0.1,0-0.1,0.1-0.2c0.1-0.1-0.1-0.4,0.2-0.4c0.3,0,0.7,0,0.9,0.2c0.1,0.1,0,0.3,0,0.4
		c0,0.1-0.2,0.1-0.3,0C48.7,60.2,48.4,60.2,48,60.2"/>
	<path class="st6" d="M32,43c0,0.1-0.1,0.2-0.2,0.2c-0.1,0-0.2,0.1-0.3-0.1c-0.1-0.3-0.2-0.7-0.3-1c0-0.1,0.1-0.2,0.2-0.1
		c0.1,0,0.3-0.2,0.3,0C31.8,42.4,31.8,42.7,32,43"/>
	<path class="st3" d="M29.1,16.4c-0.3,0-0.5,0.1-0.7,0.3c-0.1-0.1-0.2-0.2-0.2-0.3c-0.1-0.1-0.3-0.1-0.2-0.3
		c0.1-0.2,0.2-0.4,0.5-0.4c0.2,0,0.3,0.1,0.4,0.3C28.9,16.1,29,16.2,29.1,16.4"/>
	<path class="st1" d="M43.2,57.4c-0.2,0-0.1-0.2-0.2-0.4c-0.1-0.1,0.1-0.1,0.1-0.1c0.3-0.1,0.6-0.1,0.9-0.3c0.1-0.1,0.2,0,0.2,0.1
		c0,0.1,0.1,0.3,0,0.3C43.9,57.2,43.6,57.3,43.2,57.4"/>
	<path class="st5" d="M26.4,41.6c-0.1-0.1-0.1-0.2-0.2-0.3c-0.1-0.1-0.3-0.1-0.2-0.3c0.1-0.2,0.3-0.3,0.5-0.4c0.1,0,0.2,0,0.2,0.1
		c0.1,0.1,0.2,0.3,0.3,0.4c0.1,0.1,0.1,0.2-0.1,0.2C26.6,41.4,26.5,41.5,26.4,41.6"/>
	<path class="st3" d="M32.1,33.1c-0.1,0-0.1,0.1-0.1,0.1c-0.2,0-0.1,0.4-0.3,0.3c-0.3-0.1-0.6-0.3-0.8-0.6c-0.1-0.1,0.1-0.3,0.2-0.4
		c0.1-0.1,0.2,0,0.2,0.1C31.5,32.8,31.7,33,32.1,33.1"/>
	<path class="st10" d="M57.6,35.1c0,0.3-0.2,0.4-0.4,0.4c-0.2,0-0.5-0.2-0.4-0.5c0-0.3,0.2-0.4,0.4-0.4
		C57.5,34.7,57.6,34.9,57.6,35.1"/>
	<path class="st5" d="M7.8,24.8c-0.3,0-0.4-0.1-0.3-0.4c0.1-0.2,0.2-0.5,0.2-0.7c0-0.1,0.1-0.2,0.2-0.1c0.1,0,0.3,0,0.3,0.2
		c-0.1,0.3-0.2,0.7-0.3,1C7.9,24.8,7.9,24.8,7.8,24.8"/>
	<path class="st6" d="M32.4,40.1c-0.1,0-0.3,0.1-0.2-0.2c0-0.2,0-0.4,0-0.5c0.1-0.1,0.3-0.2,0.5-0.2c0.2,0,0.2,0.3,0.3,0.5
		C33,39.9,32.8,40,32.4,40.1"/>
	<path class="st5" d="M5.7,20c-0.2,0-0.5-0.2-0.4-0.5c0-0.3,0.2-0.4,0.4-0.4c0.3,0,0.4,0.1,0.4,0.4C6.1,19.8,5.9,20,5.7,20"/>
	<path class="st2" d="M38.5,18.8c0-0.1,0.1-0.1,0.1-0.1c0.1-0.1-0.1-0.4,0.2-0.3c0.3,0,0.6,0.1,0.9,0.3c0.1,0.1,0,0.3,0,0.4
		c-0.1,0.2-0.2,0-0.3,0C39.1,18.9,38.8,18.9,38.5,18.8"/>
	<path class="st2" d="M18.1,47.2c-0.1,0-0.2,0-0.3,0c-0.3,0.1-0.2-0.1-0.2-0.3c0-0.3,0.1-0.1,0.2-0.2c0.3,0,0.5,0,0.8-0.1
		c0.2,0,0.2,0,0.2,0.2c0,0.1,0,0.3-0.2,0.3C18.5,47.2,18.3,47.2,18.1,47.2C18.1,47.2,18.1,47.2,18.1,47.2"/>
	<path class="st8" d="M53.4,21.9c-0.1,0-0.1,0-0.2,0c-0.1-0.1-0.3,0.2-0.4,0c-0.1-0.3-0.2-0.6-0.2-0.9c0-0.1,0.2-0.2,0.3-0.2
		c0.2,0,0.1,0.1,0.1,0.2C53.2,21.3,53.2,21.6,53.4,21.9"/>
	<path class="st6" d="M41.7,22.4c-0.2-0.2-0.4,0-0.5-0.2c-0.1-0.2,0-0.4,0-0.7c0-0.1,0.1-0.2,0.1-0.2c0.1-0.2,0.3-0.1,0.4-0.1
		c0.2,0,0.1,0.2,0.1,0.3C41.7,21.7,41.7,22,41.7,22.4"/>
	<path class="st8" d="M49.9,6.7c-0.1-0.1-0.4,0.1-0.4-0.1c0-0.2,0-0.4,0.1-0.6c0.1-0.1,0.4-0.1,0.5-0.1c0.2,0,0.2,0.3,0.2,0.5
		C50.4,6.7,50.2,6.7,49.9,6.7"/>
	<path class="st0" d="M50.8,56c0,0.3-0.2,0.4-0.4,0.4c-0.2,0-0.4-0.2-0.4-0.5c0-0.3,0.2-0.4,0.4-0.4C50.6,55.6,50.8,55.8,50.8,56"/>
	<path class="st2" d="M50.9,28.6c0,0-0.1-0.1-0.1-0.1c0-0.2-0.4,0-0.3-0.3c0.1-0.3,0.2-0.6,0.5-0.8c0.1-0.1,0.3,0,0.4,0.1
		c0.1,0.1,0,0.2,0,0.2C51.1,28,51,28.3,50.9,28.6"/>
	<path class="st4" d="M9.8,11.5c-0.1,0.3-0.2,0.7-0.4,1c-0.1,0.2-0.2-0.1-0.3-0.1c-0.1,0-0.1-0.1-0.1-0.2c0.1-0.3,0.2-0.6,0.4-0.9
		c0-0.1,0.1-0.2,0.2-0.1C9.7,11.3,9.8,11.3,9.8,11.5"/>
	<path class="st10" d="M14.7,32.7c0,0.2-0.2,0.4-0.4,0.4c-0.3,0-0.4-0.2-0.4-0.5c0-0.3,0.2-0.4,0.4-0.4
		C14.6,32.3,14.8,32.5,14.7,32.7"/>
	<path class="st2" d="M57.4,32.3c-0.1,0-0.5-0.5-0.5-0.6c0.1-0.2,0.4-0.1,0.5-0.3c0.1,0.2,0.4,0.3,0.4,0.5
		C57.9,32,57.7,32.2,57.4,32.3"/>
	<path class="st5" d="M29.5,12c-0.2,0.1-0.3,0.3-0.5,0.4c-0.1,0.1-0.4-0.4-0.4-0.5c0-0.2,0.4-0.5,0.6-0.4
		C29.3,11.5,29.4,11.8,29.5,12"/>
	<path class="st10" d="M51.4,40.1c0,0.2-0.2,0.4-0.4,0.4c-0.2,0-0.4-0.2-0.4-0.4c0-0.2,0.1-0.4,0.4-0.4
		C51.2,39.6,51.4,39.8,51.4,40.1"/>
	<path class="st1" d="M35.7,36c0,0.2,0,0.4-0.3,0.4c-0.2,0-0.4-0.1-0.6-0.2c0.2-0.1,0.1-0.5,0.3-0.5C35.6,35.6,35.7,35.6,35.7,36"/>
	<path class="st4" d="M31.6,30.7c0,0.2-0.2,0.5-0.4,0.4c-0.2,0-0.4-0.2-0.4-0.4c0-0.2,0.2-0.5,0.4-0.4
		C31.4,30.4,31.6,30.5,31.6,30.7"/>
	<path class="st1" d="M26.2,55.3c-0.1,0-0.3,0-0.2-0.1c0.1-0.2,0-0.4,0.1-0.5c0.1-0.1,0.3-0.1,0.5-0.1c0.2,0,0.2,0.3,0.2,0.5
		C26.7,55.3,26.4,55.2,26.2,55.3"/>
	<path class="st5" d="M40.8,17c-0.1-0.1-0.1-0.1-0.1-0.2c-0.3-0.4-0.3-0.6,0.2-0.7c0.2-0.1,0.4-0.1,0.3,0.2c0,0.1,0.1,0.2,0.1,0.3
		c0,0.2-0.2,0.1-0.2,0.2C41,16.8,40.9,16.9,40.8,17"/>
	<path class="st10" d="M59.5,26.4c0.3,0,0.4,0.2,0.4,0.4c0,0.2-0.2,0.4-0.4,0.4c-0.2,0-0.4-0.2-0.4-0.4
		C59.1,26.5,59.2,26.4,59.5,26.4"/>
	<path class="st5" d="M19,36.4c0.3,0.1,0.7,0.2,1,0.3c0.2,0.1,0,0.2,0,0.4c0,0.1-0.1,0.1-0.2,0c-0.3-0.1-0.5-0.2-0.8-0.3
		c-0.1,0-0.2-0.1-0.1-0.2C18.8,36.5,18.9,36.4,19,36.4"/>
	<path class="st4" d="M40.6,6.2c0,0-0.5,0.4-0.5,0.4c-0.1-0.1-0.5-0.2-0.4-0.4c0-0.2,0.1-0.5,0.4-0.5C40.2,5.7,40.6,6.1,40.6,6.2"/>
	<path class="st6" d="M28.2,23.7c0.2-0.1,0.2,0,0.2,0.2c-0.1,0.3,0,0.5,0,0.8c0,0.1,0,0.2-0.2,0.2c-0.1,0-0.3,0-0.2-0.2
		c0-0.3,0-0.6,0-0.9C27.9,23.6,28.1,23.7,28.2,23.7"/>
	<path class="st10" d="M27.3,57.5c-0.1,0-0.5-0.4-0.5-0.5c0.1-0.2,0.4-0.1,0.5-0.3c0.2,0.1,0.4,0.3,0.4,0.4
		C27.7,57.2,27.6,57.4,27.3,57.5"/>
	<path class="st2" d="M55.2,56.8c-0.1,0-0.2,0-0.3,0.1c-0.2,0.2-0.3,0.1-0.5,0c-0.3-0.2-0.1-0.3,0-0.5c0.2-0.2,0.3-0.2,0.5,0
		C55,56.5,55.1,56.7,55.2,56.8"/>
	<path class="st10" d="M51.7,31.1c0,0.1,0.1,0.2,0.1,0.2c0.4,0.2,0.1,0.4,0,0.7c0,0.1-0.1,0.1-0.2,0.1c-0.5-0.1-0.6-0.3-0.3-0.7
		C51.5,31.2,51.6,31.2,51.7,31.1"/>
	<path class="st6" d="M15.9,36.1c0,0.2-0.1,0.4-0.4,0.4c-0.2,0-0.4-0.1-0.4-0.3c0-0.2,0.1-0.4,0.4-0.4
		C15.7,35.8,15.8,35.9,15.9,36.1"/>
	<path class="st8" d="M65.5,24.9c0,0.2-0.2,0.4-0.4,0.4c-0.2,0-0.4-0.2-0.4-0.4c0-0.2,0.2-0.4,0.4-0.4
		C65.4,24.6,65.5,24.7,65.5,24.9"/>
	<path class="st10" d="M48.7,44.3c-0.2,0-0.4-0.1-0.4-0.4c0-0.2,0.1-0.4,0.4-0.4c0.2,0,0.4,0.1,0.4,0.4
		C49.1,44.2,48.9,44.3,48.7,44.3"/>
	<path class="st5" d="M54.1,13.5c-0.3,0-0.4-0.2-0.4-0.4c0-0.2,0.2-0.4,0.4-0.4c0.2,0,0.3,0.2,0.3,0.4
		C54.5,13.3,54.3,13.5,54.1,13.5"/>
	<path class="st8" d="M47.8,35.8c0,0.2-0.1,0.4-0.4,0.4c-0.2,0-0.4-0.1-0.4-0.4c0-0.2,0.1-0.4,0.4-0.3
		C47.7,35.5,47.8,35.6,47.8,35.8"/>
	<path class="st8" d="M57,39.6c-0.2,0-0.4-0.1-0.4-0.3c0-0.2,0.1-0.4,0.3-0.4c0.2,0,0.4,0.1,0.4,0.3C57.4,39.4,57.3,39.6,57,39.6"/>
	<path class="st10" d="M24,59.7c0-0.2,0.1-0.4,0.4-0.4c0.2,0,0.4,0.1,0.4,0.4c0,0.2-0.1,0.3-0.3,0.4C24.1,60,24,59.9,24,59.7"/>
	<path class="st10" d="M47.5,27.6c0,0.2-0.2,0.4-0.4,0.4c-0.2,0-0.3-0.2-0.3-0.4c0-0.2,0.2-0.3,0.4-0.3
		C47.4,27.3,47.5,27.4,47.5,27.6"/>
	<path class="st10" d="M54.9,27.4c0,0.3-0.1,0.4-0.3,0.4c-0.2,0-0.4-0.1-0.4-0.3c0-0.2,0.1-0.4,0.3-0.4C54.8,27,54.9,27.2,54.9,27.4
		"/>
	<path class="st9" d="M22.4,34.2c0,0.2-0.1,0.3-0.4,0.3c-0.2,0-0.3-0.1-0.4-0.3c0-0.2,0.1-0.4,0.3-0.4C22.2,33.9,22.3,34,22.4,34.2"
		/>
	<path class="st4" d="M21.2,30.7c0,0.3-0.1,0.4-0.3,0.5c-0.2,0-0.4-0.1-0.4-0.3c0-0.2,0.2-0.4,0.4-0.4
		C21.1,30.4,21.2,30.6,21.2,30.7"/>
	<polyline class="st0" points="39.5,36.4 39.5,36.4 39.5,36.4 39.5,36.4 	"/>
	<path class="st11" d="M20.6,28.8c0.1,0,0.6,0.1,1.8-0.5c0.8-0.4,1.4-0.8,2-1.3c-0.6-0.3-1.3-0.5-2.1-0.5c0,0,0,0,0,0
		c-0.8,0-1.4,0.3-1.7,1C20.4,28,20.2,28.7,20.6,28.8 M35.1,17.4c1-0.3,1.7-0.6,2.3-0.9c1.6-0.8,2.5-1.6,2.8-2.1
		c0.5-0.8,0.1-1-0.1-1.1c-0.1,0-0.3-0.1-0.6-0.1C38.8,13.2,37.4,13.8,35.1,17.4 M39.4,28.4c1-0.3,1.7-0.6,2.3-0.9
		c1.6-0.8,2.5-1.6,2.8-2.1c0.5-0.8,0.1-1-0.1-1.1c-0.1,0-0.3-0.1-0.6-0.1C43.1,24.2,41.7,24.8,39.4,28.4 M28.6,38
		c-0.6-0.3-1.3-0.5-2.1-0.5c0,0,0,0,0,0c-0.9,0-1.4,0.3-1.7,1c-0.2,0.4-0.4,1.1,0,1.2c0.1,0,0.6,0.1,1.7-0.5
		C27.4,39,28,38.5,28.6,38 M16.9,30.2c-0.6-1.4-0.5-2.9,0.2-4.3c1-2,2.9-3.2,5.2-3.2c2,0,3.5,0.6,4.7,1.4c0.5-0.8,1-1.6,1.5-2.6
		c-3.1-0.8-4.7-2.6-4.8-2.7l2.9-2.6l0,0c0.1,0.1,1.3,1.4,3.8,1.7c0.3-0.6,0.7-1.2,1-1.8c3.2-5.5,6.4-7.5,9.9-6.5
		c1,0.3,2.3,1.2,2.9,2.6c0.3,0.9,0.5,2.4-0.6,4.3c-1.5,2.4-5.7,4.9-10.9,5.3c0,0,0,0.1-0.1,0.1C31.8,23.5,31,25,30,26.4
		c0,0,0.1,0.1,0.1,0.1c0.3,0.2,2.6,2.1,4.5,2.3c0.3-0.6,0.7-1.2,1-1.8c3.2-5.5,6.4-7.5,9.9-6.5c1,0.3,2.3,1.2,2.9,2.6
		c0.3,0.9,0.5,2.4-0.6,4.3c-1.5,2.4-5.7,4.9-10.9,5.3c0,0,0,0.1-0.1,0.1c-0.9,1.6-1.7,3.1-2.6,4.5c0,0,0.1,0.1,0.1,0.1
		c0.3,0.2,2.4,2,4.4,2.4c1.5,0.3,4.4-0.4,5.7-1.8c0.6-0.7,0.5-1.1,0.5-1.3c0-0.1-0.3-0.4-0.7-0.5c-0.7-0.1-1.4,0.2-2,1.1l-3.2-2.3
		c1.5-2.1,3.7-3,5.9-2.6c1.9,0.4,3.3,1.7,3.8,3.3c0.5,1.7,0,3.5-1.4,4.9c-1.8,1.9-5,3.1-7.8,3.1c-0.5,0-1,0-1.5-0.1
		c-3.1-0.6-4.5-1.8-5.3-2.5l-0.1-0.1c-0.3-0.2-0.5-0.4-0.7-0.6c-0.1,0-0.1-0.1-0.2-0.1c-1,0.9-2.1,1.7-3.5,2.4
		c-1.9,0.9-3.5,1.1-4.8,0.6c-1-0.4-1.8-1.2-2.3-2.3c-0.6-1.4-0.5-2.9,0.2-4.3c1-2,2.9-3.2,5.2-3.2c2,0,3.5,0.6,4.7,1.4
		c0.5-0.8,1-1.6,1.5-2.6c-2.2-0.6-3.6-1.7-4.3-2.2c-0.3-0.2-0.5-0.4-0.7-0.6c-0.1,0-0.1-0.1-0.2-0.1c-1,0.9-2.1,1.7-3.5,2.4
		c-1.9,0.9-3.5,1.1-4.8,0.6C18.1,32.1,17.3,31.3,16.9,30.2 M26.2,54c0-0.1,0-0.3,0-0.4c0-0.1-0.1-0.2-0.1-0.3
		c-0.1-0.1-0.1-0.2-0.2-0.2C25.7,53,25.6,53,25.5,53c-0.2,0-0.4,0.1-0.5,0.3c-0.1,0.2-0.2,0.4-0.2,0.7v0c0,0.2,0,0.3,0,0.4
		c0,0.1,0.1,0.2,0.1,0.3c0.1,0.1,0.1,0.2,0.2,0.2c0.1,0.1,0.2,0.1,0.3,0.1c0.2,0,0.4-0.1,0.5-0.3C26.1,54.5,26.2,54.3,26.2,54
		L26.2,54z M27.5,53.1c0.1,0.3,0.1,0.6,0.1,0.9v0c0,0.3,0,0.6-0.1,0.9c-0.1,0.3-0.2,0.5-0.4,0.7c-0.2,0.2-0.4,0.4-0.7,0.5
		c-0.3,0.1-0.6,0.2-0.9,0.2c-0.3,0-0.6-0.1-0.9-0.2c-0.3-0.1-0.5-0.3-0.7-0.5c-0.2-0.2-0.3-0.4-0.4-0.7c-0.1-0.3-0.1-0.6-0.1-0.9v0
		c0-0.3,0-0.6,0.1-0.9c0.1-0.3,0.2-0.5,0.4-0.7c0.2-0.2,0.4-0.4,0.7-0.5c0.3-0.1,0.6-0.2,0.9-0.2c0.3,0,0.6,0.1,0.9,0.2
		c0.3,0.1,0.5,0.3,0.7,0.5C27.3,52.6,27.4,52.8,27.5,53.1 M35.7,54.6l-0.4-1.1l-0.4,1.1H35.7z M36,51.8l1.8,4.4h-1.6L36,55.6h-1.5
		l-0.2,0.6h-1.6l1.8-4.4H36z M31.3,54.5c0,0.2,0,0.3-0.1,0.4C31.1,55,31,55,30.9,55c-0.1,0-0.2,0-0.3-0.1c-0.1-0.1-0.2-0.2-0.3-0.3
		l-1,0.8c0.1,0.1,0.2,0.2,0.3,0.3c0.1,0.1,0.2,0.2,0.4,0.3c0.1,0.1,0.3,0.1,0.4,0.2s0.4,0.1,0.6,0.1c0.3,0,0.5,0,0.7-0.1
		c0.2-0.1,0.4-0.2,0.5-0.3c0.2-0.2,0.3-0.3,0.3-0.6c0.1-0.2,0.1-0.5,0.1-0.7v-2.7h-1.4V54.5z M29,48.7l-0.4-1.1l-0.4,1.1H29z
		 M29.6,50.3l-0.2-0.6h-1.5l-0.2,0.6H26l1.8-4.4h1.5l1.8,4.4H29.6z M58.2,48.1c0-0.6-0.4-0.9-1.1-0.9h-0.2V49h0.2
		C57.7,49,58.2,48.7,58.2,48.1L58.2,48.1z M59.7,48.1L59.7,48.1c0,1.3-0.9,2.2-2.7,2.2h-1.6v-4.4H57C58.8,45.9,59.7,46.8,59.7,48.1
		 M22.2,54.5c0.1-0.1,0.2-0.2,0.4-0.3c0.1-0.1,0.2-0.2,0.3-0.3c0.1-0.1,0.1-0.2,0.2-0.4c0-0.1,0.1-0.3,0.1-0.4v0
		c0-0.2,0-0.4-0.1-0.6c-0.1-0.2-0.2-0.3-0.4-0.5c-0.2-0.1-0.3-0.2-0.5-0.3c-0.2-0.1-0.4-0.1-0.7-0.1c-0.2,0-0.4,0-0.6,0.1
		c-0.2,0-0.3,0.1-0.5,0.2c-0.2,0.1-0.3,0.2-0.4,0.3c-0.1,0.1-0.3,0.3-0.4,0.4l1,0.8c0.2-0.2,0.3-0.3,0.5-0.4C21,53,21.1,53,21.3,53
		c0.1,0,0.2,0,0.3,0.1c0.1,0.1,0.1,0.1,0.1,0.2c0,0.1,0,0.2-0.1,0.3c-0.1,0.1-0.2,0.2-0.3,0.3l-1.8,1.3v1.1h3.7V55h-1.7L22.2,54.5z
		 M53.2,47.8l-1.6-1.9h-1.4v4.4h1.5v-2l1.6,2h1.3v-4.4h-1.5V47.8z M45.8,53.5c0-0.1-0.1-0.2-0.2-0.3c-0.1-0.1-0.2-0.1-0.4-0.1h-0.6
		v0.9h0.6c0.2,0,0.3,0,0.4-0.1C45.8,53.7,45.8,53.6,45.8,53.5L45.8,53.5z M46.4,54.7l1,1.5h-1.7L45,54.9h0h-0.3v1.2h-1.5v-4.4h2.1
		c0.4,0,0.7,0,1,0.1c0.3,0.1,0.5,0.2,0.6,0.4c0.1,0.1,0.2,0.3,0.3,0.4c0.1,0.2,0.1,0.4,0.1,0.6v0c0,0.3-0.1,0.6-0.2,0.8
		C46.9,54.4,46.7,54.6,46.4,54.7 M40.8,54.6l-0.4-1.1L40,54.6H40.8z M41.2,51.8l1.8,4.4h-1.6l-0.2-0.6h-1.5l-0.2,0.6h-1.6l1.8-4.4
		H41.2z M47.9,48.7l-0.4-1.1l-0.4,1.1H47.9z M48.2,45.9l1.8,4.4h-1.6l-0.2-0.6h-1.5l-0.2,0.6h-1.6l1.8-4.4H48.2z M15.2,47.1h1.3v3.1
		H18v-3.1h1.3v-1.2h-4V47.1z M38.7,50.4c0.8,0,1.5-0.3,1.9-0.7v-2h-2.1v0.9h0.8v0.4c-0.1,0.1-0.3,0.1-0.5,0.1c-0.6,0-1-0.4-1-1v0
		c0-0.6,0.4-1,1-1c0.4,0,0.7,0.1,1,0.4l0.8-1c-0.5-0.4-1.1-0.7-1.8-0.7c-1.4,0-2.4,1-2.4,2.3v0C36.3,49.5,37.4,50.4,38.7,50.4
		 M34.2,48.7l-0.4-1.1l-0.4,1.1H34.2z M34.5,45.9l1.8,4.4h-1.6l-0.2-0.6H33l-0.2,0.6h-1.6l1.8-4.4H34.5z M12.6,48.6h2.1v-1.1h-2.1
		v-0.4h2.3v-1.2h-3.7v4.4H15v-1.2h-2.3V48.6z M41.2,45.9v4.4h3.5V49h-2.1v-3.1H41.2z M9.1,47.4H7.7v-1.5H6.3v4.4h1.5v-1.6h1.3v1.6
		h1.5v-4.4H9.1V47.4z M23.8,45.9V49h2.1v1.3h-3.5v-4.4H23.8z"/>
</g>
</svg>
