<?xml version="1.0" encoding="utf-8"?>
<!-- Generator: Adobe Illustrator 24.3.0, SVG Export Plug-In . SVG Version: 6.00 Build 0)  -->
<svg version="1.1" id="Laag_1" xmlns="http://www.w3.org/2000/svg" xmlns:xlink="http://www.w3.org/1999/xlink" x="0px" y="0px"
	 width="199.3px" height="10.2px" viewBox="0 0 199.3 10.2" style="enable-background:new 0 0 199.3 10.2;" xml:space="preserve">
<style type="text/css">
	.st0{fill:#FFFFFF;}
</style>
<g>
	<path class="st0" d="M0,0.2h3.2v1.4H1.5v2.2h1.7v1.4H1.5v3.3h1.7V10H0V0.2z"/>
	<path class="st0" d="M5.4,0.2h3.2v1.4H6.8v2.2h1.7v1.4H6.8v3.3h1.7V10H5.4V0.2z"/>
	<path class="st0" d="M10.8,0.2h1.4l1.8,5.6V0.2h1.5V10H14l-1.8-5.6V10h-1.4V0.2z"/>
	<path class="st0" d="M21.1,0.2h1.7l1.1,5l1.1-5h1.7V10h-1.4V3.8L24.1,10h-0.4l-1.1-6.2V10h-1.5V0.2z"/>
	<path class="st0" d="M29.1,0.2h1.4v7.9c0,0.4,0.2,0.6,0.5,0.6c0.3,0,0.5-0.2,0.5-0.6V0.2h1.4V8c0,1.4-0.6,2.1-1.9,2.1
		c-0.6,0-1-0.2-1.4-0.5c-0.3-0.3-0.5-0.8-0.5-1.4V0.2z"/>
	<path class="st0" d="M36.5,1.6h-1.5V0.2h3.1l-1.4,8.4h1.8V10h-3.5L36.5,1.6z"/>
	<path class="st0" d="M40.8,0.2h1.4V10h-1.4V0.2z"/>
	<path class="st0" d="M44.6,0.2H46v3.9l1.1-3.9h1.4l-1.2,4.3l1.5,5.5h-1.5L46,4.8V10h-1.5V0.2z"/>
	<path class="st0" d="M51.8,0.2h2.6l1.1,9.8h-1.5l-0.2-1.6h-1.5L52.2,10h-1.4L51.8,0.2z M53.8,6.9l-0.7-5.8l-0.6,5.8H53.8z"/>
	<path class="st0" d="M58.5,0.2h2.6l1.1,9.8h-1.5l-0.2-1.6h-1.5L58.9,10h-1.4L58.5,0.2z M60.5,6.9l-0.7-5.8l-0.6,5.8H60.5z"/>
	<path class="st0" d="M64.4,0.2h1.5v8.3h1.1V10h-2.5V0.2z"/>
	<path class="st0" d="M74.8,6.9c0-0.1,0-0.3,0-0.4c0-0.1,0-0.2-0.1-0.2c0-0.1-0.1-0.1-0.2-0.2c-0.1-0.1-0.2-0.2-0.3-0.3l-0.8-0.6
		c-0.2-0.2-0.4-0.3-0.6-0.4c-0.1-0.1-0.2-0.2-0.3-0.4c-0.1-0.1-0.1-0.2-0.1-0.4s0-0.3,0-0.5V1.7c0-0.5,0.2-0.9,0.5-1.2
		C73.3,0.2,73.7,0,74.3,0c0.4,0,0.7,0.1,0.9,0.2s0.5,0.3,0.6,0.5C76,0.8,76.1,1,76.1,1.2c0,0.2,0.1,0.4,0.1,0.7v1h-1.5V2
		c0-0.4-0.1-0.7-0.4-0.7c-0.3,0-0.5,0.2-0.5,0.7v1.2c0,0.1,0,0.3,0,0.4c0,0.1,0,0.2,0.1,0.3c0,0.1,0.1,0.1,0.2,0.2
		c0.1,0.1,0.2,0.1,0.3,0.2l0.9,0.6c0.2,0.1,0.3,0.2,0.5,0.3S76,5.4,76,5.5c0.1,0.1,0.1,0.3,0.2,0.4c0,0.1,0.1,0.3,0.1,0.5v1.8
		c0,0.6-0.2,1.1-0.5,1.4c-0.3,0.3-0.8,0.5-1.4,0.5c-0.4,0-0.7-0.1-0.9-0.2c-0.3-0.1-0.5-0.3-0.7-0.5c-0.1-0.2-0.2-0.4-0.3-0.6
		c0-0.2-0.1-0.5-0.1-0.9V7.2h1.5v0.9c0,0.2,0,0.4,0.1,0.5c0.1,0.1,0.2,0.2,0.3,0.2c0.2,0,0.3,0,0.4-0.2c0.1-0.1,0.1-0.3,0.1-0.5V6.9
		z"/>
	<path class="st0" d="M78.5,2c0-0.6,0.2-1.1,0.5-1.4c0.3-0.3,0.8-0.5,1.4-0.5c0.6,0,1,0.2,1.4,0.5c0.3,0.3,0.5,0.8,0.5,1.4V3h-1.4V2
		c0-0.2,0-0.3-0.1-0.4s-0.2-0.1-0.3-0.1C80.1,1.5,80,1.6,80,2v6.2c0,0.4,0.1,0.6,0.4,0.6c0.3,0,0.5-0.2,0.5-0.5V7.1h1.4v1.3
		c0,0.3,0,0.5-0.1,0.6c0,0.2-0.1,0.3-0.2,0.5c-0.2,0.2-0.4,0.4-0.7,0.5c-0.3,0.1-0.6,0.2-0.9,0.2s-0.6-0.1-0.9-0.2
		c-0.3-0.1-0.5-0.3-0.7-0.5c-0.1-0.2-0.2-0.3-0.3-0.5c0-0.1-0.1-0.4-0.1-0.7V2z"/>
	<path class="st0" d="M84.5,0.2h1.4V10h-1.4V0.2z"/>
	<path class="st0" d="M88.2,0.2h3.2v1.4h-1.7v2.2h1.7v1.4h-1.7v3.3h1.7V10h-3.2V0.2z"/>
	<path class="st0" d="M93.6,0.2H95l1.8,5.6V0.2h1.5V10h-1.3L95,4.4V10h-1.4V0.2z"/>
	<path class="st0" d="M100.4,2c0-0.6,0.2-1.1,0.5-1.4c0.3-0.3,0.8-0.5,1.4-0.5c0.6,0,1,0.2,1.4,0.5c0.3,0.3,0.5,0.8,0.5,1.4V3h-1.4
		V2c0-0.2,0-0.3-0.1-0.4s-0.2-0.1-0.3-0.1c-0.3,0-0.5,0.2-0.5,0.5v6.2c0,0.4,0.1,0.6,0.4,0.6c0.3,0,0.5-0.2,0.5-0.5V7.1h1.4v1.3
		c0,0.3,0,0.5-0.1,0.6c0,0.2-0.1,0.3-0.2,0.5c-0.2,0.2-0.4,0.4-0.7,0.5c-0.3,0.1-0.6,0.2-0.9,0.2s-0.6-0.1-0.9-0.2s-0.5-0.3-0.7-0.5
		c-0.1-0.2-0.2-0.3-0.3-0.5c0-0.1-0.1-0.4-0.1-0.7V2z"/>
	<path class="st0" d="M106.4,0.2h3.2v1.4h-1.7v2.2h1.7v1.4h-1.7v3.3h1.7V10h-3.2V0.2z"/>
	<path class="st0" d="M111.8,0.2h3v1.4h-1.6V4h1.5v1.4h-1.5V10h-1.5V0.2z"/>
	<path class="st0" d="M117,0.2h1.4V10H117V0.2z"/>
	<path class="st0" d="M120.7,2c0-0.6,0.2-1.1,0.5-1.4c0.3-0.3,0.8-0.5,1.4-0.5c0.6,0,1,0.2,1.4,0.5c0.3,0.3,0.5,0.8,0.5,1.4V3h-1.4
		V2c0-0.2,0-0.3-0.1-0.4s-0.2-0.1-0.3-0.1c-0.3,0-0.5,0.2-0.5,0.5v6.2c0,0.4,0.1,0.6,0.4,0.6c0.3,0,0.5-0.2,0.5-0.5V7.1h1.4v1.3
		c0,0.3,0,0.5-0.1,0.6c0,0.2-0.1,0.3-0.2,0.5c-0.2,0.2-0.4,0.4-0.7,0.5c-0.3,0.1-0.6,0.2-0.9,0.2s-0.6-0.1-0.9-0.2s-0.5-0.3-0.7-0.5
		c-0.1-0.2-0.2-0.3-0.3-0.5c0-0.1-0.1-0.4-0.1-0.7V2z"/>
	<path class="st0" d="M127.5,1.7h-1V0.2h3.4v1.4h-1V10h-1.5V1.7z"/>
	<path class="st0" d="M132.1,0.2h1.4V10h-1.4V0.2z"/>
	<path class="st0" d="M135.8,1.9c0-0.6,0.2-1,0.5-1.4c0.3-0.3,0.8-0.5,1.4-0.5c0.6,0,1,0.2,1.4,0.5c0.4,0.3,0.5,0.7,0.5,1.3v6.6
		c0,0.6-0.2,1.1-0.5,1.4s-0.8,0.5-1.4,0.5c-0.6,0-1.1-0.2-1.4-0.5c-0.3-0.3-0.5-0.8-0.5-1.4V1.9z M138.2,2.1c0-0.5-0.2-0.7-0.5-0.7
		c-0.2,0-0.3,0.1-0.3,0.2c-0.1,0.1-0.1,0.3-0.1,0.5v6c0,0.4,0.2,0.6,0.5,0.6c0.3,0,0.5-0.2,0.5-0.6V2.1z"/>
	<path class="st0" d="M141.9,0.2h1.4l1.8,5.6V0.2h1.5V10h-1.3l-1.8-5.6V10h-1.4V0.2z"/>
	<path class="st0" d="M153,0.2h2.6l1.1,9.8h-1.5l-0.2-1.6h-1.5l-0.2,1.6h-1.4L153,0.2z M155,6.9l-0.7-5.8l-0.6,5.8H155z"/>
	<path class="st0" d="M158.1,0.2h1.5l0.9,6.9l1.1-6.9h1.4l-1.7,9.8h-1.6L158.1,0.2z"/>
	<path class="st0" d="M164.9,1.9c0-0.6,0.2-1,0.5-1.4c0.3-0.3,0.8-0.5,1.4-0.5c0.6,0,1,0.2,1.4,0.5c0.4,0.3,0.5,0.7,0.5,1.3v6.6
		c0,0.6-0.2,1.1-0.5,1.4s-0.8,0.5-1.4,0.5c-0.6,0-1.1-0.2-1.4-0.5c-0.3-0.3-0.5-0.8-0.5-1.4V1.9z M167.3,2.1c0-0.5-0.2-0.7-0.5-0.7
		c-0.2,0-0.3,0.1-0.3,0.2c-0.1,0.1-0.1,0.3-0.1,0.5v6c0,0.4,0.2,0.6,0.5,0.6c0.3,0,0.5-0.2,0.5-0.6V2.1z"/>
	<path class="st0" d="M171,0.2h1.4l1.8,5.6V0.2h1.5V10h-1.3l-1.8-5.6V10H171V0.2z"/>
	<path class="st0" d="M178.7,1.7h-1V0.2h3.4v1.4h-1V10h-1.5V1.7z"/>
	<path class="st0" d="M183.2,0.2h1.4v7.9c0,0.4,0.2,0.6,0.5,0.6s0.5-0.2,0.5-0.6V0.2h1.4V8c0,1.4-0.6,2.1-1.9,2.1
		c-0.6,0-1-0.2-1.4-0.5s-0.5-0.8-0.5-1.4V0.2z"/>
	<path class="st0" d="M189.3,0.2h1.4v7.9c0,0.4,0.2,0.6,0.5,0.6s0.5-0.2,0.5-0.6V0.2h1.4V8c0,1.4-0.6,2.1-1.9,2.1
		c-0.6,0-1-0.2-1.4-0.5s-0.5-0.8-0.5-1.4V0.2z"/>
	<path class="st0" d="M195.4,0.2h2.2h0.4c0.1,0,0.2,0,0.3,0c0.1,0,0.2,0.1,0.3,0.1c0.2,0.1,0.3,0.2,0.4,0.4c0.1,0.1,0.1,0.3,0.2,0.4
		c0,0.1,0,0.3,0,0.6v2c0,0.4-0.1,0.7-0.2,0.9c-0.1,0.2-0.3,0.3-0.6,0.4c0.5,0.1,0.8,0.4,0.8,1v0v4h-1.5V5.9c0-0.2,0-0.4-0.1-0.5
		c-0.1-0.1-0.2-0.1-0.4-0.1h-0.5V10h-1.5V0.2z M197.3,4c0.4,0,0.5-0.1,0.5-0.4V2.4c0-0.4,0-0.6-0.1-0.7c-0.1-0.1-0.2-0.2-0.4-0.2
		h-0.5V4H197.3z"/>
</g>
</svg>
