<?xml version="1.0" encoding="utf-8"?>
<!-- Generator: Adobe Illustrator 24.3.0, SVG Export Plug-In . SVG Version: 6.00 Build 0)  -->
<svg version="1.1" id="Laag_1" xmlns="http://www.w3.org/2000/svg" xmlns:xlink="http://www.w3.org/1999/xlink" x="0px" y="0px"
	 width="205px" height="13.5px" viewBox="0 0 205 13.5" style="enable-background:new 0 0 205 13.5;" xml:space="preserve">
<style type="text/css">
	.st0{fill:#1D1D1B;}
</style>
<g>
	<path class="st0" d="M4.6,11.1c-0.8,0-1.4-0.1-2-0.3c-0.6-0.2-1-0.5-1.4-0.8C0.8,9.7,0.5,9.3,0.3,8.8C0.1,8.3,0,7.8,0,7.3h1.3
		c0.2,1.8,1.3,2.8,3.3,2.8c0.4,0,0.7,0,1-0.1C6,9.9,6.2,9.7,6.5,9.6C6.7,9.4,6.9,9.2,7,8.9s0.2-0.5,0.2-0.9c0-0.4-0.1-0.7-0.2-0.9
		S6.6,6.7,6.3,6.5C6,6.4,5.7,6.2,5.3,6.1C4.9,6,4.5,5.9,4,5.8C3.5,5.7,3.1,5.6,2.6,5.5S1.8,5.2,1.5,4.9C1.2,4.7,0.9,4.4,0.8,4.1
		C0.6,3.8,0.5,3.3,0.5,2.8c0-0.4,0.1-0.8,0.3-1.2C0.9,1.3,1.1,1,1.5,0.8c0.3-0.2,0.7-0.4,1.2-0.6C3.1,0.1,3.6,0,4.1,0
		c0.7,0,1.2,0.1,1.7,0.2C6.3,0.4,6.7,0.6,7,0.9C7.4,1.2,7.6,1.6,7.8,2C8,2.4,8.1,2.9,8.2,3.3H6.9C6.8,2.6,6.5,2,6,1.6S4.9,1,4.1,1
		C3.4,1,2.8,1.2,2.4,1.5C1.9,1.8,1.7,2.2,1.7,2.8c0,0.3,0.1,0.6,0.2,0.8s0.3,0.4,0.6,0.5s0.5,0.3,0.9,0.4c0.3,0.1,0.7,0.2,1.1,0.3
		C5,4.8,5.5,4.9,6,5c0.5,0.1,0.9,0.3,1.3,0.6S8,6.1,8.2,6.5S8.5,7.4,8.5,8c0,0.5-0.1,0.9-0.3,1.3c-0.2,0.4-0.5,0.7-0.8,1
		c-0.4,0.3-0.8,0.5-1.2,0.6C5.7,11.1,5.2,11.1,4.6,11.1z"/>
	<path class="st0" d="M9.4,3.2h1.1V0.7h1.2v2.4h1.5v1h-1.5v5c0,0.3,0.1,0.5,0.2,0.6s0.3,0.2,0.6,0.2c0.1,0,0.2,0,0.4,0
		c0.1,0,0.2,0,0.3-0.1h0v1.1c-0.1,0-0.3,0.1-0.5,0.1s-0.3,0-0.5,0c-0.5,0-0.9-0.1-1.2-0.3c-0.3-0.2-0.5-0.6-0.5-1.2V4.2H9.4V3.2z"/>
	<path class="st0" d="M20.6,11c-0.8,0-1.2-0.4-1.3-1.2h0c-0.1,0.2-0.3,0.3-0.4,0.4c-0.2,0.1-0.3,0.3-0.6,0.4
		c-0.2,0.1-0.4,0.2-0.7,0.3c-0.3,0.1-0.6,0.1-0.9,0.1c-0.4,0-0.7,0-1-0.1c-0.3-0.1-0.6-0.2-0.8-0.4c-0.2-0.2-0.4-0.4-0.6-0.7
		c-0.1-0.3-0.2-0.6-0.2-1c0-0.5,0.1-0.8,0.3-1.1c0.2-0.3,0.4-0.5,0.7-0.7s0.7-0.3,1.1-0.4s0.9-0.2,1.3-0.3c0.3,0,0.5-0.1,0.8-0.1
		c0.2,0,0.4-0.1,0.6-0.2C18.9,6,19,5.9,19.1,5.8s0.1-0.3,0.1-0.5c0-0.4-0.2-0.8-0.5-1s-0.7-0.4-1.3-0.4c-0.6,0-1.1,0.1-1.4,0.4
		c-0.3,0.3-0.5,0.7-0.5,1.3h-1.2c0-0.4,0.1-0.7,0.2-1c0.1-0.3,0.3-0.6,0.6-0.8s0.6-0.4,1-0.5C16.5,3.1,17,3,17.5,3
		c0.4,0,0.8,0,1.1,0.1c0.3,0.1,0.7,0.2,0.9,0.4C19.8,3.8,20,4,20.2,4.3c0.1,0.3,0.2,0.7,0.2,1.2v3.7c0,0.3,0.1,0.6,0.2,0.7
		c0.1,0.2,0.3,0.2,0.7,0.1h0v0.9c-0.1,0-0.2,0.1-0.3,0.1C20.9,11,20.7,11,20.6,11z M16.9,10.2c0.4,0,0.8-0.1,1.1-0.2
		c0.3-0.1,0.5-0.3,0.7-0.5C18.9,9.2,19,9,19.1,8.8c0.1-0.2,0.1-0.5,0.1-0.7V6.8c-0.2,0.1-0.5,0.2-0.8,0.3c-0.3,0.1-0.7,0.2-1,0.2
		c-0.3,0.1-0.6,0.1-0.9,0.2c-0.3,0.1-0.5,0.1-0.7,0.3c-0.2,0.1-0.4,0.3-0.5,0.4c-0.1,0.2-0.2,0.4-0.2,0.7c0,0.3,0,0.5,0.1,0.6
		c0.1,0.2,0.2,0.3,0.4,0.4s0.3,0.2,0.5,0.2C16.5,10.1,16.7,10.2,16.9,10.2z"/>
	<path class="st0" d="M25.1,11.2c-0.5,0-1-0.1-1.4-0.3c-0.4-0.2-0.8-0.5-1.1-0.8s-0.5-0.8-0.7-1.3c-0.2-0.5-0.2-1.1-0.2-1.7
		c0-0.6,0.1-1.2,0.3-1.7s0.4-0.9,0.7-1.3c0.3-0.3,0.7-0.6,1.1-0.8C24.2,3.1,24.6,3,25.1,3c0.5,0,1,0.1,1.4,0.4s0.7,0.5,1,0.9h0V0.2
		h1.2v10.7h-1.2V10h0c-0.3,0.4-0.6,0.7-1,0.9C26.2,11.1,25.7,11.2,25.1,11.2z M25.2,10.1c0.4,0,0.8-0.1,1.1-0.2
		c0.3-0.2,0.6-0.4,0.8-0.6c0.2-0.3,0.3-0.6,0.4-1c0.1-0.4,0.1-0.8,0.1-1.2c0-0.4-0.1-0.9-0.2-1.2c-0.1-0.4-0.3-0.7-0.5-1
		s-0.5-0.5-0.8-0.6C25.9,4.1,25.6,4,25.2,4c-0.4,0-0.7,0.1-1,0.2c-0.3,0.2-0.5,0.4-0.7,0.6c-0.2,0.3-0.3,0.6-0.4,1
		c-0.1,0.4-0.1,0.8-0.1,1.2c0,0.4,0,0.8,0.1,1.2c0.1,0.4,0.2,0.7,0.4,1c0.2,0.3,0.4,0.5,0.7,0.6C24.5,10.1,24.8,10.1,25.2,10.1z"/>
	<path class="st0" d="M33.4,11.2c-1.1,0-1.9-0.2-2.5-0.7c-0.6-0.5-0.9-1.2-1-2h1.2c0,0.3,0.1,0.6,0.3,0.8c0.1,0.2,0.3,0.4,0.5,0.5
		c0.2,0.1,0.4,0.2,0.7,0.3s0.5,0.1,0.8,0.1c0.6,0,1.1-0.1,1.4-0.4c0.3-0.2,0.4-0.5,0.4-0.9c0-0.2,0-0.4-0.1-0.5S34.9,8,34.7,7.9
		s-0.4-0.2-0.6-0.3c-0.3-0.1-0.6-0.1-0.9-0.2c-0.4-0.1-0.7-0.2-1.1-0.3S31.4,7,31.2,6.8c-0.3-0.2-0.5-0.4-0.6-0.7
		c-0.2-0.3-0.2-0.6-0.2-1c0-0.7,0.2-1.2,0.7-1.6C31.5,3.2,32.2,3,33.1,3c1,0,1.7,0.2,2.2,0.6c0.5,0.4,0.8,1,0.9,1.8h-1.2
		c-0.1-0.5-0.2-0.9-0.5-1.1C34.1,4.1,33.6,4,33,4c-0.6,0-1,0.1-1.2,0.3c-0.2,0.2-0.4,0.5-0.4,0.8c0,0.2,0,0.4,0.1,0.5
		s0.2,0.2,0.4,0.3c0.2,0.1,0.4,0.2,0.7,0.2c0.3,0.1,0.6,0.1,0.9,0.2c0.4,0.1,0.8,0.2,1.1,0.3C35,6.7,35.3,6.9,35.6,7
		c0.3,0.2,0.5,0.4,0.6,0.7c0.2,0.3,0.2,0.6,0.2,1.1c0,0.4-0.1,0.7-0.2,1c-0.1,0.3-0.4,0.5-0.6,0.7c-0.3,0.2-0.6,0.3-1,0.4
		S33.8,11.2,33.4,11.2z"/>
	<path class="st0" d="M36.7,3.2H38l1.6,4.9c0,0.2,0.1,0.4,0.2,0.5C39.9,8.8,39.9,9,40,9.2c0.1,0.2,0.1,0.4,0.2,0.6h0
		c0-0.2,0.1-0.4,0.2-0.6c0-0.2,0.1-0.3,0.2-0.5c0.1-0.2,0.1-0.4,0.2-0.5l1.6-4.9h1.3l-2.8,7.8h-1.4L36.7,3.2z"/>
	<path class="st0" d="M47.6,11.1c-0.6,0-1.1-0.1-1.6-0.3s-0.9-0.5-1.2-0.9c-0.3-0.4-0.6-0.8-0.7-1.3c-0.2-0.5-0.3-1-0.3-1.6
		s0.1-1.1,0.3-1.6c0.2-0.5,0.4-0.9,0.8-1.3c0.3-0.4,0.7-0.7,1.2-0.9S47,3,47.5,3c0.6,0,1.1,0.1,1.5,0.3s0.8,0.5,1.1,0.9
		c0.3,0.4,0.5,0.8,0.7,1.4c0.2,0.5,0.2,1.1,0.2,1.8h-6c0,0.4,0.1,0.8,0.2,1.1c0.1,0.3,0.3,0.6,0.5,0.9c0.2,0.3,0.5,0.4,0.8,0.6
		s0.6,0.2,1,0.2c0.6,0,1-0.1,1.4-0.4s0.6-0.7,0.8-1.2h1.2c-0.2,0.8-0.6,1.5-1.1,1.9C49.2,10.9,48.5,11.1,47.6,11.1z M47.5,3.9
		c-0.4,0-0.7,0.1-1,0.2c-0.3,0.1-0.5,0.3-0.7,0.5s-0.4,0.5-0.5,0.8c-0.1,0.3-0.2,0.6-0.2,1h4.7c0-0.8-0.3-1.4-0.6-1.8
		C48.8,4.2,48.2,3.9,47.5,3.9z"/>
	<path class="st0" d="M53.5,4.5L53.5,4.5c0.3-0.4,0.6-0.7,1-1c0.4-0.3,0.9-0.4,1.4-0.4c0.1,0,0.2,0,0.3,0c0.1,0,0.1,0,0.2,0.1v1.2h0
		c-0.1,0-0.2-0.1-0.2-0.1s-0.2,0-0.3,0c-0.3,0-0.6,0.1-0.9,0.2c-0.3,0.1-0.5,0.3-0.7,0.5s-0.4,0.4-0.5,0.7c-0.1,0.3-0.2,0.6-0.2,1
		v4.3h-1.2V3.2h1.2V4.5z"/>
	<path class="st0" d="M58.6,4.2L58.6,4.2c0.3-0.4,0.6-0.7,1-0.9C60.1,3.1,60.6,3,61.1,3c0.8,0,1.4,0.2,1.9,0.6
		c0.5,0.4,0.7,1,0.7,1.9v5.4h-1.2V5.6c0-0.5-0.2-0.9-0.5-1.2C61.8,4.2,61.3,4,60.8,4c-0.3,0-0.6,0.1-0.9,0.2
		c-0.3,0.1-0.5,0.2-0.7,0.4c-0.2,0.2-0.3,0.4-0.4,0.7c-0.1,0.3-0.2,0.6-0.2,0.9v4.8h-1.2V0.2h1.2V4.2z"/>
	<path class="st0" d="M71.4,11c-0.8,0-1.2-0.4-1.3-1.2h0c-0.1,0.2-0.3,0.3-0.4,0.4s-0.3,0.3-0.6,0.4c-0.2,0.1-0.4,0.2-0.7,0.3
		c-0.3,0.1-0.6,0.1-0.9,0.1c-0.4,0-0.7,0-1-0.1c-0.3-0.1-0.6-0.2-0.8-0.4s-0.4-0.4-0.6-0.7c-0.1-0.3-0.2-0.6-0.2-1
		c0-0.5,0.1-0.8,0.3-1.1c0.2-0.3,0.4-0.5,0.7-0.7c0.3-0.2,0.7-0.3,1.1-0.4c0.4-0.1,0.9-0.2,1.3-0.3c0.3,0,0.5-0.1,0.8-0.1
		c0.2,0,0.4-0.1,0.6-0.2C69.8,6,69.9,5.9,70,5.8s0.1-0.3,0.1-0.5c0-0.4-0.2-0.8-0.5-1s-0.7-0.4-1.3-0.4c-0.6,0-1.1,0.1-1.4,0.4
		c-0.3,0.3-0.5,0.7-0.5,1.3h-1.2c0-0.4,0.1-0.7,0.2-1c0.1-0.3,0.3-0.6,0.6-0.8s0.6-0.4,1-0.5C67.4,3.1,67.9,3,68.4,3
		c0.4,0,0.8,0,1.1,0.1c0.4,0.1,0.7,0.2,0.9,0.4C70.7,3.8,70.9,4,71,4.3c0.1,0.3,0.2,0.7,0.2,1.2v3.7c0,0.3,0.1,0.6,0.2,0.7
		c0.1,0.2,0.3,0.2,0.7,0.1h0v0.9c-0.1,0-0.2,0.1-0.3,0.1C71.7,11,71.6,11,71.4,11z M67.8,10.2c0.4,0,0.8-0.1,1-0.2s0.5-0.3,0.7-0.5
		C69.8,9.2,69.9,9,70,8.8c0.1-0.2,0.1-0.5,0.1-0.7V6.8c-0.2,0.1-0.5,0.2-0.8,0.3c-0.3,0.1-0.7,0.2-1,0.2c-0.3,0.1-0.6,0.1-0.9,0.2
		c-0.3,0.1-0.5,0.1-0.7,0.3S66.5,8,66.4,8.2c-0.1,0.2-0.2,0.4-0.2,0.7c0,0.3,0,0.5,0.1,0.6c0.1,0.2,0.2,0.3,0.4,0.4
		c0.1,0.1,0.3,0.2,0.5,0.2C67.4,10.1,67.6,10.2,67.8,10.2z"/>
	<path class="st0" d="M73,0.2h1.2v10.7H73V0.2z"/>
	<path class="st0" d="M79.3,11.1c-0.6,0-1.1-0.1-1.6-0.3c-0.5-0.2-0.9-0.5-1.2-0.9c-0.3-0.4-0.6-0.8-0.7-1.3s-0.3-1-0.3-1.6
		s0.1-1.1,0.3-1.6C76,5,76.2,4.6,76.5,4.2c0.3-0.4,0.7-0.7,1.2-0.9c0.5-0.2,1-0.3,1.5-0.3c0.6,0,1.1,0.1,1.5,0.3
		c0.4,0.2,0.8,0.5,1.1,0.9s0.5,0.8,0.7,1.4s0.2,1.1,0.2,1.8h-6c0,0.4,0.1,0.8,0.2,1.1s0.3,0.6,0.5,0.9c0.2,0.3,0.5,0.4,0.8,0.6
		s0.6,0.2,1,0.2c0.6,0,1-0.1,1.4-0.4c0.4-0.3,0.6-0.7,0.8-1.2h1.2c-0.2,0.8-0.6,1.5-1.1,1.9C80.9,10.9,80.2,11.1,79.3,11.1z
		 M79.2,3.9c-0.4,0-0.7,0.1-1,0.2s-0.5,0.3-0.7,0.5c-0.2,0.2-0.4,0.5-0.5,0.8s-0.2,0.6-0.2,1h4.7c0-0.8-0.3-1.4-0.6-1.8
		C80.4,4.2,79.9,3.9,79.2,3.9z"/>
	<path class="st0" d="M85.2,4.2L85.2,4.2c0.3-0.4,0.6-0.7,1-0.9C86.6,3.1,87.1,3,87.7,3c0.8,0,1.4,0.2,1.9,0.6s0.7,1,0.7,1.9v5.4
		h-1.2V5.6c0-0.5-0.2-0.9-0.5-1.2C88.3,4.2,87.8,4,87.3,4c-0.3,0-0.6,0.1-0.9,0.2c-0.3,0.1-0.5,0.2-0.7,0.4S85.4,5,85.3,5.3
		c-0.1,0.3-0.2,0.6-0.2,0.9v4.8H84V3.2h1.2V4.2z"/>
	<path class="st0" d="M93.5,3.2h1.3l1.6,4.9c0,0.2,0.1,0.4,0.2,0.5c0.1,0.2,0.1,0.4,0.2,0.5c0.1,0.2,0.1,0.4,0.2,0.6h0
		c0-0.2,0.1-0.4,0.2-0.6c0-0.2,0.1-0.3,0.2-0.5c0.1-0.2,0.1-0.4,0.2-0.5l1.6-4.9h1.3l-2.8,7.8h-1.3L93.5,3.2z"/>
	<path class="st0" d="M107,11c-0.8,0-1.2-0.4-1.3-1.2h0c-0.1,0.2-0.3,0.3-0.4,0.4c-0.2,0.1-0.3,0.3-0.6,0.4
		c-0.2,0.1-0.4,0.2-0.7,0.3c-0.3,0.1-0.6,0.1-0.9,0.1c-0.4,0-0.7,0-1-0.1c-0.3-0.1-0.6-0.2-0.8-0.4c-0.2-0.2-0.4-0.4-0.6-0.7
		c-0.1-0.3-0.2-0.6-0.2-1c0-0.5,0.1-0.8,0.3-1.1c0.2-0.3,0.4-0.5,0.7-0.7s0.7-0.3,1.1-0.4s0.9-0.2,1.3-0.3c0.3,0,0.5-0.1,0.8-0.1
		c0.2,0,0.4-0.1,0.6-0.2c0.2-0.1,0.3-0.2,0.4-0.3s0.1-0.3,0.1-0.5c0-0.4-0.2-0.8-0.5-1s-0.7-0.4-1.3-0.4c-0.6,0-1.1,0.1-1.4,0.4
		c-0.3,0.3-0.5,0.7-0.5,1.3h-1.2c0-0.4,0.1-0.7,0.2-1c0.1-0.3,0.3-0.6,0.6-0.8s0.6-0.4,1-0.5C103,3.1,103.5,3,104,3
		c0.4,0,0.8,0,1.1,0.1c0.3,0.1,0.7,0.2,0.9,0.4c0.3,0.2,0.5,0.4,0.6,0.8c0.1,0.3,0.2,0.7,0.2,1.2v3.7c0,0.3,0.1,0.6,0.2,0.7
		c0.1,0.2,0.3,0.2,0.7,0.1h0v0.9c-0.1,0-0.2,0.1-0.3,0.1C107.3,11,107.2,11,107,11z M103.4,10.2c0.4,0,0.8-0.1,1.1-0.2
		c0.3-0.1,0.5-0.3,0.7-0.5c0.2-0.2,0.3-0.4,0.4-0.7c0.1-0.2,0.1-0.5,0.1-0.7V6.8c-0.2,0.1-0.5,0.2-0.8,0.3c-0.3,0.1-0.7,0.2-1,0.2
		c-0.3,0.1-0.6,0.1-0.9,0.2c-0.3,0.1-0.5,0.1-0.7,0.3c-0.2,0.1-0.4,0.3-0.5,0.4c-0.1,0.2-0.2,0.4-0.2,0.7c0,0.3,0,0.5,0.1,0.6
		c0.1,0.2,0.2,0.3,0.4,0.4s0.3,0.2,0.5,0.2C103,10.1,103.2,10.2,103.4,10.2z"/>
	<path class="st0" d="M109.8,4.2L109.8,4.2c0.3-0.4,0.6-0.7,1-0.9c0.4-0.2,0.9-0.3,1.4-0.3c0.8,0,1.4,0.2,1.9,0.6s0.7,1,0.7,1.9v5.4
		h-1.2V5.6c0-0.5-0.2-0.9-0.5-1.2c-0.3-0.3-0.7-0.4-1.3-0.4c-0.3,0-0.6,0.1-0.9,0.2c-0.3,0.1-0.5,0.2-0.7,0.4S110.1,5,110,5.3
		c-0.1,0.3-0.2,0.6-0.2,0.9v4.8h-1.2V3.2h1.2V4.2z"/>
	<path class="st0" d="M120.1,4.2L120.1,4.2c0.3-0.4,0.6-0.7,1-0.9c0.4-0.2,0.9-0.3,1.4-0.3c0.8,0,1.4,0.2,1.9,0.6
		c0.5,0.4,0.7,1,0.7,1.9v5.4H124V5.6c0-0.5-0.2-0.9-0.5-1.2c-0.3-0.3-0.7-0.4-1.3-0.4c-0.3,0-0.6,0.1-0.9,0.2
		c-0.3,0.1-0.5,0.2-0.7,0.4c-0.2,0.2-0.3,0.4-0.4,0.7c-0.1,0.3-0.2,0.6-0.2,0.9v4.8h-1.2V3.2h1.2V4.2z"/>
	<path class="st0" d="M131.8,10.9V9.9h0c-0.3,0.4-0.6,0.7-1,0.9c-0.4,0.2-0.8,0.3-1.4,0.3c-0.8,0-1.4-0.2-1.9-0.7
		c-0.5-0.5-0.7-1.1-0.7-1.9V3.2h1.2v5.3c0,0.5,0.2,0.9,0.5,1.2c0.3,0.3,0.7,0.4,1.3,0.4c0.3,0,0.6-0.1,0.8-0.2
		c0.2-0.1,0.5-0.3,0.6-0.5s0.3-0.4,0.4-0.7c0.1-0.3,0.1-0.5,0.1-0.9V3.2h1.2v7.8H131.8z"/>
	<path class="st0" d="M140.3,11.1c-0.6,0-1.1-0.1-1.6-0.3s-0.9-0.5-1.2-0.9c-0.3-0.4-0.6-0.8-0.7-1.3c-0.2-0.5-0.3-1-0.3-1.6
		s0.1-1.1,0.3-1.6c0.2-0.5,0.4-0.9,0.8-1.3c0.3-0.4,0.7-0.7,1.2-0.9s1-0.3,1.5-0.3c0.6,0,1.1,0.1,1.5,0.3s0.8,0.5,1.1,0.9
		c0.3,0.4,0.5,0.8,0.7,1.4c0.2,0.5,0.2,1.1,0.2,1.8h-6c0,0.4,0.1,0.8,0.2,1.1c0.1,0.3,0.3,0.6,0.5,0.9c0.2,0.3,0.5,0.4,0.8,0.6
		s0.6,0.2,1,0.2c0.6,0,1-0.1,1.4-0.4s0.6-0.7,0.8-1.2h1.2c-0.2,0.8-0.6,1.5-1.1,1.9C141.9,10.9,141.2,11.1,140.3,11.1z M140.2,3.9
		c-0.4,0-0.7,0.1-1,0.2c-0.3,0.1-0.5,0.3-0.7,0.5s-0.4,0.5-0.5,0.8c-0.1,0.3-0.2,0.6-0.2,1h4.7c0-0.8-0.3-1.4-0.6-1.8
		C141.5,4.2,140.9,3.9,140.2,3.9z"/>
	<path class="st0" d="M146.2,4.2L146.2,4.2c0.3-0.4,0.6-0.7,1-0.9c0.4-0.2,0.9-0.3,1.4-0.3c0.8,0,1.4,0.2,1.9,0.6
		c0.5,0.4,0.7,1,0.7,1.9v5.4h-1.2V5.6c0-0.5-0.2-0.9-0.5-1.2c-0.3-0.3-0.7-0.4-1.3-0.4c-0.3,0-0.6,0.1-0.9,0.2
		c-0.3,0.1-0.5,0.2-0.7,0.4c-0.2,0.2-0.3,0.4-0.4,0.7c-0.1,0.3-0.2,0.6-0.2,0.9v4.8H145V3.2h1.2V4.2z"/>
	<path class="st0" d="M154.5,3.2h1.3l1.6,4.9c0,0.2,0.1,0.4,0.2,0.5c0.1,0.2,0.1,0.4,0.2,0.5c0.1,0.2,0.1,0.4,0.2,0.6h0
		c0-0.2,0.1-0.4,0.2-0.6c0-0.2,0.1-0.3,0.2-0.5c0.1-0.2,0.1-0.4,0.2-0.5l1.6-4.9h1.3l-2.8,7.8h-1.4L154.5,3.2z"/>
	<path class="st0" d="M163.4,4.5L163.4,4.5c0.3-0.4,0.6-0.7,1-1c0.4-0.3,0.9-0.4,1.4-0.4c0.1,0,0.2,0,0.3,0c0.1,0,0.1,0,0.2,0.1v1.2
		h0c-0.1,0-0.2-0.1-0.2-0.1s-0.2,0-0.3,0c-0.3,0-0.6,0.1-0.9,0.2c-0.3,0.1-0.5,0.3-0.7,0.5s-0.4,0.4-0.5,0.7c-0.1,0.3-0.2,0.6-0.2,1
		v4.3h-1.2V3.2h1.2V4.5z"/>
	<path class="st0" d="M170.4,11.1c-0.6,0-1.1-0.1-1.6-0.3s-0.9-0.5-1.2-0.9c-0.3-0.4-0.6-0.8-0.8-1.3s-0.3-1-0.3-1.6
		s0.1-1.1,0.3-1.6c0.2-0.5,0.4-0.9,0.8-1.3c0.3-0.4,0.7-0.7,1.2-0.9s1-0.3,1.6-0.3s1.1,0.1,1.6,0.3c0.5,0.2,0.9,0.5,1.2,0.9
		c0.3,0.4,0.6,0.8,0.7,1.3c0.2,0.5,0.3,1,0.3,1.6s-0.1,1.1-0.3,1.6c-0.2,0.5-0.4,0.9-0.7,1.3c-0.3,0.4-0.7,0.7-1.2,0.9
		C171.5,11,171,11.1,170.4,11.1z M170.4,10.1c0.4,0,0.8-0.1,1.1-0.2s0.6-0.4,0.8-0.7c0.2-0.3,0.4-0.6,0.5-1c0.1-0.4,0.2-0.8,0.2-1.2
		s-0.1-0.8-0.2-1.2c-0.1-0.4-0.3-0.7-0.5-1c-0.2-0.3-0.5-0.5-0.8-0.7S170.8,4,170.4,4s-0.8,0.1-1.1,0.2c-0.3,0.2-0.6,0.4-0.8,0.7
		c-0.2,0.3-0.4,0.6-0.5,1c-0.1,0.4-0.2,0.8-0.2,1.2s0.1,0.8,0.2,1.2c0.1,0.4,0.3,0.7,0.5,1c0.2,0.3,0.5,0.5,0.8,0.7
		C169.6,10,170,10.1,170.4,10.1z"/>
	<path class="st0" d="M178.7,11.1c-0.6,0-1.1-0.1-1.6-0.3s-0.9-0.5-1.2-0.9c-0.3-0.4-0.6-0.8-0.7-1.3c-0.2-0.5-0.3-1-0.3-1.6
		s0.1-1.1,0.3-1.6c0.2-0.5,0.4-0.9,0.8-1.3c0.3-0.4,0.7-0.7,1.2-0.9s1-0.3,1.5-0.3c0.6,0,1.1,0.1,1.5,0.3s0.8,0.5,1.1,0.9
		c0.3,0.4,0.5,0.8,0.7,1.4c0.2,0.5,0.2,1.1,0.2,1.8h-6c0,0.4,0.1,0.8,0.2,1.1c0.1,0.3,0.3,0.6,0.5,0.9c0.2,0.3,0.5,0.4,0.8,0.6
		s0.6,0.2,1,0.2c0.6,0,1-0.1,1.4-0.4s0.6-0.7,0.8-1.2h1.2c-0.2,0.8-0.6,1.5-1.1,1.9C180.3,10.9,179.5,11.1,178.7,11.1z M178.6,3.9
		c-0.4,0-0.7,0.1-1,0.2c-0.3,0.1-0.5,0.3-0.7,0.5s-0.4,0.5-0.5,0.8c-0.1,0.3-0.2,0.6-0.2,1h4.7c0-0.8-0.3-1.4-0.6-1.8
		C179.8,4.2,179.3,3.9,178.6,3.9z"/>
	<path class="st0" d="M186.4,13.5c-1,0-1.8-0.2-2.3-0.6c-0.6-0.4-0.9-0.9-0.9-1.6h1.1c0.1,0.4,0.3,0.7,0.7,0.9
		c0.4,0.2,0.9,0.3,1.5,0.3c0.7,0,1.3-0.2,1.7-0.5c0.4-0.3,0.6-0.8,0.6-1.5V9.5h0c-0.3,0.4-0.6,0.7-0.9,0.9s-0.8,0.3-1.4,0.3
		c-0.5,0-1-0.1-1.4-0.3s-0.8-0.5-1.1-0.8s-0.5-0.7-0.7-1.2s-0.2-1-0.2-1.5c0-0.6,0.1-1.1,0.3-1.6c0.2-0.5,0.4-0.9,0.7-1.2
		s0.7-0.6,1.1-0.8s0.8-0.3,1.3-0.3c0.6,0,1,0.1,1.4,0.3s0.7,0.5,1,0.9h0v-1h1.2v7.3c0,0.5-0.1,1-0.2,1.3c-0.2,0.4-0.4,0.7-0.7,0.9
		s-0.7,0.4-1.1,0.6S186.9,13.5,186.4,13.5z M186.4,9.6c0.5,0,0.8-0.1,1.1-0.2c0.3-0.1,0.5-0.3,0.7-0.6c0.2-0.3,0.3-0.6,0.4-0.9
		c0.1-0.3,0.1-0.7,0.1-1.1c0-0.8-0.2-1.5-0.6-2s-1-0.7-1.8-0.7c-0.7,0-1.3,0.3-1.6,0.8c-0.4,0.5-0.5,1.2-0.5,2c0,0.8,0.2,1.5,0.6,2
		S185.6,9.6,186.4,9.6z"/>
	<path class="st0" d="M194.8,11.1c-0.6,0-1.1-0.1-1.6-0.3s-0.9-0.5-1.2-0.9c-0.3-0.4-0.6-0.8-0.7-1.3c-0.2-0.5-0.3-1-0.3-1.6
		s0.1-1.1,0.3-1.6c0.2-0.5,0.4-0.9,0.8-1.3c0.3-0.4,0.7-0.7,1.2-0.9s1-0.3,1.5-0.3c0.6,0,1.1,0.1,1.5,0.3s0.8,0.5,1.1,0.9
		c0.3,0.4,0.5,0.8,0.7,1.4c0.2,0.5,0.2,1.1,0.2,1.8h-6c0,0.4,0.1,0.8,0.2,1.1c0.1,0.3,0.3,0.6,0.5,0.9c0.2,0.3,0.5,0.4,0.8,0.6
		s0.6,0.2,1,0.2c0.6,0,1-0.1,1.4-0.4s0.6-0.7,0.8-1.2h1.2c-0.2,0.8-0.6,1.5-1.1,1.9C196.4,10.9,195.7,11.1,194.8,11.1z M194.7,3.9
		c-0.4,0-0.7,0.1-1,0.2c-0.3,0.1-0.5,0.3-0.7,0.5s-0.4,0.5-0.5,0.8c-0.1,0.3-0.2,0.6-0.2,1h4.7c0-0.8-0.3-1.4-0.6-1.8
		C196,4.2,195.4,3.9,194.7,3.9z"/>
	<path class="st0" d="M200.7,4.5L200.7,4.5c0.3-0.4,0.6-0.7,1-1c0.4-0.3,0.9-0.4,1.4-0.4c0.1,0,0.2,0,0.3,0c0.1,0,0.1,0,0.2,0.1v1.2
		h0c-0.1,0-0.2-0.1-0.2-0.1s-0.2,0-0.3,0c-0.3,0-0.6,0.1-0.9,0.2c-0.3,0.1-0.5,0.3-0.7,0.5s-0.4,0.4-0.5,0.7s-0.2,0.6-0.2,1v4.3
		h-1.2V3.2h1.2V4.5z"/>
	<path class="st0" d="M203.6,9.4h1.5v1.5h-1.5V9.4z"/>
</g>
</svg>
