<?xml version="1.0" encoding="utf-8"?>
<!-- Generator: Adobe Illustrator 23.0.2, SVG Export Plug-In . SVG Version: 6.00 Build 0)  -->
<svg version="1.1" id="Laag_1" xmlns="http://www.w3.org/2000/svg" xmlns:xlink="http://www.w3.org/1999/xlink" x="0px" y="0px"
	 width="595.3px" height="111.9px" viewBox="0 0 595.3 111.9" style="enable-background:new 0 0 595.3 111.9;" xml:space="preserve"
	>
<style type="text/css">
	.st0{fill:#FFFFFF;}
</style>
<g>
	<path class="st0" d="M36.9,98c0.4,1.1,1,1.6,2.1,1.6h2.3c1,0,1.7-0.5,2.1-1.6l21.9-78.5c0.4-1,1-1.5,2-1.5h7.4
		c1.4,0,1.9,0.7,1.5,2.1L54.5,97.6c-0.4,1.4,0.1,2.1,1.5,2.1c1,0,1.7-0.5,2.1-1.6l22.7-81.6c0.1-0.3,0.1-0.5,0.1-0.8
		c0-0.9-0.5-1.3-1.6-1.3H64.6c-1,0-1.7,0.5-2.1,1.6L41.4,92.2c-0.2,0.6-0.4,1-0.7,1.2c-0.3,0.2-0.6,0.2-0.9,0
		c-0.3-0.2-0.5-0.6-0.7-1.2L18.9,20.1C18.5,18.7,19,18,20.4,18h7.3c1,0,1.7,0.5,2.1,1.6l12.8,46.2c0.2,0.6,0.4,0.9,0.7,1.2
		c0.3,0.2,0.6,0.2,0.9,0c0.3-0.2,0.5-0.6,0.7-1.2l0.4-1.2c0.2-0.8,0.2-1.6-0.1-2.4L32.4,15.9c-0.4-1.1-1-1.6-2.1-1.6H15.8
		c-1.1,0-1.6,0.4-1.6,1.3c0,0.2,0,0.5,0.1,0.8L36.9,98L36.9,98z M89.2,99.6h41.5c1.2,0,1.8-0.6,1.8-1.8v-14c0-1.2-0.6-1.8-1.9-1.8
		h-9.8c-1.2,0-1.8-0.6-1.8-1.8V37.5c0-1.2-0.6-1.8-1.8-1.8c-1.2,0-1.8,0.6-1.8,1.8v46.3c0,1.2,0.6,1.8,1.8,1.8h9.8
		c1.2,0,1.8,0.6,1.8,1.8v6.7c0,1.2-0.6,1.8-1.8,1.8H92.8c-1.2,0-1.8-0.6-1.8-1.8v-6.7c0-1.2,0.5-1.8,1.6-1.8h9.9
		c1.2,0,1.8-0.6,1.8-1.8v-50c0-1.2,0.6-1.8,1.8-1.8h23.8c1.2,0,1.9-0.6,1.9-1.8v-14c0-1.2-0.6-1.8-1.8-1.8H89.8
		c-1.2,0-1.8,0.6-1.8,1.8v14c0,1.2,0.6,1.8,1.7,1.8h5.1c1.1,0,1.7-0.6,1.7-1.8c0-1.2-0.5-1.8-1.6-1.8h-1.6c-1.1,0-1.6-0.6-1.6-1.8
		v-6.7c0-1.2,0.6-1.8,1.8-1.8h32.9c1.2,0,1.8,0.6,1.8,1.8v6.7c0,1.2-0.6,1.8-1.8,1.8h-23.8c-1.2,0-1.8,0.6-1.8,1.8v49.9
		c0,1.2-0.7,1.8-2.1,1.8h-9.5c-1.2,0-1.8,0.6-1.8,1.8v14C87.4,99,88,99.6,89.2,99.6L89.2,99.6L89.2,99.6z M141,99.6h25
		c5,0,9.5-1.2,13.7-3.7c4.2-2.5,7.5-5.8,10-10c2.5-4.2,3.7-8.8,3.7-13.7V41.7c0-5-1.2-9.5-3.7-13.7c-2.5-4.2-5.8-7.5-10-10
		c-4.2-2.5-8.8-3.7-13.7-3.7h-11c-1.2,0-1.8,0.6-1.8,1.8v67.4c0,1.2,0.6,1.8,1.8,1.8h9.8c4,0,7.5-1.4,10.3-4.3
		c2.9-2.9,4.3-6.3,4.3-10.3V43.4c0-4-1.4-7.5-4.3-10.4c-2.9-2.9-6.3-4.3-10.4-4.3h-2.7c-1.2,0-1.8,0.6-1.8,1.8
		c0,1.2,0.6,1.8,1.8,1.8h2.7c3,0,5.6,1.1,7.8,3.2c2.1,2.1,3.2,4.7,3.2,7.7v27.4c0,3-1.1,5.6-3.2,7.7c-2.1,2.1-4.7,3.2-7.8,3.2h-6
		c-1.2,0-1.8-0.6-1.8-1.8v-60c0-1.2,0.6-1.8,1.8-1.8h7.3c6.5,0,12.1,2.3,16.7,7c4.6,4.6,6.9,10.2,6.9,16.8v30.5
		c0,6.6-2.3,12.2-7,16.8c-4.6,4.6-10.2,7-16.8,7h-21.4c-1.2,0-1.8-0.6-1.8-1.8v-78c0-1.2-0.6-1.8-1.8-1.8c-1.2,0-1.8,0.6-1.8,1.8
		v81.6C139.1,99,139.8,99.6,141,99.6L141,99.6L141,99.6z M202.6,99.6h43.3c1.2,0,1.8-0.6,1.8-1.8V83.5c0-1.2-0.6-1.8-1.8-1.8h-25.5
		c-1.2,0-1.8-0.6-1.8-1.8V62.7c0-1.2-0.6-1.8-1.9-1.8h-10.4c-1.2,0-1.8-0.6-1.8-1.8V19.9c0-1.2,0.6-1.8,1.8-1.8h36
		c1.2,0,1.8,0.6,1.8,1.8v6.9c0,1.2-0.6,1.8-1.8,1.8h-25.6c-1.2,0-1.8,0.6-1.8,1.8v18.9c0,1.2,0.6,1.8,1.8,1.8h18.3
		c1.2,0,1.8,0.6,1.8,1.8v6.1c0,1.2-0.6,1.8-1.8,1.8h-11c-1.2,0-1.8,0.6-1.8,1.8c0,1.2,0.6,1.8,1.8,1.8h14.6c1.2,0,1.8-0.6,1.8-1.8
		V49.3c0-1.2-0.6-1.8-1.8-1.8h-18.2c-1.2,0-1.8-0.6-1.8-1.8V34.1c0-1.2,0.6-1.8,1.8-1.8h25.5c1.2,0,1.8-0.6,1.8-1.8V16.2
		c0-1.2-0.6-1.8-1.8-1.8h-43.3c-1.2,0-1.8,0.6-1.8,1.8v46.5c0,1.2,0.6,1.8,1.8,1.8h10.4c1.2,0,1.8,0.6,1.8,1.8v17.1
		c0,1.2,0.6,1.8,1.8,1.8h25.6c1.2,0,1.8,0.6,1.8,1.8v7.1c0,1.2-0.6,1.8-1.8,1.8h-36c-1.2,0-1.8-0.6-1.8-1.8V70
		c0-1.2-0.6-1.8-1.8-1.8c-1.2,0-1.8,0.6-1.8,1.8v27.8C200.7,99,201.4,99.6,202.6,99.6L202.6,99.6L202.6,99.6z M261.2,93
		c5.5,5.5,12.1,8.2,19.8,8.2s14.3-2.7,19.8-8.2c5.5-5.5,8.2-12.1,8.2-19.8V40.8c0-7.7-2.7-14.3-8.2-19.8c-5.5-5.5-12.1-8.2-19.8-8.2
		s-14.3,2.7-19.8,8.2c-5.5,5.5-8.2,12.1-8.2,19.8v14.8c0,1,0.5,1.6,1.4,2l11.3,5c0.9,0.4,1.4,1.1,1.4,2.1v8.4c0,3.9,1.4,7.2,4.1,9.9
		c2.7,2.7,6,4.1,9.9,4.1c3.8,0,7.1-1.4,9.9-4.1c2.8-2.7,4.1-6,4.1-9.8V40.8c0-3.8-1.4-7.1-4.1-9.9c-2.7-2.8-6-4.1-9.9-4.1
		c-3.9,0-7.2,1.4-9.9,4.1c-2.7,2.8-4.1,6.1-4.1,9.9v13c0,1.1,0.4,1.8,1.3,2.1l0.5,0.2c0.6,0.2,1,0.2,1.4-0.1
		c0.3-0.3,0.5-0.8,0.5-1.4V40.8c0-2.8,1-5.2,3-7.3c2-2,4.4-3.1,7.3-3.1c2.8,0,5.3,1,7.3,3.1c2,2,3,4.5,3,7.3v32.3c0,2.9-1,5.3-3,7.3
		c-2,2-4.5,3-7.3,3c-2.8,0-5.3-1-7.3-3c-2-2-3-4.5-3-7.3V62.5c0-1-0.4-1.7-1.3-2l-11.4-5.1c-0.9-0.4-1.3-1.1-1.3-2.1V40.8
		c0-6.7,2.4-12.4,7.2-17.2c4.7-4.8,10.4-7.2,17.2-7.2c6.8,0,12.5,2.4,17.2,7.2c4.8,4.8,7.2,10.5,7.2,17.2v32.3
		c0,6.7-2.4,12.5-7.2,17.3c-4.6,4.7-10.3,7.1-17.2,7.1c-6.8,0-12.6-2.4-17.2-7.1c-4.8-4.8-7.2-10.5-7.2-17.3v-9c0-1-0.5-1.7-1.4-2.1
		l-0.5-0.2c-0.6-0.2-1-0.1-1.3,0.1c-0.3,0.3-0.5,0.8-0.5,1.5v9.8C252.9,80.9,255.7,87.5,261.2,93L261.2,93z M318.4,99.6
		c1.2,0,1.8-0.6,1.8-1.8V19.9c0-1.2,0.6-1.8,1.8-1.8h7.3c1.2,0,1.8,0.6,1.8,1.8v77.9c0,1.2,0.6,1.8,1.8,1.8h34.7
		c1.2,0,1.8-0.6,1.8-1.8V84.4c0-1.2-0.6-1.8-1.8-1.8h-27.4c-1.2,0-1.8,0.6-1.8,1.8c0,1.2,0.6,1.8,1.8,1.8h23.7
		c1.2,0,1.8,0.6,1.8,1.8v6.1c0,1.2-0.6,1.8-1.8,1.8h-27.4c-1.2,0-1.8-0.6-1.8-1.8v-78c0-1.2-0.6-1.8-1.8-1.8h-14.7
		c-1.2,0-1.8,0.6-1.8,1.8v81.6C316.5,99,317.1,99.6,318.4,99.6L318.4,99.6z M376.4,98.3c0,0.3,0.1,0.5,0.2,0.7
		c0.3,0.4,0.8,0.6,1.4,0.6H392c1,0,1.7-0.5,2-1.5l25.1-76.6c0.3-0.8,0.7-1.2,1.2-1.2c0.5,0,0.9,0.4,1.2,1.2l23.8,72.4
		c0.2,0.6,0.2,1.1-0.1,1.5c-0.3,0.4-0.8,0.6-1.4,0.6h-7.3c-1,0-1.8-0.5-2.1-1.4l-6.4-19.4c-0.3-1-1-1.5-2-1.5h-14.3
		c-0.7,0-1.1-0.2-1.4-0.6c-0.3-0.4-0.3-0.9,0-1.5l1.8-5.6c0.4-1,1-1.5,2-1.5h8.3c0.7,0,1.1-0.2,1.4-0.6c0.3-0.4,0.3-0.9,0-1.5
		l-6-18.4c-0.3-0.8-0.7-1.3-1.2-1.3s-0.8,0.4-1.1,1.2l-0.2,0.8c-0.2,0.8-0.2,1.6,0,2.4l3.8,11.4c0.2,0.6,0.2,1.1,0,1.5
		c-0.3,0.4-0.7,0.6-1.4,0.6h-6c-1,0-1.7,0.5-2.1,1.4l-4.1,12.9c-0.2,0.6-0.2,1.1,0,1.5c0.3,0.4,0.7,0.6,1.4,0.6h16.8
		c1,0,1.7,0.5,2,1.5l6.3,19.3c0.4,1,1,1.5,2.1,1.5h14.4c0.7,0,1.2-0.2,1.4-0.6c0.2-0.2,0.2-0.4,0.2-0.7c0-0.2-0.1-0.5-0.2-0.8
		l-26.8-81.7c-0.4-1-1.1-1.5-2.1-1.5h-1.7c-1,0-1.7,0.5-2,1.5l-25.9,78.7c-0.4,1-1,1.5-2,1.5h-6.6c-0.7,0-1.2-0.2-1.4-0.6
		c-0.3-0.4-0.3-0.9-0.1-1.5l25.3-77.5c0.2-0.6,0.2-1.1,0-1.4c-0.3-0.4-0.7-0.6-1.2-0.6c-1,0-1.6,0.5-2,1.5l-26.8,81.7
		C376.5,97.8,376.4,98.1,376.4,98.3L376.4,98.3L376.4,98.3z M459,99.6h14c1.2,0,1.9-0.6,1.9-1.8V24.1c0-0.9,0.3-1.4,0.8-1.6
		c0.5-0.1,1,0.2,1.4,1.1l25.4,50.9c0.4,0.9,0.9,1.2,1.4,1.1c0.5-0.1,0.8-0.7,0.8-1.6V19.9c0-1.2,0.6-1.8,1.8-1.8h6.7
		c1.2,0,1.8,0.6,1.8,1.8v74.3c0,1.2-0.6,1.8-1.8,1.8H503c-1,0-1.7-0.5-2.1-1.4l-20.3-40.6c-0.4-0.9-0.9-1.2-1.4-1.1
		c-0.5,0.1-0.8,0.7-0.8,1.6v1.2c0,0.8,0.2,1.6,0.5,2.3l20.3,40.2c0.4,0.9,1.1,1.4,2.1,1.4h15.6c1.2,0,1.8-0.6,1.8-1.8V16.2
		c0-1.2-0.6-1.8-1.8-1.8h-14.1c-1.2,0-1.9,0.6-1.9,1.8v43.3c0,0.9-0.3,1.4-0.8,1.6c-0.5,0.1-1-0.2-1.4-1.1l-22.2-44.2
		c-0.4-0.9-1.1-1.4-2.1-1.4h-1.6c-1.2,0-1.8,0.6-1.8,1.8v78c0,1.2-0.6,1.8-1.8,1.8h-6.7c-1.2,0-1.8-0.6-1.8-1.8v-78
		c0-1.2-0.6-1.8-1.8-1.8c-1.2,0-1.8,0.6-1.8,1.8v81.6C457.1,99,457.7,99.6,459,99.6L459,99.6L459,99.6z M528.7,99.6h25
		c5,0,9.5-1.2,13.7-3.7c4.2-2.5,7.5-5.8,10-10c2.5-4.2,3.7-8.8,3.7-13.7V41.7c0-5-1.2-9.5-3.7-13.7c-2.5-4.2-5.8-7.5-10-10
		c-4.2-2.5-8.8-3.7-13.7-3.7h-11c-1.2,0-1.8,0.6-1.8,1.8v67.4c0,1.2,0.6,1.8,1.8,1.8h9.8c4,0,7.5-1.4,10.3-4.3
		c2.9-2.9,4.3-6.3,4.3-10.3V43.4c0-4-1.4-7.5-4.3-10.4c-2.9-2.9-6.3-4.3-10.4-4.3h-2.7c-1.2,0-1.8,0.6-1.8,1.8
		c0,1.2,0.6,1.8,1.8,1.8h2.7c3,0,5.6,1.1,7.8,3.2c2.1,2.1,3.2,4.7,3.2,7.7v27.4c0,3-1.1,5.6-3.2,7.7c-2.1,2.1-4.7,3.2-7.8,3.2h-6
		c-1.2,0-1.8-0.6-1.8-1.8v-60c0-1.2,0.6-1.8,1.8-1.8h7.3c6.5,0,12.1,2.3,16.7,7c4.6,4.6,6.9,10.2,6.9,16.8v30.5
		c0,6.6-2.3,12.2-7,16.8c-4.6,4.6-10.2,7-16.8,7h-21.4c-1.2,0-1.8-0.6-1.8-1.8v-78c0-1.2-0.6-1.8-1.8-1.8c-1.2,0-1.8,0.6-1.8,1.8
		v81.6C526.8,99,527.5,99.6,528.7,99.6L528.7,99.6L528.7,99.6z"/>
</g>
</svg>
