<?xml version="1.0" encoding="utf-8"?>
<!-- Generator: Adobe Illustrator 24.3.0, SVG Export Plug-In . SVG Version: 6.00 Build 0)  -->
<svg version="1.1" id="Laag_1" xmlns="http://www.w3.org/2000/svg" xmlns:xlink="http://www.w3.org/1999/xlink" x="0px" y="0px"
	 width="393.5px" height="93.7px" viewBox="0 0 393.5 93.7" style="enable-background:new 0 0 393.5 93.7;" xml:space="preserve">
<style type="text/css">
	.st0{fill:#FFFFFF;}
</style>
<g>
	<path class="st0" d="M4.9,24.3V6.8c0-2.4-0.1-3.9-0.4-4.4C4.2,1.9,2.9,1.7,0.6,1.7c-0.3,0-0.4,0-0.5-0.1C0.1,1.5,0.1,1.4,0.1,1.2
		V0.6C0.1,0.2,0.2,0,0.4,0h9.5l2.7,3.7l10.8,14.1l3.8,4.8V6.8c0-1.6-0.1-2.8-0.2-3.6c-0.2-0.7-0.5-1.2-1-1.3s-1.4-0.2-2.8-0.2
		c-0.5,0-0.8,0-0.9-0.1C22.1,1.5,22,1.4,22,1.2V0.4C22,0.2,22.2,0,22.6,0h11.2c0.2,0,0.4,0.1,0.4,0.4v0.8c0,0.2-0.2,0.4-0.7,0.4
		c-1.3,0-2.2,0.1-2.7,0.2c-0.5,0.1-0.8,0.4-0.9,0.8c-0.2,0.6-0.3,2-0.3,4.2v23.3c0,0.3-0.1,0.5-0.3,0.5h-1.9l-1.1-1.6L24.1,26
		L10.8,8.8L7.3,4.7v17.5c0,3.4,0.2,5.4,0.7,5.9c0.2,0.2,0.6,0.4,1.1,0.5c0.5,0.1,1.3,0.2,2.4,0.2c0.5,0,0.8,0.2,0.8,0.5V30
		c0,0.2-0.1,0.3-0.3,0.3H0.4c-0.3,0-0.4-0.1-0.4-0.4v-0.6c0-0.4,0.2-0.6,0.7-0.6c1.4,0,2.4-0.1,2.9-0.3c0.5-0.2,0.8-0.6,1-1.1
		S4.9,25.7,4.9,24.3z"/>
	<path class="st0" d="M41.5,20.2V6.1c0-1.5-0.1-2.5-0.2-3.1S40.8,2,40.3,1.9c-0.5-0.1-1.4-0.2-2.6-0.2c-0.5,0-0.7-0.2-0.7-0.5V0.3
		c0-0.2,0.1-0.2,0.4-0.2h13c0.2,0,0.4,0.1,0.4,0.3V1c0,0.3,0,0.4-0.1,0.5S50.3,1.7,50,1.7c-1.2,0-2,0.1-2.6,0.2s-0.8,0.3-1,0.6
		c-0.1,0.2-0.2,0.4-0.3,0.8C46,4.4,45.8,6,45.8,8v9.1c0,3.4,0.3,5.7,0.8,7.1c0.6,1.4,1.5,2.5,2.7,3.2c1.3,0.7,2.7,1.1,4.2,1.1
		c1.6,0,3.1-0.5,4.4-1.4c1.3-0.9,2.2-2.1,2.7-3.6c0.5-1.5,0.8-3.8,0.8-6.9V9.2c0-2.1-0.1-3.8-0.4-5.3c-0.1-0.7-0.2-1.1-0.4-1.4
		s-0.5-0.5-1.1-0.6c-0.6-0.1-1.4-0.2-2.4-0.2c-0.6,0-0.8-0.2-0.8-0.5V0.5c0-0.3,0.2-0.4,0.6-0.4H68c0.3,0,0.4,0.1,0.4,0.3v0.8
		c0,0.3-0.1,0.4-0.2,0.5c-0.1,0.1-0.4,0.1-0.7,0.1c-0.9,0-1.6,0.1-2.1,0.3c-0.5,0.2-0.8,0.5-1,1C64.1,3.8,64,5.2,64,7.1v11.6
		c0,4.3-1.1,7.4-3.2,9.3c-2.1,1.9-4.8,2.9-7.9,2.9c-3.7,0-6.6-0.9-8.5-2.7C42.5,26.3,41.5,23.7,41.5,20.2z"/>
	<path class="st0" d="M84.5,0h26.6c0.3,0,0.5,0.1,0.5,0.4v7.5c0,0.3-0.1,0.5-0.3,0.5h-1.1c-0.1,0-0.2,0-0.2-0.1S110,8,109.9,7.7
		c-0.4-2.5-0.7-4-1-4.5s-1-0.7-1.9-0.7h-6.9v17.8c0,4.7,0.2,7.3,0.7,7.8c0.2,0.2,0.6,0.4,1.2,0.5s1.5,0.2,2.8,0.2
		c0.4,0,0.7,0.1,0.7,0.3V30c0,0.2-0.1,0.3-0.3,0.3H90.6c-0.3,0-0.4-0.1-0.4-0.4v-0.8c0-0.3,0.2-0.4,0.5-0.4c1.2,0,2.2,0,2.7-0.1
		c0.6-0.1,1-0.2,1.2-0.4s0.4-0.6,0.6-1.3c0.3-1.3,0.4-2.9,0.4-5V2.5h-7c-0.8,0-1.3,0.1-1.6,0.4c-0.3,0.3-0.6,0.8-0.8,1.5
		s-0.4,1.7-0.6,3.1c-0.1,0.6-0.2,0.9-0.5,0.9h-0.8c-0.2,0-0.3-0.1-0.3-0.3V0.7C84.1,0.2,84.2,0,84.5,0z"/>
	<path class="st0" d="M123.9,13.7h8.2c1.6,0,2.6-0.2,3.1-0.7c0.5-0.5,0.7-1.4,0.7-2.9c0-0.6,0.2-0.8,0.5-0.8h0.8
		c0.2,0,0.4,0.2,0.4,0.5v9.7c0,0.3-0.1,0.5-0.4,0.5h-0.9c-0.2,0-0.3-0.2-0.3-0.6c0-1.5-0.2-2.4-0.6-3c-0.4-0.5-1.3-0.8-2.6-0.8h-8.8
		v6.6c0,2,0.1,4.1,0.2,6.2h7.1c2.4,0,4.1-0.2,5.3-0.5c0.6-0.2,1-0.4,1.2-0.7c0.2-0.3,0.3-0.8,0.4-1.4c0.1-0.6,0.1-1.3,0.1-2.2
		c0-0.4,0.1-0.6,0.3-0.6h1.1c0.2,0,0.3,0.1,0.3,0.4V30c0,0.2-0.1,0.3-0.3,0.3h-24.3c-0.2,0-0.3-0.1-0.3-0.4V29
		c0-0.2,0.2-0.3,0.5-0.3c0.8,0,1.5-0.1,2.2-0.2c0.7-0.1,1.1-0.3,1.3-0.5c0.2-0.2,0.3-0.6,0.4-1.1c0.2-1.2,0.3-3.1,0.3-5.6V6.3
		c0-2.2-0.3-3.5-0.8-4s-1.6-0.7-3.2-0.7c-0.5,0-0.7-0.1-0.7-0.3V0.3c0-0.2,0.2-0.3,0.5-0.3h23.1c0.4,0,0.5,0.2,0.5,0.5V6
		c0,0.4-0.1,0.6-0.2,0.6h-1.1c-0.2,0-0.4-0.2-0.4-0.5c0-1.6-0.2-2.7-0.6-3.3s-1.1-0.8-2-0.8h-10.7L124,4l-0.1,2.1V13.7z"/>
	<path class="st0" d="M157.2,6.1V0.8c0-0.3,0-0.5,0.1-0.6c0.1-0.1,0.3-0.1,0.8-0.1h19.8c0.1,0,0.1,0,0.3,0h0.2
		c0.2,0,0.4,0.1,0.4,0.3v1.2c0,0.2-0.5,1-1.4,2.5s-2.4,3.7-4.3,6.6L161.6,28h5.7c3.7,0,6.2-0.1,7.3-0.4c0.7-0.2,1.2-0.5,1.5-1.1
		c0.3-0.6,0.4-1.5,0.6-2.9c0.1-0.7,0.1-1.1,0.2-1.1h1.3c0.2,0,0.3,0.4,0.3,1.2v5.8c0,0.4-0.2,0.6-0.6,0.6h-21.8
		c-0.3,0-0.4-0.1-0.4-0.2v-1.4c6.3-9.1,12.1-17.9,17.3-26.2h-10.1c-0.9,0-1.6,0.1-2.2,0.2c-0.5,0.1-0.9,0.3-1.2,0.6
		s-0.5,0.9-0.7,1.9c-0.1,0.3-0.1,0.5-0.1,0.7c0,0.1-0.1,0.3-0.1,0.5c0,0.6-0.2,0.8-0.4,0.8h-0.6c-0.2,0-0.4-0.1-0.4-0.2
		C157.2,6.9,157.2,6.6,157.2,6.1z"/>
	<path class="st0" d="M181.4,0H195c0.3,0,0.4,0.1,0.4,0.4v0.9c0,0.2-0.2,0.3-0.7,0.3c-2.1,0-3.4,0.3-3.8,0.8
		c-0.2,0.3-0.4,0.8-0.5,1.5s-0.1,1.9-0.1,3.5v16.1c0,1.9,0.1,3.2,0.3,4c0.1,0.4,0.4,0.7,0.9,0.9c0.5,0.1,1.6,0.2,3.3,0.2
		c0.4,0,0.6,0.1,0.6,0.3v0.8c0,0.3,0,0.4-0.1,0.4c0,0-0.2,0.1-0.4,0.1h-13.8c-0.2,0-0.3-0.1-0.3-0.4V29c0-0.3,0.2-0.4,0.5-0.4
		c0.1,0,0.1,0,0.2,0c2.4,0,3.7-0.3,3.9-0.8c0.2-0.4,0.3-1.2,0.3-2.4c0.1-1.2,0.1-3.1,0.1-5.5V5.2c0-1.3-0.1-2.2-0.2-2.6
		c-0.2-0.4-0.6-0.7-1.2-0.8s-1.5-0.2-2.7-0.2c-0.6,0-0.9-0.1-0.9-0.3V0.3C181,0.1,181.1,0,181.4,0z"/>
	<path class="st0" d="M207.2,13.7h8.2c1.6,0,2.6-0.2,3.1-0.7c0.5-0.5,0.7-1.4,0.7-2.9c0-0.6,0.2-0.8,0.5-0.8h0.8
		c0.2,0,0.4,0.2,0.4,0.5v9.7c0,0.3-0.1,0.5-0.4,0.5h-0.9c-0.2,0-0.3-0.2-0.3-0.6c0-1.5-0.2-2.4-0.6-3c-0.4-0.5-1.3-0.8-2.6-0.8h-8.8
		v6.6c0,2,0.1,4.1,0.2,6.2h7.1c2.4,0,4.1-0.2,5.3-0.5c0.6-0.2,1-0.4,1.2-0.7c0.2-0.3,0.3-0.8,0.4-1.4c0.1-0.6,0.1-1.3,0.1-2.2
		c0-0.4,0.1-0.6,0.3-0.6h1.1c0.2,0,0.3,0.1,0.3,0.4V30c0,0.2-0.1,0.3-0.3,0.3h-24.3c-0.2,0-0.3-0.1-0.3-0.4V29
		c0-0.2,0.2-0.3,0.5-0.3c0.8,0,1.5-0.1,2.2-0.2c0.7-0.1,1.1-0.3,1.3-0.5c0.2-0.2,0.3-0.6,0.4-1.1c0.2-1.2,0.3-3.1,0.3-5.6V6.3
		c0-2.2-0.3-3.5-0.8-4s-1.6-0.7-3.2-0.7c-0.5,0-0.7-0.1-0.7-0.3V0.3c0-0.2,0.2-0.3,0.5-0.3h23.1c0.4,0,0.5,0.2,0.5,0.5V6
		c0,0.4-0.1,0.6-0.2,0.6H221c-0.2,0-0.4-0.2-0.4-0.5c0-1.6-0.2-2.7-0.6-3.3S219,2,218,2h-10.7L207.3,4l-0.1,2.1V13.7z"/>
	<path class="st0" d="M231.1,24.3V6.8c0-2.4-0.1-3.9-0.4-4.4s-1.5-0.8-3.8-0.8c-0.3,0-0.4,0-0.5-0.1c-0.1-0.1-0.1-0.2-0.1-0.4V0.6
		c0-0.4,0.1-0.5,0.3-0.5h9.5l2.7,3.7l10.8,14.1l3.8,4.8V6.8c0-1.6-0.1-2.8-0.2-3.6c-0.2-0.7-0.5-1.2-1-1.3s-1.4-0.2-2.8-0.2
		c-0.5,0-0.8,0-0.9-0.1c-0.1-0.1-0.2-0.2-0.2-0.4V0.4c0-0.3,0.2-0.4,0.5-0.4H260c0.2,0,0.4,0.1,0.4,0.4v0.8c0,0.2-0.2,0.4-0.7,0.4
		c-1.3,0-2.2,0.1-2.7,0.2c-0.5,0.1-0.8,0.4-0.9,0.8c-0.2,0.6-0.3,2-0.3,4.2v23.3c0,0.3-0.1,0.5-0.3,0.5h-1.9l-1.1-1.6l-2.2-3.1
		L237.1,8.8l-3.5-4.1v17.5c0,3.4,0.2,5.4,0.7,5.9c0.2,0.2,0.6,0.4,1.1,0.5c0.5,0.1,1.3,0.2,2.4,0.2c0.5,0,0.8,0.2,0.8,0.5V30
		c0,0.2-0.1,0.3-0.3,0.3h-11.6c-0.3,0-0.4-0.1-0.4-0.4v-0.6c0-0.4,0.2-0.6,0.7-0.6c1.4,0,2.4-0.1,2.9-0.3c0.5-0.2,0.8-0.6,1-1.1
		S231.1,25.7,231.1,24.3z"/>
	<path class="st0" d="M0.6,63.1h13.7c0.3,0,0.4,0.1,0.4,0.4v0.9c0,0.2-0.2,0.3-0.7,0.3c-2.1,0-3.4,0.3-3.8,0.8
		c-0.2,0.3-0.4,0.8-0.5,1.5c-0.1,0.7-0.1,1.9-0.1,3.5v16.1c0,1.9,0.1,3.2,0.3,4c0.1,0.4,0.4,0.7,0.9,0.9c0.5,0.1,1.6,0.2,3.3,0.2
		c0.4,0,0.6,0.1,0.6,0.3v0.8c0,0.3,0,0.4-0.1,0.4c0,0-0.2,0.1-0.4,0.1H0.4c-0.2,0-0.3-0.1-0.3-0.4v-0.8c0-0.3,0.2-0.4,0.5-0.4
		c0.1,0,0.1,0,0.2,0c2.4,0,3.7-0.3,3.9-0.8C4.9,90.6,5,89.8,5,88.6c0.1-1.2,0.1-3.1,0.1-5.5V68.3c0-1.3-0.1-2.2-0.2-2.6
		c-0.2-0.4-0.6-0.7-1.2-0.8c-0.6-0.2-1.5-0.2-2.7-0.2c-0.6,0-0.9-0.1-0.9-0.3v-1.1C0.2,63.2,0.3,63.1,0.6,63.1z"/>
	<path class="st0" d="M21.8,87.4V69.9c0-2.4-0.1-3.9-0.4-4.4c-0.3-0.5-1.5-0.8-3.8-0.8c-0.3,0-0.4,0-0.5-0.1
		c-0.1-0.1-0.1-0.2-0.1-0.4v-0.6c0-0.4,0.1-0.5,0.3-0.5h9.5l2.7,3.7L40.4,81l3.8,4.8V69.8c0-1.6-0.1-2.8-0.2-3.6
		c-0.2-0.7-0.5-1.2-1-1.3c-0.5-0.2-1.4-0.2-2.8-0.2c-0.5,0-0.8,0-0.9-0.1c-0.1-0.1-0.2-0.2-0.2-0.4v-0.8c0-0.3,0.2-0.4,0.5-0.4h11.2
		c0.2,0,0.4,0.1,0.4,0.4v0.8c0,0.2-0.2,0.4-0.7,0.4c-1.3,0-2.2,0.1-2.7,0.2c-0.5,0.1-0.8,0.4-0.9,0.8c-0.2,0.6-0.3,2-0.3,4.2v23.3
		c0,0.3-0.1,0.5-0.3,0.5h-1.9l-1.1-1.6L41,89.1L27.8,71.8l-3.5-4.1v17.5c0,3.4,0.2,5.4,0.7,5.9c0.2,0.2,0.6,0.4,1.1,0.5
		c0.5,0.1,1.3,0.2,2.4,0.2c0.5,0,0.8,0.2,0.8,0.5V93c0,0.2-0.1,0.3-0.3,0.3H17.4c-0.3,0-0.4-0.1-0.4-0.4v-0.6c0-0.4,0.2-0.6,0.7-0.6
		c1.4,0,2.4-0.1,2.9-0.3c0.5-0.2,0.8-0.6,1-1.1C21.8,89.7,21.8,88.8,21.8,87.4z"/>
	<path class="st0" d="M71.2,87.5V72.2c0-3.5-0.1-5.7-0.3-6.4c-0.1-0.4-0.4-0.7-0.9-0.9c-0.5-0.1-1.4-0.2-2.7-0.2
		c-0.4,0-0.6,0-0.7-0.1c-0.1-0.1-0.2-0.2-0.2-0.4v-0.8c0-0.2,0-0.3,0.1-0.3c0-0.1,0.2-0.1,0.4-0.1H80c0.2,0,0.4,0.1,0.4,0.3v0.9
		c0,0.3-0.2,0.4-0.6,0.4c-2.1,0-3.2,0.2-3.5,0.6c-0.2,0.3-0.4,1-0.5,2.1c-0.1,1.1-0.2,2.4-0.2,4.1v4.8h15.9v-6.1
		c0-2.1-0.1-3.5-0.4-4.3c-0.1-0.5-0.5-0.8-1-0.9c-0.6-0.2-1.4-0.2-2.5-0.2c-0.5,0-0.8-0.1-0.8-0.3v-0.9c0-0.2,0.1-0.3,0.3-0.3h13
		c0.4,0,0.6,0.1,0.6,0.2v1c0,0.2-0.2,0.4-0.6,0.4c-1.9,0-3,0.2-3.4,0.5c-0.3,0.3-0.4,0.9-0.6,1.7s-0.2,2.1-0.2,3.7v17
		c0,0.9,0.1,1.8,0.4,2.7c0.1,0.5,0.3,0.8,0.6,0.9c0.3,0.1,0.7,0.2,1.2,0.3c0.5,0.1,1.1,0.1,1.8,0.1c0.5,0,0.8,0.1,0.8,0.3v0.8
		c0,0.3-0.1,0.5-0.4,0.5H87.1c-0.2,0-0.3-0.1-0.3-0.2v-1c0-0.3,0.2-0.4,0.5-0.4c1.5,0,2.5-0.1,3-0.2c0.5-0.1,0.7-0.3,0.8-0.5
		c0.1-0.1,0.1-0.4,0.2-0.7c0.2-0.9,0.2-2.4,0.2-4.5v-7.1H75.6v6.6c0,3.7,0.3,5.7,0.8,6c0.2,0.1,0.6,0.2,1.2,0.3
		c0.6,0.1,1.2,0.1,2,0.1c0.1,0,0.2,0,0.2,0c0.3,0,0.5,0.1,0.5,0.4V93c0,0.2-0.1,0.4-0.3,0.4H66.6c-0.1,0-0.2-0.1-0.2-0.3v-0.9
		c0-0.2,0.1-0.4,0.4-0.4c1.3,0,2.2,0,2.7-0.1c0.5-0.1,0.9-0.2,1-0.3c0.1-0.1,0.3-0.4,0.4-0.7C71.1,89.8,71.2,88.8,71.2,87.5z"/>
	<path class="st0" d="M112.4,76.7h8.2c1.6,0,2.6-0.2,3.1-0.7s0.7-1.4,0.7-2.9c0-0.6,0.2-0.8,0.5-0.8h0.8c0.2,0,0.4,0.2,0.4,0.5v9.7
		c0,0.3-0.1,0.5-0.4,0.5h-0.9c-0.2,0-0.3-0.2-0.3-0.6c0-1.5-0.2-2.4-0.6-3c-0.4-0.5-1.3-0.8-2.6-0.8h-8.8v6.6c0,2,0.1,4.1,0.2,6.2
		h7.1c2.4,0,4.1-0.2,5.3-0.5c0.6-0.2,1-0.4,1.2-0.7c0.2-0.3,0.3-0.8,0.4-1.4c0.1-0.6,0.1-1.3,0.1-2.2c0-0.4,0.1-0.6,0.3-0.6h1.1
		c0.2,0,0.3,0.1,0.3,0.4v6.7c0,0.2-0.1,0.3-0.3,0.3h-24.3c-0.2,0-0.3-0.1-0.3-0.4V92c0-0.2,0.2-0.3,0.5-0.3c0.8,0,1.5-0.1,2.2-0.2
		s1.1-0.3,1.3-0.5c0.2-0.2,0.3-0.6,0.4-1.1c0.2-1.2,0.3-3.1,0.3-5.6V69.4c0-2.2-0.3-3.5-0.8-4c-0.5-0.5-1.6-0.7-3.2-0.7
		c-0.5,0-0.7-0.1-0.7-0.3v-1.1c0-0.2,0.2-0.3,0.5-0.3h23.1c0.4,0,0.5,0.2,0.5,0.5v5.5c0,0.4-0.1,0.6-0.2,0.6h-1.1
		c-0.2,0-0.4-0.2-0.4-0.5c0-1.6-0.2-2.7-0.6-3.3c-0.4-0.5-1.1-0.8-2-0.8h-10.7l-0.1,2.1l-0.1,2.1V76.7z"/>
	<path class="st0" d="M132.7,63.1h26.6c0.3,0,0.5,0.1,0.5,0.4V71c0,0.3-0.1,0.5-0.3,0.5h-1.1c-0.1,0-0.2,0-0.2-0.1s-0.1-0.3-0.1-0.6
		c-0.4-2.5-0.7-4-1-4.5c-0.3-0.5-1-0.7-1.9-0.7h-6.9v17.8c0,4.7,0.2,7.3,0.7,7.8c0.2,0.2,0.6,0.4,1.2,0.5s1.5,0.2,2.8,0.2
		c0.4,0,0.7,0.1,0.7,0.3v1.1c0,0.2-0.1,0.3-0.3,0.3h-14.4c-0.3,0-0.4-0.1-0.4-0.4v-0.8c0-0.3,0.2-0.4,0.5-0.4c1.2,0,2.2,0,2.7-0.1
		c0.6-0.1,1-0.2,1.2-0.4c0.2-0.2,0.4-0.6,0.6-1.3c0.3-1.3,0.4-2.9,0.4-5V65.5h-7c-0.8,0-1.3,0.1-1.6,0.4c-0.3,0.3-0.6,0.8-0.8,1.5
		s-0.4,1.7-0.6,3.1c-0.1,0.6-0.2,0.9-0.5,0.9h-0.8c-0.2,0-0.3-0.1-0.3-0.3v-7.4C132.3,63.3,132.5,63.1,132.7,63.1z"/>
	<path class="st0" d="M176.6,63.1h26.6c0.3,0,0.5,0.1,0.5,0.4V71c0,0.3-0.1,0.5-0.3,0.5h-1.1c-0.1,0-0.2,0-0.2-0.1s-0.1-0.3-0.1-0.6
		c-0.4-2.5-0.7-4-1-4.5c-0.3-0.5-1-0.7-1.9-0.7h-6.9v17.8c0,4.7,0.2,7.3,0.7,7.8c0.2,0.2,0.6,0.4,1.2,0.5s1.5,0.2,2.8,0.2
		c0.4,0,0.7,0.1,0.7,0.3v1.1c0,0.2-0.1,0.3-0.3,0.3h-14.4c-0.3,0-0.4-0.1-0.4-0.4v-0.8c0-0.3,0.2-0.4,0.5-0.4c1.2,0,2.2,0,2.7-0.1
		c0.6-0.1,1-0.2,1.2-0.4c0.2-0.2,0.4-0.6,0.6-1.3c0.3-1.3,0.4-2.9,0.4-5V65.5h-7c-0.8,0-1.3,0.1-1.6,0.4c-0.3,0.3-0.6,0.8-0.8,1.5
		s-0.4,1.7-0.6,3.1c-0.1,0.6-0.2,0.9-0.5,0.9h-0.8c-0.2,0-0.3-0.1-0.3-0.3v-7.4C176.2,63.3,176.3,63.1,176.6,63.1z"/>
	<path class="st0" d="M211.5,87.5V72.2c0-3.5-0.1-5.7-0.3-6.4c-0.1-0.4-0.4-0.7-0.9-0.9c-0.5-0.1-1.4-0.2-2.7-0.2
		c-0.4,0-0.6,0-0.7-0.1c-0.1-0.1-0.2-0.2-0.2-0.4v-0.8c0-0.2,0-0.3,0.1-0.3c0-0.1,0.2-0.1,0.4-0.1h13.1c0.2,0,0.4,0.1,0.4,0.3v0.9
		c0,0.3-0.2,0.4-0.6,0.4c-2.1,0-3.2,0.2-3.5,0.6c-0.2,0.3-0.4,1-0.5,2.1s-0.2,2.4-0.2,4.1v4.8h15.9v-6.1c0-2.1-0.1-3.5-0.4-4.3
		c-0.1-0.5-0.5-0.8-1-0.9c-0.6-0.2-1.4-0.2-2.5-0.2c-0.5,0-0.8-0.1-0.8-0.3v-0.9c0-0.2,0.1-0.3,0.3-0.3h13c0.4,0,0.6,0.1,0.6,0.2v1
		c0,0.2-0.2,0.4-0.6,0.4c-1.9,0-3,0.2-3.4,0.5c-0.3,0.3-0.4,0.9-0.6,1.7c-0.1,0.9-0.2,2.1-0.2,3.7v17c0,0.9,0.1,1.8,0.4,2.7
		c0.1,0.5,0.3,0.8,0.6,0.9c0.3,0.1,0.7,0.2,1.2,0.3c0.5,0.1,1.1,0.1,1.8,0.1c0.5,0,0.8,0.1,0.8,0.3v0.8c0,0.3-0.1,0.5-0.4,0.5h-13.2
		c-0.2,0-0.3-0.1-0.3-0.2v-1c0-0.3,0.2-0.4,0.5-0.4c1.5,0,2.5-0.1,3-0.2c0.5-0.1,0.7-0.3,0.8-0.5c0.1-0.1,0.1-0.4,0.2-0.7
		c0.2-0.9,0.2-2.4,0.2-4.5v-7.1h-15.9v6.6c0,3.7,0.3,5.7,0.8,6c0.2,0.1,0.6,0.2,1.2,0.3c0.6,0.1,1.2,0.1,2,0.1c0.1,0,0.2,0,0.2,0
		c0.3,0,0.5,0.1,0.5,0.4V93c0,0.2-0.1,0.4-0.3,0.4h-13.5c-0.1,0-0.2-0.1-0.2-0.3v-0.9c0-0.2,0.1-0.4,0.4-0.4c1.3,0,2.2,0,2.7-0.1
		c0.5-0.1,0.9-0.2,1-0.3c0.1-0.1,0.3-0.4,0.4-0.7C211.4,89.8,211.5,88.8,211.5,87.5z"/>
	<path class="st0" d="M252.7,76.7h8.2c1.6,0,2.6-0.2,3.1-0.7c0.5-0.5,0.7-1.4,0.7-2.9c0-0.6,0.2-0.8,0.5-0.8h0.8
		c0.2,0,0.4,0.2,0.4,0.5v9.7c0,0.3-0.1,0.5-0.4,0.5h-0.9c-0.2,0-0.3-0.2-0.3-0.6c0-1.5-0.2-2.4-0.6-3c-0.4-0.5-1.3-0.8-2.6-0.8h-8.8
		v6.6c0,2,0.1,4.1,0.2,6.2h7.1c2.4,0,4.1-0.2,5.3-0.5c0.6-0.2,1-0.4,1.2-0.7c0.2-0.3,0.3-0.8,0.4-1.4s0.1-1.3,0.1-2.2
		c0-0.4,0.1-0.6,0.3-0.6h1.1c0.2,0,0.3,0.1,0.3,0.4v6.7c0,0.2-0.1,0.3-0.3,0.3h-24.3c-0.2,0-0.3-0.1-0.3-0.4V92
		c0-0.2,0.2-0.3,0.5-0.3c0.8,0,1.5-0.1,2.2-0.2c0.7-0.1,1.1-0.3,1.3-0.5c0.2-0.2,0.3-0.6,0.4-1.1c0.2-1.2,0.3-3.1,0.3-5.6V69.4
		c0-2.2-0.3-3.5-0.8-4s-1.6-0.7-3.2-0.7c-0.5,0-0.7-0.1-0.7-0.3v-1.1c0-0.2,0.2-0.3,0.5-0.3h23.1c0.4,0,0.5,0.2,0.5,0.5v5.5
		c0,0.4-0.1,0.6-0.2,0.6h-1.1c-0.2,0-0.4-0.2-0.4-0.5c0-1.6-0.2-2.7-0.6-3.3s-1.1-0.8-2-0.8h-10.7l-0.1,2.1l-0.1,2.1V76.7z"/>
	<path class="st0" d="M288.3,62.5h2l8.7,19.9c1.9,4.1,3.1,6.6,3.5,7.3c0.4,0.7,0.7,1.2,1.1,1.5c0.4,0.3,0.8,0.5,1.2,0.5h0.7
		c0.3,0,0.4,0.1,0.4,0.3v1l-0.2,0.2c0,0-0.1,0-0.1,0c-0.1,0.1-0.2,0.1-0.2,0.1h-11.9c-0.2,0-0.4-0.2-0.4-0.5v-0.8
		c0-0.2,0.1-0.4,0.4-0.4h1.3c1.5,0,2.3-0.5,2.3-1.6c0-0.5-0.2-1.1-0.5-1.9l-1.8-4.5h-13.3l-2.2,5.2c-0.2,0.4-0.3,0.8-0.3,1.2
		c0,1.1,0.7,1.6,2.2,1.6h1.1c0.3,0,0.5,0.2,0.5,0.5V93c0,0.2-0.1,0.4-0.3,0.4h-10.1c-0.2,0-0.2-0.2-0.2-0.5v-0.8
		c0-0.2,0.1-0.4,0.3-0.4h0.6c1.1,0,2.4-1.4,3.8-4.3L288.3,62.5z M288.1,68.2l-5.9,13.6h11.7L288.1,68.2z"/>
	<path class="st0" d="M306.2,63.1h26.6c0.3,0,0.5,0.1,0.5,0.4V71c0,0.3-0.1,0.5-0.3,0.5h-1.1c-0.1,0-0.2,0-0.2-0.1
		c0-0.1-0.1-0.3-0.1-0.6c-0.4-2.5-0.7-4-1-4.5s-1-0.7-1.9-0.7h-6.9v17.8c0,4.7,0.2,7.3,0.7,7.8c0.2,0.2,0.6,0.4,1.2,0.5
		s1.5,0.2,2.8,0.2c0.4,0,0.7,0.1,0.7,0.3v1.1c0,0.2-0.1,0.3-0.3,0.3h-14.4c-0.3,0-0.4-0.1-0.4-0.4v-0.8c0-0.3,0.2-0.4,0.5-0.4
		c1.2,0,2.2,0,2.7-0.1c0.6-0.1,1-0.2,1.2-0.4c0.2-0.2,0.4-0.6,0.6-1.3c0.3-1.3,0.4-2.9,0.4-5V65.5h-7c-0.8,0-1.3,0.1-1.6,0.4
		s-0.6,0.8-0.8,1.5c-0.2,0.7-0.4,1.7-0.6,3.1c-0.1,0.6-0.2,0.9-0.5,0.9h-0.8c-0.2,0-0.3-0.1-0.3-0.3v-7.4
		C305.7,63.3,305.9,63.1,306.2,63.1z"/>
	<path class="st0" d="M345.6,76.7h8.2c1.6,0,2.6-0.2,3.1-0.7c0.5-0.5,0.7-1.4,0.7-2.9c0-0.6,0.2-0.8,0.5-0.8h0.8
		c0.2,0,0.4,0.2,0.4,0.5v9.7c0,0.3-0.1,0.5-0.4,0.5H358c-0.2,0-0.3-0.2-0.3-0.6c0-1.5-0.2-2.4-0.6-3c-0.4-0.5-1.3-0.8-2.6-0.8h-8.8
		v6.6c0,2,0.1,4.1,0.2,6.2h7.1c2.4,0,4.1-0.2,5.3-0.5c0.6-0.2,1-0.4,1.2-0.7c0.2-0.3,0.3-0.8,0.4-1.4s0.1-1.3,0.1-2.2
		c0-0.4,0.1-0.6,0.3-0.6h1.1c0.2,0,0.3,0.1,0.3,0.4v6.7c0,0.2-0.1,0.3-0.3,0.3h-24.3c-0.2,0-0.3-0.1-0.3-0.4V92
		c0-0.2,0.2-0.3,0.5-0.3c0.8,0,1.5-0.1,2.2-0.2c0.7-0.1,1.1-0.3,1.3-0.5c0.2-0.2,0.3-0.6,0.4-1.1c0.2-1.2,0.3-3.1,0.3-5.6V69.4
		c0-2.2-0.3-3.5-0.8-4s-1.6-0.7-3.2-0.7c-0.5,0-0.7-0.1-0.7-0.3v-1.1c0-0.2,0.2-0.3,0.5-0.3h23.1c0.4,0,0.5,0.2,0.5,0.5v5.5
		c0,0.4-0.1,0.6-0.2,0.6h-1.1c-0.2,0-0.4-0.2-0.4-0.5c0-1.6-0.2-2.7-0.6-3.3c-0.4-0.5-1.1-0.8-2-0.8h-10.7l-0.1,2.1l-0.1,2.1V76.7z"
		/>
	<path class="st0" d="M373.5,78.6v6.7c0,3.6,0.2,5.6,0.7,5.9c0.2,0.1,0.6,0.2,1.2,0.3c0.6,0.1,1.4,0.1,2.4,0.1
		c0.4,0,0.5,0.1,0.5,0.3V93c0,0.2-0.1,0.3-0.4,0.3h-12.7c-0.2,0-0.3-0.1-0.3-0.3v-0.8c0-0.4,0.3-0.5,0.9-0.5c1.8,0,2.8-0.2,3-0.7
		c0.1-0.4,0.2-1.2,0.3-2.4c0.1-1.2,0.1-2.7,0.1-4.4V71.5c0-2.5-0.1-4.2-0.2-5c-0.1-0.9-0.4-1.4-0.8-1.5c-0.4-0.2-1.2-0.2-2.4-0.2
		c-0.6,0-0.8-0.2-0.8-0.5v-0.8c0-0.2,0.1-0.3,0.4-0.3h14.5c1.6,0,3.2,0.3,4.6,0.9c1.5,0.6,2.6,1.5,3.4,2.6c0.8,1.2,1.2,2.4,1.2,3.8
		c0,1.8-0.6,3.3-1.8,4.6s-2.9,2.2-5.1,2.8c2,3.1,3.9,6,5.8,8.8c1.9,2.7,3.1,4.3,3.6,4.6c0.3,0.2,0.8,0.4,1.4,0.5
		c0.5,0.1,0.7,0.2,0.7,0.5V93c0,0.2-0.2,0.4-0.5,0.4h-6.4c-0.2,0-0.4-0.3-0.7-0.9c-1.3-2.9-4.1-7.6-8.4-13.9l-2.3,0.2H373.5z
		 M373.5,64.8v12.1h0.6c3.4,0,5.9-0.5,7.5-1.6c1.6-1,2.4-2.7,2.4-4.9c0-1.2-0.3-2.2-0.8-3.2c-0.5-0.9-1.3-1.6-2.3-2
		c-1-0.4-2.6-0.6-4.7-0.6L373.5,64.8z"/>
</g>
</svg>
