<?xml version="1.0" encoding="utf-8"?>
<!-- Generator: Adobe Illustrator 24.3.0, SVG Export Plug-In . SVG Version: 6.00 Build 0)  -->
<svg version="1.1" id="Laag_1" xmlns="http://www.w3.org/2000/svg" xmlns:xlink="http://www.w3.org/1999/xlink" x="0px" y="0px"
	 width="238.8px" height="25.8px" viewBox="0 0 238.8 25.8" style="enable-background:new 0 0 238.8 25.8;" xml:space="preserve">
<style type="text/css">
	.st0{fill:#FFFFFF;}
</style>
<g>
	<path class="st0" d="M218.2,13.5h9.4v9.3h1.7v-9.3h9.4v-1.7h-9.4V2.5h-1.7v9.4h-9.4V13.5z M211.2,3.7c-1.1-0.9-2.6-1.4-4.5-1.4
		c-2,0-3.6,0.5-4.9,1.6c-1.3,1.1-1.9,2.5-1.9,4.2c0,2.1,1.2,3.9,3.7,5.3c-3.3,1.5-5,3.6-5,6.2c0,1.8,0.7,3.2,2,4.3s3.1,1.7,5.3,1.7
		c2.5,0,4.4-0.6,5.9-1.8c1.5-1.2,2.3-2.8,2.3-4.7c0-1.3-0.4-2.5-1.2-3.5s-2.2-2-4.3-3.1c1.5-0.8,2.6-1.6,3.2-2.4
		c0.6-0.8,1-1.8,1-2.9C212.9,5.8,212.3,4.6,211.2,3.7 M205.6,14.4c2,1.1,3.3,1.8,4,2.3s1.1,1,1.4,1.5c0.3,0.5,0.4,1.1,0.4,1.8
		c0,1.2-0.4,2.2-1.4,3c-0.9,0.8-2,1.3-3.4,1.3c-1.5,0-2.7-0.5-3.6-1.4c-0.9-0.9-1.4-2.2-1.4-3.8c0-1.1,0.3-2.2,0.9-3.1
		c0.6-0.9,1.4-1.6,2.4-1.9L205.6,14.4z M209.1,4.7c0.7,0.8,1,1.7,1,2.9c0,1.9-0.9,3.3-2.8,4.2c-0.2-0.1-0.4-0.2-0.7-0.4
		c-1.6-0.8-2.7-1.6-3.2-2.2s-0.8-1.3-0.8-2.1c0-1,0.3-1.8,1-2.5s1.6-1,2.6-1C207.5,3.5,208.4,3.9,209.1,4.7 M183,24.9v-0.7
		c0-0.1-0.4-0.2-1.1-0.2c-0.9,0-1.7-0.1-2.5-0.2c-0.1-2.5-0.2-4.7-0.2-6.6v-1.4c0.2-1.2,0.8-2.3,1.7-3.1c0.9-0.9,1.8-1.3,2.6-1.3
		s1.4,0.4,1.7,1.3c0.1,0.3,0.2,0.4,0.2,0.4h0.8c0.2,0,0.3-1.2,0.3-3.6c0-0.3-0.4-0.5-1.3-0.5c-1.2,0-2.2,0.3-3.1,0.9
		c-0.9,0.6-1.9,1.6-2.9,3.1h-0.1V9.6c0-0.3-0.1-0.5-0.2-0.5h-0.3c-2,0.2-3.5,0.3-4.5,0.3c-0.3,0-0.5,0.1-0.5,0.2v0.7
		c0,0.2,0.2,0.2,0.5,0.2h0.6c0.5,0,0.9,0,1,0.1c0.2,0.1,0.3,0.8,0.4,2.2c0.1,1.4,0.1,3,0.1,4.9c0,2.6-0.1,4.3-0.3,5
		c-0.2,0.8-0.7,1.2-1.6,1.2c-0.5,0-0.7,0.1-0.7,0.3v0.6c0,0.2,0.1,0.2,0.4,0.2h8.3C182.8,25.2,183,25.1,183,24.9 M170.7,21.1
		c-0.1,0-0.3,0.1-0.4,0.4c-0.4,0.6-1,1.1-1.7,1.5s-1.4,0.6-2.2,0.6c-1.7,0-3.1-0.7-4.1-2s-1.6-3-1.6-5.1c0-0.3,0-0.6,0-0.9h10.2
		c0.4,0,0.6-0.1,0.7-0.3c0.1-0.2,0.2-0.5,0.2-1c0-1.5-0.6-2.8-1.8-3.8s-2.7-1.6-4.5-1.6c-2.2,0-4.1,0.9-5.6,2.7s-2.3,3.9-2.3,6.3
		c0,2.3,0.7,4.1,2.1,5.6c1.4,1.5,3.1,2.2,5.3,2.2c1.4,0,2.7-0.4,3.9-1.1s2-1.6,2.5-2.7c0.1-0.1,0.1-0.2,0.1-0.3c0-0.1,0-0.2-0.1-0.2
		L170.7,21.1L170.7,21.1 M162.4,11.3c0.8-0.9,1.8-1.3,2.9-1.3c0.9,0,1.7,0.3,2.4,1c0.6,0.7,0.9,1.5,0.9,2.5c0,0.6-0.1,0.9-0.3,0.9
		H161C161.1,13.2,161.6,12.2,162.4,11.3 M149.2,4.6c-0.1,0.1-0.2,0.4-0.4,0.9c-0.7,2.1-2,3.4-3.7,3.8c-0.3,0.1-0.4,0.1-0.4,0.1
		s-0.1,0.1-0.1,0.3v0.7c0,0.2,0.1,0.3,0.3,0.3h2.5c0,4-0.1,7.5-0.3,10.5v0.6c0,1.3,0.3,2.2,1,2.9s1.6,1,2.8,1c0.8,0,1.5-0.2,2.2-0.5
		s1.2-0.8,1.6-1.4c0.4-0.6,0.6-1.1,0.6-1.5c0-0.1,0-0.2-0.1-0.2l-0.6-0.2h-0.1c-0.2,0-0.3,0.1-0.4,0.4c-0.2,0.5-0.5,0.9-0.9,1.2
		c-0.4,0.3-0.9,0.5-1.3,0.5c-0.8,0-1.3-0.3-1.6-0.9s-0.5-1.7-0.5-3.3l0.1-9.1h5.1c0.2,0,0.3-0.1,0.3-0.3V9.7c0-0.2-0.1-0.3-0.4-0.3
		h-5V4.8c0-0.2-0.1-0.4-0.2-0.4h-0.5C149.4,4.4,149.3,4.5,149.2,4.6 M129.7,13.6c0.1,0,0.2-0.1,0.3-0.3c0.5-0.8,1.2-1.5,2-2
		s1.6-0.7,2.4-0.7c2.1,0,3.1,1.2,3.1,3.7v1.2c-3.8,0.9-6.4,1.9-7.6,3.1c-1.2,1.1-1.8,2.4-1.8,3.6c0,1,0.3,1.8,1,2.5s1.6,1,2.6,1
		c1.7,0,3.6-0.9,5.7-2.7v2.1c0,0.3,0.1,0.4,0.3,0.4c0,0,0.1,0,0.3,0c1.3-0.2,2.7-0.3,4.4-0.3c0.2,0,0.3-0.1,0.3-0.3l0.1-0.6
		c0-0.2-0.1-0.2-0.3-0.2c-0.8,0-1.3,0-1.6-0.1c-0.2-0.1-0.4-0.2-0.5-0.5s-0.1-1-0.1-2.2c0-1.4,0.1-3.5,0.2-6.3l0.1-1.5
		c0-1.5-0.5-2.6-1.4-3.4c-0.9-0.8-2.1-1.2-3.7-1.2c-1.1,0-2.1,0.2-3.1,0.7c-1,0.4-1.8,1.1-2.5,1.8c-0.7,0.8-1,1.4-1,1.7
		c0,0.1,0.1,0.2,0.2,0.2l0.3,0.2C129.6,13.5,129.6,13.6,129.7,13.6 M137.4,21.4c-0.8,0.9-1.6,1.4-2.2,1.8c-0.6,0.3-1.2,0.5-1.8,0.5
		c-0.7,0-1.2-0.2-1.6-0.6c-0.4-0.4-0.6-1-0.6-1.7c0-0.6,0.2-1.2,0.7-1.9c0.5-0.6,1.2-1.2,2.1-1.6c0.9-0.4,2.1-0.8,3.5-1.1V19
		C137.6,19.8,137.5,20.6,137.4,21.4 M124.8,21.1c-0.1,0-0.3,0.1-0.4,0.4c-0.4,0.6-1,1.1-1.7,1.5s-1.4,0.6-2.2,0.6
		c-1.7,0-3.1-0.7-4.1-2s-1.6-3-1.6-5.1c0-0.3,0-0.6,0-0.9H125c0.4,0,0.6-0.1,0.7-0.3s0.2-0.5,0.2-1c0-1.5-0.6-2.8-1.8-3.8
		c-1.2-1.1-2.7-1.6-4.5-1.6c-2.2,0-4.1,0.9-5.6,2.7s-2.3,3.9-2.3,6.3c0,2.3,0.7,4.1,2.1,5.6s3.1,2.2,5.3,2.2c1.4,0,2.7-0.4,3.9-1.1
		c1.2-0.7,2-1.6,2.5-2.7c0.1-0.1,0.1-0.2,0.1-0.3c0-0.1,0-0.2-0.1-0.2L124.8,21.1L124.8,21.1 M116.5,11.3c0.8-0.9,1.8-1.3,2.9-1.3
		c0.9,0,1.7,0.3,2.4,1c0.6,0.7,1,1.5,1,2.5c0,0.6-0.1,0.9-0.3,0.9H115C115.2,13.2,115.7,12.2,116.5,11.3 M93.2,21.9
		c-0.1,0.8-0.2,1.3-0.4,1.6c-0.2,0.4-0.9,0.5-2.2,0.5c-0.2,0-0.3,0.1-0.3,0.4v0.5c0,0.2,0.1,0.3,0.4,0.3h8.2c0.2,0,0.3-0.1,0.3-0.3
		v-0.5c0-0.2-0.2-0.3-0.5-0.3c-0.5,0-1,0-1.4-0.1c-0.4,0-0.7-0.1-0.8-0.2c-0.2-0.1-0.3-2.4-0.3-6.8v-3c1.2-2.1,2.7-3.1,4.4-3.1
		c1.3,0,2.2,0.5,2.7,1.4s0.8,2.5,0.8,4.7c0,1.7,0,3-0.1,4.2c-0.1,1.1-0.2,1.9-0.4,2.2c-0.2,0.4-0.7,0.6-1.6,0.6c-0.4,0-0.6,0-0.7,0
		s-0.2,0.1-0.2,0.2v0.6c0,0.2,0.1,0.3,0.4,0.3h7.6c0.3,0,0.4-0.1,0.4-0.3v-0.6c0-0.2-0.2-0.2-0.7-0.2c-0.6,0-1.1-0.1-1.8-0.3
		c-0.1-1.4-0.2-2.7-0.2-3.9c0-0.9,0-2,0.1-3.4l0.1-2.6c0-3.3-1.5-5-4.5-5c-2.2,0-4.3,1.1-6.3,3.2V7.2l0.2-5.5l0.1-1.4
		c0-0.2-0.1-0.3-0.3-0.3c-0.1,0-0.3,0-0.6,0.1c-1.5,0.2-2.9,0.2-4,0.2c-0.3,0-0.5,0-0.6,0.1c-0.1,0-0.2,0.1-0.2,0.3v0.5
		c0,0.2,0.1,0.4,0.4,0.4c1.2,0,1.8,0.1,1.9,0.2C92.9,1.7,93,1.9,93,2.1c0.1,0.2,0.1,0.5,0.1,0.9c0.1,1,0.2,2.1,0.2,3.3v13.2
		C93.3,20.3,93.3,21.1,93.2,21.9 M82.2,4.6C82.1,4.7,82,5,81.8,5.5c-0.7,2.1-2,3.4-3.7,3.8c-0.3,0.1-0.4,0.1-0.4,0.1
		s-0.1,0.1-0.1,0.3v0.7c0,0.2,0.1,0.3,0.3,0.3h2.5c0,4-0.1,7.5-0.3,10.5v0.6c0,1.3,0.3,2.2,1,2.9c0.7,0.7,1.6,1,2.8,1
		c0.8,0,1.5-0.2,2.2-0.5s1.2-0.8,1.6-1.4s0.6-1.1,0.6-1.5c0-0.1,0-0.2-0.1-0.2L87.7,22h-0.1c-0.2,0-0.3,0.1-0.4,0.4
		c-0.2,0.5-0.5,0.9-0.9,1.2C85.9,23.9,85.5,24,85,24c-0.8,0-1.3-0.3-1.6-0.9c-0.3-0.6-0.5-1.7-0.5-3.3l0.1-9.1h5.1
		c0.2,0,0.3-0.1,0.3-0.3V9.7c0-0.2-0.1-0.3-0.4-0.3h-5V4.8c0-0.2-0.1-0.4-0.2-0.4h-0.5C82.3,4.4,82.2,4.5,82.2,4.6 M63.9,20.9v3.9
		c1.4,0.6,2.9,1,4.6,1c2.1,0,3.7-0.4,5-1.3s1.9-2.1,1.9-3.6c0-0.9-0.3-1.8-0.9-2.5s-1.8-1.5-3.6-2.3c-1.4-0.6-2.4-1.2-2.9-1.7
		s-0.8-1.1-0.8-1.7c0-0.7,0.3-1.4,0.9-1.9s1.4-0.8,2.2-0.8c0.9,0,1.6,0.3,2.3,0.8c0.6,0.6,1,1.2,1,2.1c0,0.3,0.1,0.5,0.3,0.5h0.6
		c0.2,0,0.3-0.1,0.3-0.2V9.5c-1.6-0.5-3-0.7-4.4-0.7c-1.9,0-3.5,0.4-4.8,1.3c-1.2,0.8-1.8,1.9-1.8,3.1c0,0.9,0.3,1.7,0.8,2.4
		s1.7,1.4,3.5,2.3c1.6,0.7,2.7,1.4,3.2,1.9c0.5,0.6,0.8,1.2,0.8,1.9c0,0.8-0.3,1.5-1,2c-0.6,0.6-1.5,0.8-2.4,0.8
		c-1.1,0-1.9-0.3-2.6-1S65,22,65,20.9c0-0.2-0.1-0.3-0.2-0.3h-0.7C64,20.7,63.9,20.7,63.9,20.9 M47.6,9.2L47.6,9.2
		c-1.2,0.1-2.7,0.2-4.8,0.3c-0.3,0-0.4,0-0.5,0s-0.1,0.1-0.1,0.2v0.6c0,0.1,0,0.2,0,0.2s0.1,0,0.3,0c0.5,0,1,0,1.3,0.1
		s0.5,0.1,0.7,0.2c0.3,0.3,0.5,2.2,0.5,5.7c0,2.1-0.1,3.8-0.2,5c-0.1,1.2-0.3,1.9-0.6,2.1C44,23.8,43.4,24,42.6,24
		c-0.3,0-0.5,0-0.6,0s0,0.2,0,0.3V25c0,0.1,0.1,0.2,0.4,0.2h8.3c0.2,0,0.3-0.1,0.3-0.2v-0.6c0-0.2-0.2-0.3-0.6-0.3
		c-1.1,0-1.9-0.1-2.5-0.2l-0.1-5.5v-3.2c0.2-1.1,0.8-2.1,1.8-3c0.9-0.8,1.9-1.3,2.9-1.3c0.8,0,1.4,0.2,2,0.8
		c0.5,0.5,0.9,1.1,1.1,1.8c0.2,0.7,0.3,1.7,0.3,3.1c0,2.2-0.1,4-0.3,5.4c-0.1,1-0.3,1.6-0.5,1.8c-0.2,0.2-0.7,0.3-1.3,0.3
		s-0.9,0.1-0.9,0.3V25c0,0.2,0.1,0.3,0.4,0.3h7.6c0.2,0,0.3-0.1,0.3-0.3v-0.6c0-0.2-0.2-0.2-0.7-0.2c-0.7,0-1.3-0.1-1.8-0.2
		l-0.1-2.5v-1.1l0.1-2.8l0.1-4c0-1.5-0.4-2.6-1.1-3.4C57,9.4,55.9,9,54.5,9c-2.4,0-4.5,1.2-6.4,3.5H48V9.6
		C47.9,9.3,47.8,9.2,47.6,9.2 M26.9,13.6c0.1,0,0.2-0.1,0.3-0.3c0.5-0.8,1.2-1.5,2-2s1.6-0.7,2.4-0.7c2.1,0,3.1,1.2,3.1,3.7v1.2
		c-3.8,0.9-6.4,1.9-7.6,3.1c-1.2,1.1-1.8,2.4-1.8,3.6c0,1,0.3,1.8,1,2.5s1.6,1,2.6,1c1.7,0,3.6-0.9,5.7-2.7v2.1
		c0,0.3,0.1,0.4,0.3,0.4c0,0,0.1,0,0.3,0c1.3-0.2,2.7-0.3,4.4-0.3c0.2,0,0.3-0.1,0.3-0.3l0.1-0.6c0-0.2-0.1-0.2-0.3-0.2
		c-0.8,0-1.3,0-1.6-0.1c-0.2-0.1-0.4-0.2-0.5-0.5s-0.1-1-0.1-2.2c0-1.4,0.1-3.5,0.2-6.3l0.1-1.5c0-1.5-0.5-2.6-1.4-3.4
		c-0.9-0.8-2.1-1.2-3.7-1.2c-1.1,0-2.1,0.2-3.1,0.7c-1,0.4-1.8,1.1-2.5,1.8c-0.7,0.8-1,1.4-1,1.7c0,0.1,0.1,0.2,0.2,0.2l0.3,0.2
		C26.8,13.5,26.9,13.6,26.9,13.6 M34.6,21.4c-0.9,0.9-1.6,1.4-2.2,1.8c-0.6,0.3-1.2,0.5-1.8,0.5c-0.7,0-1.2-0.2-1.6-0.6
		s-0.6-1-0.6-1.7c0-0.6,0.2-1.2,0.7-1.9c0.5-0.6,1.2-1.2,2.1-1.6s2.1-0.8,3.5-1.1V19C34.8,19.8,34.7,20.6,34.6,21.4 M0.3,3.9h0.8
		c0.6,0,1.1,0.1,1.5,0.3C3,4.4,3.3,4.9,3.4,5.9c0.1,1,0.2,2.5,0.2,4.7v6.7c0,2.6-0.1,4.3-0.2,5.1c-0.2,0.7-0.5,1.2-0.9,1.4
		C2,23.9,1.5,24,0.9,24H0.3C0.1,24,0,24,0,24.1v0.7c0,0.2,0.2,0.3,0.4,0.3h9.9c3.7,0,6.7-1,8.9-3.1s3.3-4.8,3.3-8.3
		c0-3.2-1.1-5.8-3.2-7.9s-4.9-3.1-8.4-3.1H0.6C0.2,2.7,0.1,2.8,0.1,3v0.7C0.1,3.8,0.2,3.9,0.3,3.9 M7,4h1.8c2.4,0,4.3,0.3,5.6,1
		s2.3,1.7,3.1,3.2c0.8,1.4,1.1,3.3,1.1,5.5c0,2-0.4,3.9-1.1,5.5s-1.8,2.8-3.2,3.6c-1.4,0.8-3.3,1.1-5.7,1.1c-0.5,0-1.1,0-1.7,0
		c-0.1-0.8-0.1-2-0.1-3.6V7.4L7,4z"/>
</g>
</svg>
