<?xml version="1.0" encoding="utf-8"?>
<!-- Generator: Adobe Illustrator 24.3.0, SVG Export Plug-In . SVG Version: 6.00 Build 0)  -->
<svg version="1.1" id="Laag_1" xmlns="http://www.w3.org/2000/svg" xmlns:xlink="http://www.w3.org/1999/xlink" x="0px" y="0px"
	 width="383.3px" height="80.7px" viewBox="0 0 383.3 80.7" style="enable-background:new 0 0 383.3 80.7;" xml:space="preserve">
<style type="text/css">
	.st0{fill:#FFFFFF;}
</style>
<g>
	<path class="st0" d="M1,0.9h5.6l9,11.5V0.9h6v21.8h-5.3L7,10.8v11.9H1V0.9z"/>
	<path class="st0" d="M24.4,14.4L24.4,14.4c0-4.9,3.9-8.9,9.3-8.9c5.4,0,9.3,3.9,9.3,8.7v0.1c0,4.8-3.9,8.8-9.3,8.8
		C28.3,23.1,24.4,19.2,24.4,14.4z M37.2,14.4L37.2,14.4c0-2.1-1.5-3.9-3.6-3.9c-2.1,0-3.5,1.7-3.5,3.8v0.1c0,2.1,1.5,3.8,3.6,3.8
		C35.8,18.1,37.2,16.4,37.2,14.4z"/>
	<path class="st0" d="M45.5,5.9h5.9v2.4c1.1-1.4,2.6-2.7,5-2.7c3.6,0,5.7,2.4,5.7,6.2v11h-5.9v-9.1c0-1.9-1-2.9-2.4-2.9
		s-2.5,1-2.5,2.9v9.1h-5.9V5.9z"/>
	<path class="st0" d="M73.8,5.9h5.9v2.2c1.2-1.4,2.6-2.6,5.1-2.6c4,0,7.5,3.3,7.5,8.7v0.1c0,5.5-3.5,8.8-7.4,8.8
		c-2.5,0-4-1.2-5.1-2.4v7h-5.9V5.9z M86.5,14.3L86.5,14.3c0-2.3-1.6-3.9-3.5-3.9c-1.9,0-3.5,1.6-3.5,3.8v0.1c0,2.2,1.5,3.8,3.5,3.8
		C84.9,18.1,86.5,16.6,86.5,14.3z"/>
	<path class="st0" d="M94.1,14.4L94.1,14.4c0-5,3.5-8.9,8.5-8.9c5.8,0,8.5,4.3,8.5,9.2c0,0.4,0,0.8,0,1.2H99.8
		c0.5,1.8,1.8,2.8,3.6,2.8c1.4,0,2.5-0.5,3.7-1.7l3.3,2.7c-1.6,2.1-3.9,3.4-7.3,3.4C97.9,23.1,94.1,19.6,94.1,14.4z M105.6,12.9
		c-0.2-1.9-1.3-3-3-3c-1.6,0-2.6,1.2-2.9,3H105.6z"/>
	<path class="st0" d="M113.6,5.9h5.9v3.4c1-2.3,2.5-3.8,5.3-3.7v6.2h-0.5c-3.1,0-4.8,1.8-4.8,5.6v5.3h-5.9V5.9z"/>
	<path class="st0" d="M126,14.4L126,14.4c0-5.5,3.5-8.9,7.4-8.9c2.5,0,4,1.2,5.1,2.4V0h5.9v22.7h-5.9v-2.2c-1.2,1.4-2.6,2.6-5.1,2.6
		C129.5,23.1,126,19.7,126,14.4z M138.7,14.3L138.7,14.3c0-2.3-1.5-3.9-3.5-3.9c-1.9,0-3.5,1.6-3.5,3.8v0.1c0,2.2,1.6,3.8,3.5,3.8
		C137.2,18.1,138.7,16.5,138.7,14.3z"/>
	<path class="st0" d="M147.7,0h6.1v4.4h-6.1V0z M147.8,5.9h5.9v16.8h-5.9V5.9z"/>
	<path class="st0" d="M156.2,17.9L156.2,17.9c0-3.6,2.6-5.3,6.6-5.3c1.6,0,3.1,0.3,4,0.7v-0.3c0-1.8-1.1-2.8-3.4-2.8
		c-1.8,0-3.1,0.4-4.7,0.9l-1.2-4.1c1.9-0.8,3.9-1.3,6.8-1.3c3,0,5.1,0.7,6.4,2.1c1.3,1.2,1.8,3,1.8,5.3v9.7h-5.8v-1.8
		c-1.2,1.3-2.8,2.1-5,2.1C158.6,23.1,156.2,21.2,156.2,17.9z M166.9,16.6v-0.8c-0.6-0.2-1.5-0.4-2.3-0.4c-1.7,0-2.7,0.8-2.7,2.1v0.1
		c0,1.2,0.9,1.8,2.1,1.8C165.7,19.4,166.9,18.3,166.9,16.6z"/>
	<path class="st0" d="M175.6,5.9h5.9v2.3c1.1-1.4,2.6-2.7,5-2.7c2.2,0,3.9,1,4.9,2.7c1.5-1.7,3.2-2.7,5.6-2.7c3.6,0,5.8,2.2,5.8,6.2
		v11h-5.9v-9.1c0-1.8-0.9-2.8-2.3-2.8s-2.4,1-2.4,2.8v9.1h-5.9v-9.1c0-1.8-0.9-2.8-2.3-2.8c-1.4,0-2.4,1-2.4,2.8v9.1h-5.9V5.9z"/>
	<path class="st0" d="M205.2,14.4L205.2,14.4c0-4.9,3.9-8.9,9.3-8.9c5.4,0,9.3,3.9,9.3,8.7v0.1c0,4.8-3.9,8.8-9.3,8.8
		C209.1,23.1,205.2,19.2,205.2,14.4z M218,14.4L218,14.4c0-2.1-1.5-3.9-3.6-3.9c-2.1,0-3.5,1.7-3.5,3.8v0.1c0,2.1,1.5,3.8,3.6,3.8
		C216.6,18.1,218,16.4,218,14.4z"/>
	<path class="st0" d="M225.6,14.4L225.6,14.4c0-4.8,3.7-8.8,9-8.8c3.5,0,5.8,1.5,7.2,3.7l-4,3c-0.8-1.1-1.7-1.8-3.1-1.8
		c-1.9,0-3.3,1.7-3.3,3.8v0.1c0,2.2,1.4,3.8,3.4,3.8c1.4,0,2.3-0.7,3.2-1.7l3.9,2.9c-1.6,2.3-3.8,3.9-7.5,3.9
		C229.3,23.1,225.6,19.1,225.6,14.4z"/>
	<path class="st0" d="M243.9,0h6.1v4.4h-6.1V0z M244.1,5.9h5.9v16.8h-5.9V5.9z"/>
	<path class="st0" d="M261.3,14.4L261.3,14.4c0-5.5,3.5-8.9,7.4-8.9c2.5,0,4,1.2,5.1,2.4V0h5.9v22.7h-5.9v-2.2
		c-1.2,1.4-2.6,2.6-5.1,2.6C264.7,23.1,261.3,19.7,261.3,14.4z M273.9,14.3L273.9,14.3c0-2.3-1.5-3.9-3.5-3.9
		c-1.9,0-3.5,1.6-3.5,3.8v0.1c0,2.2,1.6,3.8,3.5,3.8C272.4,18.1,273.9,16.5,273.9,14.3z"/>
	<path class="st0" d="M282.9,0h6.1v4.4h-6.1V0z M283.1,5.9h5.9v16.8h-5.9V5.9z"/>
	<path class="st0" d="M299.6,5.9h6.2l3.2,9.8l3.3-9.8h6.1l-6.7,16.9h-5.4L299.6,5.9z"/>
	<path class="st0" d="M320.3,0h6.1v4.4h-6.1V0z M320.5,5.9h5.9v16.8h-5.9V5.9z"/>
	<path class="st0" d="M328.4,20.6l2.2-3.5c1.9,1.3,4,1.9,5.8,1.9c1,0,1.5-0.3,1.5-0.9V18c0-0.7-1-1-2.7-1.5c-3.3-0.9-6-2-6-5.3v-0.1
		c0-3.6,2.9-5.6,6.7-5.6c2.5,0,5,0.7,6.9,2l-2,3.7c-1.7-1-3.6-1.6-5-1.6c-0.9,0-1.4,0.3-1.4,0.8v0.1c0,0.7,1,1,2.7,1.5
		c3.3,0.9,6,2.1,6,5.3v0.1c0,3.7-2.8,5.6-6.9,5.6C333.5,23.1,330.7,22.2,328.4,20.6z"/>
	<path class="st0" d="M346.4,17.5v-6.9h-2V5.9h2V1.6h5.9v4.3h3.9v4.7h-3.9v5.7c0,1.2,0.5,1.7,1.6,1.7c0.8,0,1.5-0.2,2.2-0.6V22
		c-1.1,0.6-2.5,1-4.1,1C348.5,23,346.4,21.5,346.4,17.5z"/>
	<path class="st0" d="M358,17.9L358,17.9c0-3.6,2.6-5.3,6.6-5.3c1.6,0,3.1,0.3,4,0.7v-0.3c0-1.8-1.1-2.8-3.4-2.8
		c-1.8,0-3.1,0.4-4.7,0.9l-1.2-4.1c1.9-0.8,3.9-1.3,6.8-1.3c3,0,5.1,0.7,6.4,2.1c1.3,1.2,1.8,3,1.8,5.3v9.7h-5.8v-1.8
		c-1.2,1.3-2.8,2.1-5,2.1C360.4,23.1,358,21.2,358,17.9z M368.7,16.6v-0.8c-0.6-0.2-1.5-0.4-2.3-0.4c-1.7,0-2.7,0.8-2.7,2.1v0.1
		c0,1.2,0.9,1.8,2.1,1.8C367.4,19.4,368.7,18.3,368.7,16.6z"/>
	<path class="st0" d="M377.2,16.6h6.1v6.1h-6.1V16.6z"/>
</g>
<g>
	<path class="st0" d="M19.1,52.4h-3.7l-0.7,4.2h-4.5l0.7-4.2H6.9l-0.7,4.2H1.7l0.7-4.2H0v-5h3.2l0.6-3.5H1v-5h3.7l0.7-4.1h4.5
		l-0.7,4.1h3.9l0.7-4.1h4.5l-0.7,4.1h2.5v5h-3.3l-0.6,3.5h2.9V52.4z M7.6,47.6h4.2l0.7-3.9H8.2L7.6,47.6z"/>
	<path class="st0" d="M21.3,53.4l3.4-4c2.2,1.7,4.5,2.6,7.1,2.6c1.6,0,2.5-0.6,2.5-1.5v-0.1c0-0.9-0.7-1.4-3.7-2.1
		c-4.6-1.1-8.2-2.4-8.2-6.8v-0.1c0-4,3.2-7,8.4-7c3.7,0,6.6,1,9,2.9l-3,4.3c-2-1.4-4.2-2.1-6.1-2.1c-1.5,0-2.2,0.6-2.2,1.4v0.1
		c0,1,0.7,1.4,3.8,2.1c5,1.1,8.1,2.7,8.1,6.8v0.1c0,4.4-3.5,7.1-8.8,7.1C27.6,57,24,55.8,21.3,53.4z"/>
	<path class="st0" d="M43.7,51.4v-6.9h-2v-4.7h2v-4.3h5.9v4.3h3.9v4.7h-3.9v5.7c0,1.2,0.5,1.7,1.6,1.7c0.8,0,1.5-0.2,2.2-0.6V56
		c-1.1,0.6-2.5,1-4.1,1C45.7,57,43.7,55.4,43.7,51.4z"/>
	<path class="st0" d="M55.2,51.8L55.2,51.8c0-3.6,2.6-5.3,6.6-5.3c1.6,0,3.1,0.3,4,0.7v-0.3c0-1.8-1.1-2.8-3.4-2.8
		c-1.8,0-3.1,0.4-4.7,0.9l-1.2-4.1c1.9-0.8,3.9-1.3,6.8-1.3c3,0,5.1,0.7,6.4,2.1c1.3,1.2,1.8,3,1.8,5.3v9.7h-5.8v-1.8
		c-1.2,1.3-2.8,2.1-5,2.1C57.6,57,55.2,55.1,55.2,51.8z M65.9,50.5v-0.8c-0.6-0.2-1.5-0.4-2.3-0.4c-1.7,0-2.7,0.8-2.7,2.1v0.1
		c0,1.2,0.9,1.8,2.1,1.8C64.7,53.3,65.9,52.2,65.9,50.5z"/>
	<path class="st0" d="M85.3,39.8h6.1l-6.2,16.4c-1.5,3.9-3,5.5-6.4,5.5c-2.1,0-3.8-0.6-5.4-1.5l1.8-4.1c1,0.6,1.9,0.9,2.6,0.9
		c0.6,0,1-0.2,1.4-0.7l-6.6-16.5h6.2l3.4,10.1L85.3,39.8z"/>
	<path class="st0" d="M94.4,51.4v-6.9h-2v-4.7h2v-4.3h5.9v4.3h3.9v4.7h-3.9v5.7c0,1.2,0.5,1.7,1.6,1.7c0.8,0,1.5-0.2,2.2-0.6V56
		c-1.1,0.6-2.5,1-4.1,1C96.5,57,94.4,55.4,94.4,51.4z"/>
	<path class="st0" d="M106.6,50.8v-11h5.9v9.1c0,1.8,1,2.8,2.4,2.8c1.4,0,2.5-1,2.5-2.8v-9.1h5.9v16.8h-5.9v-2.3
		c-1.1,1.4-2.6,2.7-5,2.7C108.8,57,106.6,54.6,106.6,50.8z"/>
	<path class="st0" d="M126.5,39.8h5.9v2.4c1.1-1.4,2.6-2.7,5-2.7c3.6,0,5.7,2.4,5.7,6.2v11h-5.9v-9.1c0-1.9-1-2.9-2.4-2.9
		c-1.4,0-2.5,1-2.5,2.9v9.1h-5.9V39.8z"/>
	<path class="st0" d="M145.5,48.3L145.5,48.3c0-5,3.5-8.9,8.5-8.9c5.8,0,8.5,4.3,8.5,9.2c0,0.4,0,0.8,0,1.2h-11.3
		c0.5,1.8,1.8,2.8,3.6,2.8c1.4,0,2.5-0.5,3.7-1.7l3.3,2.7c-1.6,2.1-3.9,3.4-7.3,3.4C149.2,57,145.5,53.5,145.5,48.3z M157,46.8
		c-0.2-1.9-1.3-3-3-3c-1.6,0-2.6,1.2-2.9,3H157z"/>
	<path class="st0" d="M164.4,48.3L164.4,48.3c0-5.5,3.5-8.9,7.4-8.9c2.5,0,4,1.2,5.1,2.4v-7.9h5.9v22.7h-5.9v-2.2
		c-1.2,1.4-2.6,2.6-5.1,2.6C167.8,57,164.4,53.7,164.4,48.3z M177.1,48.2L177.1,48.2c0-2.3-1.5-3.9-3.5-3.9c-1.9,0-3.5,1.6-3.5,3.8
		v0.1c0,2.2,1.6,3.8,3.5,3.8C175.5,52,177.1,50.5,177.1,48.2z"/>
	<path class="st0" d="M185.8,50.6h6.1v6.1h-6.1V50.6z"/>
</g>
</svg>
