<?xml version="1.0" encoding="utf-8"?>
<!-- Generator: Adobe Illustrator 24.3.0, SVG Export Plug-In . SVG Version: 6.00 Build 0)  -->
<svg version="1.1" id="Laag_1" xmlns="http://www.w3.org/2000/svg" xmlns:xlink="http://www.w3.org/1999/xlink" x="0px" y="0px"
	 width="378.7px" height="44px" viewBox="0 0 378.7 44" style="enable-background:new 0 0 378.7 44;" xml:space="preserve">
<style type="text/css">
	.st0{fill:#FFFFFF;}
</style>
<path class="st0" d="M365.2,44H0l1.4-4.6l3.5-11.9L13.3,0h365.4L365.2,44z"/>
<g>
	<path d="M61.2,37.1h-7.3l-2.1-16.2l-6.8,16.2h-2.9l-6.5-16.2l-2.4,16.2H26L30.8,9H38l5.7,15l6-15H57L61.2,37.1z"/>
	<path d="M87.4,27.5c0,2.6-0.9,4.9-2.6,6.8c-2.1,2.3-5.1,3.5-8.9,3.5c-3.8,0-6.8-1.2-8.9-3.5c-1.7-1.9-2.6-4.2-2.6-7
		c0-2.5,0.9-4.7,2.6-6.6c2.1-2.3,5.1-3.5,9.1-3.5c3.6,0,6.5,1.2,8.6,3.5C86.5,22.6,87.4,24.9,87.4,27.5z M80.4,27.5
		c0-1.2-0.4-2.3-1.3-3.1c-0.9-0.9-1.9-1.3-3.1-1.3c-1.4,0-2.5,0.5-3.4,1.6c-0.7,0.8-1.1,1.8-1.1,2.9c0,1.1,0.4,2.1,1.1,2.9
		c0.9,1,2,1.6,3.4,1.6c1.2,0,2.3-0.4,3.1-1.3C79.9,29.8,80.4,28.8,80.4,27.5z"/>
	<path d="M113.4,27.5c0,2.6-0.9,4.9-2.6,6.8c-2.1,2.3-5.1,3.5-8.9,3.5c-3.8,0-6.8-1.2-8.9-3.5c-1.7-1.9-2.6-4.2-2.6-7
		c0-2.5,0.9-4.7,2.6-6.6c2.1-2.3,5.1-3.5,9.1-3.5c3.6,0,6.5,1.2,8.6,3.5C112.6,22.6,113.4,24.9,113.4,27.5z M106.4,27.5
		c0-1.2-0.4-2.3-1.3-3.1c-0.9-0.9-1.9-1.3-3.1-1.3c-1.4,0-2.5,0.5-3.4,1.6c-0.7,0.8-1.1,1.8-1.1,2.9c0,1.1,0.4,2.1,1.1,2.9
		c0.9,1,2,1.6,3.4,1.6c1.2,0,2.3-0.4,3.1-1.3C106,29.8,106.4,28.8,106.4,27.5z"/>
	<path d="M124.4,10.7c0,1.1-0.4,2-1.1,2.7c-0.7,0.7-1.6,1.1-2.7,1.1c-1.1,0-1.9-0.4-2.7-1.1s-1.1-1.6-1.1-2.7s0.4-1.9,1.1-2.7
		c0.7-0.7,1.6-1.1,2.7-1.1c1.1,0,1.9,0.4,2.7,1.1C124.1,8.7,124.4,9.6,124.4,10.7z M124,37.1h-6.8V18h6.8V37.1z"/>
	<path d="M148.9,28.8h-14.2c0,2.9,1.4,4.3,4.1,4.3c1.4,0,2.5-0.6,3.2-1.8h6.5c-0.5,1.7-1.3,3.1-2.3,4c-1.8,1.7-4.3,2.6-7.4,2.6
		c-3.9,0-6.9-1.2-8.8-3.6c-1.5-1.8-2.2-4-2.2-6.5c0-3,0.9-5.5,2.8-7.4c1.8-1.9,4.5-2.9,7.8-2.9c4.2,0,7.1,1.5,8.9,4.5
		c1,1.7,1.5,3.7,1.5,5.9V28.8z M142.6,24.9c-0.5-2.2-1.8-3.2-3.8-3.2c-1.1,0-2.1,0.3-2.8,1c-0.6,0.5-0.9,1.3-1.1,2.2H142.6z"/>
	<path d="M167,24.2c-0.9-0.5-1.9-0.7-2.9-0.7c-2.2,0-3.6,0.9-4.3,2.7c-0.2,0.7-0.4,1.5-0.4,2.7v8.2h-6.8V18h6.8v3.1
		c0.7-1.1,1.5-1.9,2.3-2.4c1.1-0.7,2.4-1,3.9-1c0.4,0,0.8,0,1.3,0.1V24.2z"/>
	<path d="M203.2,37.1h-6.8v-2.1c-0.6,0.8-1.3,1.4-1.9,1.8c-1.2,0.6-2.5,1-3.9,1c-2.4,0-4.5-0.8-6.3-2.4c-2.2-1.9-3.3-4.5-3.3-7.7
		c0-3.3,1.1-5.9,3.4-7.8c1.8-1.5,3.9-2.3,6.2-2.3c1.4,0,2.6,0.3,3.8,0.9c0.7,0.3,1.4,0.9,2.1,1.6V6.2h6.8V37.1z M196.6,27.5
		c0-1.2-0.4-2.2-1.3-3.1c-0.8-0.8-1.9-1.3-3.1-1.3c-1.3,0-2.4,0.5-3.3,1.5c-0.7,0.8-1,1.8-1,2.8s0.3,2,1,2.8c0.8,1,1.9,1.5,3.3,1.5
		c1.2,0,2.2-0.4,3.1-1.3C196.2,29.8,196.6,28.8,196.6,27.5z"/>
	<path d="M229.3,37.1h-6.8v-2.1c-0.6,0.8-1.3,1.4-1.9,1.8c-1.2,0.6-2.5,1-3.9,1c-2.4,0-4.5-0.8-6.3-2.4c-2.2-1.9-3.3-4.5-3.3-7.7
		c0-3.3,1.1-5.9,3.4-7.8c1.8-1.5,3.9-2.3,6.2-2.3c1.4,0,2.6,0.3,3.8,0.8c0.7,0.3,1.4,0.9,2.1,1.6V18h6.8V37.1z M222.7,27.5
		c0-1.2-0.4-2.2-1.3-3.1c-0.8-0.8-1.9-1.3-3.1-1.3c-1.3,0-2.4,0.5-3.3,1.5c-0.7,0.8-1,1.8-1,2.8s0.3,2,1,2.8c0.8,1,1.9,1.5,3.3,1.5
		c1.2,0,2.2-0.4,3.1-1.2C222.3,29.8,222.7,28.7,222.7,27.5z"/>
	<path d="M254,37.1h-6.8v-9.6c0-1.7-0.2-2.8-0.6-3.3c-0.6-0.8-1.4-1.2-2.5-1.2c-1,0-1.9,0.3-2.6,1c-0.6,0.6-0.9,1.6-0.9,2.9v10.2
		h-6.8V18h6.8v2.4c0.8-0.9,1.5-1.5,2.2-1.9c1.1-0.6,2.4-0.9,4-0.9c2.1,0,3.7,0.6,5,1.7c1.5,1.3,2.2,3.2,2.2,5.7V37.1z"/>
	<path d="M292.5,27.5c0,2.6-0.9,4.9-2.6,6.8c-2.1,2.3-5.1,3.5-8.9,3.5c-3.8,0-6.8-1.2-8.9-3.5c-1.7-1.9-2.6-4.2-2.6-7
		c0-2.5,0.9-4.7,2.6-6.6c2.1-2.3,5.1-3.5,9.1-3.5c3.6,0,6.5,1.2,8.6,3.5C291.6,22.6,292.5,24.9,292.5,27.5z M285.4,27.5
		c0-1.2-0.4-2.3-1.3-3.1c-0.9-0.9-1.9-1.3-3.1-1.3c-1.4,0-2.5,0.5-3.4,1.6c-0.7,0.8-1.1,1.8-1.1,2.9c0,1.1,0.4,2.1,1.1,2.9
		c0.9,1,2,1.6,3.4,1.6c1.2,0,2.3-0.4,3.1-1.3C285,29.8,285.4,28.8,285.4,27.5z"/>
	<path d="M318.5,27.5c0,2.6-0.9,4.9-2.6,6.8c-2.1,2.3-5.1,3.5-8.9,3.5c-3.8,0-6.8-1.2-8.9-3.5c-1.7-1.9-2.6-4.2-2.6-7
		c0-2.5,0.9-4.7,2.6-6.6c2.1-2.3,5.1-3.5,9.1-3.5c3.6,0,6.5,1.2,8.6,3.5C317.6,22.6,318.5,24.9,318.5,27.5z M311.5,27.5
		c0-1.2-0.4-2.3-1.3-3.1c-0.9-0.9-1.9-1.3-3.1-1.3c-1.4,0-2.5,0.5-3.4,1.6c-0.7,0.8-1.1,1.8-1.1,2.9c0,1.1,0.4,2.1,1.1,2.9
		c0.9,1,2,1.6,3.4,1.6c1.2,0,2.3-0.4,3.1-1.3C311,29.8,311.5,28.8,311.5,27.5z"/>
	<path d="M329.5,10.7c0,1.1-0.4,2-1.1,2.7c-0.7,0.7-1.6,1.1-2.7,1.1c-1.1,0-1.9-0.4-2.7-1.1c-0.7-0.7-1.1-1.6-1.1-2.7
		s0.4-1.9,1.1-2.7c0.7-0.7,1.6-1.1,2.7-1.1s1.9,0.4,2.7,1.1C329.1,8.7,329.5,9.6,329.5,10.7z M329.1,37.1h-6.8V18h6.8V37.1z"/>
	<path d="M345.1,23.5h-3.8v13.5h-6.8V23.5h-2.2V18h2.2v-5.7h6.8V18h3.8V23.5z"/>
	<path d="M352.6,34.9c0,0.7-0.2,1.3-0.7,1.8c-0.5,0.5-1.1,0.7-1.8,0.7c-0.7,0-1.3-0.2-1.8-0.7c-0.5-0.5-0.7-1.1-0.7-1.8
		c0-0.7,0.2-1.3,0.7-1.7c0.5-0.5,1.1-0.7,1.8-0.7c0.7,0,1.3,0.2,1.8,0.7C352.4,33.6,352.6,34.2,352.6,34.9z"/>
</g>
</svg>
