<?xml version="1.0" encoding="utf-8"?>
<!-- Generator: Adobe Illustrator 24.0.0, SVG Export Plug-In . SVG Version: 6.00 Build 0)  -->
<svg version="1.1" id="Laag_1" xmlns="http://www.w3.org/2000/svg" xmlns:xlink="http://www.w3.org/1999/xlink" x="0px" y="0px"
	 width="196.8px" height="25.2px" viewBox="0 0 196.8 25.2" style="enable-background:new 0 0 196.8 25.2;" xml:space="preserve">
<style type="text/css">
	.st0{fill:#FFFFFF;}
</style>
<g>
	<path class="st0" d="M0,0h1.1l4,7l4-7h1.1v8.4H9.1V2.2L5.6,8.4H4.6L1.1,2.2v6.2H0V0z"/>
	<path class="st0" d="M14.5,2.3c1.9,0,2.9,1.4,2.9,3.1v0.3h-4.8v0c0.1,1.2,0.9,1.9,2,1.9c0.9,0,1.5-0.4,1.9-0.9L17,7.5
		c-0.5,0.5-1.3,1.1-2.4,1.1c-1.8,0-3.1-1.2-3.1-3.1C11.5,3.7,12.7,2.3,14.5,2.3z M14.5,3.2c-1.1,0-1.7,0.7-1.9,1.7h3.6
		C16.1,3.9,15.6,3.2,14.5,3.2z"/>
	<path class="st0" d="M20.8,8.5c-1.1,0-1.7-0.5-1.7-1.7V3.3h-1.2V2.4h1.2V0.8h1v1.6h1.6v0.9h-1.6v3.5c0,0.5,0.2,0.7,0.7,0.7
		c0.4,0,0.6,0,1-0.1v0.9C21.5,8.4,21.1,8.5,20.8,8.5z"/>
	<path class="st0" d="M27.4,6.6v1.8h-1V0h1v5.3l2.7-2.9h1.5L29,5l2.6,3.4h-1.3l-1.9-2.7L27.4,6.6z"/>
	<path class="st0" d="M37.7,8.4h-1V7.5c-0.5,0.7-1,1-1.9,1c-1.7,0-2.2-1.1-2.2-2.6V2.4h1.1v3.5c0,0.9,0.3,1.6,1.4,1.6
		c1.4,0,1.7-1.1,1.7-2.4V2.4h1V8.4z"/>
	<path class="st0" d="M39.4,2.4h1v0.9c0.4-0.7,1.2-1.1,2-1.1c1.4,0,2.2,0.9,2.2,2.5v3.6h-1.1V4.8c0-1-0.5-1.6-1.5-1.6
		c-1.1,0-1.7,0.8-1.7,2.4v2.8h-1V2.4z"/>
	<path class="st0" d="M48.4,2.3c1.1,0,1.9,0.4,2.4,1.3l-0.9,0.5c-0.3-0.6-0.8-0.9-1.6-0.9c-0.7,0-1.2,0.3-1.2,0.8
		c0,0.5,0.5,0.6,1.4,0.9c1.3,0.3,2.2,0.6,2.2,1.8c0,1.2-0.8,1.9-2.3,1.9c-1.2,0-2.2-0.5-2.7-1.4l0.9-0.5c0.3,0.6,0.9,1,1.8,1
		c0.8,0,1.2-0.3,1.2-0.8c0-0.6-0.5-0.7-1.3-0.9c-1.1-0.3-2.3-0.6-2.3-1.8C46.2,3,47,2.3,48.4,2.3z"/>
	<path class="st0" d="M54.1,8.5c-1.1,0-1.7-0.5-1.7-1.7V3.3h-1.2V2.4h1.2V0.8h1v1.6h1.6v0.9h-1.6v3.5c0,0.5,0.2,0.7,0.7,0.7
		c0.4,0,0.6,0,1-0.1v0.9C54.8,8.4,54.5,8.5,54.1,8.5z"/>
	<path class="st0" d="M55.5,2.4h1.2l1.7,4.4l1.8-4.4H61l1.8,4.4l1.7-4.4h1.2l-2.5,6h-0.8l-1.8-4.3l-1.8,4.3H58L55.5,2.4z"/>
	<path class="st0" d="M69.1,2.3C71,2.3,72,3.6,72,5.4v0.3h-4.8v0c0.1,1.2,0.9,1.9,2,1.9c0.9,0,1.5-0.4,1.9-0.9l0.5,0.8
		c-0.5,0.5-1.3,1.1-2.4,1.1c-1.8,0-3.1-1.2-3.1-3.1C66.2,3.7,67.3,2.3,69.1,2.3z M69.2,3.2c-1.1,0-1.7,0.7-1.9,1.7h3.6
		C70.8,3.9,70.2,3.2,69.2,3.2z"/>
	<path class="st0" d="M76,2.3c0.2,0,0.4,0,0.6,0.1v1.1c-0.2,0-0.4-0.1-0.6-0.1c-1.3,0-1.8,0.9-1.8,2.3v2.8h-1v-6h1v0.9
		C74.6,2.6,75.2,2.3,76,2.3z"/>
	<path class="st0" d="M78.7,6.6v1.8h-1V0h1v5.3l2.7-2.9h1.5L80.3,5l2.6,3.4h-1.3l-1.9-2.7L78.7,6.6z"/>
	<path class="st0" d="M86.4,2.3c1.9,0,2.9,1.4,2.9,3.1v0.3h-4.8v0c0.1,1.2,0.9,1.9,2,1.9c0.9,0,1.5-0.4,1.9-0.9l0.5,0.8
		c-0.5,0.5-1.3,1.1-2.4,1.1c-1.8,0-3.1-1.2-3.1-3.1C83.4,3.7,84.6,2.3,86.4,2.3z M86.4,3.2c-1.1,0-1.7,0.7-1.9,1.7h3.6
		C88,3.9,87.5,3.2,86.4,3.2z"/>
	<path class="st0" d="M90.4,2.4h1v0.9c0.4-0.7,1.2-1.1,2-1.1c1.4,0,2.2,0.9,2.2,2.5v3.6h-1.1V4.8c0-1-0.5-1.6-1.5-1.6
		c-1.1,0-1.7,0.8-1.7,2.4v2.8h-1V2.4z"/>
	<path class="st0" d="M100.1,2.4h1.2l1.8,4.6l1.8-4.6h1.2l-2.6,6h-0.8L100.1,2.4z"/>
	<path class="st0" d="M109.5,2.3c1.6,0,2.4,0.8,2.4,2.2v3.9h-1V7.5c-0.4,0.6-1.1,1-2,1c-1.2,0-2-0.8-2-1.9c0-1,0.7-1.7,1.9-1.8
		l1.7-0.2c0.3,0,0.4-0.1,0.4-0.3V4.2c0-0.6-0.5-1-1.3-1c-0.9,0-1.4,0.4-1.5,1.1l-0.9-0.5C107.4,2.8,108.2,2.3,109.5,2.3z M108.9,5.8
		c-0.6,0.1-1,0.4-1,0.9c0,0.5,0.4,0.9,1.1,0.9c1,0,1.8-0.7,1.8-1.6V5.5L108.9,5.8z"/>
	<path class="st0" d="M113.4,2.4h1v0.9c0.4-0.7,1.2-1.1,2-1.1c1.4,0,2.2,0.9,2.2,2.5v3.6h-1.1V4.8c0-1-0.5-1.6-1.5-1.6
		c-1.1,0-1.7,0.8-1.7,2.4v2.8h-1V2.4z"/>
	<path class="st0" d="M126.4,2.3c1.8,0,3.1,1.3,3.1,3.1c0,1.8-1.3,3.1-3.1,3.1c-1.8,0-3.1-1.3-3.1-3.1
		C123.3,3.6,124.6,2.3,126.4,2.3z M126.4,3.3c-1.2,0-2.1,0.9-2.1,2.1c0,1.2,0.8,2.1,2.1,2.1c1.2,0,2.1-0.9,2.1-2.1
		C128.5,4.1,127.7,3.3,126.4,3.3z"/>
	<path class="st0" d="M132.8,7.5c0,0.5-0.4,0.9-0.9,0.9s-0.9-0.4-0.9-0.9s0.4-0.9,0.9-0.9S132.8,6.9,132.8,7.5z"/>
	<path class="st0" d="M136.9,2.3c1.6,0,2.4,0.8,2.4,2.2v3.9h-1V7.5c-0.4,0.6-1.1,1-2,1c-1.2,0-2-0.8-2-1.9c0-1,0.7-1.7,1.9-1.8
		l1.7-0.2c0.3,0,0.4-0.1,0.4-0.3V4.2c0-0.6-0.5-1-1.3-1c-0.9,0-1.4,0.4-1.5,1.1l-0.9-0.5C134.7,2.8,135.6,2.3,136.9,2.3z M136.3,5.8
		c-0.6,0.1-1,0.4-1,0.9c0,0.5,0.4,0.9,1.1,0.9c1,0,1.8-0.7,1.8-1.6V5.5L136.3,5.8z"/>
	<path class="st0" d="M142.8,7.5c0,0.5-0.4,0.9-0.9,0.9c-0.5,0-0.9-0.4-0.9-0.9s0.4-0.9,0.9-0.9C142.3,6.5,142.8,6.9,142.8,7.5z"/>
	<path class="st0" d="M0,14.4h1.1v8.4H0V14.4z"/>
	<path class="st0" d="M5.7,16.7c0.2,0,0.4,0,0.6,0.1v1.1c-0.2,0-0.4-0.1-0.6-0.1c-1.3,0-1.8,0.9-1.8,2.3v2.8h-1v-6h1v0.9
		C4.2,17,4.8,16.7,5.7,16.7z"/>
	<path class="st0" d="M7.1,15.1c0-0.5,0.3-0.8,0.8-0.8c0.5,0,0.8,0.3,0.8,0.8c0,0.5-0.3,0.8-0.8,0.8C7.5,15.9,7.1,15.6,7.1,15.1z
		 M8.4,22.8h-1v-6h1V22.8z"/>
	<path class="st0" d="M12.2,16.7c1.1,0,1.9,0.4,2.4,1.3l-0.9,0.5c-0.3-0.6-0.8-0.9-1.6-0.9c-0.7,0-1.2,0.3-1.2,0.8
		c0,0.5,0.5,0.6,1.4,0.9c1.3,0.3,2.2,0.6,2.2,1.8c0,1.2-0.8,1.9-2.3,1.9c-1.2,0-2.2-0.5-2.7-1.4l0.9-0.5c0.3,0.6,0.9,1,1.8,1
		c0.8,0,1.2-0.3,1.2-0.8c0-0.6-0.5-0.7-1.3-0.9C11.1,20,10,19.7,10,18.4C10,17.4,10.8,16.7,12.2,16.7z"/>
	<path class="st0" d="M19.3,14.4h1.1v4.2l4.1-4.2h1.5l-3.6,3.7l3.6,4.7h-1.4l-3-4l-1.3,1.3v2.7h-1.1V14.4z"/>
	<path class="st0" d="M29.5,16.7c1.9,0,2.9,1.4,2.9,3.1v0.3h-4.8v0c0.1,1.2,0.9,1.9,2,1.9c0.9,0,1.5-0.4,1.9-0.9l0.5,0.8
		c-0.5,0.5-1.3,1.1-2.4,1.1c-1.8,0-3.1-1.2-3.1-3.1C26.5,18.1,27.7,16.7,29.5,16.7z M29.5,17.6c-1.1,0-1.7,0.7-1.9,1.7h3.6
		C31.1,18.3,30.6,17.6,29.5,17.6z"/>
	<path class="st0" d="M33.6,16.8h1v0.9c0.4-0.7,1.2-1.1,2-1.1c1.4,0,2.2,0.9,2.2,2.5v3.6h-1.1v-3.6c0-1-0.5-1.6-1.5-1.6
		c-1.1,0-1.7,0.8-1.7,2.4v2.8h-1V16.8z"/>
	<path class="st0" d="M42.5,16.7c1.1,0,1.9,0.4,2.4,1.3L44,18.5c-0.3-0.6-0.8-0.9-1.6-0.9c-0.7,0-1.2,0.3-1.2,0.8
		c0,0.5,0.5,0.6,1.4,0.9c1.3,0.3,2.2,0.6,2.2,1.8c0,1.2-0.8,1.9-2.3,1.9c-1.2,0-2.2-0.5-2.7-1.4l0.9-0.5c0.3,0.6,0.9,1,1.8,1
		c0.8,0,1.2-0.3,1.2-0.8c0-0.6-0.5-0.7-1.3-0.9c-1.1-0.3-2.3-0.6-2.3-1.8C40.3,17.4,41.1,16.7,42.5,16.7z"/>
	<path class="st0" d="M53.1,16.7c1.5,0,2.3,0.9,2.3,2.7v3.5h-1v-3.6c0-1-0.5-1.6-1.4-1.6c-1.2,0-1.8,0.8-1.8,2.4v2.8h-1v-3.6
		c0-1-0.5-1.6-1.4-1.6c-1.2,0-1.7,0.8-1.7,2.4v2.8h-1v-6h1v1c0.4-0.8,1.1-1.1,1.9-1.1c0.9,0,1.6,0.4,2,1.2
		C51.4,17,52.1,16.7,53.1,16.7z"/>
	<path class="st0" d="M56.9,15.1c0-0.5,0.3-0.8,0.8-0.8c0.5,0,0.8,0.3,0.8,0.8c0,0.5-0.3,0.8-0.8,0.8C57.2,15.9,56.9,15.6,56.9,15.1
		z M58.2,22.8h-1v-6h1V22.8z"/>
	<path class="st0" d="M61,22.8H60v-8.4H61V22.8z"/>
	<path class="st0" d="M65,21.5l-2.1,3.7l-0.8-0.5l2.1-3.7L65,21.5z"/>
	<path class="st0" d="M75.9,22.8L73.7,20h-0.2h-2.1v2.8h-1.1v-8.4h3.2c1.6,0,2.8,1.2,2.8,2.8c0,1.1-0.6,2.1-1.5,2.5l2.5,3.1H75.9z
		 M72.8,19l-0.5-0.6l0.8-0.7l0.9,1.2c0.6-0.2,1.1-0.8,1.1-1.6c0-1-0.8-1.7-1.8-1.7h-2.1V19H72.8z"/>
	<path class="st0" d="M78,15.1c0-0.5,0.3-0.8,0.8-0.8c0.5,0,0.8,0.3,0.8,0.8c0,0.5-0.3,0.8-0.8,0.8C78.3,15.9,78,15.6,78,15.1z
		 M79.3,22.8h-1v-6h1V22.8z"/>
	<path class="st0" d="M83.7,16.7c0.9,0,1.6,0.3,2.2,0.9l-0.7,0.8c-0.5-0.5-1-0.7-1.6-0.7c-1.2,0-2,0.9-2,2.1c0,1.3,0.8,2.1,2,2.1
		c0.6,0,1.2-0.2,1.7-0.7L86,22c-0.6,0.6-1.4,0.9-2.3,0.9c-1.8,0-3.1-1.3-3.1-3.1S81.9,16.7,83.7,16.7z"/>
	<path class="st0" d="M88.1,17.7c0.5-0.7,1.1-1.1,2-1.1c1.4,0,2.3,0.9,2.3,2.6v3.5h-1.1v-3.6c0-1-0.5-1.6-1.4-1.6
		c-1.2,0-1.8,0.8-1.8,2.4v2.8h-1v-8.4h1V17.7z"/>
	<path class="st0" d="M96.3,16.7c1.6,0,2.4,0.8,2.4,2.2v3.9h-1v-0.9c-0.4,0.6-1.1,1-2,1c-1.2,0-2-0.8-2-1.9c0-1,0.7-1.7,1.9-1.8
		l1.7-0.2c0.3,0,0.4-0.1,0.4-0.3v-0.2c0-0.6-0.5-1-1.3-1c-0.9,0-1.4,0.4-1.5,1.1l-0.9-0.5C94.1,17.2,95,16.7,96.3,16.7z M95.7,20.2
		c-0.6,0.1-1,0.4-1,0.9c0,0.5,0.4,0.9,1.1,0.9c1,0,1.8-0.7,1.8-1.6v-0.4L95.7,20.2z"/>
	<path class="st0" d="M102.9,16.7c0.2,0,0.4,0,0.6,0.1v1.1c-0.2,0-0.4-0.1-0.6-0.1c-1.3,0-1.8,0.9-1.8,2.3v2.8h-1v-6h1v0.9
		C101.5,17,102.1,16.7,102.9,16.7z"/>
	<path class="st0" d="M110.2,22.8h-1v-0.9c-0.5,0.7-1.2,1-2.1,1c-1.7,0-2.9-1.3-2.9-3.1c0-1.8,1.2-3.1,2.9-3.1c0.9,0,1.5,0.3,2.1,1
		v-3.3h1V22.8z M105.2,19.8c0,1.3,0.8,2.2,2,2.2s2-0.9,2-2.2c0-1.3-0.8-2.2-2-2.2S105.2,18.5,105.2,19.8z"/>
	<path class="st0" d="M115.5,14.4h1.1v4.2l4.1-4.2h1.5l-3.6,3.7l3.6,4.7h-1.4l-3-4l-1.3,1.3v2.7h-1.1V14.4z"/>
	<path class="st0" d="M125.8,16.7c1.8,0,3.1,1.3,3.1,3.1c0,1.8-1.3,3.1-3.1,3.1c-1.8,0-3.1-1.3-3.1-3.1
		C122.6,18,124,16.7,125.8,16.7z M125.8,17.7c-1.2,0-2.1,0.9-2.1,2.1c0,1.2,0.8,2.1,2.1,2.1c1.2,0,2.1-0.9,2.1-2.1
		C127.8,18.5,127,17.7,125.8,17.7z"/>
	<path class="st0" d="M131.8,22.8h-1v-5.1h-1.3v-0.9h1.3v-0.3c0-1.6,0.8-2.2,1.9-2.2c0.3,0,0.6,0,0.9,0.1v0.9
		c-0.3,0-0.6-0.1-0.8-0.1c-0.7,0-1,0.3-1,1.3v0.3h1.7v0.9h-1.7V22.8z"/>
	<path class="st0" d="M134.4,15.1c0-0.5,0.3-0.8,0.8-0.8c0.5,0,0.8,0.3,0.8,0.8c0,0.5-0.3,0.8-0.8,0.8
		C134.8,15.9,134.4,15.6,134.4,15.1z M135.8,22.8h-1v-6h1V22.8z"/>
	<path class="st0" d="M143.5,16.7c1.9,0,2.9,1.4,2.9,3.1v0.3h-4.8v0c0.1,1.2,0.9,1.9,2,1.9c0.9,0,1.5-0.4,1.9-0.9l0.5,0.8
		c-0.5,0.5-1.3,1.1-2.4,1.1c-1.8,0-3.1-1.2-3.1-3.1C140.5,18.1,141.6,16.7,143.5,16.7z M143.5,17.6c-1.1,0-1.7,0.7-1.9,1.7h3.6
		C145.1,18.3,144.5,17.6,143.5,17.6z"/>
	<path class="st0" d="M147.5,16.8h1v0.9c0.4-0.7,1.2-1.1,2-1.1c1.4,0,2.2,0.9,2.2,2.5v3.6h-1.1v-3.6c0-1-0.5-1.6-1.5-1.6
		c-1.1,0-1.7,0.8-1.7,2.4v2.8h-1V16.8z"/>
	<path class="st0" d="M164.2,21.2h-5.1l-0.7,1.6h-1.2l3.9-8.4h1.1l3.9,8.4H165L164.2,21.2z M163.7,20.1l-2.1-4.4l-2.1,4.4H163.7z"/>
	<path class="st0" d="M168.2,21v1.8h-1v-8.4h1v5.3l2.7-2.9h1.5l-2.6,2.6l2.6,3.4H171l-1.9-2.7L168.2,21z"/>
	<path class="st0" d="M172.6,16.8h1.2l1.7,4.4l1.8-4.4h0.7l1.8,4.4l1.7-4.4h1.2l-2.5,6h-0.8l-1.8-4.3l-1.8,4.3h-0.8L172.6,16.8z"/>
	<path class="st0" d="M186,16.7c1.6,0,2.4,0.8,2.4,2.2v3.9h-1v-0.9c-0.4,0.6-1.1,1-2,1c-1.2,0-2-0.8-2-1.9c0-1,0.7-1.7,1.9-1.8
		L187,19c0.3,0,0.4-0.1,0.4-0.3v-0.2c0-0.6-0.5-1-1.3-1c-0.9,0-1.4,0.4-1.5,1.1l-0.9-0.5C183.9,17.2,184.7,16.7,186,16.7z
		 M185.5,20.2c-0.6,0.1-1,0.4-1,0.9c0,0.5,0.4,0.9,1.1,0.9c1,0,1.8-0.7,1.8-1.6v-0.4L185.5,20.2z"/>
	<path class="st0" d="M191.9,16.7c1.1,0,1.9,0.4,2.4,1.3l-0.9,0.5c-0.3-0.6-0.8-0.9-1.6-0.9c-0.7,0-1.2,0.3-1.2,0.8
		c0,0.5,0.5,0.6,1.4,0.9c1.3,0.3,2.2,0.6,2.2,1.8c0,1.2-0.8,1.9-2.3,1.9c-1.2,0-2.2-0.5-2.7-1.4l0.9-0.5c0.3,0.6,0.9,1,1.8,1
		c0.8,0,1.2-0.3,1.2-0.8c0-0.6-0.5-0.7-1.3-0.9c-1.1-0.3-2.3-0.6-2.3-1.8C189.7,17.4,190.5,16.7,191.9,16.7z"/>
	<path class="st0" d="M195.2,15.1c0-0.5,0.3-0.8,0.8-0.8s0.8,0.3,0.8,0.8c0,0.5-0.3,0.8-0.8,0.8S195.2,15.6,195.2,15.1z M196.5,22.8
		h-1v-6h1V22.8z"/>
</g>
</svg>
